<svg xmlns="http://www.w3.org/2000/svg" viewBox="0 0 37.73 28.91"><defs><style>.cls-1{fill:#36c036;}</style></defs><title>family_faq-a</title><g id="レイヤー_2" data-name="レイヤー 2"><g id="レイヤー_2-2" data-name="レイヤー 2"><path class="cls-1" d="M21.56,21.42H7.63L4.94,27.3a2.5,2.5,0,0,1-2.31,1.47A2.47,2.47,0,0,1,0,26.53a2.49,2.49,0,0,1,.25-1.05L11,2.17A3.83,3.83,0,0,1,14.6,0a4,4,0,0,1,3.67,2.17L29,25.45a2.21,2.21,0,0,1,.25,1,2.48,2.48,0,0,1-2.63,2.28,2.44,2.44,0,0,1-2.27-1.47ZM15,6.41a.4.4,0,0,0-.32-.28c-.14,0-.24.1-.35.28L9.7,16.8h9.83Z"/><path class="cls-1" d="M34.9,28.91a2.84,2.84,0,1,1,2.83-2.83A2.82,2.82,0,0,1,34.9,28.91Z"/></g></g></svg>