<svg xmlns="http://www.w3.org/2000/svg" width="890" height="106.74" viewBox="0 0 890 106.74">
  <defs>
    <style>
      .cls-1 {
        fill: #e6222e;
      }

      .cls-2 {
        fill: #fff;
      }
    </style>
  </defs>
  <g id="レイヤー_2" data-name="レイヤー 2">
    <g id="object">
      <g>
        <g>
          <path d="M118,30.47V4.17h10.21v26.3Z"/>
          <path d="M342.2,30.47V4.17h10.21v26.3Z"/>
          <path d="M160,30.68h-8.55l-7.66-10.52V30.47h-9.32V4.17h8l8.17,11.07V4.17H160Z"/>
          <path d="M275.22,30.68h-8.54L259,20.16V30.47h-9.34V4.17h8.05l8.16,11.07V4.17h9.34Z"/>
          <path d="M414.08,30.68h-8.55l-7.66-10.52V30.47h-9.33V4.17h8l8.18,11.07V4.17h9.33Z"/>
          <path d="M164.13,14.41V4.17h23.39V14.41h-6.59V30.47H170.72V14.41Z"/>
          <path d="M314.12,14.41V4.17h23.36V14.41h-6.56V30.47H320.69V14.41Z"/>
          <path d="M492.3,14.41V4.17h23.38V14.41H509.1V30.47H498.89V14.41Z"/>
          <path d="M657.9,14.41V4.17h23.36V14.41h-6.58V30.47H664.47V14.41Z"/>
          <path d="M213.29,24.64v5.83H191.44V4.17h21.85v5.92H201.64v4.68h8.54V19.9h-8.54v4.74Z"/>
          <path d="M217.54,4.17h17.19a10.08,10.08,0,0,1,7,2.29,7.2,7.2,0,0,1,2.53,5.59c0,2.51-1.57,4.4-3.58,5.86a22.6,22.6,0,0,1,5.68,12.56H235a20.93,20.93,0,0,0-1.49-7.36c-.77-1.54-2.72-2.33-5.78-2.33v9.69h-10.2Zm10.2,5.47v5h1.76c3.07,0,3.85-.81,3.85-2.5a2.68,2.68,0,0,0-.63-1.78,4.67,4.67,0,0,0-2.85-.76Z"/>
          <path d="M289.12,30.47h-10.2l9.13-26.3h16.6l9.12,26.3H303.58L302.06,26H290.65Zm3.64-10.67h7.18L296.29,9.61Z"/>
          <path d="M428,30.47H417.77l9.14-26.3H443.5l9.14,26.3h-10.2L440.92,26H429.5Zm3.64-10.67h7.18L435.16,9.61Z"/>
          <path d="M371.16,30.89a12.87,12.87,0,0,1-9.55-3.95,12.91,12.91,0,0,1-3.93-9.58,13.18,13.18,0,0,1,3.93-9.65,13.59,13.59,0,0,1,19.12,0,13.16,13.16,0,0,1,3.91,9.65,12.9,12.9,0,0,1-3.91,9.58A12.86,12.86,0,0,1,371.16,30.89Zm0-18.8a3.91,3.91,0,0,0-3,1.34,4.39,4.39,0,0,0-1.2,3.15,4.39,4.39,0,0,0,1.2,3.22,4.15,4.15,0,0,0,6.09,0,4.37,4.37,0,0,0,1.23-3.22,4.37,4.37,0,0,0-1.23-3.15A3.9,3.9,0,0,0,371.16,12.09Z"/>
          <path d="M532.09,30.89a12.91,12.91,0,0,1-9.56-3.95,13,13,0,0,1-3.91-9.58,13.24,13.24,0,0,1,3.91-9.65,13.6,13.6,0,0,1,19.13,0,13.25,13.25,0,0,1,3.92,9.65,13,13,0,0,1-3.92,9.58A12.91,12.91,0,0,1,532.09,30.89Zm0-18.8a3.89,3.89,0,0,0-3,1.34,4.39,4.39,0,0,0-1.2,3.15,4.39,4.39,0,0,0,1.2,3.22,4.15,4.15,0,0,0,6.09,0,4.32,4.32,0,0,0,1.21-3.22,4.31,4.31,0,0,0-1.21-3.15A3.91,3.91,0,0,0,532.09,12.09Z"/>
          <path d="M625.91,30.89a12.9,12.9,0,0,1-9.55-3.95,13,13,0,0,1-3.93-9.58,13.26,13.26,0,0,1,3.93-9.65,13.6,13.6,0,0,1,19.13,0,13.22,13.22,0,0,1,3.93,9.65,13,13,0,0,1-3.93,9.58A12.92,12.92,0,0,1,625.91,30.89Zm0-18.8a3.89,3.89,0,0,0-3,1.34,4.34,4.34,0,0,0-1.19,3.15,4.35,4.35,0,0,0,1.19,3.22,4.15,4.15,0,0,0,6.09,0,4.33,4.33,0,0,0,1.22-3.22A4.32,4.32,0,0,0,629,13.43,3.89,3.89,0,0,0,625.91,12.09Z"/>
          <path d="M698.12,30.89a12.84,12.84,0,0,1-9.55-3.95,13,13,0,0,1-4-9.58,13.24,13.24,0,0,1,4-9.65,13.6,13.6,0,0,1,19.13,0,13.32,13.32,0,0,1,3.91,9.65,13,13,0,0,1-3.91,9.58A13,13,0,0,1,698.12,30.89Zm0-18.8a3.89,3.89,0,0,0-3,1.34,4.35,4.35,0,0,0-1.21,3.15,4.36,4.36,0,0,0,1.21,3.22,4.15,4.15,0,0,0,6.09,0,4.37,4.37,0,0,0,1.22-3.22,4.36,4.36,0,0,0-1.22-3.15A3.88,3.88,0,0,0,698.12,12.09Z"/>
          <path d="M831.46,30.89a12.88,12.88,0,0,1-9.55-3.95A12.88,12.88,0,0,1,818,17.36a13.14,13.14,0,0,1,3.93-9.65,13.6,13.6,0,0,1,19.13,0A13.26,13.26,0,0,1,845,17.36,13,13,0,0,1,841,26.94,13,13,0,0,1,831.46,30.89Zm0-18.8a3.89,3.89,0,0,0-3,1.34,4.31,4.31,0,0,0-1.2,3.15,4.31,4.31,0,0,0,1.2,3.22,4.14,4.14,0,0,0,6.08,0,4.33,4.33,0,0,0,1.23-3.22,4.33,4.33,0,0,0-1.23-3.15A3.88,3.88,0,0,0,831.46,12.09Z"/>
          <path d="M456,30.47V4.17h10.2v19.7h11.64v6.6Z"/>
          <path d="M560,4.17v8.77q5.15-.22,6.69-2.47a11.18,11.18,0,0,0,1.56-6.3H579.4a20.81,20.81,0,0,1-1.26,7.92c-.84,2.13-3.08,3.86-4.88,5.27a17.34,17.34,0,0,1,6.88,13.11H568.3c-.18-6.69-3.07-9.42-8.29-9.54v9.54H549.83V4.17Z"/>
          <path d="M602.8,30.47H592.6V19L582.13,4.17h10.35l5.22,8.53,5.19-8.53h10.35L602.8,19Z"/>
          <path d="M730.87,30.47H720.66V19L710.2,4.17h10.34l5.22,8.53L731,4.17h10.37L730.87,19Z"/>
          <path d="M780.52,5.5l-2.43,7c-1.9-1.43-4.33-3-6.78-3.17-.78,0-2-.19-2.52,1-.46,1-.46,2.37,4.29,3.75a17.62,17.62,0,0,1,4.64,2.1,7.13,7.13,0,0,1,2.44,2.52,7.44,7.44,0,0,1,.81,3.53,7.41,7.41,0,0,1-3.2,6.46q-3.21,2.18-9.42,2.17a35.45,35.45,0,0,1-12.29-2l2.69-7.54c.9.7,2.88,1.75,4.74,2.92,2.32,1.37,3.87.84,4.42,0s1-2.39-3.63-4.05a19.84,19.84,0,0,1-3.48-1.61,7.37,7.37,0,0,1-3.4-6.06A7.32,7.32,0,0,1,760.58,6c2.13-1.54,5-2.5,9.14-2.5A33.08,33.08,0,0,1,780.52,5.5Z"/>
          <path d="M795.85,30.47H785.64V4.17h10.21v9.67h7.65V4.17h10.23v26.3H803.5V20.75h-7.65Z"/>
          <path d="M863.83,30.47H856l-9.28-26.3h9.92l4.49,12.16,4.64-12.16H871l4.79,12.16,4.31-12.16H890l-8.86,26.3h-7.87L868.4,18.64Z"/>
        </g>
        <g>
          <g>
            <g>
              <path class="cls-1" d="M36.61,30.94l.78-3.77a.58.58,0,0,1,.65-.46,39.56,39.56,0,0,0,8.92,0c7.06-.78,10.49-3.92,11.34-5.8a1.06,1.06,0,0,0-.06-1c-.26-.33-.85-.29-1.25-.18a48.27,48.27,0,0,1-19.28.57.58.58,0,0,1-.46-.69L40.63,2.27a.59.59,0,0,1,.57-.47l20.57-.1a.59.59,0,0,1,.57.46l6.22,28.48a.58.58,0,0,0,.62.46l26-2.52a.6.6,0,0,1,.61.4L102,47.63a.59.59,0,0,1-.27.69L81.41,60a.58.58,0,0,0-.24.73l13.5,31.1a.58.58,0,0,1-.19.7L77.61,104.69a.57.57,0,0,1-.73,0L52.43,82.27a.57.57,0,0,0-.78,0l-24.24,22.6a.57.57,0,0,1-.73.05l-17-12a.57.57,0,0,1-.2-.7l13.2-31.22a.58.58,0,0,0-.25-.73L2,48.79a.58.58,0,0,1-.27-.68l6-18.72a.58.58,0,0,1,.6-.4l27.71,2.37A.52.52,0,0,0,36.61,30.94Z"/>
              <path d="M27,106.74a2.24,2.24,0,0,1-1.32-.43l-17-12a2.28,2.28,0,0,1-.79-2.76L20.75,61.31l-19.59-11a2.29,2.29,0,0,1-1-2.69l6-18.72a2.25,2.25,0,0,1,2.36-1.58l26.67,2.28.57-2.75A2.31,2.31,0,0,1,38.29,25a37.36,37.36,0,0,0,8.49,0c4.43-.49,7.13-1.95,8.6-3.2A50.9,50.9,0,0,1,37.44,22a2.28,2.28,0,0,1-1.86-2.7L39,1.94A2.28,2.28,0,0,1,41.2.1L61.76,0h0A2.29,2.29,0,0,1,64,1.8l6,27.5,25-2.41a2.28,2.28,0,0,1,2.39,1.56l6.19,18.65a2.29,2.29,0,0,1-1,2.7L83.13,61l13.1,30.18A2.29,2.29,0,0,1,95.47,94L78.61,106.07a2.32,2.32,0,0,1-2.88-.17L52.05,84.23l-23.47,21.9A2.33,2.33,0,0,1,27,106.74Zm.64-3.21h0ZM11.43,92.1,26.92,103,50.48,81a2.28,2.28,0,0,1,3.11,0l23.77,21.74L92.75,91.71,79.61,61.45a2.28,2.28,0,0,1,1-2.89L100.12,47.3,94.49,30.36,69.35,32.79A2.27,2.27,0,0,1,66.89,31l-6-27.59L42.13,3.5l-3,15.26a45.47,45.47,0,0,0,17.42-.7,2.77,2.77,0,0,1,3,.76,2.75,2.75,0,0,1,.28,2.79c-1.18,2.62-5.22,6-12.7,6.79a42.63,42.63,0,0,1-8.3.11l-.57,2.78a2.23,2.23,0,0,1-2.37,1.77L9.1,30.77l-5.47,17L23.29,58.83a2.29,2.29,0,0,1,1,2.88Zm39.85-8.57h0ZM34.94,30.59h0ZM9.37,29.91h0Zm84.84-.4h0ZM38.92,19.9h0Zm2.3-16.4h0Zm20.56-.09Zm-1.1-.89h0Z"/>
            </g>
            <path d="M46.23,18.44a.9.9,0,0,1-.87-1.17,50.46,50.46,0,0,0,2-11.94.9.9,0,0,1,.94-.85.91.91,0,0,1,.86.95A52,52,0,0,1,47.08,17.8a.91.91,0,0,1-.85.64Z"/>
          </g>
          <path d="M57.48,12.44a1.44,1.44,0,1,1-2.83,0,1.43,1.43,0,1,1,2.83,0Z"/>
          <path d="M42.52,8.47a1.12,1.12,0,1,0,2.21,0,1.12,1.12,0,1,0-2.21,0Z"/>
          <g>
            <path class="cls-2" d="M40.07,42.18V43.4A4,4,0,0,1,36.7,45a4.13,4.13,0,0,1-2.93-1,3.43,3.43,0,0,1-1.12-2.66,3.39,3.39,0,0,1,1-2.57,3.68,3.68,0,0,1,2.64-1,4.24,4.24,0,0,1,1.53.27,3.22,3.22,0,0,1,1.23.81,3.45,3.45,0,0,1,.77,1.25,5.72,5.72,0,0,1,.25,1.74H36.41a1.7,1.7,0,0,0,.67.84,2,2,0,0,0,1.05.3A2.64,2.64,0,0,0,40.07,42.18Zm-3.88-1.59h1.68a1.33,1.33,0,0,0-.26-.81.75.75,0,0,0-.61-.29.73.73,0,0,0-.57.29A1.23,1.23,0,0,0,36.19,40.59Z"/>
            <path class="cls-2" d="M44.73,37.83v.88a2.91,2.91,0,0,1,2.16-.94,2.47,2.47,0,0,1,1.88.66,2.9,2.9,0,0,1,.66,2l0,4.34H46.06l0-4.07c0-.58-.22-.86-.66-.86a1.12,1.12,0,0,0-.64.23l0,4.71-3.58,0,0-7Z"/>
            <path class="cls-2" d="M56.29,37.77v2H54.8v1.5c0,.5.23.75.68.75a1,1,0,0,0,.85-.5l0,2.76a3.61,3.61,0,0,1-2.06.57,3.17,3.17,0,0,1-2.18-.76,2.69,2.69,0,0,1-.89-2.12V39.75H49.76l5-4v2Z"/>
            <path class="cls-2" d="M64.57,42.06v1.22a4,4,0,0,1-3.38,1.56,4.16,4.16,0,0,1-2.93-1,3.45,3.45,0,0,1-1.12-2.66,3.41,3.41,0,0,1,1-2.56,3.61,3.61,0,0,1,2.63-1,4.06,4.06,0,0,1,1.54.28,3.49,3.49,0,0,1,1.23.8A3.38,3.38,0,0,1,64.31,40a5.14,5.14,0,0,1,.25,1.73l-3.65,0a1.6,1.6,0,0,0,.66.83,1.9,1.9,0,0,0,1.06.3A2.56,2.56,0,0,0,64.57,42.06Zm-3.88-1.58h1.68a1.35,1.35,0,0,0-.26-.81.73.73,0,0,0-.61-.29.72.72,0,0,0-.57.28A1.15,1.15,0,0,0,60.69,40.48Z"/>
            <path class="cls-2" d="M69.24,39.24a2.17,2.17,0,0,1,2-1.59,1.58,1.58,0,0,1,1.19.47,1.61,1.61,0,0,1,.48,1.2,1.7,1.7,0,0,1-.46,1.24,1.64,1.64,0,0,1-1.2.48,1.94,1.94,0,0,1-1.45-.63,2.11,2.11,0,0,0-.53,1.68v2.6l-3.58,0,0-7,3.58,0Z"/>
            <path class="cls-2" d="M32.59,56.34l0-5.65,11.32,0,0,5.64-2.84,0,0,7.09-5.65,0,0-7.09Z"/>
            <path class="cls-2" d="M52.33,63.55a6.26,6.26,0,0,1-4.63-1.89A6.42,6.42,0,0,1,45.78,57a6.53,6.53,0,1,1,6.55,6.55Zm0-8.26a1.17,1.17,0,0,0-.9.38,1.46,1.46,0,0,0,0,1.92,1.23,1.23,0,0,0,.91.37,1.21,1.21,0,0,0,.91-.38,1.48,1.48,0,0,0,0-1.92A1.21,1.21,0,0,0,52.3,55.29Z"/>
            <path class="cls-2" d="M69.16,63.25l-5.64,0,0-5.56-4.89-7.15,5.71,0,2,2.88,1.94-2.89,5.72,0-4.82,7.2Z"/>
            <path class="cls-2" d="M36.56,68.17V69a2.8,2.8,0,0,1,2.14-.94A2.44,2.44,0,0,1,41,69.29a4.38,4.38,0,0,1,1.2-.92,3.23,3.23,0,0,1,1.35-.3,2.37,2.37,0,0,1,1.79.69,2.75,2.75,0,0,1,.66,2l0,4.38-3.39,0,0-4.17a.86.86,0,0,0-.18-.58.59.59,0,0,0-.48-.2,1.17,1.17,0,0,0-.66.23l0,4.72-3.39,0,0-4.17a.85.85,0,0,0-.18-.57.6.6,0,0,0-.48-.21,1.14,1.14,0,0,0-.66.24l0,4.71-3.58,0,0-7Z"/>
            <path class="cls-2" d="M54.91,72.4v1.22a4,4,0,0,1-3.38,1.56,4.11,4.11,0,0,1-2.93-1A3.73,3.73,0,0,1,48.5,69a3.6,3.6,0,0,1,2.63-1,3.87,3.87,0,0,1,1.54.27A3.38,3.38,0,0,1,53.9,69a3.26,3.26,0,0,1,.76,1.25A5.14,5.14,0,0,1,54.91,72l-3.65,0a1.6,1.6,0,0,0,.66.83,1.9,1.9,0,0,0,1.06.3A2.54,2.54,0,0,0,54.91,72.4ZM51,70.82h1.68a1.35,1.35,0,0,0-.26-.81.73.73,0,0,0-.61-.29.7.7,0,0,0-.57.29A1.17,1.17,0,0,0,51,70.82Z"/>
            <path class="cls-2" d="M60.05,68.05v.88A2.87,2.87,0,0,1,62.2,68a2.48,2.48,0,0,1,1.89.67,2.82,2.82,0,0,1,.66,2l0,4.33-3.39,0,0-4.07q0-.87-.66-.87a1.12,1.12,0,0,0-.64.23l0,4.71-3.59,0,0-7Z"/>
            <path class="cls-2" d="M72.08,68v2H70.6v1.5c0,.5.23.76.69.75a1,1,0,0,0,.85-.5v2.77A3.63,3.63,0,0,1,70.1,75a3.17,3.17,0,0,1-2.18-.76A2.63,2.63,0,0,1,67,72.16L67,70H65.55l5-4v2Z"/>
          </g>
        </g>
        <g>
          <g>
            <path d="M369.2,64.34V52.56H335.55V48.51H318v4.05h-4.68V64.34H318v3.45h-4.68V79.61H318V82c0,15.08,6.68,23,21.07,23h8.15c11.71,0,21.85-5.48,21.85-24.28v-13H351.87v13c0,4.41-1.69,7.68-7.66,7.68h-1.3c-4.29,0-7.36-1.17-7.36-6.37v-2.4h12.93V67.79H335.55V64.34Z"/>
            <path d="M413.1,69.52H405V66.14h25.8V52H405V48.51H387.44V52h-9.68V66.14h9.68V84.06h23.07c2.38,0,3.1,1,3.1,2.34,0,1.18-.92,2-3.32,2h-28.8V105h28.8c17.41,0,22.92-5.91,22.92-18.18C433.21,71.34,424.57,69.52,413.1,69.52Z"/>
            <path d="M283.35,69.52h-5.29V66.07h5.7V52h-5.7V48.51H263.13V52H247.81V66.07h15.46v3.45h-1.64c-7.85,0-15.38,5.36-15.38,17.78C246.25,99,252.4,105,263,105c13.54,0,15.07-8.08,15.07-17.07V84.06h5.63c2.15,0,3.4.33,3.4,2.2,0,1.45-.69,2.12-3.3,2.12-1.24,0-2.43,0-2.43,0V105h2.2c10.5,0,19.36-3,19.36-18.14C302.92,74.69,293.81,69.52,283.35,69.52ZM263.27,88.08c0,1.86-.59,2.75-1.53,2.75h-.57c-1.57,0-2-1.73-2-3.53,0-2.25,1.16-3.23,2.87-3.23h1.2Zm23.88-42.19V60.11c3.1,0,3.52,1.92,3.52,3.44v4.09h14.1V62C304.77,50.74,300,45.37,287.15,45.89Z"/>
            <path d="M527.93,69.52l-2.48,9.4c-1.9,6.59-8.93,9.46-15.07,9.46h-19.3V105h20.25c15,0,26.78-7,30.34-22.22,1.61-6.86,2.17-14.36,6.37-14.36v-18C533.7,50.41,530.74,57.35,527.93,69.52Zm-9.9-21H491.08V63.06H518Zm0,18H491.08V81.09H518Z"/>
            <rect x="602.31" y="68.71" width="52.24" height="17.2"/>
            <path d="M579.9,63.89H554.44V76.14h23.78c2.28,0,1.93,2,1.93,3.44H556.8v9.69h23.35v3.46H554.44V105h40.34V77.41C594.78,71.17,590.85,63.89,579.9,63.89Z"/>
            <path d="M476.77,71.75c.74-1,1.84-1.39,3.63-1.39V60.15c-10,0-14.2,3.87-16,8.45h-7l-.3-4.71H444.59l.31,4.71h-4.72V81.71h5.59l1.5,23.27h12.49l-1.49-23.27h5.58c3.26,0,4.71,1,4.71,3.14,0,2.38-1.45,3.56-5.61,3.56v13.1c14.81,0,19.38-5.75,19.38-15.25l0-2.94C482.36,78.92,480.8,74.5,476.77,71.75Z"/>
            <path d="M183.16,86.33h18.93V105h16.74V86.33h19V61.71H183.16Zm13.7-14.16h27.29v3.72H196.86Zm21-23.66V45.89H203.08v2.62h-21v9.77h56.75V48.51ZM189.09,89.6c-.16,3.79-3.41,5.42-7,5.12V105c13.44.53,17.92-5.66,17.57-15.39Z"/>
            <path d="M173.85,58.22V48.51H152.92V45.89H138.1v2.62H117.22v9.71H138.1v3.46H118.18V89.53h13.47c-2.12,3-8.48,5.21-14.59,5.1v10.3c9.35,0,16.38-2.19,20.08-6.22V105H153.7V98.71c3.73,4,10.76,6.27,20.06,6.22V94.63c-5.84.11-12-1.29-14.56-5.1h13.65V61.68H152.92V58.22ZM138.1,83h-6.25V79.59h6.25Zm0-11.33h-6.25V68.22h6.25ZM159.15,83h-6.23V79.59h6.23Zm0-14.79v3.46h-6.23V68.22Z"/>
            <path d="M231.87,89.6c.12,3.79,3.42,5.42,7,5.12V105c-13.4.53-17.86-5.66-17.55-15.39Z"/>
          </g>
          <g>
            <path d="M663.2,49.09V64.84h32.06c2.06,0,3.5.55,3.5,2.56,0,1.7-1.22,2.5-3.5,2.5H666.12V105h48V88.57h-30V84.31h9.75c20.24.43,23.8-8,23.79-17.19,0-13.59-7.54-18-22.07-18Z"/>
            <path d="M782.66,49.09V64.84h32.05c2.07,0,3.51.55,3.51,2.56-.05,1.7-1.23,2.5-3.51,2.5H785.58V105h48V88.57h-30V84.31h9.75c20.24.43,23.79-8,23.79-17.19,0-13.59-7.55-18-22.08-18Z"/>
            <path d="M844.7,49.09V64.84h10.59c3.79,0,5.6,2.29,5.6,5.12V105h19.49V70c0-17.83-9.47-20.87-21.22-20.87Z"/>
            <path d="M744,49.09c-10.37,0-21.58,8.54-21.58,19.07V86c0,10.5,11.21,19,21.58,19h11.55c10.43,0,21.58-8.5,21.58-19V68.16c0-10.53-11.15-19.07-21.58-19.07Zm-3.25,34.65V70.35c0-2.28,2.13-5.51,4.72-5.51h8.65c2.53,0,4.72,3.23,4.72,5.51V83.74c0,2.53-2.3,5.59-4.72,5.59h-8.65C742.81,89.33,740.77,86.34,740.77,83.74Z"/>
          </g>
        </g>
      </g>
    </g>
  </g>
</svg>
