<svg width="311" height="26" viewBox="0 0 311 26" fill="none" xmlns="http://www.w3.org/2000/svg">
<path d="M93 13.6668V25.6695H90.5342V13.6668H93Z" fill="white"/>
<path d="M88.8224 25.6695H86.1099L83.9259 20.9554H81.9532V25.6695H79.4874V13.6668H83.8378C86.6383 13.6668 88.382 14.9019 88.382 17.3372C88.382 18.955 87.6247 20.0161 86.3037 20.5553L88.8224 25.6695ZM81.9532 18.9028H83.6089C85.0708 18.9028 85.9162 18.5897 85.9162 17.3372C85.9162 16.0847 85.0708 15.7368 83.6089 15.7368H81.9532V18.9028Z" fill="white"/>
<path d="M70.3024 13.6668H77.8761V15.7368H72.7682V18.7114H77.3477V20.764H72.7682V25.6695H70.3024V13.6668Z" fill="white"/>
<path d="M63.9719 8.04237V17.9209C63.9719 23.613 59.9561 26 55.3454 26C50.7347 26 46.7189 23.613 46.7189 17.9209V8.0791C46.7189 2.12994 50.7347 0 55.3454 0C59.9561 0 63.9719 2.12994 63.9719 8.04237ZM58.7663 8.51978C58.7663 5.80226 57.6508 4.33333 55.3454 4.33333C53.0029 4.33333 51.8874 5.80226 51.8874 8.51978V17.4802C51.8874 20.1977 53.0029 21.6667 55.3454 21.6667C57.6508 21.6667 58.7663 20.1977 58.7663 17.4802V8.51978Z" fill="white"/>
<path d="M42.9619 21.3362V25.6695H27.1218V22.3644L35.7111 12.3757C37.31 10.5395 38.0909 8.99718 38.0909 7.34463C38.0909 5.28814 36.5664 4.25989 34.8931 4.25989C33.1455 4.25989 31.8441 5.32486 31.6953 7.34463H27.0846C27.0846 2.97458 30.7286 0 35.1534 0C39.7641 0 43.2594 3.15819 43.2594 7.34463C43.2594 10.6864 41.0284 13.2938 39.3923 15.2034L34.1123 21.3362H42.9619Z" fill="white"/>
<path d="M22.9808 19.9407V25.6695H17.1802V19.9407H22.9808Z" fill="white"/>
<path d="M4.16454 25.6695L9.55613 15.2401C8.73809 15.6073 7.95724 15.7175 7.06484 15.7175C3.1234 15.7175 0 12.5226 0 8.15254C0 2.5339 3.86707 0 8.62654 0C13.4232 0 17.2903 2.49718 17.2903 8.11582C17.2903 10.0989 16.3607 12.4492 14.9105 15.3503L9.74204 25.6695H4.16454ZM12.0846 7.9322C12.0846 5.80226 10.8947 4.33333 8.62654 4.33333C6.39554 4.33333 5.20567 5.80226 5.20567 7.9322C5.20567 10.0254 6.39554 11.4944 8.62654 11.4944C10.8947 11.4944 12.0846 10.0254 12.0846 7.9322Z" fill="white"/>
<path d="M308.679 13.6668H311V25.6695H308.958L304.265 18.2417V25.6695H301.944V13.6668H303.968L308.679 21.1989V13.6668Z" fill="white"/>
<path d="M297.128 13.6668H299.57V20.7988C299.57 24.3475 297.616 25.826 294.946 25.826C292.277 25.826 290.322 24.3475 290.322 20.8162V13.6668H292.765V20.8162C292.765 22.8689 293.446 23.7734 294.946 23.7734C296.447 23.7734 297.128 22.8689 297.128 20.8162V13.6668Z" fill="white"/>
<path d="M288.382 15.4759L286.55 16.7806C286.026 15.963 285.398 15.5629 284.177 15.5629C283.077 15.5629 282.484 16.0673 282.484 16.8849C282.484 17.8243 283.252 18.2417 284.857 18.6418C287.37 19.2681 288.504 20.2074 288.504 22.3296C288.504 24.2953 287.178 25.826 284.351 25.826C282.24 25.826 280.774 25.252 279.71 23.8604L281.577 22.5731C282.222 23.3733 282.955 23.7734 284.194 23.7734C285.59 23.7734 286.061 23.1646 286.061 22.434C286.061 21.599 285.555 21.1293 283.601 20.6249C281.228 19.9987 280.041 18.868 280.041 16.8849C280.041 14.9888 281.298 13.5103 284.159 13.5103C286.079 13.5103 287.527 14.1539 288.382 15.4759Z" fill="white"/>
<path d="M269.888 0.330509L264.584 10.7599C265.357 10.3927 266.131 10.2825 267.052 10.2825C270.956 10.2825 274.014 13.4774 274.014 17.8475C274.014 23.4661 270.22 26 265.504 26C260.752 26 256.921 23.5028 256.921 17.8842C256.921 15.9011 257.805 13.5508 259.242 10.6497L264.362 0.330509H269.888ZM262.079 18.0678C262.079 20.1977 263.221 21.6667 265.504 21.6667C267.715 21.6667 268.857 20.1977 268.857 18.0678C268.857 15.9746 267.715 14.5056 265.504 14.5056C263.221 14.5056 262.079 15.9746 262.079 18.0678Z" fill="white"/>
<path d="M253.298 19.9407V25.6695H247.551V19.9407H253.298Z" fill="white"/>
<path d="M243.94 8.04237V17.9209C243.94 23.613 239.961 26 235.393 26C230.825 26 226.847 23.613 226.847 17.9209V8.0791C226.847 2.12994 230.825 0 235.393 0C239.961 0 243.94 2.12994 243.94 8.04237ZM238.782 8.51977C238.782 5.80226 237.677 4.33333 235.393 4.33333C233.072 4.33333 231.967 5.80226 231.967 8.51977V17.4802C231.967 20.1977 233.072 21.6667 235.393 21.6667C237.677 21.6667 238.782 20.1977 238.782 17.4802V8.51977Z" fill="white"/>
<path d="M220.804 0.330509V25.6695H215.647V5.69209L212 8.0791V3.12147L216.163 0.330509H220.804Z" fill="white"/>
<path d="M108 13H197" stroke="white"/>
</svg>
