<svg id="グループ_424" data-name="グループ 424" xmlns="http://www.w3.org/2000/svg" width="58" height="32" viewBox="0 0 58 32">
  <defs>
    <style>
      .cls-1 {
        fill: #1f1f1f;
      }
    </style>
  </defs>
  <path id="パス_50" data-name="パス 50" class="cls-1" d="M56,2v8.1a6.481,6.481,0,0,0-3.295,1.958A5.636,5.636,0,0,0,51,16.169a5.963,5.963,0,0,0,5,5.75V30H2V21.657A6.01,6.01,0,0,0,6,16a6.01,6.01,0,0,0-4-5.657V2H56m1-2H1A1,1,0,0,0,0,1V12a4,4,0,0,1,4,4,4,4,0,0,1-4,4V31a1,1,0,0,0,1,1H57a1,1,0,0,0,1-1V19.859a3.951,3.951,0,0,1-5-3.746,3.676,3.676,0,0,1,1.128-2.652A3.564,3.564,0,0,1,58,12.141V1a1,1,0,0,0-1-1h0Z"/>
  <path id="パス_51" data-name="パス 51" class="cls-1" d="M30.345,9.234h0M29,11.96l.988,2a2,2,0,0,0,1.506,1.094l2.209.321-1.6,1.558a2,2,0,0,0-.575,1.77l.377,2.2-1.975-1.038a2,2,0,0,0-1.862,0L26.1,20.9l.377-2.2a2,2,0,0,0-.575-1.77l-1.6-1.558,2.209-.321a2,2,0,0,0,1.506-1.094l.988-2m0-3.889a.493.493,0,0,0-.448.279l-2.333,4.727-5.216.758a.5.5,0,0,0-.277.853L24.5,18.367l-.891,5.195a.5.5,0,0,0,.493.586.491.491,0,0,0,.233-.059L29,21.636l4.666,2.453a.5.5,0,0,0,.726-.527l-.891-5.195,3.775-3.679A.5.5,0,0,0,37,13.835l-5.216-.758L29.454,8.35a.494.494,0,0,0-.448-.279h0Z"/>
  <rect id="長方形_2988" data-name="長方形 2988" class="cls-1" width="2" height="4" transform="translate(10 2)"/>
  <rect id="長方形_2989" data-name="長方形 2989" class="cls-1" width="2" height="4" transform="translate(10 8)"/>
  <rect id="長方形_2990" data-name="長方形 2990" class="cls-1" width="2" height="4" transform="translate(10 14)"/>
  <rect id="長方形_2991" data-name="長方形 2991" class="cls-1" width="2" height="4" transform="translate(10 20)"/>
  <rect id="長方形_2992" data-name="長方形 2992" class="cls-1" width="2" height="4" transform="translate(10 26)"/>
  <rect id="長方形_2993" data-name="長方形 2993" class="cls-1" width="2" height="4" transform="translate(46 2)"/>
  <rect id="長方形_2994" data-name="長方形 2994" class="cls-1" width="2" height="4" transform="translate(46 8)"/>
  <rect id="長方形_2995" data-name="長方形 2995" class="cls-1" width="2" height="4" transform="translate(46 14)"/>
  <rect id="長方形_2996" data-name="長方形 2996" class="cls-1" width="2" height="4" transform="translate(46 20)"/>
  <rect id="長方形_2997" data-name="長方形 2997" class="cls-1" width="2" height="4" transform="translate(46 26)"/>
</svg>
