<svg xmlns="http://www.w3.org/2000/svg" width="394.93" height="30"><path d="M27.2 6.81c.19.07.31.16.31.33s-.45.34-.67.36a33.17 33.17 0 00-1.44 9.24 17.14 17.14 0 00.17 2.4c.31-.45.81-1.22 1.13-1.7a10.26 10.26 0 001.72 2.38 10.65 10.65 0 00-2 5.88l-3.21.6a33.73 33.73 0 01-1.3-9.68 43 43 0 011.44-11zm11.4-.53c.12 0 .31 0 .31.26s-.33.36-.55.39a26.32 26.32 0 00-.24 2.88 21.76 21.76 0 003.55-.89v3.62c-.55.15-1.65.41-3.64.77a39.45 39.45 0 00.38 5.52A13.57 13.57 0 0143 21.3c-.38.7-1.1 2.26-1.63 3.39a8.54 8.54 0 00-2.57-1.83c-.1 3.08-3.17 3.44-4.68 3.44-3.6 0-5.4-2-5.4-4.2 0-2.86 2.83-3.94 5.95-3.87-.19-2.73-.21-3.05-.26-4.44-1.37.12-2.36.12-2.76.12a17.25 17.25 0 01-1.78-.07v-3.77a24.56 24.56 0 004.51.17V5.56zm-5 14.88c-.53 0-1.68.17-1.68.91s.79.89 1.56.89c.19 0 1.64 0 1.64-1.18a.63.63 0 000-.31 3.43 3.43 0 00-1.49-.31zM53.89 5.63c.24 0 .48.1.48.38 0 .08 0 .34-.58.41a75.74 75.74 0 00-.79 11.4c0 2.57 0 4.54 2.42 4.54 3.41 0 6.89-4.06 8.28-6.77a22.2 22.2 0 002.74 3.17c-1.3 2-5.59 7.63-11.55 7.63-5.52 0-5.52-4.49-5.52-8.85 0-1.61.17-8.74.17-10.18V5.01zm6.67 2a17.22 17.22 0 012.79 2.73 11.36 11.36 0 00-1.78 1.68 18.78 18.78 0 00-2.74-2.64zm2.23-2.07a23.48 23.48 0 012.76 2.59c-.19.2-1 .94-1.22 1.11s-.29.31-.41.43a35 35 0 00-2.66-2.64zm12.27.98a20.3 20.3 0 00.55 3.94 11.4 11.4 0 014.32-1.39A23.24 23.24 0 0080.29 5l4.06.93c.28.08.45.17.45.37s-.38.31-.5.31-.46 2.16-.53 2.52a7.78 7.78 0 016.91 8.06c0 6.84-6.43 8.88-9.21 9.31a11.6 11.6 0 00-2.12-3.14A11.1 11.1 0 0083.82 22a5.18 5.18 0 003.12-5 4.24 4.24 0 00-4-4.56 23.22 23.22 0 01-3.07 7.08c.26.34.45.6 1.1 1.35A17.87 17.87 0 0078 23.66c-.34-.48-.48-.7-.7-1.06-2.25 2.06-3.67 2.18-4.48 2.18-2.12 0-3.58-1.53-3.58-4.12a11.63 11.63 0 013.41-7.85 48.25 48.25 0 01-1.44-5zm-1.13 9.77a7.67 7.67 0 00-1.39 3.94c0 .17 0 .84.69.84s1.61-1 2.21-1.59c-.89-1.75-1.32-2.71-1.51-3.19zm2.71-2.59a20.67 20.67 0 001.15 2.52 14.17 14.17 0 001.44-3.65 9.1 9.1 0 00-2.59 1.13zm38.07-4.51c-6.87-.08-10.95 5.95-10.95 9.07 0 4 5.43 4.27 6.7 4.34a21.34 21.34 0 00-1.8 4.32c-4.2-1-8.84-3.21-8.84-8.37 0-4.42 3.32-7.18 4.25-8A82.65 82.65 0 0094.16 12l-.5-4.51c.52 0 1 .07 1.8.07 3.52 0 13.1-.67 18.55-2.38zm10.05 8.61c-.67.58-1.87 1.83-1.87 2.62 0 1.73 3.29 1.73 4.29 1.73a33.73 33.73 0 009.63-1.44 18 18 0 00.62 4.08 36.36 36.36 0 01-9.38 1.1c-3.75 0-5.23-.41-6.41-.89-.77-.31-3-1.44-3-3.86s2.5-4.73 3.48-5.62zm10.08-7.89a16.67 16.67 0 00-6.05 3.91c-.86-.75-1.77-1.51-2.52-2.06.89-.82 1.11-1 1.8-1.57-1.49.13-5.52.34-7.56.29l-.19-4a48.3 48.3 0 006 .32 47.29 47.29 0 006.68-.56zm1.06-3.75a17.25 17.25 0 012.18 2.52 9.65 9.65 0 00-1.41 1.73 26.19 26.19 0 00-2.31-2.66zm1.85-2A26.76 26.76 0 01140 6.49a9.56 9.56 0 00-1.53 1.64 21.26 21.26 0 00-2.09-2.36zm15.98 22.76h-3.46v-6.4a23.83 23.83 0 01-7 6.12 8.22 8.22 0 00-3.07-2.38 20.55 20.55 0 007.7-6.14H141V15h4.49a19.19 19.19 0 00-1.92-3.56l1.73-1h-3.17V7.38h8.18V4.93l3.6.22c.29 0 .53 0 .53.36s-.48.41-.67.46v1.41h8.14v3.12h-3.12l1.46.63c.17.07.24.17.24.29 0 .31-.29.36-.48.4a22 22 0 01-1.51 3.2h4.5v3.12h-7.12a18.65 18.65 0 007.46 5.8 11.12 11.12 0 00-2.54 2.6 18.83 18.83 0 01-7.06-6.15zM150.27 15v-4.5h-3.09a13.68 13.68 0 012 3.7 11.92 11.92 0 00-1.83.82zm3.46-4.52V15h2.78a16.36 16.36 0 00-1.65-.87 18.78 18.78 0 001.82-3.65zm21.55 9.77a16.5 16.5 0 01-2.83 2.9 6.18 6.18 0 00-2.26-1.61c.43-.33.79-.6 1.35-1.08-1.49.65-3.32 1.35-5.26 2 0 .28-.1.62-.36.62s-.34-.31-.38-.55l-.82-3.39a17.74 17.74 0 002.71-.5v-5.45H165v-3.12h2.47v-5l3.55.19c.29 0 .51.05.51.26s-.15.29-.51.46v4.08h2.14v3.12H171v4.37c.58-.24.94-.38 1.52-.65h-.17v-2.41h14.54v2.42h-9.29l-.45.77h9.58c0 2.42-.08 7.22-1.64 8.45-.91.72-2.44.79-4 .79a7 7 0 00-.64-2.59 19 19 0 01-2.86 3 6.09 6.09 0 00-2.54-1.54 16.76 16.76 0 005.06-5.54h-1.08a16.84 16.84 0 01-6.31 6.36 6.18 6.18 0 00-2.12-1.92 14.73 14.73 0 005.6-4.44zm-2.18-3.34a10.4 10.4 0 00-.17 2.14 15.17 15.17 0 001.46-2.14zm12.09-3.21H174V5.25h11.2zM182 8.56v-.82h-4.72v.82zm-4.72 1.92v.82H182v-.82zm5.66 9.77a26.2 26.2 0 01-1.9 3.33 8 8 0 00.84.05c.48 0 .92-.05 1.08-.6a11.81 11.81 0 00.44-2.78zm11.71-12.94c.22.07.48.14.48.36s-.29.36-.51.38a21.67 21.67 0 00-1.34 7.23c0 2.93.91 5 1.61 5s1.68-2.11 2.33-3.63a11 11 0 002.52 2.55c-1.92 4.65-4.11 6.29-5.28 6.29-1.35 0-4.9-2.86-4.9-10.28a42.63 42.63 0 011.18-9zm11.59.17a23.94 23.94 0 014.85 12.07c-1.42.55-3.12 1.37-3.91 1.78a21.92 21.92 0 00-4-11.88zm18.15-1.59c.21.05.48.15.48.39s-.34.31-.53.31c-.1.38-.51 2.09-.6 2.42a14.92 14.92 0 004-1.17l.41 3.77a31.07 31.07 0 01-5.43 1.13 58.34 58.34 0 01-6.28 14 25 25 0 00-3.65-1.74 38.83 38.83 0 005.93-11.64c-1.46.12-1.75.12-4.39.15L214 9.52c.72.05 1.56.1 2.78.1s1.8 0 2.86-.1c.33-1.8.5-3.36.64-4.54zm1.8 14.45a2.31 2.31 0 00-.65 1.42.63.63 0 00.43.62 8.77 8.77 0 003.22.41 17.47 17.47 0 005.28-.79 9.65 9.65 0 00-.17 1.87 16.83 16.83 0 00.14 2 28.9 28.9 0 01-5 .41c-3.14 0-7.32-.45-7.32-3.86a6.53 6.53 0 01.94-3.15zm-1.13-6.79a30.89 30.89 0 015.3-.43 17.82 17.82 0 013.53.26c-.14 1.78-.17 2.16-.19 3.77a14 14 0 00-3.6-.43 45.53 45.53 0 00-5 .43zm23.49-7.63c.19 0 .41.09.41.31s-.34.34-.48.36c-.12.38-.53 2.09-.6 2.42a17.09 17.09 0 004-1.22l.39 3.79a26.5 26.5 0 01-5.38 1.11 61.82 61.82 0 01-6.27 14 24.15 24.15 0 00-3.62-1.81 38.93 38.93 0 005.86-11.67l-4.33.15-.31-3.89a20.8 20.8 0 002.71.15c.92 0 2 0 2.93-.1a27.82 27.82 0 00.6-4.61zm1.73 14.38a2.66 2.66 0 00-.65 1.29c0 .77.7 1.15 3.48 1.15a13.93 13.93 0 005.28-1v1.39a16.69 16.69 0 00.16 2.69 21.88 21.88 0 01-4.34.41c-2.88 0-7.87-.15-7.87-3.89a8 8 0 01.89-3.14zm-1.13-6.77a23.9 23.9 0 018.81-.19 27.24 27.24 0 00-.24 3.79 12.71 12.71 0 00-3.69-.39 29.25 29.25 0 00-4.88.39zm5.5-6.53a21.67 21.67 0 012.28 2.64 8.23 8.23 0 00-1.82 1.3A22.33 22.33 0 00253 8.22zM257 5.27a14.11 14.11 0 012.21 2.52A17.54 17.54 0 00257.55 9a17 17 0 00-2.23-2.55zM278.43 7c.15.12.24.22.24.37a.25.25 0 01-.28.26 1.36 1.36 0 01-.41-.1c-.48.46-4.4 3.51-5.21 4.2-1.11.94-2.45 2.09-3.34 2.88s-.84.8-.84 1 .1.31 1 .84c.08.05 2.29 1.51 4.45 3.17a25 25 0 015 4.7 15.28 15.28 0 00-2.76 3.24c-1-1.56-5-5.74-12.09-10.32a1.67 1.67 0 01-.82-1.42c0-.62.1-.91 2.52-2.83A63.25 63.25 0 00275 4.33zM307 8.2v3.43h-10.38c0 .89-.09 1.51-.14 2h7.59c0 8.12-.46 10.32-2.16 12-1.23 1.22-3.84 1.34-4.73 1.32a6.11 6.11 0 00-1.78-3.77c.65.1 2.28.36 2.52.36a1.77 1.77 0 001.92-1.39 16.42 16.42 0 00.67-5.23h-4.68A16.17 16.17 0 01287.19 27a6.41 6.41 0 00-2.95-2.6c4.27-1.34 8.74-4.82 8.74-12.79h-8V8.2h9V4.89l3.84.21c.14 0 .43.07.43.34s-.26.36-.43.43V8.2zm1.1 9.19a25.82 25.82 0 005.35-5.59c1.94-2.64 2.59-3.5 4.05-3.5s2.5 1 4.06 3a47.35 47.35 0 009.87 9.7 23.1 23.1 0 00-2.69 3.65 75 75 0 01-10.06-10.83c-.19-.24-.84-1-1.3-1s-.84.65-1.17 1.13a44.63 44.63 0 01-4.9 6.53zM346.93 16a2.93 2.93 0 11-2.93-2.93 2.94 2.94 0 012.93 2.93zm24 0a2.93 2.93 0 11-2.93-2.93 2.94 2.94 0 012.93 2.93zm24 0a2.93 2.93 0 11-2.93-2.93 2.94 2.94 0 012.93 2.93zM0 0h10v30H0z" fill="#ff5064" data-name="レイヤー 2"/></svg>