<?xml version="1.0" encoding="UTF-8"?><svg id="_レイヤー_2" xmlns="http://www.w3.org/2000/svg" viewBox="0 0 16.65 13.02"><g id="_デザイン"><g id="_ヘッダー"><g><path d="M0,9.36V3.67C0,1.51,1.44,0,3.51,0s3.53,1.51,3.53,3.67v.67h-2.11v-.76c0-1.15-.67-1.55-1.42-1.55s-1.4,.38-1.4,1.55v5.85c0,1.15,.67,1.55,1.4,1.55s1.42-.38,1.42-1.55v-.92h2.11v.85c0,2.14-1.46,3.66-3.53,3.66s-3.51-1.51-3.51-3.66Z" style="fill:#212121;"/><path d="M9.58,.16h1.98l2.97,7.51V.18h2.12V12.86h-1.98l-2.99-7.4v7.4h-2.11V.16Z" style="fill:#212121;"/></g></g></g></svg>