<?xml version="1.0" encoding="UTF-8"?><svg id="_レイヤー_2" xmlns="http://www.w3.org/2000/svg" xmlns:xlink="http://www.w3.org/1999/xlink" viewBox="0 0 476 380"><defs><symbol id="_新規シンボル_10" viewBox="0 0 475.94 380"><g><path d="M15.47,274.59h60.98c4.28,0,7.97-1.52,10.96-4.51,2.99-2.99,4.51-6.68,4.51-10.96v-9.02c0-4.28-1.52-7.96-4.51-10.96-3-3-6.68-4.51-10.96-4.51H15.47c-1.29,0-2.41-.45-3.34-1.33-.92-.88-1.39-1.98-1.39-3.27v-9.02c0-1.29,.47-2.41,1.39-3.33,.93-.93,2.05-1.4,3.33-1.4h60.98c1.28,0,2.41,.47,3.33,1.4,.92,.93,1.39,2.05,1.39,3.33v3.79h10.75v-3.79c0-4.28-1.52-7.96-4.51-10.96-3-3-6.68-4.51-10.96-4.51H15.47c-4.28,0-7.96,1.52-10.96,4.51C1.52,213.04,0,216.73,0,221v9.02C0,234.3,1.52,237.99,4.51,240.99c2.99,2.99,6.68,4.51,10.96,4.51h60.98c1.29,0,2.41,.45,3.34,1.33,.92,.88,1.39,1.98,1.39,3.27v9.02c0,1.29-.47,2.41-1.39,3.33-.92,.92-2.05,1.39-3.33,1.39H15.47c-1.29,0-2.41-.47-3.33-1.39-.92-.92-1.39-2.04-1.39-3.33v-3.79H0v3.79c0,4.28,1.52,7.97,4.51,10.96,2.99,2.99,6.68,4.51,10.96,4.51Z"/><path d="M186.23,232.57c0,1.13-.92,2.06-2.06,2.06H115.7c-1.13,0-2.06-.92-2.06-2.06v-27.03h-10.75v69.06h10.75v-27.03c0-1.13,.92-2.06,2.06-2.06h68.48c1.13,0,2.06,.92,2.06,2.06v27.03h10.87v-69.06h-10.87v27.03Z"/><path d="M295.48,210.05c-3-3-6.68-4.51-10.96-4.51h-60.98c-4.28,0-7.96,1.52-10.96,4.51s-4.51,6.68-4.51,10.96v38.11c0,4.28,1.52,7.97,4.51,10.96,2.99,2.99,6.68,4.51,10.96,4.51h60.98c4.28,0,7.97-1.52,10.96-4.51,2.99-2.99,4.51-6.68,4.51-10.96v-38.11c0-4.28-1.52-7.96-4.51-10.96h0Zm-76.67,10.96c0-1.29,.47-2.41,1.39-3.33s2.05-1.39,3.33-1.39h60.98c1.28,0,2.41,.47,3.33,1.39,.92,.93,1.39,2.05,1.39,3.33v38.11c0,1.29-.47,2.41-1.39,3.33-.92,.92-2.05,1.39-3.33,1.39h-60.98c-1.29,0-2.41-.47-3.33-1.39-.92-.92-1.39-2.04-1.39-3.33v-38.11Z"/><path d="M393.04,256.07c-.27,.71-.89,.96-1.39,.96s-1.12-.25-1.39-.96l-19-50.4-.06-.15h-14.79l-19.06,50.54c-.27,.71-.89,.96-1.39,.96-.5,0-1.12-.25-1.39-.96l-19-50.4-.06-.15h-13.03l27.58,69.06h11.32l21.05-52.72c.28-.69,.89-.94,1.38-.94s1.11,.25,1.38,.94l21.05,52.72h10.83l27.58-69.06h-12.54l-19.06,50.54Z"/><path d="M40.65,12.81v56.25h10.75V12.81c0-1.13,.92-2.06,2.06-2.06h38.47V0H0V10.75H38.6c1.13,0,2.06,.92,2.06,2.06Z"/><path d="M114.67,69.06h60.98c4.28,0,7.97-1.52,10.96-4.51,2.99-2.99,4.51-6.68,4.51-10.96V15.47c0-4.28-1.52-7.96-4.51-10.96-3-3-6.68-4.51-10.96-4.51h-60.98c-4.28,0-7.96,1.52-10.96,4.51-3,3-4.51,6.68-4.51,10.96V53.59c0,4.28,1.52,7.97,4.51,10.96,2.99,2.99,6.68,4.51,10.96,4.51Zm0-58.31h60.98c1.28,0,2.41,.47,3.33,1.39,.92,.93,1.39,2.05,1.39,3.33V53.59c0,1.29-.47,2.41-1.39,3.33-.92,.92-2.05,1.39-3.33,1.39h-60.98c-1.29,0-2.41-.47-3.33-1.39-.92-.92-1.39-2.04-1.39-3.33V15.47c0-1.29,.47-2.41,1.39-3.33,.93-.93,2.05-1.39,3.33-1.39Z"/><path d="M471.43,4.51c-3-3-6.68-4.51-10.96-4.51h-60.98c-4.28,0-7.96,1.52-10.96,4.51-3,3-4.51,6.68-4.51,10.96V53.59c0,4.28,1.52,7.97,4.51,10.96,2.99,2.99,6.68,4.51,10.96,4.51h60.98c4.28,0,7.97-1.52,10.96-4.51,2.99-2.99,4.51-6.68,4.51-10.96V15.47c0-4.28-1.52-7.96-4.51-10.96Zm-76.67,10.96c0-1.29,.47-2.41,1.39-3.33,.93-.93,2.05-1.39,3.33-1.39h60.98c1.28,0,2.41,.47,3.33,1.39,.92,.93,1.39,2.05,1.39,3.33V53.59c0,1.29-.47,2.41-1.39,3.33-.92,.92-2.05,1.39-3.33,1.39h-60.98c-1.29,0-2.41-.47-3.33-1.39-.92-.92-1.39-2.04-1.39-3.33V15.47Z"/><path d="M212.96,42.03c0-1.13,.92-2.06,2.06-2.06h26.31c.51,0,.99,.19,1.37,.52l31.89,28.51,.06,.06h14.02l-35.51-33.02c-.42-.39-.66-.93-.66-1.51,0-.58,.23-1.11,.65-1.51L288.59,0h-14.41l-31.47,28.56c-.38,.34-.87,.53-1.38,.53h-26.3c-1.13,0-2.06-.92-2.06-2.06V0h-10.88V69.06h10.88v-27.03Z"/><path d="M332.98,45.1v23.96h10.75v-23.96c0-.51,.19-1.01,.54-1.39L384.12,0h-14.52l-29.69,31.89c-.39,.42-.93,.65-1.5,.66-.56,0-1.11-.23-1.5-.65L307.01,.07l-.07-.07h-14.36l39.86,43.71c.35,.38,.54,.87,.54,1.39Z"/><path d="M15.47,171.83h60.98c4.28,0,7.97-1.52,10.96-4.51,2.99-3,4.51-6.68,4.51-10.96v-21.83H58.57v10.88h20.56c1.13,0,2.06,.92,2.06,2.06v8.89c0,1.29-.47,2.41-1.4,3.33-.92,.92-2.05,1.39-3.33,1.39H15.47c-1.29,0-2.41-.47-3.33-1.39-.93-.92-1.39-2.04-1.39-3.33v-38.11c0-1.29,.47-2.41,1.4-3.33,.92-.93,2.05-1.4,3.33-1.4h60.98c1.28,0,2.4,.47,3.33,1.4,.93,.93,1.4,2.05,1.4,3.33v3.91h10.75v-3.91c0-4.27-1.52-7.96-4.51-10.96-3-3-6.69-4.51-10.96-4.51H15.47c-4.28,0-7.97,1.52-10.96,4.51C1.52,110.27,0,113.96,0,118.24v38.11C0,160.63,1.52,164.32,4.51,167.31c2.99,2.99,6.68,4.51,10.96,4.51Z"/><path d="M194.82,171.83v-53.59c0-4.28-1.52-7.96-4.51-10.96-3-3-6.68-4.51-10.96-4.51h-60.98c-4.28,0-7.97,1.52-10.96,4.51-2.99,2.99-4.51,6.68-4.51,10.96v53.59h10.75v-19.92c0-1.13,.92-2.06,2.06-2.06h66.32c1.13,0,2.06,.92,2.06,2.06v19.92h10.75Zm-81.18-53.59c0-1.29,.47-2.41,1.39-3.33,.93-.93,2.05-1.4,3.33-1.4h60.98c1.28,0,2.4,.47,3.33,1.4,.92,.93,1.39,2.05,1.39,3.33v18.8c0,1.13-.92,2.06-2.06,2.06H115.69c-1.13,0-2.06-.92-2.06-2.06v-18.8Z"/><path d="M334.18,113.51h71.12v-10.75h-83.92v69.06h83.92v-10.75h-71.12c-1.13,0-2.06-.92-2.06-2.06v-14.23c0-1.13,.92-2.06,2.06-2.06h56.76v-10.88h-56.76c-1.13,0-2.06-.92-2.06-2.06v-14.23c0-1.13,.92-2.06,2.06-2.06Z"/><path d="M216.53,119.38c0-.77,.5-1.22,.98-1.4,.47-.17,1.15-.15,1.65,.44l38.77,46.07,.17,.21,38.94-46.28c.49-.59,1.17-.61,1.65-.44,.47,.17,.98,.63,.98,1.4v52.44h10.75V102.77h-14.44l-36.3,43.22c-.39,.47-.97,.73-1.58,.73s-1.18-.27-1.58-.73l-36.23-43.14-.07-.08h-14.44v69.06h10.75v-52.44Z"/><g><path d="M75.5,308.4H15.26c-4.27,0-7.91,1.59-10.84,4.74-2.93,3.14-4.41,7.03-4.41,11.54v3.92H10.63v-3.92c0-1.33,.46-2.49,1.36-3.45,.9-.96,2-1.44,3.26-1.44h60.24c1.26,0,2.35,.49,3.26,1.44,.9,.96,1.36,2.12,1.36,3.45v10.38c0,1.33-.46,2.49-1.36,3.45-.91,.96-2,1.44-3.26,1.44H15.26c-4.27,0-7.91,1.57-10.84,4.67-2.93,3.1-4.41,6.96-4.41,11.48v23.9H90.75v-11.26H15.26c-1.26,0-2.36-.49-3.26-1.44-.9-.96-1.36-2.12-1.36-3.45v-7.74c0-1.33,.46-2.49,1.36-3.45,.9-.96,2-1.44,3.26-1.44h60.24c4.18,0,7.81-1.59,10.78-4.74,2.97-3.14,4.48-6.98,4.48-11.41v-10.38c0-4.52-1.51-8.4-4.48-11.54-2.97-3.14-6.6-4.74-10.78-4.74Z"/><path d="M176.98,308.4h-60.24c-4.27,0-7.91,1.59-10.84,4.74-2.93,3.15-4.41,7.03-4.41,11.54v39.16c0,4.43,1.48,8.27,4.41,11.41,2.93,3.15,6.57,4.74,10.84,4.74h60.24c4.18,0,7.81-1.59,10.78-4.74,2.97-3.14,4.48-6.98,4.48-11.41v-39.16c0-4.52-1.51-8.4-4.48-11.55-2.97-3.14-6.6-4.74-10.78-4.74Zm2.61,24.28c.36,0,.72,.1,1.04,.31,.61,.39,.97,1.07,.97,1.83v29.03c0,1.33-.46,2.49-1.36,3.45-.9,.96-2,1.44-3.26,1.44h-57.02c-.84,0-1.29-.63-1.41-1.17-.13-.54,0-1.32,.74-1.73l59.36-32.91c.3-.16,.62-.25,.94-.25Zm-5.27-9.98l-59.25,32.91c-.63,.35-1.37,.33-1.98-.06-.61-.39-.97-1.07-.97-1.83v-29.03c0-1.33,.46-2.49,1.36-3.45,.9-.96,2-1.44,3.26-1.44h56.9c.84,0,1.29,.63,1.41,1.17,.13,.54,0,1.32-.74,1.73h0Z"/><path d="M278.46,308.4h-60.24c-4.27,0-7.91,1.59-10.84,4.74-2.93,3.14-4.41,7.03-4.41,11.54v3.92h10.63v-3.92c0-1.33,.46-2.49,1.36-3.45,.9-.96,2-1.44,3.26-1.44h60.24c1.26,0,2.35,.49,3.26,1.44,.9,.96,1.36,2.12,1.36,3.45v10.38c0,1.33-.46,2.49-1.36,3.45-.91,.96-2,1.44-3.26,1.44h-60.24c-4.27,0-7.91,1.57-10.84,4.67-2.93,3.1-4.41,6.96-4.41,11.48v23.9h90.75v-11.26h-75.5c-1.26,0-2.36-.49-3.26-1.44-.9-.96-1.36-2.12-1.36-3.45v-7.74c0-1.33,.46-2.49,1.36-3.45,.9-.96,2-1.44,3.26-1.44h60.24c4.18,0,7.81-1.59,10.78-4.74,2.97-3.14,4.48-6.98,4.48-11.41v-10.38c0-4.52-1.51-8.4-4.48-11.54-2.97-3.14-6.6-4.74-10.78-4.74Z"/><path d="M389.96,342.63c-.68-.69-1.4-1.28-2.14-1.82,1.22-2.28,1.9-4.8,1.9-7.58v-8.67c0-4.51-1.51-8.39-4.48-11.52-2.98-3.14-6.61-4.73-10.8-4.73h-2.18s-48.45,0-48.45,0h-4.09c-4.27,0-7.93,1.59-10.86,4.74-2.93,3.14-4.42,7.02-4.42,11.53v3.92h10.65v-3.92c0-1.33,.46-2.49,1.36-3.45,.91-.96,2-1.44,3.26-1.44h3.62s48.91,0,48.91,0h0s2.18-.01,2.18-.01c1.26,0,2.36,.48,3.26,1.44,.91,.96,1.37,2.12,1.37,3.44v8.67c0,1.31-.46,2.45-1.36,3.39-.91,.94-2.01,1.42-3.26,1.42h-3.37s-51.13,0-51.13,0v11.08h54.5c.19,0,.37-.05,.56-.05h4.16c1.26,0,2.36,.47,3.26,1.39,.91,.93,1.37,2.05,1.37,3.33v9.77c0,1.35-.46,2.52-1.36,3.49-.91,.97-2.01,1.46-3.26,1.46h-9.23s-46.89,0-46.89,0h0s-4.08,0-4.08,0c-1.26,0-2.36-.48-3.26-1.44-.91-.96-1.36-2.12-1.36-3.45v-3.92h-10.65v3.92c0,4.51,1.49,8.39,4.42,11.53,2.93,3.14,6.59,4.74,10.86,4.74h4.09s46.88,0,46.88,0h0s9.23,0,9.23,0c4.19,0,7.82-1.61,10.8-4.79,2.97-3.18,4.48-7.06,4.48-11.55v-9.77c0-4.36-1.51-8.12-4.48-11.16Z"/></g></g></symbol></defs><g id="_デザイン"><use width="475.94" height="380" transform="" xlink:href="#_新規シンボル_10"/></g></svg>