<svg xmlns="http://www.w3.org/2000/svg" width="630" height="132.67" viewBox="0 0 630 132.67">
  <defs>
    <style>
      .cls-1 {
        fill: #00b4dc;
      }

      .cls-2 {
        fill: #fff;
      }
    </style>
  </defs>
  <g id="レイヤー_2" data-name="レイヤー 2">
    <g id="レイヤー_3" data-name="レイヤー 3">
      <g>
        <rect class="cls-1" width="630" height="132.67" rx="4.36"/>
        <g>
          <path class="cls-2" d="M36,20.21c-.86-1.49-2.27-1.49-3.13,0L21.56,39.79c-.86,1.49-.15,2.71,1.56,2.71H45.74c1.72,0,2.42-1.22,1.57-2.71Z"/>
          <path class="cls-1" d="M33.43,33.51l-.3-4.38c-.05-.86-.08-1.47-.08-1.84a1.65,1.65,0,0,1,.4-1.19,1.39,1.39,0,0,1,1-.43,1.07,1.07,0,0,1,1,.55,3.63,3.63,0,0,1,.27,1.57c0,.4,0,.81-.07,1.23l-.39,4.51a3.5,3.5,0,0,1-.28,1.24.72.72,0,0,1-.69.43.7.7,0,0,1-.69-.42A4,4,0,0,1,33.43,33.51Zm1,6a1.45,1.45,0,0,1-1-.37,1.25,1.25,0,0,1-.42-1,1.28,1.28,0,0,1,.4-1,1.31,1.31,0,0,1,1-.4,1.34,1.34,0,0,1,1,.4,1.28,1.28,0,0,1,.41,1,1.26,1.26,0,0,1-.42,1A1.41,1.41,0,0,1,34.44,39.54Z"/>
        </g>
        <g>
          <path class="cls-2" d="M597.13,20.21c-.86-1.49-2.27-1.49-3.13,0L582.69,39.79c-.85,1.49-.15,2.71,1.57,2.71h22.62c1.71,0,2.42-1.22,1.56-2.71Z"/>
          <path class="cls-1" d="M594.56,33.51l-.29-4.38c-.06-.86-.09-1.47-.09-1.84a1.69,1.69,0,0,1,.4-1.19,1.4,1.4,0,0,1,1-.43,1,1,0,0,1,1,.55,3.63,3.63,0,0,1,.27,1.57,10.38,10.38,0,0,1-.07,1.23l-.39,4.51a3.53,3.53,0,0,1-.27,1.24.74.74,0,0,1-.7.43.7.7,0,0,1-.69-.42A4.28,4.28,0,0,1,594.56,33.51Zm1,6a1.46,1.46,0,0,1-1-.37,1.25,1.25,0,0,1-.42-1,1.37,1.37,0,0,1,1.38-1.36,1.34,1.34,0,0,1,1,.4,1.39,1.39,0,0,1,0,2A1.44,1.44,0,0,1,595.58,39.54Z"/>
        </g>
        <g>
          <path class="cls-2" d="M135.24,42.33h-4.12v-6A27.57,27.57,0,0,1,123,42.3a9.12,9.12,0,0,0-3.62-3A21.66,21.66,0,0,0,128,33.89h-5.22v-11h8.36V21.67H120V18.19h11.11V15.61l4.46.23c.29,0,.58.09.58.38s-.34.46-.92.61v1.36h11.08v3.48H135.24v1.19h8.44v11h-5.14a24.78,24.78,0,0,0,8.24,4.9,9,9,0,0,0-3.16,3.3,28.48,28.48,0,0,1-8.38-5.77Zm-4.12-16.68h-4.07V27h4.07Zm0,3.83h-4.07v1.36h4.07Zm4.12-2.5h4.14V25.65h-4.14Zm0,3.86h4.14V29.48h-4.14Z"/>
          <path class="cls-2" d="M160.06,15.61l4.44.2c.2,0,.52,0,.52.29s-.29.38-.7.53V18h11v3.71H149V18h11.05Zm-1.13,18.86c.17.08.29.17.29.34s-.41.32-.76.32a24.8,24.8,0,0,1-5.68,6.62A13.2,13.2,0,0,0,149,39.31a22.68,22.68,0,0,0,6-7.05Zm5.39,4.61c0,2.38-.52,3.45-5.86,3.22a14.74,14.74,0,0,0-1.59-4.3c.52.06,1.65.18,2.23.18.93,0,1-.44,1-.84V31.88h-7.92v-9h20v9h-7.81Zm-7.89-12.71v2.06h11.49V26.37Zm12.5,6a24.74,24.74,0,0,1,5.66,6.49,45.16,45.16,0,0,0-3.74,2.82,28.9,28.9,0,0,0-5.4-7.08Z"/>
          <path class="cls-2" d="M190.07,16.37c.38.05.61.11.61.37s-.32.41-.49.47c-.09.87-.15,1.88-.2,3.07a20.86,20.86,0,0,0,4.55-1.45c0,1.07-.06,2.41-.06,3.08a11.91,11.91,0,0,0,.06,1.56,21.56,21.56,0,0,1-4.76,1.31c0,.32-.05,1.71-.05,2a14.59,14.59,0,0,1,4.93-.87,7.69,7.69,0,0,1,8,7.86c0,5.4-4,7.22-6.87,7.22-4.38,0-4.53-3.88-4.56-5.1.61-.21,3.22-1.08,3.6-1.22,0,.58,0,1.94,1.36,1.94,1.11,0,1.83-1.1,1.83-2.55a3.64,3.64,0,0,0-3.86-3.83,13.43,13.43,0,0,0-4.49,1,85.72,85.72,0,0,0,.37,8.73l-4,1.8A39.45,39.45,0,0,0,181,37.6c-.72.78-1.07,1.19-1.48,1.68l-2.08-5c1.33-.72,6.61-4.73,7.77-5.45,0-1,0-1.25,0-3.48-1.71.08-3.74.11-5.4.11V20.86a12,12,0,0,0,2.3.18c1.13,0,2.75-.12,3.1-.12,0-2.18,0-2.5-.12-5.4Zm-6.49,18.7a3.11,3.11,0,0,0,1.3.76c.44,0,.41-1,.38-2.12C184.91,34,184.3,34.44,183.58,35.07Zm15.14-15.43A24.89,24.89,0,0,1,205,24.28a20.8,20.8,0,0,0-2.81,3.51,16.9,16.9,0,0,0-6.15-4.55Z"/>
          <path class="cls-2" d="M223,17c.32.12.49.21.49.47s-.49.49-.84.52C222.35,18.45,222,19,221,21c1.54.14,3,.2,3.62.2s1,0,1.43-.06a21.56,21.56,0,0,0-1.28,4.58,35.22,35.22,0,0,1-5.48-.26c-.35.79-.76,1.83-1.05,2.56a46.26,46.26,0,0,0,6.44.43c-.55,1.57-1,3.4-1.24,4.29-1.77-.11-3.77-.29-6.5-.69a9.28,9.28,0,0,0-.32,2.35c0,3.54,3.28,3.54,4.7,3.54,1.25,0,5.63,0,5.63-4.21a11.07,11.07,0,0,0-1.48-4.52,14.2,14.2,0,0,0,4.38-1.57,15.32,15.32,0,0,1,2,6.58c0,6.39-6.73,7.86-10.53,7.86-5.83,0-9.05-3-9.05-7.28a14.6,14.6,0,0,1,.43-3.51,24.88,24.88,0,0,1-3.77-1.07l1-4.29a27.85,27.85,0,0,0,3.91,1.25c.12-.38.32-1,.87-2.59a24.66,24.66,0,0,1-4.32-1.45l.87-4.49a35.19,35.19,0,0,0,5.14,1.59c.29-.78,1.68-4.32,2-5Z"/>
          <path class="cls-2" d="M249.9,16.57c.23.06.55.17.55.46s-.14.38-.64.41c-.63,2-.69,2.17-.84,2.61a44,44,0,0,0,9.46-2.29c.14,1,.52,3.16.81,4.32a50.07,50.07,0,0,1-11.86,2.47c-.7,1.91-.93,2.49-1.51,3.91a17.16,17.16,0,0,1,7.54-2c7.75,0,8.15,5.45,8.15,6.9a7.17,7.17,0,0,1-3.1,5.86C256.92,40.3,254,42,246,42a25.77,25.77,0,0,1-2.69-.15,20.4,20.4,0,0,0-1.08-4.32,42,42,0,0,0,4.33.26c.66,0,5.62,0,8.61-1.77a3,3,0,0,0,1.57-2.73c0-1.68-.87-3.1-3.54-3.1a14.93,14.93,0,0,0-10,4.84L239,33a40.88,40.88,0,0,0,3.86-8.15c-2.52,0-4.52-.09-5.62-.18l-.06-4.76a26.39,26.39,0,0,0,7,.64,39,39,0,0,0,1.1-5.13Z"/>
          <path class="cls-2" d="M277.89,20.4c.34.4,1.79,2.2,2.08,2.55a12.68,12.68,0,0,1,3.2-.49,5.51,5.51,0,0,1,5.77,5.65c0,5.43-5.89,5.92-8.85,6.15a19.86,19.86,0,0,0-1.33-3.88c.49,0,.84,0,1.33,0,1,0,4.7,0,4.7-2.55,0-.49-.15-1.62-1.86-1.62-.26,0-.49,0-.64,0,.53.84.82,1.39,1.08,1.82-1.08.44-2.76,1.14-3.8,1.6a18.38,18.38,0,0,0-1.07-2.23c-1.08.49-1.72.84-2.12,1.07a57.3,57.3,0,0,1,4.06,11.2,36.44,36.44,0,0,0-4.12,2,49.62,49.62,0,0,0-3.39-11.14,41.26,41.26,0,0,0-3.28,2.7L267,29.19a39.29,39.29,0,0,0,4.12-2.06,21.8,21.8,0,0,0-2.62-3.8l3.95-1.63a1.75,1.75,0,0,1,.61-.17.31.31,0,0,1,.35.32.87.87,0,0,1-.26.46c.43.78,1.13,2.09,1.56,2.87l1.66-.81c-.47-.64-.61-.84-1.83-2.38Z"/>
          <path class="cls-2" d="M298.24,21.85a29.81,29.81,0,0,1,6.79,4,27.69,27.69,0,0,0-2.81,3.86,25,25,0,0,0-6.59-3.95Zm-.93,15.6a42.3,42.3,0,0,0,20.42-15.37,15.44,15.44,0,0,0,3,3.92c-3.65,5.45-12.24,12.58-20,15.46,0,.17-.06.66-.5.66-.2,0-.37-.29-.43-.37Zm3.86-22a44.12,44.12,0,0,1,7.28,3.42c-.61.7-2.35,3.16-2.75,3.77A30.83,30.83,0,0,0,298.65,19Z"/>
          <path class="cls-2" d="M327.18,40V36.29h13v-3H327.94v-3.8h12.21V26.75H327.56V23h16.65V40.88h-4.06V40Z"/>
          <path class="cls-2" d="M377.79,26.61v4.93h-25.2V26.61Z"/>
          <path class="cls-2" d="M407.75,40.06H388.26c.37-5.07,3.22-7.16,9.37-11.34,4.67-3.19,4.67-3.86,4.67-5.07,0-2.18-2.32-2.73-3.83-2.73-3.92,0-4.33,2.78-4.44,4.67h-5.37c.09-1.83.18-3.83,1.8-5.77,1.94-2.35,4.76-3.25,8-3.25,6.64,0,9.05,3.65,9.05,7a6.87,6.87,0,0,1-1.28,4c-1.48,2.06-7.34,5.8-7.63,6a16.9,16.9,0,0,0-3,2.23h12.07Z"/>
          <path class="cls-2" d="M429.62,29c0,2.79-.67,11.69-9.66,11.69A8.78,8.78,0,0,1,412.3,37c-1.51-2.2-2-6.18-2-8.7,0-2.79.66-11.69,9.69-11.69C428.43,16.57,429.62,24.28,429.62,29Zm-14-.37c0,.95,0,7.68,4.3,7.68s4.26-6.7,4.26-7.68S424.22,21,420,21,415.66,27.59,415.66,28.64Z"/>
          <path class="cls-2" d="M451.77,40.06H432.28c.38-5.07,3.22-7.16,9.37-11.34,4.67-3.19,4.67-3.86,4.67-5.07,0-2.18-2.32-2.73-3.83-2.73-3.92,0-4.32,2.78-4.44,4.67h-5.37c.09-1.83.18-3.83,1.8-5.77,1.95-2.35,4.76-3.25,8-3.25,6.64,0,9.05,3.65,9.05,7a6.87,6.87,0,0,1-1.28,4c-1.48,2.06-7.34,5.8-7.63,6a16.9,16.9,0,0,0-3,2.23h12.07Z"/>
          <path class="cls-2" d="M473.78,40.06H454.29c.38-5.07,3.22-7.16,9.37-11.34,4.67-3.19,4.67-3.86,4.67-5.07,0-2.18-2.32-2.73-3.83-2.73-3.92,0-4.32,2.78-4.44,4.67H454.7a8.69,8.69,0,0,1,1.79-5.77c1.95-2.35,4.76-3.25,8-3.25,6.64,0,9.05,3.65,9.05,7a6.87,6.87,0,0,1-1.28,4c-1.48,2.06-7.34,5.8-7.63,6a16.9,16.9,0,0,0-3,2.23h12.07Z"/>
          <path class="cls-2" d="M490.92,17.93c.23.09.37.2.37.41s-.55.4-.81.43a40.08,40.08,0,0,0-1.74,11.17,19.83,19.83,0,0,0,.21,2.9c.37-.55,1-1.48,1.36-2.06a12.22,12.22,0,0,0,2.09,2.87A12.88,12.88,0,0,0,490,40.76l-3.89.73a41.37,41.37,0,0,1-1.56-11.69,52.38,52.38,0,0,1,1.74-13.29Zm13.78-.64c.14,0,.37.06.37.32s-.4.44-.66.47a29.58,29.58,0,0,0-.29,3.48,26.43,26.43,0,0,0,4.29-1.08v4.38c-.67.18-2,.5-4.41.93a47.59,47.59,0,0,0,.46,6.67,16.26,16.26,0,0,1,5.51,3c-.46.84-1.33,2.73-2,4.09a10.17,10.17,0,0,0-3.1-2.2c-.12,3.71-3.83,4.15-5.66,4.15-4.35,0-6.52-2.38-6.52-5.08,0-3.45,3.42-4.76,7.19-4.67-.23-3.31-.26-3.68-.32-5.37-1.65.15-2.84.15-3.34.15a20.73,20.73,0,0,1-2.14-.09V21.88a31,31,0,0,0,5.45.2c0-1.22,0-3.77,0-5.66Zm-6,18c-.64,0-2,.2-2,1.1,0,.75,1,1.07,1.89,1.07.23,0,2,0,2-1.42a.8.8,0,0,0-.06-.38A4.22,4.22,0,0,0,498.69,35.28Z"/>
          <path class="cls-2" d="M139.73,70.3V73h-1.45v4.82H134v-.93h-5.34v1.85c0,1.48-.37,2.5-4.7,2.5-.58,0-1.16,0-1.53-.06a11.19,11.19,0,0,0-1.37-3.63,22.29,22.29,0,0,0,2.47.24c.84,0,.84-.29.84-.9h-9V74h9V73h-11V70.3h11v-.92h-9V66.82h9V66H117V60.12h7.37v-.81h-11V56.26h11V54.67l4.5.17a.4.4,0,0,1,.43.38c0,.26-.17.32-.64.55v.49h11v3.05h-11v.81h7.25V66h-7.25v.81h9.63V70.3Zm-15.37-6.73V62.44h-3.54v1.13Zm4.29-1.13v1.13h3.51V62.44ZM134,70.3v-.92h-5.34v.92ZM134,74V73h-5.34v1Z"/>
          <path class="cls-2" d="M157,58.59a22.08,22.08,0,0,0,2.5-4.09l4.35,1.1c.2.06.4.14.4.35s-.4.46-.84.4c-.75,1.19-1,1.68-1.45,2.24h6.65v3.62H142.19V58.59h6.38a13.14,13.14,0,0,0-1.65-2.47l3.92-1.77A19.19,19.19,0,0,1,153.18,58l-1.56.61Zm-9.31,16.35v6.27h-4.06v-18h11.54v15.2c0,2.38-1.24,2.72-5.07,2.84a8.39,8.39,0,0,0-1.48-4.12c.43,0,1.3.15,1.74.15s.87-.06.87-.93V74.94Zm3.54-7.36V66.3h-3.54v1.28Zm0,4.32V70.59h-3.54V71.9Zm9.89-8.27c.26,0,.44.09.44.29s-.18.32-.44.5V76H157V63.46Zm6.12-.61c.26,0,.52.06.52.32s-.31.38-.69.58V77.76a2.75,2.75,0,0,1-1.25,2.81c-1,.7-2.29.67-4.7.64a11,11,0,0,0-.95-4.35c.49.06,1.56.2,2,.2.72,0,.72-.46.72-.81V62.82Z"/>
          <path class="cls-2" d="M175.34,74.83V68.07a17.39,17.39,0,0,1-2.35,1.6,14.29,14.29,0,0,0-2.87-3.22,20.73,20.73,0,0,0,3.68-2.53,20.31,20.31,0,0,0-2.38-1.85l2.79-2.85a20,20,0,0,1,2.61,1.83,8.69,8.69,0,0,0,1.74-2.41h-5.37V55.19h10l1.31,1.39a23.18,23.18,0,0,1-2.79,4.93h5.95a19,19,0,0,1-3.43-5.71l3.69-1.39a18.21,18.21,0,0,0,1.25,2.41A15.57,15.57,0,0,0,191,54.61l3,1.92c.12,0,.32.2.32.34,0,.35-.49.38-.78.38-1,1.22-1.74,2.12-2.09,2.47.32.37.55.61.78.84a35.24,35.24,0,0,0,2.64-3.14l2.7,1.83c.23.18.52.35.52.55,0,.38-.43.41-.87.44a23.38,23.38,0,0,1-2.49,2.61,19.68,19.68,0,0,0,4.09,2.7A13.93,13.93,0,0,0,196.14,69a29.26,29.26,0,0,1-2.67-1.92v7.75h-2.09c.2.09.32.2.32.41s-.29.46-.61.49a10.67,10.67,0,0,1-.61,1.59h7.11v3.51H171.25V77.32h7.4c-.12-.34-.56-1.48-.82-2.11l1.42-.38Zm4.32-10.76c-.75.81-1,1.13-2.35,2.35h15.32a26.12,26.12,0,0,1-3-2.73V65.2h-10Zm-.14,5.6v1.85h9.77V69.67Zm2.72,5.16c.26.64.47,1.13.81,2.2l-1,.29h3.92a23.78,23.78,0,0,0,.87-2.49Z"/>
          <path class="cls-2" d="M210.37,65.23h-2.12v1.51h2.91v3.68h-2.91v3.94a16.75,16.75,0,0,0,1-3.45l3.31.67c.17,0,.43.09.43.38s-.43.4-.84.43c-.12.44-.17.58-.58,1.8a33.89,33.89,0,0,0,5.77-2.06V67.37H215.3a28,28,0,0,1,2,3.72,27.36,27.36,0,0,0-3.13,2.06,24.22,24.22,0,0,0-2.09-4l3-1.83h-3.3V64h9.13V62.79h-7.34v-3.1h7.34v-1.1h-8.73V55.05h12.88V64h1.77v3.42h-3.45l3.22,1.57a.49.49,0,0,1,.32.41c0,.29-.21.34-.76.43a26.16,26.16,0,0,1-2.35,3.45,21.42,21.42,0,0,0,3.63,2.93,13.92,13.92,0,0,0-2.38,3.69,25.06,25.06,0,0,1-3.89-3.95v2.47c0,2.87-1.88,2.87-5.33,2.87a13.55,13.55,0,0,0-1.48-3.92,8.13,8.13,0,0,1-.79.35c0,.55-.08,1-.58,1a.49.49,0,0,1-.35-.32l-1-4.18A15.46,15.46,0,0,1,211,75.7a11.9,11.9,0,0,0-2.73-.67v1.34c2.12-.41,2.73-.55,3.28-.7a11.91,11.91,0,0,0-.37,3.63c-3.69.81-6.68,1.3-9.49,1.71-.06.43-.14.81-.55.81-.26,0-.32-.23-.35-.44l-.67-4c1.19-.06,3.22-.29,4.3-.4V75.64a18.8,18.8,0,0,0-3.05,1,27.53,27.53,0,0,0-1.48-4.44l3.28-1a33.4,33.4,0,0,1,1.25,3.54V70.42h-3.8V66.74h3.8V65.23h-2.27v-1.1a10.38,10.38,0,0,0-3-2.88,13.33,13.33,0,0,0,5.57-6.46l4.12.81c.32.06.43.14.43.32s-.32.49-.67.52a22.33,22.33,0,0,0,4.21,4,11.83,11.83,0,0,0-2.38,1.89Zm-1.71-3.4a13.68,13.68,0,0,1-2.17-2.61c-.67.9-1.14,1.51-2.06,2.61Zm8.7,14c-.72.4-1.8,1-2.66,1.36.26,0,1.65.17,1.82.17.84,0,.84-.58.84-.93Zm3.8-6a4.32,4.32,0,0,1,.21.38,15.8,15.8,0,0,0,1.53-2.82h-1.74Z"/>
          <path class="cls-2" d="M235.28,57.92v-3l3.83.15c.41,0,.67,0,.67.37s-.32.44-.67.55v2h5v3.83h-5v1.74h5.54v3.8h-5.54v1.19h5.25v8.44c0,1.91-.52,2.7-4.12,2.72a8,8,0,0,0-1.13-3.22V81.3h-3.83V72.36h-1.16v7.57h-4.06V68.48h5.22V67.29h-6.2v-3.8h6.2V61.75h-2.9c-.2.4-.35.66-.61,1.1a14.13,14.13,0,0,0-3.51-1.25,17,17,0,0,0,2.24-6l3.68.52c.29,0,.46.17.46.41s-.37.49-.72.58c-.09.32-.17.64-.23.84Zm3.83,17.87a4.42,4.42,0,0,0,.78.08c.67,0,.67-.4.67-.93V72.36h-1.45Zm10.68-17.55c.43,0,.63.11.63.37s-.2.35-.63.58V75.12h-4.12V57.92Zm5.28-3.37c.2,0,.72.06.72.38s-.32.46-.72.7V77.53c0,.66,0,2.46-1.45,3.22-.85.43-1.28.46-4.41.63a8.92,8.92,0,0,0-1.63-4.09c.32,0,1.83.15,2.12.15,1.07,0,1.25-.23,1.25-1.07V54.7Z"/>
          <path class="cls-2" d="M265.67,56.9c.56.21.79.29.79.5s-.58.32-.79.34a33.77,33.77,0,0,0-1.88,12A10.39,10.39,0,0,0,264,72c.18-.31.87-1.59,1.22-2.17a8.66,8.66,0,0,0,2.23,2.38c-.72,1.36-2.06,4.73-1.91,6.93l-4.12,1.1a30.44,30.44,0,0,1-2.06-11.6,54.75,54.75,0,0,1,1.86-13.46Zm7.66,13.64a8,8,0,0,0-.43,2.06c0,1.27.69,1.47,4,1.47a29.32,29.32,0,0,0,7.16-.78,19.3,19.3,0,0,0-.43,4.73,61.57,61.57,0,0,1-7.34.38c-4.32,0-7.66-.76-7.66-4.3a10.72,10.72,0,0,1,1-4.26Zm-3.51-12.39c.87.06,2,.15,3.77.15a33.65,33.65,0,0,0,8.53-.93c0,.46.15,3,.41,4.41a43.43,43.43,0,0,1-8.94.87c-1.71,0-2.84-.09-3.77-.15Z"/>
          <path class="cls-2" d="M313.38,59.83c-8.29-.08-13.22,7.2-13.22,11,0,4.81,6.55,5.16,8.09,5.25a26.24,26.24,0,0,0-2.18,5.22C301,80.08,295.4,77.38,295.4,71.15c0-5.34,4-8.68,5.13-9.61a99,99,0,0,0-12,1.72L288,57.8c.63,0,1.24.09,2.17.09,4.26,0,15.84-.81,22.42-2.87Z"/>
          <path class="cls-2" d="M334.32,74.31v6.23h-3.68V74.31h-2.15a10.9,10.9,0,0,1-4.44,6.84A8.36,8.36,0,0,0,320.8,79v2.08h-4.14V55.28h12.15V65.37h-8V79c2-1.13,3.43-2.24,4-4.67h-3V71.09h3.36c0-.52,0-1.16,0-1.71h-2.67v-3h14.07v3h-2.29v1.71h2.9v3.22Zm-9.4-16.16H320.8v1.07h4.12Zm0,3.28H320.8v1.1h4.12Zm5.72,7.95h-1.8c0,.34,0,1.45-.06,1.71h1.86Zm6.2,11.83A10.23,10.23,0,0,0,335.31,77a9,9,0,0,0,1.68.23c.55,0,1.16,0,1.16-1V65.37h-8.06V55.28H342.3V77.85C342.3,80.54,340.64,81.24,336.84,81.21Zm1.31-23.06H334v1.07h4.18Zm0,3.28H334v1.1h4.18Z"/>
          <path class="cls-2" d="M365.67,68.1v1.22h4.5v2.93h-4.5v1.22h4.5V76.4h-4.5v1.18h5.86v3.17H358.21v.46h-4.08V71.12l-.79.78A10.33,10.33,0,0,0,352,69.84V81.21h-4.24V67.29l-.78.95a7,7,0,0,0-3-3,30.78,30.78,0,0,0,6.09-11l4.07,1.37v-.47l4.11.15c.32,0,.44.17.44.4s-.23.44-.64.7v2.79h2.18V54.38l4.32.26c.29,0,.43.17.43.38,0,.37-.43.49-.69.55v3.6h2.43V55.28l4.3.26c.35,0,.52.12.52.32s-.35.49-.73.67v5.8h-6.7l2,1.1a.53.53,0,0,1,.32.46c0,.32-.4.44-.84.53-.11.2-.29.46-.46.72h6.21v3ZM352,67.58a26.82,26.82,0,0,0,3.94-5.25h-1.76V56.47l-.27.11c-.49,1.08-.78,1.69-1.79,3.66.43.23.55.29.55.49s-.47.52-.67.61Zm6.26.52v1.22h3.37V68.1Zm0,4.15v1.22h3.37V72.25Zm3.37,5.33V76.4h-3.37v1.18Zm-1-12.44a30.17,30.17,0,0,0,1.62-2.81h-3.6l1.34.66c.23.12.4.24.4.47s-.32.43-.84.49c-.32.52-.43.7-.72,1.19Z"/>
          <path class="cls-2" d="M381,57.54c.26.09.58.18.58.44s-.35.43-.61.46a26,26,0,0,0-1.62,8.73c0,3.54,1.1,6,1.94,6s2-2.56,2.81-4.38a13.3,13.3,0,0,0,3.05,3.07c-2.32,5.63-5,7.6-6.38,7.6-1.63,0-5.92-3.45-5.92-12.41a51.92,51.92,0,0,1,1.42-10.85Zm14,.2a29,29,0,0,1,5.86,14.59c-1.71.67-3.77,1.66-4.73,2.15a26.51,26.51,0,0,0-4.87-14.36Z"/>
          <path class="cls-2" d="M416.91,55.83c.26.06.58.17.58.46s-.4.38-.64.38c-.11.46-.61,2.52-.72,2.93a18.38,18.38,0,0,0,4.81-1.42l.5,4.55a37.74,37.74,0,0,1-6.56,1.37,70.23,70.23,0,0,1-7.6,17,29.61,29.61,0,0,0-4.38-2.21,47,47,0,0,0,7.17-14.07c-1.77.15-2.12.15-5.31.18l-.38-4.76c.87.06,1.89.12,3.37.12,1.3,0,2.17,0,3.45-.12.4-2.18.61-4.06.78-5.48Zm2.18,17.46A2.85,2.85,0,0,0,418.3,75c0,.41.21.58.53.76a10.6,10.6,0,0,0,3.88.49,20.77,20.77,0,0,0,6.38-1,13.34,13.34,0,0,0-.2,2.27,20.1,20.1,0,0,0,.18,2.4,35.07,35.07,0,0,1-6,.5c-3.8,0-8.85-.55-8.85-4.67a7.77,7.77,0,0,1,1.14-3.8Zm-1.37-8.21a37.31,37.31,0,0,1,6.41-.52,20.44,20.44,0,0,1,4.27.32c-.18,2.15-.2,2.61-.23,4.55a17.23,17.23,0,0,0-4.36-.52,53.66,53.66,0,0,0-6.09.52Z"/>
          <path class="cls-2" d="M442.4,55.83c.44.06.67.09.67.41s-.2.34-.55.49a63.18,63.18,0,0,0-.93,11.51c0,6.59.64,7.81,2.87,7.81,5,0,9.34-6.7,10.12-8.33a29.91,29.91,0,0,0,3.37,3.8c-3.31,5.37-8.24,9.4-14.1,9.4-6.44,0-7-5.45-7-12.7,0-1.69.29-9,.29-10.5,0-.85,0-1.83-.06-2.67Z"/>
          <path class="cls-2" d="M477.35,55.6c.26.06.52.08.52.37s-.32.38-.52.41c-.12,1.13-.12,1.39-.15,1.71,1.34,0,5.83-.08,8,.18v4.32a68.83,68.83,0,0,0-8.15-.26v3.19a38.22,38.22,0,0,0,7.37-1.37v4.33a55,55,0,0,1-7.26,1c0,1.25,0,1.37.06,2.59a28.71,28.71,0,0,1,9.69,3.82,46.26,46.26,0,0,0-3.22,3.63,23.18,23.18,0,0,0-6.21-3.65c.06,1.5.26,4.93-6.09,4.93-4.49,0-7.77-2.06-7.77-4.7,0-3.31,4.15-4.73,9-4.64,0-.67,0-.67,0-1.72-2.87.06-8.12.15-8.12-2.72,0-1,.52-2,2-3.51l3.19.72c-.52.7-.61.79-.61,1s0,.81,3.39.67c0-.53,0-2.87,0-3.34-3.57.15-6.7.55-9.11.87V58.79c1.42-.15,7.77-.44,9.08-.52,0-1.11,0-2.24-.12-3.57Zm-6,19.14c-.14,0-2.93,0-2.93,1.19,0,1,1.6,1,2.09,1,1.42,0,2.29-.53,2.12-2.12A6.19,6.19,0,0,0,471.34,74.74Z"/>
          <path class="cls-2" d="M506.52,55.16c.47.06.73.09.73.32s-.35.44-.58.49c-.06.53-.09.87-.15,2,8.18-.35,9.08-.38,9.63-.44,0,.61-.08,3.48,0,4.67-5.25-.26-7.45-.26-9.57-.23a22.8,22.8,0,0,0,0,3.22,9.5,9.5,0,0,1,1.68,5.57A13.7,13.7,0,0,1,501.59,82a19.28,19.28,0,0,0-4.23-3c.87-.35,4.29-1.8,5.33-4.18a3.25,3.25,0,0,1-2.29.7,3.87,3.87,0,0,1-3.13-1.31A7.23,7.23,0,0,1,496,69.93c0-6.38,5.45-6.18,6.06-6.09,0-.93,0-1.19,0-1.63a78.67,78.67,0,0,0-11.57,1.51l-.32-4.9c.67,0,1.77,0,11.78-.61a32.68,32.68,0,0,0-.41-3.69Zm-6.7,14.51c0,1.91,1,2.43,1.48,2.43.9,0,1.42-1.33,1.42-2.78,0-.67-.14-1.8-1.3-1.8C500.46,67.52,499.82,68.48,499.82,69.67Z"/>
        </g>
        <g>
          <path class="cls-2" d="M154.3,95.87a17.49,17.49,0,0,0,0,23.27l-2.58,2.23a20.67,20.67,0,0,1,0-27.73Z"/>
          <path class="cls-2" d="M182.4,97.67a3.83,3.83,0,0,1-.63.2,54.49,54.49,0,0,1-3.81,6.65h4.36v16.3H177.7v-1.08H158.07V116H177.7v-2.26H159.87v-3.48H177.7v-2.21H158.07v-3.56h4.46A27.46,27.46,0,0,0,158.3,97l4-2a25.58,25.58,0,0,1,4.29,7.37,20.65,20.65,0,0,0-4,2.18h5.51V93.93l4.62.29c.37,0,.66.06.66.38s-.26.4-.66.52v9.4h5.25A16.49,16.49,0,0,0,174,102.8a25.72,25.72,0,0,0,3.95-7.39l4.46,1.48a.37.37,0,0,1,.26.35A.44.44,0,0,1,182.4,97.67Z"/>
          <path class="cls-2" d="M193.51,118v1.59H189V95.87h20.8v23.67H205.2V118Zm11.69-13.2V99.9H193.51v4.85Zm0,9v-5.14H193.51v5.14Z"/>
          <path class="cls-2" d="M222.74,110.64h-2.67v-3.51H235.7l1.48,1.85a20.88,20.88,0,0,1-5,6c2.67,1.07,4.41,1.5,9.52,2.14a10.65,10.65,0,0,0-1.92,3.66c-4.7-.87-7.22-1.39-11.08-3.34a27.92,27.92,0,0,1-11.83,3.34,16,16,0,0,0-2.12-3.92,24.89,24.89,0,0,0,9.92-1.8,19.7,19.7,0,0,1-3.57-3.25ZM237.5,99.09a.35.35,0,0,1,.26.35c0,.29-.43.41-.87.46a23.34,23.34,0,0,1-1.51,2.59h6v6.81h-4v-3.57h-18v3.57h-4.12v-6.81h4.15a26,26,0,0,0-1.59-2.12l2.38-1.48c-1.11,0-1.22,0-1.57,0a15.66,15.66,0,0,0-2-4.18,61.68,61.68,0,0,0,7.65.49c3.43,0,8.18-.29,11.26-1.48l3.13,3a.41.41,0,0,1,.18.35.45.45,0,0,1-.44.49,7.59,7.59,0,0,1-1-.34,16.16,16.16,0,0,1-2.87.69Zm-11.31-.29c-1.65.06-2.18.06-4.73.09a15.86,15.86,0,0,1,2.18,3c-.15.08-.87.52-1,.64h3.31a28.86,28.86,0,0,0-1.74-2.53Zm-1,11.84a20,20,0,0,0,3.08,2.35,12.14,12.14,0,0,0,2.43-2.35Zm6-8.15a21.79,21.79,0,0,0,2.2-4.38c-.4,0-2.72.37-5.31.58a29.38,29.38,0,0,1,2.15,3l-1.19.79Z"/>
          <path class="cls-2" d="M251.59,120.82h-4.52V107.39a8.75,8.75,0,0,1-1,1.13,12.34,12.34,0,0,0-3.19-3,26.7,26.7,0,0,0,6.76-11.89l4,1.45c.29.12.56.2.56.44s-.38.37-.76.43c-1.13,2.67-1.22,2.87-2.06,4.61.47.12.87.23.87.55s-.26.47-.61.58Zm18.89-20.42v4.2h-2.73v12c0,3.34-.55,4.09-6.61,4.15a10.42,10.42,0,0,0-1.92-4.7,13.49,13.49,0,0,0,2.61.38c1.37,0,1.42-.38,1.42-1.37V104.6H252.64v-4.2h10.61V93.9l4.5.17c.35,0,.78,0,.78.38s-.34.44-.78.61v5.34Zm-13,5.74a21.77,21.77,0,0,1,4,6.56,38.72,38.72,0,0,0-4,2.14,26.5,26.5,0,0,0-4-6.73Z"/>
          <path class="cls-2" d="M280.54,96.39c.23.09.37.21.37.41,0,.35-.55.41-.81.44a40,40,0,0,0-1.74,11.16,21.74,21.74,0,0,0,.2,2.9c.38-.55,1-1.48,1.37-2.06a12,12,0,0,0,2.08,2.88,12.85,12.85,0,0,0-2.4,7.1l-3.89.73a40.77,40.77,0,0,1-1.57-11.69A52.38,52.38,0,0,1,275.89,95Zm13.77-.63c.15,0,.38,0,.38.31s-.41.44-.67.47c-.08.64-.2,1.45-.29,3.48A27.73,27.73,0,0,0,298,99v4.38c-.67.17-2,.49-4.41.92a47.77,47.77,0,0,0,.46,6.68,16.18,16.18,0,0,1,5.51,3c-.46.85-1.33,2.73-2,4.09a10.29,10.29,0,0,0-3.1-2.2c-.12,3.71-3.83,4.15-5.66,4.15-4.35,0-6.53-2.38-6.53-5.08,0-3.45,3.43-4.76,7.2-4.67-.24-3.31-.26-3.68-.32-5.37-1.66.15-2.84.15-3.34.15a20.46,20.46,0,0,1-2.14-.09v-4.55a31,31,0,0,0,5.45.2c0-1.22,0-3.77,0-5.65Zm-6,18c-.64,0-2,.2-2,1.1s1,1.08,1.88,1.08c.24,0,2,0,2-1.43a.74.74,0,0,0-.06-.37A4,4,0,0,0,288.31,113.74Z"/>
          <path class="cls-2" d="M308.87,97c.26.09.58.18.58.44s-.35.43-.61.46a25.94,25.94,0,0,0-1.63,8.73c0,3.54,1.11,6,2,6s2-2.55,2.81-4.38a13.11,13.11,0,0,0,3,3.07c-2.32,5.63-5,7.6-6.38,7.6-1.63,0-5.92-3.45-5.92-12.41a51.92,51.92,0,0,1,1.42-10.85Zm14,.21a29,29,0,0,1,5.86,14.59c-1.71.66-3.77,1.65-4.73,2.14a26.51,26.51,0,0,0-4.87-14.36Z"/>
          <path class="cls-2" d="M344.8,95.29c.26.06.58.18.58.47s-.41.37-.64.37c-.11.47-.61,2.53-.72,2.93a18.38,18.38,0,0,0,4.81-1.42l.5,4.55a36.73,36.73,0,0,1-6.56,1.37,70.06,70.06,0,0,1-7.6,17,29.61,29.61,0,0,0-4.38-2.21A47,47,0,0,0,338,104.25c-1.77.15-2.12.15-5.31.18l-.38-4.76c.87.06,1.89.12,3.36.12,1.31,0,2.18,0,3.46-.12.4-2.17.61-4.06.78-5.48ZM347,112.75a2.84,2.84,0,0,0-.79,1.72.79.79,0,0,0,.52.75,10.66,10.66,0,0,0,3.89.49,21.16,21.16,0,0,0,6.38-.95,13.2,13.2,0,0,0-.2,2.26,20.48,20.48,0,0,0,.18,2.41,36.17,36.17,0,0,1-6,.49c-3.8,0-8.85-.55-8.85-4.67a7.87,7.87,0,0,1,1.13-3.8Zm-1.37-8.21A37.31,37.31,0,0,1,352,104a21.24,21.24,0,0,1,4.27.32c-.18,2.15-.21,2.61-.24,4.56a16.67,16.67,0,0,0-4.35-.53,51.59,51.59,0,0,0-6.09.53Z"/>
          <path class="cls-2" d="M370.29,95.29c.44.06.67.09.67.41s-.21.35-.55.49a63.29,63.29,0,0,0-.93,11.52c0,6.58.64,7.8,2.87,7.8,5,0,9.34-6.7,10.12-8.33a29.14,29.14,0,0,0,3.37,3.8c-3.31,5.37-8.24,9.4-14.1,9.4-6.44,0-7-5.45-7-12.7,0-1.69.29-9,.29-10.5,0-.84,0-1.83-.06-2.67Z"/>
          <path class="cls-2" d="M405.24,95.06c.26.06.52.09.52.38s-.32.37-.52.4c-.12,1.13-.12,1.4-.15,1.71,1.34,0,5.83-.08,8,.18v4.32a68.83,68.83,0,0,0-8.15-.26V105a38.55,38.55,0,0,0,7.36-1.36v4.32a56.39,56.39,0,0,1-7.25,1c0,1.24,0,1.36.06,2.58a28.48,28.48,0,0,1,9.69,3.83,45.55,45.55,0,0,0-3.22,3.62,23.18,23.18,0,0,0-6.21-3.65c.06,1.51.26,4.93-6.09,4.93-4.5,0-7.77-2.06-7.77-4.7,0-3.31,4.15-4.73,9-4.64,0-.67,0-.67,0-1.71-2.87.06-8.12.14-8.12-2.73,0-1,.52-1.94,2-3.51l3.19.73c-.52.69-.61.78-.61,1s0,.81,3.39.67c0-.52,0-2.87,0-3.34-3.56.15-6.7.55-9.1.87V98.25c1.42-.14,7.77-.43,9.08-.52,0-1.1,0-2.24-.12-3.57Zm-6,19.14c-.14,0-2.93,0-2.93,1.19,0,1,1.6,1,2.09,1,1.42,0,2.29-.52,2.12-2.12A6.19,6.19,0,0,0,399.23,114.2Z"/>
          <path class="cls-2" d="M438.65,95.15c.4,0,.66.08.66.4s-.35.41-.58.47c0,.14.09,4.26.12,4.67,3.6-.53,4.55-.61,5.57-.7v4.79c-.46,0-1-.09-1.68-.09a37.24,37.24,0,0,0-3.86.26c0,7.77-1.28,8.06-6.76,8.06a26.55,26.55,0,0,0-1.13-4.29,9.16,9.16,0,0,0,1.62.15c1.63,0,1.74-.41,1.92-3.31-.93.14-5,.84-5.83,1,0,.9-.06,1.77-.06,2.64,0,4.61.23,4.9.78,5.42s1.51.81,3.51.81a42.65,42.65,0,0,0,9.75-1.25,21.85,21.85,0,0,0-.55,4.73,78.35,78.35,0,0,1-10,.79c-1.68,0-6.21-.06-7.28-4-.44-1.65-.41-3.94-.35-8.23-3.48.87-4.5,1.13-5.63,1.45l-.34-5.08a36.33,36.33,0,0,0,5.83-.78,63.42,63.42,0,0,0-.38-6.68l5,.56c.43,0,.78.08.78.46s-.32.41-.52.44c-.06.72-.26,3.79-.32,4.43.87-.14,3.65-.58,5.48-.9a35.42,35.42,0,0,0-.7-6.87Z"/>
          <path class="cls-2" d="M462.45,95.9c.26.12.47.26.47.52s-.44.35-.7.29c-1.07,1.89-2.43,4.53-4,7.57-.29.55-.41.73-.64,1.11a11.28,11.28,0,0,1,2.7-.38c1.8,0,4.23.69,4.23,3.71a12.67,12.67,0,0,1-.26,2.44,13.85,13.85,0,0,0-.35,2.84c0,.76.21,1.45,1.11,1.45s4.17-1.83,6.23-4.76a30.87,30.87,0,0,0,3.05,3.69,21.58,21.58,0,0,1-4.93,4.2,11.47,11.47,0,0,1-5.54,1.72c-2.7,0-4.64-1.54-4.64-4.41,0-.87.49-4.7.49-5.49,0-1-.58-1.39-1.19-1.39-3.13,0-6.61,9-7.08,10.71l-4.73-2c1.86-3.1,6.07-11.8,7-13.72,1.82-3.94,3-6.81,4.35-10.32Z"/>
          <path class="cls-2" d="M479,93.64a20.67,20.67,0,0,1,0,27.73l-2.55-2.23a17.56,17.56,0,0,0,4.44-11.64,17.38,17.38,0,0,0-4.44-11.63Z"/>
        </g>
      </g>
    </g>
  </g>
</svg>
