<svg xmlns="http://www.w3.org/2000/svg" xmlns:xlink="http://www.w3.org/1999/xlink" viewBox="0 0 10 11.12"><defs><style>.cls-1,.cls-12,.cls-3,.cls-4,.cls-6{fill:none;}.cls-2{fill:#d8d8d8;}.cls-3{stroke:#ff0;}.cls-12,.cls-3,.cls-4,.cls-6{stroke-miterlimit:10;}.cls-4{stroke:#4affcf;}.cls-5{fill:#f4f4f4;}.cls-10,.cls-5{opacity:0.72;}.cls-6{stroke:#328b85;}.cls-7{fill:#cbcbcb;}.cls-8{fill:#f1f1f1;}.cls-9{clip-path:url(#clip-path);}.cls-10{fill:#efefef;}.cls-11{clip-path:url(#clip-path-2);}.cls-12{stroke:#000;stroke-width:3px;}</style><clipPath id="clip-path"><rect class="cls-1" x="401.98" y="1179.49" width="159" height="466"/></clipPath><clipPath id="clip-path-2"><rect class="cls-1" x="-2.5" y="0.56" width="14" height="10"/></clipPath><symbol id="新規シンボル_3" data-name="新規シンボル 3" viewBox="0 0 678.49 3187.49"><polygon class="cls-2" points="470.23 765.49 449.23 765.49 600.06 292.49 621.06 292.49 470.23 765.49"/><line class="cls-3" x1="453.56" y1="674.66" x2="604.39" y2="201.66"/><line class="cls-3" x1="453.56" y1="2698.66" x2="604.39" y2="2225.66"/><line class="cls-4" x1="155.56" y1="2352.66" x2="306.39" y2="1879.66"/><polygon class="cls-5" points="435.98 0 0 1414.49 168 1414.49 603.98 0 435.98 0"/><line class="cls-6" x1="150.05" y1="1593.14" x2="300.87" y2="1120.14"/><polygon class="cls-7" points="443.56 1890.49 398.56 1890.49 549.39 1417.49 594.39 1417.49 443.56 1890.49"/><polygon class="cls-8" points="134.56 3187.49 89.56 3187.49 390.39 2244.49 435.39 2244.49 134.56 3187.49"/><g class="cls-9"><polygon class="cls-10" points="661.98 813 226 2227.49 242.5 2227.49 678.49 813 661.98 813"/></g></symbol></defs><title>アートボード 29</title><g id="レイヤー_2" data-name="レイヤー 2"><use id="新規シンボル_3-3" data-name="新規シンボル 3" width="678.48" height="3187.49" transform="translate(-651.59 -3148.54)" xlink:href="#新規シンボル_3"/></g><g id="レイヤー_1" data-name="レイヤー 1"><g class="cls-11"><polyline class="cls-12" points="1 -0.94 7.5 5.56 1 12.06"/></g></g></svg>