<svg id="レイヤー_1" data-name="レイヤー 1" xmlns="http://www.w3.org/2000/svg" width="381.99" height="362.87" viewBox="0 0 381.99 362.87">
  <defs>
    <style>
      .cls-1 {
        fill: #fff;
      }
    </style>
  </defs>
  <title>アートボード 1</title>
  <g>
    <path class="cls-1" d="M122.48,4.65H105.9q-13.58,0-13.58,10.53v1.87c0,.75,0,1.88,0,3.41q0,9.65,11.17,9.65H119q4.11,0,4.11,3.75c0,3.48-1.35,5.23-4,5.23h-7.13l-7.36,0q-3.81,0-3.81-3.77v-2l-8.84,0v4.82q0,9,9.55,9h20.89c6.39,0,9.61-3.31,9.59-9.91V30.9q0-10-11.69-10h-15.5c-2.37,0-3.54-1.25-3.54-3.8,0-2.87,1.29-4.32,3.91-4.32h13.4c2.67,0,4,1.53,4.07,4.56h8.84c0-4.7-.7-8-2.08-9.9s-3.62-2.74-6.84-2.74"/>
    <polyline class="cls-1" points="191.45 4.62 154.36 4.64 154.39 47.17 163.23 47.17 192.44 47.15 192.44 39.07 163.22 39.07 163.22 29.93 188.97 29.93 188.97 21.84 163.22 21.86 163.22 12.71 191.45 12.7 191.45 4.62"/>
    <polyline class="cls-1" points="254.41 4.61 245.62 4.61 245.64 34.78 224.19 4.61 214.38 4.62 214.4 47.15 223.19 47.13 223.17 16.7 245.45 47.13 254.43 47.12 254.41 4.61"/>
    <path class="cls-1" d="M307.82,4.57c-4.4,0-7.92,0-10.53,0h-6q-13.55,0-13.55,10.52v5.28q0,9.66,11.18,9.65h15.39c2.78,0,4.17,1.24,4.17,3.76q0,5.24-4.06,5.23H290c-2.55,0-3.82-1.25-3.82-3.77v-2h-8.84v4.82q0,9,9.56,9h10.48c2.64,0,6.1,0,10.41,0,6.39,0,9.6-3.3,9.59-9.9V30.84q0-10-11.69-10h-15.5c-2.37,0-3.55-1.26-3.55-3.8q0-4.32,3.91-4.32h13.41c2.67,0,4,1.51,4.07,4.56h8.84q0-7.07-2.09-9.91c-1.36-1.83-3.67-2.75-6.91-2.75"/>
    <polyline class="cls-1" points="376.87 4.56 339.78 4.57 339.81 47.1 348.65 47.09 377.86 47.09 377.86 39.01 348.63 39.01 348.63 29.87 374.39 29.87 374.39 21.77 348.63 21.79 348.63 12.65 376.87 12.63 376.87 4.56"/>
    <path class="cls-1" d="M107.2,114.53q-7.65,0-7.72-7.92V96q0-7.82,7.72-7.87h10.35c5.09,0,7.65,2.64,7.68,7.87,0,1.77,0,3.51,0,5.28v5.28q0,7.94-7.73,7.93H107.2M121,80.08H103.64q-13,0-13,12.71v8.54q0,4.17,0,8.49,0,12.78,13,12.79H121q13,0,13-12.82v-8.47c0-2.85,0-5.69,0-8.54q0-12.7-13-12.7"/>
    <polyline class="cls-1" points="190.72 80.06 153.17 80.08 153.18 122.61 162.02 122.59 162.02 105.37 187.08 105.36 187.06 97.28 162.02 97.3 162.01 88.15 190.72 88.14 190.72 80.06"/>
    <polyline class="cls-1" points="138.43 158.11 129.29 158.13 124.88 191.66 118.05 158.13 108.44 158.13 101.56 191.66 97.17 158.14 88.03 158.14 94.96 200.66 107.04 200.66 113.23 170.23 119.44 200.66 131.53 200.64 138.43 158.11"/>
    <path class="cls-1" d="M162.85,192.55c-5.09,0-7.65-2.66-7.68-7.92V174.06c0-5.22,2.56-7.84,7.71-7.87H173.2c5.12,0,7.68,2.62,7.73,7.87v10.56q0,7.94-7.73,7.93H162.85M176.7,158.1H159.32c-8.67,0-13,4.25-13,12.7v17q0,12.81,13,12.8h17.37q13,0,13.06-12.82v-17q0-12.72-13.07-12.7"/>
    <polyline class="cls-1" points="237.72 158.08 228.93 158.08 228.94 188.26 207.49 158.1 197.69 158.1 197.7 200.63 206.49 200.61 206.48 170.18 228.75 200.61 237.75 200.59 237.72 158.08"/>
    <path class="cls-1" d="M252.49,192.36l0-26.27h16q8.58,0,8.58,7.25v11.8c0,4.8-2.84,7.22-8.57,7.22h-16m18.44-34.3h-.06l-27.24,0,0,42.51h27.24q15,0,15-11.74c0-3.56,0-6.74,0-9.55v-9.6q0-11.62-14.93-11.63"/>
    <polyline class="cls-1" points="330.21 158.03 293.11 158.05 293.14 200.58 301.98 200.58 331.19 200.56 331.19 192.49 301.97 192.49 301.97 183.34 327.73 183.33 327.73 175.25 301.97 175.27 301.97 166.13 330.21 166.11 330.21 158.03"/>
    <path class="cls-1" d="M346.88,177V166.11l15.25,0h3.56c2.37,0,3.54,1.82,3.56,5.44s-1.19,5.41-3.56,5.44h-18.8m20.77-19H338v42.53h8.84V185.06h15.25a12.09,12.09,0,0,1,5.12,1,3.46,3.46,0,0,1,2,3.2v11.34h8.84V189.21a8.71,8.71,0,0,0-3.06-6.45q3.06-2.65,3.06-8.54v-2.69c0-.92,0-1.83,0-2.75q0-10.71-10.41-10.76"/>
    <polyline class="cls-1" points="131.45 236.16 122.66 236.16 122.67 266.34 101.22 236.18 91.41 236.18 91.43 278.71 100.22 278.71 100.21 248.26 122.48 278.69 131.47 278.69 131.45 236.16"/>
    <polyline class="cls-1" points="170.63 236.15 161.78 236.16 161.8 278.68 170.64 278.68 170.63 236.15"/>
    <path class="cls-1" d="M228.61,236.13l-8.65,0h-8.73q-13,0-13,12.7v17q0,12.8,13,12.8l8.74,0h8.73q13.17,0,13.21-10.16V254.27l-21.94,0v7.45H233.7v3.5c0,3.56-2.75,5.34-8.29,5.34H220l-5.19,0c-5.1,0-7.68-2.64-7.71-7.94,0-1.76,0-3.51,0-5.27v-5.3q0-7.82,7.72-7.87h10.4c5.06,0,7.6,1.29,7.63,3.85v2.65h8.84v-5.84q0-8.75-13-8.74"/>
    <polyline class="cls-1" points="310.36 236.11 301.52 236.11 301.52 253.19 279.17 253.19 279.17 236.13 270.33 236.13 270.34 278.66 279.18 278.64 279.18 261.26 301.54 261.26 301.54 278.64 310.38 278.63 310.36 236.11"/>
    <polyline class="cls-1" points="376.98 236.1 352.74 236.1 336.95 236.11 336.95 244.19 352.75 244.17 352.77 278.63 361.61 278.63 361.59 244.17 376.98 244.17 376.98 236.1"/>
    <path class="cls-1" d="M63.13,280.65H9.36v78H63.13v-78M68.57,4H3.92V149.86l9.67,109.42H59.2l9.37-109.42V4"/>
    <path class="cls-1" d="M118.33,314.07h-14q-12.94,0-13,7.9v7.55h12.09v-5.8q0-3.14,4.57-3.13h6c3.06,0,4.58.85,4.58,2.57v3.28c0,3.43-3.78,6.15-11.38,8.17Q91,339,90.91,350.54v6.52h40.3v-6.52H103q0-7.31,11.73-10.68,16-4.55,16-13.42V321q0-6.94-12.36-6.93"/>
    <path class="cls-1" d="M190.67,350.54q-4.77,0-4.77-2.72V323.56c0-2,1.56-3,4.68-3h6.36c3.18,0,4.75,1,4.75,3v24.26c0,1.78-1.57,2.69-4.75,2.72h-6.27m10.67-36.47h-15q-12.69,0-12.7,8.17V349.3q0,7.76,12.35,7.76h15.09q12.78,0,12.88-7.86V321.57q0-7.45-12.63-7.5"/>
    <polyline class="cls-1" points="285.69 314.07 263.89 314.07 263.89 320.59 273.41 320.59 273.41 357.06 285.69 357.06 285.69 314.07"/>
    <g>
      <path class="cls-1" d="M352.14,333.44q-4.77,0-4.77-1.46V319q0-1.59,4.68-1.59h6.36c3.18,0,4.75.53,4.75,1.59v13c0,1-1.57,1.44-4.75,1.46h-6.27m10.67-19.56h-15c-8.46,0-12.71,1.46-12.71,4.38v14.51q0,4.16,12.36,4.16h15.09q12.78,0,12.87-4.21V317.9q0-4-12.62-4"/>
      <path class="cls-1" d="M352.14,353.75c-3.18,0-4.77-.48-4.77-1.46v-13c0-1,1.56-1.59,4.68-1.59h6.36c3.18,0,4.75.54,4.75,1.59v13c0,1-1.57,1.44-4.75,1.46h-6.27m10.67-19.56h-15c-8.46,0-12.71,1.46-12.71,4.38v14.52q0,4.16,12.36,4.16h15.09q12.78,0,12.87-4.22V338.22q0-4-12.62-4"/>
    </g>
  </g>
</svg>
