<svg xmlns="http://www.w3.org/2000/svg" width="484.79" height="94.29"><path d="M2.1 0H15v4.25H6.35V34H2.1zm38.81 8.5v21.41c0 3-2.12 3.31-6.16 3.35a8.61 8.61 0 00-2.12-4.86c.94.14 2.7.22 2.88.22 1.4 0 1.48-.33 1.48-1.33v-3.1h-6.16a25.49 25.49 0 01-2.7 9.36A16.61 16.61 0 0024 31.32c2.59-3.68 2.7-10.41 2.7-12.21V9.4A5.91 5.91 0 0024.17 8 19.86 19.86 0 0029.79.32l4.75.87c.18 0 .39.11.39.39s-.28.47-.79.58c-.07.18-.18.4-.21.5h4.78l2 1.55a42.79 42.79 0 01-3.08 4.29zm-8.17 0c.47-.69 1.29-2 1.37-2.09h-2.56c-.29.39-.9 1.15-1.73 2.09zm-1.55 6.19h1.58v-2.27h-1.58zm0 5.54h1.58v-2.12h-1.58zm4.21-7.81v2.27H37v-2.27zm1.6 5.69h-1.6v2.12H37zM47.35.5l4.72.22c.36 0 .5.14.5.4s-.25.5-.79.75v5.26h5.47V21h-5.47v5c.58-.11 1.26-.21 1.62-.32-.43-1.15-.86-2.13-1.19-2.81l4.36-1.47c2.3 5.6 2.91 8.26 3.09 10.6a19.52 19.52 0 00-4.78 1 19.29 19.29 0 00-.4-2.95c-4.36 1-6.95 1.58-10.58 2.19-.18.51-.29.94-.69.94a.55.55 0 01-.43-.4l-1.29-5.07c1.94-.29 4-.58 5.86-.94V21h-1.22v1.48H42V7.13h5.36zm0 11.05H46v4.9h1.36zm4.43 4.9h1.37v-4.9h-1.37zm25.13-6.52a11.92 11.92 0 017.38-3.67c1 0 4.57.76 4.57 5.62 0 1.19 0 1.44-.9 7.38a31 31 0 00-.29 4.1c0 .47 0 1.69.94 1.69.43 0 1.94-.25 4.53-3.09a24.65 24.65 0 002 5.58c-3.24 3.13-6 3.81-7.63 3.81-2 0-5.44-1.29-5.44-6.51 0-1.8 1-10.23 1-11.27a1.06 1.06 0 00-1.11-1.19c-2.2 0-5.29 3.67-7.6 6.37A114.43 114.43 0 0075 32.94l-6.3.28A50.92 50.92 0 0069 27v-1.44c-.5.72-2.55 4-3.06 4.53l-4.39-4.42a78.22 78.22 0 007.56-9.22v-1.37a28.87 28.87 0 01-5.72 1.3l-1.19-6.09a24.41 24.41 0 007.06-1.08c.07-2.44.11-7.23 0-8.49l5.26.43c.4 0 1 .11 1 .61s-.47.47-.72.54c-.29 2.85-.36 4.29-.4 5.33zm52.99-3.02c-10.3-.11-16.41 8.93-16.41 13.61 0 6 8.13 6.4 10 6.51a31.59 31.59 0 00-2.7 6.48C114.53 32 107.58 28.69 107.58 21c0-6.62 5-10.76 6.37-11.91a121 121 0 00-14.86 2.12l-.76-6.77c.79 0 1.55.11 2.7.11 5.29 0 19.66-1 27.83-3.56zm10.87 25.95a29.07 29.07 0 00-7.3-6.19l3.53-3.85a46.71 46.71 0 017.88 6.05zm31.4-20.69v-5h8.71V.4l5.12.28c.22 0 .76 0 .76.47s-.36.65-.69.83v5.18h9.18v5H188a33.41 33.41 0 008.64 10.76 14.68 14.68 0 00-3.24 4.36 28 28 0 01-3.6-3.82v4.94H186v5.08h-5.14V28.4h-3.71v-5a43.69 43.69 0 01-3.49 3.92 16.47 16.47 0 00-2.85-2.74v8.9h-5.21V17.39c-.51.64-.8 1-1.26 1.51a11.25 11.25 0 00-3.71-3.78A42.86 42.86 0 00168.78.43l5 1.66c.4.14.72.25.72.72s-.65.61-1 .57c-.47 1.08-2.19 4.75-2.59 5.55.32.21.68.47.68.82s-.36.54-.72.72v12.42a35.53 35.53 0 007.74-10.72zm8.71 5.61a40.35 40.35 0 01-3.67 5.62h3.67zm8.82 5.62a31.63 31.63 0 01-3.7-5.62v5.62zm11.77-1.01l2.09-.29c.32 1.87.5 5.69.54 6a15.4 15.4 0 00-2.3.72 36.3 36.3 0 00-.26-5.87.5.5 0 01-.36.25 34.51 34.51 0 01-.43 7.13 30.64 30.64 0 00-3.2-.36 29.69 29.69 0 00.79-7.74l2.77.25a2.41 2.41 0 01.4.07zm10.08-15.23v1.08c3.6-1.94 6.08-4.39 7.42-7.92l4.46.94c.14 0 .47.11.47.36s-.29.47-.47.58c1.11 1.87 4.64 4.17 8.21 5.47a13.21 13.21 0 00-2.88 4.06 12.66 12.66 0 01-1.34-.72v1.8h-3.56v1.3h6.52v9.47h-5.62a17.56 17.56 0 006.77 6c-2.09 2.27-2.41 2.74-3 3.93a21.71 21.71 0 01-6.87-5.87 17.48 17.48 0 01-7.38 6.26 16.12 16.12 0 00-3.14-3.74c-1.29 2.81-2.7 2.91-6.19 3.2a19.76 19.76 0 00-1.72-4.46 15.22 15.22 0 002.12.18c1.08 0 2.16 0 2.91-3.71a8.54 8.54 0 00-1.47.5 22.13 22.13 0 00-.79-4l1.76-.5a27 27 0 01.65 2.77 20.44 20.44 0 00.11-3.31h-5.29v.83H199V1.48h14v4h-4v1.68zm-6.44 0V5.51h-1.87v1.65zm0 4.93v-1.65h-1.87v1.65zm0 5v-1.68h-1.87v1.69zm.32 4.71a22.11 22.11 0 01.94 4.47 8.21 8.21 0 00-1.77.47 21.38 21.38 0 00-.79-4.61zM209 10.44v1.65h2.59v3.32H209v1.69h3.85c-.11 4.25-.22 9.5-1.58 12.85a12.31 12.31 0 007.45-6.37h-5.29v-9.47h5.86v-1.3h-4v-1.22a14.55 14.55 0 01-1.26.83c-1.44-2-1.62-2.2-2.45-2.84v.86zm10.4 9.21v-1.76h-1.62v1.76zM224.44 9a19.25 19.25 0 01-3.5-3.16A33.84 33.84 0 01218.28 9zm-.44 8.89v1.76h1.87v-1.76zm22.87-15.95c.54.08.82.11.82.51s-.25.43-.68.61a79.27 79.27 0 00-1.15 14.29c0 8.17.79 9.68 3.56 9.68C255.58 27 261 18.72 262 16.7a37.3 37.3 0 004.18 4.72c-4.1 6.66-10.22 11.66-17.49 11.66-8 0-8.64-6.77-8.64-15.77 0-2.08.36-11.19.36-13 0-1 0-2.26-.08-3.31zm55.83 4.97c-10.3-.11-16.41 8.93-16.41 13.61 0 6 8.13 6.4 10 6.51a31.59 31.59 0 00-2.7 6.48C287.33 32 280.38 28.69 280.38 21c0-6.62 5-10.76 6.37-11.91a121 121 0 00-14.86 2.12l-.76-6.77c.79 0 1.55.11 2.7.11 5.29 0 19.65-1 27.83-3.56zM335.82 19a26.9 26.9 0 00-6.19-4.72v3.78h-4.32v1.55h13.75V24h-9.5a30.86 30.86 0 009.5 5.29 14.61 14.61 0 00-3.46 3.82 33.94 33.94 0 01-10.29-6.74v7.06H320v-6.76a36.35 36.35 0 01-10.51 6.66 18.26 18.26 0 00-3.57-4.07 30 30 0 009.89-5.26h-9.47v-4.38H320v-1.55h-4.29V3.13h3.28a26.45 26.45 0 001-2.81l5.37.8c.39.07.64.18.64.46s-.28.51-1.11.65c-.15.33-.36.69-.43.9h5.18v4a32.18 32.18 0 004.75-5.36l4.1 2.77c.33.22.47.36.47.65s-.14.43-.61.43a4.48 4.48 0 01-.72-.11 45 45 0 01-4.63 4.86 36.17 36.17 0 00-3.35-2.88v6.76l3.13-3.85a30.78 30.78 0 016.37 4.79 39 39 0 00-3.33 3.81zM309 18.32c0 .61 0 1.15-.54 1.15-.32 0-.5-.28-.72-.79l-1.84-4.43a42.79 42.79 0 008.93-3.85 19.54 19.54 0 00.43 4.9 33.12 33.12 0 01-6.26 3.02zm2.88-8.32a26.29 26.29 0 00-5.47-4.42l3.31-3.75a21.34 21.34 0 015.22 4.43 40.45 40.45 0 00-3.06 3.74zm12.78-2.88h-4.07v1.7h4.07zm0 5.08h-4.07V14h4.07zm30.21-10.26c.54.08.82.11.82.51s-.25.43-.68.61a79.27 79.27 0 00-1.15 14.29c0 8.17.79 9.68 3.56 9.68C363.58 27 369 18.72 370 16.7a37.3 37.3 0 004.18 4.72c-4.1 6.66-10.22 11.66-17.49 11.66-8 0-8.64-6.77-8.64-15.77 0-2.08.36-11.19.36-13 0-1 0-2.26-.08-3.31zm32.36.98a31 31 0 00.83 5.9 17.19 17.19 0 016.48-2.09 34.3 34.3 0 00.54-6.19l6.08 1.4c.43.11.68.26.68.54 0 .51-.57.47-.75.47 0 .18-.69 3.24-.79 3.78a11.67 11.67 0 0110.36 12.1c0 10.25-9.64 13.31-13.82 14a16.9 16.9 0 00-3.17-4.71 16.68 16.68 0 006.7-2c3-1.66 4.68-3.75 4.68-7.45 0-5.76-4.43-6.59-5.94-6.84a34.73 34.73 0 01-4.61 10.62c.4.5.69.9 1.66 2a27 27 0 00-4.57 4.14c-.51-.72-.72-1-1-1.58-3.38 3.09-5.51 3.27-6.73 3.27-3.17 0-5.36-2.3-5.36-6.19a17.5 17.5 0 015.11-11.77 72.5 72.5 0 01-2.16-7.56zm-1.69 14.65a11.49 11.49 0 00-2.09 5.9c0 .25 0 1.26 1.05 1.26s2.41-1.44 3.31-2.38c-1.34-2.62-1.98-4.06-2.27-4.78zm4.07-3.89a31.78 31.78 0 001.72 3.78 21.24 21.24 0 002.16-5.46 13.51 13.51 0 00-3.88 1.68zm50.18-8.89c-2.45 1.62-8 7.2-8.82 8a19.81 19.81 0 014.32-.54c4.89 0 9.93 3.1 9.93 9.47 0 7.92-7.52 11.38-13.75 11.38-4.64 0-9.14-1.84-9.14-6.2 0-3.56 3.31-5.75 7.06-5.75 3.38 0 6.91 1.9 7.73 5.29a4.76 4.76 0 002.38-4.25c0-.86-.29-5.26-5.87-5.26-6.08 0-9.54 3.57-14.54 8.79l-4.32-4.21a95 95 0 0014.58-14c-1.15.26-2.38.54-9.58 1.26l-.86-5.65c1.4 0 11.81.15 18-2.27zM429 25.67c-1.22 0-1.51.68-1.51 1.29 0 1.37 2 1.91 3.24 1.91a5.88 5.88 0 001.8-.29 3.52 3.52 0 00-3.53-2.91zm33.47-23.26v8.39l-1.3 10.58h-3.45l-1.33-10.58V2.41zm-6.05 22.28h6.05v6.09h-6.05zm28.37 9.51h-12.92V30h8.67V.18h4.25zM23.32 83.37a35.38 35.38 0 00-3.95-.18H4c-1.46 0-2.81.08-4 .18v-3.43a33.65 33.65 0 004 .18h15.37a31.38 31.38 0 003.95-.18zm2.11-2.08H26l1.64-.08c0-1.45.05-2.6.05-3.51a34.61 34.61 0 00-.21-5.25 14.35 14.35 0 001.9.1h.86a11 11 0 001-2.83l2.88.42c-.41.88-.88 1.82-1.22 2.41h1.56a14 14 0 002-.13c0 .58-.07 1-.07 1.67V80a6.75 6.75 0 00.67-.13v2.37l-.67.15v8.89c0 1.17-.21 1.67-.81 2.11a4 4 0 01-2.08.39 17.64 17.64 0 01-2.05-.13A8.75 8.75 0 0031 91a14.94 14.94 0 002.57.26c.44 0 .55-.07.55-.54v-7.87C33.38 83 33 83 33 83v4.06a17.79 17.79 0 00.08 2.34h-2.27a13.72 13.72 0 00.13-2.34v-3.74l-1 .15c-.19 4.81-.84 7.86-2.29 10.56a12 12 0 00-2.21-2.13c1.25-1.77 1.82-4 2.08-8.09a16.93 16.93 0 00-1.69.26zm4.63-4.71c0 2.14 0 2.14-.06 4.4 1.28-.13 2.94-.37 4.09-.57v-5.59h-4zm2.1-1.09A16.77 16.77 0 0133.72 79l-1.95 1a13.38 13.38 0 00-1.45-3.64zm16.41 6.94a6.18 6.18 0 00-.47 1 20.18 20.18 0 01-3.25 5.41 14.57 14.57 0 004.92 2.44A10.88 10.88 0 0048.28 94 18.12 18.12 0 0143 90.78 20 20 0 0138.19 94a8.31 8.31 0 00-1.69-2.47 15.17 15.17 0 004.63-2.71 17.27 17.27 0 01-2.88-5.35 3.5 3.5 0 00-.65.08V81a10 10 0 001.82.11h6.08a6.92 6.92 0 001.79-.13zm-7.13-9.15a10.89 10.89 0 01-.88 4.45 6.81 6.81 0 01-1.85 2.55 7.4 7.4 0 00-1.89-2.11C38.38 77 39 75.41 39 72.35a7.67 7.67 0 00-.13-1.54 19.52 19.52 0 002.11.11h3.12a17.81 17.81 0 002.23-.11c0 .65-.08 1.25-.08 2.19v3.9c0 .39.08.46.52.46s.71-.07.78-.41a14.52 14.52 0 00.26-2.6 6.34 6.34 0 002.11 1c-.36 4-.62 4.34-3.35 4.34-2.42 0-2.81-.23-2.81-1.69v-4.72zm-.52 10.14A11.55 11.55 0 0043 87a12.61 12.61 0 002.26-3.59zM62.27 71.9l-.23.39-.13.26a3.52 3.52 0 00-.34.68 30.37 30.37 0 01-4.32 6.37 26.87 26.87 0 01-4 3.74 12 12 0 00-2-2.7 20.67 20.67 0 006.42-6.71 9.58 9.58 0 001.38-3.22zm9.39 22.18c-.65-1.4-.89-1.84-1.36-2.73a135.49 135.49 0 01-14.06 1.43 18.56 18.56 0 00-3 .29l-.52-3.33c.57.05 1.17.08 1.89.08h1.49a70.6 70.6 0 003.82-7.69 21.14 21.14 0 001.51-4.48l3.43.89c-.16.31-.26.52-.52 1.14a82.32 82.32 0 01-4.86 10 78.85 78.85 0 009.41-.86 39.21 39.21 0 00-3.3-4.62l2.54-1.43a66.3 66.3 0 016.37 9.69zm-3.8-23.4a16.62 16.62 0 002.89 5.12 20.65 20.65 0 002.86 2.94 23.14 23.14 0 002.47 1.77 13.16 13.16 0 00-1.93 2.86 27.56 27.56 0 01-6-6 26.7 26.7 0 01-2.4-3.92c0-.13-.15-.31-.28-.6s-.08-.18-.26-.52L65 71.9zm13.62 20.15a23.24 23.24 0 00.16 3.17h-3a23.81 23.81 0 00.15-3.22V73.62a28.4 28.4 0 00-.1-2.91 23.33 23.33 0 002.68.1h4.73a21.71 21.71 0 002.65-.1c0 .75-.08 1.51-.08 2.42v4c0 1.17 0 1.66.08 2.34-.67 0-1.48-.08-2.39-.08h-4.88zm0-16.69h4.61v-1.38h-4.61zm0 3.25h4.61V76h-4.61zm4.35 7.72v-2.39a24.81 24.81 0 00-2.6.1v-2.34a16.57 16.57 0 002.62.13h7.54a17.63 17.63 0 002.71-.13v2.34a25.92 25.92 0 00-2.71-.1v2.39h.39a23.12 23.12 0 002.68-.1v2.39a19.26 19.26 0 00-2.68-.13h-.39v3.85a11.5 11.5 0 00.13 2.21h-2.68a11.67 11.67 0 00.16-2.24v-3.82h-2.94a9.31 9.31 0 01-3.14 6.42 11.77 11.77 0 00-2.08-1.79 6.31 6.31 0 002.78-4.63 18.76 18.76 0 00-2.76.13V85a23.38 23.38 0 002.71.1zm2.47-2.39c0 1.17 0 1.17-.06 2.39H91v-2.39zm12.32 8.09c0 2.31-.78 2.91-3.69 2.91h-1.69a9.64 9.64 0 00-.7-2.76 18.43 18.43 0 002.39.21c.83 0 1-.11 1-.68v-11h-5.1c-.91 0-1.74 0-2.37.08.06-.75.06-1.17.06-2.34v-4c0-1 0-1.67-.08-2.42a22.22 22.22 0 002.65.1h5a23.12 23.12 0 002.68-.1c-.08 1-.11 1.58-.11 2.88zm-7.54-16.67h4.84v-1.38h-4.84zm0 3.25h4.84V76h-4.84zm23.38 16.9a20.75 20.75 0 01-2.84-5.12 19.25 19.25 0 01-1.38-7.17 18.41 18.41 0 011.33-6.94 20.88 20.88 0 012.86-5.12h3.64a20.43 20.43 0 00-3.3 5.17 17 17 0 00-1.35 6.89 17.71 17.71 0 001.37 7.13 20 20 0 003.31 5.17zm17.73-17.63c-.68-1.9-1.64-2.62-3.49-2.62a4.32 4.32 0 00-4.08 2.7 11.42 11.42 0 00-1.07 4.6c1.41-1.9 2.94-2.6 5.57-2.6a6.76 6.76 0 016 3.1 7.48 7.48 0 01.94 3.9c0 4.1-3.12 7-7.54 7a8.2 8.2 0 01-5.25-1.74c-1.93-1.66-3-4.78-3-8.71 0-3.2.81-6.27 2.13-8a7.41 7.41 0 016.35-3.1 7.18 7.18 0 015.33 2 7.7 7.7 0 011.64 2.65zm-8.12 9.08A4.4 4.4 0 00134 88a4.39 4.39 0 00.6-2.36 3.75 3.75 0 00-4.11-4.08 4.19 4.19 0 00-4.42 4.18zm22.08.26a18.84 18.84 0 01-.76 3.09 14.5 14.5 0 01-3.06 5.15 10.36 10.36 0 00-2.42-2.39 9.94 9.94 0 002.78-4.58c.78-2.41 1-5.46 1-12.22a37.64 37.64 0 00-.13-3.92 27.14 27.14 0 003 .13h10.84a24.22 24.22 0 003-.13 20.14 20.14 0 00-.13 2.94v16.81c0 1.3-.29 2.06-.94 2.47s-1.3.52-3 .52c-.83 0-1.69 0-3-.1a9.23 9.23 0 00-.75-2.91 25.86 25.86 0 003.82.31c.78 0 1-.13 1-.7V86zm11.28-2.65v-3.52h-10.76c0 .81 0 1.38-.21 3.49zm0-6.14v-3.28h-10.74v3.25zm14.95 15.08a21.15 21.15 0 00.21-3.38V74.58h-1.25a22 22 0 00-2.68.16v-3.3a14.57 14.57 0 002.6.15h2.4a18.08 18.08 0 002.65-.13 38.28 38.28 0 00-.21 4.29v13.16a21.31 21.31 0 00.21 3.38zm13.26-1.69a7.14 7.14 0 01-1.71-2.6 17.27 17.27 0 01-1-6 15.35 15.35 0 011.59-7.2 7.38 7.38 0 016.63-3.61 7.51 7.51 0 015.48 2.1 7.3 7.3 0 011.72 2.63 17.39 17.39 0 011 6c0 3.2-.7 6-1.92 7.7a7.37 7.37 0 01-6.32 3.06 7.48 7.48 0 01-5.47-2.08zm8.3-2c1.17-1.23 1.82-3.64 1.82-6.69s-.65-5.38-1.82-6.65a3.79 3.79 0 00-2.84-1.09 3.48 3.48 0 00-2.91 1.32c-1.14 1.35-1.72 3.49-1.72 6.32s.5 5 1.33 6.19a4.14 4.14 0 006.14.6zM210.26 74c0-1 0-1.93-.13-2.79a21.88 21.88 0 002.89.13h12.58a20 20 0 002.81-.13 24.64 24.64 0 00-.13 2.66V90.7a25.17 25.17 0 00.16 3.15h-3.15v-1.56H213.2v1.56h-3.09a28.53 28.53 0 00.15-3.15zm2.94 6.13h12.09v-6H213.2zm0 9.39h12.09V82.9H213.2zm29.98-7.42a3.1 3.1 0 11-3.1-3.1 3.09 3.09 0 013.1 3.1zm16.01-8.79a22.2 22.2 0 00-.18-3h3.38a21.43 21.43 0 00-.18 3V78h5.17a30.5 30.5 0 003.36-.15v3a32.05 32.05 0 00-3.36-.16h-5.17v9.42H269a35.24 35.24 0 003.64-.16v3.09a29.22 29.22 0 00-3.64-.18h-16.1a30.39 30.39 0 00-3.72.18V90a36.41 36.41 0 003.72.16h6.29v-9.42h-4.7a32 32 0 00-3.38.16v-3a30.9 30.9 0 003.38.15h4.7zM277 86a30.11 30.11 0 015.85 5.72L280.44 94a27.82 27.82 0 00-5.65-5.92zm25.41 6.29a22.5 22.5 0 00.2-3.38V74.58h-1.24a21.78 21.78 0 00-2.68.16v-3.3a14.51 14.51 0 002.6.15h2.39a17.92 17.92 0 002.65-.13 40.81 40.81 0 00-.21 4.29v13.16a22.56 22.56 0 00.21 3.38zm17.21 0a22.38 22.38 0 00.21-3.38V74.58h-1.25a21.9 21.9 0 00-2.68.16v-3.3a14.57 14.57 0 002.6.15h2.39a17.92 17.92 0 002.65-.13 40.81 40.81 0 00-.2 4.29v13.16a22.67 22.67 0 00.2 3.38zM335.68 74c0-1-.05-1.93-.13-2.79a22 22 0 002.89.13H351a19.85 19.85 0 002.8-.13 24.64 24.64 0 00-.13 2.66V90.7a27.25 27.25 0 00.16 3.15h-3.15v-1.56h-12.06v1.56h-3.09a28.53 28.53 0 00.15-3.15zm2.94 6.13h12.09v-6h-12.09zm0 9.39h12.09V82.9h-12.09zm29.98-7.42a3.1 3.1 0 11-3.09-3.1 3.09 3.09 0 013.09 3.1zm8.68-8.1c0-1 0-1.93-.13-2.79a22 22 0 002.89.13h12.59a19.85 19.85 0 002.8-.13 24.64 24.64 0 00-.13 2.66V90.7a27.25 27.25 0 00.16 3.15h-3.15v-1.56h-12.09v1.56h-3.09a28.53 28.53 0 00.15-3.15zm2.94 6.13h12.09v-6h-12.09zm0 9.39h12.09V82.9h-12.09zm19.84 4.77a19.93 19.93 0 003.3-5.17 17.48 17.48 0 001.38-7.12 16.87 16.87 0 00-1.33-6.89 21.19 21.19 0 00-3.32-5.17h3.66a20.84 20.84 0 012.84 5.12 18.4 18.4 0 011.32 6.94 19.55 19.55 0 01-1.35 7.18 21.72 21.72 0 01-2.83 5.12z" fill="#ff5064" data-name="レイヤー 2"/></svg>