<svg id="レイヤー_1" data-name="レイヤー 1" xmlns="http://www.w3.org/2000/svg" width="901.94" height="70.87" viewBox="0 0 901.94 70.87"><defs><style>.cls-1{fill:#0086d1;}.cls-2{fill:#fff;}</style></defs><rect class="cls-1" width="130.39" height="70.87"/><path class="cls-2" d="M57.33,26.06c0,1.56,0,3.23-.14,6.2H68.74V54.51c0,.61,0,1,.92,1H71.4c1,0,1.2-.25,1.38-.74A43.14,43.14,0,0,0,73.2,48l3.12,1.28c-.39,8-.71,9.07-4.32,9.07H68.85c-2.24,0-3.09-1.17-3.09-2.91V35.2H57C56.59,42,56,52.42,44.68,58.62l-2-2.65A18.28,18.28,0,0,0,53,43,56.19,56.19,0,0,0,54,35.2H43.37V32.26H54.11c.1-2.76.1-4.28.1-6.2Z" transform="translate(-11.34 -7.09)"/><path class="cls-2" d="M78.48,45.55c1.81-4.11,2.06-9.32,2.06-12.33l2.87,0c0,4-.57,10.32-2.34,14.21Zm10-19.13V38.07a40.75,40.75,0,0,1-1.92,12.55A19.5,19.5,0,0,1,81.25,59L79,56.78a15.78,15.78,0,0,0,4.85-7.47,44.31,44.31,0,0,0,1.81-11.24V26.42ZM92,46.12a50.49,50.49,0,0,0-3.22-11.45l2.59-.88A48.83,48.83,0,0,1,95,45.12ZM98.4,26.84V57.53H95.56V26.84Zm5.42,18.85a44.82,44.82,0,0,0-5-11.27l2.8-1.06a46.23,46.23,0,0,1,5.14,11.06Zm6.62-19.63V58.91H107.5V26.06Z" transform="translate(-11.34 -7.09)"/><path d="M194.24,43.73c-2.56,18.57-16,26.23-31.62,28.09a.87.87,0,0,1-1-.87V62.59a.87.87,0,0,1,.74-.85c12-1.81,18.61-8.32,20.05-18H156.77a.86.86,0,0,1-.86-.87v-8a.85.85,0,0,1,.84-.84h55.38a.87.87,0,0,1,.87.87v8a.87.87,0,0,1-.87.87Zm15.25-22.52v4.68a.87.87,0,0,1-.87.87h-48a.85.85,0,0,1-.86-.86V17.8a.86.86,0,0,1,.86-.86h38.18v-4a.87.87,0,0,1,.87-.87h4.64a.87.87,0,0,1,.87.87v4h2.29v-4a.87.87,0,0,1,.87-.87H213a.87.87,0,0,1,.87.87v7.44a.87.87,0,0,1-.87.87Z" transform="translate(-11.34 -7.09)"/><path d="M219.89,44V35.72a.83.83,0,0,1,.85-.83c8.33.28,19.08,1.17,27.33,2.24a.82.82,0,0,1,.72.82v8.29a.82.82,0,0,1-.92.82C239.19,46,228.46,45,220.68,44.77A.8.8,0,0,1,219.89,44Zm.64-18.43V17.35a.82.82,0,0,1,.84-.83c8.16.28,18.7,1.11,27.33,2.12a.82.82,0,0,1,.72.83v8.4a.81.81,0,0,1-.91.82c-8.37-1-19.4-2.05-27.2-2.35A.81.81,0,0,1,220.53,25.52Zm.76,44.88V61.66a.88.88,0,0,1,.85-.86c26.07-.91,38.66-9.57,41.18-34.23a.84.84,0,0,1,.83-.76h9.55a.85.85,0,0,1,.85.92c-2.7,32.52-22.28,44-52.36,44.54A.88.88,0,0,1,221.29,70.4ZM258.8,22.65V15.12a.87.87,0,0,1,.86-.86h4.6a.87.87,0,0,1,.86.86v7.53a.86.86,0,0,1-.86.86h-4.6A.86.86,0,0,1,258.8,22.65Zm8.61,0V15.12a.87.87,0,0,1,.86-.86h4.6a.87.87,0,0,1,.86.86v7.53a.86.86,0,0,1-.86.86h-4.6A.86.86,0,0,1,267.41,22.65Z" transform="translate(-11.34 -7.09)"/><path d="M288.35,61.94c13.17-1.73,22.25-6.16,28.13-13.3a225.63,225.63,0,0,0-23.86-3.81.85.85,0,0,1-.76-.84V37.67A37.35,37.35,0,0,1,281,45.21a.87.87,0,0,1-1.21-.8V35.14a.84.84,0,0,1,.4-.71c5.37-3.42,10.07-9.8,12.61-17.11a.85.85,0,0,1,.8-.57h42.05c.47,0,.85.23.85.51v.51c-.69,28.33-11.3,50.9-48,54a.88.88,0,0,1-1-.87V62.8A.87.87,0,0,1,288.35,61.94ZM300,26.57a47,47,0,0,1-6,8.74,245.69,245.69,0,0,1,27.68,4.4,56,56,0,0,0,3.19-13.14Z" transform="translate(-11.34 -7.09)"/><path d="M338.63,71.63V61.31a.84.84,0,0,1,.25-.6c4.53-4.32,8-10.58,8-26.48v-17a.83.83,0,0,1,.83-.83h8.73a.83.83,0,0,1,.83.83V33.53c0,23.18-7,32.74-17.37,38.83A.84.84,0,0,1,338.63,71.63Zm25-.79V17.14a.85.85,0,0,1,.84-.84h8.73a.84.84,0,0,1,.83.84v41.2c8.34-2.68,12-13.37,12.71-23.85a.83.83,0,0,1,.83-.77h8.74a.84.84,0,0,1,.84.88c-1,22.43-11.49,35.63-32.61,37.08A.86.86,0,0,1,363.63,70.84Z" transform="translate(-11.34 -7.09)"/><path d="M440.9,37.8V72.17a.85.85,0,0,1-.84.84h-9.54a.84.84,0,0,1-.84-.84V43.67a114.67,114.67,0,0,1-25.57,6.74.84.84,0,0,1-1-.84V41.12a.85.85,0,0,1,.7-.83c26.07-4.69,37.51-14.15,42.26-24.52a.83.83,0,0,1,.76-.49h10.05a.86.86,0,0,1,.82,1.11C454.72,25.83,448.58,32.7,440.9,37.8Z" transform="translate(-11.34 -7.09)"/><path d="M452.9,70.25v-8.8a.82.82,0,0,1,.6-.79c21-6,33.17-20.23,36.05-43.37a.82.82,0,0,1,.82-.73h10a.84.84,0,0,1,.83.94c-3.64,29.86-20.48,47.66-47.28,53.57A.85.85,0,0,1,452.9,70.25Z" transform="translate(-11.34 -7.09)"/><path d="M538.63,43.35c-6.19-12.5-7.09-13.27-11.87-13.27h-2.11l-6.44,15.25C515.6,52.3,511.38,56,505,57.1a.86.86,0,0,1-1-.85V47.44a.88.88,0,0,1,.46-.76c2-1.15,3.46-3.26,4.71-6.65L517,20.23a.87.87,0,0,1,.8-.55h8c11.22,0,14.29,1.66,21.69,16.72,5.21,10.68,10.37,20.52,17,23.26a.86.86,0,0,1,.54.78v8.69c0,1.16-.49,1.58-1,1.47C553,68.46,546.12,58.52,538.63,43.35ZM544,24.78V17a.84.84,0,0,1,.84-.84h5a.84.84,0,0,1,.84.84v7.76a.85.85,0,0,1-.84.84h-5A.85.85,0,0,1,544,24.78Zm8.93,0V17a.84.84,0,0,1,.84-.84h5a.84.84,0,0,1,.84.84v7.76a.85.85,0,0,1-.84.84h-5A.85.85,0,0,1,552.91,24.78Z" transform="translate(-11.34 -7.09)"/><path d="M563.87,44.86V36.42a.85.85,0,0,1,.85-.85h49.35a.85.85,0,0,1,.85.85v8.44a.85.85,0,0,1-.85.85H564.72A.85.85,0,0,1,563.87,44.86Z" transform="translate(-11.34 -7.09)"/><path d="M623.27,43.92V35.75a.86.86,0,0,1,.87-.86c8.32.29,19.05,1.17,27.28,2.24a.85.85,0,0,1,.74.85v8.23a.85.85,0,0,1-.95.85C642.55,46,631.85,45,624.08,44.77A.83.83,0,0,1,623.27,43.92Zm.63-18.43V17.38a.85.85,0,0,1,.88-.86c8.14.28,18.65,1.11,27.27,2.12a.85.85,0,0,1,.75.85v8.35a.85.85,0,0,1-.95.85c-8.35-1-19.35-2.05-27.13-2.34A.86.86,0,0,1,623.9,25.49Zm.77,44.92V61.65a.86.86,0,0,1,.83-.85c26.08-.91,38.67-9.56,41.19-34.22a.86.86,0,0,1,.85-.77h9.52a.87.87,0,0,1,.86.94c-2.7,32.51-22.28,43.94-52.37,44.52A.86.86,0,0,1,624.67,70.41Z" transform="translate(-11.34 -7.09)"/><path d="M686.67,70V62.3a.84.84,0,0,1,.84-.83h33.42V51.64H688.34a.84.84,0,0,1-.84-.83V43.22a.84.84,0,0,1,.84-.83h32.59V33.84H687.51a.84.84,0,0,1-.84-.83V25.36a.84.84,0,0,1,.84-.83h43.11a.83.83,0,0,1,.83.83V70a.83.83,0,0,1-.83.83H687.51A.84.84,0,0,1,686.67,70Z" transform="translate(-11.34 -7.09)"/><path d="M741.74,27V18.24a.85.85,0,0,1,.9-.86,252.75,252.75,0,0,1,26.6,3.26.85.85,0,0,1,.7.84v9a.85.85,0,0,1-1,.84,237.15,237.15,0,0,0-26.4-3.52A.84.84,0,0,1,741.74,27Zm.9,43.23V61.36a.87.87,0,0,1,.79-.85c22.84-1.73,37.21-8.45,39.76-33.29a.86.86,0,0,1,.85-.77h9.65a.87.87,0,0,1,.86.94C792,57.9,774.06,70,743.53,71.07A.87.87,0,0,1,742.64,70.21Z" transform="translate(-11.34 -7.09)"/><path class="cls-1" d="M803.41,71.68V63.93l14.86-28a10.32,10.32,0,0,0,1.29-3.67,38.91,38.91,0,0,0,.16-3.92c0-.7,0-1.44,0-2.22a5.25,5.25,0,0,0-.44-2.06,3.45,3.45,0,0,0-3.56-2.1,3.72,3.72,0,0,0-4,4.12v4.68h-8.24V26.2a12.31,12.31,0,0,1,1-4.85,12.68,12.68,0,0,1,2.67-4,12.07,12.07,0,0,1,3.88-2.7,11.8,11.8,0,0,1,4.85-1,12.07,12.07,0,0,1,5.53,1.17A11.1,11.1,0,0,1,825.14,18a14,14,0,0,1,2.14,4.6,21.75,21.75,0,0,1,.68,5.5c0,1.4,0,2.57-.08,3.51a20.73,20.73,0,0,1-.32,2.71,11.65,11.65,0,0,1-.81,2.58c-.37.87-.89,1.92-1.53,3.16L813.1,63.44H828v8.24Z" transform="translate(-11.34 -7.09)"/><path class="cls-1" d="M831.84,26a12.62,12.62,0,0,1,1-5.17A12.09,12.09,0,0,1,835.56,17a11.42,11.42,0,0,1,3.92-2.46,13.12,13.12,0,0,1,9.29,0A11.47,11.47,0,0,1,852.68,17a11.94,11.94,0,0,1,2.71,3.88,12.62,12.62,0,0,1,1,5.17V59.81a12.62,12.62,0,0,1-1,5.17,11.94,11.94,0,0,1-2.71,3.88,11.78,11.78,0,0,1-3.91,2.46,13.12,13.12,0,0,1-9.29,0,11.73,11.73,0,0,1-3.92-2.46A12.09,12.09,0,0,1,832.85,65a12.62,12.62,0,0,1-1-5.17Zm8.24,33.77a4.1,4.1,0,0,0,1.13,2.95,4.2,4.2,0,0,0,5.82,0,4.1,4.1,0,0,0,1.13-2.95V26A4.08,4.08,0,0,0,847,23.09a4.2,4.2,0,0,0-5.82,0A4.08,4.08,0,0,0,840.08,26Z" transform="translate(-11.34 -7.09)"/><path class="cls-1" d="M860.28,71.68V63.93l14.86-28a10.17,10.17,0,0,0,1.3-3.67c.1-1,.16-2.36.16-3.92,0-.7,0-1.44,0-2.22a5.43,5.43,0,0,0-.45-2.06,3.45,3.45,0,0,0-3.55-2.1,3.72,3.72,0,0,0-4,4.12v4.68h-8.24V26.2a12.14,12.14,0,0,1,1-4.85,12.49,12.49,0,0,1,2.66-4,12.07,12.07,0,0,1,3.88-2.7,11.84,11.84,0,0,1,4.85-1,12.07,12.07,0,0,1,5.53,1.17A10.92,10.92,0,0,1,882,18a14,14,0,0,1,2.14,4.6,21.31,21.31,0,0,1,.69,5.5c0,1.4,0,2.57-.08,3.51a20.7,20.7,0,0,1-.33,2.71,12.16,12.16,0,0,1-.8,2.58c-.38.87-.89,1.92-1.54,3.16L870,63.44h14.87v8.24Z" transform="translate(-11.34 -7.09)"/><path class="cls-1" d="M888.72,71.68V63.93l14.86-28a10.13,10.13,0,0,0,1.29-3.67A38.91,38.91,0,0,0,905,28.3c0-.7,0-1.44,0-2.22a5.25,5.25,0,0,0-.44-2.06,3.45,3.45,0,0,0-3.55-2.1A3.72,3.72,0,0,0,897,26v4.68h-8.24V26.2a12.31,12.31,0,0,1,1-4.85,12.68,12.68,0,0,1,2.67-4,12.07,12.07,0,0,1,3.88-2.7,11.8,11.8,0,0,1,4.85-1,12.07,12.07,0,0,1,5.53,1.17A11.1,11.1,0,0,1,910.45,18a14,14,0,0,1,2.14,4.6,21.31,21.31,0,0,1,.68,5.5c0,1.4,0,2.57-.08,3.51a20.73,20.73,0,0,1-.32,2.71,11.65,11.65,0,0,1-.81,2.58c-.37.87-.88,1.92-1.53,3.16L898.41,63.44h14.86v8.24Z" transform="translate(-11.34 -7.09)"/></svg>