<svg id="header_detail" xmlns="http://www.w3.org/2000/svg" width="624" height="132.8" viewBox="0 0 624 132.8"><defs><style>.cls-1{fill:#0068b7;}.cls-2{fill:#fff;}</style></defs><title>header_detail</title><g id="_0068b7" data-name="0068b7"><rect class="cls-1" width="624" height="132.81"/></g><g id="東京国際フォーラム_有楽町_" data-name="東京国際フォーラム（有楽町）"><path class="cls-2" d="M68.9,107.1H65.5v-6.9a29,29,0,0,1-8.9,6.8,8,8,0,0,0-3-2.6,23.5,23.5,0,0,0,9.5-5.8h-6V87.9h8.4V86.4H54.1V83.5H65.5V80.8L69.2,81c0.2,0,.6.1,0.6,0.4a0.9,0.9,0,0,1-.9.6v1.6H80.3v2.9H68.9v1.5h8.5V98.6H71.5a29.6,29.6,0,0,0,9.1,5.4c-2,1.7-2.3,2.2-2.6,2.8a30.7,30.7,0,0,1-9.1-6.7v7ZM65.5,90.5H60.6v1.6h4.8V90.5Zm0,3.8H60.6v1.6h4.8V94.3Zm3.4-2.2h4.9V90.5H68.9v1.6Zm0,3.8h4.9V94.3H68.9v1.6Z" transform="translate(-0.3 -0.4)"/><path class="cls-2" d="M96.7,80.7l3.7,0.2c0.1,0,.6,0,0.6.3a0.7,0.7,0,0,1-.7.5v1.6h11.3v3.1H85.4V83.4H96.7V80.7ZM94.8,99.1a0.7,0.7,0,0,1,.4.5c0,0.3-.5.3-0.8,0.3a25.7,25.7,0,0,1-5.7,6.6,11.1,11.1,0,0,0-3.2-2,22.7,22.7,0,0,0,6.1-7.1Zm5.5,4.8c0,2.4-.5,3.4-5.5,3.2a10.1,10.1,0,0,0-1.3-3.7l2.2,0.2c0.9,0,1.2-.3,1.2-1V96.8H88.8V88h19.3v8.8h-7.9v7.1ZM92.4,90.9v2.9h12.3V90.9H92.4ZM105,97.5a29.3,29.3,0,0,1,5.7,6.6,21.9,21.9,0,0,0-3.2,2.3,27.1,27.1,0,0,0-5.5-7Z" transform="translate(-0.3 -0.4)"/><path class="cls-2" d="M121.1,105.7V107h-3.5V81.6h24.5V107h-3.5v-1.3H121.1Zm17.5-3.2V84.6H121.1v17.9h17.5Zm-7.2-10.8h4.9v2.7h-1.5a17.7,17.7,0,0,1,2,2.7l-1.5,1h2.4v2.8H122V98.1h5.9V94.4h-4.6V91.7h4.6V89.1h-5.6V86.3h15.1v2.8h-6.1v2.6Zm2.4,2.7h-2.4v3.7h2.5a19,19,0,0,0-1.8-2.5Z" transform="translate(-0.3 -0.4)"/><path class="cls-2" d="M164.1,82.3l-0.2-.8,2.9-.7a13.6,13.6,0,0,0,2.3,5.9,12.5,12.5,0,0,0,1.5-2.1h-2.6V82.3h5l1.7,1.8a45.2,45.2,0,0,1-3.6,4.9,14.6,14.6,0,0,0,3.5,2.5,17.9,17.9,0,0,0-2,2.7,13.4,13.4,0,0,1-3.1-2.4v1.8h-9.3V92.2a15.7,15.7,0,0,1-2.5,2.3,13,13,0,0,0-1.6-1.4,8,8,0,0,1,.8,3.4c0,4.1-2.3,4.3-4.5,4.4a7.3,7.3,0,0,0-.8-2.5v8.8h-3V81.6h7.2l1.2,1.2-0.8,2.9a19.8,19.8,0,0,0,3-5.6l2.9,1.2a0.3,0.3,0,0,1,.3.3c0,0.3-.4.4-0.7,0.5v0.3h2.7Zm-12.5,2.3v6.2a31.7,31.7,0,0,0,1.9-6.2h-1.9Zm0,13h1.1c0.5,0,1.2-.1,1.2-1.4A9.4,9.4,0,0,0,153,93a6.4,6.4,0,0,0-1.4-1.9v6.4Zm5.6-8.8-0.7.7-1.3-1.2-0.7,2a8.2,8.2,0,0,1,1.2,1.8,14.7,14.7,0,0,0,2.8-2.2Zm5,11.7a0.5,0.5,0,0,1,.3.3c0,0.4-.5.4-0.7,0.4a25.4,25.4,0,0,1-3.8,5,13.7,13.7,0,0,0-2.8-1.8,16.2,16.2,0,0,0,4-5.3Zm4.7,3.9c0,1.4,0,3-5.1,2.7a10.2,10.2,0,0,0-1.1-3.5l1.9,0.2c0.8,0,.9-0.2.9-1V98.5h-6.2V95.5h16.2v2.9h-6.6v5.9Zm-6.4-16.7L159,86.6l-0.6.8,1.4,1.2Zm-0.2-3.1-0.3.5,1.5,1.1,0.9-1.6h-2.1Zm8.3,6.2a19.6,19.6,0,0,1-3.4-5.5,28.7,28.7,0,0,1-3.7,5.5h7.1Zm1.6,8.3a26.9,26.9,0,0,1,4.6,4.8A11.5,11.5,0,0,0,172,106a28.3,28.3,0,0,0-4.5-5.1Z" transform="translate(-0.3 -0.4)"/><path class="cls-2" d="M198.6,82.7l2-.2,2.8,2.4a5.8,5.8,0,0,0-.9,1.6c-2.8,7-3.4,8.3-5.6,11.2-3.4,4.5-7.7,7-11,8.7a14.9,14.9,0,0,0-3-3c7.5-3.4,11.7-7,15.2-17H180.1V82.7h18.5Z" transform="translate(-0.3 -0.4)"/><path class="cls-2" d="M209.8,93.6V90.3h10.6V85.9l3.4,0.2c0.4,0,.6.1,0.6,0.3a0.6,0.6,0,0,1-.6.4v3.5h4.7v3.3h-4.7v9.1c0,3.1-1,3.7-5.5,3.6a12.8,12.8,0,0,0-1.3-3.7,7.7,7.7,0,0,0,2,.2c1.4,0,1.4-.3,1.4-1.5V96.7a24.1,24.1,0,0,1-8.7,7.3,15.9,15.9,0,0,0-2.4-2.9,18.8,18.8,0,0,0,9.2-7.5h-8.7Z" transform="translate(-0.3 -0.4)"/><path class="cls-2" d="M259.2,92v4.1H234.4V92h24.8Z" transform="translate(-0.3 -0.4)"/><path class="cls-2" d="M284.3,89a8.5,8.5,0,0,0,2.4-.3l2.4,1.7-3,5.8c-3.5,6.1-7.2,8.7-12.9,11a15.9,15.9,0,0,0-2.7-3.2c4.4-1.4,10-3.8,12.9-11.5H265.5V89h18.8Zm1.4-6.8v3.5H269.1V82.2h16.6Z" transform="translate(-0.3 -0.4)"/><path class="cls-2" d="M312.9,90.9c3,3.5,6.4,8.8,7.3,11.5L317,105c-0.7-1.8-1.2-2.9-1.5-3.5-11.4,2-11.7,2-19.1,2.9-0.1.4-.2,0.5-0.5,0.5a0.6,0.6,0,0,1-.4-0.5l-0.9-3.7,3.1-.3a87,87,0,0,0,6.8-18.9l4.2,1.1a0.5,0.5,0,0,1,.5.4,0.6,0.6,0,0,1-.7.5c-0.5,1.3-2.4,6.8-2.8,7.9-1.1,2.9-2.4,5.8-3.7,8.6,2.6-.3,8.1-1,11.7-1.6a36.1,36.1,0,0,0-4.1-5.5Z" transform="translate(-0.3 -0.4)"/><path class="cls-2" d="M336.1,86.8a12.6,12.6,0,0,0,0,19.2l-1.1,1.1a14.1,14.1,0,0,1,0-21.4Z" transform="translate(-0.3 -0.4)"/><path class="cls-2" d="M349.8,86.2a0.5,0.5,0,0,1,.5.4c0,0.3-.4.3-0.6,0.3l-0.5,1.9h10.9v1.6H348.6a14.3,14.3,0,0,1-1.4,2.7h9.6v10.4c0,2.9-.8,3.1-4.4,3.1a4.9,4.9,0,0,0-.6-2l1.9,0.2c1.3,0,1.3-.6,1.3-1.5v-1.8h-8.3v5.1h-1.9V96.2a17.8,17.8,0,0,1-4.1,3.3,7.5,7.5,0,0,0-1.5-1.3c5.2-3,6.8-6.5,7.3-7.7h-6.9V88.9h7.6a21.1,21.1,0,0,0,.7-3ZM355,96.7V94.7h-8.3v1.9H355Zm-8.3,1.5v1.9H355V98.2h-8.3Z" transform="translate(-0.3 -0.4)"/><path class="cls-2" d="M383.1,106.1a22,22,0,0,1-8.5-5.2v5.8h-1.7v-5.7a27.6,27.6,0,0,1-8.4,5.4,4.5,4.5,0,0,0-1.3-1.5,28.2,28.2,0,0,0,9-4.8h-8.7V98.5h9.4V96.9h-3.3V88.1H372a11,11,0,0,0,.8-2.2l1.8,0.3a0.5,0.5,0,0,1,.5.2c0,0.2-.2.3-0.6,0.3a7.6,7.6,0,0,1-.6,1.2h3.8v8.8h-2.5a0.6,0.6,0,0,1-.6.3v1.1H384V100h-8.6a24.2,24.2,0,0,0,8.9,4.6A5.1,5.1,0,0,0,383.1,106.1Zm-18.1-9.2c0,0.2,0,.7-0.3.7a0.4,0.4,0,0,1-.3-0.3l-0.9-1.6a31.7,31.7,0,0,0,5.3-3,8.5,8.5,0,0,0,.2,1.8Zm2.6-5.4a16.4,16.4,0,0,0-3.7-3l1.2-1.4a21,21,0,0,1,3.6,3A9.9,9.9,0,0,0,367.5,91.5Zm8.5-1.9h-4.7v2.1H376V89.5Zm0,3.5h-4.7v2.3H376V93.1Zm7-4.4h-0.4a32.2,32.2,0,0,1-3.2,3.3,5.9,5.9,0,0,0-1.3-1.2,24,24,0,0,0,3.5-3.7l1.4,1a0.5,0.5,0,0,1,.2.4A0.2,0.2,0,0,1,382.9,88.6Zm-0.5,8.6a25.5,25.5,0,0,0-4.3-3.3l1.1-1.3a25.9,25.9,0,0,1,4.4,3.2A7.7,7.7,0,0,0,382.4,97.2Z" transform="translate(-0.3 -0.4)"/><path class="cls-2" d="M404.5,90.3v13.4c0,2.8-1.3,2.8-4.7,2.9a5.9,5.9,0,0,0-.7-2h1.7c1.3,0,1.8-.2,1.8-1.3V90.3h-5.2v12.5h-1.7v-1.2h-6v2.3h-1.7V87.1h9.3v1.5h10.4v1.7h-3.3Zm-12.6-1.6h-2.2v4.8h2.2V88.7Zm0,6.4h-2.2V100h2.2V95.1Zm3.8-6.4h-2.3v4.8h2.3V88.7Zm0,6.4h-2.3V100h2.3V95.1Z" transform="translate(-0.3 -0.4)"/><path class="cls-2" d="M412.4,107.1l-1.1-1.1a12.6,12.6,0,0,0,0-19.2l1.1-1.1A14.1,14.1,0,0,1,412.4,107.1Z" transform="translate(-0.3 -0.4)"/></g><g id="_2019年5月29日_水_-31日_金_" data-name="2019年5月29日［水］-31日［金］"><path class="cls-2" d="M72.8,62.2v3.7H53.7c0.3-5.4,2.6-7.1,9.7-12.4,4.2-3.1,4.8-4,4.8-5.9s-2.4-3.6-4.5-3.6c-4.3,0-5.1,2.9-5.3,5.8H54c0.1-2.2.5-9.9,9.7-9.9,5.9,0,8.9,3.4,8.9,7.6s-1.8,5.6-6,8.6-5.6,4.1-7,6H72.8Z" transform="translate(-0.3 -0.4)"/><path class="cls-2" d="M96.6,53.3c0,4.5-1.1,13.3-9.5,13.3s-9.5-8.8-9.5-13.3S78.5,40,87.1,40,96.6,48.8,96.6,53.3ZM82,53.3c0,1.4,0,9.3,5.1,9.3s5.1-7.9,5.1-9.3,0-9.3-5.1-9.3S82,51.8,82,53.3Z" transform="translate(-0.3 -0.4)"/><path class="cls-2" d="M109.5,65.9h-4.3v-17h-4.8V45.4c2.4-.1,4.7-0.4,5.7-4.7h3.4V65.9Z" transform="translate(-0.3 -0.4)"/><path class="cls-2" d="M121.7,59.6a3.9,3.9,0,0,0,4.2,3c4.5,0,5.5-3.5,5.8-8-0.7.8-2.4,2.6-6.5,2.6s-8.3-3.7-8.3-8.3,3.8-8.8,9.2-8.8,9.9,3.5,9.9,13.1c0,12.1-7.1,13.5-10,13.5-0.8,0-7.6-.2-8.8-7h4.6Zm-0.4-10.7c0,2.7,1.9,4.6,4.9,4.6s5.2-2.7,5.2-4.6a4.8,4.8,0,0,0-5.1-4.9C122.1,44,121.3,47.2,121.3,48.9Z" transform="translate(-0.3 -0.4)"/><path class="cls-2" d="M159.4,50.1h6v3.2h-6v4.1H169v3.2h-9.6v6h-3.7v-6h-13V57.4h4.7V50.1h8.3V46.5H149a28.4,28.4,0,0,1-3.9,5,11.3,11.3,0,0,0-3.2-1.9,24.2,24.2,0,0,0,6.4-9.7l3.5,1.2c0.3,0.1.4,0.2,0.4,0.4s-0.4.4-.8,0.4l-0.6,1.4h17.1v3.3h-8.5v3.7Zm-3.7,3.2h-4.5v4.1h4.5V53.3Z" transform="translate(-0.3 -0.4)"/><path class="cls-2" d="M207.7,28.1v5.6H191.3l-1.7,9.7a11.5,11.5,0,0,1,7.7-2.5c7.1,0,12.3,4.8,12.3,12.5,0,3-1.1,13.6-14.3,13.6s-13.8-8.8-14.2-11.5h6.8c0.9,5.4,6,5.4,7.4,5.4,5.2,0,7.6-3.4,7.6-7.3s-1.5-7.1-7.3-7.1c-4,0-5.7,1.5-6.6,2.4h-6.8l3.6-20.8h21.8Z" transform="translate(-0.3 -0.4)"/><path class="cls-2" d="M226.1,56.9a15.2,15.2,0,0,1-5.8,9.7,10.2,10.2,0,0,0-3-2.6c5.4-3.9,5.4-8.9,5.4-12.4V40.9h17.4V62.2c0,2.6-.2,4.4-6.2,4.1a10.7,10.7,0,0,0-1.2-3.9l2.4,0.2c1.1,0,1.2-.4,1.2-1.8V56.9H226.1Zm10.3-3.4V50.5h-10v1.3c0,0.3,0,.5,0,1.6h10Zm0-6.2V44.3h-10v2.9h10Z" transform="translate(-0.3 -0.4)"/><path class="cls-2" d="M283.6,60.3v5.6H254.9c0.5-8.2,3.9-10.7,14.5-18.6,6.3-4.7,7.2-6,7.2-8.9s-3.5-5.3-6.7-5.3c-6.5,0-7.7,4.3-7.9,8.7h-6.6c0.2-3.3.8-14.8,14.5-14.8,8.8,0,13.3,5.1,13.3,11.4s-2.7,8.4-9,12.9-8.3,6.1-10.5,9.1h19.8Z" transform="translate(-0.3 -0.4)"/><path class="cls-2" d="M296.4,56.4c0.9,3.4,3.5,4.5,6.3,4.5,6.7,0,8.3-5.2,8.8-12-1.1,1.2-3.5,3.9-9.8,3.9-8.5,0-12.5-5.6-12.5-12.5S294.8,27,302.9,27s14.8,5.2,14.8,19.6C317.7,64.8,307,67,302.7,67c-1.3,0-11.4-.3-13.2-10.6h6.9Zm-0.6-16c0,4,2.8,6.9,7.3,6.9,6,0,7.8-4.1,7.8-7s-2.2-7.3-7.7-7.3S295.7,37.8,295.7,40.4Z" transform="translate(-0.3 -0.4)"/><path class="cls-2" d="M332.4,63.7v1.7h-3.8V41.9h20.2V65.4H345V63.7H332.4ZM345,50.9V45.3H332.4v5.7H345Zm0,9.3v-6H332.4v6H345Z" transform="translate(-0.3 -0.4)"/><path class="cls-2" d="M369.2,37v3.3H364V64.1h5.2v3.3h-8.5V37h8.5Z" transform="translate(-0.3 -0.4)"/><path class="cls-2" d="M384,44.3l1.8,1.9a24.5,24.5,0,0,1-9.2,17.7,22.3,22.3,0,0,0-3.4-2.4c3.7-2.8,7.9-7.6,8.4-13.6h-7V44.3H384ZM402.1,43a0.7,0.7,0,0,1,.5.5c0,0.3-.3.4-1,0.4a51.3,51.3,0,0,1-7.5,7.7,30.7,30.7,0,0,0,9.5,9,19.7,19.7,0,0,0-2.7,3.2,33.2,33.2,0,0,1-10-10.7v9.2c0,4.6-2.5,4.6-6.8,4.6a9.7,9.7,0,0,0-1.2-4l2.2,0.2c1.8,0,1.9-.1,1.9-1.6V37.2l3.9,0.2c0.1,0,.8.1,0.8,0.5a1,1,0,0,1-.8.7v6a27.9,27.9,0,0,0,1.4,3.6,29.2,29.2,0,0,0,6-7.2Z" transform="translate(-0.3 -0.4)"/><path class="cls-2" d="M407.3,67.3V64.1h5.2V40.3h-5.2V37h8.5V67.3h-8.5Z" transform="translate(-0.3 -0.4)"/><path class="cls-2" d="M438.1,50.9v4.8H426.9V50.9h11.1Z" transform="translate(-0.3 -0.4)"/><path class="cls-2" d="M457.2,53.3c0.2,2.4.6,7.5,7.4,7.5,1,0,7.8,0,7.8-6.2s-4.2-6.2-7-6.2h-3v-5H465c3.2,0,6.6-1.7,6.6-5.4s-5.1-4.9-6.4-4.9c-4.4,0-6.6,1.5-6.9,6.1h-6.7a14.5,14.5,0,0,1,2.2-7c3.1-4.6,8.5-5.3,11.6-5.3,7.2,0,12.9,3.5,12.9,10.2s-4,7.5-5.8,8.2c1.7,0.6,6.6,2.4,6.6,9.2S473.7,67,464.7,67s-13.5-3.6-14.2-13.6h6.7Z" transform="translate(-0.3 -0.4)"/><path class="cls-2" d="M498.9,65.9h-6.5V40.4h-7.2V35.1c3.6-.2,7.1-0.7,8.6-7h5.1V65.9Z" transform="translate(-0.3 -0.4)"/><path class="cls-2" d="M516.9,63.7v1.7h-3.8V41.9h20.2V65.4h-3.8V63.7H516.9Zm12.6-12.8V45.3H516.9v5.7h12.6Zm0,9.3v-6H516.9v6h12.6Z" transform="translate(-0.3 -0.4)"/><path class="cls-2" d="M553.7,37v3.3h-5.2V64.1h5.2v3.3h-8.5V37h8.5Z" transform="translate(-0.3 -0.4)"/><path class="cls-2" d="M575.2,52.4h10.1V56H575.2v6.5h4.2a16.7,16.7,0,0,0-2.5-1.3,21.4,21.4,0,0,0,2.7-5l3.7,1.5a0.5,0.5,0,0,1,.4.4c0,0.3-.2.4-1,0.4a27.1,27.1,0,0,1-2.1,3.9h5.8V66H559.5V62.5h6.2a21.9,21.9,0,0,0-2.7-4.5l3.3-1.9a26.3,26.3,0,0,1,3,4.9l-2.6,1.5H571V56H560.9V52.4H571V50h-4.9V47.7a53.7,53.7,0,0,1-5.6,3.3,14.9,14.9,0,0,0-3.1-3.1c8.8-3.7,12.9-8.6,14.1-10.7l4.3,0.5a0.5,0.5,0,0,1,.5.3,0.8,0.8,0,0,1-.8.6,33,33,0,0,0,13.3,8.9,13.1,13.1,0,0,0-2.9,3.5,33.8,33.8,0,0,1-5.9-3.3V50h-4.8v2.4Zm3-5.9a29.9,29.9,0,0,1-5.1-4.8,32.4,32.4,0,0,1-5.2,4.8h10.4Z" transform="translate(-0.3 -0.4)"/><path class="cls-2" d="M592.4,67.3V64.1h5.2V40.3h-5.2V37h8.5V67.3h-8.5Z" transform="translate(-0.3 -0.4)"/></g></svg>