<?xml version="1.0" encoding="utf-8"?>
<!-- Generator: Adobe Illustrator 22.0.1, SVG Export Plug-In . SVG Version: 6.00 Build 0)  -->
<svg version="1.1" xmlns="http://www.w3.org/2000/svg" xmlns:xlink="http://www.w3.org/1999/xlink" x="0px" y="0px"
	 viewBox="0 0 984 174" style="enable-background:new 0 0 984 174;" xml:space="preserve">
<style type="text/css">
	.st0{fill:#FFFFFF;}
	.st1{fill:#2A8640;}
	.st2{fill:#00A95F;}
	.st3{enable-background:new    ;}
	.st4{fill:#E61D5E;}
	.st5{fill:#AACE36;}
</style>
<g id="li_link_btn">
	<rect id="長方形_20" x="234" class="st0" width="750" height="174"/>
	<path id="長方形_20-2" class="st1" d="M264,57h-30v81l30-12V57z"/>
	<rect id="長方形_20-3" y="45" class="st2" width="264" height="81"/>
	<g class="st3">
		<path class="st0" d="M88.6,67.6v29.5c0,3.5-1.2,5-7.8,4.7c-0.2-1.3-1-3.8-1.6-5c0.6,0.1,1.4,0.2,2.5,0.2c1.5,0,2-0.1,2-1.8V71.8
			H60.3v30.1h-5V67.6H88.6z M81.9,74.4v3.9H62v-3.9H81.9z M80.2,81.3v13.6H68.3V97h-4.5V81.3H80.2z M68.3,85.2v5.5h7.4v-5.5H68.3z"
			/>
		<path class="st0" d="M106,69.4v26.2h-4.4v-1.5h-3.2v3.2h-4.4V69.4H106z M101.6,79.5v-6h-3.2v6H101.6z M98.5,83.7V90h3.2v-6.3H98.5
			z M124.6,82.5c0.5,0,0.7,0.2,0.7,0.4c0,0.4-0.5,0.6-0.7,0.7v2.3h4v4.2h-4v7.5c0,3.5-1.8,4.7-8.1,4.4c-0.2-2.1-0.6-3.4-1.7-5
			c0.8,0.2,3,0.4,3.5,0.4c1.1,0,1.4-0.3,1.4-1.6v-5.7h-7.9c0.5,0.5,2.8,2.8,4.3,5c-1.1,0.9-1.6,1.3-3.7,3.2
			c-0.4-0.6-2.5-3.8-4.6-5.7l3-2.5h-3.3v-4.2h12.2v-3.6H107v-4.3h7.9v-3.2h-6.9v-4.3h6.9v-4.4l5.4,0.2c0.3,0,0.6,0.2,0.6,0.5
			c0,0.4-0.5,0.5-1,0.7v3h7.6v4.3h-7.6v3.2h9v4.3h-6.2L124.6,82.5z"/>
		<path class="st0" d="M148.7,67.2V80h-10.8v21.8h-4.7V67.2H148.7z M144.3,72.2v-1.6h-6.4v1.6H144.3z M137.8,74.9v1.7h6.4v-1.7
			H137.8z M156.1,88.4h4.3v3.7h-4.3v8.7h-4.2v-8.7h-3.5c-1.2,5.8-4.5,8.4-6,9.4c-1.3-1.6-1.8-1.8-3.7-2.6c2.6-1.5,4.8-3.2,5.5-6.8
			h-4.4v-3.7h4.8c0-1.8,0-2.4,0-2.9h-3.8V82h18.8v3.5h-3.5V88.4z M151.9,85.5h-3.2c0,0.9,0,1.8,0,2.9h3.2V85.5z M166.8,67.2v29.9
			c0,4.5-3,4.9-7.1,4.8c-0.3-2.1-1.1-3.7-1.8-4.8c0.5,0.1,1.5,0.3,2.4,0.3c0.9,0,1.9-0.2,1.9-1.6V80h-11V67.2H166.8z M162.2,72.2
			v-1.7h-6.5v1.7H162.2z M155.7,74.9v1.7h6.5v-1.7H155.7z"/>
		<path class="st0" d="M206.4,80.6v3.5h-8.5v2.1h7v3.5h-7v2.1h7v3.5h-7v2.1h8.9v3.6h-18.6v0.9h-4.6V87.5c-0.5,0.5-0.7,0.7-1.1,1.1
			c-0.4-0.7-1.1-1.8-2.6-2.9v16.2H175V82c-0.9,1.2-1.5,2-2,2.5c-1.3-1.9-1.9-2.5-3.4-3.4c2.3-2.8,6.3-7.8,8.5-15.4l4.6,1.5
			c0.4,0.1,0.5,0.4,0.5,0.6c0,0.4-0.3,0.5-0.9,0.7c-0.9,1.9-2.2,4.8-2.6,5.7c0.8,0.3,0.9,0.4,0.9,0.6c0,0.4-0.2,0.4-0.9,0.8v9.2
			c1.1-1,4.4-4.5,6.6-8.6h-2.9v-9.3l4.6,0.2c0.4,0,0.7,0.1,0.7,0.5c0,0.4-0.2,0.5-0.9,0.9v4.1h4.1v-6.6l4.9,0.3
			c0.2,0,0.7,0.1,0.7,0.5c0,0.5-0.6,0.7-1,0.7v5.1h4.3V67l4.8,0.3c0.4,0,0.8,0,0.8,0.4s-0.2,0.5-1,0.8v7.6h-9l2.8,1.5
			c0.3,0.2,0.5,0.4,0.5,0.6c0,0.4-0.1,0.4-1.1,0.6c-0.2,0.3-0.9,1.4-1,1.6H206.4z M188.1,84.1v2.1h5.2v-2.1H188.1z M188.1,89.7v2.1
			h5.2v-2.1H188.1z M188.1,95.3v2.1h5.2v-2.1H188.1z M192.3,80.6c0.8-1.2,1.8-2.9,2.4-4.4h-6.3l2.2,1.1c0.4,0.2,0.5,0.4,0.5,0.6
			c0,0.4-0.2,0.4-1.1,0.5c-0.4,0.7-0.7,1.3-1.2,2.1H192.3z"/>
	</g>
</g>
<g id="レイヤー_2">
	<g>
		<g>
			<polygon points="445.7,121.9 450.2,121.9 450.2,138.3 458.6,138.3 458.6,142.5 445.7,142.5 			"/>
			<polygon points="461.3,121.9 475.4,121.9 475.4,126.1 465.9,126.1 465.9,129.9 474.8,129.9 474.8,134.1 465.9,134.1 465.9,138.3 
				475.9,138.3 475.9,142.5 461.3,142.5 			"/>
			<path d="M485.7,121.9h3.8l9,20.7h-5.1l-1.8-4.4h-8l-1.7,4.4h-5L485.7,121.9z M487.5,127.9l-2.5,6.4h5L487.5,127.9z"/>
			<path d="M500.6,121.9h8c4.2,0,7.8,1.5,7.8,6.3c0,2.9-1.6,5.1-4.5,5.7l5.3,8.7h-5.5l-4.3-8.3h-2.3v8.3h-4.6V121.9z M505.1,130.4
				h2.7c1.7,0,3.8-0.1,3.8-2.3c0-2.1-1.9-2.4-3.5-2.4h-3V130.4z"/>
			<polygon points="519.5,121.9 525.7,121.9 534.4,136.2 534.5,136.2 534.5,121.9 539.1,121.9 539.1,142.5 533.1,142.5 524.1,127.8 
				524,127.8 524,142.5 519.5,142.5 			"/>
			<rect x="543.2" y="121.9" width="4.5" height="20.7"/>
			<polygon points="551.9,121.9 558.1,121.9 566.9,136.2 566.9,136.2 566.9,121.9 571.5,121.9 571.5,142.5 565.5,142.5 556.5,127.8 
				556.5,127.8 556.5,142.5 551.9,142.5 			"/>
			<path d="M594.4,141.1c-2.7,1.4-5.6,2-8.7,2c-6.5,0-11.2-4.2-11.2-10.9c0-6.6,4.7-10.9,11.2-10.9c3.3,0,6.2,0.7,8.2,2.7l-3.2,3.5
				c-1.2-1.3-2.7-2-5-2c-3.9,0-6.4,2.8-6.4,6.6c0,3.9,2.5,6.7,6.4,6.7c2,0,3.4-0.6,4.3-1v-3.4h-3.7v-4.2h8.1V141.1z"/>
			<polygon points="623.1,121.9 629.3,121.9 638.1,136.2 638.2,136.2 638.2,121.9 642.7,121.9 642.7,142.5 636.8,142.5 627.8,127.8 
				627.7,127.8 627.7,142.5 623.1,142.5 			"/>
			<polygon points="646.9,121.9 653.1,121.9 661.9,136.2 662,136.2 662,121.9 666.5,121.9 666.5,142.5 660.6,142.5 651.6,127.8 
				651.5,127.8 651.5,142.5 646.9,142.5 			"/>
			<path d="M680.8,121.3c6.5,0,11.2,4.2,11.2,10.9c0,6.6-4.7,10.9-11.2,10.9c-6.4,0-11.1-4.2-11.1-10.9
				C669.6,125.6,674.3,121.3,680.8,121.3 M680.8,138.8c3.9,0,6.4-2.8,6.4-6.7c0-3.8-2.5-6.6-6.4-6.6c-3.9,0-6.4,2.8-6.4,6.6
				C674.3,136,676.9,138.8,680.8,138.8"/>
			<polygon points="692.4,121.9 697.6,121.9 702.7,135.4 702.7,135.4 707.9,121.9 712.8,121.9 704.3,142.5 700.6,142.5 			"/>
			<path d="M719.9,121.9h3.8l9,20.7h-5.1l-1.8-4.4h-8l-1.7,4.4h-5L719.9,121.9z M721.7,127.9l-2.5,6.4h5L721.7,127.9z"/>
			<polygon points="736.1,125.9 730.2,125.9 730.2,121.9 746.5,121.9 746.5,125.9 740.6,125.9 740.6,142.5 736.1,142.5 			"/>
			<rect x="748.8" y="121.9" width="4.6" height="20.7"/>
			<path d="M767.5,121.3c6.4,0,11.2,4.2,11.2,10.9c0,6.6-4.7,10.9-11.2,10.9c-6.4,0-11.1-4.2-11.1-10.9
				C756.4,125.6,761.1,121.3,767.5,121.3 M767.5,138.8c3.9,0,6.4-2.8,6.4-6.7c0-3.8-2.5-6.6-6.4-6.6c-3.9,0-6.4,2.8-6.4,6.6
				C761.1,136,763.6,138.8,767.5,138.8"/>
			<polygon points="781.8,121.9 787.9,121.9 796.7,136.2 796.8,136.2 796.8,121.9 801.3,121.9 801.3,142.5 795.4,142.5 786.4,127.8 
				786.3,127.8 786.3,142.5 781.8,142.5 			"/>
			<path class="st4" d="M620,138.8c-3.1,3.4-6.1,5.3-8.4,5.2c-1.7,0-2.9-1.4-2.9-3.3c0-1.1,0.5-2.9,1.4-6.6l1.8-7.1
				c0.2-1,0.5-1.9-0.3-1.9c-0.6,0-2,1.5-3,3l-1-0.9c3.5-4.6,6.2-6.5,8.3-6.5c1.4,0,2.3,1.3,2.3,3.1c0,0.8-0.2,2.1-0.6,3.6l-2.8,11.1
				c-0.4,1.6-0.4,2.2,0.4,2.2c0.9,0,2.5-1.2,3.8-2.8L620,138.8z M618.2,108.9c1.7,0,2.8,1.2,2.8,3.1c0,2.7-1.8,4.9-4,4.9
				c-1.6,0-2.8-1.3-2.8-3C614.2,111,616,108.8,618.2,108.9"/>
		</g>
		<g>
			<path d="M466.1,53.6c-6.4-4.9-8-10-8.6-11.8c-0.8,2.7-3,8-10.5,11.8l-1.3-2.5c8.7-4.9,9.4-12,9.4-17.5v-3.1h3.4v3.7
				c0,0.4,0,0.9,0,1.2c1.3,6.6,3.7,10.8,9.8,14.9L466.1,53.6z"/>
			<path d="M468.6,46.2c1.2-1.8,2.5-4.4,3.5-8.5h-2.8v-2.6h2.9v-4.6h3v4.6h0.4l0.8-1.5c0.8,0.6,1.4,1.3,1.9,2.2v2h-3.2v1.8
				c1.3,0.7,2.2,1.3,3.6,2.2l-1.8,3.4c-0.7-1-0.7-1.2-1.8-2.7v11h-3v-8.6c-0.8,1.5-1.5,2.6-2.3,3.6L468.6,46.2z M475.8,48.2
				c3.5-3.2,5.6-6.5,7-10.5H479v-2.6h5.3l0-4.6h3.2l0,4.6h0.8l0.9-1.5c0.3,0.2,1,0.8,2,2.4v1.7h-3.8l0,10.8c0,4.1,0,5-6,5l-0.6-3.3
				c0.7,0,1.8,0,2.2,0c0.7,0,1.2-0.1,1.2-0.8v-1.6l0-5.7c-2.4,4.2-5.2,6.8-7,8.2L475.8,48.2z"/>
			<path d="M509,40.4l1-1.3c1,0.5,2.2,1.2,3.3,2.3v1.3h-0.8v7.7c0,2.8-0.8,3.3-6.3,3.3l-0.6-2.9c0.7,0,2,0.1,2.6,0.1
				c1,0,1.1-0.3,1.1-1.2v-0.6h-9.4v4.6h-3.3v-14c-0.4,0-2.1,0.1-2.5,0.1l-0.2-2.6c1.6,0,4.6,0,5.9,0c0.4-1,0.5-1.3,0.8-2.3h-6.9
				v-2.4h9.1v-1.7h3.4v1.7h5.5l1.1-1.4c1.3,0.7,2.1,1.3,3,2.2v1.6h-5.5c1.7,0.8,2.8,1.4,5.3,3l-2.2,2.9c-0.5-0.5-1-1-2-1.8
				c-6.8,0.4-8.2,0.5-14.5,0.8l3.1,0.9H509z M499.7,43.7h9.4v-1.1h-9.4V43.7z M499.7,46.9h9.4v-1.1h-9.4V46.9z M504.4,34.7
				c-0.8,1-1.1,1.4-1.9,2.2c2.8,0,3.7,0,6.6-0.1c-0.8-0.6-1.2-0.8-1.6-1.2l0.9-1H504.4z"/>
			<path d="M525.5,51.4c2.4-1.7,3.9-2.9,5.5-4.8c-1.1-3.2-1.5-7.6-1.7-9.5h-6.4v1.6c0,0.4,0,1.2,0,1.3h2.6l1.1-1.5
				c1.3,0.7,2,1.3,2.8,2.3v1.7h-0.8c-0.1,6.9-0.6,7.5-5.3,7.6l-0.4-3c0.2,0,1.2,0.1,1.5,0.1c1.2,0,1.2-0.3,1.3-4.6h-2.7
				c-0.4,5.4-1.5,8.3-2.8,10.9l-2.1-1.9c0.9-2.2,1.8-5.3,1.8-13v-4.8l3.5,0.9h6c0-0.6-0.1-3.4-0.1-4.1h3.2c0,1.2,0,2.4,0,4.1h2.6
				c-0.9-0.9-1.4-1.3-2.6-2.3l1.2-1.7c1.5,0.6,2,0.8,3.6,1.7l-1.5,2.4h1.2l1-1.5c1.2,0.7,1.9,1.3,2.7,2.3v1.8h-8
				c0.1,2,0.3,4.3,0.8,6.2c1.3-2.2,1.9-4.6,2.2-5.3l3.3,1.1c-0.5,1.5-1.7,4.6-4.2,7.8c0.1,0.2,1.4,3,2.2,3c0.3,0,0.5-0.3,0.6-1
				c0.1-0.8,0.1-1.7,0.2-3.3l3,1.2c-0.2,2.4-0.5,6.7-3.4,6.7c-1.4,0-3.5-1.4-4.9-4c-1.6,1.6-3.1,2.8-5.1,4.1L525.5,51.4z"/>
			<path d="M550,35.3c-0.4,0.9-0.7,1.5-0.9,1.9c1.2,0,2.4-0.1,3.6-0.2l0.8-1.2c1,0.5,1.4,0.9,2.2,1.7v1.2c-3.2,0.3-5,0.3-7.6,0.4
				c-0.5,0.9-0.9,1.5-1.1,1.7c0.4-0.2,1.1-0.6,2.1-0.6c1,0,1.9,0.3,2.6,1.3c1.8-0.7,2.1-0.9,4-1.6l1.2,2.2c-2,0.4-3.5,0.9-4.5,1.3
				c0.2,1.3,0.2,2.8,0.3,3.7h-2.3c0-0.6,0-2.3,0-2.8c-0.7,0.4-2.6,1.4-2.6,2.8c0,1.1,1.8,1.4,4.5,1.4c1.9,0,3.5-0.3,4.4-0.4
				l-0.2,2.3c-0.8,0.1-2.2,0.2-4.2,0.2c-2.1,0-6.7,0-6.7-3.3c0-1.7,1.1-3.4,4.1-4.9c-0.1-0.1-0.4-0.3-1-0.3c-2.1,0-3.4,1.9-4.8,3.8
				l-1.8-1.4c1.9-2.3,3.2-4.9,3.5-5.4c-0.9,0-1.1,0-2.8,0v-2c1.3,0.1,1.6,0.1,3.8,0.1c0.3-0.7,0.4-1,0.9-2.3L550,35.3z"/>
			<path d="M560.2,50.6c6.1-2,7.7-4.1,8.1-8.8h-6.2c-0.1,0-1.8,0-3,0.1v-3c0.7,0,2.2,0.2,3,0.2h14l1.2-1.5c1.3,0.7,2.1,1.3,3,2.3v2
				H572c-0.7,7.6-5,9.7-10.4,11.3L560.2,50.6z M574.1,32.4l1.1-1.5c1.3,0.7,2.1,1.3,3,2.3v1.9h-14c-0.7,0-2.2,0.1-3,0.1v-3
				c0.6,0,2.3,0.1,3,0.1H574.1z"/>
			<path d="M584.1,50.4c3.5-0.9,11.5-3.1,14.3-12.9h-7.5c-2.2,3.6-4.3,5.4-6,6.9l-2-2.2c3.8-3.7,5.3-6.3,7-11.3l3.6,0.6
				c-0.3,1-0.7,2.1-1.2,3.2h6.5l1.2-1.6c1.3,0.8,2.2,1.5,3.1,2.7v2h-1.2c-3.1,11.8-13,14.3-16.5,15.2L584.1,50.4z"/>
			<path d="M600.3,50.5c4.2-2,8.2-4.1,10.8-8.4c0.4-0.6,2.3-3.8,3-7.8l-1.3-1.1l0.8-2l4.8,0.9C616,43,612.6,48.4,601.8,53
				L600.3,50.5z"/>
			<path d="M625.4,50.8c0,0.7,0.1,0.9,0.1,1.2h-3.7c0.1-0.8,0.2-1.8,0.2-2.6V34.5c0-0.7-0.1-2-0.2-2.7l3.4,0.9h12l1.1-1.6
				c1.3,0.7,2.2,1.3,3.1,2.3v2h-0.8v13.9c0,0.7,0.1,2,0.1,2.6h-3.7c0-0.3,0-0.5,0.1-1.2H625.4z M625.3,48.1h11.9V35.5h-11.9V48.1z"
				/>
			<path d="M651.4,44.2c-2.5-2.1-3.9-2.9-6.7-4.2l1.2-2.3c3.2,1,4.4,1.5,7.4,3.1L651.4,44.2z M647.8,48.6c11-2.7,14.5-9.9,15.9-13
				l2.5,1.8c-5.2,11.7-14.5,14.1-19.9,15.6l-1.2-4.6l1.9-0.9L647.8,48.6z M654,37.5c-2.8-2.1-4.1-2.7-7.1-4l1.2-2.3
				c3.2,0.9,4.7,1.4,7.8,2.9L654,37.5z M659.9,36.2c-0.7-2.3-1-3-1.9-4.6l1.5-0.8c1.1,1.5,1.5,2.1,2.6,4.3L659.9,36.2z M663.5,35.2
				c-0.5-1.3-0.9-2.4-2.3-4.4l1.4-0.8c1.7,1.7,2.3,2.7,3,3.8L663.5,35.2z"/>
			<path d="M671.3,38.2l0.4,1.6c0.7,0,3.1,0.1,3.7,0.1h7.6c1.1,0,6.7-0.1,7.8-0.1v3.4c-1.3,0-6.8-0.2-7.8-0.2h-7.6
				c-1,0-5.4,0.1-6.3,0.2l-0.3-4.7L671.3,38.2z"/>
			<path d="M705.3,50.1c-2.9,0-4.5-0.1-6.1-0.9c-1-0.5-2.5-1.9-2.5-4.8c0-2.7,1.3-4.9,3.4-6.4c-2,0.1-5.7,0.4-7.7,0.5l0-2.2
				c5.4-0.2,6.1-0.2,12-0.5l0.8-1.2c1,0.6,1.5,1,2.2,1.8l0,1.2c-0.9,0-1,0-3.7,0.1c-1,0.4-4.7,2.1-4.7,6.3c0,2.2,1.1,3.7,4.7,3.7
				c0.6,0,1,0,2.1-0.1L705.3,50.1z M703.5,42.7c-0.4-1.3-0.6-1.9-1.3-3.1l1-0.5c0.8,1,1,1.3,1.8,2.8L703.5,42.7z M706,41.8
				c-0.3-0.8-0.7-1.6-1.7-3l1-0.6c0.7,0.7,1.3,1.2,2.2,2.6L706,41.8z"/>
			<path d="M722.4,39.4h4.1l1.1-1.6c1.2,0.7,2,1.2,2.9,2.2v1.5h-0.8v4.7c0.8,0.5,1.6,1,2.4,1.8v1.8h-9.7v3.7h-3.3v-3.7h-9.3v-2.5
				h9.3v-1.8H715v0.9h-3.2v-8l3.5,1h3.8V38h-0.7v0.5h-3.1v-3.9h-5v-2.3h5v-1.8h3.1v1.8h4.7v-1.8h3.2v1.8h1.7l1-1.4
				c1,0.6,1.9,1.2,2.7,2.2v1.5h-5.4v3.9h-3.2V38h-0.7V39.4z M719.1,41.5H715v1.8h4.1V41.5z M723.1,34.6h-4.7v1.2h4.7V34.6z
				 M722.4,43.4h4.1v-1.8h-4.1V43.4z M722.4,47.3h5.6l0.7-1h-2.2v-0.9h-4.1V47.3z"/>
			<path d="M741.2,42.9h1.2l0.9-1.5c1.1,0.7,1.5,1.2,2.4,2.2v1.8h-4.5v0.2c0.9,0.4,2.8,1.3,3.7,1.9l-1.9,3c-0.4-0.6-0.9-1.5-1.8-2.6
				v5.7h-3v-4.1c-1.4,1.5-2.2,2.1-2.7,2.6l-1.3-2.1c2.1-2,3.1-3.5,3.6-4.5h-2.9v-2.5h3.4V41h-3.6v-2.5h1.9c-0.4-1.6-0.4-1.8-0.7-2.7
				l1.8-0.7H735v-2.5h3.1v-2.2h3.2v2.2h0.8l1-1.5c1.5,1,2.2,1.9,2.5,2.3v1.7H741l2.7,0.7c-0.5,0.9-0.8,1.6-1.5,2.6h0.9l0.9-1.4
				c0.8,0.7,1,1,1.8,2.1V41h-4.7V42.9z M738,35.1c0.5,0.6,0.5,0.8,1.5,2.4l-2.3,0.9h2.7c0.4-1.2,0.6-1.9,1-3.4H738z M743.2,51.5
				c3.4-4.2,3.5-8.1,3.5-16c0-1.5,0-2.6,0-3.9l2,0.6c2.1-0.4,3.8-0.9,6-1.8l2.1,2.9c-1.3,0.3-3.6,0.8-6.9,1.1v4.1h3.4l1.1-1.5
				c1.1,0.7,1.7,1.3,2.5,2.3v1.9h-2.3v12.5h-3.2V41.1h-1.7c-0.2,4-0.8,8.3-4.6,12.4L743.2,51.5z"/>
			<path d="M773.1,30.9c0,0.9-0.1,2.3-0.1,3c0.5,0,2.9,0,3.4,0l1.1-1.5c1.4,0.8,2,1.3,3,2.4v1.9c-5.4-0.1-6-0.1-7.6-0.1
				c0,1.1,0,3.3,0,4.4c0.7,1.1,1,2.2,1,3.9c0,5.3-3.5,7.7-9.1,8.5l-1.5-2.5c3.1-0.5,6.8-1.4,7.2-5.4c-0.5,0.7-1.3,1.5-3.3,1.5
				c-1.6,0-4.5-0.9-4.5-4.4c0-3.1,2.4-4.6,4.8-4.6c1,0,1.7,0.2,2,0.3v-1.8c-2,0-6.1,0-10.2,0.3v-3.1c5,0.2,8.9,0.3,10.2,0.3
				c0-0.5-0.1-1.9-0.2-3H773.1z M767.8,40.6c-1.1,0-1.8,0.9-1.8,1.9c0,1.3,1,1.9,1.8,1.9c1.8,0,1.8-1.8,1.8-2.3
				C769.5,41.1,768.8,40.6,767.8,40.6"/>
			<path d="M780.9,45c0.8-0.7,4.5-4,5.2-4.6c1-0.9,5.3-4.7,6.2-5.5c-2.8,0.2-5,0.3-9,0.2l0-2.8c1.4,0.1,3.2,0.1,4.8,0.1
				c2.4,0,4.3-0.1,5.7-0.3l1.3-1.7c1.4,0.8,2.2,1.4,3.3,2.5l0,1.6c-0.2,0-1,0.1-1.1,0.1c-1.8,1.4-2.9,2.3-6.2,5
				c0.8-0.2,1.8-0.5,3.1-0.5c4.6,0,7.2,3,7.2,6.7c0,3.2-1.8,7.3-8.3,7.3c-4.8,0-6.9-2.3-6.9-4.8c0-2,1.5-3.9,4.3-3.9
				c4.4,0,5.3,3.8,5.6,5.1c0.9-0.5,2-1.3,2-3.5c0-2.8-2.5-4.3-5.2-4.3c-4.4,0-7.3,3.2-9.9,6L780.9,45z M790.7,46.9
				c-1,0-1.6,0.6-1.6,1.4c0,0.2,0,2,4.2,1.9C792.9,47.9,791.8,46.9,790.7,46.9"/>
		</g>
		<g>
			<rect x="621.6" y="67.1" class="st5" width="4.4" height="6.2"/>
			<rect x="621.6" y="67.1" class="st2" width="4.4" height="6.2"/>
			<path class="st4" d="M806.8,80.1c0,4.4-1.4,7.4-4.2,9c-1.9,1.1-4.8,1.6-8.8,1.6h-1.6h-1.6c-3.1,0-5.1,0.4-6,1.2
				c-0.8,0.7-1.2,1.9-1.3,3.7v4h23.3v6.2h-31.4V94.8c0-4.4,1.3-7.3,3.9-8.9c1.8-1.1,4.6-1.6,8.4-1.6h1.8h1.7c2.4,0,4.2-0.2,5.2-0.7
				c1.4-0.6,2.2-1.9,2.2-3.7c0-1.8-0.6-3-1.8-3.7c-0.8-0.4-2.2-0.7-4.2-0.7h-17.2v-6.2h20.5c1.6,0,3,0.1,4,0.3
				c2.4,0.5,4.2,1.7,5.5,3.8C806.3,75.3,806.8,77.5,806.8,80.1"/>
			<path class="st4" d="M847.4,87.6c0,12.4-6,18.6-17.9,18.6c-6.2,0-10.7-1.6-13.6-4.7c-2.8-3-4.3-7.6-4.3-13.9
				c0-6.2,1.4-10.9,4.3-14c2.9-3.1,7.4-4.6,13.6-4.6c6.2,0,10.7,1.6,13.6,4.7C846,76.8,847.4,81.4,847.4,87.6 M839.5,87.6
				c0-3.9-0.6-6.9-1.9-8.9c-1.6-2.5-4.3-3.7-8-3.7c-3.7,0-6.4,1.2-8,3.7c-1.3,2-2,5-2,9c0,8.4,3.3,12.6,9.9,12.6
				C836.1,100.2,839.5,96,839.5,87.6"/>
			<rect x="853.8" y="69.4" class="st4" width="7.9" height="36.3"/>
			<g>
				<path class="st5" d="M376.5,94.6c-5.1,6.4-13.9,9.6-26.3,9.8v-6.5c6-0.3,11-1.4,14.8-3.4c3.8-2,6.4-4.8,7.7-8.3h-27.4v-6.3h36
					C381.2,85.7,379.6,90.6,376.5,94.6"/>
				<rect x="349.1" y="69.2" class="st5" width="29.5" height="6.6"/>
			</g>
			<rect x="384.7" y="83.2" class="st5" width="32" height="6.7"/>
			<g>
				<rect x="416.3" y="96" class="st5" width="36.9" height="6.9"/>
				<rect x="421.3" y="70.7" class="st5" width="28.3" height="6.8"/>
			</g>
			<path class="st2" d="M568.3,68.1c-1.6,5.9-5.3,10.8-11,14.5v22.6h-7.4V86.5c-4.8,1.9-10.4,3.4-17,4.4v-6.7c15-2.6,24.3-8,27.7-16
				H568.3z"/>
			<path class="st2" d="M594.4,68.9c-1.1,9.8-4.3,17.8-9.8,23.8c-5.3,5.8-12.5,9.6-21.5,11.5v-6.9c14-3.9,21.8-13.3,23.6-28.4H594.4
				z"/>
			<rect x="633.9" y="83.2" class="st2" width="32" height="6.7"/>
			<path class="st2" d="M706.2,74.8c-0.7,10.4-4.1,18-10.3,22.7c-5.5,4.3-13.6,6.5-24.1,6.6v-6.9c8.8-0.2,15.3-2,19.4-5.2
				c4.3-3.4,6.8-9.2,7.6-17.2H706.2z"/>
			<polygon class="st2" points="731.4,105 709.8,105 709.8,99.8 725.6,99.8 725.6,96 710.2,96 710.2,90.9 725.6,90.9 725.6,87.6 
				709.8,87.6 709.8,82.6 731.4,82.6 			"/>
			<path class="st2" d="M770.4,75.2c-0.7,9.9-3.9,17.2-9.6,21.8c-5.4,4.4-13.4,6.7-23.9,6.9v-6.9c8.3-0.6,14.3-2.3,18.2-5.1
				c4.5-3.4,7.2-8.9,7.9-16.7H770.4z"/>
			<polygon class="st5" points="526.6,66.9 526.6,68.5 526.6,69.4 526.6,73.1 530.5,73.1 531,73.1 531,66.9 			"/>
			<path class="st5" d="M524.4,75.3v-2.1v-3.7h-21.9c-1.1,5.5-3.9,9.6-8.2,12.4v7.1c3.1-1,5.8-2.7,8.2-5.1c2.4-2.3,4.2-4.9,5.4-7.9
				H523c-1.4,13.3-9.1,20.7-23,22.1v6.4c12-0.7,20.5-5.1,25.5-13.1c2.6-4.2,4.3-9.6,4.8-16.1h-3.8H524.4z"/>
			<rect x="532.6" y="66.9" class="st5" width="4.4" height="6.2"/>
			<rect x="532.6" y="66.9" class="st5" width="4.4" height="6.2"/>
			<polygon class="st2" points="615.6,67.1 615.6,68.7 615.6,69.6 615.6,73.3 619.5,73.3 620,73.3 620,67.1 			"/>
			<rect x="621.6" y="67.1" class="st2" width="4.4" height="6.2"/>
			<rect x="621.6" y="67.1" class="st2" width="4.4" height="6.2"/>
			<rect x="621.6" y="67.1" class="st5" width="4.4" height="6.2"/>
			<rect x="621.6" y="67.1" class="st2" width="4.4" height="6.2"/>
			<path class="st2" d="M628,91.3c-1.4-2-3.1-5.2-5.2-9.5c-1.3-2.7-2.6-4.9-3.7-6.5h-3.3h-2.2v-2.1v-1.8c-1.3-0.3-2.9-0.4-4.7-0.4
				h-5.7l-5.3,13.5c-0.8,2-1.9,3.3-3.2,3.8v7c4.4-0.5,7.5-3,9.4-7.5l4.1-9.9h1.3c1.5,0,2.7,0.4,3.5,1.3c0.8,0.9,2.1,3.3,4.1,7.2
				c2.7,5.6,5.3,9.6,7.5,12.2c2.8,3.1,6,4.9,9.5,5.4v-7.2C632.1,96,630,94.2,628,91.3"/>
			<g>
				<path class="st5" d="M491.2,75.2c-0.7,9.9-3.9,17.2-9.6,21.8c-5.4,4.4-13.4,6.7-23.9,6.9v-6.9c8.3-0.6,14.3-2.3,18.2-5.1
					c4.5-3.4,7.2-8.9,7.9-16.7H491.2z"/>
				<polygon class="st5" points="457.2,69.3 457.2,69.4 457.2,76.4 472.5,78.3 472.5,71.3 				"/>
			</g>
			<polygon class="st2" points="670.9,68.7 670.9,68.8 670.9,75.2 686.2,77.1 686.2,70.7 			"/>
			<polygon class="st2" points="670.9,78.2 670.9,78.3 670.9,84.7 686.2,86.6 686.2,80.2 			"/>
			<polygon class="st2" points="736.3,69.3 736.3,69.4 736.3,76.4 751.6,78.3 751.6,71.3 			"/>
			<path class="st4" d="M884.8,73.7c-3.3,0-5.4,0.3-6.3,1c-0.9,0.7-1.3,2.3-1.3,4.9c0,2.6,0.4,4.2,1.3,4.8c0.9,0.6,3.2,1,6.8,1
				c3.8,0,6.2-0.3,7.2-0.9c1-0.6,1.4-2.1,1.4-4.6c0-2.8-0.5-4.5-1.5-5.2C891.3,74.1,888.8,73.7,884.8,73.7 M868.9,95.2h7.8
				c0,2.4,0.4,3.8,1.3,4.4c0.9,0.5,3.2,0.8,7,0.8c4.1,0,6.6-0.4,7.4-1.1c0.9-0.8,1.3-2.9,1.3-6.4v-5.5h-0.2
				c-1.3,2.5-4.6,3.7-9.8,3.7c-5.8,0-9.7-0.7-11.7-2.2c-2-1.4-3-4.3-3-8.5c0-4.9,1-8.2,3.1-10c2.1-1.7,6.1-2.6,12.2-2.6
				c7.8,0,12.7,1,14.5,3c1.8,2,2.8,7.2,2.8,15.6c0,9-0.9,14.6-2.7,16.6c-1.8,2-6.6,3-14.5,3c-6.1,0-10.2-0.7-12.5-2
				c-2.2-1.4-3.3-3.9-3.3-7.6L868.9,95.2z"/>
		</g>
	</g>
</g>
</svg>
