<svg id="_レイヤー_2" xmlns="http://www.w3.org/2000/svg" width="165" height="27" xmlns:xlink="http://www.w3.org/1999/xlink" viewBox="0 0 165 27"><defs><style>.cls-2{isolation:isolate}.cls-5{fill:none}</style><clipPath id="clippath"><path class="cls-5" d="M70 0H165V27H70z"/></clipPath><clipPath id="clippath-1"><path class="cls-5" d="M12 6H49V22H12z"/></clipPath></defs><g id="_レイヤー_1-2"><g id="BP"><g clip-path="url(#clippath)"><g id="name"><g id="_日経BP" class="cls-2"><g class="cls-2"><path d="M77.369 25.764h-2.502c-.137 0-.221-.016-.253-.048s-.048-.116-.048-.253l.055-9.967v-5.414l-.055-7.314c0-.155.018-.251.055-.287.036-.027.123-.041.26-.041l3.855.055h9.611l3.869-.055c.146 0 .232.022.26.068.027.036.041.123.041.26l-.055 6.48v6.221l.055 9.844c0 .155-.019.246-.055.273-.037.027-.119.041-.246.041h-2.488c-.155 0-.246-.019-.273-.055s-.041-.123-.041-.26v-1.367h-11.744v1.518c0 .146-.019.232-.055.26-.037.027-.119.041-.246.041Zm.301-20.494v6.385h11.744v-6.385h-11.744Zm0 15.9h11.744v-6.768h-11.744v6.768ZM107.885 9.809c.848 1.75 1.472 3.427 1.873 5.031.018.082.027.146.027.191 0 .128-.119.232-.355.314l-1.408.424c-.119.036-.205.055-.26.055-.109 0-.183-.091-.219-.273l-.301-1.217-1.736.178v7.697l.055 3.664c0 .146-.019.237-.055.273-.037.027-.119.041-.246.041h-2.146c-.146 0-.232-.019-.26-.055s-.041-.123-.041-.26l.055-3.664v-7.451l-2.543.164c-.483.036-.83.114-1.039.232-.183.091-.324.137-.424.137-.137 0-.237-.159-.301-.479-.146-.62-.278-1.403-.396-2.352.656.046 1.234.068 1.736.068.182 0 .396-.005.643-.014.501-.629 1.025-1.335 1.572-2.119-1.066-1.331-2.32-2.685-3.76-4.061-.109-.118-.164-.205-.164-.26 0-.046.063-.164.191-.355l.984-1.408c.109-.164.205-.246.287-.246.055 0 .137.055.246.164l.725.752c.619-1.048 1.125-2.01 1.518-2.885.273-.565.487-1.144.643-1.736 1.029.383 1.822.72 2.379 1.012.246.128.369.278.369.451 0 .109-.087.232-.26.369-.183.137-.355.36-.52.67-.775 1.358-1.6 2.644-2.475 3.855.865.976 1.303 1.472 1.312 1.49.438-.692 1.066-1.728 1.887-3.104.273-.511.551-1.157.834-1.941 1.075.501 1.859.902 2.352 1.203.228.128.342.269.342.424 0 .183-.105.323-.314.424-.21.128-.516.501-.916 1.121-1.322 2.087-2.734 4.11-4.238 6.07.674-.036 1.686-.109 3.035-.219-.237-.629-.461-1.171-.67-1.627-.046-.109-.068-.187-.068-.232 0-.082.113-.173.342-.273l1.121-.451c.137-.046.232-.068.287-.068.109 0 .209.091.301.273Zm-9.721 13.494c.619-1.923.993-3.705 1.121-5.346.036-.383.055-.692.055-.93 0-.191-.01-.405-.027-.643.665.082 1.381.214 2.146.396.318.073.479.183.479.328 0 .109-.046.241-.137.396-.046.073-.101.378-.164.916-.265 2.169-.593 3.905-.984 5.209-.128.41-.26.615-.396.615-.092 0-.256-.073-.492-.219-.511-.292-1.044-.533-1.6-.725Zm9.857-6.891c.109-.027.187-.041.232-.041.091 0 .173.096.246.287.547 1.759.889 3.317 1.025 4.676.009.073.014.123.014.15 0 .164-.123.282-.369.355l-1.34.369c-.174.036-.287.055-.342.055-.092 0-.146-.087-.164-.26-.191-1.731-.492-3.345-.902-4.84-.019-.073-.027-.132-.027-.178 0-.118.123-.205.369-.26l1.258-.314Zm10.979 2.721h-1.627v3.691h2.639l3.691-.055c.164 0 .26.019.287.055.027.027.041.101.041.219v1.996c0 .146-.019.232-.055.26-.037.027-.128.041-.273.041l-3.691-.055h-7.684l-3.746.055c-.155 0-.246-.019-.273-.055s-.041-.118-.041-.246v-1.996c0-.183.104-.273.314-.273l3.746.055h2.297v-3.691h-.875l-3.35.055c-.146 0-.237-.019-.273-.055-.027-.036-.041-.123-.041-.26v-1.873c0-.146.018-.237.055-.273.036-.027.123-.041.26-.041l3.35.068h.875v-.615c0-1.403-.055-2.374-.164-2.912.756.019 1.682.091 2.775.219.301.027.451.128.451.301 0 .118-.051.287-.15.506-.109.246-.164.825-.164 1.736v.766h1.627l3.363-.068c.154 0 .25.019.287.055.027.036.041.123.041.26v1.873c0 .146-.016.234-.048.267s-.126.048-.28.048l-3.363-.055Zm5.059-7.506c-.41.593-.734 1.28-.971 2.064-.128.446-.278.67-.451.67-.082 0-.297-.046-.643-.137-2.197-.675-4.093-1.559-5.688-2.652-1.295.894-2.898 1.704-4.812 2.434-.393.128-.625.191-.697.191-.174 0-.352-.196-.533-.588-.301-.61-.702-1.198-1.203-1.764 1.932-.528 3.637-1.226 5.113-2.092-1.386-1.422-2.529-3.263-3.432-5.523-.191.009-.479.019-.861.027-.21.009-.352.014-.424.014-.082 0-.142-.005-.178-.014l-.26-.055c-.027-.027-.041-.101-.041-.219v-1.887c0-.146.018-.232.055-.26.036-.027.118-.041.246-.041l3.5.055h7c.273 0 .487-.046.643-.137.146-.073.269-.109.369-.109.228 0 .619.251 1.176.752.61.547.916.921.916 1.121 0 .146-.114.306-.342.479-.191.146-.451.547-.779 1.203-.875 1.777-1.965 3.309-3.268 4.594 1.449.793 3.304 1.417 5.564 1.873Zm-4.895-7.424h-5.688c.701 1.586 1.636 2.921 2.803 4.006 1.285-1.14 2.246-2.475 2.885-4.006ZM127.641 2.33h7.752c2.789 0 4.78.538 5.975 1.613.966.866 1.449 2.128 1.449 3.787 0 1.331-.442 2.429-1.326 3.295-.757.747-1.755 1.226-2.994 1.436v.191c1.713.282 3.003.935 3.869 1.955.747.884 1.121 1.978 1.121 3.281 0 2.069-.752 3.646-2.256 4.73-1.34.957-3.154 1.436-5.441 1.436h-8.148V2.33Zm3.691 2.83v6.098h3.309c1.549 0 2.707-.323 3.473-.971.638-.538.957-1.267.957-2.188 0-1.066-.352-1.832-1.053-2.297-.647-.429-1.664-.643-3.049-.643h-3.637Zm0 8.928v7.137h4.033c1.513 0 2.639-.36 3.377-1.08.619-.61.93-1.454.93-2.529 0-1.185-.475-2.087-1.422-2.707-.839-.547-1.96-.82-3.363-.82h-3.555ZM147.492 2.33h7.67c5.168 0 7.752 2.073 7.752 6.221 0 2.16-.771 3.796-2.311 4.908-1.377.984-3.268 1.477-5.674 1.477h-3.664v9.119h-3.773V2.33Zm3.773 2.83v6.945h3.555c2.853 0 4.279-1.176 4.279-3.527 0-2.278-1.381-3.418-4.143-3.418h-3.691Z"/></g></g></g></g><g id="ttl"><rect id="bg_color_black" y="1" width="60" height="26" rx="2" ry="2" fill="#231815"/><g clip-path="url(#clippath-1)"><g id="p"><g id="_主_催" class="cls-2"><g class="cls-2"><path d="m16.992 15.727-2.211.031c-.084 0-.133-.011-.148-.031s-.023-.07-.023-.148v-1.312c0-.104.057-.156.172-.156l2.211.031h2.031v-2.75h-3.07l-2.164.031c-.084 0-.133-.011-.148-.031s-.023-.067-.023-.141v-1.336c0-.083.01-.133.031-.148.021-.016.067-.023.141-.023l2.164.031h8.047l2.141-.031c.083 0 .133.011.148.031s.023.067.023.141v1.336c0 .083-.011.133-.031.148-.021.016-.068.023-.141.023l-2.141-.031h-3.188v2.75h2.211l2.203-.031c.119 0 .18.052.18.156v1.312c0 .083-.01.134-.027.152-.019.019-.069.027-.152.027l-2.203-.031h-2.211v3.234h4.109l2-.031c.119 0 .18.052.18.156v1.352c0 .083-.011.133-.031.148-.021.016-.07.023-.148.023l-2-.031h-9.805l-2.016.031c-.084 0-.133-.011-.148-.031s-.023-.067-.023-.141v-1.352c0-.104.057-.156.172-.156l2.016.031h3.906v-3.234h-2.031Zm1.797-9.312c1.391.558 2.536 1.128 3.438 1.711.072.047.109.091.109.133 0 .036-.031.094-.094.172l-.945 1.094c-.084.083-.146.125-.188.125-.037 0-.086-.021-.148-.062-1.042-.781-2.162-1.406-3.359-1.875-.084-.031-.125-.067-.125-.109 0-.026.036-.086.109-.18l.883-.906c.083-.083.146-.125.188-.125.025 0 .07.008.133.023ZM35.898 6.547c.656.177 1.158.331 1.508.461.161.062.242.144.242.242 0 .089-.061.185-.18.289-.078.062-.18.276-.305.641-.24.651-.511 1.317-.812 2v8.461l.031 2.43c0 .12-.055.18-.164.18h-1.328c-.084 0-.131-.011-.141-.031-.011-.021-.016-.07-.016-.148l.016-2.43v-3.695c0-.864.005-1.531.016-2-.323.464-.633.878-.93 1.242-.115.161-.211.242-.289.242-.062 0-.117-.086-.164-.258-.141-.594-.305-1.052-.492-1.375 1.197-1.442 2.119-3.159 2.766-5.148.114-.37.195-.737.242-1.102Zm.492 8.141c.927-.844 1.705-1.805 2.336-2.883.203-.297.372-.69.508-1.18.594.146 1.049.284 1.367.414.172.062.258.138.258.227 0 .099-.061.183-.18.25-.094.058-.297.347-.609.867h2.32c.088-.161.221-.445.398-.852.109-.271.189-.552.242-.844.677.13 1.146.237 1.406.32.172.047.258.109.258.188 0 .083-.055.169-.164.258-.104.089-.19.216-.258.383-.084.219-.167.401-.25.547h1.266l1.977-.031c.109 0 .164.058.164.172v1.016c0 .114-.055.172-.164.172l-1.977-.031h-1.414v1.008h.914l1.938-.016c.114 0 .172.052.172.156v.922c0 .083-.01.136-.027.156-.019.021-.066.031-.145.031l-1.938-.031h-.914v1.031h.914l1.938-.031c.083 0 .133.011.148.031s.023.067.023.141v.898c0 .089-.01.144-.027.164-.019.021-.066.031-.145.031l-1.938-.031h-.914v1.062h1.57l2.031-.031c.083 0 .135.013.156.039.016.021.023.07.023.148v.992c0 .094-.014.151-.039.172-.016.016-.062.023-.141.023l-2.031-.031h-5.648v.562c0 .083-.011.133-.031.148-.021.016-.068.023-.141.023h-1.188c-.084 0-.133-.011-.148-.031s-.023-.067-.023-.141l.031-1.617v-4.531l-.625.688c-.156.172-.269.258-.336.258-.068 0-.164-.117-.289-.352-.151-.286-.37-.565-.656-.836Zm9.07-7.328c.552.016 1.086.05 1.602.102.15.016.227.067.227.156 0 .042-.011.083-.031.125-.031.062-.05.102-.055.117-.053.125-.078.349-.078.672v.703l.039 1.117c0 .089-.014.141-.039.156-.021.016-.073.023-.156.023l-2.18-.031h-4.531l-2.172.031c-.084 0-.133-.011-.148-.031s-.023-.07-.023-.148l.023-1.117v-.688c0-.354-.021-.739-.062-1.156.489.016 1.018.05 1.586.102.13.016.195.067.195.156 0 .083-.029.18-.086.289-.053.104-.078.312-.078.625v.688h2.156v-1.023c0-.714-.026-1.216-.078-1.508.364.011.893.039 1.586.086.15.016.227.062.227.141 0 .042-.034.138-.102.289-.053.141-.078.472-.078.992v1.023h2.352v-.703c0-.433-.031-.828-.094-1.188Zm-5.664 7.328h2.578v-1.008h-2.578v1.008Zm0 2.25h2.578v-1.031h-2.578v1.031Zm0 2.266h2.578v-1.062h-2.578v1.062Z" fill="#fff"/></g></g></g></g></g></g></g></svg>