<svg id="_レイヤー_2" xmlns="http://www.w3.org/2000/svg" width="733" height="27" viewBox="0 0 733 27"><defs><style>.cls-1{fill:#fff}.cls-2{isolation:isolate}.cls-4{fill:#231815}</style></defs><g id="_レイヤー_1-2"><g id="ttl"><rect id="bg_color_black" class="cls-4" y="1" width="60" height="26" rx="2" ry="2"/><g id="p"><g id="_会_期" class="cls-2"><g class="cls-2"><path class="cls-1" d="M27.633 11.938c-.271.344-.5.742-.688 1.195-.104.266-.195.398-.273.398-.058 0-.18-.042-.367-.125-1.162-.516-2.18-1.081-3.055-1.695v1.188c0 .083-.011.133-.031.148-.021.016-.068.023-.141.023l-1.812-.031h-2.461l-1.812.031c-.083 0-.133-.011-.148-.031s-.023-.067-.023-.141v-1.219c-.875.641-1.841 1.216-2.898 1.727-.193.099-.32.148-.383.148-.073 0-.169-.133-.289-.398-.203-.433-.443-.786-.719-1.062 2.692-1.062 4.739-2.612 6.141-4.648.245-.354.432-.7.562-1.039.651.083 1.227.195 1.727.336.192.047.289.12.289.219 0 .12-.052.206-.156.258-.068.031-.144.078-.227.141 1.692 2.067 3.948 3.594 6.766 4.578Zm-11.836 4.078-2.117.031c-.089 0-.144-.011-.164-.031-.016-.021-.023-.067-.023-.141v-1.203c0-.083.01-.133.031-.148.021-.016.073-.023.156-.023l2.117.031h8.523l2.117-.031c.088 0 .143.011.164.031.016.021.023.067.023.141v1.203c0 .078-.009.126-.027.145-.019.019-.072.027-.16.027l-2.117-.031h-4.938c-.396.974-.873 1.977-1.43 3.008 1.667-.094 3.31-.227 4.93-.398-.49-.599-.878-1.052-1.164-1.359-.047-.052-.07-.097-.07-.133 0-.052.055-.104.164-.156l1.023-.531c.073-.042.13-.062.172-.062.047 0 .102.031.164.094 1.01 1.058 2.002 2.297 2.977 3.719.036.052.055.097.055.133 0 .052-.044.106-.133.164l-1.109.727c-.094.062-.156.094-.188.094-.042 0-.086-.036-.133-.109-.214-.359-.479-.776-.797-1.25-2.068.261-4.948.531-8.641.812-.245.016-.438.065-.578.148-.078.062-.169.094-.273.094-.115 0-.188-.075-.219-.227-.099-.349-.211-.898-.336-1.648.245.021.502.031.773.031.26 0 .583-.011.969-.031l.516-.016c.567-1.078 1.036-2.112 1.406-3.102h-1.664Zm1.25-4.492c.188.021.773.031 1.758.031h2.461c.917 0 1.492-.011 1.727-.031-1.151-.833-2.159-1.81-3.023-2.93-.844 1.12-1.818 2.097-2.922 2.93ZM36.398 19.172c-.526.692-1.144 1.315-1.852 1.867-.172.12-.289.18-.352.18-.078 0-.198-.097-.359-.289-.271-.328-.547-.591-.828-.789.927-.573 1.62-1.164 2.078-1.773.172-.234.299-.442.383-.625.536.214.948.401 1.234.562.151.073.227.153.227.242s-.06.161-.18.219c-.058.036-.175.172-.352.406Zm-.961-1.555-2 .031c-.083 0-.133-.011-.148-.031s-.023-.067-.023-.141v-1.094c0-.083.01-.133.031-.148.021-.016.067-.023.141-.023l1.281.031v-6.195c-.287.005-.552.013-.797.023-.162.005-.248.008-.258.008-.094 0-.151-.011-.172-.031-.016-.016-.023-.058-.023-.125v-1.109c0-.083.013-.133.039-.148.021-.016.073-.023.156-.023l1.055.031v-.273c0-.761-.031-1.315-.094-1.664.594.021 1.099.052 1.516.094.151.021.227.07.227.148 0 .052-.031.153-.094.305-.052.125-.078.492-.078 1.102v.289h2.203v-.305c0-.75-.031-1.305-.094-1.664.87.058 1.372.094 1.508.109.151.021.227.07.227.148 0 .042-.026.144-.078.305-.068.172-.102.544-.102 1.117v.289c.219-.005.44-.013.664-.023.141-.005.219-.008.234-.008.104 0 .156.058.156.172v1.109c0 .104-.052.156-.156.156l-.898-.016v6.18c.229-.005.456-.013.68-.023.141-.005.219-.008.234-.008.104 0 .156.058.156.172v1.094c0 .114-.052.172-.156.172l-1.953-.031h-3.383Zm.758-6.336h2.203v-1.234h-2.203v1.234Zm0 2.461h2.203v-1.195h-2.203v1.195Zm0 2.5h2.203v-1.234h-2.203v1.234Zm2.688 1.617c.479.614.932 1.078 1.359 1.391-.354.245-.648.505-.883.781-.13.161-.222.242-.273.242-.052 0-.141-.065-.266-.195-.505-.536-.891-1.031-1.156-1.484-.037-.058-.055-.104-.055-.141 0-.047.039-.097.117-.148l.836-.461c.094-.067.156-.102.188-.102.042 0 .086.039.133.117Zm4.812 1.594c.495.031.953.047 1.375.047.328 0 .492-.185.492-.555v-2.883h-2.57c-.109 1.136-.305 2.106-.586 2.914-.224.636-.537 1.269-.938 1.898-.125.203-.222.305-.289.305-.052 0-.159-.081-.32-.242-.344-.339-.675-.589-.992-.75.724-.933 1.195-1.95 1.414-3.055.198-.995.297-2.513.297-4.555v-2.641l-.031-2.648c0-.089.01-.144.031-.164.021-.016.07-.023.148-.023l1.648.031h1.961l1.648-.031c.088 0 .141.013.156.039.016.021.023.07.023.148l-.031 2.648v7.211l.047 2.211c0 .609-.154 1.047-.461 1.312-.344.276-1 .414-1.969.414-.271 0-.43-.023-.477-.07-.037-.042-.086-.183-.148-.422-.083-.438-.227-.817-.43-1.141Zm-.609-4.812h2.477v-2.336h-2.43v.289c0 .755-.016 1.438-.047 2.047Zm2.477-6.039h-2.43v2.281h2.43v-2.281Z"/></g></g></g><g id="p-2"><g id="_会_期-2" class="cls-2"><g class="cls-2"><path class="cls-4" d="M69.49 8.236c.255-2.015 1.053-3.541 2.393-4.58 1.13-.884 2.529-1.326 4.197-1.326 2.087 0 3.7.565 4.84 1.695 1.03 1.012 1.545 2.365 1.545 4.061 0 1.276-.355 2.475-1.066 3.596-.638 1.003-1.723 2.215-3.254 3.637-2.698 2.415-4.435 4.394-5.209 5.934h9.611v2.803h-13.248v-2.488c1.212-2.534 3.249-5.177 6.111-7.93 1.458-1.403 2.411-2.507 2.857-3.309.374-.665.561-1.422.561-2.27 0-.993-.287-1.755-.861-2.283-.492-.456-1.14-.684-1.941-.684-1.851 0-2.862 1.29-3.035 3.869l-3.5-.725ZM92.09 2.33c2.37 0 4.102.962 5.195 2.885 1.012 1.796 1.518 4.493 1.518 8.094 0 4.12-.661 7.082-1.982 8.887-1.103 1.504-2.703 2.256-4.799 2.256-2.397 0-4.134-.979-5.209-2.939-.984-1.805-1.477-4.521-1.477-8.148 0-4.102.665-7.046 1.996-8.832 1.094-1.468 2.68-2.201 4.758-2.201Zm0 2.762c-1.203 0-2.033.67-2.488 2.01-.438 1.258-.656 3.331-.656 6.221 0 3.309.273 5.573.82 6.795.456 1.039 1.208 1.559 2.256 1.559 1.23 0 2.078-.697 2.543-2.092.419-1.267.629-3.354.629-6.262 0-3.29-.273-5.528-.82-6.713-.456-1.012-1.217-1.518-2.283-1.518ZM101.592 8.236c.255-2.015 1.053-3.541 2.393-4.58 1.13-.884 2.529-1.326 4.197-1.326 2.087 0 3.7.565 4.84 1.695 1.03 1.012 1.545 2.365 1.545 4.061 0 1.276-.355 2.475-1.066 3.596-.638 1.003-1.723 2.215-3.254 3.637-2.698 2.415-4.435 4.394-5.209 5.934h9.611v2.803h-13.248v-2.488c1.212-2.534 3.249-5.177 6.111-7.93 1.458-1.403 2.411-2.507 2.857-3.309.374-.665.561-1.422.561-2.27 0-.993-.287-1.755-.861-2.283-.492-.456-1.14-.684-1.941-.684-1.851 0-2.862 1.29-3.035 3.869l-3.5-.725ZM117.52 6.938c.428-1.586 1.276-2.78 2.543-3.582 1.084-.684 2.393-1.025 3.924-1.025 2.06 0 3.687.574 4.881 1.723 1.021.976 1.531 2.192 1.531 3.65 0 1.358-.406 2.475-1.217 3.35-.72.766-1.677 1.253-2.871 1.463v.191c1.54.328 2.702 1.012 3.486 2.051.684.902 1.025 2.015 1.025 3.336 0 2.023-.711 3.628-2.133 4.812-1.23 1.03-2.798 1.545-4.703 1.545-3.619 0-5.884-1.577-6.795-4.73l3.432-1.012c.255 1.14.679 1.941 1.271 2.406.51.41 1.198.615 2.064.615 1.084 0 1.918-.36 2.502-1.08.52-.638.779-1.481.779-2.529 0-2.579-1.381-3.869-4.143-3.869h-1.627v-2.857h1.477c2.616 0 3.924-1.121 3.924-3.363 0-1.03-.301-1.805-.902-2.324-.511-.446-1.189-.67-2.037-.67-.83 0-1.509.273-2.037.82-.492.511-.802 1.217-.93 2.119l-3.445-1.039ZM136.928 19.37l-3.15.049c-.14 0-.222-.016-.246-.049-.025-.032-.037-.106-.037-.222v-2.006c0-.164.094-.246.283-.246l3.15.05h.603v-3.531l-.049-2.265c0-.131.016-.209.049-.233.033-.024.115-.037.246-.037l3.458.049h3.224v-3.358h-5.168c-.845 1.287-1.829 2.489-2.953 3.604-.238.271-.414.406-.529.406-.09 0-.259-.16-.505-.479-.418-.574-.886-1.029-1.402-1.366 2.018-1.747 3.572-3.777 4.663-6.091.32-.664.538-1.279.652-1.846 1.066.214 1.875.398 2.424.554.304.106.456.251.456.431 0 .123-.103.283-.308.48-.23.196-.443.5-.64.91l-.504 1.083h10.41l3.458-.05c.131 0 .209.017.233.05.025.032.037.106.037.222v1.87c0 .131-.017.209-.049.233s-.106.037-.221.037l-3.458-.049h-3.876v3.358h2.695l3.445-.049c.172 0 .258.091.258.271v1.896c0 .18-.086.271-.258.271l-3.445-.05h-2.695v3.68h5.34l3.15-.05c.181 0 .271.082.271.246v2.006c0 .123-.015.199-.043.228-.029.029-.105.043-.228.043l-3.15-.049h-5.34v1.23l.049 4.109c0 .132-.021.214-.062.246-.024.025-.098.037-.221.037h-2.24c-.147 0-.234-.021-.258-.062-.024-.024-.037-.099-.037-.222l.049-4.109v-1.23h-7.53Zm3.273-2.424h4.257v-3.68h-4.257v3.68ZM162.585 19.721c.374 1.358 1.121 2.037 2.242 2.037 1.312 0 2.283-.651 2.912-1.955.583-1.23.907-3.117.971-5.66-.902 1.695-2.356 2.543-4.361 2.543-1.777 0-3.199-.702-4.266-2.105-.948-1.249-1.422-2.844-1.422-4.785 0-2.461.661-4.366 1.982-5.715 1.139-1.167 2.625-1.75 4.457-1.75 2.352 0 4.115.925 5.291 2.775 1.103 1.723 1.654 4.211 1.654 7.465 0 4.411-.725 7.583-2.174 9.516-1.185 1.577-2.89 2.365-5.113 2.365-2.88 0-4.753-1.148-5.619-3.445l3.445-1.285Zm5.961-8.408c-.027-4.202-1.13-6.303-3.309-6.303-2.015 0-3.021 1.567-3.021 4.703 0 1.431.301 2.529.902 3.295.52.656 1.198.984 2.037.984 1.477 0 2.606-.894 3.391-2.68ZM186.891 21.868c.886.082 1.842.123 2.867.123.591 0 .886-.296.886-.886v-4.405h-9.007c-.238 1.788-.681 3.318-1.329 4.59-.517 1.001-1.279 2.075-2.289 3.224-.263.287-.439.431-.529.431-.123 0-.32-.136-.591-.406-.484-.492-1.087-.886-1.809-1.182 1.165-1.091 2.018-2.1 2.559-3.026.607-1.042 1.025-2.313 1.255-3.814.229-1.436.344-3.453.344-6.054v-3.717l-.049-3.42c0-.148.017-.238.049-.271.033-.024.106-.036.222-.036l3.359.049h7.001l3.322-.049c.14 0 .222.021.246.062.025.032.037.114.037.246l-.049 3.42v9.905l.074 5.033c0 1.05-.267 1.833-.8 2.35-.344.312-.833.513-1.464.604-.541.082-1.448.123-2.719.123-.427 0-.677-.037-.75-.111-.074-.073-.135-.295-.185-.664-.115-.829-.332-1.534-.652-2.116Zm-4.996-7.617h8.749v-3.187h-8.65c-.033 1.436-.066 2.498-.099 3.187Zm8.749-8.687h-8.65v3.052h8.65v-3.052ZM198.355 8.236c.255-2.015 1.053-3.541 2.393-4.58 1.13-.884 2.529-1.326 4.197-1.326 2.087 0 3.7.565 4.84 1.695 1.03 1.012 1.545 2.365 1.545 4.061 0 1.276-.355 2.475-1.066 3.596-.638 1.003-1.723 2.215-3.254 3.637-2.698 2.415-4.435 4.394-5.209 5.934h9.611v2.803h-13.248v-2.488c1.212-2.534 3.249-5.177 6.111-7.93 1.458-1.403 2.411-2.507 2.857-3.309.374-.665.561-1.422.561-2.27 0-.993-.287-1.755-.861-2.283-.492-.456-1.14-.684-1.941-.684-1.851 0-2.862 1.29-3.035 3.869l-3.5-.725ZM227.326 2.686v2.488c-1.896 3.062-3.304 6.188-4.225 9.379-.812 2.816-1.335 5.983-1.572 9.502h-3.938c.31-3.765 1.089-7.296 2.338-10.596.966-2.534 2.301-5.173 4.006-7.916h-9.598v-2.857h12.988ZM234.422 24.587h-2.252c-.123 0-.199-.014-.228-.043-.029-.028-.043-.104-.043-.228l.049-8.97v-4.873l-.049-6.583c0-.14.016-.226.049-.258.033-.025.11-.037.233-.037l3.47.049h8.65l3.482-.049c.131 0 .209.021.234.062.024.032.037.11.037.233l-.049 5.833v5.599l.049 8.859c0 .139-.016.221-.049.246-.033.024-.107.036-.222.036h-2.239c-.14 0-.222-.017-.246-.049-.025-.033-.037-.11-.037-.233v-1.23h-10.57v1.365c0 .131-.017.209-.049.234-.033.024-.106.036-.221.036Zm.271-18.444v5.746h10.57v-5.746h-10.57Zm0 14.311h10.57v-6.091h-10.57v6.091Z"/></g></g></g><g id="p-3"><g id="_会_期-3" class="cls-2"><g class="cls-2"><path class="cls-4" d="m257.615,18.09c2.303-1.699,3.882-3.847,4.737-6.442h-2.021l-1.872.035c-.094,0-.149-.012-.167-.035s-.026-.076-.026-.158v-1.424c0-.1.012-.158.035-.176s.076-.026.158-.026l1.872.035h2.417c.193,0,.337-.023.431-.07l.123-.062c.035-.018.064-.026.088-.026.176,0,.428.179.756.536.387.387.58.659.58.817,0,.117-.062.237-.185.36-.135.135-.252.349-.352.642-.955,2.889-2.558,5.282-4.808,7.181-.205.17-.337.255-.396.255-.088,0-.208-.12-.36-.36-.281-.445-.618-.806-1.011-1.081Zm16.761-.272c-.398.352-.735.788-1.011,1.31-.141.252-.249.378-.325.378-.07,0-.214-.073-.431-.22-1.359-.926-2.561-2.08-3.604-3.463-.932-1.23-1.632-2.517-2.101-3.858.006.902.032,2.323.079,4.263.041,1.488.062,2.508.062,3.059,0,.803-.24,1.356-.721,1.661-.363.258-1.245.396-2.646.413-.287,0-.46-.026-.519-.079-.053-.047-.114-.199-.185-.457-.146-.604-.343-1.066-.589-1.389.416.041.858.062,1.327.062.152,0,.305-.003.457-.009.598-.018.896-.208.896-.571V7.306c0-.896-.041-1.582-.123-2.057.943.029,1.603.064,1.978.105.205.023.308.091.308.202,0,.076-.018.164-.053.264-.047.117-.07.185-.07.202-.076.234-.114.656-.114,1.266v.826c.281,1.277.75,2.525,1.406,3.744.955-.838,1.79-1.708,2.505-2.61.24-.293.442-.612.606-.958.639.381,1.148.729,1.529,1.046.17.141.255.261.255.36,0,.117-.085.22-.255.308-.223.111-.539.381-.949.809-.668.738-1.588,1.585-2.76,2.54,1.412,1.998,3.094,3.486,5.045,4.465Z"/></g></g></g></g><path class="cls-4" d="m266,2.238c6.486,0,11.762,5.276,11.762,11.762s-5.276,11.762-11.762,11.762-11.762-5.276-11.762-11.762,5.276-11.762,11.762-11.762m0-1.238c-7.18,0-13,5.82-13,13s5.82,13,13,13,13-5.82,13-13-5.82-13-13-13h0Z"/><g id="p-4"><g id="_会_期-4" class="cls-2"><g class="cls-2"><path class="cls-4" d="m404.709,11.068l-2.303.035c-.1,0-.161-.015-.185-.044-.018-.023-.026-.082-.026-.176v-1.459c0-.1.012-.161.035-.185.023-.018.082-.026.176-.026l2.303.035h4.166v-1.714c0-1.09-.044-1.869-.132-2.338.791.023,1.465.064,2.021.123.188.023.281.085.281.185,0,.064-.018.149-.053.255l-.07.211c-.047.176-.07.68-.07,1.512v1.767h4.456l2.312-.035c.094,0,.149.015.167.044.018.023.026.079.026.167v1.459c0,.105-.012.17-.035.193-.023.018-.076.026-.158.026l-2.312-.035h-3.814c1.641,2.783,3.97,5.033,6.987,6.75-.363.363-.671.803-.923,1.318-.141.287-.252.431-.334.431s-.208-.059-.378-.176c-2.684-1.869-4.714-4.146-6.091-6.829l.149,8.877c0,.082-.015.132-.044.149-.023.018-.082.026-.176.026h-1.652c-.105,0-.167-.012-.185-.035-.018-.018-.026-.064-.026-.141,0-.135.009-.639.026-1.512.064-2.584.103-4.948.114-7.093-1.254,2.561-3.144,4.755-5.669,6.583-.182.135-.313.202-.396.202-.07,0-.185-.132-.343-.396-.275-.498-.612-.92-1.011-1.266,1.43-.785,2.763-1.834,3.999-3.146,1.113-1.189,1.995-2.438,2.646-3.744h-3.48Z"/></g></g></g><path class="cls-4" d="m410,2.238c6.486,0,11.762,5.276,11.762,11.762s-5.276,11.762-11.762,11.762-11.762-5.276-11.762-11.762,5.276-11.762,11.762-11.762m0-1.238c-7.18,0-13,5.82-13,13s5.82,13,13,13,13-5.82,13-13-5.82-13-13-13h0Z"/><g id="p-5"><g id="_会_期-5" class="cls-2"><g class="cls-2"><path class="cls-4" d="M305.182 19.721c.374 1.358 1.121 2.037 2.242 2.037 1.312 0 2.283-.651 2.912-1.955.583-1.23.907-3.117.971-5.66-.902 1.695-2.356 2.543-4.361 2.543-1.777 0-3.199-.702-4.266-2.105-.948-1.249-1.422-2.844-1.422-4.785 0-2.461.661-4.366 1.982-5.715 1.139-1.167 2.625-1.75 4.457-1.75 2.352 0 4.115.925 5.291 2.775 1.103 1.723 1.654 4.211 1.654 7.465 0 4.411-.725 7.583-2.174 9.516-1.185 1.577-2.89 2.365-5.113 2.365-2.88 0-4.753-1.148-5.619-3.445l3.445-1.285Zm5.961-8.408c-.027-4.202-1.13-6.303-3.309-6.303-2.015 0-3.021 1.567-3.021 4.703 0 1.431.301 2.529.902 3.295.52.656 1.198.984 2.037.984 1.477 0 2.606-.894 3.391-2.68ZM329.487 21.868c.886.082 1.842.123 2.867.123.591 0 .886-.296.886-.886v-4.405h-9.007c-.238 1.788-.681 3.318-1.329 4.59-.517 1.001-1.279 2.075-2.289 3.224-.263.287-.439.431-.529.431-.123 0-.32-.136-.591-.406-.484-.492-1.087-.886-1.809-1.182 1.165-1.091 2.018-2.1 2.559-3.026.607-1.042 1.025-2.313 1.255-3.814.229-1.436.344-3.453.344-6.054v-3.717l-.049-3.42c0-.148.017-.238.049-.271.033-.024.106-.036.222-.036l3.359.049h7.001l3.322-.049c.14 0 .222.021.246.062.025.032.037.114.037.246l-.049 3.42v9.905l.074 5.033c0 1.05-.267 1.833-.8 2.35-.344.312-.833.513-1.464.604-.541.082-1.448.123-2.719.123-.427 0-.677-.037-.75-.111-.074-.073-.135-.295-.185-.664-.115-.829-.332-1.534-.652-2.116Zm-4.996-7.617h8.749v-3.187h-8.65c-.033 1.436-.066 2.498-.099 3.187Zm8.749-8.687h-8.65v3.052h8.65v-3.052ZM340.952 8.236c.255-2.015 1.053-3.541 2.393-4.58 1.13-.884 2.529-1.326 4.197-1.326 2.087 0 3.7.565 4.84 1.695 1.03 1.012 1.545 2.365 1.545 4.061 0 1.276-.355 2.475-1.066 3.596-.638 1.003-1.723 2.215-3.254 3.637-2.698 2.415-4.435 4.394-5.209 5.934h9.611v2.803h-13.248v-2.488c1.212-2.534 3.249-5.177 6.111-7.93 1.458-1.403 2.411-2.507 2.857-3.309.374-.665.561-1.422.561-2.27 0-.993-.287-1.755-.861-2.283-.492-.456-1.14-.684-1.941-.684-1.851 0-2.862 1.29-3.035 3.869l-3.5-.725ZM366.204 12.598c1.631.774 2.766 1.659 3.404 2.652.556.866.834 1.955.834 3.268 0 1.905-.711 3.404-2.133 4.498-1.23.957-2.816 1.436-4.758 1.436-2.27 0-4.029-.588-5.277-1.764-1.094-1.03-1.641-2.384-1.641-4.061 0-1.285.378-2.36 1.135-3.227.638-.729 1.641-1.431 3.008-2.105-1.376-.711-2.352-1.554-2.926-2.529-.474-.812-.711-1.786-.711-2.926 0-1.677.661-3.044 1.982-4.102 1.176-.938 2.643-1.408 4.402-1.408 2.023 0 3.641.569 4.854 1.709 1.057.984 1.586 2.215 1.586 3.691 0 2.215-1.253 3.837-3.76 4.867Zm-3.295 1.764c-1.085.602-1.855 1.23-2.311 1.887-.419.61-.629 1.331-.629 2.16 0 1.112.36 1.987 1.08 2.625.638.565 1.463.848 2.475.848 1.185 0 2.096-.328 2.734-.984.565-.574.848-1.331.848-2.27 0-.894-.278-1.636-.834-2.229-.501-.52-1.354-1.066-2.557-1.641l-.807-.396Zm1.23-2.775c.975-.511 1.654-1.085 2.037-1.723.319-.538.479-1.203.479-1.996 0-.957-.337-1.714-1.012-2.27-.565-.465-1.271-.697-2.119-.697-.984 0-1.759.292-2.324.875-.501.52-.752 1.198-.752 2.037 0 .793.241 1.449.725 1.969.438.483 1.167.966 2.188 1.449l.779.355ZM378.195 24.587h-2.252c-.123 0-.199-.014-.228-.043-.029-.028-.043-.104-.043-.228l.049-8.97v-4.873l-.049-6.583c0-.14.016-.226.049-.258.033-.025.11-.037.233-.037l3.47.049h8.65l3.482-.049c.131 0 .209.021.234.062.024.032.037.11.037.233l-.049 5.833v5.599l.049 8.859c0 .139-.016.221-.049.246-.033.024-.107.036-.222.036h-2.239c-.14 0-.222-.017-.246-.049-.025-.033-.037-.11-.037-.233v-1.23h-10.57v1.365c0 .131-.017.209-.049.234-.033.024-.106.036-.221.036Zm.271-18.444v5.746h10.57v-5.746h-10.57Zm0 14.311h10.57v-6.091h-10.57v6.091Z"/></g></g></g><path id="_パス_59" class="cls-4" d="m287,18.326l6-4.5-6-4.5v9Z"/><g id="ttl-2"><rect id="bg_color_black-2" class="cls-4" x="438" y="1" width="60" height="26" rx="2" ry="2"/><g id="p-6"><g id="_会_期-6" class="cls-2"><g class="cls-2"><path class="cls-1" d="M465.633 11.938c-.271.344-.5.742-.688 1.195-.104.266-.195.398-.273.398-.058 0-.18-.042-.367-.125-1.162-.516-2.18-1.081-3.055-1.695v1.188c0 .083-.011.133-.031.148-.021.016-.068.023-.141.023l-1.812-.031h-2.461l-1.812.031c-.083 0-.133-.011-.148-.031s-.023-.067-.023-.141v-1.219c-.875.641-1.841 1.216-2.898 1.727-.193.099-.32.148-.383.148-.073 0-.169-.133-.289-.398-.203-.433-.443-.786-.719-1.062 2.692-1.062 4.739-2.612 6.141-4.648.245-.354.432-.7.562-1.039.651.083 1.227.195 1.727.336.192.047.289.12.289.219 0 .12-.052.206-.156.258-.068.031-.144.078-.227.141 1.692 2.067 3.948 3.594 6.766 4.578Zm-11.836 4.078-2.117.031c-.089 0-.144-.011-.164-.031-.016-.021-.023-.067-.023-.141v-1.203c0-.083.01-.133.031-.148.021-.016.073-.023.156-.023l2.117.031h8.523l2.117-.031c.088 0 .143.011.164.031.016.021.023.067.023.141v1.203c0 .078-.009.126-.027.145-.019.019-.072.027-.16.027l-2.117-.031h-4.938c-.396.974-.873 1.977-1.43 3.008 1.667-.094 3.31-.227 4.93-.398-.49-.599-.878-1.052-1.164-1.359-.047-.052-.07-.097-.07-.133 0-.052.055-.104.164-.156l1.023-.531c.073-.042.13-.062.172-.062.047 0 .102.031.164.094 1.01 1.058 2.002 2.297 2.977 3.719.036.052.055.097.055.133 0 .052-.044.106-.133.164l-1.109.727c-.094.062-.156.094-.188.094-.042 0-.086-.036-.133-.109-.214-.359-.479-.776-.797-1.25-2.068.261-4.948.531-8.641.812-.245.016-.438.065-.578.148-.078.062-.169.094-.273.094-.115 0-.188-.075-.219-.227-.099-.349-.211-.898-.336-1.648.245.021.502.031.773.031.26 0 .583-.011.969-.031l.516-.016c.567-1.078 1.036-2.112 1.406-3.102h-1.664Zm1.25-4.492c.188.021.773.031 1.758.031h2.461c.917 0 1.492-.011 1.727-.031-1.151-.833-2.159-1.81-3.023-2.93-.844 1.12-1.818 2.097-2.922 2.93ZM476.039 14.797c-.011.183-.016.513-.016.992v.219c0 .151-.029.255-.086.312-.037.031-.148.102-.336.211-1.026.562-2.008 1.021-2.945 1.375-.266.094-.435.169-.508.227-.115.094-.211.141-.289.141-.089 0-.169-.07-.242-.211-.125-.302-.269-.776-.43-1.422.562-.104 1.091-.237 1.586-.398.042-.021.104-.044.188-.07.083-.026.143-.047.18-.062v-3.969h-.133l-1.469.039c-.104 0-.156-.06-.156-.18v-1.219c0-.114.052-.172.156-.172l1.469.031h.133v-1.375c0-1.016-.044-1.82-.133-2.414.536.011 1.083.042 1.641.094.172.016.258.073.258.172 0 .062-.034.169-.102.32-.062.167-.094.761-.094 1.781v1.422l1.266-.031c.083 0 .133.011.148.031s.023.067.023.141v1.219c0 .083-.011.136-.031.156-.021.016-.068.023-.141.023l-1.266-.039v3.312c.682-.328 1.125-.547 1.328-.656Zm1.758 5.43c1.87-1.005 3.18-2.308 3.93-3.906h-.859c-.979 1.516-2.222 2.7-3.727 3.555-.203.114-.339.172-.406.172-.078 0-.211-.102-.398-.305-.172-.198-.396-.383-.672-.555 1.5-.703 2.69-1.659 3.57-2.867h-1.008c-.604.75-1.308 1.378-2.109 1.883-.229.141-.365.211-.406.211-.062 0-.175-.097-.336-.289-.203-.245-.458-.469-.766-.672 1.266-.688 2.252-1.562 2.961-2.625.104-.151.216-.375.336-.672l-1.891.031c-.083 0-.133-.011-.148-.031-.016-.026-.023-.078-.023-.156v-1.047c0-.083.01-.133.031-.148.021-.016.067-.023.141-.023l2.18.031h5.359l2.172-.031c.083 0 .135.011.156.031.016.021.023.067.023.141v1.047c0 .083-.009.136-.027.156-.019.021-.069.031-.152.031l-2.172-.031h-4.805l.531.125c.151.052.227.122.227.211s-.044.159-.133.211c-.115.094-.198.19-.25.289h4.172l1.922-.031c.141 0 .211.05.211.148v.031c-.005.016-.008.026-.008.031l-.109 1.609c-.078 1.386-.242 2.409-.492 3.07-.177.458-.417.784-.719.977-.276.172-.641.258-1.094.258-.349 0-.62-.011-.812-.031-.193-.016-.31-.05-.352-.102-.037-.047-.086-.19-.148-.43-.104-.375-.242-.727-.414-1.055.396.067.88.102 1.453.102.198 0 .336-.031.414-.094.078-.067.148-.203.211-.406.177-.573.317-1.489.422-2.75h-.562c-.797 1.88-2.109 3.425-3.938 4.633-.203.12-.331.18-.383.18-.078 0-.211-.102-.398-.305-.229-.261-.464-.461-.703-.602Zm4.508-13.055 1.938-.031c.083 0 .135.011.156.031.016.021.023.07.023.148l-.031 1.352v1.938l.031 1.375c0 .083-.011.133-.031.148-.021.016-.07.023-.148.023l-1.938-.031h-3.008l-1.953.031c-.083 0-.133-.011-.148-.031s-.023-.067-.023-.141l.031-1.375v-1.938l-.031-1.352c0-.089.01-.141.031-.156.021-.016.067-.023.141-.023l1.953.031h3.008Zm.562 1.203h-4.195v.758h4.195v-.758Zm0 2.602v-.789h-4.195v.789h4.195Z"/></g></g></g><g id="p-7"><g id="_会_期-7" class="cls-2"><g class="cls-2"><path class="cls-4" d="m511.113 5.939-3.445.055c-.146 0-.232-.019-.26-.055s-.041-.118-.041-.246v-2.023c0-.146.018-.232.055-.26.036-.027.118-.041.246-.041l3.445.055h7.15c0-1.066-.078-2.037-.232-2.912 1.148.027 2.155.091 3.021.191.301.036.451.132.451.287 0 .146-.055.351-.164.615-.119.246-.178.853-.178 1.818h7.67l3.445-.055c.191 0 .287.101.287.301v2.023c0 .2-.096.301-.287.301l-3.445-.055h-7.67v1.709h4.348l3.883-.055c.164 0 .264.022.301.068.027.036.041.128.041.273l-.055 2.625v4.621l.055 2.625c0 .146-.019.234-.055.267-.037.032-.132.048-.287.048l-3.883-.055h-2.324c2.561 2.215 5.983 3.874 10.268 4.977-.501.593-.902 1.239-1.203 1.941-.201.483-.378.725-.533.725-.073 0-.287-.063-.643-.191-4.348-1.577-7.679-3.669-9.994-6.275.018 1.449.059 3.008.123 4.676.009.246.022.52.041.82.027.684.041 1.062.041 1.135 0 .146-.019.237-.055.273-.037.027-.123.041-.26.041h-2.516c-.155 0-.246-.022-.273-.068-.027-.027-.041-.109-.041-.246 0-.073.014-.446.041-1.121.091-1.987.146-3.787.164-5.4-2.361 2.688-5.451 4.744-9.27 6.166-.355.128-.579.191-.67.191-.173 0-.36-.224-.561-.67-.265-.593-.656-1.181-1.176-1.764 4.028-1.176 7.228-2.912 9.598-5.209h-1.818l-3.883.055c-.155 0-.246-.019-.273-.055s-.041-.123-.041-.26l.055-2.625v-4.621l-.055-2.625c0-.164.018-.265.055-.301.036-.027.123-.041.26-.041l3.883.055h3.814v-1.709h-7.15Zm2.023 5.852h5.127v-1.955h-5.127v1.955Zm0 4.115h5.127v-1.982h-5.127v1.982Zm13.686-6.07h-5.66v1.955h5.66v-1.955Zm0 6.07v-1.982h-5.66v1.982h5.66ZM535.285 22.66c2.005-1.185 3.609-2.529 4.812-4.033.401-.538.674-1.062.82-1.572 1.03.456 1.832.856 2.406 1.203.219.137.328.296.328.479 0 .191-.109.351-.328.479-.21.101-.465.351-.766.752-1.23 1.677-2.748 3.14-4.553 4.389-.365.246-.593.369-.684.369-.155 0-.351-.196-.588-.588-.41-.647-.894-1.14-1.449-1.477Zm4.43-16.352-3.568.027c-.155 0-.251-.019-.287-.055-.027-.027-.041-.101-.041-.219v-2.201c0-.146.018-.232.055-.26.045-.027.137-.041.273-.041l3.568.055h6.686v-.479c0-1.194-.064-2.051-.191-2.57.866 0 1.873.046 3.021.137.282.027.424.123.424.287 0 .082-.068.278-.205.588-.073.328-.109.856-.109 1.586v.451h7.055l3.555-.055c.146 0 .237.019.273.055.027.036.041.118.041.246v2.201c0 .183-.105.273-.314.273l-3.555-.027h-16.68Zm3.773 1.955h8.928l3.855-.055c.155 0 .246.019.273.055s.041.123.041.26l-.055 2.256v3.062l.055 2.256c0 .146-.016.234-.048.267-.032.032-.121.048-.267.048l-3.855-.055h-2.83v2.83l.082 3.527c0 .684-.073 1.203-.219 1.559-.128.328-.355.629-.684.902s-.789.456-1.381.547c-.556.082-1.436.123-2.639.123l-.369.014c-.255 0-.424-.06-.506-.178-.064-.091-.137-.314-.219-.67-.155-.784-.442-1.468-.861-2.051 1.03.118 1.887.178 2.57.178.501 0 .848-.091 1.039-.273.146-.155.219-.401.219-.738v-5.77h-3.131l-3.828.055c-.164 0-.265-.019-.301-.055-.027-.036-.041-.123-.041-.26l.055-2.256v-3.062l-.055-2.256c0-.155.022-.246.068-.273.036-.027.127-.041.273-.041l3.828.055Zm10.131 5.578v-3.035h-11.361v3.035h11.361Zm7.232 8.504c-.538.438-1.025 1.034-1.463 1.791-.265.429-.46.643-.588.643-.119 0-.333-.114-.643-.342-2.315-1.559-4.229-3.45-5.742-5.674-.055-.082-.082-.15-.082-.205 0-.063.096-.164.287-.301l1.613-.943c.155-.091.26-.137.314-.137.073 0 .155.073.246.219 1.531 2.06 3.55 3.71 6.057 4.949ZM567.031 26.27h-2.379c-.137 0-.221-.016-.253-.048-.032-.032-.048-.121-.048-.267l.055-10.746v-5.564l-.055-7.67c0-.155.018-.246.055-.273.036-.027.123-.041.26-.041l3.719.055h15.203l3.719-.055c.155 0 .246.019.273.055s.041.123.041.26l-.055 6.713v6.494l.055 10.746c0 .146-.019.237-.055.273-.037.027-.119.041-.246.041h-2.406c-.155 0-.246-.019-.273-.055s-.041-.123-.041-.26v-1.312h-17.254v1.34c0 .146-.019.237-.055.273-.037.027-.123.041-.26.041Zm.314-21.916v17.664h17.254V4.354h-17.254Zm14.506 7.164c.146 0 .237.019.273.055.027.036.041.118.041.246v1.846c0 .155-.023.246-.068.273-.027.027-.109.041-.246.041l-3.186-.055h-1.463v3.719h2.297l3.609-.055c.164 0 .264.019.301.055.027.036.041.118.041.246v1.941c0 .137-.019.221-.055.253-.037.032-.132.048-.287.048l-3.609-.055h-7.055l-3.609.055c-.164 0-.265-.019-.301-.055-.027-.036-.041-.118-.041-.246v-1.941c0-.146.022-.232.068-.26.036-.027.127-.041.273-.041l3.609.055h1.928v-3.719h-1.094l-3.24.055c-.155 0-.246-.019-.273-.055s-.041-.123-.041-.26v-1.846c0-.146.018-.232.055-.26.036-.027.123-.041.26-.041l3.24.055h1.094v-2.939h-1.627l-3.555.055c-.183 0-.273-.104-.273-.314v-1.873c0-.2.091-.301.273-.301l3.555.055h6.508l3.582-.055c.182 0 .273.101.273.301v1.873c0 .21-.091.314-.273.314l-3.582-.055h-2.051v2.939h1.463l3.186-.055Zm-.957 2.789c.501.583.961 1.258 1.381 2.023.045.091.068.155.068.191 0 .073-.101.159-.301.26l-1.203.643c-.128.063-.224.096-.287.096-.091 0-.183-.101-.273-.301-.355-.82-.784-1.509-1.285-2.064-.064-.073-.096-.132-.096-.178s.104-.128.314-.246l1.121-.588c.1-.046.178-.068.232-.068.082 0 .191.077.328.232ZM617.412 12.379c-.419.511-.771 1.08-1.053 1.709-.219.429-.378.643-.479.643-.109 0-.324-.104-.643-.314-.994-.62-1.937-1.39-2.83-2.311v1.818c0 .146-.019.237-.055.273-.037.027-.123.041-.26.041l-2.406-.068h-2.406l-2.406.068c-.146 0-.237-.019-.273-.055-.027-.036-.041-.123-.041-.26v-1.463c-.857.839-1.687 1.531-2.488 2.078-.319.21-.533.314-.643.314-.128 0-.278-.159-.451-.479-.265-.556-.597-1.007-.998-1.354.911-.593 1.759-1.235 2.543-1.928-.31-.31-.757-.692-1.34-1.148-.119-.073-.178-.137-.178-.191s.068-.159.205-.314l.725-.725c.137-.146.237-.219.301-.219.055 0 .141.046.26.137.474.319.938.684 1.395 1.094l.848-1.094c-.529-.456-.971-.82-1.326-1.094-.128-.082-.191-.155-.191-.219s.077-.169.232-.314l.643-.752c.127-.137.219-.205.273-.205.063 0 .159.046.287.137.355.237.706.501 1.053.793.346-.656.629-1.271.848-1.846h-2.324c-.939 1.44-1.996 2.661-3.172 3.664-.319.265-.524.396-.615.396-.109 0-.314-.178-.615-.533-.201-.228-.515-.497-.943-.807l-.957 2.297c.884 1.203 1.472 2.192 1.764 2.967.246.675.369 1.444.369 2.311 0 1.449-.287 2.502-.861 3.158-.52.583-1.317.916-2.393.998-.21.009-.351.014-.424.014-.219 0-.36-.063-.424-.191-.046-.091-.091-.323-.137-.697-.119-.766-.306-1.335-.561-1.709.137.009.287.014.451.014.72 0 1.212-.142 1.477-.424.237-.255.355-.697.355-1.326 0-1.522-.729-3.208-2.188-5.059 1.002-2.169 1.727-4.225 2.174-6.166h-2.516v15.818l.055 5.988c0 .155-.019.246-.055.273-.037.027-.123.041-.26.041h-2.188c-.183 0-.273-.104-.273-.314l.055-5.961V7.758l-.055-6.043c0-.21.091-.314.273-.314l2.105.055h3.445c.264 0 .451-.027.561-.082.146-.055.278-.082.396-.082.173 0 .538.301 1.094.902.392.474.588.829.588 1.066 0 .191-.082.351-.246.479-.164.155-.314.46-.451.916-.365 1.048-.693 1.946-.984 2.693 1.859-1.504 3.268-3.336 4.225-5.496.173-.483.287-.943.342-1.381.483.063 1.244.196 2.283.396.282.073.424.187.424.342 0 .109-.055.237-.164.383-.155.128-.314.374-.479.738l-.246.561h2.297c-.037-.073-.055-.146-.055-.219-.027-.082-.041-.15-.041-.205 0-.164.104-.273.314-.328l1.436-.424c.182-.063.282-.096.301-.096.055 0 .104.068.15.205.592 2.224 1.299 4.074 2.119 5.551.61-.884 1.098-1.755 1.463-2.611h-.684l-1.367.055c-.146 0-.232-.019-.26-.055s-.041-.118-.041-.246v-1.627c0-.155.018-.246.055-.273.036-.027.118-.041.246-.041l1.709.068h.957c.228 0 .396-.032.506-.096.137-.055.255-.082.355-.082.219 0 .538.232.957.697.465.492.697.839.697 1.039 0 .146-.082.306-.246.479-.164.164-.36.492-.588.984-.684 1.267-1.49 2.479-2.42 3.637 1.048 1.23 2.411 2.256 4.088 3.076Zm-19.373 11.143c1.477-1.003 2.661-2.073 3.555-3.213.301-.337.542-.747.725-1.23.966.319 1.713.615 2.242.889.209.101.314.224.314.369 0 .155-.082.273-.246.355-.201.101-.438.347-.711.738-.93 1.312-2.001 2.438-3.213 3.377-.301.246-.497.369-.588.369-.128 0-.355-.178-.684-.533-.429-.456-.894-.829-1.395-1.121Zm6.686-5.264-3.719.055c-.146 0-.237-.019-.273-.055-.027-.036-.041-.118-.041-.246v-1.832c0-.155.022-.251.068-.287.027-.027.109-.041.246-.041l3.719.055h7.451l3.691-.055c.164 0 .264.022.301.068.027.036.041.123.041.26v1.832c0 .137-.019.221-.055.253-.037.032-.132.048-.287.048l-3.691-.055h-2.652v1.955l.055 3.227c0 .911-.292 1.581-.875 2.01-.556.355-1.636.533-3.24.533-.474 0-.757-.046-.848-.137-.073-.073-.164-.314-.273-.725-.183-.738-.438-1.345-.766-1.818.893.073 1.736.109 2.529.109.501 0 .752-.26.752-.779v-4.375h-2.133Zm.52-6.494c.219.019.897.027 2.037.027h2.406l2.379-.055c-1.376-1.522-2.493-3.445-3.35-5.77-.82 2.196-1.978 4.129-3.473 5.797Zm11.771 11.006c-.401.31-.779.766-1.135 1.367-.237.392-.424.588-.561.588-.119 0-.347-.142-.684-.424-1.449-1.176-2.63-2.434-3.541-3.773-.064-.091-.096-.155-.096-.191 0-.046.104-.132.314-.26l1.23-.834c.109-.091.209-.137.301-.137.073 0 .159.063.26.191 1.002 1.239 2.306 2.397 3.91 3.473ZM620.492 4.832c1.176.128 2.967.191 5.373.191h9.994c.702 0 1.217-.096 1.545-.287.118-.073.26-.109.424-.109.127 0 .301.046.52.137.774.483 1.458 1.099 2.051 1.846.127.155.191.314.191.479 0 .237-.132.47-.396.697-.183.183-.396.547-.643 1.094-1.504 3.618-3.313 6.653-5.428 9.105-2.525 2.88-5.173 5.104-7.943 6.672-.255.164-.511.246-.766.246s-.488-.104-.697-.314c-.583-.556-1.449-1.066-2.598-1.531 2.16-1.094 3.969-2.22 5.428-3.377 1.267-1.003 2.506-2.21 3.719-3.623 2.105-2.397 3.687-5.059 4.744-7.984h-10.117c-1.121 0-2.662.046-4.621.137-.292.027-.47-.159-.533-.561-.064-.465-.146-1.403-.246-2.816ZM651.569 16.016c-.894 1.185-1.828 2.21-2.803 3.076-1.404 1.23-2.83 2.27-4.279 3.117-.191.109-.351.164-.479.164-.137 0-.287-.091-.451-.273-.483-.583-1.153-1.044-2.01-1.381 1.959-1.075 3.696-2.251 5.209-3.527 1.321-1.148 2.338-2.174 3.049-3.076h-3.213c-.456 0-1.08.014-1.873.041-.793.036-1.345.06-1.654.068h-.055c-.219 0-.342-.15-.369-.451-.073-.528-.137-1.299-.191-2.311 1.13.073 2.479.109 4.047.109h4.771l-.082-1.846c-.109-1.23-.242-2.146-.396-2.748 1.176.027 2.192.114 3.049.26.282.036.424.173.424.41 0 .091-.019.187-.055.287-.101.237-.15.565-.15.984v.643l.096 1.982h1.955l4.266-.082h.082c.255 0 .383.123.383.369.018.337.027.661.027.971 0 .319-.009.643-.027.971 0 .265-.137.396-.41.396h-.055l-4.184-.055h-1.846l.369 7.807v.273c0 1.112-.374 1.882-1.121 2.311-.857.556-1.887.834-3.09.834-.41 0-.679-.159-.807-.479-.301-.747-.898-1.454-1.791-2.119 1.458 0 2.579-.077 3.363-.232.374-.073.561-.296.561-.67l-.26-5.824ZM664.92 11.709c1.312.228 3.125.342 5.438.342h8.121c.796 0 1.821-.014 3.076-.041 1.6-.027 2.507-.046 2.72-.055h.123c.221 0 .332.132.332.396.024.429.037.87.037 1.326 0 .446-.013.884-.037 1.312 0 .282-.119.424-.357.424h-.098c-2.519-.036-4.393-.055-5.624-.055h-9.068l-3.704.342c-.32 0-.513-.196-.579-.588-.147-.738-.275-1.873-.381-3.404ZM688.557 8.469c1.422.146 3.14.219 5.154.219h9.598c.629 0 1.125-.104 1.49-.314.137-.109.255-.164.355-.164.118 0 .26.063.424.191.747.593 1.376 1.171 1.887 1.736.182.191.273.388.273.588s-.105.378-.314.533c-.347.292-.661.729-.943 1.312-1.495 3.181-3.199 5.756-5.113 7.725-1.687 1.741-3.792 3.295-6.316 4.662-.265.128-.451.191-.561.191-.183 0-.388-.109-.615-.328-.602-.538-1.468-1.025-2.598-1.463 2.953-1.367 5.441-3.067 7.465-5.1 1.959-1.969 3.391-4.161 4.293-6.576l-9.557.027c-1.559 0-2.958.036-4.197.109-.219 0-.355-.178-.41-.533-.092-.364-.196-1.304-.314-2.816Zm2.434-5.975c1.33.128 2.861.191 4.594.191h5.045c1.13 0 2.593-.046 4.389-.137.228 0 .342.146.342.438.027.364.041.729.041 1.094 0 .374-.014.738-.041 1.094 0 .374-.133.561-.396.561h-.109l-3.951-.055h-5.537c-1.531 0-2.812.036-3.842.109-.237 0-.369-.205-.396-.615-.092-.647-.137-1.54-.137-2.68ZM718.885 1.988c1.867.556 3.125 1.044 3.773 1.463.227.155.342.306.342.451 0 .155-.096.342-.287.561-.338.438-.717 1.212-1.135 2.324-2.16 5.888-3.77 10.085-4.826 12.592 4.191-.355 7.459-.711 9.803-1.066-.949-1.677-1.988-3.167-3.117-4.471l2.447-1.354c.1-.055.186-.082.26-.082.127 0 .264.082.41.246 2.223 2.598 4.109 5.651 5.66 9.16.072.128.109.251.109.369 0 .183-.123.342-.369.479-.602.401-1.309.784-2.119 1.148-.119.055-.232.082-.342.082-.174 0-.307-.132-.396-.396-.492-1.148-.82-1.896-.984-2.242-3.445.52-7.875 1.062-13.289 1.627-1.641.173-2.734.401-3.281.684-.129.055-.246.082-.355.082-.219 0-.369-.123-.451-.369-.211-.446-.539-1.649-.984-3.609.51.036 1.08.055 1.709.055.301 0 .869-.009 1.709-.027 1.85-4.676 3.48-9.297 4.895-13.863.482-1.567.756-2.849.82-3.842Z"/></g></g></g></g><path fill="none" d="M0 0H733V27H0z"/></g></svg>