<svg id="_レイヤー_2" xmlns="http://www.w3.org/2000/svg" width="268" height="30" viewBox="0 0 268 30"><defs><style>.cls-1{fill:#e50012}.cls-3{fill:#231815}.cls-4{fill:#0062b0}</style></defs><g id="_レイヤー_1-2"><g><g><g><path class="cls-3" d="M207.636 10.756c0 .15-.057.283-.17.395-.113.113-.251.17-.411.17h-2.487c-.011 0-.019.006-.024.016-.006.011-.003.022.008.032 1.227 1.056 2.685 1.906 4.376 2.552.117.043.194.129.226.258v.081c0 .097-.032.183-.097.258-.344.366-.678.77-1.002 1.211-.085.14-.207.235-.363.283-.156.049-.309.035-.46-.04-1.636-.797-3.128-1.9-4.473-3.311-.01-.01-.022-.013-.032-.008-.01.006-.016.014-.016.025v3.084c0 .151-.057.283-.17.396-.113.113-.251.169-.411.169h-1.357c-.162 0-.299-.056-.411-.169-.113-.113-.17-.245-.17-.396v-2.972c0-.021-.006-.035-.016-.04-.011-.005-.022-.002-.033.008-1.27 1.346-2.729 2.406-4.376 3.182-.151.075-.305.088-.46.04-.156-.049-.283-.138-.379-.267-.291-.409-.598-.791-.921-1.146-.076-.075-.113-.156-.113-.243 0-.032.006-.064.017-.097.021-.129.097-.215.226-.259 1.647-.656 3.073-1.523 4.279-2.6.01-.01.013-.021.008-.032-.006-.01-.014-.016-.024-.016h-2.342c-.161 0-.299-.057-.412-.17-.113-.113-.17-.245-.17-.395v-5.378c0-.162.057-.296.17-.403.113-.108.251-.162.412-.162h4.069c.043 0 .065-.027.065-.081v-.549c0-.042-.022-.064-.065-.064h-5.426c-.162 0-.299-.056-.412-.169-.113-.113-.169-.251-.169-.412v-1.081c0-.162.056-.299.169-.412.113-.113.25-.169.412-.169h5.426c.043 0 .065-.021.065-.064v-.614c0-.161.057-.299.17-.411.113-.113.25-.17.411-.17h1.357c.161 0 .299.056.411.17.113.113.17.25.17.411v.614c0 .043.022.064.065.064h5.587c.161 0 .299.056.411.169.113.113.17.251.17.412v1.081c0 .162-.057.299-.17.412-.113.113-.251.169-.411.169h-5.587c-.043 0-.065.022-.065.064v.549c0 .054.022.081.065.081h4.279c.161 0 .299.054.411.162.113.107.17.242.17.403v5.378Zm-9.738-4.183c-.043 0-.064.027-.064.081v.516c0 .043.022.065.064.065h2.229c.043 0 .065-.022.065-.065v-.516c0-.054-.022-.081-.065-.081h-2.229Zm0 2.293c-.043 0-.064.027-.064.081v.533c0 .043.022.065.064.065h2.229c.043 0 .065-.022.065-.065v-.533c0-.054-.022-.081-.065-.081h-2.229Zm7.267-2.212c0-.054-.022-.081-.064-.081h-2.325c-.043 0-.065.027-.065.081v.516c0 .043.022.065.065.065h2.325c.042 0 .064-.022.064-.065v-.516Zm-.064 2.891c.042 0 .064-.022.064-.065v-.533c0-.054-.022-.081-.064-.081h-2.325c-.043 0-.065.027-.065.081v.533c0 .043.022.065.065.065h2.325ZM212.464 11.79c.097-.15.223-.256.379-.315.156-.059.309-.062.46-.008l1.356.42c.14.043.234.134.283.275s.03.269-.056.387c-.754 1.12-1.561 2.067-2.422 2.842-.118.118-.261.178-.428.178-.167 0-.315-.054-.444-.161-.323-.248-.668-.496-1.033-.743-.129-.075-.194-.189-.194-.34 0-.129.048-.237.145-.323.775-.645 1.426-1.383 1.954-2.212Zm12.354-9.754c.161 0 .299.055.412.162.113.108.169.242.169.403v1.147c0 .161-.056.299-.169.412-.113.113-.251.17-.412.17h-13.597c-.161 0-.299-.057-.412-.17-.113-.113-.169-.251-.169-.412v-1.147c0-.161.056-.296.169-.403.113-.107.251-.162.412-.162h5.41c.043 0 .065-.026.065-.08v-.759c0-.161.056-.299.169-.411.113-.113.251-.17.412-.17h1.421c.161 0 .299.056.411.17.113.113.17.25.17.411v.759c0 .054.022.08.064.08h5.475Zm-1.098 8.22c0 .151-.056.283-.169.396-.113.113-.245.169-.396.169h-3.811c-.043 0-.064.027-.064.08v3.004c0 .592-.075 1.047-.226 1.364-.151.318-.426.557-.823.719-.56.226-1.4.339-2.52.339-.161 0-.304-.051-.428-.153-.124-.103-.207-.234-.25-.395-.097-.399-.232-.808-.404-1.228-.054-.118-.043-.231.032-.339.075-.108.178-.162.307-.162.441.022.791.032 1.049.032.162 0 .285-.005.371-.017.14 0 .234-.016.283-.048.048-.032.073-.097.073-.194v-2.924c0-.054-.022-.08-.065-.08h-3.665c-.151 0-.283-.056-.396-.169-.113-.113-.169-.245-.169-.396v-4.409c0-.161.056-.299.169-.411s.245-.17.396-.17h10.141c.151 0 .283.056.396.17s.169.25.169.411v4.409Zm-8.801-2.939c-.054 0-.081.027-.081.081v1.308c0 .043.027.064.081.064h6.169c.054 0 .081-.021.081-.064v-1.308c0-.054-.027-.081-.081-.081h-6.169Zm6.136 5.426c-.064-.086-.097-.178-.097-.275v-.097c.032-.14.113-.242.242-.306l1.179-.565c.107-.054.22-.081.339-.081.043 0 .091.006.145.016.172.032.312.113.42.243.99 1.055 1.728 1.921 2.212 2.599.065.086.097.178.097.275 0 .043-.006.086-.017.129-.043.14-.129.247-.258.322l-1.373.679c-.086.043-.178.064-.275.064-.054 0-.113-.01-.178-.032-.15-.043-.269-.134-.355-.275-.474-.753-1.168-1.652-2.083-2.697Z"/><path class="cls-1" d="M229.729 14.761c-.161 0-.299-.057-.411-.17-.113-.113-.17-.251-.17-.412v-.533c0-.377.14-.695.42-.953 1.572-1.442 2.75-2.675 3.537-3.698.786-1.023 1.179-1.932 1.179-2.729 0-.56-.143-.991-.428-1.292-.285-.302-.676-.452-1.171-.452-.549 0-1.109.264-1.679.791-.118.108-.256.161-.412.161s-.288-.054-.396-.161l-.791-.775c-.118-.118-.177-.255-.177-.411s.059-.288.177-.396c.549-.517 1.109-.896 1.679-1.139.571-.242 1.238-.363 2.002-.363 1.195 0 2.167.353 2.915 1.059.748.705 1.122 1.638 1.122 2.802 0 1.733-1.222 3.833-3.666 6.297 0 .011.003.022.009.033.005.01.013.016.024.016.786-.108 1.426-.162 1.922-.162h1.696c.161 0 .296.057.403.17.108.113.162.25.162.411v1.325c0 .161-.054.299-.162.412-.108.113-.242.17-.403.17h-7.38ZM246.725 13.315c-.791 1.114-1.852 1.671-3.181 1.671s-2.388-.557-3.173-1.671c-.786-1.114-1.179-2.705-1.179-4.772s.39-3.636 1.171-4.707c.78-1.071 1.838-1.607 3.173-1.607s2.398.541 3.189 1.624c.791 1.081 1.187 2.646 1.187 4.691 0 2.067-.396 3.657-1.187 4.772Zm-3.811-.791c.178.124.385.186.622.186s.444-.062.622-.186c.178-.124.345-.334.501-.63s.275-.724.355-1.284c.081-.559.121-1.249.121-2.067 0-.807-.04-1.488-.121-2.043-.08-.554-.199-.971-.355-1.251-.156-.28-.323-.477-.501-.59-.178-.113-.385-.17-.622-.17s-.442.056-.614.17c-.173.113-.334.309-.485.59-.151.28-.267.697-.347 1.251-.081.555-.121 1.236-.121 2.043 0 .818.04 1.507.121 2.067.08.561.194.988.339 1.284s.307.506.484.63ZM249.849 14.761c-.161 0-.299-.057-.411-.17-.113-.113-.17-.251-.17-.412v-.533c0-.377.14-.695.42-.953 1.572-1.442 2.75-2.675 3.537-3.698.786-1.023 1.179-1.932 1.179-2.729 0-.56-.143-.991-.428-1.292-.285-.302-.676-.452-1.171-.452-.549 0-1.109.264-1.679.791-.118.108-.256.161-.412.161s-.288-.054-.396-.161l-.791-.775c-.118-.118-.177-.255-.177-.411s.059-.288.177-.396c.549-.517 1.109-.896 1.679-1.139.571-.242 1.238-.363 2.002-.363 1.195 0 2.167.353 2.915 1.059.748.705 1.122 1.638 1.122 2.802 0 1.733-1.222 3.833-3.666 6.297 0 .011.003.022.009.033.005.01.013.016.024.016.786-.108 1.426-.162 1.922-.162h1.696c.161 0 .296.057.403.17.108.113.162.25.162.411v1.325c0 .161-.054.299-.162.412-.108.113-.242.17-.403.17h-7.38ZM263.253 14.987c-1.593 0-2.869-.436-3.827-1.308-.129-.118-.194-.269-.194-.452 0-.161.048-.301.145-.419l.678-.921c.087-.129.205-.199.355-.21.151-.011.285.026.404.113.7.549 1.41.824 2.132.824.581 0 1.041-.121 1.38-.363.339-.243.509-.59.509-1.041 0-.528-.181-.929-.541-1.203-.361-.275-1.036-.434-2.026-.477-.162-.011-.299-.07-.412-.177-.113-.108-.17-.243-.17-.404v-.921c0-.161.057-.299.17-.412.113-.113.25-.174.412-.186.786-.054 1.346-.215 1.679-.484s.501-.64.501-1.114c0-.42-.118-.743-.355-.969-.237-.226-.587-.339-1.049-.339-.571 0-1.152.221-1.744.662-.129.097-.272.137-.428.121-.156-.016-.283-.083-.379-.202l-.759-.921c-.108-.118-.154-.255-.137-.411.016-.156.089-.283.218-.379 1.066-.775 2.191-1.163 3.375-1.163 1.291 0 2.317.294 3.076.881.759.587 1.138 1.424 1.138 2.511 0 1.259-.651 2.158-1.954 2.697-.022.01-.032.03-.032.056 0 .027.01.046.032.057.71.215 1.278.576 1.704 1.082.425.506.637 1.136.637 1.89 0 .743-.21 1.391-.63 1.945s-.969.967-1.647 1.236c-.679.269-1.432.403-2.261.403Z"/></g><path class="cls-1" d="M193.829 18.137H267.885V19.542H193.829z"/></g><g><g><g><g><path class="cls-3" d="M54.976 5.054c0-.307-.252-.56-.561-.56h-3.49c-.307 0-.558-.254-.558-.562V1.208c0-.306.251-.561.558-.561h12.274c.307 0 .559.254.559.561v2.724c0 .308-.252.562-.559.562h-3.491c-.307 0-.558.253-.558.56v14.008c0 .308-.251.558-.561.558h-3.056c-.306 0-.558-.251-.558-.558V5.054ZM67.113 1.208c0-.306.252-.559.559-.559h10.864c.308 0 .56.253.56.559v2.595c0 .307-.252.561-.56.561h-6.717c-.309 0-.559.254-.559.561v2.725c0 .306.251.561.559.561h5.291c.308 0 .559.253.559.561v2.593c0 .306-.251.559-.559.559h-5.291c-.309 0-.559.252-.559.561v2.866c0 .305.251.559.559.559h6.853c.307 0 .559.252.559.559v2.594c0 .308-.252.558-.559.558h-11.001c-.307 0-.559-.251-.559-.558V1.208ZM101.862 1.208c0-.306.251-.559.558-.559h3.055c.308 0 .559.253.559.559v6.391c0 .306.253.561.559.561h4.483c.308 0 .56-.254.56-.561V1.208c0-.306.251-.559.559-.559h3.056c.308 0 .561.253.561.559v17.854c0 .308-.253.558-.561.558h-3.056c-.308 0-.559-.251-.559-.558v-6.497c0-.309-.252-.559-.56-.559h-4.483c-.306 0-.559.251-.559.559v6.497c0 .308-.252.558-.559.558h-3.055c-.307 0-.558-.251-.558-.558V1.208ZM82.311 10.103v-.054c0-5.393 3.772-9.811 9.18-9.811 3.132 0 5.078 1.059 6.659 2.641.095.09.181.398.005.635l-.034.036-1.691 2.098s-.124.215-.332.277c-.229.072-.426.017-.499-.045-1.296-1.12-2.336-1.792-4.004-1.792-2.967 0-4.956 2.703-4.956 5.958v.054c0 3.253 1.938 5.913 4.956 5.913 1.933 0 2.852-.731 4.21-2.002.054-.051.227-.094.324-.062.188.062.273.181.273.181l1.875 2.04s.121.116.115.308c-.005.16-.087.28-.137.331-1.801 1.938-3.61 3.052-6.917 3.052-5.18 0-9.029-4.308-9.029-9.758"/></g><g><path class="cls-4" d="m40.517,10.071l-7.659-8.965c-.247-.289-.545-.527-1.088-.527h-4.607c-.23,0-.362.314-.186.527l7.653,8.958-7.648,8.967c-.16.179-.063.526.187.526h4.608c.537,0,.84-.238,1.088-.526l7.653-8.96Z"/><path class="cls-3" d="M47.757.581h-4.606c-.516 0-.738.13-.986.419l-3.549 4.142 2.941 3.44 6.387-7.475c.18-.24.075-.527-.187-.527M47.939 19.031l-6.382-7.472-2.941 3.443 3.567 4.154c.247.289.611.401.961.401h4.608c.246 0 .358-.328.187-.526"/></g><path class="cls-4" d="M8.761 5.556v8.95l.025.867h-1.542v-.879H2.058v.879H.505c.016-.333.025-.623.025-.867V5.556c0-.253-.009-.538-.025-.855h8.281c-.017.197-.025.482-.025.855m-1.516.505H2.058v2.741h5.187v-2.741Zm-5.187 7.08h5.187v-2.997H2.058v2.997ZM14.619 10.232v4.614c0 .259.008.439.025.538h-1.292c.009-.099.013-.279.013-.538v-4.489c-.559.067-1.024.113-1.392.138l-.551.088-.138-1.291c.218.017.456.022.714.014l.302-.014c.292-.335.559-.67.803-1.007-.528-.618-1.105-1.228-1.731-1.828l.689-.998.44.444c.25-.348.484-.717.702-1.118.218-.388.363-.697.438-.926l1.091.711c-.041.04-.087.1-.137.179-.285.537-.715 1.213-1.293 2.043.168.189.327.369.477.554.736-1.092 1.2-1.879 1.392-2.393l1.091.697-.163.193c-.201.34-.448.728-.739 1.172-.293.436-.58.849-.859 1.225-.281.383-.521.698-.721.948.635-.05 1.079-.092 1.329-.124-.1-.341-.217-.655-.351-.938l.979-.276c.142.285.295.667.457 1.159.165.488.295.956.395 1.409l-1.09.338-.113-.627-.764.1Zm-3.235 3.998c.141-.415.256-.897.344-1.442.088-.543.141-1.128.158-1.753l1.102.199-.038.252c-.058 1.338-.229 2.433-.513 3.285-.41-.218-.761-.397-1.053-.541m4.564-3.321c.092.293.187.696.287 1.21.102.516.181 1.026.239 1.534l-1.115.314c-.009-.367-.053-.816-.132-1.346-.08-.532-.165-1.011-.257-1.436l.979-.277Zm6.281 2.984c.394 0 .669-.008.828-.025v1.355c-.151-.017-.426-.026-.828-.026h-5.341c-.402 0-.682.009-.839.026v-1.355c.157.017.438.025.839.025h2.157v-1.579h-1.392c-.343 0-.586.005-.727.014v-1.293c.141.008.384.011.727.011h1.392v-.927l-.026-.427c.184 0 .438.007.758.019.323.013.551.027.684.044-.018.134-.025.255-.025.363v.927h1.442c.334 0 .577-.003.727-.011v1.293c-.15-.009-.393-.014-.727-.014h-1.442v1.579h1.793Zm-5.68-5.228c.786-.129 1.509-.335 2.169-.63-.2-.212-.39-.453-.57-.718-.181-.265-.333-.528-.459-.788-.125-.26-.226-.485-.301-.696h-.074l-.652.012v-1.239l.652.013h4.087l.126-.145c.426.308.82.633 1.179.987l-.175.084c-.075.228-.188.487-.338.784-.15.297-.343.597-.578.903-.234.306-.48.582-.738.832.483.25 1.207.455 2.168.614-.201.484-.367.916-.501 1.29-.561-.131-1.063-.279-1.511-.437-.447-.159-.848-.361-1.199-.602-.259.173-.592.349-1.003.519-.409.174-.978.353-1.705.546-.092-.252-.284-.693-.577-1.328m4.502-2.832h-2.32c.134.3.295.582.483.847.188.264.399.492.634.692.251-.2.481-.43.689-.697.208-.269.381-.549.514-.841"/></g><g><g><path class="cls-4" d="m166.409,10.071l-7.659-8.965c-.248-.289-.544-.527-1.087-.527h-4.609c-.228,0-.36.314-.186.527l7.653,8.958-7.647,8.967c-.161.179-.063.526.187.526h4.608c.537,0,.839-.238,1.086-.526l7.654-8.96Z"/><path class="cls-3" d="M173.651.581h-4.606c-.517 0-.739.13-.987.419l-3.549 4.142 2.941 3.44 6.387-7.475c.178-.24.073-.527-.187-.527M173.831 19.031l-6.38-7.472-2.941 3.443 3.567 4.154c.246.289.611.401.962.401h4.608c.245 0 .357-.328.186-.526"/></g><path class="cls-3" d="M127.188 19.63c-.211 0-.397-.077-.555-.237-.158-.157-.238-.351-.238-.578V6.746c0-.23.08-.416.238-.578.158-.16.343-.24.555-.24h1.766c.227 0 .431.076.611.23.182.15.287.338.317.567l.136 1.311c0 .032.019.047.057.047.036 0 .064-.008.08-.023 1.328-1.299 2.725-1.945 4.189-1.945 1.388 0 2.418.463 3.091 1.404.671.935 1.007 2.255 1.007 3.961v7.336c0 .227-.079.42-.238.578-.158.159-.344.237-.554.237h-2.537c-.211 0-.395-.077-.554-.237-.16-.157-.238-.351-.238-.578v-6.839c0-.876-.121-1.483-.363-1.822-.242-.34-.634-.509-1.178-.509-.423 0-.792.081-1.109.248-.317.165-.687.452-1.11.86-.045.044-.067.099-.067.158v7.903c0 .227-.079.42-.238.578-.159.159-.351.237-.578.237h-2.49ZM147.108 19.947c-1.946 0-3.55-.619-4.812-1.856-1.261-1.238-1.89-2.922-1.89-5.051 0-1.041.177-2.004.532-2.887.354-.882.821-1.618 1.403-2.2.582-.58 1.246-1.028 1.993-1.357.746-.329 1.524-.483 2.32-.483 1.845 0 3.247.588 4.213 1.765.966 1.177 1.449 2.716 1.449 4.618 0 .316-.015.635-.046.951-.029.242-.136.435-.316.578-.181.144-.386.214-.612.214h-6.841c-.073 0-.104.038-.088.115.374 1.629 1.464 2.445 3.259 2.445.695 0 1.388-.15 2.083-.453.196-.105.404-.125.623-.057.22.069.382.194.488.374l.588 1.088c.105.196.132.403.08.623-.053.219-.178.387-.373.509-1.285.71-2.635 1.063-4.056 1.063Zm-2.762-8.446c0 .046.03.068.092.068h4.278c.079 0 .115-.038.115-.113-.015-.68-.191-1.216-.534-1.609-.338-.393-.857-.589-1.548-.589-.59 0-1.105.188-1.543.566-.574.498-.86 1.057-.86 1.676ZM180.539 19.947c-1.6 0-2.778-.455-3.533-1.37-.755-.914-1.133-2.193-1.133-3.837v-3.673c0-.059-.029-.09-.089-.09h-.884c-.226 0-.419-.079-.577-.237-.158-.159-.239-.351-.239-.578v-1.448c0-.227.08-.426.239-.588.157-.171.35-.257.577-.271l1.11-.094c.076-.016.113-.055.113-.115l.009-1.249c.03-.229.132-.423.306-.566.173-.158.379-.23.621-.23h2.144c.226 0 .419.075.577.24.158.154.239.341.239.556v1.249c0 .059.03.091.091.091h2.196c.227 0 .419.083.578.236.159.165.238.353.238.578v1.611c0 .227-.079.419-.238.578-.159.158-.351.237-.578.237h-2.196c-.06 0-.091.031-.091.09v3.629c0 .693.146 1.207.441 1.537.295.333.697.5 1.211.5.137 0 .279-.015.431-.046.211-.03.411.012.6.125.188.113.305.268.351.464l.317 1.405c.015.074.022.142.022.204 0 .15-.045.294-.135.43-.106.197-.271.316-.498.362-.726.182-1.465.271-2.22.271Z"/></g></g><path class="cls-3" d="M51.81 23.912v5.238h-.779v-.384h-2.704v.396h-.749v-5.25h4.232Zm-3.484 2.039h2.704v-1.308h-2.704v1.308Zm2.704.719h-2.704v1.364h2.704v-1.364ZM54.358 27.213c-.06.573-.188 1.182-.365 1.57-.127-.078-.395-.205-.554-.26.178-.36.275-.904.324-1.414l.596.104Zm4.683-3.197c-.219.646-.56 1.163-.993 1.577.365.207.786.363 1.249.461-.152.141-.347.415-.443.587-.513-.141-.97-.341-1.36-.61-.414.275-.882.481-1.388.639-.079-.165-.243-.432-.384-.585.116.263.212.524.25.719l-.513.23c-.017-.09-.041-.195-.078-.309l-.311.024v2.491h-.628v-2.447l-.883.055-.061-.628.439-.017c.09-.117.188-.252.286-.392-.176-.261-.468-.583-.718-.826l.346-.495c.043.036.092.079.141.122.17-.335.341-.737.445-1.06l.628.231c-.22.412-.463.882-.682 1.224.079.085.146.171.206.244.208-.342.402-.688.543-.987l.59.275c-.336.529-.755 1.144-1.139 1.638l.585-.024c-.067-.155-.14-.306-.213-.44l.481-.202c.097.171.195.366.28.562.438-.118.846-.287 1.212-.505-.286-.287-.524-.616-.719-.994l.39-.129h-.695v-.62h2.521l.129-.031.487.219Zm-3.446 3.043c.151.349.309.793.377 1.097l-.536.196c-.055-.304-.212-.775-.354-1.134l.513-.159Zm2.277 1.373h1.333v.633h-3.441v-.633h1.395v-.714h-1.035v-.64h1.035v-.723h.713v.723h1.083v.64h-1.083v.714Zm-.993-3.984c.147.268.347.514.584.726.238-.212.439-.458.597-.726h-1.181ZM63.142 24.577c-.006.013-.012.018-.018.032h1.223c.189 0 .391-.032.53-.074l.621.382c-.065.116-.152.287-.2.439-.165.542-.512 1.355-1.059 2.035-.579.706-1.317 1.266-2.46 1.718l-.719-.646c1.248-.371 1.924-.902 2.454-1.504.414-.477.767-1.207.865-1.663h-1.711c-.408.531-.938 1.066-1.535 1.475l-.681-.507c1.065-.652 1.595-1.439 1.899-1.961.091-.153.22-.431.273-.64l.89.294c-.14.212-.299.486-.371.621M68.133 24.4h3.349c.153 0 .383 0 .602-.013-.011.182-.011.408-.011.592v2.983c0 .237.011.82.011.845h-.839c0-.013.007-.153.007-.328h-2.937c.007.17.007.31.007.328h-.841c0-.031.019-.561.019-.852v-2.976c0-.173 0-.422-.013-.592.248.007.481.013.646.013m.181 3.3h2.942v-2.526h-2.942v2.526ZM78.28 24.954c-.207.474-.549 1.127-.957 1.674.603.523 1.34 1.305 1.699 1.742l-.694.603c-.397-.547-.963-1.168-1.536-1.722-.644.681-1.454 1.315-2.29 1.709l-.626-.657c.98-.365 1.924-1.109 2.495-1.747.403-.456.775-1.061.909-1.493h-2.065c-.255 0-.59.036-.718.043v-.865c.164.024.536.042.718.042h2.15c.262 0 .505-.038.628-.08l.499.373c-.049.067-.158.255-.213.377M81.211 25.63h3.989c.127 0 .396-.013.554-.036v.792c-.152-.013-.384-.018-.554-.018h-1.468c-.036.625-.171 1.138-.39 1.565-.213.42-.681.894-1.224 1.169l-.713-.517c.433-.164.859-.517 1.104-.872.249-.377.351-.833.377-1.346h-1.675c-.182 0-.414.014-.584.025v-.799c.182.018.394.036.584.036m.774-1.552h2.448c.206 0 .451-.012.657-.043v.786c-.206-.014-.444-.025-.657-.025h-2.442c-.213 0-.469.011-.659.025v-.786c.202.031.451.043.652.043M89.032 26.8l-.742.278c-.104-.327-.408-1.139-.555-1.404l.731-.264c.151.312.445 1.047.566 1.39m2.949-.824c-.159.616-.414 1.25-.829 1.784-.566.733-1.328 1.243-2.04 1.511l-.639-.649c.67-.177 1.516-.639 2.021-1.274.415-.517.706-1.33.779-2.091l.853.275c-.073.196-.109.324-.145.444m-1.601.447-.731.255c-.074-.297-.341-1.035-.494-1.355l.726-.235c.115.261.414 1.053.5 1.334M96.616 24.577c-.006.013-.011.018-.017.032h1.225c.189 0 .39-.032.529-.074l.62.382c-.067.116-.151.287-.201.439-.163.542-.512 1.355-1.057 2.035-.579.706-1.317 1.266-2.461 1.718l-.719-.646c1.249-.371 1.926-.902 2.453-1.504.415-.477.768-1.207.865-1.663h-1.711c-.408.531-.937 1.066-1.534 1.475l-.682-.507c1.065-.652 1.596-1.439 1.901-1.961.091-.153.218-.431.275-.64l.886.294c-.138.212-.297.486-.371.621"/></g></g><path fill="none" d="M0 0H268V30H0z"/></g></svg>