<svg id="_レイヤー_2" xmlns="http://www.w3.org/2000/svg" width="520" height="163.747" viewBox="0 0 520 163.747"><defs><style>.cls-1{fill:#e50012}.cls-2{fill:#231815}.cls-3{fill:#0062b0}</style></defs><g id="_レイヤー_1-2"><g><g><g><g><g><path class="cls-2" d="M154.916 13.69c0-.871-.716-1.592-1.594-1.592h-9.922c-.874 0-1.587-.721-1.587-1.597V2.758c0-.873.713-1.595 1.587-1.595h34.894c.873 0 1.592.722 1.592 1.595v7.743c0 .876-.719 1.597-1.592 1.597h-9.923c-.875 0-1.587.721-1.587 1.592v39.823c0 .874-.716 1.59-1.594 1.59h-8.687c-.873 0-1.587-.716-1.587-1.59V13.69ZM189.419 2.758c0-.871.716-1.592 1.589-1.592h30.887c.875 0 1.594.721 1.594 1.592v7.379c0 .871-.719 1.592-1.594 1.592h-19.095c-.878 0-1.59.722-1.59 1.594v7.747c0 .871.713 1.594 1.59 1.594h15.043c.876 0 1.59.722 1.59 1.597v7.369c0 .871-.714 1.59-1.59 1.59h-15.043c-.878 0-1.59.716-1.59 1.594v8.146c0 .868.713 1.594 1.59 1.594h19.482c.873 0 1.59.713 1.59 1.587v7.372c0 .874-.717 1.59-1.59 1.59h-31.274c-.873 0-1.589-.716-1.589-1.59V2.758ZM288.206 2.758c0-.871.714-1.592 1.587-1.592h8.687c.875 0 1.59.721 1.59 1.592v18.166c0 .871.719 1.594 1.59 1.594h12.746c.875 0 1.59-.722 1.59-1.594V2.758c0-.871.716-1.592 1.59-1.592h8.687c.874 0 1.592.721 1.592 1.592v50.755c0 .874-.717 1.59-1.592 1.59h-8.687c-.875 0-1.59-.716-1.59-1.59v-18.47c0-.878-.716-1.59-1.59-1.59h-12.746c-.871 0-1.59.712-1.59 1.59v18.47c0 .874-.716 1.59-1.59 1.59h-8.687c-.873 0-1.587-.716-1.587-1.59V2.758ZM232.626 28.043v-.149c0-15.332 10.725-27.895 26.098-27.895 8.901 0 14.437 3.011 18.929 7.508.272.258.515 1.132.013 1.806l-.094.102-4.807 5.963s-.353.611-.944.789c-.649.204-1.21.049-1.417-.126-3.686-3.186-6.643-5.095-11.382-5.095-8.438 0-14.09 7.682-14.09 16.938v.149c0 9.248 5.51 16.811 14.09 16.811 5.497 0 8.108-2.076 11.967-5.691.152-.146.646-.269.921-.178.535.178.777.515.777.515l5.33 5.801s.343.327.329.875c-.013.457-.248.797-.389.939-5.121 5.513-10.265 8.681-19.665 8.681-14.725 0-25.667-12.251-25.667-27.743"/></g><g><path class="cls-3" d="m113.807,27.953L92.035,2.47c-.703-.824-1.548-1.5-3.093-1.5h-13.099c-.654,0-1.027.894-.53,1.5l21.759,25.467-21.744,25.489c-.454.512-.178,1.5.534,1.5h13.097c1.527,0,2.387-.677,3.092-1.5l21.756-25.472Z"/><path class="cls-2" d="M134.393.972h-13.096c-1.467 0-2.099.369-2.805 1.194l-10.09 11.774 8.362 9.78 18.16-21.25c.51-.682.211-1.498-.531-1.498M134.908 53.425l-18.144-21.242-8.36 9.789 10.14 11.81c.703.823 1.738 1.143 2.734 1.143h13.099c.697 0 1.017-.933.531-1.5"/></g><path class="cls-3" d="M23.531 15.117v25.446l.07 2.462h-4.382v-2.497H4.472v2.497H.06c.045-.946.068-1.769.068-2.462V15.117c0-.721-.023-1.529-.068-2.428h23.54c-.049.56-.07 1.369-.07 2.428m-4.313 1.437H4.472v7.791h14.746v-7.791Zm-14.746 20.126h14.746v-8.519H4.472v8.519ZM40.183 28.413v13.115c0 .735.023 1.247.07 1.532h-3.673c.026-.285.037-.797.037-1.532v-12.762c-1.59.191-2.914.321-3.958.392l-1.569.249-.39-3.67c.617.052 1.294.062 2.031.039l.857-.039c.831-.952 1.59-1.905 2.282-2.86-1.5-1.759-3.139-3.489-4.92-5.198l1.958-2.836 1.25 1.262c.711-.988 1.377-2.036 1.995-3.179.62-1.103 1.032-1.979 1.245-2.632l3.103 2.021c-.118.115-.248.283-.389.51-.81 1.527-2.036 3.448-3.676 5.808.476.538.928 1.05 1.357 1.575 2.092-3.102 3.411-5.342 3.955-6.801l3.103 1.982-.463.547c-.573.967-1.273 2.072-2.102 3.333-.834 1.24-1.649 2.416-2.442 3.485-.8 1.085-1.482 1.982-2.05 2.692 1.804-.142 3.067-.262 3.777-.35-.283-.972-.615-1.862-.998-2.669l2.783-.781c.402.806.837 1.895 1.297 3.294.468 1.383.84 2.718 1.124 4.007l-3.098.959-.322-1.781-2.172.288Zm-9.199 11.363c.402-1.179.729-2.549.978-4.097.249-1.545.4-3.21.449-4.988l3.134.57-.107.716c-.165 3.8-.653 6.912-1.461 9.338-1.166-.622-2.162-1.127-2.993-1.539m12.976-9.442c.262.836.535 1.979.816 3.44.288 1.467.513 2.919.677 4.363l-3.168.891c-.028-1.04-.152-2.319-.376-3.826-.227-1.509-.47-2.873-.732-4.081l2.782-.787Zm17.857 8.487c1.119 0 1.905-.026 2.355-.074v3.851c-.428-.045-1.211-.071-2.355-.071h-15.185c-1.14 0-1.937.026-2.385.071v-3.851c.449.049 1.245.074 2.385.074h6.133v-4.489h-3.957c-.976 0-1.665.013-2.068.035v-3.676c.403.023 1.092.036 2.068.036h3.957v-2.64l-.073-1.211c.522 0 1.244.016 2.154.052.918.039 1.566.081 1.945.126-.05.382-.07.726-.07 1.033v2.64h4.099c.949 0 1.641-.013 2.068-.036v3.676c-.428-.023-1.119-.035-2.068-.035h-4.099v4.489h5.095Zm-16.147-14.864c2.235-.366 4.289-.956 6.166-1.788-.568-.606-1.109-1.292-1.619-2.044-.513-.754-.944-1.501-1.304-2.242-.355-.739-.641-1.378-.855-1.979h-.21l-1.854.034v-3.519l1.854.034h11.619l.356-.413c1.211.878 2.332 1.799 3.351 2.805l-.499.24c-.212.649-.533 1.383-.962 2.228-.426.844-.973 1.697-1.641 2.57-.667.868-1.367 1.652-2.101 2.361 1.375.709 3.432 1.292 6.166 1.746-.573 1.377-1.046 2.608-1.427 3.67-1.592-.376-3.022-.797-4.294-1.244-1.271-.453-2.41-1.024-3.408-1.71-.737.492-1.686.991-2.85 1.474-1.165.496-2.779 1.007-4.849 1.552-.261-.713-.806-1.969-1.639-3.774m12.798-8.053h-6.597c.381.854.84 1.655 1.373 2.408.536.751 1.135 1.399 1.801 1.965.714-.567 1.367-1.22 1.961-1.981.591-.763 1.08-1.561 1.461-2.392"/></g><g><g><path class="cls-3" d="m471.709,27.953l-21.773-25.483c-.703-.824-1.545-1.5-3.092-1.5h-13.101c-.651,0-1.025.894-.53,1.5l21.759,25.467-21.741,25.489c-.457.512-.18,1.5.53,1.5h13.101c1.529,0,2.387-.677,3.09-1.5l21.757-25.472Z"/><path class="cls-2" d="M492.296.972h-13.096c-1.469 0-2.101.369-2.803 1.194l-10.09 11.774 8.362 9.78 18.16-21.25c.505-.682.206-1.498-.533-1.498M492.807 53.425l-18.139-21.242-8.362 9.789 10.142 11.81c.7.823 1.736 1.143 2.732 1.143h13.101c.695 0 1.014-.933.526-1.5"/></g><path class="cls-2" d="M360.209 55.129c-.603 0-1.13-.224-1.578-.677-.45-.447-.677-.998-.677-1.642V18.499c0-.653.227-1.184.677-1.642.447-.453.975-.683 1.578-.683h5.019c.646 0 1.226.215 1.738.653.518.428.816.96.904 1.612l.385 3.731c0 .087.055.133.16.133s.183-.023.227-.068c3.778-3.692 7.748-5.528 11.91-5.528 3.947 0 6.875 1.317 8.788 3.99 1.908 2.663 2.865 6.413 2.865 11.262v20.853c0 .645-.227 1.195-.677 1.642-.45.453-.978.677-1.576.677h-7.212c-.601 0-1.126-.224-1.574-.677-.453-.447-.679-.998-.679-1.642v-19.441c0-2.491-.343-4.214-1.032-5.179-.687-.965-1.801-1.448-3.346-1.448-1.203 0-2.251.233-3.155.706-.901.47-1.953 1.286-3.155 2.449-.13.126-.193.279-.193.45v22.463c0 .645-.224 1.195-.675 1.642-.454.453-.998.677-1.645.677h-7.078ZM416.839 56.03c-5.534 0-10.093-1.759-13.679-5.276-3.586-3.518-5.374-8.305-5.374-14.356 0-2.964.502-5.698 1.513-8.208 1.004-2.51 2.335-4.6 3.987-6.255 1.655-1.649 3.544-2.922 5.667-3.855 2.123-.936 4.332-1.375 6.597-1.375 5.244 0 9.23 1.672 11.978 5.017 2.747 3.349 4.12 7.722 4.12 13.128 0 .9-.044 1.804-.13 2.705-.084.687-.389 1.237-.899 1.642-.513.411-1.098.612-1.738.612h-19.448c-.209 0-.297.107-.249.324 1.062 4.632 4.162 6.951 9.264 6.951 1.976 0 3.947-.428 5.923-1.286.559-.301 1.151-.356 1.77-.162.625.194 1.085.547 1.386 1.062l1.673 3.09c.3.557.374 1.15.228 1.772-.152.622-.508 1.101-1.062 1.448-3.654 2.018-7.49 3.022-11.528 3.022Zm-7.855-24.008c0 .126.086.191.262.191h12.163c.222 0 .327-.107.327-.321-.044-1.934-.546-3.456-1.519-4.574-.962-1.117-2.436-1.671-4.402-1.671-1.675 0-3.142.531-4.386 1.61-1.629 1.412-2.446 3.003-2.446 4.765ZM511.878 56.03c-4.548 0-7.897-1.292-10.043-3.89-2.146-2.598-3.221-6.235-3.221-10.912v-10.44c0-.172-.081-.256-.253-.256h-2.514c-.645 0-1.192-.227-1.639-.677-.45-.45-.68-.998-.68-1.642v-4.114c0-.648.23-1.215.68-1.675.447-.486.994-.729 1.639-.771l3.155-.266c.217-.045.321-.159.321-.324l.026-3.551c.084-.653.376-1.203.871-1.611.492-.449 1.075-.654 1.765-.654h6.096c.641 0 1.192.214 1.639.683.45.439.677.97.677 1.582v3.551c0 .165.087.256.259.256h6.242c.645 0 1.192.236 1.642.671.452.47.675 1.004.675 1.642v4.58c0 .645-.223 1.192-.675 1.642-.45.45-.998.677-1.642.677h-6.242c-.172 0-.259.084-.259.256v10.313c0 1.969.418 3.433 1.255 4.373.839.946 1.984 1.419 3.445 1.419.389 0 .794-.045 1.224-.13.598-.084 1.168.032 1.707.353.533.321.867.761.998 1.318l.899 3.994c.044.214.063.408.063.58 0 .431-.126.839-.384 1.221-.3.56-.771.901-1.415 1.03-2.062.518-4.165.771-6.312.771Z"/></g></g><path class="cls-2" d="M145.915 67.305v14.887h-2.216v-1.092h-7.69v1.131h-2.128v-14.926h12.033Zm-9.905 5.798h7.69v-3.722h-7.69v3.722Zm7.69 2.044h-7.69v3.877h7.69v-3.877ZM153.157 76.685c-.173 1.629-.535 3.359-1.04 4.467-.36-.224-1.124-.586-1.574-.742.504-1.024.779-2.569.92-4.02l1.694.295Zm13.313-9.089c-.622 1.837-1.592 3.307-2.821 4.483 1.037.589 2.233 1.033 3.549 1.315-.429.402-.986 1.179-1.258 1.665-1.459-.402-2.756-.969-3.864-1.733-1.177.784-2.51 1.367-3.949 1.82-.223-.473-.69-1.231-1.092-1.665.331.748.606 1.49.713 2.047l-1.458.651c-.05-.256-.117-.551-.223-.878l-.881.068v7.081h-1.785v-6.958l-2.512.155-.173-1.781 1.25-.052c.256-.334.535-.713.811-1.111-.501-.742-1.331-1.662-2.042-2.351l.985-1.406c.123.104.261.227.398.347.484-.952.97-2.096 1.265-3.012l1.785.658c-.624 1.173-1.313 2.51-1.939 3.482.224.24.415.483.586.69.59-.969 1.143-1.953 1.545-2.805l1.675.781c-.955 1.503-2.144 3.255-3.236 4.658l1.662-.068c-.191-.441-.398-.868-.606-1.247l1.367-.573c.279.486.557 1.037.797 1.594 1.247-.337 2.405-.816 3.445-1.432-.811-.82-1.488-1.756-2.042-2.825l1.108-.366h-1.976v-1.765h7.168l.366-.087 1.383.622Zm-9.795 8.655c.431.988.878 2.254 1.072 3.116l-1.526.557c-.155-.865-.604-2.199-1.004-3.223l1.458-.45Zm6.472 3.9h3.79v1.801h-9.782v-1.801h3.965v-2.031h-2.943v-1.817h2.943v-2.06h2.028v2.06h3.08v1.817h-3.08v2.031Zm-2.821-11.324c.418.761.985 1.458 1.662 2.063.677-.606 1.245-1.302 1.697-2.063h-3.359ZM178.131 69.193c-.016.036-.035.049-.052.088h3.479c.534 0 1.109-.088 1.506-.211l1.764 1.085c-.185.334-.432.816-.568 1.25-.47 1.539-1.454 3.848-3.012 5.785-1.645 2.005-3.743 3.599-6.993 4.881l-2.046-1.837c3.548-1.056 5.473-2.565 6.977-4.272 1.177-1.36 2.182-3.43 2.46-4.729h-4.865c-1.163 1.506-2.666 3.032-4.365 4.192l-1.937-1.438c3.03-1.853 4.535-4.091 5.401-5.578.259-.434.624-1.224.777-1.82l2.528.839c-.398.599-.847 1.38-1.054 1.765M192.318 68.688h9.52c.432 0 1.088 0 1.71-.036-.032.521-.032 1.16-.032 1.684v8.48c0 .674.032 2.335.032 2.403h-2.386c0-.032.02-.431.02-.933h-8.349c.018.483.018.881.018.933h-2.389c0-.084.055-1.594.055-2.42v-8.464c0-.489 0-1.199-.036-1.684.706.019 1.367.036 1.837.036m.515 9.38h8.363v-7.178h-8.363v7.178ZM221.164 70.262c-.588 1.347-1.56 3.203-2.719 4.758 1.713 1.49 3.811 3.709 4.833 4.956l-1.973 1.71c-1.131-1.555-2.737-3.32-4.366-4.894-1.833 1.937-4.136 3.738-6.511 4.862l-1.778-1.872c2.786-1.033 5.468-3.152 7.094-4.962 1.145-1.299 2.201-3.019 2.582-4.246h-5.869c-.727 0-1.678.104-2.044.123v-2.458c.466.068 1.526.12 2.044.12h6.112c.743 0 1.435-.104 1.785-.227l1.417 1.062c-.138.188-.45.722-.606 1.069M229.497 72.186h11.34c.363 0 1.126-.039 1.578-.107v2.251c-.433-.032-1.093-.052-1.578-.052h-4.172c-.104 1.782-.486 3.239-1.108 4.451-.606 1.195-1.939 2.543-3.479 3.323l-2.028-1.471c1.231-.466 2.442-1.471 3.139-2.478.706-1.072.998-2.368 1.069-3.826h-4.762c-.518 0-1.176.039-1.658.071v-2.271c.517.052 1.121.107 1.658.107m2.199-4.415h6.961c.585 0 1.283-.032 1.869-.123v2.235c-.586-.036-1.263-.071-1.869-.071h-6.943c-.606 0-1.335.036-1.871.071v-2.235c.573.091 1.283.123 1.853.123M251.734 75.51l-2.11.794c-.296-.933-1.158-3.239-1.579-3.994l2.08-.751c.431.888 1.265 2.977 1.61 3.952m8.383-2.342c-.453 1.752-1.177 3.553-2.358 5.072-1.608 2.083-3.774 3.537-5.798 4.298l-1.817-1.849c1.905-.502 4.31-1.817 5.745-3.621 1.179-1.471 2.01-3.777 2.216-5.944l2.424.784c-.207.554-.311.92-.411 1.26m-4.554 1.27-2.08.726c-.207-.845-.97-2.941-1.403-3.851l2.062-.667c.329.742 1.177 2.996 1.42 3.793M273.293 69.193c-.018.036-.034.049-.049.088h3.482c.536 0 1.106-.088 1.503-.211l1.762 1.085c-.188.334-.429.816-.57 1.25-.463 1.539-1.454 3.848-3.006 5.785-1.645 2.005-3.744 3.599-6.996 4.881l-2.046-1.837c3.552-1.056 5.476-2.565 6.975-4.272 1.179-1.36 2.183-3.43 2.458-4.729h-4.865c-1.16 1.506-2.664 3.032-4.362 4.192l-1.939-1.438c3.029-1.853 4.536-4.091 5.403-5.578.259-.434.622-1.224.782-1.82l2.522.839c-.394.599-.847 1.38-1.056 1.765"/></g><g><g><path class="cls-2" d="M187.269 146.285c0 .473-.18.888-.535 1.241-.353.353-.785.533-1.289.533h-7.795c-.037 0-.062.016-.074.048-.018.034-.01.068.024.101 3.847 3.309 8.417 5.975 13.716 7.999.368.134.609.403.708.81v.253c0 .303-.099.573-.303.81-1.079 1.147-2.126 2.412-3.139 3.796-.269.439-.651.734-1.14.886s-.965.11-1.441-.126c-5.129-2.497-9.803-5.957-14.021-10.376-.034-.033-.068-.042-.102-.026-.029.018-.05.044-.05.078v9.667c0 .473-.177.884-.531 1.239-.353.355-.786.531-1.289.531h-4.255c-.507 0-.935-.176-1.289-.531-.353-.355-.53-.766-.53-1.239v-9.314c0-.066-.018-.108-.052-.128-.034-.015-.068-.006-.102.026-3.982 4.219-8.553 7.542-13.716 9.972-.473.236-.956.277-1.441.128-.491-.154-.888-.432-1.19-.837-.912-1.279-1.871-2.48-2.888-3.591-.235-.236-.351-.491-.351-.761 0-.1.018-.202.049-.304.068-.402.303-.674.711-.81 5.158-2.057 9.632-4.774 13.41-8.15.034-.032.044-.066.028-.101-.018-.032-.04-.048-.078-.048h-7.34c-.507 0-.936-.18-1.289-.533-.355-.353-.531-.768-.531-1.241v-16.855c0-.507.177-.928.531-1.263.353-.338.782-.507 1.289-.507h12.757c.136 0 .204-.086.204-.254v-1.722c0-.131-.068-.201-.204-.201h-17.006c-.507 0-.939-.176-1.292-.531-.355-.355-.535-.785-.535-1.292v-3.388c0-.507.18-.938.535-1.292.353-.355.785-.531 1.292-.531h17.006c.136 0 .204-.067.204-.202v-1.926c0-.504.176-.935.53-1.288.355-.356.782-.533 1.289-.533h4.255c.504 0 .936.176 1.289.533.355.353.531.784.531 1.288v1.926c0 .136.068.202.204.202h17.516c.504 0 .935.176 1.289.531.353.355.53.785.53 1.292v3.388c0 .507-.176.938-.53 1.292-.355.355-.786.531-1.289.531h-17.516c-.136 0-.204.07-.204.201v1.722c0 .168.068.254.204.254h13.413c.504 0 .936.168 1.289.507.355.335.535.756.535 1.263v16.855Zm-30.525-13.109c-.136 0-.204.086-.204.253v1.619c0 .134.068.202.204.202h6.987c.136 0 .204-.068.204-.202v-1.619c0-.167-.068-.253-.204-.253h-6.987Zm0 7.186c-.136 0-.204.086-.204.256v1.668c0 .136.068.204.204.204h6.987c.136 0 .204-.068.204-.204v-1.668c0-.17-.068-.256-.204-.256h-6.987Zm22.777-6.933c0-.167-.068-.253-.201-.253h-7.288c-.136 0-.204.086-.204.253v1.619c0 .134.068.202.204.202h7.288c.133 0 .201-.068.201-.202v-1.619Zm-.201 9.061c.133 0 .201-.068.201-.204v-1.668c0-.17-.068-.256-.201-.256h-7.288c-.136 0-.204.086-.204.256v1.668c0 .136.068.204.204.204h7.288ZM202.397 149.525c.306-.471.7-.802 1.19-.988.489-.185.972-.194 1.441-.024l4.255 1.317c.436.134.732.419.884.86.151.439.096.842-.176 1.215-2.36 3.51-4.894 6.477-7.594 8.908-.371.368-.816.557-1.338.557-.526 0-.989-.17-1.394-.505-1.012-.779-2.091-1.555-3.237-2.329-.408-.235-.609-.591-.609-1.064 0-.405.151-.742.457-1.012 2.431-2.023 4.468-4.336 6.122-6.933Zm38.724-30.573c.504 0 .936.172 1.289.507.355.338.531.758.531 1.265v3.594c0 .504-.176.936-.531 1.291-.353.353-.785.531-1.289.531h-42.619c-.507 0-.935-.178-1.292-.531-.353-.355-.53-.787-.53-1.291v-3.594c0-.507.177-.926.53-1.265.358-.335.785-.507 1.292-.507h16.955c.136 0 .204-.083.204-.253v-2.381c0-.504.177-.935.53-1.288.358-.356.785-.533 1.292-.533h4.452c.507 0 .936.176 1.289.533.358.353.534.784.534 1.288v2.381c0 .17.065.253.201.253h17.161Zm-3.445 25.762c0 .475-.176.886-.531 1.242-.353.353-.768.53-1.237.53h-11.948c-.136 0-.201.084-.201.253v9.416c0 1.854-.238 3.281-.708 4.274-.476.998-1.336 1.747-2.585 2.256-1.751.705-4.384 1.061-7.894 1.061-.507 0-.952-.16-1.344-.479-.384-.322-.649-.735-.782-1.241-.301-1.249-.727-2.531-1.268-3.848-.167-.369-.13-.724.105-1.061.235-.338.559-.508.959-.508 1.385.068 2.483.102 3.289.102.507 0 .899-.015 1.166-.05.439 0 .735-.052.884-.151.154-.102.228-.304.228-.607v-9.164c0-.168-.068-.253-.204-.253h-11.486c-.471 0-.887-.177-1.241-.53-.353-.356-.531-.768-.531-1.242v-13.818c0-.505.178-.935.531-1.289.353-.355.769-.533 1.241-.533h31.787c.47 0 .884.178 1.237.533.355.355.531.784.531 1.289v13.818Zm-27.583-9.212c-.17 0-.251.086-.251.256v4.097c0 .136.081.202.251.202h19.336c.165 0 .251-.066.251-.202v-4.097c0-.17-.086-.256-.251-.256h-19.336Zm19.229 17.009c-.196-.27-.301-.559-.301-.862v-.304c.105-.437.356-.758.761-.96l3.697-1.77c.332-.17.687-.256 1.058-.256.136 0 .285.019.458.052.538.102.98.353 1.313.76 3.105 3.309 5.417 6.021 6.935 8.148.204.27.306.557.306.86 0 .134-.021.27-.052.406-.136.437-.408.774-.81 1.011l-4.305 2.126c-.266.133-.554.201-.86.201-.167 0-.355-.032-.559-.1-.47-.134-.84-.42-1.108-.86-1.487-2.36-3.663-5.178-6.535-8.451Z"/><path class="cls-1" d="M256.511 158.84c-.504 0-.936-.18-1.289-.533s-.531-.785-.531-1.291v-1.67c0-1.182.439-2.178 1.317-2.988 4.925-4.52 8.623-8.381 11.084-11.59 2.462-3.207 3.694-6.057 3.694-8.553 0-1.756-.447-3.106-1.341-4.049-.894-.947-2.115-1.419-3.67-1.419-1.72 0-3.476.826-5.265 2.481-.369.337-.798.505-1.288.505s-.905-.168-1.242-.505l-2.48-2.429c-.371-.372-.557-.802-.557-1.289 0-.491.186-.905.557-1.242 1.722-1.621 3.476-2.808 5.265-3.569 1.79-.758 3.877-1.139 6.274-1.139 3.746 0 6.792 1.106 9.136 3.317s3.521 5.136 3.521 8.781c0 5.432-3.833 12.014-11.492 19.738 0 .036.01.068.026.104.015.033.042.05.076.05 2.462-.338 4.472-.507 6.023-.507h5.315c.504 0 .925.18 1.265.531.334.353.507.784.507 1.291v4.151c0 .505-.173.938-.507 1.291-.34.353-.761.533-1.265.533h-23.134ZM309.782 154.306c-2.48 3.493-5.801 5.239-9.972 5.239s-7.479-1.746-9.944-5.239c-2.463-3.492-3.694-8.477-3.694-14.955s1.224-11.395 3.67-14.754c2.446-3.357 5.758-5.037 9.944-5.037s7.516 1.696 9.996 5.087c2.483 3.39 3.722 8.294 3.722 14.704 0 6.478-1.239 11.463-3.722 14.955Zm-11.944-2.478c.557.387 1.207.583 1.948.583s1.394-.196 1.95-.583c.557-.389 1.077-1.046 1.568-1.976.489-.928.86-2.266 1.114-4.023.253-1.756.379-3.914.379-6.478 0-2.531-.126-4.664-.379-6.404-.254-1.738-.625-3.043-1.114-3.921-.491-.879-1.011-1.495-1.568-1.848-.556-.356-1.208-.533-1.95-.533s-1.38.177-1.921.533c-.541.353-1.048.969-1.521 1.848-.473.878-.837 2.183-1.085 3.921-.254 1.74-.384 3.872-.384 6.404 0 2.564.13 4.723.384 6.478.248 1.757.606 3.095 1.058 4.023.46.93.967 1.587 1.521 1.976ZM319.577 158.84c-.507 0-.935-.18-1.289-.533-.356-.353-.53-.785-.53-1.291v-1.67c0-1.182.434-2.178 1.312-2.988 4.928-4.52 8.623-8.381 11.084-11.59 2.467-3.207 3.697-6.057 3.697-8.553 0-1.756-.449-3.106-1.344-4.049-.891-.947-2.115-1.419-3.665-1.419-1.722 0-3.48.826-5.265 2.481-.371.337-.803.505-1.292.505s-.905-.168-1.239-.505l-2.483-2.429c-.371-.372-.554-.802-.554-1.289 0-.491.183-.905.554-1.242 1.722-1.621 3.48-2.808 5.265-3.569 1.79-.758 3.88-1.139 6.279-1.139 3.744 0 6.788 1.106 9.131 3.317 2.347 2.211 3.521 5.136 3.521 8.781 0 5.432-3.83 12.014-11.489 19.738 0 .036.006.068.024.104.016.033.044.05.075.05 2.465-.338 4.472-.507 6.026-.507h5.312c.507 0 .93.18 1.265.531.337.353.507.784.507 1.291v4.151c0 .505-.17.938-.507 1.291-.335.353-.758.533-1.265.533h-23.131ZM361.587 159.546c-4.996 0-8.992-1.367-11.995-4.099-.405-.372-.606-.844-.606-1.419 0-.505.149-.943.452-1.315l2.126-2.883c.272-.406.643-.627 1.114-.659.473-.036.896.083 1.266.355 2.193 1.72 4.418 2.582 6.682 2.582 1.82 0 3.265-.381 4.323-1.14 1.066-.76 1.599-1.846 1.599-3.263 0-1.652-.567-2.909-1.697-3.772-1.132-.86-3.247-1.359-6.352-1.493-.507-.034-.936-.22-1.289-.556-.355-.337-.531-.76-.531-1.265v-2.886c0-.505.176-.938.531-1.291.353-.353.782-.547 1.289-.583 2.465-.167 4.217-.675 5.264-1.517 1.044-.844 1.573-2.007 1.573-3.492 0-1.317-.371-2.329-1.116-3.038-.742-.709-1.84-1.063-3.289-1.063-1.79 0-3.612.693-5.466 2.075-.408.304-.854.431-1.343.379-.491-.049-.888-.259-1.19-.632l-2.378-2.886c-.34-.369-.483-.8-.429-1.289.052-.489.28-.884.68-1.189 3.341-2.431 6.87-3.646 10.577-3.646 4.051 0 7.265.921 9.643 2.76 2.381 1.84 3.568 4.462 3.568 7.871 0 3.945-2.037 6.763-6.122 8.453-.068.032-.102.094-.102.175 0 .086.034.144.102.178 2.227.675 4.007 1.806 5.34 3.391 1.333 1.589 1.995 3.561 1.995 5.923 0 2.327-.656 4.36-1.968 6.098-1.32 1.736-3.042 3.03-5.163 3.872-2.126.844-4.49 1.265-7.089 1.265Z"/></g><path class="cls-1" d="M0 96.341H520V101.04199999999999H0z"/></g></g></g></svg>