<?xml version="1.0" encoding="UTF-8"?><svg id="b" xmlns="http://www.w3.org/2000/svg" viewBox="0 0 132 132"><defs><style>.d{fill:#fff;}.d,.e{fill-rule:evenodd;}.e{fill:#45e6dd;opacity:.9;}</style></defs><g id="c"><path class="e" d="M20,0h92c11.05,0,20,8.95,20,20v92c0,11.05-8.95,20-20,20H20c-11.05,0-20-8.95-20-20V20C0,8.95,8.95,0,20,0Z"/><path class="d" d="M104,54h-26v-26c0-6.63-5.37-12-12-12s-12,5.37-12,12v26h-26c-6.63,0-12,5.37-12,12s5.37,12,12,12h26v26c0,6.63,5.37,12,12,12s12-5.37,12-12v-26h26c6.63,0,12-5.37,12-12s-5.37-12-12-12Z"/></g></svg>