<svg xmlns="http://www.w3.org/2000/svg" viewBox="0 0 1023.74 1023.94"><path d="M512.22 0c284.06.65 513.58 231.15 511.5 516.06-2.05 279.59-228.82 507.87-512.03 507.88-284 .02-512.82-229.85-511.69-514.68C1.12 228.04 229.04.38 512.22 0Z" style="fill:red"/><path d="M511.82 753.15c-66.86-2.44-133.74-4.51-200.57-7.54-20.16-.91-40.5-2.98-60.22-7.11-38.63-8.1-60.92-33.27-68.84-71.59-6.15-29.75-8.68-59.94-9.95-90.2-1.2-28.57-2.11-57.2-1.62-85.78.78-44.82 3.13-89.55 11.23-133.86 6.84-37.42 32.93-69.47 81.74-75.36 39.76-4.8 79.65-7.01 119.62-8.16 32.27-.93 64.55-2.12 96.83-2.01 54.7.18 109.42.47 164.07 2.3 38.58 1.29 77.13 4.56 115.58 8.15 35.58 3.33 62.31 20.81 75.91 54.73 4.48 11.18 6.65 23.47 8.58 35.47 5.88 36.57 7.49 73.52 8.58 110.5 1.45 48.91-.48 97.69-5.67 146.32a383.936 383.936 0 0 1-6.76 41.56c-8.45 38.56-35.23 64.23-74.52 69.16-32.99 4.14-66.23 6.83-99.45 8.35-44.44 2.03-88.96 2.32-133.44 3.3-7.02.15-14.05.02-21.07.02-.02.58-.03 1.16-.05 1.74Zm107.83-241.74c-59.37-33.71-118.01-67-177.06-100.53v201.06c59.14-33.58 117.69-66.82 177.06-100.53Z" style="fill:#fff"/></svg>