<svg id="レイヤー_1" data-name="レイヤー 1" xmlns="http://www.w3.org/2000/svg" viewBox="0 0 714 421"><defs><style>.cls-1{isolation:isolate;}.cls-2{fill:none;stroke:#fff;}</style></defs><g class="cls-1"><g class="cls-1"><path class="cls-2" d="M96,133.38A191.6,191.6,0,0,1,71.45,135c-28.84,0-40.13-11.29-40.13-25.65a25.54,25.54,0,0,1,4.56-14.71L6.36,95.76V77.64L13,76.38,49.22,58H18.67V37.17H93.23v17.1L58.57,73.19l46.74-1.71V92.34l-27.93.92C65.3,93.37,56.52,99.07,56.52,105c0,5.7,4.79,8.66,17.44,8.66a154,154,0,0,0,22-1.94Z"/><path class="cls-2" d="M218.85,127.57a59.47,59.47,0,0,1-16,2.62c-11.4,0-19.49-5.36-19.49-20.86V76.5c0-5.59-1.14-10-6-10-6.16,0-14.71,8.78-19.72,15v53.7H135.75V105.68A138.37,138.37,0,0,1,117.62,123V94.85a169.68,169.68,0,0,0,18.13-20.06V73.65H117.62V52.79h18.13V35.46h22V53.13c5.24-4.56,13.68-9.8,23.6-9.8,17.1,0,24.39,9.91,24.39,25.76v32.26c0,3.88,1.6,5.24,4.45,5.24,2.28,0,4.9-.91,8.66-1.93Z"/><path class="cls-2" d="M303.22,134.18c-1.94.12-3.88.12-5.7.12-41.39,0-58.14-17.9-58.14-39.56,0-15.51,6.84-24.85,16.18-32.72l-38.41,1.37V41.27l95.3-1.36v22h-.91c-24.51,0-48.45,13.56-48.45,29.64,0,17.21,18,20,40.13,20ZM287.37,81.4V66.7h13.22V81.4Zm16.07,0V66.7h13.34V81.4Z"/><path class="cls-2" d="M426.34,87.67c0,24.74-12.43,47.42-45.38,47.42-21.08,0-36.13-7.86-36.13-28.95v-1.37l.45-13.22H326.82V71.48H346l.22-5.81H326.82V45.61h20.06L347.33,35h23l-.45,10.61h46.51V65.67H369.11l-.23,5.81h47.54V87.67Zm-58.26,3.88-.34,10.14v.8c0,7.87,4.67,11.06,14.36,11.06,14.6,0,19.61-10,21-22Z"/><path class="cls-2" d="M449,136.8a200.12,200.12,0,0,0-18.81-30.32h26.91a266.54,266.54,0,0,1,18.69,30.44Z"/></g><g class="cls-1"><path class="cls-2" d="M103.6,268.55c-13.8-1-25-5.59-31.92-13.34-8.32,10.15-22.12,12.43-31.58,13.34l-4.56-18.7c7.87,0,14.94-.91,19.72-3.42H37v-14.7H60.28a12.14,12.14,0,0,0,.11-1.94H39.53V216.91h21V215H38.16V200.61H48.31l-1.6-4.9H37V185.22a25.05,25.05,0,0,1-1.82,4.56v78.77H13.54V222.72a53.23,53.23,0,0,1-4.33,5.59L6.59,198.1a125.69,125.69,0,0,0,13.68-32l21.54,3.64-.57,1.94,10.26-4.56a9.53,9.53,0,0,1,.57,1.71,66.31,66.31,0,0,1,3.19,12.66V166H71.79v15.39h1.6V166H89.92v15.51a91.92,91.92,0,0,0,3.76-14.37l14.48,4.68a69.08,69.08,0,0,1-4.11,9.57h3.54v14.37H98.47l-1.6,4.9h9.58V215H81.94v1.94h23.14v12.88H81.94v1.94h25.65v14.7H86.73c5.47,2.63,12.76,3.31,22.57,3.31ZM41.93,181.34a19,19,0,0,0-2.28-3.88c-.46,1.26-.8,2.63-1.26,3.88Zm35.9,14.37H67.35l1.59,4.9h7.3Z"/><path class="cls-2" d="M135.63,243a223.32,223.32,0,0,0,29.3,1.83c14.59,0,29.07-4.22,29.07-13.68,0-6-5.24-9.24-15.16-9.24-16.3,0-31.58,9-36.14,16H122.64l2.85-44.23h23.25l-2.28,17.67c6.39-4.9,18.81-9.91,34.43-9.91,24.05,0,37.16,11.28,37.16,29.29,0,22.35-19.26,35.23-52.21,35.23a270.08,270.08,0,0,1-30.21-1.6Zm71.71-50.27c-21.55-1.71-58.94-2.39-76.27-2.39V169.83c19.84,0,54.27.45,76.27,1.71Z"/></g><g class="cls-1"><path class="cls-2" d="M234.32,269.38c-.49-7.07-.7-14.56-.7-22.13,0-13,.84-25.69,2-37.59h14A362,362,0,0,0,247.34,247c0,7.28.21,14.57.7,22.41ZM291,266.65a97.57,97.57,0,0,1-16,1.61c-16,0-25.07-4.48-25.07-16.74,0-6,2.45-11.41,4.83-15.26h14.71c-3.23,4.2-6,8.89-6,12.81s4.27,5.6,11.77,5.6A80.2,80.2,0,0,0,291,252.85ZM252.8,227V213.65h37V227Z"/><path class="cls-2" d="M299.14,269.38c-.35-7.14-.56-14.5-.56-22.13,0-13,.42-25.69,1.61-37.52H314c-1.12,12.18-1.89,24.5-1.89,37.24,0,7.28.21,14.64.77,22.41Zm59.72-4.13a117.55,117.55,0,0,0-10.08-6.86c-1.26,8.33-6.79,11.9-16.95,11.9-9.59,0-18.06-4.55-18.06-15.62,0-7.77,6.23-14.28,17.5-14.28,1.33,0,2.73.07,4.14.21v-9.1H315.52V218.9h19.89v-9.17H349v9.17h8.75v12.6H349v12.32a46.25,46.25,0,0,1,9.87,5.11Zm-23.45-13a18.88,18.88,0,0,0-3.65-.49c-3.78,0-5.6,1.33-5.6,3.23s2.1,3.08,5.11,3.08c3.57,0,4.14-2.8,4.14-5.12Z"/></g><g class="cls-1"><path class="cls-2" d="M94.37,335.77c-3.31,43.09-29.87,64.64-72.17,65.1V380.12c31.24-2.51,46-16.87,48.23-44.35H39A69.68,69.68,0,0,1,5.9,363.59V340.1c12.09-8.77,18.24-20.74,21.43-38.87H50.59a112.47,112.47,0,0,1-2.51,13.23h61.11v21.31ZM78.63,311.49V297H92.09v14.48Zm16.19,0V297h13.45v14.48Z"/><path class="cls-2" d="M118.42,357.32V335.09h95.42v22.23Z"/><path class="cls-2" d="M218.74,398.93V379.21c6.73-13.11,21.09-55.41,26.11-76h25.08a532.35,532.35,0,0,1-25.42,74.21h44.8c-4.68-14.48-12.54-30.78-18.7-45.26h25.77c8.43,19.61,17.32,40.36,24.85,66.92Z"/></g><g class="cls-1"><path class="cls-2" d="M362.1,388a39.84,39.84,0,0,0,8.12,1.54c5.11,0,5.53-6.45,5.53-17.16,0-6.72-1.4-7.28-5.74-7.28H366c-2.66,13.37-5.74,25.69-9,37.18H341.73a222.06,222.06,0,0,0,10.43-37.18h-9.38V352.32h11.48c.42-3.29.84-6.58,1.12-9.8H369.8c-.49,3.36-1.05,6.58-1.54,9.8h5.88c10.44,0,16,2.31,16,20,0,23.32-4.27,30.53-17.93,30.53a43.65,43.65,0,0,1-10.08-1.47Zm22.27-38.51v-9h8.12v9Zm9,30.38c0-10.15-1-19.6-6.16-28.56h14.28c4,8.26,5.6,19.46,5.6,28.56Zm.84-30.38v-9h8.19v9Z"/></g><g class="cls-1"><path class="cls-2" d="M458.22,389.18c-6.73,6-14.69,10.41-24.28,10.41-10.61,0-21.32-6.12-21.32-24.79,0-11,6.43-25.5,24.38-32.33,0-1.74-.1-3.37-.1-5.21H416.19V319H436.9v-7.34H456V319h42.63v17.35H455.47v2.44c1.63-.1,3.36-.1,5.1-.1,30.9,0,41.61,14.49,41.61,30.09,0,25.71-19.17,33.46-44,33.46Zm-20.4-28.46a17.26,17.26,0,0,0-7,14.08c0,4.18,2.14,6.22,5.1,6.22a9.45,9.45,0,0,0,5.2-2.14C439.55,374.29,438.53,368.27,437.82,360.72Zm22-6.42c-1.32,0-2.75,0-4.08.1.1,4.49.41,8.06.61,10.71,2-3.36,3.68-6.94,5.61-10.81Zm4,29c11.83-1.33,18.36-5.82,18.36-14.79a11.8,11.8,0,0,0-3.67-9C475.05,366.54,470.26,375.41,463.83,383.27Z"/><path class="cls-2" d="M569.09,382.25c6.13-2.35,10.41-6.53,10.41-12.75,0-7.75-9.59-11.43-19.58-11.43h-1.13c-10.1,0-21.11.31-45.49,16.53v-21l37.94-21.11H521.56V314.21h66.71v16l-20.4,12.24a9.48,9.48,0,0,1,1.33-.21c17.13,0,31.21,8.16,31.21,27.14,0,19.68-17.14,32.64-43.45,32.64-20.71,0-34.58-7.55-34.58-21.12,0-8.36,7.34-16.83,22.54-16.83,13,0,22.54,5.92,24.17,7.24ZM545,378.88c-2.65,0-4.18.51-4.18,1.53,0,3,9.79,4,14.89,4,1.63,0,3.16-.1,4.8-.1C555.63,381.43,549.71,378.88,545,378.88Z"/><path class="cls-2" d="M608,385.51A17.44,17.44,0,1,1,625.5,403,17.48,17.48,0,0,1,608,385.51Zm17.54-5.2a5.26,5.26,0,0,0,0,10.51,5.34,5.34,0,0,0,5.31-5.31A5.46,5.46,0,0,0,625.5,380.31Z"/></g></g></svg>