<svg xmlns="http://www.w3.org/2000/svg" viewBox="0 0 143.24 33.44"><g data-name="レイヤー 2"><path d="M25.56 33.44h-5.4v-7.92a34.88 34.88 0 01-6.88 6.55 11.18 11.18 0 00-3.67-3.56v4.93H4.18V16.67a8.16 8.16 0 01-1 1.11A11.94 11.94 0 000 13.43 49.14 49.14 0 007.09 0L12 1.87a.78.78 0 01.58.72c0 .36-.54.51-.87.51-.5 1.18-.72 1.62-2.52 5.25l.58.22c.21.07.61.25.61.68 0 .25-.36.47-.72.61v18.29a23.64 23.64 0 007-6.8h-5.9v-4.9h9.43v-2.59h-6.91V1.12h19.19v12.74h-6.12c0 .29-.22.47-.79.72v1.87h8.64v4.9h-6.38A32.27 32.27 0 0035.53 28 14.35 14.35 0 0032 32a33.79 33.79 0 01-6.4-5.75zm-6.73-28v3.92h8V5.47zM70 4.25v4.64H51.59a30.11 30.11 0 01-3.75 5.9v18.4h-5.11V19.87c-1.44 1-2 1.4-2.73 1.84a15.75 15.75 0 00-3.82-3.78 26.49 26.49 0 006.55-4.72v-2.38l1.8.37A14.47 14.47 0 0046 8.89h-8V4.25h9.82a17.79 17.79 0 00.83-4l5.62.72c.21 0 .68.14.68.54s-.47.61-1.12.86c-.28 1.08-.39 1.4-.54 1.91zm0 14.47v4.57h-7.11v6.19c0 3.1-2.41 3.53-7.34 3.6a12.32 12.32 0 00-1.84-5.4 19.62 19.62 0 002.95.32c.33 0 1.05 0 1.05-1.08v-3.63h-8.54v-4.57h8.54v-2.85l.68.08a5.45 5.45 0 001-1h-8.45V10.4H67l2.09 2.2a57.55 57.55 0 01-6.19 5.33v.79zm36.45-13.54v5.15H90.93c0 1.33-.14 2.27-.21 3h11.37c0 12.17-.68 15.48-3.24 18-1.83 1.84-5.76 2-7.09 2a9.17 9.17 0 00-2.66-5.65c1 .15 3.42.54 3.78.54a2.66 2.66 0 002.88-2.09 25 25 0 001-7.84h-7a24.29 24.29 0 01-13 15.11c-.87-1.36-2.67-3.34-4.43-3.88 6.41-2 13.1-7.24 13.1-19.19H73.55V5.18h13.53v-5l5.76.32c.22 0 .65.11.65.5s-.4.54-.65.65v3.53zm4.97 3.96a45.1 45.1 0 015.72 4.47 18.48 18.48 0 00-2.91 3.7 47.93 47.93 0 00-5.73-4.39zM108.54 30c1.8-2.12 4.36-7.27 5.58-11.12a11.52 11.52 0 004.17 2.59 55.82 55.82 0 01-4.64 10.73 1 1 0 01.11.47.51.51 0 01-.5.47 1.4 1.4 0 01-.69-.26zM113.83.22a25.09 25.09 0 015.58 4.68c-1.69 1.83-1.87 2.1-3.41 3.88a31.9 31.9 0 00-5.47-5zm22.07 19.15a45.6 45.6 0 017.34 11 18.28 18.28 0 00-4.54 2.81c-.75-1.55-1.15-2.34-1.83-3.56A103.41 103.41 0 01121 32c-.15.32-.33.72-.76.72s-.5-.43-.61-.86l-1.15-4.94c1.65 0 2.73 0 4-.1a60.88 60.88 0 003.46-8h-7.49v-4.67h9.25v-4h-7.42V5.51h7.42V.25l5.58.11c.57 0 1 .07 1 .5s-.36.51-1.05.76v3.89h8v4.64h-8v4h9.4v4.71h-9.58a.29.29 0 01.08.25c0 .51-1 .72-1.52.8-.72 1.69-1.58 3.38-3.16 6.47a48.42 48.42 0 005.93-.86 16.75 16.75 0 00-2.62-3.52z" fill="#ff9600" data-name="バナーダウンロード"/></g></svg>