<svg xmlns="http://www.w3.org/2000/svg" width="60.02mm" height="58.21mm" viewBox="0 0 170.12 165.01"><defs><style>.cls-1{fill:#231815;}.cls-2{fill:#fce4d6;}.cls-3,.cls-4{fill:#e60012;}.cls-4{stroke:#e60012;stroke-miterlimit:10;stroke-width:0.58px;}</style></defs><g id="レイヤー_2" data-name="レイヤー 2"><g id="レイヤー_1-2" data-name="レイヤー 1"><path class="cls-1" d="M85.17,17.8C59.59,17.8,59.43,54.64,67.56,77c2.9,8,5.33,12.77,7.67,15.71H95.1C97.44,89.76,99.86,85,102.76,77,110.9,54.64,110.73,17.8,85.17,17.8ZM98,57.65a79.31,79.31,0,0,1-3.13,18.19A101.54,101.54,0,0,1,91,87H79.35a104.14,104.14,0,0,1-3.89-11.19c-4.26-14.31-4.5-31.44.2-40.5,1.39-2.69,3.76-6.42,9.51-6.42s8.13,3.73,9.52,6.42C97.44,40.65,98.5,48.87,98,57.65Z"/><path class="cls-1" d="M60.69,92.7h6a85.74,85.74,0,0,1-14-39.16,8.46,8.46,0,0,1,8.13,3.55s-.3-3-.35-6c-.06-3.4.09-5.24.09-5.24a14,14,0,0,0-9.63-2.3c-17.58,2.07-15.18,33.83-4.79,49.1H52c-6.85-10.83-8.09-26.86-5.83-33.25A91.53,91.53,0,0,0,60.69,92.7Z"/><polygon class="cls-1" points="55.04 37.12 59.9 33.68 53.93 33.68 52.11 28.02 50.3 33.68 44.32 33.68 49.19 37.12 47.35 42.84 52.11 39.28 56.89 42.84 55.04 37.12"/><polygon class="cls-1" points="88.11 10.45 92.96 7 86.99 7 85.17 1.35 83.35 7 77.38 7 82.24 10.45 80.4 16.17 85.17 12.6 89.94 16.17 88.11 10.45"/><polygon class="cls-1" points="121.15 37.12 126 33.68 120.04 33.68 118.21 28.02 116.39 33.68 110.42 33.68 115.29 37.12 113.45 42.84 118.21 39.28 122.98 42.84 121.15 37.12"/><path class="cls-1" d="M132.91,69.87a29.28,29.28,0,0,0-.9-17.53c-4.43-11-17.52-10.29-22.26-6.44a85.21,85.21,0,0,1-.24,11.19c5.53-8,18.37-4.22,15.93,6-2,8.42-14.43,7.61-16.67-.62A75,75,0,0,1,107,71.23c2.32,5.31,12.25,7.35,17.72,3.94A52.89,52.89,0,0,1,112.59,92.7h6S129.56,83.46,132.91,69.87Z"/><path class="cls-2" d="M83.82,16.45c-25.58,0-25.74,36.84-17.61,59.19,2.91,8,5.33,12.77,7.67,15.71H93.75c2.34-2.94,4.76-7.74,7.66-15.71C109.55,53.29,109.38,16.45,83.82,16.45ZM96.67,56.3a78.77,78.77,0,0,1-3.13,18.19,102,102,0,0,1-3.89,11.19H78a104.14,104.14,0,0,1-3.89-11.19c-4.26-14.31-4.5-31.44.2-40.5,1.39-2.69,3.76-6.42,9.51-6.42S92,31.3,93.34,34C96.09,39.3,97.16,47.51,96.67,56.3Z"/><path class="cls-2" d="M59.34,91.35h6a85.74,85.74,0,0,1-14-39.16,8.46,8.46,0,0,1,8.13,3.55s-.3-3-.35-6c-.06-3.4.09-5.24.09-5.24a14,14,0,0,0-9.63-2.3C32,44.32,34.39,76.08,44.78,91.35h5.9C43.83,80.52,42.6,64.49,44.84,58.1A91.64,91.64,0,0,0,59.34,91.35Z"/><polygon class="cls-2" points="53.69 35.77 58.55 32.33 52.58 32.33 50.76 26.67 48.95 32.33 42.97 32.33 47.84 35.77 46 41.49 50.76 37.93 55.54 41.49 53.69 35.77"/><polygon class="cls-2" points="86.76 9.1 91.61 5.65 85.64 5.65 83.82 0 82 5.65 76.03 5.65 80.89 9.1 79.05 14.82 83.82 11.25 88.59 14.82 86.76 9.1"/><polygon class="cls-2" points="119.8 35.77 124.66 32.33 118.69 32.33 116.86 26.67 115.05 32.33 109.08 32.33 113.94 35.77 112.1 41.49 116.86 37.93 121.63 41.49 119.8 35.77"/><path class="cls-2" d="M131.57,68.52A29.37,29.37,0,0,0,130.66,51c-4.43-11-17.52-10.29-22.26-6.44a85.21,85.21,0,0,1-.24,11.19c5.53-8,18.37-4.22,15.93,6-2,8.42-14.43,7.61-16.67-.62a75,75,0,0,1-1.82,8.72c2.32,5.31,12.25,7.35,17.72,3.94a52.88,52.88,0,0,1-12.09,17.53h6S128.21,82.11,131.57,68.52Z"/><path class="cls-3" d="M84.49,17.13C58.92,17.13,58.75,54,66.88,76.31c2.91,8,5.33,12.78,7.67,15.71H94.43c2.33-2.93,4.76-7.73,7.66-15.71C110.23,54,110.06,17.13,84.49,17.13ZM97.35,57a79.39,79.39,0,0,1-3.13,18.2,105.33,105.33,0,0,1-3.9,11.19H78.67a108.58,108.58,0,0,1-3.88-11.19c-4.26-14.32-4.5-31.44.2-40.5,1.38-2.69,3.76-6.42,9.51-6.42S92.62,32,94,34.67C96.77,40,97.83,48.19,97.35,57Z"/><path class="cls-3" d="M60,92h6A85.66,85.66,0,0,1,52,52.86a8.49,8.49,0,0,1,8.14,3.55s-.3-2.94-.36-5.95c-.05-3.4.1-5.23.1-5.23a13.9,13.9,0,0,0-9.64-2.31C32.67,45,35.06,76.76,45.46,92h5.89c-6.85-10.83-8.08-26.85-5.83-33.24A91.65,91.65,0,0,0,60,92Z"/><polygon class="cls-3" points="54.36 36.45 59.23 33 53.26 33 51.44 27.34 49.62 33 43.65 33 48.52 36.45 46.67 42.16 51.44 38.6 56.21 42.16 54.36 36.45"/><polygon class="cls-3" points="87.43 9.78 92.28 6.33 86.32 6.33 84.5 0.67 82.68 6.33 76.71 6.33 81.57 9.78 79.72 15.49 84.5 11.93 89.26 15.49 87.43 9.78"/><polygon class="cls-3" points="120.47 36.45 125.33 33 119.36 33 117.54 27.34 115.72 33 109.75 33 114.62 36.45 112.77 42.16 117.54 38.6 122.31 42.16 120.47 36.45"/><path class="cls-3" d="M132.24,69.19a29.29,29.29,0,0,0-.91-17.53c-4.42-10.95-17.51-10.28-22.25-6.43a86.15,86.15,0,0,1-.25,11.18c5.53-8,18.38-4.22,15.93,6-2,8.42-14.42,7.62-16.66-.61a77.43,77.43,0,0,1-1.82,8.72c2.31,5.3,12.25,7.35,17.71,3.94A52.56,52.56,0,0,1,111.91,92h6S128.88,82.79,132.24,69.19Z"/><path class="cls-4" d="M18.52,109.42v-1.87a5.23,5.23,0,0,0,1.49,1,4,4,0,0,0,1.6.32,1.86,1.86,0,0,0,1.58-.59,3.85,3.85,0,0,0,.45-2.21V99.38h-3V98h4.63v8a4.74,4.74,0,0,1-.84,3.18,3.61,3.61,0,0,1-2.79.93,7.15,7.15,0,0,1-1.52-.17A8.7,8.7,0,0,1,18.52,109.42Z"/><path class="cls-4" d="M30.38,98h1.94l3.62,11.88H34.28l-.87-3.1H29.27l-.86,3.1H26.75Zm1,1.42-1.69,6.07H33Z"/><path class="cls-4" d="M37.8,98h3.45a4.39,4.39,0,0,1,3,.91,4,4,0,0,1,0,5.3,4.42,4.42,0,0,1-3,.9H39.4v4.77H37.8Zm1.6,1.32v4.46h1.85a2.46,2.46,0,0,0,1.74-.58,2.2,2.2,0,0,0,.62-1.65A2.16,2.16,0,0,0,43,99.94a2.43,2.43,0,0,0-1.74-.59Z"/><path class="cls-4" d="M48.3,98h1.94l3.63,11.88H52.21l-.87-3.1H47.19l-.85,3.1H44.68Zm1,1.42-1.69,6.07H51Z"/><path class="cls-4" d="M55.61,98.07H57.8l4.63,9.75V98.07h1.7v11.84H61.94l-4.63-9.75v9.75h-1.7Z"/><path class="cls-4" d="M71.58,98h9v1.35h-3.7v10.53H75.3V99.38H71.58Z"/><path class="cls-4" d="M89.83,104a8.65,8.65,0,0,1-1,4.63,3.67,3.67,0,0,1-6,0,8.73,8.73,0,0,1-1-4.64,8.78,8.78,0,0,1,1-4.64,3.68,3.68,0,0,1,6,0A8.69,8.69,0,0,1,89.83,104Zm-1.67,0a9.34,9.34,0,0,0-.54-3.74,1.93,1.93,0,0,0-3.5,0,9.37,9.37,0,0,0-.53,3.74,9.32,9.32,0,0,0,.53,3.73,1.93,1.93,0,0,0,3.5,0A9.3,9.3,0,0,0,88.16,104Z"/><path class="cls-4" d="M91.05,98h1.71l2.88,5.24L98.52,98h1.72l-3.8,6.55v5.33h-1.6v-5.33Z"/><path class="cls-4" d="M107.65,98h1.94l3.62,11.88h-1.65l-.88-3.1h-4.14l-.86,3.1H104Zm1,1.42-1.68,6.07h3.37Z"/><path class="cls-4" d="M113.51,98h1.56l1.13,9.64,1.35-6.38h1.67l1.37,6.4L121.72,98h1.56l-1.77,11.88H120l-1.61-7.06-1.6,7.06h-1.52Z"/><path class="cls-4" d="M127.2,98h1.94l3.62,11.88h-1.65l-.88-3.1h-4.14l-.86,3.1h-1.66Zm1,1.42-1.68,6.07h3.37Z"/><path class="cls-4" d="M139.08,104.3a2.39,2.39,0,0,1,1.06.6,7.43,7.43,0,0,1,1.08,1.76l1.61,3.25h-1.72l-1.41-3a4.77,4.77,0,0,0-1.1-1.65,2,2,0,0,0-1.27-.37H135.8v5h-1.61V98h3.3a4.48,4.48,0,0,1,3,.89,3.15,3.15,0,0,1,1,2.55,2.89,2.89,0,0,1-.64,1.92A2.79,2.79,0,0,1,139.08,104.3Zm-3.28-5v4.22h1.75a2.41,2.41,0,0,0,1.71-.52,2,2,0,0,0,.57-1.58,2,2,0,0,0-.6-1.57,2.47,2.47,0,0,0-1.74-.55Z"/><path class="cls-4" d="M146.32,98a5.07,5.07,0,0,1,4,1.45,6.7,6.7,0,0,1,1.28,4.5,6.62,6.62,0,0,1-1.28,4.48,5.07,5.07,0,0,1-4,1.45h-2.4V98Zm0,10.56a3.44,3.44,0,0,0,2.82-1,6,6,0,0,0,.8-3.61,6,6,0,0,0-.8-3.63,3.44,3.44,0,0,0-2.82-1h-.76v9.24Z"/><path class="cls-1" d="M121.69,132.37h-2.55l.69-1.41a.5.5,0,0,0-.23-.64l-1.72-.84a.49.49,0,0,0-.65.21l-.84,1.73a.48.48,0,0,0,.22.64l.63.31h-2.77V130a.47.47,0,0,0-.48-.47h-1.92a.47.47,0,0,0-.47.47v2.42h-2.47a.48.48,0,0,0-.49.47v1.92a.49.49,0,0,0,.49.48h2.47v6.25a.48.48,0,0,0,.47.48H114a.48.48,0,0,0,.48-.48v-6.25h4.83v1.65h-2.43a.48.48,0,0,0-.48.48v1.92a.48.48,0,0,0,.48.47h4.82a.47.47,0,0,0,.48-.47v-6.45A.47.47,0,0,0,121.69,132.37Z"/><path class="cls-1" d="M103,126.55a.49.49,0,0,0,.48-.48v-1.92a.48.48,0,0,0-.48-.48H95.55V119.9a.49.49,0,0,0-.48-.48H93.15a.48.48,0,0,0-.47.48v3.77H88.57a.48.48,0,0,0-.49.48v1.92a.49.49,0,0,0,.49.48h4.11v5.27a.47.47,0,0,0,.47.48h7.38v6.79H93.15a.47.47,0,0,0-.47.49v1.91a.47.47,0,0,0,.47.47h9.78a.49.49,0,0,0,.49-.48V129.91a.49.49,0,0,0-.49-.49H95.55v-2.87Z"/><path class="cls-1" d="M84.77,136.66a.48.48,0,0,0-.47-.48H82.38a.48.48,0,0,0-.48.48v2.43H75.05V132.3h6a.47.47,0,0,0,.47-.48v-1.91a.48.48,0,0,0-.47-.49h-6v-2.87h6a.48.48,0,0,0,.47-.48v-1.92a.47.47,0,0,0-.47-.48h-6V119.9a.49.49,0,0,0-.48-.48H72.65a.49.49,0,0,0-.48.48v3.77h-4a.47.47,0,0,0-.47.48v1.92a.48.48,0,0,0,.47.48h4v2.87h-4a.48.48,0,0,0-.47.49v1.91a.47.47,0,0,0,.47.48h4v9.19a.49.49,0,0,0,.48.48H84.3a.48.48,0,0,0,.47-.48Z"/><path class="cls-1" d="M61.25,122.21l-3.07-2.79a.48.48,0,0,0-.67,0l-1.29,1.42a.49.49,0,0,0,0,.68l2.33,2.12H54.12V119.9a.49.49,0,0,0-.49-.48H51.71a.49.49,0,0,0-.48.48v3.77H45.77a.48.48,0,0,0-.47.48v1.92a.48.48,0,0,0,.47.48h5.46v4.09H45.77a.37.37,0,0,0-.18,0,.47.47,0,0,0-.3.44v10.37a.49.49,0,0,0,.48.48h7.86a.49.49,0,0,0,.49-.48v-8h5.1v5.57H57.47a.47.47,0,0,0-.47.49v1.91a.47.47,0,0,0,.47.48h4.15a.49.49,0,0,0,.48-.48V131.12a.47.47,0,0,0-.29-.44.43.43,0,0,0-.19,0h-7.5v-4.09h7.51a.49.49,0,0,0,.48-.48v-1.92a.48.48,0,0,0-.48-.48H60.58l.71-.78A.48.48,0,0,0,61.25,122.21Zm-10,16.88H48.16v-5.57h3.07Z"/><path class="cls-1" d="M15.42,121.61h0a.48.48,0,0,0-.48-.48H.47a.48.48,0,0,0-.47.48v19.77a.48.48,0,0,0,.47.48H14.93a.48.48,0,0,0,.48-.48v0h0Zm-2.89,8.25H5.82a.48.48,0,0,0-.48.48v1.92h0a.47.47,0,0,0,.48.48h6.71V139H2.89V124h9.64Z"/><path class="cls-1" d="M154.29,121.91h1.93a.48.48,0,0,0,.47-.48v-1.6a.47.47,0,0,0-.47-.48h-1.93a.48.48,0,0,0-.48.48v1.6A.49.49,0,0,0,154.29,121.91Zm9.6,0h1.91a.49.49,0,0,0,.49-.48v-1.6a.48.48,0,0,0-.49-.48h-1.91a.48.48,0,0,0-.49.48v1.6A.49.49,0,0,0,163.89,121.91Zm1.92,7.05a.47.47,0,0,0,.48-.47v-2.88a.47.47,0,0,0-.48-.48H154.34a.47.47,0,0,0-.48.48v2.88a.47.47,0,0,0,.48.47Zm-9.36-2.48h7.23v1.13h-7.23Zm13.2-3.92h-8.17v-2.73a.47.47,0,0,0-.47-.48H159.1a.48.48,0,0,0-.49.48v2.73H150.5a.49.49,0,0,0-.49.48v4.17a.49.49,0,0,0,.49.49h1.91a.48.48,0,0,0,.48-.49v-2.89h14.36v2.89a.48.48,0,0,0,.48.49h1.92a.47.47,0,0,0,.47-.49V123A.47.47,0,0,0,169.65,122.56ZM167,129.79H153a.48.48,0,0,0-.48.47v8.17a.48.48,0,0,0,.48.48h2.24l-2,1.54a.47.47,0,0,0-.08.67l1.16,1.52h0a.49.49,0,0,0,.68.09l2.28-1.75a.49.49,0,0,0,.09-.68l-1.07-1.39h7.42l-1.06,1.39a.48.48,0,0,0,.08.68l2.28,1.75a.49.49,0,0,0,.68-.09l1.17-1.52a.49.49,0,0,0-.09-.67l-2-1.54H167a.47.47,0,0,0,.48-.48v-8.17A.47.47,0,0,0,167,129.79Zm-2.2,7.71h-9.53v-1.14h9.53Zm0-2.56h-9.53v-1.16h9.53Zm0-2.59h-9.53v-1.14h9.53Z"/><path class="cls-1" d="M27.87,130.15l-1.72-.85a.48.48,0,0,0-.65.21l-1.79,3.57a3.53,3.53,0,0,1-.56.77l-3,3a.5.5,0,0,0,0,.68l1.33,1.38a.48.48,0,0,0,.68,0l3.39-3.34a3.21,3.21,0,0,0,.55-.76l2-4A.48.48,0,0,0,27.87,130.15Zm6,6.5H31.69v-10.1h7.64a.48.48,0,0,0,.48-.48v-1.92a.47.47,0,0,0-.48-.48H31.69v-3.75a.5.5,0,0,0-.49-.48H29.29a.49.49,0,0,0-.48.48v3.75H21.17a.48.48,0,0,0-.49.48v1.92a.49.49,0,0,0,.49.48h7.64v10.1H26.62a.48.48,0,0,0-.48.48v1.92a.47.47,0,0,0,.48.48h2.19v2.85a.48.48,0,0,0,.48.47H31.2a.49.49,0,0,0,.49-.47v-2.85h2.19a.48.48,0,0,0,.48-.48v-1.92A.49.49,0,0,0,33.88,136.65Zm6.5.17-3-3a3.23,3.23,0,0,1-.56-.77L35,129.51a.49.49,0,0,0-.65-.21l-1.72.85a.48.48,0,0,0-.22.64l2,4a3.25,3.25,0,0,0,.56.76l3.38,3.34a.48.48,0,0,0,.68,0l1.34-1.38A.5.5,0,0,0,40.38,136.82Z"/><path class="cls-1" d="M145.66,123.67h-8.47v-3.82a.48.48,0,0,0-.48-.49H134.8a.5.5,0,0,0-.49.49v3.82h-8.45a.48.48,0,0,0-.49.48v1.92a.49.49,0,0,0,.49.48h8.45v2.24a1.71,1.71,0,0,1-.27.87L126.31,141a.48.48,0,0,0,.13.66l1.57,1.1a.48.48,0,0,0,.67-.13l6.8-10a.31.31,0,0,1,.54,0l6.81,10a.48.48,0,0,0,.67.13l1.57-1.1a.47.47,0,0,0,.12-.66l-7.72-11.32a1.82,1.82,0,0,1-.28-.87v-2.24h8.47a.49.49,0,0,0,.48-.48v-1.92A.48.48,0,0,0,145.66,123.67Z"/><path d="M65.92,158.55a.35.35,0,0,0,.37-.31V150.5a.34.34,0,0,0-.37-.29H54.54c-.21,0-.39.12-.39.29v1.3a.38.38,0,0,0,.39.31h9.4v4.58h-9.4c-.21,0-.39.1-.39.28v7.74a.35.35,0,0,0,.39.3H65.92a.35.35,0,0,0,.37-.3v-1.24a.36.36,0,0,0-.37-.34H56.51v-4.58Z"/><path d="M99.34,158.55a.35.35,0,0,0,.37-.31V150.5a.34.34,0,0,0-.37-.29H88c-.21,0-.39.12-.39.29v1.3a.38.38,0,0,0,.39.31h9.4v4.58H88c-.21,0-.39.1-.39.28v7.74a.35.35,0,0,0,.39.3H99.34a.35.35,0,0,0,.37-.3v-1.24a.36.36,0,0,0-.37-.34H89.93v-4.58Z"/><path d="M115.61,158.55a.35.35,0,0,0,.37-.31V150.5a.34.34,0,0,0-.37-.29H104.22c-.2,0-.39.12-.39.29v1.3a.39.39,0,0,0,.39.31h9.41v4.58h-9.41c-.2,0-.39.1-.39.28v7.74c0,.17.19.3.39.3h11.39a.35.35,0,0,0,.37-.3v-1.24a.36.36,0,0,0-.37-.34H106.2v-4.58Z"/><path d="M82.61,150.21H71.26c-.21,0-.37.12-.37.29v14.21a.33.33,0,0,0,.37.3H82.61c.24,0,.4-.13.4-.3V150.5C83,150.33,82.85,150.21,82.61,150.21Zm-1.93,1.9v11H73.27v-11Z"/></g></g></svg>