<svg id="レイヤー_1" data-name="レイヤー 1" xmlns="http://www.w3.org/2000/svg" xmlns:xlink="http://www.w3.org/1999/xlink" viewBox="0 0 376.2 225.6"><defs><style>.cls-1{fill:url(#名称未設定グラデーション);}.cls-2{fill:url(#名称未設定グラデーション_6);}.cls-3{fill:url(#名称未設定グラデーション_8);}.cls-4{fill:url(#名称未設定グラデーション_13);}.cls-5{fill:url(#名称未設定グラデーション_14);}.cls-6{fill:url(#名称未設定グラデーション_15);}.cls-7{fill:url(#名称未設定グラデーション_16);}.cls-8{fill:url(#名称未設定グラデーション_17);}.cls-9{fill:url(#名称未設定グラデーション_18);}.cls-10{fill:url(#名称未設定グラデーション_19);}.cls-11{fill:url(#名称未設定グラデーション_20);}.cls-12{fill:url(#名称未設定グラデーション_21);}.cls-13{fill:url(#名称未設定グラデーション_23);}.cls-14{fill:url(#名称未設定グラデーション_24);}.cls-15{fill:url(#名称未設定グラデーション_25);}.cls-16{fill:url(#名称未設定グラデーション_25-2);}.cls-17{fill:url(#名称未設定グラデーション_26);}.cls-18{fill:url(#名称未設定グラデーション_27);}.cls-19{fill:url(#名称未設定グラデーション_28);}.cls-20{fill:url(#名称未設定グラデーション_29);}.cls-21{fill:url(#名称未設定グラデーション_30);}.cls-22{fill:url(#名称未設定グラデーション_31);}</style><linearGradient id="名称未設定グラデーション" x1="12.33" y1="-238.12" x2="348.57" y2="-238.12" gradientTransform="matrix(1, 0, 0, -1, 0, -216.72)" gradientUnits="userSpaceOnUse"><stop offset="0" stop-color="#3bd1ff"/><stop offset="0.54" stop-color="#00f0a4"/><stop offset="1" stop-color="#04ff00"/></linearGradient><linearGradient id="名称未設定グラデーション_6" x1="12.33" y1="-302.42" x2="348.57" y2="-302.42" xlink:href="#名称未設定グラデーション"/><linearGradient id="名称未設定グラデーション_8" x1="12.33" y1="-302.47" x2="348.57" y2="-302.47" xlink:href="#名称未設定グラデーション"/><linearGradient id="名称未設定グラデーション_13" x1="12.33" y1="-302.17" x2="348.57" y2="-302.17" xlink:href="#名称未設定グラデーション"/><linearGradient id="名称未設定グラデーション_14" x1="12.33" y1="-366.57" x2="348.57" y2="-366.57" xlink:href="#名称未設定グラデーション"/><linearGradient id="名称未設定グラデーション_15" x1="12.33" y1="-366.77" x2="348.57" y2="-366.77" xlink:href="#名称未設定グラデーション"/><linearGradient id="名称未設定グラデーション_16" x1="12.33" y1="-366.67" x2="348.57" y2="-366.67" xlink:href="#名称未設定グラデーション"/><linearGradient id="名称未設定グラデーション_17" x1="12.33" y1="-366.87" x2="348.57" y2="-366.87" xlink:href="#名称未設定グラデーション"/><linearGradient id="名称未設定グラデーション_18" x1="12.15" y1="-429.71" x2="343.35" y2="-429.71" xlink:href="#名称未設定グラデーション"/><linearGradient id="名称未設定グラデーション_19" x1="12.15" y1="-434.29" x2="343.35" y2="-434.29" xlink:href="#名称未設定グラデーション"/><linearGradient id="名称未設定グラデーション_20" x1="12.15" y1="-429.91" x2="343.35" y2="-429.91" xlink:href="#名称未設定グラデーション"/><linearGradient id="名称未設定グラデーション_21" x1="12.15" y1="-431.24" x2="343.35" y2="-431.24" xlink:href="#名称未設定グラデーション"/><linearGradient id="名称未設定グラデーション_23" x1="12.15" y1="-429.81" x2="343.35" y2="-429.81" xlink:href="#名称未設定グラデーション"/><linearGradient id="名称未設定グラデーション_24" x1="12.15" y1="-430.3" x2="343.35" y2="-430.3" xlink:href="#名称未設定グラデーション"/><linearGradient id="名称未設定グラデーション_25" x1="12.15" y1="-438.28" x2="343.35" y2="-438.28" xlink:href="#名称未設定グラデーション"/><linearGradient id="名称未設定グラデーション_25-2" x1="192.41" y1="-438.28" x2="523.61" y2="-438.28" xlink:href="#名称未設定グラデーション"/><linearGradient id="名称未設定グラデーション_26" x1="2.63" y1="-429.71" x2="333.83" y2="-429.71" xlink:href="#名称未設定グラデーション"/><linearGradient id="名称未設定グラデーション_27" x1="2.63" y1="-434.29" x2="333.83" y2="-434.29" xlink:href="#名称未設定グラデーション"/><linearGradient id="名称未設定グラデーション_28" x1="2.63" y1="-429.96" x2="333.83" y2="-429.96" xlink:href="#名称未設定グラデーション"/><linearGradient id="名称未設定グラデーション_29" x1="2.63" y1="-429.81" x2="333.83" y2="-429.81" xlink:href="#名称未設定グラデーション"/><linearGradient id="名称未設定グラデーション_30" x1="2.63" y1="-429.81" x2="333.83" y2="-429.81" xlink:href="#名称未設定グラデーション"/><linearGradient id="名称未設定グラデーション_31" x1="2.63" y1="-430.59" x2="333.83" y2="-430.59" xlink:href="#名称未設定グラデーション"/></defs><title>top_h1smp</title><path class="cls-1" d="M108.5,9V42.7H98.7V9H84.4V.1h38.4V9Z"/><path class="cls-1" d="M196.3.1h12.2l-18,20.6,18.7,22H196.8L179.4,21.1V42.7h-9.6V.1h9.6V20.3Z"/><path class="cls-1" d="M220.4.1,230,17.3,239.6.1h11.3l-16,26V42.7h-9.7V26L209.1.1Z"/><path class="cls-1" d="M126.4,0V42.8h40V0Zm30.9,33.5H135.6V9.4h21.7Z"/><path class="cls-1" d="M251.9,0V42.8h39.9V0Zm30.8,33.5H261V9.4h21.7Z"/><path class="cls-2" d="M86.3,107h-11l-3.2-8.9H55.3L52.1,107H41.2L57.4,64.4H70ZM63.7,73.8l-5.8,16H69.6Z"/><path class="cls-2" d="M101.8,64.4l9.3,30.8,9.3-30.8h14.1V107h-9.2V86.5c0-1.3.3-10.4.3-12l-10,32.5h-9.1l-10-32.5c.1,1.3.3,10.7.3,12V107H87.6V64.4Z"/><path class="cls-3" d="M172.1,64.4v8.9H147.6v7.9h23.6v8.5H147.6v8.5h25.1v8.9H137.8V64.4Z"/><path class="cls-2" d="M248.6,64.4V80.6h20.8V64.4h9.7V107h-9.7V89.5H248.6V107H239V64.4Z"/><path class="cls-2" d="M334.2,64.4,339,97.3l4.7-32.9h12.9l4.8,32.9,4.8-32.9h10.1L368,107H354.9l-4.8-32.5L345.3,107h-13L324,64.4Z"/><path class="cls-2" d="M282.8,64.3v42.8h39.9V64.3Zm30.8,33.5H292V73.7h21.7Z"/><polygon class="cls-2" points="39.9 79.2 39.9 64.3 0 64.3 0 107.1 39.9 107.1 39.9 92.2 39.9 83 30.8 83 19.9 83 19.9 92.2 30.8 92.2 30.8 97.8 9.1 97.8 9.1 73.7 30.8 73.7 30.8 79.2 39.9 79.2"/><polygon class="cls-4" points="235.1 72.8 235.1 64 200.3 64 200.3 68 200.3 72.8 200.3 81 200.3 87.1 200.3 89.9 226.3 89.9 226.3 98.1 200.3 98.1 200.3 106.9 226.3 106.9 235.1 106.9 235.1 98.1 235.1 89.9 235.1 87.8 235.1 81 209.1 81 209.1 72.8 235.1 72.8"/><path class="cls-5" d="M128.4,157.1c-2.8.3-4.5.8-4.5,4v1.4h28.6v8.9H114.2v-8.5c0-4.1,0-13,10.5-14.2l13.8-1.6c3.1-.4,4.6-.9,4.6-4.6s-1.2-5.3-9.2-5.3c-9,0-9.4,1.1-9.5,6.4H115c0-9.1.5-15.3,18.2-15.3,11.3,0,19.6.8,19.6,13.6,0,5.5-1.4,8.3-3.3,10a14,14,0,0,1-8,3.6Z"/><path class="cls-6" d="M176.3,128.3c17.3,0,19.7,4,19.7,22.1,0,17.4-3.2,21.4-18.5,21.4-16.3,0-20.2-2-20.2-21.8C157.3,132.5,160.4,128.3,176.3,128.3ZM167,150.2c0,12.7.6,12.8,10.2,12.8,8.1,0,9-.6,9-11.7,0-2.3-.1-9.5-.8-11.3-.9-2.5-3.9-2.8-8.8-2.8C167.7,137.2,167,137.4,167,150.2Z"/><path class="cls-7" d="M218,128.7v42.6h-9.8V137.5h-8.8v-8.9Z"/><path class="cls-8" d="M234.6,158.9c-.2,2.6.7,4.3,7.4,4.3,8.2,0,10.3-.9,10.3-10-1.6,1.4-3.4,3.1-11.9,3.1-8,0-16-1.4-16-13.7,0-14.2,8.9-14.2,18.3-14.2,16.5,0,19.3,3.3,19.3,20.3,0,18.3-1.6,23.2-19.6,23.2-10.8,0-17.4-1.8-17.4-12.9h9.6Zm17.7-16.8c0-4.9-2.7-5.1-10-5.1-7,0-8.3.9-8.3,5.4s2.1,5.5,9,5.5C250.8,147.8,252.3,146.6,252.3,142.1Z"/><path class="cls-9" d="M9.06,224.42a4.52,4.52,0,0,1-4.53-4.53v-4.14H1.38A1.35,1.35,0,0,1,0,214.37,1.39,1.39,0,0,1,1.28,213H4.43v-3.64h-3a1.34,1.34,0,0,1,0-2.66H4.53v-2.86a2.23,2.23,0,0,1,2.27-2.26,2.22,2.22,0,0,1,2.26,2.26v2.86h6.31a1.34,1.34,0,0,1,.29,2.66H9.06V213h6.31a1.34,1.34,0,0,1,0,2.66H9.06v6h8.37a1.34,1.34,0,1,1,.3,2.66h-.2l-8.47.1Z"/><path class="cls-10" d="M34.67,224.61a1.18,1.18,0,1,1,0-2.36h6.41v-9.46H29.55a1.18,1.18,0,0,1-.2-2.36H41.08a3.86,3.86,0,0,1,4,3.74v6.7a3.92,3.92,0,0,1-3.94,3.84l-6.5-.1Z"/><path class="cls-11" d="M59.4,224.52A4.52,4.52,0,0,1,54.87,220h0v-5.91a4.52,4.52,0,0,1,4.53-4.54h2.36V204a2.27,2.27,0,1,1,4.53,0V207a4.89,4.89,0,0,1-.79,2.66h5.22a1.33,1.33,0,0,1,1.38,1.28h0a1.35,1.35,0,0,1-1.38,1.38H59.4V222H71.91a1.33,1.33,0,1,1,.29,2.65H72l-12.61-.09Z"/><path class="cls-12" d="M88.26,223.33A1.4,1.4,0,0,1,87,221.86a1.37,1.37,0,0,1,1.28-1.28h8.27V208.36H82a1.34,1.34,0,0,1,0-2.66H96.53a4.58,4.58,0,0,1,4.53,4.53v8.47a4.58,4.58,0,0,1-4.53,4.54Z"/><path class="cls-9" d="M108.75,215.75a1.27,1.27,0,0,1-1.18-1.48,1.26,1.26,0,0,1,1.18-1.18h1.38v-5.32h-2.27a1.35,1.35,0,0,1-1.38-1.38,1.39,1.39,0,0,1,1.28-1.38H110v-1.18a2.27,2.27,0,0,1,4.53,0V205h2.66a1.35,1.35,0,0,1,1.38,1.38,1.41,1.41,0,0,1-1.38,1.38h-2.66v3.35a4.54,4.54,0,0,1-4.53,4.63h-1.28ZM123.92,218v1.87a4.52,4.52,0,0,1-4.53,4.53h-2.47a4.15,4.15,0,0,1-4-4.14v-.89a4.08,4.08,0,0,1,4-4.13h2.47v-3.94a2.27,2.27,0,1,1,4.53,0v3.94h1.87a1.34,1.34,0,0,1,1.48,1.18,1.35,1.35,0,0,1-1.19,1.48h-.19Zm-4.63,0h-2.47v3.84h2.47Zm6-10.15h-2.17a1.35,1.35,0,0,1-1.38-1.38,1.47,1.47,0,0,1,1.28-1.38h2.27a4,4,0,0,1,4,4h0a2,2,0,1,1-3.94.39v-1.67Z"/><path class="cls-13" d="M140.17,224.52a1.34,1.34,0,0,1,0-2.66h3V209.45H141v5.41a4.52,4.52,0,0,1-4.53,4.53h-1.58a1.34,1.34,0,0,1-1.38-1.37,1.47,1.47,0,0,1,1.38-1.38h1.58v-7.29h-1.58a1.48,1.48,0,0,1-1.38-1.38,1.35,1.35,0,0,1,1.38-1.38h1.58v-2.76a2.32,2.32,0,0,1,2.46-2.17,2.34,2.34,0,0,1,2.17,2.17v2.76h2.16a4.52,4.52,0,0,1,4.53,4.53v8.67a4.51,4.51,0,0,1-4.53,4.53Zm10.44-15.17h-.79a1.48,1.48,0,0,1-1.38-1.38,1.35,1.35,0,0,1,1.38-1.38h.79a4.52,4.52,0,0,1,4.53,4.53h0v5.22a2.32,2.32,0,0,1-2.46,2.17,2.34,2.34,0,0,1-2.17-2.17v-7Zm1.87-3.16a1.33,1.33,0,1,1-.29-2.65h.19a1.27,1.27,0,0,1,1.19,1.47A1.07,1.07,0,0,1,152.48,206.19Zm3.06,0a1.38,1.38,0,1,1,1.37-1.37h0a1.29,1.29,0,0,1-1.37,1.37Z"/><path class="cls-14" d="M166.86,224.52a3.58,3.58,0,0,1-3.54-3.45h0v-.69a3.53,3.53,0,0,1,3.54-3.55h2.76a3.54,3.54,0,0,1,3.55,3.55h0v.69a1.92,1.92,0,0,1-.1.79h2.26V215H165.19a1.35,1.35,0,0,1-1.38-1.38,1.47,1.47,0,0,1,1.28-1.38h2.17l4.73-5.81h-7.1a1.34,1.34,0,0,1,0-2.66h9.26l.2-.29a2.07,2.07,0,0,1,1.67-.79,2.18,2.18,0,0,1,2.17,2.17h0a2.36,2.36,0,0,1-.49,1.37l-4.93,6h2.37a4.58,4.58,0,0,1,4.53,4.53v3.16a4.46,4.46,0,0,1-4.53,4.53h0Zm2.76-4.93h-2.76v2.27h2.76Z"/><path class="cls-15" d="M190.7,225.6a4,4,0,1,1,4-4h0A4.12,4.12,0,0,1,190.7,225.6Zm0-5.32a1.33,1.33,0,0,0-1.38,1.28h0a1.34,1.34,0,1,0,2.66.3v-.2h0a1.33,1.33,0,0,0-1.28-1.38Z"/><path class="cls-16" d="M371,225.6a4,4,0,1,1,4-4h0A4.12,4.12,0,0,1,371,225.6Zm0-5.32a1.33,1.33,0,0,0-1.38,1.28h0a1.34,1.34,0,1,0,2.66.3v-.2h0a1.33,1.33,0,0,0-1.28-1.38Z"/><path class="cls-17" d="M214.67,224.42a4.52,4.52,0,0,1-4.53-4.53v-4.14H207a1.35,1.35,0,0,1-1.38-1.38,1.39,1.39,0,0,1,1.28-1.38H210v-3.64h-3.15a1.34,1.34,0,1,1-.3-2.66h3.35v-2.86a2.27,2.27,0,0,1,4.53,0v2.86h6.31a1.34,1.34,0,0,1,1.48,1.18,1.35,1.35,0,0,1-1.19,1.48h-6.5V213h6.31a1.33,1.33,0,0,1,1.28,1.38,1.35,1.35,0,0,1-1.38,1.38h-6.31v6h8.38a1.34,1.34,0,0,1,0,2.66Z"/><path class="cls-18" d="M240.28,224.61a1.18,1.18,0,0,1,0-2.36h6.4v-9.46H235.26a1.09,1.09,0,0,1-1.28-1.08,1.14,1.14,0,0,1,1.08-1.28h11.72a3.87,3.87,0,0,1,4,3.74v6.7a3.93,3.93,0,0,1-3.94,3.84l-6.6-.1Z"/><path class="cls-19" d="M265,224.52a4.52,4.52,0,0,1-4.54-4.53h0v-5.91a4.52,4.52,0,0,1,4.54-4.54h2.36V204a2.27,2.27,0,1,1,4.53,0V207a5,5,0,0,1-.79,2.66h5.22a1.35,1.35,0,0,1,1.38,1.38h0a1.48,1.48,0,0,1-1.38,1.38H265v9.65h12.51a1.35,1.35,0,0,1,1.47,1.19,1.33,1.33,0,0,1-1.18,1.47h-.2Z"/><path class="cls-20" d="M298.69,218.31v4.83a2,2,0,0,1-4,.29v-5.12h-8.17a1.38,1.38,0,0,1,0-2.76h8.27a2.07,2.07,0,0,1,.5-1.28h-2.17a1.87,1.87,0,0,1-1.87-1.87h0v-1.48a4,4,0,0,1-3.06,1.68,3.45,3.45,0,0,1-2.16-.79c-.5-.39-1-.69-1-1.48a1.33,1.33,0,0,1,1.28-1.38h0c.59,0,.89.4,1.38.69L289,208a1.64,1.64,0,0,1,1.38-.59,2,2,0,0,1,.79.19v-3.25a1.87,1.87,0,0,1,1.87-1.87A2,2,0,0,1,295,204h.2v-1.28a1.78,1.78,0,0,1,3.54-.3v1.48h.1a1.9,1.9,0,0,1,1.87-1.48,1.93,1.93,0,0,1,1.87,1.87h0V208a1.75,1.75,0,0,1,2.47.29l1.38,1.68a2.26,2.26,0,0,1,1.38-.69,1.34,1.34,0,0,1,1.37,1.38h0c0,.69-.49,1-1,1.48a3.45,3.45,0,0,1-2.17.78c-1.57,0-2.36-.78-3.25-2a3.1,3.1,0,0,1-.29,1.28,1.27,1.27,0,0,1,.88,1.19,1.13,1.13,0,0,1-1.18,1.18h-3.45a2.05,2.05,0,0,1,.5,1.28h8.17a1.47,1.47,0,0,1,1.38,1.28h0a1.35,1.35,0,0,1-1.38,1.38Zm-13,4a1.37,1.37,0,0,1,0-1.87,1.26,1.26,0,0,1,1-.4.94.94,0,0,1,.88.4l.89.88,1.87-1.77a1.61,1.61,0,0,1,1.28-.59,1.94,1.94,0,0,1,1.77,2h0a1.6,1.6,0,0,1-.49,1.18c-1.18,1.18-2,2.17-3.74,2.17a3.56,3.56,0,0,1-2.56-1.08Zm2.36-15.27a2,2,0,1,1,2-2.07h0a2,2,0,0,1-2,2.07Zm10.45-1h-3.65v1.67h3.65Zm0,4.13h-3.65v1.68h3.65Zm8.17,13a3.56,3.56,0,0,1-2.56,1.08c-1.77,0-2.56-1-3.74-2.17a2,2,0,0,1-.49-1.28,1.93,1.93,0,0,1,1.87-1.87,1.91,1.91,0,0,1,1.28.49l1.77,1.78.89-.89a1.35,1.35,0,0,1,2.26,1.48l-.1.1-.29.29Zm-1.38-16.16a2,2,0,1,1,2-2.07h0a1.89,1.89,0,0,1-2,2.07Z"/><path class="cls-21" d="M320.17,224.52a4.52,4.52,0,0,1-4.53-4.53h0V203.93a2.27,2.27,0,1,1,4.53,0h0v17.93h9.95a1.34,1.34,0,0,1,.29,2.66H320.17Z"/><path class="cls-22" d="M344.6,224.52a4.52,4.52,0,0,1-4.54-4.53h0V205.41a2.32,2.32,0,0,1,4.63,0v16.45h1.38a1.34,1.34,0,0,1,0,2.66Zm11.91-16.26h-1.37a1.33,1.33,0,0,1-1.38-1.28h0a1.35,1.35,0,0,1,1.38-1.38h1.37a4.52,4.52,0,0,1,4.54,4.54h0v9.06a2.27,2.27,0,0,1-4.54,0V208.26Z"/></svg>