<svg id="レイヤー_1" data-name="レイヤー 1" xmlns="http://www.w3.org/2000/svg" width="27" height="40" viewBox="0 0 27 40">
  <defs>
    <style>
      .cls-1 {
        fill: #a9b8d1;
      }

      .cls-2 {
        fill: #8e9aaf;
      }

      .cls-3 {
        fill: #fff;
      }
    </style>
  </defs>
  <title>アートボード 1</title>
  <g>
    <rect class="cls-1" width="27" height="40"/>
    <polyline class="cls-2" points="0 0 27 0 27 40"/>
    <path class="cls-3" d="M11.56,27.93a3.92,3.92,0,0,1-5.49,0A3.85,3.85,0,0,1,4.9,25.22a4,4,0,0,1,1.17-2.87L10,18.46a3.89,3.89,0,0,1,2.77-1.14,3.94,3.94,0,0,1,.69.06,3.91,3.91,0,0,1,1.34.51A3.92,3.92,0,0,1,16,19.12a.21.21,0,0,1,0,.26l-1.06,1.06a.2.2,0,0,1-.33-.06,2.05,2.05,0,0,0-.42-.61,2.06,2.06,0,0,0-1.46-.6,2.05,2.05,0,0,0-1.46.6L7.33,23.71a2.07,2.07,0,0,0,0,2.89,2,2,0,0,0,1.47.61,2.15,2.15,0,0,0,1.51-.62l2.15-2.15.07,0a5,5,0,0,0,1.67.29h.6Zm9.27-9.27-3.89,3.89a3.89,3.89,0,0,1-2.77,1.14,4,4,0,0,1-.69-.06,3.91,3.91,0,0,1-2.61-1.75.21.21,0,0,1,0-.26L12,20.57a.2.2,0,0,1,.33.06,2.06,2.06,0,0,0,3.34.62l3.94-3.94a2.07,2.07,0,0,0,0-2.89,2,2,0,0,0-1.47-.61,2.15,2.15,0,0,0-1.51.62l-2.15,2.15-.07,0a5,5,0,0,0-1.67-.29h-.6l3.21-3.21a3.92,3.92,0,0,1,5.49,0A3.85,3.85,0,0,1,22,15.79,4,4,0,0,1,20.83,18.66Z"/>
  </g>
</svg>
