<svg xmlns="http://www.w3.org/2000/svg" viewBox="0 0 581.62 23.21"><g data-name="レイヤー 2"><path d="M6.14 13.22a6.36 6.36 0 00-2.16 3 1 1 0 00.48.77c.89.48 3.65.53 4.78.53a32 32 0 009.27-1.2 26.6 26.6 0 00.69 4 50.48 50.48 0 01-10.2.97c-5.49 0-9-1-9-4.66 0-2.06 1.68-3.88 3.58-5.49zm11.48-8.37a23.05 23.05 0 00-7.56 4.75c-.05 0-.27-.29-2.14-2.4a9.88 9.88 0 001.71-1.44c-.61 0-2.09.14-4.28.14a29.93 29.93 0 01-3.24-.14l-.19-4a42.17 42.17 0 007.25.53 31.77 31.77 0 006.5-.53zM42.43 9c-4.56.19-13.92 4-13.92 7.37 0 1.87 3.34 2.06 5.55 2.06A24.49 24.49 0 0042.43 17a13.83 13.83 0 00-.36 3.24 7.54 7.54 0 00.08 1 43.89 43.89 0 01-7.88.7c-4.25 0-6.17-.56-7.34-1.3a5 5 0 01-2.5-4.13c0-3.26 3.19-5.5 5.21-6.72-1.37-1.37-1.56-2.71-2-6a8.8 8.8 0 00-.58-2.32l4.71-1a11.78 11.78 0 00-.15 2.21c0 3.82.7 4.92 1 5.45 1.51-.7 2.87-1.35 5.23-2.26.48-.19 2.66-1 3.12-1.17zm-2-8.16a16.44 16.44 0 011.73 2.54 8.26 8.26 0 00-2 1.2 24.69 24.69 0 00-1.6-2.47zM43.32 0a17.72 17.72 0 011.73 2.54 8.26 8.26 0 00-2 1.2 19.11 19.11 0 00-1.61-2.47zm16.39 1.66c.27.09.41.16.41.38s-.41.41-.69.43A28.83 28.83 0 0058 5c1.27.12 2.5.17 3 .17h1.18a17.89 17.89 0 00-1.05 3.73 29 29 0 01-4.54-.21c-.29.65-.62 1.51-.86 2.11a35.55 35.55 0 005.33.36c-.46 1.3-.84 2.81-1 3.55a61.84 61.84 0 01-5.37-.57 7.77 7.77 0 00-.27 1.94C54.38 19 57.1 19 58.27 19s4.66 0 4.66-3.48a9.07 9.07 0 00-1.22-3.74 11.76 11.76 0 003.62-1.3A12.54 12.54 0 0167 15.94c0 5.28-5.57 6.5-8.72 6.5-4.82 0-7.49-2.49-7.49-6a12.1 12.1 0 01.36-2.91 20.11 20.11 0 01-3.15-.9l.82-3.56a21.81 21.81 0 003.24 1c.1-.31.26-.84.72-2.13a20.92 20.92 0 01-3.58-1.2l.72-3.72a29.86 29.86 0 004.25 1.32c.24-.65 1.39-3.58 1.63-4.18zm22.04-.12c.21 0 .48.14.48.38s-.34.31-.53.31c-.1.39-.51 2.09-.6 2.43a15.09 15.09 0 004-1.18l.41 3.77a31.07 31.07 0 01-5.43 1.13 58.34 58.34 0 01-6.28 14 25 25 0 00-3.63-1.83A38.83 38.83 0 0076.08 9c-1.46.12-1.75.12-4.39.15l-.31-3.94c.72 0 1.56.1 2.78.1s1.8 0 2.86-.1c.33-1.8.5-3.36.64-4.54zM83.54 16a2.29 2.29 0 00-.64 1.41.65.65 0 00.43.63 9 9 0 003.22.4 17.47 17.47 0 005.28-.79 9.74 9.74 0 00-.17 1.87 17 17 0 00.14 2 29.91 29.91 0 01-5 .4c-3.14 0-7.32-.45-7.32-3.86a6.5 6.5 0 01.94-3.14zm-1.12-6.8a30.89 30.89 0 015.3-.43 17.82 17.82 0 013.53.23c-.14 1.78-.17 2.16-.19 3.77a14 14 0 00-3.6-.43 45.53 45.53 0 00-5 .43zM106 1.32c.19.05.46.14.46.38s-.12.32-.53.34c-.53 1.63-.58 1.8-.7 2.16A36.24 36.24 0 00113 2.3c.12.8.43 2.62.67 3.58a41.65 41.65 0 01-9.82 2c-.57 1.58-.77 2.06-1.25 3.24a14.24 14.24 0 016.25-1.63c6.4 0 6.74 4.51 6.74 5.71a5.91 5.91 0 01-2.59 4.89c-1.27.86-3.67 2.3-10.32 2.3a21.41 21.41 0 01-2.23-.12 17.27 17.27 0 00-.89-3.57c.7.07 2.11.21 3.58.21.55 0 4.65 0 7.13-1.46a2.44 2.44 0 001.29-2.26c0-1.39-.72-2.56-2.93-2.56a12.33 12.33 0 00-8.3 4l-3.46-1.72a33.07 33.07 0 003.19-6.75c-2.08 0-3.74-.07-4.65-.14V4.08a22.25 22.25 0 005.81.53 31.44 31.44 0 00.91-4.25zm23.67 17.14c5.21-1 6.75-5 6.75-7.49a5.68 5.68 0 00-5.55-5.88c-.74 8.78-4.37 15.34-6.91 15.34-1.87 0-5.35-3.17-5.35-7.61a11.78 11.78 0 0111.76-11.19c5.26 0 9.84 3.58 9.84 9.32a11.2 11.2 0 01-2.83 7.41 13.29 13.29 0 01-5.21 3.48 15.37 15.37 0 00-2.5-3.38zm-7.51-5.93c0 1.85 1 3.24 1.54 3.24s1-1.08 1.29-1.7a21 21 0 001.85-8.26c-2.78 1.03-4.68 4.56-4.68 6.72zM154 9.22a22.81 22.81 0 01-1.25 9 6.91 6.91 0 004.9 1.49 72.9 72.9 0 007.56-.36 11.23 11.23 0 00-1.21 3c-.76 0-2.2.09-4.2.09-4.82 0-6.26-.38-8.25-1.77a13.63 13.63 0 01-2 2.54 9.2 9.2 0 00-2.16-1.7v1.17h-3.22V12.1c-.12.16-.24.36-.46.62a5.93 5.93 0 00-2.18-2.45 23.21 23.21 0 003.74-10l3.63.77c.19.05.26.15.26.29s-.12.29-.57.43c-.89 2.88-1 3.19-1.37 4.2.36.07.48.15.48.36s-.12.29-.31.43V11a29.57 29.57 0 002.32-5.28h-1.34V2.66h4.49l.91.84a44.36 44.36 0 01-2.42 5.72zm-4.27 2.95c-.1.17-.17.26-.38.62a14.53 14.53 0 00-2-.38v8.66a9.68 9.68 0 002.16-2.47 16.29 16.29 0 01-2-4.65l2.42-1.2a20.19 20.19 0 00.94 2.66 12.81 12.81 0 00.43-3.24zm3.43-4.75V5.35h3.39v-1h-2.45V2.11h2.45V.6l3 .05A.34.34 0 01160 1c0 .14-.2.26-.58.53v.57h4v3.25h.89v2.07h-.89v3.29h-4v1h3.84v2.38h-3.84v.81h4.87v2.5h-4.87v1.68h-2.83V17.4h-2.86v-2.52h2.86v-.81h-2.09v-2.38h2.09v-1h-2.45V8.38h2.45v-1zm7.52-2.07v-1h-1.3v1zm-1.3 2.07v1h1.3v-1zm7.01 2.33a39.51 39.51 0 004.3-2.26 26.71 26.71 0 00-2.69-4.2l4-1.56a.82.82 0 01.39-.1c.14 0 .33 0 .33.31s-.14.27-.28.36c.43 1 1.17 2.43 1.63 3.34.65-.34 1.15-.6 2.28-1.1A20.11 20.11 0 00174.19 2l3.17-1.5a18.21 18.21 0 012.43 2.76 11.55 11.55 0 012.88-.38c4.63 0 6 3.05 6 5.5 0 5.35-5.47 6.16-8.93 6.21a17.52 17.52 0 00-1.3-3.6 14 14 0 003.56-.19c2.95-.65 2.95-1.9 2.95-2.59a1.92 1.92 0 00-2.09-1.92c-.28 0-.69 0-.91.07a20.81 20.81 0 011.15 2.06c-1.36.48-2.73 1.11-3.62 1.52a16.26 16.26 0 00-1.2-2.45 25.5 25.5 0 00-2.71 1.22 61.41 61.41 0 014.37 11.81c-.65.24-3.49 1.59-4.06 1.85a38.57 38.57 0 00-3.58-11.66 39.16 39.16 0 00-3.57 2.66zm35.52-7.88c.27.07.48.15.48.36s-.5.39-.64.39c-.37 1.63-.51 2.25-.68 2.88 2.07 0 5.5.07 5.5 5.88a16.09 16.09 0 01-2.4 8.88 4.12 4.12 0 01-3.55 1.68 12.76 12.76 0 01-2.55-.27 6.26 6.26 0 00.07-.88 17.84 17.84 0 00-.36-3.22 4 4 0 002.09.53 1.83 1.83 0 001.42-.46c.81-.72 1.58-3.41 1.58-6.38 0-2.47-1.72-2.33-2.76-2.26A36.24 36.24 0 01194 21.67a17.19 17.19 0 00-3.53-1.89 28.83 28.83 0 005.73-10.06 25.31 25.31 0 00-3.82 1.28l-1.32-3.87c1-.19 5.26-1.08 6.15-1.22A36.47 36.47 0 00198 .6zm6.48 1.25c2.64 3 4.32 7 4.32 8.86a2.45 2.45 0 01-1.7 2.54 9.54 9.54 0 01-2.4.75 18.74 18.74 0 00-1.39-3.22c.65-.14 1.53-.34 1.53-1.1a9.55 9.55 0 00-1.24-3.29 18.62 18.62 0 00-2-2.67zM235.87 5c-5.92-.09-11.06 5.23-11.06 9.12 0 2.79 3.53 4.16 6.79 4.23a32.51 32.51 0 00-1.8 4.37c-1.94-.53-8.83-2.45-8.83-8.19a11 11 0 014.41-8.26 65.75 65.75 0 00-9.93 1.52l-.55-4.52a78.07 78.07 0 0010.68-.55A57.12 57.12 0 00235.2 1zm-4 3.41a14.53 14.53 0 012.25 2.59c-.67.48-1 .74-1.85 1.44a19.49 19.49 0 00-2.13-2.71zm2.52-1.7a15.11 15.11 0 012.14 2.52 22.4 22.4 0 00-1.76 1.49A17.11 17.11 0 00232.66 8zm23.28 2.7a.56.56 0 01.19.34c0 .23-.24.23-.31.23a1.28 1.28 0 01-.58-.19c-2.47.58-5.33 1-5.93 1.11-.07.93-.1 1.15-.14 1.44h9.33v3.07h-8c1.56 1.85 4 3.55 8.45 4.22a11.19 11.19 0 00-2.21 3.2 16.9 16.9 0 01-9-5.74 12.54 12.54 0 01-8.52 5.69 11.61 11.61 0 00-2.37-3c2.71-.53 6-1.2 7.89-4.42h-7.94v-3.02h9a10.28 10.28 0 00.08-1.13c-3.24.21-3.87.24-4.95.24h-1.39a11.16 11.16 0 00-1.49-3.07 13.59 13.59 0 003 .21 45.91 45.91 0 0011-1.15 20.93 20.93 0 00-.82-2.25h-.55a14.36 14.36 0 01-2 2.8 9.52 9.52 0 00-3.1-1.1 6.12 6.12 0 01.24.77 19.62 19.62 0 00-3.38.48 14.76 14.76 0 00-.87-2.95h-.3a20.56 20.56 0 01-2.12 3 12.53 12.53 0 00-3-1.35 22.13 22.13 0 003.85-6.48l3.29.77c.24.05.5.12.5.36s-.24.29-.7.29l-.28.55h4.75V4a15.26 15.26 0 001.77-3.64l3.32.77c.14 0 .41.09.41.31s-.24.29-.65.34c-.1.19-.17.36-.27.55h6.29v2.81h-3.72a13.65 13.65 0 01.72 1.75c-.67.12-1.05.19-1.63.33zm-11.12-4.27c.15.31.41.91.63 1.46a12.74 12.74 0 001.34-1.46zm26.12 9.31c.14.14.26.24.26.36a.27.27 0 01-.29.24 1.76 1.76 0 01-.46-.1 18.4 18.4 0 01-4.56 3.05 7.62 7.62 0 00-1.6-2.11 21.81 21.81 0 01-.65 4.13 15.66 15.66 0 006.14-3.79l2.21 2a.41.41 0 01.12.29c0 .14-.14.21-.31.21a1.4 1.4 0 01-.41-.07 23.28 23.28 0 01-5.88 3.84 11.34 11.34 0 00-1.9-2.38 17 17 0 01-.93 2.48 13 13 0 00-2.88-1.4c.93-2 1.53-4 1.53-9V7.58h1.35c-.34-1.36-.39-1.51-.51-1.92l1.61-.45h-3V2.59h3.74V.36l3.58.14c.09 0 .43 0 .43.32s-.29.38-.55.5v1.27h2.88v2.62h-2.49l1.34.21c.34 0 .53.15.53.34s-.17.31-.53.48a12.88 12.88 0 01-.44 1.34h1.92v2.62h-2l1 1.13a.55.55 0 01.17.31c0 .19-.22.22-.7.15a16.45 16.45 0 01-3.86 2.63 10 10 0 00-1.34-1.79c0 .76 0 1.2-.12 3.14a13.05 13.05 0 004.8-3zm-6.53-2.52A12.81 12.81 0 00269 10.2h-2.88zm.45-6.72a23 23 0 01.65 2.37h1.1a17.34 17.34 0 00.66-2.37zm11.33 14.16c.27.24.41.38.41.55s-.26.27-.41.27a1 1 0 01-.31-.05 15.65 15.65 0 01-4.2 2.73 10.63 10.63 0 00-2.19-2.3A15.93 15.93 0 00275.4 18h-1.9V5.33h2.24c.12-.27.45-.87.77-1.59H273V1h11.18v2.74h-4.1c-.43.89-.48 1-.79 1.59h4.36V18h-1.82a18.5 18.5 0 003.38 2.52c-.5.36-2.54 2.16-2.66 2.28a30.11 30.11 0 01-4.08-3.45l1.4-1.35h-3.41zm-1.34-10.54h4V7.71h-4zm4 2.19h-4v1.12h4zm0 3.24h-4v1.12h4zm17.09 4.2c5.21-1 6.75-5 6.75-7.49a5.68 5.68 0 00-5.55-5.88c-.74 8.78-4.37 15.34-6.91 15.34-1.87 0-5.35-3.17-5.35-7.61a11.78 11.78 0 0111.76-11.19c5.26 0 9.84 3.58 9.84 9.32a11.2 11.2 0 01-2.83 7.41 13.29 13.29 0 01-5.21 3.48 15.37 15.37 0 00-2.5-3.38zm-7.51-5.93c0 1.85 1 3.24 1.54 3.24s1-1.08 1.29-1.7a21 21 0 001.85-8.26c-2.78 1.03-4.68 4.56-4.68 6.72zm31.59-10.99c.21 0 .48.14.48.38s-.34.31-.53.31c-.1.39-.51 2.09-.6 2.43a15.09 15.09 0 004-1.18l.41 3.77a31.07 31.07 0 01-5.43 1.13 58.34 58.34 0 01-6.28 14 25 25 0 00-3.63-1.83A38.83 38.83 0 00316.08 9c-1.46.12-1.75.12-4.39.15l-.31-3.94c.72 0 1.56.1 2.78.1s1.8 0 2.86-.1c.33-1.8.5-3.36.64-4.54zM323.54 16a2.29 2.29 0 00-.64 1.41.65.65 0 00.43.63 9 9 0 003.22.4 17.47 17.47 0 005.28-.79 9.74 9.74 0 00-.17 1.87 17 17 0 00.14 2 29.91 29.91 0 01-5 .4c-3.14 0-7.32-.45-7.32-3.86a6.5 6.5 0 01.94-3.14zm-1.12-6.8a30.89 30.89 0 015.3-.43 17.82 17.82 0 013.53.26c-.14 1.78-.17 2.16-.19 3.77a14 14 0 00-3.6-.43 45.53 45.53 0 00-5 .43zm29.4-1.78a49 49 0 00-5.52 5.3 1.32 1.32 0 01.55-.09 1.87 1.87 0 012 1.72c0 .48-.36 2.6-.36 3 0 1.2.6 1.37 1.56 1.37a16.13 16.13 0 005.45-.92 32.78 32.78 0 00.12 3.84 34.44 34.44 0 01-6 .6c-4.3 0-4.8-1.68-4.8-3 0-.39.12-2 .12-2.35s0-1.06-.6-1.06c-.82 0-2.28 1.75-6.17 6.31l-3.05-2.71a93.05 93.05 0 009.41-10 39.27 39.27 0 01-7.1 1.25l-.65-3.77h1.68c3.93 0 8.88-1 11-2.18zM340.73.62a22 22 0 006.41.82 13.56 13.56 0 001.7-.07 16.45 16.45 0 00-.41 3.48c-.28 0-.62.05-1.1.05a38.35 38.35 0 01-6.91-.6zm18.79 3.8a18 18 0 002.66.19c.7 0 1.42-.05 2.45-.12a38.41 38.41 0 00.89-4.08l3.77 1.17c.34.1.46.2.46.39s-.39.29-.51.29c-.07.16-.38 1.27-.48 1.58a21 21 0 002.59-.79 25 25 0 00.08 3.57 31.74 31.74 0 01-3.85.84c-.33 1-1.15 3.2-2.44 6.15a32.4 32.4 0 01-2.81 5.28 18.92 18.92 0 00-3.6-1.44A43.56 43.56 0 00363.58 8c-.56 0-2.86.12-3.6.12zM375.05 11a3.54 3.54 0 00-.86 2.35 15.84 15.84 0 00.24 2.35 25.28 25.28 0 015.08 2.93 24.16 24.16 0 00-2.2 2.88 21.32 21.32 0 00-2.76-2c-.46 2.25-2 2.92-4.8 2.92-3.82 0-5.72-1.7-5.72-4 0-.45.1-3.79 5-3.79.67 0 1.15 0 1.58.07 0-.17-.12-1.89-.12-2.08a4.65 4.65 0 011.68-3.34zm-5.95 6.5c-.68 0-1.54.33-1.54 1s.7.89 1.71.89c1.63 0 1.72-.79 1.79-1.39a4.57 4.57 0 00-1.96-.5zm4.65-12.8a17.87 17.87 0 016.32 3.12 31.68 31.68 0 00-2.19 3.1 17.28 17.28 0 00-6-3.1zM388 3c.21.07.48.15.48.36s-.29.36-.51.39a21.55 21.55 0 00-1.34 7.22c0 2.93.91 5 1.61 5s1.68-2.11 2.33-3.63a10.81 10.81 0 002.52 2.55c-1.92 4.66-4.11 6.29-5.28 6.29-1.35 0-4.9-2.86-4.9-10.27a42.63 42.63 0 011.18-9zm11.59.17a23.94 23.94 0 014.85 12.07c-1.42.56-3.12 1.37-3.91 1.78a21.92 21.92 0 00-4-11.88zm16.26 1.77V.55l3.6.1c.36 0 .55.07.55.33a.54.54 0 01-.17.34 1.71 1.71 0 01-.21.24v3.38h7.77v3.22h-7.77v3.36h5.54v3.19h-5.54V19h8.76v3.15h-22V19h9.43v-4.29h-5.41v-3.19h5.45V8.16H411a22.45 22.45 0 01-2.4 3.63 10.69 10.69 0 00-3.15-1.69 22 22 0 004.61-9.16l3.34 1c.26.07.53.19.53.46s-.36.36-.53.36c-.29.79-.84 2.11-.89 2.2zm15.53 1.88a20.12 20.12 0 014 2.54 21.43 21.43 0 00-2 2.64 14.87 14.87 0 00-3.72-2.64zm-1.3 14.09a27.58 27.58 0 003.6-7.54 6.94 6.94 0 002.81 1.9 62 62 0 01-2.83 6.55 1 1 0 01.24.55.33.33 0 01-.32.34 1.56 1.56 0 01-.6-.17zM432.74.46a24.17 24.17 0 013.89 2.23 19.37 19.37 0 00-1.89 2.78A26.86 26.86 0 00430.87 3zm13.45 6.36h6.07v3h-6.07v2.42h5.11v10.23h-3.39v-.94h-6.72v.94h-3.41V12.29h5.07V9.87h-6.36v-3h6.36v-2a35.29 35.29 0 01-4.56.31 9.67 9.67 0 00-1.18-3A31.11 31.11 0 00448.8.53l2.11 2.21a.62.62 0 01.22.4c0 .24-.19.34-.43.34a1.2 1.2 0 01-.53-.12 21.94 21.94 0 01-4 1zm1.72 11.85v-3.4h-6.72v3.4zM466.9 1c.14 0 .48.1.48.44s-.44.36-.6.36l-.55 1.2a25.43 25.43 0 005-1.13v3.51c-3.57.62-4 .69-6.84 1-.29.5-.33.6-.93 1.65a4.53 4.53 0 012.09-.48A4.2 4.2 0 01469 9.63c3.55-1.71 4-1.88 4.85-2.38l1.41 3.84c-2.66.84-4 1.34-5.47 1.94.05.7.07 1.44.07 2.16 0 1.08 0 1.76-.07 2.4h-2.4a12.83 12.83 0 00-1.39 0 22.78 22.78 0 00.17-2.73c-1.49.91-3 1.92-3 2.9s2.45 1.15 3.67 1.15a27.08 27.08 0 007.68-1.17 15.32 15.32 0 00-.46 3.81 29.41 29.41 0 01-6.69.7c-1.61 0-7.85 0-7.85-4.25 0-2.83 3.82-5.21 6.43-6.58a1.74 1.74 0 00-1.8-1.2c-2.5 0-4.18 2.69-5.5 4.83l-3.33-1.9a52 52 0 004.88-6.45h-3.38V3.22c.74.07 2.14.19 3.77.19h1.37a18.31 18.31 0 001.29-3.15zm24.98 12.11h-5V10h13.35v3.08h-5.13v1.56h4v3h-4v1.71a11.59 11.59 0 001.22 0 25.83 25.83 0 004.42-.43 9.71 9.71 0 00-.77 3.29 18.76 18.76 0 01-3.36.19c-2.66 0-5.06 0-7.49-3a10.42 10.42 0 01-2.21 3.27 4.55 4.55 0 00-2.45-1.47c-.38 1.27-1.84 1.32-4.36 1.39a13.09 13.09 0 00-.89-3.24 6 6 0 001.51.15c.72 0 .72-.24.72-1.35v-4.01c-.82.28-1.1.38-1.73.57-.17.46-.33.65-.62.65s-.22-.14-.24-.29l-.58-3.67a32.34 32.34 0 003.17-.74V7.34h-2.93V4.22h2.93V.5l3.41.2c.12 0 .29.07.29.24s-.36.4-.58.48v2.8h2v3.12h-2v2.33c1.22-.41 1.54-.55 2-.72a8.76 8.76 0 00-.1 1.37 12.31 12.31 0 00.1 1.68 9.89 9.89 0 01-2 .94v7.68a12.43 12.43 0 002.78-7.23l3.36.84c.15 0 .34.1.34.34s-.43.38-.58.41c-.12.6-.17.84-.26 1.22a6.94 6.94 0 001.7 2zm7.49-12.2v8.35h-11.76V.91zm-3.29 3.17v-.84h-5v.84zm-5 1.87v1h5V6zM518 17.35a18.71 18.71 0 006.27 2.88c-.43.27-1 .65-2.16 2.62a24.21 24.21 0 01-7-4.18v4h-3.4v-4.2a22.67 22.67 0 01-7.23 4.34c-1.15-2-1.73-2.35-2.16-2.62a17.79 17.79 0 006.27-2.88h-6.08v-2.5h9.2v-1.27a27.41 27.41 0 01-6.7.86 6.62 6.62 0 00-1.22-2.78c.6.05 1.32.09 2.37.09a17 17 0 004.42-.53c-.87-.16-1.2-.21-1.59-.26l-.52.43a8.32 8.32 0 00-2.74-1.44c.53-.43.86-.72 1.39-1.22h-4.61V6.22h6.82a18.25 18.25 0 001.18-1.71h-4.23v1.11H503V2h8.47V.46l3.87.12c.19 0 .5 0 .5.28s-.34.44-.5.51V2h8.49v3.5h-3.48v-1h-5.47c.12.41-.29.46-.77.51-.45.6-.57.72-.91 1.2h11.26v2.48h-4.64a.23.23 0 01.15.19c0 .24-.48.31-.65.34a15.65 15.65 0 01-1.27 1.2 26.85 26.85 0 014.61 1.75 11.89 11.89 0 00-1.9 2.64h3.7v2.54zm-6.84-8.66l-.62.67a33 33 0 013.41.43 8.8 8.8 0 001.56-1.1zm4 3.62a17.69 17.69 0 01-3.46 1.23l3.51.14c.22 0 .46.05.46.29s-.27.41-.61.6v.24h5.65a22.06 22.06 0 00-5.55-2.5zM539.91 1c.38.05.6.08.6.27s-.29.36-.49.41c0 .43-.07.72-.11 1.68 6.76-.29 7.51-.32 8-.36 0 .5-.07 2.88 0 3.86-4.35-.22-6.17-.22-7.92-.19a19 19 0 000 2.66 7.88 7.88 0 011.39 4.61 11.36 11.36 0 01-5.57 9.27 15.89 15.89 0 00-3.5-2.48c.72-.28 3.55-1.48 4.42-3.45a2.71 2.71 0 01-1.9.57 3.21 3.21 0 01-2.59-1.08 6 6 0 01-1-3.55c0-5.28 4.51-5.11 5-5V6.88a66.5 66.5 0 00-9.58 1.24L526.42 4c.55 0 1.46 0 9.74-.51a25 25 0 00-.34-3zm-5.55 12c0 1.58.79 2 1.23 2 .74 0 1.17-1.1 1.17-2.3 0-.56-.12-1.49-1.08-1.49-.79 0-1.32.79-1.32 1.79zm33.1-9.57a57.42 57.42 0 00-5.88 5.36 12.51 12.51 0 012.88-.37c3.26 0 6.62 2.07 6.62 6.32 0 5.28-5 7.58-9.17 7.58-3.09 0-6.09-1.22-6.09-4.13 0-2.37 2.2-3.84 4.7-3.84 2.26 0 4.61 1.28 5.16 3.53a3.17 3.17 0 001.59-2.83c0-.58-.2-3.51-3.92-3.51-4.05 0-6.36 2.38-9.69 5.86l-2.88-2.81a63.92 63.92 0 009.72-9.33 51.94 51.94 0 01-6.39.84l-.57-3.77c.93 0 7.87.09 12-1.51zm-7.23 13.92c-.81 0-1 .46-1 .87 0 .91 1.34 1.27 2.16 1.27a4.07 4.07 0 001.2-.19 2.38 2.38 0 00-2.36-1.95zm21.39 1.4a3.39 3.39 0 11-3.39-3.39 3.4 3.4 0 013.39 3.39zm-5.28 0a1.9 1.9 0 003.79 0 1.9 1.9 0 10-3.79 0z" fill="#ff9600" data-name="object"/></g></svg>