<svg xmlns="http://www.w3.org/2000/svg" viewBox="0 0 515.66 82.77"><g data-name="レイヤー 2"><path d="M12.45 19.83c-1.94 1.73-3.24 3.71-3.24 4.54a1.38 1.38 0 00.73 1.15c1.33.72 5.47.79 7.16.79a47.31 47.31 0 0013.9-1.8 41.57 41.57 0 001.05 6c-4.94 1.22-12.46 1.44-15.27 1.44-8.24 0-13.53-1.51-13.53-7 0-3.09 2.52-5.83 5.36-8.24zM29.66 7.27a34.61 34.61 0 00-11.34 7.13l-3.2-3.6a14.72 14.72 0 002.55-2.16c-.9.07-3.13.21-6.4.21a45.91 45.91 0 01-4.86-.21L6.12 2.7A63.82 63.82 0 0017 3.49a47 47 0 009.75-.79zm37.22 6.19C60 13.75 46 19.47 46 24.51c0 2.81 5 3.1 8.31 3.1a36.5 36.5 0 0012.56-2.09 20.71 20.71 0 00-.54 4.86 14.74 14.74 0 00.11 1.55 65.24 65.24 0 01-11.8 1c-6.38 0-9.25-.83-11-1.94a7.44 7.44 0 01-3.74-6.19c0-4.9 4.79-8.25 7.81-10.08-2.05-2-2.34-4.07-3-9a13.88 13.88 0 00-.86-3.49l7-1.47a18.68 18.68 0 00-.21 3.31c0 5.72 1 7.38 1.54 8.17 2.27-1 4.32-2 7.85-3.38.72-.29 4-1.48 4.68-1.77zM63.82 1.22A26.71 26.71 0 0166.42 5a11.86 11.86 0 00-3 1.8 37.16 37.16 0 00-2.41-3.71zM68.22 0a26.92 26.92 0 012.59 3.82 11.8 11.8 0 00-3 1.8 26.85 26.85 0 00-2.42-3.71zm24.59 2.48c.39.15.61.26.61.58 0 .5-.61.61-1 .65-.42.61-.87 1.29-2.17 3.78 1.91.18 3.74.25 4.5.25s1.26 0 1.76-.07a26.07 26.07 0 00-1.58 5.68 42.86 42.86 0 01-6.8-.32c-.44 1-.94 2.27-1.3 3.17a56.5 56.5 0 008 .54c-.68 1.94-1.26 4.21-1.55 5.32-2.19-.14-4.68-.35-8.06-.86a11.7 11.7 0 00-.4 2.92c0 4.39 4.07 4.39 5.84 4.39 1.54 0 7 0 7-5.22a13.81 13.81 0 00-1.84-5.62 17 17 0 005.44-1.94c.86 1.58 2.48 5 2.48 8.17 0 7.92-8.35 9.76-13.06 9.76-7.24 0-11.23-3.75-11.23-9a17.6 17.6 0 01.55-4.4 29.06 29.06 0 01-4.68-1.33l1.22-5.32a33.36 33.36 0 004.86 1.54c.14-.46.39-1.26 1.08-3.2a31.28 31.28 0 01-5.36-1.8l1.08-5.58a45.09 45.09 0 006.37 2c.36-1 2.08-5.36 2.44-6.26zm33.04-.18c.33.08.72.22.72.58s-.5.47-.79.47c-.14.57-.75 3.13-.9 3.63a23.09 23.09 0 006-1.76l.61 5.65a47.22 47.22 0 01-8.14 1.69 86.58 86.58 0 01-9.43 21.06 38.32 38.32 0 00-5.43-2.74 58.59 58.59 0 008.89-17.45c-2.2.18-2.63.18-6.59.21l-.47-5.9c1.08.07 2.34.14 4.18.14 1.62 0 2.7 0 4.28-.14.51-2.7.76-5 1-6.8zm2.7 21.7a3.52 3.52 0 00-1 2.13 1 1 0 00.65.93 13.25 13.25 0 004.82.61 26.28 26.28 0 007.98-1.21 15.32 15.32 0 00-.25 2.8 24 24 0 00.22 3 43.9 43.9 0 01-7.46.61c-4.71 0-11-.68-11-5.79a9.75 9.75 0 011.4-4.72zm-1.69-10.18a46 46 0 018-.65 26.29 26.29 0 015.29.39c-.22 2.67-.25 3.24-.29 5.66a20.85 20.85 0 00-5.4-.65 65.1 65.1 0 00-7.56.65zM162.18 2c.29.07.68.22.68.58s-.18.46-.79.5c-.79 2.45-.86 2.7-1 3.24a55 55 0 0011.73-2.84c.18 1.18.65 3.92 1 5.36a62.19 62.19 0 01-14.72 3.06c-.87 2.37-1.16 3.09-1.88 4.86a21.34 21.34 0 019.36-2.45c9.61 0 10.12 6.77 10.12 8.57a8.91 8.91 0 01-3.85 7.27c-1.91 1.29-5.51 3.45-15.48 3.45a30.87 30.87 0 01-3.35-.2 25.17 25.17 0 00-1.36-5.4 52.56 52.56 0 005.36.32c.83 0 7 0 10.69-2.19a3.67 3.67 0 001.95-3.38c0-2.09-1.08-3.86-4.39-3.86s-8.25 1.62-12.46 6l-5.18-2.59a51.08 51.08 0 004.79-10.11c-3.14 0-5.62-.11-7-.22l-.07-5.9a33.37 33.37 0 008.71.79 48.88 48.88 0 001.38-6.32zm35.57 25.68c7.81-1.44 10.11-7.49 10.11-11.23a8.53 8.53 0 00-8.31-8.82c-1.12 13.17-6.56 23-10.37 23-2.81 0-8-4.75-8-11.41 0-7.74 7.06-16.77 17.64-16.77 7.88 0 14.76 5.36 14.76 14a16.8 16.8 0 01-4.25 11.13c-2.2 2.55-4.75 3.88-7.81 5.22a23.54 23.54 0 00-3.77-5.12zm-11.27-8.89c0 2.77 1.55 4.86 2.3 4.86s1.55-1.62 1.95-2.56a31.66 31.66 0 002.77-12.38c-4.18 1.55-7.02 6.84-7.02 10.08zm47.81-4.97c0 3.57.1 8.32-1.88 13.43a10.38 10.38 0 007.35 2.23 106.84 106.84 0 0011.34-.54 16.64 16.64 0 00-1.88 4.57c-1.15 0-3.31.15-6.3.15-7.23 0-9.39-.58-12.38-2.67a20 20 0 01-3.06 3.82 13.92 13.92 0 00-3.24-2.56V34h-4.82V18.14c-.18.25-.36.54-.68.94a8.94 8.94 0 00-3.28-3.67c3.56-4.94 4.9-10.62 5.62-15l5.43 1.15c.29.07.4.21.4.43 0 .4-.18.43-.87.65-1.33 4.32-1.47 4.79-2 6.3.54.1.72.21.72.54s-.18.43-.47.64v6.45a43.83 43.83 0 003.49-7.92h-2V4h6.73l1.37 1.25a68.11 68.11 0 01-3.64 8.57zm-6.41 4.43l-.58.94a19.24 19.24 0 00-3.06-.58v13a14.46 14.46 0 003.24-3.7 24.46 24.46 0 01-3-7l3.63-1.8a28.6 28.6 0 001.41 4 20.45 20.45 0 00.65-4.86zm5.12-7.13V8h5.07V6.59h-3.67V3.17h3.67V.9l4.54.07a.5.5 0 01.57.54c0 .22-.29.4-.86.79v.87h6V8h1.34v3.09h-1.34v4.93h-6v1.48h5.76v3.56h-5.76v1.23h7.31v3.81h-7.31v2.52h-4.22V26.1h-4.28v-3.78h4.28v-1.23H235v-3.56h3.13v-1.48h-3.67v-3.49h3.67v-1.44zM244.29 8V6.59h-1.94V8zm-1.94 3.09v1.44h1.94v-1.41zm10.48 3.52a57.41 57.41 0 006.44-3.38 38.52 38.52 0 00-4-6.3l6-2.34a1.3 1.3 0 01.58-.14c.22 0 .5 0 .5.47 0 .25-.21.39-.43.54.65 1.44 1.77 3.63 2.45 5 1-.5 1.73-.9 3.42-1.66a32.14 32.14 0 00-3.26-3.8l4.75-2.24a26.77 26.77 0 013.63 4.14 17.37 17.37 0 014.32-.58c6.95 0 8.93 4.57 8.93 8.24 0 8-8.21 9.25-13.39 9.32a26.45 26.45 0 00-1.94-5.39 20.83 20.83 0 005.36-.29c4.43-1 4.43-2.85 4.43-3.89a2.89 2.89 0 00-3.14-2.88 12.7 12.7 0 00-1.36.11 30.89 30.89 0 011.72 3.09c-2 .72-4.1 1.66-5.43 2.27a25.39 25.39 0 00-1.8-3.67 38.59 38.59 0 00-4.07 1.84c4 8.42 5.91 14.68 6.55 17.71-1 .36-5.22 2.37-6.08 2.77-.83-7.09-3.13-12.38-5.36-17.5a63.86 63.86 0 00-5.37 4zm53.28-11.8c.39.11.72.21.72.54 0 .5-.76.57-1 .57-.54 2.45-.75 3.39-1 4.32 3.09 0 8.24.11 8.24 8.82 0 5.94-1.87 11-3.6 13.32a6.17 6.17 0 01-5.33 2.52 18.74 18.74 0 01-3.81-.4 12.6 12.6 0 00.1-1.33 26.64 26.64 0 00-.54-4.82 6 6 0 003.14.79 2.72 2.72 0 002.12-.68c1.22-1.08 2.38-5.12 2.38-9.58 0-3.71-2.6-3.49-4.14-3.38-2.85 9.75-6.23 15.22-9.15 19a25.66 25.66 0 00-5.24-2.84 43 43 0 008.57-15.08 38.67 38.67 0 00-5.72 1.83l-2-5.79c1.47-.29 7.88-1.62 9.21-1.84A55.39 55.39 0 00300.17.9zm9.71 1.87c4 4.43 6.48 10.44 6.48 13.28 0 1.87-.61 2.88-2.55 3.82a14.54 14.54 0 01-3.6 1.11 29.52 29.52 0 00-2.09-4.82c1-.22 2.3-.5 2.3-1.66a14.34 14.34 0 00-1.87-4.93 25.5 25.5 0 00-3.06-4zM357 7.49c-8.89-.15-16.59 7.84-16.59 13.68 0 4.17 5.29 6.22 10.19 6.33a47.16 47.16 0 00-2.7 6.55c-2.92-.79-13.25-3.67-13.25-12.27 0-6.66 5.15-11.45 6.62-12.39a98.89 98.89 0 00-14.9 2.27l-.83-6.76a116.36 116.36 0 0016-.83A87.08 87.08 0 00356 1.44zm-6 5.11a22 22 0 013.35 3.85c-1 .72-1.52 1.12-2.78 2.16a28.23 28.23 0 00-3.2-4.07zm3.85-2.6a23 23 0 013.2 3.78c-.9.69-1.51 1.23-2.63 2.23a26.19 26.19 0 00-3.2-4.06zM29.73 62.11a.77.77 0 01.29.5c0 .36-.36.36-.47.36a2.13 2.13 0 01-.86-.28c-3.71.86-8 1.51-8.89 1.65-.11 1.41-.15 1.73-.22 2.16h14v4.61h-12c2.34 2.77 5.93 5.33 12.67 6.33a16.32 16.32 0 00-3.32 4.79 25.27 25.27 0 01-13.49-8.6c-3.06 5.22-8.18 7.52-12.78 8.53A17.88 17.88 0 001 77.73c4.07-.79 8.93-1.8 11.85-6.62H1V66.5h13.43a13.72 13.72 0 00.11-1.69c-4.86.32-5.79.36-7.41.36-.94 0-1.55 0-2.09-.07a17 17 0 00-2.23-4.61 19.56 19.56 0 004.46.32 69 69 0 0016.52-1.72 28 28 0 00-1.22-3.39h-.83a21.69 21.69 0 01-2.95 4.21 14.45 14.45 0 00-4.64-1.65c.21.61.25.75.36 1.15a29.53 29.53 0 00-5.08.72 23.7 23.7 0 00-1.29-4.43H7.7a30.15 30.15 0 01-3.16 4.5 18.76 18.76 0 00-4.54-2 32.68 32.68 0 005.83-9.65l4.93 1.15c.36.07.76.18.76.54s-.36.43-1 .43l-.44.83h7.13v2.56a23.82 23.82 0 002.66-5.51l5 1.15c.22 0 .61.14.61.47s-.36.43-1 .5c-.14.29-.25.54-.4.83h9.44v4.2H27.9a22.65 22.65 0 011.1 2.63c-1 .18-1.59.29-2.45.5zM13.07 55.7c.21.47.61 1.37.93 2.2a17.53 17.53 0 002-2.2zm39.16 13.97c.22.21.4.36.4.54a.4.4 0 01-.43.36 3.25 3.25 0 01-.69-.15A28.31 28.31 0 0144.68 75a11.61 11.61 0 00-2.42-3.17 31 31 0 01-1 6.19 23.68 23.68 0 009.22-5.69l3.31 3a.59.59 0 01.18.43c0 .22-.22.33-.47.33a2.26 2.26 0 01-.61-.11 35.2 35.2 0 01-8.82 5.76 16.91 16.91 0 00-2.84-3.57 24.84 24.84 0 01-1.41 3.71 20 20 0 00-4.32-2.09c1.41-3.06 2.31-6 2.31-13.46v-6.96h2c-.5-2-.57-2.26-.75-2.88l2.41-.68H37v-3.92h5.62v-3.35l5.36.22c.14 0 .65 0 .65.46s-.43.58-.83.76v1.91h4.32v3.92h-3.74l2 .32c.5.08.79.22.79.51s-.25.47-.79.72a19 19 0 01-.72 2h2.88v3.94H49.5l1.55 1.7a.85.85 0 01.25.47c0 .29-.33.32-1 .21a24.84 24.84 0 01-5.79 4 15.22 15.22 0 00-2-2.7c0 1.15 0 1.8-.18 4.72a19.37 19.37 0 007.2-4.54zm-9.79-3.78a19 19 0 004.32-2.59h-4.32zm.69-10.08a36.74 36.74 0 011 3.56h1.65a23.93 23.93 0 00.94-3.56zm17 21.24c.39.36.61.57.61.83s-.4.39-.61.39a1.62 1.62 0 01-.47-.07 23.68 23.68 0 01-6.3 4.1 16 16 0 00-3.28-3.45A24.39 24.39 0 0056.34 75h-2.85V56h3.35c.18-.4.69-1.3 1.15-2.37H52.7v-4.08h16.78v4.07h-6.16c-.65 1.38-.72 1.47-1.19 2.38h6.55v19H66a29 29 0 005 3.78c-.75.54-3.81 3.24-4 3.42a44.83 44.83 0 01-6.09-5.2L63 75h-5.08zm-2-15.8h6v-1.7h-6zm6 3.27h-6v1.69h6zm0 4.86h-6v1.69h6zm25.62 6.3c7.81-1.44 10.11-7.49 10.11-11.23a8.53 8.53 0 00-8.31-8.82c-1.12 13.17-6.56 23-10.37 23-2.81 0-8-4.75-8-11.41 0-7.74 7.06-16.77 17.64-16.77 7.88 0 14.76 5.36 14.76 14a16.8 16.8 0 01-4.25 11.13c-2.2 2.55-4.75 3.88-7.81 5.22a23.54 23.54 0 00-3.77-5.12zm-11.27-8.89c0 2.77 1.55 4.86 2.3 4.86s1.55-1.62 2-2.56a31.66 31.66 0 002.72-12.38c-4.18 1.55-7.02 6.84-7.02 10.08zm47.37-16.49c.33.08.72.22.72.58s-.5.47-.79.47c-.14.57-.75 3.13-.9 3.63a23.09 23.09 0 006-1.76l.61 5.65a47.22 47.22 0 01-8.14 1.69 86.58 86.58 0 01-9.43 21.06 38.32 38.32 0 00-5.43-2.74 58.59 58.59 0 008.89-17.45c-2.2.18-2.63.18-6.59.21l-.47-5.9c1.08.07 2.34.14 4.18.14 1.62 0 2.7 0 4.28-.14.51-2.7.76-5 1-6.8zm2.7 21.7a3.52 3.52 0 00-1 2.13 1 1 0 00.65.93 13.25 13.25 0 004.82.61 26.28 26.28 0 007.98-1.21 15.32 15.32 0 00-.25 2.8 24 24 0 00.22 3 43.9 43.9 0 01-7.46.61c-4.71 0-11-.68-11-5.79a9.75 9.75 0 011.4-4.72zm-1.69-10.18a46 46 0 018-.65 26.29 26.29 0 015.29.39c-.22 2.67-.25 3.24-.29 5.66a20.85 20.85 0 00-5.4-.65 65.1 65.1 0 00-7.56.65zm44.14-2.7c-6.12 5.37-7.56 7.13-8.28 8a2 2 0 01.83-.15 2.82 2.82 0 013 2.6c0 .72-.54 3.88-.54 4.53 0 1.8.9 2 2.34 2a24.25 24.25 0 008.17-1.37 52.7 52.7 0 00.18 5.76 51.07 51.07 0 01-9 .9c-6.44 0-7.2-2.52-7.2-4.46 0-.58.18-3 .18-3.53 0-.29 0-1.58-.9-1.58-1.22 0-3.42 2.63-9.25 9.47l-4.57-4.07A140 140 0 00160 62.18a56.15 56.15 0 01-10.66 1.87l-1-5.65h2.52c5.9 0 13.32-1.44 16.56-3.28zm-16.67-10.18a33.44 33.44 0 009.61 1.22 21.12 21.12 0 002.56-.11 23.83 23.83 0 00-.61 5.22c-.44 0-.94.07-1.66.07a56.74 56.74 0 01-10.37-.9zm28.19 5.68a25 25 0 004 .29c1 0 2.12-.07 3.67-.18a57.25 57.25 0 001.33-6.12l5.65 1.77c.5.14.68.28.68.57s-.57.43-.75.43c-.11.25-.58 1.91-.72 2.38a30.35 30.35 0 003.89-1.19 38.26 38.26 0 00.1 5.36 47.31 47.31 0 01-5.76 1.26c-.5 1.48-1.72 4.79-3.67 9.22a47.52 47.52 0 01-4.21 7.92 28.18 28.18 0 00-5.4-2.16A64.26 64.26 0 00188.6 60c-.82.07-4.28.18-5.4.18zm23.29 9.83a5.32 5.32 0 00-1.3 3.53 26.53 26.53 0 00.36 3.52 38 38 0 017.63 4.4 36.49 36.49 0 00-3.31 4.32 32.21 32.21 0 00-4.14-3c-.68 3.39-3.06 4.39-7.2 4.39-5.72 0-8.56-2.55-8.56-5.94 0-.68.14-5.68 7.41-5.68 1 0 1.73.07 2.38.1 0-.25-.18-2.84-.18-3.13a7 7 0 012.52-5zm-8.93 9.79c-1 0-2.3.5-2.3 1.48s1 1.33 2.55 1.33c2.45 0 2.6-1.19 2.7-2.09a7 7 0 00-2.95-.72zm7-19.19c5.72 1.88 7.84 3.39 9.46 4.68a46.72 46.72 0 00-3.27 4.65 25.9 25.9 0 00-9-4.65zm21.37-2.62c.33.11.72.21.72.54s-.43.54-.76.57a32.44 32.44 0 00-2 10.84c0 4.39 1.37 7.45 2.41 7.45s2.52-3.17 3.49-5.44a16.37 16.37 0 003.78 3.82c-2.88 7-6.15 9.43-7.92 9.43-2 0-7.34-4.28-7.34-15.41a64.47 64.47 0 011.76-13.46zm17.39.25a35.89 35.89 0 017.27 18.11c-2.13.82-4.68 2-5.87 2.66a32.72 32.72 0 00-6-17.82zM267 55.42v-6.59l5.4.14c.54 0 .83.11.83.51a.82.82 0 01-.25.5 3.92 3.92 0 01-.33.36v5.08h11.66v4.82h-11.65v5H281v4.78h-8.32v6.38h13.12v4.71h-32.94v-4.67H267v-6.38h-8.17v-4.78H267v-5h-7.3a31.7 31.7 0 01-3.6 5.43 15.8 15.8 0 00-4.71-2.52c5.72-7.16 6.87-13.35 6.95-13.75l5 1.48c.39.11.79.29.79.68 0 .58-.54.54-.79.54-.43 1.19-1.26 3.17-1.33 3.32zm23.3 2.8a30.35 30.35 0 016.05 3.78 32 32 0 00-2.91 4 22.63 22.63 0 00-5.58-4zm-1.94 21.13a41.24 41.24 0 005.4-11.3 10.3 10.3 0 004.24 2.84 92.25 92.25 0 01-4.25 9.83 1.44 1.44 0 01.36.83.47.47 0 01-.46.5 2.14 2.14 0 01-.9-.25zm4-30.67a38.31 38.31 0 015.83 3.32 29.77 29.77 0 00-2.85 4.18 38.52 38.52 0 00-5.79-3.78zm20.15 9.54h9.11v4.57h-9.11v3.64h7.67v15.26h-5.08v-1.4H305v1.4h-5.12V66.43h7.6v-3.64H298v-4.57h9.54v-3a53.5 53.5 0 01-6.84.47 14.88 14.88 0 00-1.76-4.54c8.35.11 11.59-.5 17.53-2.34l3.16 3.31a1 1 0 01.33.61c0 .37-.29.51-.65.51a1.94 1.94 0 01-.79-.18 33.65 33.65 0 01-6 1.44zM315.1 76v-5.11H305V76zm28.48-26.52c.22 0 .72.14.72.64s-.65.54-.9.54l-.83 1.77a38.92 38.92 0 007.43-1.69v5.32c-5.36.94-6 1-10.25 1.55-.44.76-.51.9-1.41 2.48a6.84 6.84 0 013.13-.72 6.33 6.33 0 015.26 3.06c5.33-2.55 5.94-2.8 7.27-3.56l2.12 5.76c-4 1.26-6.08 2-8.2 2.91.07 1 .1 2.17.1 3.25 0 1.61-.07 2.62-.1 3.59-1.15-.07-2.45-.07-3.6-.07a16.55 16.55 0 00-2.09.07 30.85 30.85 0 00.25-4.1c-2.23 1.37-4.5 2.88-4.5 4.36s3.67 1.72 5.51 1.72A40.33 40.33 0 00355 74.6a22.81 22.81 0 00-.69 5.72 44.35 44.35 0 01-10 1.05c-2.41 0-11.77 0-11.77-6.37 0-4.25 5.72-7.81 9.65-9.87a2.62 2.62 0 00-2.7-1.8c-3.75 0-6.27 4-8.24 7.24l-5-2.84a76 76 0 007.29-9.73c-1.94.07-3.53.07-5.08 0v-5.22c1.12.11 3.2.29 5.65.29h2.05a27.27 27.27 0 001.91-4.71zm37.48 18.17h-7.45v-4.6h20v4.6h-7.74V70h5.94v4.47h-5.94V77a14 14 0 001.84.07 39 39 0 006.62-.64 14.65 14.65 0 00-1.15 4.93 29 29 0 01-5 .29c-4 0-7.6 0-11.23-4.5a15.42 15.42 0 01-3.31 4.89 6.83 6.83 0 00-3.67-2.19c-.58 1.9-2.78 2-6.56 2.08a19 19 0 00-1.33-4.86 9.17 9.17 0 002.27.22c1.08 0 1.08-.36 1.08-2V69.2c-1.22.43-1.66.58-2.59.86-.25.69-.51 1-.94 1-.25 0-.32-.22-.36-.44l-.86-5.5c.83-.15 1.65-.29 4.75-1.12v-5H361v-4.67h4.39v-5.57l5.11.28a.4.4 0 01.43.36c0 .4-.54.62-.86.72v4.21H373V59h-2.95v3.5c1.83-.62 2.3-.83 2.95-1.08a13.77 13.77 0 00-.14 2A19.83 19.83 0 00373 66a15 15 0 01-2.95 1.4v11.52a18.59 18.59 0 004.18-10.84l5 1.26c.21.08.5.15.5.51s-.65.57-.86.61c-.18.9-.25 1.26-.4 1.84a10.77 10.77 0 002.56 3zm11.23-18.28v12.52h-17.64V49.37zm-4.93 4.75v-1.26h-7.53v1.26zm-7.53 2.81v1.44h7.53v-1.44zM420.23 74a27.92 27.92 0 009.39 4.32c-.65.4-1.51 1-3.24 3.93A36 36 0 01415.83 76v6h-5.11v-6.3a33.9 33.9 0 01-10.83 6.52c-1.73-3-2.59-3.53-3.24-3.93A26.53 26.53 0 00406 74h-9.1v-3.79h13.78V68.3a40.78 40.78 0 01-10 1.3 9.9 9.9 0 00-1.84-4.18c.9.07 2 .15 3.57.15a25.29 25.29 0 006.62-.8c-1.3-.25-1.8-.32-2.38-.39l-.79.65a12.14 12.14 0 00-4.1-2.16c.79-.65 1.3-1.08 2.09-1.84h-6.91v-3.71h10.22a25.27 25.27 0 001.76-2.55h-6.33v1.65h-4.9V51h12.71v-2.32l5.79.18c.29 0 .76 0 .76.44s-.5.64-.76.75v1h12.75v5.22h-5.22v-1.5h-8.21c.18.61-.43.68-1.15.75-.69.9-.87 1.08-1.37 1.8h16.88V61h-6.95a.33.33 0 01.22.29c0 .36-.72.47-1 .5a21.31 21.31 0 01-1.91 1.8 40.62 40.62 0 016.91 2.63 17.76 17.76 0 00-2.84 4h5.54V74zM410 61l-1 1a46.59 46.59 0 015.11.65 13.08 13.08 0 002.37-1.65zm6 5.44a27.36 27.36 0 01-5.19 1.83l5.26.22c.32 0 .68.07.68.43s-.39.61-.9.9v.36h8.46a32.28 32.28 0 00-8.31-3.71zm37.09-16.96c.58.07.9.1.9.39s-.43.54-.72.61c-.07.65-.1 1.08-.18 2.52 10.15-.43 11.27-.46 12-.54 0 .76-.1 4.32 0 5.8-6.52-.33-9.25-.33-11.88-.29a29.77 29.77 0 000 4c2.09 2.55 2.09 6.4 2.09 6.91a17 17 0 01-8.3 13.89 24 24 0 00-5.25-3.71c1.08-.43 5.33-2.23 6.62-5.18a4 4 0 01-2.84.86 4.81 4.81 0 01-3.89-1.62 9 9 0 01-1.55-5.32c0-7.92 6.77-7.67 7.53-7.56v-2a98.24 98.24 0 00-14.36 1.87l-.4-6.08c.83 0 2.2 0 14.62-.76a35.61 35.61 0 00-.51-4.57zm-8.31 18c0 2.38 1.19 3 1.83 3 1.12 0 1.77-1.66 1.77-3.46 0-.83-.18-2.23-1.62-2.23-1.19.02-1.98 1.21-1.98 2.68zm49.64-14.33c-2.45 1.62-8 7.2-8.82 8a19.81 19.81 0 014.32-.54c4.9 0 9.94 3.1 9.94 9.47 0 7.92-7.53 11.38-13.75 11.38-4.65 0-9.15-1.84-9.15-6.2 0-3.56 3.31-5.75 7.06-5.75 3.38 0 6.91 1.9 7.74 5.29a4.77 4.77 0 002.37-4.25c0-.86-.29-5.26-5.86-5.26-6.09 0-9.54 3.57-14.55 8.79l-4.32-4.22a95 95 0 0014.58-14c-1.15.25-2.37.54-9.57 1.26l-.87-5.65c1.41 0 11.81.14 18-2.27zM483.59 74c-1.23 0-1.52.69-1.52 1.3 0 1.37 2 1.91 3.24 1.91a5.88 5.88 0 001.8-.29 3.53 3.53 0 00-3.52-2.92zm32.07 2.11a5.08 5.08 0 11-5.07-5.11 5.09 5.09 0 015.07 5.11zm-7.92 0a2.85 2.85 0 102.85-2.84 2.83 2.83 0 00-2.85 2.84z" fill="#ff9600" data-name="object"/></g></svg>