<svg xmlns="http://www.w3.org/2000/svg" viewBox="0 0 88 88"><defs><style>.cls-1{fill:#fff;}.cls-2{fill:#0f3286;}</style></defs><g id="レイヤー_2" data-name="レイヤー 2"><g id="レイヤー_1-2" data-name="レイヤー 1"><circle class="cls-1" cx="44" cy="44" r="42"/><path class="cls-2" d="M44,4A40,40,0,1,1,4,44,40,40,0,0,1,44,4m0-4A44,44,0,1,0,88,44,44,44,0,0,0,44,0Z"/><polygon class="cls-2" points="63.09 27.74 60.26 24.91 44 41.17 27.74 24.91 24.91 27.74 41.17 44 24.91 60.26 27.74 63.09 44 46.83 60.26 63.09 63.09 60.26 46.83 44 63.09 27.74"/></g></g></svg>