<svg xmlns="http://www.w3.org/2000/svg" width="335.12" height="309.33" viewBox="0 0 335.12 309.33"><g><path d="m323.44,207.42c2.58-2.06,4.07-5.07,4.07-8.25v-74.24l5.59-4.25c1.29-.98,2.03-2.43,2.03-3.99v-44.11c0-.78-.44-1.47-1.16-1.83l-9.22-4.92L167.37,1c-1.45-.6-3.12-.48-4.46.32L18.69,87.49s-3.57,2.02-3.57,5.82v41.51c0,1.87,1.09,3.57,2.84,4.45l7.21,3.91v87c0,2.81,1.67,5.34,4.35,6.59l153.4,71.45c1.42.66,2.93.99,4.44.99,1.95,0,3.88-.55,5.58-1.63.43-.27.83-.57,1.19-.89.17.11.34.21.53.3,1.49.72,3.21.53,4.49-.48l124.3-99.08Z" fill="#fffad9"/></g><g><path d="m172.35,309.2c-1.5,0-3.02-.33-4.44-.99l-72.99-34s-.08.06-.12.08c-1.23.79-2.76.9-4.09.3l-15.55-7.03c-1.81-.82-3.11-2.4-3.53-4.21l-57.1-26.6c-2.68-1.25-4.35-3.77-4.35-6.58v-82h.69v82c0,2.54,1.51,4.82,3.95,5.96l56.68,26.4c-.01-.16-.02-.32-.02-.48v-88.42L2.96,139.27c-1.75-.88-2.84-2.58-2.84-4.45v-41.51c0-.71.37-1.37,1-1.77.68-.43,1.53-.48,2.25-.12l69.91,33.67c-.34-1.48-1.37-2.79-2.86-3.5L3.8,89.82c-.44-.21-.73-.64-.75-1.13-.02-.49.22-.95.64-1.2l61.63-36.82c-.47-.21-.83-.61-.98-1.13-.22-.76.08-1.53.78-1.97l15.79-9.79c1.71-1.06,3.76-1.43,5.77-1.05.46.09.95.18,1.48.29L147.92,1.32c1.34-.8,3.01-.92,4.46-.32l64.93,26.75c.4-.16.8-.31,1.19-.46,2.18-.81,4.68-.75,6.84.17l20.21,8.61c.77.33,1.27,1.03,1.3,1.83.02.66-.27,1.28-.8,1.69l63.7,26.24c1.68.69,2.76,2.25,2.76,3.98v4.21l4.08-3.07c.69-.52,1.6-.6,2.38-.21.73.36,1.16,1.05,1.16,1.83v44.11c0,1.56-.74,3.01-2.03,3.99l-5.59,4.25v74.24c0,3.18-1.48,6.19-4.07,8.25l-39.92,31.82v.81c0,2.16-.99,4.22-2.7,5.66l-13.63,11.38c-.64.54-1.52.65-2.3.3-.72-.33-1.17-1-1.19-1.75v-.59s-64.57,51.46-64.57,51.46c-1.28,1.02-3,1.2-4.49.48-.19-.09-.36-.19-.53-.3-.37.32-.77.62-1.19.89-1.7,1.08-3.63,1.63-5.58,1.63Zm-76.85-35.48l72.7,33.86c3.04,1.42,6.54,1.19,9.35-.6.36-.23.7-.48,1.02-.75-.72-.7-1.13-1.64-1.13-2.67v-76.72c-.23-.14-.48-.28-.73-.41l-80.14-40.21v84.87c0,.99-.38,1.91-1.07,2.61Zm84.14,32.47c.1.06.2.12.31.17,1.25.6,2.69.45,3.75-.4l64.97-51.79-1.65-79.49-67.68,51.43c-.32.24-.67.4-1.05.47,2.49,1.75,3.99,4.51,3.99,7.49v65.76c0,2.43-.94,4.66-2.64,6.36Zm-1.51-78.87v76.25c0,.85.35,1.63.96,2.2,1.61-1.58,2.51-3.67,2.51-5.94v-65.76c0-2.66-1.29-5.13-3.46-6.75Zm-105.68,36.43c.49,1.37,1.55,2.54,2.98,3.19l15.55,7.03c1.03.47,2.2.43,3.18-.1l-21.71-10.11Zm-.23-.87l22.6,10.53c.68-.59,1.06-1.41,1.06-2.3v-85.22l-23.72-11.9v88.07c0,.28.02.56.07.83Zm177.15-8.39l.02,1.12c.01.49.3.92.78,1.13.41.19,1.04.24,1.56-.2l13.63-11.38c1.56-1.3,2.46-3.17,2.46-5.13v-.26l-18.45,14.71Zm-1.66-80.33l1.65,79.46,18.47-14.72v-72.54c0-2.56-.05-5.02-.15-7.37l-19.97,15.18Zm20.64-15.69c.11,2.51.17,5.13.17,7.88v71.99l39.49-31.47c2.42-1.93,3.8-4.74,3.8-7.71v-73.71l-43.46,33.02Zm-39.95-20.34l-47.23,35.52c-1.93,1.45-3.04,3.62-3.04,5.93v46.32c.28-.05.56-.17.79-.35l68.09-51.74-.31-14.93h.69s.3,14.41.3,14.41l19.95-15.16c-.8-16.78-4.27-28.59-11.93-40.55l-17.03,12.81c.09,6.81-1.75,14-5.52,21.5l-.64-.27s.99-3.06-.32-7.13c-.59-1.82-1.7-4.04-3.8-6.37Zm-126.39.79l71.6,34.48c1.5.72,2.43,2.16,2.43,3.74v47.16c0,.61.35,1.14.92,1.43.15.07.3.13.46.16v-46.31c0-2.54,1.21-4.9,3.32-6.49l47.18-35.48c-2.23-2.33-5.46-4.75-10.12-6.98-1.17-.56-2.38-1.13-3.64-1.73-16.64-7.89-40.57-19.22-53.52-33.94-1.12-.13-1.88-.26-2.18-.31-2.03,1.46-29.07,20.88-45.95,32.06-4.83,3.2-8.18,7.62-10.5,12.2Zm-5.45,46.53l78.91,39.59c-.08-.23-.12-.48-.12-.74v-47.16c0-1.32-.78-2.51-2.04-3.12l-71.61-34.49c-1.84,3.78-2.99,7.63-3.71,10.96-1.79,8.22-1.43,15.11-1.42,15.18v.02s0,19.75,0,19.75Zm-24.42-12.25l23.72,11.9v-19.4c-.02-.31-.34-7.18,1.44-15.34.89-4.08,2.15-7.82,3.76-11.14l-26.97-12.99c0,.32-.04.64-.1.96-.84,4.22-1.84,11.06-1.84,19.67v26.33ZM2.36,91.89c-.3,0-.6.08-.87.25-.43.27-.68.7-.68,1.18v41.51c0,1.6.94,3.07,2.46,3.83l68.19,34.21v-25.98c0-8.67,1.01-15.55,1.85-19.8.08-.39.1-.78.08-1.17L3.08,92.05c-.23-.11-.47-.16-.72-.16Zm253.91,25.3c7.69,11.97,11.2,23.78,12.05,40.46l43.5-33.05v-49.18l-55.54,41.77Zm-27.31,20.54c2.16,2.42,3.31,4.73,3.92,6.63.65,2.03.76,3.8.69,5.11,2.94-6.44,4.42-12.63,4.42-18.53l-9.03,6.79Zm-154.9-12.26l27.32,13.16c.22-.44.45-.86.68-1.29,2.61-4.73,6-8.49,10.08-11.19,17.45-11.55,45.77-31.92,46.05-32.13l.12-.09.15.03s.56.11,1.52.23c-1.73-2.04-3.24-4.15-4.49-6.31-3.86.98-8.79,1.19-14.68.62-1.03-.1-2.16-.2-3.38-.31-3.69,2.77-7,5.02-9.86,6.58-3.42,1.86-7.67,4.22-12.17,6.72-8.07,4.48-17.21,9.55-24.39,13.32-3.92,2.05-6.86,3.52-9,4.47-3.56,1.59-4.1,1.42-4.37,1.08-.32-.4.09-.95.52-1.44,2.87-3.22,5.78-5.28,11.36-8.24-5.88.96-13.6,1.28-22.35.31-13.1-1.44-33.26-6.29-54.91-21.15l-1.79-1.23,2.08.61c10.51,3.07,20.46,4.12,23.73,4.39-8.45-6.95-9.88-16.38-9.89-16.48l-.15-1.03.73.74c.09.09,9.44,9.29,32.76,16.19,11.62,3.44,26.44,3.31,36.83,2.6,4.45-.3,8.49-.74,11.75-1.15-5.77.3-13.93.55-22.46.29-7.78-.24-13.76-1.34-17.77-3.3-3.79-1.85-5.86-4.44-6.13-7.71-.07-.84-1.67-20.73,5.07-26.47,2.74-2.34,8.91-2.98,18.32-1.89,8.01.92,18.31,3.09,29.78,6.29,24.81,6.91,29.22,8.86,29.4,8.94l1.46.66h-1.6c-2.69,0-3.8,5.26-4.69,9.48-.29,1.39-.57,2.7-.88,3.76-.33,1.11-1.11,2.07-2.31,2.9.24.02.48.04.72.06,5.55-4.18,11.94-9.53,18.92-15.43-3.47-.24-6.94-1.04-10.68-2.42-13.93-5.18-41.04-12.56-57.62-16.21-9.04-1.99-16.96-2.64-21.45-2.59L4.05,88.09c-.2.12-.32.33-.31.57s.14.44.36.54l66.63,31.78c1.86.89,3.09,2.61,3.33,4.49Zm87.62-30.37c12.96,14.32,36.41,25.44,52.79,33.2,1.26.6,2.48,1.17,3.64,1.73,4.78,2.28,8.1,4.78,10.38,7.19l9.49-7.14c-.1-4.16-.94-8.18-2.52-12.02-4.29-10.44-13.37-17.75-20.23-22.04-7.44-4.66-13.94-6.87-14.01-6.9l.18-.67c.09.02,8.93,1.74,18.71,2.74-5.06-2.54-10.43-5.12-15.94-7.68-1.5.74-2.97,1.62-4.36,2.64-9.19,6.76-19.98,8.71-27.41,9.15-4.41.26-8.19.05-10.72-.21Zm43.08-5.33c2.64,1.13,6.59,3,10.84,5.66,6.94,4.35,16.14,11.76,20.5,22.37,1.55,3.77,2.4,7.7,2.56,11.77l16.68-12.54c-1.15-1.76-2.38-3.52-3.71-5.3-4.05-5.43-15.5-12.38-29.78-19.65-6.76-.62-13.25-1.64-17.08-2.3Zm107.74-14.87v49.17l5.17-3.93c1.11-.85,1.75-2.1,1.75-3.44v-44.11c0-.51-.29-.97-.78-1.21-.54-.27-1.18-.22-1.65.14l-4.49,3.38Zm-220.66,35.36c-6.84,3.5-10.05,5.63-13.18,9.13-.23.25-.34.42-.4.52.71-.02,3.41-.96,12.94-5.98,7.09-3.73,16-8.67,23.85-13.03,4.5-2.5,8.75-4.86,12.17-6.72,2.67-1.45,5.74-3.52,9.15-6.06-.29-.02-.59-.05-.89-.07-4.03,2.19-11.44,3.47-21.72,4.67-6.33.74-16.79.56-27.31-.46-10.75-1.05-18.33-2.64-20.28-4.25-.37-.3-.56-.63-.59-.96-.01-.16.02-.39.26-.62,1.5-1.46,12.09-1.87,31.48-1.23,13.51.45,28.11,1.34,38.01,2.14,1.51-.85,2.46-1.84,2.81-3,.3-1.03.58-2.33.87-3.7.86-4.08,1.82-8.64,4.19-9.77-2.37-.87-9.51-3.29-28.27-8.51-11.44-3.19-21.7-5.35-29.68-6.27-9.22-1.06-15.2-.48-17.8,1.73-5.18,4.41-5.42,18.86-4.83,25.88.54,6.34,8.57,9.93,23.24,10.37,15.9.48,30.54-.83,30.68-.84l.1.69c-.09.02-8.74,1.63-20.04,2.4-10.44.71-25.35.84-37.07-2.63-12.28-3.63-20.6-7.88-25.43-10.8-3.56-2.16-5.76-3.9-6.84-4.83.64,2.7,3.01,10.19,10.31,15.71l.91.69-1.14-.07c-.11,0-10.89-.67-22.94-3.92,20.86,13.84,40.16,18.43,52.82,19.83,9.84,1.09,18.36.55,24.36-.7,1.9-.97,4.08-2.05,6.62-3.29.5-.24.96,0,1.15.38.19.37.14.89-.35,1.16-1.62.9-4.06,1.75-7.17,2.4Zm131.85-18.03c15.55,8.01,24.89,14.27,28.48,19.08,1.33,1.78,2.57,3.54,3.71,5.3l55.92-42.06v-4.73c0-1.45-.92-2.76-2.34-3.34l-64.2-26.45c-6.02,3.12-19.38,10.12-26.98,14.59,5.44-.23,24.85-.66,31.24,4.82,6.11,5.24-.04,22.67-1.13,24.96-.08.16-.24.51-.57.4-.34-.11-.28-.47-.19-1.05.07-.42.18-1.01.32-1.76.95-5.08,3.17-16.97-.11-20.22-2.32-2.29-12.65-4.25-24.03-4.55-13.96-.37-26.77,1.67-35.15,5.59-5.66,2.65-10.55,4.78-14.97,6.33,9.93,4.33,20.42,8.93,30.47,13.6,7.79-3.76,16.5-4.18,21.52-4.03,8.78.26,16.86,2.51,20.09,5.6,1.59,1.52,1.89,3.14.87,4.67-2.54,3.81-12.82,4.05-22.95,3.24Zm-125.09,14.69s-.06,0-.09.02c-1.4.69-2.7,1.32-3.89,1.92,1.66-.49,3.03-1.04,4.06-1.61.12-.07.11-.17.07-.23-.03-.05-.07-.1-.14-.1Zm62.4-12.58c2.47.28,6.54.58,11.38.28,7.33-.44,17.98-2.37,27.03-9.02,1.27-.93,2.6-1.75,3.97-2.45-10.21-4.73-20.83-9.39-30.64-13.66-5.7,1.91-10.66,2.83-15.58,2.64-6.94,5.88-13.33,11.23-18.9,15.47.94.08,1.81.16,2.63.24,6.4.62,10.98.24,14.25-.57-3.61-6.54-3.02-9.84-1.9-11.44,1.08-1.55,3.19-2.24,5.64-1.85,2.57.41,4.73,1.86,5.25,3.54.66,2.15.17,4.45-1.35,6.31-1.42,1.74-3.63,3.05-6.58,3.9,1.33,2.28,2.96,4.49,4.82,6.63Zm-78.83-8.72c-12.78,0-15.36.87-15.83,1.32-.04.04-.05.06-.05.07,0,.14.13.3.34.47,1.82,1.51,9.45,3.08,19.9,4.1,10.47,1.02,20.88,1.2,27.16.46,9.25-1.08,16.32-2.25,20.45-4.09-9.85-.77-23.84-1.61-36.83-2.04-6.2-.21-11.16-.29-15.14-.29Zm139.86,5.77c13.68,1.25,22,.29,24.04-2.78.82-1.23.56-2.51-.77-3.79-3.07-2.93-11.14-5.16-19.64-5.41-4.84-.14-13.15.25-20.68,3.71,4.71,2.19,9.31,4.39,13.71,6.58,1.14.57,2.26,1.13,3.34,1.68Zm-64.47-16.83c-1.65,0-3.02.59-3.77,1.66-1.02,1.45-1.5,4.5,1.97,10.77.02.03.04.07.06.1,3.58-1.01,5.45-2.54,6.41-3.71,1.37-1.68,1.82-3.75,1.23-5.67-.43-1.41-2.41-2.7-4.69-3.06-.41-.06-.81-.1-1.2-.1Zm63.02-18.06c1.07,0,2.16.01,3.25.04,11.72.31,22.02,2.31,24.5,4.75,3.44,3.4,1.4,14.95.39,20.37.75-2.16,1.7-5.39,2.29-8.82.76-4.46,1.04-10.32-1.93-12.87-7.08-6.07-31.89-4.59-32.14-4.58l-1.41.09,1.21-.73c7.13-4.29,21.1-11.63,27.7-15.05l-27.15-11.18c-15.28,6.21-34.52,21.94-52.22,36.9.85.37,1.71.74,2.58,1.12,1.68.73,3.38,1.47,5.1,2.22,4.59-1.56,9.67-3.76,15.62-6.55,7.81-3.66,19.42-5.7,32.21-5.7Zm-62.64,14.95c4.38.06,8.81-.76,13.82-2.38-1.48-.65-2.95-1.28-4.39-1.91-.98-.42-1.94-.84-2.89-1.26-1.46,1.23-2.91,2.46-4.34,3.68-.74.63-1.47,1.25-2.2,1.87Zm-90.4-21.29c4.67.06,12.08.77,20.45,2.61,16.6,3.65,43.75,11.05,57.71,16.23,3.92,1.46,7.56,2.25,11.21,2.42.92-.78,1.85-1.57,2.79-2.36,1.35-1.14,2.71-2.3,4.08-3.46-10.51-4.57-19.54-8.53-25.63-11.54-18.83-9.3-40.05-14.3-49.87-16.28l-20.73,12.39Zm21.62-12.92c10.15,2.08,30.86,7.08,49.3,16.19,6.13,3.03,15.27,7.03,25.91,11.66,17.56-14.84,36.67-30.51,52.02-36.96L152.11,1.64c-1.25-.52-2.69-.41-3.84.28l-59.11,35.32Zm-4.01.05c-1.37,0-2.73.37-3.88,1.09l-15.79,9.79c-.52.32-.59.82-.48,1.18.11.38.49.81,1.16.8.01,0,.02,0,.04,0l21.07-12.59c-.25-.05-.49-.1-.72-.14-.46-.09-.93-.13-1.39-.13Zm133.07-9.16l27.02,11.13s.09-.04.13-.07c.5-.26.79-.73.77-1.27-.02-.54-.35-1-.88-1.22l-20.21-8.61c-2-.85-4.31-.91-6.33-.16-.17.06-.34.13-.51.19Z" fill="#191919" stroke="#191919" stroke-miterlimit="10" stroke-width=".25px"/></g></svg>