<svg xmlns="http://www.w3.org/2000/svg" width="699.37" height="124.3" viewBox="0 0 699.37 124.3"><path d="M81.43 109.23c-.15-3.9-.23-6.88-.23-8.93 0-4.83.15-8.73.46-11.71h-3.54c-.92 7.29-2.29 13.04-4.08 17.25-1.8 4.21-4.42 7.24-7.85 9.09-3.44 1.85-8.08 2.77-13.94 2.77h-10.01c-3.29 0-5.78-.28-7.47-.85-1.69-.56-2.85-1.72-3.47-3.46-.62-1.75-.92-4.36-.92-7.85v-37.58h8.47c4.41 0 7.67.98 9.78 2.93 2.1 1.95 3.57 4.49 4.39 7.62.82 3.13 1.49 6.39 2 9.78h3.54c-.41-5.85-.67-10.32-.77-13.4-.1-3.08-.15-5.9-.15-8.47s-.03-5.39-.08-8.47c-.05-3.08.13-7.55.54-13.4h-3.54c-.41 1.95-.85 4.08-1.31 6.39-.46 2.31-1.21 4.54-2.23 6.7-1.03 2.16-2.49 3.9-4.39 5.24-1.9 1.33-4.49 2-7.78 2h-8.47V27.92c0-3.59.31-6.24.92-7.93.62-1.69 1.77-2.82 3.47-3.39 1.69-.56 4.18-.85 7.47-.85h10.63c5.24 0 9.32.8 12.24 2.39 2.93 1.59 5.13 4.29 6.62 8.08 1.49 3.8 2.59 8.98 3.31 15.55h3.54c-.1-1.13-.21-2.57-.31-4.31-.1-1.74-.15-3.59-.15-5.54s.08-4.75.23-8.39c.15-3.64.44-7.42.85-11.32-4.72.21-10.09.33-16.09.39-6.01.05-11.37.08-16.09.08h-9.09c-3.7 0-7.68-.02-11.93-.08-4.26-.05-8.57-.1-12.94-.15-4.36-.05-8.55-.13-12.55-.23v3.08c3.39.1 5.95.49 7.7 1.16 1.74.67 2.93 1.9 3.54 3.7.62 1.8.92 4.6.92 8.39v76.38c0 3.7-.28 6.47-.85 8.32-.57 1.85-1.72 3.08-3.46 3.7-1.75.62-4.37 1.03-7.85 1.23v3.08c4-.1 8.19-.18 12.55-.23 4.36-.05 8.67-.1 12.94-.15 4.26-.05 8.24-.08 11.93-.08h9.09c5.13 0 10.98.03 17.56.08 6.57.05 12.47.18 17.71.38-.41-4.11-.69-8.11-.85-12.01ZM163.68 115.62c-1.39-1.18-2.85-2.95-4.39-5.31l-23.18-33.98 15.17-20.23c2.46-3.39 4.85-6.01 7.16-7.85s4.49-2.98 6.54-3.39v-3.08c-1.54.1-3.23.21-5.08.31-1.85.1-3.95.15-6.31.15s-4.8-.05-7.01-.15c-2.21-.1-4.7-.2-7.47-.31v3.08c3.7.21 6.21.98 7.55 2.31 1.33 1.34 1.69 3.13 1.08 5.39-.62 2.26-2.11 5.08-4.47 8.47l-9.07 12.49-15.87-23.27c-1.03-1.64-.92-2.93.31-3.85 1.23-.92 2.82-1.39 4.77-1.39v-3.23c-1.64.1-4.23.23-7.78.38-3.54.15-7.01.23-10.4.23-2.46 0-4.98-.08-7.55-.23-2.57-.15-4.52-.28-5.85-.38v3.23c1.85.21 3.36.85 4.54 1.92 1.18 1.08 2.75 3 4.7 5.78l21.91 32.13-17.29 22.23c-2.88 3.59-5.37 6.24-7.47 7.93-2.11 1.69-4.18 2.75-6.24 3.16v3.08c1.54-.21 3.23-.33 5.08-.38 1.85-.05 3.95-.08 6.31-.08 1.64 0 3.59.03 5.85.08 2.26.05 4.57.1 6.93.15 2.36.05 4.47.13 6.31.23v-3.08c-3.59-.31-6.42-1.18-8.47-2.62-2.06-1.44-2.98-3.51-2.77-6.24.21-2.72 1.69-5.88 4.47-9.47l9.32-12.02 17.02 24.95c1.13 1.54 1.08 2.8-.15 3.77-1.23.98-2.88 1.46-4.93 1.46v3.23c1.75-.1 4.47-.23 8.16-.38 3.7-.15 7.24-.23 10.63-.23 2.46 0 4.9.08 7.32.23 2.41.15 4.24.28 5.47.38v-3.23c-1.85-.41-3.46-1.21-4.85-2.39ZM202.87.66v56.06c2.57-6.36 6.18-10.8 10.86-13.32 4.67-2.51 9.62-3.77 14.86-3.77 4.11 0 7.47.54 10.09 1.62 2.62 1.08 4.8 2.54 6.54 4.39 1.85 1.95 3.18 4.47 4 7.55.82 3.08 1.23 7.24 1.23 12.47v41.27c0 4.31.85 7.24 2.54 8.78 1.69 1.54 4.54 2.31 8.55 2.31v3.23c-1.85-.1-4.62-.23-8.32-.38-3.7-.15-7.29-.23-10.78-.23s-7.11.08-10.55.23c-3.44.15-5.98.28-7.62.38v-3.23c3.49 0 5.95-.77 7.39-2.31 1.44-1.54 2.16-4.47 2.16-8.78v-45.58c0-2.98-.26-5.67-.77-8.08-.52-2.41-1.62-4.36-3.31-5.85-1.69-1.49-4.18-2.23-7.47-2.23-3.7 0-7.01 1.05-9.93 3.16-2.93 2.11-5.24 5-6.93 8.7-1.69 3.7-2.54 7.91-2.54 12.63v37.27c0 4.31.72 7.24 2.16 8.78 1.44 1.54 3.9 2.31 7.39 2.31v3.23c-1.75-.1-4.29-.23-7.62-.38-3.34-.15-6.75-.23-10.24-.23s-7.26.08-11.01.23c-3.75.15-6.54.28-8.39.38v-3.23c4 0 6.85-.77 8.55-2.31s2.54-4.47 2.54-8.78V19.14c0-4.62-.8-8.03-2.39-10.24-1.59-2.21-4.49-3.31-8.7-3.31v-3.23c3.28.31 6.47.46 9.55.46 3.39 0 6.62-.18 9.7-.54 3.08-.36 5.9-.9 8.47-1.62ZM296.72 40.08v66.84c0 4.31.85 7.24 2.54 8.78s4.54 2.31 8.55 2.31v3.23c-1.75-.1-4.44-.23-8.08-.38-3.65-.15-7.37-.23-11.17-.23s-7.42.08-11.17.23c-3.75.15-6.54.28-8.39.38v-3.23c4 0 6.85-.77 8.55-2.31s2.54-4.47 2.54-8.78v-48.36c0-4.62-.77-8.03-2.31-10.24-1.54-2.21-4.47-3.31-8.78-3.31v-3.23c3.28.31 6.47.46 9.55.46 3.49 0 6.75-.18 9.78-.54 3.03-.36 5.83-.9 8.39-1.62Zm-9.24-37.11c3.18 0 5.85 1 8.01 3 2.16 2 3.23 4.49 3.23 7.47s-1.08 5.47-3.23 7.47c-2.16 2-4.83 3-8.01 3s-5.85-1-8.01-3-3.23-4.49-3.23-7.47 1.08-5.47 3.23-7.47 4.82-3 8.01-3ZM380.88 49.86c-5.49-6.83-12.35-10.24-20.56-10.24-6.57 0-12.24 2.13-17.02 6.39-2.9 2.59-5.18 5.83-6.85 9.7V.66c-2.57.72-5.39 1.26-8.47 1.62-3.08.36-6.31.54-9.7.54-3.08 0-6.26-.15-9.55-.46v3.23c4.21 0 7.11 1.1 8.7 3.31 1.59 2.21 2.39 5.62 2.39 10.24v94.56c0 1.54-.08 3.03-.23 4.47-.15 1.44-.44 2.88-.85 4.31l2.46 1.23c1.44-1.23 2.98-2.39 4.62-3.46 1.64-1.08 3.39-2.08 5.24-3 1.34-.67 2.66-1.26 3.95-1.77 1.64 1.72 3.5 3.16 5.6 4.31 4.41 2.41 9.03 3.62 13.86 3.62 6.16 0 11.88-1.52 17.17-4.54 5.29-3.03 9.52-7.67 12.71-13.94 3.18-6.26 4.77-14.27 4.77-24.02 0-13.86-2.75-24.2-8.24-31.03Zm-14.32 60.75c-3.23 6.26-8.08 9.39-14.55 9.39-3.49 0-6.93-.87-10.32-2.62-1.93-.99-3.67-2.28-5.24-3.84v-51.83c1.11-4.56 3.01-8.24 5.7-11.01 3.7-3.8 7.75-5.7 12.17-5.7 3.8 0 6.95 1.26 9.47 3.77 2.51 2.52 4.41 6.49 5.7 11.94 1.28 5.44 1.92 12.42 1.92 20.94 0 13.04-1.62 22.69-4.85 28.95ZM422.04 40.08v66.84c0 4.31.85 7.24 2.54 8.78s4.54 2.31 8.55 2.31v3.23c-1.75-.1-4.44-.23-8.08-.38-3.65-.15-7.37-.23-11.17-.23s-7.42.08-11.17.23c-3.75.15-6.54.28-8.39.38v-3.23c4 0 6.85-.77 8.55-2.31s2.54-4.47 2.54-8.78v-48.36c0-4.62-.77-8.03-2.31-10.24-1.54-2.21-4.47-3.31-8.78-3.31v-3.23c3.28.31 6.47.46 9.55.46 3.49 0 6.75-.18 9.78-.54 3.03-.36 5.83-.9 8.39-1.62Zm-9.24-37.11c3.18 0 5.85 1 8.01 3 2.16 2 3.23 4.49 3.23 7.47s-1.08 5.47-3.23 7.47c-2.16 2-4.83 3-8.01 3s-5.85-1-8.01-3-3.23-4.49-3.23-7.47 1.08-5.47 3.23-7.47 4.82-3 8.01-3ZM463.79 16.37v25.56h21.25v3.08h-21.25v60.52c0 4.21.77 7.19 2.31 8.93 1.54 1.75 3.75 2.62 6.62 2.62 2.67 0 5.06-1.08 7.16-3.23 2.1-2.16 3.93-5.8 5.47-10.93l2.93 1.08c-1.23 5.44-3.41 10.04-6.54 13.78-3.13 3.75-7.73 5.62-13.78 5.62-3.49 0-6.42-.44-8.78-1.31-2.36-.87-4.42-2.13-6.16-3.77-2.26-2.36-3.8-5.18-4.62-8.47-.82-3.28-1.23-7.65-1.23-13.09v-51.74h-14.17v-3.08h14.17v-22.48c3.18-.1 6.16-.39 8.93-.85 2.77-.46 5.34-1.21 7.7-2.23ZM520.07 40.08v66.84c0 4.31.85 7.24 2.54 8.78s4.54 2.31 8.55 2.31v3.23c-1.75-.1-4.44-.23-8.08-.38-3.65-.15-7.37-.23-11.17-.23s-7.42.08-11.17.23c-3.75.15-6.54.28-8.39.38v-3.23c4 0 6.85-.77 8.55-2.31s2.54-4.47 2.54-8.78v-48.36c0-4.62-.77-8.03-2.31-10.24-1.54-2.21-4.47-3.31-8.78-3.31v-3.23c3.28.31 6.47.46 9.55.46 3.49 0 6.75-.18 9.78-.54 3.03-.36 5.83-.9 8.39-1.62Zm-9.24-37.11c3.18 0 5.85 1 8.01 3 2.16 2 3.23 4.49 3.23 7.47s-1.08 5.47-3.23 7.47c-2.16 2-4.83 3-8.01 3s-5.85-1-8.01-3-3.23-4.49-3.23-7.47 1.08-5.47 3.23-7.47 4.82-3 8.01-3ZM571.39 39.62c6.88 0 12.99 1.44 18.33 4.31 5.34 2.88 9.6 7.39 12.78 13.55 3.18 6.16 4.77 14.22 4.77 24.18s-1.59 17.99-4.77 24.1c-3.18 6.11-7.44 10.58-12.78 13.4-5.34 2.82-11.45 4.24-18.33 4.24s-12.89-1.41-18.33-4.24c-5.44-2.82-9.73-7.29-12.86-13.4-3.13-6.11-4.7-14.14-4.7-24.1s1.56-18.02 4.7-24.18c3.13-6.16 7.42-10.68 12.86-13.55 5.44-2.87 11.55-4.31 18.33-4.31Zm0 3.08c-5.34 0-9.7 3.06-13.09 9.16-3.39 6.11-5.08 16.04-5.08 29.8s1.69 23.64 5.08 29.64c3.39 6.01 7.75 9.01 13.09 9.01s9.57-3 13.01-9.01c3.44-6.01 5.16-15.88 5.16-29.64s-1.72-23.69-5.16-29.8c-3.44-6.11-7.78-9.16-13.01-9.16ZM666.07 39.62c4.11 0 7.47.54 10.09 1.62s4.8 2.54 6.54 4.39c1.85 1.95 3.16 4.47 3.93 7.55.77 3.08 1.16 7.24 1.16 12.47v41.27c0 4.31.85 7.24 2.54 8.78s4.54 2.31 8.55 2.31v3.23c-1.75-.1-4.47-.23-8.16-.38-3.7-.15-7.34-.23-10.93-.23s-6.96.08-10.4.23c-3.44.15-6.03.28-7.78.38v-3.23c3.49 0 5.95-.77 7.39-2.31 1.44-1.54 2.16-4.47 2.16-8.78v-45.58c0-2.98-.26-5.67-.77-8.08-.51-2.41-1.59-4.36-3.23-5.85-1.64-1.49-4.11-2.23-7.39-2.23-3.8 0-7.16 1.08-10.09 3.23-2.93 2.16-5.24 5.11-6.93 8.85-1.69 3.75-2.54 7.93-2.54 12.55v37.11c0 4.31.74 7.24 2.23 8.78 1.49 1.54 3.93 2.31 7.31 2.31v3.23c-1.64-.1-4.13-.23-7.47-.38-3.34-.15-6.8-.23-10.4-.23s-7.14.08-10.93.23c-3.8.15-6.62.28-8.47.38v-3.23c4 0 6.85-.77 8.55-2.31s2.54-4.47 2.54-8.78v-48.36c0-4.62-.77-8.03-2.31-10.24-1.54-2.21-4.47-3.31-8.78-3.31v-3.23c3.28.31 6.47.46 9.55.46 3.49 0 6.75-.18 9.78-.54 3.03-.36 5.83-.9 8.39-1.62v16.79c2.67-6.36 6.34-10.83 11.01-13.4 4.67-2.56 9.62-3.85 14.86-3.85Z" fill="#fff" stroke="#f2e5af" stroke-miterlimit="10"/></svg>