<svg id="lead_100mrun.svg" xmlns="http://www.w3.org/2000/svg" width="1280" height="213" viewBox="0 0 1280 213">
  <defs>
    <style>
      .cls-1 {
        fill: #1a51b0;
        fill-rule: evenodd;
      }
    </style>
  </defs>
  <path id="_100m_DASH_のコピー" data-name="100m DASH のコピー" class="cls-1" d="M-18.459,342.481l42.81-14.636V497.989H63.18V288.119H25.1l-43.557,14.9v39.465Zm166.294-55.93c-31.859,0-60.482,19.079-60.482,58.544v97.486c0,39.2,27.628,56.976,59.238,56.976,31.859,0,60.482-18.818,60.482-58.283V343.788C207.073,304.584,179.2,286.551,147.835,286.551Zm-0.5,39.465C161.027,326.016,168,334.9,168,349.8v87.816c0,15.682-7.467,23-20.907,23s-20.659-7.841-20.659-23.522V349.276C126.43,333.6,133.9,326.016,147.338,326.016Zm153.756-39.465c-31.859,0-60.482,19.079-60.482,58.544v97.486c0,39.2,27.628,56.976,59.238,56.976,31.859,0,60.482-18.818,60.482-58.283V343.788C360.332,304.584,332.455,286.551,301.094,286.551Zm-0.5,39.465c13.69,0,20.659,8.886,20.659,23.783v87.816c0,15.682-7.467,23-20.907,23s-20.659-7.841-20.659-23.522V349.276C279.689,333.6,287.156,326.016,300.6,326.016Zm129.739,74.748c0-19.079,5.475-24.829,21.156-24.829,13.689,0,15.929,9.147,15.929,22.738v99.316h38.331V400.764c0-19.079,5.475-24.829,21.156-24.829,13.689,0,16.178,9.147,16.178,22.738v99.316h38.33v-108.2c0-33.454-13.689-50.181-43.557-50.181-13.938,0-29.37,3.921-38.828,17.773-8.213-14.114-21.156-17.773-36.836-17.773-13.939,0-27.379,3.921-35.593,15.159L424.859,341.7H392.005V497.989h38.33V400.764Zm262.659,97.225h68.447c34.6,0,61.229-21.17,61.229-66.646V353.981c0-45.476-26.881-65.862-60.482-65.862H692.994v209.87Zm62.473-172.5c18.917,0,28.375,9.67,28.375,31.1V428.99c0,21.432-8.961,31.625-27.877,31.625h-23.4V325.493h22.9Zm191.765,172.5h39.325l-50.775-209.87H887.745l-51.77,209.87h38.081l8.462-35.806h56.5Zm-56.5-70.3,20.409-86.51,19.912,86.51H890.732ZM1044.29,341.7c0-10.715,5.73-18.556,21.41-18.556,16.67,0,21.9,11.5,22.89,25.351h38.83c-2.24-37.112-18.17-61.941-61.23-61.941-36.58,0-60.98,18.033-60.98,55.407,0,60.374,85.87,69,85.87,100.623,0,14.113-8.46,20.647-25.38,20.647-17.68,0-24.4-9.147-25.64-30.579h-39.08c1.99,39.988,18.42,66.908,65.21,66.908,38.08,0,64.22-18.818,64.22-57.5C1130.41,381.162,1044.29,373.583,1044.29,341.7Zm196.74,156.292h39.57V288.119h-39.57V367.31h-52.02V288.119h-39.58v209.87h39.58V406.775h52.02v91.214Z" transform="translate(0 -286.562)"/>
</svg>
