<svg id="レイヤー_1" data-name="レイヤー 1" xmlns="http://www.w3.org/2000/svg" viewBox="0 0 140 28"><defs><style>.cls-1{fill:#9ad34e;}.cls-2{fill:#4fb233;}.cls-3{fill:#19983a;}.cls-4,.cls-5,.cls-6,.cls-7,.cls-8{font-size:20.56px;fill:#fff;font-family:SourceHanSansJP-Bold-90ms-RKSJ-H, Source Han Sans JP;font-weight:700;}.cls-4{letter-spacing:-0.06em;}.cls-5{letter-spacing:-0.07em;}.cls-6{letter-spacing:-0.03em;}.cls-7{letter-spacing:-0.04em;}.cls-8{letter-spacing:-0.05em;}</style></defs><title>アートボード 2</title><polyline class="cls-1" points="0 0 14 14 28 0"/><polyline class="cls-2" points="28 0 14 14 28 28 28 0"/><polygon class="cls-1" points="28 28 14 14 0 28 28 28 28 28"/><polyline class="cls-2" points="0 0 0 28 0 28 14 14 0 0"/><rect class="cls-3" x="2.13" y="2.13" width="23.75" height="23.75"/><text class="cls-4" transform="translate(4.11 21.92)">タ</text><polyline class="cls-1" points="28 0 42 14 56 0"/><polyline class="cls-2" points="56 0 42 14 56 28 56 0"/><polygon class="cls-1" points="56 28 42 14 28 28 56 28 56 28"/><polyline class="cls-2" points="28 0 28 28 28 28 42 14 28 0"/><rect class="cls-3" x="30.12" y="2.13" width="23.75" height="23.75"/><text class="cls-5" transform="translate(32.25 21.92)">イ</text><polyline class="cls-1" points="56 0 70 14 84 0"/><polyline class="cls-2" points="84 0 70 14 84 28 84 0"/><polygon class="cls-1" points="84 28 70 14 56 28 84 28 84 28"/><polyline class="cls-2" points="56 0 56 28 56 28 70 14 56 0"/><rect class="cls-3" x="58.12" y="2.13" width="23.75" height="23.75"/><text class="cls-6" transform="translate(59.88 21.92)">ピ</text><polyline class="cls-1" points="84 0 98 14 112 0"/><polyline class="cls-2" points="112 0 98 14 112 28 112 0"/><polygon class="cls-1" points="112 28 98 14 84 28 112 28 112 28"/><polyline class="cls-2" points="84 0 84 28 84 28 98 14 84 0"/><rect class="cls-3" x="86.12" y="2.13" width="23.75" height="23.75"/><text class="cls-7" transform="translate(87.73 21.92)">ン</text><polyline class="cls-1" points="112 0 126 14 140 0"/><polyline class="cls-2" points="140 0 126 14 140 28 140 0"/><polygon class="cls-1" points="140 28 126 14 112 28 140 28 140 28"/><polyline class="cls-2" points="112 0 112 28 112 28 126 14 112 0"/><rect class="cls-3" x="114.12" y="2.13" width="23.75" height="23.75"/><text class="cls-8" transform="translate(116.25 21.92)">グ</text></svg>