<svg id="exp_spec_04.svg" xmlns="http://www.w3.org/2000/svg" width="78.593" height="18.07" viewBox="0 0 78.593 18.07">
  <defs>
    <style>
      .cls-1 {
        fill-rule: evenodd;
      }
    </style>
  </defs>
  <path id="體育動作_" data-name="體育動作 " class="cls-1" d="M824.56,1499.55h-0.954v-0.87h0.954v0.87Zm0,2.24h-0.954v-0.88h0.954v0.88Zm-5.326-.88h0.917v0.88h-0.917v-0.88Zm0-2.23h0.917v0.87h-0.917v-0.87Zm3.077,2.23v0.88h-0.864v-0.88h0.864Zm-0.864-1.36v-0.87h0.864v0.87h-0.864Zm4.769-2.34h-2.322v-1.34h-1.673v1.34h-0.792v-1.34h-1.655v1.34H817.65v6.06h8.566v-6.06Zm0.341,6.7H817.38v1.6h9.177v-1.6Zm-13.909,3.19a14.723,14.723,0,0,1,1.385,1.24l0.72-.83v0.83c-0.81.42-1.547,0.8-2.159,1.06,0.036-.62.054-1.19,0.054-1.74v-0.56Zm-0.27-9.08h2.447v0.77H813.08v3.02h-0.7v-3.79Zm1.781,3.79v-1.75h0.666v1.75h-0.666Zm1.548,2.27h-4.121v-0.76h4.121v0.76Zm-3.059,1.45h2.105v1.57a13.906,13.906,0,0,0-1.493-1.13l-0.612.64v-1.08Zm4.678-.81v-2.91h-0.755v-5.38h-5.849v5.38h-0.7v2.93h0.9v2.89a9.365,9.365,0,0,1-.953,4.83,7.143,7.143,0,0,1,1.493,1.07,8.722,8.722,0,0,0,1.08-3.62l0.468,1.06c0.576-.36,1.151-0.76,1.745-1.17v1.71a0.2,0.2,0,0,1-.234.25c-0.162,0-.7,0-1.205-0.02a6.048,6.048,0,0,1,.485,1.64,4.246,4.246,0,0,0,2.088-.3,1.5,1.5,0,0,0,.63-1.55v-6.81h0.809Zm5.866,5.1c-0.143.52-.377,1.17-0.593,1.73h-1.458c-0.162-.53-0.4-1.17-0.612-1.73h2.663Zm-3.256-2.33h3.9v0.99h-3.9v-0.99Zm4.426,4.06c0.252-.41.5-0.87,0.792-1.34l-1.386-.39h2.052v-3.68h-7.756v3.68h1.908l-1.134.35c0.162,0.42.342,0.91,0.486,1.38H817.2v1.63h9.5v-1.63h-2.339Zm11.151-10.64c0.593-.46,1.187-0.95,1.8-1.49h3.833l-0.72.45c0.342,0.26.7,0.56,1.08,0.87Zm11.228-3.46h-7.45q0.459-.48.864-0.96l-2.177-.87a17.657,17.657,0,0,1-1.53,1.83H830.8v1.97h3.635a9.171,9.171,0,0,1-.81.67,4.2,4.2,0,0,1-1.619.93c0.216,0.58.54,1.62,0.648,2.06,0.773-.29,1.835-0.3,10.616-0.66a12.329,12.329,0,0,1,.882,1H832.8v2.98c0,1.79-.144,4.23-1.62,5.96a7.7,7.7,0,0,1,1.763,1.33c1.638-1.97,1.962-5.04,1.962-7.25v-1.17h8.043v2.81l-1.4.23,0.558-1.23a25.744,25.744,0,0,0-6.137-1.55l-0.629,1.34a27.125,27.125,0,0,1,5.65,1.53c-2.339.38-4.571,0.72-6.064,0.93l0.63,1.98c2.087-.46,4.75-1.02,7.395-1.63v1.36c0,0.3-.108.4-0.468,0.42-0.306.02-1.781,0.02-2.771-.06a7.293,7.293,0,0,1,.5,1.91,15.23,15.23,0,0,0,3.905-.25c0.864-.28,1.17-0.77,1.17-1.98v-7.66h-0.756l1.637-1.08a22.194,22.194,0,0,0-3.167-2.92h3.743v-1.97Zm9.844,12.12h3.257v-1.59h-3.257v-0.73h3.185v-5.83h-3.185v-0.74h3.455v1.47h1.638c-0.126,3.38-.558,6.08-1.962,8.12-1.043.09-2.105,0.19-3.131,0.26v-0.96Zm-3.347-3.72V1505h1.4v0.85h-1.4Zm4.751-.85v0.85h-1.4V1505h1.4Zm-1.4-1.34v-0.83h1.4v0.83h-1.4Zm-3.347-.83h1.4v0.83h-1.4v-0.83Zm10.527-2.74c0.036-1.24.036-2.56,0.036-3.94H861.75c0,1.4,0,2.7-.018,3.94H860.04v-1.03h-3.455v-0.93a31.775,31.775,0,0,0,3.239-.51l-0.936-1.68a53.478,53.478,0,0,1-7.755.93,7.179,7.179,0,0,1,.468,1.58c0.971-.02,2-0.07,3.041-0.15v0.76H851.1v1.62h3.545v0.74h-3.1v5.83h3.1v0.73h-3.167v1.59h3.167v1.13c-1.386.1-2.645,0.19-3.653,0.27l0.252,1.89c1.943-.17,4.534-0.46,7.126-0.74a7.218,7.218,0,0,1,1.259,1.49c3.023-2.51,3.851-6.4,4.085-11.46h1.619c-0.108,6.1-.288,8.4-0.665,8.91a0.636,0.636,0,0,1-.612.32c-0.342,0-1.026-.02-1.818-0.09a5.435,5.435,0,0,1,.63,2.15,10.864,10.864,0,0,0,2.231-.08,2,2,0,0,0,1.422-.94c0.576-.87.72-3.6,0.882-11.32,0-.27.018-1.01,0.018-1.01h-3.653Zm11.9-4.17a19.836,19.836,0,0,1-4.1,7.06,15.7,15.7,0,0,1,1.188,2.4c0.36-.42.738-0.89,1.116-1.36v9.44h2.159v-12.93a30.4,30.4,0,0,0,1.727-3.93Zm12.9,5.14v-2.14h-6.982a22.007,22.007,0,0,0,.882-2.34l-2.069-.54a18.981,18.981,0,0,1-3.815,7.11,14.546,14.546,0,0,1,1.637,1.57,21.164,21.164,0,0,0,2.357-3.66h0.684v12.42h2.2v-4.19h4.894v-2.08h-4.894v-2.13h4.66v-2.04h-4.66v-1.98h5.11Z" transform="translate(-809.969 -1495.62)"/>
</svg>
