<svg id="exp_spec_06.svg" xmlns="http://www.w3.org/2000/svg" width="207.349" height="19.06" viewBox="0 0 207.349 19.06">
  <defs>
    <style>
      .cls-1 {
        fill-rule: evenodd;
      }
    </style>
  </defs>
  <path id="SEGA_Games_Co._Ltd._" data-name="SEGA Games Co., Ltd. " class="cls-1" d="M814.9,1512.1c3.077,0,4.895-1.94,4.895-4.23a3.836,3.836,0,0,0-2.682-3.79l-1.745-.78c-1.134-.47-2.087-0.83-2.087-1.83,0-.92.755-1.47,1.925-1.47a4.166,4.166,0,0,1,2.825,1.15l1.35-1.75a5.744,5.744,0,0,0-4.175-1.8c-2.7,0-4.606,1.76-4.606,4.04a4.029,4.029,0,0,0,2.7,3.76l1.781,0.79c1.188,0.53,2,.85,2,1.89,0,0.98-.737,1.6-2.123,1.6a5.139,5.139,0,0,1-3.383-1.54l-1.529,1.92A6.933,6.933,0,0,0,814.9,1512.1Zm8.778-.26h8.368v-2.34h-5.705v-3.74h4.679v-2.34h-4.679v-3.23h5.507v-2.32h-8.17v13.97Zm17.788,0.26a6.132,6.132,0,0,0,4.319-1.68v-6.3h-4.733v2.28h2.357v2.76a2.593,2.593,0,0,1-1.673.52c-2.609,0-3.941-1.83-3.941-4.87,0-3,1.548-4.81,3.761-4.81a3.425,3.425,0,0,1,2.609,1.17l1.422-1.77a5.47,5.47,0,0,0-4.121-1.8c-3.545,0-6.388,2.7-6.388,7.31C835.075,1509.57,837.828,1512.1,841.463,1512.1Zm10.5-6.02,0.4-1.53c0.4-1.45.792-3.04,1.134-4.57h0.072c0.4,1.51.756,3.12,1.17,4.57l0.395,1.53h-3.167Zm4.679,5.76h2.789l-4.283-13.97h-3.131l-4.264,13.97h2.7l0.936-3.59h4.318Zm15.4,0.26a6.128,6.128,0,0,0,4.318-1.68v-6.3h-4.732v2.28h2.357v2.76a2.594,2.594,0,0,1-1.673.52c-2.61,0-3.941-1.83-3.941-4.87,0-3,1.547-4.81,3.761-4.81a3.427,3.427,0,0,1,2.609,1.17l1.421-1.77a5.466,5.466,0,0,0-4.12-1.8c-3.545,0-6.388,2.7-6.388,7.31C865.652,1509.57,868.405,1512.1,872.04,1512.1Zm9.618,0a4.6,4.6,0,0,0,3.041-1.4h0.054l0.2,1.14h2.16v-6.18c0-3.05-1.314-4.66-3.869-4.66a7.746,7.746,0,0,0-4.211,1.4l0.954,1.83a5.483,5.483,0,0,1,2.771-1,1.611,1.611,0,0,1,1.709,1.83c-4.048.45-5.794,1.64-5.794,3.91A2.935,2.935,0,0,0,881.658,1512.1Zm0.864-2.17a1.15,1.15,0,0,1-1.332-1.19c0-.94.828-1.64,3.275-1.98v2.13A2.632,2.632,0,0,1,882.522,1509.93Zm7.585,1.91h2.627v-7.27a2.919,2.919,0,0,1,1.943-1.19c0.954,0,1.4.58,1.4,2.21v6.25h2.645v-7.27a2.921,2.921,0,0,1,1.943-1.19c0.954,0,1.4.58,1.4,2.21v6.25h2.645v-6.59c0-2.66-.99-4.25-3.131-4.25a4.416,4.416,0,0,0-3.2,1.85,2.743,2.743,0,0,0-2.771-1.85,4.2,4.2,0,0,0-3.1,1.68h-0.072l-0.18-1.42h-2.159v10.58Zm23.065,0.26a6.134,6.134,0,0,0,3.527-1.17l-0.9-1.7a4.034,4.034,0,0,1-2.267.74,2.7,2.7,0,0,1-2.789-2.65h6.208a5.315,5.315,0,0,0,.126-1.26c0-2.93-1.44-5.06-4.211-5.06-2.411,0-4.7,2.13-4.7,5.57C908.17,1510.04,910.365,1512.1,913.172,1512.1Zm-2.465-6.61a2.331,2.331,0,0,1,2.2-2.34c1.3,0,1.908.91,1.908,2.34h-4.1Zm12.281,6.61c2.627,0,4.013-1.49,4.013-3.34,0-1.96-1.476-2.66-2.807-3.19-1.062-.42-2.051-0.7-2.051-1.47a1.088,1.088,0,0,1,1.331-1.02,3.755,3.755,0,0,1,2.177.9l1.188-1.68a5.488,5.488,0,0,0-3.437-1.3c-2.267,0-3.743,1.34-3.743,3.25,0,1.75,1.476,2.56,2.753,3.07,1.062,0.44,2.106.8,2.106,1.59,0,0.66-.45,1.11-1.458,1.11a4.244,4.244,0,0,1-2.7-1.15l-1.206,1.74A6.167,6.167,0,0,0,922.988,1512.1Zm15.773,0a5.292,5.292,0,0,0,4.246-2.06l-1.4-1.73a3.637,3.637,0,0,1-2.753,1.37c-2.106,0-3.473-1.83-3.473-4.87,0-3,1.511-4.81,3.527-4.81a3.367,3.367,0,0,1,2.447,1.17l1.4-1.77a5.307,5.307,0,0,0-3.9-1.8c-3.365,0-6.19,2.7-6.19,7.31C932.661,1509.57,935.4,1512.1,938.761,1512.1Zm11.191,0c2.519,0,4.84-2.04,4.84-5.53,0-3.53-2.321-5.57-4.84-5.57s-4.841,2.04-4.841,5.57C945.111,1510.06,947.433,1512.1,949.952,1512.1Zm0-2.27c-1.368,0-2.141-1.28-2.141-3.26,0-2,.773-3.3,2.141-3.3s2.141,1.3,2.141,3.3C952.093,1508.55,951.32,1509.83,949.952,1509.83Zm9.838,2.27a1.819,1.819,0,1,0-1.638-1.81A1.7,1.7,0,0,0,959.79,1512.1Zm7.458,3.76a4.744,4.744,0,0,0,3.4-4.65c0-1.71-.684-2.73-1.908-2.73a1.623,1.623,0,0,0-1.709,1.64,1.584,1.584,0,0,0,1.655,1.64h0.162a2.917,2.917,0,0,1-2.159,2.59Zm13.127-4.02h8.062v-2.34h-5.4v-11.63h-2.663v13.97Zm15.886,0.26a6.2,6.2,0,0,0,2.123-.4l-0.432-2.02a2.68,2.68,0,0,1-.989.23c-0.9,0-1.368-.57-1.368-1.77v-4.69h2.483v-2.19H995.6v-2.83h-2.213l-0.306,2.83-1.548.14v2.05h1.422v4.69C992.95,1510.51,993.868,1512.1,996.261,1512.1Zm8.709,0a4.074,4.074,0,0,0,2.79-1.36h0.06l0.21,1.1h2.14v-15.07h-2.64v3.72l0.11,1.66a3.4,3.4,0,0,0-2.56-1.15c-2.18,0-4.23,2.11-4.23,5.57S1002.47,1512.1,1004.97,1512.1Zm0.69-2.28c-1.33,0-2.09-1.1-2.09-3.29,0-2.11.95-3.25,2.09-3.25a2.6,2.6,0,0,1,1.87.8v4.64A2.235,2.235,0,0,1,1005.66,1509.82Zm10.06,2.28a1.819,1.819,0,1,0-1.64-1.81A1.7,1.7,0,0,0,1015.72,1512.1Z" transform="translate(-810.031 -1496.78)"/>
</svg>
