<svg id="exp_spec_07.svg" xmlns="http://www.w3.org/2000/svg" width="79.468" height="17.87" viewBox="0 0 79.468 17.87">
  <defs>
    <style>
      .cls-1 {
        fill-rule: evenodd;
      }
    </style>
  </defs>
  <path id="審查預定_" data-name="審查預定 " class="cls-1" d="M812.522,1499.04h11.39v1.85H826v-3.74h-6.478a11.871,11.871,0,0,0-.7-1.47l-2.2.64c0.126,0.26.252,0.55,0.359,0.83h-6.441v3.74h1.979v-1.85Zm6.73,7.64v-1.98h0.072c1.061,0.62,2.141,1.3,3.113,1.98h-3.185Zm-0.018,4.7v-0.92h2.843v0.92h-2.843Zm-4.733-.92h2.717v0.92H814.5v-0.92Zm2.717-1.34H814.5v-0.91h2.717v0.91Zm4.859,0h-2.843v-0.91h2.843v0.91Zm-4.859-2.44H814.9a15.648,15.648,0,0,0,2.321-1.9v1.9Zm0-3.79h-1.943a6.026,6.026,0,0,0-.576-1.36c0.828-.02,1.656-0.06,2.519-0.1v1.46Zm2.034,0v-1.59c0.917-.07,1.835-0.17,2.681-0.26-0.2.55-.5,1.24-0.774,1.85h-1.907Zm7.539,4.62c-1.025-.79-2.555-1.83-4.156-2.81h3.635v-1.81h-3.131c0.251-.42.539-0.87,0.845-1.34l-2.015-.53c0.522-.06,1.026-0.13,1.475-0.21l-1.1-1.51a74.489,74.489,0,0,1-9.339.72,5.735,5.735,0,0,1,.432,1.49l-0.738.15a7.38,7.38,0,0,1,.54,1.23h-2.915v1.81H814.5a18.549,18.549,0,0,1-4.8,2.23,10.4,10.4,0,0,1,1.367,1.77c0.468-.19.936-0.39,1.422-0.62v5.34H814.5v-0.49h7.576v0.43h2.105v-5.39c0.342,0.26.63,0.51,0.9,0.73Zm9.058,0.14H841.9v0.98h-6.046v-0.98Zm0-2.35H841.9v0.93h-6.046v-0.93Zm-2.123,4.8h10.419v-6.27h-9.969a15.655,15.655,0,0,0,3.707-3.4v2.85h2.123v-2.71a46.8,46.8,0,0,1,5.7,4.28l1.368-1.62a41.17,41.17,0,0,0-4.607-3.32h4.553v-1.95h-7.018v-2.11h-2.123v2.11h-6.874v1.95h4.8a13.7,13.7,0,0,1-5.326,3.36,9.644,9.644,0,0,1,1.367,1.79,13.881,13.881,0,0,0,1.872-.94v5.98Zm-2.591,2.85h15.727v-1.96H831.135v1.96Zm34.237-10.38h-4.013v-1.19h4.013v1.19Zm0,2.73h-4.013v-1.2h4.013v1.2Zm0,2.76h-4.013v-1.21h4.013v1.21Zm-7.324-.68c0.4-1.11.882-2.89,1.26-4.45l-1.3-.31-0.288.06h-0.863l0.467-.7a8.463,8.463,0,0,0-1.079-.88,21.623,21.623,0,0,0,2.555-3.46v0.83h3.419c-0.054.42-.108,0.83-0.18,1.25h-2.627v9.98h8.007v-9.98h-3.239c0.126-.4.252-0.81,0.378-1.25h3.383v-1.89H858.8v0.87l-1.224-.94-0.377.13H851.7v1.94h4.175a11.853,11.853,0,0,1-1.152,1.53c-0.558-.32-1.133-0.62-1.655-0.86L852,1500.7a21.786,21.786,0,0,1,3.113,1.98h-3.851v1.98h2.664v6.36c0,0.21-.072.27-0.324,0.29-0.234,0-1.08,0-1.854-.02a7.738,7.738,0,0,1,.648,2.15,6.289,6.289,0,0,0,2.771-.4c0.666-.34.828-0.92,0.828-1.98v-6.4h1.08c-0.2.89-.414,1.76-0.612,2.38Zm3.113,2.34a10.892,10.892,0,0,1-3.761,2.34,12.729,12.729,0,0,1,1.44,1.47,13.458,13.458,0,0,0,4.067-2.62Zm2.609,1.25a22.082,22.082,0,0,1,2.951,2.56l1.692-1.26a24.146,24.146,0,0,0-3.059-2.42Zm11.408-11.01h11.067v2.61h2.213v-4.72h-6.244a12.083,12.083,0,0,0-.936-2.19l-2.159.62a14.685,14.685,0,0,1,.63,1.57h-6.676v4.72h2.105v-2.61Zm6.694,8.16H886.8V1506h-4.931v-2.22h3.833v-2.16h-9.9v2.16h3.833v6.39a5.074,5.074,0,0,1-2.411-3.02c0.144-.71.288-1.49,0.378-2.28l-2.178-.21c-0.324,3.21-1.223,5.84-3.167,7.36a10.923,10.923,0,0,1,1.746,1.5,9.734,9.734,0,0,0,2.411-3.63c1.637,2.74,4.1,3.32,7.468,3.32h4.48a7.689,7.689,0,0,1,.774-2.28c-1.224.04-4.193,0.04-5.146,0.04a15.838,15.838,0,0,1-2.124-.13v-2.72Z" transform="translate(-809.688 -1495.66)"/>
</svg>
