<svg id="exp_spec_05.svg" xmlns="http://www.w3.org/2000/svg" width="269.19" height="18.13" viewBox="0 0 269.19 18.13">
  <defs>
    <style>
      .cls-1 {
        fill-rule: evenodd;
      }
    </style>
  </defs>
  <path id="_1_4人_線上遊玩時_2_8人_" data-name="1～4人（線上遊玩時：2～8人）　 " class="cls-1" d="M810.758,1511.84h8.008v-2.25h-2.5v-11.72H814.3a8.615,8.615,0,0,1-3.1,1.17v1.72h2.412v8.83h-2.862v2.25Zm22.681-4.29c1.925,0,3.688-1.13,4.894-3.47l-1.979-1.14a3.525,3.525,0,0,1-2.861,2.27,3.237,3.237,0,0,1-2.682-1.36,5.338,5.338,0,0,0-4.246-2.08c-1.926,0-3.689,1.14-4.9,3.48l1.98,1.13a3.529,3.529,0,0,1,2.861-2.26,3.256,3.256,0,0,1,2.681,1.35A5.34,5.34,0,0,0,833.439,1507.55Zm10.959-1.45,2.07-3.48c0.378-.75.737-1.52,1.061-2.26H847.6c-0.036.81-.108,2.08-0.108,2.89v2.85h-3.1Zm7.144,0h-1.583v-8.23h-3.167l-4.967,8.45v1.89h5.668v3.63h2.466v-3.63h1.583v-2.11Zm9.966-10.23c-0.072,3.19.27,11.64-7.036,15.74a7.084,7.084,0,0,1,1.781,1.83,15.309,15.309,0,0,0,6.622-9.04c1.044,3.25,3.041,6.93,7.036,8.93a5.99,5.99,0,0,1,1.566-1.95c-6.28-2.9-7.378-10.02-7.63-12.57,0.072-1.13.108-2.15,0.126-2.94h-2.465Zm22.955,17.85,1.709-.79a12.227,12.227,0,0,1,0-16.54l-1.709-.79A13.35,13.35,0,0,0,884.463,1513.72Zm8.951-8.47c0.4-.47.792-0.98,1.17-1.49,0.108,0.39.234,0.85,0.324,1.3Zm3.617,1.81a25.164,25.164,0,0,0-.954-3.93l-1.331.4a31.549,31.549,0,0,0,2.393-3.89l-1.817-1.17a21.442,21.442,0,0,1-1.278,2.51l-1.206.1a27.34,27.34,0,0,0,2.322-4.44l-1.944-.85a20.714,20.714,0,0,1-2,4.57,2.108,2.108,0,0,1-1.008,1,18.962,18.962,0,0,1,.666,1.94,6.787,6.787,0,0,1,1.979-.41c-0.467.72-.881,1.23-1.079,1.49a3.331,3.331,0,0,1-1.458,1.25,16.876,16.876,0,0,1,.7,2.02c0.4-.19.99-0.38,4.247-0.87,0.054,0.3.09,0.58,0.126,0.83Zm-5.974,1.19a17.2,17.2,0,0,1-.756,4.45,12.172,12.172,0,0,1,1.584.59,24.2,24.2,0,0,0,.81-4.78Zm1.925,0.24a36.633,36.633,0,0,1,.306,4.01l1.584-.29a37.015,37.015,0,0,0-.4-4Zm1.782-.35a19.177,19.177,0,0,1,.684,2.64l1.457-.51a22.557,22.557,0,0,0-.738-2.61Zm5.146-2.33-0.324.06h-2.393v1.81h1.62a6.714,6.714,0,0,1-2.628,3.33,7.988,7.988,0,0,1,1.206,1.56,9.439,9.439,0,0,0,3.8-6.3Zm-0.09-3.77h4.571v1H899.82v-1Zm0-2.51h4.571v0.94H899.82v-0.94Zm5.632,5.47a15.147,15.147,0,0,1-1.6,1.83,15.848,15.848,0,0,1-.54-1.51v-0.6h3.149v-6.87h-3.851c0.252-.49.54-1,0.81-1.55l-2.447-.45a18.948,18.948,0,0,1-.576,2h-2.555v6.87h3.437v6.49c0,0.21-.072.27-0.306,0.27a15.383,15.383,0,0,1-1.62-.02,8.44,8.44,0,0,1,.576,2.06,5.744,5.744,0,0,0,2.591-.36,1.855,1.855,0,0,0,.792-1.91v-1.62a9.046,9.046,0,0,0,2.591,3.15,8.174,8.174,0,0,1,1.4-1.79,7.511,7.511,0,0,1-2.627-2.61c0.737-.56,1.547-1.3,2.375-1.98Zm14.692,5.29v-6.53H926.5v-2.29h-6.352v-5.4h-2.3v14.22H911.4v2.26h16.357v-2.26h-7.612Zm17.7-7.89c0,1.96-.161,4.77-1.691,6.62a7.08,7.08,0,0,1,1.242,1.31c1.691-1.91,2.105-4.72,2.177-6.99H940.6c-0.072,3.63-.162,4.93-0.378,5.27a0.467,0.467,0,0,1-.45.24,9.415,9.415,0,0,1-1.062-.05,4.769,4.769,0,0,1,.468,1.79,8.948,8.948,0,0,0,1.584-.08,1.3,1.3,0,0,0,1.025-.69c0.414-.59.522-2.46,0.63-7.54v-0.77h-2.825v-1.38h2.447c0.342,0.27.882,0.7,1.224,1.02v1.19h2.465a9.19,9.19,0,0,1-.918.93v1.17H942.8v1.77h2.015v2.21c0,0.17-.054.23-0.27,0.23-0.2,0-.863,0-1.529-0.02a5.98,5.98,0,0,1,.594,1.85,5.006,5.006,0,0,0,2.321-.32c0.594-.31.7-0.83,0.7-1.72v-2.23h2.087v-1.77H946.63v-0.74a18.378,18.378,0,0,0,2-2.19l-1.134-.92-0.342.11h-3.382c0.2-.36.395-0.72,0.593-1.13h4.247v-1.85h-3.473c0.162-.49.324-0.97,0.468-1.46l-1.8-.51a14.831,14.831,0,0,1-1.4,3.59v-1.06h-1.655a19.533,19.533,0,0,0-.7-2.24l-1.926.35c0.2,0.57.4,1.29,0.54,1.89h-2.285v1.85h1.475v2.27Zm-2.267-3.31c-0.252-.85-0.63-2.13-0.936-3.15l-1.637.51c0.27,1.02.666,2.4,0.864,3.25Zm0.108,5.25-0.27.06h-0.648c0.36-1.32.738-2.83,1.062-4.15h-3.671v2h1.422c-0.342,1.47-.756,2.98-1.116,4.09h1.98a19.342,19.342,0,0,1-.882,3.32,7.727,7.727,0,0,0-1.782,1.87l1.368,2.08c0.324-1.06.828-2.34,1.17-2.34a7.107,7.107,0,0,1,1.8,1.08c1.332,0.77,2.879.96,5.29,0.96,2.124,0,5.4-.13,6.856-0.21a8.708,8.708,0,0,1,.612-2.19,65.69,65.69,0,0,1-7.378.47c-2.123,0-3.85-.13-5.092-0.88-0.5-.31-0.864-0.59-1.17-0.78a26.171,26.171,0,0,0,1.278-5.08Zm32.978-7.15H960.03v2.13h8.637v-2.13Zm-9.3,10.38-2.178.55v-3.4h1.782v-2.06h-1.782v-3.34h1.944v-2.08h-6.136v2.08h2.123v3.34h-1.943v2.06h1.943v3.91c-0.918.2-1.763,0.39-2.465,0.54l0.432,2.16c1.835-.51,4.246-1.16,6.514-1.8Zm7.683,3.72c-0.252,0-.288-0.08-0.288-0.72v-5.95h2.825v-2.15H959.31v2.15h2.033c-0.144,3.69-.54,5.88-4.121,7.14a5.446,5.446,0,0,1,1.188,1.72c4.139-1.55,4.787-4.44,5-8.86h1.224v5.97c0,2.1.378,2.79,2.033,2.79h1.224c1.368,0,1.889-.85,2.069-3.75a5.7,5.7,0,0,1-1.889-.93c-0.036,2.23-.108,2.59-0.4,2.59h-0.63ZM977.91,1499v3.32h-1.655V1499h1.655Zm-1.655,8.83v-3.54h1.655v3.54h-1.655Zm3.652-10.83h-5.632v14.5h1.98v-1.67h3.652V1497Zm1.044,11.25a26.575,26.575,0,0,1,2.069,3.17l1.872-1.15a23.733,23.733,0,0,0-2.16-3.02Zm9.483-8.42v-1.96h-4.049v-2.02H984.28v2.02h-4.049v1.96h4.049v1.79h-3.473v1.95h5.74v1.47h-6.3v1.94h6.3v4.06c0,0.27-.09.34-0.378,0.34-0.27,0-1.259,0-2.123-.04a8.611,8.611,0,0,1,.666,2.12,7.579,7.579,0,0,0,3-.38c0.72-.34.918-0.9,0.918-1.98v-4.12h1.727v-1.94h-1.727v-1.47h1.313v-1.95h-3.563v-1.79h4.049Zm9.446,2.27a1.776,1.776,0,1,0-1.71-1.76A1.715,1.715,0,0,0,999.88,1502.1Zm0,9a1.776,1.776,0,1,0-1.71-1.76A1.715,1.715,0,0,0,999.88,1511.1Zm9.55,0.74h8.93v-2.34h-2.9a20.66,20.66,0,0,0-2.16.15c2.43-2.5,4.43-5.21,4.43-7.74a4,4,0,0,0-4.19-4.31,5.3,5.3,0,0,0-4.23,2.12l1.44,1.51a3.379,3.379,0,0,1,2.44-1.44,1.969,1.969,0,0,1,2,2.27c0,2.15-2.14,4.77-5.76,8.17v1.61Zm23.98-4.29c1.92,0,3.69-1.13,4.89-3.47l-1.98-1.14a3.52,3.52,0,0,1-2.86,2.27,3.231,3.231,0,0,1-2.68-1.36,5.34,5.34,0,0,0-4.25-2.08c-1.92,0-3.69,1.14-4.89,3.48l1.98,1.13a3.525,3.525,0,0,1,2.86-2.26,3.247,3.247,0,0,1,2.68,1.35A5.34,5.34,0,0,0,1033.41,1507.55Zm12.96,4.55c2.7,0,4.48-1.62,4.48-3.74a4.1,4.1,0,0,0-2.23-3.74v-0.09a4.116,4.116,0,0,0,1.71-3.19,3.569,3.569,0,0,0-3.87-3.72c-2.32,0-4.01,1.44-4.01,3.68a4,4,0,0,0,1.76,3.32v0.1a4.072,4.072,0,0,0-2.28,3.64C1041.93,1510.55,1043.83,1512.1,1046.37,1512.1Zm0.85-8.25c-1.41-.58-2.43-1.23-2.43-2.55a1.585,1.585,0,0,1,1.62-1.73,1.742,1.742,0,0,1,1.76,1.94A3.465,3.465,0,0,1,1047.22,1503.85Zm-0.78,6.29a2.079,2.079,0,0,1-2.23-2.08,3.429,3.429,0,0,1,1.22-2.59c1.73,0.74,2.96,1.34,2.96,2.8A1.785,1.785,0,0,1,1046.44,1510.14Zm14.63-14.27c-0.07,3.19.27,11.64-7.03,15.74a7.128,7.128,0,0,1,1.78,1.83,15.322,15.322,0,0,0,6.62-9.04c1.04,3.25,3.04,6.93,7.03,8.93a5.979,5.979,0,0,1,1.57-1.95c-6.28-2.9-7.38-10.02-7.63-12.57,0.07-1.13.11-2.15,0.13-2.94h-2.47Zm15.32-.27-1.71.79a12.23,12.23,0,0,1,0,16.54l1.71,0.79A13.336,13.336,0,0,0,1076.39,1495.6Z" transform="translate(-810.75 -1495.59)"/>
</svg>
