<svg id="exp_spec_03.svg" xmlns="http://www.w3.org/2000/svg" width="195.028" height="17.87" viewBox="0 0 195.028 17.87">
  <defs>
    <style>
      .cls-1 {
        fill-rule: evenodd;
      }
    </style>
  </defs>
  <path id="預定2019年11月發售_" data-name="預定2019年11月發售 " class="cls-1" d="M823.912,1502.57H819.9v-1.19h4.012v1.19Zm0,2.73H819.9v-1.2h4.012v1.2Zm0,2.76H819.9v-1.21h4.012v1.21Zm-7.323-.68c0.395-1.11.881-2.89,1.259-4.45l-1.295-.31-0.288.06H815.4l0.468-.7a8.55,8.55,0,0,0-1.08-.88,21.562,21.562,0,0,0,2.555-3.46v0.83h3.419c-0.054.42-.108,0.83-0.18,1.25h-2.627v9.98h8.008v-9.98h-3.239c0.126-.4.252-0.81,0.378-1.25h3.382v-1.89h-9.141v0.87l-1.223-.94-0.378.13h-5.506v1.94h4.174a11.847,11.847,0,0,1-1.151,1.53c-0.558-.32-1.134-0.62-1.656-0.86l-1.061,1.45a21.842,21.842,0,0,1,3.113,1.98h-3.851v1.98h2.663v6.36c0,0.21-.072.27-0.324,0.29-0.234,0-1.08,0-1.853-.02a7.736,7.736,0,0,1,.647,2.15,6.294,6.294,0,0,0,2.772-.4c0.665-.34.827-0.92,0.827-1.98v-6.4h1.08c-0.2.89-.414,1.76-0.612,2.38Zm3.113,2.34a10.9,10.9,0,0,1-3.761,2.34,12.718,12.718,0,0,1,1.439,1.47,13.458,13.458,0,0,0,4.067-2.62Zm2.609,1.25a22.209,22.209,0,0,1,2.951,2.56l1.691-1.26a24.075,24.075,0,0,0-3.059-2.42Zm11.408-11.01h11.066v2.61H847v-4.72h-6.244a12.083,12.083,0,0,0-.936-2.19l-2.159.62a14.892,14.892,0,0,1,.629,1.57h-6.676v4.72h2.106v-2.61Zm6.694,8.16h4.93V1506h-4.93v-2.22h3.832v-2.16h-9.9v2.16h3.832v6.39a5.078,5.078,0,0,1-2.411-3.02c0.144-.71.288-1.49,0.378-2.28l-2.177-.21c-0.324,3.21-1.224,5.84-3.167,7.36a10.915,10.915,0,0,1,1.745,1.5,9.71,9.71,0,0,0,2.411-3.63c1.638,2.74,4.1,3.32,7.468,3.32h4.481a7.688,7.688,0,0,1,.773-2.28c-1.223.04-4.192,0.04-5.146,0.04a15.812,15.812,0,0,1-2.123-.13v-2.72Zm11.427,3.72h8.925v-2.34h-2.9a20.549,20.549,0,0,0-2.159.15c2.429-2.5,4.427-5.21,4.427-7.74a4,4,0,0,0-4.193-4.31,5.312,5.312,0,0,0-4.229,2.12l1.44,1.51a3.4,3.4,0,0,1,2.447-1.44,1.967,1.967,0,0,1,2,2.27c0,2.15-2.141,4.77-5.758,8.17v1.61Zm17.3,0.26c2.7,0,4.5-2.49,4.5-7.31s-1.8-7.19-4.5-7.19c-2.717,0-4.516,2.36-4.516,7.19S866.425,1512.1,869.142,1512.1Zm0-2.17c-1.151,0-2.015-1.21-2.015-5.14,0-3.9.864-5.04,2.015-5.04,1.134,0,2,1.14,2,5.04C871.14,1508.72,870.276,1509.93,869.142,1509.93Zm8.449,1.91H885.6v-2.25h-2.5v-11.72h-1.961a8.63,8.63,0,0,1-3.095,1.17v1.72h2.411v8.83h-2.861v2.25Zm16.3-7.16c-1.152,0-1.889-.77-1.889-2.41,0-1.72.809-2.57,1.8-2.57,1.134,0,2.051.94,2.285,3.49A2.635,2.635,0,0,1,893.889,1504.68Zm-4.1,5.83a4.888,4.888,0,0,0,3.653,1.59c2.645,0,5.11-2.28,5.11-7.57,0-4.85-2.267-6.93-4.786-6.93-2.285,0-4.193,1.8-4.193,4.67,0,2.96,1.6,4.39,3.815,4.39a3.635,3.635,0,0,0,2.735-1.53c-0.108,3.52-1.349,4.7-2.843,4.7a2.98,2.98,0,0,1-2.105-.98Zm17.68-3.2v-2.87h3.113v2.87h-3.113Zm11.481,0h-6.154v-2.87h4.75v-2.08h-4.75v-2.27h5.164v-2.17H907.79a12.844,12.844,0,0,0,.594-1.54l-2.177-.59a14.689,14.689,0,0,1-3.779,6.29,16.232,16.232,0,0,1,1.853,1.45,17.006,17.006,0,0,0,2.447-3.44h3.851v2.27h-5.254v4.95h-2.843v2.15h8.1v4.04h2.214v-4.04h6.154v-2.15Zm4.622,4.53h8.007v-2.25h-2.5v-11.72h-1.961a8.63,8.63,0,0,1-3.1,1.17v1.72h2.411v8.83h-2.861v2.25Zm12.492,0h8.007v-2.25h-2.5v-11.72h-1.961a8.63,8.63,0,0,1-3.1,1.17v1.72h2.411v8.83h-2.861v2.25Zm16.974-6.18c0.072-.79.108-1.58,0.126-2.3h7.216v2.3h-7.342Zm7.342-6.74v2.31h-7.216v-2.31h7.216Zm2.267-2.19h-11.7v6.21c0,2.87-.252,6.48-2.969,8.91a8.964,8.964,0,0,1,1.655,1.63,10.275,10.275,0,0,0,3.042-5.65h7.7v2.74a0.47,0.47,0,0,1-.576.55c-0.4,0-1.907.02-3.167-.06a9.881,9.881,0,0,1,.9,2.36,10.558,10.558,0,0,0,3.977-.43c0.827-.38,1.133-1.02,1.133-2.38v-13.88Zm18.1,11.71a7.208,7.208,0,0,1-1.134,1.32c-0.81-.47-1.637-0.91-2.393-1.32h3.527Zm1.277-1.55-0.324.06h-5.848v1.49h0.432l-0.72.9c0.774,0.44,1.62.95,2.5,1.46a10.934,10.934,0,0,1-3.2,1.05,6.608,6.608,0,0,1,.9,1.63,12.9,12.9,0,0,0,4.013-1.63c0.972,0.61,1.836,1.19,2.447,1.65l1.08-1.49c-0.54-.38-1.278-0.85-2.087-1.33a8.414,8.414,0,0,0,1.979-3.36Zm0.936-9.06a15.623,15.623,0,0,1-2,1.96,11.045,11.045,0,0,1-.954-0.85c0.684-.51,1.458-1.19,2.195-1.83l-1.529-1.15a16.907,16.907,0,0,1-1.692,1.74,7.86,7.86,0,0,1-1.025-1.78l-1.71.53a13.042,13.042,0,0,0,3.635,5h-3.437v1.34a2.76,2.76,0,0,1-1.277,2.53v-3.75H972.81a10.58,10.58,0,0,0,3.383-4.48l-1.313-.68-0.36.1h-4.7v1.75h3.545a9.1,9.1,0,0,1-1.044,1.21,13.351,13.351,0,0,0-1.889-1.19l-1.224,1.19a18.989,18.989,0,0,1,1.674,1.13,11.312,11.312,0,0,1-3.023,1.46,8.368,8.368,0,0,1,1.152,1.64,13.478,13.478,0,0,0,1.637-.74v0.31h2.609v1.32h-3.185c-0.162,1.49-.45,3.36-0.7,4.58h3.779a4.076,4.076,0,0,1-.5,2.1,0.8,0.8,0,0,1-.647.19c-0.4,0-1.278-.02-2.178-0.1a4.422,4.422,0,0,1,.612,1.87,17.718,17.718,0,0,0,2.375-.02,1.84,1.84,0,0,0,1.44-.62c0.468-.49.684-1.72,0.882-4.27,0.018-.26.036-0.77,0.036-0.77h-3.743c0.054-.41.108-0.87,0.18-1.3h3.563v-0.57a8.193,8.193,0,0,1,1.079,1.21,4.446,4.446,0,0,0,1.98-3.74h1.655v1.1c0,1.53.288,2.17,1.8,2.17H982.8a3.237,3.237,0,0,0,1.044-.12c-0.072-.43-0.108-1.07-0.144-1.52a3.984,3.984,0,0,1-.918.09H981.9c-0.233,0-.269-0.15-0.269-0.6v-1.63a12.233,12.233,0,0,0,2.051.91,8.243,8.243,0,0,1,1.277-1.78,12.616,12.616,0,0,1-2.573-1.05,24.017,24.017,0,0,0,2.124-1.74Zm18.621,11.4v1.78H993.4v-1.78h8.183Zm-10.324,4.3H993.4v-0.75h8.183v0.75h2.24v-6.05H991.256v6.05Zm2.177-9.64h3.761v0.92h-3.761v-0.92Zm3.761-3.72h-3.761v-0.85h3.761v0.85Zm0,2.27h-3.761v-0.84h3.761v0.84Zm2.105,2.37v-0.92h4.211v-1.45H999.3v-0.84h4.191v-1.43H999.3v-0.85h5.091v-1.57h-4.965a14.316,14.316,0,0,0-.881-1.94l-1.98.6c0.18,0.4.4,0.87,0.558,1.34h-2.969c0.216-.43.432-0.88,0.63-1.3l-2-.68a15.36,15.36,0,0,1-4.03,5.59,14.156,14.156,0,0,1,1.457,1.77c0.36-.35.738-0.75,1.116-1.19v5.16h2.105v-0.64h11.407v-1.65H999.3Z" transform="translate(-809.812 -1495.66)"/>
</svg>
