<svg id="exp_spec_02.svg" xmlns="http://www.w3.org/2000/svg" width="166.313" height="15.56" viewBox="0 0 166.313 15.56">
  <defs>
    <style>
      .cls-1 {
        fill-rule: evenodd;
      }
    </style>
  </defs>
  <path id="Nintendo_Switch_" data-name="Nintendo Switch™ " class="cls-1" d="M810.92,1511.84h2.52v-5.61c0-1.61-.2-3.36-0.324-4.87h0.09l1.349,3,3.851,7.48h2.7v-13.97h-2.519v5.57c0,1.58.2,3.43,0.342,4.88h-0.09l-1.332-3.02-3.868-7.43H810.92v13.97Zm13.218,0h2.627v-10.58h-2.627v10.58Zm1.332-12.27a1.5,1.5,0,0,0,1.565-1.51,1.576,1.576,0,0,0-3.149,0A1.506,1.506,0,0,0,825.47,1499.57Zm4.358,12.27h2.627v-7.27a2.839,2.839,0,0,1,2.1-1.19c0.99,0,1.422.58,1.422,2.21v6.25h2.645v-6.59c0-2.66-.936-4.25-3.113-4.25a4.586,4.586,0,0,0-3.275,1.66h-0.072l-0.18-1.4h-2.159v10.58Zm15.286,0.26a6.2,6.2,0,0,0,2.123-.4l-0.431-2.02a2.69,2.69,0,0,1-.99.23c-0.9,0-1.368-.57-1.368-1.77v-4.69h2.483v-2.19h-2.483v-2.83h-2.213l-0.306,2.83-1.547.14v2.05H841.8v4.69C841.8,1510.51,842.721,1512.1,845.114,1512.1Zm8.788,0a6.131,6.131,0,0,0,3.526-1.17l-0.9-1.7a4.039,4.039,0,0,1-2.268.74,2.7,2.7,0,0,1-2.789-2.65h6.208a5.315,5.315,0,0,0,.126-1.26c0-2.93-1.439-5.06-4.21-5.06-2.412,0-4.7,2.13-4.7,5.57C848.9,1510.04,851.094,1512.1,853.9,1512.1Zm-2.466-6.61a2.331,2.331,0,0,1,2.2-2.34c1.3,0,1.907.91,1.907,2.34h-4.1Zm9.078,6.35h2.628v-7.27a2.836,2.836,0,0,1,2.1-1.19c0.99,0,1.421.58,1.421,2.21v6.25h2.646v-6.59c0-2.66-.936-4.25-3.113-4.25a4.585,4.585,0,0,0-3.275,1.66h-0.072l-0.18-1.4h-2.16v10.58Zm15.593,0.26a4.082,4.082,0,0,0,2.789-1.36h0.054l0.216,1.1h2.141v-15.07h-2.645v3.72l0.108,1.66a3.389,3.389,0,0,0-2.555-1.15c-2.178,0-4.229,2.11-4.229,5.57S873.606,1512.1,876.107,1512.1Zm0.684-2.28c-1.332,0-2.088-1.1-2.088-3.29,0-2.11.954-3.25,2.088-3.25a2.6,2.6,0,0,1,1.871.8v4.64A2.23,2.23,0,0,1,876.791,1509.82Zm12.733,2.28c2.519,0,4.84-2.04,4.84-5.53,0-3.53-2.321-5.57-4.84-5.57s-4.841,2.04-4.841,5.57C884.683,1510.06,887.005,1512.1,889.524,1512.1Zm0-2.27c-1.368,0-2.142-1.28-2.142-3.26,0-2,.774-3.3,2.142-3.3s2.141,1.3,2.141,3.3C891.665,1508.55,890.891,1509.83,889.524,1509.83Zm16.837,2.27c3.077,0,4.895-1.94,4.895-4.23a3.836,3.836,0,0,0-2.682-3.79l-1.745-.78c-1.134-.47-2.087-0.83-2.087-1.83,0-.92.755-1.47,1.925-1.47a4.166,4.166,0,0,1,2.825,1.15l1.35-1.75a5.746,5.746,0,0,0-4.175-1.8c-2.7,0-4.607,1.76-4.607,4.04a4.029,4.029,0,0,0,2.7,3.76l1.781,0.79c1.188,0.53,2,.85,2,1.89,0,0.98-.737,1.6-2.123,1.6a5.136,5.136,0,0,1-3.383-1.54l-1.529,1.92A6.933,6.933,0,0,0,906.361,1512.1Zm9.6-.26h3.023l1.026-4.61c0.216-.98.36-1.96,0.558-3.08h0.09c0.2,1.12.36,2.08,0.576,3.08l1.061,4.61h3.113l2.484-10.58h-2.448l-1.1,5.23c-0.2,1.02-.324,2.04-0.5,3.08h-0.09c-0.216-1.04-.4-2.06-0.63-3.08l-1.26-5.23h-2.357l-1.2,5.23c-0.252,1-.432,2.04-0.63,3.08H917.6c-0.18-1.04-.306-2.06-0.5-3.08l-1.1-5.23h-2.645Zm14.462,0h2.627v-10.58h-2.627v10.58Zm1.332-12.27a1.5,1.5,0,0,0,1.565-1.51,1.576,1.576,0,0,0-3.149,0A1.506,1.506,0,0,0,931.755,1499.57Zm8.083,12.53a6.2,6.2,0,0,0,2.123-.4l-0.432-2.02a2.685,2.685,0,0,1-.989.23c-0.9,0-1.368-.57-1.368-1.77v-4.69h2.483v-2.19h-2.483v-2.83h-2.213l-0.306,2.83-1.548.14v2.05h1.422v4.69C936.527,1510.51,937.445,1512.1,939.838,1512.1Zm8.7,0a4.891,4.891,0,0,0,3.293-1.28l-1.043-1.83a3.049,3.049,0,0,1-1.962.84c-1.457,0-2.5-1.28-2.5-3.26,0-2,1.044-3.3,2.573-3.3a2.252,2.252,0,0,1,1.548.69l1.259-1.79a4.293,4.293,0,0,0-2.933-1.17c-2.735,0-5.146,2.04-5.146,5.57C943.623,1510.06,945.746,1512.1,948.535,1512.1Zm4.513-.26h2.627v-7.27a2.836,2.836,0,0,1,2.105-1.19c0.99,0,1.422.58,1.422,2.21v6.25h2.645v-6.59c0-2.66-.936-4.25-3.113-4.25a4.513,4.513,0,0,0-3.167,1.55l0.108-1.98v-3.8h-2.627v15.07Zm12.9-7.78h1.764v-5.02h1.853v-1.68h-5.452v1.68h1.835v5.02Zm4.517,0h1.619v-2.29l-0.215-2.41h0.09l1.241,3.7h1.26l1.259-3.7h0.072l-0.2,2.41v2.29h1.62v-6.7h-2.034l-0.809,2.21-0.486,1.51h-0.09l-0.486-1.51-0.846-2.21h-2v6.7Z" transform="translate(-810.906 -1496.53)"/>
</svg>
