<svg id="txt_spec_02.svg" xmlns="http://www.w3.org/2000/svg" width="76.344" height="17.94" viewBox="0 0 76.344 17.94">
  <defs>
    <style>
      .cls-1 {
        fill-rule: evenodd;
      }
    </style>
  </defs>
  <path id="主機平台_" data-name="主機平台 " class="cls-1" d="M794.468,1446.68v-3.64h5.164v-2.17h-5.164v-3.27H800.5v-2.18h-5.7l0.953-.74a20.305,20.305,0,0,0-3.455-2.85l-1.763,1.28a26.1,26.1,0,0,1,2.7,2.31h-7.2v2.18h6.082v3.27h-5.128v2.17h5.128v3.64h-6.837v2.21h16.1v-2.21h-6.909Zm15.928-5.64c-0.234-.45-1.26-2.19-1.656-2.77v-0.84h1.206v-2.07H808.74v-3.51h-1.835v3.51h-1.584v2.07H806.8a19.553,19.553,0,0,1-1.944,5.91,15.919,15.919,0,0,1,.828,2.23,18.035,18.035,0,0,0,1.224-3.38v7.29h1.835v-8.78c0.306,0.68.594,1.38,0.738,1.83Zm8.637,2.23a8.875,8.875,0,0,1-1.062,1.64,13.628,13.628,0,0,1-.486-1.64h1.548Zm0.4,0h2.087v-1.72h-1.44l0.468-.45a13.65,13.65,0,0,0-1.367-1.15c0.306-.06.684-0.12,1.133-0.19,0.072,0.28.126,0.54,0.162,0.77l1.278-.47c-0.144-.68-0.522-1.85-0.828-2.74l-1.223.36c0.09,0.25.162,0.53,0.252,0.79l-0.99.12a24.43,24.43,0,0,0,2.393-4.01l-1.547-.52c-0.144.37-.306,0.79-0.468,1.17l-0.81.05a15.773,15.773,0,0,0,1.4-2.9l-1.53-.44a13.928,13.928,0,0,1-1.08,2.85,1.193,1.193,0,0,1-.629.64c0.18,0.44.413,1.17,0.521,1.51a4.946,4.946,0,0,1,1.4-.32,9.42,9.42,0,0,1-.828,1.34,2.011,2.011,0,0,1-.882.87,15.678,15.678,0,0,1,.486,1.55,4.248,4.248,0,0,1,1.278-.34l-0.81.7c0.288,0.24.63,0.53,0.936,0.81h-1.656a65.406,65.406,0,0,1-.755-9.55h-1.764c0.036,0.98.072,1.96,0.108,2.87l-1.493-.53c-0.144.4-.324,0.79-0.5,1.17l-0.81.07a18.913,18.913,0,0,0,1.548-3.15l-1.53-.41a14.635,14.635,0,0,1-1.206,3.02,1.273,1.273,0,0,1-.647.68c0.162,0.41.414,1.17,0.5,1.51a4.463,4.463,0,0,1,1.439-.32,13.2,13.2,0,0,1-.864,1.37,1.752,1.752,0,0,1-.9.83c0.18,0.42.413,1.23,0.5,1.53a13.23,13.23,0,0,1,2.826-.58,5.848,5.848,0,0,1,.108.64l1.331-.41a23.814,23.814,0,0,0-.72-2.72l-1.241.34c0.072,0.26.144,0.56,0.234,0.85l-1.008.11a24.605,24.605,0,0,0,2.447-3.93,64.226,64.226,0,0,0,.612,6.61h-5.02v1.72H811.4a6.25,6.25,0,0,1-2.447,4.91,6.513,6.513,0,0,1,1.422,1.28,7.824,7.824,0,0,0,2.447-3.78,17.626,17.626,0,0,1,1.349,1.36l1.3-1.32c-0.522-.55-1.548-1.41-2.285-2.04,0.018-.13.018-0.28,0.036-0.41h2.447a16.43,16.43,0,0,0,.918,3.02,11.413,11.413,0,0,1-3.1,1.7,8.786,8.786,0,0,1,1.1,1.43,12.6,12.6,0,0,0,2.843-1.57,3.669,3.669,0,0,0,2.645,1.61c0.774,0.06,1.494-.6,1.962-2.95a5.466,5.466,0,0,1-1.35-1.18c-0.126,1.32-.342,2-0.683,1.96a1.791,1.791,0,0,1-1.116-.68,11.051,11.051,0,0,0,1.979-2.78Zm22.816-2.31h-7.072v-5.71H841.2v-2.23H826.878v2.23h6.064v5.71h-7v2.29h7v6.23h2.231v-6.23h7.072v-2.29Zm-14.27-4.51a19.7,19.7,0,0,1,1.314,3.93l2.087-.68a17.7,17.7,0,0,0-1.439-3.85Zm10.509,3.89a37.351,37.351,0,0,0,1.979-3.94l-2.285-.61a23.128,23.128,0,0,1-1.565,3.99Zm19.032,2.98v3.02h-7.63v-3.02h7.63Zm-9.825,6.14h2.195v-0.96h7.63v0.94h2.3v-8.27H847.691v8.29Zm7.54-14.71c0.665,0.7,1.385,1.5,2.087,2.33l-7.378.24a31,31,0,0,0,3.923-4.81l-2.159-.96a25.274,25.274,0,0,1-3.815,5.13,3.7,3.7,0,0,1-1.494,1.09,17.733,17.733,0,0,1,.7,2.16c0.954-.34,2.231-0.38,11.786-0.87,0.378,0.53.7,1.02,0.936,1.43l1.818-1.38a34.381,34.381,0,0,0-4.733-5.53Z" transform="translate(-785.281 -1431.53)"/>
</svg>
