<svg id="txt_spec_04.svg" xmlns="http://www.w3.org/2000/svg" width="79.406" height="17.87" viewBox="0 0 79.406 17.87">
  <defs>
    <style>
      .cls-1 {
        fill-rule: evenodd;
      }
    </style>
  </defs>
  <path id="遊戲類型" class="cls-1" d="M790.689,1438.4c0,1.96-.162,4.77-1.692,6.62a7.08,7.08,0,0,1,1.242,1.31c1.691-1.91,2.105-4.72,2.177-6.99h1.026c-0.072,3.63-.162,4.93-0.378,5.27a0.467,0.467,0,0,1-.45.24,9.391,9.391,0,0,1-1.061-.05,4.767,4.767,0,0,1,.467,1.79,8.948,8.948,0,0,0,1.584-.08,1.3,1.3,0,0,0,1.026-.69c0.413-.59.521-2.46,0.629-7.54v-0.77h-2.825v-1.38h2.448c0.341,0.27.881,0.7,1.223,1.02v1.19h2.465a9.184,9.184,0,0,1-.917.93v1.17h-2.016v1.77h2.016v2.21c0,0.17-.054.23-0.27,0.23-0.2,0-.864,0-1.53-0.02a5.98,5.98,0,0,1,.594,1.85,5,5,0,0,0,2.321-.32c0.594-.31.7-0.83,0.7-1.72v-2.23h2.087v-1.77H799.47v-0.74a18.21,18.21,0,0,0,2-2.19l-1.133-.92-0.342.11h-3.383c0.2-.36.4-0.72,0.594-1.13h4.246v-1.85h-3.472c0.162-.49.323-0.97,0.467-1.46l-1.8-.51a14.831,14.831,0,0,1-1.4,3.59v-1.06h-1.655a19.533,19.533,0,0,0-.7-2.24l-1.925.35c0.2,0.57.4,1.29,0.54,1.89h-2.286v1.85h1.476v2.27Zm-2.267-3.31c-0.252-.85-0.63-2.13-0.936-3.15l-1.638.51c0.27,1.02.666,2.4,0.864,3.25Zm0.108,5.25-0.27.06h-0.648c0.36-1.32.738-2.83,1.062-4.15H785v2h1.421c-0.342,1.47-.756,2.98-1.115,4.09h1.979a19.342,19.342,0,0,1-.882,3.32,7.726,7.726,0,0,0-1.781,1.87l1.367,2.08c0.324-1.06.828-2.34,1.17-2.34a7.073,7.073,0,0,1,1.8,1.08c1.332,0.77,2.88.96,5.291,0.96,2.123,0,5.4-.13,6.856-0.21a8.705,8.705,0,0,1,.611-2.19,65.687,65.687,0,0,1-7.377.47c-2.124,0-3.851-.13-5.093-0.88-0.5-.31-0.863-0.59-1.169-0.78a26.172,26.172,0,0,0,1.277-5.08Zm33.837-5.21c-0.36-.77-1.115-2.06-1.691-3l-1.566.81a34.367,34.367,0,0,1,1.6,3.12Zm-14.071,1.21h1.943v0.94l-1.817.17,0.144,1.16,1.673-.17c0,1.17.27,1.79,1.6,1.79h1.925a4.351,4.351,0,0,0,1.3-.13c-0.072-.42-0.09-0.76-0.126-1.23a5.569,5.569,0,0,1-1.26.11h-1.3c-0.4,0-.432-0.17-0.432-0.56v-0.14l1.727-.17-0.144-1.11-1.583.13v-0.79h2.2c-0.09.55-.2,1.08-0.288,1.45l1.512,0.29a27.5,27.5,0,0,0,.737-2.99l-1.277-.22-0.252.05h-2.717v-0.69h3.707v-1.44h-3.707v-0.94h-1.98v3.07H806.55v5.12c0,2.4-.09,5.72-1.079,8.06a7.984,7.984,0,0,1,1.439,1.19c1.17-2.57,1.386-6.59,1.386-9.25v-3.7Zm7.395,4.28h-7.035V1442h7.035v-1.38Zm-5.056,2.99H813.6v0.87h-2.969v-0.87Zm4.661,1.92v-3h-6.262v3H815.3Zm5.4-6.51a18.619,18.619,0,0,1-1.368,3.61c-0.144-1.1-.27-2.42-0.378-3.84l3.6-.51-0.234-1.94-3.473.49c-0.071-1.55-.125-3.19-0.125-4.89h-1.962q0.054,2.745.162,5.16l-1.242.16,0.252,1.97,1.116-.15a42.236,42.236,0,0,0,.756,6.02,10.854,10.854,0,0,1-2.177,2.15v-0.28l-1.458.11c0.234-.4.468-0.79,0.7-1.23l-1.764-.26a15.26,15.26,0,0,1-.629,1.6l-0.972.08a10.591,10.591,0,0,0-.5-1.57l-1.44.27c0.144,0.43.306,0.96,0.414,1.41l-1.943.13,0.2,1.63c2.015-.13,4.768-0.38,7.4-0.62v-0.78a7.193,7.193,0,0,1,1.169,1.21,10.618,10.618,0,0,0,1.674-1.59c0.557,1.29,1.259,2.02,2.2,2.06,0.7,0.02,1.583-.7,2.033-3.83a5.954,5.954,0,0,1-1.475-1.27c-0.09,1.59-.27,2.48-0.54,2.48-0.288-.02-0.576-0.51-0.81-1.34a20.734,20.734,0,0,0,2.411-5.55Zm20.086-.43h-3.472v-1.16h3.472v1.16Zm0,2.71h-3.472v-1.17h3.472v1.17Zm0,2.72h-3.472v-1.17h3.472v1.17Zm-5.4-8.27v9.95H842.8v-9.95h-3.167c0.144-.39.288-0.81,0.432-1.24h3.275v-1.93h-8.494v1.93h2.969c-0.072.41-.162,0.83-0.251,1.24h-2.178Zm-2.483-3.15a20.27,20.27,0,0,1-.81,2.44l1.368,0.47c0.342-.62.774-1.55,1.205-2.44Zm-3.383,2.19a7.864,7.864,0,0,0-.972-2.26l-1.439.54a8.932,8.932,0,0,1,.9,2.35Zm0.45,6.14h1.853V1439a27.007,27.007,0,0,1,2.124,2.21l1.133-1.42c-0.378-.3-1.871-1.43-2.357-1.73l-0.9.7v-1.14h2.915v-1.77h-2.915v-3.87h-1.853v3.87h-3.113v1.77h3.113v3.31Zm-1.4-2.93a6.173,6.173,0,0,1-2.105,2.36,5.8,5.8,0,0,1,1.224,1.4,8.238,8.238,0,0,0,2.159-3.27Zm5.956,9.18a25.683,25.683,0,0,0-3.059-2.02,4.86,4.86,0,0,0,.09-0.5h3.257v-1.85h-0.845l0.593-.45a7.064,7.064,0,0,0-1.295-1.41l-1.152.81a10.977,10.977,0,0,1,.936,1.05h-1.386v-1.51h-1.835v1.51h-2.933v1.85h2.771a4.629,4.629,0,0,1-3.167,3.08,6.492,6.492,0,0,1,1.08,1.61,6.51,6.51,0,0,0,3.2-2.55,23.456,23.456,0,0,1,2.591,1.92Zm2.592-1.38a10.006,10.006,0,0,1-2.969,2.36c0.431,0.39,1.025,1.02,1.367,1.41a11.838,11.838,0,0,0,3.347-2.6Zm2.159,1.13a23.106,23.106,0,0,1,2.879,2.57l1.62-1.21a22.55,22.55,0,0,0-2.988-2.46Zm23.977-14.87h-2.033v8.02c0,0.24-.09.3-0.342,0.32-0.27.02-1.134,0.02-1.944-.02a8.834,8.834,0,0,1,.63,1.98,7.121,7.121,0,0,0,2.825-.36c0.684-.32.864-0.85,0.864-1.88v-8.06Zm-3.347.86h-1.961v6.38H859.9v-6.38Zm-7.918,3.53v-1.98h1.512v1.98h-1.512Zm5.057,10.35v-1.51h5.2v-2.04h-5.2v-1.51H855.49v-3.3h1.692v-1.99H855.49v-1.98h1.278v-1.96H848.6v1.96h1.421v1.98h-2.033v1.99H849.8a4.1,4.1,0,0,1-2.195,2.56,9.2,9.2,0,0,1,1.4,1.57,5.772,5.772,0,0,0,2.826-4.13h1.655v3.62h1.332v1.19h-5.2v2.04h5.219v1.51h-7.036v2.07H864.02v-2.07h-6.982Z" transform="translate(-784.625 -1431.75)"/>
</svg>
