<svg id="txt_spec_07.svg" xmlns="http://www.w3.org/2000/svg" width="79.437" height="17.87" viewBox="0 0 79.437 17.87">
  <defs>
    <style>
      .cls-1 {
        fill-rule: evenodd;
      }
    </style>
  </defs>
  <path id="遊戲分級_" data-name="遊戲分級 " class="cls-1" d="M790.689,1438.4c0,1.96-.162,4.77-1.692,6.62a7.08,7.08,0,0,1,1.242,1.31c1.691-1.91,2.105-4.72,2.177-6.99h1.026c-0.072,3.63-.162,4.93-0.378,5.27a0.467,0.467,0,0,1-.45.24,9.391,9.391,0,0,1-1.061-.05,4.767,4.767,0,0,1,.467,1.79,8.948,8.948,0,0,0,1.584-.08,1.3,1.3,0,0,0,1.026-.69c0.413-.59.521-2.46,0.629-7.54v-0.77h-2.825v-1.38h2.448c0.341,0.27.881,0.7,1.223,1.02v1.19h2.465a9.184,9.184,0,0,1-.917.93v1.17h-2.016v1.77h2.016v2.21c0,0.17-.054.23-0.27,0.23-0.2,0-.864,0-1.53-0.02a5.98,5.98,0,0,1,.594,1.85,5,5,0,0,0,2.321-.32c0.594-.31.7-0.83,0.7-1.72v-2.23h2.087v-1.77H799.47v-0.74a18.21,18.21,0,0,0,2-2.19l-1.133-.92-0.342.11h-3.383c0.2-.36.4-0.72,0.594-1.13h4.246v-1.85h-3.472c0.162-.49.323-0.97,0.467-1.46l-1.8-.51a14.831,14.831,0,0,1-1.4,3.59v-1.06h-1.655a19.533,19.533,0,0,0-.7-2.24l-1.925.35c0.2,0.57.4,1.29,0.54,1.89h-2.286v1.85h1.476v2.27Zm-2.267-3.31c-0.252-.85-0.63-2.13-0.936-3.15l-1.638.51c0.27,1.02.666,2.4,0.864,3.25Zm0.108,5.25-0.27.06h-0.648c0.36-1.32.738-2.83,1.062-4.15H785v2h1.421c-0.342,1.47-.756,2.98-1.115,4.09h1.979a19.342,19.342,0,0,1-.882,3.32,7.726,7.726,0,0,0-1.781,1.87l1.367,2.08c0.324-1.06.828-2.34,1.17-2.34a7.073,7.073,0,0,1,1.8,1.08c1.332,0.77,2.88.96,5.291,0.96,2.123,0,5.4-.13,6.856-0.21a8.705,8.705,0,0,1,.611-2.19,65.687,65.687,0,0,1-7.377.47c-2.124,0-3.851-.13-5.093-0.88-0.5-.31-0.863-0.59-1.169-0.78a26.172,26.172,0,0,0,1.277-5.08Zm33.837-5.21c-0.36-.77-1.115-2.06-1.691-3l-1.566.81a34.367,34.367,0,0,1,1.6,3.12Zm-14.071,1.21h1.943v0.94l-1.817.17,0.144,1.16,1.673-.17c0,1.17.27,1.79,1.6,1.79h1.925a4.351,4.351,0,0,0,1.3-.13c-0.072-.42-0.09-0.76-0.126-1.23a5.569,5.569,0,0,1-1.26.11h-1.3c-0.4,0-.432-0.17-0.432-0.56v-0.14l1.727-.17-0.144-1.11-1.583.13v-0.79h2.2c-0.09.55-.2,1.08-0.288,1.45l1.512,0.29a27.5,27.5,0,0,0,.737-2.99l-1.277-.22-0.252.05h-2.717v-0.69h3.707v-1.44h-3.707v-0.94h-1.98v3.07H806.55v5.12c0,2.4-.09,5.72-1.079,8.06a7.984,7.984,0,0,1,1.439,1.19c1.17-2.57,1.386-6.59,1.386-9.25v-3.7Zm7.395,4.28h-7.035V1442h7.035v-1.38Zm-5.056,2.99H813.6v0.87h-2.969v-0.87Zm4.661,1.92v-3h-6.262v3H815.3Zm5.4-6.51a18.619,18.619,0,0,1-1.368,3.61c-0.144-1.1-.27-2.42-0.378-3.84l3.6-.51-0.234-1.94-3.473.49c-0.071-1.55-.125-3.19-0.125-4.89h-1.962q0.054,2.745.162,5.16l-1.242.16,0.252,1.97,1.116-.15a42.236,42.236,0,0,0,.756,6.02,10.854,10.854,0,0,1-2.177,2.15v-0.28l-1.458.11c0.234-.4.468-0.79,0.7-1.23l-1.764-.26a15.26,15.26,0,0,1-.629,1.6l-0.972.08a10.591,10.591,0,0,0-.5-1.57l-1.44.27c0.144,0.43.306,0.96,0.414,1.41l-1.943.13,0.2,1.63c2.015-.13,4.768-0.38,7.4-0.62v-0.78a7.193,7.193,0,0,1,1.169,1.21,10.618,10.618,0,0,0,1.674-1.59c0.557,1.29,1.259,2.02,2.2,2.06,0.7,0.02,1.583-.7,2.033-3.83a5.954,5.954,0,0,1-1.475-1.27c-0.09,1.59-.27,2.48-0.54,2.48-0.288-.02-0.576-0.51-0.81-1.34a20.734,20.734,0,0,0,2.411-5.55Zm13.211-6.89v2.1h2.861a15.867,15.867,0,0,0,2.717,4.51h-9.321a20.017,20.017,0,0,0,2.825-5.68l-2.249-.57a13.371,13.371,0,0,1-4.463,6.89,14.624,14.624,0,0,1,1.8,1.66,16.353,16.353,0,0,0,1.349-1.36v1.25h3.041c-0.36,2.73-1.3,5.23-5.362,6.6a7.572,7.572,0,0,1,1.422,2.08c4.66-1.83,5.83-5.06,6.28-8.68h3.544c-0.162,3.92-.359,5.6-0.719,6.02a0.8,0.8,0,0,1-.72.26c-0.45,0-1.386-.02-2.375-0.09a5.575,5.575,0,0,1,.7,2.26,17.573,17.573,0,0,0,2.718-.05,2.136,2.136,0,0,0,1.637-.91c0.63-.77.846-2.94,1.044-8.51A13.217,13.217,0,0,0,842,1441a12.689,12.689,0,0,1,1.512-2.07,11.562,11.562,0,0,1-5.165-6.8h-4.444Zm14.044,7.17a6.181,6.181,0,0,1,2.087-.43,16.7,16.7,0,0,1-1.169,1.53,3.228,3.228,0,0,1-1.458,1.24,16.824,16.824,0,0,1,.684,1.99c0.4-.25,1.061-0.4,4.876-1.12a7.509,7.509,0,0,1,.18.93l1.566-.66a15.706,15.706,0,0,0-1.3-3.76l-1.439.57a13.219,13.219,0,0,1,.5,1.26l-1.889.28a31.262,31.262,0,0,0,3.743-5.49l-1.782-1.19a21.132,21.132,0,0,1-1.295,2.49l-1.26.1a25.465,25.465,0,0,0,2.429-4.46l-1.961-.83a22.338,22.338,0,0,1-2.141,4.55,2.241,2.241,0,0,1-1.044,1.02A19.389,19.389,0,0,1,847.949,1439.3Zm0.054,4.95a16.413,16.413,0,0,1-.738,4.3,8.424,8.424,0,0,1,1.6.59,21.8,21.8,0,0,0,.791-4.61Zm2.069,0.24a33.651,33.651,0,0,1,.378,3.8l1.548-.42a35.282,35.282,0,0,0-.468-3.75Zm11.211-4.56a16.283,16.283,0,0,1-1.332,3.58,14.356,14.356,0,0,1-1.4-3.58h2.736Zm-1.44-5.18c-0.144,1-.324,2.18-0.522,3.18h-1.637c0.036-1.02.072-2.08,0.09-3.18h2.069Zm2.483,3.1-0.342.08h-0.665c0.305-1.65.629-3.55,0.809-5.18l-1.493-.2-0.306.09h-6.118v2.11H855.7c-0.018,4.63-.27,8.65-1.475,11.54-0.2-.79-0.522-1.83-0.828-2.68l-1.421.49a25.276,25.276,0,0,1,.827,3.04l1.242-.47a7.947,7.947,0,0,1-.756,1.32,10.274,10.274,0,0,1,1.836,1.39,17.484,17.484,0,0,0,2.213-7.21,19.5,19.5,0,0,0,1.4,3.25,9.183,9.183,0,0,1-2.645,2.4,7.781,7.781,0,0,1,1.35,1.68,11.987,11.987,0,0,0,2.573-2.27,8.706,8.706,0,0,0,2.609,2.15,8.268,8.268,0,0,1,1.422-1.87,8.108,8.108,0,0,1-2.753-2.07,19.84,19.84,0,0,0,2.393-7.1Z" transform="translate(-784.625 -1431.75)"/>
</svg>
