<svg id="txt_spec_06.svg" xmlns="http://www.w3.org/2000/svg" width="93.5" height="17.9" viewBox="0 0 93.5 17.9">
  <defs>
    <style>
      .cls-1 {
        fill-rule: evenodd;
      }
    </style>
  </defs>
  <path id="發行_銷售_" data-name="發行・銷售 " class="cls-1" d="M797.6,1444.44a7.208,7.208,0,0,1-1.134,1.32c-0.81-.47-1.637-0.91-2.393-1.32H797.6Zm1.277-1.55-0.324.06H792.7v1.49h0.432l-0.72.9c0.774,0.44,1.62.95,2.5,1.46a10.934,10.934,0,0,1-3.2,1.05,6.641,6.641,0,0,1,.9,1.63,12.9,12.9,0,0,0,4.013-1.63c0.972,0.61,1.835,1.19,2.447,1.65l1.08-1.49c-0.54-.38-1.278-0.85-2.087-1.33a8.414,8.414,0,0,0,1.979-3.36Zm0.936-9.06a15.688,15.688,0,0,1-2,1.96,11.045,11.045,0,0,1-.954-0.85c0.684-.51,1.457-1.19,2.2-1.83l-1.529-1.15a16.907,16.907,0,0,1-1.692,1.74,7.823,7.823,0,0,1-1.025-1.78l-1.71.53a13.032,13.032,0,0,0,3.635,5H793.3v1.34a2.759,2.759,0,0,1-1.278,2.53v-3.75h-2.357a10.58,10.58,0,0,0,3.383-4.48l-1.313-.68-0.36.1h-4.7v1.75h3.545a9.1,9.1,0,0,1-1.044,1.21,13.351,13.351,0,0,0-1.889-1.19l-1.224,1.19a18.989,18.989,0,0,1,1.674,1.13,11.326,11.326,0,0,1-3.023,1.46,8.321,8.321,0,0,1,1.151,1.64,13.422,13.422,0,0,0,1.638-.74v0.31h2.609v1.32h-3.185c-0.162,1.49-.45,3.36-0.7,4.58h3.779a4.076,4.076,0,0,1-.5,2.1,0.8,0.8,0,0,1-.648.19c-0.395,0-1.277-.02-2.177-0.1a4.422,4.422,0,0,1,.612,1.87,17.718,17.718,0,0,0,2.375-.02,1.84,1.84,0,0,0,1.44-.62c0.468-.49.684-1.72,0.881-4.27,0.018-.26.036-0.77,0.036-0.77h-3.742c0.054-.41.108-0.87,0.18-1.3h3.562v-0.57a8.147,8.147,0,0,1,1.08,1.21,4.442,4.442,0,0,0,1.979-3.74h1.656v1.1c0,1.53.288,2.17,1.8,2.17h1.116a3.237,3.237,0,0,0,1.044-.12c-0.072-.43-0.108-1.07-0.144-1.52a3.984,3.984,0,0,1-.918.09H798.75c-0.234,0-.27-0.15-0.27-0.6v-1.63a12.28,12.28,0,0,0,2.052.91,8.209,8.209,0,0,1,1.277-1.78,12.616,12.616,0,0,1-2.573-1.05,23.865,23.865,0,0,0,2.123-1.74Zm21.79-.91h-8.745v2.14H821.6v-2.14Zm-12.2-1.07a16.365,16.365,0,0,1-4.066,4.02,12.89,12.89,0,0,1,1.187,1.83,24.7,24.7,0,0,0,4.949-4.97Zm0.684,4.07a18.018,18.018,0,0,1-4.948,5.65,22.11,22.11,0,0,1,1.457,1.94c0.486-.41.972-0.88,1.476-1.39v7.38h2.141v-9.86a24.915,24.915,0,0,0,1.926-2.88Zm11.966,2.19H812.1v2.14h5.308v6.57c0,0.28-.126.36-0.45,0.36s-1.512.01-2.537-.04a9.594,9.594,0,0,1,.648,2.28,9.474,9.474,0,0,0,3.508-.38c0.792-.34,1.008-0.96,1.008-2.17v-6.62h2.465v-2.14Zm7.515,2.55a2.306,2.306,0,1,0,2.3-2.41A2.383,2.383,0,0,0,829.567,1440.66Zm26.877-8.38a24.206,24.206,0,0,1-1.512,3.61l1.8,0.68c0.5-.89,1.152-2.25,1.709-3.55Zm-4.481,3.53a11.625,11.625,0,0,0-1.655-3.4l-1.709.83a13.518,13.518,0,0,1,1.529,3.5Zm-7.737.74a16.136,16.136,0,0,0,1.188-1.76c0.629,0.59,1.295,1.19,1.835,1.76h-3.023Zm4.193,9.21-2.124.38v-4.44h1.98v-1.91H846.3v-1.37h1.242v-1.57c0.162,0.17.288,0.32,0.414,0.47l1.2-1.74c-0.629-.66-1.8-1.68-2.789-2.52,0.108-.21.2-0.44,0.288-0.65l-1.853-.68a12.819,12.819,0,0,1-3.311,4.53,15.921,15.921,0,0,1,.917,2.31c0.216-.19.414-0.4,0.63-0.61v0.46h1.4v1.37h-2.5v1.91h2.5v4.74c-1.044.17-2.016,0.32-2.753,0.43l0.432,2.04c1.8-.43,4.138-0.96,6.37-1.53Zm-6.406-2.98a26.738,26.738,0,0,1,.611,3.26l1.476-.43a29.475,29.475,0,0,0-.7-3.21Zm5.722,3.02c0.306-.81.666-2.06,1.025-3.16l-1.619-.43a21.41,21.41,0,0,1-.666,3.17Zm3.365-4.63a15.5,15.5,0,0,1,3.617,1.53l0.917-1.51a13.858,13.858,0,0,0-3.671-1.36Zm-0.018-2.13h4.75v3.81c-1.745.42-3.491,0.83-4.768,1.1,0.018-.36.018-0.72,0.018-1.02v-3.89Zm6.748-1.94H854.5v-5.23h-2.052v5.23H849.1v5.81a12.217,12.217,0,0,1-.863,5.45,8.146,8.146,0,0,1,1.709,1.25,12.3,12.3,0,0,0,1.1-5.06l0.45,1.28c1.277-.33,2.807-0.75,4.336-1.17v2.35a0.288,0.288,0,0,1-.36.33c-0.27.02-1.151,0.02-1.979-.03a7.929,7.929,0,0,1,.594,2.07,6.641,6.641,0,0,0,2.9-.36c0.666-.33.846-0.94,0.846-1.98v-9.94Zm17.135,8.13v1.78h-8.187v-1.78h8.187Zm-10.329,4.3h2.142v-0.75h8.187v0.75H877.2v-6.05h-12.56v6.05Zm2.178-9.64h3.76v0.92h-3.76v-0.92Zm3.76-3.72h-3.76v-0.85h3.76v0.85Zm0,2.27h-3.76v-0.84h3.76v0.84Zm2.106,2.37v-0.92h4.21v-1.45h-4.21v-0.84h4.192v-1.43H872.68v-0.85h5.092v-1.57h-4.966a14.2,14.2,0,0,0-.882-1.94l-1.979.6c0.18,0.4.395,0.87,0.557,1.34h-2.969c0.216-.43.432-0.88,0.63-1.3l-2-.68a15.362,15.362,0,0,1-4.031,5.59,14.166,14.166,0,0,1,1.458,1.77c0.36-.35.737-0.75,1.115-1.19v5.16h2.106v-0.64h11.408v-1.65H872.68Z" transform="translate(-784.719 -1431.72)"/>
</svg>
