<svg id="txt_spec_05.svg" xmlns="http://www.w3.org/2000/svg" width="79.844" height="17.87" viewBox="0 0 79.844 17.87">
  <defs>
    <style>
      .cls-1 {
        fill-rule: evenodd;
      }
    </style>
  </defs>
  <path id="遊玩人數_" data-name="遊玩人數 " class="cls-1" d="M790.689,1438.4c0,1.96-.162,4.77-1.692,6.62a7.08,7.08,0,0,1,1.242,1.31c1.691-1.91,2.105-4.72,2.177-6.99h1.026c-0.072,3.63-.162,4.93-0.378,5.27a0.467,0.467,0,0,1-.45.24,9.391,9.391,0,0,1-1.061-.05,4.767,4.767,0,0,1,.467,1.79,8.948,8.948,0,0,0,1.584-.08,1.3,1.3,0,0,0,1.026-.69c0.413-.59.521-2.46,0.629-7.54v-0.77h-2.825v-1.38h2.448c0.341,0.27.881,0.7,1.223,1.02v1.19h2.465a9.184,9.184,0,0,1-.917.93v1.17h-2.016v1.77h2.016v2.21c0,0.17-.054.23-0.27,0.23-0.2,0-.864,0-1.53-0.02a5.98,5.98,0,0,1,.594,1.85,5,5,0,0,0,2.321-.32c0.594-.31.7-0.83,0.7-1.72v-2.23h2.087v-1.77H799.47v-0.74a18.21,18.21,0,0,0,2-2.19l-1.133-.92-0.342.11h-3.383c0.2-.36.4-0.72,0.594-1.13h4.246v-1.85h-3.472c0.162-.49.323-0.97,0.467-1.46l-1.8-.51a14.831,14.831,0,0,1-1.4,3.59v-1.06h-1.655a19.533,19.533,0,0,0-.7-2.24l-1.925.35c0.2,0.57.4,1.29,0.54,1.89h-2.286v1.85h1.476v2.27Zm-2.267-3.31c-0.252-.85-0.63-2.13-0.936-3.15l-1.638.51c0.27,1.02.666,2.4,0.864,3.25Zm0.108,5.25-0.27.06h-0.648c0.36-1.32.738-2.83,1.062-4.15H785v2h1.421c-0.342,1.47-.756,2.98-1.115,4.09h1.979a19.342,19.342,0,0,1-.882,3.32,7.726,7.726,0,0,0-1.781,1.87l1.367,2.08c0.324-1.06.828-2.34,1.17-2.34a7.073,7.073,0,0,1,1.8,1.08c1.332,0.77,2.88.96,5.291,0.96,2.123,0,5.4-.13,6.856-0.21a8.705,8.705,0,0,1,.611-2.19,65.687,65.687,0,0,1-7.377.47c-2.124,0-3.851-.13-5.093-0.88-0.5-.31-0.863-0.59-1.169-0.78a26.172,26.172,0,0,0,1.277-5.08Zm32.977-7.15H812.87v2.13h8.637v-2.13Zm-9.3,10.38-2.177.55v-3.4h1.781v-2.06h-1.781v-3.34h1.943v-2.08h-6.136v2.08h2.124v3.34h-1.944v2.06h1.944v3.91c-0.918.2-1.764,0.39-2.466,0.54l0.432,2.16c1.836-.51,4.247-1.16,6.514-1.8Zm7.684,3.72c-0.252,0-.288-0.08-0.288-0.72v-5.95h2.825v-2.15H812.15v2.15h2.034c-0.144,3.69-.54,5.88-4.121,7.14a5.427,5.427,0,0,1,1.187,1.72c4.139-1.55,4.787-4.44,5-8.86h1.224v5.97c0,2.1.377,2.79,2.033,2.79h1.223c1.368,0,1.89-.85,2.07-3.75a5.694,5.694,0,0,1-1.89-.93c-0.036,2.23-.108,2.59-0.395,2.59h-0.63Zm13.749-15.42c-0.072,3.19.27,11.64-7.036,15.74a7.084,7.084,0,0,1,1.781,1.83A15.309,15.309,0,0,0,835,1440.4c1.044,3.25,3.041,6.93,7.036,8.93a5.99,5.99,0,0,1,1.566-1.95c-6.28-2.9-7.378-10.02-7.63-12.57,0.072-1.13.108-2.15,0.126-2.94h-2.465Zm23.16,12.83,0.018-1.41-0.576.03v-0.58h-1.674v0.66l-2.105.11c0.2-.37.4-0.73,0.576-1.09h3.6v-1.95a11.521,11.521,0,0,1,1.313,1.38,9.434,9.434,0,0,0,.684-1.38,27.688,27.688,0,0,0,1.062,3.76,8.246,8.246,0,0,1-3.2,3.61c-0.5-.27-1.08-0.57-1.728-0.87a4.058,4.058,0,0,0,1.368-2.23Zm-5.237.3,2.736-.15a3.146,3.146,0,0,1-1.26,1.34c-0.594-.24-1.206-0.47-1.8-0.68Zm-1.313-4.64h1.475v0.7h-1.475v-0.7Zm4.534,0v0.7h-1.439v-0.7h1.439Zm6.586-3.11a26.145,26.145,0,0,1-.773,4.53,32.966,32.966,0,0,1-.918-4.53h1.691Zm-10.616-.19v-0.68h0.971v0.68h-0.971Zm0.971-2.65v0.61h-0.971v-0.61h0.971Zm2.664,0v0.61h-1.044v-0.61h1.044Zm-1.044,2.65v-0.68h1.044v0.68h-1.044Zm10.994,0.19v-1.97h-4.264c0.2-1.02.342-2.07,0.468-3.13l-1.8-.25c-0.324,3.25-.918,6.46-2.105,8.48V1439h-3.293v-0.53h2.9v-1.98h1.224v-1.58h-1.224V1433h-2.9v-1.15h-1.62V1433h-2.735v1.91H847.62v1.58h1.367v1.98h2.735V1439H848.5v3.42h2.646a12.386,12.386,0,0,1-.63,1.17c-1.044.06-1.98,0.09-2.771,0.13l0.162,1.49,1.619-.09a9.348,9.348,0,0,1-.792,1.09,25.46,25.46,0,0,1,2.394.87,20.747,20.747,0,0,1-3.8.85,6.142,6.142,0,0,1,.774,1.43,18.352,18.352,0,0,0,5.038-1.39,19.054,19.054,0,0,1,2.321,1.3l1.152-1.04a7.632,7.632,0,0,1,.81,1.36,10.479,10.479,0,0,0,3.221-3.34,8.8,8.8,0,0,0,2.609,2.98,5.831,5.831,0,0,1,1.205-1.53,7.871,7.871,0,0,1-2.843-3.34,26.72,26.72,0,0,0,1.548-7.11h1.169Z" transform="translate(-784.625 -1431.75)"/>
</svg>
