<svg xmlns="http://www.w3.org/2000/svg" width="560" height="60" viewBox="0 0 560 60">
  <defs>
    <style>
      .cls-1 {
        fill: #ffa000;
      }

      .cls-2 {
        fill: #fff;
      }
    </style>
  </defs>
  <g id="レイヤー_2" data-name="レイヤー 2">
    <g id="object">
      <g>
        <path class="cls-1" d="M560,30a30.09,30.09,0,0,1-30,30H30A30.09,30.09,0,0,1,0,30H0A30.09,30.09,0,0,1,30,0H530a30.09,30.09,0,0,1,30,30Z"/>
        <g>
          <path class="cls-2" d="M181.08,17.79V27h-7.79V42.66h-3.36V17.79Zm-3.17,3.61V20.23h-4.62V21.4Zm-4.62,2v1.21h4.62V23.36ZM186.4,33h3v2.69h-3V41.9h-3V35.69h-2.55a10,10,0,0,1-4.34,6.74,5.24,5.24,0,0,0-2.63-1.84c1.88-1.07,3.42-2.33,4-4.9h-3.16V33h3.44c0-1.32,0-1.71,0-2.07h-2.75V28.4h13.53v2.53H186.4Zm-3-2.07H181.1c0,.61,0,1.28,0,2.07h2.29Zm10.75-13.14V39.27c0,3.25-2.12,3.5-5.06,3.47a8.86,8.86,0,0,0-1.32-3.47,11.35,11.35,0,0,0,1.71.2c.67,0,1.34-.12,1.34-1.12V27h-7.87V17.79Zm-3.33,3.64v-1.2h-4.67v1.2Zm-4.67,1.93V24.6h4.67V23.36Z"/>
          <path class="cls-2" d="M222.52,27.4v2.54h-6.14v1.52h5V34h-5v1.48h5V38h-5v1.51h6.36V42.1H209.36v.64H206V32.41c-.33.34-.47.5-.81.81a7.83,7.83,0,0,0-1.85-2.1V42.74H200V28.43c-.65.87-1.07,1.4-1.4,1.8a6,6,0,0,0-2.41-2.44,29.27,29.27,0,0,0,6.07-11l3.28,1.09a.44.44,0,0,1,.36.42c0,.28-.22.36-.64.5-.62,1.38-1.57,3.45-1.88,4.06.56.2.68.26.68.45s-.14.31-.68.56v6.61a24.15,24.15,0,0,0,4.71-6.19H206V17.57l3.33.17c.25,0,.5.05.5.33s-.16.37-.67.65v2.94H212V16.9l3.5.19c.14,0,.51.09.51.34s-.45.47-.7.53v3.7h3.11v-4l3.44.22c.28,0,.59,0,.59.31s-.17.37-.73.59v5.46h-6.5l2,1.06c.2.12.34.26.34.45s-.09.28-.79.45c-.11.2-.61,1-.7,1.18Zm-13.16,2.54v1.52h3.72V29.94Zm0,4v1.48h3.72V34Zm0,4v1.51h3.72V38Zm3-10.61a22.19,22.19,0,0,0,1.71-3.14h-4.54l1.57.81c.28.14.39.31.39.42,0,.28-.17.31-.76.4-.28.5-.53.92-.89,1.51Z"/>
          <path class="cls-2" d="M235.65,21.74a.53.53,0,0,1,.31.48c0,.36-.82.28-1,.25a64.82,64.82,0,0,1-4.48,6.05c.73-.06.9-.06,2.5-.23-.37-.95-.45-1.14-.62-1.59l2.3-1.12a29,29,0,0,1,2,5.07A16,16,0,0,0,233.91,32c-.14-.81-.19-1.12-.31-1.6-.47.09-.89.2-1.51.29v12h-3.25V31.21c-1.93.33-2.12.36-2.88.53-.08.25-.2.61-.48.61s-.33-.22-.42-.53L224.42,29c.31,0,2.1-.15,2.3-.15.58-.64,1.54-1.76,1.76-2a28,28,0,0,0-3.89-3.33l1.71-2.58,1.14.76a22.25,22.25,0,0,0,2.64-4.79l2.8,1.46c.19.11.33.22.33.45s-.17.27-.75.3c-1.1,1.88-2.33,3.64-2.83,4.31.42.4.59.59.84.82a42.38,42.38,0,0,0,2.55-4Zm-7.39,11.37c.16,0,.56.08.56.31s-.42.42-.62.44a52.8,52.8,0,0,1-1,7,21.46,21.46,0,0,0-2.74-.64,29.13,29.13,0,0,0,1.31-7.31Zm6.94-.59a18.69,18.69,0,0,0,1.23,6.13,8.23,8.23,0,0,0-2.52,1.09,31.9,31.9,0,0,1-1.4-6.52Zm15.68-11.73v3h-5.57v2.94H250v2.92h-12.8V26.75h4.65V23.81h-5.57v-3h5.57v-3.7l3.39.2c.28,0,.62.11.62.36s-.31.4-.59.54v2.6ZM240.8,41.17v1.54h-3.28V31.43h12.32V42.71h-3.33V41.17Zm5.71-3V34.4H240.8v3.81Z"/>
          <path class="cls-2" d="M267.68,42.77h-3.39V35.35a32.41,32.41,0,0,1-8.82,6.58,8.33,8.33,0,0,0-2.63-2.69,24.61,24.61,0,0,0,9.32-5.57h-8.87V30.76h11V28.91h-8V17.85h19.55V28.91h-8.18v1.85h11.17v2.91h-9.07A20.62,20.62,0,0,0,279,38.74a13.31,13.31,0,0,0-2.52,2.71,23.06,23.06,0,0,1-8.82-6.21Zm-3.39-20.72V20.37h-4.42v1.68Zm-4.42,2.38v1.74h4.42V24.43Zm12.35-2.38V20.37h-4.54v1.68Zm-4.54,2.38v1.74h4.54V24.43Z"/>
          <path class="cls-2" d="M288,19.22c.22.09.33.2.33.39s-.42.4-.78.45A40.29,40.29,0,0,0,286,31.18a22.22,22.22,0,0,0,.2,3.3c.25-.45,1.29-2.43,1.51-2.83A10.33,10.33,0,0,0,289.46,34a14,14,0,0,0-2.32,7.28l-3.19.62a38.94,38.94,0,0,1-1.46-11.06A53,53,0,0,1,284.12,18Zm13.41-.62c.31.06.39.2.39.37s-.39.36-.67.39a32.7,32.7,0,0,0-.28,3.67,27.42,27.42,0,0,0,4.4-1.09v3.61c-2.27.56-3.67.78-4.48.92a55.13,55.13,0,0,0,.42,7,17.69,17.69,0,0,1,5.57,3c-.42.73-1.46,2.89-1.65,3.34a11.37,11.37,0,0,0-3.56-2.41c0,3.83-4.31,4.09-5.54,4.09-4.06,0-5.49-2.49-5.49-4.4,0-2.8,2.74-4.34,5.77-4.34a10.57,10.57,0,0,1,1.17.09c-.08-1.1-.28-3.48-.31-5.94-1.7.14-3.13.2-4,.2s-1.35,0-1.93-.06V23.34a32.13,32.13,0,0,0,3.47.19c1.15,0,1.9-.05,2.41-.08,0-.25,0-4.9,0-5.55Zm-5.49,17.14c-1.73,0-2.27.78-2.27,1.4,0,.79.82,1.34,2,1.34.2,0,2.36,0,2.36-1.76a4.79,4.79,0,0,0-.06-.62A4.68,4.68,0,0,0,295.93,35.74Z"/>
          <path class="cls-2" d="M318.14,31.88c-.42.36-2.92,2.52-2.92,3.92a1.39,1.39,0,0,0,.7,1.26c1.38.7,4.37.81,6,.81a35.62,35.62,0,0,0,10.67-1.4,24.54,24.54,0,0,0,.78,4,57.78,57.78,0,0,1-11.51,1.12c-6.3,0-10.5-1.18-10.5-5.32,0-1.26.42-3.22,4.2-6.44Zm13.32-10.06a34.24,34.24,0,0,0-9,5.77c-.33-.39-1.84-2.1-2.15-2.43.22-.14,2.38-1.8,3-2.35-1.49.11-3.56.22-6.05.22-2.07,0-2.94-.09-3.64-.14L313.4,19a54.72,54.72,0,0,0,8,.5,44.35,44.35,0,0,0,8.15-.61Z"/>
          <path class="cls-2" d="M350.34,17.93c.36.09.56.2.56.42s-.34.37-.65.4c-.14.44-.78,2.46-.92,2.85a45.1,45.1,0,0,0,9.57-2.27,10.41,10.41,0,0,0,.73,3.53,48.55,48.55,0,0,1-11.53,2.41c-.14.39-.65,1.76-1.85,4.7a16.24,16.24,0,0,1,7.84-2.21c7.17,0,7.61,5.15,7.61,6.44,0,7.76-11.08,8.18-14.5,8.18a25.11,25.11,0,0,1-2.94-.14,15,15,0,0,0-.9-3.56,39.91,39.91,0,0,0,4.23.25c3.61,0,10.17-.64,10.17-4.84,0-2.3-1.68-3.22-3.9-3.22-3.24,0-7.22,1.76-10.16,4.9l-3.36-1.71a35.78,35.78,0,0,0,4-8.57,49.5,49.5,0,0,1-5.83-.14l0-3.89a33.91,33.91,0,0,0,6.92.53,34.81,34.81,0,0,0,1.09-5.06Z"/>
          <path class="cls-2" d="M375.09,23.2c.19.05.47.16.47.42s-.39.39-.58.39A26.42,26.42,0,0,0,373,29.86a13.91,13.91,0,0,1,8.66-3.19c4.67,0,7.08,3.27,7.08,6.69,0,5.46-5.4,8.79-14.31,8.79-.87,0-1.57,0-2.1,0a10.87,10.87,0,0,0-1.09-4,21.28,21.28,0,0,0,3.86.34c1.77,0,9.72-.25,9.72-5.07,0-1.49-.84-3.36-3.7-3.36-4.84,0-8.28,3.83-9.32,5l-3.42-1.23A69.07,69.07,0,0,1,371.25,22ZM374,17a28.9,28.9,0,0,1,9.63,3.22,30.28,30.28,0,0,0-2.13,3.47,26.11,26.11,0,0,0-8.76-3.5Z"/>
        </g>
      </g>
    </g>
  </g>
</svg>
