<svg xmlns="http://www.w3.org/2000/svg" width="560" height="61.96" viewBox="0 0 560 61.96">
  <defs>
    <style>
      .cls-1 {
        fill: #00b4dc;
      }
    </style>
  </defs>
  <g id="レイヤー_2" data-name="レイヤー 2">
    <g id="object">
      <g>
        <rect class="cls-1" y="56.96" width="560" height="5"/>
        <g>
          <path class="cls-1" d="M31.54,9.31l2.34.36c1,.18,1.44.23,1.44.72s-.58.59-1.08.63c-.18.45-.49,1.08-1,2.16h8.73v23c0,4.46-1,6.35-8.33,6.35a11.65,11.65,0,0,0,0-1.17A7.89,7.89,0,0,0,32,36.49v2.7H19v1.08h-5.9V29.79a3.8,3.8,0,0,1-.45.22,8.74,8.74,0,0,0-3.15-3V42.52H3V13.18h9.4A16.82,16.82,0,0,0,10.62,9.9l3.19-.59H2.07V3.91h17V.72L25.87,1c.45,0,.86.14.86.59s-.45.63-.86.81V3.91H43v5.4Zm-22,9.63v6.35a9.88,9.88,0,0,0,4.77-6.35Zm26.19,4.91a4.24,4.24,0,0,1-4.14,2.56H25.78c-2.65,0-3.51-.94-3.51-3.06V18.94H17.68l2.39.77c.31.09.94.31.94.72,0,.18,0,.49-1.21.76a16.2,16.2,0,0,1-4.1,6.62H32v8.37c.9.09,1.66.22,2.16.22,1.39,0,1.48-.45,1.48-1.48Zm-18-14.54a22.94,22.94,0,0,1,2,3.47l-1.62.4h7.88a26.88,26.88,0,0,0,1.8-3.87ZM26.1,32.44H19v2.12H26.1Zm1.84-13.5v1.44c0,.59,0,1,.9,1h1.35c.86,0,1-.76,1.35-2.43Zm7.74,0H31.59a12.78,12.78,0,0,0,4.09,2.16Z"/>
          <path class="cls-1" d="M74.34,4.14c.45,0,.67.18.67.45s-.4.54-1.08.81a40.65,40.65,0,0,1-1.53,7.42,15.35,15.35,0,0,0-5.76-1.08v1.17H51.52V8.46H66.64v3.15a41.84,41.84,0,0,0,1.62-8.28ZM66.28,41.76H61V40.18H58.36v2.21H52.74V26.23H66.28v4.59A22.24,22.24,0,0,0,69,23l5.76,1.21c.31.05.81.27.81.63,0,.68-.9.86-1.31.9A37,37,0,0,1,72,33.12a14.65,14.65,0,0,0-5.67-1.76V37c9.63-3,9.54-8.91,9.41-17.14l6.52.36c.23,0,.68,0,.68.54,0,.27-.32.49-1.22.76,0,1.17,0,1.94,0,3.33a13.35,13.35,0,0,0,3.91,7.25c.81.76,4.19,3.87,6.93,4.86a12.94,12.94,0,0,0-4,5,21.86,21.86,0,0,1-9-8.19c-1.35,2.56-4.86,6.93-9.81,8.5A13.52,13.52,0,0,0,66.28,38ZM65.07,2.56V6.93H53.73V2.56Zm0,11.88v4.37H53.73V14.44Zm0,5.9V24.7H53.73V20.34ZM61,35.05V31.14H58.36v3.91ZM81.85,1.21c.54,0,.9.09.9.5s-.72.72-1.26.85c0,.68-.18,3.74-.18,4.37,0,1.62,1.4,4.54,3.33,6.25a27.76,27.76,0,0,0,8.19,4.64,15.78,15.78,0,0,0-4,4.86c-2.07-.95-6.75-3.11-9.9-7.29a20,20,0,0,1-9.45,7.2,17.12,17.12,0,0,0-3.55-4.82c7.74-2.52,9.54-6.34,9.54-13.5,0-1.3,0-2.06-.09-3.28Zm9.72,4.23a.73.73,0,0,1,.45.63c0,.23-.13.54-.63.54a3.78,3.78,0,0,1-.81-.09c-2.25,3.42-2.65,4-4.09,5.49a19.13,19.13,0,0,0-4.77-3.55,24.25,24.25,0,0,0,4.32-6ZM91,24.66c.45.22.68.4.68.76,0,.54-.72.77-1.35.81a27.74,27.74,0,0,1-3,4.91,17.59,17.59,0,0,0-4.77-3.2,29.39,29.39,0,0,0,3.15-5.76Z"/>
          <path class="cls-1" d="M129.33,34.15c0,.9.31,1.62,1.8,1.62h3.24c1.21,0,1.48-.49,1.66-1.08.23-.76.77-3,1-4.23,3.37,2.48,5.08,2.84,5.89,3a20.66,20.66,0,0,1-2,6.57c-1,1.85-3.38,2-4.05,2h-8.28c-3.51,0-6.21-1.17-6.21-5.67V27.67h-4.82l2.21.59c.27.09.76.22.76.76,0,.86-.94.9-1.75.95-3.69,8.86-10.35,11.56-13.86,13a18.23,18.23,0,0,0-5.36-5.36c2.84-.63,11.07-2.47,12.87-9.9h-6.61V1.89h30.87V27.67h-7.38Zm.45-24.93V7.65H113.17V9.22Zm-16.61,4.55v1.62h16.61V13.77Zm0,6.34v1.8h16.61v-1.8Z"/>
          <path class="cls-1" d="M150.48,14.49V8.55h17.1V1l6.48.41c1.12.08,1.26.4,1.26.62s-.18.5-.95,1V8.55h17.15v5.94H177a42.46,42.46,0,0,0,15.75,17.37c-3,2.38-3.87,3.24-4.91,5.17A53.36,53.36,0,0,1,181,30.64V36h-6.66V42.3h-6.79V36h-6.71V30.6A54.51,54.51,0,0,1,154,37c-1-2-2-2.83-4.91-5.17a41.51,41.51,0,0,0,15.75-17.37Zm17.1,6.84a51.16,51.16,0,0,1-6.08,8.55h6.08Zm12.82,8.55a50.74,50.74,0,0,1-6-8.46v8.46Z"/>
          <path class="cls-1" d="M223.87,15h13.86V33.52c0,1.89,0,3.51-1.57,4.64s-3.83,1.35-7.7,1.35a15.1,15.1,0,0,0-2.07-6.93,19.68,19.68,0,0,0,2.79.27c1.44,0,1.71-.32,1.71-1.62V21.37h-7V42.3h-6.79V21.37h-6.89V39.06h-6.88V15h13.77V11.65H200V5.53h17.1V1l7.15.27c.27,0,.68.14.68.54s-.59.76-1,.85V5.53H241v6.12H224.37c.27.09.54.27.54.54,0,.5-.63.72-1,.86Z"/>
          <path class="cls-1" d="M270.58,34.6c9.77-1.8,12.65-9.36,12.65-14,0-3.64-1.94-10.35-10.4-11-1.39,16.47-8.19,28.75-13,28.75-3.51,0-10-5.94-10-14.26,0-9.68,8.82-21,22-21,9.85,0,18.45,6.7,18.45,17.46A20.94,20.94,0,0,1,285,34.42c-2.75,3.2-5.94,4.86-9.77,6.53A29,29,0,0,0,270.58,34.6ZM256.5,23.49c0,3.46,1.93,6.07,2.88,6.07s1.93-2,2.43-3.19a39.38,39.38,0,0,0,3.46-15.48C260.05,12.82,256.5,19.44,256.5,23.49Z"/>
          <path class="cls-1" d="M311.58,33.52a47.54,47.54,0,0,0,11.65-6V22.32h-4.68a34.82,34.82,0,0,1,3.47,4.5A31.48,31.48,0,0,0,317.88,30a61,61,0,0,0-4.1-5.13l3.51-2.56h-3.82a10.07,10.07,0,0,0,.94,1.08,10.21,10.21,0,0,0-2.74,4.81,33.35,33.35,0,0,1-2-2.88V42.52h-5.89V27.94a26.11,26.11,0,0,1-2.25,4.59,16.7,16.7,0,0,0-4.23-4.09A39.93,39.93,0,0,0,303,14.26h-4.5V8.82h4.9V1.3l6.21.32c.5,0,1,.18,1,.67s-.63.68-1,.77V8.82h3.29v5.44h-3.29V15.7a24.53,24.53,0,0,0,3.51,6.3V17.46h10.08V15.79h-7.6V11.56h7.6V9.9h-9.67V5.35H318a18.06,18.06,0,0,0-2-2.88L321.25,0a39.47,39.47,0,0,1,2.93,4.59l-1.49.76h4.95a32.83,32.83,0,0,0,2.21-5l5.76,1.71c.54.18.9.36.9.67,0,.59-.59.64-1.35.64-.32.58-.36.71-1.08,2h5.22V9.9h-9.77v1.66h7.52v4.23h-7.52v1.67h10.71v4.86h-3.33l3.2,2.61a.87.87,0,0,1,.45.67c0,.68-.77.59-1.26.59a25.65,25.65,0,0,1-4.59,4.9A22,22,0,0,0,341.46,35,12,12,0,0,0,338,39.64a29.59,29.59,0,0,1-8.51-7v3.51c0,4.95-1.57,6.39-8.64,6.66a15.7,15.7,0,0,0-2.47-6.3,18,18,0,0,0,2.83.23c1.94,0,2-.5,2-1.62V33.43c-.9.54-3.87,2.34-8.1,4.5.05.27.14,1.44-.49,1.44s-.81-.58-1.08-1.21Zm17.95-8.64a15.43,15.43,0,0,0,1.85,2.79,29.16,29.16,0,0,0,4.14-5.35h-6Z"/>
          <path class="cls-1" d="M389.79,17.82v6.12h-17V36.36c0,2.88-.27,6.3-10.94,6-.49-4.23-1.48-5.81-2.16-6.84,1.44.09,2.3.18,3.15.18,3.06,0,3.06-.36,3.06-2.93V23.94H348.21V17.82h17.68V11.16l3.47.36a17.47,17.47,0,0,0,3.69-3.24H352.71v-6h29.47l3.24,3.33a49.17,49.17,0,0,1-12.64,11.57v.63Z"/>
        </g>
      </g>
    </g>
  </g>
</svg>
