<svg xmlns="http://www.w3.org/2000/svg" width="630" height="54.24"><path d="M0 49.24h630v5H0zm33.33-41.9V12H20.88v5.1h9.39v4.82h-9.39v6.55h13.57V33H1.55v-4.53h13.64v-6.55H5.58V17.1h9.61V12H2.74V7.34h13.78a18.93 18.93 0 00-4.86-3.78L15.19 0a30.5 30.5 0 016.88 5.15 25.72 25.72 0 00-2.42 2.19zm33.23 9.97v1.52h5.58v3.63h-5.58V24h5.58v3.64h-5.58v1.47h7.27V33H57.31v.57h-5.08V21.06l-1 1a12.35 12.35 0 00-1.73-2.56v14.08h-5.22V16.31l-1 1.18a8.66 8.66 0 00-3.67-3.7A38.43 38.43 0 0047.2.11l5 1.69v-.58l5.12.18a.47.47 0 01.54.51c0 .36-.29.54-.8.86v3.46h2.7V.29l5.37.32c.36 0 .54.22.54.47 0 .47-.54.61-.87.68v4.47h3V1.4l5.32.33c.44 0 .65.14.65.39 0 .44-.43.62-.9.83v7.2h-8.25l2.52 1.37a.66.66 0 01.39.57c0 .4-.5.54-1 .65-.15.25-.36.58-.58.9h7.71v3.67zm-17-.64a33.36 33.36 0 004.9-6.52h-2.2V2.88a3.09 3.09 0 01-.32.14c-.61 1.34-1 2.09-2.23 4.54.54.29.68.36.68.61s-.57.65-.83.76zm7.78.64v1.52h4.18v-1.52zm0 5.15V24h4.18v-1.54zm4.18 6.62v-1.47h-4.21v1.47zm-1.3-15.44a34.78 34.78 0 002-3.49h-4.48l1.66.85c.29.14.5.29.5.57s-.39.54-1 .62c-.4.64-.54.86-.9 1.47zM111 3.35a.72.72 0 01.36.47c0 .21-.18.39-.54.39-.14 0-.29 0-.61-.07-2.38 3.53-3.6 5.11-4.21 5.9h7.48v4.54h-11.57A31.3 31.3 0 0199.14 17h10.94v16.69h-5.18v-1.33H93v1.33h-5.2V23.61a39 39 0 01-4.89 1.8 16.46 16.46 0 00-2.81-5.07 41.9 41.9 0 0014.11-5.76H80.82V10h12.49V8.13h-10V3.67h10v-3L99 .86c.22 0 .58 0 .58.4s-.25.4-.9.65v1.76h4.25v2.45a34.84 34.84 0 003.23-5.47zm-6.1 19.54V21.2H93v1.69zm0 5.4v-1.65H93v1.65zM99.61 10c.32-.32.72-.75 1.69-1.91h-2.66V10zm41.07 23h-6.19V16.59a64.7 64.7 0 01-10 5.12 17.53 17.53 0 00-4.32-5.15c13.75-3.89 22.35-13.68 24.55-16.49l4.78 3.78a.84.84 0 01.44.69c0 .32-.29.46-.58.46a2.43 2.43 0 01-.72-.1 71.22 71.22 0 01-8 7.37zm18.91-15c2.55-2 3-2.52 8.89-9.43 2.88-3.46 4.75-3.57 5.61-3.57 1.77 0 3.1.94 4.83 3 7.56 8.93 9.75 11.52 15.19 15.91a29.93 29.93 0 00-3.78 5.22c-2-1.87-4-3.78-13.25-14.72a22.46 22.46 0 00-2.41-2.7 1.14 1.14 0 00-.76-.29c-.82 0-2 1.37-2.91 2.45-1.05 1.23-5.4 6.91-6.3 8.07a1.07 1.07 0 01.21.64.4.4 0 01-.43.4c-.25 0-.39-.11-.68-.43zm26.56-14.18a25.09 25.09 0 013.78 3.85 20.09 20.09 0 00-2.66 2.52 42.3 42.3 0 00-3.74-4zM189.9.5a36.76 36.76 0 013.56 3.82 30.7 30.7 0 00-2.52 2.56 35.27 35.27 0 00-3.67-4.18zm15.34 1.3c6 3.1 7.91 4.89 9 5.9-.86 1-1.11 1.44-3.49 4.9a37.13 37.13 0 00-9.07-5.76zm-3 24.87c10.26-2.12 20.38-9.07 26.78-19.36a23.27 23.27 0 003.71 4.89 47.75 47.75 0 01-11.19 12 60.41 60.41 0 01-14.83 8c0 .39-.18.79-.51.79s-.36-.11-.57-.51zM257 10.62c5.33 2.7 9.9 5.79 12.56 8.46-1.62 2.34-1.8 2.59-3.38 5a52.9 52.9 0 00-11.23-8V33h-6.05V1.22l6.09.29c.25 0 .68 0 .68.4s-.4.5-.68.57v11z" fill="#ff5064" data-name="レイヤー 2"/></svg>