<svg xmlns="http://www.w3.org/2000/svg" width="560" height="59.12"><path d="M0 54.12h560v5H0zM38.9 8.57V14H24.36v6h11v5.63h-11v7.65H40.2v5.33H1.81v-5.38h15.92v-7.65H6.51V20h11.22v-6H3.19V8.57h16.09a22 22 0 00-5.67-4.41L17.73 0a35.31 35.31 0 018 6 29.63 29.63 0 00-2.81 2.56zm38.76 11.64V22h6.51v4.24h-6.51V28h6.51v4.24h-6.51v1.72h8.49v4.58H66.87v.67h-5.93V24.57l-1.13 1.14a14.34 14.34 0 00-2-3v16.48h-6.15V19c-.34.42-.8 1-1.13 1.39-1.53-2.39-2.23-3.12-4.29-4.3 1.93-2.31 6.68-8.28 8.82-16l5.88 2v-.66l6 .21c.46 0 .63.25.63.59s-.34.63-.92 1v4h3.15V.34l6.2.37c.43.05.64.26.64.55 0 .55-.64.71-1 .8v5.21h3.53V1.64l6.22.36c.51 0 .76.16.76.46 0 .5-.51.71-1.05 1v8.41h-9.7l2.94 1.59a.79.79 0 01.46.67c0 .47-.59.63-1.22.76-.17.29-.42.67-.67 1.05h9v4.29zm-19.87-.76a39 39 0 005.72-7.6h-2.57V3.36c-.12 0-.25.13-.37.17C59.85 5.08 59.43 6 58 8.82c.63.34.8.42.8.72s-.67.75-1 .88zm9.08.76V22h4.87v-1.79zm0 6V28h4.87v-1.79zm4.87 7.73v-1.72h-4.87v1.72zm-1.51-18a42 42 0 002.35-4.07h-5.21l1.93 1c.34.17.59.34.59.67s-.46.63-1.22.72c-.46.75-.63 1-1 1.72zm59.3-12.03a.82.82 0 01.42.54c0 .26-.21.47-.63.47-.16 0-.33 0-.71-.09-2.77 4.12-4.2 6-4.92 6.89h8.74V17h-13.52a40.85 40.85 0 01-3.24 2.78h12.77v19.54h-6v-1.56h-13.9v1.56h-6V27.56a47.6 47.6 0 01-5.71 2.1 19.33 19.33 0 00-3.28-5.93c5.71-.92 12.69-4.24 16.47-6.72H94.29v-5.29h14.58V9.49H97.19V4.28h11.68V.76l6.59.25c.25 0 .67 0 .67.46s-.29.46-1 .76v2.05h5v2.86a41 41 0 003.73-6.38zm-7.14 22.81v-2h-13.9v2zm0 6.3v-1.93h-13.9V33zm-6.17-21.3c.38-.38.84-.88 2-2.23h-3.11v2.23zm47.92 26.76h-7.22V19.37a77.39 77.39 0 01-11.64 6 20.69 20.69 0 00-5-6c16-4.53 26-16 28.6-19.24l5.59 4.42a1 1 0 01.51.79c0 .38-.34.55-.68.55a2.57 2.57 0 01-.84-.13c-3 3.57-9 8.4-9.28 8.61zM186.19 21c3-2.31 3.52-2.94 10.37-11 3.36-4 5.55-4.12 6.55-4.12 2.06 0 3.62 1.09 5.63 3.44 8.82 10.42 11.39 13.45 17.73 18.57a35.41 35.41 0 00-4.41 6.09c-2.27-2.18-4.62-4.41-15.46-17.18a27.4 27.4 0 00-2.81-3.15 1.33 1.33 0 00-.89-.34c-1 0-2.31 1.6-3.4 2.86-1.22 1.43-6.3 8.07-7.35 9.41a1.24 1.24 0 01.25.76.47.47 0 01-.5.46c-.3 0-.46-.13-.8-.51zm31-16.51A30.36 30.36 0 01221.6 9a23.49 23.49 0 00-3.11 2.94 47.44 47.44 0 00-4.37-4.66zm4.37-3.9A41.64 41.64 0 01225.71 5a39.64 39.64 0 00-2.94 3 41.55 41.55 0 00-4.28-4.87zm17.88 1.51c7.06 3.61 9.24 5.71 10.5 6.89-1 1.22-1.3 1.68-4.07 5.71A43.4 43.4 0 00235.28 8zm-3.44 29c12-2.48 23.77-10.59 31.25-22.6a27.15 27.15 0 004.33 5.71 55.57 55.57 0 01-13.07 14 69.92 69.92 0 01-17.3 9.37c0 .46-.21.92-.59.92s-.42-.12-.67-.59zm63.88-18.71c6.22 3.15 11.56 6.77 14.66 9.87-1.89 2.73-2.1 3-4 5.89a61.54 61.54 0 00-13.1-9.33v19.7h-7.1V1.43l7.1.33c.29 0 .8.05.8.47s-.46.58-.8.67v12.85z" fill="#ff5064" data-name="レイヤー 2"/></svg>