<svg id="レイヤー_1" data-name="レイヤー 1" xmlns="http://www.w3.org/2000/svg" viewBox="0 0 580 50"><defs><style>.cls-1{fill:#ff5064;}.cls-2{fill:#fff;}</style></defs><title>アートボード 10</title><rect class="cls-1" width="580" height="50" rx="6"/><path class="cls-2" d="M128,14.81c-1.12,2.6-2,7.93-2,12.19,0,.91,0,2.45.1,3.64,0,.21,0,.26,0,.73v.49l.1,0a23.65,23.65,0,0,1,1.53-4.58,2.57,2.57,0,0,0,.21-.52l1.28.6A22.28,22.28,0,0,0,127,34.78a3,3,0,0,0,0,.52l-1.84.18c0-.24-.06-.37-.16-1a41.29,41.29,0,0,1-.73-7.73,44.25,44.25,0,0,1,1.35-10.68,12.09,12.09,0,0,0,.29-1.64Zm2.62,4.83a18.12,18.12,0,0,0,4.68.42c1,0,1.72,0,2.79-.08,0-2.44,0-2.44,0-4.42a6,6,0,0,0-.08-1.07h2a26.88,26.88,0,0,0-.18,4.09c0,.28,0,.7,0,1.27a17.89,17.89,0,0,0,4.5-1l.07,1.77L142.5,21a24.32,24.32,0,0,1-2.75.42c0,2.57.07,3.9.28,7.36a18.74,18.74,0,0,1,4.35,2.54l.64.45-.8,1.82a14.29,14.29,0,0,0-3.69-2.71,1.26,1.26,0,0,1-.26-.15l-.24-.16a3.25,3.25,0,0,1,.06.68,4.39,4.39,0,0,1-.32,1.76c-.62,1.38-2.21,2.19-4.34,2.19-3,0-4.91-1.43-4.91-3.69s2-3.7,4.94-3.7a7.38,7.38,0,0,1,2.88.52c-.08-.54-.18-3-.26-6.78-1.17.05-2,.08-3,.08s-2,0-2.94-.08a7.08,7.08,0,0,0-.83-.05,3.41,3.41,0,0,0-.44,0,1,1,0,0,0-.26,0h-.11Zm5,9.75c-2,0-3.36.86-3.36,2.16s1.2,2.11,3,2.11a3.59,3.59,0,0,0,2.65-.91,3,3,0,0,0,.49-2c0-.18,0-.78,0-.78A6.66,6.66,0,0,0,135.59,29.39Z"/><path class="cls-2" d="M155.29,14.81a39.24,39.24,0,0,0-.33,5.46c-.11,3.14-.19,6.65-.19,7.82,0,.32,0,1,.06,1.56a4.07,4.07,0,0,0,1.22,3.12,4.92,4.92,0,0,0,3.25,1,7.48,7.48,0,0,0,7-4.53,14.91,14.91,0,0,0,1.27-4.08,8.39,8.39,0,0,0,1.87,1.28c-1,3-1.74,4.55-2.88,5.9a9.16,9.16,0,0,1-7.34,3.22,6.13,6.13,0,0,1-4.88-1.82c-1.07-1.22-1.43-2.6-1.43-5.33,0-1.74,0-2.39.23-10.58,0-.78,0-1.25,0-1.69a8,8,0,0,0-.11-1.38Zm7.31.72a19.75,19.75,0,0,1,2.76,3.62L164,19.9a16.74,16.74,0,0,0-2.7-3.64Zm2.5-1.37a22.12,22.12,0,0,1,2.75,3.61l-1.35.76a17.68,17.68,0,0,0-2.7-3.64Z"/><path class="cls-2" d="M180.7,15.3a32.56,32.56,0,0,0,.7,4.53,12.29,12.29,0,0,1,5.56-1.3c.18,0,.5,0,.86,0a31,31,0,0,0,.81-4.18l2,.41a19.93,19.93,0,0,0-.71,2.73c-.13.44-.18.73-.31,1.22,4.32.81,6.89,3.64,6.89,7.57a8.17,8.17,0,0,1-2.83,6.24,13.72,13.72,0,0,1-5.25,2.57c-.39.11-.52.13-1.64.39a4.35,4.35,0,0,0-1-1.74,11.83,11.83,0,0,0,3.88-1,8.45,8.45,0,0,0,3.9-2.83,6.45,6.45,0,0,0,1.14-3.7c0-3.17-1.9-5.25-5.48-6a29.34,29.34,0,0,1-5.05,10.19c-1.66,2-3.12,3-4.63,3-2.26,0-3.74-2-3.74-5.09a9.36,9.36,0,0,1,1.51-5,9.85,9.85,0,0,1,2.6-2.65c-.18-.83-.5-2.37-.73-3.67a6.09,6.09,0,0,0-.34-1.38Zm-2.24,9.31a7.75,7.75,0,0,0-1,3.64c0,2.05.83,3.41,2.11,3.41.91,0,2-.78,3.19-2.21a36,36,0,0,1-2.44-7A7.79,7.79,0,0,0,178.46,24.61ZM183.92,28a4.8,4.8,0,0,1,.31-.58,29.44,29.44,0,0,0,3.17-7.35c-.28,0-.52,0-.65,0a9.63,9.63,0,0,0-5,1.33,36.64,36.64,0,0,0,1.95,6,3.72,3.72,0,0,1,.2.6Z"/><path class="cls-2" d="M201.55,17.72h.93c.37,0,.68,0,1.49-.08,3.09-.23,11.41-.7,14.76-.86a17.53,17.53,0,0,0,3.1-.28l.15,1.95a12.25,12.25,0,0,0-2.91.33,13.28,13.28,0,0,0-5,2.63,8,8,0,0,0-3.2,6,5.11,5.11,0,0,0,3.64,4.81,13.28,13.28,0,0,0,3.9.83h.26l-.34,2.11-.8-.16a13.12,13.12,0,0,1-5.62-2A6.34,6.34,0,0,1,209,27.7c0-3,1.76-5.9,4.86-8a17.36,17.36,0,0,1,2.47-1.38,50.33,50.33,0,0,1-5.72.57,79.09,79.09,0,0,0-9,.86Z"/><path class="cls-2" d="M233.61,25.68c-1.69,1.4-2.47,2.6-2.47,3.82s.75,2.05,2.21,2.55a16.77,16.77,0,0,0,4.75.52,24.57,24.57,0,0,0,7.8-1l.24,2.13a8,8,0,0,0-.89.13,42.38,42.38,0,0,1-7,.6,18.21,18.21,0,0,1-6-.81c-1.95-.8-3-2.13-3-3.92s1-3.33,3-5Zm-2.73-9.5a29.17,29.17,0,0,0,6.91.63,28.08,28.08,0,0,0,6.58-.55L244.5,18A37.77,37.77,0,0,0,238,21.93l-1.33-1.06c1.67-1.12,2.29-1.51,3.46-2.16l.65-.34c.18-.11.23-.11.49-.26a20.51,20.51,0,0,1-3.92.34,50.39,50.39,0,0,1-5.72-.34,6.51,6.51,0,0,0-.86-.08Zm13,4a19.86,19.86,0,0,1,2.65,3.46l-1.27.73a17.27,17.27,0,0,0-2.63-3.49Zm2.39-1.41a20.73,20.73,0,0,1,2.66,3.46l-1.28.73A16.86,16.86,0,0,0,245,19.49Z"/><path class="cls-2" d="M266.94,24.51a25.62,25.62,0,0,0,3.09-6l1.61.65a38.75,38.75,0,0,1-2.88,5.31h3.85a13.91,13.91,0,0,0,2.86-.19v1.85a22.74,22.74,0,0,0-2.92-.16h-7.22a26.49,26.49,0,0,0,3.43,3.62,24.16,24.16,0,0,0,7,4.39,7.32,7.32,0,0,0-1.12,1.61,27.73,27.73,0,0,1-6.55-4.42,23.42,23.42,0,0,1-3.67-4.36c.08,1.43.11,2.13.11,2.8v4.66a13.94,13.94,0,0,0,.18,2.52h-2a14.16,14.16,0,0,0,.18-2.52V29.65c0-.78,0-1.22.11-2.78a21,21,0,0,1-4.89,5.59,30,30,0,0,1-4.65,3.17,6.74,6.74,0,0,0-1.17-1.5,27,27,0,0,0,7.22-5.07,23.07,23.07,0,0,0,2.66-3h-6.79a27.41,27.41,0,0,0-2.86.16V24.32a17.74,17.74,0,0,0,2.83.19h7.54V17.69h-6.21a22.37,22.37,0,0,0-2.78.16V16a18.53,18.53,0,0,0,2.83.18h6.16v-.86a13.76,13.76,0,0,0-.15-2.15h1.92a9.73,9.73,0,0,0-.15,2.15v.86h6.63a14.63,14.63,0,0,0,2.88-.18v1.82a19.37,19.37,0,0,0-2.83-.16h-6.68v6.82Zm-9.47-6a32,32,0,0,1,2.58,4.81l-1.46.75a25,25,0,0,0-2.52-4.89Z"/><path class="cls-2" d="M281.68,16.34a19.64,19.64,0,0,0-.16-2.86h1.93a17.7,17.7,0,0,0-.16,2.89V20h.63a15.05,15.05,0,0,0,2.15-.1v1.67a19.73,19.73,0,0,0-2.15-.11h-.63v6.68a22.39,22.39,0,0,0,2.21-1.32l.11,1.56a49.49,49.49,0,0,1-5.41,2.94c-.42.18-1.15.54-1.38.67l-.49-1.82a13.2,13.2,0,0,0,3.35-1.27V21.41h-1.12a18.4,18.4,0,0,0-2.21.13V19.83a15.17,15.17,0,0,0,2.26.12h1.07ZM289,28.22a16.58,16.58,0,0,1-4.37,3.46,4.46,4.46,0,0,0-1.07-1.17c3.07-1.56,5-3.3,6-5.48H288a13.2,13.2,0,0,0-2.34.15V23.49a12.15,12.15,0,0,0,2.39.16h11.1a14.21,14.21,0,0,0,2.58-.16v1.64a21.93,21.93,0,0,0-2.58-.1H291.2a13.21,13.21,0,0,1-1.2,1.89h8.61a20,20,0,0,0,2.54-.1,14.1,14.1,0,0,0-.13,1.53c-.2,3.07-.67,6-1.14,6.95s-1.12,1.19-2.89,1.19c-.59,0-1.45-.05-2.26-.1a4.49,4.49,0,0,0-.52-1.69,17.74,17.74,0,0,0,3.1.28c1,0,1.22-.2,1.56-1.76a32,32,0,0,0,.57-5H297.7a15.34,15.34,0,0,1-2.32,3.93,26.14,26.14,0,0,1-3.2,3.2,19.81,19.81,0,0,1-2.1,1.45,4.48,4.48,0,0,0-1.2-1.22,16.58,16.58,0,0,0,5.1-3.95,12.72,12.72,0,0,0,2.13-3.41h-2.57a18,18,0,0,1-7.15,6.5,4,4,0,0,0-1.12-1.22,14.83,14.83,0,0,0,6.58-5.28Zm.83-6.29a20.12,20.12,0,0,0-2.37.1,19.34,19.34,0,0,0,.11-2.33V16.32a16.91,16.91,0,0,0-.11-2.29,17.36,17.36,0,0,0,2.5.13h6.78a19.74,19.74,0,0,0,2.71-.13,18.72,18.72,0,0,0-.1,2.42V19.7a15.2,15.2,0,0,0,.1,2.31c-.57-.05-1.38-.08-2.39-.08Zm-.73-4.52h8.71v-1.9h-8.71Zm0,3.25h8.71v-2h-8.71Z"/><path class="cls-2" d="M308.72,16.47a19,19,0,0,0-.18,3.1,44.49,44.49,0,0,0,.67,8.08c.58,2.65,1.64,4.45,2.63,4.45.47,0,.91-.44,1.3-1.3a18.72,18.72,0,0,0,1.35-4.45A8,8,0,0,0,316,27.83c-1.28,4.55-2.47,6.3-4.32,6.3-1.46,0-2.81-1.46-3.69-4s-1.28-5.79-1.41-12.19a13.48,13.48,0,0,0-.07-1.53Zm12.56,1.38A22.76,22.76,0,0,1,325,23.78,25.2,25.2,0,0,1,327,30.72l-1.85.75a23,23,0,0,0-5.41-12.81Z"/><path class="cls-2" d="M331.89,18.55a17.6,17.6,0,0,0,3.25.23c.52,0,.8,0,1.56-.05a25.36,25.36,0,0,0,.57-4.78l2.05.21c-.15.62-.15.62-.47,2.47-.13.83-.2,1.19-.33,2a20.89,20.89,0,0,0,4.68-.88l.13,1.79-.73.13a38.52,38.52,0,0,1-4.4.63c-.39,2.05-1.11,5-1.82,7.36a67.38,67.38,0,0,1-3,7.93l-1.89-.81a52.28,52.28,0,0,0,4.88-14.38c-.52,0-.83,0-1.79,0s-1.14,0-2.16,0h-.1l-.44,0ZM343.51,28a7.78,7.78,0,0,0-.78,1,3.08,3.08,0,0,0-.65,1.84c0,1.56,1.58,2.4,4.55,2.4a19.38,19.38,0,0,0,5.75-.89l.18,2-1.15.18a25.38,25.38,0,0,1-4.63.45c-4.26,0-6.47-1.33-6.47-3.9,0-1.17.36-2,1.74-3.75Zm8-4.5a26,26,0,0,0-3.07-.18,22.66,22.66,0,0,0-6.5.88l-.18-1.76a29.52,29.52,0,0,1,6.89-.86c.5,0,.89,0,2.84.08Z"/><path class="cls-2" d="M357.65,18.55a17.6,17.6,0,0,0,3.25.23c.52,0,.81,0,1.56-.05A25.36,25.36,0,0,0,363,14l2.06.21a22.07,22.07,0,0,0-.47,2.47c-.13.83-.21,1.19-.34,2a20.77,20.77,0,0,0,4.68-.88l.13,1.79-.73.13a38.35,38.35,0,0,1-4.39.63c-.39,2.05-1.12,5-1.82,7.36a69.2,69.2,0,0,1-3,7.93l-1.9-.81a52,52,0,0,0,4.89-14.38c-.52,0-.83,0-1.79,0s-1.15,0-2.16,0h-.11l-.44,0ZM369.27,28a8.91,8.91,0,0,0-.78,1,3.15,3.15,0,0,0-.65,1.84c0,1.56,1.59,2.4,4.55,2.4a19.33,19.33,0,0,0,5.75-.89l.18,2-1.14.18a25.38,25.38,0,0,1-4.63.45c-4.26,0-6.47-1.33-6.47-3.9,0-1.17.36-2,1.74-3.75Zm8-4.5a26.16,26.16,0,0,0-3.07-.18,22.66,22.66,0,0,0-6.5.88l-.18-1.76a29.4,29.4,0,0,1,6.89-.86c.49,0,.88,0,2.83.08Zm-4.19-9.12A17.75,17.75,0,0,1,375.67,18l-1.33.73a16.79,16.79,0,0,0-2.49-3.64Zm2.58-1.28a18.36,18.36,0,0,1,2.52,3.61l-1.3.73a18,18,0,0,0-2.52-3.64Z"/><path class="cls-2" d="M398.91,15.28c-.28.23-.49.41-3.19,3-1.3,1.22-2.71,2.39-6,4.92-1,.72-1.15.93-1.15,1.3s.21.65,2.32,2.28a78.38,78.38,0,0,1,8.32,7.1,6.82,6.82,0,0,0,.72.65l-1.63,1.61A25.24,25.24,0,0,0,395,32.59c-1.74-1.61-2.78-2.47-6.58-5.43-1.45-1.15-1.87-1.72-1.87-2.6a2.48,2.48,0,0,1,.76-1.74,17.55,17.55,0,0,1,2.21-1.77c3.45-2.65,6.7-5.7,7.61-7.13Z"/><path class="cls-2" d="M418.91,15.66a14.64,14.64,0,0,0-.18-2.28h2.08a12,12,0,0,0-.16,2.28v2h8a18.2,18.2,0,0,0,3-.19v1.95a16.41,16.41,0,0,0-2.94-.15H418.8a34.8,34.8,0,0,1-.36,3.72h7.1a17,17,0,0,0,2.68-.13c-.05.52-.08.8-.13,1.82a55.28,55.28,0,0,1-1,8.86c-.55,2.24-1.17,2.78-3.25,2.78a35.18,35.18,0,0,1-3.62-.23,5.52,5.52,0,0,0-.41-1.85,20.74,20.74,0,0,0,3.92.42c1.12,0,1.38-.31,1.77-2.24a50.45,50.45,0,0,0,.81-7.87h-8.17a17.35,17.35,0,0,1-2.47,6.65,16.34,16.34,0,0,1-3.22,3.59,15.74,15.74,0,0,1-2.83,1.9,5.06,5.06,0,0,0-1.28-1.46A13.43,13.43,0,0,0,413.63,31c2.13-2.76,3.15-6.29,3.35-11.75h-5.46a21,21,0,0,0-2.91.15V17.43a17.36,17.36,0,0,0,2.89.19h7.41Z"/><path class="cls-2" d="M434.59,26.48a31.71,31.71,0,0,0,5.22-5.8,12.66,12.66,0,0,1,1.3-1.56,2.72,2.72,0,0,1,4.32.18c.26.24.7.73,1.9,2.11a68.71,68.71,0,0,0,8.24,8,8.51,8.51,0,0,0,2.08,1.35L456.76,33a3.93,3.93,0,0,0-.62-.55c-1.61-1.27-4.58-3.92-6.32-5.64-1.53-1.56-2.52-2.63-5-5.56-.7-.81-1.12-1.12-1.56-1.12s-.81.21-2.06,1.87c-1.53,2-2.88,3.69-4.55,5.54-.46.52-.52.57-.75.86Z"/><polygon class="cls-2" points="16 21 32 21 24 29 16 21"/></svg>