<svg xmlns="http://www.w3.org/2000/svg" width="163.14" height="30"><path d="M28.76 17.82c-.67.58-1.87 1.83-1.87 2.62 0 1.73 3.29 1.73 4.29 1.73a33.73 33.73 0 009.63-1.44 18 18 0 00.62 4.08 36.36 36.36 0 01-9.38 1.1c-3.75 0-5.23-.41-6.41-.89-.77-.31-3.05-1.44-3.05-3.86s2.5-4.73 3.48-5.62zm10.08-7.89a16.67 16.67 0 00-6.05 3.91c-.86-.75-1.77-1.51-2.52-2.06.89-.82 1.11-1 1.8-1.57-1.49.12-5.52.34-7.56.29l-.19-4a48.3 48.3 0 006 .32A45.38 45.38 0 0037 6.25zm1.06-3.75a17.25 17.25 0 012.18 2.52 9.65 9.65 0 00-1.41 1.73 26.19 26.19 0 00-2.31-2.66zm1.85-2A26.76 26.76 0 0144 6.49a9.56 9.56 0 00-1.53 1.64 21.26 21.26 0 00-2.09-2.36zm15.98 22.76h-3.46v-6.4a23.83 23.83 0 01-7 6.12 8.22 8.22 0 00-3.07-2.38 20.55 20.55 0 007.7-6.14H45V15h4.49a19.19 19.19 0 00-1.92-3.56l1.73-1h-3.21V7.38h8.18V4.93l3.6.22c.29 0 .53 0 .53.36s-.48.41-.67.46v1.41h8.14v3.12h-3.12l1.46.63c.17.07.24.16.24.29 0 .31-.29.36-.48.4A22 22 0 0162.46 15H67v3.12h-7.13a18.65 18.65 0 007.46 5.8 11.12 11.12 0 00-2.54 2.6 18.83 18.83 0 01-7.06-6.15zM54.27 15v-4.5h-3.09a13.53 13.53 0 012 3.7 11.92 11.92 0 00-1.83.82zm3.46-4.52V15h2.78a16.36 16.36 0 00-1.65-.87 18.78 18.78 0 001.82-3.65zm21.55 9.77a16.5 16.5 0 01-2.83 2.9 6.18 6.18 0 00-2.26-1.61c.43-.33.79-.6 1.35-1.08-1.49.65-3.32 1.35-5.26 2 0 .28-.1.62-.36.62s-.34-.31-.38-.55l-.82-3.39a17.74 17.74 0 002.71-.5v-5.45H69v-3.12h2.47v-5l3.53.2c.29 0 .51.05.51.26s-.15.29-.51.46v4.08h2.14v3.12H75v4.37c.58-.24.94-.38 1.52-.65h-.17v-2.42h14.52v2.42h-9.29l-.45.77h9.58c0 2.42-.08 7.22-1.64 8.45-.91.72-2.44.79-4 .79a7 7 0 00-.64-2.59 19 19 0 01-2.86 3 6.07 6.07 0 00-2.55-1.54 16.68 16.68 0 005.07-5.54h-1.04a16.84 16.84 0 01-6.31 6.36 6.18 6.18 0 00-2.12-1.92 14.73 14.73 0 005.6-4.44zm-2.18-3.34a9.74 9.74 0 00-.17 2.14 15.17 15.17 0 001.46-2.14zm12.09-3.21H78V5.25h11.19zM86 8.56v-.82h-4.78v.82zm-4.73 1.92v.81H86v-.81zm5.67 9.77A26.2 26.2 0 0185 23.58a8 8 0 00.84.05c.48 0 .92-.05 1.08-.6a11.81 11.81 0 00.44-2.78zm17.37 2.57c5.21-1 6.75-5 6.75-7.49a5.68 5.68 0 00-5.55-5.88c-.74 8.78-4.37 15.33-6.91 15.33-1.87 0-5.35-3.16-5.35-7.6A11.78 11.78 0 01105 6c5.26 0 9.84 3.58 9.84 9.31a11.21 11.21 0 01-2.84 7.41 13.4 13.4 0 01-5.21 3.48 15.37 15.37 0 00-2.48-3.38zm-7.51-5.93c0 1.85 1 3.24 1.54 3.24s1-1.08 1.29-1.71a20.9 20.9 0 001.85-8.25c-2.78 1.03-4.68 4.56-4.68 6.72zm20.9-6.46a22.9 22.9 0 014.64 2.45 23.55 23.55 0 00-1.56 3 43.87 43.87 0 00-4.56-2.43zm-1.48 14.21a38 38 0 004.89-8 12.85 12.85 0 002.52 2.21 52.28 52.28 0 01-3.79 7.15c0 .22.07.41.07.53s-.09.31-.24.31a.79.79 0 01-.36-.14zm4-19.92a34.36 34.36 0 013.93 2.45 31.54 31.54 0 00-1.8 2.95 33 33 0 00-3.93-2.57zm18.31 3.89v3.05h-5.78v3.57h4.53v3.27h-4.53v4.58h6.14v3.34H123.1v-3.34h6.05V18.5h-4.46v-3.27h4.46v-3.57h-5.42V8.61H129a20.82 20.82 0 00-2.07-1.9l3-2.21a27.64 27.64 0 013.55 3.31 12.81 12.81 0 00-1.22.8zm7.95 13.89c.24.12.5.27.5.51s-.55.33-.76.33a28.49 28.49 0 01-2.6 3.58 6.9 6.9 0 00-2.73-1.7 17.17 17.17 0 002.93-4.16zM161.7 6.18v2.55h-3c0 .28-.38.33-.72.36a6.25 6.25 0 01-.31.64h5.47v2.6h-22.08v-2.6h5.11c-.12-.19-.31-.48-.48-.72l1.13-.28h-4.44V6.18h7.75V4.69l3.72.2c.14 0 .38.07.38.24s-.14.31-.38.45v.6zm-9.89 14.64h-7.44v-7.63h15.29v7.63h-6a17.81 17.81 0 011.37 1.78c-.24.17-2 1.27-2.35 1.49a13.79 13.79 0 00-1.9-2.67zm-1.75.7c.4.05.72.1.72.31s-.17.24-.6.36v1.39c0 .72.45.77.88.77h3.15c.86 0 1.22-.86 1.51-2a7.39 7.39 0 002.83 1.42c-.4 1.56-.84 3.19-3.57 3.19h-5.48c-2 0-2.42-.72-2.42-2.14v-3.59zm6.21-5.38v-1h-8.4v1zm-8.4 1.71v1h8.4v-1zm1.49-9.12l.65 1h3.77c.26-.52.31-.6.48-1zm10.83 12.14a19.82 19.82 0 012.95 3.79 15.13 15.13 0 00-2.52 1.78 27.28 27.28 0 00-2.93-4.06zM0 0h10v30H0z" fill="#ff5064" data-name="レイヤー 2"/></svg>