<svg height="83" viewBox="0 0 418.625 83" width="418.625" xmlns="http://www.w3.org/2000/svg"><path d="m372.337 864.662v11.2h10.083v14.465h13.612v-41.627h-13.612v15.965h-10.083zm4.538 15.259c-11.428-3.263-15.965-10.5-16.805-17.729h14.116v-11.114h-42.516v11.114h14.2c-.84 7.409-5.714 15.524-17.645 19.4l6.3 11.114a29.039 29.039 0 0 0 18.575-15.254c3.361 6.262 9.074 11.2 17.477 13.583zm-20.166 39.779v-2.823h39.323v-23.637h-52.851v10.76h39.407v2.735h-39.323v23.815h54.7v-10.85zm99.924-30.6c-12.52-3.793-16.973-12.349-17.393-20.376h14.368v-11.03h-14.536v-8.38h-13.612v8.38h-14.452v11.025h14.452c-.5 8.733-4.957 17.729-17.561 21.7l6.638 11.113a28.61 28.61 0 0 0 17.9-15.171 29.477 29.477 0 0 0 17.813 13.848zm-23.359 15.43h-13.612v25.67h54.2v-11.2h-40.588zm38.231-32.106v-23.724h-13.612v61.39h13.612v-26.111h9.831v-11.555zm62.326-6.351h5.377v21.346c-1.848.088-3.529.176-5.377.264zm25.879 19.582c-2.352.352-4.957.617-7.478.882v-20.464h5.378v-11.2h-42.181v11.2h5.378v21.875h-7.307l1.26 11.378c12.94 0 30.585-.352 45.878-3.351zm-21.09 18.345h-13.612v26.2h54.2v-11.2h-40.588zm38.231-32.9v-22.491h-13.612v61.037h13.612v-26.99h9.831v-11.556zm32.923-3.528h6.554v32.988h-6.554v-32.987zm-12.6 44.014h31.677v-55.04h-31.681v55.04zm53.356-62.978v30.96h-4.538v-29.813h-12.6v78.15h12.6v-37.046h4.538v40.4h12.855v-82.65h-12.859zm32.024 34.752c15.628-1.235 24.535-6.88 28.568-14.112 4.033 7.232 12.94 12.877 28.568 14.112l4.621-11.025c-14.032-1.147-20.333-5.292-22.6-9.35h18.737v-11.113h-58.571v11.114h18.654c-2.353 4.058-8.655 8.2-22.6 9.35zm42.18 32.989c0 3.263-4.285 4.5-13.78 4.5-9.579 0-13.864-1.235-13.864-4.5 0-3.352 4.285-4.5 13.864-4.5 9.491.002 13.776 1.151 13.776 4.501zm22.1-19.582v-11.112h-71.42v11.113h28.9v4.587c-13.192 1.323-21.006 6.615-21.006 15 0 9.7 10.5 15.259 27.644 15.259 17.057 0 27.56-5.557 27.56-15.259 0-8.291-7.646-13.5-20.586-14.907v-4.675h28.9z" fill="#fff" fill-rule="evenodd" transform="translate(-328.219 -848.594)"/></svg>