<svg id="on_release_04_sp.svg" xmlns="http://www.w3.org/2000/svg" width="254.219" height="81.38" viewBox="0 0 254.219 81.38">
  <defs>
    <style>
      .cls-1 {
        fill: #fff;
        fill-rule: evenodd;
      }
    </style>
  </defs>
  <path id="절찬_배포_중" data-name="절찬 배포 중" class="cls-1" d="M44.972,2002.44v6.72h6.049v8.68h8.166v-24.97H51.021v9.57H44.972Zm2.722,9.16c-6.855-1.96-9.577-6.3-10.081-10.64h8.468v-6.66H20.575v6.66h8.519c-0.5,4.45-3.428,9.32-10.586,11.64l3.781,6.67a17.4,17.4,0,0,0,11.14-9.15,16.544,16.544,0,0,0,10.485,8.14Zm-12.1,23.86v-1.69H59.187v-14.18H27.481v6.45H51.122v1.64H27.531v14.29H60.347v-6.51H35.6Zm58.05-18.36c-7.511-2.27-10.182-7.41-10.434-12.22h8.62v-6.61H83.111v-5.03H74.945v5.03h-8.67v6.61h8.67c-0.3,5.24-2.974,10.63-10.535,13.01l3.982,6.67a17.153,17.153,0,0,0,10.737-9.1,17.7,17.7,0,0,0,10.686,8.31Zm-14.013,9.26H71.467v15.4H103.98v-6.72H79.633v-8.68Zm22.936-19.26v-14.23H94.4v36.82h8.166v-15.66h5.9v-6.93h-5.9Zm34.5,17.25h-3.882V2014.3h3.882v10.05Zm0-16.61h-3.882V1997.1h-7.611v33.97h19V1997.1h-7.51v10.64Zm20.515-14.92v18.57h-2.722V1993.5H147.3v46.88h7.561v-22.22h2.722v24.28h7.713v-49.62H157.58Zm30.024,10.42h8.418v12.96H187.6v-12.96Zm8.317,27.14v-7.51h13.963v-6.67h-5.746v-12.96h5.948v-6.72H173.54v6.72h5.948v12.96h-5.646v6.67h13.913v7.51H170.516v6.83h42.846v-6.83H195.921Zm38.226-16.72c9.376-.74,14.719-4.13,17.139-8.46,2.419,4.33,7.763,7.72,17.138,8.46l2.773-6.61c-8.418-.69-12.2-3.18-13.56-5.61h11.241v-6.67H233.744v6.67h11.19c-1.411,2.43-5.192,4.92-13.559,5.61Zm25.305,19.79c0,1.96-2.571,2.7-8.267,2.7-5.747,0-8.317-.74-8.317-2.7,0-2.01,2.57-2.7,8.317-2.7C256.881,2030.75,259.452,2031.44,259.452,2033.45Zm13.257-11.75v-6.66H229.862v6.66H247.2v2.76c-7.914.79-12.6,3.96-12.6,8.99,0,5.82,6.3,9.15,16.584,9.15,10.233,0,16.534-3.33,16.534-9.15,0-4.97-4.587-8.1-12.35-8.94v-2.81h17.34Z" transform="translate(-18.5 -1992.81)"/>
  <path id="for_iOS_Android" data-name="for iOS／Android" class="cls-1" d="M29.279,2062.81v-3.05H26.81v-0.18c0-.96.311-1.26,1.328-1.26h1.141v-3.03H27.972c-3.008,0-4.356,1-4.356,4.14v0.33h-1.68v3.05h1.68v9.99H26.81v-9.99h2.469Zm6.029-3.23c-2.842,0-4.937,1.66-4.937,4.41v4.51c0,2.75,1.95,4.43,4.813,4.43,2.842,0,4.9-1.66,4.9-4.43v-4.51C40.079,2061.26,38.149,2059.58,35.307,2059.58Zm-0.041,3.06c1.037,0,1.639.63,1.639,1.89v3.49a1.62,1.62,0,0,1-1.68,1.88c-1.058,0-1.66-.61-1.66-1.88v-3.49A1.624,1.624,0,0,1,35.266,2062.64Zm9,2.76c0-1.78.581-2.76,2.386-2.76h0.56v-3.06H46.987a3.522,3.522,0,0,0-3.008,1.4l-0.166-1.22H41.075v13.04h3.195v-7.4Zm14.352-10.11H55.343v3.22h3.278v-3.22Zm-0.041,4.47H55.385v13.04H58.58v-13.04Zm8.163-4.6c-3.029,0-5.58,1.83-5.58,5.38v7.09c0,3.55,2.614,5.3,5.518,5.3,3.029,0,5.56-1.83,5.56-5.39v-7.09C72.24,2056.9,69.647,2055.16,66.743,2055.16Zm-0.062,3.31c1.473,0,2.323.89,2.323,2.6v5.88c0,1.7-.788,2.71-2.261,2.71-1.494,0-2.323-1.01-2.323-2.71v-5.88C64.419,2059.39,65.228,2058.47,66.68,2058.47Zm10.294,1.29c0-.9.477-1.55,1.784-1.55,1.39,0,1.826.96,1.909,2.11H83.9c-0.187-3.09-1.514-5.16-5.1-5.16-3.049,0-5.082,1.5-5.082,4.62,0,5.04,7.157,5.76,7.157,8.39,0,1.18-.705,1.73-2.116,1.73-1.473,0-2.033-.77-2.137-2.56H73.365c0.166,3.34,1.535,5.59,5.435,5.59,3.174,0,5.352-1.57,5.352-4.8C84.152,2063.05,76.975,2062.42,76.975,2059.76Zm8.349,14.43,18.691-19.64-0.6-.64-18.691,19.65Zm26.214-1.39h3.278l-4.232-17.51h-4l-4.315,17.51h3.174l0.706-2.99h4.709Zm-4.709-5.87,1.7-7.22,1.66,7.22h-3.361Zm12.236-2.25c0-1.59.56-2.07,1.867-2.07,1.141,0,1.431.77,1.431,1.9v8.29h3.2v-9.03c0-2.79-1.224-4.19-3.713-4.19a3.736,3.736,0,0,0-3.091,1.31l-0.145-1.13H115.87v13.04h3.195v-8.12Zm15.432,8.12h2.863v-17.51h-3.2v4.9a3.855,3.855,0,0,0-2.323-.63,3.939,3.939,0,0,0-4.19,4.27v4.74c0,2.76,1.555,4.36,4.066,4.36a3.323,3.323,0,0,0,2.655-1.03Zm-2.012-2.9a1.575,1.575,0,0,1-1.639-1.84v-3.68a1.547,1.547,0,0,1,1.66-1.77,1.494,1.494,0,0,1,1.659,1.75v3.7A1.612,1.612,0,0,1,132.485,2069.9Zm10.968-4.5c0-1.78.581-2.76,2.386-2.76h0.56v-3.06h-0.228a3.52,3.52,0,0,0-3.008,1.4L143,2059.76h-2.739v13.04h3.195v-7.4Zm9.678-5.82c-2.842,0-4.937,1.66-4.937,4.41v4.51c0,2.75,1.95,4.43,4.812,4.43,2.842,0,4.9-1.66,4.9-4.43v-4.51C157.9,2061.26,155.973,2059.58,153.131,2059.58Zm-0.042,3.06c1.038,0,1.639.63,1.639,1.89v3.49a1.62,1.62,0,0,1-1.68,1.88c-1.058,0-1.66-.61-1.66-1.88v-3.49A1.624,1.624,0,0,1,153.089,2062.64Zm9.033-7.35h-3.278v3.22h3.278v-3.22Zm-0.042,4.47h-3.194v13.04h3.194v-13.04Zm9.224,13.04h2.862v-17.51h-3.194v4.9a3.859,3.859,0,0,0-2.324-.63,3.939,3.939,0,0,0-4.19,4.27v4.74c0,2.76,1.556,4.36,4.066,4.36a3.321,3.321,0,0,0,2.655-1.03Zm-2.013-2.9a1.574,1.574,0,0,1-1.638-1.84v-3.68a1.546,1.546,0,0,1,1.659-1.77,1.494,1.494,0,0,1,1.66,1.75v3.7A1.612,1.612,0,0,1,169.291,2069.9Z" transform="translate(-18.5 -1992.81)"/>
</svg>
