<svg id="on_release_04.svg" xmlns="http://www.w3.org/2000/svg" width="423.906" height="128.97" viewBox="0 0 423.906 128.97">
  <defs>
    <style>
      .cls-1 {
        fill: #fff;
        fill-rule: evenodd;
      }
    </style>
  </defs>
  <path id="절찬_배포_중" data-name="절찬 배포 중" class="cls-1" d="M368.257,2032.63v11.21h10.086v14.47h13.615v-41.65H378.343v15.97H368.257Zm4.538,15.27c-11.43-3.27-15.969-10.5-16.809-17.74h14.12v-11.11H327.577v11.11h14.2c-0.841,7.41-5.716,15.53-17.651,19.41l6.3,11.12a29.047,29.047,0,0,0,18.575-15.26c3.362,6.26,9.077,11.2,17.482,13.59Zm-20.171,39.79v-2.82h39.334v-23.65H339.092v10.77h39.419v2.73H339.176v23.82h54.715v-10.85H352.624Zm97.36-30.62c-12.523-3.79-16.978-12.35-17.4-20.38h14.372v-11.03h-14.54v-8.38H418.8v8.38H404.346v11.03H418.8c-0.5,8.74-4.959,17.74-17.566,21.71l6.64,11.12a28.644,28.644,0,0,0,17.9-15.18,29.505,29.505,0,0,0,17.818,13.85Zm-23.365,15.45H413v25.67h54.211v-11.2H426.619v-14.47Zm38.242-32.12v-23.74H451.245v61.41h13.616v-26.11h9.833V2040.4h-9.833Zm56.966,28.76h-6.472V2052.4h6.472v16.76Zm0-27.7h-6.472v-17.74H502.664v56.65H534.35v-56.65H521.827v17.74Zm34.207-24.89v30.98H551.5v-29.83H538.889v78.18H551.5v-37.06h4.538v40.5h12.86v-82.77h-12.86Zm50.655,17.39h14.036v21.61H606.689v-21.61Zm13.868,45.26v-12.53h23.281v-11.12h-9.581v-21.61h9.917v-11.21H583.24v11.21h9.917v21.61h-9.413v11.12h23.2v12.53H578.2v11.38h71.441v-11.38H620.557Zm63.186-27.88c15.633-1.24,24.542-6.88,28.576-14.12,4.034,7.24,12.943,12.88,28.576,14.12l4.623-11.03c-14.036-1.15-20.34-5.29-22.609-9.35h18.743v-11.12H683.07v11.12h18.659c-2.353,4.06-8.657,8.2-22.609,9.35Zm42.192,33c0,3.26-4.287,4.5-13.784,4.5-9.582,0-13.868-1.24-13.868-4.5,0-3.35,4.286-4.5,13.868-4.5C721.648,2079.84,725.935,2080.99,725.935,2084.34Zm22.105-19.59v-11.12H676.6v11.12h28.912v4.59c-13.195,1.32-21.012,6.62-21.012,15,0,9.7,10.506,15.26,27.652,15.26,17.062,0,27.568-5.56,27.568-15.26,0-8.3-7.649-13.5-20.592-14.91v-4.68H748.04Z" transform="translate(-324.125 -2016.56)"/>
  <path id="for_iOS_Android" data-name="for iOS／Android" class="cls-1" d="M341.111,2125.81v-5.29h-4.282v-0.3c0-1.66.54-2.19,2.3-2.19h1.979v-5.26h-2.267c-5.217,0-7.556,1.74-7.556,7.18v0.57h-2.914v5.29h2.914v17.31h5.541v-17.31h4.282Zm10.29-5.59c-4.929,0-8.563,2.87-8.563,7.63v7.83c0,4.76,3.382,7.67,8.348,7.67,4.929,0,8.491-2.87,8.491-7.67v-7.83C359.677,2123.13,356.331,2120.22,351.4,2120.22Zm-0.071,5.29c1.8,0,2.842,1.1,2.842,3.29v6.05c0,2.11-1.08,3.25-2.914,3.25s-2.879-1.06-2.879-3.25v-6.05C348.379,2126.64,349.459,2125.51,351.33,2125.51Zm15.431,4.8c0-3.1,1.007-4.8,4.138-4.8h0.971v-5.29h-0.4a6.089,6.089,0,0,0-5.217,2.42l-0.288-2.12H361.22v22.6h5.541v-12.81Zm24.633-17.54H385.71v5.6h5.684v-5.6Zm-0.072,7.75h-5.541v22.6h5.541v-22.6Zm14.03-7.97c-5.253,0-9.679,3.17-9.679,9.33v12.29c0,6.16,4.534,9.18,9.571,9.18,5.253,0,9.643-3.17,9.643-9.34v-12.28C414.887,2115.57,410.389,2112.55,405.352,2112.55Zm-0.108,5.74c2.555,0,4.03,1.55,4.03,4.5v10.2c0,2.95-1.367,4.69-3.922,4.69-2.591,0-4.03-1.74-4.03-4.69v-10.2C401.322,2119.88,402.726,2118.29,405.244,2118.29Zm17.619,2.23c0-1.55.827-2.68,3.094-2.68,2.41,0,3.166,1.66,3.31,3.66h5.613c-0.324-5.36-2.627-8.95-8.851-8.95-5.289,0-8.815,2.6-8.815,8.01,0,8.73,12.413,9.98,12.413,14.55,0,2.04-1.224,2.99-3.67,2.99-2.555,0-3.526-1.33-3.706-4.43H416.6c0.288,5.79,2.663,9.68,9.427,9.68,5.5,0,9.282-2.72,9.282-8.32C435.311,2126.23,422.863,2125.13,422.863,2120.52Zm14.238,25.02,32.418-34.05-1.044-1.1-32.417,34.06Zm45.073-2.42h5.684l-7.339-30.35h-6.945l-7.483,30.35h5.5l1.223-5.17h8.167Zm-8.168-10.16,2.951-12.51,2.878,12.51h-5.829Zm20.983-3.9c0-2.76.971-3.59,3.238-3.59,1.979,0,2.482,1.33,2.482,3.29v14.36h5.541v-15.64c0-4.84-2.122-7.26-6.44-7.26a6.464,6.464,0,0,0-5.361,2.27l-0.252-1.97h-4.749v22.6h5.541v-14.06Zm26.53,14.06h4.965v-30.35h-5.541v8.51a6.66,6.66,0,0,0-4.029-1.1c-4.246,0-7.268,2.65-7.268,7.41v8.2c0,4.8,2.7,7.56,7.052,7.56a5.772,5.772,0,0,0,4.605-1.78Zm-3.49-5.02c-1.691,0-2.842-.99-2.842-3.18v-6.39c0-2.15,1.187-3.06,2.878-3.06,1.763,0,2.878.8,2.878,3.03v6.42C520.943,2137.08,519.72,2138.1,518.029,2138.1Zm18.784-7.79c0-3.1,1.007-4.8,4.137-4.8h0.972v-5.29h-0.4a6.088,6.088,0,0,0-5.217,2.42l-0.288-2.12h-4.749v22.6h5.541v-12.81Zm16.62-10.09c-4.93,0-8.564,2.87-8.564,7.63v7.83c0,4.76,3.382,7.67,8.348,7.67,4.929,0,8.491-2.87,8.491-7.67v-7.83C561.708,2123.13,558.362,2120.22,553.433,2120.22Zm-0.072,5.29c1.8,0,2.842,1.1,2.842,3.29v6.05c0,2.11-1.079,3.25-2.914,3.25s-2.879-1.06-2.879-3.25v-6.05C550.41,2126.64,551.49,2125.51,553.361,2125.51Zm15.463-12.74H563.14v5.6h5.684v-5.6Zm-0.072,7.75h-5.54v22.6h5.54v-22.6Zm15.869,22.6h4.965v-30.35h-5.541v8.51a6.665,6.665,0,0,0-4.03-1.1c-4.245,0-7.268,2.65-7.268,7.41v8.2c0,4.8,2.7,7.56,7.052,7.56a5.776,5.776,0,0,0,4.606-1.78Zm-3.49-5.02c-1.691,0-2.843-.99-2.843-3.18v-6.39c0-2.15,1.187-3.06,2.879-3.06,1.763,0,2.878.8,2.878,3.03v6.42C584.045,2137.08,582.822,2138.1,581.131,2138.1Z" transform="translate(-324.125 -2016.56)"/>
</svg>
