<svg height="17.81" viewBox="0 0 212.437 17.81" width="212.437" xmlns="http://www.w3.org/2000/svg"><path d="m34.78 2097.62c-4.357-.7-5.78-3.41-5.78-5.68v-1.24h-3.114v1.24c0 2.2-1.458 4.98-5.762 5.68l1.17 2.53a8.227 8.227 0 0 0 6.14-4.1 8.229 8.229 0 0 0 6.158 4.1zm-5.87 5.54v-3.77h-2.916v3.77h-6.1v2.43h15.3v-2.43h-6.283zm18.6-7.13a38.671 38.671 0 0 1 -6.3.68v-5.98h-2.9v8.47h1.512a41.137 41.137 0 0 0 8.012-.73zm-7.616 6.88h8.733v4.71h2.917v-7.11h-11.653v2.4zm8.733-13.05v10.01h2.917v-10.01h-2.92zm15.454 10.08.288-1.19c.342-1.4.7-3.04 1.026-4.52h.072c.36 1.44.7 3.12 1.062 4.52l.288 1.19h-2.739zm4.123 5.84h3.385l-4.159-14.06h-3.856l-4.159 14.06h3.277l.774-3.23h3.961zm7.443 0h3.223v-11.26h3.63v-2.8h-10.475v2.8h3.619v11.26zm14.415 0h9.288v-2.83h-2.467a17.08 17.08 0 0 0 -2.179.19c2.053-2.18 4.033-4.84 4.033-7.26a4.174 4.174 0 0 0 -4.393-4.43 5.494 5.494 0 0 0 -4.447 2.18l1.746 1.81a3.186 3.186 0 0 1 2.269-1.36 1.721 1.721 0 0 1 1.746 1.99c0 2.04-2.251 4.59-5.6 7.78v1.93zm16.524.27c2.826 0 4.753-2.54 4.753-7.38 0-4.8-1.927-7.22-4.753-7.22s-4.736 2.38-4.736 7.22 1.906 7.38 4.733 7.38zm0-2.61c-.955 0-1.711-.91-1.711-4.77 0-3.83.756-4.63 1.711-4.63s1.728.8 1.728 4.63c-.003 3.86-.777 4.77-1.731 4.77zm6.943 2.34h9.291v-2.83h-2.47a17.084 17.084 0 0 0 -2.179.19c2.053-2.18 4.033-4.84 4.033-7.26a4.174 4.174 0 0 0 -4.393-4.43 5.492 5.492 0 0 0 -4.447 2.18l1.746 1.81a3.187 3.187 0 0 1 2.269-1.36 1.721 1.721 0 0 1 1.746 1.99c0 2.04-2.25 4.59-5.6 7.78v1.93zm16.524.27c2.826 0 4.753-2.54 4.753-7.38 0-4.8-1.927-7.22-4.753-7.22s-4.736 2.38-4.736 7.22 1.906 7.38 4.733 7.38zm0-2.61c-.955 0-1.711-.91-1.711-4.77 0-3.83.756-4.63 1.711-4.63s1.728.8 1.728 4.63c-.003 3.86-.781 4.77-1.731 4.77zm21.067-.21v-3.27h4.645v-2.4h-9.129v-4.2h9.021v-2.4h-11.94v9h4.483v3.27h-6.176v2.46h15.305v-2.46h-6.212zm10.211-7.5.361 2.55 9.506-.51c-.054.98-.144 2.06-.27 3.21l2.881.28a77.941 77.941 0 0 0 .4-8.62v-1.47h-12.34v2.4h9.452c0 .57-.018 1.17-.036 1.87zm9.021 7.58v-3.92h-2.9v3.92h-1.17v-3.92h-2.9v3.92h-3.187v2.44h15.305v-2.44h-5.15zm17.236 1.34h8.912v-4.86h-11.813v2.23h8.93v.55h-8.912v4.93h12.207v-2.27h-9.327v-.58zm-.126-11.68c0-.59.919-.8 3.187-.8 2.287 0 3.187.21 3.187.8s-.9.79-3.187.79c-2.271 0-3.19-.19-3.19-.79zm4.61 3.78v-.84c3.043-.22 4.789-1.24 4.789-2.94 0-1.95-2.3-3.01-6.212-3.01s-6.211 1.06-6.211 3.01c0 1.68 1.71 2.7 4.717 2.94v.84h-6.158v2.36h15.287v-2.36zm18.842.26a35.6 35.6 0 0 1 -6.428.47v-1.04h4.951v-5.63h-7.85v2.4h4.969v.98h-4.956v5.71h1.53a44.678 44.678 0 0 0 8.1-.47zm-4.61 6.41h5.726v1.61h-5.73v-1.61zm-2.863 3.97h11.434v-6.33h-11.437v6.33zm8.517-17.56v10.53h2.917v-10.53zm10.844 3.61h1.242v4.35q-.621.03-1.242.03zm5.725 4.01c-.54.07-1.116.13-1.692.17v-4.18h1.152v-2.4h-9.128v2.4h1.152v4.44h-1.549l.27 2.44a60.659 60.659 0 0 0 9.993-.66zm-7.886 6.31h8.751v3.82h2.917v-6.22h-11.671v2.4zm8.751-13.91v10.87h2.917v-10.87z" fill="#fff" fill-rule="evenodd" transform="translate(-19.875 -2089.81)"/></svg>