<svg height="57.38" viewBox="0 0 265.094 57.38" width="265.094" xmlns="http://www.w3.org/2000/svg"><path d="m21.7 1710.01h1.945v-10.08h.055l3.079 10.08h1.821l3.1-10.08h.072v10.08h2.208v-12.97h-3.1l-3.007 9.77h-.051l-3.007-9.77h-3.115zm14.64 0h2.053l1.116-3.29h4.591l1.116 3.29h2.284l-4.393-12.97h-2.266zm5.42-10.21h.054l1.728 5.18h-3.511zm8.615 10.21h2.215v-5.24h1.891l2.755 5.24h2.413l-3.061-5.73v-.09a3.274 3.274 0 0 0 2.233-3.35c0-2.53-1.459-3.8-4.3-3.8h-4.147v12.97zm2.215-6.85v-4.33h1.675c1.584 0 2.269.61 2.269 2.08a1.943 1.943 0 0 1 -2.251 2.25h-1.694zm9.567 6.85h2.233v-12.97h-2.235v12.97zm10.707.21c3.349 0 5.654-2.29 5.654-6.49v-.41c0-4.33-2.251-6.49-5.546-6.49-3.367 0-5.654 2.31-5.654 6.49v.41c-.001 4.29 2.214 6.49 5.545 6.49zm.072-1.8c-2.359 0-3.259-1.78-3.259-4.71v-.66c0-2.63 1.044-4.4 3.187-4.4 2.395.01 3.3 1.77 3.3 4.68v.65c-.006 2.64-1.064 4.44-3.229 4.44zm18.432 1.8a5.343 5.343 0 0 0 3.3-1.14l.756.93h2.557l-1.945-2.4a8.544 8.544 0 0 0 1.332-3.95h-1.8a8.934 8.934 0 0 1 -.63 2.51l-2.449-3.06c1.531-.76 2.755-1.69 2.755-3.42 0-1.76-1.332-2.86-3.241-2.86-1.891 0-3.457 1.04-3.457 3.16a4.262 4.262 0 0 0 1.026 2.66 4.117 4.117 0 0 0 -2.683 3.8c-.006 2.44 1.651 3.77 4.477 3.77zm.144-1.67a2.191 2.191 0 0 1 -2.485-2.36 2.619 2.619 0 0 1 1.477-2.33l3.169 3.97a3.444 3.444 0 0 1 -2.162.72zm-.864-8.69a1.309 1.309 0 0 1 1.368-1.5 1.283 1.283 0 0 1 1.26 1.42 2.729 2.729 0 0 1 -1.675 2.23l-.144-.23a3.041 3.041 0 0 1 -.811-1.92zm18.836 10.37c2.989 0 4.412-1.53 4.412-3.98 0-2.31-1.171-3.16-3.115-3.75l-1.153-.38c-1.224-.35-1.584-.79-1.584-1.81 0-1.04.72-1.61 2.016-1.61a7.436 7.436 0 0 1 3.151.65v-1.82a6.09 6.09 0 0 0 -3.187-.7c-2.79 0-4.141 1.49-4.141 3.69a3.414 3.414 0 0 0 2.809 3.68l1.17.34c1.351.44 1.8.86 1.8 1.93 0 1.17-.7 1.89-2.359 1.89a8.408 8.408 0 0 1 -3.511-.79v1.83a7.476 7.476 0 0 0 3.69.83zm12.8-.01c3.349 0 5.653-2.29 5.653-6.49v-.41c0-4.33-2.25-6.49-5.545-6.49-3.367 0-5.654 2.31-5.654 6.49v.41c-.002 4.29 2.213 6.49 5.544 6.49zm.072-1.8c-2.359 0-3.259-1.78-3.259-4.71v-.66c0-2.63 1.044-4.4 3.187-4.4 2.4.01 3.3 1.77 3.3 4.68v.65c-.007 2.64-1.07 4.44-3.23 4.44zm8.893 1.59h1.962v-9.78h.054l5.42 9.78h2.2v-12.97h-1.962v9.15h-.054l-5.132-9.15h-2.484v12.97zm13.828 0h2.232v-12.97h-2.232zm10.725.21a7.03 7.03 0 0 0 3.457-.8v-1.79a7 7 0 0 1 -3.043.7c-2.593 0-3.583-1.69-3.583-4.66v-.66c0-3.08 1.422-4.29 3.565-4.29a7.071 7.071 0 0 1 2.935.61v-1.82a6.1 6.1 0 0 0 -3.1-.68c-3.2 0-5.8 1.76-5.8 6.43v.47c.003 4.37 2.128 6.49 5.567 6.49zm11.642-.21h2.056l1.116-3.29h4.584l1.117 3.29h2.287l-4.394-12.97h-2.268zm5.42-10.21h.054l1.728 5.18h-3.511zm9.881 10.21h2.214v-11.14h3.511v-1.83h-9.27v1.83h3.547v11.14zm16.8 0h2.214v-11.14h3.511v-1.83h-9.27v1.83h3.547v11.14zm8.116 0h2.215v-5.79h5.257v5.79h2.215v-12.97h-2.215v5.35h-5.257v-5.35h-2.215zm13.807 0h7.814v-1.84h-5.6v-3.93h4.267v-1.81h-4.269v-3.56h5.492v-1.83h-7.706v12.97zm-194.85 22.21c3.349 0 5.654-2.29 5.654-6.49v-.41c0-4.33-2.251-6.49-5.546-6.49-3.367 0-5.654 2.31-5.654 6.49v.41c-.002 4.29 2.213 6.49 5.544 6.49zm.072-1.8c-2.359 0-3.259-1.78-3.259-4.71v-.66c0-2.63 1.044-4.4 3.187-4.4 2.395.01 3.295 1.77 3.295 4.68v.65c-.002 2.64-1.065 4.44-3.225 4.44zm8.893 1.59h7.436v-1.84h-5.219v-11.13h-2.22v12.97zm11.055 0h2.212v-5.03l3.961-7.94h-2.111l-2.827 5.82h-.05l-2.823-5.82h-2.362l4 7.94zm8.974 0h1.945v-10.08h.054l3.079 10.08h1.819l3.1-10.08h.072v10.08h2.215v-12.97h-3.1l-3.007 9.77h-.058l-3.007-9.77h-3.115v12.97zm15.819 0h2.215v-4.86h2.251c2.575 0 4.213-1.42 4.213-4.12 0-2.57-1.458-3.99-4.357-3.99h-4.325v12.97zm2.215-6.6v-4.58h1.873c1.638 0 2.269.63 2.269 2.33 0 1.51-.63 2.25-2.3 2.25h-1.845zm9.468 6.6h2.233v-12.97h-2.237v12.97zm10.725.21a7.029 7.029 0 0 0 3.457-.8v-1.79a7 7 0 0 1 -3.043.7c-2.593 0-3.583-1.69-3.583-4.66v-.66c0-3.08 1.422-4.29 3.565-4.29a7.07 7.07 0 0 1 2.935.61v-1.82a6.1 6.1 0 0 0 -3.1-.68c-3.2 0-5.8 1.76-5.8 6.43v.47c.002 4.37 2.13 6.49 5.566 6.49zm18.16 0a10.547 10.547 0 0 0 4.033-.8v-6.01h-4.447v1.74h2.286v2.95a6.45 6.45 0 0 1 -1.89.28c-2.9 0-3.565-1.91-3.565-4.59v-.59c0-2.44.864-4.48 3.763-4.48a7.28 7.28 0 0 1 3.331.72v-1.85a6.852 6.852 0 0 0 -3.385-.76c-3.2 0-6.05 1.63-6.05 6.56v.4c-.003 4.55 2.302 6.43 5.925 6.43zm6.465-.21h2.052l1.117-3.29h4.591l1.116 3.29h2.287l-4.393-12.97h-2.269zm5.419-10.21h.054l1.729 5.18h-3.511zm8.615 10.21h1.945v-10.08h.054l3.079 10.08h1.818l3.1-10.08h.072v10.08h2.215v-12.97h-3.1l-3.007 9.77h-.054l-3.007-9.77h-3.113v12.97zm15.816 0h7.814v-1.84h-5.6v-3.93h4.267v-1.81h-4.267v-3.56h5.492v-1.83h-7.706zm13.735.22c2.989 0 4.412-1.53 4.412-3.98 0-2.31-1.171-3.16-3.115-3.75l-1.153-.38c-1.224-.35-1.584-.79-1.584-1.81 0-1.04.72-1.61 2.017-1.61a7.443 7.443 0 0 1 3.151.65v-1.82a6.1 6.1 0 0 0 -3.187-.7c-2.791 0-4.142 1.49-4.142 3.69a3.415 3.415 0 0 0 2.809 3.68l1.171.34c1.35.44 1.8.86 1.8 1.93 0 1.17-.7 1.89-2.359 1.89a8.412 8.412 0 0 1 -3.511-.79v1.83a7.479 7.479 0 0 0 3.688.83zm16.44-.22h2.211v-11.14h3.511v-1.83h-9.273v1.83h3.547v11.14zm12.805.21c3.349 0 5.654-2.29 5.654-6.49v-.41c0-4.33-2.251-6.49-5.546-6.49-3.367 0-5.653 2.31-5.653 6.49v.41c-.003 4.29 2.211 6.49 5.542 6.49zm.072-1.8c-2.358 0-3.259-1.78-3.259-4.71v-.66c0-2.63 1.045-4.4 3.187-4.4 2.4.01 3.3 1.77 3.3 4.68v.65c-.008 2.64-1.07 4.44-3.231 4.44zm15.879 1.59h2.555c-1.548-2.29-3.115-4.56-4.681-6.83l4.429-6.14h-2.288c-1.53 2.12-3.061 4.25-4.573 6.39zm-6.986 0h2.215v-12.97h-2.215zm15.073 0h2.214v-5.03l3.961-7.94h-2.107l-2.827 5.82h-.054l-2.827-5.82h-2.359l4 7.94v5.03zm13.245.21c3.349 0 5.653-2.29 5.653-6.49v-.41c0-4.33-2.25-6.49-5.545-6.49-3.367 0-5.654 2.31-5.654 6.49v.41c-.003 4.29 2.212 6.49 5.543 6.49zm.072-1.8c-2.359 0-3.259-1.78-3.259-4.71v-.66c0-2.63 1.044-4.4 3.187-4.4 2.395.01 3.295 1.77 3.295 4.68v.65c-.003 2.64-1.066 4.44-3.226 4.44zm14.29 1.59h7.851v-1.82h-4.952l1.458-1.57c1.513-1.64 3.385-3.7 3.385-6.01 0-2.34-1.386-3.7-4.087-3.7a6.874 6.874 0 0 0 -3.511.98l.36 1.72a5.319 5.319 0 0 1 2.557-.87c1.567 0 2.377.61 2.377 2.17 0 1.63-1.369 3.24-3.079 5.13l-2.359 2.61zm15.553.22c2.575 0 4.771-1.72 4.771-6.27v-.81c0-4.56-2.2-6.24-4.753-6.24-2.539 0-4.808 1.66-4.808 6.29v.81c-.002 4.41 2.086 6.22 4.787 6.22zm0-1.77c-1.675 0-2.485-1.44-2.485-4.45v-1c0-3.02.828-4.31 2.5-4.31 1.62 0 2.467 1.36 2.467 4.45v.96c0 3.1-.829 4.35-2.485 4.35zm7.347 1.55h7.851v-1.82h-4.952l1.458-1.57c1.513-1.64 3.385-3.7 3.385-6.01 0-2.34-1.386-3.7-4.087-3.7a6.874 6.874 0 0 0 -3.511.98l.36 1.72a5.319 5.319 0 0 1 2.557-.87c1.567 0 2.377.61 2.377 2.17 0 1.63-1.369 3.24-3.079 5.13l-2.359 2.61zm15.553.22c2.575 0 4.771-1.72 4.771-6.27v-.81c0-4.56-2.2-6.24-4.753-6.24-2.539 0-4.808 1.66-4.808 6.29v.81c-.002 4.41 2.086 6.22 4.787 6.22zm0-1.77c-1.675 0-2.485-1.44-2.485-4.45v-1c0-3.02.828-4.31 2.5-4.31 1.62 0 2.467 1.36 2.467 4.45v.96c0 3.1-.829 4.35-2.485 4.35zm-255.136 16.52h-5.078v1.38h5.078zm8.02 7.03h2.053l1.116-3.29h4.591l1.116 3.29h2.287l-4.393-12.97h-2.269zm5.42-10.21h.054l1.728 5.18h-3.511zm8.615 10.21h2.215v-5.24h1.891l2.755 5.24h2.413l-3.061-5.73v-.09a3.274 3.274 0 0 0 2.233-3.35c0-2.53-1.459-3.8-4.3-3.8h-4.147v12.97zm2.215-6.85v-4.33h1.674c1.584 0 2.269.61 2.269 2.08a1.943 1.943 0 0 1 -2.251 2.25h-1.693zm14.369 7.06a7.029 7.029 0 0 0 3.457-.8v-1.79a7 7 0 0 1 -3.043.7c-2.593 0-3.583-1.69-3.583-4.66v-.66c0-3.08 1.422-4.29 3.565-4.29a7.07 7.07 0 0 1 2.935.61v-1.82a6.1 6.1 0 0 0 -3.1-.68c-3.2 0-5.8 1.76-5.8 6.43v.47c.004 4.37 2.128 6.49 5.567 6.49zm6.007-.21h2.053l1.116-3.29h4.591l1.116 3.29h2.287l-4.393-12.97h-2.272zm5.42-10.21h.054l1.728 5.18h-3.513zm8.615 10.21h4.063c3.961 0 5.888-2.29 5.888-6.45v-.38c0-4.23-2.125-6.14-5.906-6.14h-4.047v12.97zm2.215-1.84v-9.3h1.708c2.341 0 3.691 1.02 3.691 4.29v.63c0 3.14-1.116 4.38-3.529 4.38h-1.873zm10.666 1.84h7.814v-1.84h-5.6v-3.93h4.268v-1.81h-4.268v-3.56h5.492v-1.83h-7.709v12.97zm16.8 0h7.814v-1.84h-5.6v-3.93h4.268v-1.81h-4.268v-3.56h5.492v-1.83h-7.706zm10.506 0h4.069c3.961 0 5.888-2.29 5.888-6.45v-.38c0-4.23-2.125-6.14-5.906-6.14h-4.051zm2.214-1.84v-9.3h1.711c2.34 0 3.691 1.02 3.691 4.29v.63c0 3.14-1.117 4.38-3.529 4.38zm10.684 1.84h2.232v-12.97h-2.232zm8.185 0h2.214v-11.14h3.511v-1.83h-9.272v1.83h3.54v11.14zm8.143 0h2.233v-12.97h-2.233zm10.708.21c3.349 0 5.653-2.29 5.653-6.49v-.41c0-4.33-2.25-6.49-5.545-6.49-3.367 0-5.654 2.31-5.654 6.49v.41c-.003 4.29 2.212 6.49 5.543 6.49zm.072-1.8c-2.359 0-3.259-1.78-3.259-4.71v-.66c0-2.63 1.044-4.4 3.187-4.4 2.394.01 3.295 1.77 3.295 4.68v.65c-.003 2.64-1.066 4.44-3.226 4.44zm8.892 1.59h1.963v-9.78h.054l5.42 9.78h2.2v-12.97h-1.969v9.15h-.054l-5.132-9.15h-2.485v12.97z" fill="#fff" fill-rule="evenodd" transform="translate(-21.063 -1696.84)"/></svg>