<svg height="13.813" viewBox="0 0 310.187 13.813" width="310.187" xmlns="http://www.w3.org/2000/svg"><path d="m329.94 975.547h6.46v-1.663h-3.81l1.033-1.1c1.018-1.114 2.748-2.975 2.748-4.867 0-1.923-1.134-3.006-3.432-3.006a5.774 5.774 0 0 0 -2.879.747l.262 1.542a4.748 4.748 0 0 1 2.007-.626c1.236 0 1.9.412 1.9 1.648s-1.192 2.609-2.559 4.135l-1.73 1.938v1.251zm12.554.183c2.137 0 4.013-1.373 4.013-5.142v-.534c0-3.723-1.846-5.142-3.984-5.142-2.094 0-4.028 1.388-4.028 5.188v.549c.005 3.616 1.759 5.081 3.999 5.081zm0-1.617c-1.265 0-1.832-1.145-1.832-3.51v-.656c0-2.38.6-3.418 1.846-3.418s1.862 1.1 1.862 3.525v.656c0 2.441-.611 3.403-1.876 3.403zm5.124 1.434h6.457v-1.663h-3.81l1.033-1.1c1.017-1.114 2.748-2.975 2.748-4.867 0-1.923-1.134-3.006-3.432-3.006a5.774 5.774 0 0 0 -2.879.747l.265 1.542a4.749 4.749 0 0 1 2.006-.626c1.236 0 1.905.412 1.905 1.648s-1.192 2.609-2.559 4.135l-1.731 1.938v1.251zm12.555.183c2.137 0 4.013-1.373 4.013-5.142v-.534c0-3.723-1.847-5.142-3.984-5.142-2.094 0-4.028 1.388-4.028 5.188v.549c0 3.616 1.759 5.081 3.999 5.081zm0-1.617c-1.265 0-1.833-1.145-1.833-3.51v-.656c0-2.38.6-3.418 1.847-3.418s1.862 1.1 1.862 3.525v.656c0 2.441-.611 3.403-1.876 3.403zm20.517-2.884v-1.587h-6.864v-3.311h6.791v-1.618h-8.725v6.516h3.4v2.884h-4.9v1.587h11.708v-1.587h-4.9v-2.884zm14.122-6.134h-9.2v1.617h7.286v.519c0 .29-.015.641-.029.977-2.6.076-5.192.167-7.78.229.087.6.16 1.174.233 1.77 2.486-.168 4.944-.321 7.43-.473-.1.961-.232 1.968-.407 2.822l1.861.26a33.224 33.224 0 0 0 .626-6.348c-.005-.427-.005-.931-.02-1.368zm1.1 10.62v-1.587h-4.159v-2.991h-1.919v2.991h-1.134v-2.991h-1.934v2.991h-2.56v1.587zm8-9.369c0 1.16 1.251 2.106 3.607 2.3v.733h-4.857v1.632h11.706v-1.632h-4.944v-.718c2.414-.2 3.693-1.144 3.693-2.319 0-1.312-1.614-2.35-4.609-2.35s-4.593 1.042-4.593 2.354zm9.365 11v-1.633h-7.277v-.563h6.936v-3.54h-8.8v1.572h6.864v.58h-6.91v3.586h9.19zm-7.343-10.987c0-.488.916-.9 2.574-.9s2.588.412 2.588.9c0 .519-.931.916-2.588.916s-2.571-.395-2.571-.914zm20.986 10.849v-4.684h-8.929v4.684zm-3-6.134-.145-1.51a21.155 21.155 0 0 1 -4.028.335c-.378 0-.727-.015-1.033-.03v-1.1h4.043v-4.089h-5.957v1.572h4.013v1.037h-4.028v4.151c.771.015 1.571.045 2.327.045a30.784 30.784 0 0 0 4.815-.409zm3 .794v-8.087h-1.934v8.087zm-1.92 3.8h-5.06v-1.617h5.06zm12.42-5.859c-.465.076-1.033.122-1.687.183l.305-2.838c-.61-.046-1.221-.138-1.832-.168-.073.992-.116 2.106-.174 3.113l-1.193.03c-.043-1.037-.087-2.105-.116-3.143l-1.847.168c.087.976.189 2.014.306 3.006-.568 0-1.135 0-1.615-.031l.233 1.724a61.2 61.2 0 0 0 7.78-.518zm-6.049 2.884v1.6h6.892v3.1h1.949v-4.7zm8.841-.519v-8.347h-1.949v8.347zm-3.257-5.676v-1.587h-6.922v1.589h6.922zm11.226 5.615h4.144v-1.613h-4.144v1.618zm14.2 5.28h2.152v-9.415h3.054v-1.878h-8.231v1.877h3.025v9.415zm7.323 0h2.123v-5.875a2.306 2.306 0 0 1 1.7-.961c.8 0 1.149.473 1.149 1.785v5.051h2.138v-5.326c0-2.151-.757-3.433-2.516-3.433a3.636 3.636 0 0 0 -2.559 1.251l.087-1.6v-3.067h-2.123v12.177zm13.26.213a4.971 4.971 0 0 0 2.85-.946l-.727-1.373a3.247 3.247 0 0 1 -1.832.6 2.179 2.179 0 0 1 -2.254-2.136h5.017a4.383 4.383 0 0 0 .1-1.023c0-2.365-1.164-4.089-3.4-4.089-1.949 0-3.795 1.724-3.795 4.5.004 2.805 1.777 4.468 4.046 4.468zm-1.992-5.34a1.88 1.88 0 0 1 1.774-1.892c1.047 0 1.541.732 1.541 1.892zm15.362 5.34c2.85 0 4.813-2.243 4.813-5.9s-1.963-5.813-4.813-5.813-4.814 2.136-4.814 5.813 1.969 5.901 4.819 5.901zm0-1.953c-1.6 0-2.618-1.541-2.618-3.952s1.018-3.876 2.618-3.876 2.617 1.45 2.617 3.876-1.013 3.953-2.612 3.953zm12.861-6.8h-2.938v-.58a1.1 1.1 0 0 1 1.047-1.328 2.131 2.131 0 0 1 .989.214l.393-1.663a4.345 4.345 0 0 0 -1.644-.321c-2.064 0-2.922 1.343-2.922 3.1v.6l-1.091.092v1.663h1.091v6.775h2.137v-6.775h2.943v6.775h2.123v-6.775h1.541v-1.77h-1.541v-.733c0-.946.349-1.342.989-1.342a2.62 2.62 0 0 1 .872.183l.393-1.648a4.109 4.109 0 0 0 -1.556-.3c-2.036 0-2.821 1.373-2.821 3.158v.687zm6.107-1.374a1.221 1.221 0 0 0 1.28-1.22 1.281 1.281 0 1 0 -1.275 1.216zm-1.076 9.919h2.138v-8.545h-2.138zm8.751.213a3.927 3.927 0 0 0 2.661-1.037l-.843-1.48a2.473 2.473 0 0 1 -1.585.686c-1.178 0-2.021-1.037-2.021-2.64s.843-2.67 2.079-2.67a1.821 1.821 0 0 1 1.251.565l1.017-1.45a3.466 3.466 0 0 0 -2.37-.946 4.172 4.172 0 0 0 -4.159 4.5c.005 2.82 1.721 4.468 3.975 4.468zm5.115-.213h2.123v-8.545h-2.115v8.545zm1.076-9.919a1.209 1.209 0 0 0 1.265-1.22 1.274 1.274 0 0 0 -2.545 0 1.213 1.213 0 0 0 1.285 1.216zm5.528 10.132a3.742 3.742 0 0 0 2.457-1.129h.047l.16.916h1.745v-4.998c0-2.472-1.062-3.769-3.126-3.769a6.3 6.3 0 0 0 -3.4 1.129l.771 1.48a4.464 4.464 0 0 1 2.239-.808 1.3 1.3 0 0 1 1.381 1.48c-3.271.366-4.682 1.327-4.682 3.158a2.373 2.373 0 0 0 2.412 2.537zm.7-1.754a.929.929 0 0 1 -1.076-.962c0-.763.669-1.327 2.646-1.6v1.724a2.125 2.125 0 0 1 -1.566.834zm8.965 1.754a2.787 2.787 0 0 0 1.105-.2l-.262-1.663a1.166 1.166 0 0 1 -.291.03c-.2 0-.436-.168-.436-.671v-9.888h-2.123v9.781c.003 1.585.526 2.607 2.01 2.607zm9.511-.213h2.56l3.3-11.292h-2.182l-1.4 5.493c-.334 1.252-.581 2.381-.916 3.647h-.064c-.349-1.266-.568-2.395-.9-3.647l-1.425-5.493h-2.254zm7.892 0h2.123v-8.545h-2.123zm1.076-9.919a1.209 1.209 0 0 0 1.265-1.22 1.274 1.274 0 0 0 -2.545 0 1.213 1.213 0 0 0 1.283 1.216zm6.445 10.132a3.312 3.312 0 0 0 2.254-1.1h.044l.175.885h1.73v-12.179h-2.138v3.006l.088 1.343a2.743 2.743 0 0 0 -2.065-.931c-1.76 0-3.418 1.709-3.418 4.5s1.312 4.472 3.333 4.472zm.553-1.846c-1.076 0-1.687-.885-1.687-2.655 0-1.709.771-2.625 1.687-2.625a2.108 2.108 0 0 1 1.512.641v3.754a1.79 1.79 0 0 1 -1.509.881zm9.82 1.846a4.971 4.971 0 0 0 2.85-.946l-.727-1.373a3.25 3.25 0 0 1 -1.832.6 2.179 2.179 0 0 1 -2.254-2.136h5.017a4.393 4.393 0 0 0 .1-1.023c0-2.365-1.163-4.089-3.4-4.089-1.949 0-3.8 1.724-3.8 4.5.006 2.8 1.78 4.463 4.049 4.463zm-1.992-5.34a1.88 1.88 0 0 1 1.774-1.892c1.047 0 1.541.732 1.541 1.892zm10.618 5.34c2.036 0 3.912-1.648 3.912-4.471 0-2.853-1.876-4.5-3.912-4.5s-3.911 1.648-3.911 4.5c.003 2.819 1.878 4.467 3.914 4.467zm0-1.831c-1.105 0-1.73-1.037-1.73-2.64s.625-2.67 1.73-2.67 1.731 1.053 1.731 2.67-.623 2.636-1.728 2.636zm14.85 1.831a4.934 4.934 0 0 0 3.49-1.358v-5.1h-3.824v1.847h1.9v2.228a2.1 2.1 0 0 1 -1.352.427c-2.109 0-3.185-1.48-3.185-3.937 0-2.426 1.251-3.891 3.039-3.891a2.766 2.766 0 0 1 2.109.946l1.149-1.434a4.429 4.429 0 0 0 -3.33-1.449c-2.865 0-5.163 2.182-5.163 5.9.007 3.773 2.233 5.817 5.17 5.817zm7.866 0a3.746 3.746 0 0 0 2.458-1.129h.042l.16.916h1.745v-4.998c0-2.472-1.061-3.769-3.126-3.769a6.3 6.3 0 0 0 -3.4 1.129l.771 1.48a4.464 4.464 0 0 1 2.239-.808 1.3 1.3 0 0 1 1.382 1.48c-3.272.366-4.683 1.327-4.683 3.158a2.373 2.373 0 0 0 2.412 2.537zm.7-1.754a.929.929 0 0 1 -1.076-.962c0-.763.669-1.327 2.647-1.6v1.724a2.127 2.127 0 0 1 -1.571.834zm6.986 1.541h2.123v-5.875a2.35 2.35 0 0 1 1.57-.961c.771 0 1.135.473 1.135 1.785v5.051h2.137v-5.875a2.349 2.349 0 0 1 1.571-.961c.77 0 1.134.473 1.134 1.785v5.051h2.144v-5.326c0-2.151-.8-3.433-2.531-3.433a3.574 3.574 0 0 0 -2.588 1.5 2.216 2.216 0 0 0 -2.239-1.5 3.382 3.382 0 0 0 -2.5 1.358h-.058l-.145-1.144h-1.745v8.545zm18.269.213a4.971 4.971 0 0 0 2.85-.946l-.727-1.373a3.25 3.25 0 0 1 -1.832.6 2.179 2.179 0 0 1 -2.254-2.136h5.017a4.393 4.393 0 0 0 .1-1.023c0-2.365-1.163-4.089-3.4-4.089-1.949 0-3.8 1.724-3.8 4.5.004 2.8 1.778 4.463 4.047 4.463zm-1.992-5.34a1.88 1.88 0 0 1 1.774-1.892c1.047 0 1.541.732 1.541 1.892z" fill="#fff" fill-rule="evenodd" transform="translate(-329.938 -963.781)"/></svg>