<svg height="11.72" viewBox="0 0 545.438 11.72" width="545.438" xmlns="http://www.w3.org/2000/svg"><path d="m329.565 1774.78h1.935v-4.71c0-1.07-.174-2.64-.276-3.71h.058l.858 2.66 1.672 4.74h1.236l1.658-4.74.872-2.66h.059c-.1 1.07-.262 2.64-.262 3.71v4.71h1.963v-11.29h-2.385l-1.788 5.28c-.233.7-.422 1.45-.655 2.18h-.073c-.218-.73-.421-1.48-.654-2.18l-1.832-5.28h-2.385v11.29zm14.893-4.65.32-1.24c.32-1.17.64-2.45.916-3.69h.059c.319 1.22.61 2.52.945 3.69l.32 1.24zm3.781 4.65h2.254l-3.461-11.29h-2.532l-3.446 11.29h2.181l.756-2.9h3.49zm6.208-9.5h1.4c1.381 0 2.137.41 2.137 1.63s-.756 1.82-2.137 1.82h-1.4zm6.107 9.5-2.515-4.62a3.233 3.233 0 0 0 2.05-3.25c0-2.59-1.789-3.42-4.043-3.42h-3.746v11.29h2.152v-4.27h1.5l2.21 4.27h2.4zm2.43 0h2.152v-11.29h-2.152zm9.925.22c2.85 0 4.813-2.25 4.813-5.91s-1.963-5.81-4.813-5.81-4.814 2.13-4.814 5.81c.005 3.66 1.963 5.91 4.814 5.91zm0-1.96c-1.6 0-2.618-1.54-2.618-3.95s1.018-3.87 2.618-3.87 2.617 1.45 2.617 3.87-1.018 3.95-2.617 3.95zm12.327-1.38a2.177 2.177 0 0 1 .887-1.59 16.153 16.153 0 0 0 2.428 2.64 2.827 2.827 0 0 1 -1.57.56 1.6 1.6 0 0 1 -1.745-1.61zm1.076-5.51a1.19 1.19 0 0 1 1.076-1.38.83.83 0 0 1 .814.98 2.486 2.486 0 0 1 -1.5 1.91 3.69 3.69 0 0 1 -.39-1.51zm6.907 7.02a6.5 6.5 0 0 1 -1.9-.81 12.737 12.737 0 0 0 1.818-3.88h-1.937a8.62 8.62 0 0 1 -1.324 2.87 14 14 0 0 1 -2.326-2.35c1.148-.84 2.312-1.77 2.312-3.27a2.321 2.321 0 0 0 -2.5-2.45 2.749 2.749 0 0 0 -2.821 2.87 5.57 5.57 0 0 0 .683 2.44 3.755 3.755 0 0 0 -2.021 3.2 3.2 3.2 0 0 0 3.519 3.21 5.069 5.069 0 0 0 3.3-1.19 8.624 8.624 0 0 0 2.678 1.19zm9.535 1.83c2.487 0 3.955-1.57 3.955-3.42a3.115 3.115 0 0 0 -2.166-3.07l-1.411-.62c-.916-.39-1.687-.68-1.687-1.48a1.3 1.3 0 0 1 1.556-1.19 3.32 3.32 0 0 1 2.283.93l1.091-1.42a4.667 4.667 0 0 0 -3.374-1.45c-2.181 0-3.723 1.42-3.723 3.26a3.25 3.25 0 0 0 2.182 3.04l1.439.64c.96.43 1.614.69 1.614 1.53 0 .79-.6 1.29-1.715 1.29a4.125 4.125 0 0 1 -2.734-1.25l-1.236 1.56a5.606 5.606 0 0 0 3.926 1.65zm10.781 0c2.85 0 4.813-2.25 4.813-5.91s-1.963-5.81-4.813-5.81-4.813 2.13-4.813 5.81c0 3.66 1.963 5.91 4.813 5.91zm0-1.96c-1.6 0-2.618-1.54-2.618-3.95s1.018-3.87 2.618-3.87 2.617 1.45 2.617 3.87-1.017 3.95-2.617 3.95zm7.386 1.74h2.036v-4.53c0-1.3-.16-2.71-.262-3.94h.073l1.09 2.43 3.112 6.04h2.182v-11.29h-2.036v4.5c0 1.28.16 2.78.276 3.96h-.073l-1.076-2.45-3.126-6.01h-2.2v11.29zm11.612 0h2.152v-11.29h-2.152zm10.041.22a4.262 4.262 0 0 0 3.432-1.67l-1.134-1.4a2.925 2.925 0 0 1 -2.225 1.11c-1.7 0-2.807-1.48-2.807-3.93 0-2.43 1.222-3.89 2.851-3.89a2.712 2.712 0 0 1 1.977.94l1.134-1.43a4.274 4.274 0 0 0 -3.155-1.45c-2.719 0-5 2.18-5 5.9-.002 3.77 2.208 5.82 4.927 5.82zm12.083-4.87.32-1.24c.32-1.17.64-2.45.916-3.69h.059c.32 1.22.61 2.52.945 3.69l.32 1.24zm3.781 4.65h2.254l-3.461-11.29h-2.531l-3.446 11.29h2.181l.756-2.9h3.49zm5.208 0h2.154v-9.41h3.054v-1.88h-8.231v1.88h3.025v9.41zm13.453 0h2.152v-9.41h3.054v-1.88h-8.23v1.88h3.025v9.41zm7.479 0h2.152v-4.88h4.07v4.88h2.137v-11.29h-2.137v4.44h-4.07v-4.44h-2.152zm11.616 0h6.762v-1.89h-4.61v-3.02h3.781v-1.89h-3.781v-2.61h4.45v-1.88h-6.6v11.29zm17.729.22c2.85 0 4.813-2.25 4.813-5.91s-1.963-5.81-4.813-5.81-4.813 2.13-4.813 5.81c0 3.66 1.963 5.91 4.813 5.91zm0-1.96c-1.6 0-2.618-1.54-2.618-3.95s1.018-3.87 2.618-3.87 2.617 1.45 2.617 3.87-1.017 3.95-2.617 3.95zm7.386 1.74h6.515v-1.89h-4.363v-9.4h-2.152zm9.441 0h2.15v-4.13l3.243-7.16h-2.239l-1.076 2.75c-.306.84-.626 1.63-.96 2.5h-.058c-.335-.87-.625-1.66-.931-2.5l-1.076-2.75h-2.283l3.228 7.16v4.13zm7 0h1.934v-4.71c0-1.07-.175-2.64-.277-3.71h.058l.858 2.66 1.673 4.74h1.236l1.657-4.74.873-2.66h.058c-.1 1.07-.262 2.64-.262 3.71v4.71h1.964v-11.29h-2.385l-1.789 5.28c-.233.7-.422 1.45-.654 2.18h-.073c-.218-.73-.422-1.48-.654-2.18l-1.833-5.28h-2.384zm12.627 0h2.153v-4.01h1.439c2.312 0 4.159-1.16 4.159-3.74 0-2.67-1.832-3.54-4.217-3.54h-3.534zm2.153-5.8v-3.7h1.221c1.483 0 2.269.44 2.269 1.75s-.713 1.95-2.2 1.95h-1.294zm8.362 5.8h2.152v-11.29h-2.152zm10.038.22a4.262 4.262 0 0 0 3.432-1.67l-1.134-1.4a2.925 2.925 0 0 1 -2.225 1.11c-1.7 0-2.807-1.48-2.807-3.93 0-2.43 1.222-3.89 2.851-3.89a2.712 2.712 0 0 1 1.977.94l1.135-1.43a4.276 4.276 0 0 0 -3.156-1.45c-2.719 0-5 2.18-5 5.9-.003 3.77 2.208 5.82 4.927 5.82zm14.686 0a4.926 4.926 0 0 0 3.49-1.36v-5.1h-3.824v1.85h1.9v2.23a2.123 2.123 0 0 1 -1.352.42c-2.109 0-3.185-1.48-3.185-3.93 0-2.43 1.251-3.89 3.039-3.89a2.779 2.779 0 0 1 2.109.94l1.148-1.43a4.422 4.422 0 0 0 -3.33-1.45c-2.864 0-5.162 2.18-5.162 5.9.005 3.77 2.23 5.82 5.167 5.82zm8.284-4.87.32-1.24c.32-1.17.64-2.45.916-3.69h.058c.32 1.22.611 2.52.946 3.69l.319 1.24zm3.781 4.65h2.254l-3.461-11.29h-2.53l-3.447 11.29h2.182l.756-2.9h3.49zm4.055 0h1.934v-4.71c0-1.07-.174-2.64-.276-3.71h.058l.858 2.66 1.672 4.74h1.237l1.657-4.74.873-2.66h.058c-.1 1.07-.262 2.64-.262 3.71v4.71h1.963v-11.29h-2.385l-1.788 5.28c-.233.7-.422 1.45-.655 2.18h-.072c-.218-.73-.422-1.48-.655-2.18l-1.832-5.28h-2.385zm12.628 0h6.762v-1.89h-4.61v-3.02h3.784v-1.89h-3.781v-2.61h4.45v-1.88h-6.6v11.29zm12.961.22c2.487 0 3.955-1.57 3.955-3.42a3.115 3.115 0 0 0 -2.166-3.07l-1.411-.62c-.916-.39-1.687-.68-1.687-1.48a1.3 1.3 0 0 1 1.556-1.19 3.32 3.32 0 0 1 2.283.93l1.091-1.42a4.667 4.667 0 0 0 -3.374-1.45c-2.181 0-3.722 1.42-3.722 3.26a3.249 3.249 0 0 0 2.181 3.04l1.439.64c.96.43 1.615.69 1.615 1.53 0 .79-.6 1.29-1.716 1.29a4.127 4.127 0 0 1 -2.734-1.25l-1.236 1.56a5.606 5.606 0 0 0 3.926 1.65zm12.377-.22h2.153v-9.41h3.053v-1.88h-8.23v1.88h3.022v9.41zm11.608.22c2.85 0 4.813-2.25 4.813-5.91s-1.963-5.81-4.813-5.81-4.814 2.13-4.814 5.81c.004 3.66 1.963 5.91 4.814 5.91zm0-1.96c-1.6 0-2.618-1.54-2.618-3.95s1.018-3.87 2.618-3.87 2.617 1.45 2.617 3.87-1.018 3.95-2.617 3.95zm7.386 1.74h2.152v-3.17l1.41-1.89 2.778 5.06h2.37l-3.868-6.85 3.286-4.44h-2.37l-3.563 4.9h-.043v-4.9h-2.148v11.29zm12.953 0h2.151v-4.13l3.242-7.16h-2.242l-1.076 2.75c-.3.84-.625 1.63-.96 2.5h-.054c-.334-.87-.625-1.66-.931-2.5l-1.076-2.75h-2.283l3.229 7.16zm10.8.22c2.85 0 4.813-2.25 4.813-5.91s-1.963-5.81-4.813-5.81-4.813 2.13-4.813 5.81c-.003 3.66 1.964 5.91 4.81 5.91zm0-1.96c-1.6 0-2.617-1.54-2.617-3.95s1.018-3.87 2.617-3.87 2.618 1.45 2.618 3.87-1.021 3.95-2.621 3.95zm10.48 1.74h7.213v-1.89h-2.342c-.5 0-1.207.06-1.745.12 1.963-2.01 3.577-4.21 3.577-6.25a3.232 3.232 0 0 0 -3.388-3.48 4.283 4.283 0 0 0 -3.417 1.71l1.163 1.22a2.743 2.743 0 0 1 1.978-1.16 1.586 1.586 0 0 1 1.614 1.83c0 1.74-1.731 3.86-4.654 6.61v1.29zm13.348.22c2.181 0 3.635-2.02 3.635-5.91s-1.454-5.81-3.635-5.81-3.65 1.91-3.65 5.81 1.451 5.91 3.647 5.91zm0-1.76c-.931 0-1.629-.97-1.629-4.15 0-3.16.7-4.07 1.629-4.07s1.614.91 1.614 4.07c-.003 3.18-.701 4.15-1.617 4.15zm5.879 1.54h7.213v-1.89h-2.341c-.5 0-1.207.06-1.745.12 1.963-2.01 3.577-4.21 3.577-6.25a3.233 3.233 0 0 0 -3.388-3.48 4.287 4.287 0 0 0 -3.418 1.71l1.164 1.22a2.743 2.743 0 0 1 1.977-1.16 1.585 1.585 0 0 1 1.614 1.83c0 1.74-1.73 3.86-4.653 6.61zm13.344.22c2.181 0 3.635-2.02 3.635-5.91s-1.454-5.81-3.635-5.81-3.65 1.91-3.65 5.81 1.455 5.91 3.65 5.91zm0-1.76c-.931 0-1.629-.97-1.629-4.15 0-3.16.7-4.07 1.629-4.07s1.614.91 1.614 4.07c.001 3.18-.697 4.15-1.614 4.15zm9.876-2.1h6.5v-1.45h-6.5zm15.085-1.01.32-1.24c.32-1.17.64-2.45.917-3.69h.058c.32 1.22.61 2.52.945 3.69l.32 1.24zm3.781 4.65h2.258l-3.461-11.29h-2.53l-3.446 11.29h2.181l.756-2.9h3.49zm6.208-9.5h1.4c1.381 0 2.138.41 2.138 1.63s-.757 1.82-2.138 1.82h-1.4zm6.107 9.5-2.515-4.62a3.233 3.233 0 0 0 2.05-3.25c0-2.59-1.789-3.42-4.043-3.42h-3.749v11.29h2.152v-4.27h1.5l2.21 4.27h2.4zm6.756.22a4.262 4.262 0 0 0 3.432-1.67l-1.135-1.4a2.921 2.921 0 0 1 -2.224 1.11c-1.7 0-2.807-1.48-2.807-3.93 0-2.43 1.222-3.89 2.85-3.89a2.712 2.712 0 0 1 1.978.94l1.134-1.43a4.276 4.276 0 0 0 -3.155-1.45c-2.72 0-5 2.18-5 5.9-.002 3.77 2.214 5.82 4.928 5.82zm8.763-4.87.32-1.24c.32-1.17.64-2.45.916-3.69h.059c.319 1.22.61 2.52.945 3.69l.32 1.24zm3.781 4.65h2.254l-3.461-11.29h-2.53l-3.446 11.29h2.181l.756-2.9h3.49zm4.056 0h3.068c3.17 0 5.206-1.89 5.206-5.69s-2.036-5.6-5.322-5.6h-2.952zm2.152-1.81v-7.68h.669c2.006 0 3.257 1.04 3.257 3.8s-1.251 3.88-3.257 3.88zm8.5 1.81h6.761v-1.89h-4.606v-3.02h3.78v-1.89h-3.78v-2.61h4.45v-1.88h-6.6v11.29zm13.453 0h6.762v-1.89h-4.61v-3.02h3.781v-1.89h-3.781v-2.61h4.45v-1.88h-6.6v11.29zm9.554 0h3.068c3.17 0 5.206-1.89 5.206-5.69s-2.036-5.6-5.322-5.6h-2.952zm2.152-1.81v-7.68h.676c2.007 0 3.257 1.04 3.257 3.8s-1.25 3.88-3.257 3.88h-.669zm8.521 1.81h2.155v-11.29h-2.152v11.29zm7.725 0h2.152v-9.41h3.054v-1.88h-8.231v1.88h3.025zm7.478 0h2.152v-11.29h-2.152zm9.925.22c2.85 0 4.814-2.25 4.814-5.91s-1.964-5.81-4.814-5.81-4.813 2.13-4.813 5.81c.003 3.66 1.966 5.91 4.816 5.91zm0-1.96c-1.6 0-2.617-1.54-2.617-3.95s1.018-3.87 2.617-3.87 2.618 1.45 2.618 3.87-1.015 3.95-2.615 3.95zm7.386 1.74h2.041v-4.53c0-1.3-.16-2.71-.262-3.94h.073l1.091 2.43 3.112 6.04h2.181v-11.29h-2.036v4.5c0 1.28.16 2.78.276 3.96h-.072l-1.076-2.45-3.127-6.01h-2.2v11.29z" fill="#fff" fill-rule="evenodd" transform="translate(-329.562 -1763.28)"/></svg>