<svg height="13.59" viewBox="0 0 224.25 13.59" width="224.25" xmlns="http://www.w3.org/2000/svg"><path d="m338.813 1367.39h-1.73v13.6h1.73v-6.9h1.76v-1.48h-1.76zm-5.365 8.67h-2.763v-5.98h2.763zm1.7-7.42h-6.148v8.84h6.151v-8.84zm16.237-1.25v13.6h1.686v-13.6zm-1.135 8.62a34.653 34.653 0 0 1 -5.467.4v-2.76h4.231v-5.1h-5.976v1.42h4.26v2.26h-4.2v5.65h1.367a33.787 33.787 0 0 0 5.976-.45zm17.275 3.28v-1.41h-5.015v-2.17c2.4-.26 3.926-1.73 3.926-3.72 0-2.2-1.876-3.74-4.755-3.74s-4.755 1.54-4.755 3.74c0 1.98 1.512 3.43 3.882 3.72v2.17h-4.988v1.41h11.706zm-2.805-7.29c0 1.37-1.207 2.29-3.039 2.29s-3.025-.92-3.025-2.29 1.192-2.29 3.025-2.29 3.039.93 3.039 2.29zm13.1 5.97-.175-1.38c-.916.14-1.9.22-3.17.29v-2.18a3.068 3.068 0 0 0 2.545-3.06 3.412 3.412 0 0 0 -6.82 0 3.053 3.053 0 0 0 2.574 3.08v2.26c-1.033.03-2.021.03-3.127.03l.219 1.46c1 0 1.992-.03 3.3-.09 1.51-.08 3.415-.21 4.651-.41zm2.254-10.58h-1.687v13.6h1.687v-6.68h1.672v-1.47h-1.672zm-8.216 4.23a1.723 1.723 0 0 1 1.745-1.79 1.688 1.688 0 0 1 1.716 1.79 1.731 1.731 0 0 1 -3.464 0zm27.789 1.8c-1.963-.34-4.624-2.11-4.624-4.5v-.83h-1.774v.83c0 2.43-2.5 4.13-4.61 4.45l.771 1.45c1.774-.41 4.042-1.8 4.711-3.63a7.223 7.223 0 0 0 4.726 3.63zm.334 5.87v-1.4h-5.031v-3.23h-1.716v3.23h-4.959v1.4zm12.426-4.19v-7.68h-1.7v7.68zm-8.754.69v1.41h7.067v3.8h1.7v-5.21h-8.77zm5.831-3.54a23.771 23.771 0 0 1 -5.38.53v-4.65h-1.687v6.16h1.279a28.945 28.945 0 0 0 6.006-.6zm10.426 6.91h1.658l.9-2.66h3.708l.9 2.66h1.847l-3.548-10.47h-1.832zm4.377-8.24h.044l1.4 4.18h-2.836zm7.311 8.24h1.789v-8.99h2.835v-1.48h-7.492v1.48h2.87v8.99zm10.952 0h6.34v-1.47h-4l1.178-1.26c1.222-1.33 2.734-2.99 2.734-4.86 0-1.89-1.12-2.99-3.3-2.99a5.467 5.467 0 0 0 -2.835.8l.29 1.39a4.173 4.173 0 0 1 2.065-.71c1.265 0 1.92.49 1.92 1.76 0 1.31-1.105 2.61-2.487 4.13l-1.9 2.11v1.1zm12.5.18c2.08 0 3.854-1.39 3.854-5.07v-.65c0-3.68-1.774-5.04-3.839-5.04s-3.883 1.35-3.883 5.08v.66c-.004 3.56 1.683 5.02 3.864 5.02zm0-1.43c-1.352 0-2.007-1.16-2.007-3.59v-.81c0-2.44.669-3.48 2.022-3.48 1.308 0 1.992 1.1 1.992 3.59v.78c-.004 2.5-.673 3.51-2.011 3.51zm5.261 1.25h6.341v-1.47h-4l1.177-1.26c1.222-1.33 2.734-2.99 2.734-4.86 0-1.89-1.119-2.99-3.3-2.99a5.473 5.473 0 0 0 -2.835.8l.291 1.39a4.166 4.166 0 0 1 2.064-.71c1.266 0 1.92.49 1.92 1.76 0 1.31-1.105 2.61-2.487 4.13l-1.9 2.11v1.1zm12.5.18c2.08 0 3.854-1.39 3.854-5.07v-.65c0-3.68-1.774-5.04-3.839-5.04s-3.883 1.35-3.883 5.08v.66c-.005 3.56 1.682 5.02 3.863 5.02zm0-1.43c-1.352 0-2.006-1.16-2.006-3.59v-.81c0-2.44.668-3.48 2.021-3.48 1.309 0 1.992 1.1 1.992 3.59v.78c-.005 2.5-.674 3.51-2.012 3.51zm20.518-3.18v-1.42h-7.068v-3.51h7v-1.42h-8.7v6.35h3.461v3.15h-4.973v1.4h11.706v-1.4h-5.032v-3.15h3.607zm14.186-5.93h-9.132v1.4h7.416c0 .55-.015 1.13-.029 1.76l-7.795.33.2 1.42 7.5-.41a25.273 25.273 0 0 1 -.364 2.9l1.643.23a37.3 37.3 0 0 0 .556-7.63zm1.192 10.48v-1.42h-4.29v-3.13h-1.686v3.13h-1.411v-3.13h-1.7v3.13h-2.62v1.42h11.7zm8.042-9.28c0 1.3 1.323 2.23 3.679 2.41v.74h-4.978v1.41h11.706v-1.41h-5.032v-.74c2.414-.16 3.781-1.08 3.781-2.41 0-1.45-1.672-2.42-4.581-2.42s-4.58.97-4.58 2.42zm9.336 10.93v-1.45h-7.446v-.75h6.98v-3.42h-8.759v1.41h7.067v.76h-6.98v3.45h9.133zm-7.585-10.93c0-.61 1.033-1.1 2.821-1.1s2.836.49 2.836 1.1-1.047 1.1-2.836 1.1-2.821-.49-2.821-1.1zm21.276 10.82v-4.71h-8.812v4.71zm-1.687-1.4h-5.424v-1.96h5.424zm1.687-4.02v-8.01h-1.687v8.01zm-3.112-2.25a23.754 23.754 0 0 1 -5.235.41v-1.41h4.173v-3.95h-5.918v1.41h4.231v1.2h-4.185v4.18h1.745a28.478 28.478 0 0 0 5.366-.47zm14 1.78-.131-1.36c-.422.08-1.018.12-1.716.19.116-1.03.2-2.11.3-3.1-.538-.06-1.09-.12-1.643-.17l-.131 3.34a4.573 4.573 0 0 1 -.523.02l-1.091.04c-.043-1.13-.116-2.32-.131-3.4l-1.7.17c.116 1.05.2 2.21.305 3.26-.552.02-1.105.02-1.672.02.087.49.145.98.233 1.46a51.774 51.774 0 0 0 7.899-.47zm-6.34 1.33v1.39h7.212v3.35h1.716v-4.74zm8.914-.69v-8.15h-1.7v8.15zm-3.069-5.69v-1.42h-7.2v1.42z" fill="#fff" fill-rule="evenodd" transform="translate(-329 -1367.41)"/></svg>