<svg height="16.84" viewBox="0 0 279.563 16.84" width="279.563" xmlns="http://www.w3.org/2000/svg"><path d="m33.332 1343.43h-2.143v16.85h2.143v-8.55h2.178v-1.83h-2.178zm-6.644 10.74h-3.421v-7.41h3.421zm2.107-9.19h-7.617v10.95h7.616v-10.95zm19.988-1.55v16.85h2.089v-16.85h-2.09zm-1.4 10.68a42.527 42.527 0 0 1 -6.77.5v-3.43h5.24v-6.31h-7.4v1.76h5.276v2.79h-5.2v7h1.692a41.843 41.843 0 0 0 7.4-.55zm21.272 4.07v-1.76h-6.217v-2.68c2.971-.33 4.861-2.14 4.861-4.62 0-2.72-2.323-4.63-5.888-4.63-3.547 0-5.888 1.91-5.888 4.63 0 2.46 1.873 4.26 4.807 4.62v2.68h-6.175v1.76h14.495zm-3.475-9.04c0 1.7-1.494 2.84-3.763 2.84s-3.745-1.14-3.745-2.84c0-1.68 1.477-2.83 3.745-2.83 2.283 0 3.758 1.15 3.758 2.83zm16.1 7.39-.216-1.7c-1.134.17-2.359.27-3.925.36v-2.7a3.809 3.809 0 0 0 3.151-3.8 4.225 4.225 0 0 0 -8.445 0 3.782 3.782 0 0 0 3.187 3.82v2.79c-1.278.04-2.5.04-3.871.04l.27 1.82c1.242 0 2.467-.04 4.087-.12 1.87-.09 4.228-.26 5.759-.51zm2.791-13.1h-2.092v16.85h2.089v-8.28h2.071v-1.82h-2.071v-6.75zm-10.173 5.24a2.126 2.126 0 0 1 2.161-2.21 2.084 2.084 0 0 1 2.125 2.21 2.144 2.144 0 0 1 -4.289 0zm34.359 2.23c-2.431-.42-5.726-2.61-5.726-5.58v-1.02h-2.2v1.02c0 3.01-3.1 5.13-5.708 5.52l.954 1.8c2.2-.51 5.006-2.23 5.834-4.5.918 2.21 3.655 3.97 5.852 4.5zm.414 7.28v-1.74h-6.23v-4.01h-2.124v4.01h-6.14v1.74zm15.267-5.2v-9.51h-2.106v9.51zm-10.839.85v1.76h8.751v4.71h2.106v-6.47h-10.856zm7.22-4.39a28.467 28.467 0 0 1 -6.662.67v-5.77h-2.088v7.64h1.584a35.984 35.984 0 0 0 7.436-.74zm12.861 8.57h2.053l1.116-3.29h4.591l1.117 3.29h2.287l-4.394-12.97h-2.268zm5.42-10.21h.054l1.728 5.18h-3.511zm9.881 10.21h2.214v-11.14h3.505v-1.83h-9.272v1.83h3.547v11.14zm13.7 0h7.85v-1.82h-4.951l1.458-1.57c1.513-1.64 3.385-3.7 3.385-6.01 0-2.34-1.386-3.7-4.087-3.7a6.871 6.871 0 0 0 -3.511.98l.36 1.72a5.312 5.312 0 0 1 2.557-.87c1.566 0 2.376.61 2.376 2.17 0 1.63-1.368 3.24-3.079 5.13l-2.358 2.61zm15.552.22c2.575 0 4.772-1.72 4.772-6.27v-.81c0-4.56-2.2-6.24-4.754-6.24-2.538 0-4.807 1.66-4.807 6.29v.81c0 4.41 2.089 6.22 4.789 6.22zm0-1.77c-1.674 0-2.484-1.44-2.484-4.45v-1c0-3.02.828-4.31 2.5-4.31 1.621 0 2.467 1.36 2.467 4.45v.96c.002 3.1-.826 4.35-2.483 4.35zm7.348 1.55h7.85v-1.82h-4.951l1.458-1.57c1.513-1.64 3.385-3.7 3.385-6.01 0-2.34-1.386-3.7-4.087-3.7a6.871 6.871 0 0 0 -3.511.98l.36 1.72a5.312 5.312 0 0 1 2.557-.87c1.566 0 2.376.61 2.376 2.17 0 1.63-1.368 3.24-3.079 5.13l-2.358 2.61zm15.552.22c2.575 0 4.772-1.72 4.772-6.27v-.81c0-4.56-2.2-6.24-4.754-6.24-2.538 0-4.807 1.66-4.807 6.29v.81c0 4.41 2.089 6.22 4.789 6.22zm0-1.77c-1.674 0-2.484-1.44-2.484-4.45v-1c0-3.02.828-4.31 2.5-4.31 1.621 0 2.467 1.36 2.467 4.45v.96c.002 3.1-.826 4.35-2.483 4.35zm26.309-3.93v-1.76h-8.751v-4.35h8.661v-1.76h-10.768v7.87h4.286v3.89h-6.158v1.74h14.494v-1.74h-6.23v-3.89zm17.452-7.36h-11.307v1.74h9.183c0 .68-.018 1.4-.036 2.17l-9.651.42.252 1.76 9.291-.51a31.226 31.226 0 0 1 -.45 3.59l2.034.28a46.157 46.157 0 0 0 .684-9.45zm1.477 12.99v-1.76h-5.312v-3.87h-2.088v3.87h-1.747v-3.87h-2.107v3.87h-3.241v1.76h14.5zm9.908-11.5c0 1.61 1.638 2.76 4.555 2.99v.91h-6.158v1.76h14.5v-1.76h-6.23v-.91c2.989-.21 4.681-1.34 4.681-2.99 0-1.79-2.07-3-5.671-3-3.624 0-5.677 1.21-5.677 3zm11.559 13.54v-1.79h-9.218v-.93h8.642v-4.24h-10.839v1.74h8.751v.95h-8.643v4.27zm-9.38-13.54c0-.75 1.278-1.36 3.493-1.36s3.511.61 3.511 1.36-1.3 1.37-3.511 1.37-3.493-.61-3.493-1.37zm26.226 13.41v-5.84h-10.911v5.84zm-2.088-1.74h-6.716v-2.42h6.72v2.42zm2.088-4.97v-9.93h-2.084v9.93h2.088zm-3.853-2.8a29.141 29.141 0 0 1 -6.482.51v-1.74h5.168v-4.9h-7.328v1.74h5.239v1.5h-5.185v5.18h2.16a35.126 35.126 0 0 0 6.644-.59zm17.212 2.21-.162-1.68c-.522.09-1.261.15-2.125.23.144-1.27.252-2.61.378-3.84-.666-.08-1.35-.15-2.034-.21l-.162 4.14c-.216.02-.432.02-.649.02l-1.35.06c-.054-1.4-.144-2.88-.162-4.22l-2.107.21c.144 1.3.252 2.74.378 4.04-.684.02-1.368.02-2.07.02.108.61.18 1.21.288 1.82a64.106 64.106 0 0 0 9.777-.59zm-7.85 1.65v1.72h8.93v4.16h2.125v-5.88zm11.037-.85v-10.1h-2.107v10.1zm-3.8-7.06v-1.75h-8.913v1.75z" fill="#fff" fill-rule="evenodd" transform="translate(-21.188 -1343.44)"/></svg>