<svg xmlns="http://www.w3.org/2000/svg" width="275.83" height="34.18"><path d="M2 2.75a11.94 11.94 0 00-1.69.08V1.29a12.2 12.2 0 001.79.1h3.7A8.7 8.7 0 005.73.13h1.71a6.84 6.84 0 00-.09 1.26h3.83a11.56 11.56 0 001.82-.1v1.54a14.15 14.15 0 00-1.73-.08H7.35v.78h2.93a11.81 11.81 0 001.56-.06 12.3 12.3 0 00-.06 1.42v2.59a10.41 10.41 0 00.06 1.43 10.54 10.54 0 00-1.57-.07H8.59a9.89 9.89 0 004.86 2.39 9.1 9.1 0 00-.8 1.49 14.35 14.35 0 01-2.87-1.28 8.94 8.94 0 01-2.45-2v2a8.94 8.94 0 00.1 1.6h-1.7a11.25 11.25 0 00.1-1.6v-2a9.19 9.19 0 01-2.68 2.21 13.82 13.82 0 01-2.36 1.08A5.9 5.9 0 000 11.32a12 12 0 002.63-1 8.28 8.28 0 002-1.44H3.12a10.22 10.22 0 00-1.58.07 2 2 0 010-.41V4.9a13.66 13.66 0 00-.06-1.44 9.41 9.41 0 001.53.07h2.82v-.78zm1.05 2v.86h2.78v-.88zm0 2v.88h2.78v-.88zm4.3-1.16h3v-.86h-3zm0 2h3v-.84h-3zM18.54 9a11.46 11.46 0 01-3.38 3.62 4.69 4.69 0 00-1-1.22A8.19 8.19 0 0016 10a7.06 7.06 0 001.24-1.73zm1.22-7.8a5.38 5.38 0 00-.09-1h1.74a4.79 4.79 0 00-.08 1v.42h4A10 10 0 0027 1.47v1.58A8.57 8.57 0 0025.43 3h-9.51a8.32 8.32 0 00-1.51.08V1.47a10.1 10.1 0 001.68.1h3.67zM17.24 8h-1.26A8.83 8.83 0 0016 6.92V4.16A1.77 1.77 0 0116 4a1.44 1.44 0 000-.18h8a9.17 9.17 0 001.28-.06 8.79 8.79 0 00-.06 1.14v3.11h-3.71v3.51c0 1.07-.46 1.38-2.12 1.38h-1.13a4.27 4.27 0 00-.41-1.5 11 11 0 001.53.13c.48 0 .57-.06.57-.3V8zm.28-1.38h6.19V5.15h-6.19zm6.33 1.64a7 7 0 001.38 1.64 8 8 0 001.94 1.33 5.77 5.77 0 00-1 1.35 11.47 11.47 0 01-2.08-1.74A13.31 13.31 0 0122.63 9zm9.6 2.12a4.36 4.36 0 01-.11 1.19 1.23 1.23 0 01-1.29.81 4.38 4.38 0 01-2.65-1 2.08 2.08 0 01-.77-1.59 3 3 0 011.2-2.07 7.75 7.75 0 012.05-1.19V4.38h-2.75V2.84A8 8 0 0030.8 3h1.05V2a9.61 9.61 0 00-.08-1.59h1.75a8.57 8.57 0 00-.08 1.52v.9a16.53 16.53 0 002.7-.53v1.57l-1.48.25c-.46.08-.74.12-1.27.18v1.82a9.67 9.67 0 012.85-.39c2.34 0 4 1.43 4 3.42a3.11 3.11 0 01-3.18 3.19 2.27 2.27 0 01-2.3-1.55A4.75 4.75 0 0134.58 9a5.7 5.7 0 001.56-.61 4.43 4.43 0 000 .61 2.73 2.73 0 00.2 1.24 1 1 0 00.88.47 1.43 1.43 0 001.38-1.56c0-1.21-1-2-2.48-2a8.82 8.82 0 00-2.68.46zm-1.58-2.26c-1.05.56-1.67 1.18-1.67 1.68a.78.78 0 00.46.65 1.65 1.65 0 00.9.31c.24 0 .31-.13.31-.59zm7.76-2.83a12.15 12.15 0 00-2.8-3l1.31-.88a12.1 12.1 0 012.78 2.87zm3.63.51a9.55 9.55 0 002.47.53c.05-.5.18-1.44.25-2A17.63 17.63 0 0144 4l-.48-.1.14-1.54a10.17 10.17 0 002.53.5 16.25 16.25 0 00.27-2.3.42.42 0 000-.14l1.84.17A11.71 11.71 0 0047.86 3a13.72 13.72 0 003.19-.3L51 4.3l-.56.06c-1 .08-1.45.11-2 .11h-.87c-.14 1-.18 1.31-.26 2H48a11.3 11.3 0 002.68-.28V7.8a1.49 1.49 0 00-.42.05 20.61 20.61 0 01-2.1.12h-.9c0 .38-.07.75-.07 1a1.73 1.73 0 00.52 1.44 2.52 2.52 0 001.73.52c1.78 0 2.81-.79 2.81-2.16A3.27 3.27 0 0051 6.34 5.23 5.23 0 0052.7 6a4.82 4.82 0 01.66.88A4.37 4.37 0 0154 8.94a3.35 3.35 0 01-1.34 2.62 5.08 5.08 0 01-3.17.92c-2.55 0-3.93-1.22-3.93-3.47a8.74 8.74 0 01.07-1.19c-.84-.12-1.39-.2-2-.33a2.18 2.18 0 00-.53-.08zm13.85-3.41a12.69 12.69 0 003 .24 11.11 11.11 0 00.41-2.31l1.88.16c-.08.25-.08.25-.22.81a12.65 12.65 0 01-.34 1.32c1.07 0 2.65-.15 3.57-.26a9.16 9.16 0 001.8-.35l.08 1.7a6 6 0 00-.81.07c-2 .22-3.27.32-5 .36A18.24 18.24 0 0160.36 7a6.5 6.5 0 013.53-.91c2.46 0 3.93 1.07 3.93 2.84 0 2.08-2 3.42-5.07 3.42a12.83 12.83 0 01-3.57-.49 7.75 7.75 0 00-.18-1.75 10.64 10.64 0 003.61.68c2 0 3.35-.72 3.35-1.84 0-.87-.84-1.34-2.35-1.34a7.1 7.1 0 00-3 .68 2.42 2.42 0 00-1 .81l-1.69-.58a9.66 9.66 0 00.66-1.26 31.57 31.57 0 001.17-3.11c-.74 0-1.37-.05-2.11-.1a4.14 4.14 0 00-.45 0h-.11zm17.23.8a19.82 19.82 0 00.66 2.1c.69-.21 1.18-.33 2-.5a13.94 13.94 0 00-.07-1.95h1.57a11.94 11.94 0 00-.08 1.75h.76A2.38 2.38 0 0181.67 7a2.38 2.38 0 01-1 2 3.52 3.52 0 01-2 .63 5.51 5.51 0 01-1.84-.34 6.11 6.11 0 00-.25-1.6 4 4 0 002 .49c1 0 1.59-.44 1.59-1.2s-.47-1.07-1.3-1.07a10 10 0 00-2.23.33c-.32.08-.33.08-1 .29l-.23.07c.07.28.07.28.39 1.4.23.8.61 2.33.87 3.49a6.26 6.26 0 00.32 1.16l-1.71.35a15.55 15.55 0 00-.45-2.45c-.24-1.08-.7-2.94-.83-3.55a15.6 15.6 0 00-2 .74l-.53-1.44a2.5 2.5 0 00.63-.17l.79-.23.65-.21a12.71 12.71 0 00-.77-2.06zm11.82.98a19.71 19.71 0 013.72 1.91L89 7.66a16.16 16.16 0 00-3.78-2.06zm-.63 6.28a12.77 12.77 0 004-.91 8.55 8.55 0 004-3.08 10.43 10.43 0 001.63-3.1 7 7 0 001.46 1.25 12.34 12.34 0 01-2.02 3.54c-1.77 2-4.16 3.29-7.6 4-.51.1-.7.14-1 .22zM87.24.78A22.57 22.57 0 0191 2.59l-.89 1.54a16.9 16.9 0 00-3.78-1.93zm14.42 11.35a7.64 7.64 0 00-1.26.06v-1.56a6.29 6.29 0 001.26.1H107V8.61h-4.88a9 9 0 00-1.26.06V7.14a6.29 6.29 0 001.26.1H107V5.29h-5.2a9.18 9.18 0 00-1.26.06V3.8a6.45 6.45 0 001.26.09h5.52a13 13 0 001.3-.05v7.88a7.45 7.45 0 000 1.07H107v-.66zm10.98-6.57a14.26 14.26 0 002.27.1h7.47a14.18 14.18 0 002.27-.1v2a15.4 15.4 0 00-2.28-.07h-7.44a15.57 15.57 0 00-2.29.07zm19.07 6.51a13.86 13.86 0 00-1.8.07 7.2 7.2 0 01.36-1.79 6.9 6.9 0 011.92-2.74 18.64 18.64 0 012.31-1.7c1.29-.88 1.68-1.34 1.68-2.06 0-1-.74-1.54-1.93-1.54a2 2 0 00-1.78.83 2.53 2.53 0 00-.47 1.29l-2-.24A4.19 4.19 0 01131 2a4.06 4.06 0 013.21-1.3c2.45 0 4 1.18 4 3.1a2.87 2.87 0 01-1 2.24 19.83 19.83 0 01-2.36 1.72 12.09 12.09 0 00-1.66 1.4 3.41 3.41 0 00-.8 1.26h3.92a15 15 0 002.05-.11v1.85c-.66-.06-1.22-.09-2.12-.09zm9.44-.91a4.07 4.07 0 01-.93-1.41 9.51 9.51 0 01-.54-3.22 8.2 8.2 0 01.85-3.88A4 4 0 01144.1.7a4.08 4.08 0 013 1.13 3.94 3.94 0 01.9 1.42 9.28 9.28 0 01.55 3.25 7.38 7.38 0 01-1 4.15 4.34 4.34 0 01-6.34.51zm4.47-1.08a5.37 5.37 0 001-3.59 5.44 5.44 0 00-1-3.59 2 2 0 00-1.53-.59 1.9 1.9 0 00-1.57.72 5.23 5.23 0 00-.92 3.4 6.27 6.27 0 00.71 3.33 2.23 2.23 0 003.31.32zm6.03 1.99a14.05 14.05 0 00-1.81.07 7.15 7.15 0 01.37-1.79 6.77 6.77 0 011.91-2.74 19.94 19.94 0 012.32-1.7c1.29-.88 1.68-1.34 1.68-2.06 0-1-.74-1.54-1.94-1.54a2 2 0 00-1.77.83 2.62 2.62 0 00-.41 1.29l-2-.24a4.19 4.19 0 011-2.24A4.06 4.06 0 01154.14.7c2.45 0 4 1.18 4 3.1a2.85 2.85 0 01-1 2.24 18.22 18.22 0 01-2.35 1.72 11.66 11.66 0 00-1.67 1.4 3.41 3.41 0 00-.8 1.26h3.93a14.71 14.71 0 002-.11v1.85c-.66-.06-1.22-.09-2.11-.09zM161.63 9a1.8 1.8 0 00.66 1.15 2.6 2.6 0 001.69.55c1.39 0 2.27-.72 2.27-1.82a1.62 1.62 0 00-.78-1.47 3.6 3.6 0 00-1.61-.34 13.26 13.26 0 00-1.5.07V5.43a9.09 9.09 0 001.36.07c1.4 0 2.23-.64 2.23-1.72s-.66-1.51-1.85-1.51a2.35 2.35 0 00-1.53.43 2.11 2.11 0 00-.57 1.08l-2-.33a3.49 3.49 0 011.33-2 4.51 4.51 0 012.74-.77c2.34 0 3.86 1.18 3.86 3a2.57 2.57 0 01-1 2.06 3.52 3.52 0 01-1.36.55 2.93 2.93 0 012 .93 2.68 2.68 0 01.68 1.94 3 3 0 01-.84 2 4.86 4.86 0 01-3.41 1.17 4.38 4.38 0 01-3.59-1.33 3.75 3.75 0 01-.78-1.57zm12.77 3.42c0-.14 0-.22-.07-.54a26.25 26.25 0 01-.33-4.46 24 24 0 01.27-3.71c.07-.42.07-.42.37-2a7.56 7.56 0 00.16-1V.62l1.89.19a22.56 22.56 0 00-1.12 7v1.28a1.94 1.94 0 00.17-.41c0-.09.1-.25.17-.47l.27-.63s0-.09.17-.44l1.16.52a11.65 11.65 0 00-1.46 4.34 2.6 2.6 0 000 .38zm3.16-9.17a10.08 10.08 0 002.54.22h1.29V1.36a3.84 3.84 0 000-.67h1.75a14 14 0 00-.14 2v.64a13.85 13.85 0 001.88-.33l.3-.12h.12v1.58a1.74 1.74 0 00-.4.07c-.48.1-1.21.22-1.95.31v.31c0 .78 0 .81.14 3.16a11 11 0 012.2 1.28 3 3 0 00.39.23l-.67 1.7a5.66 5.66 0 00-1.05-.9l-.89-.57v.2a2.48 2.48 0 01-.07.75c-.32.83-1.3 1.32-2.66 1.32-1.83 0-2.95-.87-2.95-2.3s1.19-2.31 2.88-2.31a3.36 3.36 0 011.25.19c0-.35-.06-1-.11-3h-1.26c-.52 0-1.08 0-1.74-.07h-.88zm2.85 5.87c-.9 0-1.46.35-1.46.92s.51.87 1.29.87a1.36 1.36 0 001.13-.43 1.16 1.16 0 00.19-.76v-.38a2.92 2.92 0 00-1.15-.22zm8.47-.94a19.33 19.33 0 01-.5 4.2l-1.28-.61a7.87 7.87 0 00.37-1.71 12.15 12.15 0 00.16-2.06zm2.85-.42c-.07-.31-.1-.46-.15-.66a7.58 7.58 0 01-.83.1v4.43a8.1 8.1 0 00.09 1.47h-1.52a10.73 10.73 0 00.09-1.49V7.33l-1.29.09a7.57 7.57 0 00-.83.07l-.15-1.41h1.1c.33-.39.47-.57.79-1A19 19 0 00187.17 3l.74-1.18.47.5a8.69 8.69 0 001-2.28l1.37.5a3.79 3.79 0 00-.21.38 22.65 22.65 0 01-1.33 2.41c.26.32.34.44.53.69a14 14 0 001.35-2.41l1.24.67c-.11.15-.22.32-.47.74a36.08 36.08 0 01-2.18 3.08c.72 0 1 0 1.53-.11a8.22 8.22 0 00-.4-1l1-.47a14.7 14.7 0 01.84 2.19 10.51 10.51 0 002.37-1.33A10 10 0 01194 3.87a7.74 7.74 0 01-1.22 1.07 3.47 3.47 0 00-.91-1.17 6.73 6.73 0 001.93-1.94 5.32 5.32 0 00.87-1.83l1.53.5c0 .05-.2.34-.49.87h1.75a6.32 6.32 0 001.23-.07l.7.83c0 .07-.22.39-.58 1a9.42 9.42 0 01-1.57 2.15 10.32 10.32 0 003.12 1.47 5 5 0 00-.84 1.48 14.13 14.13 0 01-3.4-1.94 12.58 12.58 0 01-3.35 1.94 2.93 2.93 0 00-.38-.78zm.48.21a24.74 24.74 0 01.56 3.33l-1.21.35a22.74 22.74 0 00-.43-3.4zm6.43 5.15a22.49 22.49 0 00-5.55-2l.7-1.39a35.88 35.88 0 015.46 1.91zm-.81-2.83a17.51 17.51 0 00-3.53-1.86l.81-1.2A20.38 20.38 0 01198.58 9zM195 2.65c0 .05 0 .08-.09.14a6.44 6.44 0 001.26 1.57 6.4 6.4 0 001.28-1.71zm8.79-.4a15.6 15.6 0 00-1.92.1V.69c.53.05 1.09.08 1.9.08h7.16a12.8 12.8 0 001.53-.07l.95 1.08c-.27.26-.31.31-.56.53a21.14 21.14 0 01-4.46 3.45v5.68c0 1-.51 1.38-2.07 1.38-.53 0-.71 0-2-.09a7.38 7.38 0 00-.41-1.65 13.25 13.25 0 002.2.21c.49 0 .63-.07.63-.34V5.71a13.42 13.42 0 00-.07-1.4H208a12 12 0 002.82-2.06zM219.34.74a14 14 0 00-.17 1.89c0 1.31-.14 4.15-.14 5.14a3.9 3.9 0 00.37 2.23 2.21 2.21 0 001.87.73 3.6 3.6 0 003.39-2.4 9.51 9.51 0 00.65-2.33A6.23 6.23 0 00227 7.09a8.57 8.57 0 01-1.67 3.57 5.29 5.29 0 01-4.2 1.78 4.6 4.6 0 01-2.45-.62c-1-.64-1.37-1.72-1.37-3.6 0-.73 0-2.13.11-5.64v-.91a7.43 7.43 0 00-.05-1zm20.82 11.32a9.44 9.44 0 00-2.59-1.92 5.87 5.87 0 00-.76-.35V10a2.19 2.19 0 01-.78 1.89 3.77 3.77 0 01-2.31.6c-2.05 0-3.22-.8-3.22-2.19s1.38-2.42 3.74-2.42a6 6 0 01.93.06V6.49h-1.4c-.85 0-1.37 0-2.53-.09a4.61 4.61 0 00-.54 0V4.89a18 18 0 003.27.24h1.14v-1.4h-.88c-.69 0-2.5-.07-3.43-.14h-.54V2.03a18.48 18.48 0 003.77.3h1.05A11.77 11.77 0 00235 .5h1.78a8.31 8.31 0 00-.1 1.71 18.6 18.6 0 004-.53l.07 1.56a7.69 7.69 0 00-1.1.12c-1.24.17-1.78.21-3 .28v1.39c.7 0 .7 0 2-.18a11.09 11.09 0 001.74-.31v1.54a9 9 0 00-.91.1c-.21 0-.84.1-1.89.19l-.95.06.05 1.69a12.57 12.57 0 013.84 2c.24.15.31.21.5.32zM234 9.22c-1.13 0-1.82.36-1.82 1s.6.84 1.6.84a1.47 1.47 0 001.22-.44 1.85 1.85 0 00.16-.9v-.38a4.77 4.77 0 00-1.16-.12zM247.34.74a14 14 0 00-.17 1.89c0 1.31-.14 4.15-.14 5.14a3.9 3.9 0 00.37 2.23 2.21 2.21 0 001.87.73 3.6 3.6 0 003.39-2.4 9.51 9.51 0 00.65-2.33A6.23 6.23 0 00255 7.09a8.57 8.57 0 01-1.67 3.57 5.29 5.29 0 01-4.2 1.78 4.6 4.6 0 01-2.45-.62c-1-.64-1.37-1.72-1.37-3.6 0-.73 0-2.13.11-5.64v-.91a7.43 7.43 0 00-.05-1zm10.51 1.87a11.81 11.81 0 001.88.12h.64a16.48 16.48 0 00.27-2.15 1.34 1.34 0 000-.25l1.85.17a9.66 9.66 0 00-.26 1.34c-.07.4-.09.48-.14.8a11.13 11.13 0 002.39-.42l.07 1.61-.45.07a20.42 20.42 0 01-2.29.3c-.16.87-.51 2.35-.87 3.63a47.79 47.79 0 01-1.57 4.63l-1.76-.68a30.19 30.19 0 002.5-7.54h-2.27zM264.8 8a2.33 2.33 0 00-.73 1.54c0 .71.7 1.08 2.1 1.08a10.48 10.48 0 003.18-.52l.13 1.72-.69.1a16.15 16.15 0 01-2.6.23 5.78 5.78 0 01-2.82-.56 2 2 0 01-1-1.73 3.93 3.93 0 011-2.42zm4.2-1.79a12.71 12.71 0 00-1.76-.1 15.48 15.48 0 00-3.7.4L263.37 5a17.88 17.88 0 014.17-.45h1.39zm6.83 4.42a2.37 2.37 0 11-2.37-2.37 2.37 2.37 0 012.37 2.37zm-3.64 0a1.28 1.28 0 101.27-1.27 1.28 1.28 0 00-1.27 1.27zM1 23.61a11.81 11.81 0 001.88.12h.62a16.48 16.48 0 00.27-2.15 1.34 1.34 0 000-.25l1.85.17a7.13 7.13 0 00-.26 1.34c-.07.4-.09.48-.14.8a11.13 11.13 0 002.39-.42l.07 1.61-.45.07a20.42 20.42 0 01-2.29.3c-.16.87-.51 2.35-.87 3.63-.43 1.44-.67 2.17-1.59 4.62l-1.77-.68a29.79 29.79 0 002.51-7.54H1zm7 5.43a2.33 2.33 0 00-.73 1.54c0 .71.7 1.08 2.1 1.08a10.54 10.54 0 003.18-.52l.13 1.72-.69.1a16.15 16.15 0 01-2.6.23 5.78 5.78 0 01-2.82-.56 2 2 0 01-1-1.73 4 4 0 011-2.42zm4.16-1.83a12.86 12.86 0 00-1.77-.1 15.45 15.45 0 00-3.69.4L6.5 26a17.88 17.88 0 014.17-.45h1.39zm11.72-4.7a22 22 0 00-1.73 1.54c-.71.66-1.69 1.45-3.33 2.69-.44.32-.53.44-.53.59s0 .24 1.26 1.16A49.24 49.24 0 0124 32.15a3 3 0 00.41.35L22.92 34a13 13 0 00-1.82-2 41.33 41.33 0 00-3.61-3c-.93-.71-1.18-1.09-1.18-1.73a1.69 1.69 0 01.46-1.14 10.17 10.17 0 011.24-1 30.71 30.71 0 003.23-2.73 6.55 6.55 0 001-1.16zM29.37 24a10.66 10.66 0 001.36.07c1.05 0 2.92-.13 3.78-.24-.23-.62-.84-2.1-.91-2.22l1.81-.23a12.07 12.07 0 00.77 2.24 22.12 22.12 0 003.43-.83l.2 1.67c-.37.05-.52.1-1 .19-.21.06-.89.2-2.06.42l1 1.78c.38.65 1 1.56 1.49 2.22l-1.63.74a2.49 2.49 0 00-1-.6 7.1 7.1 0 00-2.22-.33c-1.9 0-3 .58-3 1.57s1 1.42 2.94 1.42a9.77 9.77 0 004.2-.87l.23 1.79a14.56 14.56 0 01-4.44.76 5.77 5.77 0 01-3.9-1.07 2.61 2.61 0 01-.82-1.89 2.68 2.68 0 011-2.08 5.32 5.32 0 013.57-1 6.49 6.49 0 012.42.42 16 16 0 01-1.51-2.55 46.27 46.27 0 01-5 .33 5.91 5.91 0 00-.62.05zm16.68 3.74l.26-.31a2.64 2.64 0 011.81-.83 1.89 1.89 0 011.57.8c.28.45.35 1 .35 2.56 0 1 .06 1.29.31 1.5a1.13 1.13 0 00.74.2c.74 0 1.35-.52 1.75-1.5a8.87 8.87 0 00.53-2.23A4.38 4.38 0 0054.92 29c-.61 2.9-2 4.36-4.09 4.36a2.19 2.19 0 01-2.2-1.22 3.92 3.92 0 01-.24-1.55v-1.14a2 2 0 00-.11-.83.69.69 0 00-.63-.32c-.76 0-1.54.7-2.23 2a15.86 15.86 0 00-1.17 3.21l-1.81-.59c.19-.41.32-.74.77-2 3.22-9 3.22-9 3.32-9.53l1.89.48a12.57 12.57 0 00-.69 1.61c-.79 2-1.41 3.57-1.72 4.23zm16.24 1.9c-.8 1.81-1.7 2.64-2.84 2.64-1.6 0-2.75-1.63-2.75-3.88a6 6 0 011.54-4.08 6.29 6.29 0 014.82-2c3.36 0 5.55 2 5.55 5.19a5.39 5.39 0 01-3.41 5.23 9.23 9.23 0 01-2.2.59 4.35 4.35 0 00-.85-1.64 7.46 7.46 0 002.79-.69 3.91 3.91 0 001.94-3.5 3.46 3.46 0 00-1.72-3.11 3 3 0 00-1.41-.42 20.33 20.33 0 01-1.46 5.67zm-2.06-5a4.67 4.67 0 00-1.9 3.78c0 1.15.49 2.06 1.1 2.06s.94-.59 1.45-1.79A18.7 18.7 0 0062 23.94a3.58 3.58 0 00-1.77.69zm14.46 3.48c-.88.74-1.27 1.33-1.27 1.93 0 .91 1 1.3 3.39 1.3a14.5 14.5 0 004.4-.6l.15 1.92h-.62a21.83 21.83 0 01-3.78.33 10 10 0 01-3.5-.47 2.41 2.41 0 01-1.79-2.34 4 4 0 011.8-3zm-2.13-5.76a18.56 18.56 0 004.21.35 17 17 0 003.69-.27l.06 1.56a24 24 0 00-3.74 2.31l-1.22-1c.73-.46 1.42-.87 2.06-1.25a14 14 0 01-2.1.12 21.44 21.44 0 01-2.52-.11h-.52zm7 2.81a7 7 0 011.28 1.77l-1 .6a8.6 8.6 0 00-1.27-1.81zm1.75 1.49a9.51 9.51 0 00-1.24-1.74l1-.54a7.51 7.51 0 011.27 1.68zM86 28.44a15.64 15.64 0 00-1.64.08v-1.58A10.17 10.17 0 0086 27h1.21a11.28 11.28 0 00-1.08-2.34l1.32-.58a14 14 0 011.16 2.43L87.5 27h2.26v-3h-3.17a13.6 13.6 0 00-1.55.08v-1.6a10.63 10.63 0 001.64.1h3.08v-.39a9 9 0 00-.07-1.08h1.68a5.8 5.8 0 00-.07 1.09v.38h3.33a9.5 9.5 0 001.67-.1v1.57a9.56 9.56 0 00-1.57-.05H91.3v3h1a12.44 12.44 0 001.37-2.83l1.47.48A14.24 14.24 0 0193.88 27h1.47a8.94 8.94 0 001.65-.06v1.58a15.34 15.34 0 00-1.68-.08h-3.13a11 11 0 005 3.7 5.83 5.83 0 00-.93 1.47 13.73 13.73 0 01-3.18-2.12 10.7 10.7 0 01-1.87-2.16c0 .76.06 1 .06 1.34v2a9.08 9.08 0 00.1 1.43h-1.71a8.58 8.58 0 00.1-1.43v-3.3A10.33 10.33 0 0187.47 32a13.09 13.09 0 01-2.36 1.57 7.51 7.51 0 00-1-1.4 12.49 12.49 0 003.44-2.26 10 10 0 001.27-1.48zm17.88 1.3a7.85 7.85 0 01-1.72 1.19 3.21 3.21 0 00-.53-.74 27.7 27.7 0 01-2.79 1.47 1 1 0 01-.18.11.9.9 0 00-.14.07l-.35-1.64a9.08 9.08 0 001.58-.56v-3.71h-.41a6.44 6.44 0 00-1.09.07v-1.5a6 6 0 001.11.07h.39v-1.74a12.15 12.15 0 00-.08-1.55h1.62a9.56 9.56 0 00-.08 1.57v1.72h.25a6.55 6.55 0 001-.05V26a6.27 6.27 0 00-1-.06h-.26v3c.38-.19.49-.26.94-.52v1a5.42 5.42 0 001.67-1.42h-.31a10.87 10.87 0 00-1.3.06v-1.4a7.41 7.41 0 001.32.07h6.12a9 9 0 001.46-.08V28c-.39 0-.84-.05-1.45-.05h-4.28a6.25 6.25 0 01-.38.57h5.81v.82a11.93 11.93 0 01-.58 3.81c-.28.65-.73.83-2 .83h-1.17a3.47 3.47 0 00-.38-1.29 10.22 10.22 0 01-2.31 1.54 3.9 3.9 0 00-1-1.06 8.79 8.79 0 002.55-1.52 6.2 6.2 0 001.45-1.86h-.84a8.42 8.42 0 01-3.88 3.07 3.62 3.62 0 00-.89-1.07 7.25 7.25 0 003.25-2zm.42-3.61a10.86 10.86 0 00-1.29.05 10.67 10.67 0 00.06-1.36v-2a9.46 9.46 0 00-.07-1.32 9.41 9.41 0 001.42.07h4.08a9.81 9.81 0 001.5-.07 12.28 12.28 0 000 1.39v1.93a11.59 11.59 0 000 1.35h-1.27zm.21-2.74h4v-.58h-4zm0 1.6h4v-.57h-4zm4.28 4.75a8 8 0 01-2 2.75 10.22 10.22 0 001.44.11c.52 0 .67-.14.8-.74a19.31 19.31 0 00.23-2.12zM122 25.13a2.21 2.21 0 00-.17.41c-.14.39-.15.4-.2.53a3.78 3.78 0 011.46.69 3.11 3.11 0 011.33 2.64 3.83 3.83 0 01-2.42 3.51 8 8 0 01-2.86.74 4.41 4.41 0 00-.74-1.58 5.8 5.8 0 002.68-.57 2.34 2.34 0 001.64-2.18 2.05 2.05 0 00-1.57-1.93 12.38 12.38 0 01-2.44 3.72 5.36 5.36 0 01-3.67 2 2.21 2.21 0 01-2.19-2.45 4.39 4.39 0 011.39-3.14 5.83 5.83 0 011.92-1.26c0-.45 0-1 .06-1.68-.16 0-.91 0-2.27-.06h-.27a2.44 2.44 0 00-.32 0V23a12.42 12.42 0 002.62.21h.31v-1.64a.7.7 0 000-.22l1.74.08a8.14 8.14 0 00-.25 1.72 24.8 24.8 0 005.31-.74l.07 1.61-.55.06a46 46 0 01-4.93.49c0 .6-.06 1.05-.07 1.34a8 8 0 011.93-.18 3.65 3.65 0 01.53 0 5.44 5.44 0 00.29-1.07zm-6.94 3.71a2.79 2.79 0 00-.63 1.71c0 .63.31 1 .8 1a1.92 1.92 0 001.22-.54 15.46 15.46 0 01-.25-3.16 4 4 0 00-1.15.99zM117.8 30l.15-.2a10.66 10.66 0 001.74-2.8h-.36a4.92 4.92 0 00-1.68.25 23.58 23.58 0 00.09 2.41.5.5 0 010 .18.76.76 0 000 .15zm12.82-8.54a14.15 14.15 0 00-.5 2.71 13.4 13.4 0 00-.18 1.4 2.36 2.36 0 00.08-.31 5.66 5.66 0 01.89-1.67 3.34 3.34 0 012.66-1.43 2.93 2.93 0 012.43 1.26 5.89 5.89 0 011 3.73 5.9 5.9 0 01-3.61 5.76 12.1 12.1 0 01-2.75.78 5.09 5.09 0 00-.83-1.65 8.31 8.31 0 003.07-.8c1.63-.83 2.37-2.16 2.37-4.29s-.67-3.13-1.88-3.13a2.06 2.06 0 00-1.51.74 6.73 6.73 0 00-1.77 4.52v.3h-1.68a.73.73 0 000-.18v-1.93c0-1.13.08-2.69.19-3.65l.21-1.74a3 3 0 000-.48zm15.01.23c0 .14-.08.29-.11.43s0 .27-.08.48-.05.3-.24 1.36c-.06.3-.06.32-.1.5h.87a2.71 2.71 0 012.07.74 3.4 3.4 0 01.66 2.48c0 2.41-.41 4.33-1.08 5.1a1.77 1.77 0 01-1.55.63 6.44 6.44 0 01-2.16-.42v-.61a5.3 5.3 0 00-.14-1.19 5.94 5.94 0 002 .56c.41 0 .63-.27.84-1a12.14 12.14 0 00.37-3.19c0-1.29-.33-1.67-1.43-1.67h-.82a30 30 0 01-.85 3 31.69 31.69 0 01-1.68 3.94l-.21.41a2.17 2.17 0 01-.11.23l-1.63-.89a14.69 14.69 0 001.53-2.58 23.25 23.25 0 001.36-4 25.06 25.06 0 00-2.51.46l-.17-1.65c.52 0 2.22-.17 3-.29a21.44 21.44 0 00.36-2.83v-.19zm4.23.08a8 8 0 011.32 1.84l-1.09.57a8.38 8.38 0 00-1.32-1.86zm1 2.48a13.33 13.33 0 012.29 4.75l-1.59.79a13.57 13.57 0 00-1.11-3.15 9.09 9.09 0 00-1-1.65zm.83-.86a10.37 10.37 0 00-1.29-1.8l1.05-.55a8.73 8.73 0 011.3 1.75zm7.96-2a22.9 22.9 0 00.92 4.39c.91-.34.91-.34 3.63-1.24a3.25 3.25 0 00.53-.21l.6 1.77a35 35 0 00-4.62 1.34c-2 .76-3.07 1.66-3.07 2.66s1 1.46 3.21 1.46a15.46 15.46 0 004.52-.57l.16 1.92a9 9 0 00-1.14.09 28.06 28.06 0 01-3.27.21 7.8 7.8 0 01-4.07-.77 2.65 2.65 0 01-1.22-2.34 3.28 3.28 0 011.25-2.5 8.43 8.43 0 011.92-1.21 35.38 35.38 0 01-.94-3.79 5.33 5.33 0 00-.23-.91zm9.88 4.54a8.59 8.59 0 001.62-.24 24.37 24.37 0 014.4-.47 5.11 5.11 0 012.65.57 2.89 2.89 0 011.36 2.56 4.71 4.71 0 01-2.66 4 11.37 11.37 0 01-4.42 1.32 4 4 0 00-.73-1.75 9.81 9.81 0 004.25-1.04 2.9 2.9 0 001.71-2.47c0-1.05-.74-1.58-2.2-1.58a19.9 19.9 0 00-5.55 1zm2.18-4.47a19.19 19.19 0 005.84.81h.4l-.24 1.73a31.41 31.41 0 01-6.54-.89zm14.98 6.66c-.88.74-1.27 1.33-1.27 1.93 0 .91 1 1.3 3.39 1.3a14.5 14.5 0 004.4-.6l.15 1.92h-.62a21.83 21.83 0 01-3.78.33 10 10 0 01-3.5-.47 2.41 2.41 0 01-1.79-2.34 4 4 0 011.8-3zm-2.13-5.76a18.56 18.56 0 004.21.35 17 17 0 003.69-.27l.06 1.59a24 24 0 00-3.74 2.31l-1.22-1c.73-.46 1.42-.87 2.06-1.25a14 14 0 01-2.1.12 21.44 21.44 0 01-2.56-.17h-.52zm7 2.81a7 7 0 011.28 1.77l-1 .6a8.6 8.6 0 00-1.27-1.81zm1.75 1.49a9.51 9.51 0 00-1.24-1.74l1-.54a7.51 7.51 0 011.27 1.68zm3.97-2.26a9 9 0 001.35.07 34 34 0 003.79-.25c-.24-.61-.84-2.09-.92-2.21l1.81-.23a12.64 12.64 0 00.77 2.25 19.49 19.49 0 003.43-.85l.2 1.69a8.81 8.81 0 00-1 .19l-2.06.42c.5.94.82 1.53 1 1.78a26 26 0 001.49 2.21l-1.63.75a2.4 2.4 0 00-1-.61 7.07 7.07 0 00-2.22-.32c-1.9 0-3 .58-3 1.56s1 1.41 2.94 1.41a10 10 0 004.22-.92l.22 1.79a14.48 14.48 0 01-4.44.74 5.8 5.8 0 01-3.89-1.06 2.59 2.59 0 01-.83-1.89 2.7 2.7 0 011-2.08 5.37 5.37 0 013.57-1 6.93 6.93 0 012.42.41 14.86 14.86 0 01-1.5-2.56 45.86 45.86 0 01-5 .35 4.32 4.32 0 00-.62 0zm8.72-3.32a7.48 7.48 0 011.06 1.77l-1.1.43a7.65 7.65 0 00-1-1.79zm1.65 1.7a8.88 8.88 0 00-1-1.75l1.07-.39a7 7 0 011.06 1.7zm5.42-.17a16.44 16.44 0 00-.11 2.13 26.77 26.77 0 00.26 3.75c.24 1.46.69 2.36 1.14 2.36.21 0 .4-.21.57-.61a9.86 9.86 0 00.74-2.53 6.94 6.94 0 001.4 1.27c-.72 2.74-1.54 3.87-2.73 3.87-.94 0-1.69-.69-2.25-2s-.83-3.43-.88-7.31a8.31 8.31 0 00-.06-.9zm6.62.63a14 14 0 013.16 7.54l-1.74.66a14.37 14.37 0 00-.9-4.05 12.09 12.09 0 00-2-3.45zm15.6 9.82a9.44 9.44 0 00-2.59-1.92 5.87 5.87 0 00-.76-.35V31a2.19 2.19 0 01-.78 1.89 3.77 3.77 0 01-2.31.6c-2 0-3.23-.8-3.23-2.19s1.39-2.42 3.75-2.42a6 6 0 01.93.06v-1.4h-1.4c-.85 0-1.37 0-2.53-.09a4.7 4.7 0 00-.54 0v-1.51a18 18 0 003.26.24h1.15v-1.4h-.88c-.69 0-2.5-.07-3.43-.14h-.54v-1.56a18.4 18.4 0 003.77.3h1.05a11.77 11.77 0 00-.07-1.77h1.78a7.59 7.59 0 00-.1 1.71 18.6 18.6 0 004-.53l.07 1.56a7.9 7.9 0 00-1.11.12c-1.23.17-1.77.21-3 .28v1.39c.7 0 .7 0 2-.18a11.09 11.09 0 001.74-.31v1.54a9 9 0 00-.91.1c-.21 0-.84.1-1.89.19l-1 .06c0 1.36 0 1.36.06 1.69a12.57 12.57 0 013.84 2c.24.15.31.21.5.32zm-6.12-2.84c-1.14 0-1.82.36-1.82 1s.6.84 1.6.84a1.44 1.44 0 001.21-.44 1.72 1.72 0 00.17-.9v-.34a4.77 4.77 0 00-1.16-.16zm13.3-8.48a12.45 12.45 0 00-.17 1.89c-.05 1.31-.14 4.15-.14 5.14a4 4 0 00.36 2.26 2.24 2.24 0 001.88.73 3.6 3.6 0 003.39-2.4 9.51 9.51 0 00.65-2.35 6.09 6.09 0 001.69 1.08 8.57 8.57 0 01-1.67 3.57 5.29 5.29 0 01-4.2 1.78 4.58 4.58 0 01-2.45-.62c-1-.64-1.37-1.72-1.37-3.6 0-.73 0-2.13.11-5.64v-.91a7.43 7.43 0 00-.05-1zM253 23.61a11.81 11.81 0 001.88.12h.64a16.48 16.48 0 00.27-2.15 1.34 1.34 0 000-.25l1.85.17a7.13 7.13 0 00-.26 1.34c-.07.4-.09.48-.14.8a11.13 11.13 0 002.39-.42l.07 1.61-.45.07a20.42 20.42 0 01-2.29.3c-.16.87-.51 2.35-.87 3.63-.41 1.45-.65 2.15-1.57 4.63l-1.77-.68a29.79 29.79 0 002.51-7.54H253zm7 5.43a2.33 2.33 0 00-.73 1.54c0 .71.7 1.08 2.1 1.08a10.54 10.54 0 003.18-.52l.13 1.72-.69.1a16.15 16.15 0 01-2.6.23 5.78 5.78 0 01-2.82-.56 2 2 0 01-1-1.73 4 4 0 011-2.42zm4.16-1.83a12.86 12.86 0 00-1.77-.1 15.45 15.45 0 00-3.69.4l-.2-1.51a17.88 17.88 0 014.17-.45h1.39zm6.84 4.42a2.37 2.37 0 11-2.37-2.37 2.38 2.38 0 012.37 2.37zm-3.64 0a1.28 1.28 0 101.27-1.27 1.28 1.28 0 00-1.31 1.27z" fill="#fff" data-name="レイヤー 2"/></svg>