<svg xmlns="http://www.w3.org/2000/svg" width="25.24" height="11.41"><g data-name="レイヤー 2"><path d="M2.88 10.67a.65.65 0 01-.71.74c-.66 0-.75-.36-.75-.74v-5c-.17.2-.34.41-.62.41a.87.87 0 01-.8-.9 1.06 1.06 0 01.2-.58 10.58 10.58 0 001.48-2.45A15.06 15.06 0 002.2.61C2.29.3 2.39 0 2.88 0c.13 0 .78 0 .78.6a11.39 11.39 0 01-.78 2.49zM4 7.14a.64.64 0 01-.74-.7.64.64 0 01.74-.71h1.05V3.87h-.74a.65.65 0 01-.75-.69.65.65 0 01.75-.7h1.34c-.25 0-.29-.09-.58-.69-.06-.12-.31-.61-.36-.72a.88.88 0 01-.12-.41c0-.4.51-.58.81-.58s.56.24.74.58c.53 1 .53 1.07.53 1.21 0 .36-.29.57-.68.61H8A13.73 13.73 0 008.62.83c.2-.57.26-.77.74-.77.32 0 .82.16.82.59a8.6 8.6 0 01-.68 1.83h1.09c.48 0 .64.3.64.69a.62.62 0 01-.65.7h-.84v1.86h1.11a.61.61 0 01.6.7c0 .38-.15.71-.6.71H9.74v3.52a.65.65 0 01-.72.75c-.7 0-.73-.47-.73-.75V7.14H6.44a6.66 6.66 0 01-1.31 3.55c-.48.58-.69.63-.9.63a.89.89 0 01-.85-.81c0-.21.07-.35.34-.65A4.53 4.53 0 005 7.14zm2.5-1.41h1.79V3.87H6.5zM17.66 1.1a.56.56 0 01.64-.63c.55 0 .72.21.72.63v.76a.26.26 0 00.29.29h1.24V.66A.57.57 0 0121.2 0c.54 0 .74.2.74.66v1.49h1.27a.26.26 0 00.29-.29V1.1c0-.16 0-.63.65-.63s.71.21.71.63v1c0 1.09-.23 1.35-1.35 1.35h-.85a.46.46 0 01.16.34c0 .12-.06.23-.25.59h1.88c.2 0 .66 0 .66.57s-.31.56-.66.56h-2v.74h1.72c.17 0 .64 0 .64.54s-.34.55-.64.55h-1.72v.77h1.76a.51.51 0 01.6.52c0 .47-.34.53-.6.53h-1.79V10h2.11c.21 0 .71 0 .71.59s-.31.63-.71.63h-5.28c-.87 0-1.3-.31-1.3-1.31V7a.94.94 0 01-.65.37.73.73 0 01-.65-.5v3.83a.65.65 0 01-.73.74c-.66 0-.73-.41-.73-.74V5.81c-.18.2-.3.36-.57.36a.84.84 0 01-.77-.9 1 1 0 01.15-.52 11 11 0 001.52-2.85c.08-.24.42-1.48.44-1.53s.2-.35.61-.35c.12 0 .78 0 .78.62a9.92 9.92 0 01-.7 2.44v3.31a1.09 1.09 0 01.14-.24 8.84 8.84 0 001.41-1.93c.13-.27.36-.75.41-.83-.86-.06-.95-.51-.95-1.33zm1.73 5.11h1.69v-.74h-1.4a.26.26 0 00-.29.29zm1.69 1.09h-1.69v.77h1.69zm0 2.66v-.84h-1.69v.55a.26.26 0 00.29.29zm-1.36-6.55a.52.52 0 01.11.33 1.74 1.74 0 01-.18.6h1.42c.11-.19.27-.54.36-.71a.6.6 0 01.14-.22z" fill="#fff" data-name="レイヤー 1"/></g></svg>