<svg xmlns="http://www.w3.org/2000/svg" width="330.67" height="22.87"><path d="M3.77 20.11v1.32H0V1.85h17.21v19.58h-3.77v-1.32zm9.67-10.92v-4H3.77v4zm0 7.49v-4.25H3.77v4.25zm8.21-9.12V4.39h9.12v-4l3.45.22c.61 0 .68.21.68.33s-.1.27-.51.53v2.92h9.15v3.17h-7.73a22.65 22.65 0 008.4 9.27 8.17 8.17 0 00-2.62 2.76A28.51 28.51 0 0138 16.18V19h-3.61v3.38h-3.62V19h-3.58v-2.85a28.51 28.51 0 01-3.67 3.44 7.84 7.84 0 00-2.62-2.76 22.21 22.21 0 008.4-9.27zm9.12 3.65a26.91 26.91 0 01-3.24 4.56h3.24zm6.84 4.56a27.72 27.72 0 01-3.22-4.51v4.51zM55.68 1c.31.05.5.1.5.32s-.26.33-.4.38c-.07.72-.12 1.56-.17 2.54A16.44 16.44 0 0059.38 3c0 .89-.05 2-.05 2.55a9.74 9.74 0 00.05 1.29 17.86 17.86 0 01-3.94 1.08v1.64a12 12 0 014.08-.72 6.36 6.36 0 016.65 6.5 5.56 5.56 0 01-5.69 6c-3.62 0-3.74-3.22-3.76-4.23.5-.16 2.66-.88 3-1 0 .47 0 1.6 1.13 1.6.91 0 1.51-.91 1.51-2.11a3 3 0 00-3.19-3.17 11.38 11.38 0 00-3.72.84 70.38 70.38 0 00.31 7.23L52.39 22a33 33 0 00-4.2-3.44c-.6.65-.89 1-1.22 1.4l-1.73-4.13c1.1-.6 5.47-3.91 6.43-4.52V8.43c-1.42.08-3.1.1-4.47.1V4.7a9.42 9.42 0 001.9.15c.94 0 2.28-.1 2.57-.1 0-1.8 0-2.06-.1-4.46zM50.3 16.47a2.7 2.7 0 001.08.62c.36 0 .34-.84.32-1.75-.29.24-.8.6-1.4 1.13zM62.83 3.7a20.45 20.45 0 015.24 3.84 16.53 16.53 0 00-2.33 2.9 14.06 14.06 0 00-5.09-3.77zM83 1.49c.26.09.4.17.4.38s-.4.41-.69.43a28.83 28.83 0 00-1.42 2.52c1.27.12 2.5.17 3 .17h1.18a18 18 0 00-1.06 3.8 29.24 29.24 0 01-4.53-.22c-.29.65-.63 1.51-.87 2.11a35.69 35.69 0 005.33.36c-.46 1.3-.84 2.81-1 3.55a58.28 58.28 0 01-5.38-.57 8 8 0 00-.26 1.94c0 2.93 2.71 2.93 3.88 2.93s4.66 0 4.66-3.48a9.19 9.19 0 00-1.22-3.74 11.51 11.51 0 003.62-1.3 12.58 12.58 0 011.66 5.45c0 5.28-5.57 6.5-8.72 6.5-4.82 0-7.48-2.49-7.48-6a11.6 11.6 0 01.36-2.91 19.5 19.5 0 01-3.12-.88l.81-3.56a23 23 0 003.24 1c.1-.32.27-.84.72-2.14a20.82 20.82 0 01-3.57-1.2l.72-3.72a29.81 29.81 0 004.16 1.29c.25-.65 1.4-3.58 1.64-4.18zm22.19-.34c.19.05.46.15.46.39s-.12.31-.53.33c-.53 1.63-.58 1.8-.7 2.16a36.81 36.81 0 007.83-1.89c.12.79.43 2.61.67 3.57a41.65 41.65 0 01-9.82 2c-.57 1.59-.76 2.07-1.24 3.24a14.16 14.16 0 016.24-1.63c6.41 0 6.74 4.51 6.74 5.71a5.91 5.91 0 01-2.57 4.85c-1.27.87-3.67 2.31-10.32 2.31-1 0-1.7-.08-2.23-.12a17.21 17.21 0 00-.89-3.58 35.71 35.71 0 003.58.22c.55 0 4.66 0 7.13-1.47a2.43 2.43 0 001.29-2.24c0-1.4-.72-2.57-2.92-2.57a12.3 12.3 0 00-8.31 4l-3.46-1.73a33.89 33.89 0 003.2-6.7c-2.09 0-3.75-.07-4.66-.14l-.05-3.94a21.82 21.82 0 005.81.53 31.44 31.44 0 00.91-4.25zm23.16 3.17c.29.34 1.49 1.82 1.73 2.11a10.75 10.75 0 012.64-.43 4.57 4.57 0 014.78 4.69c0 4.48-4.88 4.89-7.32 5.08a16.42 16.42 0 00-1.11-3.21h1.11c.81 0 3.89 0 3.89-2.11 0-.41-.12-1.35-1.54-1.35H132c.43.7.67 1.15.89 1.51-.89.36-2.28.94-3.14 1.32a16.66 16.66 0 00-.89-1.85c-.89.41-1.42.7-1.76.89a47 47 0 013.36 9.27 31.88 31.88 0 00-3.4 1.65 41.13 41.13 0 00-2.81-9.21 34.3 34.3 0 00-2.71 2.32l-2.16-3.39a32.11 32.11 0 003.4-1.7 18.2 18.2 0 00-2.16-3.15l3.27-1.34a1.34 1.34 0 01.5-.14.26.26 0 01.29.26.69.69 0 01-.22.38l1.3 2.38 1.37-.67c-.38-.53-.51-.7-1.51-2zm13.32 5.18V6.05h9.1V.12l3.77.19c.14 0 .45 0 .45.31s-.24.32-.45.39v5h8.93V9.5h-8.86a17.38 17.38 0 009.31 10.37 9.32 9.32 0 00-2.78 2.86c-2.43-1.08-6.24-4.42-8.43-8.83a18.44 18.44 0 01-9.36 8.93 8.48 8.48 0 00-2.54-3.2c2-.79 8-3.07 9.6-10.13zm37.78 9.13h-5.07l1.47 1.44a.39.39 0 01.12.24c0 .19-.14.26-.34.26a1.2 1.2 0 01-.6-.17 21.8 21.8 0 01-7.29 2.47 11.35 11.35 0 00-2.26-3.07 18.5 18.5 0 006.17-1.17h-3.72v-8.45h17.38v8.45h-3.89a21.94 21.94 0 006.17 1.29 12 12 0 00-2.09 2.91 23.57 23.57 0 01-7.92-2.76zm-4.63-16.16V.12l4 .12c.12 0 .29.07.29.24s-.2.31-.63.53v1.46h2.26c-.17-.07-.34-.14-.72-.26A8.44 8.44 0 00181.08 0l3.65 1.35c.12 0 .24.12.24.26 0 .34-.5.34-.67.34a3.08 3.08 0 01-.24.5h3.5v5.81h-3.5V4.94h-14.91v3.44h-3.41V2.47h3.58a7.77 7.77 0 00-.77-1.13L171.86 0a11.4 11.4 0 011.44 2.06 12.3 12.3 0 00-1.24.41zm8.73 3.15v4h-13.89v-4zm-1.8 7.05v-.62h-10.22v.62zm-10.22 1.4v.62h10.22v-.62zm0 2v.65h10.22v-.65zm1.63-8.88V8h7v-.8zM207 20.59h-16.1c.31-4.2 2.66-5.92 7.75-9.38 3.86-2.64 3.86-3.19 3.86-4.2 0-1.8-1.92-2.26-3.17-2.26-3.24 0-3.57 2.31-3.67 3.87h-4.44a7.24 7.24 0 011.49-4.78c1.61-1.94 3.94-2.69 6.65-2.69 5.5 0 7.49 3 7.49 5.79a5.65 5.65 0 01-1.06 3.28c-1.22 1.71-6.07 4.81-6.31 5A13.45 13.45 0 00197 17h10zm18.12-9.14c0 2.3-.55 9.67-8 9.67a7.29 7.29 0 01-6.33-3.12c-1.25-1.83-1.68-5.12-1.68-7.2 0-2.31.55-9.68 8-9.68 7.03.03 8.01 6.42 8.01 10.33zm-11.54-.31c0 .79 0 6.36 3.55 6.36s3.53-5.55 3.53-6.36 0-6.36-3.53-6.36-3.55 5.49-3.55 6.36zm29.88 9.45h-16.13c.31-4.2 2.66-5.92 7.75-9.38 3.86-2.64 3.86-3.19 3.86-4.2 0-1.8-1.92-2.26-3.16-2.26-3.24 0-3.58 2.31-3.68 3.87h-4.44a7.29 7.29 0 011.49-4.78c1.61-1.94 3.94-2.69 6.65-2.69 5.5 0 7.49 3 7.49 5.79a5.58 5.58 0 01-1.06 3.28c-1.22 1.71-6.07 4.81-6.31 5a13.45 13.45 0 00-2.45 1.78h10zm8.73-8.47V9.19h1.2c.46 0 3.31-.26 3.31-2.35s-2.13-2-2.85-2c-1.85 0-3.15.29-3.19 2.37h-4.49c.53-4.51 3.69-6.07 7.85-6.07 4.48 0 7 2.07 7 5.14a4 4 0 01-2.93 4.08 4.48 4.48 0 013.41 4.51c0 4.27-3.79 6.24-8.11 6.24-4.13 0-7.56-1.92-7.9-6.84h4.52c0 .91.21 3.24 3.43 3.24.45 0 3.55-.07 3.55-2.69 0-1.53-1.08-2.71-3.43-2.71zm18.7-5.95a24.63 24.63 0 013.77 2.76 21.58 21.58 0 00-2 2.57A29.74 29.74 0 00269 8.79zm4.49 7.34v-3.14H281a8.81 8.81 0 000-1V7.18h-4.64v-3H281v-4l3.48.16c.48 0 .62 0 .62.29s-.24.39-.62.55v3h5.95v6.19h1.32v3.14h-6.65c1.39 2.84 4.08 4.73 6.84 6a7.56 7.56 0 00-2 3 18 18 0 01-7-6 13 13 0 01-7.3 6.15 6.65 6.65 0 00-2.16-2.66c-.34.7-.55 1.1-1.06 2a.4.4 0 01.15.31.32.32 0 01-.34.36.58.58 0 01-.38-.14l-2.79-1.85a24.56 24.56 0 003.77-7.51 8 8 0 002.71 1.9 26.46 26.46 0 01-2 4.77 9.25 9.25 0 007-6.29zM272.11 0A20.3 20.3 0 01276 2.54a22.42 22.42 0 00-2 2.76 25.67 25.67 0 00-3.67-2.76zM287 10.37V7.18h-2.5v3.19zm19.58 1.73h6.31v3.14h-6.31v3.58c.6 0 1.29.05 2.23.05a70.91 70.91 0 007.39-.41 7.89 7.89 0 00-.86 3.74H306a8.24 8.24 0 01-7.08-3.36 18.44 18.44 0 01-2.25 3.79 7.15 7.15 0 00-3.44-1.48 16.69 16.69 0 004.08-9.94l3.7.65c.22.05.48.09.48.38s-.14.29-.67.48c-.12.6-.24 1.2-.55 2.35a5.16 5.16 0 002.68 3.12v-8.3h-6.21V8.06h-3V2.5h9.09V.24l3.68.24c.33 0 .64.05.64.29s-.12.29-.64.53v1.2h9.21V8h-2.78v1.89h-6.31zm5.54-5.31V5.4h-14.95v1.39zm18.55-5.11v5.59l-.86 7.06h-2.31l-.88-7.06V1.68zm-4 14.86h4v4.05h-4z" fill="#ffa000" data-name="レイヤー 2"/></svg>