<svg xmlns="http://www.w3.org/2000/svg" width="628.75" height="30"><path d="M26.58 23v1.21h-3.46V6.28H38.9v18h-3.45V23zm8.87-10V9.33h-8.87V13zm0 6.86V16h-8.87v3.89zM43 11.51v-2.9h8.36v-3.7l3.17.2c.55 0 .61.2.61.31s-.08.24-.46.48v2.71H63v2.9h-7a20.81 20.81 0 007.7 8.5 7.43 7.43 0 00-2.4 2.53 25.65 25.65 0 01-3.34-3.13V22h-3.31v3.1h-3.32V22h-3.28v-2.61a26.43 26.43 0 01-3.37 3.15A7.13 7.13 0 0042.29 20a20.44 20.44 0 007.7-8.5zm8.36 3.35a25.57 25.57 0 01-3 4.18h3zM57.6 19a24.38 24.38 0 01-3-4.14V19zM74.17 5.48c.28 0 .46.09.46.29s-.24.31-.38.35c-.06.66-.11 1.43-.15 2.33a15.45 15.45 0 003.45-1.1v2.34a10.23 10.23 0 000 1.18 16.06 16.06 0 01-3.6 1v1.5a11 11 0 013.74-.66 5.84 5.84 0 016.1 6 5.1 5.1 0 01-5.22 5.48c-3.32 0-3.43-2.95-3.45-3.87l2.73-.92c0 .43 0 1.47 1 1.47.84 0 1.39-.84 1.39-1.94A2.77 2.77 0 0077.29 16a10.43 10.43 0 00-3.41.77 64.22 64.22 0 00.29 6.62l-3 1.37a30.07 30.07 0 00-3.85-3.15c-.55.59-.81.9-1.12 1.28l-1.59-3.79c1-.55 5-3.59 5.9-4.14v-2.64c-1.3.07-2.84.09-4.09.09V8.89a8.73 8.73 0 001.69.11c.86 0 2.09-.09 2.36-.09 0-1.65 0-1.89-.09-4.09zm-4.93 14.2a2.31 2.31 0 001 .57c.33 0 .3-.77.28-1.61-.27.22-.73.55-1.28 1.04zM80.72 8a18.74 18.74 0 014.8 3.52 15.66 15.66 0 00-2.14 2.66 12.73 12.73 0 00-4.66-3.45zm18.44-2c.24.08.37.15.37.35s-.37.37-.64.39c-.24.38-.5.82-1.29 2.31 1.16.11 2.28.16 2.75.16a10.1 10.1 0 001.07-.05 15.75 15.75 0 00-1 3.48 27.59 27.59 0 01-4.16-.2c-.27.6-.57 1.39-.79 1.94a33 33 0 004.88.33c-.42 1.19-.77 2.57-1 3.25-1.34-.08-2.86-.21-4.93-.52a7.53 7.53 0 00-.24 1.78c0 2.68 2.49 2.68 3.57 2.68s4.27 0 4.27-3.19a8.31 8.31 0 00-1.02-3.48 10.78 10.78 0 003.31-1.23 11.69 11.69 0 011.51 5c0 4.84-5.1 6-8 6-4.41 0-6.82-2.29-6.82-5.52a10.84 10.84 0 01.33-2.66 19 19 0 01-2.89-.82l.75-3.26a20.06 20.06 0 003 .95c.09-.29.24-.77.66-2a18.33 18.33 0 01-3.28-1.1l.66-3.41a26.07 26.07 0 003.9 1.21c.22-.59 1.27-3.28 1.49-3.83zm20.39-.36c.18 0 .42.13.42.35s-.11.29-.48.31c-.49 1.49-.53 1.65-.64 2A34 34 0 00126 6.54c.11.73.4 2.4.62 3.28a38.43 38.43 0 01-9 1.87c-.53 1.45-.71 1.89-1.15 3a13.06 13.06 0 015.72-1.5c5.88 0 6.19 4.14 6.19 5.24a5.42 5.42 0 01-2.38 4.41c-1.16.8-3.36 2.12-9.46 2.12-.92 0-1.56-.07-2-.11a15 15 0 00-.81-3.28c.64.06 1.94.2 3.28.2.51 0 4.27 0 6.53-1.35a2.22 2.22 0 001.19-2.06c0-1.28-.66-2.36-2.68-2.36a11.29 11.29 0 00-7.62 3.68l-3.16-1.59a30.86 30.86 0 002.92-6.18c-1.91 0-3.43-.07-4.27-.13V8.17a20.32 20.32 0 005.32.48 28.9 28.9 0 00.76-3.89zm21.23 2.9c.27.31 1.37 1.67 1.59 1.94a9.47 9.47 0 012.42-.38 4.18 4.18 0 014.37 4.29c0 4.12-4.46 4.49-6.71 4.67a14.24 14.24 0 00-1-2.95h1c.75 0 3.57 0 3.57-1.93 0-.38-.11-1.24-1.41-1.24h-.48c.39.63.61 1 .81 1.38-.81.33-2.09.86-2.88 1.21a13.21 13.21 0 00-.82-1.69c-.81.37-1.29.64-1.6.81a43.75 43.75 0 013.08 8.5 28.52 28.52 0 00-3.13 1.51 37.53 37.53 0 00-2.59-8.4c-.64.47-.82.62-2.49 2l-2-3.1a30.89 30.89 0 003.13-1.56 17.25 17.25 0 00-2-2.89l3-1.23a1.33 1.33 0 01.46-.13.24.24 0 01.26.24.61.61 0 01-.19.35c.33.6.85 1.59 1.19 2.18l1.25-.61c-.35-.49-.46-.64-1.39-1.81zM153 13.29v-3.16h8.34V4.69l3.45.18c.14 0 .42 0 .42.28s-.22.29-.42.35v4.63H173v3.16h-8.12a16 16 0 008.54 9.51 8.36 8.36 0 00-2.55 2.62 18.43 18.43 0 01-7.73-8.1 16.9 16.9 0 01-8.58 8.19 7.72 7.72 0 00-2.33-2.93c1.85-.73 7.35-2.82 8.8-9.29zm34.62 8.36H183l1.32 1.35a.42.42 0 01.11.22c0 .17-.13.24-.31.24a1.14 1.14 0 01-.55-.16 20 20 0 01-6.69 2.27 10.2 10.2 0 00-2.07-2.82 16.49 16.49 0 005.66-1.08h-3.41v-7.76H193v7.74h-3.57a19.87 19.87 0 005.66 1.19 11.25 11.25 0 00-1.92 2.67A21.76 21.76 0 01185.9 23zm-4.25-14.8V4.69l3.63.11c.11 0 .27.07.27.22s-.18.29-.57.48v1.35h2.06a4.57 4.57 0 00-.66-.24 7.86 7.86 0 001-2l3.34 1.23c.11 0 .22.12.22.25 0 .31-.46.31-.62.31a2.42 2.42 0 01-.21.46h3.21v5.3h-3.21v-3h-13.65v3.15h-3.12V6.85h3.27a7.81 7.81 0 00-.7-1l3-1.23A10.89 10.89 0 01182 6.47c-.66.2-.88.27-1.15.38zm8 2.88v3.65h-12.73V9.73zm-1.65 6.47v-.57h-9.37v.57zm-9.37 1.28v.57h9.37v-.57zm0 1.84v.6h9.37v-.6zm1.49-8.14v.73h6.41v-.73zM214 23.46h-14.79c.29-3.85 2.44-5.43 7.11-8.6 3.54-2.42 3.54-2.93 3.54-3.85 0-1.65-1.76-2.07-2.9-2.07-3 0-3.28 2.11-3.37 3.54h-4.07a6.62 6.62 0 011.37-4.38A7.45 7.45 0 01207 5.64c5 0 6.86 2.77 6.86 5.3a5.24 5.24 0 01-1 3c-1.13 1.57-5.57 4.41-5.79 4.56a11.8 11.8 0 00-2.24 1.69H214zm16.59-8.38c0 2.11-.51 8.86-7.33 8.86a6.67 6.67 0 01-5.81-2.83c-1.14-1.68-1.54-4.69-1.54-6.61 0-2.11.51-8.86 7.35-8.86 6.42 0 7.33 5.85 7.33 9.44zM220 14.79c0 .73 0 5.83 3.26 5.83s3.23-5.08 3.23-5.83 0-5.83-3.23-5.83S220 14 220 14.79zm26.29 8.67h-14.78c.28-3.85 2.44-5.43 7.1-8.6 3.55-2.42 3.55-2.93 3.55-3.85 0-1.65-1.76-2.07-2.91-2.07-3 0-3.28 2.11-3.36 3.54h-4.07a6.6 6.6 0 011.36-4.38 7.46 7.46 0 016.09-2.46c5 0 6.87 2.77 6.87 5.3a5.16 5.16 0 01-1 3c-1.12 1.57-5.57 4.41-5.78 4.56a11.63 11.63 0 00-2.25 1.69h9.15zm8.01-7.77V13h1.1c.42 0 3-.24 3-2.16S256.48 9 255.82 9c-1.7 0-2.88.26-2.93 2.17h-4.11c.48-4.13 3.39-5.56 7.19-5.56 4.12 0 6.47 1.89 6.47 4.71a3.71 3.71 0 01-2.68 3.74 4.09 4.09 0 013.12 4.13c0 3.92-3.47 5.72-7.44 5.72-3.78 0-6.93-1.76-7.23-6.27h4.13c0 .84.2 3 3.15 3 .42 0 3.26-.06 3.26-2.46 0-1.41-1-2.49-3.15-2.49zm22.33 4.42c0 .23-.15.64-.2.82a28 28 0 00-3.21-.33 31.13 31.13 0 001.17-6.67l3 .31h3.32v-.79h-7.17v-2.62h.24a9.9 9.9 0 00-2.38-.86 15 15 0 003.06-5.26l3 .57c.14 0 .33.07.33.29s-.26.33-.52.38l-.22.5h4.84V7.9a12.5 12.5 0 001.82-3.25l2.93.61c.22 0 .46.11.46.33s-.37.36-.64.44l-.22.42H292v2.42h-3c.24.57.33.84.46 1.19a15.6 15.6 0 00-3.19.68 12.18 12.18 0 00-.53-1.87h-1a16.64 16.64 0 01-1.38 2h7.35v5.85h-7v.77H292c-.09 1.3-.44 5-1.34 6.12-.33.42-.93 1-4.14.86a8.62 8.62 0 00-1-3.08 11.85 11.85 0 002 .26c.59 0 .74-.31 1-1.5h-4.67v5.07h-3.15v-3.81a15.5 15.5 0 01-6.75 3.9 4.8 4.8 0 00-2.29-2.31 13.68 13.68 0 006.34-2.89zm2.9-11.24c.11.18.62 1.15.71 1.37-.93.11-2.66.52-3 .57a17.73 17.73 0 00-.79-1.94h-.64c-.5.84-.81 1.32-1.27 2h8.29a13 13 0 00-2.64-1.1 7 7 0 00.88-.86zm1.17 7.81h-3.48c0 .22-.08.64-.11.77h3.59zm3.08-2.44h3.83v-.79h-3.83zm27.44 9.22h-14.79c.29-3.85 2.44-5.43 7.11-8.6 3.54-2.42 3.54-2.93 3.54-3.85 0-1.65-1.76-2.07-2.91-2.07-3 0-3.27 2.11-3.36 3.54h-4.07a6.6 6.6 0 011.36-4.38 7.48 7.48 0 016.1-2.46c5 0 6.86 2.77 6.86 5.3a5.16 5.16 0 01-1 3c-1.12 1.57-5.56 4.41-5.78 4.56a12.34 12.34 0 00-2.25 1.69h9.16zm3.56-1.21a24.76 24.76 0 004.48-8.25 7.79 7.79 0 002.18 2 28.71 28.71 0 01-3.54 7.59 2.33 2.33 0 010 .37c0 .22-.13.29-.24.29a.67.67 0 01-.42-.18zm2.46-16.48a23.2 23.2 0 013.52 3.3 9.89 9.89 0 00-2.26 2.27A36.06 36.06 0 00315 8zm11.64 5.87c.55 0 .7.18.7.4s-.3.33-.5.42c0 .55-.05.94-.15 1.76.43 1.74 1.82 5.48 6.84 8.25a8.06 8.06 0 00-2.09 2.6 18.67 18.67 0 01-5.94-6.38 13.22 13.22 0 01-6.6 6.51 6 6 0 00-2.23-2.51c7.24-2.31 7.13-9.22 7.09-11.29zm-1.69-6.18c.26.07.5.13.5.37s-.22.31-.59.38c-.24.66-.42 1.1-.66 1.74h8.07l1.24 1.16a22 22 0 01-2.82 6.41 10.64 10.64 0 00-3-1.06 16.59 16.59 0 001.75-3.46h-6.58a16 16 0 01-1.87 3 7 7 0 00-3.06-1.28 18.12 18.12 0 004-8zm27.45 5.37c.11 0 .27.13.27.26s-.18.27-.71.42c-.15.27-.24.4-.46.75h3.65v2.4h-4.55a15.32 15.32 0 004.88 2.18 6.88 6.88 0 00-1.72 2.42c-.36-.14-.6-.22-1.17-.49v6.32h-3.1v-.46h-8.56v.46h-3.24v-6c-.44.24-.66.33-.94.46a8.92 8.92 0 00-2.2-2.18 16.65 16.65 0 005.21-2.71h-4.7v-2.4h3.61a13.17 13.17 0 00-1.05-1l1.76-.92c-.36-.64-.57-.95-.79-1.28a17.93 17.93 0 002.46.15 26.18 26.18 0 006.47-.79h-9v2h-3.26V6.08h8.14V4.76l3.57.11c.13 0 .39.08.39.33s-.08.24-.52.41v.47h8.05v4.33H354v-2h-1.85l1.21 1.28a.43.43 0 01.13.26c0 .24-.27.22-.35.22zm-11.48 9.07h2.77v-1.06h-2.77zm0 2.75h2.77v-1.1h-2.77zm2.77-11.34c-1.17.09-1.83.14-2.53.16.2.22.29.31.46.53l-.64.26h2.71zm5.43 5.39a23.57 23.57 0 01-2.39-2v1.67h-3v-1.71h-.09a20.43 20.43 0 01-2.35 2zm-.57-4.86a5.72 5.72 0 00.88-1.52c-.92.25-1.54.38-2.73.6v1.34h2.93zm.93 7h-2.78v1.06h2.78zm0 2.71h-2.78v1.1h2.78zm21.16-12.48a19.65 19.65 0 007.13 4 8.29 8.29 0 00-2 2.4 14.91 14.91 0 01-2.22-1v7.75h3.67v2.46h-20.27v-2.43h3.72v-7.72c-.94.5-1.47.72-2 .94a8.32 8.32 0 00-2.11-2.35 15.34 15.34 0 006.71-4h-6.29V6.58h8.47V4.69l3.26.16c.19 0 .44 0 .44.26s-.2.33-.44.42v1h8.45v2.54zM371 13.16h-3.26V11a18.44 18.44 0 01-3.26 2.59h9.73a16.5 16.5 0 01-3.21-2.43zm1.56 3.57v-.8h-6.38v.8zm0 2.75v-.84h-6.38v.84zm0 2.77v-.86h-6.38v.86zm14.29-9.51v7.46c.22 1.26.57 1.79 6.86 1.79a74.61 74.61 0 008.17-.38 9.43 9.43 0 00-.73 3.13h-9.09c-3.45 0-5.28-.18-6.6-1.76-.81.7-2.37 1.69-2.46 1.76 0 .37-.09.57-.4.57s-.24-.11-.3-.27l-1.46-2.81a17.37 17.37 0 002.91-1.56v-5h-2.51v-2.93zm-3.59-8a16.38 16.38 0 013.46 3.06 24.71 24.71 0 00-2.25 2.35A17 17 0 00381.08 7zm13.74 6.6h3.36v2.26H397v1.15h3.36V17H397v1.19h4.27v2.61h-9.44v.5h-3.11v-9.66c-.46.58-.63.75-.85 1a10.5 10.5 0 00-2.87-1.57 17 17 0 004.62-6.45l2.91 1.19c.15.07.24.18.24.25 0 .28-.2.3-.53.37-.24.44-.39.72-.64 1.21h2a15.9 15.9 0 001.18-3l3.28.61c.2 0 .36.07.36.24s-.44.4-.64.45c-.29.61-.49 1.07-.82 1.69h4v2.57H397zm-3-1.13h-2.22v1.13H394zm0 3.39h-2.22v1.15H394zm0 3.39h-2.22v1.19H394zm25.46 3.83v-5.11l3.32.2c.31 0 .61.05.61.29s-.28.31-.55.39v8.56h-3.38V24h-12.28v1.14h-3.37v-9.43l3.26.18c.35 0 .66 0 .66.29s-.38.35-.55.39v4.25h4.42V15h-7V6.1l3.55.2c.13 0 .44 0 .44.28s-.25.29-.53.38v4.9h3.54V4.91l3.32.24c.38 0 .66 0 .66.29s-.2.31-.57.46v6h3.5V6.1l3.63.2c.18 0 .42 0 .42.26s-.29.31-.55.4v8h-7v5.85zM439.74 9l1.14.18c.51.09.71.11.71.35s-.29.29-.53.31c-.09.22-.24.53-.51 1h4.27V22.1c0 2.17-.5 3.1-4.07 3.1v-.57a3.89 3.89 0 00-.79-2.36v1.32h-6.36v.53h-2.88V19a1.13 1.13 0 01-.22.11 4.31 4.31 0 00-1.5-1.46v7.57h-3.19V10.87h4.6a8.89 8.89 0 00-.86-1.6l1.52-.27h-5.74V6.34h8.31V4.78l3.33.15c.22 0 .41.07.41.29s-.22.31-.41.39v.73h8.38V9zM429 13.69v3.1a4.85 4.85 0 002.33-3.1zm12.8 2.4a2.07 2.07 0 01-2 1.25h-2.82c-1.3 0-1.71-.46-1.71-1.49v-2.16H433l1.17.37c.15 0 .46.16.46.36s0 .24-.59.37A8 8 0 01432 18h8v4.09c.44 0 .82.11 1.06.11.68 0 .72-.22.72-.73zM433 9a11.06 11.06 0 011 1.7l-.79.19H437a13.59 13.59 0 00.87-1.89zm4.12 11.31h-3.52v1h3.48zm.9-6.6v.7c0 .29 0 .49.44.49h.66c.42 0 .48-.38.66-1.19zm3.78 0h-2a6.4 6.4 0 002 1.06zm9.07 10.23v1.21h-3.19V14.92h8.87v9.86h-3.13v-.84zm2.55-2.66V17.8h-2.55v3.48zm9.88-15.8v8.19h-11.84V5.48zm-8.51 2.75V11H460V8.23zm6.35 15.71v1.21H458V14.92h9.11v10.23h-3.12v-1.21zm2.8-2.66V17.8h-2.8v3.48zM479.36 5.9c.4.09.53.13.53.38s-.29.28-.57.3c-.11.44-.62 2.29-.73 2.78 3.89-.16 5.21 2.26 5.21 6.53 0 .35 0 5.06-1.82 7.37a4.08 4.08 0 01-3.54 1.45 5.79 5.79 0 01-1.87-.26 10.36 10.36 0 00-.47-3.59 8.38 8.38 0 002.31.44c1.81 0 2-4 2-6.16 0-.88-.07-2.48-2.07-2.48h-.66a45.69 45.69 0 01-5 11.9 11.27 11.27 0 00-3.17-1.76 39.56 39.56 0 004.64-9.37 17.83 17.83 0 00-3.13 1.19l-1-3.72c.88-.09 1.85-.31 5.08-1a23.07 23.07 0 00.67-4.9zM485 8.56a27.48 27.48 0 013.57 4.25 4.91 4.91 0 011.06 2.75c0 1.65-1.92 2.35-3.24 2.86a23.47 23.47 0 00-1.67-2.93c.83-.26 1.12-.35 1.12-.83 0-1.06-2.16-3.83-3.1-4.84zm1.24-2.73A14.48 14.48 0 01488.05 8c-.5.36-.62.44-1.6 1.17-.23-.29-1.32-1.74-1.81-2.24zm2.2-1.36a11.89 11.89 0 011.85 2.25L488.51 8a9.62 9.62 0 00-1.76-2.42zm3.92 5.77a22.58 22.58 0 013.46 2.53 19.91 19.91 0 00-1.88 2.35 26.44 26.44 0 00-3.3-2.49zm4.12 6.76v-2.91h5.14a7.56 7.56 0 000-.95v-2h-4.22V8.41h4.25V4.78l3.19.15c.44 0 .57 0 .57.27s-.22.35-.57.5v2.71h5.45v5.68h1.21V17h-6.11c1.27 2.6 3.74 4.33 6.27 5.54a7 7 0 00-1.83 2.75 16.53 16.53 0 01-6.4-5.54 11.88 11.88 0 01-6.69 5.63 6.09 6.09 0 00-2-2.46c-.31.64-.51 1-1 1.82a.4.4 0 01.13.29.29.29 0 01-.31.33.53.53 0 01-.35-.13l-2.55-1.7a22.53 22.53 0 003.45-6.88 7.39 7.39 0 002.49 1.74 24.81 24.81 0 01-1.83 4.37 8.48 8.48 0 006.46-5.76zm-3-12.39a19 19 0 013.52 2.3 19.52 19.52 0 00-1.8 2.53 23.5 23.5 0 00-3.37-2.53zm13.6 9.51v-2.96h-2.24v2.93zm18 1.55h5.78v2.88h-5.78v3.28c.55 0 1.18.05 2 .05a65 65 0 006.78-.38 7.36 7.36 0 00-.79 3.43h-8.57a7.55 7.55 0 01-6.5-3.08 16.27 16.27 0 01-2.07 3.48A6.43 6.43 0 00512.8 24a15.42 15.42 0 003.74-9.11l3.39.59c.2 0 .44.09.44.35s-.13.27-.62.44c-.11.55-.22 1.1-.5 2.16a4.74 4.74 0 002.46 2.86v-7.64H516V12h-2.75V6.87h8.34V4.8L525 5c.3 0 .59.05.59.26s-.11.27-.59.49v1.1h8.45v5h-2.56v1.76h-5.78zm5.08-4.86V9.53h-13.71v1.28zM543 5.83c.33 0 .5.07.5.31s-.15.27-.42.38a48.9 48.9 0 00-.7 8.73c0 5 .48 5.92 2.18 5.92 3.76 0 7.08-5.08 7.68-6.31a23.66 23.66 0 002.55 2.88c-2.51 4.07-6.25 7.13-10.69 7.13-4.89 0-5.28-4.14-5.28-9.64 0-1.28.22-6.84.22-8v-2zm26.52-.17c.2 0 .39.07.39.29s-.24.28-.39.3c-.09.86-.09 1.06-.11 1.3 1 0 4.42-.06 6.07.13V11a54.19 54.19 0 00-6.18-.2v2.42a28.39 28.39 0 005.59-1v3.28a42.45 42.45 0 01-5.5.72v2a21.91 21.91 0 017.39 2.78 32.27 32.27 0 00-2.44 2.75 17.76 17.76 0 00-4.71-2.75c0 1.15.19 3.75-4.62 3.75-3.41 0-5.9-1.57-5.9-3.57 0-2.51 3.15-3.59 6.82-3.52v-1.3c-2.18 0-6.16.11-6.16-2.07 0-.77.39-1.47 1.54-2.66l2.42.55c-.4.53-.46.6-.46.75s0 .62 2.57.51v-2.53c-2.71.11-5.08.41-6.91.66V8.08c1.08-.11 5.9-.33 6.89-.4 0-.83 0-1.69-.09-2.7zM565 20.18c-.11 0-2.22 0-2.22.9 0 .73 1.21.8 1.58.8 1.08 0 1.74-.4 1.61-1.61a5.13 5.13 0 00-.97-.09zm22-14.35c.33 0 .5.07.5.31s-.15.27-.42.38a48.9 48.9 0 00-.7 8.73c0 5 .48 5.92 2.18 5.92 3.76 0 7.08-5.08 7.68-6.31a23.66 23.66 0 002.55 2.88c-2.51 4.07-6.25 7.13-10.69 7.13-4.89 0-5.28-4.14-5.28-9.64 0-1.28.22-6.84.22-8v-2zm24.67 0c.2 0 .44.14.44.36s-.31.28-.49.28c-.08.35-.46 1.92-.55 2.23a14.42 14.42 0 003.66-1.08l.37 3.45a28.5 28.5 0 01-5 1A53 53 0 01604.36 25a21.42 21.42 0 00-3.36-1.69 35.89 35.89 0 005.44-10.68c-1.35.11-1.61.11-4 .14l-.29-3.61c.66 0 1.43.09 2.56.09s1.65 0 2.61-.09c.31-1.65.47-3.08.6-4.16zm1.65 13.25a2.17 2.17 0 00-.6 1.3.6.6 0 00.4.57 8 8 0 003 .37 15.78 15.78 0 004.84-.72 9.25 9.25 0 00-.15 1.72 14.55 14.55 0 00.13 1.82 26.15 26.15 0 01-4.56.38c-2.88 0-6.71-.42-6.71-3.55a6 6 0 01.86-2.88zm-1-6.23a28.7 28.7 0 014.87-.39 15.64 15.64 0 013.23.24c-.13 1.63-.15 2-.17 3.45a13.07 13.07 0 00-3.3-.39 42.5 42.5 0 00-4.63.39zm16.43-6.62v5.63l-.87 7.14h-2.33l-.89-7.12V6.23zm-4.07 15h4.07v4.07h-4.07zM0 0h10v30H0z" fill="#fff" data-name="レイヤー 2"/></svg>