<svg xmlns="http://www.w3.org/2000/svg" width="427.44" height="135" viewBox="0 0 427.44 135">
  <defs>
    <style>
      .cls-1 {
        fill: #fff;
      }
    </style>
  </defs>
  <g id="レイヤー_2" data-name="レイヤー 2">
    <g id="object">
      <g>
        <g>
          <path class="cls-1" d="M40.76,39v2H35.11V11.57H60.92V40.94H55.27V39ZM55.27,22.58v-6H40.76v6Zm0,11.23V27.44H40.76v6.37Z"/>
          <path class="cls-1" d="M67.58,20.13V15.38H81.26v-6l5.18.32c.9.07,1,.32,1,.5s-.14.4-.75.8v4.42h13.71v4.75H88.82A33.93,33.93,0,0,0,101.42,34c-2.38,1.91-3.1,2.59-3.92,4.14A42.9,42.9,0,0,1,92,33.06V37.3H86.7v5.08H81.26V37.3H75.9V33a44.45,44.45,0,0,1-5.51,5.15c-.83-1.59-1.58-2.27-3.92-4.14a33.28,33.28,0,0,0,12.6-13.9Zm13.68,5.48a40.41,40.41,0,0,1-4.86,6.83h4.86Zm10.26,6.83a40.11,40.11,0,0,1-4.82-6.76v6.76Z"/>
          <path class="cls-1" d="M118.63,10.27c.47.07.76.14.76.47s-.4.5-.62.58c-.1,1.08-.18,2.34-.25,3.81a25.73,25.73,0,0,0,5.65-1.8c0,1.33-.07,3-.07,3.82a15.78,15.78,0,0,0,.07,1.94,26.37,26.37,0,0,1-5.9,1.62c0,.4-.07,2.12-.07,2.45a17.93,17.93,0,0,1,6.12-1.08c5.43,0,10,3.78,10,9.75,0,6.7-5,9-8.53,9-5.44,0-5.62-4.83-5.65-6.34.75-.25,4-1.33,4.46-1.51,0,.72,0,2.41,1.69,2.41,1.37,0,2.27-1.37,2.27-3.17a4.53,4.53,0,0,0-4.79-4.75,16.89,16.89,0,0,0-5.58,1.26,108.08,108.08,0,0,0,.47,10.84l-4.93,2.23a49.5,49.5,0,0,0-6.3-5.15c-.9,1-1.33,1.48-1.84,2.09L103,32.52c1.66-.9,8.21-5.87,9.65-6.77,0-1.26,0-1.55,0-4.32-2.12.11-4.64.14-6.69.14V15.85a14.88,14.88,0,0,0,2.84.22c1.4,0,3.42-.15,3.85-.15,0-2.7,0-3.09-.14-6.69Zm-8.06,23.22a3.86,3.86,0,0,0,1.62.93c.54,0,.5-1.26.46-2.62C112.22,32.16,111.47,32.7,110.57,33.49Zm18.79-19.15a30.4,30.4,0,0,1,7.84,5.76,25.46,25.46,0,0,0-3.49,4.35,21,21,0,0,0-7.63-5.65Z"/>
          <path class="cls-1" d="M159.52,11c.4.14.62.25.62.57,0,.51-.62.61-1,.65-.39.61-.82,1.33-2.12,3.78,1.91.18,3.74.25,4.5.25s1.26,0,1.76-.07a26.14,26.14,0,0,0-1.58,5.69,44.56,44.56,0,0,1-6.8-.33c-.44,1-.94,2.27-1.3,3.17a53.37,53.37,0,0,0,8,.54c-.68,1.95-1.26,4.21-1.55,5.33-2.19-.15-4.68-.36-8.06-.86a11.52,11.52,0,0,0-.4,2.91c0,4.39,4.07,4.39,5.84,4.39,1.54,0,7,0,7-5.22a13.69,13.69,0,0,0-1.84-5.61A17.24,17.24,0,0,0,168,24.27c.86,1.59,2.48,5,2.48,8.17,0,7.92-8.35,9.76-13.06,9.76-7.24,0-11.24-3.74-11.24-9a17.92,17.92,0,0,1,.54-4.35A30.32,30.32,0,0,1,142,27.48l1.22-5.33a34.56,34.56,0,0,0,4.86,1.55c.14-.47.39-1.26,1.08-3.21a30.54,30.54,0,0,1-5.37-1.8l1.08-5.57a44,44,0,0,0,6.38,2c.36-1,2.08-5.36,2.44-6.26Z"/>
          <path class="cls-1" d="M192.9,10.52c.29.08.68.22.68.58s-.18.47-.79.5c-.79,2.45-.86,2.7-1,3.24A55,55,0,0,0,203.48,12c.18,1.19.65,3.92,1,5.36a62.3,62.3,0,0,1-14.72,3.06c-.87,2.38-1.16,3.1-1.88,4.86a21.34,21.34,0,0,1,9.36-2.45c9.61,0,10.12,6.77,10.12,8.57a8.89,8.89,0,0,1-3.85,7.27C201.61,40,198,42.13,188,42.13c-1.51,0-2.56-.11-3.35-.18a25.26,25.26,0,0,0-1.33-5.37,52,52,0,0,0,5.36.33c.83,0,7,0,10.69-2.2a3.66,3.66,0,0,0,2-3.38c0-2.09-1.08-3.85-4.4-3.85-3.16,0-8.24,1.62-12.45,6l-5.18-2.59a50.23,50.23,0,0,0,4.78-10.12c-3.13,0-5.61-.11-7-.21l-.07-5.91a32.85,32.85,0,0,0,8.71.8,49,49,0,0,0,1.37-6.38Z"/>
          <path class="cls-1" d="M227.64,15.27c.43.51,2.23,2.74,2.59,3.17a15.94,15.94,0,0,1,4-.61,6.84,6.84,0,0,1,7.16,7c0,6.73-7.31,7.34-11,7.63a24.57,24.57,0,0,0-1.65-4.82c.61,0,1,0,1.65,0,1.23,0,5.83,0,5.83-3.16,0-.62-.18-2-2.3-2-.32,0-.61,0-.79,0,.65,1,1,1.72,1.33,2.26-1.33.54-3.42,1.41-4.71,2A22.16,22.16,0,0,0,228.39,24c-1.33.61-2.12,1.05-2.62,1.33a70.89,70.89,0,0,1,5,13.9,50.53,50.53,0,0,0-5.11,2.48c-.64-5.07-3.24-11.52-4.21-13.82-1,.75-1.33,1-4.07,3.35l-3.24-5.08a46.61,46.61,0,0,0,5.12-2.55,27.71,27.71,0,0,0-3.24-4.72l4.89-2a2.17,2.17,0,0,1,.76-.21.38.38,0,0,1,.43.39,1.06,1.06,0,0,1-.32.58c.54,1,1.4,2.59,1.94,3.56l2.05-1c-.57-.8-.75-1.05-2.27-3Z"/>
          <path class="cls-1" d="M247.62,23.05V17.87h13.64V9l5.65.28c.22,0,.69,0,.69.47s-.36.47-.69.58v7.56H280.3v5.18H267A26.1,26.1,0,0,0,281,38.6c-3,2.34-3.71,3.49-4.18,4.28-3.63-1.62-9.36-6.62-12.63-13.24a27.66,27.66,0,0,1-14,13.39,12.82,12.82,0,0,0-3.82-4.79c3-1.19,12-4.61,14.4-15.19Z"/>
          <path class="cls-1" d="M304.28,36.73h-7.59l2.19,2.16a.69.69,0,0,1,.18.36c0,.29-.21.39-.5.39a1.81,1.81,0,0,1-.9-.25,32.94,32.94,0,0,1-11,3.71,16.68,16.68,0,0,0-3.38-4.61,27.3,27.3,0,0,0,9.25-1.76H287V24.06h26.06V36.73h-5.83a33.06,33.06,0,0,0,9.25,1.94A18.16,18.16,0,0,0,313.35,43a35.18,35.18,0,0,1-11.88-4.14ZM297.33,12.5V9l5.94.18a.39.39,0,0,1,.43.36c0,.32-.28.46-.93.79V12.5h3.38a11.36,11.36,0,0,0-1.08-.39,12.56,12.56,0,0,0,1.66-3.28l5.47,2c.18.07.36.18.36.39,0,.51-.76.51-1,.51a4.07,4.07,0,0,1-.36.75h5.26v8.68h-5.26v-5H288.84v5.15h-5.11V12.5h5.36a13.28,13.28,0,0,0-1.15-1.69l5-2a16.9,16.9,0,0,1,2.16,3.09,19,19,0,0,0-1.88.61Zm13.11,4.72v6H289.59v-6Zm-2.7,10.58v-.93H292.4v.93ZM292.4,29.89v.94h15.34v-.94Zm0,3v1h15.34v-1Zm2.45-13.32v1.19h10.47V19.59Z"/>
          <path class="cls-1" d="M347.44,39.68H323.26c.46-6.3,4-8.89,11.62-14.07,5.8-4,5.8-4.79,5.8-6.3,0-2.7-2.88-3.39-4.75-3.39-4.86,0-5.37,3.46-5.51,5.8h-6.66c.11-2.27.22-4.75,2.23-7.17,2.41-2.91,5.9-4,10-4,8.24,0,11.23,4.54,11.23,8.68a8.51,8.51,0,0,1-1.58,4.93c-1.84,2.56-9.11,7.2-9.47,7.45a19.71,19.71,0,0,0-3.67,2.77h15Z"/>
          <path class="cls-1" d="M374.59,26c0,3.45-.83,14.5-12,14.5-5.22,0-8-2.52-9.5-4.64-1.87-2.74-2.52-7.67-2.52-10.8,0-3.46.83-14.51,12-14.51C373.11,10.52,374.59,20.1,374.59,26Zm-17.32-.47c0,1.19,0,9.54,5.33,9.54s5.29-8.32,5.29-9.54,0-9.54-5.29-9.54S357.27,24.2,357.27,25.5Z"/>
          <path class="cls-1" d="M400.29,39.68H376.1c.47-6.3,4-8.89,11.63-14.07,5.79-4,5.79-4.79,5.79-6.3,0-2.7-2.88-3.39-4.75-3.39-4.86,0-5.36,3.46-5.5,5.8h-6.66c.1-2.27.21-4.75,2.23-7.17,2.41-2.91,5.9-4,10-4,8.24,0,11.23,4.54,11.23,8.68a8.59,8.59,0,0,1-1.58,4.93c-1.84,2.56-9.11,7.2-9.47,7.45a19.71,19.71,0,0,0-3.67,2.77h15Z"/>
          <path class="cls-1" d="M413.4,27V22.58h1.8c.68,0,5-.39,5-3.53,0-3-3.2-3-4.28-3-2.77,0-4.71.43-4.79,3.56h-6.73c.79-6.77,5.55-9.11,11.77-9.11,6.73,0,10.59,3.1,10.59,7.71,0,4.35-3,5.54-4.4,6.12,1.66.61,5.12,1.94,5.12,6.76,0,6.41-5.69,9.36-12.17,9.36-6.19,0-11.34-2.88-11.84-10.26h6.76c.08,1.37.33,4.86,5.15,4.86.68,0,5.33-.11,5.33-4,0-2.3-1.62-4.07-5.15-4.07Z"/>
          <path class="cls-1" d="M38.85,74.21c-.07.36-.25,1-.32,1.33A45.39,45.39,0,0,0,33.27,75a49.57,49.57,0,0,0,1.91-10.91l4.9.51h5.43V63.3H33.78V59h.39a16.21,16.21,0,0,0-3.88-1.41,24.64,24.64,0,0,0,5-8.6l4.9.94c.21,0,.54.11.54.46s-.44.55-.87.62c-.14.36-.25.61-.36.83h7.92v2.37a20.29,20.29,0,0,0,3-5.33l4.79,1c.36.07.75.18.75.54s-.61.58-1,.72c-.15.29-.22.4-.36.69h9.5v4H59.12c.4.94.54,1.37.76,1.95a25.16,25.16,0,0,0-5.22,1.11,19.56,19.56,0,0,0-.87-3.06H52.21A26.05,26.05,0,0,1,49.94,59H62v9.57H50.55v1.26H64c-.15,2.13-.72,8.14-2.2,10-.54.68-1.51,1.66-6.77,1.4a14.16,14.16,0,0,0-1.69-5,20.34,20.34,0,0,0,3.24.44c1,0,1.22-.51,1.58-2.45H50.55v8.28h-5V76.33a25.36,25.36,0,0,1-11,6.37c-1.58-2.77-2.95-3.45-3.74-3.81,2.38-.51,6.91-1.55,10.4-4.68Zm4.76-18.4c.18.29,1,1.88,1.15,2.24-1.51.18-4.36.86-4.93.93a30.72,30.72,0,0,0-1.3-3.17h-1C36.66,57.18,36.15,58,35.4,59H49a20.84,20.84,0,0,0-4.32-1.8,12.54,12.54,0,0,0,1.44-1.41Zm1.9,12.78H39.83c0,.36-.15,1-.18,1.26h5.86Zm5-4h6.27V63.3H50.55Z"/>
          <path class="cls-1" d="M95.44,79.68H71.26c.46-6.3,4-8.89,11.62-14.07,5.8-4,5.8-4.79,5.8-6.3,0-2.7-2.88-3.39-4.75-3.39-4.86,0-5.37,3.46-5.51,5.8H71.76C71.87,59.45,72,57,74,54.55c2.41-2.91,5.9-4,10-4,8.24,0,11.23,4.54,11.23,8.68a8.51,8.51,0,0,1-1.58,4.93c-1.84,2.56-9.11,7.2-9.47,7.45a19.71,19.71,0,0,0-3.67,2.77h15Z"/>
          <path class="cls-1" d="M101.28,77.7a40.5,40.5,0,0,0,7.34-13.5,12.93,12.93,0,0,0,3.57,3.21,47.39,47.39,0,0,1-5.8,12.41,3.27,3.27,0,0,1,.07.62c0,.36-.21.46-.39.46a1.11,1.11,0,0,1-.69-.28Zm4-27a39,39,0,0,1,5.76,5.4,16.48,16.48,0,0,0-3.71,3.71,56.7,56.7,0,0,0-5.65-5.55Zm19,9.61c.9.07,1.15.29,1.15.65s-.5.54-.82.68a27.32,27.32,0,0,1-.26,2.88c.72,2.85,3,9,11.2,13.5a13.13,13.13,0,0,0-3.42,4.25c-3.53-2-7.7-6.7-9.72-10.44a21.48,21.48,0,0,1-10.8,10.65,9.82,9.82,0,0,0-3.63-4.1c11.84-3.78,11.66-15.08,11.59-18.47Zm-2.77-10.11c.43.1.83.21.83.61s-.36.5-1,.61c-.4,1.08-.69,1.8-1.08,2.84h13.21l2,1.91A36.19,36.19,0,0,1,131,66.69,17.41,17.41,0,0,0,126.12,65a26.89,26.89,0,0,0,2.8-5.69H118.16a25,25,0,0,1-3.06,5c-2.23-1.37-3.09-1.8-5-2.09A29.67,29.67,0,0,0,116.58,49Z"/>
          <path class="cls-1" d="M166.51,59c.18.07.43.21.43.43s-.29.43-1.15.68c-.25.44-.4.65-.76,1.23h6v3.92h-7.45a24.77,24.77,0,0,0,8,3.56,11.74,11.74,0,0,0-2.85,4c-.57-.21-1-.36-1.9-.79V82.34h-5.08v-.75h-14v.75h-5.29V72.48c-.72.4-1.08.54-1.55.76a14.58,14.58,0,0,0-3.6-3.57,26.62,26.62,0,0,0,8.6-4.39h-7.74V61.36h5.91a22.23,22.23,0,0,0-1.73-1.62l2.88-1.51a23.79,23.79,0,0,0-1.3-2.09,30.09,30.09,0,0,0,4,.25,42.69,42.69,0,0,0,10.59-1.3h-14.8v3.24h-5.25V51.24h13.32V49.08l5.83.18c.21,0,.64.15.64.54s-.14.4-.86.69v.75h13.18v7.09h-5.12V55.09h-3l2,2.09a.72.72,0,0,1,.22.43c0,.4-.44.36-.58.36ZM147.72,73.85h4.53V72.12h-4.53Zm0,4.5h4.53v-1.8h-4.53Zm4.53-18.54c-1.9.14-3,.22-4.14.25.33.36.47.51.76.87l-1,.43h4.42Zm8.89,8.82a38.55,38.55,0,0,1-3.92-3.35h0V68h-4.94V65.28h-.14a32.39,32.39,0,0,1-3.85,3.35Zm-.93-8a10.18,10.18,0,0,0,1.44-2.48c-1.51.4-2.52.61-4.46,1v2.2H162Zm1.51,11.45h-4.53v1.73h4.53Zm0,4.43h-4.53v1.8h4.53Z"/>
          <path class="cls-1" d="M196.35,56.14c1.33,1.26,4.9,4.25,11.67,6.62a13.68,13.68,0,0,0-3.28,3.93A25.41,25.41,0,0,1,201.1,65V77.7h6v4H174v-4h6.09V65.07c-1.55.82-2.42,1.18-3.24,1.54a13.94,13.94,0,0,0-3.46-3.85,25.12,25.12,0,0,0,11-6.62H174V52.07h13.85V49l5.33.25c.32,0,.72.07.72.43s-.32.54-.72.68v1.73H207v4.07Zm-3.13,6.69h-5.33V59.31a30.86,30.86,0,0,1-5.32,4.24h15.91a26.89,26.89,0,0,1-5.26-4Zm2.56,5.83V67.37H185.34v1.29Zm0,4.5V71.8H185.34v1.36Zm0,4.54V76.3H185.34v1.4Z"/>
          <path class="cls-1" d="M219.21,62.15v12.2c.36,2.05.94,2.92,11.23,2.92a125.68,125.68,0,0,0,13.36-.61,15.54,15.54,0,0,0-1.19,5.11H227.75c-5.66,0-8.64-.29-10.8-2.88-1.34,1.15-3.89,2.77-4,2.88-.08.61-.15.93-.65.93-.29,0-.4-.18-.51-.43l-2.37-4.61a27.41,27.41,0,0,0,4.75-2.55V66.9H210V62.15Zm-5.86-13.07c3.92,2.88,5,4.21,5.65,5a38.78,38.78,0,0,0-3.67,3.85,28.64,28.64,0,0,0-5.55-5.26Zm22.53,10.77h5.51v3.7h-5.51v1.88h5.51V69.1h-5.51V71h7v4.28H227.42v.83h-5.07V60.35c-.76.94-1,1.22-1.41,1.62a17.06,17.06,0,0,0-4.71-2.56,28,28,0,0,0,7.56-10.54l4.75,1.94c.25.11.39.29.39.4,0,.46-.32.5-.86.61-.4.72-.65,1.19-1,2h3.28a25.21,25.21,0,0,0,1.94-4.9l5.37,1c.32.07.57.11.57.4,0,.47-.72.65-1,.72-.47,1-.79,1.76-1.33,2.77h6.51V58h-6.44ZM231.06,58h-3.64v1.84h3.64Zm0,5.54h-3.64v1.88h3.64Zm0,5.55h-3.64V71h3.64Z"/>
          <path class="cls-1" d="M272.56,75.36V67l5.44.32c.5,0,1,.08,1,.47s-.47.5-.9.65v14h-5.55V80.58H252.48v1.87H247V67l5.33.29c.57,0,1.08.07,1.08.47s-.61.57-.9.64v7h7.23V65.79H248.27V51.28l5.79.32c.22,0,.72,0,.72.47s-.39.47-.86.61v8h5.79V49.34l5.44.39c.61,0,1.08.07,1.08.47s-.33.5-.94.76v9.75H271V51.28l5.94.32c.28,0,.68,0,.68.44s-.47.5-.9.64V65.79H265.29v9.57Z"/>
          <path class="cls-1" d="M305.76,56l1.87.28c.83.15,1.15.18,1.15.58s-.47.47-.86.5c-.15.36-.4.87-.83,1.73h7V77.45c0,3.56-.83,5.07-6.66,5.07a9.07,9.07,0,0,0,0-.93,6.27,6.27,0,0,0-1.3-3.85V79.9H295.71v.86H291V72.37a4,4,0,0,1-.36.18,7,7,0,0,0-2.52-2.37V82.56H282.9V59.09h7.52a13.81,13.81,0,0,0-1.4-2.63l2.55-.46h-9.39V51.67h13.61V49.12l5.43.25c.36,0,.68.11.68.47s-.36.5-.68.65v1.18h13.72V56Zm-17.64,7.7v5.07a7.9,7.9,0,0,0,3.81-5.07Zm20.95,3.92a3.39,3.39,0,0,1-3.31,2h-4.61c-2.13,0-2.81-.75-2.81-2.44V63.7h-3.67l1.91.61c.25.07.75.25.75.58,0,.14,0,.39-1,.61a12.94,12.94,0,0,1-3.27,5.29h13.06v6.69c.72.08,1.33.18,1.73.18,1.12,0,1.19-.36,1.19-1.18ZM294.67,56a17.27,17.27,0,0,1,1.58,2.77l-1.29.32h6.3A23.09,23.09,0,0,0,302.7,56Zm6.73,18.5h-5.69v1.69h5.69Zm1.48-10.8v1.15c0,.47,0,.79.72.79h1.08c.68,0,.79-.61,1.08-1.94Zm6.19,0h-3.28a10.43,10.43,0,0,0,3.28,1.73Z"/>
          <path class="cls-1" d="M324,80.47v2h-5.21V65.71h14.5V81.84h-5.11V80.47Zm4.18-4.35V70.43H324v5.69Zm16.16-25.85V63.66H325V50.27Zm-13.93,4.5v4.5h8.53v-4.5Zm10.4,25.7v2h-5.22V65.71h14.91V82.45h-5.11v-2Zm4.58-4.35V70.43h-4.58v5.69Z"/>
          <path class="cls-1" d="M370.59,51c.65.14.87.21.87.61s-.47.47-.94.5c-.18.72-1,3.74-1.19,4.54,6.37-.26,8.53,3.7,8.53,10.69,0,.57,0,8.28-3,12.06-.8,1-2.31,2.37-5.8,2.37A9.31,9.31,0,0,1,366,81.3a16.88,16.88,0,0,0-.75-5.87,14.08,14.08,0,0,0,3.78.72c2.95,0,3.34-6.48,3.34-10.08,0-1.44-.1-4.06-3.38-4.06a9.79,9.79,0,0,0-1.08.07,75,75,0,0,1-8.21,19.47,17.71,17.71,0,0,0-5.18-2.88,63.91,63.91,0,0,0,7.59-15.33A28.78,28.78,0,0,0,357,65.28l-1.69-6.08c1.44-.15,3-.51,8.32-1.69a39.05,39.05,0,0,0,1.08-8Zm9.25,4.35a44.79,44.79,0,0,1,5.84,6.95c1.33,2.05,1.72,3.24,1.72,4.5,0,2.7-3.13,3.85-5.29,4.68a38.52,38.52,0,0,0-2.73-4.79c1.36-.43,1.83-.58,1.83-1.37,0-1.73-3.53-6.26-5.07-7.92Zm2-4.46a23.81,23.81,0,0,1,2.95,3.56c-.83.58-1,.72-2.63,1.91-.36-.47-2.16-2.85-2.95-3.67Zm3.6-2.23a19.59,19.59,0,0,1,3,3.67c-.79.57-2.08,1.47-2.91,2.05a16,16,0,0,0-2.88-4Z"/>
          <path class="cls-1" d="M33.35,98.05A36.85,36.85,0,0,1,39,102.19,33,33,0,0,0,35.94,106a44.41,44.41,0,0,0-5.4-4.07Zm6.73,11v-4.71H48.5a15,15,0,0,0,0-1.55V99.56H41.59v-4.5h6.95V89.12l5.22.25c.72,0,.93,0,.93.43s-.36.58-.93.83v4.43h8.92v9.29h2v4.71h-10c2.08,4.25,6.12,7.09,10.26,9.07a11.37,11.37,0,0,0-3,4.5,27.12,27.12,0,0,1-10.48-9.07,19.5,19.5,0,0,1-10.94,9.22,10.08,10.08,0,0,0-3.28-4c-.5,1.05-.82,1.66-1.58,3a.64.64,0,0,1,.22.47.48.48,0,0,1-.51.54.88.88,0,0,1-.57-.22l-4.18-2.77a37,37,0,0,0,5.65-11.26,11.74,11.74,0,0,0,4.07,2.84,40.05,40.05,0,0,1-3,7.16c2.95-.68,8.61-2.95,10.51-9.43ZM35.18,88.8a30.13,30.13,0,0,1,5.76,3.81A32.27,32.27,0,0,0,38,96.75a37.82,37.82,0,0,0-5.51-4.14Zm22.25,15.55V99.56H53.76v4.79Z"/>
          <path class="cls-1" d="M86.88,106.94h9.46v4.71H86.88V117c.9,0,1.94.07,3.34.07a105.82,105.82,0,0,0,11.09-.61,11.9,11.9,0,0,0-1.29,5.61H85.94c-6.59,0-9.57-3.6-10.62-5a27.15,27.15,0,0,1-3.38,5.69c-1.87-1.37-2.27-1.51-5.15-2.23a25.08,25.08,0,0,0,6.12-14.9l5.54,1c.33.07.72.14.72.57s-.21.43-1,.72c-.18.9-.36,1.8-.83,3.53a7.78,7.78,0,0,0,4,4.68V103.63H72.05v-2.74h-4.5V92.54H81.19V89.16l5.51.36c.5,0,1,.07,1,.43s-.18.43-1,.79v1.8h13.82v8.21H96.34v2.88H86.88Zm8.31-8V96.89H72.77V99Z"/>
          <path class="cls-1" d="M116.22,90.85c.54.07.83.11.83.5s-.26.43-.69.61a79.34,79.34,0,0,0-1.15,14.29c0,8.17.79,9.69,3.56,9.69,6.16,0,11.59-8.32,12.57-10.33a37.82,37.82,0,0,0,4.17,4.71C131.41,117,125.29,122,118,122c-8,0-8.64-6.76-8.64-15.76,0-2.09.36-11.2.36-13,0-1,0-2.27-.07-3.32Z"/>
          <path class="cls-1" d="M159.6,90.56c.32.07.64.11.64.47s-.39.47-.64.5c-.15,1.4-.15,1.73-.18,2.13,1.65,0,7.23-.11,9.93.21v5.36a88.09,88.09,0,0,0-10.11-.32v4a47.39,47.39,0,0,0,9.14-1.69v5.36a67.79,67.79,0,0,1-9,1.19c0,1.55,0,1.69.07,3.2,4.5.61,10.69,3.75,12,4.75a57.65,57.65,0,0,0-4,4.5,29,29,0,0,0-7.7-4.53c.07,1.87.32,6.12-7.56,6.12-5.58,0-9.65-2.56-9.65-5.83,0-4.11,5.15-5.87,11.16-5.76,0-.83,0-.83,0-2.13-3.56.07-10.08.18-10.08-3.38,0-1.26.65-2.41,2.52-4.36l4,.9c-.64.87-.75,1-.75,1.23s0,1,4.21.83c0-.65,0-3.57,0-4.14-4.42.18-8.31.68-11.3,1.08V94.52c1.76-.18,9.65-.54,11.27-.65,0-1.37,0-2.77-.15-4.43Zm-7.45,23.76c-.18,0-3.64,0-3.64,1.47,0,1.19,2,1.3,2.59,1.3,1.77,0,2.85-.65,2.63-2.63A8.05,8.05,0,0,0,152.15,114.32Z"/>
          <path class="cls-1" d="M188.22,90.85c.54.07.83.11.83.5s-.26.43-.69.61a79.34,79.34,0,0,0-1.15,14.29c0,8.17.79,9.69,3.56,9.69,6.16,0,11.59-8.32,12.57-10.33a37.82,37.82,0,0,0,4.17,4.71C203.41,117,197.29,122,190,122c-8,0-8.64-6.76-8.64-15.76,0-2.09.36-11.2.36-13,0-1,0-2.27-.07-3.32Z"/>
          <path class="cls-1" d="M228.57,90.85c.33.07.72.21.72.57s-.5.47-.79.47c-.14.58-.75,3.13-.9,3.64a23.41,23.41,0,0,0,6-1.77l.61,5.65a46.76,46.76,0,0,1-8.14,1.7,87,87,0,0,1-9.43,21,37.4,37.4,0,0,0-5.43-2.73A58.54,58.54,0,0,0,220.08,102c-2.2.18-2.63.18-6.59.22L213,96.28c1.08.07,2.34.15,4.18.15,1.62,0,2.7,0,4.28-.15.51-2.7.76-5,1-6.8Zm2.7,21.67a3.5,3.5,0,0,0-1,2.12,1,1,0,0,0,.65.94,13.22,13.22,0,0,0,4.82.61,25.89,25.89,0,0,0,7.92-1.19,15.45,15.45,0,0,0-.25,2.81,24.17,24.17,0,0,0,.22,3,43.9,43.9,0,0,1-7.46.61c-4.71,0-11-.69-11-5.8a9.75,9.75,0,0,1,1.4-4.71Zm-1.69-10.19a46,46,0,0,1,8-.65,25.16,25.16,0,0,1,5.29.4c-.22,2.66-.25,3.24-.29,5.65a20.85,20.85,0,0,0-5.4-.65,67.38,67.38,0,0,0-7.56.65Z"/>
          <path class="cls-1" d="M259.82,91.32V99.7l-1.3,10.59h-3.45L253.74,99.7V91.32Zm-6,22.28h6v6.08h-6Z"/>
        </g>
        <rect class="cls-1" width="15" height="135"/>
      </g>
    </g>
  </g>
</svg>
