<svg xmlns="http://www.w3.org/2000/svg" width="630" height="54.2"><path d="M0 49.2h630v5H0zM16.63 1.48c.47.07.76.14.76.46s-.4.51-.62.58c-.1 1.08-.18 2.34-.25 3.82a26.84 26.84 0 005.65-1.8c0 1.33-.07 3-.07 3.81a15.69 15.69 0 00.07 1.94 26.37 26.37 0 01-5.9 1.62c0 .4-.07 2.13-.07 2.45a18.18 18.18 0 016.12-1.08c5.43 0 10 3.78 10 9.76 0 6.69-5 9-8.53 9-5.44 0-5.62-4.82-5.65-6.33.75-.26 4-1.34 4.46-1.52 0 .72 0 2.41 1.69 2.41 1.37 0 2.27-1.36 2.27-3.16a4.53 4.53 0 00-4.79-4.75 16.7 16.7 0 00-5.58 1.26 108 108 0 00.47 10.83L11.7 33a49.5 49.5 0 00-6.3-5.15c-.9 1-1.33 1.48-1.84 2.09L1 23.72c1.66-.9 8.21-5.87 9.65-6.77v-4.32c-2.12.11-4.64.15-6.69.15V7.06a16 16 0 002.84.21c1.4 0 3.42-.14 3.85-.14 0-2.7 0-3.1-.14-6.7zM8.57 24.69a3.81 3.81 0 001.62.94c.54 0 .5-1.26.46-2.63-.43.36-1.18.9-2.08 1.69zM27.36 5.54a30.63 30.63 0 017.84 5.76 25.83 25.83 0 00-3.49 4.36A20.86 20.86 0 0024.08 10zm33.77-3.31c.39.15.61.25.61.58 0 .5-.61.61-1.05.65-.39.61-.82 1.33-2.12 3.78 1.91.18 3.74.25 4.5.25s1.26 0 1.76-.07a26.07 26.07 0 00-1.58 5.68 44.15 44.15 0 01-6.8-.32c-.44 1-.94 2.27-1.3 3.17a56.5 56.5 0 008 .54c-.68 1.94-1.26 4.21-1.55 5.32-2.19-.14-4.68-.36-8.06-.86a11.62 11.62 0 00-.4 2.92c0 4.39 4.07 4.39 5.84 4.39 1.54 0 7 0 7-5.22a13.69 13.69 0 00-1.84-5.62 17.49 17.49 0 005.44-1.94c.86 1.58 2.48 5 2.48 8.17C72 31.57 63.68 33.4 59 33.4c-7.24 0-11.24-3.74-11.24-9a18.1 18.1 0 01.51-4.4 29.24 29.24 0 01-4.67-1.33l1.22-5.33a32.12 32.12 0 004.86 1.55c.14-.47.39-1.26 1.08-3.2A31 31 0 0145.4 9.9l1.08-5.58a45.09 45.09 0 006.37 2c.36-1 2.08-5.36 2.44-6.26zm36.97-.5c.29.07.68.21.68.57s-.18.47-.79.51c-.79 2.45-.86 2.7-1 3.24a54.44 54.44 0 0011.69-2.85c.18 1.19.65 3.93 1 5.37A62.69 62.69 0 0195 11.63c-.87 2.37-1.16 3.09-1.88 4.86a21.34 21.34 0 019.33-2.49c9.61 0 10.12 6.77 10.12 8.57a8.91 8.91 0 01-3.85 7.27c-1.91 1.29-5.51 3.45-15.48 3.45-1.51 0-2.56-.11-3.35-.18a25.17 25.17 0 00-1.33-5.36 52.56 52.56 0 005.36.32c.83 0 7 0 10.69-2.19a3.67 3.67 0 002-3.39c0-2.08-1.08-3.85-4.39-3.85s-8.25 1.62-12.46 6l-5.23-2.54A50.5 50.5 0 0089.31 12c-3.13 0-5.61-.11-7-.22l-.07-5.9a33.37 33.37 0 008.76.78A48.88 48.88 0 0092.34.29zm38.34 4.75c.43.5 2.23 2.73 2.59 3.17A15.56 15.56 0 01143 9a6.84 6.84 0 017.16 7c0 6.74-7.31 7.35-11 7.64a24.47 24.47 0 00-1.65-4.83h1.65c1.23 0 5.83 0 5.83-3.17 0-.61-.18-2-2.3-2h-.79c.65 1 1 1.73 1.33 2.27-1.33.54-3.42 1.4-4.71 2a21.51 21.51 0 00-1.34-2.77c-1.33.61-2.12 1-2.62 1.33a70.8 70.8 0 015 13.89 48.89 48.89 0 00-5.11 2.49c-.64-5.08-3.24-11.52-4.21-13.83-1 .76-1.33 1-4.07 3.35L123 17.39a48.88 48.88 0 005.11-2.56 28.18 28.18 0 00-3.24-4.72l4.89-2a2 2 0 01.76-.22.39.39 0 01.43.4 1 1 0 01-.32.57c.54 1 1.4 2.6 1.94 3.57l2-1c-.57-.79-.75-1-2.27-2.95zM160 14.25V9.07h13.64V.18l5.65.29c.22 0 .69 0 .69.47 0 .28-.36.46-.69.57v7.56h13.41v5.18h-13.28a26.1 26.1 0 0014 15.55c-3 2.34-3.71 3.5-4.18 4.29-3.63-1.62-9.36-6.63-12.63-13.25a27.66 27.66 0 01-14 13.39 13 13 0 00-3.82-4.79c3-1.18 12-4.6 14.4-15.19zm60.28 13.68h-7.59l2.19 2.16a.69.69 0 01.18.36c0 .29-.21.4-.5.4a1.92 1.92 0 01-.9-.25 32.83 32.83 0 01-10.94 3.7 17 17 0 00-3.39-4.6 27.62 27.62 0 009.25-1.77H203V15.26h26.06v12.67h-5.83a33.15 33.15 0 009.25 1.95 18.28 18.28 0 00-3.13 4.35 35.18 35.18 0 01-11.88-4.14zm-6.95-24.22V.18l5.94.18c.18 0 .44.11.44.36s-.29.47-.94.79v2.2h3.38a8.61 8.61 0 00-1.08-.4A12.64 12.64 0 00222.73 0l5.47 2c.18.07.36.18.36.4 0 .5-.76.5-1 .5a4.44 4.44 0 01-.36.76h5.26v8.67h-5.26v-5h-22.36v5.14h-5.11V3.71h5.36A10.43 10.43 0 00203.94 2l5-2a16.65 16.65 0 012.16 3.1 17.65 17.65 0 00-1.87.61zm13.11 4.71v6H205.6v-6zM223.74 19v-.94H208.4V19zm-15.34 2.09V22h15.34v-.94zm0 3v1h15.34v-1zm2.45-13.32V12h10.48v-1.2zm37.58-7.39c.69.26 1 .36 1 .62s-.72.39-1 .43a42 42 0 00-2.33 14.86 12.47 12.47 0 00.25 2.88c.21-.39 1.08-2 1.51-2.7a10.56 10.56 0 002.77 3c-.9 1.69-2.55 5.86-2.38 8.6l-5.11 1.37A38.07 38.07 0 01240.59 18c0-6.52 1-11 2.3-16.7zm9.51 16.92a9.63 9.63 0 00-.54 2.56c0 1.58.86 1.83 5 1.83a36.53 36.53 0 008.89-1 23.8 23.8 0 00-.54 5.87 76.28 76.28 0 01-9.1.47c-5.37 0-9.51-.94-9.51-5.33a13.3 13.3 0 011.19-5.29zm-4.36-15.37c1.08.07 2.52.18 4.68.18A41.91 41.91 0 00268.84 4a53.9 53.9 0 00.51 5.47 53.54 53.54 0 01-11.09 1.08c-2.12 0-3.53-.11-4.68-.18zm24.56 2.81a29.44 29.44 0 004.53-.86c10.15-2.67 12.6-3.28 16.56-3.28 8.64 0 12.42 5.72 12.42 12.06 0 13.57-16.38 14.58-22.18 14.86a23.68 23.68 0 00-1.83-5.75c6.48 0 17.92-.19 17.92-9 0-1.87-.64-6.88-7-6.88-5.37 0-14.26 3.64-18.15 5.84zm48.63-3.56c.33.1.72.21.72.54s-.43.54-.75.57a32.15 32.15 0 00-2 10.84c0 4.39 1.37 7.45 2.41 7.45s2.52-3.17 3.49-5.44A16.56 16.56 0 00334.4 22c-2.88 7-6.15 9.43-7.92 9.43-2 0-7.34-4.29-7.34-15.41a64.3 64.3 0 011.76-13.5zm17.39.25a35.83 35.83 0 017.27 18.1c-2.13.83-4.68 2-5.87 2.67a32.72 32.72 0 00-6.05-17.82zM390.45 7C380.16 6.91 374 16 374 20.63c0 6 8.13 6.4 10 6.51a31.36 31.36 0 00-2.7 6.48c-6.3-1.48-13.24-4.82-13.24-12.56 0-6.63 5-10.77 6.37-11.92a122.9 122.9 0 00-14.87 2.13l-.76-6.77c.8 0 1.55.11 2.7.11 5.3 0 19.66-1 27.83-3.57z" fill="#ffa000" data-name="レイヤー 2"/></svg>