<?xml version="1.0" standalone="no"?>
<!DOCTYPE svg PUBLIC "-//W3C//DTD SVG 20010904//EN"
 "http://www.w3.org/TR/2001/REC-SVG-20010904/DTD/svg10.dtd">
<svg version="1.0" xmlns="http://www.w3.org/2000/svg"
 width="700.000000pt" height="700.000000pt" viewBox="0 0 700.000000 700.000000"
 preserveAspectRatio="xMidYMid meet">
<g transform="translate(0.000000,700.000000) scale(0.100000,-0.100000)"
fill="#000000" stroke="none">
<path d="M4087 6344 c-1 -1 -51 -4 -112 -8 -60 -3 -121 -8 -135 -11 -14 -2
-45 -6 -70 -9 -172 -20 -538 -116 -665 -175 -11 -5 -54 -24 -95 -42 -505 -222
-957 -615 -1258 -1096 -49 -78 -132 -231 -132 -244 0 -3 127 25 283 62 155 38
292 71 305 74 12 3 32 7 45 10 12 3 60 14 107 25 47 11 96 23 110 26 14 3 61
14 105 25 44 12 87 22 95 24 13 3 261 62 740 177 198 47 184 44 240 57 25 5
104 24 175 42 72 17 137 32 145 34 8 2 35 8 60 15 25 7 54 14 65 16 17 3 401
95 460 110 11 3 44 8 72 11 70 7 134 -23 171 -80 l27 -41 0 -1710 c0 -1624 -1
-1713 -18 -1746 -27 -53 -78 -86 -165 -106 -42 -10 -81 -19 -87 -20 -5 -1 -46
-11 -90 -22 -81 -20 -334 -81 -615 -147 -85 -21 -247 -60 -360 -87 -113 -27
-212 -51 -220 -53 -8 -2 -55 -13 -104 -25 -50 -11 -99 -22 -110 -25 -12 -2
-21 -4 -21 -5 0 -1 -10 -3 -22 -6 -12 -2 -104 -24 -205 -48 -101 -25 -226 -55
-278 -67 l-94 -22 29 -24 c17 -13 68 -49 115 -80 47 -31 97 -64 112 -74 60
-41 300 -161 418 -208 158 -62 354 -121 488 -146 15 -3 36 -7 47 -9 11 -2 40
-7 65 -11 25 -4 53 -9 63 -11 108 -20 541 -27 687 -11 69 8 267 40 315 51 125
30 195 50 275 76 153 52 188 66 349 143 483 230 913 622 1196 1091 119 199
241 480 301 696 13 49 46 190 50 220 3 19 9 51 14 70 5 19 11 62 15 95 3 33
10 94 14 135 9 72 6 488 -3 540 -2 14 -7 50 -11 80 -3 30 -8 62 -10 70 -3 8
-7 33 -10 55 -6 51 -8 58 -40 185 -14 58 -28 112 -30 120 -5 24 -75 223 -85
245 -5 11 -27 61 -48 110 -69 162 -196 378 -321 545 -30 41 -58 77 -61 80 -3
3 -32 37 -65 75 -272 320 -679 611 -1075 770 -211 85 -483 158 -670 180 -30 4
-57 8 -60 10 -12 7 -404 25 -413 19z"/>
<path d="M1575 4743 c-11 -3 -103 -25 -205 -50 -102 -25 -192 -46 -200 -48
-20 -4 -281 -66 -670 -159 -393 -94 -410 -99 -442 -133 -63 -68 -58 78 -56
-1802 l3 -1709 31 -39 c57 -70 126 -93 209 -68 22 6 43 12 48 13 27 3 133 27
192 42 39 10 124 30 190 45 66 15 140 33 165 40 25 7 68 17 95 24 47 10 144
33 410 96 61 15 117 28 125 30 44 10 391 94 505 122 11 2 38 9 60 13 22 5 94
22 160 39 66 16 134 32 150 35 17 3 43 9 59 14 l28 8 -78 64 c-201 166 -395
381 -546 605 -99 147 -151 242 -246 445 -50 107 -149 405 -166 497 -2 15 -12
66 -21 113 -9 47 -18 103 -21 125 -2 22 -6 49 -9 60 -22 103 -23 566 -1 682 2
10 7 38 10 63 3 25 8 56 11 70 3 14 9 48 15 75 17 87 19 99 31 145 43 168 149
461 185 515 8 11 14 23 14 27 0 8 -3 9 -35 1z"/>
</g>
</svg>
