<svg xmlns="http://www.w3.org/2000/svg" width="578.001" height="532.415"><path fill="#fff5f5" d="M557.841 356.798c4.457-3.553 7.014-8.74 7.014-14.231V214.48l9.649-7.332c2.222-1.689 3.497-4.2 3.497-6.889v-76.112c0-1.349-.751-2.529-2.008-3.157l-15.908-8.485L288.565.65a8.643 8.643 0 0 0-7.692.555L32.035 149.88s-6.154 3.487-6.154 10.047v71.613c0 3.222 1.876 6.165 4.897 7.68l12.432 6.749v150.104c0 4.853 2.874 9.207 7.5 11.362l264.664 123.273a18.111 18.111 0 0 0 7.657 1.707c3.36 0 6.696-.947 9.63-2.817a17.53 17.53 0 0 0 2.06-1.532c.287.193.593.368.916.523 2.572 1.239 5.538.919 7.74-.837l214.464-170.954Z"/><path fill="#ffb5b3" d="M297.15 532.414c-2.596 0-5.206-.565-7.657-1.707l-125.938-58.658a7.37 7.37 0 0 1-7.279.657l-26.823-12.124c-3.129-1.414-5.362-4.133-6.098-7.258l-98.526-45.891c-4.626-2.154-7.5-6.508-7.5-11.362V254.596h1.195v141.477c0 4.384 2.609 8.322 6.809 10.278l97.794 45.55a9.984 9.984 0 0 1-.035-.831V298.519L4.897 239.22C1.876 237.705 0 234.762 0 231.54v-71.613c0-1.229.645-2.369 1.725-3.047a4.007 4.007 0 0 1 3.891-.214l120.623 58.089c-.585-2.547-2.362-4.809-4.936-6.037L6.342 153.892a2.272 2.272 0 0 1-1.295-1.95 2.275 2.275 0 0 1 1.107-2.062L112.49 86.347a3.078 3.078 0 0 1-1.699-1.944c-.386-1.314.142-2.645 1.345-3.391l27.245-16.898c2.952-1.831 6.486-2.473 9.95-1.806.789.152 1.641.319 2.553.501L254.993 1.205a8.643 8.643 0 0 1 7.692-.555l112.022 46.149a88.59 88.59 0 0 1 2.052-.793c3.768-1.403 8.07-1.295 11.804.295l34.869 14.854c1.332.568 2.193 1.78 2.245 3.163.043 1.14-.474 2.204-1.379 2.91l109.905 45.277c2.898 1.194 4.77 3.89 4.77 6.87v7.265l7.033-5.289a3.896 3.896 0 0 1 4.105-.361c1.257.628 2.008 1.808 2.008 3.156v76.112c0 2.689-1.275 5.2-3.497 6.889l-9.649 7.332v128.087c0 5.491-2.556 10.678-7.014 14.231l-68.873 54.9v1.396c0 3.729-1.701 7.287-4.666 9.763l-23.516 19.635c-1.109.925-2.626 1.123-3.96.516-1.234-.562-2.018-1.719-2.045-3.019l-.021-1.024-111.384 88.787c-2.202 1.755-5.168 2.076-7.74.836a7.56 7.56 0 0 1-.916-.523 17.699 17.699 0 0 1-2.06 1.532 17.87 17.87 0 0 1-9.628 2.818ZM164.562 471.2l125.435 58.424c5.252 2.446 11.286 2.06 16.14-1.035a16.506 16.506 0 0 0 1.755-1.287 6.317 6.317 0 0 1-1.955-4.605V390.322c-.404-.25-.823-.483-1.255-.701l-138.268-69.369v146.44a6.369 6.369 0 0 1-1.852 4.508Zm145.182 56.023c.17.103.347.199.531.288 2.155 1.038 4.637.772 6.476-.694l112.098-89.355-2.841-137.142-116.781 88.739a4.358 4.358 0 0 1-1.806.811c4.298 3.018 6.882 7.778 6.882 12.919V516.25c0 4.186-1.628 8.034-4.559 10.973Zm-2.613-136.087v131.561a5.15 5.15 0 0 0 1.649 3.798c2.781-2.733 4.327-6.33 4.327-10.244V402.788c0-4.586-2.234-8.847-5.976-11.652Zm-182.335 62.861c.843 2.366 2.682 4.383 5.148 5.497l26.823 12.124a6.189 6.189 0 0 0 5.49-.173l-37.461-17.448Zm-.39-1.5 38.991 18.161c1.167-1.025 1.821-2.43 1.821-3.965v-147.04l-40.931-20.535V451.07c0 .482.04.958.119 1.427Zm305.649-14.469.04 1.937c.017.849.52 1.58 1.345 1.956.715.326 1.799.406 2.699-.345l23.516-19.635c2.693-2.248 4.237-5.472 4.237-8.846v-.443l-31.837 25.376Zm-2.871-138.602 2.84 137.099 31.868-25.403V285.957c0-4.421-.081-8.653-.251-12.714l-34.457 26.183Zm35.616-27.064c.194 4.332.287 8.854.287 13.595v124.212l68.128-54.306c4.171-3.325 6.564-8.172 6.564-13.297V215.388L462.8 272.362Zm-68.928-35.101-81.496 61.29c-3.333 2.507-5.245 6.238-5.245 10.236v79.919a3.16 3.16 0 0 0 1.372-.599l117.473-89.265-.534-25.754 1.195-.024.516 24.884 34.423-26.157c-1.373-28.946-7.363-49.32-20.59-69.962l-29.39 22.103c.162 11.742-3.015 24.147-9.521 37.093l-1.1-.459c.017-.051 1.708-5.279-.551-12.305-1.011-3.148-2.938-6.979-6.552-11Zm-218.061 1.367 123.542 59.495c2.586 1.246 4.193 3.72 4.193 6.456v81.361c0 1.051.597 1.974 1.596 2.47.257.127.524.219.794.275v-79.898c0-4.377 2.086-8.456 5.722-11.191l81.397-61.216c-3.844-4.026-9.413-8.203-17.466-12.046-2.011-.959-4.11-1.954-6.282-2.984-28.71-13.606-69.991-33.17-92.334-58.551a71.025 71.025 0 0 1-3.759-.534c-3.503 2.519-50.149 36.031-79.285 55.307-8.332 5.514-14.111 13.15-18.118 21.056Zm-9.398 80.288 136.154 68.308a3.883 3.883 0 0 1-.215-1.284v-81.361c0-2.274-1.347-4.335-3.517-5.38L175.28 239.698c-3.167 6.522-5.158 13.172-6.409 18.915-3.089 14.181-2.465 26.072-2.458 26.19v.034l.001 34.079h-.001Zm-42.126-21.135 40.931 20.535v-33.464c-.027-.536-.584-12.387 2.479-26.464 1.533-7.046 3.708-13.494 6.482-19.221l-46.535-22.41a9.244 9.244 0 0 1-.179 1.664c-1.449 7.28-3.177 19.077-3.177 33.934v45.426ZM3.859 157.458c-.522 0-1.04.146-1.499.434-.741.465-1.165 1.207-1.165 2.035v71.613c0 2.767 1.624 5.301 4.238 6.612l117.659 59.029v-44.826c0-14.954 1.74-26.834 3.2-34.167.134-.672.18-1.346.146-2.011L5.097 157.742a2.854 2.854 0 0 0-1.238-.284Zm438.086 43.649c13.261 20.658 19.328 41.025 20.785 69.806l75.048-57.027v-84.852l-95.833 72.073Zm-47.115 35.434c3.729 4.172 5.716 8.157 6.758 11.434 1.116 3.508 1.305 6.562 1.189 8.824 5.075-11.114 7.619-21.797 7.626-31.97l-15.573 11.712Zm-267.264-21.147 47.141 22.702c.38-.752.771-1.492 1.172-2.217 4.507-8.156 10.359-14.65 17.391-19.303 30.116-19.924 78.962-55.076 79.452-55.429l.209-.151.253.049c.03.006.963.182 2.622.403-2.981-3.521-5.593-7.152-7.754-10.893-6.654 1.691-15.175 2.054-25.323 1.078-1.771-.17-3.727-.347-5.84-.527-6.362 4.78-12.077 8.667-17.012 11.35-5.906 3.212-13.236 7.28-20.995 11.587-13.918 7.725-29.694 16.48-42.088 22.978-6.758 3.543-11.838 6.065-15.528 7.711-6.148 2.742-7.078 2.444-7.545 1.859-.551-.689.147-1.645.901-2.489 4.96-5.548 9.979-9.117 19.592-14.21-10.138 1.656-23.464 2.201-38.563.536-22.597-2.491-57.378-10.844-94.746-36.488l-3.082-2.115 3.588 1.049c18.131 5.302 35.3 7.102 40.95 7.581-14.587-11.996-17.038-28.265-17.061-28.434l-.251-1.776 1.266 1.271c.158.159 16.288 16.026 56.531 27.929 20.054 5.932 45.624 5.717 63.543 4.493a351.923 351.923 0 0 0 20.267-1.99c-9.962.51-24.04.95-38.744.506-13.426-.406-23.745-2.319-30.668-5.687-6.545-3.184-10.105-7.661-10.582-13.308-.123-1.456-2.876-35.766 8.75-45.671 4.735-4.034 15.371-5.134 31.616-3.269 13.815 1.586 31.584 5.339 51.387 10.851 42.798 11.914 50.421 15.29 50.725 15.427l2.514 1.142h-2.761c-4.643 0-6.552 9.068-8.086 16.354-.505 2.399-.982 4.664-1.52 6.48-.569 1.919-1.912 3.565-3.99 5l1.241.104c9.57-7.214 20.607-16.443 32.639-26.626-5.981-.416-11.978-1.786-18.421-4.181-24.031-8.93-70.802-21.667-99.409-27.96-15.596-3.431-29.257-4.556-37.014-4.473L6.767 150.906a1.066 1.066 0 0 0-.526.98c.019.406.249.752.616.927l114.961 54.827c3.212 1.532 5.326 4.495 5.748 7.754Zm151.179-52.401c22.358 24.712 62.826 43.89 91.075 57.278 2.173 1.03 4.273 2.025 6.285 2.985 8.256 3.939 13.967 8.243 17.911 12.402l16.37-12.312a57.694 57.694 0 0 0-4.348-20.738c-7.407-18.005-23.066-30.62-34.898-38.032-12.841-8.044-24.054-11.86-24.165-11.897l.305-1.153c.162.032 15.415 2.996 32.274 4.726-8.724-4.39-18.002-8.835-27.506-13.251a50.543 50.543 0 0 0-7.516 4.553c-15.859 11.658-34.475 15.024-47.299 15.796-7.6.456-14.124.08-18.488-.357Zm74.33-9.198a137.592 137.592 0 0 1 18.701 9.768c11.98 7.505 27.841 20.292 35.369 38.59a58.83 58.83 0 0 1 4.414 20.311l28.778-21.642a175.471 175.471 0 0 0-6.409-9.151c-6.995-9.366-26.739-21.357-51.376-33.903-11.667-1.068-22.855-2.828-29.477-3.973Zm185.899-25.659v84.843l8.926-6.782c1.922-1.461 3.025-3.625 3.025-5.937v-76.112c0-.886-.503-1.666-1.346-2.087a2.707 2.707 0 0 0-2.853.247l-7.752 5.828ZM158.25 189.141c-11.805 6.041-17.332 9.713-22.736 15.758-.39.436-.588.722-.689.897 1.224-.043 5.887-1.661 22.325-10.309 12.235-6.437 27.598-14.964 41.154-22.487 7.762-4.308 15.093-8.377 21.004-11.592 4.603-2.504 9.906-6.075 15.79-10.452l-1.533-.126c-6.949 3.776-19.735 5.986-37.482 8.065-10.914 1.279-28.971.974-47.121-.796-18.54-1.808-31.619-4.552-34.988-7.341-.631-.522-.971-1.079-1.012-1.654-.019-.268.042-.67.444-1.062 2.584-2.521 20.86-3.235 54.317-2.122 23.303.775 48.503 2.311 65.576 3.689 2.6-1.468 4.247-3.167 4.842-5.175.525-1.769.997-4.012 1.496-6.386 1.483-7.046 3.138-14.908 7.226-16.851-4.089-1.499-16.416-5.668-48.77-14.675-19.744-5.496-37.449-9.236-51.202-10.816-15.901-1.826-26.232-.82-30.705 2.991-8.932 7.61-9.357 32.541-8.334 44.661.924 10.946 14.789 17.135 40.096 17.901 27.426.829 52.689-1.43 52.941-1.453l.165 1.182c-.149.028-15.08 2.809-34.583 4.142-18.017 1.231-43.739 1.443-63.964-4.539-21.186-6.267-35.55-13.595-43.868-18.638-6.139-3.722-9.937-6.736-11.795-8.34 1.107 4.653 5.185 17.573 17.787 27.111l1.57 1.188-1.965-.115c-.196-.012-18.794-1.155-39.584-6.771 35.992 23.886 69.29 31.807 91.132 34.215 16.986 1.873 31.673.941 42.022-1.214 3.285-1.68 7.048-3.539 11.418-5.68.86-.421 1.65.009 1.986.652.336.642.24 1.536-.596 2.002-2.794 1.56-7.009 3.012-12.364 4.14Zm227.489-31.1c26.838 13.823 42.951 24.621 49.146 32.915a177.049 177.049 0 0 1 6.41 9.145l96.484-72.562v-8.163c0-2.494-1.582-4.757-4.03-5.765l-110.761-45.63c-10.384 5.386-33.446 17.46-46.555 25.17 9.392-.404 42.878-1.132 53.892 8.308 10.549 9.042-.068 39.108-1.952 43.069-.135.285-.415.878-.983.693-.587-.191-.49-.802-.328-1.815.116-.727.305-1.743.546-3.029 1.637-8.764 5.471-29.286-.194-34.882-4.002-3.953-21.824-7.329-41.456-7.851-24.089-.641-46.195 2.875-60.647 9.647-9.772 4.579-18.2 8.249-25.835 10.921 17.139 7.463 35.232 15.413 52.573 23.458 13.44-6.482 28.467-7.206 37.123-6.949 15.157.45 29.088 4.334 34.668 9.664 2.748 2.625 3.268 5.411 1.503 8.058-4.382 6.571-22.114 6.988-39.604 5.598Zm-215.833 25.338a.363.363 0 0 0-.158.041c-2.42 1.185-4.653 2.284-6.72 3.313 2.873-.842 5.231-1.786 7.002-2.775.212-.118.182-.285.12-.405-.045-.087-.122-.174-.244-.174Zm107.66-21.713c4.254.482 11.283.993 19.629.488 12.654-.765 31.015-4.086 46.629-15.564a51.341 51.341 0 0 1 6.844-4.231c-17.619-8.163-35.945-16.206-52.868-23.573-9.837 3.302-18.39 4.886-26.885 4.559-11.976 10.141-22.992 19.376-32.601 26.685a539.5 539.5 0 0 1 4.531.414c11.042 1.061 18.945.41 24.591-.983-6.223-11.292-5.218-16.97-3.274-19.746 1.868-2.668 5.506-3.863 9.732-3.197 4.439.7 8.161 3.209 9.051 6.102 1.138 3.702.286 7.669-2.337 10.886-2.447 3-6.265 5.26-11.36 6.726 2.298 3.933 5.103 7.744 8.318 11.434Zm-136.01-15.051c-22.052 0-26.506 1.494-27.315 2.283-.065.063-.087.108-.086.122.016.234.218.517.582.818 3.144 2.604 16.303 5.313 34.341 7.072 18.072 1.762 36.03 2.068 46.867.798 15.964-1.87 28.15-3.891 35.285-7.065-16.987-1.335-41.141-2.783-63.546-3.528-10.694-.355-19.264-.5-26.128-.5Zm241.315 9.958c23.608 2.153 37.95.497 41.477-4.792 1.421-2.131.972-4.328-1.334-6.531-5.297-5.06-19.228-8.898-33.878-9.333-8.342-.247-22.695.425-35.677 6.409 8.119 3.778 16.061 7.575 23.65 11.349 1.97.98 3.891 1.947 5.762 2.898Zm-111.227-29.04c-2.852 0-5.205 1.014-6.503 2.869-1.754 2.505-2.589 7.76 3.392 18.574l.095.172c6.181-1.735 9.404-4.374 11.053-6.397 2.367-2.901 3.139-6.466 2.121-9.779-.748-2.434-4.152-4.651-8.094-5.272a13.268 13.268 0 0 0-2.064-.167Zm108.741-31.158c1.855 0 3.723.025 5.604.075 20.227.538 38.001 3.985 42.263 8.195 5.939 5.867 2.419 25.801.68 35.145 1.294-3.732 2.942-9.299 3.95-15.216 1.313-7.701 1.8-17.805-3.336-22.207-12.222-10.476-55.023-7.927-55.454-7.9l-2.438.153 2.093-1.261c12.299-7.41 36.41-20.062 47.794-25.974l-46.839-19.296c-26.366 10.707-59.56 37.854-90.095 63.658l4.451 1.935c2.894 1.258 5.828 2.533 8.792 3.823 7.916-2.683 16.684-6.482 26.954-11.295 13.481-6.318 33.506-9.835 55.581-9.835Zm-108.084 25.797c7.552.106 15.202-1.308 23.848-4.104-2.56-1.114-5.083-2.21-7.568-3.29l-4.993-2.17c-2.516 2.127-5.015 4.247-7.488 6.343a5733.686 5733.686 0 0 1-3.799 3.221ZM116.326 85.447c8.05.108 20.849 1.323 35.277 4.497 28.647 6.302 75.491 19.06 99.569 28.007 6.766 2.514 13.044 3.876 19.344 4.168a9276.42 9276.42 0 0 0 4.812-4.079c2.326-1.972 4.675-3.964 7.039-5.963-18.142-7.891-33.711-14.72-44.216-19.91-32.484-16.05-69.099-24.677-86.05-28.093l-35.775 21.373Zm37.297-22.284c17.518 3.595 53.25 12.217 85.057 27.932 10.585 5.23 26.346 12.138 44.704 20.121 30.298-25.612 63.271-52.639 89.751-63.772L262.23 1.755a7.445 7.445 0 0 0-6.624.476L153.623 63.163Zm-6.923.092c-2.361 0-4.708.646-6.69 1.876l-27.245 16.898c-.89.552-1.012 1.415-.829 2.038.191.65.841 1.401 1.993 1.383h.064l36.358-21.723a310.17 310.17 0 0 0-1.248-.243 12.677 12.677 0 0 0-2.403-.228Zm229.603-15.799 46.626 19.208.221-.114c.869-.451 1.368-1.268 1.333-2.186-.035-.93-.603-1.718-1.52-2.109L388.094 47.4c-3.455-1.472-7.434-1.572-10.919-.275-.29.109-.58.219-.872.331Z"/></svg>