<svg xmlns="http://www.w3.org/2000/svg" viewBox="0 0 560 59.38"><defs><style>.af01e4d9-86bf-4eac-b2b7-e3b6a0f1ca5b{fill:#5ab400;}</style></defs><title>ttl</title><g id="bf853822-98cb-41a8-98a5-dd3ffdb861c0" data-name="レイヤー 2"><g id="edc8e7a2-1efe-41f6-8218-c1171455900b" data-name="object"><rect class="af01e4d9-86bf-4eac-b2b7-e3b6a0f1ca5b" y="54.38" width="560" height="5"/><path class="af01e4d9-86bf-4eac-b2b7-e3b6a0f1ca5b" d="M18.48,27.18h5.76v5H18.48v7.43H12.85V32.14H7.06v-5h5.79v-2H6.47V20.21H8.9A15.2,15.2,0,0,0,7.73,17.1L11,16.17H5.63V11.26h7.22v-2H7.69V4.58h5.16V1.09l5.93.3c.29,0,.58.16.58.46s-.42.67-.88,1V4.58H23.9v4.7H18.48v2h6.43v4.91H20.08l2.81.59c.38.08.76.17.76.59s-.34.59-1.09.63c-.38,1-.76,1.89-.93,2.23h3v4.95H18.48Zm-5.25-11a30.14,30.14,0,0,1,1.43,3.57l-1.47.47h3.15a21.26,21.26,0,0,0,1.34-4ZM31.8,39.57H25.92V1.89H43.14c0,6.72,0,9.37-.25,10.71-.51,2.77-3.07,3.57-7.6,3.61a12.48,12.48,0,0,0-2.23-5.79,9.47,9.47,0,0,0,2.65.29c1.42,0,1.59-.29,1.59-1.89V7.18H31.8v10h9.87l2.81,2.94a55.39,55.39,0,0,1-4.07,11.26,24.46,24.46,0,0,0,5,4.66,20.54,20.54,0,0,0-4.67,3.78,45.79,45.79,0,0,1-3.36-3.44,15.9,15.9,0,0,1-2.52,3,15.8,15.8,0,0,0-3-2.44Zm3.61-17a19.8,19.8,0,0,0,1.3,3.82,21.08,21.08,0,0,0,1.26-4H31.8v2.48ZM31.8,34.66a26.54,26.54,0,0,0,2.1-2.9,24.14,24.14,0,0,1-2.1-4.62Z"/><path class="af01e4d9-86bf-4eac-b2b7-e3b6a0f1ca5b" d="M63,16.93V30.46a3.48,3.48,0,0,0,2.6,2.94c2.06.63,6.1.63,9.33.63C77,34,87.2,33.9,91.61,33a10.66,10.66,0,0,0-1.6,6H70.77c-6.17,0-8.4-1.14-10.25-3.28-.67.67-4.32,3.23-4.45,3.32a4.78,4.78,0,0,1,.08.76.58.58,0,0,1-.54.63c-.21,0-.51-.3-.67-.59l-3.15-5.63A35.88,35.88,0,0,0,57,31.42v-9H52.16V16.93ZM56.07,1.34a29.85,29.85,0,0,1,6.26,5.89c-1.34,1.38-2.77,3.06-3.86,4.41a37.44,37.44,0,0,0-6.35-6.22ZM88.42,11.89V32.77H82.2v-.68H72.58v1H66.45V11.89H71.7c.12-.3.63-1.56.75-1.81H63.59v-5h4.62a23.17,23.17,0,0,0-1.76-2.39L71.57.21a18.71,18.71,0,0,1,3,4.33c-1,.21-1.47.38-2,.54h6.13A31.27,31.27,0,0,0,80.81.17l5.84,1.68a.62.62,0,0,1,.55.59c0,.58-.55.71-1,.79-.08.17-.67,1.22-1,1.85H90.6v5H79.13c-.12.25-.59,1.26-.88,1.81ZM82.2,17.48V15.67H72.58v1.81Zm0,5.2v-1.8H72.58v1.8Zm0,5.34V26.13H72.58V28Z"/><path class="af01e4d9-86bf-4eac-b2b7-e3b6a0f1ca5b" d="M106.85,29.7V25.41h7.64c.05-.29.05-.5.13-1.63h-6.55V19.62h2.81a14.15,14.15,0,0,0-1.64-2l4.25-1.93h-8.36v23.9H99.2V1.85h17V15.67h-2.06a34.6,34.6,0,0,1,2.31,3.4l-1.26.55h4a21,21,0,0,0,1.77-4h-2V1.85h17V35.62c0,1.77-1.3,4.54-7.43,4.25a17.23,17.23,0,0,0-1.6-5.51,23.35,23.35,0,0,0-2.85,3.82,19,19,0,0,1-6.56-5.5,16.07,16.07,0,0,1-7.81,6.18,15.31,15.31,0,0,0-3.53-4.29c3.74-1.26,5.55-2.52,6.93-4.87Zm3.82-22.35V5.8h-5.54V7.35Zm-5.54,2.82v1.55h5.54V10.17Zm15,13.61c0,.46,0,.71,0,1.63h8.57V29.7h-6.72a17.15,17.15,0,0,0,5.67,4.16l0,0c.71.08,1.47.21,1.72.21.92,0,.92-.8.92-1.43v-17h-8.52l4.53,1.51a.56.56,0,0,1,.38.55c0,.25-.34.42-1,.5-.21.59-.38.88-.59,1.39h2.44v4.16ZM130.16,7.35V5.8h-5.58V7.35Zm-5.58,2.82v1.55h5.58V10.17Z"/><path class="af01e4d9-86bf-4eac-b2b7-e3b6a0f1ca5b" d="M179.56,15.79a34.45,34.45,0,0,1,5,8.36,21.54,21.54,0,0,0-4.84,3c-.33-.84-.58-1.39-1.09-2.44-3.53.25-3.9.3-6.3.42V39.74h-6.17V25.46c-1.14,0-6.31.16-7.31.21-.21.42-.38.88-.89.88a.66.66,0,0,1-.54-.59l-.88-5.63c1.09,0,6.09.09,7.1.09.25-.26.54-.55.79-.76A38.24,38.24,0,0,0,157,14.91l3.44-4.62c1.47.88,1.6,1,2.1,1.3,1.35-1.76,1.85-2.52,2.15-3-.59.09-3.32.34-3.87.42a17.72,17.72,0,0,0-2.44-4.91,61.11,61.11,0,0,1-3.73,8.27l1,.59c.42.25.5.42.5.63,0,.42-.34.55-.76.71v21.3a29.9,29.9,0,0,0,5-8.57L165,29.24c.59.29.84.46.84.71s-.38.46-.92.55a41.78,41.78,0,0,1-4.46,7.73,12.08,12.08,0,0,0-5-2.57v4.08h-6.38V20.67c-.88,1-1,1.17-1.35,1.59a17.94,17.94,0,0,0-4.91-3.57A42.1,42.1,0,0,0,152.92.84l5.93,1.47c.37.08.8.34.8.71a.71.71,0,0,1-.38.59c5.21-.21,12.26-.92,18.06-3L180.86,5a1,1,0,0,1,.21.5.51.51,0,0,1-.55.55c-.17,0-.67-.13-1-.17a44.87,44.87,0,0,1-6.88,1.64.58.58,0,0,1,.29.51c0,.33-.25.54-1.18.71-1.93,2.65-2.52,3.44-4.58,6a13.6,13.6,0,0,1,1.22,1,47.73,47.73,0,0,0,5.76-7.47l5.37,2.81c.34.17.63.42.63.71,0,.51-.54.51-1.38.59a67.3,67.3,0,0,1-7.56,8c2.6-.13,2.9-.13,4.79-.21-.51-.72-.8-1.14-1.35-1.85ZM177.75,26a52.66,52.66,0,0,0,5.59,9.45,13.49,13.49,0,0,0-5.17,2.48,47.76,47.76,0,0,1-5.34-9.62Z"/><path class="af01e4d9-86bf-4eac-b2b7-e3b6a0f1ca5b" d="M210.55,32.3c9.12-1.68,11.8-8.73,11.8-13.1,0-3.41-1.8-9.66-9.7-10.29-1.3,15.37-7.65,26.84-12.1,26.84-3.28,0-9.37-5.55-9.37-13.32,0-9,8.24-19.57,20.59-19.57C221,2.86,229,9.12,229,19.16a19.59,19.59,0,0,1-5,13c-2.56,3-5.54,4.53-9.11,6.09A27.35,27.35,0,0,0,210.55,32.3ZM197.4,21.93c0,3.23,1.81,5.67,2.69,5.67s1.81-1.89,2.27-3a36.82,36.82,0,0,0,3.23-14.45C200.72,12,197.4,18.15,197.4,21.93Z"/><path class="af01e4d9-86bf-4eac-b2b7-e3b6a0f1ca5b" d="M257,18.53a5.18,5.18,0,0,1-.29-1.81V.76l6.38.5c.42,0,.72.17.72.46s-.34.59-1.1,1V6.81a44.41,44.41,0,0,0,7.61-4.08l4.37,4c.16.17.37.38.37.59a.6.6,0,0,1-.67.59,3.88,3.88,0,0,1-.88-.17,98.76,98.76,0,0,1-10.8,4.7v1.35c0,1.55,1.26,1.55,1.85,1.55h4.12c1.47,0,1.89-1.72,2.44-3.82a14.83,14.83,0,0,0,5,2.27c-1.22,7-4,7-6.31,7h-8.73a5.85,5.85,0,0,1-3.28-1c-.29.63-.84,1.73-1.13,2.4H271V39.4h-6.56V38.23H248V39.4H241.5V22.14H250a32.4,32.4,0,0,0,1.51-3.4c-6,1.09-6.55,1.17-12.52,2.31-.13.5-.29.88-.67.88s-.51-.42-.59-.8l-1.43-5.55c1.56-.08,3.36-.25,4.71-.46V.88l6.8.42a.57.57,0,0,1,.55.59c0,.38-.38.59-1,.88v3h8.24V10.8h-8.24v3.4c4.62-.72,6.68-1.18,8.24-1.47a29,29,0,0,0-.63,5.33c-.13,0-.21,0-.34.09Zm7.39,9.74V26.76H248v1.51Zm0,5.5V32.14H248v1.63Z"/><path class="af01e4d9-86bf-4eac-b2b7-e3b6a0f1ca5b" d="M295,31.3a44.71,44.71,0,0,0,10.88-5.63V20.84h-4.37a33.26,33.26,0,0,1,3.24,4.2,29.87,29.87,0,0,0-3.87,3,55.24,55.24,0,0,0-3.82-4.79l3.27-2.39h-3.57a10,10,0,0,0,.89,1,9.62,9.62,0,0,0-2.57,4.5c-.79-1.05-1.26-1.68-1.89-2.69V39.7h-5.5V26.09a24,24,0,0,1-2.1,4.28,15.52,15.52,0,0,0-4-3.82A37.37,37.37,0,0,0,287,13.32h-4.2V8.23h4.58v-7l5.79.29c.47,0,1,.17,1,.63s-.59.63-1,.72V8.23h3.07v5.09H293.2v1.34a23.07,23.07,0,0,0,3.28,5.88V16.3h9.41V14.74h-7.1V10.8h7.1V9.24h-9V5H301a16.12,16.12,0,0,0-1.84-2.69L304,0a36,36,0,0,1,2.73,4.28L305.39,5H310A31.33,31.33,0,0,0,312.06.34l5.38,1.59c.51.17.84.34.84.63,0,.55-.54.59-1.26.59-.29.55-.33.67-1,1.85h4.88V9.24h-9.12V10.8h7v3.94h-7V16.3h10v4.54h-3.11l3,2.43a.79.79,0,0,1,.42.63c0,.63-.71.55-1.17.55A24.19,24.19,0,0,1,316.6,29a20.55,20.55,0,0,0,6.3,3.61A11.29,11.29,0,0,0,319.71,37a27.78,27.78,0,0,1-7.94-6.55v3.27c0,4.62-1.47,6-8.06,6.22a14.49,14.49,0,0,0-2.32-5.88,17.78,17.78,0,0,0,2.65.21c1.81,0,1.85-.46,1.85-1.51V31.21c-.84.51-3.61,2.19-7.56,4.2,0,.25.12,1.35-.46,1.35s-.76-.55-1-1.14Zm16.76-8.07a14.76,14.76,0,0,0,1.72,2.6,27.19,27.19,0,0,0,3.87-5h-5.59Z"/><path class="af01e4d9-86bf-4eac-b2b7-e3b6a0f1ca5b" d="M327.77,22.81A45.13,45.13,0,0,0,337.14,13c3.4-4.62,4.53-6.13,7.09-6.13s4.37,1.76,7.1,5.21c3.62,4.49,9.29,11.59,17.27,17.1a41.92,41.92,0,0,0-4.71,6.38c-7.05-6-11.93-12-17.6-18.95-.33-.42-1.47-1.8-2.27-1.8s-1.47,1.13-2,2c-4.79,7.06-5.3,7.82-8.57,11.43Z"/></g></g></svg>