<svg xmlns="http://www.w3.org/2000/svg" width="106.73" height="12.71"><g data-name="レイヤー 2"><path d="M3.61 8.61a1.22 1.22 0 01-.75 0 .74.74 0 01-.48-.75l-.52.29a5.36 5.36 0 01-.54.26 1 1 0 01-.74.07.83.83 0 01-.51-.46.89.89 0 010-.66.93.93 0 01.53-.45 7.36 7.36 0 001.06-.58 8 8 0 001-.74H1a.76.76 0 01-.55-.23.79.79 0 010-1.13A.75.75 0 011 4h3.09a5.06 5.06 0 00.31-.52L3 3.55H1.86a.75.75 0 01-.58-.2.79.79 0 01-.24-.57.63.63 0 01.21-.51.86.86 0 01.57-.23h1.84c0-.15.11-.33.19-.55s.15-.39.2-.56.1-.28.11-.3a.78.78 0 01.53-.58 1.11 1.11 0 01.74 0A.8.8 0 016 .58a1 1 0 010 .71c0 .06-.07.16-.13.3L5.64 2h2.2l-.13-.1a.74.74 0 01-.29-.52.75.75 0 01.19-.6A1 1 0 018.17.4a.78.78 0 01.64.16c.17.12.38.29.64.51s.52.43.78.66l.62.53a.87.87 0 01.29.62.85.85 0 01-.29.65.84.84 0 01-.63.23.92.92 0 01-.64-.27l-.26-.26L8 3.31l-1.63.09-.13.31-.13.29h5.43a.8.8 0 01.57 1.35.79.79 0 01-.57.23h-2a7.41 7.41 0 001.08.7 11.17 11.17 0 001.25.56.81.81 0 01.46.48.87.87 0 010 .69.84.84 0 01-.59.47 1.35 1.35 0 01-.79-.09 8 8 0 01-1.28-.71 9.66 9.66 0 01-1.29-1 7.31 7.31 0 01-1-1.1H5.09A8.72 8.72 0 013.74 7c.44-.17.89-.35 1.34-.55s.84-.41 1.16-.6a.93.93 0 01.61-.12.69.69 0 01.52.27.67.67 0 01.11.59.72.72 0 01-.35.48 10.73 10.73 0 01-1.08.58c-.4.18-.82.36-1.24.52s-.81.32-1.2.44zm-.25 4.07a1 1 0 01-.76-.11.85.85 0 01-.38-.57.78.78 0 01.16-.65A1 1 0 013 11a15 15 0 002.24-.56 17.91 17.91 0 002.19-.9 10.08 10.08 0 001.78-1.06 1 1 0 01.7-.21.74.74 0 01.58.33.84.84 0 01.16.63.83.83 0 01-.32.57A11.82 11.82 0 018.27 11a19.59 19.59 0 01-2.45 1 18 18 0 01-2.46.68zm.33-2.12c-.6.13-1-.06-1.12-.56a.74.74 0 01.07-.62.9.9 0 01.57-.38 13.41 13.41 0 001.62-.48c.55-.2 1.08-.42 1.58-.66a13.44 13.44 0 001.34-.74.8.8 0 01.63-.12.78.78 0 01.52.35.73.73 0 01.15.62.92.92 0 01-.38.52 10.55 10.55 0 01-1.48.84c-.57.27-1.15.52-1.76.74a16.07 16.07 0 01-1.74.49zm14.13 1.78a1.1 1.1 0 01-.71-.22.88.88 0 01-.32-.64.93.93 0 01.19-.69 1 1 0 01.7-.33 1.14 1.14 0 00.37-.12.45.45 0 00.21-.29 3.87 3.87 0 00.14-.69 6.4 6.4 0 00.08-.73c0-.33.05-.69.07-1.09s0-.8.06-1.2 0-.76 0-1.09a1 1 0 00-.13-.55c-.08-.11-.26-.16-.55-.17a18.79 18.79 0 01-.46 4.15A8.16 8.16 0 0116 11.83a1 1 0 01-.66.4 1 1 0 01-.75-.16.83.83 0 01-.36-.6.87.87 0 01.17-.68 7.89 7.89 0 00.78-1.23 6.56 6.56 0 00.49-1.35A11.69 11.69 0 0016 6.57c0-.6.09-1.28.09-2.06h-.79a.87.87 0 01-.66-.26.9.9 0 01-.25-.65.93.93 0 01.25-.6.84.84 0 01.66-.27h.76V1.21a.91.91 0 01.28-.69 1 1 0 011.34 0 .88.88 0 01.28.69v1.47a4.19 4.19 0 011.48.21 1.35 1.35 0 01.79.71 3.18 3.18 0 01.23 1.4c0 .89 0 1.74-.05 2.56s-.07 1.48-.12 2a5.14 5.14 0 01-.41 1.69 1.71 1.71 0 01-.79.84 3 3 0 01-1.27.25zm5.73-.79a4.44 4.44 0 01-1.47-.2 1.33 1.33 0 01-.77-.7 3.29 3.29 0 01-.23-1.34V4.47a3.23 3.23 0 01.23-1.34 1.32 1.32 0 01.77-.69 4.44 4.44 0 011.47-.2 4.47 4.47 0 011.48.2 1.35 1.35 0 01.77.69 3.25 3.25 0 01.2 1.34v4.84a3.31 3.31 0 01-.22 1.34 1.36 1.36 0 01-.77.7 4.47 4.47 0 01-1.46.2zm0-1.91a.75.75 0 00.46-.1.62.62 0 00.12-.46V4.7a.62.62 0 00-.13-.46.69.69 0 00-.46-.1.72.72 0 00-.47.1c-.08.07-.11.22-.11.46v4.38c0 .24 0 .39.11.46a.79.79 0 00.48.1zm9.71 2.88a1.22 1.22 0 01-.8-.25 1 1 0 01-.37-.68.89.89 0 01.23-.72 1.35 1.35 0 01.76-.39 1.26 1.26 0 00.45-.14.41.41 0 00.15-.38V6.2h-4.19a.82.82 0 01-.61-.2.84.84 0 01-.26-.62.87.87 0 01.87-.87h4.35l-.71-.39-.58-.3a.69.69 0 01-.39-.5.91.91 0 01.09-.65.94.94 0 01.51-.42h-2.53a.77.77 0 01-.56-.25.78.78 0 01-.24-.57.74.74 0 01.24-.56.8.8 0 01.56-.27h6.82a2 2 0 011.23.33 1.33 1.33 0 01.55.8 1.27 1.27 0 01-.15 1 2.09 2.09 0 01-.93.81l-.53.25-.62.3a.66.66 0 01.17.41h1.62a2.55 2.55 0 011.28.29 1.43 1.43 0 01.65.75 1.56 1.56 0 010 1 2.52 2.52 0 01-.73 1l-.51.46c-.19.18-.39.35-.6.52s-.39.33-.56.46a1 1 0 01-.72.18 1.06 1.06 0 01-.67-.34.84.84 0 01-.21-.68 1 1 0 01.36-.66l.3-.24.42-.33.3-.23c.14-.13.19-.23.17-.32s-.12-.13-.29-.13h-2v4.26A1.87 1.87 0 0135 12a2.6 2.6 0 01-1.74.52zM35 3l.44-.2.45-.2.23-.11c.14-.06.2-.14.19-.21s-.09-.11-.24-.11h-2.7.13l.67.34zm10.9 9.47a.86.86 0 01-.6-.23.84.84 0 01-.3-.64V7.21l-.68.09c-.21 0-.4.06-.57.07a.86.86 0 01-.7-.17.91.91 0 01-.3-.59A.9.9 0 0143 6a.8.8 0 01.64-.28h.32l.35-.42a6.11 6.11 0 00.41-.53l-.55-.39-.64-.46a3.67 3.67 0 00-.42-.29.77.77 0 01-.34-.53.78.78 0 01.13-.61.8.8 0 01.54-.35.78.78 0 01.63.13h.07l.29-.48c.11-.17.21-.35.31-.52L45 .86a.85.85 0 01.5-.42.8.8 0 01.61.07.77.77 0 01.4.43.66.66 0 01-.09.6l-.31.5-.39.6-.33.5.37.26.52-.73c.15-.24.29-.44.4-.6a.89.89 0 01.53-.41.84.84 0 01.64.12.77.77 0 01.26 1.12l-.55.75-.68.91-.73.93.65-.08a.72.72 0 010-.56.87.87 0 01.38-.38.85.85 0 01.7 0v-.13a.24.24 0 01.12-.11c.17-.29.34-.62.52-1s.33-.75.48-1.13a8 8 0 00.36-1 1 1 0 01.44-.57.91.91 0 01.71-.05.93.93 0 01.49.37.85.85 0 010 .69c-.11.32-.22.66-.35 1H52a4.5 4.5 0 011.46.2 1.31 1.31 0 01.8.73 4.05 4.05 0 01.25 1.59c0 1.08 0 2-.06 2.65s-.1 1.31-.16 1.85a4.59 4.59 0 01-.42 1.57 1.78 1.78 0 01-.83.8 4.15 4.15 0 01-1.37.27 1.45 1.45 0 01-.73-.16.84.84 0 01-.37-.66.82.82 0 01.18-.68.84.84 0 01.62-.33 3.3 3.3 0 00.68-.14.6.6 0 00.34-.28 1.66 1.66 0 00.15-.56 18.55 18.55 0 00.16-1.85c0-.74.05-1.55.05-2.41a1.13 1.13 0 00-.18-.78 1.17 1.17 0 00-.75-.17H50l-.23.45-.24.43a1 1 0 01-.44.39 1 1 0 01-.57 0c.07.14.13.28.19.42a3.09 3.09 0 00.15.31.89.89 0 010 .64.73.73 0 01-.44.45.73.73 0 01-.63 0 .84.84 0 01-.45-.44v-.08h-.6v4.85a.83.83 0 01-.25.64.91.91 0 01-.59.23zM43.36 11a.78.78 0 01-.45-.35.64.64 0 010-.59c0-.15.11-.34.17-.56s.13-.44.19-.67a5.41 5.41 0 00.13-.58.74.74 0 01.35-.51.84.84 0 01.59-.09.78.78 0 01.49.31.79.79 0 01.12.61c0 .16-.07.35-.13.59l-.18.69c-.06.23-.12.43-.17.58a.8.8 0 01-.4.52.88.88 0 01-.71.05zm5-.5a.78.78 0 01-1-.56c0-.12-.06-.28-.11-.48s-.11-.39-.16-.58L47 8.39a.81.81 0 010-.62.82.82 0 01.51-.33.85.85 0 01.59.08.72.72 0 01.4.48l.12.44c.06.18.12.37.17.55s.1.34.13.44a.78.78 0 01-.05.64.83.83 0 01-.5.4zm3.18-2.1a.89.89 0 01-.64.09.68.68 0 01-.48-.39l-.24-.49c-.11-.2-.21-.4-.32-.59l-.27-.48a.68.68 0 01-.08-.54.73.73 0 01.37-.46.87.87 0 01.62-.12.76.76 0 01.52.36c.08.11.18.27.29.46s.24.39.35.59l.26.48a.86.86 0 01.06.63.81.81 0 01-.44.46zm6.54-.95a.91.91 0 01-.65-.25.87.87 0 01-.27-.67v-.39a2.14 2.14 0 01.41-1.43 2.23 2.23 0 011.5-.56c0-.05-.07-.13-.13-.22l-.18-.28-.11-.18a.84.84 0 01-.11-.47.8.8 0 01.19-.44.86.86 0 01-.59-.25.81.81 0 01-.23-.59.71.71 0 01.27-.59 1 1 0 01.69-.2h1.91c.66 0 1.32-.06 2-.12S64 .66 64.61.58 65.7.41 66.15.31a1.1 1.1 0 01.76.06.73.73 0 01.37.46.77.77 0 01-.09.71.92.92 0 01-.53.35h-.18a.77.77 0 01.29.45 1 1 0 01-.08.6c0 .09-.12.24-.24.47l-.36.67h.17a5.05 5.05 0 011.51.18 1.28 1.28 0 01.77.59A2.44 2.44 0 0168.77 6v.48a.87.87 0 01-.28.68.9.9 0 01-.65.25.88.88 0 01-.65-.25.9.9 0 01-.27-.68v-.39a.45.45 0 00-.14-.39 1.18 1.18 0 00-.56-.09h-6.51a1.15 1.15 0 00-.56.09q-.15.09-.15.39v.44a.87.87 0 01-.27.67.91.91 0 01-.65.25zm.29 5a1.24 1.24 0 01-.83-.16.84.84 0 01-.36-.63.82.82 0 01.22-.7 1.09 1.09 0 01.76-.32 10.92 10.92 0 001.77-.27 10.7 10.7 0 001.54-.49 6.86 6.86 0 01-1.3-2.1h-.28a.77.77 0 01-.77-.78.76.76 0 01.22-.56.71.71 0 01.55-.23h4.27a3 3 0 011.35.25 1.53 1.53 0 01.71.69 1.37 1.37 0 01.06.94 2.31 2.31 0 01-.58 1 6.14 6.14 0 01-.43.45c-.15.14-.3.28-.46.41a9.54 9.54 0 001.36.38 12.89 12.89 0 001.66.19 1 1 0 01.77.31.89.89 0 01.23.72q-.08.88-1.17.84A9.69 9.69 0 0163 11.12a11.06 11.06 0 01-2.1.82 16.42 16.42 0 01-2.53.47zm2.22-8.29h1.35l-.11-.23c-.06-.11-.12-.21-.17-.32a1.31 1.31 0 00-.1-.19.82.82 0 01-.08-.46.72.72 0 01.17-.4h-1.56a.1.1 0 000 .05 1.06 1.06 0 01.12.19l.2.33a1.08 1.08 0 01.12.2.69.69 0 01.06.79zm2.57 4.81a5.3 5.3 0 00.45-.34 3.57 3.57 0 00.4-.37c.14-.13.19-.24.15-.34s-.16-.14-.36-.14h-1.62a6 6 0 00.46.63 4.6 4.6 0 00.52.52zm.36-4.81h.72c.08-.17.18-.38.29-.64s.22-.5.33-.73a4.77 4.77 0 00.21-.5c-.33 0-.67.09-1 .12L63 2.39a1.73 1.73 0 01.15.2l.11.2.18.35a2.12 2.12 0 01.1.22.74.74 0 01-.02.76zm10.33 8.28a1 1 0 01-.68-.25.88.88 0 01-.28-.69V6.05l-.2.25-.22.24a1 1 0 01-.65.32.89.89 0 01-.69-.24.9.9 0 01-.29-.6.74.74 0 01.22-.61A12.71 12.71 0 0072.17 4c.36-.52.68-1.05 1-1.59a11.59 11.59 0 00.72-1.58.84.84 0 01.49-.5.92.92 0 01.69 0 .86.86 0 01.52.45.86.86 0 010 .72 13.45 13.45 0 01-.79 1.7v8.3a.88.88 0 01-.28.69 1 1 0 01-.67.25zm5.28-.06a1.09 1.09 0 01-.78-.29 1 1 0 01-.31-.72 1 1 0 01.23-.7 1 1 0 01.73-.34.74.74 0 00.48-.15.57.57 0 00.12-.41V5h-3.66a.86.86 0 01-.89-.88.91.91 0 01.24-.64.87.87 0 01.65-.26h3.66v-2a.91.91 0 01.28-.7 1 1 0 01.68-.22 1 1 0 01.67.26.92.92 0 01.29.7v2h.82a.88.88 0 01.66.24.91.91 0 01.24.64.86.86 0 01-.9.88h-.82v5.08a3.31 3.31 0 01-.23 1.35 1.39 1.39 0 01-.76.71 3.6 3.6 0 01-1.4.22zm-.69-3.58a1 1 0 01-.77.18.89.89 0 01-.62-.44 9.17 9.17 0 00-.3-.44l-.38-.54-.32-.42a.81.81 0 01-.17-.67.92.92 0 01.37-.58 1.14 1.14 0 01.7-.22.84.84 0 01.64.34l.34.41.42.55c.15.18.25.33.32.43a.93.93 0 01.18.77.94.94 0 01-.41.63zm12.84 3.51a1.09 1.09 0 01-.72-.22.85.85 0 01-.27-.67v-3.2h-1.56A5.78 5.78 0 0187 8a1.65 1.65 0 01-1-.82 3.62 3.62 0 01-.31-1.68A3.71 3.71 0 0186 3.79 1.67 1.67 0 0187 3a5.82 5.82 0 011.78-.22h1.56V1.26a.81.81 0 01.22-.66 1.09 1.09 0 01.72-.22A1.05 1.05 0 0192 .6a.81.81 0 01.27.66v1.5h1.57a5.85 5.85 0 011.79.24 1.67 1.67 0 011 .81 3.85 3.85 0 01.31 1.7 3.75 3.75 0 01-.31 1.68 1.65 1.65 0 01-1 .82 5.81 5.81 0 01-1.79.23h-1.57v3.2a.85.85 0 01-.27.67 1.05 1.05 0 01-.72.2zm-2.55-5.78h1.56V4.45h-1.56a3 3 0 00-.68.06.52.52 0 00-.34.29 2 2 0 00-.09.69 2 2 0 00.09.68.5.5 0 00.34.29 2.44 2.44 0 00.68.07zm3.54 0h1.57a2.47 2.47 0 00.69-.07.46.46 0 00.33-.29 1.71 1.71 0 00.1-.68 1.73 1.73 0 00-.1-.69.48.48 0 00-.33-.29 3 3 0 00-.69-.06h-1.57zm13.18 5.68a1.3 1.3 0 01-1.27-1.27 1.2 1.2 0 01.38-.9 1.28 1.28 0 011.8 0 1.23 1.23 0 01.37.9 1.26 1.26 0 01-.37.89 1.24 1.24 0 01-.91.38zm0-3.37a.83.83 0 01-.56-.21.82.82 0 01-.26-.54c0-.46-.07-1-.11-1.5s-.07-1.08-.11-1.6-.06-1-.08-1.43 0-.76 0-1v-1a1.06 1.06 0 01.32-.78 1.16 1.16 0 012 .78v2c0 .43 0 .9-.09 1.43s-.07 1.06-.11 1.6-.07 1-.11 1.5a.74.74 0 01-.26.54.79.79 0 01-.63.21z" fill="#fff" data-name="レイヤー 1"/></g></svg>