<svg xmlns="http://www.w3.org/2000/svg" width="980.12" height="50"><defs><style>.cls-1{fill:#ff5064}.cls-2{fill:#282828}.cls-3{fill:#00b4dc}</style></defs><g id="レイヤー_2" data-name="レイヤー 2"><g id="object"><path class="cls-1" d="M708.13 19c-.45-1-1.35-3-5.45-3-7 0-7.42 6-7.69 9.5 1.57-1.44 3.64-3.33 9.49-3.33 7.52 0 12.6 4.32 12.6 11.43 0 6.61-4.54 13-14.35 13a15.52 15.52 0 01-8.37-2.2c-6.35-3.83-7.29-11.12-7.29-16.52 0-17.64 12.55-18.72 15.66-18.72 4 0 12.46 1.85 13.95 9.86zm.87 15c0-3.74-3.24-5.63-6.66-5.63s-6.7 1.94-6.7 5.63c0 2.92 2.16 5.89 6.7 5.89S709 36.87 709 34zm15.55 11.6l15-35.46h5.67l-15 35.46zm35.45 0v-23h-7.69v-5.93c4.54-.14 7.78-.9 9.45-6.53h6.61V45.6zm46.89-17.14c0 4.32-1 18.13-15 18.13-6.53 0-10-3.15-11.88-5.8-2.34-3.42-3.15-9.59-3.15-13.5 0-4.32 1-18.14 15-18.14 13.19 0 15.03 11.97 15.03 19.31zm-21.64-.59c0 1.49 0 11.93 6.66 11.93s6.61-10.4 6.61-11.93 0-11.92-6.61-11.92-6.66 10.3-6.66 11.92zm95.45.63a5.49 5.49 0 11-5.49-5.5 5.51 5.51 0 015.49 5.5zm16.49 17.1v-23h-7.7v-5.93c4.55-.14 7.79-.9 9.45-6.53h6.62V45.6zm24.65 0v-23h-7.69v-5.93c4.54-.14 7.78-.9 9.45-6.53h6.61V45.6zm58.28-17.1a20 20 0 11-20-20 20 20 0 0120 20zm-123.18 0a20 20 0 11-20-20 20 20 0 0120 20z"/><path class="cls-2" d="M848.48 21.78v4.14h-10.05v10h11.46v4h-27.63v-4h11.31v-10h-9.87v-4.14h9.87V13.2l5 .24a.44.44 0 01.48.36c0 .21-.39.51-.6.66v7.32zM954 38.8v1.65h-4.71V16h21.51v24.45h-4.71V38.8zm12.09-13.65v-5H954v5zm0 9.36V29.2H954v5.31z"/><path class="cls-3" d="M226.13 19c-.45-1-1.35-3-5.45-3-7 0-7.42 6-7.69 9.5 1.57-1.44 3.64-3.33 9.49-3.33 7.52 0 12.6 4.32 12.6 11.43 0 6.61-4.54 13-14.35 13a15.52 15.52 0 01-8.37-2.2c-6.35-3.83-7.29-11.12-7.29-16.52 0-17.64 12.55-18.72 15.66-18.72 4.05 0 12.46 1.85 14 9.86zm.87 15c0-3.74-3.24-5.63-6.66-5.63s-6.7 1.94-6.7 5.63c0 2.92 2.16 5.89 6.7 5.89S227 36.87 227 34zm15.55 11.6l15-35.46h5.67l-15 35.46zm53.69-9.99a10.06 10.06 0 01-4.05 8.24c-3.51 2.47-8.55 2.74-10.94 2.74-2.79 0-7.56-.36-10.93-2.74a10 10 0 01-4.1-8.24c0-6.48 5.18-8.28 6.75-8.82-5.58-2.47-5.58-7-5.58-7.92a8.94 8.94 0 013.92-7.29c2.61-1.93 7.29-2.43 10.12-2.43 12.65 0 13.64 7.61 13.64 9.72a8.36 8.36 0 01-5.58 7.92c1.57.54 6.75 2.34 6.75 8.82zm-21.65-.94c0 3.82 3.6 5.13 6.66 5.13s6.62-1.31 6.62-5.13c0-1.44-.77-5.13-6.62-5.13s-6.66 3.64-6.66 5.13zm1.17-14.45c0 .59.09 4.28 5.45 4.28s5.49-3.6 5.49-4.23c0-1.62-1-4.37-5.45-4.37s-5.49 2.7-5.49 4.32zm69.53 8.28a20 20 0 11-20-20 20 20 0 0120 20zm23.76 0a5.49 5.49 0 11-5.49-5.5 5.51 5.51 0 015.49 5.5zm15.7 8.24c.41.94 1.35 3 5.4 3 7 0 7.43-6 7.7-9.49-1.58 1.44-3.65 3.33-9.5 3.33-7.51 0-12.6-4.32-12.6-11.43 0-6.62 4.55-13 14.36-13a15.54 15.54 0 018.37 2.21c6.34 3.82 7.29 11.11 7.29 16.51 0 17.64-12.56 18.72-15.66 18.72-4.05 0-12.47-1.84-13.95-9.85zm-.9-14.94c0 3.73 3.24 5.62 6.71 5.62s6.66-1.93 6.66-5.62c0-2.93-2.16-5.9-6.66-5.9s-6.71 2.97-6.71 5.9zm70.97 6.7a20 20 0 11-20-20 20 20 0 0120 20z"/><path class="cls-2" d="M327.34 41.71h-4.77V30.07a27.41 27.41 0 01-8.73 9 7.48 7.48 0 00-3.15-3.57 25 25 0 0010.14-11h-9.45v-4.27h11.19v-6.12l4.62.15c.24 0 .75 0 .75.36s-.09.33-.6.66v5h11.28v4.26H329a28.24 28.24 0 0010.2 10.89c-.51.33-1.56 1-3.15 3.6a36.51 36.51 0 01-8.7-9zM436.16 28h9.18v3.78h-5.4l3.84 1.53c.27.12.45.18.45.36s-.48.39-1 .42a23.69 23.69 0 01-1.44 3.24h4.59V41h-25.13v-3.67h5a15.44 15.44 0 00-2.34-4l2.94-1.59h-4.38V28h9.3v-1.68h-4.32v-2.1c-2 1.26-2.52 1.62-5 3a15.61 15.61 0 00-3.45-3.45c8.37-3.57 12.15-8 13.05-9.72l4.89.54c.18 0 .39.06.39.3s-.3.45-.6.54A29.81 29.81 0 00449 23.35a14.11 14.11 0 00-3.3 3.9 25.82 25.82 0 01-5.28-3v2.1h-4.26zm-4.38 3.78H428a19.73 19.73 0 012.46 4c-1.26.69-1.83 1-2.55 1.5h3.9zm6.22-9.33a22.27 22.27 0 01-4-3.69 28.28 28.28 0 01-4 3.69zm-1.83 14.88h3.66a23.19 23.19 0 00-2.34-1.17 17.41 17.41 0 002.16-4.38h-3.48z"/><rect class="cls-3" width="192.21" height="50" rx="5.32"/><rect class="cls-1" x="469" width="204.21" height="50" rx="4.93"/><path d="M516.57 14.54a4.37 4.37 0 01-.25 1.47 3.93 3.93 0 01-2.4 2.34 6.21 6.21 0 01-2.31.39h-2.67v5.08h-4.08V10.28h6.75a6.21 6.21 0 012.31.39 4.07 4.07 0 011.56 1 4 4 0 01.84 1.35 4.54 4.54 0 01.25 1.52zm-4.16 0a1.42 1.42 0 00-.57-1.32 4.1 4.1 0 00-2-.36h-.86v3.26h.88a7 7 0 001.56-.13 1.25 1.25 0 00.79-.47 1.67 1.67 0 00.2-.96zm19.53 3.21a6.21 6.21 0 01-.65 3 5.11 5.11 0 01-1.72 1.93 7.32 7.32 0 01-2.3 1 10 10 0 01-2.47.31 9.78 9.78 0 01-3.34-.58 5.91 5.91 0 01-2.72-2 5.76 5.76 0 01-1.09-3.66v-7.47h4.07v6.42a5.62 5.62 0 00.38 2.21 2.71 2.71 0 001.08 1.28 3.44 3.44 0 003.22 0 2.57 2.57 0 001.07-1.27 5.38 5.38 0 00.39-2.2v-6.44h4.08zM546.51 20a3.52 3.52 0 01-1.2 2.79 4.88 4.88 0 01-3.31 1.03h-7.82V10.28h6.54a8.57 8.57 0 012.21.25 4.46 4.46 0 011.52.66 2.84 2.84 0 01.86 1 2.77 2.77 0 01.28 1.26 3.3 3.3 0 01-.29 1.37 3.34 3.34 0 01-.73 1 2.71 2.71 0 01-.87.57 5.35 5.35 0 012.11 1.39 3.12 3.12 0 01.7 2.22zm-4.77-5.8a1.3 1.3 0 00-.64-1.3 4.65 4.65 0 00-2-.32h-.86v3.22h.88a4.68 4.68 0 002-.32 1.32 1.32 0 00.62-1.3zm.67 5.63q0-1.74-2.52-1.74h-1.66v3.47h1.66c1.68-.02 2.52-.56 2.52-1.75zm16 3.99h-10.28V10.28h4.08v10.29h6.2zm5.47 0h-4.08V10.28h4.08zm14.54-1.02a9.41 9.41 0 01-1.72.7 10 10 0 01-1.77.38 15.86 15.86 0 01-1.85.11 9.46 9.46 0 01-3.17-.49 6.76 6.76 0 01-2.43-1.44 6 6 0 01-1.54-2.22 7.31 7.31 0 01-.52-2.8A7.11 7.11 0 01566 14a5.92 5.92 0 011.69-2.19 7.49 7.49 0 012.48-1.28 10.14 10.14 0 012.94-.41 16 16 0 015.22 1v3.59a15.21 15.21 0 00-2-1 6 6 0 00-2.3-.41 5.28 5.28 0 00-2.21.47 4 4 0 00-1.65 1.34 3.36 3.36 0 00-.63 2 3.47 3.47 0 00.55 1.88 3.77 3.77 0 001.52 1.35 4.65 4.65 0 002.19.51 7.1 7.1 0 001.87-.24 9.6 9.6 0 001.48-.53 13.1 13.1 0 001.23-.7zM599 17.29a6.38 6.38 0 01-.76 3.34 7.12 7.12 0 01-1.78 2 6.4 6.4 0 01-4.07 1.15h-7.29v-13.5h5.63a16.63 16.63 0 012.17.13 10.06 10.06 0 011.63.37 6.47 6.47 0 011.23.54 5.75 5.75 0 01.9.64 6 6 0 011.22 1.34 6.28 6.28 0 01.83 1.79 7.36 7.36 0 01.29 2.2zm-4.15-.17a4.56 4.56 0 00-.63-2.58 3.12 3.12 0 00-1.52-1.23 5.28 5.28 0 00-1.8-.31h-1.74v8h1.74a5 5 0 002.78-.76c.8-.5 1.19-1.54 1.19-3.12zm20.55 6.7h-4.18l-1.1-2.75h-5.88l-1.12 2.75h-4.18l6-13.54h4.51zm-6.22-5.1l-2-4.94-2 4.94zm20.22-8.44l-5.3 7.34v6.2H620v-6.13l-5.4-7.41h4.23l3.17 4.26 3.11-4.26zm10.28 9.6a3.76 3.76 0 01-.65 2.2 4.11 4.11 0 01-1.81 1.42 6.76 6.76 0 01-2.67.49h-1a13.27 13.27 0 01-1.62-.3 12.46 12.46 0 01-2.1-.72V19.6a14.94 14.94 0 002 1 5.43 5.43 0 002.13.42 1.84 1.84 0 001.35-.34 1 1 0 00.31-.65 1.12 1.12 0 00-.53-.93 7.16 7.16 0 00-1.53-.77 14.27 14.27 0 01-2-1 4.66 4.66 0 01-1.35-1.33 3.57 3.57 0 01-.53-2 3.6 3.6 0 012.18-3.39 6.21 6.21 0 012.69-.52 9.21 9.21 0 012.1.22 8.52 8.52 0 011.58.49 5.07 5.07 0 01.86.43v3.17a11.32 11.32 0 00-1.85-1.06 5.17 5.17 0 00-2.18-.47 1.7 1.7 0 00-1.1.29.92.92 0 00-.34.72.89.89 0 00.34.7 6.22 6.22 0 001.22.71 25.58 25.58 0 012.5 1.32 5.07 5.07 0 011.47 1.39 3.31 3.31 0 01.53 1.88zM490.89 36.33v2h-10.52v-2zm10.67.52l.67.72a9.1 9.1 0 01-1.55 2.78 6.36 6.36 0 001.85.72 5.17 5.17 0 00-1 1.61 7.44 7.44 0 01-2.14-1.11 7.17 7.17 0 01-2 1.09 3.23 3.23 0 00-.81-1.12c-.06 1-.87 1.13-2.2 1.12a3.38 3.38 0 00-.56-1.75c.28 0 .58.08.83.08.41 0 .42-.09.42-.48V38.2h-.31v2.36h-1v-2.25h-.25a12.48 12.48 0 01-.73 4.31 3.35 3.35 0 00-1.42-.83 9.48 9.48 0 00.73-3.38h-.07c0 .09-.09.21-.21.21s-.14-.12-.15-.18l-.18-1.57a2 2 0 00.56 0v-3.81h1.09a6.11 6.11 0 00.36-1.07l2 .22c.1 0 .19 0 .19.12s-.24.23-.39.27a4.72 4.72 0 00-.24.46h1.58v2.46a3.71 3.71 0 00.66-2.28v-.87H501v2.42c0 .12 0 .18.13.18s.26-.68.27-1a3.8 3.8 0 001.25.71c-.17 1.59-.53 1.78-1.18 1.78h-1.18a.86.86 0 01-.94-1v-1.53h-.43a4.48 4.48 0 01-1.06 2.83 3.81 3.81 0 00-1.17-.7v.55l.43-.06a2.12 2.12 0 000 .3zm-8-1.75l1.06-.35a8.12 8.12 0 01.51 1.37v-1.63h-1.57zm0 1.78c1-.05 1.14-.07 1.57-.11v-.41a6.84 6.84 0 00-1.12.42 8.12 8.12 0 00-.45-1.45zM497 38h-.39v3a4.88 4.88 0 001.38-.67 8.22 8.22 0 01-1-1.35l.88-.53H497zm1.64.49a9.52 9.52 0 00.67.82 4.25 4.25 0 00.58-.82zm9.18-4.81a.17.17 0 01.09.16c0 .14-.12.17-.39.22a12.16 12.16 0 01-3 4.08 7.4 7.4 0 00-1.64-1.38 9.38 9.38 0 003.08-4zm2.73 3.65a23.37 23.37 0 012.79 4.45 7.57 7.57 0 00-1.85 1c-.13-.3-.25-.57-.49-1-.91.1-5 .54-6.33.66-.1.2-.13.25-.24.25s-.12-.05-.16-.21l-.36-1.92c.31 0 .65 0 1.24-.06a34.66 34.66 0 002.1-5.15l2.15.72a.19.19 0 01.14.18c0 .14-.11.18-.43.22-.28.75-1.46 3.32-1.77 3.9l2.75-.23a13.09 13.09 0 00-1.19-1.71zm.61-5c.28 2.19 2.16 3.6 3 4.2a7.35 7.35 0 00-1.35 1.54 9.55 9.55 0 01-3.18-4h-1.54v-1.71zM517 40v-1.36h1a4.1 4.1 0 000-.6h-.89v-1.27h5.62V38h-.85v.6H523V40h-1.08v2.4h-1.62V40h-.8a4 4 0 01-1.44 2.63 3.64 3.64 0 00-1.4-1v1h-1.84V32.29h4.9v4.12h-3.06v5.18a2.6 2.6 0 001.23-1.59zm1-6.07v-.38h-1.39v.38zm-1.39 1v.4H518v-.4zm3.68 3.2h-.69v.6h.69zm4.77-5.75v8.89c0 1.33-.93 1.42-2.34 1.42a4.06 4.06 0 00-.51-1.82 3 3 0 00.67.08c.18 0 .38 0 .38-.32v-4.22h-3.1v-4.12zm-1.8 1.6v-.38h-1.36v.38zm-1.38 1v.4h1.38v-.4zm8.73 2.14l5.26 2.61-.72 1.53-8.35-4.14 8.35-4.12.72 1.54zm12.73-5.02c.08 0 .23 0 .23.18s-.16.18-.28.21c-.09.29-.12.41-.19.61h5v1.63h-5.64c-.19.36-.27.48-.36.63h4.84v5.75c0 1.17-.49 1.62-2.84 1.54a4 4 0 00-.52-1.78c.16 0 .88.16 1 .16.44 0 .44-.16.44-.37v-.39h-3.26v2.38h-1.89V38a7.88 7.88 0 01-1.2.93 6.66 6.66 0 00-1.44-1.35 7.32 7.32 0 003.1-2.87h-2.75V33.1H541a8.51 8.51 0 00.31-1.2zm1.66 5.16v-.43h-3.26v.43zm-3.26 1.27V39H545v-.48zm13.51-3.1a12.39 12.39 0 011.48 1.72 12 12 0 00-1.23 1.16 10.37 10.37 0 00-1.3-1.55v.4h-1.37a9.08 9.08 0 001.38 1.43c-.13.16-.17.21-.27.35l2.86-.65v-3.57a9.49 9.49 0 00-.82.84 11 11 0 00-1.49-1.56l1.16-1.15A9.66 9.66 0 01556.8 34v-2l2 .11a.17.17 0 01.16.15c0 .14-.11.19-.3.27v5.26l.75-.18.31 1.57-1.06.26v3.11h-1.86V40l-2.7.68-.3-1.52a7.14 7.14 0 00-.47.87 6 6 0 01-.7-.76v3.36h-1.83V40.2a5.88 5.88 0 01-.82 1.11 5.61 5.61 0 00-1.33-1.31 7.52 7.52 0 002-2.86H549v-1.62h1.81v-.66a9.69 9.69 0 00-1.24.45 9.71 9.71 0 00-.67-2.14l1.38-.46a10.31 10.31 0 01.53 1.58V32.1l2 .09a.2.2 0 01.19.18c0 .15-.17.23-.31.27v1.85a14.36 14.36 0 00.53-1.84l1.66.39a.16.16 0 01.13.14c0 .09-.08.16-.3.25-.48 1.48-.5 1.53-.65 1.92a5.42 5.42 0 00-1.37-.47v.64h1.57v1zm5.57 7.12l-.28-.28 10.07-10.08.29.29zM575.73 35c.08 0 .16.06.16.16s-.08.17-.36.24a14.47 14.47 0 01-2.17 4.87 10.59 10.59 0 00-1.89-1 11.35 11.35 0 002.27-4.92zm2.66-2.79c.1 0 .2 0 .2.17s-.11.2-.27.26v8.24c0 1.63-.91 1.82-3.06 1.81a4.85 4.85 0 00-.76-2.06c.3 0 .8.1 1.2.1s.54 0 .54-.37v-8.28zm2.09 2a28.66 28.66 0 012.34 5.24 8 8 0 00-2 1 25.25 25.25 0 00-2.14-5.45zm9.15 5.91v1.17c0 1.36-.86 1.41-3 1.39a5.37 5.37 0 00-.56-1.78l1.3.05c.36 0 .36-.08.36-.59v-.24h-4.31v-1.66h4.31v-.66l.76.06a5.62 5.62 0 00.46-.37h-3.34v-1.58h5.64l.61 1.08a15.62 15.62 0 01-1.86 1.47h3.74v1.66zM587.74 34a8.32 8.32 0 00-.94-1.52l1.65-.62a8.33 8.33 0 011.06 1.69 8.37 8.37 0 00-.9.45H590a20.57 20.57 0 001.16-2l1.92.56c.11 0 .2 0 .2.16s-.21.21-.4.21a11.69 11.69 0 01-.66 1.07h1.56v3.11h-1.83v-1.59h-6.64v1.56h-1.82V34H585a7.39 7.39 0 00-.83-1.24l1.61-.72a7 7 0 011.07 1.6 6.83 6.83 0 00-.66.36zm11.59 0v-1.92l2 .06c.1 0 .27 0 .27.16s0 .12-.26.3V34h3.52v1.77h-3.52v1.4h2.67v1.73h-2.67v1.74h3.93v1.77h-10.49v-1.77h4.55V38.9h-2.81v-1.74h2.81v-1.4h-2.19a10.22 10.22 0 01-1.14 1.76 5.39 5.39 0 00-1.65-1 10.7 10.7 0 002-4.31l1.89.39c.18 0 .26.09.26.21s-.17.19-.26.2c-.09.26-.17.5-.35 1zm6.67 5.66c.28-.06.45-.09 1-.26v-7.09l2.1.13s.25 0 .25.19-.09.17-.28.26v5.87a29.57 29.57 0 002.77-1 4.48 4.48 0 00-.1 1.21 5.26 5.26 0 000 .8c-.75.31-2.06.86-4.71 1.73l-.11.27a.16.16 0 01-.15.09c-.1 0-.14-.11-.17-.2zm10.24-7.27c.15 0 .21.08.21.18s-.11.17-.31.27c-.06 2.59-.11 4.66-1 6.36a12.1 12.1 0 011.91 2.06 9 9 0 00-1.51 1.44 11.43 11.43 0 00-1.49-1.88 6.65 6.65 0 01-3.09 2 5.3 5.3 0 00-1.37-1.57C612.5 40.34 614 39 614 34v-1.75zm-4.84.26a13.49 13.49 0 012 2.61 8 8 0 00-1.7 1.23 9.77 9.77 0 00-1.93-2.68zm12.22 2.55a25 25 0 013.77 2.8 10.91 10.91 0 00-1.39 1.66 13.51 13.51 0 00-2.4-2.13v5.07h-2.11v-8.24h-3.89v-1.9h10.59v1.9h-4.59zm6.95-.2c-.24.22-.36.32-.49.42a6.56 6.56 0 00-1.39-1 8.69 8.69 0 002.17-2.47l1.77.4c.09 0 .16.07.16.16s-.14.16-.3.22l-.12.18h6.86v1.48h-1v1.24h1.44v1.51h-1.44v1.19h1v1.47h-1a13.07 13.07 0 011.53 2 11.9 11.9 0 00-1.56.93 11 11 0 00-1.53-2.21l1.16-.73h-7.44l1.51.6c.15.06.23.1.23.19s-.18.16-.28.16a9.19 9.19 0 01-1.52 2.08 5.85 5.85 0 00-1.54-1 6.15 6.15 0 001.57-2.06h-.94v-1.45h1.12v-1.19h-1.52v-1.51h1.52zm1.51.66h.54v-1.29h-.54zm0 2.7h.54v-1.24h-.54zm1.68 1.8a9.48 9.48 0 01.71 2.2 14.26 14.26 0 00-1.82.4 8.57 8.57 0 00-.52-2.31zm.37-4.5h.54v-1.29h-.54zm0 2.7h.54v-1.24h-.54zm1.94 1.64a10.31 10.31 0 01.95 2.2 11.63 11.63 0 00-1.75.48 12.25 12.25 0 00-.83-2.29zm.11-5.61v1.24h.53v-1.26zm0 2.75v1.19h.53v-1.21zm10.59-1.71a13.2 13.2 0 011.49 1.72 11.75 11.75 0 00-1.26 1.16 10.37 10.37 0 00-1.3-1.55v.4h-1.36a9.34 9.34 0 001.37 1.43 3.13 3.13 0 00-.26.35l2.86-.65v-3.57a8.28 8.28 0 00-.83.84A11 11 0 00646 34l1.15-1.15a10.29 10.29 0 011.18 1.15v-2l2 .11a.16.16 0 01.16.15c0 .14-.1.19-.3.27v5.26l.76-.18.31 1.57-1.07.26v3.11h-1.88V40l-2.7.68-.31-1.52a7.14 7.14 0 00-.47.87 8.1 8.1 0 01-.7-.76v3.36h-1.83V40.2a5.88 5.88 0 01-.82 1.11 5.61 5.61 0 00-1.31-1.31 7.52 7.52 0 002-2.86h-1.65v-1.62h1.8v-.66a9.5 9.5 0 00-1.23.45 9.76 9.76 0 00-.68-2.14l1.39-.46a10.93 10.93 0 01.52 1.58V32.1l2 .09a.19.19 0 01.18.18c0 .15-.17.23-.31.27v1.85a14.36 14.36 0 00.53-1.84l1.67.39a.15.15 0 01.12.14c0 .09-.08.16-.29.25-.48 1.48-.51 1.53-.66 1.92a5.42 5.42 0 00-1.37-.47v.64h1.57v1zM658 37.12l-5.26-2.6.72-1.54 8.35 4.14-8.35 4.14-.72-1.53zM35.47 20a3.55 3.55 0 01-1.19 2.79 4.93 4.93 0 01-3.35 1.05h-7.82V10.28h6.54a8.46 8.46 0 012.21.25 4.38 4.38 0 011.52.66 2.74 2.74 0 01.86 1 2.77 2.77 0 01.28 1.26 3.15 3.15 0 01-.29 1.37 3.18 3.18 0 01-.73 1 2.71 2.71 0 01-.87.57 5.35 5.35 0 012.11 1.39 3.12 3.12 0 01.73 2.22zm-4.76-5.8a1.31 1.31 0 00-.65-1.3 4.65 4.65 0 00-2-.32h-.86v3.22h.88a4.77 4.77 0 002-.32 1.34 1.34 0 00.63-1.3zm.66 5.63q0-1.74-2.52-1.74h-1.66v3.47h1.66c1.68-.02 2.52-.56 2.52-1.75zm19.82-2.08a6.32 6.32 0 01-.65 3 5.11 5.11 0 01-1.72 1.93 7.32 7.32 0 01-2.3 1 10 10 0 01-2.47.31 9.78 9.78 0 01-3.34-.58 5.91 5.91 0 01-2.72-2 5.76 5.76 0 01-1.1-3.66v-7.47H41v6.42a5.45 5.45 0 00.38 2.21 2.71 2.71 0 001.08 1.28 3.14 3.14 0 001.62.4 3.08 3.08 0 001.59-.4 2.54 2.54 0 001.08-1.27 5.38 5.38 0 00.39-2.2v-6.44h4.08zm15.41-7.47l-5.31 7.34v6.2h-4.08v-6.13l-5.4-7.41h4.24l3.11 4.26 3.11-4.26zm11.02 13.54H67.41V10.28h10V13h-6v2.48h5.68v2.72H71.5v2.89h6.12zm14.84 0h-4.39L87 21.41a9.47 9.47 0 00-1-1.92 2.29 2.29 0 00-1-.79 3.36 3.36 0 00-1.15-.17h-.46v5.29h-4.04V10.28h7a5.09 5.09 0 012.75.68 4.15 4.15 0 011.55 1.66 4.37 4.37 0 01.47 1.86 3.54 3.54 0 01-.39 1.73 3.16 3.16 0 01-.84 1 7.66 7.66 0 01-1 .62 3.71 3.71 0 011.08.9 11.22 11.22 0 011.16 2.12zm-5.55-9.26a1.4 1.4 0 00-.61-1.31 4 4 0 00-2-.37h-.86v3.26h.88a4.39 4.39 0 002-.33 1.31 1.31 0 00.59-1.25zm10.01-1.39a3.79 3.79 0 01-.26 1.34 4.06 4.06 0 01-.81 1.31 4.64 4.64 0 01-1.45 1.05 6.59 6.59 0 01-2.08.61v-.63a2.44 2.44 0 001.53-2.58v-.21a1.86 1.86 0 01-1.53-1.92 2 2 0 01.27-1 2.05 2.05 0 011.81-1 2.2 2.2 0 011.4.45 2.72 2.72 0 01.84 1.18 3.8 3.8 0 01.28 1.4zm10.89 6.71a3.69 3.69 0 01-.65 2.2 4.05 4.05 0 01-1.81 1.42 6.73 6.73 0 01-2.67.49h-1a13.27 13.27 0 01-1.62-.3 12.46 12.46 0 01-2.1-.72V19.6a15 15 0 002 1 5.35 5.35 0 002.12.42 1.84 1.84 0 001.35-.34 1 1 0 00.31-.65 1.12 1.12 0 00-.53-.93 7.16 7.16 0 00-1.53-.77 13.57 13.57 0 01-2-1A4.69 4.69 0 0198.34 16a3.57 3.57 0 01-.53-2 3.6 3.6 0 012.19-3.38 6.24 6.24 0 012.69-.52 9.21 9.21 0 012.1.22 8.9 8.9 0 011.59.49 6 6 0 01.86.43v3.17a11.76 11.76 0 00-1.85-1.06 5.22 5.22 0 00-2.19-.47 1.7 1.7 0 00-1.1.29.92.92 0 00-.34.72.89.89 0 00.34.7 6.22 6.22 0 001.22.71 25.58 25.58 0 012.5 1.32 5.07 5.07 0 011.46 1.38 3.31 3.31 0 01.53 1.88zm20.63-2.59a6.38 6.38 0 01-.76 3.34 7.12 7.12 0 01-1.78 2 6.4 6.4 0 01-4.07 1.15h-7.31v-13.5h5.63a16.63 16.63 0 012.17.13 10.06 10.06 0 011.63.37 6.47 6.47 0 011.23.54 6.37 6.37 0 01.91.64 6.32 6.32 0 012 3.13 7.36 7.36 0 01.35 2.2zm-4.15-.17a4.56 4.56 0 00-.63-2.58 3.12 3.12 0 00-1.52-1.23 5.28 5.28 0 00-1.8-.31h-1.74v8h1.74a5 5 0 002.78-.76c.78-.5 1.17-1.54 1.17-3.12zm20.53 6.7h-4.18l-1.1-2.75h-5.88l-1.12 2.75h-4.18l6-13.54h4.51zm-6.22-5.1l-2-4.94-2 4.94zm20.22-8.44l-5.3 7.34v6.2h-4.08v-6.13L144 10.28h4.23l3.11 4.26 3.12-4.26zm10.28 9.6a3.76 3.76 0 01-.65 2.2 4.11 4.11 0 01-1.81 1.42 6.73 6.73 0 01-2.64.5h-1a13.27 13.27 0 01-1.62-.3 12.46 12.46 0 01-2.1-.72V19.6a14.94 14.94 0 002 1 5.43 5.43 0 002.13.42 1.84 1.84 0 001.35-.34 1 1 0 00.31-.65 1.12 1.12 0 00-.53-.93 7.16 7.16 0 00-1.53-.77 13.57 13.57 0 01-2-1 4.69 4.69 0 01-1.38-1.33 3.57 3.57 0 01-.53-2 3.6 3.6 0 012.18-3.39 6.21 6.21 0 012.72-.51 9.21 9.21 0 012.1.22 8.9 8.9 0 011.59.49 5.28 5.28 0 01.85.43v3.17a11.32 11.32 0 00-1.85-1.06 5.17 5.17 0 00-2.18-.47 1.7 1.7 0 00-1.1.29.92.92 0 00-.34.72.89.89 0 00.34.7 6.22 6.22 0 001.22.71 25.58 25.58 0 012.5 1.32 5.07 5.07 0 011.44 1.38 3.31 3.31 0 01.53 1.88zM19.56 42h-3.14v.3h-1.67V39a4.64 4.64 0 00-.81-.52v4.16H12v-7.58h2.31a6.5 6.5 0 00-.31-.66l.73-.13h-2.91v-1.59h4.31v-.75l2.1.07c.07 0 .17 0 .17.13s-.06.1-.25.24v.31h4.31v1.59H20h.27c.09 0 .27 0 .27.16s-.19.16-.29.17a3.94 3.94 0 01-.23.44h2.25v6.06c0 1.54-.76 1.56-2.34 1.6a3.36 3.36 0 00-.38-1.53zm-5.62-4a2.59 2.59 0 001-1.35h-1zM17 36.65h-1.1l.72.25c.07 0 .14.05.14.13s-.06.11-.26.2a3.88 3.88 0 01-.94 1.63h4V41c.29 0 .42.07.53.07.27 0 .32-.14.32-.46v-2.4a1 1 0 01-.82.34h-1.67a.79.79 0 01-.89-.82zm-1-2.38c.17.3.25.45.42.79H18a5.17 5.17 0 00.37-.79zm.46 5.84v.5h1.49v-.5zM18.64 37c0 .17 0 .22.22.22h.28c.12 0 .21 0 .27-.49a4.17 4.17 0 001 .47v-.56h-1.77zm10.74-4.38c.06 0 .17 0 .17.12s-.09.12-.25.17a7.62 7.62 0 01-.54 2.09 3.63 3.63 0 00-1.34-.34v.5h-4v-1.38h4v.28a5.68 5.68 0 00.32-1.63zM33.93 38c.07 0 .2.08.2.2s-.2.22-.36.23a6.28 6.28 0 01-.68 1.57 4.06 4.06 0 00-1.33-.67 5.25 5.25 0 002.51 1.87 4.55 4.55 0 00-1.21 1.5 5.13 5.13 0 01-2.38-2 4.67 4.67 0 01-2.38 2 4.81 4.81 0 00-.89-1.11v.94H25.9v-.34h-.6v.48h-1.65v-4.09h3.76V39a4.49 4.49 0 00.43-1.45l1.56.31c.11 0 .21.06.21.15s-.19.2-.26.2a8.65 8.65 0 01-.7 2 4.06 4.06 0 00-1.24-.45v1.36c2.1-.71 2.38-2.15 2.27-4.17l1.94.08a.17.17 0 01.19.16c0 .11-.13.16-.29.22a9.44 9.44 0 01-.05 1.34 2.55 2.55 0 00.19.37 5.74 5.74 0 00.65-1.63zm-6.86-5.76v1.19h-3.18v-1.18zm0 3.21v1.22h-3.18v-1.21zm0 1.55v1.24h-3.18V37zm-1.17 3.75v-.81h-.6v.81zm8.1-7.83s.19.07.19.17-.23.19-.37.17a5.46 5.46 0 01-.82 1.57 3.57 3.57 0 00-.79-.48l-.69-.35a4.4 4.4 0 002.75 2 5.22 5.22 0 00-1.07 1.53 5.11 5.11 0 01-2.6-1.92 5.38 5.38 0 01-2.4 1.92 4.87 4.87 0 00-1.11-1.5c1.61-.48 2.52-.94 2.52-3.34v-.75l1.91.07c.12 0 .27 0 .27.16s0 .14-.31.24a7.94 7.94 0 01-.06 1.27 2.92 2.92 0 00.13.31 3.9 3.9 0 00.87-1.67zm8.5 7.55c0 .3.14.4.38.4h.76c.24 0 .46-.06.65-1.34a3.73 3.73 0 001.65.91c-.26 1.65-.74 2.11-1.71 2.11H42a1.31 1.31 0 01-1.45-1.49v-2.15h-1l.65.34c.09 0 .13.08.13.19s-.24.17-.33.17a6.15 6.15 0 01-3.84 3.22 4.65 4.65 0 00-1.33-1.51 4.17 4.17 0 003.37-2.41h-1.94v-6.74h8.26v6.74h-2zm.07-6.36v-.39H38.2v.39zm-4.37 1.23v.39h4.37v-.39zm0 1.61v.4h4.37V37zM54.66 41H53v1.7h-2V41h-1.6v-1.35a12 12 0 01-1.6 1.58 3.55 3.55 0 00-1.51-1.42 9.69 9.69 0 003.78-4.3h-3.4v-1.75H51V32h2c.11 0 .29 0 .29.18s-.14.21-.24.27v1.27h4.32v1.75h-3.5a11.65 11.65 0 003.76 4.22 5.75 5.75 0 00-1.38 1.52 12.47 12.47 0 01-1.59-1.57zM51 37.25a11.57 11.57 0 01-1.31 2H51zm3.31 2a10.54 10.54 0 01-1.31-2v2zm10.62-4.31c0 .15-.16.21-.3.25v.43h3.58v4.72c0 1.66-1.07 1.66-2.58 1.66a3.84 3.84 0 00-.56-2 6.22 6.22 0 00.75.08c.43 0 .43-.14.43-.4v-2.23h-1.62v5.24h-2v-5.24h-1.57v4.48h-2v-6.31h3.55v-.68h-4.34v-1.83h4.34V32l2.13.09a.17.17 0 01.19.15c0 .14-.16.21-.3.25v.65H69v1.83zm9.52 2.14l5.35 2.65-.74 1.55-8.48-4.2 8.48-4.21.74 1.56zm17.77 1.16v1.2h-.5v1.94H89.8V41h-2v.53c0 1.12-.9 1.23-2.78 1.18a3.84 3.84 0 00-.52-1.47c.36 0 .73.08 1.07.08S86 41.2 86 41h-3.8v-1.24H86v-.32h-4.47v-1.2H86v-.31h-3.8v-1.06H86v-.29h-3.2v-2.44H86v-.27h-4.46v-1.3H86v-.63l1.89.06c.06 0 .24 0 .24.14s-.1.16-.25.25v.18h4.38v1.3h-4.43v.27H91v2.44h-3.17v.29h3.89v1.37zM86 35.52v-.33h-1.39v.33zm1.88-.33v.33h1.3v-.33zm2 3.05v-.31h-2v.31zm0 1.52v-.32h-2v.32zm9.41-6.56a8.73 8.73 0 00.71-1.35l2.11.4c.06 0 .15 0 .15.12s-.21.19-.37.21c-.15.24-.2.31-.42.62h2.42v1.7H93.11v-1.7h2.3a5.27 5.27 0 00-.53-.8l1.93-.57A7.36 7.36 0 0197.6 33l-.6.2zm-3.86 6.95v2.54h-1.81v-7.42h4.83v6.16c0 1.2-1 1.23-2.2 1.26a4.46 4.46 0 00-.47-1.8 4.71 4.71 0 00.61.06c.25 0 .3-.08.3-.33v-.47zm1.26-3v-.45h-1.26v.45zm0 1.73v-.48h-1.26v.48zm4.21-3.38c.1 0 .21 0 .21.14s-.11.18-.21.23v4.5H99v-5zm2.52-.25c.12 0 .26 0 .26.15s-.12.17-.29.24v5.65c0 1.45-1.17 1.44-2.67 1.42a4.08 4.08 0 00-.59-1.92 8.26 8.26 0 001 .08c.31 0 .33-.13.33-.33v-5.41zm7.17.28l-1 6.22H107l-2-9.34h2.31l1.1 6.71 1-6.71h2.27l1 6.71 1.1-6.71h2.32l-2 9.34h-2.62zm14.21 4.36v1.86h-7.55v-9.34h7.4v1.86h-5.08v1.82H124v1.79h-4.42v2zm1.2 1.86v-9.34h5.09a2.4 2.4 0 012.67 2.4 1.86 1.86 0 01-1.31 1.92 2.18 2.18 0 011.65 2.3 2.63 2.63 0 01-2.8 2.72zm2.34-5.54h2.11a.92.92 0 00.9-1 .85.85 0 00-.9-.9h-2.11zm0 3.68h2.09a1.1 1.1 0 001.25-1.11c0-.85-.69-1-1.25-1h-2.09zm8.71.11v-2.49a9.35 9.35 0 01-.81.5 5.23 5.23 0 00-1.17-1.43 9.92 9.92 0 001.58-1 10.51 10.51 0 00-1-1l1.11-1H136v-1.43h4.34l.27.27 1.55-.58a6.64 6.64 0 00.45.91 7.6 7.6 0 00.74-.89l1.33.79c.12.09.16.12.16.19s-.22.17-.38.16c-.27.32-.6.7-.91 1 .15.16.21.23.29.3A10.76 10.76 0 00145 33l1.22.81c.1.06.18.12.18.22s-.25.2-.34.19a12 12 0 01-1 1.06 8.2 8.2 0 001.6 1 5.31 5.31 0 00-1.16 1.53 8.16 8.16 0 01-.8-.57V40h-.8c.09 0 .21.06.21.17s-.08.15-.33.2c-.07.19-.16.4-.22.52h2.67v1.61h-10.71v-1.58h2.79s-.18-.51-.31-.75l.71-.14zm0-6.37a8.11 8.11 0 01.89.78 2.49 2.49 0 00.54-.78zm6.7 3.05l-.74-.61v.19h-4.27v-.23c-.11.11-.26.26-.72.65zM139 38v.67h3.78V38zm2.91-3.18a8.56 8.56 0 01-1-1.62 7.62 7.62 0 01-.94 1.62zM140 40a5.78 5.78 0 01.36.89h1.13a6.15 6.15 0 00.36-.89zm11.27-3.84h-.86v.51h1.15v1.55h-1.15v1.48a5.3 5.3 0 00.46-1.34l1.25.36a4.6 4.6 0 00-.43-.75l1.13-.71h-1.08v-1.45h3.51v-.43h-2.92v-1.3h2.92v-.38h-3.32v-1.41h5.24v3.52h.66v1.45h-1.13l1.19.78a.25.25 0 01.11.19c0 .17-.16.18-.33.18a11.14 11.14 0 01-.84 1.18 6.5 6.5 0 001.25 1.11 6.87 6.87 0 00-1 1.59 6.55 6.55 0 01-1.47-1.77v.83c0 1.42-.9 1.42-2.39 1.42a5.07 5.07 0 00-.44-1.6l-.36.16c0 .21 0 .43-.22.43a.18.18 0 01-.17-.15l-.34-1.29a9.66 9.66 0 00-.16 1.44c-.8.19-2 .4-3.72.69-.08.21-.1.27-.22.27s-.13-.09-.15-.17L147 40.8c.32 0 .69 0 1.69-.17v-.5c-.19.07-1.06.36-1.23.43a9.48 9.48 0 00-.5-1.81l1.28-.39a12.79 12.79 0 01.45 1.54v-1.68h-1.53v-1.55h1.53v-.51h-1v-.89c-.38-.37-.74-.65-1-.82a5.47 5.47 0 002-2.54l1.82.24c.09 0 .16 0 .16.13a.2.2 0 01-.16.19 7.07 7.07 0 001.51 1.45 7.72 7.72 0 00-.83.91zm-.9-1.47a5.38 5.38 0 01-.68-.89c-.35.48-.59.75-.71.89zm0 5.68c.38-.06.67-.13 1-.2a6.25 6.25 0 00-1-.3zm1.84-1.4a.72.72 0 01-.21 0c-.07.19-.21.61-.26.76.38-.11.54-.17.72-.23a4.49 4.49 0 00-.21-.5zm1.58-1.71H153a15.62 15.62 0 01.74 1.43 11 11 0 00-1.16.79c.29-.1.62-.23 1.23-.5zm0 3.33l-1 .52c.42 0 .58.07.7.07s.25-.19.25-.37zm1.76-3.33v.49a4.65 4.65 0 00.3.58 9.11 9.11 0 00.59-1.07zm9.39-1.91V37h-2.05v.42h2v3.44c0 .92-.77 1.14-1.65 1.09a3.46 3.46 0 00-.36-1.42v2.13h-1.75v-3.53h-.45V42H159v-4.55h2.11V37h-2.38v-1.65h1.11a6.24 6.24 0 00-1.45-.62 6.63 6.63 0 00.85-2.55l1.69.35c.07 0 .09.08.09.16s-.1.17-.33.22c-.06.27-.07.32-.11.45h.53V32h1.77c.13 0 .26 0 .26.17s-.14.18-.28.25v.78h2v1.65h-2v.49zm-3.8 0v-.49h-1c-.1.31-.14.41-.17.49zm1.75 4.89c.38 0 .47 0 .47-.27v-.84h-.47zm4.1-6.92c.16 0 .26 0 .26.16s-.05.15-.26.28v6.5h-1.69v-7zm2.26-1.32c.11 0 .27 0 .27.18s-.07.15-.27.27v8.41c0 1.5-.46 1.93-2.58 1.83a3.69 3.69 0 00-.7-1.88 8.62 8.62 0 001 .07c.43 0 .44-.11.44-.39V32zm7.27 5.08l-5.34-2.65.73-1.56 8.48 4.21-8.48 4.2-.73-1.55z" fill="#fff"/></g></g></svg>