<svg xmlns="http://www.w3.org/2000/svg" width="382.46" height="58.95"><path d="M1.23.07h8.68v3.05H4.27v19.63h-3zm26.06 5.55v14.16c0 2-1 2.64-4.44 2.61a6.61 6.61 0 00-1.39-3.67 9.51 9.51 0 001.7.15c.82 0 1.15 0 1.15-.8v-1.49h-4a17.14 17.14 0 01-1.56 6 10.94 10.94 0 00-2.86-1.77c.63-1.35 1.47-3.34 1.47-8.38V6.22a6 6 0 00-1.49-1.13A13.17 13.17 0 0019.39 0l3.7.5c.17 0 .31.1.31.29s-.31.36-.65.41c-.12.24-.14.31-.19.41h3.12l1.37.93c-.75 1.3-1.15 1.9-1.95 3.08zm-5.83 0a12.4 12.4 0 00.81-1.42H21c-.43.6-.6.84-1.05 1.42zm-1.08 4.13h.91v-1.3h-.91zm0 4h.91v-1.4h-.91zm3.93-5.26h-.91v1.3h.91zm0 3.86h-.91v1.4h.91zm14.26-7.89V14h-4v3.31l1-.14c-.41-1.13-.53-1.42-.77-2l2.79-.91a36.2 36.2 0 012 7.27 14.36 14.36 0 00-3.12.87 18.2 18.2 0 00-.36-2.14c-4 .84-4.54 1-6.87 1.39-.14.51-.22.7-.48.7s-.26-.19-.31-.36l-.84-3.77 3.77-.5V14h-.67v.84H28V4.46h3.46V.29L35 .38a.34.34 0 01.36.32c0 .28-.19.36-.69.55v3.21zm-7.06 6.27v-3.1h-.79v3.1zm3.15-3.1v3.1h.81v-3.1zm16.27-1.29c2.4-2.12 4.17-2.48 5.18-2.48s3.24.8 3.24 4A31.72 31.72 0 0159 12a23.62 23.62 0 00-.29 3.36c0 .6.09 1.2.67 1.2.38 0 1.39-.27 2.76-1.78a20.28 20.28 0 001.15 4.08A7.42 7.42 0 0158 21.24c-2 0-3.41-1.63-3.41-4.39 0-1.18.6-6.34.6-7.39 0-.34 0-1.16-.72-1.16-1.23 0-3.44 2.38-4.9 4.08 0 4.59 0 5.09.07 6.2 0 .55.27 3 .31 3.53l-4.48.19a31 31 0 00.16-3.63v-1.36L43.8 20l-3.1-3.26a48.2 48.2 0 005-5.81v-1a24.61 24.61 0 01-3.74.79l-.72-4.35a15.58 15.58 0 004.56-.5V.45l4.1.48c.31 0 .55.09.55.4s-.24.41-.45.53a17.54 17.54 0 00-.34 3.34zm35.64-1.01c-7.32.31-10.68 5.88-10.68 8.62 0 3.07 3.82 4 6.6 4a31.41 31.41 0 00-1.63 4.61c-4.37-.77-9.56-2.76-9.56-8.16 0-4.27 3.41-7.13 4.4-7.87-2.12.17-8 .91-9.94 1.27l-.5-4.9c.52.05 1.1.08 1.92.08C72.07 3 81.77 2.14 85.92.79zM92 15.19a30.72 30.72 0 015 3.92l-2.9 2.95a18.66 18.66 0 00-4.61-4.23zm22.91-7.03V4.58h5.57V.36l3.87.17c.28 0 .52.07.52.33s-.38.51-.6.6v3.12h5.86v3.58h-4.39a25.07 25.07 0 005.26 7.11 10.69 10.69 0 00-2.23 3.09 13 13 0 01-2.1-2.36v2.92h-2.4v3.68h-3.79v-3.69H118v-3.09a29.12 29.12 0 01-2.16 2.64 8.71 8.71 0 00-1.75-2v6.12h-3.91v-10.7c-.29.36-.46.55-.77.91A12.55 12.55 0 00107 9.65a28.27 28.27 0 004.86-9.34l3.94 1.2c.17.05.39.12.39.36s-.41.46-.73.51c-.24.5-1.2 2.73-1.41 3.19.38.14.53.26.53.48s-.24.38-.46.5v8.26a24.48 24.48 0 004.46-6.65zm5.57 3.84a23.77 23.77 0 01-2.16 3.41h2.16zm5.79 3.41a29.52 29.52 0 01-2-3.15v3.15zm15.11-10.59v.08a13.18 13.18 0 004.06-4.76l3.63.48c.21 0 .45.08.45.36a.51.51 0 01-.31.41A15.79 15.79 0 00154.66 5a11.12 11.12 0 00-1.95 3.21 10.2 10.2 0 01-.93-.48v.94h-2.16v.84h4.17V16h-3.6a10.35 10.35 0 004.49 3.34 11.68 11.68 0 00-2.18 3.21 15.27 15.27 0 01-4.61-3.88 14.92 14.92 0 01-4.8 4 9.53 9.53 0 00-2.09-2.46c-1 2.06-1.9 2.11-4.44 2.23a11 11 0 00-1.06-2.85 7.42 7.42 0 00-1 .33 28.06 28.06 0 00-.24-4.22.87.87 0 01-.27.14 28.63 28.63 0 01-.26 5.28 9.79 9.79 0 00-2.16-.31 18.6 18.6 0 00.46-4.13v-1.34h2a.52.52 0 01.38.14l1.2-.21a31.05 31.05 0 01.41 3.79 9.74 9.74 0 001.13.07c.91 0 1.27-.07 1.63-1.92a6.22 6.22 0 00-.77.32 17.72 17.72 0 00-.52-2.55l1-.36a12.71 12.71 0 01.41 1.49 15.63 15.63 0 000-1.94h-3.24v.67h-3.21V.94h9.86v3h-2.5v.93zm-4.68 0v-.93h-1.15v.93zm0 3.24v-1h-1.15v1zm0 3.41v-1h-1.15v1zm.24 3.51a19.56 19.56 0 01.65 3 4.82 4.82 0 00-1.25.38 17.42 17.42 0 00-.5-3zm2.76-7.88v1h1.68v2.4h-1.68v1h2.16a38.74 38.74 0 01-.57 7.85 8.23 8.23 0 004.13-3.35h-3.19V9.53h3.86v-.84h-2.45v-.82a8.31 8.31 0 01-1.06.82 14.17 14.17 0 00-1.34-1.59zm6.44 6.13V12.1h-1v1.13zM149.26 6a9.92 9.92 0 01-2-1.95 12.59 12.59 0 01-1.61 2zm.19 6.12v1.13h1.13V12.1zm15.12-10.78c.43 0 .65.08.65.39s-.32.38-.63.48a85.46 85.46 0 00-.69 10.51c0 2.71.09 5 2.47 5 3.77 0 7.22-5 8.14-7a29.81 29.81 0 003.07 3.72c-1.13 1.85-5.19 7.73-11.64 7.73s-6.34-5.4-6.34-9.82c0-1.29.14-7 .14-8.18 0-.24 0-2.23-.12-3.53zm37.2 3.99c-7.32.31-10.68 5.88-10.68 8.62 0 3.07 3.82 4 6.6 4a31.41 31.41 0 00-1.63 4.61c-4.37-.77-9.56-2.76-9.56-8.16 0-4.27 3.41-7.13 4.4-7.87-2.11.17-8 .91-9.94 1.27l-.5-4.9c.52.05 1.1.08 1.92.08C187.27 3 197 2.14 201.12.79zM204 16.3V13h9.07v-.69h-2.88V2h2.21c.24-.63.33-.87.65-1.92l3.95.5c.27 0 .46.12.46.36s-.46.43-.7.45c-.1.27-.14.36-.26.63h3.45v2.23a29.15 29.15 0 003-3.29L225.94 3a.52.52 0 01.31.46c0 .22-.19.31-.43.31a2.43 2.43 0 01-.39-.07 24.94 24.94 0 01-3.19 3.3 26.61 26.61 0 013.94 2.84 19.45 19.45 0 00-2.33 3 23.37 23.37 0 00-3.94-3v2.45H217V13h9.08v3.3h-6.17a19.76 19.76 0 006.36 3 12.81 12.81 0 00-2.52 3.08 23.87 23.87 0 01-6.75-4.31v4.4h-4V18a22.18 22.18 0 01-6.91 4.39 11.11 11.11 0 00-2.55-3.09 22.92 22.92 0 006.46-3zm-.32-7a23.7 23.7 0 005.91-2.8 11.49 11.49 0 00.41 3.88c-.31.17-2.69 1.4-4.06 2.09-.07.36-.1.58-.41.58s-.36-.24-.43-.41zm2.53-8.51a16.49 16.49 0 013.89 2.86 12.6 12.6 0 00-2.31 3.05 19.93 19.93 0 00-3.84-3zM213.79 6h2.52V5h-2.52zm2.52 2.4h-2.52v1.01h2.52zm5.36-1.58c-.8-.67-1.08-.91-1.76-1.42v3.46zm14.9-5.48c.43 0 .65.08.65.39s-.31.38-.63.48a85.46 85.46 0 00-.69 10.51c0 2.71.09 5 2.47 5 3.77 0 7.22-5 8.14-7a29.81 29.81 0 003.07 3.72c-1.13 1.85-5.19 7.73-11.64 7.73s-6.34-5.4-6.34-9.82c0-1.29.15-7 .15-8.18 0-.24 0-2.23-.13-3.53zm21.77.48a29 29 0 00.48 4 11.68 11.68 0 014-1.17 21.56 21.56 0 00.34-4.18l4.6 1c.34.08.46.2.46.39s-.38.41-.6.45c-.14.75-.24 1.18-.55 2.52 5.09 1 6.74 4.61 6.74 8 0 6.48-5.64 9-9 9.56a14.57 14.57 0 00-2.28-3.58c2.81-.1 7.25-2 7.25-6.07a4.35 4.35 0 00-3.62-4.35 27.26 27.26 0 01-2.93 6.56c.17.24 1.06 1.34 1.15 1.44a28.23 28.23 0 00-3.09 3c-.34-.41-.56-.65-.85-1.05-2.25 2.2-3.67 2.32-4.58 2.32-2.4 0-3.72-2.28-3.72-4.75a10.67 10.67 0 013.29-7.58 36.48 36.48 0 01-1.27-5zm-1.47 10.32a7.59 7.59 0 00-1.12 3.51c0 .17 0 .82.64.82.1 0 1-.08 1.95-1.4-.51-.93-1.04-1.94-1.47-2.93zm2.84-2.8a18.89 18.89 0 001.1 2.4 18.1 18.1 0 001.42-3.53 8.46 8.46 0 00-2.52 1.13zm33.64-5.98a57.29 57.29 0 00-5.81 5.06 6.2 6.2 0 012.31-.42c4.06 0 6.94 2.76 6.94 6.46 0 4.39-4 7.65-9.2 7.65-1.89 0-6.24-.6-6.24-4.24 0-2.67 2.55-3.84 4.64-3.84 2.28 0 4.56 1.32 5.23 3.19a2.87 2.87 0 001.34-2.57c0-.65-.24-3.27-3.79-3.27-2.78 0-5.47 1.16-9.51 5.93l-3-3.31a59.93 59.93 0 009.17-8.59 41.24 41.24 0 01-5.93.77l-.57-4.13c.45 0 1 .05 1.75.05 2.4 0 7.2-.29 10.3-1.61zm-7.44 13.9c-.76 0-.86.45-.86.67 0 .84 1.27 1 1.94 1a5.18 5.18 0 001-.09 2 2 0 00-2.08-1.58zM308.5 1.3v5.54l-1 7.11H305l-1-7.11V1.3zM304 16.2h4.42v4.39H304zm19.26 6.67h-8.69v-3h5.64V.19h3.05zM22.08 45.29v4.22H0v-4.22zm22.37 1.08l1.42 1.51a18.5 18.5 0 01-3.27 5.83 13.41 13.41 0 003.89 1.52 11.22 11.22 0 00-2 3.38A15.7 15.7 0 0140 56.28a14.9 14.9 0 01-4.13 2.28 6.84 6.84 0 00-1.7-2.35c-.12 2.06-1.83 2.38-4.61 2.35a7.09 7.09 0 00-1.18-3.67 15.55 15.55 0 001.73.17c.87 0 .89-.19.89-1V49.2a4.78 4.78 0 01-.65.07v4.95h-2.2v-4.78l-.53.05a26.1 26.1 0 01-1.53 9 6.84 6.84 0 00-3-1.73 19.74 19.74 0 001.54-7.1h-.15c-.07.19-.19.43-.45.43s-.29-.24-.31-.36l-.39-3.31a3.94 3.94 0 001.18.07v-8.07h2.3a14.42 14.42 0 00.75-2.25l4.15.45c.21 0 .41.08.41.27 0 .38-.51.48-.82.55a8.74 8.74 0 00-.5 1h3.31v5.16a7.75 7.75 0 001.39-4.8V37h7.66v5.09c0 .24 0 .38.26.38.46 0 .55-1.44.58-2.06a8.11 8.11 0 002.61 1.49c-.36 3.33-1.1 3.74-2.47 3.74h-2.45a1.8 1.8 0 01-2-2v-3.39h-.91a9.38 9.38 0 01-2.23 5.93 7.9 7.9 0 00-2.45-1.47v1.16a8.58 8.58 0 01.91-.12 3.66 3.66 0 000 .62zM27.67 42.7l2.21-.7A16.49 16.49 0 0131 44.83v-3.41h-3.33zm0 3.74c2.11-.12 2.38-.14 3.29-.24v-.86a14.85 14.85 0 00-2.35.88 18.47 18.47 0 00-.94-3zM35 48.77c-.22 0-.39 0-.82.07v6.31A11.12 11.12 0 0037 53.74a15.88 15.88 0 01-2-2.83l1.85-1.11H35zm3.45 1a15.68 15.68 0 001.39 1.7A8 8 0 0041 49.8zm19.13-10.05a.35.35 0 01.19.34c0 .28-.24.36-.82.45a25.17 25.17 0 01-6.38 8.57 16.38 16.38 0 00-3.43-2.9 19.82 19.82 0 006.45-8.43zm5.73 7.66a48.64 48.64 0 015.86 9.33 16.54 16.54 0 00-3.89 2.07c-.26-.63-.53-1.2-1-2.19-1.9.22-10.54 1.13-13.27 1.4-.22.4-.29.52-.51.52s-.26-.12-.33-.45l-.77-4c.6-.06 1.34-.06 2.6-.15a74 74 0 004.4-10.81l4.51 1.52a.36.36 0 01.31.36c0 .31-.24.38-.91.48-.58 1.56-3.07 7-3.72 8.18 2-.14 3.82-.31 5.78-.48a29.52 29.52 0 00-2.49-3.6zm1.28-10.44c.6 4.6 4.53 7.56 6.24 8.83A15.86 15.86 0 0068 49a20 20 0 01-6.67-8.41h-3.25v-3.65zM76.78 52.9v-2.76H79a10.93 10.93 0 000-1.27h-1.82V46.2H89v2.67h-1.81v1.27h2.26v2.76h-2.26v5h-3.4v-5H82.1a8.42 8.42 0 01-3 5.52 7.51 7.51 0 00-2.93-2v2h-3.88V36.79h10.27v8.67h-6.41v10.87a5.44 5.44 0 002.55-3.43zM79 40.15v-.79h-2.94v.79zm-2.92 2V43H79v-.84zm7.73 6.73h-1.46v1.27h1.44zm10-12.08v18.67c0 2.78-1.94 3-4.89 3a8.77 8.77 0 00-1.08-3.81 6.43 6.43 0 001.41.16c.36 0 .8 0 .8-.67v-8.69h-6.53v-8.67zM90 40.15v-.79h-2.88v.79zm-2.91 2V43H90v-.84zm23.5-4.15a14.16 14.16 0 000 18.91l-2.28 2a17.13 17.13 0 010-23zm13.13 4.24a2.56 2.56 0 00-2.5-1.42c-3.14 0-3.33 3-3.45 4.71a6.75 6.75 0 014.51-1.66c2.09 0 6.82 1.06 6.82 6.39 0 3.36-2.35 6.86-7.64 6.86-5.8 0-8.64-4.22-8.64-10.32 0-5.52 2.76-10 8.5-10 2.47 0 5.14.93 6.34 2.61a6.69 6.69 0 011.15 2.86zm.36 8.07a2.83 2.83 0 00-3-2.77 2.71 2.71 0 00-2.91 2.74 3 3 0 005.93 0zm15.6.69a13.57 13.57 0 01-4.51 7.65 12.1 12.1 0 00-3.63-2.57c3.8-3 4.35-6.07 4.35-9.89V37h15.62v17.79c0 3.53-1.8 3.68-6 3.63a9.87 9.87 0 00-1.3-4.18c.24 0 1.68.22 2.16.22.84 0 .87-.43.87-1.08V51zm7.54-3.53v-1.72h-7.11v1.75zm0-5.16v-1.7h-7.11v1.73zm15.19 14.28V44.4h-3.63v-3.5c2.72-.41 3.84-1.2 4.66-3.6h3.94v19.29zm24.5-17.81c2.52 2.67 2.59 7.3 2.59 8.36 0 3.53-1 10-8.11 10-6.36 0-8.13-4.94-8.13-10.49 0-3.12.84-9.86 8.13-9.86.94-.02 3.75.12 5.52 1.99zm-5.52 2c-2.59 0-3.14 3.27-3.14 6.13s.55 6.14 3.14 6.14 3.12-3.34 3.12-6.14-.57-6.09-3.12-6.09zm20.02 15.62v1.25h-4.3V37.73h18V57.6h-4.41v-1.2zm9.29-11.23v-3.7h-9.29v3.7zm0 7.49v-3.89h-9.29v3.89zm17.73-5.19a3.15 3.15 0 11-3.14-3.14 3.15 3.15 0 013.14 3.14zm26.26-4.61v3.87h-8v7.39h8.81V58h-22.05v-3.88h8.83v-7.39h-8v-3.87h8v-6.5l4.66.19a.4.4 0 01.43.36c0 .27-.24.41-.67.63v5.32zm5.93 8.33a31.17 31.17 0 015 3.92l-2.91 3a18.49 18.49 0 00-4.6-4.23zm22.22 5.4V44.4h-3.62v-3.5c2.71-.41 3.84-1.2 4.65-3.6h3.94v19.29zm17.02 0V44.4h-3.63v-3.5c2.71-.41 3.84-1.2 4.66-3.6h3.93v19.29zm19.58-.19v1.25h-4.3V37.73h18V57.6h-4.37v-1.2zm9.29-11.23v-3.7h-9.29v3.7zm0 7.49v-3.89h-9.29v3.89zm17.73-5.19a3.14 3.14 0 11-3.14-3.14 3.15 3.15 0 013.14 3.14zm11.38 8.93v1.25h-4.3V37.73h18V57.6h-4.37v-1.2zm9.29-11.23v-3.7h-9.29v3.7zm0 7.49v-3.89h-9.29v3.89zM378.05 36a17.13 17.13 0 010 23l-2.28-2a14.16 14.16 0 000-18.91z" fill="#ff5064" data-name="レイヤー 2"/></svg>