<svg xmlns="http://www.w3.org/2000/svg" viewBox="0 0 630 54.17"><g data-name="レイヤー 2"><path d="M0 49.17h630v5H0zM16.63 1.44c.47.07.76.14.76.47s-.4.5-.62.57c-.1 1.08-.18 2.34-.25 3.82a25.73 25.73 0 005.65-1.8c0 1.33-.07 3-.07 3.81a15.87 15.87 0 00.07 1.95 26.37 26.37 0 01-5.9 1.62c0 .39-.07 2.12-.07 2.45a17.93 17.93 0 016.12-1.08c5.43 0 10 3.78 10 9.75 0 6.7-5 9-8.53 9-5.44 0-5.62-4.82-5.65-6.33.75-.25 4-1.33 4.46-1.51 0 .72 0 2.41 1.69 2.41 1.37 0 2.27-1.37 2.27-3.17a4.53 4.53 0 00-4.79-4.75 17 17 0 00-5.58 1.26 107.61 107.61 0 00.47 10.83l-4.96 2.2a48.66 48.66 0 00-6.3-5.15c-.9 1-1.33 1.47-1.84 2.09L1 23.69c1.66-.9 8.21-5.87 9.65-6.77V12.6c-2.12.11-4.64.14-6.69.14V7a14.88 14.88 0 002.84.22c1.4 0 3.42-.15 3.85-.15 0-2.7 0-3.09-.14-6.69zM8.57 24.66a3.86 3.86 0 001.62.93c.54 0 .5-1.26.46-2.62-.43.36-1.18.9-2.08 1.69zM27.36 5.51a30.4 30.4 0 017.84 5.76 25.46 25.46 0 00-3.49 4.35A21 21 0 0024.08 10zM61.13 2.2c.39.14.61.25.61.57 0 .51-.61.61-1.05.65-.39.61-.82 1.33-2.12 3.78 1.91.18 3.74.25 4.5.25s1.26 0 1.76-.07a26.14 26.14 0 00-1.58 5.69 44.56 44.56 0 01-6.8-.33c-.44 1-.94 2.27-1.3 3.17a56.5 56.5 0 008 .54c-.68 1.94-1.26 4.21-1.55 5.33-2.19-.15-4.68-.36-8.06-.87a11.7 11.7 0 00-.4 2.92c0 4.39 4.07 4.39 5.84 4.39 1.54 0 7 0 7-5.22a13.69 13.69 0 00-1.84-5.61 17.24 17.24 0 005.44-2c.86 1.59 2.48 5 2.48 8.17 0 7.92-8.35 9.76-13.06 9.76-7.24 0-11.24-3.75-11.24-9a17.92 17.92 0 01.51-4.32 31.48 31.48 0 01-4.67-1.33l1.22-5.33a34.56 34.56 0 004.86 1.55c.14-.47.39-1.26 1.08-3.21a31 31 0 01-5.36-1.8l1.08-5.58a42.58 42.58 0 006.37 2c.36-1 2.08-5.36 2.44-6.26zm36.97-.51c.29.07.68.22.68.58s-.18.47-.79.5c-.79 2.45-.86 2.7-1 3.24a55 55 0 0011.73-2.84c.18 1.19.65 3.92 1 5.36A62.19 62.19 0 0195 11.59c-.87 2.38-1.16 3.1-1.88 4.86a21.34 21.34 0 019.33-2.45c9.61 0 10.12 6.77 10.12 8.57a8.91 8.91 0 01-3.85 7.27c-1.91 1.3-5.51 3.46-15.48 3.46-1.51 0-2.56-.11-3.35-.18a25.11 25.11 0 00-1.33-5.37 52 52 0 005.36.33c.83 0 7 0 10.69-2.2a3.66 3.66 0 002-3.38c0-2.09-1.08-3.85-4.39-3.85s-8.25 1.62-12.46 6l-5.18-2.59A50.23 50.23 0 0089.31 12c-3.13 0-5.61-.11-7-.22l-.07-5.9a32.94 32.94 0 008.76.74A48.53 48.53 0 0092.34.25zm38.34 4.75c.43.51 2.23 2.74 2.59 3.17A16 16 0 01143 9a6.84 6.84 0 017.16 7c0 6.73-7.31 7.34-11 7.63a24.57 24.57 0 00-1.65-4.82h1.65c1.23 0 5.83 0 5.83-3.17 0-.61-.18-2-2.3-2h-.79c.65 1 1 1.73 1.33 2.27-1.33.54-3.42 1.41-4.71 2a21.51 21.51 0 00-1.34-2.77c-1.33.61-2.12 1-2.62 1.33a70.89 70.89 0 015 13.9 46.52 46.52 0 00-5.11 2.48c-.64-5.08-3.24-11.52-4.21-13.82-1 .75-1.33 1-4.07 3.35L123 17.35a46.77 46.77 0 005.11-2.56 27.89 27.89 0 00-3.24-4.71l4.89-2a2.17 2.17 0 01.76-.21.38.38 0 01.43.39 1.06 1.06 0 01-.32.58c.54 1 1.4 2.59 1.94 3.56l2-1c-.57-.79-.75-1-2.27-2.95zm28.87 1.8a37.18 37.18 0 018.42 4.93 36 36 0 00-3.49 4.83 30.46 30.46 0 00-8.17-4.89zm-1.15 19.37c11.3-3.89 20.62-12 25.34-19.08a18.85 18.85 0 003.71 4.86C188.67 20.16 178 29 168.41 32.58c0 .21-.08.82-.62.82-.25 0-.46-.36-.54-.46zM169 .25a55.42 55.42 0 019 4.25c-.75.86-2.91 3.92-3.42 4.68a38.27 38.27 0 00-8.75-4.54zm35.84 30.53v-4.61h16.09V22.5h-15.16v-4.72h15.16v-3.45h-15.62V9.61H226v22.25h-5v-1.08zm66.42-16.63v6.12H240v-6.12zM309 13.14c-2.55.18-5.57.43-12.09 3.38-6.34 2.88-8.85 6-8.85 7.74 0 2.59 3.85 3.1 8.42 3.1a38.27 38.27 0 0012.31-2.06 24.09 24.09 0 00-.4 6.34 75 75 0 01-12.16 1.08c-6.27 0-8.71-.94-10.51-1.91a7 7 0 01-3.93-6.19c0-4.89 4.1-7.95 7.67-10.19-1.8-2-2.05-3.92-2.66-8.49a14.9 14.9 0 00-1-3.85l7.06-1.51c-.15 1.83-.22 2.62-.22 3.78a16.85 16.85 0 001.59 7.64 113.5 113.5 0 0112.56-5.14zm18.6-9.76c.29.11.47.26.47.51 0 .43-.69.5-1 .54a49.65 49.65 0 00-2.16 13.86 25.36 25.36 0 00.25 3.6c.47-.69 1.22-1.84 1.69-2.56a15.13 15.13 0 002.59 3.56 16 16 0 00-3 8.82l-4.83.9a51 51 0 01-1.94-14.5 65 65 0 012.16-16.49zm17.1-.79c.18 0 .46.07.46.4s-.5.54-.82.57a37.43 37.43 0 00-.34 4.32 32.28 32.28 0 005.32-1.33V12c-.82.21-2.48.61-5.47 1.15a57.54 57.54 0 00.58 8.28 19.92 19.92 0 016.84 3.71c-.58 1-1.66 3.38-2.45 5.07a12.69 12.69 0 00-3.82-2.75c-.15 4.61-4.75 5.15-7 5.15-5.4 0-8.1-2.95-8.1-6.3 0-4.28 4.25-5.9 8.93-5.79-.29-4.11-.33-4.57-.4-6.66-2.05.18-3.53.18-4.14.18-1.15 0-1.91 0-2.66-.11V8.28a39 39 0 006.77.25v-7zm-7.45 22.32c-.8 0-2.52.25-2.52 1.37 0 .93 1.18 1.33 2.34 1.33.28 0 2.44 0 2.44-1.77a1 1 0 00-.07-.46 5.08 5.08 0 00-2.19-.47zm33.8-3.31v-2.13c0-2 .68-3.52 2.92-5.29 2.8-2.19 4.21-3.31 4.21-4.82 0-2.12-2.74-2.27-3.64-2.27-3.67 0-3.81 2.56-3.89 3.71h-6.76a8.93 8.93 0 011.62-5c2.62-3.56 7.05-4.07 9.32-4.07 6.44 0 10.08 3.6 10.08 7.56 0 2.52-1.23 4.1-4.57 6.66-2.56 2-3.46 2.81-3.46 5v.72zm-.11 3.17H377v6.08h-6.05z" fill="#ffa000" data-name="object"/></g></svg>