<svg width="122" height="37" viewBox="0 0 122 37" fill="none" xmlns="http://www.w3.org/2000/svg">
<path d="M8.66391 32.844H7.05591V36H6.02391V27.72H8.66391C10.5719 27.72 11.6759 28.68 11.6759 30.288C11.6759 31.884 10.5839 32.844 8.66391 32.844ZM7.05591 31.908H8.66391C10.0679 31.908 10.6439 31.308 10.6439 30.288C10.6439 29.256 10.0679 28.656 8.66391 28.656H7.05591V31.908ZM18.6346 30.3H17.6266C17.3386 29.004 16.6786 28.56 15.6586 28.56C14.3866 28.56 13.6906 29.352 13.6906 31.404V32.316C13.6906 34.368 14.3866 35.16 15.6586 35.16C16.7386 35.16 17.3506 34.632 17.6266 33.42H18.6226C18.3586 35.28 17.2306 36.096 15.6586 36.096C13.8226 36.096 12.6586 34.992 12.6586 32.316V31.404C12.6586 28.728 13.8226 27.624 15.6586 27.624C17.2906 27.624 18.3706 28.488 18.6346 30.3Z" fill="white"/>
<path d="M23.3969 17.9352H0V20.2717H23.3969V17.9352Z" fill="white"/>
<path d="M20.9666 4.49949V15.1979H2.4303V4.49949H20.9654M2.13087 2.93311C1.44166 2.93311 0.882806 3.49831 0.882806 4.19535V16.763H22.5154V4.19535C22.5154 3.49831 21.9566 2.93311 21.2674 2.93311H2.13087Z" fill="white"/>
<path d="M41.3714 32.844H39.7634V36H38.7314V27.72H41.3714C43.2794 27.72 44.3834 28.68 44.3834 30.288C44.3834 31.884 43.2914 32.844 41.3714 32.844ZM39.7634 31.908H41.3714C42.7754 31.908 43.3514 31.308 43.3514 30.288C43.3514 29.256 42.7754 28.656 41.3714 28.656H39.7634V31.908ZM51.3421 30.3H50.3341C50.0461 29.004 49.3861 28.56 48.3661 28.56C47.0941 28.56 46.3981 29.352 46.3981 31.404V32.316C46.3981 34.368 47.0941 35.16 48.3661 35.16C49.4461 35.16 50.0581 34.632 50.3341 33.42H51.3301C51.0661 35.28 49.9381 36.096 48.3661 36.096C46.5301 36.096 45.3661 34.992 45.3661 32.316V31.404C45.3661 28.728 46.5301 27.624 48.3661 27.624C49.9981 27.624 51.0781 28.488 51.3421 30.3ZM51.7533 27.72H52.8933L55.2213 34.32L57.5853 27.72H58.7253L55.7253 36H54.7533L51.7533 27.72ZM65.7283 36H64.5763L62.8483 32.508H60.8923V36H59.8603V27.72H62.5003C64.4083 27.72 65.5123 28.512 65.5123 30.12C65.5123 31.284 64.9363 32.016 63.8803 32.328L65.7283 36ZM60.8923 31.572H62.5003C63.9043 31.572 64.4803 31.14 64.4803 30.12C64.4803 29.088 63.9043 28.656 62.5003 28.656H60.8923V31.572Z" fill="white"/>
<path d="M48.7996 18.6987H33.397V20.2716H48.7996V18.6987Z" fill="white"/>
<path d="M48.0704 9.43486C48.0704 8.8788 47.6238 8.42715 47.074 8.42715H35.0245C34.4747 8.42715 34.0281 8.8788 34.0281 9.43486V17.7641H48.0704V9.43486ZM46.7797 16.4588H35.3188V9.73248H46.7797V16.4588Z" fill="white"/>
<path d="M68.7636 7.72755H68.1841V6.85559C68.1841 6.21076 67.8627 5.64686 67.3697 5.31401C66.261 0.857643 63.1802 0.13319 60.3911 0.112305C60.3705 0.112305 60.3498 0.112305 60.3292 0.112305C60.3085 0.112305 60.2879 0.112305 60.2672 0.112305C57.4962 0.13319 54.4373 0.8472 53.3093 5.22525C52.735 5.53852 52.3504 6.14941 52.3504 6.85429V7.72624H51.7709C51.3914 7.72624 51.0842 8.03691 51.0842 8.42067V9.86827C51.0842 10.252 51.3914 10.5627 51.7709 10.5627H52.3504V11.3355C52.3504 12.1173 52.8318 12.7857 53.5094 13.0572C54.205 14.9682 55.4157 16.5372 56.9257 17.4992C56.5411 19.602 56.1978 20.756 56.1939 20.7677L56.9348 20.9961C56.9489 20.9478 57.2677 19.884 57.6407 17.8973C58.4564 18.2902 59.3418 18.5147 60.2672 18.533V18.5369C60.2879 18.5369 60.3085 18.5356 60.3292 18.5356C60.3498 18.5356 60.3705 18.5369 60.3911 18.5369V18.533C61.3165 18.5147 62.2019 18.2915 63.0176 17.8973C63.3906 19.884 63.7094 20.9491 63.7236 20.9961L64.4644 20.7677C64.4605 20.756 64.1172 19.602 63.7326 17.4992C65.2607 16.5254 66.483 14.9316 67.1735 12.9893C67.7724 12.6838 68.1841 12.0586 68.1841 11.3355V10.5627H68.7636C69.143 10.5627 69.4502 10.252 69.4502 9.86827V8.42067C69.4502 8.03691 69.143 7.72624 68.7636 7.72624V7.72755ZM53.8991 11.3381V6.85429C53.8991 6.69895 54.0192 6.57364 54.1728 6.56842L58.9056 6.39481C59.809 6.36218 60.7267 6.36218 61.6301 6.39481L66.363 6.56842C66.5166 6.57364 66.6366 6.70026 66.6366 6.85429V11.3381C66.6366 11.496 66.5101 11.6239 66.3539 11.6239H61.8805L61.1268 10.8616C60.6531 10.3839 59.8839 10.3839 59.4115 10.8616L58.6578 11.6239H54.1844C54.0282 11.6239 53.9017 11.496 53.9017 11.3381H53.8991ZM55.6118 2.43839C56.6586 1.39543 58.1596 0.90594 60.3292 0.896802C62.4988 0.90594 63.9985 1.39674 65.0465 2.43839C65.6867 3.07538 66.1655 3.92906 66.4933 5.00987C66.4688 5.00856 66.4443 5.00465 66.4185 5.00334L61.6856 4.82973C60.7448 4.7958 59.791 4.7958 58.8488 4.82973L54.1676 5.00073C54.4954 3.92384 54.9743 3.07277 55.6118 2.43708V2.43839ZM60.3292 17.755C57.7466 17.7263 55.506 15.8793 54.3909 13.1916H58.7959C59.116 13.1916 59.4283 13.0611 59.6542 12.8327L60.2685 12.2113L60.8829 12.8327C61.1126 13.0637 61.4159 13.1916 61.7399 13.1916H66.2675C65.151 15.8793 62.9118 17.7263 60.3292 17.755Z" fill="white"/>
<path d="M81.8456 27.72H82.9856L85.3136 34.32L87.6776 27.72H88.8176L85.8176 36H84.8456L81.8456 27.72ZM95.8206 36H94.6686L92.9406 32.508H90.9846V36H89.9526V27.72H92.5926C94.5006 27.72 95.6046 28.512 95.6046 30.12C95.6046 31.284 95.0286 32.016 93.9726 32.328L95.8206 36ZM90.9846 31.572H92.5926C93.9966 31.572 94.5726 31.14 94.5726 30.12C94.5726 29.088 93.9966 28.656 92.5926 28.656H90.9846V31.572Z" fill="white"/>
<path d="M97.1295 7.72755H96.55V6.85559C96.55 6.21076 96.2287 5.64686 95.7356 5.31401C94.627 0.857643 91.5462 0.13319 88.7571 0.112305C88.7364 0.112305 88.7158 0.112305 88.6951 0.112305C88.6745 0.112305 88.6538 0.112305 88.6332 0.112305C85.8622 0.13319 82.8033 0.8472 81.6753 5.22525C81.1009 5.53852 80.7163 6.14941 80.7163 6.85429V7.72624H80.1368C79.7574 7.72624 79.4502 8.03691 79.4502 8.42067V9.86827C79.4502 10.252 79.7574 10.5627 80.1368 10.5627H80.7163V11.3355C80.7163 12.1173 81.1977 12.7857 81.8753 13.0572C82.571 14.9682 83.7816 16.5372 85.2917 17.4992C84.9071 19.602 84.5638 20.756 84.5599 20.7677L85.3007 20.9961C85.3149 20.9478 85.6337 19.884 86.0067 17.8973C86.8224 18.2902 87.7078 18.5147 88.6332 18.533V18.5369C88.6538 18.5369 88.6745 18.5356 88.6951 18.5356C88.7158 18.5356 88.7364 18.5369 88.7571 18.5369V18.533C89.6825 18.5147 90.5679 18.2915 91.3836 17.8973C91.7566 19.884 92.0754 20.9491 92.0895 20.9961L92.8304 20.7677C92.8265 20.756 92.4832 19.602 92.0986 17.4992C93.6267 16.5254 94.849 14.9316 95.5395 12.9893C96.1383 12.6838 96.55 12.0586 96.55 11.3355V10.5627H97.1295C97.509 10.5627 97.8162 10.252 97.8162 9.86827V8.42067C97.8162 8.03691 97.509 7.72624 97.1295 7.72624V7.72755ZM82.2651 11.3381V6.85429C82.2651 6.69895 82.3851 6.57364 82.5387 6.56842L87.2715 6.39481C88.175 6.36218 89.0927 6.36218 89.9961 6.39481L94.7289 6.56842C94.8825 6.57364 95.0026 6.70026 95.0026 6.85429V11.3381C95.0026 11.496 94.8761 11.6239 94.7199 11.6239H90.2465L89.4928 10.8616C89.0191 10.3839 88.2499 10.3839 87.7775 10.8616L87.0237 11.6239H82.5503C82.3942 11.6239 82.2677 11.496 82.2677 11.3381H82.2651ZM83.9778 2.43839C85.0245 1.39543 86.5256 0.90594 88.6951 0.896802C90.8647 0.90594 92.3645 1.39674 93.4125 2.43839C94.0526 3.07538 94.5315 3.92906 94.8593 5.00987C94.8348 5.00856 94.8102 5.00465 94.7844 5.00334L90.0516 4.82973C89.1107 4.7958 88.1569 4.7958 87.2148 4.82973L82.5336 5.00073C82.8614 3.92384 83.3402 3.07277 83.9778 2.43708V2.43839ZM88.6951 17.755C86.1125 17.7263 83.872 15.8793 82.7568 13.1916H87.1618C87.4819 13.1916 87.7943 13.0611 88.0201 12.8327L88.6345 12.2113L89.2488 12.8327C89.4786 13.0637 89.7819 13.1916 90.1058 13.1916H94.6334C93.517 15.8793 91.2777 17.7263 88.6951 17.755Z" fill="white"/>
<path d="M113.993 28.98L113.189 29.556C112.745 28.98 112.265 28.56 111.221 28.56C110.261 28.56 109.613 28.992 109.613 29.856C109.613 30.84 110.357 31.176 111.569 31.392C113.165 31.668 114.137 32.244 114.137 33.78C114.137 34.86 113.417 36.096 111.353 36.096C110.009 36.096 109.025 35.64 108.401 34.74L109.253 34.152C109.793 34.788 110.273 35.16 111.353 35.16C112.709 35.16 113.105 34.536 113.105 33.828C113.105 33.048 112.709 32.52 111.149 32.28C109.589 32.04 108.581 31.296 108.581 29.856C108.581 28.668 109.361 27.624 111.257 27.624C112.577 27.624 113.405 28.068 113.993 28.98ZM118.377 32.844H116.769V36H115.737V27.72H118.377C120.285 27.72 121.389 28.68 121.389 30.288C121.389 31.884 120.297 32.844 118.377 32.844ZM116.769 31.908H118.377C119.781 31.908 120.357 31.308 120.357 30.288C120.357 29.256 119.781 28.656 118.377 28.656H116.769V31.908Z" fill="white"/>
<path d="M118.477 0H110.679C109.65 0 108.816 0.843237 108.816 1.88358V17.9703C108.816 19.0107 109.65 19.8539 110.679 19.8539H118.477C119.505 19.8539 120.339 19.0107 120.339 17.9703V1.88358C120.339 0.843237 119.505 0 118.477 0ZM119.048 17.9703C119.048 18.2888 118.792 18.5486 118.477 18.5486H110.679C110.364 18.5486 110.107 18.2888 110.107 17.9703V1.88358C110.107 1.56508 110.364 1.30532 110.679 1.30532H113.175V1.36928C113.175 1.75305 113.482 2.06371 113.861 2.06371H115.293C115.672 2.06371 115.979 1.75305 115.979 1.36928V1.30532H118.475C118.79 1.30532 119.047 1.56508 119.047 1.88358V17.9703H119.048Z" fill="white"/>
<path d="M116.218 16.3048H112.939C112.667 16.3048 112.447 16.5293 112.447 16.8021C112.447 17.0749 112.669 17.2994 112.939 17.2994H116.218C116.489 17.2994 116.71 17.0749 116.71 16.8021C116.71 16.5293 116.488 16.3048 116.218 16.3048Z" fill="white"/>
</svg>
