<svg width="20" height="21" viewBox="0 0 20 21" fill="none" xmlns="http://www.w3.org/2000/svg">
<path d="M15.18 21C14.98 21 14.85 20.9 14.79 20.7L13.89 17.76C13.85 17.68 13.8 17.64 13.74 17.64H6.36C6.3 17.64 6.25 17.68 6.21 17.76L5.34 20.7C5.28 20.9 5.15 21 4.95 21H1.14C1.02 21 0.93 20.97 0.87 20.91C0.81 20.83 0.8 20.72 0.84 20.58L7.32 0.299998C7.38 0.0999985 7.51 -1.43051e-06 7.71 -1.43051e-06H12.42C12.62 -1.43051e-06 12.75 0.0999985 12.81 0.299998L19.29 20.58C19.31 20.62 19.32 20.67 19.32 20.73C19.32 20.91 19.21 21 18.99 21H15.18ZM7.29 14.19C7.27 14.31 7.31 14.37 7.41 14.37H12.69C12.81 14.37 12.85 14.31 12.81 14.19L10.11 5.28C10.09 5.2 10.06 5.17 10.02 5.19C9.98 5.19 9.95 5.22 9.93 5.28L7.29 14.19Z" fill="#57E4EF"/>
</svg>
