<svg height="18.63" viewBox="0 0 599.441 18.63" width="599.441" xmlns="http://www.w3.org/2000/svg"><path d="m405.226 2805 .378 2.93 2.555-1.85v11.76h3.041v-15.18h-2.681zm11.9 7.4a3.776 3.776 0 0 1 3.311-1.79c.953 0 1.475.2 3.616 1.43a6.007 6.007 0 0 0 3.275 1 5.917 5.917 0 0 0 4.877-2.53l-1.494-1.6a3.838 3.838 0 0 1 -3.329 1.81c-.845 0-1.349-.19-2.933-1.08-2.051-1.15-2.627-1.36-3.94-1.36a5.9 5.9 0 0 0 -4.895 2.53zm27.906 5.44v-2.97h1.746v-2.81h-1.746v-9.4h-2.915l-6.262 9.59v2.62h6.19v2.97zm-6.172-5.78 3.185-4.98v4.98zm16.705-10.29v2.93c-.162 5.79-2.807 10.17-7.4 12.25l1.818 2.68a15.161 15.161 0 0 0 7.018-8.85 14.9 14.9 0 0 0 6.963 8.85l1.782-2.74c-4.661-2.24-7.108-6.36-7.288-12.19v-2.93h-2.9zm25.222 17.84a14.608 14.608 0 0 1 0-17.89h-2.339a14.408 14.408 0 0 0 0 17.89zm10.638-11.23a22.518 22.518 0 0 1 -7.7 6.27l1.709 2.34a21.76 21.76 0 0 0 7-5.99l.018 4.21c0 .47-.234.64-.828.64-.287 0-.935-.03-2.141-.13l.414 2.93c1.727.05 1.835.05 2.321.05a3.1 3.1 0 0 0 2.232-.56 2.762 2.762 0 0 0 .845-2.1l-.036-7.66h3.887v-2.85h-3.887v-2.85h-2.843v2.85h-7.881v2.85h6.892zm12.915-2.38a22.964 22.964 0 0 1 5.614 2.87l1.512-2.74a23.215 23.215 0 0 0 -5.848-2.7zm.99 12.53c7.863-1 12-4.6 14.287-12.45l-2.519-1.84c-1.943 7.42-5.29 10.39-12.416 11.05zm20.232-15.42v2.76h12.038v-2.76h-12.034zm-1.314 4.49v2.78h11.067c-.954 3.68-3.419 5.15-9.267 5.47l.881 2.84c7.954-.76 11.031-3.65 11.805-11.09h-14.482zm29.449 1.44a35.185 35.185 0 0 0 5.092-4.85l-2.555-1.89a26.778 26.778 0 0 1 -12.812 8.89l1.44 2.64a27.869 27.869 0 0 0 5.776-2.7v7.54h3.062v-9.63zm9.817-3.04a22.982 22.982 0 0 1 5.614 2.87l1.511-2.74a23.183 23.183 0 0 0 -5.848-2.7zm.989 12.53c7.864-1 12-4.6 14.288-12.45l-2.519-1.84c-1.944 7.42-5.291 10.39-12.417 11.05zm28.353-1 .342 2.04h3.329a1.656 1.656 0 0 0 1.818-1.94v-4.02h1.313v-2.7h-1.313v-1.23h1.475v-2.66h-3.833v-1.36h3.347v-2.53h-3.347v-1.43h-2.7v1.43h-3.239v2.53h3.239v1.36h-3.761v2.66h6.1v1.23h-5.938v2.7h2.232l-2.142 1.04a18.229 18.229 0 0 1 1.962 3.47zm1.3-.75a15.82 15.82 0 0 0 -1.8-2.93l-.161-.24h3.436v2.51a.541.541 0 0 1 -.575.66zm-10.977-14.35v16.16h5.92v-16.16zm3.761 2.65v4.13h-1.349v-4.13zm0 6.49v4.43h-1.349v-4.43zm29.58-5.97v-2.79h-2.9v2.79h-4.732v2.84h4.8l.018 3.17a3.426 3.426 0 0 0 -1.115-.14c-2.429 0-4.1 1.46-4.1 3.57 0 2.19 1.656 3.63 4.157 3.63 2.213 0 3.6-1 3.707-2.68l.018-.25a9.718 9.718 0 0 1 1.8 1.79l1.763-2.62a12.356 12.356 0 0 0 -3.4-2.49v-3.98h2.916v-2.84zm-2.753 9.44a1.081 1.081 0 0 1 -1.313 1.17 1.267 1.267 0 0 1 -1.512-1.13c0-.68.648-1.13 1.62-1.13a2.685 2.685 0 0 1 1.205.26zm-8.637-12.36a46.487 46.487 0 0 0 -.63 8.3 49.623 49.623 0 0 0 .5 7.65l2.879-.34a39.492 39.492 0 0 1 -.594-7.33 37.36 37.36 0 0 1 .738-8.07zm36.094 14.48a14.378 14.378 0 0 1 -2.537-.82 9.422 9.422 0 0 0 1.763-3v-2.02h-7.75v2h2.447l-2.123.63a9.012 9.012 0 0 0 1.547 2.41 15.95 15.95 0 0 1 -2.321.8v-6.55h8.781v-2.16h-17.153v2.16h.917v5.87h-.395l-.378.02h-.288l.216 2.36a54.085 54.085 0 0 0 5.758-.5v1.21h2.537v-2.26l.972 2.26a11.81 11.81 0 0 0 3.365-1.49 12.368 12.368 0 0 0 3.293 1.55zm-3.347-3.84a7.288 7.288 0 0 1 -1.259 1.72 8.093 8.093 0 0 1 -1.368-1.72zm-10.634 2.06h2.465v.87c-1.134.09-1.925.15-2.465.17zm2.465-4.77v.85h-2.465v-.85zm0 2.41v.81h-2.465v-.81zm-4.5-10.89v5.72h14.45v-5.72zm11.715 1.66v.68h-9.016v-.68zm0 1.89v.7h-9.016v-.7zm14.758 3.11c-.774 3.89-2.9 6.31-6.91 7.8l1.458 2.94a13.02 13.02 0 0 0 7.306-7.64 12.265 12.265 0 0 0 7.251 7.7l1.548-2.87c-4.121-1.6-6.262-3.96-7.18-7.93h6.82v-2.9h-7.2v-.08l.018-.17v-3.94h-2.879v4.19h-6.892v2.9h6.658zm22.512.59a3.792 3.792 0 0 0 1.314-2.91c0-2.4-1.908-4.11-4.589-4.11-2.663 0-4.57 1.71-4.57 4.09a3.836 3.836 0 0 0 1.313 2.93 4.482 4.482 0 0 0 -2.051 3.87c0 2.81 2.267 4.89 5.308 4.89 3.059 0 5.327-2.08 5.327-4.89a4.48 4.48 0 0 0 -2.051-3.87zm-3.257 1.74a2.091 2.091 0 0 1 2.268 2.03 2.288 2.288 0 0 1 -4.553 0 2.091 2.091 0 0 1 2.286-2.03zm0-6.18a1.583 1.583 0 0 1 1.674 1.63 1.684 1.684 0 0 1 -3.365-.02 1.583 1.583 0 0 1 1.692-1.61zm14.258-3.17v2.93c-.162 5.79-2.807 10.17-7.4 12.25l1.817 2.68a15.161 15.161 0 0 0 7.018-8.85 14.906 14.906 0 0 0 6.964 8.85l1.781-2.74c-4.66-2.24-7.107-6.36-7.287-12.19v-2.93h-2.9zm13.451 12.59a40.588 40.588 0 0 1 3.563 4.68l2.591-1.79a39.633 39.633 0 0 0 -3.886-4.45zm16.492-10.64v14.12h13.927v-14.12h-13.926zm11.012 2.83v8.47h-8.1v-8.47zm8.6 2.55v3.11h15.4v-3.11zm30.721-.57v.98a38.928 38.928 0 0 1 -.324 4.89c-.18 1.04-.432 1.25-1.53 1.25a12.077 12.077 0 0 1 -2.321-.25l.162 3.02a16.739 16.739 0 0 0 2.555.19c2.232 0 3.221-.66 3.725-2.49a36.261 36.261 0 0 0 .594-7.4v-3.02h-6.244c.09-1.23.126-1.93.162-3.1l-2.969-.04c0 1.42-.018 2.12-.108 3.14h-4.805v2.83h4.517a10.408 10.408 0 0 1 -5.326 7.91l1.961 2.3c3.545-2.36 5.506-5.57 6.244-10.21zm12.838-5.21h-2.861v4.49c.036 4.23-.684 6.74-2.519 8.76l2.177 2.32c2.213-2.21 3.185-5.68 3.2-11.34v-4.23zm4.876-.47h-2.879v15.65c5.2-.27 8.062-2.93 9.357-8.71l-2.735-1.22c-.558 3.43-1.637 5.19-3.743 6.15zm18.3 13.21v-3.09h1.716v3.02h2.537v-3.02h1.782v.47c-.018.38-.09.43-.4.45h-1.08l.414 2.17h2.2a1.37 1.37 0 0 0 1.4-1.64v-8.51h-2.825a15.847 15.847 0 0 0 2.375-1.48v-2.19h-10.703v2.19h2.555l-1.08.78a12.249 12.249 0 0 1 1.134.7h-2.537v10.09a2.209 2.209 0 0 1 -1.116-1.79v-5.51h-4.196v2.68h1.6v4.1a7.862 7.862 0 0 1 -1.818 1.2l1.008 3.06a14.41 14.41 0 0 0 2.663-2.47 4.843 4.843 0 0 0 3.815 1.96h9.447l.54-2.72h-9.625a5.2 5.2 0 0 1 -2.2-.45zm4.516-11.63a8.207 8.207 0 0 1 -1.547 1.06l-.054.04c-.18-.19-.594-.53-1.3-1.1zm-2.807 3.4v.93h-1.709v-.93h1.716zm0 2.55v.91h-1.709v-.91h1.716zm4.319-2.55v.93h-1.782v-.93zm0 2.55v.91h-1.782v-.91zm-13.784-6.55a14.769 14.769 0 0 1 2.861 3.1l2-2.1a14.258 14.258 0 0 0 -2.987-3.02zm24.573 2.79a18.732 18.732 0 0 0 1.1-4.77l-2.663-.23a15.465 15.465 0 0 1 -2.555 6.82l.72 3.94a7.807 7.807 0 0 0 .774-.81v8.06h2.627v-13.01zm12.038-4.55h-10.073v2.1h10.077v-2.1zm.234 5.69h-10.559v2.07h10.563v-2.07zm0 2.79h-10.559v2.08h10.563v-2.08zm.288 2.81h-11.171v5.83h11.175v-5.83zm-2.7 2.02v1.66h-5.777v-1.66zm3.365-10.51h-12.6v2.23h12.6zm18.558-3.74a2.57 2.57 0 1 0 2.393 2.57 2.5 2.5 0 0 0 -2.388-2.57zm-.072 1.28a1.288 1.288 0 1 1 -1.187 1.29 1.247 1.247 0 0 1 1.192-1.29zm-13.963 1.33v2.98h10.328c-.719 5.36-3.311 7.96-9.195 9.15l1.3 2.83c6.334-1.43 9.9-5.11 10.886-11.27l-2.987-3.69h-10.327zm24.259-.82h-3.059v15.65c7.629-.13 11.678-2.92 14.107-9.72l-2.591-1.6c-1.493 4.96-4.246 7.55-8.457 7.98zm25.465 6.12a35.185 35.185 0 0 0 5.092-4.85l-2.555-1.89a26.778 26.778 0 0 1 -12.812 8.89l1.439 2.64a27.853 27.853 0 0 0 5.777-2.7v7.54h3.059zm9.417.72a23.085 23.085 0 0 1 3.275 3.13 16.027 16.027 0 0 1 -3.635 4.04l1.782 2.43a19.925 19.925 0 0 0 3.635-4.19c.683 1.06 1.1 1.74 1.565 2.59l2.213-1.91a20.061 20.061 0 0 0 -2.429-3.43 24.5 24.5 0 0 0 1.314-5.48h.791v-2.77h-2.861v-2.49h-2.663v2.49h-3.059v2.77h5.129a20.781 20.781 0 0 1 -.612 3.31c-1.3-1.27-1.944-1.85-2.609-2.44zm15.691-8.08h-2.781v3.23h-3.959v2.88h3.959v8.42c.018.46-.108.55-.612.57h-2.573l.522 2.77h3.6a1.648 1.648 0 0 0 1.853-1.75v-10.01h1.3v-2.88h-1.3v-3.23zm-7.737 8.38a21.012 21.012 0 0 1 1.979 4.87l2.5-1.25a21.082 21.082 0 0 0 -2.141-4.83zm20.81-4.23-1.314 1.83a13.933 13.933 0 0 1 4.462 2.66l1.674-2.15a19.44 19.44 0 0 0 -3.977-2.34h7.828v-2.7h-6.707v-1.45h-2.735v1.45h-6.406v8.57a14.475 14.475 0 0 1 -1.3 5.78l2.142 2.19c1.115-1.87 1.727-4.63 1.817-8.29v-5.55h4.517zm-2.682 12.57a22.749 22.749 0 0 0 1.332-7.44l-2.213-.39a17.712 17.712 0 0 1 -1.4 6.77zm1.854-8.4v8.02a1.357 1.357 0 0 0 1.439 1.5h3.095c1.476-.16 1.8-.91 2.016-4.87l-2.214-.51c-.09 2.62-.108 2.73-.467 2.73h-.81a.405.405 0 0 1 -.414-.47v-6.4zm5.29.62a20.9 20.9 0 0 1 1.835 7.67l2.682-.59a30.626 30.626 0 0 0 -2-7.89zm10.339-2.73c1.026-1.78 2.16-2.61 3.491-2.61a1.831 1.831 0 0 1 1.872 1.95c0 1.66-1.62 3.9-7.612 10.61h11.228v-2.93h-4.876c3.581-4.21 4.3-5.51 4.3-7.74a4.586 4.586 0 0 0 -4.859-4.81 5.827 5.827 0 0 0 -4.858 2.53zm12.165 4.09c.792-1.26 1.547-1.83 2.411-1.83a2.805 2.805 0 0 1 1.746.74c2.2 1.57 2.7 1.81 3.832 1.81q2.214 0 4-2.6l-1.565-1.57c-.828 1.28-1.53 1.81-2.412 1.81a3.059 3.059 0 0 1 -1.853-.77c-2.1-1.53-2.591-1.76-3.725-1.76-1.511 0-2.735.8-3.959 2.55zm24.575 5.86v-2.97h1.745v-2.81h-1.74v-9.4h-2.915l-6.262 9.59v2.62h6.19v2.97h2.987zm-6.172-5.78 3.185-4.98v4.98zm16.7-10.29v2.93c-.162 5.79-2.807 10.17-7.4 12.25l1.817 2.68a15.161 15.161 0 0 0 7.018-8.85 14.9 14.9 0 0 0 6.964 8.85l1.781-2.74c-4.66-2.24-7.108-6.36-7.288-12.19v-2.93h-2.9zm15.5 17.84a14.419 14.419 0 0 0 0-17.89h-2.341a14.6 14.6 0 0 1 0 17.89z" fill-rule="evenodd" transform="translate(-405.219 -2801.12)"/></svg>