<svg data-name="グループ 23" xmlns="http://www.w3.org/2000/svg" width="20" height="20" viewBox="0 0 20 20"><path data-name="パス 97" d="M9.167,13.833h1.667V15.5H9.167ZM10,7.167a1.672,1.672,0,0,1,1.667,1.667c0,1.667-2.5,1.458-2.5,4.167h1.667c0-1.875,2.5-2.083,2.5-4.167a3.333,3.333,0,0,0-6.666,0H8.335A1.672,1.672,0,0,1,10,7.167Z" transform="translate(0 -1.502)" fill="#3232fc"/><path data-name="パス 98" d="M10,20.208,7.747,18H5a3,3,0,0,1-3-3V5A3,3,0,0,1,5,2H15a3,3,0,0,1,3,3V15a3,3,0,0,1-3,3H12.253ZM5,4A1,1,0,0,0,4,5V15a1,1,0,0,0,1,1H8.362L10,17.792,11.638,16H15a1,1,0,0,0,1-1V5a1,1,0,0,0-1-1Z" transform="translate(0 -1)" fill="#3232fc"/></svg>