<svg id="レイヤー_1" data-name="レイヤー 1" xmlns="http://www.w3.org/2000/svg" width="15.48" height="25.43" viewBox="0 0 15.48 25.43"><defs><style>.cls-1{fill:#004EA2;}</style></defs><path class="cls-1" d="M199.8,145.41c0,3.52-1,6.09-2.85,7.69l2.94,2.63-2.71,2.49-3.92-3.58-1.13.07a7,7,0,0,1-5.66-2.45,10.33,10.33,0,0,1-2.06-6.79v-3.34a10.56,10.56,0,0,1,2-6.87,7.73,7.73,0,0,1,11.24-.09,10.07,10.07,0,0,1,2.12,6.66Zm-4.32-3.31a8.7,8.7,0,0,0-.83-4.31,3,3,0,0,0-5.09,0,8.34,8.34,0,0,0-.84,4.13v3.53a8.62,8.62,0,0,0,.84,4.32,2.8,2.8,0,0,0,2.57,1.39,2.73,2.73,0,0,0,2.51-1.38,8.61,8.61,0,0,0,.84-4.23Z" transform="translate(-184.41 -132.79)"/></svg>