<?xml version="1.0" encoding="UTF-8"?><svg id="_レイヤー_2" xmlns="http://www.w3.org/2000/svg" width="262.49" height="117" viewBox="0 0 262.49 117"><g id="_レイヤー_3"><g><g><path d="m34.12,56.473c-.743.504-1.471.924-2.312,1.288-.154-.42-.448-.896-.7-1.148,2.423-.952,4.622-2.647,5.701-4.398h1.358c.994,1.611,3.53,3.46,5.953,4.328-.266.364-.574.953-.672,1.275-.827-.351-1.485-.729-2.466-1.359v1.106c-.294-.042-.63-.056-1.19-.056h-4.538c-.379,0-.883.028-1.135.056v-1.092Zm-.799,3.6c-.742,0-1.204.028-1.597.084v-1.358c.378.056.938.084,1.597.084h8.503c.687,0,1.219-.028,1.583-.084v1.358c-.406-.056-.854-.084-1.583-.084h-4.805c-.42,1.009-.995,2.073-1.555,2.913l1.639-.126c1.471-.111,1.793-.14,3.124-.308-.519-.574-.896-.98-1.485-1.555l1.051-.574c1.541,1.555,2.479,2.619,3.222,3.642l-1.093.756c-.392-.602-.603-.91-.868-1.26-1.934.266-3.586.434-6.934.714-1.022.07-1.64.141-1.989.21l-.183-1.415c.295.028.561.043.743.043.084,0,.168,0,1.303-.057.602-.896,1.246-2.115,1.582-2.983h-2.255Zm6.458-3.74c.434,0,.686-.014.966-.028-1.372-.924-2.465-1.933-3.222-2.983-.687.995-1.751,1.989-3.151,2.983.28.028.448.028.896.028h4.511Z" fill="#231815"/><path d="m54.039,60.366c-.561.547-1.079.938-1.737,1.303-.126-.224-.224-.336-.49-.645-.294.141-.364.183-.784.364l-.98.435c-.168.07-.351.154-.532.224-.309.126-.574.238-.812.337l-.252-1.359c.518-.098.63-.126,1.61-.462v-3.866h-.477c-.434,0-.784.028-1.106.07v-1.247c.267.042.7.07,1.121.07h.462v-1.779c-.014-.714-.028-1.162-.084-1.526h1.345c-.056.406-.07.756-.07,1.526v1.779h.28c.42,0,.826-.014,1.037-.056v1.218c-.364-.042-.589-.056-1.037-.056h-.28v3.39c.393-.168.574-.252.98-.448l-.014.841c.896-.574,1.499-1.148,1.905-1.835h-.532c-.574,0-1.022.028-1.247.07v-1.163c.238.042.658.07,1.261.07h5.953c.616,0,1.148-.028,1.401-.084v1.162c-.28-.027-.729-.056-1.401-.056h-4.188c-.153.28-.266.435-.504.756h4.454c.645,0,.967-.014,1.345-.056-.027.238-.042.267-.069.826-.112,1.877-.322,3.222-.617,3.754-.266.519-.672.673-1.681.673-.378,0-.784-.014-1.204-.042-.042-.435-.183-.841-.393-1.219.687.098,1.19.14,1.625.14.378,0,.588-.084.658-.252.196-.392.364-1.526.435-2.857h-.673c-.336.771-.812,1.541-1.316,2.129-.952,1.037-1.835,1.724-2.899,2.298-.294-.421-.435-.574-.841-.883,1.863-.854,3.151-2.031,3.88-3.544h-1.036c-.771,1.247-2.115,2.367-3.796,3.18-.168-.294-.421-.603-.757-.882,1.401-.547,2.647-1.415,3.292-2.298h-1.232Zm.392-3.46c-.658,0-1.008.015-1.246.057.027-.309.042-.729.056-1.289v-1.919c-.014-.645-.014-.854-.056-1.219.378.056.7.07,1.358.07h3.853c.714,0,1.092-.028,1.456-.07-.042.336-.056.687-.056,1.316v1.821c0,.561.014,1.022.056,1.274-.182-.027-.729-.042-1.246-.042h-4.175Zm-.014-2.577h4.188v-.742h-4.188v.742Zm0,1.653h4.188v-.757h-4.188v.757Z" fill="#231815"/></g><g><path d="m93.777,46.948l.715.807c-1.287,4.069-3.81,6.695-7.241,8.242l-.871-1.079c3.275-1.43,5.538-3.861,6.552-6.838h-3.9c-.818,1.117-1.768,2.105-2.781,2.859l-.924-.806c1.69-1.287,3.12-3.107,3.991-5.2l1.313.403c-.247.546-.533,1.092-.845,1.611h3.991Zm.402-2.47c.391.572.807,1.469,1.053,2.249l-.884.338c-.233-.871-.585-1.664-.987-2.327l.818-.26Zm1.508-.521c.455.586.846,1.418,1.132,2.224l-.871.312c-.234-.818-.624-1.638-1.04-2.249l.779-.286Z" fill="#231815"/><path d="m107.178,49.314c-.897,3.55-3.029,5.525-6.475,6.526l-.676-1.144c3.133-.858,4.953-2.522,5.694-4.967h-7.762v-1.183h8.516l.702.767Zm-1.261-3.705v1.17h-6.722v-1.17h6.722Z" fill="#231815"/><path d="m110.228,45.896c1.118.676,2.119,1.482,3.081,2.496l-.988,1.04c-.975-1.079-1.949-1.937-2.938-2.639l.845-.897Zm-.61,8.217c4.029-.91,6.916-3.082,8.307-6.761l1.184.702c-1.509,4.018-4.798,6.383-9.062,7.307l-.429-1.248Z" fill="#231815"/><path d="m130.662,46.948c-.715,4.524-3.289,7.319-7.111,8.736l-.728-1.156c3.51-1.274,5.746-3.744,6.344-7.086h-7.645v-1.222h8.386l.754.728Z" fill="#231815"/><path d="m134.838,54.189v1.105h-1.312v-9.01h8.775v8.867h-1.313v-.963h-6.149Zm6.149-6.721h-6.149v5.538h6.149v-5.538Z" fill="#231815"/><path d="m146.066,45.896c1.118.676,2.119,1.482,3.081,2.496l-.987,1.04c-.976-1.079-1.95-1.937-2.938-2.639l.845-.897Zm-.611,8.217c4.03-.91,6.917-3.082,8.308-6.761l1.184.702c-1.509,4.018-4.798,6.383-9.062,7.307l-.43-1.248Z" fill="#231815"/><path d="m159.991,48.743c1.638.493,3.536,1.312,5.239,2.313l-.599,1.209c-1.508-.91-3.198-1.703-4.641-2.223v5.733h-1.34v-10.765h1.34v3.731Z" fill="#231815"/><path d="m172.922,48.769c.754,2.809,2.77,5.07,5.435,6.098-.351.39-.507.637-.793,1.209-2.562-1.287-4.277-3.198-5.161-5.746-.611,2.521-2.51,4.628-5.188,5.759-.234-.494-.39-.728-.754-1.104,3.029-1.21,4.667-3.237,5.005-6.215h-3.185c-.741,0-1.17.026-1.521.091v-1.364c.299.064.858.091,1.534.091h3.289c.026-.663.039-.976.039-1.443,0-.598-.026-1.014-.091-1.391h1.43c-.064.429-.091.767-.091,1.43-.013.688-.026.975-.039,1.404h3.575c.637,0,1.196-.026,1.521-.091v1.364c-.391-.064-.832-.091-1.509-.091h-3.497Z" fill="#231815"/><path d="m180.109,45.986c0-.507-.013-.818-.039-1.118.156.026.494.039.819.039h2.105c.378,0,.65-.013.832-.052l.56.793c-.065.104-.091.169-.234.572-.312.832-.688,1.638-1.209,2.587.741,1.04,1.053,1.807,1.053,2.691,0,.779-.272,1.3-.806,1.495-.26.104-.585.143-1.04.143h-.403c-.013-.494-.091-.832-.233-1.092.441.039.611.052.845.052.429,0,.572-.143.572-.624,0-.272-.052-.598-.156-.91-.208-.61-.442-.975-1.065-1.65.571-.924.962-1.756,1.352-2.99h-1.833v8.983c0,.52.013.871.065,1.248h-1.262c.052-.325.078-.729.078-1.353v-8.814Zm5.694,3.029c-.144,3.497-.819,5.382-2.587,7.163-.325-.39-.56-.585-.937-.793.988-.884,1.47-1.573,1.847-2.626.377-1.092.61-3.354.61-6.136,0-.702-.013-1.145-.052-1.6.403.039.884.065,1.443.065h3.64c.56,0,1.001-.026,1.353-.078v1.196c-.299-.039-.754-.065-1.313-.065h-3.965v.988c0,.351,0,.533-.013.871h3.341c.52,0,.845-.014,1.04-.065l.572.611c-.039.091-.053.156-.117.325-.014.064-.039.155-.065.233l-.247.832c-.39,1.196-.936,2.366-1.43,3.081.663.793,1.547,1.47,2.6,1.964-.26.312-.441.637-.624,1.144-1.131-.663-1.963-1.339-2.678-2.197-.806.937-1.703,1.612-3.003,2.263-.221-.391-.521-.741-.78-.937,1.261-.533,2.275-1.248,3.12-2.236-.754-1.195-1.17-2.366-1.404-4.004h-.351Zm1.365,0c.182,1.145.585,2.314,1.079,3.081.559-.91.884-1.742,1.222-3.081h-2.301Z" fill="#231815"/><path d="m93.296,68.724v-5.525h-7.15v-1.235h8.489v8.983h-1.339v-.975h-7.241v-1.248h7.241Z" fill="#231815"/><path d="m98.479,61.495c1.118.676,2.119,1.482,3.081,2.496l-.987,1.04c-.976-1.079-1.95-1.937-2.938-2.639l.845-.897Zm-.611,8.217c4.03-.91,6.917-3.082,8.308-6.761l1.184.702c-1.509,4.018-4.798,6.383-9.062,7.307l-.43-1.248Z" fill="#231815"/><path d="m117.65,62.548l.715.807c-1.287,4.069-3.81,6.695-7.241,8.242l-.871-1.079c3.275-1.43,5.538-3.861,6.552-6.838h-3.9c-.818,1.117-1.768,2.105-2.781,2.859l-.924-.806c1.69-1.287,3.12-3.107,3.991-5.2l1.313.403c-.247.546-.533,1.092-.845,1.611h3.991Zm.402-2.47c.391.572.807,1.469,1.053,2.249l-.884.338c-.233-.871-.585-1.664-.987-2.327l.818-.26Zm1.508-.521c.455.586.846,1.418,1.132,2.224l-.871.312c-.234-.818-.624-1.638-1.04-2.249l.779-.286Z" fill="#231815"/><path d="m124.323,61.287v8.151c2.275-.598,4.927-2.184,6.708-4.511l.819,1.053c-1.847,2.522-4.732,4.238-8.178,5.005l-.702-.793v-8.905h1.353Z" fill="#231815"/><path d="m140.55,68.724v-5.525h-7.15v-1.235h8.489v8.983h-1.339v-.975h-7.241v-1.248h7.241Z" fill="#231815"/><path d="m145.732,61.495c1.118.676,2.119,1.482,3.081,2.496l-.987,1.04c-.976-1.079-1.95-1.937-2.938-2.639l.845-.897Zm-.611,8.217c4.03-.91,6.917-3.082,8.308-6.761l1.184.702c-1.509,4.018-4.798,6.383-9.062,7.307l-.43-1.248Z" fill="#231815"/><path d="m155.87,66.761c1.079-.91,2.184-2.094,3.12-3.237.338-.416.715-.624,1.092-.624.364,0,.741.182,1.079.559,1.456,1.573,3.874,3.744,5.993,5.252l-.936,1.262c-2.067-1.664-4.407-3.888-5.799-5.486-.117-.13-.208-.195-.299-.195-.104,0-.208.078-.312.208-.87,1.079-2.015,2.327-3.081,3.303l-.857-1.04Zm8.229-4.512c.494.521,1.026,1.339,1.391,2.067l-.819.455c-.351-.793-.818-1.534-1.325-2.106l.754-.416Zm1.43-.715c.494.52,1.027,1.274,1.417,2.041l-.806.442c-.364-.793-.871-1.534-1.353-2.08l.741-.403Z" fill="#231815"/><path d="m169.874,61.495c1.118.676,2.119,1.482,3.081,2.496l-.988,1.04c-.975-1.079-1.949-1.937-2.938-2.639l.845-.897Zm-.61,8.217c4.029-.91,6.916-3.082,8.307-6.761l1.184.702c-1.509,4.018-4.798,6.383-9.062,7.307l-.429-1.248Z" fill="#231815"/><path d="m181.533,63.952c1.053.352,2.249.949,3.236,1.612l-.649,1.144c-1.015-.688-2.197-1.287-3.186-1.689l.599-1.066Zm-.312,5.851c4.069-.611,6.981-2.418,8.711-6.215l1.117.846c-1.885,4.017-5.083,5.954-9.451,6.695l-.377-1.326Zm1.417-8.88c1.04.364,2.158.91,3.146,1.586l-.65,1.132c-1.001-.702-2.119-1.248-3.106-1.664l.61-1.054Z" fill="#231815"/><path d="m194.412,67.397v-1.118h5.563v-2.002h-6.006v-1.105h7.216v8.398h-1.21v-.806h-6.084v-1.105h6.084v-2.262h-5.563Z" fill="#231815"/><path d="m205.237,61.495c1.118.676,2.119,1.482,3.081,2.496l-.988,1.04c-.975-1.079-1.949-1.937-2.938-2.639l.845-.897Zm-.61,8.217c4.029-.91,6.916-3.082,8.307-6.761l1.184.702c-1.509,4.018-4.798,6.383-9.062,7.307l-.429-1.248Z" fill="#231815"/><path d="m226.114,62.99l.663.754c-.611,1.6-1.625,3.042-2.834,3.991l-.884-.793c.923-.715,1.716-1.729,2.093-2.626l-4.836.767v3.627c0,.741.377,1.002,1.742,1.002,1.417,0,2.626-.104,3.86-.339l.117,1.287c-1.209.208-2.444.286-3.991.286-2.275,0-3.042-.663-3.042-1.924v-3.731l-2.821.455-.169-1.183,2.99-.468v-3.342h1.313v3.146l5.798-.91Z" fill="#231815"/><path d="m229.659,61.495c1.118.676,2.119,1.482,3.081,2.496l-.988,1.04c-.975-1.079-1.949-1.937-2.938-2.639l.845-.897Zm-.61,8.217c4.029-.91,6.916-3.082,8.307-6.761l1.184.702c-1.509,4.018-4.798,6.383-9.062,7.307l-.429-1.248Z" fill="#231815"/><path d="m241.422,70.452c1.82-.688,3.302-1.625,4.473-2.82-.793-.78-1.664-1.456-2.471-1.964l.729-.845c.806.403,1.742,1.079,2.548,1.859.754-.988,1.339-2.119,1.768-3.406h-4.198c-.846,1.183-1.82,2.197-2.809,2.912l-.936-.78c1.677-1.235,3.172-3.198,3.99-5.174l1.287.402c-.233.521-.507,1.027-.793,1.521h4.16l.754.78c-1.391,4.615-3.86,7.059-7.67,8.632l-.832-1.118Z" fill="#231815"/><path d="m262.49,65.252v1.353h-10.387v-1.353h10.387Z" fill="#231815"/></g><g><path d="m53.894,100.996c-.868,0-1.261.014-1.583.07v-1.331c.351.056.91.084,1.569.084h8.012c.603,0,1.247-.028,1.583-.084v1.331c-.42-.057-.771-.07-1.568-.07h-3.418v2.605h2.801c.574,0,1.135-.028,1.415-.07v1.303c-.364-.056-.742-.07-1.387-.07h-2.829v3.152h3.922c.756,0,1.19-.028,1.681-.084v1.372c-.448-.069-.967-.098-1.652-.098h-8.938c-.7,0-1.274.028-1.723.098v-1.372c.393.056.938.084,1.681.084h3.698v-3.152h-2.563c-.658,0-1.148.028-1.484.07v-1.303c.322.056.672.07,1.4.07h2.647v-2.605h-3.264Zm2.521-3.979c1.246.448,2.017.799,3.432,1.569l-.826,1.036c-1.149-.729-2.479-1.358-3.517-1.667l.911-.938Z" fill="#231815"/><path d="m76.898,108.042h2.325c.589,0,.911-.015,1.19-.057v1.191c-.462-.057-.938-.084-1.456-.084h-5.632v.644h-1.246c.056-.35.084-.882.084-1.526v-3.698l.028-.49c-.238.406-.561.826-.98,1.261-.225-.49-.393-.742-.673-1.022v3.754c0,.742.014,1.247.07,1.695h-1.387c.056-.421.084-.938.084-1.653v-3.796c0-.561,0-.799.042-1.877-.477.841-.687,1.148-1.064,1.597-.042-.14-.084-.252-.099-.294,0-.014-.084-.21-.195-.477-.07-.196-.127-.322-.141-.35-.014-.042-.07-.141-.126-.238,1.261-1.317,2.396-3.727,2.647-5.575l1.274.42c-.098.225-.098.238-.224.645-.196.616-.561,1.541-.883,2.228v3.894c1.135-.966,2.073-2.297,2.577-3.642l1.191.322c-.183.364-.351.687-.589,1.064h2.115c.336-.435.673-1.036.771-1.387l1.204.252c-.195.351-.504.841-.728,1.135h1.975c.561,0,.938-.014,1.289-.07v1.177c-.351-.042-.715-.056-1.177-.056h-2.27v.966h1.695c.616,0,.896-.014,1.204-.056v1.121c-.364-.042-.729-.057-1.19-.057h-1.709v.967h1.695c.645,0,.882-.014,1.204-.056v1.12c-.336-.042-.729-.056-1.177-.056h-1.723v1.064Zm-1.625-9.777c0-.532-.027-.826-.084-1.064h1.317c-.057.266-.07.561-.07,1.064v1.135h2.297v-.687c0-.448-.014-.729-.042-.967h1.289c-.042.252-.07.603-.07,1.037v.826c0,.448.014.658.042.883-.462-.028-.645-.028-.994-.028h-6.065c-.477,0-.729.014-.967.028.028-.351.028-.519.028-.896v-.911c0-.364-.028-.7-.057-.938h1.247c-.028.309-.042.616-.042.98v.673h2.171v-1.135Zm.49,5.729v-.966h-2.438v.966h2.438Zm-2.438,1.976h2.438v-.967h-2.438v.967Zm0,2.073h2.438v-1.064h-2.438v1.064Z" fill="#231815"/></g><g><path d="m105.011,98.83c0-.569-.03-1.08-.075-1.515.435.045.945.075,1.604.075h6.915c.675,0,1.14-.016,1.56-.075-.06.51-.074.945-.074,1.439v9.465c0,.705.029,1.29.09,1.71h-1.485v-.915h-7.14v.915h-1.484c.06-.42.09-.99.09-1.694v-9.405Zm1.395,3.555h7.14v-3.704h-7.14v3.704Zm0,5.34h7.14v-4.064h-7.14v4.064Z" fill="#231815"/><path d="m118.414,102.896c.226.029.375.029.75.029h.466c.404-.524.51-.659.84-1.125-.601-.824-1.545-1.874-2.085-2.324l.675-1.021c.375.375.39.391.63.63.57-.915,1.14-2.159,1.215-2.595l1.26.51c-.135.226-.149.24-.54,1.021-.375.734-.75,1.35-1.14,1.92.21.255.45.524.69.825.885-1.365,1.229-1.995,1.439-2.596l1.125.646c-.075.104-.12.165-.21.3-.045.061-.27.42-.689,1.095-.69,1.035-1.381,2.01-1.905,2.67.585-.029,1.41-.104,1.905-.165-.136-.359-.24-.585-.525-1.215l.84-.42c.6,1.275.885,1.965,1.2,2.985l-.96.479c-.105-.435-.12-.54-.21-.81-.33.06-.585.09-1.141.149v4.71c0,.646.03,1.141.091,1.516h-1.396c.061-.391.09-.87.09-1.516v-4.604l-.645.06c-.075,0-.436.016-1.05.061-.24.015-.391.029-.556.075l-.165-1.29Zm1.801,2.085c-.061,1.529-.346,3.404-.615,4.334l-1.14-.479c.375-.975.614-2.43.659-4.064l1.096.21Zm3.284-.315c.195.54.375,1.545.585,3.12l-1.064.33c-.03-.976-.195-2.19-.45-3.165l.93-.285Zm6.225.21c.585,0,1.11-.03,1.396-.09v1.32c-.42-.046-.78-.061-1.396-.061h-1.484v2.31h2.01c.705,0,1.215-.029,1.53-.074v1.35c-.375-.06-.9-.09-1.545-.09h-4.98c-.6,0-1.185.03-1.545.09v-1.35c.33.045.825.074,1.396.074h1.89v-2.31h-1.125c-.57,0-1.005.015-1.425.061v-1.306c.285.045.735.075,1.425.075h1.125v-.39c0-.72-.03-1.17-.09-1.455h1.41c-.061.314-.075.72-.075,1.455v.39h1.484Zm1.471-6.915c-.21.315-.375.556-.495.735-.585.945-1.186,1.68-2.025,2.445,1.005.6,2.115,1.034,3.3,1.29-.3.465-.42.734-.6,1.319-1.365-.42-2.729-1.064-3.705-1.77-.915.66-1.755,1.109-2.97,1.604-.195-.51-.405-.899-.645-1.215,1.125-.375,1.8-.689,2.609-1.215-.84-.78-1.5-1.71-1.979-2.7-.36.016-.66.03-.9.075v-1.335c.255.045.825.075,1.545.075h3.96c.54,0,.945-.015,1.14-.061l.766.75Zm-5.19.495c.42.795.855,1.32,1.65,1.965.734-.63,1.245-1.215,1.71-1.965h-3.36Z" fill="#231815"/><path d="m138.409,97.766c2.16,0,3.375.899,3.375,2.67,0,1.335-.645,2.205-1.92,2.58,1.306.225,2.311,1.109,2.311,2.744,0,2.01-1.32,3.285-3.601,3.285h-3.734v-11.279h3.569Zm-.345,4.725c1.335,0,2.025-.645,2.025-1.725,0-1.096-.57-1.605-1.92-1.605h-1.71v3.33h1.604Zm.18,5.16c1.455,0,2.19-.705,2.19-1.98s-.9-1.845-2.37-1.845h-1.604v3.825h1.784Z" fill="#231815"/><path d="m145.397,109.045v-11.279h3.525c2.31,0,3.689,1.199,3.689,3.359,0,2.235-1.335,3.87-4.035,3.87h-1.529v4.05h-1.65Zm3.165-5.49c1.395,0,2.265-.72,2.265-2.265,0-1.29-.705-2.069-2.175-2.069h-1.604v4.334h1.515Z" fill="#231815"/></g><g><path d="m14.278,11.473c-.743.504-1.471.924-2.312,1.288-.154-.42-.448-.896-.7-1.148,2.423-.952,4.622-2.647,5.701-4.398h1.358c.994,1.611,3.53,3.46,5.953,4.328-.266.364-.574.953-.672,1.275-.827-.351-1.485-.729-2.466-1.359v1.106c-.294-.042-.63-.056-1.19-.056h-4.538c-.379,0-.883.028-1.135.056v-1.092Zm-.799,3.6c-.742,0-1.204.028-1.597.084v-1.358c.378.056.938.084,1.597.084h8.503c.687,0,1.219-.028,1.583-.084v1.358c-.406-.056-.854-.084-1.583-.084h-4.805c-.42,1.009-.995,2.073-1.555,2.913l1.639-.126c1.471-.111,1.793-.14,3.124-.308-.519-.574-.896-.98-1.485-1.555l1.051-.574c1.541,1.555,2.479,2.619,3.222,3.642l-1.093.756c-.392-.602-.603-.91-.868-1.26-1.934.266-3.586.434-6.934.714-1.022.07-1.64.141-1.989.21l-.183-1.415c.295.028.561.043.743.043.084,0,.168,0,1.303-.057.602-.896,1.246-2.115,1.582-2.983h-2.255Zm6.458-3.74c.434,0,.686-.014.966-.028-1.372-.924-2.465-1.933-3.222-2.983-.687.995-1.751,1.989-3.151,2.983.28.028.448.028.896.028h4.511Z" fill="#231815"/><path d="m29.553,8.517c0-.532-.028-.896-.07-1.219h1.274c-.042.225-.07.742-.07,1.232v.238h2.199v-.252c0-.616-.014-.91-.069-1.219h1.274c-.042.309-.07.687-.07,1.232v.238c.378,0,.868-.042,1.009-.069v1.176c-.183-.042-.504-.056-.938-.056h-.07v5.519c.364,0,.757-.027.925-.069v1.177c-.225-.028-.589-.042-1.19-.042h-4.427c-.561,0-.826.014-1.093.056v-1.19c.21.056.561.069,1.064.069h.253v-5.519c-.575,0-.896.014-1.135.056v-1.176c.182.042.616.069,1.135.069v-.252Zm1.736,8.741c-.687,1.148-1.135,1.666-2.115,2.451-.266-.393-.49-.616-.882-.911.966-.658,1.555-1.288,2.017-2.129l.98.589Zm1.597-6.317v-1.121h-2.199v1.121h2.199Zm0,2.129v-1.135h-2.199v1.135h2.199Zm0,2.269v-1.274h-2.199v1.274h2.199Zm.112,1.345c.435.673.631.896,1.303,1.443-.351.266-.561.462-.868.84-.505-.462-.925-.994-1.331-1.681l.896-.603Zm3.586-1.316c-.168,1.976-.63,3.306-1.541,4.412-.294-.392-.588-.672-.98-.924.729-.827,1.051-1.527,1.247-2.76.182-1.162.266-3.348.266-6.653,0-.827-.014-1.275-.069-1.681.378.042.798.056,1.442.056h1.933c.729,0,1.009-.014,1.415-.056-.042.321-.056.742-.056,1.442v9.161c0,.994-.379,1.288-1.611,1.288-.308,0-.561-.014-1.078-.042-.07-.546-.112-.756-.309-1.288.393.069.967.14,1.232.14.309,0,.379-.014.435-.042.112-.056.141-.126.141-.252v-2.802h-2.466Zm.141-3.264c-.015.952-.043,1.681-.07,2.157h2.396v-2.157h-2.325Zm2.325-3.166h-2.312v2.06h2.312v-2.06Z" fill="#231815"/></g><g><path d="m74.312,25.055h-9.637v-2.246l4.426-5.627c.561-.778.975-1.461,1.24-2.049s.398-1.151.398-1.69c0-.727-.125-1.295-.376-1.707s-.612-.618-1.083-.618c-.518,0-.927.24-1.23.719-.303.479-.455,1.153-.455,2.021h-3.189c0-1.003.208-1.92.624-2.751.415-.831.999-1.477,1.752-1.938.752-.46,1.604-.69,2.555-.69,1.46,0,2.593.402,3.397,1.207s1.207,1.949,1.207,3.432c0,.92-.223,1.854-.668,2.802s-1.252,2.113-2.42,3.498l-2.101,2.999h5.56v2.639Z" fill="#231815"/><path d="m85.536,18.294c0,2.261-.41,3.99-1.23,5.188-.819,1.198-1.989,1.797-3.51,1.797-1.504,0-2.667-.582-3.486-1.746-.82-1.164-1.245-2.832-1.275-5.004v-3.088c0-2.254.408-3.978,1.225-5.172s1.988-1.791,3.516-1.791,2.698.592,3.515,1.774,1.231,2.871,1.247,5.065v2.976Zm-3.189-3.313c0-1.287-.128-2.253-.383-2.896-.254-.645-.65-.967-1.189-.967-1.012,0-1.535,1.18-1.572,3.538v4.077c0,1.317.129,2.298.387,2.941.259.645.661.967,1.207.967.518,0,.9-.302,1.151-.904s.384-1.525.399-2.769v-3.987Z" fill="#231815"/><path d="m97.312,25.055h-9.637v-2.246l4.426-5.627c.561-.778.975-1.461,1.24-2.049s.398-1.151.398-1.69c0-.727-.125-1.295-.376-1.707s-.612-.618-1.083-.618c-.518,0-.927.24-1.23.719-.303.479-.455,1.153-.455,2.021h-3.189c0-1.003.208-1.92.624-2.751.415-.831.999-1.477,1.752-1.938.752-.46,1.604-.69,2.555-.69,1.46,0,2.593.402,3.397,1.207s1.207,1.949,1.207,3.432c0,.92-.223,1.854-.668,2.802s-1.252,2.113-2.42,3.498l-2.101,2.999h5.56v2.639Z" fill="#231815"/><path d="m102.171,15.43h1.539c.584,0,1.013-.203,1.286-.611s.409-.953.409-1.635c0-.65-.14-1.158-.421-1.521-.28-.363-.657-.545-1.128-.545-.442,0-.804.173-1.084.518-.281.344-.422.778-.422,1.303h-3.178c0-.854.196-1.619.59-2.297.393-.678.943-1.207,1.65-1.59.708-.381,1.492-.572,2.354-.572,1.504,0,2.684.416,3.537,1.246.854.832,1.28,1.97,1.28,3.414,0,.742-.192,1.429-.578,2.062s-.894,1.117-1.522,1.454c.771.329,1.347.823,1.725,1.482s.566,1.438.566,2.336c0,1.452-.462,2.617-1.387,3.492-.925.877-2.139,1.314-3.645,1.314-1.399,0-2.536-.433-3.408-1.297-.872-.865-1.309-2.001-1.309-3.408h3.179c0,.584.153,1.074.46,1.471.308.396.697.596,1.168.596.547,0,.979-.203,1.298-.607s.478-.943.478-1.617c0-1.609-.626-2.418-1.876-2.426h-1.562v-2.561Z" fill="#231815"/><path d="m110.857,23.438c0-.509.17-.929.511-1.258s.784-.494,1.331-.494c.531,0,.974.163,1.325.488.352.326.527.747.527,1.264,0,.524-.178.945-.533,1.264s-.795.477-1.319.477c-.531,0-.972-.16-1.319-.482-.349-.322-.522-.741-.522-1.258Z" fill="#231815"/><path d="m127.334,1.701v3.984h-.266c-1.76.011-3.157.54-4.191,1.585-1.035,1.047-1.663,2.51-1.885,4.392,1.007-1.151,2.269-1.727,3.785-1.727,1.749,0,3.146.747,4.191,2.241,1.047,1.494,1.569,3.486,1.569,5.977,0,1.583-.299,3.011-.896,4.283s-1.437,2.261-2.515,2.963c-1.08.703-2.3,1.055-3.661,1.055-2.191,0-3.948-.88-5.271-2.64-1.323-1.76-1.984-4.128-1.984-7.105v-1.743c0-2.667.418-5.003,1.254-7.006.835-2.003,2.041-3.545,3.619-4.623,1.576-1.08,3.417-1.625,5.52-1.636h.73Zm-4.034,12.103c-.598,0-1.099.188-1.503.565-.403.377-.705.843-.904,1.397v1.696c0,1.708.227,2.983.681,3.826s1.052,1.264,1.793,1.264c.753,0,1.355-.407,1.81-1.223.454-.814.681-1.86.681-3.136,0-1.297-.235-2.354-.706-3.168-.47-.815-1.087-1.223-1.851-1.223Z" fill="#231815"/><path d="m132.479,23.438c0-.509.17-.929.511-1.258s.784-.494,1.331-.494c.531,0,.974.163,1.325.488.352.326.527.747.527,1.264,0,.524-.178.945-.533,1.264s-.795.477-1.319.477c-.531,0-.972-.16-1.319-.482-.349-.322-.522-.741-.522-1.258Z" fill="#231815"/><path d="m151.634,8.375c0,1.173-.249,2.214-.747,3.121s-1.185,1.633-2.059,2.175c.996.564,1.782,1.342,2.357,2.332.575.991.863,2.156.863,3.495,0,2.147-.62,3.843-1.859,5.089-1.239,1.244-2.928,1.867-5.063,1.867s-3.835-.623-5.097-1.867c-1.262-1.246-1.893-2.941-1.893-5.089,0-1.339.288-2.507.863-3.503s1.367-1.771,2.374-2.324c-.886-.542-1.577-1.268-2.075-2.175s-.747-1.948-.747-3.121c0-2.114.592-3.769,1.776-4.964s2.772-1.793,4.765-1.793c2.015,0,3.608.604,4.781,1.81s1.76,2.855,1.76,4.947Zm-6.508,14.178c.708,0,1.253-.302,1.636-.905.381-.603.572-1.441.572-2.515s-.199-1.915-.598-2.523-.946-.913-1.644-.913-1.248.305-1.651.913c-.404.608-.606,1.45-.606,2.523s.202,1.912.606,2.515c.403.604.965.905,1.685.905Zm1.826-13.929c0-.94-.152-1.693-.456-2.258-.305-.564-.772-.847-1.403-.847-.598,0-1.052.274-1.361.821-.31.549-.465,1.31-.465,2.283,0,.952.155,1.719.465,2.299.31.582.774.872,1.395.872s1.079-.29,1.378-.872c.299-.58.448-1.347.448-2.299Z" fill="#231815"/></g><path d="m205.604,16.775c-.996,1.019-2.086,1.527-3.271,1.527-1.837,0-3.284-.739-4.341-2.216-1.058-1.479-1.586-3.451-1.586-5.919,0-1.594.299-3.052.896-4.374.598-1.323,1.431-2.35,2.498-3.08,1.068-.73,2.261-1.096,3.578-1.096,1.361,0,2.573.404,3.636,1.212s1.887,1.968,2.474,3.478c.587,1.512.88,3.229.88,5.155v1.71c0,4.117-.905,7.335-2.714,9.654-1.811,2.318-4.375,3.5-7.695,3.544h-.481v-4.051h.315c1.837-.011,3.218-.487,4.143-1.428.924-.94,1.479-2.313,1.668-4.117Zm-2.075-2.158c.907,0,1.621-.62,2.142-1.859v-2.158c0-1.583-.216-2.825-.647-3.728-.432-.901-.99-1.353-1.677-1.353-.675,0-1.221.445-1.635,1.337-.416.891-.623,1.978-.623,3.262,0,1.395.216,2.493.647,3.295.432.803,1.029,1.204,1.793,1.204Z" fill="#231815"/><path d="m184.419,17.803c-1.122-.748-1.819-1.02-2.686-1.02-.986,0-2.108.663-2.941,1.785l-1.07-.715c1.206-1.75,2.601-2.635,4.097-2.635,1.189,0,2.039.272,3.28,1.055l.612.391c1.104.714,1.835,1.02,2.686,1.02,1.173,0,2.107-.629,2.924-1.784l1.088.696c-1.225,1.802-2.55,2.652-4.097,2.652-1.207,0-2.057-.238-3.298-1.054l-.595-.392Z" fill="#231815"/><polygon points="0 0 0 27 44 27 44 25 2 25 2 2 52 2 52 17 54 17 54 0 0 0" fill="#004ea2"/><polygon points="20 45 20 72 64 72 64 70 22 70 22 47 72 47 72 62 74 62 74 45 20 45" fill="#004ea2"/><polygon points="40 90 40 117 84 117 84 115 42 115 42 92 92 92 92 107 94 107 94 90 40 90" fill="#004ea2"/><rect x="157" y="8" width="17" height="17" rx="8.246" ry="8.246" fill="#231815"/><rect x="215" y="8" width="17" height="17" rx="8.246" ry="8.246" fill="#231815"/><path d="m166.007,14.563c.819,1.639,2.219,3.068,3.897,3.968-.31.319-.42.479-.64.869-1.659-1.089-2.878-2.448-3.628-4.018.04.39.061.81.061,1.159v2.988c0,.51.029.89.069,1.18h-1.079c.05-.31.07-.649.07-1.189v-2.969c0-.329.029-.849.05-1.129-.67,1.509-1.939,2.969-3.498,4.008-.16-.3-.43-.649-.63-.819,1.639-.96,3.038-2.469,3.768-4.048h-2.278c-.479,0-.77.02-1.14.06v-.979c.3.05.66.07,1.14.07h2.589v-.989c0-.37-.021-.63-.07-.899h1.079c-.05.249-.069.6-.069.899v.989h2.738c.51,0,.879-.021,1.149-.07v.979c-.33-.04-.72-.06-1.149-.06h-2.429Z" fill="#fff"/><path d="m221.908,15.283c-.44,0-.7.01-.939.05v-.58c-.6.38-1.189.7-1.77.93-.109-.28-.27-.55-.51-.84,1.789-.629,3.338-1.759,4.048-2.958h1.029c.76,1.189,2.529,2.419,4.188,2.929-.159.229-.379.64-.47.899-.739-.311-1.239-.57-1.938-1.02v.64c-.229-.04-.479-.05-.939-.05h-.93v1.109h2.579c.479,0,.81-.021,1.029-.061v.92c-.21-.04-.6-.061-1.029-.061h-2.579v2.359h2.749c.439,0,.859-.021,1.119-.061v.96c-.24-.04-.72-.07-1.14-.07h-6.177c-.489,0-.81.021-1.179.07v-.96c.249.04.719.061,1.179.061h2.539v-2.359h-2.398c-.4,0-.79.021-1.02.061v-.92c.239.04.56.061,1.02.061h2.398v-1.109h-.859Zm-.88,2.089c.31.51.58,1.059.819,1.688l-.81.32c-.18-.53-.539-1.289-.81-1.669l.8-.34Zm3.598-2.849c.26,0,.51-.01.63-.021-.85-.579-1.539-1.219-1.999-1.839-.46.66-1.06,1.22-1.938,1.85.21.01.33.01.56.01h2.748Zm1.689,3.198c-.08.149-.14.279-.17.33-.189.369-.31.609-.34.659-.11.19-.21.36-.439.729l-.77-.3c.26-.35.659-1.169.859-1.759l.859.34Z" fill="#fff"/></g></g></svg>