<?xml version="1.0" encoding="UTF-8"?><svg id="_レイヤー_2" xmlns="http://www.w3.org/2000/svg" width="544" height="169.129" viewBox="0 0 544 169.129"><g id="_レイヤー_3"><g id="_レイヤー_2-2"><g><g><g><g><g><path d="m162.066,14.324c0-.911-.75-1.667-1.667-1.667h-10.38c-.914,0-1.66-.753-1.66-1.671V2.887c0-.914.746-1.671,1.66-1.671h36.504c.913,0,1.666.755,1.666,1.671v8.099c0,.918-.753,1.671-1.666,1.671h-10.38c-.914,0-1.66.756-1.66,1.667v41.66c0,.914-.75,1.664-1.667,1.664h-9.088c-.913,0-1.66-.75-1.66-1.664V14.324Z" fill="#231815"/><path d="m198.162,2.887c0-.911.75-1.667,1.662-1.667h32.312c.914,0,1.667.756,1.667,1.667v7.719c0,.911-.753,1.664-1.667,1.664h-19.977c-.918,0-1.664.755-1.664,1.667v8.106c0,.911.746,1.667,1.664,1.667h15.736c.916,0,1.664.755,1.664,1.671v7.708c0,.911-.748,1.664-1.664,1.664h-15.736c-.918,0-1.664.75-1.664,1.667v8.522c0,.907.746,1.667,1.664,1.667h20.381c.913,0,1.664.746,1.664,1.66v7.712c0,.914-.751,1.664-1.664,1.664h-32.716c-.913,0-1.662-.75-1.662-1.664V2.887Z" fill="#231815"/><path d="m301.508,2.887c0-.911.748-1.667,1.66-1.667h9.088c.914,0,1.664.756,1.664,1.667v19.003c0,.911.753,1.667,1.664,1.667h13.333c.914,0,1.664-.755,1.664-1.667V2.887c0-.911.75-1.667,1.664-1.667h9.088c.914,0,1.666.756,1.666,1.667v53.097c0,.914-.751,1.664-1.666,1.664h-9.088c-.914,0-1.664-.75-1.664-1.664v-19.322c0-.918-.75-1.664-1.664-1.664h-13.333c-.911,0-1.664.746-1.664,1.664v19.322c0,.914-.75,1.664-1.664,1.664h-9.088c-.913,0-1.66-.75-1.66-1.664V2.887Z" fill="#231815"/><path d="m243.363,29.338v-.156c0-16.038,11.22-29.182,27.302-29.182,9.312,0,15.103,3.151,19.803,7.854.285.271.54,1.187.014,1.891l-.099.104-5.03,6.239s-.37.64-.987.828c-.68.213-1.267.05-1.483-.132-3.857-3.335-6.95-5.33-11.907-5.33-8.828,0-14.74,8.035-14.74,17.719v.156c0,9.674,5.764,17.587,14.74,17.587,5.751,0,8.482-2.172,12.52-5.954.16-.153.677-.281.965-.187.559.187.814.54.814.54l5.576,6.069s.359.342.344.914c-.014.477-.259.833-.406.982-5.358,5.767-10.738,9.081-20.572,9.081-15.405,0-26.852-12.816-26.852-29.024" fill="#231815"/></g><g><path d="m119.059,29.243L96.282,2.585c-.736-.864-1.62-1.568-3.236-1.568h-13.705c-.684,0-1.074.935-.553,1.568l22.763,26.642-22.747,26.665c-.474.536-.187,1.568.559,1.568h13.701c1.598,0,2.497-.708,3.234-1.568l22.759-26.647.002-.002Z" fill="#00629d"/><path d="m140.596,1.017h-13.699c-1.535,0-2.196.387-2.934,1.251l-10.556,12.318,8.748,10.229,18.998-22.229c.534-.715.22-1.568-.555-1.568" fill="#231815"/><path d="m141.135,55.892l-18.981-22.223-8.746,10.24,10.608,12.355c.736.861,1.818,1.195,2.859,1.195h13.703c.729,0,1.064-.975.555-1.568" fill="#231815"/></g><path d="m24.616,15.814v26.621l.073,2.575h-4.584v-2.613H4.677v2.613H.062c.047-.989.071-1.849.071-2.575V15.814c0-.753-.024-1.6-.071-2.538h24.626c-.05.586-.073,1.43-.073,2.538m-4.511,1.504H4.677v8.149h15.427s0-8.149,0-8.149Zm-15.427,21.054h15.427v-8.913H4.677v8.913Z" fill="#00629d"/><path d="m42.037,29.725v13.72c0,.769.024,1.305.073,1.603h-3.843c.028-.298.038-.833.038-1.603v-13.351c-1.664.2-3.048.335-4.141.409l-1.641.26-.408-3.84c.645.054,1.353.064,2.125.042l.897-.042c.869-.996,1.664-1.992,2.387-2.993-1.568-1.839-3.284-3.649-5.148-5.439l2.049-2.965,1.308,1.319c.744-1.034,1.44-2.129,2.087-3.324.649-1.155,1.079-2.07,1.303-2.755l3.246,2.115c-.123.121-.259.298-.406.536-.847,1.596-2.131,3.605-3.846,6.076.498.562.972,1.098,1.419,1.646,2.19-3.246,3.569-5.588,4.138-7.117l3.246,2.073-.484.573c-.6,1.013-1.332,2.169-2.2,3.487-.873,1.298-1.725,2.528-2.556,3.647-.836,1.135-1.551,2.073-2.144,2.816,1.888-.149,3.21-.274,3.951-.366-.297-1.017-.644-1.948-1.044-2.792l2.911-.817c.42.843.876,1.983,1.357,3.446.489,1.447.88,2.844,1.176,4.192l-3.241,1.003-.337-1.863-2.271.302-.002.002Zm-9.624,11.888c.42-1.234.762-2.667,1.024-4.287.26-1.617.418-3.359.468-5.219l3.279.597-.111.75c-.173,3.975-.684,7.231-1.529,9.77-1.22-.651-2.262-1.18-3.132-1.61m13.574-9.877c.274.874.559,2.07.854,3.598.302,1.535.538,3.054.708,4.565l-3.314.932c-.029-1.088-.16-2.425-.392-4.003-.238-1.579-.491-3.005-.765-4.27l2.911-.824-.002.002Zm18.682,8.878c1.171,0,1.992-.028,2.464-.078v4.029c-.448-.047-1.267-.075-2.464-.075h-15.885c-1.194,0-2.026.028-2.495.075v-4.029c.47.05,1.303.078,2.495.078h6.416v-4.697h-4.14c-1.022,0-1.742.014-2.164.036v-3.846c.422.024,1.142.038,2.164.038h4.14v-2.762l-.076-1.267c.547,0,1.301.017,2.254.054.961.042,1.638.085,2.035.132-.052.399-.073.76-.073,1.081v2.762h4.289c.992,0,1.716-.014,2.164-.038v3.846c-.448-.024-1.171-.036-2.164-.036h-4.289v4.697h5.33Zm-16.892-15.551c2.339-.383,4.487-.999,6.451-1.87-.595-.633-1.161-1.352-1.693-2.137-.538-.789-.987-1.568-1.364-2.346-.371-.772-.671-1.443-.895-2.07h-.22l-1.94.035v-3.68l1.94.035h12.155l.373-.43c1.267.918,2.439,1.881,3.506,2.934l-.522.252c-.222.678-.557,1.447-1.006,2.332-.446.881-1.018,1.775-1.716,2.687-.697.907-1.43,1.728-2.198,2.471,1.438.743,3.59,1.352,6.451,1.827-.6,1.44-1.095,2.727-1.492,3.84-1.666-.392-3.161-.833-4.492-1.301-1.331-.474-2.521-1.07-3.565-1.789-.77.515-1.764,1.038-2.982,1.542-1.218.519-2.908,1.055-5.073,1.624-.272-.746-.843-2.061-1.714-3.947m13.389-8.423h-6.902c.397.892.88,1.732,1.437,2.517.56.786,1.188,1.464,1.884,2.056.748-.593,1.43-1.277,2.052-2.073.618-.796,1.129-1.633,1.529-2.5" fill="#00629d"/></g><g><g><path d="m493.481,29.243l-22.778-26.658c-.736-.864-1.617-1.568-3.234-1.568h-13.705c-.682,0-1.072.935-.553,1.568l22.763,26.642-22.744,26.665c-.477.536-.187,1.568.553,1.568h13.705c1.6,0,2.498-.708,3.232-1.568l22.761-26.647v-.002Z" fill="#00629d"/><path d="m515.017,1.017h-13.699c-1.537,0-2.198.387-2.932,1.251l-10.556,12.318,8.748,10.229,18.998-22.229c.529-.715.215-1.568-.557-1.568" fill="#231815"/><path d="m515.552,55.892l-18.977-22.223-8.748,10.24,10.609,12.355c.732.861,1.817,1.195,2.858,1.195h13.705c.727,0,1.06-.975.55-1.568" fill="#231815"/></g><path d="m376.833,57.674c-.63,0-1.183-.234-1.65-.708-.47-.468-.708-1.044-.708-1.718V19.352c0-.682.238-1.237.708-1.718.468-.474,1.02-.715,1.65-.715h5.25c.677,0,1.282.227,1.818.685.541.448.854,1.003.946,1.685l.403,3.904c0,.092.057.139.168.139s.191-.024.238-.071c3.952-3.864,8.106-5.784,12.461-5.784,4.129,0,7.191,1.379,9.194,4.174,1.995,2.785,2.998,6.709,2.998,11.782v21.816c0,.675-.238,1.251-.708,1.718-.472.474-1.024.708-1.648.708h-7.545c-.628,0-1.178-.234-1.647-.708-.474-.468-.71-1.044-.71-1.718v-20.339c0-2.606-.359-4.409-1.079-5.418-.718-1.01-1.884-1.515-3.501-1.515-1.26,0-2.354.245-3.3.739-.942.491-2.044,1.345-3.3,2.563-.135.132-.201.291-.201.47v23.5c0,.675-.234,1.251-.706,1.718-.475.474-1.044.708-1.721.708h-7.408Z" fill="#231815"/><path d="m436.078,58.616c-5.79,0-10.559-1.839-14.31-5.521-3.751-3.68-5.621-8.689-5.621-15.018,0-3.1.526-5.961,1.582-8.586,1.05-2.627,2.443-4.811,4.171-6.544,1.732-1.725,3.708-3.057,5.928-4.032,2.221-.979,4.532-1.44,6.902-1.44,5.486,0,9.655,1.749,12.532,5.248,2.873,3.505,4.31,8.078,4.31,13.734,0,.942-.045,1.888-.135,2.83-.088.718-.406,1.294-.94,1.718-.538.43-1.149.64-1.818.64h-20.344c-.219,0-.311.111-.26.338,1.112,4.846,4.355,7.271,9.692,7.271,2.066,0,4.129-.448,6.196-1.345.585-.316,1.204-.373,1.851-.17.654.203,1.135.573,1.45,1.112l1.751,3.232c.314.583.392,1.202.239,1.853-.16.651-.533,1.152-1.112,1.515-3.822,2.111-7.837,3.161-12.06,3.161l-.002.003Zm-8.217-25.117c0,.132.09.2.274.2h12.724c.232,0,.342-.111.342-.335-.045-2.023-.571-3.616-1.589-4.785-1.006-1.169-2.549-1.749-4.605-1.749-1.752,0-3.286.555-4.587,1.685-1.704,1.478-2.559,3.142-2.559,4.985Z" fill="#231815"/><path d="m535.502,58.616c-4.757,0-8.262-1.352-10.507-4.07-2.245-2.717-3.369-6.524-3.369-11.416v-10.922c0-.179-.085-.267-.264-.267h-2.63c-.675,0-1.247-.238-1.714-.708-.47-.47-.711-1.044-.711-1.718v-4.303c0-.678.241-1.27.711-1.752.468-.508,1.041-.763,1.714-.807l3.3-.278c.227-.047.335-.167.335-.338l.028-3.715c.088-.685.394-1.261.911-1.688.515-.468,1.126-.685,1.848-.685h6.378c.671,0,1.247.224,1.714.715.47.462.708,1.017.708,1.657v3.715c0,.173.092.267.271.267h6.53c.675,0,1.247.246,1.718.701.474.491.706,1.05.706,1.718v4.792c0,.675-.234,1.247-.706,1.718-.47.472-1.043.708-1.718.708h-6.53c-.179,0-.271.088-.271.267v10.79c0,2.061.437,3.591,1.313,4.575.878.989,2.075,1.483,3.604,1.483.406,0,.831-.047,1.28-.135.625-.088,1.221.035,1.785.37.557.335.907.796,1.044,1.379l.94,4.178c.045.224.066.427.066.607,0,.451-.132.878-.401,1.277-.314.586-.807.942-1.48,1.077-2.157.541-4.358.807-6.603.807v.002Z" fill="#231815"/></g></g><path d="m152.648,70.412v15.575h-2.318v-1.142h-8.045v1.183h-2.226v-15.615h12.589v-.002Zm-10.363,6.065h8.045v-3.893h-8.045v3.893Zm8.045,2.137h-8.045v4.056h8.045v-4.056Z" fill="#231815"/><path d="m160.227,80.225c-.182,1.704-.559,3.513-1.088,4.672-.376-.234-1.176-.612-1.646-.776.527-1.07.815-2.687.963-4.206l1.773.309h-.002Zm13.927-9.508c-.651,1.921-1.666,3.46-2.951,4.69,1.084.616,2.337,1.081,3.713,1.376-.449.42-1.032,1.234-1.317,1.742-1.527-.42-2.884-1.013-4.042-1.813-1.232.821-2.627,1.43-4.131,1.905-.234-.494-.722-1.287-1.142-1.742.345.782.633,1.558.746,2.141l-1.525.68c-.052-.267-.121-.576-.234-.918l-.921.071v7.408h-1.867v-7.278l-2.628.163-.18-1.863,1.308-.054c.267-.349.559-.746.848-1.162-.524-.776-1.393-1.738-2.136-2.46l1.031-1.471c.128.108.272.238.416.363.507-.996,1.015-2.193,1.324-3.151l1.867.687c-.652,1.227-1.374,2.627-2.028,3.643.234.252.434.505.612.722.616-1.013,1.197-2.044,1.617-2.934l1.752.817c-.999,1.572-2.243,3.406-3.385,4.874l1.738-.071c-.2-.462-.416-.907-.633-1.305l1.43-.6c.291.508.583,1.084.833,1.667,1.305-.352,2.516-.854,3.604-1.497-.848-.857-1.556-1.837-2.136-2.955l1.159-.383h-2.068v-1.846h7.499l.383-.092,1.447.651-.002-.003Zm-10.247,9.055c.451,1.034.918,2.358,1.123,3.26l-1.596.583c-.163-.904-.632-2.301-1.05-3.371l1.525-.472h-.002Zm6.77,4.081h3.964v1.884h-10.233v-1.884h4.148v-2.125h-3.078v-1.902h3.078v-2.155h2.122v2.155h3.222v1.902h-3.222v2.125h-.002Zm-2.951-11.846c.437.796,1.031,1.525,1.738,2.158.708-.633,1.303-1.362,1.775-2.158h-3.513Z" fill="#231815"/><path d="m186.352,72.388c-.017.038-.036.05-.054.092h3.64c.559,0,1.161-.092,1.575-.22l1.844,1.135c-.193.349-.453.854-.595,1.308-.491,1.61-1.522,4.025-3.151,6.052-1.721,2.098-3.916,3.765-7.316,5.106l-2.139-1.922c3.713-1.105,5.725-2.684,7.299-4.469,1.232-1.423,2.281-3.588,2.573-4.948h-5.09c-1.216,1.575-2.788,3.172-4.566,4.384l-2.026-1.504c3.17-1.938,4.743-4.28,5.651-5.835.271-.455.652-1.28.814-1.905l2.644.878c-.416.626-.887,1.444-1.103,1.846" fill="#231815"/><path d="m201.195,71.859h9.959c.453,0,1.138,0,1.789-.038-.033.545-.033,1.213-.033,1.763v8.871c0,.704.033,2.443.033,2.514h-2.495c0-.035.021-.451.021-.975h-8.734c.019.505.019.921.019.975h-2.498c0-.088.057-1.667.057-2.531v-8.854c0-.512,0-1.254-.038-1.763.739.021,1.43.038,1.921.038m.54,9.813h8.749v-7.509h-8.749v7.509Z" fill="#231815"/><path d="m231.371,73.506c-.614,1.409-1.631,3.352-2.845,4.978,1.792,1.56,3.987,3.879,5.056,5.184l-2.063,1.789c-1.183-1.627-2.863-3.473-4.568-5.12-1.917,2.026-4.327,3.911-6.812,5.087l-1.86-1.959c2.915-1.081,5.72-3.296,7.42-5.191,1.199-1.358,2.302-3.158,2.701-4.442h-6.14c-.762,0-1.756.108-2.137.128v-2.571c.488.071,1.596.125,2.137.125h6.395c.777,0,1.501-.108,1.867-.238l1.482,1.112c-.144.196-.47.756-.633,1.119" fill="#231815"/><path d="m240.089,75.518h11.864c.38,0,1.178-.04,1.65-.111v2.354c-.453-.035-1.143-.054-1.65-.054h-4.365c-.108,1.863-.508,3.388-1.159,4.657-.633,1.251-2.028,2.66-3.64,3.477l-2.122-1.539c1.287-.488,2.556-1.539,3.284-2.592.739-1.123,1.044-2.478,1.119-4.003h-4.981c-.541,0-1.23.042-1.735.075v-2.375c.54.054,1.173.111,1.735.111m2.301-4.619h7.282c.612,0,1.341-.033,1.955-.128v2.339c-.614-.038-1.322-.075-1.955-.075h-7.263c-.633,0-1.397.036-1.957.075v-2.339c.6.095,1.341.128,1.938.128" fill="#231815"/><path d="m263.352,78.995l-2.207.831c-.311-.975-1.211-3.388-1.652-4.178l2.176-.786c.451.928,1.324,3.114,1.685,4.134m8.77-2.45c-.474,1.834-1.232,3.718-2.467,5.307-1.683,2.179-3.947,3.701-6.065,4.497l-1.902-1.935c1.992-.526,4.509-1.902,6.01-3.789,1.234-1.539,2.103-3.951,2.318-6.218l2.537.821c-.217.579-.326.963-.43,1.319m-4.764,1.329l-2.176.76c-.217-.885-1.015-3.078-1.468-4.029l2.157-.697c.344.776,1.232,3.135,1.485,3.968" fill="#231815"/><path d="m285.907,72.388c-.019.038-.035.05-.05.092h3.643c.56,0,1.157-.092,1.572-.22l1.843,1.135c-.196.349-.449.854-.597,1.308-.484,1.61-1.522,4.025-3.144,6.052-1.721,2.098-3.918,3.765-7.32,5.106l-2.139-1.922c3.716-1.105,5.729-2.684,7.297-4.469,1.234-1.423,2.283-3.588,2.571-4.948h-5.089c-1.213,1.575-2.786,3.172-4.563,4.384l-2.028-1.504c3.168-1.938,4.745-4.28,5.653-5.835.271-.455.651-1.28.819-1.905l2.639.878c-.411.626-.887,1.444-1.105,1.846" fill="#231815"/></g><g><g><path d="m173.404,136.562c0,.531-.177.98-.533,1.352-.349.371-.789.555-1.322.555h-11.86c-.18,0-.267.071-.267.212v28.594c0,.493-.187.926-.555,1.296-.37.371-.803.557-1.298.557h-3.968c-.498,0-.928-.186-1.298-.557-.373-.37-.555-.803-.555-1.296v-45.803c0-.531.182-.979.555-1.35.37-.371.8-.553,1.298-.553h17.95c.533,0,.972.182,1.322.553.356.373.533.821.533,1.35v15.089l-.002.002Zm-7.36-11.435c0-.142-.071-.213-.213-.213h-6.14c-.18,0-.267.071-.267.213v1.27c0,.142.088.212.267.212h6.14c.142,0,.213-.069.213-.212v-1.27Zm-6.621,7.835c0,.141.088.212.267.212h6.14c.142,0,.213-.071.213-.212v-1.374c0-.142-.071-.213-.213-.213h-6.14c-.18,0-.267.071-.267.213v1.374Zm37.014-13.394c.529,0,.973.182,1.326.553.352.373.533.821.533,1.35v39.715c0,1.764-.17,3.147-.505,4.154-.335,1.008-.979,1.81-1.931,2.41-1.273.812-3.232,1.272-5.88,1.379h-.054c-.491,0-.935-.177-1.322-.533-.39-.352-.633-.793-.746-1.322-.245-1.237-.597-2.474-1.053-3.709-.036-.068-.078-.108-.135-.108-.05,0-.099.019-.132.054-.423.564-.81,1.112-1.166,1.641-.316.493-.725.838-1.216,1.032-.494.194-.985.203-1.483.028-3.071-1.166-5.595-2.965-7.566-5.401-.108-.106-.213-.106-.319,0-1.874,2.084-4.575,3.812-8.106,5.189-.529.212-1.06.229-1.586.052-.533-.179-.972-.475-1.329-.9-.668-.815-1.358-1.57-2.063-2.28-.21-.208-.319-.456-.319-.741,0-.069.021-.158.057-.264.068-.389.298-.635.685-.739,3.531-1.168,6.001-2.774,7.414-4.818.108-.108.071-.163-.104-.163h-5.984c-.533,0-.98-.182-1.348-.555-.37-.371-.555-.821-.555-1.348v-1.749c0-.527.186-.979.555-1.35.37-.37.817-.555,1.348-.555h7.256c.142,0,.213-.069.213-.21v-1.591c0-.175-.071-.262-.213-.262h-6.513c-.533,0-.982-.184-1.352-.557-.37-.37-.555-.8-.555-1.296v-1.64c0-.494.186-.926.555-1.298.37-.371.821-.555,1.352-.555h1.109c.175,0,.234-.071.163-.213-.142-.389-.285-.76-.427-1.112-.206-.425-.22-.855-.028-1.298.196-.442.505-.734.928-.874l2.439-.689c.529-.141,1.057-.111,1.589.08.529.194.932.54,1.216,1.034.566,1.024.985,1.978,1.27,2.859.035.142.121.213.264.213h4.445c.142,0,.248-.071.319-.213.6-1.728,1.024-3.087,1.273-4.077.035-.142-.036-.212-.213-.212h-.423c-.529,0-.973-.184-1.326-.555s-.529-.821-.529-1.35v-15.302c0-.531.177-.979.529-1.35s.796-.553,1.326-.553h18.318v-.002Zm-8.262,34.68c0,.529-.182.977-.552,1.348-.373.373-.821.555-1.352.555h-6.99c-.035,0-.057.021-.078.056-.017.036-.007.071.028.108,2.013,2.292,4.839,3.862,8.472,4.71.177.036.298.151.37.345.071.193.033.363-.102.501-.04.071-.021.106.05.106h1.749c.319,0,.526-.071.633-.21.106-.142.156-.373.156-.689v-22.187c0-.142-.085-.212-.264-.212h-10.535c-.036,0-.05.019-.05.05l4.554,1.166c.42.106.711.373.871.796.16.422.099.81-.182,1.164-.285.423-.533.795-.746,1.112-.106.142-.071.213.108.213h1.535c.533,0,.979.184,1.348.555s.559.803.559,1.298v1.64c0,.496-.189.926-.559,1.296-.37.373-.817.557-1.348.557h-7.676c-.179,0-.264.088-.264.262v1.591c0,.141.085.21.264.21h8.099c.533,0,.979.186,1.352.555.37.371.552.824.552,1.35v1.749l-.002.004Zm2.382-29.122c0-.142-.085-.213-.264-.213h-6.35c-.142,0-.213.071-.213.213v1.27c0,.142.071.212.213.212h6.35c.179,0,.264-.069.264-.212v-1.27Zm-6.614,6.248c-.142,0-.213.071-.213.213v1.535c0,.142.071.212.213.212h6.35c.179,0,.264-.069.264-.212v-1.535c0-.142-.085-.213-.264-.213h-6.35Z" fill="#231815"/><path d="m253.674,124.807c0,.493-.184.926-.552,1.298-.373.37-.821.555-1.352.555h-12.917c-.179,0-.267.088-.267.265v4.233c0,.179.088.264.267.264h11.224c.494,0,.928.184,1.298.555s.555.803.555,1.298v32.512c0,.529-.186.979-.555,1.348-.37.371-.803.557-1.298.557h-4.235c-.529,0-.982-.186-1.352-.557-.37-.371-.555-.821-.555-1.348v-.743c0-.175-.071-.264-.21-.264h-29.444c-.135,0-.206.088-.206.264v.743c0,.529-.186.979-.555,1.348-.373.371-.824.557-1.348.557h-3.815c-.533,0-.979-.186-1.352-.557s-.552-.821-.552-1.348v-32.512c0-.494.18-.926.552-1.298.373-.371.821-.555,1.352-.555h10.275c.135,0,.206-.087.206-.264v-4.233c0-.179-.071-.265-.206-.265h-12.393c-.533,0-.979-.187-1.348-.555-.376-.371-.559-.805-.559-1.298v-3.813c0-.529.182-.98.559-1.348.37-.37.817-.557,1.348-.557h45.536c.533,0,.979.187,1.352.557.37.37.552.821.552,1.348v3.813h-.003Zm-39.603,32.51c0,.179.071.265.206.265h29.444c.139,0,.21-.088.21-.265v-5.718c0-.139-.071-.191-.21-.158-.529.071-1.145.104-1.853.104h-4.077c-2.93,0-4.856-.583-5.774-1.747-.914-1.164-1.376-3.39-1.376-6.671v-4.237c0-.175-.088-.264-.264-.264h-3.494c-.18,0-.264.09-.264.264-.179,6.39-2.559,11.137-7.15,14.242-.458.283-.953.382-1.48.291-.533-.087-.989-.326-1.376-.715-.637-.562-1.433-1.234-2.386-2.011-.106-.106-.156-.088-.156.054v6.563l-.002.002Zm5.24-18.425c0-.175-.088-.264-.264-.264h-4.768c-.135,0-.206.09-.206.264v8.895c0,.142.071.179.206.106,3.14-2.118,4.818-5.116,5.031-9.001Zm11.173-7.467c.142,0,.213-.087.213-.264v-4.233c0-.179-.071-.265-.213-.265h-3.598c-.18,0-.264.088-.264.265v4.233c0,.179.085.264.264.264h3.598Zm13.24,12.178c.139.071.21.038.21-.104v-4.606c0-.175-.071-.264-.21-.264h-5.297c-.175,0-.26.09-.26.264v4.183c0,.741.05,1.199.156,1.376.104.177.37.265.796.265h1.799c.352,0,.616-.088.793-.265.566-.635,1.074-.953,1.535-.953.177,0,.338.035.477.104Z" fill="#231815"/><path d="m267.448,163.99c-.526,0-.979-.184-1.348-.555s-.555-.821-.555-1.348v-1.749c0-1.235.462-2.276,1.379-3.123,5.151-4.73,9.017-8.774,11.597-12.127,2.575-3.354,3.864-6.336,3.864-8.946,0-1.837-.468-3.248-1.4-4.237-.939-.987-2.219-1.483-3.843-1.483-1.799,0-3.633.867-5.507,2.597-.39.35-.836.529-1.348.529s-.946-.177-1.298-.529l-2.596-2.545c-.387-.389-.583-.838-.583-1.348s.196-.946.583-1.296c1.799-1.697,3.636-2.941,5.507-3.734,1.874-.793,4.056-1.19,6.563-1.19,3.921,0,7.106,1.155,9.563,3.468,2.45,2.313,3.68,5.375,3.68,9.187,0,5.684-4.011,12.566-12.023,20.651,0,.036.01.071.031.108.014.033.04.05.078.05,2.575-.35,4.676-.531,6.296-.531h5.564c.526,0,.968.186,1.326.557.349.37.529.822.529,1.35v4.343c0,.529-.179.979-.529,1.348-.356.371-.8.555-1.326.555h-24.201l-.003-.002Z" fill="#004ea2"/><path d="m323.177,159.252c-2.592,3.654-6.069,5.481-10.431,5.481s-7.828-1.827-10.406-5.481c-2.575-3.654-3.86-8.867-3.86-15.649s1.273-11.921,3.836-15.431c2.559-3.512,6.026-5.269,10.403-5.269s7.865,1.773,10.457,5.321c2.599,3.548,3.893,8.675,3.893,15.379,0,6.78-1.294,11.994-3.893,15.649h.002Zm-12.497-2.594c.583.408,1.263.609,2.04.609s1.457-.2,2.04-.609c.583-.404,1.128-1.097,1.64-2.066.512-.97.902-2.37,1.166-4.207.264-1.837.396-4.095.396-6.78,0-2.642-.132-4.877-.396-6.695-.264-1.818-.654-3.184-1.166-4.103-.512-.918-1.057-1.561-1.64-1.929-.583-.373-1.261-.557-2.04-.557s-1.444.184-2.009.557c-.569.368-1.095,1.011-1.589,1.929-.494.92-.878,2.285-1.138,4.103-.264,1.818-.401,4.053-.401,6.695,0,2.686.135,4.945.401,6.78.26,1.837.633,3.237,1.112,4.207.477.972,1.006,1.662,1.586,2.066h-.002Z" fill="#004ea2"/><path d="m333.426,163.99c-.529,0-.979-.184-1.348-.555-.373-.371-.555-.821-.555-1.348v-1.749c0-1.235.458-2.276,1.376-3.123,5.155-4.73,9.017-8.774,11.597-12.127,2.578-3.354,3.867-6.336,3.867-8.946,0-1.837-.47-3.248-1.404-4.237-.935-.987-2.216-1.483-3.839-1.483-1.799,0-3.64.867-5.507,2.597-.39.35-.84.529-1.352.529s-.946-.177-1.294-.529l-2.599-2.545c-.387-.389-.576-.838-.576-1.348s.189-.946.576-1.296c1.799-1.697,3.64-2.941,5.507-3.734,1.874-.793,4.063-1.19,6.567-1.19,3.921,0,7.103,1.155,9.56,3.468,2.453,2.313,3.68,5.375,3.68,9.187,0,5.684-4.006,12.566-12.02,20.651,0,.036.007.071.028.108.017.033.043.05.078.05,2.578-.35,4.676-.531,6.303-.531h5.557c.533,0,.973.186,1.326.557.352.37.529.822.529,1.35v4.343c0,.529-.177.979-.529,1.348-.352.371-.793.555-1.326.555h-24.198l-.003-.002Z" fill="#004ea2"/><path d="m377.376,164.732c-5.226,0-9.407-1.428-12.547-4.289-.427-.389-.637-.885-.637-1.483,0-.529.16-.987.477-1.376l2.219-3.019c.285-.422.675-.652,1.166-.687.498-.036.939.09,1.329.371,2.294,1.799,4.622,2.701,6.99,2.701,1.905,0,3.413-.397,4.523-1.192s1.671-1.931,1.671-3.416c0-1.73-.597-3.045-1.775-3.944-1.183-.9-3.402-1.419-6.648-1.561-.529-.036-.975-.229-1.348-.583-.37-.35-.555-.796-.555-1.322v-3.019c0-.531.186-.98.555-1.352.373-.371.821-.571,1.348-.609,2.578-.177,4.412-.704,5.51-1.589,1.095-.883,1.643-2.099,1.643-3.654,0-1.374-.39-2.434-1.166-3.175-.779-.743-1.924-1.114-3.442-1.114-1.87,0-3.782.725-5.72,2.172-.423.317-.892.453-1.404.397-.512-.05-.928-.272-1.247-.663l-2.488-3.015c-.356-.389-.505-.84-.448-1.35.05-.514.291-.926.715-1.246,3.491-2.542,7.185-3.812,11.064-3.812,4.239,0,7.601.963,10.087,2.885,2.488,1.924,3.73,4.669,3.73,8.234,0,4.129-2.131,7.077-6.404,8.845-.071.035-.104.095-.104.182s.035.153.104.184c2.332.706,4.192,1.891,5.588,3.55,1.393,1.659,2.087,3.725,2.087,6.194,0,2.434-.685,4.561-2.061,6.381-1.379,1.818-3.178,3.168-5.404,4.049-2.219.883-4.693,1.326-7.412,1.326l.003-.003Z" fill="#004ea2"/></g><rect y="100.788" width="544" height="4.919" fill="#004ea2"/></g></g></g></g></svg>