<svg id="ロゴ" xmlns="http://www.w3.org/2000/svg" width="300" height="32.58" viewBox="0 0 300 32.58">
  <defs>
    <style>
      .cls-1 {
        fill: #231815;
      }

      .cls-2 {
        fill: #004ea2;
      }

      .cls-3 {
        fill: #00629d;
      }
    </style>
  </defs>
  <g id="グループ_135" data-name="グループ 135">
    <g id="グループ_127" data-name="グループ 127" transform="translate(216.94 1.114)">
      <g id="グループ_126" data-name="グループ 126" transform="translate(0.689)">
        <path id="パス_166" data-name="パス 166" class="cls-1" d="M339.862,7.769a.644.644,0,0,1-.181.462.6.6,0,0,1-.452.19h-4.059c-.06,0-.091.024-.091.073V18.28a.65.65,0,0,1-.634.634h-1.359a.651.651,0,0,1-.634-.634V2.6a.631.631,0,0,1,.19-.462.607.607,0,0,1,.444-.19h6.144a.6.6,0,0,1,.452.19.645.645,0,0,1,.181.462V7.769Zm-2.519-3.915a.064.064,0,0,0-.073-.072h-2.1c-.06,0-.091.024-.091.072V4.29c0,.048.031.073.091.073h2.1a.064.064,0,0,0,.073-.073Zm-2.266,2.682c0,.048.031.073.091.073h2.1a.064.064,0,0,0,.073-.073V6.065a.064.064,0,0,0-.073-.073h-2.1c-.06,0-.091.024-.091.073Zm12.667-4.584a.6.6,0,0,1,.454.19.647.647,0,0,1,.181.462V16.2a4.646,4.646,0,0,1-.173,1.422,1.528,1.528,0,0,1-.661.824,4.137,4.137,0,0,1-2.012.471h-.018a.653.653,0,0,1-.452-.181.819.819,0,0,1-.255-.453,8.24,8.24,0,0,0-.362-1.269c-.013-.024-.027-.036-.046-.036a.06.06,0,0,0-.045.018q-.217.29-.4.562a.874.874,0,0,1-.417.353.7.7,0,0,1-.507.009,6.009,6.009,0,0,1-2.59-1.849.068.068,0,0,0-.109,0,7.146,7.146,0,0,1-2.773,1.776.767.767,0,0,1-.543.018.981.981,0,0,1-.453-.308q-.345-.417-.706-.779a.345.345,0,0,1-.109-.253.309.309,0,0,1,.018-.091.3.3,0,0,1,.235-.253,4.774,4.774,0,0,0,2.537-1.649c.037-.037.024-.054-.036-.054h-2.048a.65.65,0,0,1-.653-.653v-.6a.65.65,0,0,1,.653-.653h2.482a.064.064,0,0,0,.073-.073v-.544q0-.09-.073-.09h-2.228a.629.629,0,0,1-.462-.19.606.606,0,0,1-.19-.444v-.562a.608.608,0,0,1,.19-.444.629.629,0,0,1,.462-.19h.38c.061,0,.079-.024.054-.073-.048-.133-.1-.259-.145-.381a.5.5,0,0,1-.009-.444.514.514,0,0,1,.317-.3l.833-.236a.879.879,0,0,1,.543.027.778.778,0,0,1,.417.353,5.614,5.614,0,0,1,.435.979.085.085,0,0,0,.091.073h1.521a.116.116,0,0,0,.109-.073q.308-.888.436-1.395c.012-.048-.013-.073-.073-.073h-.145a.6.6,0,0,1-.454-.19.647.647,0,0,1-.181-.462V2.6a.65.65,0,0,1,.181-.462.6.6,0,0,1,.454-.19h6.269Zm-2.827,11.87a.648.648,0,0,1-.652.653h-2.392a.031.031,0,0,0-.018.055,5.334,5.334,0,0,0,2.9,1.612.166.166,0,0,1,.126.118.153.153,0,0,1-.036.172c-.013.024-.007.037.018.037h.6a.261.261,0,0,0,.217-.073.4.4,0,0,0,.054-.236V8.567c0-.048-.029-.073-.091-.073h-3.606c-.013,0-.018.006-.018.018l1.559.4a.409.409,0,0,1,.3.272.383.383,0,0,1-.063.4c-.1.145-.181.272-.255.381-.036.048-.024.073.037.073h.526a.626.626,0,0,1,.461.19.611.611,0,0,1,.19.444v.562a.609.609,0,0,1-.19.444.626.626,0,0,1-.461.19h-2.628a.08.08,0,0,0-.091.09V12.5c0,.048.029.073.091.073h2.772a.648.648,0,0,1,.652.653v.6Zm.816-9.967c0-.048-.029-.072-.091-.072h-2.173a.064.064,0,0,0-.073.072V4.29a.064.064,0,0,0,.073.073h2.173c.062,0,.091-.024.091-.073Zm-2.264,2.139a.064.064,0,0,0-.073.073v.526a.064.064,0,0,0,.073.073h2.173c.062,0,.091-.024.091-.073V6.066c0-.048-.029-.073-.091-.073Z" transform="translate(-332.45 -1.788)"/>
        <path id="パス_167" data-name="パス 167" class="cls-1" d="M376.826,3.659a.609.609,0,0,1-.19.444.63.63,0,0,1-.462.19h-4.422a.08.08,0,0,0-.091.091V5.834a.08.08,0,0,0,.091.091h3.842a.651.651,0,0,1,.634.634V17.686a.63.63,0,0,1-.19.462.607.607,0,0,1-.444.19h-1.45a.65.65,0,0,1-.653-.653v-.254c0-.061-.024-.091-.072-.091H363.344c-.048,0-.072.03-.072.091v.254a.65.65,0,0,1-.652.653h-1.3a.65.65,0,0,1-.653-.653V6.559a.608.608,0,0,1,.19-.444.628.628,0,0,1,.462-.19h3.515c.048,0,.072-.03.072-.091V4.385c0-.06-.024-.091-.072-.091H360.59a.628.628,0,0,1-.462-.19.607.607,0,0,1-.19-.444v-1.3a.65.65,0,0,1,.653-.653h15.585a.649.649,0,0,1,.652.653v1.3ZM363.272,14.786c0,.06.024.09.072.09H373.42c.048,0,.072-.03.072-.09V12.829c0-.048-.024-.066-.072-.054a4.85,4.85,0,0,1-.634.036h-1.4a2.462,2.462,0,0,1-1.975-.6,3.908,3.908,0,0,1-.471-2.283V8.479a.08.08,0,0,0-.09-.091h-1.2a.08.08,0,0,0-.091.091,5.687,5.687,0,0,1-2.446,4.874.708.708,0,0,1-.507.1.843.843,0,0,1-.471-.245q-.327-.29-.816-.689c-.037-.036-.054-.03-.054.018v2.247Zm1.794-6.306a.08.08,0,0,0-.09-.091h-1.631c-.048,0-.072.03-.072.091v3.044c0,.048.024.061.072.036a3.764,3.764,0,0,0,1.722-3.081Zm3.824-2.555c.048,0,.073-.03.073-.091V4.385c0-.06-.024-.091-.073-.091h-1.232a.08.08,0,0,0-.091.091V5.834a.08.08,0,0,0,.091.091Zm4.531,4.168c.048.024.072.012.072-.036V8.481c0-.06-.024-.091-.072-.091h-1.813a.08.08,0,0,0-.09.091V9.912a1.18,1.18,0,0,0,.054.471c.036.061.126.091.272.091h.616a.368.368,0,0,0,.272-.091.777.777,0,0,1,.526-.326.368.368,0,0,1,.163.036Z" transform="translate(-341.943 -1.702)"/>
        <path id="パス_168" data-name="パス 168" class="cls-2" d="M392.6,17.757a.65.65,0,0,1-.652-.653v-.6a1.4,1.4,0,0,1,.471-1.069,34.745,34.745,0,0,0,3.968-4.15,5.28,5.28,0,0,0,1.323-3.062,2.033,2.033,0,0,0-.48-1.45,1.721,1.721,0,0,0-1.314-.507,2.829,2.829,0,0,0-1.885.888.666.666,0,0,1-.462.181.6.6,0,0,1-.444-.181l-.888-.87a.634.634,0,0,1-.2-.462.576.576,0,0,1,.2-.444A6.464,6.464,0,0,1,394.118,4.1a5.708,5.708,0,0,1,2.247-.408,4.576,4.576,0,0,1,3.271,1.187A4.12,4.12,0,0,1,400.9,8.026q0,2.918-4.114,7.067a.077.077,0,0,0,.01.037.027.027,0,0,0,.027.018,16.626,16.626,0,0,1,2.156-.181h1.9a.6.6,0,0,1,.452.19.643.643,0,0,1,.181.462V17.1a.647.647,0,0,1-.181.462.6.6,0,0,1-.452.19H392.6Z" transform="translate(-352.998 -2.39)"/>
        <path id="パス_169" data-name="パス 169" class="cls-2" d="M417.613,16.137a4.326,4.326,0,0,1-7.13,0,9.21,9.21,0,0,1-1.322-5.355A8.9,8.9,0,0,1,410.475,5.5a4.423,4.423,0,0,1,7.14.018,8.832,8.832,0,0,1,1.332,5.264,9.168,9.168,0,0,1-1.332,5.355Zm-4.277-.888a1.273,1.273,0,0,0,1.395,0,1.943,1.943,0,0,0,.562-.707,4.559,4.559,0,0,0,.4-1.441,16.564,16.564,0,0,0,.136-2.319,16.2,16.2,0,0,0-.136-2.292,4.247,4.247,0,0,0-.4-1.4,1.8,1.8,0,0,0-.562-.661,1.271,1.271,0,0,0-.7-.19,1.227,1.227,0,0,0-.689.19,1.774,1.774,0,0,0-.544.661,4.4,4.4,0,0,0-.389,1.4,16.214,16.214,0,0,0-.136,2.292,16.558,16.558,0,0,0,.136,2.319,5.014,5.014,0,0,0,.38,1.441,1.814,1.814,0,0,0,.543.707Z" transform="translate(-358.944 -2.391)"/>
        <path id="パス_170" data-name="パス 170" class="cls-2" d="M427.086,17.757a.65.65,0,0,1-.652-.653v-.6a1.4,1.4,0,0,1,.471-1.069,34.742,34.742,0,0,0,3.968-4.15A5.28,5.28,0,0,0,432.2,8.225a2.033,2.033,0,0,0-.48-1.45,1.721,1.721,0,0,0-1.314-.507,2.829,2.829,0,0,0-1.885.888.664.664,0,0,1-.462.181.6.6,0,0,1-.444-.181l-.888-.87a.633.633,0,0,1-.2-.462.576.576,0,0,1,.2-.444A6.464,6.464,0,0,1,428.609,4.1a5.708,5.708,0,0,1,2.247-.408,4.576,4.576,0,0,1,3.271,1.187,4.12,4.12,0,0,1,1.259,3.144q0,2.918-4.114,7.067a.077.077,0,0,0,.01.037.027.027,0,0,0,.027.018,16.627,16.627,0,0,1,2.156-.181h1.9a.6.6,0,0,1,.452.19.643.643,0,0,1,.181.462V17.1a.647.647,0,0,1-.181.462.6.6,0,0,1-.452.19h-8.282Z" transform="translate(-364.91 -2.39)"/>
        <path id="パス_171" data-name="パス 171" class="cls-2" d="M448.025,18.013a6.138,6.138,0,0,1-4.295-1.468.656.656,0,0,1-.217-.507.722.722,0,0,1,.163-.471l.761-1.033a.5.5,0,0,1,.4-.236.662.662,0,0,1,.453.127,3.854,3.854,0,0,0,2.392.924,2.619,2.619,0,0,0,1.549-.408,1.349,1.349,0,0,0,.571-1.168,1.592,1.592,0,0,0-.607-1.35,4.291,4.291,0,0,0-2.274-.535.719.719,0,0,1-.462-.2.6.6,0,0,1-.19-.453V10.2a.632.632,0,0,1,.19-.462.7.7,0,0,1,.462-.208,3.426,3.426,0,0,0,1.885-.543,1.518,1.518,0,0,0,.562-1.25,1.431,1.431,0,0,0-.4-1.087,1.646,1.646,0,0,0-1.178-.38,3.281,3.281,0,0,0-1.957.743.661.661,0,0,1-.48.136.607.607,0,0,1-.425-.226l-.852-1.033a.568.568,0,0,1-.154-.462A.587.587,0,0,1,444.164,5a6.336,6.336,0,0,1,3.788-1.3,5.51,5.51,0,0,1,3.452.988A3.352,3.352,0,0,1,452.682,7.5a3.114,3.114,0,0,1-2.193,3.026.074.074,0,0,0,0,.127,3.916,3.916,0,0,1,1.912,1.214,3.187,3.187,0,0,1,.715,2.12,3.513,3.513,0,0,1-.706,2.183,4.215,4.215,0,0,1-1.848,1.386,6.831,6.831,0,0,1-2.537.453Z" transform="translate(-370.809 -2.391)"/>
      </g>
      <rect id="長方形_189" data-name="長方形 189" class="cls-2" width="83.06" height="1.577" transform="translate(0 18.985)"/>
    </g>
    <g id="グループ_134" data-name="グループ 134">
      <g id="グループ_133" data-name="グループ 133">
        <g id="グループ_130" data-name="グループ 130">
          <g id="グループ_128" data-name="グループ 128" transform="translate(55.954)">
            <path id="パス_172" data-name="パス 172" class="cls-1" d="M90.646,5.646a.631.631,0,0,0-.629-.628H86.1a.631.631,0,0,1-.626-.63V1.331A.631.631,0,0,1,86.1.7H99.875a.633.633,0,0,1,.628.63V4.387a.632.632,0,0,1-.628.63H95.958a.631.631,0,0,0-.626.628V21.365a.629.629,0,0,1-.629.626H91.274a.629.629,0,0,1-.626-.626V5.646Z" transform="translate(-85.475 -0.242)"/>
            <path id="パス_173" data-name="パス 173" class="cls-1" d="M114.18,1.331A.632.632,0,0,1,114.808.7H127a.632.632,0,0,1,.628.628V4.244a.632.632,0,0,1-.628.628h-7.537a.631.631,0,0,0-.628.629V8.56a.631.631,0,0,0,.628.629H125.4a.63.63,0,0,1,.627.63v2.91a.63.63,0,0,1-.627.628h-5.937a.629.629,0,0,0-.628.629V17.2a.63.63,0,0,0,.628.628h7.69a.63.63,0,0,1,.628.626v2.91a.629.629,0,0,1-.628.626H114.808a.629.629,0,0,1-.628-.626Z" transform="translate(-95.389 -0.243)"/>
            <path id="パス_174" data-name="パス 174" class="cls-1" d="M173.747,1.331A.631.631,0,0,1,174.373.7H177.8a.631.631,0,0,1,.628.628V8.5a.633.633,0,0,0,.628.629h5.031a.632.632,0,0,0,.628-.629V1.331A.631.631,0,0,1,185.344.7h3.429a.633.633,0,0,1,.629.628V21.366a.63.63,0,0,1-.629.626h-3.429a.628.628,0,0,1-.627-.626V14.076a.629.629,0,0,0-.628-.627h-5.031a.629.629,0,0,0-.628.627v7.291a.629.629,0,0,1-.628.626h-3.428a.628.628,0,0,1-.626-.626Z" transform="translate(-115.962 -0.243)"/>
            <path id="パス_175" data-name="パス 175" class="cls-1" d="M140.233,11.07v-.06c0-6.051,4.233-11.01,10.3-11.01a9.76,9.76,0,0,1,7.473,2.963.6.6,0,0,1,.005.713l-.038.041-1.9,2.354a.749.749,0,0,1-.372.312.642.642,0,0,1-.56-.05c-1.455-1.258-2.622-2.011-4.493-2.011-3.33,0-5.561,3.032-5.561,6.686v.06c0,3.65,2.175,6.635,5.561,6.635,2.169,0,3.2-.82,4.724-2.247a.469.469,0,0,1,.363-.07.648.648,0,0,1,.307.2l2.1,2.29a.484.484,0,0,1,.129.345.572.572,0,0,1-.153.371,9.451,9.451,0,0,1-7.761,3.426c-5.813,0-10.132-4.835-10.132-10.95" transform="translate(-104.387)"/>
          </g>
          <g id="グループ_129" data-name="グループ 129" transform="translate(29.614 0.383)">
            <path id="パス_176" data-name="パス 176" class="cls-3" d="M60.523,11.236,51.929,1.177A1.475,1.475,0,0,0,50.708.585h-5.17a.352.352,0,0,0-.209.592l8.588,10.052L45.335,21.291c-.179.2-.071.59.21.59h5.17a1.488,1.488,0,0,0,1.22-.59l8.587-10.054Z" transform="translate(-45.238 -0.585)"/>
            <path id="パス_177" data-name="パス 177" class="cls-1" d="M75.588.586h-5.17a1.224,1.224,0,0,0-1.106.471L65.329,5.7l3.3,3.86L75.8,1.177c.2-.269.084-.591-.209-.591" transform="translate(-52.177 -0.585)"/>
            <path id="パス_178" data-name="パス 178" class="cls-1" d="M75.792,27.791l-7.161-8.385-3.3,3.864,4,4.662a1.388,1.388,0,0,0,1.078.45h5.17a.35.35,0,0,0,.209-.59" transform="translate(-52.178 -7.085)"/>
          </g>
          <path id="パス_179" data-name="パス 179" class="cls-3" d="M9.264,8.609V18.653l.028.972H7.563v-.986H1.742v.986H0c.018-.374.027-.7.027-.972V8.609c0-.284-.01-.6-.027-.958H9.292q-.028.332-.028.958m-1.7.567H1.742v3.075H7.563V9.176Zm-5.82,7.944H7.563V13.758H1.742Z" transform="translate(0 -2.643)"/>
          <path id="パス_180" data-name="パス 180" class="cls-3" d="M22.218,13.358v5.177a4.259,4.259,0,0,0,.028.6H20.8c.01-.112.014-.314.014-.6V13.5q-.942.113-1.563.155l-.619.1L18.474,12.3a7.219,7.219,0,0,0,.8.015l.338-.015q.492-.565.9-1.13a28.23,28.23,0,0,0-1.943-2.052L19.346,8l.494.5a11.547,11.547,0,0,0,.788-1.255,6.349,6.349,0,0,0,.492-1.039l1.224.8a1.136,1.136,0,0,0-.153.2A23.727,23.727,0,0,1,20.738,9.5c.189.212.367.414.535.622a15.285,15.285,0,0,0,1.562-2.685l1.224.782-.183.216c-.226.382-.5.818-.829,1.316s-.651.954-.964,1.375-.585.784-.809,1.063c.713-.056,1.211-.1,1.491-.139A7.09,7.09,0,0,0,22.371,11l1.1-.309a9.954,9.954,0,0,1,.513,1.3,15.228,15.228,0,0,1,.444,1.582l-1.223.379-.126-.7-.858.113Zm-3.631,4.485a10.014,10.014,0,0,0,.386-1.618,15.049,15.049,0,0,0,.177-1.968l1.237.224-.042.283a13.809,13.809,0,0,1-.576,3.686c-.46-.245-.854-.445-1.182-.607m5.122-3.727a13.017,13.017,0,0,1,.321,1.358q.172.868.268,1.722l-1.251.352a12.622,12.622,0,0,0-.149-1.51c-.09-.6-.185-1.134-.288-1.611l1.1-.311Zm7.049,3.349q.663,0,.93-.028v1.52c-.17-.018-.478-.029-.93-.029H24.765c-.45,0-.765.01-.941.029v-1.52q.265.028.941.028h2.421V15.694H25.623q-.577,0-.816.015V14.258q.238.013.816.013h1.563V13.23l-.029-.479c.206,0,.491.007.851.022s.618.031.768.05a3.157,3.157,0,0,0-.028.408v1.041h1.619q.562,0,.816-.013v1.451q-.253-.015-.816-.015H28.747v1.772h2.012ZM24.385,11.6a9.919,9.919,0,0,0,2.435-.706,6.419,6.419,0,0,1-.64-.806,6.953,6.953,0,0,1-.515-.884,8.244,8.244,0,0,1-.338-.781h-.083l-.731.013V7.045l.731.014H29.83l.141-.163A11.468,11.468,0,0,1,31.293,8l-.2.095a6.695,6.695,0,0,1-1.028,1.893,8.341,8.341,0,0,1-.829.933,8.648,8.648,0,0,0,2.433.689c-.226.543-.412,1.028-.562,1.447a16.516,16.516,0,0,1-1.7-.49,5.826,5.826,0,0,1-1.345-.675,6.559,6.559,0,0,1-1.125.583,14.786,14.786,0,0,1-1.913.612c-.1-.282-.319-.777-.647-1.49m5.052-3.179h-2.6a5.549,5.549,0,0,0,.542.951,4.224,4.224,0,0,0,.711.776,4.634,4.634,0,0,0,.774-.782,4.821,4.821,0,0,0,.577-.944" transform="translate(-6.381 -2.144)"/>
        </g>
        <g id="グループ_132" data-name="グループ 132" transform="translate(141.269 0.382)">
          <g id="グループ_131" data-name="グループ 131" transform="translate(29.618)">
            <path id="パス_181" data-name="パス 181" class="cls-3" d="M276.332,11.235l-8.595-10.06a1.475,1.475,0,0,0-1.22-.592h-5.171a.353.353,0,0,0-.208.592l8.588,10.052L261.144,21.29c-.18.2-.07.59.209.59h5.171a1.484,1.484,0,0,0,1.219-.59l8.589-10.054Z" transform="translate(-261.047 -0.584)"/>
            <path id="パス_182" data-name="パス 182" class="cls-1" d="M291.4.586h-5.17a1.223,1.223,0,0,0-1.107.471L281.138,5.7l3.3,3.86,7.167-8.388c.2-.269.082-.591-.21-.591" transform="translate(-267.986 -0.585)"/>
            <path id="パス_183" data-name="パス 183" class="cls-1" d="M291.6,27.791l-7.16-8.385-3.3,3.864,4,4.662a1.386,1.386,0,0,0,1.079.45h5.17a.35.35,0,0,0,.208-.59" transform="translate(-267.986 -7.085)"/>
          </g>
          <path id="パス_184" data-name="パス 184" class="cls-1" d="M216.693,25.127a.847.847,0,0,1-.623-.266.883.883,0,0,1-.267-.649V10.669a.883.883,0,0,1,.267-.648.853.853,0,0,1,.623-.27h1.982a1.029,1.029,0,0,1,.686.258.963.963,0,0,1,.356.636l.152,1.472c0,.035.022.053.064.053a.13.13,0,0,0,.09-.026,6.694,6.694,0,0,1,4.7-2.183,3.973,3.973,0,0,1,3.469,1.576,7.535,7.535,0,0,1,1.131,4.445v8.232a.881.881,0,0,1-.267.649.847.847,0,0,1-.621.266h-2.848a.847.847,0,0,1-.621-.266.878.878,0,0,1-.267-.649V16.54a3.71,3.71,0,0,0-.407-2.045,1.509,1.509,0,0,0-1.322-.571,2.625,2.625,0,0,0-1.244.279,5.722,5.722,0,0,0-1.246.966.244.244,0,0,0-.075.178v8.867a.91.91,0,0,1-.916.915h-2.795Z" transform="translate(-215.803 -3.75)"/>
          <path id="パス_185" data-name="パス 185" class="cls-1" d="M247.341,25.6a7.391,7.391,0,0,1-5.4-2.083,7.578,7.578,0,0,1-2.121-5.667,8.613,8.613,0,0,1,.6-3.24,7,7,0,0,1,3.811-3.991,6.392,6.392,0,0,1,2.6-.543,5.762,5.762,0,0,1,4.728,1.981,7.91,7.91,0,0,1,1.625,5.182c0,.355-.016.712-.051,1.068a.941.941,0,0,1-.354.648,1.076,1.076,0,0,1-.687.241h-7.676c-.082,0-.117.042-.1.128a3.332,3.332,0,0,0,3.657,2.744,5.8,5.8,0,0,0,2.338-.508.874.874,0,0,1,.7-.064.929.929,0,0,1,.547.42l.661,1.22a.964.964,0,0,1,.09.7.908.908,0,0,1-.419.572,9.269,9.269,0,0,1-4.551,1.193Zm-3.1-9.478c0,.05.034.076.1.076h4.8c.088,0,.129-.042.129-.126a2.743,2.743,0,0,0-.6-1.805,2.171,2.171,0,0,0-1.737-.661,2.563,2.563,0,0,0-1.731.636,2.458,2.458,0,0,0-.966,1.881Z" transform="translate(-224.098 -3.861)"/>
          <path id="パス_186" data-name="パス 186" class="cls-1" d="M304.795,25.291a4.844,4.844,0,0,1-3.964-1.536,6.576,6.576,0,0,1-1.271-4.307V15.327a.089.089,0,0,0-.1-.1h-.992a.912.912,0,0,1-.914-.915V12.687a.916.916,0,0,1,.268-.66.926.926,0,0,1,.647-.3l1.245-.105c.086-.018.127-.062.127-.128l.01-1.4a.962.962,0,0,1,.344-.636.991.991,0,0,1,.7-.259h2.406a.919.919,0,0,1,.915.895v1.4a.09.09,0,0,0,.1.1h2.465a.905.905,0,0,1,.648.264.9.9,0,0,1,.266.649v1.807a.91.91,0,0,1-.915.915h-2.465a.09.09,0,0,0-.1.1V19.4a2.538,2.538,0,0,0,.5,1.726,1.72,1.72,0,0,0,1.359.56,2.5,2.5,0,0,0,.483-.051,1,1,0,0,1,.674.14.8.8,0,0,1,.393.52l.355,1.576a1.159,1.159,0,0,1,.025.229.858.858,0,0,1-.151.482.777.777,0,0,1-.559.407,10.2,10.2,0,0,1-2.491.3Z" transform="translate(-244.037 -3.557)"/>
        </g>
      </g>
      <path id="パス_187" data-name="パス 187" class="cls-1" d="M85.441,40.582V46.46h-.875v-.431H81.532v.445h-.84V40.583h4.749Zm-3.909,2.289h3.035V41.4H81.532Zm3.035.806H81.532v1.531h3.035Z" transform="translate(-27.869 -14.016)"/>
      <path id="パス_188" data-name="パス 188" class="cls-1" d="M91.771,44.074a6.254,6.254,0,0,1-.41,1.762,4.067,4.067,0,0,0-.622-.291,4.958,4.958,0,0,0,.363-1.587l.669.117Zm5.255-3.587a4.326,4.326,0,0,1-1.114,1.769,4.89,4.89,0,0,0,1.4.518,3.2,3.2,0,0,0-.5.659,5,5,0,0,1-1.526-.684,6.1,6.1,0,0,1-1.558.717,3.168,3.168,0,0,0-.431-.656,4.229,4.229,0,0,1,.281.807l-.575.259a2.713,2.713,0,0,0-.088-.346l-.348.027v2.8h-.7V43.606l-.991.062-.068-.7.493-.019c.1-.132.211-.283.321-.44a6.666,6.666,0,0,0-.806-.927l.388-.555c.048.041.1.088.158.137a8.772,8.772,0,0,0,.5-1.189l.7.259c-.247.463-.519.99-.766,1.373.088.1.164.192.231.274.233-.384.451-.772.61-1.107l.662.308c-.377.593-.847,1.284-1.278,1.839l.656-.027c-.075-.174-.157-.344-.239-.494l.54-.226a6.5,6.5,0,0,1,.314.63,5.422,5.422,0,0,0,1.36-.566,4.476,4.476,0,0,1-.806-1.115l.438-.145h-.78v-.7h2.829l.145-.035.546.245ZM93.159,43.9a7.811,7.811,0,0,1,.424,1.231l-.6.22a7.953,7.953,0,0,0-.4-1.272l.575-.179Zm2.555,1.54h1.5v.711H93.349v-.711h1.565v-.8H93.753v-.719h1.161V43.11h.8v.812H96.93v.719H95.715v.8ZM94.6,40.972a3.1,3.1,0,0,0,.656.814,3.414,3.414,0,0,0,.67-.814Z" transform="translate(-31.339 -13.805)"/>
      <path id="パス_189" data-name="パス 189" class="cls-1" d="M105.779,41.179c-.007.014-.013.02-.02.036h1.373a2.21,2.21,0,0,0,.594-.083l.7.428a2.937,2.937,0,0,0-.225.492,7.123,7.123,0,0,1-1.188,2.283,6.408,6.408,0,0,1-2.761,1.928l-.806-.725a5.46,5.46,0,0,0,2.754-1.688,4.872,4.872,0,0,0,.97-1.867h-1.921a7.789,7.789,0,0,1-1.722,1.656l-.765-.569a6.037,6.037,0,0,0,2.131-2.2,3.2,3.2,0,0,0,.307-.719l1,.33c-.157.238-.335.546-.417.7" transform="translate(-35.491 -13.868)"/>
      <path id="パス_190" data-name="パス 190" class="cls-1" d="M115.542,41.41H119.3c.172,0,.429,0,.676-.014-.013.2-.013.458-.013.665v3.347c0,.266.013.92.013.949h-.941c0-.014.008-.172.008-.368h-3.3c.008.19.008.348.008.368h-.943c0-.035.022-.629.022-.956v-3.34c0-.194,0-.473-.014-.665.279.008.539.014.725.014m.2,3.7h3.3V42.278h-3.3Z" transform="translate(-39.653 -14.297)"/>
      <path id="パス_191" data-name="パス 191" class="cls-1" d="M130.715,41.923a10.06,10.06,0,0,1-1.074,1.878,19.244,19.244,0,0,1,1.907,1.955l-.778.676a15.657,15.657,0,0,0-1.724-1.932,8.932,8.932,0,0,1-2.57,1.918l-.7-.738a7.647,7.647,0,0,0,2.8-1.96,5.273,5.273,0,0,0,1.02-1.675h-2.317c-.287,0-.662.041-.806.048v-.97a7.755,7.755,0,0,0,.806.047h2.413a2.48,2.48,0,0,0,.7-.09l.56.418a3.123,3.123,0,0,0-.239.424" transform="translate(-43.44 -14.189)"/>
      <path id="パス_192" data-name="パス 192" class="cls-1" d="M138,42.581h4.476a5.417,5.417,0,0,0,.622-.041v.889c-.17-.014-.431-.02-.622-.02H140.83a4.356,4.356,0,0,1-.437,1.757,3.275,3.275,0,0,1-1.373,1.312l-.8-.581a2.842,2.842,0,0,0,1.239-.978,2.951,2.951,0,0,0,.423-1.51H138c-.2,0-.465.015-.655.028v-.9c.2.02.443.041.655.041m.868-1.741h2.747a5.269,5.269,0,0,0,.738-.048v.882c-.232-.015-.5-.028-.738-.028h-2.74c-.239,0-.527.013-.739.028v-.882a5.2,5.2,0,0,0,.732.048" transform="translate(-47.437 -14.089)"/>
      <path id="パス_193" data-name="パス 193" class="cls-1" d="M150.986,44.519l-.832.312a13.468,13.468,0,0,0-.623-1.575l.821-.3c.17.35.5,1.175.635,1.56M154.3,43.6a5.47,5.47,0,0,1-.93,2,5.317,5.317,0,0,1-2.289,1.7l-.717-.729a4.587,4.587,0,0,0,2.268-1.43,4.672,4.672,0,0,0,.875-2.346l.957.308c-.082.22-.123.363-.163.5m-1.8.5-.821.287a11.663,11.663,0,0,0-.554-1.52l.814-.263c.129.293.464,1.182.56,1.5" transform="translate(-51.645 -14.714)"/>
      <path id="パス_194" data-name="パス 194" class="cls-1" d="M163.161,41.179c-.007.014-.013.02-.019.036h1.375a2.2,2.2,0,0,0,.593-.083l.7.428a2.936,2.936,0,0,0-.226.492,7.114,7.114,0,0,1-1.186,2.283,6.4,6.4,0,0,1-2.762,1.928l-.806-.725a5.435,5.435,0,0,0,2.753-1.688,4.854,4.854,0,0,0,.97-1.867h-1.92a7.785,7.785,0,0,1-1.722,1.656l-.766-.569a6.052,6.052,0,0,0,2.133-2.2,3.429,3.429,0,0,0,.309-.719l1,.33c-.154.238-.334.546-.417.7" transform="translate(-55.309 -13.868)"/>
    </g>
  </g>
</svg>
