<svg xmlns="http://www.w3.org/2000/svg" width="59.188" height="46.75" viewBox="0 0 59.188 46.75">
  <defs>
    <style>
      .cls-1 {
        fill: #fff;
      }
    </style>
  </defs>
  <path id="パス_170" data-name="パス 170" class="cls-1" d="M386.531,48.188q0,9.438-3.422,14.438a12.077,12.077,0,0,1-19.469.141q-3.422-4.859-3.547-13.922V40.25q0-9.406,3.406-14.391a12.123,12.123,0,0,1,19.563-.047q3.406,4.937,3.469,14.094Zm-8.875-9.219a23.159,23.159,0,0,0-1.062-8.062q-1.063-2.687-3.312-2.687-4.219,0-4.375,9.844V49.406a23.323,23.323,0,0,0,1.078,8.188q1.078,2.688,3.359,2.688,2.156,0,3.2-2.516a21.947,21.947,0,0,0,1.109-7.7ZM419.281,67H392.469V60.75l12.313-15.656a34.3,34.3,0,0,0,3.453-5.7,11.406,11.406,0,0,0,1.109-4.7,9.126,9.126,0,0,0-1.047-4.75,3.333,3.333,0,0,0-3.016-1.719,3.879,3.879,0,0,0-3.422,2,10.514,10.514,0,0,0-1.266,5.625h-8.875a16.878,16.878,0,0,1,1.734-7.656,12.952,12.952,0,0,1,4.875-5.391,13.346,13.346,0,0,1,7.109-1.922q6.094,0,9.453,3.359t3.359,9.547a18.217,18.217,0,0,1-1.859,7.8,47.94,47.94,0,0,1-6.734,9.734l-5.844,8.344h15.469Z" transform="translate(-360.094 -20.875)"/>
</svg>
