<svg xmlns="http://www.w3.org/2000/svg" width="51.844" height="46.75" viewBox="0 0 51.844 46.75">
  <defs>
    <style>
      .cls-1 {
        fill: #fff;
      }
    </style>
  </defs>
  <path id="パス_169" data-name="パス 169" class="cls-1" d="M386.531,48.188q0,9.438-3.422,14.438a12.077,12.077,0,0,1-19.469.141q-3.422-4.859-3.547-13.922V40.25q0-9.406,3.406-14.391a12.123,12.123,0,0,1,19.563-.047q3.406,4.937,3.469,14.094Zm-8.875-9.219a23.159,23.159,0,0,0-1.062-8.062q-1.063-2.687-3.312-2.687-4.219,0-4.375,9.844V49.406a23.323,23.323,0,0,0,1.078,8.188q1.078,2.688,3.359,2.688,2.156,0,3.2-2.516a21.947,21.947,0,0,0,1.109-7.7ZM411.938,67h-8.875V32.25l-8.656,3.344V28.219L411,21.438h.938Z" transform="translate(-360.094 -20.875)"/>
</svg>
