<svg xmlns="http://www.w3.org/2000/svg" width="107.559" height="13.148" viewBox="0 0 107.559 13.148">
  <defs>
    <style>
      .cls-1 {
        fill: #004EA2;
      }
    </style>
  </defs>
  <path id="パス_166" data-name="パス 166" class="cls-1" d="M7.638,13.463H3.612v3.393H8.376V19H1.028V6.2h7.33V8.356H3.612V11.38H7.638ZM17.469,10.6,19.192,6.2h2.962l-3.006,6.346L22.224,19h-3l-1.758-4.474L15.72,19h-3L15.8,12.549,12.785,6.2h2.962ZM36.107,19H33.532V13.524H29.718V19H27.134V6.2h2.584V11.38h3.814V6.2h2.575Zm8.372,0H41.9V6.2H44.48Zm5.771,0V6.2h3.955a4.563,4.563,0,0,1,3.045.892A3.253,3.253,0,0,1,58.293,9.71a3.152,3.152,0,0,1-.431,1.679,2.542,2.542,0,0,1-1.178,1.028,2.238,2.238,0,0,1,1.327.989,3.385,3.385,0,0,1,.466,1.833,3.65,3.65,0,0,1-1.024,2.813A4.211,4.211,0,0,1,54.487,19Zm2.584-5.563v3.419h1.652a1.3,1.3,0,0,0,1.055-.431A1.853,1.853,0,0,0,55.9,15.2q0-1.723-1.248-1.767Zm0-1.881h1.345A1.368,1.368,0,0,0,55.7,9.982a1.805,1.805,0,0,0-.352-1.248,1.5,1.5,0,0,0-1.143-.378H52.835ZM66.647,19H64.063V6.2h2.584ZM80.706,8.356H77.542V19H74.95V8.356H71.838V6.2h8.868Zm13.848,5.4a5.969,5.969,0,0,1-1.217,4,4.208,4.208,0,0,1-3.379,1.424,4.256,4.256,0,0,1-3.384-1.411,5.882,5.882,0,0,1-1.248-3.951V11.626a6.292,6.292,0,0,1,1.222-4.118,4.624,4.624,0,0,1,6.759-.026,6.2,6.2,0,0,1,1.248,4.083Zm-2.593-2.145a5.255,5.255,0,0,0-.492-2.575A1.818,1.818,0,0,0,88.42,9a4.993,4.993,0,0,0-.51,2.474v2.276a4.759,4.759,0,0,0,.5,2.474,1.7,1.7,0,0,0,1.547.8,1.656,1.656,0,0,0,1.5-.778,4.667,4.667,0,0,0,.5-2.413Zm11.923,2.716H102.6V19h-2.584V6.2h4.122a4.187,4.187,0,0,1,3,1.006A3.758,3.758,0,0,1,108.2,10.07a3.722,3.722,0,0,1-1.854,3.568l2.241,5.238V19H105.81ZM102.6,12.171h1.468a1.359,1.359,0,0,0,1.16-.514,2.234,2.234,0,0,0,.387-1.375q0-1.925-1.5-1.925H102.6Z" transform="translate(-1.028 -6.027)"/>
</svg>
