<svg xmlns="http://www.w3.org/2000/svg" width="381.99" height="362.87" viewBox="0 0 381.99 362.87">
  <defs>
    <style>
      .cls-1 {
        isolation: isolate;
      }

      .cls-2 {
        mix-blend-mode: overlay;
      }

      .cls-3 {
        fill: #fff;
      }
    </style>
  </defs>
  <title>sown_logo</title>
  <g class="cls-1">
    <g id="レイヤー_1" data-name="レイヤー 1">
      <g class="cls-2">
        <g>
          <path class="cls-3" d="M121.05.67H104.11Q90.26.67,90.25,11.41v1.92c0,.76,0,1.91,0,3.47q0,9.86,11.41,9.85h15.76c2.81,0,4.2,1.29,4.2,3.83q0,5.34-4.14,5.34h-7.27l-7.51,0q-3.9,0-3.9-3.85V29.92h-9v4.92q0,9.23,9.75,9.24l10.7,0h10.63q9.8,0,9.79-10.11v-6.5q0-10.25-11.93-10.25H102.91c-2.42,0-3.62-1.29-3.62-3.88,0-2.94,1.32-4.42,4-4.42H117c2.73,0,4.12,1.56,4.15,4.66h9c0-4.8-.72-8.18-2.13-10.11s-3.69-2.79-7-2.79"/>
          <polyline class="cls-3" points="191.46 0.63 153.59 0.65 153.62 44.07 162.65 44.07 192.46 44.05 192.46 35.81 162.63 35.81 162.63 26.48 188.93 26.48 188.93 18.21 162.63 18.23 162.63 8.89 191.46 8.88 191.46 0.63"/>
          <polyline class="cls-3" points="255.74 0.62 246.76 0.62 246.78 31.43 224.88 0.62 214.87 0.63 214.88 44.05 223.86 44.04 223.84 12.97 246.58 44.04 255.75 44.02 255.74 0.62"/>
          <path class="cls-3" d="M310.26.58c-4.49,0-8.08,0-10.75,0H293.4c-9.22,0-13.85,3.59-13.83,10.75v5.39c0,6.57,3.79,9.85,11.41,9.85h15.71c2.84,0,4.25,1.26,4.25,3.83,0,3.57-1.38,5.34-4.14,5.34h-7.27c-1.48,0-4,0-7.51,0-2.6,0-3.9-1.29-3.9-3.85V29.85l-9,0v4.92q0,9.23,9.75,9.23h21.33c6.52,0,9.8-3.38,9.79-10.12V27.4Q320,17.16,308,17.14H292.21c-2.42,0-3.62-1.28-3.62-3.88,0-2.94,1.32-4.41,4-4.41h13.69c2.73,0,4.12,1.54,4.15,4.66h9c0-4.81-.72-8.19-2.13-10.12S313.57.58,310.26.58"/>
          <polyline class="cls-3" points="380.76 0.57 342.89 0.58 342.92 44.01 351.94 43.99 381.76 43.99 381.76 35.74 351.93 35.74 351.93 26.41 378.23 26.41 378.23 18.15 351.93 18.16 351.93 8.83 380.76 8.81 380.76 0.57"/>
          <path class="cls-3" d="M105.44,112.85q-7.81,0-7.89-8.09V94c0-5.33,2.63-8,7.89-8H116c5.19,0,7.81,2.7,7.84,8,0,1.8,0,3.58,0,5.39v5.39q0,8.1-7.89,8.1H105.44m14.11-35.18-8.83,0h-8.91q-13.29,0-13.28,13v8.71c0,2.84,0,5.73,0,8.67q0,13,13.27,13.07c2.94,0,5.91,0,8.93,0h8.82q13.26,0,13.32-13.08V99.36c0-2.91,0-5.81,0-8.72q0-13-13.33-13"/>
          <polyline class="cls-3" points="190.71 77.65 152.37 77.67 152.39 121.09 161.41 121.08 161.41 103.5 186.99 103.48 186.98 95.23 161.41 95.25 161.4 85.92 190.71 85.9 190.71 77.65"/>
          <polyline class="cls-3" points="137.32 157.34 127.99 157.35 123.49 191.59 116.51 157.35 106.71 157.35 99.68 191.59 95.2 157.37 85.87 157.37 92.95 200.78 105.28 200.78 111.6 169.71 117.94 200.78 130.28 200.76 137.32 157.34"/>
          <path class="cls-3" d="M162.26,192.5c-5.2,0-7.81-2.71-7.84-8.09V173.62q0-8,7.87-8h10.53c5.23,0,7.84,2.67,7.89,8V184.4q0,8.1-7.89,8.1H162.26m14.13-35.18c-2.93,0-5.87,0-8.81,0h-8.93c-8.84,0-13.28,4.33-13.26,13v17.38q0,13.08,13.28,13.07c2.94,0,5.92,0,8.93,0h8.81q13.29,0,13.33-13.08V170.29q0-13-13.35-13"/>
          <polyline class="cls-3" points="238.69 157.31 229.72 157.31 229.73 188.11 207.84 157.32 197.82 157.32 197.84 200.74 206.81 200.73 206.8 169.66 229.54 200.73 238.72 200.71 238.69 157.31"/>
          <path class="cls-3" d="M253.77,192.3V165.49h16.29q8.77,0,8.77,7.4v12c0,4.9-2.91,7.37-8.75,7.37h-16.3m18.83-35h-.06l-27.81,0,0,43.4h9l18.78,0q15.31,0,15.31-12c0-3.63,0-6.88,0-9.75v-9.8q0-11.86-15.24-11.87"/>
          <polyline class="cls-3" points="333.12 157.26 295.25 157.27 295.28 200.69 304.3 200.69 334.12 200.68 334.12 192.43 304.29 192.43 304.29 183.1 330.58 183.08 330.58 174.84 304.29 174.85 304.29 165.52 333.12 165.5 333.12 157.26"/>
          <path class="cls-3" d="M350.14,176.61V165.5h19.2c2.42,0,3.62,1.85,3.64,5.55s-1.22,5.52-3.64,5.55h-3.64l-15.55,0m21.2-19.37h-5.65l-24.59,0,0,43.42,9,0V184.85h15.57a12.26,12.26,0,0,1,5.23,1,3.52,3.52,0,0,1,2,3.26v11.57h9V189.09a8.9,8.9,0,0,0-3.12-6.59q3.12-2.7,3.12-8.72V171c0-.94,0-1.87,0-2.81q0-10.93-10.64-11"/>
          <polyline class="cls-3" points="130.2 237.02 121.22 237.02 121.24 267.83 99.34 237.04 89.32 237.04 89.34 280.46 98.32 280.46 98.3 249.38 121.04 280.44 130.22 280.44 130.2 237.02"/>
          <polyline class="cls-3" points="170.19 237.01 161.17 237.02 161.19 280.43 170.21 280.43 170.19 237.01"/>
          <path class="cls-3" d="M229.39,237l-8.83,0h-8.91q-13.29,0-13.28,13v17.38q0,13.08,13.3,13.07l8.92,0h8.92Q243,280.41,243,270V255.51l-22.4,0v7.61h14v3.57c0,3.64-2.81,5.45-8.46,5.45h-5.55l-5.29,0c-5.21,0-7.84-2.69-7.88-8.1,0-1.8,0-3.59,0-5.39v-5.4q0-8,7.89-8H225.9c5.16,0,7.76,1.32,7.79,3.93v2.71l9,0v-6q0-8.94-13.33-8.93"/>
          <polyline class="cls-3" points="312.86 236.97 303.83 236.97 303.83 254.41 281.01 254.41 281.01 236.99 271.99 236.99 272 280.41 281.03 280.39 281.03 262.65 303.85 262.65 303.85 280.39 312.87 280.38 312.86 236.97"/>
          <polyline class="cls-3" points="380.87 236.96 356.12 236.96 340 236.97 340 245.22 356.13 245.2 356.15 280.38 365.17 280.38 365.16 245.2 380.87 245.2 380.87 236.96"/>
          <path class="cls-3" d="M60.45,282.44H5.55V362h54.9v-79.6M66,0H0V148.91L9.87,260.62H56.44L66,148.91V0"/>
          <path class="cls-3" d="M116.81,316.56H102.49q-13.23,0-13.23,8.07v7.71H101.6v-5.93c0-2.12,1.55-3.2,4.67-3.2h6.14q4.66,0,4.67,2.63v3.35c0,3.5-3.86,6.28-11.62,8.34Q88.9,342,88.81,353.8v6.65H130V353.8H101.14q0-7.46,12-10.91,16.29-4.63,16.3-13.7v-5.55q0-7.09-12.61-7.08"/>
          <path class="cls-3" d="M190.66,353.8c-3.24,0-4.87-.93-4.87-2.78V326.25c0-2,1.59-3,4.78-3h6.49c3.24,0,4.85,1,4.85,3V351c0,1.82-1.61,2.74-4.85,2.78h-6.4m10.89-37.24h-15.3q-13,0-13,8.34v27.63q0,7.91,12.61,7.92h15.4q13.05,0,13.15-8V324.22q0-7.62-12.89-7.66"/>
          <polyline class="cls-3" points="287.67 316.56 265.41 316.56 265.41 323.21 275.13 323.21 275.13 360.45 287.67 360.45 287.67 316.56"/>
          <g>
            <path class="cls-3" d="M360.83,360.71h-.74c-10.11,0-18.25-5.41-18.25-13.14,0-4.71,3.05-8.48,7.73-10.68-3.78-2-6.16-5.16-6.16-9.11,0-7.11,7.48-12.38,16.77-12.38h.57c9.29,0,16.77,5.27,16.77,12.38,0,4-2.38,7.1-6.16,9.11,4.68,2.2,7.72,6,7.72,10.68C379.08,355.3,371,360.71,360.83,360.71Zm.09-21.5H360c-5.75.63-10.19,4.09-10.19,8.36s3.62,8.11,10.27,8.11h.74c6.66,0,10.28-3.77,10.28-8.11S366.67,339.84,360.92,339.21Zm-.17-18.79h-.57c-6.17,0-8.8,3.65-8.8,7.36s3.45,6.34,8.8,6.91h.57c5.43-.76,8.8-3.27,8.8-6.91S366.83,320.42,360.75,320.42Z"/>
            <path class="cls-3" d="M360.83,362.87h-.74c-11.64,0-20.41-6.57-20.41-15.3a13.2,13.2,0,0,1,5.84-10.81,11.62,11.62,0,0,1-4.28-9c0-8.16,8.32-14.55,18.94-14.55h.57c10.62,0,18.94,6.39,18.94,14.55a11.59,11.59,0,0,1-4.29,9,13.19,13.19,0,0,1,5.85,10.81C381.25,356.3,372.47,362.87,360.83,362.87Zm-.65-45.31c-8.19,0-14.61,4.49-14.61,10.22,0,3.74,2.73,6,5,7.19l3.83,2-3.93,1.84c-2.42,1.14-6.48,3.78-6.48,8.72,0,6.25,6.92,11,16.08,11h.74c9.17,0,16.09-4.72,16.09-11,0-4.94-4.06-7.58-6.48-8.72L366.51,337l3.83-2c2.29-1.21,5-3.45,5-7.19,0-5.73-6.41-10.22-14.6-10.22Zm.65,40.29h-.74c-8.54,0-12.44-5.33-12.44-10.28,0-5.32,5.1-9.74,12.13-10.51h1.37c7,.77,12.13,5.19,12.13,10.51C373.28,352.52,369.38,357.85,360.83,357.85Zm-.7-16.47c-4.65.55-8.14,3.19-8.14,6.19,0,3.55,3.25,5.94,8.1,5.94h.74c4.85,0,8.11-2.39,8.11-5.94,0-3-3.49-5.64-8.15-6.19Zm.77-4.52H360c-6.52-.69-10.74-4.25-10.74-9.07s3.39-9.52,11-9.52h.57c7.54,0,11,4.93,11,9.52,0,4.74-4,8.13-10.67,9.06Zm-.61-4.34h.31c1.77-.26,6.78-1.31,6.78-4.74,0-2.51-1.74-5.19-6.63-5.19h-.57c-4.15,0-6.63,1.94-6.63,5.19C353.55,330.2,356.19,332.06,360.29,332.52Z"/>
          </g>
        </g>
      </g>
    </g>
  </g>
</svg>
