<svg id="レイヤー_1" data-name="レイヤー 1" xmlns="http://www.w3.org/2000/svg" width="300" height="24" viewBox="0 0 253.56 19.97"><defs><style>.cls-1{fill:#fff;}</style></defs><title>アートボード 4</title><path class="cls-1" d="M15.51,16.06v3.38H0V.53H15.19V3.91H4.32V8.16h9.6V11.4H4.32v4.66Z"/><path class="cls-1" d="M28.66,14.47,33.43.53h4.49L30.74,19.44H26.59L19.42.53H23.9Z"/><path class="cls-1" d="M58.08,16.06v3.38H42.58V.53H57.77V3.91H46.9V8.16h9.6V11.4H46.9v4.66Z"/><path class="cls-1" d="M76.68,19.44,67.13,6.58l.14,12.86H63V.53h4.11l9.55,12.86L76.54.53h4.25V19.44Z"/><path class="cls-1" d="M96,19.44H91.68V4.06H85.3V.53h17.11V4.06H96Z"/><path class="cls-1" d="M126.19,20c-4.87,0-9.5-3.29-9.5-10s4.63-10,9.5-10,9.51,3.24,9.51,10S131,20,126.19,20Zm-5.06-10c0,5.33,3.17,6.39,5.06,6.39,1.68,0,5.07-.84,5.07-6.39s-3.32-6.38-5.07-6.38S121.13,4.51,121.13,10Z"/><path class="cls-1" d="M144.91.53V12.41c0,3,2.5,4,4.51,4,3.7,0,4.64-2.33,4.64-4V.53h4.29V12.14c0,5.24-3.53,7.83-8.78,7.83-4.18,0-9-1.61-9-7.83V.53Z"/><path class="cls-1" d="M173.59,19.44h-4.34V4.06h-6.39V.53H180V4.06h-6.39Z"/><path class="cls-1" d="M184.51,19.44V.53h4.32V15.91h9.7v3.53Z"/><path class="cls-1" d="M208.44,19.44H204V.53h4.47Z"/><path class="cls-1" d="M228.26,19.44,218.71,6.58l.14,12.86h-4.24V.53h4.1l9.55,12.86L228.12.53h4.25V19.44Z"/><path class="cls-1" d="M253.56,16.06v3.38H238.05V.53h15.2V3.91H242.37V8.16H252V11.4h-9.61v4.66Z"/></svg>