<svg xmlns="http://www.w3.org/2000/svg" viewBox="0 0 744.6 261.34"><defs><style>.cls-1{fill:#d32f2f;}.cls-2{fill:#231815;}.cls-3{fill:#fff;}</style></defs><title>h1_img_smp</title><g id="レイヤー_2" data-name="レイヤー 2"><g id="レイヤー_1-2" data-name="レイヤー 1"><path class="cls-1" d="M631.48,134.06l-474.16-.18-11.81,22.65L134,133.88H.24V261.34H568.16c36.66,0,63.32-26.48,63.32-63.59Z"/><path class="cls-2" d="M430.54,217.88l15-16.59c4.19-4.83,6.45-8.77,6.45-13.13,0-4-2.26-7.17-8.14-7.17-5.15,0-8.29,1.37-12.24,3.87l-.56-.24v-10c3.62-2.34,8.21-3.79,15.3-3.79,11.36,0,18.68,5.72,18.68,16,0,7.32-4,13.28-9.82,19.81l-9.26,9.83,8.77-.73h11v9.5h-35.2Z"/><path class="cls-2" d="M472.27,198.31c0-17.55,9.66-27.46,23.36-27.46s23.19,9.91,23.27,27.46-9.5,27.95-23.27,27.95S472.35,215.86,472.27,198.31Zm33,0q0-17.64-9.66-17.64c-6.36,0-9.67,5.88-9.67,17.64s3.31,18,9.67,18S505.29,210.15,505.29,198.31Z"/><path class="cls-2" d="M537.28,225.29V185.18l-10,6.45-.48-.25V180.43l14-9h9.58v53.88Z"/><path class="cls-2" d="M563.94,223.68V213.45l.57-.24a19.38,19.38,0,0,0,11,3.14c8.62,0,13.13-3.54,14.17-14.33-2.33,2-6.12,3.7-11.76,3.7-9.1,0-16.59-5.32-16.59-16.91,0-10.23,7.34-18,20.06-18,13.45,0,21.59,8.69,21.59,25.37,0,21.5-10.56,30-26.1,30C571.59,226.26,567.16,225.37,563.94,223.68Zm26-29.07c-.33-10.24-2.9-14.34-8.3-14.34-5.16,0-7.49,3.46-7.49,8.62,0,5.72,2.66,8.3,8,8.3A13.27,13.27,0,0,0,590,194.61Z"/><path class="cls-3" d="M14.32,147.43H78.08v18.5H39.42v21.31h33.2v18.21H39.42v23.8H78.64V247.9H14.32Z"/><path class="cls-3" d="M120.66,247.9H97.31v-1l31-52.13-28.8-46.27v-1h27.91L139.58,169l5.76,13.51,6-13.51,12.5-21.6h23.21v1l-28.51,46.86,31.59,51.54v1H162.25l-14.74-26-6-14.41-6.19,14.41Z"/><path class="cls-3" d="M234.94,213.52V247.9H209.85V147.43H246c24.51,0,39.93,10.56,39.93,33.49,0,22.18-15.42,32.6-38.74,32.6Zm0-47.59v30h11c11.42,0,16-5,16-15.29s-5.3-14.68-16.48-14.68Z"/><path class="cls-3" d="M301,197.36c0-29.8,21-52,52.71-52,31.89,0,52.76,22.2,52.76,52S385.64,250,353.75,250C322,250,301,227.05,301,197.36Zm79.47,0c0-20.13-10.28-32.74-26.76-32.74-16.29,0-26.69,12.61-26.69,32.74s10.08,33.19,26.69,33.19S380.51,217.36,380.51,197.36Z"/><polygon points="311.71 21.3 311.71 100.06 284.18 100.06 284.18 21.3 258.06 21.3 258.06 0 337.82 0 337.82 21.3 311.71 21.3"/><path d="M392.56,65H381.34v35H354.22V0h39.46c26.09,0,39.45,11.68,39.45,31.69,0,13.07-6,22.26-16.19,26.79L439,98.67v1.39H411ZM381.34,19.23V46.31h9.9c11.5,0,15.92-5,15.92-13.93,0-9.22-4.83-13.15-16.33-13.15Z"/><polygon points="454 0 519.28 0 519.28 19.75 481.14 19.75 481.14 39.05 513.75 39.05 513.75 58.65 481.14 58.65 481.14 80.35 520 80.35 520 100.06 454 100.06 454 0"/><polygon points="613.81 101.96 564.11 45.06 564.11 100.88 540.71 100.88 540.71 0 557.01 0 606.13 56.25 606.13 1.01 629.55 1.01 629.55 101.96 613.81 101.96"/><path d="M651.55,0h36c32.25,0,57.09,14.73,57.09,50.83,0,36.29-24.84,49.81-57.09,49.81h-36ZM678.9,20.3V80.37h7.17c18.28,0,30.57-7.11,30.57-29.54,0-22-12.29-30.53-30.57-30.53Z"/><path d="M50.45,77.7l.13,5.58H40v-4.9H10.6v4.9H0c0-1.55.1-3.61.1-5.58v-53c0-2-.09-4.09-.1-5.56H50.58c-.06,1.85-.13,3.57-.13,5.56ZM10.6,43.41H40V28.51H10.6ZM40,52.73H10.6V68.94H40Z"/><path d="M85,80.09c0,1.12,0,2.38.06,3.36H76.2a25.88,25.88,0,0,0,.14-3.36V53.74c-3.06.31-5.8.5-7.6.69-.87.08-2.51.33-3.5.53l-1.1-8.55c1,.06,2.91.06,4.54,0a13,13,0,0,0,1.86-.1c1.34-1.54,2.74-3.28,4.17-5.14-3.27-3.79-6.84-7.51-10.11-10.62l4.61-7.07c.66.65,1.48,1.57,2.3,2.46,2.82-4,5.59-8.86,6.48-11.69l7.51,4.43c-.29.24-.65.88-.88,1.12A97.14,97.14,0,0,1,76.87,32c.84,1,1.63,1.95,2.38,2.9,3.86-5.4,7.08-10.79,8.32-14l7.36,4.39a7.2,7.2,0,0,1-1,1.23A233.85,233.85,0,0,1,80.28,45.71c2.4-.21,4.77-.44,6.78-.67a53.85,53.85,0,0,0-1.85-5.59l6.54-1.7a101.63,101.63,0,0,1,4.76,16.06c-2.16.7-5,1.54-7.21,2.1-.13-1-.37-2.22-.6-3.41-1.13,0-2.37.23-3.71.33ZM67.42,57.47c2.37.37,5.21.84,7.13,1.2a14.79,14.79,0,0,1-.22,1.48c-.2,8.19-1,14.12-2.52,19.73-1.27-.52-4.76-1.88-7.14-2.76,1.78-5.07,2.6-11.76,2.75-19.65m62.14,16c2.06,0,3.79,0,5.18-.15v9.23c-1.39-.14-3.12-.14-5.18-.14H98c-2,0-3.78,0-5.27.14V73.41l-4.18,1.17a101.16,101.16,0,0,0-2-16.52L93,56.37a110.09,110.09,0,0,1,2.91,16.12,25,25,0,0,1-2.83.82c1.38.15,3.11.15,5,.15h12v-8.1h-7.58c-1.8,0-3.19,0-4.53.06v-8.6c1.34,0,2.73,0,4.53,0H110V52.24c0-.65-.06-2-.13-2.63,2.14,0,8,.19,10,.36-.06.66-.14,1.62-.14,2.27v4.62h8c1.78,0,3.26,0,4.51,0v8.6c-1.25-.06-2.73-.06-4.51-.06h-8v8.1Zm-22-34.21a34.16,34.16,0,0,1-7.52-12.43c-1.42,0-2.77,0-3.85.07V18.34c1.19.07,2.58.07,4.07.07h24.26l.67-.76a69.93,69.93,0,0,1,7.83,6.48c-.32.23-.79.37-1.14.6-1.76,6.1-5.49,10.94-9.29,14.72a52.72,52.72,0,0,0,12.11,3.16c-1.11,2.58-2.82,6.85-3.5,8.94-5.56-1.37-11.35-3.08-15.89-6-4.46,2.81-10,4.47-15.7,6-.77-2.19-2.84-6.51-4.09-9.26a48.48,48.48,0,0,0,12-3m14.22-12.43H109.3a22.41,22.41,0,0,0,6,8.1,21.81,21.81,0,0,0,6.54-8.1"/><polygon class="cls-1" points="158.55 100.28 162.73 100.28 217.76 0 213.61 0 158.55 100.28"/><polygon class="cls-1" points="165.5 100.28 169.69 100.28 224.72 0 220.56 0 165.5 100.28"/><polygon class="cls-1" points="172.48 100.28 176.63 100.28 231.72 0 227.56 0 172.48 100.28"/><polygon class="cls-1" points="179.44 100.28 183.59 100.28 238.68 0 234.54 0 179.44 100.28"/><polygon class="cls-1" points="186.42 100.28 190.57 100.28 245.64 0 241.49 0 186.42 100.28"/><polygon class="cls-1" points="175.85 25.11 185.79 43.72 187.17 40.77 178.57 25.11 180.85 25.11 188.27 38.56 189.48 35.85 183.54 25.11 185.8 25.11 190.56 33.74 198.63 16.67 189.5 0 157.1 0 183.31 49.01 184.52 46.28 173.61 25.11 175.85 25.11"/><polygon class="cls-1" points="219.51 100.28 222.22 100.28 208.99 76.24 207.73 78.85 219.51 100.28"/><polygon class="cls-1" points="214.69 100.28 217.38 100.28 206.77 80.95 205.53 83.68 214.69 100.28"/><polygon class="cls-1" points="210.07 74.08 224.47 100.28 227.18 100.28 211.31 71.37 210.07 74.08"/><polygon class="cls-1" points="212.69 68.6 229.44 100.28 247.08 100.28 220.87 51.31 212.69 68.6"/></g></g></svg>