<svg xmlns="http://www.w3.org/2000/svg" viewBox="0 0 969.93 78.97"><defs><style>.cls-1{fill:#221714;}.cls-2{fill:#d32f2f;}.cls-3{fill:#231815;}.cls-4{fill:#fff;}</style></defs><title>h1_img</title><g id="レイヤー_2" data-name="レイヤー 2"><g id="レイヤー_1-2" data-name="レイヤー 1"><polygon class="cls-1" points="236.7 17.71 236.7 77.52 215.8 77.52 215.8 17.71 195.96 17.71 195.96 1.54 256.52 1.54 256.52 17.71 236.7 17.71"/><path class="cls-1" d="M298.1,50.91h-8.53V77.52H269v-76h30c19.82,0,30,8.86,30,24.06,0,9.92-4.54,16.91-12.3,20.35l16.79,30.51v1.06H312.07Zm-8.53-34.77V36.7h7.52c8.73,0,12.09-3.79,12.09-10.57,0-7-3.67-10-12.41-10Z"/><polygon class="cls-1" points="344.75 1.54 394.31 1.54 394.31 16.54 365.35 16.54 365.35 31.19 390.12 31.19 390.12 46.07 365.35 46.07 365.35 62.55 394.86 62.55 394.86 77.52 344.75 77.52 344.75 1.54"/><polygon class="cls-1" points="466.1 78.97 428.36 35.76 428.36 78.14 410.58 78.14 410.58 1.54 422.97 1.54 460.27 44.25 460.27 2.31 478.05 2.31 478.05 78.97 466.1 78.97"/><path class="cls-1" d="M494.76,1.54h27.3c24.49,0,43.35,11.18,43.35,38.59S546.55,78,522.06,78h-27.3ZM515.53,17V62.57H521c13.87,0,23.21-5.4,23.21-22.44C544.18,23.46,534.84,17,521,17Z"/><path class="cls-1" d="M38.31,60.53l.1,4.25H30.35V61.06H8.05v3.72H0C0,63.6.08,62,.08,60.53V20.32c0-1.5-.07-3.1-.08-4.22H38.41c0,1.41-.1,2.72-.1,4.22ZM8.05,34.5h22.3V23.19H8.05Zm22.3,7.08H8.05V53.89h22.3Z"/><path class="cls-1" d="M64.53,62.35c0,.85,0,1.81,0,2.56H57.87a21.08,21.08,0,0,0,.1-2.56v-20c-2.32.23-4.4.38-5.77.52-.66.06-1.91.25-2.65.4l-.84-6.49c.74,0,2.2,0,3.44,0a9.52,9.52,0,0,0,1.42-.08c1-1.17,2.08-2.49,3.16-3.9-2.48-2.88-5.19-5.7-7.68-8.07l3.5-5.36c.51.49,1.13,1.19,1.75,1.86a40.06,40.06,0,0,0,4.92-8.87l5.71,3.37a9,9,0,0,0-.68.85,74.66,74.66,0,0,1-5.88,9.28c.64.73,1.25,1.47,1.81,2.19A57.05,57.05,0,0,0,66.5,17.4l5.59,3.32a5,5,0,0,1-.79.94A174.21,174.21,0,0,1,61,36.25c1.82-.16,3.62-.34,5.15-.51A38.92,38.92,0,0,0,64.7,31.5l5-1.3a78.15,78.15,0,0,1,3.62,12.2c-1.64.53-3.78,1.17-5.47,1.6-.11-.78-.29-1.69-.46-2.6-.86,0-1.8.18-2.83.25ZM51.2,45.18c1.8.28,4,.63,5.41.91,0,.22-.09.64-.16,1.12a59.58,59.58,0,0,1-1.92,15c-1-.39-3.62-1.42-5.42-2.08,1.36-3.86,2-8.94,2.09-14.93M98.38,57.32c1.56,0,2.88,0,3.94-.11v7c-1.06-.1-2.38-.1-3.94-.1h-24c-1.52,0-2.86,0-4,.1V57.28l-3.18.89a75.44,75.44,0,0,0-1.53-12.55l4.87-1.28a84.18,84.18,0,0,1,2.21,12.25c-.35.12-1.19.4-2.14.62,1,.11,2.35.11,3.76.11h9.15V51.17H77.81c-1.37,0-2.43,0-3.45,0V44.69c1,0,2.08,0,3.45,0h5.75v-3.5c0-.5,0-1.48-.1-2,1.63,0,6.05.15,7.63.27,0,.5-.11,1.23-.11,1.73v3.5h6.1c1.35,0,2.47,0,3.43,0v6.53c-1,0-2.08,0-3.43,0H91v6.15Zm-16.67-26A25.76,25.76,0,0,1,76,21.9c-1.08,0-2.1,0-2.92.06V15.47c.9,0,2,0,3.08,0H94.59l.5-.58a53.75,53.75,0,0,1,6,4.92c-.24.18-.6.29-.86.45A26.35,26.35,0,0,1,93.12,31.5a40.15,40.15,0,0,0,9.2,2.39c-.85,2-2.14,5.2-2.66,6.79-4.23-1-8.62-2.34-12.06-4.59-3.4,2.13-7.59,3.39-11.93,4.59-.59-1.65-2.16-4.94-3.1-7a36.84,36.84,0,0,0,9.14-2.31M92.5,21.9H83a16.91,16.91,0,0,0,4.54,6.15,16.39,16.39,0,0,0,5-6.15"/><polygon class="cls-2" points="120.39 77.68 123.57 77.68 165.36 1.54 162.21 1.54 120.39 77.68"/><polygon class="cls-2" points="125.68 77.68 128.85 77.68 170.64 1.54 167.48 1.54 125.68 77.68"/><polygon class="cls-2" points="130.97 77.68 134.13 77.68 175.96 1.54 172.8 1.54 130.97 77.68"/><polygon class="cls-2" points="136.26 77.68 139.41 77.68 181.24 1.54 178.09 1.54 136.26 77.68"/><polygon class="cls-2" points="141.56 77.68 144.71 77.68 186.53 1.54 183.38 1.54 141.56 77.68"/><polygon class="cls-2" points="133.53 20.6 141.08 34.73 142.12 32.5 135.6 20.6 137.33 20.6 142.96 30.82 143.88 28.76 139.37 20.6 141.09 20.6 144.7 27.16 150.83 14.2 143.91 1.54 119.3 1.54 139.2 38.75 140.12 36.68 131.84 20.6 133.53 20.6"/><polygon class="cls-2" points="166.68 77.68 168.74 77.68 158.7 59.43 157.74 61.41 166.68 77.68"/><polygon class="cls-2" points="163.03 77.68 165.08 77.68 157.01 63 156.07 65.08 163.03 77.68"/><polygon class="cls-2" points="159.52 57.79 170.45 77.68 172.51 77.68 160.46 55.73 159.52 57.79"/><polygon class="cls-2" points="161.51 53.63 174.22 77.68 187.62 77.68 167.72 40.5 161.51 53.63"/><path class="cls-2" d="M969.93.08,678.44,0l-7.26,13.9L664.12,0H581.89V78.34H931c22.53,0,38.92-16.29,38.92-39.1Z"/><path class="cls-3" d="M846.41,51.62l9.21-10.2c2.57-3,4-5.39,4-8.06,0-2.49-1.39-4.42-5-4.42a12.65,12.65,0,0,0-7.53,2.38l-.35-.16V25c2.23-1.44,5.06-2.33,9.41-2.33,7,0,11.49,3.52,11.49,9.85,0,4.51-2.48,8.16-6,12.17l-5.69,6.06,5.39-.46H868v5.85H846.41Z"/><path class="cls-3" d="M872.06,39.59c0-10.79,5.94-16.88,14.36-16.88s14.26,6.09,14.31,16.88-5.85,17.17-14.31,17.17S872.11,50.38,872.06,39.59Zm20.29,0q0-10.85-5.93-10.84c-3.92,0-5.95,3.61-5.95,10.84s2,11.09,5.95,11.09S892.35,46.87,892.35,39.59Z"/><path class="cls-3" d="M912,56.18V31.53l-6.13,4-.31-.16V28.6l8.62-5.55h5.89V56.18Z"/><path class="cls-3" d="M928.42,55.19V48.9l.34-.15a12,12,0,0,0,6.79,1.93c5.29,0,8.07-2.18,8.71-8.81A10.83,10.83,0,0,1,937,44.15c-5.6,0-10.2-3.28-10.2-10.4,0-6.29,4.5-11,12.32-11,8.28,0,13.28,5.34,13.28,15.59,0,13.22-6.49,18.46-16,18.46A17.35,17.35,0,0,1,928.42,55.19Zm16-17.87c-.21-6.3-1.79-8.82-5.1-8.82s-4.61,2.12-4.61,5.3c0,3.52,1.64,5.1,4.9,5.1A8.12,8.12,0,0,0,944.41,37.32Z"/><path class="cls-4" d="M590.53,8.31h39.2V19.68H606v13.1h20.41V44H606V58.61h24.11V70.08H590.53Z"/><path class="cls-4" d="M655.91,70.08H641.55v-.65l19.06-32.05L642.91,9V8.31h17.15l7.48,13.28,3.54,8.31,3.69-8.31,7.68-13.28h14.27V9l-17.53,28.8,19.42,31.68v.65H681.48l-9.06-16-3.7-8.87-3.8,8.87Z"/><path class="cls-4" d="M726.16,48.94V70.08H710.74V8.31h22.2c15.07,0,24.55,6.49,24.55,20.58,0,13.64-9.48,20-23.82,20Zm0-29.26V38.1h6.78c7,0,9.85-3.05,9.85-9.39s-3.25-9-10.14-9Z"/><path class="cls-4" d="M766.8,39c0-18.33,12.91-32,32.4-32s32.44,13.64,32.44,32S818.8,71.34,799.2,71.34,766.8,57.26,766.8,39Zm48.85,0c0-12.38-6.32-20.13-16.45-20.13S782.8,26.63,782.8,39,789,59.42,799.2,59.42,815.65,51.3,815.65,39Z"/></g></g></svg>