<svg xmlns="http://www.w3.org/2000/svg" viewBox="0 0 51.74 51.74"><defs><style>.cls-1{fill:#303030;}.cls-2{fill:#fff;}</style></defs><title>sns_tw</title><g id="レイヤー_2" data-name="レイヤー 2"><g id="レイヤー_1-2" data-name="レイヤー 1"><path class="cls-1" d="M25.87,0A25.87,25.87,0,1,0,51.74,25.87,25.87,25.87,0,0,0,25.87,0Z"/><path class="cls-2" d="M22,36.66A14.55,14.55,0,0,0,36.66,22v-.67a10.61,10.61,0,0,0,2.55-2.67,10.43,10.43,0,0,1-3,.81,5.18,5.18,0,0,0,2.28-2.86,10.31,10.31,0,0,1-3.29,1.27,5.14,5.14,0,0,0-8.79,4.71,14.58,14.58,0,0,1-10.59-5.38,5.13,5.13,0,0,0,1.59,6.85,5.07,5.07,0,0,1-2.34-.64v.06a5.13,5.13,0,0,0,4.13,5.06,5.18,5.18,0,0,1-1.36.18,5.31,5.31,0,0,1-1-.09,5.13,5.13,0,0,0,4.81,3.57,10.29,10.29,0,0,1-6.38,2.22,10,10,0,0,1-1.23-.08A14.59,14.59,0,0,0,22,36.66"/></g></g></svg>