<svg xmlns="http://www.w3.org/2000/svg" width="534" height="320" viewBox="0 0 534 320"><g><path fill="#fff" d="M1 277H507V319H1z"/><path d="m506,278v40H2v-40h504m2-2H0v44h508v-44h0Z" fill="#d13e2e"/><path d="M18.689 300.431c0 1.569-.014 3.685-.056 5.688 0 .406-.351.616-.687.616-.322 0-.658-.21-.658-.588v-.028c.098-2.592.069-7.228.098-10.184 0-1.289.854-1.331 2.409-1.331.561 0 1.135 0 1.401.015.714.027 1.26.462 1.288 1.078.015.477.028.967.028 1.443 0 1.723-.014 2.045-2.844 2.045-.378 0-.729-.015-.98-.028v1.274Zm2.577-3.978c0-.154-.014-.294-.014-.421-.028-.406-.183-.42-1.261-.42-1.163 0-1.261.028-1.289.532 0 .099-.014.196-.014.309h2.577Zm-2.577.896v.826c.21.014.63.014 1.064.014 1.387 0 1.485-.056 1.499-.434 0-.126.014-.267.014-.406h-2.577Zm6.121 5.785v2.283c0 .392-.308.588-.616.588s-.616-.196-.616-.588v-2.283h-1.247c-.153 1.499-.714 2.535-2.297 3.012-.098.027-.182.042-.267.042-.392 0-.588-.295-.588-.574 0-.238.14-.463.406-.519 1.106-.238 1.442-1.009 1.541-1.961h-1.093c-.42 0-.616-.252-.616-.519s.224-.546.616-.546h1.135v-.225c0-.364-.015-.714-.028-1.036h-.854c-.42 0-.616-.252-.616-.519s.225-.546.616-.546h5.239c.392 0 .574.266.574.532s-.183.532-.574.532h-.715v1.261h1.121c.392 0 .574.266.574.532s-.183.532-.574.532h-1.121Zm-1.232-2.325h-1.205v1.261h1.205v-1.261Zm2.773-1.625c-1.765 0-2.871-.015-2.913-1.19-.015-.267-.015-.561-.015-.854 0-.477.015-.967.028-1.443.028-.616.546-1.051 1.261-1.078.266-.015.868-.015 1.442-.015.421 0 .812 0 1.051.015 1.051.056 1.471.588 1.471 1.204v1.037c0 2.101.028 4.398.028 6.191 0 .672.014 1.261.014 1.751 0 1.008-.49 1.891-2.073 1.891-.952 0-1.513-.126-1.513-.771 0-.308.21-.616.574-.616.042 0 .07.014.112.014.28.042.532.084.757.084.462 0 .784-.168.798-.854.014-.56.028-1.204.028-1.862 0-1.009-.015-2.073-.015-2.956v-.574c-.252.014-.63.028-1.036.028Zm1.009-2.731c0-.827-.057-.841-1.331-.841-1.162 0-1.316.014-1.345.435 0 .126-.014.266-.014.406h2.689Zm.027.896h-2.717c0 .14.014.28.014.406.014.434.322.434 1.569.434.462 0 .938 0 1.134-.014v-.826ZM32.328 306.09l.14-6.611c-.771.98-1.12 1.316-1.526 1.316-.351 0-.631-.28-.631-.616 0-.154.07-.336.225-.49 1.303-1.288 2.396-2.955 3.109-4.874.112-.309.351-.435.603-.435.378 0 .771.294.771.687 0 .252-.658 1.526-1.205 2.451l-.14 8.572c-.015.421-.351.631-.687.631s-.658-.196-.658-.616v-.015Zm10.127-.854c.309 0 .463.252.463.505 0 .266-.154.532-.477.546-.812.014-1.821.028-2.815.028-1.009 0-2.003-.015-2.788-.028-1.358-.028-1.358-.896-1.358-1.709 0-.756.015-1.694.042-2.465-.49.49-.616.518-.826.518-.351 0-.631-.279-.631-.588 0-.168.07-.336.253-.477.868-.687 1.484-1.555 2.059-2.731.126-.266.351-.364.574-.364.337 0 .687.252.687.589 0 .111-.028.224-.435.868.435 0 .938-.014 1.443-.014.154-.295.28-.589.49-1.106.084-.225.294-.309.504-.309.337 0 .687.21.687.519 0 .14-.21.546-.42.896.812 0 1.61 0 2.325.014.322 0 .49.252.49.504 0 .238-.168.49-.519.49h-2.367v.785h1.919c.351 0 .519.224.519.448s-.168.448-.519.448h-1.919v.826h1.919c.351 0 .519.224.519.448s-.168.448-.519.448h-1.919v.925c.896 0 1.821 0 2.605-.015h.014Zm-1.33-9.595c0-.351.322-.519.645-.519s.658.168.672.532c.014.183.014.351.014.519 0 1.106 0 2.031-1.54 2.087-.505.014-1.317.028-2.13.028-3.348 0-3.558 0-3.558-1.947 0-.238.014-.49.014-.7.015-.336.351-.505.673-.505.308 0 .603.154.603.49v1.163c.027.462.14.477 1.624.477v-2.367c0-.393.322-.574.659-.574s.672.195.672.602v2.34c.49 0 .91-.015 1.163-.028.434-.028.49-.098.49-1.219v-.378Zm-2.521 6.962h-1.892c0 .266-.014.546-.014.826h1.905v-.826Zm0 1.709h-1.905v.434c0 .28.126.477.519.49.392.015.868.015 1.387.015v-.938Zm0-3.391h-1.457c-.21 0-.393.112-.406.448 0 .099-.014.211-.014.337h1.877v-.785ZM51.801 306.174c-.616.028-1.372.028-2.114.028-.729 0-1.457 0-2.031-.028-1.219-.042-1.821-.658-1.863-1.694-.028-.911-.042-2.438-.042-3.965 0-1.358.014-2.731.042-3.67.028-.896.7-1.484 1.751-1.526.532-.014 1.442-.028 2.339-.028.743 0 1.472.015 1.947.028.854.028 1.681.63 1.709 1.639.028.854.042 2.255.042 3.656 0 1.541-.014 3.081-.042 3.824-.028.98-.729 1.694-1.737 1.736Zm.406-6.443c0-.882-.014-1.694-.027-2.255-.028-.967-.238-.98-2.479-.98-2.367 0-2.563.014-2.605.98-.014.574-.028 1.373-.028 2.255h5.141Zm-5.141 1.232c0 1.177 0 2.298.028 2.97.028.911.182.967 2.563.967.546 0 1.106 0 1.471-.014.784-.028 1.022-.393 1.051-.995.027-.7.027-1.807.027-2.928h-5.141ZM66.903 307.844c-.771 0-1.232-.572-1.232-1.298 0-.484.198-1.013.638-1.496 1.519-1.717 4.071-4.335 6.007-6.711.881-1.057 1.232-2.024 1.232-2.816 0-1.387-1.056-2.244-2.288-2.244-.946 0-1.98.506-2.706 1.693-.286.463-.727.66-1.145.66-.66 0-1.298-.483-1.298-1.166 0-.77 1.672-3.389 5.126-3.389 2.553 0 4.974 1.585 4.974 4.203 0 1.254-.528 2.706-1.827 4.356-1.672 2.112-3.828 3.982-5.654 5.963 1.826-.022 4.312-.198 6.117-.198.901 0 1.319.572 1.319 1.145 0 .638-.483 1.298-1.386 1.298h-7.877ZM78.778 302.409c-.088-.946-.132-1.87-.132-2.795 0-.836.044-1.693.109-2.596.309-3.829 2.398-5.941 5.391-5.941 2.949 0 5.018 2.024 5.369 5.699.088.968.154 1.937.154 2.883 0 2.486-.198 8.471-5.523 8.471-2.926 0-5.017-2.024-5.368-5.721Zm8.185.088c.133-.968.198-2.046.198-3.103 0-1.694 0-6.051-3.015-6.051-1.54 0-2.706 1.408-2.926 3.763-.066.814-.11 1.628-.11 2.42 0 .925.044 1.849.154 2.751.264 2.244 1.452 3.542 2.882 3.542 1.364 0 2.509-1.231 2.816-3.322ZM92.674 307.844c-.771 0-1.232-.572-1.232-1.298 0-.484.198-1.013.638-1.496 1.519-1.717 4.071-4.335 6.007-6.711.881-1.057 1.232-2.024 1.232-2.816 0-1.387-1.056-2.244-2.288-2.244-.946 0-1.98.506-2.706 1.693-.286.463-.727.66-1.145.66-.66 0-1.298-.483-1.298-1.166 0-.77 1.672-3.389 5.126-3.389 2.553 0 4.973 1.585 4.973 4.203 0 1.254-.527 2.706-1.826 4.356-1.672 2.112-3.828 3.982-5.654 5.963 1.826-.022 4.312-.198 6.117-.198.901 0 1.319.572 1.319 1.145 0 .638-.483 1.298-1.386 1.298h-7.877ZM109.929 297.547c1.343-.044 1.98-.925 1.98-2.223 0-1.101-.946-1.98-2.288-1.98-1.057 0-1.76.55-2.332 1.145-.221.22-.507.33-.771.33-.616 0-1.232-.572-1.232-1.232 0-1.232 2.53-2.509 4.445-2.509 2.794 0 4.576 1.782 4.576 4.247 0 1.496-.704 2.662-1.782 3.234 2.574 1.188 2.618 3.828 2.618 4.247 0 3.102-2.376 5.303-5.698 5.303-3.278 0-5.259-1.937-5.259-2.971 0-.704.638-1.32 1.298-1.32.286 0 .594.132.858.418.99 1.101 1.694 1.519 3.212 1.519 1.585 0 3.169-1.166 3.169-2.993 0-2.244-1.343-2.926-2.904-2.926h-.198c-.132 0-.242.021-.33.021-.682 0-1.166-.594-1.166-1.166s.462-1.144 1.145-1.144h.659ZM119.226 307.932c-.594 0-1.54-.264-1.54-1.54 0-1.078.924-1.496 1.54-1.496.727 0 1.562.528 1.562 1.475 0 .571-.462 1.562-1.562 1.562ZM127.205 307.976c-.638 0-1.298-.418-1.298-1.21 0-2.046.088-6.732.088-9.638 0-3.08-.11-3.322-.858-3.322h-.308c-.748 0-1.122-.572-1.122-1.166 0-.638.396-1.276 1.144-1.342.44-.022.616-.022 1.078-.022 1.519 0 2.487.902 2.553 2.354.022.286.022.682.022 1.166 0 1.761-.066 4.709-.066 7.855 0 1.364 0 2.75.044 4.114v.044c0 .771-.638 1.166-1.276 1.166ZM137.206 307.976c-.638 0-1.298-.418-1.298-1.21 0-2.046.088-6.732.088-9.638 0-3.08-.11-3.322-.858-3.322h-.308c-.748 0-1.122-.572-1.122-1.166 0-.638.396-1.276 1.144-1.342.44-.022.616-.022 1.078-.022 1.519 0 2.486.902 2.553 2.354.022.286.022.682.022 1.166 0 1.761-.066 4.709-.066 7.855 0 1.364 0 2.75.044 4.114v.044c0 .771-.638 1.166-1.276 1.166ZM142.945 307.932c-.594 0-1.54-.264-1.54-1.54 0-1.078.924-1.496 1.54-1.496.727 0 1.562.528 1.562 1.475 0 .571-.462 1.562-1.562 1.562ZM150.578 307.844c-.771 0-1.232-.572-1.232-1.298 0-.484.198-1.013.638-1.496 1.519-1.717 4.071-4.335 6.007-6.711.881-1.057 1.232-2.024 1.232-2.816 0-1.387-1.056-2.244-2.288-2.244-.946 0-1.98.506-2.706 1.693-.286.463-.727.66-1.145.66-.66 0-1.298-.483-1.298-1.166 0-.77 1.672-3.389 5.126-3.389 2.553 0 4.973 1.585 4.973 4.203 0 1.254-.527 2.706-1.826 4.356-1.672 2.112-3.828 3.982-5.654 5.963 1.826-.022 4.312-.198 6.117-.198.901 0 1.319.572 1.319 1.145 0 .638-.483 1.298-1.386 1.298h-7.877ZM167.085 307.998c-2.024 0-4.818-1.057-4.818-2.509 0-.66.506-1.254 1.144-1.254.242 0 .506.11.771.33.902.792 2.002 1.145 3.015 1.145 2.288 0 3.498-1.673 3.498-3.345 0-.858-.462-2.948-3.015-2.948-.594 0-1.21.132-1.738.308-.308.11-.506.286-.857.309-.11 0-.221.021-.33.021-.969 0-1.585-.44-1.585-1.496 0-.176.44-3.587.771-5.522.22-1.211.726-1.761 2.134-1.761h.154c.639.022.969.022 4.577.022.77 0 1.166.594 1.166 1.188 0 .551-.374 1.122-1.122 1.122-.616 0-3.587-.021-4.247-.021-.418 0-.594.198-.66.594-.109.771-.439 2.53-.506 2.971v.154c0 .176.044.242.176.242.11 0 .286-.066.507-.11.396-.088.989-.154 1.649-.154 3.938 0 5.325 2.662 5.325 5.061 0 3.213-2.398 5.655-6.007 5.655ZM194.288 296.075c-.154-.169-.266-.253-.364-.253-.098 0-.196.084-.336.253-1.148 1.456-2.998 3.222-4.496 4.202-.211.14-.406.195-.589.195-.448 0-.771-.364-.771-.742 0-.238.141-.49.448-.658 1.625-.841 3.362-2.55 4.427-3.937.336-.434.771-.672 1.219-.672.434 0 .896.21 1.316.672 1.373 1.472 2.872 2.647 4.539 3.502.266.141.378.364.378.603 0 .406-.351.826-.827.826-.756 0-3.39-2.255-4.944-3.991Zm-.714 6.037c-.253.798-.603 1.835-1.022 2.731 1.288-.099 2.562-.253 3.781-.435-.322-.294-.672-.574-1.022-.812-.21-.14-.294-.308-.294-.477 0-.294.294-.574.658-.574.826 0 3.348 2.34 3.348 3.166 0 .42-.392.757-.784.757-.224 0-.435-.112-.574-.379-.14-.252-.294-.49-.462-.714-3.278.687-7.256.952-7.536.952-.421 0-.645-.364-.645-.7 0-.309.182-.616.574-.631.49-.014.994-.027 1.499-.056.392-.812.756-1.891.994-2.815l-2.647.014c-.448 0-.658-.294-.658-.602 0-.322.225-.659.658-.659h8.895c.449 0 .673.322.673.645 0 .309-.224.616-.673.616l-4.762-.027Zm-1.598-2.578c-.434 0-.658-.308-.658-.63 0-.309.225-.631.658-.631h4.021c.435 0 .658.322.658.631 0 .322-.224.63-.658.63h-4.021ZM208.633 300.894c-.141.224-.295.448-.448.672.812-.014 1.82-.014 2.717-.014h1.022c.827.014 1.275.504 1.275 1.4 0 .561-.168 1.737-.379 2.27-.363.938-1.12 1.373-2.059 1.373-.896 0-1.274-.196-1.274-.701 0-.042 0-.084.014-.126-.715.659-1.373.98-1.639.98-.379 0-.631-.294-.631-.588 0-.182.099-.378.337-.49 1.387-.7 2.171-1.639 2.787-3.138h-.812c-1.177 2.171-3.264 3.628-3.937 3.628-.378 0-.616-.309-.616-.616 0-.196.099-.378.322-.477 1.274-.546 2.241-1.373 2.941-2.535-.294 0-.588.014-.854.014-.756.827-2.157 1.892-2.633 1.892-.364 0-.631-.309-.631-.603 0-.168.099-.336.309-.448 1.303-.673 2.115-1.4 2.844-2.493h-1.289c.042.084.07.168.07.266 0 .21-.112.435-.393.589-1.036.546-3.264 1.555-3.768 1.555-.393 0-.603-.309-.603-.616 0-.252.14-.519.462-.603.448-.126.911-.28 1.359-.435l-.015-3.039h-1.036c-.393 0-.574-.28-.574-.561 0-.309.21-.616.574-.616h1.036v-2.325c0-.406.322-.603.645-.603.336 0 .658.196.658.603v2.325h.953c.363 0 .546.294.546.588s-.183.589-.546.589h-.967v2.521c.308-.141.588-.267.854-.406.07-.028.126-.057.182-.07-.056-.084-.084-.183-.084-.28 0-.28.21-.561.589-.561h7.312c.378 0 .561.267.561.532 0 .28-.183.547-.561.547h-4.622Zm2.199-1.667c-.463.028-.98.042-1.499.042-2.27 0-2.83-.084-2.83-1.681 0-.547.028-1.191.057-1.695.027-.616.49-1.205 1.372-1.232.477-.015.967-.028 1.443-.028.49 0 .967.014 1.415.028.7.027 1.303.561 1.345 1.135.042.448.056.994.056 1.513 0 .252 0 .504-.014.729-.028.729-.547 1.148-1.345 1.19Zm.098-1.808h-3.235c0 .827.014.854 1.582.854 1.514 0 1.64-.042 1.653-.49v-.364Zm-.028-1.218c-.027-.532-.111-.547-1.54-.547-1.443 0-1.598 0-1.625.561l-.015.224h3.194l-.015-.237Zm-.91 9.062c.028 0 .056-.014.098-.014s.084.014.141.027c.196.042.364.07.519.07.546 0 1.064-.21 1.232-2.283v-.07c0-.294-.141-.434-.378-.462-.351.98-.911 1.947-1.611 2.731ZM232.482 308.372l.044-3.982c-2.86 2.332-6.997 4.158-7.68 4.158-.66 0-1.144-.484-1.144-.99 0-.352.22-.704.77-.88 2.839-.99 4.973-2.046 7.217-3.872-.682.021-1.319.044-1.892.044-2.398 0-2.772-1.232-2.816-2.003-.044-.55-.066-1.188-.066-1.826 0-.748.022-1.496.066-2.112.044-.924.638-1.914 2.376-1.958.814-.022 1.937-.044 3.146-.044v-1.299h-6.667c-.638 0-.946-.418-.946-.836 0-.462.33-.924.946-.924h6.646v-1.408c0-.638.506-.924 1.034-.924s1.078.308 1.078.924v1.408h6.711c.616 0 .901.44.901.88s-.285.88-.901.88h-6.733v1.299c1.232 0 2.42.021 3.433.044 1.32.021 2.223.924 2.288 1.804.044.528.066 1.167.066 1.849 0 .771-.022 1.562-.066 2.2-.044 1.078-.946 2.003-2.398 2.047h-.462c-.66 0-1.386-.022-2.112-.044 2.377 1.782 4.753 2.706 7.371 3.608.506.176.727.506.727.88 0 .506-.44 1.21-1.299 1.21-.55 0-4.07-1.364-7.568-4.181.021 1.188.044 2.068.044 4.049 0 .594-.528.88-1.078.88-.507 0-1.034-.286-1.034-.858v-.021Zm.044-11.903c-.969 0-1.893.021-2.575.044-1.1.044-1.1.748-1.1 1.584h3.675v-1.628Zm0 3.146h-3.675c0 1.057.066 1.585 1.122 1.629.771.021 1.65.021 2.574.021l-.021-1.65Zm2.002 0v1.65c.946 0 1.87 0 2.729-.021 1.1 0 1.1-.727 1.1-1.629h-3.828Zm3.828-1.518c0-.242-.021-.484-.021-.704-.044-.924-.528-.924-3.784-.924v1.628h3.806ZM247.007 308.152c-.704 0-1.166-.595-1.166-1.167 0-.396.242-.792.792-.945 1.54-.44 2.971-1.32 4.07-2.553.198-.22.44-.33.66-.33.572 0 1.101.55 1.101 1.145 0 .22-.088.462-.286.682-1.496 1.584-4.379 3.169-5.171 3.169Zm8.384-13.752-8.054.044c-.704 0-1.034-.507-1.034-.99 0-.528.353-1.057 1.034-1.057l6.953.044v-1.716c0-.683.572-1.034 1.145-1.034s1.144.352 1.144 1.034v1.716l6.888-.044c.682 0 1.012.506 1.012 1.013 0 .527-.33 1.034-1.012 1.034l-8.075-.044Zm1.254 11.991v.044c0 1.584-1.21 2.707-3.477 2.707-.946 0-2.442-.022-2.442-1.188 0-.55.396-1.101 1.012-1.101.089 0 .198.022.286.044.484.11.902.177 1.255.177.792 0 1.21-.33 1.21-1.122v-3.477c-.924 0-1.826-.045-2.729-.066-1.606-.066-2.442-.924-2.509-2.135-.021-.396-.021-.792-.021-1.188s0-.792.021-1.145c.066-.99.704-2.024 2.465-2.068.924-.021 2.046-.044 3.234-.044 1.452 0 3.015.022 4.423.044 1.342.022 2.288.946 2.354 1.893.021.352.044.77.044 1.21s-.022.88-.044 1.276c-.066 1.145-.99 2.112-2.465 2.156-.88.021-1.76.066-2.641.066v1.914l.022 2.002Zm2.927-7.173c0-1.276-.177-1.519-1.034-1.54-.814-.022-1.761-.044-2.751-.044-1.188 0-2.398.021-3.433.044-.857.021-1.012.616-1.012 1.452 0 .22 0 .439.021.638.089.88.309.88 4.049.88 1.078 0 2.156-.021 3.169-.044.968-.044.99-.726.99-1.386Zm2.882 8.516c-.902-1.034-2.442-1.915-3.784-2.509-.418-.198-.595-.528-.595-.858 0-.506.396-1.012.969-1.012.616 0 3.477 1.276 4.862 2.574.309.286.44.616.44.946 0 .66-.528 1.254-1.122 1.254-.265 0-.528-.11-.771-.396ZM282.621 308.614c-1.937.044-3.961.065-5.985.065s-4.048-.021-6.028-.065c-1.914-.044-2.86-1.034-2.927-2.662-.065-1.65-.088-3.631-.088-5.678 0-2.486.044-5.038.088-7.194.022-1.408 1.101-2.354 2.751-2.398 1.914-.044 3.938-.066 6.007-.066s4.158.022 6.227.066c1.342.021 2.662.99 2.685 2.574.044 2.244.088 4.709.088 7.107 0 1.958-.022 3.851-.088 5.522-.044 1.54-1.145 2.685-2.729 2.729Zm.682-8.802c0-1.98-.021-3.96-.088-5.742-.044-1.255-.483-1.475-1.562-1.497-1.65-.021-3.477-.044-5.237-.044-1.782 0-3.521.022-5.061.044-1.254.022-1.606.375-1.628 1.497-.044 1.782-.066 3.74-.066 5.654s.022 3.785.066 5.435c.044 1.255.483 1.475 1.848 1.496 1.519.022 3.125.045 4.797.045s3.41-.022 5.192-.045c1.232-.021 1.629-.615 1.65-1.562.066-1.65.088-3.477.088-5.281Zm-11.749 5.017c-.639 0-.946-.396-.946-.813 0-.44.33-.88.946-.88h3.807v-3.213l-2.597.021h-.022c-.638 0-.924-.396-.924-.792 0-.418.33-.857.946-.857l2.597.021v-2.244h-3.235c-.638 0-.945-.396-.945-.814 0-.439.33-.88.945-.88h8.494c.594 0 .901.418.901.836 0 .44-.308.858-.901.858h-3.301v2.244l2.662-.021c.594 0 .902.418.902.813 0 .418-.309.836-.902.836l-2.662-.021v3.213h3.938c.594 0 .902.418.902.836 0 .439-.309.857-.902.857h-9.703Zm8.493-2.178c-.551-.44-1.255-.858-1.496-.99-.286-.154-.396-.374-.396-.572 0-.396.396-.792.902-.792.132 0 2.376.704 2.376 1.672 0 .462-.374.902-.836.902-.176 0-.374-.065-.55-.22ZM299.324 299.526c-.352 0-.571-.176-.704-.418-1.319 1.717-2.64 2.619-3.124 2.619-.22 0-.418-.11-.594-.242-.265 1.408-1.32 2.376-2.619 2.376-.483 0-.968-.088-1.188-.528v5.017c0 .639-.484.969-.969.969-.506 0-1.012-.33-1.012-.969 0-4.004 0-11.266.088-15.886.044-2.002 1.21-2.091 2.86-2.091.396 0 .814 0 1.145.022 1.144.044 1.694.704 1.694 1.65 0 .506-.154 1.21-1.101 3.322-.176.396-.264.638-.264.88 0 .265.109.484.374.88.594.881.968 1.761 1.034 2.993.021-.022.065-.044.088-.066.616-.33 1.254-.88 1.826-1.519-.242-.176-.484-.264-.771-.418-.264-.132-.374-.352-.374-.594 0-.44.396-.924.88-.924.353 0 1.123.527 1.255.638.198-.308.396-.616.572-.924-.265-.198-.507-.33-.814-.462-.286-.133-.418-.374-.418-.616 0-.44.396-.946.88-.946.132 0 .286.021 1.078.55.264-.594.418-1.122.418-1.254 0-.22-.176-.286-.462-.286s-.771.022-1.188.022c-.682 1.43-1.584 2.684-2.442 3.63-.264.286-.55.396-.813.396-.484 0-.881-.374-.881-.814 0-.22.089-.439.286-.638 1.276-1.232 2.267-2.927 2.927-5.105.11-.329.396-.483.727-.483.462 0 .99.33.99.813l-.177.66c.484-.021.969-.044 1.255-.044.748 0 1.231.309 1.474.727.132-.066.265-.11.396-.11.286 0 .571.154.726.506.396.858.88 1.65 1.387 2.398.176-.264 1.122-1.716 1.122-2.134 0-.198-.154-.265-.353-.265l-1.43.022h-.022c-.528 0-.792-.396-.792-.792s.286-.814.836-.814h2.333c1.254 0 1.716.506 1.716 1.188 0 1.144-2.024 3.807-2.311 4.181.792.858 1.629 1.54 2.509 1.958.439.22.616.572.616.924 0 .572-.418 1.122-1.013 1.122-.77 0-2.2-1.474-2.794-2.134v.154c0 .439-.242.857-.771.857h-4.093Zm-7.635 2.398c.066 0 .132 0 .198.022.088.021.176.044.286.044.483 0 .968-.44.968-1.606 0-1.012-.264-1.826-.814-2.618-.396-.572-.571-1.078-.571-1.584 0-.44.132-.902.33-1.408.77-1.937.77-2.333.77-2.398 0-.396-.352-.418-.748-.418-.726 0-.968.109-.968.77-.044 2.597-.044 6.095-.044 9.615.132-.241.33-.418.594-.418Zm3.234 6.029c-.594 0-1.034-.506-1.034-1.013 0-.286.154-.594.506-.77 1.034-.55 1.826-1.21 2.597-2.223.198-.264.44-.374.683-.374.527 0 1.012.462 1.012 1.013 0 .176-.066.396-.22.594-1.078 1.342-2.772 2.772-3.543 2.772Zm7.085-5.148v2.178c0 .484 0 1.343.044 1.958v.11c0 1.145-1.012 2.091-2.618 2.091-1.76 0-1.958-.793-1.958-1.167 0-.462.308-.901.792-.901.088 0 .154 0 .242.021.176.044.374.066.594.066.462 0 .924-.132.946-.572.021-.309.021-.946.021-1.65 0-.726 0-1.519-.021-2.134h-2.904c-.528 0-.792-.44-.792-.881 0-.462.264-.902.792-.902h8.471c.551 0 .814.44.814.881 0 .462-.264.902-.814.902h-3.608Zm1.408-5.018c.066 0 .11 0 .176.022-.924-1.122-1.738-2.442-2.354-3.675-.353 1.034-.925 2.377-1.717 3.652h3.895Zm2.354 9.704c-.682-.792-1.43-1.475-2.398-2.068-.33-.198-.462-.462-.462-.748 0-.484.418-.969.968-.969.572 0 2.398 1.255 3.323 2.2.241.265.352.528.352.814 0 .594-.528 1.122-1.078 1.122-.242 0-.506-.109-.704-.352ZM312.902 305.907c4.863-1.54 7.745-5.544 8.735-8.779.176-.594.11-1.144-.704-1.166-2.156-.065-5.633.066-8.801.177-1.453.044-1.606-2.112-.045-2.179 2.905-.132 7.02-.154 9.813-.11 1.782.022 3.037 1.364 2.398 3.169-1.54 4.4-4.225 8.669-10.385 11.023-1.871.704-2.685-1.606-1.013-2.135ZM336.745 305.138c.022.506.022.792.044 1.232.044 1.386-.77 2.464-3.366 2.002-.814-.132-1.101-.727-.99-1.232.11-.484.595-.902 1.21-.704.551.176 1.299.353 1.276-.374-.021-.88-.044-2.376-.088-3.916-1.584 2.023-2.883 3.3-4.973 4.643-1.519.99-2.486-.881-1.276-1.519 2.112-1.101 3.807-2.75 5.148-4.709-1.319.022-2.618.066-3.872.11-1.298.044-1.475-1.738-.066-1.782 1.562-.066 3.257-.11 4.929-.132-.021-.858-.065-1.562-.088-1.959-.065-1.43 1.893-1.319 1.893-.065 0 .44 0 1.145.021 2.002h2.509c1.475.022 1.364 1.914-.066 1.849-.792-.044-1.584-.066-2.397-.066.044 1.65.088 3.433.153 4.621ZM346.545 300.451c-.792 0-1.166-.528-1.166-1.057 0-.55.418-1.122 1.166-1.122h13.818c.748 0 1.122.55 1.122 1.101 0 .527-.374 1.078-1.122 1.078h-13.818ZM369.203 308.13c-1.804.55-2.618-1.628-.857-2.09 4.334-1.167 7.129-3.829 8.119-6.623.22-.595.109-.946-.727-.969-2.244-.044-6.337.022-8.691.11-1.562.066-1.76-2.024-.065-2.068 2.838-.066 6.534-.088 9.527-.066 2.2.022 3.278 1.255 2.376 3.411-1.54 3.675-4.225 6.623-9.682 8.295Zm6.997-13.729c-2.068 0-5.104.065-7.48 0-1.453-.044-1.541-2.068.153-2.047 2.112.022 5.193.022 7.415 0 .748 0 1.188.484 1.188 1.013s-.374 1.034-1.276 1.034ZM384.362 307.756c-1.649.264-2.178-1.98-.418-2.223.353-.044.748-.088 1.122-.153 1.078-2.289 3.389-8.384 3.939-11.134.374-1.849 2.838-1.232 2.376.462-.66 2.398-2.509 7.261-3.784 10.231 2.288-.418 4.708-.946 6.425-1.364-.572-.748-1.188-1.386-1.673-1.804-1.012-.881.418-2.421 1.65-1.32 1.057.946 3.345 3.19 4.049 5.171.264.748-.198 1.386-.704 1.605-.528.221-1.21.044-1.496-.66-.154-.374-.353-.77-.572-1.166-2.839.792-7.503 1.782-10.914 2.354ZM409.542 305.27c-.308-.44-.33-1.145.286-1.54 1.056-.683 2.376-2.179 2.926-3.146.616-1.078 2.442-.22 1.694 1.056-.55.946-1.979 3.015-3.344 3.917-.595.396-1.255.154-1.562-.286Zm1.937-6.975c-1.475.065-1.673-1.959-.044-2.024 1.738-.066 3.542-.11 5.324-.132 0-1.167 0-2.157-.021-2.772-.044-1.629 2.134-1.475 2.112-.088-.022.682-.044 1.693-.066 2.838 1.694-.021 3.366-.021 4.995 0 1.672.022 1.54 2.156-.088 2.068-1.629-.088-3.279-.088-4.929-.088-.022 1.782 0 3.696.065 5.215.022.704.022 1.034.022 1.65 0 1.738-1.057 3.058-4.203 2.508-1.958-.352-1.1-2.618.242-2.178.902.285 1.87.439 1.893-.771.021-1.562.021-4.093 0-6.403-1.761.044-3.543.11-5.303.177Zm12.453 6.402c-.682-1.078-2.244-2.398-3.212-2.97-1.078-.639-.022-2.311 1.232-1.562.945.55 2.904 1.848 3.784 3.234.374.594.088 1.254-.353 1.562-.439.308-1.056.352-1.452-.265ZM430.178 300.451c-.792 0-1.166-.528-1.166-1.057 0-.55.418-1.122 1.166-1.122h13.818c.748 0 1.122.55 1.122 1.101 0 .527-.374 1.078-1.122 1.078h-13.818ZM446.006 304.983c3.257-1.452 5.215-4.841 5.018-9.043-.089-1.694 2.222-1.584 2.266-.176.154 4.158-1.738 8.734-6.051 11.133-1.694.946-2.904-1.166-1.232-1.914Zm11.552.792c-1.43.704-2.992.132-2.838-1.76.153-1.98.308-7.218.308-8.516 0-1.606 2.223-1.584 2.2 0-.021.858-.242 6.667-.264 7.415-.022.484.242.528.66.286 1.893-1.078 3.631-3.124 4.906-5.501.792-1.474 2.772-.264 2.003 1.101-1.519 2.729-3.982 5.457-6.976 6.975ZM473.887 293.729c-2 0-2.421.04-2.48.899-.04.48-.021 1.461-.04 2.621 0 .4.02.4 2.48.4.92 0 1.88 0 2.24-.021 1.12-.06 1.12 1 1.12 1.061 0 .58-.359 1.14-1.06 1.14h-.101c-.5-.04-1.26-.06-2.021-.06-2.48 0-2.681.02-2.681.44 0 2.98.021 3.44.061 3.78.1.92.42.96 3.24.96 1.181 0 2.461-.02 2.841-.04h.101c.699 0 1.08.501 1.08 1.021 0 .54-.4 1.08-1.261 1.12-.26.021-1.42.04-2.58.04-1.141 0-2.301-.02-2.561-.04-1.841-.14-2.98-.8-3.061-2.561-.04-.84-.04-2.32-.04-3.94 0-2.44.02-5.161.06-6.422.04-1.6 1.08-2.44 2.7-2.521.36-.02 1.501-.04 2.621-.04 1.141 0 2.24.021 2.54.04.761.04 1.121.54 1.121 1.061 0 .54-.421 1.08-1.181 1.08 0 0-1.78-.02-3.141-.02ZM481.622 306.832c-.7 0-1.12-.521-1.12-1.181 0-.439.18-.92.58-1.36 1.38-1.56 3.7-3.94 5.461-6.101.8-.961 1.12-1.841 1.12-2.561 0-1.261-.96-2.041-2.08-2.041-.86 0-1.801.46-2.461 1.541-.26.42-.66.6-1.04.6-.601 0-1.181-.44-1.181-1.061 0-.7 1.521-3.08 4.661-3.08 2.32 0 4.521 1.44 4.521 3.82 0 1.141-.48 2.461-1.66 3.961-1.521 1.921-3.481 3.621-5.142 5.422 1.66-.021 3.921-.181 5.562-.181.82 0 1.2.521 1.2 1.04 0 .58-.44 1.181-1.261 1.181h-7.161Z" fill="#1a1a1a"/><path fill="#d13e2e" d="M0 0H184V52H0zM0 68H219V120H0zM0 136H419V188H0zM0 204H534V256H0z"/><path d="M33.193 27.004c2.916-.828 5.831-1.656 8.027-2.232 2.808-.719 3.275 2.736 1.044 3.24-2.052.467-5.004 1.26-8.063 2.16 1.152 3.635 2.196 7.018 2.88 9.143.432 1.332-.324 2.303-1.188 2.627-.864.324-1.944 0-2.269-1.295-.575-2.232-1.583-5.76-2.735-9.504-3.203.973-6.335 1.943-8.531 2.699-2.375.793-3.455-2.555-.756-3.383 2.088-.648 5.111-1.584 8.315-2.52-.396-1.26-.792-2.52-1.152-3.707-2.231.611-4.427 1.223-6.299 1.654-2.592.613-3.275-2.662-.899-3.203 1.979-.432 4.103-.971 6.227-1.547-.72-2.305-1.403-4.283-1.836-5.615-.827-2.449 2.844-3.023 3.42-1.045.36 1.297 1.008 3.348 1.728 5.725 2.052-.576 3.996-1.225 5.688-1.764 2.34-.758 3.096 2.52.9 3.203-1.62.504-3.564 1.115-5.616 1.691l1.116 3.672ZM63.55 37.803c-2.412 1.188-5.615.467-5.508-3.348.108-4.104.181-12.852.072-15.262-.108-2.773 3.708-2.484 3.779-.072.072 2.555-.036 10.617-.144 13.354-.036 1.008.899 1.367 1.764.9 5.543-2.881 10.547-7.955 12.994-11.879 1.512-2.412 4.752-.145 3.312 2.088-2.88 4.5-10.187 11.195-16.27 14.219ZM91.446 33.842c-3.312 2.016-5.184-1.654-2.735-2.844 6.623-3.238 13.498-9.861 17.565-16.27 1.584-2.482 4.752-.18 3.204 1.908-1.62 2.16-3.168 4.104-4.716 5.904-.108 3.67-.18 13.102-.072 16.701.072 2.736-3.815 3.059-3.779.107.036-2.879.18-8.746.216-12.959-2.844 2.773-5.939 5.184-9.683 7.451ZM131.518 34.598c.216 5.148 5.831 4.932 7.702.938 1.261-2.701.253-5.076-1.764-7.271-1.871-2.053 1.225-3.959 2.808-2.125 2.808 3.24 3.816 6.66 2.448 10.295-2.592 6.84-14.074 8.027-14.362-1.584-.036-1.008-.036-2.086.036-3.203-1.296-.107-2.304-.324-2.771-.432-2.916-.791-1.8-4.211.252-3.527.827.252 1.764.469 2.771.539.144-1.584.324-3.166.504-4.787-1.368-.18-2.52-.432-2.987-.611-2.736-.936-1.152-4.248.756-3.455.791.324 1.691.576 2.591.684.036-.432.108-.9.145-1.332.216-2.268.288-3.635.396-5.328.181-2.52 3.6-1.943 3.6.182 0 1.691-.359 3.059-.611 5.182-.036.434-.108.865-.145 1.297.324-.037.612-.107.9-.18 2.34-.541 2.951 2.664.827 3.275-.72.215-1.439.287-2.195.359-.216 1.619-.396 3.168-.54 4.68.612-.072 1.188-.18 1.728-.324 2.376-.648 3.276 2.52 1.152 3.24-.972.324-2.088.504-3.204.576-.071 1.043-.071 2.016-.035 2.914ZM160.43 41.689c-.899-1.332-2.879-2.988-4.427-3.779-.685-.359-.972-.9-.972-1.439 0-.828.647-1.584 1.691-1.584 1.26 0 7.02 3.168 7.02 5.615 0 1.152-.973 1.98-1.944 1.98-.504 0-1.008-.252-1.368-.793ZM33.193 95.004c2.916-.828 5.831-1.656 8.027-2.232 2.808-.719 3.275 2.736 1.044 3.24-2.052.467-5.004 1.26-8.063 2.16 1.152 3.635 2.196 7.018 2.88 9.143.432 1.332-.324 2.303-1.188 2.627-.864.324-1.944 0-2.269-1.295-.575-2.232-1.583-5.76-2.735-9.504-3.203.973-6.335 1.943-8.531 2.699-2.375.793-3.455-2.555-.756-3.383 2.088-.648 5.111-1.584 8.315-2.52-.396-1.26-.792-2.52-1.152-3.707-2.231.611-4.427 1.223-6.299 1.654-2.592.613-3.275-2.662-.899-3.203 1.979-.432 4.103-.971 6.227-1.547-.72-2.305-1.403-4.283-1.836-5.615-.827-2.449 2.844-3.023 3.42-1.045.36 1.297 1.008 3.348 1.728 5.725 2.052-.576 3.996-1.225 5.688-1.764 2.34-.758 3.096 2.52.9 3.203-1.62.504-3.564 1.115-5.616 1.691l1.116 3.672ZM71.465 95.076c-1.477.432-3.6 1.15-5.832 1.943 1.08 3.635 2.376 7.738 3.24 10.115.972 2.627-2.34 3.742-3.096 1.223-.72-2.447-1.944-6.586-3.06-10.295-1.512.541-2.916 1.08-4.067 1.512-2.124.793-3.024-2.23-1.008-2.914 1.26-.434 2.663-.938 4.211-1.477-.432-1.404-.792-2.592-1.08-3.492-.396-1.188.217-1.979 1.044-2.16.756-.18 1.692.252 1.98 1.225.252.828.611 2.016 1.008 3.42 2.375-.793 4.859-1.619 7.271-2.375 1.8-.541 4.031.432 3.275 2.662-.827 2.449-2.447 4.572-4.247 6.156-2.052 1.799-4.067-.828-2.231-2.34 1.008-.793 2.016-2.016 2.556-3.168l.036-.035ZM93.987 97.99c-.936 0-1.943-.646-1.871-1.834.216-3.564.107-9.215-.072-12.635-.108-2.232 3.6-2.412 3.743-.145.181 3.24.181 9.395.108 12.742-.036 1.225-.972 1.871-1.908 1.871Zm.288 8.711c6.371-3.527 7.812-8.35 7.812-13.713 0-2.809-.181-7.271-.181-10.115 0-2.34 3.888-2.195 3.852 0-.071 3.061.108 7.092.108 10.078 0 6.191-1.872 12.42-9.323 16.703-2.951 1.691-4.535-1.693-2.268-2.953ZM124.203 108.646c-1.439.898-2.771.504-3.384-.324-.611-.828-.468-2.088.972-2.809 6.048-2.986 8.1-8.926 7.56-14.146-.145-1.512.828-2.195 1.979-2.195 1.116 0 2.196.541 2.16 2.053 0 .432 0 .898-.036 1.332.107-.037.18-.109.288-.145 2.411-.973 5.147-2.592 6.551-4.535.54-.756.54-1.297-.396-1.297-4.032-.035-11.879.072-16.918.324-3.168.145-2.988-3.311-.288-3.455 5.219-.252 13.066-.217 18.466-.217 3.743 0 5.471 3.133 2.951 5.977-2.376 2.699-5.003 5.002-8.927 6.406-.828.289-1.548.217-2.052-.107-.899 5.508-3.6 9.791-8.927 13.139ZM166.531 102.598c.216 5.148 5.831 4.932 7.702.938 1.261-2.701.253-5.076-1.764-7.271-1.871-2.053 1.225-3.959 2.808-2.125 2.808 3.24 3.816 6.66 2.448 10.295-2.592 6.84-14.074 8.027-14.362-1.584-.036-1.008-.036-2.086.036-3.203-1.296-.107-2.304-.324-2.771-.432-2.916-.791-1.8-4.211.252-3.527.827.252 1.764.469 2.771.539.144-1.584.324-3.166.504-4.787-1.368-.18-2.52-.432-2.987-.611-2.736-.936-1.152-4.248.756-3.455.791.324 1.691.576 2.591.684.036-.432.108-.9.145-1.332.216-2.268.288-3.635.396-5.328.181-2.52 3.6-1.943 3.6.182 0 1.691-.359 3.059-.611 5.182-.036.434-.108.865-.145 1.297.324-.037.612-.107.9-.18 2.34-.541 2.951 2.664.827 3.275-.72.215-1.439.287-2.195.359-.216 1.619-.396 3.168-.54 4.68.612-.072 1.188-.18 1.728-.324 2.376-.648 3.276 2.52 1.152 3.24-.972.324-2.088.504-3.204.576-.071 1.043-.071 2.016-.035 2.914ZM195.443 109.689c-.899-1.332-2.879-2.988-4.427-3.779-.685-.359-.972-.9-.972-1.439 0-.828.647-1.584 1.691-1.584 1.26 0 7.02 3.168 7.02 5.615 0 1.152-.973 1.98-1.944 1.98-.504 0-1.008-.252-1.368-.793ZM21.491 168.402c3.384-2.088 6.155-5.83 7.632-9.609 1.079-2.809 4.715-.938 3.635 1.439-2.088 4.535-4.896 8.531-8.998 11.41-2.412 1.691-4.752-1.691-2.269-3.24Zm24.441 1.512c-1.08-3.455-4.607-7.99-6.947-10.006-1.728-1.477.684-4.068 2.844-2.16 3.132 2.771 7.163 7.416 8.027 10.727.72 2.771-3.06 4.248-3.924 1.439ZM64.766 166.855c-.504-1.008-1.26-2.088-2.052-2.771-1.476-1.26.612-3.527 2.304-2.016.972.863 1.979 2.016 2.664 3.203 1.151 1.943-1.836 3.707-2.916 1.584Zm-.72 9.754c-.324-.756-.108-1.727.899-2.16 6.012-2.52 9.899-7.594 11.339-13.605.576-2.34 4.067-1.26 3.384.936-2.052 6.803-6.047 12.311-13.139 15.514-1.224.541-2.123.109-2.483-.684Zm5.543-11.734c-.359-1.08-1.008-2.232-1.691-3.023-1.296-1.439 1.116-3.42 2.592-1.656.828 1.008 1.619 2.305 2.159 3.564.864 2.123-2.304 3.42-3.06 1.115ZM99.214 168.727c-.071 1.764.72 2.627 2.88 2.916 2.088.287 7.919-.072 10.475-.973 2.735-.936 4.283 2.953.756 3.889-3.239.863-8.747.971-12.526.504-3.168-.396-5.075-2.447-5.111-5.4-.036-3.6.216-11.627.252-15.91 0-2.52 3.708-2.016 3.672.109-.036 1.943-.108 4.643-.181 7.307 2.844-.541 8.64-2.16 11.339-3.348 2.628-1.152 4.428 2.52 1.332 3.6-3.42 1.152-8.675 2.807-12.778 3.275-.036 1.584-.072 3.023-.108 4.031Zm16.774-11.555c-2.088 0-3.78-1.691-3.78-3.779s1.692-3.814 3.78-3.814 3.815 1.727 3.815 3.814-1.728 3.779-3.815 3.779Zm0-5.65c-1.008 0-1.8.863-1.8 1.871s.792 1.801 1.8 1.801 1.871-.793 1.871-1.801-.863-1.871-1.871-1.871ZM130.656 163.939c-1.296 0-1.907-.863-1.907-1.729 0-.898.684-1.836 1.907-1.836h22.605c1.224 0 1.836.9 1.836 1.801 0 .863-.612 1.764-1.836 1.764h-22.605ZM174.832 170.598c.216 5.148 5.831 4.932 7.702.938 1.261-2.701.253-5.076-1.764-7.271-1.871-2.053 1.225-3.959 2.808-2.125 2.808 3.24 3.816 6.66 2.448 10.295-2.592 6.84-14.074 8.027-14.362-1.584-.036-1.008-.036-2.086.036-3.203-1.296-.107-2.304-.324-2.771-.432-2.916-.791-1.8-4.211.252-3.527.827.252 1.764.469 2.771.539.144-1.584.324-3.166.504-4.787-1.368-.18-2.52-.432-2.987-.611-2.736-.936-1.152-4.248.756-3.455.791.324 1.691.576 2.591.684.036-.432.108-.9.145-1.332.216-2.268.288-3.635.396-5.328.181-2.52 3.6-1.943 3.6.182 0 1.691-.359 3.059-.611 5.182-.036.434-.108.865-.145 1.297.324-.037.612-.107.9-.18 2.34-.541 2.951 2.664.827 3.275-.72.215-1.439.287-2.195.359-.216 1.619-.396 3.168-.54 4.68.612-.072 1.188-.18 1.728-.324 2.376-.648 3.276 2.52 1.152 3.24-.972.324-2.088.504-3.204.576-.071 1.043-.071 2.016-.035 2.914ZM218.168 167.467c-.036 1.297-.18 2.627-.36 3.996-.539 3.672-3.275 6.623-7.631 6.623-2.34 0-4.571-.541-4.571-2.377 0-.898.612-1.764 1.62-1.764.18 0 .396.037.611.109.828.252 1.62.395 2.376.395 3.888 0 4.104-3.562 4.319-6.982l-14.182.072c-1.225 0-1.764-.793-1.764-1.584 0-.9.647-1.799 1.764-1.799l14.182.07c-.071-1.367-.216-2.734-.432-4.031l-11.41.072c-1.225 0-1.765-.791-1.765-1.584 0-.9.648-1.799 1.765-1.799l10.582.072c-.611-1.801-1.439-3.24-2.447-4.104-2.808.215-5.436.322-7.308.322-1.188 0-1.8-.863-1.8-1.691s.576-1.619 1.729-1.619h.035c.504 0 1.044.035 1.584.035 5.544 0 11.771-.684 16.846-1.943.181-.035.36-.072.54-.072 1.08 0 1.656.936 1.656 1.836 0 .684-.36 1.332-1.08 1.512-2.016.469-5.003.936-8.135 1.26.792 1.08 1.548 2.592 2.088 4.465l8.782-.072c1.116 0 1.692.863 1.692 1.727 0 .828-.54 1.656-1.692 1.656l-8.026-.072c.216 1.26.324 2.629.396 4.031l9.971-.07c1.116 0 1.692.863 1.692 1.727 0 .828-.54 1.656-1.692 1.656l-9.935-.072ZM242.376 175.135c-2.879-7.092-.036-17.746.612-22.029.396-2.664 3.888-1.873 3.491.215-.575 2.916-2.735 11.375-1.871 14.723.107.469.252.359.396.035.072-.18.468-.898.612-1.15 1.115-1.764 3.348-.037 2.52 1.402-1.332 2.34-1.908 3.996-2.124 5.041-.216.971.216 2.086-.684 2.879-.9.791-2.231.648-2.952-1.115Zm9.647-2.557c-1.477-1.619.684-4.176 2.556-2.484 1.943 1.764 6.263 1.189 9.07.613 2.916-.613 3.096 3.203.72 3.814-3.852.973-9.754.865-12.346-1.943Zm2.052-14.361c-1.98.504-3.132-2.701-.504-3.348 3.203-.793 6.946-.828 9.467-.217 2.52.611 1.835 3.996-.612 3.455-2.592-.539-5.327-.646-8.351.109ZM293.783 153.428c1.043 7.199 5.867 15.982 13.065 19.906.757.432 1.08 1.045 1.08 1.656 0 1.115-1.044 2.268-2.375 2.268-.396 0-.864-.107-1.296-.396-5.58-3.527-9.755-9.791-12.059-16.053-2.124 6.693-6.191 12.922-13.211 16.666-.396.215-.792.287-1.151.287-1.188 0-2.052-.973-2.052-1.98 0-.646.359-1.332 1.224-1.764 8.747-4.498 12.562-13.029 13.318-20.697-.108-1.367-.216-1.871-1.188-1.871h-.108l-5.111.252h-.108c-1.079 0-1.655-.863-1.655-1.764 0-.865.54-1.764 1.691-1.764 1.44-.037 3.06-.072 4.68-.072h1.152c2.159.035 3.852 1.225 3.923 3.168.036.646.072 1.332.181 2.016h.035l-.035.143ZM321.745 172.578c-1.62 2.844-5.256.648-3.275-1.691.107-.145.216-.252.288-.324 1.583-2.16 3.923-5.291 5.363-8.027.071-.719.107-1.404.18-2.123-.828.287-1.836.719-2.735 1.295-2.484 1.584-3.6-1.943-1.656-2.844 1.296-.611 3.023-1.332 4.716-1.979.252-2.699.54-5.111.72-6.695.288-2.377 3.672-1.621 3.312.359-.252 1.297-.504 3.096-.756 5.184 1.151-.145 2.159.936 1.62 2.627.432-.395.863-.791 1.26-1.115 5.579-4.572 10.798-4.248 10.33 2.916-.144 2.16-.72 5.975-.899 8.027-.36 4.104 1.764 3.67 4.176 1.115 1.835-1.943 4.103.684 2.591 2.375-4.571 5.004-11.015 4.428-10.187-3.527.18-1.908.828-5.795.937-7.955.107-2.555-.433-4.498-5.472-.324-1.728 1.441-3.42 2.736-5.147 4.68-.216 3.996-.18 7.955.288 10.691.432 2.484-3.348 3.311-3.636.287-.144-1.584-.144-3.959-.036-6.658-.756 1.295-1.403 2.664-1.979 3.707ZM374.059 172.002c2.628-2.34 2.52-5.76.468-7.127-1.872-1.26-5.759-1.512-9.395.611-1.44.828-2.196 1.477-3.023 2.701-1.296 1.906-4.896-.217-2.664-2.412 3.96-3.924 6.875-6.695 10.87-11.627.396-.504.036-.359-.252-.215-1.008.539-3.383 1.26-6.047 1.834-2.844.613-3.384-2.951-.936-3.238 2.411-.289 5.867-1.152 7.919-1.764 2.88-.828 5.255 1.727 3.455 3.742-1.151 1.297-2.592 2.701-4.031 4.033-1.439 1.33-2.88 2.627-4.176 3.887 3.168-1.691 7.451-1.691 10.115-.107 5.184 3.096 3.491 9.43-.288 12.166-3.563 2.555-9.179 2.699-11.914.9-3.816-2.484-2.124-6.947 2.123-7.092 2.88-.107 5.579 1.619 5.688 4.859.684-.145 1.439-.576 2.088-1.152Zm-7.667-1.08c-1.584.145-1.656 1.621-.504 2.232.828.432 2.016.576 3.023.539.036-1.654-.936-2.914-2.52-2.771ZM394.48 178.482c-2.268 0-4.104-1.836-4.104-4.104s1.836-4.104 4.104-4.104 4.104 1.834 4.104 4.104-1.836 4.104-4.104 4.104Zm0-6.805c-1.512 0-2.736 1.189-2.736 2.701s1.225 2.734 2.736 2.734 2.735-1.223 2.735-2.734-1.224-2.701-2.735-2.701ZM29.37 225.094c1.26.07 2.16.863 2.196 2.053.036 1.152.054 2.971.054 4.717 0 1.494-.018 2.953-.036 3.854-.054 1.674-1.008 2.377-2.755 2.447-.702.037-1.584.055-2.466.055-4.304 0-5.762-.035-5.834-2.467-.036-1.08-.055-2.611-.055-4.158 0-1.566.019-3.152.055-4.34.09-2.18 1.729-2.197 3.637-2.197.216-.666.396-1.439.469-1.908.054-.396.468-.576.899-.576.505 0 1.062.27 1.062.793 0 .305-.233.918-.558 1.674 1.296 0 2.629 0 3.331.055Zm.576 5.311h-7.833v2.18h7.833v-2.18Zm-.019-1.529c0-.414-.018-.793-.036-1.1-.054-1.225-.45-1.225-3.763-1.225-1.062 0-2.089.02-2.665.055-1.278.072-1.332.594-1.332 2.27h7.796Zm-7.796 5.238c0 .486.018.938.036 1.279.035 1.188.468 1.225 3.997 1.225.882 0 1.782-.02 2.376-.055 1.387-.072 1.387-.773 1.387-2.449h-7.796ZM45.572 230.584c-.937 6.428-6.032 7.869-6.608 7.869-.54 0-.899-.432-.899-.883 0-.324.197-.666.684-.811 3.367-1.043 4.628-3.438 5.023-6.176-.576 0-1.134.02-1.62.02-.504 0-.774-.361-.774-.738v-.109c-.811.938-2.089 2.197-2.881 2.197-.559 0-.973-.451-.973-.918 0-.27.145-.559.486-.775 1.765-1.098 2.701-2.395 3.565-4.033.216-.395.522-.557.828-.557.504 0 .973.414.973.918 0 .594-1.369 2.412-1.459 2.52.072-.018.145-.035.234-.035.756-.018 1.603-.018 2.467-.018 1.188 0 2.412 0 3.438.018 1.207.018 1.909.756 1.909 1.98 0 3.492-.108 7.328-4.088 7.328-.558 0-1.152-.09-1.782-.252-.414-.107-.612-.469-.612-.828 0-.469.324-.936.864-.936.09 0 .181.018.271.035.54.145 1.008.217 1.404.217 1.261 0 2.16-.613 2.16-5.061v-.27c0-.504-.252-.703-.63-.703h-1.98Zm-2.341-5.527h-.036c-.558 0-.846-.414-.846-.846 0-.414.27-.846.846-.846l2.953-.055h.072c.9 0 1.71.287 2.088 1.117 1.045 2.178 2.413 3.924 4.574 5.275.378.232.521.539.521.863 0 .541-.468 1.062-1.062 1.062-1.008 0-3.727-2.574-5.419-6.104-.181-.414-.522-.559-1.026-.559h-.09l-2.575.09ZM63.929 238.416c-1.459.289-1.927-1.494-.396-1.799.937-.182 1.854-.451 2.413-.775 1.98-1.152 2.521-2.395 2.143-3.115-.379-.719-1.692-.99-3.602-.125-1.062.486-2.196 1.332-2.412 1.549-1.062 1.025-1.783.521-2.107-.109-.324-.629-.288-1.746-.144-3.061.144-1.314.378-2.701.522-3.619.18-1.152 1.818-1.115 1.656.18-.09.758-.288 1.766-.433 2.629-.144.883-.233 1.549-.107 1.873.054.145.144.145.306.055.36-.199 1.206-.666 2.053-1.027 5.438-2.357 9.272 2.504 3.187 6.23-.756.469-1.89.883-3.078 1.115Zm-.072-11.486c-.864.217-1.513-.936-.757-1.35.091-.055.271-.145.145-.234-.378-.234-.99-.523-1.278-.848-.774-.846.414-1.799 1.314-1.152.324.234.937.506 1.458.848.522.342.99.773 1.026 1.314.036.521-.233 1.115-1.134 1.26-.234.035-.486.09-.774.162ZM77.861 234.275c-.072-1.891.126-3.42.216-5.33.054-1.17.181-2.934.145-4.051-.036-1.332 1.998-1.225 1.962-.035-.036 1.135-.162 2.844-.252 4.051-.126 1.908-.396 3.547-.324 5.293.108 2.629 3.313 2.449 6.446-.018 1.17-.918 2.269.738 1.242 1.566-3.511 2.863-9.272 3.385-9.435-1.477ZM98.849 237.787c-1.044-2.053-2.574-4.395-3.816-5.852-1.188-1.387-1.188-2.666.216-4.123 1.225-1.279 2.61-2.611 3.691-4.07.828-1.098 2.448.18 1.603 1.225-.9 1.098-2.81 2.664-3.926 3.781-.774.773-.81 1.314-.216 2.053 1.801 2.25 3.331 3.943 4.213 5.869.559 1.207-1.188 2.27-1.765 1.117ZM108.549 237.877c-.432 0-.846-.342-.846-.773 0-.182.054-.361.216-.559 1.296-1.549 1.603-3.961 1.639-5.564 0-.414.342-.594.684-.594.378 0 .774.217.774.594 0 .037-.018 4.25-1.729 6.5-.198.27-.468.396-.738.396Zm3.097-7.742h-2.755c-.504 0-.773-.396-.773-.775 0-.377.252-.756.756-.756h.018l1.819.018-.072-5.041v-.018c0-.521.414-.773.846-.773.414 0 .829.252.829.773v.018l-.055 3.332c.216-.451.54-1.279.702-1.838.09-.324.324-.467.576-.467.378 0 .792.305.792.756 0 .162-.071.631-.954 2.16-.126.217-.342.307-.54.307-.234 0-.468-.107-.576-.307l-.018 1.098 1.656-.018h.018c.486 0 .721.361.721.738 0 .396-.271.793-.738.793h-.792l-.019 3.619c.36-.199.702-.414 1.026-.648.126-.09.271-.127.396-.127.36 0 .666.307.666.668 0 .197-.108.432-.36.611-1.08.811-2.898 1.854-3.385 1.854-.45 0-.738-.377-.738-.756 0-.467.469-.684.973-.881l-.019-4.34Zm-2.448-2.773c-.181-.648-.648-1.404-.828-1.656-.072-.125-.108-.234-.108-.342 0-.379.396-.648.792-.648.181 0 .36.072.486.197.433.451 1.045 1.566 1.045 2.107 0 .504-.396.828-.774.828-.252 0-.505-.145-.612-.486Zm10.587 8.842v1.746c0 .504-.396.756-.792.756-.414 0-.811-.252-.811-.756l.019-1.746-3.476.018c-.486 0-.738-.361-.738-.721 0-.342.252-.701.738-.701l3.476.018v-.99c-3.134 0-3.169-.434-3.169-2.846 0-2.377.378-2.611 3.187-2.611v-.846l-1.711.018c-.45 0-.684-.287-.72-.611-.145.145-.36.217-.559.217-.378 0-.756-.234-.773-.703 0-.234-.019-.469-.019-.721 0-1.26.108-2.215 1.747-2.232.864-.018 1.836-.035 2.809-.035.99 0 1.98.018 2.881.035.954.018 1.801.559 1.801 1.621 0 .287.018.666.018 1.025 0 .289 0 .955-.847.955-.216 0-.432-.055-.576-.199-.018.344-.27.648-.756.648l-1.765-.018v.828c2.809 0 3.277.145 3.277 2.629 0 2.756-.324 2.846-3.259 2.846l.018.99 3.619-.018c.486 0 .72.359.72.701 0 .359-.233.721-.72.721l-3.619-.018Zm2.287-10.66c0-.521-.288-.631-.9-.648-.648-.018-1.603-.018-2.485-.018-2.593 0-2.719.055-2.719.648v.846c.126-.125.307-.215.54-.215l1.711.018v-.396c0-.469.378-.703.756-.703.396 0 .774.234.774.703v.396l1.765-.018c.234 0 .433.09.559.215v-.828Zm-3.854 4.016c-1.44 0-1.603 0-1.639.738l-.018.197h1.639l.018-.936Zm-.018 2.035h-1.639c0 .125.018.252.018.359.054.611.181.648 1.621.648v-1.008Zm3.259-1.369c-.019-.666-.252-.666-1.692-.666v.936h1.71l-.018-.27Zm-1.692 1.369v1.008c1.26 0 1.674-.037 1.692-.666 0-.127.018-.234.018-.342h-1.71ZM134.991 237.787c-1.044-2.053-2.574-4.395-3.816-5.852-1.188-1.387-1.188-2.666.216-4.123 1.225-1.279 2.61-2.611 3.691-4.07.828-1.098 2.448.18 1.603 1.225-.9 1.098-2.81 2.664-3.926 3.781-.774.773-.81 1.314-.216 2.053 1.801 2.25 3.331 3.943 4.213 5.869.559 1.207-1.188 2.27-1.765 1.117ZM146.508 238.346c-.45-.666-1.44-1.496-2.215-1.891-.342-.182-.486-.451-.486-.721 0-.414.324-.793.847-.793.63 0 3.511 1.586 3.511 2.809 0 .576-.486.99-.973.99-.252 0-.504-.125-.684-.395ZM160.988 232.943c-.631-1.746.342-3.043 1.44-3.385.521-.162 1.062-.234 1.548-.162-.018-.396-.036-.936-.054-1.459-1.513.145-3.007.361-3.943.504-1.296.199-2.143.434-2.683.523-1.206.215-1.566-1.586-.145-1.818.721-.127 1.891-.254 2.647-.379.9-.145 2.521-.342 4.105-.486v-.324c.018-1.115-.091-1.188-.091-1.764 0-1.314 1.819-1.189 1.891-.055.019.414-.036 1.242-.071 1.729 0 .09-.019.18-.019.27.522-.035.99-.053 1.387-.053.882 0 1.513-.02 2.736 0 1.513.035 1.44 1.943 0 1.836-1.278-.107-1.71-.107-2.826-.127-.414 0-.847.02-1.314.037.018.576.036 1.135.036 1.656 0 .252.035.631.054 1.025 1.603 2.521-.307 6.338-2.215 7.869-1.206.955-2.772-.324-1.206-1.439.864-.613 1.62-1.621 2.053-2.648-1.188.613-2.755.271-3.331-1.35Zm3.024-1.891c-.252-.217-.774-.252-1.152-.072-.432.199-.72.756-.522 1.369.324.973 1.891.973 2.071-.307.054-.379 0-.541-.108-.684-.09-.109-.18-.217-.288-.307ZM181.078 230.459c-.9-.666-1.369-.631-2.125-.037-.864.686-1.71 1.459-2.665 2.018-1.188.701-2.484-.938-1.044-1.693.45-.234 1.818-1.062 2.736-1.709 1.567-1.117 2.773-.883 4.069.053 2.305 1.656 4.808 3.836 7.311 5.133 1.17.594.216 2.484-1.17 1.799-2.179-1.08-5.024-4.014-7.112-5.562Zm2.629-2.035c-.955-.414-.234-1.549.647-1.225.505.18 1.477.703 1.891 1.152.738.793-.359 1.928-.99 1.189-.252-.289-1.17-.955-1.548-1.117Zm1.729-1.656c-.973-.379-.271-1.531.611-1.242.505.162 1.495.648 1.927 1.08.757.756-.306 1.945-.954 1.225-.252-.289-1.206-.918-1.584-1.062ZM199.122 229.162c.181-.342.343-.631.576-.936.288-.379.198-.361-.144-.252-1.351.432-1.045.432-2.269.9-.576.215-1.081.395-1.621.539-1.584.432-2.053-1.639-.612-1.945.379-.09 1.423-.287 1.999-.432.882-.215 2.448-.576 4.285-1.098 1.854-.521 3.331-.955 4.915-1.062 1.117-.072 1.423.811 1.225 1.387-.107.307-.504.666-1.765.594-.918-.055-2.07.289-2.683.504-1.008.361-1.908 1.441-2.305 2.107-1.584 2.646-.378 6.428 3.655 6.283 1.891-.072 1.999 2.053.09 2.035-5.438-.018-7.31-5.006-5.348-8.625ZM219.559 228.137c-.288 2.285-1.908 5.689-3.637 7.291-1.387 1.279-2.899.576-3.691-.973-1.135-2.232.072-5.58 2.484-7.256 2.215-1.529 5.51-1.781 7.778-.414 2.791 1.676 3.241 4.988 1.675 7.562-.847 1.387-2.611 2.502-4.394 2.971-1.584.414-2.143-1.404-.594-1.764 1.368-.307 2.755-1.08 3.349-2.018 1.278-2.016.792-4.375-.99-5.51-.702-.449-1.458-.666-2.232-.719.198.18.306.467.252.828Zm-3.997.342c-1.675 1.295-2.575 3.691-1.818 5.076.27.523.737.793 1.188.396 1.351-1.188 2.611-4.051 2.791-5.996.019-.215.072-.414.162-.557-.828.18-1.639.557-2.322 1.08ZM233.278 237.373c-.162-.469.055-1.062.883-1.242 4.141-.9 6.176-4.467 6.338-7.383.036-.721-.234-1.025-.937-1.062-1.278-.072-4.142-.018-5.023.018-.576.037-.954.396-.973.865-.018.469.019 1.729.072 2.34.09 1.207-1.837 1.459-1.927.145-.054-.756-.036-2.611 0-3.15.055-.973.54-1.783 2.557-1.818 1.477-.037 3.602-.072 5.636-.055 2.089.018 2.737.703 2.575 2.791-.288 3.943-2.845 7.742-7.797 9.164-.702.199-1.242-.162-1.404-.611ZM249.968 231.467c-.648 0-.954-.432-.954-.863 0-.451.342-.92.954-.92h11.307c.612 0 .919.451.919.9 0 .434-.307.883-.919.883h-11.307ZM275.273 230.998c1.459-.414 2.917-.828 4.016-1.115 1.404-.361 1.639 1.367.522 1.619-1.026.234-2.503.631-4.033 1.082.576 1.818 1.098 3.51 1.44 4.572.216.666-.162 1.152-.595 1.314-.432.162-.972 0-1.134-.648-.288-1.115-.793-2.881-1.369-4.752-1.602.484-3.169.971-4.267 1.35-1.188.396-1.729-1.279-.378-1.693 1.044-.324 2.557-.791 4.159-1.26-.198-.631-.396-1.26-.576-1.854-1.116.305-2.215.611-3.151.828-1.296.305-1.639-1.334-.45-1.604.99-.217 2.053-.486 3.115-.773-.36-1.152-.702-2.143-.919-2.809-.414-1.225 1.423-1.514 1.711-.523.18.648.504 1.676.864 2.863 1.026-.287 1.999-.611 2.845-.883 1.171-.377 1.549 1.262.45 1.604-.811.252-1.782.559-2.809.846l.558 1.836ZM289.499 229.793c-.667-.613-1.819-1.135-2.665-1.332-1.08-.254-.631-2.072.738-1.693.954.27 2.305.756 3.169 1.369.558.395.521 1.08.233 1.494s-.918.666-1.476.162Zm-1.117 7.436c-1.53.486-2.106-1.566-.611-1.945 3.618-.918 7.256-4.645 9.074-8.174.576-1.115 2.431-.359 1.639 1.062-2.232 4.051-5.96 7.742-10.102 9.057ZM310.758 226.047c.773-.053 1.656-.107 2.376-.145 1.387-.07 2.593.9 1.927 2.18-2.196 4.195-4.682 7.832-9.741 9.83-1.53.596-2.269-1.17-.773-1.691 3.997-1.387 6.968-4.971 8.3-8.031.145-.342 0-.684-.432-.666-.757.018-2.07.145-2.881.234-1.225 1.621-2.809 3.512-4.052 4.357-1.206.811-2.269-.756-1.044-1.512 1.729-1.062 4.069-4.357 4.897-5.781.594-1.008 2.395-.143 1.549 1.062l-.126.162Zm3.78-.953c-.918-.379-.197-1.459.631-1.152.486.18 1.386.646 1.782 1.08.702.756-.342 1.854-.937 1.152-.233-.289-1.116-.918-1.477-1.08Zm1.639-1.549c-.918-.361-.27-1.441.576-1.17.486.162 1.404.611 1.818 1.025.721.721-.306 1.855-.918 1.17-.252-.27-1.116-.881-1.477-1.025ZM328.917 227.02c.847 0 1.657.018 2.359.035 1.296.037 2.25.721 2.179 2.035-.234 3.836-2.521 7.635-7.904 8.984-1.279.324-1.819-1.494-.469-1.764 4.231-.846 6.212-3.979 6.356-6.752.036-.576-.234-.918-.847-.955-1.477-.072-4.268-.053-5.329 0-.595.037-.829.504-.829.9 0 .432.036 1.531.055 2.07.018 1.117-1.854 1.225-1.873.09-.018-.521 0-1.691-.018-2.592-.036-1.584 1.513-1.98 2.215-1.998.702-.02 1.477-.037 2.269-.037 0-.701-.019-1.711-.019-2.16 0-.594.469-.883.937-.883s.918.289.918.848v2.178ZM340.947 231.467c-.648 0-.955-.432-.955-.863 0-.451.343-.92.955-.92h11.307c.612 0 .919.451.919.9 0 .434-.307.883-.919.883h-11.307ZM367.337 234.727c.324.611.072 1.17-.342 1.439s-.973.252-1.314-.307c-.648-1.025-2.791-2.881-4.249-3.564-.99-.469-.126-2.016 1.134-1.369.685.344 1.477.811 2.233 1.334 1.025-.631 2.881-2.053 3.709-2.881.233-.234.378-.613-.162-.613-2.251-.018-6.645.055-9.436.162-1.35.055-1.476-1.781-.018-1.818 2.827-.055 7.256-.145 10.245-.09 1.62.018 2.791 1.387 1.692 2.629-1.08 1.242-2.953 2.736-4.556 3.781.45.432.829.863 1.062 1.297ZM380.951 229.793c-.667-.613-1.819-1.135-2.665-1.332-1.08-.254-.63-2.072.738-1.693.954.27 2.305.756 3.169 1.369.558.395.521 1.08.233 1.494s-.918.666-1.476.162Zm-1.117 7.436c-1.53.486-2.106-1.566-.611-1.945 3.619-.918 7.256-4.645 9.074-8.174.576-1.115 2.431-.359 1.639 1.062-2.232 4.051-5.96 7.742-10.102 9.057ZM402.997 228.137c-.288 2.285-1.909 5.689-3.638 7.291-1.386 1.279-2.898.576-3.69-.973-1.135-2.232.072-5.58 2.484-7.256 2.215-1.529 5.51-1.781 7.778-.414 2.791 1.676 3.241 4.988 1.675 7.562-.847 1.387-2.611 2.502-4.394 2.971-1.584.414-2.143-1.404-.594-1.764 1.368-.307 2.755-1.08 3.349-2.018 1.278-2.016.792-4.375-.99-5.51-.702-.449-1.458-.666-2.232-.719.198.18.306.467.252.828Zm-3.997.342c-1.675 1.295-2.575 3.691-1.818 5.076.27.523.738.793 1.188.396 1.351-1.188 2.611-4.051 2.791-5.996.019-.215.072-.414.162-.557-.828.18-1.639.557-2.322 1.08ZM415.897 237.049c-.54 1.207-2.448.684-1.692-.846.774-1.586 2.053-4.322 3.151-7.814-.955.107-1.873.072-2.629-.252-.919-.396-.738-2.035.612-1.549.756.27 1.638.27 2.484.107.108-.666.036-1.152-.018-1.945-.072-1.025 1.62-1.08 1.8-.09.072.451.072.938.019 1.441.252-.127.468-.252.684-.379.937-.611 2.053.883.702 1.549-.504.252-1.152.521-1.818.721-1.134 3.943-2.412 7.059-3.295 9.057Zm4.375-.811c-.773-.863.343-2.287 1.278-1.332.919.936 2.018.846 4.124.666 1.314-.107 1.422 1.621.233 1.854-2.61.523-4.843-.305-5.636-1.188Zm2.035-6.283c-.937.342-1.494-1.135-.307-1.549.919-.324 2.558-.541 4.321.09 1.207.432.721 2.016-.414 1.639-1.008-.342-2.646-.541-3.601-.18ZM437.465 234.617c-2.125 2.287-4.016 1.494-4.502-.773-.378-1.729.486-3.709 1.98-5.131-.126-.379-.252-.775-.342-1.172-.09-.359-.271-1.188-.342-1.566-.307-1.494 1.729-1.477 1.8-.197.036.539.072.846.181 1.494.018.127.054.27.09.396.126-.072.234-.145.36-.199.918-.467 1.998-.719 3.079-.756.144-.719.233-1.457.233-1.943-.018-1.262 1.854-1.117 1.783.197-.036.631-.108 1.225-.253 1.908 1.675.379 3.115 1.424 3.619 3.26.937 3.33-1.278 5.816-4.393 6.932-1.369.504-2.251-1.207-.685-1.674 3.133-.955 3.835-3.025 3.403-4.736-.343-1.367-1.242-2.105-2.323-2.412-.054.162-.107.342-.18.521-.414 1.117-1.08 2.449-1.837 3.637.072.055.145.127.234.182.414.287.36.809.126 1.115s-.702.486-1.188.18c-.054-.035-.09-.053-.144-.09-.234.307-.469.576-.702.828Zm-1.963-4.393c-.756.955-1.188 2.07-1.009 3.025.271 1.404 1.116 1.008 1.621.486.27-.271.558-.631.864-1.027-.595-.701-1.08-1.566-1.477-2.484Zm1.746-1.477c-.18.09-.359.197-.521.324.306.811.702 1.549 1.224 2.197.595-.973 1.116-2.018 1.405-2.918.018-.072.054-.162.071-.252-.774.072-1.548.307-2.179.648ZM452.356 237.066c-1.44-3.547-.018-8.877.307-11.02.198-1.332 1.944-.936 1.746.109-.288 1.457-1.368 5.689-.937 7.363.055.234.127.18.198.018.036-.09.234-.449.307-.576.558-.883 1.674-.018 1.26.703-.666 1.17-.954 1.998-1.062 2.52-.108.486.107 1.045-.343 1.441s-1.116.324-1.477-.559Zm4.826-1.277c-.738-.811.342-2.09 1.278-1.244.972.883 3.133.596 4.537.307 1.458-.307 1.549 1.604.36 1.908-1.927.486-4.88.434-6.176-.971Zm1.026-7.186c-.991.252-1.567-1.35-.253-1.674 1.603-.396 3.476-.414 4.735-.107 1.261.305.919 1.998-.306 1.729-1.296-.271-2.665-.324-4.177.053ZM477.087 231.088c-.306 0-.468-.252-.468-.521 0-.252.162-.521.468-.521h18.005c.307 0 .469.27.469.521 0 .27-.162.521-.469.521h-18.005Z" fill="#fff"/><path d="m495.268,231.088c-.306,0-.468-.252-.468-.521,0-.252.162-.521.468-.521h18.006c.306,0,.468.27.468.521,0,.27-.162.521-.468.521h-18.006Z" fill="#fff"/></g></svg>