<svg xmlns="http://www.w3.org/2000/svg" viewBox="0 0 512 512"><path fill="#fff" d="M0 0h512v512H0z"/><path fill="#f6b400" d="m155.381 184.276 30.928-26.017a3.203 3.203 0 0 0 1.07-3.225 3.235 3.235 0 0 0-2.421-2.397l-32.686-7.473a3.246 3.246 0 0 0-2.795.672 3.161 3.161 0 0 0-.914 1.257c-.18.429-.265.906-.242 1.39l1.749 33.482a3.24 3.24 0 0 0 1.937 2.803 3.234 3.234 0 0 0 3.373-.492M186.95 353.364l-28.906-28.227a3.276 3.276 0 0 0-3.319-.742 3.245 3.245 0 0 0-2.155 2.639l-4.224 33.271a3.232 3.232 0 0 0 .953 2.717c.367.367.836.64 1.327.781a3.17 3.17 0 0 0 1.406.102l33.154-5.028a3.199 3.199 0 0 0 2.584-2.202 3.189 3.189 0 0 0-.82-3.311M356.589 184.276l-30.936-26.017a3.212 3.212 0 0 1-1.062-3.225 3.246 3.246 0 0 1 2.428-2.397l32.686-7.473a3.28 3.28 0 0 1 2.803.672c.399.336.703.781.898 1.257.187.429.265.906.242 1.39l-1.757 33.482a3.202 3.202 0 0 1-1.929 2.803 3.237 3.237 0 0 1-3.373-.492M325.012 353.364l28.922-28.227a3.276 3.276 0 0 1 3.319-.742 3.227 3.227 0 0 1 2.139 2.639l4.232 33.271a3.202 3.202 0 0 1-.945 2.717c-.375.367-.828.64-1.335.781a3.15 3.15 0 0 1-1.405.102l-33.162-5.028a3.252 3.252 0 0 1-2.592-2.202 3.255 3.255 0 0 1 .828-3.311M304.125 160.164l-44.265-58.32c-2.335-3.061-5.513-3.092-7.902-.062l-45.237 57.555c-1.827 2.303-2.897 6.044-2.897 10.002s1.085 7.668 2.904 9.893l44.3 54.267c1.124 1.374 2.428 2.069 3.74 2.077 1.312.016 2.624-.648 3.787-2.015l45.202-53.502c1.866-2.202 2.998-5.864 3.092-9.831.062-3.967-.961-7.73-2.725-10.065M304.125 325.926l-44.265-58.32c-2.335-3.061-5.513-3.092-7.902-.07l-45.237 57.547c-1.827 2.311-2.897 6.051-2.897 10.018s1.085 7.66 2.904 9.877l44.3 54.275c1.124 1.382 2.428 2.069 3.74 2.077 1.312.024 2.624-.656 3.787-2.015l45.202-53.487c1.866-2.202 2.998-5.88 3.092-9.838.062-3.967-.961-7.73-2.725-10.065M344.244 299.581l58.32-44.257c3.069-2.335 3.092-5.505.062-7.902l-57.547-45.241c-2.304-1.819-6.044-2.889-10.003-2.889s-7.675 1.085-9.901 2.897l-54.26 44.296c-1.382 1.124-2.069 2.436-2.085 3.74-.008 1.32.656 2.631 2.03 3.795l53.487 45.202c2.194 1.858 5.864 2.998 9.839 3.076 3.974.078 7.738-.937 10.057-2.717M178.486 299.581l58.324-44.257c3.061-2.335 3.092-5.505.055-7.902l-57.543-45.241c-2.304-1.819-6.044-2.889-10.011-2.889s-7.66 1.085-9.885 2.897l-54.26 44.296c-1.39 1.124-2.077 2.436-2.085 3.74-.023 1.32.664 2.631 2.015 3.795l53.495 45.202c2.202 1.858 5.872 2.998 9.831 3.076 3.974.078 7.738-.937 10.065-2.717"/><path fill="#ef5a49" d="m236.747 427.028-29.414-46.702a6.743 6.743 0 0 0-7.328-2.952l-53.581 13.173a6.755 6.755 0 0 0-4.693 4.123 6.798 6.798 0 0 0 .71 6.223l30.25 44.609a6.73 6.73 0 0 0 3.068 2.467 6.735 6.735 0 0 0 3.912.351l52.741-11.088a6.693 6.693 0 0 0 4.833-3.967 6.77 6.77 0 0 0-.5-6.239M278.725 436.07l53.822 12.22a6.773 6.773 0 0 0 7.277-3.076l28.586-47.224a6.74 6.74 0 0 0 .383-6.231 6.791 6.791 0 0 0-4.904-3.896l-52.924-10.151c-1.351-.265-2.702-.086-3.92.429a6.531 6.531 0 0 0-2.998 2.53l-29.468 45.116a6.738 6.738 0 0 0-.609 6.231 6.768 6.768 0 0 0 4.755 4.053M368.34 113.4l-29.414-46.701a6.748 6.748 0 0 0-7.332-2.967l-53.58 13.172a6.808 6.808 0 0 0-4.693 4.139 6.803 6.803 0 0 0 .71 6.223l30.257 44.601a6.775 6.775 0 0 0 6.98 2.818l52.737-11.08a6.804 6.804 0 0 0 4.841-3.975 6.752 6.752 0 0 0-.508-6.231M146.542 123.372l53.815 12.228c2.834.648 5.762-.609 7.273-3.1l28.578-47.201a6.742 6.742 0 0 0 .391-6.239c-.882-2.023-2.725-3.475-4.911-3.889l-52.905-10.159a6.774 6.774 0 0 0-3.927.422 6.63 6.63 0 0 0-2.998 2.53L142.39 113.08a6.741 6.741 0 0 0-.609 6.231 6.756 6.756 0 0 0 4.763 4.061M426.551 269.379l-46.686 29.398a6.757 6.757 0 0 0-2.959 7.332l13.172 53.596a6.748 6.748 0 0 0 10.346 3.967l44.605-30.249a6.609 6.609 0 0 0 2.467-3.069c.5-1.203.648-2.569.351-3.92l-11.08-52.737a6.737 6.737 0 0 0-3.97-4.825c-2.046-.851-4.365-.679-6.247.508M435.183 227.393l12.227-53.814c.633-2.842-.601-5.77-3.084-7.27l-47.221-28.586a6.724 6.724 0 0 0-6.231-.39c-2.03.906-3.49 2.733-3.888 4.896l-10.166 52.932a6.856 6.856 0 0 0 .422 3.912 6.83 6.83 0 0 0 2.522 3.014l45.132 29.468a6.735 6.735 0 0 0 6.215.594 6.752 6.752 0 0 0 4.072-4.755M113.849 137.793l-46.694 29.398a6.757 6.757 0 0 0-2.959 7.332l13.172 53.588a6.75 6.75 0 0 0 4.139 4.685 6.681 6.681 0 0 0 6.207-.711l44.609-30.249a6.81 6.81 0 0 0 2.475-3.053 6.86 6.86 0 0 0 .344-3.928l-11.08-52.737a6.785 6.785 0 0 0-3.975-4.841 6.798 6.798 0 0 0-6.239.515M123.805 359.572l12.251-53.814c.64-2.819-.617-5.762-3.1-7.277l-47.201-28.563a6.713 6.713 0 0 0-6.247-.39 6.731 6.731 0 0 0-3.904 4.88l-10.143 52.94a6.897 6.897 0 0 0 .414 3.904 6.622 6.622 0 0 0 2.538 3.022l45.124 29.46c1.843 1.218 4.169 1.437 6.231.617a6.751 6.751 0 0 0 4.037-4.779"/></svg>