<svg xmlns="http://www.w3.org/2000/svg" width="58" height="58" viewBox="0 0 58 58"><g><path d="m20.661,24.121l-5.26,1.366c-1.116.374-1.719,1.588-1.347,2.711s1.578,1.73,2.694,1.356l4.763-1.04" fill="none" stroke="#d13e2e" stroke-linejoin="round" stroke-width="1.5"/><path d="M15.5 29.585c-.396.112-.829.11-1.249-.031l-4.763-1.04M10.339 24.121 15.5 25.462M15.5 52.49 15.5 34.424" fill="none" stroke="#d13e2e" stroke-linejoin="round" stroke-width="1.5"/><path d="M15.5 52.5h2.617c1.115 0 2.069-.91 2.126-2.026-.004-.06 1.283-21.905 1.268-21.96 3.86-1.079 7.887-3.141 6.015-7.874-1.818-2.797-3.371-8.193-7.05-9.228m.207 12.709c-.099-.675-.246-1.613-.141-2.291l.623-4.653c2.85 5.99 4.71 5.189-.482 6.944ZM10.524 11.413c-3.679 1.034-5.233 6.43-7.05 9.228-1.872 4.733 2.155 6.795 6.015 7.874-.015.055 1.272 21.9 1.268 21.96.057 1.116 1.011 2.025 2.126 2.026h2.617m-5.665-35.323.623 4.653c.105.678-.043 1.616-.141 2.291-5.191-1.755-3.332-.954-.482-6.944Z" fill="none" stroke="#d13e2e" stroke-linejoin="round" stroke-width="1.5"/><ellipse cx="15.5" cy="11.428" rx="4.976" ry="4.928" fill="none" stroke="#d13e2e" stroke-linejoin="round" stroke-width="1.5"/><path d="m47.411 25.058-5.385 1.534c-1.071.381-1.65 1.617-1.293 2.761s1.515 1.762 2.586 1.38l4.753-1.121M38.488 40 42.5 40M46.512 40 42.5 40" fill="none" stroke="#d13e2e" stroke-linejoin="round" stroke-width="1.5"/><path d="M42.501 30.838c-.268.024-.545-.008-.817-.105l-4.753-1.121M37.592 25.058 42.502 26.456M42.5 52.5 42.5 40.445M42.5 52.5c.396.004.78-.016 1.115-.033 1.07 0 1.985-.927 2.039-2.051l.857-10.971c5.084.522 1.857-7.131 1.557-9.833 3.596-1.176 7.205-3.294 5.493-7.959-1.431-2.868-2.929-8.808-6.401-9.427m2.886 11.57c-.168.409-2.262 1.033-2.616 1.262-.112-1.091-.287-2.613-.117-3.701l.392-2.846c.053.3 2.733 5.067 2.342 5.284Z" fill="none" stroke="#d13e2e" stroke-linejoin="round" stroke-width="1.5"/><path d="m37.84,12.226c-3.471.619-4.97,6.559-6.401,9.427-1.712,4.665,1.897,6.783,5.493,7.959-.3,2.701-3.527,10.355,1.557,9.833l.857,10.971c.054,1.124.969,2.051,2.039,2.051.336.017.72.037,1.115.033m-5.205-33.988l.392,2.846c.169,1.087-.005,2.61-.117,3.701-.355-.229-2.448-.854-2.616-1.262-.391-.216,2.289-4.984,2.342-5.284Z" fill="none" stroke="#d13e2e" stroke-linejoin="round" stroke-width="1.5"/><ellipse cx="42.519" cy="12.233" rx="4.68" ry="4.733" fill="none" stroke="#d13e2e" stroke-linejoin="round" stroke-width="1.5"/></g></svg>