<svg version="1.1" xmlns="http://www.w3.org/2000/svg" xmlns:xlink="http://www.w3.org/1999/xlink" x="0px" y="0px" width="32px" height="32px" viewBox="0 0 32 32" xml:space="preserve"><g><path fill="#1877F2" d="M32,16c0-8.8-7.2-16-16-16S0,7.2,0,16c0,8,5.9,14.6,13.5,15.8V20.6H9.4V16h4.1v-3.5c0-4,2.4-6.2,6-6.2 c1.8,0,3.6,0.3,3.6,0.3v3.9h-2c-2,0-2.6,1.2-2.6,2.5v3h4.4l-0.7,4.6h-3.7v11.2C26.1,30.6,32,24,32,16z"/><path fill="#FFF" d="M22.2,20.6l0.7-4.6h-4.4v-3c0-1.3,0.6-2.5,2.6-2.5h2V6.6c0,0-1.8-0.3-3.6-0.3c-3.7,0-6,2.2-6,6.2V16H9.4 v4.6h4.1v11.2c0.8,0.1,1.6,0.2,2.5,0.2s1.7-0.1,2.5-0.2V20.6H22.2z"/></g></svg>