<svg version="1.1" xmlns="http://www.w3.org/2000/svg" xmlns:xlink="http://www.w3.org/1999/xlink" x="0px" y="0px" width="425.2px" height="111.1px" viewBox="0 0 425.2 111.1" xml:space="preserve"><g><path fill="#0A3E6F" d="M0 1.1v109.9h100.4V15.5l11.5-14.4H0zM78.8 46.8H22.1V16.9h56.6V46.8zM22.1 62.6h56.6v32.5H22.1V62.6zM305.6 55.7c14.3-4.1 19.9-10.5 19.9-23.6 0-19.4-12.4-31-33.8-31h-68L234.1 16v95h57.8c27.6 0 33.8-16.7 33.8-31.7C325.7 68 323.2 60.8 305.6 55.7M283.2 17c15 0 18.9 5.3 18.9 14.7s-2.1 14.8-18.9 14.8h-26.3V17H283.2zM285.2 94.8h-28.3V63.2h32.6c12.6 0 14.6 8.3 14.6 15.7C304.1 88.3 302.9 94.8 285.2 94.8M163.3 67.4c-3-12.1-6.9-23.9-10.1-31.9h-7.8l18.7-24.1h-19.9l-11.9 16.1-5.3-3.6L146.5 0H126l-15.8 20v10.7l12.8 8.7L110.2 56v11.4h19.2v43.7h17.2V67.4H163.3zM144 55.4h-14l10.7-13.8C141.9 45.8 143.1 50.7 144 55.4"/><path fill="#0A3E6F" d="M183.4 21.5h-19c2.7 7.4 7.1 13.9 13 19.2-4.3 2.1-9.3 3.6-14.7 4.6v13.2c11.2-1.2 20.6-4.3 28.4-8.7 8.7 4.2 19.3 7.1 31.6 8.3V44c-6.1-.9-12.3-2.5-18.1-4.7 7.7-8 12.7-17.8 15.4-28.3l-7.3-10.3h-47.5v14.7h32.6c-1.3 6-4 11.2-7.7 15.5C187.2 28.2 184.7 25.1 183.4 21.5M384.8 1.1h-61.8L333.6 16v19.5c0 11.5 5.9 16.5 20 20.2-14 3.5-20 10.1-20 19.9v35.4h23.3V72.3h28c27.6 0 40.4-17 40.4-34.9C425.2 11.3 406.3 1.1 384.8 1.1M380.3 55.7h-23.4V17.9h23.4c15 0 21.8 7.1 21.8 18.9C402 46.2 398 55.7 380.3 55.7M109.5 110.1h12.2c1.7-10.2 2.8-23.9 3.4-36.7h-14.5C110.6 84.6 110.2 98.3 109.5 110.1z"/><path fill="#0A3E6F" d="M201.6,96.6V83.3h16.7V69.2h-16.7V56.4h-18.4v12.7h-15.5v14.1h15.5v13.3h-17.3c-1-8.1-2.1-16.2-3.3-23.2 h-11.8c1.1,11.3,2.1,24.5,2.6,37.2l71.7,0v-14H201.6z"/></g></svg>