<svg xmlns="http://www.w3.org/2000/svg" width="190" height="75.948" viewBox="0 0 190 75.948"><g><path d="m16.143 25.511 5.464-4.596c.167-.138.24-.359.189-.57-.051-.211-.217-.375-.428-.423l-5.774-1.32c-.175-.039-.359.004-.494.119-.072.059-.128.138-.161.222-.032.076-.047.16-.043.246l.309 5.915c.011.217.144.408.342.495.199.087.43.052.596-.087M21.719 55.381l-5.106-4.986c-.156-.15-.383-.2-.586-.131-.206.072-.353.252-.381.466l-.746 5.877c-.022.178.04.355.168.48.065.065.148.113.234.138.08.025.166.03.248.018l5.857-.888c.215-.032.392-.183.457-.389.069-.207.012-.433-.145-.585M51.687 25.511l-5.464-4.596c-.166-.138-.24-.359-.188-.57.052-.211.217-.375.428-.423l5.775-1.32c.174-.039.357.004.495.119.07.059.123.138.158.222.034.076.047.16.043.246l-.31 5.915c-.01.217-.141.408-.341.495-.199.087-.43.052-.596-.087M46.108 55.381l5.109-4.986c.155-.15.383-.2.586-.131.205.072.35.252.378.466l.748 5.877c.023.178-.039.355-.168.48-.065.065-.145.113-.236.138-.079.025-.162.03-.248.018l-5.857-.888c-.212-.032-.391-.183-.458-.389-.066-.207-.008-.433.146-.585M42.419 21.252l-7.819-10.302c-.412-.541-.975-.546-1.397-.011l-7.991 10.167c-.323.407-.512 1.068-.512 1.767s.192 1.354.513 1.748l7.826 9.586c.198.243.428.366.66.367.232.003.463-.114.669-.356l7.984-9.451c.33-.389.53-1.036.547-1.737.01-.701-.17-1.366-.481-1.778M42.419 50.534l-7.819-10.302c-.412-.541-.975-.546-1.397-.012l-7.991 10.166c-.323.408-.512 1.069-.512 1.77s.192 1.353.513 1.745l7.826 9.588c.198.244.428.366.66.367.232.004.463-.116.669-.356l7.984-9.449c.33-.389.53-1.039.547-1.738.01-.701-.17-1.366-.481-1.778M49.506 45.88l10.302-7.818c.542-.412.545-.972.011-1.396l-10.166-7.992c-.406-.321-1.067-.51-1.766-.51s-1.356.192-1.749.512l-9.585 7.825c-.244.199-.365.43-.368.661-.001.233.116.465.358.67l9.449 7.985c.388.328 1.037.53 1.739.544.701.014 1.367-.166 1.777-.48M20.224 45.88l10.303-7.818c.541-.412.546-.972.01-1.396l-10.166-7.992c-.407-.321-1.068-.51-1.768-.51s-1.353.192-1.746.512l-9.585 7.825c-.246.199-.367.43-.368.661-.004.233.117.465.356.67l9.45 7.985c.389.328 1.037.53 1.737.544.702.014 1.367-.166 1.778-.48" fill="#f6b400"/><path d="m30.516 68.394-5.195-8.25c-.272-.433-.794-.645-1.295-.521l-9.465 2.327c-.379.092-.688.366-.829.728-.139.367-.092.778.125 1.099l5.344 7.88c.137.201.327.349.542.436.215.087.455.112.691.062l9.316-1.959c.383-.077.701-.339.855-.701.152-.359.12-.772-.089-1.102M37.931 69.991l9.509 2.159c.501.115 1.019-.106 1.285-.543l5.05-8.342c.202-.331.227-.743.069-1.101-.161-.359-.484-.612-.867-.688l-9.349-1.793c-.239-.047-.477-.015-.693.076-.212.09-.4.241-.53.447l-5.205 7.97c-.215.326-.254.738-.108 1.101.146.361.461.629.839.716M53.762 12.991l-5.195-8.25c-.273-.436-.795-.647-1.295-.524l-9.464 2.327c-.379.094-.689.368-.83.731-.141.366-.091.775.126 1.099l5.345 7.879c.137.2.324.348.541.436.215.087.457.112.692.062l9.315-1.957c.384-.08.701-.345.856-.702.152-.359.119-.771-.09-1.101M14.581 14.752l9.507 2.16c.501.114 1.018-.108 1.284-.548l5.05-8.338c.202-.335.227-.748.068-1.102-.156-.357-.481-.614-.868-.687l-9.345-1.795c-.24-.046-.48-.017-.694.074-.214.09-.4.246-.53.447l-5.206 7.97c-.214.328-.255.739-.108 1.101.148.363.461.632.841.717M64.046 40.545l-8.247 5.193c-.437.276-.645.796-.523 1.295l2.327 9.468c.092.378.366.687.73.828.366.141.775.092 1.098-.127l7.88-5.344c.2-.135.352-.326.436-.542.088-.212.114-.454.062-.692l-1.957-9.316c-.079-.381-.342-.699-.701-.852-.361-.15-.77-.12-1.103.09M65.57 33.128l2.16-9.506c.112-.502-.106-1.019-.545-1.284l-8.342-5.05c-.334-.203-.746-.228-1.101-.069-.359.16-.617.483-.688.865l-1.795 9.351c-.044.239-.015.477.075.691.092.212.243.4.445.532l7.972 5.206c.328.212.74.252 1.098.105.364-.145.632-.461.72-.84M8.806 17.3.557 22.493c-.436.275-.646.797-.523 1.295l2.327 9.466c.094.379.367.688.731.828.364.142.774.095 1.097-.125l7.88-5.344c.201-.137.349-.326.437-.539.086-.217.11-.458.061-.694l-1.957-9.316c-.08-.382-.342-.701-.702-.855-.359-.15-.771-.117-1.102.091M10.565 56.478l2.164-9.506c.113-.498-.109-1.018-.548-1.286l-8.338-5.046c-.334-.204-.749-.229-1.103-.069-.357.157-.615.479-.69.862l-1.792 9.352c-.044.237-.015.477.073.69.092.217.243.403.448.534l7.971 5.204c.325.215.737.254 1.101.109.36-.148.629-.462.713-.844M125.143 62.619c-.148.072-.29.151-.429.239.366.211.621.535.76.967.571 1.771-.967 4.926-2.261 6.829.117.17.239.327.372.454.007.008.017.012.025.02 4.41-4.917 3.618-7.273 3.509-7.531-.275-.744-.72-1.115-1.327-1.115-.36 0-.647.135-.65.137ZM116.042 70.359c.872-3.323 1.115-4.162 1.833-6.651.294-1.017.666-2.308 1.195-4.159.399-1.35.506-2.517.324-3.473-.243-.962-.999-1.45-2.248-1.45-.143 0-.281.008-.412.019-.018.001-.037.002-.055.004-.121.012-.234.025-.337.041-.019.003-.037.006-.057.009-.095.015-.181.032-.25.046-.011.002-.021.005-.032.007-.062.014-.117.027-.145.034.177 1.331-.081 2.719-.24 3.578l-.045.245c-.04.145-2.877 9.802-3.244 11.258-.033.13-.073.277-.117.439-.348 1.272-.928 3.401.006 4.624.697.912 2.221 1.216 4.48.892.014-.001.029-.003.043-.006-.032-.021-.063-.042-.094-.064-.782-.563-1.523-1.955-.604-5.393Z" fill="#ef5a49"/><path d="M115.194 54.073h.001l.12-.047c.083-.033.167-.065.248-.092.048-.015.739-.209 1.582-.209.204 0 .4.012.588.034.062.008.119.023.181.033.12.02.24.039.353.068.068.018.128.043.194.065.097.032.195.062.284.101.063.028.121.063.181.094.068.035.139.066.203.106-.196-.503-.461-.95-.79-1.312-1.007-1.108-2.577-1.448-4.568-.991-.327.079-.657.172-.985.266-.004.001-.008.003-.011.004-11.668 3.334-20.737 14.821-23.478 18.621l5.342-2.11c.053-.021.11-.031.166-.031.07 0 .141.016.205.049.115.059.199.164.232.29l1.463 5.699c.508-1.917 1.691-5.007 4.443-8.609 4.509-5.904 9.759-10.4 14.047-12.029h0ZM132.537 64.054c-.037-.233-.083-.196-.166-.196-.063 0-.128.43-.17.59-.884 5.392-2.814 6.406-2.859 6.448-.703.702-2.603 1.247-4.178 1.247-.564 0-1.068-.157-1.506-.459-.055-.037-.106-.084-.159-.127-.065-.052-.134-.097-.196-.156-.166-.159-.317-.357-.461-.571-.04-.061-.081-.12-.12-.185-.015-.025-.033-.047-.048-.073-.302-.536-.538-1.218-.699-2.029-.001-.005-.003-.01-.004-.017l-.011-.056c-.003-.014-.004-.03-.003-.044-.074-.64-.332-4.039 2.301-5.877.254-.178.526-.336.808-.469.017-.008.407-.187.902-.175-.302-.109-.683-.139-1.094-.056-.026.004-1.182.164-2.419 1.063-1.633 1.189-2.669 3.131-2.997 5.62-.17 1.548.234 3.087 1.139 4.328.157.214.321.413.491.59.001.001.003.003.004.005.999 1.043 2.294 1.617 3.648 1.617.331 0 .666-.036.999-.103 2.709-.552 6.395-3.225 6.688-8.283.102-.942.134-1.785.123-2.537-.006-.036-.01-.069-.014-.097ZM117.321 75.096c-.114.032-.23.073-.345.099.226.104.487.157.778.157h.001c.588 0 1.287-.228 2.028-.628.15-.078.303-.164.458-.259.007-.005.015-.009.022-.014.134-.082.268-.176.401-.27.032-.022.063-.042.095-.065l.084-.066c-.152-.142-.302-.298-.447-.462-1.039.735-2.069 1.233-3.076 1.509ZM139.782 67.291c-.851 1.026-1.703 2.057-2.557 3.093-1.39 1.707-2.097 2.665-2.116 2.873l.25.137c.628-.034 1.608-.568 2.939-1.604 1.382-1.068 1.796-1.437 2.359-1.867l-.054.44c-1.292 1.212-.822.808-2.497 2.05-1.481 1.101-2.575 1.493-3.055 1.542-.599.059-.897-.228-.897-.865 0-.49.192-1.033.572-1.63.029-.041.382-.517 1.058-1.429-.411.345-.945.727-1.601 1.146l-.161-.176.102-.186c1.637-1.252 2.968-2.371 3.997-3.356l1.661-.167Zm3.101-3.722c-.137.357-.455.722-.955 1.095-.363-.208-.651-.492-.866-.852.185-.43.484-.779.895-1.046.303.117.612.384.926.803Z" fill="#ef5a49"/><path d="M151.054 71.137c-1.538.959-2.567 1.464-3.086 1.516-.608.061-.912-.251-.912-.937 0-.597.441-1.476 1.323-2.63.684-.806 1.367-1.612 2.041-2.425l-.25-.05c-1.636.165-4.202 2.363-7.7 6.595l-1.661.168c1.49-1.912 3.003-3.946 4.542-6.099l-.163-.118c-.599.052-2.185 1.177-4.762 3.375l-.161-.16.073-.155c.737-.721 1.542-1.408 2.425-2.066 1.195-.883 2.083-1.356 2.661-1.414.488-.05.735.186.735.706 0 .469-.197 1.047-.589 1.734 2.068-1.844 3.596-2.817 4.586-2.917.537-.054.807.237.807.873 0 .761-.495 1.713-1.486 2.854-.988 1.139-1.483 1.788-1.483 1.944 0 .126.088.181.265.163.706-.071 1.721-.243 3.048-1.268M154.478 69.148l-.131-.193.088-.186c2.781-2.161 4.799-4.005 6.053-5.532l-.763.077-.25-.166c.079-.186.534-.304 1.367-.358l2.557-3.123 1.712-.172-2.577 3.125 1.848-.186.192.186c-.03.179-.804.326-2.323.44-1.175 1.42-2.35 2.842-3.526 4.263-1.941 2.379-2.926 3.676-2.955 3.883l.221.11c1.137-.055 2.85-1.13 5.144-3.222l.131.194c-.01.411-.807 1.108-2.395 2.091-1.519.938-2.548 1.432-3.086 1.487-.607.061-.912-.218-.912-.835 0-.696.338-1.468 1.014-2.319.597-.658 1.195-1.316 1.792-1.975-.959.763-2.028 1.568-3.203 2.41Z" fill="#ef5a49"/><path d="m167.807,67.332l.148.284.146-.018c-2.675,2.199-4.727,3.52-5.746,3.623-1.281.129-1.924-.302-1.924-1.29,0-1.058.672-2.193,2.014-3.406,1.283-1.159,2.463-1.792,3.541-1.901.618-.062.926.163.926.672,0,.587-.469,1.154-1.41,1.699-.873.459-1.745.926-2.615,1.395-.942.584-1.411,1.23-1.411,1.935,0,.352.219.508.661.463.931-.094,2.105-.682,3.52-1.764,1.415-1.083,2.131-1.69,2.152-1.691Zm-4.643.324c2.204-.947,3.306-1.713,3.306-2.302,0-.225-.108-.327-.324-.305-.754.076-1.748.945-2.982,2.607Z" fill="#ef5a49"/><path d="M167.645 67.47c1.236-1.153 2.142-2.058 2.719-2.713-.361-.081-.543-.294-.543-.635 0-.588.303-.913.912-.975.392-.039.586.143.586.543 0 .235-.092.436-.279.601.588-.059 1.117-.186 1.588-.379l.572 1.102c-.695.817-1.39 1.63-2.086 2.445-1.117 1.336-1.677 2.099-1.677 2.284 0 .138.099.195.295.176 1.059-.108 2.713-1.17 4.967-3.189l.177.218c-.011.323-.829.994-2.454 2.01-1.577.981-2.596 1.496-3.057 1.542-.617.062-.926-.275-.926-1.01 0-.587.484-1.473 1.454-2.659.668-.743 1.332-1.486 1.999-2.228-.344.093-.661.145-.956.155-1.793 1.973-2.854 2.986-3.188 3.04l-.161-.19.058-.138ZM160.526 63.187s-5.768 6.561-12.149 8.935c0 0 .494.252.561.194.066-.057 7.995-3.353 12.327-9.6l-.688.49M177.196 58.235l-.168-.182.098-.092c.11-.102.116-.273.015-.383-.102-.109-.275-.116-.383-.014l-.099.092-.303-.327.303.014c.149.006.277-.11.283-.259.007-.15-.109-.277-.259-.284l-.854-.037-.132-.142c.051-.081.094-.17.124-.266.029-.095.044-.193.047-.288l.189-.044.728.45c.021.012.041.022.063.029.114.034.243-.01.309-.117.08-.127.04-.295-.088-.374l-.259-.16.436-.099.03.132c.022.098.097.171.186.199.043.014.09.017.139.006.146-.035.237-.179.204-.326l-.032-.132.244-.055c.145-.033.236-.179.203-.326-.034-.145-.178-.237-.324-.203l-.243.055-.03-.132c-.033-.146-.178-.237-.324-.204-.148.033-.237.179-.204.326l.03.132-.436.099.164-.258c.081-.125.043-.294-.084-.374-.127-.08-.294-.044-.374.083l-.459.721-.19.043c-.09-.172-.225-.32-.396-.425l.058-.185.745-.386c.132-.069.183-.233.114-.367-.069-.132-.234-.185-.366-.114l-.27.139.13-.417.13.04c.142.044.294-.037.338-.179.044-.143-.036-.295-.178-.339l-.131-.04.08-.259c.044-.143-.037-.295-.179-.339-.143-.044-.294.036-.338.179l-.08.259-.13-.04c-.143-.044-.295.036-.339.179-.044.143.036.295.179.339l.13.04-.128.418-.145-.268c-.07-.132-.236-.182-.367-.11-.132.07-.182.234-.112.367l.399.739-.056.185c-.2-.01-.395.036-.566.128l-.132-.141.037-.839c.007-.15-.109-.276-.259-.283-.149-.007-.276.109-.283.258l-.012.305-.298-.32.099-.092c.11-.102.116-.273.015-.383-.102-.11-.273-.116-.383-.014l-.101.092-.183-.199c-.102-.11-.275-.116-.383-.015-.11.102-.116.275-.015.383l.186.2-.102.091c-.108.102-.116.273-.012.383.034.037.075.061.119.074.09.028.19.008.265-.059l.099-.094.298.32-.305-.008c-.149-.004-.274.113-.279.263-.006.124.077.232.19.268.023.007.047.011.073.011l.837.026.132.141c-.052.081-.094.17-.124.265-.029.097-.044.193-.047.29l-.188.043-.708-.451c-.127-.081-.295-.043-.375.083-.08.127-.044.294.083.375l.257.163-.426.098-.029-.132c-.034-.146-.179-.237-.326-.204-.146.033-.239.179-.204.324l.03.134-.265.059c-.146.035-.237.179-.204.326.023.098.095.171.186.199.043.014.091.017.139.006l.263-.061.032.132c.022.098.095.171.183.199.044.014.092.017.141.006.146-.035.236-.179.204-.326l-.03-.132.426-.097-.16.258c-.079.127-.04.295.088.374.021.012.041.022.063.029.114.035.243-.01.309-.117l.44-.714.19-.043c.09.172.223.32.395.425l-.058.188-.752.404c-.132.072-.182.236-.112.368.072.131.237.181.368.11l.269-.145-.132.426-.13-.039c-.143-.044-.295.036-.339.178-.044.143.037.295.181.339l.13.04-.073.239c-.044.142.036.295.178.338.143.044.295-.036.339-.179l.073-.237.131.04c.142.044.294-.036.338-.179.044-.144-.036-.295-.178-.339l-.131-.04.131-.426.141.27c.036.066.094.113.16.134.066.019.141.015.207-.019.132-.069.183-.232.114-.366l-.394-.759.058-.186c.2.008.394-.037.564-.13l.134.143-.026.854c-.003.125.079.233.192.268.022.007.047.011.072.012.15.004.276-.113.28-.263l.008-.303.305.327-.101.091c-.109.103-.116.274-.012.385.032.036.073.061.117.074.09.028.19.007.265-.061l.099-.092.168.182c.034.036.076.061.12.074.09.028.192.008.265-.061.109-.102.116-.273.014-.383Zm-2.574-1.681c-.286-.088-.447-.393-.359-.679s.392-.447.679-.359c.286.088.447.392.359.679-.088.285-.393.447-.679.359ZM183.402 54.188c-.066-.203-.284-.315-.488-.248-.043.014-.08.036-.114.063v-.003c-.174.134-.39.299-.564.432-.046-.058-.106-.103-.178-.128.073-.207.164-.463.236-.669h-.001c.015-.041.023-.084.023-.13 0-.214-.172-.388-.386-.388-.215 0-.388.174-.388.388 0 .045.008.088.023.13h-.001c.072.206.163.462.236.669-.07.025-.132.07-.178.128-.172-.132-.389-.298-.563-.432h0c-.035-.025-.073-.047-.116-.061-.204-.066-.422.045-.488.248-.066.204.046.422.248.49.044.014.087.018.131.017h-.001c.218-.004.491-.011.709-.017.003.077.026.149.068.21-.179.124-.404.277-.583.401h.001c-.036.026-.069.055-.095.091-.125.174-.087.417.086.542.174.126.415.087.542-.086.026-.037.044-.077.055-.119h.003c.062-.208.139-.47.201-.68.036.01.072.018.11.018.037 0 .075-.008.109-.018.062.21.141.472.203.681h0c.014.04.03.08.058.117.126.172.368.211.541.086.174-.125.211-.368.086-.542-.026-.036-.059-.065-.095-.09h.001c-.179-.125-.403-.279-.583-.403.041-.061.065-.132.068-.21.218.006.491.012.709.018h0c.043 0 .086-.004.13-.018.204-.068.314-.286.248-.49ZM109.424.502 103.296 21.643 102.496 21.643 96.279 1.241 96.219 1.241 90.119 21.643 89.319 21.643 83.102.502 83.691.502 89.677 20.904 89.735 20.904 95.834.502 96.693.502 102.881 20.904 102.94 20.904 108.834.502 109.424.502zM110.714 6.81c.423-1.343 1.047-2.517 1.866-3.524.818-1.007 1.837-1.807 3.048-2.399 1.214-.593 2.611-.887 4.19-.887s2.977.294 4.188.887c1.215.592 2.235 1.392 3.051 2.399.819 1.007 1.443 2.181 1.868 3.524.425 1.342.637 2.764.637 4.262s-.212 2.923-.637 4.265c-.425 1.344-1.048 2.517-1.868 3.524-.817 1.008-1.836 1.803-3.051 2.384-1.211.582-2.608.873-4.188.873s-2.977-.291-4.19-.873c-1.211-.581-2.23-1.375-3.048-2.384-.819-1.007-1.443-2.181-1.866-3.524-.426-1.342-.636-2.761-.636-4.265s.21-2.92.636-4.262m.621 8.468c.426 1.283 1.028 2.39 1.807 3.317.782.928 1.732 1.654 2.858 2.177 1.124.523 2.399.786 3.819.786s2.694-.263 3.822-.786c1.124-.523 2.076-1.248 2.857-2.177.778-.927 1.379-2.035 1.807-3.317.423-1.283.644-2.684.662-4.206-.018-1.517-.239-2.92-.662-4.203-.428-1.283-1.029-2.39-1.807-3.317-.781-.928-1.732-1.652-2.857-2.177-1.128-.523-2.4-.785-3.822-.785s-2.695.262-3.819.785c-1.126.524-2.076 1.248-2.858 2.177-.779.927-1.381 2.035-1.807 3.317-.423 1.283-.645 2.686-.666 4.203.021 1.521.243 2.923.666 4.206M152.57.502 152.57 21.643 151.979 21.643 151.979 1.241 151.918 1.241 142.945 21.643 142.294 21.643 133.323 1.241 133.262 1.241 133.262 21.643 132.67 21.643 132.67.502 133.648.502 142.591 20.875 142.65 20.875 151.595.502 152.57.502zM155.088 21.643h-.651L162.993.502h.772l8.349 21.141h-.652l-2.784-6.957h-10.78l-2.811 6.957Zm8.322-20.548h-.062l-5.211 12.998h10.308l-5.035-12.998ZM174.868.502 189.319 20.904 189.378 20.904 189.378.502 189.97.502 189.97 21.643 189.082 21.643 174.632 1.241 174.572 1.241 174.572 21.643 173.978 21.643 173.978.502 174.868.502zM95.859 32.102 86.372 32.102 86.372 35.909 95.079 35.909 95.079 39.022 86.372 39.022 86.372 43.63 96.297 43.63 96.297 46.851 82.711 46.851 82.711 28.928 95.859 28.928 95.859 32.102zM103.572 46.851 99.217 46.851 104.983 37.72 99.497 28.928 103.972 28.928 107.169 34.765 110.456 28.928 114.782 28.928 109.297 37.575 115.124 46.851 110.576 46.851 107.169 40.742 103.572 46.851zM129.854 39.094c-1.051.876-2.552 1.313-4.498 1.313h-3.732v6.444h-3.72v-17.923h7.695c1.775 0 3.19.463 4.244 1.386 1.054.926 1.582 2.355 1.582 4.293 0 2.116-.524 3.611-1.571 4.487m-2.864-6.457c-.472-.397-1.137-.597-1.992-.597h-3.375v5.279h3.375c.855 0 1.52-.215 1.992-.643.479-.432.712-1.114.712-2.047s-.233-1.595-.712-1.992M148.231 45.259c-1.353 1.395-3.312 2.092-5.872 2.092s-4.521-.698-5.875-2.092c-1.818-1.71-2.723-4.174-2.723-7.393 0-3.284.905-5.749 2.723-7.393 1.353-1.396 3.31-2.092 5.875-2.092s4.519.697 5.872 2.092c1.808 1.644 2.713 4.109 2.713 7.393 0 3.219-.905 5.683-2.713 7.393m-2.341-2.723c.872-1.095 1.306-2.653 1.306-4.67s-.434-3.566-1.306-4.664c-.87-1.099-2.048-1.65-3.531-1.65s-2.67.549-3.553 1.644c-.883 1.094-1.326 2.651-1.326 4.669s.443 3.575 1.326 4.67c.883 1.094 2.069 1.64 3.553 1.64s2.661-.546 3.531-1.64M157.151 36.222c0-.491.076-.937.228-1.337.149-.401.366-.744.65-1.031.283-.289.624-.511 1.025-.666.4-.154.845-.234 1.336-.234.5 0 .94.074 1.322.22.382.146.703.342.962.586.258.246.454.538.585.877.132.34.199.699.199 1.075 0 .444-.073.833-.22 1.174-.146.339-.339.641-.579.906-.24.264-.514.499-.819.706-.308.209-.622.403-.942.588-.32.185-.636.361-.948.53-.311.172-.589.349-.833.538-.162.122-.317.252-.467.389-.151.137-.288.285-.41.446-.123.159-.222.336-.297.53-.076.194-.119.408-.129.644h5.558v.764h-6.519c.009-.48.06-.915.155-1.301.095-.386.301-.764.624-1.132.347-.395.707-.735 1.081-1.017.372-.283.738-.536 1.097-.756.357-.222.697-.425 1.017-.609.32-.184.603-.384.847-.601.246-.216.441-.462.582-.735.141-.272.211-.607.211-1.003 0-.321-.056-.607-.169-.863-.114-.254-.269-.471-.468-.651-.197-.179-.429-.313-.693-.402-.264-.09-.552-.135-.863-.135-.329 0-.629.067-.898.205-.269.137-.5.318-.692.544-.194.226-.343.49-.446.791-.104.302-.147.622-.128.963h-.962ZM169.062 32.954c.489 0 .915.074 1.272.22.359.146.662.345.912.6.25.255.454.552.608.891.156.339.277.699.361 1.082.085.383.142.776.17 1.181.029.404.042.801.042 1.187 0 .661-.047 1.293-.141 1.896-.095.604-.267 1.135-.516 1.598-.249.461-.591.829-1.026 1.104-.434.273-.995.409-1.683.409s-1.251-.137-1.69-.409c-.438-.275-.782-.645-1.031-1.112-.251-.467-.423-1.008-.517-1.627-.095-.616-.142-1.269-.142-1.957 0-.632.042-1.251.128-1.853.083-.604.247-1.144.487-1.619.241-.477.582-.861 1.025-1.153.444-.293 1.022-.439 1.74-.439Zm2.461 5.064c0-.537-.031-1.063-.093-1.578-.06-.513-.182-.972-.36-1.379-.179-.404-.431-.73-.756-.975-.326-.246-.752-.367-1.279-.367-.501 0-.908.124-1.223.374-.317.25-.565.583-.744.998-.179.415-.304.886-.375 1.413-.071.529-.105 1.067-.105 1.612 0 .643.04 1.225.12 1.747.08.524.215.969.404 1.337.187.367.44.653.755.855.316.203.714.304 1.196.304.538 0 .97-.132 1.295-.396.324-.265.571-.603.742-1.019.168-.415.282-.882.338-1.4.057-.519.086-1.027.086-1.527ZM174.97 36.222c0-.491.075-.937.227-1.337.15-.401.367-.744.65-1.031.283-.289.624-.511 1.025-.666.4-.154.845-.234 1.336-.234.5 0 .941.074 1.322.22.382.146.703.342.962.586.259.246.454.538.587.877.132.34.199.699.199 1.075 0 .444-.073.833-.22 1.174-.145.339-.339.641-.58.906-.24.264-.514.499-.819.706-.308.209-.622.403-.941.588-.321.185-.637.361-.949.53-.31.172-.589.349-.834.538-.161.122-.316.252-.467.389-.151.137-.288.285-.411.446-.122.159-.221.336-.296.53-.075.194-.118.408-.127.644h5.557v.764h-6.519c.009-.48.06-.915.155-1.301.095-.386.303-.764.623-1.132.348-.395.709-.735 1.082-1.017.373-.283.738-.536 1.096-.756.359-.222.699-.425 1.019-.609.32-.184.601-.384.847-.601.246-.216.439-.462.581-.735.142-.272.212-.607.212-1.003 0-.321-.056-.607-.171-.863-.112-.254-.268-.471-.466-.651-.198-.179-.429-.313-.693-.402-.264-.09-.552-.135-.863-.135-.331 0-.63.067-.898.205-.269.137-.502.318-.693.544-.194.226-.342.49-.446.791-.104.302-.146.622-.126.963h-.962ZM185.942 37.285c.419 0 .8-.026 1.144-.077.344-.051.639-.149.885-.293.246-.144.439-.337.579-.579.139-.242.209-.553.209-.934 0-.307-.056-.569-.167-.788-.112-.218-.263-.397-.453-.537-.191-.14-.414-.242-.669-.307-.256-.065-.523-.097-.802-.097-.316 0-.602.051-.858.153-.256.102-.477.249-.662.439-.186.191-.33.414-.432.669-.102.256-.153.537-.153.844h-.893c0-.446.077-.848.23-1.206.153-.358.392-.69.718-.997.307-.279.653-.458 1.039-.537.386-.079.783-.118 1.192-.118.39 0 .755.049 1.095.146.339.098.634.246.885.446.251.2.451.453.6.76.149.307.223.665.223 1.074 0 .511-.114.953-.342 1.325-.228.372-.579.66-1.053.865.353.111.644.258.872.439.228.181.406.381.537.599.13.219.218.449.265.69.046.242.07.474.07.697 0 .409-.07.79-.209 1.144s-.344.665-.614.934c-.27.27-.602.486-.997.649-.395.162-.844.248-1.346.258-.567 0-1.06-.051-1.478-.153-.418-.102-.767-.272-1.046-.509-.279-.237-.498-.549-.655-.934-.158-.386-.265-.867-.321-1.443h.893c0 .753.225 1.323.676 1.708.451.386 1.039.579 1.764.579.353 0 .683-.06.99-.181.307-.121.569-.284.788-.488.218-.204.386-.442.502-.711.116-.269.169-.548.16-.837-.019-.4-.112-.732-.279-.997s-.393-.474-.676-.628-.616-.255-.997-.307c-.381-.051-.786-.063-1.213-.035v-.725Z" fill="#ef5a49"/></g></svg>