<svg width="595" height="55" viewBox="0 0 595 55" fill="none" xmlns="http://www.w3.org/2000/svg">
<path d="M190.085 29.16V54H185.045V29.16H190.085Z" fill="white"/>
<path d="M181.546 54H176.002L171.538 44.244H167.506V54H162.466V29.16H171.358C177.082 29.16 180.646 31.716 180.646 36.756C180.646 40.104 179.098 42.3 176.398 43.416L181.546 54ZM167.506 39.996H170.89C173.878 39.996 175.606 39.348 175.606 36.756C175.606 34.164 173.878 33.444 170.89 33.444H167.506V39.996Z" fill="white"/>
<path d="M143.693 29.16H159.173V33.444H148.733V39.6H158.093V43.848H148.733V54H143.693V29.16Z" fill="white"/>
<path d="M130.754 17.52V37.964C130.754 49.744 122.546 54.684 113.122 54.684C103.698 54.684 95.4898 49.744 95.4898 37.964V17.596C95.4898 5.28398 103.698 0.875977 113.122 0.875977C122.546 0.875977 130.754 5.28398 130.754 17.52ZM120.114 18.508C120.114 12.884 117.834 9.84398 113.122 9.84398C108.334 9.84398 106.054 12.884 106.054 18.508V37.052C106.054 42.676 108.334 45.716 113.122 45.716C117.834 45.716 120.114 42.676 120.114 37.052V18.508Z" fill="white"/>
<path d="M87.8109 45.032V54H55.4349V47.16L72.9909 26.488C76.2589 22.688 77.8549 19.496 77.8549 16.076C77.8549 11.82 74.7389 9.69198 71.3189 9.69198C67.7469 9.69198 65.0869 11.896 64.7829 16.076H55.3589C55.3589 7.03198 62.8069 0.875977 71.8509 0.875977C81.2749 0.875977 88.4189 7.41198 88.4189 16.076C88.4189 22.992 83.8589 28.388 80.5149 32.34L69.7229 45.032H87.8109Z" fill="white"/>
<path d="M46.971 42.144V54H35.115V42.144H46.971Z" fill="white"/>
<path d="M8.512 54L19.532 32.416C17.86 33.176 16.264 33.404 14.44 33.404C6.384 33.404 0 26.792 0 17.748C0 6.11998 7.904 0.875977 17.632 0.875977C27.436 0.875977 35.34 6.04398 35.34 17.672C35.34 21.776 33.44 26.64 30.476 32.644L19.912 54H8.512ZM24.7 17.292C24.7 12.884 22.268 9.84398 17.632 9.84398C13.072 9.84398 10.64 12.884 10.64 17.292C10.64 21.624 13.072 24.664 17.632 24.664C22.268 24.664 24.7 21.624 24.7 17.292Z" fill="white"/>
<path d="M590.072 29.16H594.86V54H590.648L580.964 38.628V54H576.176V29.16H580.352L590.072 44.748V29.16Z" fill="white"/>
<path d="M566.24 29.16H571.28V43.92C571.28 51.264 567.248 54.324 561.74 54.324C556.232 54.324 552.2 51.264 552.2 43.956V29.16H557.24V43.956C557.24 48.204 558.644 50.076 561.74 50.076C564.836 50.076 566.24 48.204 566.24 43.956V29.16Z" fill="white"/>
<path d="M548.197 32.904L544.417 35.604C543.337 33.912 542.041 33.084 539.521 33.084C537.253 33.084 536.029 34.128 536.029 35.82C536.029 37.764 537.613 38.628 540.925 39.456C546.109 40.752 548.449 42.696 548.449 47.088C548.449 51.156 545.713 54.324 539.881 54.324C535.525 54.324 532.501 53.136 530.305 50.256L534.157 47.592C535.489 49.248 537.001 50.076 539.557 50.076C542.437 50.076 543.409 48.816 543.409 47.304C543.409 45.576 542.365 44.604 538.333 43.56C533.437 42.264 530.989 39.924 530.989 35.82C530.989 31.896 533.581 28.836 539.485 28.836C543.445 28.836 546.433 30.168 548.197 32.904Z" fill="white"/>
<path d="M510.042 1.55998L499.098 23.144C500.694 22.384 502.29 22.156 504.19 22.156C512.246 22.156 518.554 28.768 518.554 37.812C518.554 49.44 510.726 54.684 500.998 54.684C491.194 54.684 483.29 49.516 483.29 37.888C483.29 33.784 485.114 28.92 488.078 22.916L498.642 1.55998H510.042ZM493.93 38.268C493.93 42.676 496.286 45.716 500.998 45.716C505.558 45.716 507.914 42.676 507.914 38.268C507.914 33.936 505.558 30.896 500.998 30.896C496.286 30.896 493.93 33.936 493.93 38.268Z" fill="white"/>
<path d="M475.814 42.144V54H463.958V42.144H475.814Z" fill="white"/>
<path d="M456.507 17.52V37.964C456.507 49.744 448.299 54.684 438.875 54.684C429.451 54.684 421.243 49.744 421.243 37.964V17.596C421.243 5.28398 429.451 0.875977 438.875 0.875977C448.299 0.875977 456.507 5.28398 456.507 17.52ZM445.867 18.508C445.867 12.884 443.587 9.84398 438.875 9.84398C434.087 9.84398 431.807 12.884 431.807 18.508V37.052C431.807 42.676 434.087 45.716 438.875 45.716C443.587 45.716 445.867 42.676 445.867 37.052V18.508Z" fill="white"/>
<path d="M408.776 1.55998V54H398.136V12.656L390.612 17.596V7.33598L399.2 1.55998H408.776Z" fill="white"/>
<path d="M220.112 30H360.112" stroke="white" stroke-width="2"/>
</svg>
