<svg xmlns="http://www.w3.org/2000/svg" width="31.33" height="31.33" viewBox="0 0 31.33 31.33">
  <defs>
    <style>
      .cls-1 {
        fill: #e60000;
      }

      .cls-2 {
        fill: #fff;
      }
    </style>
  </defs>
  <title>numberdticket_05</title>
  <g id="レイヤー_1" data-name="レイヤー 1">
    <circle class="cls-1" cx="15.67" cy="15.67" r="15.67" transform="translate(-6.45 17.03) rotate(-48.53)"/>
  </g>
  <g id="_2のコピー_3" data-name="2のコピー 3">
    <path class="cls-2" d="M21.21,8.31h-8v4.26a8.05,8.05,0,0,1,2.58-.42c4,0,7,2.65,7,6.44,0,3.14-2.15,6.68-7.89,6.68a13.1,13.1,0,0,1-6.15-1.51l.89-3.22a9.36,9.36,0,0,0,5.21,1.54c3.88,0,4.45-2.38,4.45-3.47,0-2.08-1.63-3.32-3.71-3.32a3.72,3.72,0,0,0-2.68,1H9.87V5.11H21.21Z"/>
  </g>
</svg>
