<svg xmlns="http://www.w3.org/2000/svg" width="152.76" height="14.82"><path d="M4.23 6.31c-.4 0-.61-.36-.61-.8A1.08 1.08 0 013.73 5a16.67 16.67 0 01-2.5 1.4.91.91 0 01-.37.08A.84.84 0 01.11 6 .84.84 0 010 5.52a.84.84 0 01.51-.77A16.38 16.38 0 006.24.48 1.64 1.64 0 017.46 0a1.64 1.64 0 011.22.48 16.29 16.29 0 005.74 4.19.86.86 0 01.5.79 1.12 1.12 0 01-.1.45.83.83 0 01-.77.54 1 1 0 01-.44-.11A23.34 23.34 0 0111.2 5a1.07 1.07 0 01.12.53c0 .44-.21.8-.6.8zm2.51 3a20 20 0 01-1.62 3.2c1.73-.08 3.46-.22 5.17-.46-.33-.4-.67-.8-1-1.17a.66.66 0 01-.18-.42.63.63 0 01.35-.54 1.22 1.22 0 01.54-.16.82.82 0 01.59.24 22.59 22.59 0 012.88 3.46.77.77 0 01.15.43.85.85 0 01-.37.69 1.06 1.06 0 01-.59.19.72.72 0 01-.61-.32c-.21-.32-.43-.65-.67-1a84.51 84.51 0 01-9.78.89.8.8 0 01-.8-.84c0-.52.24-.82.69-.84h1.76a17.63 17.63 0 001.57-3.33H1.17c-.39 0-.61-.32-.61-.8s.22-.8.61-.8h12.5c.42 0 .64.32.64.79s-.22.81-.64.81zm4-4.62h.08A15.59 15.59 0 017.7 1.9a.34.34 0 00-.26-.14.29.29 0 00-.2.13 16 16 0 01-3.09 2.82h6.57zM22.9 9.86a9 9 0 01-2.11 1.58.88.88 0 01-.34.08.72.72 0 01-.64-.4.88.88 0 01-.1-.4.7.7 0 01.1-.33 19.15 19.15 0 01-2.74 1.33.89.89 0 01-.3.06.75.75 0 01-.69-.54 1.2 1.2 0 01-.06-.39.63.63 0 01.48-.64c.41-.16.86-.33 1.29-.51V5.43h-1.1c-.39 0-.59-.31-.59-.79s.2-.77.59-.77h1.1V.75c0-.37.31-.57.82-.57s.8.2.8.57v3.12h.93c.38 0 .59.31.59.77s-.21.79-.59.79h-.93V8.9a5.06 5.06 0 00.46-.27.75.75 0 01.39-.13.57.57 0 01.54.38 1 1 0 01.07.36.91.91 0 01-.32.67 6.49 6.49 0 002.24-2.12h-1.72c-.33 0-.52-.28-.52-.68s.19-.68.52-.68h9.19c.34 0 .53.29.53.68s-.19.68-.53.68h-5.82c-.15.28-.31.53-.47.79H29c.92 0 1.37.45 1.35 1.26a12.71 12.71 0 01-.46 3.54 1.89 1.89 0 01-2.05 1.28 5.4 5.4 0 01-1.22-.13.61.61 0 01-.48-.68.58.58 0 010-.18.65.65 0 01.59-.66h.05a3.36 3.36 0 00.81.1c.45 0 .69-.08.84-.53a9.36 9.36 0 00.32-2.43c0-.24-.08-.29-.32-.29H28a9.58 9.58 0 01-4 4.83.93.93 0 01-.44.13.72.72 0 01-.62-.4.84.84 0 01-.11-.41.62.62 0 01.3-.56 7.9 7.9 0 003.35-3.59h-.88a9.81 9.81 0 01-4.22 3.73 1.31 1.31 0 01-.43.1.7.7 0 01-.63-.42 1 1 0 01-.09-.39.62.62 0 01.36-.59 8.52 8.52 0 003.3-2.43zm5.31-9.4c.95 0 1.36.36 1.36 1.22v2.79c0 .88-.41 1.23-1.36 1.23h-5.36c-.94 0-1.36-.35-1.36-1.23V1.68c0-.86.42-1.22 1.36-1.22zm-.24 2V2c0-.22-.11-.3-.37-.3h-4.16c-.25 0-.36.08-.36.3v.46zm-4.89 1.73c0 .24.11.31.36.31h4.16c.26 0 .37-.07.37-.31v-.52h-4.89zm15.82 6.63C38 12.5 37 13 35.75 13c-1.73 0-3.24-1.56-3.24-4.42 0-3.71 2.9-6.92 7.49-6.92 3.49 0 6.41 2.39 6.41 5.86A6.37 6.37 0 0141.7 14a1.17 1.17 0 01-.35.06 1 1 0 01-1-1 1 1 0 01.67-.89c2.4-.84 3.39-2.26 3.39-4.65a4.09 4.09 0 00-3.92-4.1 17.32 17.32 0 01-1.59 7.4zm-4.5-2.37c0 1.87.64 2.66 1.38 2.66a1.57 1.57 0 001.41-1.06 15.67 15.67 0 001.44-6.59 5 5 0 00-4.23 4.99zm19.49-.53c-.34 0-.53-.29-.53-.7a.93.93 0 01-.17.43.64.64 0 01-.5.28.47.47 0 01-.37-.2 7.12 7.12 0 01-.61-1.36 22.43 22.43 0 01.16 2.44v5.34c0 .44-.28.66-.81.66s-.8-.22-.8-.66V10a26.65 26.65 0 01.19-3 9.56 9.56 0 01-1.22 3.09.57.57 0 01-.51.29.71.71 0 01-.54-.26.84.84 0 01-.26-.6 1 1 0 01.18-.55 14.33 14.33 0 002-4.45h-1.36c-.39 0-.6-.3-.6-.77s.21-.76.6-.76h1.52V.64c0-.42.28-.64.8-.64s.81.22.81.64V3h1c.39 0 .6.28.6.76s-.21.77-.6.77H52a10.36 10.36 0 001.22 2.05.82.82 0 01.16.51c0-.32.22-.51.51-.51h3v-1h-2.62c-.3 0-.48-.28-.48-.67s.18-.67.48-.67h2.58V3.3H54c-.34 0-.51-.26-.51-.68S53.68 2 54 2h1.34a9 9 0 00-.62-1.14.49.49 0 01-.08-.25.64.64 0 01.53-.56 1.55 1.55 0 01.35 0 .81.81 0 01.68.35A14.8 14.8 0 0157 2h1.53a9.39 9.39 0 00.71-1.5A.71.71 0 0160 0h.28c.4.07.63.31.63.56a.62.62 0 010 .23A8.68 8.68 0 0160.17 2H62c.35 0 .53.27.53.67s-.18.68-.53.68h-3.6v.91h3.19c.3 0 .48.29.48.67s-.18.67-.48.67H58.4v1h3.88c.32 0 .51.29.51.69s-.19.7-.51.7h-3.73a10.28 10.28 0 001 1.86 11.24 11.24 0 001.25-1.36.57.57 0 01.49-.22 1 1 0 01.52.16.69.69 0 01.33.59.66.66 0 01-.13.37 10.89 10.89 0 01-1.58 1.52 10.42 10.42 0 002.08 1.65.81.81 0 01.35.67.91.91 0 01-.17.51.82.82 0 01-.68.37.93.93 0 01-.51-.18 9.18 9.18 0 01-3.29-4.23 12.55 12.55 0 01.19 2v1.39c0 1-.43 1.53-1.68 1.53a6.69 6.69 0 01-1.34-.13.6.6 0 01-.48-.66.5.5 0 010-.17.67.67 0 01.6-.65h.07a5 5 0 00.8.1c.33 0 .46-.11.46-.59v-1.03a16.81 16.81 0 01-3.22 2 .82.82 0 01-.41.11.78.78 0 01-.67-.44 1 1 0 01-.1-.42.7.7 0 01.38-.64 20.35 20.35 0 004-2.37V7.92zm.5.29a.71.71 0 01.44.16 6.4 6.4 0 011 1.12.67.67 0 01.13.4.7.7 0 01-.34.56 1 1 0 01-.51.18.62.62 0 01-.51-.26c-.2-.24-.61-.78-.9-1.1a.53.53 0 01-.13-.34.65.65 0 01.34-.54.89.89 0 01.48-.18zm18.19 4.64c0 1.22-.67 1.73-2.34 1.73a9.84 9.84 0 01-1.87-.17.77.77 0 01-.61-.8v-.28c.1-.45.39-.7.71-.7h.16a5.3 5.3 0 001.33.18c.64 0 .76-.11.76-.53V8.13h-5.84c-.43 0-.66-.37-.66-.86s.23-.85.66-.85h5.87V4.93c0-.4.37-.62.92-.62h.19a11.83 11.83 0 002.64-1.7c.08-.08.13-.14.13-.19s-.07-.09-.21-.09H66.5c-.4 0-.64-.36-.64-.84s.24-.83.64-.83h9.28c.93 0 1.38.56 1.38 1.17a1.38 1.38 0 01-.42 1 15.11 15.11 0 01-4.16 2.85v.77H78c.42 0 .64.35.64.85s-.22.86-.64.86h-5.42zm10.48-12a.89.89 0 011 .86A2.3 2.3 0 0184 2a30.27 30.27 0 00-.82 7 18.89 18.89 0 00.45 4 2.08 2.08 0 010 .23 1 1 0 01-1.06 1 .89.89 0 01-.88-.66A18.62 18.62 0 0181.25 9a32.8 32.8 0 01.86-7.43.92.92 0 01.95-.72zm8.11 2.85c.75-.07 1.44-.15 2-.24a.44.44 0 01.16 0 .81.81 0 01.75.9.82.82 0 01-.62.86c-.6.11-1.4.21-2.26.29 0 1.31.11 2.61.29 3.91A10.1 10.1 0 0194.25 11a1 1 0 01.36.73 1 1 0 01-.89 1 .77.77 0 01-.53-.22 9.76 9.76 0 00-1.7-1.23c-.09 1.8-1.28 2.57-3.2 2.57s-3.17-1-3.17-2.62c0-1.3 1.12-2.55 3.27-2.55a7.35 7.35 0 011.21.11c-.12-1.07-.17-2.14-.22-3.21h-3a.87.87 0 01-.83-.93.85.85 0 01.9-.91h2.94V1.49a.83.83 0 01.92-.8.82.82 0 01.89.8zm-2.81 6.58c-1 0-1.51.49-1.51 1s.51 1 1.39 1 1.48-.39 1.48-1.17a2.73 2.73 0 000-.53 3.33 3.33 0 00-1.36-.3zm19.98.91a.88.88 0 01.83.94 1 1 0 01-.67.95 15.4 15.4 0 01-5 .75c-3.87 0-5.4-1.36-5.43-4.1C98 8.55 100 8.44 100 9.62c0 1.63 1 2.3 3.44 2.3a15.08 15.08 0 004.61-.68.89.89 0 01.29-.05zm-4.77-9.25a23.89 23.89 0 003.43-.23h.16a.87.87 0 01.87.92 1 1 0 01-.84 1 24.12 24.12 0 01-3.65.26 28.09 28.09 0 01-3.54-.18.94.94 0 01-.83-1 .92.92 0 01.93-1h.12a30.43 30.43 0 003.35.23zm13.54 6a8 8 0 014.3-1.3c2.48 0 4 1.28 4 3.16a3.76 3.76 0 01-2.32 3.58 9.73 9.73 0 01-4 .82.92.92 0 01-1-.95.86.86 0 01.89-.91 7.27 7.27 0 003.19-.64 1.88 1.88 0 001.17-1.89c0-.88-.64-1.45-2-1.45a7 7 0 00-5.25 2.38 1 1 0 01-.75.32 1 1 0 01-1-.9 1 1 0 01.13-.51 21.3 21.3 0 001.65-4.86h-2.48a.82.82 0 01-.8-.88.81.81 0 01.82-.88h.73c.66 0 1.35 0 2.07-.06.11-.71.19-1.43.25-2.12a.85.85 0 01.91-.72.9.9 0 011 .83v.13c-.08.58-.16 1.15-.27 1.73a30 30 0 003.66-.58h.21a.84.84 0 01.82.88.83.83 0 01-.67.86 36 36 0 01-4.37.63 26 26 0 01-1 3.25zm15.02.06a7.43 7.43 0 015.07-2.1c2.76 0 4.18 1.62 4.18 3.45a4.16 4.16 0 01-2.54 3.92 9.8 9.8 0 01-4.1.93h-.05a.94.94 0 01-.93-1 .89.89 0 01.87-.94 7.57 7.57 0 003.44-.77 2.41 2.41 0 001.34-2.21c0-.91-.61-1.63-2.21-1.63a6.27 6.27 0 00-5.17 3 1.16 1.16 0 01-1 .53 1 1 0 01-1-1V10c.1-1.47.44-3.92.77-5.76a.87.87 0 01.9-.69.85.85 0 01.91.84 1.28 1.28 0 010 .19c-.28 1.42-.44 2.4-.56 3.36zm5.06-6.35a.9.9 0 01.59.88 1 1 0 01-.85 1 .91.91 0 01-.27 0 24.89 24.89 0 00-3.66-.91.77.77 0 01-.69-.81 1 1 0 011-1h.08a14.39 14.39 0 013.8.81zm14.27 11.92a1.3 1.3 0 111.3-1.29 1.32 1.32 0 01-1.3 1.29zm.67-4.57a.68.68 0 01-1.36 0c0-2-.48-5.54-.48-6.55a1.17 1.17 0 112.34 0c0 1.04-.5 4.55-.5 6.55z" fill="#fff" data-name="レイヤー 2"/></svg>