<svg xmlns="http://www.w3.org/2000/svg" width="205.04" height="24.23"><path d="M10.53 1.77A7.72 7.72 0 0010.37 0h2a10 10 0 00-.16 1.77v1.14h8.19a19.72 19.72 0 002.71-.15V4.5a24.65 24.65 0 00-2.65-.13H17a21.19 21.19 0 01-1.51 3.14h4a18.11 18.11 0 002.45-.1 15.81 15.81 0 00-.11 2.11v12.19c0 .91-.21 1.46-.65 1.74s-.93.39-2.18.39c-.73 0-1.69 0-2.89-.1a5.33 5.33 0 00-.54-1.74 32.67 32.67 0 003.38.28c.94 0 1.17-.15 1.17-.7V8.92h-5.85v2.52c0 .47.16.52 1.64.52s1.85-.05 2-.39a3.74 3.74 0 00.26-1.48 4 4 0 001.33.6c-.34 2.39-.68 2.62-3.72 2.62-2.52 0-3-.23-3-1.45V8.92H9.67a6.5 6.5 0 01-.75 2.5C8 13.08 6.86 14 4.16 15.21a5.14 5.14 0 00-1-1.33c2.52-.91 3.62-1.63 4.34-3a5.06 5.06 0 00.55-1.92H2.81v12.3A22.34 22.34 0 003 24.05H1a20.92 20.92 0 00.16-2.83V9.52a19.53 19.53 0 00-.1-2.11 20.39 20.39 0 002.47.1H7.2a15.2 15.2 0 00-1.27-3.14H2.65A24.79 24.79 0 000 4.5V2.76a21 21 0 002.7.15h7.83zm5.64 16.72a17.2 17.2 0 00.11 2.26 20.1 20.1 0 00-2.37-.1H8.19V22H6.53a11.89 11.89 0 00.13-1.9v-3.88a12.46 12.46 0 00-.11-1.79c.76.05 1.22.08 2.21.08h5.15a22.82 22.82 0 002.37-.08 15.65 15.65 0 00-.11 2.13zm-2.39-11a13.68 13.68 0 001.46-3.14h-7.6a23 23 0 011.25 3.16zm-5.59 11.8h6.45v-3.43H8.19zM25.71 4.92a11.7 11.7 0 002.08.08h4.79a10.79 10.79 0 002.08-.12V6.6a13.81 13.81 0 00-1.9-.1h-5a18.1 18.1 0 00-2.08.1zm1.1 18.87c.07-.78.13-1.71.13-2.52v-3.51a17.49 17.49 0 00-.11-2.13 8.6 8.6 0 001.67.1h3.71a9.8 9.8 0 001.59-.08c0 .55-.08 1.1-.08 2v2.94a16.43 16.43 0 00.05 1.71 2.9 2.9 0 00-.7 0 2.55 2.55 0 01-.39 0h-4.24v1.53zm.07-15.21a10.24 10.24 0 001.77.1H32a9.48 9.48 0 001.71-.1v1.59a10.5 10.5 0 00-1.71-.11h-3.35a11.14 11.14 0 00-1.77.11zm0 3.59a10.24 10.24 0 001.77.1H32a9.65 9.65 0 001.74-.1v1.58a11.54 11.54 0 00-1.74-.1h-3.37a11.51 11.51 0 00-1.75.1zm0-10.87a9.54 9.54 0 001.87.13H32a9.65 9.65 0 001.88-.13v1.64A13.5 13.5 0 0032 2.83h-3.22a12.71 12.71 0 00-1.87.11zm1.51 19.58h3.85V17h-3.82zM42.61 11a9.61 9.61 0 00-.13 1.74 9.15 9.15 0 001.69 5.72 11.8 11.8 0 005.46 4.06 5.64 5.64 0 00-1 1.61 14.81 14.81 0 01-4.89-3.8 10 10 0 01-2-3.71 9.39 9.39 0 01-1.82 3.89A11.56 11.56 0 0135 24.16a4.34 4.34 0 00-1.12-1.46 9.56 9.56 0 005.28-3.64 10.19 10.19 0 001.71-6.22 12.83 12.83 0 00-.1-1.84zM42.67.73a12.83 12.83 0 00-.13 1.66 8.2 8.2 0 001.37 4.92 9.5 9.5 0 002.55 2.41A11.25 11.25 0 0049.17 11a6.64 6.64 0 00-1 1.51 12.74 12.74 0 01-5-3.92A8.22 8.22 0 0141.78 6a7.94 7.94 0 01-1.38 2.84 11 11 0 01-5 3.69 4.55 4.55 0 00-1-1.43A9.53 9.53 0 0038.3 9 8.07 8.07 0 0041 2.47a12.57 12.57 0 00-.1-1.74zm-4.24 12.69a14.26 14.26 0 01-2.19 4.81l-1.48-.68A9.19 9.19 0 0036.87 13zm.23-11a13.52 13.52 0 01-2.13 4.83l-1.48-.62a9.21 9.21 0 002.05-4.58zm10 .15a18.94 18.94 0 01-3.16 4.19 9.74 9.74 0 00-1.25-.83 11.9 11.9 0 002.86-4.08zm-.08 11.21a21.13 21.13 0 01-2.93 4.08 9.36 9.36 0 00-1.24-.86 12.35 12.35 0 002.65-3.95zm9.61 2.65c-1.46 0-2.13 0-2.94.08a20.72 20.72 0 00.13-2.73V5a33.27 33.27 0 00-.13-3.46 23 23 0 002.75.1h10.9a27 27 0 002.78-.13A33.55 33.55 0 0071.55 5v8.81a20.34 20.34 0 00.13 2.73c-.73-.05-1.51-.08-2.91-.08h-2.26v4.71c0 .81.26.88 2.91.88 2.47 0 3.07-.1 3.43-.65s.47-1.37.63-3.4a7.84 7.84 0 001.63.7c-.59 4.65-.88 4.89-5.82 4.89-2.13 0-3.3-.13-3.82-.44s-.63-.63-.63-1.46v-5.26h-3.17a7.64 7.64 0 01-2.29 4.74c-1.53 1.48-3.43 2.36-6.65 3.06a5.32 5.32 0 00-.91-1.56 15.3 15.3 0 004-1.09 6.5 6.5 0 003.61-3.35 6.2 6.2 0 00.47-1.8zM57 6h12.94V3.17H57zm0 4.44h12.94v-3H57zM57 15h12.94v-3.09H57zm24.12-8.37a24.3 24.3 0 00-2.86.16v-1.9a19.39 19.39 0 002.86.18h7.28V2.86a14.81 14.81 0 00-.18-2.37h2a14 14 0 00-.18 2.34v2.24h7.67a17 17 0 002.91-.18v1.9a26.45 26.45 0 00-2.91-.16h-7c2.91 5.25 6.4 8.89 10.71 11.23a7 7 0 00-1.19 1.69A29 29 0 0194.85 15 24.65 24.65 0 0190 7.7c.07 1.56.1 2.52.1 3.38V17h2.83a15.89 15.89 0 002.53-.13v1.82a14.33 14.33 0 00-2.58-.16h-2.79V21a19.29 19.29 0 00.18 3h-2a20.62 20.62 0 00.18-3v-2.49H85.9a14.48 14.48 0 00-2.62.16v-1.82a16.07 16.07 0 002.57.13h2.55v-5.9c0-1 0-1.95.1-3.36a24.16 24.16 0 01-4.91 7.52 28.15 28.15 0 01-4.94 4.37 4.86 4.86 0 00-1.22-1.54 23.68 23.68 0 006.08-5.28 28.34 28.34 0 004.24-6.16zm33.18-3.98a12.2 12.2 0 00-.19-2.21h2.08a11 11 0 00-.19 2.21v1.59h8.17a18.14 18.14 0 003-.18v1.87a17.86 17.86 0 00-2.94-.16h-17.4a19.67 19.67 0 00-2.88.16V4.06a18.69 18.69 0 002.91.18h7.44zm0 5.85a12.85 12.85 0 00-.13-2h2a12.91 12.91 0 00-.17 2.03v.83h6.16c1 0 1.69 0 2.47-.1a16.15 16.15 0 00-.11 2.1v7.49c0 1.69-.52 2.13-2.65 2.13-1.06 0-1.51 0-2.7-.1a5.71 5.71 0 00-.44-1.74 20.72 20.72 0 003 .26c.83 0 1-.16 1-.73v-7.83H116v10.35a19.11 19.11 0 00.18 2.84h-2.06a20.53 20.53 0 00.19-2.84V10.84h-6.17v7.83a20.89 20.89 0 00.16 2.81h-2.05a22.22 22.22 0 00.15-2.81v-7.28a17.5 17.5 0 00-.1-2.13c.75.07 1.43.1 2.49.1h5.52zm26.02 6.66c-1.51 3.43-3 5-4.91 5-2.47 0-4.32-2.7-4.32-6.34a10.84 10.84 0 012.73-7.18 10.86 10.86 0 018.4-3.46 10 10 0 017.15 2.58 8.67 8.67 0 012.52 6.34 9.46 9.46 0 01-5.95 9 19.75 19.75 0 01-3.95 1.2 4.23 4.23 0 00-.91-1.75 15.3 15.3 0 004.34-1.22A7.84 7.84 0 00150 12a6.86 6.86 0 00-4.13-6.52 7.43 7.43 0 00-3-.65 39 39 0 01-2.55 10.33zm-3.2-9.08a9 9 0 00-4.23 7.75c0 2.5 1.09 4.42 2.49 4.42 1.09 0 2.13-1.22 3.25-3.77A35.58 35.58 0 00141 4.86a8.34 8.34 0 00-3.88 1.22zm22.29-2.99a16 16 0 00-.13-2.7h1.82a16.45 16.45 0 00-.1 2.68v2.55h1a9.23 9.23 0 001.64-.11V7.1A16.07 16.07 0 00162 7h-1a14.66 14.66 0 002.42 4.24 11.67 11.67 0 00-.91 1.4A17.76 17.76 0 01160.86 9c.08 2.19.11 3.33.11 4.24v7.88a22.1 22.1 0 00.15 3h-1.87a22.8 22.8 0 00.16-3v-7.34c0-1 0-1 .07-2.29a11.92 11.92 0 00.08-1.27c0-.21 0-.52.05-1a21.72 21.72 0 01-1.66 5 22.32 22.32 0 01-1.72 2.94 6.56 6.56 0 00-1-1.61 15.41 15.41 0 002.44-4.11A26.31 26.31 0 00159.15 7h-1.36a12.38 12.38 0 00-1.82.1V5.51a10.4 10.4 0 001.82.11h1.62zm6.78 2.37a13.62 13.62 0 00-2.26.13V4a12.91 12.91 0 002.29.13h1.38a12.81 12.81 0 00-1.69-2.86l1.37-.6a17.15 17.15 0 011.88 3.46h3a16.53 16.53 0 001.78-3.56l1.53.55c-.41.83-1.27 2.34-1.66 3h2.29a16 16 0 002.36-.15v1.65a14.33 14.33 0 00-2.36-.16h-4.73V7.7h3.92a14.46 14.46 0 002.37-.16v1.72a14 14 0 00-2.34-.13h-3.95v2.34h5.09a14.71 14.71 0 002.37-.16V13a16.13 16.13 0 00-2.34-.16h-5a14.54 14.54 0 002.13 3.91 14 14 0 002.84-3.36l1.32.94a20.51 20.51 0 01-3.25 3.53 14.57 14.57 0 004.94 3.64 7.15 7.15 0 00-1.06 1.5 18.37 18.37 0 01-3.82-3 16.24 16.24 0 01-3.43-5.3 22.43 22.43 0 01.21 2.57v4.89c0 1.4-.5 1.77-2.45 1.77a19.37 19.37 0 01-2.13-.11 4.08 4.08 0 00-.47-1.63 17 17 0 002.58.23c.75 0 .91-.11.91-.57V18.2a36.38 36.38 0 01-5.52 3.36 8.83 8.83 0 00-1.17.7l-.75-1.72a27.11 27.11 0 007.44-3.95v-3.75h-4.06a13.51 13.51 0 00-2.24.13v-1.61a17.17 17.17 0 002.27.11h4V9.13h-2.89a12.41 12.41 0 00-2.26.13V7.57a12.89 12.89 0 002.21.13h2.94V5.46zm-1 8a24.12 24.12 0 012.47 3.15l-1.2.86a15.67 15.67 0 00-2.44-3.2zm27.65-4.2a15 15 0 00-.08-1.72H194a26.09 26.09 0 005.93-4.26H187.3a18.79 18.79 0 00-2.62.15V1.56a19.7 19.7 0 002.65.16h12.32a11.7 11.7 0 002-.11l1.07 1.2c-.55.47-.57.49-.94.83a31.24 31.24 0 01-7.23 5.23V11h7.31a25.43 25.43 0 003.15-.15v1.92a26.62 26.62 0 00-3.15-.16h-7.31v8.69c0 1.74-.62 2.18-3 2.18-.83 0-1.63-.05-3.3-.18a6.31 6.31 0 00-.44-1.82 24.35 24.35 0 003.74.34c1 0 1.25-.13 1.25-.75v-8.49h-7.75a29.2 29.2 0 00-3.19.16v-1.92a28.35 28.35 0 003.25.15h7.69z" fill="#fff" data-name="レイヤー 2"/></svg>