<svg xmlns="http://www.w3.org/2000/svg" width="166.19" height="19.82"><path d="M5.27 13.33a4 4 0 01-.55.34 4 4 0 00-1.53-1.34v7.24H.63V6.19h4.66a8.64 8.64 0 00-1.13-1.84L5.56 4H0V1.89h8.21V.25l2.64.13c.17 0 .38.08.38.23a.41.41 0 01-.1.21l-.28.18v.86h8.26V4H14l.86.11c.32 0 .57.08.57.31s-.31.32-.57.34c-.27.54-.52 1.05-.73 1.42h4.28v10.64a2.66 2.66 0 01-.63 2.18c-.67.69-1.38.71-3.06.76a4 4 0 00-.78-2.54 11.47 11.47 0 001.24.1c.4 0 .74 0 .74-.78v-6c-.38.82-.72 1.57-2.1 1.57h-2.4c-1 0-1.7-.23-1.7-1.51V8.44H7.2l1.09.34c.32.1.4.21.4.31s-.31.3-.5.32A7.3 7.3 0 016 12.81h7.86v5H7.62v.61H5.27zm-2.08-1.4A5 5 0 006 8.44H3.19zM6.91 4a14.91 14.91 0 011.15 1.9L7 6.19h4.22A11.15 11.15 0 0012.3 4zm.71 10.67V16h3.84v-1.32zm8.3-6.24H12v1.06c0 .4.08.55.54.55h.82c.4 0 .59-.17.74-1.22a5.87 5.87 0 001.85.92zM28 3.86v1.81h-7V3.86zm7 5.42c.19 0 .34.11.34.25s-.21.23-.55.34v1.8a7 7 0 002.5 4 12.92 12.92 0 002.8 1.83 5.3 5.3 0 00-1.58 2A10.81 10.81 0 0134 15.24a8.85 8.85 0 01-4.75 4.37 5.68 5.68 0 00-1.49-1.87v1.58h-2.12v-.84h-1.83v1.07h-2.22v-7.27h6.17v5.25a8 8 0 003.32-2c1.4-1.52 1.38-3.72 1.36-6.37zm-7.7-8.17v1.77H22V1.11zm0 5.57v1.76H22V6.68zm0 2.81v1.76H22V9.49zm-1.64 7v-2.2h-1.85v2.2zM34.92.4c.23 0 .4 0 .4.23s-.27.32-.57.38c0 .36-.1 1.87-.1 2.18a6 6 0 001.19 2.5 10.73 10.73 0 004.39 2.75 6 6 0 00-1.59 2 11.3 11.3 0 01-4.85-3.78 9.08 9.08 0 01-4.66 3.7 6.31 6.31 0 00-1.43-1.98c3.92-1.26 4.66-3.24 4.66-6.49V.32zM31.73 11c.25.07.38.15.38.28s-.32.37-.61.37a13.47 13.47 0 01-1.07 3.47 5.65 5.65 0 00-2.35-.67 11.52 11.52 0 001.36-3.93zm-.13-9.19c.15 0 .34.06.34.23s-.17.25-.53.35a18 18 0 01-.79 3.38 6.18 6.18 0 00-2.27-.48 13.37 13.37 0 00.86-3.86zm7.88.46a.35.35 0 01.21.29c0 .09-.07.25-.32.25a1.79 1.79 0 01-.36 0 17 17 0 01-1.86 2.61A7.65 7.65 0 0035.26 4a10.88 10.88 0 002-2.9zm-.26 9c.15.06.3.14.3.33s-.32.34-.59.34a13.26 13.26 0 01-1.45 2.39 6 6 0 00-1.89-1.22 12.56 12.56 0 001.56-2.83zM54.93 16c0 .48.07.88 1 .88h1.87c.55 0 .88 0 1.32-2.56a5.63 5.63 0 002.33 1.17c-.63 3.34-1.36 3.81-3 3.81H55c-1.6 0-2.77-.49-2.77-2.52v-4.29h-2.57l.76.19c.13 0 .34.09.34.32s-.28.29-.63.31a9.9 9.9 0 01-6.64 6.51 9.5 9.5 0 00-1.89-2.1c1-.23 5-1.09 6-5.23h-3.19V.84h14.05v11.65h-3.53zm.84-11.84v-1h-8.52v1zm-8.52 1.89v1.07h8.52V6.05zm0 3v1.18h8.52V9zm29.9 7.35h-3.32v3.19h-2.64V16.4h-3.11v-2.25a17.68 17.68 0 01-3.32 3.47 6.11 6.11 0 00-2.31-1.7c4-2.52 6.66-7.44 7.54-9.33h-7V4.26h8.25V.32l2.54.16c.1 0 .54.07.54.3s-.21.29-.44.4v3.08h8.3v2.33h-7.34a23.83 23.83 0 007.79 8.84 6.31 6.31 0 00-2 2 23.79 23.79 0 01-3.51-3.4zm-6-7.18a29.83 29.83 0 01-3 4.78h3zM77.09 14a27.77 27.77 0 01-3.26-4.63V14zm17.76-6.95h6.49v8.26c0 2.22-.52 2.85-4.15 2.85a6.46 6.46 0 00-.82-2.71 8.71 8.71 0 001.36.11c.67 0 1-.09 1-1v-5h-3.88v10.05h-2.64V9.53h-3.8V18h-2.69V7h6.49V5h-8.27V2.65h8.27V.36l2.79.1s.38 0 .38.28-.36.33-.49.37v1.54h8.26V5h-8.3c.4.06.53.1.53.29s-.36.34-.49.38zm19.89 9.29c5-.95 6.24-4.64 6.24-6.85A5.35 5.35 0 00115.62 4c-.71 7.83-3.73 13.46-5.9 13.46-1.61 0-4.45-2.65-4.45-6.4a10.1 10.1 0 0110-9.62c4.47 0 8.48 3 8.48 8a9.24 9.24 0 01-2.48 6.36 11.38 11.38 0 01-4.72 3 13.3 13.3 0 00-1.81-2.46zm-6.8-5.46c0 1.78.94 3.19 1.6 3.19s1.19-1.43 1.53-2.27a19.82 19.82 0 001.57-7.29 7.32 7.32 0 00-4.7 6.37zm22.76 8.71h-2.33v-7.68a17.41 17.41 0 01-1.4 3 6.78 6.78 0 00-1.75-1.64 19.41 19.41 0 003.13-7h-2.56V4.16h2.48V.27l2.43.15c.05 0 .42.06.42.29s-.06.19-.42.36v3.09h1.79V6.3h-1.79V7a13.66 13.66 0 002.44 4 4.73 4.73 0 00-1.14 1.93 14.59 14.59 0 01-1.28-2.1zm1.3-3.88a24.47 24.47 0 005.51-2.8V10.1H135a17.21 17.21 0 011.72 2.29c-.25.21-1.39 1.09-1.6 1.28a27.07 27.07 0 00-2-2.42l1.72-1.15h-2.27V8.17h4.92v-1h-3.62V5.38h3.62v-.91h-4.73V2.62h2.56A11.11 11.11 0 00134.19 1l2.08-1a26.58 26.58 0 011.47 2.33l-.7.29h2.36A16.64 16.64 0 00140.66 0l2.24.7a.34.34 0 01.23.31c0 .13-.12.17-.44.25-.17.3-.5.88-.77 1.32h2.89v1.89H140v.91h3.59v1.76H140v1h5.25v1.96h-1.76l1.43 1c.1.08.21.14.21.33s-.3.28-.55.25a12.8 12.8 0 01-2.14 2.48 12.29 12.29 0 003.4 2.25 5.51 5.51 0 00-1.49 2 13.85 13.85 0 01-4.35-3.92v2.27c0 2.6-1 2.79-3.63 3a5.6 5.6 0 00-1.13-2.44h1.24c.77 0 1.07-.08 1.07-.8v-1.36a39.91 39.91 0 01-3.87 2.31c-.06.27-.1.5-.31.5s-.34-.25-.42-.4zm8-4.39a12.58 12.58 0 001.12 1.47A18.1 18.1 0 00143 10.1h-3zm26.19-2.88v2.39H158v5.86c0 1.79-.52 3.07-4.91 2.92a14 14 0 00-.84-2.73 12 12 0 001.57.15c1.49 0 1.49-.21 1.49-1.49v-4.71h-8.48V8.44h8.48V5.33l1.47.19a12.76 12.76 0 002.44-2h-10.33V1.13h13.75l1.49 1.29A53 53 0 01158 7.75v.69z" fill="#fff" data-name="レイヤー 2"/></svg>