<svg xmlns="http://www.w3.org/2000/svg" width="560" height="59.38"><path d="M0 54.38h560v5H0zM29.45 8.7l2.18.3c1 .17 1.35.21 1.35.67s-.55.55-1 .59c-.17.42-.47 1-1 2h8.15v21.47c0 4.16-1 5.92-7.77 5.92v-1.09a7.34 7.34 0 00-1.51-4.49v2.52H17.73v1h-5.51v-9.78a3.27 3.27 0 01-.42.21 8 8 0 00-2.94-2.77V39.7H2.77V12.31h8.78a16.09 16.09 0 00-1.64-3.07l3-.54h-11v-5h15.9v-3l6.34.3c.42 0 .8.12.8.54s-.42.59-.8.76v1.35h16v5zm-20.59 9v5.92a9.29 9.29 0 004.46-5.92zm24.45 4.57a3.94 3.94 0 01-3.86 2.4h-5.38c-2.48 0-3.28-.88-3.28-2.86v-4.12h-4.28l2.22.71c.3.08.89.29.89.67 0 .17 0 .46-1.14.72A15 15 0 0114.66 26h15.25v7.81c.84.09 1.55.21 2 .21 1.3 0 1.38-.42 1.38-1.38zM16.51 8.7a22.71 22.71 0 011.85 3.23l-1.52.38h7.36a27 27 0 001.68-3.61zm7.85 21.59h-6.63v2h6.63zm1.73-12.6V19c0 .55 0 .92.84.92h1.26c.79 0 .92-.71 1.26-2.26zm7.22 0h-3.82a11.84 11.84 0 003.82 2zM69.39 3.86c.42.05.63.17.63.42s-.38.51-1 .76A38.49 38.49 0 0167.58 12a14.29 14.29 0 00-5.38-1v1.1H48.09V7.9H62.2v2.94a38.52 38.52 0 001.52-7.73zM61.87 39h-5v-1.49h-2.39v2.06h-5.26V24.49h12.65v4.28a20.86 20.86 0 002.56-7.35l5.38 1.14c.29 0 .75.25.75.59 0 .63-.84.79-1.21.84a35.34 35.34 0 01-2.19 6.93 13.56 13.56 0 00-5.29-1.64v5.29c9-2.77 8.9-8.32 8.78-16l6.09.33c.21 0 .63.05.63.51 0 .25-.29.46-1.14.71v3.11A12.4 12.4 0 0079.85 30c.75.72 3.9 3.62 6.47 4.54a12.06 12.06 0 00-3.74 4.7 20.3 20.3 0 01-8.4-7.64c-1.26 2.4-4.54 6.46-9.18 7.93a12.94 12.94 0 00-3.15-4.08zM60.73 2.39v4.08H50.15V2.39zm0 11.09v4.08H50.15v-4.08zm0 5.51v4.07H50.15V19zm-3.82 13.73v-3.65h-2.43v3.65zM76.4 1.13c.51 0 .84.09.84.47s-.67.67-1.17.79c0 .63-.17 3.49-.17 4.08a9.58 9.58 0 003.1 5.84 25.85 25.85 0 007.64 4.32 14.85 14.85 0 00-3.78 4.54c-1.93-.88-6.3-2.9-9.24-6.8a18.69 18.69 0 01-8.82 6.72 16 16 0 00-3.32-4.5C68.72 14.24 70.4 10.67 70.4 4c0-1.22-.05-1.93-.09-3.07zm9.08 4a.69.69 0 01.42.59.52.52 0 01-.59.51 3.86 3.86 0 01-.76-.09 27.94 27.94 0 01-3.82 5.13 17.4 17.4 0 00-4.45-3.37 22.43 22.43 0 004-5.59zM85 23c.42.21.63.38.63.71 0 .51-.67.72-1.26.76a25.23 25.23 0 01-2.77 4.58 16 16 0 00-4.45-3 27.61 27.61 0 002.94-5.38zm35.71 8.88c0 .84.3 1.52 1.68 1.52h3c1.13 0 1.38-.47 1.55-1 .21-.72.72-2.77 1-3.95 3.15 2.31 4.74 2.65 5.5 2.77a19.27 19.27 0 01-1.89 6.13c-1 1.73-3.15 1.85-3.78 1.85H120c-3.28 0-5.8-1.09-5.8-5.29v-8.08h-4.49l2.06.55c.25.08.71.21.71.71 0 .8-.88.85-1.64.89-3.44 8.27-9.66 10.79-12.94 12.1a17 17 0 00-5-5c2.64-.59 10.33-2.31 12-9.25h-6.12V1.76h28.82v24.07h-6.89zm.42-23.27V7.14h-15.5v1.47zm-15.5 4.24v1.52h15.5v-1.52zm0 5.93v1.68h15.5v-1.68zm34.82-5.25V8h16V.92l6.05.38c1 .09 1.18.38 1.18.59s-.17.46-.89.92V8h16v5.55h-13.56a39.59 39.59 0 0014.71 16.21c-2.78 2.23-3.62 3-4.58 4.83a49.51 49.51 0 01-6.39-6v5h-6.22v5.93h-6.34v-5.96h-6.26v-5a50.52 50.52 0 01-6.43 6c-1-1.85-1.84-2.64-4.57-4.83a38.83 38.83 0 0014.7-16.21zm16 6.38a47.31 47.31 0 01-5.67 8h5.67zm12 8a47.76 47.76 0 01-5.7-7.91v7.89zM209 14h12.94v17.3c0 1.76 0 3.27-1.47 4.32s-3.57 1.26-7.18 1.26a14.34 14.34 0 00-1.93-6.47 18 18 0 002.6.26c1.34 0 1.6-.3 1.6-1.52V20H209v19.49h-6.34V20h-6.43v16.46h-6.42V14h12.85v-3.12h-16V5.17h16V.92l6.68.26c.25 0 .63.12.63.5s-.55.71-1 .8v2.69h16v5.71h-15.55c.25.08.5.25.5.5 0 .47-.59.68-1 .8zm43.55 18.3c9.12-1.68 11.8-8.73 11.8-13.1 0-3.41-1.8-9.66-9.7-10.29-1.3 15.37-7.65 26.84-12.1 26.84-3.28 0-9.37-5.55-9.37-13.32 0-9 8.24-19.57 20.59-19.57C263 2.86 271 9.12 271 19.16a19.59 19.59 0 01-5 13c-2.56 3-5.54 4.53-9.11 6.09a27.35 27.35 0 00-4.34-5.95zM239.4 21.93c0 3.23 1.81 5.67 2.69 5.67s1.81-1.89 2.27-3a36.82 36.82 0 003.23-14.45c-4.87 1.85-8.19 8-8.19 11.78zm51.41 9.37a44.71 44.71 0 0010.88-5.63v-4.83h-4.37a33.26 33.26 0 013.24 4.2 29.87 29.87 0 00-3.87 3 55.24 55.24 0 00-3.82-4.79l3.27-2.39h-3.57a10 10 0 00.89 1 9.62 9.62 0 00-2.57 4.5c-.79-1.05-1.26-1.68-1.89-2.69V39.7h-5.5V26.09a24 24 0 01-2.1 4.28 15.52 15.52 0 00-3.95-3.82 37.37 37.37 0 005.38-13.23h-4.2V8.23h4.58v-7l5.79.29c.47 0 1 .17 1 .63s-.59.63-1 .72v5.36h3.07v5.09H289v1.34a23.07 23.07 0 003.28 5.88V16.3h9.41v-1.56h-7.1V10.8h7.1V9.24h-9V5h4.11a16.12 16.12 0 00-1.84-2.69L299.84 0a36 36 0 012.73 4.28l-1.38.72h4.62a31.33 31.33 0 002.05-4.66l5.38 1.59c.51.17.84.34.84.63 0 .55-.54.59-1.26.59-.29.55-.33.67-1 1.85h4.88v4.24h-9.12v1.56h7v3.94h-7v1.56h10v4.54h-3.11l3 2.43a.79.79 0 01.42.63c0 .63-.71.55-1.17.55A24.19 24.19 0 01312.4 29a20.55 20.55 0 006.3 3.61 11.29 11.29 0 00-3.19 4.39 27.78 27.78 0 01-7.94-6.55v3.27c0 4.62-1.47 6-8.07 6.22a14.48 14.48 0 00-2.31-5.88 17.78 17.78 0 002.65.21c1.81 0 1.85-.46 1.85-1.51v-1.55c-.84.51-3.61 2.19-7.56 4.2 0 .25.12 1.35-.46 1.35s-.76-.55-1-1.14zm16.76-8.07a14.76 14.76 0 001.72 2.6 27.19 27.19 0 003.87-5h-5.59zm56.24-6.6v5.72h-15.88v11.59c0 2.69-.25 5.88-10.21 5.63-.46-4-1.38-5.42-2-6.38 1.34.08 2.14.16 2.94.16 2.86 0 2.86-.33 2.86-2.73v-8.27H325v-5.72h16.51v-6.21l3.23.33a15.7 15.7 0 003.44-3h-19V2.14h27.51l3 3.11a46 46 0 01-11.81 10.8v.58z" fill="#00b4dc" data-name="レイヤー 2"/></svg>