<svg id="icon_tw" data-name="icon tw" xmlns="http://www.w3.org/2000/svg" viewBox="0 0 35.64 37"><defs><style>.cls-1{fill:#333;}</style></defs><title>icon_tw</title><path id="パス_114" data-name="パス 114" class="cls-1" d="M35.63,7.45a14.55,14.55,0,0,1-4.2,1.15,7.34,7.34,0,0,0,3.22-4A14.83,14.83,0,0,1,30,6.33,7.32,7.32,0,0,0,17.55,13,20.76,20.76,0,0,1,2.48,5.35a7.33,7.33,0,0,0,2.26,9.77,7.4,7.4,0,0,1-3.31-.91v.09A7.32,7.32,0,0,0,7.3,21.47a7.42,7.42,0,0,1-1.93.26A7.85,7.85,0,0,1,4,21.6a7.32,7.32,0,0,0,6.82,5.07A14.66,14.66,0,0,1,1.74,29.8,16.91,16.91,0,0,1,0,29.7,20.82,20.82,0,0,0,11.21,33C24.66,33,32,21.84,32,12.18v-1A14.54,14.54,0,0,0,35.64,7.4"/></svg>