<svg xmlns="http://www.w3.org/2000/svg" viewBox="0 0 18.16 18.16"><title>icon_in</title><g id="レイヤー_1" data-name="レイヤー 1"><path id="パス_113" data-name="パス 113" d="M14.76,0H3.41A3.4,3.4,0,0,0,0,3.41V14.76a3.4,3.4,0,0,0,3.41,3.4H14.76a3.4,3.4,0,0,0,3.4-3.4V3.41A3.4,3.4,0,0,0,14.76,0ZM5.62,15.42H2.79V7H5.6ZM4.13,5.86h0A1.43,1.43,0,0,1,4,3h.2a1.43,1.43,0,0,1,.2,2.86ZM15.4,15.42H12.55V10.83c0-1.11-.29-1.87-1.29-1.87A1.44,1.44,0,0,0,9.9,10a1.94,1.94,0,0,0-.09.67v4.79H7L6.93,7H9.79l0,1.19A2.62,2.62,0,0,1,12.24,6.8c1.8,0,3.15,1.17,3.15,3.71v4.9Z"/></g></svg>