<svg id="レイヤー_1" data-name="レイヤー 1" xmlns="http://www.w3.org/2000/svg" viewBox="0 0 259.66 22.87"><defs><style>.cls-1{fill:#fff;}</style></defs><title>アートボード 2</title><path class="cls-1" d="M10.44,1c.31.05.5.1.5.32s-.26.33-.4.38c-.08.72-.12,1.56-.17,2.54A16.44,16.44,0,0,0,14.14,3c0,.89-.05,2-.05,2.55a9.74,9.74,0,0,0,.05,1.29A17.86,17.86,0,0,1,10.2,7.94c0,.27,0,1.42,0,1.64a12,12,0,0,1,4.08-.72,6.36,6.36,0,0,1,6.65,6.5,5.56,5.56,0,0,1-5.69,6c-3.62,0-3.74-3.22-3.76-4.23.5-.16,2.66-.88,3-1,0,.48,0,1.6,1.13,1.6.91,0,1.51-.91,1.51-2.11a3,3,0,0,0-3.19-3.17,11.45,11.45,0,0,0-3.72.84c.1,4.8.12,5.36.31,7.23L7.15,22A33,33,0,0,0,3,18.55c-.6.65-.89,1-1.22,1.4L0,15.82c1.1-.6,5.47-3.91,6.43-4.52,0-.84,0-1,0-2.88-1.42.08-3.1.1-4.47.1V4.7a9.42,9.42,0,0,0,1.9.15c.94,0,2.28-.1,2.57-.1,0-1.8,0-2.06-.1-4.46ZM5.06,16.47a2.7,2.7,0,0,0,1.08.62c.36,0,.34-.84.32-1.75C6.17,15.58,5.66,15.94,5.06,16.47ZM17.59,3.7a20.45,20.45,0,0,1,5.24,3.84,16.53,16.53,0,0,0-2.33,2.9,14.06,14.06,0,0,0-5.09-3.77Z"/><path class="cls-1" d="M40.1,1.49c.27.09.41.17.41.38s-.41.41-.69.43c-.27.41-.55.89-1.42,2.52,1.27.12,2.5.17,3,.17s.84,0,1.18,0a18,18,0,0,0-1.06,3.8A29.4,29.4,0,0,1,37,8.52c-.28.65-.62,1.51-.86,2.11a35.69,35.69,0,0,0,5.33.36c-.46,1.3-.84,2.81-1,3.56C39,14.45,37.3,14.31,35,14a8,8,0,0,0-.26,1.94c0,2.93,2.71,2.93,3.89,2.93s4.65,0,4.65-3.48a9.19,9.19,0,0,0-1.22-3.74,11.51,11.51,0,0,0,3.62-1.3,12.58,12.58,0,0,1,1.66,5.45c0,5.28-5.57,6.5-8.71,6.5-4.83,0-7.49-2.49-7.49-6a11.44,11.44,0,0,1,.36-2.9,20.63,20.63,0,0,1-3.12-.89l.81-3.56a23,23,0,0,0,3.24,1c.1-.31.27-.84.72-2.14a20.82,20.82,0,0,1-3.57-1.2l.72-3.72A29.81,29.81,0,0,0,34.58,4.2C34.82,3.55,36,.62,36.22,0Z"/><path class="cls-1" d="M64.75,1.15c.19.05.46.15.46.39s-.12.31-.53.33C64.15,3.5,64.1,3.67,64,4a36.81,36.81,0,0,0,7.83-1.89c.12.79.43,2.61.67,3.57a41.54,41.54,0,0,1-9.82,2c-.57,1.59-.76,2.07-1.24,3.24a14.16,14.16,0,0,1,6.24-1.63c6.41,0,6.74,4.51,6.74,5.71a5.91,5.91,0,0,1-2.57,4.85c-1.27.87-3.67,2.31-10.32,2.31-1,0-1.7-.08-2.23-.12a17.21,17.21,0,0,0-.89-3.58,35.71,35.71,0,0,0,3.58.22c.55,0,4.66,0,7.13-1.47A2.43,2.43,0,0,0,70.39,15c0-1.4-.72-2.57-2.92-2.57a12.3,12.3,0,0,0-8.31,4L55.7,14.74A33.89,33.89,0,0,0,58.9,8c-2.09,0-3.75-.07-4.66-.14l-.05-3.94A21.82,21.82,0,0,0,60,4.44,31.44,31.44,0,0,0,60.91.19Z"/><path class="cls-1" d="M90.31,4.32c.29.34,1.49,1.82,1.73,2.11A10.93,10.93,0,0,1,94.68,6a4.57,4.57,0,0,1,4.78,4.69c0,4.48-4.87,4.89-7.32,5.08A16.68,16.68,0,0,0,91,12.58c.41,0,.7,0,1.11,0,.81,0,3.89,0,3.89-2.11,0-.41-.12-1.35-1.54-1.35-.22,0-.41,0-.53,0,.43.7.67,1.15.89,1.51-.89.36-2.28.94-3.14,1.32a16.66,16.66,0,0,0-.89-1.85c-.89.41-1.42.7-1.76.89a47.69,47.69,0,0,1,3.37,9.27A31.87,31.87,0,0,0,89,22a41.13,41.13,0,0,0-2.81-9.21A34.3,34.3,0,0,0,83.5,15l-2.16-3.39a32.11,32.11,0,0,0,3.4-1.7,18.2,18.2,0,0,0-2.16-3.15L85.85,5.4a1.4,1.4,0,0,1,.5-.14.26.26,0,0,1,.29.26.69.69,0,0,1-.22.38c.37.65.94,1.73,1.3,2.38l1.37-.67c-.38-.53-.51-.7-1.51-2Z"/><path class="cls-1" d="M106,9.5V6.05h9.1V.12l3.77.19c.14,0,.45,0,.45.31s-.24.32-.45.39v5h8.93V9.5H119a17.38,17.38,0,0,0,9.31,10.37,9.32,9.32,0,0,0-2.78,2.86c-2.43-1.08-6.24-4.42-8.43-8.83a18.44,18.44,0,0,1-9.36,8.93,8.48,8.48,0,0,0-2.54-3.2c2-.79,8-3.07,9.6-10.13Z"/><path class="cls-1" d="M146.21,18.63h-5.07l1.47,1.44a.39.39,0,0,1,.12.24c0,.19-.15.26-.34.26a1.2,1.2,0,0,1-.6-.17,21.8,21.8,0,0,1-7.29,2.47,11.35,11.35,0,0,0-2.26-3.07,18.5,18.5,0,0,0,6.17-1.17h-3.72V10.18h17.38v8.45h-3.89a21.94,21.94,0,0,0,6.17,1.29,12,12,0,0,0-2.09,2.91,23.57,23.57,0,0,1-7.92-2.76ZM141.58,2.47V.12l4,.12c.12,0,.29.07.29.24s-.2.31-.63.53V2.47h2.26c-.17-.07-.34-.14-.72-.26A8.44,8.44,0,0,0,147.84,0l3.65,1.35c.12,0,.24.12.24.26,0,.34-.5.34-.67.34a3.08,3.08,0,0,1-.24.5h3.5V8.26h-3.5V4.94H135.91V8.38H132.5V2.47h3.58a7.77,7.77,0,0,0-.77-1.13L138.63,0a11.89,11.89,0,0,1,1.43,2.06,12.3,12.3,0,0,0-1.24.41Zm8.73,3.15v4H136.42v-4Zm-1.8,7.05v-.62H138.29v.62Zm-10.22,1.4v.62h10.22v-.62Zm0,2v.65h10.22v-.65Zm1.63-8.88V8h7V7.2Z"/><path class="cls-1" d="M165,2.26c.45.16.65.24.65.4s-.49.27-.65.29a27.9,27.9,0,0,0-1.56,9.92,8.48,8.48,0,0,0,.16,1.92c.15-.27.72-1.32,1-1.8a7,7,0,0,0,1.85,2,13.58,13.58,0,0,0-1.58,5.74l-3.41.91a25.17,25.17,0,0,1-1.71-9.6A45.81,45.81,0,0,1,161.28.86Zm6.33,11.28a6.67,6.67,0,0,0-.36,1.7c0,1.06.58,1.23,3.34,1.23a24.57,24.57,0,0,0,5.93-.65,16,16,0,0,0-.36,3.91,51,51,0,0,1-6.07.31c-3.58,0-6.34-.62-6.34-3.55a8.93,8.93,0,0,1,.79-3.53Zm-2.9-10.25c.72,0,1.68.12,3.12.12a27.71,27.71,0,0,0,7.06-.77,36.4,36.4,0,0,0,.33,3.65,35.8,35.8,0,0,1-7.39.72c-1.42,0-2.35-.07-3.12-.12Z"/><path class="cls-1" d="M184.78,5.16a19,19,0,0,0,3-.58c6.77-1.77,8.4-2.18,11-2.18,5.76,0,8.28,3.82,8.28,8,0,9-10.92,9.72-14.78,9.91a16.1,16.1,0,0,0-1.23-3.84c4.32,0,12-.12,12-6a4.29,4.29,0,0,0-4.69-4.59c-3.57,0-9.5,2.43-12.09,3.89Z"/><path class="cls-1" d="M217.2,2.78c.22.08.48.15.48.36s-.29.36-.5.39a21.25,21.25,0,0,0-1.35,7.22c0,2.93.91,5,1.61,5s1.68-2.11,2.33-3.62a10.93,10.93,0,0,0,2.52,2.54c-1.92,4.66-4.1,6.29-5.28,6.29-1.35,0-4.9-2.86-4.9-10.27a42.72,42.72,0,0,1,1.18-9ZM228.79,3A23.94,23.94,0,0,1,233.64,15c-1.41.55-3.12,1.36-3.91,1.77a21.92,21.92,0,0,0-4-11.88Z"/><path class="cls-1" d="M259.66,4.68c-6.87-.07-11,6-11,9.07,0,4,5.43,4.28,6.7,4.35a21.11,21.11,0,0,0-1.8,4.32c-4.2-1-8.83-3.22-8.83-8.38,0-4.41,3.31-7.18,4.25-7.94a80.47,80.47,0,0,0-9.92,1.41L238.61,3c.53,0,1,.07,1.8.07,3.53,0,13.1-.67,18.55-2.37Z"/></svg>