<svg xmlns="http://www.w3.org/2000/svg" width="631.91" height="54.78"><path d="M1.91 49.78h630v5h-630zM32.5 14.87v6H0v-6zm21.39 14.61c2.2-.14 4.79-2.09 5.51-2.59a22.07 22.07 0 01-3.1-4.36l2.34-1.65h-3v-4.79h14L71.28 18a28.1 28.1 0 01-5 9 16.68 16.68 0 006.15 2.84 25.26 25.26 0 00-2.59 4.32 32.83 32.83 0 01-6.8-3.88 19 19 0 01-6.44 3.7 12.84 12.84 0 00-2.74-4.21v1.15c0 3-2 3.24-6.26 3.28a16.86 16.86 0 00-1.6-4.9 9.41 9.41 0 002.48.36c1.22 0 1.22-.47 1.22-1.51v-8.71a9 9 0 01-1 .11v8.6h-3v-8.28a4.39 4.39 0 01-.72.07c-.11 4.14-.9 10.08-2.49 13.9a7.44 7.44 0 00-4.32-2.09c1.55-3 2.31-7.92 2.59-11.34a1.34 1.34 0 01-.39.07c-.25.47-.47.76-.76.76a.43.43 0 01-.36-.36l-.83-4.83c.87 0 1.41 0 2.24-.07V4.43h3.44c.25-.61.83-2.09 1.3-3.6l5.32.5c.22 0 .36.18.36.33 0 .32-.65.72-.9.79-.25.54-.61 1.44-.86 2h4.57v8.31A8.57 8.57 0 0056.63 6V2h11.23v7.86c0 .4 0 .69.39.69.65 0 .87-2.06 1-3.17a9.34 9.34 0 004.14 1.87c-.68 4.64-1.22 5.54-3.7 5.54H66a2.69 2.69 0 01-2.88-2.95V6.48h-1.67c-.4 3.74-1.62 7.16-4 9.29a9.3 9.3 0 00-3.6-2.16v1.47c.47-.07 1.08-.11 1.3-.14-.08.75-.15 3.06-.18 4-.65 0-.83 0-1.12.07zM45 9.9l3.45-.65a49.34 49.34 0 011.22 4.86V8.78H45zm0 5.83c1.18-.07 3.45-.22 4.67-.32v-1.08a20.78 20.78 0 00-3.63.72 24.48 24.48 0 00-1-4.4zm15.87 5.15a13.57 13.57 0 001.8 2.81 13.24 13.24 0 001.73-2.81zM93 5.9a.57.57 0 01.29.47c0 .29-.25.36-.43.43s-.47.11-.65.18c-2.16 5.19-7.45 11.2-9.83 12.78a12 12 0 00-4.43-3.67 26.86 26.86 0 0010-12.71zm8 11.67a83.94 83.94 0 019.4 13.75 13.42 13.42 0 00-5 3 33.81 33.81 0 00-1.55-3.17c-8 1.15-16.34 1.8-20 2 0 .25-.11 1-.65 1-.32 0-.5-.25-.61-.79l-1.22-5.25L85.1 28a118.57 118.57 0 006.66-16.6l5.55 1.88c.18.07.5.18.5.54 0 .54-.72.54-1.08.57-.72 1.8-3.1 7.85-5.94 13.28.9-.07 6.55-.5 10.33-1-2.05-3.06-3.2-4.53-4.46-6.12zm2.74-15.41c1 6.44 4.06 9.68 9.39 13.39a9.6 9.6 0 00-3.71 3.85A25.47 25.47 0 0199.18 6.8h-5.33V2.16zm37.41 23.4v7.74h-4.57v-7.74h-2.66a13.56 13.56 0 01-5.51 8.49 10.44 10.44 0 00-4-2.66V34h-5.15V2h15.08v12.47h-9.93v16.88c2.52-1.4 4.25-2.77 5-5.79h-3.71v-4h4.17v-2.12h-3.31v-3.78H144v3.78h-2.85v2.12h3.6v4zm-11.66-20h-5.11v1.28h5.11zm0 4.06h-5.11v1.37h5.11zm7.09 9.87h-2.23c0 .43 0 1.8-.07 2.12h2.3zm7.7 14.68a12.55 12.55 0 00-1.9-5.25 11.3 11.3 0 002.08.29c.69 0 1.44 0 1.44-1.26V14.47h-10V1.94h15.15V30c0 3.3-2.05 4.16-6.77 4.12zm1.62-28.66h-5.18v1.33h5.18zm0 4.06h-5.18v1.37h5.18zm23.95 10.95c-1 .86-2.81 2.73-2.81 3.92C167 27 172 27 173.48 27a50.06 50.06 0 0014.44-2.16 26.64 26.64 0 00.93 6.12 54.77 54.77 0 01-14.07 1.66c-5.62 0-7.85-.61-9.61-1.33-1.15-.47-4.57-2.16-4.57-5.8s3.74-7.09 5.21-8.42zM185 8.67c-3.34 1.34-7.09 3.57-9.07 5.87-1.29-1.11-2.66-2.27-3.78-3.09 1.34-1.23 1.66-1.48 2.7-2.34-2.23.18-8.28.5-11.33.43l-.29-6a72.37 72.37 0 009 .47 70.58 70.58 0 0010-.83zm1.59-5.61a25.61 25.61 0 013.27 3.78 14.77 14.77 0 00-2.12 2.59 40.22 40.22 0 00-3.45-4zM189.32 0a38 38 0 013.38 3.53A14.38 14.38 0 00190.4 6a29.53 29.53 0 00-3.13-3.53zm27.58 34.2h-5.19v-9.62a35.69 35.69 0 01-10.54 9.18 12.57 12.57 0 00-4.61-3.56 30.94 30.94 0 0011.56-9.2h-10.37v-4.69h6.73A29.08 29.08 0 00201.6 11l2.59-1.44h-4.75v-4.7h12.27V1.19l5.4.32c.44 0 .8.07.8.54s-.72.61-1 .69v2.12h12.2v4.68h-4.68l2.2.93c.25.11.36.26.36.44 0 .46-.44.54-.72.61a33.56 33.56 0 01-2.27 4.79h6.8V21h-10.7a28 28 0 0011.2 8.71 16.86 16.86 0 00-3.82 3.88 28.22 28.22 0 01-10.58-9.21zm-5.19-17.89V9.54h-4.64a20.43 20.43 0 013 5.54 17.8 17.8 0 00-2.74 1.23zm5.19-6.77v6.77h4.17a25.06 25.06 0 00-2.48-1.3 28.82 28.82 0 002.74-5.47zm35.93 14.61a25.7 25.7 0 01-4.25 4.36 8.92 8.92 0 00-3.38-2.41c.64-.51 1.18-.9 2-1.62-2.23 1-5 2-7.88 3 0 .44-.15.94-.54.94s-.51-.47-.58-.83L237 22.5a29.69 29.69 0 004.07-.76v-8.17h-3.71V8.89h3.71V1.4l5.32.29c.44 0 .76.07.76.4s-.22.43-.76.68v6.12h3.21v4.68h-3.21v6.55c.87-.36 1.41-.57 2.27-1h-.25v-3.61h21.81v3.64h-13.94l-.68 1.15H270c0 3.64-.11 10.84-2.45 12.67-1.37 1.08-3.67 1.19-5.94 1.19a10.63 10.63 0 00-1-3.89 27.09 27.09 0 01-4.28 4.5c-.94-1-1.51-1.29-3.82-2.3a25 25 0 007.6-8.32h-1.62a25.1 25.1 0 01-9.49 9.54 9.53 9.53 0 00-3.17-2.88 21.84 21.84 0 008.39-6.66zm-3.28-5a15.09 15.09 0 00-.25 3.2 22.9 22.9 0 002.19-3.2zm18.14-4.82h-16.81V1.66h16.81zm-4.86-7.71V5.4h-7.09v1.22zm-7.09 2.88v1.23h7.09V9.5zm8.5 14.65a40.67 40.67 0 01-2.85 5c.44 0 .83.07 1.26.07.72 0 1.37-.07 1.62-.9a18.1 18.1 0 00.65-4.18zM294 28c7.81-1.44 10.12-7.48 10.12-11.23A8.52 8.52 0 00295.77 8c-1.11 13.17-6.55 23-10.36 23-2.81 0-8-4.76-8-11.41 0-7.74 7.05-16.78 17.64-16.78 7.88 0 14.76 5.36 14.76 14a16.8 16.8 0 01-4.25 11.12c-2.2 2.56-4.75 3.89-7.81 5.22A23.27 23.27 0 00294 28zm-11.26-8.89c0 2.78 1.54 4.86 2.3 4.86s1.55-1.62 1.94-2.55A31.58 31.58 0 00289.73 9c-4.18 1.58-7.02 6.87-7.02 10.11zm51.05-2.91a4.42 4.42 0 01-.25-1.55V1l5.46.4c.36 0 .61.15.61.4s-.29.5-.93.86v3.5a37.55 37.55 0 006.51-3.5l3.74 3.39c.15.14.33.32.33.5a.51.51 0 01-.58.51 3.11 3.11 0 01-.75-.15 83 83 0 01-9.25 4v1.15c0 1.34 1.08 1.34 1.58 1.34h3.53c1.26 0 1.62-1.48 2.08-3.28a12.59 12.59 0 004.29 1.94c-1.05 6-3.42 6-5.4 6h-7.49a5.08 5.08 0 01-2.81-.83c-.25.54-.72 1.48-1 2.05h12.24v14.8h-5.62v-1h-14v1h-5.58V19.29h7.27a26.12 26.12 0 001.29-2.91c-5.14.93-5.61 1-10.72 2-.11.43-.25.75-.58.75s-.43-.36-.5-.68L316 13.68c1.34-.07 2.88-.22 4-.4V1.08l5.83.36a.5.5 0 01.47.5c0 .33-.33.51-.83.76v2.56h7.05v4.31h-7.05v2.92c4-.61 5.72-1 7.05-1.26a25.53 25.53 0 00-.54 4.57c-.11 0-.18 0-.29.07zm6.33 8.35v-1.3h-14v1.3zm0 4.71v-1.4h-14v1.4zm26.25-2.12a38.08 38.08 0 009.32-4.82v-4.14H372a27.32 27.32 0 012.77 3.6 26.55 26.55 0 00-3.31 2.55 46.58 46.58 0 00-3.27-4.1l2.8-2.05h-3.06a8.37 8.37 0 00.76.86 8.24 8.24 0 00-2.2 3.85c-.68-.9-1.08-1.44-1.62-2.3v13.75h-4.71V22.68a20.92 20.92 0 01-1.8 3.67 13.32 13.32 0 00-3.39-3.28 31.63 31.63 0 004.61-11.34h-3.6V7.38h3.93v-6l5 .25c.4 0 .83.14.83.54s-.5.54-.83.61v4.6h2.63v4.35h-2.63v1.16a19.93 19.93 0 002.81 5v-3.6h8.06V13h-6.08V9.57h6.08V8.24H368V4.61h3.52a14.9 14.9 0 00-1.62-2.31l4.21-2a32.62 32.62 0 012.34 3.7l-1.19.61h4a26.28 26.28 0 001.77-4L385.59 2c.44.14.72.29.72.54 0 .47-.47.5-1.08.5-.25.47-.28.58-.86 1.59h4.17v3.61h-7.81v1.33h6V13h-6v1.33h8.57v3.89h-2.66l2.55 2.09a.7.7 0 01.36.54c0 .54-.61.46-1 .46a20.19 20.19 0 01-3.67 3.93 17.77 17.77 0 005.4 3.09 9.68 9.68 0 00-2.74 3.67 23.91 23.91 0 01-6.81-5.62v2.81c0 4-1.26 5.11-6.91 5.33a12.51 12.51 0 00-2-5 14.92 14.92 0 002.27.18c1.55 0 1.58-.4 1.58-1.3v-1.33c-.72.43-3.09 1.87-6.48 3.6 0 .21.11 1.15-.39 1.15s-.65-.47-.86-1zm14.36-6.91a12.91 12.91 0 001.48 2.23 23 23 0 003.31-4.28h-4.79zm13.72-.36a38.53 38.53 0 008-8.39c2.92-4 3.89-5.25 6.08-5.25s3.75 1.51 6.09 4.46c3.09 3.85 8 9.94 14.79 14.65a35.45 35.45 0 00-4 5.47c-6.05-5.11-10.22-10.26-15.08-16.23-.29-.36-1.26-1.55-1.95-1.55s-1.26 1-1.76 1.69c-4.1 6-4.54 6.7-7.34 9.79z" fill="#ff5064" data-name="レイヤー 2"/></svg>