<svg xmlns="http://www.w3.org/2000/svg" viewBox="0 0 529.43 55.89"><defs><style>.cls-1{fill:#ff5064;}</style></defs><title>アセット 2</title><g id="レイヤー_2" data-name="レイヤー 2"><g id="コンテンツ"><path class="cls-1" d="M1.27.07h9V3.25H4.45V23.69H1.27Z"/><path class="cls-1" d="M28.42,5.85V20.59c0,2.1-1.07,2.75-4.62,2.72a6.81,6.81,0,0,0-1.45-3.82,10.45,10.45,0,0,0,1.77.15c.85,0,1.2,0,1.2-.82V17.27H21.17a17.78,17.78,0,0,1-1.62,6.22,11.4,11.4,0,0,0-3-1.85c.65-1.4,1.52-3.47,1.52-8.72V6.47A6.54,6.54,0,0,0,16.55,5.3,13.75,13.75,0,0,0,20.2,0L24,.52c.17,0,.32.1.32.3s-.32.38-.67.42c-.12.25-.15.33-.2.42h3.25l1.42,1c-.77,1.35-1.2,2-2,3.2Zm-6.07,0a12.94,12.94,0,0,0,.85-1.48H21.9c-.45.63-.62.88-1.1,1.48Zm-1.12,4.3h1V8.8h-1Zm0,4.12h1V12.82h-1Zm4.1-5.47h-.95v1.35h.95Zm0,4h-.95v1.45h.95ZM40.17,4.65V14.6H36V18l1-.15c-.42-1.17-.55-1.47-.8-2l2.9-1a36.82,36.82,0,0,1,2.12,7.57,14.64,14.64,0,0,0-3.25.9,17.13,17.13,0,0,0-.37-2.22c-4.12.88-4.72,1-7.15,1.45-.15.52-.23.72-.5.72s-.27-.2-.32-.37L28.8,19l3.92-.52V14.6H32v.88h-2.9V4.65h3.6V.3l3.72.1a.36.36,0,0,1,.37.33c0,.3-.2.38-.72.57V4.65Zm-7.35,6.52V7.95H32v3.22ZM36.1,7.95v3.22h.85V7.95Z"/><path class="cls-1" d="M53,6.6C55.55,4.4,57.4,4,58.45,4s3.37.83,3.37,4.12a33.15,33.15,0,0,1-.42,4.32,24.69,24.69,0,0,0-.3,3.5c0,.63.1,1.25.7,1.25.4,0,1.45-.28,2.87-1.85a20.93,20.93,0,0,0,1.2,4.25,7.73,7.73,0,0,1-5.47,2.5c-2,0-3.55-1.7-3.55-4.57,0-1.22.63-6.6.63-7.7,0-.35,0-1.2-.75-1.2-1.27,0-3.57,2.47-5.1,4.25,0,4.77,0,5.3.07,6.45,0,.58.28,3.15.33,3.67l-4.67.2a31.32,31.32,0,0,0,.17-3.77c0-.22,0-1.22,0-1.42l-1.9,2.77L42.4,17.4a50.1,50.1,0,0,0,5.22-6v-1a25.43,25.43,0,0,1-3.9.83L43,6.65a16.23,16.23,0,0,0,4.75-.52c0-1.08,0-4.55-.05-5.65l4.27.5c.33,0,.58.1.58.42s-.25.42-.48.55a18.61,18.61,0,0,0-.35,3.47Z"/><path class="cls-1" d="M90.17,5.55c-7.62.33-11.12,6.12-11.12,9,0,3.2,4,4.12,6.87,4.17a33,33,0,0,0-1.7,4.8c-4.55-.8-9.95-2.87-9.95-8.5,0-4.45,3.55-7.42,4.57-8.2-2.2.17-8.35,1-10.35,1.33L68,3c.55.05,1.15.08,2,.08,5.1,0,15.2-.87,19.52-2.27Z"/><path class="cls-1" d="M95.8,15.82a31.88,31.88,0,0,1,5.2,4.07L98,23a19.11,19.11,0,0,0-4.8-4.4Z"/><path class="cls-1" d="M119.7,8.5V4.77h5.8V.37l4,.18c.3,0,.55.07.55.35s-.4.52-.62.63V4.77h6.1V8.5H131a26,26,0,0,0,5.5,7.4,11.42,11.42,0,0,0-2.32,3.22,13.45,13.45,0,0,1-2.2-2.47v3h-2.5v3.82H125.5V19.69h-2.55V16.47a28.76,28.76,0,0,1-2.25,2.75,9.35,9.35,0,0,0-1.82-2.07v6.37H114.8V12.37c-.3.38-.48.58-.8,1A13,13,0,0,0,111.5,10a29.67,29.67,0,0,0,5-9.72l4.1,1.25c.18,0,.4.13.4.38s-.42.47-.75.52C120,3,119,5.32,118.8,5.8c.4.15.55.28.55.5s-.25.4-.48.53v8.6a25.78,25.78,0,0,0,4.65-6.92Zm5.8,4A25.39,25.39,0,0,1,123.25,16h2.25Zm6,3.55a30.67,30.67,0,0,1-2.07-3.27V16Z"/><path class="cls-1" d="M147.27,5V5.1A13.78,13.78,0,0,0,151.5.15l3.77.5c.22,0,.47.08.47.38a.55.55,0,0,1-.32.42,16.36,16.36,0,0,0,5.67,3.77,11.67,11.67,0,0,0-2,3.35c-.42-.2-.57-.27-1-.5V9h-2.25v.87h4.35v6.7h-3.75a10.78,10.78,0,0,0,4.67,3.47,12.19,12.19,0,0,0-2.27,3.35,16,16,0,0,1-4.8-4,15.45,15.45,0,0,1-5,4.2,10,10,0,0,0-2.2-2.55c-1,2.15-2,2.2-4.62,2.33a11.51,11.51,0,0,0-1.1-3,7.77,7.77,0,0,0-1.07.35,28.53,28.53,0,0,0-.25-4.4,1,1,0,0,1-.27.15,30.9,30.9,0,0,1-.27,5.5,10.41,10.41,0,0,0-2.25-.33,19.31,19.31,0,0,0,.47-4.3c0-.6,0-1,0-1.4l2,0a.54.54,0,0,1,.4.15l1.25-.22a34.81,34.81,0,0,1,.42,3.95,10.61,10.61,0,0,0,1.17.07c.95,0,1.32-.07,1.7-2a6.68,6.68,0,0,0-.8.33,18.48,18.48,0,0,0-.55-2.65l1-.37a15.51,15.51,0,0,1,.43,1.55,18.24,18.24,0,0,0,0-2H141.2v.7h-3.35V1h10.27V4h-2.6V5ZM142.4,5V4h-1.2V5Zm0,3.37v-1h-1.2v1Zm0,3.55v-1h-1.2v1Zm.25,3.65a21,21,0,0,1,.67,3.12,5.06,5.06,0,0,0-1.3.4,18.8,18.8,0,0,0-.52-3.17Zm2.87-8.2v1h1.75v2.5h-1.75v1h2.25a40,40,0,0,1-.6,8.17,8.56,8.56,0,0,0,4.3-3.5h-3.32V9.92h4V9h-2.55V8.2a8.26,8.26,0,0,1-1.1.85,14.88,14.88,0,0,0-1.4-1.65Zm6.7,6.37V12.6h-1v1.17Zm3.25-7.55a10.56,10.56,0,0,1-2.1-2,12.89,12.89,0,0,1-1.67,2Zm.2,6.37v1.17h1.17V12.6Z"/><path class="cls-1" d="M171.42,1.4c.45,0,.68.08.68.4s-.33.4-.65.5a88.86,88.86,0,0,0-.73,10.95c0,2.82.1,5.25,2.57,5.25,3.92,0,7.52-5.25,8.47-7.25a32.83,32.83,0,0,0,3.2,3.87c-1.17,1.92-5.4,8-12.12,8s-6.6-5.62-6.6-10.22c0-1.35.15-7.3.15-8.52,0-.25,0-2.33-.12-3.67Z"/><path class="cls-1" d="M210.17,5.55c-7.62.33-11.12,6.12-11.12,9,0,3.2,4,4.12,6.87,4.17a33,33,0,0,0-1.7,4.8c-4.55-.8-9.95-2.87-9.95-8.5,0-4.45,3.55-7.42,4.57-8.2-2.2.17-8.35,1-10.35,1.33L188,3c.55.05,1.15.08,2,.08,5.1,0,15.2-.87,19.52-2.27Z"/><path class="cls-1" d="M212.47,17v-3.4h9.45v-.72h-3V2.1h2.3a19.89,19.89,0,0,0,.67-2l4.1.5c.28,0,.47.13.47.38s-.47.45-.72.47a7,7,0,0,1-.27.65h3.6V4.42A29.82,29.82,0,0,0,232.14,1l3.2,2.15a.54.54,0,0,1,.33.48c0,.22-.2.32-.45.32a2.9,2.9,0,0,1-.4-.07,26.2,26.2,0,0,1-3.32,3.45,28.11,28.11,0,0,1,4.1,2.95,21,21,0,0,0-2.42,3.12,24.57,24.57,0,0,0-4.1-3.1v2.55h-3v.72h9.45V17H229.1a20.71,20.71,0,0,0,6.62,3.1,13.67,13.67,0,0,0-2.62,3.2,24.74,24.74,0,0,1-7-4.45v4.57h-4.15V18.75a23.1,23.1,0,0,1-7.2,4.57,11.7,11.7,0,0,0-2.65-3.22A24,24,0,0,0,218.8,17Zm-.32-7.32a25,25,0,0,0,6.15-2.92,12.18,12.18,0,0,0,.42,4l-4.22,2.17c-.08.38-.1.6-.42.6s-.37-.25-.45-.42ZM214.8.82a17.17,17.17,0,0,1,4,3A13.35,13.35,0,0,0,216.45,7a21.14,21.14,0,0,0-4-3.15Zm7.9,5.37h2.63V5.12H222.7Zm2.63,2.5H222.7V9.8h2.63ZM230.9,7c-.83-.7-1.12-1-1.83-1.47V9.22Z"/><path class="cls-1" d="M246.42,1.4c.45,0,.68.08.68.4s-.33.4-.65.5a89,89,0,0,0-.72,10.95c0,2.82.1,5.25,2.57,5.25,3.92,0,7.52-5.25,8.47-7.25a32.83,32.83,0,0,0,3.2,3.87c-1.17,1.92-5.4,8-12.12,8s-6.6-5.62-6.6-10.22c0-1.35.15-7.3.15-8.52,0-.25,0-2.33-.12-3.67Z"/><path class="cls-1" d="M269.1,1.9a31.86,31.86,0,0,0,.5,4.17,12.2,12.2,0,0,1,4.2-1.22A21.86,21.86,0,0,0,274.15.5l4.8,1c.35.08.47.2.47.4s-.4.42-.62.48c-.15.77-.25,1.22-.58,2.62,5.3,1.07,7,4.8,7,8.3,0,6.75-5.87,9.35-9.42,9.95a15.54,15.54,0,0,0-2.37-3.72c2.92-.1,7.55-2.12,7.55-6.32a4.53,4.53,0,0,0-3.77-4.52,28.2,28.2,0,0,1-3,6.82c.17.25,1.1,1.4,1.2,1.5a30.74,30.74,0,0,0-3.22,3.1c-.35-.43-.58-.68-.87-1.1-2.35,2.3-3.82,2.42-4.77,2.42-2.5,0-3.87-2.37-3.87-4.95A11.12,11.12,0,0,1,266,8.6a37.73,37.73,0,0,1-1.32-5.22Zm-1.52,10.75a7.92,7.92,0,0,0-1.18,3.65c0,.17,0,.85.68.85.1,0,1-.08,2-1.45C268.57,14.72,268,13.67,267.57,12.65Zm2.95-2.92a20.16,20.16,0,0,0,1.15,2.5,18.44,18.44,0,0,0,1.47-3.67A9.13,9.13,0,0,0,270.52,9.72Z"/><path class="cls-1" d="M305.57,3.5a58.5,58.5,0,0,0-6,5.27,6.2,6.2,0,0,1,2.4-.4c4.22,0,7.22,2.87,7.22,6.72,0,4.57-4.12,8-9.57,8-2,0-6.5-.62-6.5-4.42,0-2.77,2.65-4,4.82-4,2.37,0,4.75,1.38,5.45,3.32a3,3,0,0,0,1.4-2.67c0-.67-.25-3.4-3.95-3.4-2.9,0-5.7,1.2-9.9,6.17l-3.12-3.45a62.33,62.33,0,0,0,9.55-8.95,41.57,41.57,0,0,1-6.17.8l-.6-4.3c.47,0,1,0,1.82,0,2.5,0,7.5-.3,10.72-1.67ZM297.82,18c-.8,0-.9.48-.9.7,0,.88,1.33,1.08,2,1.08a4.71,4.71,0,0,0,1-.1A2.13,2.13,0,0,0,297.82,18Z"/><path class="cls-1" d="M321.35,1.35V7.12l-1,7.4h-2.65l-1-7.4V1.35ZM316.7,16.87h4.6v4.57h-4.6Z"/><path class="cls-1" d="M336.72,23.82h-9V20.64h5.87V.2h3.17Z"/><path class="cls-1" d="M23,41.67v4.4H0v-4.4Z"/><path class="cls-1" d="M46.29,42.8l1.47,1.57a19.3,19.3,0,0,1-3.4,6.07,14.11,14.11,0,0,0,4,1.57,11.76,11.76,0,0,0-2.12,3.52,16.47,16.47,0,0,1-4.67-2.42,15.77,15.77,0,0,1-4.3,2.38A7.3,7.3,0,0,0,35.55,53c-.12,2.15-1.9,2.47-4.8,2.45a7.41,7.41,0,0,0-1.23-3.82,15.58,15.58,0,0,0,1.8.17c.9,0,.92-.2.92-1v-5a6.09,6.09,0,0,1-.67.08V51H29.32V46l-.55,0a27.28,27.28,0,0,1-1.6,9.42,7.1,7.1,0,0,0-3.1-1.8,20.66,20.66,0,0,0,1.6-7.4l-.15,0c-.07.2-.2.45-.47.45s-.3-.25-.33-.37l-.4-3.45a3.84,3.84,0,0,0,1.23.08V34.52h2.4a15,15,0,0,0,.77-2.35l4.32.47c.23,0,.42.08.42.28,0,.4-.52.5-.85.57a9.38,9.38,0,0,0-.52,1h3.45V39.9a8.11,8.11,0,0,0,1.45-5V33h8v5.3c0,.25,0,.4.27.4.48,0,.58-1.5.6-2.15a8.42,8.42,0,0,0,2.72,1.55C48.19,41.57,47.42,42,46,42H43.42a1.87,1.87,0,0,1-2-2.12V36.42h-.95A9.71,9.71,0,0,1,38.1,42.6a8.2,8.2,0,0,0-2.55-1.52v1.2c.15,0,.62-.1.95-.12a4,4,0,0,0-.05.65ZM28.82,39l2.3-.77a17.65,17.65,0,0,1,1.12,3V37.65H28.82Zm0,3.9c2.2-.12,2.47-.15,3.42-.25v-.9a17.11,17.11,0,0,0-2.45.92,19.44,19.44,0,0,0-1-3.17ZM36.4,45.3c-.23,0-.4,0-.85.08v6.57a11.64,11.64,0,0,0,3-1.47,16.76,16.76,0,0,1-2.1-2.95l1.92-1.15h-2ZM40,46.37a16.31,16.31,0,0,0,1.45,1.77,8.72,8.72,0,0,0,1.27-1.77Z"/><path class="cls-1" d="M60,35.87a.36.36,0,0,1,.2.35c0,.3-.25.38-.85.47a26.12,26.12,0,0,1-6.65,8.92,17,17,0,0,0-3.57-3,20.54,20.54,0,0,0,6.72-8.77Zm6,8A51,51,0,0,1,72,53.57a16.83,16.83,0,0,0-4,2.15c-.27-.65-.55-1.25-1.07-2.27-2,.22-11,1.17-13.82,1.45-.23.43-.3.55-.52.55s-.27-.12-.35-.48l-.8-4.2c.67,0,1.42,0,2.72-.12A75.78,75.78,0,0,0,58.72,39.4L63.42,41a.38.38,0,0,1,.33.38c0,.32-.25.4-.95.5-.6,1.63-3.2,7.25-3.87,8.52,2-.15,4-.33,6-.5a30.22,30.22,0,0,0-2.6-3.75ZM67.27,33c.63,4.8,4.72,7.87,6.5,9.2a16.5,16.5,0,0,0-2.95,3.35,20.73,20.73,0,0,1-6.95-8.75H60.5V33Z"/><path class="cls-1" d="M80,49.6V46.72H82.3a11.85,11.85,0,0,0,0-1.32H80.4V42.62H92.67V45.4H90.82v1.32h2.35V49.6H90.82v5.25H87.27V49.6H85.52a8.75,8.75,0,0,1-3.15,5.75,7.91,7.91,0,0,0-3-2.07v2.12h-4V32.82H86v9H79.32V53.17A5.63,5.63,0,0,0,82,49.6Zm2.3-13.27V35.5h-3v.82Zm-3,2.08v.87h3V38.4Zm8,7h-1.5v1.32h1.5ZM97.69,32.82V52.27c0,2.9-2,3.1-5.1,3.1a9,9,0,0,0-1.12-4,6.47,6.47,0,0,0,1.47.17c.38,0,.82,0,.82-.7v-9H87v-9Zm-3.92,3.5V35.5h-3v.82Zm-3,2.08v.87h3V38.4Z"/><path class="cls-1" d="M115.19,34.1a14.73,14.73,0,0,0,0,19.7l-2.37,2.1a17.82,17.82,0,0,1,0-23.89Z"/><path class="cls-1" d="M128.87,38.5a2.67,2.67,0,0,0-2.6-1.47c-3.27,0-3.47,3.07-3.6,4.9a7,7,0,0,1,4.7-1.72c2.17,0,7.1,1.1,7.1,6.65,0,3.5-2.45,7.15-7.95,7.15-6,0-9-4.4-9-10.75,0-5.75,2.87-10.45,8.85-10.45,2.57,0,5.35,1,6.6,2.72a6.94,6.94,0,0,1,1.2,3Zm.38,8.4A3,3,0,0,0,126.1,44a2.82,2.82,0,0,0-3,2.85,3.09,3.09,0,0,0,6.17,0Z"/><path class="cls-1" d="M145.5,47.65a14.16,14.16,0,0,1-4.7,8A12.49,12.49,0,0,0,137,52.94c3.95-3.1,4.52-6.32,4.52-10.3V33h16.27V51.57c0,3.67-1.87,3.82-6.27,3.77A10.34,10.34,0,0,0,150.2,51c.25,0,1.75.22,2.25.22.87,0,.9-.45.9-1.12V47.65ZM153.35,44V42.15h-7.4c0,.67,0,.8,0,1.82Zm0-5.37V36.8h-7.4v1.8Z"/><path class="cls-1" d="M169.17,53.44V40.75H165.4V37.1c2.82-.42,4-1.25,4.85-3.75h4.1V53.44Z"/><path class="cls-1" d="M196,37.35H187.7L187,41.1A5.31,5.31,0,0,1,190.62,40c3.5,0,6.8,2.13,6.8,6.67,0,3.75-2.45,7.3-8.55,7.3a10.19,10.19,0,0,1-6.1-1.77,6.43,6.43,0,0,1-2.3-4.37h5.42c.48,1.75,1.83,1.9,2.95,1.9s3.35-.3,3.35-2.95a2.85,2.85,0,0,0-3.25-2.95c-1.7,0-2.07.33-2.55.75h-5.07l2-11.25H196Z"/><path class="cls-1" d="M207.3,53.24v1.3h-4.47V33.8h18.7v20.7H217V53.24ZM217,41.55V37.7H207.3v3.85Zm0,7.8v-4H207.3v4Z"/><path class="cls-1" d="M235.45,43.95a3.27,3.27,0,1,1-3.27-3.27A3.29,3.29,0,0,1,235.45,43.95Z"/><path class="cls-1" d="M262.79,39.15v4h-8.32v7.7h9.17v4h-23v-4h9.2v-7.7h-8.32v-4h8.32V32.37l4.85.2a.42.42,0,0,1,.45.38c0,.28-.25.42-.7.65v5.55Z"/><path class="cls-1" d="M269,47.82a32,32,0,0,1,5.2,4.07l-3,3.07a19.09,19.09,0,0,0-4.8-4.4Z"/><path class="cls-1" d="M292.12,53.44V40.75h-3.77V37.1c2.82-.42,4-1.25,4.85-3.75h4.1V53.44Z"/><path class="cls-1" d="M314.77,38.5a2.67,2.67,0,0,0-2.6-1.47c-3.27,0-3.47,3.07-3.6,4.9a7,7,0,0,1,4.7-1.72c2.17,0,7.1,1.1,7.1,6.65,0,3.5-2.45,7.15-7.95,7.15-6,0-9-4.4-9-10.75,0-5.75,2.87-10.45,8.85-10.45,2.57,0,5.35,1,6.6,2.72a6.94,6.94,0,0,1,1.2,3Zm.38,8.4A3,3,0,0,0,312,44a2.82,2.82,0,0,0-3,2.85,3.09,3.09,0,0,0,6.17,0Z"/><path class="cls-1" d="M330.25,53.24v1.3h-4.47V33.8h18.7v20.7h-4.55V53.24Zm9.67-11.7V37.7h-9.67v3.85Zm0,7.8v-4h-9.67v4Z"/><path class="cls-1" d="M358.39,43.95a3.27,3.27,0,1,1-3.27-3.27A3.29,3.29,0,0,1,358.39,43.95Z"/><path class="cls-1" d="M370.25,53.24v1.3h-4.47V33.8h18.7v20.7h-4.55V53.24Zm9.67-11.7V37.7h-9.67v3.85Zm0,7.8v-4h-9.67v4Z"/><path class="cls-1" d="M391.3,32a17.81,17.81,0,0,1,0,23.89l-2.37-2.1a14.73,14.73,0,0,0,0-19.7Z"/><path class="cls-1" d="M428.82,51.42l-.67-.67,6.82-6.8-6.82-6.8.67-.67,6.8,6.82,6.8-6.82.67.67-6.82,6.8,6.82,6.8-.67.67-6.8-6.82Zm2.83-7.47a1.75,1.75,0,1,1-1.74-1.74A1.75,1.75,0,0,1,431.65,43.95Zm5.71-5.71a1.74,1.74,0,1,1-1.74-1.76A1.75,1.75,0,0,1,437.36,38.24Zm0,11.42a1.74,1.74,0,1,1-1.74-1.74A1.74,1.74,0,0,1,437.36,49.66Zm5.73-5.71a1.75,1.75,0,1,1-1.76-1.74A1.76,1.76,0,0,1,443.1,43.95Z"/><path class="cls-1" d="M456.22,38.91a15.33,15.33,0,0,1,0-1.66h-4.56V34.69H459c0,.48-.08,2.6-.08,3,0,2.12,0,9,8,14a7.29,7.29,0,0,0-2.29,1.93c-3.53-2.41-7.08-6.76-8-11.19a19.67,19.67,0,0,1-8.13,11.21,7.88,7.88,0,0,0-2.14-2c6.72-4.39,7.79-9.49,8.27-13.12Z"/><path class="cls-1" d="M477.14,47.35a18.66,18.66,0,0,1-2.77,2.73,4.41,4.41,0,0,0-1.7-1.24,14.81,14.81,0,0,0,1.81-1.47c-2.65,1.13-5,1.91-5.35,2,0,.27-.06.55-.34.55s-.25-.27-.31-.48L467.84,47a17.54,17.54,0,0,0,2.56-.57V41.2H468V38.89h2.35V34.39l2.58.15c.25,0,.46,0,.46.25s-.11.25-.46.38v3.72h2.16V41.2H473v4.43a14.91,14.91,0,0,0,2.29-1,6.37,6.37,0,0,0-.21,2.08,14.55,14.55,0,0,0,1.58-2.16h-2.14V42.75h12.68v1.83H479a8.6,8.6,0,0,1-.44.78h8.31c0,1.22,0,5.35-1.09,7.05-.57.92-1.89,1.09-2.88,1.09-.27,0-.46,0-.78,0a7.56,7.56,0,0,0-.76-2.31,16.71,16.71,0,0,1-2.58,2.6,4.86,4.86,0,0,0-1.87-1.2,15.36,15.36,0,0,0,4.64-5.21h-.88a19,19,0,0,1-2.37,3,12.53,12.53,0,0,1-3.61,2.75,5.06,5.06,0,0,0-1.6-1.45,12.75,12.75,0,0,0,5.08-4.33ZM485.49,42H476V34.75h9.45Zm-2.31-4.43v-1h-4.66v1Zm-4.66,1.58v1h4.66v-1Zm5.17,8.17A19.92,19.92,0,0,1,481.51,51a12.09,12.09,0,0,0,1.38.13c.57,0,.84-.13,1-.8a11.62,11.62,0,0,0,.46-2.94Z"/><path class="cls-1" d="M492,43.08h-3V41h3V38.95c-.5.48-.92.84-1.34,1.2a8.38,8.38,0,0,0-2.27-1.24A15.31,15.31,0,0,0,492.76,34l2.35.78c.27.08.4.23.4.36s-.27.27-.55.31a7.08,7.08,0,0,1-.4.59h12.77v2.21h-2.06V41h3v2.08h-3v3h2.31V48.1H489.8V46H492Zm2.12,6.17c.23.1.42.21.42.4s-.27.31-.63.27a20.89,20.89,0,0,1-2.83,3.82,5.58,5.58,0,0,0-2.18-1.43,11.94,11.94,0,0,0,3.13-4Zm.13-8.25h1.45V38.24h-1.45Zm0,5h1.45v-3h-1.45ZM497,48.9A20.45,20.45,0,0,1,498.43,53c-1.22.32-2,.5-2.58.71a17.1,17.1,0,0,0-1.13-4.35Zm.86-10.67V41h1.47V38.24Zm0,4.85v3h1.47v-3Zm3.46,5.56a18.23,18.23,0,0,1,1.68,4,17,17,0,0,0-2.39.84,32.63,32.63,0,0,0-1.55-4.18Zm.23-10.41V41H503V38.24Zm0,4.85v3H503v-3Zm3.4,5.19a23.65,23.65,0,0,1,3.36,4,18.25,18.25,0,0,0-2.22,1.43A21.12,21.12,0,0,0,503,49.62Z"/><path class="cls-1" d="M516.14,53.52h-2.46v-6A16.52,16.52,0,0,1,511.47,51a7.11,7.11,0,0,0-2.08-1.49,15.12,15.12,0,0,0,4.28-6.24H510V41h3.63V34.18l2.54.17c.13,0,.46,0,.46.32s-.29.34-.55.42V41h3.11v2.27h-3a16.53,16.53,0,0,0,3,3.4,11.33,11.33,0,0,0-1.34,1.74,20.56,20.56,0,0,1-1.78-2.29Zm-4.07-17.7a21.6,21.6,0,0,1,1.41,3.53c-.57.27-1.49.67-2.08.94a17.53,17.53,0,0,0-1.3-3.74Zm7.77.4c.13,0,.38.11.38.31s-.25.32-.46.38a24.61,24.61,0,0,1-1.24,3.3,8.64,8.64,0,0,0-2-.74,21.57,21.57,0,0,0,1.22-3.82ZM529,44.87l.46,2.16-2.27.61V53.5h-2.52V48.29l-5.16,1.37-.53-2.25L524.64,46V34.23l2.48.21c.17,0,.5,0,.5.25s-.25.32-.46.42V45.33Zm-7.54-4.05a20.79,20.79,0,0,1,2.79,3c-.46.42-1,1.09-1.55,1.64a18.16,18.16,0,0,0-2.71-3Zm.29-5a17.84,17.84,0,0,1,2.77,2.73,14.66,14.66,0,0,0-1.57,1.62,20.18,20.18,0,0,0-2.69-2.67Z"/></g></g></svg>