<svg version="1.1" xmlns="http://www.w3.org/2000/svg" xmlns:xlink="http://www.w3.org/1999/xlink" x="0px" y="0px" width="1920px" height="1120px" viewBox="0 0 1920 1120" xml:space="preserve"><path fill="#FBF8F8" d="M0 0H1920V1120H0z"/><g><path transform="rotate(90 560 80)" fill="#FBF8F8" d="M480 0H640V160H480z"/><path fill="#FBF8F8" d="M480 0c0 44.2 35.8 80 80 80s80-35.8 80-80H480zM480 160c0 44.2 35.8 80 80 80s80-35.8 80-80H480z"/><path fill="#F7F2F2" d="M480,320c0-44.2,35.8-80,80-80 s80,35.8,80,80H480z"/><path fill="#FBF8F8" d="M480 320H640V480H480z"/><path fill="#F7F2F2" d="M480,480c44.2,0,80-35.8,80-80 s-35.8-80-80-80V480z"/><path fill="#FFF" d="M640 480c-44.2 0-80-35.8-80-80s35.8-80 80-80V480zM640 160c44.2 0 80-35.8 80-80S684.2 0 640 0V160zM800 160c-44.2 0-80-35.8-80-80s35.8-80 80-80V160z"/><path transform="rotate(-180 720 240)" fill="#FFF" d="M640 160H800V320H640z"/><path fill="#F7F2F2" d="M800 160c-44.2 0-80 35.8-80 80s35.8 80 80 80V160zM640 160c44.2 0 80 35.8 80 80s-35.8 80-80 80V160zM640 320c0 44.2 35.8 80 80 80s80-35.8 80-80H640z"/><path fill="#FFF" d="M640,480c0-44.2,35.8-80,80-80 s80,35.8,80,80H640z"/><path transform="rotate(90 880 80)" fill="#FBF8F8" d="M800 0H960V160H800z"/><path fill="#FFF" d="M800,0c0,44.2,35.8,80,80,80 s80-35.8,80-80H800z"/><path fill="#FBF8F8" d="M800 160c0-44.2 35.8-80 80-80s80 35.8 80 80H800zM800 320c44.2 0 80-35.8 80-80s-35.8-80-80-80V320zM960 320c-44.2 0-80-35.8-80-80s35.8-80 80-80V320z"/><path transform="rotate(90 880 400)" fill="#FBF8F8" d="M800 320H960V480H800z"/><path fill="#F7F2F2" d="M800,320c0,44.2,35.8,80,80,80 s80-35.8,80-80H800z"/><path fill="#FFF" d="M800,480c0-44.2,35.8-80,80-80 s80,35.8,80,80H800z"/></g><g><path fill="#FFF" d="M0 320H160V480H0z"/><path fill="#FBF8F8" d="M0 480c44.2 0 80-35.8 80-80s-35.8-80-80-80V480zM160 480c44.2 0 80-35.8 80-80s-35.8-80-80-80V480z"/><path fill="#F7F2F2" d="M320,480c-44.2,0-80-35.8-80-80 s35.8-80,80-80V480z"/><path transform="rotate(-90 400 400)" fill="#FBF8F8" d="M320 320H480V480H320z"/><path fill="#F7F2F2" d="M480,480c0-44.2-35.8-80-80-80 s-80,35.8-80,80H480z"/><path fill="#FFF" d="M480 320c0 44.2-35.8 80-80 80s-80-35.8-80-80H480zM160 320c0-44.2-35.8-80-80-80S0 275.8 0 320H160zM160 160c0 44.2-35.8 80-80 80S0 204.2 0 160H160z"/><path transform="rotate(90 240 240)" fill="#FFF" d="M160 160H320V320H160z"/><path fill="#F7F2F2" d="M160 160c0 44.2 35.8 80 80 80s80-35.8 80-80H160zM160 320c0-44.2 35.8-80 80-80s80 35.8 80 80H160zM320 320c44.2 0 80-35.8 80-80s-35.8-80-80-80V320z"/><path fill="#FFF" d="M480,320c-44.2,0-80-35.8-80-80 s35.8-80,80-80V320z"/><path fill="#FBF8F8" d="M0 0H160V160H0z"/><path fill="#FFF" d="M0,160c44.2,0,80-35.8,80-80S44.2,0,0,0 V160z"/><path fill="#FBF8F8" d="M160 160c-44.2 0-80-35.8-80-80s35.8-80 80-80V160zM320 160c0-44.2-35.8-80-80-80s-80 35.8-80 80H320zM320 0c0 44.2-35.8 80-80 80s-80-35.8-80-80H320zM320 0H480V160H320z"/><path fill="#F7F2F2" d="M320,160c44.2,0,80-35.8,80-80 S364.2,0,320,0V160z"/><path fill="#FFF" d="M480,160c-44.2,0-80-35.8-80-80 s35.8-80,80-80V160z"/></g><g><path transform="rotate(90 80 560)" fill="#FBF8F8" d="M0 480H160V640H0z"/><path fill="#FBF8F8" d="M0 480c0 44.2 35.8 80 80 80s80-35.8 80-80H0zM0 640c0 44.2 35.8 80 80 80s80-35.8 80-80H0z"/><path fill="#F7F2F2" d="M0,800c0-44.2,35.8-80,80-80 s80,35.8,80,80H0z"/><path fill="#FBF8F8" d="M0 800H160V960H0z"/><path fill="#F7F2F2" d="M0,960c44.2,0,80-35.8,80-80 s-35.8-80-80-80V960z"/><path fill="#FFF" d="M160 960c-44.2 0-80-35.8-80-80s35.8-80 80-80V960zM160 640c44.2 0 80-35.8 80-80s-35.8-80-80-80V640zM320 640c-44.2 0-80-35.8-80-80s35.8-80 80-80V640z"/><path transform="rotate(-180 240 720)" fill="#FFF" d="M160 640H320V800H160z"/><path fill="#F7F2F2" d="M320 640c-44.2 0-80 35.8-80 80s35.8 80 80 80V640zM160 640c44.2 0 80 35.8 80 80s-35.8 80-80 80V640zM160 800c0 44.2 35.8 80 80 80s80-35.8 80-80H160z"/><path fill="#FFF" d="M160,960c0-44.2,35.8-80,80-80 s80,35.8,80,80H160z"/><path transform="rotate(90 400 560)" fill="#FBF8F8" d="M320 480H480V640H320z"/><path fill="#FFF" d="M320,480c0,44.2,35.8,80,80,80 s80-35.8,80-80H320z"/><path fill="#FBF8F8" d="M320 640c0-44.2 35.8-80 80-80s80 35.8 80 80H320zM320 800c44.2 0 80-35.8 80-80s-35.8-80-80-80V800zM480 800c-44.2 0-80-35.8-80-80s35.8-80 80-80V800z"/><path transform="rotate(90 400 880)" fill="#FBF8F8" d="M320 800H480V960H320z"/><path fill="#F7F2F2" d="M320,800c0,44.2,35.8,80,80,80 s80-35.8,80-80H320z"/><path fill="#FFF" d="M320,960c0-44.2,35.8-80,80-80 s80,35.8,80,80H320z"/></g><g><path fill="#FFF" d="M480 800H640V960H480z"/><path fill="#FBF8F8" d="M480 960c44.2 0 80-35.8 80-80s-35.8-80-80-80V960zM640 960c44.2 0 80-35.8 80-80s-35.8-80-80-80V960z"/><path fill="#F7F2F2" d="M800,960c-44.2,0-80-35.8-80-80 s35.8-80,80-80V960z"/><path transform="rotate(-90 880 880)" fill="#FBF8F8" d="M800 800H960V960H800z"/><path fill="#F7F2F2" d="M960,960c0-44.2-35.8-80-80-80 s-80,35.8-80,80H960z"/><path fill="#FFF" d="M960 800c0 44.2-35.8 80-80 80s-80-35.8-80-80H960zM640 800c0-44.2-35.8-80-80-80s-80 35.8-80 80H640zM640 640c0 44.2-35.8 80-80 80s-80-35.8-80-80H640z"/><path transform="rotate(90 720 720)" fill="#FFF" d="M640 640H800V800H640z"/><path fill="#F7F2F2" d="M640 640c0 44.2 35.8 80 80 80s80-35.8 80-80H640zM640 800c0-44.2 35.8-80 80-80s80 35.8 80 80H640zM800 800c44.2 0 80-35.8 80-80s-35.8-80-80-80V800z"/><path fill="#FFF" d="M960,800c-44.2,0-80-35.8-80-80 s35.8-80,80-80V800z"/><path fill="#FBF8F8" d="M480 480H640V640H480z"/><path fill="#FFF" d="M480,640c44.2,0,80-35.8,80-80 s-35.8-80-80-80V640z"/><path fill="#FBF8F8" d="M640 640c-44.2 0-80-35.8-80-80s35.8-80 80-80V640zM800 640c0-44.2-35.8-80-80-80s-80 35.8-80 80H800zM800 480c0 44.2-35.8 80-80 80s-80-35.8-80-80H800zM800 480H960V640H800z"/><path fill="#F7F2F2" d="M800,640c44.2,0,80-35.8,80-80 s-35.8-80-80-80V640z"/><path fill="#FFF" d="M960,640c-44.2,0-80-35.8-80-80 s35.8-80,80-80V640z"/></g><g><path transform="rotate(90 1520 80)" fill="#FBF8F8" d="M1440 0H1600V160H1440z"/><path fill="#FBF8F8" d="M1440 0c0 44.2 35.8 80 80 80s80-35.8 80-80H1440zM1440 160c0 44.2 35.8 80 80 80s80-35.8 80-80H1440z"/><path fill="#F7F2F2" d="M1440,320c0-44.2,35.8-80,80-80 s80,35.8,80,80H1440z"/><path fill="#FBF8F8" d="M1440 320H1600V480H1440z"/><path fill="#F7F2F2" d="M1440,480c44.2,0,80-35.8,80-80 s-35.8-80-80-80V480z"/><path fill="#FFF" d="M1600 480c-44.2 0-80-35.8-80-80s35.8-80 80-80V480zM1600 160c44.2 0 80-35.8 80-80s-35.8-80-80-80V160zM1760 160c-44.2 0-80-35.8-80-80s35.8-80 80-80V160z"/><path transform="rotate(-180 1680 240)" fill="#FFF" d="M1600 160H1760V320H1600z"/><path fill="#F7F2F2" d="M1760 160c-44.2 0-80 35.8-80 80s35.8 80 80 80V160zM1600 160c44.2 0 80 35.8 80 80s-35.8 80-80 80V160zM1600 320c0 44.2 35.8 80 80 80s80-35.8 80-80H1600z"/><path fill="#FFF" d="M1600,480c0-44.2,35.8-80,80-80 s80,35.8,80,80H1600z"/><path transform="rotate(90 1840 80)" fill="#FBF8F8" d="M1760 0H1920V160H1760z"/><path fill="#FFF" d="M1760,0c0,44.2,35.8,80,80,80 s80-35.8,80-80H1760z"/><path fill="#FBF8F8" d="M1760 160c0-44.2 35.8-80 80-80s80 35.8 80 80H1760zM1760 320c44.2 0 80-35.8 80-80s-35.8-80-80-80V320zM1920 320c-44.2 0-80-35.8-80-80s35.8-80 80-80V320z"/><path transform="rotate(90 1840 400)" fill="#FBF8F8" d="M1760 320H1920V480H1760z"/><path fill="#F7F2F2" d="M1760,320c0,44.2,35.8,80,80,80 s80-35.8,80-80H1760z"/><path fill="#FFF" d="M1760,480c0-44.2,35.8-80,80-80 s80,35.8,80,80H1760z"/></g><g><path fill="#FFF" d="M960 320H1120V480H960z"/><path fill="#FBF8F8" d="M960 480c44.2 0 80-35.8 80-80s-35.8-80-80-80V480zM1120 480c44.2 0 80-35.8 80-80s-35.8-80-80-80V480z"/><path fill="#F7F2F2" d="M1280,480c-44.2,0-80-35.8-80-80 s35.8-80,80-80V480z"/><path transform="rotate(-90 1360 400)" fill="#FBF8F8" d="M1280 320H1440V480H1280z"/><path fill="#F7F2F2" d="M1440,480c0-44.2-35.8-80-80-80 s-80,35.8-80,80H1440z"/><path fill="#FFF" d="M1440 320c0 44.2-35.8 80-80 80s-80-35.8-80-80H1440zM1120 320c0-44.2-35.8-80-80-80-44.2 0-80 35.8-80 80H1120zM1120 160c0 44.2-35.8 80-80 80-44.2 0-80-35.8-80-80H1120z"/><path transform="rotate(90 1200 240)" fill="#FFF" d="M1120 160H1280V320H1120z"/><path fill="#F7F2F2" d="M1120 160c0 44.2 35.8 80 80 80s80-35.8 80-80H1120zM1120 320c0-44.2 35.8-80 80-80s80 35.8 80 80H1120zM1280 320c44.2 0 80-35.8 80-80s-35.8-80-80-80V320z"/><path fill="#FFF" d="M1440,320c-44.2,0-80-35.8-80-80 s35.8-80,80-80V320z"/><path fill="#FBF8F8" d="M960 0H1120V160H960z"/><path fill="#FFF" d="M960,160c44.2,0,80-35.8,80-80 s-35.8-80-80-80V160z"/><path fill="#FBF8F8" d="M1120 160c-44.2 0-80-35.8-80-80s35.8-80 80-80V160zM1280 160c0-44.2-35.8-80-80-80s-80 35.8-80 80H1280zM1280 0c0 44.2-35.8 80-80 80s-80-35.8-80-80H1280zM1280 0H1440V160H1280z"/><path fill="#F7F2F2" d="M1280,160c44.2,0,80-35.8,80-80 s-35.8-80-80-80V160z"/><path fill="#FFF" d="M1440,160c-44.2,0-80-35.8-80-80 s35.8-80,80-80V160z"/></g><g><path transform="rotate(90 560 1040)" fill="#FBF8F8" d="M480 960H640V1120H480z"/><path fill="#FBF8F8" d="M480,960c0,44.2,35.8,80,80,80 s80-35.8,80-80H480z"/><path fill="#FFF" d="M640 1120c44.2 0 80-35.8 80-80 0-44.2-35.8-80-80-80V1120zM800 1120c-44.2 0-80-35.8-80-80 0-44.2 35.8-80 80-80V1120z"/><path transform="rotate(90 880 1040)" fill="#FBF8F8" d="M800 960H960V1120H800z"/><path fill="#FFF" d="M800,960c0,44.2,35.8,80,80,80 s80-35.8,80-80H800z"/><path fill="#FBF8F8" d="M800,1120c0-44.2,35.8-80,80-80 s80,35.8,80,80H800z"/></g><g><path fill="#FBF8F8" d="M0 960H160V1120H0z"/><path fill="#FFF" d="M0,1120c44.2,0,80-35.8,80-80 c0-44.2-35.8-80-80-80V1120z"/><path fill="#FBF8F8" d="M160 1120c-44.2 0-80-35.8-80-80 0-44.2 35.8-80 80-80V1120zM320 1120c0-44.2-35.8-80-80-80s-80 35.8-80 80H320zM320 960c0 44.2-35.8 80-80 80s-80-35.8-80-80H320zM320 960H480V1120H320z"/><path fill="#F7F2F2" d="M320,1120c44.2,0,80-35.8,80-80 c0-44.2-35.8-80-80-80V1120z"/><path fill="#FFF" d="M480,1120c-44.2,0-80-35.8-80-80 c0-44.2,35.8-80,80-80V1120z"/></g><g><path transform="rotate(90 1520 1040)" fill="#FBF8F8" d="M1440 960H1600V1120H1440z"/><path fill="#FBF8F8" d="M1440,960c0,44.2,35.8,80,80,80 s80-35.8,80-80H1440z"/><path fill="#FFF" d="M1600 1120c44.2 0 80-35.8 80-80 0-44.2-35.8-80-80-80V1120zM1760 1120c-44.2 0-80-35.8-80-80 0-44.2 35.8-80 80-80V1120z"/><path transform="rotate(90 1840 1040)" fill="#FBF8F8" d="M1760 960H1920V1120H1760z"/><path fill="#FFF" d="M1760,960c0,44.2,35.8,80,80,80 s80-35.8,80-80H1760z"/><path fill="#FBF8F8" d="M1760,1120c0-44.2,35.8-80,80-80 s80,35.8,80,80H1760z"/></g><g><path fill="#FBF8F8" d="M960 960H1120V1120H960z"/><path fill="#FFF" d="M960,1120c44.2,0,80-35.8,80-80 c0-44.2-35.8-80-80-80V1120z"/><path fill="#FBF8F8" d="M1120 1120c-44.2 0-80-35.8-80-80 0-44.2 35.8-80 80-80V1120zM1280 1120c0-44.2-35.8-80-80-80s-80 35.8-80 80H1280zM1280 960c0 44.2-35.8 80-80 80s-80-35.8-80-80H1280zM1280 960H1440V1120H1280z"/><path fill="#F7F2F2" d="M1280,1120c44.2,0,80-35.8,80-80 c0-44.2-35.8-80-80-80V1120z"/><path fill="#FFF" d="M1440,1120c-44.2,0-80-35.8-80-80 c0-44.2,35.8-80,80-80V1120z"/></g><g><path transform="rotate(90 1040 560)" fill="#FBF8F8" d="M960 480H1120V640H960z"/><path fill="#FBF8F8" d="M960 480c0 44.2 35.8 80 80 80 44.2 0 80-35.8 80-80H960zM960 640c0 44.2 35.8 80 80 80 44.2 0 80-35.8 80-80H960z"/><path fill="#F7F2F2" d="M960,800c0-44.2,35.8-80,80-80 c44.2,0,80,35.8,80,80H960z"/><path fill="#FBF8F8" d="M960 800H1120V960H960z"/><path fill="#F7F2F2" d="M960,960c44.2,0,80-35.8,80-80 s-35.8-80-80-80V960z"/><path fill="#FFF" d="M1120 960c-44.2 0-80-35.8-80-80s35.8-80 80-80V960zM1120 640c44.2 0 80-35.8 80-80s-35.8-80-80-80V640zM1280 640c-44.2 0-80-35.8-80-80s35.8-80 80-80V640z"/><path transform="rotate(-180 1200 720)" fill="#FFF" d="M1120 640H1280V800H1120z"/><path fill="#F7F2F2" d="M1280 640c-44.2 0-80 35.8-80 80s35.8 80 80 80V640zM1120 640c44.2 0 80 35.8 80 80s-35.8 80-80 80V640zM1120 800c0 44.2 35.8 80 80 80s80-35.8 80-80H1120z"/><path fill="#FFF" d="M1120,960c0-44.2,35.8-80,80-80 s80,35.8,80,80H1120z"/><path transform="rotate(90 1360 560)" fill="#FBF8F8" d="M1280 480H1440V640H1280z"/><path fill="#FFF" d="M1280,480c0,44.2,35.8,80,80,80 s80-35.8,80-80H1280z"/><path fill="#FBF8F8" d="M1280 640c0-44.2 35.8-80 80-80s80 35.8 80 80H1280zM1280 800c44.2 0 80-35.8 80-80s-35.8-80-80-80V800zM1440 800c-44.2 0-80-35.8-80-80s35.8-80 80-80V800z"/><path transform="rotate(90 1360 880)" fill="#FBF8F8" d="M1280 800H1440V960H1280z"/><path fill="#F7F2F2" d="M1280,800c0,44.2,35.8,80,80,80 s80-35.8,80-80H1280z"/><path fill="#FFF" d="M1280,960c0-44.2,35.8-80,80-80 s80,35.8,80,80H1280z"/></g><g><path fill="#FFF" d="M1440 800H1600V960H1440z"/><path fill="#FBF8F8" d="M1440 960c44.2 0 80-35.8 80-80s-35.8-80-80-80V960zM1600 960c44.2 0 80-35.8 80-80s-35.8-80-80-80V960z"/><path fill="#F7F2F2" d="M1760,960c-44.2,0-80-35.8-80-80 s35.8-80,80-80V960z"/><path transform="rotate(-90 1840 880)" fill="#FBF8F8" d="M1760 800H1920V960H1760z"/><path fill="#F7F2F2" d="M1920,960c0-44.2-35.8-80-80-80 s-80,35.8-80,80H1920z"/><path fill="#FFF" d="M1920 800c0 44.2-35.8 80-80 80s-80-35.8-80-80H1920zM1600 800c0-44.2-35.8-80-80-80s-80 35.8-80 80H1600zM1600 640c0 44.2-35.8 80-80 80s-80-35.8-80-80H1600z"/><path transform="rotate(90 1680 720)" fill="#FFF" d="M1600 640H1760V800H1600z"/><path fill="#F7F2F2" d="M1600 640c0 44.2 35.8 80 80 80s80-35.8 80-80H1600zM1600 800c0-44.2 35.8-80 80-80s80 35.8 80 80H1600zM1760 800c44.2 0 80-35.8 80-80s-35.8-80-80-80V800z"/><path fill="#FFF" d="M1920,800c-44.2,0-80-35.8-80-80 s35.8-80,80-80V800z"/><path fill="#FBF8F8" d="M1440 480H1600V640H1440z"/><path fill="#FFF" d="M1440,640c44.2,0,80-35.8,80-80 s-35.8-80-80-80V640z"/><path fill="#FBF8F8" d="M1600 640c-44.2 0-80-35.8-80-80s35.8-80 80-80V640zM1760 640c0-44.2-35.8-80-80-80s-80 35.8-80 80H1760zM1760 480c0 44.2-35.8 80-80 80s-80-35.8-80-80H1760zM1760 480H1920V640H1760z"/><path fill="#F7F2F2" d="M1760,640c44.2,0,80-35.8,80-80 s-35.8-80-80-80V640z"/><path fill="#FFF" d="M1920,640c-44.2,0-80-35.8-80-80 s35.8-80,80-80V640z"/></g></svg>