<svg version="1.1" xmlns="http://www.w3.org/2000/svg" xmlns:xlink="http://www.w3.org/1999/xlink" x="0px" y="0px" width="58px" height="58px" viewBox="0 0 58 58" xml:space="preserve"><g><g><path fill="none" stroke="#D52662" stroke-width="1.5" stroke-linecap="round" stroke-linejoin="round" stroke-miterlimit="10" d="M50 48H8c-2.2 0-4-1.8-4-4V16c0-2.2 1.8-4 4-4h42c2.2 0 4 1.8 4 4v28C54 46.2 52.2 48 50 48zM4 19 54 19M43 8 43 14.9M15 8 15 14.9"/><circle fill="#D52662" cx="15.5" cy="25.5" r="1.5"/><circle fill="#D52662" cx="24.5" cy="25.5" r="1.5"/><circle fill="#D52662" cx="33.5" cy="25.5" r="1.5"/><circle fill="#D52662" cx="42.5" cy="25.5" r="1.5"/><circle fill="#D52662" cx="15.5" cy="33.5" r="1.5"/><circle fill="#D52662" cx="24.5" cy="33.5" r="1.5"/><circle fill="#D52662" cx="42.5" cy="33.5" r="1.5"/><circle fill="#D52662" cx="15.5" cy="41.5" r="1.5"/><circle fill="#D52662" cx="24.5" cy="41.5" r="1.5"/><circle fill="#D52662" cx="33.5" cy="41.5" r="1.5"/><path fill="none" stroke="#D52662" stroke-width="1.5" stroke-linecap="round" stroke-linejoin="round" stroke-miterlimit="10" d="M31.1 34 33 36 37 31"/></g></g></svg>