<svg version="1.1" xmlns="http://www.w3.org/2000/svg" xmlns:xlink="http://www.w3.org/1999/xlink" x="0px" y="0px" width="23.959px" height="27.467px" viewBox="0 0 23.959 27.467" xml:space="preserve"><g><g><path fill="#D52662" d="M5.014,21.299c0.52-2.287,2.356-3.777,4.713-3.777c1.733,0,3.257,0.659,4.712,2.079 c0.624,0.624,1.213,1.317,2.114,2.495l1.005,1.352c1.386,1.733,2.495,2.46,3.742,2.46c0.555,0,1.421-0.208,2.322-0.589 c0,0,0.177-0.039,0.295,0.23c0.119,0.269-0.053,0.532-0.053,0.532c-1.49,0.936-2.945,1.386-4.401,1.386 c-1.282,0-2.356-0.45-3.223-1.386c-0.381-0.381-0.589-0.624-1.213-1.421l-0.693-1.04c-1.906-3.119-3.535-4.47-5.44-4.47 c-1.109,0-1.975,0.485-2.53,1.386c-0.242,0.381-0.381,0.728-0.589,1.594l-0.8,0.021L5.014,21.299z"/></g><path fill="#D52662" d="M11.434,0c2.287,0,4.285,0.497,5.995,1.49c1.709,0.994,3.037,2.42,3.985,4.279 c0.947,1.86,1.421,4.118,1.421,6.774c0,2.587-0.485,4.851-1.455,6.791c-0.97,1.94-2.316,3.454-4.037,4.539 c-1.721,1.086-3.702,1.629-5.943,1.629c-2.287,0-4.285-0.497-5.995-1.49c-1.71-0.993-3.038-2.426-3.985-4.297 C0.473,17.845,0,15.592,0,12.959c0-2.587,0.49-4.851,1.473-6.791C2.454,4.227,3.8,2.715,5.509,1.628C7.218,0.543,9.194,0,11.434,0z M11.296,0.624c-1.433,0-2.68,0.52-3.742,1.559c-1.063,1.04-1.883,2.472-2.46,4.297c-0.578,1.825-0.866,3.939-0.866,6.341 c0,2.449,0.323,4.58,0.97,6.393c0.646,1.814,1.525,3.211,2.633,4.193c1.109,0.982,2.344,1.473,3.708,1.473 c1.432,0,2.673-0.52,3.725-1.559c1.051-1.04,1.871-2.477,2.46-4.314c0.589-1.836,0.884-3.944,0.884-6.324 c0-2.471-0.324-4.609-0.97-6.41c-0.647-1.802-1.525-3.193-2.633-4.175C13.895,1.115,12.659,0.624,11.296,0.624z"/></g></svg>