<svg version="1.1" xmlns="http://www.w3.org/2000/svg" xmlns:xlink="http://www.w3.org/1999/xlink" x="0px" y="0px" width="344.2px" height="75.1px" viewBox="0 0 344.2 75.1" xml:space="preserve"><g><path fill="#FDF2F6" d="M0 0c1.6.1 3.7.1 6.2.2 2.5.1 5 .1 7.5.1 3.3 0 6.5 0 9.5-.1 3-.1 5.1-.1 6.4-.1C38.4.1 45 2 49.4 5.8c4.4 3.8 6.6 8.7 6.6 14.8 0 2.5-.4 5.1-1.3 7.9-.9 2.7-2.4 5.3-4.5 7.6-2.1 2.3-5.1 4.2-8.7 5.7-3.7 1.5-8.4 2.2-14 2.2H17.2v-2.1h9.2c4.6 0 8.2-.9 10.7-2.8 2.5-1.9 4.1-4.3 5-7.4.9-3.1 1.3-6.3 1.3-9.9 0-6.6-1.2-11.5-3.5-14.8-2.4-3.3-6.4-4.9-12.3-4.9-3 0-4.9.6-5.9 1.8C20.6 5 20.2 7.4 20.2 11v51.4c0 2.6.3 4.5.8 5.8.6 1.3 1.6 2.1 3.1 2.5 1.5.4 3.8.7 6.8.7v2.2c-1.9-.1-4.3-.2-7.3-.3-3 0-6.1-.1-9.3-.1-2.8 0-5.4 0-8 .1-2.5 0-4.7.1-6.4.3v-2.1c2.4-.1 4.1-.4 5.3-.8 1.2-.4 2-1.2 2.3-2.5C8 67 8.2 65.1 8.2 62.6V11c0-2.6-.2-4.5-.6-5.7-.4-1.2-1.2-2-2.4-2.5C4 2.4 2.3 2.1 0 2.1V0zM95.4 18.5c2 0 3.7.4 5.1 1.2 1.4.8 2.5 1.9 3.2 3.2.7 1.3 1.1 2.7 1.1 4.3 0 2-.6 3.7-1.8 5.1-1.2 1.4-2.8 2.1-4.8 2.1-1.7 0-3.2-.5-4.4-1.6-1.2-1-1.8-2.5-1.8-4.3 0-1.5.4-2.8 1.2-3.9.8-1.1 1.7-1.9 2.8-2.5-.7-.6-1.5-.8-2.5-.7-1.9.1-3.6.7-5.2 1.8-1.6 1.1-2.9 2.6-4.1 4.4-1.1 1.8-2 3.7-2.6 5.7-.6 2-.9 3.9-.9 5.6v23.9c0 3.4.9 5.7 2.8 6.8 1.9 1.1 4.5 1.7 7.8 1.7v2.2c-1.6-.1-3.9-.2-6.8-.3-2.9-.1-6-.2-9.3-.2-2.5 0-5 .1-7.5.2s-4.4.2-5.7.3v-2.2c2.7 0 4.6-.5 5.8-1.6 1.1-1 1.7-3 1.7-5.9V31.3c0-3.1-.5-5.4-1.6-6.9-1-1.5-3-2.2-5.9-2.2V20c2.2.2 4.4.3 6.4.3 2.4 0 4.6-.1 6.6-.4 2-.2 3.9-.6 5.7-1.1v12c.8-2 1.9-4 3.3-5.8 1.4-1.9 3-3.4 5-4.6C90.9 19.1 93 18.5 95.4 18.5zM132.6 18.5c6.1 0 10.9 1.8 14.4 5.5 3.5 3.7 5.2 9.5 5.2 17.5h-35.9l-.2-2h25.1c.1-3.4-.2-6.5-.8-9.4s-1.6-5.2-2.9-6.9c-1.3-1.7-3.1-2.6-5.2-2.6-3 0-5.6 1.6-7.7 4.7-2.2 3.2-3.5 8.2-4 15.1l.3.5c-.1 1-.1 2-.2 3.2-.1 1.1-.1 2.3-.1 3.4 0 4.8.7 8.8 2.2 12.1 1.5 3.3 3.4 5.7 5.7 7.3 2.4 1.6 4.7 2.4 7.2 2.4 1.9 0 3.7-.3 5.5-.9 1.8-.6 3.4-1.6 5-3 1.6-1.4 3-3.4 4.3-5.9l2.1.8c-.8 2.4-2.1 4.7-3.8 7-1.7 2.3-4 4.1-6.7 5.6-2.7 1.4-5.9 2.1-9.5 2.1-4.9 0-9.1-1.1-12.7-3.3-3.6-2.2-6.4-5.3-8.3-9.4-1.9-4.1-2.9-8.9-2.9-14.6 0-6.2 1-11.4 3-15.8 2-4.4 4.8-7.7 8.5-10C123.6 19.7 127.8 18.5 132.6 18.5zM176.3 18.5c2.8 0 5.2.4 7.2 1.3 2 .9 3.5 1.6 4.4 2.3 2.3 1.8 3.7.6 4.3-3.5h2.3c-.1 1.9-.2 4.3-.3 7-.1 2.7-.1 6.4-.1 10.9h-2.3c-.4-2.6-1.1-5.1-2.1-7.5-1-2.4-2.5-4.4-4.4-6-1.9-1.6-4.4-2.4-7.4-2.4-2.3 0-4.2.6-5.7 1.9-1.5 1.3-2.3 3.2-2.3 5.7 0 2.1.6 3.9 1.9 5.4 1.2 1.5 2.9 2.9 4.8 4.3 2 1.3 4.1 2.7 6.4 4.3 2.6 1.7 4.9 3.4 6.9 5.1 2 1.7 3.7 3.6 4.9 5.7 1.2 2.1 1.8 4.5 1.8 7.3 0 3.2-.8 5.9-2.5 8.1-1.7 2.2-3.9 3.9-6.7 5-2.8 1.1-5.8 1.7-9.2 1.7-1.7 0-3.2-.2-4.7-.5-1.5-.3-2.8-.7-4.1-1.2-.8-.4-1.5-.8-2.2-1.3-.7-.5-1.4-.9-2.1-1.3-.7-.5-1.3-.4-1.9.2-.6.6-1 1.7-1.2 3.3h-2.3c.1-2.2.2-4.9.3-8.1.1-3.2.1-7.4.1-12.7h2.3c.5 3.8 1.2 7.2 2.2 10.1 1 2.9 2.4 5.2 4.3 6.8 1.9 1.6 4.5 2.4 7.9 2.4 1.3 0 2.6-.3 4-.9 1.3-.6 2.4-1.5 3.3-2.9.9-1.3 1.3-3.1 1.3-5.3 0-3.1-1.1-5.6-3.2-7.5-2.1-2-4.8-4.1-8.2-6.3-2.4-1.7-4.6-3.3-6.7-4.9-2.1-1.6-3.8-3.5-5.1-5.5-1.3-2-2-4.5-2-7.3 0-3.1.7-5.7 2.2-7.7 1.5-2 3.5-3.5 6-4.5C170.8 19 173.5 18.5 176.3 18.5zM227.3 18.5c6.1 0 10.9 1.8 14.4 5.5 3.5 3.7 5.2 9.5 5.2 17.5H211l-.2-2h25.1c.1-3.4-.2-6.5-.8-9.4s-1.6-5.2-2.9-6.9c-1.3-1.7-3.1-2.6-5.2-2.6-3 0-5.6 1.6-7.7 4.7-2.2 3.2-3.5 8.2-4 15.1l.3.5c-.1 1-.1 2-.2 3.2-.1 1.1-.1 2.3-.1 3.4 0 4.8.7 8.8 2.2 12.1 1.5 3.3 3.4 5.7 5.7 7.3 2.4 1.6 4.7 2.4 7.2 2.4 1.9 0 3.7-.3 5.5-.9 1.8-.6 3.4-1.6 5-3 1.6-1.4 3-3.4 4.3-5.9l2.1.8c-.8 2.4-2.1 4.7-3.8 7-1.7 2.3-4 4.1-6.7 5.6-2.7 1.4-5.9 2.1-9.5 2.1-4.9 0-9.1-1.1-12.7-3.3-3.6-2.2-6.4-5.3-8.3-9.4-1.9-4.1-2.9-8.9-2.9-14.6 0-6.2 1-11.4 3-15.8 2-4.4 4.8-7.7 8.5-10C218.3 19.7 222.5 18.5 227.3 18.5zM286.5 18.5c2.8 0 5 .4 6.8 1.1 1.8.7 3.2 1.7 4.4 3 1.2 1.3 2.1 3 2.7 5.1.5 2.1.8 4.9.8 8.4V64c0 2.9.6 4.9 1.7 5.9 1.1 1 3.1 1.6 5.8 1.6v2.2c-1.2-.1-3-.2-5.5-.3s-5-.2-7.4-.2c-2.4 0-4.7.1-7 .2-2.3.1-4.1.2-5.3.3v-2.2c2.4 0 4-.5 5-1.6 1-1 1.5-3 1.5-5.9V33.2c0-2-.2-3.8-.5-5.5-.3-1.6-1.1-2.9-2.2-4-1.1-1-2.8-1.5-5-1.5-2.6 0-4.8.7-6.8 2.2-2 1.5-3.5 3.4-4.7 6-1.1 2.5-1.7 5.4-1.7 8.5V64c0 2.9.5 4.9 1.5 5.9 1 1 2.7 1.6 4.9 1.6v2.2c-1.1-.1-2.8-.2-5-.3-2.3-.1-4.6-.2-7-.2-2.4 0-4.8.1-7.4.2-2.6.1-4.5.2-5.7.3v-2.2c2.7 0 4.6-.5 5.8-1.6 1.1-1 1.7-3 1.7-5.9V31.3c0-3.1-.5-5.4-1.6-6.9-1-1.5-3-2.2-5.9-2.2V20c2.2.2 4.4.3 6.4.3 2.4 0 4.6-.1 6.6-.4 2-.2 3.9-.6 5.7-1.1v11.3c1.8-4.3 4.3-7.3 7.4-9C279.6 19.4 283 18.5 286.5 18.5zM327.7 2.8v17.3H342v2.1h-14.4V63c0 2.8.5 4.9 1.6 6 1 1.2 2.5 1.8 4.5 1.8 1.8 0 3.4-.7 4.8-2.2 1.4-1.5 2.7-3.9 3.7-7.4l2 .7c-.8 3.7-2.3 6.8-4.4 9.3-2.1 2.5-5.2 3.8-9.3 3.8-2.4 0-4.3-.3-5.9-.9-1.6-.6-3-1.4-4.2-2.5-1.5-1.6-2.6-3.5-3.1-5.7-.6-2.2-.8-5.2-.8-8.8V22.2h-9.6v-2.1h9.6V4.9c2.1-.1 4.2-.3 6-.6C324.3 4 326.1 3.5 327.7 2.8z"/></g></svg>