<svg xmlns="http://www.w3.org/2000/svg" width="515.41" height="25.32" viewBox="0 0 515.41 25.32">
  <defs>
    <style>
      .cls-1 {
        fill: #00b4dc;
      }

      .cls-2 {
        fill: #3c3c3c;
      }
    </style>
  </defs>
  <g id="レイヤー_2" data-name="レイヤー 2">
    <g id="object">
      <g>
        <g>
          <path class="cls-1" d="M17.68,5.16l1.4.21c.62.11.87.14.87.43s-.35.35-.65.38c-.11.27-.3.65-.62,1.3h5.24V21.24c0,2.68-.63,3.81-5,3.81a6.87,6.87,0,0,0,0-.7,4.76,4.76,0,0,0-1-2.89v1.62H10.15v.65H6.61V17.44a2.29,2.29,0,0,1-.27.13,5.14,5.14,0,0,0-1.89-1.78v9.29H.54V7.48H6.18a10.39,10.39,0,0,0-1-2L7,5.16H0V1.92H10.2V0l4.08.19c.27,0,.51.08.51.35s-.27.38-.51.49v.89H24.56V5.16ZM4.45,10.93v3.81a5.94,5.94,0,0,0,2.86-3.81Zm15.71,2.94a2.53,2.53,0,0,1-2.48,1.54H14.23c-1.6,0-2.11-.56-2.11-1.83V10.93H9.37l1.43.46c.19,0,.56.19.56.43s0,.3-.72.46a9.71,9.71,0,0,1-2.46,4H18v5c.54.05,1,.14,1.29.14.84,0,.89-.27.89-.9ZM9.37,5.16a13.78,13.78,0,0,1,1.18,2.07l-1,.25h4.73a18.56,18.56,0,0,0,1.08-2.32Zm5,13.87H10.15V20.3h4.26Zm1.11-8.1v.87c0,.35,0,.59.54.59h.81c.51,0,.59-.46.81-1.46Zm4.64,0H17.71a7.82,7.82,0,0,0,2.45,1.3Z"/>
          <path class="cls-1" d="M40.66,2.05c.27,0,.4.11.4.27s-.24.33-.64.49a25.36,25.36,0,0,1-.92,4.45A9.2,9.2,0,0,0,36,6.61v.7H27V4.64H36V6.53a24.79,24.79,0,0,0,1-5ZM35.83,24.62H32.64v-.95H31.08V25H27.7V15.31h8.13v2.75a13.36,13.36,0,0,0,1.64-4.73l3.46.73c.19,0,.48.17.48.38,0,.41-.54.51-.78.54a22.32,22.32,0,0,1-1.4,4.46,8.8,8.8,0,0,0-3.4-1.06v3.4C41.6,20,41.55,16.44,41.47,11.5l3.91.21c.14,0,.41,0,.41.33s-.19.3-.73.46c0,.7,0,1.16,0,2a8,8,0,0,0,2.35,4.34,15.35,15.35,0,0,0,4.16,2.92,7.77,7.77,0,0,0-2.41,3,13.12,13.12,0,0,1-5.39-4.91A11.08,11.08,0,0,1,37.85,25a8.07,8.07,0,0,0-2-2.62ZM35.1,1.11V3.73H28.3V1.11Zm0,7.12v2.62H28.3V8.23Zm0,3.54v2.62H28.3V11.77ZM32.64,20.6V18.25H31.08V20.6ZM45.17.3c.32,0,.54,0,.54.29s-.44.44-.76.52c0,.4-.11,2.24-.11,2.62a6.17,6.17,0,0,0,2,3.75,16.86,16.86,0,0,0,4.91,2.78,9.52,9.52,0,0,0-2.43,2.91A15.08,15.08,0,0,1,43.38,8.8a12,12,0,0,1-5.66,4.32,10.27,10.27,0,0,0-2.14-2.89c4.65-1.51,5.73-3.81,5.73-8.1,0-.78,0-1.24-.06-2ZM51,2.83a.45.45,0,0,1,.27.38c0,.14-.08.33-.38.33a2.26,2.26,0,0,1-.49-.06A18.39,18.39,0,0,1,48,6.78a11.31,11.31,0,0,0-2.87-2.14,14.09,14.09,0,0,0,2.6-3.59Zm-.33,11.53c.27.14.41.24.41.46s-.43.46-.81.49a17.15,17.15,0,0,1-1.78,2.94,10.39,10.39,0,0,0-2.87-1.92,17.15,17.15,0,0,0,1.89-3.45Z"/>
          <path class="cls-1" d="M71,20.06c0,.54.19,1,1.08,1H74c.73,0,.9-.3,1-.65s.46-1.78.62-2.54a8,8,0,0,0,3.54,1.78,12.63,12.63,0,0,1-1.21,3.94,2.8,2.8,0,0,1-2.43,1.19h-5c-2.11,0-3.73-.7-3.73-3.4V16.17H63.91l1.32.35c.16.05.46.13.46.46,0,.51-.57.54-1,.57a13.61,13.61,0,0,1-8.32,7.77,10.83,10.83,0,0,0-3.21-3.21c1.7-.38,6.64-1.49,7.72-5.94h-4V.7H75.38V16.17H71Zm.27-15V4.16h-10V5.1Zm-10,2.73v1h10v-1Zm0,3.8v1.08h10V11.63Z"/>
          <path class="cls-1" d="M81,8.26V4.7H91.2V.16L95.09.4c.68.06.76.25.76.38s-.11.3-.57.6V4.7h10.28V8.26H96.87a25.49,25.49,0,0,0,9.45,10.42c-1.78,1.43-2.32,1.94-2.94,3.1A32.2,32.2,0,0,1,99.27,18v3.19h-4v3.8H91.2v-3.8h-4V17.92a31.32,31.32,0,0,1-4.13,3.86c-.62-1.18-1.19-1.7-2.94-3.1A24.88,24.88,0,0,0,89.56,8.26Zm10.25,4.1a30,30,0,0,1-3.64,5.13H91.2Zm7.7,5.13a29.71,29.71,0,0,1-3.62-5.07v5.07Z"/>
          <path class="cls-1" d="M122.28,8.58h8.31v11.1c0,1.13,0,2.1-.94,2.78s-2.3.81-4.62.81a9,9,0,0,0-1.24-4.16,10.59,10.59,0,0,0,1.67.16c.87,0,1-.19,1-1V12.39h-4.21V24.94H118.2V12.39h-4.13V23h-4.13V8.58h8.26v-2H108V2.89H118.2V.16l4.3.16a.36.36,0,0,1,.4.33c0,.29-.35.46-.62.51V2.89h10.28V6.56h-10c.16.05.32.16.32.32s-.38.43-.62.52Z"/>
          <path class="cls-1" d="M158.74,16.63l-1.1,2.18L144.71,12.4,157.64,6l1.1,2.18-8.52,4.23Z"/>
          <path class="cls-1" d="M176.36,9.38c.11.09.22.18.22.27a.27.27,0,0,1-.27.21,1.78,1.78,0,0,1-.36,0,29.71,29.71,0,0,1-9.35,3.4v2.87c0,1.33.43,1.33,3.51,1.33a49.41,49.41,0,0,0,6.65-.36,12.27,12.27,0,0,0-.38,2.88c-.65,0-1.57.09-3.21.09-7.22,0-7.56-.2-8.33-.63-1.05-.58-1.19-1.62-1.19-3V4.75l2.95.18c.22,0,.36,0,.36.18s-.18.29-.36.4V10.6A19.18,19.18,0,0,0,174,7.4ZM175,5.2A16.52,16.52,0,0,1,176.85,7c-.11.09-.8.68-1.17,1-.26-.23-1.14-1.11-1.93-1.73Zm1.67-1.4a14,14,0,0,1,1.82,1.76c-.32.27-.88.79-1.2,1.1a22.19,22.19,0,0,0-1.88-1.8Z"/>
          <path class="cls-1" d="M182.3,8.15a26,26,0,0,1,4.21,2.47c-.52.65-.72.94-1.75,2.4a18.74,18.74,0,0,0-4.1-2.45Zm-.56,9.73a25.32,25.32,0,0,0,12.49-9.6,5.53,5.53,0,0,0,1.86,2.36,25.43,25.43,0,0,1-4.88,5.22,31.92,31.92,0,0,1-7.35,4.45c0,.2-.09.43-.29.43s-.21-.14-.28-.25ZM184,4.21a20.41,20.41,0,0,1,4.5,2.09,21.12,21.12,0,0,0-1.67,2.38,19.92,19.92,0,0,0-4.38-2.27Zm8,1c.56.42,1.64,1.32,2.07,1.73-.19.17-.91.89-1.36,1.32a22.14,22.14,0,0,0-2-1.84Zm1.73-1.33a15.82,15.82,0,0,1,1.93,1.75,8.64,8.64,0,0,0-1.23,1.12,14.42,14.42,0,0,0-2-1.75Z"/>
          <path class="cls-1" d="M199.86,10.82V8.26h9.47a3.57,3.57,0,0,0,1.1-.2L212,9.56a8.73,8.73,0,0,0-1.06.88c-2.2,2.25-2.45,2.5-3.67,3.62v6.77h-2.9V16a21.76,21.76,0,0,1-4.79,2.31A10.46,10.46,0,0,0,198,15.91a20.42,20.42,0,0,0,8.93-5.09ZM204,4a25.57,25.57,0,0,1,4.77,1.89c-.81,1.28-.84,1.33-1.4,2.28a23.39,23.39,0,0,0-4.79-2.09Zm5.31,9.23a36.26,36.26,0,0,1,4.31,3.08c-.24.29-1.1,1.44-1.66,2.18a26.17,26.17,0,0,0-4.41-3.31Z"/>
          <path class="cls-1" d="M217.5,8.33V5.63h9.2A4.94,4.94,0,0,0,228,5.49L229.35,7a5.83,5.83,0,0,0-.68,1.15,31.22,31.22,0,0,1-2.29,4.41,47.79,47.79,0,0,1,5.4,4.94c-.59.68-1.56,1.76-2.16,2.45a24.62,24.62,0,0,0-4.84-5.14,20.92,20.92,0,0,1-6.92,5.39,8,8,0,0,0-2.05-2.47,15.13,15.13,0,0,0,5.85-3.6,14.21,14.21,0,0,0,3.6-5.82Z"/>
          <path class="cls-1" d="M234.17,10.75V8h8.07V4.53l3,.18c.2,0,.35,0,.35.2s-.2.27-.35.33V8H249v2.72h-3.73v7.41a1.9,1.9,0,0,1-1.18,2,5.94,5.94,0,0,1-2.9.42,7.47,7.47,0,0,0-1-3.05,5.52,5.52,0,0,0,1.35.2c.74,0,.78-.34.78-1.06V13.43a19,19,0,0,1-6.43,5.35,8.17,8.17,0,0,0-1.94-2.29,16.68,16.68,0,0,0,7-5.74Z"/>
          <path class="cls-1" d="M254.37,4.93a17.43,17.43,0,0,1,4.5,3c-.43.53-.56.72-1.75,2.45a18.79,18.79,0,0,0-4.53-2.88Zm-1.48,12.44a21.36,21.36,0,0,0,13.4-9.68,11.46,11.46,0,0,0,1.85,2.44,23.73,23.73,0,0,1-5.6,6,30.15,30.15,0,0,1-7.42,4c0,.19-.09.39-.25.39s-.18-.05-.29-.25Z"/>
          <path class="cls-1" d="M275.05,5c.22,0,.34,0,.34.18s-.21.29-.34.34v8.81h-3V4.91Zm8.25-.32c.18,0,.34,0,.34.18s-.22.31-.34.36v5.87a9.86,9.86,0,0,1-1.44,5.56,11,11,0,0,1-5.46,4.16,5.13,5.13,0,0,0-1.87-2.3c5.63-2,5.74-5.57,5.74-7.4V4.57Z"/>
          <path class="cls-1" d="M303.58,11.14V14.2H287.94V11.14Z"/>
          <path class="cls-1" d="M306.77,8.17,307.86,6l12.93,6.41-12.93,6.41-1.09-2.18,8.51-4.23Z"/>
          <path class="cls-1" d="M342.62,7c-.27-.56-.81-1.8-3.27-1.8-4.18,0-4.45,3.61-4.62,5.69.95-.86,2.19-2,5.7-2,4.51,0,7.56,2.59,7.56,6.86,0,4-2.73,7.8-8.61,7.8a9.3,9.3,0,0,1-5-1.32c-3.81-2.3-4.38-6.67-4.38-9.91,0-10.58,7.54-11.23,9.4-11.23,2.43,0,7.47,1.11,8.37,5.91Zm.51,9c0-2.24-1.94-3.38-4-3.38s-4,1.16-4,3.38c0,1.75,1.3,3.53,4,3.53S343.13,17.68,343.13,15.93Z"/>
          <path class="cls-1" d="M352.48,22.92l9-21.27h3.4l-9,21.27Z"/>
          <path class="cls-1" d="M374.34,22.92V9.1h-4.61V5.56c2.72-.08,4.67-.54,5.67-3.91h4V22.92Z"/>
          <path class="cls-1" d="M384.74,5.61v-4H402.2V5.59C401,6.4,398.64,8.1,396.51,13a25.38,25.38,0,0,0-2.08,9.94h-5A24.53,24.53,0,0,1,391.76,13a21.71,21.71,0,0,1,5.4-7.37Z"/>
          <path class="cls-1" d="M431.9,12.66a12,12,0,1,1-12-12A12,12,0,0,1,431.9,12.66Z"/>
          <path class="cls-1" d="M446.16,12.66a3.3,3.3,0,1,1-3.29-3.29A3.3,3.3,0,0,1,446.16,12.66Z"/>
          <path class="cls-1" d="M457.85,22.92V9.1h-4.61V5.56c2.72-.08,4.67-.54,5.67-3.91h4V22.92Z"/>
          <path class="cls-1" d="M486,16.92a6,6,0,0,1-2.43,4.94c-2.1,1.49-5.12,1.65-6.55,1.65-1.68,0-4.54-.22-6.56-1.65A6,6,0,0,1,468,16.92a5.37,5.37,0,0,1,4-5.29,5,5,0,0,1-3.35-4.75A5.35,5.35,0,0,1,471,2.51c1.57-1.16,4.37-1.46,6.07-1.46,7.59,0,8.18,4.56,8.18,5.83a5,5,0,0,1-3.34,4.75A5.37,5.37,0,0,1,486,16.92Zm-13-.56c0,2.29,2.16,3.08,4,3.08s4-.79,4-3.08c0-.87-.46-3.08-4-3.08S473,15.47,473,16.36Zm.7-8.67c0,.35.06,2.57,3.27,2.57s3.29-2.16,3.29-2.54c0-1-.62-2.62-3.26-2.62S473.7,6.72,473.7,7.69Z"/>
          <path class="cls-1" d="M515.41,12.66a12,12,0,1,1-12-12A12,12,0,0,1,515.41,12.66Z"/>
        </g>
        <path class="cls-2" d="M421.12,20.58h-2.87v-7A16.33,16.33,0,0,1,413,19a4.45,4.45,0,0,0-1.89-2.14,15,15,0,0,0,6.09-6.59h-5.67V7.69h6.71V4l2.77.09c.15,0,.46,0,.46.21s-.06.2-.36.4v3h6.77v2.56h-5.78a16.84,16.84,0,0,0,6.12,6.53A5.77,5.77,0,0,0,426.34,19a21.89,21.89,0,0,1-5.22-5.41Z"/>
        <path class="cls-2" d="M504.41,12.36h5.51v2.26h-3.24l2.3.92c.16.07.27.11.27.22s-.29.23-.57.25a15.7,15.7,0,0,1-.87,1.95h2.76v2.21H495.46V18h3a9.27,9.27,0,0,0-1.41-2.38l1.77-1H496.2V12.36h5.58v-1h-2.59V10.09c-1.19.75-1.52,1-3,1.78a9.4,9.4,0,0,0-2.09-2c5-2.15,7.29-4.83,7.83-5.84l2.94.33c.1,0,.23,0,.23.18s-.18.27-.36.32a17.85,17.85,0,0,0,7.36,4.75,8.48,8.48,0,0,0-2,2.35A16.45,16.45,0,0,1,507,10.09v1.26h-2.55Zm-2.63,2.26h-2.29A11.76,11.76,0,0,1,501,17.05c-.76.42-1.1.62-1.53.91h2.34ZM505.51,9a13,13,0,0,1-2.38-2.21A17.1,17.1,0,0,1,500.7,9ZM504.41,18h2.19a15.34,15.34,0,0,0-1.4-.71,10.82,10.82,0,0,0,1.3-2.63h-2.09Z"/>
      </g>
    </g>
  </g>
</svg>
