<svg id="レイヤー_1" data-name="レイヤー 1" xmlns="http://www.w3.org/2000/svg" width="100" height="20.8" viewBox="0 0 100 20.8">
  <defs>
    <style>
      .cls-1 {
        fill: #fff;
      }

      .cls-2 {
        isolation: isolate;
      }
    </style>
  </defs>
  <title>アートボード 1</title>
  <g id="レイヤー_2" data-name="レイヤー 2">
    <g id="レイヤー_1-2" data-name="レイヤー 1-2">
      <g>
        <rect class="cls-1" y="0.2" width="28.1" height="2.8"/>
        <rect class="cls-1" y="9" width="28.1" height="2.8"/>
        <rect class="cls-1" y="17.8" width="19.7" height="2.8"/>
        <g class="cls-2">
          <path class="cls-1" d="M53,18.61,52.55,12c-.14-2.35-.25-4.81-.21-6.48l-2.9,11.4H46.58L43.49,5.45a63.69,63.69,0,0,1-.09,6.6L43,18.61H40.07L41.33,2.72h3.91l2.83,11.13L50.74,2.72h4l1.24,15.89Z"/>
          <path class="cls-1" d="M62.17,5V9.41h5.1v2.25h-5.1v4.67h6.28v2.28H59.13V2.72h9.22L68,5Z"/>
          <path class="cls-1" d="M79.12,18.61,73.67,5.75a50.48,50.48,0,0,1,.41,6.37v6.48H71.32V2.72h3.84l5.54,12.88a39.34,39.34,0,0,1-.41-5.43V2.72h2.76V18.61Z"/>
          <path class="cls-1" d="M92.44,19c-3.91,0-5.89-2.28-5.89-5.54V2.72h3V13.25c0,2.23.9,3.33,2.85,3.33s2.87-1.1,2.87-3.33V2.72h3.06V13.41C98.37,16.61,96.32,19,92.44,19Z"/>
        </g>
      </g>
    </g>
  </g>
</svg>
