<svg xmlns="http://www.w3.org/2000/svg" width="560" height="140" viewBox="0 0 560 140"><defs><style>.cls-1{fill:#ffa000;}.cls-2{fill:#fff;}</style></defs><g id="レイヤー_2" data-name="レイヤー 2"><g id="レイヤー_2-2" data-name="レイヤー 2"><rect class="cls-1" width="560" height="140" rx="5"/><path class="cls-2" d="M48.39,46.5c-2.06-3.58-5.44-3.58-7.5,0l-27.14,47c-2.06,3.58-.37,6.5,3.75,6.5H71.78c4.13,0,5.81-2.92,3.75-6.5Z"/><path class="cls-1" d="M42.22,78.43l-.7-10.53c-.13-2.05-.2-3.52-.2-4.41a4,4,0,0,1,1-2.85,3.28,3.28,0,0,1,2.51-1,2.54,2.54,0,0,1,2.53,1.31A8.71,8.71,0,0,1,48,64.69c0,1-.05,2-.15,3l-1,10.83a8.39,8.39,0,0,1-.66,3,1.72,1.72,0,0,1-1.67,1,1.66,1.66,0,0,1-1.65-1A10.46,10.46,0,0,1,42.22,78.43Zm2.44,14.46A3.47,3.47,0,0,1,42.32,92a3.07,3.07,0,0,1-1-2.43,3.26,3.26,0,0,1,3.3-3.27,3.24,3.24,0,0,1,2.36,1,3.14,3.14,0,0,1,1,2.32A3.09,3.09,0,0,1,47,92,3.4,3.4,0,0,1,44.66,92.89Z"/><path class="cls-2" d="M519.11,46.5c-2.06-3.58-5.44-3.58-7.5,0l-27.14,47c-2.06,3.58-.38,6.5,3.75,6.5H542.5c4.13,0,5.81-2.92,3.75-6.5Z"/><path class="cls-1" d="M512.94,78.43l-.7-10.53c-.13-2.05-.2-3.52-.2-4.41a4,4,0,0,1,1-2.85,3.26,3.26,0,0,1,2.51-1A2.55,2.55,0,0,1,518,60.93a8.87,8.87,0,0,1,.64,3.76,26.9,26.9,0,0,1-.16,3l-.94,10.83a8.39,8.39,0,0,1-.66,3,1.72,1.72,0,0,1-1.67,1,1.66,1.66,0,0,1-1.65-1A9.84,9.84,0,0,1,512.94,78.43Zm2.44,14.46A3.47,3.47,0,0,1,513,92a3,3,0,0,1-1-2.43,3.26,3.26,0,0,1,3.3-3.27,3.24,3.24,0,0,1,2.36,1,3.14,3.14,0,0,1,1,2.32,3.09,3.09,0,0,1-1,2.42A3.4,3.4,0,0,1,515.38,92.89Z"/><path class="cls-2" d="M100.29,43.94H96.17V38a27.51,27.51,0,0,1-8.12,5.94,9.21,9.21,0,0,0-3.63-3A21.78,21.78,0,0,0,93,35.5H87.82v-11h8.35V23.29H85.06V19.81H96.17V17.23l4.47.23c.29,0,.58.09.58.38s-.35.46-.93.61v1.36h11.08v3.48H100.29v1.19h8.44v11H103.6a24.41,24.41,0,0,0,8.24,4.9,9,9,0,0,0-3.17,3.31,28.84,28.84,0,0,1-8.38-5.77ZM96.17,27.26H92.11V28.6h4.06Zm0,3.83H92.11v1.37h4.06Zm4.12-2.49h4.15V27.26h-4.15Zm0,3.86h4.15V31.09h-4.15Z"/><path class="cls-2" d="M125.11,17.23l4.44.2c.2,0,.52,0,.52.29s-.29.38-.69.52v1.34h11v3.71H114.06V19.58h11ZM124,36.08c.18.09.29.18.29.35s-.4.32-.75.32a24.75,24.75,0,0,1-5.69,6.61,12.89,12.89,0,0,0-3.77-2.43,22.7,22.7,0,0,0,6-7Zm5.4,4.61c0,2.38-.52,3.46-5.86,3.22a15.09,15.09,0,0,0-1.6-4.29c.53.06,1.66.17,2.24.17.92,0,1-.43,1-.84V33.5H117.2v-9h20v9h-7.8ZM121.49,28v2.06H133V28ZM134,34a24.79,24.79,0,0,1,5.66,6.5,44,44,0,0,0-3.74,2.81,29.29,29.29,0,0,0-5.4-7.07Z"/><path class="cls-2" d="M155.13,18c.38.06.61.12.61.38s-.32.4-.49.46c-.09.87-.15,1.89-.21,3.08a21.32,21.32,0,0,0,4.56-1.45c0,1.07-.06,2.4-.06,3.07a12.08,12.08,0,0,0,.06,1.57,21.35,21.35,0,0,1-4.76,1.3c0,.32-.06,1.71-.06,2a14.39,14.39,0,0,1,4.93-.87,7.69,7.69,0,0,1,8,7.86c0,5.39-4,7.22-6.88,7.22-4.38,0-4.52-3.89-4.55-5.11.61-.2,3.22-1.07,3.6-1.21,0,.58,0,1.94,1.36,1.94,1.1,0,1.83-1.1,1.83-2.55a3.65,3.65,0,0,0-3.86-3.83,13.58,13.58,0,0,0-4.5,1c.12,5.8.15,6.47.38,8.73l-4,1.8a40.3,40.3,0,0,0-5.08-4.15c-.73.79-1.07,1.19-1.48,1.69l-2.09-5c1.34-.73,6.61-4.73,7.78-5.46,0-1,0-1.24,0-3.48-1.72.09-3.75.12-5.4.12V22.48a13.07,13.07,0,0,0,2.29.17c1.13,0,2.76-.11,3.11-.11,0-2.18,0-2.5-.12-5.4Zm-6.5,18.71a3.12,3.12,0,0,0,1.31.75c.43,0,.4-1,.37-2.11C150,35.62,149.36,36.05,148.63,36.69Zm15.14-15.43a24.7,24.7,0,0,1,6.33,4.64,20.19,20.19,0,0,0-2.82,3.51,16.81,16.81,0,0,0-6.15-4.55Z"/><path class="cls-2" d="M188.07,18.59c.32.12.5.2.5.46s-.5.5-.84.53c-.32.49-.67,1.07-1.72,3,1.54.15,3,.21,3.63.21s1,0,1.42-.06a20.91,20.91,0,0,0-1.27,4.58,35.38,35.38,0,0,1-5.49-.26c-.35.78-.75,1.83-1,2.55a43.65,43.65,0,0,0,6.44.44c-.55,1.56-1,3.39-1.25,4.29-1.77-.12-3.77-.29-6.5-.7a9.87,9.87,0,0,0-.32,2.35c0,3.54,3.28,3.54,4.7,3.54,1.25,0,5.63,0,5.63-4.2a11,11,0,0,0-1.48-4.53,13.77,13.77,0,0,0,4.38-1.57,15.24,15.24,0,0,1,2,6.59c0,6.38-6.73,7.86-10.53,7.86-5.83,0-9.05-3-9.05-7.28a13.93,13.93,0,0,1,.44-3.51A24.24,24.24,0,0,1,174,31.85l1-4.3a27.15,27.15,0,0,0,3.92,1.25c.12-.38.32-1,.87-2.58a24.94,24.94,0,0,1-4.32-1.45l.87-4.5a36.73,36.73,0,0,0,5.13,1.6c.29-.79,1.68-4.32,2-5.05Z"/><path class="cls-2" d="M215,18.18c.23.06.55.18.55.47s-.15.38-.64.4c-.64,2-.7,2.18-.84,2.62a44.59,44.59,0,0,0,9.46-2.3c.14,1,.52,3.17.81,4.33a50.64,50.64,0,0,1-11.87,2.46c-.69,1.92-.93,2.5-1.51,3.92a17.21,17.21,0,0,1,7.55-2c7.74,0,8.15,5.46,8.15,6.91a7.15,7.15,0,0,1-3.11,5.86c-1.53,1-4.43,2.78-12.47,2.78a26.41,26.41,0,0,1-2.7-.14,20.37,20.37,0,0,0-1.07-4.32c.84.08,2.55.26,4.32.26.67,0,5.63,0,8.62-1.77A3,3,0,0,0,221.77,35c0-1.68-.87-3.1-3.54-3.1a14.85,14.85,0,0,0-10,4.84L204,34.6a40.36,40.36,0,0,0,3.86-8.15c-2.52,0-4.53-.09-5.63-.17l-.06-4.76a26.87,26.87,0,0,0,7,.64A38.88,38.88,0,0,0,210.32,17Z"/><path class="cls-2" d="M242.94,22c.35.41,1.8,2.21,2.09,2.56a12.45,12.45,0,0,1,3.19-.5A5.52,5.52,0,0,1,254,29.73c0,5.42-5.89,5.92-8.84,6.15A20.58,20.58,0,0,0,243.81,32c.49,0,.84,0,1.34,0,1,0,4.7,0,4.7-2.55,0-.5-.15-1.63-1.86-1.63-.26,0-.49,0-.64,0,.52.84.81,1.39,1.07,1.83-1.07.43-2.75,1.13-3.8,1.59a17.64,17.64,0,0,0-1.07-2.23c-1.07.49-1.71.84-2.12,1.07a57.13,57.13,0,0,1,4.06,11.2,40.19,40.19,0,0,0-4.12,2A49.62,49.62,0,0,0,238,32.19c-.84.61-1.07.82-3.28,2.7l-2.61-4.09a38.27,38.27,0,0,0,4.12-2.06,21.42,21.42,0,0,0-2.61-3.8l4-1.62a1.53,1.53,0,0,1,.61-.18.31.31,0,0,1,.34.32.83.83,0,0,1-.26.47c.44.78,1.13,2.09,1.57,2.87l1.65-.81c-.46-.64-.61-.84-1.83-2.38Z"/><path class="cls-2" d="M263.3,23.46a29.49,29.49,0,0,1,6.78,4,29.2,29.2,0,0,0-2.81,3.85,24.69,24.69,0,0,0-6.58-3.94Zm-.93,15.61A42.36,42.36,0,0,0,282.79,23.7a15.12,15.12,0,0,0,3,3.91c-3.66,5.45-12.24,12.59-20,15.46,0,.18-.06.67-.49.67-.2,0-.38-.29-.44-.38Zm3.86-22a45.36,45.36,0,0,1,7.28,3.43c-.61.69-2.35,3.16-2.76,3.77a30.46,30.46,0,0,0-7.05-3.66Z"/><path class="cls-2" d="M292.24,41.62V37.91h13V35H293v-3.8h12.22V28.37H292.62v-3.8h16.65V42.49h-4.06v-.87Z"/><path class="cls-2" d="M342.85,28.22v4.93H317.64V28.22Z"/><path class="cls-2" d="M372.81,41.68h-19.5c.38-5.08,3.22-7.17,9.37-11.34,4.67-3.19,4.67-3.86,4.67-5.08,0-2.17-2.32-2.72-3.83-2.72-3.91,0-4.32,2.78-4.44,4.67h-5.36c.09-1.83.17-3.83,1.8-5.78,1.94-2.35,4.75-3.25,8-3.25,6.64,0,9.05,3.66,9.05,7a6.91,6.91,0,0,1-1.27,4c-1.48,2.06-7.34,5.8-7.63,6a15.58,15.58,0,0,0-3,2.24h12.07Z"/><path class="cls-2" d="M394.67,30.63c0,2.78-.67,11.69-9.66,11.69a8.79,8.79,0,0,1-7.66-3.74c-1.5-2.21-2-6.18-2-8.71,0-2.78.67-11.69,9.69-11.69C393.48,18.18,394.67,25.9,394.67,30.63Zm-13.95-.38c0,1,0,7.69,4.29,7.69s4.27-6.7,4.27-7.69,0-7.69-4.27-7.69S380.72,29.21,380.72,30.25Z"/><path class="cls-2" d="M416.83,41.68h-19.5c.38-5.08,3.22-7.17,9.37-11.34,4.67-3.19,4.67-3.86,4.67-5.08,0-2.17-2.32-2.72-3.83-2.72-3.91,0-4.32,2.78-4.43,4.67h-5.37c.09-1.83.17-3.83,1.8-5.78,1.94-2.35,4.76-3.25,8-3.25,6.65,0,9.05,3.66,9.05,7a6.91,6.91,0,0,1-1.27,4c-1.48,2.06-7.34,5.8-7.63,6a15.58,15.58,0,0,0-3,2.24h12.07Z"/><path class="cls-2" d="M438.84,41.68h-19.5c.38-5.08,3.22-7.17,9.37-11.34,4.67-3.19,4.67-3.86,4.67-5.08,0-2.17-2.32-2.72-3.82-2.72-3.92,0-4.33,2.78-4.44,4.67h-5.37c.09-1.83.17-3.83,1.8-5.78,1.94-2.35,4.76-3.25,8-3.25,6.65,0,9.05,3.66,9.05,7a6.91,6.91,0,0,1-1.27,4c-1.48,2.06-7.34,5.8-7.63,6a15.58,15.58,0,0,0-3,2.24h12.07Z"/><path class="cls-2" d="M456,19.55c.23.08.38.2.38.4,0,.35-.55.41-.81.44a40,40,0,0,0-1.74,11.17,20.27,20.27,0,0,0,.2,2.9c.38-.55,1-1.48,1.36-2.06a12.22,12.22,0,0,0,2.09,2.87A12.93,12.93,0,0,0,455,42.38l-3.88.72a40.7,40.7,0,0,1-1.57-11.69,52.25,52.25,0,0,1,1.74-13.28Zm13.78-.64c.15,0,.38.06.38.32s-.41.43-.67.46a32.12,32.12,0,0,0-.29,3.48,25.37,25.37,0,0,0,4.29-1.07v4.38c-.66.17-2,.49-4.4.93a47.72,47.72,0,0,0,.46,6.67,16,16,0,0,1,5.51,3c-.46.84-1.33,2.72-2,4.09A10.42,10.42,0,0,0,470,39c-.11,3.72-3.82,4.15-5.65,4.15-4.35,0-6.53-2.38-6.53-5.08,0-3.45,3.42-4.75,7.2-4.67-.24-3.3-.27-3.68-.32-5.36-1.66.14-2.85.14-3.34.14-.93,0-1.54,0-2.15-.08V23.49a30.84,30.84,0,0,0,5.46.21c0-1.22,0-3.78,0-5.66Zm-6,18c-.64,0-2,.21-2,1.11s.95,1.07,1.88,1.07c.23,0,2,0,2-1.42a.92.92,0,0,0-.05-.38A4.19,4.19,0,0,0,463.75,36.89Z"/><path class="cls-2" d="M104.79,71.92v2.73h-1.45v4.81H99v-.93H93.71v1.86c0,1.48-.38,2.49-4.7,2.49-.58,0-1.16,0-1.54,0a10.78,10.78,0,0,0-1.36-3.63,21.84,21.84,0,0,0,2.46.23c.84,0,.84-.29.84-.9h-9v-2.9h9v-1h-11V71.92h11V71h-9V68.44h9v-.81H82.05V61.74h7.36v-.81h-11v-3h11V56.29l4.5.17a.41.41,0,0,1,.44.38c0,.26-.18.32-.64.55v.49h11v3h-11v.81H101v5.89H93.71v.81h9.63v3.48ZM89.41,65.19V64.06H85.88v1.13Zm4.3-1.13v1.13h3.51V64.06ZM99,71.92V71H93.71v.93Zm0,3.71v-1H93.71v1Z"/><path class="cls-2" d="M122.1,60.2a22.25,22.25,0,0,0,2.49-4.09l4.35,1.1c.21.06.41.15.41.35s-.41.47-.84.41c-.76,1.19-1,1.68-1.45,2.23h6.64v3.63H107.25V60.2h6.38A13.86,13.86,0,0,0,112,57.74L115.89,56a18.69,18.69,0,0,1,2.35,3.62l-1.57.61Zm-9.31,16.36v6.27h-4.06v-18h11.54V80c0,2.38-1.25,2.73-5.07,2.85a8.39,8.39,0,0,0-1.48-4.12c.43,0,1.3.14,1.74.14s.87-.06.87-.93V76.56Zm3.54-7.37V67.92h-3.54v1.27Zm0,4.32v-1.3h-3.54v1.3Zm9.89-8.26c.26,0,.43.08.43.29s-.17.32-.43.49V77.58H122V65.07Zm6.12-.61c.26,0,.52.06.52.32s-.32.37-.7.58V79.37a2.77,2.77,0,0,1-1.24,2.82c-1,.69-2.3.67-4.7.64a10.75,10.75,0,0,0-1-4.35c.49,0,1.57.2,2,.2.73,0,.73-.47.73-.81V64.44Z"/><path class="cls-2" d="M140.4,76.44V69.69a16.92,16.92,0,0,1-2.35,1.59,14.67,14.67,0,0,0-2.88-3.22,19.94,19.94,0,0,0,3.69-2.52,21.4,21.4,0,0,0-2.38-1.86l2.78-2.84a19.37,19.37,0,0,1,2.61,1.83,8.61,8.61,0,0,0,1.75-2.41h-5.37V56.81h10l1.3,1.39a23.13,23.13,0,0,1-2.78,4.93h5.94a18.94,18.94,0,0,1-3.42-5.71L153,56a17.06,17.06,0,0,0,1.25,2.41,14.22,14.22,0,0,0,1.77-2.2l3.05,1.91c.11.06.32.2.32.35,0,.35-.5.38-.79.38-1,1.21-1.74,2.11-2.09,2.46a9.86,9.86,0,0,0,.79.84A35.61,35.61,0,0,0,159.92,59l2.69,1.83c.24.17.53.35.53.55,0,.38-.44.41-.87.43a21.15,21.15,0,0,1-2.5,2.61,20,20,0,0,0,4.09,2.7,14.39,14.39,0,0,0-2.67,3.45c-.43-.26-1.36-.9-2.67-1.91v7.74h-2.08a.43.43,0,0,1,.31.41c0,.29-.29.46-.6.49a11.5,11.5,0,0,1-.61,1.6h7.1v3.51H136.3V78.94h7.4c-.11-.35-.55-1.48-.81-2.12l1.42-.38Zm4.32-10.76c-.76.82-1.05,1.13-2.35,2.35h15.31a26.87,26.87,0,0,1-3-2.72v1.5h-9.95Zm-.15,5.6v1.86h9.78V71.28Zm2.73,5.16c.26.64.46,1.14.81,2.21l-1,.29H151a20.55,20.55,0,0,0,.87-2.5Z"/><path class="cls-2" d="M175.43,66.84h-2.12v1.51h2.9V72h-2.9V76a16.94,16.94,0,0,0,1-3.45l3.3.67c.18,0,.44.08.44.37s-.44.41-.84.44c-.12.43-.18.58-.58,1.8a35.1,35.1,0,0,0,5.77-2.06V69h-2.06a28.88,28.88,0,0,1,2,3.71,27.85,27.85,0,0,0-3.13,2.06,24.07,24.07,0,0,0-2.09-3.94l3-1.83h-3.31V65.57H186V64.41h-7.34V61.3H186V60.2h-8.73V56.66h12.88v8.91h1.76V69h-3.45l3.22,1.57a.46.46,0,0,1,.32.4c0,.29-.2.35-.75.44a26.16,26.16,0,0,1-2.35,3.45,21.63,21.63,0,0,0,3.62,2.93,14,14,0,0,0-2.37,3.68,25,25,0,0,1-3.89-3.94V80c0,2.88-1.89,2.88-5.34,2.88a13,13,0,0,0-1.48-3.92l-.78.35c0,.55-.09,1-.58,1a.46.46,0,0,1-.35-.32l-1-4.17a14,14,0,0,1-.61,1.47,11.5,11.5,0,0,0-2.73-.66V78c2.12-.4,2.73-.55,3.28-.69a11.42,11.42,0,0,0-.38,3.62c-3.68.81-6.67,1.31-9.48,1.71-.06.44-.15.82-.56.82-.26,0-.31-.24-.34-.44l-.67-4c1.19-.06,3.22-.29,4.29-.41V77.26a18.51,18.51,0,0,0-3,1,27.86,27.86,0,0,0-1.48-4.44l3.28-1a31.09,31.09,0,0,1,1.24,3.54V72h-3.8V68.35h3.8V66.84h-2.26v-1.1a10.27,10.27,0,0,0-3.05-2.87,13.26,13.26,0,0,0,5.57-6.47l4.12.81c.32.06.44.15.44.32s-.32.5-.67.52a22,22,0,0,0,4.21,4A11.74,11.74,0,0,0,175.43,64Zm-1.71-3.39a14.11,14.11,0,0,1-2.18-2.61c-.67.9-1.13,1.51-2.06,2.61Zm8.7,14c-.73.41-1.8,1-2.67,1.36.26,0,1.65.18,1.83.18.84,0,.84-.58.84-.93Zm3.8-6a4.13,4.13,0,0,1,.2.37A16.08,16.08,0,0,0,188,69h-1.74Z"/><path class="cls-2" d="M200.34,59.53v-3l3.83.14c.4,0,.66,0,.66.38s-.31.43-.66.55v1.94h5v3.83h-5V65.1h5.54v3.8h-5.54v1.19h5.25v8.44c0,1.92-.52,2.7-4.12,2.73A8,8,0,0,0,204.17,78v4.87h-3.83V74h-1.16v7.57h-4.06V70.09h5.22V68.9h-6.21V65.1h6.21V63.36h-2.9c-.21.41-.35.67-.61,1.1a14.2,14.2,0,0,0-3.51-1.24,17.31,17.31,0,0,0,2.23-6l3.69.53c.29,0,.46.17.46.4s-.38.5-.72.58c-.09.32-.18.64-.24.84Zm3.83,17.87a3.81,3.81,0,0,0,.78.09c.67,0,.67-.41.67-.93V74h-1.45Zm10.67-17.55c.44,0,.64.12.64.38s-.2.35-.64.58V76.73h-4.12V59.53Zm5.28-3.36c.2,0,.73.06.73.38s-.32.46-.73.69V79.14c0,.67,0,2.47-1.45,3.22-.84.44-1.28.47-4.41.64a8.85,8.85,0,0,0-1.62-4.09c.32,0,1.82.15,2.11.15,1.08,0,1.25-.24,1.25-1.08V56.31Z"/><path class="cls-2" d="M230.73,58.52c.55.2.78.29.78.49s-.58.32-.78.35a33.72,33.72,0,0,0-1.88,12,9.82,9.82,0,0,0,.2,2.32c.17-.32.87-1.6,1.22-2.18a8.5,8.5,0,0,0,2.23,2.38c-.72,1.37-2.06,4.73-1.91,6.94l-4.12,1.1a30.54,30.54,0,0,1-2.06-11.61,55.15,55.15,0,0,1,1.85-13.45Zm7.66,13.63a7.63,7.63,0,0,0-.44,2.06c0,1.28.7,1.48,4,1.48a29.87,29.87,0,0,0,7.16-.78,19.47,19.47,0,0,0-.44,4.73,61.41,61.41,0,0,1-7.33.37c-4.33,0-7.66-.75-7.66-4.29a10.69,10.69,0,0,1,1-4.26Zm-3.51-12.38c.87,0,2,.14,3.77.14a33.65,33.65,0,0,0,8.53-.93,43.68,43.68,0,0,0,.4,4.41,43.3,43.3,0,0,1-8.93.87c-1.71,0-2.84-.09-3.77-.14Z"/><path class="cls-2" d="M278.44,61.45c-8.3-.09-13.23,7.19-13.23,11,0,4.82,6.56,5.17,8.1,5.25a25.25,25.25,0,0,0-2.18,5.22c-5.08-1.18-10.67-3.88-10.67-10.12,0-5.34,4-8.67,5.13-9.6a98.64,98.64,0,0,0-12,1.71L253,59.42c.64,0,1.25.08,2.18.08,4.26,0,15.83-.81,22.42-2.87Z"/><path class="cls-2" d="M299.38,75.92v6.24h-3.69V75.92h-2.14a11,11,0,0,1-4.44,6.85,8.44,8.44,0,0,0-3.25-2.15v2.09h-4.15V56.89h12.16V67h-8v13.6c2-1.13,3.42-2.23,4-4.67h-3V72.7h3.37c0-.52,0-1.16,0-1.71H287.6V68h14.07v3h-2.29V72.7h2.9v3.22ZM290,59.77h-4.12v1.07H290ZM290,63h-4.12v1.11H290ZM295.69,71h-1.8c0,.35,0,1.45-.05,1.71h1.85Zm6.21,11.84a10.06,10.06,0,0,0-1.54-4.24,8.24,8.24,0,0,0,1.68.23c.56,0,1.16,0,1.16-1V67h-8.06V56.89h12.21V79.46C307.35,82.16,305.7,82.86,301.9,82.83Zm1.3-23.06H299v1.07h4.17Zm0,3.27H299v1.11h4.17Z"/><path class="cls-2" d="M330.73,69.71v1.22h4.49v2.93h-4.49v1.22h4.49V78h-4.49V79.2h5.85v3.16H323.27v.47h-4.09V72.73l-.78.78A10.05,10.05,0,0,0,317,71.46V82.83h-4.24V68.9l-.78,1a7,7,0,0,0-3-3,30.77,30.77,0,0,0,6.09-11l4.06,1.36v-.46l4.12.14a.38.38,0,0,1,.44.41c0,.29-.24.44-.64.7v2.78h2.17V56l4.32.26c.29,0,.44.17.44.37,0,.38-.44.5-.7.55v3.6h2.44V56.89l4.29.27c.35,0,.52.11.52.31,0,.35-.34.5-.72.67v5.8h-6.7l2,1.1a.55.55,0,0,1,.32.47c0,.32-.41.43-.84.52-.12.2-.29.47-.47.73h6.21v2.95ZM317,69.19A26.51,26.51,0,0,0,321,63.94h-1.77V58.08c-.09,0-.17.09-.26.12-.49,1.07-.78,1.68-1.8,3.65.44.24.55.29.55.5s-.46.52-.66.61Zm6.26.52v1.22h3.37V69.71Zm0,4.15v1.22h3.37V73.86Zm3.37,5.34V78h-3.37V79.2Zm-1.05-12.44a30.28,30.28,0,0,0,1.63-2.82h-3.6l1.33.67c.24.12.41.23.41.46s-.32.44-.84.5c-.32.52-.44.69-.73,1.19Z"/><path class="cls-2" d="M346,59.16c.26.08.58.17.58.43s-.35.44-.61.47a25.88,25.88,0,0,0-1.63,8.73c0,3.54,1.1,6,1.95,6s2-2.55,2.81-4.38a13.18,13.18,0,0,0,3,3.08c-2.32,5.62-5,7.6-6.38,7.6-1.62,0-5.92-3.46-5.92-12.42a51.37,51.37,0,0,1,1.43-10.85Zm14,.2A28.79,28.79,0,0,1,365.9,74c-1.71.67-3.77,1.65-4.72,2.15a26.4,26.4,0,0,0-4.88-14.36Z"/><path class="cls-2" d="M382,57.45c.26,0,.58.17.58.46s-.41.38-.64.38c-.12.46-.61,2.52-.73,2.93A18.39,18.39,0,0,0,386,59.79l.49,4.56a38,38,0,0,1-6.55,1.36,69.89,69.89,0,0,1-7.6,17,30.75,30.75,0,0,0-4.38-2.2,47.27,47.27,0,0,0,7.16-14.07c-1.77.14-2.12.14-5.31.17l-.37-4.75c.87.05,1.88.11,3.36.11,1.31,0,2.18,0,3.45-.11.41-2.18.61-4.07.79-5.49Zm2.17,17.46a2.87,2.87,0,0,0-.78,1.71.78.78,0,0,0,.52.75,10.58,10.58,0,0,0,3.89.5,20.82,20.82,0,0,0,6.38-1,12.33,12.33,0,0,0-.2,2.26,20.52,20.52,0,0,0,.17,2.41,34.94,34.94,0,0,1-6,.49c-3.8,0-8.85-.55-8.85-4.67a7.87,7.87,0,0,1,1.13-3.8Zm-1.36-8.21a37.31,37.31,0,0,1,6.41-.52,20.4,20.4,0,0,1,4.26.32c-.17,2.14-.2,2.61-.23,4.55a16.71,16.71,0,0,0-4.35-.52,53.66,53.66,0,0,0-6.09.52Z"/><path class="cls-2" d="M407.46,57.45c.43,0,.66.08.66.4s-.2.35-.55.49a64.26,64.26,0,0,0-.92,11.52c0,6.58.63,7.8,2.87,7.8,5,0,9.34-6.7,10.12-8.32a31.16,31.16,0,0,0,3.36,3.8c-3.3,5.36-8.23,9.4-14.09,9.4-6.44,0-7-5.46-7-12.71,0-1.68.29-9,.29-10.5,0-.84,0-1.83-.06-2.67Z"/><path class="cls-2" d="M442.4,57.21c.26.06.53.09.53.38s-.32.38-.53.41c-.11,1.13-.11,1.39-.14,1.71,1.33,0,5.83-.09,8,.17V64.2a73.6,73.6,0,0,0-8.15-.26v3.19a37,37,0,0,0,7.37-1.36v4.32a54.9,54.9,0,0,1-7.25,1c0,1.25,0,1.36.06,2.58A28.87,28.87,0,0,1,452,77.46a46.26,46.26,0,0,0-3.22,3.63,23.36,23.36,0,0,0-6.21-3.66c.06,1.51.26,4.93-6.09,4.93-4.5,0-7.78-2.06-7.78-4.7,0-3.3,4.15-4.73,9-4.64,0-.67,0-.67,0-1.71-2.87.06-8.13.15-8.13-2.73,0-1,.53-1.94,2-3.51l3.19.73c-.53.7-.61.78-.61,1s0,.81,3.39.66c0-.52,0-2.87,0-3.33-3.57.14-6.7.55-9.11.87V60.4c1.42-.14,7.78-.43,9.08-.52,0-1.1,0-2.23-.11-3.57Zm-6,19.15c-.15,0-2.93,0-2.93,1.19,0,1,1.6,1,2.09,1,1.42,0,2.29-.52,2.12-2.12A7.18,7.18,0,0,0,436.4,76.36Z"/><path class="cls-2" d="M471.58,56.78c.46.06.72.09.72.32s-.35.43-.58.49c-.06.52-.08.87-.14,2,8.18-.35,9.08-.38,9.63-.43,0,.6-.09,3.48,0,4.67-5.25-.27-7.46-.27-9.58-.24a26.8,26.8,0,0,0,0,3.22,9.48,9.48,0,0,1,1.69,5.57,13.72,13.72,0,0,1-6.73,11.2,19.73,19.73,0,0,0-4.24-3c.87-.35,4.29-1.8,5.34-4.18a3.2,3.2,0,0,1-2.29.7,3.87,3.87,0,0,1-3.13-1.3,7.26,7.26,0,0,1-1.25-4.3c0-6.38,5.45-6.18,6.06-6.09,0-.93,0-1.19,0-1.62a79.64,79.64,0,0,0-11.58,1.5l-.31-4.9c.66,0,1.77,0,11.77-.61a31.13,31.13,0,0,0-.4-3.68Zm-6.7,14.5c0,1.92.95,2.44,1.48,2.44.9,0,1.42-1.34,1.42-2.79,0-.66-.15-1.8-1.31-1.8C465.52,69.13,464.88,70.09,464.88,71.28Z"/><path class="cls-2" d="M119,97a17.45,17.45,0,0,0,0,23.26l-2.58,2.23a20.67,20.67,0,0,1,0-27.73Z"/><path class="cls-2" d="M147.07,98.82a5.31,5.31,0,0,1-.64.21,53.91,53.91,0,0,1-3.8,6.64H147V122h-4.61V120.9H122.73v-3.71h19.64v-2.27H124.53v-3.48h17.84v-2.2H122.73v-3.57h4.47A27.78,27.78,0,0,0,123,98.16l4-2a25.67,25.67,0,0,1,4.29,7.36,21.2,21.2,0,0,0-4,2.18h5.51V95.08l4.61.29c.38,0,.67.06.67.38s-.26.41-.67.52v9.4h5.25a16.22,16.22,0,0,0-3.94-1.71,25.66,25.66,0,0,0,3.94-7.4L147.07,98a.37.37,0,0,1,.26.35A.44.44,0,0,1,147.07,98.82Z"/><path class="cls-2" d="M158.17,119.1v1.6h-4.55V97h20.8V120.7h-4.56v-1.6Zm11.69-13.2v-4.84H158.17v4.84Zm0,9v-5.13H158.17V115Z"/><path class="cls-2" d="M187.41,111.79h-2.67v-3.51h15.63l1.48,1.86a21.14,21.14,0,0,1-5,6c2.67,1.07,4.41,1.51,9.51,2.15a10.49,10.49,0,0,0-1.91,3.65c-4.7-.87-7.22-1.39-11.08-3.33A28,28,0,0,1,181.57,122a15.37,15.37,0,0,0-2.11-3.91,24.89,24.89,0,0,0,9.92-1.8,20.48,20.48,0,0,1-3.57-3.25Zm14.76-11.54a.34.34,0,0,1,.26.34c0,.29-.43.41-.87.47a23.67,23.67,0,0,1-1.51,2.58h6v6.82h-4v-3.57H184v3.57h-4.12v-6.82h4.15c-.49-.73-1-1.45-1.6-2.12l2.38-1.48c-1.1,0-1.22,0-1.56,0a15.52,15.52,0,0,0-2-4.18,59.28,59.28,0,0,0,7.66.5c3.42,0,8.18-.29,11.26-1.48l3.13,3a.4.4,0,0,1,.17.34.45.45,0,0,1-.43.5,7.94,7.94,0,0,1-1-.35,15.93,15.93,0,0,1-2.87.69ZM190.86,100c-1.66.05-2.18.05-4.73.08a15.4,15.4,0,0,1,2.17,3c-.14.09-.87.52-1,.64h3.31a30.51,30.51,0,0,0-1.74-2.52Zm-1,11.83a18.87,18.87,0,0,0,3.08,2.35,11.86,11.86,0,0,0,2.43-2.35Zm6-8.15a21.68,21.68,0,0,0,2.21-4.38c-.41.06-2.73.38-5.31.58a30.88,30.88,0,0,1,2.15,3l-1.19.78Z"/><path class="cls-2" d="M216.26,122h-4.53V108.54a8.09,8.09,0,0,1-1,1.13,12.48,12.48,0,0,0-3.19-3,26.83,26.83,0,0,0,6.76-11.9l4,1.45c.29.12.55.21.55.44s-.37.38-.75.43c-1.13,2.67-1.22,2.88-2.06,4.62.46.11.87.23.87.55s-.26.46-.61.58Zm18.88-20.42v4.21h-2.72v12c0,3.34-.55,4.09-6.62,4.15a10.29,10.29,0,0,0-1.91-4.7,12.76,12.76,0,0,0,2.61.38c1.36,0,1.42-.38,1.42-1.36v-10.5H217.3v-4.21h10.62v-6.5l4.5.18c.34,0,.78,0,.78.37s-.35.44-.78.61v5.34Zm-13,5.74a21.83,21.83,0,0,1,4,6.56,37.6,37.6,0,0,0-4,2.15,26.74,26.74,0,0,0-4-6.73Z"/><path class="cls-2" d="M245.2,97.55c.23.08.38.2.38.4s-.55.41-.81.44A40,40,0,0,0,243,109.56a20.27,20.27,0,0,0,.2,2.9c.38-.55,1-1.48,1.36-2.06a12.22,12.22,0,0,0,2.09,2.87,12.85,12.85,0,0,0-2.41,7.11l-3.88.72a40.7,40.7,0,0,1-1.57-11.69,52.25,52.25,0,0,1,1.74-13.28ZM259,96.91c.14,0,.38.06.38.32s-.41.43-.67.46a32.12,32.12,0,0,0-.29,3.48,25.37,25.37,0,0,0,4.29-1.07v4.38c-.66.17-2,.49-4.41.93a45.79,45.79,0,0,0,.47,6.67,16,16,0,0,1,5.51,3c-.47.84-1.34,2.72-2,4.09a10.42,10.42,0,0,0-3.11-2.21c-.11,3.72-3.83,4.15-5.65,4.15-4.35,0-6.53-2.38-6.53-5.08,0-3.45,3.42-4.75,7.19-4.67-.23-3.3-.26-3.68-.32-5.36-1.65.14-2.84.14-3.33.14-.93,0-1.54,0-2.15-.08v-4.56a30.84,30.84,0,0,0,5.46.21c0-1.22,0-3.78,0-5.66Zm-6,18c-.64,0-2,.21-2,1.11,0,.75,1,1.07,1.88,1.07.23,0,2,0,2-1.42a.92.92,0,0,0-.05-.38A4.23,4.23,0,0,0,253,114.89Z"/><path class="cls-2" d="M273.54,98.16c.26.08.58.17.58.43s-.35.44-.61.47a25.88,25.88,0,0,0-1.63,8.73c0,3.54,1.1,6,1.95,6s2-2.55,2.81-4.38a13.18,13.18,0,0,0,3,3.08c-2.32,5.62-5,7.6-6.38,7.6-1.62,0-5.92-3.46-5.92-12.42a51.37,51.37,0,0,1,1.43-10.85Zm14,.2A28.79,28.79,0,0,1,293.4,113c-1.71.67-3.77,1.65-4.72,2.15a26.4,26.4,0,0,0-4.88-14.36Z"/><path class="cls-2" d="M309.47,96.45c.26,0,.58.17.58.46s-.41.38-.64.38c-.12.46-.61,2.52-.73,2.93a18.39,18.39,0,0,0,4.82-1.43l.49,4.56a38,38,0,0,1-6.55,1.36,69.89,69.89,0,0,1-7.6,17,30.75,30.75,0,0,0-4.38-2.2,47.27,47.27,0,0,0,7.16-14.07c-1.77.14-2.12.14-5.31.17l-.37-4.75c.87,0,1.88.11,3.36.11,1.31,0,2.18,0,3.45-.11.41-2.18.61-4.07.79-5.49Zm2.17,17.46a2.87,2.87,0,0,0-.78,1.71.78.78,0,0,0,.52.75,10.58,10.58,0,0,0,3.89.5,20.82,20.82,0,0,0,6.38-1,12.33,12.33,0,0,0-.2,2.26,20.52,20.52,0,0,0,.17,2.41,34.94,34.94,0,0,1-6,.49c-3.8,0-8.85-.55-8.85-4.67a7.87,7.87,0,0,1,1.13-3.8Zm-1.36-8.21a37.31,37.31,0,0,1,6.41-.52,20.4,20.4,0,0,1,4.26.32c-.17,2.14-.2,2.61-.23,4.55a16.71,16.71,0,0,0-4.35-.52,53.66,53.66,0,0,0-6.09.52Z"/><path class="cls-2" d="M335,96.45c.43,0,.66.08.66.4s-.2.35-.55.49a64.26,64.26,0,0,0-.92,11.52c0,6.58.63,7.8,2.87,7.8,5,0,9.34-6.7,10.12-8.32a31.16,31.16,0,0,0,3.36,3.8c-3.3,5.36-8.23,9.4-14.09,9.4-6.44,0-7-5.46-7-12.71,0-1.68.29-9,.29-10.5,0-.84,0-1.83-.06-2.67Z"/><path class="cls-2" d="M369.9,96.21c.26.06.53.09.53.38s-.32.38-.53.41c-.11,1.13-.11,1.39-.14,1.71,1.33,0,5.83-.09,8,.17v4.32a73.6,73.6,0,0,0-8.15-.26v3.19a37,37,0,0,0,7.37-1.36v4.32a54.9,54.9,0,0,1-7.25,1c0,1.25,0,1.36.06,2.58a28.87,28.87,0,0,1,9.69,3.83,46.26,46.26,0,0,0-3.22,3.63,23.36,23.36,0,0,0-6.21-3.66c.06,1.51.26,4.93-6.09,4.93-4.5,0-7.78-2.06-7.78-4.7,0-3.3,4.15-4.73,9-4.64,0-.67,0-.67,0-1.71-2.87.06-8.13.15-8.13-2.73,0-1,.53-1.94,2-3.51l3.19.73c-.53.7-.61.78-.61,1s0,.81,3.39.66c0-.52,0-2.87,0-3.33-3.57.14-6.7.55-9.11.87V99.4c1.42-.14,7.78-.43,9.08-.52,0-1.1,0-2.23-.11-3.57Zm-6,19.15c-.15,0-2.93,0-2.93,1.19,0,1,1.6,1,2.09,1,1.42,0,2.29-.52,2.12-2.12A7.18,7.18,0,0,0,363.9,115.36Z"/><path class="cls-2" d="M403.31,96.3c.41.06.67.09.67.41s-.35.4-.58.46c0,.15.09,4.26.12,4.67,3.59-.52,4.55-.61,5.56-.7v4.79c-.46,0-.95-.09-1.68-.09-1.36,0-2.7.15-3.86.26,0,7.78-1.27,8.07-6.75,8.07a27.35,27.35,0,0,0-1.13-4.29,10.25,10.25,0,0,0,1.62.14c1.62,0,1.74-.41,1.91-3.31l-5.83,1c0,.9-.05,1.77-.05,2.64,0,4.61.23,4.9.78,5.42s1.51.82,3.51.82a43.16,43.16,0,0,0,9.74-1.25,22.42,22.42,0,0,0-.55,4.73,79.65,79.65,0,0,1-10,.78c-1.69,0-6.21-.06-7.28-4-.44-1.66-.41-4-.35-8.24-3.48.87-4.5,1.13-5.63,1.45l-.35-5.08a36.19,36.19,0,0,0,5.83-.78,63.64,63.64,0,0,0-.37-6.67l5,.55c.44.06.79.09.79.46s-.32.41-.53.44c-.05.72-.26,3.8-.31,4.44.87-.15,3.65-.58,5.48-.9a35.51,35.51,0,0,0-.7-6.88Z"/><path class="cls-2" d="M427.12,97.05c.26.12.46.27.46.53s-.43.34-.69.29c-1.07,1.88-2.44,4.52-4,7.57-.29.55-.4.72-.63,1.1a11.11,11.11,0,0,1,2.69-.38c1.8,0,4.24.7,4.24,3.72a13.4,13.4,0,0,1-.26,2.43,13.93,13.93,0,0,0-.35,2.84c0,.76.2,1.45,1.1,1.45s4.18-1.82,6.24-4.75a31.69,31.69,0,0,0,3,3.68,21.33,21.33,0,0,1-4.93,4.21,11.51,11.51,0,0,1-5.54,1.71c-2.69,0-4.64-1.54-4.64-4.41,0-.87.5-4.7.5-5.48,0-1-.58-1.39-1.19-1.39-3.14,0-6.62,9-7.08,10.7l-4.73-2c1.86-3.11,6.06-11.81,7-13.72,1.83-4,3-6.82,4.35-10.33Z"/><path class="cls-2" d="M443.62,94.79a20.67,20.67,0,0,1,0,27.73l-2.55-2.23a17.48,17.48,0,0,0,0-23.26Z"/></g></g></svg>