<svg xmlns="http://www.w3.org/2000/svg" viewBox="0 0 560 59"><defs><style>.ab31e7f8-2eb8-459b-9767-9270b61c42b3{fill:#ffa000;}</style></defs><title>ttl_info</title><g id="b22f7a2c-8464-4ca6-84a8-081498a66b54" data-name="レイヤー 2"><g id="ead39b5b-e7f5-49fd-8730-b9c1285e1546" data-name="object"><rect class="ab31e7f8-2eb8-459b-9767-9270b61c42b3" y="54" width="560" height="5"/><path class="ab31e7f8-2eb8-459b-9767-9270b61c42b3" d="M32.26,29.07v9H26.93v-9H23.82A15.79,15.79,0,0,1,17.39,39a12.18,12.18,0,0,0-4.7-3.1v3h-6V1.51h17.6V16.13H12.69v19.7c2.94-1.64,5-3.23,5.79-6.76H14.16V24.41H19c0-.76,0-1.68,0-2.48H15.21V17.52H35.58v4.41H32.26v2.48h4.2v4.66ZM18.65,5.67h-6V7.23h6Zm0,4.75h-6V12h6Zm8.28,11.51H24.32c0,.5,0,2.1-.08,2.48h2.69Zm9,17.14a14.78,14.78,0,0,0-2.23-6.14,12.07,12.07,0,0,0,2.44.34c.79,0,1.68,0,1.68-1.47V16.13H26.13V1.51H43.81V34.19C43.81,38.1,41.42,39.11,35.92,39.07Zm1.89-33.4H31.76V7.23h6.05Zm0,4.75H31.76V12h6.05Z"/><path class="ab31e7f8-2eb8-459b-9767-9270b61c42b3" d="M81.86,20.08v1.76h6.51v4.25H81.86v1.76h6.51v4.24H81.86v1.73h8.49v4.57H71.07v.68H65.14V24.45L64,25.58a14.61,14.61,0,0,0-2-3V39.07H55.86V18.9c-.34.42-.8,1-1.13,1.39C53.21,17.9,52.5,17.14,50.44,16c1.93-2.31,6.68-8.27,8.82-16l5.88,2V1.3l6,.21c.46,0,.63.25.63.59s-.34.63-.92,1v4H74V.21l6.26.38c.42,0,.63.25.63.54,0,.55-.63.72-1,.8V7.14h3.53V1.51l6.21.38c.51,0,.76.17.76.46,0,.51-.51.72-1,1v8.4H79.6l2.94,1.6A.78.78,0,0,1,83,14c0,.46-.59.63-1.22.75-.17.3-.42.68-.67,1h9v4.29ZM62,19.32a38.36,38.36,0,0,0,5.72-7.6H65.14V3.23c-.12,0-.25.13-.37.17C64.05,5,63.63,5.84,62.16,8.7c.63.33.8.42.8.71s-.67.76-1,.88Zm9.08.76v1.76h4.87V20.08Zm0,6v1.76h4.87V26.09Zm4.87,7.73V32.09H71.07v1.73Zm-1.51-18a40.8,40.8,0,0,0,2.35-4.07H71.57l1.93,1c.34.16.59.33.59.67s-.46.63-1.22.71c-.46.76-.63,1-1.05,1.72Z"/><path class="ab31e7f8-2eb8-459b-9767-9270b61c42b3" d="M123.27,21.17V15.84h.93V6.64h-.76V1.55h12.94V6.64H135c-.08,4-.33,6.84-.59,9.2h2.23v5.33h-3.15c-.34,1.09-.42,1.39-.67,2.19.67,0,1.13.08,1.13.54s-.5.63-1,.8v7.65c0,.46,0,.67.42.67s.63-2.14.67-3.24a13.78,13.78,0,0,0,3.82,2.65c-.84,4.2-1.43,6-4.54,6h-1.72c-3.19,0-3.19-1.89-3.19-3.49v-3a29.07,29.07,0,0,1-6.89,7.56,22.23,22.23,0,0,0-4.75-3.83,23.36,23.36,0,0,0,3.62-2.47c-.09-.38-.42-1.89-.51-2.19-5.12,3.74-5.71,4.16-7.27,5.13-.21.67-.33,1-.71,1-.21,0-.38-.12-.59-.75l-1.85-5.59c.72-.29,1-.42,2.4-1.05V23.4l-2.65,3.19A12.91,12.91,0,0,1,107.86,24V38.9h-5.13V28.52c-.54,1.52-.84,2.27-1.17,3a28.8,28.8,0,0,0-4.62-3.32,43.86,43.86,0,0,0,5.71-14.37H98.83V8.19h3.9V.76l5.13.42c.38,0,.8.12.8.46s-.3.46-.8.71V8.19h3v5.67h-2.73a33,33,0,0,0,3.74,6.56V1.55h10.58V19.74h-6V27.3c1.09-.63,1.55-.92,2.06-1.26-.55-1.63-.89-2.43-1.22-3.27L122,21a51.79,51.79,0,0,1,2.9,7.31,26.67,26.67,0,0,0,3.53-7.1Zm-5-12.26V6.3h-1.85V8.91Zm-1.85,3.9v2.48h1.85V12.81Zm12-6.17v9.2h1.18a74.55,74.55,0,0,0,.46-9.2Z"/><path class="ab31e7f8-2eb8-459b-9767-9270b61c42b3" d="M144.77,26.42V21.51h11.64c.38-.59.76-1.14,1.34-2.14H147.8V8h8.82V6.3H144.86V1.6h37.93V6.3H170.9V8h8.91V19.37H165.36a.53.53,0,0,1,.17.33c0,.59-.8.67-1.05.72-.3.46-.42.67-.68,1.09h18.91v4.91H176.2a.78.78,0,0,1,.16.38c0,.5-.5.67-1.72.76a31.21,31.21,0,0,1-2.85,3.11,52.82,52.82,0,0,1,9.61,3.69,18.24,18.24,0,0,0-3.94,5.13,51,51,0,0,0-10.67-5.09c-6.26,3.41-13.4,4.41-19,4.71A11.09,11.09,0,0,0,145,33.69a45.27,45.27,0,0,0,14.41-1.64c-.75-.21-1.51-.38-3.44-.84-.25.21-.59.59-1,.93a22.33,22.33,0,0,0-6.09-2.44,36,36,0,0,0,3.57-3.28Zm11.85-14h-3V15h3Zm3.61,14L159,27.85c1.39.21,5.3.93,6.47,1.18a13.6,13.6,0,0,0,2.61-2.61Zm5-20.12h-3.06V8h3.06ZM162.21,15h3.06V12.39h-3.06Zm8.69,0H174V12.39H170.9Z"/></g></g></svg>