<svg xmlns="http://www.w3.org/2000/svg" viewBox="0 0 47 47"><defs><style>.a,.b{fill:#0b3e6f;}.a{opacity:0.18;}.c{fill:none;}</style></defs><circle class="a" cx="23.5" cy="23.5" r="23.5"/><path class="b" d="M37.169,16.866a7.473,7.473,0,0,1-2.924.765,5.326,5.326,0,0,0,2.227-2.924,9.4,9.4,0,0,1-3.292,1.342L33.131,16a5.055,5.055,0,0,0-3.968-1.636,4.5,4.5,0,0,0-3.028.9,5.691,5.691,0,0,0-2.158,5.6c-5.012-.139-8.388-2.541-11.068-5.569a5.64,5.64,0,0,0,1.6,7.17,5.04,5.04,0,0,1-2.332-.592,5.434,5.434,0,0,0,4.176,5.187,3.887,3.887,0,0,1-2.3.1,5.834,5.834,0,0,0,5.012,3.759,11.828,11.828,0,0,1-7.9,2.228,15.543,15.543,0,0,0,8.213,2.332c1.567,0,6.2-.314,9.468-3.2a15.754,15.754,0,0,0,5.708-11.7c0-.315-.016-.622-.045-.919A11.5,11.5,0,0,0,37.169,16.866Z"/><rect class="c" width="47" height="47"/></svg>