<?xml version="1.0" encoding="utf-8"?>
<!-- Generator: Adobe Illustrator 23.0.6, SVG Export Plug-In . SVG Version: 6.00 Build 0)  -->
<svg version="1.1" id="レイヤー_1" xmlns="http://www.w3.org/2000/svg" xmlns:xlink="http://www.w3.org/1999/xlink" x="0px"
	 y="0px" width="19px" height="20px" viewBox="0 0 19 20" style="enable-background:new 0 0 19 20;" xml:space="preserve">
<style type="text/css">
	.st0{fill:none;}
	.st1{fill-rule:evenodd;clip-rule:evenodd;fill:#333333;}
</style>
<title>color/black</title>
<desc>Created with Sketch.</desc>
<path class="st0" d="M8.6,7.5V5C8.6,3,7,1.4,5,1.4S1.3,3,1.3,5c0,0.4-0.3,0.7-0.7,0.7S0,5.4,0,5c0-2.8,2.2-5,5-5s5,2.3,5,5v2.5h9V20
	H1.2V7.5H8.6z M12.3,13.8c0-1.3-1-2.3-2.2-2.3s-2.2,1-2.2,2.3s1,2.3,2.2,2.3S12.3,15,12.3,13.8z"/>
<g>
	<path id="path-1_1_" class="st1" d="M8.6,7.5V5C8.6,3,7,1.4,5,1.4S1.3,3,1.3,5c0,0.4-0.3,0.7-0.7,0.7S0,5.4,0,5c0-2.8,2.2-5,5-5
		s5,2.3,5,5v2.5h9V20H1.2V7.5H8.6z M12.3,13.8c0-1.3-1-2.3-2.2-2.3s-2.2,1-2.2,2.3s1,2.3,2.2,2.3S12.3,15,12.3,13.8z"/>
</g>
</svg>
