<svg xmlns="http://www.w3.org/2000/svg" xmlns:xlink="http://www.w3.org/1999/xlink" viewBox="0 0 231 40"><defs><style>.a{fill:#0b3e6f;}.b{fill:none;}</style></defs><path d="M93.648,28.075a12.739,12.739,0,0,1-1.782-2.733,5.863,5.863,0,0,1-.543-2.409,4.291,4.291,0,0,1,1.191-3.176,4.2,4.2,0,0,1,3.106-1.19A3.88,3.88,0,0,1,98.445,19.6a3.583,3.583,0,0,1,1.063,2.684q0,1.915-2.648,4.113l-2.2,1.747,6.691,7.592a8.787,8.787,0,0,0,1.621-5.268h.774a9.56,9.56,0,0,1-1.873,5.86l2.676,3.043h-.943l-2.212-2.48a8.331,8.331,0,0,1-5.959,2.761,6.623,6.623,0,0,1-4.473-1.415,4.793,4.793,0,0,1-1.641-3.825,5.309,5.309,0,0,1,.8-2.726,13.07,13.07,0,0,1,2.81-3.049Zm1.789,10.819a6.871,6.871,0,0,0,2.979-.67,7.487,7.487,0,0,0,2.487-1.908l-6.8-7.705-.733.577a13.194,13.194,0,0,0-2.472,2.691,4.631,4.631,0,0,0-.81,2.535,4.048,4.048,0,0,0,1.458,3.24A5.81,5.81,0,0,0,95.437,38.894ZM92.1,22.905a7.5,7.5,0,0,0,2.113,4.719l2.466-1.958q2.041-1.7,2.042-3.38a2.819,2.819,0,0,0-.866-2.128,3.094,3.094,0,0,0-2.233-.831,3.4,3.4,0,0,0-2.556.993A3.551,3.551,0,0,0,92.1,22.905Z"/><path class="a" d="M12.339,30.456H4.226v5.522h9.522v3.395H0V18.862H13.72v3.424H4.226v4.888h8.113Zm11.468,3.831,4.648-15.425h4.7L26.018,39.373H21.609L14.5,18.862h4.691ZM47.43,30.456H39.316v5.522h9.523v3.395H35.09V18.862H48.81v3.424H39.316v4.888H47.43ZM68,39.373H63.77l-8.227-13.5v13.5H51.318V18.862h4.225l8.241,13.524V18.862H68Zm19.13-17.087H80.843V39.373H76.617V22.286h-6.2V18.862H87.126Z"/><path class="a" d="M117.736,33.992a2.172,2.172,0,0,0-.845-1.839,11.1,11.1,0,0,0-3.043-1.352,21.476,21.476,0,0,1-3.479-1.4q-3.493-1.887-3.494-5.085a4.955,4.955,0,0,1,.937-2.965,6.113,6.113,0,0,1,2.691-2.036,10.13,10.13,0,0,1,3.937-.732,9.212,9.212,0,0,1,3.916.8,6.229,6.229,0,0,1,2.669,2.246,5.884,5.884,0,0,1,.952,3.3H117.75a2.768,2.768,0,0,0-.887-2.191,3.65,3.65,0,0,0-2.493-.782,3.892,3.892,0,0,0-2.409.656,2.065,2.065,0,0,0-.86,1.725,1.98,1.98,0,0,0,1.008,1.677,11.39,11.39,0,0,0,2.965,1.267,12.806,12.806,0,0,1,5.254,2.691,5.357,5.357,0,0,1,1.649,4,4.936,4.936,0,0,1-2.015,4.177,8.816,8.816,0,0,1-5.423,1.514,10.467,10.467,0,0,1-4.311-.866,6.824,6.824,0,0,1-2.965-2.374,6.075,6.075,0,0,1-1.022-3.493h4.24q0,3.395,4.058,3.4a3.944,3.944,0,0,0,2.352-.613A2,2,0,0,0,117.736,33.992Zm19.44-3.536h-8.114v5.522h9.523v3.395H124.836V18.862h13.72v3.424h-9.494v4.888h8.114Zm9.409-11.594,5.269,14.876,5.24-14.876h5.551V39.373h-4.24V33.766l.422-9.677-5.536,15.284h-2.9L144.867,24.1l.423,9.663v5.607h-4.226V18.862Zm24.244,20.511H166.6V18.862h4.226Zm20.6,0H187.2l-8.227-13.5v13.5h-4.226V18.862h4.226l8.241,13.524V18.862h4.212Zm15.27-4.226h-7.41l-1.409,4.226h-4.493l7.635-20.511h3.916l7.677,20.511h-4.493Zm-6.269-3.423h5.128l-2.578-7.678Zm21.694.141h-3.367v7.508h-4.226V18.862h7.621a8.619,8.619,0,0,1,5.606,1.62,5.592,5.592,0,0,1,1.972,4.579,6.305,6.305,0,0,1-.908,3.5,6.2,6.2,0,0,1-2.754,2.233l4.437,8.381v.2h-4.536Zm-3.367-3.424h3.409a3.49,3.49,0,0,0,2.465-.81A2.89,2.89,0,0,0,225.5,25.4a3.1,3.1,0,0,0-.825-2.282,3.423,3.423,0,0,0-2.528-.831h-3.395Z"/><path d="M43.59,11.315c-.12,0-.132-.011-.132-.131,0-.084.024-.792.024-4.27V4.6c0-2.327-.024-3.058-.024-3.13,0-.132.012-.144.132-.144.084,0,.492.024,1.655.024h4.114c1.164,0,1.583-.024,1.655-.024.12,0,.132.012.132.144,0,.072-.024.8-.024,2.771V6.9c0,3.442.024,4.15.024,4.222,0,.12-.012.132-.132.132H49.947c-.12,0-.132-.012-.132-.132v-.588H44.79v.648c0,.12-.013.131-.132.131Zm1.2-6.044h5.025V2.537H44.79Zm5.025,4.078v-2.9H44.79v2.9Z"/><path d="M57.689,4.4c.156-.061.192-.037.252.083a10.908,10.908,0,0,1,.8,2.159c.036.132,0,.168-.143.216l-.6.18c-.144.048-.18.036-.2-.1l-.132-.516-.743.072v3.3c0,1.1.023,1.512.023,1.572,0,.119-.012.132-.131.132H55.9c-.12,0-.132-.013-.132-.132,0-.072.024-.468.024-1.572V6.6L54.7,6.674a1.111,1.111,0,0,0-.444.1.4.4,0,0,1-.18.06c-.084,0-.108-.084-.132-.2a9.81,9.81,0,0,1-.168-1.007,9.635,9.635,0,0,0,1.019.024c.228-.288.457-.6.672-.912a18.267,18.267,0,0,0-1.607-1.739c-.048-.048-.072-.072-.072-.108s.036-.084.084-.155l.42-.6c.048-.072.084-.108.12-.108s.06.024.108.072l.312.324a12.187,12.187,0,0,0,.647-1.236,3.663,3.663,0,0,0,.276-.743A9.326,9.326,0,0,1,56.777.87c.121.059.156.119.156.191s-.048.108-.108.156a.74.74,0,0,0-.227.288A16.451,16.451,0,0,1,55.542,3.16c.192.216.384.42.564.636.276-.444.54-.888.8-1.332a6.113,6.113,0,0,0,.36-.827,10.989,10.989,0,0,1,1.007.516c.108.059.145.108.145.18s-.037.131-.132.18a1.458,1.458,0,0,0-.4.479c-.612.972-1.26,1.883-1.811,2.6.432-.024.863-.06,1.3-.1-.084-.228-.18-.468-.288-.7-.047-.12-.047-.144.12-.216Zm-3.43,3.573a3.09,3.09,0,0,0,.012-.671c.3.036.719.12.923.168.144.036.2.084.2.144a.321.321,0,0,1-.06.168,1.428,1.428,0,0,0-.072.4,13.92,13.92,0,0,1-.419,2.231c-.06.192-.1.264-.168.264a.5.5,0,0,1-.216-.1,4.119,4.119,0,0,0-.684-.312A9.753,9.753,0,0,0,54.259,7.969ZM58,7.31c.144-.036.156-.024.2.108a10.372,10.372,0,0,1,.444,2c.011.132,0,.167-.156.216l-.576.155c-.192.048-.2.037-.216-.084a13.087,13.087,0,0,0-.384-2.074c-.036-.132,0-.156.144-.192Zm4.005,1.163v1.583h1.128c1.14,0,1.523-.024,1.583-.024.132,0,.144.012.144.12V11c0,.12-.012.132-.144.132-.06,0-.443-.024-1.583-.024H59.848c-1.152,0-1.535.024-1.607.024-.12,0-.132-.012-.132-.132v-.852c0-.108.012-.12.132-.12.072,0,.455.024,1.607.024h.983V8.473H60.46c-1.02,0-1.368.024-1.44.024-.119,0-.132-.012-.132-.132v-.8c0-.12.013-.132.132-.132.072,0,.42.024,1.44.024h.371V7.19a6.284,6.284,0,0,0-.072-1.248c.444.013.78.049,1.188.1.12.011.192.071.192.131a.548.548,0,0,1-.06.216,2.012,2.012,0,0,0-.073.744v.324h.7c1.02,0,1.367-.024,1.439-.024.133,0,.144.012.144.132v.8c0,.12-.011.132-.144.132-.072,0-.419-.024-1.439-.024Zm1.032-7.4a.522.522,0,0,0,.276-.06A.34.34,0,0,1,63.47.965c.084,0,.24.084.5.324.3.264.4.4.4.48s-.035.12-.144.2a1.726,1.726,0,0,0-.335.515,7.069,7.069,0,0,1-1.4,1.968,8.464,8.464,0,0,0,2.387.8,3.061,3.061,0,0,0-.42.887c-.06.216-.084.288-.192.288a1.33,1.33,0,0,1-.276-.059,8.816,8.816,0,0,1-2.434-1.14,9.45,9.45,0,0,1-2.063,1.043,1.165,1.165,0,0,1-.3.084c-.1,0-.144-.071-.227-.252a2.936,2.936,0,0,0-.517-.755,9.151,9.151,0,0,0,2.2-.9,7.047,7.047,0,0,1-1.475-2.363,5.959,5.959,0,0,1-.623.011c-.12-.023-.132,0-.132-.119v-.8c0-.12.012-.132.132-.132.071,0,.42.024,1.5.024Zm-2.7,1.008a5.05,5.05,0,0,0,1.2,1.715,4.729,4.729,0,0,0,1.235-1.715Z"/><path d="M69.737,1.277c2.327,0,3.178.852,3.178,2.315a2.028,2.028,0,0,1-1.847,2.027V5.7A2.223,2.223,0,0,1,73.2,7.945c0,1.643-1.175,2.639-3.3,2.639h-3.49V1.277ZM68,5.1h1.415c1.272,0,1.9-.528,1.9-1.355s-.456-1.26-1.751-1.26H68Zm0,4.27h1.727c1.236,0,1.847-.576,1.847-1.547,0-.948-.755-1.512-2.051-1.512H68Z"/><path d="M78.209,1.277c2.291,0,3.322.948,3.322,2.663s-1.187,2.734-3.418,2.734H76.542v3.91h-1.62V1.277ZM76.542,5.463h1.523C79.3,5.463,79.9,4.9,79.9,3.952c0-.924-.54-1.464-1.775-1.464H76.542Z"/><path d="M89.487,8.317c0,.828.012,1.536.036,2.495.012.156-.048.2-.18.2a9.992,9.992,0,0,1-1.2,0c-.132,0-.18-.048-.168-.192.012-.864.048-1.643.048-2.459V5.571a20.85,20.85,0,0,1-3.3,2.3.337.337,0,0,1-.18.047.333.333,0,0,1-.252-.119,4.492,4.492,0,0,0-1.032-.708,19.208,19.208,0,0,0,3.779-2.459A19.439,19.439,0,0,0,89.6,2.129,3.483,3.483,0,0,0,90.351.894a10.623,10.623,0,0,1,1.331.839.212.212,0,0,1,.1.18.343.343,0,0,1-.168.264,3.939,3.939,0,0,0-.72.659,18.987,18.987,0,0,1-1.4,1.512Z"/><path d="M96.078,5.787c.588-.6,1.176-1.212,1.739-1.811.48-.5.708-.636,1.08-.636a1.388,1.388,0,0,1,1.043.492,38.065,38.065,0,0,0,5.373,3.9.209.209,0,0,1,.108.324A7.032,7.032,0,0,1,104.8,9.1c-.06.084-.12.132-.18.132a.2.2,0,0,1-.132-.048A54.7,54.7,0,0,1,99.172,5a.3.3,0,0,0-.191-.084.251.251,0,0,0-.192.1c-.588.612-1.128,1.26-1.955,2.171a3.937,3.937,0,0,0-.48.612.271.271,0,0,1-.216.155.247.247,0,0,1-.168-.084,13.6,13.6,0,0,1-1.115-1.055A5.515,5.515,0,0,0,96.078,5.787ZM102.039,2.5c.06-.047.108-.036.18.024a5.543,5.543,0,0,1,1.139,1.284.121.121,0,0,1-.036.192l-.5.372a.126.126,0,0,1-.2-.037A5.942,5.942,0,0,0,101.4,2.944Zm1.067-.779c.072-.048.108-.036.18.024a5,5,0,0,1,1.139,1.235.139.139,0,0,1-.036.216l-.479.372a.123.123,0,0,1-.2-.036,5.672,5.672,0,0,0-1.2-1.379Z"/><path d="M108.57,2.153a.225.225,0,0,1,.168-.1.32.32,0,0,1,.156.06,12.45,12.45,0,0,1,2.29,1.7c.072.072.108.12.108.168a.26.26,0,0,1-.072.156c-.179.239-.575.719-.743.9-.06.06-.1.1-.144.1s-.1-.036-.156-.1a12.691,12.691,0,0,0-2.447-1.955C107.994,2.764,108.342,2.393,108.57,2.153Zm1.043,6.32a17.8,17.8,0,0,0,3.455-2.23,18.035,18.035,0,0,0,3.285-3.263,5.378,5.378,0,0,0,.336,1.4.594.594,0,0,1,.061.228c0,.108-.061.2-.193.36A19.586,19.586,0,0,1,113.8,7.514a25.836,25.836,0,0,1-3.622,2.35,4.142,4.142,0,0,0-.8.552.33.33,0,0,1-.216.12.309.309,0,0,1-.2-.132,8.3,8.3,0,0,1-.96-1.331A7.2,7.2,0,0,0,109.613,8.473Z"/><path d="M123.724,4.4a16.916,16.916,0,0,1,3.815,1.63c.132.073.191.157.132.312a7.153,7.153,0,0,1-.516,1.044c-.048.084-.1.132-.156.132a.184.184,0,0,1-.132-.06,13.3,13.3,0,0,0-3.154-1.536V8.569c0,.78.024,1.487.047,2.351.012.144-.047.18-.215.18a7.93,7.93,0,0,1-1.068,0c-.168,0-.227-.036-.227-.18.036-.888.047-1.6.047-2.363v-5.9a9.152,9.152,0,0,0-.12-1.775,8.933,8.933,0,0,1,1.5.192c.168.036.229.108.229.2a.622.622,0,0,1-.1.276,3.122,3.122,0,0,0-.084,1.127Z"/><path d="M138.315,6.218a5.047,5.047,0,0,1-1.031,2.807,1.789,1.789,0,0,0,1.679.636l-.3,1.079h-.408a2.241,2.241,0,0,1-1.955-.78,3.565,3.565,0,0,1-2.459.792A2.825,2.825,0,0,1,132.7,5.247a3.107,3.107,0,0,1-.684-1.871,2.143,2.143,0,0,1,2.352-2.1,2.018,2.018,0,0,1,2.29,1.991c0,1.151-.648,1.871-2.206,2.327a30.172,30.172,0,0,0,2.051,2.7,5.012,5.012,0,0,0,.539-2.351Zm-6.188,1.548a1.91,1.91,0,0,0,2.014,1.919,2.137,2.137,0,0,0,1.451-.48,26.824,26.824,0,0,1-2.386-3.166A1.785,1.785,0,0,0,132.127,7.766Zm3.19-4.51a.918.918,0,0,0-.947-.971,1,1,0,0,0-1,1.043,2.6,2.6,0,0,0,.576,1.487C134.981,4.467,135.317,4,135.317,3.256Z"/><path d="M143.177,3.508a9.775,9.775,0,0,0-.156-2.111,8.593,8.593,0,0,1,1.547.24c.156.036.229.108.229.216a.386.386,0,0,1-.073.192,2.149,2.149,0,0,0-.156,1.067V4.348l3.131-.732a1.687,1.687,0,0,0,.851-.348.286.286,0,0,1,.167-.072.255.255,0,0,1,.168.072,4.7,4.7,0,0,1,.888.78.309.309,0,0,1,.108.216.323.323,0,0,1-.156.239,1.594,1.594,0,0,0-.372.468,12.635,12.635,0,0,1-1.906,2.591.481.481,0,0,1-.313.18.383.383,0,0,1-.227-.084,4.1,4.1,0,0,0-1-.456,10,10,0,0,0,1.955-2.4l-3.3.84V8.365c0,.636.216.84,1.512.84a17.982,17.982,0,0,0,2.9-.264c.168-.024.18.06.2.24a5.64,5.64,0,0,1,.109,1.007c0,.12-.073.168-.252.18a23.536,23.536,0,0,1-2.867.144c-2.291,0-3-.491-3-2.111V5.979l-.767.2a12.78,12.78,0,0,0-1.692.515.5.5,0,0,1-.144.048c-.083,0-.132-.06-.192-.192a8.912,8.912,0,0,1-.479-1.223,18.5,18.5,0,0,0,2.255-.42l1.019-.252Z"/><path d="M154.4,7.91a.266.266,0,0,1,.336-.144,20.44,20.44,0,0,1,5.745,1.871.21.21,0,0,1,.12.323,9.379,9.379,0,0,1-.48.984c-.06.1-.108.144-.18.144a.361.361,0,0,1-.168-.06,21.815,21.815,0,0,0-5.925-1.991C154,8.665,154.242,8.186,154.4,7.91Zm.156-3.575c.06-.131.132-.168.312-.12a18.72,18.72,0,0,1,3.658,1.164c.191.084.216.168.156.348a7.629,7.629,0,0,1-.4.923c-.06.108-.108.156-.168.156a.285.285,0,0,1-.155-.048,17.669,17.669,0,0,0-3.922-1.283A11.558,11.558,0,0,1,154.553,4.335Zm.791-3.13c.1-.192.157-.192.325-.156a22.07,22.07,0,0,1,4.269,1.26c.192.084.216.144.145.3a9.973,9.973,0,0,1-.42,1.044c-.061.144-.168.144-.288.084a19.629,19.629,0,0,0-4.534-1.38C154.985,2.009,155.249,1.4,155.344,1.205Z"/><path d="M171.8,4.048c.671,0,1.462-.012,2.086-.025.168-.011.216.013.228.217a6.08,6.08,0,0,1,0,.935c0,.192-.048.228-.228.228-.431,0-1.343-.048-2.014-.048h-1.7a6.26,6.26,0,0,1-.817,3.274,6.649,6.649,0,0,1-2.553,2.363.5.5,0,0,1-.277.084.358.358,0,0,1-.263-.12,3.338,3.338,0,0,0-1.008-.66,6.065,6.065,0,0,0,2.722-2.171,5.148,5.148,0,0,0,.732-2.77h-2.315c-.588,0-1.271.048-1.727.06-.155.012-.192-.048-.216-.228-.035-.24-.06-.744-.084-1.187.78.06,1.451.06,2.039.06h2.363c0-.6,0-1.248-.012-1.775a5.172,5.172,0,0,0-.144-1.212,9.032,9.032,0,0,1,1.595.168c.133.036.181.084.181.168a.749.749,0,0,1-.084.264,2.243,2.243,0,0,0-.1.732c0,.563,0,.959-.012,1.643Z"/><path d="M178.71,6.854A9.6,9.6,0,0,0,176.946,7c-.144,0-.239-.072-.275-.252a12.762,12.762,0,0,1-.18-1.451,15.391,15.391,0,0,0,2.59.144h3.862c.911,0,1.835-.024,2.759-.036.179-.012.216.024.216.168a9.212,9.212,0,0,1,0,1.127c0,.144-.049.192-.216.18-.9-.012-1.787-.024-2.675-.024Z"/><rect class="b" width="231" height="40"/></svg>