<svg id="レイヤー_1" data-name="レイヤー 1" xmlns="http://www.w3.org/2000/svg" xmlns:xlink="http://www.w3.org/1999/xlink" viewBox="0 0 358.28 166.11"><defs><style>.cls-1{opacity:0.66;isolation:isolate;}.cls-2{fill:url(#名称未設定グラデーション);}.cls-3{fill:url(#名称未設定グラデーション_2);}.cls-4{fill:url(#名称未設定グラデーション_3);}.cls-5{fill:url(#名称未設定グラデーション_4);}.cls-6{fill:url(#名称未設定グラデーション_5);}.cls-7{fill:url(#名称未設定グラデーション_6);}.cls-8{fill:url(#名称未設定グラデーション_7);}.cls-9{fill:url(#名称未設定グラデーション_8);}.cls-10{fill:url(#名称未設定グラデーション_9);}.cls-11{fill:url(#名称未設定グラデーション_10);}.cls-12{fill:url(#名称未設定グラデーション_11);}.cls-13{fill:url(#名称未設定グラデーション_12);}.cls-14{fill:url(#名称未設定グラデーション_13);}.cls-15{fill:url(#名称未設定グラデーション_14);}.cls-16{fill:url(#名称未設定グラデーション_15);}.cls-17{fill:url(#名称未設定グラデーション_16);}.cls-18{fill:url(#名称未設定グラデーション_17);}.cls-19{fill:#fff;}</style><linearGradient id="名称未設定グラデーション" x1="-27.81" y1="176.53" x2="210.19" y2="46.53" gradientTransform="matrix(1, 0, 0, -1, 0, 168)" gradientUnits="userSpaceOnUse"><stop offset="0" stop-color="#56ad03"/><stop offset="0.37" stop-color="#5dbc03"/><stop offset="1" stop-color="#d5ff00"/></linearGradient><linearGradient id="名称未設定グラデーション_2" x1="-10.66" y1="207.93" x2="227.34" y2="77.93" xlink:href="#名称未設定グラデーション"/><linearGradient id="名称未設定グラデーション_3" x1="0.04" y1="227.52" x2="238.04" y2="97.52" xlink:href="#名称未設定グラデーション"/><linearGradient id="名称未設定グラデーション_4" x1="-20.02" y1="190.8" x2="217.98" y2="60.8" xlink:href="#名称未設定グラデーション"/><linearGradient id="名称未設定グラデーション_5" x1="7.43" y1="241.05" x2="245.43" y2="111.05" xlink:href="#名称未設定グラデーション"/><linearGradient id="名称未設定グラデーション_6" x1="-47.72" y1="140.08" x2="190.28" y2="10.08" xlink:href="#名称未設定グラデーション"/><linearGradient id="名称未設定グラデーション_7" x1="-35.56" y1="162.35" x2="202.44" y2="32.35" xlink:href="#名称未設定グラデーション"/><linearGradient id="名称未設定グラデーション_8" x1="-25.96" y1="179.91" x2="212.04" y2="49.91" xlink:href="#名称未設定グラデーション"/><linearGradient id="名称未設定グラデーション_9" x1="-3.18" y1="221.62" x2="234.82" y2="91.62" xlink:href="#名称未設定グラデーション"/><linearGradient id="名称未設定グラデーション_10" x1="17.64" y1="259.73" x2="255.64" y2="129.73" xlink:href="#名称未設定グラデーション"/><linearGradient id="名称未設定グラデーション_11" x1="6.39" y1="239.14" x2="244.39" y2="109.14" xlink:href="#名称未設定グラデーション"/><linearGradient id="名称未設定グラデーション_12" x1="-55.51" y1="125.82" x2="182.49" y2="-4.18" xlink:href="#名称未設定グラデーション"/><linearGradient id="名称未設定グラデーション_13" x1="-12.13" y1="205.25" x2="225.87" y2="75.25" xlink:href="#名称未設定グラデーション"/><linearGradient id="名称未設定グラデーション_14" x1="-82.87" y1="75.73" x2="155.13" y2="-54.27" xlink:href="#名称未設定グラデーション"/><linearGradient id="名称未設定グラデーション_15" x1="-72.54" y1="94.63" x2="165.46" y2="-35.37" xlink:href="#名称未設定グラデーション"/><linearGradient id="名称未設定グラデーション_16" x1="-64.52" y1="109.32" x2="173.48" y2="-20.68" xlink:href="#名称未設定グラデーション"/><linearGradient id="名称未設定グラデーション_17" x1="-57.97" y1="121.3" x2="180.03" y2="-8.7" xlink:href="#名称未設定グラデーション"/></defs><title>top_h1_en.svg</title><rect class="cls-1" x="163.67" y="132.08" width="194.61" height="27.2"/><path class="cls-2" d="M23,8.55V40.67H13.65V8.55H0V.1H36.6V8.55Z"/><path class="cls-3" d="M106.58.1h11.64L101.13,19.72l17.81,21H107.1L90.52,20.08V40.67H81.31V.1h9.21V19.36Z"/><path class="cls-4" d="M129.58.1l9.11,16.37L147.85.1h10.76L143.32,24.82V40.67h-9.26V24.82L118.77.1Z"/><path class="cls-5" d="M40.05,0V40.79h38V0ZM69.38,31.88H48.74v-23H69.38Z"/><path class="cls-6" d="M159.51,0V40.79h38V0Zm29.33,31.88H168.2v-23h20.64Z"/><path class="cls-7" d="M82.17,103.17H71.77l-3-8.45H52.62l-3,8.45H39.18L54.63,62.6h12ZM60.65,71.56,55.09,86.74H66.21Z"/><path class="cls-8" d="M96.93,62.6l8.9,29.29,8.91-29.29h13.44v40.57h-8.76V83.65c0-1.28.26-9.93.31-11.42l-9.57,30.94h-8.65L91.93,72.23c0,1.28.31,10.14.31,11.42v19.52H83.49V62.6Z"/><path class="cls-9" d="M163.87,62.6V71H140.5v7.52H163V86.6H140.5v8.08h23.94v8.45h-33.2V62.6Z"/><path class="cls-10" d="M236.81,62.6V78h19.77V62.6h9.27v40.57h-9.27V86.49H236.81v16.68h-9.22V62.6Z"/><path class="cls-11" d="M318.28,62.6,322.81,94l4.53-31.35h12.25L344.12,94l4.53-31.35h9.63l-7.83,40.57H338l-4.53-30.94-4.53,30.94h-12.4L308.65,62.6Z"/><path class="cls-12" d="M269.38,62.49v40.79h38V62.49ZM298.7,94.37H278.07v-23H298.7Z"/><polygon class="cls-13" points="38.03 76.71 38.03 62.49 0.01 62.49 0.01 103.28 38.03 103.28 38.03 89.11 38.03 80.3 29.34 80.3 18.96 80.3 18.96 89.11 29.34 89.11 29.34 94.37 8.7 94.37 8.7 71.41 29.34 71.41 29.34 76.71 38.03 76.71"/><polygon class="cls-14" points="223.96 70.61 223.96 62.21 190.78 62.21 190.78 66.06 190.78 70.61 190.78 78.44 190.78 84.26 190.78 86.85 215.56 86.85 215.56 94.69 190.78 94.69 190.78 103.08 215.56 103.08 223.96 103.08 223.96 94.69 223.96 86.85 223.96 84.89 223.96 78.44 199.18 78.44 199.18 70.61 223.96 70.61"/><path class="cls-15" d="M13.55,152.14c-2.68.31-4.33.77-4.33,3.82v1.28H36.48v8.45H0V157.6c0-3.91,0-12.36,10.05-13.55l13.19-1.54c3-.37,4.38-.88,4.38-4.33,0-3.61-1.13-5.05-8.76-5.05-8.61,0-8.91,1.08-9,6.13H.77c0-8.66.47-14.58,17.37-14.58,10.72,0,18.65.72,18.65,13,0,5.26-1.34,7.94-3.14,9.53a13.2,13.2,0,0,1-7.58,3.41Z"/><path class="cls-16" d="M59.16,124.68c16.48,0,18.75,3.81,18.75,21.07,0,16.59-3.09,20.36-17.62,20.36-15.56,0-19.27-1.86-19.27-20.72C41,128.7,44,124.68,59.16,124.68Zm-8.87,20.87c0,12,.62,12.16,9.74,12.16,7.73,0,8.61-.62,8.61-11.19,0-2.21-.11-9-.78-10.76-.87-2.43-3.76-2.63-8.4-2.63C50.91,133.13,50.29,133.39,50.29,145.55Z"/><path class="cls-17" d="M98.88,125.09v40.6H89.56V133.54H81.21v-8.45Z"/><path class="cls-18" d="M114.7,153.79c-.15,2.53.67,4.07,7,4.07,7.78,0,9.79-.82,9.84-9.53-1.49,1.34-3.19,2.94-11.33,2.94-7.58,0-15.2-1.34-15.2-13,0-13.55,8.45-13.55,17.36-13.55,15.72,0,18.34,3.09,18.34,19.37,0,17.42-1.54,22.06-18.65,22.06-10.3,0-16.59-1.7-16.54-12.32Zm16.8-16c0-4.64-2.57-4.85-9.48-4.85-6.65,0-7.88.88-7.88,5.1s2,5.21,8.55,5.21c7.42,0,8.81-1.11,8.81-5.48Z"/><path class="cls-19" d="M169.65,152.81V138.4h10v2.81H173v2.85h5.68v2.75H173V150h7v2.81Z"/><path class="cls-19" d="M187.63,152.81l-1.8-3-1.88,3h-3.47l3.51-5.43-3.2-4.86h3.49l1.57,2.59,1.55-2.59h3.37l-3.05,4.71,3.49,5.58Z"/><path class="cls-19" d="M198.78,152.81v-6.33a1.42,1.42,0,0,0-1.46-1.61,2,2,0,0,0-2,1.42v6.52h-3.24V138.4h3.24v5a3.35,3.35,0,0,1,2.93-1.11c2.24,0,3.77,1.39,3.77,3.44v7.09Z"/><path class="cls-19" d="M204.53,141.28V138.4h3.34v2.88Zm.05,11.53V142.52h3.25v10.29Z"/><path class="cls-19" d="M210.38,152.81V138.4h3.23v4.86a3.32,3.32,0,0,1,2.66-1c2.74,0,4.51,1.87,4.51,5.38s-1.85,5.39-4.49,5.39a3.49,3.49,0,0,1-3-1.36l-.53,1.12Zm3.18-3.54a2,2,0,0,0,1.86,1.27c1.21,0,2.07-1,2.07-2.88s-.77-2.79-2.08-2.79a1.9,1.9,0,0,0-1.85,2Z"/><path class="cls-19" d="M222.74,141.28V138.4h3.34v2.88Zm0,11.53V142.52H226v10.29Z"/><path class="cls-19" d="M234.25,153.05c-3.64,0-5-.74-5-3.34V145h-1.47v-2.5h1.62v-3.21h3.09v3.21h1.73V145h-1.73v4c0,1.35.22,1.38,2.29,1.38Z"/><path class="cls-19" d="M241.25,153.05a5.39,5.39,0,1,1,5.39-5.37A5,5,0,0,1,241.25,153.05Zm2.1-5.37c0-1.74-.79-2.81-2.1-2.81s-2.15,1.07-2.15,2.81.83,2.82,2.15,2.82S243.35,149.43,243.35,147.68Z"/><path class="cls-19" d="M248.6,152.81V142.52h2.79v1c.74-.89,1.68-1.24,3.6-1.26l.46,2.75a5.78,5.78,0,0,0-1.2-.13,2.43,2.43,0,0,0-2.42,1.37v6.54Z"/><path class="cls-19" d="M264.15,146a4.46,4.46,0,0,0-3.18-1.34c-.83,0-1.12.24-1.12.65s.24.61,1.73.91c2.83.55,4.05,1.75,4.05,3.64,0,2-1.61,3.19-4.6,3.19a6.23,6.23,0,0,1-4.77-1.92l1.37-2.29a5.48,5.48,0,0,0,3.53,1.7c.81,0,1.14-.22,1.14-.68s-.44-.82-2-1.15c-2.6-.52-3.69-1.7-3.69-3.32s1.58-3.11,4.45-3.11a5.84,5.84,0,0,1,4.38,1.59Z"/><path class="cls-19" d="M283.51,152.81l-1.37-7.22a33.56,33.56,0,0,1-.4-3.9h0a36.51,36.51,0,0,1-.41,3.9L280,152.81h-3.82l-3.09-14.41h3.34l1.39,7.48a22.33,22.33,0,0,1,.31,3.5h.08a31.82,31.82,0,0,1,.33-3.44L280,138.4h3.47l1.57,7.47a31.48,31.48,0,0,1,.35,3.41h.08c0-1.16.18-2.58.29-3.36L287,138.4h3.2l-3,14.41Z"/><path class="cls-19" d="M301.33,152.94a3.72,3.72,0,0,1-.94.11c-1.09,0-2.09-.44-2.31-1.18a4.42,4.42,0,0,1-3.49,1.18c-2.09,0-3.21-1.09-3.23-2.84v-.06c0-1.94,1.09-3.06,3.58-3.6,1.33-.28,2.2-.63,2.2-1.05,0-.6-.33-.72-1.33-.72a4.42,4.42,0,0,0-3,1.49L291.58,144a5.82,5.82,0,0,1,4.51-1.7c3,0,4.43,1.15,4.43,3.42v3.92c0,.55.39.75.94.75a4.07,4.07,0,0,0,.5,0Zm-4.1-5.12a3.8,3.8,0,0,1-1.48.67c-.86.24-1.27.59-1.27,1.37,0,.5.35.77,1,.77a1.83,1.83,0,0,0,1.73-1.18Z"/><path class="cls-19" d="M309.92,152.81v-6.33a1.42,1.42,0,0,0-1.46-1.61,2,2,0,0,0-2,1.42v6.52h-3.24V142.52h2.94v1.22c.52-1,1.57-1.46,3.25-1.46a3.63,3.63,0,0,1,3.75,3.77v6.76Z"/><path class="cls-19" d="M321.32,153.05c-3.64,0-4.95-.74-4.95-3.34V145h-1.48v-2.5h1.62v-3.21h3.09v3.21h1.74V145H319.6v4c0,1.35.22,1.38,2.29,1.38Z"/><path class="cls-19" d="M325.84,148.82a2.37,2.37,0,0,0,2.53,1.68,3.58,3.58,0,0,0,3-1.46l1.55,1.89a5.49,5.49,0,0,1-4.79,2.12c-3.16,0-5.24-2.1-5.24-5.39,0-3,1.83-5.38,5.17-5.38,3.05,0,5,2.07,5,5.25,0,.13,0,.28,0,.41ZM330,146.2a1.8,1.8,0,0,0-2-1.41,2.08,2.08,0,0,0-2.23,1.94Z"/><path class="cls-19" d="M342.25,152.81v-1.22a3.34,3.34,0,0,1-3.09,1.46c-2.75,0-4.76-1.86-4.76-5.37s2.25-5.4,4.72-5.4a3.44,3.44,0,0,1,2.55.85V138.4h3.24v14.41Zm-.5-6.63a2,2,0,0,0-1.89-1.33c-1.2,0-2.18,1-2.18,2.88s.89,2.79,2.2,2.79a1.9,1.9,0,0,0,1.87-2Z"/><path class="cls-19" d="M348.51,148.32l-.32-9.92h3.35l-.32,9.92Zm-.32,4.49V149.6h3.35v3.21Z"/></svg>