<svg xmlns="http://www.w3.org/2000/svg" viewBox="0 0 1130.68 730.45"><defs><style>.cls-1{fill:#fff;}</style></defs><title>アセット 24</title><g id="レイヤー_2" data-name="レイヤー 2"><g id="レイヤー_2-2" data-name="レイヤー 2"><path class="cls-1" d="M145.41,311.24S156,383,148.79,388.74,145.41,311.24,145.41,311.24Z"/><path class="cls-1" d="M145.43,282.06s5,22,.88,23.9S145.43,282.06,145.43,282.06Z"/><path class="cls-1" d="M148.08,396s5,22,.88,23.9S148.08,396,148.08,396Z"/><path class="cls-1" d="M143.23,238.53s6.58-72.26-1-77.57S143.23,238.53,143.23,238.53Z"/><path class="cls-1" d="M144.89,267.66s3.79-22.28-.46-23.91S144.89,267.66,144.89,267.66Z"/><path class="cls-1" d="M141.13,153.76s3.79-22.29-.46-23.91S141.13,153.76,141.13,153.76Z"/><path class="cls-1" d="M181.47,274.58S253.25,264,259,271.2,181.47,274.58,181.47,274.58Z"/><path class="cls-1" d="M152.29,274.56s22-5,23.9-.88S152.29,274.56,152.29,274.56Z"/><path class="cls-1" d="M266.22,271.91s22-5,23.9-.88S266.22,271.91,266.22,271.91Z"/><path class="cls-1" d="M108.76,276.76s-72.26-6.58-77.57,1S108.76,276.76,108.76,276.76Z"/><path class="cls-1" d="M137.89,275.1s-22.29-3.79-23.91.46S137.89,275.1,137.89,275.1Z"/><path class="cls-1" d="M24,278.86S1.7,275.07.07,279.32,24,278.86,24,278.86Z"/><path class="cls-1" d="M171,300.38s58.27,43.24,57.19,52.41S171,300.38,171,300.38Z"/><path class="cls-1" d="M150.41,279.73s19.14,12,17.53,16.28S150.41,279.73,150.41,279.73Z"/><path class="cls-1" d="M232.85,358.42s19.14,12,17.52,16.28S232.85,358.42,232.85,358.42Z"/><path class="cls-1" d="M118.08,250.51s-46.45-55.76-55.55-54.16S118.08,250.51,118.08,250.51Z"/><path class="cls-1" d="M139.85,269.93s-13.08-18.43-17.23-16.58S139.85,269.93,139.85,269.93Z"/><path class="cls-1" d="M56.65,192.05s-13.08-18.44-17.23-16.59S56.65,192.05,56.65,192.05Z"/><path class="cls-1" d="M170.61,249s43.23-58.27,52.41-57.19S170.61,249,170.61,249Z"/><path class="cls-1" d="M150,269.58s12-19.14,16.27-17.53S150,269.58,150,269.58Z"/><path class="cls-1" d="M228.65,187.14s12-19.14,16.27-17.52S228.65,187.14,228.65,187.14Z"/><path class="cls-1" d="M120.74,301.91S65,348.36,66.58,357.46,120.74,301.91,120.74,301.91Z"/><path class="cls-1" d="M140.16,280.14s-18.44,13.08-16.58,17.23S140.16,280.14,140.16,280.14Z"/><path class="cls-1" d="M62.28,363.34s-18.44,13.08-16.59,17.23S62.28,363.34,62.28,363.34Z"/><path class="cls-1" d="M154.22,310.08s27.74,67.05,22.09,74.36S154.22,310.08,154.22,310.08Z"/><path class="cls-1" d="M147.16,281.76s10.23,20.16,6.66,23S147.16,281.76,147.16,281.76Z"/><path class="cls-1" d="M177.38,391.65s10.23,20.16,6.66,23S177.38,391.65,177.38,391.65Z"/><path class="cls-1" d="M134.46,240.07s-11.15-71.7-19.77-75S134.46,240.07,134.46,240.07Z"/><path class="cls-1" d="M143.15,267.93s-1.74-22.54-6.25-23.09S143.15,267.93,143.15,267.93Z"/><path class="cls-1" d="M111.86,158.35s-1.74-22.54-6.25-23.09S111.86,158.35,111.86,158.35Z"/><path class="cls-1" d="M180.31,265.77s67.05-27.74,74.36-22.09S180.31,265.77,180.31,265.77Z"/><path class="cls-1" d="M152,272.83s20.16-10.23,23-6.66S152,272.83,152,272.83Z"/><path class="cls-1" d="M261.88,242.61s20.16-10.23,23-6.66S261.88,242.61,261.88,242.61Z"/><path class="cls-1" d="M110.3,285.53s-71.7,11.15-75,19.77S110.3,285.53,110.3,285.53Z"/><path class="cls-1" d="M138.16,276.84s-22.54,1.74-23.09,6.25S138.16,276.84,138.16,276.84Z"/><path class="cls-1" d="M28.57,308.13S6,309.87,5.49,314.38,28.57,308.13,28.57,308.13Z"/><path class="cls-1" d="M176.44,293.33s67,27.8,68.2,37S176.44,293.33,176.44,293.33Z"/><path class="cls-1" d="M151.43,278.3s21.49,7,20.95,11.53S151.43,278.3,151.43,278.3Z"/><path class="cls-1" d="M250.5,334.63s21.49,7,20.95,11.53S250.5,334.63,250.5,334.63Z"/><path class="cls-1" d="M113,257.8s-58.59-42.82-67-39.06S113,257.8,113,257.8Z"/><path class="cls-1" d="M138.81,271.35s-17.17-14.7-20.75-11.9S138.81,271.35,138.81,271.35Z"/><path class="cls-1" d="M39.19,216S22,201.28,18.45,204.09,39.19,216,39.19,216Z"/><path class="cls-1" d="M163.56,243.55s27.8-67,37-68.2S163.56,243.55,163.56,243.55Z"/><path class="cls-1" d="M148.53,268.56s7-21.49,11.53-20.95S148.53,268.56,148.53,268.56Z"/><path class="cls-1" d="M204.86,169.49s7-21.49,11.53-21S204.86,169.49,204.86,169.49Z"/><path class="cls-1" d="M128,307s-42.82,58.59-39.06,67S128,307,128,307Z"/><path class="cls-1" d="M141.58,281.18s-14.7,17.17-11.9,20.75S141.58,281.18,141.58,281.18Z"/><path class="cls-1" d="M86.22,380.8S71.51,398,74.31,401.54,86.22,380.8,86.22,380.8Z"/><path class="cls-1" d="M163.31,306.38s44.74,57.13,41.26,65.69S163.31,306.38,163.31,306.38Z"/><path class="cls-1" d="M148.9,281s15.27,16.67,12.59,20.34S148.9,281,148.9,281Z"/><path class="cls-1" d="M207.54,378.73s15.27,16.67,12.59,20.34S207.54,378.73,207.54,378.73Z"/><path class="cls-1" d="M125.46,244.26s-30-66.06-39.21-66.93S125.46,244.26,125.46,244.26Z"/><path class="cls-1" d="M141.31,268.76s-7.73-21.24-12.22-20.55S141.31,268.76,141.31,268.76Z"/><path class="cls-1" d="M81.72,171.62S74,150.38,69.5,151.06,81.72,171.62,81.72,171.62Z"/><path class="cls-1" d="M176.53,256.69s57.13-44.73,65.68-41.26S176.53,256.69,176.53,256.69Z"/><path class="cls-1" d="M151.15,271.1s16.67-15.27,20.34-12.58S151.15,271.1,151.15,271.1Z"/><path class="cls-1" d="M248.87,212.46s16.67-15.27,20.34-12.59S248.87,212.46,248.87,212.46Z"/><path class="cls-1" d="M114.41,294.54s-66.07,30-66.94,39.21S114.41,294.54,114.41,294.54Z"/><path class="cls-1" d="M138.91,278.69s-21.25,7.73-20.56,12.22S138.91,278.69,138.91,278.69Z"/><path class="cls-1" d="M41.76,338.28S20.52,346,21.2,350.51,41.76,338.28,41.76,338.28Z"/><path class="cls-1" d="M180.21,284.28s72,8.76,75.63,17.27S180.21,284.28,180.21,284.28Z"/><path class="cls-1" d="M152.08,276.52s22.58,1,23.28,5.48S152.08,276.52,152.08,276.52Z"/><path class="cls-1" d="M262.64,304.15s22.59,1,23.28,5.48S262.64,304.15,262.64,304.15Z"/><path class="cls-1" d="M109.52,267.11s-67.94-25.49-75-19.6S109.52,267.11,109.52,267.11Z"/><path class="cls-1" d="M138.05,273.23s-20.48-9.56-23.18-5.89S138.05,273.23,138.05,273.23Z"/><path class="cls-1" d="M27.23,246.67S6.74,237.12,4,240.78,27.23,246.67,27.23,246.67Z"/><path class="cls-1" d="M154.42,239.79s8.76-72,17.27-75.62S154.42,239.79,154.42,239.79Z"/><path class="cls-1" d="M146.66,267.93s1-22.59,5.48-23.29S146.66,267.93,146.66,267.93Z"/><path class="cls-1" d="M174.29,157.36s1-22.58,5.49-23.28S174.29,157.36,174.29,157.36Z"/><path class="cls-1" d="M137.25,310.48s-25.49,67.94-19.6,75.06S137.25,310.48,137.25,310.48Z"/><path class="cls-1" d="M143.37,282s-9.55,20.49-5.89,23.18S143.37,282,143.37,282Z"/><path class="cls-1" d="M116.82,392.78s-9.56,20.48-5.9,23.18S116.82,392.78,116.82,392.78Z"/><path class="cls-1" d="M929.89,240.79s11.6,78.32,3.69,84.57S929.89,240.79,929.89,240.79Z"/><path class="cls-1" d="M933.68,369s7,30.54,1.22,33.13S933.68,369,933.68,369Z"/><path class="cls-1" d="M927.51,161.45s7.18-78.85-1.07-84.63S927.51,161.45,927.51,161.45Z"/><path class="cls-1" d="M924.05,33.25S929.3,2.36,923.41.1,924.05,33.25,924.05,33.25Z"/><path class="cls-1" d="M969.23,200.8s78.33-11.61,84.57-3.69S969.23,200.8,969.23,200.8Z"/><path class="cls-1" d="M1097.42,197s30.55-7,33.13-1.22S1097.42,197,1097.42,197Z"/><path class="cls-1" d="M889.9,203.17s-78.85-7.18-84.64,1.07S889.9,203.17,889.9,203.17Z"/><path class="cls-1" d="M761.69,206.63s-30.89-5.24-33.14.64S761.69,206.63,761.69,206.63Z"/><path class="cls-1" d="M957.84,228.94s63.59,47.18,62.41,57.19S957.84,228.94,957.84,228.94Z"/><path class="cls-1" d="M1051.17,316.9s26.53,16.67,24.29,22.56S1051.17,316.9,1051.17,316.9Z"/><path class="cls-1" d="M900.06,174.52s-50.67-60.83-60.6-59.09S900.06,174.52,900.06,174.52Z"/><path class="cls-1" d="M807,86.31s-18.13-25.55-23.89-23S807,86.31,807,86.31Z"/><path class="cls-1" d="M957.39,172.84s47.17-63.59,57.18-62.41S957.39,172.84,957.39,172.84Z"/><path class="cls-1" d="M1045.34,79.52S1062,53,1067.9,55.22,1045.34,79.52,1045.34,79.52Z"/><path class="cls-1" d="M903,230.62s-60.84,50.68-59.1,60.6S903,230.62,903,230.62Z"/><path class="cls-1" d="M814.75,323.72s-25.55,18.13-23,23.89S814.75,323.72,814.75,323.72Z"/><path class="cls-1" d="M939.5,239.53s30.27,73.16,24.11,81.14S939.5,239.53,939.5,239.53Z"/><path class="cls-1" d="M974.29,363s14.18,27.94,9.23,31.84S974.29,363,974.29,363Z"/><path class="cls-1" d="M917.94,163.14S905.78,84.9,896.37,81.29,917.94,163.14,917.94,163.14Z"/><path class="cls-1" d="M883.48,39.6s-2.41-31.23-8.67-32S883.48,39.6,883.48,39.6Z"/><path class="cls-1" d="M968,191.18s73.16-30.27,81.14-24.11S968,191.18,968,191.18Z"/><path class="cls-1" d="M1091.4,156.39s27.94-14.18,31.84-9.23S1091.4,156.39,1091.4,156.39Z"/><path class="cls-1" d="M891.58,212.74s-78.24,12.17-81.85,21.58S891.58,212.74,891.58,212.74Z"/><path class="cls-1" d="M768.05,247.21s-31.24,2.41-32,8.66S768.05,247.21,768.05,247.21Z"/><path class="cls-1" d="M963.75,221.25s73.14,30.33,74.42,40.33S963.75,221.25,963.75,221.25Z"/><path class="cls-1" d="M1075.63,283.93s29.78,9.73,29,16S1075.63,283.93,1075.63,283.93Z"/><path class="cls-1" d="M894.49,182.48s-63.93-46.72-73.13-42.62S894.49,182.48,894.49,182.48Z"/><path class="cls-1" d="M782.76,119.5S759,99.11,754,103,782.76,119.5,782.76,119.5Z"/><path class="cls-1" d="M949.69,166.93S980,93.8,990,92.51,949.69,166.93,949.69,166.93Z"/><path class="cls-1" d="M1012.37,55.05s9.73-29.78,16-29S1012.37,55.05,1012.37,55.05Z"/><path class="cls-1" d="M910.92,236.19s-46.72,63.93-42.62,73.14S910.92,236.19,910.92,236.19Z"/><path class="cls-1" d="M847.94,347.92s-20.38,23.79-16.5,28.75S847.94,347.92,847.94,347.92Z"/><path class="cls-1" d="M949.42,235.5s48.82,62.34,45,71.67S949.42,235.5,949.42,235.5Z"/><path class="cls-1" d="M1016.09,345.05s21.17,23.1,17.45,28.19S1016.09,345.05,1016.09,345.05Z"/><path class="cls-1" d="M908.12,167.71s-32.75-72.08-42.78-73S908.12,167.71,908.12,167.71Z"/><path class="cls-1" d="M841.71,58s-10.72-29.44-17-28.49S841.71,58,841.71,58Z"/><path class="cls-1" d="M963.84,181.28s62.34-48.82,71.68-45S963.84,181.28,963.84,181.28Z"/><path class="cls-1" d="M1073.37,114.61s23.11-21.17,28.19-17.45S1073.37,114.61,1073.37,114.61Z"/><path class="cls-1" d="M896.06,222.57S824,255.32,823,265.35,896.06,222.57,896.06,222.57Z"/><path class="cls-1" d="M786.32,289s-29.44,10.72-28.49,16.95S786.32,289,786.32,289Z"/><path class="cls-1" d="M967.86,211.37s78.6,9.56,82.52,18.85S967.86,211.37,967.86,211.37Z"/><path class="cls-1" d="M1092.46,241.69s31.3,1.37,32.27,7.6S1092.46,241.69,1092.46,241.69Z"/><path class="cls-1" d="M890.73,192.64s-74.13-27.81-81.9-21.39S890.73,192.64,890.73,192.64Z"/><path class="cls-1" d="M766.18,162s-28.4-13.24-32.13-8.17S766.18,162,766.18,162Z"/><path class="cls-1" d="M939.72,162.83s9.56-78.59,18.84-82.52S939.72,162.83,939.72,162.83Z"/><path class="cls-1" d="M970,38.24s1.37-31.3,7.6-32.27S970,38.24,970,38.24Z"/><path class="cls-1" d="M921,240s-27.82,74.13-21.39,81.89S921,240,921,240Z"/><path class="cls-1" d="M890.35,364.52s-13.24,28.4-8.17,32.13S890.35,364.52,890.35,364.52Z"/><path class="cls-1" d="M121.06,620,98.24,605l7.17-26.32L84.25,595.86,61.38,580.81,71,606.33l-21.16,17.1,27.26-1.33,9.73,25.52,7-26.33Zm-35,14.82L79.72,618l-17.86.93,13.88-11.25-6.23-16.73,14.93,9.8,14-11.28L93.67,606.8l15.15,9.85-18,.81Z"/><path class="cls-1" d="M119.86,647l-10,8.12L99,648.06l4.55,12.09-10,8.11,12.92-.63L111,679.76l3.34-12.53,12.92-.63-10.82-7.12Zm1.63,18-8.58.4-2.22,8.22-3-8-8.48.44,6.6-5.38-3-7.93,7.09,4.69,6.64-5.39-2.25,8.26Z"/><path class="cls-1" d="M987.45,715.55l5.72,14.9,4.09-15.38,15.93-.77-13.35-8.74,4.2-15.37-12.39,10-13.34-8.76,5.61,14.9-12.36,10ZM983,697.32l8.74,5.75,8.14-6.58-2.72,10.12,8.84,5.75-10.54.48L992.73,723l-3.73-9.8-10.4.51,8.12-6.56Z"/><path class="cls-1" d="M1075.94,606.05l7.15-26.32-21.16,17.18-22.86-15,9.59,25.51-21.16,17.1,27.28-1.36,9.73,25.51,7-26.32,27.2-1.31Zm-7.49,12.48-4.68,17.33-6.38-16.79-17.87.9,13.9-11.24L1047.18,592l14.93,9.85,14-11.29-4.72,17.35,15.11,9.84Z"/><path class="cls-1" d="M1033,448.6l4.17-15.37-12.35,10-13.34-8.76,5.6,14.9-12.35,10,15.92-.79,5.68,14.9,4.09-15.38,15.89-.77Zm-4.38,7.28L1025.84,466l-3.69-9.81-10.47.52,8.11-6.56-3.61-9.79,8.7,5.76,8.18-6.59-2.8,10.12,8.85,5.75Z"/></g></g></svg>