<svg xmlns="http://www.w3.org/2000/svg" width="240" height="120"><defs><style>.cls-1{fill:#ff5064}</style></defs><g id="レイヤー_2" data-name="レイヤー 2"><g id="レイヤー_1-2" data-name="レイヤー 1"><rect class="cls-1" width="240" height="120" rx="6.12"/><path d="M87.2 54.05v2.86h-19v-2.86zm12.14-7.7h6.21v4.74c0 .3.08.42.4.42.5 0 .67-.4.8-1.95a4 4 0 002.06.94c-.4 2.82-.91 3.13-2.21 3.13h-1.68a1.52 1.52 0 01-1.68-1.63v-3.47h-1.53c-.23 2.77-1 4.66-2.42 5.84a5.19 5.19 0 00-1.86-1.07v.82c.29 0 .46 0 .79-.09A12.49 12.49 0 0098 56l-.6.06v7.12c0 1.68-1.05 1.87-3.49 1.89a8.24 8.24 0 00-.78-2.42 6.46 6.46 0 001.45.17c.72 0 .72-.25.72-.88v-5.6a6.18 6.18 0 00-.78.09v5.12h-1.7v-5l-.61.07a23.19 23.19 0 01-1.55 8.42 3.93 3.93 0 00-2.17-1 16.89 16.89 0 001.64-7.16l-.5.06c-.11.23-.21.42-.4.42s-.21-.13-.23-.25l-.4-2.4h1.47v-6.87h2a15.5 15.5 0 00.74-2.21l2.62.28c.13 0 .25.1.25.23s-.29.31-.54.42c-.09.19-.44 1.09-.51 1.28h2.76V53a5.35 5.35 0 001.91-4.32zm-7.1 8.19l3.09-.21V50h-3.09zm2-4.06a23.42 23.42 0 01.8 3 16.3 16.3 0 00-1.85.39 13 13 0 00-.82-3zM98.52 57v-2.34h8l.9 1a14.89 14.89 0 01-3 5.39 11.15 11.15 0 003.84 1.89A11.84 11.84 0 00107 65a19 19 0 01-4.14-2.39A11.56 11.56 0 0199 65a6.64 6.64 0 00-1.49-2.2 8 8 0 003.55-1.8A12.28 12.28 0 0199 58l1.45-1zm2.58 0a8.56 8.56 0 001.6 2.44 8.66 8.66 0 001.49-2.44zm18.25-6.54a16.44 16.44 0 010-1.66h-4.56v-2.56h7.37c0 .49-.08 2.61-.08 3 0 2.12 0 9 8 14a7.25 7.25 0 00-2.29 1.93c-3.53-2.41-7.08-6.76-8-11.19a19.67 19.67 0 01-8.13 11.21 7.91 7.91 0 00-2.14-2c6.72-4.39 7.79-9.49 8.27-13.12zm20.92 8.44a18.64 18.64 0 01-2.78 2.73 4.41 4.41 0 00-1.7-1.24 14.35 14.35 0 001.81-1.47c-2.65 1.14-5 1.91-5.36 2 0 .27-.06.55-.33.55s-.25-.28-.32-.49l-.59-2.41a19.22 19.22 0 002.57-.57v-5.25h-2.36v-2.31h2.36V46l2.58.15c.25 0 .46 0 .46.25s-.11.25-.46.38v3.71h2.16v2.31h-2.16v4.43a15.72 15.72 0 002.29-1 6.11 6.11 0 00-.21 2.07 14.3 14.3 0 001.57-2.16h-2.14V54.3h12.64v1.83h-8.19a7.75 7.75 0 01-.44.78H150c0 1.22-.05 5.35-1.1 7.05-.56.93-1.89 1.09-2.87 1.09h-.78a7.69 7.69 0 00-.75-2.31 17.25 17.25 0 01-2.59 2.61 4.77 4.77 0 00-1.87-1.2 15.23 15.23 0 004.64-5.21h-.88a19 19 0 01-2.37 3 12.78 12.78 0 01-3.61 2.75 5 5 0 00-1.6-1.45 12.65 12.65 0 005.08-4.33zm8.35-5.31h-9.45v-7.28h9.45zm-2.31-4.43v-1h-4.66v1zm-4.66 1.58v1h4.66v-1zm5.17 8.16a20.13 20.13 0 01-2.19 3.61 10.46 10.46 0 001.39.13c.56 0 .84-.13 1-.8a11.74 11.74 0 00.46-2.94zm24.48-5.75v2.29h-3.21a11.6 11.6 0 003.67 2.08 7.52 7.52 0 00-1.55 2 10.7 10.7 0 01-2.63-1.52c0 .76-.18 4.64-1 5.84-.72 1-2.08 1.09-4 1.15a4.09 4.09 0 00-.8-2.5c.3 0 .93.11 1.41.11 1 0 1.64 0 1.78-3.3h-2.85a9 9 0 01-7.73 5.82 5 5 0 00-1.22-2.23c2.06-.25 4.75-.61 6.3-3.59h-3.13v-1.22a13.25 13.25 0 01-3 1.66 7.18 7.18 0 00-1.8-1.87 10.33 10.33 0 004.26-2.43h-3.7v-2.29h5.63c.25-.4.48-.82.72-1.26h-4.79v-2.27h2.69a16 16 0 00-2.08-2.77l2.2-1.07a12.49 12.49 0 012.37 3 11.4 11.4 0 00-1.63.8h2.1a15.74 15.74 0 00.71-3.86l2.77.23c.11 0 .32 0 .32.23s-.21.3-.53.4a28.77 28.77 0 01-.63 3h3.19a13.38 13.38 0 00-1.45-.63 11.45 11.45 0 001.94-3.27l2.54.94a.3.3 0 01.23.28c0 .23-.28.25-.57.29a21.31 21.31 0 01-1.47 2.39h3.4v2.27H165a9.62 9.62 0 00.82 1.26zm-4.93 3.91a13.83 13.83 0 01-1.64-1.62h-5.61a12.52 12.52 0 01-1.49 1.62zm-3.17-3.91a11.19 11.19 0 01-.63-1.26h-1.33c-.1.23-.23.53-.6 1.26zM65.12 15.54a4.38 4.38 0 01-.26 1.46 4 4 0 01-.86 1.35 4.2 4.2 0 01-1.56 1 6.28 6.28 0 01-2.31.39h-2.65v5.08H53.4V11.28h6.76a6.28 6.28 0 012.31.39 4.23 4.23 0 011.56 1 3.92 3.92 0 01.83 1.33 4.55 4.55 0 01.26 1.54zm-4.16 0a1.42 1.42 0 00-.57-1.32 4.15 4.15 0 00-2-.36h-.86v3.26h.88a6.89 6.89 0 001.51-.12 1.23 1.23 0 00.79-.47 1.59 1.59 0 00.29-.97zm19.53 3.21a6.32 6.32 0 01-.65 3 5.29 5.29 0 01-1.72 1.93 7.27 7.27 0 01-2.31 1 9.94 9.94 0 01-5.81-.27 6 6 0 01-2.72-2 5.76 5.76 0 01-1.09-3.66v-7.47h4.07v6.42a5.43 5.43 0 00.39 2.21 2.64 2.64 0 001.07 1.28 3.15 3.15 0 001.63.4 3.08 3.08 0 001.59-.4A2.64 2.64 0 0076 19.92a5.39 5.39 0 00.38-2.2v-6.44h4.09zM95.05 21a3.55 3.55 0 01-1.19 2.79 4.93 4.93 0 01-3.35 1.05h-7.82V11.28h6.54a8.46 8.46 0 012.21.25 4.38 4.38 0 011.52.66 2.74 2.74 0 01.86 1 2.78 2.78 0 01.29 1.26 3.35 3.35 0 01-1 2.4 2.61 2.61 0 01-.87.57 5.4 5.4 0 012.12 1.39 3.17 3.17 0 01.69 2.19zm-4.76-5.8a1.31 1.31 0 00-.65-1.3 4.65 4.65 0 00-2-.32h-.86v3.22h.88a4.77 4.77 0 002-.32 1.34 1.34 0 00.63-1.3zm.71 5.61q0-1.74-2.52-1.74h-1.71v3.47h1.66c1.68 0 2.57-.54 2.57-1.73zm16 4.01H96.67V11.28h4.08v10.29H107zm5.43 0h-4.08V11.28h4.08zM127 23.8a9.61 9.61 0 01-1.71.7 10.09 10.09 0 01-1.78.38 15.72 15.72 0 01-1.85.11 9.5 9.5 0 01-3.17-.49 6.76 6.76 0 01-2.49-1.44 6.09 6.09 0 01-1.54-2.22A7.5 7.5 0 01114 18a7.26 7.26 0 01.6-3.06 6 6 0 011.7-2.19 7.4 7.4 0 012.48-1.28 10 10 0 012.93-.41 16.09 16.09 0 015.23 1v3.59a15.87 15.87 0 00-2-1 6.07 6.07 0 00-2.31-.41 5.31 5.31 0 00-2.21.47 4.1 4.1 0 00-1.65 1.34 3.42 3.42 0 00-.62 2 3.46 3.46 0 00.54 1.88 3.84 3.84 0 001.52 1.35 4.65 4.65 0 002.19.51 7.1 7.1 0 001.87-.24 8.88 8.88 0 001.48-.53 13.1 13.1 0 001.23-.7zm20.56-5.51a6.48 6.48 0 01-.75 3.34 7.15 7.15 0 01-1.79 2 6.38 6.38 0 01-4.02 1.19h-7.3V11.28h5.62a16.52 16.52 0 012.17.13 9.59 9.59 0 011.63.37 6.47 6.47 0 011.23.54 6.37 6.37 0 01.91.64 6 6 0 011.21 1.34 6.28 6.28 0 01.83 1.79 7.36 7.36 0 01.26 2.2zm-4.15-.17a4.56 4.56 0 00-.63-2.58 3.1 3.1 0 00-1.51-1.23 5.33 5.33 0 00-1.8-.31h-1.74v8h1.74a5 5 0 002.77-.76c.76-.5 1.17-1.54 1.17-3.12zm20.59 6.7h-4.18l-1.11-2.75h-5.88l-1.12 2.75h-4.18l6-13.54H158zm-6.23-5.1l-2-4.94-2 4.94zM178 11.28l-5.31 7.34v6.2h-4.08v-6.13l-5.4-7.41h4.24l3.1 4.26 3.12-4.26zm10.22 9.6a3.75 3.75 0 01-.64 2.2 4.14 4.14 0 01-1.82 1.42 6.71 6.71 0 01-2.66.49h-1a12.62 12.62 0 01-1.62-.3 12.26 12.26 0 01-2.11-.72V20.6a15.66 15.66 0 002 1 5.38 5.38 0 002.12.42 1.84 1.84 0 001.35-.34 1 1 0 00.31-.65 1.11 1.11 0 00-.52-.93 7.53 7.53 0 00-1.54-.77 13.57 13.57 0 01-2-1 4.54 4.54 0 01-1.33-1.33 3.49 3.49 0 01-.54-2 3.6 3.6 0 012.18-3.39 6.28 6.28 0 012.7-.52 9.18 9.18 0 012.09.22 8.9 8.9 0 011.59.49 5.51 5.51 0 01.86.43v3.17a11.32 11.32 0 00-1.85-1.06 5.21 5.21 0 00-2.18-.47 1.74 1.74 0 00-1.11.29.92.92 0 00-.34.72.89.89 0 00.34.7 6.55 6.55 0 001.22.71 24.46 24.46 0 012.5 1.32 4.82 4.82 0 011.47 1.39 3.23 3.23 0 01.53 1.88zM15 0v20l10-10 10 9V0H15zm5 35h200v1H20zM10 78h220v35H10z" fill="#fff"/><path class="cls-1" d="M99.85 85.89v2.19H88.11v-2.19zm6.42 5.28a4.49 4.49 0 002-.94 7.69 7.69 0 01-1.12-1.57l.85-.6h-1.1v-1.73h5l.61.68a10.14 10.14 0 01-1.79 3.25 6 6 0 002.22 1 9.05 9.05 0 00-.94 1.56 12.2 12.2 0 01-2.45-1.41 6.77 6.77 0 01-2.33 1.34 4.71 4.71 0 00-1-1.52v.42c0 1.08-.74 1.17-2.26 1.18a6.13 6.13 0 00-.59-1.75 4 4 0 00.9.13c.44 0 .44-.17.44-.55v-3.12a1.87 1.87 0 01-.35 0v3.11h-1.08v-3h-.26a15.72 15.72 0 01-.89 5 2.73 2.73 0 00-1.56-.75 12.32 12.32 0 00.93-4.1.35.35 0 01-.14 0c-.09.17-.17.27-.27.27a.14.14 0 01-.13-.13l-.3-1.74h.8v-4.08h1.23c.09-.22.3-.75.46-1.3l1.93.18c.08 0 .13.07.13.12s-.24.26-.33.29c-.09.19-.22.52-.31.71h1.65v3a3.09 3.09 0 001-2.45v-1.42h4.06v2.83c0 .15 0 .25.14.25s.31-.74.35-1.14a3.25 3.25 0 001.5.67c-.25 1.68-.45 2-1.34 2h-1.32a1 1 0 01-1-1.07v-1.93H109a5.18 5.18 0 01-1.43 3.36 3.34 3.34 0 00-1.3-.78V86h.47c0 .27 0 1.1-.07 1.43h-.4zm-3.2-7.07l1.25-.24a18.08 18.08 0 01.44 1.76V83.7h-1.69zm0 2.1c.43 0 1.25-.07 1.69-.11v-.39a7.8 7.8 0 00-1.31.26 8.66 8.66 0 00-.38-1.59zm5.74 1.86a4.4 4.4 0 00.65 1 4.44 4.44 0 00.62-1zm10.27-5.4a.19.19 0 01.1.16c0 .11-.09.13-.15.16l-.24.07a13.13 13.13 0 01-3.55 4.61 4.31 4.31 0 00-1.6-1.33 9.63 9.63 0 003.6-4.59zm2.92 4.21a30.32 30.32 0 013.4 5 4.9 4.9 0 00-1.82 1.07 11.08 11.08 0 00-.56-1.14c-2.89.41-5.9.65-7.24.74 0 .09 0 .35-.24.35s-.18-.09-.22-.29l-.44-1.9h1.4a42.84 42.84 0 002.41-6l2 .68c.06 0 .18.06.18.19s-.26.2-.39.21c-.26.65-1.12 2.83-2.14 4.8.32 0 2.36-.18 3.73-.35-.74-1.11-1.16-1.64-1.61-2.21zm1-5.57c.37 2.33 1.47 3.5 3.39 4.84a3.44 3.44 0 00-1.39 1.39 9.28 9.28 0 01-3.67-4.53h-1.93v-1.7zm12.18 8.45v2.8h-1.65v-2.8h-1a4.89 4.89 0 01-2 3.07 4 4 0 00-1.45-1v.94h-1.86V81.23h5.44v4.52h-3.58v6.1a3.06 3.06 0 001.79-2.1h-1.34v-1.44h1.51v-.77h-1.19v-1.36h6.3v1.36h-1v.77h1.3v1.44zM131 82.51h-1.84V83H131zm0 1.49h-1.84v.5H131zm2.56 3.56h-.8v.77h.83zm2.79 5.31a4.66 4.66 0 00-.69-1.9 3.54 3.54 0 00.75.1c.25 0 .52 0 .52-.45v-4.87h-3.61v-4.52h5.47v10.11c-.03 1.21-.79 1.52-2.47 1.51zm.58-10.34H135V83h1.87zm0 1.47H135v.5h1.87zm9.24 6.64a4.16 4.16 0 003.65-4.06 3.08 3.08 0 00-3-3.18c-.4 4.75-2.37 8.3-3.74 8.3-1 0-2.9-1.71-2.9-4.12a6.38 6.38 0 016.37-6.06 5.06 5.06 0 015.33 5 6.09 6.09 0 01-1.54 4 7.15 7.15 0 01-2.82 1.88 8.46 8.46 0 00-1.35-1.76zm-4.07-3.21c0 1 .56 1.75.83 1.75s.56-.58.7-.92a11.3 11.3 0 001-4.47 4.43 4.43 0 00-2.53 3.64zM48.15 99.85v-.86h-2.87v-1.91h5c0 .34-.09 1.83-.09 2.13a9.53 9.53 0 004.77 8.35 5.14 5.14 0 00-1.7 1.42 12.3 12.3 0 01-4.71-6.55A11.79 11.79 0 0143.6 109a5.63 5.63 0 00-1.6-1.46 9.85 9.85 0 005-7.89zm12.96 5.4a9.31 9.31 0 01-1.53 1.57 3.21 3.21 0 00-1.23-.87c.24-.18.43-.33.73-.59-.8.35-1.79.73-2.85 1.08 0 .16 0 .34-.19.34s-.18-.17-.21-.3l-.44-1.83a10.34 10.34 0 001.47-.27v-3h-1.34v-1.65h1.34V97l1.92.1c.16 0 .28 0 .28.15s-.08.15-.28.24v2.21h1.16v1.69h-1.16v2.37l.82-.35h-.09v-1.31h7.88v1.31h-5l-.25.42h5.16c0 1.31 0 3.91-.89 4.57a3.61 3.61 0 01-2.14.43 4 4 0 00-.35-1.4 10.13 10.13 0 01-1.55 1.62 3.27 3.27 0 00-1.38-.83 9.07 9.07 0 002.75-3h-.59a9.07 9.07 0 01-3.42 3.44 3.38 3.38 0 00-1.14-1 8 8 0 003-2.4zm-1.18-1.81a5.09 5.09 0 00-.09 1.16 9.63 9.63 0 00.79-1.16zm6.55-1.74h-6.07v-4.58h6.07zm-1.76-2.79v-.44h-2.56v.44zm-2.56 1v.45h2.56V100zm3.07 5.3a13 13 0 01-1 1.8 3.55 3.55 0 00.46 0c.26 0 .49 0 .58-.33a6.5 6.5 0 00.24-1.5zm15.16-3.8v1.64h-1.47a5.46 5.46 0 001.81 1 5.25 5.25 0 00-1.08 1.4 5.82 5.82 0 01-1.43-.8c0 1-.16 3.15-.73 3.66a3.78 3.78 0 01-2.41.49 2.72 2.72 0 00-.51-1.79c.42 0 .67.06.84.06.52 0 .9 0 1-1.6H75a5.85 5.85 0 01-5 3.43 3.47 3.47 0 00-.87-1.62c1.57-.11 3-.46 3.81-1.81h-1.76v-.77a7.68 7.68 0 01-1.74 1 5.09 5.09 0 00-1.26-1.37 8.16 8.16 0 002.32-1.22h-1.92v-1.64h3.35c.13-.22.2-.38.31-.61h-2.72v-1.62h1.11a6.2 6.2 0 00-1.2-1.48l1.66-.83a8 8 0 011.51 1.82 7.69 7.69 0 00-1 .49h1.24a9.61 9.61 0 00.39-2.33l2 .16c.07 0 .2 0 .2.16s-.14.16-.34.24c-.08.5-.17 1-.35 1.77h2c-.33-.14-.72-.29-1-.39a6.82 6.82 0 001.06-2l1.88.72s.14.08.14.15-.1.16-.36.19a12.25 12.25 0 01-.78 1.31h1.87v1.56h-2.6a7.1 7.1 0 00.39.61zm-3.21 2.39c-.44-.4-.69-.69-.76-.75h-3.53a9.37 9.37 0 01-.68.75zm-1.85-2.39a5.29 5.29 0 01-.28-.61h-.82c-.07.16-.13.31-.29.61zm10.08-2.78a12.47 12.47 0 011.44 1.37 3.5 3.5 0 00-.94.86h2.71v-.43h-1.76v-1.05h1.76V99h-2.54v-1.28h2.54v-.83l1.93.11c.12 0 .25 0 .25.17s-.11.2-.25.26v.29h2.81V99h-2.81v.43h2.07v1.07h-2.07v.43h3.07v1.21h-7.94v-1a4.57 4.57 0 00-.55-.72v8.44h-1.89v-9a.43.43 0 01-.21.06 16.55 16.55 0 01-.53 3.08 5.4 5.4 0 00-1.46-.61 11.07 11.07 0 00.53-3.16l1.5.19h.17v-2.48l2 .1c.08 0 .22 0 .22.17s-.15.24-.34.31v1.34zm2.86 8.22v2h-1.91v-6.25h6.69v4.84c0 .94 0 1.56-2.39 1.49a4.23 4.23 0 00-.66-1.65c.41.06.8.09.88.09.29 0 .29-.07.29-.48zm2.9-2.61v-.54h-2.9v.54zm0 1.58v-.55h-2.9v.55zm7.25-.77h1.78v1.54h-1.78v2.3h-1.74v-2.3h-1.8v-1.54h1.8v-.62h-2v-1.54h.76a4.64 4.64 0 00-.37-1l1-.28h-1.63v-1.53h2.24v-.61h-1.6v-1.41h1.6V97l1.83.09c.09 0 .18.05.18.14s-.13.21-.27.3v.55h1.68v1.45h-1.68v.61h2v1.53h-1.5l.88.18c.11 0 .23 0 .23.18s-.1.18-.34.19a5.93 5.93 0 01-.29.69h.93v1.54h-1.9zm-1.63-3.4a8.11 8.11 0 01.45 1.1l-.46.14h1a6.92 6.92 0 00.41-1.24zm5.75 7.24h-1.82V97.23h5.33a26.17 26.17 0 01-.08 3.31c-.15.86-1 1.11-2.35 1.12a3.8 3.8 0 00-.69-1.8 2.67 2.67 0 00.82.09c.44 0 .49-.09.49-.58v-.51h-1.7v3.08h3.06l.87.91a17.24 17.24 0 01-1.26 3.49 7.43 7.43 0 001.53 1.44 6.35 6.35 0 00-1.44 1.22 13.3 13.3 0 01-1-1.06 5.62 5.62 0 01-.78.93 5.36 5.36 0 00-.94-.75zm1.12-5.27a6 6 0 00.4 1.18 6.51 6.51 0 00.39-1.24h-1.91v.76zm-1.12 3.75a8.86 8.86 0 00.65-.9 8.12 8.12 0 01-.65-1.43zM110.9 98c.1 0 .17.09.17.18s-.25.18-.36.19a17.78 17.78 0 00-.79 5 8.76 8.76 0 00.1 1.3l.61-.92a5.67 5.67 0 00.93 1.28 5.81 5.81 0 00-1.08 3.19l-1.74.32a18.42 18.42 0 01-.7-5.24 23.3 23.3 0 01.78-6zm6.18-.29c.06 0 .16 0 .16.14s-.18.2-.29.21a12.14 12.14 0 00-.13 1.56 11.26 11.26 0 001.92-.48v2c-.3.08-.9.22-2 .42a20.56 20.56 0 00.21 3 7.26 7.26 0 012.47 1.34c-.21.38-.6 1.22-.88 1.83a4.89 4.89 0 00-1.39-1c-.06 1.67-1.72 1.86-2.54 1.86-1.95 0-2.92-1.06-2.92-2.27 0-1.55 1.53-2.13 3.22-2.1-.1-1.48-.12-1.65-.14-2.4-.74.06-1.28.06-1.5.06h-1v-2a12.9 12.9 0 002.44.1v-2.54zm-2.7 8.06c-.28 0-.91.09-.91.49s.43.49.85.49c.1 0 .88 0 .88-.64a.44.44 0 000-.17 1.79 1.79 0 00-.82-.2zm10.38-1.97a3.43 3.43 0 00-1.17 1.64.51.51 0 00.26.42 8.28 8.28 0 002.58.28 16.82 16.82 0 005-.65 14.32 14.32 0 00.38 2.16 27.65 27.65 0 01-5.51.52c-3 0-4.89-.54-4.89-2.52 0-1.12.91-2.11 1.94-3zm6.24-4.53a12.45 12.45 0 00-4.09 2.57l-1.16-1.3a4.93 4.93 0 00.92-.78c-.32 0-1.13.08-2.31.08a15.14 15.14 0 01-1.76-.08l-.1-2.14a23.1 23.1 0 003.93.28 18.05 18.05 0 003.52-.28zm8.83-1.91c.1 0 .24.07.24.2s-.06.17-.28.18l-.38 1.17a20 20 0 004.24-1c.06.43.23 1.42.36 1.94a23 23 0 01-5.32 1.1c-.31.86-.41 1.12-.67 1.76a7.53 7.53 0 013.38-.89c3.47 0 3.65 2.44 3.65 3.1a3.2 3.2 0 01-1.39 2.62c-.69.47-2 1.25-5.59 1.25a10.62 10.62 0 01-1.21-.07 9.4 9.4 0 00-.48-1.93 19.25 19.25 0 001.94.11 8.81 8.81 0 003.86-.79 1.31 1.31 0 00.7-1.22c0-.75-.39-1.39-1.59-1.39a6.64 6.64 0 00-4.49 2.17l-1.88-.94a17.94 17.94 0 001.73-3.65c-1.13 0-2 0-2.52-.08v-2.13a11.9 11.9 0 003.15.29 18.81 18.81 0 00.5-2.31zm11.63 2.54c.09 0 .2 0 .2.17s-.16.17-.3.18a8.46 8.46 0 00-.86 2.25 7.22 7.22 0 013.79-1.21 3.16 3.16 0 013.33 3.2c0 2.49-2.34 4.19-6.64 4.19h-.95a7.39 7.39 0 00-.61-2.18 7.57 7.57 0 001.92.19c2.95 0 4.12-1.1 4.12-2.19 0-.38-.18-1.33-1.52-1.33a6 6 0 00-4.14 2.13l-1.86-.67a30.23 30.23 0 011.36-5.39zm-.71-3a13.3 13.3 0 014.36 1.44 16.89 16.89 0 00-1.17 1.9 11.78 11.78 0 00-3.87-1.6zm15.05.75c.14 0 .26.08.26.2s-.27.21-.35.21c-.2.88-.28 1.22-.37 1.56 1.12 0 3 0 3 3.18a8.63 8.63 0 01-1.3 4.81 2.22 2.22 0 01-1.92.91 7 7 0 01-1.38-.14 4.59 4.59 0 000-.48 9.24 9.24 0 00-.2-1.74 2.17 2.17 0 001.13.28 1 1 0 00.77-.24 5.72 5.72 0 00.86-3.46c0-1.34-.94-1.26-1.5-1.22a19.43 19.43 0 01-3.3 6.86 9.44 9.44 0 00-1.91-1 15.61 15.61 0 003.1-5.44 12.66 12.66 0 00-2.07.66l-.72-2.09c.54-.11 2.85-.59 3.33-.67a19.92 19.92 0 00.4-2.84zm3.51.68a9.15 9.15 0 012.34 4.8 1.34 1.34 0 01-.92 1.38 5.57 5.57 0 01-1.3.4 10.18 10.18 0 00-.76-1.74c.35-.08.83-.19.83-.6a5.12 5.12 0 00-.67-1.78 9.46 9.46 0 00-1.11-1.45zm8.15 1.57c.09 0 .2 0 .2.17s-.16.17-.3.18a8.46 8.46 0 00-.86 2.25 7.22 7.22 0 013.79-1.21 3.16 3.16 0 013.33 3.2c0 2.49-2.34 4.19-6.64 4.19h-.95a7.39 7.39 0 00-.61-2.18 7.57 7.57 0 001.92.19c2.95 0 4.12-1.1 4.12-2.19 0-.38-.18-1.33-1.52-1.33a6 6 0 00-4.14 2.13l-1.86-.67a30.23 30.23 0 011.36-5.39zm-.71-3a13.3 13.3 0 014.36 1.44 16.89 16.89 0 00-1.17 1.9 11.78 11.78 0 00-3.87-1.6zm15.84.74v3l-.47 3.82h-1.24l-.49-3.82v-3zm-2.18 8h2.18v2.2h-2.18z"/></g></g></svg>