<svg xmlns="http://www.w3.org/2000/svg" width="240" height="120"><defs><style>.cls-1{fill:#00b4dc}</style></defs><g id="レイヤー_2" data-name="レイヤー 2"><g id="レイヤー_1-2" data-name="レイヤー 1"><rect class="cls-1" width="240" height="120" rx="6.12"/><path d="M69.25 56.19v1.88h-1v3.33h-3v-.64H61.6V62c0 1-.26 1.72-3.24 1.72H57.3a7.53 7.53 0 00-.94-2.5 15.84 15.84 0 001.7.16c.58 0 .58-.2.58-.62h-6.25v-2h6.25v-.68H51v-1.89h7.63v-.64h-6.24v-1.76h6.25v-.56h-5.09v-4.07h5.09v-.56H51v-2.1h7.63v-1.1l3.1.12a.27.27 0 01.3.26c0 .18-.12.22-.44.38v.34h7.57v2.1H61.6v.56h5v4.07h-5v.56h6.65v2.4zm-10.61-4.64v-.78H56.2v.78zm3-.78v.78H64v-.78zm3.68 5.42v-.64H61.6v.64zm0 2.56v-.68H61.6v.68zM81.2 48.1a15.14 15.14 0 001.72-2.82l3 .76c.14 0 .28.1.28.24s-.28.32-.58.28c-.52.82-.72 1.16-1 1.54h4.59v2.51H71V48.1h4.4a9.18 9.18 0 00-1.14-1.7l2.7-1.22a13.41 13.41 0 011.63 2.5l-1.09.42zm-6.43 11.29v4.33H72V51.27h8v10.49c0 1.64-.86 1.88-3.51 2a5.77 5.77 0 00-1-2.84c.3 0 .9.09 1.2.09s.6 0 .6-.64v-.94zm2.44-5.08v-.88h-2.44v.88zm0 3v-.9h-2.44v.9zM84 51.59c.18 0 .3.06.3.2s-.12.22-.3.34v8h-2.84v-8.66zm4.23-.42c.18 0 .36 0 .36.22s-.22.26-.48.4v9.55a1.89 1.89 0 01-.87 1.94c-.72.48-1.58.46-3.24.44a7.5 7.5 0 00-.66-3c.34 0 1.08.14 1.38.14.5 0 .5-.32.5-.56V51zm13.69.02L100 62.24h-4l-3.67-15.78h3.58l2.24 11.71 2-11.71h3.6l2 11.71 2.24-11.71h3.59l-3.63 15.78h-4.15zm24.38 8.22v2.83h-12.93V46.46H126v2.82h-9v3.55h8v2.7h-8v3.88zm2.18 2.83V46.46H137c3.08 0 5 1.68 5 4a3.26 3.26 0 01-2.39 3.26 4 4 0 011.52.72 3.83 3.83 0 011.51 3.18c0 2.71-2.13 4.57-5.19 4.57zm3.61-9.24h4.08a1.84 1.84 0 001.92-2 1.72 1.72 0 00-1.92-1.83h-4.08zm0 6.46h4.06c1.28 0 2.56-.58 2.56-2.18 0-1.76-1.56-2-2.56-2h-4.06zm20.07-.15v-4.66a11.2 11.2 0 01-1.62 1.1 9.94 9.94 0 00-2-2.22 14 14 0 002.54-1.74 14.4 14.4 0 00-1.64-1.28l1.92-2a12.17 12.17 0 011.81 1.27 6 6 0 001.2-1.67h-3.71v-2.35h6.91l.9 1a16.63 16.63 0 01-1.92 3.41h4.1a13.25 13.25 0 01-2.36-4l2.54-1a12.14 12.14 0 00.86 1.66 10.25 10.25 0 001.23-1.52l2.1 1.32c.08 0 .22.14.22.24s-.34.26-.54.26c-.66.84-1.2 1.46-1.44 1.7.22.26.38.42.54.58a25 25 0 001.82-2.16l1.86 1.26c.16.12.36.24.36.38s-.3.28-.6.3a15.53 15.53 0 01-1.72 1.81 13.82 13.82 0 002.82 1.86 9.8 9.8 0 00-1.84 2.38 21.89 21.89 0 01-1.82-1.24v5.34h-1.44c.14.06.22.14.22.28s-.2.32-.43.34a8.08 8.08 0 01-.41 1.11h4.9v2.42h-18.18V61h5.11c-.08-.24-.38-1-.56-1.47l1-.26zm3-7.42c-.52.56-.72.78-1.62 1.62h10.56a19.6 19.6 0 01-2.1-1.88v1h-6.86zm-.1 3.86V57h6.74v-1.25zm1.88 3.56c.18.44.32.78.56 1.53l-.72.2h2.7a15.84 15.84 0 00.6-1.73zm19.41-6.62h-1.46v1h2v2.54h-2V59a12 12 0 00.7-2.38l2.28.46c.12 0 .3.06.3.26s-.3.28-.58.3c-.08.3-.12.4-.4 1.24a23.58 23.58 0 004-1.42v-3.29h-1.42a20 20 0 011.4 2.56 19.17 19.17 0 00-2.17 1.42 16.65 16.65 0 00-1.44-2.72l2-1.26h-2.28v-2.36h6.31V51h-5.07v-2.14h5.07v-.76h-6v-2.44h8.89v6.15h1.22v2.36h-2.38l2.22 1.08a.33.33 0 01.22.28c0 .2-.14.24-.52.3a18.21 18.21 0 01-1.62 2.38 14.83 14.83 0 002.5 2 9.89 9.89 0 00-1.64 2.55 17.74 17.74 0 01-2.69-2.72v1.7c0 2-1.3 2-3.68 2a9.15 9.15 0 00-1-2.7c-.2.1-.26.12-.54.24 0 .38-.06.72-.4.72a.32.32 0 01-.24-.22l-.72-2.89a9.64 9.64 0 01-.42 1 7.86 7.86 0 00-1.88-.46v.93c1.46-.29 1.88-.39 2.26-.49a8.18 8.18 0 00-.26 2.51c-2.54.56-4.61.9-6.55 1.18 0 .3-.1.56-.38.56s-.22-.16-.24-.3l-.46-2.76c.82 0 2.22-.2 3-.28v-.93a12.38 12.38 0 00-2.1.73 18.73 18.73 0 00-1-3.07l2.26-.72a22.77 22.77 0 01.86 2.44v-3h-2.7v-2.5h2.62v-1h-1.56v-.76a7.17 7.17 0 00-2.1-2 9.17 9.17 0 003.84-4.46l2.85.56c.22 0 .3.1.3.22s-.22.34-.46.36A15.06 15.06 0 00178 49.4a8.08 8.08 0 00-1.64 1.31zm-1.18-2.34a10 10 0 01-1.51-1.81c-.46.62-.78 1-1.42 1.81zm6 9.64c-.5.28-1.24.69-1.84.95.18 0 1.14.12 1.26.12.58 0 .58-.41.58-.65zm2.62-4.14l.15.26a11.24 11.24 0 001.06-1.94h-1.21zM60.18 21A3.52 3.52 0 0159 23.77a4.88 4.88 0 01-3.34 1.05h-7.84V11.28h6.54a8.51 8.51 0 012.21.25 4.38 4.38 0 011.52.66 2.84 2.84 0 01.86 1 2.77 2.77 0 01.28 1.26 3.3 3.3 0 01-.29 1.37 3.34 3.34 0 01-.73 1 2.71 2.71 0 01-.87.57 5.35 5.35 0 012.11 1.39 3.12 3.12 0 01.73 2.22zm-4.77-5.8a1.3 1.3 0 00-.64-1.3 4.65 4.65 0 00-2-.32h-.87v3.22h.88a4.68 4.68 0 002-.32 1.32 1.32 0 00.63-1.3zm.67 5.63q0-1.74-2.52-1.74H51.9v3.47h1.66c1.68-.02 2.52-.56 2.52-1.75zm19.82-2.08a6.32 6.32 0 01-.65 3 5.2 5.2 0 01-1.72 1.93 7.32 7.32 0 01-2.3 1 10 10 0 01-2.47.31 9.74 9.74 0 01-3.34-.58 5.86 5.86 0 01-2.72-2 5.76 5.76 0 01-1.1-3.66v-7.47h4.07v6.42a5.43 5.43 0 00.39 2.21 2.69 2.69 0 001.07 1.28 3.15 3.15 0 001.63.4 3.08 3.08 0 001.59-.4 2.64 2.64 0 001.08-1.27 5.38 5.38 0 00.39-2.2v-6.44h4.08zm15.4-7.47L86 18.62v6.2h-4.08v-6.13l-5.4-7.41h4.24l3.1 4.26L87 11.28zm11.03 13.54H92.12V11.28h10V14h-6v2.48h5.69v2.72H96.2v2.89h6.13zm14.84 0h-4.39l-1.06-2.41a10 10 0 00-1.06-1.92 2.29 2.29 0 00-.91-.79 3.36 3.36 0 00-1.15-.17h-.46v5.29h-4.08V11.28H111a5.13 5.13 0 012.76.68 4.22 4.22 0 011.55 1.66 4.37 4.37 0 01.47 1.86 3.43 3.43 0 01-.4 1.73 3 3 0 01-.83 1 7.66 7.66 0 01-1 .62 3.71 3.71 0 011.08.9 11.84 11.84 0 011.16 2.12zm-5.55-9.26a1.4 1.4 0 00-.62-1.31 4 4 0 00-2-.37h-.86v3.26h.86a4.39 4.39 0 002-.33 1.31 1.31 0 00.62-1.25zm10-1.39a3.78 3.78 0 01-.25 1.34 4.44 4.44 0 01-.81 1.31 4.64 4.64 0 01-1.45 1.05 6.67 6.67 0 01-2.08.61v-.63a2.44 2.44 0 001.53-2.58v-.21a1.86 1.86 0 01-1.56-1.92 2 2 0 01.27-1 2.05 2.05 0 011.81-1 2.2 2.2 0 011.4.45 2.72 2.72 0 01.84 1.18 4 4 0 01.3 1.4zm10.9 6.71a3.76 3.76 0 01-.65 2.2 4.11 4.11 0 01-1.81 1.42 6.76 6.76 0 01-2.67.49h-1a13.27 13.27 0 01-1.62-.3 12.46 12.46 0 01-2.1-.72V20.6a14.94 14.94 0 002 1 5.4 5.4 0 002.13.42 1.88 1.88 0 001.35-.34 1.07 1.07 0 00.31-.65 1.12 1.12 0 00-.53-.93 7.16 7.16 0 00-1.53-.77 13.2 13.2 0 01-2-1 4.66 4.66 0 01-1.35-1.33 3.57 3.57 0 01-.53-2 3.73 3.73 0 01.54-2 3.65 3.65 0 011.64-1.41 6.21 6.21 0 012.69-.52 9.21 9.21 0 012.1.22 8.52 8.52 0 011.58.49 5.07 5.07 0 01.86.43v3.17a11.32 11.32 0 00-1.85-1.06 5.17 5.17 0 00-2.18-.47 1.69 1.69 0 00-1.1.29.92.92 0 00-.34.72.89.89 0 00.34.7 5.92 5.92 0 001.22.71 25.58 25.58 0 012.5 1.32A5.07 5.07 0 01132 19a3.31 3.31 0 01.52 1.88zm20.63-2.59a6.48 6.48 0 01-.76 3.34 7.12 7.12 0 01-1.78 2 6.4 6.4 0 01-4.07 1.15h-7.31v-13.5h5.63a16.63 16.63 0 012.17.13 9.69 9.69 0 011.62.37 6 6 0 011.23.54 5.85 5.85 0 01.91.64A6 6 0 01152 14.3a6.57 6.57 0 01.83 1.79 7.69 7.69 0 01.32 2.2zm-4.15-.17a4.56 4.56 0 00-.63-2.58 3.12 3.12 0 00-1.52-1.23 5.33 5.33 0 00-1.8-.31h-1.74v8h1.74a4.94 4.94 0 002.77-.76c.79-.5 1.18-1.54 1.18-3.12zm20.53 6.7h-4.18l-1.1-2.75h-5.88l-1.13 2.75h-4.18l6-13.54h4.51zm-6.22-5.1l-2-4.94-2 4.94zm20.22-8.44l-5.3 7.34v6.2h-4.09v-6.13l-5.4-7.41H173l3.11 4.26 3.11-4.26zm10.28 9.6a3.76 3.76 0 01-.65 2.2 4.11 4.11 0 01-1.81 1.42 6.8 6.8 0 01-2.67.49h-1a12.62 12.62 0 01-1.62-.3 12.17 12.17 0 01-2.1-.72V20.6a14.94 14.94 0 002 1 5.4 5.4 0 002.13.42 1.88 1.88 0 001.35-.34 1.07 1.07 0 00.31-.65 1.12 1.12 0 00-.53-.93 7.16 7.16 0 00-1.53-.77 13.2 13.2 0 01-2-1 4.66 4.66 0 01-1.35-1.33 3.57 3.57 0 01-.53-2 3.73 3.73 0 01.54-2 3.65 3.65 0 011.65-1.38 6.21 6.21 0 012.69-.52 9.21 9.21 0 012.1.22 8.52 8.52 0 011.58.49 5.07 5.07 0 01.86.43v3.17a11.32 11.32 0 00-1.85-1.06 5.21 5.21 0 00-2.18-.47 1.69 1.69 0 00-1.1.29.93.93 0 00-.35.72.9.9 0 00.35.7 5.92 5.92 0 001.22.71 25.58 25.58 0 012.5 1.32 5.07 5.07 0 011.46 1.38 3.31 3.31 0 01.53 1.88zM15 0v20l10-10 10 9V0H15zm5 35h200v1H20zM10 78.3h220v35H10z" fill="#fff"/><path class="cls-1" d="M80.31 98.28v-3a7 7 0 01-1 .72A6.12 6.12 0 0078 94.52a8.59 8.59 0 001.65-1.13 9.86 9.86 0 00-1.06-.83l1.25-1.27a9.09 9.09 0 011.16.81 4 4 0 00.76-1.1h-2.41v-1.52h4.49l.58.62a9.83 9.83 0 01-1.25 2.21h2.67a8.56 8.56 0 01-1.54-2.56l1.7-.62a7.9 7.9 0 00.55 1.08 7 7 0 00.8-1l1.36.86c.06 0 .15.09.15.15s-.23.17-.35.17a14.43 14.43 0 01-.94 1.11 4.48 4.48 0 00.35.37 14 14 0 001.18-1.4l1.21.82c.11.08.24.15.24.25s-.2.18-.39.19A10.71 10.71 0 0189 92.91a8.94 8.94 0 001.83 1.21 6.06 6.06 0 00-1.19 1.55 14.51 14.51 0 01-1.2-.86v3.47h-.94c.09 0 .15.09.15.18s-.13.21-.28.22a4.32 4.32 0 01-.27.72h3.19v1.6H78.48v-1.6h3.32c-.06-.16-.25-.67-.37-1l.64-.17zm1.94-4.82c-.34.36-.47.5-1 1.05h6.86a13 13 0 01-1.35-1.22V94h-4.51zM82.19 96v.83h4.38V96zm1.22 2.31a9.89 9.89 0 01.36 1l-.47.13h1.76a10.22 10.22 0 00.39-1.12zM96 94h-1v.67h1.3v1.63H95v1.77a7.68 7.68 0 00.45-1.55l1.49.3c.07 0 .19 0 .19.17s-.19.19-.38.2a8.39 8.39 0 01-.26.8 14.77 14.77 0 002.59-.92v-2.13h-.92a13.47 13.47 0 01.91 1.66 14.27 14.27 0 00-1.41.93 10.5 10.5 0 00-.93-1.77l1.32-.82h-1.41V93.4h4.1v-.51h-3.29v-1.4h3.29V91h-3.92v-1.59h5.78v4h.79v1.54h-1.55l1.45.7s.14.08.14.18-.09.16-.34.2a11.76 11.76 0 01-1 1.54 9.54 9.54 0 001.62 1.32 6.24 6.24 0 00-1.06 1.65 11.27 11.27 0 01-1.75-1.77v1.11c0 1.28-.84 1.28-2.39 1.28a5.82 5.82 0 00-.66-1.75l-.35.15c0 .25 0 .47-.26.47a.22.22 0 01-.16-.14L96.56 98a6.33 6.33 0 01-.27.66 5.28 5.28 0 00-1.22-.3V99c1-.18 1.22-.25 1.47-.31a5.06 5.06 0 00-.17 1.62c-1.65.37-3 .59-4.25.77 0 .19-.07.36-.25.36s-.14-.1-.16-.19l-.29-1.8c.53 0 1.44-.13 1.92-.18v-.6a10.19 10.19 0 00-1.37.47 11.91 11.91 0 00-.66-2l1.47-.47a16.34 16.34 0 01.56 1.59V96.3h-1.7v-1.65h1.7V94h-1v-.5A4.56 4.56 0 0091 92.2a6.08 6.08 0 002.5-2.9l1.84.36c.15 0 .2.07.2.14s-.15.22-.3.24a10 10 0 001.88 1.81 5.1 5.1 0 00-1.06.84zm-.77-1.52a6.23 6.23 0 01-1-1.17c-.3.4-.51.67-.93 1.17zm3.9 6.26c-.32.18-.81.44-1.2.61l.82.08c.38 0 .38-.26.38-.41zm1.7-2.69l.1.17a6.88 6.88 0 00.68-1.26h-.78zm7.06.59h-1.2v-1.57h7l.66.83a9.08 9.08 0 01-2.22 2.7 14.12 14.12 0 004.26 1 4.87 4.87 0 00-.86 1.64 16.16 16.16 0 01-5-1.5 12.55 12.55 0 01-5.31 1.5 6.91 6.91 0 00-1-1.76 11.08 11.08 0 004.45-.81 8.78 8.78 0 01-1.6-1.45zm6.61-5.17a.14.14 0 01.12.15c0 .13-.19.19-.39.21a10.88 10.88 0 01-.68 1.16h2.7V96h-1.8v-1.6h-8.07V96h-1.85v-3h1.86c-.22-.33-.47-.65-.71-.95l1.06-.66H106a6.86 6.86 0 00-.88-1.87 26.84 26.84 0 003.43.22 15.86 15.86 0 005-.66l1.45 1.33a.22.22 0 01.08.16.2.2 0 01-.2.22 3.42 3.42 0 01-.47-.15 7.62 7.62 0 01-1.28.31zm-5.07-.13h-2.12a6.76 6.76 0 011 1.32l-.47.29h1.48a10.41 10.41 0 00-.78-1.13zm-.44 5.3a8.11 8.11 0 001.38 1 5 5 0 001.09-1zm2.69-3.64a9.9 9.9 0 001-2c-.18 0-1.22.16-2.38.26a10.58 10.58 0 011 1.35l-.53.35zm9.14 8.21h-2v-6a3.4 3.4 0 01-.45.5 5.7 5.7 0 00-1.43-1.36 12.12 12.12 0 003-5.33l1.78.65c.13 0 .25.09.25.19s-.17.17-.34.2c-.51 1.19-.55 1.28-.93 2.06.21.06.39.11.39.25s-.11.21-.27.26zm8.47-9.16v1.89h-1.23v5.39c0 1.5-.24 1.84-3 1.86a4.54 4.54 0 00-.86-2.1 6.31 6.31 0 001.17.17c.61 0 .64-.17.64-.62v-4.7h-4.76v-1.89h4.76v-2.91l2 .08c.16 0 .35 0 .35.17s-.15.19-.35.27v2.39zm-5.84 2.58a9.83 9.83 0 011.79 2.93 19 19 0 00-1.79 1 11.85 11.85 0 00-1.78-3zm13.95 6.52h-2v-3.78h-2.64v.53h-2v-6.26h4.67v-2.4l2.15.12c.06 0 .2 0 .2.16s-.18.19-.37.22v1.9h4.66v6.26h-2v-.53h-2.67zm-2-7.75h-2.64v2.11h2.64zm2 2.11h2.67V93.4h-2.67zm13.09-5.58v3l-.49 3.85h-1.25l-.46-3.78v-3zm-2.19 8h2.19v2.2h-2.19z"/></g></g></svg>