<svg xmlns="http://www.w3.org/2000/svg" width="137.53" height="60"><g data-name="レイヤー 2"><path d="M117.53 0l20 30-20 30H6.28A6.28 6.28 0 010 53.72V6.28A6.28 6.28 0 016.28 0z" fill="#3c82c8"/><path d="M39.2 15.47c.15.06.29.1.29.29S39.2 16 39 16a19 19 0 01-.94 4.12 16.25 16.25 0 013.23 2.25A25.49 25.49 0 0039.6 25a14.22 14.22 0 00-2.6-2 15.1 15.1 0 01-4.75 5.61 8.25 8.25 0 00-2.31-1.91 11.69 11.69 0 004.68-5 19.66 19.66 0 00-4.28-1.47c-2.25 4.62-3.15 6.49-5.17 6.49a3.21 3.21 0 01-3.1-3.34c0-2.59 2.26-5.8 6.65-5.69.28-.67 1.45-3.66 1.7-4.24a39 39 0 01-4.83.9l-.6-3A20.12 20.12 0 0032.67 10l1.83 1.5a29.24 29.24 0 00-3.13 6.19 22.51 22.51 0 014.2 1.3 16.63 16.63 0 00.61-4.59zm-14.7 7.79c0 .73.49.75.53.75.67 0 2.18-3 2.52-3.82a3.07 3.07 0 00-3.05 3.07zm29.11-12.68c.14.06.31.14.31.33s-.27.23-.63.21c-.71 1.32-2.75 5.44-3.34 6.76a4.39 4.39 0 012.21-.48A2.54 2.54 0 0155 20.09a9.1 9.1 0 01-.19 1.74 10.29 10.29 0 00-.29 2.27c0 .5 0 1.28 1 1.28s3.51-1.83 4.79-3.66A16.36 16.36 0 0062.24 24c-.84 1-3.76 4.33-7.37 4.33a3 3 0 01-3.15-3.17c0-.65.35-3.55.35-4.14s-.21-1.11-1-1.11c-1.31 0-2.19 1.17-2.67 1.89a29.4 29.4 0 00-3 6.13l-2.9-1.25a141.45 141.45 0 007.2-14.59c.19-.44.95-2.46 1.11-2.86zM64.7 13a14.89 14.89 0 002.26.17 23.11 23.11 0 002.31-.17c.47-1.72.63-2.77.8-3.65l2.82.88c.27.08.37.17.37.32s-.29.25-.42.25c-.08.27-.44 1.49-.5 1.74a19.49 19.49 0 002.66-.73 18.74 18.74 0 000 2.69 28.67 28.67 0 01-3.53.76c-.57 1.66-2.58 7-4.77 10.1a14.76 14.76 0 00-2.64-1.1 32.71 32.71 0 004.39-8.62c-.74.06-2.38.08-3.45.12zm13.41 5.48a2.94 2.94 0 00-.86 2.12 13.42 13.42 0 00.23 2.23A22.39 22.39 0 0182 25.5a20.51 20.51 0 00-1.64 2.15 18.17 18.17 0 00-2.81-2c-.32 2.71-3 2.75-4.08 2.75-2.94 0-4.7-1.32-4.7-3.32 0-1.34.95-3.17 4-3.17a11.26 11.26 0 011.79.17 13.88 13.88 0 01-.15-1.83 4.13 4.13 0 011.47-3.08zM73 24c-.67 0-1.62.32-1.62 1.07 0 .95 1.31 1.08 1.85 1.08 1.6 0 1.72-.89 1.76-1.64A4.39 4.39 0 0073 24zm4-10.8a15.37 15.37 0 015.48 2.71c-.42.57-1.07 1.45-1.59 2.31a15 15 0 00-5.34-2.71zM89.85 11c.32.12.49.16.49.35s-.21.25-.53.3a26.85 26.85 0 00-1.38 8.71 11.25 11.25 0 00.19 2.31c.06-.17.69-1.6 1-2.18A5.19 5.19 0 0091.07 22a12.85 12.85 0 00-1.43 5.27l-2.52.73a21.68 21.68 0 01-1.4-8.15A42.38 42.38 0 0187 10zm5.5 9.8a5.17 5.17 0 00-.52 1.81c0 1.05 1 1.26 3.23 1.26a21.82 21.82 0 005.29-.57 11.75 11.75 0 00-.25 2.92 41.35 41.35 0 01-4.87.29c-4.2 0-6-.94-6-3a7.42 7.42 0 01.77-3.15zm-2.26-8.63c.59 0 1.32.11 2.5.11a25.36 25.36 0 006.41-.68 21.62 21.62 0 00.27 2.73 33.13 33.13 0 01-6.59.61c-1.16 0-1.91 0-2.54-.08zM24.57 38.21a26.33 26.33 0 015.1 2.85 16.41 16.41 0 00-1.77 2.4 18.94 18.94 0 00-4.9-2.88zm-.4 11.42a30 30 0 0015-11.38A9.24 9.24 0 0041 40.64 33.64 33.64 0 0126.35 52c0 .21-.1.51-.36.51s-.21-.11-.31-.3zm2.52-16.1a29.65 29.65 0 015.41 2.56c-.42.46-1.36 1.82-1.7 2.33a21.92 21.92 0 00-5.27-2.71zm28.09 14.88h6v2.4H46.45v-2.4h5.75v-7.2H48v-2.48h11.15v2.48h-4.37zm27.76-13.16a3.18 3.18 0 001.18-.19l2 1.82a9.92 9.92 0 00-.75 1 38.9 38.9 0 01-5.97 6.9 9.37 9.37 0 00-2.06-2A19.63 19.63 0 0081.49 38H67v-2.75zm-5.46 3.86c.15 0 .34 0 .34.21s-.25.38-.34.42A20.09 20.09 0 0176 45.91a12.79 12.79 0 01-5.37 6.22 15.5 15.5 0 00-2.48-1.87c3.13-1.76 6.28-4.14 5.88-11.34zm18.78 8.71v3.3h-3.19v-3.3zm-.11-13.24v5.12l-.63 6.19h-1.7l-.65-6.19v-5.12z" fill="#fff"/></g></svg>