<svg id="レイヤー_1" data-name="レイヤー 1" xmlns="http://www.w3.org/2000/svg" xmlns:xlink="http://www.w3.org/1999/xlink" viewBox="0 0 750 375"><defs><style>.cls-1{fill:none;}.cls-2{clip-path:url(#clip-path);}.cls-3{fill:#fff;}.cls-4{fill:#1d1d1b;}</style><clipPath id="clip-path"><rect class="cls-1" x="-7.94" y="2.6" width="996.26" height="376.81"/></clipPath></defs><g class="cls-2"><rect class="cls-3" x="-6.52" y="-93.74" width="997.91" height="577.13"/><polygon class="cls-4" points="97.41 -93.74 -6.52 10.49 -6.52 37.31 124.15 -93.74 97.41 -93.74"/><polygon class="cls-4" points="150.63 -93.74 82.47 -25.37 82.47 1.45 177.37 -93.74 150.63 -93.74"/><polygon class="cls-4" points="203.85 -93.74 -6.52 117.24 -6.52 144.06 230.59 -93.74 203.85 -93.74"/><polygon class="cls-4" points="257.07 -93.74 43.38 118.91 43.38 145.73 283.82 -93.74 257.07 -93.74"/><polygon class="cls-4" points="95.75 119.77 -6.52 223.99 -6.52 250.81 122.49 119.77 95.75 119.77"/><polygon class="cls-4" points="176.14 280.16 -43.4 500.34 -16.66 500.34 202.88 280.16 176.14 280.16"/><polyline class="cls-4" points="992.67 -203.58 992.67 -230.4 616.77 146.59 643.51 146.59"/><polygon class="cls-4" points="611.84 204.76 300.8 515.87 327.54 515.87 611.84 231.58 611.84 204.76"/><polygon class="cls-4" points="555.79 312.99 459.3 410.6 486.04 410.6 555.79 339.81 555.79 312.99"/><polygon class="cls-4" points="759.53 162.04 582.37 339.7 609.12 339.7 759.53 188.86 759.53 162.04"/><polygon class="cls-4" points="759.53 215.41 564.91 410.6 591.65 410.6 759.53 242.23 759.53 215.41"/><polygon class="cls-4" points="759.53 268.79 653.06 375.57 679.8 375.57 759.53 295.61 759.53 268.79"/><polygon class="cls-4" points="749.55 333.84 671.35 410.6 698.1 410.6 749.55 360.66 749.55 333.84"/></g></svg>