<svg xmlns="http://www.w3.org/2000/svg" width="32" height="32" viewBox="0 0 32 32"><defs><style>.cls-1{fill:#f6f7fc;opacity:0;}.cls-2{fill:#203864;}</style></defs><g id="最終形"><rect class="cls-1" width="32" height="32"/></g><g id="レイヤー_4" data-name="レイヤー 4"><path class="cls-2" d="M310.22,975.24a.51.51,0,0,1-.51.52h-7.17a1.54,1.54,0,0,1-1.54-1.54V956.29a.51.51,0,0,1,.15-.36l3.59-3.58a.48.48,0,0,1,.36-.15h13.83a1.53,1.53,0,0,1,1.53,1.53v11.78a.51.51,0,0,1-1,0V953.73a.51.51,0,0,0-.51-.51H305.31L302,956.5v17.72a.51.51,0,0,0,.52.51h7.17A.51.51,0,0,1,310.22,975.24Zm-3.59-20v2.56h-2.56a.51.51,0,0,0,0,1h3.08a.51.51,0,0,0,.51-.51v-3.07a.52.52,0,0,0-1,0ZM322,972.17a5.64,5.64,0,1,1-5.63-5.63A5.63,5.63,0,0,1,322,972.17Zm-3.07,2.05H313.8v1h5.13Zm0-3.07h-1.8v-2.56H315.6v2.56h-1.8l2.57,2.56Z" transform="translate(-294 -947)"/></g></svg>