<svg xmlns="http://www.w3.org/2000/svg" width="32" height="32" viewBox="0 0 32 32"><defs><style>.cls-1{fill:#f6f7fc;opacity:0;}.cls-2{fill:#203864;}</style></defs><g id="最終形"><rect class="cls-1" width="32" height="32"/></g><g id="レイヤー_4" data-name="レイヤー 4"><path class="cls-2" d="M211.94,953.13H188.06a1.56,1.56,0,0,0-1.56,1.56v16.62a1.56,1.56,0,0,0,1.56,1.56h23.88a1.56,1.56,0,0,0,1.56-1.56V954.69A1.56,1.56,0,0,0,211.94,953.13Zm-23.88,1h23.88a.52.52,0,0,1,.52.52v2.08H187.54v-2.08A.52.52,0,0,1,188.06,954.17Zm23.88,17.66H188.06a.52.52,0,0,1-.52-.52v-13.5h24.92v13.5A.52.52,0,0,1,211.94,971.83Zm-2.07-16.36a.77.77,0,0,1,.77-.78.78.78,0,1,1,0,1.56A.77.77,0,0,1,209.87,955.47Zm-2.08,0a.78.78,0,1,1,.78.78A.78.78,0,0,1,207.79,955.47Zm-2.08,0a.78.78,0,1,1,.78.78A.78.78,0,0,1,205.71,955.47Zm-2.66,9.23a.13.13,0,0,1,0,.23l-6,3.25a.12.12,0,0,1-.17-.12v-6.49a.12.12,0,0,1,.17-.12Z" transform="translate(-184 -947)"/></g></svg>