<svg id="最終形" xmlns="http://www.w3.org/2000/svg" width="32" height="32" viewBox="0 0 32 32"><defs><style>.cls-1{fill:#fff;opacity:0;}.cls-2{fill:#203864;}</style></defs><rect class="cls-1" width="32" height="32"/><path class="cls-2" d="M865,967a.5.5,0,0,1-1,0,3.29,3.29,0,0,0-3.5-3h-1a3.29,3.29,0,0,0-3.5,3,.5.5,0,0,1-1,0,4.27,4.27,0,0,1,4.5-4h1A4.27,4.27,0,0,1,865,967Zm-8-7.64a3,3,0,1,1,3,3A3,3,0,0,1,857,959.36Zm1,0a2,2,0,1,0,2-2A2,2,0,0,0,858,959.36ZM873,954v15a1.5,1.5,0,0,1-1.5,1.5h-11v2H864a.5.5,0,0,1,0,1h-8a.5.5,0,0,1,0-1h3.5v-2h-11A1.5,1.5,0,0,1,847,969V954a1.5,1.5,0,0,1,1.5-1.5h23A1.5,1.5,0,0,1,873,954Zm-1,0a.5.5,0,0,0-.5-.5h-23a.5.5,0,0,0-.5.5v15a.5.5,0,0,0,.5.5h23a.5.5,0,0,0,.5-.5Z" transform="translate(-844 -947)"/></svg>