<svg xmlns="http://www.w3.org/2000/svg" width="32" height="32" viewBox="0 0 32 32"><defs><style>.cls-1{fill:#f6f7fc;opacity:0;}.cls-2{fill:#203864;}</style></defs><g id="最終形"><rect class="cls-1" width="32" height="32"/></g><g id="レイヤー_4" data-name="レイヤー 4"><path class="cls-2" d="M535.79,975.11H521.58a1.58,1.58,0,0,1-1.58-1.58V952.47a1.58,1.58,0,0,1,1.58-1.58h16.84a1.58,1.58,0,0,1,1.58,1.58v18.42a.58.58,0,0,1-.15.38L536.16,975A.52.52,0,0,1,535.79,975.11ZM521.58,952a.52.52,0,0,0-.53.52v21.06a.52.52,0,0,0,.53.52h14l3.38-3.37V952.47a.52.52,0,0,0-.53-.52Zm17.89,18.94h0Zm-5.26,1.58v-2.63h2.63a.53.53,0,1,0,0-1.05h-3.16a.52.52,0,0,0-.52.53v3.15a.52.52,0,0,0,.52.53A.53.53,0,0,0,534.21,972.47Zm-4.74-12.6v-4.26a.5.5,0,0,0-.5-.5h-5.31a.5.5,0,0,0-.5.5v4.26a.5.5,0,0,0,.5.5H529A.5.5,0,0,0,529.47,959.87Zm7.37-4.24a.52.52,0,0,0-.52-.52h-5.27a.52.52,0,0,0-.52.52.52.52,0,0,0,.52.53h5.27A.52.52,0,0,0,536.84,955.63Zm0,2.11a.52.52,0,0,0-.52-.53h-5.27a.52.52,0,0,0-.52.53.52.52,0,0,0,.52.52h5.27A.52.52,0,0,0,536.84,957.74Zm0,2.1a.52.52,0,0,0-.52-.52h-5.27a.52.52,0,0,0-.52.52.52.52,0,0,0,.52.53h5.27A.52.52,0,0,0,536.84,959.84Zm0,3.16a.52.52,0,0,0-.52-.53H523.68a.53.53,0,0,0,0,1.06h12.64A.52.52,0,0,0,536.84,963Zm0,2.11a.52.52,0,0,0-.52-.53H523.68a.53.53,0,0,0,0,1h12.64A.52.52,0,0,0,536.84,965.11Zm-5.79,2.1a.52.52,0,0,0-.52-.53h-6.85a.53.53,0,0,0,0,1.06h6.85A.52.52,0,0,0,531.05,967.21Z" transform="translate(-514 -947)"/></g></svg>