<svg xmlns="http://www.w3.org/2000/svg" width="60" height="60" viewBox="0 0 60 60"><path d="M58 43h-3V12a3 3 0 00-3-3H8a3 3 0 00-3 3v31H2a1 1 0 00-1 1 7.23 7.23 0 007.43 7h43.14a7.63 7.63 0 005.23-2 6.74 6.74 0 002.2-5 1 1 0 00-1-1zM7 12a1 1 0 011-1h44a1 1 0 011 1v31H35.28a1 1 0 00-1 .87 1.6 1.6 0 01-.51.94 2 2 0 01-1.35.52h-4.85a1.83 1.83 0 01-1.87-1.47 1 1 0 00-1-.86H7zm48.43 35.51A5.63 5.63 0 0151.57 49H8.43a5.34 5.34 0 01-5.32-4H24a3.9 3.9 0 003.61 2.33h4.86a3.94 3.94 0 002.71-1.05A3.68 3.68 0 0036 45h20.85a4.89 4.89 0 01-1.42 2.51zM30 39.8a11.79 11.79 0 10-3-.4 11.82 11.82 0 003 .4zm-1.81-1.95l.82-3.08 2.2.59c-.14.2-.28.38-.43.56a5.3 5.3 0 01-2.59 1.93zM30.57 29l3.26.87a19.89 19.89 0 01-1.72 4.1l-2.68-.72zm-4.4-2.83a19.89 19.89 0 011.72-4.1l2.68.72L29.43 27zm4.67 12A9.73 9.73 0 0032 36.94c.29-.35.56-.74.83-1.14l2.71.73a10.21 10.21 0 01-4.7 1.62zM40 29.89a.37.37 0 00-.14-.07l-4.08-1.1a22.28 22.28 0 00.6-4.39l3.42.92a10 10 0 01.2 4.64zm-1.18-7c.1.16.17.33.26.5l-2.73-.73a11.7 11.7 0 00-.59-3.07 10.09 10.09 0 013.07 3.31zm.62 8.46h.16a10.07 10.07 0 01-2.5 3.91l-3.41-.91a23.08 23.08 0 001.68-4.11zm-6.09-12.79a6.11 6.11 0 011.37 3.66l-2.2-.59zm1.44 5.33a20.26 20.26 0 01-.55 4.41L31 27.43l1.14-4.25zm-3-5.75L31 21.23l-2.2-.59c.14-.2.28-.38.43-.56a5.17 5.17 0 012.58-1.93zm-2.63-.32a10 10 0 00-1.2 1.23c-.29.35-.56.74-.83 1.14l-2.72-.73a10.23 10.23 0 014.77-1.63zM20 26.11a.37.37 0 00.14.07l4.08 1.1a22.28 22.28 0 00-.6 4.39l-3.42-.92a10 10 0 01-.2-4.64zm1.18 7c-.1-.16-.17-.33-.26-.5l2.73.73a11.7 11.7 0 00.59 3.07 10.09 10.09 0 01-3.07-3.31zm-.62-8.46a.5.5 0 00-.17 0 10 10 0 012.5-3.92l3.42.91a23.08 23.08 0 00-1.68 4.11zm5.2 3.05l3.27.88-1.14 4.25-2.68-.72a20.26 20.26 0 01.54-4.42zm-.48 6.08l2.2.59-.83 3.07a6.11 6.11 0 01-1.38-3.67z" fill="#fff" data-name="レイヤー 4" opacity=".5"/></svg>