<svg xmlns="http://www.w3.org/2000/svg" width="60" height="60" viewBox="0 0 60 60"><path d="M53 11H7a3 3 0 00-3 3v32a3 3 0 003 3h46a3 3 0 003-3V14a3 3 0 00-3-3zM7 13h46a1 1 0 011 1v4H6v-4a1 1 0 011-1zm46 34H7a1 1 0 01-1-1V20h48v26a1 1 0 01-1 1zm-4-31.5a1.5 1.5 0 111.5 1.5 1.5 1.5 0 01-1.5-1.5zm-4 0a1.5 1.5 0 111.5 1.5 1.5 1.5 0 01-1.5-1.5zm-4 0a1.5 1.5 0 111.5 1.5 1.5 1.5 0 01-1.5-1.5zm-5.13 17.77a.27.27 0 010 .46L24.31 40c-.14.08-.31-.05-.31-.23v-12.5c0-.18.17-.31.31-.23z" fill="#fff" data-name="レイヤー 4" opacity=".5"/></svg>