<?xml version="1.0" encoding="utf-8"?>
<!-- Generator: Adobe Illustrator 26.0.2, SVG Export Plug-In . SVG Version: 6.00 Build 0)  -->
<svg version="1.1" id="レイヤー_1" xmlns="http://www.w3.org/2000/svg" xmlns:xlink="http://www.w3.org/1999/xlink" x="0px"
	 y="0px" width="758px" height="109.7px" viewBox="0 0 758 109.7" enable-background="new 0 0 758 109.7" xml:space="preserve">
<g>
	<path fill="#FFFFFF" d="M38.3,31.7c-2.6,18.6-16,26.2-31.6,28.1c-0.5,0.1-1-0.3-1-0.9l0-8.4c0-0.4,0.3-0.8,0.7-0.8
		c12-1.8,18.6-8.3,20.1-18H0.9c-0.5,0-0.9-0.4-0.9-0.9v-8C0,22.4,0.4,22,0.8,22h55.4c0.5,0,0.9,0.4,0.9,0.9v8c0,0.5-0.4,0.9-0.9,0.9
		H38.3z M53.6,9.2v4.7c0,0.5-0.4,0.9-0.9,0.9h-48c-0.5,0-0.9-0.4-0.9-0.9V5.8c0-0.5,0.4-0.9,0.9-0.9h38.2v-4c0-0.5,0.4-0.9,0.9-0.9
		h4.6c0.5,0,0.9,0.4,0.9,0.9v4h2.3v-4C51.6,0.4,52,0,52.5,0h4.6C57.6,0,58,0.4,58,0.9v7.4c0,0.5-0.4,0.9-0.9,0.9H53.6z"/>
	<path fill="#FFFFFF" d="M64,31.9v-8.2c0-0.5,0.4-0.8,0.8-0.8c8.3,0.3,19.1,1.2,27.3,2.2c0.4,0.1,0.7,0.4,0.7,0.8v8.3
		c0,0.5-0.4,0.9-0.9,0.8C83.3,34,72.6,33,64.8,32.7C64.3,32.7,64,32.4,64,31.9z M64.6,13.5V5.3c0-0.5,0.4-0.8,0.8-0.8
		c8.2,0.3,18.7,1.1,27.3,2.1c0.4,0,0.7,0.4,0.7,0.8v8.4c0,0.5-0.4,0.9-0.9,0.8c-8.4-1-19.4-2.1-27.2-2.3
		C65,14.3,64.6,13.9,64.6,13.5z M65.4,58.4l0-8.7c0-0.5,0.4-0.8,0.8-0.9c26.1-0.9,38.7-9.6,41.2-34.2c0-0.4,0.4-0.8,0.8-0.8h9.5
		c0.5,0,0.9,0.4,0.8,0.9c-2.7,32.5-22.3,44-52.4,44.5C65.8,59.3,65.4,58.9,65.4,58.4z M102.9,10.6V3.1c0-0.5,0.4-0.9,0.9-0.9h4.6
		c0.5,0,0.9,0.4,0.9,0.9v7.5c0,0.5-0.4,0.9-0.9,0.9h-4.6C103.3,11.5,102.9,11.1,102.9,10.6z M111.5,10.6V3.1c0-0.5,0.4-0.9,0.9-0.9
		h4.6c0.5,0,0.9,0.4,0.9,0.9v7.5c0,0.5-0.4,0.9-0.9,0.9h-4.6C111.9,11.5,111.5,11.1,111.5,10.6z"/>
	<path fill="#FFFFFF" d="M132.4,49.9c13.2-1.7,22.3-6.2,28.1-13.3c-8.5-1.8-16.3-3-23.9-3.8c-0.4,0-0.8-0.4-0.8-0.8v-6.3
		c-3.1,3.1-6.8,5.7-10.9,7.5c-0.6,0.3-1.2-0.2-1.2-0.8l0-9.3c0-0.3,0.1-0.6,0.4-0.7c5.4-3.4,10.1-9.8,12.6-17.1
		c0.1-0.3,0.4-0.6,0.8-0.6l42,0c0.5,0,0.9,0.2,0.9,0.5v0.5c-0.7,28.3-11.3,50.9-48,54c-0.5,0-1-0.4-1-0.9v-8.1
		C131.7,50.3,132,50,132.4,49.9z M144.1,14.5c-1.5,2.9-3.6,5.9-6,8.7c9,1,18.7,2.4,27.7,4.4c1.5-3.9,2.6-8.3,3.2-13.1H144.1z"/>
	<path fill="#FFFFFF" d="M182.7,59.6V49.3c0-0.2,0.1-0.4,0.3-0.6c4.5-4.3,8-10.6,8-26.5v-17c0-0.5,0.4-0.8,0.8-0.8h8.7
		c0.5,0,0.8,0.4,0.8,0.8v16.3c0,23.2-7,32.7-17.4,38.8C183.4,60.7,182.7,60.2,182.7,59.6z M207.7,58.8V5.1c0-0.5,0.4-0.8,0.8-0.8
		h8.7c0.5,0,0.8,0.4,0.8,0.8v41.2c8.3-2.7,12-13.4,12.7-23.8c0-0.4,0.4-0.8,0.8-0.8h8.7c0.5,0,0.9,0.4,0.8,0.9
		c-1,22.4-11.5,35.6-32.6,37.1C208.1,59.7,207.7,59.3,207.7,58.8z"/>
</g>
<g>
	<path fill="#FFFFFF" d="M285,25.8v34.4c0,0.5-0.4,0.8-0.8,0.8h-9.5c-0.5,0-0.8-0.4-0.8-0.8V31.6c-8.4,3.4-17.5,5.5-25.6,6.7
		c-0.5,0.1-1-0.3-1-0.8v-8.5c0-0.4,0.3-0.8,0.7-0.8c26.1-4.7,37.5-14.1,42.3-24.5c0.1-0.3,0.4-0.5,0.8-0.5h10c0.6,0,1,0.6,0.8,1.1
		C298.8,13.8,292.7,20.7,285,25.8z"/>
	<path fill="#FFFFFF" d="M297,58.2v-8.8c0-0.4,0.2-0.7,0.6-0.8c21-6,33.2-20.2,36-43.4c0.1-0.4,0.4-0.7,0.8-0.7h10
		c0.5,0,0.9,0.4,0.8,0.9C341.7,35.3,324.8,53.1,298,59C297.5,59.2,297,58.8,297,58.2z"/>
	<path fill="#FFFFFF" d="M382.7,31.3c-6.2-12.5-7.1-13.3-11.9-13.3h-2.1l-6.4,15.2c-2.6,7-6.8,10.7-13.2,11.8c-0.5,0.1-1-0.3-1-0.9
		v-8.8c0-0.3,0.2-0.6,0.5-0.8c2-1.1,3.5-3.3,4.7-6.7l7.9-19.8c0.1-0.3,0.4-0.5,0.8-0.5h8c11.2,0,14.3,1.7,21.7,16.7
		c5.2,10.7,10.4,20.5,17,23.3c0.3,0.1,0.5,0.4,0.5,0.8v8.7c0,1.2-0.5,1.6-1,1.5C397.1,56.4,390.2,46.5,382.7,31.3z M388.1,12.7V5
		c0-0.5,0.4-0.8,0.8-0.8h5c0.5,0,0.8,0.4,0.8,0.8v7.8c0,0.5-0.4,0.8-0.8,0.8h-5C388.5,13.6,388.1,13.2,388.1,12.7z M397,12.7V5
		c0-0.5,0.4-0.8,0.8-0.8h5c0.5,0,0.8,0.4,0.8,0.8v7.8c0,0.5-0.4,0.8-0.8,0.8h-5C397.4,13.6,397,13.2,397,12.7z"/>
	<path fill="#FFFFFF" d="M408,32.8v-8.4c0-0.5,0.4-0.9,0.9-0.9h49.3c0.5,0,0.9,0.4,0.9,0.9v8.4c0,0.5-0.4,0.9-0.9,0.9h-49.3
		C408.3,33.7,408,33.3,408,32.8z"/>
	<path fill="#FFFFFF" d="M467.4,31.9v-8.2c0-0.5,0.4-0.9,0.9-0.9c8.3,0.3,19,1.2,27.3,2.2c0.4,0.1,0.7,0.4,0.7,0.9v8.2
		c0,0.5-0.4,0.9-1,0.9c-8.7-1.1-19.4-2.1-27.1-2.3C467.7,32.7,467.4,32.4,467.4,31.9z M468,13.5V5.4c0-0.5,0.4-0.9,0.9-0.9
		c8.1,0.3,18.7,1.1,27.3,2.1c0.4,0.1,0.7,0.4,0.7,0.9v8.3c0,0.5-0.4,0.9-0.9,0.9c-8.4-1-19.4-2.1-27.1-2.3
		C468.4,14.3,468,13.9,468,13.5z M468.8,58.4v-8.8c0-0.5,0.4-0.8,0.8-0.9c26.1-0.9,38.7-9.6,41.2-34.2c0-0.4,0.4-0.8,0.8-0.8h9.5
		c0.5,0,0.9,0.4,0.9,0.9c-2.7,32.5-22.3,43.9-52.4,44.5C469.2,59.3,468.8,58.9,468.8,58.4z"/>
	<path fill="#FFFFFF" d="M530.8,58v-7.7c0-0.5,0.4-0.8,0.8-0.8H565v-9.8h-32.6c-0.5,0-0.8-0.4-0.8-0.8v-7.6c0-0.5,0.4-0.8,0.8-0.8
		H565v-8.5h-33.4c-0.5,0-0.8-0.4-0.8-0.8v-7.6c0-0.5,0.4-0.8,0.8-0.8h43.1c0.5,0,0.8,0.4,0.8,0.8V58c0,0.5-0.4,0.8-0.8,0.8h-43.1
		C531.1,58.8,530.8,58.4,530.8,58z"/>
	<path fill="#FFFFFF" d="M585.8,15V6.2c0-0.5,0.4-0.9,0.9-0.9c8.3,0.5,18.3,1.8,26.6,3.3c0.4,0.1,0.7,0.4,0.7,0.8v9
		c0,0.5-0.5,0.9-1,0.8c-7.8-1.5-18.5-3-26.4-3.5C586.2,15.8,585.8,15.4,585.8,15z M586.7,58.2v-8.8c0-0.4,0.4-0.8,0.8-0.8
		c22.8-1.7,37.2-8.4,39.8-33.3c0-0.4,0.4-0.8,0.8-0.8h9.7c0.5,0,0.9,0.4,0.9,0.9c-2.6,30.5-20.5,42.6-51,43.7
		C587.1,59.1,586.7,58.7,586.7,58.2z"/>
</g>
<g>
	<path fill="#FFFFFF" d="M279.3,105.6l-4.3-5.7c7-3.2,13.1-7.9,18.2-13.7h-16.2v-7.1h18.8v-6.4h7.3v6.4h9.2v7.1h-9.2l0.1,17.3
		c0,1.8-0.6,3.7-2,4.9c-1.8,1.5-3.7,1.5-6.7,1.5c-1.7,0-3.4,0-5.2-0.1l-1.4-7.2c1.9,0.1,3.9,0.3,5.9,0.3c1.1,0,2.1-0.2,2.1-1.6
		l-0.1-8.9C291,98.2,285.9,102,279.3,105.6z"/>
	<path fill="#FFFFFF" d="M336.4,80.4l-3.9,6.8c-4.2-2.8-8.7-5-13.5-6.6l3.3-6.3C327.2,75.7,332,77.7,336.4,80.4z M319.6,101.4
		c8.2-0.7,14.4-2.5,19.1-6.2c4.9-3.8,8.2-9.7,10.6-18.2l6.9,3.5c-2.2,7.7-5.7,15-11.9,20.3c-6.2,5.3-14,7.3-22.1,8.5L319.6,101.4z"
		/>
	<path fill="#FFFFFF" d="M396.4,84c-0.8,9.8-3.9,16-9.5,20c-4.7,3.4-11.2,5.1-19.2,5.7l-2.2-6.9c5.4-0.2,12.2-1,16.4-3.8
		c3-2,4.7-4.5,5.7-8.1h-26.3V84H396.4z M393.6,73.5v6.8h-29.2v-6.8H393.6z"/>
	<path fill="#FFFFFF" d="M427,109.5h-7.9v-17c-4.2,2.5-8.7,4.4-13.4,5.9l-3.8-6.5c6.4-1.7,12.8-5.1,18.3-8.7
		c5-3.3,8.7-7.1,12.7-11.4l6.5,4.6c-3.8,4.2-7.9,7.7-12.5,11V109.5z"/>
	<path fill="#FFFFFF" d="M463.1,80.4l-3.9,6.8c-4.2-2.8-8.7-5-13.5-6.6l3.3-6.3C453.9,75.7,458.7,77.7,463.1,80.4z M446.3,101.4
		c8.2-0.7,14.4-2.5,19.1-6.2c4.9-3.8,8.2-9.7,10.6-18.2l6.9,3.5c-2.2,7.7-5.7,15-11.9,20.3c-6.2,5.3-14,7.3-22.1,8.5L446.3,101.4z"
		/>
</g>
<linearGradient id="SVGID_1_" gradientUnits="userSpaceOnUse" x1="498.0003" y1="92.1113" x2="758.0003" y2="92.1113">
	<stop  offset="6.967483e-08" style="stop-color:#135675"/>
	<stop  offset="0.25" style="stop-color:#269C8A"/>
	<stop  offset="0.5" style="stop-color:#0E2297"/>
	<stop  offset="0.75" style="stop-color:#F2C4E9"/>
	<stop  offset="1" style="stop-color:#F2C4E9;stop-opacity:0"/>
</linearGradient>
<rect x="498" y="83.1" fill="url(#SVGID_1_)" width="260" height="18"/>
<linearGradient id="SVGID_00000169543576318864415330000016898595749266728359_" gradientUnits="userSpaceOnUse" x1="1325.9413" y1="92.1113" x2="1585.9413" y2="92.1113" gradientTransform="matrix(-1 0 0 1 1585.9415 0)">
	<stop  offset="6.967483e-08" style="stop-color:#135675"/>
	<stop  offset="0.25" style="stop-color:#269C8A"/>
	<stop  offset="0.5" style="stop-color:#0E2297"/>
	<stop  offset="0.75" style="stop-color:#F2C4E9"/>
	<stop  offset="1" style="stop-color:#F2C4E9;stop-opacity:0"/>
</linearGradient>
<polygon fill="url(#SVGID_00000169543576318864415330000016898595749266728359_)" points="0,101.1 260,101.1 260,83.1 0,83.1 "/>
<g>
	<path fill="#FFFFFF" d="M647.5,59.7v-7.8l14.9-28c0.8-1.4,1.2-2.6,1.3-3.7c0.1-1,0.2-2.4,0.2-3.9c0-0.7,0-1.4,0-2.2
		c0-0.8-0.2-1.5-0.4-2.1c-0.3-0.6-0.7-1.1-1.2-1.5c-0.5-0.4-1.3-0.6-2.3-0.6c-1.2,0-2.2,0.4-2.9,1c-0.7,0.7-1.1,1.7-1.1,3.1v4.7
		h-8.2v-4.5c0-1.7,0.3-3.3,1-4.8c0.6-1.5,1.5-2.8,2.7-4c1.1-1.1,2.4-2,3.9-2.7c1.5-0.7,3.1-1,4.8-1c2.2,0,4,0.4,5.5,1.2
		c1.5,0.8,2.8,1.8,3.8,3.2c1,1.3,1.7,2.9,2.1,4.6c0.5,1.7,0.7,3.6,0.7,5.5c0,1.4,0,2.6-0.1,3.5c-0.1,0.9-0.2,1.8-0.3,2.7
		c-0.2,0.9-0.4,1.7-0.8,2.6c-0.4,0.9-0.9,1.9-1.5,3.2l-12.1,23.3h14.9v8.2H647.5z"/>
	<path fill="#FFFFFF" d="M675.9,14c0-1.9,0.3-3.7,1-5.2c0.7-1.5,1.6-2.8,2.7-3.9c1.1-1.1,2.4-1.9,3.9-2.5s3-0.8,4.6-0.8
		c1.6,0,3.2,0.3,4.6,0.8c1.5,0.6,2.8,1.4,3.9,2.5c1.1,1.1,2,2.4,2.7,3.9c0.7,1.5,1,3.2,1,5.2v33.8c0,1.9-0.3,3.7-1,5.2
		c-0.7,1.5-1.6,2.8-2.7,3.9s-2.4,1.9-3.9,2.5c-1.5,0.6-3,0.8-4.6,0.8c-1.6,0-3.2-0.3-4.6-0.8s-2.8-1.4-3.9-2.5s-2-2.4-2.7-3.9
		c-0.7-1.5-1-3.2-1-5.2V14z M684.2,47.8c0,1.2,0.4,2.2,1.1,2.9c0.8,0.8,1.7,1.2,2.9,1.2c1.2,0,2.2-0.4,2.9-1.2
		c0.8-0.8,1.1-1.8,1.1-2.9V14c0-1.2-0.4-2.2-1.1-2.9c-0.8-0.8-1.7-1.2-2.9-1.2c-1.2,0-2.2,0.4-2.9,1.2c-0.8,0.8-1.1,1.8-1.1,2.9
		V47.8z"/>
	<path fill="#FFFFFF" d="M704.4,59.7v-7.8l14.9-28c0.8-1.4,1.2-2.6,1.3-3.7c0.1-1,0.2-2.4,0.2-3.9c0-0.7,0-1.4,0-2.2
		c0-0.8-0.2-1.5-0.4-2.1c-0.3-0.6-0.7-1.1-1.2-1.5c-0.5-0.4-1.3-0.6-2.3-0.6c-1.2,0-2.2,0.4-2.9,1c-0.7,0.7-1.1,1.7-1.1,3.1v4.7
		h-8.2v-4.5c0-1.7,0.3-3.3,1-4.8c0.6-1.5,1.5-2.8,2.7-4c1.1-1.1,2.4-2,3.9-2.7c1.5-0.7,3.1-1,4.8-1c2.2,0,4,0.4,5.5,1.2
		c1.5,0.8,2.8,1.8,3.8,3.2c1,1.3,1.7,2.9,2.1,4.6c0.5,1.7,0.7,3.6,0.7,5.5c0,1.4,0,2.6-0.1,3.5c-0.1,0.9-0.2,1.8-0.3,2.7
		c-0.2,0.9-0.4,1.7-0.8,2.6c-0.4,0.9-0.9,1.9-1.5,3.2l-12.1,23.3h14.9v8.2H704.4z"/>
	<path fill="#FFFFFF" d="M732.8,59.7v-7.8l14.9-28c0.8-1.4,1.2-2.6,1.3-3.7c0.1-1,0.2-2.4,0.2-3.9c0-0.7,0-1.4,0-2.2
		c0-0.8-0.2-1.5-0.4-2.1c-0.3-0.6-0.7-1.1-1.2-1.5c-0.5-0.4-1.3-0.6-2.3-0.6c-1.2,0-2.2,0.4-2.9,1c-0.7,0.7-1.1,1.7-1.1,3.1v4.7
		h-8.2v-4.5c0-1.7,0.3-3.3,1-4.8c0.6-1.5,1.5-2.8,2.7-4c1.1-1.1,2.4-2,3.9-2.7c1.5-0.7,3.1-1,4.8-1c2.2,0,4,0.4,5.5,1.2
		c1.5,0.8,2.8,1.8,3.8,3.2c1,1.3,1.7,2.9,2.1,4.6c0.5,1.7,0.7,3.6,0.7,5.5c0,1.4,0,2.6-0.1,3.5c-0.1,0.9-0.2,1.8-0.3,2.7
		c-0.2,0.9-0.4,1.7-0.8,2.6c-0.4,0.9-0.9,1.9-1.5,3.2l-12.1,23.3h14.9v8.2H732.8z"/>
</g>
</svg>
