<svg xmlns="http://www.w3.org/2000/svg" xmlns:xlink="http://www.w3.org/1999/xlink" viewBox="0 0 758 109.75"><defs><linearGradient id="名称未設定グラデーション_29" x1="498" y1="92.11" x2="758" y2="92.11" gradientUnits="userSpaceOnUse"><stop offset="0" stop-color="#135675"/><stop offset="0.25" stop-color="#269c8a"/><stop offset="0.5" stop-color="#0e2297"/><stop offset="0.75" stop-color="#f2c4e9"/><stop offset="1" stop-color="#f2c4e9" stop-opacity="0"/></linearGradient><linearGradient id="名称未設定グラデーション_29-2" x1="1325.94" y1="92.11" x2="1585.94" y2="92.11" gradientTransform="matrix(1, 0, 0, -1, -1325.94, 184.22)" xlink:href="#名称未設定グラデーション_29"/></defs><g id="レイヤー_2" data-name="レイヤー 2"><g id="レイヤー_1-2" data-name="レイヤー 1"><path d="M38.34,31.7c-2.56,18.57-16,26.23-31.63,28.09a.88.88,0,0,1-1-.87V50.56a.87.87,0,0,1,.74-.85c12-1.81,18.62-8.32,20.06-18H.87A.86.86,0,0,1,0,30.84v-8A.85.85,0,0,1,.85,22H56.22a.87.87,0,0,1,.87.87v8a.87.87,0,0,1-.87.87ZM53.58,9.19v4.68a.87.87,0,0,1-.87.87H4.76a.87.87,0,0,1-.87-.87V5.78a.87.87,0,0,1,.87-.87H42.93v-4A.87.87,0,0,1,43.8,0h4.64a.87.87,0,0,1,.87.87v4h2.3v-4A.87.87,0,0,1,52.48,0h4.64A.87.87,0,0,1,58,.87V8.32a.87.87,0,0,1-.87.87Z"/><path d="M64,31.92V23.7a.83.83,0,0,1,.85-.84c8.33.29,19.09,1.17,27.34,2.24a.83.83,0,0,1,.71.83v8.28A.82.82,0,0,1,92,35C83.28,34,72.56,33,64.78,32.75A.83.83,0,0,1,64,31.92Zm.64-18.43V5.32a.83.83,0,0,1,.85-.83c8.15.28,18.69,1.11,27.32,2.12a.83.83,0,0,1,.73.83v8.4a.82.82,0,0,1-.92.82c-8.36-1-19.4-2.05-27.19-2.34A.82.82,0,0,1,64.62,13.49Zm.77,44.88V49.64a.88.88,0,0,1,.84-.87c26.08-.91,38.67-9.57,41.18-34.23a.85.85,0,0,1,.84-.76h9.55a.85.85,0,0,1,.84.92c-2.69,32.52-22.28,44-52.36,44.55A.88.88,0,0,1,65.39,58.37ZM102.9,10.62V3.09a.86.86,0,0,1,.85-.86h4.6a.86.86,0,0,1,.86.86v7.53a.85.85,0,0,1-.86.86h-4.6A.85.85,0,0,1,102.9,10.62Zm8.61,0V3.09a.86.86,0,0,1,.86-.86H117a.86.86,0,0,1,.86.86v7.53a.85.85,0,0,1-.86.86h-4.59A.85.85,0,0,1,111.51,10.62Z"/><path d="M132.44,49.91c13.18-1.73,22.25-6.16,28.14-13.29a223.38,223.38,0,0,0-23.87-3.82A.84.84,0,0,1,136,32V25.64a37.4,37.4,0,0,1-10.86,7.54.87.87,0,0,1-1.2-.8V23.11a.85.85,0,0,1,.39-.71c5.37-3.42,10.07-9.8,12.62-17.1a.84.84,0,0,1,.8-.58h42c.47,0,.85.23.85.51v.51c-.7,28.34-11.3,50.9-48,54a.88.88,0,0,1-.95-.87V50.77A.87.87,0,0,1,132.44,49.91Zm11.68-35.37a45.74,45.74,0,0,1-6,8.74,245.86,245.86,0,0,1,27.69,4.4A56,56,0,0,0,169,14.54Z"/><path d="M182.72,59.6V49.28a.81.81,0,0,1,.26-.6c4.53-4.32,8-10.58,8-26.48v-17a.83.83,0,0,1,.84-.83h8.72a.84.84,0,0,1,.84.83V21.5c0,23.18-7,32.75-17.37,38.83A.84.84,0,0,1,182.72,59.6Zm25-.79V5.11a.84.84,0,0,1,.83-.84h8.73a.85.85,0,0,1,.84.84v41.2c8.34-2.68,12-13.37,12.71-23.85a.82.82,0,0,1,.82-.77h8.74a.86.86,0,0,1,.85.88c-1,22.43-11.5,35.63-32.62,37.08A.84.84,0,0,1,207.73,58.81Z"/><path d="M285,25.77V60.14a.85.85,0,0,1-.85.84h-9.53a.85.85,0,0,1-.85-.84V31.64a114.53,114.53,0,0,1-25.57,6.74.84.84,0,0,1-1-.84V29.09a.85.85,0,0,1,.71-.83C274,23.57,285.45,14.11,290.2,3.74a.83.83,0,0,1,.76-.49h10a.86.86,0,0,1,.82,1.11C298.81,13.8,292.67,20.67,285,25.77Z"/><path d="M297,58.22v-8.8a.82.82,0,0,1,.61-.79c21-6,33.16-20.23,36-43.37a.83.83,0,0,1,.81-.73h10a.85.85,0,0,1,.84,1C341.65,35.33,324.82,53.13,298,59A.84.84,0,0,1,297,58.22Z"/><path d="M382.72,31.32c-6.19-12.5-7.08-13.27-11.87-13.27h-2.1L362.31,33.3c-2.61,7-6.84,10.66-13.23,11.78a.87.87,0,0,1-1-.86V35.41a.85.85,0,0,1,.46-.75c2-1.15,3.46-3.27,4.71-6.66l7.88-19.8a.86.86,0,0,1,.8-.54h8c11.23,0,14.29,1.65,21.69,16.71,5.22,10.68,10.38,20.52,17,23.27a.82.82,0,0,1,.53.77v8.7c0,1.16-.49,1.57-1,1.47C397.1,56.43,390.21,46.49,382.72,31.32Zm5.36-18.57V5a.83.83,0,0,1,.84-.84h4.95a.83.83,0,0,1,.84.84v7.76a.84.84,0,0,1-.84.84h-4.95A.84.84,0,0,1,388.08,12.75Zm8.93,0V5a.84.84,0,0,1,.84-.84h4.95a.83.83,0,0,1,.84.84v7.76a.84.84,0,0,1-.84.84h-4.95A.85.85,0,0,1,397,12.75Z"/><path d="M408,32.83V24.39a.85.85,0,0,1,.85-.85h49.35a.85.85,0,0,1,.85.85v8.44a.85.85,0,0,1-.85.85H408.82A.85.85,0,0,1,408,32.83Z"/><path d="M467.36,31.89V23.72a.86.86,0,0,1,.88-.86c8.31.29,19,1.17,27.28,2.24a.85.85,0,0,1,.74.85v8.23a.86.86,0,0,1-1,.85C486.64,34,476,33,468.18,32.75A.85.85,0,0,1,467.36,31.89ZM468,13.46V5.35a.86.86,0,0,1,.87-.86c8.14.28,18.66,1.11,27.27,2.12a.85.85,0,0,1,.75.85v8.35a.85.85,0,0,1-.95.85c-8.35-1-19.35-2.05-27.13-2.34A.85.85,0,0,1,468,13.46Zm.76,44.92V49.62a.87.87,0,0,1,.84-.85c26.07-.91,38.67-9.56,41.19-34.22a.85.85,0,0,1,.84-.77h9.52a.88.88,0,0,1,.87.94c-2.71,32.51-22.29,43.94-52.37,44.53A.88.88,0,0,1,468.76,58.38Z"/><path d="M530.77,58V50.27a.83.83,0,0,1,.83-.83H565V39.61H532.43a.83.83,0,0,1-.83-.83V31.2a.84.84,0,0,1,.83-.84H565V21.82H531.6a.84.84,0,0,1-.83-.84V13.34a.84.84,0,0,1,.83-.84h43.12a.84.84,0,0,1,.83.84V58a.83.83,0,0,1-.83.83H531.6A.83.83,0,0,1,530.77,58Z"/><path d="M585.84,15V6.21a.85.85,0,0,1,.9-.86,252.89,252.89,0,0,1,26.59,3.26.86.86,0,0,1,.7.85v9a.85.85,0,0,1-1,.84,234.48,234.48,0,0,0-26.4-3.51A.84.84,0,0,1,585.84,15Zm.89,43.22V49.33a.87.87,0,0,1,.8-.85c22.83-1.73,37.2-8.44,39.76-33.29a.85.85,0,0,1,.84-.77h9.65a.86.86,0,0,1,.86.94C636.08,45.87,618.15,58,587.63,59A.87.87,0,0,1,586.73,58.18Z"/><path d="M279.25,105.61l-4.35-5.75a54.82,54.82,0,0,0,18.21-13.72H276.93V79.08h18.79V72.66h7.35v6.42h9.21v7.06h-9.21l.13,17.27a6.35,6.35,0,0,1-2,4.86c-1.78,1.48-3.72,1.48-6.72,1.48-1.73,0-3.42,0-5.15-.09l-1.44-7.22c1.94.13,3.93.29,5.87.29,1.1,0,2.07-.21,2.07-1.56l-.08-8.87A50.88,50.88,0,0,1,279.25,105.61Z" style="fill:#135675"/><path d="M336.43,80.39l-3.92,6.76A56.12,56.12,0,0,0,319,80.52l3.26-6.29A58.22,58.22,0,0,1,336.43,80.39Zm-16.8,21c8.23-.68,14.4-2.54,19.09-6.17,4.94-3.84,8.23-9.67,10.55-18.2l6.89,3.5c-2.2,7.73-5.74,15-11.91,20.32s-14,7.26-22.13,8.49Z" style="fill:#135675"/><path d="M396.36,84c-.8,9.76-3.93,16-9.54,20-4.73,3.38-11.15,5.11-19.18,5.66l-2.24-6.92c5.41-.17,12.17-1,16.43-3.8a12.82,12.82,0,0,0,5.66-8.11H361.18V84Zm-2.74-10.47v6.8H364.39v-6.8Z" style="fill:#135675"/><path d="M427,109.53h-7.9v-17a63,63,0,0,1-13.39,5.87l-3.76-6.51c6.38-1.69,12.8-5.11,18.29-8.74,5-3.34,8.66-7.1,12.71-11.45l6.55,4.65a77.58,77.58,0,0,1-12.5,11Z" style="fill:#135675"/><path d="M463.13,80.39l-3.93,6.76a55.94,55.94,0,0,0-13.48-6.63L449,74.23A58.46,58.46,0,0,1,463.13,80.39Zm-16.81,21c8.23-.68,14.4-2.54,19.09-6.17,4.94-3.84,8.23-9.67,10.56-18.2l6.88,3.5c-2.2,7.73-5.74,15-11.91,20.32s-14,7.26-22.13,8.49Z" style="fill:#135675"/><rect x="498" y="83.11" width="260" height="18" style="fill:url(#名称未設定グラデーション_29)"/><rect y="83.11" width="260" height="18" transform="translate(260 184.22) rotate(-180)" style="fill:url(#名称未設定グラデーション_29-2)"/><path d="M647.5,59.65V51.9l14.87-28a10.26,10.26,0,0,0,1.29-3.67,38.91,38.91,0,0,0,.16-3.92c0-.7,0-1.44,0-2.22a5.63,5.63,0,0,0-.44-2.06,3.47,3.47,0,0,0-3.56-2.1,4.08,4.08,0,0,0-2.95,1A4.09,4.09,0,0,0,655.74,14v4.68H647.5V14.17a12.32,12.32,0,0,1,1-4.85,12.8,12.8,0,0,1,2.67-4A12,12,0,0,1,655,2.66a11.84,11.84,0,0,1,4.85-1,12.12,12.12,0,0,1,5.54,1.17A11.09,11.09,0,0,1,669.23,6a13.75,13.75,0,0,1,2.14,4.61,21.17,21.17,0,0,1,.69,5.49c0,1.4,0,2.57-.08,3.51a20.73,20.73,0,0,1-.32,2.71,12.46,12.46,0,0,1-.81,2.59c-.38.86-.89,1.91-1.54,3.15L657.2,51.41h14.86v8.24Z"/><path d="M675.94,14a12.46,12.46,0,0,1,1-5.17A12.07,12.07,0,0,1,679.65,5a11.51,11.51,0,0,1,3.92-2.46,13.12,13.12,0,0,1,9.29,0A11.51,11.51,0,0,1,696.78,5a12.25,12.25,0,0,1,2.71,3.88,12.62,12.62,0,0,1,1,5.17V47.78a12.62,12.62,0,0,1-1,5.17,12.25,12.25,0,0,1-2.71,3.88,11.67,11.67,0,0,1-3.92,2.46,13.12,13.12,0,0,1-9.29,0,11.67,11.67,0,0,1-3.92-2.46A12.07,12.07,0,0,1,677,53a12.46,12.46,0,0,1-1-5.17Zm8.24,33.77a4.06,4.06,0,0,0,1.13,2.95,4.2,4.2,0,0,0,5.82,0,4.1,4.1,0,0,0,1.13-2.95V14a4.08,4.08,0,0,0-1.13-2.95,4.2,4.2,0,0,0-5.82,0A4,4,0,0,0,684.18,14Z"/><path d="M704.38,59.65V51.9l14.86-28a10.26,10.26,0,0,0,1.29-3.67,38.91,38.91,0,0,0,.16-3.92c0-.7,0-1.44,0-2.22a5.25,5.25,0,0,0-.44-2.06,3.89,3.89,0,0,0-1.21-1.5,3.89,3.89,0,0,0-2.34-.6,4.06,4.06,0,0,0-2.95,1A4.05,4.05,0,0,0,712.62,14v4.68h-8.24V14.17a12.31,12.31,0,0,1,1-4.85,12.8,12.8,0,0,1,2.67-4,12.07,12.07,0,0,1,3.88-2.7,11.8,11.8,0,0,1,4.85-1,12.07,12.07,0,0,1,5.53,1.17A11.21,11.21,0,0,1,726.11,6a13.94,13.94,0,0,1,2.14,4.61,21.62,21.62,0,0,1,.68,5.49c0,1.4,0,2.57-.08,3.51a20.73,20.73,0,0,1-.32,2.71,11.89,11.89,0,0,1-.81,2.59c-.37.86-.89,1.91-1.53,3.15L714.07,51.41h14.86v8.24Z"/><path d="M732.81,59.65V51.9l14.87-28A10.26,10.26,0,0,0,749,20.19a38.91,38.91,0,0,0,.16-3.92c0-.7,0-1.44,0-2.22a5.63,5.63,0,0,0-.44-2.06,3.92,3.92,0,0,0-1.22-1.5,3.87,3.87,0,0,0-2.34-.6,4.08,4.08,0,0,0-3,1A4.09,4.09,0,0,0,741.05,14v4.68h-8.24V14.17a12.32,12.32,0,0,1,1-4.85,12.8,12.8,0,0,1,2.67-4,12,12,0,0,1,3.88-2.7,11.76,11.76,0,0,1,4.84-1,12.12,12.12,0,0,1,5.54,1.17A11.09,11.09,0,0,1,754.54,6a13.75,13.75,0,0,1,2.14,4.61,21.17,21.17,0,0,1,.69,5.49c0,1.4,0,2.57-.08,3.51a20.73,20.73,0,0,1-.32,2.71,11.89,11.89,0,0,1-.81,2.59c-.38.86-.89,1.91-1.54,3.15L742.51,51.41h14.86v8.24Z"/></g></g></svg>