<svg id="レイヤー_1" data-name="レイヤー 1" xmlns="http://www.w3.org/2000/svg" width="20.9" height="26" viewBox="0 0 20.9 26">
  <title>nav_tw</title>
  <path d="M18.76,8.74v.55a12.13,12.13,0,0,1-12,12.2H6.56A12.11,12.11,0,0,1,0,19.57a8.39,8.39,0,0,0,1,.06A8.62,8.62,0,0,0,6.32,17.8a4.29,4.29,0,0,1-4-3,4.24,4.24,0,0,0,1.94-.07,4.28,4.28,0,0,1-3.44-4.2v0a4.19,4.19,0,0,0,2,.52A4.3,4.3,0,0,1,1.46,5.29,12.17,12.17,0,0,0,10.3,9.77a4.29,4.29,0,0,1,7.3-3.91,8.73,8.73,0,0,0,2.72-1,4.28,4.28,0,0,1-1.89,2.37,8.4,8.4,0,0,0,2.46-.67A8.82,8.82,0,0,1,18.76,8.74Z"/>
</svg>
