<svg id="レイヤー_1" data-name="レイヤー 1" xmlns="http://www.w3.org/2000/svg" width="205.38" height="204.63" viewBox="0 0 205.38 204.63">
  <defs>
    <style>
      .cls-1 {
        fill: #fff;
      }
    </style>
  </defs>
  <title>tgs</title>
  <g>
    <rect width="205.38" height="204.63"/>
    <g>
      <path class="cls-1" d="M14.09,190.09c-2.79.32-4.5.8-4.5,4v1.34H37.93v8.79H0v-8.41c0-4.08,0-12.86,10.45-14.1l13.71-1.6c3.11-.38,4.56-.91,4.56-4.5,0-3.75-1.18-5.25-9.11-5.25-8.95,0-9.27,1.12-9.38,6.37H.8c0-9,.49-15.16,18.06-15.16,11.14,0,19.4.75,19.4,13.5,0,5.46-1.4,8.25-3.27,9.91a13.7,13.7,0,0,1-7.88,3.54Z"/>
      <path class="cls-1" d="M61.51,161.53c17.15,0,19.5,4,19.5,21.91,0,17.25-3.21,21.17-18.32,21.17-16.18,0-20-1.93-20-21.54C42.65,165.71,45.7,161.53,61.51,161.53Zm-9.22,21.7c0,12.54.65,12.64,10.13,12.64,8,0,9-.64,9-11.63,0-2.3-.11-9.37-.81-11.19-.91-2.52-3.91-2.73-8.73-2.73C52.94,170.32,52.29,170.58,52.29,183.23Z"/>
      <path class="cls-1" d="M102.82,162v42.22h-9.7V170.74H84.44V162Z"/>
      <path class="cls-1" d="M110.16,173.58c0-9.69,6-12.05,18-12.05s19.34,1.34,19.34,12c0,3.8-1,7.07-5.09,8.79a6.17,6.17,0,0,1,3.22,1.82c2.51,2.78,2.57,7.34,2.57,8.3,0,11.15-9,12.17-18.54,12.17s-20.15-.22-20.15-12.06c0-1.07.11-5.73,2.63-8.41a6.22,6.22,0,0,1,3.16-1.82C111.55,180.76,110.16,177.82,110.16,173.58ZM119,191.32c0,4.07,1.87,4.77,9.86,4.77,8.46,0,9.91-.81,9.91-5.09,0-4.5-2.68-4.77-9.91-4.77C120.88,186.23,119,186.71,119,191.32Zm.69-16.93c0,3.69,1.61,4.23,9.81,4.23,7.66,0,8.52-1,8.52-4.5,0-3.11-1-4.18-9.16-4.18C120.23,169.94,119.64,171.12,119.64,174.39Z"/>
    </g>
    <g>
      <path class="cls-1" d="M23.87,8.89v33.4H14.18V8.89H0V.11H38.06V8.89Z"/>
      <path class="cls-1" d="M110.81.11h12.1L105.14,20.5l18.52,21.79H111.35L94.11,20.88V42.29H84.53V.11h9.58v20Z"/>
      <path class="cls-1" d="M134.73.11l9.47,17,9.53-17h11.18L149,25.8V42.29h-9.64V25.8L123.48.11Z"/>
      <path class="cls-1" d="M41.64,0V42.41H81.17V0ZM72.13,33.15H50.67V9.27H72.13Z"/>
      <path class="cls-1" d="M165.85,0V42.41h39.53V0Zm30.49,33.15H174.89V9.27h21.45Z"/>
    </g>
    <g>
      <path class="cls-1" d="M85.43,96.64H74.62l-3.16-8.78H54.7l-3.15,8.78H40.73L56.79,54.46H69.31ZM63.05,63.77,57.27,79.56H68.84Z"/>
      <path class="cls-1" d="M100.77,54.46,110,84.92l9.27-30.46h14V96.64h-9.1V76.35c0-1.34.26-10.33.32-11.88l-10,32.17h-9l-10-32.17c0,1.33.32,10.54.32,11.88V96.64H86.8V54.46Z"/>
      <path class="cls-1" d="M170.39,54.46v8.77H146.08v7.82h23.34v8.4H146.08v8.41H171v8.78H136.45V54.46Z"/>
      <polygon class="cls-1" points="39.53 69.13 39.53 54.35 0 54.35 0 96.76 39.53 96.76 39.53 82.03 39.53 72.86 30.49 72.86 19.7 72.86 19.7 82.03 30.49 82.03 30.49 87.49 9.04 87.49 9.04 63.62 30.49 63.62 30.49 69.13 39.53 69.13"/>
    </g>
    <g>
      <path class="cls-1" d="M47.86,108.84V124.9H68.42V108.84h9.63V151H68.42V133.68H47.86V151H38.28V108.84Z"/>
      <path class="cls-1" d="M132.57,108.84l4.71,32.6,4.71-32.6h12.74l4.71,32.6,4.71-32.6h10L166,151h-13l-4.71-32.18L143.65,151h-12.9l-8.19-42.19Z"/>
      <path class="cls-1" d="M81.72,108.73v42.41h39.53V108.73Zm30.5,33.15H90.76V118h21.46Z"/>
      <polygon class="cls-1" points="34.5 117.17 34.5 108.44 0 108.44 0 112.44 0 117.17 0 125.32 0 131.36 0 134.05 25.77 134.05 25.77 142.21 0 142.21 0 150.94 25.77 150.94 34.5 150.94 34.5 142.21 34.5 134.05 34.5 132.01 34.5 125.32 8.73 125.32 8.73 117.17 34.5 117.17"/>
    </g>
  </g>
</svg>
