<svg xmlns="http://www.w3.org/2000/svg" viewBox="0 0 131.36 45.85"><defs><style>.cls-1{fill:#fff;}.cls-2{fill:#d32f2f;}.cls-3{fill:#888675;}.cls-4{fill:#231815;}</style></defs><title>2018_logo</title><g id="レイヤー_2" data-name="レイヤー 2"><g id="レイヤー_3" data-name="レイヤー 3"><polygon class="cls-1" points="54.37 3.72 54.37 17.45 49.57 17.45 49.57 3.72 45.02 3.72 45.02 0 58.93 0 58.93 3.72 54.37 3.72"/><path class="cls-1" d="M68.48,11.34h-2v6.11H61.79V0h6.88c4.55,0,6.88,2,6.88,5.53a4.75,4.75,0,0,1-2.82,4.67l3.85,7v.24H71.69Zm-2-8V8.08h1.73c2,0,2.77-.87,2.77-2.43s-.84-2.29-2.85-2.29Z"/><polygon class="cls-1" points="79.19 0 90.58 0 90.58 3.44 83.93 3.44 83.93 6.81 89.61 6.81 89.61 10.23 83.93 10.23 83.93 14.02 90.7 14.02 90.7 17.45 79.19 17.45 79.19 0"/><polygon class="cls-1" points="107.07 17.79 98.4 7.86 98.4 17.59 94.32 17.59 94.32 0 97.16 0 105.73 9.81 105.73 0.17 109.81 0.17 109.81 17.79 107.07 17.79"/><path class="cls-1" d="M113.65,0h6.28c5.62,0,9.95,2.57,9.95,8.87s-4.33,8.68-9.95,8.68h-6.28Zm4.77,3.54V14h1.25c3.19,0,5.34-1.24,5.34-5.15s-2.15-5.33-5.34-5.33Z"/><path class="cls-1" d="M8.8,13.55l0,1H7v-.86H1.85v.86H0c0-.27,0-.63,0-1V4.31c0-.34,0-.71,0-1H8.83c0,.33,0,.63,0,1Zm-7-6H7V5H1.85ZM7,9.19H1.85V12H7Z"/><path class="cls-1" d="M14.82,14a5.43,5.43,0,0,0,0,.58H13.3a5.43,5.43,0,0,0,0-.58V9.37c-.53.06-1,.09-1.33.12l-.61.09-.19-1.49h1.12c.23-.27.48-.57.72-.9-.57-.66-1.19-1.31-1.76-1.85l.81-1.24c.11.12.25.28.4.43a8.88,8.88,0,0,0,1.12-2l1.32.78a1.35,1.35,0,0,0-.16.19,16.18,16.18,0,0,1-1.35,2.14l.42.5a13.35,13.35,0,0,0,1.45-2.45l1.28.77a1.24,1.24,0,0,1-.18.21C15.81,5.55,14.88,6.85,14,8l1.18-.11a9.31,9.31,0,0,0-.33-1L16,6.58a18.83,18.83,0,0,1,.83,2.81c-.38.12-.87.26-1.26.36,0-.18-.07-.39-.11-.59l-.65.05Zm-3.06-4,1.25.21s0,.15,0,.26a14,14,0,0,1-.44,3.44c-.22-.09-.83-.33-1.25-.48A11.18,11.18,0,0,0,11.76,10M22.6,12.81c.36,0,.66,0,.91,0V14.4a8.16,8.16,0,0,0-.91,0H17.1a8.45,8.45,0,0,0-.92,0V12.8l-.73.21a17.73,17.73,0,0,0-.35-2.88l1.11-.3a17.57,17.57,0,0,1,.51,2.81,3.84,3.84,0,0,1-.49.15c.24,0,.54,0,.87,0h2.1V11.4H17.08V9.91H19.2V9.11a3.67,3.67,0,0,0,0-.46c.38,0,1.39,0,1.76.07a2.56,2.56,0,0,0,0,.39v.81h2.19v1.5H20.9v1.41Zm-3.83-6a5.9,5.9,0,0,1-1.31-2.17h-.68V3.2h4.95l.12-.13a12.5,12.5,0,0,1,1.36,1.13,1.86,1.86,0,0,1-.2.1,6.06,6.06,0,0,1-1.62,2.57,9.09,9.09,0,0,0,2.12.55c-.2.45-.5,1.19-.62,1.56a9.31,9.31,0,0,1-2.77-1,10.14,10.14,0,0,1-2.74,1c-.13-.38-.49-1.13-.71-1.61a9,9,0,0,0,2.1-.53m2.48-2.17H19.07a3.87,3.87,0,0,0,1,1.41,3.81,3.81,0,0,0,1.14-1.41"/><polygon class="cls-2" points="27.66 17.49 28.39 17.49 37.99 0 37.26 0 27.66 17.49"/><polygon class="cls-2" points="28.87 17.49 29.6 17.49 39.2 0 38.48 0 28.87 17.49"/><polygon class="cls-2" points="30.09 17.49 30.81 17.49 40.42 0 39.69 0 30.09 17.49"/><polygon class="cls-2" points="31.3 17.49 32.03 17.49 41.63 0 40.91 0 31.3 17.49"/><polygon class="cls-2" points="32.52 17.49 33.24 17.49 42.85 0 42.12 0 32.52 17.49"/><polygon class="cls-2" points="30.68 4.38 32.41 7.62 32.65 7.11 31.15 4.38 31.55 4.38 32.84 6.72 33.05 6.25 32.02 4.38 32.41 4.38 33.24 5.88 34.65 2.91 33.06 0 27.41 0 31.98 8.55 32.19 8.07 30.28 4.38 30.68 4.38"/><polygon class="cls-2" points="38.29 17.49 38.76 17.49 36.46 13.3 36.23 13.75 38.29 17.49"/><polygon class="cls-2" points="37.45 17.49 37.92 17.49 36.07 14.12 35.85 14.6 37.45 17.49"/><polygon class="cls-2" points="36.65 12.92 39.16 17.49 39.63 17.49 36.86 12.45 36.65 12.92"/><polygon class="cls-2" points="37.1 11.96 40.02 17.49 43.1 17.49 38.53 8.95 37.1 11.96"/><path class="cls-3" d="M131.36,23.22,25.18,23.3A11,11,0,0,0,15.1,29.13V23.67H0V45.85H120.13A10.84,10.84,0,0,0,131.36,34.6Z"/><path class="cls-1" d="M6.45,36.71v6.8H2V25.69h11.1V29H6.45v4.45h5.92v3.29Z"/><path class="cls-1" d="M16,34.54c0-5.29,3.73-9.21,9.36-9.21s9.35,3.92,9.35,9.21a9,9,0,0,1-9.35,9.33A9,9,0,0,1,16,34.54Zm14.1,0c0-3.57-1.83-5.81-4.74-5.81S20.6,31,20.6,34.54s1.8,5.89,4.75,5.89S30.09,38.09,30.09,34.54Z"/><path class="cls-1" d="M43.84,37.1H41.71v6.41H37.25V25.69H44c4.56,0,7,2,7,5.57a4.79,4.79,0,0,1-3.06,4.8l4.15,7.21v.24H47.4Zm-2.13-8.22V34h1.95c2.15,0,3-1,3-2.64s-.93-2.48-3.07-2.48Z"/><path class="cls-1" d="M77.87,43.51H74.22V25.69h5.26l3.18,8.54.86,3.13.89-3.13,3.26-8.54H93V43.51H88.86V36.29l.32-5.73-1.54,4.95-3,8H82l-2.92-8-1.54-5.14.32,5.92Z"/><path class="cls-1" d="M54.64,36.53V25.64H59.2V36.45c0,2.48,1.2,3.74,3.38,3.74S66,38.93,66,36.45V25.64h4.06V36.53c0,4.55-2.72,7.32-7.64,7.32S54.64,41.29,54.64,36.53Z"/><path class="cls-4" d="M97.14,38l2.63-2.91a3.6,3.6,0,0,0,1.13-2.3c0-.7-.4-1.26-1.43-1.26a3.57,3.57,0,0,0-2.14.68l-.1,0V30.46a4.69,4.69,0,0,1,2.68-.66c2,0,3.27,1,3.27,2.8a5.31,5.31,0,0,1-1.72,3.48L99.84,37.8l1.54-.13h1.93v1.67H97.14Z"/><path class="cls-4" d="M104.46,34.61c0-3.08,1.69-4.81,4.09-4.81s4.06,1.73,4.08,4.81-1.67,4.9-4.08,4.9S104.47,37.69,104.46,34.61Zm5.78,0c0-2.06-.56-3.09-1.69-3.09s-1.69,1-1.69,3.09.57,3.16,1.69,3.16S110.24,36.68,110.24,34.61Z"/><path class="cls-4" d="M115.85,39.34v-7l-1.75,1.13-.09,0V31.47l2.46-1.57h1.68v9.44Z"/><path class="cls-4" d="M120.11,36.91a2.29,2.29,0,0,1,1.89-2.1,2.58,2.58,0,0,1-1.64-2.37c0-1.68,1.51-2.64,3.29-2.64s3.4.71,3.4,2.49a2.14,2.14,0,0,1-1.65,1.94,2.61,2.61,0,0,1,1.92,2.52c0,1.69-1.34,2.76-3.57,2.76S120.11,38.49,120.11,36.91Zm5-.08c0-.7-.52-1.12-1.84-1.56a1.68,1.68,0,0,0-1,1.46c0,.8.54,1.22,1.47,1.22S125.09,37.47,125.09,36.83Zm-1-3a1.59,1.59,0,0,0,.89-1.34,1.13,1.13,0,0,0-1.27-1.16,1.07,1.07,0,0,0-1.2,1.05C122.53,32.92,123,33.38,124.11,33.79Z"/></g></g></svg>