<svg xmlns="http://www.w3.org/2000/svg" viewBox="0 0 333.78 372"><defs><style>.cls-1{opacity:0.3;}.cls-2{fill:#d32f2f;}</style></defs><title>bg</title><g id="レイヤー_2" data-name="レイヤー 2"><g id="レイヤー_1-2" data-name="レイヤー 1"><g class="cls-1"><polygon class="cls-2" points="5.35 372 20.88 372 225.01 0 209.62 0 5.35 372"/><polygon class="cls-2" points="31.16 372 46.67 372 250.84 0 235.4 0 31.16 372"/><polygon class="cls-2" points="57.02 372 72.44 372 276.8 0 261.36 0 57.02 372"/><polygon class="cls-2" points="82.86 372 98.26 372 302.63 0 287.26 0 82.86 372"/><polygon class="cls-2" points="108.76 372 124.17 372 328.44 0 313.04 0 108.76 372"/><polygon class="cls-2" points="69.53 93.15 106.4 162.2 111.54 151.25 79.65 93.15 88.08 93.15 115.61 143.03 120.12 132.99 98.07 93.15 106.46 93.15 124.1 125.18 154.06 61.85 120.2 0 0 0 97.22 181.81 101.72 171.68 61.24 93.15 69.53 93.15"/><polygon class="cls-2" points="231.5 372 241.56 372 192.49 282.84 187.79 292.53 231.5 372"/><polygon class="cls-2" points="213.64 372 223.62 372 184.25 300.29 179.64 310.43 213.64 372"/><polygon class="cls-2" points="196.5 274.82 249.91 372 259.97 372 201.08 264.77 196.5 274.82"/><polygon class="cls-2" points="206.23 254.48 268.34 372 333.78 372 236.56 190.36 206.23 254.48"/></g></g></g></svg>