<svg xmlns="http://www.w3.org/2000/svg" viewBox="0 0 601.65 211.18"><defs><style>.cls-1{fill:#d32f2f;}.cls-2{fill:#231815;}.cls-3{fill:#fff;}</style></defs><title>h1_logo</title><g id="レイヤー_2" data-name="レイヤー 2"><g id="レイヤー_1-2" data-name="レイヤー 1"><path class="cls-1" d="M598.21,108.17l-483.49.38C94,108.55,77.2,118.83,68.81,135V110.21H0v101H547.07c29.61,0,51.14-21.24,51.14-51.2Z"/><path class="cls-2" d="M442.39,176.06l12.11-13.41c3.39-3.9,5.21-7.09,5.21-10.61,0-3.25-1.82-5.79-6.58-5.79-4.16,0-6.7,1.11-9.89,3.13l-.45-.2v-8.07c2.92-1.89,6.64-3.06,12.36-3.06,9.18,0,15.1,4.62,15.1,12.95,0,5.92-3.25,10.74-7.94,16L454.83,175l7.09-.58h8.91V182H442.39Z"/><path class="cls-2" d="M476.11,160.24c0-14.18,7.81-22.19,18.88-22.19s18.74,8,18.8,22.19-7.67,22.58-18.8,22.58S476.18,174.43,476.11,160.24Zm26.68,0q0-14.25-7.8-14.25c-5.15,0-7.82,4.75-7.82,14.25s2.67,14.58,7.82,14.58S502.79,169.81,502.79,160.24Z"/><path class="cls-2" d="M528.64,182V149.63l-8.07,5.21-.39-.2v-8.85l11.32-7.28h7.74V182Z"/><path class="cls-2" d="M550.18,180.74v-8.26l.46-.2a15.71,15.71,0,0,0,8.92,2.54c7,0,10.61-2.86,11.45-11.58-1.89,1.62-5,3-9.5,3-7.36,0-13.41-4.3-13.41-13.67,0-8.26,5.93-14.51,16.21-14.51,10.86,0,17.44,7,17.44,20.5,0,17.38-8.53,24.27-21.09,24.27A22.85,22.85,0,0,1,550.18,180.74Zm21-23.49c-.27-8.27-2.35-11.58-6.71-11.58-4.17,0-6,2.79-6,7,0,4.62,2.15,6.7,6.44,6.7A10.63,10.63,0,0,0,571.21,157.25Z"/><path class="cls-3" d="M29.42,169.55v31H9.15v-81.2H59.69v15H29.42v20.3H56.37v15Z"/><path class="cls-3" d="M72.87,159.68c0-24.08,17-42,42.61-42s42.6,17.92,42.6,42-16.84,42.49-42.6,42.49S72.87,183.68,72.87,159.68Zm64.21,0c0-16.24-8.33-26.44-21.6-26.44s-21.6,10.2-21.6,26.44,8.18,26.82,21.6,26.82S137.08,175.83,137.08,159.68Z"/><path class="cls-3" d="M199.71,171.32H190v29.21H169.7v-81.2h30.74c20.76,0,31.7,9.28,31.7,25.42,0,10.91-5.1,18.25-13.9,21.84l18.88,32.85v1.09H215.88ZM190,133.92V157.2h8.9c9.76,0,13.64-4.29,13.64-12s-4.24-11.27-14-11.27Z"/><path class="cls-3" d="M354.62,200.53H338v-81.2h24l14.46,38.93,3.92,14.26,4.06-14.26,14.83-38.93h24.43v81.2h-19V167.66l1.42-26.12-7,22.55-13.65,36.44h-12l-13.3-36.44-7-23.37,1.43,26.94Z"/><path class="cls-3" d="M248.89,168.72V119.15h20.73v49.21c0,11.32,5.48,17,15.37,17s15.61-5.72,15.61-17V119.15h18.47v49.57c0,20.74-12.4,33.37-34.8,33.37C261.64,202.09,248.89,190.42,248.89,168.72Z"/><polygon class="cls-3" points="251.86 17.21 251.86 80.85 229.62 80.85 229.62 17.21 208.52 17.21 208.52 0 272.96 0 272.96 17.21 251.86 17.21"/><path class="cls-3" d="M317.2,52.54h-9.08V80.85H286.21V0H318.1C339.18,0,350,9.44,350,25.61c0,10.55-4.83,18-13.08,21.64l17.86,32.47v1.13H332.06Zm-9.08-37V37.42h8c9.3,0,12.87-4,12.87-11.26,0-7.44-3.9-10.62-13.2-10.62Z"/><polygon class="cls-3" points="366.83 0 419.58 0 419.58 15.96 388.76 15.96 388.76 31.55 415.11 31.55 415.11 47.38 388.76 47.38 388.76 64.92 420.16 64.92 420.16 80.85 366.83 80.85 366.83 0"/><polygon class="cls-3" points="495.96 82.39 455.8 36.41 455.8 81.51 436.9 81.51 436.9 0 450.07 0 489.76 45.45 489.76 0.82 508.68 0.82 508.68 82.39 495.96 82.39"/><path class="cls-3" d="M526.46,0h29c26.06,0,46.14,11.9,46.14,41.07,0,29.32-20.08,40.25-46.14,40.25h-29Zm22.1,16.41V64.94h5.79c14.77,0,24.7-5.75,24.7-23.87,0-17.75-9.93-24.66-24.7-24.66Z"/><path class="cls-3" d="M40.76,62.78l.11,4.51H32.29v-4H8.56v4H0c0-1.25.08-2.92.08-4.51V20c0-1.61-.07-3.3-.08-4.49H40.87c0,1.49-.11,2.88-.11,4.49ZM8.56,35.07H32.29V23H8.56Zm23.73,7.54H8.56V55.7H32.29Z"/><path class="cls-3" d="M68.67,64.71c0,.9,0,1.93,0,2.72H61.57a21.6,21.6,0,0,0,.11-2.72V43.42c-2.47.25-4.68.41-6.13.56-.71.07-2,.26-2.83.43l-.9-6.91c.8,0,2.36,0,3.68,0a10.69,10.69,0,0,0,1.5-.08c1.08-1.25,2.21-2.65,3.36-4.15-2.64-3.07-5.52-6.07-8.17-8.59L55.92,19c.54.53,1.2,1.27,1.86,2A43.56,43.56,0,0,0,63,11.52l6.07,3.58a8.6,8.6,0,0,0-.72.9,78.77,78.77,0,0,1-6.26,9.88c.68.78,1.32,1.57,1.93,2.34a61.84,61.84,0,0,0,6.72-11.35l5.95,3.55a6.51,6.51,0,0,1-.84,1,188.45,188.45,0,0,1-11,15.52c1.93-.16,3.85-.35,5.47-.53a40,40,0,0,0-1.49-4.52l5.28-1.38a82.09,82.09,0,0,1,3.85,13c-1.75.57-4,1.24-5.82,1.7-.11-.83-.3-1.8-.49-2.76-.91,0-1.92.19-3,.27ZM54.48,46.44c1.91.3,4.21.67,5.76,1,0,.24-.1.67-.18,1.19a63.67,63.67,0,0,1-2,15.94c-1-.42-3.84-1.52-5.77-2.22,1.45-4.1,2.11-9.51,2.23-15.88m50.21,12.92c1.66,0,3.06,0,4.18-.12v7.45c-1.12-.11-2.52-.11-4.18-.11H79.18c-1.62,0-3.05,0-4.25.11V59.31l-3.38.95a81,81,0,0,0-1.63-13.35l5.18-1.36a88.53,88.53,0,0,1,2.36,13,23.21,23.21,0,0,1-2.29.66c1.12.12,2.51.12,4,.12h9.73V52.81H82.79c-1.45,0-2.58,0-3.67,0v-7c1.09,0,2.22,0,3.67,0h6.12V42.21c0-.53,0-1.57-.1-2.13,1.73.05,6.44.16,8.11.29,0,.54-.11,1.31-.11,1.84V46h6.49c1.43,0,2.63,0,3.64,0v7c-1,0-2.21,0-3.64,0H96.81v6.55ZM86.94,31.71a27.36,27.36,0,0,1-6.07-10c-1.15,0-2.24,0-3.11.06V14.82c1,.06,2.08.06,3.28.06h19.61l.53-.62a56.58,56.58,0,0,1,6.33,5.24c-.26.18-.64.3-.92.48a27.93,27.93,0,0,1-7.51,11.9,43.21,43.21,0,0,0,9.79,2.55c-.9,2.09-2.28,5.53-2.83,7.22-4.49-1.1-9.17-2.49-12.84-4.88-3.6,2.27-8.06,3.6-12.68,4.88-.63-1.76-2.3-5.25-3.31-7.48a38.73,38.73,0,0,0,9.73-2.46m11.49-10H88.31a18.3,18.3,0,0,0,4.84,6.55,17.7,17.7,0,0,0,5.28-6.55"/><polygon class="cls-1" points="128.11 81.02 131.49 81.02 175.95 0 172.6 0 128.11 81.02"/><polygon class="cls-1" points="133.73 81.02 137.11 81.02 181.58 0 178.21 0 133.73 81.02"/><polygon class="cls-1" points="139.36 81.02 142.72 81.02 187.23 0 183.87 0 139.36 81.02"/><polygon class="cls-1" points="144.99 81.02 148.34 81.02 192.86 0 189.51 0 144.99 81.02"/><polygon class="cls-1" points="150.63 81.02 153.99 81.02 198.48 0 195.12 0 150.63 81.02"/><polygon class="cls-1" points="142.09 20.29 150.12 35.33 151.24 32.94 144.29 20.29 146.13 20.29 152.12 31.15 153.1 28.96 148.3 20.29 150.13 20.29 153.97 27.27 160.5 13.47 153.12 0 126.94 0 148.12 39.6 149.1 37.39 140.28 20.29 142.09 20.29"/><polygon class="cls-1" points="177.36 81.02 179.56 81.02 168.87 61.6 167.84 63.72 177.36 81.02"/><polygon class="cls-1" points="173.47 81.02 175.65 81.02 167.07 65.41 166.07 67.61 173.47 81.02"/><polygon class="cls-1" points="169.74 59.86 181.37 81.02 183.56 81.02 170.74 57.67 169.74 59.86"/><polygon class="cls-1" points="171.86 55.43 185.39 81.02 199.64 81.02 178.47 41.46 171.86 55.43"/></g></g></svg>