<svg xmlns="http://www.w3.org/2000/svg" viewBox="0 0 39.47 43.99"><defs><style>.cls-1{fill:#d32f2f;}</style></defs><title>h2_mark</title><g id="レイヤー_2" data-name="レイヤー 2"><g id="レイヤー_1-2" data-name="レイヤー 1"><polygon class="cls-1" points="0.63 43.99 2.47 43.99 26.61 0 24.79 0 0.63 43.99"/><polygon class="cls-1" points="3.69 43.99 5.52 43.99 29.66 0 27.84 0 3.69 43.99"/><polygon class="cls-1" points="6.74 43.99 8.57 43.99 32.73 0 30.91 0 6.74 43.99"/><polygon class="cls-1" points="9.8 43.99 11.62 43.99 35.79 0 33.97 0 9.8 43.99"/><polygon class="cls-1" points="12.86 43.99 14.68 43.99 38.84 0 37.02 0 12.86 43.99"/><polygon class="cls-1" points="8.22 11.02 12.58 19.18 13.19 17.89 9.42 11.02 10.41 11.02 13.67 16.91 14.2 15.73 11.6 11.02 12.59 11.02 14.67 14.8 18.22 7.31 14.21 0 0 0 11.5 21.5 12.03 20.3 7.24 11.02 8.22 11.02"/><polygon class="cls-1" points="27.38 43.99 28.57 43.99 22.76 33.45 22.21 34.59 27.38 43.99"/><polygon class="cls-1" points="25.26 43.99 26.44 43.99 21.79 35.51 21.24 36.71 25.26 43.99"/><polygon class="cls-1" points="23.24 32.5 29.55 43.99 30.74 43.99 23.78 31.31 23.24 32.5"/><polygon class="cls-1" points="24.39 30.09 31.73 43.99 39.47 43.99 27.97 22.51 24.39 30.09"/></g></g></svg>