<svg xmlns="http://www.w3.org/2000/svg" viewBox="0 0 1536 972.28"><defs><style>.cls-1{fill:#0c0312;opacity:0.85;}</style></defs><title>main_mask</title><g id="レイヤー_2" data-name="レイヤー 2"><g id="レイヤー_1-2" data-name="レイヤー 1"><path class="cls-1" d="M1536,972.28H0V.86H1536Zm-1501,0H75.35L609.28,0H569Zm67.55,0h40.36L677,0H636.6Zm67.55,0h40.39L744.64,0H704.29Zm67.59,0H278L812.2,0H771.85Zm67.57,0h40.26L879.67,0H839.46ZM202.74,243.05l96.37,180.76,13.44-28.68L229.09,243.05H251l72,130.53,11.9-26.22L277.38,243.05h21.83l46.21,83.89,78.31-165.62L335.17,0H21L275.06,474.9,287,448.63,180.93,243.05ZM626.17,972.28h26.4L524.25,739.54,512,764.67Zm-46.83,0h26.47L502.69,785l-11.9,26.32ZM534.77,718.37,674.42,972.28h26.31L546.74,692Zm25.4-53.27L722.7,972.28h171L639.38,497.6Z"/></g></g></svg>