<svg xmlns="http://www.w3.org/2000/svg" viewBox="0 0 51.71 77.86"><defs><style>.cls-1,.cls-2{fill:none;stroke:#fff;stroke-miterlimit:10;}.cls-1{stroke-width:1.48px;}.cls-2{stroke-width:1.9px;}.cls-3{fill:#fff;}</style></defs><title>mouse</title><g id="レイヤー_2" data-name="レイヤー 2"><g id="レイヤー_1-2" data-name="レイヤー 1"><path class="cls-1" d="M41.16,41.22a14.93,14.93,0,1,1-29.86,0V15.67a14.93,14.93,0,1,1,29.86,0Z"/><path class="cls-2" d="M28.58,21.27a2.35,2.35,0,0,1-4.7,0v-4a2.35,2.35,0,1,1,4.7,0Z"/><line class="cls-1" x1="26.12" y1="14.97" x2="26.12" y2="0.7"/><path class="cls-3" d="M8,70.25a4.18,4.18,0,0,0-3.29-1.54c-1.07,0-1.59.42-1.59,1s.36.9,2.05,1.25c2.89.59,4.2,1.73,4.2,3.67s-1.58,3.21-4.6,3.21A5.88,5.88,0,0,1,0,75.8l1.17-1.92a5.07,5.07,0,0,0,3.64,1.88c1.17,0,1.71-.42,1.71-1.09s-.64-1.21-2.46-1.6C1.42,72.53.35,71.38.35,69.8c0-1.77,1.55-3.07,4.36-3.07A5.47,5.47,0,0,1,9.06,68.4Z"/><path class="cls-3" d="M20.63,76.24a5.21,5.21,0,0,1-4.21,1.62,5.57,5.57,0,1,1,0-11.13,5.61,5.61,0,0,1,4.07,1.4l-.92,2.15a3.31,3.31,0,0,0-2.79-1.34,3.37,3.37,0,0,0,.06,6.73,3.56,3.56,0,0,0,2.88-1.43Z"/><path class="cls-3" d="M22.64,77.63V67H25v1.09c.71-.92,1.67-1.28,3.55-1.32L29,69.07A7.27,7.27,0,0,0,27.87,69a2.38,2.38,0,0,0-2.5,1.55v7.12Z"/><path class="cls-3" d="M30.18,72.3c0-3.38,2.11-5.57,5.46-5.57s5.44,2.19,5.44,5.57S39,77.86,35.64,77.86,30.18,75.67,30.18,72.3Zm8.13,0c0-2.11-1.06-3.38-2.67-3.38S33,70.19,33,72.3s1.13,3.39,2.69,3.39S38.31,74.42,38.31,72.3Z"/><path class="cls-3" d="M43.29,77.63v-15h2.79v15Z"/><path class="cls-3" d="M48.92,77.63v-15h2.79v15Z"/></g></g></svg>