<?xml version="1.0" encoding="utf-8"?>
<svg version="1.1" xmlns="http://www.w3.org/2000/svg" xmlns:xlink="http://www.w3.org/1999/xlink" x="0px" y="0px" width="60px" height="60px" viewBox="0 0 60 60" style="enable-background:new 0 0 60 60;" xml:space="preserve">
<style type="text/css">
	.st0{fill:#fff;}
</style>
<path class="st0" d="M0,0v60h60V0H0z M43.1,28.1C41.9,29.4,32.3,39,32.3,39c-1.2,1.2-3.1,1.4-4.4,0.2c-0.1,0-0.1-0.1-0.2-0.2
	c0,0-9.6-9.6-10.8-10.9c-1.2-1.4-1.2-3.6,0-5c1.1-1.3,2.9-1.5,4.2-0.4c0.2,0.2,0.3,0.3,0.4,0.4l8.5,8.6l8.5-8.6
	c1.1-1.3,2.9-1.5,4.2-0.4c0.2,0.2,0.3,0.3,0.4,0.4C44.3,24.5,44.3,26.7,43.1,28.1z"/>
</svg>
