<?xml version="1.0" encoding="utf-8"?>
<svg version="1.1" xmlns="http://www.w3.org/2000/svg" xmlns:xlink="http://www.w3.org/1999/xlink" x="0px" y="0px" width="60px" height="60px" viewBox="0 0 60 60" style="enable-background:new 0 0 60 60;" xml:space="preserve">
<style type="text/css">
	.st0{fill:#fff;}
</style>
<path class="st0" d="M32.3,39c0,0,9.6-9.6,10.8-10.9c1.2-1.4,1.2-3.6,0-5c-0.1-0.1-0.2-0.2-0.4-0.4c-1.3-1.1-3.1-0.9-4.2,0.4
	L30,31.7l-8.5-8.6c-0.1-0.1-0.2-0.2-0.4-0.4c-1.3-1.1-3.1-0.9-4.2,0.4c-1.2,1.4-1.2,3.6,0,5C18.1,29.4,27.7,39,27.7,39
	c0.1,0.1,0.1,0.2,0.2,0.2C29.2,40.4,31.1,40.2,32.3,39z"/>
</svg>
