<?xml version="1.0" encoding="utf-8"?>
<svg version="1.1" xmlns="http://www.w3.org/2000/svg" xmlns:xlink="http://www.w3.org/1999/xlink" x="0px" y="0px" width="60px" height="60px" viewBox="0 0 60 60" style="enable-background:new 0 0 60 60;" xml:space="preserve">
<style type="text/css">
	.st0{fill:#fff;}
</style>
<path class="st0" d="M21,32.3c0,0,9.6,9.6,10.9,10.8c1.4,1.2,3.6,1.2,5,0c0.1-0.1,0.2-0.2,0.4-0.4c1.1-1.3,0.9-3.1-0.4-4.2L28.3,30
	l8.6-8.5c0.1-0.1,0.2-0.2,0.4-0.4c1.1-1.3,0.9-3.1-0.4-4.2c-1.4-1.2-3.6-1.2-5,0C30.6,18.1,21,27.7,21,27.7
	c-0.1,0.1-0.2,0.1-0.2,0.2C19.6,29.2,19.8,31.1,21,32.3z"/>
</svg>
