<?xml version="1.0" encoding="iso-8859-1"?>
<!-- Generator: Adobe Illustrator 18.1.1, SVG Export Plug-In . SVG Version: 6.00 Build 0)  -->
<svg version="1.1" id="&#x30EC;&#x30A4;&#x30E4;&#x30FC;_1"
	 xmlns="http://www.w3.org/2000/svg" xmlns:xlink="http://www.w3.org/1999/xlink" x="0px" y="0px" viewBox="21 -21 60 60"
	 style="enable-background:new 21 -21 60 60;" xml:space="preserve">
<path style="fill:#FFFFFF;" d="M21-21v60h60v-60H21z M65,9.4c0,1.8-1.5,3.2-3.2,3.2h-7.3v7.3c0,1.8-1.5,3.2-3.2,3.2h-0.7
	c-1.8,0-3.2-1.5-3.2-3.2v-7.3h-7.3c-1.8,0-3.2-1.5-3.2-3.2V8.7c0-1.8,1.5-3.2,3.2-3.2h7.3v-7.3c0-1.8,1.5-3.2,3.2-3.2h0.7
	c1.8,0,3.2,1.5,3.2,3.2v7.3h7.3c1.8,0,3.2,1.4,3.2,3.2V9.4z"/>
</svg>
