<?xml version="1.0" encoding="utf-8"?>
<svg version="1.1" xmlns="http://www.w3.org/2000/svg" xmlns:xlink="http://www.w3.org/1999/xlink" x="0px" y="0px" width="60px" height="60px" viewBox="0 0 60 60" style="enable-background:new 0 0 60 60;" xml:space="preserve">
<style type="text/css">
	.st0{fill:#fff;}
</style>
<path class="st0" d="M40.8,26.5h-7.3v-7.3c0-1.7-1.4-3.2-3.2-3.2h-0.7c-1.7,0-3.2,1.4-3.2,3.2v7.3h-7.3c-1.7,0-3.2,1.4-3.2,3.2v0.7
	c0,1.7,1.4,3.2,3.2,3.2h7.3v7.3c0,1.7,1.4,3.2,3.2,3.2h0.7c1.7,0,3.2-1.4,3.2-3.2v-7.3h7.3c1.7,0,3.2-1.4,3.2-3.2v-0.7
	C44,27.9,42.6,26.5,40.8,26.5z"/>
</svg>
