<?xml version="1.0" encoding="utf-8"?>
<svg version="1.1" xmlns="http://www.w3.org/2000/svg" xmlns:xlink="http://www.w3.org/1999/xlink" x="0px" y="0px" width="60px" height="60px" viewBox="0 0 60 60" style="enable-background:new 0 0 60 60;" xml:space="preserve">
<style type="text/css">
	.st0{fill:#fff;}
</style>
<path class="st0" d="M0,0v60h60V0H0z M43.1,36.9c-1.1,1.3-2.9,1.5-4.2,0.4c-0.2-0.2-0.3-0.3-0.4-0.4L30,28.3l-8.5,8.6
	c-1.1,1.3-2.9,1.5-4.2,0.4c-0.2-0.2-0.3-0.3-0.4-0.4c-1.2-1.4-1.2-3.6,0-5C18.1,30.6,27.7,21,27.7,21c1.2-1.2,3.1-1.4,4.4-0.2
	c0.1,0,0.1,0.1,0.2,0.2c0,0,9.6,9.6,10.8,10.9C44.3,33.3,44.3,35.5,43.1,36.9z"/>
</svg>
