<?xml version="1.0" encoding="utf-8"?>
<svg version="1.1" xmlns="http://www.w3.org/2000/svg" xmlns:xlink="http://www.w3.org/1999/xlink" x="0px" y="0px" width="60px" height="60px" viewBox="0 0 60 60" style="enable-background:new 0 0 60 60;" xml:space="preserve">
<style type="text/css">
	.st0{fill:#fff;}
</style>
<path class="st0" d="M27.7,21c0,0-9.6,9.6-10.8,10.9c-1.2,1.4-1.2,3.6,0,5c0.1,0.1,0.2,0.2,0.4,0.4c1.3,1.1,3.1,0.9,4.2-0.4l8.5-8.6
	l8.5,8.6c0.1,0.1,0.2,0.2,0.4,0.4c1.3,1.1,3.1,0.9,4.2-0.4c1.2-1.4,1.2-3.6,0-5C41.9,30.6,32.3,21,32.3,21c-0.1-0.1-0.1-0.2-0.2-0.2
	C30.8,19.6,28.9,19.8,27.7,21z"/>
</svg>
