<svg id="レイヤー_1" data-name="レイヤー 1" xmlns="http://www.w3.org/2000/svg" viewBox="0 0 207.41 23.14"><defs><style>.cls-1{fill:#fff;}</style></defs><title>アートボード 2</title><path class="cls-1" d="M7.34,15.53h3.29v2.83H7.34v4.25H4.13V18.36H.82V15.53H4.13V14.38H.48V11.54H1.87A8.94,8.94,0,0,0,1.2,9.77l1.87-.53H0V6.43H4.13V5.3H1.18V2.62h3v-2L7.51.79a.31.31,0,0,1,.34.27c0,.21-.24.38-.51.55v1h3.1V5.3H7.34V6.43H11V9.24H8.26l1.61.34c.21.05.43.09.43.33s-.2.34-.63.36c-.21.58-.43,1.08-.52,1.27h1.7v2.84H7.34Zm-3-6.29a16.34,16.34,0,0,1,.82,2l-.84.26h1.8a12.19,12.19,0,0,0,.77-2.3ZM15,22.61H11.59V1.08h9.84a51.1,51.1,0,0,1-.14,6.12C21,8.79,19.54,9.24,17,9.26A7.06,7.06,0,0,0,15.67,6a5.31,5.31,0,0,0,1.52.17C18,6.12,18.1,6,18.1,5V4.1H15V9.79h5.64l1.61,1.68a31.28,31.28,0,0,1-2.33,6.44,14.47,14.47,0,0,0,2.84,2.66A11.53,11.53,0,0,0,20,22.73a27.13,27.13,0,0,1-1.92-2,9,9,0,0,1-1.44,1.73A8.49,8.49,0,0,0,15,21.1ZM17,12.89a10.68,10.68,0,0,0,.74,2.18,11.63,11.63,0,0,0,.72-2.3H15v1.42ZM15,19.8a13.79,13.79,0,0,0,1.2-1.65A14.7,14.7,0,0,1,15,15.51Z"/><path class="cls-1" d="M32.76,9.67V17.4a2,2,0,0,0,1.49,1.68,23.37,23.37,0,0,0,5.33.36,72.1,72.1,0,0,0,9.55-.57,6,6,0,0,0-.91,3.45h-11c-3.53,0-4.81-.65-5.86-1.87-.39.38-2.47,1.85-2.55,1.9a2.1,2.1,0,0,1,.05.43.33.33,0,0,1-.31.36c-.12,0-.29-.17-.38-.34l-1.8-3.21a20.65,20.65,0,0,0,3-1.64V12.84H26.59V9.67ZM28.82.77A17,17,0,0,1,32.4,4.13c-.77.79-1.58,1.75-2.21,2.52A20.76,20.76,0,0,0,26.57,3.1Zm18.49,6V18.72H43.75v-.38H38.26v.57H34.75V6.79h3c.08-.17.36-.89.44-1H33.12V2.9h2.64a12.29,12.29,0,0,0-1-1.36L37.68.12a11.31,11.31,0,0,1,1.71,2.47c-.56.12-.85.22-1.18.31h3.5A17.28,17.28,0,0,0,43,.1l3.34,1a.34.34,0,0,1,.31.33c0,.34-.31.41-.58.46,0,.09-.38.69-.6,1h3.12V5.76H42c-.07.14-.33.72-.5,1ZM43.75,10V9H38.26v1Zm0,3v-1H38.26v1Zm0,3.05V14.93H38.26V16Z"/><path class="cls-1" d="M57.84,17V14.52h4.37c0-.17,0-.29.07-.94H58.54V11.21h1.6a8,8,0,0,0-.93-1.15L61.63,9H56.86V22.61H53.47V1.06h9.72V9H62a18.24,18.24,0,0,1,1.32,2l-.72.31h2.3a12.63,12.63,0,0,0,1-2.26H64.8V1.06h9.72V20.35c0,1-.74,2.6-4.25,2.43a10,10,0,0,0-.91-3.15,14,14,0,0,0-1.63,2.19A10.94,10.94,0,0,1,64,18.67a9.1,9.1,0,0,1-4.46,3.53,8.78,8.78,0,0,0-2-2.45c2.14-.72,3.17-1.44,4-2.78ZM60,4.2V3.31H56.86V4.2ZM56.86,5.81V6.7H60V5.81Zm8.54,7.77c0,.27,0,.41,0,.94h4.89V17H66.43a9.86,9.86,0,0,0,3.24,2.38l0,0c.41.05.84.12,1,.12.53,0,.53-.46.53-.82V9H66.29l2.59.87a.32.32,0,0,1,.22.31c0,.14-.19.24-.6.29-.12.33-.22.5-.34.79h1.39v2.37ZM71.16,4.2V3.31H68V4.2ZM68,5.81V6.7h3.19V5.81Z"/><path class="cls-1" d="M99.39,9a19.57,19.57,0,0,1,2.85,4.78,12.62,12.62,0,0,0-2.76,1.73c-.19-.48-.33-.79-.62-1.39-2,.14-2.23.17-3.6.24v8.33H91.73V14.55c-.65,0-3.6.09-4.18.12-.12.24-.21.5-.5.5a.37.37,0,0,1-.31-.34l-.51-3.21,4.06.05a4.73,4.73,0,0,1,.46-.44A22.33,22.33,0,0,0,86.5,8.52l2-2.64c.84.5.91.58,1.2.74.76-1,1-1.44,1.22-1.7-.34,0-1.9.19-2.21.24a10.08,10.08,0,0,0-1.39-2.81,34.36,34.36,0,0,1-2.14,4.73l.6.34c.24.14.29.24.29.36s-.19.31-.43.4V20.35a17.16,17.16,0,0,0,2.86-4.89l2.59,1.25c.33.16.48.26.48.4s-.22.27-.53.32a23.68,23.68,0,0,1-2.54,4.41,6.84,6.84,0,0,0-2.86-1.46v2.33H82V11.81c-.5.6-.55.67-.77.91a10.18,10.18,0,0,0-2.81-2A24,24,0,0,0,84.17.48l3.38.84c.22.05.46.19.46.41a.37.37,0,0,1-.22.33A36.89,36.89,0,0,0,98.11.36l2,2.52a.51.51,0,0,1,.12.29.29.29,0,0,1-.31.31c-.1,0-.39-.07-.58-.1a25.58,25.58,0,0,1-3.93.94.32.32,0,0,1,.16.29c0,.19-.14.31-.67.41-1.1,1.51-1.44,2-2.61,3.43.26.19.38.29.69.55a27,27,0,0,0,3.29-4.27l3.07,1.61c.19.09.36.24.36.4s-.31.29-.79.34a38.54,38.54,0,0,1-4.32,4.59l2.74-.13c-.29-.4-.46-.64-.77-1Zm-1,5.84a30.4,30.4,0,0,0,3.2,5.4,7.66,7.66,0,0,0-3,1.41,27,27,0,0,1-3-5.49Z"/><path class="cls-1" d="M117.1,18.46A7.67,7.67,0,0,0,123.84,11a5.68,5.68,0,0,0-5.54-5.88c-.75,8.78-4.37,15.34-6.91,15.34-1.88,0-5.36-3.17-5.36-7.61A11.79,11.79,0,0,1,117.79,1.63c5.26,0,9.84,3.58,9.84,9.32a11.14,11.14,0,0,1-2.83,7.41,13.22,13.22,0,0,1-5.21,3.48A15.64,15.64,0,0,0,117.1,18.46Zm-7.52-5.93c0,1.85,1,3.24,1.54,3.24s1-1.08,1.3-1.7a21.17,21.17,0,0,0,1.85-8.26A8.15,8.15,0,0,0,109.58,12.53Z"/><path class="cls-1" d="M143.64,10.58a2.86,2.86,0,0,1-.17-1V.43l3.65.29c.24,0,.41.1.41.26s-.19.34-.63.58V3.89a24.59,24.59,0,0,0,4.35-2.33l2.5,2.26c.09.09.21.21.21.33a.34.34,0,0,1-.38.34,2.08,2.08,0,0,1-.51-.1,54.75,54.75,0,0,1-6.17,2.69v.77c0,.89.73.89,1.06.89h2.35c.84,0,1.08-1,1.4-2.19a8.3,8.3,0,0,0,2.85,1.3c-.69,4-2.28,4-3.6,4h-5a3.33,3.33,0,0,1-1.87-.55c-.17.36-.48,1-.65,1.37h8.16v9.86h-3.74v-.67H138.5v.67h-3.72V12.65h4.85a20.35,20.35,0,0,0,.87-1.94c-3.44.62-3.75.67-7.16,1.32-.07.28-.16.5-.38.5s-.29-.24-.34-.46l-.81-3.17a26.69,26.69,0,0,0,2.69-.26V.5l3.89.24a.33.33,0,0,1,.31.34c0,.22-.22.34-.55.5V3.29h4.7V6.17h-4.7V8.11c2.64-.4,3.81-.67,4.7-.84a16.73,16.73,0,0,0-.36,3.05,1.33,1.33,0,0,0-.19,0Zm4.23,5.57v-.86H138.5v.86Zm0,3.15v-.94H138.5v.94Z"/><path class="cls-1" d="M165.36,17.88a25.37,25.37,0,0,0,6.22-3.21V11.91h-2.5a18,18,0,0,1,1.85,2.4,16.14,16.14,0,0,0-2.21,1.7,31.49,31.49,0,0,0-2.18-2.74l1.87-1.36h-2a6.18,6.18,0,0,0,.5.57,5.46,5.46,0,0,0-1.46,2.57,16.75,16.75,0,0,1-1.08-1.54v9.17h-3.15V14.91a12.55,12.55,0,0,1-1.2,2.44,8.76,8.76,0,0,0-2.25-2.18,21.4,21.4,0,0,0,3.07-7.56h-2.4V4.7H161V.7l3.31.16c.26,0,.55.1.55.36s-.34.36-.55.41V4.7h1.75V7.61h-1.75v.77a12.86,12.86,0,0,0,1.87,3.36V9.31h5.38V8.42h-4.06V6.17h4.06V5.28h-5.16V2.86h2.35a8.74,8.74,0,0,0-1.06-1.54L170.52,0a20.4,20.4,0,0,1,1.56,2.45l-.79.41h2.64A17.92,17.92,0,0,0,175.11.19l3.07.91c.29.1.48.2.48.36,0,.32-.31.34-.72.34-.17.31-.19.38-.58,1.06h2.79V5.28h-5.21v.89h4V8.42h-4v.89h5.71v2.6h-1.78l1.71,1.39a.46.46,0,0,1,.24.36c0,.36-.41.31-.67.31a13.79,13.79,0,0,1-2.45,2.62,12,12,0,0,0,3.6,2.06,6.43,6.43,0,0,0-1.83,2.5,15.9,15.9,0,0,1-4.53-3.75v1.87c0,2.64-.84,3.41-4.61,3.56A8.28,8.28,0,0,0,169,19.47a10.85,10.85,0,0,0,1.51.12c1,0,1.06-.27,1.06-.87v-.89c-.48.29-2.07,1.25-4.32,2.4,0,.15.07.77-.27.77s-.43-.31-.57-.65Zm9.58-4.61a8.11,8.11,0,0,0,1,1.49,15.29,15.29,0,0,0,2.21-2.85h-3.19Z"/><path class="cls-1" d="M184.08,13a25.35,25.35,0,0,0,5.35-5.59c1.95-2.64,2.59-3.5,4.06-3.5s2.49,1,4.06,3a47,47,0,0,0,9.86,9.77,25,25,0,0,0-2.69,3.65A75,75,0,0,1,194.66,9.5c-.19-.24-.84-1-1.29-1s-.84.65-1.18,1.13a43.48,43.48,0,0,1-4.89,6.53Z"/></svg>