<svg xmlns="http://www.w3.org/2000/svg" width="408.605" height="408.491" viewBox="0 0 306.46 306.38"><defs><style>.cls-2{fill:#fff}.cls-4{fill:#231815}</style></defs><g id="レイヤー_2" data-name="レイヤー 2"><g id="レイヤー_1-2" data-name="レイヤー 1"><path d="M306.46 153.19A153.23 153.23 0 11153.23 0a153.22 153.22 0 01153.23 153.19" fill="#e50067"/><path class="cls-2" d="M36.63 201.9l20.63-13 4.68 7.43a5.72 5.72 0 01.86 4.45 6.36 6.36 0 01-3 4 6 6 0 01-4.67.73 6.56 6.56 0 01-1.48-.59 5.43 5.43 0 01-.72 3.91 7.61 7.61 0 01-3.29 2.91 6 6 0 01-8.29-2.4zm4.95 1l2.68 4.26a2.74 2.74 0 001.74 1.29 3.75 3.75 0 002.72-.74 3.83 3.83 0 001.88-2.3 2.7 2.7 0 00-.37-2.12l-2.62-4.16zM51 197l2.5 4a2.8 2.8 0 004.07.75A2.79 2.79 0 0059 200a2.87 2.87 0 00-.33-2.28l-2.5-4zm10.89 10.11l2.2 2.58-8.66 7.37a4.4 4.4 0 00-1.59 2.29 1.88 1.88 0 00.44 1.78 2.12 2.12 0 001.85.73 4.05 4.05 0 002.49-1.05l8.66-7.37 2.28 2.68-13.83 11.77-2.28-2.67 1.43-1.22a4.41 4.41 0 01-4-1.4 4.14 4.14 0 01-1-3.15 6.13 6.13 0 012.42-4.21zm1.31 19.78l2.25 2.11c-1 1.31-1.21 2.43-.67 3.34a3.28 3.28 0 001.81 1.66 1.88 1.88 0 002-.5 2.41 2.41 0 00.76-1.7 2.14 2.14 0 00-.3-1.06l-1.62-2.75a5.71 5.71 0 01-.7-2.7 4.44 4.44 0 011.4-3.29 5.55 5.55 0 014-1.92 5 5 0 013.55 1.5 5.4 5.4 0 011.85 4.23 6.77 6.77 0 01-1.74 4.19l-2.43-2.21q1.41-1.89.69-3.18a2.5 2.5 0 00-1.13-1 2.17 2.17 0 00-2.29.6 1.7 1.7 0 00-.52 1.27 2 2 0 00.29 1.06l1.35 2.35a7 7 0 011 3.1 4.77 4.77 0 01-1.33 3.55 5.24 5.24 0 01-3.65 1.91 5.93 5.93 0 01-4.31-1.72 5.64 5.64 0 01-2-4.39 7.05 7.05 0 011.74-4.45zm8 15.11l10.66-14 2.89 2.2-10.66 14zm13.15-14.15a1.71 1.71 0 01-.74-1.15 2.72 2.72 0 01.74-1.94 2.79 2.79 0 011.65-1.27 2 2 0 012 1.57 3.65 3.65 0 01-2.41 3.16 1.7 1.7 0 01-1.24-.41zm2.86 3.58l2.88 1.8-1.43 2.28q3-1.44 5-.2a4.29 4.29 0 012 2.77c.38 1.61-.14 3.55-1.55 5.8l-6 9.53-3-1.86 5.66-9a4.55 4.55 0 00.94-3.28 2.09 2.09 0 00-.92-1.4 2.57 2.57 0 00-2.65.27 7.35 7.35 0 00-2.23 1.79l-5.47 8.74-2.88-1.8zm20.5 22.78l-9-4.07c-.8 2.13-.79 3.72 0 4.77a2.5 2.5 0 002 1 3.21 3.21 0 002.37-1.24l3.31 1.5c-2.69 2.9-5.42 3.71-8.2 2.46a5.92 5.92 0 01-3.29-3.82 9.62 9.62 0 01.56-6.31 12.85 12.85 0 014.34-5.88q3.06-2.21 5.84-1a6.14 6.14 0 013.29 3.81 10.5 10.5 0 01-.82 7.74zm-7.66-7l5.55 2.52q1.19-3.45-.65-4.8a2.47 2.47 0 00-2.72.05 6.56 6.56 0 00-2.18 2.28zm10.44 9.79l2.91.88c-.33 1.62-.05 2.73.83 3.32a3.35 3.35 0 002.35.72 1.89 1.89 0 001.64-1.34 2.41 2.41 0 000-1.85 2.12 2.12 0 00-.73-.84l-2.64-1.78a5.83 5.83 0 01-1.8-2.14 4.44 4.44 0 01-.16-3.48 5.58 5.58 0 012.77-3.45 4.9 4.9 0 013.85-.17 5.38 5.38 0 013.49 3 6.78 6.78 0 01.22 4.48l-3.14-1c.31-1.54.06-2.59-.75-3.16a2.42 2.42 0 00-1.45-.45 2.19 2.19 0 00-1.82 1.53 1.73 1.73 0 00.08 1.37 2 2 0 00.72.84L119 255a7.17 7.17 0 012.21 2.39 4.78 4.78 0 01.32 3.77 5.22 5.22 0 01-2.47 3.29 5.88 5.88 0 01-4.63.31 5.62 5.62 0 01-3.71-3.1 7 7 0 01-.23-4.66zm14.92 4.28l3 .52c-.12 1.64.28 2.71 1.23 3.19a3.32 3.32 0 002.43.42 1.87 1.87 0 001.45-1.53 2.39 2.39 0 00-.27-1.83 2.15 2.15 0 00-.82-.74l-2.84-1.45a5.67 5.67 0 01-2-1.9 4.42 4.42 0 01-.59-3.43 5.54 5.54 0 012.32-3.76 4.91 4.91 0 013.8-.65 5.37 5.37 0 013.83 2.58 6.7 6.7 0 01.78 4.41l-3.23-.56c.11-1.57-.27-2.58-1.13-3.05a2.58 2.58 0 00-1.51-.27 2.21 2.21 0 00-1.66 1.77 1.79 1.79 0 00.24 1.35 2 2 0 00.82.73l2.4 1.26a6.89 6.89 0 012.49 2.1 4.77 4.77 0 01.78 3.7 5.19 5.19 0 01-2.05 3.57 5.85 5.85 0 01-4.55.87 5.63 5.63 0 01-4.07-2.61 7.06 7.06 0 01-.85-4.69zM151 246.25l6-.27a8.21 8.21 0 016.09 2.29q2.94 2.68 3.26 9.47t-2.35 9.73a8.38 8.38 0 01-6 2.86l-5.85.27zm4.47 20.33l2.34-.11a4.94 4.94 0 003.44-1.81q1.56-1.71 1.32-6.75c-.15-3.35-.81-5.55-1.95-6.59a5 5 0 00-3.59-1.48l-2.34.11zm14.89-16.81a1.66 1.66 0 01-1.34-.27 3.66 3.66 0 01-.6-3.93 1.71 1.71 0 011.2-.66 1.78 1.78 0 011.35.27 3.68 3.68 0 01.6 3.94 1.78 1.78 0 01-1.21.65zm1 19.29l-2.64-17.38 3.6-.55 2.68 17.38zm6.46-7.12l3-.73c.54 1.55 1.35 2.37 2.41 2.42a3.34 3.34 0 002.39-.58 1.88 1.88 0 00.71-2 2.38 2.38 0 00-1-1.57 2 2 0 00-1.05-.34l-3.19-.19a5.67 5.67 0 01-2.64-.92 4.46 4.46 0 01-1.92-2.9 5.55 5.55 0 01.62-4.38 4.91 4.91 0 013.22-2.12 5.36 5.36 0 014.54.82 6.78 6.78 0 012.49 3.73l-3.19.78c-.53-1.47-1.28-2.25-2.26-2.33a2.49 2.49 0 00-1.48.36 2.18 2.18 0 00-.78 2.24 1.74 1.74 0 00.76 1.14 2.07 2.07 0 001 .35l2.7.18a7.07 7.07 0 013.13.92 4.73 4.73 0 012.2 3.08 5.22 5.22 0 01-.44 4.09 5.89 5.89 0 01-3.82 2.63 5.65 5.65 0 01-4.77-.76 7.09 7.09 0 01-2.63-3.92zm25.09-13.79l-3.28 1.26q-1.62-2.9-3.45-2.44-2.82.83-1.25 5.88a12.8 12.8 0 002.31 4.38 2.87 2.87 0 002.36 1.23 2.17 2.17 0 001.77-.93 4.72 4.72 0 00.31-3.13l3.17-1.22a9.71 9.71 0 01-.31 5.39 5.31 5.31 0 01-3 2.92A5.9 5.9 0 01196 261a10.58 10.58 0 01-4.11-5.45 12.37 12.37 0 01-.77-7.24 5.55 5.55 0 012.94-3.77 5.21 5.21 0 015.31.09 10.74 10.74 0 013.54 3.52zm-.12-7.07l3-1.62 5.42 10a4.49 4.49 0 001.91 2 1.9 1.9 0 001.83-.07 2.1 2.1 0 001.1-1.66 4.09 4.09 0 00-.51-2.66l-5.42-10 3.09-1.67 8.66 16-3.09 1.68-.89-1.65a4.41 4.41 0 01-2.19 3.59 4.18 4.18 0 01-3.29.32 6.15 6.15 0 01-3.62-3.24zm19.63 2.8l2.47-1.78c1.09 1.24 2.14 1.69 3.14 1.35a3.29 3.29 0 002-1.44 1.86 1.86 0 00-.08-2.11 2.37 2.37 0 00-1.5-1.08 2.07 2.07 0 00-1.1.07l-3 1a5.78 5.78 0 01-2.79.13 4.45 4.45 0 01-2.87-2 5.56 5.56 0 01-1.07-4.29 4.93 4.93 0 012.2-3.16 5.35 5.35 0 014.52-1 6.76 6.76 0 013.7 2.54l-2.66 1.91c-1-1.17-2-1.61-3-1.32a2.46 2.46 0 00-1.23.89 2.17 2.17 0 00.11 2.37 1.75 1.75 0 001.14.77 2.07 2.07 0 001.1-.07l2.57-.84a7 7 0 013.24-.31 4.76 4.76 0 013.2 2 5.22 5.22 0 011.11 4 5.86 5.86 0 01-2.56 3.87 5.61 5.61 0 01-4.71 1.07 7 7 0 01-3.93-2.57zm12.49-9.27l2.24-2.07c1.23 1.1 2.32 1.42 3.28 1a3.4 3.4 0 001.81-1.67 1.9 1.9 0 00-.34-2.09 2.39 2.39 0 00-1.62-.89 2 2 0 00-1.09.21l-2.87 1.38a5.63 5.63 0 01-2.76.47 4.45 4.45 0 01-3.09-1.61 5.57 5.57 0 01-1.58-4.12 4.93 4.93 0 011.79-3.42 5.36 5.36 0 014.37-1.49 6.8 6.8 0 014 2.06l-2.4 2.23c-1.18-1-2.22-1.35-3.12-.95a2.57 2.57 0 00-1.12 1 2.2 2.2 0 00.41 2.34 1.71 1.71 0 001.22.62 2.11 2.11 0 001.09-.2l2.45-1.15a7 7 0 013.18-.71 4.78 4.78 0 013.42 1.62 5.26 5.26 0 011.59 3.8 5.9 5.9 0 01-2.06 4.15 5.62 5.62 0 01-4.55 1.64 7 7 0 01-4.25-2.15zm2.74-21.05a1.78 1.78 0 01-1.22.64 3.69 3.69 0 01-3-2.67 2 2 0 011.73-1.91 3.7 3.7 0 013 2.66 1.78 1.78 0 01-.51 1.28zm13 14.25l-13.06-11.76 2.43-2.7 13.06 11.76zm-1.82-11.33a12 12 0 01-3.9-4.78 6.06 6.06 0 01.22-5.82 5.71 5.71 0 014.21-2.72q3.44-.51 7.2 2.28 4.33 3.21 4.83 6.48a6 6 0 01-5.16 7c-2.3.32-4.76-.49-7.4-2.44zm1.69-3.27a9.88 9.88 0 003.48 2 3.53 3.53 0 003.3-.32 2.6 2.6 0 00.45-3.17 9.77 9.77 0 00-2.15-2.61 12.7 12.7 0 00-3.95-2.34c-1.64-.54-2.81-.34-3.51.61a2.42 2.42 0 00-.22 2.46 7.75 7.75 0 002.6 3.37zm.16-14.87l1.64-3 2.36 1.3q-1.6-2.89-.47-4.95a4.27 4.27 0 012.66-2.14q2.38-.69 5.87 1.24l9.84 5.45-1.7 3.08-9.33-5.17a4.56 4.56 0 00-3.32-.77 2.16 2.16 0 00-1.36 1 2.6 2.6 0 00.42 2.64 7.52 7.52 0 001.9 2.13l9 5-1.64 3zm-136.62 78.3l-3.54-1.56c.66-2.86.24-4.8-1.28-5.81q-2.53-1.5-5.21.78a18.12 18.12 0 00-4.87 10.79 4.37 4.37 0 002.79 4.43c1.81.54 3.46-.23 5-2.29l3.76 1.65c-1.72 2.74-3.89 4.26-6.49 4.57a7.44 7.44 0 01-5.87-1.81 7.91 7.91 0 01-2.78-5.32 14.88 14.88 0 01.79-6.44 18.06 18.06 0 014.41-7.41c2.1-2.06 4.28-3 6.52-2.89a7.26 7.26 0 016.95 5.74 11.3 11.3 0 01-.18 5.57zm5.19 5.7l-3.28-.89a7.65 7.65 0 013-3.8 5.49 5.49 0 014.51-.48 5.71 5.71 0 013.67 2.58q1.06 1.88.08 5.49l-1.81 6.67a18.24 18.24 0 00-.67 4.68l-3.39-.93.09-1.67a5.35 5.35 0 01-5.94 0 4.55 4.55 0 01-2.17-5c.54-3.17 2.5-4.74 5.9-4.71a32.72 32.72 0 003.41 0 1.66 1.66 0 001.56-1.27 2 2 0 00-.72-2.26 2.76 2.76 0 00-2.58-.34c-.72.09-1.26.75-1.66 1.93zm3.94 4.24a5.18 5.18 0 01-1.68.39 17.28 17.28 0 00-2.4.32 2.68 2.68 0 00-2.46 2.36c-.1 1.27.55 2 1.94 2.23a2.85 2.85 0 002.67-.85 4.79 4.79 0 001.32-2.19zm8.1-6.94l3.38.36-.26 2.45q1.56-2.55 3.78-2.31c1.55.17 2.69 1.31 3.4 3.43q1.72-2.88 4.41-2.59 4.31.47 3.67 6.4l-1.32 12.36-3.38-.37 1.2-11.18a3.64 3.64 0 00-.65-2.78 1.78 1.78 0 00-1.23-.61 1.81 1.81 0 00-1.6.66 5.55 5.55 0 00-1.05 3.19l-1.1 10.25-3.5-.38 1.2-11.18a3.66 3.66 0 00-.53-2.77 1.77 1.77 0 00-2.71.06 5.65 5.65 0 00-1.17 3.18l-1.1 10.25-3.38-.36zm22.63 23.04l-1.16-21.18 3.39-.18.09 1.52a5 5 0 014.36-1.84q4.82.32 5.92 7.42a12.18 12.18 0 01-1.33 7.94 5 5 0 01-4.08 2.57A4.54 4.54 0 01157 297l.3 5.5zm5.81-7.47a2.37 2.37 0 002.52-1.2 8 8 0 00.86-3.45 9.55 9.55 0 00-.94-4.41 3.08 3.08 0 00-2.22-1.87c-2 0-3.12 1.5-3.26 4.64a8.58 8.58 0 00.83 4.41 3.12 3.12 0 002.21 1.88zm13.77-9.74l-3.33.64a7.58 7.58 0 011-4.73A5.49 5.49 0 01175 279a5.74 5.74 0 014.42.71q1.78 1.21 2.49 4.9l1.29 6.79a17.83 17.83 0 001.45 4.5l-3.46.65-.65-1.54c-1.45 2-3.23 2.88-5.36 2.57a4.56 4.56 0 01-4.12-3.52q-1.37-4.62 3.24-6.81c1.46-.68 2.47-1.19 3-1.54a1.65 1.65 0 00.85-1.83 2 2 0 00-1.64-1.71 2.77 2.77 0 00-2.47.82c-.49.41-.69 1.24-.54 2.48zm5.41 2.08a5.23 5.23 0 01-1.34 1.09 17.17 17.17 0 00-2 1.34 2.68 2.68 0 00-1.18 3.2c.47 1.19 1.37 1.57 2.73 1.15a2.83 2.83 0 002-1.93 4.66 4.66 0 00.24-2.55zm6.21-11.85a1.69 1.69 0 01-1.37-.09 2.75 2.75 0 01-1.11-1.75 2.69 2.69 0 010-2.07 1.71 1.71 0 011.11-.81 1.69 1.69 0 011.37.09 2.77 2.77 0 011.12 1.75 2.73 2.73 0 010 2.07 1.71 1.71 0 01-1.12.81zm3.57 19l-4.91-16.88 3.49-1 4.91 16.87zm10.16-21.51l-.52-1.31 3.15-1.26 5.57 13.93a6.4 6.4 0 01.22 5 6.08 6.08 0 01-3.53 3.18 6.59 6.59 0 01-4.24.43 6.23 6.23 0 01-3.48-3l3.15-1.26q1.25 2.16 3.31 1.33a2.71 2.71 0 001.54-1.5 3.78 3.78 0 00-.17-3l-.35-.87a4.3 4.3 0 01-3.37 3.24q-4.57 1.2-7.33-4.77a11.81 11.81 0 01-.94-6.44 4.81 4.81 0 012.46-3.63 4.58 4.58 0 014.53-.07zm1.15 11.66a2.7 2.7 0 001.74-2 6.68 6.68 0 00-.52-3.83 8.16 8.16 0 00-2-3.11 2.52 2.52 0 00-2.27-.61c-1.82.48-2.3 2.35-1.41 5.61a8.38 8.38 0 002.28 3.51 2.13 2.13 0 002.18.43zm3.87-15.1l3-1.67 1.32 2.35c.11-2.21.84-3.69 2.2-4.46a4.3 4.3 0 013.39-.42q2.4.68 4.35 4.14l5.51 9.81-3.07 1.72-5.22-9.3a4.58 4.58 0 00-2.43-2.4 2.11 2.11 0 00-1.67.14c-.68.38-1 1.2-1 2.46a7.33 7.33 0 00.5 2.81l5 9-3 1.66z"/><path class="cls-2" d="M241.58 153.19a88.35 88.35 0 11-88.35-88.33 88.34 88.34 0 0188.35 88.33"/><path d="M138.72 127.8l-27.45-2.35-6 18.8 20.45 11.51-13 30.81 17 12 24-22.33 24.16 22.11 16.9-12.15-13.43-30.7 20.34-11.7-6.23-18.74-25.9 2.5-6.17-28.23-20.63.09-3.45 17.58a46.48 46.48 0 0019-.44c.39-.11 1-.15 1.21.17a1 1 0 01.05 1c-.81 1.8-4.1 4.81-10.87 5.56a33.9 33.9 0 01-9.06-.1l-1 4.59" fill="#e7242e"/><path class="cls-4" d="M168.88 119.83c-1.78-8.13-4.52-20.71-4.52-20.71a1 1 0 00-1-.78l-20.63.1a1 1 0 00-1 .8l-3.45 17.6a1 1 0 00.8 1.17 50.31 50.31 0 0015.53.32c.9-.13 1.85-.36 2.53-.5.3-.07.87-.34 1-.07s-.1.51-.36.78a10.3 10.3 0 01-2.22 1.69 18.11 18.11 0 01-7 2.09 33.58 33.58 0 01-8.7-.07 1 1 0 00-.78.11 1 1 0 00-.44.65s-.1.49-.24 1.15c-.18.84-.41 2-.41 2a.74.74 0 01-.77.58s-3.13-.23-5.64-.45l-20.29-1.77a1 1 0 00-1 .68l-6.01 18.8a1.12 1.12 0 000 .31 1 1 0 00.51.85l13.54 7.63 5.58 3.14a.72.72 0 01.31.9s-1 2.28-2.37 5.6l-10.06 23.8a.94.94 0 00-.08.39 1 1 0 00.42.81l17 12a1 1 0 001.25-.08l18.31-17.08 4.49-4.19a.72.72 0 011 0l4.46 4.09 18.55 17a1 1 0 001.24.07L195.25 187a1 1 0 00.41-.81.92.92 0 00-.09-.39s-6.49-14.95-10.29-23.72l-2.42-5.57a.72.72 0 01.3-.9l6.4-3.69 12.63-7.25a1 1 0 00.49-.87.79.79 0 00-.05-.3l-6.23-18.75a1 1 0 00-1-.67L175.77 126l-4.8.46a.72.72 0 01-.77-.56s-.56-2.53-1.32-6m-29 7.24l.43-2.12a.74.74 0 01.77-.57 31.65 31.65 0 003.46.13c1.41 0 2.9-.07 4.3-.22 7.39-.82 10.81-4.24 11.66-6.14a2 2 0 00-.18-2 2 2 0 00-2.23-.52 41.19 41.19 0 01-11.71 1.15c-2.3-.08-5.28-.48-5.28-.48a.6.6 0 01-.51-.71l1-5c.16-.82.33-1.67.49-2.52l1.37-7a.81.81 0 01.76-.63h17.74a.81.81 0 01.78.62s.47 2.17 1.17 5.37l4.69 21.45a1 1 0 001.06.77l12.12-1.17 12.36-1.2a.85.85 0 01.84.55s1.13 3.38 2.33 7c.24.72.49 1.46.72 2.18 1.18 3.54 2.27 6.83 2.27 6.83a.79.79 0 01-.35.92l-9.56 5.51-9.52 5.47a1 1 0 00-.5.87 1 1 0 00.08.38l8.36 19.26 4.39 10.1a.82.82 0 01-.27 1l-7.63 5.49-.95.69-6 4.29a.84.84 0 01-1-.05s-2.86-2.64-6.55-6l-16.51-15.34a1 1 0 00-1.35 0l-15.06 14.05-7.83 7.3a.81.81 0 01-1 .06l-7.06-5-.61-.43-7-4.92a.82.82 0 01-.27-1l4.75-11.24c3.57-8.42 7.72-18.24 7.72-18.24a1.07 1.07 0 00.07-.39 1 1 0 00-.5-.86l-9.39-5.28-9.75-5.45a.82.82 0 01-.36-.92l2.38-7.41c.33-1 .66-2 1-3l1.82-5.63a.84.84 0 01.83-.56l9.19.8c7.06.62 16.83 1.43 16.83 1.43a.77.77 0 00.26 0 1.13 1.13 0 00.18 0l.12-.07.17-.11s.06-.07.09-.09a.8.8 0 00.13-.19v-.1a1.15 1.15 0 00.06-.17s.09-.39.2-.93"/><path class="cls-4" d="M148 115.37a.82.82 0 01-.26 0 .87.87 0 01-.57-1.08 48 48 0 002-11.44.86.86 0 111.72.1 49.38 49.38 0 01-2 11.85.88.88 0 01-.83.61m10.77-5.79a1.38 1.38 0 11-1.37-1.59 1.5 1.5 0 011.37 1.59m-14.35-3.8a1.08 1.08 0 101.05-1.26 1.16 1.16 0 00-1.05 1.26"/><path class="cls-2" d="M142.13 138.13v1.17a3.82 3.82 0 01-3.24 1.49 3.93 3.93 0 01-2.81-.95 3.58 3.58 0 01-.11-5 3.47 3.47 0 012.53-1 4 4 0 011.47.26 3.21 3.21 0 011.17.78 3.27 3.27 0 01.74 1.19 5.08 5.08 0 01.24 1.67h-3.51a1.55 1.55 0 00.64.8 1.87 1.87 0 001 .29 2.44 2.44 0 001.85-.74m-3.72-1.52H140a1.29 1.29 0 00-.24-.78.73.73 0 00-1.14 0 1.22 1.22 0 00-.23.79m8.21-2.58v.85a2.75 2.75 0 012.07-.9 2.36 2.36 0 011.8.63 2.7 2.7 0 01.63 1.94v4.16h-3.25v-3.9c0-.56-.22-.83-.64-.83a1.09 1.09 0 00-.61.22v4.52h-3.44V134zm11.08-.09v1.88h-1.43v1.43c0 .48.22.73.66.73a1 1 0 00.82-.49v2.65a3.48 3.48 0 01-2 .55 3.08 3.08 0 01-2.09-.73 2.57 2.57 0 01-.86-2v-2.1h-1.4l4.82-3.82v1.92zm7.94 4.09v1.17a3.85 3.85 0 01-3.24 1.49 3.93 3.93 0 01-2.81-1 3.58 3.58 0 01-.11-5 3.45 3.45 0 012.53-1 4 4 0 011.47.26 3.18 3.18 0 011.17.77 3.26 3.26 0 01.74 1.2 5.36 5.36 0 01.24 1.67h-3.51a1.55 1.55 0 00.64.8 1.86 1.86 0 001 .29 2.47 2.47 0 001.86-.74m-3.72-1.52h1.62a1.36 1.36 0 00-.25-.78.73.73 0 00-.59-.28.7.7 0 00-.55.27 1.22 1.22 0 00-.23.79m8.22-1.07a2.09 2.09 0 011.9-1.52 1.52 1.52 0 011.15.44 1.57 1.57 0 01.45 1.15 1.59 1.59 0 01-.44 1.19 1.52 1.52 0 01-1.16.42 1.87 1.87 0 01-1.4-.61 2 2 0 00-.5 1.62v2.49h-3.44v-6.69h3.44zm-35.14 16.39l-.02-5.41 10.85-.05.02 5.41-2.72.01.03 6.8-5.41.02-.03-6.8-2.72.02zm18.93 6.91a6 6 0 01-4.44-1.81 6.39 6.39 0 010-8.94 6.3 6.3 0 114.49 10.75m0-7.92a1.16 1.16 0 00-.87.37 1.4 1.4 0 000 1.84 1.24 1.24 0 001.74 0 1.31 1.31 0 00.34-.92 1.35 1.35 0 00-.35-.92 1.15 1.15 0 00-.87-.36m16.1 7.63l-5.41.02-.02-5.32-4.69-6.86 5.47-.03 1.9 2.76 1.87-2.77 5.48-.03-4.62 6.9.02 5.33zm-31.26 4.71v.84a2.73 2.73 0 012.06-.91 2.37 2.37 0 012.17 1.15 4 4 0 011.14-.88 2.89 2.89 0 011.3-.29 2.24 2.24 0 011.72.66 2.64 2.64 0 01.63 1.88v4.19h-3.25v-4a.76.76 0 00-.18-.55.55.55 0 00-.45-.2 1 1 0 00-.63.22v4.53h-3.25v-4a.82.82 0 00-.17-.55.57.57 0 00-.46-.2 1.11 1.11 0 00-.63.23v4.52h-3.43V163zm17.6 4.06v1.17a3.84 3.84 0 01-3.24 1.49 4 4 0 01-2.81-1 3.3 3.3 0 01-1.07-2.55 3.25 3.25 0 011-2.46 3.45 3.45 0 012.53-1 3.73 3.73 0 011.47.26 3.18 3.18 0 011.91 2 5.08 5.08 0 01.24 1.67h-3.5a1.59 1.59 0 00.63.79 1.78 1.78 0 001 .28 2.46 2.46 0 001.86-.73m-3.72-1.52h1.62a1.3 1.3 0 00-.26-.78.72.72 0 00-.58-.27.69.69 0 00-.55.27 1.15 1.15 0 00-.23.79m8.62-2.58v.84a2.78 2.78 0 012.07-.9 2.36 2.36 0 011.8.64 2.73 2.73 0 01.64 1.94v4.15h-3.24v-3.9c0-.56-.21-.84-.64-.83a1 1 0 00-.61.22v4.51h-3.44v-6.69zm11.54-.06v1.88h-1.43v1.43c0 .49.22.73.66.73a1 1 0 00.82-.48v2.65a3.48 3.48 0 01-2 .54 3.08 3.08 0 01-2.09-.73 2.54 2.54 0 01-.86-2v-2.1h-1.4l4.82-3.81v1.91z"/><path class="cls-4" d="M88 178.11l2.32 4.42-.05.03-4.46-2.22-3.54 3.63-.03-.03.73-5-4.51-2.24-.01-.04 4.99-.84.73-4.92.05-.03 2.3 4.42 4.97-.83.03.05-3.52 3.6zm132.08-2.7l2.27-4.43.06.02.76 4.92 5.01.79-.01.04-4.5 2.29.77 4.99-.04.03-3.56-3.6-4.43 2.25-.05-.02 2.26-4.44-3.54-3.57.03-.05 4.97.78zm-69.6 42.99l.45-3.12-9.05-1.28.15-1.07-4.72-.68-.15 1.06-1.26-.18-.45 3.12 1.25.19-.13.92-1.26-.19-.45 3.14 1.26.19-.1.63c-.58 4 .92 6.37 4.79 6.93l2.19.32c3.16.46 6.09-.6 6.82-5.6l.5-3.46-4.63-.68-.5 3.47a1.82 1.82 0 01-2.36 1.75l-.35-.05c-1.16-.17-1.93-.61-1.73-2l.09-.64 3.48.51.45-3.15-3.48-.5.14-.92zm12.41.96l-2.21.1v-.91l7-.34-.19-3.8-7 .34-.05-.92-4.76.23v.92l-2.62.13.18 3.8 2.63-.13.23 4.82 6.26-.31c.65 0 .86.21.88.57s-.23.56-.88.59l-7.82.38.22 4.44 7.82-.37c4.73-.23 6.14-1.89 6-5.19-.2-4.13-2.57-4.51-5.68-4.35m-36.03-4.48l-1.3-.62.39-.83 1.41.66 1.62-3.43-1.4-.66c.25-.51.39-.83.39-.83l-3.67-1.74c-.15.32-.14.32-.39.83l-3.76-1.78-1.63 3.43 3.8 1.8-.39.83-.41-.19c-1.93-.91-4.38-.5-5.81 2.52-1.35 2.84-.53 5 2.07 6.24 3.33 1.57 4.64-.21 5.67-2.39l.44-.93 1.38.66c.53.25.8.47.59.92s-.42.44-1.06.14l-.6-.28-1.9 4 .54.25c2.58 1.22 5.09 1.55 6.84-2.15 1.4-2.95-.25-5.26-2.82-6.47m-7.06 2.14c-.22.45-.47.6-.7.49l-.14-.07c-.38-.19-.29-.65-.08-1.08a.74.74 0 011.08-.45l.29.14c-.1.23-.45 1-.45 1m10.71-7.46l-1.63 3.43a.82.82 0 01.47 1.24l-.47 1 3.47 1.64.64-1.36c1.29-2.74.74-4.6-2.48-6m61.29.25l.51 2.55c.33 1.82-1 3.36-2.53 4.11l-4.7 2.32 2 4 4.91-2.45c3.64-1.81 5.68-4.92 4.74-9-.43-1.85-1.19-3.72-.18-4.23l-2.14-4.32c-3.49 1.72-3.38 3.76-2.61 7m-4.91-3.86l-6.56 3.26 1.73 3.5 6.56-3.25zm2.14 4.33l-6.56 3.26 1.74 3.5 6.56-3.26z"/><path class="cls-4" transform="rotate(-52.85 214.443 192.697)" d="M207.34 190.39h14.19v4.62h-14.19z"/><path class="cls-4" d="M201.88 199.22l-5.16 4.62 2.2 2.45 4.82-4.31c.47-.4.74.05 1 .34l-4.74 4.23 1.73 1.94 4.73-4.23.62.69-5.2 4.66 2.19 2.45 8.17-7.31-4.94-5.52c-1.12-1.25-3.23-2-5.44 0m-22.34 17.34a1.13 1.13 0 01.86-.61l-.71-2.65c-2.63.71-3.46 2-3.61 3.32l-1.84.5-.41-1.21-3.29.9.42 1.19-1.24.34.91 3.4 1.48-.4 2 5.93 3.27-.88-2-5.93 1.46-.39c.86-.24 1.3-.1 1.46.48s-.14 1-1.23 1.31l.92 3.41c3.88-1.05 4.68-2.86 4-5.34l-.2-.75a3.64 3.64 0 00-2.28-2.62m-76.74-20.72l2-1.62-3.54-4.47.56-.44-2.5-3.16-.56.45-3.53-4.46-2 1.62 3.53 4.46-.73.57-3.36-4.24-5.86 4.64 2.24 2.87c-1 .05-2.53-.94-3.54-2.27l-2.17 1.72c1.57 2 3.23 3.13 4.7 3.25l-1.31 1 2.79 3.53 1.31-1c-.21 1.47.51 3.33 2.09 5.3l2.17-1.71c-1-1.22-1.75-2.77-1.39-3.95l2.3 2.91 5.86-4.65-3.32-4.2.73-.58zm-11.25-3.5l-1-1.33.72-.57 1 1.33zm2.39-1.89l-1.06-1.33.73-.57 1.06 1.33zm1.17 6.38L94 195.51l.72-.57 1.06 1.33zm3.11-2.47l-.72.58-1.06-1.33.72-.58z"/><path class="cls-4" transform="rotate(-10.44 81.744 166.569)" d="M77.25 164.8h9v3.45h-9z"/><path class="cls-4" transform="rotate(-39.96 106.82 98.346)" d="M105.08 93.85h3.49v8.99h-3.49z"/><path class="cls-4" d="M79.64 153.26l-3.48-.21.48-7.96 3.48.2-.13 2.24 5.49.34-.21 3.48-5.49-.33-.14 2.24zm18.08-47.82l-2.44-2.5 5.72-5.58 2.44 2.5-1.61 1.57 3.84 3.94-2.5 2.43-3.84-3.94-1.61 1.58zm55.87-24.85l.21-3.48 7.97.47-.2 3.48-2.25-.13-.33 5.49-3.48-.2.33-5.5-2.25-.13zm49.79 19.91l2.52-2.42 5.52 5.76-2.51 2.42-1.56-1.63-3.98 3.81-2.41-2.52 3.97-3.81-1.55-1.61zM85.06 137.44l1.98.37-1.33 7.33-8.85-1.61 1.33-7.34 1.98.37-.71 3.9 1.58.29.52-2.87 1.74.31-.53 2.87 1.58.29.71-3.91zM78.61 134l1.93-5.54a3.49 3.49 0 011.51-2 2.48 2.48 0 012.11-.19 2.46 2.46 0 011.47 1.81 7.71 7.71 0 014.71-.42l-1.27 3.67a7 7 0 00-2.55-.34c-.6.06-1.07.6-1.42 1.59l3.16 1.1-1.15 3.32zm2.89-2.69l1.64.57.2-.57c.34-1 .17-1.34-.37-1.52a.94.94 0 00-.66 0c-.21.07-.46.5-.56.83zm15.61-15.83L95 118.25l-5.27-7.92 3.43-4.51 9 3-2.11 2.78-1.48-.6-2.36 3.1zm-2.11-3.2l1.49-2-3.59-1.08zm37.28-22.88l-3.36.95.55-9.5 5.45-1.54 5.47 7.79-3.36 1-.91-1.33-3.76 1.06zm.2-3.84l2.36-.67-2.15-3zM114.81 98a4.42 4.42 0 01-3.53-.05 4.69 4.69 0 01-2.44-6.1 4.38 4.38 0 012.53-2.46 4.58 4.58 0 016 2.58 4.49 4.49 0 010 3.56 4.42 4.42 0 01-2.56 2.47m-2.38-6a1.31 1.31 0 00-.8.79 1.53 1.53 0 000 1.17 1.49 1.49 0 00.79.86 1.46 1.46 0 001.94-.78 1.51 1.51 0 000-1.16 1.53 1.53 0 00-.78-.87 1.35 1.35 0 00-1.13 0m53.21-4.41a4.43 4.43 0 01-2.84-2.11 4.69 4.69 0 011.61-6.38 4.66 4.66 0 016.34 1.6 4.72 4.72 0 01-1.61 6.37 4.42 4.42 0 01-3.5.52m1.57-6.23a1.41 1.41 0 00-1.12.17 1.69 1.69 0 00-.53 2.13 1.43 1.43 0 002 .5 1.49 1.49 0 00.68-1 1.51 1.51 0 00-.15-1.17 1.31 1.31 0 00-.89-.68m25.14 17.43a4.33 4.33 0 01-2.19-2.75 4.72 4.72 0 013.18-5.75 4.63 4.63 0 11-1 8.51m3.12-5.61a1.36 1.36 0 00-1.11-.12 1.51 1.51 0 00-.91.76 1.54 1.54 0 00-.16 1.16 1.36 1.36 0 00.69.88 1.38 1.38 0 001.13.13 1.49 1.49 0 00.88-.76 1.47 1.47 0 00.18-1.16 1.38 1.38 0 00-.7-.89m12.79 21.36a4.39 4.39 0 01-1.31-3.29 4.63 4.63 0 018-3.15 4.42 4.42 0 011.3 3.27 4.71 4.71 0 01-4.73 4.57 4.4 4.4 0 01-3.23-1.4m4.61-4.46a1.37 1.37 0 00-1-.45 1.52 1.52 0 00-1.08.47 1.56 1.56 0 00-.5 1.05 1.49 1.49 0 001.45 1.51 1.63 1.63 0 001.08-.47 1.55 1.55 0 00.5-1.06 1.37 1.37 0 00-.41-1m7.95 41.39a4.36 4.36 0 01.8-3.44 4.68 4.68 0 016.49-1.09 4.45 4.45 0 011.86 3 4.5 4.5 0 01-.79 3.45 4.71 4.71 0 01-6.49 1.08 4.46 4.46 0 01-1.87-3m6.33-1.06a1.29 1.29 0 00-.6-1 1.55 1.55 0 00-1.15-.22 1.53 1.53 0 00-1 .58 1.4 1.4 0 00-.25 1.1 1.38 1.38 0 00.6 1 1.56 1.56 0 001.15.23 1.48 1.48 0 001-.59 1.35 1.35 0 00.26-1.1M141.11 86.9l-1.15-8.92 3.47-.45.85 6.68 3.94-.51.28 2.25-7.39.95zm36.11-5.9l-1 2.84a2.78 2.78 0 002.45-.07 3.78 3.78 0 001.19-1.84l3.59 1.24a7.1 7.1 0 01-1.29 2.42 5 5 0 01-2.16 1.15 6 6 0 01.75 5l-3.83-1.33c.7-2.18.09-3.4-1.59-4l-1.07 3.1-3.26-1.14 3-8.5zm9.12 13.86l-3.07-1.64 1.85-3.46-.78-6.16 3.13 1.67.19 3.41 2.94-1.74 3.13 1.67-5.54 2.78-1.85 3.47zm27.11 27.97l-1.69-3.06 3.44-1.9 2.7-5.57 1.72 3.09-1.7 2.97 3.42.14 1.71 3.11-6.16-.69-3.44 1.91zm13.25 9.74h-2.52a4.44 4.44 0 00.24-2.54c-.08-.25-.16-.67-.59-.69s-.84.12-.73 1.79a6.31 6.31 0 01-.17 1.74 2.17 2.17 0 01-.53 1.07 2.36 2.36 0 01-1 .66 2.51 2.51 0 01-2.44-.3 5.67 5.67 0 01-1.78-2.78 11.76 11.76 0 01-.74-4.2h2.73c-.13.38-.25 1.14-.39 1.86-.19.91.15 1.35.5 1.43s.88.06.87-1.62a7.94 7.94 0 01.13-1.31 2.52 2.52 0 011.55-1.78 2.61 2.61 0 012.5.28 5.25 5.25 0 011.83 2.66 11.1 11.1 0 01.58 3.7m-5.97 27.88l.31-2.67 9.31-2.09-.4 3.35-4.31 1.05 3.95 2.07-.21 1.75-4.32 1.15 3.96 1.95-.4 3.38-8.58-4.08.31-2.64 4.23-1.19-3.85-2.03zM85.13 154l.2 3.02-3.41 2.85 3.56-.23.21 3.19-9.04.59-.18-2.74 3.61-3.06-3.79.24-.21-3.27 9.05-.59zm134.36-14.17l-.67-3.69 8.89-1.61.67 3.69-3.26.59.47 2.58 3.26-.59.63 3.45-8.9 1.61-.63-3.45 3.3-.6-.47-2.58-3.29.6zM94.75 119l-1.39 2.69-4.39.7 3.17 1.63-1.46 2.84-8.05-4.14 1.26-2.45 4.66-.77-3.38-1.73 1.51-2.92 8.07 4.15zm33.45-28.34l-2.74 1.29-3.91-2.13 1.53 3.23-2.9 1.36-3.86-8.18 2.49-1.18 4.16 2.23-1.61-3.43 2.96-1.4 3.88 8.21zM102.73 207l-2.21-1.84a1.55 1.55 0 01-2.35-.14l-1.76 2.12c2.72 2.44 4.72 1.94 6.32-.14"/><path class="cls-4" d="M99.83 203.41l4 3.29-3.2 3.85 3.5 2.91 3.2-3.85 4 3.29 4.23-5.08-11.45-9.49zm5.3-.54l5.71 4.73-.64.77-5.71-4.74zm8.45-1.23l.46-.55-3.1-2.58-.46.55-4.39-3.64-1.68 2.02 11.88 9.84 1.68-2.01-4.39-3.63z"/><path class="cls-4" d="M109.47 212.54l-2.22-1.84c-1.73 2-1.86 4 1 6.24l1.77-2.12a1.54 1.54 0 01-.58-2.28"/><path class="cls-2" d="M42.86 127.12q3.54.54 3.06 3.69l-.73 4.73-3.59.66-1 6.43 1 .16-.73 4.73-8.4-1.29.18.56L29.3 148l13.79 2.12-.73 4.73-21.53-3.31 1-6.17L19 146l-1 6.82-4.2-.64 2-12.87-2.45-.31.73-4.73 2.36.37 2-13 4.2.65-1.07 7 2.43 1.39 1-6.3zm-23.08 13.79l2.8-.78.67-4.33-2.46-1.46zm6.46 3.41l-.48 3.15 2.62.4a4 4 0 00-.75-2.13 3.33 3.33 0 00-1.39-1.42zm13.4-12.86l-6.43-1-.83 5.39q-.47 3-3 2.63l-2.23-.34-.16 1a8.42 8.42 0 015 5.07L33.76 133l6.7 1 .18-1.18c.22-.82-.11-1.31-1-1.36zM29.92 130l-1.44-.22-.59 3.81.66.1c.61.09.93-.22.95-.93zm7.28 12.14l.58-3.81-1.44-.22-.59 3.8zM20.4 111.7l3.73-7.93 3.37 1.58-3.73 7.93zm12-5.22l-4.69 10-3.37-1.58 4.69-10zm.53-4.89l-2.06 3.14a17.77 17.77 0 00-5.19-3.32l2-3.31a17.67 17.67 0 015.25 3.49zm-6.21-6.14l1.92-4.09 2.83 1.47a12.6 12.6 0 002.8.29A6.61 6.61 0 0033 90.9a7.56 7.56 0 00-2-2.09l3-2.87a13.05 13.05 0 012.07 2.15 11.15 11.15 0 011.55 2.64L35 93a16.25 16.25 0 007.87-3.63l2.83 4a15.58 15.58 0 01-9.35 4 14.34 14.34 0 013.08 9.37l-5.09.84a11.77 11.77 0 00-1.85-7.92c-.78-1.19-2.72-2.58-5.77-4.21zm2.46 20.37l3.73-7.93 3.09 1.47-3.73 7.93zm7.21 3.39l-3.13-1.46 3.74-7.94 3.13 1.47zm3-17.83l1.87-4 4 2.16a7.4 7.4 0 002.49 0 5.47 5.47 0 00-1.12-2.29 5.56 5.56 0 00-1.71-2L48 92.44a11.2 11.2 0 011.71 2A7.78 7.78 0 0151 97.17l-2.55 2.32a14.64 14.64 0 007.68-3.87l3.13 4a17.24 17.24 0 01-9.82 4 14.49 14.49 0 013.15 10.14l-4.07.87.72.34-2.37 5 1.68.79-1.7 3.6-9.49-4.36 4.07-8.65 6.24 2.94a10 10 0 00-.53-5.1 9.89 9.89 0 00-3-4.62 20.5 20.5 0 00-4.8-3.19zm4.52 10.05a5.57 5.57 0 00-1.76-1.56 17.45 17.45 0 00-3-1.83l2.23-3.5a8.94 8.94 0 012.41 1.46 8 8 0 012.49 2.2zm-.12 7.13l.74-1.56-1.69-.79-.73 1.56zM51 86l6.31-9.14-2.95-2.08-4.66 6.87-4-2.48 4.75-7-4.31-2.75L49 65.16l4.32 2.94 4.76-6.79L61.93 64l-4.76 6.78 2.93 1.89 6-8.74 3.9 2.58-6.05 8.65 8.53 5.6-2.78 4.12-8.53-5.6-6.49 9.34zm25.83-29.26l4.34-3.83-3.6-3.7 3.17-2.94 3.85 3.85 6.55-5.54.13-.55 4.43.81a65.1 65.1 0 01-1 9.59l-3.79-.28a44.71 44.71 0 00.64-4.95L87.21 53l8.51 8.76-3.1 3.06-8.66-9-4.44 3.9zm26.87-24.5l2.08-4.86c2.53.84 5.33 1.94 8.38 3.28L112 35.57a78 78 0 00-8.3-3.33zm5 17.22a43.83 43.83 0 0011.18-9.24A37.43 37.43 0 00127 26.88l4.51 3.12a48.69 48.69 0 01-7.67 13.35 62 62 0 01-11.54 10.48zM148 23.31a3.7 3.7 0 012.28-1.42 3.83 3.83 0 013.56 1.52 147.65 147.65 0 0015.54 16.05l-3.79 4.46q-4.31-4.59-7.83-8.63-3.25-3.64-6.13-7c-.52-.62-1-.63-1.32 0a78.73 78.73 0 01-7.61 10.11l-3.64-4.45a44.94 44.94 0 005-5.36c1.43-1.87 2.75-3.59 3.94-5.28zm15.62 3.18a2.84 2.84 0 01-2.51-1 3.16 3.16 0 01-.76-2.14 3.38 3.38 0 01.7-2.25 3 3 0 012.53-1.1 3.71 3.71 0 012.37 1.1 3.2 3.2 0 01.77 2.14 3.63 3.63 0 01-.7 2.11 2.92 2.92 0 01-2.41 1.14zm1-2.25a1.28 1.28 0 00.42-.92 1.32 1.32 0 00-2.25-1 1.31 1.31 0 00-.41.93 1.25 1.25 0 00.38.93 1.32 1.32 0 00.93.42 1.3 1.3 0 00.88-.36zm13.27 7.93l24.66 7.45-1.3 4.32-24.67-7.45zm28.21 21.11a43.74 43.74 0 0014.31 2.39 37.66 37.66 0 0014.75-3.36l.56 5.44a48.6 48.6 0 01-15.12 3 62.1 62.1 0 01-15.45-1.86zm9.71-15.07l5-1.63c1 2.47 2 5.3 3 8.49l-5.14 1.55a77.36 77.36 0 00-2.86-8.41zm34.01 57.45l-4.9 1.21a25.9 25.9 0 01-2.65-7 21 21 0 01-.17-7.36 18.87 18.87 0 01-6.43-1 20.88 20.88 0 01-7.12-4l1.81-5a31.38 31.38 0 004.72 3.48 7.17 7.17 0 004.42 1.29l-6.38-7.47 3.23-2.81 8.36 9.79 1-.67-5.18-6.06 2.73-2.33 5.18 6.06.9-.78-5.09-6 1.12-1-3-3.53 6.76-5.78 8.11 9.49 1.76-1.46 3.1 3.64-1.81 1.55 7.93 9.29L261.5 85l-2.94-3.44-1.11 1-5-5.85-.91.77 5.09 6-2.73 2.33-5.09-6-.82.88 8.37 9.79-3.23 2.76-6.64-7.77a13 13 0 00.84 4.87 22.17 22.17 0 002.49 5.32zm-2.64-31.11l5.09 6L254 69l-5.09-6zm8.2 9.59l4.92 5.76 1.7-1.47-4.91-5.75zm5.92 20.91l7.27-3.27-.87-1.94 3.87-1.74 1.58 3.52 3.85-1.74 1.9 4.24-3.88 1.74 1.2 2.66-1.94.87a14.3 14.3 0 007.75 1l.94 4.38-2.73.06 4.78 10.67-3.88 1.74-5.71-12.73-3.36-.67 1.36 3-2.54 1.14.84 1.22 3.88-1.74 1.74 3.88-3.15 1.42 1.8 2.34.37-.17.59 4.25-7.05 2.44a3.51 3.51 0 01-2.66-.41 5.47 5.47 0 01-2.13-3.12l2.84-2.44-5.34 2.4-1.74-3.88L268 111l-.84-1.22-7.39 3.31c-.73.33-.95.82-.65 1.46l2.55 5.7q.19 1.08 1.65.42l2.34-.61.34 4.65q-4.1 1.26-5.14.85-1.55-.18-2.79-3l-3.65-8.11c-1-2.19-.5-3.71 1.44-4.58l8.6-3.86-1.07-1.41-7.63 3.4q-2.41 1.09-3.63 0a12.09 12.09 0 01-2.33-3.9l2.24-2.47a7 7 0 01-3.85-.16l2.39-4.71q4.65 1 10.72-1.71zm-5.1 8.11l7.88-3.54-.38-.85a27.57 27.57 0 01-10.11 2.79l.65 1.45c.26.57.91.62 1.96.15zm11.43-6l2.07 4.61-2.31 1 .95 1.47 2.18-1-.82-.21 2.3-3.61-1.58-3.52zm4.18 19.38l-1.34-2-1.82.82.49 1.09c.17.6.6.8 1.29.59zm-2.44 11.67l16.19-2.2 1.54 11.32 5.52-.75.65 4.74-5.53.75 1.55 11.45-16.18 2.19-.63-4.6 1.45-.2-.93-6.84-10.4 1.41-.64-4.74 10.4-1.41-.93-6.84-1.45.19zm6.27 3.7l.93 6.85 6.45-.88-.93-6.84zm1.57 11.59l.93 6.84 6.45-.88-.93-6.84z"/></g></g></svg>