<svg xmlns="http://www.w3.org/2000/svg" width="330" height="30"><g data-name="レイヤー 2"><rect width="330" height="30" rx="5" fill="#00b4dc"/><path d="M93.11 11.81l.78.11c.09 0 .31.06.31.2s-.29.21-.45.23c-.25.54-.61 1.13-.72 1.32h3.13v6.88c0 1.83-.75 1.85-2.2 1.88a2.75 2.75 0 00-.44-1.24 5.37 5.37 0 00.89.09c.6 0 .62-.27.62-.66v-5.94H92v1.13c0 .44.15.45.49.45h.76c.26 0 .52 0 .61-.92a3 3 0 001 .5c-.3 1.25-.8 1.39-1.46 1.39h-1.23c-.73 0-1.22-.13-1.22-1.11v-1.44h-2.1l.69.21c.19.06.26.1.26.18s-.18.18-.3.2a5 5 0 01-2.46 3 2.14 2.14 0 00-.92-.74 3.76 3.76 0 002.42-2.82H86v7.69h-1.2v-8.73h3.41a10.22 10.22 0 00-1-1.61l.81-.25h-3.86v-1h5.76V9.58l1.19.07c.14 0 .32 0 .32.17s-.18.21-.32.25v.76h5.81v1zM88.92 21v.51h-1.11v-3.64h5.37V21zm-.6-9.22a10.28 10.28 0 011 1.61l-.83.25h3.21a9.57 9.57 0 001-1.86zm3.77 7h-3.17v1.36h3.17zm6.04-5.84v-.89h4.71v.89zm3.4 9.26v-.68h-1.9v.92h-1v-4.71h4v4.47zM98.79 11v-.88h3.56V11zm0 3.78v-.88h3.53v.88zm0 1.92v-.87h3.53v.87zm2.74 1.92h-1.9v1.9h1.9zm8.69-2.45a7.06 7.06 0 01-3.53-3 5.55 5.55 0 01-3.35 2.94 2.93 2.93 0 00-.68-.91c3.06-1 3.31-2.62 3.31-4.6V9.53l1.25.05c.15 0 .27 0 .27.16s-.1.15-.38.25c0 .57 0 1-.07 1.61a5.78 5.78 0 004 3.67 3 3 0 00-.82.94zm-.06 6.19a7.84 7.84 0 01-3.4-3.41 6.36 6.36 0 01-3.33 3.44 3.5 3.5 0 00-.77-1C106 20 106 18.29 106 15.45l1.18.07c.07 0 .25 0 .25.15s-.11.16-.32.23v1.34a4.81 4.81 0 00.82 1.82 8.43 8.43 0 003 2.36 3 3 0 00-.77.98zM105 17a9.9 9.9 0 01-.69 2.31 2.72 2.72 0 00-1.06-.31 8.57 8.57 0 00.81-2.62l1.09.23c.15 0 .24.08.24.15s-.21.18-.39.24zm0-6a10.9 10.9 0 01-.63 2.18 2.62 2.62 0 00-1-.3 9.11 9.11 0 00.7-2.52l1.08.24c.11 0 .24 0 .24.21s-.07.1-.33.19zm5.09.12a.51.51 0 01-.21 0 13.49 13.49 0 01-1.21 1.81 3.66 3.66 0 00-.86-.65 8.53 8.53 0 001.33-2.06l1 .58c.08 0 .14.09.14.18s0 .09-.13.09zm-.24 6.08a9.94 9.94 0 01-1 1.69 3.1 3.1 0 00-.91-.5 9.14 9.14 0 001.14-2.06l1 .47c.07.05.21.12.21.24s-.29.12-.38.11zm9.49.03L120 22l-1.21.21-.7-4.78-5.33.69-.16-1.15 5.32-.69-.39-2.61-3.91.5-.1-1.17 3.88-.49L117 10l1.24-.14c.08 0 .29 0 .29.14s-.06.16-.22.28l.29 2.08 3.73-.48.12 1.13-3.68.48.38 2.62 5.08-.64.14 1.15zM137 15.17a29.66 29.66 0 01-2.29 3.17 7.09 7.09 0 00-1-.52 12.08 12.08 0 002.14-2.82l-3.68.76 1.22 6.06-1 .24-1.22-6.08-3.25.67-.28-1 3.33-.64-.56-2.76 1.08-.09c.13 0 .28 0 .28.14s-.06.16-.2.25l.47 2.26 4.09-.8a1.55 1.55 0 00.75-.35l.8.65a7.07 7.07 0 00-.68.86zm8.13-1.17a16 16 0 00-4-2.68l.73-1a19.27 19.27 0 014 2.65 7.1 7.1 0 00-.73 1.03zm-2.73 7.56c0 .24 0 .32-.2.32s-.18-.1-.22-.17l-.76-1.26a16.54 16.54 0 0010.7-7.69 7.81 7.81 0 00.78 1.1 18.93 18.93 0 01-10.3 7.67zm24-1.56a46.35 46.35 0 01-4.78-5.11c-1.44-1.78-1.59-2-2.1-2s-.77.37-1.5 1.21-2.38 2.81-2.73 3.26c0 .14 0 .32-.17.32s-.12-.05-.2-.14l-.92-.94a14.6 14.6 0 002.55-2.6c1.64-1.95 2.13-2.41 3-2.41s1.42.57 2.87 2.41a34.56 34.56 0 004.77 4.83 6.28 6.28 0 00-.79 1.17zm-1.68-7.79a1.25 1.25 0 01-1.25-1.26 1.26 1.26 0 012.51 0 1.25 1.25 0 01-1.26 1.22zm0-2a.72.72 0 000 1.44.72.72 0 100-1.44zm3.84 6.4v-1.23h11.93v1.23zM187.13 14a16 16 0 00-4-2.68l.73-1a19.27 19.27 0 014 2.65 7.1 7.1 0 00-.73 1.03zm-2.73 7.56c0 .24 0 .32-.2.32s-.18-.1-.22-.17l-.76-1.26a16.54 16.54 0 0010.7-7.69 7.81 7.81 0 00.78 1.1 18.93 18.93 0 01-10.3 7.67zm14.6-.07l-1.1.33a13.6 13.6 0 01-.83-5.07A30.78 30.78 0 01198 10l1.26.48c.23.08.3.14.3.21s-.17.17-.33.2a20 20 0 00-1 6.15 12.36 12.36 0 00.17 2.15 17.29 17.29 0 01.9-2.25 2.16 2.16 0 00.68.71 9.21 9.21 0 00-.98 3.84zm9.39-1a22 22 0 01-3.25.21c-1.74 0-3.94-.17-3.94-2a4.69 4.69 0 01.58-2.09l1.09.22a3.25 3.25 0 00-.53 1.59c0 .89 1 1.12 2.71 1.12a13.38 13.38 0 003.42-.4 8.28 8.28 0 00-.08 1.38zm-5.26-7.67h-1.4v-1.19a12.15 12.15 0 001.42.07 19.13 19.13 0 004.43-.45c0 .11.11.84.15 1.2a25.18 25.18 0 01-4.6.4zm10.98 8.07a4.38 4.38 0 00-.46-1.29c1.69 0 7.62-.07 7.62-4.07 0-.57-.16-3.23-3.52-3.23a19 19 0 00-7.1 2.07l-.65-1.58a15.63 15.63 0 001.8-.36c4.09-1.14 4.53-1.25 6.09-1.25 3.26 0 4.62 2.16 4.62 4.33.03 3.41-3.39 5.17-8.4 5.38zm13.54.65c-1.29 0-2.89-2.32-2.89-6.16a25.08 25.08 0 01.57-4.72l1.29.39c.19.06.3.09.3.23s-.2.19-.31.19a13.79 13.79 0 00-.64 4.19c0 2.45 1 4.39 1.7 4.39s1.38-1.78 1.77-2.76a3.65 3.65 0 00.87.78c-.31.78-1.39 3.47-2.66 3.47zm7.74-2.39a12.29 12.29 0 00-2.52-7.15l1-.64a14.25 14.25 0 012.78 7.21zm11.28-6.29c-.74.5-3 2.18-3 4.52 0 1.8 1.35 3.24 4.34 3.55a6.92 6.92 0 00-.53 1.31c-2.57-.51-5.05-1.91-5.05-4.84 0-1.84 1.08-3.8 3.83-5.44-.35 0-6.43.68-7.57 1l-.19-1.52h.71a81.14 81.14 0 0011-1.23l.28 1.38a6.42 6.42 0 00-3.82 1.27zM60 14h10l-5 5-5-5z" fill="#fff"/></g></svg>