<svg xmlns="http://www.w3.org/2000/svg" width="560" height="59.75"><path d="M0 54.75h560v5H0zM29.45 9.07l2.18.34c1 .17 1.35.21 1.35.67s-.55.55-1 .59c-.17.42-.47 1-1 2h8.15v21.44c0 4.16-1 5.92-7.77 5.92v-1.09a7.34 7.34 0 00-1.51-4.49V37H17.73v1h-5.51v-9.81c-.12.08-.25.12-.42.21a8 8 0 00-2.94-2.78v14.46H2.77V12.69h8.78a15.79 15.79 0 00-1.64-3.07l3-.55h-11V4h15.9V1l6.34.29c.42 0 .8.13.8.55s-.42.59-.8.76V4h16v5zm-20.59 9V24a9.29 9.29 0 004.46-5.93zm24.45 4.58A4 4 0 0129.45 25h-5.38c-2.48 0-3.28-.89-3.28-2.86v-4.08h-4.28l2.22.72c.3.08.89.29.89.67 0 .17 0 .46-1.14.71a15.09 15.09 0 01-3.82 6.18h15.25v7.81c.84.09 1.55.21 2 .21 1.3 0 1.38-.42 1.38-1.38zM16.51 9.07a22.46 22.46 0 011.85 3.24l-1.52.38h7.36a27.24 27.24 0 001.68-3.62zm7.85 21.6h-6.63v2h6.63zm1.73-12.61v1.35c0 .54 0 .92.84.92h1.26c.79 0 .92-.71 1.26-2.27zm7.22 0h-3.82a11.92 11.92 0 003.82 2zM69.39 4.24c.42 0 .63.17.63.42s-.38.51-1 .76a38.49 38.49 0 01-1.43 6.93 14.29 14.29 0 00-5.38-1v1.09H48.09V8.28H62.2v2.94a38.69 38.69 0 001.52-7.73zm-7.52 35.12h-5v-1.47h-2.39V40h-5.26V24.87h12.65v4.28a20.86 20.86 0 002.56-7.35l5.38 1.14c.29 0 .75.25.75.58 0 .63-.84.8-1.21.84a35.21 35.21 0 01-2.19 6.94 13.56 13.56 0 00-5.29-1.64V35c9-2.77 8.9-8.32 8.78-16l6.09.33c.21 0 .63 0 .63.51 0 .25-.29.46-1.14.71v3.11a12.4 12.4 0 003.66 6.76c.75.72 3.9 3.61 6.47 4.54a12.06 12.06 0 00-3.74 4.7A20.3 20.3 0 0174.18 32c-1.26 2.39-4.54 6.47-9.16 7.94a12.83 12.83 0 00-3.15-4.08zM60.73 2.77v4.08H50.15V2.77zm0 11.09v4.08H50.15v-4.08zm0 5.51v4.07H50.15v-4.07zM56.91 33.1v-3.65h-2.43v3.65zM76.4 1.51c.51 0 .84.09.84.46s-.67.68-1.17.8c0 .63-.17 3.49-.17 4.08a9.58 9.58 0 003.1 5.84A25.85 25.85 0 0086.65 17a14.85 14.85 0 00-3.78 4.54c-1.93-.88-6.3-2.9-9.24-6.8a18.69 18.69 0 01-8.82 6.72A16 16 0 0061.49 17c7.23-2.35 8.91-5.92 8.91-12.6 0-1.22-.05-1.93-.09-3.07zm9.08 4a.69.69 0 01.42.59c0 .21-.13.5-.59.5a3.94 3.94 0 01-.76-.08 27.4 27.4 0 01-3.82 5.12 17.38 17.38 0 00-4.45-3.31 22.61 22.61 0 004-5.59zM85 23.4c.42.21.63.38.63.71 0 .51-.67.72-1.26.76a25.57 25.57 0 01-2.77 4.58 16.14 16.14 0 00-4.45-3 27.54 27.54 0 002.94-5.37zm35.71 8.86c0 .84.3 1.51 1.68 1.51h3c1.13 0 1.38-.46 1.55-1 .21-.72.72-2.78 1-4 3.15 2.31 4.74 2.64 5.5 2.77a19.27 19.27 0 01-1.89 6.13c-1 1.73-3.15 1.85-3.78 1.85H120c-3.28 0-5.8-1.09-5.8-5.29v-8.02h-4.49l2.06.55c.25.08.71.21.71.71 0 .8-.88.84-1.64.89-3.44 8.27-9.66 10.79-12.94 12.09a17.1 17.1 0 00-5-5c2.64-.58 10.33-2.31 12-9.24h-6.12V2.14h28.82v24.07h-6.89zM121.13 9V7.52h-15.5V9zm-15.5 4.24v1.52h15.5v-1.53zm0 5.93v1.68h15.5v-1.69zm34.82-5.27V8.36h16V1.3l6.05.38c1 .08 1.18.38 1.18.59s-.17.46-.89.92v5.17h16v5.54h-13.56a39.69 39.69 0 0014.71 16.22c-2.78 2.23-3.62 3-4.58 4.83A50.23 50.23 0 01169 29v4.95h-6.22v5.93h-6.34v-5.94h-6.26v-5a50.52 50.52 0 01-6.43 6c-1-1.85-1.84-2.65-4.57-4.83a38.79 38.79 0 0014.7-16.22zm16 6.39a48.23 48.23 0 01-5.67 8h5.67zm12 8a47.24 47.24 0 01-5.63-7.9v7.9zM209 14.41h12.94v17.26c0 1.77 0 3.28-1.47 4.33s-3.57 1.26-7.18 1.26a14.34 14.34 0 00-1.93-6.47 17.47 17.47 0 002.6.25c1.34 0 1.6-.29 1.6-1.51v-9.2H209v19.54h-6.34V20.33h-6.43v16.51h-6.42V14.41h12.85v-3.15h-16V5.54h16V1.3l6.68.25c.25 0 .63.13.63.51s-.55.71-1 .8v2.68h16v5.72h-15.55c.25.08.5.25.5.5 0 .46-.59.67-1 .8zm37.33 9.53c-1.17 1-3.27 3.2-3.27 4.58 0 3 5.75 3 7.52 3A58.57 58.57 0 00267.42 29a32 32 0 001.09 7.14 64 64 0 01-16.42 1.93c-6.56 0-9.16-.71-11.22-1.55-1.34-.55-5.33-2.52-5.33-6.77s4.37-8.27 6.09-9.83zM264 10.12c-3.91 1.56-8.28 4.16-10.59 6.85-1.51-1.3-3.11-2.65-4.41-3.61 1.55-1.43 1.93-1.72 3.15-2.73-2.61.21-9.66.59-13.23.5l-.34-7a84.64 84.64 0 0010.42.53 82.37 82.37 0 0011.72-1zm1.84-6.55A30.4 30.4 0 01269.65 8a17 17 0 00-2.48 3 47.55 47.55 0 00-4-4.67zM269.06 0A44.85 44.85 0 01273 4.12 16.77 16.77 0 00270.32 7a34.45 34.45 0 00-3.66-4.11zm32.17 39.91h-6.05V28.69a41.69 41.69 0 01-12.31 10.71 14.58 14.58 0 00-5.38-4.16A35.92 35.92 0 00291 24.49h-12.1V19h7.86a34.38 34.38 0 00-3.37-6.22l3-1.68h-5.55V5.67h14.33V1.39l6.3.37c.5.05.92.09.92.63s-.84.72-1.17.8v2.48h14.24v5.46H310l2.56 1.09c.29.13.42.3.42.51 0 .54-.5.63-.84.71A37.59 37.59 0 01309.5 19h7.94v5.46H305a32.68 32.68 0 0013 10.2 19.82 19.82 0 00-4.45 4.53 33 33 0 01-12.35-10.75zM295.18 19v-7.9h-5.42a23.67 23.67 0 013.49 6.47 21.72 21.72 0 00-3.2 1.43zm6.05-7.9V19h4.87a26.7 26.7 0 00-2.9-1.51 33 33 0 003.19-6.39zm41.91 17.09a29.59 29.59 0 01-4.95 5.08 10.62 10.62 0 00-3.95-2.81c.75-.59 1.39-1.05 2.35-1.89-2.6 1.13-5.8 2.35-9.2 3.48 0 .51-.17 1.09-.63 1.09s-.59-.54-.67-1l-1.43-5.93a32.64 32.64 0 004.75-.88v-9.49h-4.33v-5.46h4.33V1.64l6.22.33c.5.05.88.09.88.47s-.26.5-.88.79v7.15h3.73v5.46h-3.73v7.64c1-.42 1.63-.67 2.64-1.13H338v-4.24h25.45v4.24h-16.27l-.8 1.34h16.76c0 4.24-.13 12.65-2.86 14.79-1.59 1.26-4.28 1.39-6.93 1.39a12.46 12.46 0 00-1.13-4.54 32.47 32.47 0 01-5 5.25c-1.09-1.18-1.77-1.51-4.45-2.69a29.26 29.26 0 008.86-9.7h-1.89a29.28 29.28 0 01-11.05 11.13A11 11 0 00335 36a25.64 25.64 0 009.79-7.77zm-3.82-5.84a18.57 18.57 0 00-.29 3.74 28.29 28.29 0 002.56-3.74zm21.17-5.63h-19.61V1.93h19.61zm-5.67-9V6.3h-8.27v1.43zm-8.27 3.36v1.43h8.27v-1.42zm9.91 17.1a45.86 45.86 0 01-3.32 5.82c.51 0 1 .08 1.47.08.84 0 1.6-.08 1.89-1a21.83 21.83 0 00.76-4.87zm34.69 4.5C400.26 31 403 23.94 403 19.58c0-3.41-1.8-9.67-9.7-10.3-1.3 15.38-7.65 26.85-12.1 26.85-3.27 0-9.37-5.55-9.37-13.32 0-9 8.24-19.58 20.59-19.58 9.2 0 17.22 6.26 17.22 16.3a19.55 19.55 0 01-5 13c-2.56 3-5.54 4.54-9.11 6.09a27.54 27.54 0 00-4.38-5.94zM378 22.31c0 3.23 1.81 5.67 2.69 5.67s1.81-1.89 2.27-3a36.78 36.78 0 003.23-14.45c-4.87 1.82-8.19 8-8.19 11.78zm59.6-3.41a5.17 5.17 0 01-.29-1.8v-16l6.38.51c.42 0 .72.17.72.46s-.34.59-1.1 1v4.11a43.63 43.63 0 007.61-4.07l4.37 4c.17.17.38.38.38.59a.6.6 0 01-.68.58 3.82 3.82 0 01-.88-.16 97.93 97.93 0 01-10.8 4.7v1.34c0 1.56 1.27 1.56 1.85 1.56h4.12c1.47 0 1.89-1.72 2.44-3.82a14.68 14.68 0 005 2.26c-1.21 7-4 7-6.3 7h-8.73a5.85 5.85 0 01-3.28-1c-.29.63-.84 1.72-1.13 2.4h14.28v17.22H445V38.6h-16.39v1.18h-6.51V22.52h8.49a32.4 32.4 0 001.51-3.41c-6 1.1-6.55 1.18-12.52 2.31-.13.51-.29.89-.67.89s-.51-.42-.59-.8L416.89 16c1.56-.08 3.36-.25 4.71-.46V1.26l6.8.42a.57.57 0 01.55.59c0 .38-.38.59-1 .88v3h8.24v5H428v3.41c4.62-.72 6.68-1.18 8.24-1.47a30.21 30.21 0 00-.64 5.33c-.12 0-.2 0-.33.09zm7.4 9.75v-1.51h-16.39v1.51zm0 5.5v-1.64h-16.39v1.64zm30.61-2.48A43.93 43.93 0 00486.49 26v-4.79h-4.37a34.29 34.29 0 013.24 4.21 29.87 29.87 0 00-3.87 3 55.24 55.24 0 00-3.82-4.79l3.28-2.4h-3.57a8.82 8.82 0 00.88 1 9.57 9.57 0 00-2.57 4.5c-.79-1-1.26-1.68-1.89-2.69v16h-5.5V26.46a23.9 23.9 0 01-2.1 4.29 15.36 15.36 0 00-3.95-3.82 37.16 37.16 0 005.38-13.24h-4.2V8.61H468v-7l5.79.29c.47 0 1 .17 1 .63s-.59.63-1 .71v5.37h3.07v5.08h-3.06V15a23.07 23.07 0 003.28 5.88v-4.2h9.41v-1.56h-7.1v-3.95h7.1V9.62h-9V5.38h4.12a16.2 16.2 0 00-1.85-2.69l4.88-2.31a36 36 0 012.73 4.28l-1.37.72h4.62a31.4 31.4 0 002.05-4.67l5.33 1.6c.51.17.84.34.84.63 0 .55-.54.59-1.26.59-.29.55-.33.67-1 1.85h4.88v4.24h-9.12v1.55h7v3.95h-7v1.56h10v4.53h-3.11l3 2.44a.79.79 0 01.42.63c0 .63-.71.55-1.17.55a24.5 24.5 0 01-4.29 4.58A21 21 0 00503.5 33a11.29 11.29 0 00-3.19 4.37 27.86 27.86 0 01-7.94-6.56v3.28c0 4.62-1.47 6-8.06 6.22a14.56 14.56 0 00-2.31-5.86 17.49 17.49 0 002.64.21c1.81 0 1.85-.47 1.85-1.52v-1.55c-.84.5-3.61 2.18-7.56 4.2 0 .25.12 1.34-.46 1.34s-.76-.54-1-1.13zm16.76-8.06a14.76 14.76 0 001.72 2.6 27 27 0 003.87-5h-5.59zm16-.42a45.35 45.35 0 009.37-9.79c3.4-4.62 4.53-6.13 7.09-6.13s4.37 1.76 7.1 5.21c3.62 4.49 9.29 11.59 17.27 17.09a42.48 42.48 0 00-4.71 6.43c-7-6-11.93-12-17.6-18.95-.33-.42-1.47-1.8-2.26-1.8s-1.47 1.13-2.06 2c-4.79 7.06-5.3 7.81-8.57 11.43z" fill="#00b4dc" data-name="レイヤー 2"/></svg>