<svg xmlns="http://www.w3.org/2000/svg" viewBox="0 0 560 58.66"><defs><style>.e039e26e-1476-4bbc-a074-4c656f757e1d{fill:#ffa000;}</style></defs><title>ttl_access</title><g id="f5824977-03a8-43e3-924c-e49b7eb0be8f" data-name="レイヤー 2"><g id="b9b3d218-9605-4f54-a4d5-5dfd187813d5" data-name="object"><rect class="e039e26e-1476-4bbc-a074-4c656f757e1d" y="53.66" width="560" height="5"/><path class="e039e26e-1476-4bbc-a074-4c656f757e1d" d="M44,3.61V9.12H34.11A40.58,40.58,0,0,0,45,18.27a15.73,15.73,0,0,0-3.78,4.62c-4.45-2.47-10.5-8.44-12.94-11.25L31.8,9.12H17.31l3.86,2.39c.46.29.67.42.67.76,0,.54-.71.5-1.05.42C17.94,16.51,13,21.3,9.91,23.23a17.15,17.15,0,0,0-4.7-3.74c7.22-5.17,9.66-8.82,10.67-10.37H6.38V3.61H21.8V0l6.72.29c.51.05.8.05.8.42s-.29.55-.8.76V3.61ZM21.34,16a26.37,26.37,0,0,0,3.95,7.19,23.61,23.61,0,0,0,3.86-7l5.67,2.52a.86.86,0,0,1,.63.75c0,.55-.88.51-1.22.51a30.08,30.08,0,0,1-4.87,7.43A31.72,31.72,0,0,0,45,33.86a15.64,15.64,0,0,0-4.2,5.42,39.92,39.92,0,0,1-15.67-7.73A41.51,41.51,0,0,1,9.74,39.28c-.92-2.52-3.9-5-4.07-5.21A36.84,36.84,0,0,0,21,27.35a39.23,39.23,0,0,1-4.91-8.53Z"/><path class="e039e26e-1476-4bbc-a074-4c656f757e1d" d="M62.41,16.22V28.31a4.77,4.77,0,0,0,1.18,3.28c1.3,1.47,2.86,1.47,7,1.47,12.3,0,14.4,0,20.58-.8A12,12,0,0,0,89.42,38h-20c-4.41,0-7.52-.68-9.71-3.74-1.17,1-3,2.6-4.49,3.74a2.53,2.53,0,0,1,.08.62c0,.3,0,.72-.5.72-.3,0-.46-.25-.67-.63L51,33a27.94,27.94,0,0,0,5.17-2.77V21.76H52.58V16.22ZM55.65.34a34.26,34.26,0,0,1,7.18,5.92c-.75.76-1.34,1.26-4.36,4.58A44.56,44.56,0,0,0,52,4.71ZM73.71,25.92h-3.4v6H64.68V10.25h5.76A37.84,37.84,0,0,0,67.2,8L69.35,5.8H64.68V1h20l2.1,2.18A31.69,31.69,0,0,1,80,10.25h8.35V27.68c0,4-3.86,4.33-6.84,4.46a12.39,12.39,0,0,0-1.64-5.09c1.09.13,1.93.17,2.1.17.76,0,.8-.08.8-1.3H79v5.29h-5.3Zm0-11.3h-3.4v1.85h3.4Zm0,5.63h-3.4V22.1h3.4ZM71.82,5.8c1.85,1.55,2.06,1.76,3,2.6a15.63,15.63,0,0,0,2.81-2.6ZM79,16.47h3.78V14.62H79Zm0,5.63h3.78V20.25H79Z"/><path class="e039e26e-1476-4bbc-a074-4c656f757e1d" d="M131,3.23a7,7,0,0,0,2.35-.37L138,7.14c-.42.59-.55.8-1.52,2.19a95.21,95.21,0,0,1-11.3,13.86,21,21,0,0,0-4.83-4.62,45.06,45.06,0,0,0,7.86-9h-28.1V3.23Zm-10.16,8c.29,0,.75,0,.75.5s-.54.63-.75.71A41.27,41.27,0,0,1,118.61,25a26.36,26.36,0,0,1-10.54,12.44A34.65,34.65,0,0,0,102.19,33c5.88-3.36,12.22-7.94,11.46-22.18Z"/><path class="e039e26e-1476-4bbc-a074-4c656f757e1d" d="M174.52,6.81a7.11,7.11,0,0,0,3-.63l3.48,3c-.75,1.26-3.31,7-4.28,9.16-6.47,14.53-15.8,19.19-19.49,21a22.7,22.7,0,0,0-5.42-4.79,38.66,38.66,0,0,0,13.65-9.95,40,40,0,0,0,6.26-11.77H161.2a57.4,57.4,0,0,1-9.45,10.76,22.63,22.63,0,0,0-5.13-4.54C156.83,10.42,159.48,3,160.4.5l6,2.94c.17.09.55.3.55.64s-.59.54-1,.58c-.67,1.31-.8,1.64-1.09,2.15Z"/><path class="e039e26e-1476-4bbc-a074-4c656f757e1d" d="M202.11,1.47l6.84.34c.42,0,.84,0,.84.46s-.5.63-.84.71v9.24l13-1.51a11.34,11.34,0,0,0,3-.8l4.37,4c-.55.63-1.52,1.85-1.89,2.32-1.31,1.68-6.72,9.53-7.9,11a50.83,50.83,0,0,0-5.71-3.44,39.9,39.9,0,0,0,5-6.3L209,18.74v9.07c0,2.56.8,3.19,4.16,3.19a122.39,122.39,0,0,0,13.61-.75,34.59,34.59,0,0,0-.8,6.8c-3.19.08-11.51.13-14.45.13-8.19,0-9.36-3.24-9.36-8.57v-9L193,20.67l-.59-6.47L202.11,13Z"/><path class="e039e26e-1476-4bbc-a074-4c656f757e1d" d="M241.63,9.58V3.28h21.46a11.71,11.71,0,0,0,2.9-.34l3.28,3.57a12.56,12.56,0,0,0-1.6,2.69,71.59,71.59,0,0,1-5.33,10.29c1.76,1.35,9.45,7.73,12.6,11.51-1.39,1.6-3.66,4.12-5,5.71a57.88,57.88,0,0,0-11.3-12C254.57,29.57,248,35,242.47,37.3a18.86,18.86,0,0,0-4.79-5.75,35.24,35.24,0,0,0,13.65-8.4c4.79-4.62,6.51-8.74,8.4-13.57Z"/></g></g></svg>