<svg xmlns="http://www.w3.org/2000/svg" width="166.313" height="15.56"><path fill-rule="evenodd" d="M.014 15.31h2.52V9.7c0-1.61-.2-3.36-.324-4.87h.09l1.349 3L7.5 15.31h2.7V1.34H7.681v5.57c0 1.58.2 3.43.342 4.88h-.09L6.601 8.77 2.733 1.34H.014v13.97zm13.218 0h2.627V4.73h-2.627v10.58zm1.332-12.27a1.5 1.5 0 0 0 1.565-1.51 1.576 1.576 0 0 0-3.149 0 1.506 1.506 0 0 0 1.584 1.51zm4.358 12.27h2.627V8.04a2.839 2.839 0 0 1 2.105-1.19c.99 0 1.422.58 1.422 2.21v6.25h2.645V8.72c0-2.66-.936-4.25-3.113-4.25a4.586 4.586 0 0 0-3.275 1.66h-.072l-.18-1.4h-2.159v10.58zm15.286.26a6.2 6.2 0 0 0 2.123-.4l-.431-2.02a2.69 2.69 0 0 1-.99.23c-.9 0-1.368-.57-1.368-1.77V6.92h2.483V4.73h-2.483V1.9h-2.213l-.306 2.83-1.547.14v2.05h1.418v4.69c0 2.37.921 3.96 3.314 3.96zm8.788 0a6.131 6.131 0 0 0 3.526-1.17l-.9-1.7a4.039 4.039 0 0 1-2.268.74 2.7 2.7 0 0 1-2.789-2.65h6.208a5.315 5.315 0 0 0 .126-1.26c0-2.93-1.439-5.06-4.21-5.06-2.412 0-4.7 2.13-4.7 5.57.005 3.47 2.199 5.53 5.005 5.53zM40.53 8.96a2.331 2.331 0 0 1 2.2-2.34c1.3 0 1.907.91 1.907 2.34h-4.1zm9.078 6.35h2.628V8.04a2.836 2.836 0 0 1 2.105-1.19c.99 0 1.421.58 1.421 2.21v6.25h2.646V8.72c0-2.66-.936-4.25-3.113-4.25a4.585 4.585 0 0 0-3.275 1.66h-.072l-.18-1.4h-2.16v10.58zm15.593.26a4.082 4.082 0 0 0 2.789-1.36h.054l.216 1.1h2.141V.24h-2.645v3.72l.108 1.66a3.389 3.389 0 0 0-2.555-1.15c-2.178 0-4.229 2.11-4.229 5.57s1.62 5.53 4.121 5.53zm.684-2.28c-1.332 0-2.088-1.1-2.088-3.29 0-2.11.954-3.25 2.088-3.25a2.6 2.6 0 0 1 1.871.8v4.64a2.23 2.23 0 0 1-1.871 1.1zm12.733 2.28c2.519 0 4.84-2.04 4.84-5.53 0-3.53-2.321-5.57-4.84-5.57s-4.841 2.04-4.841 5.57c0 3.49 2.322 5.53 4.841 5.53zm0-2.27c-1.368 0-2.142-1.28-2.142-3.26 0-2 .774-3.3 2.142-3.3s2.141 1.3 2.141 3.3c0 1.98-.774 3.26-2.141 3.26zm16.837 2.27c3.077 0 4.895-1.94 4.895-4.23a3.836 3.836 0 0 0-2.682-3.79l-1.745-.78c-1.134-.47-2.087-.83-2.087-1.83 0-.92.755-1.47 1.925-1.47a4.166 4.166 0 0 1 2.825 1.15l1.35-1.75a5.746 5.746 0 0 0-4.175-1.8c-2.7 0-4.607 1.76-4.607 4.04a4.029 4.029 0 0 0 2.7 3.76l1.781.79c1.188.53 2 .85 2 1.89 0 .98-.737 1.6-2.123 1.6a5.136 5.136 0 0 1-3.383-1.54L90.6 13.53a6.933 6.933 0 0 0 4.855 2.04zm9.6-.26h3.023l1.026-4.61c.216-.98.36-1.96.558-3.08h.09c.2 1.12.36 2.08.576 3.08l1.061 4.61h3.113l2.484-10.58h-2.448l-1.1 5.23c-.2 1.02-.324 2.04-.5 3.08h-.09c-.216-1.04-.4-2.06-.63-3.08l-1.26-5.23h-2.357l-1.2 5.23c-.252 1-.432 2.04-.63 3.08h-.077c-.18-1.04-.306-2.06-.5-3.08l-1.1-5.23h-2.645zm14.462 0h2.627V4.73h-2.627v10.58zm1.332-12.27a1.5 1.5 0 0 0 1.565-1.51 1.576 1.576 0 0 0-3.149 0 1.506 1.506 0 0 0 1.584 1.51zm8.083 12.53a6.2 6.2 0 0 0 2.123-.4l-.432-2.02a2.685 2.685 0 0 1-.989.23c-.9 0-1.368-.57-1.368-1.77V6.92h2.483V4.73h-2.483V1.9h-2.213l-.306 2.83-1.548.14v2.05h1.422v4.69c0 2.37.918 3.96 3.311 3.96zm8.7 0a4.891 4.891 0 0 0 3.293-1.28l-1.043-1.83a3.049 3.049 0 0 1-1.962.84c-1.457 0-2.5-1.28-2.5-3.26 0-2 1.044-3.3 2.573-3.3a2.252 2.252 0 0 1 1.548.69l1.259-1.79a4.293 4.293 0 0 0-2.933-1.17c-2.735 0-5.146 2.04-5.146 5.57-.004 3.49 2.119 5.53 4.908 5.53zm4.513-.26h2.627V8.04a2.836 2.836 0 0 1 2.1-1.19c.99 0 1.422.58 1.422 2.21v6.25h2.645V8.72c0-2.66-.936-4.25-3.113-4.25a4.513 4.513 0 0 0-3.167 1.55l.108-1.98V.24h-2.627v15.07zm12.9-7.78h1.764V2.51h1.853V.83h-5.452v1.68h1.835v5.02zm4.517 0h1.619V5.24l-.215-2.41h.09l1.241 3.7h1.26l1.259-3.7h.072l-.2 2.41v2.29h1.62V.83h-2.034l-.809 2.21-.486 1.51h-.09l-.486-1.51-.846-2.21h-2v6.7z"/></svg>