<svg xmlns="http://www.w3.org/2000/svg" width="78.782" height="17.91"><path fill-rule="evenodd" d="M3.738.33A20.217 20.217 0 0 1 .013 7.39 14.017 14.017 0 0 1 1.2 9.73c.36-.45.738-.96 1.1-1.47v9.59h2.033V4.62A34.079 34.079 0 0 0 5.773.97zm8.259 12.39V7.79a28.715 28.715 0 0 0 2.213 4.93h-2.213zm-4.283 0a25.109 25.109 0 0 0 2.2-4.8v4.8h-2.2zm9.249-6.97V3.62h-4.966V.35H9.91v3.27H5.357v2.13h3.545a19.409 19.409 0 0 1-4.481 7.66 9.023 9.023 0 0 1 1.53 1.7 13.739 13.739 0 0 0 1.6-2.13v1.74h2.358v3.04h2.087v-3.04h2.411v-1.66a18.242 18.242 0 0 0 1.44 2 8.989 8.989 0 0 1 1.6-1.74 20.577 20.577 0 0 1-4.39-7.57h3.9zm8.76 7.57v-.91h7.215v.91h-7.215zM32.938 10v.87h-7.215V10h7.215zm2.178-1.83H23.559v9.74h2.16v-3.04h7.219v.83c0 .32-.126.43-.5.43-.342.02-1.835.02-2.951-.05a6.981 6.981 0 0 1 .72 1.81 13.981 13.981 0 0 0 3.779-.27c.828-.28 1.134-.77 1.134-1.9V8.17zm-3.185-2.99l-5.543.25c.666-.49 1.332-1.02 1.98-1.59h3.257l-.684.46zm5.362-3.3h-6.37c-.306-.6-.684-1.3-.972-1.87L27.81.63c.18.38.4.82.594 1.25H21.35v1.96h3.761a13.99 13.99 0 0 1-1.4 1.08 3.654 3.654 0 0 1-1.241.62c.216.63.575 1.74.7 2.23.81-.32 1.908-.34 10.563-.87.414.42.792.79 1.062 1.12l1.8-1.27c-.738-.77-2.087-1.92-3.2-2.91h3.9V1.88zM49.1 1.71h-7.036v1.98H49.1V1.71zm4.661 2.62c.018-1.2.036-2.45.036-3.73h-2.124c0 1.28 0 2.55-.018 3.73h-2.017v2.16h1.943a18.836 18.836 0 0 1-1.565 7.64 39.494 39.494 0 0 0-1.674-4.83l-1.709.49c.27.72.54 1.53.81 2.34l-3.059.74a33.663 33.663 0 0 0 1.511-4.76h3.527V6.07h-7.936v2.04H43.7a29.041 29.041 0 0 1-1.26 4.47 2.142 2.142 0 0 1-.882 1.25 18.486 18.486 0 0 1 .684 2c.522-.34 1.3-.62 5.74-1.83.09.32.162.62.216.89l1.71-.55a10.074 10.074 0 0 1-1.35 1.81 6.686 6.686 0 0 1 1.584 1.72c2.537-2.64 3.293-6.65 3.545-11.38h1.851c-.162 5.9-.342 8.17-.738 8.7a.684.684 0 0 1-.666.32c-.377 0-1.151 0-2-.08a5.566 5.566 0 0 1 .63 2.19 13.9 13.9 0 0 0 2.411-.05 2.024 2.024 0 0 0 1.494-.98c.593-.87.791-3.63.971-11.24 0-.28.018-1.02.018-1.02h-3.9zm12.111-4a19.836 19.836 0 0 1-4.1 7.06 15.7 15.7 0 0 1 1.188 2.4c.36-.42.738-.89 1.116-1.36v9.44h2.159V4.94a30.4 30.4 0 0 0 1.727-3.93zm12.9 5.14V3.33h-6.984A22.007 22.007 0 0 0 72.67.99L70.601.45a18.981 18.981 0 0 1-3.815 7.11 14.546 14.546 0 0 1 1.637 1.57 21.164 21.164 0 0 0 2.357-3.66h.684v12.42h2.2V13.7h4.894v-2.08h-4.894V9.49h4.66V7.45h-4.66V5.47h5.11z"/></svg>