<svg xmlns="http://www.w3.org/2000/svg" width="194.844" height="17.9"><path fill-rule="evenodd" d="M8.283 4.25v9.04h1.979V6.25h3.887v6.96h2.088V4.25h-3.2c.144-.44.288-.89.431-1.36h3.473V.9H7.71v1.99h3.473c-.054.45-.126.92-.216 1.36H8.286zm-1.475 7.62c.395-1.11.881-2.89 1.259-4.45l-1.3-.32-.288.07h-.846l.468-.64c-.342-.26-.792-.59-1.314-.93a18.808 18.808 0 0 0 2.807-3.77L6.317.87l-.36.11H.433v1.94h4.192a14.345 14.345 0 0 1-1.331 1.74l-1.44-.89-1.1 1.48c.863.54 1.943 1.28 2.879 1.92H-.002v1.98h2.681v6.21c0 .21-.072.27-.324.29-.252 0-1.08 0-1.853-.02a7.736 7.736 0 0 1 .647 2.15 6.163 6.163 0 0 0 2.754-.4c.683-.34.845-.92.845-1.98V9.15h1.08c-.2.87-.414 1.74-.612 2.36zm6.388-4.7h-2v3.44c0 1.75-.522 4.15-4.48 5.53a6.7 6.7 0 0 1 1.331 1.55c4.427-1.74 5.147-4.59 5.147-7.05V7.17zm-.7 7.7a34.224 34.224 0 0 1 3.059 3.02l1.493-1.51a40.621 40.621 0 0 0-3.167-2.83zM23.884 4.3H34.95v2.61h2.214V2.19h-6.245A12.083 12.083 0 0 0 29.983 0l-2.159.62a14.685 14.685 0 0 1 .63 1.57h-6.676v4.72h2.105V4.3zm6.694 8.16h4.93v-2.12h-4.93V8.12h3.833V5.96h-9.9v2.16h3.833v6.39a5.076 5.076 0 0 1-2.412-3.02c.144-.71.288-1.49.378-2.28L24.133 9c-.324 3.21-1.224 5.84-3.167 7.36a10.915 10.915 0 0 1 1.745 1.5 9.724 9.724 0 0 0 2.412-3.63c1.637 2.74 4.1 3.32 7.467 3.32h4.481a7.717 7.717 0 0 1 .773-2.28c-1.223.04-4.192.04-5.146.04a15.822 15.822 0 0 1-2.123-.13v-2.72zm11.428 3.72h8.925v-2.34h-2.9a20.549 20.549 0 0 0-2.16.15c2.43-2.5 4.427-5.21 4.427-7.74a4 4 0 0 0-4.193-4.31 5.309 5.309 0 0 0-4.228 2.12l1.439 1.51a3.4 3.4 0 0 1 2.447-1.44 1.968 1.968 0 0 1 2 2.27c0 2.15-2.142 4.77-5.758 8.17v1.61zm17.3.26c2.7 0 4.5-2.49 4.5-7.31s-1.8-7.19-4.5-7.19c-2.718 0-4.517 2.36-4.517 7.19s1.799 7.31 4.517 7.31zm0-2.17c-1.152 0-2.016-1.21-2.016-5.14 0-3.9.864-5.04 2.016-5.04 1.133 0 2 1.14 2 5.04-.003 3.93-.867 5.14-2 5.14zm8.448 1.91h8.008v-2.25h-2.5V2.21h-1.963a8.622 8.622 0 0 1-3.095 1.17V5.1h2.415v8.83h-2.861v2.25zm16.3-7.16c-1.151 0-1.889-.77-1.889-2.41 0-1.72.81-2.57 1.8-2.57 1.134 0 2.052.94 2.285 3.49a2.634 2.634 0 0 1-2.198 1.49zm-4.1 5.83a4.884 4.884 0 0 0 3.652 1.59c2.645 0 5.111-2.28 5.111-7.57 0-4.85-2.268-6.93-4.787-6.93-2.285 0-4.192 1.8-4.192 4.67 0 2.96 1.6 4.39 3.814 4.39a3.634 3.634 0 0 0 2.735-1.53c-.107 3.52-1.349 4.7-2.843 4.7a2.982 2.982 0 0 1-2.105-.98zm17.679-3.2V8.78h3.113v2.87h-3.117zm11.481 0h-6.154V8.78h4.75V6.7h-4.75V4.43h5.159V2.26H97.953a12.844 12.844 0 0 0 .594-1.54L96.37.13a14.679 14.679 0 0 1-3.779 6.29 16.145 16.145 0 0 1 1.853 1.45 17.047 17.047 0 0 0 2.448-3.44h3.85V6.7h-5.254v4.95h-2.843v2.15h8.1v4.04h2.214V13.8h6.154v-2.15zm4.622 4.53h8.007v-2.25h-2.5V2.21h-1.961a8.63 8.63 0 0 1-3.095 1.17V5.1h2.411v8.83h-2.861v2.25zm12.492 0h8.007v-2.25h-2.5V2.21h-1.966a8.63 8.63 0 0 1-3.1 1.17V5.1h2.411v8.83h-2.861v2.25zM143.203 10c.072-.79.108-1.58.126-2.3h7.215V10h-7.345zm7.341-6.74v2.31h-7.215V3.26h7.215zm2.268-2.19h-11.7v6.21c0 2.87-.252 6.48-2.969 8.91a9 9 0 0 1 1.656 1.63 10.28 10.28 0 0 0 3.041-5.65h7.7v2.74a.47.47 0 0 1-.576.55c-.395 0-1.907.02-3.167-.06a9.881 9.881 0 0 1 .9 2.36 10.555 10.555 0 0 0 3.977-.43c.828-.38 1.134-1.02 1.134-2.38V1.07zm20.618 1.78c-.485-.7-1.457-1.79-2.159-2.59l-1.655 1.04c.7.85 1.637 2.02 2.087 2.72zm-3 7.19a10.21 10.21 0 0 1-2.159 2.76 11.413 11.413 0 0 1-2.267-2.76h4.415zm1.548-2.26l-.4.09h-5.259c.18-.51.342-1 .5-1.55h7.737V4.17h-7.216c.234-1.17.432-2.42.594-3.7l-2.393-.41a38.022 38.022 0 0 1-.684 4.11h-2.483a18.578 18.578 0 0 0 1.26-3.19L161.366.6a14.5 14.5 0 0 1-1.241 3.34 1.622 1.622 0 0 1-.774.78 19.544 19.544 0 0 1 .7 2.04 2.581 2.581 0 0 1 1.889-.44h2.339a13.63 13.63 0 0 1-6.28 8.25 8.135 8.135 0 0 1 1.566 1.81 14.211 14.211 0 0 0 5.038-4.89 11.962 11.962 0 0 0 1.944 2.57 15.434 15.434 0 0 1-4.643 1.81 9.158 9.158 0 0 1 1.116 1.99 17.75 17.75 0 0 0 5.272-2.31 15.3 15.3 0 0 0 5.542 2.31 8.749 8.749 0 0 1 1.332-2.04 15.924 15.924 0 0 1-5.057-1.72 12.8 12.8 0 0 0 3.347-5.59zm19.608 5.79v1.78h-8.197v-1.78h8.188zm-10.329 4.3h2.141v-.75h8.188v.75h2.231v-6.05h-12.56v6.05zm2.177-9.64h3.761v.92h-3.761v-.92zm3.761-3.72h-3.761v-.85h3.761v.85zm0 2.27h-3.761v-.84h3.761v.84zm2.105 2.37v-.92h4.211V6.78H189.3v-.84h4.193V4.51H189.3v-.85h5.093V2.09h-4.974a14.075 14.075 0 0 0-.881-1.94l-1.98.6c.18.4.4.87.558 1.34h-2.969c.216-.43.432-.88.63-1.3l-2-.68a15.374 15.374 0 0 1-4.031 5.59 14.156 14.156 0 0 1 1.457 1.77c.36-.35.738-.75 1.116-1.19v5.16h2.105v-.64h11.409V9.15h-5.543z"/></svg>