<svg xmlns="http://www.w3.org/2000/svg" width="76.906" height="17.81"><path fill-rule="evenodd" d="M15.412 2.79C14.926 2.09 13.954 1 13.253.2l-1.656 1.04c.7.85 1.638 2.02 2.087 2.72zm-3 7.19a10.25 10.25 0 0 1-2.159 2.76 11.417 11.417 0 0 1-2.268-2.76h4.427zm1.547-2.26l-.4.09H8.305c.18-.51.342-1 .5-1.55h7.738V4.11H9.327c.234-1.17.432-2.42.594-3.7L7.527 0a38.028 38.028 0 0 1-.683 4.11H4.36A18.578 18.578 0 0 0 5.62.92L3.353.54a14.491 14.491 0 0 1-1.242 3.34 1.622 1.622 0 0 1-.774.78 19.544 19.544 0 0 1 .7 2.04 2.584 2.584 0 0 1 1.89-.44h2.339a13.634 13.634 0 0 1-6.28 8.25 8.13 8.13 0 0 1 1.565 1.81 14.214 14.214 0 0 0 5.039-4.89A11.958 11.958 0 0 0 8.533 14a15.428 15.428 0 0 1-4.642 1.81 9.2 9.2 0 0 1 1.115 1.99 17.756 17.756 0 0 0 5.273-2.31 15.286 15.286 0 0 0 5.542 2.31 8.745 8.745 0 0 1 1.331-2.04 15.918 15.918 0 0 1-5.056-1.72 12.814 12.814 0 0 0 3.347-5.59zm19.608 5.79v1.78H25.38v-1.78h8.187zm-10.328 4.3h2.141v-.75h8.187v.75h2.232v-6.05h-12.56v6.05zm2.177-9.64h3.761v.92h-3.765v-.92zm3.761-3.72h-3.765V3.6h3.761v.85zm0 2.27h-3.765v-.84h3.761v.84zm2.1 2.37v-.92h4.211V6.72h-4.211v-.84h4.193V4.45h-4.193V3.6h5.092V2.03h-4.966a14.2 14.2 0 0 0-.882-1.94l-1.979.6c.18.4.4.87.558 1.34h-2.969c.216-.43.431-.88.629-1.3l-2-.68a15.362 15.362 0 0 1-4.031 5.59 14.166 14.166 0 0 1 1.458 1.77c.36-.35.738-.75 1.116-1.19v5.16h2.1v-.64h11.408V9.09h-5.542zm13.689 4.95V9.81h7.99v4.23h-7.99zm7.99-10.51v4.05h-7.99V3.53h7.99zm-10.2-2.27v16.27h2.213V16.3h7.99v1.19h2.3V1.26H42.753zm21.472 8.78h2.231v1.28h-2.231v-1.28zm2.231-5.72v1.09h-2.231V4.32h2.231zm-2.231 2.81h2.231v1.19h-2.231V7.13zm5.29 4.19h-1.1v-7h1.224V2.35h-1.224v-2h-1.961v2h-2.231v-2H62.3v2h-1.4v1.97h1.4v7h-1.619v1.96h8.831v-1.96zm-6.6 2.1a8.6 8.6 0 0 1-2.375 3.05 13.221 13.221 0 0 1 1.709 1.34 13.13 13.13 0 0 0 2.664-3.77zm9.321-3.91c.018-.59.018-1.13.018-1.62v-.7h2.591v2.32h-2.616zM74.848 3v2.21h-2.591V3h2.591zm2.07-2.04H70.26v6.93c0 2.45-.09 5.64-1.134 8a21.118 21.118 0 0 0-1.943-2.57l-1.62.93a18.69 18.69 0 0 1 1.926 2.85l1.493-.89c-.054.11-.126.21-.18.32a6.17 6.17 0 0 1 1.692 1.27 16.11 16.11 0 0 0 1.619-6.29h2.735v3.72c0 .3-.09.39-.36.39-.251 0-1.115.02-1.889-.03a8.4 8.4 0 0 1 .612 2.13 5.886 5.886 0 0 0 2.879-.4c.63-.35.828-.94.828-2.05V.96z"/></svg>