<svg xmlns="http://www.w3.org/2000/svg" width="77.282" height="17.72"><path fill-rule="evenodd" d="M5.431 6.08l1.277-.47c-.2-.47-.575-1.21-.9-1.81h4.426a16.28 16.28 0 0 1-.953 2.28H5.43zm7.755 4.06c-.755-.64-1.943-1.53-2.9-2.25h2.9v2.25zm-7.989.66a21.851 21.851 0 0 0 2.375-2.17l-1.421-.74h3.527l-.954 1.02c.684.57 1.583 1.25 2.3 1.89h-5.83zm4.5 3.06H6.206v-1.51h3.491v1.51zm6.3-11.95H9.61A27 27 0 0 0 8.782 0l-2.16.55c.18.42.378.89.54 1.36H.001V3.8h4.912l-1.206.39c.27.59.612 1.32.828 1.89H.846v11.59h2.052V7.89h3.2a16.376 16.376 0 0 1-3.149 2.12 13.713 13.713 0 0 1 .791 1.83c.216-.13.45-.28.684-.45v4.79h1.782v-.77h5.2v-4.29c.288.25.522.47.72.66l1.061-1.21v5.04a.322.322 0 0 1-.395.38c-.27.02-1.3.02-2.178-.02a6.269 6.269 0 0 1 .594 1.64 8.969 8.969 0 0 0 3.059-.28c.666-.26.9-.7.9-1.7V6.08h-3.725c.36-.57.756-1.23 1.116-1.89l-1.854-.39h5.29V1.91zm15.317 3.62h-6.3V2.99h6.3v2.54zm2.177-4.7H22.942v6.84h10.546V.83zm-8.313 10.56v3.24h-2.69v-3.24h2.682zm-4.715 6.34h2.025v-.95h2.682v.85h2.141v-8.4h-6.856v8.5zm10.437-3.1v-3.24h2.861v3.24H30.9zm-2.052-5.4v8.5H30.9v-.95h2.861v.87h2.159V9.23h-7.072zm17.359 5.65v-3.57h6.748v3.57h-6.748zm8.961-5.61h-5.812a15.656 15.656 0 0 0 5.776-6.51l-1.475-.93-.36.12h-5.259c.36-.47.684-.95 1.008-1.42L46.653 0a13.621 13.621 0 0 1-6.01 5.01 7.95 7.95 0 0 1 1.475 1.79 20.023 20.023 0 0 0 4.031-2.81h5.758a14.238 14.238 0 0 1-3.671 3.41 30.767 30.767 0 0 0-2.555-2.07l-1.655 1.28c.683.55 1.511 1.26 2.213 1.93a23.138 23.138 0 0 1-5.938 2.05 8.5 8.5 0 0 1 1.1 2.08c.9-.23 1.782-.47 2.664-.79v5.85h2.141v-.83h6.748v.83h2.213V9.27zm13.288-1.6a15.5 15.5 0 0 1-1.889 5.92 12.626 12.626 0 0 1 1.709 1.14 20.286 20.286 0 0 0 2.16-6.69zM74.7 4.48c-.252.6-.5 1.22-.738 1.79l1.854.45c.468-1.22 1.025-2.7 1.457-4.06l-1.349-.35-.288.09h-4.913c.162-.6.324-1.21.45-1.83L69.14.14a16.531 16.531 0 0 1-2.123 5.81v-.53h-2.034V2.76a20.594 20.594 0 0 0 2.429-.77L66.225.19a24.288 24.288 0 0 1-5.614 1.53 9.7 9.7 0 0 1 .575 1.72c.594-.06 1.224-.15 1.854-.27v2.25h-2.429v2.1h2.177a18.73 18.73 0 0 1-2.591 5.05 11.492 11.492 0 0 1 .953 1.99 18.065 18.065 0 0 0 1.89-3.68v6.85h1.943v-7.59a17.172 17.172 0 0 1 1.116 2.06l1.188-1.81c-.324-.42-1.8-2.01-2.3-2.48v-.39h2.034v-.93a14.705 14.705 0 0 1 1.439 1 15.365 15.365 0 0 0 1.584-3.11h1.079v10.78c0 .26-.09.32-.342.33-.234 0-1.007 0-1.745-.03a7.537 7.537 0 0 1 .72 2.09 5.674 5.674 0 0 0 2.645-.39c.648-.36.828-.91.828-1.99V4.48h1.475zm-.99 3.56a35.39 35.39 0 0 1 1.566 6.55l1.979-.66a36.6 36.6 0 0 0-1.691-6.49z"/></svg>