<svg xmlns="http://www.w3.org/2000/svg" width="76.063" height="18"><path fill-rule="evenodd" d="M9.187 15.15v-3.64h5.164V9.34H9.187V6.07h6.032V3.89h-5.7l.953-.74A20.305 20.305 0 0 0 7.017.3L5.254 1.58a26.1 26.1 0 0 1 2.7 2.31h-7.2v2.18h6.082v3.27H1.708v2.17h5.128v3.64H-.001v2.21h16.1v-2.21H9.19zm18.175-5.6c-.342-.47-1.907-2.44-2.519-3.12v-.45h2.069V3.85h-2.069V.34h-2.124v3.51h-2.664v2.13h2.448a21.736 21.736 0 0 1-2.772 6.55 11.73 11.73 0 0 1 1.062 2.08 17.32 17.32 0 0 0 1.926-3.89v7.23h2.123v-8.7c.54.85 1.1 1.81 1.421 2.45zm7.2 6.08a.216.216 0 0 1-.18-.12 2.617 2.617 0 0 1-.054-.83V1.39h-6.64v6.08c0 2.83-.2 6.53-2.573 9.01a7.674 7.674 0 0 1 1.709 1.51c2.627-2.74 3.041-7.31 3.041-10.5V3.53h2.322v11.21c0 1.62.143 2.06.467 2.43a1.788 1.788 0 0 0 1.242.51h.972a1.692 1.692 0 0 0 1.115-.34 1.776 1.776 0 0 0 .558-1.15 19.743 19.743 0 0 0 .216-2.9 5.079 5.079 0 0 1-1.547-.89c0 1.11-.036 2.04-.054 2.41a1.37 1.37 0 0 1-.126.7.23.23 0 0 1-.216.12h-.252zm22.116-6.2h-7.072V3.72h6.028V1.49H41.309v2.23h6.064v5.71h-7v2.29h7v6.23h2.231v-6.23h7.072V9.43zm-14.27-4.51a19.7 19.7 0 0 1 1.314 3.93l2.087-.68a17.7 17.7 0 0 0-1.439-3.85zm10.509 3.89a37.351 37.351 0 0 0 1.979-3.94l-2.285-.61a23.128 23.128 0 0 1-1.565 3.99zm19.032 2.98v3.02h-7.63v-3.02h7.63zm-9.825 6.14h2.195v-.96h7.63v.94h2.3V9.64h-12.13v8.29zm7.54-14.71c.665.7 1.385 1.5 2.087 2.33l-7.378.24A31 31 0 0 0 68.296.98L66.137.02a25.274 25.274 0 0 1-3.815 5.13 3.7 3.7 0 0 1-1.494 1.09 17.733 17.733 0 0 1 .7 2.16c.954-.34 2.231-.38 11.786-.87.378.53.7 1.02.936 1.43l1.818-1.38a34.381 34.381 0 0 0-4.733-5.53z"/></svg>