<svg xmlns="http://www.w3.org/2000/svg" width="93.531" height="17.81"><path fill-rule="evenodd" d="M15.412 2.79C14.926 2.09 13.954 1 13.253.2l-1.656 1.04c.7.85 1.638 2.02 2.087 2.72zm-3 7.19a10.25 10.25 0 0 1-2.159 2.76 11.417 11.417 0 0 1-2.268-2.76h4.427zm1.547-2.26l-.4.09H8.305c.18-.51.342-1 .5-1.55h7.738V4.11H9.327c.234-1.17.432-2.42.594-3.7L7.527 0a38.028 38.028 0 0 1-.683 4.11H4.36A18.578 18.578 0 0 0 5.62.92L3.353.54a14.491 14.491 0 0 1-1.242 3.34 1.622 1.622 0 0 1-.774.78 19.544 19.544 0 0 1 .7 2.04 2.584 2.584 0 0 1 1.89-.44h2.339a13.634 13.634 0 0 1-6.28 8.25 8.13 8.13 0 0 1 1.565 1.81 14.214 14.214 0 0 0 5.039-4.89A11.958 11.958 0 0 0 8.533 14a15.428 15.428 0 0 1-4.642 1.81 9.2 9.2 0 0 1 1.115 1.99 17.756 17.756 0 0 0 5.273-2.31 15.286 15.286 0 0 0 5.542 2.31 8.745 8.745 0 0 1 1.331-2.04 15.918 15.918 0 0 1-5.056-1.72 12.814 12.814 0 0 0 3.347-5.59zM37.074 1.2h-8.745v2.14h8.745V1.2zM24.874.13a16.37 16.37 0 0 1-4.067 4.02 12.9 12.9 0 0 1 1.188 1.83 24.7 24.7 0 0 0 4.949-4.97zm.684 4.07a18.03 18.03 0 0 1-4.948 5.65 22.311 22.311 0 0 1 1.457 1.94c.486-.41.972-.88 1.476-1.39v7.38h2.141V7.92a24.9 24.9 0 0 0 1.925-2.88zm11.966 2.19h-9.951v2.14h5.309v6.57c0 .28-.126.36-.45.36s-1.512.01-2.537-.04a9.638 9.638 0 0 1 .647 2.28 9.48 9.48 0 0 0 3.509-.38c.792-.34 1.008-.96 1.008-2.17V8.53h2.465V6.39zm7.515 2.55a2.306 2.306 0 1 0 2.3-2.41 2.383 2.383 0 0 0-2.305 2.41zM71.844.58a25.952 25.952 0 0 1-1.494 3.59l1.638.73c.5-.9 1.169-2.24 1.727-3.55zm-10.2 6.89h1.889v-2h-4.8c.288-.38.54-.76.792-1.17h4.318V2.18h-3.185c.18-.47.378-.94.54-1.41l-1.8-.59a11.245 11.245 0 0 1-2.573 4.29 11.5 11.5 0 0 1 .935 2.08 4.329 4.329 0 0 0 .576-.61v1.53h1.35v1.85h-2.25v2h2.25v2.89a1.922 1.922 0 0 1-.882 1.6 7.741 7.741 0 0 1 .882 1.87c.342-.36.953-.71 4.174-2.47a9.515 9.515 0 0 1-.342-1.94l-1.871.96v-2.91h2.249v-2h-2.249V7.47zm5.668-3.42A12.444 12.444 0 0 0 65.729.73l-1.638.81A15.784 15.784 0 0 1 65.567 5zm-1.025 8.1v-1.41h4.948v1.41h-4.948zm4.948-4.66v1.36h-4.948V7.49h4.948zm0-2.11l-1.44.01V.11h-1.943v5.28h-3.455v12.35h1.89v-3.7h4.948v1.26a.27.27 0 0 1-.324.32c-.27.02-1.116.02-1.907-.01a7.37 7.37 0 0 1 .575 2.03 6.049 6.049 0 0 0 2.772-.37 1.889 1.889 0 0 0 .791-1.93V5.38h-1.907zm19.043 8.13v1.78h-8.196v-1.78h8.188zm-10.329 4.3h2.141v-.75h8.188v.75h2.231v-6.05h-12.56v6.05zm2.177-9.64h3.761v.92h-3.761v-.92zm3.761-3.72h-3.761V3.6h3.761v.85zm0 2.27h-3.761v-.84h3.761v.84zm2.106 2.37v-.92h4.21V6.72h-4.21v-.84h4.192V4.45h-4.192V3.6h5.092V2.03h-4.973a14.075 14.075 0 0 0-.881-1.94l-1.98.6c.18.4.4.87.558 1.34H82.84c.216-.43.432-.88.63-1.3l-2-.68a15.374 15.374 0 0 1-4.031 5.59 14.068 14.068 0 0 1 1.457 1.77c.36-.35.738-.75 1.116-1.19v5.16h2.1v-.64h11.409V9.09h-5.542z"/></svg>