<svg xmlns="http://www.w3.org/2000/svg" width="78.75" height="17.78"><path fill-rule="evenodd" d="M2.372 10.31a63.35 63.35 0 0 1-2.195 6.16l1.961 1.09a93.533 93.533 0 0 0 1.961-6.13zm1.709-3.34a29.4 29.4 0 0 0-2.879-1.6l-1.2 1.6a32.259 32.259 0 0 1 2.807 1.81zM14.77 9.35a18.6 18.6 0 0 0 2.159-2.59l-1.259-.94-.378.11h-3.347c.18-.43.378-.92.558-1.43h4.318V2.38h-3.706c.144-.6.269-1.22.377-1.85L11.441.18a17.923 17.923 0 0 1-.99 4.02V2.88H7.59l1.332-.61A16.977 16.977 0 0 0 7.59.01L5.611.78a14.463 14.463 0 0 1 1.134 2.1h-2.61l.54-.8C4.027 1.61 2.732.84 1.85.35L.627 1.95a29.349 29.349 0 0 1 2.771 1.94l.719-1v2.1h1.3c-.072 4.32-.234 8.68-2.429 11.31a5.185 5.185 0 0 1 1.457 1.45c1.764-2.17 2.448-5.27 2.735-8.65h1.134c-.126 4.31-.306 5.88-.558 6.27a.553.553 0 0 1-.522.28 9.045 9.045 0 0 1-1.241-.07 5.816 5.816 0 0 1 .522 2.02 8.969 8.969 0 0 0 1.745-.08 1.485 1.485 0 0 0 1.152-.77c.5-.68.684-2.93.881-8.8 0-.26.018-.88.018-.88h-3c.036-.68.054-1.38.072-2.08h2.718a8.3 8.3 0 0 1-.558.92 13.81 13.81 0 0 1 1.709 1.02v.95h2.447a8.341 8.341 0 0 1-.9.89v1.64h-2.286v2h2.286v3.06c0 .22-.072.28-.306.28-.252 0-1.044 0-1.782-.04a9.9 9.9 0 0 1 .558 2.06 5.978 5.978 0 0 0 2.7-.36c.666-.34.81-.89.81-1.91v-3.09h2.105v-2h-2.105V9.35zm21.927-6.53A27.828 27.828 0 0 0 34.34.23l-1.547 1.19a22.376 22.376 0 0 1 2.285 2.74zm-8.3 10.72c-.5-.94-1.26-2.09-2.1-3.34a32.98 32.98 0 0 0 1.781-7.61l-1.367-.49-.36.08h-5.309v1.98h4.714a24.505 24.505 0 0 1-.99 3.93c-.81-1.12-1.6-2.18-2.339-3.12l-1.458 1.28c.9 1.23 1.926 2.67 2.88 4.1a12.1 12.1 0 0 1-3.221 4.34 8.471 8.471 0 0 1 1.547 1.83 13.7 13.7 0 0 0 3.059-4.02 26.894 26.894 0 0 1 1.512 2.65zm6.712-6.62a17.73 17.73 0 0 1-2.339 4.15 35.089 35.089 0 0 1-.594-4.12l5.2-.68-.252-2-5.092.64c-.09-1.45-.126-3-.144-4.62h-2.231c.036 1.74.108 3.36.2 4.87l-1.944.25.252 2.05 1.836-.24a30.42 30.42 0 0 0 .971 5.85 13.091 13.091 0 0 1-3.473 2.4 8.528 8.528 0 0 1 1.692 1.68 13.614 13.614 0 0 0 2.609-1.91 4.3 4.3 0 0 0 3.329 2.53c.99.09 1.961-.76 2.447-4.32a7.559 7.559 0 0 1-1.8-1.32c-.144 1.98-.342 2.9-.756 2.85a2.361 2.361 0 0 1-1.512-1.51 20.014 20.014 0 0 0 3.293-5.48zm13.662 2.15h2.16V7.14c2.105 1.04 4.516 2.25 5.83 3l1.026-1.79c-1.278-.72-3.527-1.76-5.507-2.64h5.453V3.65h-3.6a29.733 29.733 0 0 0 2.051-2.59l-2.3-.64a17.082 17.082 0 0 1-1.656 2.74l1.368.49h-2.66V.18h-2.16v3.47h-2.429l1.206-.57a11.624 11.624 0 0 0-1.854-2.6l-1.871.83a12.461 12.461 0 0 1 1.6 2.34h-3.347v2.06h5.075a14.177 14.177 0 0 1-5.542 2.6 9.768 9.768 0 0 1 1.367 1.85 13.636 13.636 0 0 0 5.794-3.41v2.32zm9.124 4.04v-2.1h-7.108c.09-.51.144-1.02.2-1.57h-2.25a17.98 17.98 0 0 1-.215 1.57h-6.6v2.1h5.758c-.918 1.22-2.663 2.07-6.19 2.58a6.989 6.989 0 0 1 1.1 2.1c4.211-.74 6.262-2.04 7.288-3.91 1.512 2.19 3.743 3.38 7.2 3.89a6.784 6.784 0 0 1 1.313-2.12c-3.041-.26-5.2-1.07-6.55-2.54h6.065zM77.958.37h-2.034v8.02c0 .24-.09.3-.342.32-.269.02-1.133.02-1.943-.02a8.834 8.834 0 0 1 .63 1.98 7.124 7.124 0 0 0 2.825-.36c.684-.32.864-.85.864-1.88V.37zm-3.347.86h-1.955v6.38h1.962V1.23zm-7.918 3.53V2.78h1.512v1.98h-1.512zm5.057 10.35V13.6h5.2v-2.04h-5.2v-1.51h-1.548v-3.3h1.692V4.76h-1.692V2.78h1.278V.82h-8.17v1.96h1.422v1.98h-2.033v1.99h1.817a4.1 4.1 0 0 1-2.195 2.56 9.238 9.238 0 0 1 1.4 1.57 5.771 5.771 0 0 0 2.825-4.13h1.656v3.62h1.331v1.19h-5.2v2.04h5.223v1.51h-7.035v2.07h16.215v-2.07h-6.98z"/></svg>