<?xml version="1.0" encoding="utf-8"?>
<!-- Generator: Adobe Illustrator 23.0.2, SVG Export Plug-In . SVG Version: 6.00 Build 0)  -->
<svg version="1.1" id="レイヤー_1" xmlns="http://www.w3.org/2000/svg" xmlns:xlink="http://www.w3.org/1999/xlink" x="0px"
	 y="0px" width="337.877px" height="40px" viewBox="0 0 337.877 40" style="enable-background:new 0 0 337.877 40;"
	 xml:space="preserve">
<style type="text/css">
	.st0{fill:#E6222E;}
	.st1{fill:#FFFFFF;}
</style>
<g>
	<g>
		<path class="st0" d="M13.679,11.619L2.82,10.635l-2.429,7.431l8.072,4.594L3.251,34.832l6.712,4.776l9.518-8.794l9.519,8.794
			l6.712-4.776L30.497,22.66l8.073-4.594l-2.43-7.431l-10.256,0.942L23.495,0.393h-8.164l-1.396,6.962
			c1.342,0.242,4.399,0.656,7.536-0.141c0.152-0.039,0.377-0.056,0.475,0.07c0.063,0.079,0.089,0.238,0.021,0.391
			c-0.327,0.712-1.633,1.898-4.311,2.179c-1.789,0.189-3.299,0.024-3.589-0.055l-0.385,1.817"/>
		<path d="M25.63,8.52c-0.687-3.221-1.752-8.21-1.752-8.21C23.838,0.13,23.679,0,23.495,0h-8.164c-0.188,0-0.348,0.133-0.384,0.315
			l-1.395,6.964c-0.022,0.103,0.001,0.21,0.06,0.298c0.058,0.087,0.149,0.146,0.253,0.164c1.29,0.234,3.625,0.518,6.143,0.159
			c0.355-0.05,0.735-0.138,1.005-0.196c0.117-0.024,0.343-0.131,0.406-0.025c0.066,0.112-0.042,0.2-0.145,0.308
			c-0.166,0.176-0.485,0.437-0.883,0.663c-0.64,0.363-1.546,0.686-2.779,0.817c-1.755,0.183-3.223,0.015-3.443-0.045
			c-0.104-0.029-0.217-0.013-0.307,0.043c-0.092,0.057-0.157,0.147-0.179,0.252c0,0-0.041,0.198-0.097,0.458
			c-0.071,0.333-0.165,0.774-0.165,0.774c-0.029,0.136-0.166,0.237-0.304,0.224c0,0-1.241-0.098-2.234-0.188
			c-2.893-0.266-8.024-0.74-8.024-0.74c-0.183-0.016-0.352,0.094-0.409,0.269l-2.43,7.43C0.007,17.985,0,18.026,0,18.067
			c0,0.138,0.072,0.27,0.198,0.341c0,0,3.056,1.738,5.344,3.042c1.223,0.697,2.204,1.254,2.204,1.254
			c0.121,0.069,0.175,0.23,0.119,0.359c0,0-0.384,0.899-0.947,2.213c-1.491,3.481-4.029,9.402-4.029,9.402
			c-0.02,0.052-0.03,0.104-0.03,0.155c0,0.124,0.058,0.243,0.164,0.32l6.712,4.775c0.152,0.108,0.356,0.095,0.492-0.032
			c0,0,4.553-4.207,7.279-6.725c1.054-0.973,1.788-1.651,1.788-1.651c0.104-0.094,0.27-0.094,0.372,0c0,0,0.72,0.664,1.759,1.624
			c2.722,2.515,7.308,6.752,7.308,6.752c0.135,0.127,0.341,0.14,0.491,0.032l6.712-4.775c0.105-0.077,0.165-0.196,0.165-0.32
			c0-0.051-0.01-0.103-0.032-0.155c0,0-2.541-5.93-4.032-9.408c-0.561-1.311-0.945-2.206-0.945-2.206
			c-0.054-0.129,0-0.291,0.119-0.359c0,0,1.168-0.665,2.541-1.445c2.239-1.275,5.009-2.85,5.009-2.85
			c0.124-0.071,0.197-0.203,0.197-0.341c0-0.04-0.006-0.081-0.02-0.122l-2.429-7.43c-0.057-0.175-0.227-0.285-0.408-0.269
			c0,0-4.831,0.445-7.759,0.714c-1.126,0.104-1.9,0.175-1.9,0.175c-0.138,0.013-0.275-0.089-0.305-0.225
			C26.14,10.909,25.927,9.906,25.63,8.52z M14.142,11.329c0.07-0.332,0.177-0.838,0.177-0.838c0.029-0.137,0.167-0.238,0.305-0.225
			c0,0,0.465,0.057,1.368,0.058c0.56,0.001,1.147-0.021,1.704-0.079c2.922-0.308,4.282-1.657,4.624-2.406
			c0.121-0.267,0.096-0.586-0.067-0.795c-0.179-0.229-0.501-0.307-0.881-0.209c-1.628,0.414-3.259,0.491-4.641,0.435
			c-0.908-0.037-2.086-0.199-2.086-0.199c-0.138-0.018-0.228-0.146-0.199-0.282c0,0,0.186-0.932,0.398-1.99
			c0.064-0.325,0.132-0.663,0.199-1C15.326,2.408,15.6,1.032,15.6,1.032c0.029-0.137,0.164-0.248,0.303-0.248c0,0,1.272,0,2.717,0
			c0.36,0,0.733,0,1.099,0c1.636,0,3.205,0,3.205,0c0.14,0,0.279,0.111,0.308,0.248c0,0,0.183,0.86,0.452,2.127
			C24.371,6.37,25.5,11.66,25.5,11.66c0.042,0.193,0.222,0.325,0.42,0.307c0,0,2.368-0.216,4.795-0.44
			c2.402-0.221,4.896-0.451,4.896-0.451c0.139-0.012,0.288,0.085,0.331,0.218c0,0,0.44,1.343,0.908,2.778
			c0.095,0.287,0.19,0.576,0.283,0.863c0.46,1.408,0.885,2.708,0.885,2.708c0.044,0.132-0.021,0.297-0.141,0.365
			c0,0-1.936,1.102-3.798,2.162c-1.909,1.087-3.778,2.15-3.778,2.15c-0.125,0.071-0.196,0.203-0.196,0.339
			c0,0.051,0.009,0.106,0.03,0.154c0,0,1.81,4.225,3.273,7.641c0.934,2.177,1.716,4.009,1.716,4.009
			c0.057,0.127,0.009,0.298-0.106,0.378c0,0-1.551,1.105-3.032,2.16c-0.126,0.089-0.252,0.178-0.377,0.267
			c-1.244,0.886-2.373,1.689-2.373,1.689c-0.113,0.08-0.29,0.069-0.393-0.025c0,0-1.131-1.045-2.584-2.389
			c-2.74-2.531-6.514-6.017-6.514-6.017c-0.149-0.14-0.381-0.14-0.53,0c0,0-3.316,3.062-5.99,5.532
			c-1.691,1.563-3.11,2.874-3.11,2.874c-0.102,0.094-0.28,0.106-0.393,0.025c-2.11-1.502-2.07-1.475-2.785-1.982
			c-0.079-0.057-0.161-0.115-0.24-0.172c-1.389-0.988-2.756-1.963-2.756-1.963c-0.114-0.08-0.164-0.251-0.107-0.378
			c0,0,0.89-2.08,1.9-4.44c1.427-3.329,3.089-7.21,3.089-7.21c0.023-0.048,0.031-0.103,0.031-0.154c0-0.137-0.071-0.268-0.196-0.339
			c0,0-1.822-1.037-3.707-2.11c-1.884-1.072-3.869-2.202-3.869-2.202c-0.121-0.068-0.184-0.233-0.142-0.365
			c0,0,0.472-1.437,0.958-2.925c0.132-0.402,0.264-0.807,0.391-1.195c0.396-1.216,0.729-2.229,0.729-2.229
			c0.043-0.133,0.191-0.23,0.331-0.218c0,0,1.697,0.158,3.635,0.335c2.793,0.257,6.658,0.597,6.658,0.597
			c0.035,0.004,0.067-0.004,0.101-0.011c0.024-0.003,0.048-0.004,0.07-0.013c0.018-0.005,0.032-0.019,0.049-0.027
			c0.025-0.013,0.049-0.025,0.071-0.044c0.012-0.01,0.018-0.023,0.032-0.036c0.021-0.022,0.041-0.044,0.054-0.071
			c0.009-0.014,0.012-0.028,0.018-0.043c0.009-0.021,0.022-0.041,0.027-0.065C14.064,11.698,14.096,11.544,14.142,11.329z"/>
		<path d="M17.389,6.809c-0.044,0-0.088-0.007-0.132-0.021c-0.229-0.072-0.357-0.316-0.285-0.546
			c0.431-1.378,0.698-2.892,0.794-4.504c0.015-0.24,0.22-0.421,0.46-0.409c0.241,0.015,0.423,0.221,0.41,0.461
			c-0.1,1.681-0.379,3.267-0.832,4.711C17.746,6.689,17.574,6.809,17.389,6.809L17.389,6.809z"/>
		<path d="M21.669,4.459c0,0.35-0.239,0.633-0.536,0.633c-0.296,0-0.536-0.283-0.536-0.633c0-0.35,0.24-0.633,0.536-0.633
			C21.43,3.826,21.669,4.109,21.669,4.459z"/>
		<path d="M15.998,2.925c0,0.274,0.189,0.496,0.421,0.496c0.232,0,0.421-0.223,0.421-0.496c0-0.274-0.188-0.497-0.421-0.497
			C16.187,2.428,15.998,2.651,15.998,2.925z"/>
		<path class="st1" d="M15.011,15.713v0.465c-0.299,0.389-0.728,0.584-1.286,0.584c-0.462,0-0.831-0.129-1.11-0.383
			c-0.28-0.257-0.42-0.594-0.42-1.012c0-0.397,0.127-0.721,0.386-0.973c0.258-0.252,0.592-0.376,1.002-0.376
			c0.211,0,0.405,0.036,0.583,0.106c0.18,0.071,0.333,0.175,0.465,0.31c0.13,0.136,0.226,0.295,0.288,0.474
			c0.061,0.18,0.093,0.401,0.093,0.661h-1.389c0.049,0.134,0.133,0.239,0.25,0.316C13.989,15.962,14.124,16,14.274,16
			C14.58,16,14.825,15.904,15.011,15.713z M13.54,15.105h0.641c-0.006-0.132-0.038-0.235-0.098-0.31
			c-0.059-0.072-0.137-0.109-0.232-0.109c-0.083,0-0.157,0.034-0.218,0.105C13.571,14.862,13.54,14.969,13.54,15.105z"/>
		<path class="st1" d="M16.784,14.072v0.333c0.228-0.237,0.501-0.355,0.82-0.355c0.31,0,0.548,0.087,0.713,0.259
			c0.165,0.173,0.245,0.428,0.245,0.768v1.644H17.28v-1.544c0-0.22-0.084-0.33-0.252-0.33c-0.08,0-0.163,0.028-0.244,0.086v1.788
			h-1.36v-2.648H16.784z"/>
		<path class="st1" d="M21.172,14.07v0.744h-0.568v0.567c0,0.192,0.085,0.288,0.258,0.288c0.126,0,0.234-0.064,0.324-0.189v1.049
			c-0.213,0.142-0.474,0.211-0.782,0.211c-0.325,0-0.6-0.098-0.825-0.293c-0.224-0.194-0.335-0.464-0.335-0.805v-0.829h-0.554
			l1.913-1.499v0.755H21.172z"/>
		<path class="st1" d="M24.306,15.713v0.465c-0.298,0.389-0.725,0.584-1.284,0.584c-0.46,0-0.831-0.129-1.111-0.383
			c-0.281-0.257-0.421-0.594-0.421-1.012c0-0.397,0.128-0.721,0.387-0.973c0.257-0.252,0.59-0.376,1.002-0.376
			c0.208,0,0.403,0.036,0.582,0.106c0.178,0.071,0.333,0.175,0.463,0.31c0.131,0.136,0.227,0.295,0.29,0.474
			c0.061,0.18,0.092,0.401,0.092,0.661h-1.388c0.05,0.134,0.133,0.239,0.25,0.316C23.286,15.962,23.419,16,23.571,16
			C23.876,16,24.121,15.904,24.306,15.713z M22.836,15.105h0.64c-0.006-0.132-0.038-0.235-0.098-0.31
			c-0.06-0.072-0.136-0.109-0.23-0.109c-0.084,0-0.156,0.034-0.218,0.105C22.867,14.862,22.836,14.969,22.836,15.105z"/>
		<path class="st1" d="M26.084,14.653c0.174-0.401,0.424-0.603,0.754-0.603c0.184,0,0.334,0.061,0.454,0.181
			c0.119,0.12,0.178,0.273,0.178,0.457c0,0.194-0.059,0.351-0.174,0.469c-0.117,0.121-0.27,0.18-0.457,0.18
			c-0.215,0-0.399-0.081-0.55-0.242c-0.134,0.113-0.204,0.327-0.204,0.638v0.987h-1.358v-2.648h1.358V14.653z"/>
		<path class="st1" d="M12.147,21.072v-2.141h4.296v2.141h-1.078v2.692h-2.141v-2.692H12.147z"/>
		<path class="st1" d="M19.626,23.847c-0.689,0-1.276-0.243-1.755-0.727c-0.48-0.485-0.721-1.075-0.721-1.772
			c0-0.695,0.241-1.283,0.721-1.767c0.479-0.483,1.066-0.722,1.755-0.722c0.693,0,1.279,0.24,1.761,0.722
			c0.479,0.484,0.719,1.072,0.719,1.767c0,0.697-0.239,1.287-0.719,1.772C20.905,23.604,20.318,23.847,19.626,23.847z
			 M19.626,20.711c-0.136,0-0.25,0.047-0.342,0.143c-0.091,0.097-0.136,0.217-0.136,0.363c0,0.146,0.045,0.268,0.136,0.363
			c0.091,0.096,0.205,0.144,0.342,0.144c0.14,0,0.255-0.048,0.346-0.144c0.09-0.096,0.135-0.217,0.135-0.363
			c0-0.146-0.045-0.266-0.135-0.363C19.88,20.758,19.766,20.711,19.626,20.711z"/>
		<path class="st1" d="M26.014,23.765h-2.141v-2.109l-1.843-2.724h2.167l0.746,1.096l0.745-1.096h2.167l-1.841,2.724V23.765z"/>
		<path class="st1" d="M13.632,25.57v0.332c0.22-0.236,0.492-0.355,0.816-0.355c0.386,0,0.671,0.153,0.856,0.457
			c0.151-0.159,0.302-0.274,0.454-0.348c0.151-0.072,0.322-0.11,0.514-0.11c0.287,0,0.513,0.088,0.678,0.264
			c0.166,0.176,0.25,0.425,0.25,0.744v1.663h-1.286v-1.582c0-0.093-0.024-0.167-0.069-0.219c-0.046-0.052-0.106-0.078-0.181-0.078
			c-0.084,0-0.166,0.028-0.249,0.085v1.793h-1.284v-1.582c0-0.092-0.024-0.164-0.068-0.218c-0.045-0.052-0.105-0.078-0.183-0.078
			c-0.081,0-0.164,0.03-0.248,0.089v1.789h-1.36V25.57H13.632z"/>
		<path class="st1" d="M20.589,27.21v0.464c-0.299,0.391-0.725,0.585-1.285,0.585c-0.46,0-0.83-0.128-1.111-0.382
			c-0.279-0.258-0.421-0.594-0.421-1.012c0-0.397,0.128-0.721,0.386-0.972c0.258-0.251,0.592-0.378,1.002-0.378
			c0.212,0,0.404,0.036,0.583,0.106c0.179,0.07,0.334,0.174,0.463,0.31c0.13,0.136,0.228,0.295,0.289,0.474
			c0.062,0.181,0.093,0.402,0.093,0.661h-1.388c0.049,0.135,0.133,0.24,0.249,0.318c0.118,0.075,0.252,0.113,0.403,0.113
			C20.159,27.498,20.404,27.403,20.589,27.21z M19.12,26.603h0.639c-0.005-0.131-0.038-0.235-0.097-0.309
			c-0.06-0.075-0.137-0.11-0.233-0.11c-0.083,0-0.156,0.034-0.217,0.106C19.151,26.36,19.12,26.466,19.12,26.603z"/>
		<path class="st1" d="M22.544,25.57v0.332c0.228-0.236,0.503-0.355,0.821-0.355c0.309,0,0.548,0.087,0.712,0.259
			c0.164,0.172,0.247,0.428,0.247,0.765v1.646H23.04v-1.545c0-0.218-0.085-0.329-0.25-0.329c-0.082,0-0.163,0.027-0.245,0.084v1.789
			h-1.36V25.57H22.544z"/>
		<path class="st1" d="M27.112,25.568v0.743h-0.567v0.568c0,0.192,0.086,0.287,0.257,0.287c0.127,0,0.235-0.063,0.327-0.189v1.05
			c-0.216,0.14-0.475,0.211-0.782,0.211c-0.327,0-0.603-0.098-0.826-0.293c-0.223-0.194-0.335-0.464-0.335-0.805v-0.83H24.63
			l1.915-1.499v0.756H27.112z"/>
	</g>
	<g>
		<g>
			<path d="M44.568,11.225V1.242h3.874v9.982H44.568z"/>
			<path d="M129.651,11.225V1.242h3.873v9.982H129.651z"/>
			<path d="M60.485,11.303h-3.244L54.334,7.31v3.914h-3.537V1.242h3.051l3.1,4.203V1.242h3.537V11.303z"/>
			<path d="M104.229,11.303h-3.243l-2.91-3.993v3.914h-3.545V1.242h3.057l3.095,4.203V1.242h3.546V11.303z"/>
			<path d="M156.931,11.303h-3.243l-2.909-3.993v3.914h-3.542V1.242h3.05l3.101,4.203V1.242h3.542V11.303z"/>
			<path d="M62.066,5.13V1.242h8.877V5.13h-2.502v6.095h-3.874V5.13H62.066z"/>
			<path d="M118.992,5.13V1.242h8.868V5.13h-2.492v6.095h-3.88V5.13H118.992z"/>
			<path d="M186.62,5.13V1.242h8.873V5.13h-2.496v6.095h-3.876V5.13H186.62z"/>
			<path d="M249.472,5.13V1.242h8.866V5.13h-2.498v6.095h-3.874V5.13H249.472z"/>
			<path d="M80.724,9.011v2.213H72.43V1.242h8.294v2.247H76.3v1.776h3.241v1.946H76.3v1.8H80.724z"/>
			<path d="M82.336,1.242h6.523c1.129,0,2.019,0.283,2.666,0.867c0.638,0.56,0.96,1.287,0.96,2.124c0,0.953-0.595,1.669-1.359,2.221
				c1.077,1.229,1.946,2.825,2.155,4.769h-4.312c-0.082-1.265-0.274-2.17-0.567-2.792c-0.293-0.588-1.031-0.887-2.192-0.887v3.68
				h-3.873V1.242z M86.209,3.32v1.911h0.668c1.164,0,1.459-0.306,1.459-0.947c0-0.255-0.077-0.482-0.238-0.676
				c-0.162-0.19-0.704-0.287-1.082-0.287H86.209z"/>
			<path d="M109.503,11.225h-3.872l3.466-9.982h6.302l3.462,9.982h-3.87l-0.576-1.68h-4.332L109.503,11.225z M110.887,7.176h2.723
				l-1.385-3.869L110.887,7.176z"/>
			<path d="M162.208,11.225h-3.874l3.467-9.982h6.299l3.469,9.982h-3.871l-0.577-1.68h-4.334L162.208,11.225z M163.587,7.176h2.728
				l-1.384-3.869L163.587,7.176z"/>
			<path d="M140.642,11.383c-1.429,0-2.636-0.492-3.626-1.5c-0.996-0.974-1.489-2.202-1.489-3.636c0-1.431,0.493-2.653,1.489-3.66
				c0.99-1.006,2.197-1.492,3.626-1.492c1.432,0,2.648,0.487,3.631,1.492c0.999,1.007,1.485,2.229,1.485,3.66
				c0,1.434-0.486,2.662-1.485,3.636C143.29,10.891,142.074,11.383,140.642,11.383z M140.642,4.25c-0.465,0-0.846,0.164-1.153,0.509
				c-0.304,0.316-0.458,0.716-0.458,1.193c0,0.508,0.154,0.912,0.458,1.221c0.307,0.351,0.688,0.508,1.153,0.508
				c0.467,0,0.852-0.157,1.158-0.508c0.307-0.309,0.465-0.713,0.465-1.221c0-0.477-0.157-0.877-0.465-1.193
				C141.494,4.414,141.11,4.25,140.642,4.25z"/>
			<path d="M201.721,11.383c-1.422,0-2.635-0.492-3.628-1.5c-0.989-0.974-1.482-2.202-1.482-3.636c0-1.431,0.493-2.653,1.482-3.66
				c0.993-1.006,2.206-1.492,3.628-1.492c1.434,0,2.64,0.487,3.632,1.492c0.994,1.007,1.49,2.229,1.49,3.66
				c0,1.434-0.496,2.662-1.49,3.636C204.361,10.891,203.155,11.383,201.721,11.383z M201.721,4.25c-0.462,0-0.847,0.164-1.152,0.509
				c-0.305,0.316-0.456,0.716-0.456,1.193c0,0.508,0.151,0.912,0.456,1.221c0.305,0.351,0.69,0.508,1.152,0.508
				c0.466,0,0.856-0.157,1.159-0.508c0.311-0.309,0.46-0.713,0.46-1.221c0-0.477-0.149-0.877-0.46-1.193
				C202.577,4.414,202.187,4.25,201.721,4.25z"/>
			<path d="M237.331,11.383c-1.424,0-2.63-0.492-3.626-1.5c-0.991-0.974-1.49-2.202-1.49-3.636c0-1.431,0.498-2.653,1.49-3.66
				c0.996-1.006,2.202-1.492,3.626-1.492c1.432,0,2.647,0.487,3.634,1.492c0.995,1.007,1.492,2.229,1.492,3.66
				c0,1.434-0.496,2.662-1.492,3.636C239.978,10.891,238.764,11.383,237.331,11.383z M237.331,4.25c-0.46,0-0.846,0.164-1.15,0.509
				c-0.308,0.316-0.452,0.716-0.452,1.193c0,0.508,0.143,0.912,0.452,1.221c0.304,0.351,0.69,0.508,1.15,0.508
				c0.47,0,0.861-0.157,1.16-0.508c0.311-0.309,0.464-0.713,0.464-1.221c0-0.477-0.154-0.877-0.464-1.193
				C238.192,4.414,237.801,4.25,237.331,4.25z"/>
			<path d="M264.736,11.383c-1.428,0-2.635-0.492-3.622-1.5c-0.994-0.974-1.5-2.202-1.5-3.636c0-1.431,0.507-2.653,1.5-3.66
				c0.987-1.006,2.194-1.492,3.622-1.492c1.429,0,2.644,0.487,3.637,1.492c0.986,1.007,1.487,2.229,1.487,3.66
				c0,1.434-0.501,2.662-1.487,3.636C267.381,10.891,266.165,11.383,264.736,11.383z M264.736,4.25
				c-0.462,0-0.848,0.164-1.151,0.509c-0.307,0.316-0.459,0.716-0.459,1.193c0,0.508,0.152,0.912,0.459,1.221
				c0.303,0.351,0.689,0.508,1.151,0.508c0.467,0,0.858-0.157,1.16-0.508c0.307-0.309,0.462-0.713,0.462-1.221
				c0-0.477-0.155-0.877-0.462-1.193C265.594,4.414,265.204,4.25,264.736,4.25z"/>
			<path d="M315.348,11.383c-1.429,0-2.632-0.492-3.625-1.5c-1.001-0.974-1.492-2.202-1.492-3.636c0-1.431,0.491-2.653,1.492-3.66
				c0.994-1.006,2.196-1.492,3.625-1.492c1.427,0,2.64,0.487,3.634,1.492c0.992,1.007,1.492,2.229,1.492,3.66
				c0,1.434-0.5,2.662-1.492,3.636C317.987,10.891,316.775,11.383,315.348,11.383z M315.348,4.25c-0.465,0-0.844,0.164-1.149,0.509
				c-0.311,0.316-0.459,0.716-0.459,1.193c0,0.508,0.148,0.912,0.459,1.221c0.305,0.351,0.685,0.508,1.149,0.508
				c0.469,0,0.851-0.157,1.157-0.508c0.31-0.309,0.465-0.713,0.465-1.221c0-0.477-0.156-0.877-0.465-1.193
				C316.199,4.414,315.817,4.25,315.348,4.25z"/>
			<path d="M172.857,11.225V1.242h3.871V8.72h4.417v2.505H172.857z"/>
			<path d="M212.32,1.242V4.57c1.302-0.057,2.149-0.365,2.539-0.937c0.398-0.605,0.591-1.382,0.591-2.39h4.228
				c0,1.226-0.155,2.241-0.477,3.006c-0.319,0.807-1.171,1.464-1.855,2c1.365,1.019,2.471,2.692,2.614,4.977h-4.495
				c-0.07-2.54-1.166-3.577-3.147-3.622v3.622h-3.866V1.242H212.32z"/>
			<path d="M228.56,11.225h-3.872V6.869l-3.972-5.627h3.926l1.98,3.236l1.972-3.236h3.928l-3.963,5.627V11.225z"/>
			<path d="M277.168,11.225h-3.874V6.869l-3.971-5.627h3.925l1.982,3.236l1.973-3.236h3.934l-3.97,5.627V11.225z"/>
			<path d="M296.012,1.748l-0.923,2.65c-0.718-0.543-1.641-1.152-2.57-1.204c-0.298-0.012-0.758-0.073-0.957,0.399
				c-0.174,0.378-0.174,0.899,1.629,1.423c0.79,0.207,1.346,0.558,1.762,0.798c0.411,0.272,0.72,0.578,0.925,0.956
				c0.204,0.375,0.306,0.846,0.306,1.339c0,1.08-0.403,1.873-1.213,2.453c-0.812,0.551-2.005,0.821-3.575,0.821
				c-1.774,0-3.389-0.268-4.666-0.751l1.022-2.86c0.34,0.265,1.094,0.662,1.8,1.107c0.879,0.519,1.467,0.32,1.675,0
				c0.2-0.327,0.381-0.909-1.375-1.537c-0.547-0.19-0.971-0.411-1.323-0.614c-0.348-0.204-1.288-0.999-1.291-2.297
				c-0.011-1.083,0.397-1.934,1.209-2.482c0.809-0.582,1.897-0.947,3.467-0.947C293.354,1.004,294.786,1.314,296.012,1.748z"/>
			<path d="M301.831,11.225h-3.874V1.242h3.874v3.672h2.905V1.242h3.881v9.982h-3.881v-3.69h-2.905V11.225z"/>
			<path d="M327.632,11.225h-2.985l-3.525-9.982h3.765l1.706,4.614l1.761-4.614h1.984l1.819,4.614l1.638-4.614h3.771l-3.362,9.982
				h-2.989l-1.846-4.49L327.632,11.225z"/>
		</g>
	</g>
	<g>
		<g>
			<g>
				<g>
					<path d="M140.848,23.54v-4.45h-12.863v-1.529h-6.705v1.529h-1.791v4.45h1.791v1.304h-1.791v4.464h1.791v0.905
						c0,5.696,2.551,8.678,8.053,8.678h3.118c4.478,0,8.352-2.07,8.352-9.172v-4.918h-6.577v4.918c0,1.666-0.647,2.901-2.929,2.901
						h-0.499c-1.638,0-2.811-0.443-2.811-2.407v-0.905h4.941v-4.464h-4.941V23.54H140.848z"/>
					<path d="M157.634,25.494c0,0-1.939,0-3.106,0v-1.276h9.866v-5.359h-9.866c0-0.78,0-1.298,0-1.298h-6.704v1.298h-3.702v5.359
						h3.702v6.77h8.819c0.911,0,1.188,0.367,1.188,0.884c0,0.444-0.352,0.747-1.272,0.747h-11.01v6.271h11.01
						c6.658,0,8.765-2.234,8.765-6.868C165.324,26.185,162.02,25.494,157.634,25.494z"/>
					<path d="M108.027,25.494c0,0-0.862,0-2.024,0v-1.302h2.179v-5.333h-2.179c0-0.788,0-1.298,0-1.298h-5.71c0,0.51,0,0.51,0,1.298
						h-5.858v5.333h5.913v1.302c-0.098,0-0.628,0-0.628,0c-3.001,0-5.878,2.027-5.878,6.716c0,4.414,2.352,6.68,6.398,6.68
						c5.176,0,5.763-3.054,5.763-6.449c0,0,0-1.095,0-1.453c1.163,0,2.15,0,2.15,0c0.825,0,1.303,0.124,1.303,0.829
						c0,0.549-0.265,0.801-1.264,0.801c-0.474,0.013-0.927,0.013-0.927,0.013v6.258c0,0,0.463,0,0.841,0
						c4.014,0,7.402-1.114,7.402-6.851C115.508,27.447,112.025,25.494,108.027,25.494z M100.348,32.505
						c0,0.703-0.227,1.04-0.584,1.04c-0.109,0-0.189,0-0.22,0c-0.601-0.014-0.751-0.656-0.751-1.336
						c0-0.848,0.441-1.217,1.097-1.217c0.223,0,0.43-0.005,0.458-0.005C100.348,31.347,100.348,32.505,100.348,32.505z
						 M109.477,16.571v5.37c1.186,0.009,1.346,0.724,1.346,1.299v1.546h5.393V22.66C116.215,18.404,114.393,16.374,109.477,16.571z"
						/>
					<path d="M201.539,25.494l-0.949,3.551c-0.725,2.489-3.412,3.574-5.76,3.574h-7.381v6.271h7.744
						c5.719,0,10.238-2.648,11.601-8.394c0.613-2.59,0.827-5.425,2.433-5.425v-6.794C203.745,18.277,202.614,20.9,201.539,25.494z
						 M197.754,17.561h-10.306v5.497h10.306V17.561z M197.754,24.362h-10.306v5.502h10.306V24.362z"/>
					<rect x="229.976" y="25.19" width="19.972" height="6.497"/>
					<path d="M221.41,23.37h-9.734v4.627h9.089c0.871,0.015,0.738,0.74,0.738,1.3c0,0,0,0.011,0,0h-8.928v3.658h8.928v1.305h-9.827
						v4.63h15.42V28.476C227.096,26.119,225.596,23.37,221.41,23.37z"/>
					<path d="M181.978,26.336c0.284-0.365,0.702-0.524,1.388-0.524v-3.854c-3.822,0-5.43,1.46-6.109,3.191h-2.678l-0.113-1.78
						h-4.791l0.118,1.78h-1.803V30.1h2.134l0.575,8.79h4.776l-0.568-8.79h2.13c1.25,0,1.801,0.357,1.801,1.186
						c0,0.9-0.551,1.346-2.142,1.346v4.947c5.659,0,7.409-2.172,7.409-5.76c0,0.004,0.01-1.112,0.01-1.112
						C184.114,29.045,183.518,27.377,181.978,26.336z"/>
					<g>
						<g>
							<g>
								<path d="M83.005,17.561v-0.99h-5.672v0.99h-8.027v3.689h21.698v-3.689H83.005z M69.719,31.845h7.238v7.048h6.4v-7.048h7.265
									v-9.299H69.719V31.845z M74.957,26.497h10.434v1.406H74.957V26.497z M71.986,33.079c-0.061,1.433-1.306,2.047-2.68,1.936
									v3.877c5.138,0.2,6.851-2.136,6.717-5.813H71.986z"/>
							</g>
						</g>
					</g>
					<path d="M66.159,21.227v-3.666h-8.003v-0.99h-5.665v0.99h-7.984v3.666h7.984v1.307h-7.619v10.52h5.151
						c-0.809,1.141-3.24,1.967-5.578,1.924v3.889c3.574,0.022,6.261-0.827,7.679-2.347v2.371h6.33v-2.371
						c1.427,1.521,4.113,2.369,7.668,2.347v-3.889c-2.229,0.041-4.576-0.488-5.563-1.924h5.215v-10.52h-7.619v-1.307H66.159z
						 M52.491,30.592H50.1V29.3h2.39V30.592z M52.491,26.311H50.1v-1.304h2.39V26.311z M60.538,30.592h-2.382V29.3h2.382V30.592z
						 M60.538,25.007v1.304h-2.382v-1.304H60.538z"/>
					<path d="M88.342,33.079c0.046,1.433,1.309,2.047,2.662,1.936v3.877c-5.124,0.2-6.83-2.136-6.711-5.813H88.342z"/>
				</g>
			</g>
		</g>
	</g>
	<g>
		<path d="M253.259,17.756v5.949h12.257c0.79,0,1.34,0.208,1.34,0.967c-0.017,0.644-0.469,0.943-1.34,0.943h-11.141v13.268h18.344
			v-6.215c0,0-7.449,0-11.468,0c0-0.595,0-0.992,0-1.609c2.119,0,3.729,0,3.729,0c7.739,0.165,9.098-3.024,9.097-6.491
			c-0.015-5.137-2.885-6.812-8.441-6.812H253.259z"/>
		<path d="M299.778,17.756v5.949h4.053c1.447,0,2.14,0.865,2.14,1.935v13.243h7.451V25.64c0-6.737-3.619-7.884-8.115-7.884H299.778z
			"/>
		<path d="M284.949,17.756c-3.968,0-8.253,3.227-8.253,7.201v6.747c0,3.969,4.286,7.179,8.253,7.179h4.417
			c3.987,0,8.25-3.209,8.25-7.179v-6.747c0-3.974-4.263-7.201-8.25-7.201H284.949z M283.705,30.845v-5.058
			c0-0.863,0.815-2.082,1.803-2.082h3.309c0.969,0,1.805,1.218,1.805,2.082v5.058c0,0.957-0.88,2.112-1.805,2.112h-3.309
			C284.484,32.957,283.705,31.826,283.705,30.845z"/>
		<path d="M326.043,31.325l4.7,0l-0.001,0.778c0,0.519-0.425,0.944-0.944,0.944h-11.402v5.921h11.033
			c5.544,0,8.416-1.634,8.448-6.743l0.001,0l0.002-7.783c0-4.621-3.089-6.606-8.375-6.62l-0.001-0.001h-4.017
			c-5.56,0-8.433,1.77-8.448,6.913C317.034,28.203,318.296,31.49,326.043,31.325z M325.498,23.767h3.897
			c0.786,0,1.334,0.306,1.34,1.055h0.001v1.054h-5.238c-0.872,0-1.323-0.398-1.341-1.042
			C324.157,24.075,324.708,23.767,325.498,23.767z"/>
	</g>
</g>
</svg>
