<svg id="レイヤー_1" data-name="レイヤー 1" xmlns="http://www.w3.org/2000/svg" viewBox="0 0 234.05 23.09"><defs><style>.cls-1{fill:#fff;}</style></defs><title>アートボード 33</title><path class="cls-1" d="M10.37,4.49c.21,0,.48.12.48.36s-.34.36-.51.36c-1.92,8.71-4.2,12.36-6.72,15.33A19.25,19.25,0,0,0,0,18.84,27.61,27.61,0,0,0,6.43,3.53ZM16.11,3a42.21,42.21,0,0,1,7.05,14.69,25.17,25.17,0,0,0-3.77,2.09A34.86,34.86,0,0,0,13,5.23ZM19,2.18a17.24,17.24,0,0,1,2.4,2.76c-.6.48-1.18,1-1.78,1.54a21.72,21.72,0,0,0-2.4-2.83ZM21.41.46a16,16,0,0,1,2.4,2.66,11.41,11.41,0,0,0-1.7,1.42,20.72,20.72,0,0,0-2.36-2.72Z"/><path class="cls-1" d="M37.2,1.25l4.06.14c.21,0,.5,0,.5.29s-.38.41-.5.46V6.41h7.53V10H41.23C41,14,39.5,19.32,32.81,22.71a13.67,13.67,0,0,0-3.05-2.91c7-3.05,7.25-7.2,7.42-9.82H27.94V6.41H37.2Z"/><path class="cls-1" d="M75.12,9.89V14H54.26V9.89Z"/><path class="cls-1" d="M89.64,9.29a32.66,32.66,0,0,1,3.77,2.21A25.21,25.21,0,0,0,95.16,8H89.38a40.27,40.27,0,0,1-4.88,5.37,19.19,19.19,0,0,0-3-2.49A25.17,25.17,0,0,0,89.31.77L93.07,2c.36.12.41.19.41.31s-.24.32-.57.36c-.56,1-.87,1.44-1.23,2H97a4.54,4.54,0,0,0,1.63-.26l1.71,1.51a6.68,6.68,0,0,0-.39.74,53.05,53.05,0,0,1-3.57,7.2C97.56,15,98,15.53,98.52,16.08c-1.1,1.42-1.17,1.51-2.35,3.19a20,20,0,0,0-2.09-2.42,24.47,24.47,0,0,1-8.86,5.81,15.16,15.16,0,0,0-2.47-3.22c4.71-1.56,7-3.26,8.55-5a25.16,25.16,0,0,0-3.94-2.52ZM96.72,0a25,25,0,0,1,2.07,2.57A12.63,12.63,0,0,0,96.72,4a29.42,29.42,0,0,0-2-2.52Zm3.91,0a21.92,21.92,0,0,1,2.16,2.69,9,9,0,0,1-1,.67c-.21.14-.5.34-1,.74-1-1.39-1.51-2-2.11-2.76Z"/><path class="cls-1" d="M123.72,4.8a4.35,4.35,0,0,0,1.78-.24l2.37,1.75c-.14.58-.79,3.15-.93,3.67-1.23,4.2-2.62,7.35-5.69,10.25A13.11,13.11,0,0,1,117,23.09a12.42,12.42,0,0,0-3-2.81,14.55,14.55,0,0,0,6.53-4.9,19.53,19.53,0,0,0,2.9-7.17H111.89v5.13H108V4.8h7.51V1.15l4.11.17c.19,0,.53,0,.53.24s-.36.41-.53.46V4.8Z"/><path class="cls-1" d="M136.7,1.61a22.86,22.86,0,0,1,6,3.93,39.26,39.26,0,0,0-2.33,3.27,24.61,24.61,0,0,0-6-3.84Zm-2,16.58A28.39,28.39,0,0,0,152.59,5.28a15.35,15.35,0,0,0,2.48,3.26,31.85,31.85,0,0,1-7.47,8,40,40,0,0,1-9.89,5.35c0,.26-.12.53-.33.53s-.24-.07-.39-.34Z"/><path class="cls-1" d="M165.1,19.68v1.23h-4V3.79H179.5V20.91h-4V19.68Zm10.41-3.55V7.37H165.1v8.76Z"/><path class="cls-1" d="M207.12,9.89V14H186.26V9.89Z"/><path class="cls-1" d="M223.68,7.56A39.64,39.64,0,0,1,232,13.2a37.77,37.77,0,0,0-2.36,3.48,29.15,29.15,0,0,0-7.39-5.52V22.54h-4.1V1.32l4.1.14c.12,0,.43,0,.43.32s-.26.36-.43.4V9.6ZM229,3.31a24.64,24.64,0,0,1,2.45,2.45c-.55.46-1.44,1.18-2,1.63a16,16,0,0,0-2.35-2.54Zm2.57-1.87a14.88,14.88,0,0,1,2.45,2.42c-.31.24-1.56,1.3-1.8,1.49a26.72,26.72,0,0,0-2.5-2.52Z"/></svg>