<?xml version="1.0" standalone="no"?>
<!DOCTYPE svg PUBLIC "-//W3C//DTD SVG 1.1//EN" "http://www.w3.org/Graphics/SVG/1.1/DTD/svg11.dtd" >
<svg xmlns="http://www.w3.org/2000/svg">
<metadata></metadata>
<defs>
<font id="karbon_hairlineregular" horiz-adv-x="327" >
<font-face units-per-em="2048" ascent="1393" descent="-655" />
<missing-glyph horiz-adv-x="348" />
<glyph unicode="&#xfb01;" horiz-adv-x="765" d="M168 881v-881h-12v881h-121v12h121v225q0 137 60.5 212t182.5 75q89 0 156 -53v-15q-70 56 -156 56q-117 0 -174 -72.5t-57 -202.5v-225h450v-893h-12v881h-438z" />
<glyph unicode="&#xfb02;" horiz-adv-x="765" d="M156 893v287q0 225 194 225q89 0 156 -53v-15q-70 56 -156 56q-182 0 -182 -213v-287h256v-12h-256v-881h-12v881h-121v12h121zM618 1393v-1393h-12v1393h12z" />
<glyph unicode="&#xfb03;" horiz-adv-x="1216" d="M618 881v-881h-12v881h-438v-881h-12v881h-121v12h121v266q0 225 194 225q89 0 156 -53v-14q-68 55 -156 55q-182 0 -182 -213v-266h438v225q0 137 61 212t183 75q89 0 156 -53v-15q-70 56 -156 56q-117 0 -174.5 -72.5t-57.5 -202.5v-225h451v-893h-12v881h-439z" />
<glyph unicode="&#xfb04;" horiz-adv-x="1216" d="M618 881v-881h-12v881h-438v-881h-12v881h-121v12h121v266q0 225 194 225q89 0 156 -53v-14q-68 55 -156 55q-182 0 -182 -213v-266h438v287q0 225 195 225q88 0 155 -53v-15q-70 56 -155 56q-183 0 -183 -213v-287h256v-12h-256zM1069 1393v-1393h-12v1393h12z" />
<glyph horiz-adv-x="2048" />
<glyph horiz-adv-x="2048" />
<glyph unicode="&#xd;" horiz-adv-x="2048" />
<glyph unicode=" "  horiz-adv-x="348" />
<glyph unicode="&#x09;" horiz-adv-x="348" />
<glyph unicode="&#xa0;" horiz-adv-x="348" />
<glyph unicode="!" d="M170 1219v-873h-12v873h12zM143 20q0 9 6 15t15 6q20 0 20 -21q0 -20 -20 -20q-21 0 -21 20z" />
<glyph unicode="&#x22;" horiz-adv-x="387" d="M102 977l41 342h13l-41 -342h-13zM231 977l41 342h13l-41 -342h-13z" />
<glyph unicode="#" horiz-adv-x="919" d="M285 444l-90 -444h-13l90 444h-231v13h233l68 336h-236v12h238l84 414h12l-84 -414h275l84 414h12l-84 -414h236v-12h-238l-68 -336h240v-13h-242l-90 -444h-12l90 444h-274zM287 457h274l68 336h-275z" />
<glyph unicode="$" horiz-adv-x="811" d="M385 -195v185h-18q-95 0 -177 34.5t-137 92.5v18q55 -61 138 -97t176 -36h18v627q-46 22 -73.5 35.5t-64 34.5t-57.5 38.5t-44.5 42t-35.5 49.5t-20 58t-8 71q0 126 86 197.5t217 73.5v164h12v-164q80 -1 156.5 -35t124.5 -86v-16q-50 54 -127 89t-154 36v-580 q47 -22 74 -35t67.5 -35t63.5 -39.5t51.5 -43.5t43 -52t24.5 -59.5t10 -71.5q0 -139 -92.5 -221t-241.5 -90v-185h-12zM385 641v576q-125 -2 -208 -70.5t-83 -188.5q0 -37 8 -68.5t20 -56t35 -48.5t43 -40t55.5 -37t60 -33.5t69.5 -33.5zM397 625v-623q142 8 232 87t90 212 q0 49 -18.5 92t-44.5 72.5t-73.5 61t-85 50.5t-100.5 48z" />
<glyph unicode="%" horiz-adv-x="1159" d="M82 985q0 106 71 175t173 69q101 0 172 -69t71 -175t-71 -175t-172 -69q-102 0 -173 69t-71 175zM94 985q0 -100 67.5 -165.5t164.5 -65.5t164 65.5t67 165.5t-67 166t-164 66t-164.5 -66t-67.5 -166zM1077 233q0 -106 -70.5 -174.5t-172.5 -68.5t-173 69t-71 174 q0 106 71 175t173 69q101 0 172 -69t71 -175zM1065 233q0 100 -67 166t-164 66t-164.5 -66t-67.5 -166t67.5 -165.5t164.5 -65.5t164 65.5t67 165.5zM963 1219l-752 -1219h-14l751 1219h15z" />
<glyph unicode="&#x26;" horiz-adv-x="1042" d="M391 637l-84 86q-25 25 -40.5 43t-38.5 51t-34.5 72t-11.5 82q0 108 73 183t198 75q130 0 204 -75t74 -191q0 -48 -18 -89.5t-43 -71.5t-70 -61.5t-80.5 -51t-93.5 -48.5q-3 -1 -8 -4t-8 -4l401 -414q109 159 109 371h12q0 -217 -113 -379l203 -211h-14l-195 201 q-72 -99 -179 -155t-241 -56q-140 0 -236 76.5t-96 207.5q0 61 23.5 113t71.5 96t102 78.5t133 75.5zM315 731l86 -90q3 1 10.5 4.5t10.5 5.5q56 28 91 47t79 49.5t68 59.5t41.5 69.5t17.5 86.5q-1 118 -73 184.5t-193 69.5q-119 0 -188.5 -72t-69.5 -174q0 -42 11 -79.5 t32.5 -69t36.5 -49t40 -42.5zM805 211l-406 418q-158 -80 -241.5 -162t-83.5 -193q0 -126 92.5 -199t226.5 -73q131 0 236.5 55.5t175.5 153.5z" />
<glyph unicode="'" horiz-adv-x="258" d="M102 977l41 342h13l-41 -342h-13z" />
<glyph unicode="(" horiz-adv-x="567" d="M526 -289h-18q-67 66 -117 123.5t-103.5 138t-87 162.5t-55.5 190.5t-22 227.5t22 227t55.5 190t87 162.5t103.5 137.5t117 123h18q-68 -67 -118 -123.5t-104.5 -137.5t-89 -162t-57 -189.5t-22.5 -227.5t22.5 -227.5t57 -190t89 -163t104.5 -138t118 -123.5z" />
<glyph unicode=")" horiz-adv-x="567" d="M41 1393h18q67 -66 117 -123t103.5 -137.5t87 -162.5t55.5 -190t22 -227t-22 -227.5t-55.5 -190.5t-87 -162.5t-103.5 -138t-117 -123.5h-18q68 67 118 123.5t104.5 138t89 163t57 190t22.5 227.5t-22.5 227.5t-57 189.5t-89 162t-104.5 137.5t-118 123.5z" />
<glyph unicode="*" horiz-adv-x="552" d="M276 1135l-139 -189l-10 6l141 191l-227 76l4 10l225 -74v238h13v-238l225 74l4 -10l-227 -76l141 -191l-10 -6z" />
<glyph unicode="+" horiz-adv-x="843" d="M416 594h-334v12h334v334h12v-334h334v-12h-334v-334h-12v334z" />
<glyph unicode="," d="M158 47h12q0 -88 -26 -143t-91 -99h-20q70 47 97.5 101t27.5 141z" />
<glyph unicode="-" horiz-adv-x="727" d="M131 526v13h465v-13h-465z" />
<glyph unicode="." d="M143 20q0 9 6 15t15 6q20 0 20 -21q0 -20 -20 -20q-21 0 -21 20z" />
<glyph unicode="/" horiz-adv-x="739" d="M12 -283l684 1676h13l-684 -1676h-13z" />
<glyph unicode="0" horiz-adv-x="995" d="M72 610q0 277 120.5 448t305.5 171t305.5 -171t120.5 -448t-120.5 -448.5t-305.5 -171.5t-305.5 171.5t-120.5 448.5zM84 610q0 -270 118 -439t296 -169q177 0 295 169t118 439t-118 438.5t-295 168.5q-178 0 -296 -168.5t-118 -438.5z" />
<glyph unicode="1" horiz-adv-x="501" d="M0 1149v12l317 68v-1229h-12v1214z" />
<glyph unicode="2" horiz-adv-x="786" d="M41 12h707v-12h-728v12q187 129 335.5 279t238.5 309.5t90 292.5q0 64 -18.5 121t-54.5 103t-95 73t-135 27q-101 0 -191.5 -50.5t-160.5 -142.5v18q67 88 158.5 137.5t193.5 49.5q103 0 176 -48t106 -122.5t33 -165.5q0 -136 -93 -299.5t-239 -311.5t-323 -270z" />
<glyph unicode="3" horiz-adv-x="790" d="M63 1057v18q120 154 312 154q155 0 234 -82t79 -211q0 -126 -93.5 -211t-219.5 -96q61 -2 121 -22.5t112 -58t84.5 -98.5t32.5 -135q0 -145 -93.5 -235t-269.5 -90q-102 0 -189 38t-136 95v16q57 -63 142 -100t183 -37q167 0 259 86t92 227q0 139 -112.5 223.5 t-285.5 84.5v12q152 0 256.5 87t104.5 214q0 124 -75.5 202.5t-225.5 78.5q-188 0 -312 -160z" />
<glyph unicode="4" horiz-adv-x="1009" d="M739 1229v-862h250v-13h-250v-354h-12v354h-680v13l680 862h12zM727 1210l-666 -843h666v843z" />
<glyph unicode="5" horiz-adv-x="774" d="M176 1206l-33 -471q91 -11 166 -29t149.5 -50.5t125.5 -76t82.5 -110.5t31.5 -150q0 -66 -21.5 -124t-64 -104.5t-113.5 -73.5t-163 -27q-107 0 -189.5 37t-132.5 96v16q124 -137 322 -137q173 0 261.5 90.5t88.5 226.5q0 342 -555 406l35 494h506v-13h-496z" />
<glyph unicode="6" horiz-adv-x="909" d="M479 1219h15l-310 -531l-57 -106q50 80 135 129t193 49q164 0 275.5 -108t111.5 -277q0 -168 -111.5 -276.5t-275.5 -108.5q-165 0 -276 108.5t-111 276.5q0 81 26 153.5t80 165.5zM80 375q0 -163 108.5 -268t266.5 -105q157 0 265.5 104.5t108.5 268.5t-108.5 268.5 t-265.5 104.5t-266 -105t-109 -268z" />
<glyph unicode="7" horiz-adv-x="778" d="M702 1206h-702v13h717v-11l-539 -1208h-14z" />
<glyph unicode="8" horiz-adv-x="864" d="M432 -10q-160 0 -265.5 90t-105.5 239q0 131 86 219t220 103q-109 19 -177.5 97.5t-68.5 193.5q0 134 89 215.5t222 81.5t222 -81.5t89 -215.5q0 -115 -68 -193.5t-177 -97.5q134 -15 219.5 -103t85.5 -219q0 -149 -105.5 -239t-265.5 -90zM432 647q128 0 213.5 78 t85.5 207t-85.5 207t-213.5 78t-213.5 -78t-85.5 -207t85.5 -207t213.5 -78zM432 2q153 0 256 87t103 230t-103 229.5t-256 86.5t-255.5 -86.5t-102.5 -229.5t102.5 -230t255.5 -87z" />
<glyph unicode="9" horiz-adv-x="909" d="M430 0h-14l309 530l57 107q-50 -81 -134.5 -129.5t-192.5 -48.5q-164 0 -275.5 108t-111.5 277q0 168 111.5 276.5t275.5 108.5q165 0 276 -108.5t111 -276.5q0 -81 -26 -153.5t-81 -166.5zM829 844q0 163 -108 268t-266 105q-157 0 -266 -104.5t-109 -268.5t109 -268.5 t266 -104.5t265.5 105t108.5 268z" />
<glyph unicode=":" d="M143 20q0 9 6 15t15 6q20 0 20 -21q0 -20 -20 -20q-21 0 -21 20zM143 727q0 9 6 15t15 6q20 0 20 -21q0 -20 -20 -20q-21 0 -21 20z" />
<glyph unicode=";" d="M158 47h12q0 -88 -26 -143t-91 -99h-20q70 47 97.5 101t27.5 141zM129 727q0 9 6 15t15 6q20 0 20 -21q0 -20 -20 -20q-21 0 -21 20z" />
<glyph unicode="&#x3c;" horiz-adv-x="632" d="M61 588v16l510 316v-17l-495 -307l495 -307v-17z" />
<glyph unicode="=" horiz-adv-x="843" d="M82 473v12h680v-12h-680zM82 719v12h680v-12h-680z" />
<glyph unicode="&#x3e;" horiz-adv-x="632" d="M571 604v-16l-510 -316v17l496 307l-496 307v17z" />
<glyph unicode="?" horiz-adv-x="741" d="M31 1077v19q47 59 128 96t181 37q169 0 254.5 -94.5t85.5 -241.5q0 -279 -375 -404v-143h-12v154q375 121 375 393q0 139 -83 231.5t-245 92.5q-195 0 -309 -140zM279 20q0 21 20 21t20 -21q0 -20 -20 -20t-20 20z" />
<glyph unicode="@" horiz-adv-x="1570" d="M1104 782v-704q168 52 265 182t97 318q0 263 -171.5 425t-458.5 162q-218 0 -385.5 -94t-257 -257.5t-89.5 -367.5q0 -112 25 -209t69 -170t104.5 -132.5t129.5 -99.5t147 -67t154.5 -39t153.5 -12q241 0 422 78v-14q-177 -76 -422 -76q-111 0 -219.5 24t-214 81 t-184.5 140t-128 211t-49 285q0 208 90.5 373.5t261 262t392.5 96.5q293 0 468 -165.5t175 -434.5q0 -253 -167 -399t-435 -146q-191 0 -311 107t-120 290q0 184 112.5 292.5t303.5 108.5q130 0 242 -49zM1092 74v702q-108 43 -230 43q-185 0 -294 -105.5t-109 -283.5 q0 -177 116 -281t302 -104q109 0 215 29z" />
<glyph unicode="A" horiz-adv-x="1155" d="M938 393h-721l-172 -393h-14l538 1229h17l538 -1229h-14zM932 406l-354 811l-355 -811h709z" />
<glyph unicode="B" horiz-adv-x="931" d="M158 12v1200q139 17 235 17q193 0 297.5 -83t104.5 -235q0 -126 -93 -199.5t-227 -86.5q67 -2 131.5 -20.5t123 -53.5t94.5 -96t36 -138q0 -152 -108.5 -239.5t-345.5 -87.5q-122 0 -248 22zM170 618v-595q119 -21 236 -21q231 0 336.5 84.5t105.5 230.5 q0 76 -36.5 135.5t-99.5 94.5t-140.5 53t-165.5 18h-236zM170 1202v-571h236q100 0 183.5 30t138 95t54.5 155q0 146 -100.5 226t-288.5 80q-92 0 -223 -15z" />
<glyph unicode="C" horiz-adv-x="1132" d="M1059 1106v-14q-74 59 -172 92t-201 33q-164 0 -299 -76t-214 -216t-79 -317t80 -316.5t214.5 -214.5t297.5 -75q107 0 209.5 35.5t179.5 97.5v-14q-163 -131 -389 -131q-125 0 -236 45t-192 124.5t-128.5 196t-47.5 252.5q0 181 81 324t218.5 220t304.5 77 q212 0 373 -123z" />
<glyph unicode="D" horiz-adv-x="1212" d="M158 8v1204q153 17 241 17q187 0 328 -44t228.5 -125t131 -190t43.5 -245q0 -305 -176.5 -470t-535.5 -165q-112 0 -260 18zM170 1200v-1180q113 -18 248 -18q352 0 526 161t174 462q0 134 -43 241.5t-129 186.5t-225 121.5t-322 42.5q-93 0 -229 -17z" />
<glyph unicode="E" horiz-adv-x="905" d="M170 12h643v-12h-655v1219h645v-13h-633v-575h608v-13h-608v-606z" />
<glyph unicode="F" horiz-adv-x="831" d="M170 0h-12v1219h602v-13h-590v-575h565v-13h-565v-618z" />
<glyph unicode="G" horiz-adv-x="1177" d="M1059 1106v-14q-74 59 -172 92t-201 33q-164 0 -299 -76t-214 -216t-79 -317t80 -316.5t214.5 -214.5t297.5 -75q107 0 206.5 31t170.5 88v399h12v-405q-155 -125 -389 -125q-125 0 -236 45t-192 124.5t-128.5 196t-47.5 252.5q0 181 81 324t218.5 220t304.5 77 q212 0 373 -123z" />
<glyph unicode="H" horiz-adv-x="1265" d="M1096 631v588h12v-1219h-12v618h-926v-618h-12v1219h12v-588h926z" />
<glyph unicode="I" d="M170 1219v-1219h-12v1219h12z" />
<glyph unicode="J" horiz-adv-x="665" d="M20 119v18q47 -67 120.5 -101t150.5 -34q126 0 188 75.5t62 205.5v936h12v-936q0 -136 -65.5 -214.5t-196.5 -78.5q-82 0 -156.5 34.5t-114.5 94.5z" />
<glyph unicode="K" horiz-adv-x="946" d="M158 0v1219h12v-1219h-12zM178 621l701 598h18l-700 -598l739 -621h-18z" />
<glyph unicode="L" horiz-adv-x="827" d="M158 0v1219h12v-1207h623v-12h-635z" />
<glyph unicode="M" horiz-adv-x="1536" d="M776 -10h-16l-447 1224l-213 -1214h-14l217 1229h19l446 -1225l446 1225h19l217 -1229h-14l-213 1214z" />
<glyph unicode="N" horiz-adv-x="1232" d="M170 1229l893 -1219v1209h12v-1229h-12l-893 1218v-1208h-12v1229h12z" />
<glyph unicode="O" horiz-adv-x="1363" d="M82 610q0 135 47 251t127.5 196.5t191 126t234.5 45.5t234.5 -45.5t191 -126t127.5 -196.5t47 -251t-47 -251.5t-127.5 -197t-191 -126t-234.5 -45.5t-234.5 45.5t-191 126t-127.5 197t-47 251.5zM1270 610q0 132 -46.5 246t-126 193t-187 123.5t-228.5 44.5 t-228.5 -44.5t-187 -123.5t-126 -193t-46.5 -246q0 -176 79.5 -316t213.5 -216t295 -76t295 76t213.5 216t79.5 316z" />
<glyph unicode="P" horiz-adv-x="854" d="M170 508v-508h-12v1210q126 19 200 19q228 0 338.5 -96t110.5 -265q0 -179 -119.5 -276.5t-329.5 -97.5q-123 0 -188 14zM170 1200v-680q61 -14 188 -14q203 0 320 94.5t117 267.5q0 162 -106.5 255.5t-330.5 93.5q-80 0 -188 -17z" />
<glyph unicode="Q" horiz-adv-x="1363" d="M934 -274l-252 264q-124 0 -234.5 45.5t-191 126t-127.5 197t-47 251.5t47 251t127.5 196.5t191 126t234.5 45.5t234.5 -45.5t191 -126t127.5 -196.5t47 -251q0 -132 -45.5 -247t-123.5 -195.5t-185 -127.5t-228 -50l252 -264h-18zM1270 610q0 132 -46.5 246t-126 193 t-187 123.5t-228.5 44.5t-228.5 -44.5t-187 -123.5t-126 -193t-46.5 -246q0 -176 79.5 -316t213.5 -216t295 -76t295 76t213.5 216t79.5 316z" />
<glyph unicode="R" horiz-adv-x="925" d="M170 528v-528h-12v1210q126 19 200 19q443 0 443 -350q0 -89 -34.5 -158t-92 -110t-127.5 -62t-146 -21l494 -528h-16l-494 528h-215zM170 1200v-659h231q74 0 141 20t123 59.5t89.5 106.5t33.5 152q0 338 -430 338q-80 0 -188 -17z" />
<glyph unicode="S" horiz-adv-x="811" d="M53 117v18q55 -61 138 -97t176 -36q156 0 254 79t98 220q0 36 -10.5 69t-24 57.5t-42.5 50t-50.5 42t-64 39t-66.5 34t-74 34.5q-53 25 -86 41.5t-72.5 41t-62.5 47.5t-44 53.5t-30.5 67t-9.5 80.5q0 127 88 199t221 72q81 0 158.5 -33.5t128.5 -87.5v-16 q-51 56 -129.5 90.5t-157.5 34.5q-127 0 -212 -69t-85 -190q0 -51 16 -93.5t38 -71t66.5 -59t78.5 -48t98 -47.5q49 -22 75.5 -34.5t68 -35t65 -40t52.5 -44t43.5 -52.5t25 -60t10.5 -72q0 -147 -101 -229t-263 -82q-95 0 -177 34.5t-137 92.5z" />
<glyph unicode="T" horiz-adv-x="970" d="M492 1206v-1206h-13v1206h-459v13h930v-13h-458z" />
<glyph unicode="U" horiz-adv-x="1185" d="M131 412v807h12v-807q0 -96 24.5 -168.5t66 -118t105 -73.5t133.5 -39t159 -11q187 0 385 41v1176h12v-1186q-228 -43 -397 -43q-93 0 -166 11.5t-137 41t-106.5 76.5t-66.5 121t-24 172z" />
<glyph unicode="V" horiz-adv-x="1155" d="M586 -10h-17l-538 1229h14l533 -1217l532 1217h14z" />
<glyph unicode="W" horiz-adv-x="1548" d="M766 1229h16l365 -1227l336 1217h14l-340 -1229h-20l-363 1222l-362 -1222h-21l-340 1229h15l335 -1217z" />
<glyph unicode="X" horiz-adv-x="1003" d="M932 1219l-420 -588l461 -631h-17l-454 621l-455 -621h-16l461 631l-420 588h16l414 -580l413 580h17z" />
<glyph unicode="Y" horiz-adv-x="987" d="M494 504l448 715h14l-456 -730v-489h-13v489l-456 730h14z" />
<glyph unicode="Z" horiz-adv-x="948" d="M68 1206v13h825v-11l-834 -1196h848v-12h-864v10l834 1196h-809z" />
<glyph unicode="[" horiz-adv-x="569" d="M217 1380v-1650h260v-13h-272v1676h272v-13h-260z" />
<glyph unicode="\" horiz-adv-x="739" d="M43 1393l684 -1676h-12l-684 1676h12z" />
<glyph unicode="]" horiz-adv-x="579" d="M362 -270v1650h-260v13h273v-1676h-273v13h260z" />
<glyph unicode="^" horiz-adv-x="663" d="M338 1219l264 -463h-16l-254 448l-254 -448h-17l265 463h12z" />
<glyph unicode="_" horiz-adv-x="823" d="M102 -190v12h619v-12h-619z" />
<glyph unicode="`" horiz-adv-x="1024" d="M606 1051h-14l-174 311h14z" />
<glyph unicode="a" horiz-adv-x="776" d="M641 485v154q0 252 -238 252q-124 0 -249 -64v13q120 63 249 63q250 0 250 -264v-625q-120 -24 -223 -24q-170 0 -267 65t-97 185q0 65 36.5 113t101.5 76.5t145 42t175 13.5h117zM641 25v448h-117q-90 0 -167 -12.5t-141 -39t-101 -73t-37 -108.5q0 -113 93.5 -175.5 t258.5 -62.5q84 0 211 23z" />
<glyph unicode="b" horiz-adv-x="993" d="M147 53v1340h13v-570q49 33 130 56.5t163 23.5q117 0 208.5 -35.5t147.5 -98t84.5 -142t28.5 -172.5t-28.5 -175t-84.5 -147.5t-147.5 -104t-208.5 -38.5q-200 0 -306 63zM160 809v-748q104 -59 293 -59q113 0 202.5 37.5t143.5 102t82 144t28 169.5q0 89 -28 166.5 t-82 138.5t-143 96t-203 35q-80 0 -160 -23.5t-133 -58.5z" />
<glyph unicode="c" horiz-adv-x="856" d="M788 805v-14q-127 100 -276 100q-187 0 -307.5 -122.5t-120.5 -322.5q0 -199 120.5 -321.5t307.5 -122.5q165 0 289 100v-14q-121 -98 -289 -98q-192 0 -316 127t-124 329q0 204 124 330.5t316 126.5q156 0 276 -98z" />
<glyph unicode="d" horiz-adv-x="993" d="M846 1393v-1340q-106 -63 -305 -63q-117 0 -208.5 38.5t-147.5 104t-84.5 147.5t-28.5 175t28.5 172.5t84.5 142t147.5 98t208.5 35.5q82 0 163 -23.5t130 -56.5v570h12zM834 61v748q-53 35 -133 58.5t-160 23.5q-114 0 -203 -35t-143.5 -96t-82.5 -138.5t-28 -166.5 q0 -90 28 -169.5t82.5 -144t144 -102t202.5 -37.5q189 0 293 59z" />
<glyph unicode="e" horiz-adv-x="925" d="M860 473h-776v-18q0 -204 116.5 -328.5t299.5 -124.5q180 0 305 98v-14q-119 -96 -305 -96q-189 0 -308.5 127.5t-119.5 337.5q0 198 116.5 323t298.5 125q98 0 171.5 -34t116.5 -93.5t64 -132.5t21 -158v-12zM84 485h764q0 81 -20 151.5t-61 128.5t-113 92t-167 34 q-173 0 -282.5 -115t-120.5 -291z" />
<glyph unicode="f" horiz-adv-x="417" d="M168 881v-881h-12v881h-121v12h121v287q0 225 194 225q89 0 156 -53v-15q-70 56 -156 56q-182 0 -182 -213v-287h256v-12h-256z" />
<glyph unicode="g" horiz-adv-x="983" d="M834 0v61q-119 -61 -293 -61q-117 0 -208.5 36.5t-147.5 100.5t-84.5 144.5t-28.5 173.5t28.5 172.5t84.5 142t147.5 98t208.5 35.5q89 0 172.5 -23.5t132.5 -56.5v-823q0 -204 -91 -291.5t-288 -87.5q-72 0 -147.5 18.5t-126.5 47.5v14q129 -68 274 -68q191 0 279 84 t88 283zM834 76v739q-49 32 -130 54t-163 22q-114 0 -203 -35t-143.5 -96t-82.5 -138.5t-28 -166.5t28 -167.5t82.5 -141t143.5 -98.5t203 -36q79 0 160 17.5t133 46.5z" />
<glyph unicode="h" horiz-adv-x="989" d="M147 0v1393h13v-555q81 30 181 47.5t179 17.5q155 0 242.5 -72.5t87.5 -220.5v-610h-12v610q0 141 -85.5 211t-232.5 70q-92 0 -196 -21.5t-164 -46.5v-823h-13z" />
<glyph unicode="i" horiz-adv-x="307" d="M160 893v-893h-13v893h13zM154 1169q-9 0 -15 6t-6 15q0 20 21 20q20 0 20 -20q0 -21 -20 -21z" />
<glyph unicode="j" horiz-adv-x="307" d="M147 -195v1088h13v-1088q0 -99 -40.5 -141.5t-117.5 -42.5q-81 0 -131 43v17q58 -48 131 -48q72 0 108.5 39.5t36.5 132.5zM154 1169q-9 0 -15 6t-6 15q0 20 21 20q20 0 20 -20q0 -21 -20 -21z" />
<glyph unicode="k" horiz-adv-x="794" d="M776 0l-604 483l569 410h21l-569 -410l602 -483h-19zM160 1393v-1393h-13v1393h13z" />
<glyph unicode="l" horiz-adv-x="307" d="M160 1393v-1393h-13v1393h13z" />
<glyph unicode="m" horiz-adv-x="1519" d="M1368 0v610q0 281 -287 281q-163 0 -348 -90q51 -77 51 -191v-610h-12v610q0 79 -24 136t-66 87.5t-90.5 44t-106.5 13.5q-167 0 -325 -66v-825h-13v834q170 69 338 69q155 0 240 -92q191 92 356 92q150 0 224.5 -71.5t74.5 -221.5v-610h-12z" />
<glyph unicode="n" horiz-adv-x="989" d="M147 0v834q80 32 184.5 50.5t188.5 18.5q155 0 242.5 -72.5t87.5 -220.5v-610h-12v610q0 141 -85.5 211t-232.5 70q-93 0 -197 -20.5t-163 -45.5v-825h-13z" />
<glyph unicode="o" horiz-adv-x="1003" d="M72 446q0 201 122 329t308 128t308 -128t122 -329t-122 -328.5t-308 -127.5t-308 127.5t-122 328.5zM920 446q0 195 -118.5 320t-299.5 125t-299.5 -125t-118.5 -320t118.5 -319.5t299.5 -124.5t299.5 124.5t118.5 319.5z" />
<glyph unicode="p" horiz-adv-x="993" d="M147 -369v1192q49 33 133 56.5t173 23.5q117 0 208.5 -35.5t147.5 -98t84.5 -142t28.5 -172.5t-28.5 -175t-84.5 -147.5t-147.5 -104t-208.5 -38.5q-174 0 -293 61v-420h-13zM160 815v-749q52 -29 133 -46.5t160 -17.5q113 0 202.5 37.5t143.5 102t82 144t28 169.5 q0 89 -28 166.5t-82 138.5t-143 96t-203 35q-82 0 -163 -22t-130 -54z" />
<glyph unicode="q" horiz-adv-x="983" d="M846 823v-1192h-12v420q-119 -61 -293 -61q-117 0 -208.5 38.5t-147.5 104t-84.5 147.5t-28.5 175t28.5 172.5t84.5 142t147.5 98t208.5 35.5q89 0 172.5 -23.5t132.5 -56.5zM834 66v749q-49 32 -130 54t-163 22q-114 0 -203 -35t-143.5 -96t-82.5 -138.5t-28 -166.5 q0 -90 28 -169.5t82.5 -144t144 -102t202.5 -37.5q79 0 160 17.5t133 46.5z" />
<glyph unicode="r" horiz-adv-x="550" d="M160 799v-799h-13v805q58 44 137.5 69t164.5 25q31 0 81 -4v-12q-50 4 -81 4q-79 0 -156.5 -24t-132.5 -64z" />
<glyph unicode="s" horiz-adv-x="653" d="M41 102v17q101 -117 268 -117q114 0 188 56.5t74 158.5q0 40 -15.5 73.5t-36.5 55.5t-61 44.5t-68.5 34.5t-80.5 32q-62 23 -101.5 42.5t-75.5 48t-52.5 65.5t-16.5 85q0 94 68 149.5t172 55.5q141 0 242 -94v-16q-101 98 -242 98q-98 0 -162.5 -51t-64.5 -142 q0 -47 16.5 -82.5t52 -62t71.5 -44.5t95 -40q51 -18 83.5 -32t72.5 -37t62.5 -47t38.5 -59t16 -77q0 -109 -77 -168t-198 -59q-90 0 -159.5 32t-108.5 80z" />
<glyph unicode="t" horiz-adv-x="530" d="M31 881v12h121v201h12v-201h299v-12h-299v-682q0 -109 43.5 -153t126.5 -44q99 0 176 47v-12q-32 -21 -81.5 -34t-94.5 -13q-90 0 -136 47t-46 162v682h-121z" />
<glyph unicode="u" horiz-adv-x="958" d="M811 893v-848q-149 -55 -342 -55q-163 0 -251.5 72.5t-88.5 220.5v610h12v-610q0 -144 86 -212.5t242 -68.5q190 0 330 51v840h12z" />
<glyph unicode="v" horiz-adv-x="864" d="M440 -6h-16l-404 899h15l397 -887l397 887h15z" />
<glyph unicode="w" horiz-adv-x="1218" d="M616 903l293 -895l273 885h14l-278 -899h-17l-293 897l-293 -897h-16l-279 899h15l272 -885l293 895h16z" />
<glyph unicode="x" horiz-adv-x="786" d="M745 893l-344 -438l365 -455h-16l-357 444l-356 -444h-17l365 455l-344 438h14l338 -428l338 428h14z" />
<glyph unicode="y" horiz-adv-x="864" d="M35 893l395 -883l399 883h15l-572 -1262h-14l164 365l-402 897h15z" />
<glyph unicode="z" horiz-adv-x="753" d="M719 12v-12h-684v10l651 871h-625v12h641v-10l-649 -871h666z" />
<glyph unicode="{" horiz-adv-x="653" d="M291 1110v-328q0 -106 -47.5 -165t-106.5 -62q59 -3 106.5 -62t47.5 -165v-328q0 -135 60 -202.5t194 -67.5h26v-13h-26q-141 0 -203.5 71t-62.5 212v328q0 107 -50 164t-118 57h-70v12h70q68 0 118 57t50 164v328q0 141 62.5 212t203.5 71h26v-13h-26q-134 0 -194 -67.5 t-60 -202.5z" />
<glyph unicode="|" horiz-adv-x="380" d="M184 -283v1676h13v-1676h-13z" />
<glyph unicode="}" horiz-adv-x="653" d="M362 0v328q0 106 47.5 165t106.5 62q-59 3 -106.5 62t-47.5 165v328q0 135 -59.5 202.5t-193.5 67.5h-27v13h27q141 0 203.5 -71t62.5 -212v-328q0 -107 50 -164t118 -57h69v-12h-69q-68 0 -118 -57t-50 -164v-328q0 -141 -62.5 -212t-203.5 -71h-27v13h27 q134 0 193.5 67.5t59.5 202.5z" />
<glyph unicode="~" horiz-adv-x="702" d="M618 598h13q0 -66 -35.5 -109t-101.5 -43q-37 0 -68.5 15t-54.5 37l-46 44t-52.5 37t-63.5 15q-61 0 -93 -39t-32 -100h-12q0 66 35.5 108.5t101.5 42.5q36 0 67 -15t54 -37t46 -43.5t53 -36.5t65 -15q61 0 92.5 39t31.5 100z" />
<glyph unicode="&#xa1;" d="M170 547v-873h-12v873h12zM143 872q0 9 6 15t15 6q20 0 20 -21q0 -20 -20 -20q-21 0 -21 20z" />
<glyph unicode="&#xa2;" horiz-adv-x="856" d="M518 1081v-178q153 -3 270 -98v-14q-124 97 -270 100v-889q160 3 283 100v-14q-118 -95 -283 -98v-185h-12v185q-189 2 -311.5 128.5t-122.5 327.5q0 202 122.5 328.5t311.5 128.5v178h12zM506 2v889q-184 -2 -303 -124.5t-119 -320.5q0 -197 119 -319.5t303 -124.5z" />
<glyph unicode="&#xa3;" horiz-adv-x="833" d="M201 584h-146v12h146v258q0 178 83 276.5t236 98.5q161 0 256 -113v-16q-96 117 -256 117q-147 0 -227 -96t-80 -267v-258h360v-12h-360v-172q0 -132 -37 -222.5t-121 -177.5h756v-12h-770v12q87 93 123.5 180.5t36.5 219.5v172z" />
<glyph unicode="&#xa4;" horiz-adv-x="897" d="M102 285l109 108q-86 92 -86 230t86 227l-107 108l9 9l106 -109q93 90 230 90t227 -90l110 111l9 -8l-111 -111q88 -88 88 -227t-88 -230l109 -106l-9 -8l-108 106q-91 -88 -227 -88t-230 88l-108 -109zM137 623q0 -137 90.5 -225.5t221.5 -88.5t221 88.5t90 225.5 t-90 225t-221 88t-221.5 -88t-90.5 -225z" />
<glyph unicode="&#xa5;" horiz-adv-x="884" d="M432 537l-412 682h15l407 -676l408 676h14l-411 -682h266v-13h-270v-151h270v-13h-270v-360h-13v360h-270v13h270v151h-270v13h266z" />
<glyph unicode="&#xa6;" horiz-adv-x="380" d="M184 694v699h13v-699h-13zM184 -283v699h13v-699h-13z" />
<glyph unicode="&#xa7;" horiz-adv-x="772" d="M164 -98v16q101 -98 242 -98q97 0 160 52.5t63 143.5q0 22 -4.5 41t-10 34.5t-18.5 31.5t-23 27t-31.5 25t-34 22.5t-41.5 22.5t-44 21t-49 23q-72 33 -114.5 54.5t-85.5 49t-64 54t-34.5 61t-13.5 76.5q0 101 64.5 168t155.5 90q-76 41 -113 87t-37 116q0 95 66.5 152 t169.5 57q140 0 241 -94v-17q-102 99 -241 99q-97 0 -160.5 -53t-63.5 -144q0 -22 4.5 -41t10 -34.5t18.5 -31.5t23 -27t31.5 -25t34 -22.5t41.5 -22.5t44 -21t49 -23q72 -33 114.5 -54.5t85.5 -49t64 -54t34.5 -61t13.5 -76.5q0 -101 -64 -168t-155 -90q76 -41 112.5 -87 t36.5 -116q0 -95 -66 -152t-169 -57q-140 0 -242 95zM698 477q0 40 -12.5 72.5t-33 58t-61.5 52t-82.5 47.5t-111.5 53q-12 6 -48 23t-54 26q-89 -19 -155 -84.5t-66 -165.5q0 -40 12.5 -72.5t33 -58t61.5 -52t82.5 -47.5t111.5 -53q12 -6 48 -23t54 -26q89 19 155 84.5 t66 165.5z" />
<glyph unicode="&#xa8;" horiz-adv-x="1024" d="M369 1169q-9 0 -15 6t-6 15q0 20 21 20q20 0 20 -20q0 -21 -20 -21zM655 1169q-20 0 -20 21q0 20 20 20q21 0 21 -20q0 -9 -6 -15t-15 -6z" />
<glyph unicode="&#xa9;" horiz-adv-x="1411" d="M92 608q0 173 79 315t220 224t316 82q174 0 314.5 -82t219 -224t78.5 -315q0 -172 -78.5 -313.5t-219 -223t-314.5 -81.5q-175 0 -316 81.5t-220 223t-79 313.5zM104 608q0 -169 77 -307.5t215.5 -218.5t310.5 -80q171 0 309 80t214.5 218.5t76.5 307.5q0 170 -77 309.5 t-214.5 219.5t-308.5 80q-172 0 -310.5 -80t-215.5 -219.5t-77 -309.5zM965 311v-14q-105 -78 -236 -78q-161 0 -270 108.5t-109 280.5t109 280.5t270 108.5q132 0 236 -77v-15q-104 80 -236 80q-156 0 -261.5 -105.5t-105.5 -271.5t105.5 -271.5t261.5 -105.5q132 0 236 80 z" />
<glyph unicode="&#xaa;" horiz-adv-x="628" d="M514 893v123q0 201 -190 201q-100 0 -201 -52v13q94 51 201 51q202 0 202 -213v-502q-92 -20 -182 -20q-136 0 -214.5 52.5t-78.5 147.5q0 69 51.5 115t130.5 65t181 19h100zM514 524v357h-100q-98 0 -174.5 -18.5t-126.5 -61.5t-50 -107q0 -90 75 -139t206 -49 q89 0 170 18z" />
<glyph unicode="&#xab;" horiz-adv-x="630" d="M348 764l-252 -324l252 -323h-14l-252 323l252 324h14zM549 764l-252 -324l252 -323h-14l-252 323l252 324h14z" />
<glyph unicode="&#xad;" horiz-adv-x="727" d="M131 526v13h465v-13h-465z" />
<glyph unicode="&#xae;" horiz-adv-x="931" d="M465 453q-165 0 -274 111.5t-109 275.5q0 165 109 277t274 112q166 0 275.5 -112t109.5 -277q0 -164 -109.5 -275.5t-275.5 -111.5zM465 465q162 0 267.5 107.5t105.5 267.5q0 161 -105.5 269t-267.5 108q-160 0 -265.5 -108t-105.5 -269q0 -159 105.5 -267t265.5 -108z M379 807v-174h-12v414q40 6 65 6q76 0 115 -32t39 -91q0 -53 -35 -84.5t-84 -36.5l160 -176h-17l-157 174h-74zM379 1036v-219h65q54 0 91.5 30t37.5 83q0 110 -141 110q-25 0 -53 -4z" />
<glyph unicode="&#xaf;" horiz-adv-x="1024" d="M334 1147v12h354v-12h-354z" />
<glyph unicode="&#xb0;" horiz-adv-x="512" d="M51 1024q0 86 58.5 144.5t146.5 58.5t146.5 -58.5t58.5 -144.5t-58.5 -144.5t-146.5 -58.5t-146.5 58.5t-58.5 144.5zM63 1024q0 -82 55 -136t138 -54t138 54t55 136t-55 136t-138 54t-138 -54t-55 -136z" />
<glyph unicode="&#xb1;" horiz-adv-x="843" d="M416 680h-334v12h334v273h12v-273h334v-12h-334v-272h-12v272zM82 270v13h680v-13h-680z" />
<glyph unicode="&#xb2;" horiz-adv-x="403" d="M27 612h350v-12h-371v10q145 101 238.5 222t93.5 221q0 67 -38.5 112t-111.5 45q-93 0 -168 -82v17q71 78 168 78q78 0 120 -48.5t42 -121.5q0 -103 -94 -225.5t-229 -215.5z" />
<glyph unicode="&#xb3;" horiz-adv-x="401" d="M18 1139v16q72 68 164 68q81 0 122.5 -41.5t41.5 -106.5q0 -64 -47 -107.5t-111 -49.5q67 -2 122 -44t55 -112q0 -75 -52 -121.5t-149 -46.5q-42 0 -85 14t-67 35v14q60 -51 152 -51q90 0 139 42.5t49 113.5q0 68 -55 107.5t-143 41.5v13q77 2 128.5 44.5t51.5 106.5 q0 60 -39 97.5t-113 37.5q-90 0 -164 -71z" />
<glyph unicode="&#xb4;" horiz-adv-x="1024" d="M432 1051h-14l174 311h14z" />
<glyph unicode="&#xb5;" horiz-adv-x="958" d="M129 -369v1262h12v-610q0 -144 86 -212.5t242 -68.5q190 0 330 51v840h12v-848q-149 -55 -342 -55q-274 0 -328 194v-553h-12z" />
<glyph unicode="&#xb6;" horiz-adv-x="641" d="M471 -217v1436h12v-1436h-12zM326 -217v969q-129 0 -207 61.5t-78 171.5t78 172t207 62h12v-1436h-12z" />
<glyph unicode="&#xb7;" d="M143 535q0 20 21 20q20 0 20 -20q0 -21 -20 -21q-9 0 -15 6t-6 15z" />
<glyph unicode="&#xb8;" horiz-adv-x="1024" d="M580 0h12q0 -88 -38.5 -167.5t-102.5 -135.5h-19q70 59 109 137.5t39 165.5z" />
<glyph unicode="&#xb9;" horiz-adv-x="268" d="M2 1178v12l164 33v-623h-12v608z" />
<glyph unicode="&#xba;" horiz-adv-x="794" d="M51 860q0 163 98 266t248 103t248 -103t98 -266q0 -162 -98 -264t-248 -102t-248 102t-98 264zM731 860q0 159 -94 258t-240 99t-240 -99t-94 -258q0 -157 94 -255.5t240 -98.5t240 98.5t94 255.5z" />
<glyph unicode="&#xbb;" horiz-adv-x="630" d="M334 440l-252 324h14l252 -324l-252 -323h-14zM535 440l-252 324h14l252 -324l-252 -323h-14z" />
<glyph unicode="&#xbc;" horiz-adv-x="972" d="M766 625v-432h125v-13h-125v-180h-12v180h-340v13l338 432h14zM754 608l-326 -415h326v415zM61 1178v12l164 33v-623h-12v608zM76 0l690 1219h14l-690 -1219h-14z" />
<glyph unicode="&#xbd;" horiz-adv-x="1026" d="M61 1178v12l164 33v-623h-12v608zM594 12h350v-12h-371v10q145 101 238.5 222t93.5 221q0 67 -38 112t-111 45q-93 0 -168 -82v17q71 78 168 78q78 0 120 -48.5t42 -121.5q0 -102 -94.5 -225t-229.5 -216zM76 0l690 1219h14l-690 -1219h-14z" />
<glyph unicode="&#xbe;" horiz-adv-x="1107" d="M98 1139v16q72 68 164 68q81 0 122.5 -41.5t41.5 -106.5q0 -64 -47 -107.5t-111 -49.5q67 -2 121.5 -44t54.5 -112q0 -75 -52 -121.5t-148 -46.5q-42 0 -85 14t-67 35v14q60 -51 152 -51q90 0 139 42.5t49 113.5q0 68 -55.5 107.5t-143.5 41.5v13q77 2 129 44.5t52 106.5 q0 60 -39 97.5t-113 37.5q-90 0 -164 -71zM901 625v-432h125v-13h-125v-180h-12v180h-340v13l338 432h14zM889 608l-326 -415h326v415zM211 0l690 1219h14l-690 -1219h-14z" />
<glyph unicode="&#xbf;" horiz-adv-x="741" d="M711 -184v-19q-47 -59 -128.5 -96t-181.5 -37q-169 0 -254.5 94.5t-85.5 241.5q0 278 375 403v144h13v-154q-375 -121 -375 -393q0 -140 82.5 -232t244.5 -92q196 0 310 140zM463 872q0 -20 -21 -20q-20 0 -20 20q0 21 20 21q9 0 15 -6t6 -15z" />
<glyph unicode="&#xc0;" horiz-adv-x="1155" d="M938 393h-721l-172 -393h-14l538 1229h17l538 -1229h-14zM932 406l-354 811l-355 -811h709zM586 1325h-15l-149 268h14z" />
<glyph unicode="&#xc1;" horiz-adv-x="1155" d="M938 393h-721l-172 -393h-14l538 1229h17l538 -1229h-14zM932 406l-354 811l-355 -811h709zM584 1325h-15l150 268h14z" />
<glyph unicode="&#xc2;" horiz-adv-x="1155" d="M938 393h-721l-172 -393h-14l538 1229h17l538 -1229h-14zM932 406l-354 811l-355 -811h709zM580 1583l200 -270h-14l-188 254l-189 -254h-14l200 270h5z" />
<glyph unicode="&#xc3;" horiz-adv-x="1155" d="M938 393h-721l-172 -393h-14l538 1229h17l538 -1229h-14zM932 406l-354 811l-355 -811h709zM780 1466h13q0 -66 -27.5 -108.5t-77.5 -42.5q-28 0 -52.5 15t-42.5 36.5t-36 43.5t-40.5 37t-47.5 15q-44 0 -68 -39.5t-24 -99.5h-12q0 66 27 109t77 43q28 0 52 -15t42 -37 t35.5 -44t40.5 -37t49 -15q44 0 68 39.5t24 99.5z" />
<glyph unicode="&#xc4;" horiz-adv-x="1155" d="M938 393h-721l-172 -393h-14l538 1229h17l538 -1229h-14zM932 406l-354 811l-355 -811h709zM434 1362q-20 0 -20 20q0 21 20 21q9 0 15 -6t6 -15q0 -20 -21 -20zM721 1362q-21 0 -21 20q0 9 6 15t15 6q20 0 20 -21q0 -20 -20 -20z" />
<glyph unicode="&#xc5;" horiz-adv-x="1155" d="M938 393h-721l-172 -393h-14l538 1229h17l538 -1229h-14zM932 406l-354 811l-355 -811h709zM436 1411q0 61 41.5 101t100.5 40t100 -40t41 -101t-41 -101t-100 -40t-100.5 40t-41.5 101zM707 1411q0 55 -37.5 92t-91.5 37t-91.5 -37t-37.5 -92t37.5 -92t91.5 -37t91.5 37 t37.5 92z" />
<glyph unicode="&#xc6;" horiz-adv-x="1628" d="M317 393l-270 -393h-16l841 1219h654v-13h-633v-575h608v-13h-608v-606h643v-12h-655v393h-564zM328 406h553v802z" />
<glyph unicode="&#xc7;" horiz-adv-x="1132" d="M545 -303h-19q142 120 148 293q-123 2 -231.5 48t-188.5 125.5t-126 194.5t-46 250q0 181 81 324t218.5 220t304.5 77q212 0 373 -123v-14q-74 59 -172 92t-201 33q-164 0 -299 -76t-214 -216t-79 -317t80 -316.5t214.5 -214.5t297.5 -75q107 0 209.5 35.5t179.5 97.5 v-14q-163 -131 -389 -131q-3 -85 -41 -162t-100 -131z" />
<glyph unicode="&#xc8;" horiz-adv-x="905" d="M170 12h643v-12h-655v1219h645v-13h-633v-575h608v-13h-608v-606zM502 1325h-15l-149 268h14z" />
<glyph unicode="&#xc9;" horiz-adv-x="905" d="M170 12h643v-12h-655v1219h645v-13h-633v-575h608v-13h-608v-606zM500 1325h-15l150 268h14z" />
<glyph unicode="&#xca;" horiz-adv-x="905" d="M170 12h643v-12h-655v1219h645v-13h-633v-575h608v-13h-608v-606zM496 1583l200 -270h-14l-188 254l-189 -254h-14l201 270h4z" />
<glyph unicode="&#xcb;" horiz-adv-x="905" d="M170 12h643v-12h-655v1219h645v-13h-633v-575h608v-13h-608v-606zM350 1362q-20 0 -20 20q0 21 20 21q9 0 15 -6t6 -15q0 -20 -21 -20zM637 1362q-21 0 -21 20q0 9 6 15t15 6q20 0 20 -21q0 -20 -20 -20z" />
<glyph unicode="&#xcc;" d="M170 1219v-1219h-12v1219h12zM172 1325h-14l-150 268h15z" />
<glyph unicode="&#xcd;" d="M170 1219v-1219h-12v1219h12zM170 1325h-14l149 268h14z" />
<glyph unicode="&#xce;" d="M170 1219v-1219h-12v1219h12zM166 1583l201 -270h-15l-188 254l-189 -254h-14l201 270h4z" />
<glyph unicode="&#xcf;" d="M170 1219v-1219h-12v1219h12zM20 1362q-20 0 -20 20q0 21 20 21q9 0 15 -6t6 -15q0 -20 -21 -20zM307 1362q-20 0 -20 20q0 21 20 21q9 0 15 -6t6 -15q0 -20 -21 -20z" />
<glyph unicode="&#xd0;" horiz-adv-x="1228" d="M174 618h-133v13h133v581q153 17 242 17q187 0 328 -44t228.5 -125t131 -190t43.5 -245q0 -305 -177 -470t-536 -165q-112 0 -260 18v610zM186 618v-598q113 -18 248 -18q353 0 527 161t174 462q0 134 -43 241.5t-129 186.5t-225 121.5t-322 42.5q-94 0 -230 -17v-569 h332v-13h-332z" />
<glyph unicode="&#xd1;" horiz-adv-x="1232" d="M170 1229l893 -1219v1209h12v-1229h-12l-893 1218v-1208h-12v1229h12zM819 1466h12q0 -66 -27 -108.5t-77 -42.5q-28 0 -52.5 15t-42.5 36.5t-36 43.5t-40.5 37t-47.5 15q-44 0 -68 -39.5t-24 -99.5h-13q0 66 27.5 109t77.5 43q28 0 52 -15t42 -37t35.5 -44t40.5 -37 t49 -15q44 0 68 39.5t24 99.5z" />
<glyph unicode="&#xd2;" horiz-adv-x="1363" d="M82 610q0 135 47 251t127.5 196.5t191 126t234.5 45.5t234.5 -45.5t191 -126t127.5 -196.5t47 -251t-47 -251.5t-127.5 -197t-191 -126t-234.5 -45.5t-234.5 45.5t-191 126t-127.5 197t-47 251.5zM1270 610q0 132 -46.5 246t-126 193t-187 123.5t-228.5 44.5 t-228.5 -44.5t-187 -123.5t-126 -193t-46.5 -246q0 -176 79.5 -316t213.5 -216t295 -76t295 76t213.5 216t79.5 316zM690 1325h-14l-150 268h15z" />
<glyph unicode="&#xd3;" horiz-adv-x="1363" d="M82 610q0 135 47 251t127.5 196.5t191 126t234.5 45.5t234.5 -45.5t191 -126t127.5 -196.5t47 -251t-47 -251.5t-127.5 -197t-191 -126t-234.5 -45.5t-234.5 45.5t-191 126t-127.5 197t-47 251.5zM1270 610q0 132 -46.5 246t-126 193t-187 123.5t-228.5 44.5 t-228.5 -44.5t-187 -123.5t-126 -193t-46.5 -246q0 -176 79.5 -316t213.5 -216t295 -76t295 76t213.5 216t79.5 316zM688 1325h-14l149 268h15z" />
<glyph unicode="&#xd4;" horiz-adv-x="1363" d="M82 610q0 135 47 251t127.5 196.5t191 126t234.5 45.5t234.5 -45.5t191 -126t127.5 -196.5t47 -251t-47 -251.5t-127.5 -197t-191 -126t-234.5 -45.5t-234.5 45.5t-191 126t-127.5 197t-47 251.5zM1270 610q0 132 -46.5 246t-126 193t-187 123.5t-228.5 44.5 t-228.5 -44.5t-187 -123.5t-126 -193t-46.5 -246q0 -176 79.5 -316t213.5 -216t295 -76t295 76t213.5 216t79.5 316zM684 1583l201 -270h-15l-188 254l-188 -254h-15l201 270h4z" />
<glyph unicode="&#xd5;" horiz-adv-x="1363" d="M82 610q0 135 47 251t127.5 196.5t191 126t234.5 45.5t234.5 -45.5t191 -126t127.5 -196.5t47 -251t-47 -251.5t-127.5 -197t-191 -126t-234.5 -45.5t-234.5 45.5t-191 126t-127.5 197t-47 251.5zM1270 610q0 132 -46.5 246t-126 193t-187 123.5t-228.5 44.5 t-228.5 -44.5t-187 -123.5t-126 -193t-46.5 -246q0 -176 79.5 -316t213.5 -216t295 -76t295 76t213.5 216t79.5 316zM885 1466h12q0 -66 -27 -108.5t-77 -42.5q-28 0 -52.5 15t-43 36.5t-36 43.5t-40.5 37t-48 15q-44 0 -68 -39.5t-24 -99.5h-12q0 66 27 109t77 43 q28 0 52 -15t42 -37l36 -44t41 -37t49 -15q44 0 68 39.5t24 99.5z" />
<glyph unicode="&#xd6;" horiz-adv-x="1363" d="M82 610q0 135 47 251t127.5 196.5t191 126t234.5 45.5t234.5 -45.5t191 -126t127.5 -196.5t47 -251t-47 -251.5t-127.5 -197t-191 -126t-234.5 -45.5t-234.5 45.5t-191 126t-127.5 197t-47 251.5zM1270 610q0 132 -46.5 246t-126 193t-187 123.5t-228.5 44.5 t-228.5 -44.5t-187 -123.5t-126 -193t-46.5 -246q0 -176 79.5 -316t213.5 -216t295 -76t295 76t213.5 216t79.5 316zM539 1362q-21 0 -21 20q0 9 6 15t15 6q20 0 20 -21q0 -20 -20 -20zM825 1362q-20 0 -20 20q0 21 20 21q9 0 15 -6t6 -15q0 -20 -21 -20z" />
<glyph unicode="&#xd7;" horiz-adv-x="679" d="M332 600l-250 254l8 8l250 -254l250 254l8 -8l-250 -254l250 -254l-8 -8l-250 254l-250 -254l-8 8z" />
<glyph unicode="&#xd8;" horiz-adv-x="1363" d="M1282 1219l-166 -172q166 -177 166 -437q0 -135 -47 -251.5t-127.5 -197t-191 -126t-234.5 -45.5q-255 0 -426 174l-158 -164h-16l166 172q-166 177 -166 436q0 135 47 251.5t127.5 197t191 126.5t234.5 46q255 0 426 -174l158 164h16zM1108 1038l-844 -866 q80 -80 189 -125t229 -45q161 0 295 76t213.5 216t79.5 316q0 256 -162 428zM256 180l844 867q-80 80 -189 125t-229 45t-228 -45t-187.5 -124t-126 -193.5t-46.5 -246.5q0 -256 162 -428z" />
<glyph unicode="&#xd9;" horiz-adv-x="1185" d="M131 412v807h12v-807q0 -96 24.5 -168.5t66 -118t105 -73.5t133.5 -39t159 -11q187 0 385 41v1176h12v-1186q-228 -43 -397 -43q-93 0 -166 11.5t-137 41t-106.5 76.5t-66.5 121t-24 172zM588 1325h-15l-149 268h14z" />
<glyph unicode="&#xda;" horiz-adv-x="1185" d="M131 412v807h12v-807q0 -96 24.5 -168.5t66 -118t105 -73.5t133.5 -39t159 -11q187 0 385 41v1176h12v-1186q-228 -43 -397 -43q-93 0 -166 11.5t-137 41t-106.5 76.5t-66.5 121t-24 172zM586 1325h-15l150 268h14z" />
<glyph unicode="&#xdb;" horiz-adv-x="1185" d="M131 412v807h12v-807q0 -96 24.5 -168.5t66 -118t105 -73.5t133.5 -39t159 -11q187 0 385 41v1176h12v-1186q-228 -43 -397 -43q-93 0 -166 11.5t-137 41t-106.5 76.5t-66.5 121t-24 172zM582 1583l200 -270h-14l-188 254l-189 -254h-14l201 270h4z" />
<glyph unicode="&#xdc;" horiz-adv-x="1185" d="M131 412v807h12v-807q0 -96 24.5 -168.5t66 -118t105 -73.5t133.5 -39t159 -11q187 0 385 41v1176h12v-1186q-228 -43 -397 -43q-93 0 -166 11.5t-137 41t-106.5 76.5t-66.5 121t-24 172zM455 1362q-21 0 -21 20q0 9 6 15t15 6q20 0 20 -21q0 -20 -20 -20zM741 1362 q-20 0 -20 20q0 21 20 21q9 0 15 -6t6 -15q0 -20 -21 -20z" />
<glyph unicode="&#xdd;" horiz-adv-x="987" d="M494 504l448 715h14l-456 -730v-489h-13v489l-456 730h14zM500 1325h-15l150 268h14z" />
<glyph unicode="&#xde;" horiz-adv-x="854" d="M170 268v-268h-12v1219h12v-246q106 16 188 16q228 0 338.5 -96t110.5 -264q0 -179 -119.5 -277t-329.5 -98q-123 0 -188 14zM170 961v-680q66 -15 188 -15q203 0 320 95t117 268q0 162 -106.5 255t-330.5 93q-86 0 -188 -16z" />
<glyph unicode="&#xdf;" horiz-adv-x="962" d="M147 0v1083q0 145 80.5 235.5t225.5 90.5q120 0 198 -69.5t78 -188.5q0 -46 -21.5 -90t-51.5 -78t-60.5 -66.5t-52 -69t-21.5 -71.5q0 -42 21 -78t55 -63t75 -53.5t82.5 -56t75.5 -63t55 -81.5t21 -105q0 -123 -80 -204.5t-223 -81.5t-229 69v17q88 -74 229 -74 q137 0 214 79t77 195q0 56 -21 102.5t-55 79t-75.5 61.5t-82.5 56t-75 54.5t-55 65t-21 81.5q0 38 21.5 75t52 69.5t60.5 66t51.5 76.5t21.5 88q0 113 -75 179.5t-189 66.5q-139 0 -216 -87.5t-77 -226.5v-1083h-13z" />
<glyph unicode="&#xe0;" horiz-adv-x="776" d="M641 485v154q0 252 -238 252q-124 0 -249 -64v13q120 63 249 63q250 0 250 -264v-625q-120 -24 -223 -24q-170 0 -267 65t-97 185q0 65 36.5 113t101.5 76.5t145 42t175 13.5h117zM641 25v448h-117q-90 0 -167 -12.5t-141 -39t-101 -73t-37 -108.5q0 -113 93.5 -175.5 t258.5 -62.5q84 0 211 23zM420 1051h-14l-175 311h15z" />
<glyph unicode="&#xe1;" horiz-adv-x="776" d="M641 485v154q0 252 -238 252q-124 0 -249 -64v13q120 63 249 63q250 0 250 -264v-625q-120 -24 -223 -24q-170 0 -267 65t-97 185q0 65 36.5 113t101.5 76.5t145 42t175 13.5h117zM641 25v448h-117q-90 0 -167 -12.5t-141 -39t-101 -73t-37 -108.5q0 -113 93.5 -175.5 t258.5 -62.5q84 0 211 23zM414 1051h-15l174 311h15z" />
<glyph unicode="&#xe2;" horiz-adv-x="776" d="M641 485v154q0 252 -238 252q-124 0 -249 -64v13q120 63 249 63q250 0 250 -264v-625q-120 -24 -223 -24q-170 0 -267 65t-97 185q0 65 36.5 113t101.5 76.5t145 42t175 13.5h117zM641 25v448h-117q-90 0 -167 -12.5t-141 -39t-101 -73t-37 -108.5q0 -113 93.5 -175.5 t258.5 -62.5q84 0 211 23zM414 1325l200 -270h-14l-188 254l-189 -254h-14l201 270h4z" />
<glyph unicode="&#xe3;" horiz-adv-x="776" d="M641 485v154q0 252 -238 252q-124 0 -249 -64v13q120 63 249 63q250 0 250 -264v-625q-120 -24 -223 -24q-170 0 -267 65t-97 185q0 65 36.5 113t101.5 76.5t145 42t175 13.5h117zM641 25v448h-117q-90 0 -167 -12.5t-141 -39t-101 -73t-37 -108.5q0 -113 93.5 -175.5 t258.5 -62.5q84 0 211 23zM594 1212h12q0 -66 -27 -108.5t-77 -42.5q-28 0 -52.5 15t-42.5 36.5t-36 43.5t-40.5 37t-47.5 15q-44 0 -68.5 -39.5t-24.5 -99.5h-12q0 66 27.5 109t77.5 43q28 0 52 -15t42 -37t35.5 -44t40.5 -37t49 -15q44 0 68 39.5t24 99.5z" />
<glyph unicode="&#xe4;" horiz-adv-x="776" d="M641 485v154q0 252 -238 252q-124 0 -249 -64v13q120 63 249 63q250 0 250 -264v-625q-120 -24 -223 -24q-170 0 -267 65t-97 185q0 65 36.5 113t101.5 76.5t145 42t175 13.5h117zM641 25v448h-117q-90 0 -167 -12.5t-141 -39t-101 -73t-37 -108.5q0 -113 93.5 -175.5 t258.5 -62.5q84 0 211 23zM268 1169q-20 0 -20 21q0 20 20 20q21 0 21 -20q0 -9 -6 -15t-15 -6zM555 1169q-20 0 -20 21q0 20 20 20t20 -20q0 -21 -20 -21z" />
<glyph unicode="&#xe5;" horiz-adv-x="776" d="M641 485v154q0 252 -238 252q-124 0 -249 -64v13q120 63 249 63q250 0 250 -264v-625q-120 -24 -223 -24q-170 0 -267 65t-97 185q0 65 36.5 113t101.5 76.5t145 42t175 13.5h117zM641 25v448h-117q-90 0 -167 -12.5t-141 -39t-101 -73t-37 -108.5q0 -113 93.5 -175.5 t258.5 -62.5q84 0 211 23zM270 1198q0 61 41.5 101t100.5 40t100 -40t41 -101t-41 -101t-100 -40t-100.5 40t-41.5 101zM541 1198q0 55 -37.5 92t-91.5 37t-91.5 -37t-37.5 -92t37.5 -92t91.5 -37t91.5 37t37.5 92z" />
<glyph unicode="&#xe6;" horiz-adv-x="1468" d="M1403 473h-739v-18q0 -204 115.5 -328.5t291.5 -124.5q175 0 291 98v-14q-113 -96 -291 -96q-121 0 -217 59t-149 164q-46 -96 -139.5 -159.5t-213.5 -63.5q-124 0 -205 61t-81 176q0 69 33.5 120t94.5 80.5t138 43.5t172 14h147q7 80 25 136q-6 145 -75.5 207.5 t-197.5 62.5q-124 0 -249 -64v13q120 63 249 63q264 0 281 -256q44 119 141 187.5t222 68.5q94 0 164.5 -34t111.5 -93.5t60.5 -132t19.5 -158.5v-12zM651 473h-147q-90 0 -164 -13t-134.5 -40.5t-94 -76.5t-33.5 -116q0 -106 77.5 -165.5t196.5 -59.5q116 0 208.5 63.5 t137.5 161.5q-47 100 -47 228v18zM664 485h727q0 64 -11 121.5t-37 110.5t-65 91t-98 60.5t-133 22.5q-162 0 -268 -113.5t-115 -292.5z" />
<glyph unicode="&#xe7;" horiz-adv-x="856" d="M371 -303h-19q142 120 148 293q-188 5 -308 131t-120 325q0 204 124 330.5t316 126.5q156 0 276 -98v-14q-127 100 -276 100q-187 0 -307.5 -122.5t-120.5 -322.5q0 -199 120.5 -321.5t307.5 -122.5q165 0 289 100v-14q-121 -98 -289 -98q-3 -85 -41 -162t-100 -131z" />
<glyph unicode="&#xe8;" horiz-adv-x="925" d="M860 473h-776v-18q0 -204 116.5 -328.5t299.5 -124.5q180 0 305 98v-14q-119 -96 -305 -96q-189 0 -308.5 127.5t-119.5 337.5q0 198 116.5 323t298.5 125q98 0 171.5 -34t116.5 -93.5t64 -132.5t21 -158v-12zM84 485h764q0 81 -20 151.5t-61 128.5t-113 92t-167 34 q-173 0 -282.5 -115t-120.5 -291zM502 1051h-15l-174 311h15z" />
<glyph unicode="&#xe9;" horiz-adv-x="925" d="M860 473h-776v-18q0 -204 116.5 -328.5t299.5 -124.5q180 0 305 98v-14q-119 -96 -305 -96q-189 0 -308.5 127.5t-119.5 337.5q0 198 116.5 323t298.5 125q98 0 171.5 -34t116.5 -93.5t64 -132.5t21 -158v-12zM84 485h764q0 81 -20 151.5t-61 128.5t-113 92t-167 34 q-173 0 -282.5 -115t-120.5 -291zM496 1051h-15l174 311h15z" />
<glyph unicode="&#xea;" horiz-adv-x="925" d="M860 473h-776v-18q0 -204 116.5 -328.5t299.5 -124.5q180 0 305 98v-14q-119 -96 -305 -96q-189 0 -308.5 127.5t-119.5 337.5q0 198 116.5 323t298.5 125q98 0 171.5 -34t116.5 -93.5t64 -132.5t21 -158v-12zM84 485h764q0 81 -20 151.5t-61 128.5t-113 92t-167 34 q-173 0 -282.5 -115t-120.5 -291zM496 1325l200 -270h-14l-188 254l-189 -254h-14l201 270h4z" />
<glyph unicode="&#xeb;" horiz-adv-x="925" d="M860 473h-776v-18q0 -204 116.5 -328.5t299.5 -124.5q180 0 305 98v-14q-119 -96 -305 -96q-189 0 -308.5 127.5t-119.5 337.5q0 198 116.5 323t298.5 125q98 0 171.5 -34t116.5 -93.5t64 -132.5t21 -158v-12zM84 485h764q0 81 -20 151.5t-61 128.5t-113 92t-167 34 q-173 0 -282.5 -115t-120.5 -291zM350 1169q-20 0 -20 21q0 20 20 20q21 0 21 -20q0 -9 -6 -15t-15 -6zM637 1169q-9 0 -15 6t-6 15q0 20 21 20q20 0 20 -20q0 -21 -20 -21z" />
<glyph unicode="&#xec;" horiz-adv-x="307" d="M160 893v-893h-13v893h13zM162 1051h-15l-174 311h15z" />
<glyph unicode="&#xed;" horiz-adv-x="307" d="M160 893v-893h-13v893h13zM164 1051h-14l174 311h14z" />
<glyph unicode="&#xee;" horiz-adv-x="307" d="M160 893v-893h-13v893h13zM156 1325l200 -270h-14l-188 254l-189 -254h-14l201 270h4z" />
<glyph unicode="&#xef;" horiz-adv-x="307" d="M160 893v-893h-13v893h13zM10 1169q-20 0 -20 21q0 20 20 20q21 0 21 -20q0 -9 -6 -15t-15 -6zM297 1169q-9 0 -15 6t-6 15q0 20 21 20q20 0 20 -20q0 -21 -20 -21z" />
<glyph unicode="&#xf0;" horiz-adv-x="1003" d="M829 1192l-178 -49q281 -330 281 -697q0 -201 -122 -328.5t-308 -127.5t-308 127.5t-122 328.5t122 329t308 128q60 0 115.5 -14t111.5 -46t102.5 -92t75.5 -143q-58 286 -268 531l-393 -107v12l383 105q-112 127 -262 244h20q150 -118 256 -240l186 51v-12zM920 446 q0 195 -118.5 320t-299.5 125t-299.5 -125t-118.5 -320t118.5 -319.5t299.5 -124.5t299.5 124.5t118.5 319.5z" />
<glyph unicode="&#xf1;" horiz-adv-x="989" d="M147 0v834q80 32 184.5 50.5t188.5 18.5q155 0 242.5 -72.5t87.5 -220.5v-610h-12v610q0 141 -85.5 211t-232.5 70q-93 0 -197 -20.5t-163 -45.5v-825h-13zM700 1212h13q0 -66 -27.5 -108.5t-77.5 -42.5q-28 0 -52.5 15t-42.5 36.5t-36 43.5t-40.5 37t-47.5 15 q-44 0 -68 -39.5t-24 -99.5h-12q0 66 27 109t77 43q28 0 52 -15t42 -37t35.5 -44t40.5 -37t49 -15q44 0 68 39.5t24 99.5z" />
<glyph unicode="&#xf2;" horiz-adv-x="1003" d="M72 446q0 201 122 329t308 128t308 -128t122 -329t-122 -328.5t-308 -127.5t-308 127.5t-122 328.5zM920 446q0 195 -118.5 320t-299.5 125t-299.5 -125t-118.5 -320t118.5 -319.5t299.5 -124.5t299.5 124.5t118.5 319.5zM510 1051h-14l-174 311h14z" />
<glyph unicode="&#xf3;" horiz-adv-x="1003" d="M72 446q0 201 122 329t308 128t308 -128t122 -329t-122 -328.5t-308 -127.5t-308 127.5t-122 328.5zM920 446q0 195 -118.5 320t-299.5 125t-299.5 -125t-118.5 -320t118.5 -319.5t299.5 -124.5t299.5 124.5t118.5 319.5zM504 1051h-15l175 311h14z" />
<glyph unicode="&#xf4;" horiz-adv-x="1003" d="M72 446q0 201 122 329t308 128t308 -128t122 -329t-122 -328.5t-308 -127.5t-308 127.5t-122 328.5zM920 446q0 195 -118.5 320t-299.5 125t-299.5 -125t-118.5 -320t118.5 -319.5t299.5 -124.5t299.5 124.5t118.5 319.5zM504 1325l201 -270h-15l-188 254l-189 -254h-14 l201 270h4z" />
<glyph unicode="&#xf5;" horiz-adv-x="1003" d="M72 446q0 201 122 329t308 128t308 -128t122 -329t-122 -328.5t-308 -127.5t-308 127.5t-122 328.5zM920 446q0 195 -118.5 320t-299.5 125t-299.5 -125t-118.5 -320t118.5 -319.5t299.5 -124.5t299.5 124.5t118.5 319.5zM705 1212h12q0 -66 -27.5 -108.5t-77.5 -42.5 q-28 0 -52.5 15t-42.5 36.5t-36 43.5t-40.5 37t-47.5 15q-44 0 -68 -39.5t-24 -99.5h-12q0 66 27 109t77 43q28 0 52 -15t42 -37t35.5 -44t40.5 -37t49 -15q44 0 68.5 39.5t24.5 99.5z" />
<glyph unicode="&#xf6;" horiz-adv-x="1003" d="M72 446q0 201 122 329t308 128t308 -128t122 -329t-122 -328.5t-308 -127.5t-308 127.5t-122 328.5zM920 446q0 195 -118.5 320t-299.5 125t-299.5 -125t-118.5 -320t118.5 -319.5t299.5 -124.5t299.5 124.5t118.5 319.5zM358 1169q-20 0 -20 21q0 20 20 20q21 0 21 -20 q0 -9 -6 -15t-15 -6zM645 1169q-20 0 -20 21q0 20 20 20q21 0 21 -20q0 -9 -6 -15t-15 -6z" />
<glyph unicode="&#xf7;" horiz-adv-x="843" d="M82 594v12h680v-12h-680zM401 287q0 20 21 20q20 0 20 -20q0 -21 -20 -21q-9 0 -15 6t-6 15zM401 913q0 9 6 15t15 6q20 0 20 -21q0 -20 -20 -20q-21 0 -21 20z" />
<glyph unicode="&#xf8;" horiz-adv-x="1003" d="M932 893l-117 -123q117 -126 117 -324q0 -201 -122 -328.5t-308 -127.5t-305 125l-109 -115h-16l116 123q-116 125 -116 323q0 201 122 329t308 128t305 -125l108 115h17zM197 131l602 639q-118 121 -297 121q-181 0 -299.5 -125t-118.5 -320q0 -193 113 -315zM807 762 l-602 -639q118 -121 297 -121q181 0 299.5 124.5t118.5 319.5q0 194 -113 316z" />
<glyph unicode="&#xf9;" horiz-adv-x="958" d="M811 893v-848q-149 -55 -342 -55q-163 0 -251.5 72.5t-88.5 220.5v610h12v-610q0 -144 86 -212.5t242 -68.5q190 0 330 51v840h12zM481 1051h-14l-174 311h14z" />
<glyph unicode="&#xfa;" horiz-adv-x="958" d="M811 893v-848q-149 -55 -342 -55q-163 0 -251.5 72.5t-88.5 220.5v610h12v-610q0 -144 86 -212.5t242 -68.5q190 0 330 51v840h12zM475 1051h-14l174 311h14z" />
<glyph unicode="&#xfb;" horiz-adv-x="958" d="M811 893v-848q-149 -55 -342 -55q-163 0 -251.5 72.5t-88.5 220.5v610h12v-610q0 -144 86 -212.5t242 -68.5q190 0 330 51v840h12zM475 1325l201 -270h-14l-189 254l-188 -254h-15l201 270h4z" />
<glyph unicode="&#xfc;" horiz-adv-x="958" d="M811 893v-848q-149 -55 -342 -55q-163 0 -251.5 72.5t-88.5 220.5v610h12v-610q0 -144 86 -212.5t242 -68.5q190 0 330 51v840h12zM330 1169q-9 0 -15 6t-6 15q0 20 21 20q20 0 20 -20q0 -21 -20 -21zM616 1169q-20 0 -20 21q0 20 20 20q21 0 21 -20q0 -9 -6 -15t-15 -6z " />
<glyph unicode="&#xfd;" horiz-adv-x="864" d="M35 893l395 -883l399 883h15l-572 -1262h-14l164 365l-402 897h15zM434 1051h-14l174 311h14z" />
<glyph unicode="&#xfe;" horiz-adv-x="993" d="M147 -369v1762h13v-570q49 33 130 56.5t163 23.5q117 0 208.5 -35.5t147.5 -98t84.5 -142t28.5 -172.5t-28.5 -175t-84.5 -147.5t-147.5 -104t-208.5 -38.5q-174 0 -293 61v-420h-13zM160 809v-743q52 -29 133 -46.5t160 -17.5q113 0 202.5 37.5t143.5 102t82 144 t28 169.5q0 89 -28 166.5t-82 138.5t-143 96t-203 35q-80 0 -160 -23.5t-133 -58.5z" />
<glyph unicode="&#xff;" horiz-adv-x="864" d="M35 893l395 -883l399 883h15l-572 -1262h-14l164 365l-402 897h15zM289 1169q-9 0 -15 6t-6 15q0 20 21 20q20 0 20 -20q0 -21 -20 -21zM575 1169q-20 0 -20 21q0 20 20 20q21 0 21 -20q0 -9 -6 -15t-15 -6z" />
<glyph unicode="&#x152;" horiz-adv-x="1572" d="M1470 1219v-13h-632v-575h608v-13h-608v-606h643v-12h-789q-167 0 -305.5 75t-221.5 215.5t-83 319.5q0 134 48.5 249t131 193.5t194 122.5t236.5 44h778zM825 12v1194h-133q-162 0 -298 -73t-218 -210.5t-82 -312.5t82 -313t218 -211.5t298 -73.5h133z" />
<glyph unicode="&#x153;" horiz-adv-x="1929" d="M1653 100v-14q-119 -96 -305 -96q-168 0 -282.5 102.5t-139.5 276.5q-23 -171 -140 -275t-284 -104q-186 0 -308 127.5t-122 328.5t122 329t308 128q163 0 279.5 -100.5t144.5 -265.5q25 165 136.5 265.5t272.5 100.5q98 0 171.5 -34t116.5 -93.5t64 -132.5t21 -158v-12 h-776v-18q0 -204 116.5 -328.5t299.5 -124.5q180 0 305 98zM920 446q0 195 -118.5 320t-299.5 125t-299.5 -125t-118.5 -320t118.5 -319.5t299.5 -124.5t299.5 124.5t118.5 319.5zM932 485h764q0 81 -20 151.5t-61 128.5t-113 92t-167 34q-173 0 -282.5 -115t-120.5 -291z " />
<glyph unicode="&#x178;" horiz-adv-x="987" d="M494 504l448 715h14l-456 -730v-489h-13v489l-456 730h14zM350 1362q-20 0 -20 20q0 21 20 21q9 0 15 -6t6 -15q0 -20 -21 -20zM637 1362q-21 0 -21 20q0 9 6 15t15 6q20 0 20 -21q0 -20 -20 -20z" />
<glyph unicode="&#x2c6;" horiz-adv-x="1024" d="M514 1325l201 -270h-15l-188 254l-188 -254h-15l201 270h4z" />
<glyph unicode="&#x2dc;" horiz-adv-x="1024" d="M713 1212h12q0 -66 -27 -108.5t-77 -42.5q-28 0 -52.5 15t-43 36.5t-36 43.5t-40.5 37t-48 15q-44 0 -68 -39.5t-24 -99.5h-12q0 66 27 109t77 43q28 0 52 -15t42 -37l36 -44t41 -37t49 -15q44 0 68 39.5t24 99.5z" />
<glyph unicode="&#x2000;" horiz-adv-x="796" />
<glyph unicode="&#x2001;" horiz-adv-x="1593" />
<glyph unicode="&#x2002;" horiz-adv-x="796" />
<glyph unicode="&#x2003;" horiz-adv-x="1593" />
<glyph unicode="&#x2004;" horiz-adv-x="531" />
<glyph unicode="&#x2005;" horiz-adv-x="398" />
<glyph unicode="&#x2006;" horiz-adv-x="265" />
<glyph unicode="&#x2007;" horiz-adv-x="265" />
<glyph unicode="&#x2008;" horiz-adv-x="199" />
<glyph unicode="&#x2009;" horiz-adv-x="318" />
<glyph unicode="&#x200a;" horiz-adv-x="88" />
<glyph unicode="&#x2010;" horiz-adv-x="727" d="M131 526v13h465v-13h-465z" />
<glyph unicode="&#x2011;" horiz-adv-x="727" d="M131 526v13h465v-13h-465z" />
<glyph unicode="&#x2012;" horiz-adv-x="727" d="M131 526v13h465v-13h-465z" />
<glyph unicode="&#x2013;" horiz-adv-x="1171" d="M131 526v13h909v-13h-909z" />
<glyph unicode="&#x2014;" horiz-adv-x="1949" d="M131 526v13h1688v-13h-1688z" />
<glyph unicode="&#x2018;" horiz-adv-x="299" d="M139 1077h-12q0 88 26 143t91 99h20q-70 -47 -97.5 -101t-27.5 -141z" />
<glyph unicode="&#x2019;" horiz-adv-x="299" d="M195 1319h12q0 -88 -26 -143t-91 -99h-20q70 47 97.5 101t27.5 141z" />
<glyph unicode="&#x201a;" horiz-adv-x="299" d="M139 47h13q0 -88 -26 -143t-91 -99h-21q70 47 97.5 101t27.5 141z" />
<glyph unicode="&#x201c;" horiz-adv-x="454" d="M139 1077h-12q0 88 26 143t91 99h20q-70 -47 -97.5 -101t-27.5 -141zM295 1077h-12q0 88 25.5 143.5t90.5 98.5h21q-70 -47 -97.5 -101t-27.5 -141z" />
<glyph unicode="&#x201d;" horiz-adv-x="454" d="M195 1319h12q0 -88 -26 -143t-91 -99h-20q70 47 97.5 101t27.5 141zM350 1319h12q0 -88 -25.5 -143.5t-90.5 -98.5h-21q70 47 97.5 101t27.5 141z" />
<glyph unicode="&#x201e;" horiz-adv-x="454" d="M139 47h13q0 -88 -26 -143t-91 -99h-21q70 47 97.5 101t27.5 141zM295 47h12q0 -88 -26 -143t-91 -99h-20q70 47 97.5 101t27.5 141z" />
<glyph unicode="&#x2022;" horiz-adv-x="417" d="M143 532q0 28 19 47t47 19t46.5 -19t18.5 -47t-18.5 -46.5t-46.5 -18.5t-47 18.5t-19 46.5z" />
<glyph unicode="&#x2026;" horiz-adv-x="983" d="M184 20q0 -20 -20 -20q-21 0 -21 20q0 9 6 15t15 6q20 0 20 -21zM512 20q0 -20 -20 -20q-21 0 -21 20q0 9 6 15t15 6q20 0 20 -21zM840 20q0 -20 -21 -20q-20 0 -20 20q0 21 20 21q9 0 15 -6t6 -15z" />
<glyph unicode="&#x202f;" horiz-adv-x="318" />
<glyph unicode="&#x2039;" horiz-adv-x="430" d="M348 764l-252 -324l252 -323h-14l-252 323l252 324h14z" />
<glyph unicode="&#x203a;" horiz-adv-x="430" d="M334 440l-252 324h14l252 -324l-252 -323h-14z" />
<glyph unicode="&#x205f;" horiz-adv-x="398" />
<glyph unicode="&#x20ac;" horiz-adv-x="946" d="M156 680h-115v12h117q20 246 148 391.5t331 145.5q141 0 258 -88v-15q-114 91 -258 91q-196 0 -321.5 -142.5t-145.5 -382.5h479l-4 -12h-477q-2 -23 -2 -72q0 -48 2 -73h436l-6 -13h-428q20 -238 145 -379t322 -141q145 0 258 90v-14q-117 -88 -258 -88 q-202 0 -330.5 144t-148.5 388h-117v13h115q-2 25 -2 73q0 49 2 72z" />
<glyph unicode="&#x2122;" horiz-adv-x="1124" d="M242 1206v-475h-13v475h-188v13h391v-13h-190zM739 725h-12l-180 483l-90 -477h-13l95 494h14l180 -484l180 484h15l94 -494h-12l-90 477z" />
<glyph unicode="&#xe000;" horiz-adv-x="890" d="M0 891h891v-891h-891v891z" />
</font>
</defs>
</svg>
