<svg height="108.781" viewBox="0 0 586.437 108.781" width="586.437" xmlns="http://www.w3.org/2000/svg"><path d="m388.151 892.366 2.894 20.249h24.335c6.218-.225 9.434-4.275 9.327-11.7v-34.2h21.226v-18.9h-21.226v-2.362c7.4-5.625 14.365-12.712 18.117-18.449v-18.334h-54.137v18.337h31.2c-1.179 2.249-3.431 5.062-7.4 9.224h-5.9v11.587h-20.58v18.9h20.583v21.482c0 2.474-.965 3.712-3 3.712h-15.118l1.93-2.7a106.237 106.237 0 0 0 -11.364-11.362c4.932-12.824 7.719-32.286 8.148-55.46h-18.332l.107-.45.965-12.374.322-3.712-16.938-.675-.108 2.924-.643 13.837v.45h-8.254v18.112h6.646a194.053 194.053 0 0 1 -6.325 31.161c4.5 2.587 8.148 5.4 13.829 10.124a69.979 69.979 0 0 1 -15.755 16.429l11.686 14.849a83.764 83.764 0 0 0 16.509-19.124 105.091 105.091 0 0 1 8.362 10.687zm-16.831-51.86c-.965 10.687-2.68 19.349-5.468 26.886a45.464 45.464 0 0 0 -4.395-2.925c1.93-7.087 3.323-13.837 5.146-23.961zm125.794-7.65v-7.987h-41.058v14.174h41.058v-3.712c1.93 5.625 4.717 17.887 5.146 22.724l14.365-3.937c-.536-5.737-4.18-18.562-6.968-25.087zm-38.057-24.186v13.049h35.27v-13.049zm0 33.523v13.725h35.27v-13.725zm0 16.987v13.612h35.27v-13.612zm0 16.649v35.548h36.449v-35.548zm23.049 13.387v7.65h-7.183v-7.65zm60.463-60.072a124.913 124.913 0 0 1 -5.789 24.3l14.579 4.612c2.466-6.862 4.4-15.3 6-25.649zm-6.647 83.471v-34.761h21.87v-18.224h-21.87v-33.411h20.583v-17.549h-57.783v17.549h19.19v33.411h-21.119v18.224h21.119v34.761zm115.4-60.072a75.07 75.07 0 0 0 13.078 6.187l7.5-17.774c-4.288-1.688-6.861-2.812-12.114-5.287 5.682-5.85 8.469-8.887 11.578-13.162l-12.757-8.1a146.158 146.158 0 0 1 -12.114 14.062c-1.179-.787-2.466-1.575-3.859-2.587 3.537-3.488 9-9.562 12.328-13.612l-12.757-7.425a76.213 76.213 0 0 1 -10.077 10.912c-2.144-2.362-3.645-4.387-6.111-7.65h-48.455v11.587l-8.683 8.887a67.69 67.69 0 0 1 9 7.875 92.99 92.99 0 0 1 -12.114 4.387l7.5 18.224c5.253-2.362 8.9-4.274 13.508-6.862v4.613h9.326v7.2h-25.934v16.424h23.478c-3.109 7.875-11.471 12.6-26.051 15.075l9.112 18c21.977-6.412 32.161-15.862 35.592-33.074h10.4v22.274c.214 5.175 3.645 8.775 8.469 8.887h27.444c8.683-.9 11.042-6.074 11.792-25.536l-17.046-3.268c-.429 10.8-.751 11.924-4.074 11.924h-5.467c-2.359-.112-3-.9-3-3.825v-10.458h27.123v-16.424h-27.125v-7.2h10.506v-4.275zm-47.277-11.812a79.914 79.914 0 0 0 15.009-15.3 97.441 97.441 0 0 0 15.223 15.3h-30.236zm-3.545-18.562a68.24 68.24 0 0 1 -8.469 6.525 87.717 87.717 0 0 0 -6.969-6.525zm22.2 34.649v7.2h-9.113v-7.2zm57.5-45.218v16.761h40.737v4.5h-35.912v15.075h91.98v-15.08h-36.449v-4.5h40.952v-16.756h-40.952v-5.737h-19.618v5.737zm1.5 40.048v25.649h18.439v-9.787h61.861v10.237h18.439v-26.1h-98.739zm24.228 19.124c-.536 16.424-5.682 21.036-26.694 24.524l7.183 18.336c26.693-3.375 37.521-15.411 38.7-42.86h-19.187zm58.211 11.249c-.75 10.912-.965 11.475-4.181 11.925h-5.467c-2.037.112-2.573-.563-2.573-3.038v-20.141h-18.544v29.811c.107 7.65 3.645 11.587 10.4 11.587h26.265c9-1.238 10.721-5.062 12.436-26.661zm31.561-59.852v61.422h37.95v28.909h18.225v-28.909h38.378v-61.422h-38.374v-16.649h-18.225v16.649zm37.95 18v25.424h-19.829v-25.425h19.833zm38.379 0v25.424h-20.15v-25.425h20.154zm36.172-29.023 2.466 63.784h15.973l2.466-63.784h-20.9zm.751 90.783h19.4v-19.463h-19.4v19.462z" fill="#c71528" fill-rule="evenodd" transform="translate(-342.688 -804.844)"/></svg>