<svg xmlns="http://www.w3.org/2000/svg" width="56.537" height="8.338"><path d="M8.396 2.086H5.42v6.146H2.977V2.086H0V.111h8.396v1.975zm11.919 2.08c0 .758-.175 1.455-.524 2.092s-.87 1.143-1.562 1.518-1.533.563-2.525.563c-1.004 0-1.854-.195-2.549-.586s-1.212-.904-1.55-1.541-.507-1.318-.507-2.045c0-.73.168-1.413.504-2.048s.853-1.146 1.55-1.535S14.7 0 15.704 0c.75 0 1.419.111 2.007.334.588.223 1.071.524 1.45.905s.666.824.861 1.33.293 1.038.293 1.597zm-2.496 0c0-.305-.045-.583-.135-.835s-.226-.471-.407-.656-.403-.33-.665-.434-.564-.155-.908-.155c-.656 0-1.172.191-1.547.574s-.563.885-.563 1.506.188 1.124.565 1.509.892.577 1.544.577c.449 0 .832-.089 1.148-.267.316-.178.557-.424.721-.738s.247-.675.247-1.081zm12.851-1.5c0 .301-.052.595-.155.882s-.271.555-.501.803-.542.449-.935.603-.854.231-1.386.231h-1.605v3.047h-2.449V.111h4.055c.531 0 .993.078 1.386.234s.704.359.935.609.397.521.501.814.154.593.154.898zm-2.496.012c0-.387-.114-.651-.343-.794s-.638-.214-1.227-.214h-.516v1.957h.527c.406 0 .719-.025.938-.076s.377-.145.475-.281.146-.334.146-.592zm8.116 5.554h-2.449V.111h2.449v8.121zm11.123-.609c-.336.176-.68.316-1.031.422s-.706.181-1.063.226-.728.067-1.11.067c-.707 0-1.341-.098-1.901-.293s-1.047-.483-1.459-.864-.721-.826-.926-1.336-.308-1.069-.308-1.679c0-.699.121-1.312.363-1.837s.581-.962 1.017-1.31.932-.604 1.488-.771S43.626 0 44.243 0c.922 0 1.967.205 3.135.615v2.156c-.402-.25-.8-.458-1.192-.624s-.855-.249-1.386-.249c-.473 0-.914.094-1.324.281s-.74.455-.99.803-.376.754-.376 1.219c0 .41.109.786.328 1.128s.522.613.911.814.827.302 1.315.302c.395 0 .768-.048 1.119-.144s.647-.202.888-.319.487-.256.741-.416v2.057zm9.124-1.752c0 .508-.13.947-.39 1.318s-.622.655-1.087.853-.998.296-1.6.296c-.168 0-.374-.011-.618-.032s-.568-.081-.973-.179-.825-.242-1.263-.434V5.701c.41.254.813.465 1.21.633s.821.252 1.274.252c.418 0 .688-.069.812-.208s.185-.269.185-.39c0-.219-.105-.403-.316-.554s-.518-.306-.92-.466c-.445-.188-.836-.392-1.172-.612s-.61-.497-.823-.829-.319-.725-.319-1.178c0-.438.107-.833.322-1.187.215-.354.543-.636.984-.847S52.824 0 53.461 0c.453 0 .872.044 1.257.132s.702.187.952.296.422.195.516.258V2.59c-.332-.238-.702-.451-1.11-.639s-.846-.281-1.31-.281c-.305 0-.525.059-.662.176s-.205.262-.205.434c0 .16.068.299.205.416s.381.26.732.428c.625.293 1.125.557 1.5.791s.669.505.882.812.319.687.319 1.144z" fill="#fff"/></svg>