<svg xmlns="http://www.w3.org/2000/svg" width="560.164" height="178.42" viewBox="0 0 560.164 178.42">
  <defs>
    <style>
      .cls-1 {
        fill: #231815;
      }

      .cls-2 {
        fill: #fbe3d5;
      }

      .cls-3, .cls-4 {
        fill: #e50012;
      }

      .cls-4 {
        stroke: #e50012;
        stroke-miterlimit: 10;
        stroke-width: 0.329px;
      }
    </style>
  </defs>
  <g id="レイヤー_2" data-name="レイヤー 2">
    <g id="object">
      <g>
        <g>
          <g>
            <path class="cls-1" d="M356.138,124.711a.713.713,0,0,0,.766-.619V108.36a.713.713,0,0,0-.766-.61H333.475a.713.713,0,0,0-.766.61v2.634a.768.768,0,0,0,.766.64h18.751v9.282H333.475c-.407,0-.766.236-.766.585v15.727c0,.3.359.574.766.574h22.663c.407,0,.766-.269.766-.574v-2.547a.729.729,0,0,0-.766-.693H337.4v-9.277Z"/>
            <path class="cls-1" d="M423.194,124.711a.713.713,0,0,0,.766-.619V108.36a.713.713,0,0,0-.766-.61H400.531a.713.713,0,0,0-.766.61v2.634a.768.768,0,0,0,.766.64h18.751v9.282H400.531c-.407,0-.766.236-.766.585v15.727c0,.3.359.574.766.574h22.663c.407,0,.766-.269.766-.574v-2.547a.729.729,0,0,0-.766-.693H404.456v-9.277Z"/>
            <path class="cls-1" d="M389.427,107.75H366.812a.69.69,0,0,0-.766.61v28.868c0,.3.322.574.766.574h22.615c.455,0,.814-.269.814-.574V108.36C390.241,108.025,389.882,107.75,389.427,107.75Zm-3.877,3.884v22.354H370.76V111.634Z"/>
            <path class="cls-1" d="M432.839,107.75a.686.686,0,0,0-.742.59v2.7a.683.683,0,0,0,.742.59h6.438v25.574c0,.325.359.59.766.59h3.207a.681.681,0,0,0,.741-.59V108.34a.685.685,0,0,0-.741-.59Z"/>
          </g>
          <g>
            <path class="cls-1" d="M462.344,71.626h-5.169l1.4-2.843a.983.983,0,0,0-.462-1.284l-3.481-1.711a.971.971,0,0,0-1.293.44l-1.7,3.49A.954.954,0,0,0,452.074,71l1.28.625h-5.595V66.754a.976.976,0,0,0-.979-.966h-3.871a.973.973,0,0,0-.961.966v4.872H436.96a.98.98,0,0,0-.984.966v3.879a.98.98,0,0,0,.984.966h4.988V90.063a.975.975,0,0,0,.961.966h3.871a.979.979,0,0,0,.979-.966V77.437h9.753v3.327h-4.9a.964.964,0,0,0-.974.96V85.6a.971.971,0,0,0,.974.962h9.735a.962.962,0,0,0,.97-.962V72.592A.968.968,0,0,0,462.344,71.626Z"/>
            <path class="cls-1" d="M424.5,59.875a.977.977,0,0,0,.966-.971v-3.87a.979.979,0,0,0-.966-.979H409.527V46.448a.971.971,0,0,0-.952-.97h-3.889a.97.97,0,0,0-.951.97v7.607h-8.3a.975.975,0,0,0-.975.979V58.9a.973.973,0,0,0,.975.971h8.3V70.521a.97.97,0,0,0,.951.979H419.6V85.2H404.686a.971.971,0,0,0-.951.987V90.05a.966.966,0,0,0,.951.961l19.75.018a.98.98,0,0,0,.987-.966v-23.4a.991.991,0,0,0-.987-.988H409.527v-5.8Z"/>
            <path class="cls-1" d="M387.771,80.305a.977.977,0,0,0-.965-.969h-3.863a.965.965,0,0,0-.969.969v4.9H368.125V71.5H380.3a.972.972,0,0,0,.961-.979V66.664a.98.98,0,0,0-.961-.988H368.125v-5.8H380.3a.971.971,0,0,0,.961-.971v-3.87a.972.972,0,0,0-.961-.979H368.125V46.448a.978.978,0,0,0-.961-.97h-3.889a.979.979,0,0,0-.965.97v7.607h-8.173a.978.978,0,0,0-.965.979V58.9a.977.977,0,0,0,.965.971h8.173v5.8h-8.173a.986.986,0,0,0-.965.988v3.857a.978.978,0,0,0,.965.979h8.173V90.063a.976.976,0,0,0,.965.966h23.531a.976.976,0,0,0,.965-.966Z"/>
            <path class="cls-1" d="M340.252,51.118l-6.191-5.64a.967.967,0,0,0-1.361.067l-2.609,2.865a.981.981,0,0,0,.062,1.37l4.707,4.275h-9.017V46.448a.983.983,0,0,0-.979-.97h-3.871a.986.986,0,0,0-.97.97v7.607H309a.969.969,0,0,0-.952.979V58.9a.968.968,0,0,0,.952.971h11.028v8.271H308.976a.881.881,0,0,0-.358.072.972.972,0,0,0-.6.893V90.063a.975.975,0,0,0,.961.966h15.888a.979.979,0,0,0,.979-.966V73.956h10.3V85.21h-3.521a.963.963,0,0,0-.961.978v3.875a.96.96,0,0,0,.961.966H341a.984.984,0,0,0,.975-.966V69.111a.964.964,0,0,0-.975-.965H325.843V59.875H341.02a.976.976,0,0,0,.961-.971v-3.87a.978.978,0,0,0-.961-.979h-2.128l1.437-1.572A.951.951,0,0,0,340.252,51.118ZM320.023,85.21h-6.206V73.956h6.206Z"/>
            <path class="cls-1" d="M247.681,49.905h-.013a.975.975,0,0,0-.965-.965H217.492a.968.968,0,0,0-.956.965v39.93a.961.961,0,0,0,.956.961l29.1-.014c.041,0,.072.014.113.014a.969.969,0,0,0,.965-.961V89.8h.013Zm-5.828,16.669h-13.57a.968.968,0,0,0-.97.97v3.871h0a.954.954,0,0,0,.97.965h13.57V84.958H222.382V54.8h19.471Z"/>
            <path class="cls-1" d="M528.193,50.507h3.879a.966.966,0,0,0,.961-.979V46.3a.96.96,0,0,0-.961-.965h-3.879a.966.966,0,0,0-.971.965v3.229A.971.971,0,0,0,528.193,50.507Zm19.389,0h3.844a.983.983,0,0,0,.988-.979V46.3a.976.976,0,0,0-.979-.965h-3.853a.978.978,0,0,0-.988.965v3.229A.983.983,0,0,0,547.582,50.507Zm3.871,14.244a.96.96,0,0,0,.979-.961V57.97a.978.978,0,0,0-.979-.969H528.278a.965.965,0,0,0-.966.969v5.82a.947.947,0,0,0,.966.961Zm-18.9-5.021H547.16v2.286H532.552Zm26.651-7.9H542.715V46.3a.961.961,0,0,0-.961-.965h-3.862a.97.97,0,0,0-.979.965v5.529H520.519a.988.988,0,0,0-.98.969v8.425a.99.99,0,0,0,.98.978h3.874a.98.98,0,0,0,.971-.978V55.375h29v5.847a.968.968,0,0,0,.97.978h3.87a.963.963,0,0,0,.961-.978V52.8A.96.96,0,0,0,559.2,51.828Zm-5.388,14.6H525.547a.963.963,0,0,0-.978.952v16.5a.975.975,0,0,0,.978.97h4.513l-4.05,3.1a.968.968,0,0,0-.171,1.36l2.348,3.067h.006a.961.961,0,0,0,1.355.18l4.612-3.539a.981.981,0,0,0,.189-1.355l-2.161-2.812h14.986l-2.151,2.812a.957.957,0,0,0,.17,1.355l4.6,3.539a1,1,0,0,0,1.384-.18l2.348-3.067a.992.992,0,0,0-.166-1.36l-4.046-3.1h4.5a.963.963,0,0,0,.97-.97v-16.5A.951.951,0,0,0,553.815,66.431ZM549.378,82H530.115V79.695h19.263Zm0-5.182H530.115V74.482h19.263Zm0-5.217H530.115V69.3h19.263Z"/>
            <path class="cls-1" d="M272.828,67.149l-3.467-1.724a.984.984,0,0,0-1.311.426l-3.619,7.221a7.1,7.1,0,0,1-1.131,1.549l-6.134,6A1,1,0,0,0,257.152,82l2.69,2.789a.952.952,0,0,0,1.364.022l6.853-6.727a7.091,7.091,0,0,0,1.123-1.536l4.077-8.109A.971.971,0,0,0,272.828,67.149ZM284.97,80.288h-4.432V59.875h15.434a.971.971,0,0,0,.975-.971v-3.87a.972.972,0,0,0-.975-.979H280.538V46.489a.98.98,0,0,0-.974-.966H275.7a.974.974,0,0,0-.975.966v7.566H259.29a.98.98,0,0,0-.975.979V58.9a.979.979,0,0,0,.975.971h15.433V80.288h-4.418a.964.964,0,0,0-.97.961v3.88a.958.958,0,0,0,.97.961h4.418v5.756a.971.971,0,0,0,.975.961h3.866a.976.976,0,0,0,.974-.961V86.09h4.432a.963.963,0,0,0,.966-.961v-3.88A.969.969,0,0,0,284.97,80.288Zm13.121.332-6.12-6a6.818,6.818,0,0,1-1.132-1.549l-3.615-7.221a.987.987,0,0,0-1.31-.426l-3.467,1.724a.959.959,0,0,0-.441,1.293l4.064,8.109a6.782,6.782,0,0,0,1.146,1.536l6.83,6.727a.958.958,0,0,0,1.369-.022L298.11,82A1,1,0,0,0,298.091,80.62Z"/>
            <path class="cls-1" d="M510.751,54.055h-17.1V46.336a.976.976,0,0,0-.979-.979h-3.862a.993.993,0,0,0-.979.979v7.719H470.75a.981.981,0,0,0-.979.979V58.9a.98.98,0,0,0,.979.971h17.082V64.4a3.564,3.564,0,0,1-.543,1.76L471.675,89.017a.98.98,0,0,0,.252,1.348l3.179,2.214a.968.968,0,0,0,1.347-.252L490.194,72.2a.628.628,0,0,1,1.091,0L505.03,92.327a.993.993,0,0,0,1.366.252l3.17-2.214a.959.959,0,0,0,.229-1.348L494.2,66.161a3.718,3.718,0,0,1-.547-1.76V59.875h17.1a.977.977,0,0,0,.966-.971v-3.87A.979.979,0,0,0,510.751,54.055Z"/>
          </g>
        </g>
        <g>
          <g>
            <g>
              <path class="cls-1" d="M108.023,28.808c-41.386,0-41.657,59.629-28.495,95.79,4.7,12.91,8.625,20.676,12.413,25.43H124.1c3.782-4.754,7.706-12.52,12.394-25.43C149.672,88.437,149.4,28.808,108.023,28.808ZM128.835,93.3a128.785,128.785,0,0,1-5.066,29.441,169.669,169.669,0,0,1-6.312,18.118H98.6a173.934,173.934,0,0,1-6.289-18.118c-6.892-23.164-7.276-50.878.326-65.54,2.243-4.353,6.082-10.391,15.395-10.391S121.184,52.85,123.443,57.2C127.893,65.785,129.61,79.086,128.835,93.3Z"/>
              <path class="cls-1" d="M68.412,150.028h9.654A138.787,138.787,0,0,1,55.441,86.649,13.7,13.7,0,0,1,68.606,92.4s-.488-4.766-.568-9.635c-.091-5.495.151-8.47.151-8.47A22.557,22.557,0,0,0,52.6,70.564c-28.447,3.343-24.568,54.754-7.75,79.464H54.4C43.3,132.5,41.308,106.564,44.954,96.222A148.252,148.252,0,0,0,68.412,150.028Z"/>
              <polygon class="cls-1" points="59.261 60.078 67.134 54.502 57.474 54.502 54.524 45.348 51.595 54.502 41.917 54.502 49.8 60.078 46.819 69.335 54.524 63.565 62.256 69.335 59.261 60.078"/>
              <polygon class="cls-1" points="112.782 16.914 120.633 11.332 110.979 11.332 108.036 2.184 105.087 11.332 95.429 11.332 103.295 16.914 100.311 26.168 108.036 20.392 115.747 26.168 112.782 16.914"/>
              <polygon class="cls-1" points="166.261 60.078 174.118 54.502 164.464 54.502 161.508 45.348 158.565 54.502 148.905 54.502 156.778 60.078 153.793 69.335 161.508 63.565 169.229 69.335 166.261 60.078"/>
              <path class="cls-1" d="M185.3,113.076c1.966-7.976,2.456-18.634-1.467-28.363-7.167-17.727-28.347-16.656-36.02-10.422a138.4,138.4,0,0,1-.393,18.105c8.947-12.9,29.737-6.831,25.78,9.773-3.236,13.624-23.348,12.326-26.968-.993a123.311,123.311,0,0,1-2.949,14.113c3.75,8.583,19.824,11.887,28.672,6.376-3.843,9.616-10.822,19.883-19.553,28.363h9.66S179.868,135.079,185.3,113.076Z"/>
            </g>
            <g>
              <path class="cls-2" d="M105.841,26.623c-41.388,0-41.656,59.626-28.5,95.791,4.7,12.906,8.627,20.676,12.415,25.426h32.164c3.778-4.75,7.7-12.52,12.391-25.426C147.492,86.249,147.22,26.623,105.841,26.623ZM126.65,91.115a128.1,128.1,0,0,1-5.069,29.44,168.177,168.177,0,0,1-6.305,18.121H96.419a173.883,173.883,0,0,1-6.285-18.121c-6.9-23.161-7.279-50.878.323-65.537,2.245-4.353,6.085-10.39,15.391-10.39s13.152,6.037,15.41,10.39C125.711,63.6,127.428,76.9,126.65,91.115Z"/>
              <path class="cls-2" d="M66.23,147.84h9.655A138.735,138.735,0,0,1,53.257,84.462a13.709,13.709,0,0,1,13.167,5.749s-.49-4.766-.571-9.635c-.09-5.5.152-8.469.152-8.469A22.527,22.527,0,0,0,50.41,68.38c-28.443,3.343-24.565,54.75-7.747,79.46h9.545c-11.087-17.521-13.081-43.463-9.442-53.8A148.282,148.282,0,0,0,66.23,147.84Z"/>
              <polygon class="cls-2" points="57.077 57.893 64.953 52.317 55.289 52.317 52.343 43.163 49.407 52.317 39.733 52.317 47.613 57.893 44.638 67.147 52.343 61.381 60.071 67.147 57.077 57.893"/>
              <polygon class="cls-2" points="110.597 14.73 118.451 9.144 108.797 9.144 105.848 0 102.905 9.144 93.245 9.144 101.111 14.73 98.123 23.981 105.848 18.208 113.566 23.981 110.597 14.73"/>
              <polygon class="cls-2" points="164.077 57.893 171.937 52.317 162.276 52.317 159.327 43.163 156.384 52.317 146.724 52.317 154.594 57.893 151.609 67.147 159.327 61.381 167.045 67.147 164.077 57.893"/>
              <path class="cls-2" d="M183.121,110.888c1.961-7.976,2.452-18.631-1.472-28.363-7.166-17.727-28.343-16.652-36.016-10.418a138.291,138.291,0,0,1-.394,18.1c8.945-12.9,29.734-6.83,25.778,9.771-3.236,13.626-23.345,12.326-26.968-.994A122.808,122.808,0,0,1,141.1,113.1c3.75,8.583,19.822,11.89,28.672,6.375-3.842,9.616-10.818,19.883-19.556,28.363h9.664S177.684,132.894,183.121,110.888Z"/>
            </g>
            <g>
              <path class="cls-3" d="M106.932,27.717c-41.389,0-41.656,59.626-28.5,95.787,4.7,12.911,8.628,20.677,12.416,25.429h32.164c3.781-4.752,7.7-12.518,12.394-25.429C148.582,87.343,148.311,27.717,106.932,27.717Zm20.812,64.492a128.6,128.6,0,0,1-5.069,29.443,169.061,169.061,0,0,1-6.308,18.115H97.513a173.636,173.636,0,0,1-6.288-18.115c-6.9-23.167-7.277-50.881.322-65.54,2.246-4.356,6.086-10.39,15.395-10.39s13.149,6.034,15.407,10.39C126.8,64.692,128.519,77.992,127.744,92.209Z"/>
              <path class="cls-3" d="M67.321,148.933h9.655A138.734,138.734,0,0,1,54.35,85.555,13.709,13.709,0,0,1,67.515,91.3s-.487-4.763-.571-9.635c-.091-5.5.151-8.466.151-8.466A22.507,22.507,0,0,0,51.5,69.47c-28.446,3.344-24.568,54.757-7.75,79.463H53.3c-11.09-17.524-13.084-43.462-9.441-53.8A148.176,148.176,0,0,0,67.321,148.933Z"/>
              <polygon class="cls-3" points="58.167 58.984 66.044 53.408 56.383 53.408 53.434 44.257 50.501 53.408 40.824 53.408 48.706 58.984 45.728 68.241 53.434 62.475 61.162 68.241 58.167 58.984"/>
              <polygon class="cls-3" points="111.688 15.824 119.542 10.242 109.888 10.242 106.942 1.09 103.996 10.242 94.338 10.242 102.201 15.824 99.217 25.074 106.942 19.302 114.657 25.074 111.688 15.824"/>
              <polygon class="cls-3" points="165.167 58.984 173.028 53.408 163.37 53.408 160.418 44.257 157.475 53.408 147.814 53.408 155.687 58.984 152.699 68.241 160.418 62.475 168.139 68.241 165.167 58.984"/>
              <path class="cls-3" d="M184.211,111.985c1.965-7.983,2.452-18.637-1.468-28.369C175.577,65.892,154.4,66.966,146.724,73.2a138.46,138.46,0,0,1-.394,18.1c8.944-12.894,29.734-6.827,25.781,9.774-3.237,13.626-23.348,12.325-26.972-.994A122.754,122.754,0,0,1,142.19,114.2c3.749,8.583,19.825,11.887,28.675,6.372-3.846,9.612-10.822,19.886-19.557,28.362h9.664S178.774,133.985,184.211,111.985Z"/>
            </g>
          </g>
          <g>
            <path class="cls-4" d="M.164,177.1v-3.04a8.6,8.6,0,0,0,2.412,1.564,6.569,6.569,0,0,0,2.579.522,3.02,3.02,0,0,0,2.56-.96,6.269,6.269,0,0,0,.727-3.574V160.85H3.551v-2.19h7.483v12.949q0,3.635-1.356,5.139t-4.523,1.507a10.923,10.923,0,0,1-2.451-.282A14.322,14.322,0,0,1,.164,177.1Z"/>
            <path class="cls-4" d="M19.35,158.66h3.143l5.866,19.221H25.675l-1.412-5.008h-6.71l-1.384,5.008H13.485Zm1.565,2.292-2.734,9.835h5.467Z"/>
            <path class="cls-4" d="M31.36,158.66h5.594a7.138,7.138,0,0,1,4.863,1.462,6.4,6.4,0,0,1,.007,8.581,7.168,7.168,0,0,1-4.87,1.455h-3v7.723H31.36Zm2.593,2.137v7.221h3a3.931,3.931,0,0,0,2.8-.95,4.034,4.034,0,0,0,.007-5.325,3.93,3.93,0,0,0-2.811-.946Z"/>
            <path class="cls-4" d="M48.36,158.66H51.5l5.865,19.221H54.685l-1.412-5.008h-6.71l-1.384,5.008H42.5Zm1.565,2.292-2.734,9.835h5.467Z"/>
            <path class="cls-4" d="M60.19,158.724h3.543l7.493,15.77v-15.77h2.758v19.157H70.442L62.949,162.11v15.771H60.19Z"/>
            <path class="cls-4" d="M86.04,158.66h14.612v2.19H94.66v17.031h-2.6V160.85H86.04Z"/>
            <path class="cls-4" d="M115.576,168.29q0,5.022-1.586,7.494a5.957,5.957,0,0,1-9.654.01q-1.578-2.459-1.578-7.5t1.585-7.508a5.942,5.942,0,0,1,9.647,0Q115.574,163.256,115.576,168.29Zm-2.708,0a15.227,15.227,0,0,0-.866-6.053,3.122,3.122,0,0,0-5.671,0,15.249,15.249,0,0,0-.865,6.053,15.206,15.206,0,0,0,.865,6.039,3.126,3.126,0,0,0,5.671.007A15.173,15.173,0,0,0,112.868,168.29Z"/>
            <path class="cls-4" d="M117.55,158.66h2.762l4.668,8.482,4.658-8.482h2.786l-6.148,10.594v8.627h-2.6v-8.627Z"/>
            <path class="cls-4" d="M144.41,158.66h3.143l5.865,19.221h-2.684l-1.412-5.008h-6.71l-1.384,5.008h-2.684Zm1.564,2.292-2.733,9.835h5.466Z"/>
            <path class="cls-4" d="M153.892,158.66h2.528l1.833,15.6,2.182-10.326h2.709l2.207,10.351,1.832-15.63h2.529l-2.861,19.221H164.4l-2.606-11.42-2.591,11.42h-2.451Z"/>
            <path class="cls-4" d="M176.051,158.66h3.142l5.866,19.221h-2.684l-1.413-5.008h-6.709l-1.384,5.008h-2.684Zm1.564,2.292-2.733,9.835h5.466Z"/>
            <path class="cls-4" d="M195.282,168.806a3.608,3.608,0,0,1,1.71.971,11.9,11.9,0,0,1,1.754,2.853l2.607,5.251H198.57l-2.285-4.852a7.662,7.662,0,0,0-1.776-2.673,3.325,3.325,0,0,0-2.062-.6h-2.476v8.122h-2.6V158.66H192.7a7.26,7.26,0,0,1,4.838,1.43,5.117,5.117,0,0,1,1.681,4.132,4.6,4.6,0,0,1-1.035,3.107A4.5,4.5,0,0,1,195.282,168.806Zm-5.311-8.009v6.822h2.836a3.987,3.987,0,0,0,2.772-.837,3.306,3.306,0,0,0,.911-2.56,3.269,3.269,0,0,0-.968-2.543,4.04,4.04,0,0,0-2.818-.882Z"/>
            <path class="cls-4" d="M207,158.66q4.386,0,6.467,2.341t2.079,7.289q0,4.916-2.079,7.253T207,177.881h-3.888V158.66Zm-.053,17.085q3.274,0,4.57-1.618t1.3-5.837q0-4.264-1.292-5.876t-4.574-1.617h-1.232v14.948Z"/>
          </g>
        </g>
      </g>
    </g>
  </g>
</svg>
