<?xml version="1.0" encoding="UTF-8"?><svg id="b" xmlns="http://www.w3.org/2000/svg" viewBox="0 0 218 93.53"><defs><style>.d{fill:#fff;}.e{fill:none;}.f{fill:#e3007f;}.g{fill:#009ab4;}</style></defs><g id="c"><path class="e" d="M199.57,35.72h-15.12l-16.91,15.49c1.52,1.33,2.55,3.3,2.55,5.86v6.15l29.49-27.49Z"/><path class="e" d="M114.55,35.69c1.71,2.19,2.85,4.78,3.37,7.72v-7.71h-1.92v-.22c-.48.12-.97.19-1.45.21Z"/><path class="g" d="M209.98,18.87h-32.58l-7.37,6.79c-.77-4.91-5.1-6.79-7.93-6.79h-28.43s0-3.51,0-3.51c-.07-3.13-2.5-7.78-8.9-7.78-3.38,0-5.42,1.36-6.54,2.5-.47.48-.84.98-1.14,1.47-1.66-2.72-4.7-3.82-6.87-3.82h-8.22V0h-17.65l-.03,7.72h-16.23s0,1.37,0,1.37c-1.39-.91-3.02-1.38-4.58-1.38h-23.62c-.65-.17-1.32-.28-2.01-.31V0h-17.64l-.03,7.42h-8.14s0,17.15,0,17.15h3.05L0,38.74v23.92l20.33-18.97v22.39h17.46v-10.5l3.78,3.56v6.93h29.97v-30.37h.62v30.34h26.89c.48,0,4.83-.06,9.29-2.22,2.68-1.3,5.67-3.46,7.66-7.02v9.22h35.45v15.96l11.54,11.54,55-51.46v-15.33c0-5.12-4.13-7.88-8.01-7.88ZM216.32,41.35l-53.29,49.86-7.04-7.04-2-2.01-.86-.86v-16.94h-35.45v-13.5h44.39c3.07,0,6.34,2.17,6.34,6.2v10c13.86-12.92,32.3-30.12,33.49-31.22v-1.79h-18.1c-1.57,1.44-18.21,16.67-18.21,16.67v-4.8c-1.24,2.33-3.67,3.31-5.47,3.37h-.05s-40.47,0-40.47,0v-13.5l40.42.02c1.78,0,4.3.95,5.58,3.31v-6.18c-1.11.72-2.35,1.06-3.38,1.1h-.05s-44.48,0-44.48,0v-1.05c-1.09.69-2.3,1.02-3.31,1.05h-.05s-3.82,0-3.82,0c3.43,2.62,6.09,6.83,6.09,13.31,0,8.81-4.88,13.01-8.97,14.99-4.13,1.99-8.12,2.05-8.56,2.05h-25.22v-30.34h-3.97v30.37h-26.62v-5.98c-1.99-1.88-6.12-5.77-7.13-6.72v12.7h-14.11v-24.56L1.67,58.81v-19.34s11.3-10.59,17.68-16.57h-5.6v-13.79s3.13,0,3.13,0h5.04c-.02-.16-.03-.31-.03-.45v-.04s.03-6.93.03-6.93h14.31v6.9-.05c0,.1,0,.29-.03.55h1.23c.8,0,1.55.11,2.25.32h23.85c2.79,0,5.74,1.8,6.25,5.15v-5.16h16.3c-.04-.25-.07-.5-.08-.75v-.04l.03-6.93h14.31v6.9-.05c0,.13,0,.46-.07.88h9.97c2.47,0,6.38,1.82,6.38,6.7,0,1.97-.63,3.44-1.54,4.51.84.12,1.75.43,2.6.96v-6.09.05c0-.41.05-2.53,1.76-4.27.9-.91,2.55-2,5.35-2,5.2,0,7.17,3.68,7.23,6.15v.04s0,5.09,0,5.09h30.1c2.46.01,6.38,1.83,6.38,6.7,0,.94-.15,1.77-.39,2.49l9.97-9.18h31.92c3.07,0,6.34,2.17,6.34,6.2v14.6ZM117.92,35.7v7.71c-.52-2.94-1.66-5.53-3.37-7.72.48-.02.97-.1,1.45-.21v.22h1.92ZM167.53,51.2l16.91-15.49h15.12l-29.49,27.49v-6.15c0-2.56-1.03-4.53-2.55-5.86Z"/><rect class="d" x="89.14" y="20.04" width="8.15" height="3.91"/><path class="d" d="M85.09,43.82l13.02.02s3.24,0,3.24,3.55-3.24,3.66-3.24,3.66h-13.02v3.01h14.32s5.91,0,5.91-6.48-5.91-6.53-5.91-6.53h-14.32v2.77Z"/><path class="d" d="M209.98,20.54h-31.92l-9.97,9.18c.25-.72.39-1.55.39-2.49,0-4.87-3.91-6.69-6.38-6.69h-30.1s.01-5.1.01-5.1v-.04c-.06-2.47-2.03-6.15-7.23-6.15-2.8,0-4.45,1.09-5.35,2-1.71,1.74-1.76,3.87-1.76,4.27v-.05s0,5.05,0,5.05v1.04c-.85-.53-1.76-.84-2.6-.96.91-1.07,1.54-2.54,1.54-4.51,0-4.87-3.91-6.69-6.38-6.69h-9.97c.07-.43.07-.75.07-.89v.05s0-6.9,0-6.9h-14.31l-.03,6.93v.04c0,.24.04.5.08.75h-16.3s0,3.13,0,3.13v2.02c-.52-3.35-3.46-5.15-6.25-5.15h-23.85c-.7-.21-1.45-.32-2.25-.32h-1.23c.03-.26.03-.45.03-.55V1.67h-14.31l-.03,6.93v.04c0,.14.02.29.03.45h-5.04s-3.13,0-3.13,0v13.79h5.61C12.97,28.87,1.67,39.46,1.67,39.46v19.34l20.33-18.97v24.56h14.11v-12.7c1.01.95,5.14,4.84,7.13,6.72v5.98h26.62v-30.37h3.97v30.34h25.22c.44,0,4.44-.06,8.56-2.05,4.09-1.98,8.97-6.18,8.97-14.99,0-6.48-2.66-10.68-6.09-13.31h3.87c1.01-.03,2.22-.36,3.31-1.05v1.05h44.53c1.04-.04,2.28-.38,3.38-1.1v6.18c-1.27-2.36-3.8-3.31-5.58-3.31l-40.42-.02v13.5h40.52c1.81-.06,4.23-1.04,5.47-3.37v4.8s16.63-15.23,18.21-16.67h18.1v1.79c-1.18,1.1-19.63,18.3-33.49,31.22v-10c0-4.03-3.27-6.2-6.34-6.2h-44.39v13.5h35.45v16.94l.86.86,2,2.01,7.04,7.04,53.29-49.86v-14.6c0-4.03-3.27-6.2-6.34-6.2ZM120.81,54.27h41.26s3.21,0,3.21,3.07v13.97l-8.15,7.74v-17.54h-36.31v-7.23ZM205.03,37.48v-6.29h-22.46l-13.85,12.68v-10.19l10.56-9.72h30.7s3.21,0,3.21,3.07v13.24l-50.08,46.86-5.46-5.46,47.39-44.18ZM113.45,47.61c0,13.9-14.4,13.9-14.4,13.9h-22.08v-27.91h22.08s14.4.11,14.4,14.01ZM68.96,31.17v-7.23h12.13s0-3.9,0-3.9h-8.17v-7.23l37.32.02s3.24,0,3.24,3.55-3.24,3.66-3.24,3.66h-4.9v3.92h8.92s3.24,0,3.24,3.56-3.24,3.66-3.24,3.66h-45.3ZM97.2,5.09v3.76s.05,3.08-3.97,3.08-4.09-3.08-4.09-3.08l.02-3.76h8.05ZM120.81,31.17v-15.42s-.05-3.08,3.97-3.08,4.09,3.08,4.09,3.08l-.02,8.19h33.24s3.24.01,3.24,3.57-3.24,3.66-3.24,3.66h-41.29ZM4.81,41.1l22.48-21.06h-10.4v-7.53s19.34-.03,20.54-.03c2.33,0,3.92,1.54,3.92,3.79,0,1.66-2.14,3.5-2.14,3.5L4.81,51.87v-10.77ZM33.09,5.09v3.76s.05,3.08-3.97,3.08-4.09-3.08-4.09-3.08l.02-3.76h8.05ZM66.73,15.87v45.66h-8.15V20.04h-16.24v-7.23h21.19s3.21,0,3.21,3.07ZM54.46,24.69v36.85h-8.08V24.69s-.02-2.77,4.11-2.77,3.97,2.77,3.97,2.77ZM45.37,21.17v10.49l-4.25,3.83s-2.98,2.34-5.25-.52c-2.26-2.86.58-5.5.58-5.5l8.91-8.3ZM32.98,61.54h-7.84v-25.3c0-1.62.47-2.64,2.2-3.76,1.33-.86,3.45-.52,4.6.63.51.51,9.25,8.73,9.25,8.73v10.61l-8.21-7.74v16.83ZM122.73,46.43v-7.23l37.28.02s3.24,0,3.24,3.55-3.24,3.66-3.24,3.66h-37.28Z"/><path class="f" d="M213.19,40.26v-13.24c0-3.07-3.21-3.07-3.21-3.07h-30.7l-10.56,9.72v10.19l13.85-12.68h22.46v6.29l-47.39,44.18,5.46,5.46,50.08-46.86Z"/><path class="f" d="M29.11,11.93c4.03,0,3.97-3.08,3.97-3.08v-3.76h-8.05l-.02,3.76s.07,3.08,4.09,3.08Z"/><path class="f" d="M41.34,16.27c0-2.25-1.59-3.79-3.92-3.79-1.2,0-20.54.03-20.54.03v7.53h10.4L4.81,41.1v10.77L39.2,19.77s2.14-1.85,2.14-3.5Z"/><path class="f" d="M41.19,41.83s-8.74-8.22-9.25-8.73c-1.15-1.15-3.27-1.49-4.6-.63-1.73,1.12-2.2,2.14-2.2,3.76v25.3h7.84v-16.83l8.21,7.74v-10.61Z"/><path class="f" d="M35.87,34.97c2.26,2.86,5.25.52,5.25.52l4.25-3.83v-10.49l-8.91,8.3s-2.85,2.64-.58,5.5Z"/><path class="f" d="M42.34,12.81v7.23h16.24v41.5h8.15V15.87c0-3.07-3.21-3.07-3.21-3.07h-21.19Z"/><path class="f" d="M46.38,24.69v36.85h8.08V24.69s.16-2.77-3.97-2.77-4.11,2.77-4.11,2.77Z"/><path class="f" d="M157.12,79.05l8.15-7.74v-13.97c0-3.07-3.21-3.07-3.21-3.07h-41.26v7.23h36.31v17.54Z"/><path class="f" d="M165.34,27.51c0-3.55-3.24-3.55-3.24-3.55h-33.24s.02-8.21.02-8.21c0,0-.07-3.08-4.09-3.08s-3.97,3.08-3.97,3.08v15.42h41.29s3.24-.1,3.24-3.66Z"/><path class="f" d="M163.25,42.77c0-3.55-3.24-3.55-3.24-3.55l-37.28-.02v7.23h37.28s3.24-.1,3.24-3.66Z"/><path class="f" d="M93.23,11.93c4.02,0,3.97-3.08,3.97-3.08v-3.76h-8.05l-.02,3.76s.07,3.08,4.09,3.08Z"/><path class="f" d="M76.97,33.6v27.91h22.08s14.4,0,14.4-13.9-14.4-14.01-14.4-14.01h-22.08ZM105.32,47.58c0,6.48-5.91,6.48-5.91,6.48h-14.32v-3.01h13.02s3.24-.1,3.24-3.66-3.24-3.55-3.24-3.55l-13.02-.02v-2.77h14.32s5.91.05,5.91,6.53Z"/><path class="f" d="M117.5,27.51c0-3.55-3.24-3.55-3.24-3.55h-8.92v-3.92h4.9s3.24-.1,3.24-3.66-3.24-3.55-3.24-3.55l-37.32-.02v7.23h8.17v3.91h-12.13s0,7.23,0,7.23h45.3s3.24-.1,3.24-3.66ZM97.29,23.95h-8.15v-3.91h8.15v3.91Z"/><path class="d" d="M27.37,70.74h-3.09v3.07h-.82v-3.07h-4.5v10.44h4.5v-3.56h.82v3.56h4.5v-10.44h-1.42Z"/><path class="f" d="M25.7,75.23v-3.07h1.67v7.61h-1.67v-3.56h-3.66v3.56h-1.67v-7.61h1.67v3.07h3.66Z"/><path class="d" d="M34.39,70.74h-2.13l-4.99,10.44h4.67s.65-1.61.91-2.27h1.01c.24.65.84,2.27.84,2.27h4.94l-4.3-10.44h-.95Z"/><path class="f" d="M34.39,72.16l3.13,7.61h-1.84l-.84-2.27h-2.95l-.91,2.27h-1.46l3.64-7.61h1.24ZM34.5,76.6l-1.07-2.88-1.16,2.88h2.23Z"/><path class="d" d="M46.1,70.74h-9.06v3.84h2.98v6.6h4.51v-6.6h2.99v-3.84h-1.42Z"/><path class="f" d="M46.1,72.16v1.01h-2.99v6.6h-1.68v-6.6h-2.98v-1.01h7.64Z"/><path class="d" d="M46.1,74.23c0,1.11.46,1.87,1.06,2.43-.04.13-.11.31-.11.31l-.29.16c-.39.22-.81.63-.81,1.39,0,.06,0,.12,0,.18l.12.9c.06.69.5,1.2,1.24,1.4.7.21,1.83.34,2.51.34,1.19,0,2.29-.36,3.1-1.02.87-.7,1.37-1.71,1.37-2.78,0-1.34-.65-2.11-1.46-2.68.01-.04.03-.1.03-.1l.28-.14c.41-.23.83-.64.83-1.39,0-.06,0-.12,0-.18l-.1-.82-.02-.09c-.15-.7-.59-1.02-.94-1.18-.4-.16-1.39-.36-2.33-.36-2.64,0-4.49,1.5-4.49,3.64Z"/><path class="f" d="M52.55,73.17q.01.14-.07.19l-.28.14c-.06.02-.07.04-.1.04-.07,0-.34-.2-.4-.24-.3-.14-.8-.35-1.38-.35-.83,0-1.29.38-1.29.96,0,.61.36.77,1.61,1.34,1.26.58,2.22,1.01,2.22,2.28s-1.22,2.38-3.05,2.38c-.61,0-1.58-.12-2.14-.29-.18-.05-.19-.08-.2-.22l-.11-.83c-.01-.14-.01-.16.07-.2l.29-.16s.06-.04.08-.04.34.2.4.24c.91.48,1.51.49,1.76.49,1.02,0,1.38-.54,1.38-1.04,0-.61-.47-.8-1.49-1.25-1.18-.5-2.35-1.01-2.35-2.39s1.31-2.22,3.07-2.22c.83,0,1.63.19,1.75.24.11.05.11.1.13.2l.08.71Z"/><path class="d" d="M62.27,70.74h-2.63v5.41c0,.42,0,.93-.05,1.07-.01,0-.22.13-.68.13-.24,0-.33-.04-.4-.07,0-.18-.02-.59-.02-.59v-5.95h-4.5v6.03c0,1.06,0,2.38,1.11,3.42,1.08,1.02,2.46,1.14,3.41,1.14.59,0,2.38,0,3.76-1.24,1.26-1.12,1.3-2.61,1.33-3.93l.13-5.41h-1.45Z"/><path class="f" d="M57.08,72.16v4.54c0,.85,0,1.2.34,1.57.26.29.77.5,1.5.5s1.39-.23,1.76-.65c.38-.42.38-.98.38-1.97v-4h1.21l-.1,3.96c-.04,1.38-.11,2.24-.86,2.92-.97.88-2.33.88-2.81.88-.89,0-1.78-.13-2.44-.76-.6-.56-.66-1.26-.66-2.39v-4.61h1.67Z"/><path class="d" d="M72.46,70.74h-2.64s.04,2.37.05,3.03c-1.17-1.28-2.76-3.03-2.76-3.03h-3.25l-.05,10.44h4.07s-.04-2.41-.06-3.14c1.3,1.42,3.17,3.47,3.17,3.47l2.87-.74.02-10.04h-1.42Z"/><path class="f" d="M66.49,72.16l4.87,5.35-.1-5.35h1.2v7.52s-1,.25-1,.25l-5.12-5.62.1,5.45h-1.2l.04-7.61h1.21Z"/><path class="d" d="M81.1,70.74h-6.94v10.44h8.49v-3.84h-.53v-2.83h.4v-3.77h-1.42Z"/><path class="f" d="M81.1,72.16v.94h-3.85v2.2h3.46v.95h-3.46v2.52h3.98v1.01h-5.65v-7.61h5.52Z"/><path class="d" d="M96.8,70.74h-2.39s-1.15,2.25-1.89,3.7c-.7-1.45-1.79-3.7-1.79-3.7h-3.71l-.71,10.44h4.14s0-.54.01-.95c0,0,.5,1.05.5,1.05l2.51-.39s.54-1.02.58-1.1l.05,1.39h4.45l-.38-10.44h-1.37Z"/><path class="f" d="M89.84,72.16l2.64,5.47,2.8-5.47h1.52l.28,7.61h-1.61l-.18-5.38-2.74,5.21-.77.12-2.65-5.54-.08,5.59h-1.22l.52-7.61h1.5Z"/><polygon class="d" points="101.71 70.74 98.62 70.74 98.62 81.18 103.12 81.18 103.12 70.74 101.71 70.74"/><path class="f" d="M101.71,72.16v7.61h-1.67v-7.61h1.67Z"/><path class="d" d="M111.64,70.74h-2.43s-.97,1.05-1.33,1.45v-1.45h-4.5v10.44h4.5v-1.29c.15.21.95,1.29.95,1.29h5.77s-3.48-4.46-4.41-5.65c.97-.94,4.97-4.79,4.97-4.79h-3.51Z"/><path class="f" d="M106.46,72.16v7.61h-1.67v-7.61h1.67ZM111.64,72.16l-3.36,3.24,3.41,4.37h-2.15l-2.99-4.06,3.28-3.55h1.81Z"/><path class="d" d="M120.41,70.74h-2.63v5.41c0,.42,0,.93-.05,1.07,0,0-.22.13-.68.13-.24,0-.33-.04-.4-.07,0-.18-.02-.59-.02-.59v-5.95h-4.5v6.03c0,1.06,0,2.38,1.11,3.42,1.08,1.02,2.46,1.14,3.41,1.14.59,0,2.38,0,3.76-1.24,1.26-1.12,1.3-2.61,1.33-3.93l.13-5.41h-1.45Z"/><path class="f" d="M115.22,72.16v4.54c0,.85,0,1.2.34,1.57.26.29.77.5,1.5.5s1.39-.23,1.76-.65c.38-.42.38-.98.38-1.97v-4h1.21l-.1,3.96c-.04,1.38-.11,2.24-.86,2.92-.97.88-2.33.88-2.81.88-.89,0-1.78-.13-2.44-.76-.6-.56-.66-1.26-.66-2.39v-4.61h1.67Z"/></g></svg>