<svg xmlns="http://www.w3.org/2000/svg" width="560" height="290"><defs><style>.cls-2,.cls-6{fill:#fff}.cls-6{stroke:#00a63c;stroke-linejoin:round;stroke-width:2px}.cls-5{fill:#231815}.cls-7{fill:#00a63c}</style></defs><g id="レイヤー_2" data-name="レイヤー 2"><g id="object"><rect width="560" height="290" rx="10" fill="#e6e6e6"/><path class="cls-2" d="M555 65v215a5 5 0 01-5 5H10a5 5 0 01-5-5V65z"/><path d="M24.19 30.37a14.11 14.11 0 00-2.66.16v-1.72a14.11 14.11 0 002.66.16h2.67v-3.3h-1.92a14.34 14.34 0 00-2.37.13v-1.69a11.18 11.18 0 002.37.15h1.92v-.85a14.16 14.16 0 00-.15-2.29h1.87a13.5 13.5 0 00-.13 2.29v.85h.81a9.33 9.33 0 002.13-.15v1.66a16.43 16.43 0 00-2-.1h-.91V29h.81a25.15 25.15 0 003.56-5 8.79 8.79 0 00.73-1.71l1.61.93a5.5 5.5 0 00-.63.91A26.67 26.67 0 0131.18 29H32a18.64 18.64 0 002.73-.13v1.64a21.72 21.72 0 00-2.49-.11h-2.33a35 35 0 01-3 2.76h3.85a18.28 18.28 0 002.37-.1 22.08 22.08 0 00-.08 2.73v6a21.23 21.23 0 00.1 2.57h-1.61v-1.17h-5.85v1.59H24a21.76 21.76 0 00.16-2.84v-6.6c-1.12.83-1.4 1.07-2.6 1.85a4.56 4.56 0 00-.91-1.41 30.34 30.34 0 007.25-5.41zm1.5 7h5.85v-2.89h-5.85zm0 4.49h5.85v-3.19h-5.85zM44.54 23c-.18.34-.18.34-1 2.32-.76 1.68-1.54 3.08-2.66 5.13a11.38 11.38 0 012.62 3.49 9 9 0 011 4A3.23 3.23 0 0143.09 41a5.3 5.3 0 01-2.6.45c-.42 0-1 0-1.77-.08a5.52 5.52 0 00-.36-1.77 13.79 13.79 0 002.49.21c1.43 0 1.93-.52 1.93-2.11a8.25 8.25 0 00-1.23-4.18A11.21 11.21 0 0039 30.69a38.7 38.7 0 003.45-7.23h-5.16v17.89a27.15 27.15 0 00.18 3.53h-2a26.18 26.18 0 00.15-3.56v-17c0-.86 0-1.49-.1-2.37.67.05 1.14.08 2.13.08h4.08a11.67 11.67 0 002-.11zm8.64 1.76a14 14 0 00-2-2.92l1.56-.44a20.21 20.21 0 012.16 3.36h3.64a16.4 16.4 0 00-1.74-3.36l1.63-.4a29.91 29.91 0 011.84 3.72H63a17.22 17.22 0 002.24-3.69l1.66.59a26.82 26.82 0 01-2.08 3.1h2.11a27.23 27.23 0 002.89-.11 15.57 15.57 0 00-.11 2.19V29a10.76 10.76 0 00.13 1.87h-1.77v-4.71H49.93v4.68h-1.75a14 14 0 00.13-1.84v-2.16a19 19 0 00-.1-2.19 27.84 27.84 0 002.86.11zm1.56 9.57a22.44 22.44 0 00-2.79.1 14.58 14.58 0 00.11-2.08v-2.26a12 12 0 00-.06-1.95 23.57 23.57 0 002.53.1h9a22.79 22.79 0 002.49-.1 18 18 0 00-.07 2v2.24a13.33 13.33 0 00.1 2.08 27.41 27.41 0 00-2.78-.1h-3.9a27.24 27.24 0 01-1.25 2.54h7.44a20.6 20.6 0 002.47-.1 14.49 14.49 0 00-.13 2.44v3a14.37 14.37 0 00.1 2.49h-1.75v-1.07H51.69v1h-1.76a19.76 19.76 0 00.15-2.5v-3a15.13 15.13 0 00-.08-2.39 21 21 0 002.5.1h3.9a15.8 15.8 0 001.25-2.54zm-3.05 7.87h14.56v-3.9H51.69zm2-9.23h10.64v-3.38H53.64zM82 24.37a8.8 8.8 0 00-.34 1.77c-1.09 7.41-3.2 12.4-6.87 16.22A5.58 5.58 0 0073.17 41a16.79 16.79 0 003.77-5.15 30.41 30.41 0 002.68-9 22 22 0 00.26-2.45 2.47 2.47 0 000-.41zm7.2-.39a31.84 31.84 0 001.19 6.24c1.25 4.57 3.39 8.42 5.91 10.74a5.49 5.49 0 00-1.62 1.45c-3.45-3.66-6-9.67-7.07-16.33a10.44 10.44 0 00-.34-1.71zM92 22.6a18.81 18.81 0 012.6 4.08l-1.32.76a19.7 19.7 0 00-2.58-4.19zm3-1.35a20.23 20.23 0 012.6 4.11l-1.3.7a20.71 20.71 0 00-2.58-4.14zm24.94 21.86a48.2 48.2 0 00-8.32-8 27.94 27.94 0 01-5 4.65 33.36 33.36 0 01-5.1 3.12 5.65 5.65 0 00-1.27-1.71 21.3 21.3 0 005.28-3 28.22 28.22 0 009.28-11.73c.05-.15.08-.18.13-.31a.91.91 0 00.08-.18 5.93 5.93 0 01-.63 0l-8.68.13a18 18 0 00-2.68.21v-2.1a12.62 12.62 0 002 .13h.68l9.28-.11a4.57 4.57 0 001.66-.21l1.1 1.12a4.71 4.71 0 00-.73 1.28 31.92 31.92 0 01-4.29 7.28 65.14 65.14 0 018.66 7.8z" fill="#3c3c3c"/><path d="M62.03 104h436.28M62.03 155.46h436.28M62.03 225.71h436.28" stroke="#00a63c" stroke-linejoin="round" stroke-width="2" fill="none"/><path class="cls-5" d="M79 119.8h-1.95v.4h-1.38v-3.61l-.82.36-.49-1.09a10.94 10.94 0 002.6-1.35h-2.3v-1.11h1.82v-.7H75v-1.09h1.46v-1h1.41v1h1.28v.57a8.76 8.76 0 00.57-1.21l1.23.4a8.62 8.62 0 01-1.07 2h.87v1.11h-1.9c-.25.23-.5.45-.77.66h2.27v5H79zm0-2.8v-.77h-1.95v.77zm-1.91 1.78H79v-.81h-1.95zm.84-5.35h.46c.18-.23.35-.47.5-.7h-1zm7-2.13c0 .22-.21.69-.45 1.4s-.43 1.19-.54 1.42a4.4 4.4 0 01.87 2.5 3.68 3.68 0 01-.11.94 1.64 1.64 0 01-.36.65 1.21 1.21 0 01-.56.34 3.52 3.52 0 01-1 .1h-.09l-.29-1.28h.71a.32.32 0 00.17-.12.61.61 0 00.13-.28 2.17 2.17 0 000-.47 3.59 3.59 0 00-.69-2.1.31.31 0 01-.07-.2.58.58 0 010-.18 10.8 10.8 0 00.54-1.91h-.9v8.13H81V111h3.61zm6.83 8.54a2.88 2.88 0 01-2.42-1 5.23 5.23 0 01-.77-3.18 5.17 5.17 0 01.78-3.17 3.42 3.42 0 014.83 0 5.13 5.13 0 01.78 3.16 5.23 5.23 0 01-.77 3.19 2.88 2.88 0 01-2.43 1zm0-7.1a1.09 1.09 0 00-1.07.7 7.7 7.7 0 000 4.46 1.13 1.13 0 001.07.71 1.1 1.1 0 001.07-.72 5.37 5.37 0 00.34-2.23 5.58 5.58 0 00-.33-2.23 1.1 1.1 0 00-1.08-.69zm4.53 6.62v-1.52h.18a4.53 4.53 0 002.22.68c1.21 0 1.81-.48 1.81-1.44a1.06 1.06 0 00-.5-.94 2.73 2.73 0 00-1.48-.33 7.87 7.87 0 00-1.7.24h-.2v-4.39h5.5V113h-3.84v1.64h.91a3.53 3.53 0 012.31.65 2.19 2.19 0 01.8 1.8 2.56 2.56 0 01-.92 2 3.66 3.66 0 01-2.47.78 6.91 6.91 0 01-2.62-.51zm11.18-2.55h-3.91v-1.37h3.91zm7.53 2.86h-6.1v-1.26a20.85 20.85 0 003.11-2.69 2.78 2.78 0 00.8-1.68 1.15 1.15 0 00-.38-.91 1.63 1.63 0 00-1.06-.32 3.93 3.93 0 00-2.13.72h-.13V112a7.09 7.09 0 012.54-.51 3.48 3.48 0 012.21.62 2.08 2.08 0 01.78 1.73 3.36 3.36 0 01-.63 1.83 13.82 13.82 0 01-2.94 2.7H115zm7.77-2.03a10 10 0 01-1.72 1.39 10.83 10.83 0 01-1.88 1l-.78-1.13a12.76 12.76 0 001.93-1.12 12.33 12.33 0 001.24-1.07zm1.81 2.65H123v-3.65c-2 .11-3.33.17-4.1.18l-.19-1.34h.25q.87 0 2.73-.06a25.59 25.59 0 00-2.22-1.87l1-.92a7.82 7.82 0 01.83.61c.29-.29.57-.58.82-.87-1.19.06-2.09.1-2.71.1l-.19-1.24c2 0 3.73-.09 5.18-.23a19.93 19.93 0 003-.44l.73 1.15a30 30 0 01-4.15.53 18 18 0 01-1.72 1.83l.87.74a18.37 18.37 0 002.69-2.7l1.39.7a23.1 23.1 0 01-2.7 2.5l2-.12c-.2-.26-.41-.53-.63-.79l1.19-.65a24.46 24.46 0 012.16 2.74l-1.32.68-.57-.82c-.63.05-1.54.12-2.73.19zm4.53-1.49l-.93 1.24a12.23 12.23 0 01-1.9-1.19 7.29 7.29 0 01-1.45-1.32l1-.9a11.59 11.59 0 001.53 1.27 10.2 10.2 0 001.75.9zm2-2.26a12 12 0 01-.64 3.12l-.94-.23a14.72 14.72 0 00.49-3zm1.48 3.76h-1.29v-4.23l-1.6.12-.13-1h.84l.65-.87c-.53-.61-1-1.15-1.48-1.61l.75-.78.17.16a9.81 9.81 0 00.87-1.59l1.14.44a13.77 13.77 0 01-1.27 1.94l.46.51a12.5 12.5 0 001-1.74l1.13.51a24 24 0 01-2.09 3l1.06-.07a5.13 5.13 0 00-.27-.75l1-.28c.17.47.39 1.15.64 2l-1 .26a3.56 3.56 0 00-.09-.38 4.29 4.29 0 01-.5.07zm1.56-1.74l-1 .19c-.18-1-.29-1.77-.33-2.2l1-.15zm2.23-2a4.28 4.28 0 01-.54 2.19 3.85 3.85 0 01-1.63 1.48l-.7-1a2.87 2.87 0 001.2-1.26 3.73 3.73 0 00.32-1.52v-.88h1.35zm2-1.41c-1 .12-2.35.25-4.18.38l-.21-1.16h.78c.2-.41.41-.88.61-1.4h-1.29v-1.12h2.09v-1.21h1.37v1.21h2.27v1.12h-3c-.18.39-.39.84-.65 1.32l1.65-.12c-.13-.23-.28-.46-.45-.71v-.09l1.11-.37a20.84 20.84 0 011.54 2.51l-1.29.47c-.09-.29-.22-.56-.36-.83zm1.71 3.88a1.17 1.17 0 01-.13.59.78.78 0 01-.38.36 1.26 1.26 0 01-.47.14h-.63a4.41 4.41 0 01-.79 0 1.09 1.09 0 01-.4-.16.78.78 0 01-.26-.33 1.15 1.15 0 01-.1-.52v-3.51h1.34v3.17c0 .13.06.19.16.19h.27a.25.25 0 00.16-.05.17.17 0 00.06-.14v-1.31l1.12.15zm6.63-3.58h-1.83v-1.94h1.83zm0 4.22h-1.83v-1.94h1.83zM74.7 137.78l-.3-.65a9 9 0 001.67-.61 13.23 13.23 0 001.64-.93 6.72 6.72 0 001.18-.92h-3.08v-3.8h3.49V130h-4.47v-.65h4.47v-1h.83v1h4.57v.65h-4.57v.88h3.54v3.8h-3.25a10.3 10.3 0 002.27 1.47 11.36 11.36 0 002.43.9l-.43.71a11.92 11.92 0 01-2.43-1 12.4 12.4 0 01-2.14-1.42v2.86h-.81v-2.87a9.67 9.67 0 01-2.06 1.41 12.62 12.62 0 01-2.55 1.04zm1.91-5.31h2.7v-1h-2.7zm2.7.56h-2.7v1.05h2.7zm.81-.56h2.74v-1h-2.74zm2.74.56h-2.74v1.05h2.74zm3.14 4.54l-.47-.57a10.45 10.45 0 002.84-2.34l.69.43a9.42 9.42 0 01-1.42 1.39 11.29 11.29 0 01-1.64 1.09zm-.24-7.57v-.66h4.52v-.95h.87v.95h4.57v.66zm4.47 8.06h-1.4l-.08-.74h1.1c.31 0 .46-.13.46-.38v-2.89h-3.46v-3h7.81v3h-3.49v3.23a.67.67 0 01-.28.55 1 1 0 01-.66.27zm3.59-6.38h-6.15v1.75h6.15zm1.66 5.77a11.12 11.12 0 01-1.55-1.05 12.2 12.2 0 01-1.48-1.3l.64-.48a11.13 11.13 0 001.47 1.28 8.67 8.67 0 001.45.9zm1.52.24l-.55-.23a10 10 0 00.44-2.46l.56.07a11.4 11.4 0 01-.15 1.35 6.44 6.44 0 01-.3 1.27zm2.8-4h1.48c0 1.13 0 2-.11 2.62a3.64 3.64 0 01-.25 1.19 1.22 1.22 0 01-.46.44 1.77 1.77 0 01-.85.17h-.88l-.08-.66a7.37 7.37 0 001.07 0 .68.68 0 00.37-.2 1 1 0 00.25-.44 4.41 4.41 0 00.11-.84v-1.64H97.8v.2h-.72v-5.61h4.25v.6h-1.57v1H101v.57h-1.24v1h1.29v.57h-1.29zm-1.83 3.25l-.16-1.94.45-.06.13 1.94zm-.11-7.46v1h1.24v-1zm0 1.6v1h1.24v-1zm0 1.55v1.06h1.24v-1.06zm1.12 3.89l-.26-1.67.4-.06.28 1.67zm.82-.5l-.27-1.31.35-.08.28 1.31zm6.91 2.06a7.19 7.19 0 01-1.63-2.23 9.38 9.38 0 01-.86-2.86h-1.12a12.62 12.62 0 01-.38 2.92 6.69 6.69 0 01-.9 2.2l-.59-.42a5.51 5.51 0 00.76-2.07 15.28 15.28 0 00.27-3v-3.79h4.25V133h-1.53a8.17 8.17 0 00.76 2.44 6.81 6.81 0 001.5 2.06zm-1-8.61h-2.59v2.92h2.59zm5.63 5.32a6.76 6.76 0 01-3.26 3.36l-.43-.55a6.1 6.1 0 003-3.36c-.86-.64-1.52-1.1-2-1.37l.49-.57q.57.36 1.71 1.17a10 10 0 00.24-2.3h-3v-.67h3v-1.95h.84v1.95h3.43v6.38a.4.4 0 00.33.42 3.71 3.71 0 00.59 0 1.92 1.92 0 00.49 0 .43.43 0 00.25-.16 1.15 1.15 0 00.16-.5 11.8 11.8 0 000-1.27l.74.09V137a1 1 0 01-.16.6.87.87 0 01-.48.32 3.57 3.57 0 01-1 .1h-1a.86.86 0 01-.61-.28 1.09 1.09 0 01-.21-.71v-5.86h-2.6a11.25 11.25 0 01-.32 2.87q1.27.94 1.74 1.35l-.59.62a15.78 15.78 0 00-1.35-1.22zm11.77 2.9l-.17-.68a4.26 4.26 0 002.23-1 3.57 3.57 0 00.92-2.59 3.36 3.36 0 00-.87-2.23 2.72 2.72 0 00-2.11-.87 15.14 15.14 0 01-.65 4.77c-.43 1.27-1.07 1.91-1.9 1.91a1.44 1.44 0 01-1.34-.77 3.72 3.72 0 01-.44-1.87 5 5 0 011.22-3.28 3.88 3.88 0 013.12-1.45 3.61 3.61 0 013.71 3.73 4 4 0 01-3.72 4.33zm-.74-7.28a3.08 3.08 0 00-2 1.39 4.59 4.59 0 00-.8 2.6 3.07 3.07 0 00.28 1.32.76.76 0 00.72.52c.53 0 1-.53 1.27-1.63a16.78 16.78 0 00.53-4.2zm13.91 7.59h-1.62l-.13-.74H136a.55.55 0 00.38-.13.38.38 0 00.16-.32v-5.92h-3.35a4.93 4.93 0 001 2.3 5.73 5.73 0 002 1.77l-.52.62a6.86 6.86 0 01-1.77-1.55 6.29 6.29 0 01-1.1-1.93 6 6 0 01-3.09 3.5l-.41-.55a5.3 5.3 0 002.95-4.16H129v7.19h-.81v-7.84h4.13v-1.85h.86v1.85h4.25v6.82a.89.89 0 01-.3.69 1.22 1.22 0 01-.85.25zm7.07 0v-2.17h-2.48v-.62h2.48v-1.3H141v-.6h1.2l-.58-1.54h-1.42v6.34h-.81v-7h4V130h-4.59v-.66h4.59v-1h.84v1h4.59v.66h-4.59v1.15h4v6a.83.83 0 01-.3.67 1 1 0 01-.7.25h-1.33l-.13-.74h1.16a.48.48 0 00.3-.11.35.35 0 00.13-.28v-5.13h-1.46l-.68 1.54h1.36v.6h-2.42v1.3h2.45v.62h-2.45V138zm1.7-6.23h-2.64l.54 1.54h1.49zm13.22 5.23h-7v.83h-.85v-8.46h8.77v8.47h-.88zm-7-.7h7V130h-7zm19.37 1.95h-1.06a7.49 7.49 0 010-9.9h1.06v.05a6.21 6.21 0 00-1.43 2 6.86 6.86 0 000 5.87 6.21 6.21 0 001.43 2zm3.48-4.12H173a10.54 10.54 0 01-1 4l-.55-.26a6.81 6.81 0 00.44-1.24 13.23 13.23 0 00.28-1.54 20.19 20.19 0 00.1-2.18v-4.07h2.64v8.54a.58.58 0 01-.24.47 1 1 0 01-.62.18h-.94l-.09-.66h.74c.26 0 .39-.1.39-.32zm-1.15-.57h1.15v-1.86H173v1.86zm0-2.45h1.14v-1.69H173zm4.57 1.44a8.23 8.23 0 01-2.16 2.26l-.39-.45a7.16 7.16 0 001.73-1.81h-1.52V132h1.89a7.92 7.92 0 00.48-1h-2.07v-.59h1c-.14-.35-.35-.82-.62-1.41l.69-.23c.32.72.56 1.27.7 1.64h.52a9.66 9.66 0 00.27-1.9h.82a8.62 8.62 0 01-.3 1.85h1c.21-.42.43-1 .69-1.65l.76.17c-.24.53-.48 1-.72 1.48h1.25v.59h-1.94a8.05 8.05 0 00.45 1h1.75v.6h-1.38a7.7 7.7 0 001.81 1.73l-.51.56a9.11 9.11 0 01-2.12-2.29zm.88 2.26a4 4 0 01-2.67 3.35l-.35-.53a3.62 3.62 0 001.65-1.32 3 3 0 00.55-1.5h-1.29v-.61h1.34v-1.08h.81v1.08h2.4v.65a11.72 11.72 0 01-.09 1.56 3.77 3.77 0 01-.2 1 1 1 0 01-.28.43.91.91 0 01-.36.2 2.44 2.44 0 01-.61.06h-.92l-.09-.69h.69a1.71 1.71 0 00.5-.05.6.6 0 00.31-.23 1.84 1.84 0 00.22-.71 12.06 12.06 0 00.08-1.57zm-.1-3.89c-.1.23-.24.58-.44 1h1.36c-.2-.42-.35-.77-.45-1zm10.38 6.77a17.87 17.87 0 01-2.26.13 11.27 11.27 0 01-1.16-.06 4.94 4.94 0 01-1.07-.22 2.1 2.1 0 01-.82-.45 1.83 1.83 0 01-.47-.65 2.23 2.23 0 01-.16-.9 3.84 3.84 0 011.8-2.83c-.1-1.22-.16-2.46-.18-3.73h.87v.49c0 .82 0 1.75.1 2.78a18.47 18.47 0 013-1.23l.15.76a12.07 12.07 0 00-2 .74 6.74 6.74 0 00-1.7 1 4.34 4.34 0 00-.86 1 2.4 2.4 0 00-.28 1 1.72 1.72 0 00.08.52 1.14 1.14 0 00.26.42 1.58 1.58 0 00.59.36 3.23 3.23 0 00.88.21h1a18.4 18.4 0 002.34-.14zm-.34-7.8l-.62.27a14.49 14.49 0 00-.78-1.49l.58-.26a10.25 10.25 0 01.82 1.48zm1.33-.22l-.62.25a11.16 11.16 0 00-.77-1.47l.57-.27a14.24 14.24 0 01.82 1.49zm6.55 5.2l-.59.59a5.27 5.27 0 00-1.26-.62 4 4 0 00-1.36-.24 3.1 3.1 0 00-1.69.36 1.13 1.13 0 00-.54 1 1 1 0 00.63.87 4.58 4.58 0 001.95.31 16.6 16.6 0 002.68-.22v.77a17.15 17.15 0 01-2.72.19 5.29 5.29 0 01-2.55-.49 1.56 1.56 0 01-.87-1.43 1.68 1.68 0 01.83-1.52 3.92 3.92 0 012.14-.52 4.68 4.68 0 012.07.46 10.18 10.18 0 01-1-1.54h-4.18v-.69h3.87a10.94 10.94 0 01-.46-1.27h-3.1v-.68H193c-.1-.46-.17-.9-.22-1.33l.86-.07c.09.63.16 1.1.23 1.4h2.72v.68H194a7 7 0 00.47 1.27h2.59v.69h-2.27a16 16 0 001.45 2.03zm1.98 2.82l-.56-.23a9.17 9.17 0 00.44-2.46l.56.07a9.32 9.32 0 01-.14 1.35 8.3 8.3 0 01-.3 1.27zm2.79-4h1.49c0 1.13-.05 2-.11 2.62a3.94 3.94 0 01-.25 1.19 1.3 1.3 0 01-.46.44 1.82 1.82 0 01-.86.17h-.88l-.07-.66a7.47 7.47 0 001.07 0 .72.72 0 00.37-.2 1 1 0 00.25-.44 3.83 3.83 0 00.1-.84v-1.64h-2.62v.2h-.72v-5.61h4.24v.6H201v1h1.26v.57H201v1h1.29v.57H201zm-1.82 3.25l-.12-1.94.45-.06.12 1.94zm-.11-7.46v1h1.23v-1zm0 1.6v1h1.23v-1zm0 1.55v1.06h1.23v-1.06zm1.12 3.89l-.27-1.67.41-.06.28 1.67zm.81-.5l-.27-1.31.36-.08.27 1.31zm6.92 2.06a7.21 7.21 0 01-1.64-2.23 9.65 9.65 0 01-.85-2.86h-1.13a12.62 12.62 0 01-.37 2.92 6.9 6.9 0 01-.91 2.2l-.58-.42a5.69 5.69 0 00.76-2.07 15.28 15.28 0 00.27-3v-3.79h4.25V133h-1.53a7.86 7.86 0 00.75 2.44 6.67 6.67 0 001.51 2.06zm-1-8.61h-2.59v2.92h2.59zm4.98.38c-.27-.5-.5-.9-.68-1.21l.83-.19c.27.48.52.94.75 1.4h2.45c.35-.7.58-1.17.69-1.43l.93.22c-.22.4-.47.8-.74 1.21h2.94v.64h-10v-.64zm1.14 5.74h-2.59v2.51h-.81v-6.68h4.23v5.87a.62.62 0 01-.26.54 1 1 0 01-.67.2h-1.07l-.11-.7h.85a.46.46 0 00.29-.1.27.27 0 00.14-.24zm0-2.38V132h-2.59v1.19zm-2.59 1.79h2.59v-1.18h-2.59zm4.7 1.07v-4.38h.84v4.38zm2.21 2H216l-.09-.73H217a.44.44 0 00.31-.11.32.32 0 00.13-.27v-5.82h.83v6.16a.68.68 0 01-.26.56 1 1 0 01-.64.19zm4.39.09v-4.54c-.4 0-1 0-1.72.09l-.1-.63h.55c.26-.3.57-.69.94-1.18-.17-.19-.67-.68-1.52-1.48l.47-.43.21.19a13.1 13.1 0 001.08-1.79l.73.27a14.61 14.61 0 01-1.36 1.93l.81.75a17.39 17.39 0 001.18-1.8l.71.29a33 33 0 01-2.44 3.23l1.8-.11c-.13-.41-.22-.69-.28-.83l.69-.15c.15.42.34 1 .57 1.72l-.69.18c0-.08-.06-.2-.12-.37l-.76.07v4.6zm-1.16-1l-.67-.12a12.14 12.14 0 00.47-2.66l.76.08a10.14 10.14 0 01-.56 2.7zm2.81-.7c-.13-.65-.24-1.33-.32-2l.7-.07c.14 1 .25 1.64.33 2zm.54 1.46v-.63h2.7v-2.14h-2v-.66h2v-1.22h.84v1.22h2.2v.66h-2.2v2.14h2.68v.63zm3.24-5.69a11.3 11.3 0 01-2.7 1.27l-.28-.54a10.57 10.57 0 002.36-1.17 9.11 9.11 0 01-1.74-1.82l.6-.3a8.35 8.35 0 001.75 1.7 5.11 5.11 0 001.67-1.88h-4.57v-.62h5.34l.34.31a7 7 0 01-2.16 2.62 12.35 12.35 0 002.44 1.13l-.42.61a12.19 12.19 0 01-2.63-1.31zm12.56 5.2h-7.31v.57h-.85v-7.62h4v-1.76h.87v1.76h4.12V138h-.86zm-4.13-6.43h-3.18v2.45h3.18zm-3.18 5.76h3.18v-2.67h-3.18zm7.31-3.31V131h-3.26v2.45zm-3.26 3.31h3.26v-2.67h-3.26zm8.63-3.47a7.52 7.52 0 01-1.87 5h-1.05v-.05a6.25 6.25 0 001.43-2 6.83 6.83 0 000-5.86 6.25 6.25 0 00-1.43-2v-.06h1.05a7.52 7.52 0 011.87 4.97zM79 172.35a12 12 0 01-4 2l-.57-1.18a13.47 13.47 0 003.66-1.8h-2.53v-4h3.38v-.52h-4.13v-1.12h4.13V165h1.51v.74h4.27v1.12h-4.27v.52h3.48v4h-2.68a13 13 0 004 1.73l-.72 1.29a11.61 11.61 0 01-4-2v2.31H79zM77 169h1.94v-.58H77zm1.94.85H77v.58h1.94zm1.51-.85h2v-.58h-2zm2 .85h-2v.58h2zm12.11 4.24H89.4v-1.17h1.74v-4.63H89.4v-1.08a2.85 2.85 0 001.46-.28 1.11 1.11 0 00.5-.86h1.5v6.85h1.7zm7.18-8.03v1.37h-.15a2.73 2.73 0 00-1.23-.25 2.24 2.24 0 00-2.45 2.28 3.86 3.86 0 011.92-.63 2.77 2.77 0 011.92.67 2.49 2.49 0 01.73 1.9 2.68 2.68 0 01-.88 2.06 3.2 3.2 0 01-2.24.8 3 3 0 01-2.41-1 4.08 4.08 0 01-.84-2.77 4.85 4.85 0 011.11-3.42 4.15 4.15 0 013.2-1.19 5.75 5.75 0 011.32.18zm-3.84 4.26v.5q0 2.25 1.47 2.25a1.2 1.2 0 001-.42 1.71 1.71 0 00.36-1.16c0-1-.51-1.46-1.54-1.46a2.87 2.87 0 00-1.29.29zm12.27 1.75a10 10 0 01-1.72 1.38 11.27 11.27 0 01-1.88 1.05l-.77-1.14a12.09 12.09 0 001.92-1.12 12.33 12.33 0 001.24-1.07zm1.81 2.64h-1.63v-3.65c-2 .11-3.33.17-4.1.18l-.18-1.34h.24c.58 0 1.49 0 2.73-.05a26.14 26.14 0 00-2.22-1.88l1-.92a7.5 7.5 0 01.83.62c.3-.3.57-.59.82-.88-1.18.07-2.09.1-2.71.1l-.19-1.23c2 0 3.74-.1 5.18-.23a20.94 20.94 0 003-.45l.73 1.16a32.08 32.08 0 01-4.15.52 16.94 16.94 0 01-1.72 1.83l.87.74a17.88 17.88 0 002.69-2.7l1.39.7a22.27 22.27 0 01-2.7 2.5l2-.11c-.21-.27-.42-.54-.64-.8l1.19-.65a24.46 24.46 0 012.16 2.74l-1.32.68-.57-.82c-.63.06-1.54.12-2.73.2zm4.53-1.48l-.93 1.23a12.9 12.9 0 01-1.9-1.18 7 7 0 01-1.45-1.33l1-.89a13.91 13.91 0 001.53 1.26 11 11 0 001.75.91zm2-2.23a11.81 11.81 0 01-.64 3.12l-.94-.23a14 14 0 00.49-3zm1.49 3.76h-1.3v-4.23q-1 .1-1.59.12l-.14-1.05h.84c.25-.32.46-.61.65-.87-.53-.61-1-1.15-1.48-1.61l.75-.78.17.16a11.23 11.23 0 00.88-1.58l1.13.43a13.77 13.77 0 01-1.27 1.94l.46.51a12.5 12.5 0 001-1.74l1.13.51a24 24 0 01-2.09 3l1.06-.07a5.13 5.13 0 00-.27-.75l1-.28c.17.48.39 1.15.64 2l-1 .26a1.65 1.65 0 00-.08-.37l-.5.07zm1.55-1.73l-1 .19c-.18-1-.29-1.78-.32-2.21l1-.15zm2.24-2a4.29 4.29 0 01-.55 2.19 3.79 3.79 0 01-1.63 1.48l-.7-1a2.8 2.8 0 001.2-1.25 3.78 3.78 0 00.32-1.53v-.87h1.36zm2-1.41c-1 .12-2.35.25-4.18.39l-.21-1.17h.78c.21-.42.41-.89.61-1.41h-1.28v-1.11h2.09V165h1.36v1.21h2.27v1.11h-3c-.18.39-.39.84-.65 1.33l1.65-.13c-.13-.22-.28-.46-.45-.7v-.09l1.1-.38a20.84 20.84 0 011.54 2.51l-1.29.47c-.13-.22-.22-.48-.36-.76zm1.71 3.88a1.17 1.17 0 01-.13.59.88.88 0 01-.37.37 1.34 1.34 0 01-.47.13h-.63a4.46 4.46 0 01-.8-.05 1 1 0 01-.39-.16.73.73 0 01-.27-.33 1.13 1.13 0 01-.1-.51V170h1.35v3.18q0 .18.15.18h.28a.2.2 0 00.15 0 .15.15 0 00.06-.13v-1.32l1.12.15zm6.62-3.63h-1.83v-1.93h1.83zm0 4.22h-1.83v-1.93h1.83zM74.7 192.2l-.3-.65a9.77 9.77 0 001.67-.6 14.79 14.79 0 001.64-.94 6.27 6.27 0 001.18-.92h-3.08v-3.8h3.49v-.88h-4.47v-.65h4.47v-1h.83v1h4.57v.65h-4.57v.88h3.54v3.8h-3.25a10.71 10.71 0 002.27 1.48 12.55 12.55 0 002.43.9l-.43.7a11.92 11.92 0 01-2.43-1 12.4 12.4 0 01-2.14-1.41v2.85h-.81v-2.87a10.05 10.05 0 01-2.06 1.42 12.56 12.56 0 01-2.55 1.04zm1.91-5.31h2.7v-1h-2.7zm2.7.56h-2.7v1.05h2.7zm.81-.56h2.74v-1h-2.74zm2.74.56h-2.74v1.05h2.74zM86 192l-.47-.57a10.45 10.45 0 002.84-2.34l.69.43a9.42 9.42 0 01-1.42 1.39A10.52 10.52 0 0186 192zm-.22-7.53v-.66h4.52v-1h.87v1h4.57v.66zm4.47 8.06h-1.4l-.08-.73h1.1c.31 0 .46-.13.46-.39v-2.89h-3.48v-3h7.81v3h-3.49v3.23a.69.69 0 01-.28.56 1.09 1.09 0 01-.66.21zm3.59-6.37h-6.17v1.74h6.15zm1.66 5.76a10.28 10.28 0 01-1.55-1 11.39 11.39 0 01-1.48-1.3l.64-.48a11.13 11.13 0 001.47 1.28 8 8 0 001.45.9zm1.5.19l-.55-.23a10 10 0 00.44-2.46l.56.07a11.4 11.4 0 01-.15 1.35 6.26 6.26 0 01-.3 1.27zm2.8-4h1.48c0 1.14 0 2-.11 2.62a3.64 3.64 0 01-.25 1.19 1.15 1.15 0 01-.46.44 1.77 1.77 0 01-.85.17h-.88l-.08-.66a10.56 10.56 0 001.07 0 .75.75 0 00.37-.2 1 1 0 00.25-.45 4.18 4.18 0 00.11-.84v-1.64H97.8v.2h-.72v-5.64h4.25v.6h-1.57v1H101v.57h-1.24v1h1.29v.57h-1.29zm-1.83 3.25l-.12-1.94.45-.06.13 1.95zm-.11-7.46v1h1.24v-1zm0 1.6v1h1.24v-1zm0 1.56v1.05h1.24v-1.05zm1.12 3.88l-.26-1.66.4-.07.28 1.67zm.82-.5l-.27-1.31.35-.08.28 1.31zm6.91 2.06a7.19 7.19 0 01-1.63-2.23 9.3 9.3 0 01-.86-2.86h-1.12a12.62 12.62 0 01-.38 2.92 6.6 6.6 0 01-.9 2.2l-.59-.42a5.53 5.53 0 00.76-2.06 15.35 15.35 0 00.27-3v-3.79h4.25v4.13h-1.53a8.08 8.08 0 00.76 2.44 6.68 6.68 0 001.5 2.06zm-1-8.61h-2.59v2.92h2.59zm2.29 8.52l-.51-.52a7.71 7.71 0 002-2.9 10.69 10.69 0 00.8-3.78h.88q-.17 4.79-3.17 7.2zm9.44 0a11.74 11.74 0 01-2.24-3.69 13.41 13.41 0 01-1-4.49h-4.4v-.65h5.25v.1a12.16 12.16 0 00.3 2.76 12.56 12.56 0 001.06 2.82 10.84 10.84 0 001.74 2.56zm1.25-.05v-.63h4.63v-.85h-4v-.66h4v-.77h-3.56V186h3.56v-.73h-4.53v-.6h4.53v-.76c-1.42.06-2.58.1-3.47.11l-.1-.6c1.11 0 2.42 0 3.93-.13s2.69-.19 3.53-.33l.34.62c-.59.09-1.73.19-3.41.28v.81h4.59v.6h-4.59v.73h3.71v3.43h-3.71v.77h4.12v.66h-4.12v.85h4.68v.63zm4.63-5.77h-2.76v.86h2.76zm0 1.39h-2.76v.89h2.76zm3.72-1.39h-2.9v.86H127zm0 1.39h-2.9v.89H127zm3.87-.31a15.74 15.74 0 00-1.18-1.48l.59-.45a15.35 15.35 0 011.19 1.45zm-.25 4.62l-.7-.45a9 9 0 00.73-1.56 14.86 14.86 0 00.59-1.85l.7.25a18.88 18.88 0 01-.57 1.81 14.52 14.52 0 01-.75 1.8zm.72-7.23l-1.23-1.45.58-.47c.3.33.71.8 1.22 1.42zm1.12 3.22l-.67-.2a10.79 10.79 0 00.38-2.74h.71a10.75 10.75 0 01-.42 2.94zm.06 4.23l-.51-.46a6.69 6.69 0 001.09-2.34 11.56 11.56 0 00.4-3V183h.76v3.53a9 9 0 01-1.74 5.98zm2.48-4.43c-.09-.64-.24-1.54-.44-2.68l.58-.12c.07.26.23 1.14.49 2.67zm.94 4.3v-9.21h.76v9.21zm1.55-4.29c-.1-.65-.27-1.53-.49-2.66l.59-.15c.18.71.36 1.6.55 2.67zm.95 4.46v-9.65h.8v9.65zm10.81-1.18h-7v.83h-.86v-8.46h8.77v8.47h-.87zm-7-.7h7v-6.25h-7zm19.36 2h-1.05a7.49 7.49 0 010-9.9h1.05a6.45 6.45 0 00-1.43 2 6.67 6.67 0 00-.66 2.92 6.79 6.79 0 00.66 2.94 6.53 6.53 0 001.43 2zm4-.98l-.56-1.18h-1v-2h7.64v2h-1.16l-.7 1.18H173v.62h-10.2v-.62zm-2.76-3.89v-.59h10v.59zm3.38-4.31V183h.8v.53h1.59V183h.79v.53H172v3h-8.26v-3zm-1.69 1.27h1.69V184h-1.69zm1.69.47h-1.69v.77h1.69zm4.61 3.81h-6v.96h6zm-4.88 1.47l.51 1.18H169l.61-1.18zm1.11-5.75h1.59V184h-1.59zm1.59.47h-1.59v.77h1.59zm.79-.47h1.77V184h-1.77zm1.77.47h-1.77v.77h1.77zm3.68 2.44a17.57 17.57 0 00-1.18-1.48l.59-.45a15.35 15.35 0 011.19 1.45zm-.25 4.62l-.71-.45a8.24 8.24 0 00.74-1.56 16.75 16.75 0 00.59-1.85l.69.25a16 16 0 01-.56 1.81 14.52 14.52 0 01-.75 1.8zm.72-7.23l-1.23-1.45.58-.47c.3.33.71.8 1.22 1.42zm1.12 3.22l-.68-.2a10.79 10.79 0 00.39-2.74h.71a10.75 10.75 0 01-.42 2.94zm.05 4.23l-.5-.46a6.69 6.69 0 001.09-2.34 11.56 11.56 0 00.39-3V183h.77v3.53a9 9 0 01-1.75 5.98zm2.49-4.43c-.09-.64-.24-1.54-.44-2.68l.58-.12c.07.26.23 1.14.49 2.67zm.94 4.3v-9.21h.76v9.21zm1.55-4.29c-.11-.65-.27-1.53-.49-2.66l.59-.15c.18.71.36 1.6.55 2.67zm.95 4.46v-9.65h.8v9.65zm2.49-.44l-.56-.23a9.17 9.17 0 00.44-2.46l.56.07a9.32 9.32 0 01-.14 1.35 7 7 0 01-.3 1.27zm2.79-4h1.49c0 1.14-.05 2-.11 2.62a3.94 3.94 0 01-.25 1.19 1.22 1.22 0 01-.46.44 1.82 1.82 0 01-.86.17h-.88l-.07-.66a10.7 10.7 0 001.07 0 .8.8 0 00.37-.2 1.08 1.08 0 00.25-.45 4.18 4.18 0 00.11-.84v-1.64h-2.62v.2h-.72v-5.64h4.24v.6h-1.57v1h1.26v.57h-1.26v1h1.29v.57h-1.29zm-1.79 3.25l-.12-1.94.45-.06.12 1.95zm-.11-7.46v1h1.23v-1zm0 1.6v1h1.23v-1zm0 1.56v1.05h1.23v-1.05zm1.12 3.88l-.27-1.66.41-.07.28 1.67zm.81-.5l-.27-1.31.36-.08.27 1.31zm6.92 2.06a7.21 7.21 0 01-1.64-2.23 9.56 9.56 0 01-.85-2.86h-1.13a12.62 12.62 0 01-.37 2.92 6.8 6.8 0 01-.91 2.2l-.58-.42a5.71 5.71 0 00.76-2.06 15.35 15.35 0 00.27-3v-3.79h4.25v4.13H193a7.78 7.78 0 00.75 2.44 6.55 6.55 0 001.51 2.06zm-1-8.61h-2.59v2.92h2.59zm4.97.38c-.27-.5-.5-.9-.68-1.21l.83-.19c.27.48.52.95.75 1.4h2.45c.35-.69.58-1.17.69-1.43l.93.22c-.22.4-.47.8-.74 1.21h2.94v.64h-10v-.64zm1.14 5.74h-2.59v2.51h-.81v-6.68h4.23v5.87a.65.65 0 01-.26.55 1.09 1.09 0 01-.67.2h-1.06l-.12-.71h.85a.52.52 0 00.29-.09.29.29 0 00.14-.25zm0-2.38v-1.19h-2.59v1.19zm-2.59 1.78h2.59v-1.17h-2.59zm4.7 1.07v-4.38h.83v4.38zm2.21 2h-1.41l-.09-.74h1.14a.48.48 0 00.31-.1.32.32 0 00.13-.27v-5.82h.83v6.15a.7.7 0 01-.26.57 1 1 0 01-.65.21zm4.39.1V188l-1.72.09-.1-.63h.55c.26-.3.57-.7.94-1.19-.17-.18-.67-.68-1.52-1.48l.47-.43.21.19a13.1 13.1 0 001.08-1.79l.73.27a14 14 0 01-1.36 1.93l.81.75a16.37 16.37 0 001.18-1.8l.71.29a34.33 34.33 0 01-2.44 3.24l1.8-.12c-.13-.41-.22-.68-.28-.83l.69-.15c.15.43.34 1 .57 1.72l-.69.18c0-.08-.06-.2-.12-.37l-.76.08v4.59zm-1.16-1l-.67-.11a12.12 12.12 0 00.47-2.67l.76.08a10.14 10.14 0 01-.56 2.7zm2.81-.69c-.13-.66-.24-1.33-.32-2l.7-.08c.14 1 .25 1.64.33 2zm.54 1.45v-.63h2.7v-2.14h-2v-.66h2v-1.22h.84v1.22h2.2v.66h-2.2v2.14H217v.63zm3.24-5.68a11.3 11.3 0 01-2.7 1.26l-.28-.54a10.52 10.52 0 002.36-1.16 9.44 9.44 0 01-1.74-1.83l.6-.29a8.88 8.88 0 001.75 1.7 5.21 5.21 0 001.67-1.89h-4.57v-.62h5.34l.34.32a7 7 0 01-2.16 2.61 12.35 12.35 0 002.44 1.13l-.42.61a12.64 12.64 0 01-2.62-1.3zm12.56 5.19h-7.31v.57h-.85v-7.62h4V183h.87v1.76h4.12v7.62h-.86zm-4.13-6.39h-3.18v2.45h3.18zm-3.18 5.76h3.18v-2.67h-3.18zm7.31-3.31v-2.45h-3.26v2.45zm-3.26 3.31h3.26v-2.67h-3.26zm8.63-3.51a7.48 7.48 0 01-1.87 5H229a6.29 6.29 0 001.43-2 6.83 6.83 0 000-5.86 6.36 6.36 0 00-1.43-2v-.06h1.05a7.52 7.52 0 011.87 4.92zM79.3 236.82h-2.82V242h-1.42v-9.47h4.24zm-1.38-2.58v-.73h-1.44v.73zm0 1.56v-.74h-1.44v.74zm6.56 5.09a.88.88 0 01-.36.71 1.32 1.32 0 01-.86.29h-1.68l-.15-1.34h1.25a.38.38 0 00.24-.09.3.3 0 00.1-.21v-3.43h-2.88v-4.3h4.34zm-2.94-6.65H83v-.73h-1.46zm1.48.82h-1.48v.74H83zm11.54 6.32H89.4v-1.17h1.74v-4.64H89.4v-1.07a3 3 0 001.46-.28 1.13 1.13 0 00.5-.87h1.5v6.86h1.7zm2.1.04v-1.37h.17a2.9 2.9 0 001.23.24 2.25 2.25 0 002.46-2.29 3.77 3.77 0 01-1.91.63 2.73 2.73 0 01-1.92-.66 2.44 2.44 0 01-.73-1.9 2.67 2.67 0 01.87-2.06 3.24 3.24 0 012.27-.8 3 3 0 012.39.94 4 4 0 01.84 2.77 4.88 4.88 0 01-1.11 3.43 4.18 4.18 0 01-3.22 1.2 5.74 5.74 0 01-1.34-.13zm3.87-4.27v-.51c0-1.49-.49-2.24-1.47-2.24a1.23 1.23 0 00-1 .42 1.68 1.68 0 00-.37 1.16c0 1 .52 1.46 1.56 1.46a3 3 0 001.28-.29zm9.64 2.2a10 10 0 01-1.72 1.39 11.14 11.14 0 01-1.88 1l-.77-1.13a12.92 12.92 0 001.92-1.12 12.33 12.33 0 001.24-1.07zM112 242h-1.63v-3.65c-2 .11-3.33.17-4.1.18l-.18-1.34h.24q.87 0 2.73-.06a25.59 25.59 0 00-2.22-1.87l1-.92a6.85 6.85 0 01.83.61 11.12 11.12 0 00.82-.88c-1.18.07-2.09.11-2.71.11l-.19-1.24c2 0 3.74-.1 5.18-.23a19.93 19.93 0 003-.44l.73 1.15a30 30 0 01-4.15.53 19 19 0 01-1.72 1.83l.87.73a17.88 17.88 0 002.69-2.7l1.39.71a23.1 23.1 0 01-2.7 2.5l2-.12a24.5 24.5 0 00-.64-.79l1.19-.65a23.52 23.52 0 012.16 2.74l-1.32.67-.57-.81c-.63.05-1.54.12-2.73.19zm4.53-1.49l-.93 1.24a12.23 12.23 0 01-1.9-1.19 7.29 7.29 0 01-1.45-1.32l1-.9a15.42 15.42 0 001.53 1.27 11 11 0 001.73.9zm1.98-2.26a12 12 0 01-.64 3.12l-.94-.23a14 14 0 00.49-3zM120 242h-1.3v-4.23l-1.59.12-.14-1.05h.84c.25-.32.46-.61.65-.86-.53-.62-1-1.15-1.48-1.61l.75-.78.17.16a10.76 10.76 0 00.88-1.59l1.13.44a14.37 14.37 0 01-1.27 1.94l.46.51a12 12 0 001-1.75l1.13.51a24.07 24.07 0 01-2.09 3l1.06-.07a5.13 5.13 0 00-.2-.74l1-.29c.17.48.39 1.16.64 2l-1 .26a1.7 1.7 0 00-.08-.38l-.5.07zm1.55-1.74l-1 .19c-.18-1-.29-1.77-.32-2.2l1-.16zm2.24-2a4.34 4.34 0 01-.55 2.19 3.92 3.92 0 01-1.63 1.48l-.7-.95a2.87 2.87 0 001.2-1.26 3.77 3.77 0 00.32-1.52v-.88h1.36zm2-1.41c-1 .12-2.35.25-4.18.38l-.21-1.16h.78c.21-.42.41-.89.61-1.41h-1.28v-1.11h2.09v-1.21h1.36v1.21h2.27v1.11h-3c-.18.4-.39.84-.65 1.33.63 0 1.18-.08 1.65-.13-.13-.22-.28-.45-.45-.7v-.09l1.1-.37a20.84 20.84 0 011.54 2.51l-1.29.47c-.13-.28-.22-.55-.36-.82zm1.71 3.88a1.2 1.2 0 01-.13.59.81.81 0 01-.37.36 1.37 1.37 0 01-.47.14h-.63a4.78 4.78 0 01-.8 0 1 1 0 01-.39-.16.73.73 0 01-.27-.33 1.18 1.18 0 01-.1-.52v-3.52h1.35v3.18c0 .13 0 .19.15.19h.28a.25.25 0 00.15 0 .17.17 0 00.06-.14v-1.31l1.12.15zm6.62-3.57h-1.83v-1.94h1.83zm0 4.22h-1.83v-1.94h1.83zm-58.06 13.17v5.27h-.82v-9.23h3.82v4zm2.18-3.35h-2.18v1.06h2.18zm-2.18 1.63v1.09h2.18v-1.09zm7.26 6.92h-1.56l-.09-.75H83a.51.51 0 00.31-.11.33.33 0 00.14-.27v-4.07h-3.09v-4h3.88V259a.66.66 0 01-.28.54 1 1 0 01-.64.21zm-2.12-7.49h2.22v-1.06H81.2zm2.22.57H81.2v1.09h2.22zm5.22-1.27c-.27-.5-.5-.91-.68-1.21l.83-.19c.27.48.52.94.75 1.4H92c.35-.7.58-1.17.69-1.43l.93.22c-.22.4-.47.8-.74 1.21h2.94v.64h-10v-.64zm1.14 5.74h-2.59v2.5h-.81v-6.68h4.23V259a.62.62 0 01-.26.54 1.09 1.09 0 01-.67.2h-1.07l-.11-.7h.85a.46.46 0 00.29-.1.28.28 0 00.14-.25zm0-2.38v-1.2h-2.59v1.2zm-2.59 1.78h2.59v-1.18h-2.59zm4.7 1.06v-4.37h.83v4.37zm2.21 2h-1.41l-.09-.76h1.14a.49.49 0 00.31-.11.32.32 0 00.13-.27v-5.82H95v6.2a.7.7 0 01-.26.56 1 1 0 01-.64.2zm3.99.11v-5.58a11.16 11.16 0 01-1.23 1.71l-.5-.42a17.91 17.91 0 001.64-2.72 12.14 12.14 0 001-2.71l.84.1a14.55 14.55 0 01-1.29 3.15h.32v6.47zm7.65-3.49h-2v3.46h-.83v-3.46h-2v.51h-.81v-5.12h2.79v-1.64h.83v1.64h2.83v5.12h-.81zm-4.83-.64h2v-3.34h-2zm2.81 0h2v-3.34h-2zm5.28 1.79v.74h-.77v-7.8h5v.53h4.56v.64h-1.48v7.33a.74.74 0 01-.28.59 1.07 1.07 0 01-.68.23h-1.68l-.09-.75h1.41a.61.61 0 00.35-.11.36.36 0 00.15-.29v-7h-2.26v5.93zm1.36-3.95v-2.51H109v2.51zm0 3.33v-2.75H109v2.75zm.78-5.84v2.51h1.35v-2.51zm0 3.09v2.75h1.35v-2.75zm17.49 5.84h-1.06a7.49 7.49 0 010-9.9h1.06v.05a6.53 6.53 0 00-1.43 2 6.83 6.83 0 000 5.86 6.45 6.45 0 001.43 2zm4-1l-.56-1.18h-1v-2.05h7.64v2.05h-1.16l-.7 1.18H140v.62h-10.22V259zm-2.76-3.89v-.59h10v.59zm3.37-4.31v-.53h.81v.53h1.59v-.53h.79v.53H139v3h-8.26v-3zm-1.68 1.27h1.68v-.75h-1.68zm1.68.46h-1.68v.78h1.68zm4.62 3.81h-6v.92h6zm-4.92 1.48l.51 1.18H136l.61-1.18zm1.11-5.75h1.59v-.75h-1.59zm1.59.46h-1.59v.78h1.59zm.79-.46h1.77v-.75h-1.77zm1.77.46h-1.77v.78h1.77zm3.71 2.47a18.42 18.42 0 00-1.17-1.48l.59-.45a15.35 15.35 0 011.19 1.45zm-.24 4.62l-.71-.44a8.9 8.9 0 00.74-1.56 15.2 15.2 0 00.58-1.85l.7.24a16 16 0 01-.56 1.82 13.66 13.66 0 01-.75 1.74zm.72-7.23l-1.23-1.45.58-.47c.3.33.71.81 1.22 1.42zm1.12 3.22l-.68-.19a10.43 10.43 0 00.38-2.75l.71.06a10.42 10.42 0 01-.41 2.83zm.05 4.23l-.5-.45a7 7 0 001.09-2.35 11.43 11.43 0 00.39-3v-3.74h.77v3.53a9 9 0 01-1.75 5.96zm2.49-4.42a82.7 82.7 0 00-.44-2.68l.58-.12c.07.25.23 1.14.49 2.66zm.94 4.29v-9.2h.76v9.2zm1.55-4.28c-.11-.65-.27-1.54-.49-2.66l.59-.15c.18.7.36 1.59.55 2.66zm1 4.46v-9.65h.8v9.65zm2.46-.49l-.56-.23a9.17 9.17 0 00.44-2.46l.56.07a8.41 8.41 0 01-.15 1.35 7.43 7.43 0 01-.29 1.27zm2.79-4h1.48c0 1.14 0 2-.11 2.63a3.31 3.31 0 01-.25 1.18 1.21 1.21 0 01-.45.45 1.82 1.82 0 01-.86.17h-.88l-.07-.66a9.51 9.51 0 001.07 0 .65.65 0 00.36-.2.91.91 0 00.25-.44 3.72 3.72 0 00.11-.84v-1.65h-2.63v.21h-.71v-5.61h4.24v.59h-1.57v1h1.26v.56h-1.26v1h1.29v.57h-1.29zm-1.79 3.25l-.12-1.94.45-.06.12 1.94zm-.11-7.47v1h1.23v-1zm0 1.6v1h1.23v-1zm0 1.56v1h1.23v-1zm1.12 3.89l-.27-1.67.4-.07.29 1.68zm.81-.5l-.27-1.32.36-.07.27 1.31zm6.92 2.06a7.14 7.14 0 01-1.64-2.24 9.52 9.52 0 01-.86-2.85h-1.12a12.69 12.69 0 01-.37 2.92 7 7 0 01-.91 2.2l-.58-.42a5.69 5.69 0 00.76-2.07 15.28 15.28 0 00.27-3v-3.79h4.24v4.14H160a7.86 7.86 0 00.75 2.44 6.64 6.64 0 001.5 2.05zm-1-8.62h-2.59v2.93h2.59zm4.95.39c-.27-.5-.5-.91-.68-1.21l.83-.19c.27.48.52.94.75 1.4H169c.35-.7.58-1.17.69-1.43l.93.22c-.22.4-.47.8-.74 1.21h2.94v.64h-10v-.64zm1.14 5.74h-2.6v2.5h-.8v-6.68h4.23V259a.62.62 0 01-.26.54 1.11 1.11 0 01-.67.2h-1.07l-.11-.7h.84a.47.47 0 00.3-.1.3.3 0 00.14-.25zm0-2.38v-1.2h-2.6v1.2zm-2.6 1.78h2.6v-1.18h-2.6zm4.71 1.06v-4.37h.83v4.37zm2.21 2h-1.41l-.09-.73h1.14a.49.49 0 00.31-.11.32.32 0 00.13-.27v-5.82h.83V259a.7.7 0 01-.26.56 1 1 0 01-.65.2zm4.39.1v-4.54l-1.72.1-.11-.63h.56c.26-.3.57-.69.94-1.18-.17-.19-.67-.68-1.52-1.49l.47-.42.21.19a13.1 13.1 0 001.08-1.79l.73.27a14.61 14.61 0 01-1.36 1.93l.81.74a17.48 17.48 0 001.18-1.79l.71.28a32 32 0 01-2.45 3.24c.5 0 1.1-.06 1.81-.12-.13-.4-.22-.68-.28-.82l.69-.15c.15.42.34 1 .57 1.72l-.69.17c0-.07-.06-.19-.12-.36l-.76.07v4.59zm-1.16-1l-.68-.11a11.61 11.61 0 00.48-2.67l.76.08a9.94 9.94 0 01-.56 2.7zm2.81-.69c-.13-.65-.24-1.33-.32-2 .1 0 .34 0 .7-.08q.21 1.49.33 2zm.53 1.46V259h2.71v-2.14h-2v-.66h2V255h.84v1.22h2.19v.66h-2.19V259H184v.63zm3.25-5.69a11.7 11.7 0 01-2.7 1.27l-.28-.54a10.79 10.79 0 002.36-1.17 9.38 9.38 0 01-1.74-1.82l.6-.3a8.54 8.54 0 001.74 1.7 5.14 5.14 0 001.68-1.88h-4.57v-.62h5.33l.35.31a7 7 0 01-2.16 2.62 12.35 12.35 0 002.44 1.12l-.42.61a11.94 11.94 0 01-2.6-1.3zm12.56 5.2h-7.31v.56h-.85v-7.61h4v-1.77h.87v1.77h4.12v7.61h-.86zm-4.13-6.39h-3.18v2.45h3.18zm-3.18 5.76h3.18v-2.67h-3.18zm7.31-3.31v-2.45h-3.26v2.45zm-3.26 3.31h3.26v-2.67h-3.26zm8.63-3.51a7.48 7.48 0 01-1.9 5h-1a6.41 6.41 0 001.43-2 6.79 6.79 0 00.66-2.94 6.67 6.67 0 00-.66-2.92 6.29 6.29 0 00-1.43-2v-.06h1a7.52 7.52 0 011.9 4.92zm171.63-59.78l-.37.35-3.69-3.66-3.69 3.67-.38-.35 3.68-3.72-3.71-3.71.38-.35 3.72 3.73 3.69-3.77.37.35-3.71 3.75zm-8.16-3.73a.65.65 0 01.19-.45.64.64 0 01.45-.18.63.63 0 110 1.26.64.64 0 01-.45-.18.65.65 0 01-.19-.45zm3.42-3.26a.63.63 0 01.18-.45.67.67 0 01.91 0 .63.63 0 01.18.45.6.6 0 01-.18.44.64.64 0 01-.91 0 .6.6 0 01-.18-.44zm0 6.49a.6.6 0 01.18-.44.61.61 0 01.45-.19.62.62 0 01.46.19.6.6 0 01.18.44.63.63 0 01-.18.45.64.64 0 01-.91 0 .63.63 0 01-.18-.45zm3.4-3.23a.63.63 0 01.64-.63.63.63 0 110 1.26.63.63 0 01-.64-.63zm6.1 3.66l-.56-1.18h-1.05v-2h7.64v2h-1.15l-.7 1.18h3.13v.62h-10.17v-.62zm-2.77-3.88v-.59h10v.59zm3.38-4.27v-.53h.8v.53h1.59v-.53h.79v.53h2.59v3h-8.26v-3zm-1.68 1.26h1.68v-.74h-1.68zm1.68.47h-1.68v.78h1.68zm4.62 3.81h-6v.92h6zm-4.93 1.46l.51 1.18h2.56l.62-1.18zm1.11-5.75h1.59v-.74h-1.59zm1.59.47h-1.59v.78h1.59zm.79-.47h1.78v-.74h-1.78zm1.78.47h-1.78v.78h1.78zm3.71 2.41a16.75 16.75 0 00-1.18-1.48l.59-.45a17.78 17.78 0 011.2 1.45zm-.25 4.62l-.7-.44a8.79 8.79 0 00.73-1.57 15.3 15.3 0 00.59-1.84l.7.24c-.11.45-.3 1.06-.57 1.82a14.28 14.28 0 01-.75 1.79zm.72-7.23l-1.22-1.45.57-.47c.31.33.71.8 1.22 1.42zm1.13 3.22l-.68-.2a10.72 10.72 0 00.38-2.74l.71.06a11.27 11.27 0 01-.41 2.88zm.05 4.23l-.51-.46a6.52 6.52 0 001.09-2.34 11 11 0 00.4-3v-3.69h.8V190a9 9 0 01-1.78 6zm2.48-4.43c-.09-.64-.23-1.53-.44-2.67l.59-.13q.09.39.48 2.67zm.94 4.3v-9.21h.77v9.21zm1.56-4.28c-.11-.65-.28-1.54-.5-2.66l.59-.16c.18.71.37 1.6.56 2.67zm.95 4.45v-9.64h.79V196zm2.5-.43l-.55-.24a9.43 9.43 0 00.44-2.46l.56.08a11.49 11.49 0 01-.15 1.34 6.57 6.57 0 01-.3 1.28zm2.8-4h1.48c0 1.14-.05 2-.11 2.62a3.57 3.57 0 01-.25 1.19 1.15 1.15 0 01-.46.44 1.66 1.66 0 01-.85.17h-.88l-.08-.66a10.56 10.56 0 001.07 0 .68.68 0 00.37-.2 1 1 0 00.25-.44 4.41 4.41 0 00.11-.84v-1.65h-2.63v.2h-.71v-5.6H399v.59h-1.57v1h1.25v.6h-1.25v1h1.29v.57h-1.29zm-1.83 3.25l-.12-1.94h.45l.13 1.94zm-.11-7.46v1h1.24v-1zm0 1.6v1h1.24v-1zm0 1.56v1h1.24v-1zm1.12 3.88l-.26-1.66.4-.07.28 1.68zm.82-.5l-.27-1.31.35-.07.28 1.3zm6.91 2.07a7.24 7.24 0 01-1.63-2.24 9.22 9.22 0 01-.86-2.86h-1.12a12.71 12.71 0 01-.38 2.93 6.62 6.62 0 01-.9 2.19l-.59-.41a5.65 5.65 0 00.76-2.07 15.35 15.35 0 00.27-3v-3.79h4.25v4.13h-1.53a8 8 0 00.76 2.44 6.57 6.57 0 001.5 2.06zm-1-8.62h-2.59v2.92h2.59zm4.95.37c0 .32 0 .68-.06 1.09h1.23a1.52 1.52 0 011.25.54 2.24 2.24 0 01.44 1.41 11.57 11.57 0 01-.48 3.94c-.31.77-.72 1.14-1.24 1.09a4.15 4.15 0 01-1.52-.48l.27-.68a5 5 0 00.55.23 3.75 3.75 0 00.6.15c.16 0 .34-.15.51-.49a3.83 3.83 0 00.36-1.37 16.85 16.85 0 00.1-2 1.94 1.94 0 00-.31-1.33 1.12 1.12 0 00-.79-.28h-1a13.93 13.93 0 01-.87 3.82 12.67 12.67 0 01-1.45 2.61l-.61-.43a12.11 12.11 0 001.33-2.51 11.88 11.88 0 00.73-3.47h-1.68v-.71h1.74v-2h.87zm5.38 4.29l-.83.22a10.26 10.26 0 00-1.86-4.14l.63-.43a9.15 9.15 0 011.33 2.15 9.46 9.46 0 01.73 2.18zm2.31 3.76l-.07-.73a7.54 7.54 0 003.37-.54 1.79 1.79 0 001-1.53 2 2 0 00-.5-1.33 1.8 1.8 0 00-1.39-.57 3.8 3.8 0 00-1.95.55A3.5 3.5 0 00415 193l-.59-.4a13.23 13.23 0 00.78-4.32h.87a16.43 16.43 0 01-.43 3 5.14 5.14 0 011.33-.72 4.24 4.24 0 011.48-.21 2.59 2.59 0 011.93.76 2.3 2.3 0 01.65 1.75 2.47 2.47 0 01-1.09 2.12 6.79 6.79 0 01-3.77.76zm4.26-7.6l-.3.68c-.19-.11-.46-.24-.83-.41s-.76-.31-1.2-.46-1.1-.33-2-.54l.19-.67a18.05 18.05 0 012.6.75 11.51 11.51 0 011.53.65zm3.42 7.29l-.8.18a12.51 12.51 0 01-.55-3.8 17.62 17.62 0 01.74-4.81l.82.14a15.67 15.67 0 00-.74 4.58 13 13 0 00.53 3.71zm7.09-1.07l-.43.6c-.44-.35-1-.77-1.72-1.27v.33a1.54 1.54 0 01-.44 1.21 2.28 2.28 0 01-1.5.4 2 2 0 01-1.31-.42 1.38 1.38 0 01-.53-1.13 1.43 1.43 0 01.52-1.16 1.87 1.87 0 011.23-.44 4.82 4.82 0 011.24.18v-3.14h-3v-.72h3v-2h.8v2h1.79v.72h-1.79V193a15.72 15.72 0 012.14 1.4zm-2.93-.34v-.62a2.33 2.33 0 00-1.14-.26 1.44 1.44 0 00-.73.22.83.83 0 00-.39.68.91.91 0 00.35.67 1.24 1.24 0 00.79.24c.75.01 1.12-.31 1.12-.93zm4.23 1.02l-.7-.13a9.37 9.37 0 00.48-2.66l.79.05a11.38 11.38 0 01-.57 2.74zm1.25 1v-4.58l-1.8.11-.1-.68h.76c.3-.34.61-.72.94-1.14-.51-.52-1.05-1-1.63-1.56l.54-.48.2.18a9.6 9.6 0 001.07-1.64l.74.27a15.6 15.6 0 01-1.35 1.8l.87.87a13.8 13.8 0 001.23-1.84l.77.29a33 33 0 01-2.54 3.22l1.77-.1c-.12-.36-.21-.62-.28-.79l.64-.18a17.2 17.2 0 01.62 1.75l-.69.17c0-.08-.06-.21-.11-.38l-.82.09V196zm2-1.42l-.36-2.26.74-.08.36 2.22zm5.85-3.37a22.12 22.12 0 01-.12 2.52 6.33 6.33 0 01-.25 1.35 1.28 1.28 0 01-.5.57 1.5 1.5 0 01-.84.24H438l-.11-.74h.83a4 4 0 00.74 0 .72.72 0 00.36-.2 1.23 1.23 0 00.27-.5 7 7 0 00.17-1.28c0-.63.07-1.45.07-2.47v-2.48h-2.94a10.06 10.06 0 01-1.07 2.08l-.66-.32a10.46 10.46 0 001.48-3.76l.85.13a12.85 12.85 0 01-.38 1.25h3.57zm-2.95 1.53c-.53-1.4-.9-2.28-1.09-2.66l.74-.28a26.54 26.54 0 011.13 2.62zm12.78 2.55h-5.42v-1c.57-.49 1.22-1.06 1.93-1.71a10.61 10.61 0 001.59-1.71 2.53 2.53 0 00.53-1.48 1.28 1.28 0 00-.44-1 1.82 1.82 0 00-1.19-.36 3.94 3.94 0 00-2.17.69h-.05v-1a5.2 5.2 0 012.24-.51 2.93 2.93 0 011.93.59 2 2 0 01.71 1.6 3 3 0 01-.18 1 3.38 3.38 0 01-.56 1 13.2 13.2 0 01-.92 1c-.35.35-1.17 1.07-2.44 2.14H451zm4 .16a2.35 2.35 0 01-2.1-1 5.76 5.76 0 01-.67-3.15 5.92 5.92 0 01.67-3.16 2.68 2.68 0 014.19 0 5.71 5.71 0 01.68 3.15 5.83 5.83 0 01-.67 3.16 2.35 2.35 0 01-2.1 1zm0-7.52a1.42 1.42 0 00-1.33.72 5.92 5.92 0 00-.41 2.64 5.84 5.84 0 00.41 2.62 1.41 1.41 0 001.33.73 1.39 1.39 0 001.33-.73 5.72 5.72 0 00.42-2.63 5.88 5.88 0 00-.41-2.61A1.43 1.43 0 00455 188zm6.88 2.99l-.47-.53a10.37 10.37 0 002-1.81 7.69 7.69 0 001.41-2.12l.85.21a11.11 11.11 0 01-3.79 4.25zm.32 5.06l-.32-.56a4.93 4.93 0 002.57-1.7 5.26 5.26 0 00.93-3.07h-2.12v-.64h6.84a10.47 10.47 0 01-2.54-3.42l.79-.23a10.49 10.49 0 003.54 4l-.63.61c-.4-.32-.78-.63-1.12-.94v2.46a8 8 0 01-.15 1.69 2.67 2.67 0 01-.37 1 1.61 1.61 0 01-.54.47 1.92 1.92 0 01-.66.19 13.3 13.3 0 01-1.35 0h-.43l-.14-.75h1.42a1.18 1.18 0 001-.48 3.88 3.88 0 00.38-2.12v-1.87h-3a5.83 5.83 0 01-1.2 3.59 5.6 5.6 0 01-2.9 1.71z"/><path class="cls-6" d="M20 90.2c0-1.2 2-2.2 4.37-2.2h32.29c2.41 0 4.34 1 4.34 2.2v75.67c0 1.19-2 2.16-4.37 2.16H24.37c-2.42 0-4.37-1-4.37-2.16z"/><path class="cls-7" d="M46.26 109h-4.88v.4h3.5v4.93h-2.13a8.35 8.35 0 003.56 2.11L45.24 118a12.55 12.55 0 01-2.19-1.11 6.65 6.65 0 01-1.67-1.41v2.67h-1.83v-2.72a6.13 6.13 0 01-1.68 1.57 6.8 6.8 0 01-2 1.06l-1.22-1.61a7.63 7.63 0 002-.86 4.61 4.61 0 001.47-1.25H36v-4.93h3.51V109h-5v-1.61h5v-1h1.83v1h4.88zm-8.39 2.31h1.68v-.45h-1.68zm0 1.51h1.68v-.45h-1.68zm3.51-1.51h1.67v-.45h-1.67zm0 1.51h1.67v-.45h-1.67zm-6.71 10.03v-1.61h4.88v-1.3h1.88v1.3h4.88v1.61zm3 4.78l1.47.8a6.44 6.44 0 01-3.2 3.12l-1.22-1.46a6.41 6.41 0 002.95-2.46zm1.27 4l-.66-1.66h.91c.41.07.58-.12.51-.56v-1.85h-3.51v-4.12h8.54v4.12h-3.15v2.66c0 .94-.42 1.41-1.27 1.41zm-1-5.73h5v-.9H38zm5.24 1.81a10.53 10.53 0 003.1 2.21l-1.22 1.55a15.82 15.82 0 01-1.78-1.4 12 12 0 01-1.37-1.46zm-8.71 16.43a19.79 19.79 0 00.45-3.07l1 .1c0 1.14-.12 2.3-.25 3.47zm.5-10.31h5.44v1.41H39v.45h1.07V137H39v.55h1.07v1.26H39v.5h1.37v2.61a7.06 7.06 0 00.46-2.66V134h5.23v5.33h-1.53a6.45 6.45 0 002 4.22l-1 1.71a8.13 8.13 0 01-1.93-2.71 13.56 13.56 0 01-.86-3.22h-.14a16.16 16.16 0 01-.46 3.17 7 7 0 01-1.42 2.76l-.72-1.07a1.2 1.2 0 01-1.32.9h-1l-.56-1.36-1.12.2.05-2.61.66-.1.36 2.21H38c.34 0 .53-.13.56-.4l.05-.65-.4.3-.44-1.68.61-.2.3.8v-.9H35zm1.68 1.86h.71v-.45h-.71zm0 1.81h.71v-.5h-.71zm0 1.76h.71v-.5h-.71zm.66 3.92l-.35-2 .56-.15.55 1.81zm5.29-5.53h1.62v-2.06H42.6z"/><path class="cls-6" d="M20 187.17c0-1.17 2-2.17 4.37-2.17h32.29c2.41 0 4.37 1 4.37 2.16v75.67c0 1.19-2 2.16-4.37 2.16H24.37C22 265 20 264 20 262.84z"/><path class="cls-7" d="M35 199.83h5.19V205h-3.44v6.13H35zm1.78 2h1.58v-.6h-1.61zm0 1.61h1.58v-.55h-1.61zm6 7.64l-.51-1.81h1.47c.34 0 .49-.13.46-.5V205h-3.48v-5.13H46v10c0 .81-.37 1.21-1.12 1.21zm-.26-9.25h1.68v-.6h-1.71zm0 1.61h1.68v-.55h-1.71zm-5.61 9.9l1.77-.5 1 1.71h1.47l.87-1.71 1.88.5-.56 1.21h2.95v1.65H34.67v-1.65h2.85zM38 224.55l-.4-1.71h.66a.35.35 0 00.4-.4v-.71h-1.6v2.77h-1.78v-7.94h5.23v6.78c0 .8-.37 1.21-1.11 1.21zm-1-5.88h1.62v-.61h-1.56zm0 1.81h1.62v-.56h-1.56zm4.22-3.62H43v5.27h-1.72zm2.64 5.52v-5.87h1.73v6.88c0 .8-.43 1.21-1.28 1.21h-1.82l-.4-1.76h1.37a.4.4 0 00.46-.46zm-9.44 9.09a14.18 14.18 0 002.58-5.18l1.62.56a12.65 12.65 0 01-1 2.41v8.84h-1.73v-5.58a3.49 3.49 0 01-.76 1.21zm3.76-2.91h3v-2.12H43v2.12h3.1v6.18h-1.78v-.56H43v3.92h-1.78v-3.92H40v.56h-1.82zm1.77 4h1.27v-2.41H40zm3 0h1.37v-2.41H43zm.51 19.05h-1.93l-.46-1.76h1.37c.34 0 .51-.13.51-.5V243h-2.13v6.18H36.6v.85h-1.68v-9.7h5.9v1.06h5.59V243h-1.68v7.28a1.3 1.3 0 01-.36 1 1.24 1.24 0 01-.91.33zm-6.86-7.74h.46v-1.81h-.46zm0 1.71v1.91h.46v-1.91zm2.13-3.52v1.81h.46v-1.81zm0 5.43h.46v-1.91h-.46z"/><path class="cls-2" d="M304.88 146.73c0-1.81 2-3.28 4.37-3.28h32.29c2.42 0 4.37 1.47 4.37 3.28v115c0 1.81-2 3.28-4.37 3.28h-32.29c-2.41 0-4.37-1.47-4.37-3.28z"/><path d="M304.88 146.73c0-1.81 2-3.28 4.37-3.28h32.29c2.42 0 4.37 1.47 4.37 3.28v115c0 1.81-2 3.28-4.37 3.28h-32.29c-2.41 0-4.37-1.47-4.37-3.28z" stroke-dasharray="3.01 3.01" stroke="#00a63c" stroke-linejoin="round" stroke-width="2" fill="none"/><path class="cls-7" d="M329.46 227.41l-.37.36-3.69-3.67-3.69 3.68-.38-.35 3.67-3.73-3.7-3.7.38-.36 3.72 3.73 3.69-3.77.37.35-3.71 3.75zm-8.16-3.73a.65.65 0 01.64-.63.58.58 0 01.45.19.58.58 0 01.19.44.58.58 0 01-.19.45.62.62 0 01-.45.19.65.65 0 01-.45-.19.62.62 0 01-.19-.45zm3.42-3.26a.64.64 0 111.27 0 .6.6 0 01-.18.44.62.62 0 01-.46.19.61.61 0 01-.45-.19.6.6 0 01-.18-.44zm0 6.5a.63.63 0 01.63-.64.62.62 0 01.46.19.61.61 0 01.18.45.6.6 0 01-.18.44.62.62 0 01-.46.19.61.61 0 01-.45-.19.6.6 0 01-.18-.44zm3.4-3.24a.58.58 0 01.19-.44.58.58 0 01.45-.19.61.61 0 01.45.19.6.6 0 01.18.44.61.61 0 01-.18.45.65.65 0 01-.45.19.62.62 0 01-.45-.19.58.58 0 01-.19-.45zm-8.57-40.58v-1.41h11.69v1.41zm.06 3.57h3l-.15-.65H321v-2.62h8.79v2.6h-1.53l-.25.65h3.25V188h-11.65zm.71-5.33v-3.92H323v-.7h1.78v.7H326v-.7h1.78v.7h2.64v3.92zm1.78-2.46h.9v-.35h-.86zm0 1.31h.9v-.35h-.86zm.66 4.82H328v-.6h-5.23zm1.57 1l.2.65h1.68l.15-.65zm.41-7.14H326v-.35h-1.22zm0 1.31H326v-.35h-1.22zm3-1.31h.86v-.35h-.86zm0 1.31h.86v-.35h-.86zM322.2 195l-1 1.36a5.24 5.24 0 00-1.8-1.36l.92-1.36a6.58 6.58 0 011 .56 3.3 3.3 0 01.88.8zm-1.43 1.86l1.58.85a7 7 0 01-.46 2.16 7.32 7.32 0 01-.86 1.91l-1.58-1a7.66 7.66 0 001.32-3.97zm-.86-5.13l1-1.35a5.23 5.23 0 011.88 1.35l-1 1.41a5.93 5.93 0 00-.76-.7 6.16 6.16 0 00-1.12-.76zm4 3.12v-4.52h1.83v3.26l.46-.25.31.91v-3.42h1.72v2.81l.46-.25.46 1v-4.07h1.78v11.65h-1.78v-5.52l-.56.35-.36-1.31v5.88h-1.72v-4.82l-.56.35-.26-1.06a12.41 12.41 0 01-.4 3.22 6.6 6.6 0 01-1.73 3l-1.48-1.4a5.85 5.85 0 001.58-2.92 12.43 12.43 0 00.21-2.94zm-.1-1.31a15.81 15.81 0 01-.3 3.57l-1.27-.4a10.94 10.94 0 00.4-3.12zm-4.46 20.88a19.53 19.53 0 00.46-3.06l1 .1c0 1.14-.12 2.29-.25 3.47zm.51-10.3h5.44v1.41h-1.43v.47h1.07v1.26h-1.07v.55h1.07v1.26h-1.07v.5h1.38v2.61a7.31 7.31 0 00.45-2.66v-5.23h5.24v5.33h-1.53a6.56 6.56 0 002 4.22l-1 1.71a8 8 0 01-1.93-2.71 13.23 13.23 0 01-.87-3.22h-.15a15.94 15.94 0 01-.46 3.16 7 7 0 01-1.42 2.77l-.71-1.06a1.21 1.21 0 01-1.32.91h-1L322 214l-1.11.2.05-2.61.66-.1.35 2.21h.92c.34 0 .52-.13.56-.4v-.66l-.41.31-.46-1.66.61-.2.31.8V211h-3.71zm1.68 1.86h.71v-.45h-.71zm0 1.81h.71v-.55h-.71zm0 1.76h.71v-.5h-.71zm.66 3.92l-.36-2 .56-.15.56 1.81zm5.28-5.53h1.63v-2.06h-1.63z"/><path d="M499 89.86a4.64 4.64 0 014.34-4.86h32.29a4.64 4.64 0 014.37 4.86v170.21a4.64 4.64 0 01-4.37 4.86h-32.29a4.64 4.64 0 01-4.37-4.86z" fill="#004da0" stroke="#004da0" stroke-miterlimit="10"/><path class="cls-2" d="M526.55 121.22h-6v.5h4.32v6.06h-2.63a10.28 10.28 0 004.38 2.6l-1.32 1.91a15.12 15.12 0 01-2.69-1.36 8.1 8.1 0 01-2.06-1.73v3.28h-2.25v-3.34a7.83 7.83 0 01-2.07 1.92 8.16 8.16 0 01-2.43 1.29l-1.51-2a9.32 9.32 0 002.44-1.06 5.78 5.78 0 001.82-1.54H514v-6.06h4.32v-.5h-6.13v-2h6.13v-1.17h2.25v1.17h6zm-10.32 2.85h2.07v-.56h-2.07zm0 1.85h2.07v-.55h-2.07zm4.32-1.85h2.06v-.56h-2.06zm0 1.85h2.06v-.55h-2.06zm-8.26 11.52v-2h6v-1.61h2.31v1.61h6v2zm3.69 5.88l1.82 1a7.9 7.9 0 01-3.94 3.83l-1.5-1.79a7.86 7.86 0 003.64-3.04zm1.57 4.88l-.81-2h1.12c.5.08.71-.14.63-.68v-2.29h-4.32v-5.07h10.51v5.07h-3.88v3.28c0 1.15-.52 1.73-1.56 1.73zm-1.19-7h6.13v-1.1h-6.13zm6.44 2.23a13 13 0 003.82 2.72l-1.5 1.92a20.26 20.26 0 01-2.19-1.73 15 15 0 01-1.69-1.8zm-6.06 6.12v4.82a22.72 22.72 0 006.56-2.6l1.69 1.61a27.42 27.42 0 01-8.25 3.28V159c0 .62.35.93 1.06.93 2 0 4.38 0 7.25-.07l-.31 2.23h-7.94a2.52 2.52 0 01-1.82-.56 2.66 2.66 0 01-.5-1.79v-10.19zm6.37 1.48l.94-.8 1.38 1.42-.94.87zm1.32-1.05l.94-.8 1.25 1.36-.88.8zm-7.57 14.6l1.56-.62a21 21 0 011.19 2.84l-1.56.62c-.34-.91-.73-1.86-1.19-2.84zm1.44 7a10.65 10.65 0 004.44-2.85 12.9 12.9 0 002.13-5.07l2 .68a14 14 0 01-2.44 5.44 12 12 0 01-4.94 3.53zm1.56-7.55l1.63-.62c.54 1.2.91 2.1 1.12 2.72l-1.62.56c-.38-.94-.75-1.83-1.13-2.61zm-6.63 17.3a16.11 16.11 0 004.77-6.43l2.25.87-.57 1.3h3.76l.18-.25 1.82 1.11a17.29 17.29 0 01-8.51 10.52l-1.75-1.86q5.51-2.78 7.19-7.48h-3.94a19.51 19.51 0 01-3.31 3.77zm8.38-6.37l1.07-.74 1.43 1.61-1.12.74zm2.25-.06l1-.74 1.43 1.55-1.12.8zm-10.94 19.79v-2.1h2.69v-2.84h2.31v2.84H521v-3h2.31v3h2.63v2.1h-2.64a9.57 9.57 0 01-1.12 4.89 8.55 8.55 0 01-3.76 3.21l-1.68-1.73a7.85 7.85 0 003.25-2.53 6.62 6.62 0 001-3.84h-3.07v3.4h-2.31v-3.4zm.31 16.08a25.06 25.06 0 0010.13-6.68l2 1.61a21.68 21.68 0 01-4.19 3.53v8h-2.44v-6.49a30.81 30.81 0 01-4.19 2.23zm3 7.79h2.38v5.26l1.13-1.36a51.81 51.81 0 015.25 3.59l-1.5 1.85a44 44 0 00-4.88-3.46V232h-2.38zM158.8 92.08h131.58v21.27H158.8z"/><path class="cls-7" d="M165 104.24a17.73 17.73 0 01-.29 1.85 9.9 9.9 0 01-.43 1.56l-1.1-.25a16.79 16.79 0 00.57-3.24zm1.74 4.09h-1.49v-4.54c-.79.07-1.4.12-1.83.13l-.13-1.2h.91c.2-.24.45-.55.75-.94-.53-.57-1.09-1.16-1.7-1.76l.86-.91.22.21a11.28 11.28 0 001-1.7l1.34.47a17.31 17.31 0 01-1.46 2.09l.53.56a13.55 13.55 0 001.17-1.88l1.29.56a35 35 0 01-2.42 3.24l1.25-.09c-.16-.46-.26-.74-.32-.86l1.13-.33c.21.54.48 1.3.8 2.28l-1.2.28a2.65 2.65 0 00-.09-.37l-.59.08zm1.79-1.62l-1.2.16a23.54 23.54 0 01-.41-2.55l1.19-.13zm1.74 1.48l-.19-1.43h1.51a.64.64 0 00.67-.5 7.42 7.42 0 00.17-1.8v-4.16h-2.39a10.76 10.76 0 01-.84 1.78l-1.24-.55a21.18 21.18 0 00.78-2.1 13.27 13.27 0 00.4-1.78l1.58.16a10 10 0 01-.29 1.32H174v5.97a7 7 0 01-.25 2 1.72 1.72 0 01-.58.72 1.78 1.78 0 01-.78.34c-.18.01-.86.02-2.08.03zm1.21-3.39l-1.47.51a27.77 27.77 0 00-1.18-3.07l1.33-.52a19.28 19.28 0 011.36 3.08zm17.86 1.46h-1.67v2.92h-2.47v-2.92h-5.69v-2.05l5.58-6.7h2.58v7h1.67zm-4.14-1.79V99.9l-3.82 4.57zm10.07 4.94a4.19 4.19 0 01-3.52-1.45 7.54 7.54 0 01-1.12-4.62 7.54 7.54 0 011.13-4.61 5 5 0 017 0 7.51 7.51 0 011.13 4.6 7.62 7.62 0 01-1.09 4.67 4.19 4.19 0 01-3.53 1.41zm0-10.33a1.6 1.6 0 00-1.56 1 8.15 8.15 0 00-.48 3.25 7.91 7.91 0 00.49 3.25 1.69 1.69 0 003.11 0 8.21 8.21 0 00.48-3.25 8.09 8.09 0 00-.47-3.24 1.6 1.6 0 00-1.57-1.01zm14.06 3.69a5.79 5.79 0 01-1.35 3.57 6.74 6.74 0 01-3.16 1.94l-.73-1.28q3.38-1.17 3.53-4.23H206v-.51a14.25 14.25 0 01-1.26 1l-1-1.06a11 11 0 002.38-2.26 8.87 8.87 0 001.4-2.29l1.66.39a12 12 0 01-2.29 3.41h5.35a10.57 10.57 0 01-2.11-3.45l1.54-.46a10.62 10.62 0 001.65 2.58 13.77 13.77 0 002.31 2l-1.26 1.26-.63-.54a27 27 0 01-.15 3.09 2.69 2.69 0 01-.7 1.75 2.08 2.08 0 01-1.44.49h-2.11l-.24-1.48h1.9a.87.87 0 00.83-.51 9.15 9.15 0 00.26-2.91v-.5zm13.01 6.06h-2.55v-9.52h2.55v.62h-1.75v8.28h1.75zm12.77-2.01l-.5.61a8.19 8.19 0 01-2.4-2.09 10.88 10.88 0 01-1.56-2.64 7.17 7.17 0 01-1.59 2.83 6.9 6.9 0 01-2.84 1.86l-.29-.56a6.17 6.17 0 002.76-2 5.83 5.83 0 001.37-3h-3.88v-.63h4v-2.39h.82v2.43h4v.63h-3.9a8.59 8.59 0 001.51 2.8 7.59 7.59 0 002.5 2.15zm5.52-3.89a5.56 5.56 0 01-1.54 2.73 8 8 0 01-2.67 1.72l-.3-.54a6.53 6.53 0 003-2.35 5.32 5.32 0 001-3V99h.81v2.63a6.24 6.24 0 00.86 2.21 6.59 6.59 0 001.74 1.9 8.7 8.7 0 001.7 1l-.47.63a9.07 9.07 0 01-2.68-2 6.07 6.07 0 01-1.45-2.44zm13.12 3.98h-4.92V106c.52-.44 1.11-1 1.76-1.55a10 10 0 001.44-1.55 2.32 2.32 0 00.48-1.35 1.16 1.16 0 00-.4-.93 1.64 1.64 0 00-1.08-.33 3.56 3.56 0 00-2 .63H249V100a4.75 4.75 0 012-.47 2.65 2.65 0 011.76.54 1.8 1.8 0 01.64 1.45 2.75 2.75 0 01-.17 1 3 3 0 01-.51.87c-.23.28-.51.58-.83.9s-1.06 1-2.22 2h4zm5.8 0h-3.92v-.66h1.53v-5h-1.53v-.59a2.56 2.56 0 001.29-.25 1 1 0 00.43-.79h.65v6.64h1.51zm4.11.15a2.12 2.12 0 01-1.91-.91 7.06 7.06 0 010-5.74 2.43 2.43 0 013.81 0 7 7 0 010 5.73 2.1 2.1 0 01-1.9.92zm0-6.83a1.29 1.29 0 00-1.21.65 7.74 7.74 0 000 4.79 1.45 1.45 0 002.42 0 5.34 5.34 0 00.37-2.4 5.25 5.25 0 00-.37-2.37 1.27 1.27 0 00-1.21-.67zm13.82 3.34H271v3.93h-.75v-8.1h8v7.23a.69.69 0 01-.25.56.91.91 0 01-.64.22H276l-.1-.69h1.17a.36.36 0 00.41-.4zM271 103h2.82v-3H271zm3.56 0h3v-3h-3zm10.52 5.83h-2.55v-.62h1.75v-8.28h-1.75v-.62h2.55z"/><path class="cls-2" d="M158.8 146.01h131.58v21.27H158.8z"/><path class="cls-7" d="M165 158.16a18.3 18.3 0 01-.29 1.86 9.9 9.9 0 01-.43 1.56l-1.1-.25a16.79 16.79 0 00.57-3.24zm1.74 4.1h-1.49v-4.54c-.79.07-1.4.11-1.83.13l-.13-1.2h.91c.2-.24.45-.55.75-.94-.53-.57-1.09-1.16-1.7-1.76l.86-.91.22.2a10.81 10.81 0 001-1.7l1.34.48a17.31 17.31 0 01-1.46 2.09l.53.55a13.56 13.56 0 001.17-1.87l1.29.56a37.85 37.85 0 01-2.42 3.24l1.25-.09a9 9 0 00-.32-.86l1.13-.33c.21.54.48 1.3.8 2.28l-1.2.28a3.07 3.07 0 00-.09-.38l-.59.08zm1.79-1.63l-1.2.17a24 24 0 01-.41-2.56l1.19-.12zm1.74 1.49l-.19-1.43h1.51a.65.65 0 00.67-.5 7.45 7.45 0 00.17-1.81v-4.15h-2.39a11.15 11.15 0 01-.84 1.78l-1.24-.55a22.15 22.15 0 00.78-2.1 13.63 13.63 0 00.4-1.78l1.58.16a9.89 9.89 0 01-.29 1.31H174v5.98a6.89 6.89 0 01-.25 2 1.69 1.69 0 01-.58.73 1.78 1.78 0 01-.78.34c-.18-.01-.86.01-2.08.02zm1.21-3.39l-1.47.51a28.07 28.07 0 00-1.18-3.08l1.33-.51a18.88 18.88 0 011.36 3.08zm17.86 1.46h-1.67v2.92h-2.47v-2.92h-5.69v-2.05l5.58-6.7h2.58v6.95h1.67zm-4.14-1.8v-4.57l-3.82 4.57zm10.07 4.94a4.19 4.19 0 01-3.52-1.44 10 10 0 010-9.23 5 5 0 017 0 7.54 7.54 0 011.13 4.61 7.64 7.64 0 01-1.12 4.64 4.22 4.22 0 01-3.49 1.42zm0-10.33a1.6 1.6 0 00-1.56 1 8.11 8.11 0 00-.48 3.25 7.91 7.91 0 00.49 3.25 1.69 1.69 0 003.11 0 8.16 8.16 0 00.48-3.24 8.06 8.06 0 00-.47-3.24 1.61 1.61 0 00-1.57-1.02zm14.06 3.7a5.74 5.74 0 01-1.35 3.56 6.75 6.75 0 01-3.16 2l-.73-1.28q3.38-1.19 3.53-4.23H206v-.51a14.25 14.25 0 01-1.26 1l-1-1.07a10.71 10.71 0 002.38-2.25 8.87 8.87 0 001.4-2.29l1.66.39a12.13 12.13 0 01-2.29 3.41h5.35a10.79 10.79 0 01-2.12-3.42l1.54-.46a10.62 10.62 0 001.65 2.58 13.77 13.77 0 002.31 2l-1.26 1.25-.63-.53a26.7 26.7 0 01-.15 3.08 2.72 2.72 0 01-.7 1.76 2.08 2.08 0 01-1.44.49h-2.11l-.24-1.48H211a.87.87 0 00.83-.51 9.19 9.19 0 00.26-2.91v-.5zm13.01 6.06h-2.55v-9.52h2.55v.62h-1.75v8.28h1.75zm12.77-2.02l-.5.61a8 8 0 01-2.4-2.08 10.74 10.74 0 01-1.56-2.65 7 7 0 01-4.43 4.7l-.29-.57a6.22 6.22 0 002.76-2 5.83 5.83 0 001.37-3h-3.88v-.64h4v-2.43h.82v2.43h4v.64h-3.9a8.69 8.69 0 001.51 2.8 7.55 7.55 0 002.5 2.19zm5.52-3.88a5.56 5.56 0 01-1.54 2.73 8 8 0 01-2.67 1.72l-.3-.55a6.45 6.45 0 003-2.34 5.35 5.35 0 001-3v-2.57h.81v2.64a6.2 6.2 0 00.86 2.2 6.63 6.63 0 001.74 1.91 8.55 8.55 0 001.7 1l-.47.64a9.07 9.07 0 01-2.68-2 6.07 6.07 0 01-1.45-2.38zm13.12 3.98h-4.92v-.94c.52-.45 1.11-1 1.76-1.55a9.6 9.6 0 001.44-1.56 2.29 2.29 0 00.48-1.34 1.13 1.13 0 00-.4-.93 1.64 1.64 0 00-1.08-.33 3.56 3.56 0 00-2 .63H249v-.95a4.89 4.89 0 012-.46 2.7 2.7 0 011.76.53 1.84 1.84 0 01.64 1.46 2.7 2.7 0 01-.17.94 3.18 3.18 0 01-.51.88c-.23.28-.51.58-.83.9s-1.06 1-2.22 1.94h4zm5.8 0h-3.92v-.67h1.53v-5h-1.53v-.59a2.56 2.56 0 001.29-.25 1 1 0 00.43-.79h.65v6.63h1.51zm4.11.16a2.1 2.1 0 01-1.91-.92 7 7 0 010-5.73 2.43 2.43 0 013.81 0 7 7 0 010 5.73 2.12 2.12 0 01-1.9.92zm0-6.84a1.28 1.28 0 00-1.21.66 5.31 5.31 0 00-.38 2.4 5.21 5.21 0 00.38 2.38 1.44 1.44 0 002.42 0 5.26 5.26 0 00.37-2.39 5.33 5.33 0 00-.37-2.38 1.29 1.29 0 00-1.21-.68zm13.82 3.34H271v3.93h-.75v-8.11h8v7.24a.69.69 0 01-.25.56 1 1 0 01-.64.21H276l-.1-.68h1.17a.36.36 0 00.41-.4zm-6.51-.62h2.82v-2.94H271zm3.56 0h3v-2.94h-3zm10.55 5.88h-2.55v-.62h1.75v-8.28h-1.75v-.62h2.55z"/><path class="cls-2" d="M158.8 213.3h131.58v21.27H158.8z"/><path class="cls-7" d="M165 225.45a18.3 18.3 0 01-.29 1.86 10 10 0 01-.43 1.55l-1.1-.25a16.79 16.79 0 00.57-3.24zm1.74 4.09h-1.49V225c-.79.08-1.4.12-1.83.14l-.13-1.2h.91c.2-.24.45-.56.75-.95-.53-.57-1.09-1.15-1.7-1.75l.86-.91.22.2a10.81 10.81 0 001-1.7l1.34.48a17.19 17.19 0 01-1.46 2.08l.53.56a13.56 13.56 0 001.17-1.87l1.29.55a35 35 0 01-2.42 3.24l1.25-.08c-.16-.46-.26-.75-.32-.87l1.13-.33c.21.55.48 1.31.8 2.28l-1.2.29a2.7 2.7 0 00-.09-.38l-.59.08zm1.79-1.62l-1.2.16a23.54 23.54 0 01-.41-2.55l1.19-.12zm1.74 1.48l-.19-1.42h1.51a.65.65 0 00.67-.5 7.52 7.52 0 00.17-1.81v-4.15h-2.39a11.57 11.57 0 01-.84 1.78l-1.24-.56a22.11 22.11 0 00.78-2.09 14 14 0 00.4-1.78l1.58.15a9.69 9.69 0 01-.29 1.32H174v5.97a6.92 6.92 0 01-.25 2 1.81 1.81 0 01-.58.73 2 2 0 01-.78.34c-.18 0-.86.02-2.08.02zm1.21-3.38l-1.47.51a28.07 28.07 0 00-1.18-3.08l1.33-.51a18.88 18.88 0 011.36 3.06zm8.52 3.86v-2.19h.25a6.9 6.9 0 003.35 1 3.19 3.19 0 001.93-.51 1.69 1.69 0 00.7-1.48 1.42 1.42 0 00-.54-1.19 4.08 4.08 0 00-2.25-.42h-.69v-1.76h.65c1.75 0 2.63-.52 2.63-1.58a1.11 1.11 0 00-.57-1 3.07 3.07 0 00-1.6-.34 7.27 7.27 0 00-3.28 1h-.24v-2.18a11 11 0 013.83-.73 5.63 5.63 0 013.28.79 2.45 2.45 0 011.12 2.09 2.59 2.59 0 01-.62 1.71 3.07 3.07 0 01-1.65 1v.1a3.41 3.41 0 011.87.91 2.47 2.47 0 01.69 1.81 3.27 3.27 0 01-1.32 2.72 5.63 5.63 0 01-3.55 1 10.54 10.54 0 01-3.99-.75zm11 .04v-2.21h.26a6.47 6.47 0 003.23 1c1.75 0 2.62-.7 2.62-2.09a1.54 1.54 0 00-.72-1.37 4 4 0 00-2.15-.48 11 11 0 00-2.48.35h-.29v-6.39h8v1.9h-5.58V223c.6 0 1-.05 1.32-.05a5.19 5.19 0 013.36 1 3.19 3.19 0 011.16 2.61 3.72 3.72 0 01-1.33 3 5.39 5.39 0 01-3.6 1.13 9.89 9.89 0 01-3.8-.77zm18.33-5.92a5.78 5.78 0 01-1.35 3.56 6.75 6.75 0 01-3.16 1.95l-.73-1.29q3.38-1.17 3.53-4.22H206v-.51a14.12 14.12 0 01-1.26 1l-1-1.06a11 11 0 002.38-2.25 8.9 8.9 0 001.4-2.3l1.66.39a11.85 11.85 0 01-2.29 3.41h5.35a10.57 10.57 0 01-2.12-3.42l1.54-.46a10.62 10.62 0 001.65 2.58 13.33 13.33 0 002.31 2l-1.26 1.26-.63-.53a26.82 26.82 0 01-.15 3.08 2.75 2.75 0 01-.7 1.76 2.13 2.13 0 01-1.44.49h-2.11l-.24-1.49H211a.87.87 0 00.83-.51 9.11 9.11 0 00.26-2.9V224zm13.01 6.05h-2.55v-9.53h2.55v.63h-1.75v8.27h1.75zm12.77-2.05l-.5.61a8.16 8.16 0 01-2.4-2.08 10.93 10.93 0 01-1.56-2.65 7.1 7.1 0 01-1.59 2.83 7 7 0 01-2.84 1.87l-.29-.57a6.22 6.22 0 002.76-2 5.87 5.87 0 001.37-3h-3.88v-.64h4V220h.82v2.43h4v.64h-3.9a8.69 8.69 0 001.51 2.8 7.55 7.55 0 002.5 2.13zm5.52-3.86a5.56 5.56 0 01-1.54 2.73 8 8 0 01-2.67 1.73l-.3-.55a6.58 6.58 0 003-2.34 5.38 5.38 0 001-3v-2.57h.81v2.64a6.27 6.27 0 00.86 2.2 6.59 6.59 0 001.74 1.9 8.7 8.7 0 001.7 1l-.47.64a9.09 9.09 0 01-2.68-2 6 6 0 01-1.45-2.38zm13.12 3.99h-4.92v-.94c.52-.45 1.11-1 1.76-1.56a9.59 9.59 0 001.44-1.55 2.31 2.31 0 00.48-1.34 1.13 1.13 0 00-.4-.93 1.64 1.64 0 00-1.08-.34 3.56 3.56 0 00-2 .63H249v-.94a4.74 4.74 0 012-.46 2.64 2.64 0 011.76.53 1.82 1.82 0 01.64 1.46 2.7 2.7 0 01-.17.94 3 3 0 01-.51.87 10.91 10.91 0 01-.83.91c-.32.32-1.06 1-2.22 1.94h4zm5.8 0h-3.92v-.67h1.53v-5h-1.53v-.59a2.55 2.55 0 001.29-.26 1 1 0 00.43-.79h.65v6.64h1.51zm4.11.15a2.12 2.12 0 01-1.91-.92 7.06 7.06 0 010-5.74 2.42 2.42 0 013.81 0 5.23 5.23 0 01.61 2.85 5.3 5.3 0 01-.61 2.88 2.12 2.12 0 01-1.9.93zm0-6.84a1.28 1.28 0 00-1.21.66 7.71 7.71 0 000 4.78 1.44 1.44 0 002.42 0 7.87 7.87 0 000-4.77 1.27 1.27 0 00-1.21-.67zm13.82 3.34H271v3.93h-.75v-8.1h8v7.23a.7.7 0 01-.25.57 1 1 0 01-.64.21H276l-.1-.69h1.17a.36.36 0 00.41-.4zm-6.51-.61h2.82v-2.95H271zm3.56 0h3v-2.95h-3zm10.55 5.88h-2.55v-.63h1.75v-8.27h-1.75v-.63h2.55z"/><path class="cls-5" d="M79 119.8h-1.95v.4h-1.38v-3.61l-.82.36-.49-1.09a10.94 10.94 0 002.6-1.35h-2.3v-1.11h1.82v-.7H75v-1.09h1.46v-1h1.41v1h1.28v.57a8.76 8.76 0 00.57-1.21l1.23.4a8.62 8.62 0 01-1.07 2h.87v1.11h-1.9c-.25.23-.5.45-.77.66h2.27v5H79zm0-2.8v-.77h-1.95v.77zm-1.91 1.78H79v-.81h-1.95zm.84-5.35h.46c.18-.23.35-.47.5-.7h-1zm7-2.13c0 .22-.21.69-.45 1.4s-.43 1.19-.54 1.42a4.4 4.4 0 01.87 2.5 3.68 3.68 0 01-.11.94 1.64 1.64 0 01-.36.65 1.21 1.21 0 01-.56.34 3.52 3.52 0 01-1 .1h-.09l-.29-1.28h.71a.32.32 0 00.17-.12.61.61 0 00.13-.28 2.17 2.17 0 000-.47 3.59 3.59 0 00-.69-2.1.31.31 0 01-.07-.2.58.58 0 010-.18 10.8 10.8 0 00.54-1.91h-.9v8.13H81V111h3.61zm6.83 8.54a2.88 2.88 0 01-2.42-1 5.23 5.23 0 01-.77-3.18 5.17 5.17 0 01.78-3.17 3.42 3.42 0 014.83 0 5.13 5.13 0 01.78 3.16 5.23 5.23 0 01-.77 3.19 2.88 2.88 0 01-2.43 1zm0-7.1a1.09 1.09 0 00-1.07.7 7.7 7.7 0 000 4.46 1.13 1.13 0 001.07.71 1.1 1.1 0 001.07-.72 5.37 5.37 0 00.34-2.23 5.58 5.58 0 00-.33-2.23 1.1 1.1 0 00-1.08-.69zm4.53 6.62v-1.52h.18a4.53 4.53 0 002.22.68c1.21 0 1.81-.48 1.81-1.44a1.06 1.06 0 00-.5-.94 2.73 2.73 0 00-1.48-.33 7.87 7.87 0 00-1.7.24h-.2v-4.39h5.5V113h-3.84v1.64h.91a3.53 3.53 0 012.31.65 2.19 2.19 0 01.8 1.8 2.56 2.56 0 01-.92 2 3.66 3.66 0 01-2.47.78 6.91 6.91 0 01-2.62-.51zm11.18-2.55h-3.91v-1.37h3.91zm7.53 2.86h-6.1v-1.26a20.85 20.85 0 003.11-2.69 2.78 2.78 0 00.8-1.68 1.15 1.15 0 00-.38-.91 1.63 1.63 0 00-1.06-.32 3.93 3.93 0 00-2.13.72h-.13V112a7.09 7.09 0 012.54-.51 3.48 3.48 0 012.21.62 2.08 2.08 0 01.78 1.73 3.36 3.36 0 01-.63 1.83 13.82 13.82 0 01-2.94 2.7H115zm7.77-2.03a10 10 0 01-1.72 1.39 10.83 10.83 0 01-1.88 1l-.78-1.13a12.76 12.76 0 001.93-1.12 12.33 12.33 0 001.24-1.07zm1.81 2.65H123v-3.65c-2 .11-3.33.17-4.1.18l-.19-1.34h.25q.87 0 2.73-.06a25.59 25.59 0 00-2.22-1.87l1-.92a7.82 7.82 0 01.83.61c.29-.29.57-.58.82-.87-1.19.06-2.09.1-2.71.1l-.19-1.24c2 0 3.73-.09 5.18-.23a19.93 19.93 0 003-.44l.73 1.15a30 30 0 01-4.15.53 18 18 0 01-1.72 1.83l.87.74a18.37 18.37 0 002.69-2.7l1.39.7a23.1 23.1 0 01-2.7 2.5l2-.12c-.2-.26-.41-.53-.63-.79l1.19-.65a24.46 24.46 0 012.16 2.74l-1.32.68-.57-.82c-.63.05-1.54.12-2.73.19zm4.53-1.49l-.93 1.24a12.23 12.23 0 01-1.9-1.19 7.29 7.29 0 01-1.45-1.32l1-.9a11.59 11.59 0 001.53 1.27 10.2 10.2 0 001.75.9zm2-2.26a12 12 0 01-.64 3.12l-.94-.23a14.72 14.72 0 00.49-3zm1.48 3.76h-1.29v-4.23l-1.6.12-.13-1h.84l.65-.87c-.53-.61-1-1.15-1.48-1.61l.75-.78.17.16a9.81 9.81 0 00.87-1.59l1.14.44a13.77 13.77 0 01-1.27 1.94l.46.51a12.5 12.5 0 001-1.74l1.13.51a24 24 0 01-2.09 3l1.06-.07a5.13 5.13 0 00-.27-.75l1-.28c.17.47.39 1.15.64 2l-1 .26a3.56 3.56 0 00-.09-.38 4.29 4.29 0 01-.5.07zm1.56-1.74l-1 .19c-.18-1-.29-1.77-.33-2.2l1-.15zm2.23-2a4.28 4.28 0 01-.54 2.19 3.85 3.85 0 01-1.63 1.48l-.7-1a2.87 2.87 0 001.2-1.26 3.73 3.73 0 00.32-1.52v-.88h1.35zm2-1.41c-1 .12-2.35.25-4.18.38l-.21-1.16h.78c.2-.41.41-.88.61-1.4h-1.29v-1.12h2.09v-1.21h1.37v1.21h2.27v1.12h-3c-.18.39-.39.84-.65 1.32l1.65-.12c-.13-.23-.28-.46-.45-.71v-.09l1.11-.37a20.84 20.84 0 011.54 2.51l-1.29.47c-.09-.29-.22-.56-.36-.83zm1.71 3.88a1.17 1.17 0 01-.13.59.78.78 0 01-.38.36 1.26 1.26 0 01-.47.14h-.63a4.41 4.41 0 01-.79 0 1.09 1.09 0 01-.4-.16.78.78 0 01-.26-.33 1.15 1.15 0 01-.1-.52v-3.51h1.34v3.17c0 .13.06.19.16.19h.27a.25.25 0 00.16-.05.17.17 0 00.06-.14v-1.31l1.12.15zm6.63-3.58h-1.83v-1.94h1.83zm0 4.22h-1.83v-1.94h1.83zM74.7 137.78l-.3-.65a9 9 0 001.67-.61 13.23 13.23 0 001.64-.93 6.72 6.72 0 001.18-.92h-3.08v-3.8h3.49V130h-4.47v-.65h4.47v-1h.83v1h4.57v.65h-4.57v.88h3.54v3.8h-3.25a10.3 10.3 0 002.27 1.47 11.36 11.36 0 002.43.9l-.43.71a11.92 11.92 0 01-2.43-1 12.4 12.4 0 01-2.14-1.42v2.86h-.81v-2.87a9.67 9.67 0 01-2.06 1.41 12.62 12.62 0 01-2.55 1.04zm1.91-5.31h2.7v-1h-2.7zm2.7.56h-2.7v1.05h2.7zm.81-.56h2.74v-1h-2.74zm2.74.56h-2.74v1.05h2.74zm3.14 4.54l-.47-.57a10.45 10.45 0 002.84-2.34l.69.43a9.42 9.42 0 01-1.42 1.39 11.29 11.29 0 01-1.64 1.09zm-.24-7.57v-.66h4.52v-.95h.87v.95h4.57v.66zm4.47 8.06h-1.4l-.08-.74h1.1c.31 0 .46-.13.46-.38v-2.89h-3.46v-3h7.81v3h-3.49v3.23a.67.67 0 01-.28.55 1 1 0 01-.66.27zm3.59-6.38h-6.15v1.75h6.15zm1.66 5.77a11.12 11.12 0 01-1.55-1.05 12.2 12.2 0 01-1.48-1.3l.64-.48a11.13 11.13 0 001.47 1.28 8.67 8.67 0 001.45.9zm1.52.24l-.55-.23a10 10 0 00.44-2.46l.56.07a11.4 11.4 0 01-.15 1.35 6.44 6.44 0 01-.3 1.27zm2.8-4h1.48c0 1.13 0 2-.11 2.62a3.64 3.64 0 01-.25 1.19 1.22 1.22 0 01-.46.44 1.77 1.77 0 01-.85.17h-.88l-.08-.66a7.37 7.37 0 001.07 0 .68.68 0 00.37-.2 1 1 0 00.25-.44 4.41 4.41 0 00.11-.84v-1.64H97.8v.2h-.72v-5.61h4.25v.6h-1.57v1H101v.57h-1.24v1h1.29v.57h-1.29zm-1.83 3.25l-.16-1.94.45-.06.13 1.94zm-.11-7.46v1h1.24v-1zm0 1.6v1h1.24v-1zm0 1.55v1.06h1.24v-1.06zm1.12 3.89l-.26-1.67.4-.06.28 1.67zm.82-.5l-.27-1.31.35-.08.28 1.31zm6.91 2.06a7.19 7.19 0 01-1.63-2.23 9.38 9.38 0 01-.86-2.86h-1.12a12.62 12.62 0 01-.38 2.92 6.69 6.69 0 01-.9 2.2l-.59-.42a5.51 5.51 0 00.76-2.07 15.28 15.28 0 00.27-3v-3.79h4.25V133h-1.53a8.17 8.17 0 00.76 2.44 6.81 6.81 0 001.5 2.06zm-1-8.61h-2.59v2.92h2.59zm5.63 5.32a6.76 6.76 0 01-3.26 3.36l-.43-.55a6.1 6.1 0 003-3.36c-.86-.64-1.52-1.1-2-1.37l.49-.57q.57.36 1.71 1.17a10 10 0 00.24-2.3h-3v-.67h3v-1.95h.84v1.95h3.43v6.38a.4.4 0 00.33.42 3.71 3.71 0 00.59 0 1.92 1.92 0 00.49 0 .43.43 0 00.25-.16 1.15 1.15 0 00.16-.5 11.8 11.8 0 000-1.27l.74.09V137a1 1 0 01-.16.6.87.87 0 01-.48.32 3.57 3.57 0 01-1 .1h-1a.86.86 0 01-.61-.28 1.09 1.09 0 01-.21-.71v-5.86h-2.6a11.25 11.25 0 01-.32 2.87q1.27.94 1.74 1.35l-.59.62a15.78 15.78 0 00-1.35-1.22zm11.77 2.9l-.17-.68a4.26 4.26 0 002.23-1 3.57 3.57 0 00.92-2.59 3.36 3.36 0 00-.87-2.23 2.72 2.72 0 00-2.11-.87 15.14 15.14 0 01-.65 4.77c-.43 1.27-1.07 1.91-1.9 1.91a1.44 1.44 0 01-1.34-.77 3.72 3.72 0 01-.44-1.87 5 5 0 011.22-3.28 3.88 3.88 0 013.12-1.45 3.61 3.61 0 013.71 3.73 4 4 0 01-3.72 4.33zm-.74-7.28a3.08 3.08 0 00-2 1.39 4.59 4.59 0 00-.8 2.6 3.07 3.07 0 00.28 1.32.76.76 0 00.72.52c.53 0 1-.53 1.27-1.63a16.78 16.78 0 00.53-4.2zm13.91 7.59h-1.62l-.13-.74H136a.55.55 0 00.38-.13.38.38 0 00.16-.32v-5.92h-3.35a4.93 4.93 0 001 2.3 5.73 5.73 0 002 1.77l-.52.62a6.86 6.86 0 01-1.77-1.55 6.29 6.29 0 01-1.1-1.93 6 6 0 01-3.09 3.5l-.41-.55a5.3 5.3 0 002.95-4.16H129v7.19h-.81v-7.84h4.13v-1.85h.86v1.85h4.25v6.82a.89.89 0 01-.3.69 1.22 1.22 0 01-.85.25zm7.07 0v-2.17h-2.48v-.62h2.48v-1.3H141v-.6h1.2l-.58-1.54h-1.42v6.34h-.81v-7h4V130h-4.59v-.66h4.59v-1h.84v1h4.59v.66h-4.59v1.15h4v6a.83.83 0 01-.3.67 1 1 0 01-.7.25h-1.33l-.13-.74h1.16a.48.48 0 00.3-.11.35.35 0 00.13-.28v-5.13h-1.46l-.68 1.54h1.36v.6h-2.42v1.3h2.45v.62h-2.45V138zm1.7-6.23h-2.64l.54 1.54h1.49zm13.22 5.23h-7v.83h-.85v-8.46h8.77v8.47h-.88zm-7-.7h7V130h-7zm19.37 1.95h-1.06a7.49 7.49 0 010-9.9h1.06v.05a6.21 6.21 0 00-1.43 2 6.86 6.86 0 000 5.87 6.21 6.21 0 001.43 2zm3.48-4.12H173a10.54 10.54 0 01-1 4l-.55-.26a6.81 6.81 0 00.44-1.24 13.23 13.23 0 00.28-1.54 20.19 20.19 0 00.1-2.18v-4.07h2.64v8.54a.58.58 0 01-.24.47 1 1 0 01-.62.18h-.94l-.09-.66h.74c.26 0 .39-.1.39-.32zm-1.15-.57h1.15v-1.86H173v1.86zm0-2.45h1.14v-1.69H173zm4.57 1.44a8.23 8.23 0 01-2.16 2.26l-.39-.45a7.16 7.16 0 001.73-1.81h-1.52V132h1.89a7.92 7.92 0 00.48-1h-2.07v-.59h1c-.14-.35-.35-.82-.62-1.41l.69-.23c.32.72.56 1.27.7 1.64h.52a9.66 9.66 0 00.27-1.9h.82a8.62 8.62 0 01-.3 1.85h1c.21-.42.43-1 .69-1.65l.76.17c-.24.53-.48 1-.72 1.48h1.25v.59h-1.94a8.05 8.05 0 00.45 1h1.75v.6h-1.38a7.7 7.7 0 001.81 1.73l-.51.56a9.11 9.11 0 01-2.12-2.29zm.88 2.26a4 4 0 01-2.67 3.35l-.35-.53a3.62 3.62 0 001.65-1.32 3 3 0 00.55-1.5h-1.29v-.61h1.34v-1.08h.81v1.08h2.4v.65a11.72 11.72 0 01-.09 1.56 3.77 3.77 0 01-.2 1 1 1 0 01-.28.43.91.91 0 01-.36.2 2.44 2.44 0 01-.61.06h-.92l-.09-.69h.69a1.71 1.71 0 00.5-.05.6.6 0 00.31-.23 1.84 1.84 0 00.22-.71 12.06 12.06 0 00.08-1.57zm-.1-3.89c-.1.23-.24.58-.44 1h1.36c-.2-.42-.35-.77-.45-1zm10.38 6.77a17.87 17.87 0 01-2.26.13 11.27 11.27 0 01-1.16-.06 4.94 4.94 0 01-1.07-.22 2.1 2.1 0 01-.82-.45 1.83 1.83 0 01-.47-.65 2.23 2.23 0 01-.16-.9 3.84 3.84 0 011.8-2.83c-.1-1.22-.16-2.46-.18-3.73h.87v.49c0 .82 0 1.75.1 2.78a18.47 18.47 0 013-1.23l.15.76a12.07 12.07 0 00-2 .74 6.74 6.74 0 00-1.7 1 4.34 4.34 0 00-.86 1 2.4 2.4 0 00-.28 1 1.72 1.72 0 00.08.52 1.14 1.14 0 00.26.42 1.58 1.58 0 00.59.36 3.23 3.23 0 00.88.21h1a18.4 18.4 0 002.34-.14zm-.34-7.8l-.62.27a14.49 14.49 0 00-.78-1.49l.58-.26a10.25 10.25 0 01.82 1.48zm1.33-.22l-.62.25a11.16 11.16 0 00-.77-1.47l.57-.27a14.24 14.24 0 01.82 1.49zm6.55 5.2l-.59.59a5.27 5.27 0 00-1.26-.62 4 4 0 00-1.36-.24 3.1 3.1 0 00-1.69.36 1.13 1.13 0 00-.54 1 1 1 0 00.63.87 4.58 4.58 0 001.95.31 16.6 16.6 0 002.68-.22v.77a17.15 17.15 0 01-2.72.19 5.29 5.29 0 01-2.55-.49 1.56 1.56 0 01-.87-1.43 1.68 1.68 0 01.83-1.52 3.92 3.92 0 012.14-.52 4.68 4.68 0 012.07.46 10.18 10.18 0 01-1-1.54h-4.18v-.69h3.87a10.94 10.94 0 01-.46-1.27h-3.1v-.68H193c-.1-.46-.17-.9-.22-1.33l.86-.07c.09.63.16 1.1.23 1.4h2.72v.68H194a7 7 0 00.47 1.27h2.59v.69h-2.27a16 16 0 001.45 2.03zm1.98 2.82l-.56-.23a9.17 9.17 0 00.44-2.46l.56.07a9.32 9.32 0 01-.14 1.35 8.3 8.3 0 01-.3 1.27zm2.79-4h1.49c0 1.13-.05 2-.11 2.62a3.94 3.94 0 01-.25 1.19 1.3 1.3 0 01-.46.44 1.82 1.82 0 01-.86.17h-.88l-.07-.66a7.47 7.47 0 001.07 0 .72.72 0 00.37-.2 1 1 0 00.25-.44 3.83 3.83 0 00.1-.84v-1.64h-2.62v.2h-.72v-5.61h4.24v.6H201v1h1.26v.57H201v1h1.29v.57H201zm-1.82 3.25l-.12-1.94.45-.06.12 1.94zm-.11-7.46v1h1.23v-1zm0 1.6v1h1.23v-1zm0 1.55v1.06h1.23v-1.06zm1.12 3.89l-.27-1.67.41-.06.28 1.67zm.81-.5l-.27-1.31.36-.08.27 1.31zm6.92 2.06a7.21 7.21 0 01-1.64-2.23 9.65 9.65 0 01-.85-2.86h-1.13a12.62 12.62 0 01-.37 2.92 6.9 6.9 0 01-.91 2.2l-.58-.42a5.69 5.69 0 00.76-2.07 15.28 15.28 0 00.27-3v-3.79h4.25V133h-1.53a7.86 7.86 0 00.75 2.44 6.67 6.67 0 001.51 2.06zm-1-8.61h-2.59v2.92h2.59zm4.98.38c-.27-.5-.5-.9-.68-1.21l.83-.19c.27.48.52.94.75 1.4h2.45c.35-.7.58-1.17.69-1.43l.93.22c-.22.4-.47.8-.74 1.21h2.94v.64h-10v-.64zm1.14 5.74h-2.59v2.51h-.81v-6.68h4.23v5.87a.62.62 0 01-.26.54 1 1 0 01-.67.2h-1.07l-.11-.7h.85a.46.46 0 00.29-.1.27.27 0 00.14-.24zm0-2.38V132h-2.59v1.19zm-2.59 1.79h2.59v-1.18h-2.59zm4.7 1.07v-4.38h.84v4.38zm2.21 2H216l-.09-.73H217a.44.44 0 00.31-.11.32.32 0 00.13-.27v-5.82h.83v6.16a.68.68 0 01-.26.56 1 1 0 01-.64.19zm4.39.09v-4.54c-.4 0-1 0-1.72.09l-.1-.63h.55c.26-.3.57-.69.94-1.18-.17-.19-.67-.68-1.52-1.48l.47-.43.21.19a13.1 13.1 0 001.08-1.79l.73.27a14.61 14.61 0 01-1.36 1.93l.81.75a17.39 17.39 0 001.18-1.8l.71.29a33 33 0 01-2.44 3.23l1.8-.11c-.13-.41-.22-.69-.28-.83l.69-.15c.15.42.34 1 .57 1.72l-.69.18c0-.08-.06-.2-.12-.37l-.76.07v4.6zm-1.16-1l-.67-.12a12.14 12.14 0 00.47-2.66l.76.08a10.14 10.14 0 01-.56 2.7zm2.81-.7c-.13-.65-.24-1.33-.32-2l.7-.07c.14 1 .25 1.64.33 2zm.54 1.46v-.63h2.7v-2.14h-2v-.66h2v-1.22h.84v1.22h2.2v.66h-2.2v2.14h2.68v.63zm3.24-5.69a11.3 11.3 0 01-2.7 1.27l-.28-.54a10.57 10.57 0 002.36-1.17 9.11 9.11 0 01-1.74-1.82l.6-.3a8.35 8.35 0 001.75 1.7 5.11 5.11 0 001.67-1.88h-4.57v-.62h5.34l.34.31a7 7 0 01-2.16 2.62 12.35 12.35 0 002.44 1.13l-.42.61a12.19 12.19 0 01-2.63-1.31zm12.56 5.2h-7.31v.57h-.85v-7.62h4v-1.76h.87v1.76h4.12V138h-.86zm-4.13-6.43h-3.18v2.45h3.18zm-3.18 5.76h3.18v-2.67h-3.18zm7.31-3.31V131h-3.26v2.45zm-3.26 3.31h3.26v-2.67h-3.26zm8.63-3.47a7.52 7.52 0 01-1.87 5h-1.05v-.05a6.25 6.25 0 001.43-2 6.83 6.83 0 000-5.86 6.25 6.25 0 00-1.43-2v-.06h1.05a7.52 7.52 0 011.87 4.97z"/><path class="cls-5" d="M79 119.8h-1.95v.4h-1.38v-3.61l-.82.36-.49-1.09a10.94 10.94 0 002.6-1.35h-2.3v-1.11h1.82v-.7H75v-1.09h1.46v-1h1.41v1h1.28v.57a8.76 8.76 0 00.57-1.21l1.23.4a8.62 8.62 0 01-1.07 2h.87v1.11h-1.9c-.25.23-.5.45-.77.66h2.27v5H79zm0-2.8v-.77h-1.95v.77zm-1.91 1.78H79v-.81h-1.95zm.84-5.35h.46c.18-.23.35-.47.5-.7h-1zm7-2.13c0 .22-.21.69-.45 1.4s-.43 1.19-.54 1.42a4.4 4.4 0 01.87 2.5 3.68 3.68 0 01-.11.94 1.64 1.64 0 01-.36.65 1.21 1.21 0 01-.56.34 3.52 3.52 0 01-1 .1h-.09l-.29-1.28h.71a.32.32 0 00.17-.12.61.61 0 00.13-.28 2.17 2.17 0 000-.47 3.59 3.59 0 00-.69-2.1.31.31 0 01-.07-.2.58.58 0 010-.18 10.8 10.8 0 00.54-1.91h-.9v8.13H81V111h3.61zm6.83 8.54a2.88 2.88 0 01-2.42-1 5.23 5.23 0 01-.77-3.18 5.17 5.17 0 01.78-3.17 3.42 3.42 0 014.83 0 5.13 5.13 0 01.78 3.16 5.23 5.23 0 01-.77 3.19 2.88 2.88 0 01-2.43 1zm0-7.1a1.09 1.09 0 00-1.07.7 7.7 7.7 0 000 4.46 1.13 1.13 0 001.07.71 1.1 1.1 0 001.07-.72 5.37 5.37 0 00.34-2.23 5.58 5.58 0 00-.33-2.23 1.1 1.1 0 00-1.08-.69zm4.53 6.62v-1.52h.18a4.53 4.53 0 002.22.68c1.21 0 1.81-.48 1.81-1.44a1.06 1.06 0 00-.5-.94 2.73 2.73 0 00-1.48-.33 7.87 7.87 0 00-1.7.24h-.2v-4.39h5.5V113h-3.84v1.64h.91a3.53 3.53 0 012.31.65 2.19 2.19 0 01.8 1.8 2.56 2.56 0 01-.92 2 3.66 3.66 0 01-2.47.78 6.91 6.91 0 01-2.62-.51zm11.18-2.55h-3.91v-1.37h3.91zm7.53 2.86h-6.1v-1.26a20.85 20.85 0 003.11-2.69 2.78 2.78 0 00.8-1.68 1.15 1.15 0 00-.38-.91 1.63 1.63 0 00-1.06-.32 3.93 3.93 0 00-2.13.72h-.13V112a7.09 7.09 0 012.54-.51 3.48 3.48 0 012.21.62 2.08 2.08 0 01.78 1.73 3.36 3.36 0 01-.63 1.83 13.82 13.82 0 01-2.94 2.7H115zm7.77-2.03a10 10 0 01-1.72 1.39 10.83 10.83 0 01-1.88 1l-.78-1.13a12.76 12.76 0 001.93-1.12 12.33 12.33 0 001.24-1.07zm1.81 2.65H123v-3.65c-2 .11-3.33.17-4.1.18l-.19-1.34h.25q.87 0 2.73-.06a25.59 25.59 0 00-2.22-1.87l1-.92a7.82 7.82 0 01.83.61c.29-.29.57-.58.82-.87-1.19.06-2.09.1-2.71.1l-.19-1.24c2 0 3.73-.09 5.18-.23a19.93 19.93 0 003-.44l.73 1.15a30 30 0 01-4.15.53 18 18 0 01-1.72 1.83l.87.74a18.37 18.37 0 002.69-2.7l1.39.7a23.1 23.1 0 01-2.7 2.5l2-.12c-.2-.26-.41-.53-.63-.79l1.19-.65a24.46 24.46 0 012.16 2.74l-1.32.68-.57-.82c-.63.05-1.54.12-2.73.19zm4.53-1.49l-.93 1.24a12.23 12.23 0 01-1.9-1.19 7.29 7.29 0 01-1.45-1.32l1-.9a11.59 11.59 0 001.53 1.27 10.2 10.2 0 001.75.9zm2-2.26a12 12 0 01-.64 3.12l-.94-.23a14.72 14.72 0 00.49-3zm1.48 3.76h-1.29v-4.23l-1.6.12-.13-1h.84l.65-.87c-.53-.61-1-1.15-1.48-1.61l.75-.78.17.16a9.81 9.81 0 00.87-1.59l1.14.44a13.77 13.77 0 01-1.27 1.94l.46.51a12.5 12.5 0 001-1.74l1.13.51a24 24 0 01-2.09 3l1.06-.07a5.13 5.13 0 00-.27-.75l1-.28c.17.47.39 1.15.64 2l-1 .26a3.56 3.56 0 00-.09-.38 4.29 4.29 0 01-.5.07zm1.56-1.74l-1 .19c-.18-1-.29-1.77-.33-2.2l1-.15zm2.23-2a4.28 4.28 0 01-.54 2.19 3.85 3.85 0 01-1.63 1.48l-.7-1a2.87 2.87 0 001.2-1.26 3.73 3.73 0 00.32-1.52v-.88h1.35zm2-1.41c-1 .12-2.35.25-4.18.38l-.21-1.16h.78c.2-.41.41-.88.61-1.4h-1.29v-1.12h2.09v-1.21h1.37v1.21h2.27v1.12h-3c-.18.39-.39.84-.65 1.32l1.65-.12c-.13-.23-.28-.46-.45-.71v-.09l1.11-.37a20.84 20.84 0 011.54 2.51l-1.29.47c-.09-.29-.22-.56-.36-.83zm1.71 3.88a1.17 1.17 0 01-.13.59.78.78 0 01-.38.36 1.26 1.26 0 01-.47.14h-.63a4.41 4.41 0 01-.79 0 1.09 1.09 0 01-.4-.16.78.78 0 01-.26-.33 1.15 1.15 0 01-.1-.52v-3.51h1.34v3.17c0 .13.06.19.16.19h.27a.25.25 0 00.16-.05.17.17 0 00.06-.14v-1.31l1.12.15zm6.63-3.58h-1.83v-1.94h1.83zm0 4.22h-1.83v-1.94h1.83zM74.7 137.78l-.3-.65a9 9 0 001.67-.61 13.23 13.23 0 001.64-.93 6.72 6.72 0 001.18-.92h-3.08v-3.8h3.49V130h-4.47v-.65h4.47v-1h.83v1h4.57v.65h-4.57v.88h3.54v3.8h-3.25a10.3 10.3 0 002.27 1.47 11.36 11.36 0 002.43.9l-.43.71a11.92 11.92 0 01-2.43-1 12.4 12.4 0 01-2.14-1.42v2.86h-.81v-2.87a9.67 9.67 0 01-2.06 1.41 12.62 12.62 0 01-2.55 1.04zm1.91-5.31h2.7v-1h-2.7zm2.7.56h-2.7v1.05h2.7zm.81-.56h2.74v-1h-2.74zm2.74.56h-2.74v1.05h2.74zm3.14 4.54l-.47-.57a10.45 10.45 0 002.84-2.34l.69.43a9.42 9.42 0 01-1.42 1.39 11.29 11.29 0 01-1.64 1.09zm-.24-7.57v-.66h4.52v-.95h.87v.95h4.57v.66zm4.47 8.06h-1.4l-.08-.74h1.1c.31 0 .46-.13.46-.38v-2.89h-3.46v-3h7.81v3h-3.49v3.23a.67.67 0 01-.28.55 1 1 0 01-.66.27zm3.59-6.38h-6.15v1.75h6.15zm1.66 5.77a11.12 11.12 0 01-1.55-1.05 12.2 12.2 0 01-1.48-1.3l.64-.48a11.13 11.13 0 001.47 1.28 8.67 8.67 0 001.45.9zm1.52.24l-.55-.23a10 10 0 00.44-2.46l.56.07a11.4 11.4 0 01-.15 1.35 6.44 6.44 0 01-.3 1.27zm2.8-4h1.48c0 1.13 0 2-.11 2.62a3.64 3.64 0 01-.25 1.19 1.22 1.22 0 01-.46.44 1.77 1.77 0 01-.85.17h-.88l-.08-.66a7.37 7.37 0 001.07 0 .68.68 0 00.37-.2 1 1 0 00.25-.44 4.41 4.41 0 00.11-.84v-1.64H97.8v.2h-.72v-5.61h4.25v.6h-1.57v1H101v.57h-1.24v1h1.29v.57h-1.29zm-1.83 3.25l-.16-1.94.45-.06.13 1.94zm-.11-7.46v1h1.24v-1zm0 1.6v1h1.24v-1zm0 1.55v1.06h1.24v-1.06zm1.12 3.89l-.26-1.67.4-.06.28 1.67zm.82-.5l-.27-1.31.35-.08.28 1.31zm6.91 2.06a7.19 7.19 0 01-1.63-2.23 9.38 9.38 0 01-.86-2.86h-1.12a12.62 12.62 0 01-.38 2.92 6.69 6.69 0 01-.9 2.2l-.59-.42a5.51 5.51 0 00.76-2.07 15.28 15.28 0 00.27-3v-3.79h4.25V133h-1.53a8.17 8.17 0 00.76 2.44 6.81 6.81 0 001.5 2.06zm-1-8.61h-2.59v2.92h2.59zm5.63 5.32a6.76 6.76 0 01-3.26 3.36l-.43-.55a6.1 6.1 0 003-3.36c-.86-.64-1.52-1.1-2-1.37l.49-.57q.57.36 1.71 1.17a10 10 0 00.24-2.3h-3v-.67h3v-1.95h.84v1.95h3.43v6.38a.4.4 0 00.33.42 3.71 3.71 0 00.59 0 1.92 1.92 0 00.49 0 .43.43 0 00.25-.16 1.15 1.15 0 00.16-.5 11.8 11.8 0 000-1.27l.74.09V137a1 1 0 01-.16.6.87.87 0 01-.48.32 3.57 3.57 0 01-1 .1h-1a.86.86 0 01-.61-.28 1.09 1.09 0 01-.21-.71v-5.86h-2.6a11.25 11.25 0 01-.32 2.87q1.27.94 1.74 1.35l-.59.62a15.78 15.78 0 00-1.35-1.22zm11.77 2.9l-.17-.68a4.26 4.26 0 002.23-1 3.57 3.57 0 00.92-2.59 3.36 3.36 0 00-.87-2.23 2.72 2.72 0 00-2.11-.87 15.14 15.14 0 01-.65 4.77c-.43 1.27-1.07 1.91-1.9 1.91a1.44 1.44 0 01-1.34-.77 3.72 3.72 0 01-.44-1.87 5 5 0 011.22-3.28 3.88 3.88 0 013.12-1.45 3.61 3.61 0 013.71 3.73 4 4 0 01-3.72 4.33zm-.74-7.28a3.08 3.08 0 00-2 1.39 4.59 4.59 0 00-.8 2.6 3.07 3.07 0 00.28 1.32.76.76 0 00.72.52c.53 0 1-.53 1.27-1.63a16.78 16.78 0 00.53-4.2zm13.91 7.59h-1.62l-.13-.74H136a.55.55 0 00.38-.13.38.38 0 00.16-.32v-5.92h-3.35a4.93 4.93 0 001 2.3 5.73 5.73 0 002 1.77l-.52.62a6.86 6.86 0 01-1.77-1.55 6.29 6.29 0 01-1.1-1.93 6 6 0 01-3.09 3.5l-.41-.55a5.3 5.3 0 002.95-4.16H129v7.19h-.81v-7.84h4.13v-1.85h.86v1.85h4.25v6.82a.89.89 0 01-.3.69 1.22 1.22 0 01-.85.25zm7.07 0v-2.17h-2.48v-.62h2.48v-1.3H141v-.6h1.2l-.58-1.54h-1.42v6.34h-.81v-7h4V130h-4.59v-.66h4.59v-1h.84v1h4.59v.66h-4.59v1.15h4v6a.83.83 0 01-.3.67 1 1 0 01-.7.25h-1.33l-.13-.74h1.16a.48.48 0 00.3-.11.35.35 0 00.13-.28v-5.13h-1.46l-.68 1.54h1.36v.6h-2.42v1.3h2.45v.62h-2.45V138zm1.7-6.23h-2.64l.54 1.54h1.49zm13.22 5.23h-7v.83h-.85v-8.46h8.77v8.47h-.88zm-7-.7h7V130h-7zm19.37 1.95h-1.06a7.49 7.49 0 010-9.9h1.06v.05a6.21 6.21 0 00-1.43 2 6.86 6.86 0 000 5.87 6.21 6.21 0 001.43 2zm3.48-4.12H173a10.54 10.54 0 01-1 4l-.55-.26a6.81 6.81 0 00.44-1.24 13.23 13.23 0 00.28-1.54 20.19 20.19 0 00.1-2.18v-4.07h2.64v8.54a.58.58 0 01-.24.47 1 1 0 01-.62.18h-.94l-.09-.66h.74c.26 0 .39-.1.39-.32zm-1.15-.57h1.15v-1.86H173v1.86zm0-2.45h1.14v-1.69H173zm4.57 1.44a8.23 8.23 0 01-2.16 2.26l-.39-.45a7.16 7.16 0 001.73-1.81h-1.52V132h1.89a7.92 7.92 0 00.48-1h-2.07v-.59h1c-.14-.35-.35-.82-.62-1.41l.69-.23c.32.72.56 1.27.7 1.64h.52a9.66 9.66 0 00.27-1.9h.82a8.62 8.62 0 01-.3 1.85h1c.21-.42.43-1 .69-1.65l.76.17c-.24.53-.48 1-.72 1.48h1.25v.59h-1.94a8.05 8.05 0 00.45 1h1.75v.6h-1.38a7.7 7.7 0 001.81 1.73l-.51.56a9.11 9.11 0 01-2.12-2.29zm.88 2.26a4 4 0 01-2.67 3.35l-.35-.53a3.62 3.62 0 001.65-1.32 3 3 0 00.55-1.5h-1.29v-.61h1.34v-1.08h.81v1.08h2.4v.65a11.72 11.72 0 01-.09 1.56 3.77 3.77 0 01-.2 1 1 1 0 01-.28.43.91.91 0 01-.36.2 2.44 2.44 0 01-.61.06h-.92l-.09-.69h.69a1.71 1.71 0 00.5-.05.6.6 0 00.31-.23 1.84 1.84 0 00.22-.71 12.06 12.06 0 00.08-1.57zm-.1-3.89c-.1.23-.24.58-.44 1h1.36c-.2-.42-.35-.77-.45-1zm10.38 6.77a17.87 17.87 0 01-2.26.13 11.27 11.27 0 01-1.16-.06 4.94 4.94 0 01-1.07-.22 2.1 2.1 0 01-.82-.45 1.83 1.83 0 01-.47-.65 2.23 2.23 0 01-.16-.9 3.84 3.84 0 011.8-2.83c-.1-1.22-.16-2.46-.18-3.73h.87v.49c0 .82 0 1.75.1 2.78a18.47 18.47 0 013-1.23l.15.76a12.07 12.07 0 00-2 .74 6.74 6.74 0 00-1.7 1 4.34 4.34 0 00-.86 1 2.4 2.4 0 00-.28 1 1.72 1.72 0 00.08.52 1.14 1.14 0 00.26.42 1.58 1.58 0 00.59.36 3.23 3.23 0 00.88.21h1a18.4 18.4 0 002.34-.14zm-.34-7.8l-.62.27a14.49 14.49 0 00-.78-1.49l.58-.26a10.25 10.25 0 01.82 1.48zm1.33-.22l-.62.25a11.16 11.16 0 00-.77-1.47l.57-.27a14.24 14.24 0 01.82 1.49zm6.55 5.2l-.59.59a5.27 5.27 0 00-1.26-.62 4 4 0 00-1.36-.24 3.1 3.1 0 00-1.69.36 1.13 1.13 0 00-.54 1 1 1 0 00.63.87 4.58 4.58 0 001.95.31 16.6 16.6 0 002.68-.22v.77a17.15 17.15 0 01-2.72.19 5.29 5.29 0 01-2.55-.49 1.56 1.56 0 01-.87-1.43 1.68 1.68 0 01.83-1.52 3.92 3.92 0 012.14-.52 4.68 4.68 0 012.07.46 10.18 10.18 0 01-1-1.54h-4.18v-.69h3.87a10.94 10.94 0 01-.46-1.27h-3.1v-.68H193c-.1-.46-.17-.9-.22-1.33l.86-.07c.09.63.16 1.1.23 1.4h2.72v.68H194a7 7 0 00.47 1.27h2.59v.69h-2.27a16 16 0 001.45 2.03zm1.98 2.82l-.56-.23a9.17 9.17 0 00.44-2.46l.56.07a9.32 9.32 0 01-.14 1.35 8.3 8.3 0 01-.3 1.27zm2.79-4h1.49c0 1.13-.05 2-.11 2.62a3.94 3.94 0 01-.25 1.19 1.3 1.3 0 01-.46.44 1.82 1.82 0 01-.86.17h-.88l-.07-.66a7.47 7.47 0 001.07 0 .72.72 0 00.37-.2 1 1 0 00.25-.44 3.83 3.83 0 00.1-.84v-1.64h-2.62v.2h-.72v-5.61h4.24v.6H201v1h1.26v.57H201v1h1.29v.57H201zm-1.82 3.25l-.12-1.94.45-.06.12 1.94zm-.11-7.46v1h1.23v-1zm0 1.6v1h1.23v-1zm0 1.55v1.06h1.23v-1.06zm1.12 3.89l-.27-1.67.41-.06.28 1.67zm.81-.5l-.27-1.31.36-.08.27 1.31zm6.92 2.06a7.21 7.21 0 01-1.64-2.23 9.65 9.65 0 01-.85-2.86h-1.13a12.62 12.62 0 01-.37 2.92 6.9 6.9 0 01-.91 2.2l-.58-.42a5.69 5.69 0 00.76-2.07 15.28 15.28 0 00.27-3v-3.79h4.25V133h-1.53a7.86 7.86 0 00.75 2.44 6.67 6.67 0 001.51 2.06zm-1-8.61h-2.59v2.92h2.59zm4.98.38c-.27-.5-.5-.9-.68-1.21l.83-.19c.27.48.52.94.75 1.4h2.45c.35-.7.58-1.17.69-1.43l.93.22c-.22.4-.47.8-.74 1.21h2.94v.64h-10v-.64zm1.14 5.74h-2.59v2.51h-.81v-6.68h4.23v5.87a.62.62 0 01-.26.54 1 1 0 01-.67.2h-1.07l-.11-.7h.85a.46.46 0 00.29-.1.27.27 0 00.14-.24zm0-2.38V132h-2.59v1.19zm-2.59 1.79h2.59v-1.18h-2.59zm4.7 1.07v-4.38h.84v4.38zm2.21 2H216l-.09-.73H217a.44.44 0 00.31-.11.32.32 0 00.13-.27v-5.82h.83v6.16a.68.68 0 01-.26.56 1 1 0 01-.64.19zm4.39.09v-4.54c-.4 0-1 0-1.72.09l-.1-.63h.55c.26-.3.57-.69.94-1.18-.17-.19-.67-.68-1.52-1.48l.47-.43.21.19a13.1 13.1 0 001.08-1.79l.73.27a14.61 14.61 0 01-1.36 1.93l.81.75a17.39 17.39 0 001.18-1.8l.71.29a33 33 0 01-2.44 3.23l1.8-.11c-.13-.41-.22-.69-.28-.83l.69-.15c.15.42.34 1 .57 1.72l-.69.18c0-.08-.06-.2-.12-.37l-.76.07v4.6zm-1.16-1l-.67-.12a12.14 12.14 0 00.47-2.66l.76.08a10.14 10.14 0 01-.56 2.7zm2.81-.7c-.13-.65-.24-1.33-.32-2l.7-.07c.14 1 .25 1.64.33 2zm.54 1.46v-.63h2.7v-2.14h-2v-.66h2v-1.22h.84v1.22h2.2v.66h-2.2v2.14h2.68v.63zm3.24-5.69a11.3 11.3 0 01-2.7 1.27l-.28-.54a10.57 10.57 0 002.36-1.17 9.11 9.11 0 01-1.74-1.82l.6-.3a8.35 8.35 0 001.75 1.7 5.11 5.11 0 001.67-1.88h-4.57v-.62h5.34l.34.31a7 7 0 01-2.16 2.62 12.35 12.35 0 002.44 1.13l-.42.61a12.19 12.19 0 01-2.63-1.31zm12.56 5.2h-7.31v.57h-.85v-7.62h4v-1.76h.87v1.76h4.12V138h-.86zm-4.13-6.43h-3.18v2.45h3.18zm-3.18 5.76h3.18v-2.67h-3.18zm7.31-3.31V131h-3.26v2.45zm-3.26 3.31h3.26v-2.67h-3.26zm8.63-3.47a7.52 7.52 0 01-1.87 5h-1.05v-.05a6.25 6.25 0 001.43-2 6.83 6.83 0 000-5.86 6.25 6.25 0 00-1.43-2v-.06h1.05a7.52 7.52 0 011.87 4.97z"/></g></g></svg>