<svg xmlns="http://www.w3.org/2000/svg" width="560" height="150"><defs><style>.cls-2{fill:#fff}.cls-7{fill:#ef8200}</style></defs><g id="レイヤー_2" data-name="レイヤー 2"><g id="レイヤー_4" data-name="レイヤー 4"><rect width="560" height="150" rx="10" fill="#e6e6e6"/><path class="cls-2" d="M555 65v75a5 5 0 01-5 5H10a5 5 0 01-5-5V65z"/><path d="M29.88 34.51a51.54 51.54 0 01-6.11 4.34c-.6.39-.75.49-1.27.81l-1-1.69a13.5 13.5 0 002.94-1.46 32.28 32.28 0 004.66-3.41zm-5.46-10.27a18.09 18.09 0 00-2.68.15v-1.87a15.22 15.22 0 002.71.18h5.12a18.46 18.46 0 002.55-.1 21.72 21.72 0 00-.12 2.49v17.24c0 1.49-.62 1.93-2.68 1.93-1 0-2.18 0-3.19-.13a6.78 6.78 0 00-.5-1.87 22.64 22.64 0 003.75.36c.72 0 1-.18 1-.68v-17.7zm-.26 2a31.17 31.17 0 013.69 5.3l-1.45 1a22.27 22.27 0 00-3.62-5.43zm17 8.06a55.38 55.38 0 01-6 4.24c-.67.41-.88.54-1.32.86l-1-1.69a28.21 28.21 0 007.56-4.81zM35.7 24.24a17.84 17.84 0 00-2.67.15v-1.87a15.17 15.17 0 002.7.18h5.07a18.19 18.19 0 002.55-.1 22 22 0 00-.1 2.49v17.24c0 1.49-.66 1.93-2.74 1.93-.88 0-2 0-2.86-.13a6.2 6.2 0 00-.46-1.85 20.59 20.59 0 003.45.34c.71 0 .94-.18.94-.68v-17.7zm-.31 2a28.8 28.8 0 013.7 5.3l-1.44 1A23.23 23.23 0 0034 27.1zm32.19 18.23v-1.59H50.45v1.59h-1.82a26.94 26.94 0 00.15-3V25.3c0-1-.05-1.76-.13-2.6a25.34 25.34 0 003 .13h14.76a25.28 25.28 0 003-.13 18.56 18.56 0 00-.13 2.6v16.15a26.31 26.31 0 00.15 3zM50.45 31.8h7.46v-7.46h-7.46zm0 9.57h7.46v-8.08h-7.46zm9.1-9.57h8v-7.46h-8zm0 9.57h8v-8.08h-8zM78.73 37a13.59 13.59 0 00-2.57.15v-1.81a12.57 12.57 0 002.5.16h12.63a19.8 19.8 0 002.71-.16v1.79a19.56 19.56 0 00-2.63-.13h-5.64v5.09h7.8a20.63 20.63 0 002.81-.15v1.84a19 19 0 00-2.81-.18H76.68a19.37 19.37 0 00-2.89.18v-1.86a21.75 21.75 0 002.89.15H84V37zM84 23a8.34 8.34 0 00-.19-1.87h2a7.9 7.9 0 00-.16 1.87v1.25h7.52a20.71 20.71 0 002.62-.13 11.61 11.61 0 00-.1 1.8v.7a9.51 9.51 0 00.13 1.82h-1.75v-2.7h-6.18v4.83c0 .39.1.52.44.6a11.69 11.69 0 002 .1c3.36 0 3.38 0 3.49-2.26a5.36 5.36 0 001.56.57c-.24 2.89-.65 3.15-5.07 3.15-3.49 0-4.06-.23-4.06-1.56v-5.42h-3.17a7.6 7.6 0 01-1.77 5C80.06 32.12 78.45 33 75 34.22a5.59 5.59 0 00-1-1.48c3.17-.75 4.81-1.59 6.11-3.07a5.87 5.87 0 001.37-3.92h-5.37v3.61h-1.74a13.51 13.51 0 00.13-2.05v-1.38a11.89 11.89 0 00-.11-1.8 20.78 20.78 0 002.63.13h7zm16.16 4.85a29 29 0 014.31 3.15l-1 1.41a19.88 19.88 0 00-4.26-3.38zm4.26 8.82a39.36 39.36 0 01-2.73 6.65c-.31.57-.41.78-.54 1.07l-1.54-1.28a20.77 20.77 0 003.39-7.38zm-3.07-15.09a22.55 22.55 0 014.06 3.33l-1 1.3a19.1 19.1 0 00-4.08-3.48zm6.3 9.18a18.7 18.7 0 00-2.66.16v-1.69a18.2 18.2 0 002.66.16h1.89V26h-1.19a21.55 21.55 0 00-2.47.13v-1.74a15.12 15.12 0 002.47.16h1.19v-1.17a13.59 13.59 0 00-.13-2h1.82a10.93 10.93 0 00-.15 2v1.17h4.76v-1.17a11.43 11.43 0 00-.16-2h1.82a11 11 0 00-.16 2v1.17h2.14a15 15 0 002.49-.16v1.72a22.64 22.64 0 00-2.47-.11h-2.16v3.41h2.92a15.35 15.35 0 002.65-.16v1.69a19.11 19.11 0 00-2.68-.16H117a8.61 8.61 0 002 2.22 12.6 12.6 0 004.24 2.45 4.26 4.26 0 00-1 1.53 18.62 18.62 0 01-4.42-3.07 15.54 15.54 0 000 1.56v1.82a17 17 0 00.08 1.93 19 19 0 00-1.9 0h-6.3v2.75c0 .39.1.52.49.63a18.67 18.67 0 003.72.18c3.46 0 4.55-.08 5-.34s.63-1.07.65-3.28a4.09 4.09 0 001.64.65c-.31 4.37-.52 4.5-6.91 4.5-5.49 0-6.17-.21-6.17-1.9v-4.76a20.71 20.71 0 002.65.11h5.52V35h-4.32a21 21 0 00-2.5.1v-1.24a16.11 16.11 0 01-4 3.09c-.15-.39-.36-.62-1.11-1.27a13.66 13.66 0 004.08-2.76 8.84 8.84 0 001.56-2.16zm3.87 0a12.23 12.23 0 01-1.82 2.79 19.62 19.62 0 002.18.1h5.65a14.7 14.7 0 01-2.16-2.84zm4.32-1.37V26h-4.76v3.41zm10.47-.89c.94 0 3.64-.34 5.75-.67a32 32 0 00.78-5.52V22l2.08.23a15.72 15.72 0 00-.49 2.5c-.13.75-.32 1.71-.55 3 .6-.05.94-.08 1.53-.08 1.85 0 2.94.31 3.75 1.09s1.27 2.06 1.27 4.19c0 4-.67 7.44-1.74 8.94a2.71 2.71 0 01-2.55 1.13 9.72 9.72 0 01-3.92-1 5.87 5.87 0 00.05-.91 4.92 4.92 0 00-.08-1 9.64 9.64 0 003.87 1.2c.65 0 1.15-.42 1.49-1.25a20.18 20.18 0 001.09-7.23c0-2.75-.78-3.64-3.2-3.64a15.72 15.72 0 00-1.87.13 48.91 48.91 0 01-3.93 11c-.34.62-.88 1.66-1.69 3.12l-1.77-1a24.81 24.81 0 002.71-4.71 43.27 43.27 0 002.86-8.24c-2.24.34-3.49.54-3.72.6a14 14 0 00-1.51.33zm17.09-2.39a23.53 23.53 0 015.43 9.2l-1.66 1a21.38 21.38 0 00-5.31-9.34zm14.69.89a20 20 0 00-.6 2.86c-.63 3.77-.68 4-.76 4.55a3 3 0 01-.1.6h.05a8.1 8.1 0 01.81-.78A12.83 12.83 0 01165 32c4.24 0 7 2 7 5a5.55 5.55 0 01-2.34 4.48 10.78 10.78 0 01-6.47 1.71 21.09 21.09 0 01-4.55-.47l-2.08-.52v-.49a5.8 5.8 0 00-.18-1.61 18.63 18.63 0 006.62 1.3c4.29 0 7-1.72 7-4.37 0-2.13-1.87-3.38-5-3.38a12.58 12.58 0 00-7.28 2.26 4.43 4.43 0 00-1 1.07h-2c.08-.47.1-.71.21-1.54.26-2 .72-5 1.09-7.17a9.32 9.32 0 00.18-1.38zm1.14-4.53a31.13 31.13 0 008.77 2.86l-.72 1.82a41 41 0 01-5.07-1.48 30.36 30.36 0 01-4-1.64zM198.7 45a17.45 17.45 0 01-3.61-5.59 17 17 0 010-12.8A17.45 17.45 0 01198.7 21h2.3a16.43 16.43 0 00-3.95 5.39 16.26 16.26 0 000 13.2A16.43 16.43 0 00201 45zm11.57-22.19a13.64 13.64 0 00-.11 2.15v7a13.38 13.38 0 00.11 2.16h-2.16a15.69 15.69 0 00.1-2.19V25a15 15 0 00-.1-2.18zm11.52 0a11.11 11.11 0 00-.13 2.26v3.07c0 4.13-.19 6.42-.65 7.93a9.94 9.94 0 01-4.94 5.77 20.58 20.58 0 01-4.74 1.87 4.9 4.9 0 00-1.09-1.79 15 15 0 004.94-1.77 7.74 7.74 0 004.16-5.49 31.8 31.8 0 00.37-6.63v-2.94a13.85 13.85 0 00-.11-2.28zm19.42-.06a10.53 10.53 0 00-.7 1.88 141.85 141.85 0 01-5.41 15.21c3.46-.24 9.57-1 12.63-1.64a49.6 49.6 0 00-4-6.73l1.61-.89a67.94 67.94 0 016.48 11.75l-1.82 1a37.37 37.37 0 00-1.54-3.51 160.54 160.54 0 01-16 2.16 17.27 17.27 0 00-2.21.29L230 40.1h.73c.18 0 1.61-.07 2.21-.13a100.91 100.91 0 003.93-10.29 50.11 50.11 0 002-7.49zm17.39 6.45a40.37 40.37 0 016.61 3.38l-1 1.77a27.86 27.86 0 00-6.63-3.56zm-.67 11.89a22.45 22.45 0 007-1.62 17.14 17.14 0 007.8-5.79 19.26 19.26 0 003.12-5.85 8 8 0 001.61 1.4c-2.26 5.41-5.43 8.92-10 11.21a31.06 31.06 0 01-6.58 2.23l-1.4.29a5.87 5.87 0 00-1 .26zm2.7-18.1a38.25 38.25 0 016.45 3.28L266 28a27.74 27.74 0 00-6.39-3.46zm14-.94a19.65 19.65 0 012.61 3.67l-1.33.7a18.94 18.94 0 00-2.63-3.69zm2.55-1.3a18.28 18.28 0 012.6 3.64l-1.35.73a17.63 17.63 0 00-2.6-3.69zm6.49 19.87a22.9 22.9 0 007.56-2A19.66 19.66 0 00301.84 27a5.27 5.27 0 001.59 1.54 22.8 22.8 0 01-7.93 9.93 26.29 26.29 0 01-9.7 3.88 12.27 12.27 0 00-1.56.41zm1.66-16.12a34.16 34.16 0 016.27 4.89L290.24 31a28.69 28.69 0 00-6.18-5.1zm30.67-.13a9.46 9.46 0 00-.34 1.77c-1.09 7.41-3.15 12.29-6.87 16.22a5.58 5.58 0 00-1.62-1.36 16.79 16.79 0 003.77-5.15 30.41 30.41 0 002.68-9 22 22 0 00.26-2.45 2.47 2.47 0 000-.41zm7.2-.39a32.55 32.55 0 001.19 6.24A22.75 22.75 0 00330.34 41a6.09 6.09 0 00-1.62 1.45 24.15 24.15 0 01-4.34-6.76 38.27 38.27 0 01-2.73-9.57 11 11 0 00-.34-1.71zm3.07-.29a20.16 20.16 0 012.18 4l-1.4.59a19.61 19.61 0 00-2.05-4.04zm2.67-1a19.58 19.58 0 012.19 4l-1.43.57a17.45 17.45 0 00-2.13-4.05zm25 20.42a48.2 48.2 0 00-8.32-8 27.94 27.94 0 01-5 4.65 33.36 33.36 0 01-5.1 3.12 5.65 5.65 0 00-1.27-1.71 21.3 21.3 0 005.28-3 28.22 28.22 0 009.28-11.73c0-.15.08-.18.13-.31a.91.91 0 00.08-.18 5.93 5.93 0 01-.63 0l-8.68.13a18 18 0 00-2.68.21l-.05-2.1a12.62 12.62 0 002.05.13h.68l9.28-.11a4.57 4.57 0 001.66-.21l1.1 1.12a4.71 4.71 0 00-.73 1.28 31.92 31.92 0 01-4.29 7.28 65.14 65.14 0 018.66 7.8zM359 45a16.23 16.23 0 003.95-5.39 16.26 16.26 0 000-13.2A16.23 16.23 0 00359 21h2.31a17.67 17.67 0 013.62 5.59 17.14 17.14 0 010 12.8A17.67 17.67 0 01361.3 45z" fill="#3c3c3c"/><path stroke="#ef8200" stroke-linejoin="round" stroke-width="1.86" fill="none" stroke-linecap="round" d="M103.16 105H395.4"/><path d="M395.05 85.25c0-.62 6.91-1.13 15.42-1.13h114.1c8.52 0 15.43.51 15.43 1.13v39.5c0 .62-6.91 1.13-15.43 1.13h-114.1c-8.51 0-15.42-.51-15.42-1.13z" fill="#004da0" stroke="#004da0" stroke-miterlimit="10" stroke-width=".93"/><path class="cls-2" d="M429 101h-6v.5h4.31v6.11h-2.63a10.21 10.21 0 004.38 2.62l-1.31 1.93a14.55 14.55 0 01-2.69-1.37 8 8 0 01-2.06-1.74v3.3h-2.3V109a8 8 0 01-2.06 1.94 8.56 8.56 0 01-2.44 1.31l-1.5-2a9.61 9.61 0 002.44-1.06 5.88 5.88 0 001.81-1.56h-2.56v-6.11h4.31V101h-6.12v-2h6.12v-1.14h2.3V99h6zm-10.31 2.87h2.06v-.56h-2.06zm0 1.87h2.06v-.56h-2.06zm4.31-1.87h2v-.56h-2zm0 1.87h2v-.56h-2zm7.69-4.33v-2h6V97.8H439v1.62h6v2zm3.69 5.93l1.81 1a7.9 7.9 0 01-3.93 3.86l-1.5-1.81a7.83 7.83 0 003.62-3.05zm1.56 4.93l-.81-2.06h1.12q.75.12.63-.69v-2.31h-4.31v-5.11h10.5v5.11h-3.88v3.31c0 1.16-.52 1.75-1.56 1.75zm-1.18-7.11h6.12v-1.06h-6.12zm6.43 2.24a13 13 0 003.81 2.75l-1.5 1.93a20.51 20.51 0 01-2.18-1.75 14.28 14.28 0 01-1.69-1.81zm7.87-8.86v4.87a22.51 22.51 0 006.56-2.62l1.69 1.62a27.24 27.24 0 01-8.25 3.31V108c0 .63.36.94 1.07.94 1.95 0 4.37 0 7.24-.06l-.31 2.24h-7.93a2.48 2.48 0 01-1.82-.56 2.68 2.68 0 01-.5-1.81V98.54zm6.38 1.5l.93-.81 1.38 1.44-.94.87zm1.31-1.04l.94-.81 1.24 1.37-.87.81zm2.68 2.85l1.75-.69a25.15 25.15 0 011.32 3.19l-1.75.74a31.94 31.94 0 00-1.32-3.24zm1.63 8a11.13 11.13 0 005.18-3.49 14.21 14.21 0 002.13-5.43l2.19.75a16.32 16.32 0 01-2.75 6.18 13.23 13.23 0 01-5.44 3.86zm1.69-8.54l1.81-.69c.46 1 .89 2 1.31 3.06l-1.87.62c-.42-1.14-.84-2.14-1.25-3.01zm8.87 3.47a16.35 16.35 0 004.75-6.48l2.25.87-.57 1.31h3.75l.19-.25 1.81 1.12a17.35 17.35 0 01-8.5 10.6l-1.75-1.87q5.51-2.81 7.19-7.54h-3.94a19.65 19.65 0 01-3.31 3.8zm8.38-6.42l1.06-.75 1.44 1.62-1.13.75zm2.25-.06l1-.75 1.44 1.56-1.13.81zm2.99 5.3v-2.12h2.68v-2.87h2.32v2.87h3.06v-3h2.31v3h2.62v2.12h-2.62a9.66 9.66 0 01-1.13 4.92 8.62 8.62 0 01-3.74 3.25l-1.69-1.77a7.89 7.89 0 003.25-2.56 6.67 6.67 0 001-3.86h-3.06V107h-2.32v-3.4zm13.62 1.56A25.17 25.17 0 00509 98.42l2 1.62a21.54 21.54 0 01-4.19 3.56v8h-2.43v-6.55a30.89 30.89 0 01-4.19 2.25zm13.31-6.93h2.37v5.3l1.12-1.37a50.71 50.71 0 015.25 3.62l-1.5 1.87a43.46 43.46 0 00-4.87-3.49v7.61h-2.37z"/><path d="M20.42 85.25c0-.62 3.95-1.13 8.83-1.13h65.31c4.88 0 8.83.51 8.83 1.13v39.5c0 .62-4 1.13-8.83 1.13H29.25c-4.88 0-8.83-.51-8.83-1.13z" stroke="#ef8200" stroke-linejoin="round" stroke-width="1.86" fill="#fff"/><path class="cls-7" d="M39.37 110.9l-.61-1.77h1.07c.3 0 .49 0 .55-.1a.68.68 0 00.11-.46v-2.07a19.11 19.11 0 00-3.1 1.87l-.86-1.72a29.26 29.26 0 013.14-1.93l.82 1.12V101h-3.81v-1.6h5.63v10c0 1-.56 1.52-1.67 1.52zm-2.59-8.61l1.47-.76a6.72 6.72 0 011.42 2.38l-1.52 1a5.66 5.66 0 00-1.37-2.62zm9.59 8.61H45l-.61-1.77h1.17A.8.8 0 0046 109a1 1 0 00.15-.51v-1.87c-1.35.74-2.33 1.31-2.94 1.72l-.76-1.82c1.31-.78 2.36-1.35 3.14-1.73l.56 1.17v-5h-3.63V99.4H48v9.88a1.42 1.42 0 01-1.63 1.62zm-3.85-8.61l1.37-.86a12.45 12.45 0 011.77 2.43l-1.37 1a7.7 7.7 0 00-1.77-2.57zm16.04 8.56V110h-6.45v.86h-1.83V99.65h10.1v11.2zm-6.45-6.94h2.28v-2.58h-2.28zm0 4.51h2.28v-2.89h-2.28zm4.16-4.51h2.29v-2.58h-2.29zm0 4.51h2.29v-2.89h-2.29zm9.95-6.64H64.6v1.37h-1.78v-3h4.67v-1h1.83v1H74v3h-1.38l1 .46a3.5 3.5 0 01-.66 1.26 1.13 1.13 0 01-.86.31h-2.32a1.24 1.24 0 01-.92-.36 1.08 1.08 0 01-.35-.81v-2.23h-2l1.42.51a5 5 0 01-3.05 3.45h8.28v1.67h-3.79v1.47h4.82v1.67H62.67v-1.67h4.82v-1.47h-3.81v-1.67h.16l-.84-1.47c1.87-.34 3-1.17 3.22-2.49zm4.52 1.88h.76c.14 0 .26-.32.36-.86l.4.2v-1.22h-1.88v1.42c-.06.31.06.46.36.46zm7.51 3.44l-.61-.91a4 4 0 002-1.77h-1.49l-.76 1.16a3.2 3.2 0 00-.76-.6 5 5 0 00-1.22-.61l.86-1.52a3.58 3.58 0 011.78.91v-1h2.08v-.71h-1.72v-.86l-.72 1a3.91 3.91 0 00-.91-.81 5 5 0 00-1.27-.66l1-1.52a4.66 4.66 0 012.08 1.27h1.57v-1.32h1.78v1.37h1.32v-1.37H85v1.37h1.78v1.57H85v.71h2.24v1.62h-2a5.15 5.15 0 002.1 1.58l-.86 1.67a8 8 0 01-1.68-1.11v1.87h-3.5v.36c-.07.33.1.47.51.4h3c.27 0 .41-.4.41-1.21v-.21l1.77.46a4.79 4.79 0 01-.3 1.72 1.32 1.32 0 01-1.32.81h-4.53c-.91 0-1.37-.44-1.37-1.31v-2.23a2.59 2.59 0 01-.71.5l-.3-.4a10.85 10.85 0 01-1.68 3.68l-1.52-1.26a7.59 7.59 0 001.52-3.35zm1.42 0h3.41v-.55h-2.8zm1.68-2h2.13l-.4-.61h-1.32zm.56-2.23h1.32v-.71h-1.32z"/><path class="cls-2" d="M209.04 86.79h80.47v36.42h-80.47z"/><path class="cls-7" d="M225 99a16.37 16.37 0 01-.3 1.88 9.51 9.51 0 01-.42 1.57l-1.1-.26a17.08 17.08 0 00.57-3.26zm1.74 4.13h-1.49v-4.54c-.79.08-1.4.12-1.83.14l-.13-1.21h.91c.2-.24.45-.56.74-1-.52-.58-1.08-1.17-1.69-1.78l.86-.91a2 2 0 01.21.2 11.47 11.47 0 001-1.71l1.33.48a15.42 15.42 0 01-1.46 2.1l.54.56a13.69 13.69 0 001.16-1.89l1.3.57a38.66 38.66 0 01-2.42 3.26l1.25-.08c-.16-.47-.27-.76-.32-.88l1.12-.33c.22.55.49 1.32.8 2.3l-1.2.29a2.7 2.7 0 00-.09-.38l-.58.08zm1.78-1.64l-1.2.17a23.34 23.34 0 01-.4-2.58l1.18-.08zm1.74 1.5l-.19-1.44h1.51a.65.65 0 00.67-.5 7.72 7.72 0 00.17-1.83v-4.14H230a10.44 10.44 0 01-.84 1.79l-1.23-.56a22.19 22.19 0 00.78-2.11 16.15 16.15 0 00.4-1.79l1.58.15a10.21 10.21 0 01-.3 1.33h3.54v6.02a7.1 7.1 0 01-.25 2 1.83 1.83 0 01-.58.73 1.78 1.78 0 01-.78.34c-.17.02-.85.02-2.07.02zm1.22-3.42l-1.48.52a27 27 0 00-1.19-3.09l1.34-.51a21.29 21.29 0 011.32 3.12zM249 104h-8.88v-1.85a30.08 30.08 0 004.53-4 4.07 4.07 0 001.16-2.46 1.66 1.66 0 00-.56-1.33 2.31 2.31 0 00-1.53-.47 5.72 5.72 0 00-3.1 1h-.19v-2.13a10.4 10.4 0 013.69-.74 5.08 5.08 0 013.22.91 3.11 3.11 0 011.13 2.55 5 5 0 01-.92 2.67 19.88 19.88 0 01-4.27 4H249zm2-.45v-2.23h.26a6.38 6.38 0 003.22 1c1.75 0 2.63-.7 2.63-2.11a1.55 1.55 0 00-.73-1.38 3.91 3.91 0 00-2.15-.48 11 11 0 00-2.47.35h-.29v-6.44h8v1.91h-5.58v2.41q.9-.06 1.32-.06a5.14 5.14 0 013.36 1 3.22 3.22 0 011.15 2.64 3.76 3.76 0 01-1.32 3 5.36 5.36 0 01-3.6 1.15 9.89 9.89 0 01-3.8-.76zm18.24-5.98a5.89 5.89 0 01-1.36 3.59 6.71 6.71 0 01-3.15 2l-.73-1.29q3.38-1.18 3.52-4.26h-1.6v-.52a14.39 14.39 0 01-1.26 1l-1-1.07a10.61 10.61 0 002.34-2.33 8.58 8.58 0 001.41-2.31l1.66.39a12.22 12.22 0 01-2.29 3.44h5.34a10.89 10.89 0 01-2.12-3.45l1.54-.46a10.57 10.57 0 001.65 2.6 13 13 0 002.31 2l-1.26 1.27-.63-.54a27.39 27.39 0 01-.15 3.11 2.75 2.75 0 01-.7 1.77 2.08 2.08 0 01-1.44.49h-2.11l-.24-1.49h1.86a.87.87 0 00.83-.52 9.27 9.27 0 00.26-2.93v-.5zm-50.03 22.07h-2.54V110h2.54v.63h-1.75V119h1.75zm12.79-2.03l-.5.62a8.07 8.07 0 01-2.39-2.1 10.89 10.89 0 01-1.56-2.67 7.43 7.43 0 01-1.59 2.85 6.94 6.94 0 01-2.84 1.88l-.29-.57a6.19 6.19 0 002.76-2 5.91 5.91 0 001.36-3h-3.87V112h4v-2.45h.81V112h4v.65H228a8.92 8.92 0 001.52 2.82 7.39 7.39 0 002.48 2.14zm5.49-3.92a5.73 5.73 0 01-1.54 2.76 8 8 0 01-2.67 1.73l-.3-.55a6.55 6.55 0 003-2.36 5.45 5.45 0 001-3v-2.6h.82v2.67a6.13 6.13 0 00.86 2.21 6.41 6.41 0 001.73 1.93 8.43 8.43 0 001.71 1l-.48.64a9.12 9.12 0 01-2.68-2 6 6 0 01-1.45-2.43zm36.81.65h-6.51v4H267v-8.17h8v7.29a.73.73 0 01-.25.57 1 1 0 01-.64.22h-1.36l-.1-.7h1.17a.36.36 0 00.41-.4zm-6.51-.62h2.82v-3h-2.82zm3.56 0h2.95v-3h-2.95zm10.54 5.92h-2.54V119h1.74v-8.35h-1.74V110h2.54zm-30.65-9.23v1l-3.67 6.32h-1.23l3.72-6.35H246v-1zm.89 3.67c0-.72 0-3.82 2.59-3.82s2.6 3.11 2.6 3.82 0 3.83-2.6 3.83-2.59-3.12-2.59-3.83zm4.09 0c0-1.42-.27-2.82-1.5-2.82s-1.49 1.41-1.49 2.82.31 2.83 1.49 2.83 1.5-1.43 1.5-2.83zm2.03 0c0-.72 0-3.82 2.6-3.82s2.59 3.11 2.59 3.82 0 3.83-2.59 3.83-2.6-3.12-2.6-3.83zm4.09 0c0-1.42-.27-2.82-1.49-2.82s-1.5 1.41-1.5 2.82.31 2.83 1.5 2.83 1.49-1.43 1.49-2.83z"/></g></g></svg>