<svg xmlns="http://www.w3.org/2000/svg" width="258.97" height="30"><path d="M28.86 9.9l1.27 1.32a19.08 19.08 0 01-6.6 13.49 8.33 8.33 0 00-3.1-2c3.65-2.57 5.71-6.09 6-9.55h-4.9V9.9zm13.53-.6c.32.15.46.22.46.43s-.38.32-.72.32a39.3 39.3 0 01-5.57 5.71A23.37 23.37 0 0043.31 22 8.46 8.46 0 0041 24.76a23.36 23.36 0 01-6.89-6.84v5.33c0 3.33-.86 3.81-5.35 3.81a8.26 8.26 0 00-1.11-3.5 13.44 13.44 0 002 .19c.86 0 .94-.12.94-1.05V4.79l3.5.21c.31 0 .55.07.55.36s-.31.45-.55.57v4.67a12 12 0 00.77 2.09 18.11 18.11 0 004.08-5.09zm23.28 3.05v3.58h-8.49v6.86H67v3.51H45.08v-3.51h8.23V5.05l4.13.29c.27 0 .34.12.34.27s-.17.28-.6.43v6.31zm12.82-3.77c.22.05.48.12.48.36s-.34.36-.51.36c-1.92 8.72-4.2 12.36-6.72 15.34a18.64 18.64 0 00-3.62-1.7 27.67 27.67 0 006.43-15.32zm5.74-1.49a42.31 42.31 0 017 14.69 26.12 26.12 0 00-3.77 2.09A34.71 34.71 0 0081.1 9.33zm2.9-.81A16.41 16.41 0 0189.53 9c-.6.48-1.18 1-1.78 1.54a21.07 21.07 0 00-2.4-2.84zm2.4-1.73a16 16 0 012.4 2.66 12.06 12.06 0 00-1.7 1.42 20.64 20.64 0 00-2.36-2.71zm6.14 5.69v-3.6h12.27a6.75 6.75 0 001.65-.19l1.88 2a6.9 6.9 0 00-.92 1.53 40.38 40.38 0 01-3 5.88 64.39 64.39 0 017.2 6.58c-.8.91-2.09 2.35-2.88 3.26a33.23 33.23 0 00-6.46-6.84 27.85 27.85 0 01-9.22 7.18 10.78 10.78 0 00-2.73-3.29 20.19 20.19 0 007.8-4.8 19.1 19.1 0 004.8-7.75zm42.84-.89c-5.92-.1-11.06 5.23-11.06 9.12 0 2.79 3.53 4.15 6.79 4.23a31.82 31.82 0 00-1.8 4.36c-1.94-.52-8.83-2.44-8.83-8.18a11 11 0 014.39-8.26 67.37 67.37 0 00-9.93 1.51l-.55-4.51a78.07 78.07 0 0010.68-.55 57.12 57.12 0 009.62-1.75zm-4 3.41a14.53 14.53 0 012.23 2.57c-.67.48-1 .74-1.85 1.44a20.22 20.22 0 00-2.13-2.72zm2.52-1.71a15.59 15.59 0 012.14 2.53c-.6.45-1 .81-1.76 1.48a17.48 17.48 0 00-2.13-2.71zm11.73 6.77c-.67.58-1.87 1.83-1.87 2.62 0 1.73 3.29 1.73 4.3 1.73a33.71 33.71 0 009.62-1.44 18 18 0 00.62 4.08 36.36 36.36 0 01-9.38 1.1c-3.75 0-5.23-.41-6.41-.89-.77-.31-3-1.44-3-3.86s2.5-4.73 3.48-5.62zm10.08-7.89a16.67 16.67 0 00-6.05 3.91c-.86-.75-1.77-1.51-2.52-2.06.89-.82 1.11-1 1.8-1.57-1.49.12-5.52.34-7.56.29l-.19-4a48.3 48.3 0 006 .32 45.38 45.38 0 006.68-.57zm1.06-3.75a17.25 17.25 0 012.18 2.52 9.65 9.65 0 00-1.41 1.73 26.19 26.19 0 00-2.31-2.66zm1.85-2A26.76 26.76 0 01164 6.49a9.56 9.56 0 00-1.53 1.64 21.26 21.26 0 00-2.09-2.36zm15.98 22.76h-3.46v-6.4a23.83 23.83 0 01-7 6.12 8.22 8.22 0 00-3.07-2.38 20.55 20.55 0 007.7-6.14H165V15h4.49a19.19 19.19 0 00-1.92-3.56l1.73-1h-3.17V7.38h8.18V4.93l3.6.22c.29 0 .53 0 .53.36s-.48.41-.67.46v1.41h8.14v3.12h-3.12l1.46.63c.17.07.24.16.24.29 0 .31-.29.36-.48.4a22 22 0 01-1.51 3.2h4.5v3.12h-7.13a18.75 18.75 0 007.47 5.8 11.12 11.12 0 00-2.54 2.6 18.83 18.83 0 01-7.06-6.15zM174.27 15v-4.5h-3.09a13.53 13.53 0 012 3.7 11.92 11.92 0 00-1.83.82zm3.46-4.52V15h2.78a15.3 15.3 0 00-1.65-.87 18.78 18.78 0 001.82-3.65zm21.55 9.77a16.5 16.5 0 01-2.83 2.9 6.18 6.18 0 00-2.26-1.61c.43-.33.79-.6 1.35-1.08-1.49.65-3.32 1.35-5.26 2 0 .28-.1.62-.36.62s-.34-.31-.38-.55l-.82-3.39a17.74 17.74 0 002.71-.5v-5.45H189v-3.12h2.47v-5l3.55.19c.29 0 .51.05.51.26s-.15.29-.51.46v4.08h2.14v3.12H195v4.37c.58-.24.94-.38 1.52-.65h-.17v-2.41h14.54v2.42h-9.29l-.45.77h9.58c0 2.42-.08 7.22-1.64 8.45-.91.72-2.44.79-4 .79a7.25 7.25 0 00-.64-2.59 19 19 0 01-2.86 3 6.14 6.14 0 00-2.55-1.54 16.68 16.68 0 005.07-5.54h-1.08a16.84 16.84 0 01-6.31 6.36 6.18 6.18 0 00-2.12-1.92 14.73 14.73 0 005.6-4.44zm-2.18-3.34a9.74 9.74 0 00-.17 2.14 15.17 15.17 0 001.46-2.14zm12.09-3.21H198V5.25h11.21zM206 8.56v-.82h-4.72v.82zm-4.72 1.92v.81H206v-.81zm5.66 9.77a26.2 26.2 0 01-1.9 3.33 8 8 0 00.84.05c.48 0 .92-.05 1.08-.6a11.81 11.81 0 00.44-2.78zm17.37 2.57c5.21-1 6.75-5 6.75-7.49a5.69 5.69 0 00-5.55-5.88c-.74 8.78-4.36 15.33-6.91 15.33-1.87 0-5.35-3.16-5.35-7.6A11.78 11.78 0 01225 6c5.26 0 9.84 3.58 9.84 9.31a11.21 11.21 0 01-2.84 7.41 13.4 13.4 0 01-5.21 3.48 15.37 15.37 0 00-2.48-3.38zm-7.51-5.93c0 1.85 1 3.24 1.54 3.24s1-1.08 1.29-1.71a20.9 20.9 0 001.85-8.25c-2.78 1.03-4.68 4.56-4.68 6.72zM259 8.2v3.43h-10.38c0 .89-.09 1.51-.14 2h7.59c0 8.12-.46 10.32-2.16 12-1.23 1.22-3.85 1.34-4.73 1.32a6.11 6.11 0 00-1.78-3.77c.65.1 2.28.36 2.52.36a1.77 1.77 0 001.92-1.39 16.42 16.42 0 00.67-5.23h-4.68A16.17 16.17 0 01239.19 27a6.41 6.41 0 00-2.95-2.6c4.27-1.34 8.74-4.82 8.74-12.79H237V8.2h9V4.89l3.84.21c.14 0 .43.07.43.34s-.27.36-.43.43V8.2zM0 0h10v30H0z" fill="#ff9600" data-name="レイヤー 2"/></svg>