<svg id="ask" xmlns="http://www.w3.org/2000/svg" width="12mm" height="12mm" viewBox="0 0 34.0157 34.0157"><defs><style>.cls-1{fill:none;stroke:#FFF;stroke-linecap:round;stroke-linejoin:round;stroke-width:3.4729px;}.cls-2{fill:#FFF;}</style></defs><circle class="cls-1" cx="17.0079" cy="17.0079" r="13.8917"/><path class="cls-2" d="M15.0716,20.2443V19.005a3.5629,3.5629,0,0,1,1.7006-3.0864c1.6167-1.2808,2.4571-1.9317,2.4571-2.8135,0-1.2388-1.5962-1.3228-2.1211-1.3228A2.0041,2.0041,0,0,0,14.82,13.9449H10.8933a5.0471,5.0471,0,0,1,.9449-2.9394c1.5117-2.0786,4.1152-2.3726,5.4379-2.3726,3.7373,0,5.8584,2.1,5.8584,4.4092,0,1.47-.7138,2.3936-2.6455,3.8843-1.5117,1.1548-2.0371,1.6382-2.0371,2.8979v.42Zm-.084,1.8476h3.5483V25.64H14.9876Z"/></svg>