<svg xmlns="http://www.w3.org/2000/svg" viewBox="0 0 127.87 45.85"><defs><style>.cls-1{fill:#d32f2f;}.cls-2{fill:#727171;}.cls-3{fill:#fff;}.cls-4{fill:#231815;}</style></defs><title>2018_logo</title><g id="レイヤー_2" data-name="レイヤー 2"><g id="レイヤー_3" data-name="レイヤー 3"><polygon points="53.53 3.66 53.53 17.18 48.8 17.18 48.8 3.66 44.32 3.66 44.32 0 58.01 0 58.01 3.66 53.53 3.66"/><path d="M67.42,11.16H65.49v6H60.83V0h6.78c4.48,0,6.77,2,6.77,5.44A4.69,4.69,0,0,1,71.6,10l3.8,6.9v.24H70.58ZM65.49,3.3V8h1.7c2,0,2.73-.85,2.73-2.39s-.83-2.26-2.8-2.26Z"/><polygon points="77.97 0 89.18 0 89.18 3.39 82.63 3.39 82.63 6.71 88.23 6.71 88.23 10.07 82.63 10.07 82.63 13.8 89.3 13.8 89.3 17.18 77.97 17.18 77.97 0"/><polygon points="105.41 17.51 96.87 7.74 96.87 17.32 92.86 17.32 92.86 0 95.65 0 104.09 9.66 104.09 0.17 108.11 0.17 108.11 17.51 105.41 17.51"/><path d="M111.89,0h6.18c5.53,0,9.8,2.53,9.8,8.73s-4.27,8.55-9.8,8.55h-6.18Zm4.7,3.49V13.8h1.23c3.14,0,5.25-1.22,5.25-5.07S121,3.49,117.82,3.49Z"/><path d="M8.67,13.34l0,1H6.86v-.84h-5v.84H0c0-.26,0-.62,0-1V4.25c0-.34,0-.7,0-1H8.69c0,.32,0,.62,0,1ZM1.82,7.45h5V4.9h-5Zm5,1.6h-5v2.79h5Z"/><path d="M14.59,13.75a5.43,5.43,0,0,0,0,.58H13.09a5.43,5.43,0,0,0,0-.58V9.23l-1.3.12a4.36,4.36,0,0,0-.6.09L11,8c.17,0,.49,0,.78,0a2,2,0,0,0,.32,0c.23-.26.47-.56.71-.88-.56-.65-1.17-1.29-1.73-1.83L11.89,4l.39.42a8.85,8.85,0,0,0,1.11-2l1.29.76s-.11.15-.15.19A16.3,16.3,0,0,1,13.2,5.5c.14.17.28.33.41.5A13.29,13.29,0,0,0,15,3.59l1.27.75a2,2,0,0,1-.18.21,40.34,40.34,0,0,1-2.34,3.3L15,7.73a7,7,0,0,0-.32-1l1.13-.3a18.1,18.1,0,0,1,.82,2.76c-.38.12-.86.26-1.24.36,0-.18-.07-.38-.11-.58-.19,0-.4,0-.64.05Zm-3-3.88,1.22.2s0,.15,0,.26a13.63,13.63,0,0,1-.44,3.39l-1.22-.48a11.52,11.52,0,0,0,.47-3.37m10.67,2.74c.36,0,.65,0,.89,0v1.58c-.24,0-.53,0-.89,0H16.83c-.35,0-.65,0-.9,0V12.6l-.72.21A16.32,16.32,0,0,0,14.86,10L16,9.68a17.11,17.11,0,0,1,.5,2.77,4.66,4.66,0,0,1-.48.14c.24,0,.53,0,.85,0H18.9V11.22H16.82V9.76H18.9V9c0-.11,0-.33,0-.45.36,0,1.36,0,1.72.06,0,.11,0,.28,0,.39v.79h2.15v1.47H20.58v1.39ZM18.48,6.74a5.78,5.78,0,0,1-1.29-2.13h-.67V3.15h4.87L21.51,3a13.54,13.54,0,0,1,1.34,1.11c-.05,0-.13.07-.19.11a6.11,6.11,0,0,1-1.6,2.53,9.4,9.4,0,0,0,2.08.54c-.19.44-.48,1.17-.6,1.53a8.79,8.79,0,0,1-2.73-1,9.86,9.86,0,0,1-2.7,1c-.13-.37-.48-1.12-.7-1.59a8.27,8.27,0,0,0,2.07-.52m2.44-2.13H18.77A3.86,3.86,0,0,0,19.8,6a3.87,3.87,0,0,0,1.12-1.39"/><polygon class="cls-1" points="27.23 17.22 27.95 17.22 37.4 0 36.69 0 27.23 17.22"/><polygon class="cls-1" points="28.43 17.22 29.14 17.22 38.59 0 37.88 0 28.43 17.22"/><polygon class="cls-1" points="29.62 17.22 30.34 17.22 39.79 0 39.08 0 29.62 17.22"/><polygon class="cls-1" points="30.82 17.22 31.53 17.22 40.99 0 40.28 0 30.82 17.22"/><polygon class="cls-1" points="32.02 17.22 32.73 17.22 42.18 0 41.47 0 32.02 17.22"/><polygon class="cls-1" points="30.2 4.31 31.91 7.51 32.15 7 30.67 4.31 31.06 4.31 32.33 6.62 32.54 6.16 31.52 4.31 31.91 4.31 32.73 5.79 34.11 2.86 32.54 0 26.98 0 31.48 8.41 31.69 7.94 29.82 4.31 30.2 4.31"/><polygon class="cls-1" points="37.7 17.22 38.16 17.22 35.89 13.09 35.67 13.54 37.7 17.22"/><polygon class="cls-1" points="36.87 17.22 37.33 17.22 35.51 13.9 35.3 14.37 36.87 17.22"/><polygon class="cls-1" points="36.08 12.72 38.55 17.22 39.02 17.22 36.29 12.26 36.08 12.72"/><polygon class="cls-1" points="36.53 11.78 39.4 17.22 42.43 17.22 37.93 8.81 36.53 11.78"/><path class="cls-2" d="M110.17,23.62l-82.76,0-2.06,4-2-4H0V45.85H99.12a10.69,10.69,0,0,0,11-11.11Z"/><path class="cls-3" d="M2.46,26H13.58v3.23H6.83v3.73h5.8v3.17H6.83v4.16h6.85V43.5H2.46Z"/><path class="cls-3" d="M21,43.5H16.93v-.19l5.41-9.1-5-8.07V26h4.87l2.12,3.78,1,2.34,1-2.34L28.55,26h4v.18l-5,8.17,5.52,9v.19H28.27L25.69,39l-1-2.52L23.57,39Z"/><path class="cls-3" d="M41,37.49v6H36.58V26h6.3c4.28,0,7,1.84,7,5.85s-2.69,5.68-6.76,5.68Zm0-8.3v5.22h1.92c2,0,2.8-.86,2.8-2.65s-.93-2.57-2.88-2.57Z"/><path class="cls-3" d="M52.5,34.68a8.77,8.77,0,0,1,9.2-9.09,8.76,8.76,0,0,1,9.21,9.09,8.84,8.84,0,0,1-9.21,9.18A8.85,8.85,0,0,1,52.5,34.68Zm13.87,0c0-3.52-1.79-5.72-4.67-5.72S57,31.16,57,34.68s1.76,5.8,4.66,5.8S66.37,38.17,66.37,34.68Z"/><path class="cls-4" d="M75.1,38.17l2.59-2.87a3.55,3.55,0,0,0,1.11-2.25c0-.71-.39-1.24-1.41-1.24a3.53,3.53,0,0,0-2.11.66l-.09,0V30.72a4.53,4.53,0,0,1,2.63-.67c2,0,3.22,1,3.22,2.77a5.2,5.2,0,0,1-1.69,3.42l-1.59,1.69,1.51-.13h1.9v1.64H75.1Z"/><path class="cls-4" d="M82.3,34.79c0-3,1.66-4.74,4-4.74s4,1.72,4,4.74-1.63,4.82-4,4.82S82.31,37.81,82.3,34.79Zm5.69,0c0-2-.56-3-1.67-3s-1.67,1-1.67,3,.57,3.11,1.67,3.11S88,36.83,88,34.79Z"/><path class="cls-4" d="M93.5,39.44V32.53l-1.72,1.11-.09,0V31.71l2.42-1.56h1.65v9.29Z"/><path class="cls-4" d="M97.69,37.05A2.24,2.24,0,0,1,99.55,35a2.55,2.55,0,0,1-1.61-2.34c0-1.66,1.49-2.6,3.24-2.6s3.34.71,3.34,2.46a2.09,2.09,0,0,1-1.62,1.9,2.58,2.58,0,0,1,1.88,2.49c0,1.65-1.31,2.71-3.51,2.71S97.69,38.6,97.69,37.05Zm4.9-.08c0-.68-.51-1.1-1.8-1.54a1.68,1.68,0,0,0-1,1.44c0,.78.52,1.21,1.44,1.21S102.59,37.6,102.59,37Zm-1-3a1.62,1.62,0,0,0,.87-1.32,1.13,1.13,0,0,0-1.26-1.14,1,1,0,0,0-1.17,1C100.08,33.12,100.48,33.58,101.64,34Z"/></g></g></svg>