<svg xmlns="http://www.w3.org/2000/svg" viewBox="0 0 605.9 212.66"><defs><style>.cls-1{fill:#d32f2f;}.cls-2{fill:#231815;}.cls-3{fill:#fff;}</style></defs><title>h1_logo</title><g id="レイヤー_2" data-name="レイヤー 2"><g id="レイヤー_1-2" data-name="レイヤー 1"><path class="cls-1" d="M513.85,109.09,128,108.94l-9.61,18.44-9.36-18.44H.19V212.66H462.33c29.83,0,51.52-21.55,51.52-51.75Z"/><path class="cls-2" d="M350.34,177.3l12.19-13.5c3.41-3.94,5.25-7.15,5.25-10.69,0-3.27-1.84-5.83-6.62-5.83-4.2,0-6.75,1.11-10,3.15l-.46-.2v-8.12c2.94-1.91,6.68-3.09,12.45-3.09,9.24,0,15.2,4.66,15.2,13,0,6-3.27,10.81-8,16.12l-7.54,8,7.14-.59h9v7.74H350.34Z"/><path class="cls-2" d="M384.3,161.37c0-14.28,7.86-22.35,19-22.35s18.87,8.07,18.94,22.35-7.74,22.74-18.94,22.74S384.36,175.65,384.3,161.37Zm26.87,0q0-14.35-7.86-14.35c-5.18,0-7.87,4.78-7.87,14.35s2.69,14.68,7.87,14.68S411.17,171,411.17,161.37Z"/><path class="cls-2" d="M437.2,183.33V150.69l-8.13,5.24-.39-.2v-8.91l11.4-7.34h7.8v43.85Z"/><path class="cls-2" d="M458.89,182v-8.32l.47-.2a15.79,15.79,0,0,0,9,2.56c7,0,10.69-2.88,11.54-11.66-1.91,1.64-5,3-9.57,3-7.41,0-13.5-4.33-13.5-13.76,0-8.32,6-14.62,16.32-14.62,10.94,0,17.56,7.08,17.56,20.65,0,17.5-8.59,24.44-21.23,24.44A23,23,0,0,1,458.89,182Zm21.18-23.65c-.27-8.33-2.37-11.67-6.76-11.67-4.19,0-6.09,2.82-6.09,7,0,4.66,2.16,6.75,6.49,6.75A10.78,10.78,0,0,0,480.07,158.36Z"/><path class="cls-3" d="M11.65,120H63.53V135H32.07v17.34h27v14.82h-27v19.37H64v15.17H11.65Z"/><path class="cls-3" d="M98.18,201.72h-19v-.84l25.23-42.42L81,120.8V120h22.71l9.9,17.58,4.69,11,4.88-11L133.32,120h18.89v.83L129,158.94l25.7,41.94v.84H132l-12-21.15-4.88-11.72-5,11.72Z"/><path class="cls-3" d="M191.18,173.75v28H170.76V120h29.39c19.95,0,32.5,8.59,32.5,27.25,0,18.05-12.55,26.53-31.53,26.53Zm0-38.73v24.39h9c9.29,0,13-4.06,13-12.44S208.88,135,199.78,135Z"/><path class="cls-3" d="M245,160.6c0-24.25,17.08-42.31,42.89-42.31s42.93,18.06,42.93,42.31-17,42.79-42.93,42.79S245,184.76,245,160.6Zm64.66,0c0-16.38-8.37-26.64-21.77-26.64s-21.72,10.26-21.72,26.64,8.2,27,21.72,27S309.63,176.87,309.63,160.6Z"/><polygon points="253.65 17.34 253.65 81.42 231.25 81.42 231.25 17.34 209.99 17.34 209.99 0 274.89 0 274.89 17.34 253.65 17.34"/><path d="M319.44,52.91H310.3V81.42H288.24V0h32.11c21.23,0,32.1,9.51,32.1,25.79,0,10.63-4.87,18.11-13.18,21.8l18,32.7v1.13H334.41ZM310.3,15.65v22h8.06c9.36,0,13-4.06,13-11.33,0-7.5-3.93-10.7-13.29-10.7Z"/><polygon points="369.43 0 422.55 0 422.55 16.07 391.51 16.07 391.51 31.77 418.05 31.77 418.05 47.72 391.51 47.72 391.51 65.38 423.13 65.38 423.13 81.42 369.43 81.42 369.43 0"/><polygon points="499.48 82.97 459.03 36.66 459.03 82.09 439.99 82.09 439.99 0 453.25 0 493.23 45.77 493.23 0.82 512.28 0.82 512.28 82.97 499.48 82.97"/><path d="M530.19,0h29.26c26.24,0,46.45,12,46.45,41.36,0,29.53-20.21,40.53-46.45,40.53H530.19Zm22.25,16.52V65.4h5.84c14.87,0,24.87-5.79,24.87-24,0-17.87-10-24.84-24.87-24.84Z"/><path d="M41.05,63.22l.11,4.55H32.52v-4H8.62v4H0c0-1.26.08-2.94.08-4.55V20.13C.08,18.51,0,16.8,0,15.6H41.16c0,1.51-.11,2.91-.11,4.53ZM8.62,35.32h23.9V23.2H8.62Zm23.9,7.59H8.62V56.1h23.9Z"/><path d="M69.15,65.17c0,.91,0,1.94.06,2.74H62a21.93,21.93,0,0,0,.11-2.74V43.73c-2.49.25-4.72.41-6.18.56-.71.07-2,.27-2.85.43l-.9-7c.8.05,2.37.05,3.7,0a12.28,12.28,0,0,0,1.51-.07c1.09-1.26,2.23-2.67,3.39-4.19-2.66-3.09-5.56-6.11-8.23-8.64l3.76-5.75c.54.53,1.2,1.28,1.87,2a42.82,42.82,0,0,0,5.27-9.5l6.12,3.6a10.14,10.14,0,0,0-.73.92,78.62,78.62,0,0,1-6.3,9.94c.69.79,1.33,1.58,1.94,2.36A61.37,61.37,0,0,0,71.26,17l6,3.57a6.15,6.15,0,0,1-.84,1A189.09,189.09,0,0,1,65.32,37.19c2-.16,3.89-.35,5.52-.54a41.17,41.17,0,0,0-1.5-4.55l5.32-1.39a82.1,82.1,0,0,1,3.87,13.08c-1.76.57-4,1.25-5.86,1.71-.11-.84-.31-1.81-.49-2.78-.92,0-1.93.19-3,.27ZM54.86,46.76c1.93.31,4.24.69,5.8,1A12,12,0,0,1,60.49,49a64,64,0,0,1-2.06,16c-1-.43-3.87-1.53-5.81-2.24,1.46-4.13,2.12-9.58,2.24-16m50.57,13c1.67,0,3.08,0,4.21-.12v7.5c-1.13-.11-2.54-.11-4.21-.11H79.74c-1.64,0-3.07,0-4.28.11V59.73l-3.41,1a81.17,81.17,0,0,0-1.63-13.44l5.21-1.37A88.31,88.31,0,0,1,78,59a19.25,19.25,0,0,1-2.3.67c1.13.12,2.53.12,4,.12h9.8v-6.6H83.38c-1.47,0-2.61,0-3.7.06v-7c1.09,0,2.23,0,3.7,0h6.16V42.51c0-.53-.05-1.58-.1-2.14,1.74,0,6.48.15,8.17.29,0,.54-.12,1.32-.12,1.85v3.76H104c1.44,0,2.65,0,3.67,0v7c-1-.06-2.23-.06-3.67-.06H97.49v6.6ZM87.56,31.94a27.66,27.66,0,0,1-6.12-10.12c-1.16,0-2.26,0-3.13.06v-7c1,.06,2.09.06,3.3.06h19.75l.54-.62a56.18,56.18,0,0,1,6.37,5.28c-.26.18-.64.3-.93.48a27.89,27.89,0,0,1-7.56,12,42.65,42.65,0,0,0,9.86,2.57c-.9,2.11-2.3,5.57-2.85,7.28-4.52-1.12-9.23-2.51-12.93-4.92-3.63,2.28-8.12,3.63-12.77,4.92-.63-1.78-2.31-5.3-3.33-7.54a39.38,39.38,0,0,0,9.8-2.47M99.13,21.82H88.94a18.33,18.33,0,0,0,4.87,6.6,18,18,0,0,0,5.32-6.6"/><polygon class="cls-1" points="129.01 81.6 132.42 81.6 177.19 0 173.82 0 129.01 81.6"/><polygon class="cls-1" points="134.68 81.6 138.08 81.6 182.86 0 179.47 0 134.68 81.6"/><polygon class="cls-1" points="140.35 81.6 143.73 81.6 188.56 0 185.17 0 140.35 81.6"/><polygon class="cls-1" points="146.01 81.6 149.39 81.6 194.22 0 190.85 0 146.01 81.6"/><polygon class="cls-1" points="151.7 81.6 155.07 81.6 199.88 0 196.5 0 151.7 81.6"/><polygon class="cls-1" points="143.09 20.43 151.18 35.58 152.31 33.18 145.31 20.43 147.16 20.43 153.2 31.37 154.19 29.17 149.35 20.43 151.19 20.43 155.06 27.46 161.63 13.57 154.21 0 127.84 0 149.16 39.88 150.15 37.66 141.27 20.43 143.09 20.43"/><polygon class="cls-1" points="178.62 81.6 180.83 81.6 170.06 62.04 169.03 64.17 178.62 81.6"/><polygon class="cls-1" points="174.7 81.6 176.89 81.6 168.25 65.87 167.24 68.09 174.7 81.6"/><polygon class="cls-1" points="170.94 60.28 182.66 81.6 184.86 81.6 171.95 58.08 170.94 60.28"/><polygon class="cls-1" points="173.08 55.82 186.7 81.6 201.05 81.6 179.73 41.75 173.08 55.82"/></g></g></svg>