<svg xmlns="http://www.w3.org/2000/svg" viewBox="0 0 345.5 28.13"><defs><style>.cls-1{fill:#d32f2f;}.cls-2{fill:#231815;}.cls-3{fill:#fff;}</style></defs><title>logo</title><g id="レイヤー_2" data-name="レイヤー 2"><g id="レイヤー_1-2" data-name="レイヤー 1"><polygon points="84.31 6.31 84.31 27.61 76.87 27.61 76.87 6.31 69.8 6.31 69.8 0.55 91.38 0.55 91.38 6.31 84.31 6.31"/><path d="M106.18,18.13h-3v9.48H95.81V.55h10.67c7.06,0,10.67,3.16,10.67,8.57,0,3.53-1.61,6-4.37,7.25l6,10.87v.37h-7.59Zm-3-12.38v7.32h2.67c3.12,0,4.31-1.35,4.31-3.76s-1.3-3.56-4.42-3.56Z"/><polygon points="122.8 0.55 140.46 0.55 140.46 5.89 130.14 5.89 130.14 11.11 138.96 11.11 138.96 16.41 130.14 16.41 130.14 22.28 140.65 22.28 140.65 27.61 122.8 27.61 122.8 0.55"/><polygon points="166.03 28.13 152.58 12.74 152.58 27.83 146.25 27.83 146.25 0.55 150.66 0.55 163.95 15.76 163.95 0.82 170.28 0.82 170.28 28.13 166.03 28.13"/><path d="M176.24.55H186c8.73,0,15.44,4,15.44,13.75S194.69,27.77,186,27.77h-9.72ZM183.63,6V22.29h1.94c4.94,0,8.27-1.93,8.27-8S190.51,6,185.57,6Z"/><path d="M13.65,21.56l0,1.52H10.81V21.75H2.87v1.33H0c0-.43,0-1,0-1.52V7.24c0-.54,0-1.1,0-1.5H13.68c0,.5,0,1,0,1.5ZM2.87,12.29h7.94v-4H2.87Zm7.94,2.52H2.87V19.2h7.94Z"/><path d="M23,22.21c0,.3,0,.65,0,.91H20.61a6.63,6.63,0,0,0,0-.91V15.08c-.83.09-1.57.14-2.06.19-.23,0-.68.09-.94.14l-.3-2.31c.27,0,.79,0,1.23,0a3.15,3.15,0,0,0,.5,0c.36-.41.74-.88,1.13-1.39-.89-1-1.85-2-2.74-2.87L18.72,6.9c.18.18.4.42.62.66A13.77,13.77,0,0,0,21.09,4.4l2,1.2c-.08.07-.18.24-.24.3a25.62,25.62,0,0,1-2.1,3.31c.23.26.45.53.65.78A20.78,20.78,0,0,0,23.69,6.2l2,1.18a2,2,0,0,1-.28.34c-.88,1.43-2.33,3.45-3.68,5.19.64-.05,1.28-.12,1.83-.18a14.06,14.06,0,0,0-.5-1.51l1.77-.46a28.35,28.35,0,0,1,1.29,4.34c-.59.19-1.35.42-1.95.57,0-.28-.11-.6-.17-.92-.3,0-.64.06-1,.09Zm-4.75-6.12c.64.1,1.41.23,1.93.33,0,.08,0,.22-.06.4a21,21,0,0,1-.69,5.33l-1.93-.74a17.34,17.34,0,0,0,.75-5.32M35,20.42c.56,0,1,0,1.41,0v2.49c-.38,0-.85,0-1.41,0H26.51c-.55,0-1,0-1.43,0V20.4L24,20.72a27,27,0,0,0-.54-4.47l1.73-.46a29.46,29.46,0,0,1,.79,4.37c-.13,0-.43.14-.77.22.38,0,.84,0,1.35,0h3.26V18.23H26.49V15.92h3.28V14.68c0-.18,0-.53,0-.71.58,0,2.16,0,2.72.09,0,.18,0,.44,0,.62v1.25H35.8v2.32H32.41v2.19Zm-5.93-9.26a9.12,9.12,0,0,1-2-3.36c-.38,0-.75,0-1,0V5.51c.32,0,.7,0,1.1,0h6.56l.18-.21A19,19,0,0,1,36,7.08c-.08.06-.21.1-.31.16a9.25,9.25,0,0,1-2.51,4,13.75,13.75,0,0,0,3.28.85c-.3.7-.77,1.85-1,2.42a14.15,14.15,0,0,1-4.3-1.63A16.19,16.19,0,0,1,27,14.49c-.21-.59-.78-1.76-1.11-2.5a12.81,12.81,0,0,0,3.26-.83M33,7.8H29.56A6.06,6.06,0,0,0,31.18,10,5.9,5.9,0,0,0,33,7.8"/><polygon class="cls-1" points="42.88 27.67 44.02 27.67 58.9 0.55 57.78 0.55 42.88 27.67"/><polygon class="cls-1" points="44.77 27.67 45.9 27.67 60.78 0.55 59.66 0.55 44.77 27.67"/><polygon class="cls-1" points="46.65 27.67 47.78 27.67 62.68 0.55 61.55 0.55 46.65 27.67"/><polygon class="cls-1" points="48.53 27.67 49.66 27.67 64.56 0.55 63.44 0.55 48.53 27.67"/><polygon class="cls-1" points="50.43 27.67 51.55 27.67 66.44 0.55 65.32 0.55 50.43 27.67"/><polygon class="cls-1" points="47.56 7.34 50.26 12.37 50.63 11.58 48.3 7.34 48.92 7.34 50.92 10.98 51.25 10.24 49.65 7.34 50.26 7.34 51.54 9.68 53.73 5.06 51.26 0.55 42.49 0.55 49.58 13.8 49.91 13.07 46.96 7.34 47.56 7.34"/><polygon class="cls-1" points="59.37 27.67 60.11 27.67 56.53 21.17 56.19 21.88 59.37 27.67"/><polygon class="cls-1" points="58.07 27.67 58.8 27.67 55.93 22.44 55.59 23.18 58.07 27.67"/><polygon class="cls-1" points="56.82 20.59 60.72 27.67 61.45 27.67 57.16 19.85 56.82 20.59"/><polygon class="cls-1" points="57.53 19.1 62.06 27.67 66.83 27.67 59.74 14.43 57.53 19.1"/><path class="cls-1" d="M345.5,0,241.67,0l-2.59,5L236.56,0H207.27V27.9H331.63c8,0,13.87-5.8,13.87-13.92Z"/><path class="cls-2" d="M301.5,18.39l3.28-3.64a4.5,4.5,0,0,0,1.41-2.87c0-.88-.5-1.57-1.78-1.57a4.46,4.46,0,0,0-2.68.85l-.13-.06V8.92A5.88,5.88,0,0,1,305,8.09c2.49,0,4.09,1.25,4.09,3.51,0,1.6-.88,2.91-2.15,4.33l-2,2.16,1.92-.16h2.41V20h-7.7Z"/><path class="cls-2" d="M310.63,14.1c0-3.84,2.12-6,5.12-6s5.08,2.17,5.1,6-2.09,6.12-5.1,6.12S310.65,18,310.63,14.1Zm7.23,0c0-2.57-.7-3.86-2.11-3.86s-2.12,1.29-2.12,3.86.72,4,2.12,4S317.86,16.69,317.86,14.1Z"/><path class="cls-2" d="M324.87,20V11.23l-2.19,1.41-.1-.05v-2.4l3.06-2h2.1V20Z"/><path class="cls-2" d="M330.71,19.66V17.42l.12-.06a4.23,4.23,0,0,0,2.42.69c1.88,0,2.87-.77,3.1-3.13a3.89,3.89,0,0,1-2.57.81A3.4,3.4,0,0,1,330.14,12c0-2.24,1.61-3.93,4.39-3.93,3,0,4.73,1.9,4.73,5.55,0,4.71-2.31,6.58-5.71,6.58A6.18,6.18,0,0,1,330.71,19.66Zm5.69-6.37c-.07-2.24-.63-3.14-1.81-3.14S333,10.91,333,12s.58,1.82,1.74,1.82A2.83,2.83,0,0,0,336.4,13.29Z"/><path class="cls-3" d="M210.35,3h14V7h-8.46v4.67h7.27v4h-7.27v5.21h8.59V25H210.35Z"/><path class="cls-3" d="M233.64,25h-5.11v-.23l6.78-11.41L229,3.19V3h6.11l2.66,4.73,1.26,3,1.32-3L243.09,3h5.09v.23l-6.25,10.26,6.92,11.28V25h-6.1l-3.23-5.69-1.32-3.15-1.35,3.15Z"/><path class="cls-3" d="M258.66,17.43V25h-5.49V3h7.91c5.37,0,8.74,2.31,8.74,7.33,0,4.86-3.37,7.14-8.48,7.14Zm0-10.42v6.56h2.42c2.5,0,3.51-1.09,3.51-3.34S263.43,7,261,7Z"/><path class="cls-3" d="M273.14,13.9c0-6.53,4.6-11.39,11.54-11.39s11.56,4.86,11.56,11.39a11.55,11.55,0,0,1-23.1,0Zm17.4,0c0-4.41-2.25-7.18-5.86-7.18s-5.84,2.77-5.84,7.18,2.2,7.26,5.84,7.26S290.54,18.27,290.54,13.9Z"/></g></g></svg>