<svg xmlns="http://www.w3.org/2000/svg" viewBox="0 0 1536 972.28"><defs><style>.cls-1{fill:#fff;opacity:0.9;}</style></defs><title>main_mask</title><g id="レイヤー_2" data-name="レイヤー 2"><g id="レイヤー_1-2" data-name="レイヤー 1"><path class="cls-1" d="M1536,972.28H0V.86H1536Zm-876,0h40.39L1234.28,0H1194Zm67.55,0h40.36L1302,0H1261.6Zm67.55,0h40.39L1369.64,0h-40.35Zm67.59,0H903L1437.2,0h-40.35Zm67.57,0h40.26L1504.67,0h-40.21ZM827.74,243.05l96.37,180.76,13.44-28.68L854.09,243.05H876l72,130.53,11.9-26.22L902.38,243.05h21.83l46.21,83.89,78.31-165.62L960.17,0H646L900.06,474.9,912,448.63,805.93,243.05Zm423.43,729.23h26.4L1149.25,739.54,1137,764.67Zm-46.83,0h26.47L1127.69,785l-11.9,26.32Zm-44.57-253.91,139.65,253.91h26.31L1171.74,692Zm25.4-53.27L1347.7,972.28h171L1264.38,497.6Z"/></g></g></svg>