<svg xmlns="http://www.w3.org/2000/svg" viewBox="0 0 43 43"><title>tel</title><g id="レイヤー_2" data-name="レイヤー 2"><g id="レイヤー_1-2" data-name="レイヤー 1"><path d="M21.5,0A21.5,21.5,0,1,0,43,21.5,21.51,21.51,0,0,0,21.5,0ZM31.55,30.59c-.26.3-2.7,3.51-6.59,2.16a20.9,20.9,0,0,1-9.08-6.42,21,21,0,0,1-4.8-10c-.67-4.06,2.91-5.92,3.25-6.13s1.85-.56,2.52.44a20.73,20.73,0,0,1,2,4.8c.11.74-.66,1.56-1.55,1.72s-.84.63-.84.63.49,1.8,3.4,5.25,4.59,4.24,4.59,4.24.44.12.76-.73a1.81,1.81,0,0,1,2-1.24A21.27,21.27,0,0,1,31.54,28C32.42,28.86,31.81,30.28,31.55,30.59Z"/></g></g></svg>