<svg xmlns="http://www.w3.org/2000/svg" viewBox="0 0 38.29 31.57"><defs><style>.cls-1{fill:#36c036;}</style></defs><title>family_faq-q</title><g id="レイヤー_2" data-name="レイヤー 2"><g id="レイヤー_2-2" data-name="レイヤー 2"><path class="cls-1" d="M27.55,26.85a2,2,0,0,1,2,2.13c0,.56-.17,2.59-3,2.59a8.54,8.54,0,0,1-6.16-3.39,14.64,14.64,0,0,1-6.09,1.29C6.27,29.47,0,23.31,0,14.74,0,6,6.09,0,14.32,0S28.67,6,28.67,14.74a14.7,14.7,0,0,1-4.45,10.85,3.87,3.87,0,0,0,2.84,1.26Zm-13.9-9.17c3.26,0,6.48,1.57,7.88,3.81a10.53,10.53,0,0,0,2.27-6.75c0-5.85-4-10.12-9.48-10.12S4.87,8.93,4.87,14.74a10.71,10.71,0,0,0,1.92,6.33A8,8,0,0,1,13.65,17.68Zm0,4A3.94,3.94,0,0,0,10,23.91,9.68,9.68,0,0,0,14.35,25a9.49,9.49,0,0,0,3.57-.73A4.53,4.53,0,0,0,13.69,21.67Z"/><path class="cls-1" d="M35.46,29.33a2.84,2.84,0,1,1,2.83-2.83A2.82,2.82,0,0,1,35.46,29.33Z"/></g></g></svg>