<svg id="レイヤー_1" data-name="レイヤー 1" xmlns="http://www.w3.org/2000/svg" width="18.48" height="18.68" viewBox="0 0 18.48 18.68">
  <defs>
    <style>
      .cls-1 {
        fill: #fff;
      }
    </style>
  </defs>
  <title>icon_window_w</title>
  <g>
    <g>
      <path class="cls-1" d="M5.7,0C4.56,0,3.63.4,3.63.9s.93.89,2.07.89h8.92a2.07,2.07,0,0,1,2.07,2.07v8.92c0,1.13.4,2.06.89,2.06s.9-.93.9-2.06V2.07A2.07,2.07,0,0,0,16.41,0Z"/>
      <path class="cls-1" d="M5.7,0C4.56,0,3.63.4,3.63.9s.93.89,2.07.89h8.92a2.07,2.07,0,0,1,2.07,2.07v8.92c0,1.13.4,2.06.89,2.06s.9-.93.9-2.06V2.07A2.07,2.07,0,0,0,16.41,0Z"/>
    </g>
    <rect class="cls-1" y="3.84" width="14.84" height="14.84" rx="2.07" ry="2.07"/>
  </g>
</svg>
