<svg xmlns="http://www.w3.org/2000/svg" width="31.33" height="31.33" viewBox="0 0 31.33 31.33">
  <defs>
    <style>
      .cls-1 {
        fill: #e60000;
      }

      .cls-2 {
        fill: #fff;
      }
    </style>
  </defs>
  <title>numberdticket_06</title>
  <g id="レイヤー_1" data-name="レイヤー 1">
    <circle class="cls-1" cx="15.67" cy="15.67" r="15.67" transform="translate(-6.45 17.03) rotate(-48.53)"/>
  </g>
  <g id="_2のコピー_4" data-name="2のコピー 4">
    <path class="cls-2" d="M19.67,8c-.66,0-.74-.08-1.06-.08-1.12,0-4.81,0-6.39,5.65a5.84,5.84,0,0,1,4.21-1.69,6.38,6.38,0,0,1,6.46,6.54A6.75,6.75,0,0,1,16,25.27c-3.57,0-7.48-2.4-7.48-8.91,0-6,3.49-11.64,9.88-11.64.52,0,1.09,0,1.31,0Zm-3.76,7c-1.81,0-3.84,1.18-3.84,3.34a3.75,3.75,0,0,0,3.79,3.79,3.41,3.41,0,0,0,3.54-3.59A3.3,3.3,0,0,0,15.91,15Z"/>
  </g>
</svg>
