<svg xmlns="http://www.w3.org/2000/svg" width="456.24" height="121.43" viewBox="0 0 456.24 121.43"><path d="M96.9 10.05c-1.85.1-4.06.15-6.62.15-2.77 0-5.7-.05-8.78-.15-3.08-.1-6.21-.2-9.39-.31v3.08c4.31.1 7.6.92 9.86 2.46 2.26 1.54 3.39 4.08 3.39 7.62s-1.18 8.45-3.54 14.71l-22.98 60.43L31.15 25.76c-1.34-3.49-1.92-6.13-1.77-7.93.15-1.8 1.16-3.05 3-3.77 1.85-.72 4.47-1.13 7.85-1.23v-3.08c-2.26.1-5.26.21-9.01.31-3.75.1-7.73.15-11.94.15-3.29 0-6.65-.05-10.09-.15-3.44-.1-6.34-.2-8.7-.31v3.08c1.64.1 3.39.82 5.24 2.16 1.85 1.34 3.54 3.9 5.08 7.7l38.19 96.71h5.08L89.05 27.91c1.95-5.03 4.08-8.67 6.39-10.93 2.31-2.26 4.49-3.64 6.54-4.16v-3.08c-1.54.1-3.23.21-5.08.31ZM131.85 37.61v66.84c0 4.31.85 7.24 2.54 8.78s4.54 2.31 8.55 2.31v3.23c-1.75-.1-4.44-.23-8.08-.38-3.65-.15-7.37-.23-11.17-.23s-7.42.08-11.17.23c-3.75.15-6.54.28-8.39.38v-3.23c4 0 6.85-.77 8.55-2.31s2.54-4.47 2.54-8.78v-48.36c0-4.62-.77-8.03-2.31-10.24-1.54-2.21-4.47-3.31-8.78-3.31v-3.23c3.28.31 6.47.46 9.55.46 3.49 0 6.75-.18 9.78-.54 3.03-.36 5.83-.9 8.39-1.62ZM122.61.5c3.18 0 5.85 1 8.01 3 2.16 2 3.23 4.49 3.23 7.47s-1.08 5.47-3.23 7.47c-2.16 2-4.83 3-8.01 3s-5.85-1-8.01-3-3.23-4.49-3.23-7.47 1.08-5.47 3.23-7.47 4.82-3 8.01-3ZM177.32 37.15c4.11 0 7.67.64 10.7 1.93 3.03 1.28 5.21 2.44 6.54 3.46 3.39 2.67 5.49.92 6.31-5.24h3.39c-.21 2.88-.36 6.34-.46 10.4-.1 4.06-.15 9.42-.15 16.09h-3.39c-.62-3.8-1.67-7.49-3.16-11.09-1.49-3.59-3.65-6.57-6.47-8.93-2.83-2.36-6.49-3.54-11.01-3.54-3.39 0-6.21.95-8.47 2.85-2.26 1.9-3.39 4.7-3.39 8.39 0 3.08.92 5.75 2.77 8.01 1.85 2.26 4.23 4.36 7.16 6.31 2.93 1.95 6.08 4.06 9.47 6.31 3.8 2.57 7.21 5.11 10.24 7.62 3.03 2.52 5.44 5.31 7.24 8.39 1.79 3.08 2.7 6.67 2.7 10.78 0 4.72-1.26 8.73-3.77 12.01-2.52 3.29-5.83 5.77-9.93 7.47-4.11 1.69-8.62 2.54-13.55 2.54-2.46 0-4.77-.23-6.93-.69-2.16-.46-4.16-1.05-6.01-1.77-1.13-.62-2.23-1.26-3.31-1.92-1.08-.67-2.13-1.31-3.16-1.93-1.03-.72-1.95-.62-2.77.31-.82.92-1.44 2.57-1.85 4.93h-3.39c.2-3.28.36-7.29.46-12.01.1-4.72.15-10.98.15-18.79h3.39c.72 5.65 1.79 10.63 3.23 14.94 1.44 4.31 3.57 7.68 6.39 10.09 2.82 2.41 6.7 3.62 11.63 3.62 1.95 0 3.9-.44 5.85-1.31 1.95-.87 3.57-2.28 4.85-4.23 1.28-1.95 1.92-4.57 1.92-7.85 0-4.52-1.57-8.24-4.7-11.17-3.13-2.93-7.16-6.03-12.09-9.32-3.49-2.46-6.8-4.9-9.93-7.31-3.13-2.41-5.67-5.13-7.62-8.16-1.95-3.03-2.93-6.65-2.93-10.86 0-4.62 1.1-8.42 3.31-11.4 2.21-2.98 5.16-5.21 8.86-6.7 3.7-1.49 7.65-2.23 11.86-2.23ZM242.83 37.61v66.84c0 4.31.85 7.24 2.54 8.78s4.54 2.31 8.55 2.31v3.23c-1.75-.1-4.44-.23-8.08-.38-3.65-.15-7.37-.23-11.17-.23s-7.42.08-11.17.23c-3.75.15-6.54.28-8.39.38v-3.23c4 0 6.85-.77 8.55-2.31s2.54-4.47 2.54-8.78v-48.36c0-4.62-.77-8.03-2.31-10.24-1.54-2.21-4.47-3.31-8.78-3.31v-3.23c3.28.31 6.47.46 9.55.46 3.49 0 6.75-.18 9.78-.54 3.03-.36 5.83-.9 8.39-1.62ZM233.59.5c3.18 0 5.85 1 8.01 3 2.16 2 3.23 4.49 3.23 7.47s-1.08 5.47-3.23 7.47c-2.16 2-4.83 3-8.01 3s-5.85-1-8.01-3-3.23-4.49-3.23-7.47 1.08-5.47 3.23-7.47 4.82-3 8.01-3ZM284.58 13.9v25.56h21.25v3.08h-21.25v60.52c0 4.21.77 7.19 2.31 8.93 1.54 1.75 3.75 2.62 6.62 2.62 2.67 0 5.06-1.08 7.16-3.23 2.1-2.16 3.93-5.8 5.47-10.93l2.93 1.08c-1.23 5.44-3.41 10.04-6.54 13.78-3.13 3.75-7.73 5.62-13.78 5.62-3.49 0-6.42-.44-8.78-1.31-2.36-.87-4.42-2.13-6.16-3.77-2.26-2.36-3.8-5.18-4.62-8.47-.82-3.28-1.23-7.65-1.23-13.09v-51.74h-14.17v-3.08h14.17v-22.48c3.18-.1 6.16-.39 8.93-.85 2.77-.46 5.34-1.21 7.7-2.23ZM351.05 37.15c6.88 0 12.99 1.44 18.33 4.31 5.34 2.88 9.6 7.39 12.78 13.55 3.18 6.16 4.77 14.22 4.77 24.18s-1.59 17.99-4.77 24.1c-3.18 6.11-7.44 10.58-12.78 13.4-5.34 2.82-11.45 4.23-18.33 4.23s-12.89-1.41-18.33-4.23c-5.44-2.82-9.73-7.29-12.86-13.4-3.13-6.11-4.7-14.14-4.7-24.1s1.56-18.02 4.7-24.18c3.13-6.16 7.42-10.68 12.86-13.55 5.44-2.87 11.55-4.31 18.33-4.31Zm0 3.08c-5.34 0-9.7 3.06-13.09 9.16-3.39 6.11-5.08 16.04-5.08 29.8s1.69 23.64 5.08 29.65c3.39 6.01 7.75 9.01 13.09 9.01s9.57-3 13.01-9.01c3.44-6.01 5.16-15.89 5.16-29.65s-1.72-23.69-5.16-29.8c-3.44-6.11-7.78-9.16-13.01-9.16ZM441.73 37.15c2.98 0 5.52.62 7.62 1.85 2.1 1.23 3.7 2.8 4.77 4.7 1.08 1.9 1.62 4.03 1.62 6.39 0 2.98-.9 5.52-2.69 7.62-1.8 2.11-4.18 3.16-7.16 3.16-2.57 0-4.75-.77-6.54-2.31-1.8-1.54-2.7-3.64-2.7-6.31 0-2.26.59-4.18 1.77-5.78 1.18-1.59 2.54-2.85 4.08-3.77-1.03-.82-2.26-1.18-3.7-1.08-2.77.1-5.34 1-7.7 2.69-2.36 1.69-4.37 3.85-6.01 6.47-1.64 2.62-2.93 5.42-3.85 8.39-.92 2.98-1.39 5.75-1.39 8.32v35.42c0 5.03 1.39 8.39 4.16 10.09 2.77 1.69 6.62 2.54 11.55 2.54v3.23c-2.36-.1-5.72-.23-10.09-.38-4.37-.15-8.96-.23-13.78-.23-3.7 0-7.39.08-11.09.23-3.7.15-6.52.28-8.47.38v-3.23c4 0 6.85-.77 8.55-2.31s2.54-4.47 2.54-8.78v-48.36c0-4.62-.77-8.03-2.31-10.24-1.54-2.21-4.47-3.31-8.78-3.31v-3.23c3.28.31 6.47.46 9.55.46 3.49 0 6.75-.18 9.78-.54 3.03-.36 5.83-.9 8.39-1.62v17.71c1.23-2.98 2.87-5.85 4.93-8.62 2.05-2.77 4.52-5.06 7.39-6.85 2.87-1.8 6.06-2.7 9.55-2.7Z" fill="#fff" stroke="#f2e5af" stroke-miterlimit="10"/></svg>