<svg xmlns="http://www.w3.org/2000/svg" width="580" height="212.48"><defs><style>.cls-1{fill:#00b4dc}.cls-2{fill:#282828}.cls-3{fill:#ff5064}</style></defs><g id="レイヤー_2" data-name="レイヤー 2"><g id="レイヤー_1-2" data-name="レイヤー 1"><path class="cls-1" d="M293.21 63c-.45-.95-1.35-3-5.44-3-7 0-7.43 6-7.7 9.5 1.58-1.44 3.65-3.33 9.5-3.33 7.51 0 12.6 4.32 12.6 11.43 0 6.61-4.55 13-14.36 13a15.55 15.55 0 01-8.37-2.2c-6.34-3.83-7.29-11.12-7.29-16.52 0-17.64 12.56-18.72 15.66-18.72 4.05 0 12.46 1.85 13.95 9.86zm.86 15c0-3.74-3.24-5.63-6.66-5.63s-6.71 1.89-6.71 5.63c0 2.92 2.16 5.89 6.71 5.89s6.66-3.02 6.66-5.89zm15.57 11.6l15-35.46h5.66l-15 35.46zm53.68-9.99a10.06 10.06 0 01-4.05 8.24c-3.51 2.47-8.55 2.74-10.94 2.74-2.79 0-7.55-.36-10.93-2.74a10 10 0 01-4.09-8.24c0-6.48 5.17-8.28 6.74-8.82-5.57-2.47-5.57-7-5.57-7.92a8.93 8.93 0 013.91-7.29c2.61-1.93 7.29-2.43 10.12-2.43 12.65 0 13.64 7.61 13.64 9.72a8.36 8.36 0 01-5.58 7.92c1.57.54 6.75 2.34 6.75 8.82zm-21.65-.94c0 3.82 3.6 5.13 6.66 5.13s6.67-1.31 6.67-5.13c0-1.44-.77-5.13-6.62-5.13s-6.71 3.64-6.71 5.13zm1.17-14.45c0 .59.09 4.28 5.45 4.28s5.49-3.6 5.49-4.23c0-1.62-1-4.37-5.45-4.37s-5.49 2.7-5.49 4.32zm69.53 8.28a20 20 0 11-20-20 20 20 0 0120 20zm23.76 0a5.49 5.49 0 11-5.49-5.5 5.51 5.51 0 015.49 5.5zm15.7 8.24c.41.94 1.35 3 5.4 3 7 0 7.43-6 7.7-9.49-1.58 1.44-3.65 3.33-9.5 3.33-7.51 0-12.6-4.32-12.6-11.43 0-6.62 4.55-13 14.36-13a15.54 15.54 0 018.37 2.21c6.34 3.82 7.29 11.11 7.29 16.51 0 17.64-12.56 18.72-15.66 18.72-4.05 0-12.47-1.84-13.95-9.85zm-.9-14.94c0 3.73 3.24 5.62 6.71 5.62s6.66-1.93 6.66-5.62c0-2.93-2.16-5.9-6.66-5.9s-6.71 2.97-6.71 5.9zm70.97 6.7a20 20 0 11-20-20 20 20 0 0120 20z"/><path class="cls-2" d="M394.42 85.71h-4.77V74.07a27.41 27.41 0 01-8.73 9 7.48 7.48 0 00-3.15-3.57 25 25 0 0010.14-11h-9.45v-4.27h11.19v-6.12l4.62.15c.24 0 .75 0 .75.36s-.09.33-.6.66v5h11.28v4.26h-9.63a28.24 28.24 0 0010.2 10.89c-.51.33-1.56 1-3.15 3.6a36.51 36.51 0 01-8.7-9zM504.24 72h9.18v3.78H508l3.84 1.53c.27.12.45.18.45.36s-.48.39-1 .42a23.69 23.69 0 01-1.44 3.24h4.59V85h-25.11v-3.67h5a15.44 15.44 0 00-2.34-4l2.94-1.59h-4.38V72h9.3v-1.68h-4.32v-2.1c-2 1.26-2.52 1.62-5 3a15.61 15.61 0 00-3.48-3.42c8.37-3.57 12.15-8 13.05-9.72l4.89.54c.18 0 .39.06.39.3s-.3.45-.6.54a29.81 29.81 0 0012.27 7.92 14.11 14.11 0 00-3.3 3.9 25.82 25.82 0 01-5.28-3v2.1h-4.26zm-4.38 3.78h-3.81a19.73 19.73 0 012.46 4c-1.26.69-1.83 1-2.55 1.5h3.9zm6.21-9.33a22.27 22.27 0 01-4-3.69 28.28 28.28 0 01-4.05 3.69zm-1.83 14.88h3.66a23.19 23.19 0 00-2.34-1.17 17.41 17.41 0 002.16-4.38h-3.48z"/><path class="cls-1" d="M79.4 88.88H68.6v1h-5.76v-11a15.89 15.89 0 00-2.8-1.8V91.4H53.4V65.16h8a20.79 20.79 0 00-1.16-2.28l2.52-.44h-10V57H67.6v-2.59l7.24.24c.24 0 .56.12.56.44s-.2.36-.84.84v1h14.83v5.47H81l.92.08c.32 0 .92.12.92.56s-.64.52-1 .56a10.36 10.36 0 01-.84 1.56h7.71V86c0 5.28-2.59 5.36-8 5.52a11.47 11.47 0 00-1.32-5.28zM60 75.28a8.84 8.84 0 003.48-4.64H60zm10.64-4.64H66.8l2.48.88c.24.08.48.16.48.44s-.2.36-.88.68a13.32 13.32 0 01-3.24 5.6H79.4v7.2a13.3 13.3 0 001.84.24c.92 0 1.08-.48 1.08-1.56V76a3.33 3.33 0 01-2.8 1.2h-5.76c-1.32 0-3.08-.56-3.08-2.84zM67 62.44c.6 1 .88 1.56 1.44 2.72H74a18.27 18.27 0 001.28-2.72zm1.6 20.12v1.72h5.12v-1.72zm7.64-10.68c0 .6.08.76.76.76h1c.4 0 .72-.16.92-1.68a14.25 14.25 0 003.44 1.6v-1.92h-6.12zm36.96-15.11c.2 0 .6.12.6.4s-.32.44-.88.6a27 27 0 01-1.84 7.07 13.09 13.09 0 00-4.64-1.16v1.72H92.68v-4.64h13.76v1a20.13 20.13 0 001.12-5.59zm15.67 18.55c.24.08.68.28.68.68 0 .72-.68.76-1.24.8-1.27 3.44-1.39 3.8-2.35 5.28a14 14 0 00-4.56-2.32 18.17 18.17 0 008.6 6.44 15.4 15.4 0 00-4.16 5.16 17.55 17.55 0 01-8.19-6.92 15.94 15.94 0 01-8.2 7 16.71 16.71 0 00-3.08-3.84v3.24h-5.2v-1.12h-2v1.64h-5.69V77.28h12.92v1.56a14.14 14.14 0 001.48-5l5.4 1.08c.36.08.72.2.72.52 0 .6-.68.68-.92.68a27.92 27.92 0 01-2.4 6.8 14.53 14.53 0 00-4.28-1.52v4.68c7.24-2.44 8.2-7.4 7.84-14.36l6.68.28c.24 0 .64.08.64.52s-.44.56-1 .76a32.83 32.83 0 01-.16 4.64 9.55 9.55 0 00.6 1.28 19.9 19.9 0 002.24-5.64zm-23.63-19.83v4.11h-11v-4.11zm0 11.07v4.2h-11v-4.2zm0 5.32v4.28h-11v-4.28zm-4 12.88V82h-2v2.8zm28-26.95c.08 0 .68.24.68.6 0 .63-.8.63-1.28.56-1.4 3.23-1.84 4-2.91 5.39a13.28 13.28 0 00-2.73-1.64c-1.8-.8-2-.88-2.4-1.08 1.76 3.88 6.67 6.12 9.47 6.88a17 17 0 00-3.68 5.24 17.45 17.45 0 01-8.95-6.6 18.28 18.28 0 01-8.28 6.6 16.72 16.72 0 00-3.8-5.16c5.48-1.6 8.64-3.24 8.64-11.47a22.68 22.68 0 00-.12-2.6l6.6.24c.4 0 .92 0 .92.56 0 .4-.16.48-1.08.84a24.88 24.88 0 01-.2 4.35c.2.56.32.8.44 1.08a13.74 13.74 0 003-5.75zm29.12 25.99c0 1 .48 1.36 1.32 1.36h2.6c.84 0 1.6-.2 2.24-4.6a12.82 12.82 0 005.67 3.12c-.88 5.68-2.56 7.28-5.87 7.28h-7.84c-5 0-5-3.92-5-5.12v-7.4H148l2.24 1.16c.28.16.44.28.44.64 0 .6-.84.6-1.16.6a21.12 21.12 0 01-13.2 11.08 15.85 15.85 0 00-4.6-5.2c8.52-1.52 11.08-7 11.6-8.28h-6.48V55.21h28.44v23.23h-7zm.24-21.92v-1.32h-15v1.32zm-15 4.24v1.36h15v-1.36zm0 5.56V73h15v-1.32zm56.6 13.88h-5.68v5.84h-6.88v-5.84h-5.56V81a41.43 41.43 0 01-5.48 5.44 12.25 12.25 0 00-5.2-4.88 33.4 33.4 0 0013-14.8h-11.72v-6h15v-6.23l6.72.24c.36 0 1 .08 1 .64s-.48.72-.84.92v4.35h14.87v6h-11.95c3.8 7.32 10.15 13 13 14.52a19.89 19.89 0 00-4.75 5.24 44 44 0 01-5.48-5.4zm-12.56-12.84a40.75 40.75 0 01-4.52 7h4.52zm11.4 7a37.7 37.7 0 01-4.52-6.8v6.8zm36.52-14.96c0 .52-.56.72-1 .84v1.48h12.31v16.28C246.83 89 243.16 89 238 89a13.55 13.55 0 00-2-6.76 17.64 17.64 0 002.56.28c1.48 0 1.48-.48 1.48-1.36V73.4h-5.56v18h-7v-18h-5.32v15.44h-6.92V67.08h12.24v-2.32h-15v-6.31h15v-3.92l7.32.32c.36 0 .68.2.68.52 0 .48-.56.72-1 .84v2.24h15v6.31z"/><path class="cls-3" d="M244.56 183c-.45-.95-1.35-3-5.45-3-7 0-7.42 6-7.69 9.5 1.57-1.44 3.64-3.33 9.49-3.33 7.52 0 12.6 4.32 12.6 11.43 0 6.61-4.54 13-14.35 13a15.52 15.52 0 01-8.37-2.2c-6.35-3.83-7.29-11.12-7.29-16.52 0-17.64 12.55-18.72 15.66-18.72 4.05 0 12.46 1.85 14 9.86zm.85 14.94c0-3.74-3.24-5.63-6.66-5.63s-6.7 1.94-6.7 5.63c0 2.92 2.16 5.89 6.7 5.89s6.66-2.96 6.66-5.83zM261 209.6l15-35.46h5.67l-15 35.46zm36.43 0v-23h-7.69v-5.89c4.54-.14 7.78-.9 9.45-6.53h6.61v35.42zm46.89-17.14c0 4.32-1 18.13-15 18.13-6.52 0-10-3.15-11.87-5.8-2.34-3.42-3.15-9.59-3.15-13.5 0-4.32 1-18.14 15-18.14 13.17 0 15.02 11.97 15.02 19.31zm-21.65-.59c0 1.49 0 11.93 6.66 11.93s6.67-10.4 6.67-11.93 0-11.87-6.67-11.87-6.66 10.25-6.66 11.87zm70.7.63a20 20 0 11-20-20 20 20 0 0120 20zm23.76 0a5.49 5.49 0 11-5.49-5.49 5.51 5.51 0 015.49 5.49zm19.48 17.1v-23h-7.69v-5.89c4.54-.14 7.78-.9 9.45-6.53H445v35.42zm29.66 0v-23h-7.7v-5.89c4.55-.14 7.79-.9 9.45-6.53h6.62v35.42zm66.28-17.1a20 20 0 11-20-20 20 20 0 0120 20z"/><path class="cls-2" d="M385.91 185.78v4.14h-10.05v10h11.46v4.05h-27.63v-4.05H371v-10h-9.87v-4.14H371v-8.58l5 .24a.44.44 0 01.48.36c0 .21-.39.51-.6.66v7.32zM506.4 202.8v1.65h-4.71V180h21.51v24.48h-4.71v-1.68zm12.09-13.65v-5H506.4v5zm0 9.36v-5.31H506.4v5.31z"/><path class="cls-3" d="M78.82 189.36v7H42v-7zm37.28 1.8l2.36 2.52a30.89 30.89 0 01-5.46 9.72 22.6 22.6 0 006.48 2.52c-2.44 3.16-3 4.44-3.4 5.64a26.35 26.35 0 01-7.48-3.88 25.27 25.27 0 01-6.88 3.8 11.68 11.68 0 00-2.84-3.92c-.2 3.44-3 4-7.67 3.92-.36-3.68-1.4-5.32-2-6.12a25 25 0 002.88.28c1.43 0 1.47-.32 1.47-1.68v-8.08a9.91 9.91 0 01-1.08.12v8.24H89v-8l-.88.08c-.24 5.92-.68 10.24-2.56 15.08a11.35 11.35 0 00-5-2.88c1.76-3.68 2.24-7.76 2.56-11.84h-.24c-.12.32-.32.72-.76.72s-.48-.4-.52-.6l-.6-5.44a6.13 6.13 0 002 .12v-13.55h3.84a24.09 24.09 0 001.16-3.76l6.91.76c.36 0 .68.12.68.44 0 .64-.84.8-1.36.92a15.21 15.21 0 00-.84 1.64h5.51v8.59a13 13 0 002.32-8v-3H114V184c0 .4 0 .64.44.64.76 0 .92-2.4 1-3.44a13.48 13.48 0 004.36 2.48c-.6 5.56-1.84 6.24-4.12 6.24h-4.18c-3 0-3.28-2.16-3.28-3.4V181h-1.52c-.28 4.28-1.68 7.84-3.72 9.88a13.09 13.09 0 00-4.08-2.44v1.92c.24 0 1-.16 1.52-.2a6.49 6.49 0 00-.08 1zM88.15 185l3.67-1.24a28.27 28.27 0 011.8 4.8v-5.68h-5.47zm0 6.24c3.52-.2 3.95-.24 5.47-.4v-1.44a27.12 27.12 0 00-3.91 1.48 31.13 31.13 0 00-1.56-5.08zm12.11 3.88c-.36 0-.64 0-1.36.12v10.56a18.7 18.7 0 004.84-2.36 26.92 26.92 0 01-3.36-4.72l3.08-1.84h-3.2zm5.76 1.72a26.07 26.07 0 002.32 2.84 14 14 0 002-2.84zM138 180.08a.58.58 0 01.32.56c0 .48-.4.6-1.36.76-2.68 5.72-6.84 11.32-10.63 14.28a27.17 27.17 0 00-5.72-4.84 32.8 32.8 0 0010.75-14zm9.56 12.76a81.66 81.66 0 019.76 15.56 27 27 0 00-6.48 3.44c-.44-1-.88-2-1.72-3.64-3.16.36-17.56 1.88-22.11 2.32-.36.68-.48.88-.84.88s-.44-.2-.56-.76l-1.28-6.72c1.08 0 2.28-.08 4.36-.2a122.07 122.07 0 007.31-18l7.52 2.52a.61.61 0 01.52.6c0 .52-.4.64-1.52.8-1 2.6-5.12 11.6-6.2 13.64 3.28-.24 6.36-.52 9.64-.8a48.38 48.38 0 00-4.16-6zm2.12-17.39c1 7.67 7.56 12.59 10.4 14.71a26.4 26.4 0 00-4.72 5.36 33.18 33.18 0 01-11.12-14h-5.4v-6.07zM170 202v-4.6h3.71a19.1 19.1 0 000-2.12h-3.07v-4.44h19.66v4.44h-3v2.12h3.76v4.6h-3.76v8.4h-5.68V202h-2.8a14 14 0 01-5 9.2 12.62 12.62 0 00-4.87-3.32v3.4h-6.44v-36.07h17.11v14.43H169v18.12c2.51-1.76 3.63-3.28 4.23-5.72zm3.67-21.24v-1.32h-4.87v1.32zm-4.87 3.32v1.4h4.87v-1.4zm12.87 11.2h-2.4v2.12h2.4zm16.68-20.11v31.11c0 4.64-3.24 5-8.16 5a14.39 14.39 0 00-1.8-6.36 10.35 10.35 0 002.36.28c.6 0 1.32 0 1.32-1.12v-14.44h-10.85v-14.43zm-6.28 5.59v-1.32h-4.84v1.32zm-4.84 3.32v1.4h4.84v-1.4z"/><rect class="cls-1" width="580" height="40" rx="5"/><rect class="cls-3" y="120" width="580" height="40" rx="5"/><path d="M65.71 136.55a6 6 0 01-.36 2.06 5.46 5.46 0 01-1.17 1.88 6 6 0 01-2.18 1.4 8.85 8.85 0 01-3.23.54H55v7.11h-5.7v-18.95h9.47a8.84 8.84 0 013.23.55 6 6 0 012.18 1.42 5.54 5.54 0 011.17 1.9 6.29 6.29 0 01.36 2.09zm-5.82 0a2 2 0 00-.8-1.85 5.89 5.89 0 00-2.87-.5H55v4.57h1.23a10.15 10.15 0 002.19-.18 1.76 1.76 0 001.1-.66 2.34 2.34 0 00.37-1.35zm27.33 4.5a8.69 8.69 0 01-.91 4.15 7.22 7.22 0 01-2.4 2.72 10.39 10.39 0 01-3.23 1.43 14.07 14.07 0 01-3.45.44 13.61 13.61 0 01-4.68-.82 8.35 8.35 0 01-3.81-2.79 8.11 8.11 0 01-1.53-5.13v-10.46h5.7v9a7.64 7.64 0 00.54 3.09 3.69 3.69 0 001.5 1.79 4.78 4.78 0 004.51 0 3.68 3.68 0 001.54-1.78 7.64 7.64 0 00.54-3.09v-9h5.71zm20.4 3.12a4.93 4.93 0 01-1.68 3.91 6.84 6.84 0 01-4.68 1.46h-11v-18.95h9.16a12.37 12.37 0 013.1.35 6.13 6.13 0 012.12.93 3.73 3.73 0 011.6 3.17 4.56 4.56 0 01-.41 1.92 4.49 4.49 0 01-1 1.45 3.77 3.77 0 01-1.22.8 7.5 7.5 0 013 1.93 4.44 4.44 0 011.01 3.03zm-6.62-8.12a1.83 1.83 0 00-.91-1.82 6.62 6.62 0 00-2.81-.45H96v4.54h1.23a6.54 6.54 0 002.83-.45 1.85 1.85 0 00.94-1.82zm.93 7.89c0-1.62-1.18-2.44-3.53-2.44H96v4.86h2.33c2.37 0 3.55-.81 3.55-2.42zm22.35 5.6h-14.4v-18.95h5.72V145h8.68zm7.66 0h-5.71v-18.95h5.71zm20.35-1.42a13.8 13.8 0 01-2.4 1 15.42 15.42 0 01-2.48.52 19.9 19.9 0 01-2.59.16 13.62 13.62 0 01-4.44-.68 9.61 9.61 0 01-3.4-2 8.5 8.5 0 01-2.17-3.12 10.56 10.56 0 01-.71-3.92 10.18 10.18 0 01.84-4.28 8.29 8.29 0 012.38-3.06 10.15 10.15 0 013.47-1.8 14.58 14.58 0 014.11-.58 22.28 22.28 0 017.31 1.44v5a20.7 20.7 0 00-2.78-1.46 8.39 8.39 0 00-3.23-.58 7.26 7.26 0 00-3.09.66 5.69 5.69 0 00-2.31 1.87 4.71 4.71 0 00-.88 2.85 4.81 4.81 0 00.77 2.63 5.43 5.43 0 002.12 1.9 6.58 6.58 0 003.07.7 10 10 0 002.61-.33 11.87 11.87 0 002.07-.75 15.22 15.22 0 001.73-1zm28.84-7.71a9 9 0 01-1.06 4.68 10.07 10.07 0 01-2.49 2.85 9 9 0 01-5.7 1.6h-10.23v-18.95h7.87a22 22 0 013 .19 12.45 12.45 0 012.27.52 8.44 8.44 0 011.72.75 9.05 9.05 0 011.28.9 8.72 8.72 0 011.7 1.87 9.14 9.14 0 011.16 2.5 10.54 10.54 0 01.48 3.09zm-5.81-.25a6.3 6.3 0 00-.88-3.6 4.31 4.31 0 00-2.12-1.73 7.6 7.6 0 00-2.52-.44h-2.44v11.23h2.44a7 7 0 003.88-1.07q1.64-1.06 1.64-4.39zm28.75 9.38h-5.85l-1.55-3.84h-8.23l-1.57 3.84H181l8.38-18.95h6.31zm-8.71-7.13l-2.78-6.92-2.8 6.92zm28.31-11.82l-7.43 10.27v8.68h-5.71V141L203 130.59h5.93l4.35 6 4.36-6zM238.06 144a5.21 5.21 0 01-.91 3.08 5.72 5.72 0 01-2.54 2 9.47 9.47 0 01-3.73.69c-.39 0-.87 0-1.44-.08a17.2 17.2 0 01-2.27-.41 18.77 18.77 0 01-2.95-1v-4.65a20.73 20.73 0 002.83 1.47 7.36 7.36 0 003 .59 2.6 2.6 0 001.89-.48 1.43 1.43 0 00.43-.91 1.56 1.56 0 00-.74-1.3 10.22 10.22 0 00-2.14-1.08 17.91 17.91 0 01-2.74-1.43 6.57 6.57 0 01-1.92-1.94 5 5 0 01-.74-2.74 5 5 0 013.05-4.75 8.74 8.74 0 013.77-.74 13.47 13.47 0 015.15 1 10.22 10.22 0 011.21.6v4.45a15.1 15.1 0 00-2.59-1.49 7.22 7.22 0 00-3.06-.66 2.36 2.36 0 00-1.54.41 1.27 1.27 0 00-.48 1 1.23 1.23 0 00.48 1 8.06 8.06 0 001.71 1 34.13 34.13 0 013.5 1.85 6.71 6.71 0 012.05 1.89 4.57 4.57 0 01.72 2.63zm17.36-4.53l11 5.47-1.42 3.22-17.52-8.69 17.52-8.69 1.51 3.22zm26.71-10.54c.17 0 .48 0 .48.36s-.33.39-.57.46c-.2.6-.27.86-.41 1.27h10.46v3.44h-11.85c-.39.74-.56 1-.75 1.31h10.15v12.08c0 2.45-1 3.38-5.95 3.21a8.46 8.46 0 00-1.1-3.72c.33 0 1.85.34 2.16.34.91 0 .91-.34.91-.79v-.82h-6.84v5h-4v-9.72a17 17 0 01-2.52 2 13.87 13.87 0 00-3-2.83 15.52 15.52 0 006.51-6H270V131h7.25a15.29 15.29 0 00.65-2.52zm3.53 10.83v-.91h-6.84v.91zm-6.84 2.66v1h6.84v-1zm28.3-6.5a28 28 0 013.12 3.6 25.33 25.33 0 00-2.6 2.45 22.67 22.67 0 00-2.73-3.27v.84h-2.86a18.58 18.58 0 002.88 3c-.26.34-.36.46-.55.75l6-1.37v-7.49a20.57 20.57 0 00-1.73 1.75 21.79 21.79 0 00-3.12-3.21l2.43-2.43a20.21 20.21 0 012.42 2.45v-4.1l4.25.24a.34.34 0 01.33.31c0 .29-.21.38-.62.55v11l1.58-.36.65 3.29-2.23.55V151h-4v-5.52l-5.66 1.42-.65-3.2c-.27.44-.43.72-1 1.83a12.4 12.4 0 01-1.46-1.59V151h-3.84v-5.11a12.77 12.77 0 01-1.73 2.33 12.55 12.55 0 00-2.78-2.72 16.08 16.08 0 004.2-6H294v-3.43h3.79v-1.39a23.58 23.58 0 00-2.59.93 21.94 21.94 0 00-1.42-4.48l2.91-1a24.75 24.75 0 011.1 3.31v-4.59l4.1.2a.38.38 0 01.39.36c0 .31-.36.48-.65.57V134a29.21 29.21 0 001.1-3.86l3.51.81a.34.34 0 01.26.29c0 .19-.17.34-.62.53-1 3.09-1.06 3.21-1.37 4a10.71 10.71 0 00-2.88-1v1.34h3.29v2.07zm11.68 14.95l-.6-.6 21.15-21.14.6.6zm31.28-15.94c.16 0 .33.12.33.34s-.17.36-.74.5a30.78 30.78 0 01-4.56 10.23 21.38 21.38 0 00-4-2.06 24 24 0 004.75-10.33zm5.59-5.85c.21 0 .41.09.41.36s-.22.41-.56.53v17.3c0 3.43-1.92 3.82-6.43 3.79a10.35 10.35 0 00-1.58-4.32 21.51 21.51 0 002.49.26c.91 0 1.13-.07 1.13-.77v-17.3zm4.39 4.29a61.2 61.2 0 014.9 11 16.42 16.42 0 00-4.11 2.11 53 53 0 00-4.58-11.5zm19.18 12.39v2.45c0 2.85-1.8 3-6.29 2.93a11.11 11.11 0 00-1.18-3.75c.39 0 2.31.12 2.74.12.74 0 .74-.17.74-1.25v-.5h-9.05v-3.48h9.05v-1.39l1.61.12a9.14 9.14 0 001-.77h-7v-3.31h11.83l1.28 2.25a32.11 32.11 0 01-3.82 3.1H388v3.48zm-4-12.91a18.65 18.65 0 00-2-3.2l3.45-1.29a16.94 16.94 0 012.24 3.55 16.42 16.42 0 00-1.9.94h2.83a42.2 42.2 0 002.45-4.2l4 1.17c.22.07.41.12.41.34s-.43.45-.84.45c-.7 1.23-.89 1.49-1.39 2.24h3.29v6.53H384v-3.27h-14v3.27h-3.82v-6.53h3.15a14.23 14.23 0 00-1.75-2.6l3.38-1.51a14.64 14.64 0 012.26 3.36c-.67.34-1 .51-1.39.75zm24.35.04v-4l4.29.12c.22 0 .58 0 .58.33s-.07.27-.55.63v2.92h7.39v3.73h-7.39v2.92h5.61v3.65h-5.61v3.67h8.25v3.7H390v-3.7h9.56v-3.67h-5.91v-3.65h5.91v-2.92H395a21.73 21.73 0 01-2.4 3.69 11.2 11.2 0 00-3.45-2 22.75 22.75 0 004.29-9.05l4 .82c.39.07.56.19.56.43s-.36.41-.56.43c-.19.55-.36 1.06-.72 2zm13.89 11.91a20.38 20.38 0 002.19-.55v-14.88l4.41.26c.1 0 .53.05.53.41s-.19.36-.6.55v12.31a60.94 60.94 0 005.83-2.2 8.76 8.76 0 00-.21 2.54 9.57 9.57 0 00.07 1.68c-1.58.65-4.35 1.8-9.89 3.62-.05.1-.21.51-.24.58a.37.37 0 01-.31.19c-.22 0-.29-.24-.36-.43zM435 129.53c.31 0 .43.17.43.39s-.22.36-.65.55c-.12 5.45-.21 9.79-2 13.37a25 25 0 014 4.32 19 19 0 00-3.17 3 25.08 25.08 0 00-3.12-4 14 14 0 01-6.49 4.24 11.66 11.66 0 00-2.88-3.29c6.09-1.89 9.28-4.75 9.28-15.12 0-.53-.07-3.07-.09-3.67zm-10.15.56a28.45 28.45 0 014.17 5.47 16.51 16.51 0 00-3.57 2.59 20.64 20.64 0 00-4.06-5.64zm25.69 5.35a53.42 53.42 0 017.92 5.9 23.22 23.22 0 00-2.88 3.46 27.12 27.12 0 00-5-4.46V151h-4.42v-17.34H438v-4h22.23v4h-9.65zm14.59-.53c-.5.46-.77.67-1 .89a14 14 0 00-2.93-2 18.42 18.42 0 004.56-5.19l3.72.84c.19.05.34.15.34.34s-.29.34-.63.46l-.26.38h14.4v3.1h-2.11v2.61h3v3.17h-3V142h2.18v3.12h-2.11a26.21 26.21 0 013.22 4.22 24.12 24.12 0 00-3.27 1.95 23.71 23.71 0 00-3.21-4.64l2.42-1.53h-15.6l3.17 1.27c.31.12.48.19.48.38s-.39.34-.6.34a19 19 0 01-3.19 4.37 12.63 12.63 0 00-3.22-2 13.25 13.25 0 003.29-4.32h-2V142h2.35v-2.5h-3.19v-3.2h3.19zm3.17 1.39h1.13v-2.61h-1.13zm0 5.67h1.13v-2.5h-1.13zm3.53 3.77a20.67 20.67 0 011.49 4.63 25.75 25.75 0 00-3.82.84 18 18 0 00-1.1-4.85zm.77-9.44h1.12v-2.61h-1.12zm0 5.67h1.12v-2.5h-1.12zm4.08 3.5a23.13 23.13 0 012 4.61 28.53 28.53 0 00-3.67 1 26.78 26.78 0 00-1.76-4.8zm.21-11.78v2.61H478v-2.61zm0 5.78V142H478v-2.5zm22.23-3.55a28 28 0 013.12 3.6 25.33 25.33 0 00-2.6 2.45 22.67 22.67 0 00-2.73-3.27v.84h-2.86a18.58 18.58 0 002.88 3c-.26.34-.36.46-.55.75l6-1.37v-7.49a20.57 20.57 0 00-1.73 1.75 21.79 21.79 0 00-3.12-3.21l2.43-2.43a20.21 20.21 0 012.42 2.45v-4.1l4.25.24a.34.34 0 01.33.31c0 .29-.21.38-.62.55v11l1.58-.36.65 3.29-2.23.55V151h-4v-5.52l-5.66 1.42-.65-3.2c-.27.44-.43.72-1 1.83a12.4 12.4 0 01-1.46-1.59V151h-3.84v-5.11a12.77 12.77 0 01-1.73 2.33 12.55 12.55 0 00-2.78-2.72 16.08 16.08 0 004.2-6H486v-3.43h3.79v-1.39a23.58 23.58 0 00-2.59.93 21.94 21.94 0 00-1.42-4.48l2.91-1a24.75 24.75 0 011.1 3.31v-4.59l4.1.2a.38.38 0 01.39.36c0 .31-.36.48-.65.57V134a29.21 29.21 0 001.1-3.86l3.51.81a.34.34 0 01.26.29c0 .19-.17.34-.62.53-1 3.09-1.06 3.21-1.37 4a10.71 10.71 0 00-2.88-1v1.34h3.29v2.07zm23.61 3.55l-11-5.47 1.51-3.22 17.52 8.69-17.52 8.69-1.51-3.22zM90.35 24.17a4.93 4.93 0 01-1.68 3.91A6.87 6.87 0 0184 29.54H73V10.59h9.2a12.29 12.29 0 013.09.35 6.19 6.19 0 012.13.93A3.8 3.8 0 0189 15a4.56 4.56 0 01-.39 2 4.49 4.49 0 01-1 1.45 3.77 3.77 0 01-1.22.8 7.5 7.5 0 013 1.93 4.44 4.44 0 01.96 2.99zm-6.68-8.12a1.84 1.84 0 00-.9-1.82 6.62 6.62 0 00-2.77-.45h-1.25v4.54H80a6.54 6.54 0 002.83-.45 1.87 1.87 0 00.84-1.82zm.93 7.89c0-1.62-1.17-2.44-3.52-2.44h-2.33v4.86h2.33c2.35 0 3.52-.81 3.52-2.42zm27.75-2.89a8.69 8.69 0 01-.91 4.15 7.22 7.22 0 01-2.4 2.72 10.5 10.5 0 01-3.23 1.43 14.07 14.07 0 01-3.45.44 13.57 13.57 0 01-4.68-.79 8.35 8.35 0 01-3.81-2.79 8.11 8.11 0 01-1.53-5.13V10.59H98v9a7.64 7.64 0 00.54 3.09 3.69 3.69 0 001.5 1.79 4.78 4.78 0 004.51 0 3.73 3.73 0 001.51-1.78 7.64 7.64 0 00.54-3.09v-9h5.71zm21.57-10.46l-7.42 10.27v8.68h-5.72V21l-7.56-10.38h5.94l4.34 6 4.36-6zm15.43 18.95h-14.29V10.59h14.06v3.8h-8.34v3.48h8v3.81h-8v4.05h8.57zm20.78 0H164l-1.49-3.36a14 14 0 00-1.48-2.7 3.16 3.16 0 00-1.28-1.09 4.49 4.49 0 00-1.6-.24h-.65v7.39h-5.71V10.59h9.72a7.08 7.08 0 013.86 1 5.74 5.74 0 012.16 2.32 5.91 5.91 0 01.67 2.6 4.91 4.91 0 01-.56 2.43 4.45 4.45 0 01-1.17 1.44 11.25 11.25 0 01-1.38.86 5.42 5.42 0 011.51 1.27 15.42 15.42 0 011.62 3zm-7.77-13a2 2 0 00-.86-1.83 5.62 5.62 0 00-2.8-.52h-1.21v4.61h1.24a6.24 6.24 0 002.86-.46 1.89 1.89 0 00.77-1.76zm14.01-1.9a5.35 5.35 0 01-.36 1.88 5.8 5.8 0 01-1.14 1.83 6.59 6.59 0 01-2 1.47 9.44 9.44 0 01-2.92.85v-.88c1.43-.53 2.15-1.74 2.15-3.62v-.29a2.61 2.61 0 01-2.15-2.69 2.81 2.81 0 01.38-1.4 3 3 0 011.06-1.06 2.84 2.84 0 011.47-.4 3 3 0 012 .65 3.79 3.79 0 011.14 1.64 5.69 5.69 0 01.37 2.02zM191.62 24a5.21 5.21 0 01-.91 3.08 5.69 5.69 0 01-2.53 2 9.52 9.52 0 01-3.74.69c-.39 0-.87 0-1.44-.08a17.49 17.49 0 01-2.27-.41 18.67 18.67 0 01-2.94-1v-4.64a20.07 20.07 0 002.82 1.47 7.36 7.36 0 003 .59 2.63 2.63 0 001.9-.48 1.48 1.48 0 00.43-.91 1.58 1.58 0 00-.74-1.3 10.34 10.34 0 00-2.2-1.08 17.33 17.33 0 01-2.73-1.43 6.34 6.34 0 01-1.92-1.94 4.93 4.93 0 01-.75-2.74 5 5 0 013-4.75 8.74 8.74 0 013.77-.74 13.53 13.53 0 012.94.31 13.74 13.74 0 012.22.69 10.7 10.7 0 011.2.6v4.45a14.73 14.73 0 00-2.59-1.49 7.19 7.19 0 00-3.06-.66 2.36 2.36 0 00-1.54.41 1.27 1.27 0 00-.48 1 1.23 1.23 0 00.48 1 8.06 8.06 0 001.71 1 33.1 33.1 0 013.5 1.85 6.87 6.87 0 012.06 1.89 4.64 4.64 0 01.81 2.62zm28.88-3.59a9 9 0 01-1.06 4.68 10.1 10.1 0 01-2.5 2.85 9 9 0 01-5.7 1.6H201V10.59h7.87a21.71 21.71 0 013 .19 12.38 12.38 0 012.28.52 8.37 8.37 0 013 1.65 8.5 8.5 0 011.71 1.87 9.45 9.45 0 011.16 2.5 10.54 10.54 0 01.48 3.09zm-5.81-.25a6.3 6.3 0 00-.88-3.6 4.35 4.35 0 00-2.12-1.73 7.6 7.6 0 00-2.52-.44h-2.44v11.23h2.44a7 7 0 003.88-1.07q1.63-1.06 1.64-4.39zm28.75 9.38h-5.86L236 25.7h-8.23l-1.57 3.84h-5.85l8.38-18.95h6.31zm-8.71-7.13L232 15.49l-2.8 6.92zM263 10.59l-7.43 10.27v8.68h-5.67V21l-7.56-10.38h5.93l4.35 6 4.36-6zM277.43 24a5.28 5.28 0 01-.91 3.08 5.72 5.72 0 01-2.54 2 9.47 9.47 0 01-3.73.69c-.39 0-.87 0-1.44-.08a17.2 17.2 0 01-2.27-.41 18.43 18.43 0 01-3-1v-4.64a21.23 21.23 0 002.82 1.47 7.44 7.44 0 003 .59 2.62 2.62 0 001.89-.48 1.43 1.43 0 00.43-.91A1.56 1.56 0 00271 23a10.22 10.22 0 00-2.14-1.08 17.91 17.91 0 01-2.74-1.43 6.57 6.57 0 01-1.92-1.94 4.93 4.93 0 01-.74-2.74 5.23 5.23 0 01.75-2.77 5.14 5.14 0 012.3-2 8.71 8.71 0 013.77-.74 13.47 13.47 0 015.15 1 10.22 10.22 0 011.21.6v4.45a15.1 15.1 0 00-2.64-1.46 7.26 7.26 0 00-3.06-.66 2.4 2.4 0 00-1.55.41 1.29 1.29 0 00-.47 1 1.25 1.25 0 00.47 1 8.06 8.06 0 001.71 1 32.13 32.13 0 013.5 1.85 6.75 6.75 0 012.06 1.89 4.57 4.57 0 01.77 2.62zm17.66-4.81l10.69 5.3-1.46 3.11-17-8.41 17-8.41 1.46 3.12zm35.54 2.33v2.39h-1v3.88h-3.83V27h-3.95v1.05c0 2.25-1.79 2.46-5.56 2.37a7.83 7.83 0 00-1-3c.72.07 1.46.16 2.14.16s.69-.21.69-.63h-7.5v-2.39h7.5v-.65h-8.82v-2.39h8.82v-.63h-7.5v-2.12h7.5v-.58h-6.29v-4.87h6.29v-.54h-8.8v-2.6h8.8V8.92l3.79.12c.12 0 .49 0 .49.28s-.21.32-.51.49v.37h8.75v2.6h-8.75v.54h6.25v4.87h-6.25v.58h7.78v2.75zm-12.55-5.44v-.67h-2.67v.67zm3.77-.67v.67h2.6v-.67zm3.95 6.11v-.63h-3.95v.63zm0 3v-.65h-3.95v.65zm18.97-13.09a15.89 15.89 0 001.41-2.69l4.23.79c.12 0 .3.09.3.25 0 .33-.42.37-.74.42-.3.47-.39.61-.84 1.23H354v3.4h-21.59v-3.4H337a11.44 11.44 0 00-1.07-1.6l3.88-1.14a15.42 15.42 0 011.58 2.42l-1.14.32zm-7.72 13.9v5.08h-3.62V15.57h9.66V27.9c0 2.4-1.95 2.44-4.41 2.51a8.82 8.82 0 00-.93-3.6 7.59 7.59 0 001.21.12c.51 0 .6-.16.6-.65v-1zm2.51-6v-.93h-2.51v.89zm0 3.46v-1h-2.51v1zM348 16c.18 0 .41 0 .41.27s-.23.38-.41.47v9h-3.77v-9.92zm5-.49c.23 0 .51.05.51.3s-.23.33-.58.46v11.31c0 2.9-2.35 2.88-5.35 2.83a8.13 8.13 0 00-1.18-3.83 19.24 19.24 0 002 .16c.6 0 .65-.28.65-.67V15.29zm14.36.59l-2 12.43h-5.23l-4-18.68h4.63L363 23.28l2.09-13.43h4.56l2.09 13.43 2.2-13.43h4.63l-4 18.68h-5.22zm28.43 8.71v3.72h-15.1V9.85h14.79v3.72h-10.15v3.65h8.83v3.58h-8.83v4zm2.45 3.72V9.85h10.17c3.23 0 5.34 1.93 5.34 4.81a3.73 3.73 0 01-2.62 3.83 4.38 4.38 0 013.3 4.61 5.28 5.28 0 01-5.6 5.43zm4.66-11.08h4.23a1.84 1.84 0 001.79-2.07 1.69 1.69 0 00-1.79-1.81h-4.23zm0 7.36h4.19a2.22 2.22 0 002.51-2.23c0-1.69-1.4-2-2.51-2h-4.19zm17.39.28v-5a16.8 16.8 0 01-1.62 1 10.6 10.6 0 00-2.35-2.86 19.28 19.28 0 003.16-2 19.07 19.07 0 00-2.05-1.91l2.21-2h-1.39v-3h8.69l.53.54 3.09-1.16a16.72 16.72 0 00.91 1.81A15.59 15.59 0 00433 8.76l2.65 1.58c.26.16.33.23.33.37 0 .4-.44.35-.77.33-.53.63-1.18 1.39-1.81 2 .3.32.42.46.58.6a23.39 23.39 0 002.18-2.55l2.44 1.62c.19.12.35.24.35.45 0 .41-.49.39-.67.37a25.32 25.32 0 01-2 2.13 16.2 16.2 0 003.2 1.93 10.24 10.24 0 00-2.32 3.07 18.88 18.88 0 01-1.6-1.14v5.55h-1.61c.19.05.42.12.42.35s-.16.3-.65.4c-.14.37-.32.79-.44 1h5.34v3.21h-21.39v-3.15h5.57c-.05-.09-.35-1-.6-1.51l1.41-.28zm.1-12.73a16.09 16.09 0 011.78 1.56 5 5 0 001.07-1.56zm13.4 6.09c-.51-.4-1.14-.91-1.49-1.21v.37h-8.52v-.46c-.24.23-.54.53-1.44 1.3zm-9.69 2.6v1.35h7.58v-1.35zm5.83-6.36a16.5 16.5 0 01-2-3.23 15.3 15.3 0 01-1.89 3.23zm-3.74 10.4a14.57 14.57 0 01.72 1.79h2.26a13.12 13.12 0 00.72-1.79zm22.53-7.73H447v1h2.3v3.09H447v3a10.24 10.24 0 00.93-2.69l2.51.72a11.89 11.89 0 00-.86-1.49l2.25-1.42h-2.16v-2.9h7v-.87h-5.83v-2.6h5.83v-.77H450V9.62h10.48v7h1.32v2.9h-2.25l2.45 1.6a.42.42 0 01.23.37c0 .35-.32.37-.67.37a24.8 24.8 0 01-1.67 2.35 12.82 12.82 0 002.51 2.23 13.52 13.52 0 00-2.05 3.18 13.37 13.37 0 01-2.95-3.55v1.67c0 2.84-1.79 2.84-4.76 2.84a9.84 9.84 0 00-.89-3.21 7.4 7.4 0 01-.72.33c0 .41 0 .85-.44.85a.37.37 0 01-.35-.3l-.67-2.58a19.49 19.49 0 00-.32 2.88c-1.61.38-4 .8-7.44 1.38-.16.41-.21.55-.44.55s-.26-.18-.3-.35l-.79-3.5a30 30 0 003.37-.33v-1c-.37.14-2.12.72-2.47.86a17.9 17.9 0 00-1-3.62l2.55-.79a23.82 23.82 0 01.91 3.09v-3.37h-3.07v-3.09h3.07v-1h-2.07v-1.81a20.14 20.14 0 00-1.88-1.63 10.94 10.94 0 004.06-5.08l3.65.48c.19 0 .33.07.33.26a.4.4 0 01-.33.37 14.14 14.14 0 003 2.9 17.19 17.19 0 00-1.67 1.82zm-1.79-2.95a10.54 10.54 0 01-1.37-1.77 21 21 0 01-1.42 1.77zm.07 11.36c.77-.12 1.35-.26 2-.4a13.24 13.24 0 00-2-.6zm3.69-2.77a1.68 1.68 0 01-.42.05c-.14.39-.41 1.23-.53 1.53.77-.23 1.09-.35 1.44-.47a7.7 7.7 0 00-.49-1.11zm3.16-3.42h-1.62a27.5 27.5 0 011.48 2.86 20.5 20.5 0 00-2.32 1.56c.58-.21 1.23-.46 2.46-1zm0 6.65c-.14.09-1.11.63-1.9 1 .83.1 1.16.14 1.39.14.49 0 .51-.37.51-.74zm3.51-6.65v1c.09.19.23.49.6 1.16a18.88 18.88 0 001.19-2.14zm18.71-3.85v3.37H472v.84h4v6.87c0 1.84-1.53 2.28-3.3 2.19a6.32 6.32 0 00-.72-2.84v4.25h-3.48V23.3h-.91v5.79h-3.32v-9.15h4.23v-.84h-4.76v-3.37h2.2A12.2 12.2 0 00463 14.5a13 13 0 001.72-5.11l3.37.69c.14 0 .18.17.18.33s-.21.35-.67.44c-.12.54-.14.65-.21.91h1.07V9l3.53.09c.25 0 .51 0 .51.33s-.28.37-.56.51v1.56h4v3.3h-4v1zm-7.59 0v-1h-1.93c-.21.62-.28.81-.35 1zm3.52 9.78c.77.07 1 0 1-.53V23.3h-1zm8.2-13.84c.33 0 .54 0 .54.32s-.12.3-.54.56v13h-3.4V11.5zm4.53-2.58c.21 0 .54 0 .54.37s-.14.3-.54.53v16.82c0 3-.93 3.86-5.15 3.67a7.49 7.49 0 00-1.42-3.76 20 20 0 002.07.14c.86 0 .88-.23.88-.79V9zm14.5 10.1l-10.69-5.29 1.46-3.12 17 8.41-17 8.41-1.46-3.11z" fill="#fff"/></g></g></svg>