<svg xmlns="http://www.w3.org/2000/svg" width="560" height="245"><defs><style>.cls-2{fill:#fff}.cls-3{fill:#282828}.cls-4{fill:#ff9600}</style></defs><g id="レイヤー_2" data-name="レイヤー 2"><g id="object"><rect width="560" height="245" rx="10" fill="#dcdcdc"/><path class="cls-2" d="M555 65v170a5 5 0 01-5 5H10a5 5 0 01-5-5V65z"/><path class="cls-3" d="M42 26.66c-.19.25-.19.25-.55 1.61A26.21 26.21 0 0138 35.78a22.52 22.52 0 01-6.4 6 24 24 0 01-4.78 2.31 5 5 0 00-1.28-1.79 20.06 20.06 0 005.88-2.76c4.27-2.86 6.73-6.58 8.19-12.4H26.4a18.28 18.28 0 00-2.92.15v-2.12a18.6 18.6 0 002.94.16h12.3a3.71 3.71 0 001.69-.21zm-1.1-5.49a18.38 18.38 0 012.34 3.54l-1.32.59a17.08 17.08 0 00-2.32-3.59zm2.47-1a20.37 20.37 0 012.37 3.53l-1.33.6A18 18 0 0042 20.7zm4.89 11.66a18.38 18.38 0 003.23.16h15.1a21.11 21.11 0 003.15-.13V34a29.46 29.46 0 00-3.17-.1H51.49a28.35 28.35 0 00-3.23.1zM94 43.11a48.94 48.94 0 00-8.32-8 28.32 28.32 0 01-5 4.65 33.36 33.36 0 01-5.1 3.12 5.65 5.65 0 00-1.27-1.71 21.3 21.3 0 005.28-3 28.22 28.22 0 009.28-11.73c.05-.15.08-.18.13-.31a.91.91 0 00.08-.18 5.83 5.83 0 01-.63 0l-8.68.13a18 18 0 00-2.68.21v-2.1a12.62 12.62 0 002 .13h.68l9.23-.11a4.67 4.67 0 001.7-.21l1.09 1.12a4.71 4.71 0 00-.73 1.28 31.92 31.92 0 01-4.29 7.28 65.14 65.14 0 018.66 7.8zm16-18.95c-2.57.18-5.22.31-7.85.34a4.81 4.81 0 00-.7-1.51h2.13c6 0 12.12-.72 15.26-1.79l1.16 1.5-.49.08-.55.1c-1.9.4-5.27.89-7.41 1.12v3.93h3.12a17.87 17.87 0 002.1-3.93l1.59.6a25.53 25.53 0 01-2 3.33h3.12a14.15 14.15 0 002.62-.16v1.69a18.89 18.89 0 00-2.62-.15h-6.4a24.47 24.47 0 0010 5 5.36 5.36 0 00-.91 1.56c-2.14-.83-2.29-.91-3.25-1.35v7.93a14.8 14.8 0 00.16 2.44h-1.7v-1.4h-12.72v1.4H103a17 17 0 00.15-2.42v-7.93a31.34 31.34 0 01-3 1.3 4.24 4.24 0 00-.93-1.45 23.25 23.25 0 009.28-5.07h-6.09a18.89 18.89 0 00-2.62.15v-1.7a16.16 16.16 0 002.62.16h2.94a16 16 0 00-1.61-2.6l1.38-.6a20.7 20.7 0 011.87 3.2h3zm6.76 9.75h.89a21.68 21.68 0 01-6.19-4.47v1.95a15.84 15.84 0 00.08 1.77h-1.74a12.08 12.08 0 00.1-1.77v-.91a7.18 7.18 0 01.11-1 19.86 19.86 0 01-5.78 4.45h12.43zm-12.11 4H110v-2.65h-5.38zm0 4.19H110v-2.86h-5.38zm6.89-4.19h5.79v-2.65h-5.79zm0 4.19h5.75v-2.86h-5.75zm16.57-9.28a19.54 19.54 0 00-2.68.15v-1.84a18.75 18.75 0 002.68.15h17.78a19.22 19.22 0 002.71-.15V33a20 20 0 00-2.71-.15h-12a29.55 29.55 0 01-1.28 2.7h9.49a24.56 24.56 0 002.92-.1 1.85 1.85 0 00-.08.47c-.11.91-.11.91-.18 1.35-.5 3.69-1 5.64-1.72 6.45-.52.62-1.35.85-3 .85-1.2 0-2.81-.1-4.34-.26a5.71 5.71 0 00-.39-1.74A35.08 35.08 0 00140 43c1.17 0 1.56-.13 1.85-.65a18 18 0 001.23-5.35h-11.23c-.49.83-.73 1.19-1.45 2.26l-1.85-.39a24.18 24.18 0 003.51-6zm.83-8.82a16.57 16.57 0 00-.1-1.95 25.14 25.14 0 002.91.13h10.42a19.41 19.41 0 002.94-.13A16.57 16.57 0 00145 24v3.38a16.22 16.22 0 00.1 1.93 25.38 25.38 0 00-2.73-.11h-10.78a26.41 26.41 0 00-2.75.11 17.06 17.06 0 00.1-1.93zm1.64-.36v4.13h12.76v-4.13zM161.86 36c-1.51 3.44-3.05 5-4.92 5-2.47 0-4.31-2.71-4.31-6.35A10.56 10.56 0 01163.75 24a10.11 10.11 0 017.16 2.57 8.75 8.75 0 012.52 6.35 9.48 9.48 0 01-6 9 20.49 20.49 0 01-3.95 1.19 4.13 4.13 0 00-.91-1.74A15.53 15.53 0 00167 40.1a7.84 7.84 0 004.6-7.28 6.84 6.84 0 00-4.13-6.53 7.36 7.36 0 00-3-.65A39 39 0 01161.86 36zm-3.2-9.07a9 9 0 00-4.24 7.75c0 2.49 1.09 4.42 2.5 4.42 1.09 0 2.13-1.22 3.25-3.77a36.06 36.06 0 002.36-9.62 8.15 8.15 0 00-3.87 1.18zm25.06 10.31c-1.45 0-2.13 0-2.94.08a19.28 19.28 0 00.13-2.73v-8.82a33.27 33.27 0 00-.13-3.46 21.24 21.24 0 002.79.13h10.86a27.39 27.39 0 002.79-.13 33.83 33.83 0 00-.13 3.46v8.82a18.79 18.79 0 00.13 2.73c-.73-.06-1.51-.08-2.92-.08H192v4.7c0 .81.26.89 2.92.89 2.46 0 3.06-.11 3.43-.65a8.73 8.73 0 00.62-3.41 7.58 7.58 0 001.64.7c-.6 4.66-.89 4.89-5.82 4.89-2.14 0-3.31-.13-3.83-.44s-.62-.62-.62-1.46v-5.22h-3.17a7.67 7.67 0 01-2.25 4.76c-1.54 1.48-3.43 2.37-6.66 3.07a5.19 5.19 0 00-.91-1.56 15.88 15.88 0 004-1.09 6.49 6.49 0 003.59-3.42 5.81 5.81 0 00.47-1.79zm-1.19-10.43h12.94V24h-12.94zm0 4.45h12.94v-3h-12.94zm0 4.55h12.94v-3.1h-12.94zm31.38-12.15a14.64 14.64 0 00-.18-2.28h2.08a12 12 0 00-.16 2.28v2h8a18.2 18.2 0 003-.19v1.95a16.41 16.41 0 00-2.94-.15h-9.91a34.8 34.8 0 01-.36 3.72h7.1a17 17 0 002.68-.13c-.05.51-.08.8-.13 1.82a55.28 55.28 0 01-1 8.86c-.55 2.24-1.17 2.78-3.25 2.78a35.18 35.18 0 01-3.62-.23 5.52 5.52 0 00-.41-1.85 20.75 20.75 0 003.93.42c1.11 0 1.37-.31 1.76-2.24a49.25 49.25 0 00.81-7.87h-8.17a17.35 17.35 0 01-2.47 6.65 16.34 16.34 0 01-3.22 3.59 15.74 15.74 0 01-2.83 1.9 5.06 5.06 0 00-1.28-1.46 13.43 13.43 0 005.29-4.23c2.13-2.76 3.15-6.29 3.35-11.75h-5.46a21 21 0 00-2.91.15v-1.97a17.36 17.36 0 002.89.19h7.41z"/><path class="cls-4" d="M200 86a4.05 4.05 0 014 4v40a4.05 4.05 0 01-4 4H29a4.05 4.05 0 01-4-4V90a4.05 4.05 0 014-4h171m0-6H29a10 10 0 00-10 10v40a10 10 0 0010 10h171a10 10 0 0010-10V90a10 10 0 00-10-10z"/><rect class="cls-4" x="19" y="80" width="131" height="60" rx="10"/><path class="cls-2" d="M39.62 111.22c.17.1.27.21.27.33s-.27.23-.54.21a26.51 26.51 0 01-4.35 5.48 15.2 15.2 0 00-2.41-1.78 16 16 0 004.6-5.67zm1.32-9.91l2.8.1c.27 0 .46.06.46.25s-.17.23-.36.32v3.82h7.06v2.56h-7.06v7.94c0 1.45 0 3.17-3.38 3.17-.38 0-1 0-1.43-.09a8 8 0 00-.9-2.81 15.07 15.07 0 001.91.19c.9 0 .9-.32.9-1.64v-6.76h-7.07v-2.56h7.07zm6.56 8.35a28.56 28.56 0 014.32 5.34c-.71.54-1.72 1.49-2.16 1.91a28.56 28.56 0 00-4.26-5.63zm25.07-.66v3H54.45v-3zm9.51-6.52c.21 0 .49 0 .49.27s-.21.34-.38.4v5.15c0 5.33-2.37 7.72-5.23 10a9.17 9.17 0 00-2.37-2c4-2.54 4.55-4.92 4.55-7.81v-6.16zm5.21-.19c.23 0 .4 0 .4.23s-.21.3-.4.4v11a22 22 0 006-5.85 7.94 7.94 0 001.4 2.6 31.36 31.36 0 01-6 5.9c-1.75 1.26-1.93 1.41-2.48 1.87l-1.93-1.26c0-.57.08-1.09.08-1.66v-13.37zM112.05 120h-2.5v-.77h-8.08v.77H99v-7c-.67.42-1.32.78-2 1.14a6.84 6.84 0 00-1.78-2 21.16 21.16 0 006.53-4.07H95.9v-2.06h4.31a11.13 11.13 0 00-1.21-1.53l1.14-.55c-.36 0-2 .06-2.29.06a7.21 7.21 0 00-.68-2.16c.55 0 3.7.06 3.93.06a43.11 43.11 0 006.72-.56 17.25 17.25 0 003.34-.84l1.49 1.8c.17.21.23.3.23.46s-.13.19-.25.19a2.58 2.58 0 01-.76-.27 16.83 16.83 0 01-1.82.42l2.35.82c.14.06.19.13.19.21s-.24.23-.61.31a15.44 15.44 0 01-1.14 1.66h4.33v2.06H109a19.9 19.9 0 006.74 3.91 5.83 5.83 0 00-1.61 2 22.47 22.47 0 01-2-1zm-2.25-8.35a16.4 16.4 0 01-3.08-2.71v2.25h-2.48v-2.15a24.36 24.36 0 01-3.13 2.61zm-5.56 3v-1h-2.77v1zm0 2.69v-1h-2.77v1zm0-13.55c-.61 0-1.83.11-2.58.13a11.34 11.34 0 011.19 1.74l-1.15.44h2.54zm4 1.77a9.36 9.36 0 001.45-2.38 27.32 27.32 0 01-3 .4v2.52h3.06zm1.3 9.09v-1h-2.83v1zm-2.83 1.64v1h2.83v-1zm26.67-3.96a20.06 20.06 0 01-1.4 6.09c-.67 1.22-1.62 1.72-4.31 1.72h-1.07a6 6 0 00-.63-2.5 10.26 10.26 0 002.06.21c1.22 0 1.91-.17 2.31-3.34h-7.58a14.66 14.66 0 01-1 2 7.11 7.11 0 00-2.52-.78 25.26 25.26 0 002.33-4.83h-4.68v-2.08h19.21v2.08h-11.87c-.4 1-.44 1.15-.57 1.47zm-.14-11v6.11h-13.48v-6.11zm-10.9 2.08v1.89h8.29v-1.89z"/><path class="cls-3" d="M180.6 123.16h-4.8v-17h-5.38v-3.52c2.69-.13 5.25-.45 6.37-4.67h3.81z"/><path class="cls-4" d="M529 86a4.05 4.05 0 014 4v40a4.05 4.05 0 01-4 4H248a4.05 4.05 0 01-4-4V90a4.05 4.05 0 014-4h281m0-6H248a10 10 0 00-10 10v40a10 10 0 0010 10h281a10 10 0 0010-10V90a10 10 0 00-10-10z"/><rect class="cls-4" x="308" y="80" width="231" height="60" rx="10"/><path class="cls-2" d="M326.12 111.22c.17.1.27.21.27.33s-.27.23-.54.21a26.51 26.51 0 01-4.35 5.48 15.2 15.2 0 00-2.41-1.78 16 16 0 004.6-5.67zm1.32-9.91l2.8.1c.27 0 .46.06.46.25s-.17.23-.36.32v3.82h7.06v2.56h-7.06v7.94c0 1.45 0 3.17-3.38 3.17-.38 0-1 0-1.43-.09a8 8 0 00-.9-2.81 15.07 15.07 0 001.91.19c.9 0 .9-.32.9-1.64v-6.76h-7.07v-2.56h7.07zm6.56 8.35a28.56 28.56 0 014.32 5.38c-.71.54-1.72 1.49-2.16 1.91a28.56 28.56 0 00-4.26-5.63zm25.07-.66v3H341v-3zm9.51-6.52c.21 0 .49 0 .49.27s-.21.34-.38.4v5.15c0 5.33-2.37 7.72-5.23 10a9.17 9.17 0 00-2.37-2c4-2.54 4.55-4.92 4.55-7.81v-6.16zm5.21-.19c.23 0 .4 0 .4.23s-.21.3-.4.4v11a22 22 0 006-5.85 7.94 7.94 0 001.4 2.6 31.36 31.36 0 01-6 5.9c-1.75 1.26-1.93 1.41-2.48 1.87l-1.93-1.26c0-.57.08-1.09.08-1.66v-13.37zm27.05 1.89v13.57c0 1 0 2.35-2.84 2.35h-1.55a5.79 5.79 0 00-.95-2.82 13 13 0 001.92.23c.33 0 .77 0 .77-.88v-2.73a6.8 6.8 0 00-1.61 1.81 9.61 9.61 0 01-4.5-4.89 13.74 13.74 0 01-4.7 5.35 5.91 5.91 0 00-1.53-2v5.84h-2.67v-15.83h7.47v-3.4l2.8.15c.1 0 .46 0 .46.27s-.23.34-.55.42v2.56zm-15 9.7a8.6 8.6 0 004.74-7.2h-4.74zm7.51-7.2a7 7 0 001.26 3.88 10.38 10.38 0 003.57 3v-6.93zm28.93-2.35c-5.25 0-9.91 4.28-9.91 8.13 0 2.45 1.72 4.05 6.17 4.38a15.58 15.58 0 00-1.32 3.17c-3.19-.71-7.67-2.54-7.67-7.3 0-2.82 1.6-5.23 4.41-7.39a88.61 88.61 0 00-9.57 1.32l-.4-3.38a13.12 13.12 0 001.37.06 82 82 0 0016.37-2zm-3.51 3.38a28.51 28.51 0 011.83 2.29 15.4 15.4 0 00-1.41 1.22 18.28 18.28 0 00-1.78-2.34zm2-1.55a14.29 14.29 0 011.91 2.22 11.11 11.11 0 00-1.37 1.2 16.89 16.89 0 00-1.84-2.37zm13.44 10.66c5-.94 6.23-4.64 6.23-6.84a5.34 5.34 0 00-5.35-5.48c-.71 7.83-3.74 13.46-5.9 13.46-1.62 0-4.45-2.65-4.45-6.41a10.09 10.09 0 0110-9.61c4.48 0 8.49 3 8.49 8a9.26 9.26 0 01-2.48 6.36 11.45 11.45 0 01-4.72 3 13.71 13.71 0 00-1.82-2.48zm-6.8-5.46c0 1.79.94 3.2 1.59 3.2s1.2-1.43 1.53-2.27a19.91 19.91 0 001.58-7.29 7.29 7.29 0 00-4.7 6.36zm22.84-2.36v5.86c.15 1.59.44 2.64 3.51 2.64 7.58 0 8.52 0 11.21-.48a5.31 5.31 0 00-.88 2.56h-9.76c-3 0-4.18-.46-5.21-1.93-.44.4-1.37 1.2-2.29 1.91a1.62 1.62 0 010 .3c0 .16-.06.33-.23.33s-.25-.15-.34-.29l-1.32-2.4a16.44 16.44 0 002.71-1.53v-4.64h-2.14V109zm-3.25-8.09a19.68 19.68 0 013.69 3.1c-.54.51-.86.87-1.82 1.89a27.34 27.34 0 00-3.43-3.19zm9.3 12.66h-2.14v3.19h-2.36v-10.9h3.49c-.94-.71-1.51-1.07-2-1.36l1.15-1.2h-2.56v-2h9.57l.93 1.1a28 28 0 01-3.95 3.5h4.77v8.8c0 1.57-.93 2.14-3.34 2.18a5.88 5.88 0 00-.72-2.2 10.18 10.18 0 001.12.08c.58 0 .58-.25.58-.5v-.65h-2.22v2.83h-2.35zm0-5.84h-2.14V109h2.14zm0 2.92h-2.14v1.22h2.14zm-1.3-7.35c.61.46 1.55 1.13 1.87 1.37a13.77 13.77 0 001.74-1.37zm3.63 5.65h2.22v-1.22h-2.22zm0 2.92h2.22v-1.22h-2.22zm14.87-10.23c.34 0 .48.07.48.3s-.29.31-.46.35a64.1 64.1 0 00-.61 9.43c0 3.61.34 5 2.29 5 3.57 0 6.74-4.26 7.6-6.11a13.92 13.92 0 002.12 2.35c-3.42 5.5-7.52 6.72-10 6.72-4.77 0-4.92-4.54-4.92-8.74 0-1.32.24-7.15.24-8.35 0-.86 0-1-.05-1.43zM503.55 120h-2.5v-.77H493v.77h-2.46v-7c-.67.42-1.32.78-2 1.14a6.84 6.84 0 00-1.78-2 21.16 21.16 0 006.53-4.07h-5.89v-2.06h4.31a11.13 11.13 0 00-1.18-1.61l1.14-.55c-.36 0-2 .06-2.29.06a7.21 7.21 0 00-.68-2.16c.55 0 3.7.06 3.93.06a43.11 43.11 0 006.72-.56 17.25 17.25 0 003.34-.84l1.49 1.8c.17.21.23.3.23.46s-.13.19-.25.19a2.58 2.58 0 01-.76-.27 16.83 16.83 0 01-1.82.42l2.35.82c.14.06.19.13.19.21s-.24.23-.61.31a15.44 15.44 0 01-1.14 1.66h4.33v2.06h-6.24a19.9 19.9 0 006.74 3.91 5.83 5.83 0 00-1.61 2 22.47 22.47 0 01-2-1zm-2.25-8.35a16.4 16.4 0 01-3.08-2.71v2.25h-2.48v-2.15a24.36 24.36 0 01-3.13 2.61zm-5.56 3v-1H493v1zm0 2.69v-1H493v1zm0-13.55c-.61 0-1.83.11-2.58.13a11.34 11.34 0 011.19 1.74l-1.15.44h2.54zm4 1.77a9.36 9.36 0 001.45-2.38 27.32 27.32 0 01-3 .4v2.52h3.06zm1.3 9.09v-1h-2.83v1zm-2.83 1.64v1h2.83v-1zm26.67-3.96a20.06 20.06 0 01-1.4 6.09c-.67 1.22-1.62 1.72-4.31 1.72h-1.07a6 6 0 00-.63-2.5 10.26 10.26 0 002.06.21c1.22 0 1.91-.17 2.31-3.34h-7.58a14.66 14.66 0 01-1 2 7.11 7.11 0 00-2.52-.78 25.26 25.26 0 002.33-4.83h-4.68v-2.08h19.21v2.08h-11.87c-.4 1-.44 1.15-.57 1.47zm-.14-11v6.11h-13.48v-6.11zm-10.9 2.08v1.89h8.29v-1.89z"/><path class="cls-3" d="M276.49 110.55c0 4.51-1.18 13.31-10.62 13.31s-10.62-8.76-10.62-13.31c0-4.35 1.09-13.31 10.62-13.31s10.62 8.76 10.62 13.31zm-16.31 0c0 1.38 0 9.28 5.69 9.28s5.67-7.9 5.67-9.28 0-9.28-5.67-9.28-5.69 7.78-5.69 9.28zm33.56 12.61h-4.8v-17h-5.37v-3.52c2.69-.13 5.25-.45 6.37-4.67h3.8z"/><path d="M228.64 112v4h-9.28v-4z" fill="#3c3c3c"/><path class="cls-3" d="M41.23 162.86l.83.86-9.23 9.28 9.23 9.23-.83.86-9.23-9.15-9.2 9.15-.86-.86 9.23-9.23-9.23-9.28.86-.86 9.2 9.23zM26.54 173a2 2 0 01-2 2 2 2 0 01-2-2 2 2 0 014 0zm7.44 7.6a2 2 0 01-2 2 2 2 0 01-.18-4h.18a2 2 0 012.02 1.97zm0-15.11a2 2 0 01-2 2 2 2 0 110-4 2 2 0 012.02 1.97zm7.43 7.51a2 2 0 11-2-2 2 2 0 012 2zM61 168.58a6 6 0 00-1.22-2.29 5.7 5.7 0 00-4.5-1.87c-4.21 0-6.86 3.22-6.86 8.4s2.68 8.42 6.86 8.42a5.91 5.91 0 004.86-2.18 5.78 5.78 0 001-2.6l2.16.52a8.43 8.43 0 01-1.4 3.09 8.08 8.08 0 01-6.74 3 8.27 8.27 0 01-6.08-2.29 12.51 12.51 0 01.16-16 8.17 8.17 0 016-2.21 7.69 7.69 0 017.88 5.43zm20.22 14.33a17.08 17.08 0 00-3-.19h-9.79c-1.56 0-2.14 0-3 .08V181a19 19 0 001.9-2.21l9.85-12.93c.26-.31.58-.67 1-1.11-.52 0-1.23.07-1.59.07h-7.12a19.12 19.12 0 00-3 .19v-2.19a19 19 0 003 .18h8.39c1.07 0 1.9 0 2.92-.07v1.79a18.44 18.44 0 00-1.88 2.21l-9.59 12.58c-.36.47-.7.86-1.25 1.49.89-.06 1.38-.06 2-.06h8.12a21.24 21.24 0 003-.18zm15.1-14.36h-2.57V166h2.57zM93.75 180v-2.57h2.57V180zm21.35 1a20 20 0 00-2.79.1v-2.05a13.21 13.21 0 002.84.18h12.37v-12.55h-11.83a22.53 22.53 0 00-3 .13v-2.08a14 14 0 003 .18h13.84a19.84 19.84 0 00-.06 2v13.29a19 19 0 00.13 2.37h-2.08V181zm23.66-3.94a78.44 78.44 0 0116.61 4.34l-.73 1.9a44 44 0 00-8.81-2.92 77.85 77.85 0 00-7.83-1.58zm2-7.31a84 84 0 0112.82 3l-.67 1.87a61.2 61.2 0 00-12.9-3.17zm.47-7.1a81.59 81.59 0 0113.11 2.86l-.68 1.9a66.85 66.85 0 00-13.18-3zm38.09 18.7a10.73 10.73 0 002.34-.16v1.9a13.78 13.78 0 00-2.37-.13h-12.74a13.45 13.45 0 00-2.37.13v-1.9a10.9 10.9 0 002.34.16h7.91c.6-2.79 1.19-6.61 1.43-8.95h-6.94a10.94 10.94 0 00-2.29.11v-1.88a12.9 12.9 0 002.31.16h7a2.7 2.7 0 001.22-.18l.86.75a4.9 4.9 0 00-.42 1.82c-.59 4.14-.8 5.44-1.35 8.17zm9.33-3.35a18.49 18.49 0 003 .16h14.74a18.36 18.36 0 003-.16v2.19a22.1 22.1 0 00-3-.13h-14.75a22.36 22.36 0 00-3 .13zm2.63-12.35a16.05 16.05 0 002.78.16H204a16.12 16.12 0 002.78-.16v2.11a25.39 25.39 0 00-2.75-.1H194a25.39 25.39 0 00-2.75.1zm35.15 5.95a24.15 24.15 0 01-.29 2.75 10.23 10.23 0 01-3.51 6.87 15.44 15.44 0 01-4.57 2.57 4.6 4.6 0 00-1.23-1.69c3.41-1.09 5.52-2.76 6.58-5.12a14.82 14.82 0 001-5.38h-7a22.54 22.54 0 00-3 .13v-1.93a18.58 18.58 0 003 .16h15.21a18.72 18.72 0 003-.16v1.93a22.71 22.71 0 00-3-.13zm-9.43-8.25a14 14 0 003 .19h10.12a14 14 0 003-.19v2a21.63 21.63 0 00-3-.13H220a21.63 21.63 0 00-3 .13zm41.56 4.65a3.35 3.35 0 00-.62.59 42.25 42.25 0 01-5.23 4.58v8.79a14.41 14.41 0 00.13 2.29h-2a16.49 16.49 0 00.1-2.27v-7.72a30.5 30.5 0 01-8 3.59 4.79 4.79 0 00-.91-1.56 25.33 25.33 0 006-2.29 28.48 28.48 0 007.44-5.41 8.25 8.25 0 001.45-1.69zm11.08-3.92a31.48 31.48 0 013.48 8l-1.92.81a29 29 0 00-3.41-8.06zm15.7 2.55a8.17 8.17 0 00-.46 1.53 32 32 0 01-1.64 4.58 21.93 21.93 0 01-10.95 11.18 4.47 4.47 0 00-1.38-1.59 19.25 19.25 0 006.84-4.7 20.3 20.3 0 004.37-7.31 13.17 13.17 0 001-4.26zm-1.66-5.38a20.19 20.19 0 012.44 3.77l-1.4.6a17.74 17.74 0 00-2.42-3.77zm2.65-1.12a20.49 20.49 0 012.47 3.77l-1.4.6a18.15 18.15 0 00-2.45-3.77zm5.98 11.7a18.38 18.38 0 003.23.16h15.1a21.11 21.11 0 003.15-.13V174a29.46 29.46 0 00-3.17-.1h-15.08a28.35 28.35 0 00-3.23.1zm27.41 8.79a22.9 22.9 0 007.56-2 19.67 19.67 0 0010.61-11.57 5.23 5.23 0 001.59 1.53 22.8 22.8 0 01-7.93 9.93 26.29 26.29 0 01-9.7 3.88 12.27 12.27 0 00-1.56.41zm1.66-16.12a34.16 34.16 0 016.27 4.89l-1.36 1.61a28.69 28.69 0 00-6.18-5.1zM41.23 200.86l.83.86-9.23 9.28 9.23 9.23-.83.86-9.23-9.15-9.2 9.15-.86-.86 9.23-9.23-9.23-9.28.86-.86 9.2 9.23zM26.54 211a2 2 0 01-2 2 2 2 0 01-2-2 2 2 0 014 0zm7.44 7.6a2 2 0 01-2 2 2 2 0 01-.18-4h.18a2 2 0 012.02 1.97zm0-15.11a2 2 0 01-2 2 2 2 0 110-4 2 2 0 012.02 1.97zm7.43 7.51a2 2 0 11-2-2 2 2 0 012 2zm19.09 6.89a22.22 22.22 0 002.44 2.83h-3a15.25 15.25 0 00-1.53-2.23l-6.14-7.91-3 3v4.24a15 15 0 00.21 2.91H47a15.14 15.14 0 00.21-2.91v-13.94A16.21 16.21 0 0047 201h2.42a14.8 14.8 0 00-.21 2.92v7.2l7.91-8a9.81 9.81 0 001.79-2.12H62l-.68.65c-.41.42-.8.78-1.14 1.15l-.86.88-5.62 5.59zm17.16-11.34h-2.58V204h2.58zM75.08 218v-2.57h2.58V218zm24.83-15.53a8.89 8.89 0 00-.57-2.21l2-.34a13.62 13.62 0 00.29 2.21l.52 2.86 5.88-.91a11.71 11.71 0 002.28-.52l.37 1.88c-.7.07-.7.07-2.32.33l-5.9.91 1 5.26 6.45-1a16.54 16.54 0 002.57-.6l.37 1.92a20.28 20.28 0 00-2 .26l-.6.11-6.53 1 1.07 5.74a13.7 13.7 0 00.57 2.47l-2.08.39a21.82 21.82 0 00-.31-2.49l-.97-5.83-7 1.09a13.41 13.41 0 00-2.49.52l-.34-2a13.72 13.72 0 002.57-.23l6.92-1.12-.94-5.25-5.35.83a22.2 22.2 0 00-2.6.57l-.37-2a20.5 20.5 0 002.71-.26l5.3-.83zm21.97 4.14a28.75 28.75 0 012.58 5.77l-1.77.6a21.49 21.49 0 00-2.45-5.83zm14.67-.16a15 15 0 00-.58 2.11 23.33 23.33 0 01-2.28 5.82 18.88 18.88 0 01-8.61 7.51 5.13 5.13 0 00-1.2-1.45c4-1.8 6.45-3.8 8.25-6.79a20 20 0 002.21-5.59 10.85 10.85 0 00.28-1.77V206zm-9.36-.88a26.66 26.66 0 012.52 5.59l-1.72.59a22.87 22.87 0 00-2.39-5.69zm35.93 15.73a50.55 50.55 0 00-8.32-8 27.34 27.34 0 01-5 4.66 34.21 34.21 0 01-5.09 3.14 5.26 5.26 0 00-1.28-1.71 21.28 21.28 0 005.28-3A28 28 0 00158 204.6c0-.15.08-.18.13-.31a.49.49 0 00.08-.18 3.77 3.77 0 01-.62 0l-8.69.13a17 17 0 00-2.68.2l-.05-2.1a9.9 9.9 0 002.06.15h.67l9.28-.13a4.46 4.46 0 001.67-.2l1.09 1.14a4.39 4.39 0 00-.73 1.25 31.52 31.52 0 01-4.29 7.3 65.83 65.83 0 018.66 7.78zm-1.38-21.82a19.62 19.62 0 012.47 3.56l-1.38.68a17.75 17.75 0 00-2.47-3.67zm2.65-1.12a19.37 19.37 0 012.47 3.57l-1.38.67A16.45 16.45 0 00163 199zm6.61 8.87a18.62 18.62 0 003 .16h13.34a4.27 4.27 0 001.69-.19l1 1.12a8.55 8.55 0 00-.73 1.64c-2.21 6.06-5.79 9.39-12.53 11.65a5.55 5.55 0 00-1.12-1.8 17.7 17.7 0 007.73-3.95 16.09 16.09 0 004.21-6.81H174a24.73 24.73 0 00-3 .13zm2.24-6a12.28 12.28 0 002.73.18h8.68a12.28 12.28 0 002.73-.18v2a17.84 17.84 0 00-2.7-.13h-8.74a17.75 17.75 0 00-2.7.13zm42.29.28a6.24 6.24 0 00-1.14 1.09 45.83 45.83 0 01-6.08 5.23v11.07a16.55 16.55 0 00.13 2.76h-2.27a13.45 13.45 0 00.16-2.7v-9.88a40.94 40.94 0 01-10 4.55 5.86 5.86 0 00-1-1.75 36.51 36.51 0 0013.49-6.73 21.86 21.86 0 005-4.91zm26.24 2.05c-.18.29-.18.29-.55 1.62-1.38 5-3.35 8.39-6.52 11.28a24 24 0 01-8.17 4.89 4.92 4.92 0 00-1.27-1.82 19.27 19.27 0 005.87-2.76c4.27-2.83 6.71-6.55 8.19-12.37h-13.23a18.14 18.14 0 00-2.91.15v-2.1a16.21 16.21 0 002.94.18h12.79a3.49 3.49 0 001.66-.21zm9.23-1.48a31.85 31.85 0 013.49 8l-1.93.81a29 29 0 00-3.4-8.06zm15.71 2.55a7.51 7.51 0 00-.47 1.53 32 32 0 01-1.64 4.58 21.93 21.93 0 01-10.95 11.18 4.45 4.45 0 00-1.37-1.59 19.3 19.3 0 006.83-4.7 20.16 20.16 0 004.37-7.31 13.5 13.5 0 001-4.26zm-1.71-5.38a20.22 20.22 0 012.45 3.77l-1.41.6a17.36 17.36 0 00-2.42-3.77zm2.65-1.12a20 20 0 012.47 3.77l-1.4.6a18.09 18.09 0 00-2.44-3.77zm5.99 11.7a18.38 18.38 0 003.23.16H292a21.11 21.11 0 003.15-.13V212a29.46 29.46 0 00-3.17-.1h-15.11a28.35 28.35 0 00-3.23.1zm27.41 8.79a22.77 22.77 0 007.56-2 19.64 19.64 0 0010.61-11.57 5.23 5.23 0 001.59 1.53 22.8 22.8 0 01-7.93 9.93 26.29 26.29 0 01-9.7 3.88 12.27 12.27 0 00-1.56.41zm1.66-16.12a33.83 33.83 0 016.27 4.89l-1.35 1.61a29 29 0 00-6.19-5.1z"/></g></g></svg>