<svg xmlns="http://www.w3.org/2000/svg" width="22" height="22" viewBox="0 0 22 22"><g transform="translate(-183 123)"><rect width="22" height="22" transform="translate(183 -123)" fill="none"/><path d="M380.214,527.321H368.538a1,1,0,0,1-.984-1.014v-8.416h-3a.745.745,0,0,1-.73-.448.785.785,0,0,1,.209-.848l9.372-9.651a.966.966,0,0,1,1.392,0L384.82,517.26a.591.591,0,0,1,0,.819.551.551,0,0,1-.8,0l-9.919-10.214-8.611,8.867h2.2a1,1,0,0,1,.984,1.014v8.416h11.394v-8.413a.563.563,0,1,1,1.125,0v8.558A1,1,0,0,1,380.214,527.321Z" transform="translate(-180.406 -628.902)"/></g></svg>