<svg id="レイヤー_1" data-name="レイヤー 1" xmlns="http://www.w3.org/2000/svg" viewBox="0 0 273.52 128.91"><defs><style>.cls-1{fill:#231815;}</style></defs><title>tgs2019_logo</title><path class="cls-1" d="M17.54,6.52V31.05H10.42V6.52H0V.08H28V6.52Z"/><path class="cls-1" d="M81.37.08h8.88l-13,15,13.6,16h-9L69.11,15.33V31.05h-7V.08h7v14.7Z"/><path class="cls-1" d="M98.93.08l6.95,12.5,7-12.5h8.21L109.42,19v12.1h-7.08V19L90.67.08Z"/><path class="cls-1" d="M30.58,0V31.14h29V0ZM53,24.34H37.21V6.8H53Z"/><path class="cls-1" d="M121.78,0V31.14h29V0Zm22.39,24.34H128.41V6.8h15.76Z"/><path class="cls-1" d="M62.73,78.76H54.79l-2.32-6.45H40.17l-2.32,6.45H29.91l11.79-31h9.2ZM46.3,54.63,42.06,66.22h8.49Z"/><path class="cls-1" d="M74,47.79l6.8,22.36,6.8-22.36H97.85v31H91.17V63.86c0-1,.2-7.58.24-8.72L84.1,78.76H77.49L70.18,55.14c0,1,.24,7.74.24,8.72v14.9H63.74v-31Z"/><path class="cls-1" d="M125.11,47.79v6.45H107.27V60H124.4v6.17H107.27v6.17h18.27v6.45H100.19v-31Z"/><path class="cls-1" d="M180.79,47.79V59.58h15.09V47.79H203v31h-7.08V66H180.79V78.76h-7v-31Z"/><path class="cls-1" d="M243,47.79l3.46,23.94,3.46-23.94h9.36l3.45,23.94,3.46-23.94h7.35l-6,31H258l-3.46-23.62-3.46,23.62h-9.47l-6-31Z"/><path class="cls-1" d="M205.65,47.71V78.85h29V47.71ZM228,72.05H212.29V54.52H228Z"/><polygon class="cls-1" points="29.03 58.56 29.03 47.71 0.01 47.71 0.01 78.85 29.03 78.85 29.03 68.03 29.03 61.3 22.4 61.3 14.47 61.3 14.47 68.03 22.4 68.03 22.4 72.05 6.64 72.05 6.64 54.52 22.4 54.52 22.4 58.56 29.03 58.56"/><polygon class="cls-1" points="170.98 53.9 170.98 47.49 145.65 47.49 145.65 50.43 145.65 53.9 145.65 59.89 145.65 64.33 145.65 66.3 164.57 66.3 164.57 72.29 145.65 72.29 145.65 78.7 164.57 78.7 170.98 78.7 170.98 72.29 170.98 66.3 170.98 64.8 170.98 59.89 152.06 59.89 152.06 53.9 170.98 53.9"/><path class="cls-1" d="M10.35,118.24c-2,.24-3.31.59-3.31,2.92v1H27.85v6.45H0v-6.18c0-3,0-9.44,7.67-10.34l10.07-1.18c2.28-.28,3.35-.67,3.35-3.31s-.87-3.85-6.69-3.85c-6.57,0-6.81.82-6.89,4.68H.59c0-6.61.35-11.13,13.26-11.13,8.18,0,14.24.55,14.24,9.91,0,4-1,6.06-2.4,7.28a10,10,0,0,1-5.78,2.59Z"/><path class="cls-1" d="M45.16,97.28c12.59,0,14.32,2.91,14.32,16.09,0,12.66-2.36,15.54-13.45,15.54-11.88,0-14.72-1.42-14.72-15.82C31.31,100.35,33.56,97.28,45.16,97.28ZM38.4,113.21c0,9.2.47,9.28,7.43,9.28,5.9,0,6.57-.47,6.57-8.53,0-1.69-.08-6.89-.59-8.23-.67-1.84-2.87-2-6.41-2C38.87,103.73,38.4,103.93,38.4,113.21Z"/><path class="cls-1" d="M75.49,97.59v31H68.37V104H62V97.59Z"/><path class="cls-1" d="M87.57,119.5c-.12,1.93.51,3.11,5.35,3.11,5.94,0,7.47-.63,7.51-7.28-1.14,1-2.44,2.25-8.65,2.25-5.78,0-11.61-1-11.61-10,0-10.34,6.45-10.34,13.26-10.34,12,0,14,2.36,14,14.79,0,13.3-1.18,16.84-14.24,16.84-7.86,0-12.66-1.3-12.62-9.41Zm12.82-12.23c0-3.54-2-3.7-7.24-3.7-5.07,0-6,.67-6,3.9s1.53,4,6.53,4C99.33,111.44,100.39,110.61,100.39,107.27Z"/></svg>