<svg xmlns="http://www.w3.org/2000/svg" width="630" height="137" viewBox="0 0 630 137"><defs><style>.cls-1{fill:#ffa000;}.cls-2{fill:#fff;}</style></defs><g id="レイヤー_2" data-name="レイヤー 2"><g id="レイヤー_2-2" data-name="レイヤー 2"><rect class="cls-1" width="630" height="137" rx="5"/><path class="cls-2" d="M597.13,58.71c-.86-1.49-2.27-1.49-3.13,0L582.69,78.29c-.85,1.49-.15,2.71,1.57,2.71h22.62c1.71,0,2.42-1.22,1.56-2.71Z"/><path class="cls-1" d="M594.56,72l-.29-4.38c-.06-.86-.09-1.47-.09-1.84a1.69,1.69,0,0,1,.4-1.19,1.4,1.4,0,0,1,1-.43,1,1,0,0,1,1,.55,3.63,3.63,0,0,1,.27,1.57,10.38,10.38,0,0,1-.07,1.23L596.49,72a3.53,3.53,0,0,1-.27,1.24.74.74,0,0,1-.7.43.7.7,0,0,1-.69-.42A4.28,4.28,0,0,1,594.56,72Zm1,6a1.46,1.46,0,0,1-1-.37,1.25,1.25,0,0,1-.42-1,1.37,1.37,0,0,1,1.38-1.36,1.34,1.34,0,0,1,1,.4,1.39,1.39,0,0,1,0,2A1.44,1.44,0,0,1,595.58,78Z"/><path class="cls-2" d="M36,58.71c-.86-1.49-2.27-1.49-3.13,0L21.56,78.29C20.7,79.78,21.41,81,23.12,81H45.74c1.72,0,2.42-1.22,1.57-2.71Z"/><path class="cls-1" d="M33.43,72l-.3-4.38c-.05-.86-.08-1.47-.08-1.84a1.65,1.65,0,0,1,.4-1.19,1.39,1.39,0,0,1,1-.43,1.07,1.07,0,0,1,1,.55,3.63,3.63,0,0,1,.27,1.57c0,.4,0,.81-.07,1.23L35.36,72a3.5,3.5,0,0,1-.28,1.24.72.72,0,0,1-.69.43.7.7,0,0,1-.69-.42A4,4,0,0,1,33.43,72Zm1,6a1.45,1.45,0,0,1-1-.37,1.25,1.25,0,0,1-.42-1,1.28,1.28,0,0,1,.4-1,1.31,1.31,0,0,1,1-.4,1.34,1.34,0,0,1,1,.4,1.28,1.28,0,0,1,.41,1,1.26,1.26,0,0,1-.42,1A1.41,1.41,0,0,1,34.44,78Z"/><path class="cls-2" d="M135.29,41.54h-4.12v-6a27.49,27.49,0,0,1-8.12,5.95,9.15,9.15,0,0,0-3.63-3A21.67,21.67,0,0,0,128,33.09h-5.22v-11h8.35V20.88H120.06V17.4h11.11V14.82l4.47.23c.29,0,.58.09.58.38s-.35.46-.93.61V17.4h11.08v3.48H135.29v1.19h8.44v11H138.6A24.67,24.67,0,0,0,146.84,38a9,9,0,0,0-3.17,3.3,28.61,28.61,0,0,1-8.38-5.77Zm-4.12-16.68h-4.06v1.33h4.06Zm0,3.83h-4.06v1.36h4.06Zm4.12-2.5h4.15V24.86h-4.15Zm0,3.86h4.15V28.69h-4.15Z"/><path class="cls-2" d="M160.11,14.82l4.44.2c.2,0,.52,0,.52.29s-.29.38-.69.53v1.33h11v3.71H149.06V17.17h11.05ZM159,33.67c.18.09.29.18.29.35s-.4.32-.75.32A24.9,24.9,0,0,1,152.83,41a12.73,12.73,0,0,0-3.77-2.44,22.59,22.59,0,0,0,6-7.05Zm5.4,4.62c0,2.38-.52,3.45-5.86,3.22a15,15,0,0,0-1.6-4.3c.53.06,1.66.18,2.24.18.92,0,1-.44,1-.84V31.09H152.2v-9h20v9h-7.8Zm-7.89-12.71v2.06H168V25.58Zm12.5,6a24.74,24.74,0,0,1,5.66,6.49,42,42,0,0,0-3.74,2.82,29.15,29.15,0,0,0-5.4-7.08Z"/><path class="cls-2" d="M190.13,15.58c.38.05.61.11.61.37s-.32.41-.49.47c-.09.87-.15,1.88-.21,3.07A20.77,20.77,0,0,0,194.6,18c0,1.07-.06,2.41-.06,3.08a11.91,11.91,0,0,0,.06,1.56A21.74,21.74,0,0,1,189.84,24c0,.32-.06,1.71-.06,2a14.64,14.64,0,0,1,4.93-.87,7.69,7.69,0,0,1,8,7.86c0,5.4-4,7.22-6.88,7.22-4.38,0-4.52-3.88-4.55-5.1.61-.21,3.22-1.08,3.6-1.22,0,.58,0,1.94,1.36,1.94,1.1,0,1.83-1.1,1.83-2.55a3.65,3.65,0,0,0-3.86-3.83,13.55,13.55,0,0,0-4.5,1c.12,5.8.15,6.46.38,8.73l-4,1.8a39.45,39.45,0,0,0-5.08-4.15c-.73.78-1.07,1.19-1.48,1.68l-2.09-5c1.34-.72,6.61-4.73,7.78-5.45,0-1,0-1.25,0-3.48-1.72.08-3.75.11-5.4.11V20.07a11.9,11.9,0,0,0,2.29.18c1.13,0,2.76-.12,3.11-.12,0-2.18,0-2.5-.12-5.4Zm-6.5,18.7a3.07,3.07,0,0,0,1.31.76c.43,0,.4-1,.37-2.12C185,33.21,184.36,33.65,183.63,34.28Zm15.14-15.43a24.94,24.94,0,0,1,6.33,4.64A21,21,0,0,0,202.28,27a16.81,16.81,0,0,0-6.15-4.55Z"/><path class="cls-2" d="M223.07,16.18c.32.12.5.21.5.47s-.5.49-.84.52c-.32.49-.67,1.07-1.72,3,1.54.14,3,.2,3.63.2s1,0,1.42-.06a20.91,20.91,0,0,0-1.27,4.58,35.38,35.38,0,0,1-5.49-.26c-.34.79-.75,1.83-1,2.56a46,46,0,0,0,6.44.43c-.55,1.57-1,3.39-1.25,4.29-1.77-.11-3.77-.29-6.5-.69a9.78,9.78,0,0,0-.32,2.35c0,3.54,3.28,3.54,4.7,3.54,1.25,0,5.63,0,5.63-4.21a11,11,0,0,0-1.48-4.53,13.76,13.76,0,0,0,4.38-1.56,15.14,15.14,0,0,1,2,6.58c0,6.38-6.73,7.86-10.53,7.86-5.83,0-9.05-3-9.05-7.28a14,14,0,0,1,.44-3.51A24.24,24.24,0,0,1,209,29.44l1-4.29a27.22,27.22,0,0,0,3.92,1.24c.12-.37.32-1,.87-2.58a24.12,24.12,0,0,1-4.32-1.45l.87-4.49a37.83,37.83,0,0,0,5.13,1.59c.29-.78,1.68-4.32,2-5.05Z"/><path class="cls-2" d="M250,15.78c.23.06.55.17.55.46s-.15.38-.64.41c-.64,2-.7,2.17-.84,2.61A44,44,0,0,0,258.49,17c.14,1,.52,3.16.81,4.32a50.14,50.14,0,0,1-11.87,2.46c-.69,1.92-.93,2.5-1.51,3.92a17.2,17.2,0,0,1,7.55-2c7.74,0,8.15,5.45,8.15,6.9a7.15,7.15,0,0,1-3.11,5.86c-1.53,1-4.43,2.79-12.47,2.79a25.81,25.81,0,0,1-2.7-.15,20.37,20.37,0,0,0-1.07-4.32,41.78,41.78,0,0,0,4.32.26c.67,0,5.63,0,8.62-1.77a3,3,0,0,0,1.56-2.73c0-1.68-.87-3.1-3.54-3.1a14.89,14.89,0,0,0-10,4.84L239,32.2A40.61,40.61,0,0,0,242.88,24c-2.52,0-4.53-.08-5.63-.17l-.06-4.76a26.44,26.44,0,0,0,7,.64,39.09,39.09,0,0,0,1.11-5.13Z"/><path class="cls-2" d="M277.94,19.61c.35.4,1.8,2.2,2.09,2.55a12.57,12.57,0,0,1,3.19-.49A5.51,5.51,0,0,1,289,27.32c0,5.43-5.89,5.92-8.84,6.15a20.84,20.84,0,0,0-1.34-3.89c.49,0,.84,0,1.34,0,1,0,4.7,0,4.7-2.55,0-.49-.15-1.62-1.86-1.62-.26,0-.49,0-.64,0,.52.84.81,1.39,1.07,1.82-1.07.44-2.75,1.13-3.8,1.6a17,17,0,0,0-1.07-2.23c-1.07.49-1.71.84-2.12,1.07a56.66,56.66,0,0,1,4.06,11.2,38.17,38.17,0,0,0-4.12,2A49.46,49.46,0,0,0,273,29.79c-.84.61-1.07.81-3.28,2.7l-2.61-4.09a38.27,38.27,0,0,0,4.12-2.06,21.42,21.42,0,0,0-2.61-3.8l3.95-1.63a1.69,1.69,0,0,1,.61-.17.3.3,0,0,1,.34.32.81.81,0,0,1-.26.46c.44.78,1.13,2.09,1.57,2.87l1.65-.81c-.46-.64-.61-.84-1.83-2.38Z"/><path class="cls-2" d="M298.3,21.06a29.5,29.5,0,0,1,6.78,4,28.55,28.55,0,0,0-2.81,3.86,24.77,24.77,0,0,0-6.58-3.95Zm-.93,15.6a42.36,42.36,0,0,0,20.42-15.37,15.44,15.44,0,0,0,3,3.92c-3.66,5.45-12.24,12.58-20,15.46,0,.17-.06.66-.49.66-.2,0-.38-.29-.44-.37Zm3.86-22A44.5,44.5,0,0,1,308.51,18c-.61.7-2.35,3.16-2.76,3.77a30,30,0,0,0-7.05-3.65Z"/><path class="cls-2" d="M327.24,39.22V35.5h13v-3H328v-3.8h12.22V26H327.62v-3.8h16.65V40.09h-4.06v-.87Z"/><path class="cls-2" d="M377.85,25.81v4.94H352.64V25.81Z"/><path class="cls-2" d="M407.81,39.27h-19.5c.38-5.07,3.22-7.16,9.37-11.34,4.67-3.19,4.67-3.86,4.67-5.07,0-2.18-2.32-2.73-3.83-2.73-3.91,0-4.32,2.78-4.44,4.67h-5.36c.09-1.83.17-3.83,1.8-5.77,1.94-2.35,4.75-3.25,8-3.25,6.64,0,9.05,3.65,9.05,7a6.88,6.88,0,0,1-1.27,4c-1.48,2.06-7.34,5.8-7.63,6a15.24,15.24,0,0,0-3,2.23h12.07Z"/><path class="cls-2" d="M429.67,28.22c0,2.79-.67,11.69-9.66,11.69a8.79,8.79,0,0,1-7.66-3.74c-1.5-2.21-2-6.18-2-8.7,0-2.79.67-11.69,9.69-11.69C428.48,15.78,429.67,23.49,429.67,28.22Zm-13.95-.38c0,1,0,7.69,4.29,7.69s4.27-6.7,4.27-7.69,0-7.68-4.27-7.68S415.72,26.8,415.72,27.84Z"/><path class="cls-2" d="M451.83,39.27h-19.5c.38-5.07,3.22-7.16,9.37-11.34,4.67-3.19,4.67-3.86,4.67-5.07,0-2.18-2.32-2.73-3.83-2.73-3.91,0-4.32,2.78-4.43,4.67h-5.37c.09-1.83.17-3.83,1.8-5.77,1.94-2.35,4.76-3.25,8-3.25,6.65,0,9.05,3.65,9.05,7a6.88,6.88,0,0,1-1.27,4c-1.48,2.06-7.34,5.8-7.63,6a15.24,15.24,0,0,0-3,2.23h12.07Z"/><path class="cls-2" d="M473.84,39.27h-19.5c.38-5.07,3.22-7.16,9.37-11.34,4.67-3.19,4.67-3.86,4.67-5.07,0-2.18-2.32-2.73-3.82-2.73-3.92,0-4.33,2.78-4.44,4.67h-5.37c.09-1.83.17-3.83,1.8-5.77,1.94-2.35,4.76-3.25,8-3.25,6.65,0,9.05,3.65,9.05,7a6.88,6.88,0,0,1-1.27,4c-1.48,2.06-7.34,5.8-7.63,6a15.24,15.24,0,0,0-3,2.23h12.07Z"/><path class="cls-2" d="M491,17.14c.24.09.38.2.38.41s-.55.4-.81.43a40.08,40.08,0,0,0-1.74,11.17,20.15,20.15,0,0,0,.2,2.9c.38-.55,1-1.48,1.36-2.06a12.22,12.22,0,0,0,2.09,2.87A13,13,0,0,0,490,40l-3.88.72A40.7,40.7,0,0,1,484.59,29a52.36,52.36,0,0,1,1.74-13.28Zm13.78-.64c.15,0,.38.06.38.32s-.41.44-.67.47a31.85,31.85,0,0,0-.29,3.48,26.15,26.15,0,0,0,4.29-1.08v4.38c-.66.18-2,.5-4.4.93a47.59,47.59,0,0,0,.46,6.67,16.36,16.36,0,0,1,5.51,3c-.46.84-1.33,2.73-2,4.09a10.29,10.29,0,0,0-3.1-2.2c-.12,3.71-3.83,4.14-5.66,4.14-4.35,0-6.53-2.37-6.53-5.07,0-3.45,3.42-4.76,7.2-4.67-.24-3.31-.27-3.69-.32-5.37-1.66.15-2.85.15-3.34.15a20.81,20.81,0,0,1-2.15-.09V21.09a31.18,31.18,0,0,0,5.46.2c0-1.22,0-3.77,0-5.66Zm-6,18c-.64,0-2,.2-2,1.1,0,.75.95,1.07,1.88,1.07.23,0,2,0,2-1.42a1,1,0,0,0-.05-.38A4.22,4.22,0,0,0,498.75,34.49Z"/><path class="cls-2" d="M139.79,69.51v2.73h-1.45v4.81H134v-.92h-5.33V78c0,1.48-.38,2.5-4.7,2.5-.58,0-1.16,0-1.54-.06a10.87,10.87,0,0,0-1.36-3.63,22.14,22.14,0,0,0,2.46.24c.85,0,.85-.29.85-.9h-9.06v-2.9h9.06v-1H113.36V69.51h11.06v-.93h-9.06V66h9.06v-.81h-7.37V59.33h7.37v-.81H113.36V55.47h11.06V53.88l4.49.17a.41.41,0,0,1,.44.38c0,.26-.18.32-.64.55v.49h11v3.05h-11v.81H136v5.89h-7.25V66h9.63v3.48Zm-15.37-6.73V61.65h-3.54v1.13Zm4.29-1.13v1.13h3.51V61.65ZM134,69.51v-.93h-5.33v.93Zm0,3.72v-1h-5.33v1Z"/><path class="cls-2" d="M157.1,57.79a21,21,0,0,0,2.49-4.09l4.35,1.11c.21.06.41.14.41.35s-.41.46-.84.4c-.76,1.19-1,1.68-1.45,2.23h6.64v3.63H142.25V57.79h6.38A13.86,13.86,0,0,0,147,55.33l3.91-1.77a18.76,18.76,0,0,1,2.35,3.63l-1.57.6Zm-9.31,16.36v6.27h-4.06v-18h11.54v15.2c0,2.38-1.25,2.72-5.07,2.84a8.39,8.39,0,0,0-1.48-4.12c.43,0,1.3.15,1.74.15s.87-.06.87-.93V74.15Zm3.54-7.36V65.51h-3.54v1.28Zm0,4.32V69.8h-3.54v1.31Zm9.89-8.27c.26,0,.43.09.43.29s-.17.32-.43.49V75.17H157V62.67Zm6.12-.61c.26,0,.52.06.52.32s-.32.38-.7.58V77a2.76,2.76,0,0,1-1.24,2.81c-1,.7-2.3.67-4.7.64a10.82,10.82,0,0,0-1-4.35c.49.06,1.57.2,2,.2.73,0,.73-.46.73-.81V62Z"/><path class="cls-2" d="M175.4,74V67.28a18.48,18.48,0,0,1-2.35,1.6,14.44,14.44,0,0,0-2.88-3.22,20.7,20.7,0,0,0,3.69-2.53,21.18,21.18,0,0,0-2.38-1.85l2.78-2.85a19.37,19.37,0,0,1,2.61,1.83,8.61,8.61,0,0,0,1.75-2.41h-5.37V54.4h10l1.3,1.39a22.85,22.85,0,0,1-2.78,4.93h5.94A18.94,18.94,0,0,1,184.3,55L188,53.62A18.21,18.21,0,0,0,189.23,56,14.28,14.28,0,0,0,191,53.82l3.05,1.92c.11,0,.32.2.32.34,0,.35-.5.38-.79.38-1,1.22-1.74,2.12-2.09,2.47.32.37.55.61.79.84a37,37,0,0,0,2.64-3.14l2.69,1.83c.24.18.53.35.53.55,0,.38-.44.41-.87.44a22.66,22.66,0,0,1-2.5,2.61,20,20,0,0,0,4.09,2.7,14.19,14.19,0,0,0-2.67,3.45,32.5,32.5,0,0,1-2.67-1.92V74h-2.08a.41.41,0,0,1,.31.4c0,.29-.29.47-.6.5a11.9,11.9,0,0,1-.61,1.59h7.1V80H171.3V76.53h7.4c-.11-.35-.55-1.48-.81-2.11l1.42-.38Zm4.32-10.76c-.76.81-1.05,1.13-2.35,2.35h15.31a26,26,0,0,1-3-2.73v1.51h-9.95Zm-.15,5.6v1.85h9.78V68.88ZM182.3,74c.26.64.46,1.13.81,2.2l-1,.29H186a20.47,20.47,0,0,0,.87-2.49Z"/><path class="cls-2" d="M210.43,64.44h-2.12V66h2.9v3.68h-2.9v3.94a16.75,16.75,0,0,0,1-3.45l3.3.67c.18,0,.44.09.44.38s-.44.4-.84.43c-.12.44-.18.58-.58,1.8a34.2,34.2,0,0,0,5.77-2.06V66.58h-2.06a28,28,0,0,1,2,3.72,26.5,26.5,0,0,0-3.13,2.06,24.22,24.22,0,0,0-2.09-4l3-1.83h-3.31V63.16H221V62h-7.34V58.9H221V57.79h-8.73V54.26h12.88v8.9h1.76v3.42h-3.45l3.22,1.57a.47.47,0,0,1,.32.41c0,.29-.2.34-.75.43a26.16,26.16,0,0,1-2.35,3.45,21.63,21.63,0,0,0,3.62,2.93,13.82,13.82,0,0,0-2.37,3.69,25.06,25.06,0,0,1-3.89-4v2.47c0,2.87-1.89,2.87-5.34,2.87a13,13,0,0,0-1.48-3.92,7.81,7.81,0,0,1-.78.35c0,.55-.09,1.05-.58,1.05a.48.48,0,0,1-.35-.32l-1-4.18a15.46,15.46,0,0,1-.61,1.48,11.39,11.39,0,0,0-2.73-.67v1.34c2.12-.41,2.73-.56,3.28-.7a11.81,11.81,0,0,0-.38,3.63c-3.68.81-6.67,1.3-9.48,1.71-.06.43-.15.81-.56.81-.26,0-.31-.23-.34-.44l-.67-4c1.19-.06,3.22-.29,4.29-.41V74.85a19.53,19.53,0,0,0-3,1,27.75,27.75,0,0,0-1.48-4.43l3.28-1A31.09,31.09,0,0,1,204.45,74V69.63h-3.8V66h3.8V64.44h-2.26V63.33a10.4,10.4,0,0,0-3.05-2.87A13.26,13.26,0,0,0,204.71,54l4.12.82c.32.06.44.14.44.32s-.32.49-.67.52a22.33,22.33,0,0,0,4.21,4,11.55,11.55,0,0,0-2.38,1.89ZM208.72,61a14.11,14.11,0,0,1-2.18-2.61c-.67.9-1.13,1.51-2.06,2.61Zm8.7,14c-.73.41-1.8,1-2.67,1.37.26,0,1.65.17,1.83.17.84,0,.84-.58.84-.93Zm3.8-6c.06.09.14.26.2.38A15.83,15.83,0,0,0,223,66.58h-1.74Z"/><path class="cls-2" d="M235.34,57.13v-3l3.83.15c.4,0,.66,0,.66.37s-.31.44-.66.55v2h5V61h-5V62.7h5.54v3.8h-5.54v1.19h5.25v8.44c0,1.91-.52,2.69-4.12,2.72a8,8,0,0,0-1.13-3.22v4.88h-3.83V71.57h-1.16v7.57h-4.06V67.69h5.22V66.5h-6.21V62.7h6.21V61h-2.9c-.21.4-.35.66-.61,1.1a14.13,14.13,0,0,0-3.51-1.25,17.19,17.19,0,0,0,2.23-6l3.69.52c.29,0,.46.17.46.41s-.38.49-.72.58l-.24.84ZM239.17,75a4.27,4.27,0,0,0,.78.08c.67,0,.67-.4.67-.93V71.57h-1.45Zm10.67-17.55c.44,0,.64.11.64.37s-.2.35-.64.58V74.33h-4.12V57.13Zm5.28-3.37c.2,0,.73.06.73.38s-.32.46-.73.7V76.74c0,.66,0,2.46-1.45,3.22-.84.43-1.28.46-4.41.63a8.85,8.85,0,0,0-1.62-4.09c.32,0,1.82.15,2.11.15,1.08,0,1.25-.23,1.25-1.07V53.91Z"/><path class="cls-2" d="M265.73,56.11c.55.21.78.29.78.5s-.58.31-.78.34a33.77,33.77,0,0,0-1.88,12,9.82,9.82,0,0,0,.2,2.32c.17-.32.87-1.59,1.22-2.17a8.66,8.66,0,0,0,2.23,2.38c-.72,1.36-2.06,4.72-1.91,6.93l-4.12,1.1a30.52,30.52,0,0,1-2.06-11.6,55.23,55.23,0,0,1,1.85-13.46Zm7.66,13.64a7.55,7.55,0,0,0-.44,2c0,1.28.7,1.48,4,1.48a29.37,29.37,0,0,0,7.16-.78,19.51,19.51,0,0,0-.44,4.73,61.4,61.4,0,0,1-7.33.38c-4.33,0-7.66-.76-7.66-4.3a10.72,10.72,0,0,1,1-4.26Zm-3.51-12.39c.87.06,2,.14,3.77.14a33.86,33.86,0,0,0,8.53-.92,44.18,44.18,0,0,0,.4,4.41,43.3,43.3,0,0,1-8.93.87c-1.71,0-2.84-.09-3.77-.15Z"/><path class="cls-2" d="M313.44,59c-8.3-.08-13.23,7.2-13.23,11,0,4.81,6.56,5.16,8.1,5.25a25,25,0,0,0-2.18,5.22c-5.08-1.19-10.67-3.89-10.67-10.13,0-5.33,4-8.67,5.13-9.6a100.65,100.65,0,0,0-12,1.71L288,57c.64,0,1.25.09,2.18.09,4.26,0,15.83-.81,22.42-2.87Z"/><path class="cls-2" d="M334.38,73.52v6.23h-3.69V73.52h-2.14a11,11,0,0,1-4.44,6.84,8.44,8.44,0,0,0-3.25-2.14V80.3h-4.15V54.49h12.16V64.58h-8V78.19c2-1.14,3.42-2.24,4-4.67h-3V70.3h3.37c0-.53,0-1.16,0-1.72H322.6v-3h14.07v3h-2.29V70.3h2.9v3.22ZM325,57.36h-4.12v1.07H325Zm0,3.28h-4.12v1.1H325Zm5.71,7.94h-1.8c0,.35,0,1.46-.05,1.72h1.85Zm6.21,11.84a10.12,10.12,0,0,0-1.54-4.24,8.48,8.48,0,0,0,1.68.24c.56,0,1.17,0,1.17-1V64.58h-8.07V54.49h12.21V77.05C342.35,79.75,340.7,80.45,336.9,80.42Zm1.31-23.06H334v1.07h4.18Zm0,3.28H334v1.1h4.18Z"/><path class="cls-2" d="M365.73,67.31v1.22h4.49v2.93h-4.49v1.21h4.49V75.6h-4.49v1.19h5.85V80H358.27v.46h-4.09V70.33l-.78.78A10.33,10.33,0,0,0,352,69.05V80.42h-4.24V66.5l-.78,1a7,7,0,0,0-3-3,30.93,30.93,0,0,0,6.09-11l4.06,1.37v-.47l4.12.15c.32,0,.44.17.44.4s-.24.44-.64.7v2.79h2.17V53.59l4.32.26c.29,0,.44.17.44.38,0,.37-.44.49-.7.55v3.6h2.44V54.49l4.29.26c.35,0,.52.12.52.32s-.34.49-.72.67v5.8h-6.7l2,1.1a.54.54,0,0,1,.32.46c0,.32-.41.44-.84.52-.12.21-.29.47-.47.73h6.21v3ZM352,66.79A26.82,26.82,0,0,0,356,61.54h-1.77V55.68l-.26.11c-.49,1.08-.78,1.69-1.8,3.66.44.23.55.29.55.49s-.46.52-.66.61Zm6.26.52v1.22h3.37V67.31Zm0,4.15v1.21h3.37V71.46Zm3.37,5.33V75.6h-3.37v1.19Zm-1.05-12.44a27.85,27.85,0,0,0,1.63-2.81h-3.6l1.33.66c.24.12.41.24.41.47s-.32.43-.84.49c-.32.52-.44.7-.73,1.19Z"/><path class="cls-2" d="M381,56.75c.26.09.58.17.58.44s-.35.43-.61.46a25.88,25.88,0,0,0-1.63,8.73c0,3.54,1.1,6,1.95,6s2-2.55,2.81-4.38a13.18,13.18,0,0,0,3,3.08c-2.32,5.63-5,7.6-6.38,7.6-1.62,0-5.92-3.45-5.92-12.42a51.28,51.28,0,0,1,1.43-10.84Zm14,.2a28.86,28.86,0,0,1,5.86,14.59c-1.71.67-3.77,1.66-4.72,2.15a26.43,26.43,0,0,0-4.88-14.36Z"/><path class="cls-2" d="M417,55c.26.06.58.17.58.46s-.41.38-.64.38c-.12.46-.61,2.52-.73,2.93A18.49,18.49,0,0,0,421,57.39l.49,4.55a37.52,37.52,0,0,1-6.55,1.37,70.23,70.23,0,0,1-7.6,17A29.61,29.61,0,0,0,403,78.07,47.15,47.15,0,0,0,410.12,64c-1.77.15-2.12.15-5.31.18l-.37-4.76c.87.06,1.88.12,3.36.12,1.31,0,2.18,0,3.45-.12.41-2.18.61-4.06.79-5.48Zm2.17,17.46a2.87,2.87,0,0,0-.78,1.71.79.79,0,0,0,.52.76,10.85,10.85,0,0,0,3.89.49,20.82,20.82,0,0,0,6.38-1,12.33,12.33,0,0,0-.2,2.26,20.52,20.52,0,0,0,.17,2.41,35,35,0,0,1-6,.5c-3.8,0-8.85-.56-8.85-4.67a7.84,7.84,0,0,1,1.13-3.8Zm-1.36-8.21a37.31,37.31,0,0,1,6.41-.52,20.4,20.4,0,0,1,4.26.32c-.17,2.15-.2,2.61-.23,4.55a17.15,17.15,0,0,0-4.35-.52,53.66,53.66,0,0,0-6.09.52Z"/><path class="cls-2" d="M442.46,55c.43.06.66.09.66.41s-.2.34-.55.49a64.08,64.08,0,0,0-.92,11.51c0,6.59.63,7.81,2.87,7.81,5,0,9.34-6.7,10.12-8.33a30.43,30.43,0,0,0,3.36,3.8c-3.3,5.37-8.23,9.4-14.09,9.4-6.44,0-7-5.45-7-12.71,0-1.68.29-9,.29-10.5,0-.84,0-1.82-.06-2.66Z"/><path class="cls-2" d="M477.4,54.81c.27.06.53.08.53.37s-.32.38-.53.41c-.11,1.13-.11,1.39-.14,1.71,1.33,0,5.83-.09,8,.18V61.8a68.72,68.72,0,0,0-8.15-.26v3.19a38.09,38.09,0,0,0,7.37-1.37v4.33a54.88,54.88,0,0,1-7.25,1c0,1.25,0,1.37.06,2.58A29.08,29.08,0,0,1,487,75.05a46.26,46.26,0,0,0-3.22,3.63A23.63,23.63,0,0,0,477.55,75c.06,1.51.26,4.94-6.09,4.94-4.5,0-7.78-2.06-7.78-4.7,0-3.31,4.15-4.73,9-4.64,0-.67,0-.67,0-1.72-2.87.06-8.13.15-8.13-2.72,0-1,.53-2,2-3.51l3.19.72c-.53.7-.61.79-.61,1s0,.81,3.39.67c0-.53,0-2.88,0-3.34-3.57.15-6.7.55-9.11.87V58c1.42-.15,7.78-.44,9.08-.52,0-1.11,0-2.24-.11-3.57ZM471.4,74c-.15,0-2.93,0-2.93,1.19,0,1,1.6,1,2.09,1,1.42,0,2.29-.52,2.12-2.11A6.19,6.19,0,0,0,471.4,74Z"/><path class="cls-2" d="M506.58,54.37c.46.06.72.09.72.32s-.34.44-.58.49c-.05.53-.08.87-.14,2,8.18-.34,9.08-.37,9.63-.43,0,.61-.09,3.48,0,4.67-5.25-.26-7.46-.26-9.57-.23a25.58,25.58,0,0,0,0,3.22A9.46,9.46,0,0,1,508.38,70a13.71,13.71,0,0,1-6.73,11.19,19.33,19.33,0,0,0-4.24-3c.87-.35,4.3-1.8,5.34-4.18a3.26,3.26,0,0,1-2.29.69,3.87,3.87,0,0,1-3.13-1.3,7.25,7.25,0,0,1-1.25-4.29c0-6.39,5.45-6.18,6.06-6.1,0-.92,0-1.18,0-1.62a79.11,79.11,0,0,0-11.58,1.51l-.31-4.9c.66,0,1.77,0,11.77-.61a31.12,31.12,0,0,0-.4-3.69Zm-6.7,14.51c0,1.91.95,2.43,1.48,2.43.9,0,1.42-1.33,1.42-2.78,0-.67-.15-1.8-1.31-1.8C500.52,66.73,499.88,67.69,499.88,68.88Z"/><path class="cls-2" d="M154,94.62a17.45,17.45,0,0,0,0,23.26l-2.58,2.24a20.67,20.67,0,0,1,0-27.73Z"/><path class="cls-2" d="M182.07,96.42c-.2.08-.44.14-.64.2a53.12,53.12,0,0,1-3.8,6.64H182v16.31h-4.61v-1.08H157.73v-3.71h19.64v-2.26H159.53V109h17.84v-2.21H157.73v-3.57h4.47A28.09,28.09,0,0,0,158,95.75l4-2a25.58,25.58,0,0,1,4.29,7.37,21.1,21.1,0,0,0-4,2.17h5.51V92.68l4.61.29c.38,0,.67,0,.67.37s-.26.41-.67.53v9.39h5.25a16.62,16.62,0,0,0-3.94-1.71,25.6,25.6,0,0,0,3.94-7.39l4.47,1.47a.38.38,0,0,1,.26.35A.46.46,0,0,1,182.07,96.42Z"/><path class="cls-2" d="M193.17,116.69v1.6h-4.55V94.62h20.8v23.67h-4.56v-1.6Zm11.69-13.19V98.65H193.17v4.85Zm0,9v-5.13H193.17v5.13Z"/><path class="cls-2" d="M222.41,109.38h-2.67v-3.51h15.63l1.48,1.86a21,21,0,0,1-5,6c2.67,1.08,4.41,1.51,9.51,2.15a10.63,10.63,0,0,0-1.91,3.66c-4.7-.88-7.22-1.4-11.08-3.34a28,28,0,0,1-11.84,3.34,15.46,15.46,0,0,0-2.11-3.92,24.89,24.89,0,0,0,9.92-1.8,20.08,20.08,0,0,1-3.57-3.25Zm14.76-11.54a.35.35,0,0,1,.26.35c0,.29-.43.4-.87.46a23.67,23.67,0,0,1-1.51,2.58h6v6.82h-4v-3.57H219v3.57h-4.12v-6.82h4.15c-.49-.72-1-1.45-1.6-2.11l2.38-1.48c-1.1,0-1.22,0-1.56,0a15.23,15.23,0,0,0-2-4.18A61.73,61.73,0,0,0,224,94c3.42,0,8.18-.29,11.26-1.48l3.13,3a.42.42,0,0,1,.17.35.44.44,0,0,1-.43.49,6.68,6.68,0,0,1-1-.35,15.7,15.7,0,0,1-2.87.7Zm-11.31-.29c-1.66.06-2.18.06-4.73.09a15.63,15.63,0,0,1,2.17,3l-1,.64h3.31c-1.11-1.68-1.22-1.85-1.74-2.52Zm-1,11.83a18.69,18.69,0,0,0,3.08,2.35,11.61,11.61,0,0,0,2.43-2.35Zm6-8.15a21.42,21.42,0,0,0,2.21-4.38c-.41.06-2.73.38-5.31.58a30.88,30.88,0,0,1,2.15,3l-1.19.78Z"/><path class="cls-2" d="M251.26,119.57h-4.53V106.13a8.26,8.26,0,0,1-1,1.14,12.5,12.5,0,0,0-3.19-3,26.82,26.82,0,0,0,6.76-11.89l4,1.45c.29.11.55.2.55.43s-.37.38-.75.44c-1.13,2.67-1.22,2.87-2.06,4.61.46.12.87.23.87.55s-.26.47-.61.58Zm18.88-20.43v4.21h-2.72v12c0,3.33-.55,4.09-6.62,4.15a10.29,10.29,0,0,0-1.91-4.7,13.54,13.54,0,0,0,2.61.37c1.36,0,1.42-.37,1.42-1.36v-10.5H252.3V99.14h10.62V92.65l4.5.17c.34,0,.78,0,.78.38s-.35.43-.78.61v5.33Zm-13,5.75a21.6,21.6,0,0,1,4,6.55,39.63,39.63,0,0,0-4,2.15,26.74,26.74,0,0,0-4-6.73Z"/><path class="cls-2" d="M280.2,95.14c.23.09.38.2.38.41s-.55.4-.81.43A40.08,40.08,0,0,0,278,107.15a20.15,20.15,0,0,0,.2,2.9c.38-.55,1-1.48,1.36-2.06a12.22,12.22,0,0,0,2.09,2.87,12.88,12.88,0,0,0-2.41,7.11l-3.88.72A40.7,40.7,0,0,1,273.82,107a52.36,52.36,0,0,1,1.74-13.28ZM294,94.5c.14,0,.38.06.38.32s-.41.44-.67.47a31.85,31.85,0,0,0-.29,3.48,26.15,26.15,0,0,0,4.29-1.08v4.38c-.66.18-2,.5-4.41.93a45.66,45.66,0,0,0,.47,6.67,16.36,16.36,0,0,1,5.51,3c-.47.84-1.34,2.73-2,4.09a10.22,10.22,0,0,0-3.11-2.2c-.11,3.71-3.83,4.14-5.65,4.14-4.35,0-6.53-2.37-6.53-5.07,0-3.45,3.42-4.76,7.19-4.67-.23-3.31-.26-3.69-.32-5.37-1.65.15-2.84.15-3.33.15a20.81,20.81,0,0,1-2.15-.09V99.09a31.18,31.18,0,0,0,5.46.2c0-1.22,0-3.77,0-5.66Zm-6,18c-.64,0-2,.2-2,1.1,0,.75.95,1.07,1.88,1.07.23,0,2,0,2-1.42a1,1,0,0,0-.05-.38A4.26,4.26,0,0,0,288,112.49Z"/><path class="cls-2" d="M308.54,95.75c.26.09.58.17.58.44s-.35.43-.61.46a25.88,25.88,0,0,0-1.63,8.73c0,3.54,1.1,6,1.95,6s2-2.55,2.81-4.38a13.18,13.18,0,0,0,3,3.08c-2.32,5.63-5,7.6-6.38,7.6-1.62,0-5.92-3.45-5.92-12.42a51.28,51.28,0,0,1,1.43-10.84Zm14,.2a28.86,28.86,0,0,1,5.86,14.59c-1.71.67-3.77,1.66-4.72,2.15a26.43,26.43,0,0,0-4.88-14.36Z"/><path class="cls-2" d="M344.47,94c.26.06.58.17.58.46s-.41.38-.64.38c-.12.46-.61,2.52-.73,2.93a18.49,18.49,0,0,0,4.82-1.42l.49,4.55a37.52,37.52,0,0,1-6.55,1.37,70.23,70.23,0,0,1-7.6,17,29.61,29.61,0,0,0-4.38-2.21A47.15,47.15,0,0,0,337.62,103c-1.77.15-2.12.15-5.31.18l-.37-4.76c.87.06,1.88.12,3.36.12,1.31,0,2.18,0,3.45-.12.41-2.18.61-4.06.79-5.48Zm2.17,17.46a2.87,2.87,0,0,0-.78,1.71.79.79,0,0,0,.52.76,10.85,10.85,0,0,0,3.89.49,20.82,20.82,0,0,0,6.38-1,12.33,12.33,0,0,0-.2,2.26,20.52,20.52,0,0,0,.17,2.41,35,35,0,0,1-6,.5c-3.8,0-8.85-.56-8.85-4.67a7.84,7.84,0,0,1,1.13-3.8Zm-1.36-8.21a37.31,37.31,0,0,1,6.41-.52,20.4,20.4,0,0,1,4.26.32c-.17,2.15-.2,2.61-.23,4.55a17.15,17.15,0,0,0-4.35-.52,53.66,53.66,0,0,0-6.09.52Z"/><path class="cls-2" d="M370,94c.43.06.66.09.66.41s-.2.34-.55.49a64.08,64.08,0,0,0-.92,11.51c0,6.59.63,7.81,2.87,7.81,5,0,9.34-6.7,10.12-8.33a30.43,30.43,0,0,0,3.36,3.8c-3.3,5.37-8.23,9.4-14.09,9.4-6.44,0-7-5.45-7-12.71,0-1.68.29-9,.29-10.5,0-.84,0-1.82-.06-2.66Z"/><path class="cls-2" d="M404.9,93.81c.27.06.53.08.53.37s-.32.38-.53.41c-.11,1.13-.11,1.39-.14,1.71,1.33,0,5.83-.09,8,.18v4.32a68.72,68.72,0,0,0-8.15-.26v3.19a38.09,38.09,0,0,0,7.37-1.37v4.33a54.88,54.88,0,0,1-7.25,1c0,1.25,0,1.37.06,2.58a29.08,29.08,0,0,1,9.69,3.83,46.26,46.26,0,0,0-3.22,3.63,23.63,23.63,0,0,0-6.21-3.66c.06,1.51.26,4.94-6.09,4.94-4.5,0-7.78-2.06-7.78-4.7,0-3.31,4.15-4.73,9-4.64,0-.67,0-.67,0-1.72-2.87.06-8.13.15-8.13-2.72,0-1,.53-2,2-3.51l3.19.72c-.53.7-.61.79-.61,1s0,.81,3.39.67c0-.53,0-2.88,0-3.34-3.57.15-6.7.55-9.11.87V97c1.42-.15,7.78-.44,9.08-.52,0-1.11,0-2.24-.11-3.57Zm-6,19.14c-.15,0-2.93,0-2.93,1.19,0,1,1.6,1,2.09,1,1.42,0,2.29-.52,2.12-2.11A6.19,6.19,0,0,0,398.9,113Z"/><path class="cls-2" d="M438.31,93.89c.41.06.67.09.67.41s-.35.41-.58.46c0,.15.09,4.27.12,4.67,3.59-.52,4.55-.6,5.56-.69v4.78c-.46,0-.95-.08-1.68-.08a37.63,37.63,0,0,0-3.86.26c0,7.77-1.27,8.06-6.75,8.06a27.35,27.35,0,0,0-1.13-4.29,9.16,9.16,0,0,0,1.62.14c1.62,0,1.74-.4,1.91-3.3-.92.14-5,.84-5.83,1,0,.9-.05,1.77-.05,2.64,0,4.61.23,4.9.78,5.43s1.51.81,3.51.81a42.58,42.58,0,0,0,9.74-1.25,22.52,22.52,0,0,0-.55,4.73,77.68,77.68,0,0,1-10,.78c-1.69,0-6.21-.05-7.28-4-.44-1.65-.41-3.94-.35-8.24-3.48.87-4.5,1.13-5.63,1.45l-.35-5.07a35.34,35.34,0,0,0,5.83-.79,63.82,63.82,0,0,0-.37-6.67l5,.55c.44.06.79.09.79.47s-.32.4-.52.43c-.06.73-.27,3.8-.32,4.44.87-.14,3.65-.58,5.48-.9a35.35,35.35,0,0,0-.7-6.87Z"/><path class="cls-2" d="M462.12,94.65c.26.11.46.26.46.52s-.43.35-.69.29c-1.07,1.89-2.44,4.53-4,7.57-.3.55-.41.73-.64,1.1a11.8,11.8,0,0,1,2.69-.37c1.8,0,4.24.69,4.24,3.71a13.61,13.61,0,0,1-.26,2.44,13.77,13.77,0,0,0-.35,2.84c0,.75.2,1.45,1.1,1.45s4.18-1.83,6.24-4.76a30.86,30.86,0,0,0,3,3.68,21.33,21.33,0,0,1-4.93,4.21,11.51,11.51,0,0,1-5.54,1.71c-2.69,0-4.64-1.53-4.64-4.41,0-.87.5-4.7.5-5.48,0-1-.58-1.39-1.19-1.39-3.14,0-6.62,9-7.08,10.7l-4.73-2c1.86-3.1,6.06-11.81,7-13.72,1.83-3.94,3-6.82,4.35-10.33Z"/><path class="cls-2" d="M478.62,92.39a20.67,20.67,0,0,1,0,27.73l-2.55-2.24a17.48,17.48,0,0,0,0-23.26Z"/></g></g></svg>