<svg id="レイヤー_1" data-name="レイヤー 1" xmlns="http://www.w3.org/2000/svg" viewBox="0 0 42.36 37.46"><defs><style>.cls-1{fill:#fff;}.cls-2{fill:#ff5064;}</style></defs><title>アートボード 17</title><path class="cls-1" d="M23.68,1.79c-1.37-2.39-3.62-2.39-5,0L.59,33.13c-1.38,2.38-.25,4.33,2.5,4.33H39.27c2.75,0,3.88-2,2.5-4.33Z"/><path class="cls-2" d="M19.57,23.07l-.47-7C19,14.69,19,13.71,19,13.11a2.62,2.62,0,0,1,.64-1.89,2.15,2.15,0,0,1,1.67-.68,1.7,1.7,0,0,1,1.69.87,6,6,0,0,1,.42,2.51,18.65,18.65,0,0,1-.1,2l-.63,7.22a5.59,5.59,0,0,1-.44,2,1.14,1.14,0,0,1-1.11.69A1.1,1.1,0,0,1,20,25.1,6.51,6.51,0,0,1,19.57,23.07Zm1.63,9.64a2.27,2.27,0,0,1-1.56-.58A2,2,0,0,1,19,30.52,2.1,2.1,0,0,1,19.61,29a2.13,2.13,0,0,1,1.56-.64,2.18,2.18,0,0,1,1.57.64,2.07,2.07,0,0,1,.65,1.55,2,2,0,0,1-.66,1.61A2.23,2.23,0,0,1,21.2,32.71Z"/></svg>