<svg xmlns="http://www.w3.org/2000/svg" width="38.79mm" height="41.79mm" viewBox="0 0 109.95 118.47"><defs><style>.cls-1{fill:#e7242e;}.cls-2{fill:#231815;}.cls-3{fill:#fff;}</style></defs><g id="レイヤー_2" data-name="レイヤー 2"><g id="レイヤー_1-2" data-name="レイヤー 1"><path class="cls-1" d="M44.64,36.13,25.08,34.46,20.77,47.85l14.57,8.21L26.06,78l12.12,8.54L55.24,70.64,72.45,86.39l12-8.65L75,55.87,89.5,47.53,85.06,34.17,66.61,36l-4.4-20.11-14.7.07L45.06,28.45a33.08,33.08,0,0,0,13.57-.31c.27-.08.67-.11.85.12a.73.73,0,0,1,0,.7c-.58,1.29-2.92,3.43-7.75,4a23.6,23.6,0,0,1-6.45-.08l-.68,3.28"/><path class="cls-2" d="M66.13,30.45c-1.27-5.79-3.23-14.76-3.23-14.76a.72.72,0,0,0-.69-.56l-14.7.07a.71.71,0,0,0-.69.57L44.37,28.32a.71.71,0,0,0,.57.83A35.66,35.66,0,0,0,56,29.38c.64-.09,1.32-.26,1.8-.36.22,0,.62-.24.73-.05s-.07.36-.25.56a7.18,7.18,0,0,1-1.59,1.2,12.68,12.68,0,0,1-5,1.49,23.71,23.71,0,0,1-6.2,0,.73.73,0,0,0-.56.08.7.7,0,0,0-.31.46s-.08.35-.17.82-.29,1.4-.29,1.4a.55.55,0,0,1-.55.41s-2.23-.17-4-.33L25.14,33.75a.69.69,0,0,0-.73.49L20.1,47.64a.85.85,0,0,0,0,.22.71.71,0,0,0,.36.61l9.65,5.43,4,2.24a.51.51,0,0,1,.22.64l-1.69,4-7.17,17a.67.67,0,0,0-.06.28.71.71,0,0,0,.3.57l12.13,8.54a.69.69,0,0,0,.88-.06s8.16-7.62,13.05-12.17l3.2-3a.52.52,0,0,1,.67,0l3.18,2.92L72,86.91a.69.69,0,0,0,.88,0l12-8.65a.71.71,0,0,0,.29-.58.74.74,0,0,0-.06-.28l-7.33-16.9c-1-2.36-1.72-4-1.72-4a.51.51,0,0,1,.21-.64l4.56-2.63,9-5.17a.71.71,0,0,0,.36-.61.54.54,0,0,0,0-.22L85.73,34a.71.71,0,0,0-.74-.48L71,34.82l-3.41.33a.55.55,0,0,1-.56-.4ZM45.47,35.6l.31-1.51a.53.53,0,0,1,.55-.4,21.9,21.9,0,0,0,2.46.09,26,26,0,0,0,3.06-.16c5.26-.58,7.7-3,8.31-4.37A1.4,1.4,0,0,0,60,27.82a1.47,1.47,0,0,0-1.58-.37,29.34,29.34,0,0,1-8.35.83c-1.64-.06-3.76-.35-3.76-.35a.41.41,0,0,1-.36-.5s.33-1.68.7-3.59c.11-.58.23-1.19.35-1.8l1-5a.57.57,0,0,1,.54-.45l4.89,0h2l5.77,0a.59.59,0,0,1,.55.44l.84,3.83L65.92,36.1a.71.71,0,0,0,.76.56l8.63-.84L84.12,35a.57.57,0,0,1,.59.39s.81,2.41,1.67,5c.16.52.34,1,.51,1.55l1.62,4.87a.57.57,0,0,1-.25.66l-6.82,3.93-6.78,3.9a.69.69,0,0,0-.36.61.71.71,0,0,0,.06.28s3.29,7.59,6,13.72l3.12,7.2a.59.59,0,0,1-.19.69l-5.43,3.91-.69.49-4.25,3.06a.59.59,0,0,1-.71,0s-2-1.88-4.67-4.28L55.72,70.12a.71.71,0,0,0-1,0L44,80.14l-5.58,5.2a.57.57,0,0,1-.7,0l-5-3.54-.44-.31L27.3,78a.59.59,0,0,1-.19-.68l3.38-8,5.5-13a.71.71,0,0,0,.06-.28.71.71,0,0,0-.36-.61L29,51.68l-7-3.93a.59.59,0,0,1-.25-.66l1.69-5.28c.24-.72.47-1.45.7-2.15l1.29-4a.58.58,0,0,1,.59-.39l6.55.57,12,1a.62.62,0,0,0,.19,0l.12,0,.09,0a.36.36,0,0,0,.12-.08.2.2,0,0,0,.06-.07.41.41,0,0,0,.1-.13s0-.05,0-.07a.61.61,0,0,0,0-.12Z"/><path class="cls-2" d="M51.27,27.27a.57.57,0,0,1-.18,0,.61.61,0,0,1-.41-.77,33.92,33.92,0,0,0,1.4-8.15.62.62,0,1,1,1.23.07,36.11,36.11,0,0,1-1.45,8.45.63.63,0,0,1-.59.43Z"/><path class="cls-2" d="M59,23.17a1,1,0,1,1-1.93,0,1,1,0,1,1,1.93,0Z"/><path class="cls-2" d="M48.74,20.46a.77.77,0,1,0,1.51,0,.84.84,0,0,0-.76-.9A.83.83,0,0,0,48.74,20.46Z"/><path class="cls-3" d="M47.07,43.49v.84a2.75,2.75,0,0,1-2.31,1.06,2.86,2.86,0,0,1-2-.68,2.55,2.55,0,0,1-.08-3.57,2.47,2.47,0,0,1,1.8-.69,2.76,2.76,0,0,1,1.05.19,2.27,2.27,0,0,1,.84.55,2.36,2.36,0,0,1,.52.86,3.91,3.91,0,0,1,.18,1.18h-2.5a1.07,1.07,0,0,0,.45.57,1.27,1.27,0,0,0,.72.21A1.81,1.81,0,0,0,47.07,43.49Zm-2.66-1.08h1.15a1,1,0,0,0-.17-.55.53.53,0,0,0-.42-.2.5.5,0,0,0-.39.2A.81.81,0,0,0,44.41,42.41Z"/><path class="cls-3" d="M50.25,40.52v.6a2,2,0,0,1,1.47-.64,1.75,1.75,0,0,1,1.29.45,2,2,0,0,1,.45,1.38v3l-2.31,0V42.5c0-.39-.16-.59-.46-.59a.82.82,0,0,0-.44.16l0,3.22H47.82l0-4.77Z"/><path class="cls-3" d="M58.15,40.48v1.34h-1v1c0,.34.16.52.47.51a.69.69,0,0,0,.58-.34l0,1.89a2.48,2.48,0,0,1-1.41.39,2.18,2.18,0,0,1-1.49-.52,1.84,1.84,0,0,1-.61-1.45V41.84h-1l3.44-2.72v1.37Z"/><path class="cls-3" d="M63.8,43.41v.83a2.76,2.76,0,0,1-2.31,1.07,2.84,2.84,0,0,1-2-.68,2.55,2.55,0,0,1-.08-3.57,2.47,2.47,0,0,1,1.8-.69,2.8,2.8,0,0,1,1.05.19A2.26,2.26,0,0,1,63.63,42a3.68,3.68,0,0,1,.17,1.18l-2.5,0a1.09,1.09,0,0,0,.45.56,1.32,1.32,0,0,0,.73.21A1.77,1.77,0,0,0,63.8,43.41Zm-2.65-1.08H62.3a1,1,0,0,0-.17-.56.55.55,0,0,0-.42-.2.47.47,0,0,0-.39.2A.77.77,0,0,0,61.15,42.33Z"/><path class="cls-3" d="M67,41.49c.31-.73.75-1.09,1.35-1.09a1.06,1.06,0,0,1,.81.32,1.09,1.09,0,0,1,.33.82,1.17,1.17,0,0,1-.31.85,1.11,1.11,0,0,1-.82.32,1.3,1.3,0,0,1-1-.43A1.41,1.41,0,0,0,67,43.43v1.78H64.57l0-4.77H67Z"/><path class="cls-3" d="M42,53.17l0-3.86,7.73,0,0,3.86H47.75l0,4.84-3.85,0,0-4.84Z"/><path class="cls-3" d="M55.45,58.09a4.25,4.25,0,0,1-3.17-1.29,4.54,4.54,0,0,1,0-6.37,4.49,4.49,0,0,1,6.36,6.34A4.27,4.27,0,0,1,55.45,58.09Zm0-5.64a.79.79,0,0,0-.61.26.91.91,0,0,0-.25.66.92.92,0,0,0,.25.65.88.88,0,0,0,1.24,0,1,1,0,0,0,0-1.3A.82.82,0,0,0,55.42,52.45Z"/><path class="cls-3" d="M66.94,57.89l-3.85,0,0-3.8-3.34-4.88,3.9,0,1.35,2,1.33-2,3.91,0L66.93,54.1Z"/><path class="cls-3" d="M44.67,61.25v.6a1.92,1.92,0,0,1,1.47-.65,1.67,1.67,0,0,1,1.54.82,2.82,2.82,0,0,1,.82-.63,2.26,2.26,0,0,1,.92-.21,1.6,1.6,0,0,1,1.23.48A1.85,1.85,0,0,1,51.1,63l0,3H48.8V63.15a.53.53,0,0,0-.13-.39.39.39,0,0,0-.32-.14.73.73,0,0,0-.45.16V66H45.59V63.17a.68.68,0,0,0-.12-.4.46.46,0,0,0-.34-.14.76.76,0,0,0-.44.17V66H42.25l0-4.77Z"/><path class="cls-3" d="M57.21,64.14V65A2.73,2.73,0,0,1,54.9,66a2.81,2.81,0,0,1-2-.68,2.57,2.57,0,0,1-.08-3.57,2.47,2.47,0,0,1,1.8-.68,2.66,2.66,0,0,1,1.06.18,2.36,2.36,0,0,1,.83.55,2.23,2.23,0,0,1,.52.86,3.41,3.41,0,0,1,.18,1.18l-2.5,0a1.09,1.09,0,0,0,.45.56,1.28,1.28,0,0,0,.73.21A1.77,1.77,0,0,0,57.21,64.14Zm-2.65-1.08h1.15a.9.9,0,0,0-.18-.55.53.53,0,0,0-.42-.2.5.5,0,0,0-.39.2A.83.83,0,0,0,54.56,63.06Z"/><path class="cls-3" d="M60.72,61.17v.6a2,2,0,0,1,1.47-.64,1.67,1.67,0,0,1,1.28.45A1.91,1.91,0,0,1,63.93,63v3H61.63V63.16c0-.4-.16-.6-.46-.6a.91.91,0,0,0-.44.16l0,3.22H58.29l0-4.77Z"/><path class="cls-3" d="M68.94,61.13v1.34h-1v1c0,.34.15.52.46.51a.71.71,0,0,0,.59-.34v1.89a2.56,2.56,0,0,1-1.41.39,2.25,2.25,0,0,1-1.49-.52A1.84,1.84,0,0,1,65.48,64V62.49h-1l3.43-2.71v1.36Z"/><path class="cls-2" d="M8.5,72l1.65,3.15h0L6.94,73.57,4.42,76.16l0,0,.53-3.56L1.7,71v0l3.56-.6.52-3.5,0,0L7.44,70l3.54-.6,0,0Z"/><path class="cls-2" d="M102.61,70.06l1.61-3.16,0,0,.54,3.5,3.57.56v0l-3.21,1.63.55,3.56,0,0-2.53-2.56L100,75.26l0,0,1.62-3.16L99,69.54l0,0Z"/><path class="cls-2" d="M53,100.7l.33-2.23-6.45-.93.1-.76-3.36-.49-.11.76-.9-.13-.32,2.23.9.12-.1.66-.89-.13L41.88,102l.9.13-.07.45c-.41,2.86.66,4.54,3.42,4.94l1.56.23c2.25.32,4.34-.43,4.85-4l.36-2.47-3.3-.48-.36,2.47a1.29,1.29,0,0,1-1.68,1.25l-.24,0c-.83-.12-1.38-.43-1.24-1.42l.07-.45,2.47.36.33-2.24-2.48-.36.09-.65Z"/><path class="cls-2" d="M61.85,101.38l-1.57.07,0-.64,5-.25-.14-2.71-5,.25c0-.4,0-.66,0-.66l-3.4.17,0,.65-1.87.09.13,2.71,1.87-.09L57,104.4l4.46-.22c.46,0,.61.15.62.41s-.16.4-.62.42l-5.58.27.16,3.16,5.57-.26c3.37-.17,4.38-1.34,4.26-3.7C65.76,101.53,64.07,101.27,61.85,101.38Z"/><path class="cls-2" d="M36.19,98.19l-.92-.44.28-.6,1,.48,1.15-2.45-1-.47.28-.59-2.62-1.24c-.11.22-.11.22-.28.59L31.41,92.2l-1.16,2.44L33,95.93l-.28.59-.29-.13c-1.38-.66-3.13-.36-4.15,1.79s-.37,3.57,1.48,4.44c2.37,1.13,3.31-.14,4-1.69l.32-.67c.52.26,1,.47,1,.47.37.18.57.34.42.65s-.3.32-.76.11l-.42-.2-1.36,2.86.38.18c1.84.87,3.63,1.11,4.88-1.53C39.2,100.7,38,99.05,36.19,98.19Zm-5,1.54c-.15.32-.33.42-.5.35l-.1,0c-.27-.14-.2-.47,0-.78a.52.52,0,0,1,.76-.31l.21.1Zm7.64-5.32-1.17,2.46a.6.6,0,0,1,.34.89l-.34.7,2.47,1.17.46-1C41.48,96.71,41.08,95.38,38.8,94.41Z"/><path class="cls-2" d="M82.46,94.55l.37,1.82A2.9,2.9,0,0,1,81,99.29L77.68,101l1.41,2.84,3.51-1.74c2.59-1.29,4.05-3.51,3.37-6.42-.3-1.32-.84-2.65-.12-3l-1.53-3.08C81.84,90.77,81.92,92.21,82.46,94.55ZM79,91.8l-4.67,2.32,1.23,2.49,4.68-2.32Zm1.53,3.08L75.82,97.2l1.24,2.5,4.67-2.32Z"/><rect class="cls-2" x="93.52" y="80.74" width="10.12" height="3.29" transform="translate(-26.62 111.17) rotate(-52.84)"/><path class="cls-2" d="M89.64,87,86,90.32l1.57,1.75L91,89c.34-.29.53,0,.72.24h0l-3.37,3,1.24,1.38,3.36-3,.44.49-3.7,3.32,1.56,1.75L97,91,93.51,87A2.56,2.56,0,0,0,89.64,87Z"/><path class="cls-2" d="M73.7,99.39a.82.82,0,0,1,.62-.43l-.51-1.89c-1.87.51-2.47,1.43-2.57,2.37l-1.31.35-.29-.86-2.34.64.29.85-.88.24.65,2.43,1-.29L69.85,107l2.33-.64-1.43-4.22,1-.28c.61-.16.92-.07,1,.35s-.1.73-.88.93l.66,2.43c2.77-.75,3.33-2,2.86-3.8l-.14-.54A2.58,2.58,0,0,0,73.7,99.39Z"/><path class="cls-2" d="M19,84.62l1.46-1.15-2.53-3.18.4-.32-1.78-2.25-.4.32-2.51-3.18L12.19,76l2.52,3.17-.52.41-2.4-3L7.62,79.89l1.62,2a3.67,3.67,0,0,1-2.52-1.62L5.17,81.54a5.3,5.3,0,0,0,3.35,2.32l-.94.74,2,2.51.93-.74A5.28,5.28,0,0,0,12,90.15l1.54-1.22a3.39,3.39,0,0,1-1-2.81l1.64,2.07,4.18-3.31-2.4-3,.52-.41Zm-8-2.49-.75-.95.52-.4.75,1Zm1.7-1.34-.75-1,.52-.41.75.95Zm.84,4.54-.76-1,.52-.4.75.94Zm2.21-1.76-.51.41-.75-1,.51-.41Z"/><path class="cls-2" d="M7.42,64.35l-6.3,1.16L.67,63.1,7,61.93Z"/><path class="cls-2" d="M23,18.39,18.9,13.47l1.91-1.59,4.11,4.91Z"/><path class="cls-2" d="M2.54,54.27.06,54.12.4,48.45l2.48.15-.09,1.59,3.91.24-.15,2.48-3.91-.24Z"/><path class="cls-2" d="M15.42,20.19l-1.74-1.78,4.08-4,1.74,1.78-1.15,1.12,2.74,2.81-1.78,1.73-2.74-2.8Z"/><path class="cls-2" d="M55.23,2.48,55.38,0l5.68.34-.15,2.48-1.6-.1-.23,3.92L56.6,6.49l.23-3.91Z"/><path class="cls-2" d="M90.71,16.67,92.5,15l3.94,4.1-1.8,1.72-1.11-1.15L90.7,22.33,89,20.54l2.83-2.72Z"/><path class="cls-2" d="M6.4,43l1.42.26-1,5.23L.56,47.34l1-5.23,1.41.26-.51,2.78,1.13.21.37-2,1.23.23-.37,2,1.12.21Z"/><path class="cls-2" d="M1.81,40.55,3.18,36.6a2.48,2.48,0,0,1,1.08-1.43A1.76,1.76,0,0,1,5.76,35a1.78,1.78,0,0,1,1,1.29,5.53,5.53,0,0,1,3.36-.3l-.91,2.62a5.06,5.06,0,0,0-1.82-.25c-.42,0-.76.43-1,1.14l2.25.78-.81,2.35Zm2.06-1.91L5,39l.14-.4c.24-.71.11-1-.26-1.09a.72.72,0,0,0-.48,0c-.15,0-.32.36-.4.59Z"/><path class="cls-2" d="M15,27.35l-1.51,2L9.73,23.67l2.45-3.21,6.44,2.11-1.5,2L16,24.18,14.35,26.4Zm-1.53-2.28,1-1.39L12,22.87Z"/><path class="cls-2" d="M40,8.76l-2.38.68L38,2.67l3.89-1.1,3.89,5.56-2.39.67-.65-.94-2.67.76ZM40.19,6l1.68-.48L40.34,3.38Z"/><path class="cls-2" d="M27.6,14.91a3.11,3.11,0,0,1-2.52,0,3.34,3.34,0,0,1-1.74-4.35,3.29,3.29,0,0,1,6.08.09,3.25,3.25,0,0,1,0,2.54A3.13,3.13,0,0,1,27.6,14.91Zm-1.7-4.24a1,1,0,0,0-.57.56,1.11,1.11,0,0,0,0,.84,1.06,1.06,0,0,0,.56.61,1,1,0,0,0,.8,0,1,1,0,0,0,.58-.57,1.09,1.09,0,0,0,0-.83,1.14,1.14,0,0,0-.56-.62A1,1,0,0,0,25.9,10.67Z"/><path class="cls-2" d="M63.83,7.48a3.17,3.17,0,0,1-2-1.51,3.23,3.23,0,0,1-.36-2.51,3.21,3.21,0,0,1,1.5-2,3.19,3.19,0,0,1,2.49-.36,3.14,3.14,0,0,1,2,1.5,3.23,3.23,0,0,1,.35,2.49,3.27,3.27,0,0,1-1.49,2.05A3.17,3.17,0,0,1,63.83,7.48ZM65,3a1,1,0,0,0-.8.12,1.09,1.09,0,0,0-.47.69,1.12,1.12,0,0,0,.09.83A1,1,0,0,0,65.2,5a1,1,0,0,0,.49-.68,1.08,1.08,0,0,0-.11-.83A.92.92,0,0,0,65,3Z"/><path class="cls-2" d="M82.86,15.43a3.15,3.15,0,0,1-1.57-2,3.23,3.23,0,0,1,.31-2.52,3.18,3.18,0,0,1,2-1.58,3.3,3.3,0,0,1,4.07,2.26,3.35,3.35,0,0,1-2.27,4.09A3.14,3.14,0,0,1,82.86,15.43Zm2.21-4a1,1,0,0,0-.79-.09,1.09,1.09,0,0,0-.64.54,1.07,1.07,0,0,0-.12.83,1,1,0,0,0,.49.63,1,1,0,0,0,.81.09,1.07,1.07,0,0,0,.63-.54,1.12,1.12,0,0,0,.13-.83A1,1,0,0,0,85.07,11.43Z"/><path class="cls-2" d="M94.18,26.66a3.15,3.15,0,0,1-.93-2.35,3.3,3.3,0,0,1,5.68-2.24,3.3,3.3,0,0,1-4.75,4.59Zm3.29-3.18a1,1,0,0,0-.74-.33,1.13,1.13,0,0,0-.77.34,1.11,1.11,0,0,0-.36.75,1,1,0,0,0,1,1.07A1.12,1.12,0,0,0,97.4,25a1.13,1.13,0,0,0,.36-.76A1,1,0,0,0,97.47,23.48Z"/><path class="cls-2" d="M103.18,53a3.12,3.12,0,0,1,.57-2.45,3.24,3.24,0,0,1,2.16-1.34,3.16,3.16,0,0,1,2.46.57,3.12,3.12,0,0,1,1.33,2.13,3.2,3.2,0,0,1-.56,2.46,3.35,3.35,0,0,1-4.63.77A3.17,3.17,0,0,1,103.18,53Zm4.51-.76a1,1,0,0,0-.43-.68,1.18,1.18,0,0,0-1.54.26A1.06,1.06,0,0,0,106,53.3a1.14,1.14,0,0,0,.82.16,1.11,1.11,0,0,0,.72-.42A1,1,0,0,0,107.69,52.25Z"/><path class="cls-2" d="M46.34,7,45.52.62,48,.3l.61,4.76,2.8-.36.21,1.6Z"/><path class="cls-2" d="M72.07,2.78l-.7,2a2,2,0,0,0,1.74,0A2.68,2.68,0,0,0,74,3.44l2.56.89a5.2,5.2,0,0,1-.92,1.72,3.48,3.48,0,0,1-1.54.82,4.26,4.26,0,0,1,.54,3.57L71.87,9.5c.5-1.56.06-2.42-1.13-2.87L70,8.84,67.62,8,69.72,2Z"/><path class="cls-2" d="M78.56,12.65l-2.18-1.17L77.69,9l-.55-4.38,2.23,1.19.14,2.43L81.6,7,83.83,8.2l-4,2Z"/><path class="cls-2" d="M97.88,32.58l-1.2-2.17,2.44-1.36,1.93-4,1.22,2.21-1.21,2.11,2.44.1,1.22,2.21-4.39-.48Z"/><path class="cls-2" d="M107.32,39.53h-1.8a3.14,3.14,0,0,0,.18-1.81c-.06-.17-.12-.47-.43-.49s-.59.08-.51,1.27a4.56,4.56,0,0,1-.13,1.24,1.47,1.47,0,0,1-.37.76,1.71,1.71,0,0,1-.75.48,1.82,1.82,0,0,1-1.73-.21,4,4,0,0,1-1.27-2,8.3,8.3,0,0,1-.53-3h2a11.75,11.75,0,0,0-.28,1.33c-.13.64.11,1,.36,1s.62,0,.61-1.15a7.54,7.54,0,0,1,.1-.94,1.78,1.78,0,0,1,1.1-1.26,1.83,1.83,0,0,1,1.78.2,3.69,3.69,0,0,1,1.31,1.89A8,8,0,0,1,107.32,39.53Z"/><path class="cls-2" d="M103.09,59.38l.23-1.91L110,56l-.28,2.38-3.07.75,2.81,1.47-.15,1.25-3.08.82L109,64.05l-.28,2.41-6.11-2.9.22-1.89,3-.85Z"/><path class="cls-2" d="M6.45,54.8,6.6,57,4.17,59l2.53-.16.15,2.27-6.44.42L.28,59.56l2.57-2.18-2.7.17L0,55.22Z"/><path class="cls-2" d="M102.18,44.7l-.47-2.63L108,40.92l.48,2.63-2.33.42.34,1.84,2.32-.42.45,2.46L103,49l-.45-2.46,2.35-.43-.33-1.83Z"/><path class="cls-2" d="M13.3,29.86l-1,1.91-3.13.5,2.26,1.16-1,2-5.74-3,.9-1.75,3.32-.55L6.48,29,7.55,26.9Z"/><path class="cls-2" d="M37.14,9.66l-2,.92L32.4,9.06l1.09,2.3-2.06,1L28.67,6.5l1.78-.84,3,1.59L32.26,4.81l2.12-1Z"/><path class="cls-2" d="M19,92.54l-1.58-1.31a1.1,1.1,0,0,1-1.67-.11l-1.25,1.51C16.43,94.38,17.85,94,19,92.54Z"/><path class="cls-2" d="M16.93,90l2.82,2.34-2.28,2.75L20,97.18l2.28-2.75,2.83,2.35,3-3.62-8.16-6.77Zm3.77-.39L24.77,93l-.46.55-4.06-3.38Z"/><polygon class="cls-2" points="26.73 88.75 27.05 88.36 24.84 86.52 24.52 86.92 21.39 84.32 20.19 85.76 28.66 92.77 29.85 91.34 26.73 88.75"/><path class="cls-2" d="M23.79,96.52l-1.58-1.31c-1.23,1.4-1.32,2.87.74,4.44l1.25-1.51A1.11,1.11,0,0,1,23.79,96.52Z"/><path class="cls-2" d="M39.13,110.88V113h4.35c.28,0,.47.07.47.35s-.16.33-.47.33H39.53v4.77H46v-2.23H42v-.58h1.32c2.74.06,3.22-1.09,3.22-2.33,0-1.85-1-2.45-3-2.45Z"/><path class="cls-2" d="M55.33,110.88V113h4.35c.28,0,.47.07.47.35s-.16.33-.47.33h-4v4.77h6.5v-2.23H58.17v-.58h1.32c2.74.06,3.22-1.09,3.22-2.33,0-1.85-1-2.45-3-2.45Z"/><path class="cls-2" d="M50.09,110.88a2.91,2.91,0,0,0-2.92,2.59v2.42a2.91,2.91,0,0,0,2.92,2.58h1.57a2.9,2.9,0,0,0,2.92-2.58v-2.42a2.91,2.91,0,0,0-2.92-2.59Zm-.44,4.7v-1.81c0-.31.29-.75.64-.75h1.17c.35,0,.64.44.64.75v1.81a.78.78,0,0,1-.64.76H50.29A.75.75,0,0,1,49.65,115.58Z"/><path class="cls-2" d="M63.43,110.88V113h4.35c.28,0,.47.07.47.35s-.16.33-.47.33h-4v4.77h6.5v-2.23H66.27v-.58h1.32c2.74.06,3.23-1.09,3.22-2.33,0-1.85-1-2.45-3-2.45Z"/></g></g></svg>