<svg xmlns="http://www.w3.org/2000/svg" width="30" height="30" viewBox="0 0 30 30">
  <defs>
    <style>
      .cls-1 {
        fill: #3c3c3c;
      }
    </style>
  </defs>
  <g id="レイヤー_2" data-name="レイヤー 2">
    <g id="object">
      <path class="cls-1" d="M15,0A15,15,0,1,0,30,15,15,15,0,0,0,15,0Zm7.53,12.16c0,.15,0,.31,0,.46A10.29,10.29,0,0,1,6.71,21.29a8.3,8.3,0,0,0,.87.05,7.27,7.27,0,0,0,4.49-1.55,3.61,3.61,0,0,1-3.38-2.51,3.74,3.74,0,0,0,.68.06,3.69,3.69,0,0,0,1-.12,3.63,3.63,0,0,1-2.9-3.55v0a3.65,3.65,0,0,0,1.64.45A3.62,3.62,0,0,1,7.94,9.25,10.25,10.25,0,0,0,15.39,13a3.77,3.77,0,0,1-.09-.83,3.62,3.62,0,0,1,6.25-2.47,7,7,0,0,0,2.3-.88,3.57,3.57,0,0,1-1.59,2,7,7,0,0,0,2.08-.57A7.36,7.36,0,0,1,22.53,12.16Z"/>
    </g>
  </g>
</svg>
