<?xml version="1.0" encoding="utf-8"?>
<!-- Generator: Adobe Illustrator 23.0.2, SVG Export Plug-In . SVG Version: 6.00 Build 0)  -->
<svg version="1.1" id="レイヤー_1" xmlns="http://www.w3.org/2000/svg" xmlns:xlink="http://www.w3.org/1999/xlink" x="0px"
	 y="0px" width="167.565px" height="8.338px" viewBox="0 0 167.565 8.338" style="enable-background:new 0 0 167.565 8.338;"
	 xml:space="preserve">
<style type="text/css">
	.st0{fill:#FFFFFF;}
</style>
<g>
	<g>
		<path class="st0" d="M7.418,5.93c0,0.699-0.239,1.258-0.718,1.676S5.553,8.232,4.693,8.232H0V0.111h3.926
			c0.508,0,0.95,0.049,1.327,0.146s0.681,0.231,0.911,0.401S6.566,1.029,6.68,1.26s0.17,0.482,0.17,0.756
			c0,0.297-0.059,0.571-0.176,0.823S6.411,3.298,6.237,3.46S5.889,3.736,5.713,3.803C6.268,4.021,6.69,4.298,6.981,4.632
			S7.418,5.398,7.418,5.93z M4.559,2.449c0-0.391-0.129-0.65-0.387-0.779s-0.66-0.193-1.207-0.193H2.449v1.945h0.527
			c0.559,0,0.962-0.064,1.21-0.193S4.559,2.84,4.559,2.449z M4.957,5.83c0-0.695-0.504-1.043-1.512-1.043H2.449v2.08h0.996
			C4.453,6.867,4.957,6.521,4.957,5.83z"/>
		<path class="st0" d="M19.706,8.232h-2.508l-0.662-1.646h-3.527l-0.674,1.646H9.827l3.592-8.121h2.707L19.706,8.232z M15.974,5.174
			l-1.189-2.965l-1.201,2.965H15.974z"/>
		<path class="st0" d="M31.402,8.232h-2.18L25.01,3.709v4.523h-2.426V0.111h2.174l4.201,4.5v-4.5h2.443V8.232z"/>
		<path class="st0" d="M44.06,8.232h-2.18l-4.213-4.523v4.523h-2.426V0.111h2.174l4.201,4.5v-4.5h2.443V8.232z"/>
		<path class="st0" d="M54.022,8.232h-6.123V0.111h6.023V1.74h-3.574v1.488h3.41v1.635h-3.41v1.734h3.674V8.232z"/>
		<path class="st0" d="M65.326,8.232h-2.631l-0.639-1.441c-0.234-0.527-0.445-0.913-0.633-1.157s-0.37-0.4-0.548-0.469
			s-0.407-0.103-0.688-0.103h-0.275v3.17h-2.449V0.111h4.166c0.672,0,1.223,0.137,1.652,0.41s0.739,0.605,0.929,0.996
			s0.284,0.762,0.284,1.113c0,0.41-0.079,0.757-0.237,1.04s-0.325,0.489-0.501,0.618c-0.176,0.129-0.373,0.252-0.592,0.369
			c0.262,0.152,0.478,0.333,0.647,0.542s0.401,0.632,0.694,1.269L65.326,8.232z M61.998,2.678c0-0.375-0.123-0.637-0.369-0.785
			S60.982,1.67,60.428,1.67h-0.516v1.957h0.527c0.598,0,1.007-0.065,1.228-0.196S61.998,3.049,61.998,2.678z"/>
		<path class="st0" d="M81.951,4.318c0,0.832-0.151,1.5-0.454,2.004s-0.659,0.912-1.069,1.225c-0.582,0.457-1.396,0.686-2.443,0.686
			h-4.383V0.111h3.375c0.508,0,0.942,0.026,1.304,0.079s0.687,0.127,0.976,0.223c0.289,0.096,0.535,0.203,0.738,0.322
			s0.385,0.247,0.545,0.384c0.277,0.227,0.521,0.494,0.729,0.803s0.375,0.666,0.498,1.072S81.951,3.842,81.951,4.318z M79.461,4.213
			c0-0.66-0.126-1.175-0.378-1.544c-0.252-0.369-0.555-0.616-0.908-0.741S77.461,1.74,77.094,1.74h-1.043v4.811h1.043
			c0.641,0,1.195-0.152,1.664-0.457S79.461,5.162,79.461,4.213z"/>
		<path class="st0" d="M93.952,4.166c0,0.758-0.175,1.455-0.524,2.092s-0.87,1.143-1.562,1.518s-1.533,0.563-2.525,0.563
			c-1.004,0-1.854-0.195-2.549-0.586s-1.212-0.904-1.55-1.541s-0.507-1.318-0.507-2.045c0-0.73,0.168-1.413,0.504-2.048
			s0.853-1.146,1.55-1.535S88.337,0,89.341,0c0.75,0,1.419,0.111,2.007,0.334s1.071,0.524,1.45,0.905s0.666,0.824,0.861,1.33
			S93.952,3.607,93.952,4.166z M91.456,4.166c0-0.305-0.045-0.583-0.135-0.835s-0.226-0.471-0.407-0.656s-0.403-0.33-0.665-0.434
			s-0.564-0.155-0.908-0.155c-0.656,0-1.172,0.191-1.547,0.574s-0.563,0.885-0.563,1.506s0.188,1.124,0.565,1.509
			s0.892,0.577,1.544,0.577c0.449,0,0.832-0.089,1.148-0.267c0.316-0.178,0.557-0.424,0.721-0.738S91.456,4.572,91.456,4.166z"/>
		<path class="st0" d="M110.431,0.111l-3.516,8.227h-1.418l-2.109-4.787l-2.162,4.787h-1.43l-3.445-8.227h2.537l1.688,4.5l1.934-4.5
			h1.752l1.898,4.5l1.764-4.5H110.431z"/>
		<path class="st0" d="M122.174,8.232h-2.18l-4.213-4.523v4.523h-2.426V0.111h2.174l4.201,4.5v-4.5h2.443V8.232z"/>
		<path class="st0" d="M132.183,8.232h-6.17V0.111h2.449v6.176h3.721V8.232z"/>
		<path class="st0" d="M144.096,4.166c0,0.758-0.175,1.455-0.524,2.092s-0.87,1.143-1.562,1.518s-1.533,0.563-2.525,0.563
			c-1.004,0-1.854-0.195-2.549-0.586s-1.212-0.904-1.55-1.541s-0.507-1.318-0.507-2.045c0-0.73,0.168-1.413,0.504-2.048
			s0.853-1.146,1.55-1.535S138.48,0,139.484,0c0.75,0,1.419,0.111,2.007,0.334s1.071,0.524,1.45,0.905s0.666,0.824,0.861,1.33
			S144.096,3.607,144.096,4.166z M141.6,4.166c0-0.305-0.045-0.583-0.135-0.835s-0.226-0.471-0.407-0.656s-0.403-0.33-0.665-0.434
			s-0.564-0.155-0.908-0.155c-0.656,0-1.172,0.191-1.547,0.574s-0.563,0.885-0.563,1.506s0.188,1.124,0.565,1.509
			s0.892,0.577,1.544,0.577c0.449,0,0.832-0.089,1.148-0.267c0.316-0.178,0.557-0.424,0.721-0.738S141.6,4.572,141.6,4.166z"/>
		<path class="st0" d="M156.337,8.232h-2.508l-0.662-1.646h-3.527l-0.674,1.646h-2.508l3.592-8.121h2.707L156.337,8.232z
			 M152.604,5.174l-1.189-2.965l-1.201,2.965H152.604z"/>
		<path class="st0" d="M167.565,4.318c0,0.832-0.151,1.5-0.454,2.004s-0.659,0.912-1.069,1.225
			c-0.582,0.457-1.396,0.686-2.443,0.686h-4.383V0.111h3.375c0.508,0,0.942,0.026,1.304,0.079c0.361,0.053,0.687,0.127,0.976,0.223
			c0.289,0.096,0.535,0.203,0.738,0.322s0.385,0.247,0.545,0.384c0.277,0.227,0.521,0.494,0.729,0.803s0.375,0.666,0.498,1.072
			C167.504,3.4,167.565,3.842,167.565,4.318z M165.075,4.213c0-0.66-0.126-1.175-0.378-1.544c-0.252-0.369-0.555-0.616-0.908-0.741
			s-0.714-0.188-1.081-0.188h-1.043v4.811h1.043c0.641,0,1.195-0.152,1.664-0.457S165.075,5.162,165.075,4.213z"/>
	</g>
</g>
</svg>
