<?xml version="1.0" encoding="utf-8"?>
<!-- Generator: Adobe Illustrator 23.0.2, SVG Export Plug-In . SVG Version: 6.00 Build 0)  -->
<svg version="1.1" id="レイヤー_1" xmlns="http://www.w3.org/2000/svg" xmlns:xlink="http://www.w3.org/1999/xlink" x="0px"
	 y="0px" width="56.537px" height="8.338px" viewBox="0 0 56.537 8.338" style="enable-background:new 0 0 56.537 8.338;"
	 xml:space="preserve">
<style type="text/css">
	.st0{fill:#FFFFFF;}
</style>
<g>
	<g>
		<path class="st0" d="M8.396,2.086H5.42v6.146H2.977V2.086H0V0.111h8.396V2.086z"/>
		<path class="st0" d="M20.315,4.166c0,0.758-0.175,1.455-0.524,2.092s-0.87,1.143-1.562,1.518s-1.533,0.563-2.525,0.563
			c-1.004,0-1.854-0.195-2.549-0.586s-1.212-0.904-1.55-1.541s-0.507-1.318-0.507-2.045c0-0.73,0.168-1.413,0.504-2.048
			s0.853-1.146,1.55-1.535S14.7,0,15.704,0c0.75,0,1.419,0.111,2.007,0.334c0.588,0.223,1.071,0.524,1.45,0.905
			s0.666,0.824,0.861,1.33S20.315,3.607,20.315,4.166z M17.819,4.166c0-0.305-0.045-0.583-0.135-0.835s-0.226-0.471-0.407-0.656
			s-0.403-0.33-0.665-0.434s-0.564-0.155-0.908-0.155c-0.656,0-1.172,0.191-1.547,0.574s-0.563,0.885-0.563,1.506
			s0.188,1.124,0.565,1.509s0.892,0.577,1.544,0.577c0.449,0,0.832-0.089,1.148-0.267c0.316-0.178,0.557-0.424,0.721-0.738
			S17.819,4.572,17.819,4.166z"/>
		<path class="st0" d="M30.67,2.666c0,0.301-0.052,0.595-0.155,0.882s-0.271,0.555-0.501,0.803S29.472,4.8,29.079,4.954
			s-0.854,0.231-1.386,0.231h-1.605v3.047h-2.449V0.111h4.055c0.531,0,0.993,0.078,1.386,0.234s0.704,0.359,0.935,0.609
			s0.397,0.521,0.501,0.814S30.67,2.361,30.67,2.666z M28.174,2.678c0-0.387-0.114-0.651-0.343-0.794S27.193,1.67,26.604,1.67
			h-0.516v1.957h0.527c0.406,0,0.719-0.025,0.938-0.076s0.377-0.145,0.475-0.281S28.174,2.936,28.174,2.678z"/>
		<path class="st0" d="M36.29,8.232h-2.449V0.111h2.449V8.232z"/>
		<path class="st0" d="M47.413,7.623c-0.336,0.176-0.68,0.316-1.031,0.422s-0.706,0.181-1.063,0.226s-0.728,0.067-1.11,0.067
			c-0.707,0-1.341-0.098-1.901-0.293s-1.047-0.483-1.459-0.864s-0.721-0.826-0.926-1.336s-0.308-1.069-0.308-1.679
			c0-0.699,0.121-1.312,0.363-1.837s0.581-0.962,1.017-1.31s0.932-0.604,1.488-0.771S43.626,0,44.243,0
			c0.922,0,1.967,0.205,3.135,0.615v2.156c-0.402-0.25-0.8-0.458-1.192-0.624S45.331,1.898,44.8,1.898
			c-0.473,0-0.914,0.094-1.324,0.281s-0.74,0.455-0.99,0.803S42.11,3.736,42.11,4.201c0,0.41,0.109,0.786,0.328,1.128
			s0.522,0.613,0.911,0.814s0.827,0.302,1.315,0.302c0.395,0,0.768-0.048,1.119-0.144s0.647-0.202,0.888-0.319
			s0.487-0.256,0.741-0.416V7.623z"/>
		<path class="st0" d="M56.537,5.871c0,0.508-0.13,0.947-0.39,1.318s-0.622,0.655-1.087,0.853s-0.998,0.296-1.6,0.296
			c-0.168,0-0.374-0.011-0.618-0.032s-0.568-0.081-0.973-0.179s-0.825-0.242-1.263-0.434V5.701c0.41,0.254,0.813,0.465,1.21,0.633
			s0.821,0.252,1.274,0.252c0.418,0,0.688-0.069,0.812-0.208s0.185-0.269,0.185-0.39c0-0.219-0.105-0.403-0.316-0.554
			s-0.518-0.306-0.92-0.466c-0.445-0.188-0.836-0.392-1.172-0.612s-0.61-0.497-0.823-0.829s-0.319-0.725-0.319-1.178
			c0-0.438,0.107-0.833,0.322-1.187c0.215-0.354,0.543-0.636,0.984-0.847S52.824,0,53.461,0c0.453,0,0.872,0.044,1.257,0.132
			s0.702,0.187,0.952,0.296s0.422,0.195,0.516,0.258V2.59c-0.332-0.238-0.702-0.451-1.11-0.639S54.23,1.67,53.766,1.67
			c-0.305,0-0.525,0.059-0.662,0.176s-0.205,0.262-0.205,0.434c0,0.16,0.068,0.299,0.205,0.416s0.381,0.26,0.732,0.428
			c0.625,0.293,1.125,0.557,1.5,0.791s0.669,0.505,0.882,0.812S56.537,5.414,56.537,5.871z"/>
	</g>
</g>
</svg>
