<svg xmlns="http://www.w3.org/2000/svg" viewBox="0 0 259.09 30"><defs><style>.cls-1{fill:#ffa000;}</style></defs><g id="レイヤー_2" data-name="レイヤー 2"><g id="object"><path class="cls-1" d="M28.76,17.82c-.67.58-1.87,1.83-1.87,2.62,0,1.73,3.29,1.73,4.3,1.73a33.71,33.71,0,0,0,9.62-1.44,18,18,0,0,0,.62,4.08,36.36,36.36,0,0,1-9.38,1.1c-3.75,0-5.23-.41-6.41-.89-.77-.31-3.05-1.44-3.05-3.86s2.5-4.73,3.48-5.62ZM38.84,9.93a16.67,16.67,0,0,0-6.05,3.91c-.86-.75-1.77-1.51-2.52-2.06.89-.82,1.11-1,1.8-1.56-1.49.12-5.52.33-7.56.28l-.19-4a48.3,48.3,0,0,0,6,.32A47.29,47.29,0,0,0,37,6.26ZM39.9,6.18A17.25,17.25,0,0,1,42.08,8.7a9.65,9.65,0,0,0-1.41,1.73,26.19,26.19,0,0,0-2.31-2.66Zm1.85-2A26.76,26.76,0,0,1,44,6.49a9.56,9.56,0,0,0-1.53,1.64,21.26,21.26,0,0,0-2.09-2.36Z"/><path class="cls-1" d="M57.73,26.94H54.27v-6.4a23.83,23.83,0,0,1-7,6.12,8.22,8.22,0,0,0-3.07-2.38,20.55,20.55,0,0,0,7.7-6.14H45V15h4.49a19.19,19.19,0,0,0-1.92-3.56l1.73-1H46.09V7.38h8.18V4.93l3.6.22c.29,0,.53,0,.53.36s-.48.41-.67.46V7.38h8.14V10.5H62.75l1.46.63c.17.07.24.17.24.29,0,.31-.29.36-.48.4A22,22,0,0,1,62.46,15H67v3.12H59.87a18.65,18.65,0,0,0,7.46,5.8,11.12,11.12,0,0,0-2.54,2.6,18.83,18.83,0,0,1-7.06-6.15ZM54.27,15V10.5H51.18a13.68,13.68,0,0,1,2,3.7,11.92,11.92,0,0,0-1.83.82Zm3.46-4.52V15h2.78a15.3,15.3,0,0,0-1.65-.87,18.78,18.78,0,0,0,1.82-3.65Z"/><path class="cls-1" d="M79.28,20.25a16.5,16.5,0,0,1-2.83,2.9,6.18,6.18,0,0,0-2.26-1.61c.43-.33.79-.6,1.35-1.08-1.49.65-3.32,1.35-5.26,2,0,.28-.1.62-.36.62s-.34-.31-.38-.55l-.82-3.39a17.74,17.74,0,0,0,2.71-.5V13.19H69V10.07h2.47v-5L75,5.27c.29,0,.51.05.51.26s-.15.29-.51.46v4.08h2.14v3.12H75v4.37c.58-.24.94-.38,1.52-.65h-.17V14.49H90.87v2.42H81.58l-.45.77h9.58c0,2.42-.08,7.22-1.64,8.45-.91.72-2.44.79-4,.79a7,7,0,0,0-.64-2.59,19,19,0,0,1-2.86,3,6.07,6.07,0,0,0-2.55-1.54,16.68,16.68,0,0,0,5.07-5.54H83.05a16.84,16.84,0,0,1-6.31,6.36,6.18,6.18,0,0,0-2.12-1.92,14.73,14.73,0,0,0,5.6-4.44ZM77.1,16.91a9.74,9.74,0,0,0-.17,2.14,15.17,15.17,0,0,0,1.46-2.14ZM89.19,13.7H78V5.25H89.19ZM86,8.56V7.74H81.23v.82Zm-4.72,1.92v.82H86v-.82Zm5.66,9.77A26.2,26.2,0,0,1,85,23.58a8,8,0,0,0,.84.05c.48,0,.92-.05,1.08-.6a11.81,11.81,0,0,0,.44-2.78Z"/><path class="cls-1" d="M104.31,22.82c5.21-1,6.75-5,6.75-7.49a5.68,5.68,0,0,0-5.55-5.88c-.74,8.78-4.37,15.33-6.91,15.33-1.87,0-5.35-3.16-5.35-7.6A11.78,11.78,0,0,1,105,6c5.26,0,9.84,3.58,9.84,9.31A11.21,11.21,0,0,1,112,22.72a13.4,13.4,0,0,1-5.21,3.48A15.37,15.37,0,0,0,104.31,22.82ZM96.8,16.89c0,1.85,1,3.24,1.54,3.24s1-1.08,1.29-1.71a20.9,20.9,0,0,0,1.85-8.25C98.7,11.2,96.8,14.73,96.8,16.89Z"/><path class="cls-1" d="M139,8.2v3.43H128.62c0,.89-.09,1.51-.14,2h7.59c0,8.12-.46,10.32-2.16,12-1.23,1.22-3.84,1.34-4.73,1.32a6.11,6.11,0,0,0-1.78-3.77c.65.1,2.28.36,2.52.36a1.77,1.77,0,0,0,1.92-1.39,16.42,16.42,0,0,0,.67-5.23h-4.68A16.17,16.17,0,0,1,119.19,27a6.41,6.41,0,0,0-3-2.6c4.27-1.34,8.74-4.82,8.74-12.79h-8V8.2h9V4.89l3.84.21c.14,0,.43.07.43.34s-.26.36-.43.43V8.2Z"/><path class="cls-1" d="M140.1,17.39a25.82,25.82,0,0,0,5.35-5.59c1.94-2.64,2.59-3.5,4.05-3.5s2.5,1,4.06,3A47.35,47.35,0,0,0,163.43,21a23.1,23.1,0,0,0-2.69,3.65,75,75,0,0,1-10.06-10.83c-.19-.24-.84-1-1.3-1s-.84.65-1.17,1.13a44.63,44.63,0,0,1-4.9,6.53Z"/><path class="cls-1" d="M176.31,22.82c5.21-1,6.75-5,6.75-7.49a5.68,5.68,0,0,0-5.55-5.88c-.74,8.78-4.37,15.33-6.91,15.33-1.87,0-5.35-3.16-5.35-7.6A11.78,11.78,0,0,1,177,6c5.26,0,9.84,3.58,9.84,9.31A11.21,11.21,0,0,1,184,22.72a13.4,13.4,0,0,1-5.21,3.48A15.37,15.37,0,0,0,176.31,22.82Zm-7.51-5.93c0,1.85,1,3.24,1.54,3.24s1-1.08,1.29-1.71a20.9,20.9,0,0,0,1.85-8.25C170.7,11.2,168.8,14.73,168.8,16.89Z"/><path class="cls-1" d="M199.09,5.51c.31,0,.5.1.5.31s-.26.34-.4.39c-.08.72-.13,1.56-.17,2.54a17.66,17.66,0,0,0,3.77-1.2c0,.89,0,2,0,2.54a9.9,9.9,0,0,0,0,1.3,17.86,17.86,0,0,1-3.94,1.08c0,.27,0,1.42,0,1.63a12.23,12.23,0,0,1,4.08-.72,6.37,6.37,0,0,1,6.65,6.51,5.56,5.56,0,0,1-5.69,6c-3.62,0-3.74-3.21-3.77-4.22.51-.17,2.67-.89,3-1,0,.48,0,1.61,1.13,1.61.91,0,1.51-.91,1.51-2.11A3,3,0,0,0,202.5,17a11.13,11.13,0,0,0-3.72.84,70.12,70.12,0,0,0,.31,7.22l-3.29,1.49a32.22,32.22,0,0,0-4.2-3.43c-.6.65-.89,1-1.22,1.39l-1.73-4.13c1.1-.6,5.47-3.91,6.43-4.51,0-.84,0-1,0-2.88-1.42.07-3.1.1-4.47.1V9.23a10.24,10.24,0,0,0,1.9.15c.93,0,2.28-.1,2.57-.1,0-1.8,0-2.06-.1-4.47ZM193.71,21a2.58,2.58,0,0,0,1.08.63c.36,0,.34-.84.31-1.76C194.82,20.1,194.31,20.46,193.71,21ZM206.24,8.22a20.46,20.46,0,0,1,5.23,3.84A16.72,16.72,0,0,0,209.15,15a13.94,13.94,0,0,0-5.09-3.77Z"/><path class="cls-1" d="M222.08,19.58l2-.44a36.14,36.14,0,0,1,1.08,4.28,9.1,9.1,0,0,0-2.33.69,33.61,33.61,0,0,0-.79-3.53v4.11c0,2.35-1.63,2.49-4.13,2.35a8.34,8.34,0,0,0-.53-2.71c.2,0,.29.05.53.09a6.86,6.86,0,0,0-2-.69,22.21,22.21,0,0,1-.72,3.07,15.63,15.63,0,0,0-2.88-.94c1.13-3.24,1.27-6.19,1.27-10.89V5.39h10.68V8.1h-1.63c.14.05.29.12.29.22s-.46.24-.6.26c-.07.19-.46,1-.53,1.2h2.52v9h-2.28Zm-2.78-.84h-2.21v-9h1.68c.21-.55.36-1,.57-1.68h-2.92V15a64.08,64.08,0,0,1-.34,8,21.48,21.48,0,0,0,1.08-3.93l2.14.53Zm0,2.11a24,24,0,0,1-1.16,3.6l.51,0c.57,0,.65-.12.65-.48Zm.48-7.71h1.92V12h-1.92Zm1.92,2h-1.92v1.18h1.92ZM229.43,24c.09.1.24.26.24.38s-.15.2-.24.2a.79.79,0,0,1-.32-.1,18.71,18.71,0,0,1-3.91,2.78A14.51,14.51,0,0,0,223,24.93a13.87,13.87,0,0,0,3.55-2.14h-1.41v-13h2.16c.19-.4.53-1.17.74-1.68h-3.19V5.39H235V8.1h-3.68c-.43,1-.52,1.18-.76,1.68h3.88v13h-2.06a11.82,11.82,0,0,0,3.1,2.26,19.75,19.75,0,0,0-2.16,2.23A23.63,23.63,0,0,1,229.45,24l1.39-1.23h-2.61Zm1.94-10.7V12.26H228.2v1.08Zm-3.17,2.35v1.13h3.17V15.69Zm0,3.36V20.2h3.17V19.05Z"/><path class="cls-1" d="M242.65,7.31c.21.07.48.14.48.36s-.29.36-.51.38a21.67,21.67,0,0,0-1.34,7.23c0,2.93.91,5,1.61,5s1.68-2.11,2.33-3.63a10.81,10.81,0,0,0,2.52,2.55c-1.92,4.65-4.11,6.29-5.28,6.29-1.35,0-4.9-2.86-4.9-10.28a42.63,42.63,0,0,1,1.18-9Zm11.59.17a23.94,23.94,0,0,1,4.85,12.07c-1.42.55-3.12,1.37-3.91,1.78a21.92,21.92,0,0,0-4-11.88Z"/><rect class="cls-1" width="10" height="30"/></g></g></svg>