<svg id="レイヤー_1" data-name="レイヤー 1" xmlns="http://www.w3.org/2000/svg" width="82" height="26" viewBox="0 0 82 26">
  <title>tgs_logo</title>
  <g>
    <polygon points="52.9 9 52.9 0 28.84 0 28.84 25.82 52.9 25.82 52.9 11.27 40.83 11.27 40.83 16.85 47.4 16.85 47.4 20.18 34.34 20.18 34.34 5.64 47.4 5.64 47.4 9 52.9 9"/>
    <polygon points="81.14 10.28 65.45 10.28 65.45 5.32 81.14 5.32 81.14 0 60.14 0 60.14 15.6 75.82 15.6 75.82 20.56 60.14 20.56 60.14 25.87 81.14 25.87 81.14 10.28"/>
    <polygon points="8.63 25.74 14.53 25.74 14.53 5.41 23.17 5.41 23.17 0.07 0 0.07 0 5.41 8.63 5.41 8.63 25.74"/>
  </g>
</svg>
