<svg height="18.53" viewBox="0 0 140 18.53" width="140" xmlns="http://www.w3.org/2000/svg"><path d="m413.432 2837.34h-8.584v8.88h2.5a2.212 2.212 0 0 1 1.8-.8 2.109 2.109 0 0 1 2.285 2.17c0 1.44-1.079 2.31-2.861 2.31a6.848 6.848 0 0 1 -3.833-1.17l-.739 2.94a9.591 9.591 0 0 0 4.588 1.15c3.581 0 5.884-2.06 5.884-5.26a4.857 4.857 0 0 0 -5.056-5.03 5.476 5.476 0 0 0 -1.673.25v-2.51h5.686v-2.93zm3.9 11.86v3.19h1.4c0 .66-.4.9-1.4.9v1.53c2.231-.02 3.167-.75 3.149-2.47v-3.15zm6.021 3.24a6.968 6.968 0 0 0 2.321.38c4.265 0 6.928-3.36 6.928-8.7a8.085 8.085 0 0 0 -1.512-5.27 5.109 5.109 0 0 0 -3.976-1.81 5.2 5.2 0 0 0 -5.237 5.42 4.745 4.745 0 0 0 4.715 5.02 4.074 4.074 0 0 0 2.627-.89c-.432 2.19-1.638 3.31-3.635 3.31a5.438 5.438 0 0 1 -2.231-.48zm3.833-12.47a2.375 2.375 0 0 1 -.054 4.75 2.177 2.177 0 0 1 -2.214-2.28 2.3 2.3 0 0 1 2.264-2.47zm9.247 12.47a6.974 6.974 0 0 0 2.322.38c4.264 0 6.927-3.36 6.927-8.7a8.085 8.085 0 0 0 -1.511-5.27 5.111 5.111 0 0 0 -3.977-1.81 5.2 5.2 0 0 0 -5.236 5.42 4.744 4.744 0 0 0 4.714 5.02 4.075 4.075 0 0 0 2.628-.89c-.432 2.19-1.638 3.31-3.635 3.31a5.443 5.443 0 0 1 -2.232-.48zm3.833-12.47a2.375 2.375 0 0 1 -.054 4.75 2.177 2.177 0 0 1 -2.213-2.28 2.3 2.3 0 0 1 2.263-2.47zm13.309-2.93c-3.382 0-5.272 2.81-5.272 7.89a11.194 11.194 0 0 0 1.044 5.34 4.693 4.693 0 0 0 4.174 2.55c3.455 0 5.345-2.77 5.345-7.87a11.532 11.532 0 0 0 -1.044-5.36 4.7 4.7 0 0 0 -4.251-2.55zm0 2.93c1.512 0 2.25 1.62 2.25 4.96q0 4.965-2.214 4.97c-1.547 0-2.267-1.59-2.267-5.02-.004-3.29.734-4.91 2.227-4.91zm21.276 7.43v3.36a.472.472 0 0 1 -.54.59h-2.483l.486 2.93h3.365c1.331 0 1.979-.72 1.961-2.19v-15.18h-15.587v17.37h2.771v-6.88h10.023zm-3.671-7.72h3.671v5.01h-3.671zm-6.352 0h3.672v5.01h-3.671v-5.01zm29.21 14.61a14.608 14.608 0 0 1 0-17.89h-2.34a14.408 14.408 0 0 0 0 17.89zm10.071-6.75h1.259a4.769 4.769 0 0 1 -3.095 4.47l1.62 2.38c2.663-1.61 3.778-3.57 3.886-6.85h.918v5c.018 1.26.432 1.7 1.638 1.75h2.213c1.475-.09 1.673-.54 1.889-4.32l-2.105-.66c-.036 1.95-.108 2.34-.45 2.34h-.27a.336.336 0 0 1 -.324-.43v-3.68h2.357v-7.38h-1.223a26.008 26.008 0 0 0 1.493-3.1l-2.771-.77a29.292 29.292 0 0 1 -1.673 3.87h-3.149l1.673-.46a19.254 19.254 0 0 0 -1.511-3.38l-2.627.8a21.1 21.1 0 0 1 1.385 3.04h-1.2v6.57a13.9 13.9 0 0 1 -1.926-2.97h1.422v-2.62h-1.494v-1.89a16.581 16.581 0 0 0 1.854-.4l-.9-2.56a24.9 24.9 0 0 1 -5.974.88l.4 2.55c.845-.05 1.421-.09 2.105-.15v1.57h-2.447v2.62h2.213a13.253 13.253 0 0 1 -2.483 4.31l.882 3.39a14.722 14.722 0 0 0 1.835-3.28v6.11h2.519v-6.81a8.426 8.426 0 0 0 1.062 2zm6.891-4.84v2.33h-4.43v-2.33zm13.712 4.82c-.162 4.09-.162 4.15-1.17 4.11h-1.494l.45 2.65h2.16c2.321-.1 2.465-.55 2.7-9.31h-4.391c.018-.53.018-.81.036-1.32h4.427v-6.65h-8.781v6.65h1.8c-.126 4.57-.666 6.44-2.483 8.44l1.907 2.22a11.46 11.46 0 0 0 2.9-6.79h1.944zm.2-8.06v1.79h-3.743v-1.79zm3.58-1.95v12.29h2.484v-12.29zm3.653-1.09v14.21c0 .66-.054.72-.54.74h-2.033l.468 2.91h2.96a1.625 1.625 0 0 0 1.691-1.82v-16.04h-2.555zm8.738 17.87a14.408 14.408 0 0 0 0-17.89h-2.34a14.608 14.608 0 0 1 0 17.89z" fill-rule="evenodd" transform="translate(-404 -2836.28)"/></svg>