<svg xmlns="http://www.w3.org/2000/svg" viewBox="0 0 65.85 73.39"><defs><style>.cls-1{fill:#d32f2f;}</style></defs><title>link_mark</title><g id="レイヤー_2" data-name="レイヤー 2"><g id="レイヤー_1-2" data-name="レイヤー 1"><polygon class="cls-1" points="1.06 73.39 4.12 73.39 44.39 0 41.36 0 1.06 73.39"/><polygon class="cls-1" points="6.15 73.39 9.21 73.39 49.49 0 46.44 0 6.15 73.39"/><polygon class="cls-1" points="11.25 73.39 14.29 73.39 54.61 0 51.56 0 11.25 73.39"/><polygon class="cls-1" points="16.35 73.39 19.39 73.39 59.71 0 56.67 0 16.35 73.39"/><polygon class="cls-1" points="21.46 73.39 24.5 73.39 64.8 0 61.76 0 21.46 73.39"/><polygon class="cls-1" points="13.72 18.38 20.99 32 22 29.84 15.71 18.38 17.38 18.38 22.81 28.22 23.7 26.24 19.35 18.38 21 18.38 24.48 24.7 30.39 12.2 23.71 0 0 0 19.18 35.87 20.07 33.87 12.08 18.38 13.72 18.38"/><polygon class="cls-1" points="45.67 73.39 47.66 73.39 37.98 55.8 37.05 57.71 45.67 73.39"/><polygon class="cls-1" points="42.15 73.39 44.12 73.39 36.35 59.25 35.44 61.25 42.15 73.39"/><polygon class="cls-1" points="38.77 54.22 49.3 73.39 51.29 73.39 39.67 52.24 38.77 54.22"/><polygon class="cls-1" points="40.69 50.21 52.94 73.39 65.85 73.39 46.67 37.56 40.69 50.21"/></g></g></svg>