<svg xmlns="http://www.w3.org/2000/svg" viewBox="0 0 100.85 13.81"><defs><style>.cls-1{fill:#fff;}.cls-2{fill:#d32f2f;}</style></defs><title>nav_logo</title><g id="レイヤー_2" data-name="レイヤー 2"><g id="レイヤー_1-2" data-name="レイヤー 1"><polygon class="cls-1" points="42.22 2.88 42.22 13.55 38.49 13.55 38.49 2.88 34.95 2.88 34.95 0 45.76 0 45.76 2.88 42.22 2.88"/><path class="cls-1" d="M53.17,8.81H51.65v4.74H48V0h5.34c3.54,0,5.35,1.58,5.35,4.29a3.68,3.68,0,0,1-2.2,3.63l3,5.44v.19H55.66Zm-1.52-6.2V6.27H53c1.56,0,2.16-.67,2.16-1.88s-.65-1.78-2.21-1.78Z"/><polygon class="cls-1" points="61.49 0 70.33 0 70.33 2.67 65.17 2.67 65.17 5.29 69.59 5.29 69.59 7.94 65.17 7.94 65.17 10.88 70.43 10.88 70.43 13.55 61.49 13.55 61.49 0"/><polygon class="cls-1" points="83.14 13.81 76.41 6.1 76.41 13.66 73.24 13.66 73.24 0 75.45 0 82.1 7.62 82.1 0.14 85.27 0.14 85.27 13.81 83.14 13.81"/><path class="cls-1" d="M88.25,0h4.87c4.37,0,7.73,2,7.73,6.88s-3.36,6.75-7.73,6.75H88.25ZM92,2.75v8.14h1c2.47,0,4.14-1,4.14-4S95.4,2.75,92.93,2.75Z"/><path class="cls-1" d="M6.83,10.52l0,.76H5.41v-.66h-4v.66H0c0-.21,0-.49,0-.76V3.35c0-.27,0-.55,0-.75H6.85c0,.25,0,.48,0,.75ZM1.44,5.88h4v-2h-4Zm4,1.26h-4v2.2h4Z"/><path class="cls-1" d="M11.51,10.85c0,.15,0,.32,0,.45h-1.2a3.24,3.24,0,0,0,0-.45V7.28l-1,.09-.47.07L8.69,6.29H9.3a1.19,1.19,0,0,0,.25,0q.29-.31.57-.69A19.1,19.1,0,0,0,8.75,4.14l.62-1,.32.33a7.14,7.14,0,0,0,.87-1.58l1,.6a1.58,1.58,0,0,0-.12.15,12.85,12.85,0,0,1-1.05,1.66c.12.13.22.26.32.39a9.92,9.92,0,0,0,1.13-1.9l1,.59a1.27,1.27,0,0,1-.14.17,31.16,31.16,0,0,1-1.85,2.6l.92-.09a7.54,7.54,0,0,0-.25-.76l.89-.23a14,14,0,0,1,.64,2.18c-.29.09-.67.21-1,.28A4.64,4.64,0,0,0,12,7.11l-.5,0ZM9.13,7.78l1,.17s0,.11,0,.2a10.79,10.79,0,0,1-.34,2.67c-.18-.07-.65-.26-1-.37a8.94,8.94,0,0,0,.37-2.67M17.55,10c.28,0,.51,0,.7,0v1.25c-.19,0-.42,0-.7,0H13.27c-.27,0-.51,0-.71,0V9.94L12,10.1a13.09,13.09,0,0,0-.27-2.24l.87-.22A13.88,13.88,0,0,1,13,9.82l-.38.11c.19,0,.42,0,.67,0H14.9V8.85H13.26V7.7H14.9V7.08c0-.09,0-.27,0-.36l1.36,0c0,.09,0,.22,0,.31V7.7h1.7V8.86h-1.7V10Zm-3-4.63a4.63,4.63,0,0,1-1-1.69H13V2.48h3.84l.09-.1A9.18,9.18,0,0,1,18,3.27l-.15.08a4.7,4.7,0,0,1-1.26,2,6.64,6.64,0,0,0,1.64.43c-.15.35-.38.93-.47,1.21a7,7,0,0,1-2.16-.82A7.87,7.87,0,0,1,13.5,7c-.11-.29-.39-.88-.56-1.25a6.5,6.5,0,0,0,1.63-.41M16.5,3.63H14.8a3.12,3.12,0,0,0,.81,1.1,2.8,2.8,0,0,0,.89-1.1"/><polygon class="cls-2" points="21.48 13.58 22.04 13.58 29.5 0 28.93 0 21.48 13.58"/><polygon class="cls-2" points="22.42 13.58 22.98 13.58 30.44 0 29.87 0 22.42 13.58"/><polygon class="cls-2" points="23.36 13.58 23.92 13.58 31.39 0 30.82 0 23.36 13.58"/><polygon class="cls-2" points="24.3 13.58 24.87 13.58 32.33 0 31.77 0 24.3 13.58"/><polygon class="cls-2" points="25.25 13.58 25.81 13.58 33.27 0 32.71 0 25.25 13.58"/><polygon class="cls-2" points="23.82 3.4 25.16 5.92 25.35 5.52 24.19 3.4 24.5 3.4 25.5 5.22 25.66 4.86 24.86 3.4 25.17 3.4 25.81 4.57 26.91 2.26 25.67 0 21.28 0 24.83 6.64 24.99 6.27 23.52 3.4 23.82 3.4"/><polygon class="cls-2" points="29.73 13.58 30.1 13.58 28.31 10.33 28.14 10.68 29.73 13.58"/><polygon class="cls-2" points="29.08 13.58 29.44 13.58 28.01 10.96 27.84 11.33 29.08 13.58"/><polygon class="cls-2" points="28.45 10.03 30.4 13.58 30.77 13.58 28.62 9.67 28.45 10.03"/><polygon class="cls-2" points="28.81 9.29 31.08 13.58 33.47 13.58 29.92 6.95 28.81 9.29"/></g></g></svg>