<svg xmlns="http://www.w3.org/2000/svg" width="560" height="245" viewBox="0 0 560 245"><defs><style>.cls-1{fill:#e6e6e6;}.cls-2{fill:#fff;}.cls-3{fill:#3c3c3c;}.cls-4{fill:#ff9600;}</style></defs><g id="レイヤー_2" data-name="レイヤー 2"><g id="object"><rect class="cls-1" width="560" height="245" rx="10"/><path class="cls-2" d="M555,65V235a5,5,0,0,1-5,5H10a5,5,0,0,1-5-5V65Z"/><path class="cls-3" d="M41.92,26.76c-.16.23-.21.34-.55,1.61C40,33.18,38,36.43,35,39.16a23.88,23.88,0,0,1-8.16,4.89,5.07,5.07,0,0,0-1.28-1.79,20.87,20.87,0,0,0,9.52-5.91,21.06,21.06,0,0,0,4.55-9.25H26.4a20.06,20.06,0,0,0-2.92.15V25.17a18.45,18.45,0,0,0,2.94.16H39c.55,0,.89,0,1.53,0a17.59,17.59,0,0,0-2.44-3.53l1.3-.68a19.07,19.07,0,0,1,2.81,4.16l-1,.57Zm.8-6.58a22.52,22.52,0,0,1,2.74,4L44.13,25a19.7,19.7,0,0,0-2.68-4.08Z"/><path class="cls-3" d="M48.26,31.83a18.38,18.38,0,0,0,3.23.16h15.1a21.11,21.11,0,0,0,3.15-.13V34a29.46,29.46,0,0,0-3.17-.1H51.49a28.35,28.35,0,0,0-3.23.1Z"/><path class="cls-3" d="M94,43.11a48.66,48.66,0,0,0-8.33-8,27.94,27.94,0,0,1-5,4.65,33.36,33.36,0,0,1-5.1,3.12,5.65,5.65,0,0,0-1.27-1.71,21.3,21.3,0,0,0,5.28-3,28.22,28.22,0,0,0,9.28-11.73c.05-.15.08-.18.13-.31a.91.91,0,0,0,.08-.18,5.83,5.83,0,0,1-.63,0l-8.68.13a18,18,0,0,0-2.68.21l0-2.1a12.62,12.62,0,0,0,2,.13h.68L89,24.21A4.67,4.67,0,0,0,90.7,24l1.09,1.12a4.71,4.71,0,0,0-.73,1.28,31.92,31.92,0,0,1-4.29,7.28,65.14,65.14,0,0,1,8.66,7.8Z"/><path class="cls-3" d="M110,24.16c-2.57.18-5.22.31-7.85.34a4.81,4.81,0,0,0-.7-1.51c1,0,1.58,0,2.13,0,6,0,12.12-.72,15.26-1.79L120,22.7l-.49.08-.55.1c-1.9.4-5.27.89-7.41,1.12v3.93h3.12A17.87,17.87,0,0,0,116.77,24l1.59.6a24.89,24.89,0,0,1-2,3.33h3.12a14.15,14.15,0,0,0,2.62-.16v1.69a18.89,18.89,0,0,0-2.62-.15h-6.4a24.47,24.47,0,0,0,10,5,5.36,5.36,0,0,0-.91,1.56c-2.14-.83-2.29-.91-3.25-1.35,0,.6,0,.8,0,1.45v6.48a14.8,14.8,0,0,0,.16,2.44h-1.7v-1.4H104.66v1.4H103a17,17,0,0,0,.15-2.42V36c0-.52,0-1.07,0-1.46a31.34,31.34,0,0,1-3,1.3,4.24,4.24,0,0,0-.93-1.45,23.25,23.25,0,0,0,9.28-5.07h-6.09a18.89,18.89,0,0,0-2.62.15V27.77a16.16,16.16,0,0,0,2.62.16h2.94a16,16,0,0,0-1.61-2.6l1.38-.6a20.7,20.7,0,0,1,1.87,3.2h3Zm6.76,9.75h.89a21.68,21.68,0,0,1-6.19-4.47c0,.15,0,.23,0,.41,0,.37,0,.47,0,.6v.94a15.84,15.84,0,0,0,.08,1.77h-1.74a12.08,12.08,0,0,0,.1-1.77v-.91a7.18,7.18,0,0,1,.11-1,19.86,19.86,0,0,1-5.78,4.45h12.43Zm-12.11,4H110V35.26h-5.38Zm0,4.19H110V39.24h-5.38Zm6.89-4.19h5.79V35.26h-5.79Zm0,4.19h5.75V39.24h-5.75Z"/><path class="cls-3" d="M128.11,32.82a19.54,19.54,0,0,0-2.68.15V31.13a18.75,18.75,0,0,0,2.68.15h17.78a19.22,19.22,0,0,0,2.71-.15V33a20,20,0,0,0-2.71-.15h-12a29.55,29.55,0,0,1-1.28,2.7h9.49a24.56,24.56,0,0,0,2.92-.1,1.85,1.85,0,0,0-.08.47c-.11.91-.11.91-.18,1.35-.5,3.69-1,5.64-1.72,6.45-.52.62-1.35.85-3,.85-1.2,0-2.81-.1-4.34-.26a5.71,5.71,0,0,0-.39-1.74A35.08,35.08,0,0,0,140,43c1.17,0,1.56-.13,1.85-.65A18,18,0,0,0,143.08,37H131.85c-.49.83-.73,1.19-1.45,2.26l-1.85-.39a24.18,24.18,0,0,0,3.51-6Zm.83-8.82a16.57,16.57,0,0,0-.1-1.95,25.14,25.14,0,0,0,2.91.13h10.42a19.41,19.41,0,0,0,2.94-.13A16.57,16.57,0,0,0,145,24v3.38a16.22,16.22,0,0,0,.1,1.93,25.38,25.38,0,0,0-2.73-.11H131.59a26.41,26.41,0,0,0-2.75.11,17.06,17.06,0,0,0,.1-1.93Zm1.64-.36v4.13h12.76V23.64Z"/><path class="cls-3" d="M161.86,36c-1.51,3.44-3.05,5-4.92,5-2.47,0-4.31-2.71-4.31-6.35A10.56,10.56,0,0,1,163.75,24a10.11,10.11,0,0,1,7.16,2.57,8.75,8.75,0,0,1,2.52,6.35,9.48,9.48,0,0,1-6,9,20.49,20.49,0,0,1-3.95,1.19,4.13,4.13,0,0,0-.91-1.74A15.53,15.53,0,0,0,167,40.1a7.84,7.84,0,0,0,4.6-7.28,6.84,6.84,0,0,0-4.13-6.53,7.52,7.52,0,0,0-3-.65A39,39,0,0,1,161.86,36Zm-3.2-9.07a9,9,0,0,0-4.24,7.75c0,2.49,1.09,4.42,2.5,4.42,1.09,0,2.13-1.22,3.25-3.77a36.06,36.06,0,0,0,2.36-9.62A8.15,8.15,0,0,0,158.66,26.89Z"/><path class="cls-3" d="M183.72,37.24c-1.45,0-2.13,0-2.94.08a19.28,19.28,0,0,0,.13-2.73V25.77a33.27,33.27,0,0,0-.13-3.46,21.24,21.24,0,0,0,2.79.13h10.86a27.39,27.39,0,0,0,2.79-.13,33.83,33.83,0,0,0-.13,3.46v8.82a18.79,18.79,0,0,0,.13,2.73c-.73-.06-1.51-.08-2.92-.08H192v4.7c0,.81.26.89,2.92.89,2.46,0,3.06-.11,3.43-.65a8.73,8.73,0,0,0,.62-3.41,7.58,7.58,0,0,0,1.64.7c-.6,4.66-.89,4.89-5.82,4.89-2.14,0-3.31-.13-3.83-.44s-.62-.62-.62-1.46V37.24h-3.17A7.67,7.67,0,0,1,184.92,42c-1.54,1.48-3.43,2.37-6.66,3.07a5.19,5.19,0,0,0-.91-1.56,15.88,15.88,0,0,0,4-1.09A6.49,6.49,0,0,0,184.94,39a5.81,5.81,0,0,0,.47-1.79Zm-1.19-10.43h12.94V24H182.53Zm0,4.45h12.94v-3H182.53Zm0,4.55h12.94v-3.1H182.53Z"/><path class="cls-3" d="M213.91,23.67a14.68,14.68,0,0,0-.18-2.29h2.08a12,12,0,0,0-.16,2.29v1.95h8a18.2,18.2,0,0,0,3-.19v1.95a16.41,16.41,0,0,0-2.94-.15H213.8a34.8,34.8,0,0,1-.36,3.72h7.1a17,17,0,0,0,2.68-.13c-.05.51-.08.8-.13,1.82a55.28,55.28,0,0,1-1,8.86c-.55,2.24-1.17,2.78-3.25,2.78a35.18,35.18,0,0,1-3.62-.23,5.52,5.52,0,0,0-.41-1.85,20.75,20.75,0,0,0,3.93.42c1.11,0,1.37-.31,1.76-2.24a49.25,49.25,0,0,0,.81-7.87h-8.17a17.35,17.35,0,0,1-2.47,6.65,16.34,16.34,0,0,1-3.22,3.59,15.74,15.74,0,0,1-2.83,1.9,5.06,5.06,0,0,0-1.28-1.46A13.43,13.43,0,0,0,208.63,39c2.13-2.76,3.15-6.29,3.35-11.75h-5.46a21,21,0,0,0-2.91.15V25.43a17.36,17.36,0,0,0,2.89.19h7.41Z"/><path class="cls-4" d="M200,86a4.05,4.05,0,0,1,4,4v40a4.05,4.05,0,0,1-4,4H29a4.05,4.05,0,0,1-4-4V90a4.05,4.05,0,0,1,4-4H200m0-6H29A10,10,0,0,0,19,90v40a10,10,0,0,0,10,10H200a10,10,0,0,0,10-10V90a10,10,0,0,0-10-10Z"/><rect class="cls-4" x="19" y="80" width="131" height="60" rx="10"/><path class="cls-2" d="M39.62,111.22c.17.1.27.21.27.33s-.27.23-.54.21A26.51,26.51,0,0,1,35,117.24a15.2,15.2,0,0,0-2.41-1.78,16,16,0,0,0,4.6-5.67Zm1.32-9.91,2.8.1c.27,0,.46.06.46.25s-.17.23-.36.32v3.82H50.9v2.56H43.84v7.94c0,1.45,0,3.17-3.38,3.17-.38,0-1,0-1.43-.09a8,8,0,0,0-.9-2.81,15.07,15.07,0,0,0,1.91.19c.9,0,.9-.32.9-1.64v-6.76H33.87V105.8h7.07Zm6.56,8.35A28.56,28.56,0,0,1,51.82,115c-.71.54-1.72,1.49-2.16,1.91a28.56,28.56,0,0,0-4.26-5.63Z"/><path class="cls-2" d="M72.57,109v3H54.45v-3Z"/><path class="cls-2" d="M82.08,102.48c.21,0,.49,0,.49.27s-.21.34-.38.4v5.15c0,5.33-2.37,7.72-5.23,10a9.17,9.17,0,0,0-2.37-2c4-2.54,4.55-4.92,4.55-7.81v-6.16Zm5.21-.19c.23,0,.4,0,.4.23s-.21.3-.4.4v11a22,22,0,0,0,6-5.85,7.94,7.94,0,0,0,1.4,2.6,31.36,31.36,0,0,1-6,5.9c-1.75,1.26-1.93,1.41-2.48,1.87l-1.93-1.26c0-.57.08-1.09.08-1.66V102.15Z"/><path class="cls-2" d="M112.05,120h-2.5v-.77h-8.08V120H99v-7c-.67.42-1.32.78-2,1.14a6.84,6.84,0,0,0-1.78-2,21.16,21.16,0,0,0,6.53-4.07H95.9v-2.06h4.31A11.13,11.13,0,0,0,99,104.48l1.14-.55c-.36,0-2,.06-2.29.06a7.21,7.21,0,0,0-.68-2.16c.55,0,3.7.06,3.93.06a43.11,43.11,0,0,0,6.72-.56,17.25,17.25,0,0,0,3.34-.84l1.49,1.8c.17.21.23.3.23.46s-.13.19-.25.19a2.58,2.58,0,0,1-.76-.27,16.83,16.83,0,0,1-1.82.42l2.35.82c.14.06.19.13.19.21s-.24.23-.61.31a16.54,16.54,0,0,1-1.14,1.66h4.33v2.06H109a19.9,19.9,0,0,0,6.74,3.91c-1.28,1.23-1.47,1.65-1.61,2-1.1-.48-1.6-.76-2-1Zm-2.25-8.35a16.4,16.4,0,0,1-3.08-2.71v2.25h-2.48v-2.15a24.36,24.36,0,0,1-3.13,2.61Zm-5.56,3v-1h-2.77v1Zm0,2.69v-1h-2.77v1Zm0-13.55c-.61,0-1.83.11-2.58.13a11.34,11.34,0,0,1,1.19,1.74l-1.15.44h2.54Zm4,1.77a9.36,9.36,0,0,0,1.45-2.38,27.32,27.32,0,0,1-3,.4v2.52h3.06Zm1.3,9.09v-1h-2.83v1Zm-2.83,1.64v1h2.83v-1Z"/><path class="cls-2" d="M133.38,112.33a20.06,20.06,0,0,1-1.4,6.09c-.67,1.21-1.62,1.72-4.31,1.72-.46,0-.75,0-1.07,0a6,6,0,0,0-.63-2.5,11,11,0,0,0,2.06.21c1.22,0,1.91-.17,2.31-3.34h-7.58a14.24,14.24,0,0,1-1,2,7.29,7.29,0,0,0-2.52-.77,25.26,25.26,0,0,0,2.33-4.83h-4.68v-2.08h19.21v2.08H124.23c-.4,1-.44,1.15-.57,1.47Zm-.14-11v6.11H119.76v-6.11Zm-10.9,2.08v1.89h8.29v-1.89Z"/><path class="cls-4" d="M529,86a4.05,4.05,0,0,1,4,4v40a4.05,4.05,0,0,1-4,4H248a4.05,4.05,0,0,1-4-4V90a4.05,4.05,0,0,1,4-4H529m0-6H248a10,10,0,0,0-10,10v40a10,10,0,0,0,10,10H529a10,10,0,0,0,10-10V90a10,10,0,0,0-10-10Z"/><rect class="cls-4" x="308" y="80" width="231" height="60" rx="10"/><path class="cls-2" d="M326.12,111.22c.17.1.27.21.27.33s-.27.23-.54.21a26.51,26.51,0,0,1-4.35,5.48,15.2,15.2,0,0,0-2.41-1.78,16,16,0,0,0,4.6-5.67Zm1.32-9.91,2.8.1c.27,0,.46.06.46.25s-.17.23-.36.32v3.82h7.06v2.56h-7.06v7.94c0,1.45,0,3.17-3.38,3.17-.38,0-1,0-1.43-.09a8,8,0,0,0-.9-2.81,15.07,15.07,0,0,0,1.91.19c.9,0,.9-.32.9-1.64v-6.76h-7.07V105.8h7.07Zm6.56,8.35a28.56,28.56,0,0,1,4.32,5.38c-.71.54-1.72,1.49-2.16,1.91a28.56,28.56,0,0,0-4.26-5.63Z"/><path class="cls-2" d="M359.07,109v3H341v-3Z"/><path class="cls-2" d="M368.58,102.48c.21,0,.49,0,.49.27s-.21.34-.38.4v5.15c0,5.33-2.37,7.72-5.23,10a9.17,9.17,0,0,0-2.37-2c4-2.54,4.55-4.92,4.55-7.81v-6.16Zm5.21-.19c.23,0,.4,0,.4.23s-.21.3-.4.4v11a22,22,0,0,0,6-5.85,7.94,7.94,0,0,0,1.4,2.6,31.36,31.36,0,0,1-6,5.9c-1.75,1.26-1.93,1.41-2.48,1.87l-1.93-1.26c0-.57.08-1.09.08-1.66V102.15Z"/><path class="cls-2" d="M400.84,104.18v13.57c0,1,0,2.35-2.84,2.35l-1.55,0a5.79,5.79,0,0,0-.95-2.81,13,13,0,0,0,1.92.23c.33,0,.77,0,.77-.88V113.9a6.64,6.64,0,0,0-1.61,1.81,9.61,9.61,0,0,1-4.5-4.89,13.74,13.74,0,0,1-4.7,5.35,5.81,5.81,0,0,0-1.53-2v5.83h-2.67V104.18h7.47v-3.4l2.8.15c.1,0,.46,0,.46.27s-.23.34-.55.42v2.31c0,.06,0,.19,0,.25Zm-15,9.7a8.6,8.6,0,0,0,4.74-7.2h-4.74Zm7.51-7.2a7,7,0,0,0,1.26,3.88,10.38,10.38,0,0,0,3.57,3v-6.93Z"/><path class="cls-2" d="M422.28,104.33c-5.25,0-9.91,4.28-9.91,8.13,0,2.45,1.72,4.05,6.17,4.38a15.58,15.58,0,0,0-1.32,3.17c-3.19-.71-7.67-2.54-7.67-7.3,0-2.82,1.6-5.23,4.41-7.39a88.61,88.61,0,0,0-9.57,1.32l-.4-3.38a13.12,13.12,0,0,0,1.37.06,82.79,82.79,0,0,0,16.37-2Zm-3.51,3.38A26.79,26.79,0,0,1,420.6,110a15.4,15.4,0,0,0-1.41,1.22,18.28,18.28,0,0,0-1.78-2.34Zm2-1.55a14.29,14.29,0,0,1,1.91,2.22,11.11,11.11,0,0,0-1.37,1.2,16.89,16.89,0,0,0-1.84-2.37Z"/><path class="cls-2" d="M434.21,116.82c5-.94,6.23-4.64,6.23-6.84a5.34,5.34,0,0,0-5.35-5.48c-.71,7.83-3.74,13.46-5.9,13.46-1.62,0-4.45-2.65-4.45-6.41a10.09,10.09,0,0,1,10-9.61c4.48,0,8.49,3,8.49,8a9.26,9.26,0,0,1-2.48,6.36,11.45,11.45,0,0,1-4.72,3A13.37,13.37,0,0,0,434.21,116.82Zm-6.8-5.46c0,1.79.94,3.19,1.59,3.19s1.2-1.42,1.53-2.26a19.91,19.91,0,0,0,1.58-7.29A7.29,7.29,0,0,0,427.41,111.36Z"/><path class="cls-2" d="M450.25,109v5.86c.15,1.59.44,2.64,3.51,2.64,7.58,0,8.52,0,11.21-.48a5.31,5.31,0,0,0-.88,2.56h-9.76c-3,0-4.18-.46-5.21-1.93-.44.4-1.37,1.2-2.29,1.91a1.62,1.62,0,0,1,0,.3c0,.16-.06.33-.23.33s-.25-.15-.34-.29l-1.32-2.4a16.44,16.44,0,0,0,2.71-1.53v-4.64h-2.14V109ZM447,100.91a19.68,19.68,0,0,1,3.69,3.1c-.54.51-.86.87-1.82,1.89a27.34,27.34,0,0,0-3.43-3.19Zm9.3,12.66h-2.14v3.19h-2.36v-10.9h3.49c-.94-.71-1.51-1.07-2-1.36l1.15-1.2h-2.56v-2h9.57l.93,1.1a28,28,0,0,1-3.95,3.5h4.77v8.8c0,1.57-.93,2.14-3.34,2.18a5.88,5.88,0,0,0-.72-2.2,10.18,10.18,0,0,0,1.12.08c.58,0,.58-.25.58-.5v-.65h-2.22v2.83h-2.35Zm0-5.84h-2.14V109h2.14Zm0,2.92h-2.14v1.22h2.14ZM455,103.3c.61.46,1.55,1.13,1.87,1.37a13.77,13.77,0,0,0,1.74-1.37Zm3.63,5.65h2.22v-1.22h-2.22Zm0,2.92h2.22v-1.22h-2.22Z"/><path class="cls-2" d="M473.5,101.64c.34,0,.48.07.48.3s-.29.31-.46.35a64.1,64.1,0,0,0-.61,9.43c0,3.61.34,5,2.29,5,3.57,0,6.74-4.26,7.6-6.11a13.92,13.92,0,0,0,2.12,2.35c-3.42,5.5-7.52,6.72-10,6.72-4.77,0-4.92-4.54-4.92-8.74,0-1.32.24-7.16.24-8.35,0-.86,0-1-.05-1.43Z"/><path class="cls-2" d="M503.55,120h-2.5v-.77H493V120h-2.46v-7c-.67.42-1.32.78-2,1.14a6.84,6.84,0,0,0-1.78-2,21.16,21.16,0,0,0,6.53-4.07H487.4v-2.06h4.31a11.13,11.13,0,0,0-1.18-1.61l1.14-.55c-.36,0-2,.06-2.29.06a7.21,7.21,0,0,0-.68-2.16c.55,0,3.7.06,3.93.06a43.11,43.11,0,0,0,6.72-.56,17.25,17.25,0,0,0,3.34-.84l1.49,1.8c.17.21.23.3.23.46s-.13.19-.25.19a2.58,2.58,0,0,1-.76-.27,16.83,16.83,0,0,1-1.82.42l2.35.82c.14.06.19.13.19.21s-.24.23-.61.31a16.54,16.54,0,0,1-1.14,1.66h4.33v2.06h-6.24a19.9,19.9,0,0,0,6.74,3.91c-1.28,1.23-1.47,1.65-1.61,2-1.1-.48-1.6-.76-2-1Zm-2.25-8.35a16.4,16.4,0,0,1-3.08-2.71v2.25h-2.48v-2.15a24.36,24.36,0,0,1-3.13,2.61Zm-5.56,3v-1H493v1Zm0,2.69v-1H493v1Zm0-13.55c-.61,0-1.83.11-2.58.13a11.34,11.34,0,0,1,1.19,1.74l-1.15.44h2.54Zm4,1.77a9.36,9.36,0,0,0,1.45-2.38,27.32,27.32,0,0,1-3,.4v2.52h3.06Zm1.3,9.09v-1h-2.83v1Zm-2.83,1.64v1h2.83v-1Z"/><path class="cls-2" d="M524.88,112.33a20.06,20.06,0,0,1-1.4,6.09c-.67,1.21-1.62,1.72-4.31,1.72-.46,0-.75,0-1.07,0a6,6,0,0,0-.63-2.5,11,11,0,0,0,2.06.21c1.22,0,1.91-.17,2.31-3.34h-7.58a14.24,14.24,0,0,1-1,2,7.29,7.29,0,0,0-2.52-.77,25.26,25.26,0,0,0,2.33-4.83h-4.68v-2.08h19.21v2.08H515.73c-.4,1-.44,1.15-.57,1.47Zm-.14-11v6.11H511.26v-6.11Zm-10.9,2.08v1.89h8.29v-1.89Z"/><path class="cls-3" d="M276.49,110.55c0,4.51-1.18,13.31-10.62,13.31s-10.62-8.76-10.62-13.31c0-4.35,1.09-13.31,10.62-13.31S276.49,106,276.49,110.55Zm-16.31,0c0,1.38,0,9.28,5.69,9.28s5.67-7.9,5.67-9.28,0-9.28-5.67-9.28S260.18,109.05,260.18,110.55Z"/><path class="cls-3" d="M293.74,123.16h-4.8v-17h-5.37v-3.52c2.69-.13,5.25-.45,6.37-4.67h3.8Z"/><path class="cls-3" d="M228.64,112v4h-9.28v-4Z"/><path class="cls-3" d="M180.74,123.16h-4.8v-17h-5.37v-3.52c2.69-.13,5.25-.45,6.37-4.67h3.8Z"/><path class="cls-3" d="M41.23,162.86l.83.86L32.83,173l9.23,9.23-.83.86L32,173.94l-9.2,9.15-.86-.86L31.17,173l-9.23-9.28.86-.86,9.2,9.23ZM26.54,173a2,2,0,0,1-2,2,2,2,0,0,1-2-2,2,2,0,0,1,4,0Zm7.44,7.6a2,2,0,0,1-2,2,2,2,0,0,1-.18-4h.08s0,0,.05,0l.05,0A2,2,0,0,1,34,180.57Zm0-15.11a2,2,0,0,1-2,2,2,2,0,1,1,0-4A2,2,0,0,1,34,165.46ZM41.41,173a2,2,0,1,1-2-2A2,2,0,0,1,41.41,173Z"/><path class="cls-3" d="M61.46,182.72a19.6,19.6,0,0,0-.81-2.65l-1.35-3.35H50.23l-1.36,3.35a14.37,14.37,0,0,0-.8,2.65H45.36a15.85,15.85,0,0,0,1.41-3l5.82-14.35a14.06,14.06,0,0,0,.83-2.42h2.63a13.43,13.43,0,0,0,.88,2.42l5.83,14.35a25.28,25.28,0,0,0,1.38,3Zm-6.14-16.38c-.08-.2-.08-.23-.57-1.66l-.29.86c-.15.41-.23.7-.28.8l-3.33,8.58h7.83Z"/><path class="cls-3" d="M73.94,179.79a15.57,15.57,0,0,0,.21,2.93H71.7a15,15,0,0,0,.21-2.93v-15H67.85a18.79,18.79,0,0,0-3,.18v-2.18a18.43,18.43,0,0,0,3,.18H78a18.36,18.36,0,0,0,3.07-.18V165a18.83,18.83,0,0,0-3.07-.18h-4Z"/><path class="cls-3" d="M95.65,168.55H93.07V166h2.58ZM93.07,180v-2.57h2.58V180Z"/><path class="cls-3" d="M120.82,168.22a9.22,9.22,0,0,0-.11,1.82c-.08,4.34-.8,6.91-2.57,9.15a14.22,14.22,0,0,1-6.66,4.5,5.08,5.08,0,0,0-1.19-1.75,12.13,12.13,0,0,0,4.75-2.39c2.76-2.21,3.77-4.86,3.77-9.93a6.69,6.69,0,0,0-.1-1.4Zm10.27-3.28a4.71,4.71,0,0,0-.63,1,15.56,15.56,0,0,1-7.59,7.41,5.2,5.2,0,0,0-1.27-1.48,11.23,11.23,0,0,0,4.1-2.47,13.94,13.94,0,0,0,2.92-3.88H113.85a26,26,0,0,0-3.07.13v-2a19,19,0,0,0,3.09.18h14c1.74,0,1.74,0,2.21-.18Z"/><path class="cls-3" d="M141.07,183.69a17.19,17.19,0,0,0,.16-2.73V164.81a15.68,15.68,0,0,0-.16-2.65h2.24a15.58,15.58,0,0,0-.13,2.7v4.86a64.37,64.37,0,0,1,11.57,5.49l-1.12,1.92a53,53,0,0,0-9.7-5.14,2.88,2.88,0,0,1-.81-.45l-.05,0a8.79,8.79,0,0,1,.11,1.53v7.83a17,17,0,0,0,.13,2.76Z"/><path class="cls-3" d="M167.64,162.81a14,14,0,0,0-.1,2.15v7a13.72,13.72,0,0,0,.1,2.16h-2.16a15.39,15.39,0,0,0,.11-2.19V165a14.69,14.69,0,0,0-.11-2.18Zm11.52,0a11.92,11.92,0,0,0-.13,2.26v3.07c0,4.13-.18,6.42-.65,7.93a9.87,9.87,0,0,1-4.94,5.77,20.29,20.29,0,0,1-4.73,1.87,5,5,0,0,0-1.09-1.79,15.11,15.11,0,0,0,4.94-1.77,7.79,7.79,0,0,0,4.16-5.49,32.84,32.84,0,0,0,.36-6.63v-2.94a15.61,15.61,0,0,0-.1-2.28Z"/><path class="cls-3" d="M204.69,166.29a6.07,6.07,0,0,0,2.19-.15l1.06,1c-.23.42-.23.42-.57,2.63a16.19,16.19,0,0,1-4.71,9.49,20.37,20.37,0,0,1-7.61,4.31,5.4,5.4,0,0,0-1.2-1.77,17.26,17.26,0,0,0,5.75-2.52c3.64-2.52,5.53-6.08,6-11.36h-14.2v3.9a18.88,18.88,0,0,0,.08,1.92h-2.13c.05-.44.1-1.27.1-1.95v-3.51a16.6,16.6,0,0,0-.1-2.1,21.65,21.65,0,0,0,2.39.1h5.51v-2.62a7.76,7.76,0,0,0-.13-1.67h2.19a10,10,0,0,0-.13,1.64v2.65Z"/><path class="cls-3" d="M224.58,162.75a10.53,10.53,0,0,0-.7,1.88,141.85,141.85,0,0,1-5.41,15.21c3.46-.24,9.57-1,12.64-1.64a49.54,49.54,0,0,0-4-6.73l1.62-.89a67.28,67.28,0,0,1,6.47,11.75l-1.82,1a37.46,37.46,0,0,0-1.53-3.51,161,161,0,0,1-16,2.16,17,17,0,0,0-2.21.29l-.26-2.16.72,0c.19,0,1.62-.07,2.21-.13a96.43,96.43,0,0,0,3.93-10.29,48.85,48.85,0,0,0,2-7.49Z"/><path class="cls-3" d="M41.23,200.86l.83.86L32.83,211l9.23,9.23-.83.86L32,211.94l-9.2,9.15-.86-.86L31.17,211l-9.23-9.28.86-.86,9.2,9.23ZM26.54,211a2,2,0,0,1-2,2,2,2,0,0,1-2-2,2,2,0,0,1,4,0Zm7.44,7.6a2,2,0,0,1-2,2,2,2,0,0,1-.18-4h.08s0,0,.05,0l.05,0A2,2,0,0,1,34,218.57Zm0-15.11a2,2,0,0,1-2,2,2,2,0,1,1,0-4A2,2,0,0,1,34,203.46ZM41.41,211a2,2,0,1,1-2-2A2,2,0,0,1,41.41,211Z"/><path class="cls-3" d="M61,206.58a6,6,0,0,0-1.22-2.29,5.7,5.7,0,0,0-4.5-1.87c-4.21,0-6.86,3.22-6.86,8.4s2.68,8.42,6.86,8.42a5.91,5.91,0,0,0,4.86-2.18,5.78,5.78,0,0,0,1-2.6l2.16.52a8.43,8.43,0,0,1-1.4,3.09,8.08,8.08,0,0,1-6.74,3,8.27,8.27,0,0,1-6.08-2.29,12.51,12.51,0,0,1,.16-16,8.17,8.17,0,0,1,6-2.21A7.69,7.69,0,0,1,63.12,206Z"/><path class="cls-3" d="M81.22,220.91a17.08,17.08,0,0,0-3-.19H68.43c-1.56,0-2.14,0-3,.08V219a19,19,0,0,0,1.9-2.21l9.85-12.93c.26-.31.58-.67,1-1.11-.52,0-1.23.07-1.59.07H69.47a19.29,19.29,0,0,0-3,.18v-2.18a19,19,0,0,0,3,.18h8.39c1.07,0,1.9,0,2.92-.08v1.8a18.44,18.44,0,0,0-1.88,2.21l-9.59,12.58c-.36.47-.7.86-1.25,1.49.89-.06,1.38-.06,2-.06h8.12a21.24,21.24,0,0,0,3-.18Z"/><path class="cls-3" d="M96.32,206.55H93.75V204h2.57ZM93.75,218v-2.57h2.57V218Z"/><path class="cls-3" d="M115.1,219a20,20,0,0,0-2.79.1v-2.05a13.21,13.21,0,0,0,2.84.18h12.37V204.68H115.69a22.53,22.53,0,0,0-3,.13v-2.08a14,14,0,0,0,3,.18h12.48c.34,0,.71,0,1.36,0a19.84,19.84,0,0,0-.06,2V218.2a19,19,0,0,0,.13,2.37h-2.08V219Z"/><path class="cls-3" d="M138.76,215.06a78.44,78.44,0,0,1,16.61,4.34l-.73,1.9a44,44,0,0,0-8.81-2.92A77.85,77.85,0,0,0,138,216.8Zm2-7.31a82.87,82.87,0,0,1,12.82,3l-.67,1.87a61.2,61.2,0,0,0-12.9-3.17Zm.47-7.1a81.59,81.59,0,0,1,13.11,2.86l-.68,1.9a66.85,66.85,0,0,0-13.18-3Z"/><path class="cls-3" d="M179.32,219.35a10.73,10.73,0,0,0,2.34-.16v1.9a13.78,13.78,0,0,0-2.37-.13H166.55a13.45,13.45,0,0,0-2.37.13v-1.9a10.9,10.9,0,0,0,2.34.16h7.91c.6-2.79,1.19-6.61,1.43-8.95h-6.94a10.94,10.94,0,0,0-2.29.11v-1.88a12.9,12.9,0,0,0,2.31.16h7a2.7,2.7,0,0,0,1.22-.18l.86.75a4.9,4.9,0,0,0-.42,1.82c-.59,4.14-.8,5.44-1.35,8.17Z"/><path class="cls-3" d="M188.65,216a18.49,18.49,0,0,0,3,.16h14.74a18.36,18.36,0,0,0,3-.16v2.19a22.1,22.1,0,0,0-3-.13H191.64a22.36,22.36,0,0,0-3,.13Zm2.63-12.35a16.05,16.05,0,0,0,2.78.16H204a16.12,16.12,0,0,0,2.78-.16v2.11a25.39,25.39,0,0,0-2.75-.1H194a25.39,25.39,0,0,0-2.75.1Z"/><path class="cls-3" d="M226.43,209.6a24.15,24.15,0,0,1-.29,2.75,10.23,10.23,0,0,1-3.51,6.87,15.44,15.44,0,0,1-4.57,2.57,4.6,4.6,0,0,0-1.23-1.69c3.41-1.09,5.52-2.76,6.58-5.12a14.82,14.82,0,0,0,1-5.38h-7a22.54,22.54,0,0,0-3,.13V207.8a18.58,18.58,0,0,0,3,.16h15.21a18.72,18.72,0,0,0,3-.16v1.93a22.71,22.71,0,0,0-3-.13ZM217,201.35a14,14,0,0,0,3,.19h10.12a14,14,0,0,0,3-.19v2a21.63,21.63,0,0,0-3-.13H220a21.63,21.63,0,0,0-3,.13Z"/><path class="cls-3" d="M258.56,206a3.35,3.35,0,0,0-.62.59,42.25,42.25,0,0,1-5.23,4.58v8.79a14.41,14.41,0,0,0,.13,2.29h-2a16.49,16.49,0,0,0,.1-2.27v-7.72a30.5,30.5,0,0,1-8,3.59,4.79,4.79,0,0,0-.91-1.56,25.33,25.33,0,0,0,6-2.29,28.48,28.48,0,0,0,7.44-5.41,8.25,8.25,0,0,0,1.45-1.69Z"/><path class="cls-3" d="M269.64,202.08a31.48,31.48,0,0,1,3.48,8l-1.92.81a29,29,0,0,0-3.41-8.06Zm15.7,2.55a8.17,8.17,0,0,0-.46,1.53,32.41,32.41,0,0,1-1.64,4.58,21.93,21.93,0,0,1-10.95,11.18,4.47,4.47,0,0,0-1.38-1.59,19.25,19.25,0,0,0,6.84-4.7,20.3,20.3,0,0,0,4.37-7.31,13.17,13.17,0,0,0,1-4.26Zm-1.66-5.38a20.19,20.19,0,0,1,2.44,3.77l-1.4.6a18.06,18.06,0,0,0-2.42-3.78Zm2.65-1.12a20.49,20.49,0,0,1,2.47,3.77l-1.4.6a18.15,18.15,0,0,0-2.45-3.77Z"/><path class="cls-3" d="M292.31,209.83a18.38,18.38,0,0,0,3.23.16h15.1a21.11,21.11,0,0,0,3.15-.13V212a29.46,29.46,0,0,0-3.17-.1H295.54a28.35,28.35,0,0,0-3.23.1Z"/><path class="cls-3" d="M319.72,218.62a22.9,22.9,0,0,0,7.56-2A19.66,19.66,0,0,0,337.89,205a5.27,5.27,0,0,0,1.59,1.54,22.8,22.8,0,0,1-7.93,9.93,26.29,26.29,0,0,1-9.7,3.88,12.27,12.27,0,0,0-1.56.41Zm1.66-16.12a34.16,34.16,0,0,1,6.27,4.89L326.29,209a28.69,28.69,0,0,0-6.18-5.1Z"/></g></g></svg>