<svg xmlns="http://www.w3.org/2000/svg" viewBox="0 0 560 58.79"><defs><style>.e9e67d93-8efb-4fa6-8e20-c34503434c2a{fill:#ffa000;}</style></defs><title>ttl_company</title><g id="b5fba812-0e55-435a-894e-8eab84a6118f" data-name="レイヤー 2"><g id="e1b39278-c4e0-4001-bd4c-a65d9b9125cb" data-name="object"><rect class="e9e67d93-8efb-4fa6-8e20-c34503434c2a" y="53.79" width="560" height="5"/><path class="e9e67d93-8efb-4fa6-8e20-c34503434c2a" d="M32.72,30.71V21l6.35.38c.58,0,1.17.08,1.17.55s-.54.58-1.05.75V39H32.72V36.8H9.28V39H2.86V21l6.21.34c.68,0,1.26.08,1.26.54s-.71.68-1.05.76v8.11h8.45V19.53H4.37V2.6L11.13,3c.25,0,.84,0,.84.55s-.46.54-1,.71v9.37h6.77V.34L24.07.8c.71,0,1.26.08,1.26.54s-.38.59-1.09.89V13.61h6.68V2.6L37.85,3c.33,0,.8,0,.8.51s-.55.58-1,.75V19.53H24.24V30.71Z"/><path class="e9e67d93-8efb-4fa6-8e20-c34503434c2a" d="M85.43,27.68c.3.21.38.38.38.59,0,.46-.42.51-1,.51A35.94,35.94,0,0,1,81.23,32a19.11,19.11,0,0,0,5.55,2.22,14.08,14.08,0,0,0-3.45,4.92A26.27,26.27,0,0,1,72.79,32a20.38,20.38,0,0,0-.5,4c-3.32.67-11,2.14-14.41,2.6-.17.34-.38.68-.76.68s-.54-.26-.63-.68l-1.22-5c.84-.08,4.58-.67,5.34-.75v-6H56.24c-.25,1.68-1.47,8.07-3.74,11.6A15.16,15.16,0,0,0,47.12,36a25.37,25.37,0,0,0,3.11-8.57,63.57,63.57,0,0,0,.67-10V1.47h34V12.06H57v6.47c0,.42-.08,2.43-.16,3.23h4.62V19.2H58V14.74h3.45V12.22l5.42.3c.37,0,1.59.21,1.59.75,0,.21-.21.63-1.3.76v.71h5.42V12.22l5.5.34c.25,0,1.56.17,1.56.67,0,.25-.34.63-1.39.8v.71h6.72V19.2H78.21v2.56H86v5H84.34ZM57,5.76V7.6h22V5.76Zm9.58,26.12c1.18-.21,4.37-.79,5.25-1A25.89,25.89,0,0,1,69,26.8H66.53Zm.59-10.12h5.42V19.2H67.12Zm8.32,5a11.65,11.65,0,0,0,1.68,2,30.2,30.2,0,0,0,2.31-2Z"/><path class="e9e67d93-8efb-4fa6-8e20-c34503434c2a" d="M118.32,12.52V.55l6.85.29a.46.46,0,0,1,.5.42c0,.38-.42.55-.84.67V12.52h6.76v6.09h-6.76V32.39h8v5.8H108.57v-5.8h9.75V18.61h-6.93V13.44a29.4,29.4,0,0,1-3.15,5.21,36.41,36.41,0,0,0,5.88,5.13,18.49,18.49,0,0,0-3.87,4.58,23.89,23.89,0,0,1-4.37-3.87V39H99.67V27.85c-1.77,1.43-2.4,1.93-3.41,2.65a12.06,12.06,0,0,0-3.78-5.21c4.46-2.56,9.75-7.69,11.22-11.09H94.46V8.36h5.21V.55l6.21.16c.26,0,.68.09.68.55,0,.21-.17.42-.68.76V8.36h4L112.6,11c-.12.26-.67,1.35-.75,1.56Z"/><path class="e9e67d93-8efb-4fa6-8e20-c34503434c2a" d="M178.51,16.38v7.06H140.57V16.38Z"/><path class="e9e67d93-8efb-4fa6-8e20-c34503434c2a" d="M210.63,38.77c-1.17,0-4,0-4-2.69V32.43h-5.71l2.27,1c.33.16,1,.42,1,.88s-.84.67-1.64.71a22.63,22.63,0,0,1-13.69,4.29,15.16,15.16,0,0,0-2.14-5.13,9.08,9.08,0,0,0,1.55.17c1.22,0,6.34-.38,8.66-1.89h-5.63v-15h29.4V29.62a12.27,12.27,0,0,0,5,2.22c-.25,2.06-.88,6.93-4.58,6.93ZM204.88,5.38V7.94A24.38,24.38,0,0,0,208.41,0l5.75,1.34c.3.09.51.21.51.42,0,.51-.63.76-1.22.8-.09.34-.25.76-.34,1h11.81V8.49H210.84c-.25.37-.54.88-1.38,2h12.85v5.13H209.08V11c-.21.33-.76,1-1,1.38A13.63,13.63,0,0,0,204.88,10v1.89h-5.25v1.51h6.51v3.11h-19V.76h18.53V3.91h-6.05V5.38Zm-10.21,0V3.91h-2.44V5.38ZM192.23,7.9V9.37H200V7.9Zm0,4v1.51h2.44V11.93Zm22.56,10V20.63H197.07V22Zm-17.72,2.18v1.43h17.72V24.15Zm0,3.62V29.2h17.72V27.77Zm21.46,6.59c.67,0,1-.46,1.3-1.93h-7.22v1c0,.54.21,1,1,1Z"/></g></g></svg>