<?xml version="1.0" encoding="utf-8"?>
<!-- Generator: Adobe Illustrator 19.1.0, SVG Export Plug-In . SVG Version: 6.00 Build 0)  -->
<svg version="1.1" id="LOGO_Small" xmlns="http://www.w3.org/2000/svg" xmlns:xlink="http://www.w3.org/1999/xlink" x="0px" y="0px"
	 viewBox="0 0 311.2 101.7" style="enable-background:new 0 0 311.2 101.7;" xml:space="preserve">
<style type="text/css">
	.st0{fill:#FFFFFF;}
	.st1{fill:#0082CA;}
</style>
<g>
	<path class="st0" d="M277.8,18.5c-3.4-10.6-13.4-18.3-25.1-18.3c-11.7,0-21.7,7.7-25.1,18.3l-8.7,26.2V1.7h-46.5
		c-8.4,0-16,3.3-21.6,8.7V1.7h-47.9C94,1.7,86,5.4,80.3,11.4V1.7H35.2C15.8,1.7,0,17.5,0,36.9c0,9.3,3.6,17.7,9.4,24H0v40.9h45.1
		c12.8,0,23.9-6.8,30.1-17c5.1,10.1,15.6,17,27.7,17h47.9V93c5.6,5.4,13.2,8.7,21.6,8.7h133.2L277.8,18.5z"/>
	<g>
		<g>
			<path class="st1" d="M108.5,67.9c-1.6,0-2.8-1.3-2.8-2.8l29.6,0V53.8H94.4v16.9c0,4.7,3.8,8.5,8.5,8.5h40.9V67.9H108.5z"/>
			<path class="st1" d="M108.5,35.5h35.2V24.2h-40.9c-4.7,0-8.5,3.8-8.5,8.5v16.9h40.9V38.3l-29.6,0C105.7,36.8,107,35.5,108.5,35.5
				z"/>
			<path class="st1" d="M102.9,83.4c-7,0-12.7-5.7-12.7-12.7V32.7c0-7,5.7-12.7,12.7-12.7h40.9V8.7l-40.9,0c-13.2,0-24,10.7-24,24
				c0,0,0,38.1,0,38.1c0,13.2,10.7,24,24,24h40.9V83.4H102.9z"/>
		</g>
		<g>
			<path class="st1" d="M35.2,35.5h38.1V24.2H35.2c-7,0-12.7,5.7-12.7,12.7c0,7,5.7,12.7,12.7,12.7h9.9c9.3,0,16.9,7.6,16.9,16.9
				c0,9.3-7.6,16.9-16.9,16.9H7v11.3h38.1c15.6,0,28.2-12.6,28.2-28.2c0-15.6-12.6-28.2-28.2-28.2h-9.9c-0.8,0-1.4-0.6-1.4-1.4
				C33.8,36.1,34.5,35.5,35.2,35.5z"/>
			<path class="st1" d="M45.1,67.9H7v11.3h38.1c7,0,12.7-5.7,12.7-12.7c0-7-5.7-12.7-12.7-12.7h-9.9c-9.3,0-16.9-7.6-16.9-16.9
				S25.9,20,35.2,20h38.1V8.7H35.2C19.7,8.7,7,21.3,7,36.9s12.6,28.2,28.2,28.2h9.9c0.8,0,1.4,0.6,1.4,1.4
				C46.5,67.3,45.9,67.9,45.1,67.9z"/>
		</g>
		<g>
			<path class="st1" d="M172.4,24.2c-4.7,0-8.5,3.8-8.5,8.5v38.1c0,4.7,3.8,8.5,8.5,8.5h24V53.8H178v11.3h7v2.8h-7
				c-1.6,0-2.8-1.3-2.8-2.8V38.3c0-1.6,1.3-2.8,2.8-2.8h33.8V24.2H172.4z"/>
			<path class="st1" d="M247.4,79.2h26.8l-18.5-55.3c-0.4-1.2-1.6-2.1-3-2.1c-1.4,0-2.5,0.9-2.9,2.1l-24.4,70.9h13.4l8.6-25.3V79.2z
				 M252.5,54.4l4.1,12.1h-8.2L252.5,54.4z"/>
			<path class="st1" d="M271.2,21.3c-2.3-8.1-9.8-14-18.6-14c-8.7,0-16.1,5.8-18.5,13.7l-22.3,65.3v-48H178v11.3h22.6l0,0v33.8
				h-28.2c-7,0-12.7-5.7-12.7-12.7V32.7c0-7,5.7-12.7,12.7-12.7h39.5V8.7h-39.5c-13.2,0-24,10.7-24,24c0,0,0,38.1,0,38.1
				c0,13.2,10.7,24,24,24h48.5l24.8-72.2c1-2.9,3.7-5,7-5c3.3,0,6,2.1,7,5.1l20.4,60.8h-32.7v11.3h48.4h0L271.2,21.3z"/>
		</g>
	</g>
	<g>
		<path class="st0" d="M295.9,30.6c4.1,0,7.9-1.6,10.8-4.5c2.9-2.9,4.5-6.7,4.5-10.8c0-4.1-1.6-7.9-4.5-10.8
			C303.9,1.6,300,0,295.9,0c-8.4,0-15.3,6.9-15.3,15.3c0,4.1,1.6,7.9,4.5,10.8C288,29,291.8,30.6,295.9,30.6z M282.8,15.3
			c0-3.5,1.4-6.8,3.9-9.3c2.5-2.5,5.8-3.9,9.3-3.9c3.5,0,6.8,1.4,9.3,3.9c2.5,2.5,3.9,5.8,3.9,9.3c0,7.3-5.9,13.2-13.2,13.2
			c-3.5,0-6.8-1.4-9.3-3.9C284.1,22.1,282.8,18.8,282.8,15.3z"/>
		<path class="st0" d="M292,16.6v7.2h-2.2v-17h6.3c2.4,0,3.8,0,5.1,1c1.2,0.9,1.8,2.4,1.8,3.9c0,4-3.2,4.5-4,4.7l4.8,7.4H301
			l-4.6-7.2H292z M292,14.7h4.5c0.7,0,1.4,0,2.1-0.2c1.6-0.4,2.1-1.5,2.1-2.7c0-0.4,0-1.6-1-2.4c-0.9-0.7-2-0.7-3.3-0.7H292V14.7z"
			/>
	</g>
</g>
</svg>
