<svg id="logo_channel01" xmlns="http://www.w3.org/2000/svg" xmlns:xlink="http://www.w3.org/1999/xlink" width="334.393" height="82.484" viewBox="0 0 334.393 82.484">
  <defs>
    <clipPath id="clip-path">
      <rect id="長方形_3879" data-name="長方形 3879" width="334.393" height="82.484" fill="none"/>
    </clipPath>
  </defs>
  <g id="グループ_845" data-name="グループ 845" clip-path="url(#clip-path)">
    <path id="パス_1384" data-name="パス 1384" d="M322.534,46.906l11.614-1.254L320.758,24.074l.844-1.409c1.494-2.49,5.219-8.473,6.326-10.248l6.464-10.359L322.314,1.12c-.684-.053-16.872-1.3-25.39-.923C286.225.665,277,3.016,270.243,7a28.535,28.535,0,0,0-6.837,5.484V.174L190.294,0V7.376l-7.8-7.217L144.154.123s-.015,9.655-.019,11.589C136.689,3.549,122.322-.536,103.253.166,90.3.636,78.287,4.372,71.889,9.915c-.3.256-.583.524-.865.793L75.463,3,64.418,1.676c-.058-.007-5.89-.706-9.193-.949A181.383,181.383,0,0,0,35.165.1C21.875.585,14.279,2.291,8.946,5.99c-4.559,3.151-6.97,7.457-6.97,12.45a16.2,16.2,0,0,0,.256,2.825A14.266,14.266,0,0,0,7.986,30.43c-1.464,2.747-3.1,6.089-3.292,6.492L0,46.569l8.918.743A17.92,17.92,0,0,0,2.154,61.767,17.868,17.868,0,0,0,7.522,74.889a24.562,24.562,0,0,0,10.633,6.1,49.016,49.016,0,0,0,13.172,1.494,42.809,42.809,0,0,0,11.26-1.262,25.4,25.4,0,0,0,6.838-2.96v3.767H119.3l2.033-4.228h5.593l2.107,4.228h41.962V77l5.6,5.033H219.95V77l5.605,5.034H330.227V60.992H312.066V47.8c5.776-.392,10.271-.874,10.468-.9m-53.109-5.28h-6.019V36.809a25.511,25.511,0,0,0,4.384,3.778c.521.359,1.071.7,1.635,1.039M144.093,55.605c-2.31-3.759-7.951-12.932-8.181-13.307a28,28,0,0,0,8.185-6.1c-.006,3.451-.01,16.082,0,19.412m-35.11-7.318-4.629,7.53V48.3c1.1.026,2.207.042,3.29.026.442-.007.891-.029,1.338-.043M75.82,41.626H66.036a17.558,17.558,0,0,0,3.68-3.856c.111-.161.214-.33.319-.5a27.39,27.39,0,0,0,5.784,4.353" transform="translate(0 0)" fill="#003cb4"/>
    <path id="パス_1385" data-name="パス 1385" d="M393.079,10.239c8.184-.36,24.5.908,24.5.908s-4.684,7.5-6.444,10.44c-5.4-3.464-14.632-1.983-20.781.939-6.174,2.933-9.276,6.869-3.523,9.745,3.728,1.863,11.408,1.362,15.5.118a49.857,49.857,0,0,0,7.087-3.245L417.578,42.3s-20.009,2.161-30.246,1.06c-37.233-4.012-32.927-31.434,5.747-33.122" transform="translate(-95.895 -2.698)" fill="#fff"/>
    <path id="パス_1386" data-name="パス 1386" d="M38.721,10.108a176.345,176.345,0,0,1,19.248.611c3.121.23,8.859.917,8.859.917s-2.911,5.055-4.274,7.638c-3.406-.254-14.926-.9-21.049-.447a9.58,9.58,0,0,0-3.7.69c-.893.448-1.259,1.282-.3,2.049.6.481,1.436.678,3.189.889,5.447.658,16.282.727,20.642,2.319,3.207,1.17,5.585,2.907,6.414,5.346,2.7,7.9-8.073,13.086-21.69,13.6-7.638.282-15.18,0-22.3-.3-3.715-.158-9.166-.612-9.166-.612s2.786-5.724,4.275-8.25c5.05.373,21.206,1.089,23.832-.61.593-.392,1.519-1.38.306-1.987-2.182-1.09-5.574-.888-8.76-1.09-11.668-.744-20.274-1.417-21.489-8.229-.6-3.356.815-5.972,3.667-7.943,4.51-3.127,12.21-4.216,22.3-4.583" transform="translate(-3.345 -2.661)" fill="#fff"/>
    <path id="パス_1387" data-name="パス 1387" d="M206.058,10.179l28.121.026,18.031,16.68V10.516h21.08V43.722l-29.256-.008L227.457,26.885V43.722L206,43.714Z" transform="translate(-54.629 -2.699)" fill="#fff"/>
    <path id="パス_1388" data-name="パス 1388" d="M165.634,20.66c-4.782-6.592-16.846-11.18-36.261-10.464-11.916.432-22.09,3.86-26.821,7.959-3.874,3.339-6.315,8.566-3.837,13.413,8.356,16.351,59.855,16.135,67.8-.59a10.489,10.489,0,0,0-.882-10.317m-18.62,5.89c-1.057,3.027-8.852,6.842-15,7.348-5.1.417-8.586-.252-11.094-1.5-8.942-4.434,5.39-11.666,13.794-12.3,7.621-.575,13.632,2.606,12.3,6.449" transform="translate(-25.912 -2.684)" fill="#fff"/>
    <rect id="長方形_3878" data-name="長方形 3878" width="25.049" height="33.456" transform="translate(230.947 7.523)" fill="#fff"/>
    <path id="パス_1389" data-name="パス 1389" d="M42.308,81.664l11.42,2.114a11.481,11.481,0,0,1-3.623,4.9,16.792,16.792,0,0,1-6.116,2.969,36.053,36.053,0,0,1-9.318,1,42.4,42.4,0,0,1-11.185-1.22A17.232,17.232,0,0,1,16,87.141a10.5,10.5,0,0,1-3.149-7.86A10.905,10.905,0,0,1,18.4,69.464q5.551-3.43,15.693-3.429,7.959,0,12.5,1.966a13.476,13.476,0,0,1,6.743,6.037L41.851,75.586a5.315,5.315,0,0,0-1.268-1.706,7.6,7.6,0,0,0-2.67-1.392A11.882,11.882,0,0,0,34.4,72q-4.438,0-6.791,2.174-1.779,1.613-1.781,5.064,0,4.279,2.124,5.862a9.839,9.839,0,0,0,5.984,1.587,10.1,10.1,0,0,0,5.62-1.288,7.155,7.155,0,0,0,2.757-3.734" transform="translate(-3.407 -17.512)" fill="#fff"/>
    <path id="パス_1390" data-name="パス 1390" d="M77.177,66.652H90.156v9.023h14.209V66.652H117.41V92.36H104.365V81.979H90.156V92.36H77.177Z" transform="translate(-20.466 -17.675)" fill="#fff"/>
    <path id="パス_1391" data-name="パス 1391" d="M156.033,82.583l4.6-9.257,4.646,9.257Zm14.049,9.777H183.7l-15.8-25.708H153.689l-15.8,25.708h13.3l2.033-4.228h14.761Z" transform="translate(-36.565 -17.675)" fill="#fff"/>
    <path id="パス_1392" data-name="パス 1392" d="M206.018,66.652h12.11l15.858,14.242V66.652h12.263V92.36H233.985L218.217,78.2V92.36h-12.2Z" transform="translate(-54.633 -17.675)" fill="#fff"/>
    <path id="パス_1393" data-name="パス 1393" d="M272.645,66.652h12.106l15.86,14.242V66.652h12.263V92.36H300.611L284.841,78.2V92.36h-12.2Z" transform="translate(-72.301 -17.675)" fill="#fff"/>
    <path id="パス_1394" data-name="パス 1394" d="M339.178,66.652h34.851v5.512H352.221V76.24h21.609v5.247H352.221v5.059h22.031V92.36H339.178Z" transform="translate(-89.945 -17.675)" fill="#fff"/>
    <path id="パス_1395" data-name="パス 1395" d="M396.938,66.652h12.98V86.018h18.161V92.36H396.938Z" transform="translate(-105.262 -17.675)" fill="#fff"/>
  </g>
</svg>
