<svg xmlns="http://www.w3.org/2000/svg" width="218" height="30" viewBox="0 0 218 30"><defs><style>.cls-1 { fill: #fff; fill-rule: evenodd; }</style></defs><path id="パリの極上体験" class="cls-1" d="M30.467.865a4.136 4.136 0 0 0-3.918 3.33 2.712 2.712 0 0 0 2.742 3.33 4.156 4.156 0 0 0 3.888-3.33 2.706 2.706 0 0 0-2.712-3.33zm-.355 2.01a1.066 1.066 0 0 1 1.057 1.32 1.593 1.593 0 0 1-1.518 1.29 1.052 1.052 0 0 1-1.092-1.29 1.633 1.633 0 0 1 1.554-1.32zm-25.718 25.379c5.406-5.49 8.944-15.659 10.767-24.119l-4.69-.45c-1.894 9.54-5.401 16.829-9.551 20.969zm16.636-24.059c-1.26 9.69.146 19.229 2.844 24l4.983-3.42c-2.8-4.89-3.843-11.369-3.287-18.089a4.124 4.124 0 0 1-.266-2.4 5.654 5.654 0 0 1 .228-.78zm22.161-.96h-5.04l-2.907 16.465h5.04zm14.579-.51h-5.07l-2.319 13.14c-1.075 6.09-5.861 7.71-14.391 8.28l.985 4.62c8.169-.9 16.671-2.67 18.6-13.619zm15.442 25.889c1.622-.18 6.266-.66 9.661-3.24a15.248 15.248 0 0 0 5.8-9.72c1.509-8.55-3.614-12.33-10.513-12.33a17.073 17.073 0 0 0-17.022 13.976c-.831 4.71.963 8.82 5.013 8.82 8.04 0 11.949-15.689 12.56-18.3 3.372.27 5.906 2.4 5.022 7.41-1.424 8.07-8.209 8.61-11.491 8.85zm.9-20.579c-1.835 7.17-4.583 13.049-6.863 13.049-1.71 0-1.563-2.7-1.362-3.84a11.537 11.537 0 0 1 8.227-9.209zm30.388 16.709h3.75c2.04 0 2.887-.72 3.247-2.76l1.514-8.58a21.119 21.119 0 0 0 .9 5.46 18.641 18.641 0 0 1-2.132 2.22l1.533 3.21c.546-.54.945-.93 2.037-2.19a17.9 17.9 0 0 0 1.784 2.64l2.933-3.36a11.724 11.724 0 0 1-2.322-2.82 39.878 39.878 0 0 0 3.956-11.069h-6.9l-.668 3.78h3.6a19.7 19.7 0 0 1-1.449 3.96 12.95 12.95 0 0 1-.562-3.27l-2.667 1.17 1.033-5.85h-2.73c.148-.33.48-1.02.587-1.29h10.38l.709-4.02h-18.933l-.7 4.02h4.29a27.951 27.951 0 0 1-2.427 4.74h4.86l-1.668 9.45a1.606 1.606 0 0 1-.263.81 1.16 1.16 0 0 1-.812.18l1.679-9.51h-6.459l-.619 3.51a15.014 15.014 0 0 1-1.769-3.75l.154-.87h2.22l.741-4.2h-2.22l.879-4.98h-4.076l-.879 4.98h-2.88l-.741 4.2h2.52a22.61 22.61 0 0 1-4.512 7.89l.455 6.09a21.252 21.252 0 0 0 2.8-4.83l-1.784 10.11h4.08l2.224-12.6a13.556 13.556 0 0 0 .947 2.28l1.663-3.3-1.033 5.85h3.84zm1.451-9.75l-.641 3.63h-1.319l.64-3.63h1.32zm-6.7 10.23l-.688 3.9h19.859l.688-3.9h-19.859zm38.328-23.909l-4.024 22.8h-11.1l-.826 4.68h28.439l.826-4.68h-12.51l1.822-10.32h10.979l.831-4.71h-10.978l1.371-7.77h-4.83zm25.266 23.759a42.269 42.269 0 0 0 3.43-3.12l-.582 3.3h3.78l-.794 4.5h4.439l.8-4.5h3.779l.578-3.27a22.788 22.788 0 0 0 2.085 2.97l3.216-4.62a24.78 24.78 0 0 1-5.656-10.11h6.93l.789-4.47h-8.28l.789-4.47h-4.448l-.789 4.47h-7.709l-.789 4.47h6.6a41.639 41.639 0 0 1-9.7 10.11l2.033-11.52a33.236 33.236 0 0 0 3.076-7.23l-4.341-.39a24.517 24.517 0 0 1-6.456 10.74l.064 6.27a12.037 12.037 0 0 0 1.936-1.62l-2.325 13.17h4.35l1.588-9zm4.274-3.99a36.432 36.432 0 0 0 4.038-5.37l-.948 5.37h-3.09zm8.472-5.34a25.528 25.528 0 0 0 2.177 5.34h-3.119zm37.689-6.18c.814.66 1.216.93 1.7 1.26l2.534-3.99a12.226 12.226 0 0 1-5.491-5.43h-4.65a19.316 19.316 0 0 1-6.994 5.46h-2.489l.254-1.44h3.15l.582-3.3h-11.7l-2.949 16.709h8.37a60.527 60.527 0 0 1-1.618 6.45 1.7 1.7 0 0 1-1.73.96h-2.34l.125 3.54h2.85c1.95 0 2.875-.48 3.879-3.45l1.521 3.45a16.222 16.222 0 0 0 7.488-5.88 10.427 10.427 0 0 0 5.6 6l2.78-4.02a8.762 8.762 0 0 1-4.84-4.02h4.169l1.668-9.45h-5.43l.239-1.35h3.06zm-9.954 1.5h2.76l-.238 1.35h-5.04l-1.668 9.45h3.72a13.307 13.307 0 0 1-5.986 4.17 85.989 85.989 0 0 0 2.487-10.349h-3.03l.259-1.47h2.49l.546-3.09h-2.49l.259-1.47h2.49l.334-1.89 1.064 3.15a22.586 22.586 0 0 0 2.313-1.38zm-8.841-1.41l-.259 1.47h-1.95l.259-1.47h1.95zm.747-4.23l-.254 1.44h-1.95l.254-1.44h1.95zm-1.552 8.79l-.259 1.47h-1.95l.26-1.47h1.949zm12.62-6.719a24.409 24.409 0 0 0 2.938-2.88 18.353 18.353 0 0 0 1.952 2.88h-4.89zm2.142 10.98a19.239 19.239 0 0 0 .586-2.64h1.95l-.466 2.64h-2.07zm-5.4 0l.466-2.64h1.83a14.023 14.023 0 0 1-.616 2.64h-1.68zm-16.466 1.68a21.139 21.139 0 0 1-2.3 6.57l1.524 1.56a31.687 31.687 0 0 0 2.494-8.01zm2.439.12l-.131 1.08a38.672 38.672 0 0 1-1.191 4.71l1.842-.24c.085-.48.389-1.86.542-2.73.127-.72.323-2.34.378-2.82h-1.44zm2.121-.12a27.144 27.144 0 0 1-.579 4.98l1.523-.3a33.168 33.168 0 0 0 .378-4.86zm2.063-.3a21.852 21.852 0 0 1-.207 4.23l1.343-.3a21.763 21.763 0 0 0 0-4.08z"/></svg>