<?xml version="1.0" encoding="UTF-8"?>
<svg id="_レイヤー_2" data-name="レイヤー 2" xmlns="http://www.w3.org/2000/svg" viewBox="0 0 2718.02 977.82">
  <defs>
    <style>
      .cls-1 {
        fill: #7ca1d4;
      }

      .cls-2 {
        fill: #8dcaa0;
      }

      .cls-3 {
        fill: #ec7c94;
      }

      .cls-4 {
        fill: #fff;
      }

      .cls-5 {
        fill: #ec7c91;
      }

      .cls-6 {
        fill: #eba7c8;
      }

      .cls-7 {
        fill: #f4e900;
      }

      .cls-8 {
        fill: #006eb6;
      }

      .cls-9 {
        fill: #2b90cf;
      }

      .cls-10 {
        fill: #c89ac4;
      }

      .cls-11 {
        fill: #f09486;
      }

      .cls-12 {
        fill: #378ccc;
      }

      .cls-13 {
        fill: #f6bd68;
      }

      .cls-14 {
        fill: #e95d7a;
      }

      .cls-15 {
        fill: #040000;
      }

      .cls-16 {
        fill: #0070b6;
      }

      .cls-17 {
        fill: #eba8c9;
      }

      .cls-18 {
        fill: #c68aba;
      }
    </style>
  </defs>
  <g id="_レイヤー_1-2" data-name="レイヤー 1">
    <g id="_メインロゴ" data-name="メインロゴ">
      <path class="cls-4" d="M2700.92,42.82h-139.22c-9.44,0-17.09,7.65-17.09,17.09v13.09c-9.52-7.85-21.21-12.82-33.72-13.98-16.99-1.58-35.39-2.38-54.69-2.38-36.79,0-78.6,2.91-124.29,8.65-65.67,6.94-122.75,29.25-170.55,66.36,2.19-31.46-19.78-60.07-51.53-65.49l-197.37-33.68c-3.48-.59-6.97-.89-10.45-.89-12.78,0-25.34,3.95-35.91,11.43-13.44,9.52-22.55,24-25.33,40.24l-33.35,195.44-15.96-197.28c-2.63-32.5-29.82-57.12-61.86-57.12-1.67,0-3.37.07-5.07.21l-158.28,12.8c-16.42,1.33-31.64,9.12-42.32,21.68-6.45,7.59-10.93,16.55-13.16,26.07l-5.08-8.4c-11.32-18.69-31.52-29.95-53.13-29.95-1.67,0-3.35.06-5.02.2l-237.43,19.2c-16.42,1.33-31.65,9.12-42.32,21.68-2.97,3.49-5.47,7.29-7.58,11.29l-1.11-.23h-8.74c3.88-16.49,1.86-33.57-6.19-48.56-10.5-19.53-30.52-33.42-53.75-37.4-45.11-8.56-90.03-12.9-133.52-12.9-150.38,0-247.13,51.79-275.16,69.03-4.84,1.82-9.42,3.68-13.69,5.53l-31.17-18.6c-2.56-1.53-5.24-2.87-7.99-4.02-11.59-4.81-23.32-7.26-34.86-7.26-35.15,0-60.45,21.45-72.63,47.62-1.78-3.84-3.93-7.53-6.5-10.98-10.76-14.45-27.26-23.52-45.22-24.85-32.59-2.42-64.97-3.65-96.25-3.65-34.59,0-68.84,1.5-101.84,4.47-80.07,2.44-145.75,25.14-195.21,67.49C22.95,170.49-3.33,229.84.34,296.42c3.15,72.32,34.56,130.73,90.9,169.13-5.33,6.68-9.33,14.52-11.57,23.19l-33.12,128.25c-.79,3.07-1.34,6.17-1.66,9.28-1.83,15.53,2.27,31.3,11.66,44.07,11.05,15.03,28.27,24.29,46.9,25.23,34.95,1.77,67.67,2.67,97.25,2.67h.01c12.23,0,24.05-.16,35.46-.47-3.74,7.08-6.75,14.51-8.79,22.31-7.42,28.39-2.15,57.71,14.82,82.56,4.95,7.24,10.61,13.75,16.9,19.47,2.48,12.31,7.41,24.03,14.74,34.76,17.04,24.94,42.98,40.23,73,43.05,3.24.31,6.51.46,9.8.46,23.22,0,46.1-7.6,68.02-22.57,16.81-11.48,29.58-24.79,38.3-39.7l10.76,5.66,16.84,81.73c4.95,24.14,26.14,52.33,69.58,52.33,4.58,0,9.51-.28,15.09-.85,1.35-.14,2.71-.32,4.05-.55l15.79-2.68c.72-.12,1.44-.26,2.16-.4,7.7-1.59,16.39-3.91,26.5-7.07,39.55-12.3,52.65-39.12,54.72-60.93l24.23.28c5.06,18.93,19.48,39.64,52.3,47.9,8.15,2.05,18.36,3.73,32.13,5.29,11.72,1.33,21.16,1.97,28.85,1.97,9.69,0,18.19-1.27,25.63-3.47,11.2,7.08,24.21,11.57,38.38,13.17,3.42.39,6.94.59,10.47.59,17.65,0,36.46-4.83,57.08-14.54,14.98-6.92,36.28-18.73,48.18-41.43.62-1.19,1.09-2.42,1.63-3.64.23.86.36,1.76.62,2.61,11.2,42.23,43.71,57.29,68.43,57.29h0c1.5,0,3.41-.07,4.9-.18l118.61-8.61c18.04-1.32,39.13-10.65,52.41-31.54,10.97,12.55,27.14,21.95,48.69,24.78l118.18,15.53c2.68.35,6,.57,8.71.57,23.28,0,52.86-13.09,66.03-49.8.75-2.1,1.41-4.11,2.05-6.12.45,3.16,1.27,6.63,2.43,10.22,4.66,17.62,16.38,34.7,42.67,42.26,7.81,2.5,16.76,4,27.12,4,.47,0,1-.02,1.49-.02,8.32.2,17.47-.21,27.68-1.44,14.03-1.68,24.52-3.6,33-6.03,10.08-2.88,18.57-7.09,25.59-12.2,20.76,7.98,44.15,5.31,62.99,3.05l17.29-2.08,13.7-4.05c.8-.24,1.49-.52,2.27-.77.54-.16,1.15-.3,1.67-.46.95-.29,1.76-.69,2.68-1.01,1.62-.58,3.21-1.17,4.73-1.79,1.39-.58,2.79-1.15,4.11-1.78,9.36-4.27,16.68-9.28,22.32-14.72,1.89,2.34,3.86,4.63,6.07,6.74,12.51,12,28.68,19.3,48.06,21.71l58.83,7.34c6.24.78,12.66,1.33,19.74,1.68,1.5.07,2.94.11,4.95.14,2.3.06,4.58.1,6.82.1,2.62,0,5.21-.04,7.85-.15,1.93-.08,3.82-.18,5.48-.29,4.83-.31,9.76-.83,15.14-1.59,1.38-.18,2.75-.38,4.13-.61,41.96-7.14,75.18-28.8,97.34-61.94,5.87,22.29,20.9,41.4,42.98,53.64,16.22,9.02,34.52,14.52,54.37,16.34,7.52.7,15.47,1.04,23.63,1.04,7.73,0,15.88-.32,24.21-.94.28-.02.55-.04.83-.06,44-3.88,78.14-18.76,101.49-44.25,6.03-6.6,11.34-13.73,15.71-21.12,13.44-22.62,19.19-48.25,17.11-76.13-.32-4.3-.91-8.7-1.75-13.09-.32-1.64-.69-3.26-1.13-4.86-3.96-16.66-11.53-31.6-22.52-44.35,7.81-19.23,11.02-36.46,9.83-52.53l-.13-1.68c-.15-2.01-.39-4.02-.73-6.01-.12-.68-.28-1.42-.43-2.13,19.13,2.8,38.91,4.27,59.38,4.27h.02c2.59,0,5.17-.02,7.78-.06,1.33-.02,2.67-.09,4-.2,78.08-6.39,146.93-20.3,204.62-41.35,16.37-5.97,29.48-18.54,36.13-34.65,6.65-16.1,6.23-34.26-1.16-50.04l-97.24-207.83c-4.32-9.25-10.77-17.12-18.64-23.11,8.06-8.3,13.79-18.85,16.24-30.64l37.61-181.27h136.58c9.44,0,17.09-7.65,17.09-17.09V59.91c0-9.44-7.65-17.09-17.09-17.09Z"/>
      <g>
        <path class="cls-8" d="M342.68,737.87l-.96-1.76c-1.88-2.75-4.3-4.32-7.27-4.71-2.97-.39-5.79.33-8.47,2.16-2.68,1.83-4.31,4.23-4.89,7.21-.58,2.98.18,6.01,2.28,9.08,5.71,8.36,14.53,8.46,26.48.3,2.68-1.83,5.54-4.11,8.59-6.83,20.11-17.77,30.27-26.73,30.5-26.89,3.12-2.13,6.83-.07,11.11,6.2,3.46,5.06,5.81,10.78,7.07,17.18l-15.73,13.65c7.63,4.94,13.36,10.22,17.2,15.83,5.93,8.69,7.48,18.19,4.63,28.52-2.85,10.33-10.72,19.9-23.61,28.7-12.89,8.81-25.2,12.66-36.92,11.56-11.72-1.1-20.91-6.52-27.56-16.25-6.65-9.73-7.59-21.3-2.84-34.71-12.29-2.89-21.89-9.4-28.8-19.51-6.91-10.12-8.92-20.72-6.02-31.81,2.9-11.09,10.04-20.53,21.43-28.3,11.39-7.78,22.28-11.19,32.68-10.22,10.4.96,18.79,6.11,25.17,15.46,1.28,1.87.7,4.92-1.72,9.16-2.43,4.24-6.15,8.07-11.17,11.5-5.02,3.43-8.75,4.93-11.17,4.49ZM347.25,784.09c.95,4.03,2.27,7.28,3.96,9.75,1.69,2.47,3.56,4.38,5.62,5.71,4.71,3.07,9.75,2.77,15.11-.88,3.8-2.59,5.64-5.82,5.53-9.7-.11-3.87-1.55-7.85-4.33-11.92-1.28-1.87-2.29-3.23-3.04-4.09-.75-.85-1.2-1.39-1.35-1.62-3.34,3.25-6.86,6.14-10.54,8.65-3.68,2.52-7.33,3.88-10.95,4.1Z"/>
        <g>
          <path class="cls-13" d="M638.67,696.93c3.78-.78,7.36,6.98,10.72,23.28,3.36,16.29,3.14,24.83-.64,25.61l-61.04,12.58,6.49,31.49,40.69-8.39c3.78-.78,7.14,5.97,10.08,20.23,2.94,14.28,2.63,21.78-.92,22.51l-41.03,8.45,13.72,66.56c.53,2.58-3.29,5.15-11.46,7.69-8.17,2.55-15.04,4.4-20.59,5.54l-15.79,2.68c-11.12,1.14-16.95.43-17.49-2.15l-37.68-182.86c-.61-2.95-.28-5.03.98-6.25,1.25-1.22,3.33-2.13,6.22-2.72l117.74-24.26Z"/>
          <path class="cls-11" d="M616.74,899.26l-7.49-36.36-79.22-53.71,21.39,103.82c.53,2.58,6.36,3.3,17.49,2.15l15.79-2.68c5.55-1.14,12.43-2.99,20.59-5.54,8.17-2.54,11.99-5.11,11.46-7.69Z"/>
        </g>
        <g>
          <path class="cls-17" d="M826.4,896.07c-.35,3.07-11.12,3.41-32.3,1.01-21.41-2.42-31.95-5.07-31.63-7.95l21.25-187.78c.76-6.72,5.27-9.62,13.52-8.68l63.89,7.23c58.66,6.64,85.75,29.65,81.3,69-1.35,11.91-5.25,22.41-11.69,31.49-6.45,9.1-14.91,15.96-25.37,20.62l35.3,65.25c-2.31,4.4-8.7,9.03-19.19,13.87-14.31,6.74-25.82,9.62-34.52,8.63-8.7-.98-14.86-4.4-18.49-10.26l-24.31-66.63-10.37-1.17-7.4,65.38ZM842.99,749.47l-4.89,43.2,1.67.19c21.19,2.4,32.64-3.98,34.36-19.16.78-6.91-.71-12.28-4.45-16.11-3.75-3.82-10.3-6.27-19.67-7.33l-7.02-.79Z"/>
          <g>
            <path class="cls-10" d="M868.24,898.22c3.62,5.86,9.79,9.27,18.49,10.26,8.7.99,20.21-1.89,34.52-8.63,10.49-4.84,16.88-9.47,19.19-13.87l-35.27-65.18-54.87,28.26,17.94,49.17Z"/>
            <path class="cls-10" d="M766.75,892.08c4.95,1.66,13.96,3.24,27.11,4.72,21.19,2.4,31.96,2.06,32.3-1.01l4.12-36.44-63.53,32.72Z"/>
          </g>
        </g>
        <g>
          <path class="cls-5" d="M1087.46,857.78l-7.46-102.83-24.98,1.81c-3.99.29-7.11-3.64-9.34-11.81-1-3.99-1.65-8.1-1.96-12.34-.31-4.23-.26-8.4.15-12.49,1.04-8.4,3.55-12.75,7.54-13.04l118.22-8.58c3.98-.29,6.98,3.66,8.99,11.84,1.23,3.98,2,8.08,2.31,12.32.31,4.24.13,8.41-.51,12.52-.81,8.39-3.21,12.72-7.19,13.01l-23.57,1.71,7.46,102.83,24.62-1.79c3.98-.29,7.1,3.65,9.34,11.81,1.23,3.97,2,8.08,2.31,12.32.31,4.24.14,8.42-.51,12.53-1.04,8.4-3.56,12.74-7.54,13.03l-118.58,8.6c-3.98.29-6.98-3.65-8.99-11.83-1.23-3.97-2-8.08-2.31-12.32-.31-4.23-.14-8.41.51-12.52.81-8.38,3.21-12.72,7.19-13l24.28-1.76Z"/>
          <path class="cls-14" d="M1192.9,887.53c.65-4.11.81-8.29.51-12.53-.31-4.23-1.07-8.34-2.31-12.32-2.24-8.15-5.36-12.09-9.34-11.8l-24.63,1.79-1.67-23.01-68,28.07-24.28,1.76c-3.98.29-6.38,4.63-7.19,13-.65,4.11-.81,8.29-.51,12.52.31,4.24,1.07,8.35,2.31,12.32,2.01,8.18,5.01,12.12,8.99,11.83l118.58-8.61c3.98-.29,6.5-4.63,7.54-13.03Z"/>
        </g>
        <g>
          <path class="cls-13" d="M1413.83,788.7c4.37.57,5.7,7.42,3.98,20.53-.52,3.93-1.64,8.5-3.38,13.7-1.74,5.2-3.99,7.62-6.76,7.26l-43.89-5.77-3.69,28.1,63.58,8.35c3.92.52,6.03,4.99,6.33,13.4.22,3.66.07,7.49-.46,11.52-.53,4.04-1.9,9.15-4.12,15.33-2.22,6.18-4.94,9.07-8.17,8.64l-118.18-15.53c-8.76-1.15-12.76-4.63-11.99-10.44l23.73-180.64c.64-4.87,3.61-6.96,8.92-6.26l123.71,16.25c4.85.64,6.17,9.24,4,25.82-2.18,16.57-5.69,24.54-10.53,23.91l-63.93-8.4-3.73,28.38,44.58,5.86Z"/>
          <path class="cls-7" d="M1366.57,853.36l-6.36-.84.82-6.21-59.05-75.02-14.78,112.5c-.76,5.81,3.23,9.29,11.99,10.44l111.03,14.59-43.65-55.46Z"/>
        </g>
        <g>
          <path class="cls-6" d="M1732.84,883.81c.47,3.9-9.91,7.13-31.12,9.68-21.23,2.55-32.9,2.54-35.03-.03l-67.01-80.18,10.42,86.7c.4,3.34-9.84,6.27-30.71,8.78-20.89,2.51-31.53,2.09-31.93-1.25l-22.41-186.48c-.34-2.79,8.42-5.26,26.25-7.4,6.99-.84,15.24-1.31,24.73-1.41,9.49-.1,15.42,1.12,17.79,3.66l64.5,79.34-10.52-87.53c-.42-3.53,9.85-6.56,30.86-9.09,20.99-2.52,31.69-2.01,32.11,1.52l22.08,183.7Z"/>
          <g>
            <path class="cls-1" d="M1666.69,893.47c2.13,2.57,13.81,2.58,35.03.03,21.21-2.55,31.59-5.78,31.12-9.68l-11.88-98.83-86.65,69.75,32.37,38.73Z"/>
            <path class="cls-1" d="M1579.39,908.77c20.87-2.51,31.11-5.44,30.71-8.78l-2.82-23.48-41.74,33.6c3.97-.26,8.58-.71,13.86-1.34Z"/>
          </g>
        </g>
        <g>
          <path class="cls-3" d="M1823.58,880.77l21.24-170.15c.59-4.73,2.5-8.28,5.7-10.67,3.21-2.38,7.11-3.29,11.7-2.72l57.47,7.17c36.47,4.55,63.25,15.58,80.28,33.06,17.04,17.49,23.53,42.49,19.47,75-8.68,69.58-49.05,99.87-121.08,90.88l-58.85-7.35c-11.7-1.46-17.01-6.54-15.93-15.23ZM1906.09,757.43l-10.58,84.79c-.5,3.97-.47,6.52.09,7.64.56,1.11,2.57,1.9,6.02,2.33,12.61,1.57,22.68-1.11,30.18-8.05,7.51-6.94,12.39-19.43,14.64-37.48,2.25-18.05.33-30.25-5.74-36.58-6.09-6.32-16.48-10.41-31.16-12.24l-3.44-.43Z"/>
          <path class="cls-2" d="M1956.18,900.36l-42.95-47.98c-3.65.43-7.41.34-11.63-.18-3.44-.43-5.46-1.22-6.02-2.33-.56-1.13-.58-3.68-.09-7.65l1.1-8.82-58.85-66.15-14.17,113.51c-1.08,8.69,4.23,13.77,15.93,15.23l58.85,7.35c22.32,2.79,41.59,1.78,57.83-2.98Z"/>
        </g>
        <g>
          <path class="cls-13" d="M2124.75,843.9c4.56,2.48,12.36,5.75,23.39,9.82,11.01,4.07,21.4,5.73,31.16,5.01,9.74-.73,14.39-4.18,13.93-10.35-.21-2.8-1.77-5.18-4.68-7.13-2.91-1.93-8.15-4.05-15.7-6.3-7.55-2.26-13.22-4.04-17-5.35-3.78-1.32-8.85-3.56-15.2-6.76-6.35-3.2-11.27-6.63-14.78-10.32-9.96-9.97-15.56-23.18-16.79-39.64-1.23-16.45,5.25-30.9,19.42-43.33,14.16-12.44,33.41-19.56,57.71-21.38,16.5-1.23,31.85-.92,46.06.93,14.19,1.85,21.71,5.11,22.5,9.74.04.56.08,1.12.13,1.68.49,6.55-1.42,15.01-5.71,25.39-4.29,10.38-7.43,16.2-9.4,17.49-15.14-5.09-28.5-7.18-40.08-6.32-11.58.86-17.1,4.66-16.6,11.39.31,4.12,4.82,7.44,13.53,9.99,1.89.61,4.61,1.44,8.15,2.49,3.54,1.06,7.6,2.3,12.21,3.74,4.59,1.44,9.58,3.32,14.94,5.65,5.35,2.33,11.19,5.51,17.49,9.55,12.84,8.45,19.84,20.33,20.98,35.67,1.49,20.01-4.05,36.87-16.61,50.6-12.58,13.73-32.96,21.82-61.13,24.31-13.75,1.03-26.27,1.02-37.52-.02-11.27-1.03-21.22-3.96-29.88-8.77-8.66-4.8-13.27-11.04-13.85-18.71-.57-7.67.57-15.42,3.44-23.25,2.87-7.82,6.16-13.09,9.88-15.82Z"/>
          <path class="cls-18" d="M2179.37,858.61c-2.24.17-4.51.17-6.82.09l-61.16,18.43c-.07,1.91-.03,3.82.11,5.73.57,7.67,5.19,13.91,13.85,18.71,8.66,4.81,18.61,7.74,29.88,8.77,11.25,1.03,23.77,1.04,37.52.02,28.17-2.48,48.55-10.58,61.13-24.31,12.56-13.73,18.11-30.59,16.61-50.6-.15-2.07-.44-4.07-.8-6.01l-77.19,23.26c-1.69,3.4-6.05,5.39-13.12,5.92Z"/>
        </g>
      </g>
      <g>
        <path class="cls-9" d="M506.31,447.82c-2.67-46.74-18.69-81.82-48.04-105.24-29.35-23.42-63.34-35.48-101.97-36.18-36.98-.79-63.04-3.13-78.21-7.04-15.16-3.9-21.06-12.8-17.71-26.68,3.35-13.89,26.84-22.28,70.45-25.19,43.61-2.91,78.96-3.27,106.06-1.09l28.16-127.96c-66.26-4.92-129.52-4.62-189.79.9-66.71,1.74-119.54,19.29-158.51,52.64-38.96,33.35-57.09,73.81-54.36,121.37,2.25,53.81,24.08,94.48,65.49,121.98,37.28,20.69,70.62,30.3,99.99,28.82,29.38-1.47,51.87.04,67.48,4.54,17.34,5.65,21.97,15.96,13.91,30.95-8.06,14.98-64.55,23.2-169.45,24.64l-33.12,128.25c92.39,4.67,164.91,3.01,217.56-4.98,52.62-1.35,97.33-19.47,134.13-54.36,36.8-34.89,52.77-76.67,47.91-125.36Z"/>
        <path class="cls-8" d="M324.15,628.54c52.62-1.35,97.33-19.47,134.13-54.36,31.08-29.46,47.24-63.87,48.61-103.17l-393.12,134.68-7.19,27.83c92.39,4.67,164.91,3.01,217.56-4.98Z"/>
      </g>
      <g>
        <path class="cls-12" d="M1255.11,622.69l-40.01-494.64,237.43-19.2,137.92,227.83-19.2-237.43,158.29-12.8,40.01,494.64-217.64,17.6-157.7-226.23,19.2,237.43-158.29,12.8Z"/>
        <polygon class="cls-8" points="1769.47 581.62 1764.37 518.54 1228.46 294.58 1255.04 623.23 1413.32 610.43 1394.12 373 1551.82 599.22 1769.47 581.62"/>
      </g>
      <g>
        <path class="cls-12" d="M1817.8,587.15l84.2-493.43,197.37,33.68-84.2,493.43-197.37-33.68Z"/>
        <polygon class="cls-8" points="2047.84 428.93 1826.28 537.01 1817.69 587.38 2015.06 621.06 2047.84 428.93"/>
      </g>
      <g>
        <path class="cls-12" d="M2100.85,407.61c-7.41-70.27,11.74-132.66,57.43-187.17,45.69-54.51,105.94-85.66,180.74-93.43,65.64-8.27,121.01-10.31,166.12-6.13l-39.24,189.1c-6.47-8.17-17.06-16.01-31.77-23.51-14.71-7.5-34.39-7.45-59.05.17-24.66,7.61-48.5,22.72-71.52,45.33-21.92,20.86-35.42,43.31-40.5,67.35-5.08,24.04,1.8,44.82,20.64,62.35,13.49,17.96,33.66,26.36,60.5,25.2,26.85-1.16,52.12-11.41,75.82-30.76,23.6-20.58,41.21-38.39,52.83-53.44l97.2,207.78c-52.72,19.23-115.52,31.83-188.4,37.79-76.98,1.32-141.52-19.92-193.59-63.74-52.08-43.82-81.15-102.78-87.21-176.89Z"/>
        <path class="cls-8" d="M2570.1,610.51l-26.49-56.63-427.81-73.95c14.41,41.26,38.47,76.17,72.31,104.64,52.08,43.82,116.61,65.07,193.59,63.74,72.87-5.96,135.67-18.56,188.4-37.79Z"/>
      </g>
      <path class="cls-12" d="M804.06,637.52s-170.3,6.67-237.2-95.46c-66.9-102.13-36.37-195.89-33.01-217.1s28.91-77.54,34.22-80.71l7.43-118.76s3.89-26.83,29.52-16.18l60.61,36.16s17.7-11.39,43.72-20.37c0,0,135.13-95.88,370.2-51.02,0,0,14.56,2.19,9.62,12.83,0,0-39.38,107.31-40.12,122.04,0,0,83.2,17.63,140.76,98.36,0,0,4.49,4.16-.13,9.35,0,0-90.4,64.68-110.46,84.74,0,0,59.95,59.91,83.13,182.42,0,0,3.18,13.67-6.85,12.61,0,0-148.81-11.37-159.94-11.03,0,0-73.9,53.3-191.51,52.13Z"/>
      <path class="cls-4" d="M975.62,505.84c-16.15,13.25-71.65,24.52-85.07,23.94,0,0-24.27-17.97-58.48-20.62,0,0-3.73-19.55-28.82-19.13h-.41c-25.01.08-28.41,19.71-28.41,19.71-34.13,3.31-58.06,21.78-58.06,21.78-13.34.83-69.08-9.36-85.48-22.28-16.48-12.92-43.4-47.46-42.49-117.78.83-70.32,48.87-136.01,113.39-137.08,64.52-1.08,99.64,67.59,99.64,67.59,0,0,33.71-69.41,98.24-69.58,64.52-.17,113.89,64.53,116.13,134.85,2.24,70.32-24.02,105.36-40.17,118.61Z"/>
      <ellipse class="cls-16" cx="704.12" cy="443.2" rx="31.83" ry="47.66" transform="translate(-4.33 6.96) rotate(-.56)"/>
      <ellipse class="cls-16" cx="901.55" cy="441.24" rx="31.83" ry="47.66" transform="translate(-4.3 8.9) rotate(-.56)"/>
      <ellipse class="cls-16" cx="803.34" cy="510.3" rx="29.38" ry="20.56" transform="translate(-5.05 8.03) rotate(-.57)"/>
      <g>
        <path class="cls-15" d="M2593.25,120.27v-44.96h-16.2v-10.6h46.17v10.6h-16.2v44.96h-13.77Z"/>
        <path class="cls-15" d="M2684.89,120.27h-13.7v-36.82l-9.98,23.76h-9.39l-9.98-23.76v36.82h-12.96v-55.55h15.87l12.15,27.42,12.11-27.42h15.87v55.55Z"/>
      </g>
    </g>
  </g>
</svg>