<svg id="レイヤー_1" data-name="レイヤー 1" xmlns="http://www.w3.org/2000/svg" viewBox="0 0 154.13 22.49"><defs><style>.cls-1{fill:#fff;}</style></defs><title>アートボード 5</title><path class="cls-1" d="M22.18,2.06V5.21H16.51a23.31,23.31,0,0,0,6.24,5.23,9.13,9.13,0,0,0-2.16,2.64A35.37,35.37,0,0,1,13.2,6.65l2-1.44H6.91L9.12,6.58c.26.16.38.24.38.43s-.4.29-.6.24a28.64,28.64,0,0,1-6.21,6A9.87,9.87,0,0,0,0,11.14c4.13-3,5.52-5,6.1-5.93H.67V2.06H9.48V0l3.84.17c.29,0,.46,0,.46.24s-.17.31-.46.43V2.06Zm-13,7.08a15,15,0,0,0,2.25,4.11,13.41,13.41,0,0,0,2.21-4l3.24,1.45a.48.48,0,0,1,.36.43c0,.31-.5.28-.69.28a17.15,17.15,0,0,1-2.79,4.25,18.11,18.11,0,0,0,8.91,3.68,9,9,0,0,0-2.4,3.09,22.88,22.88,0,0,1-9-4.41,23.62,23.62,0,0,1-8.76,4.41,9,9,0,0,0-2.33-3A21,21,0,0,0,9,15.63a22.56,22.56,0,0,1-2.81-4.88Z"/><path class="cls-1" d="M32.69,9.26v6.92a2.75,2.75,0,0,0,.67,1.87c.74.84,1.63.84,4,.84,7,0,8.23,0,11.76-.46a6.92,6.92,0,0,0-1,3.27H36.67c-2.52,0-4.29-.39-5.54-2.14-.67.6-1.71,1.49-2.57,2.14a1.55,1.55,0,0,1,.05.36c0,.17,0,.41-.29.41s-.26-.15-.38-.36l-1.76-3.24a15.74,15.74,0,0,0,3-1.59V12.43H27.07V9.26ZM28.82.19a20,20,0,0,1,4.11,3.39c-.43.43-.77.72-2.5,2.61a25.94,25.94,0,0,0-3.69-3.5ZM39.15,14.81H37.2v3.43H34V5.86h3.29a21.57,21.57,0,0,0-1.85-1.28l1.23-1.27H34V.58H45.43l1.2,1.24a18,18,0,0,1-3.88,4h4.77v10c0,2.3-2.21,2.47-3.91,2.54a6.84,6.84,0,0,0-.94-2.9c.63.07,1.11.09,1.2.09.44,0,.46-.05.46-.74H42.17v3h-3Zm0-6.46H37.2V9.41h1.95Zm0,3.22H37.2v1.06h1.95ZM38.06,3.31c1.06.89,1.18,1,1.73,1.49A9.08,9.08,0,0,0,41.4,3.31Zm4.11,6.1h2.16V8.35H42.17Zm0,3.22h2.16V11.57H42.17Z"/><path class="cls-1" d="M71.86,1.85a3.84,3.84,0,0,0,1.34-.22l2.67,2.45L75,5.33a54.49,54.49,0,0,1-6.46,7.92,11.76,11.76,0,0,0-2.76-2.64,25.46,25.46,0,0,0,4.49-5.14h-16V1.85ZM66.05,6.41c.17,0,.43,0,.43.29s-.31.36-.43.4a23.75,23.75,0,0,1-1.25,7.18,15.1,15.1,0,0,1-6,7.11,20.47,20.47,0,0,0-3.36-2.55c3.36-1.92,7-4.54,6.55-12.67Z"/><path class="cls-1" d="M96.75,3.89a4,4,0,0,0,1.7-.36l2,1.7c-.43.72-1.89,4-2.45,5.23-3.69,8.31-9,11-11.13,12a12.87,12.87,0,0,0-3.1-2.74,22,22,0,0,0,7.8-5.68,23.11,23.11,0,0,0,3.58-6.73h-6a32.68,32.68,0,0,1-5.4,6.15,13.08,13.08,0,0,0-2.93-2.59C86.64,6,88.15,1.73,88.68.29L92.14,2c.09.05.31.17.31.36s-.34.31-.58.33c-.38.75-.45.94-.62,1.23Z"/><path class="cls-1" d="M112.51.84l3.91.19c.25,0,.48,0,.48.27s-.28.36-.48.4V7l7.42-.86a6.53,6.53,0,0,0,1.73-.46l2.5,2.28c-.32.36-.87,1.06-1.08,1.32-.75,1-3.84,5.45-4.52,6.32a28.18,28.18,0,0,0-3.26-2,21.67,21.67,0,0,0,2.88-3.6l-5.67.7v5.18c0,1.46.46,1.82,2.38,1.82a68.89,68.89,0,0,0,7.78-.43,19.58,19.58,0,0,0-.46,3.89c-1.82,0-6.58.07-8.25.07-4.69,0-5.36-1.85-5.36-4.9V11.18l-5.21.63L107,8.11l5.54-.67Z"/><path class="cls-1" d="M135.1,5.47V1.87h12.26A6.83,6.83,0,0,0,149,1.68l1.87,2A7.29,7.29,0,0,0,150,5.26a42,42,0,0,1-3,5.88,62.35,62.35,0,0,1,7.2,6.57c-.79.92-2.09,2.36-2.88,3.27a33,33,0,0,0-6.46-6.84,27.79,27.79,0,0,1-9.21,7.17A10.79,10.79,0,0,0,132.84,18a20.26,20.26,0,0,0,7.8-4.81,19,19,0,0,0,4.8-7.75Z"/></svg>