<svg id="レイヤー_1" data-name="レイヤー 1" xmlns="http://www.w3.org/2000/svg" viewBox="0 0 28.08 26.45"><defs><style>.cls-1{fill:#ab0050;}</style></defs><path class="cls-1" d="M25.83.59Z"/><path class="cls-1" d="M27.34.62a1.49,1.49,0,0,0-1.51,0L23.44,1.88,20.3.18A1.51,1.51,0,0,0,19.58,0a1.58,1.58,0,0,0-.73.18l-3.13,1.7L12.59.18a1.57,1.57,0,0,0-1.46,0L8,1.88,5.61.59A1.41,1.41,0,0,0,4.89.4,1.53,1.53,0,0,0,3.36,1.93V22H4.93V2L7.27,3.27a1.5,1.5,0,0,0,1.46,0l3.13-1.69L15,3.27a1.5,1.5,0,0,0,1.46,0l3.13-1.69,3.13,1.69a1.5,1.5,0,0,0,1.46,0L26.51,2V22.41A2.46,2.46,0,0,1,24,24.88H5.23a3.65,3.65,0,0,1-3.66-3.66V4.89H0V21.22a5.23,5.23,0,0,0,5.23,5.23H24a4,4,0,0,0,4-4V1.93A1.51,1.51,0,0,0,27.34.62Z"/><rect class="cls-1" x="6.73" y="6.04" width="18.1" height="5.6"/><rect class="cls-1" x="18.45" y="13.84" width="6.39" height="6.89"/><rect class="cls-1" x="6.73" y="13.94" width="9.41" height="1.05"/><rect class="cls-1" x="6.73" y="19.58" width="9.41" height="1.05"/><rect class="cls-1" x="6.73" y="16.76" width="9.41" height="1.05"/></svg>