<svg id="icon_linkin" xmlns="http://www.w3.org/2000/svg" width="36.207" height="36.207" viewBox="0 0 36.207 36.207">
  <path id="パス_113" data-name="パス 113" d="M29.419,0H6.789A6.791,6.791,0,0,0,0,6.789v22.63a6.791,6.791,0,0,0,6.789,6.789h22.63a6.791,6.791,0,0,0,6.789-6.789V6.789A6.791,6.791,0,0,0,29.419,0ZM11.2,30.735H5.57L5.538,13.893h5.625ZM8.241,11.69H8.209a2.85,2.85,0,1,1,.071-5.685,2.851,2.851,0,1,1-.038,5.685ZM30.7,30.735H25.023v-9.15c0-2.214-.588-3.721-2.568-3.721a2.872,2.872,0,0,0-2.72,2,3.673,3.673,0,0,0-.185,1.333v9.536h-5.7l-.033-16.842h5.7l.033,2.377a5.272,5.272,0,0,1,4.847-2.72c3.6,0,6.294,2.35,6.294,7.4v9.781Z" fill="#fff"/>
</svg>
