<svg version="1.1" xmlns="http://www.w3.org/2000/svg" xmlns:xlink="http://www.w3.org/1999/xlink" x="0px" y="0px" width="60px" height="60px" viewBox="0 0 60 60" xml:space="preserve"><g><circle fill="#D52662" cx="30" cy="30" r="30"/></g><g><g><circle fill="none" stroke="#FFF" stroke-width="1.5" stroke-linecap="round" stroke-linejoin="round" stroke-miterlimit="10" cx="20.9" cy="18.8" r="4"/><path fill="none" stroke="#FFF" stroke-width="1.5" stroke-linecap="round" stroke-linejoin="round" stroke-miterlimit="10" d="M15.5 30.7 15.5 38.7"/><circle fill="none" stroke="#FFF" stroke-width="1.5" stroke-linecap="round" stroke-linejoin="round" stroke-miterlimit="10" cx="39.1" cy="23.8" r="3.3"/><path fill="none" stroke="#FFF" stroke-width="1.5" stroke-linecap="round" stroke-linejoin="round" stroke-miterlimit="10" d="M44.5 35.1 44.5 41.6M30.1 27.1c-.8-1.3-2.2-2.2-3.8-2.2H15.5c-2.4 0-4.3 1.9-4.3 4.3v9.4h8.7M38.7 41.6h10.1v-8c0-2.4-1.9-4.3-4.3-4.3H34.3"/><circle fill="none" stroke="#FFF" stroke-width="1.5" stroke-linecap="round" stroke-linejoin="round" stroke-miterlimit="10" cx="29.6" cy="32.5" r="2.5"/><path fill="none" stroke="#FFF" stroke-width="1.5" stroke-linecap="round" stroke-linejoin="round" stroke-miterlimit="10" d="M30.5 37.2h-1.8c-3.3 0-6 2.7-6 6v2.7h13.8v-2.7C36.5 39.9 33.8 37.2 30.5 37.2zM26 41.3 26 45.9M33.2 41.3 33.2 45.9"/></g></g></svg>