<svg version="1.1" xmlns="http://www.w3.org/2000/svg" xmlns:xlink="http://www.w3.org/1999/xlink" x="0px" y="0px" width="60px" height="60px" viewBox="0 0 60 60" xml:space="preserve"><g><circle fill="#D52662" cx="30" cy="30" r="30"/></g><g><g><path fill="none" stroke="#FFF" stroke-width="1.5" stroke-linecap="round" stroke-linejoin="round" stroke-miterlimit="10" d="M26.2,39.2H11.9c0,0,0,0,0,0V16.8c0,0,0,0,0,0h36.1c0,0,0,0,0,0v22.4c0,0,0,0,0,0h-4.2"/><path fill="none" stroke="#FFF" stroke-width="1.5" stroke-linecap="round" stroke-linejoin="round" stroke-miterlimit="10" d="M39 33.4h3.2c0 0 0 0 0 0 0 0 0 0 0 0L40 48.6c0 0 0 0 0 0h-9.9c0 0 0 0 0 0l-2.3-15.1c0 0 0 0 0 0 0 0 0 0 0 0h3.2M39 31.9 31.1 31.9"/><path fill="none" stroke="#FFF" stroke-width="1.5" stroke-linecap="round" stroke-linejoin="round" stroke-miterlimit="10" d="M32.5 43.3 31 32c0 0 0 0 0 0 0 0 0 0 0 0H39c0 0 0 0 0 0 0 0 0 0 0 0l-1.5 11.3M35.1 24.8c-1.2 0-2.2-1-2.2-2.2s1-2.2 2.2-2.2 2.2 1 2.2 2.2S36.3 24.8 35.1 24.8zM29 31.9l-3.3-1.2c-.6-.2-.9-.8-.7-1.4.1-.3.3-.5.6-.6.2-.1.3-.1.5-.1.1 0 .3 0 .4.1l3.2 1.1 1.8-1.9c.6-.7 1.5-1 2.5-1h2.4c.9 0 1.8.4 2.5 1l1.8 1.9 3.2-1.1c.1 0 .2-.1.4-.1.2 0 .3 0 .5.1.3.1.5.3.6.6.2.6-.1 1.2-.7 1.4l-3.3 1.2M32.6 32 32.6 29.8M37.4 29.8 37.4 32M16.3 21.9 26.4 21.9M16.3 24.8 26.4 24.8M16.3 27.7 20.6 27.7"/></g></g></svg>