<svg xmlns="http://www.w3.org/2000/svg" width="38.32" height="27.61" viewBox="0 0 38.32 27.61">
  <defs>
    <style>
      .cls-1 {
        fill: #fff;
      }
    </style>
  </defs>
  <title>head_tgs</title>
  <g id="レイヤー_2" data-name="レイヤー 2">
    <g id="レイヤー_1-2" data-name="レイヤー 1">
      <g>
        <path class="cls-1" d="M11.06.81V4.25a.48.48,0,0,1-.54.54H7.77v22a.48.48,0,0,1-.54.54H3.79a.55.55,0,0,1-.37-.15.5.5,0,0,1-.17-.39v-22H.54A.48.48,0,0,1,0,4.25V.81A.48.48,0,0,1,.54.27h10A.48.48,0,0,1,11.06.81Z"/>
        <path class="cls-1" d="M21.62.39A4.9,4.9,0,0,1,24.21,3a4.71,4.71,0,0,1,.39,1.89V6.11a.66.66,0,0,1-.5.7L20.57,8.08q-.5.16-.5-.39V5.07a.92.92,0,0,0-.93-.93h-.31a.92.92,0,0,0-.93.93V22.54a.92.92,0,0,0,.93.93h.31a.92.92,0,0,0,.93-.93V15.66H19V11.25h5.07a.48.48,0,0,1,.54.54V22.74a4.7,4.7,0,0,1-.39,1.89,4.9,4.9,0,0,1-2.59,2.59,4.7,4.7,0,0,1-1.9.39H18.25a4.7,4.7,0,0,1-1.9-.39,4.9,4.9,0,0,1-2.59-2.59,4.69,4.69,0,0,1-.39-1.89V4.87A4.69,4.69,0,0,1,13.77,3,4.9,4.9,0,0,1,16.36.39,4.7,4.7,0,0,1,18.25,0h1.47A4.7,4.7,0,0,1,21.62.39Z"/>
        <path class="cls-1" d="M35.34.39A4.89,4.89,0,0,1,37.93,3a4.7,4.7,0,0,1,.39,1.89V6.34a.66.66,0,0,1-.5.7L34.3,8q-.5.16-.5-.39V5.07a.93.93,0,0,0-.93-.93h-.31a.92.92,0,0,0-.93.93V8.58a2.81,2.81,0,0,0,.15.73,1.77,1.77,0,0,0,.43.62l5.07,3.79a2.51,2.51,0,0,1,.79,1.1,6.7,6.7,0,0,1,.25,1.26v6.65a4.7,4.7,0,0,1-.39,1.89,4.89,4.89,0,0,1-2.59,2.59,4.7,4.7,0,0,1-1.9.39H32a4.7,4.7,0,0,1-1.89-.39,4.9,4.9,0,0,1-2.59-2.59,4.69,4.69,0,0,1-.39-1.89V19a.66.66,0,0,1,.5-.7l3.52-.93q.5-.15.5.39v4.76a.92.92,0,0,0,.93.93h.31a.93.93,0,0,0,.93-.93v-5.1a4.29,4.29,0,0,0-.16-.89,1.51,1.51,0,0,0-.46-.7l-5-3.83a3.57,3.57,0,0,1-.83-1.08,3.42,3.42,0,0,1-.25-1.43V4.87A4.69,4.69,0,0,1,27.49,3,4.9,4.9,0,0,1,30.08.39,4.7,4.7,0,0,1,32,0h1.47A4.7,4.7,0,0,1,35.34.39Z"/>
      </g>
    </g>
  </g>
</svg>
