<?xml version="1.0" encoding="utf-8"?>
<!-- Generator: Adobe Illustrator 22.1.0, SVG Export Plug-In . SVG Version: 6.00 Build 0)  -->
<svg version="1.1" id="レイヤー_1" xmlns="http://www.w3.org/2000/svg" xmlns:xlink="http://www.w3.org/1999/xlink" x="0px"
	 y="0px" viewBox="0 0 57.4 10.8" style="enable-background:new 0 0 57.4 10.8;" xml:space="preserve">
<style type="text/css">
	.st0{fill:#00498A;}
</style>
<title>nikkei</title>
<g>
	<path class="st0" d="M8.6,0.2v10.4h9.5v-9l1.1-1.4C19.2,0.2,8.6,0.2,8.6,0.2z M16,4.6h-5.3V1.7H16V4.6z M10.7,6.1H16v3.1h-5.3V6.1z
		"/>
	<path class="st0" d="M37.5,5.4c1.4-0.4,1.9-1,1.9-2.2c0-1.8-1.2-2.9-3.2-2.9h-6.4l1,1.4v9h5.5c2.6,0,3.2-1.6,3.2-3
		C39.4,6.6,39.2,5.9,37.5,5.4 M35.4,1.7c1.4,0,1.8,0.5,1.8,1.4S37,4.5,35.4,4.5h-2.5V1.7H35.4z M35.6,9.1h-2.7v-3H36
		c1.2,0,1.4,0.8,1.4,1.5C37.4,8.5,37.3,9.1,35.6,9.1"/>
	<path class="st0" d="M24.1,6.5c-0.3-1.1-0.7-2.3-1-3h-0.7l1.8-2.3h-1.9l-1.1,1.5l-0.5-0.3l1.8-2.3h-1.9L19,2v1l1.2,0.8L19,5.4v1.1
		h1.8v4.1h1.6V6.5H24.1z M22.2,5.4h-1.3l1-1.3C22,4.5,22.1,4.9,22.2,5.4"/>
	<path class="st0" d="M26,2.2h-1.8c0.3,0.7,0.7,1.3,1.2,1.8C25,4.2,24.5,4.3,24,4.4v1.3c1.1-0.1,1.9-0.4,2.7-0.8
		c0.8,0.4,1.8,0.7,3,0.8V4.3c-0.6-0.1-1.2-0.2-1.7-0.4c0.7-0.8,1.2-1.7,1.5-2.7l-0.7-1h-4.5v1.4h3.1c-0.1,0.6-0.4,1.1-0.7,1.5
		C26.3,2.8,26.1,2.5,26,2.2"/>
	<path class="st0" d="M45.1,0.2h-5.9l1,1.4v1.9c0,1.1,0.6,1.6,1.9,1.9c-1.3,0.3-1.9,1-1.9,1.9v3.4h2.2V7h2.7c2.6,0,3.8-1.6,3.8-3.3
		C48.9,1.2,47.1,0.2,45.1,0.2 M44.6,5.4h-2.2V1.8h2.2c1.4,0,2.1,0.7,2.1,1.8C46.7,4.5,46.3,5.4,44.6,5.4"/>
	<path class="st0" d="M18.9,10.6h1.2c0.2-1,0.3-2.3,0.3-3.5H19C19.1,8.1,19,9.5,18.9,10.6z"/>
	<path class="st0" d="M27.7,9.3V8h1.6V6.7h-1.6V5.5H26v1.2h-1.5V8H26v1.3h-1.6c-0.1-0.8-0.2-1.5-0.3-2.2H23c0.1,1.1,0.2,2.3,0.2,3.5
		H30V9.3H27.7z"/>
</g>
</svg>
