<svg xmlns="http://www.w3.org/2000/svg" width="60" height="60" viewBox="0 0 60 60"><defs><style>.cls-1{fill:#f6f7fc;opacity:0;}.cls-2{fill:#fff;opacity:0.5;}</style></defs><g id="最終形"><rect class="cls-1" width="60" height="60"/></g><g id="レイヤー_4" data-name="レイヤー 4"><path class="cls-2" d="M541,986H514a3,3,0,0,1-3-3V943a3,3,0,0,1,3-3h32a3,3,0,0,1,3,3v35a1,1,0,0,1-.29.71l-7,7A1,1,0,0,1,541,986Zm-27-44a1,1,0,0,0-1,1v40a1,1,0,0,0,1,1h26.59l6.41-6.41V943a1,1,0,0,0-1-1Zm34,36h0Zm-10,3v-5h5a1,1,0,0,0,0-2h-6a1,1,0,0,0-1,1v6a1,1,0,0,0,2,0Zm-9-23.5v-9a.5.5,0,0,0-.5-.5h-11a.5.5,0,0,0-.5.5v9a.5.5,0,0,0,.5.5h11A.5.5,0,0,0,529,957.5Zm14-8.5a1,1,0,0,0-1-1H532a1,1,0,0,0,0,2h10A1,1,0,0,0,543,949Zm0,4a1,1,0,0,0-1-1H532a1,1,0,0,0,0,2h10A1,1,0,0,0,543,953Zm0,4a1,1,0,0,0-1-1H532a1,1,0,0,0,0,2h10A1,1,0,0,0,543,957Zm0,6a1,1,0,0,0-1-1H518a1,1,0,0,0,0,2h24A1,1,0,0,0,543,963Zm0,4a1,1,0,0,0-1-1H518a1,1,0,0,0,0,2h24A1,1,0,0,0,543,967Zm-11,4a1,1,0,0,0-1-1H518a1,1,0,0,0,0,2h13A1,1,0,0,0,532,971Z" transform="translate(-500 -933)"/></g></svg>