<svg xmlns="http://www.w3.org/2000/svg" viewBox="0 0 23 26"><defs><style>.cls-1{fill:#fff;}</style></defs><title>アセット 1</title><g id="レイヤー_2" data-name="レイヤー 2"><g id="レイヤー_1-2" data-name="レイヤー 1"><polygon class="cls-1" points="5.86 0 0 6 0 26 7 26 9.1 23.9 2.1 23.9 2.1 6.86 6.75 2.1 20.9 2.1 20.9 23.9 15.1 23.9 13 26 23 26 23 0 5.86 0"/><path class="cls-1" d="M12.79,10.67l.51.58V17H11.07V10.67h1.72m.57-1.26H9.81v8.86h4.75v-7.5l-1.2-1.36Z"/><path class="cls-1" d="M7.49,10.67v2.25H5.26V10.67H7.49M8.75,9.41H4v4.77H8.75V9.41ZM4,14.18v0Z"/><polygon class="cls-1" points="5.36 12.82 4 12.82 4 18.27 5.36 18.27 5.36 12.82 5.36 12.82"/><polygon class="cls-1" points="16.9 18.27 15.64 18.27 15.64 9.46 19 9.46 19 10.72 16.9 10.72 16.9 18.27"/><rect class="cls-1" x="16.23" y="12.59" width="2.77" height="1.26"/></g></g></svg>