<svg xmlns="http://www.w3.org/2000/svg" width="100.54" height="23.74"><path d="M1.77 20.72a19.62 19.62 0 00.15 2.91H0a19.75 19.75 0 00.16-2.91V3.64A27.84 27.84 0 00.05.78a23.78 23.78 0 002.73.1h4a22.36 22.36 0 002.58-.1c0 .73-.08 1.51-.08 2.47v3.2c0 1 0 1.77.08 2.42-.62-.06-1.51-.08-2.63-.08h-5zm0-16.56h6v-2h-6zm0 3.35h6v-2.1h-6zm4.83 4.66a20 20 0 00-2.47.1v-1.53a16.15 16.15 0 002.47.13h8.25a16.44 16.44 0 002.49-.13v1.53a19.9 19.9 0 00-2.47-.1h-.93v3.22h1.3a14.45 14.45 0 002.49-.13v1.56a16.2 16.2 0 00-2.49-.13h-1.3v4a9.05 9.05 0 00.15 2.23H12.3a9.7 9.7 0 00.15-2.23v-4H8.53a8.75 8.75 0 01-3.43 6.45 4.65 4.65 0 00-1.3-1.06 7.52 7.52 0 002.26-2.29 7.55 7.55 0 001-3.1h-.92a16.26 16.26 0 00-2.5.13v-1.56a14.72 14.72 0 002.5.13h1c.07-1.25.07-1.25.1-3.22zm2.16 0v.6c0 .8 0 1.74-.1 2.62h3.79v-3.22zm12.48 8.89c0 1.12-.26 1.66-.93 2a5.36 5.36 0 01-1.85.18l-2.21-.07a5.21 5.21 0 00-.49-1.67 21.08 21.08 0 002.88.26c.84 0 1-.13 1-.73V8.79h-5.31c-1.1 0-1.93 0-2.66.08.06-.76.08-1.38.08-2.42v-3.2c0-1 0-1.61-.08-2.47a23.12 23.12 0 002.68.1h4.29a24 24 0 002.73-.1 24.92 24.92 0 00-.13 2.86zm-8-16.9h6.4v-2h-6.4zm0 3.35h6.4v-2.1h-6.4zm15.98 12.93c0 1.56 0 2.31.11 3.25h-1.9a26.94 26.94 0 00.16-3.2v-7.57c0-1.25 0-2.44.07-3.85a17.08 17.08 0 01-2.31 3.54 5.65 5.65 0 00-1-1.51A22.48 22.48 0 0029 3.22 17.46 17.46 0 0029.8 0l1.74.54-.42 1.25a40.57 40.57 0 01-1.9 4.78zm15.22-7.18a14.86 14.86 0 002.39-.13v1.61a19.3 19.3 0 00-2.34-.13H41V17h3.43a14.25 14.25 0 002.39-.13v1.61a19.51 19.51 0 00-2.36-.13H41V21h4.7a14.2 14.2 0 002.37-.13v1.69a20.42 20.42 0 00-2.55-.16H34.35v1.33h-1.69a20.77 20.77 0 00.18-2.73v-8.78a14.25 14.25 0 01-2.18 2.89 4.57 4.57 0 00-1-1.23 16.12 16.12 0 002.47-2.7 18.09 18.09 0 002.47-4.52l1.56.46c-.52.94-.58 1-.76 1.33a6.75 6.75 0 01-.62 1.07h4.65a10.14 10.14 0 001.38-2.86l1.53.46A21.57 21.57 0 0141 9.52h4.5a16.63 16.63 0 002.5-.16V11c-.71-.07-1.49-.13-2.35-.13H41v2.37zM38.71 2.31a10.08 10.08 0 00-.15-2h1.82a9.51 9.51 0 00-.13 2v2.45h5.23V3.35a17.16 17.16 0 00-.11-1.92h1.77a12.54 12.54 0 00-.1 1.9v1.32a10.29 10.29 0 00.07 1.56h-13a17.18 17.18 0 00-1.87 0V3.33a14.18 14.18 0 00-.13-1.9H34a19 19 0 00-.08 1.92v1.41h4.78zm.81 11v-2.42h-5.17v2.37zM34.35 17h5.17v-2.39h-5.17zm0 4.06h5.17V18.3h-5.17zm16.51-9.52a12.91 12.91 0 001.56.08H53c.81-1 1.14-1.51 1.74-2.36a31 31 0 00-3.77-4l1-1.2 1 1A17.2 17.2 0 0055.48 0l1.64.68a4.77 4.77 0 00-.54.93A32.4 32.4 0 0154 6.11c.81.88.81.88 1.66 1.9 2-3.07 2.14-3.41 2.53-4.5l1.53.91C59.23 5 59.23 5 58 7c-.88 1.38-2.15 3.2-3.25 4.57 1.59 0 2.76-.15 4.06-.31a14.82 14.82 0 00-1-2.1L59 8.53a26.67 26.67 0 012.08 4.73l-1.35.62c-.19-.65-.26-.88-.42-1.35a24.82 24.82 0 01-2.47.26v8.32a16.91 16.91 0 00.16 2.6h-1.88a18.8 18.8 0 00.16-2.6v-8.19c-1.12.08-2 .13-2.6.16-.81.05-1.12.08-1.59.13zM53.92 15a26 26 0 01-1.5 7.28L51 21.55a18.44 18.44 0 001.45-6.91zm5.46-.42a40.33 40.33 0 011.17 5.75l-1.43.41a25.68 25.68 0 00-1-5.77zm3.85-8.92a17.46 17.46 0 00-2.62.16V4a18.08 18.08 0 002.62.16h3.17V2.39a13.28 13.28 0 00-.15-2.1h1.9A11.94 11.94 0 0068 2.44v1.75h3.74A18.23 18.23 0 0074.36 4v1.8a18.07 18.07 0 00-2.63-.16H68v4h3a18.17 18.17 0 002.63-.15v1.77a17.45 17.45 0 00-2.6-.16H64a17.91 17.91 0 00-2.6.16V9.52a18.28 18.28 0 002.6.15h2.4v-4zm.29 18h-1.74a15.13 15.13 0 00.13-2.46v-5.11a19 19 0 00-.11-2.36 14.54 14.54 0 002 .1h7a14.22 14.22 0 002.08-.1 18.33 18.33 0 00-.11 2.42v5a20.85 20.85 0 00.13 2.52h-1.74v-1.49h-7.64zm0-2.91h7.64v-5.44h-7.64zM83 11.21a18 18 0 00-3.1.15 18.37 18.37 0 00.13-2.86V4a18.62 18.62 0 00-.13-2.83 15.81 15.81 0 003 .16h11.53a16.7 16.7 0 003-.16A18.38 18.38 0 0097.37 4v4.5a18.31 18.31 0 00.11 2.86 17.64 17.64 0 00-3.07-.15h-5.18v2.36h8.3a15.74 15.74 0 002.68-.18v1.82a21.1 21.1 0 00-2.68-.16h-7.28A18 18 0 0094 18.28a23 23 0 006.58 2.91 7 7 0 00-.93 1.64 26.37 26.37 0 01-6.48-3.28 19.83 19.83 0 01-4-3.74c.06 1.3.08 1.56.08 2v3.05a14 14 0 00.18 2.83h-2a16 16 0 00.19-2.83v-5A23.86 23.86 0 0178 23a6.18 6.18 0 00-1.07-1.54 23.92 23.92 0 005.41-2.62 16.53 16.53 0 004.21-3.78h-6.81a18.76 18.76 0 00-2.57.16v-1.83a13.61 13.61 0 002.57.18h7.91v-2.36zm-1.33-8.45v2.8h6v-2.8zm0 4.18V9.8h6V6.94zm7.56-1.38h6.5v-2.8h-6.5zm0 4.24h6.5V6.94h-6.5z" fill="#fff" data-name="レイヤー 2"/></svg>