<svg xmlns="http://www.w3.org/2000/svg" width="81.81" height="19.51"><path d="M8.36.78v6.91H2.52v11.73H0V.78zM6 3.49V2.6H2.52v.89zM2.52 5v.9H6V5zm9.83 7.22h2.28v2h-2.28v4.67h-2.27v-4.7H8.17a7.55 7.55 0 01-3.26 5.06 3.92 3.92 0 00-2-1.38 5.25 5.25 0 003-3.68H3.53v-2h2.58v-1.56H4.07v-1.9h10.14v1.89h-1.86zm-2.27-1.56h-1.7v1.56h1.72zM18.14.78v16.1c0 2.44-1.6 2.63-3.8 2.6a6.57 6.57 0 00-1-2.6 8.36 8.36 0 001.28.15c.51 0 1-.09 1-.84V7.71H9.74V.78zm-2.5 2.73V2.6h-3.5v.91zM12.14 5v.92h3.5V5zm27.29 3v1.89h-4.59V11h3.75v1.89h-3.75V14h3.75v1.91h-3.75v1.13h4.76V19h-10v.48h-2.5v-7.74c-.25.25-.36.38-.61.61a5.78 5.78 0 00-1.39-1.58v8.71h-2.57V8.76c-.48.65-.8 1.05-1.05 1.34a4.57 4.57 0 00-1.8-1.83A21.86 21.86 0 0024.23 0l2.46.82a.33.33 0 01.27.31c0 .21-.17.28-.48.38-.46 1-1.18 2.58-1.41 3.05.42.14.51.19.51.33s-.11.23-.51.42v5a18.33 18.33 0 003.53-4.68H27v-5l2.49.13c.19 0 .38 0 .38.25s-.12.27-.5.48v2.2h2.18V.11l2.63.14c.1 0 .37.07.37.25s-.33.36-.52.4v2.77h2.33v-3L39 .86c.21 0 .44 0 .44.23s-.12.28-.54.44v4.1H34l1.49.8a.4.4 0 01.25.33c0 .19-.06.21-.59.34-.08.14-.46.75-.52.88zm-9.86 1.89V11h2.79V9.89zm0 3V14h2.79v-1.09zm0 3v1.13h2.79v-1.08zm2.29-8a17.41 17.41 0 001.28-2.35h-3.41l1.18.61c.21.1.29.23.29.31s-.12.23-.56.3c-.21.37-.4.69-.68 1.13zm17.43-4.15a.39.39 0 01.23.35c0 .28-.61.21-.72.19a48 48 0 01-3.36 4.54c.55 0 .68 0 1.87-.17l-.46-1.2 1.72-.84a21.71 21.71 0 011.43 3.8 12 12 0 00-2.06 1 12.08 12.08 0 00-.23-1.19c-.35.06-.67.14-1.13.2v9h-2.4v-8.59c-1.45.26-1.59.28-2.16.4-.06.19-.15.47-.36.47s-.25-.17-.31-.4l-.48-2.15 1.72-.1c.44-.48 1.15-1.32 1.32-1.53A20.35 20.35 0 0041 5l1.28-1.93.86.56a16.4 16.4 0 002-3.59l2.1 1.1c.14.08.25.16.25.33s-.13.21-.57.23A38.65 38.65 0 0144.77 5c.32.29.44.44.63.6a30.44 30.44 0 001.91-3zm-5.55 8.52c.13 0 .42.07.42.23s-.31.32-.46.34A39.91 39.91 0 0143 18a18.38 18.38 0 00-2.06-.49 21.35 21.35 0 001-5.48zm5.26-.44a14 14 0 00.92 4.6 6.13 6.13 0 00-1.89.82 24.37 24.37 0 01-1-4.89zM60.71 3v2.29h-4.18V7.5h3.55v2.18h-9.6V7.5H54V5.29h-4.21V3H54V.25l2.51.15c.21 0 .46.08.46.27s-.23.3-.44.4V3zm-7.56 15.31v1.15h-2.46V11h9.24v8.46h-2.5v-1.15zm4.28-2.23v-2.85h-4.28v2.85zm15.88 3.43h-2.54v-5.57a24.37 24.37 0 01-6.62 4.94 6.24 6.24 0 00-2-2 18.39 18.39 0 007-4.18h-6.63v-2.2h8.25V9.11h-6V.82h14.67v8.29h-6.13v1.39h8.38v2.18h-6.81a15.39 15.39 0 006.93 3.8 10.32 10.32 0 00-1.89 2 17.4 17.4 0 01-6.61-4.66zM70.77 4V2.71h-3.32V4zm-3.32 1.75v1.3h3.32v-1.3zM76.71 4V2.71h-3.4V4zm-3.4 1.78v1.3h3.4V5.75z" fill="#fff" data-name="レイヤー 2"/></svg>