<svg xmlns="http://www.w3.org/2000/svg" width="179.04" height="24.21"><path d="M22.91 13a23.18 23.18 0 00-3.44-.19h-16A24.23 24.23 0 000 13v-2.13a23.75 23.75 0 003.46.18h16a22.74 22.74 0 003.44-.18zm8.26 0l-1.92.31c-.29 5-.94 7.78-2.44 10.48a6.27 6.27 0 00-1.38-1.22c1.45-2.24 2-4.42 2.34-9-1.54.21-1.74.23-2.06.31l-.31-1.71h.6c.47 0 1 0 1.9-.11.07-2 .1-3.12.1-6.19a18.08 18.08 0 00-.16-2.88 14.49 14.49 0 002.16.08h.49A13.07 13.07 0 0031.67 0l1.69.42c-.44 1-.91 2-1.28 2.65h1.82a14.28 14.28 0 002.16-.13A12.58 12.58 0 0036 4.78v6c.41-.1.57-.13 1.06-.23l.08 1.38-1.14.21v9.54c0 1.36-.57 1.88-2.06 1.88a19.54 19.54 0 01-2.73-.18 5.81 5.81 0 00-.33-1.67 16.51 16.51 0 003.12.34c.44 0 .52-.08.52-.68v-8.91c-1 .2-1.25.23-2 .33v4.27a19.16 19.16 0 00.11 2.49H31a16.35 16.35 0 00.15-2.49zm3.31-8.58h-5v1.74c0 2.13-.05 4.22-.1 5.67 1.92-.23 3.53-.49 5.15-.78zm-2.92 1.17a22 22 0 011.69 3.87l-1.32.63a17.51 17.51 0 00-1.56-3.9zm16.33 6.89a11 11 0 00-.49 1A21.31 21.31 0 0143.81 19a18.14 18.14 0 005.59 3.37 6.94 6.94 0 00-1 1.56 19.73 19.73 0 01-5.62-3.84 22.6 22.6 0 01-5.3 3.71 5.49 5.49 0 00-1.14-1.43 18.63 18.63 0 005.38-3.4A16.73 16.73 0 0138.27 13l-.88.08v-1.59a11.9 11.9 0 002.1.11h5.62a13 13 0 001.89-.13zm-7.36-9.67a13.24 13.24 0 01-.65 4.63A6.24 6.24 0 0138 10.22a3.57 3.57 0 00-1.25-1.15 4.9 4.9 0 001.86-2.67 11.71 11.71 0 00.44-3.59 7.59 7.59 0 00-.13-1.48c.78.07 1.48.1 2.19.1h2.41a20.07 20.07 0 002.29-.1 20.35 20.35 0 00-.1 2.44v4c0 .45 0 .47 1 .47.81 0 1-.08 1.15-.44a11.45 11.45 0 00.36-2.68 3.61 3.61 0 001.38.7c-.39 3.51-.63 3.8-3.07 3.8-2 0-2.37-.21-2.37-1.46V2.81zM39.7 13a14.49 14.49 0 003 4.92A16.74 16.74 0 0045.94 13zM61.54 2.05a10.37 10.37 0 00-.73 1.33 27.93 27.93 0 01-4.36 6.32 28.71 28.71 0 01-3.88 3.43 5.35 5.35 0 00-1.25-1.46 22 22 0 006.82-7 9.93 9.93 0 001.4-3.3zM72 23.82c-.65-1.33-.93-1.82-1.5-2.84-4.5.7-9.23 1.17-14.3 1.46a20.4 20.4 0 00-3 .28l-.41-2c.65 0 1.27.05 1.74.05h1.69a56.71 56.71 0 004-8.21A26.8 26.8 0 0061.75 8l2 .6a.32.32 0 01-.08.13c-.1.24-.2.5-.41 1.07a96.73 96.73 0 01-5.1 10.81 110.7 110.7 0 0011.49-1.06 46.44 46.44 0 00-3.92-5.33l1.43-.89a64.66 64.66 0 016.39 9.44zM67.05 1.3A17.75 17.75 0 0070 6.45a23.69 23.69 0 005.72 5.15 5.73 5.73 0 00-1.22 1.58 26.58 26.58 0 01-8.8-10.4 6.6 6.6 0 00-.39-.73zm13.52 19.76a19.28 19.28 0 00.16 2.94h-1.92a20.19 20.19 0 00.19-2.94V4a28.16 28.16 0 00-.1-2.86 23.78 23.78 0 002.73.1h4a22.47 22.47 0 002.63-.1c-.06.73-.08 1.51-.08 2.47v3.2c0 1 0 1.76.08 2.41-.63 0-1.51-.07-2.63-.07h-5zm0-16.56h6v-2h-6zm0 3.35h6v-2.1h-6zm4.84 4.66a20 20 0 00-2.47.1v-1.53a16.07 16.07 0 002.47.13h8.24a16.51 16.51 0 002.5-.13v1.53a20 20 0 00-2.47-.1h-.94v3.22H94a14.58 14.58 0 002.5-.13v1.56A16.26 16.26 0 0094 17h-1.3v4a8.91 8.91 0 00.16 2.23H91.1a9.62 9.62 0 00.16-2.23v-4h-3.93a8.74 8.74 0 01-3.43 6.45 4.71 4.71 0 00-1.3-1.07A7 7 0 0085.85 17h-.91a16.2 16.2 0 00-2.49.13V15.6a14.59 14.59 0 002.49.13h1c.08-1.25.08-1.25.11-3.22zm2.16 0v.59c0 .81 0 1.75-.11 2.63h3.8v-3.22zm12.48 8.89c0 1.12-.26 1.66-.94 2a5.25 5.25 0 01-1.84.18c-.32 0-1.69-.05-2.21-.08a5.24 5.24 0 00-.5-1.66 21.34 21.34 0 002.89.26c.83 0 1-.13 1-.73V9.13h-5.32c-1.09 0-1.92 0-2.65.07 0-.75.08-1.37.08-2.41v-3.2c0-1 0-1.61-.08-2.47a23.12 23.12 0 002.68.1h4.29a24.1 24.1 0 002.73-.1 22.83 22.83 0 00-.13 2.88zm-8-16.9h6.39v-2h-6.37zm0 3.35h6.39v-2.1h-6.37zm22.27 7.36c-1.51 3.43-3 5-4.91 5-2.47 0-4.32-2.7-4.32-6.34a10.84 10.84 0 012.73-7.18 10.86 10.86 0 018.4-3.46 10 10 0 017.15 2.58 8.68 8.68 0 012.52 6.34 9.46 9.46 0 01-6 9 19.75 19.75 0 01-4 1.2 4.13 4.13 0 00-.91-1.74 15.61 15.61 0 004.34-1.23 7.84 7.84 0 004.6-7.28 6.86 6.86 0 00-4.13-6.52 7.43 7.43 0 00-3-.65 39 39 0 01-2.47 10.28zm-3.2-9.07a9 9 0 00-4.23 7.74c0 2.5 1.09 4.42 2.49 4.42 1.09 0 2.13-1.22 3.25-3.76A35.75 35.75 0 00115 4.91a8.23 8.23 0 00-3.88 1.23zm22.29-2.99a16.06 16.06 0 00-.13-2.71h1.82a16.45 16.45 0 00-.1 2.68v2.55h1a9.23 9.23 0 001.64-.11v1.59a16.07 16.07 0 00-1.64-.08h-1a14.66 14.66 0 002.42 4.24 11.67 11.67 0 00-.91 1.4 17.76 17.76 0 01-1.69-3.64c.08 2.19.11 3.33.11 4.24v7.88a22.1 22.1 0 00.15 3h-1.87a22.8 22.8 0 00.16-3v-7.36c0-1 0-1 .07-2.29a11.92 11.92 0 00.08-1.27c0-.21 0-.52.05-1a21.65 21.65 0 01-1.66 5 22.91 22.91 0 01-1.72 2.93 6.75 6.75 0 00-1-1.61 15.41 15.41 0 002.44-4.11 26.31 26.31 0 001.46-4.47h-1.36a10.93 10.93 0 00-1.82.11V5.56a10.4 10.4 0 001.82.11h1.62zm6.78 2.36a13.62 13.62 0 00-2.26.13V4a12.91 12.91 0 002.29.13h1.38a13 13 0 00-1.69-2.86l1.37-.59a17.08 17.08 0 011.88 3.45h3a16.53 16.53 0 001.78-3.51l1.53.55c-.41.83-1.27 2.34-1.66 3h2.29a16 16 0 002.36-.17v1.67a14.33 14.33 0 00-2.36-.16h-4.73v2.24h3.92a13.42 13.42 0 002.37-.16v1.72a14 14 0 00-2.34-.13h-3.95v2.34h5.09a14.71 14.71 0 002.37-.16v1.69a16.24 16.24 0 00-2.34-.15h-5a14.47 14.47 0 002.13 3.9 14 14 0 002.84-3.36l1.32.94a21 21 0 01-3.25 3.54 14.68 14.68 0 004.94 3.63 7.15 7.15 0 00-1.09 1.51 18 18 0 01-3.82-3 16.24 16.24 0 01-3.43-5.3 22.43 22.43 0 01.21 2.57v4.89c0 1.4-.5 1.77-2.45 1.77a19.37 19.37 0 01-2.13-.11 4.08 4.08 0 00-.47-1.63 17 17 0 002.58.23c.75 0 .91-.1.91-.57v-3.66a35.59 35.59 0 01-5.52 3.36 10.05 10.05 0 00-1.17.7l-.75-1.72a27.11 27.11 0 007.44-3.95V12.9h-4.06a12.49 12.49 0 00-2.24.13v-1.62a17.17 17.17 0 002.27.11h4V9.18h-2.89a12.41 12.41 0 00-2.26.13V7.62a12.89 12.89 0 002.21.13h2.94V5.51zm-1 8a24.12 24.12 0 012.47 3.15l-1.2.86a15.67 15.67 0 00-2.44-3.2zm27.65-4.2a15 15 0 00-.08-1.72H168a26.09 26.09 0 005.93-4.26H161.3a18.79 18.79 0 00-2.62.15V1.61a18.18 18.18 0 002.65.16h12.32a11.7 11.7 0 002-.11l1.07 1.2c-.55.47-.57.49-.94.83a31.24 31.24 0 01-7.23 5.23V11h7.31a25.43 25.43 0 003.15-.15v1.92a26.93 26.93 0 00-3.15-.15h-7.31v8.68c0 1.74-.62 2.18-3 2.18-.83 0-1.63-.05-3.3-.18a6.39 6.39 0 00-.44-1.82 24.35 24.35 0 003.74.34c1 0 1.25-.13 1.25-.75v-8.43h-7.75a29.44 29.44 0 00-3.19.15v-1.92a28.35 28.35 0 003.25.15h7.69z" fill="#fff" data-name="レイヤー 2"/></svg>