<svg xmlns="http://www.w3.org/2000/svg" width="145.17" height="19.72"><path d="M19 8.57v2.85H0V8.57zM31.1.86h6.21v4.75c0 .29.09.42.4.42.51 0 .67-.4.8-2a4.15 4.15 0 002.06.97c-.4 2.81-.9 3.13-2.21 3.13h-1.68A1.52 1.52 0 0135 6.51V3h-1.53c-.23 2.78-1 4.67-2.41 5.84a5.46 5.46 0 00-1.87-1.07v.82c.29 0 .46 0 .8-.08a9.82 9.82 0 00-.19 2l-.61.06v7.12c0 1.68-1.05 1.87-3.49 1.89a8.15 8.15 0 00-.77-2.41 6.93 6.93 0 001.45.16c.71 0 .71-.25.71-.88v-5.59c-.13 0-.67.06-.78.08v5.12h-1.7v-4.95l-.61.06a22.93 22.93 0 01-1.55 8.42 3.9 3.9 0 00-2.16-1.05 17 17 0 001.63-7.16l-.5.06c-.11.23-.21.42-.4.42s-.21-.12-.23-.25l-.4-2.39h1.47V2.35h2a16.68 16.68 0 00.73-2.2l2.63.27c.12 0 .25.11.25.23s-.3.32-.55.42c-.08.19-.44 1.09-.5 1.28h2.75V7.5a5.37 5.37 0 001.93-4.33zM24 9.05c1.72-.1 1.91-.13 3.09-.21V4.49H24zM26 5a23.43 23.43 0 01.79 3 12.91 12.91 0 00-1.84.4 14.13 14.13 0 00-.82-3zm4.32 6.49V9.18h8l.9 1a15 15 0 01-3 5.4 11.49 11.49 0 003.85 1.89 11.71 11.71 0 00-1.33 2.12 18.92 18.92 0 01-4.13-2.4 11.48 11.48 0 01-3.91 2.33 6.5 6.5 0 00-1.49-2.2 7.85 7.85 0 003.59-1.78 12.17 12.17 0 01-2.08-3l1.45-1zm2.58 0a8.85 8.85 0 001.6 2.43 8.61 8.61 0 001.5-2.43zM49.71 3a.32.32 0 01.21.29c0 .17-.28.24-.66.32a21.81 21.81 0 01-5.85 7.5 8.53 8.53 0 00-2.17-1.81 16.86 16.86 0 006-7.56zm4.74 7A52.06 52.06 0 0160 18.08a11.36 11.36 0 00-2.45 1.47 22.53 22.53 0 00-1.1-2.14c-2.87.33-5.79.69-8.69 1-1.55.17-2.39.25-3.23.38-.11.19-.25.44-.42.44s-.27-.17-.34-.42l-.59-2.5 2.42-.17a73.64 73.64 0 004-9.8l2.71.92c.17.07.29.15.29.3s-.23.29-.63.33c-.44 1.26-1.7 4.2-3.57 8 3.36-.29 3.7-.33 6.76-.63-.65-1-.86-1.28-2.77-3.82zM56 1.07c.4 4.24 4.29 7 5.63 7.92a12 12 0 00-1.83 1.91 15.42 15.42 0 01-6-7.54h-3.3V1.07zM71.82.86v6.91H66v11.74h-2.54V.86zm-2.37 2.71v-.88H66v.88zM66 5v.9h3.47V5zm9.83 7.22h2.27v2h-2.29v4.66h-2.27v-4.6h-1.91a7.61 7.61 0 01-3.25 5.06 4 4 0 00-2-1.39 5.23 5.23 0 003-3.67H67v-2h2.58v-1.55h-2V8.82h10.1v1.89h-1.87zm-2.27-1.55h-1.7v1.55h1.72zM81.6.86V17c0 2.44-1.59 2.63-3.8 2.61a6.69 6.69 0 00-1-2.61 7 7 0 001.28.15c.5 0 1-.08 1-.84V7.79H73.2V.86zm-2.5 2.73v-.9h-3.5v.9zM75.6 5v1h3.5V5zm18.12 11.34c5-.95 6.24-4.64 6.24-6.85A5.35 5.35 0 0094.6 4c-.71 7.83-3.73 13.46-5.9 13.46-1.61 0-4.45-2.65-4.45-6.4a10.09 10.09 0 0110-9.62c4.47 0 8.48 3 8.48 8a9.24 9.24 0 01-2.48 6.36 11.38 11.38 0 01-4.72 3 13.3 13.3 0 00-1.81-2.46zm-6.8-5.46c0 1.78.94 3.19 1.59 3.19s1.2-1.43 1.54-2.27a19.82 19.82 0 001.57-7.29 7.32 7.32 0 00-4.7 6.37zm22.76 8.71h-2.33v-7.68a16.49 16.49 0 01-1.41 3 6.74 6.74 0 00-1.74-1.64 19.41 19.41 0 003.13-7h-2.56V4.16h2.48V.27l2.43.15s.42.06.42.29-.06.19-.42.36v3.09h1.79V6.3h-1.79V7a13.44 13.44 0 002.44 4 4.73 4.73 0 00-1.12 1.93 14.59 14.59 0 01-1.28-2.1zm1.3-3.88a25 25 0 005.51-2.8V10.1h-2.55a16.31 16.31 0 011.73 2.29c-.26.21-1.39 1.09-1.6 1.28a27.07 27.07 0 00-1.95-2.42l1.72-1.15h-2.27V8.17h4.92v-1h-3.62V5.38h3.62v-.91h-4.73V2.62h2.56A11.9 11.9 0 00113.17 1l2.08-1a26.58 26.58 0 011.47 2.33l-.7.29h2.35A15 15 0 00119.63 0l2.25.7a.34.34 0 01.23.31c0 .13-.12.17-.44.25-.17.3-.5.88-.78 1.32h2.9v1.89h-4.85v.91h3.59v1.76h-3.59v1h5.25v1.96h-1.76l1.42 1c.11.08.21.14.21.33s-.29.28-.54.25a12.8 12.8 0 01-2.14 2.48 12.29 12.29 0 003.4 2.25 5.4 5.4 0 00-1.49 2 13.85 13.85 0 01-4.35-3.88v2.27c0 2.6-1 2.79-3.63 3a5.5 5.5 0 00-1.14-2.44h1.24c.78 0 1.08-.08 1.08-.8v-1.4a39.91 39.91 0 01-3.87 2.31c-.06.27-.1.5-.31.5s-.34-.25-.42-.4zm8-4.39a13.36 13.36 0 001.11 1.47 17.28 17.28 0 002-2.69h-3.07zm26.19-2.88v2.39H137v5.86c0 1.79-.52 3.07-4.91 2.92a14 14 0 00-.84-2.73 12 12 0 001.57.15c1.49 0 1.49-.21 1.49-1.49v-4.71h-8.48V8.44h8.48V5.33l1.47.19a12.76 12.76 0 002.44-2h-10.35V1.13h13.75l1.49 1.29A53 53 0 01137 7.75v.69z" fill="#fff" data-name="レイヤー 2"/></svg>