<svg xmlns="http://www.w3.org/2000/svg" width="560" height="59.38"><path d="M0 54.38h560v5H0zM39.91 17v7H2v-7zm24.94 17c2.56-.17 5.59-2.44 6.43-3a25 25 0 01-3.61-5.08L70.4 24h-3.53v-5.6h16.3l2 2.18a32.62 32.62 0 01-5.8 10.51 19.51 19.51 0 007.19 3.31 29.22 29.22 0 00-3 5 39 39 0 01-7.94-4.53A22.12 22.12 0 0168 39.23a14.8 14.8 0 00-3.19-4.91v1.34c0 3.49-2.39 3.78-7.31 3.83a19.42 19.42 0 00-1.89-5.67 11.35 11.35 0 002.9.42c1.43 0 1.43-.55 1.43-1.77V22.31a10 10 0 01-1.14.12v10h-3.44v-9.62a6 6 0 01-.84.08c-.13 4.84-1.05 11.77-2.9 16.22a8.76 8.76 0 00-5-2.44c1.8-3.53 2.69-9.24 3-13.23a1.85 1.85 0 01-.46.08c-.29.55-.55.89-.88.89a.48.48 0 01-.42-.42l-1-5.63c1 0 1.64 0 2.61-.09V4.79h3.94c.3-.72 1-2.44 1.52-4.2l6.21.59c.26 0 .42.21.42.37 0 .38-.75.84-1 .93-.29.63-.71 1.68-1 2.31h5.33v9.7C66.45 13.11 68 10.63 68 6.6V2h13.15v9.16c0 .46 0 .8.46.8.76 0 1-2.39 1.14-3.7 2.14 1.39 2.81 1.81 4.83 2.19-.8 5.42-1.43 6.47-4.33 6.47H79a3.14 3.14 0 01-3.36-3.45V7.18h-2c-.46 4.37-1.89 8.36-4.62 10.84a11.07 11.07 0 00-4.2-2.52v1.72c.55-.08 1.26-.12 1.51-.16-.08.88-.16 3.57-.21 4.62-.75 0-1 0-1.3.08zM54.52 11.17l4-.75C59 11.72 59.81 15 60 16.09V9.87h-5.48zm0 6.81c1.38-.08 4-.25 5.46-.38v-1.26a26.33 26.33 0 00-4.24.84 28.44 28.44 0 00-1.22-5.12zM73 24a15.42 15.42 0 002.1 3.27 14.87 14.87 0 002-3.27zm37.42-17.49a.67.67 0 01.34.55c0 .33-.3.42-.51.5s-.54.13-.75.21c-2.5 6.05-8.7 13.07-11.5 14.91a14.14 14.14 0 00-5.17-4.28A31.41 31.41 0 00104.5 3.57zm9.33 13.61a97.4 97.4 0 0111 16.05 15.8 15.8 0 00-5.88 3.44 37.61 37.61 0 00-1.87-3.69c-9.3 1.34-19 2.08-23.38 2.39 0 .29-.12 1.13-.75 1.13-.38 0-.59-.29-.72-.92l-1.42-6.13c2 0 3-.09 4.53-.13A138.21 138.21 0 00109 12.9l6.47 2.18c.21.08.59.21.59.63 0 .63-.84.63-1.26.67-.84 2.1-3.61 9.16-6.93 15.5 1-.08 7.65-.58 12.06-1.13-2.4-3.57-3.74-5.29-5.21-7.14zm3.19-18c1.18 7.52 4.75 11.3 11 15.63a11.09 11.09 0 00-4.32 4.49 29.67 29.67 0 01-11.89-14.7h-6.22v-5.4zm43.72 27.33v9h-5.33v-9h-3.11a15.81 15.81 0 01-6.43 9.91 12.15 12.15 0 00-4.71-3.11v3h-6V1.89h17.6v14.62h-11.6v19.7c2.95-1.64 5-3.23 5.8-6.76h-4.32v-4.67h4.87v-2.47h-3.86V17.9H170v4.41h-3.32v2.47h4.2v4.67zm-13.61-23.4h-6V7.6h6zm0 4.75h-6v1.59h6zm8.28 11.51h-2.61c0 .5 0 2.1-.08 2.47h2.69zm9 17.13a14.71 14.71 0 00-2.23-6.13 12.87 12.87 0 002.44.34c.79 0 1.68 0 1.68-1.47V16.51h-11.69V1.89h17.68v32.68c0 3.91-2.39 4.92-7.89 4.87zm1.89-33.39h-6.05V7.6h6.05zm0 4.75h-6.05v1.59h6.05zm34.13 21.5c9.11-1.68 11.8-8.73 11.8-13.1 0-3.41-1.8-9.66-9.7-10.29-1.3 15.37-7.65 26.84-12.1 26.84-3.28 0-9.37-5.55-9.37-13.32 0-9 8.24-19.57 20.59-19.57 9.2 0 17.22 6.26 17.22 16.3a19.59 19.59 0 01-5 13c-2.56 3-5.54 4.53-9.11 6.09a27.35 27.35 0 00-4.33-5.95zM193.2 21.93c0 3.23 1.81 5.67 2.69 5.67s1.81-1.89 2.27-3a36.82 36.82 0 003.23-14.45c-4.87 1.85-8.19 8-8.19 11.78zm51.41 9.37a44.71 44.71 0 0010.88-5.63v-4.83h-4.37a33.26 33.26 0 013.24 4.2 29.19 29.19 0 00-3.87 3 55.24 55.24 0 00-3.82-4.79l3.27-2.39h-3.57a10 10 0 00.89 1 9.62 9.62 0 00-2.57 4.5c-.79-1.05-1.26-1.68-1.89-2.69V39.7h-5.5V26.09a24 24 0 01-2.1 4.28 15.52 15.52 0 00-3.95-3.82 37.37 37.37 0 005.38-13.23h-4.2V8.23H237v-7l5.79.29c.47 0 1 .17 1 .63s-.59.63-1 .72v5.36h3.07v5.09h-3.06v1.34a23.07 23.07 0 003.28 5.88V16.3h9.41v-1.56h-7.1V10.8h7.1V9.24h-9V5h4.12a16.65 16.65 0 00-1.85-2.69L253.64 0a36 36 0 012.73 4.28L255 5h4.62a31.21 31.21 0 002.05-4.66L267 1.93c.51.17.84.34.84.63 0 .55-.54.59-1.26.59-.29.55-.33.67-1 1.85h4.88v4.24h-9.12v1.56h7v3.94h-7v1.56h10v4.54h-3.11l3 2.43a.79.79 0 01.42.63c0 .63-.71.55-1.17.55A24.19 24.19 0 01266.2 29a20.55 20.55 0 006.3 3.61 11.29 11.29 0 00-3.19 4.39 27.78 27.78 0 01-7.94-6.55v3.27c0 4.62-1.47 6-8.06 6.22a14.62 14.62 0 00-2.31-5.87 17.37 17.37 0 002.64.21c1.81 0 1.85-.46 1.85-1.51v-1.56c-.84.51-3.61 2.19-7.56 4.2 0 .25.12 1.35-.46 1.35s-.76-.55-1-1.14zm16.76-8.07a14.18 14.18 0 001.72 2.6 27.19 27.19 0 003.87-5h-5.59zm56.24-6.6v5.72h-15.88v11.59c0 2.69-.25 5.88-10.21 5.63-.46-4-1.38-5.42-2-6.38 1.34.08 2.14.16 2.94.16 2.85 0 2.85-.33 2.85-2.73v-8.27H278.8v-5.72h16.5v-6.21l3.24.33a15.7 15.7 0 003.44-3H283V2.14h27.51l3 3.11a46 46 0 01-11.81 10.8v.58z" fill="#ff5064" data-name="レイヤー 2"/></svg>