<svg xmlns="http://www.w3.org/2000/svg" width="630" height="54.13"><path d="M0 49.13h630v5H0zm24-24.22v7.74h-4.53v-7.74h-2.66a13.5 13.5 0 01-5.51 8.49 10.36 10.36 0 00-4-2.66v2.59H2.12V1.3h15.09v12.52H7.27V30.7c2.52-1.4 4.25-2.77 5-5.79H8.53v-4h4.18v-2.12H9.43V15h17.46v3.78H24v2.12h3.6v4zm-11.66-20H7.27v1.28h5.11zm0 4.07H7.27v1.36h5.11zm7.09 9.86h-2.19c0 .43 0 1.8-.07 2.12h2.3zm7.71 14.69a12.66 12.66 0 00-1.91-5.26 10.53 10.53 0 002.09.29c.68 0 1.44 0 1.44-1.26V13.82h-10V1.3h15.18v28c0 3.35-2.05 4.21-6.76 4.18zM28.8 4.86h-5.19v1.33h5.19zm0 4.07h-5.19v1.36h5.19zm37.76 8.28v1.51h5.58v3.63h-5.58v1.51h5.58v3.64h-5.58V29h7.27v3.9H57.31v.58h-5.08V21l-1 1a12.34 12.34 0 00-1.73-2.55v14.03h-5.22V16.2l-1 1.19a8.69 8.69 0 00-3.67-3.71A38.33 38.33 0 0047.2 0l5 1.69v-.57l5.12.18c.39 0 .54.21.54.5s-.29.54-.8.86v3.46h2.7V.18l5.4.32c.36 0 .54.22.54.47 0 .47-.54.61-.87.69v4.46h3V1.3l5.32.32c.44 0 .65.14.65.4 0 .43-.43.61-.9.82V10h-8.28l2.52 1.37a.68.68 0 01.39.58c0 .39-.5.54-1 .64-.15.26-.36.58-.58.9h7.71v3.68zm-17-.65A33.36 33.36 0 0054.43 10h-2.2V2.77c-.1 0-.21.11-.32.15-.61 1.33-1 2.08-2.23 4.53.54.29.68.36.68.61s-.57.65-.83.76zm7.78.65v1.51h4.18v-1.51zm0 5.14v1.51h4.18v-1.51zM61.49 29v-1.5h-4.18V29zm-1.3-15.45a34.78 34.78 0 002-3.49h-4.45l1.66.83c.29.14.5.29.5.58s-.39.54-1 .61c-.4.65-.54.86-.9 1.47zm34.6-6.67a.53.53 0 01.36.46c0 .58-1 .51-1.34.47a73.85 73.85 0 01-6 7.6c1.44-.11 2.55-.18 2.91-.22-.32-1.08-.46-1.51-.68-2.09l3.38-1.73a30.53 30.53 0 012.45 6.41 32.44 32.44 0 00-4.1 2c-.11-.79-.18-1.11-.33-1.87-.21.07-1.22.25-1.44.29v15.35h-4.79V22.1a2.07 2.07 0 01-.54.15A56.89 56.89 0 0183.52 31a12.21 12.21 0 00-4-.87 34.91 34.91 0 001.73-9.43l3.6.36a.58.58 0 01.36.08V19c-1.73.29-2.41.43-3.24.61-.07.22-.25.8-.65.8-.25 0-.5-.36-.54-.54l-1-4.43c.9 0 1.11 0 2.91-.15.87-.93 1.08-1.15 2.16-2.37a26.61 26.61 0 00-4.82-4l2.59-4c.5.32.86.57 1.15.79A31.38 31.38 0 0086.83.14l4.28 2.27c.29.15.44.29.44.47 0 .4-.29.43-1 .5-.9 1.48-2.05 3.1-3.38 4.9a6.67 6.67 0 01.75.72 48.73 48.73 0 002.84-4.54zm-.62 13.35a33.92 33.92 0 001.52 7.85 10.12 10.12 0 00-3.5 1.47 29.49 29.49 0 01-1.72-8.35zM114 5v4.6h-6.73v3h5.62v4.35H96.62v-4.42h5.44v-3h-6.81V5h6.81V.54l5.29.25c.21 0 .93 0 .93.51s-.39.54-1 .68V5zm-12.37 26.6v1.95h-5V18.72h16.31v14.83h-5.11V31.6zm6.19-4.53v-3.85h-6.19v3.85zm31.61 6.55h-5.22V25a39.18 39.18 0 01-10.3 7.74 12 12 0 00-4-4.1 24.27 24.27 0 0010.33-6.37h-9.79v-4.45h13.75v-1.91h-10.11V1.33h25.63v14.58h-10.29v1.91h13.93v4.43h-10.44a24.24 24.24 0 0010.62 5.65 13.56 13.56 0 00-3.82 4.1 29.72 29.72 0 01-10.29-6.56zM134.21 7V5.11h-4.65V7zm-4.65 3.24v1.84h4.65v-1.86zM144.1 7V5.11h-4.67V7zm-4.67 3.24v1.84h4.67v-1.86z" fill="#ffa000" data-name="レイヤー 2"/></svg>