<svg xmlns="http://www.w3.org/2000/svg" width="630" height="54.46"><path d="M0 49.46h630v5H0zM25.23 7.45l1.87.29c.83.14 1.16.18 1.16.57s-.47.47-.87.51c-.14.36-.39.86-.83 1.73h7V28.9c0 3.57-.83 5.08-6.66 5.08v-.94a6.31 6.31 0 00-1.29-3.85v2.16H15.19v.87h-4.72v-8.39a2.4 2.4 0 01-.36.18 6.89 6.89 0 00-2.51-2.38V34H2.38V10.55H9.9a14.07 14.07 0 00-1.4-2.63l2.55-.47H1.66V3.13h13.6V.58l5.44.25c.36 0 .68.11.68.47s-.36.5-.68.64v1.19h13.71v4.32zM7.6 15.15v5.08a8 8 0 003.81-5.08zm20.94 3.93a3.39 3.39 0 01-3.31 2.05h-4.6c-2.13 0-2.81-.76-2.81-2.45v-3.53h-3.67l1.9.62c.26.07.76.25.76.57 0 .15 0 .4-1 .61a13 13 0 01-3.28 5.3h13.1v6.69c.72.07 1.33.18 1.73.18 1.11 0 1.18-.36 1.18-1.19zM14.15 7.45a19.37 19.37 0 011.58 2.77l-1.3.33h6.3a20.53 20.53 0 001.44-3.1zM20.88 26h-5.69v1.69h5.69zm1.47-10.8v1.16c0 .46 0 .79.72.79h1.08c.69 0 .79-.61 1.08-2zm6.19 0h-3.27a10.3 10.3 0 003.27 1.73zM59.47 3.31c.36 0 .54.15.54.36s-.32.43-.86.65a33.41 33.41 0 01-1.23 5.94 12.33 12.33 0 00-4.61-.86v.93H41.22V6.77h12.09v2.52a33.34 33.34 0 001.3-6.63zM53 33.4h-4.22v-1.26h-2.09v1.77h-4.5V21H53v3.67a17.85 17.85 0 002.19-6.3l4.61 1c.25 0 .65.22.65.5 0 .54-.72.69-1 .72a29 29 0 01-1.87 5.94A11.58 11.58 0 0053 25.09v4.53c7.7-2.37 7.63-7.12 7.52-13.71l5.22.29c.18 0 .54 0 .54.43 0 .22-.25.4-1 .61v2.67a10.63 10.63 0 003.13 5.79c.65.61 3.35 3.1 5.55 3.89a10.41 10.41 0 00-3.21 4 17.42 17.42 0 01-7.2-6.55 14.73 14.73 0 01-7.84 6.8A11.06 11.06 0 0053 30.38zM52 2.05v3.49h-9V2.05zm0 9.5v3.5h-9v-3.5zm0 4.72v3.49h-9v-3.49zM48.78 28v-3.09h-2.09V28zm16.7-27c.43 0 .72.07.72.4s-.58.57-1 .68c0 .54-.14 3-.14 3.49a8.2 8.2 0 002.66 5 22.39 22.39 0 006.55 3.7A12.86 12.86 0 0071 18.14a20.14 20.14 0 01-7.92-5.83 16 16 0 01-7.55 5.76 13.63 13.63 0 00-2.85-3.85c6.19-2 7.63-5.08 7.63-10.8 0-1 0-1.66-.07-2.63zm7.78 3.39a.57.57 0 01.36.5c0 .18-.11.43-.51.43a3 3 0 01-.65-.07 23.54 23.54 0 01-3.27 4.39 15 15 0 00-3.82-2.84A19.34 19.34 0 0068.83 2zm-.44 15.37c.36.18.54.32.54.61s-.57.61-1.08.65a21.74 21.74 0 01-2.37 3.92 14 14 0 00-3.82-2.56 23.38 23.38 0 002.52-4.6zm30.64 7.56c0 .72.25 1.3 1.44 1.3h2.59c1 0 1.19-.4 1.33-.87s.62-2.37.83-3.38c2.7 2 4.07 2.27 4.72 2.37a16.68 16.68 0 01-1.62 5.26 3.71 3.71 0 01-3.24 1.58h-6.62c-2.81 0-5-.93-5-4.53v-6.91h-3.82l1.76.47c.22.07.61.18.61.61 0 .68-.75.72-1.4.75-3 7.09-8.28 9.25-11.09 10.37a14.55 14.55 0 00-4.28-4.28c2.27-.51 8.85-2 10.29-7.92h-5.29V1.51h24.69v20.63h-5.9zm.36-19.94V6.12H90.54v1.26zM90.54 11v1.3h13.28V11zm0 5.08v1.44h13.28v-1.43zm29.84-4.49V6.84h13.68v-6l5.19.33c.89.07 1 .32 1 .5s-.14.4-.75.79v4.38h13.71v4.75h-11.59a34 34 0 0012.6 13.89c-2.38 1.91-3.1 2.6-3.92 4.14a42.19 42.19 0 01-5.48-5.11v4.25h-5.32v5.08h-5.44v-5.08h-5.36v-4.28a43.79 43.79 0 01-5.51 5.14c-.83-1.58-1.58-2.26-3.92-4.14a33.19 33.19 0 0012.6-13.89zm13.68 5.47a41.12 41.12 0 01-4.86 6.84h4.86zm10.26 6.84a39.61 39.61 0 01-4.82-6.77v6.77zM179.1 12h11.08v14.8c0 1.51 0 2.8-1.26 3.7s-3.06 1.08-6.15 1.08a12.06 12.06 0 00-1.66-5.54 15.43 15.43 0 002.23.22c1.16 0 1.37-.26 1.37-1.3V17.1h-5.61v16.74h-5.44V17.1h-5.51v14.14h-5.5V12h11V9.32H160V4.43h13.68V.79l5.73.22c.21 0 .54.11.54.43s-.47.61-.83.68v2.31h13.71v4.89h-13.34c.22.08.44.22.44.43 0 .4-.51.58-.83.69zm37.37 15.68c7.81-1.44 10.11-7.49 10.11-11.23a8.53 8.53 0 00-8.31-8.82c-1.12 13.18-6.56 23-10.37 23-2.81 0-8-4.75-8-11.41 0-7.74 7.06-16.77 17.64-16.77 7.88 0 14.76 5.36 14.76 14a16.8 16.8 0 01-4.3 11.09c-2.19 2.55-4.75 3.88-7.81 5.22a23.54 23.54 0 00-3.72-5.08zm-11.27-8.89c0 2.77 1.55 4.86 2.3 4.86s1.55-1.62 1.95-2.56a31.66 31.66 0 002.77-12.38c-4.22 1.55-7.02 6.84-7.02 10.08zm44.06 8.03a38.45 38.45 0 009.33-4.82v-4.15h-3.75a28.77 28.77 0 012.77 3.6A27.51 27.51 0 00254.3 24a46.58 46.58 0 00-3.27-4.1l2.8-2.06h-3.06a8.44 8.44 0 00.76.87 8.19 8.19 0 00-2.2 3.85c-.68-.9-1.08-1.44-1.62-2.3V34H243V22.35a20.92 20.92 0 01-1.8 3.65 13.24 13.24 0 00-3.38-3.27 32 32 0 004.6-11.34h-3.6V7.06h3.93V1l5 .26c.4 0 .83.14.83.54s-.5.54-.83.61v4.65h2.63v4.35h-2.63v1.15a19.76 19.76 0 002.81 5V14h8.07v-1.37h-6.13V9.25h6.09V7.92h-7.74V4.28h3.52A13.42 13.42 0 00252.79 2L257 0a31.26 31.26 0 012.34 3.67l-1.19.61h4a25.65 25.65 0 001.77-4l4.6 1.37c.44.14.72.28.72.54 0 .46-.46.5-1.08.5-.25.47-.28.58-.86 1.58h4.18v3.65h-7.82v1.33h6v3.38h-6V14h8.57v3.88h-2.66l2.55 2.09a.67.67 0 01.36.54c0 .54-.61.47-1 .47a20.51 20.51 0 01-3.68 3.92 17.55 17.55 0 005.4 3.1 9.64 9.64 0 00-2.73 3.74 23.66 23.66 0 01-6.81-5.61v2.8c0 4-1.25 5.12-6.91 5.33a12.56 12.56 0 00-2-5 14.92 14.92 0 002.27.18c1.55 0 1.59-.39 1.59-1.29v-1.41c-.72.44-3.1 1.88-6.48 3.6 0 .22.1 1.16-.4 1.16s-.65-.47-.86-1zm14.36-6.91a12.91 12.91 0 001.48 2.23 23.15 23.15 0 003.31-4.29h-4.79zm48.21-5.66v4.9h-13.61v9.93c0 2.31-.21 5-8.75 4.83-.39-3.39-1.18-4.65-1.72-5.47 1.15.07 1.83.14 2.52.14 2.44 0 2.44-.29 2.44-2.34v-7.09h-14.14v-4.9h14.14V8.93l2.78.28a13.89 13.89 0 002.95-2.59h-16.27V1.84h23.57l2.6 2.66a39.23 39.23 0 01-10.12 9.25v.5z" fill="#00b4dc" data-name="レイヤー 2"/></svg>