<svg xmlns="http://www.w3.org/2000/svg" viewBox="0 0 560 58.79"><g data-name="レイヤー 2"><path d="M0 53.79h560v5H0zm32.72-23.08V21l6.35.38c.58 0 1.17.08 1.17.55s-.54.58-1.05.75V39h-6.47v-2.2H9.28V39H2.86V21l6.21.34c.68 0 1.26.08 1.26.54s-.71.68-1.05.76v8.11h8.45V19.53H4.37V2.6l6.76.4c.25 0 .84 0 .84.55s-.46.54-1 .71v9.37h6.77V.34l6.33.46c.71 0 1.26.08 1.26.54s-.38.59-1.09.89v11.38h6.68V2.6l6.93.4c.33 0 .8 0 .8.51s-.55.58-1 .75v15.27H24.24v11.18zm52.71-3.03c.3.21.38.38.38.59 0 .46-.42.51-1 .51A35.94 35.94 0 0181.23 32a19.11 19.11 0 005.55 2.22 14.08 14.08 0 00-3.45 4.92A26.27 26.27 0 0172.79 32a20.38 20.38 0 00-.5 4c-3.32.67-11 2.14-14.41 2.6-.17.34-.38.68-.76.68s-.54-.26-.63-.68l-1.22-5c.84-.08 4.58-.67 5.34-.75v-6h-4.37c-.25 1.68-1.47 8.07-3.74 11.6A15.16 15.16 0 0047.12 36a25.37 25.37 0 003.11-8.57 63.57 63.57 0 00.67-10V1.47h34v10.59H57v6.47c0 .42-.08 2.43-.16 3.23h4.62V19.2H58v-4.46h3.45v-2.52l5.42.3c.37 0 1.59.21 1.59.75 0 .21-.21.63-1.3.76v.71h5.42v-2.52l5.5.34c.25 0 1.56.17 1.56.67 0 .25-.34.63-1.39.8v.71h6.72v4.46h-6.76v2.56H86v5h-1.66zM57 5.76V7.6h22V5.76zm9.58 26.12c1.18-.21 4.37-.79 5.25-1A25.89 25.89 0 0169 26.8h-2.47zm.59-10.12h5.42V19.2h-5.47zm8.32 5a11.65 11.65 0 001.68 2 30.2 30.2 0 002.31-2zm42.83-14.24V.55l6.85.29a.46.46 0 01.5.42c0 .38-.42.55-.84.67v10.59h6.76v6.09h-6.76v13.78h8v5.8h-24.26v-5.8h9.75V18.61h-6.93v-5.17a29.4 29.4 0 01-3.15 5.21 36.41 36.41 0 005.88 5.13 18.49 18.49 0 00-3.87 4.58 23.89 23.89 0 01-4.37-3.87V39h-6.21V27.85c-1.77 1.43-2.4 1.93-3.41 2.65a12.06 12.06 0 00-3.78-5.21c4.46-2.56 9.75-7.69 11.22-11.09h-9.24V8.36h5.21V.55l6.21.16c.26 0 .68.09.68.55 0 .21-.17.42-.68.76v6.34h4L112.6 11c-.12.26-.67 1.35-.75 1.56zm60.19 3.86v7.06h-37.94v-7.06zm32.12 22.39c-1.17 0-4 0-4-2.69v-3.65h-5.71l2.27 1c.33.16 1 .42 1 .88s-.84.67-1.64.71a22.63 22.63 0 01-13.69 4.29 15.16 15.16 0 00-2.14-5.13 9.08 9.08 0 001.55.17c1.22 0 6.34-.38 8.66-1.89h-5.63v-15h29.4v12.16a12.27 12.27 0 005 2.22c-.25 2.06-.88 6.93-4.58 6.93zm-5.75-33.39v2.56A24.38 24.38 0 00208.41 0l5.75 1.34c.3.09.51.21.51.42 0 .51-.63.76-1.22.8-.09.34-.25.76-.34 1h11.81v4.93h-14.08c-.25.37-.54.88-1.38 2h12.85v5.13h-13.23V11c-.21.33-.76 1-1 1.38a13.63 13.63 0 00-3.2-2.38v1.89h-5.25v1.51h6.51v3.11h-19V.76h18.53v3.15h-6.05v1.47zm-10.21 0V3.91h-2.44v1.47zm-2.44 2.52v1.47H200V7.9zm0 4v1.51h2.44v-1.48zm22.56 10v-1.27h-17.72V22zm-17.72 2.18v1.43h17.72v-1.36zm0 3.62v1.5h17.72v-1.43zm21.46 6.59c.67 0 1-.46 1.3-1.93h-7.22v1c0 .54.21 1 1 1z" fill="#ffa000" data-name="object"/></g></svg>