<svg xmlns="http://www.w3.org/2000/svg" width="251" height="29" viewBox="0 0 251 29"><defs><style>.cls-1 { fill: #fff; fill-rule: evenodd; }</style></defs><path id="カイロの極上体験" class="cls-1" d="M18.757 6.495c.526-2.13.891-3.69 1.2-5.1l-5.065-.03c-.212 1.2-.492 2.79-1.085 5.13h-8.129l-.794 4.5h7.59c-2.457 6.78-5.5 10.11-11.3 13.05l2.659 3.63c2.4-1.35 9.794-5.52 13.593-16.679h6.57l-.27 1.53a75.647 75.647 0 0 1-2.088 8.43c-.5 1.32-.923 1.83-2.813 1.83a26.086 26.086 0 0 1-4.475-.48l-.591 4.71a21.209 21.209 0 0 0 5.13.51c1.65 0 4.6-.03 6.393-3.42 1.493-2.85 2.926-9.78 3.5-13.019l.81-4.59h-10.835zm32.074 5.25a79.03 79.03 0 0 0 10.106-7.8l-3.8-2.97c-2.847 2.725-11.347 10.95-24.708 14.579l1.925 4.05a61.287 61.287 0 0 0 10.809-4.47l-2.163 12.24h5.07zm16.3-8.52l-4.066 23.009h23.7l4.06-23.009h-23.7zm15.393 18.475h-13.769l2.462-13.945h13.769zm23.978 5.91c1.622-.18 6.266-.66 9.661-3.24a15.251 15.251 0 0 0 5.8-9.72c1.509-8.55-3.614-12.33-10.514-12.33a17.073 17.073 0 0 0-17.02 13.98c-.831 4.71.963 8.82 5.013 8.82 8.039 0 11.948-15.689 12.559-18.3 3.372.27 5.906 2.4 5.022 7.41-1.424 8.07-8.209 8.61-11.492 8.85zm.9-20.579c-1.835 7.17-4.583 13.049-6.863 13.049-1.71 0-1.563-2.7-1.362-3.84a11.538 11.538 0 0 1 8.223-9.205zm30.382 16.709h3.749c2.04 0 2.887-.72 3.247-2.76l1.52-8.58a21.1 21.1 0 0 0 .9 5.46 18.563 18.563 0 0 1-2.132 2.22l1.534 3.21c.545-.54.944-.93 2.036-2.19a18.054 18.054 0 0 0 1.784 2.64l2.933-3.36a11.724 11.724 0 0 1-2.322-2.82 39.887 39.887 0 0 0 3.957-11.065h-6.9l-.667 3.78h3.6a19.761 19.761 0 0 1-1.449 3.96 12.962 12.962 0 0 1-.563-3.27l-2.667 1.17 1.033-5.85h-2.73c.148-.33.48-1.02.588-1.29h10.379l.71-4.02h-18.924l-.71 4.02h4.29a27.949 27.949 0 0 1-2.427 4.74h4.86l-1.668 9.45a1.606 1.606 0 0 1-.263.81 1.157 1.157 0 0 1-.811.18l1.678-9.51h-6.45l-.619 3.51a15 15 0 0 1-1.768-3.75l.153-.87h2.22l.741-4.2h-2.226l.879-4.98h-4.079l-.879 4.98h-2.88l-.741 4.2h2.519a22.6 22.6 0 0 1-4.512 7.89l.455 6.09a21.252 21.252 0 0 0 2.8-4.83l-1.785 10.11h4.08l2.224-12.6a13.6 13.6 0 0 0 .947 2.28l1.663-3.3-1.033 5.85h3.84zm1.45-9.75l-.64 3.63h-1.32l.64-3.63h1.32zm-6.695 10.23l-.688 3.9h19.859l.688-3.9h-19.857zm38.331-23.905l-4.024 22.8h-11.1l-.826 4.68h28.439l.826-4.68h-12.51l1.822-10.32h10.979l.832-4.71h-10.98l1.372-7.77h-4.83zm25.265 23.759a42.422 42.422 0 0 0 3.431-3.12l-.583 3.3h3.78l-.794 4.5h4.44l.794-4.5h3.78l.577-3.27a22.673 22.673 0 0 0 2.086 2.97l3.215-4.62a24.771 24.771 0 0 1-5.655-10.11h6.929l.789-4.47h-8.28l.789-4.47h-4.439l-.789 4.47h-7.705l-.789 4.47h6.6a41.62 41.62 0 0 1-9.7 10.11l2.033-11.52a33.184 33.184 0 0 0 3.076-7.23l-4.341-.39a24.518 24.518 0 0 1-6.455 10.74l.063 6.27a12.037 12.037 0 0 0 1.936-1.62l-2.325 13.169h4.35l1.589-9zm4.274-3.99a36.292 36.292 0 0 0 4.038-5.37l-.948 5.37h-3.09zm8.472-5.34a25.468 25.468 0 0 0 2.178 5.34h-3.12zm37.69-6.18c.813.66 1.215.93 1.7 1.26l2.534-3.99a12.226 12.226 0 0 1-5.494-5.434h-4.65a19.315 19.315 0 0 1-6.993 5.46h-2.49l.254-1.44h3.15l.582-3.3h-11.7l-2.949 16.709h8.369a60.527 60.527 0 0 1-1.618 6.45 1.7 1.7 0 0 1-1.73.96h-2.336l.125 3.54h2.85c1.95 0 2.874-.48 3.878-3.45l1.521 3.45a16.222 16.222 0 0 0 7.488-5.88 10.425 10.425 0 0 0 5.6 6l2.779-4.02a8.762 8.762 0 0 1-4.84-4.02h4.17l1.668-9.45h-5.43l.238-1.35h3.06zm-9.955 1.5h2.76l-.238 1.35h-5.038l-1.668 9.45h3.72a13.3 13.3 0 0 1-5.986 4.17 85.989 85.989 0 0 0 2.487-10.349h-3.03l.26-1.47h2.489l.546-3.09h-2.49l.259-1.47h2.49l.334-1.89 1.064 3.15a22.476 22.476 0 0 0 2.313-1.38zm-8.84-1.41l-.26 1.47h-1.95l.26-1.47h1.95zm.746-4.23l-.254 1.44h-1.95l.254-1.44h1.95zm-1.551 8.79l-.26 1.47h-1.95l.26-1.47h1.95zm12.615-6.72a24.409 24.409 0 0 0 2.938-2.88 18.353 18.353 0 0 0 1.952 2.88h-4.89zm2.142 10.98a19.239 19.239 0 0 0 .586-2.64h1.95l-.466 2.64h-2.07zm-5.4 0l.466-2.64h1.83a13.945 13.945 0 0 1-.616 2.64h-1.68zm-16.465 1.68a21.178 21.178 0 0 1-2.3 6.57l1.525 1.56a31.68 31.68 0 0 0 2.493-8.01zm2.438.12c-.058.33-.088.84-.13 1.08a38.678 38.678 0 0 1-1.192 4.71l1.843-.24c.084-.48.388-1.86.542-2.73.127-.72.323-2.34.377-2.82h-1.441zm2.121-.12a27.058 27.058 0 0 1-.579 4.98l1.523-.3a33.028 33.028 0 0 0 .378-4.86zm2.063-.3a21.93 21.93 0 0 1-.206 4.23l1.343-.3a21.852 21.852 0 0 0 0-4.08z"/></svg>