<?xml version="1.0" encoding="utf-8"?>
<!-- Generator: Adobe Illustrator 27.5.0, SVG Export Plug-In . SVG Version: 6.00 Build 0)  -->
<svg version="1.1" id="videoStar" xmlns="http://www.w3.org/2000/svg" xmlns:xlink="http://www.w3.org/1999/xlink" x="0px"
	 y="0px" viewBox="0 0 766.8 771" style="enable-background:new 0 0 766.8 771;" xml:space="preserve">
<path d="M225,758.8c1.5-26.6,0.2-53.3,1.2-80c0.9-23.3,0-46.7,0.9-70c1-25.8,0.4-51.6,1-77.5c0.2-9.8,0.3-19.7,0.8-29.5
	c0.2-3.8-1.3-6-4.4-8.1c-73.2-47.6-146.3-95.3-219.4-143c-2-1.3-5.6-2-5.1-4.6c0.3-2.1,3.8-2.1,6-2.8
	c83.3-27.5,166.7-54.9,250.1-82.2c4.5-1.5,6.6-3.7,7.9-8.3c22.5-83,45.2-166,67.9-249.1c0.4-1.4,0.4-3.4,2-3.7
	c1.7-0.4,2.3,1.6,3.2,2.7c52.7,70,105.5,139.9,158.1,210c2.4,3.1,4.8,4.5,8.7,4.4c31.3-1.1,62.6-2.1,93.9-2.9
	c30.3-0.8,60.6-1.4,90.9-2.2c25-0.7,49.9-1.5,74.9-2.3c1.1,0,2.6-0.6,3.1,0.8c0.6,1.6-0.9,2.7-1.8,3.9
	c-13.1,18.5-26.3,36.9-39.5,55.3c-37.1,51.9-74.2,103.8-111.4,155.7c-1.8,2.5-2.2,4.7-1.1,7.7c28.9,82.9,57.6,165.8,86.3,248.7
	c0.6,1.6,2.3,3.6,0.7,5.1c-1.5,1.4-3.5-0.2-5.1-0.8c-81.4-27.4-162.9-54.9-244.2-82.4c-4-1.4-6.9-1.1-10.4,1.6
	c-69.6,54.3-139.3,108.5-209,162.7c-0.7,0.5-1.3,1-2,1.5c-0.9,0.6-1.8,1.8-3,1.3c-1.5-0.7-1-2.3-1.1-3.6
	C225,764.4,225,761.6,225,758.8z"/>
</svg>
