<svg version="1.1" xmlns="http://www.w3.org/2000/svg" xmlns:xlink="http://www.w3.org/1999/xlink" x="0px" y="0px" width="532.394px" height="37.519px" viewBox="0 0 532.394 37.519" xml:space="preserve"><g><path d="M13.148 19.576c-.084 1.217-.21 2.395-.463 3.527 2.437 1.512 7.562 5.461 7.562 7.688 0 1.303-1.134 2.354-2.227 2.354-.63 0-1.26-.295-1.68-1.094-1.009-1.805-3.024-4.031-4.705-5.418-1.428 3.529-3.906 6.637-8.023 9.326-.546.336-1.05.504-1.512.504C.882 36.463 0 35.496 0 34.488c0-.631.336-1.26 1.092-1.723 5.797-3.529 7.729-7.896 8.149-13.189H3.234c-1.261 0-1.849-.883-1.849-1.766 0-.924.63-1.891 1.849-1.891h6.133c0-6.217 0-6.217 0-6.217L7.393 9.746c-1.764 4.326-2.814 5.209-4.2 5.209-1.05 0-1.975-.672-1.975-1.639 0-.42.126-.84.504-1.344 2.353-3.15 3.529-7.059 4.075-10.629.126-.84.882-1.219 1.681-1.219 1.092 0 2.31.674 2.31 1.723 0 .211-.042.756-1.092 4.244h8.611c1.219 0 1.849.924 1.849 1.848s-.588 1.807-1.765 1.807c-.042 0-.042 0-.084 0l-4.074-.084c.042 1.932.042 4.453.042 6.258h4.957c1.176 0 1.764.926 1.764 1.807 0 .924-.588 1.85-1.764 1.85H13.148zM29.027 34.74c-4.285 0-7.604-.043-7.729-4.621-.084-3.15-.126-6.553-.126-9.955 0-3.445.042-6.848.126-9.957.126-4.115 3.57-4.158 7.225-4.158 1.219 0 2.479 0 3.613.043 2.562.084 4.368 1.68 4.452 4.41.126 2.982.168 6.301.168 9.662 0 3.359-.042 6.721-.168 9.828-.084 2.646-1.596 4.496-4.536 4.664C31.169 34.697 30.119 34.74 29.027 34.74zM32.724 20.08c0-3.109-.042-6.176-.126-8.654-.042-1.512-.336-1.932-3.612-1.932-3.529 0-3.655.629-3.697 1.932-.126 2.436-.168 5.42-.168 8.402 0 3.275.042 6.594.168 9.283.042 1.555.546 1.932 3.865 1.932 2.604 0 3.402-.461 3.444-2.059C32.682 26.338 32.724 23.188 32.724 20.08zM64.714 29.615c3.066-2.73 2.94-6.721.546-8.318-2.184-1.469-6.721-1.764-10.964.715-1.68.967-2.562 1.723-3.528 3.15-1.513 2.227-5.713-.252-3.108-2.814 4.621-4.578 8.023-7.812 12.686-13.568.463-.588.043-.42-.294-.252-1.176.631-3.948 1.471-7.057 2.143-3.318.715-3.949-3.445-1.093-3.781 2.814-.336 6.848-1.344 9.242-2.059 3.36-.965 6.133 2.018 4.032 4.369-1.344 1.512-3.024 3.15-4.704 4.705-1.681 1.555-3.361 3.066-4.873 4.537 3.696-1.975 8.695-1.975 11.804-.127 6.049 3.613 4.075 11.006-.336 14.199-4.159 2.982-10.712 3.15-13.904 1.051-4.453-2.898-2.479-8.107 2.479-8.275 3.36-.127 6.511 1.889 6.637 5.67C63.076 30.791 63.958 30.287 64.714 29.615zM55.767 28.355c-1.849.168-1.933 1.891-.588 2.604.966.504 2.352.672 3.528.631C58.749 29.656 57.614 28.188 55.767 28.355zM85.996 36.252c-1.05-1.555-3.36-3.486-5.167-4.41-.798-.42-1.134-1.051-1.134-1.68 0-.967.756-1.85 1.975-1.85 1.47 0 8.191 3.697 8.191 6.553 0 1.346-1.135 2.311-2.269 2.311C87.005 37.176 86.416 36.883 85.996 36.252zM114.325 17.559c0 4.832-.042 11.721-.168 17.727 0 1.219-1.05 1.85-2.059 1.85-.966 0-1.975-.631-1.975-1.766 0-.041 0-.041 0-.084.295-7.77.211-22.305.295-30.748 0-3.781 2.94-3.781 7.309-3.781 1.723 0 3.529 0 4.327.043 2.143.084 3.57 1.344 3.654 3.066.042 1.344.084 2.73.084 4.115 0 5.125 0 5.84-8.863 5.84-1.008 0-1.975-.043-2.604-.084C114.325 14.744 114.325 16.047 114.325 17.559zM122.055 6.049c0-.42-.042-.84-.042-1.219-.084-1.092-.168-1.176-3.697-1.176-3.696 0-3.864.127-3.948 1.512 0 .295-.042.588-.042.883H122.055zM114.325 8.57v2.352c.63.041 1.891.041 3.192.041 4.201 0 4.453-.125 4.495-1.217 0-.379.042-.756.042-1.176H114.325zM130.372 31.002c-4.369.672-11.72 1.385-12.099 1.385-1.05 0-1.554-.881-1.554-1.764 0-.799.462-1.596 1.428-1.639.757-.041 1.555-.041 2.311-.084V18.693h-1.848c-1.051 0-1.597-.756-1.597-1.555 0-.756.546-1.512 1.597-1.512h17.391c1.092 0 1.597.756 1.597 1.512 0 .799-.505 1.555-1.597 1.555H133.9l.042 14.828c0 1.219-.882 1.848-1.764 1.848-.925 0-1.807-.629-1.807-1.848V31.002zM130.414 18.693h-6.469v1.596h6.469V18.693zM130.414 22.516h-6.469v1.639h6.427L130.414 22.516zM130.372 26.381h-6.427v2.268c2.226-.168 4.368-.377 6.427-.672V26.381zM137.682 13.82c-6.05 0-8.99 0-9.116-3.402-.042-.799-.042-1.596-.042-2.438 0-1.385.042-2.771.084-4.115.084-1.723 1.429-2.982 3.571-3.066.798-.043 2.73-.043 4.536-.043 1.303 0 2.562 0 3.277.043 3.15.168 4.284 1.68 4.284 3.443 0 .967 0 1.975 0 2.982 0 6.217.084 13.484.084 18.861 0 2.018.042 3.781.042 5.252 0 3.023-1.386 5.67-5.881 5.67-3.99 0-4.327-1.26-4.327-2.311 0-.924.631-1.805 1.723-1.805.084 0 .168 0 .252 0 .882.125 1.639.252 2.269.252 1.975 0 2.017-.715 2.017-8.402 0-3.234-.042-6.68-.042-9.326 0-.629 0-1.176 0-1.68C139.781 13.777 138.773 13.82 137.682 13.82zM140.328 6.049c0-2.395 0-2.395-3.991-2.395-3.402 0-3.948.084-4.032 1.219 0 .377-.042.756-.042 1.176H140.328zM140.412 8.57h-8.149c0 .42.042.797.042 1.176.042 1.008.168 1.217 4.704 1.217 1.387 0 2.814 0 3.403-.041V8.57zM167.155 34.949c-2.437-4.787-6.007-10.248-8.906-13.652-2.772-3.234-2.772-6.217.505-9.619 2.856-2.982 6.091-6.092 8.611-9.494 1.933-2.562 5.713.42 3.738 2.857-2.101 2.562-6.553 6.217-9.157 8.82-1.807 1.807-1.891 3.068-.504 4.789 4.2 5.252 7.771 9.201 9.829 13.695C172.574 35.16 168.499 37.639 167.155 34.949zM189.228 36.252c-1.05-1.555-3.36-3.486-5.167-4.41-.798-.42-1.134-1.051-1.134-1.68 0-.967.756-1.85 1.975-1.85 1.47 0 8.191 3.697 8.191 6.553 0 1.346-1.135 2.311-2.269 2.311C190.236 37.176 189.647 36.883 189.228 36.252zM226.962 18.146c-2.353 0-4.663-.041-6.68-.125-3.444-.127-5.25-1.85-5.335-5.377 0-1.135-.042-2.395-.042-3.697 0-1.26.042-2.52.042-3.654.042-1.344 1.051-1.975 2.101-1.975 1.051 0 2.143.672 2.143 1.891 0 .041 0 .041 0 .084-.042 1.219-.084 2.562-.084 3.865 0 .881.042 1.764.042 2.479.084 2.771.882 2.814 7.813 2.814L226.92 1.891c0-1.219 1.092-1.85 2.143-1.85 1.134 0 2.227.631 2.227 1.85l-.042 12.561c1.848-.043 3.696-.084 5.419-.127 2.646-.084 2.772-1.723 2.772-4.873 0-1.387-.084-2.814-.126-4.033 0-.041 0-.041 0-.084 0-1.217 1.008-1.848 2.058-1.848 1.093 0 2.185.631 2.227 1.932.042 1.051.084 2.27.084 3.488 0 1.217-.042 2.479-.084 3.654-.126 3.611-2.604 5.334-5.713 5.461-2.101.084-4.369.125-6.637.125v13.611c2.604 0 5.124-.043 7.015-.127 2.479-.125 2.772-1.512 2.772-5.082 0-1.596-.084-3.277-.126-4.494 0-.043 0-.043 0-.084 0-1.219 1.009-1.85 2.059-1.85 1.092 0 2.185.631 2.227 1.934.042 1.049.084 2.436.084 3.822 0 1.385-.042 2.814-.084 3.99-.126 3.613-2.604 5.461-5.713 5.545-2.898.127-6.806.168-10.628.168-3.823 0-7.562-.041-10.166-.168-3.444-.127-5.251-1.932-5.335-5.461 0-1.135-.042-2.562-.042-4.033 0-1.428.042-2.855.042-3.99.042-1.344 1.05-1.975 2.101-1.975 1.05 0 2.142.672 2.142 1.891 0 .041 0 .041 0 .084-.042 1.219-.084 2.814-.084 4.285 0 4.326.042 5.293 2.562 5.418 1.891.084 4.327.127 6.89.127V18.146zM274.549 5.166c-.462-.504-.798-.756-1.092-.756s-.588.252-1.009.756c-3.444 4.369-8.989 9.662-13.484 12.604-.63.42-1.218.588-1.764.588-1.345 0-2.311-1.092-2.311-2.227 0-.715.42-1.471 1.344-1.975 4.873-2.52 10.082-7.645 13.274-11.805 1.009-1.301 2.311-2.016 3.655-2.016 1.302 0 2.688.631 3.948 2.016 4.117 4.412 8.611 7.939 13.61 10.502.799.42 1.135 1.094 1.135 1.807 0 1.219-1.051 2.479-2.479 2.479C287.109 17.139 279.212 10.375 274.549 5.166zM272.406 23.271c-.756 2.395-1.806 5.504-3.066 8.191 3.865-.293 7.688-.756 11.343-1.301-.967-.883-2.017-1.723-3.067-2.438-.63-.42-.882-.924-.882-1.428 0-.883.882-1.723 1.975-1.723 2.479 0 10.04 7.016 10.04 9.494 0 1.26-1.177 2.268-2.353 2.268-.673 0-1.303-.336-1.723-1.135-.42-.756-.882-1.469-1.387-2.141-9.829 2.057-21.76 2.855-22.6 2.855-1.26 0-1.933-1.092-1.933-2.1 0-.924.547-1.85 1.723-1.891 1.471-.043 2.982-.084 4.495-.168 1.176-2.438 2.269-5.672 2.982-8.443l-7.939.041c-1.345 0-1.975-.881-1.975-1.807 0-.965.672-1.973 1.975-1.973h26.675c1.344 0 2.017.965 2.017 1.932 0 .924-.673 1.848-2.017 1.848L272.406 23.271zM267.618 15.543c-1.303 0-1.975-.924-1.975-1.891 0-.924.672-1.891 1.975-1.891h12.056c1.303 0 1.975.967 1.975 1.891 0 .967-.672 1.891-1.975 1.891H267.618zM308.66 33.732c7.52-5.293 9.83-12.729 8.107-17.602-1.176-3.277-4.326-3.445-7.225-1.723-.841.504-3.15 1.68-4.075 1.932-3.318.842-4.368-3.275-1.302-4.367 1.092-.379 2.437-.842 3.612-1.346 4.285-1.889 10.46-1.721 12.687 3.109 3.234 7.016-.336 16.971-8.737 23.146C308.955 38.941 306.183 35.496 308.66 33.732zM307.778 3.697c-2.395-1.346-.63-4.621 2.311-3.277 1.807.799 4.201 1.471 6.511 1.848 3.445.588 2.059 4.832-1.05 4.244C312.567 5.965 309.543 4.705 307.778 3.697zM335.216 37.176c-2.646 0-4.789-2.143-4.789-4.789s2.143-4.787 4.789-4.787 4.788 2.141 4.788 4.787S337.862 37.176 335.216 37.176zM335.216 29.236c-1.765 0-3.193 1.387-3.193 3.15 0 1.766 1.429 3.193 3.193 3.193 1.764 0 3.192-1.428 3.192-3.193C338.408 30.623 336.979 29.236 335.216 29.236zM361.452 30.834c-1.387 0-2.269-1.135-2.269-2.27 0-.713.378-1.428 1.26-1.807 3.529-1.469 7.394-3.906 10.292-6.469.378-.336.799-.461 1.219-.461 1.05 0 2.016.924 2.016 2.016 0 .547-.21 1.092-.756 1.596C369.308 27.137 363.048 30.834 361.452 30.834zM366.955 12.686c-1.681-2.268-3.655-3.695-5.209-4.705-.546-.377-.798-.84-.798-1.301 0-1.01 1.05-1.975 2.226-1.975 1.513 0 7.562 4.201 7.562 6.469 0 1.219-1.134 2.352-2.269 2.352C367.921 13.525 367.375 13.273 366.955 12.686zM384.388 17.895c.757 5.545 5.755 11.678 11.048 14.535.841.463 1.177 1.135 1.177 1.807 0 1.092-.967 2.227-2.353 2.227-2.688 0-8.863-6.133-11.468-12.1-4.327 11.006-15.039 12.645-15.333 12.645-1.386 0-2.269-1.008-2.269-1.975 0-.797.546-1.596 1.807-1.889 9.283-2.059 13.316-9.789 13.316-16.131 0-1.01-.084-2.27-.126-3.32 0-.041 0-.084 0-.084 0-1.217 1.092-1.805 2.185-1.805 1.092 0 2.184.588 2.184 1.889 0 2.646-.042 3.193-.126 3.865l-.042.211V17.895zM374.853 16.467c-.588.799-1.303 1.092-1.933 1.092-1.05 0-1.933-.797-1.933-1.807 0-.461.126-.881.505-1.344 2.394-2.982 4.704-7.184 5.671-12.602C377.415.547 378.255 0 379.137 0c1.093 0 2.143.756 2.143 1.975 0 .713-.672 2.982-1.134 4.326 2.185-.041 4.789-.084 7.183-.084 1.513 0 2.898 0 4.117.043 2.437.084 3.906 1.385 3.906 3.275 0 2.143-2.982 7.016-3.234 7.395-.546.881-1.386 1.217-2.143 1.217-1.092 0-2.058-.713-2.058-1.68 0-.336.084-.672.336-1.008 1.134-1.555 2.604-4.58 2.604-5.041 0-.379-.21-.631-.841-.631-1.512-.041-4.872-.041-7.855-.041-1.26 0-2.394 0-3.36 0C377.751 12.098 376.49 14.324 374.853 16.467zM419.743 12.434c-.672 5.336-4.453 13.275-8.485 17.014-3.235 2.982-6.764 1.344-8.612-2.27-2.646-5.207.168-13.021 5.798-16.928 5.167-3.57 12.854-4.158 18.146-.967 6.512 3.906 7.562 11.637 3.907 17.643-1.975 3.236-6.091 5.84-10.25 6.932-3.696.967-4.999-3.275-1.387-4.117 3.193-.713 6.428-2.52 7.813-4.703 2.982-4.705 1.849-10.209-2.31-12.855-1.639-1.051-3.403-1.555-5.209-1.68C419.617 10.922 419.869 11.594 419.743 12.434zM410.417 13.232c-3.906 3.023-6.007 8.611-4.242 11.846.63 1.219 1.722 1.848 2.772.924 3.15-2.771 6.091-9.451 6.511-13.988.042-.504.168-.967.378-1.303C413.904 11.131 412.014 12.014 410.417 13.232zM452.103 35.117c0 1.178-1.008 1.766-2.058 1.766-1.051 0-2.059-.588-2.059-1.766v-.041l.168-13.695c-1.513 2.395-3.234 4.621-4.831 6.344-.504.504-1.05.756-1.596.756-1.135 0-2.143-.965-2.143-1.975 0-.504.21-.965.714-1.428 2.353-2.1 5.923-6.385 7.897-10.375l-.042-.504-5.335.125h-.042c-1.261 0-1.849-.883-1.849-1.807s.63-1.848 1.891-1.848h5.293l-.084-3.99c-3.108.588-3.991.629-4.159.629-1.26 0-1.932-.965-1.932-1.891 0-.84.546-1.68 1.68-1.805 3.949-.379 6.806-1.051 10.418-2.479.252-.084.462-.127.672-.127 1.093 0 1.891.924 1.891 1.932 0 1.514-1.681 2.018-4.537 2.814-.042.926-.042 2.773-.084 4.916h4.621c1.261 0 1.891.924 1.891 1.848s-.63 1.807-1.849 1.807h-.042l-4.705-.084v2.479c.168-.041.294-.041.42-.041 1.555 0 4.999 3.023 5.209 3.275.421.463.589.924.589 1.428 0 1.051-.883 2.018-1.849 2.018-.462 0-.924-.211-1.345-.715-.714-.924-1.974-1.975-3.024-2.73.042 6.301.21 15.123.21 15.123V35.117zM456.178 35.117c-1.177 0-1.807-1.092-1.807-2.184 0-.924.504-1.848 1.555-1.891.798-.041 1.638-.084 2.437-.168 2.1-6.932 5.335-23.355 5.713-27.809.126-1.26 1.092-1.848 2.101-1.848 1.176 0 2.479.797 2.479 2.227 0 1.469-3.865 19.281-6.302 26.969 2.94-.379 5.839-.883 8.611-1.471-.756-1.512-1.638-2.941-2.562-4.369-.252-.42-.378-.799-.378-1.176 0-1.008.925-1.723 1.975-1.723.63 0 1.345.295 1.849 1.008 4.284 5.965 5.419 10.082 5.419 11.006 0 1.471-1.219 2.438-2.395 2.438-.924 0-1.807-.588-2.059-1.85-.126-.672-.294-1.301-.504-1.975C465.545 34.193 457.018 35.117 456.178 35.117zM496.64 17.811c-2.1-1.555-3.192-1.471-4.956-.084-2.017 1.598-3.991 3.402-6.218 4.705-2.772 1.639-5.797-2.184-2.437-3.949 1.051-.545 4.243-2.479 6.386-3.99 3.654-2.604 6.469-2.059 9.493.127 5.377 3.863 11.216 8.947 17.056 11.971 2.73 1.387.504 5.797-2.73 4.201C508.15 28.271 501.513 21.424 496.64 17.811zM527.605 37.176c-2.646 0-4.789-2.143-4.789-4.789s2.143-4.787 4.789-4.787 4.788 2.141 4.788 4.787S530.252 37.176 527.605 37.176zM527.605 29.236c-1.765 0-3.193 1.387-3.193 3.15 0 1.766 1.429 3.193 3.193 3.193 1.764 0 3.192-1.428 3.192-3.193C530.798 30.623 529.369 29.236 527.605 29.236z" fill="#d52662"/></g></svg>