<svg version="1.1" xmlns="http://www.w3.org/2000/svg" xmlns:xlink="http://www.w3.org/1999/xlink" x="0px" y="0px" width="534px" height="320px" viewBox="0 0 534 320" xml:space="preserve"><g><path fill="#D52662" d="M0 0H184V52H0z"/></g><g><path fill="#D52662" d="M0 68H219V120H0z"/></g><g><path fill="#D52662" d="M0 136H419V188H0z"/></g><g><path fill="#D52662" d="M0 204H534V256H0z"/></g><g><path fill="#FFF" d="M1 277H414V319H1z"/><path fill="#D52662" d="M413,278v40H2v-40H413 M415,276H0v44h415V276L415,276z"/></g><g><path fill="#FFF" d="M33.2 27c2.9-.8 5.8-1.7 8-2.2 2.8-.7 3.3 2.7 1 3.2-2.1.5-5 1.3-8.1 2.2 1.2 3.6 2.2 7 2.9 9.1.4 1.3-.3 2.3-1.2 2.6-.9.3-1.9 0-2.3-1.3-.6-2.2-1.6-5.8-2.7-9.5-3.2 1-6.3 1.9-8.5 2.7-2.4.8-3.5-2.6-.8-3.4 2.1-.6 5.1-1.6 8.3-2.5-.4-1.3-.8-2.5-1.2-3.7-2.2.6-4.4 1.2-6.3 1.7-2.6.6-3.3-2.7-.9-3.2 2-.4 4.1-1 6.2-1.5-.7-2.3-1.4-4.3-1.8-5.6-.8-2.4 2.8-3 3.4-1 .4 1.3 1 3.3 1.7 5.7 2.1-.6 4-1.2 5.7-1.8 2.3-.8 3.1 2.5.9 3.2-1.6.5-3.6 1.1-5.6 1.7L33.2 27zM63.5 37.8c-2.4 1.2-5.6.5-5.5-3.3.1-4.1.2-12.9.1-15.3-.1-2.8 3.7-2.5 3.8-.1.1 2.6 0 10.6-.1 13.4 0 1 .9 1.4 1.8.9 5.5-2.9 10.5-8 13-11.9 1.5-2.4 4.8-.1 3.3 2.1C76.9 28.1 69.6 34.8 63.5 37.8zM91.4 33.8c-3.3 2-5.2-1.7-2.7-2.8 6.6-3.2 13.5-9.9 17.6-16.3 1.6-2.5 4.8-.2 3.2 1.9-1.6 2.2-3.2 4.1-4.7 5.9-.1 3.7-.2 13.1-.1 16.7.1 2.7-3.8 3.1-3.8.1 0-2.9.2-8.7.2-13C98.3 29.2 95.2 31.6 91.4 33.8zM131.5 34.6c.2 5.1 5.8 4.9 7.7.9 1.3-2.7.3-5.1-1.8-7.3-1.9-2.1 1.2-4 2.8-2.1 2.8 3.2 3.8 6.7 2.4 10.3-2.6 6.8-14.1 8-14.4-1.6 0-1 0-2.1 0-3.2-1.3-.1-2.3-.3-2.8-.4-2.9-.8-1.8-4.2.3-3.5.8.3 1.8.5 2.8.5.1-1.6.3-3.2.5-4.8-1.4-.2-2.5-.4-3-.6-2.7-.9-1.2-4.2.8-3.5.8.3 1.7.6 2.6.7 0-.4.1-.9.1-1.3.2-2.3.3-3.6.4-5.3.2-2.5 3.6-1.9 3.6.2 0 1.7-.4 3.1-.6 5.2 0 .4-.1.9-.1 1.3.3 0 .6-.1.9-.2 2.3-.5 3 2.7.8 3.3-.7.2-1.4.3-2.2.4-.2 1.6-.4 3.2-.5 4.7.6-.1 1.2-.2 1.7-.3 2.4-.6 3.3 2.5 1.2 3.2-1 .3-2.1.5-3.2.6C131.5 32.7 131.5 33.7 131.5 34.6zM160.4 41.7c-.9-1.3-2.9-3-4.4-3.8-.7-.4-1-.9-1-1.4 0-.8.6-1.6 1.7-1.6 1.3 0 7 3.2 7 5.6 0 1.2-1 2-1.9 2C161.3 42.5 160.8 42.2 160.4 41.7z"/></g><g><path fill="#FFF" d="M33.2 95c2.9-.8 5.8-1.7 8-2.2 2.8-.7 3.3 2.7 1 3.2-2.1.5-5 1.3-8.1 2.2 1.2 3.6 2.2 7 2.9 9.1.4 1.3-.3 2.3-1.2 2.6-.9.3-1.9 0-2.3-1.3-.6-2.2-1.6-5.8-2.7-9.5-3.2 1-6.3 1.9-8.5 2.7-2.4.8-3.5-2.6-.8-3.4 2.1-.6 5.1-1.6 8.3-2.5-.4-1.3-.8-2.5-1.2-3.7-2.2.6-4.4 1.2-6.3 1.7-2.6.6-3.3-2.7-.9-3.2 2-.4 4.1-1 6.2-1.5-.7-2.3-1.4-4.3-1.8-5.6-.8-2.4 2.8-3 3.4-1 .4 1.3 1 3.3 1.7 5.7 2.1-.6 4-1.2 5.7-1.8 2.3-.8 3.1 2.5.9 3.2-1.6.5-3.6 1.1-5.6 1.7L33.2 95zM71.5 95.1c-1.5.4-3.6 1.2-5.8 1.9 1.1 3.6 2.4 7.7 3.2 10.1 1 2.6-2.3 3.7-3.1 1.2-.7-2.4-1.9-6.6-3.1-10.3-1.5.5-2.9 1.1-4.1 1.5-2.1.8-3-2.2-1-2.9 1.3-.4 2.7-.9 4.2-1.5-.4-1.4-.8-2.6-1.1-3.5-.4-1.2.2-2 1-2.2.8-.2 1.7.3 2 1.2.3.8.6 2 1 3.4 2.4-.8 4.9-1.6 7.3-2.4 1.8-.5 4 .4 3.3 2.7-.8 2.4-2.4 4.6-4.2 6.2-2.1 1.8-4.1-.8-2.2-2.3C69.9 97.5 70.9 96.3 71.5 95.1L71.5 95.1zM94 98c-.9 0-1.9-.6-1.9-1.8.2-3.6.1-9.2-.1-12.6-.1-2.2 3.6-2.4 3.7-.1.2 3.2.2 9.4.1 12.7C95.9 97.3 94.9 98 94 98zM94.3 106.7c6.4-3.5 7.8-8.3 7.8-13.7 0-2.8-.2-7.3-.2-10.1 0-2.3 3.9-2.2 3.9 0-.1 3.1.1 7.1.1 10.1 0 6.2-1.9 12.4-9.3 16.7C93.6 111.3 92 108 94.3 106.7zM124.2 108.6c-1.4.9-2.8.5-3.4-.3-.6-.8-.5-2.1 1-2.8 6-3 8.1-8.9 7.6-14.1-.1-1.5.8-2.2 2-2.2 1.1 0 2.2.5 2.2 2.1 0 .4 0 .9 0 1.3.1 0 .2-.1.3-.1 2.4-1 5.1-2.6 6.6-4.5.5-.8.5-1.3-.4-1.3-4 0-11.9.1-16.9.3-3.2.1-3-3.3-.3-3.5 5.2-.3 13.1-.2 18.5-.2 3.7 0 5.5 3.1 3 6-2.4 2.7-5 5-8.9 6.4-.8.3-1.5.2-2.1-.1C132.2 101 129.5 105.3 124.2 108.6zM166.5 102.6c.2 5.1 5.8 4.9 7.7.9 1.3-2.7.3-5.1-1.8-7.3-1.9-2.1 1.2-4 2.8-2.1 2.8 3.2 3.8 6.7 2.4 10.3-2.6 6.8-14.1 8-14.4-1.6 0-1 0-2.1 0-3.2-1.3-.1-2.3-.3-2.8-.4-2.9-.8-1.8-4.2.3-3.5.8.3 1.8.5 2.8.5.1-1.6.3-3.2.5-4.8-1.4-.2-2.5-.4-3-.6-2.7-.9-1.2-4.2.8-3.5.8.3 1.7.6 2.6.7 0-.4.1-.9.1-1.3.2-2.3.3-3.6.4-5.3.2-2.5 3.6-1.9 3.6.2 0 1.7-.4 3.1-.6 5.2 0 .4-.1.9-.1 1.3.3 0 .6-.1.9-.2 2.3-.5 3 2.7.8 3.3-.7.2-1.4.3-2.2.4-.2 1.6-.4 3.2-.5 4.7.6-.1 1.2-.2 1.7-.3 2.4-.6 3.3 2.5 1.2 3.2-1 .3-2.1.5-3.2.6C166.5 100.7 166.5 101.7 166.5 102.6zM195.4 109.7c-.9-1.3-2.9-3-4.4-3.8-.7-.4-1-.9-1-1.4 0-.8.6-1.6 1.7-1.6 1.3 0 7 3.2 7 5.6 0 1.2-1 2-1.9 2C196.3 110.5 195.8 110.2 195.4 109.7z"/></g><g><path fill="#FFF" d="M21.5 168.4c3.4-2.1 6.2-5.8 7.6-9.6 1.1-2.8 4.7-.9 3.6 1.4-2.1 4.5-4.9 8.5-9 11.4C21.3 173.3 19 170 21.5 168.4zM45.9 169.9c-1.1-3.5-4.6-8-6.9-10-1.7-1.5.7-4.1 2.8-2.2 3.1 2.8 7.2 7.4 8 10.7C50.6 171.2 46.8 172.7 45.9 169.9zM64.8 166.9c-.5-1-1.3-2.1-2.1-2.8-1.5-1.3.6-3.5 2.3-2 1 .9 2 2 2.7 3.2C68.8 167.2 65.8 169 64.8 166.9zM64 176.6c-.3-.8-.1-1.7.9-2.2 6-2.5 9.9-7.6 11.3-13.6.6-2.3 4.1-1.3 3.4.9-2.1 6.8-6 12.3-13.1 15.5C65.3 177.8 64.4 177.4 64 176.6zM69.6 164.9c-.4-1.1-1-2.2-1.7-3-1.3-1.4 1.1-3.4 2.6-1.7.8 1 1.6 2.3 2.2 3.6C73.5 165.9 70.3 167.2 69.6 164.9zM99.2 168.7c-.1 1.8.7 2.6 2.9 2.9 2.1.3 7.9-.1 10.5-1 2.7-.9 4.3 3 .8 3.9-3.2.9-8.7 1-12.5.5-3.2-.4-5.1-2.4-5.1-5.4 0-3.6.2-11.6.3-15.9 0-2.5 3.7-2 3.7.1 0 1.9-.1 4.6-.2 7.3 2.8-.5 8.6-2.2 11.3-3.3 2.6-1.2 4.4 2.5 1.3 3.6-3.4 1.2-8.7 2.8-12.8 3.3C99.3 166.3 99.2 167.7 99.2 168.7zM116 157.2c-2.1 0-3.8-1.7-3.8-3.8s1.7-3.8 3.8-3.8 3.8 1.7 3.8 3.8S118.1 157.2 116 157.2zM116 151.5c-1 0-1.8.9-1.8 1.9s.8 1.8 1.8 1.8 1.9-.8 1.9-1.8S117 151.5 116 151.5zM129.7 163.9c-1.3 0-1.9-.9-1.9-1.7 0-.9.7-1.8 1.9-1.8h22.6c1.2 0 1.8.9 1.8 1.8 0 .9-.6 1.8-1.8 1.8H129.7zM174.8 170.6c.2 5.1 5.8 4.9 7.7.9 1.3-2.7.3-5.1-1.8-7.3-1.9-2.1 1.2-4 2.8-2.1 2.8 3.2 3.8 6.7 2.4 10.3-2.6 6.8-14.1 8-14.4-1.6 0-1 0-2.1 0-3.2-1.3-.1-2.3-.3-2.8-.4-2.9-.8-1.8-4.2.3-3.5.8.3 1.8.5 2.8.5.1-1.6.3-3.2.5-4.8-1.4-.2-2.5-.4-3-.6-2.7-.9-1.2-4.2.8-3.5.8.3 1.7.6 2.6.7 0-.4.1-.9.1-1.3.2-2.3.3-3.6.4-5.3.2-2.5 3.6-1.9 3.6.2 0 1.7-.4 3.1-.6 5.2 0 .4-.1.9-.1 1.3.3 0 .6-.1.9-.2 2.3-.5 3 2.7.8 3.3-.7.2-1.4.3-2.2.4-.2 1.6-.4 3.2-.5 4.7.6-.1 1.2-.2 1.7-.3 2.4-.6 3.3 2.5 1.2 3.2-1 .3-2.1.5-3.2.6C174.8 168.7 174.8 169.7 174.8 170.6zM218.2 167.5c0 1.3-.2 2.6-.4 4-.5 3.7-3.3 6.6-7.6 6.6-2.3 0-4.6-.5-4.6-2.4 0-.9.6-1.8 1.6-1.8.2 0 .4 0 .6.1.8.3 1.6.4 2.4.4 3.9 0 4.1-3.6 4.3-7l-14.2.1c-1.2 0-1.8-.8-1.8-1.6 0-.9.6-1.8 1.8-1.8l14.2.1c-.1-1.4-.2-2.7-.4-4l-11.4.1c-1.2 0-1.8-.8-1.8-1.6 0-.9.6-1.8 1.8-1.8l10.6.1c-.6-1.8-1.4-3.2-2.4-4.1-2.8.2-5.4.3-7.3.3-1.2 0-1.8-.9-1.8-1.7s.6-1.6 1.7-1.6h0c.5 0 1 0 1.6 0 5.5 0 11.8-.7 16.8-1.9.2 0 .4-.1.5-.1 1.1 0 1.7.9 1.7 1.8 0 .7-.4 1.3-1.1 1.5-2 .5-5 .9-8.1 1.3.8 1.1 1.5 2.6 2.1 4.5l8.8-.1c1.1 0 1.7.9 1.7 1.7 0 .8-.5 1.7-1.7 1.7l-8-.1c.2 1.3.3 2.6.4 4l10-.1c1.1 0 1.7.9 1.7 1.7 0 .8-.5 1.7-1.7 1.7L218.2 167.5zM242.4 175.1c-2.9-7.1 0-17.7.6-22 .4-2.7 3.9-1.9 3.5.2-.6 2.9-2.7 11.4-1.9 14.7.1.5.3.4.4 0 .1-.2.5-.9.6-1.2 1.1-1.8 3.3 0 2.5 1.4-1.3 2.3-1.9 4-2.1 5-.2 1 .2 2.1-.7 2.9C244.4 177 243.1 176.9 242.4 175.1zM252 172.6c-1.5-1.6.7-4.2 2.6-2.5 1.9 1.8 6.3 1.2 9.1.6 2.9-.6 3.1 3.2.7 3.8C260.5 175.5 254.6 175.4 252 172.6zM254.1 158.2c-2 .5-3.1-2.7-.5-3.3 3.2-.8 6.9-.8 9.5-.2 2.5.6 1.8 4-.6 3.5C259.8 157.6 257.1 157.5 254.1 158.2zM293.8 153.4c1 7.2 5.9 16 13.1 19.9.8.4 1.1 1 1.1 1.7 0 1.1-1 2.3-2.4 2.3-.4 0-.9-.1-1.3-.4-5.6-3.5-9.8-9.8-12.1-16.1-2.1 6.7-6.2 12.9-13.2 16.7-.4.2-.8.3-1.2.3-1.2 0-2.1-1-2.1-2 0-.6.4-1.3 1.2-1.8 8.7-4.5 12.6-13 13.3-20.7-.1-1.4-.2-1.9-1.2-1.9 0 0-.1 0-.1 0l-5.1.3c0 0-.1 0-.1 0-1.1 0-1.7-.9-1.7-1.8 0-.9.5-1.8 1.7-1.8 1.4 0 3.1-.1 4.7-.1.4 0 .8 0 1.2 0 2.2 0 3.9 1.2 3.9 3.2 0 .6.1 1.3.2 2h0L293.8 153.4zM321.7 172.6c-1.6 2.8-5.3.6-3.3-1.7.1-.1.2-.3.3-.3 1.6-2.2 3.9-5.3 5.4-8 .1-.7.1-1.4.2-2.1-.8.3-1.8.7-2.7 1.3-2.5 1.6-3.6-1.9-1.7-2.8 1.3-.6 3-1.3 4.7-2 .3-2.7.5-5.1.7-6.7.3-2.4 3.7-1.6 3.3.4-.3 1.3-.5 3.1-.8 5.2 1.2-.1 2.2.9 1.6 2.6.4-.4.9-.8 1.3-1.1 5.6-4.6 10.8-4.2 10.3 2.9-.1 2.2-.7 6-.9 8-.4 4.1 1.8 3.7 4.2 1.1 1.8-1.9 4.1.7 2.6 2.4-4.6 5-11 4.4-10.2-3.5.2-1.9.8-5.8.9-8 .1-2.6-.4-4.5-5.5-.3-1.7 1.4-3.4 2.7-5.1 4.7-.2 4-.2 8 .3 10.7.4 2.5-3.3 3.3-3.6.3-.1-1.6-.1-4 0-6.7C323 170.2 322.3 171.5 321.7 172.6zM374.1 172c2.6-2.3 2.5-5.8.5-7.1-1.9-1.3-5.8-1.5-9.4.6-1.4.8-2.2 1.5-3 2.7-1.3 1.9-4.9-.2-2.7-2.4 4-3.9 6.9-6.7 10.9-11.6.4-.5 0-.4-.3-.2-1 .5-3.4 1.3-6 1.8-2.8.6-3.4-3-.9-3.2 2.4-.3 5.9-1.2 7.9-1.8 2.9-.8 5.3 1.7 3.5 3.7-1.2 1.3-2.6 2.7-4 4-1.4 1.3-2.9 2.6-4.2 3.9 3.2-1.7 7.5-1.7 10.1-.1 5.2 3.1 3.5 9.4-.3 12.2-3.6 2.6-9.2 2.7-11.9.9-3.8-2.5-2.1-6.9 2.1-7.1 2.9-.1 5.6 1.6 5.7 4.9C372.7 173 373.4 172.6 374.1 172zM366.4 170.9c-1.6.1-1.7 1.6-.5 2.2.8.4 2 .6 3 .5C368.9 172 368 170.8 366.4 170.9zM394.5 178.5c-2.3 0-4.1-1.8-4.1-4.1 0-2.3 1.8-4.1 4.1-4.1s4.1 1.8 4.1 4.1C398.6 176.6 396.7 178.5 394.5 178.5zM394.5 171.7c-1.5 0-2.7 1.2-2.7 2.7s1.2 2.7 2.7 2.7 2.7-1.2 2.7-2.7S396 171.7 394.5 171.7z"/></g><g><path fill="#FFF" d="M29.4 225.1c1.3.1 2.2.9 2.2 2.1 0 1.2.1 3 .1 4.7 0 1.5 0 3 0 3.9-.1 1.7-1 2.4-2.8 2.4-.7 0-1.6.1-2.5.1-4.3 0-5.8 0-5.8-2.5 0-1.1-.1-2.6-.1-4.2 0-1.6 0-3.2.1-4.3.1-2.2 1.7-2.2 3.6-2.2.2-.7.4-1.4.5-1.9.1-.4.5-.6.9-.6.5 0 1.1.3 1.1.8 0 .3-.2.9-.6 1.7C27.3 225 28.7 225 29.4 225.1zM29.9 230.4h-7.8v2.2h7.8V230.4zM29.9 228.9c0-.4 0-.8 0-1.1-.1-1.2-.5-1.2-3.8-1.2-1.1 0-2.1 0-2.7.1-1.3.1-1.3.6-1.3 2.3H29.9zM22.1 234.1c0 .5 0 .9 0 1.3 0 1.2.5 1.2 4 1.2.9 0 1.8 0 2.4-.1 1.4-.1 1.4-.8 1.4-2.4H22.1zM45.6 230.6c-.9 6.4-6 7.9-6.6 7.9-.5 0-.9-.4-.9-.9 0-.3.2-.7.7-.8 3.4-1 4.6-3.4 5-6.2-.6 0-1.1 0-1.6 0-.5 0-.8-.4-.8-.7 0 0 0-.1 0-.1-.8.9-2.1 2.2-2.9 2.2-.6 0-1-.5-1-.9 0-.3.1-.6.5-.8 1.8-1.1 2.7-2.4 3.6-4 .2-.4.5-.6.8-.6.5 0 1 .4 1 .9 0 .6-1.4 2.4-1.5 2.5.1 0 .1 0 .2 0 .8 0 1.6 0 2.5 0 1.2 0 2.4 0 3.4 0 1.2 0 1.9.8 1.9 2 0 3.5-.1 7.3-4.1 7.3-.6 0-1.2-.1-1.8-.3-.4-.1-.6-.5-.6-.8 0-.5.3-.9.9-.9.1 0 .2 0 .3 0 .5.1 1 .2 1.4.2 1.3 0 2.2-.6 2.2-5.1 0-.1 0-.2 0-.3 0-.5-.3-.7-.6-.7H45.6zM43.2 225.1C43.2 225.1 43.2 225.1 43.2 225.1c-.6 0-.9-.4-.9-.8 0-.4.3-.8.8-.8l3-.1c0 0 .1 0 .1 0 .9 0 1.7.3 2.1 1.1 1 2.2 2.4 3.9 4.6 5.3.4.2.5.5.5.9 0 .5-.5 1.1-1.1 1.1-1 0-3.7-2.6-5.4-6.1-.2-.4-.5-.6-1-.6 0 0-.1 0-.1 0L43.2 225.1zM63.9 238.4c-1.5.3-1.9-1.5-.4-1.8.9-.2 1.9-.5 2.4-.8 2-1.2 2.5-2.4 2.1-3.1-.4-.7-1.7-1-3.6-.1-1.1.5-2.2 1.3-2.4 1.5-1.1 1-1.8.5-2.1-.1-.3-.6-.3-1.7-.1-3.1.1-1.3.4-2.7.5-3.6.2-1.2 1.8-1.1 1.7.2-.1.8-.3 1.8-.4 2.6-.1.9-.2 1.5-.1 1.9.1.1.1.1.3.1.4-.2 1.2-.7 2.1-1 5.4-2.4 9.3 2.5 3.2 6.2C66.3 237.8 65.1 238.2 63.9 238.4zM63.9 226.9c-.9.2-1.5-.9-.8-1.3.1-.1.3-.1.1-.2-.4-.2-1-.5-1.3-.8-.8-.8.4-1.8 1.3-1.2.3.2.9.5 1.5.8.5.3 1 .8 1 1.3 0 .5-.2 1.1-1.1 1.3C64.4 226.8 64.1 226.9 63.9 226.9zM77.9 234.3c-.1-1.9.1-3.4.2-5.3.1-1.2.2-2.9.1-4.1 0-1.3 2-1.2 2 0 0 1.1-.2 2.8-.3 4.1-.1 1.9-.4 3.5-.3 5.3.1 2.6 3.3 2.4 6.4 0 1.2-.9 2.3.7 1.2 1.6C83.8 238.6 78 239.1 77.9 234.3zM98.8 237.8c-1-2.1-2.6-4.4-3.8-5.9-1.2-1.4-1.2-2.7.2-4.1 1.2-1.3 2.6-2.6 3.7-4.1.8-1.1 2.4.2 1.6 1.2-.9 1.1-2.8 2.7-3.9 3.8-.8.8-.8 1.3-.2 2.1 1.8 2.2 3.3 3.9 4.2 5.9C101.2 237.9 99.4 238.9 98.8 237.8zM108.5 237.9c-.4 0-.8-.3-.8-.8 0-.2.1-.4.2-.6 1.3-1.5 1.6-4 1.6-5.6 0-.4.3-.6.7-.6.4 0 .8.2.8.6 0 0 0 4.2-1.7 6.5C109.1 237.8 108.8 237.9 108.5 237.9zM111.6 230.1h-2.8c-.5 0-.8-.4-.8-.8 0-.4.3-.8.8-.8h0l1.8 0-.1-5v0c0-.5.4-.8.8-.8.4 0 .8.3.8.8v0l-.1 3.3c.2-.5.5-1.3.7-1.8.1-.3.3-.5.6-.5.4 0 .8.3.8.8 0 .2-.1.6-1 2.2-.1.2-.3.3-.5.3-.2 0-.5-.1-.6-.3l0 1.1 1.7 0h0c.5 0 .7.4.7.7 0 .4-.3.8-.7.8h-.8l0 3.6c.4-.2.7-.4 1-.6.1-.1.3-.1.4-.1.4 0 .7.3.7.7 0 .2-.1.4-.4.6-1.1.8-2.9 1.9-3.4 1.9-.5 0-.7-.4-.7-.8 0-.5.5-.7 1-.9L111.6 230.1zM109.2 227.4c-.2-.6-.6-1.4-.8-1.7-.1-.1-.1-.2-.1-.3 0-.4.4-.6.8-.6.2 0 .4.1.5.2.4.5 1 1.6 1 2.1 0 .5-.4.8-.8.8C109.6 227.8 109.3 227.7 109.2 227.4zM119.8 236.2v1.7c0 .5-.4.8-.8.8-.4 0-.8-.3-.8-.8l0-1.7-3.5 0c-.5 0-.7-.4-.7-.7 0-.3.3-.7.7-.7l3.5 0v-1c-3.1 0-3.2-.4-3.2-2.8 0-2.4.4-2.6 3.2-2.6v-.8l-1.7 0c-.5 0-.7-.3-.7-.6-.1.1-.4.2-.6.2-.4 0-.8-.2-.8-.7 0-.2 0-.5 0-.7 0-1.3.1-2.2 1.7-2.2.9 0 1.8 0 2.8 0 1 0 2 0 2.9 0 1 0 1.8.6 1.8 1.6 0 .3 0 .7 0 1 0 .3 0 1-.8 1-.2 0-.4-.1-.6-.2 0 .3-.3.6-.8.6l-1.8 0v.8c2.8 0 3.3.1 3.3 2.6 0 2.8-.3 2.8-3.3 2.8l0 1 3.6 0c.5 0 .7.4.7.7 0 .4-.2.7-.7.7L119.8 236.2zM122.1 225.5c0-.5-.3-.6-.9-.6-.6 0-1.6 0-2.5 0-2.6 0-2.7.1-2.7.6v.8c.1-.1.3-.2.5-.2l1.7 0v-.4c0-.5.4-.7.8-.7.4 0 .8.2.8.7v.4l1.8 0c.2 0 .4.1.6.2V225.5zM118.2 229.6c-1.4 0-1.6 0-1.6.7l0 .2h1.6L118.2 229.6zM118.2 231.6h-1.6c0 .1 0 .3 0 .4.1.6.2.6 1.6.6V231.6zM121.5 230.2c0-.7-.3-.7-1.7-.7v.9h1.7L121.5 230.2zM119.8 231.6v1c1.3 0 1.7 0 1.7-.7 0-.1 0-.2 0-.3H119.8zM135 237.8c-1-2.1-2.6-4.4-3.8-5.9-1.2-1.4-1.2-2.7.2-4.1 1.2-1.3 2.6-2.6 3.7-4.1.8-1.1 2.4.2 1.6 1.2-.9 1.1-2.8 2.7-3.9 3.8-.8.8-.8 1.3-.2 2.1 1.8 2.2 3.3 3.9 4.2 5.9C137.3 237.9 135.6 238.9 135 237.8zM146.5 238.3c-.5-.7-1.4-1.5-2.2-1.9-.3-.2-.5-.5-.5-.7 0-.4.3-.8.8-.8.6 0 3.5 1.6 3.5 2.8 0 .6-.5 1-1 1C146.9 238.7 146.7 238.6 146.5 238.3zM161 232.9c-.6-1.7.3-3 1.4-3.4.5-.2 1.1-.2 1.5-.2 0-.4 0-.9-.1-1.5-1.5.1-3 .4-3.9.5-1.3.2-2.1.4-2.7.5-1.2.2-1.6-1.6-.1-1.8.7-.1 1.9-.3 2.6-.4.9-.1 2.5-.3 4.1-.5 0-.1 0-.2 0-.3 0-1.1-.1-1.2-.1-1.8 0-1.3 1.8-1.2 1.9-.1 0 .4 0 1.2-.1 1.7 0 .1 0 .2 0 .3.5 0 1-.1 1.4-.1.9 0 1.5 0 2.7 0 1.5 0 1.4 1.9 0 1.8-1.3-.1-1.7-.1-2.8-.1-.4 0-.8 0-1.3 0 0 .6 0 1.1 0 1.7 0 .3 0 .6.1 1 1.6 2.5-.3 6.3-2.2 7.9-1.2 1-2.8-.3-1.2-1.4.9-.6 1.6-1.6 2.1-2.6C163.1 234.9 161.6 234.6 161 232.9zM164 231.1c-.3-.2-.8-.3-1.2-.1-.4.2-.7.8-.5 1.4.3 1 1.9 1 2.1-.3.1-.4 0-.5-.1-.7C164.2 231.2 164.1 231.1 164 231.1zM181.1 230.5c-.9-.7-1.4-.6-2.1 0-.9.7-1.7 1.5-2.7 2-1.2.7-2.5-.9-1-1.7.5-.2 1.8-1.1 2.7-1.7 1.6-1.1 2.8-.9 4.1.1 2.3 1.7 4.8 3.8 7.3 5.1 1.2.6.2 2.5-1.2 1.8C186 234.9 183.2 232 181.1 230.5zM183.7 228.4c-1-.4-.2-1.5.6-1.2.5.2 1.5.7 1.9 1.2.7.8-.4 1.9-1 1.2C185 229.3 184.1 228.6 183.7 228.4zM185.4 226.8c-1-.4-.3-1.5.6-1.2.5.2 1.5.6 1.9 1.1.8.8-.3 1.9-1 1.2C186.8 227.5 185.8 226.9 185.4 226.8zM199.1 229.2c.2-.3.3-.6.6-.9.3-.4.2-.4-.1-.3-1.4.4-1 .4-2.3.9-.6.2-1.1.4-1.6.5-1.6.4-2.1-1.6-.6-1.9.4-.1 1.4-.3 2-.4.9-.2 2.4-.6 4.3-1.1 1.9-.5 3.3-1 4.9-1.1 1.1-.1 1.4.8 1.2 1.4-.1.3-.5.7-1.8.6-.9-.1-2.1.3-2.7.5-1 .4-1.9 1.4-2.3 2.1-1.6 2.6-.4 6.4 3.7 6.3 1.9-.1 2 2.1.1 2C199 237.8 197.2 232.8 199.1 229.2zM219.6 228.1c-.3 2.3-1.9 5.7-3.6 7.3-1.4 1.3-2.9.6-3.7-1-1.1-2.2.1-5.6 2.5-7.3 2.2-1.5 5.5-1.8 7.8-.4 2.8 1.7 3.2 5 1.7 7.6-.8 1.4-2.6 2.5-4.4 3-1.6.4-2.1-1.4-.6-1.8 1.4-.3 2.8-1.1 3.3-2 1.3-2 .8-4.4-1-5.5-.7-.4-1.5-.7-2.2-.7C219.5 227.5 219.6 227.8 219.6 228.1zM215.6 228.5c-1.7 1.3-2.6 3.7-1.8 5.1.3.5.7.8 1.2.4 1.4-1.2 2.6-4.1 2.8-6 0-.2.1-.4.2-.6C217.1 227.6 216.2 228 215.6 228.5zM233.3 237.4c-.2-.5.1-1.1.9-1.2 4.1-.9 6.2-4.5 6.3-7.4 0-.7-.2-1-.9-1.1-1.3-.1-4.1 0-5 0-.6 0-1 .4-1 .9 0 .5 0 1.7.1 2.3.1 1.2-1.8 1.5-1.9.1-.1-.8 0-2.6 0-3.2.1-1 .5-1.8 2.6-1.8 1.5 0 3.6-.1 5.6-.1 2.1 0 2.7.7 2.6 2.8-.3 3.9-2.8 7.7-7.8 9.2C234 238.2 233.4 237.8 233.3 237.4zM250 231.5c-.6 0-1-.4-1-.9 0-.5.3-.9 1-.9h11.3c.6 0 .9.5.9.9 0 .4-.3.9-.9.9H250zM275.3 231c1.5-.4 2.9-.8 4-1.1 1.4-.4 1.6 1.4.5 1.6-1 .2-2.5.6-4 1.1.6 1.8 1.1 3.5 1.4 4.6.2.7-.2 1.2-.6 1.3-.4.2-1 0-1.1-.6-.3-1.1-.8-2.9-1.4-4.8-1.6.5-3.2 1-4.3 1.3-1.2.4-1.7-1.3-.4-1.7 1-.3 2.6-.8 4.2-1.3-.2-.6-.4-1.3-.6-1.9-1.1.3-2.2.6-3.2.8-1.3.3-1.6-1.3-.5-1.6 1-.2 2.1-.5 3.1-.8-.4-1.2-.7-2.1-.9-2.8-.4-1.2 1.4-1.5 1.7-.5.2.6.5 1.7.9 2.9 1-.3 2-.6 2.8-.9 1.2-.4 1.5 1.3.5 1.6-.8.3-1.8.6-2.8.8L275.3 231zM289.5 229.8c-.7-.6-1.8-1.1-2.7-1.3-1.1-.3-.6-2.1.7-1.7 1 .3 2.3.8 3.2 1.4.6.4.5 1.1.2 1.5S290.1 230.3 289.5 229.8zM288.4 237.2c-1.5.5-2.1-1.6-.6-1.9 3.6-.9 7.3-4.6 9.1-8.2.6-1.1 2.4-.4 1.6 1.1C296.3 232.2 292.5 235.9 288.4 237.2zM310.8 226c.8-.1 1.7-.1 2.4-.1 1.4-.1 2.6.9 1.9 2.2-2.2 4.2-4.7 7.8-9.7 9.8-1.5.6-2.3-1.2-.8-1.7 4-1.4 7-5 8.3-8 .1-.3 0-.7-.4-.7-.8 0-2.1.1-2.9.2-1.2 1.6-2.8 3.5-4.1 4.4-1.2.8-2.3-.8-1-1.5 1.7-1.1 4.1-4.4 4.9-5.8.6-1 2.4-.1 1.5 1.1L310.8 226zM314.5 225.1c-.9-.4-.2-1.5.6-1.2.5.2 1.4.6 1.8 1.1.7.8-.3 1.9-.9 1.2C315.8 225.9 314.9 225.3 314.5 225.1zM316.2 223.5c-.9-.4-.3-1.4.6-1.2.5.2 1.4.6 1.8 1 .7.7-.3 1.9-.9 1.2C317.4 224.3 316.5 223.7 316.2 223.5zM328.9 227c.8 0 1.7 0 2.4 0 1.3 0 2.2.7 2.2 2-.2 3.8-2.5 7.6-7.9 9-1.3.3-1.8-1.5-.5-1.8 4.2-.8 6.2-4 6.4-6.8 0-.6-.2-.9-.8-1-1.5-.1-4.3-.1-5.3 0-.6 0-.8.5-.8.9 0 .4 0 1.5.1 2.1 0 1.1-1.9 1.2-1.9.1 0-.5 0-1.7 0-2.6 0-1.6 1.5-2 2.2-2 .7 0 1.5 0 2.3 0 0-.7 0-1.7 0-2.2 0-.6.5-.9.9-.9s.9.3.9.8V227zM340.9 231.5c-.6 0-1-.4-1-.9 0-.5.3-.9 1-.9h11.3c.6 0 .9.5.9.9 0 .4-.3.9-.9.9H340.9zM367.3 234.7c.3.6.1 1.2-.3 1.4s-1 .3-1.3-.3c-.6-1-2.8-2.9-4.2-3.6-1-.5-.1-2 1.1-1.4.7.3 1.5.8 2.2 1.3 1-.6 2.9-2.1 3.7-2.9.2-.2.4-.6-.2-.6-2.3 0-6.6.1-9.4.2-1.3.1-1.5-1.8 0-1.8 2.8-.1 7.3-.1 10.2-.1 1.6 0 2.8 1.4 1.7 2.6-1.1 1.2-3 2.7-4.6 3.8C366.7 233.9 367.1 234.3 367.3 234.7zM381 229.8c-.7-.6-1.8-1.1-2.7-1.3-1.1-.3-.6-2.1.7-1.7 1 .3 2.3.8 3.2 1.4.6.4.5 1.1.2 1.5S381.5 230.3 381 229.8zM379.8 237.2c-1.5.5-2.1-1.6-.6-1.9 3.6-.9 7.3-4.6 9.1-8.2.6-1.1 2.4-.4 1.6 1.1C387.7 232.2 384 235.9 379.8 237.2zM403 228.1c-.3 2.3-1.9 5.7-3.6 7.3-1.4 1.3-2.9.6-3.7-1-1.1-2.2.1-5.6 2.5-7.3 2.2-1.5 5.5-1.8 7.8-.4 2.8 1.7 3.2 5 1.7 7.6-.8 1.4-2.6 2.5-4.4 3-1.6.4-2.1-1.4-.6-1.8 1.4-.3 2.8-1.1 3.3-2 1.3-2 .8-4.4-1-5.5-.7-.4-1.5-.7-2.2-.7C402.9 227.5 403.1 227.8 403 228.1zM399 228.5c-1.7 1.3-2.6 3.7-1.8 5.1.3.5.7.8 1.2.4 1.4-1.2 2.6-4.1 2.8-6 0-.2.1-.4.2-.6C400.5 227.6 399.7 228 399 228.5zM415.9 237c-.5 1.2-2.4.7-1.7-.8.8-1.6 2.1-4.3 3.2-7.8-1 .1-1.9.1-2.6-.3-.9-.4-.7-2 .6-1.5.8.3 1.6.3 2.5.1.1-.7 0-1.2 0-1.9-.1-1 1.6-1.1 1.8-.1.1.5.1.9 0 1.4.3-.1.5-.3.7-.4.9-.6 2.1.9.7 1.5-.5.3-1.2.5-1.8.7C418.1 231.9 416.8 235.1 415.9 237zM420.3 236.2c-.8-.9.3-2.3 1.3-1.3.9.9 2 .8 4.1.7 1.3-.1 1.4 1.6.2 1.9C423.3 237.9 421.1 237.1 420.3 236.2zM422.3 230c-.9.3-1.5-1.1-.3-1.5.9-.3 2.6-.5 4.3.1 1.2.4.7 2-.4 1.6C424.9 229.8 423.3 229.6 422.3 230zM437.5 234.6c-2.1 2.3-4 1.5-4.5-.8-.4-1.7.5-3.7 2-5.1-.1-.4-.3-.8-.3-1.2-.1-.4-.3-1.2-.3-1.6-.3-1.5 1.7-1.5 1.8-.2 0 .5.1.8.2 1.5 0 .1.1.3.1.4.1-.1.2-.1.4-.2.9-.5 2-.7 3.1-.8.1-.7.2-1.5.2-1.9 0-1.3 1.9-1.1 1.8.2 0 .6-.1 1.2-.3 1.9 1.7.4 3.1 1.4 3.6 3.3.9 3.3-1.3 5.8-4.4 6.9-1.4.5-2.3-1.2-.7-1.7 3.1-1 3.8-3 3.4-4.7-.3-1.4-1.2-2.1-2.3-2.4-.1.2-.1.3-.2.5-.4 1.1-1.1 2.4-1.8 3.6.1.1.1.1.2.2.4.3.4.8.1 1.1s-.7.5-1.2.2c-.1 0-.1-.1-.1-.1C437.9 234.1 437.7 234.4 437.5 234.6zM435.5 230.2c-.8 1-1.2 2.1-1 3 .3 1.4 1.1 1 1.6.5.3-.3.6-.6.9-1C436.4 232 435.9 231.1 435.5 230.2zM437.2 228.7c-.2.1-.4.2-.5.3.3.8.7 1.5 1.2 2.2.6-1 1.1-2 1.4-2.9 0-.1.1-.2.1-.3C438.7 228.2 437.9 228.4 437.2 228.7zM452.4 237.1c-1.4-3.5 0-8.9.3-11 .2-1.3 1.9-.9 1.7.1-.3 1.5-1.4 5.7-.9 7.4.1.2.1.2.2 0 0-.1.2-.4.3-.6.6-.9 1.7 0 1.3.7-.7 1.2-1 2-1.1 2.5-.1.5.1 1-.3 1.4S452.7 237.9 452.4 237.1zM457.2 235.8c-.7-.8.3-2.1 1.3-1.2 1 .9 3.1.6 4.5.3 1.5-.3 1.5 1.6.4 1.9C461.4 237.2 458.5 237.2 457.2 235.8zM458.2 228.6c-1 .3-1.6-1.3-.3-1.7 1.6-.4 3.5-.4 4.7-.1 1.3.3.9 2-.3 1.7C461.1 228.3 459.7 228.2 458.2 228.6zM477.1 231.1c-.3 0-.5-.3-.5-.5 0-.3.2-.5.5-.5h18c.3 0 .5.3.5.5 0 .3-.2.5-.5.5H477.1z"/><path fill="#FFF" d="M495.3,231.1c-0.3,0-0.5-0.3-0.5-0.5c0-0.3,0.2-0.5,0.5-0.5h18c0.3,0,0.5,0.3,0.5,0.5 c0,0.3-0.2,0.5-0.5,0.5H495.3z"/></g><g><path fill="#D52662" d="M21.7 299.4c0 1.6 0 3.7-.1 5.7 0 .4-.4.6-.7.6-.3 0-.7-.2-.7-.6 0 0 0 0 0 0 .1-2.6.1-7.2.1-10.2 0-1.3.9-1.3 2.4-1.3.6 0 1.1 0 1.4 0 .7 0 1.3.5 1.3 1.1 0 .5 0 1 0 1.4 0 1.7 0 2-2.8 2-.4 0-.7 0-1 0C21.7 298.5 21.7 299 21.7 299.4zM24.3 295.5c0-.2 0-.3 0-.4 0-.4-.2-.4-1.3-.4-1.2 0-1.3 0-1.3.5 0 .1 0 .2 0 .3H24.3zM21.7 296.3v.8c.2 0 .6 0 1.1 0 1.4 0 1.5-.1 1.5-.4 0-.1 0-.3 0-.4H21.7zM27.8 302.1v2.3c0 .4-.3.6-.6.6-.3 0-.6-.2-.6-.6v-2.3h-1.2c-.2 1.5-.7 2.5-2.3 3-.1 0-.2 0-.3 0-.4 0-.6-.3-.6-.6 0-.2.1-.5.4-.5 1.1-.2 1.4-1 1.5-2H23c-.4 0-.6-.3-.6-.5 0-.3.2-.5.6-.5h1.1v-.2c0-.4 0-.7 0-1h-.9c-.4 0-.6-.3-.6-.5s.2-.5.6-.5h5.2c.4 0 .6.3.6.5 0 .3-.2.5-.6.5h-.7v1.3h1.1c.4 0 .6.3.6.5 0 .3-.2.5-.6.5H27.8zM26.6 299.8h-1.2c0 .1 0 .1 0 .2 0 .2 0 .4 0 .6 0 .1 0 .1 0 .2v.3h1.2V299.8zM29.4 298.2c-1.8 0-2.9 0-2.9-1.2 0-.3 0-.6 0-.9 0-.5 0-1 0-1.4 0-.6.5-1.1 1.3-1.1.3 0 .9 0 1.4 0 .4 0 .8 0 1.1 0 1.1.1 1.5.6 1.5 1.2 0 .3 0 .7 0 1 0 2.1 0 4.4 0 6.2 0 .7 0 1.3 0 1.8 0 1-.5 1.9-2.1 1.9-1 0-1.5-.1-1.5-.8 0-.3.2-.6.6-.6 0 0 .1 0 .1 0 .3 0 .5.1.8.1.5 0 .8-.2.8-.9 0-.6 0-1.2 0-1.9 0-1 0-2.1 0-3 0-.2 0-.4 0-.6C30.1 298.2 29.8 298.2 29.4 298.2zM30.4 295.5c0-.8-.1-.8-1.3-.8-1.2 0-1.3 0-1.3.4 0 .1 0 .3 0 .4H30.4zM30.4 296.3h-2.7c0 .1 0 .3 0 .4 0 .4.3.4 1.6.4.5 0 .9 0 1.1 0V296.3zM35.3 305.1l.1-6.6c-.8 1-1.1 1.3-1.5 1.3-.4 0-.6-.3-.6-.6 0-.2.1-.3.2-.5 1.3-1.3 2.4-3 3.1-4.9.1-.3.4-.4.6-.4.4 0 .8.3.8.7 0 .3-.7 1.5-1.2 2.5l-.1 8.6c0 .4-.4.6-.7.6S35.3 305.5 35.3 305.1L35.3 305.1zM45.5 304.2c.3 0 .5.3.5.5 0 .3-.2.5-.5.5-.8 0-1.8 0-2.8 0-1 0-2 0-2.8 0-1.4 0-1.4-.9-1.4-1.7 0-.8 0-1.7 0-2.5-.5.5-.6.5-.8.5-.4 0-.6-.3-.6-.6 0-.2.1-.3.3-.5.9-.7 1.5-1.6 2.1-2.7.1-.3.4-.4.6-.4.3 0 .7.3.7.6 0 .1 0 .2-.4.9.4 0 .9 0 1.4 0 .2-.3.3-.6.5-1.1.1-.2.3-.3.5-.3.3 0 .7.2.7.5 0 .1-.2.5-.4.9.8 0 1.6 0 2.3 0 .3 0 .5.3.5.5 0 .2-.2.5-.5.5h-2.4v.8h1.9c.4 0 .5.2.5.4 0 .2-.2.4-.5.4h-1.9v.8h1.9c.4 0 .5.2.5.4 0 .2-.2.4-.5.4h-1.9v.9C43.7 304.2 44.7 304.2 45.5 304.2L45.5 304.2zM44.1 294.6c0-.4.3-.5.6-.5.3 0 .7.2.7.5 0 .2 0 .4 0 .5 0 1.1 0 2-1.5 2.1-.5 0-1.3 0-2.1 0-3.3 0-3.6 0-3.6-1.9 0-.2 0-.5 0-.7 0-.3.4-.5.7-.5.3 0 .6.2.6.5v0c0 1.1 0 1.1 0 1.1 0 .5.1.5 1.6.5v-2.4c0-.4.3-.6.7-.6.3 0 .7.2.7.6v2.3c.5 0 .9 0 1.2 0 .4 0 .5-.1.5-1.2C44.1 294.9 44.1 294.8 44.1 294.6L44.1 294.6zM41.6 301.6h-1.9c0 .3 0 .5 0 .8h1.9V301.6zM41.6 303.3h-1.9v.4c0 .3.1.5.5.5.4 0 .9 0 1.4 0V303.3zM41.6 299.9h-1.5c-.2 0-.4.1-.4.4 0 .1 0 .2 0 .3h1.9V299.9zM54.8 305.2c-.6 0-1.4 0-2.1 0-.7 0-1.5 0-2 0-1.2 0-1.8-.7-1.9-1.7 0-.9 0-2.4 0-4 0-1.4 0-2.7 0-3.7 0-.9.7-1.5 1.8-1.5.5 0 1.4 0 2.3 0 .7 0 1.5 0 1.9 0 .9 0 1.7.6 1.7 1.6 0 .9 0 2.3 0 3.7 0 1.5 0 3.1 0 3.8C56.5 304.4 55.8 305.1 54.8 305.2zM55.2 298.7c0-.9 0-1.7 0-2.3 0-1-.2-1-2.5-1-2.4 0-2.6 0-2.6 1 0 .6 0 1.4 0 2.3H55.2zM50.1 300c0 1.2 0 2.3 0 3 0 .9.2 1 2.6 1 .5 0 1.1 0 1.5 0 .8 0 1-.4 1.1-1 0-.7 0-1.8 0-2.9H50.1zM66.1 308.4c-.8 0-1.3-.6-1.3-1.4 0-.5.2-1.1.7-1.6 1.7-1.9 4.4-4.7 6.6-7.3 1-1.2 1.3-2.2 1.3-3.1 0-1.5-1.2-2.4-2.5-2.4-1 0-2.2.6-3 1.8-.3.5-.8.7-1.2.7-.7 0-1.4-.5-1.4-1.3 0-.8 1.8-3.7 5.6-3.7 2.8 0 5.4 1.7 5.4 4.6 0 1.4-.6 3-2 4.8-1.8 2.3-4.2 4.3-6.2 6.5 2 0 4.7-.2 6.7-.2 1 0 1.4.6 1.4 1.2 0 .7-.5 1.4-1.5 1.4H66.1zM79.1 302.4c-.1-1-.1-2-.1-3 0-.9 0-1.8.1-2.8.3-4.2 2.6-6.5 5.9-6.5 3.2 0 5.5 2.2 5.9 6.2.1 1.1.2 2.1.2 3.1 0 2.7-.2 9.2-6 9.2C81.7 308.7 79.4 306.5 79.1 302.4zM88 302.5c.1-1.1.2-2.2.2-3.4 0-1.8 0-6.6-3.3-6.6-1.7 0-3 1.5-3.2 4.1-.1.9-.1 1.8-.1 2.6 0 1 0 2 .2 3 .3 2.4 1.6 3.9 3.1 3.9C86.4 306.1 87.7 304.8 88 302.5zM94.2 308.4c-.8 0-1.3-.6-1.3-1.4 0-.5.2-1.1.7-1.6 1.7-1.9 4.4-4.7 6.6-7.3 1-1.2 1.3-2.2 1.3-3.1 0-1.5-1.2-2.4-2.5-2.4-1 0-2.2.6-3 1.8-.3.5-.8.7-1.2.7-.7 0-1.4-.5-1.4-1.3 0-.8 1.8-3.7 5.6-3.7 2.8 0 5.4 1.7 5.4 4.6 0 1.4-.6 3-2 4.8-1.8 2.3-4.2 4.3-6.2 6.5 2 0 4.7-.2 6.7-.2 1 0 1.4.6 1.4 1.2 0 .7-.5 1.4-1.5 1.4H94.2zM108.3 308.4c-.8 0-1.3-.6-1.3-1.4 0-.5.2-1.1.7-1.6 1.7-1.9 4.4-4.7 6.6-7.3 1-1.2 1.3-2.2 1.3-3.1 0-1.5-1.2-2.4-2.5-2.4-1 0-2.2.6-3 1.8-.3.5-.8.7-1.2.7-.7 0-1.4-.5-1.4-1.3 0-.8 1.8-3.7 5.6-3.7 2.8 0 5.4 1.7 5.4 4.6 0 1.4-.6 3-2 4.8-1.8 2.3-4.2 4.3-6.2 6.5 2 0 4.7-.2 6.7-.2 1 0 1.4.6 1.4 1.2 0 .7-.5 1.4-1.5 1.4H108.3zM123.3 308.5c-.6 0-1.7-.3-1.7-1.7 0-1.2 1-1.6 1.7-1.6.8 0 1.7.6 1.7 1.6C125 307.4 124.5 308.5 123.3 308.5zM133.2 308.5c-2.2 0-5.3-1.2-5.3-2.7 0-.7.6-1.4 1.2-1.4.3 0 .6.1.8.4 1 .9 2.2 1.2 3.3 1.2 2.5 0 3.8-1.8 3.8-3.6 0-.9-.5-3.2-3.3-3.2-.6 0-1.3.1-1.9.3-.3.1-.6.3-.9.3-.1 0-.2 0-.4 0-1.1 0-1.7-.5-1.7-1.6 0-.2.5-3.9.8-6 .2-1.3.8-1.9 2.3-1.9 0 0 .1 0 .2 0 .7 0 1.1 0 5 0 .8 0 1.3.6 1.3 1.3 0 .6-.4 1.2-1.2 1.2-.7 0-3.9 0-4.6 0-.5 0-.6.2-.7.6-.1.8-.5 2.8-.6 3.2 0 .1 0 .1 0 .2 0 .2 0 .3.2.3.1 0 .3-.1.6-.1.4-.1 1.1-.2 1.8-.2 4.3 0 5.8 2.9 5.8 5.5C139.8 305.9 137.2 308.5 133.2 308.5zM144.1 308.5c-.6 0-1.7-.3-1.7-1.7 0-1.2 1-1.6 1.7-1.6.8 0 1.7.6 1.7 1.6C145.8 307.4 145.3 308.5 144.1 308.5zM150.2 308.4c-.8 0-1.3-.6-1.3-1.4 0-.5.2-1.1.7-1.6 1.7-1.9 4.4-4.7 6.6-7.3 1-1.2 1.3-2.2 1.3-3.1 0-1.5-1.2-2.4-2.5-2.4-1 0-2.2.6-3 1.8-.3.5-.8.7-1.2.7-.7 0-1.4-.5-1.4-1.3 0-.8 1.8-3.7 5.6-3.7 2.8 0 5.4 1.7 5.4 4.6 0 1.4-.6 3-2 4.8-1.8 2.3-4.2 4.3-6.2 6.5 2 0 4.7-.2 6.7-.2 1 0 1.4.6 1.4 1.2 0 .7-.5 1.4-1.5 1.4H150.2zM175.2 303.1c0 4.1-3.3 5.6-6.4 5.6-3.4 0-6.2-2-6.2-5.6 0-2.6 1.7-4.1 3-4.7-1.2-.6-2.1-2-2.1-3.6 0-3.3 2.8-4.7 5.4-4.7 3.6 0 5.4 2.2 5.4 4.7 0 1.6-.9 3-2.1 3.6C174.1 299.1 175.2 300.9 175.2 303.1zM168.9 299.7c-2.4 0-3.7 1.6-3.7 3.4 0 2 1.8 3.2 3.7 3.2 1.9 0 3.7-1.2 3.7-3.2C172.6 301.9 172.1 299.7 168.9 299.7zM168.9 292.4c-1.7 0-2.9 1.1-2.9 2.4 0 1.7 1.2 2.5 2.8 2.5 2.8 0 2.9-2 2.9-2.5C171.7 292.9 169.8 292.4 168.9 292.4zM207.4 295.1c-.2-.2-.3-.3-.4-.3-.1 0-.2.1-.3.3-1.1 1.5-3 3.2-4.5 4.2-.2.1-.4.2-.6.2-.4 0-.8-.4-.8-.7 0-.2.1-.5.4-.7 1.6-.8 3.4-2.5 4.4-3.9.3-.4.8-.7 1.2-.7.4 0 .9.2 1.3.7 1.4 1.5 2.9 2.6 4.5 3.5.3.1.4.4.4.6 0 .4-.4.8-.8.8C211.6 299.1 209 296.8 207.4 295.1zM206.7 301.1c-.3.8-.6 1.8-1 2.7 1.3-.1 2.6-.3 3.8-.4-.3-.3-.7-.6-1-.8-.2-.1-.3-.3-.3-.5 0-.3.3-.6.7-.6.8 0 3.3 2.3 3.3 3.2 0 .4-.4.8-.8.8-.2 0-.4-.1-.6-.4-.1-.3-.3-.5-.5-.7-3.3.7-7.3 1-7.5 1-.4 0-.6-.4-.6-.7 0-.3.2-.6.6-.6.5 0 1 0 1.5-.1.4-.8.8-1.9 1-2.8l-2.6 0c-.4 0-.7-.3-.7-.6 0-.3.2-.7.7-.7h8.9c.4 0 .7.3.7.6 0 .3-.2.6-.7.6L206.7 301.1zM205.1 298.5c-.4 0-.7-.3-.7-.6 0-.3.2-.6.7-.6h4c.4 0 .7.3.7.6 0 .3-.2.6-.7.6H205.1zM221.8 299.9c-.1.2-.3.4-.4.7.8 0 1.8 0 2.7 0 .4 0 .7 0 1 0 .8 0 1.3.5 1.3 1.4 0 .6-.2 1.7-.4 2.3-.4.9-1.1 1.4-2.1 1.4-.9 0-1.3-.2-1.3-.7 0 0 0-.1 0-.1-.7.7-1.4 1-1.6 1-.4 0-.6-.3-.6-.6 0-.2.1-.4.3-.5 1.4-.7 2.2-1.6 2.8-3.1h-.8c-1.2 2.2-3.3 3.6-3.9 3.6-.4 0-.6-.3-.6-.6 0-.2.1-.4.3-.5 1.3-.5 2.2-1.4 2.9-2.5-.3 0-.6 0-.9 0-.8.8-2.2 1.9-2.6 1.9-.4 0-.6-.3-.6-.6 0-.2.1-.3.3-.4 1.3-.7 2.1-1.4 2.8-2.5h-1.3c0 .1.1.2.1.3 0 .2-.1.4-.4.6-1 .5-3.3 1.6-3.8 1.6-.4 0-.6-.3-.6-.6 0-.3.1-.5.5-.6.4-.1.9-.3 1.4-.4l0-3h-1c-.4 0-.6-.3-.6-.6 0-.3.2-.6.6-.6h1v-2.3c0-.4.3-.6.6-.6.3 0 .7.2.7.6v2.3h1c.4 0 .5.3.5.6s-.2.6-.5.6h-1v2.5c.3-.1.6-.3.9-.4.1 0 .1-.1.2-.1-.1-.1-.1-.2-.1-.3 0-.3.2-.6.6-.6h7.3c.4 0 .6.3.6.5 0 .3-.2.5-.6.5H221.8zM224 298.2c-.5 0-1 0-1.5 0-2.3 0-2.8-.1-2.8-1.7 0-.5 0-1.2.1-1.7 0-.6.5-1.2 1.4-1.2.5 0 1 0 1.4 0 .5 0 1 0 1.4 0 .7 0 1.3.6 1.3 1.1 0 .4.1 1 .1 1.5 0 .3 0 .5 0 .7C225.3 297.8 224.8 298.2 224 298.2zM224.1 296.4h-3.2c0 .8 0 .9 1.6.9 1.5 0 1.6 0 1.7-.5V296.4zM224.1 295.2c0-.5-.1-.5-1.5-.5-1.4 0-1.6 0-1.6.6l0 .2h3.2L224.1 295.2zM223.1 304.3C223.2 304.3 223.2 304.2 223.1 304.3c.1 0 .2 0 .2 0 .2 0 .4.1.5.1.5 0 1.1-.2 1.2-2.3 0 0 0-.1 0-.1 0-.3-.1-.4-.4-.5C224.4 302.5 223.8 303.5 223.1 304.3zM242.5 308.4l0-4.3c-3.1 2.5-7.6 4.5-8.4 4.5-.7 0-1.2-.5-1.2-1.1 0-.4.2-.8.8-1 3.1-1.1 5.4-2.2 7.9-4.2-.7 0-1.4 0-2.1 0-2.6 0-3-1.3-3.1-2.2 0-.6-.1-1.3-.1-2 0-.8 0-1.6.1-2.3 0-1 .7-2.1 2.6-2.1.9 0 2.1 0 3.4 0v-1.4h-7.3c-.7 0-1-.5-1-.9 0-.5.4-1 1-1h7.2v-1.5c0-.7.6-1 1.1-1s1.2.3 1.2 1v1.5h7.3c.7 0 1 .5 1 1 0 .5-.3 1-1 1h-7.3v1.4c1.3 0 2.6 0 3.7 0 1.4 0 2.4 1 2.5 2 0 .6.1 1.3.1 2 0 .8 0 1.7-.1 2.4 0 1.2-1 2.2-2.6 2.2-.2 0-.3 0-.5 0-.7 0-1.5 0-2.3 0 2.6 1.9 5.2 3 8 3.9.6.2.8.6.8 1 0 .6-.5 1.3-1.4 1.3-.6 0-4.4-1.5-8.3-4.6 0 1.3 0 2.3 0 4.4 0 .6-.6 1-1.2 1C243.1 309.4 242.5 309.1 242.5 308.4L242.5 308.4zM242.6 295.4c-1.1 0-2.1 0-2.8 0-1.2 0-1.2.8-1.2 1.7h4V295.4zM242.6 298.9h-4c0 1.2.1 1.7 1.2 1.8.8 0 1.8 0 2.8 0L242.6 298.9zM244.8 298.9v1.8c1 0 2 0 3 0 1.2 0 1.2-.8 1.2-1.8H244.8zM249 297.2c0-.3 0-.5 0-.8 0-1-.6-1-4.1-1v1.8H249zM258.4 308.2c-.8 0-1.3-.6-1.3-1.3 0-.4.3-.9.9-1 1.7-.5 3.2-1.4 4.4-2.8.2-.2.5-.4.7-.4.6 0 1.2.6 1.2 1.2 0 .2-.1.5-.3.7C262.4 306.5 259.2 308.2 258.4 308.2zM267.5 293.2l-8.8 0c-.8 0-1.1-.6-1.1-1.1 0-.6.4-1.2 1.1-1.2l7.6 0v-1.9c0-.7.6-1.1 1.2-1.1s1.2.4 1.2 1.1v1.9l7.5 0c.7 0 1.1.6 1.1 1.1 0 .6-.4 1.1-1.1 1.1L267.5 293.2zM268.9 306.3C268.9 306.3 268.9 306.3 268.9 306.3c0 1.8-1.3 3-3.8 3-1 0-2.7 0-2.7-1.3 0-.6.4-1.2 1.1-1.2.1 0 .2 0 .3 0 .5.1 1 .2 1.4.2.9 0 1.3-.4 1.3-1.2V302c-1 0-2 0-3-.1-1.8-.1-2.7-1-2.7-2.3 0-.4 0-.9 0-1.3 0-.4 0-.9 0-1.2.1-1.1.8-2.2 2.7-2.3 1 0 2.2 0 3.5 0 1.6 0 3.3 0 4.8 0 1.5 0 2.5 1 2.6 2.1 0 .4 0 .8 0 1.3 0 .5 0 1 0 1.4-.1 1.2-1.1 2.3-2.7 2.4-1 0-1.9.1-2.9.1v2.1L268.9 306.3zM272.1 298.4c0-1.4-.2-1.7-1.1-1.7-.9 0-1.9 0-3 0-1.3 0-2.6 0-3.7 0-.9 0-1.1.7-1.1 1.6 0 .2 0 .5 0 .7.1 1 .3 1 4.4 1 1.2 0 2.4 0 3.5 0C272.1 299.9 272.1 299.2 272.1 298.4zM275.2 307.7c-1-1.1-2.7-2.1-4.1-2.7-.5-.2-.6-.6-.6-.9 0-.6.4-1.1 1.1-1.1.7 0 3.8 1.4 5.3 2.8.3.3.5.7.5 1 0 .7-.6 1.4-1.2 1.4C275.8 308.2 275.5 308 275.2 307.7zM290.8 308c-1.3-1.1-2.6-1.8-3.8-2.4-1.2-.6-2.4-1-3.4-1.4-1.5-.6-.8-2.8 1.1-2.3 1.9.5 5.8 1.9 7.9 3.6.7.6.6 1.6.2 2.2S291.5 308.5 290.8 308zM288.5 300c-1.2-.7-2.7-1.2-4-1.5-1.9-.4-1.1-2.6.5-2.3 1.3.2 3.4.8 4.7 1.5.8.5.9 1.3.6 1.9C290 300.1 289.3 300.5 288.5 300zM290 294.7c-1.6-.8-3.9-1.5-5.5-1.7-1.7-.2-1-2.5.9-2.3 1.4.2 3.6.5 5.6 1.5.9.4 1.1 1.3.8 1.9C291.5 294.8 290.8 295.1 290 294.7zM301.6 301.7c-.3-.7-.8-1.4-1.4-1.8-1-.8.4-2.4 1.5-1.3.6.6 1.3 1.3 1.8 2.1C304.3 302 302.3 303.2 301.6 301.7zM301.1 308.2c-.2-.5-.1-1.2.6-1.4 4-1.7 6.6-5.1 7.6-9.1.4-1.6 2.7-.8 2.3.6-1.4 4.5-4 8.2-8.8 10.3C302 309.1 301.4 308.8 301.1 308.2zM304.8 300.4c-.2-.7-.7-1.5-1.1-2-.9-1 .7-2.3 1.7-1.1.6.7 1.1 1.5 1.4 2.4C307.5 301.1 305.3 302 304.8 300.4zM322.6 307.4c0 1.9-2.7 2-2.6.1.2-3.9.2-13.3.1-16.8 0-1.6 2.5-1.6 2.5 0 0 1.2 0 3.3-.1 5.6.1 0 .3 0 .4 0 1.3.2 4.5 1 5.8 2.1 1.2 1.1-.1 3.1-1.5 2.1-1-.8-3.4-1.7-4.7-1.9C322.6 302 322.6 305.5 322.6 307.4zM326.1 293.3c-1.3-.5-.4-2 .8-1.6.7.2 1.9.8 2.5 1.3 1 1-.3 2.5-1.2 1.6C327.9 294.3 326.6 293.5 326.1 293.3zM328.3 291.1c-1.3-.4-.5-2 .7-1.7.7.2 2 .7 2.6 1.2 1.1.9-.3 2.6-1.2 1.7C330 292 328.8 291.3 328.3 291.1zM336.9 308.4c-1.9.7-2.9-1.5-1-2.1 3.3-1.1 6-3.2 8-5.5-.9-.5-1.8-.9-2.5-1.2-1.3-.4-.7-2.4 1-1.9.9.2 2 .7 3 1.2.8-1.2 1.5-2.3 2-3.4.5-1 .4-1.1-.3-1.1-1 0-3.4.3-4.2.4-1.7 2.2-3.9 4.7-5.5 5.9-1.6 1.1-3-1-1.4-2 2.3-1.4 5.5-5.5 6.4-7.6.8-2 3.3-.6 2.5.8-.1.2-.3.4-.4.6 1.2-.1 2.5-.2 3.6-.3 2.5-.1 2.9 1.7 2 3.4-.9 1.6-1.8 3.1-2.7 4.5.7.5 1.3 1 1.7 1.5.6.6.4 1.4 0 1.8-.4.4-1.2.5-1.7-.1-.4-.4-.9-.8-1.4-1.3C343.7 304.8 341 306.8 336.9 308.4zM364.9 293.9c1.1 0 2.2 0 3.1 0 1.7 0 3 1 2.9 2.7-.3 5.1-3.4 10.2-10.5 12-1.7.4-2.4-2-.6-2.4 5.6-1.1 8.3-5.3 8.5-9 0-.8-.3-1.2-1.1-1.3-2-.1-5.7-.1-7.1 0-.8 0-1.1.7-1.1 1.2 0 .6 0 2 .1 2.8 0 1.5-2.5 1.6-2.5.1 0-.7 0-2.3 0-3.5 0-2.1 2-2.6 3-2.7.9 0 2 0 3 0 0-.9 0-2.3 0-2.9 0-.8.6-1.2 1.2-1.2s1.2.4 1.2 1.1V293.9zM380.9 297.6c-.9-.8-2.4-1.5-3.6-1.8-1.4-.3-.8-2.8 1-2.3 1.3.4 3.1 1 4.2 1.8.7.5.7 1.4.3 2C382.4 297.9 381.6 298.2 380.9 297.6zM379.4 307.5c-2 .6-2.8-2.1-.8-2.6 4.8-1.2 9.7-6.2 12.1-10.9.8-1.5 3.2-.5 2.2 1.4C389.9 300.8 384.9 305.7 379.4 307.5z"/></g></svg>