<svg version="1.1" xmlns="http://www.w3.org/2000/svg" xmlns:xlink="http://www.w3.org/1999/xlink" x="0px" y="0px" width="237px" height="75.1px" viewBox="0 0 237 75.1" xml:space="preserve"><g><path fill="#F5EDED" d="M66.4 0v2.1C64 2.2 62.2 2.6 61 3.3c-1.2.7-2 1.8-2.3 3.4-.4 1.6-.6 3.8-.6 6.6V74c-.6 0-1.1 0-1.7 0-.6 0-1.1 0-1.8 0L10.6 10v49.9c0 2.9.2 5.2.6 6.8.4 1.6 1.3 2.8 2.7 3.5 1.4.7 3.5 1.1 6.3 1.4v2.1c-1.3-.1-3-.2-5-.3-2 0-4-.1-5.8-.1-1.7 0-3.5 0-5.2.1-1.7 0-3.2.1-4.3.3v-2.1c2.3-.2 4-.6 5.2-1.3 1.2-.7 2-1.8 2.4-3.4.4-1.6.6-3.8.6-6.6V11c0-2.6-.2-4.5-.6-5.7-.4-1.2-1.2-2-2.4-2.5C4 2.4 2.3 2.1 0 2.1V0c1.1.1 2.5.1 4.3.2C6 .3 7.7.3 9.5.3c1.5 0 3 0 4.5-.1 1.5-.1 2.7-.1 3.8-.2l38 54.3V13.7c0-3-.2-5.3-.7-6.9-.5-1.6-1.4-2.8-2.8-3.5-1.4-.7-3.5-1.2-6.2-1.3V0c1.2.1 2.9.1 5 .2 2.1.1 4 .1 5.8.1 1.7 0 3.5 0 5.2-.1C63.8.1 65.2.1 66.4 0zM94.1 18.5c6.1 0 10.9 1.8 14.4 5.5 3.5 3.7 5.2 9.5 5.2 17.5H77.8l-.2-2h25.1c.1-3.4-.2-6.5-.8-9.4-.6-2.9-1.6-5.2-2.9-6.9-1.3-1.7-3.1-2.6-5.2-2.6-3 0-5.6 1.6-7.7 4.7-2.2 3.2-3.5 8.2-4 15.1l.3.5c-.1 1-.1 2-.2 3.2C82 45.3 82 46.4 82 47.5c0 4.8.7 8.8 2.2 12.1 1.5 3.3 3.4 5.7 5.7 7.3 2.4 1.6 4.7 2.4 7.2 2.4 1.9 0 3.7-.3 5.5-.9 1.8-.6 3.4-1.6 5-3 1.6-1.4 3-3.4 4.3-5.9l2.1.8c-.8 2.4-2.1 4.7-3.8 7-1.7 2.3-4 4.1-6.7 5.6-2.7 1.4-5.9 2.1-9.5 2.1-4.9 0-9.1-1.1-12.7-3.3-3.6-2.2-6.4-5.3-8.3-9.4C71 58.3 70 53.5 70 47.8c0-6.2 1-11.4 3-15.8 2-4.4 4.8-7.7 8.5-10C85.1 19.7 89.3 18.5 94.1 18.5zM139.9 20v2.2c-1.7 0-3.1.1-4.4.4-1.3.2-2.1.9-2.5 1.9-.4 1-.1 2.9.8 5.5l10.5 31-.9.4 14.2-41.7 2.1.9-18 53.5c-.6 0-1.1 0-1.7 0-.6 0-1.1 0-1.8 0L121.4 28c-1.1-2.8-2.2-4.4-3.3-5-1.1-.6-2-.8-2.8-.8V20c1.7.2 3.4.4 5.1.5 1.8.1 3.7.2 5.9.2 2.1 0 4.4-.1 6.8-.2C135.6 20.2 137.9 20.1 139.9 20zM196.1 20V22c-1.3.2-2.6.9-3.7 2-1.2 1.1-2.2 3.1-3.1 5.9L174.6 74c-.6 0-1.1 0-1.7 0-.6 0-1.2 0-1.7 0L155 32.3l2.6-12.7c.7.1 1.4.1 2 .1.7 0 1.3-.1 2-.1l15.6 42.6-.9.1 9.2-28.3c.9-2.8 1.2-5.1 1-6.8-.2-1.7-.9-2.9-2.2-3.7s-3.1-1.4-5.6-1.6V20c1.2.1 2.4.1 3.4.2 1 0 2 .1 3 .1 1 0 2 .1 3.1.1 1.5 0 3 0 4.3-.1C193.9 20.1 195.1 20 196.1 20zM216.7 18.5c2.8 0 5.2.4 7.2 1.3 2 .9 3.5 1.6 4.4 2.3 2.3 1.8 3.7.6 4.3-3.5h2.3c-.1 1.9-.2 4.3-.3 7-.1 2.7-.1 6.4-.1 10.9h-2.3c-.4-2.6-1.1-5.1-2.1-7.5-1-2.4-2.5-4.4-4.4-6-1.9-1.6-4.4-2.4-7.4-2.4-2.3 0-4.2.6-5.7 1.9-1.5 1.3-2.3 3.2-2.3 5.7 0 2.1.6 3.9 1.9 5.4 1.2 1.5 2.9 2.9 4.8 4.3 2 1.3 4.1 2.7 6.4 4.3 2.6 1.7 4.9 3.5 6.9 5.1 2 1.7 3.7 3.6 4.9 5.7 1.2 2.1 1.8 4.5 1.8 7.3 0 3.2-.8 5.9-2.5 8.1-1.7 2.2-3.9 3.9-6.7 5-2.8 1.1-5.8 1.7-9.2 1.7-1.7 0-3.2-.2-4.7-.5s-2.8-.7-4.1-1.2c-.8-.4-1.5-.8-2.2-1.3-.7-.5-1.4-.9-2.1-1.3-.7-.5-1.3-.4-1.9.2-.6.6-1 1.7-1.2 3.3h-2.3c.1-2.2.2-4.9.3-8.1.1-3.2.1-7.4.1-12.7h2.3c.5 3.8 1.2 7.2 2.2 10.1 1 2.9 2.4 5.2 4.3 6.8 1.9 1.6 4.5 2.4 7.9 2.4 1.3 0 2.6-.3 4-.9 1.3-.6 2.4-1.5 3.3-2.9.9-1.3 1.3-3.1 1.3-5.3 0-3.1-1.1-5.6-3.2-7.5-2.1-2-4.8-4.1-8.2-6.3-2.4-1.7-4.6-3.3-6.7-4.9-2.1-1.6-3.8-3.5-5.1-5.5-1.3-2-2-4.5-2-7.3 0-3.1.7-5.7 2.2-7.7 1.5-2 3.5-3.5 6-4.5C211.2 19 213.9 18.5 216.7 18.5z"/></g></svg>