<svg xmlns="http://www.w3.org/2000/svg" xmlns:xlink="http://www.w3.org/1999/xlink" width="3106" height="9182.2" viewBox="0 0 3106 9182.2"><defs><style>.a,.b{fill:#e2e2e2;}.b{stroke:#707070;}.c{clip-path:url(#a);}.d{clip-path:url(#b);}.e{clip-path:url(#d);}.f{clip-path:url(#e);}.g{clip-path:url(#f);}.h{clip-path:url(#g);}.i{clip-path:url(#h);}.j{clip-path:url(#n);}</style><clipPath id="a"><rect class="a" width="1524" height="1236.2" transform="translate(3266 2281.8)"/></clipPath><clipPath id="b"><rect class="a" width="1946" height="2850.2" transform="translate(3266 2281.8)"/></clipPath><clipPath id="d"><rect class="a" width="1666" height="2406.2" transform="translate(3266 2281.8)"/></clipPath><clipPath id="e"><rect class="b" width="1806" height="2162" transform="translate(3405 2148)"/></clipPath><clipPath id="f"><rect class="b" width="1347" height="1231" transform="translate(3405 2148)"/></clipPath><clipPath id="g"><rect class="b" width="1813" height="1335" transform="translate(3289 2124)"/></clipPath><clipPath id="h"><rect class="b" width="2212" height="2087" transform="translate(3289 2124)"/></clipPath><clipPath id="n"><rect class="b" width="2656" height="4515" transform="translate(4110 2124)"/></clipPath></defs><g transform="translate(-6075 1828.2)"><g transform="translate(3320 -3846)"><g class="c" transform="translate(888 4801)"><rect class="a" width="207" height="1722" transform="matrix(0.891, -0.454, 0.454, 0.891, 3391.959, 2269.801)"/></g><g class="d" transform="translate(163 6068)"><rect class="a" width="207" height="3602" transform="matrix(0.891, -0.454, 0.454, 0.891, 3391.959, 2269.801)"/></g><g class="c" transform="translate(148 3565)"><rect class="a" width="207" height="1722" transform="matrix(0.891, -0.454, 0.454, 0.891, 3391.959, 2269.801)"/></g><g class="e" transform="translate(148 4636)"><rect class="a" width="207" height="3223" transform="matrix(0.891, -0.454, 0.454, 0.891, 3391.959, 2269.801)"/></g><g class="f" transform="translate(-295 2708)"><rect class="a" width="121" height="2883" transform="matrix(0.891, -0.454, 0.454, 0.891, 3794.601, 1821.548)"/></g><g class="g" transform="translate(376 2495)"><rect class="a" width="121" height="2104" transform="matrix(0.891, -0.454, 0.454, 0.891, 3794.601, 1821.548)"/></g><g class="h" transform="translate(638 2248)"><rect class="a" width="35" height="2104" transform="matrix(0.891, -0.454, 0.454, 0.891, 4007.601, 1821.548)"/></g><g class="i" transform="translate(-126 3850)"><rect class="a" width="39" height="3585" transform="matrix(0.891, -0.454, 0.454, 0.891, 4007.601, 1821.548)"/></g><g class="d" transform="translate(-156 1333)"><rect class="a" width="207" height="3602" transform="matrix(0.891, -0.454, 0.454, 0.891, 3391.959, 2269.801)"/></g><g class="e" transform="translate(-61 -264)"><rect class="a" width="207" height="3223" transform="matrix(0.891, -0.454, 0.454, 0.891, 3391.959, 2269.801)"/></g><g class="g" transform="translate(-138 -102)"><rect class="a" width="121" height="2104" transform="matrix(0.891, -0.454, 0.454, 0.891, 3794.601, 1821.548)"/></g><g class="g" transform="translate(-578 2595)"><rect class="a" width="121" height="2104" transform="matrix(0.891, -0.454, 0.454, 0.891, 3794.601, 1821.548)"/></g><g class="h" transform="translate(-22 -106)"><rect class="a" width="35" height="2104" transform="matrix(0.891, -0.454, 0.454, 0.891, 4007.601, 1821.548)"/></g><g class="j" transform="translate(-905 977)"><rect class="a" width="47" height="5476" transform="matrix(0.891, -0.454, 0.454, 0.891, 4007.601, 1821.548)"/></g><g class="j" transform="translate(-1355 4284)"><rect class="a" width="47" height="5476" transform="matrix(0.891, -0.454, 0.454, 0.891, 4007.601, 1821.548)"/></g></g></g></svg>