<svg xmlns="http://www.w3.org/2000/svg" viewBox="0 0 632.63 54.2"><defs><style>.b5ff1d1f-63df-4f80-aada-e15b0a0d88e9{fill:#ffa000;}</style></defs><title>ttl_award</title><g id="b0a96fe1-38a9-42aa-bbe5-640b86451b8f" data-name="レイヤー 2"><g id="af4f9126-6cea-4b4c-833d-7f707802ca22" data-name="object"><rect class="b5ff1d1f-63df-4f80-aada-e15b0a0d88e9" x="2.63" y="49.2" width="630" height="5"/><path class="b5ff1d1f-63df-4f80-aada-e15b0a0d88e9" d="M15.66,1.48c.47.07.75.14.75.46s-.39.51-.61.58c-.11,1.08-.18,2.34-.25,3.82a26.84,26.84,0,0,0,5.65-1.8c0,1.33-.07,3-.07,3.81a15.69,15.69,0,0,0,.07,1.94,26.37,26.37,0,0,1-5.9,1.62c0,.4-.07,2.13-.07,2.45a18.18,18.18,0,0,1,6.12-1.08c5.43,0,10,3.78,10,9.76,0,6.69-5,9-8.53,9-5.44,0-5.62-4.82-5.66-6.33.76-.26,4-1.34,4.47-1.52,0,.72,0,2.41,1.69,2.41,1.37,0,2.27-1.36,2.27-3.16a4.53,4.53,0,0,0-4.79-4.75,16.64,16.64,0,0,0-5.58,1.26,104.83,104.83,0,0,0,.47,10.83L10.73,33a49.5,49.5,0,0,0-6.3-5.15c-.9,1-1.33,1.48-1.84,2.09L0,23.72c1.66-.9,8.21-5.87,9.65-6.77,0-1.26,0-1.54,0-4.32-2.12.11-4.64.15-6.69.15V7.06a16,16,0,0,0,2.84.21c1.4,0,3.42-.14,3.85-.14,0-2.7,0-3.1-.14-6.7ZM7.6,24.69a3.85,3.85,0,0,0,1.61.94c.54,0,.51-1.26.47-2.63C9.25,23.36,8.5,23.9,7.6,24.69ZM26.38,5.54a30.68,30.68,0,0,1,7.85,5.76,25.32,25.32,0,0,0-3.49,4.36A20.86,20.86,0,0,0,23.11,10Z"/><path class="b5ff1d1f-63df-4f80-aada-e15b0a0d88e9" d="M60.15,2.23c.4.15.62.25.62.58,0,.5-.62.61-1.05.65-.39.61-.83,1.33-2.12,3.78,1.91.18,3.74.25,4.5.25s1.26,0,1.76-.07a26.07,26.07,0,0,0-1.58,5.68,44.3,44.3,0,0,1-6.81-.32c-.43,1-.93,2.27-1.29,3.17a56.5,56.5,0,0,0,8,.54c-.68,1.94-1.26,4.21-1.55,5.32-2.19-.14-4.68-.36-8.06-.86a11.62,11.62,0,0,0-.4,2.92c0,4.39,4.07,4.39,5.83,4.39,1.55,0,7,0,7-5.22a13.69,13.69,0,0,0-1.84-5.62,17.49,17.49,0,0,0,5.44-1.94c.86,1.58,2.48,5,2.48,8.17,0,7.92-8.35,9.75-13.07,9.75-7.23,0-11.23-3.74-11.23-9A18.1,18.1,0,0,1,47.3,20a29.66,29.66,0,0,1-4.68-1.33l1.23-5.33a32.12,32.12,0,0,0,4.86,1.55c.14-.47.39-1.26,1.08-3.2a31.38,31.38,0,0,1-5.37-1.8L45.5,4.32a45.91,45.91,0,0,0,6.37,2C52.23,5.33,54,.94,54.32,0Z"/><path class="b5ff1d1f-63df-4f80-aada-e15b0a0d88e9" d="M97.13,1.73c.28.07.68.21.68.57s-.18.47-.79.51c-.79,2.45-.87,2.7-1,3.24A54.38,54.38,0,0,0,107.71,3.2c.18,1.19.65,3.93,1,5.37A62.78,62.78,0,0,1,94,11.63c-.86,2.37-1.15,3.09-1.87,4.86A21.34,21.34,0,0,1,101.48,14c9.61,0,10.12,6.77,10.12,8.57a8.89,8.89,0,0,1-3.86,7.27c-1.9,1.29-5.5,3.45-15.47,3.45a33.52,33.52,0,0,1-3.35-.18,25.17,25.17,0,0,0-1.33-5.36,52.36,52.36,0,0,0,5.36.32c.83,0,7,0,10.69-2.19a3.65,3.65,0,0,0,1.94-3.39c0-2.08-1.07-3.85-4.39-3.85-3.16,0-8.24,1.62-12.45,6L83.56,22.1A50.5,50.5,0,0,0,88.34,12c-3.13,0-5.61-.11-7-.22l-.07-5.9A33.37,33.37,0,0,0,90,6.66,48.88,48.88,0,0,0,91.37.29Z"/><path class="b5ff1d1f-63df-4f80-aada-e15b0a0d88e9" d="M135.47,6.48c.43.5,2.23,2.73,2.59,3.17A15.47,15.47,0,0,1,142,9a6.84,6.84,0,0,1,7.16,7c0,6.74-7.31,7.35-11,7.64a24.47,24.47,0,0,0-1.65-4.83c.61,0,1,0,1.65,0,1.23,0,5.83,0,5.83-3.17,0-.61-.18-2-2.3-2-.32,0-.61,0-.79,0,.64,1,1,1.73,1.33,2.27-1.33.54-3.42,1.4-4.72,2a20.23,20.23,0,0,0-1.33-2.77c-1.33.61-2.12,1-2.63,1.33a70.19,70.19,0,0,1,5,13.89,47.93,47.93,0,0,0-5.11,2.49c-.65-5.08-3.24-11.52-4.21-13.83-1,.76-1.33,1-4.07,3.35L122,17.39a46.86,46.86,0,0,0,5.11-2.56,27.77,27.77,0,0,0-3.23-4.72l4.89-2a1.94,1.94,0,0,1,.76-.22.39.39,0,0,1,.43.4,1,1,0,0,1-.33.57c.54,1,1.41,2.6,2,3.57,1.29-.65,1.62-.79,2-1-.58-.79-.76-1-2.27-2.95Z"/><path class="b5ff1d1f-63df-4f80-aada-e15b0a0d88e9" d="M159.05,14.25V9.07h13.64V.18l5.65.29c.22,0,.69,0,.69.47,0,.28-.36.46-.69.57V9.07h13.39v5.18H178.45a26.1,26.1,0,0,0,14,15.55c-3,2.34-3.71,3.5-4.18,4.29-3.64-1.62-9.36-6.63-12.63-13.25a27.66,27.66,0,0,1-14,13.39,13,13,0,0,0-3.82-4.79c3-1.18,12-4.6,14.4-15.19Z"/><path class="b5ff1d1f-63df-4f80-aada-e15b0a0d88e9" d="M219.31,27.93h-7.6l2.2,2.16a.69.69,0,0,1,.18.36c0,.29-.22.4-.5.4a1.89,1.89,0,0,1-.9-.25,32.87,32.87,0,0,1-10.95,3.7,16.76,16.76,0,0,0-3.38-4.6,27.62,27.62,0,0,0,9.25-1.77H202V15.26h26.06V27.93h-5.83a33.08,33.08,0,0,0,9.25,1.95,18.28,18.28,0,0,0-3.13,4.35,35.11,35.11,0,0,1-11.88-4.14ZM212.36,3.71V.18l5.94.18a.4.4,0,0,1,.43.36c0,.32-.28.47-.93.79v2.2h3.38a8.61,8.61,0,0,0-1.08-.4A12.64,12.64,0,0,0,221.76,0l5.47,2c.18.07.36.18.36.4,0,.5-.76.5-1,.5a4.44,4.44,0,0,1-.36.76h5.26v8.67h-5.26v-5H203.87v5.14h-5.11V3.71h5.36A11.93,11.93,0,0,0,203,2l5-2a16.62,16.62,0,0,1,2.15,3.1,17.65,17.65,0,0,0-1.87.61Zm13.1,4.71v6H204.62v-6ZM222.77,19v-.94H207.43V19Zm-15.34,2.08V22h15.34v-.94Zm0,3v1h15.34v-1Zm2.45-13.32V12h10.47V10.8Z"/><path class="b5ff1d1f-63df-4f80-aada-e15b0a0d88e9" d="M247.46,3.38c.69.26,1,.36,1,.62s-.73.39-1,.43a41.74,41.74,0,0,0-2.34,14.86,12.39,12.39,0,0,0,.26,2.88c.21-.39,1.08-2,1.51-2.7a10.56,10.56,0,0,0,2.77,3c-.9,1.69-2.56,5.86-2.38,8.6l-5.11,1.37A38.07,38.07,0,0,1,239.62,18c0-6.52,1-11,2.3-16.7ZM257,20.3a9.63,9.63,0,0,0-.54,2.56c0,1.58.86,1.83,5,1.83a36.53,36.53,0,0,0,8.89-1,23.8,23.8,0,0,0-.54,5.87,76.34,76.34,0,0,1-9.11.47c-5.36,0-9.5-.94-9.5-5.33a13.3,13.3,0,0,1,1.19-5.29ZM252.61,4.93c1.08.07,2.52.18,4.68.18A42,42,0,0,0,267.87,4a53.9,53.9,0,0,0,.51,5.47,53.54,53.54,0,0,1-11.09,1.08c-2.12,0-3.53-.11-4.68-.18Z"/><path class="b5ff1d1f-63df-4f80-aada-e15b0a0d88e9" d="M277.16,7.74a29.32,29.32,0,0,0,4.54-.86c10.15-2.67,12.6-3.28,16.56-3.28,8.64,0,12.42,5.72,12.42,12.06,0,13.57-16.38,14.58-22.18,14.86a24.12,24.12,0,0,0-1.83-5.75c6.48,0,17.92-.19,17.92-9,0-1.87-.65-6.88-7-6.88-5.36,0-14.25,3.64-18.14,5.84Z"/><path class="b5ff1d1f-63df-4f80-aada-e15b0a0d88e9" d="M325.8,4.18c.32.1.72.21.72.54s-.43.54-.76.57a32.44,32.44,0,0,0-2,10.84c0,4.39,1.37,7.45,2.41,7.45s2.52-3.17,3.49-5.44A16.37,16.37,0,0,0,333.43,22c-2.88,7-6.16,9.43-7.92,9.43-2,0-7.34-4.29-7.34-15.41a64.3,64.3,0,0,1,1.76-13.46Zm17.39.25a35.91,35.91,0,0,1,7.27,18.1c-2.13.83-4.68,2-5.87,2.67a32.72,32.72,0,0,0-6-17.82Z"/><path class="b5ff1d1f-63df-4f80-aada-e15b0a0d88e9" d="M389.48,7c-10.29-.11-16.41,8.93-16.41,13.61,0,6,8.13,6.4,10,6.51a31.36,31.36,0,0,0-2.7,6.48c-6.3-1.48-13.25-4.82-13.25-12.56,0-6.63,5-10.77,6.37-11.92a123,123,0,0,0-14.86,2.13l-.76-6.77c.79,0,1.55.11,2.7.11,5.29,0,19.66-1,27.83-3.57Z"/></g></g></svg>