<svg height="86.062" viewBox="0 0 183.062 86.062" width="183.062" xmlns="http://www.w3.org/2000/svg"><g fill="#fff" fill-rule="evenodd" transform="translate(-548.969 -917.438)"><path d="m554.444 918.286-5.49 43.483h9.7l2.771-26.941 7.749 26.941h9.185l7.749-26.941 2.771 26.941h9.7l-5.44-43.483h-10.779l-8.57 29.043-8.621-29.043zm68.3-.862c-12.162 0-21.4 9.645-21.4 22.361 0 13.2 8.98 22.846 21.347 22.846 12.316 0 21.4-9.645 21.4-22.576.002-12.986-9.081-22.631-21.345-22.631zm0 9.16c6.671 0 11.854 5.873 11.854 13.417s-5.183 13.416-11.854 13.416c-6.62 0-11.854-5.873-11.854-13.309.002-7.708 5.133-13.524 11.856-13.524zm20.867-8.3 14.676 43.483h12.264l14.677-43.483h-10.467l-10.361 33.516-10.314-33.515h-10.473zm43.833 0v43.483h9.6v-43.481h-9.6zm26.127 16.6v-7.436h17.859v-9.16h-27.4v43.483h28.018v-9.16h-18.475v-8.783h16.318v-8.944h-16.318z"/><path d="m597.06 997.592-.846-.027-.871-.027.563 4.872c6.1-.27 11.379-.65 16.428-1.21.385 1.02.538 1.48.82 2.31l4.46-2.04a42.534 42.534 0 0 0 -6.177-11.978l-3.895 1.884a44.832 44.832 0 0 1 3.049 5.6l.077.162c-1.64.134-5.92.376-8.354.43l.435-1.184a125.109 125.109 0 0 0 4.665-15.392l-4.814-.892c-1.332 5.974-2.972 12-4.715 17.491h-.82zm22.366-8.315v4.9h21.912v-4.9zm30.542-8.4h-4.613v17.142c.077 3.067 1.742 4.5 5.177 4.437h9.149a24.408 24.408 0 0 0 4.434-.4l-.282-4.871a22.337 22.337 0 0 1 -5.664.645h-6.715c-1.307 0-1.486-.161-1.486-1.291v-4.2a59 59 0 0 0 11.917-4.333l-2.153-4.386a41.506 41.506 0 0 1 -9.764 4.09v-6.835zm9.3-.619a22.055 22.055 0 0 1 2.486 5.167l2.127-1.184a23.929 23.929 0 0 0 -2.588-5.059zm3.511-1.022a23.067 23.067 0 0 1 2.46 5.166l2.127-1.157a23.906 23.906 0 0 0 -2.562-5.086zm4.811 10.037v4.9h21.912v-4.9h-21.909z"/></g></svg>