<svg height="82.312" viewBox="0 0 440.813 82.312" width="440.813" xmlns="http://www.w3.org/2000/svg"><path d="m469.48 654.733 2.188 15.325h18.4c4.7-.17 7.132-3.235 7.051-8.854v-25.882h16.047v-14.3h-16.049v-1.788c5.592-4.257 10.86-9.621 13.7-13.963v-13.88h-40.932v13.877h23.585c-.892 1.7-2.594 3.832-5.593 6.982h-4.457v8.769h-15.561v14.3h15.561v16.261c0 1.873-.73 2.81-2.27 2.81h-11.427l1.459-2.044a80.527 80.527 0 0 0 -8.591-8.6c3.728-9.705 5.835-24.434 6.159-41.972h-13.859l.081-.341.73-9.365.243-2.809-12.806-.511-.081 2.213-.486 10.472v.341h-6.24v13.707h5.024a146.942 146.942 0 0 1 -4.781 23.583 71.476 71.476 0 0 1 10.455 7.662 52.94 52.94 0 0 1 -11.914 12.43l8.834 11.244a63.371 63.371 0 0 0 12.481-14.473 79.507 79.507 0 0 1 6.322 8.088zm-12.725-39.248a78.664 78.664 0 0 1 -4.133 20.348 34.4 34.4 0 0 0 -3.323-2.214c1.459-5.364 2.512-10.472 3.89-18.134zm93.817-5.789v-6.045h-31.041v10.727h31.041v-2.809a106.248 106.248 0 0 1 3.89 17.2l10.861-2.98c-.406-4.341-3.161-14.047-5.268-18.985zm-28.772-18.305v9.876h26.665v-9.876zm0 25.371v10.387h26.665v-10.387zm0 12.856v10.3h26.665v-10.3zm0 12.6v26.9h27.556v-26.9zm17.425 10.131v5.79h-5.43v-5.79zm45.711-45.463a94.574 94.574 0 0 1 -4.377 18.39l11.023 3.49a106.776 106.776 0 0 0 4.538-19.411zm-5.025 63.172v-26.308h16.534v-13.792h-16.534v-25.286h15.561v-13.281h-43.684v13.281h14.507v25.286h-15.966v13.792h15.966v26.308zm87.289-45.458a56.743 56.743 0 0 0 9.888 4.682l5.673-13.452c-3.242-1.277-5.187-2.128-9.158-4a85.645 85.645 0 0 0 8.753-9.961l-9.644-6.13a110.607 110.607 0 0 1 -9.159 10.642c-.891-.6-1.864-1.192-2.917-1.958 2.674-2.639 6.808-7.237 9.32-10.3l-9.645-5.619a57.622 57.622 0 0 1 -7.618 8.259c-1.621-1.788-2.756-3.321-4.62-5.79h-36.63v8.77l-6.565 6.725a51.128 51.128 0 0 1 6.808 5.96 70.284 70.284 0 0 1 -9.158 3.32l5.673 13.793c3.972-1.788 6.727-3.236 10.212-5.194v3.491h7.051v5.449h-19.613v12.43h17.749c-2.35 5.959-8.672 9.535-19.694 11.408l6.889 13.622c16.614-4.853 24.314-12 26.907-25.03h7.862v16.857c.162 3.916 2.755 6.64 6.4 6.726h20.748c6.564-.681 8.347-4.6 8.915-19.327l-12.884-2.473c-.324 8.174-.567 9.025-3.08 9.025h-4.133c-1.783-.085-2.269-.681-2.269-2.895v-7.917h20.5v-12.43h-20.5v-5.453h7.939zm-35.741-8.94a60.456 60.456 0 0 0 11.346-11.578 73.747 73.747 0 0 0 11.509 11.578h-22.852zm-2.675-14.047a51.5 51.5 0 0 1 -6.4 4.937 66.191 66.191 0 0 0 -5.268-4.937h11.671zm16.777 26.222v5.449h-6.889v-5.454h6.889zm44.208-34.225v12.68h30.8v3.41h-27.15v11.4h69.538v-11.4h-27.557v-3.41h30.96v-12.685h-30.96v-4.342h-14.831v4.342h-30.8zm1.134 30.308v19.412h13.94v-7.407h46.767v7.747h13.94v-19.757h-74.644zm18.317 14.474c-.4 12.43-4.3 15.92-20.181 18.56l5.43 13.877c20.181-2.554 28.367-11.664 29.258-32.437h-14.504zm44.008 8.514c-.567 8.258-.729 8.684-3.16 9.024h-4.134c-1.54.085-1.945-.426-1.945-2.3v-15.243h-14.018v22.561c.081 5.79 2.756 8.769 7.861 8.769h19.857c6.808-.936 8.105-3.831 9.4-20.177zm22.917-45.293v46.484h28.691v21.881h13.778v-21.886h29.015v-46.484h-29.012v-12.6h-13.778v12.6h-28.691zm28.691 13.621v19.236h-14.991v-19.241h14.994zm29.015 0v19.236h-15.234v-19.241h15.237zm26.272-21.965 1.864 48.273h12.076l1.864-48.273h-15.8zm.567 68.706h14.67v-14.734h-14.67v14.729z" fill="#fff" fill-rule="evenodd" transform="translate(-435.125 -588.5)"/></svg>