<svg height="20.75" viewBox="0 0 211.28 20.75" width="211.28" xmlns="http://www.w3.org/2000/svg"><path d="m1017.96 1209.28a2.992 2.992 0 1 0 2.65 2.98 2.839 2.839 0 0 0 -2.65-2.98zm-.08 1.52a1.463 1.463 0 1 1 -1.3 1.46 1.391 1.391 0 0 1 1.3-1.46zm-15.45 1.39v3.82h11.23c-.79 5.97-3.49 8.7-10.06 10.2l1.58 3.64c7.11-1.79 11-5.95 12.14-13.01l-3.58-4.65zm19.78 0v16.66h15.61v-16.66zm12.05 3.64v9.39h-8.5v-9.39zm15.47-.44h7.21v-3.57h-15.01v3.57h4.13v2.66h-4.89v3.62h4.89v3.33c-.06 3.3.9 4.34 3.97 4.3h7.05l.18-3.62a26.871 26.871 0 0 1 -3.42.18h-3.29a1.417 1.417 0 0 0 -.28-.02c-.46-.03-.52-.11-.54-.71v-3.46h8.05v-3.62h-8.05zm10.68 3v4.01h17.07v-4.01zm21.22-4.02a25.725 25.725 0 0 1 6.05 2.54l1.41-3.37a23.3 23.3 0 0 0 -6.21-2.25zm-1.6 5.14a23.031 23.031 0 0 1 5.83 2.71l1.36-3.37a19.057 19.057 0 0 0 -5.97-2.49zm2 10.29c8.38-1.19 12.33-4.74 15.09-13.64l-3.06-2.45c-2.27 8.53-5.15 11.2-12.79 11.9zm28.34-6.1v2.31h-8.86v3.35h12.19v-14.3h-12.01v3.26h8.68v2.23h-8.34v3.15zm8.78-8.58a24.937 24.937 0 0 1 6.25 3.4l1.84-3.53a25.329 25.329 0 0 0 -6.55-3.15zm1.18 14.57c9-1.32 13.33-5.31 15.89-14.61l-3.07-2.31c-2.18 8.7-5.57 11.9-13.64 12.76zm19.26-4.49-.66-.03-.68-.02.44 3.99c4.75-.22 8.87-.53 12.8-.99.3.84.42 1.21.64 1.9l3.47-1.68a35.468 35.468 0 0 0 -4.81-9.81l-3.03 1.54a39.333 39.333 0 0 1 2.37 4.59l.06.13c-1.28.11-4.61.31-6.51.35l.34-.97a105.991 105.991 0 0 0 3.64-12.6l-3.76-.73c-1.03 4.89-2.31 9.83-3.67 14.33zm18.13-6.81v4.01h17.06v-4.01zm24.49-6.88h-3.6v14.04c.06 2.51 1.36 3.68 4.04 3.64h7.12a17.5 17.5 0 0 0 3.46-.34l-.22-3.98a16.757 16.757 0 0 1 -4.42.52h-5.23c-1.01 0-1.15-.13-1.15-1.05v-3.44a44.716 44.716 0 0 0 9.28-3.55l-1.68-3.59a31.78 31.78 0 0 1 -7.6 3.35zm7.24-.51a18.469 18.469 0 0 1 1.94 4.23l1.66-.97a19.974 19.974 0 0 0 -2.02-4.14zm2.74-.84a18.977 18.977 0 0 1 1.91 4.24l1.66-.95a20.136 20.136 0 0 0 -2-4.17zm4.45 8.23v4.01h17.06v-4.01z" fill="#fff" fill-rule="evenodd" transform="translate(-1002.44 -1209.28)"/></svg>