<svg id="txt_lead_01.svg" xmlns="http://www.w3.org/2000/svg" width="454.468" height="269.69" viewBox="0 0 454.468 269.69">
  <defs>
    <style>
      .cls-1 {
        fill: #fff;
        fill-rule: evenodd;
      }
    </style>
  </defs>
  <path id="オリンピックの競技を_のコピー" data-name="オリンピックの競技を のコピー" class="cls-1" d="M113.515,1171.79a55.646,55.646,0,0,1-18.787,14.75l4.685,6.49a52.889,52.889,0,0,0,17.059-14.23l0.046,9.21c0.045,1.1-.546,1.53-2,1.53-0.546,0-.591,0-3.321-0.14l-1.819-.14,1.182,8.16c2.32,0.05,3.549.05,5.186,0.05,3.731,0,5.05-.29,6.506-1.53a7.216,7.216,0,0,0,2.183-5.44l-0.045-18.71H133.9v-7.93h-9.553v-7.01h-7.915v7.01H96.911v7.93h16.6Zm39.081-13.85h-8.371v25.4H152.6v-25.4Zm20.88-.76H165.06v20.33c-0.136,8.02-4.549,10.84-18.651,11.98l3.093,8.02c17.242-1.91,23.474-7.35,23.974-20.66v-19.67Zm10.622,8.45a57.412,57.412,0,0,1,14.238,7.35l4.185-7.64a57.871,57.871,0,0,0-14.921-6.82Zm2.684,31.55c20.516-2.86,30.388-11.5,36.21-31.65l-7-5.01c-4.959,18.86-12.692,25.78-31.071,27.64Zm53.277-39.38h-8.188v30.41c0.136,5.44,3.093,7.97,9.189,7.87H257.3a44.153,44.153,0,0,0,7.869-.71l-0.5-8.64a39.8,39.8,0,0,1-10.053,1.14H242.7c-2.32,0-2.639-.28-2.639-2.29v-7.45a104.686,104.686,0,0,0,21.154-7.68l-3.822-7.78a73.932,73.932,0,0,1-17.332,7.26V1157.8Zm24.839-4.82a6.455,6.455,0,1,0,6.05,6.44A6.289,6.289,0,0,0,264.9,1152.98Zm-0.182,3.29a3.087,3.087,0,0,1,3.093,3.11,3.028,3.028,0,1,1-6.05.04A3.1,3.1,0,0,1,264.716,1156.27Zm10.352,12.84a57,57,0,0,1,3.594,12.13l6.687-1.63a50.223,50.223,0,0,0-4-12.21Zm10.554-2.24a56.326,56.326,0,0,1,3.23,12.03l6.46-1.53a45.58,45.58,0,0,0-3.412-11.79ZM301,1165.63c-3.048,17.09-7.779,22.53-22.927,26.16l5.095,6.3c14.875-4.11,21.927-12.51,25.611-30.5Zm27.371-7.4a27.359,27.359,0,0,1-11.054,13.27l5.1,6.16a35.221,35.221,0,0,0,11.145-11.7h12.374c-2.047,13.37-11.282,21.96-26.294,24.44l3.23,7.73c20.016-3.86,31.07-17.56,32.253-39.9H328.369Zm55.393,39.19c4.777-.48,8.735-1.91,11.6-4.25,4.412-3.53,7-9.69,7-16.71,0-11.83-7.46-19.33-19.288-19.33-12.737,0-21.608,8.93-21.608,21.82,0,8.64,4,14.51,9.871,14.51,4.595,0,8.325-3.44,10.6-9.79a65.341,65.341,0,0,0,3.548-18.52c5.368,0.62,8.461,4.54,8.461,10.74,0,8.16-4.367,12.75-12.783,13.46Zm-5.868-31.84c-0.955,11.22-3.457,18.81-6.232,18.81-1.5,0-2.5-2.1-2.5-5.3a15.219,15.219,0,0,1,3.912-10.5A10.942,10.942,0,0,1,377.894,1165.58Zm51.853,34.37c5.914-3.39,7.6-6.35,7.825-13.99h1.319v10.36c0,2.24,1.183,3.44,3.457,3.44h4c4.549,0.04,5.141-1.01,5.459-10.31l-5.5-1.29-0.046.62v3.05a1.11,1.11,0,0,1-.045.43,0.371,0.371,0,0,1-.41.34h-0.591c-0.409,0-.5-0.19-0.5-1.05v-5.59h5.14v-12.03H430.066v12.03h1.728c-0.091,2.77-1,4.78-2.866,6.06l-0.136-3.91c-1.729.81-3,1.38-3.73,1.67v-3.82h2.683v-12.03H409.822v12.03h2.093a8.94,8.94,0,0,1-4.5,7.78l4.231,6.3c4.139-3.82,5.641-7.44,5.868-14.08h1.547v13.13c4.276-1.67,5.277-2.1,7.961-3.34Zm-8.552-21.39v2.77H416.6v-2.77H421.2Zm21.744,0v2.77H436.98v-2.77h5.959Zm-27.2-24.24v2.48h-6.187v6.4h1.911c0.091,0.76.136,1.05,0.182,1.47l0.136,1.05,0.046,0.24h-3.5v6.49h20.2v-6.49H426.29c0.182-.62.273-1.09,0.637-2.76h1.592v-6.4H422.7v-2.48h-6.96Zm4.867,8.88a22,22,0,0,1-.409,2.76h-2.366c-0.091-.52-0.091-0.62-0.182-1.24l-0.181-1.14-0.046-.38H420.6Zm16.013-8.88v2.48h-7.1v6.4h2.32a23.937,23.937,0,0,1,.455,2.76h-2.821v6.49h21.972v-6.49h-3.457a24.912,24.912,0,0,0,.682-2.76h1.775v-6.4h-6.733v-2.48h-7.1Zm5.277,8.88c-0.091.62-.318,2.14-0.455,2.76h-2.684l-0.045-.33-0.091-1-0.182-.96a2.885,2.885,0,0,1-.046-0.47h3.5Zm31.191,2.67h10.1v4.29h-8.825v7.31h7.278l-5.823,2.53a31.859,31.859,0,0,0,5.141,9.26,34.992,34.992,0,0,1-9.917,3.24l3.048,7.73a40.53,40.53,0,0,0,12.783-5.63,52.184,52.184,0,0,0,11.145,5.54l3.548-8.07a42.858,42.858,0,0,1-8.643-3.01,35.715,35.715,0,0,0,6.187-11.12v-7.78h-8.462v-4.29h10.145v-7.45H490.643v-4.1h-7.46v4.1h-10.1v3.44h-3.275v-7.54H462.53v7.54h-4.777v7.16h4.777v7.44c-1.956.48-3.23,0.77-4.822,1.1l0.409,7.83c2.639-.62,3.549-0.81,4.413-1.1v6.68a0.923,0.923,0,0,1-1.092,1.1h-3.594l1.32,7.73H465.9c2.593-.33,3.867-1.67,3.913-4.15v-13.6c0.955-.29,1.819-0.62,3.366-1.24l-0.091-7.5c-1.365.48-2.229,0.77-3.275,1.1v-5.39h3.275v-3.15Zm18.06,11.6a18.936,18.936,0,0,1-4.094,7.39,21.836,21.836,0,0,1-4.549-7.39h8.643Zm34.612-17.81c0.273-1.14.455-1.91,0.774-3.67l-8.143-.43c-0.319,2-.455,2.67-0.774,4.1h-9.462v7.02h7.461a41.692,41.692,0,0,1-9.417,14.6l5.322,5.68c1.138-1.09,2.866-3.43,5.778-7.82,2.729-2.77,5.14-4.11,7.278-4.11a3.012,3.012,0,0,1,2.457,1.05c-7.779,3.92-11.1,7.59-11.1,12.22a7.952,7.952,0,0,0,5,7.49c2.775,1.1,6.733,1.63,12.465,1.63,0.728,0,3.912-.05,9.6-0.15l-0.045-7.82a84.758,84.758,0,0,1-11.282.62c-5.959,0-7.552-.58-7.552-2.87,0-1.62,1.138-2.81,4.186-4.39l0.045,0.96c0,1.09-.045,1.62-0.182,3.43h7.461c0.045-2.19.045-2.19,0.045-3.1,0-1.53-.045-2.77-0.136-4.15a77.483,77.483,0,0,1,10.008-2.72l-1.365-7.69a88.718,88.718,0,0,0-10.19,3.44,6.833,6.833,0,0,0-6.869-4.2,10.714,10.714,0,0,0-5.277,1.38,32.688,32.688,0,0,0,1.638-3.48h18.287v-7.02H525.756Z" transform="translate(-91.063 -1152.97)"/>
  <path id="_15種目以上収録_のコピー" data-name="15種目以上収録! のコピー" class="cls-1" d="M94.327,1217.6l1.411,10.96,8.592-6.32v39.33h11.415v-52.03H105.619Zm66.54-8.06h-30.01v31.08h9.267a6.868,6.868,0,0,1,5.891-2.78c4.173,0,6.935,2.65,6.935,6.65,0,4.51-3.375,7.15-9.083,7.15a24.621,24.621,0,0,1-13.133-3.93l-2.7,10.96a33.908,33.908,0,0,0,15.9,3.94c12.519,0,20.436-7.1,20.436-18.32,0-10.25-7.242-17.41-17.491-17.41a19.759,19.759,0,0,0-5.155.71v-7.09h19.148v-10.96Zm31.769,33.33v4.84h12.212v2.06H191.531v6.58h13.317v2.13h-15.71v7.8H228.6v-7.8H214.054v-2.13h13.133v-6.58H214.054v-2.06H226.7v-20.7H214.054v-1.93h14.36v-7.81h-14.36v-2.19a134.374,134.374,0,0,0,13.685-1.1l-2.086-7.67c-5.217.9-21.111,1.94-30.93,1.94h-2.148l0.982,7.15h1.288l5.033-.06,4.97-.07v2h-13.93v5.16H186.5v-5.74a35.661,35.661,0,0,0,5.278-1.09l-2.455-9.48c-3.989,1.29-11.047,2.25-18.84,2.45l0.981,9.48c1.6-.07,2.7-0.07,5.953-0.33v4.71h-6.934v9.87h6.075c-2.332,5.74-4.6,9.8-7.426,12.89l3.437,14.26a45.827,45.827,0,0,0,4.848-10.58v18.89H186.5v-23.92c1.412,3.42,2.148,4.9,3.007,6Zm0-2.06c-3.5-4.38-4.787-6.25-5.892-8.51h4.235v-7.22h13.869v1.93H192.636v13.8Zm12.212-7.8v2.38h-3.559v-2.38h3.559Zm0,6.57v2.39h-3.559v-2.39h3.559Zm12.949-6.57v2.38h-3.743v-2.38H217.8Zm0,6.57v2.39h-3.743v-2.39H217.8Zm15.765-31.33v57.77h50.077v-57.77H233.562Zm10.248,16.05v-6.32h29.4v6.32h-29.4Zm0,9.22h29.4v6.52h-29.4v-6.52Zm0,15.74h29.4v6.9h-29.4v-6.9Zm88.2-42.17v2.06c0,19.6-1.35,28.5-5.278,34.88-3.989,6.52-9.942,10.9-18.472,13.55l6.26,10.25a38.425,38.425,0,0,0,17.245-11.61,123,123,0,0,1,8.223,11.54l7.3-10.12c-1.6-2.32-4.05-5.16-9.512-10.77,3.5-7.61,5.093-19.15,5.339-39.53Zm-39.522,42.17c-0.8.32-2.209,0.84-4.173,1.48l-1.227.39,1.963,11.6c11.415-4.45,23.566-10.06,28.169-12.96l-1.657-10.31c-1.718.96-4.48,2.19-12.274,5.48l-0.614-37.85-11.107.32ZM305.8,1215.4c0.246,0.26,2.762,3.1,7.242,8.06a76.759,76.759,0,0,1,6.075,8.58l8.776-7.74a94.984,94.984,0,0,0-13.992-15.86Zm75.5-9.02H370.2v48.55H348.105v10.83h58.3v-10.83h-25.1v-21.6h22.216v-11.16H381.306v-15.79Zm28.4,41.33-0.245.06-1.289.33-1.473.32,1.9,10.7c2.393-.84,2.639-0.96,12.826-5.41l0.921-.39v14.44h9.941v-6.51l4.174,6.71a73.922,73.922,0,0,0,12.458-10.84,60.189,60.189,0,0,0,12.089,10.64l6.321-9.93a49.307,49.307,0,0,1-11.66-9.41c5.339-8.13,8.776-23.15,9.022-39.59h-30.5v10.64h19.822c-0.491,7.99-2.086,14.7-4.725,19.99-2.762-5.03-4.848-11.48-6.2-19.28l-9.082,4.06c2.086,9.73,5.093,17.92,8.9,24.44A53.391,53.391,0,0,1,432.29,1257v-50.62h-9.941v37.4c-1.473.58-2.332,0.9-3.314,1.22v-33.79h-9.329v36.5Zm78.724-5.03a38.985,38.985,0,0,1-2.271,8.12l5.585,1.49a65.347,65.347,0,0,0,2.639-7.61Zm12.4,25.02h8.9c2.639-.19,4.173-2,4.112-4.9v-8.58c3.069,5.93,5.032,8.84,8.408,12.38l5.523-9.54a29.922,29.922,0,0,1-7.61-6.64l0.184-.2a69.907,69.907,0,0,0,6.444-9.86l-6.567-4.45H526.6v-8h-3.253v-19.79H494.935v6.96a22.847,22.847,0,0,1-7.548-8.64h-9.635c-1.719,4.26-6.689,10-10.372,11.87l2.21,11.67a37.823,37.823,0,0,0,3.314-2.91v2.52h4.6v2.97h-8.653v8.83h8.653v14.57c-5.277.97-7,1.23-9.512,1.49l1.1,10.06c7.732-1.42,18.226-3.74,22.584-5.1l1.1,3.16c2.332-1.61,3.928-2.77,5.646-4.19,0.553-.39.614-0.45,0.859-0.64Zm2.332-10.19c0.368-.32.491-0.45,1.043-0.97l-3.191-8.31a46.017,46.017,0,0,1-8.04,5.99v-1.74c-2.577.78-4.173,1.16-7.548,1.94v-13.03h7.671v-0.64a45.071,45.071,0,0,1,4.173,9.54l7.426-4.77a49.012,49.012,0,0,0-4.48-9.09l-7.119,3.48v-4H505v19.99c0,1.48-.184,1.68-1.6,1.61h-0.245Zm-10.8-24.95h-6.935v-2.97h5.462v-6.51l4.541-7.23H513.9v2.52H495.733v6.9H513.9v2.64h-21.54v4.65Zm27.248,3.35a40.056,40.056,0,0,1-4.051,6.77,45.6,45.6,0,0,1-1.718-4.45v-2.32h5.769Zm-41.056-15.15c1.595-2.13,2.577-3.55,4.173-6.07a53.034,53.034,0,0,0,4.541,6.07H478.55Zm-10.556,24.11a64.066,64.066,0,0,1,1.841,10.58l6.751-2.19a68.205,68.205,0,0,0-2.21-10.45Zm62.424-35.33,1.411,36.56h9.144l1.412-36.56H530.418Zm0.429,52.03h11.108v-11.15H530.847v11.15Z" transform="translate(-91.063 -1152.97)"/>
  <path id="簡単操作で_のコピー" data-name="簡単操作で  のコピー" class="cls-1" d="M114.193,1287.06c-0.34-.96-0.963-2.44-1.36-3.28h3.457l3.91,3.46v17.26h14.28v14.4c-0.057,1.37-.283,1.61-1.36,1.55h-1.473v-14.11h-25.5V1327H128.36l0.623,3.45h9.747c3.457-.12,4.76-1.78,4.7-6.13v-37.26h-3.91c-0.623-1.25-.793-1.73-1.643-3.28h7.82v-8.03H131.647l0.623-1.79-9.577-.77a23.959,23.959,0,0,1-4.59,7.74v-5.18h-9.69a13.979,13.979,0,0,0,.623-1.55l-9.917-.72a25.373,25.373,0,0,1-8.047,9.23l3.74,4.35h-0.34v43.39h8.783V1304.5h14.507v-17.44h-3.57Zm-13.544,0c0.51-.54,1.53-1.73,2.777-3.28h0.51a30.118,30.118,0,0,1,1.077,3.28h-4.364Zm23.971,0a33.594,33.594,0,0,0,2.663-3.28h0.963c0.341,0.78,1.021,2.62,1.247,3.28H124.62ZM123.543,1312v2.2H114.25V1312h9.293Zm0,6.85v2.26H114.25v-2.26h9.293Zm-14-27.15v2.08h-6.29v-2.08h6.29Zm0,5.71v2.15h-6.29v-2.15h6.29Zm24.877-5.71v1.96h-6.007v-1.96h6.007Zm0,5.77v2.09h-6.007v-2.09h6.007Zm16.055-14.34v28.1H169.8v2.79H147.248v8.93H169.8v7.56H179.1v-7.56h22.27v-8.93H179.1v-2.79h19.21v-28.1H194.4a66.025,66.025,0,0,0,3.514-7.32l-9.974-2.39a64.481,64.481,0,0,1-3.967,9.71h-3a45.96,45.96,0,0,0-4.363-9.82l-9.577,1.96a78.724,78.724,0,0,1,3.626,7.86h-4.873c-0.17-.36-0.17-0.36-0.34-0.78a40.546,40.546,0,0,0-4.93-8.81l-9.294,3.1a56.044,56.044,0,0,1,3.627,6.49h-4.363Zm19.323,8.09v2.74H159.715v-2.74H169.8Zm0,9.05v2.8H159.715v-2.8H169.8Zm19.324-9.05v2.74H179.1v-2.74h10.03Zm0,9.05v2.8H179.1v-2.8h10.03Zm47.165,1.91v-11.73H219.8v-7.2h-3.287v-9.35h-8.5v9.35H203.65v9.28h4.363V1302c-2.266.59-3.4,0.83-4.7,1.07l0.963,9.94a32.821,32.821,0,0,0,3.74-1.07v6.61c0,1.55-.226,1.78-1.643,1.78h-2.833l1.36,10.18h6.4c3.8-.12,5.043-1.55,5.213-5.65v-2.32l4.817,7.79a39.207,39.207,0,0,0,11.787-8.87v9.05h8.557v-9.4a36.354,36.354,0,0,0,11.277,8.87l5.383-8.22c-5.5-2.38-8.557-4.22-11.843-7.2h10.823v-8.57h-15.64v-2.03h14v-13.51H238.557v11.73H236.29Zm-3.173,1.78v2.03H219.8v-2.03h13.317Zm-3.967,10.6a42.031,42.031,0,0,1-12.637,7.44v-12.86c1.077-.36,1.474-0.47,1.927-0.65v6.07h10.71Zm-9.35-16.01-0.227.06-1.133.41-1.7.54-0.227.12v-7.15H219.8v6.02Zm29.014-2.5v2.5h-3.627v-2.5h3.627Zm-19.21,0v2.5h-3.23v-2.5h3.23Zm23.177-21.32H222.407v13.7h30.374v-13.7Zm-8.444,5.84v2.62H230.794v-2.62h13.543Zm19.959,49.88h9.8V1289.5a75.386,75.386,0,0,0,4.363-14.83l-9.35-.77c-2.1,9.7-5.667,16.85-10.824,21.67l2.55,12.5a31.3,31.3,0,0,0,3.457-3.21v25.59Zm27.6-49.58c0.794-3.16,1.077-4.41,1.417-6.25l-9.237-.78c-0.85,6.55-5.157,15.18-9.577,19.41l4.194,10.24a38.273,38.273,0,0,0,8.443-11.02v37.98h9.69v-11.01H311.9v-9.7H296.823v-4.82H311.9v-9.53H296.823v-4.76H313.03v-9.76H291.893Zm56.612,16.37a50.571,50.571,0,0,1,6.176,11.31l5.271-3.16a54.371,54.371,0,0,0-6.461-11.07Zm7.593-3.99a51.607,51.607,0,0,1,6.4,11.19l5.27-2.92a54.955,54.955,0,0,0-6.63-11.01Zm-39.327-1.37c2.04-.24,3.23-0.36,5.5-0.6,3.343-.35,6.8-0.71,9.52-1.01l3.626-.36,2.437-.23c-7.2,5.18-11.107,12.08-11.107,19.46,0,8.28,5.044,14.29,14.054,16.67,4.647,1.19,8.84,1.61,18.3,1.61l1.3-11.25c-2.267.17-3.627,0.23-5.837,0.23-4.76,0-9.35-.47-11.957-1.31-3.74-1.13-5.61-3.39-5.61-6.72,0-7.86,8.444-16.97,17.85-19.29a33.739,33.739,0,0,1,5.724-.48c0.68,0,.68,0,4.42.06l-0.283-10.35-5.5.17c-10.767.3-17.4,0.66-30.827,1.49-8.33.66-9.01,0.66-12.127,0.72Z" transform="translate(-91.063 -1152.97)"/>
  <path id="爽快プレイ_のコピー" data-name="爽快プレイ!  のコピー" class="cls-1" d="M98.47,1401.46a56.167,56.167,0,0,0,11.091-5,32.755,32.755,0,0,1,3.379,5l9.791-8.09a31.768,31.768,0,0,0-3.119-4.1,59.335,59.335,0,0,0,6.5-6.91l-7.105-6.09,6.239-6.82c-1.906-1.72-2.859-2.54-5.112-4.36a40.586,40.586,0,0,0,5.025-5.73l-6.411-4.54h8.4v20.91c0,20.73-7.885,27.82-35.092,31.55l7.8,15.36c18.542-4.45,29.893-12.27,34.745-23.64,5.545,11.82,16.376,19.37,33.792,23.55l7.278-15.73c-9.964-.82-18.109-3.09-24.174-6.73l0.347-.09a52.685,52.685,0,0,0,8.318-4.45,45.246,45.246,0,0,1,5.718,6.54l9.012-8.36a70.812,70.812,0,0,0-5.459-5.91,49.16,49.16,0,0,0,5.285-6.55l-6.585-5.63,5.719-6.46a33.4,33.4,0,0,0-4.592-4.09c2.339-2.27,3.379-3.45,4.852-5.09l-7.019-5.18h7.972v-13.55H141.274v-6.37H127.15v6.37H92.925v13.55h8.664L95,1361.91a48.836,48.836,0,0,1,5.892,3.45,53.923,53.923,0,0,1-8.145,2.91l5.805,10.55,0.52-.18,0.347-.18-3.986,3.9A34.8,34.8,0,0,1,100.9,1387a45.85,45.85,0,0,1-8.318,3.46Zm12.391-20.82c-2.773-2.46-4.419-3.82-5.806-4.82a58.07,58.07,0,0,0,5.546-3.18c1.213,0.91,2.426,2,4.592,4A34.241,34.241,0,0,1,110.861,1380.64Zm40.377,19.27c-6.758-4.27-10.4-13.27-9.964-24.27v-20.82h8.231l-6.152,6.09c2.773,1.54,4.766,2.73,6.845,4.09a43.537,43.537,0,0,1-8.751,3.45l5.805,10.55-3.292,3a43.366,43.366,0,0,1,6.672,5c-1.647.73-2.946,1.27-5.459,2.27Zm9.964-19.45c-3.379-2.73-5.025-4.01-6.325-5.01a60.283,60.283,0,0,0,5.286-3.09,51.155,51.155,0,0,1,4.765,4.55A36.361,36.361,0,0,1,161.2,1380.46Zm-45.576-25.64a27.141,27.141,0,0,1-4.245,4.09c-2.167-1.37-4.419-2.64-7.279-4.09h11.524Zm48.7,0a24.335,24.335,0,0,1-4.246,3.91c-1.646-1-3.553-2.19-6.758-3.91h11ZM266,1406.19c-12.65-4.37-20.1-10.19-24.694-19.28h23.308V1373h-3.639v-26.82H240.009V1334.9H225.886v11.28H211.069v8.36a25.006,25.006,0,0,0-2.166-3.45l-4.245,2.45V1334.9h-13v86.47h13v-13.18l6.671,13.54a48.78,48.78,0,0,0,22.355-22.55c5.632,10.46,13.43,17.19,25.561,22.19Zm-40.117-46.46v6.45c0,1.64-.173,5.73-0.26,6.82H206.65v13.91h16.377c-2.946,9.46-8.232,15.18-17.85,19.28l-0.519.27v-45.37c1.126,2.91,2.426,6.82,3.032,9.18l8.492-4.27a40.583,40.583,0,0,0-2.6-6.27h12.3Zm14.123,0h6.932V1373h-7.018c0.086-1.82.086-3.91,0.086-6.46v-6.81Zm-57.36-6.91c0,8.91-1.039,18.91-2.512,23.45l6.758,6.09c2.08-7.36,3.119-16.91,3.293-29.54h-7.539Zm157.71-20.55a11.968,11.968,0,0,0-11.957,12.18c0,6.91,5.2,12.37,11.784,12.37,6.412,0,11.7-5.46,11.7-12.28C351.883,1337.81,346.6,1332.27,340.359,1332.27Zm-0.347,6.27a6.009,6.009,0,1,1-5.632,6A5.872,5.872,0,0,1,340.012,1338.54Zm-67.064,5.73V1360H321.73c-3.466,24.64-15.163,35.91-43.67,42.09l6.845,15.01c30.846-7.37,47.742-24.55,52.681-53.65l-15.509-19.18H272.948Zm106.111-3.46H362.77v75.74c37.258-.54,56.84-13.73,68.884-46.37l-13.69-8.54c-7.019,22.82-20.016,35.27-38.9,37.09v-57.92Zm110.921,30.1a157.36,157.36,0,0,0,24.781-23.28l-13.344-10q-23.524,29.46-61.606,42.1l7.625,14a140.756,140.756,0,0,0,26.341-12v35h16.2v-45.82Zm35.052-31.64,1.993,51.55h12.911l1.992-51.55h-16.9Zm0.607,73.37h15.683v-15.73H525.639v15.73Z" transform="translate(-91.063 -1152.97)"/>
</svg>
