<svg height="21.13" viewBox="0 0 213.094 21.13" width="213.094" xmlns="http://www.w3.org/2000/svg"><path d="m700.307 1396.97a25.806 25.806 0 0 1 -8.666 6.81l2.161 2.99a24.4 24.4 0 0 0 7.869-6.56l.021 4.25c.021.51-.252.71-.923.71-.252 0-.273 0-1.532-.07l-.839-.07.545 3.77c1.07.02 1.637.02 2.392.02 1.721 0 2.33-.13 3-.7a3.327 3.327 0 0 0 1.008-2.51l-.021-8.64h4.385v-3.66h-4.407v-3.24h-3.65v3.24h-9v3.66h7.659zm13.482.42v4.01h17.942v-4.01zm38.369-9.11a2.98 2.98 0 1 0 2.791 2.98 2.9 2.9 0 0 0 -2.791-2.98zm-.084 1.52a1.457 1.457 0 1 1 -1.364 1.46 1.425 1.425 0 0 1 1.364-1.46zm-16.242 1.39v3.82h11.814c-.839 5.97-3.672 8.7-10.576 10.2l1.658 3.64c7.47-1.79 11.562-5.95 12.758-13.01l-3.756-4.65h-11.9zm22.861.77v3.82h14.607v-3.82zm-1.489 11.09v3.79h17.585v-3.79h-17.589zm21.833-8.93a26.65 26.65 0 0 1 6.568 3.4l1.931-3.53a27.072 27.072 0 0 0 -6.883-3.15zm1.238 14.57c9.464-1.32 14.018-5.31 16.7-14.61l-3.232-2.31c-2.287 8.7-5.854 11.9-14.332 12.76zm32.662-17.37h-8.562a12.051 12.051 0 0 1 -4.869 5.82l2.351 2.82a15.219 15.219 0 0 0 4.889-5.06h5.561c-1.322 6.61-4.889 9.89-11.814 10.93l1.49 3.57c8.121-1.57 12.045-5.53 13.849-13.98zm3.126-2.07a18.694 18.694 0 0 1 2.225 4.12l1.532-1.05a18.835 18.835 0 0 0 -2.33-4.04zm-2.77.88a17.821 17.821 0 0 1 2.288 4.08l1.511-1.06a18.492 18.492 0 0 0 -2.372-4.01zm10.019 14.07-.692-.03-.714-.02.462 3.99c4.994-.22 9.317-.53 13.451-.99.315.84.441 1.21.672 1.9l3.651-1.68a34.847 34.847 0 0 0 -5.057-9.81l-3.19 1.54a37.245 37.245 0 0 1 2.5 4.59l.063.13c-1.343.11-4.847.31-6.841.35l.357-.97a102.171 102.171 0 0 0 3.819-12.6l-3.945-.73c-1.091 4.89-2.434 9.83-3.861 14.33h-.672zm20.218-6.81v4.01h17.942v-4.01zm26.911-6.88h-3.777v14.04c.063 2.51 1.427 3.68 4.239 3.64h7.497a19.228 19.228 0 0 0 3.63-.34l-.231-3.98a18.4 18.4 0 0 1 -4.637.52h-5.5c-1.071 0-1.218-.13-1.218-1.05v-3.44a48.51 48.51 0 0 0 9.758-3.55l-1.762-3.59a34.379 34.379 0 0 1 -8 3.35v-5.6zm7.618-.51a18.065 18.065 0 0 1 2.035 4.23l1.742-.97a19.6 19.6 0 0 0 -2.119-4.14zm2.875-.84a19.023 19.023 0 0 1 2.014 4.24l1.742-.95a19.753 19.753 0 0 0 -2.1-4.17zm5.843 8.23v4.01h17.942v-4.01z" fill="#fff" fill-rule="evenodd" transform="translate(-691.625 -1388.28)"/></svg>