<svg id="txt_lead_01_sp0.svg" xmlns="http://www.w3.org/2000/svg" width="546" height="325" viewBox="0 0 546 325">
  <defs>
    <style>
      .cls-1 {
        fill: #fff;
        fill-rule: evenodd;
      }
    </style>
  </defs>
  <path id="オリンピックの競技を_のコピー" data-name="オリンピックの競技を のコピー" class="cls-1" d="M128.963,1455.66a66.751,66.751,0,0,1-22.572,17.78l5.629,7.82c8.745-4.83,15.631-10.64,20.495-17.14l0.055,11.1c0.054,1.33-.656,1.84-2.405,1.84-0.656,0-.711,0-3.99-0.17l-2.186-.17,1.421,9.84c2.787,0.05,4.263.05,6.231,0.05,4.481,0,6.066-.34,7.815-1.84a8.692,8.692,0,0,0,2.623-6.56l-0.054-22.55h11.422v-9.54H141.97v-8.46h-9.51v8.46H109.014v9.54h19.949Zm46.951-16.68H165.858v30.61h10.056v-30.61Zm25.085-.92H190.888v24.51c-0.163,9.66-5.465,13.06-22.407,14.44l3.716,9.66c20.714-2.3,28.2-8.86,28.8-24.91v-23.7Zm12.761,10.18a69.435,69.435,0,0,1,17.106,8.86l5.028-9.2a69.662,69.662,0,0,0-17.926-8.23Zm3.224,38.03c24.649-3.45,36.508-13.87,43.5-38.14l-8.417-6.04c-5.957,22.72-15.248,31.06-37.328,33.31Zm64.008-47.46h-9.838v36.64c0.164,6.56,3.717,9.61,11.04,9.49h19.511a51.681,51.681,0,0,0,9.455-.86l-0.6-10.41a47.474,47.474,0,0,1-12.078,1.38H284.162c-2.788,0-3.17-.34-3.17-2.76v-8.97a125.724,125.724,0,0,0,25.413-9.27l-4.59-9.37a88.428,88.428,0,0,1-20.823,8.74v-14.61Zm29.84-5.81a7.779,7.779,0,1,0,7.269,7.77A7.561,7.561,0,0,0,310.832,1433Zm-0.218,3.97a3.8,3.8,0,1,1-3.553,3.8A3.71,3.71,0,0,1,310.614,1436.97Zm12.438,15.47a68.881,68.881,0,0,1,4.317,14.61l8.034-1.95a60.9,60.9,0,0,0-4.809-14.73Zm12.679-2.7a68.024,68.024,0,0,1,3.88,14.5l7.761-1.84a54.921,54.921,0,0,0-4.1-14.21Zm18.472-1.5c-3.661,20.6-9.345,27.16-27.544,31.53l6.121,7.59c17.871-4.95,26.342-15.07,30.769-36.76Zm32.884-8.91a32.986,32.986,0,0,1-13.281,15.99l6.121,7.42a42.346,42.346,0,0,0,13.39-14.09h14.865c-2.459,16.1-13.553,26.46-31.589,29.45l3.881,9.32c24.047-4.66,37.327-21.17,38.748-48.09H387.087Zm66.549,47.23c5.738-.58,10.493-2.31,13.936-5.12,5.3-4.26,8.417-11.68,8.417-20.14,0-14.26-8.963-23.3-23.173-23.3-15.3,0-25.96,10.76-25.96,26.29,0,10.42,4.809,17.49,11.86,17.49,5.519,0,10-4.14,12.734-11.79a79.018,79.018,0,0,0,4.263-22.32c6.449,0.75,10.165,5.46,10.165,12.94,0,9.84-5.247,15.36-15.357,16.22Zm-7.05-38.37c-1.148,13.51-4.154,22.66-7.488,22.66-1.8,0-3.006-2.53-3.006-6.38a18.4,18.4,0,0,1,4.7-12.66A13.124,13.124,0,0,1,446.586,1448.19Zm62.295,41.41c7.105-4.08,9.127-7.65,9.4-16.85h1.585v12.48c0,2.71,1.421,4.14,4.153,4.14h4.81c5.465,0.06,6.175-1.2,6.558-12.42l-6.613-1.55-0.055.74v3.69a1.3,1.3,0,0,1-.054.51,0.445,0.445,0,0,1-.492.41h-0.711c-0.492,0-.6-0.23-0.6-1.27v-6.73h6.176v-14.5H509.264v14.5h2.077c-0.11,3.34-1.2,5.75-3.443,7.31l-0.164-4.72c-2.077.98-3.607,1.67-4.482,2.01v-4.6h3.225v-14.5H484.944v14.5h2.514a10.792,10.792,0,0,1-5.411,9.38l5.083,7.59c4.973-4.6,6.777-8.97,7.05-16.97h1.858v15.82c5.137-2.01,6.34-2.53,9.564-4.03Zm-10.274-25.77v3.34h-5.52v-3.34h5.52Zm26.124,0v3.34h-7.16v-3.34h7.16Zm-32.683-29.22v2.99h-7.432v7.71h2.3c0.109,0.92.164,1.27,0.219,1.78l0.164,1.27,0.054,0.29H483.14v7.82h24.266v-7.82h-2.678c0.218-.75.328-1.33,0.765-3.34h1.913v-7.71h-7v-2.99h-8.362Zm5.848,10.7a26.783,26.783,0,0,1-.492,3.34h-2.842c-0.109-.64-0.109-0.75-0.218-1.5l-0.219-1.38-0.054-.46H497.9Zm19.238-10.7v2.99h-8.526v7.71H511.4a29.542,29.542,0,0,1,.547,3.34h-3.388v7.82h26.4v-7.82H530.8a30.525,30.525,0,0,0,.82-3.34h2.131v-7.71H525.66v-2.99h-8.526Zm6.34,10.7c-0.11.75-.383,2.59-0.547,3.34H519.7l-0.055-.41-0.109-1.2-0.219-1.15a3.569,3.569,0,0,1-.055-0.58h4.209Zm37.472,3.22h12.133v5.18h-10.6v8.8h8.745l-7,3.05a38.315,38.315,0,0,0,6.176,11.16,41.819,41.819,0,0,1-11.914,3.91l3.661,9.32a48.8,48.8,0,0,0,15.358-6.79,62.074,62.074,0,0,0,13.39,6.67l4.263-9.72a51.38,51.38,0,0,1-10.384-3.62,43.257,43.257,0,0,0,7.432-13.4v-9.38H582.042v-5.18h12.187v-8.97H582.042v-4.95h-8.963v4.95H560.946v4.14h-3.935v-9.09h-8.744v9.09h-5.739v8.63h5.739v8.97c-2.35.58-3.881,0.92-5.794,1.33l0.492,9.43c3.17-.75,4.263-0.98,5.3-1.32v8.05c-0.055,1.04-.383,1.32-1.312,1.32h-4.318l1.585,9.32h8.089c3.115-.4,4.645-2.01,4.7-5v-16.4c1.148-.34,2.186-0.75,4.044-1.49l-0.109-9.03c-1.64.57-2.678,0.92-3.935,1.32v-6.5h3.935v-3.8Zm21.7,13.98a22.929,22.929,0,0,1-4.919,8.92,26.477,26.477,0,0,1-5.465-8.92h10.384Zm41.583-21.46c0.328-1.38.547-2.3,0.929-4.43l-9.783-.51c-0.382,2.41-.546,3.22-0.929,4.94H603.076v8.46h8.963a50.239,50.239,0,0,1-11.314,17.6l6.395,6.85c1.366-1.33,3.443-4.14,6.941-9.44,3.279-3.33,6.175-4.94,8.744-4.94a3.6,3.6,0,0,1,2.951,1.26c-9.345,4.72-13.335,9.15-13.335,14.73a9.589,9.589,0,0,0,6.012,9.03c3.334,1.32,8.089,1.96,14.975,1.96,0.874,0,4.7-.06,11.531-0.18l-0.054-9.43a101.157,101.157,0,0,1-13.554.75c-7.16,0-9.072-.69-9.072-3.45,0-1.96,1.366-3.4,5.028-5.3l0.054,1.15c0,1.33-.054,1.96-0.218,4.15h8.963c0.054-2.65.054-2.65,0.054-3.74,0-1.84-.054-3.34-0.164-5.01A94.254,94.254,0,0,1,648,1462.22l-1.64-9.26a108.262,108.262,0,0,0-12.242,4.14c-1.8-3.56-4.208-5.06-8.252-5.06a12.808,12.808,0,0,0-6.34,1.67,39.594,39.594,0,0,0,1.967-4.2h21.971v-8.46H624.226Z" transform="translate(-102 -1433)"/>
  <path id="_15種目以上収録_のコピー" data-name="15種目以上収録! のコピー" class="cls-1" d="M105.91,1510.87l1.7,13.22,10.323-7.62v47.41h13.713v-62.72H119.476Zm79.94-9.71H149.8v37.46H160.93a8.243,8.243,0,0,1,7.078-3.34c5.013,0,8.331,3.18,8.331,8,0,5.44-4.055,8.63-10.912,8.63a29.51,29.51,0,0,1-15.778-4.74l-3.244,13.21a40.673,40.673,0,0,0,19.1,4.74c15.041,0,24.552-8.55,24.552-22.07,0-12.36-8.7-20.98-21.013-20.98a23.921,23.921,0,0,0-6.193.85v-8.55h23v-13.21Zm38.168,40.18v5.83H238.69v2.49h-16v7.92h16v2.57H219.815v9.4h47.408v-9.4H249.749v-2.57h15.778v-7.92H249.749v-2.49h15.188v-24.95H249.749v-2.33H267v-9.4H249.749v-2.65a159.863,159.863,0,0,0,16.442-1.32l-2.507-9.25c-6.267,1.09-25.363,2.34-37.16,2.34h-2.58l1.18,8.62h1.548l6.046-.08,5.972-.07v2.41H221.953v6.21h-5.308v-6.91a44.5,44.5,0,0,0,6.34-1.32l-2.949-11.43c-4.792,1.56-13.271,2.72-22.634,2.95l1.179,11.43c1.917-.08,3.244-0.08,7.152-0.39v5.67H197.4v11.89h7.3c-2.8,6.92-5.53,11.82-8.922,15.55l4.129,17.17a55.276,55.276,0,0,0,5.825-12.74v22.77h10.912v-28.83c1.7,4.11,2.58,5.9,3.612,7.22Zm0-2.49c-4.2-5.28-5.751-7.54-7.078-10.26h5.087v-8.7H238.69v2.33H224.018v16.63Zm14.672-9.4v2.87h-4.277v-2.87h4.277Zm0,7.93v2.87h-4.277v-2.87h4.277Zm15.556-7.93v2.87h-4.5v-2.87h4.5Zm0,7.93v2.87h-4.5v-2.87h4.5Zm18.94-37.77v69.63h60.162v-69.63H273.186Zm12.312,19.35v-7.62h35.317v7.62H285.5Zm0,11.11h35.317v7.85H285.5v-7.85Zm0,18.96h35.317v8.32H285.5v-8.32Zm105.962-50.82v2.48c0,23.63-1.622,34.35-6.341,42.05-4.792,7.85-11.944,13.13-22.193,16.32l7.521,12.36a46.216,46.216,0,0,0,20.718-13.99,145.931,145.931,0,0,1,9.879,13.91l8.774-12.2c-1.917-2.8-4.866-6.22-11.428-12.98,4.2-9.17,6.12-23.08,6.415-47.64Zm-47.482,50.82c-0.958.39-2.654,1.01-5.013,1.79l-1.475.47,2.359,13.99c13.714-5.37,28.312-12.13,33.842-15.62l-1.991-12.44c-2.064,1.17-5.382,2.64-14.746,6.61l-0.737-45.62-13.345.39Zm16-40.8c0.3,0.31,3.318,3.73,8.7,9.72a91.23,91.23,0,0,1,7.3,10.33l10.543-9.32a114.3,114.3,0,0,0-16.81-19.12Zm90.708-10.88H437.34v58.52H410.8v13.06H480.84v-13.06H450.685v-26.03h26.689v-13.45H450.685v-19.04Zm34.12,49.82-0.3.08-1.549.38-1.769.39,2.286,12.9c2.875-1.01,3.17-1.16,15.409-6.52l1.106-.47v17.41h11.944v-7.85l5.014,8.08a88.779,88.779,0,0,0,14.966-13.05,72.85,72.85,0,0,0,14.525,12.82l7.594-11.97a59.282,59.282,0,0,1-14.008-11.35c6.414-9.79,10.543-27.9,10.838-47.71H514.223v12.82h23.814c-0.59,9.64-2.507,17.72-5.677,24.09-3.318-6.06-5.825-13.83-7.447-23.24L514,1518.88c2.507,11.73,6.12,21.6,10.691,29.45a63.472,63.472,0,0,1-12.755,10.03v-61.01H499.993v45.08c-1.77.7-2.8,1.09-3.981,1.47v-40.72H484.805v43.99Zm94.578-6.06a47.49,47.49,0,0,1-2.728,9.79l6.709,1.79a78.783,78.783,0,0,0,3.17-9.17Zm14.893,30.15h10.691c3.17-.23,5.013-2.41,4.94-5.91v-10.33c3.686,7.15,6.045,10.64,10.1,14.92l6.636-11.5a35.992,35.992,0,0,1-9.142-8.01l0.221-.23a84.3,84.3,0,0,0,7.741-11.89l-7.889-5.36h7.668v-9.64h-3.907v-23.86H587.2v8.39a27.483,27.483,0,0,1-9.069-10.41H566.554c-2.064,5.13-8.037,12.05-12.46,14.3l2.654,14.07a47.239,47.239,0,0,0,3.981-3.5v3.03h5.53v3.58h-10.4v10.64h10.4v17.57c-6.341,1.16-8.4,1.47-11.428,1.78l1.327,12.13c9.29-1.71,21.9-4.51,27.132-6.14l1.328,3.81c2.8-1.95,4.718-3.35,6.783-5.06,0.663-.46.737-0.54,1.032-0.77Zm2.8-12.28c0.442-.39.59-0.54,1.253-1.16l-3.834-10.03a55.65,55.65,0,0,1-9.658,7.23v-2.1c-3.1.93-5.014,1.4-9.069,2.33v-15.7h9.216v-0.77a54.539,54.539,0,0,1,5.014,11.5l8.921-5.75a59.1,59.1,0,0,0-5.382-10.96l-8.553,4.19v-4.81h14.3v24.09c0,1.79-.222,2.02-1.917,1.94h-0.3ZM584.1,1528.91H575.77v-3.58h6.562v-7.85l5.456-8.7H609.98v3.03H588.157v8.31H609.98v3.19H584.1v5.6Zm32.736,4.04a49.026,49.026,0,0,1-4.866,8.16,55.7,55.7,0,0,1-2.064-5.37v-2.79h6.93Zm-49.325-18.27c1.917-2.56,3.1-4.27,5.014-7.3a63.428,63.428,0,0,0,5.456,7.3h-10.47Zm-12.681,29.07a77.577,77.577,0,0,1,2.212,12.74l8.11-2.64a82.676,82.676,0,0,0-2.654-12.59Zm75-42.59,1.7,44.07h10.986l1.7-44.07H629.826Zm0.517,62.72h13.345v-13.45H630.343v13.45Z" transform="translate(-102 -1433)"/>
  <path id="簡単操作で_のコピー" data-name="簡単操作で  のコピー" class="cls-1" d="M129.777,1594.59c-0.409-1.15-1.158-2.94-1.634-3.95H132.3l4.7,4.17v20.8h17.156v17.36c-0.068,1.65-.34,1.94-1.634,1.87h-1.77v-17H120.109v24.89H146.8l0.749,4.16h11.709c4.153-.14,5.719-2.15,5.651-7.39v-44.91h-4.7c-0.748-1.51-.953-2.08-1.974-3.95h9.395v-9.68H150.745l0.749-2.15-11.5-.94c-1.226,3.45-2.451,5.46-5.515,9.33v-6.24H122.833a16.291,16.291,0,0,0,.748-1.87l-11.914-.86A30.512,30.512,0,0,1,102,1589.35l4.493,5.24h-0.408v52.3h10.552v-31.28h17.429v-21.02h-4.289Zm-16.271,0c0.612-.65,1.838-2.08,3.335-3.95h0.613a36.755,36.755,0,0,1,1.294,3.95h-5.242Zm28.8,0a41.458,41.458,0,0,0,3.2-3.95h1.158c0.408,0.94,1.225,3.16,1.5,3.95H142.3Zm-1.293,30.06v2.66H129.845v-2.66H141.01Zm0,8.25v2.73H129.845v-2.73H141.01Zm-16.816-32.71v2.51h-7.557v-2.51h7.557Zm0,6.88v2.59h-7.557v-2.59h7.557Zm29.887-6.88v2.36h-7.216v-2.36h7.216Zm0,6.96v2.51h-7.216v-2.51h7.216Zm19.288-17.29v33.86h23.215v3.37H169.489v10.76h27.1v9.11H207.75v-9.11h26.755v-10.76H207.75v-3.37h23.079v-33.86h-4.7a78.6,78.6,0,0,0,4.221-8.83l-11.982-2.87a77.7,77.7,0,0,1-4.766,11.7H210a55.6,55.6,0,0,0-5.242-11.84l-11.506,2.36a95.41,95.41,0,0,1,4.358,9.48h-5.855c-0.205-.44-0.205-0.44-0.409-0.94a48.783,48.783,0,0,0-5.923-10.62l-11.165,3.73a68.235,68.235,0,0,1,4.357,7.83h-5.242Zm23.215,9.75v3.3H184.466v-3.3h12.118Zm0,10.91v3.37H184.466v-3.37h12.118Zm23.216-10.91v3.3H207.75v-3.3H219.8Zm0,10.91v3.37H207.75v-3.37H219.8Zm56.664,2.29v-14.13H256.652V1590H252.7v-11.27H242.492V1590H237.25v11.19h5.242v11.41c-2.723.72-4.085,1-5.651,1.29L238,1625.87a39.315,39.315,0,0,0,4.493-1.29v7.96c0,1.87-.272,2.16-1.974,2.16h-3.405l1.634,12.26h7.693c4.562-.14,6.06-1.86,6.264-6.81v-2.8l5.787,9.4a47.35,47.35,0,0,0,14.16-10.69v10.9h10.28v-11.33a43.7,43.7,0,0,0,13.548,10.69l6.468-9.9c-6.6-2.87-10.28-5.1-14.229-8.68h13v-10.33H282.931v-2.44h16.816v-16.29h-20.56v14.13h-2.723Zm-3.813,2.16v2.44h-16v-2.44h16Zm-4.765,12.77a50.231,50.231,0,0,1-15.182,8.96v-15.49c1.293-.43,1.77-0.58,2.315-0.79v7.32h12.867Zm-11.234-19.3-0.272.07-1.361.5-2.043.65-0.272.14v-8.61h3.948v7.25Zm34.858-3.02v3.02h-4.358v-3.02h4.358Zm-23.08,0v3.02h-3.88v-3.02h3.88Zm27.845-25.68H259.784v16.5h36.491v-16.5Zm-10.144,7.03v3.16H269.86v-3.16h16.271Zm23.979,60.12h11.778v-49.36a91.063,91.063,0,0,0,5.242-17.86l-11.233-.94c-2.519,11.7-6.808,20.31-13,26.12l3.064,15.07a38.038,38.038,0,0,0,4.153-3.88v30.85Zm33.155-59.76c0.953-3.8,1.293-5.31,1.7-7.53l-11.1-.94c-1.021,7.89-6.2,18.3-11.506,23.39l5.038,12.34a46.14,46.14,0,0,0,10.144-13.27v45.77h11.642v-13.27H367.3v-11.7H349.188v-5.81H367.3v-11.48H349.188v-5.74h19.471v-11.76H343.265Zm68.012,19.73a61.044,61.044,0,0,1,7.421,13.63l6.332-3.8a65.606,65.606,0,0,0-7.762-13.35Zm9.123-4.81a62.324,62.324,0,0,1,7.693,13.49l6.332-3.52a66.222,66.222,0,0,0-7.966-13.27Zm-47.248-1.65c2.451-.29,3.881-0.43,6.6-0.72,4.017-.43,8.17-0.86,11.438-1.22l4.357-.43,2.927-.28c-8.646,6.24-13.343,14.56-13.343,23.46,0,9.97,6.059,17.22,16.883,20.09,5.583,1.43,10.621,1.93,21.99,1.93l1.566-13.56c-2.723.22-4.357,0.29-7.012,0.29-5.719,0-11.233-.57-14.365-1.58-4.493-1.36-6.74-4.09-6.74-8.11,0-9.47,10.144-20.44,21.445-23.24a40.735,40.735,0,0,1,6.876-.57c0.817,0,.817,0,5.311.07l-0.341-12.49-6.6.22c-12.935.36-20.9,0.79-37.035,1.79-10.008.79-10.825,0.79-14.569,0.86Z" transform="translate(-102 -1433)"/>
  <path id="爽快プレイ_のコピー" data-name="爽快プレイ!  のコピー" class="cls-1" d="M110.888,1732.47a67.186,67.186,0,0,0,13.324-6.03,40.077,40.077,0,0,1,4.06,6.03l11.763-9.75a37.521,37.521,0,0,0-3.748-4.94,71.813,71.813,0,0,0,7.807-8.32l-8.536-7.34,7.5-8.22c-2.29-2.09-3.435-3.07-6.141-5.26a49.436,49.436,0,0,0,6.037-6.91l-7.7-5.48h10.1v25.21c0,24.98-9.473,33.53-42.16,38.02l9.369,18.52c22.277-5.37,35.913-14.79,41.743-28.49,6.662,14.24,19.674,23.34,40.6,28.38l8.744-18.96c-11.971-.98-21.756-3.72-29.043-8.11l0.416-.1a64.124,64.124,0,0,0,9.993-5.37,53.79,53.79,0,0,1,6.871,7.89l10.826-10.09a86.471,86.471,0,0,0-6.558-7.12,59.436,59.436,0,0,0,6.35-7.89l-7.912-6.79,6.871-7.78a40.5,40.5,0,0,0-5.517-4.93c2.81-2.74,4.059-4.17,5.829-6.14l-8.432-6.25h9.577v-16.32h-40.6v-7.67H145.344v7.67H104.225v16.32h10.41l-7.911,8.55a58.851,58.851,0,0,1,7.078,4.17,64.333,64.333,0,0,1-9.785,3.5l6.975,12.71,0.624-.22,0.417-.21-4.789,4.71a40.83,40.83,0,0,1,6.558,5.59,56.034,56.034,0,0,1-9.993,4.16Zm14.885-25.1c-3.331-2.95-5.309-4.6-6.974-5.8a68.972,68.972,0,0,0,6.662-3.84c1.457,1.1,2.915,2.41,5.517,4.82A39.674,39.674,0,0,1,125.773,1707.37Zm48.509,23.24c-8.119-5.15-12.491-16-11.971-29.26v-25.1h9.89l-7.391,7.35c3.331,1.86,5.725,3.28,8.223,4.93a52.2,52.2,0,0,1-10.513,4.16l6.974,12.71-3.956,3.62a51.685,51.685,0,0,1,8.016,6.03c-1.978.87-3.54,1.53-6.558,2.73Zm11.972-23.45c-4.06-3.29-6.038-4.83-7.6-6.03,2.29-1.21,4.163-2.3,6.349-3.73a61.039,61.039,0,0,1,5.726,5.48A42.38,42.38,0,0,1,186.254,1707.16ZM131.5,1676.25a32.023,32.023,0,0,1-5.1,4.94c-2.6-1.65-5.309-3.18-8.744-4.94H131.5Zm58.5,0a28.884,28.884,0,0,1-5.1,4.72c-1.978-1.21-4.268-2.63-8.119-4.72H190Zm122.16,61.92c-15.2-5.26-24.151-12.28-29.668-23.23h28v-16.77h-4.372v-32.33H280.932v-13.58H263.964v13.58h-17.8v10.09a30.708,30.708,0,0,0-2.6-4.17l-5.1,2.96v-22.46H222.846v104.21H238.46v-15.89l8.016,16.32a58.694,58.694,0,0,0,26.857-27.17c6.766,12.6,16.135,20.71,30.708,26.74Zm-48.2-56v7.78c0,1.97-.208,6.91-0.312,8.22h-22.8v16.77h19.674c-3.539,11.39-9.889,18.3-21.444,23.23l-0.625.33v-54.68a115.594,115.594,0,0,1,3.644,11.06l10.2-5.15a48.871,48.871,0,0,0-3.123-7.56h14.782Zm16.968,0h8.328v16h-8.432c0.1-2.19.1-4.71,0.1-7.78v-8.22Zm-68.912-8.33c0,10.74-1.249,22.8-3.019,28.28l8.12,7.34c2.5-8.88,3.747-20.38,3.955-35.62H212.02Zm189.471-24.76a14.4,14.4,0,0,0-14.365,14.68c0,8.33,6.246,14.91,14.157,14.91,7.7,0,14.053-6.58,14.053-14.8C415.336,1655.76,408.986,1649.08,401.491,1649.08Zm-0.416,7.56a7.243,7.243,0,1,1-6.767,7.23A7.065,7.065,0,0,1,401.075,1656.64Zm-80.571,6.9v18.96H379.11c-4.164,29.7-18.217,43.28-52.464,50.74l8.223,18.08c37.059-8.88,57.358-29.59,63.291-64.66l-18.633-23.12H320.5Zm127.482-4.16H428.415v91.28c44.762-.66,68.288-16.55,82.757-55.89l-16.447-10.3c-8.432,27.51-24.046,42.52-46.739,44.71v-69.8Zm133.258,36.27a189.363,189.363,0,0,0,29.772-28.05l-16.031-12.06c-18.841,23.67-43.512,40.66-74.013,50.74l9.161,16.87a168.316,168.316,0,0,0,31.645-14.46v42.19h19.466v-55.23Zm42.113-38.13,2.394,62.13h15.51l2.394-62.13h-20.3Zm0.728,88.43h18.842v-18.96H624.085v18.96Z" transform="translate(-102 -1433)"/>
</svg>
