<svg height="182.75" viewBox="0 0 516.999 182.75" width="516.999" xmlns="http://www.w3.org/2000/svg"><g fill="#fff" fill-rule="evenodd" transform="translate(-702.281 -4753.31)"><path d="m739.875 4802.78v11.75h-6.545v-11.75h-8.87v11.75h-6.491v-11.18h-8.978v11.18h-5.842v9.08h5.842v31.49h44.243v-9.02h-35.265v-22.47h6.491v18.33h24.231v-18.33h5.949v-9.08h-5.949v-11.75zm-6.545 20.83h6.545v9.64h-6.545zm31.52 33.71c9.844-4.43 13.684-10.96 13.739-22.93h-2.272a34.565 34.565 0 0 0 4.381-5h4.219a24.625 24.625 0 0 0 4.056 4.94h-1.893v22.53h9.249v-16.97a50.127 50.127 0 0 0 8.816 4.03l3.949-9.3a29.773 29.773 0 0 1 -12.062-5.23h8.113v-25.19h-44.784v25.19h7.518c-2.217 1.99-6.382 3.75-11.737 5l4.273 9.31a78.239 78.239 0 0 0 8.762-4.26c-.649 4.43-4.381 8-10.168 9.82zm13.847-45.69v2.5h-9.411v-2.5h9.414zm0 8.23v2.55h-9.411v-2.55h9.414zm17.578-8.23v2.5h-9.357v-2.5zm0 8.23v2.55h-9.357v-2.55zm16.982-8.74v30.99h19.143v14.58h9.2v-14.58h19.363v-30.99h-19.363v-8.4h-9.2v8.4zm19.146 9.08v12.83h-10.003v-12.83h10zm19.364 0v12.83h-10.167v-12.83h10.169zm41.169 33.82c5.679-.56 10.385-2.27 13.792-5.05 5.247-4.2 8.33-11.52 8.33-19.86 0-14.07-8.87-22.98-22.933-22.98-15.144 0-25.691 10.61-25.691 25.93 0 10.27 4.759 17.25 11.737 17.25 5.462 0 9.9-4.08 12.6-11.63a77.719 77.719 0 0 0 4.219-22.02c6.382.74 10.06 5.39 10.06 12.77 0 9.7-5.193 15.15-15.2 16zm-6.977-37.85c-1.136 13.34-4.111 22.36-7.41 22.36-1.785 0-2.975-2.5-2.975-6.3a18.105 18.105 0 0 1 4.652-12.48 13.019 13.019 0 0 1 5.733-3.58zm76.408-14.98a7.672 7.672 0 1 0 7.194 7.66 7.473 7.473 0 0 0 -7.194-7.66zm-.216 3.92a3.751 3.751 0 1 1 -3.516 3.74 3.659 3.659 0 0 1 3.516-3.74zm-41.864 3.57v9.82h30.451c-2.163 15.38-9.465 22.41-27.26 26.27l4.273 9.37c19.255-4.6 29.8-15.32 32.885-33.48l-9.681-11.98zm65.3-2.16h-10.17v47.28c23.258-.34 35.483-8.57 43-28.95l-8.55-5.33c-4.38 14.24-12.493 22.02-24.284 23.15v-36.15zm68.3 18.79a98.33 98.33 0 0 0 15.46-14.53l-8.32-6.24q-14.685 18.39-38.46 26.27l4.76 8.74a87.3 87.3 0 0 0 16.44-7.49v21.85h10.12zm41.57-.34 12.27-1.87c-.7 3.91-4.7 8.73-8.76 10.55l7.03 6.53c9.25-6.53 12.82-14.19 13.09-28.21l-24.88 3.46-1.4-10.72-10.01 1.53 1.46 10.61-11.68 1.65 1.4 9.82 11.53-1.82 3.73 27.92 9.95-1.13zm29.67-.34v10.33h46.25v-10.33zm63.77-19.01v2.61c0 9.87.48 13.28 2.32 15.83a39.353 39.353 0 0 0 -6.22 4.03c-4.05 3.23-6.38 7.6-6.38 12.03a11.712 11.712 0 0 0 5.62 10.27c4.6 2.67 9.69 3.58 20.02 3.58 5.19 0 9.14-.17 15.03-.63v-10.21a127.232 127.232 0 0 1 -17.47 1.02c-5.84 0-8-.23-10.17-.91a3.879 3.879 0 0 1 -2.75-3.8c0-5.56 11.63-10.39 28.82-11.97l-1.19-10.39a93.312 93.312 0 0 0 -16.71 3.52c-.76-1.31-.86-2.04-.86-7.15 0-3.07.05-4.88.1-7.83h-10.157z"/><path d="m738.9 4769.51v-2.37h4.478v-10.62h-15.228v-2.73h-6.82v2.73h-15.23v10.62h4.31v2.37h7.783c-1.8 1.32-7.072 2.5-12.93 2.81l2.134 5.75a49.427 49.427 0 0 0 12.553-3.64c.167.22.251.26 1 1.18-3.431 1.94-9.708 3.69-15.649 4.39l2.343 5.58a52.36 52.36 0 0 0 15.524-6.15 8.073 8.073 0 0 1 .46 1.58c-4.435 2.9-12.511 5.8-19.415 6.9l2.343 6.19a57.179 57.179 0 0 0 9.791-3.43l.921 4.74h7.072c3.766 0 6.109-3.42 6.109-9.04a21.227 21.227 0 0 0 -5.775-14.58 10.816 10.816 0 0 0 2.469-2.28h.837c1 9.79 5.314 19.19 11.34 24.85l5.481-5.31a31.718 31.718 0 0 1 -7.657-8.96 44.084 44.084 0 0 0 7.03-5.97l-4.227-5a28.126 28.126 0 0 1 -5.356 5 39.848 39.848 0 0 1 -1-4.61zm-20.629 20.2a37.055 37.055 0 0 0 5.942-3.73c-.042 3.02-.418 3.73-2.05 3.73zm18.453-25.47h-23.93v-1.88h23.934v1.88zm29.628 31.39a20.286 20.286 0 0 0 9.917-8.43c1.632 3.39 4.059 5.84 8.5 8.7l3.515-6.68a12.779 12.779 0 0 1 -6.988-5.26h6.36v-6.63h-8.156c.168-1.36.251-2.29.293-3.52h7.107v-6.41h-12.217l.335-1.4-4.435-.7c.251-.4.376-.62.544-.92h16.528v-6.72h-13.555a31.523 31.523 0 0 0 .92-3.51l-6.82-.79a26.055 26.055 0 0 1 -3.222 8.34v-2.99h-4.854v-4.96h-6.863v4.96h-5.523v6.63h2.594v10.71c.042 4.39-1.339 9.97-3.264 13.09l4.771 6.49a29.257 29.257 0 0 0 2.468-5.62l.879 5.49h4.014c2.636.09 4.226-1.53 4.6-4.7zm1.883-18.3h-2.715v6.63h5.356a12.281 12.281 0 0 1 -6.9 4.96c.251-4.22.419-6.85.419-7.95.042-1.14.042-3.38.083-6.67zm-13.432 11.06a51.481 51.481 0 0 0 1.8-11.94v-1.23h1.757l.042 1.58a94.772 94.772 0 0 1 -.586 10.58 1.161 1.161 0 0 1 -1.381 1.01zm1.8-19.62v-3.43h6.36l3.975 4.79a3.822 3.822 0 0 1 .377-.44 19.955 19.955 0 0 1 -2.8 3.69v-1.8c.042-1.01.042-1.45.042-1.94a8.167 8.167 0 0 0 -.042-.87h-7.908zm12.72 8.56a22.876 22.876 0 0 0 2.511-3.52h1.506a34.644 34.644 0 0 1 -.251 3.52zm36.42-6.72c5.9-2.33 8.829-3.12 11.214-3.12a3.68 3.68 0 0 1 3.934 3.91c0 2.77-2.218 4.48-5.9 4.48a11.332 11.332 0 0 1 -4.185-.75l.209 7.2a20.368 20.368 0 0 0 4.98.66c7.364 0 12.093-4.43 12.093-11.33 0-6.54-4.436-11.06-10.838-11.06a20.3 20.3 0 0 0 -2.134.13 42.637 42.637 0 0 0 -3.138-5.57l-6.235 2.54a52.877 52.877 0 0 1 2.511 4.7c-.67.22-.712.26-2.26.79-.628.22-1.339.44-2.05.7-.837-3.07-1.3-4.61-2.176-7.11l-7.532 1.93a69.384 69.384 0 0 1 2.678 7.73c-1.339.48-2.552.92-3.013 1.1-1.506.57-2.552.92-2.971 1.09l-.376.09 2.3 7.64c1.423-.79 2.762-1.45 6.026-2.94l.083.35a176.925 176.925 0 0 1 4.352 20.63l7.95-1.88c-.836-3.12-1.129-4.26-2.929-11.68-1-4.35-1.673-6.94-2.343-9.31zm61.317-2.81h-19.704l.125-.83.126-.93.125-.96h22.847v-7.51h-22.135c.083-1.84.125-2.63.167-4.26h-7.783c.042 1.32.042 1.76.042 2.42 0 .44 0 .92-.042 1.84h-10.21v7.51h9.75c-1.172 11.19-4.687 19.49-10.545 24.98l5.816 5.71a33.276 33.276 0 0 0 4.478-6.11l2.929 6.19a32.556 32.556 0 0 0 12.009-5.31 43.154 43.154 0 0 0 12.637 5.18l3.473-7.72a25.749 25.749 0 0 1 -10.043-3.03 33.344 33.344 0 0 0 5.942-10.01v-7.16zm-16.11 7.16-5.607 2.5c.335-1.1.46-1.67.67-2.5zm7.741 0a19.857 19.857 0 0 1 -3.682 5.53l-.251-.31a15.964 15.964 0 0 1 -3.6-5.22h7.542zm-9.54 10.05a25.857 25.857 0 0 1 -7.992 2.85 45.366 45.366 0 0 0 3.933-9.39 32.146 32.146 0 0 0 4.063 6.54zm34.628-23.18v4.56h4.645c.167.49.418 1.45.586 2.24h-4.226v4.92h10.5v1.32h-9.5v3.99h9.5v1.45h-11.04v4.57a5.209 5.209 0 0 1 -.921-2.33v-12.86h-9.331v6.71h2.971v9.09a16.109 16.109 0 0 1 -3.557 2.2l2.176 7.99a28.438 28.438 0 0 0 6.151-5.4 12.212 12.212 0 0 0 8.954 4.3h22.052l1.423-6.85h-12.051v-2.63h11.047v-4.79h-11.047v-1.45h9.457v-3.99h-9.457v-1.32h10.335v-4.92h-4.184c.335-.87.377-1.05.46-1.23.084-.26.168-.52.293-1.01h4.519v-4.78h-11.423v-1.41h9.749v-4.83h-9.749v-1.62h-6.821v1.62h-9.79v4.83h9.791v1.41h-11.3l.963-1.14a41.959 41.959 0 0 0 -6.7-6.59l-4.436 5.23c1.214.61 5.105 4.96 6.235 6.93zm11.507 25.9h-4.184a8.885 8.885 0 0 1 -6.653-2.63h10.841v2.63zm7.072-21.34a15.581 15.581 0 0 1 -.67 2.24h-5.983a15.112 15.112 0 0 0 -.586-2.24zm14.514 16.56a94.273 94.273 0 0 1 8.537 11.24l6.611-4.48a94.233 94.233 0 0 0 -9.415-10.67z"/><path d="m703.366 4897.01a95.559 95.559 0 0 1 12.838 12.2c-2.567 4.49-7.7 10.03-13.908 15.04l7.775 10.63c5.277-4.79 10.983-11.3 13.694-15.72 2.638 4.12 4.136 6.66 5.705 9.66l9.7-8.31a87.721 87.721 0 0 0 -9.414-13.39 109.814 109.814 0 0 0 5.063-21.33h2.781v-12.05h-10.983v-9.43h-11.483v9.43h-11.7v12.05h19.827a60.06 60.06 0 0 1 -2.068 12.05c-2.782-2.92-5.92-5.84-9.914-9.28zm62.978-32.7h-11.844v12.5h-15.33v12.57h15.33v31.58c0 1.87-.5 2.32-2.424 2.4h-10.053l2.14 12.04h13.622c6.063.15 8.488-2.17 8.559-8.38v-37.64h5.064v-12.57h-5.064zm-31.453 33.68c2.353 3.66 6.205 13.62 7.417 19.15l10.841-5.38a78.244 78.244 0 0 0 -8.2-18.94zm79.1-15.04v-4.34h-2.353c3.067-5.09 4.992-8.91 5.919-11.83l-11.839-2.92a82.636 82.636 0 0 1 -3.78 10.85 64.959 64.959 0 0 0 -1.855-10.85l-10.555.98a54.4 54.4 0 0 1 2.5 12.49l9.486-1.49a7.686 7.686 0 0 1 -.428.82 17.6 17.6 0 0 1 -1 1.95h-19.116l8.987-2.77a98.343 98.343 0 0 0 -4.636-11.38l-10.271 2.62a65.5 65.5 0 0 1 4.494 11.53h-1.926v32.47h12.482v2.92h-14.55v11.23h14.55v10.32h11.412v-10.32h5.848l6.919 10.02a67.956 67.956 0 0 0 10.555-8.23c2.782 6.06 5.492 8.61 9.058 8.61s8.274-3.74 10.342-8.31l-2.71-14.14c-2.211 4.19-4.351 6.73-5.635 6.73-.856 0-1.426-.82-2.211-2.99a71.8 71.8 0 0 0 9.914-18.56l-8.2-5.24 7.988-.6-.214-11.82-6.347.52 7.346-4.41c-.785-2.47-4.779-9.65-6.99-12.72l-7.845 4.79v-4.57h-11.2v1.65c0 1.27.071 3.89.143 8.16l.071 8.53zm0 11.82 4.779-.38c.642 8.01 1.355 14.52 2.211 19.69a36.457 36.457 0 0 1 -5.563 4.79v-4.87h-13.907v-2.92h12.481v-16.31zm19.971-1.5a35.872 35.872 0 0 1 -3.353 8.53l-.071-.3-.57-7.63v-.3zm-4.565-11.52c-.071-5.54-.071-9.06-.071-11.3a47.352 47.352 0 0 1 5.491 10.92zm-38.158 5.39v3.51h-4.139v-3.51h4.136zm0 11.45v3.66h-4.139v-3.66h4.136zm13.409-11.45v3.51h-3.848v-3.51h3.851zm0 11.45v3.66h-3.848v-3.66h3.851zm85.62-4.94a63.63 63.63 0 0 1 7.775 14.21l6.633-3.96a68.244 68.244 0 0 0 -8.131-13.92zm9.558-5.02a64.951 64.951 0 0 1 8.059 14.07l6.633-3.67a69.078 69.078 0 0 0 -8.345-13.84zm-49.5-1.72c2.568-.3 4.065-.45 6.918-.75 4.208-.45 8.559-.89 11.982-1.27l4.565-.45 3.067-.3c-9.058 6.51-13.979 15.19-13.979 24.47 0 10.4 6.347 17.96 17.688 20.96 5.848 1.49 11.126 2.02 23.037 2.02l1.64-14.15c-2.853.23-4.564.3-7.346.3-5.991 0-11.768-.6-15.049-1.64-4.707-1.43-7.061-4.27-7.061-8.46 0-9.88 10.627-21.33 22.467-24.25a43.708 43.708 0 0 1 7.2-.59c.856 0 .856 0 5.563.07l-.356-13.02-6.919.22c-13.551.38-21.9.83-38.8 1.88-10.484.82-11.34.82-15.263.89zm101.489 25.3 6.206 4.86a38.628 38.628 0 0 0 6.7-12.87 27.545 27.545 0 0 1 2.567 2.02l3.139-7.04c.5 10.18 1.925 14.22 5.634 16.32l-8.987 3.37c1.926 2.76 5.564 9.95 8.488 16.83l11.7-4.11a79.76 79.76 0 0 0 -8.131-15.49c3.5-.23 6.99-4.42 8.915-10.78l-3.352-10.48c-.784 3.9-1.569 5.47-2.71 5.47-.856 0-.927-.75-.927-6.44 0-7.86.214-15.64.784-23.35h-12.7l.142-2.39.072-2.47.071-1.12h-10.903c0 3.66 0 4.86-.072 5.98h-4.778v7.34h-11.483v-2.77h9.129v-7.56h-9.129v-2.99h-11.554v2.99h-9.486v7.56h9.486v2.77h-12.2v7.33h5.491c-.927 3.22-2.71 5.01-6.775 6.81l4.208 8.16c.356-.15.5-.23.713-.3v4.49h8.987v3.66l-5.92.08-5.849.07h-1.426l1.07 9.36 1-.08 2.14-.07 2.068-.15c-1.854 5.24-4.065 8.9-6.989 11.75l10.056 7.11a38.7 38.7 0 0 0 7.346-17.21l-6.561-1.8 4.707-.23a173.583 173.583 0 0 0 19.114-1.57v-3.06zm-9.628-7.86h9.129v-7.26h-9.126v-2.4h8.7a3.01 3.01 0 0 0 1.07-.22l-.57 1.5a25.789 25.789 0 0 1 4.422 2.39 32.1 32.1 0 0 1 -4.494 8.83c-1.5.08-3.138.23-5.064.3-.713 0-1.925.08-4.065.15v-3.29zm28.315-21.63.071 1.35-.071 4.86c-.071.83-.071 3.07-.071 5.54-.785-.6-1.569-1.12-3.139-2.17.143-1.8.428-5.76.642-9.58zm-12.553 4.57a4.087 4.087 0 0 0 -.856-.45 13.816 13.816 0 0 1 -1.783-.83l-.57 1.35-6.847-1.12c-.143 1.87-.286 2.09-1.355 2.17h-1.284c-.642-.08-.785-.3-.785-1.2v-2.02h9.2v-2.47h4.493v.3l-.142 3.89zm-31.738 9.8a19.589 19.589 0 0 0 6.775-11.9h3.21v6.06a3.362 3.362 0 0 0 .856 2.32h-5.991v3.52zm23.108 37.19.072-1.72a102.994 102.994 0 0 0 -1.213-14.22l-10.27.45c.214 4.94.285 6.88.285 7.86 0 2.17-.071 3.96-.357 8zm17.474-.52a66.486 66.486 0 0 0 -3.709-15.79l-10.627.75a94.736 94.736 0 0 1 2.5 15.86zm60.284-67.8c-7.77 8.08-11.05 11.3-22.32 21.7a77.185 77.185 0 0 0 -6.562 6.29c-1.926 2.24-2.782 4.19-2.782 6.28 0 3.22 1.855 5.61 6.844 9.06 14.84 9.95 25.04 17.58 32.46 24.09l12.76-9.8c-4.06-3.89-21.11-14.89-33.59-21.63-2.28-1.19-2.78-1.64-2.78-2.62 0-.74.35-1.27 1.5-2.24a9.69 9.69 0 0 0 .92-.82c1.36-1.13 2.07-1.73 7.13-5.77a258.091 258.091 0 0 0 20.12-17.21zm53.64 9.05c.36-2.09.5-3.44 1-7.48l-13.05-.45c-.14 2.55-.28 4.79-.64 7.93h-10.49v12.28h8.56a141.564 141.564 0 0 1 -10.2 32.4l12.77 4.71a280.229 280.229 0 0 0 9.27-33.9l.72-3.21h13.33v-12.28zm40.16 6.21a96.631 96.631 0 0 0 -21.33-9.95l-5.35 11.23a115.482 115.482 0 0 1 21.26 10.25zm-13.05 7.86h-12.41l.28 13.02a32.27 32.27 0 0 0 -3.63-.22c-10.63 0-17.69 6.21-17.69 15.56 0 9.06 6.92 14.75 17.83 14.75 9.13 0 14.48-4.05 14.76-11.15l.07-.38c2 1.95 4.28 4.49 6.49 7.04l6.85-12.5a77.393 77.393 0 0 0 -12.27-9.13zm-11.84 27.99c0 2.69-1.64 4.04-4.99 4.04-3.64 0-5.71-1.5-5.71-4.12s2.5-4.26 6.35-4.26a10.242 10.242 0 0 1 4.35.97zm43.52-26.64v3.82a103.286 103.286 0 0 1 -13.62 16.16l5.71 13.54a81.386 81.386 0 0 0 7.84-10.62c-.14 13.92-.14 13.92-.14 15.11 0 1.13 0 1.95.07 3.6h12.633c-.36-7.94-.5-13.03-.5-21.18 0-4.57 0-7.71.21-14.29 5.35-6.81 10.06-10.26 13.91-10.26 2.21 0 3.35 1.35 3.35 4.04v2.02l-.43 11.75q-.21 7.53-.21 8.53c0 8.98 1.64 12.95 6.42 15.34 3.14 1.65 6.42 2.17 13.48 2.32l2.85-13.17a19.154 19.154 0 0 1 -2.07.08c-6.49 0-7.63-.9-7.63-5.99v-2.02l.07-2.84c.07-1.12.07-1.95.14-2.55l.29-12.57.07-4.04c0-9.5-4.42-14.44-12.91-14.44-5.49 0-10.77 2.39-16.9 7.63l.07-3.67c.07-3.51.14-5.46.14-5.83 0-1.05 0-1.5.07-3h-12.91v10.18h-11.55v12.42zm57.87-22.53 1.64 42.43h10.63l1.64-42.43zm.5 60.39h12.91v-12.94h-12.91z"/></g></svg>