<svg height="253.09" viewBox="0 0 596.843 253.09" width="596.843" xmlns="http://www.w3.org/2000/svg"><g fill="#fff" fill-rule="evenodd" transform="translate(-76.563 -6334.53)"><path d="m103.388 6342.27a43.873 43.873 0 0 1 5.845 9.58l5.326-3.45c-2.122-4.58-4.885-8.44-7.728-10.71l-4.885 3.11a10.3 10.3 0 0 1 1.161 1.18h-8.328v-4.16h-6.086v4.16h-8.769v6.13h8.769v4.49a21.551 21.551 0 0 0 -5.405 3.11 11.079 11.079 0 0 0 -4.288 8.57c0 5.17 3.6 8.61 8.969 8.61 4.445 0 6.807-2.14 6.807-6.13v-9.7a28.349 28.349 0 0 1 4.4-.42c4.325 0 6.847 2.05 6.847 5.58 0 3.91-2.8 5.72-8.969 5.76l.921 5.8a24.081 24.081 0 0 0 7.688-1.14 10.826 10.826 0 0 0 7.127-10.46 11.008 11.008 0 0 0 -3.243-7.98c-2.243-2.18-5.846-3.36-10.451-3.36a24.241 24.241 0 0 0 -4.324.38v-3.11h8.609v-5.84zm-14.615 22.73c0 1.13-.28 1.47-1.241 1.47a2.561 2.561 0 0 1 -2.6-2.61q0-3.09 3.844-5.04v6.18zm37.957-22.6c.24-2.78.32-3.83.52-6.35l-5.766-.29c-.2 3.61-.32 5.5-.4 6.64h-3.323v6.13h2.722a69.931 69.931 0 0 1 -2.522 11.85 47.023 47.023 0 0 1 5.365 3.99 22.844 22.844 0 0 1 -6.126 6.42l3.964 5.09a32.093 32.093 0 0 0 6.406-7.4 37.3 37.3 0 0 1 3.284 4.08l3.924-5.17a45.221 45.221 0 0 0 -4.445-4.45c1.6-3.74 2.923-12.35 3.123-20.54zm1.241 6.13a46.734 46.734 0 0 1 -2.162 10.71c-.481-.34-.881-.63-1.962-1.34a93.2 93.2 0 0 0 2.082-9.37zm26.426-11.38h-20.26v6.21h12.613a18.292 18.292 0 0 1 -3.364 3.95h-2.122v4.58h-8.128v6.38h8.128v9.29a1.1 1.1 0 0 1 -1.121 1.3h-5.843l1 6.89h7.848c2.963-.08 4.364-1.68 4.324-4.92v-12.56h8.089v-6.38h-8.091v-1.3a32.017 32.017 0 0 0 6.927-7.23zm34.226 24.91c1.081.58 1.321.71 4 2.39l2.082-6.93a25.49 25.49 0 0 0 -4.525-2.44c.521-3.19.881-6.38 1.121-9.95l-6.726-.55c-.161 2.82-.441 5.59-.8 8.28a33.7 33.7 0 0 0 -6.126-1.31l.32-2.35.52-4.07.481-4.08.32-2.56h-18.215v6.43l11.091-.17c-.2 2.56-.56 5.59-.761 6.64-7.567.54-12.732 5.41-12.732 12.01 0 4.83 2.923 8.02 7.327 8.02 3.564 0 6.567-2.35 8.288-6.51a49.434 49.434 0 0 0 2.283-7.31 29.427 29.427 0 0 1 5.966 1.68c-1.162 4.46-3.484 7.31-8.169 10.13l4.124 4.87a20.045 20.045 0 0 0 10.011-11.8zm-18.219-4.84c-1.361 5.76-2.562 7.9-4.484 7.9-1.121 0-1.722-.75-1.722-2.1a5.588 5.588 0 0 1 2.683-4.66 8.478 8.478 0 0 1 3.519-1.14zm47.543 16.35a19.905 19.905 0 0 0 10.29-3.74c3.844-3.11 6.086-8.4 6.086-14.5 0-10.37-6.526-16.92-16.857-16.92-11.171 0-18.939 7.81-18.939 19.11 0 7.43 3.444 12.6 8.369 12.6 3.884 0 7.127-2.98 9.129-8.44a55.939 55.939 0 0 0 3.283-16.89c5.286.55 8.289 4.24 8.289 10.12 0 7.36-4.044 11.56-11.732 12.19zm-4.765-28.4a50.6 50.6 0 0 1 -2.322 12.77c-1.081 3.32-2.282 4.96-3.684 4.96-1.481 0-2.482-2.1-2.482-5.26a13.842 13.842 0 0 1 3.843-9.82 10.57 10.57 0 0 1 4.645-2.65zm42.791 9.03 3.883 4.2c7.408-4.58 10.491-9.66 11.812-19.49h-34.114v6.43h26.106c-1.281 3.4-3.443 5.63-7.567 7.89.16-1.72.2-2.94.28-4.78l-6.607-.05c0 11.43-2.883 16.26-12.212 20.25l4.2 5.38c8.729-4.29 13.173-10.34 14.134-19.28l.04-.21zm24.3-14.66c-1.121 11.34-4.6 22.6-9.409 30.24l6.446 3.45c4.725-7.98 8.409-20.63 9.53-32.77zm10.451 2.35a126.386 126.386 0 0 1 9.049 30.5l6.967-1.89a112.225 112.225 0 0 0 -10.09-31.3zm7.728-3.78a34.832 34.832 0 0 1 3.323 8.32l3.083-1.6a40.576 40.576 0 0 0 -3.523-8.19zm4.925-2.1a34.427 34.427 0 0 1 3.4 8.32l3.043-1.64a37.681 37.681 0 0 0 -3.564-8.15zm12.58 38.23c16.657-4.46 26.226-16.72 27.307-34.87h-22.783a24.72 24.72 0 0 1 -10.29 12.27l4.244 5.08a26.488 26.488 0 0 0 4.365-3.57 53.662 53.662 0 0 1 9.729 6.55 31.263 31.263 0 0 1 -15.9 8.49zm19.5-28.78a26.882 26.882 0 0 1 -3.163 9.33 43.941 43.941 0 0 0 -9.81-5.97c1.081-1.51 1.562-2.22 2.283-3.36zm12.464 6.81v6.93h34.279v-6.93h-34.28zm55.467-11.55c.241-1.05.441-1.85.761-3.49l-6.567-.34c-.24 1.47-.4 2.4-.72 3.83h-8.489v5.62h6.887a36.563 36.563 0 0 1 -8.488 13.45l4.284 4.62a59.18 59.18 0 0 0 5.2-7.06c2.363-2.44 4.645-3.7 6.607-3.7a2.58 2.58 0 0 1 2.522 1.26 38.454 38.454 0 0 0 -5.966 3.66 9.478 9.478 0 0 0 -4.124 7.27 6.8 6.8 0 0 0 4.244 6.38c2.443 1.01 5.766 1.43 10.931 1.43 1.482 0 1.6 0 8.529-.21l-.04-6.26a75.373 75.373 0 0 1 -10.05.55c-5.486 0-7.047-.59-7.047-2.73 0-1.64 1.241-2.94 4.444-4.58a5.3 5.3 0 0 1 .04.8 32.534 32.534 0 0 1 -.16 3.57h6.014c.04-1.26.08-1.89.08-2.78a32.185 32.185 0 0 0 -.16-3.95 68.627 68.627 0 0 1 9.129-2.6l-1.161-6.22a92.845 92.845 0 0 0 -9.089 3.2c-1.2-2.73-3.083-3.91-6.166-3.91-1.562 0-2.6.29-4.925 1.47a35.324 35.324 0 0 0 1.682-3.66h16.376v-5.62h-14.579zm25.661 34.99h6.206v-28.9a54.57 54.57 0 0 0 3.163-10.38l-6.006-.54c-1.561 7.18-4.084 12.18-7.928 15.75l1.842 7.69c1.2-1.06 1.922-1.77 2.723-2.61zm18.5-34.7a41.4 41.4 0 0 0 1.161-4.66l-6.006-.51c-.841 5-3.8 10.97-6.967 13.95l2.8 6.43a30.306 30.306 0 0 0 6.407-8.74v28.23h6.246v-8.19h11.051v-6.18h-11.051v-4.07h11.051v-6.05h-11.051v-3.99h11.892v-6.22h-15.535zm20.988 14.83c.921-.21 1.842-.42 2.282-.55 2.563-.59 4.445-1.01 4.725-1.09a54.646 54.646 0 0 1 9.249-1.34 5.418 5.418 0 0 1 5.806 5.75c0 5.71-4.765 8.49-14.815 8.65l1.762 5.84c7.167-.33 12.212-1.8 15.1-4.37a13.2 13.2 0 0 0 4.2-9.95c0-7.27-4.6-11.89-11.852-11.89a51.039 51.039 0 0 0 -9.769 1.18c-4.325.75-5.366.92-7.608 1.22zm32.149-7.9c2-.25 2.923-.38 11.531-1.18l2.523-.25 1.641-.12c-5.605 3.99-8.568 8.9-8.568 14.11 0 5.88 3.443 10.04 9.649 11.72 3.484.93 6.807 1.26 12.933 1.26l.881-7.22c-1.281.08-2.362.12-3.643.12a32.419 32.419 0 0 1 -9.13-1.09c-2.722-.88-4.084-2.6-4.084-5.12 0-5.72 6.046-12.31 12.973-14.12a22.129 22.129 0 0 1 3.964-.34c.721 0 1.482.05 3.2.13l-.161-6.72-3.843.13c-7.528.16-11.412.37-21.782 1-5.766.42-6.247.42-8.449.47zm36.24 16.05a89.771 89.771 0 0 1 7.928 10.42l5.766-4a90.4 90.4 0 0 0 -8.649-9.91zm35.616-21.01h-14.777v5.05h12.735l-.48.5.48.84h-11.694v4.91h12.894v-2.85l1.6 2.73c.8-.88 1-1.14 1.361-1.6v22.52h20.939v-5.8h-5.8v-3.91h4.765v-5.2h-4.765v-3.66h4.765v-5.17h-4.765v-3.61h5.4v-5.63h-4.965a45.8 45.8 0 0 0 2.2-5.46l-6.006-.71a25.512 25.512 0 0 1 -2.162 6.17h-3.484a54.347 54.347 0 0 0 1.882-5.5l-5.886-.84a26.516 26.516 0 0 1 -4.244 9.7v-2.48zm11.892 4.75v3.61h-4.244v-3.61zm0 8.78v3.66h-4.244v-3.66zm0 8.86v3.91h-4.244v-3.91zm-25.626-28.6v4.87h12.892v-4.87h-12.894zm0 18.9v4.87h12.892v-4.87h-12.894zm0 6.26v13.15h12.892v-13.15h-12.894zm8.529 4.62v3.57h-3.283v-3.57zm54.59-14.58a34.618 34.618 0 0 1 4.324 8.03l3.564-2.15a36.681 36.681 0 0 0 -4.525-7.85zm5.445-2.77a35.533 35.533 0 0 1 4.485 7.94l3.563-2.06a36.985 36.985 0 0 0 -4.644-7.77zm-27.828-1.26c2-.25 2.923-.38 11.532-1.18l2.522-.25 1.642-.12c-5.606 3.99-8.569 8.9-8.569 14.11 0 5.88 3.444 10.04 9.65 11.72 3.484.93 6.807 1.26 12.933 1.26l.881-7.22c-1.281.08-2.362.12-3.644.12a32.411 32.411 0 0 1 -9.129-1.09c-2.723-.88-4.084-2.6-4.084-5.12 0-5.72 6.046-12.31 12.973-14.12a22.129 22.129 0 0 1 3.964-.34c.721 0 1.481.05 3.2.13l-.16-6.72-3.844.13c-7.527.16-11.411.37-21.782 1-5.765.42-6.246.42-8.448.47zm53.509-5.67.16-4.62-6.807-.08-.12 4.7h-6.607v6.13h6.487l-.08 5.34h-6.647v6.13h6.527v2.02c0 5.04 1.121 8.06 3.723 9.91 1.962 1.43 4.4 1.93 8.969 1.93 5.686 0 8.689-.63 10.971-2.31 2.483-1.85 3.764-5 3.764-9.28a22.79 22.79 0 0 0 -2.8-10.71l-5.8 1.68a19.89 19.89 0 0 1 1.962 8.19c0 4.54-1.8 5.92-7.728 5.92-4.485 0-5.806-.5-6.327-2.48a22.067 22.067 0 0 1 -.24-4.87h.921c4.805 0 8.729-.29 9.93-.8l-.28-6c-1.4.46-4.284.67-9.69.67h-.731l.2-5.34h10.69v-6.13h-10.45z"/><path d="m119.429 6427.11c-10.852 13.72-25.136 25.4-39.7 32.3l8.812 12.07c14.655-8.08 27.733-19.27 36.081-30.85l.093 21.7c0 2.44-1.206 3.31-4.267 3.31-1.484 0-4.823-.19-11.037-.68l2.133 15.08c8.9.3 9.461.3 11.965.3 6.029 0 8.812-.68 11.5-2.92s4.36-6.33 4.36-10.8l-.186-39.51h20.037v-14.7h-20.035v-14.69h-14.655v14.69h-40.63v14.7h35.525zm72.023-27.15h-15.49v51.96h15.49zm43.5-1.46h-15.674v41.55c-.371 17.22-9.646 23.35-38.957 25.5l5.658 14.98c34.968-3.7 48.139-14.79 48.974-41.74v-40.29zm17.438 16.35a117.566 117.566 0 0 1 28.939 14.79l7.791-14.11a117.239 117.239 0 0 0 -30.145-13.92zm5.1 64.61c40.534-5.16 61.867-23.74 73.647-64.22l-12.986-9.44c-10.017 38.24-27.269 53.52-64 56.92zm102.65-79.6h-15.21v61.99c.186 11.09 5.936 15.76 18.922 15.66h31.814a104.226 104.226 0 0 0 16.789-1.36l-.928-15.96c-5.287 1.46-12.614 2.24-20.5 2.24h-24.207c-5.844 0-6.678-.68-6.678-5.25v-16.35a220.414 220.414 0 0 0 43.872-15.77l-7.142-14.49a150.985 150.985 0 0 1 -36.73 14.98v-25.69zm51.849-10.12a12.9 12.9 0 0 0 -12.8 13.14c0 7.39 5.565 13.33 12.614 13.33 6.957 0 12.522-5.94 12.522-13.23.002-7.21-5.656-13.24-12.334-13.24zm-.371 6.62a6.631 6.631 0 1 1 -6.122 6.62 6.409 6.409 0 0 1 6.124-6.62zm15.722 26.66a103.714 103.714 0 0 1 7.327 24.52l12.522-3.11c-2.319-10.61-5.009-18.68-8.162-24.72zm21.519-4.47c2.875 7.1 4.73 14.2 6.492 24.23l12.151-2.83c-1.206-7.88-4.174-18.19-6.956-23.93zm31.536-2.24c-6.029 34.83-16.047 46.22-46.748 53.61l9.368 11.68c30.238-8.27 44.522-25.2 51.849-61.69zm50.522-15.38a57.753 57.753 0 0 1 -22.818 27.15l9.461 11.48c9-5.83 16.51-13.72 23-24.32h26.62c-4.174 28.31-23.188 46.51-54.168 51.86l6.029 14.4c40.163-7.88 62.794-35.81 65.206-80.57h-53.328zm69.156-2.63a353.785 353.785 0 0 0 -3.246 48.76 205.262 205.262 0 0 0 2.226 32.98l15.49-1.07a204.188 204.188 0 0 1 -2.5-34.74 251.279 251.279 0 0 1 3.618-44.76zm24.209 6.62v15.18h46.469v-15.18h-46.467zm2.133 33.38a34.367 34.367 0 0 0 -4.916 17.22c0 5.06 1.577 9.73 4.174 12.46 5.1 5.45 13.635 7.69 29.31 7.69a131.229 131.229 0 0 0 17.531-.98l-.279-15.76a210.347 210.347 0 0 1 -22.353 1.17c-10.3 0-14.748-2.05-14.748-6.82 0-3.3 1.577-7.2 4.452-11.28zm-548.725 84.32v12.16h17.716a58.565 58.565 0 0 1 -18.829 7.88l5.658 13.33a89.843 89.843 0 0 0 9.465-3.99l2.875 6.23c15.675-3.11 24.023-6.52 35.432-14.6l-7.42-7.59c-8.348 5.65-13.913 8.28-21.519 10.22a67.169 67.169 0 0 0 12.521-11.48h15.676c7.606 9.83 17.437 17.32 30.887 23.74l6.307-13.72c-6.771-1.75-15.768-6.13-20.684-10.02h19.2v-12.16h-43.227c.835-1.66 1.484-2.92 2.133-4.48l4.174-.2 4.174-.29 13.171-.68c1.3 1.46 2.319 2.73 3.988 4.96l11.78-7.49c-4.73-6.42-9.646-11.29-18.922-18.58l-12.336 6.52a63.34 63.34 0 0 1 5.751 4.67l-9.461.09c-5.009.1-8.533.2-9.739.2h-5.473l.186-.29a113.3 113.3 0 0 0 6.307-11.49l-15.119-1.55a117.767 117.767 0 0 1 -6.121 13.23c-5.009.1-5.194.1-9.368-.1h-5.566l1.113 11.97c4.916.1 7.606.1 11.038.1 6.493 0 11.687-.1 17.252-.39a30.157 30.157 0 0 1 -2.319 3.8zm56.672 23.35c-11.594 8.86-27.455 14.21-47.211 15.96l4.267 10.12c23.374-3.41 40.07-9.54 50.737-18.68zm12.615 9.54c-12.893 11.77-31.351 17.71-61.774 19.85l3.9 11.87c28.29-.97 52.592-9.25 67.9-22.97zm36.263-44.86h-11.223v14.59h11.223c-.556 24.23-4.359 38.63-13.356 49.53l9.831 12.85c11.131-13.04 16.047-31.04 16.974-62.38h5.658c0 18.3-.371 30.66-1.3 39.02-.65 6.23-1.113 7.2-3.9 7.3h-7.42l2.04 15.18h11.6c5.843 0 9.182-2.92 10.388-8.85 1.391-4.38 2.5-33.67 2.5-67.24h-19.473v-16.06h-13.542zm37.936-12.17v86.22h35.339v-86.22zm21.983 14.21v57.61h-8.905v-57.61zm76.315 19.27a79.755 79.755 0 0 1 10.018 18.58l8.255-4.96c-3.618-7.98-6.957-13.82-10.482-18.2zm12.615-6.43c4.359 5.84 6.678 10.03 10.388 18.4l8.255-4.77c-3.617-7.69-7.142-13.63-10.759-18zm-64.464-2.91c4.638-.59 6.771-.88 26.713-2.73l5.843-.58 3.8-.29c-12.985 9.24-19.849 20.62-19.849 32.69 0 13.62 7.977 23.26 22.354 27.15 8.069 2.14 15.768 2.92 29.959 2.92l2.041-16.74c-2.968.2-5.473.29-8.441.29-8.533 0-16.417-.97-21.148-2.53-6.307-2.04-9.461-6.03-9.461-11.87 0-13.23 14.006-28.51 30.053-32.69a50.227 50.227 0 0 1 9.182-.78c1.67 0 3.432.1 7.42.29l-.371-15.57-8.9.29c-17.438.39-26.435.88-50.458 2.34-13.356.97-14.469.97-19.571 1.07zm161.475-17.03a117.079 117.079 0 0 1 -21.333 2.92c-.371-5.26-.464-6.91-.557-10.12l-15.3.38c.185 4.09.371 6.23.742 10.22h-29.039v13.14h30.98c.927 4.57 1.206 5.64 1.762 7.59h-35.988v12.75h39.976c3.247 8.46 6.493 14.2 10.482 18.58l13.175-8.37a52.648 52.648 0 0 1 -7.421-10.8l1.484-.19a141.9 141.9 0 0 0 19.664-2.73l-1.948-13.13a126.517 126.517 0 0 1 -24.208 3.5c-.835-2.92-1.3-4.96-1.948-7.78a148.306 148.306 0 0 0 20.962-2.63zm-55.281 42.91c-4.452 5.35-6.4 9.83-6.4 14.69 0 6.13 3.988 12.07 10.2 15.09 6.4 3.01 13.727 3.99 29.959 3.99 10.11 0 14.377-.1 21.148-.68l-.649-14.99c-9.925.88-16.418 1.17-24.765 1.17-14.748 0-20.87-1.95-20.87-6.72 0-2.14.835-3.89 3.339-7.1zm82.429-32.6c12.522-.29 19.756-.58 27.919-1.17-11.5 10.61-26.713 23.65-38.493 32.7l8.348 13.04c5.472-5.35 9.368-8.95 12.707-11.78 8.9-7.29 16.325-10.41 25.044-10.41 10.759 0 17.437 5.55 17.437 14.4a15.272 15.272 0 0 1 -5.472 11.97 24.527 24.527 0 0 0 -22.447-15.47c-10.2 0-17.994 7.01-17.994 16.06 0 10.7 9.925 17.51 25.415 17.51 21.24 0 34.968-11.97 34.968-30.45 0-15.77-10.481-26.47-25.878-26.47a44.938 44.938 0 0 0 -8.719 1.07c8.719-6.91 16.232-12.65 19.478-14.89v-11.87c-11.873.48-25.415.78-36.916.78-3.8 0-4.823 0-15.4-.1v15.08zm35.9 54.3a22.13 22.13 0 0 1 -5.1.49c-6.956 0-11.038-2.14-11.038-5.84 0-2.24 2.134-3.89 5.1-3.89 4.909 0 8.619 3.11 11.031 9.24zm43.527-70.74 1.948 55.27h12.707l1.855-55.27zm.464 78.23h15.582v-15.76h-15.589v15.76z"/></g></svg>