<svg height="259.5" viewBox="0 0 618.031 259.5" width="618.031" xmlns="http://www.w3.org/2000/svg"><g fill="#fff" fill-rule="evenodd" transform="translate(-67 -5316.16)"><path d="m84.867 5330.92a45.826 45.826 0 0 1 -15.686 12.77l3.482 4.77a44.506 44.506 0 0 0 14.256-12.19l.037 8.57c0 .96-.476 1.31-1.686 1.31-.586 0-1.906-.08-4.361-.27l.843 5.96c3.518.12 3.738.12 4.728.12 2.382 0 3.482-.27 4.544-1.16a5.583 5.583 0 0 0 1.722-4.27l-.073-15.61h7.916v-5.8h-7.916v-5.81h-5.79v5.81h-16.053v5.8zm28.457-10.73h-6.124v20.54h6.12v-20.54zm17.188-.57h-6.193v16.42c-.147 6.8-3.812 9.22-15.393 10.07l2.236 5.92c13.816-1.46 19.02-5.84 19.35-16.49zm6.89 6.46a46.264 46.264 0 0 1 11.434 5.84l3.079-5.57a46.46 46.46 0 0 0 -11.911-5.5zm2.016 25.53c16.015-2.04 24.444-9.38 29.1-25.38l-5.131-3.73c-3.958 15.11-10.775 21.15-25.288 22.5zm40.558-31.45h-6.01v24.49c.073 4.38 2.345 6.23 7.476 6.19h12.57a40.957 40.957 0 0 0 6.634-.54l-.367-6.3a32.529 32.529 0 0 1 -8.1.88h-9.565c-2.309 0-2.639-.27-2.639-2.08v-6.46a86.583 86.583 0 0 0 17.335-6.23l-2.822-5.72a60.03 60.03 0 0 1 -14.513 5.92v-10.15zm20.487-4a5.241 5.241 0 1 0 4.874 5.23 5.092 5.092 0 0 0 -4.874-5.23zm-.147 2.61a2.622 2.622 0 1 1 -2.419 2.62 2.531 2.531 0 0 1 2.419-2.62zm6.212 10.54a40.882 40.882 0 0 1 2.9 9.69l4.948-1.23a39.531 39.531 0 0 0 -3.225-9.77zm8.5-1.77a45.151 45.151 0 0 1 2.566 9.57l4.8-1.11a38.786 38.786 0 0 0 -2.749-9.46zm12.461-.89c-2.382 13.77-6.34 18.27-18.471 21.19l3.7 4.62c11.947-3.27 17.591-9.96 20.486-24.38zm19.962-6.07a22.867 22.867 0 0 1 -9.016 10.73l3.739 4.53a29.244 29.244 0 0 0 9.088-9.61h10.518c-1.649 11.19-9.162 18.38-21.4 20.5l2.382 5.69c15.869-3.12 24.811-14.15 25.764-31.84h-21.073zm26.76.19v5.81h17.225a35.2 35.2 0 0 1 -19.387 20.34l3.3 5.11a42.987 42.987 0 0 0 13.927-10.61 113.514 113.514 0 0 1 10.225 10.84l4.947-5a79.961 79.961 0 0 0 -9.272-8.49c-.806-.66-1.576-1.27-2.309-1.93a40.448 40.448 0 0 0 6.3-16.07h-24.954zm38.543 31.72c15.246-4.07 24.005-15.3 24.994-31.91h-20.848a22.661 22.661 0 0 1 -9.418 11.23l3.884 4.65a23.973 23.973 0 0 0 4-3.27 49.111 49.111 0 0 1 8.9 6 28.62 28.62 0 0 1 -14.549 7.77zm17.848-26.34a24.561 24.561 0 0 1 -2.9 8.54 40.193 40.193 0 0 0 -8.978-5.46c.989-1.38 1.429-2.04 2.089-3.08h9.787zm13.911-1.42a49.8 49.8 0 0 1 11.031 4.38l2.346-5.38a46.707 46.707 0 0 0 -11.288-3.96zm18.4-6.61a33.091 33.091 0 0 1 3.261 7.53l3.006-1.53a31.321 31.321 0 0 0 -3.445-7.39zm-21.293 15.57a44.622 44.622 0 0 1 10.7 4.69l2.236-5.42a37.866 37.866 0 0 0 -10.885-4.31zm27.08-15.69a31.584 31.584 0 0 1 3.079 7.62l3.041-1.47a31.952 31.952 0 0 0 -3.261-7.49zm-23.638 33.8c14.806-1.92 22.1-7.92 27.083-22.11l-5.021-3.84c-4.141 13.49-9.748 18.15-23.345 19.34zm49.855-17.65 3.555 3.85c6.78-4.19 9.6-8.85 10.811-17.84h-31.221v5.88h23.895c-1.173 3.11-3.152 5.15-6.927 7.23.147-1.58.183-2.69.257-4.39l-6.047-.03c0 10.45-2.639 14.88-11.178 18.53l3.848 4.92c7.989-3.92 12.057-9.46 12.937-17.65l.037-.19zm17.435 10.27h-3.592l.7 6.3c7.4-.3 15.5-.88 20.779-1.46l3.225-.34c.44 1.15.7 1.88 1.173 3.34l5.827-2.65a63.169 63.169 0 0 0 -8.942-17.11l-5.058 2.46a72.677 72.677 0 0 1 4.435 7.96c.183.42.183.42.33.73l-3.409.23c-2.858.23-5.937.38-9.711.46a184.718 184.718 0 0 0 7.512-24.11l-6.3-1.15c-2.016 8.84-4.1 16.49-6.377 23.49zm45.227-22.61c.22-.96.4-1.69.7-3.19l-6.011-.31c-.22 1.35-.366 2.19-.659 3.5h-7.77v5.15h6.3a33.493 33.493 0 0 1 -7.77 12.31l3.922 4.23a55.538 55.538 0 0 0 4.764-6.46c2.162-2.23 4.251-3.39 6.047-3.39a2.364 2.364 0 0 1 2.309 1.16 34.389 34.389 0 0 0 -5.461 3.34 8.692 8.692 0 0 0 -3.775 6.65 6.222 6.222 0 0 0 3.885 5.85c2.236.92 5.277 1.31 10 1.31 1.356 0 1.466 0 7.806-.2l-.036-5.73a68.693 68.693 0 0 1 -9.2.5c-5.021 0-6.45-.53-6.45-2.5 0-1.5 1.136-2.69 4.068-4.19a4.959 4.959 0 0 1 .036.73 29.552 29.552 0 0 1 -.146 3.27h5.5c.037-1.15.073-1.73.073-2.54a29.367 29.367 0 0 0 -.146-3.61 60.658 60.658 0 0 1 8.356-2.38l-1.063-5.7c-1.8.47-5.351 1.74-8.319 2.93a5.477 5.477 0 0 0 -5.644-3.58 8.791 8.791 0 0 0 -4.508 1.35 31.794 31.794 0 0 0 1.539-3.35h14.989v-5.15h-13.34zm45.436 3.46v-5.69h-5.9v5.69h-9.639v5.77h9.785l.037 6.46a7.405 7.405 0 0 0 -2.272-.27c-4.948 0-8.356 2.96-8.356 7.27 0 4.46 3.372 7.38 8.466 7.38 4.508 0 7.33-2.04 7.549-5.46l.037-.5a19.337 19.337 0 0 1 3.665 3.65l3.591-5.34a25.317 25.317 0 0 0 -6.926-5.08v-8.11h5.937v-5.77zm-5.607 19.23c0 1.65-.843 2.38-2.675 2.38-1.869 0-3.079-.88-3.079-2.31 0-1.38 1.32-2.3 3.3-2.3a5.585 5.585 0 0 1 2.455.53v1.7zm-17.591-25.19a95.008 95.008 0 0 0 -1.283 16.92 100.9 100.9 0 0 0 1.026 15.57l5.864-.69a80.5 80.5 0 0 1 -1.209-14.92 76.376 76.376 0 0 1 1.5-16.46zm47.7 4.73a33.345 33.345 0 0 1 4.618 7.38l3.262-2.15a35.666 35.666 0 0 0 -4.765-7.23zm4.911-3.23a33.963 33.963 0 0 1 4.8 7.3l3.225-2.22a36.345 36.345 0 0 0 -4.984-7.12zm-16.455-1.5v3.5c0 .84 0 2.84-.037 5-.073 4.5-.11 8.53-.11 10.65 0 5.46.88 8.65 2.932 10.73 1.943 1.92 4.691 2.84 8.576 2.84 8.759 0 13.56-4.57 15.649-14.96l-5.5-2.73a23.872 23.872 0 0 1 -1.686 6.46 8.459 8.459 0 0 1 -8.356 5.27c-4.251 0-5.644-1.84-5.644-7.46 0-3.54.33-15.42.55-19.19zm49.027 32.8c9.236-.85 14.11-5.65 14.11-13.88 0-7.42-3.848-12.27-10.7-13.38.183-1.31.22-1.77.439-5.35l-5.973-.42c-.037 1.46-.037 1.65-.257 5.65a18.159 18.159 0 0 0 -6.706 2.08 43.07 43.07 0 0 1 -.88-5.65l-5.021 1.49a60.078 60.078 0 0 0 1.576 7.31 15.111 15.111 0 0 0 -4.324 10.65c0 5.35 2.858 9.08 6.963 9.08 6.12 0 11.361-7.73 13.3-19.58 4.031.7 6.011 3.16 6.011 7.54 0 3.5-1.063 5.58-3.665 7.15a13.969 13.969 0 0 1 -6.634 1.77zm-5.02-13.92a25.289 25.289 0 0 1 -2.749-6.27 15.8 15.8 0 0 1 5.021-1.92 44.819 44.819 0 0 1 -2.268 8.19zm-2.639 4.23c-1.136 1.23-1.759 1.61-2.675 1.61-1.466 0-2.383-1.34-2.383-3.46a9.93 9.93 0 0 1 1.247-4.8 24.2 24.2 0 0 0 3.815 6.65zm34.181-23.23c0 8.42.257 10.66 1.54 12.58-5.9 2.96-8.833 6.61-8.833 10.92a7.855 7.855 0 0 0 3.812 6.84c3.078 1.73 6.45 2.31 13.45 2.31 3.738 0 6.34-.12 10.261-.42v-6.31a89.711 89.711 0 0 1 -11.837.69c-4.654 0-6.67-.23-7.916-.96a2.685 2.685 0 0 1 -1.466-2.42c0-2.65 2.419-4.61 8.026-6.42a54.411 54.411 0 0 1 12.131-2.39l-.733-6.46a70.731 70.731 0 0 0 -11.581 2.46c-.587-1.03-.66-1.69-.66-5.22 0-2.2.037-3.31.11-5.2h-6.3zm27.5.12v3.5c0 .84 0 2.84-.037 5-.073 4.5-.11 8.53-.11 10.65 0 5.46.88 8.65 2.932 10.73 1.942 1.92 4.691 2.84 8.576 2.84 8.758 0 13.559-4.57 15.648-14.96l-5.5-2.73a23.8 23.8 0 0 1 -1.686 6.46 8.457 8.457 0 0 1 -8.356 5.27c-4.251 0-5.643-1.84-5.643-7.46 0-3.54.329-15.42.549-19.19zm49.735 9.61v-5.73h-8.1c.256-1.92.293-2.15.513-4.07l-6.047-.19c-.11 2.15-.184 2.99-.33 4.26h-5.314v5.73h4.581a107.592 107.592 0 0 1 -5.534 21.54l5.9 1.84a202.455 202.455 0 0 0 5.388-23.38h8.942zm-5.534 10.42a10.4 10.4 0 0 0 -1.942 5.62 5.836 5.836 0 0 0 2.638 4.96c2.2 1.42 4.508 1.84 10.189 1.84 2.2 0 3.811-.04 5.9-.11l-.11-6.04a59.175 59.175 0 0 1 -6.743.35c-4.838 0-6.45-.54-6.45-2.16a4.26 4.26 0 0 1 1.026-2.57zm2.712-3a23.4 23.4 0 0 1 9.382-1.57c1.429 0 2.382.04 4.105.15v-6h-1.869c-6.634 0-9.456.46-13.67 2.31z"/><path d="m99.486 5404.72v3.68h-24.511v9.16h23.941c-.326 1.79-.489 2.73-.651 3.76h-30.456v11.12h25.977c-3.257 4.79-13.762 8.81-26.792 10.35l4.886 12.58c17.02-3.34 29.561-11.04 34.121-20.96 5.944 10.86 17.182 17.62 34.12 20.79l4.968-12.75c-13.681-1.45-22.15-4.71-26.222-10.01h25.652v-11.12h-34.528a29.083 29.083 0 0 0 .651-3.76h26.466v-9.16h-25.814v-3.68h22.72v-5.21h8.632v-20.19h-30.456v-4.96h-12.378v4.96h-29.968v20.19h7.98v5.21zm0-9.83h-17.834v-4.79h17.834zm11.808 0v-4.79h19.3v4.79zm60.782-18.48h-24.511v78.53h10.749v-25.92l2.443 11.12h2.443c5.863 0 9.935-5.3 9.935-13.09 0-6.84-2.687-16.59-5.945-22.07a10.136 10.136 0 0 0 .407-1.28c.652-1.88 1.222-3.77 1.792-5.65l.163-.43.081-.34 2.118 3.51a17.207 17.207 0 0 0 1.791-1.37c1.384 1.03 2.117 1.63 4.805 3.94a29.536 29.536 0 0 1 -8.062 5.73l5.944 9.06a59.254 59.254 0 0 0 7-5.98v3.59h27.771v-3.17a45.17 45.17 0 0 0 6.678 5.99l7.085-10.09a46.538 46.538 0 0 1 -9.121-7.27 52.146 52.146 0 0 0 7.248-11.81v-11.89h-19.218c-.081-.77-.162-1.11-.407-2.65l-9.446 1.62a6.442 6.442 0 0 1 .081 1.2h-6.107a31.974 31.974 0 0 0 1.221-3.16l-10.342-.86c-1.058 4.36-3.013 8.13-6.6 12.92v-10.18zm-13.762 51.5v-39.95h4.479a134.822 134.822 0 0 1 -4.153 18.73 34.435 34.435 0 0 1 4.723 17.45c0 2.91-.57 3.77-2.362 3.77zm20.928-34.56 1.385.85a26.059 26.059 0 0 1 3.5 2.14 15.246 15.246 0 0 1 -1.71 2.4c-2.361-1.72-3.42-2.48-4.8-3.34zm9.61-6.42a40.238 40.238 0 0 1 -1.955 4.62c-1.466-.94-2.606-1.63-3.339-2.05a10.632 10.632 0 0 1 -1.384-.6c.651-1.03.9-1.37 1.222-1.97zm.814 18.05a55.932 55.932 0 0 0 7.736-14.11 65.879 65.879 0 0 0 7.492 14.11zm24.023-18.05a30.836 30.836 0 0 1 -3.828 6.93 40.35 40.35 0 0 1 -3.5-6.93h7.329zm-29.561 56.55a41.328 41.328 0 0 0 3.828-6.33l-9.039-5.14c-2.362 5.22-7.655 10.44-13.681 13.6l8.143 8.39a43.981 43.981 0 0 0 9.446-8.81l1.873 9.75h10.913c4.315.26 6.921-2.48 7-7.36v-16.17h19.218v-11.03h-48.043v11.03h17.427v9.84c.082 1.71-.407 2.4-1.873 2.31zm40.554 1.79c-3.583-2.56-8.957-9.24-10.912-13.43l-8.958 5.48c2.932 6.84 5.7 10.78 12.215 16.93zm40.408 5.48c8.632-.94 15.8-3.51 20.928-7.62 7.818-6.33 12.378-17.11 12.378-29.51 0-21.13-13.274-34.47-34.284-34.47-22.719 0-38.518 15.91-38.518 38.92 0 15.14 7 25.66 17.02 25.66 7.9 0 14.495-6.07 18.567-17.19a114.035 114.035 0 0 0 6.677-34.39c10.75 1.11 16.857 8.64 16.857 20.62 0 14.97-8.225 23.52-23.86 24.8zm-9.691-57.83c-1.059 12.15-2.2 18.31-4.723 26-2.2 6.76-4.642 10.1-7.492 10.1-3.013 0-5.049-4.28-5.049-10.69a28.257 28.257 0 0 1 7.818-20.02c2.524-2.48 4.56-3.68 9.447-5.39zm82.989 62.36c10.342-5.73 13.68-11.72 14.251-25.15h3.013v18.82c0 3.76 2.117 5.9 5.944 5.9h9.039c5.456-.6 6.759-3.93 7.085-17.7l-9.2-2.14-.081.94v1.97l-.082 4.1c-.081.86-.326 1.2-.9 1.2h-1.14c-.733 0-.9-.51-.9-1.97v-11.12h8.632v-21.56h-34.684v21.56h3.746c-.244 5.65-2.2 9.75-6.026 12.15l-.489-8.13c-3.094 1.63-5.537 2.74-7.247 3.51v-7.53h5.211v-21.56h-31.84v21.56h3.99a17.908 17.908 0 0 1 -8.225 15.06l6.922 10.26c7.248-6.41 10.179-13.43 10.668-25.32h3.339v23.27c5.863-2.4 9.283-3.94 13.843-6.16zm-14.5-38.92v5.99h-10.18v-5.99zm39.006 0v5.99h-12.373v-5.99h12.379zm-49.511-42.43v4.79h-11.233v10.43h3.257a31.768 31.768 0 0 1 .815 5.57h-6.108v10.6h35.994v-10.6h-4.561a49.485 49.485 0 0 0 1.3-5.57h3.013v-10.43h-11.072v-4.79h-11.4zm9.12 15.22a29.875 29.875 0 0 1 -.977 5.57h-5.293a54.738 54.738 0 0 0 -1.059-5.57zm28.828-15.22v4.79h-13.03v10.43h4.235c.244.95.57 3.08.9 5.57h-5.456v10.6h39.006v-10.6h-6.352c.489-2.06.9-3.43 1.3-5.57h3.1v-10.43h-12.134v-4.79h-11.564zm9.527 15.22c-.163 1.12-.163 1.37-.325 2.83-.163.68-.326 1.45-.652 2.74h-5.945l-.081-.69-.244-1.97-.326-1.96c0-.09-.081-.52-.163-.95zm96.361 53.38a68.841 68.841 0 0 1 -16.042-6.15c4.886-5.56 8.387-11.81 11.482-21.05v-12.4h-15.142v-8.73h18.4v-12.06h-18.4v-8.21h-12.133v8.21h-17.753v12.06h17.753v8.73h-16.124v11.97h12.459l-9.609 4.88a61.92 61.92 0 0 0 9.528 16.6 78.8 78.8 0 0 1 -19.3 7.01l5.375 12.32c10.1-3.17 17.671-6.67 23.289-10.61 4.968 3.85 11.564 7.27 20.2 10.61zm-17.59-27.63a36.874 36.874 0 0 1 -7.98 14.03 41.63 41.63 0 0 1 -8.632-14.03zm-39.983-15.39h6.677v-11.81h-6.677v-13.77h-11.803v13.77h-8.876v11.81h8.876v14.62c-3.339.86-5.863 1.46-9.039 2.23l.9 12.91c3.095-.76 5.212-1.28 8.144-2.22v13.6a1.62 1.62 0 0 1 -1.955 1.88h-6.6l1.955 12.58h11.645c4.479-.43 6.677-2.82 6.759-7.19v-24.8c2.687-.95 4.4-1.63 7-2.74l-.326-12.15c-2.28.86-3.827 1.46-6.677 2.4v-11.12zm133.054 49.95a148.187 148.187 0 0 0 -16.857-23.69l-.163-.17h16.857v-12.32h-73.456v12.32h18.16a113.506 113.506 0 0 1 -5.7 14.8h-9.041c-.325 0-1.3 0-2.768-.09l1.873 13.26c27.931-1.03 49.918-2.48 56.189-3.68 1.384 2.4 2.117 3.77 3.257 5.99zm-48.29-9.06.163-.35 2.443-5.39c.488-1.02.977-2.05 1.384-3.08.9-2.22 1.385-3.33 2.443-5.98h22.883l-9.609 4.79c2.28 2.91 4.234 5.47 6.759 9.07a232 232 0 0 1 -23.942.85zm-10.179-33.11h43.319v-5.22a82.224 82.224 0 0 0 12.134 6.59l6.352-12.92q-21.865-8.73-32.737-22.33h-14.499c-5.456 8.3-16.123 15.49-33.143 22.5l6.193 13.09a70.344 70.344 0 0 0 12.378-6.67v4.96zm9.283-11.46c5.7-4.54 9.935-8.64 12.459-12.06a90.277 90.277 0 0 0 12.7 12.06h-25.162zm90.457 34.04c-5.782 5.82-11.238 8.73-21.091 11.38l4.316 8.56c12.459-3.68 21.824-10.53 27.28-19.94h3.746c-3.828 8.05-10.994 14.46-21.417 18.99l6.922 7.36a42.536 42.536 0 0 0 13.68-9.58l1.548 8.3h12.3c8.469-.17 9.691-4.28 10.342-34.65h-32.9c.57-.85 1.059-1.54 2.036-3.25h32.736v-9.66h-54.969v9.66h11.237a32.7 32.7 0 0 1 -10.83 8.64l-.082-3.59a43.2 43.2 0 0 1 -4.56 1.88v-19.16h4.56v-12.23h-4.56v-18.4h-11.649v18.4h-6.516v12.23h6.515v22.84c-1.954.6-5.13 1.45-5.456 1.54l-2.117.51 1.3 13.35a196.092 196.092 0 0 0 22.8-8.64l-.081-1.2 1.384 2.22a44.082 44.082 0 0 0 9.283-5.56h4.235zm15.309 14.63a49.367 49.367 0 0 0 8.307-14.28l.162-.35h2.606c-.651 13.18-1.058 14.55-4.4 14.63h-6.678zm-27.524-68.09v27.89h47.068v-27.89h-47.071zm35.5 7.61v3.94h-24.1v-3.94zm0 9.33v4.02h-24.1v-4.02zm51.457-9.5c.489-2.14.9-3.76 1.547-7.1l-13.355-.68c-.488 2.99-.814 4.87-1.465 7.78h-17.262v11.46h14.006a74.4 74.4 0 0 1 -17.264 27.38l8.714 9.41c2.117-2.14 5.13-6.33 10.586-14.37 4.8-4.96 9.446-7.53 13.437-7.53 2.524 0 4.234.85 5.13 2.57a76.183 76.183 0 0 0 -12.134 7.44c-5.293 4.02-8.387 9.49-8.387 14.8a13.842 13.842 0 0 0 8.632 13c4.967 2.05 11.726 2.91 22.231 2.91 3.013 0 3.257 0 17.345-.43l-.081-12.75a153.749 153.749 0 0 1 -20.44 1.12c-11.156 0-14.332-1.2-14.332-5.56 0-3.34 2.524-5.99 9.039-9.33a10.989 10.989 0 0 1 .081 1.63 66.107 66.107 0 0 1 -.325 7.27h12.215c.081-2.57.162-3.85.162-5.65a65.517 65.517 0 0 0 -.325-8.04 137.2 137.2 0 0 1 18.566-5.3l-2.361-12.66a187.726 187.726 0 0 0 -18.485 6.5c-2.443-5.56-6.271-7.96-12.541-7.96-3.176 0-5.293.6-10.016 3a72.213 72.213 0 0 0 3.42-7.45h33.306v-11.46h-29.642z"/><path d="m87.834 5478.35h-17.56v58.92h17.56zm49.313-1.65h-17.769v47.11c-.421 19.53-10.935 26.48-44.162 28.91l6.414 16.99c39.64-4.19 54.571-16.77 55.517-47.33zm65.116 41.71 10.2 11.03c19.452-12.03 27.549-25.38 31.018-51.19h-89.581v16.88h68.555c-3.365 8.93-9.042 14.78-19.873 20.74.421-4.53.526-7.73.736-12.58l-17.349-.11c0 30.01-7.57 42.7-32.069 53.18l11.04 14.12c22.922-11.25 34.593-27.14 37.117-50.64l.1-.55zm73.265-38.84h-16.719v26.26c.211 24.71-4 39.39-14.72 51.19l12.722 13.57c12.933-12.91 18.611-33.21 18.717-66.31zm28.494-2.76h-16.822v91.47c30.387-1.55 47.1-17.11 54.676-50.87l-15.982-7.17c-3.26 20.08-9.569 30.34-21.871 35.97v-69.4zm51.517-.33a401.1 401.1 0 0 0 -3.68 55.28 232.91 232.91 0 0 0 2.524 37.4l17.559-1.22c-2-12.13-2.839-23.83-2.839-39.38a285.138 285.138 0 0 1 4.1-50.76zm27.443 7.5v17.21h52.679v-17.21zm2.419 37.85c-3.786 6.73-5.573 13.01-5.573 19.52 0 5.74 1.787 11.04 4.732 14.13 5.783 6.18 15.456 8.71 33.226 8.71a149.474 149.474 0 0 0 19.873-1.1l-.316-17.87a238.84 238.84 0 0 1 -25.34 1.32c-11.671 0-16.719-2.32-16.719-7.72 0-3.75 1.788-8.17 5.048-12.8zm160.669-33.44v-15h-99.153v15h42.483v5.74h-34.282v40.49h-8.618v15.01h8.622v25.16h15.768v-25.16h51.522v7.28c0 2.21-.526 2.87-2.734 2.87h-14.826l2.734 15.01h20.188c7.15 0 10.094-3.09 10.094-10.49v-14.67h8.732v-15.01h-8.727v-40.49h-34.283v-5.74zm-56.67 19.64v7.18h-18.51v-7.18zm0 18.98v7.61h-18.51v-7.61zm33.016-18.98v7.18h-18.826v-7.18h18.822zm0 18.98v7.61h-18.826v-7.61h18.822zm40.758 18.54a65.435 65.435 0 0 1 -11.566 2.42l2.523 16.89c9.358-2.43 27.759-9.6 33.857-13.13l-.946-14.46a82.2 82.2 0 0 1 -9.148 3.53v-17.65h7.676v-15.12h-7.68v-17.54h9.148v-15.44h-34.067v15.44h10.2v17.54h-8.622v15.12h8.622v22.4zm27.443-72.38v64.21h8.412c-.842 10.82-9.043 18.1-25.656 22.84l8.517 15.45c20.293-7.06 28.81-17.32 31.439-38.29h4.836v27.7c.211 6.4 2.944 8.93 9.569 8.71h15.766c7.465-.66 8.832-4.41 9.883-26.48l-12.512-2.65c-.315 11.59-.631 13.35-2.524 13.58h-3.257c-2-.67-2.313-1-2.313-3.43v-17.43h16.723v-64.21h-58.887zm43.741 13.79v5.41h-28.81v-5.41zm0 16v5.63h-28.81v-5.63zm0 16.11v5.62h-28.81v-5.62zm28.708-43.36 2.208 62.67h14.406l2.1-62.67h-18.718zm.526 88.7h17.665v-17.87h-17.669v17.87z"/></g></svg>