<svg height="21.66" viewBox="0 0 201.22 21.66" width="201.22" xmlns="http://www.w3.org/2000/svg"><path d="m1023.82 1395.01 2.73 12.76h4.53l4.83-17.79h-4.11l-2.96 12.47-2.75-12.47h-4.55l-2.75 12.47-2.94-12.47h-4.11l4.8 17.79h4.53zm18.19 1.76v-3.04h7.3v-3.75h-11.21v17.79h11.46v-3.75h-7.55v-3.59h6.67v-3.66zm10.73-6.79v17.79h6.06a7.5 7.5 0 0 0 4.18-.88 4.743 4.743 0 0 0 2.08-4.19 4.833 4.833 0 0 0 -2.14-4.32 4.511 4.511 0 0 0 1.65-3.71 4.464 4.464 0 0 0 -2.7-4.21 7.781 7.781 0 0 0 -3.3-.48zm3.9 3.75h2.25a1.592 1.592 0 1 1 .08 3.17h-2.33zm0 6.5h2.54a1.9 1.9 0 1 1 -.13 3.79h-2.41zm24.9 2.29a8.92 8.92 0 0 1 -5.27 1.85 5.1 5.1 0 0 1 -5.42-5.49c0-3.32 2.06-5.51 5.19-5.51a5.769 5.769 0 0 1 4.24 1.7l1.26-3.75a9.78 9.78 0 0 0 -5.52-1.69c-5.31 0-9.07 3.83-9.07 9.25 0 5.54 3.63 9.24 9.07 9.24a12.029 12.029 0 0 0 5.52-1.28zm4.01-12.54-2.24 17.79h3.96l1.14-11.02 3.16 11.02h3.76l3.17-11.02 1.13 11.02h3.97l-2.23-17.79h-4.4l-3.51 11.88-3.52-11.88zm26.72 19.53h2.87v-17.59h3.47v-3.02h-6.34zm26.89-12.34v-3.64h-10.7a23.907 23.907 0 0 0 .92-3.35l-3.86-.38a13.552 13.552 0 0 1 -4.76 8.91l2.68 2.64a14.835 14.835 0 0 0 3.4-4.18h3.95c-.4 5.55-2.25 7.51-8.19 8.61l1.77 3.44c6.77-1.43 9.77-4.94 10.34-12.05zm-5.25-8.36a17.389 17.389 0 0 1 1.41 4.23l1.89-.59a18.534 18.534 0 0 0 -1.51-4.17zm3.05.02a16.788 16.788 0 0 1 1.42 4.24l1.89-.62a17.022 17.022 0 0 0 -1.53-4.17zm5.88 8.56v4.01h17.94v-4.01zm23.03 6.81-.69-.03-.71-.02.46 3.99c4.99-.22 9.31-.53 13.45-.99.31.84.44 1.21.67 1.9l3.65-1.68a34.669 34.669 0 0 0 -5.06-9.81l-3.19 1.54a36.725 36.725 0 0 1 2.5 4.59l.06.13c-1.34.11-4.84.31-6.84.35l.36-.97a101.481 101.481 0 0 0 3.82-12.6l-3.95-.73c-1.09 4.89-2.43 9.83-3.86 14.33zm39.08-11.55v-2.89h-5.24l.06-.2c.08-.2.08-.22.17-.46l-3.44-.31a8.427 8.427 0 0 1 -1.83 2.75v-1.85h-3.57c.11-.19.15-.33.28-.61l-3.65-.36a11.993 11.993 0 0 1 -2.98 3.44l1.59 1.96h-.04v7.19a8.587 8.587 0 0 1 -1.64 5.51l2.46 3.11a14.483 14.483 0 0 0 2.05-5.47v5.4h2.98v-3.35h1.24v3.2h2.71v-3.2h1.22v3.2h2.62v-3.2h1.34v.51c0 .31-.08.39-.38.39h-.79l.56 2.45h2.29c.92-.04 1.41-.68 1.39-1.83v-6.35h-14.88v-.13l.02-.4h14.1v-4.01h-14.1v-.57c.8.02 1.59.02 1.84.02a118.694 118.694 0 0 0 12.93-.66l-1.15-2.82c-.36.09-.38.11-.95.22l-.12-.24a1.337 1.337 0 0 1 -.15-.29 1.736 1.736 0 0 1 -.1-.15zm-15.57 1.54c-.33 0-.65 0-1.51-.02a13.565 13.565 0 0 0 1.39-1.52h.19a14.824 14.824 0 0 1 .54 1.54zm3.8-.46c-.1-.27-.1-.29-.38-.93l-.06-.15h1.51l1.51 1.36c-.21.05-3.27.14-5.1.16zm5.31-1.08a9.125 9.125 0 0 1 .42 1.05l.04.07c-.59.07-1.13.11-1.82.18a8.459 8.459 0 0 0 1.02-1.3zm-5.1 11.08v.93h-1.24v-.93zm3.93 0v.93h-1.22v-.93zm3.96 0v.93h-1.34v-.93zm-1.22-4.91v.7h-10.57v-.7zm12.9-9.55h-2.86v17.59h-3.48v3.02h6.34z" fill="#fff" fill-rule="evenodd" transform="translate(-1011.75 -1388.28)"/></svg>