<svg height="213.91" viewBox="0 0 512.438 213.91" width="512.438" xmlns="http://www.w3.org/2000/svg"><g fill="#fff" fill-rule="evenodd" transform="translate(-53.281 -3797.75)"><path d="m75.174 3804.73a38.779 38.779 0 0 1 4.533 7.61l4.868-3.14a25.059 25.059 0 0 0 -6.446-8.91l-4.465 2.82a8.439 8.439 0 0 1 .638.6h-6.145v-3.24h-5.607v3.24h-7.185v5.63h7.185v3.45c-5.372 2.4-7.991 5.64-7.991 9.87 0 4.37 3.022 7.29 7.521 7.29 3.928 0 6.077-1.94 6.077-5.46v-7.57a22.409 22.409 0 0 1 3.458-.36c3.357 0 5.237 1.52 5.237 4.27 0 3.17-2.149 4.58-7.118 4.61l.839 5.32a19.451 19.451 0 0 0 6.614-1.02 9.7 9.7 0 0 0 3.189-15.61c-1.88-1.9-4.9-2.89-8.864-2.89a16.867 16.867 0 0 0 -3.357.29v-2.19h7.017v-4.61zm-12.557 18.07c0 1.02-.168 1.27-.906 1.27a1.671 1.671 0 0 1 -1.711-1.76 4.312 4.312 0 0 1 2.619-3.77v4.26zm38.575 3.1.907 6.34h7.621c1.947-.07 2.954-1.34 2.921-3.66v-10.71h6.648v-5.92h-6.648v-.74a25.99 25.99 0 0 0 5.674-5.78v-5.74h-16.955v5.74h9.77a14.075 14.075 0 0 1 -2.317 2.89h-1.846v3.63h-6.446v5.92h6.446v6.73a.937.937 0 0 1 -.94 1.16h-4.734l.6-.85a34.013 34.013 0 0 0 -3.559-3.56c1.544-4.01 2.418-10.11 2.552-17.36h-5.737l.034-.14.3-3.88.1-1.16-5.3-.21-.034.91-.2 4.34v.14h-2.589v5.67h2.082a60.849 60.849 0 0 1 -1.981 9.76 29.553 29.553 0 0 1 4.331 3.17 22.04 22.04 0 0 1 -4.935 5.14l3.66 4.65a26.267 26.267 0 0 0 5.17-5.99 33.356 33.356 0 0 1 2.619 3.35zm-5.271-16.24a32.487 32.487 0 0 1 -1.712 8.42 15.15 15.15 0 0 0 -1.377-.92c.6-2.22 1.041-4.33 1.612-7.5zm56.668 7.19a21.435 21.435 0 0 0 -3.726-2.01c.369-2.4.738-5.5.94-8.35l-6.245-.53c-.1 2.22-.369 4.86-.638 6.8a30.2 30.2 0 0 0 -4.432-.92l.672-5.42.336-3.1.268-2.36h-15.578v5.92l9.031-.14c-.268 2.99-.4 4.26-.5 4.96-6.178.5-10.475 4.69-10.475 10.15 0 4.15 2.484 6.9 6.244 6.9 3.056 0 5.574-1.94 7.084-5.42a34.171 34.171 0 0 0 1.881-5.85 17.686 17.686 0 0 1 3.861 1.06l.3.1.168.07c-1.008 3.38-2.854 5.67-6.413 7.93l3.794 4.51a17.536 17.536 0 0 0 8.225-9.87 8.594 8.594 0 0 1 1.075.64c.134.07.873.53 2.182 1.37zm-20.849.28c-.94 4.05-1.947 5.77-3.324 5.77a1.108 1.108 0 0 1 -1.108-1.37c0-2.29 1.645-3.91 4.432-4.4zm40.738 13.42a15.823 15.823 0 0 0 8.561-3.14c3.257-2.6 5.17-7.15 5.17-12.33 0-8.73-5.506-14.26-14.235-14.26-9.4 0-15.948 6.58-15.948 16.1 0 6.37 2.955 10.7 7.286 10.7 3.391 0 6.144-2.53 7.823-7.22a48.1 48.1 0 0 0 2.618-13.66c3.962.45 6.245 3.34 6.245 7.92 0 6.03-3.223 9.41-9.434 9.94zm-4.331-23.5c-.706 8.28-2.552 13.88-4.6 13.88-1.108 0-1.847-1.55-1.847-3.91a11.237 11.237 0 0 1 2.888-7.75 8.136 8.136 0 0 1 3.559-2.22zm40.247 10.92c6.044-3.84 8.73-8.45 9.737-16.73h-28.807v5.92h21.42c-1.074 2.5-2.484 4.01-5.472 5.85a32.935 32.935 0 0 0 .168-3.49l-6.044-.04.034.6c0 4.9-.974 8.67-2.854 10.92a17.6 17.6 0 0 1 -7.386 5.04l3.861 4.93c7.554-3.73 11.079-8.52 12.053-16.45zm17.036-16.13c-.907 9.47-3.861 19.02-7.789 25.36l5.976 3.14c3.827-6.52 6.916-17.44 7.856-27.62zm8.763 2.15a113.766 113.766 0 0 1 7.487 25.64l6.379-1.76a97.382 97.382 0 0 0 -8.394-26.31zm6.815-3.35a31.6 31.6 0 0 1 2.686 7.01l2.619-1.3a31.055 31.055 0 0 0 -2.854-6.94zm4.029-1.65a29.776 29.776 0 0 1 2.753 7.01l2.619-1.34a29.775 29.775 0 0 0 -2.921-6.91zm11.1 32.16c13.966-3.67 22.192-14.23 22.964-29.52h-19.47a20.428 20.428 0 0 1 -8.561 10.28l3.894 4.65a20.119 20.119 0 0 0 3.559-2.88 44.413 44.413 0 0 1 7.554 5.07 25.177 25.177 0 0 1 -13.026 6.83zm15.746-23.89a20.986 20.986 0 0 1 -2.35 6.98 34.6 34.6 0 0 0 -7.655-4.51c.6-.81 1.007-1.41 1.678-2.47zm11.371 5.04v6.41h28.7v-6.41zm47.348-9.62c.2-.84.336-1.4.571-2.71l-6.01-.32c-.235 1.48-.336 1.98-.571 3.03h-6.983v5.18h5.506a30.7 30.7 0 0 1 -6.95 10.78l3.928 4.19a40.261 40.261 0 0 0 4.264-5.77c2.015-2.05 3.794-3.03 5.372-3.03a2.2 2.2 0 0 1 1.813.77c-5.741 2.89-8.192 5.6-8.192 9.02a5.869 5.869 0 0 0 3.693 5.53c2.048.81 4.969 1.2 9.2 1.2.537 0 2.887-.04 7.084-.11l-.034-5.77a63.951 63.951 0 0 1 -8.326.45c-4.4 0-5.574-.42-5.574-2.11 0-1.2.84-2.08 3.089-3.24l.034.7c0 .81-.034 1.2-.134 2.54h5.506c.033-1.62.033-1.62.033-2.29 0-1.13-.033-2.04-.1-3.06a56.244 56.244 0 0 1 7.386-2.01l-1.007-5.67a66.221 66.221 0 0 0 -7.521 2.53 5.049 5.049 0 0 0 -5.07-3.1 7.963 7.963 0 0 0 -3.894 1.02 23.528 23.528 0 0 0 1.208-2.57h13.5v-5.18h-11.818zm21.131 29.56h5.808v-24.24a44.422 44.422 0 0 0 2.585-8.77l-5.54-.46c-1.242 5.75-3.357 9.97-6.412 12.83l1.511 7.39a18.306 18.306 0 0 0 2.048-1.9zm16.35-29.34c.47-1.87.638-2.61.839-3.7l-5.472-.46a22.3 22.3 0 0 1 -5.674 11.48l2.484 6.06a22.663 22.663 0 0 0 5-6.52v22.48h5.741v-6.52h8.931v-5.74h-8.931v-2.85h8.931v-5.64h-8.931v-2.82h9.6v-5.77h-12.515zm17.468 12.85 6.01-1.37a44.193 44.193 0 0 1 7.621-1.13 4.272 4.272 0 0 1 4.566 4.55c0 4.72-3.827 6.94-12.255 7.11l1.646 5.36c5.909-.29 10.374-1.59 12.791-3.74a11.3 11.3 0 0 0 3.593-8.52c0-6.31-3.928-10.25-10.24-10.25a43.352 43.352 0 0 0 -7.957.95c-3.761.63-4.667.77-6.614 1.02zm27.782-6.34c1.209-.14 1.914-.21 3.257-.35 1.981-.21 4.029-.42 5.64-.6l2.149-.21 1.444-.14c-4.264 3.06-6.581 7.15-6.581 11.52 0 4.89 2.988 8.45 8.327 9.86 2.753.71 5.237.95 10.844.95l.772-6.66c-1.343.11-2.148.15-3.458.15a26.7 26.7 0 0 1 -7.084-.78c-2.216-.67-3.324-2.01-3.324-3.98 0-4.65 5-10.04 10.576-11.41a20.3 20.3 0 0 1 3.391-.28c.4 0 .4 0 2.619.03l-.168-6.13-3.257.11c-6.379.17-10.307.38-18.264.88-4.935.38-5.338.38-7.185.42zm30.858 12.79a76.606 76.606 0 0 1 6.849 9.02l5.305-3.6a75.7 75.7 0 0 0 -7.554-8.56zm36-17.44h-12.319v4.58h10.072l.437.85h-9.7v4.44h10.844v-2.36l1.242 2.29c.538-.6.739-.85 1.075-1.24v18.5h17.794v-5.43h-4.5v-2.71h3.66v-4.83h-3.66v-2.53h3.66v-4.79h-3.66v-2.43h4.2v-5.29h-3.736c.336-.67 1.276-3.06 1.746-4.51l-5.607-.56a19.718 19.718 0 0 1 -1.712 5.07h-2.619c.638-1.69 1.041-2.89 1.477-4.44l-5.439-.7a20.989 20.989 0 0 1 -3.256 7.57v-1.48zm9.938 4.34v2.43h-3.156v-2.43zm0 7.22v2.53h-3.156v-2.53zm0 7.36v2.71h-3.156v-2.71zm-21.454-24.17v4.41h10.844v-4.41h-10.841zm0 15.96v4.4h10.844v-4.4h-10.841zm0 5.25v11.1h10.878v-11.1h-10.875zm6.983 4.16v2.46h-2.149v-2.46zm46.361-12.3a29.86 29.86 0 0 1 3.66 6.7l3.122-1.87a32.148 32.148 0 0 0 -3.827-6.55zm4.5-2.36a30.617 30.617 0 0 1 3.794 6.63l3.123-1.73a32.537 32.537 0 0 0 -3.929-6.52zm-23.3-.81c1.209-.14 1.914-.21 3.257-.35 1.981-.21 4.029-.42 5.64-.6l2.149-.21 1.444-.14c-4.264 3.06-6.581 7.15-6.581 11.52 0 4.89 2.988 8.45 8.326 9.86 2.753.71 5.238.95 10.845.95l.772-6.66c-1.343.11-2.149.15-3.458.15a26.7 26.7 0 0 1 -7.084-.78c-2.216-.67-3.324-2.01-3.324-3.98 0-4.65 5-10.04 10.576-11.41a20.282 20.282 0 0 1 3.391-.28c.4 0 .4 0 2.618.03l-.167-6.13-3.257.11c-6.379.17-10.307.38-18.264.88-4.936.38-5.339.38-7.185.42zm45.673-5.46.134-3.66-6.278-.07-.1 3.73h-5.438v5.6h5.339l-.1 4.05h-5.406v5.68h5.3c-.033 3.41.3 5.77.974 7.15 1.511 3.1 4.2 4.26 9.87 4.26 4.869 0 7.454-.56 9.4-1.97 2.048-1.55 3.123-4.16 3.123-7.75a19.012 19.012 0 0 0 -2.351-9.06l-5.338 1.59a16.39 16.39 0 0 1 1.578 6.62c0 3.52-1.376 4.55-6.11 4.55-4.6 0-5.171-.5-5.171-4.27 0-.31 0-.63.034-1.12h.571c4.062-.04 7.117-.29 8.124-.67l-.268-5.57c-1.007.35-3.66.53-7.924.56h-.369l.168-4.05h8.528v-5.6h-8.293z"/><path d="m88.244 3876.49a95.605 95.605 0 0 1 -32.373 25.41l8.074 11.19c12.542-6.91 22.418-15.22 29.395-24.51l.078 15.87c.078 1.9-.941 2.64-3.449 2.64-.941 0-1.019 0-5.722-.25l-3.135-.25 2.038 14.07c4 .08 6.114.08 8.936.08 6.428 0 8.7-.49 11.209-2.63 2.352-1.98 3.763-5.6 3.763-9.38l-.079-32.24h16.383v-13.65h-16.462v-12.09h-13.639v12.09h-33.628v13.65zm64.206-23.85h-14.423v43.75h14.423zm35.979-1.32h-14.5v35.04c-.235 13.82-7.838 18.67-32.138 20.64l5.33 13.82c29.709-3.29 40.448-12.66 41.31-35.61v-33.89zm15.167 14.56a98.934 98.934 0 0 1 24.535 12.67l7.212-13.16a99.814 99.814 0 0 0 -25.711-11.76zm4.625 54.37c35.352-4.94 52.362-19.83 62.395-54.53l-12.071-8.64c-8.544 32.49-21.87 44.41-53.538 47.62zm88.669-67.86h-14.11v52.39c.236 9.38 5.331 13.74 15.834 13.57h27.986a75.188 75.188 0 0 0 13.561-1.23l-.862-14.89a68.072 68.072 0 0 1 -17.324 1.98h-20.539c-4 0-4.546-.5-4.546-3.95v-12.83a180.63 180.63 0 0 0 36.449-13.24l-6.584-13.41a126.765 126.765 0 0 1 -29.865 12.5zm42.8-8.3a10.829 10.829 0 0 0 -10.818 11.02c0 6.25 4.7 11.18 10.661 11.18a10.854 10.854 0 0 0 10.582-11.1c-.001-6.09-4.783-11.1-10.426-11.1zm-.314 5.67a5.437 5.437 0 1 1 -5.1 5.43 5.314 5.314 0 0 1 5.099-5.43zm14.7 22.13a97.88 97.88 0 0 1 6.192 20.89l11.523-2.8c-1.881-8.8-4.233-15.87-6.9-21.05zm18.185-3.87a97.005 97.005 0 0 1 5.566 20.73l11.13-2.64a78.441 78.441 0 0 0 -5.878-20.31zm26.5-2.14c-5.252 29.45-13.4 38.82-39.507 45.07l8.779 10.86c25.633-7.08 37.782-21.55 44.132-52.56zm44.028-12.75c-4.233 10.12-10.5 17.6-19.048 22.87l8.78 10.61c7.6-4.85 13.8-11.35 19.2-20.15h21.321c-3.527 23.03-19.44 37.83-45.307 42.11l5.565 13.32c34.49-6.66 53.538-30.27 55.576-68.76h-46.088zm59.619-1.97a335.791 335.791 0 0 0 -2.586 41.78 171.948 171.948 0 0 0 1.8 27.55l14.344-.99a194.179 194.179 0 0 1 -2.038-29.36 228.453 228.453 0 0 1 2.979-37.99zm20.773 5.26v14.15h39.741v-14.15h-39.742zm1.8 28.54a29.256 29.256 0 0 0 -4.154 14.64c0 4.36 1.333 8.39 3.449 10.78 4.39 4.68 11.758 6.66 25.162 6.66a122.407 122.407 0 0 0 14.972-.82l-.236-14.64c-4.076.49-13.09.98-19.126.98-8.073 0-11.6-1.56-11.6-5.18 0-2.63 1.333-5.84 3.684-9.05zm-470.521 70.94v11.26h13.4a48.186 48.186 0 0 1 -14.58 5.84l5.252 12.34a60.71 60.71 0 0 0 8.152-3.45l2.038 4.44c12.934-2.22 20.3-5.1 30.179-11.76l-6.584-6.75c-5.487 3.54-11.6 6.5-15.52 7.49a54.576 54.576 0 0 0 8.231-8.15h12.466c6.976 8.72 13.952 14.15 26.259 20.4l5.879-12.75c-6.428-1.89-10.19-3.62-16.775-7.65h15.364v-11.26h-35.744c.627-1.24 1.019-2.14 1.489-3.29l6.271-.33 11.209-.5c.863.91 1.568 1.9 3.057 3.79l11.21-6.58c-4-5.59-8.7-10.2-15.756-15.71l-12.071 5.59a31.7 31.7 0 0 1 4.546 3.62l-7.6.08-7.055.09h-4.7a84.549 84.549 0 0 0 5.409-9.46l-14.266-1.32a54.571 54.571 0 0 1 -3.449 7.49c-.627 1.06-1.176 2.13-1.725 3.2-9.406-.08-9.72-.08-12.228-.08l1.1 10.94c2.979 0 3.527 0 12.542-.25 1.489 0 6.271-.08 11.366-.16a30.423 30.423 0 0 1 -1.724 2.88zm47.737 20.31c-10.661 7.57-24.221 11.84-40.29 12.75l3.606 8.96c20.38-2.55 34.255-7.4 43.583-15.21zm10.347 7.9c-10.347 9.54-27.592 14.88-52.362 16.28l3.684 10.69c23.908-.49 44.523-7.24 58.084-19zm30.842-38.25h-8.7v13.57h8.7v.74c-.549 18.75-3.763 30.76-10.5 39.32l9.249 12.17a45.747 45.747 0 0 0 7.682-13.98l1.725 12.99h10.268c9.72-.41 10.269-3.7 10.5-64.81h-16.383v-13.4h-12.541zm6.9 50.58c3.37-9.62 4.781-19 5.643-37.01h3.606c0 15.14-.313 22.95-1.1 30.68-.392 5.26-.941 6.25-3.293 6.33h-4.859zm25.867-61.1v73.6h30.335v-73.6h-30.337zm17.95 13.32v46.8h-5.879v-46.8h5.876zm66.258 16.12a70.293 70.293 0 0 1 8.544 15.62l7.29-4.35a75 75 0 0 0 -8.936-15.3zm10.5-5.51a71.105 71.105 0 0 1 8.858 15.46l7.29-4.03a75.644 75.644 0 0 0 -9.171-15.21zm-54.4-1.89c2.822-.33 4.468-.5 7.6-.83 4.625-.49 9.406-.98 13.169-1.39l5.017-.5 3.37-.33c-9.955 7.16-15.363 16.7-15.363 26.9 0 11.43 6.976 19.74 19.439 23.03 6.428 1.64 12.228 2.22 25.319 2.22l1.8-15.55c-3.136.25-5.017.33-8.074.33-6.584 0-12.934-.66-16.539-1.81-5.174-1.56-7.761-4.69-7.761-9.29 0-10.86 11.68-23.44 24.692-26.65a47.46 47.46 0 0 1 7.917-.66c.941 0 .941 0 6.114.09l-.392-14.31-7.6.24c-14.894.41-24.065.91-42.642 2.06-11.523.9-12.464.9-16.775.98zm122.781-1.65a96.961 96.961 0 0 0 16.069-2.22l-1.411-12.25a89.327 89.327 0 0 1 -17.323 2.55c-.157-2.47-.235-4.44-.392-8.23l-14.188.33c.157 2.8.235 4.36.549 8.31h-24.063v12.09h25.711c.47 2.14.862 3.86 1.254 5.67h-29.708v11.76h33.235c2.587 6.75 5.252 11.35 8.78 15.3l12.306-7.73a38.413 38.413 0 0 1 -5.8-8.06 125.449 125.449 0 0 0 17.166-2.55l-1.881-12.09a105.424 105.424 0 0 1 -19.91 3.04c-.627-2.14-.941-3.62-1.411-5.84zm-32.373 22.45c-3.685 4.53-5.331 8.39-5.331 12.51a14.532 14.532 0 0 0 8.544 12.83c5.487 2.63 11.523 3.45 25.476 3.45 8.465 0 12.385-.16 18.107-.58l-.627-13.98a189.259 189.259 0 0 1 -21.164 1.07c-11.837 0-16.383-1.4-16.383-4.93 0-1.65.627-2.96 2.587-5.51zm71.267-26.64c8.936-.25 17.166-.58 21.948-.91-11.288 10.28-19.6 17.27-31.119 26.16l7.76 12.17c14.971-14.89 21.477-18.75 31.276-18.75 8.779 0 14.344 4.52 14.344 11.59a12.5 12.5 0 0 1 -3.6 8.89c-4-7.74-11.053-12.34-19.048-12.34-8.779 0-15.6 6.08-15.6 13.98 0 9.21 8.466 15.05 21.713 15.05 18.264 0 29.943-10.12 29.943-25.99 0-13.73-9.014-22.78-22.732-22.78a22.4 22.4 0 0 0 -5.251.58c5.722-4.53 10.5-8.06 15.128-11.27v-10.86c-10.5.33-19.91.5-29.865.5-5.1 0-5.957 0-14.893-.17v14.15zm29.943 44.41a29.071 29.071 0 0 1 -3.841.25c-5.33 0-8.544-1.48-8.544-4.03 0-1.81 1.489-2.97 3.684-2.97 3.686 0 6.508 2.23 8.703 6.75zm38.157-59.46 1.8 46.63h11.68l1.8-46.63h-15.278zm.548 66.37h14.188v-14.23h-14.186v14.23z"/></g></svg>