<svg height="220.65" viewBox="0 0 621.875 220.65" width="621.875" xmlns="http://www.w3.org/2000/svg"><g fill="#fff" fill-rule="evenodd" transform="translate(-57.625 -8214.44)"><path d="m102.824 8273.79v14.38h-8.7v-14.38h-9.669v14.38h-8.7v-13.77h-9.8v13.77h-7.53v9.82h7.53v38.52h52.511v-9.82h-42.709v-28.7h8.7v22.57h28.043v-22.57h7.594v-9.82h-7.594v-14.38h-9.672zm-8.7 24.2h8.7v13.09h-8.7zm37.86 40.91c11.814-4.91 16.357-12.55 16.487-27.48h-3.31a35.632 35.632 0 0 0 5.517-6.34h6.361a29.1 29.1 0 0 0 5.128 6.2h-2.856v27.21h10.061v-21.68a59.239 59.239 0 0 0 11.684 5.52l4.348-10.02a36.921 36.921 0 0 1 -15.383-7.23h10.321v-29.52h-53.1v29.52h9.866c-3.116 2.93-8.114 5.25-14.994 7.02l4.608 10.09a73.935 73.935 0 0 0 11.489-5.72c-.584 6.95-4.089 10.77-12.657 13.56zm17.331-55.16v3.48h-12.4v-3.48zm0 9.95v3.69h-12.4v-3.69zm21.42-9.95v3.48h-12.461v-3.48h12.463zm0 9.95v3.69h-12.461v-3.69h12.463zm20.25-9.47v36.2h23.237v17.93h10v-17.93h23.562v-36.2h-23.564v-10.5h-10v10.5h-23.233zm23.237 9.95v16.3h-13.304v-16.3h13.306zm23.627 0v16.3h-13.629v-16.3h13.631zm48.531 40.84c6.881-.75 12.593-2.8 16.682-6.07 6.231-5.04 9.866-13.63 9.866-23.52 0-16.84-10.58-27.47-27.327-27.47-18.109 0-30.7 12.68-30.7 31.02 0 12.06 5.582 20.45 13.566 20.45 6.3 0 11.554-4.84 14.8-13.7a90.892 90.892 0 0 0 5.323-27.41c8.568.89 13.436 6.88 13.436 16.43 0 11.93-6.556 18.75-19.018 19.77zm-7.724-46.09c-.844 9.68-1.753 14.59-3.765 20.73-1.752 5.38-3.7 8.04-5.971 8.04-2.4 0-4.025-3.41-4.025-8.52a22.519 22.519 0 0 1 6.231-15.95c2.015-1.98 3.637-2.93 7.532-4.3zm91.437-17.25a9.294 9.294 0 1 0 8.633 9.28c.002-5.05-3.958-9.28-8.626-9.28zm-.26 4.64a4.645 4.645 0 1 1 -4.284 4.64 4.491 4.491 0 0 1 4.286-4.64zm-50.37 4.77v10.77h37.258c-2.6 19.37-11.943 28.77-33.168 33.07l4.673 10.23c22.848-5.19 35.7-18.48 39.27-40.71l-10.775-13.36h-37.256zm77.975-2.93h-11.033v56.52c27.522-.48 42.127-10.57 50.889-35.11l-9.347-5.8c-5.387 17.93-15.318 27.27-30.507 28.84v-44.45zm82.291 22.09a126.948 126.948 0 0 0 18.369-17.52l-9.217-6.82a96.43 96.43 0 0 1 -46.215 32.11l5.192 9.55a102.127 102.127 0 0 0 20.836-9.75v27.2h11.035zm49.071-.55 16.617-2.59c-.973 5.25-5.907 11.39-11.229 14.05l7.659 7.16c11.165-7.91 15.449-16.84 15.968-33.34l-30.443 4.29-1.752-13.15-10.84 1.7 1.753 13.02-14.41 2.05 1.557 10.7 14.281-2.25 4.608 34.22 10.9-1.22zm36.446.75v11.25h55.564v-11.25h-55.562zm77.417-23.38c0 14.93.454 18.88 2.726 22.29-10.451 5.25-15.643 11.73-15.643 19.37a13.948 13.948 0 0 0 6.75 12.13c5.453 3.07 11.424 4.09 23.822 4.09 6.621 0 11.229-.2 18.175-.75v-11.18a158.143 158.143 0 0 1 -20.966 1.23c-8.244 0-11.814-.41-14.021-1.71a4.758 4.758 0 0 1 -2.6-4.29c0-4.71 4.284-8.18 14.215-11.39a95.644 95.644 0 0 1 21.485-4.22l-1.3-11.46c-8.763 1.3-15.384 2.66-20.511 4.37-1.039-1.85-1.169-3-1.169-9.28 0-3.88.065-5.86.195-9.2h-11.156z"/><path d="m100.818 8233.21v-2.48h5.675v-12.18h-18.48v-3.59h-7.482v3.59h-18.531v12.18h5.474v2.48h9.842c-4.821 2.64-9.139 3.75-16.22 4.22l2.41 6.43a56.3 56.3 0 0 0 15.216-4.79c.5.58.854 1 1.406 1.68-4.67 2.64-12 4.91-18.932 5.8l2.611 6.28a60.916 60.916 0 0 0 18.831-7.86c.251.69.452 1.32.653 2.06-5.222 3.74-15.165 7.54-23.451 9.02l2.662 6.91a62.182 62.182 0 0 0 11.8-4.38l1.155 6.01h8.236c4.469 0 7.081-3.9 7.081-10.65 0-7.54-2.059-13.19-6.679-18.09a18.38 18.38 0 0 0 2.862-2.64h.854c1.406 11.29 7.03 23 14.412 29.96l5.876-6.01a39.834 39.834 0 0 1 -9.642-11.4 52.8 52.8 0 0 0 8.738-7.38l-4.821-5.33a38.737 38.737 0 0 1 -6.729 6.23 44.712 44.712 0 0 1 -1.507-6.07h6.679zm-16.772 20.41c0 3.43-.7 4.49-2.812 4.49h-5.976a51.508 51.508 0 0 0 8.742-5.49zm15.165-26.26h-29.929v-2.32h29.929zm61.343 30.64a15.9 15.9 0 0 1 -8.637-7.44h7.934v-7.28h-10.144a46.793 46.793 0 0 0 .4-4.85h8.793v-7.07h-14.717c.2-.68.352-1.31.5-1.95l-5.875-1c.151-.26.2-.32.7-1.21h20.338v-7.33h-17.169a39.454 39.454 0 0 0 1.1-4.54l-7.482-.9a31.125 31.125 0 0 1 -3.917 10.34v-3.8h-6.126v-6.17h-7.482v6.17h-6.67v7.34h3.314v13.29c.05 5.32-1.858 12.71-4.168 16.29l5.122 6.97a30.345 30.345 0 0 0 3.114-6.65l1.054 6.59h4.57c3.565.06 5.323-1.79 5.775-6.01l3.214 6.12a23.5 23.5 0 0 0 12.3-10.65c2.159 4.43 5.072 7.64 10.143 10.97zm-20.087-7.44a16.853 16.853 0 0 1 -9.541 7.12c.552-6.43.8-13.13.8-20.94 0-.68 0-2.16-.051-3.9h-9.34v-4.53h7.332l-.352.36 5.022 5.6a26.3 26.3 0 0 0 3.214-3.91 21.7 21.7 0 0 1 -5.574 8.71l4.971 4.21h-3.867v7.28h7.382zm-2.912-7.28a27.244 27.244 0 0 0 3.465-4.85h2.008a39.712 39.712 0 0 1 -.351 4.85zm-17.727 13.82a57.812 57.812 0 0 0 2.511-15.61v-1.58h2.511l.05 1.69c0 5.75-.4 13.18-.753 14.4a1.5 1.5 0 0 1 -1.758 1.1zm61.434-22.41c7.231-2.8 11.2-3.85 14.211-3.85a4.842 4.842 0 0 1 5.122 5.11c0 3.59-2.862 5.8-7.432 5.8a13.743 13.743 0 0 1 -5.323-1l.151 7.91a21.412 21.412 0 0 0 6.226.9c8.638 0 14.212-5.22 14.212-13.29 0-7.6-5.223-13.03-12.5-13.03a19.5 19.5 0 0 0 -3.013.21 49.587 49.587 0 0 0 -3.916-6.84999999999l-6.83 2.79a58.771 58.771 0 0 1 3.214 5.91c-.251.1-.351.1-.5.16-.1.05-.552.21-2.963 1l-2.661.95c-.1-.48-.151-.58-.2-.9-.653-2.48-1.356-4.85-2.461-8.01l-8.235 2.1a80.832 80.832 0 0 1 3.013 8.76l.1.37.1.42c-1.657.63-3.264 1.21-3.666 1.37-1.908.69-3.214 1.16-3.716 1.32l-.452.16 2.511 8.39c2.46-1.32 4.318-2.22 7.482-3.59a216.144 216.144 0 0 1 5.524 25.63l8.687-2.11c-.3-1.1-.652-2.58-1.1-4.43-.854-3.37-1.658-6.75-2.511-10.18-1.1-4.53-1.908-7.8-2.762-10.92zm73.786-2.59h-23.6c.2-1.32.251-1.74.5-4.01h27.569v-8.12h-26.817c.2-3.22.2-3.58.3-5.48h-8.386c.05 1.1.05 2.05.05 2.53 0 1.16 0 1.74-.1 2.95h-12.652v8.12h12.1c-1.306 13.51-6.127 24.79-13.006 30.7l6.277 6.17c1.456-1.32 3.163-3.74 5.373-7.59l3.666 7.75a39.175 39.175 0 0 0 14.763-6.75 52.536 52.536 0 0 0 15.216 6.64l3.917-8.38a36.058 36.058 0 0 1 -12.655-4.22 38.037 38.037 0 0 0 7.482-12.61v-7.7zm-26.012 10.82c.3-1.01.452-1.43.854-3.12h16.22a25.049 25.049 0 0 1 -5.122 7.7 21.655 21.655 0 0 1 -5.122-7.43zm-5.574 13.76-.5.11a70.036 70.036 0 0 0 6.026-13.72 41.9 41.9 0 0 0 5.675 9.39 30.765 30.765 0 0 1 -10.8 4.17zm73.821-.47v-3.64h13.559v-5.44h-13.559v-2.11h11.651v-4.64h-11.651v-1.95h12.755v-5.54h-5.323a26.378 26.378 0 0 0 1.055-3.11h5.524v-5.38h-14.011v-2h12v-5.43h-12v-2.11h-7.432v2.11h-12.051v5.43h12.052v2h-14.162v5.38h5.775c.2.58.653 2.22.854 3.11h-5.419v5.54h12.955v1.95h-11.755v4.64h11.75v2.11h-13.607v5.44h13.608v3.64h-5.172c-4.971.05-8.738-2.22-9.893-5.86v-16.08h-10.746v7.33h3.766v11.71a17.883 17.883 0 0 1 -4.519 2.95l2.561 8.81a33.562 33.562 0 0 0 7.231-6.75 14.294 14.294 0 0 0 11.2 5.38h26.211l1.607-7.49zm1.155-26.43a23.647 23.647 0 0 1 -.9 3.11h-7.938a23.955 23.955 0 0 0 -.8-3.11h9.641zm-34.548-9.12c2.008 1.53 4.368 4.38 7.13 8.49l5.524-5.8a53.175 53.175 0 0 0 -7.683-8.23zm51.816 29.48a112.976 112.976 0 0 1 9.943 13.08l7.231-5.01a113.779 113.779 0 0 0 -10.846-12.45z"/><path d="m59.352 8386.68a112.181 112.181 0 0 1 15.855 15.19c-3.92 6.58-9.757 13.08-17.6 19.58l8.624 11.8a96.8 96.8 0 0 0 17.6-20.31c3.31 5.12 5.314 8.42 7.579 12.53l10.715-9.24a96.6 96.6 0 0 0 -11.76-16.65c2.788-7.14 4.878-15.92 6.359-26.54h3.833v-13.45h-13.851v-12.07h-12.893v12.07h-14.813v13.45h24.831a101.377 101.377 0 0 1 -2.962 16.02c-6.272-6.13-9.408-8.97-12.632-11.81zm75.964-39.16h-13.5v15.64h-19.168v14h19.165v40.81c.088 2.2-.522 2.65-2.961 2.75h-12.458l2.526 13.45h17.423c5.75-.1 9.06-3.21 8.973-8.51v-48.5h6.273v-14h-6.273zm-37.459 40.62c3.049 4.67 7.405 15.47 9.582 23.61l12.109-6.04a101.591 101.591 0 0 0 -10.366-23.42zm131.724-6.68-.174-13.08-9.06.64 9.669-5.86c-.784-2.56-6.359-12.62-8.624-15.37l-9.5 5.86v-3.75s0-1.1.088-2.2h-12.367c0 2.01.087 9.61.262 22.87l-5.4.46v13.09l5.75-.37a248.042 248.042 0 0 0 3.049 25.16 85.843 85.843 0 0 1 -8.1 7.05v-6.86h-17.514v-4.67h15.42v-39.35h-2.962c5.488-9.97 5.749-10.52 7.23-14.18l-13.067-3.47c-1.307 5.12-5.053 14.63-6.969 17.65h-24.393l10.8-3.56a100.356 100.356 0 0 0 -5.837-13.45l-11.325 3.2a74.57 74.57 0 0 1 5.314 12.99l.174.37.087.45h-2.526v39.35h15.419v4.67h-18.116v12.53h18.119v12.9h12.632v-12.9h8.625l7.4 12.26a67.324 67.324 0 0 0 13.769-10.89c3.4 7.96 6.969 11.53 11.412 11.53 4.268 0 9.495-5.31 11.847-12.26l-4.268-13.82c-2.962 6.32-4.617 8.61-6.1 8.61-1.046 0-1.743-1.19-3.136-5.31a86.18 86.18 0 0 0 12.109-22.69l-10.541-6.5a50.141 50.141 0 0 1 -5.053 12.72 123.107 123.107 0 0 1 -1.133-12.54zm-17.51-11.8c-.087-3.94-.175-9.06-.175-15.74l.436.64a68.9 68.9 0 0 1 7.579 14.55zm-45.91 5.12v5.4h-5.924v-5.4zm0 14.19v5.49h-5.924v-5.49zm16.378-14.19v5.4h-5.576v-5.4zm0 14.19v5.49h-5.576v-5.49zm-18.469-40.72a64.568 64.568 0 0 1 3.049 15.1l11.412-1.83a85.462 85.462 0 0 0 -2.613-14.37zm123.3 34.58a75.245 75.245 0 0 1 9.409 17.48l7.753-4.67c-3.4-7.5-6.533-12.99-9.844-17.11zm11.848-6.03c4.095 5.49 6.272 9.42 9.757 17.29l7.753-4.48c-3.4-7.23-6.708-12.81-10.105-16.93zm-60.545-2.75c4.356-.55 6.359-.82 25.089-2.56l5.489-.55 3.571-.27c-12.2 8.69-18.642 19.39-18.642 30.74 0 12.81 7.491 21.87 20.994 25.53 7.579 2.01 14.81 2.74 28.139 2.74l1.916-15.74c-2.788.19-5.14.28-7.927.28-8.015 0-15.42-.92-19.863-2.38-5.924-1.92-8.885-5.67-8.885-11.16 0-12.45 13.154-26.81 28.225-30.75a47.532 47.532 0 0 1 8.624-.73c1.568 0 3.224.09 6.97.28l-.349-14.64-8.363.27c-16.378.37-24.828.82-47.391 2.2-12.544.91-13.59.91-18.381 1zm147.475 15.56c.261 11.71 2.09 17.75 6.272 20.4l-10.454 4.39a108.246 108.246 0 0 1 11.151 20.31l12.719-5.39a100.381 100.381 0 0 0 -11.064-18.39 5.27 5.27 0 0 0 1.045.09c4.966 0 8.538-4.76 10.977-14.92l-4.617-10.34c-1.307 6.59-1.83 7.87-2.962 7.87s-1.394-1.83-1.394-8.69c0-9.7.174-17.2.871-28.64h-14.722q.13-5.085.261-8.23h-12.109l-.087 2.19v3.02l-.087 3.02h-6.011v13.36h5.749c-.087 1.83-.261 5.12-.435 6.59-.7-.37-.784-.37-3.485-1.74l-1.916 4.48c.261-1.28.348-1.74.609-3.29l-7.927-1.37c-.348 2.65-.523 3.02-1.742 3.11h-1.83c-.871-.09-1.132-.46-1.045-1.56v-2.84h10.628v-8.5h-14.026v-3.66h11.674v-8.7h-11.674v-4.11h-12.717v4.11h-11.849v8.7h11.849v3.66h-15.42v8.5h7.492c-1.132 4.12-3.746 6.78-8.886 8.88l4.792 9.24 1.045-.55v5.58h11.412v5.22l-7.318.18-7.317.09-1.83.1 1.22 10.61 1.568-.09 2.7-.19 2.7-.09a37.209 37.209 0 0 1 -8.973 14.92l11.064 8.14c4.356-5.12 7.927-13.18 9.408-20.86l-8.537-2.38 6.1-.37a206.545 206.545 0 0 0 23.7-2.01v-3.11l6.969 5.95a50.373 50.373 0 0 0 8.973-16.38 30.962 30.962 0 0 1 3.136 2.74zm-3.659-19.95h3.746l-.087 2.56v13.63a35.408 35.408 0 0 0 -4.705-3.56c.349-2.2.523-4.67.871-10.25zm-19.775 30.56c-7.318.55-10.454.73-12.2.82v-4.85h11.674v-8.41h-11.671v-2.84h10.716a3.819 3.819 0 0 0 2.439-.82l-.61 1.28a30.181 30.181 0 0 1 5.575 3.29 36.648 36.648 0 0 1 -5.923 11.99zm-31.362-12.44a24.537 24.537 0 0 0 8.8-14.74h4.443v7.42a4.285 4.285 0 0 0 .7 2.47h-7.056v4.85h-6.882zm27.964 45.29.087-2.66a128.685 128.685 0 0 0 -1.394-16.83l-11.325.46a67.078 67.078 0 0 1 .523 8.87 53.19 53.19 0 0 1 -.784 10.43zm8.363.18 13.067-.64a89.636 89.636 0 0 0 -4.617-19.4l-11.76.73c1.568 6.13 1.568 6.32 3.049 18.03zm88.621-83.54c-6.708 7.14-11.151 11.44-21.169 20.59-12.022 10.7-12.022 10.7-14.026 12.81-2.875 2.84-4.181 5.49-4.181 8.33 0 3.75 2.177 6.58 8.188 10.61 19.6 12.99 30.316 20.95 40.335 29.74l14.112-10.98c-4.617-4.4-21.343-15.56-35.02-23.34-10.28-5.67-10.28-5.67-10.28-7.13 0-1.01.959-2.11 4.356-4.76 18.73-14.64 24.305-19.4 32.93-27.63zm63.428 11.53.348-2.65c.174-1.1.349-2.2.436-3.11l.522-3.85-14.548-.55c-.087 2.84-.348 5.13-.871 10.16h-13.415v13.73h11.15a164.7 164.7 0 0 1 -12.893 40.44l14.2 5.31a322.43 322.43 0 0 0 12.719-45.75h16.9v-13.73zm49.307 7.5a124.969 124.969 0 0 0 -25.612-12.07l-5.924 12.44a136.229 136.229 0 0 1 25.438 12.44zm-16.2 9.15h-13.768l.349 16.57a39.04 39.04 0 0 0 -5.4-.37c-12.632 0-21.257 7.5-21.257 18.57 0 10.71 8.276 17.66 21.082 17.66 11.064 0 17.946-5.4 18.207-14.18v-1.1a69.56 69.56 0 0 1 9.06 9.43l7.667-13.91a77.376 77.376 0 0 0 -15.594-11.62zm-13.067 34.04c0 4.12-2.265 6.04-6.795 6.04-5.053 0-8.014-2.2-8.014-5.76 0-3.66 3.484-6.04 8.711-6.04a14.814 14.814 0 0 1 6.1 1.28v4.48zm53.295-33.3v5.12a100.25 100.25 0 0 1 -16.813 20.86l6.533 15.01a97.973 97.973 0 0 0 10.193-14.18c-.174 19.58-.174 19.58-.174 20.86v3.93h14.025c-.348-8.33-.435-15.55-.435-25.53 0-6.22 0-9.79.174-18.11 6.708-8.7 13.5-13.64 18.643-13.64 3.049 0 4.53 1.92 4.53 5.77v2.56l-.523 14.09-.087 3.57c-.262 5.85-.262 5.95-.262 7.96 0 16.38 4.7 20.59 23.347 21.04l3.224-14.64c-1.22.1-1.743.1-2.44.1-8.014 0-9.669-1.38-9.669-7.96 0-1.56 0-2.75.174-7.05.087-1.37.087-2.29.087-3.29l.435-14.92c.175-3.84.175-3.84.175-5.03 0-11.07-5.314-17.2-14.9-17.2-7.492 0-14.287 3.29-22.3 10.7 0-3.57.175-11.71.436-16.65h-14.377v12.9h-14.374v13.82zm70.937-26.36 1.83 51.98h11.935l1.742-51.98zm.436 73.57h14.635v-14.82h-14.632v14.82z"/></g></svg>