<svg height="203.5" viewBox="0 0 525.061 203.5" width="525.061" xmlns="http://www.w3.org/2000/svg"><g fill="#fff" fill-rule="evenodd" transform="translate(-695.719 -3280.66)"><path d="m709.993 3293.43a37.719 37.719 0 0 1 -12.764 10.02l3.183 4.41a35.976 35.976 0 0 0 11.588-9.66l.031 6.26c.031.74-.371 1.03-1.36 1.03-.371 0-.4 0-2.256-.09l-1.236-.1.8 5.54c1.577.04 2.411.04 3.524.04 2.534 0 3.43-.2 4.419-1.04a4.906 4.906 0 0 0 1.484-3.7l-.031-12.71h6.459v-5.38h-6.49v-4.77h-5.378v4.77h-13.254v5.38zm25.315-9.4h-5.686v17.25h5.686zm14.186-.52h-5.717v13.81c-.093 5.45-3.091 7.36-12.672 8.14l2.1 5.45c11.713-1.3 15.947-5 16.287-14.04v-13.36zm5.98 5.74a38.781 38.781 0 0 1 9.674 4.99l2.843-5.19a39.707 39.707 0 0 0 -10.137-4.64zm1.824 21.43c13.938-1.94 20.645-7.81 24.6-21.5l-4.759-3.4c-3.369 12.81-8.623 17.51-21.109 18.77zm34.96-26.75h-5.558v20.65c.093 3.7 2.1 5.42 6.243 5.36h11.034a29.953 29.953 0 0 0 5.347-.49l-.34-5.87a26.867 26.867 0 0 1 -6.831.78h-8.1c-1.576 0-1.793-.2-1.793-1.56v-5.06a71.047 71.047 0 0 0 14.372-5.22l-2.6-5.28a50.435 50.435 0 0 1 -11.776 4.93v-8.24zm16.875-3.28a4.387 4.387 0 1 0 4.111 4.38 4.275 4.275 0 0 0 -4.111-4.38zm-.123 2.24a2.143 2.143 0 1 1 -2.009 2.14 2.094 2.094 0 0 1 2.009-2.14zm5.8 8.72a38.71 38.71 0 0 1 2.442 8.24l4.543-1.1a34.15 34.15 0 0 0 -2.72-8.3zm7.171-1.52a38.288 38.288 0 0 1 2.194 8.17l4.389-1.04a31.036 31.036 0 0 0 -2.318-8.01zm10.446-.84c-2.071 11.61-5.285 15.3-15.577 17.77l3.462 4.28c10.106-2.79 14.9-8.5 17.4-20.72zm17.359-5.03a18.625 18.625 0 0 1 -7.51 9.02l3.462 4.18a23.892 23.892 0 0 0 7.572-7.95h8.406c-1.391 9.08-7.665 14.92-17.864 16.61l2.195 5.25c13.6-2.63 21.109-11.93 21.912-27.11h-18.176zm23.139.19v5.39h14.063a28.821 28.821 0 0 1 -15.948 16.44l3.029 4.73a34.659 34.659 0 0 0 11.59-8.72 109.179 109.179 0 0 1 8.344 8.98l4.575-4.63a76.036 76.036 0 0 0 -9.612-8.6 33.875 33.875 0 0 0 5.192-13.59h-21.236zm33.063 26.98c12.857-3.37 20.429-13.1 21.14-27.17h-17.928a18.8 18.8 0 0 1 -7.882 9.47l3.586 4.28a18.485 18.485 0 0 0 3.276-2.66 41.313 41.313 0 0 1 6.953 4.67 23.069 23.069 0 0 1 -11.991 6.29zm14.5-21.98a19.367 19.367 0 0 1 -2.163 6.42 31.555 31.555 0 0 0 -7.047-4.15c.557-.75.927-1.3 1.545-2.27zm12.455-1.27a41.9 41.9 0 0 1 9.4 3.67l2.163-4.93a37.08 37.08 0 0 0 -9.612-3.31zm15.608-5.87a26.739 26.739 0 0 1 2.781 6.33l2.6-1.3a27.382 27.382 0 0 0 -2.9-6.26zm-18.049 13.43a36.588 36.588 0 0 1 9.055 3.96l2.071-5a30.866 30.866 0 0 0 -9.241-3.6zm22.87-13.49a25.438 25.438 0 0 1 2.6 6.42l2.658-1.26a28.577 28.577 0 0 0 -2.75-6.33zm-19.811 28.63c12.486-1.65 18.668-6.68 22.871-18.64l-4.667-3.54c-3.431 11.26-8.067 15.11-19.378 16.02zm45.648-11.57c5.563-3.54 8.035-7.79 8.962-15.41h-26.525v5.45h19.718c-.989 2.3-2.287 3.7-5.038 5.38a30.021 30.021 0 0 0 .155-3.21l-5.563-.03.031.55c0 4.51-.9 7.98-2.627 10.06a16.25 16.25 0 0 1 -6.8 4.63l3.554 4.54c6.954-3.44 10.2-7.85 11.1-15.14zm10.839 4.8-1.02-.04-1.051-.03.68 5.87c7.356-.32 13.721-.78 19.811-1.46.46 1.23.65 1.78.99 2.79l5.38-2.46a51.118 51.118 0 0 0 -7.45-14.43l-4.7 2.27a54.741 54.741 0 0 1 3.68 6.74l.09.19c-1.98.17-7.138.46-10.074.52l.525-1.42a151.915 151.915 0 0 0 5.629-18.55l-5.814-1.07c-1.608 7.2-3.586 14.46-5.687 21.08h-.997zm39.87-18.88c.19-.78.31-1.29.53-2.49l-5.53-.3c-.22 1.37-.31 1.82-.53 2.79h-6.43v4.77h5.07a28.243 28.243 0 0 1 -6.39 9.92l3.61 3.86a36.883 36.883 0 0 0 3.93-5.32c1.85-1.88 3.49-2.79 4.94-2.79a2.03 2.03 0 0 1 1.67.72c-5.28 2.66-7.54 5.15-7.54 8.3a5.407 5.407 0 0 0 3.4 5.09c1.88.75 4.57 1.1 8.47 1.1.49 0 2.65-.03 6.52-.09l-.03-5.32a58 58 0 0 1 -7.67.42c-4.05 0-5.13-.39-5.13-1.95 0-1.1.77-1.91 2.85-2.98l.03.65c0 .74-.03 1.1-.13 2.33h5.07c.03-1.49.03-1.49.03-2.1 0-1.04-.03-1.88-.09-2.83a53.606 53.606 0 0 1 6.8-1.84l-.93-5.22a59.643 59.643 0 0 0 -6.92 2.33 4.642 4.642 0 0 0 -4.67-2.85 7.205 7.205 0 0 0 -3.58.94 24.485 24.485 0 0 0 1.11-2.37h12.42v-4.77zm38.65 2.95v-4.63h-5.47v4.63h-7.89v5.35h8.01v4.93a5.21 5.21 0 0 0 -1.52-.16c-4.35 0-7.23 2.5-7.23 6.29s2.91 6.33 7.3 6.33c3.77 0 6.12-1.63 6.46-4.41v-.26c.03.03.55.48 1.51 1.36.37.39.74.81 1.3 1.46l3.27-4.93a20.989 20.989 0 0 0 -5.71-4.18v-6.43h4.82v-5.35zm-5.26 16.48c0 1.23-.46 1.62-1.95 1.62-1.36 0-2.25-.65-2.25-1.66s.96-1.65 2.44-1.65a3.664 3.664 0 0 1 1.76.39zm-14.71-21.37a82.648 82.648 0 0 0 -1.05 14.2 87.392 87.392 0 0 0 .87 13.33l5.4-.62a72.868 72.868 0 0 1 -.99-12.94 61.611 61.611 0 0 1 1.24-13.58zm40.71 4.08a29.345 29.345 0 0 1 3.98 6.29l2.91-1.84a30.064 30.064 0 0 0 -4.11-6.16zm4.11-2.75a28.794 28.794 0 0 1 4.11 6.19l2.87-1.91a31.3 31.3 0 0 0 -4.23-6.07zm-13.91-1.33v2.98l-.03 4.18c-.06 3.96-.09 7.37-.09 9.12 0 4.63.8 7.42 2.62 9.17 1.64 1.56 3.96 2.27 7.3 2.27 4.54 0 7.41-1.26 9.89-4.34a19.313 19.313 0 0 0 3.43-8.3l-5.1-2.57a21.373 21.373 0 0 1 -1.39 5.36 6.98 6.98 0 0 1 -6.8 4.31c-3.31 0-4.45-1.43-4.45-5.55 0-3.21.31-13.32.49-16.53zm42.18 27.82a15.307 15.307 0 0 0 6.46-1.82c3.52-2.04 5.35-5.51 5.35-10.11 0-6.23-3.19-10.25-8.91-11.26.1-.87.1-1 .34-4.41l-5.53-.38-.06 1.45-.06 1.5-.06 1.72a15.083 15.083 0 0 0 -5.23 1.62 41.212 41.212 0 0 1 -.68-4.51l-4.63 1.46a47.477 47.477 0 0 0 1.3 5.96 12.719 12.719 0 0 0 -3.56 8.95c0 4.61 2.47 7.82 6.06 7.82 5.16 0 9.7-6.58 11.28-16.31 3.12.55 4.57 2.43 4.57 5.93 0 2.76-.83 4.45-2.87 5.74a10.734 10.734 0 0 1 -5.38 1.53zm-4.48-12.35a22.9 22.9 0 0 1 -2.04-4.61 13.452 13.452 0 0 1 3.71-1.46 44.411 44.411 0 0 1 -1.678 6.07zm-2.41 3.95a2.505 2.505 0 0 1 -1.95 1.14c-1.14 0-1.82-1.04-1.82-2.76a7.139 7.139 0 0 1 .8-3.31 19.356 19.356 0 0 0 2.962 4.93zm29.09-19.49v1.49c0 5.65.27 7.59 1.32 9.05a23.089 23.089 0 0 0 -3.55 2.3 8.965 8.965 0 0 0 -3.65 6.88 6.7 6.7 0 0 0 3.22 5.87c2.62 1.52 5.53 2.04 11.43 2.04 2.97 0 5.23-.1 8.59-.36v-5.83a73.014 73.014 0 0 1 -9.98.58c-3.34 0-4.57-.13-5.81-.52a2.208 2.208 0 0 1 -1.57-2.17c0-3.18 6.64-5.93 16.47-6.84l-.68-5.94a54.542 54.542 0 0 0 -9.55 2.01c-.43-.74-.5-1.16-.5-4.08 0-1.75.04-2.79.07-4.48zm23.75.07v2.98l-.03 4.18c-.07 3.96-.1 7.37-.1 9.12 0 4.63.81 7.42 2.63 9.17 1.64 1.56 3.96 2.27 7.29 2.27 4.55 0 7.42-1.26 9.89-4.34a19.191 19.191 0 0 0 3.43-8.3l-5.09-2.57a20.849 20.849 0 0 1 -1.4 5.36 6.967 6.967 0 0 1 -6.79 4.31c-3.31 0-4.46-1.43-4.46-5.55 0-3.21.31-13.32.5-16.53zm42.56 8.43v-5.32h-6.43c.12-.84.12-.91.4-3.27l-5.56-.2c-.09 1.59-.16 2.34-.25 3.47h-4.42v5.32h3.71a96.754 96.754 0 0 1 -4.51 17.77l5.47 1.72a194.708 194.708 0 0 0 4.32-19.49zm-4.61 8.43a8.788 8.788 0 0 0 -1.67 4.86 5.165 5.165 0 0 0 3.56 4.87c1.6.68 3.4.87 7.88.87 1.58 0 2.47 0 4.33-.06l-.1-5.61a39.071 39.071 0 0 1 -5.84.32c-3.74 0-4.82-.35-4.82-1.55a3.324 3.324 0 0 1 .8-2.01zm2.35-2.08a18.85 18.85 0 0 1 7.76-1.33c1.14 0 2.04.04 3.55.13v-5.51c-7.2-.06-9.3.26-13.26 1.98z"/><path d="m722.171 3347.2v2.47h-19.812v8.05h19.341c-.2.98-.336 1.69-.47 2.47h-24.85v10.01h20.283c-2.619 2.61-10.209 5.37-19.141 7.06-.537.07-1.209.21-1.813.35l4.5 11.29c12.9-2.61 24.112-9.31 27.873-16.65 5.708 8.68 14.977 14.11 28.006 16.51l4.433-11.5c-9.806-.99-16.858-3.32-20.888-7.06h20.283v-10.01h-28.006c.2-1.13.268-1.7.4-2.47h21.424v-8.05h-20.82v-2.47h18.94v-4.58h6.515v-17.08h-24.78v-3.81h-11.149v3.81h-24.313v17.08h6.045v4.58h18zm0-8.74h-13.3v-3.32h13.3zm10.746 0v-3.32h14.44v3.32zm60.917 17.77h23.037v-1.97a41.471 41.471 0 0 0 5.171 4.51l6.313-9.24a48.956 48.956 0 0 1 -6.917-5.36 48.571 48.571 0 0 0 5.44-9.03v-11.01h-15.778c-.067-.7-.134-.91-.269-2.11l-8.664 1.62.067.56h-3.9l.134-.28a13.138 13.138 0 0 1 .538-1.48l.336-.78-9.336-.7a36.719 36.719 0 0 1 -4.634 9.38v-6.98h-21.022v64.98h10.007v-20.96l1.881 9.31h1.948c3.693-.07 6.514-2.68 7.656-7.4h4.231c-2.015 4.23-6.38 8.53-11.216 11.07l7.321 7.55a36.639 36.639 0 0 0 7.32-6.98l1.478 7.41h9.739c3.29.21 5.641-2.12 5.708-5.65v-13.4h8.731l-7.723 4.79c1.612 4.31 5.641 9.81 10.208 13.9l6.784-8.18c-2.485-1.55-7.321-7.2-9.067-10.51h6.716v-10.02h-40.364c-.941-4.8-2.552-9.6-4.03-12 .47-1.41.672-2.04 1.612-5.15a3.9 3.9 0 0 1 .2-.7l1.344 2.33a14.751 14.751 0 0 0 1.611-1.13c1.344.99 1.948 1.48 3.426 2.75a19.893 19.893 0 0 1 -6.246 4.51l5.238 8.19a48.223 48.223 0 0 0 4.97-4.16v2.32zm6.515-9.8a50.73 50.73 0 0 0 5.239-9.81 58.316 58.316 0 0 0 5.171 9.81zm-6.851-5.08-.2.21c-1.746-1.2-2.754-1.91-3.492-2.33a8.274 8.274 0 0 0 1.208-1.48c2.015 1.13 2.351 1.34 3.56 2.12-.336.42-.537.77-.806 1.13zm-3.223 27.94h9.805v7.05c.067 1.34-.4 1.98-1.477 1.91h-3.09a31.225 31.225 0 0 0 2.485-4.38zm3.358-35.49.47-.85.134-.21h4.03a30.964 30.964 0 0 1 -1.41 3.25 20.327 20.327 0 0 0 -2.485-1.42 4.6 4.6 0 0 0 -.941-.42zm25.186-1.06a25.026 25.026 0 0 1 -2.754 5.01 38.739 38.739 0 0 1 -2.552-5.01zm-44.462 1.27h2.888c.067 1.76-1.074 7.27-2.888 14.32zm0 31.47v-16.37c2.015 3.31 3.291 8.61 3.291 13.4 0 2.4-.336 2.97-1.813 2.97zm89.407 19.54c7.052-.71 12.895-2.82 17.126-6.28 6.515-5.22 10.343-14.32 10.343-24.69 0-17.5-11.014-28.58-28.476-28.58-18.806 0-31.9 13.2-31.9 32.25 0 12.77 5.91 21.44 14.574 21.44 6.783 0 12.29-5.08 15.649-14.46a96.622 96.622 0 0 0 5.238-27.37c7.925.91 12.492 6.7 12.492 15.87 0 12.07-6.447 18.84-18.872 19.9zm-8.664-47.06c-1.41 16.58-5.1 27.8-9.2 27.8-2.216 0-3.694-3.11-3.694-7.83a22.524 22.524 0 0 1 5.776-15.52c1.947-2.05 3.424-3.04 7.118-4.45zm70.964 50.8c8.731-5.01 11.216-9.38 11.552-20.67h1.948v15.31c0 3.31 1.746 5.08 5.1 5.08h5.91c6.717.07 7.59-1.48 8.06-15.24l-8.127-1.91-.067.92v4.52a1.619 1.619 0 0 1 -.067.63.541.541 0 0 1 -.6.49h-.873c-.6 0-.739-.28-.739-1.55v-8.25h7.59v-17.78h-29.217v17.78h2.552c-.134 4.09-1.477 7.05-4.231 8.96l-.2-5.79c-2.552 1.2-4.433 2.05-5.508 2.47v-5.64h3.963v-17.78h-26.463v17.78h3.09c-.2 5.15-2.284 8.68-6.649 11.5l6.246 9.31c6.111-5.64 8.328-11.01 8.664-20.81h2.283v19.4c6.313-2.47 7.791-3.11 11.753-4.94zm-12.626-31.61v4.09h-6.784v-4.09zm32.1 0v4.09h-8.8v-4.09zm-40.163-35.84v3.67h-9.134v9.45h2.821c.134 1.13.2 1.56.269 2.19l.2 1.55.067.36h-5.171v9.59h29.82v-9.59h-3.287c.269-.92.4-1.63.94-4.1h2.351v-9.45h-8.6v-3.67h-10.273zm7.187 13.12a32.9 32.9 0 0 1 -.605 4.1h-3.492c-.135-.78-.135-.92-.269-1.84l-.266-1.69-.067-.57h4.7zm23.641-13.12v3.67h-10.475v9.45h3.426a36.093 36.093 0 0 1 .671 4.1h-4.164v9.59h32.439v-9.59h-5.1a37.456 37.456 0 0 0 1.008-4.1h2.619v-9.45h-9.94v-3.67h-10.481zm7.79 13.12c-.134.92-.47 3.18-.671 4.1h-3.963l-.067-.5-.134-1.48-.269-1.41a4.309 4.309 0 0 1 -.067-.71h5.178zm40.467 3.95h14.91v6.35h-13.03v10.8h10.746l-8.6 3.74a47.086 47.086 0 0 0 7.59 13.69 51.57 51.57 0 0 1 -14.642 4.79l4.5 11.43a59.914 59.914 0 0 0 18.87-8.32 77.376 77.376 0 0 0 16.46 8.18l5.24-11.92a63.109 63.109 0 0 1 -12.76-4.45 53.123 53.123 0 0 0 9.13-16.44v-11.5h-12.49v-6.35h14.97v-11h-14.97v-6.07h-11.011v6.07h-14.91v5.08h-4.836v-11.15h-10.746v11.15h-7.052v10.58h7.052v11.01c-2.888.7-4.768 1.13-7.119 1.62l.6 11.57c3.9-.92 5.239-1.2 6.515-1.62v9.88c-.067 1.27-.47 1.62-1.612 1.62h-5.306l1.948 11.43h9.94c3.828-.5 5.709-2.47 5.776-6.14v-20.11c1.41-.42 2.686-.92 4.97-1.83l-.134-11.08c-2.015.71-3.291 1.13-4.836 1.62v-7.97h4.836v-4.66zm26.667 17.15a27.917 27.917 0 0 1 -6.05 10.93 32.425 32.425 0 0 1 -6.715-10.93zm67.13 28.78c.67 1.06 1.2 2.12 2.61 4.94l10.75-5.78a137.953 137.953 0 0 0 -13.23-18.91h12.49v-11.29h-60.65v11.29h14.18a88.206 88.206 0 0 1 -4.03 10.72l-7.66.07-2.22-.07 1.88 12.14c10.41-.5 20.29-.99 22.97-1.27 3.83-.28 7.66-.57 11.49-.92zm-26.2-9.1c1.41-2.89 2.96-6.56 4.57-10.65h18.13l-7.59 3.6c1.82 2.33 2.82 3.74 4.84 6.49-3.63.07-6.99.21-8.13.28-4.23.14-7.05.28-8.12.28zm-9.33-25.82h35.73v-4.37a79.7 79.7 0 0 0 9.53 5.01l5.78-11.86c-11.15-4.02-20.48-10.16-26.39-17.28h-13.3q-6.75 9.735-26.8 17.49l5.57 12a53.635 53.635 0 0 0 9.88-5.08zm8.73-10.3a60.917 60.917 0 0 0 9.27-8.75 67.776 67.776 0 0 0 9.2 8.75zm74.54 29.14c-4.03 4.09-10.28 7.48-16.93 9.17l3.9 7.06c10.14-2.9 18.6-9.04 22.29-16.23h2.62c-2.95 6.35-8.46 11.29-16.79 15.03l6.25 6.2a33.46 33.46 0 0 0 10.68-7.54l1.34 6.35h10.34c6.99-.15 8-3.6 8.53-28.72h-26.927c.34-.49.61-.92 1.48-2.33h26.86v-8.75h-45.47v8.75h8.6a26.062 26.062 0 0 1 -8.26 6.35v-2.75c-1.75.71-2.42.99-3.36 1.34v-14.11h3.36v-11.15h-3.36v-15.45h-10.47v15.45h-4.97v11.15h4.97v17.36c-2.42.7-3.77 1.05-5.91 1.48l1.14 12.13a148.962 148.962 0 0 0 18.74-6.98v-2.33l1.47 2.4a49.884 49.884 0 0 0 6.92-3.88h2.96zm14.44 10.86a42.949 42.949 0 0 0 5.5-9.8c.2-.57.34-.92.41-1.06h1.74c-.54 9.59-.94 10.72-3.69 10.86zm-23.78-55.8v23h39.29v-23zm28.75 6.63v2.68h-18.34v-2.68zm0 7.62v2.68h-18.34v-2.68zm46.17-8.33c.4-1.69.67-2.82 1.14-5.43l-12.02-.63c-.47 2.96-.67 3.95-1.14 6.06h-13.97v10.37h11.01a61.593 61.593 0 0 1 -13.9 21.59l7.86 8.4c1.68-1.62 4.23-5.08 8.53-11.57 4.03-4.09 7.59-6.07 10.74-6.07a4.409 4.409 0 0 1 3.63 1.55c-11.48 5.79-16.39 11.22-16.39 18.06a11.766 11.766 0 0 0 7.39 11.08c4.1 1.62 9.94 2.4 18.4 2.4 1.08 0 5.78-.07 14.17-.21l-.06-11.57a126.107 126.107 0 0 1 -16.66.91c-8.8 0-11.15-.84-11.15-4.23 0-2.4 1.68-4.16 6.18-6.49l.07 1.41c0 1.62-.07 2.4-.27 5.08h11.01c.07-3.24.07-3.24.07-4.58 0-2.26-.07-4.1-.2-6.14a112.545 112.545 0 0 1 14.77-4.02l-2.01-11.36a130.429 130.429 0 0 0 -15.04 5.08c-2.22-4.38-5.18-6.21-10.15-6.21a15.849 15.849 0 0 0 -7.79 2.04 47.332 47.332 0 0 0 2.42-5.15h27v-10.37z"/><path d="m718.068 3404.96h-15.707v47.65h15.707zm39.183-1.43h-15.793v38.16c-.256 15.05-8.536 20.33-35 22.48l5.805 15.05c32.353-3.58 44.048-13.8 44.987-38.79v-36.9zm64.49 43.53c15.366-9.76 22.2-21.5 24.756-42.55h-73.243v15.05h54.463c-2.732 6.36-6.317 10.21-13.915 14.87a83.66 83.66 0 0 0 .427-8.87l-15.366-.09.086 1.53c0 12.45-2.476 22.03-7.256 27.76-4.439 5.38-10.841 9.77-18.78 12.81l9.816 12.54c19.207-9.49 28.171-21.67 30.646-41.83zm53.99-41.11h-14.938v21.05c.17 19.7-3.074 31.62-11.354 41.02l11.354 12.09c10.5-10.65 14.853-26.6 14.938-54.55zm23.3-2.24h-14.931v74.43c24.67-.98 38.841-13.88 45.073-41.29l-14.256-6.36c-2.476 15.14-7.256 23.56-15.878 27.95v-54.73zm43.215-.36a365.706 365.706 0 0 0 -2.817 45.5 187.333 187.333 0 0 0 1.963 30.01l15.622-1.07a211.62 211.62 0 0 1 -2.22-31.98 249.076 249.076 0 0 1 3.244-41.39zm22.621 5.73v15.41h43.278v-15.41h-43.273zm1.964 31.08a31.862 31.862 0 0 0 -4.525 15.95c0 4.75 1.452 9.14 3.757 11.73 4.78 5.11 12.8 7.26 27.4 7.26a131.25 131.25 0 0 0 16.3-.9l-.25-15.94c-4.44.54-14.258 1.07-20.831 1.07-8.792 0-12.634-1.7-12.634-5.64 0-2.87 1.451-6.36 4.012-9.85zm52.734-39.5v13.44h34.06v3.85h-27.49v32.34h-6.83v13.43h6.83v19.71h14.09v-19.71h39.78v4.03c0 1.88-.43 2.33-2.22 2.33h-11.53l2.48 13.35h17.41c5.47-.09 7.77-2.78 7.77-8.69v-11.02h6.74v-13.43h-6.74v-32.34h-27.57v-3.85h34.06v-13.44zm34.06 29.65v4.75h-13.4v-4.75zm26.38 0v4.75h-13.66v-4.75zm-26.38 14.96v5.02h-13.4v-5.02zm26.38 0v5.02h-13.66v-5.02zm52.31 38.88c17.41-6.81 23.47-14.43 25.01-31.27h3.25v22.85c.17 4.92 2.64 6.98 8.1 6.8h12.89c6.32-.62 7.35-3.04 8.37-20.96l.09-1.16-11.02-2.33v1.34a64.254 64.254 0 0 1 -.59 7.89 1.468 1.468 0 0 1 -1.71 1.43h-1.54c-1.19-.09-1.7-.81-1.62-2.24v-13.62h13.32v-52.4h-48.15v52.4h5.98c-.34 5.56-2.99 9.59-8.11 12.54l-.43-11.55c-1.45.54-2.82.98-6.83 2.15v-14.33h5.81v-13.44h-5.81v-12.45h6.83v-13.88h-27.91v13.88h8.02v12.45h-6.66v13.44h6.66v17.37c-3.16.63-5.89.99-9.13 1.35l2.05 15.23c5.63-1.26 9.9-2.33 14.51-3.77a8.047 8.047 0 0 1 1.36-.35zm40.97-71.4v3.86h-21.25v-3.86zm0 12.46v3.94h-21.25v-3.94zm0 12.54v4.03h-21.25v-4.03zm26.83-35.21 1.96 50.79h12.72l1.96-50.79zm.6 72.29h15.45v-15.5h-15.45z"/></g></svg>