<svg xmlns="http://www.w3.org/2000/svg" width="560" height="59"><path d="M0 54h560v5H0zm28.06-24.93v9h-5.33v-9h-3.11A15.79 15.79 0 0113.19 39a12.27 12.27 0 00-4.71-3.11v3h-6V1.51h17.6v14.62H8.48v19.7c2.95-1.64 5-3.23 5.8-6.76H10v-4.66h4.87v-2.48H11v-4.41h20.38v4.41h-3.32v2.48h4.2v4.66zM14.45 5.67h-6v1.56h6zm0 4.75h-6V12h6zm8.28 11.51h-2.61c0 .5 0 2.1-.08 2.48h2.69zm9 17.14a14.71 14.71 0 00-2.23-6.14 12.07 12.07 0 002.44.34c.79 0 1.68 0 1.68-1.47V16.13H21.93V1.51h17.68v32.68c0 3.91-2.39 4.92-7.89 4.88zm1.89-33.4h-6.06v1.56h6.05zm0 4.75h-6.06V12h6.05zm44.04 9.66v1.76h6.51v4.25h-6.51v1.76h6.51v4.24h-6.51v1.73h8.49v4.58H66.87v.67h-5.93V24.45l-1.13 1.13a14.34 14.34 0 00-2-3v16.49h-6.15V18.9c-.34.42-.8 1-1.13 1.39C49 17.9 48.3 17.14 46.24 16c1.93-2.31 6.68-8.27 8.82-16l5.88 2v-.7l6 .21c.46 0 .63.25.63.59s-.34.63-.92 1v4h3.15V.21l6.2.38c.43 0 .64.25.64.54 0 .55-.64.72-1 .8v5.21h3.53V1.51l6.21.38c.51 0 .76.17.76.46 0 .51-.51.72-1.05 1v8.4H75.4l2.94 1.6a.78.78 0 01.46.67c0 .46-.59.63-1.22.75-.17.3-.42.68-.67 1h9v4.29zm-19.87-.76a38.36 38.36 0 005.72-7.6h-2.57V3.23c-.12 0-.25.13-.37.17C59.85 5 59.43 5.84 58 8.7c.63.33.8.42.8.71s-.67.76-1 .88zm9.08.76v1.76h4.87v-1.76zm0 6v1.76h4.87v-1.75zm4.87 7.73v-1.72h-4.87v1.73zm-1.51-18a40.8 40.8 0 002.35-4.07h-5.21l1.93 1c.34.16.59.33.59.67s-.46.63-1.22.71c-.46.76-.63 1-1 1.72zm48.84 5.36v-5.33h.93v-9.2h-.76V1.55h12.94v5.09h-1.43c-.08 4-.33 6.84-.59 9.2h2.23v5.33h-3.15c-.34 1.09-.42 1.39-.67 2.19.67 0 1.13.08 1.13.54s-.5.63-1 .8v7.65c0 .46 0 .67.42.67s.63-2.14.67-3.24a13.78 13.78 0 003.82 2.65c-.84 4.2-1.43 6-4.54 6h-1.72c-3.19 0-3.19-1.89-3.19-3.49v-3a29.07 29.07 0 01-6.89 7.56 22.23 22.23 0 00-4.75-3.83 23.36 23.36 0 003.62-2.47c-.09-.38-.42-1.89-.51-2.19-5.12 3.74-5.71 4.16-7.27 5.13-.21.67-.33 1-.71 1-.21 0-.38-.12-.59-.75l-1.85-5.59c.72-.29 1-.42 2.4-1.05V23.4L105 26.59a12.91 12.91 0 01-1.34-2.59v14.9h-5.13V28.52c-.54 1.52-.84 2.27-1.17 3a28.8 28.8 0 00-4.62-3.32 43.86 43.86 0 005.71-14.37h-3.82V8.19h3.9V.76l5.13.42c.38 0 .8.12.8.46s-.3.46-.8.71v5.84h3v5.67h-2.73a33 33 0 003.74 6.56V1.55h10.58v18.19h-6v7.57c1.09-.64 1.55-.93 2.06-1.27-.55-1.63-.89-2.43-1.22-3.27l4.7-1.81a51.3 51.3 0 012.9 7.31 26.67 26.67 0 003.53-7.1zm-5-12.26V6.3h-1.85v2.61zm-1.85 3.9v2.48h1.85v-2.48zm12-6.17v9.2h1.18a74.55 74.55 0 00.46-9.2zm16.35 19.78v-4.91h11.64c.38-.59.76-1.14 1.34-2.14h-10V8h8.82V6.3h-11.71V1.6h37.93v4.7H166.7V8h8.91v11.37h-14.45a.53.53 0 01.17.33c0 .59-.8.67-1.05.72-.3.46-.42.67-.68 1.09h18.91v4.91H172a.78.78 0 01.16.38c0 .51-.5.67-1.72.76a29.87 29.87 0 01-2.86 3.11 52.64 52.64 0 019.62 3.69 18.24 18.24 0 00-3.94 5.13 51 51 0 00-10.67-5.09c-6.26 3.41-13.4 4.41-19 4.71a11.09 11.09 0 00-2.82-5.42 45.27 45.27 0 0014.41-1.64c-.75-.21-1.51-.38-3.44-.84-.25.21-.59.59-1 .93a22.33 22.33 0 00-6.09-2.44 36 36 0 003.57-3.28zm11.85-14h-3V15h3zm3.61 14l-1.22 1.43c1.39.21 5.3.93 6.47 1.18a13.6 13.6 0 002.61-2.61zm5-20.12H158V8h3.06zM158 15h3.06v-2.61H158zm8.69 0h3.07v-2.61h-3.06z" fill="#ffa000" data-name="レイヤー 2"/></svg>