<svg xmlns="http://www.w3.org/2000/svg" width="630" height="60"><defs><style>.cls-1{fill:#00b4dc}</style></defs><g id="レイヤー_2" data-name="レイヤー 2"><g id="レイヤー_1-2" data-name="レイヤー 1"><rect class="cls-1" width="630" height="60" rx="5"/><path d="M90.31 31.54v2.35h-1.25V38h-3.7v-.79h-4.6v1.59c0 1.28-.33 2.15-4.05 2.15h-1.32a9.47 9.47 0 00-1.18-3.12 19.87 19.87 0 002.13.2c.72 0 .72-.25.72-.77h-7.8v-2.5h7.8v-.85h-9.52v-2.37h9.52v-.8h-7.8v-2.2h7.8v-.7h-6.35v-5.08h6.35v-.7h-9.52v-2.62h9.52v-1.37l3.87.14a.35.35 0 01.38.33c0 .22-.15.27-.55.47v.43h9.45v2.62h-9.45v.7H87v5.08h-6.24v.7h8.3v3zm-13.25-5.8v-1H74v1zm3.7-1v1h3v-1zm4.6 6.78v-.8h-4.6v.8zm0 3.2v-.85h-4.6v.85zM106 21.44a18.93 18.93 0 002.15-3.53l3.75.95c.18.05.35.13.35.3s-.35.4-.72.35c-.65 1-.9 1.45-1.25 1.93H116v3.12H93.19v-3.12h5.5a11.52 11.52 0 00-1.43-2.13l3.38-1.52a16.47 16.47 0 012 3.12l-1.35.53zm-8 14.1v5.39h-3.5V25.39h10v13.1c0 2-1.07 2.34-4.37 2.44a7.1 7.1 0 00-1.28-3.54c.38 0 1.13.12 1.5.12s.75 0 .75-.8v-1.17zm3-6.35v-1.1h-3v1.1zm0 3.72v-1.12h-3v1.12zm8.52-7.12c.23 0 .38.07.38.25s-.15.27-.38.42v9.95h-3.6V25.64zm5.28-.53c.22 0 .45 0 .45.28s-.28.32-.6.5V38a2.37 2.37 0 01-1.08 2.42c-.9.6-2 .58-4 .55a9.36 9.36 0 00-.82-3.74c.42.05 1.35.17 1.72.17.63 0 .63-.4.63-.7V25.09zm21.81.03l-2.35 13.79h-5.1l-4.52-19.69h4.47l2.8 14.61 2.45-14.62h4.5L141.31 34l2.8-14.62h4.47l-4.52 19.69H139zm31.2 10.27v3.52h-16.15V19.39h15.82v3.52h-11.32v4.43h10v3.37h-10v4.85zm3.48 3.52V19.39h10.59c3.85 0 6.2 2.1 6.2 5.05a4.06 4.06 0 01-3 4.07 5.09 5.09 0 011.9.9 4.82 4.82 0 011.87 4c0 3.37-2.65 5.69-6.47 5.69zm4.5-11.49h5.09a2.3 2.3 0 002.4-2.5 2.14 2.14 0 00-2.4-2.28h-5.09zm0 8.07h5.07c1.6 0 3.2-.72 3.2-2.72 0-2.2-1.95-2.55-3.2-2.55h-5.07zm25.82-.22v-5.83a14 14 0 01-2 1.38 12.62 12.62 0 00-2.48-2.78 17.58 17.58 0 003.16-2.21 18.32 18.32 0 00-2-1.6l2.4-2.45a17.07 17.07 0 012.25 1.57 7.33 7.33 0 001.5-2.07h-4.63v-3h8.62l1.13 1.2a19.9 19.9 0 01-2.4 4.25h5.12a16.13 16.13 0 01-2.99-4.9l3.17-1.2a16 16 0 001.07 2.07 12.74 12.74 0 001.53-1.9l2.62 1.65c.1.05.28.18.28.3 0 .3-.43.33-.68.33a27.24 27.24 0 01-1.8 2.12c.28.33.48.53.68.73a31.64 31.64 0 002.27-2.7l2.33 1.6c.2.15.45.3.45.48s-.38.35-.75.37a19.83 19.83 0 01-2.15 2.25 17.1 17.1 0 003.52 2.33 12.63 12.63 0 00-2.3 3 26.64 26.64 0 01-2.3-1.65v6.68h-1.8a.36.36 0 01.28.35c0 .25-.25.4-.53.42a9 9 0 01-.52 1.37h6.12v3h-22.69v-3h6.37c-.1-.3-.47-1.27-.7-1.82l1.23-.32zm3.73-9.28c-.65.7-.9 1-2 2h13.2a23.27 23.27 0 01-2.6-2.35v1.3h-8.57zm-.13 4.84v1.6h8.42V31zm2.35 4.45c.23.55.4 1 .7 1.89l-.9.25h3.37a18.14 18.14 0 00.75-2.14zm25-8.29h-1.82v1.3h2.5v3.18h-2.5V35a15 15 0 00.87-3l2.85.58c.15 0 .37.07.37.32s-.37.35-.72.38c-.1.37-.15.5-.5 1.55a29.44 29.44 0 005-1.78V29h-1.77a26.5 26.5 0 011.75 3.2 23.68 23.68 0 00-2.7 1.78 20 20 0 00-1.8-3.4l2.52-1.58h-2.85v-3h7.87v-1h-6.32v-2.61h6.32v-.95h-7.52v-3.05h11.1v7.67h1.52v3h-3l2.77 1.35a.42.42 0 01.28.35c0 .25-.18.3-.65.38a23.2 23.2 0 01-2 3 18.55 18.55 0 003.13 2.53 11.77 11.77 0 00-2 3.17 21.55 21.55 0 01-3.35-3.4v2.13c0 2.47-1.63 2.47-4.6 2.47a11.43 11.43 0 00-1.31-3.46c-.25.13-.32.16-.67.31 0 .47-.08.89-.5.89a.4.4 0 01-.3-.27l-.9-3.6a12.47 12.47 0 01-.53 1.28 9.9 9.9 0 00-2.34-.58v1.15c1.82-.35 2.34-.47 2.82-.6a10.18 10.18 0 00-.32 3.12c-3.18.7-5.75 1.13-8.18 1.48-.05.37-.12.7-.47.7s-.28-.2-.3-.38l-.58-3.44c1-.06 2.78-.25 3.7-.36v-1.14a17.11 17.11 0 00-2.62.89 23.79 23.79 0 00-1.28-3.82l2.83-.9a28.35 28.35 0 011.07 3v-3.67h-3.27v-3.18h3.27v-1.3h-1.95v-.95a8.89 8.89 0 00-2.62-2.47 11.5 11.5 0 004.8-5.58l3.55.7c.27.05.37.13.37.28s-.27.42-.57.45a18.77 18.77 0 003.62 3.47 10.25 10.25 0 00-2.05 1.63zm-1.47-2.92a12.33 12.33 0 01-1.88-2.24c-.57.77-1 1.3-1.77 2.25zm7.49 12.05c-.62.35-1.55.85-2.3 1.17.23 0 1.43.15 1.58.15.72 0 .72-.5.72-.8zm3.28-5.18c0 .08.12.23.17.33a13.78 13.78 0 001.33-2.44h-1.5zM315 3.75h305a5 5 0 015 5v41.67a5 5 0 01-5 5H315V3.75z" fill="#fff"/><path class="cls-1" d="M394.75 35.41v-5.82a14 14 0 01-2 1.37 12.23 12.23 0 00-2.47-2.77 17.26 17.26 0 003.15-2.19 19.59 19.59 0 00-2.05-1.6l2.4-2.45a17 17 0 012.22 1.59 7.14 7.14 0 001.49-2.08h-4.59v-3h8.62l1.13 1.2a21 21 0 01-2.4 4.25h5.12a16.6 16.6 0 01-2.95-4.91l3.18-1.2a16 16 0 001.07 2.07A12.74 12.74 0 00408.2 18l2.62 1.65c.1.05.28.18.28.3 0 .3-.43.33-.68.33-.82 1-1.5 1.82-1.8 2.12.28.32.48.52.68.72a28.8 28.8 0 002.27-2.7l2.32 1.58c.21.15.46.3.46.47 0 .33-.38.35-.75.38a19.83 19.83 0 01-2.15 2.25 17.15 17.15 0 003.55 2.31 12.42 12.42 0 00-2.3 3c-.38-.23-1.17-.78-2.3-1.65v6.67h-1.8c.18.08.28.18.28.35s-.25.4-.53.43a9.45 9.45 0 01-.52 1.37h6.12v3h-22.72v-3h6.37c-.1-.3-.48-1.27-.7-1.82l1.22-.33zm3.72-9.27c-.65.7-.9 1-2 2h13.2a22.33 22.33 0 01-2.6-2.35v1.3h-8.58zm-.12 4.86v1.6h8.42V31zm2.35 4.45c.22.55.4 1 .7 1.9l-.9.25h3.37a17.61 17.61 0 00.75-2.15zm28.5-8.31h-1.82v1.3h2.49v3.17h-2.49V35a15.6 15.6 0 00.87-3l2.85.57c.15 0 .37.08.37.33s-.37.35-.72.37c-.1.38-.15.5-.5 1.55a29.4 29.4 0 005-1.77V29h-1.77a24.89 24.89 0 011.75 3.2 23.35 23.35 0 00-2.73 1.8 21.66 21.66 0 00-1.8-3.4l2.55-1.6h-2.85v-3h7.87v-1H432v-2.64h6.32v-.95h-7.52v-3.05h11.1V26h1.52v3h-3l2.77 1.35a.42.42 0 01.28.35c0 .25-.18.3-.66.37a22.35 22.35 0 01-2 3 19.46 19.46 0 003.12 2.52 11.84 11.84 0 00-2 3.18 21.55 21.55 0 01-3.35-3.4v2.12c0 2.48-1.63 2.48-4.6 2.48a11.3 11.3 0 00-1.28-3.38c-.25.13-.32.15-.67.3 0 .48-.08.9-.5.9a.4.4 0 01-.3-.27l-.9-3.6a11.16 11.16 0 01-.53 1.27 9.53 9.53 0 00-2.34-.57v1.15c1.82-.35 2.34-.48 2.82-.6a10 10 0 00-.33 3.12c-3.17.7-5.75 1.12-8.17 1.48-.05.37-.12.69-.47.69s-.28-.19-.3-.37l-.58-3.45c1 0 2.77-.25 3.7-.35v-1.18a16 16 0 00-2.62.9 23.79 23.79 0 00-1.28-3.82l2.82-.9a28.58 28.58 0 011.08 3.05v-3.73h-3.27v-3.17h3.27v-1.3h-2.03v-.95a8.92 8.92 0 00-2.62-2.48 11.48 11.48 0 004.8-5.57l3.54.7c.28.05.38.13.38.27s-.28.43-.58.46a19.2 19.2 0 003.63 3.43 10.45 10.45 0 00-2.05 1.62zm-1.48-2.93a11.59 11.59 0 01-1.87-2.21c-.57.78-1 1.3-1.78 2.25zm7.5 12c-.62.35-1.55.85-2.3 1.18.23 0 1.43.15 1.58.15.72 0 .72-.5.72-.8zm3.28-5.17a3.1 3.1 0 01.17.32A13.68 13.68 0 00440 29h-1.5zM456.1 20c.2.08.32.17.32.35s-.47.35-.7.37a34.51 34.51 0 00-1.5 9.63 16.88 16.88 0 00.18 2.5c.32-.48.85-1.28 1.17-1.78a10.65 10.65 0 001.8 2.48 11.2 11.2 0 00-2.07 6.12l-3.35.62a35.12 35.12 0 01-1.35-10.07 45.15 45.15 0 011.5-11.44zm11.9-.56c.13 0 .33 0 .33.27s-.35.38-.58.4c-.07.55-.17 1.25-.25 3a22.72 22.72 0 003.7-.92V26c-.57.15-1.72.43-3.8.8a40.34 40.34 0 00.4 5.75 13.86 13.86 0 014.75 2.58c-.4.72-1.15 2.35-1.7 3.52a8.9 8.9 0 00-2.67-1.9c-.1 3.2-3.3 3.57-4.88 3.57-3.75 0-5.62-2-5.62-4.37 0-3 3-4.1 6.2-4-.2-2.85-.23-3.18-.28-4.63-1.42.13-2.45.13-2.87.13a18.2 18.2 0 01-1.85-.08v-3.98a26.64 26.64 0 004.7.17v-4.87zm-5.17 15.5c-.55 0-1.75.17-1.75 1s.82.92 1.62.92c.2 0 1.7 0 1.7-1.22a.7.7 0 00-.05-.33 3.63 3.63 0 00-1.55-.37zm21.42-3.73c-1.35 1.2-2.25 2.58-2.25 3.15a1 1 0 00.5.8c.92.5 3.8.55 5 .55a33 33 0 009.65-1.25 28.35 28.35 0 00.73 4.15 52.92 52.92 0 01-10.6 1c-5.72 0-9.4-1-9.4-4.85 0-2.15 1.75-4 3.72-5.72zm11.95-8.72a24 24 0 00-7.88 5l-2.22-2.5a10.64 10.64 0 001.77-1.5c-.62 0-2.17.15-4.45.15a31.08 31.08 0 01-3.37-.15l-.2-4.12a44.75 44.75 0 007.55.54 34 34 0 006.77-.54zm18.52-3.67c.2 0 .48.15.48.4s-.13.32-.55.35c-.55 1.69-.6 1.87-.73 2.24a37.87 37.87 0 008.15-2c.13.82.45 2.72.7 3.72a42.94 42.94 0 01-10.22 2.13c-.6 1.65-.8 2.15-1.3 3.37a14.76 14.76 0 016.5-1.7c6.67 0 7 4.7 7 6a6.17 6.17 0 01-2.67 5c-1.33.9-3.83 2.4-10.75 2.4a20.18 20.18 0 01-2.33-.13 17.45 17.45 0 00-.92-3.72 35 35 0 003.72.23c.58 0 4.85 0 7.43-1.53a2.55 2.55 0 001.35-2.35c0-1.45-.75-2.67-3.05-2.67a12.8 12.8 0 00-8.65 4.17L505.3 33a34.77 34.77 0 003.32-7c-2.17 0-3.9-.08-4.84-.15l-.06-4.1a23.07 23.07 0 006 .55 32.77 32.77 0 001-4.42zm23.88 4.89c.17.05.37.1.37.33s-.3.32-.57.35a16.6 16.6 0 00-1.65 4.32 13.85 13.85 0 017.3-2.32 6.06 6.06 0 016.4 6.15c0 4.77-4.5 8-12.78 8h-1.82a14 14 0 00-1.18-4.19 14.19 14.19 0 003.7.37c5.68 0 7.93-2.12 7.93-4.22 0-.73-.35-2.55-2.93-2.55-3.57 0-6.17 2.3-8 4.1l-3.58-1.3a59.69 59.69 0 012.63-10.35zm-1.38-5.85a25.19 25.19 0 018.4 2.78 31.73 31.73 0 00-2.25 3.65 22.24 22.24 0 00-7.45-3.08zM615 29.58l-4.63-4.01v8.03l4.63-4.02z"/></g></g></svg>