<svg xmlns="http://www.w3.org/2000/svg" width="235.33" height="30"><path d="M39.75 14.61v2.66h-6.21a5.33 5.33 0 01-.1.84h9.27v2.76h-7.18A14.86 14.86 0 0043 23.8a10.14 10.14 0 00-1.89 3.14 17.43 17.43 0 01-9.17-5A13.64 13.64 0 0123.19 27a12.28 12.28 0 00-1.82-3.08c2.47-.19 5.47-.88 7.25-3.07h-7.3v-2.74h8.54c0-.19.08-.41.12-.84H24.3v-2.66h5.85v-.91h-6.21v-.94H21.2V6.83H30V5l3.82.1c.31 0 .55.12.55.31s-.19.29-.55.48v1h8.9v5.76H40v1.05h-6.27v.91zm-9.6-5h-5.57v1.48h5.57zm3.58 1.48h5.66V9.57h-5.08a.31.31 0 01.07.16c0 .29-.31.36-.65.44zm25.61 2.73v-3.39l3 .22c.36 0 .51.19.51.31s-.34.33-.51.38v1.54L65 12l1.58.65v6a2.65 2.65 0 01-1.68 2.76 4.46 4.46 0 002.76 1.3 6.09 6.09 0 01-.53 2.35 3.38 3.38 0 01-3 1.65H59c-3.56 0-3.72-2.37-3.72-3.07v-5.17l-1.08.34c-.25 6.36-.65 7.82-4.76 8.25a7.36 7.36 0 00-.74-3 9.9 9.9 0 01-1.44 2.64 8 8 0 00-3-1.75 16.33 16.33 0 002.57-7.46c.1-1.35.1-2.38.07-6.34h-2.11v-3h3.46V4.79l3.53.14c.21 0 .6.05.6.39 0 .19-.2.31-.6.45v2.36h2.71v1.56a12.76 12.76 0 002.26-5l3.25.89c.12 0 .33.1.33.34s-.17.31-.53.45a8.52 8.52 0 01-.31.82h7.63V10h-9a21.17 21.17 0 01-1.22 2l1.51.07c.29 0 .41.19.41.36s-.15.27-.41.41v1.2zm-9 2.28a23.32 23.32 0 01-1.44 7.44 6 6 0 001 .12c.72 0 1.06-.6 1.25-2.45a46.11 46.11 0 00.24-5.11zm0-5V13h3.43a9.17 9.17 0 00-1.46-.79 12.49 12.49 0 001-1.06zm4.88 3.94V14a8.85 8.85 0 00-1.11-.82v2.19zm3.14 2.37v4.85a1.29 1.29 0 001.39 1.32H63c1.42 0 1.54-.72 1.61-2.11a5.73 5.73 0 01-1.39.19 6.69 6.69 0 00-.87-2.47v2.93h-3v-5zm3.91-1.24v2.42c1.11 0 1.11-.79 1.11-1.11v-1.62zm27.31-2.91L91.33 15a34.19 34.19 0 01-5.66 7.15 8.29 8.29 0 00-2.88-2.33 14 14 0 003-3.19H81.9V24c0 2.69-1.68 3-5.55 2.93a8.1 8.1 0 00-1.17-3.53 9.59 9.59 0 001.94.19c1 0 1.15-.33 1.15-1.41v-5.53h-9.21v-3.39H79a43.17 43.17 0 00-5.23-2.11L76 8.65h-4.69V5.58H87l1.34 1.85a34.37 34.37 0 01-5.26 4.1 10.16 10.16 0 011.35.82c-.36.27-.65.46-1.18.91zm-13.3-4.61c.43.17 2.3.82 3.58 1.32a14.43 14.43 0 001.77-1.32zm29.64 7.97h6.31v3.15h-6.31v3.57c.6 0 1.3.05 2.23.05a68.24 68.24 0 007.4-.41 8.13 8.13 0 00-.87 3.75h-9.38a8.2 8.2 0 01-7.08-3.36A18.16 18.16 0 0196 27.16a7.12 7.12 0 00-3.43-1.49 16.68 16.68 0 004.08-9.93l3.69.64c.22.05.48.1.48.39s-.14.29-.67.48c-.12.6-.24 1.2-.55 2.35a5.17 5.17 0 002.69 3.12v-8.31H96v-1.82h-3V7h9.1V4.77l3.7.23c.34 0 .65 0 .65.28s-.12.29-.65.53V7h9.2v5.47h-2.79v1.92h-6.31zm5.55-5.3V9.93h-15v1.39zm22.6-3.27a1.78 1.78 0 001.2-.38l2.45 1.68a11.63 11.63 0 00-1.41 2.88c-2.45 6.07-4.16 10.3-12.53 14.47a14.52 14.52 0 00-2.69-3.16c2.57-1 9.38-4 11.28-12h-13.8V8.05zm-.36-4a15 15 0 012.19 2.5c-.72.46-.84.53-2 1.37a24.83 24.83 0 00-2.16-2.52zm4.11 0a16.38 16.38 0 012.11 2.62c-.67.46-1.54 1-2 1.34a15.18 15.18 0 00-2.11-2.68zM162.44 14v4.08h-20.86V14zm5.23-3.76v-3.6h12.27a6.75 6.75 0 001.65-.19l1.88 2a6.9 6.9 0 00-.92 1.53 40.38 40.38 0 01-3 5.88 64.39 64.39 0 017.2 6.58c-.8.91-2.09 2.35-2.88 3.26a33.23 33.23 0 00-6.46-6.84 27.75 27.75 0 01-9.22 7.18 10.78 10.78 0 00-2.73-3.29 20.19 20.19 0 007.8-4.8 19.1 19.1 0 004.8-7.75zm43.13 3.81v4h-21.67v-4zm15.96 12.8c-.67 0-2.3 0-2.3-1.54v-2.09h-3.27l1.3.56c.19.09.55.24.55.5s-.48.38-.93.41a13 13 0 01-7.83 2.45 8.68 8.68 0 00-1.22-2.93 5.25 5.25 0 00.88.09c.7 0 3.63-.21 4.95-1.08h-3.22v-8.56h16.8v7a7.13 7.13 0 002.86 1.27c-.14 1.17-.5 4-2.62 4zm-3.29-19.08v1.46a13.63 13.63 0 002-4.54l3.29.77c.17 0 .29.12.29.24 0 .29-.36.43-.7.46-.05.19-.14.43-.19.6h6.74v2.78h-8c-.14.22-.31.51-.79 1.18h7.34v2.93h-7.56V11c-.12.19-.43.58-.57.8a7.86 7.86 0 00-1.83-1.35v1.08h-3v.86h3.72v1.78h-10.87v-9h10.59v1.8h-3.46v.84zm-5.83 0v-.84h-1.39v.84zm-1.39 1.44v.84h4.42v-.84zm0 2.3v.86h1.39v-.86zm12.89 5.74v-.77H219v.77zM219 18.49v.82h10.13v-.82zm0 2.07v.82h10.13v-.82zm12.26 3.77c.39 0 .58-.27.75-1.11h-4.13v.56c0 .31.12.55.58.55zM0 0h10v30H0z" fill="#00b4dc" data-name="レイヤー 2"/></svg>