<svg xmlns="http://www.w3.org/2000/svg" width="560" height="58.7"><path d="M0 53.7h560v5H0zM29.45 8l2.18.34c1 .17 1.35.21 1.35.67s-.55.55-1 .59c-.17.42-.46 1-1 2h8.15v21.46c0 4.16-1 5.92-7.77 5.92v-1.09a7.34 7.34 0 00-1.51-4.49v2.52H17.73v1h-5.51v-9.78c-.12.08-.25.12-.42.21a7.92 7.92 0 00-2.94-2.77V39H2.77V11.64h8.78a15.79 15.79 0 00-1.64-3.07l3-.55h-11V3h15.9V0l6.34.29c.42 0 .8.13.8.55s-.42.59-.8.76V3h16v5zM8.86 17v5.93A9.29 9.29 0 0013.32 17zm24.45 4.58A4 4 0 0129.45 24h-5.38c-2.48 0-3.28-.88-3.28-2.86V17h-4.28l2.23.72c.29.08.88.29.88.67 0 .17 0 .46-1.14.71a15.09 15.09 0 01-3.82 6.18h15.25v7.82c.84.09 1.55.21 2 .21 1.3 0 1.38-.42 1.38-1.38zM16.51 8a22.46 22.46 0 011.85 3.24l-1.51.38h7.35A27.24 27.24 0 0025.88 8zm7.85 21.6h-6.63v2h6.63zM26.09 17v1.35c0 .54 0 .92.84.92h1.26c.8 0 .92-.71 1.26-2.27zm7.22 0h-3.82a11.92 11.92 0 003.82 2zM69.39 3.19c.42.05.63.17.63.42s-.38.51-1 .76a38.49 38.49 0 01-1.43 6.93 14.29 14.29 0 00-5.38-1v1.09H48.09V7.23H62.2v2.94a38.69 38.69 0 001.52-7.73zm-7.52 35.12h-5v-1.47h-2.39v2.06h-5.26V23.82h12.65v4.28a20.86 20.86 0 002.56-7.35l5.38 1.14c.29 0 .75.25.75.58 0 .64-.84.8-1.21.84a35.21 35.21 0 01-2.19 6.94 13.56 13.56 0 00-5.29-1.64v5.29c9-2.77 8.9-8.32 8.78-16l6.09.33c.21 0 .63 0 .63.51 0 .25-.29.46-1.13.71v3.11a12.4 12.4 0 003.66 6.76c.75.72 3.9 3.61 6.47 4.54a12.06 12.06 0 00-3.74 4.7 20.3 20.3 0 01-8.4-7.64c-1.26 2.39-4.54 6.47-9.16 7.94a12.94 12.94 0 00-3.15-4.08zM60.73 1.72V5.8H50.15V1.72zm0 11.09v4.08H50.15v-4.08zm0 5.51v4.07H50.15v-4.07zm-3.82 13.73V28.4h-2.43v3.65zM76.4.46c.51 0 .84.09.84.46s-.67.68-1.17.8c0 .63-.17 3.49-.17 4.08a9.58 9.58 0 003.1 5.84A25.85 25.85 0 0086.65 16a14.85 14.85 0 00-3.78 4.54c-1.93-.88-6.3-2.9-9.24-6.8a18.69 18.69 0 01-8.82 6.72 16 16 0 00-3.32-4.5C68.72 13.57 70.4 10 70.4 3.32c0-1.22-.05-1.93-.09-3.07zm9.08 4a.69.69 0 01.42.54c0 .21-.13.5-.59.5a3.94 3.94 0 01-.76-.08 27.4 27.4 0 01-3.82 5.12 17.38 17.38 0 00-4.45-3.31 22.61 22.61 0 004-5.59zM85 22.35c.42.21.63.38.63.71 0 .51-.67.72-1.26.76a25.23 25.23 0 01-2.77 4.58 16 16 0 00-4.45-3 27.9 27.9 0 002.91-5.4zM107.4 1.6l6.72-.93c.29 0 .88-.08.88.42s-.29.63-.63.88l.8 5.47 9.45-1.18.71 6.13-9.24 1.26.63 4.37 14-1.8.71 6.17-13.77 1.85 1.93 13.23-6.72 1.14-2-13.49-14.7 1.93-.76-6.3L110 18.86l-.63-4.32-10.29 1.34-.76-6.3 10.08-1.26zM152 8.36l5.88-.71c.38-.05.88-.13.88.37 0 .34-.33.59-.63.8l1.22 6.09 10.13-2.05a3.59 3.59 0 001.93-1.14l4.07 3.07c-1.76 2.14-4.11 6.42-7 11.76a39.56 39.56 0 00-5.51-2.65 29.59 29.59 0 003.03-4.79l-5.59 1.27 3.19 16.25-5.72 1.37-3.23-16.3-8.45 1.89-1.59-5.72 8.94-1.8zm41.24-6.68c7.06 3.61 9.24 5.71 10.5 6.89-1 1.22-1.3 1.68-4.07 5.71a43.4 43.4 0 00-10.59-6.72zm-3.44 29c12-2.48 23.77-10.59 31.25-22.6a27.15 27.15 0 004.33 5.71 55.57 55.57 0 01-13.07 14A69.92 69.92 0 01195 37.18c0 .46-.21.92-.59.92s-.42-.12-.67-.59zm42.29-10.81c2.82-2.06 3.49-2.77 9.37-9.41 3.95-4.41 5.5-5.71 7.9-5.71 2.69 0 4 1.59 6.93 5.16 5 6.1 10.16 12.1 16.38 16.93-1.6 2-3.65 5-4.45 6.14a226.49 226.49 0 01-16.34-18.61c-1.68-2.15-2.27-2.15-2.78-2.15-1 0-2.31 1.56-3.31 2.74-2 2.31-6.14 7.72-7.48 9.78a1.85 1.85 0 01.13.55.42.42 0 01-.38.46 1.06 1.06 0 01-.72-.42zm37-15.33a3.95 3.95 0 11-3.98-3.95 4 4 0 013.95 3.95zm-5.8 0a1.84 1.84 0 001.85 1.85 1.85 1.85 0 10-1.85-1.85zm53.19 11.63v7.14H280v-7.14zm15.36-14.49c7.06 3.61 9.25 5.71 10.51 6.89-1 1.22-1.31 1.68-4.08 5.71a43.39 43.39 0 00-10.58-6.72zm-3.44 29c12-2.48 23.78-10.59 31.25-22.6a27.15 27.15 0 004.35 5.74 55.68 55.68 0 01-13.06 14 70.19 70.19 0 01-17.31 9.37c0 .46-.21.92-.59.92s-.42-.12-.67-.59zm53.84-27.11c.8.3 1.14.42 1.14.72s-.84.46-1.14.5a48.82 48.82 0 00-2.73 17.35 14.6 14.6 0 00.3 3.36c.25-.46 1.26-2.31 1.76-3.15a12.16 12.16 0 003.24 3.44c-1.05 2-3 6.85-2.78 10l-6 1.6a44.25 44.25 0 01-3-16.8c0-7.61 1.17-12.82 2.68-19.5zm11.09 19.74a11.6 11.6 0 00-.63 3c0 1.85 1 2.14 5.84 2.14a43.09 43.09 0 0010.38-1.13 27.63 27.63 0 00-.63 6.84 89.24 89.24 0 01-10.63.55c-6.26 0-11.09-1.09-11.09-6.22a15.51 15.51 0 011.43-6.18zm-5.08-17.93c1.26.08 2.94.21 5.46.21a48.49 48.49 0 0012.35-1.35 62.16 62.16 0 00.59 6.39 63 63 0 01-12.94 1.26c-2.48 0-4.11-.13-5.46-.21zm28.64 3.27a34.39 34.39 0 005.29-1c11.82-3.11 14.71-3.83 19.33-3.83C451.59 3.82 456 10.5 456 17.9c0 15.83-19.11 17-25.88 17.35a27.68 27.68 0 00-2.12-6.73c7.56.05 20.92-.21 20.92-10.54 0-2.19-.75-8-8.19-8-6.26 0-16.63 4.24-21.17 6.8zm56.75-4.15c.37.12.84.25.84.62 0 .55-.51.64-.89.68a37.62 37.62 0 00-2.35 12.64c0 5.13 1.6 8.7 2.82 8.7s2.94-3.7 4.07-6.35a19.08 19.08 0 004.41 4.46c-3.36 8.15-7.18 11-9.24 11-2.35 0-8.57-5-8.57-18a74.67 74.67 0 012.06-15.71zm20.29.29a41.87 41.87 0 018.48 21.13c-2.48 1-5.46 2.39-6.85 3.11a38.23 38.23 0 00-7.05-20.8zm54.01 3.02c-12-.12-19.16 10.42-19.16 15.88 0 7 9.5 7.48 11.72 7.61a37.2 37.2 0 00-3.15 7.56c-7.35-1.73-15.46-5.63-15.46-14.66 0-7.73 5.8-12.56 7.44-13.91A142 142 0 00512 12.77l-.88-7.9c.92 0 1.81.13 3.15.13 6.18 0 22.94-1.18 32.47-4.16z" fill="#00b4dc" data-name="レイヤー 2"/></svg>