<svg xmlns="http://www.w3.org/2000/svg" width="522.95" height="249"><defs><style>.cls-2{fill:#fe6186}.cls-3{fill:#fe4863}.cls-5{fill:#feafc2}.cls-6{fill:#fe88a4}.cls-7{fill:#fed6e0}.cls-8{fill:#fed0d7}.cls-9{fill:#fe7689}.cls-10{fill:#fea2b0}</style></defs><g id="レイヤー_2" data-name="レイヤー 2"><g id="レイヤー_1-2" data-name="レイヤー 1"><path fill="#ff5064" d="M27.5 27.5h467.95v194H27.5z"/><path class="cls-2" d="M20 33.23V20c5.12.06 10.28-.16 15.38 0 69.19 69.85 139.3 138.84 208.3 208.8h-28.11Q118 130.87 20 33.23zm482.86 195.84h-4.32c-69.27-69.89-139.46-139-208.57-209 9.36-.09 18.77-.18 28.11 0q92.24 92.49 184.75 184.74c.17 8.07-.01 16.19.03 24.26z"/><path class="cls-3" d="M20 33.23q97.95 97.62 195.59 195.59c-9.51 0-19 .14-28.52 0C131.72 172.75 75.71 117.23 20 61.55z"/><path class="cls-2" d="M20 61.55c55.73 55.68 111.74 111.2 167.07 167.24-9.37.09-18.75 0-28.12 0Q89.64 159.19 20 89.87z"/><path class="cls-3" d="M20 89.87q69.63 69.3 139 139c-9.5 0-19 .14-28.52 0C94 191.63 56.84 155 20 118.19z"/><path class="cls-2" d="M20 118.19c36.84 36.81 74 73.44 110.41 110.6-9.37.1-18.74 0-28.11 0q-41-41.33-82.32-82.32z"/><path class="cls-3" d="M20 146.51q41.33 41 82.32 82.32c-9.43-.05-18.87.13-28.29 0-17.66-18.36-36-36.21-54-54.2z"/><path class="cls-2" d="M20 174.59c18.06 18 36.37 35.84 54 54.2-9.45.09-18.91 0-28.36 0A484.398 484.398 0 0020 203.15z"/><path class="cls-3" d="M20 203.15a474.42 474.42 0 0125.67 25.67H20z"/><path d="M402.78 19.79h56.64V20c-18.87 0-37.78.13-56.64 0zm-198 0h56.64v.28c-18.89-.13-37.81.19-56.67-.08z" fill="#fed3dc"/><path class="cls-5" d="M503.1 148.19v28.56h-.21c-.1-9.49 0-19 0-28.54z"/><path class="cls-6" d="M45.91 228.84c9.51 0 19-.07 28.54 0a1.7 1.7 0 010 .22H45.9a1.69 1.69 0 01.01-.22z"/><path class="cls-7" d="M346.14 19.79h28.56v.27c-9.52-.09-19.08.11-28.58-.07z"/><path class="cls-8" d="M35.36 20.07L35.1 20v-.2h28.32v.2c-9.35.06-18.7 0-28.06.07z"/><path class="cls-7" d="M63.42 20v-.21h28.32v.19c-9.42-.06-18.92.19-28.32.02z"/><path class="cls-8" d="M91.75 20v-.19h28.32V20c-9.44.06-18.88.05-28.32.07z"/><path class="cls-9" d="M328.86 229.07h-28.32v-.23h28.33a1.69 1.69 0 00-.01.23z"/><path class="cls-8" d="M148.14 19.79h28.32V20c-9.43 0-18.9.17-28.32 0z"/><path class="cls-9" d="M498.3 228.83l.24.24h-28.32v-.23z"/><path class="cls-7" d="M176.46 20v-.2h28.32v.2c-9.43-.08-18.9.2-28.32 0z"/><path class="cls-6" d="M328.86 229.07a1.93 1.93 0 010-.24c9.43 0 18.87-.1 28.3 0a1.77 1.77 0 010 .23z"/><path class="cls-9" d="M357.18 229.07a1.77 1.77 0 000-.23h28.33v.24z"/><path class="cls-6" d="M385.5 229.07v-.24c9.44 0 18.88-.11 28.31 0a1.62 1.62 0 010 .22z"/><path class="cls-10" d="M503.1 63.47v28.32h-.21c-.1-9.43 0-18.89 0-28.34z"/><path class="cls-5" d="M502.89 91.8h.21v28.32h-.21c-.11-9.42.04-18.89 0-28.32z"/><path class="cls-8" d="M346.14 19.79V20c-9.43 0-18.91.19-28.32 0v-.2z"/><path class="cls-6" d="M470.22 228.84v.23H441.9a1.93 1.93 0 010-.24c9.44.03 18.89-.11 28.32.01z"/><path class="cls-10" d="M502.89 176.74h.21v28.32h-.21c-.09-9.41.03-18.87 0-28.32z"/><path class="cls-8" d="M261.41 20v-.22h28.32V20z"/><path class="cls-6" d="M102.55 228.84c9.43 0 18.88-.06 28.3 0a1.62 1.62 0 010 .22h-28.31c0-.06.01-.14.01-.22z"/><path class="cls-9" d="M130.86 229.07a1.62 1.62 0 000-.22h28.34a1.69 1.69 0 000 .23z"/><path class="cls-6" d="M159.18 229.07a1.69 1.69 0 010-.23c9.43 0 18.88-.07 28.3 0a1.7 1.7 0 010 .22z"/><path class="cls-9" d="M187.5 229.07a1.7 1.7 0 000-.22h28.34a1.69 1.69 0 000 .23z"/><path class="cls-6" d="M215.82 229.07a1.69 1.69 0 010-.23c9.43 0 18.88-.12 28.3 0a1.62 1.62 0 010 .22zm84.72-.23v.23h-28.32v-.23c9.44.03 18.89-.13 28.32 0z"/><path class="cls-7" d="M148.14 19.79V20c-9.35-.07-18.76.19-28.08 0v-.21zm311.28.21v-.21h28.08V20c-9.35-.07-18.77.17-28.08 0z"/><path class="cls-5" d="M503.1 63.47h-.21c-.1-9.33 0-18.71 0-28.06h.21z"/><path class="cls-8" d="M374.69 20v-.21h28.08V20z"/><path class="cls-10" d="M502.89 120.1h.21v28.08h-.21c-.1-9.33.03-18.71 0-28.08z"/><path class="cls-9" d="M102.55 228.84v.23H74.46a1.7 1.7 0 000-.22c9.36.01 18.73-.04 28.09-.01z"/><path class="cls-7" d="M289.74 20v-.21h28.08V20c-9.35 0-18.77.1-28.08 0z"/><path class="cls-9" d="M441.91 228.83a1.93 1.93 0 000 .24h-28.09a1.62 1.62 0 000-.22c9.36 0 18.72-.04 28.09-.02zm-169.68.01v.23h-28.09a1.62 1.62 0 000-.22c9.36 0 18.73-.04 28.09-.01zm-226.32 0a1.69 1.69 0 000 .23c-8.61-.2-17.37.4-25.92-.24 8.63.01 17.28-.03 25.92.01z"/><path class="cls-5" d="M502.89 205.08h.21c-.2 8 .4 16.09-.24 24z"/><path class="cls-8" d="M487.5 20v-.2c5.18.18 10.49-.38 15.6.24-5.19-.04-10.43.15-15.6-.04z"/><path class="cls-10" d="M502.83 20.05h.27v15.34h-.21c-.16-5.09-.01-10.23-.06-15.34z"/><path class="cls-7" d="M35.1 19.79V20H20c4.92-.59 10.09 0 15.1-.21z"/><path class="cls-3" d="M272 228.83c-9.43 0-18.87.1-28.3 0-69-70-139.11-139-208.32-208.73 9.42.06 18.9-.17 28.29 0C132.68 90 202.79 159 272 228.83zM289.74 20a.92.92 0 00.23.09C359 90 429.11 159 498.3 228.83c-9.51 0-19 .09-28.54 0-69-70-139.17-139-208.35-208.79zm213.15 156.74c0 9.36 0 18.72-.06 28.07q-92.52-92.19-184.75-184.74c9.5.06 19-.18 28.52 0q77.64 78.43 156.2 156.2zm0-56.64c0 9.28 0 18.56-.05 27.84C459.78 105.72 417.33 62.69 374.69 20c9.51.09 19.06-.18 28.55.1q49.32 50.1 99.56 99.55z"/><path class="cls-2" d="M502.8 119.65q-50.12-49.32-99.56-99.55c9.37-.12 18.74 0 28.12 0q35.56 35.88 71.48 71.47c.1 9.32.08 18.72-.04 28.08z"/><path class="cls-3" d="M502.84 91.53Q466.93 56 431.36 20.06c9.41.07 18.9-.17 28.28 0 14.11 14.59 28.55 29.11 43.19 43.15.17 9.44 0 18.9.01 28.32zm-61.19 137.29c-9.42 0-18.86.11-28.29 0-69-70-139.11-139-208.32-208.73h28.52c68.85 70.01 139.32 138.67 208.09 208.73z"/><path class="cls-2" d="M205 20.07c69.25 69.78 139.37 138.77 208.36 208.73h-28.11C316.07 159 245.94 90 176.93 20.09c9.36 0 18.77-.21 28.07-.02zm236.65 208.75C372.88 158.76 302.41 90.1 233.56 20.09c9.3-.1 18.59 0 27.89 0 69.2 69.78 139.32 138.77 208.31 208.73-9.37-.02-18.76.02-28.11 0zM374.72 20.06c42.67 42.64 85.06 85.68 128.12 127.88.1 9.43.07 18.91 0 28.35Q424.38 98.65 346.6 20.09c9.4-.09 18.75-.03 28.12-.03zM272 228.83C202.79 159 132.68 90 63.65 20.09 73 20 82.38 20 91.75 20v.09C161 89.82 231.07 158.85 300.09 228.79c-9.37.01-18.74.05-28.09.04z"/><path class="cls-3" d="M300.09 228.79c-69-69.94-139.09-139-208.35-208.72 9.51.06 19.07-.17 28.55 0C189.3 90 259.43 159 328.61 228.83c-9.5-.05-19.02.1-28.52-.04z"/><path class="cls-2" d="M328.61 228.83C259.43 159 189.3 90 120.29 20.08c9.36 0 18.76-.2 28.11 0 69.21 69.78 139.34 138.76 208.32 208.72-9.37 0-18.72.04-28.11.03z"/><path class="cls-3" d="M356.72 228.8c-69-70-139.11-138.94-208.32-208.73 9.5.05 19-.15 28.53 0 69 70 139.14 138.93 208.32 208.73-9.51-.01-19.02.11-28.53 0z"/><path class="cls-2" d="M502.83 63.24c-14.64-14-29.08-28.56-43.19-43.15 26.82.76 24.11-5.89 43.19 15 .17 9.39.03 18.79 0 28.15z"/><path class="cls-3" d="M502.83 35.13c-5.12-4.92-10.06-10-15.07-15.06h15.07z"/><path d="M495.45 27.5v194H27.5v-194h468" fill="none"/><path d="M169.54 76.36v8.23H125.3v-8.23zm30.58 19.89c3-.2 6.51-2.84 7.49-3.53a29.88 29.88 0 01-4.21-5.93l3.18-2.25h-4.11V78h19l2.3 2.55A38 38 0 01217 92.82a22.85 22.85 0 008.38 3.87 33.66 33.66 0 00-3.53 5.88 45.29 45.29 0 01-9.26-5.29 26.18 26.18 0 01-8.77 5 17.38 17.38 0 00-3.72-5.74c.47 5.09-1.83 6.14-8.53 6a22.67 22.67 0 00-2.2-6.61c1.79.38 5.58 1.51 5-1.57V82.58a10.64 10.64 0 01-1.32.15v11.71H189V83.17a6.38 6.38 0 01-1 .1c-.14 5.63-1.22 13.72-3.38 18.91a10.26 10.26 0 00-5.88-2.84c2.11-4.12 3.14-10.78 3.53-15.44a2 2 0 01-.54.1c-2 4.18-2.19-5.51-2.64-6 1.17 0 1.91 0 3-.09V62.15h4.61c.34-.83 1.13-2.84 1.76-4.9.53.39 11.31 0 6.52 2.2-.34.74-.83 2-1.18 2.7h6.23v11.32c3.38-1.9 4.14-10 3.72-14.6h15.29c.27.5-.65 12 .54 11.61.88 0 1.17-2.79 1.32-4.31 2.5 1.61 3.28 2.1 5.63 2.54-.8 9.39-4.16 7.34-10 7.55-5.3.54-3.72-7.59-3.92-11.32h-2.3c-.54 5.1-2.21 9.75-5.39 12.64a13.06 13.06 0 00-4.9-2.94v2c.63-.1 1.47-.15 1.76-.19-.1 1-.2 4.16-.24 5.39-.89 0-1.13 0-1.52.09zM188.06 69.6l4.71-.89a67.42 67.42 0 011.66 6.62v-7.25h-6.37zm0 7.93c1.62-.09 4.71-.29 6.37-.44v-1.47a31.38 31.38 0 00-5 1 32.06 32.06 0 00-1.42-6zm21.61 7a18.13 18.13 0 002.45 3.82 17.4 17.4 0 002.35-3.82zm47.24-15.86c-.05-1.67-.05-2.11-.1-3.24h-10.73v-7.2h18.72c-2.58 16.32 5 32.68 17.63 39.49a19.5 19.5 0 00-6.41 5.34c-6.08-4.21-14.95-13.42-17.74-24.69-1.62 5.48-5.44 15.63-18.52 24.74a21.13 21.13 0 00-6-5.49c15-9.65 17.64-20 19-29.74zM312.13 89a33.84 33.84 0 01-5.78 5.93c-2.3-2.26-3.28-2.75-4.61-3.29.89-.68 1.62-1.22 2.75-2.2-3 1.32-6.76 2.74-10.73 4.07-1.18 5.09-2.85-6.23-3.19-6.77a39.64 39.64 0 005.54-1V74.59h-5.05v-6.37h5.05V58c.51.34 11.77-.37 7.25 1.87v8.32h4.36v6.37h-4.36v8.92c1.18-.49 1.91-.78 3.09-1.32h-.35v-5h29.7v5h-19l-.93 1.57h19.55c0 9 .18 20.73-11.41 18.86a14.7 14.7 0 00-1.33-5.29 37.21 37.21 0 01-5.83 6.12c-1.27-1.37-2.05-1.76-5.19-3.13A34.13 34.13 0 00322 89h-2.21a34.17 34.17 0 01-12.88 13 12.9 12.9 0 00-4.31-3.92A29.87 29.87 0 00314 89zm-4.46-6.81a21.52 21.52 0 00-.34 4.36 31.74 31.74 0 003-4.36zm24.7-6.57h-22.88V58.38h22.88zm-6.62-10.48v-1.67h-9.65v1.67zm-9.65 3.92v1.66h9.65v-1.66zM327.66 89a53.32 53.32 0 01-3.87 6.81c4.55 1 4.43-2.4 4.8-6.81zm63.51-14.46v6.18h-5.54a20.8 20.8 0 006.81 3.67 20.13 20.13 0 00-4.07 5.25 21.63 21.63 0 01-5.39-3c-.35 9.47-.5 17-11.8 15.63-.15-4.36-1.28-5.79-2-6.76 4.65 0 6.22 2.27 6.76-5.79h-5.25c-3.72 8.58-11.61 12.2-18.71 12.94a13.52 13.52 0 00-3.28-6.13c5.92-.39 11.12-1.71 14.35-6.81h-6.61v-2.88a28.94 28.94 0 01-6.57 3.63 19.25 19.25 0 00-4.75-5.15 31.35 31.35 0 008.72-4.6h-7.2v-6.18h12.59a21.67 21.67 0 001.18-2.3h-10.2v-5.88h4.16a23.34 23.34 0 00-4.51-5.58l6.27-3.14a31.29 31.29 0 015.69 6.86 29.72 29.72 0 00-3.82 1.86h4.7a36.74 36.74 0 001.47-8.77c.47.31 12.46 0 7.15 2.11-.29 1.86-.63 3.87-1.32 6.66h7.45c-1.23-.54-2.7-1.08-3.82-1.47a25.55 25.55 0 004-7.44c.28.39 11.58 3.39 6.27 4a51.81 51.81 0 01-2.94 5h7.05v5.88h-9.8a18.09 18.09 0 001.47 2.3zm-12.11 9c-1.66-1.52-2.59-2.6-2.84-2.84H362.9c-1 1.22-1.77 2.06-2.55 2.84zm-6.95-9a18.54 18.54 0 01-1.08-2.3h-3.09a22.72 22.72 0 01-1.08 2.3zM261.57 195.7h-23.86l23.86 20.66 23.87-20.66zM52.21 135.8v-8.89h6.58A90.94 90.94 0 0060 114.52c.74.28 18.48 1.23 9.94 3.43-.35 2.17-.63 4.06-1.4 9h11c-.07 17.92-1.75 24-3.5 29.34a74.42 74.42 0 018.33 9.31 52 52 0 00-8 6.86 50.52 50.52 0 00-4.69-6.86c-3.15 5-7.28 9.1-11.69 13.23-2.8-3.08-7.14-5-8.75-5.6a38.25 38.25 0 0014-14.56c-1-.84-2.31-2-3.29-2.73-.42 1.12-.56 1.47-.84 2.24-5.6-1.89-7.7-2.17-9.59-2.38a131.5 131.5 0 005.67-20zm14.7 0c-.35 1.61-2.17 9.59-2.59 11.41 2 1.26 2.59 1.61 4.27 2.8a60.68 60.68 0 001.47-14.21zm35.14 4.69h14.36v9.38h-14.36V170c0 5.53-1 8.26-14.28 8-.77-6.37-2.73-9.31-3.64-10.71 2-.05 8.33 2.65 7.84-2v-15.42h-11.9v-9.38H92v-9.66l2.8.42a34.51 34.51 0 004.2-5.74H80.91v-9h30.6l4.69 3.78c-4.83 7.7-13.24 15.4-14.15 16.24zm67.69-15.82h-11.83v-8.54h35.15v8.54h-13.24v18.48a80.5 80.5 0 004.56-17.08c1 .58 15.69 2.58 8.68 4.62a104.82 104.82 0 01-5.32 16.38 24.48 24.48 0 00-7.92-2.8v3.15h14.36v9.11h-14.36v22.19h-10.08v-22.19h-12.81v20.86h-9.1V175H142v3.57h-9.59v-25.68h23.73v-5.47h13.58v-3.57a22.82 22.82 0 00-8.89 2.38 58.07 58.07 0 00-3-15.4v1.61h-27.22v-7.77h27.23V128l7.77-2.17a79 79 0 014.13 15.17zm-14.84-8.54v6.58h-20.51v-6.58zm0 18.27v7.14h-20.51v-7.14zm0 9.17v7.29h-20.51v-7.29zM147.83 167v-5.67H142V167zm109.76-23.15h-4.13v5.39h13v9.11h-13v7.35c0 2.45.14 2.8 2.8 2.8 5.18-.29 6.72 1.84 8.61-7.28a56.27 56.27 0 009 4.9c-3.21 14.49-11.19 11.14-22.13 11.48-12.14 0-7.1-12.79-8.12-19.25h-6.37a27.81 27.81 0 01-21.42 20.23 42.92 42.92 0 00-5.74-8.26c3.29-.56 13.3-2.45 17.15-12h-11.72v-9.11h13.16v-5.39h-3.36v-2.94a52.93 52.93 0 01-11.69 7.84 29.2 29.2 0 00-7.07-7 41.81 41.81 0 0010.92-5.88 60.45 60.45 0 00-6.23-5.6l5-4.76h-3v-8.4h25.34l2.31 3.29c-.84 2.17-2.45 6.44-9 14h20.23a65.6 65.6 0 01-11.06-16.73l7.84-3.85c1.4 2.38 2.31 3.71 3.43 5.32a31.57 31.57 0 004-5.25c.56.59 8.15 4.82 7.91 5.74-.34 1.52-1.47 1-2.66.91a49.87 49.87 0 01-4.48 5.53l2 2a58.1 58.1 0 005.67-7.21c.61.94 13 7.25 6 7.07a56.23 56.23 0 01-4.84 5.46 44.83 44.83 0 008.76 4.83c-4.91 5-6 7.35-6.52 8.41a40.27 40.27 0 01-10.57-7.57zm-38.15-18.34a48.27 48.27 0 014.76 3.85 21.38 21.38 0 002.66-3.85zm18.76 18.34v5.39h5.39v-5.39zm80.08 7.71c2.3.44.05 2.41-1.19 2-2.24 20.93-18.13 24.92-23.38 26.11a19.61 19.61 0 00-6.51-8.82c14.42-2.94 19.25-7.42 19.39-20.8zm32.84-31.37v8.47h-26.4v2.17h19.18V139h-49.21v-8.12h19.11v-2.17h-26.25v-8.47h26.25v-6c.68.52 17.47-.94 10.92 2.66v3.36zm-.63 20.72v14.64h-10.72V149h-40.6v6.87h-10.92v-15zm-20.87 36.48c-3 0-8.61 0-8.61-8.19v-18.63c.86.35 17.5-.92 10.43 2.46v12.11c0 2.59.63 3.08 2.17 3.08 9 .67 7.75-1.32 9-9 3.3 2.59 6.52 4.48 9.67 4.62-.61 15.99-9.99 13.55-22.66 13.55zm73.57.84h-10.64v-20.37h-14.21v2.87h-10.92V127h25.13v-12.9l11.55.63c1.95.06 1 2.14-.91 2V127h25.13v33.75h-10.71v-2.87h-14.42zm-10.64-41.73h-14.21v11.34h14.21zm10.64 11.34h14.42V136.5h-14.42zm57.05-30.03c.65 9.12-1.07 27.83-2.59 36.9h-6.72c-1.48-9.11-3.15-27.76-2.52-36.9zm-11.83 43.34h11.83V173h-11.83z" fill="#fff"/><rect x="12.5" y="12.5" width="497.95" height="224" rx="13.02" stroke="#282828" stroke-miterlimit="10" stroke-width="25" fill="none"/></g></g></svg>