<svg xmlns="http://www.w3.org/2000/svg" width="190" height="190"><defs><style>.cls-2{fill:#ff5064}.cls-3{fill:#f03246}</style></defs><g id="レイヤー_2" data-name="レイヤー 2"><g id="object"><path d="M190 95a95 95 0 10-53 85.22 28 28 0 005 2.69 27.52 27.52 0 0030-6l10-10a27.54 27.54 0 001.5-37.26A95.43 95.43 0 00190 95z" fill="#282828"/><path class="cls-2" d="M171.34 138.66l-10-10A12.5 12.5 0 00140 137.5v20a12.5 12.5 0 0021.34 8.84l10-10a12.51 12.51 0 000-17.68z"/><circle class="cls-2" cx="95" cy="95" r="80"/><path class="cls-3" d="M108.91 65.35l-4-18.42a.89.89 0 00-.86-.69l-18.34.09a.88.88 0 00-.86.71l-3.08 15.65a.85.85 0 00.14.67.87.87 0 00.57.36 44.41 44.41 0 0013.8.29c.8-.11 1.65-.32 2.25-.44.26-.06.77-.31.91-.07s-.09.45-.32.7a9.49 9.49 0 01-2 1.5 16 16 0 01-6.23 1.86 30.38 30.38 0 01-7.74-.06.84.84 0 00-.69.1.88.88 0 00-.4.57l-.21 1c-.16.74-.36 1.73-.36 1.73a.65.65 0 01-.68.51s-2.79-.21-5-.4l-18-1.57a.86.86 0 00-.91.6l-5.4 16.75a.86.86 0 000 .27.88.88 0 00.45.76l12 6.78 5 2.79a.65.65 0 01.27.8s-.85 2-2.1 5l-8.95 21.16a.87.87 0 00-.07.35.89.89 0 00.37.71l15.13 10.66a.89.89 0 001.11-.08s10.17-9.5 16.27-15.18l4-3.73a.64.64 0 01.84 0l4 3.63 16.48 15.08a.89.89 0 001.11.07l15-10.8a.87.87 0 00.37-.71.85.85 0 00-.08-.35l-9.15-21.09c-1.34-2.91-2.22-4.91-2.22-4.91a.66.66 0 01.27-.81l5.69-3.28 11.22-6.45a.87.87 0 00.44-.76.81.81 0 000-.27l-5.53-16.67a.89.89 0 00-.92-.6L115 70.8l-4.26.41a.67.67 0 01-.69-.5zm-25.77 6.43c.15-.75.39-1.89.39-1.89a.65.65 0 01.68-.5 29.07 29.07 0 003.08.11 34.9 34.9 0 003.82-.19c6.56-.73 9.6-3.77 10.36-5.46a1.76 1.76 0 00-.16-1.78 1.83 1.83 0 00-2-.46 36.92 36.92 0 01-10.41 1c-2-.08-4.69-.43-4.69-.43a.52.52 0 01-.45-.63s.41-2.09.87-4.47c.14-.73.3-1.49.44-2.25.61-3.13 1.22-6.22 1.22-6.22a.72.72 0 01.68-.56h15.76a.73.73 0 01.69.56s.43 1.93 1 4.77c1.57 7.21 4.16 19.07 4.16 19.07a.88.88 0 00.95.69l10.77-1 11-1.06a.74.74 0 01.75.48l2.07 6.23.64 1.94 2 6.07a.73.73 0 01-.31.82l-8.45 4.8-8.46 4.87a.89.89 0 00-.44.77.83.83 0 00.07.34l7.43 17.12 3.9 9a.73.73 0 01-.23.85l-6.79 4.88-.85.6-5.31 3.82a.72.72 0 01-.88 0l-5.83-5.33-14.68-13.51a.88.88 0 00-1.19 0l-13.39 12.49-7 6.49a.74.74 0 01-.88.06l-6.27-4.42-.55-.38-6.21-4.38a.75.75 0 01-.24-.85l4.22-10 6.86-16.22a.83.83 0 00.07-.34.86.86 0 00-.45-.77l-8.34-4.7-8.71-4.9a.74.74 0 01-.33-.82s1-3.23 2.12-6.58c.29-.9.59-1.81.87-2.69l1.61-5a.74.74 0 01.74-.49l8.17.71c6.27.55 15 1.27 15 1.27a.53.53 0 00.22 0h.16l.11-.07a.54.54 0 00.16-.1l.07-.08a.61.61 0 00.12-.16.36.36 0 000-.09.94.94 0 00.06-.15z"/><path class="cls-3" d="M90.38 61.38h-.23a.77.77 0 01-.51-1 42.61 42.61 0 001.75-10.17.77.77 0 01.81-.73.76.76 0 01.72.81 43.54 43.54 0 01-1.81 10.54.76.76 0 01-.73.54zm9.62-5.11a1.22 1.22 0 11-2.41 0 1.34 1.34 0 011.2-1.43 1.32 1.32 0 011.21 1.43zm-12.78-3.38a1 1 0 001 1.11 1.05 1.05 0 00.94-1.12 1 1 0 10-1.89 0zm-2.08 28.73v1A3.43 3.43 0 0182.26 84a3.52 3.52 0 01-2.5-.85 3.19 3.19 0 01-.09-4.45 3 3 0 012.24-.85 3.28 3.28 0 011.31.23 2.75 2.75 0 011 .69 2.89 2.89 0 01.65 1.06 4.86 4.86 0 01.22 1.48h-3.12a1.38 1.38 0 00.57.71 1.69 1.69 0 00.9.25 2.21 2.21 0 001.7-.65zm-3.31-1.35h1.43a1.13 1.13 0 00-.22-.69.61.61 0 00-.52-.25.63.63 0 00-.49.24 1.11 1.11 0 00-.2.7zm7.27-2.36v.75a2.46 2.46 0 011.84-.8 2.11 2.11 0 011.6.56 2.47 2.47 0 01.56 1.72v3.7h-2.86v-3.47c0-.49-.19-.73-.56-.73a1 1 0 00-.55.19v4h-3v-6zm9.9-.05v1.67h-1.31v1.27c0 .43.2.65.59.65A.91.91 0 0099 81v2.35a3.11 3.11 0 01-1.76.49 2.7 2.7 0 01-1.85-.65 2.25 2.25 0 01-.76-1.8v-1.84h-1.24l4.28-3.39v1.7zm7 3.65v1a3.38 3.38 0 01-2.88 1.33 3.49 3.49 0 01-2.5-.85 3.18 3.18 0 01-.1-4.45 3.07 3.07 0 012.25-.85 3.54 3.54 0 011.31.23 2.71 2.71 0 011 .69 2.92 2.92 0 01.66 1.06 4.59 4.59 0 01.21 1.48h-3.12a1.43 1.43 0 00.57.71 1.71 1.71 0 00.9.25 2.15 2.15 0 001.7-.6zm-3.3-1.34h1.43a1.16 1.16 0 00-.22-.69.64.64 0 00-.52-.25.63.63 0 00-.49.24 1 1 0 00-.19.7zm7.3-1.05a1.83 1.83 0 011.68-1.36 1.49 1.49 0 011 2.48 1.35 1.35 0 01-1 .4 1.59 1.59 0 01-1.24-.53 1.78 1.78 0 00-.45 1.43v2.22h-3v-5.94h3zM78.76 93.68v-4.81h9.65v4.81H86v6h-4.81v-6zm16.83 6.15a5.33 5.33 0 01-4-1.61 5.69 5.69 0 010-8 5.6 5.6 0 114 9.56zm0-7a1 1 0 00-.77.33 1.06 1.06 0 00-.3.81 1.13 1.13 0 00.31.82 1.1 1.1 0 001.54 0 1.24 1.24 0 000-1.63 1 1 0 00-.81-.37zm14.34 6.75h-4.81v-4.73l-4.16-6.1h4.86l1.69 2.45 1.66-2.47h4.87l-4.11 6.13zm-27.78 4.18v.75a2.39 2.39 0 011.83-.8 2.09 2.09 0 011.93 1 3.48 3.48 0 011-.78 2.71 2.71 0 011.16-.26 2 2 0 011.52.59 2.32 2.32 0 01.57 1.67v3.73h-2.89v-3.55a.72.72 0 00-.16-.49.52.52 0 00-.41-.18 1.06 1.06 0 00-.56.2v4h-2.88v-3.55a.74.74 0 00-.15-.49.53.53 0 00-.42-.18 1 1 0 00-.55.2v4h-3v-5.94zm15.64 3.61v1a3.38 3.38 0 01-2.88 1.32 3.48 3.48 0 01-2.49-.85 3.18 3.18 0 01-.1-4.45 3.07 3.07 0 012.24-.85 3.37 3.37 0 011.32.23 2.71 2.71 0 011 .69 2.89 2.89 0 01.65 1.06 4.59 4.59 0 01.21 1.48h-3.11a1.45 1.45 0 00.56.71 1.75 1.75 0 00.91.25 2.18 2.18 0 001.69-.59zM94.48 106h1.44a1.26 1.26 0 00-.22-.7.66.66 0 00-.53-.24.63.63 0 00-.48.24 1 1 0 00-.21.7zm7.68-2.33v.75a2.47 2.47 0 011.84-.81 2.13 2.13 0 011.6.57 2.36 2.36 0 01.57 1.72v3.7h-2.87v-3.47c0-.49-.19-.73-.56-.73a1 1 0 00-.55.19v4h-3.06v-5.95zm10.26-.05v1.67h-1.28v1.28c0 .43.19.65.58.64a.89.89 0 00.73-.43v2.36a3.08 3.08 0 01-1.75.48 2.7 2.7 0 01-1.86-.64 2.26 2.26 0 01-.76-1.81v-1.86h-1.25l4.29-3.39v1.69zM37 117.16l2 3.93-4-2-3.14 3.22.65-4.44-4-2 4.44-.74.64-4.37 2.05 3.93 4.42-.74zm117.41-2.41l2-3.94.68 4.37 4.45.7-4 2 .68 4.43-3.16-3.2-3.94 2h-.05l2-3.94-3.07-3.07zM92.56 153l.4-2.78-8-1.16.14-.95-4.2-.61-.14.95-1.11-.16-.45 2.71 1.11.16-.12.82-1.11-.17-.41 2.8 1.12.16-.09.56c-.51 3.56.82 5.67 4.26 6.17l2 .27c2.81.41 5.41-.53 6.06-5l.45-3.08-4.12-.6-.45 3.08a1.61 1.61 0 01-2.09 1.56l-.31-.05c-1-.15-1.72-.54-1.55-1.77l.09-.56 3.09.45.4-2.8-3.09-.45.12-.81zm11.02.82l-2 .09v-.8l6.23-.31-.16-3.38-6.23.31v-.82l-4.23.21v.81l-2.34.12.17 3.37 2.33-.11.21 4.28 5.57-.27c.57 0 .75.19.77.5s-.2.5-.78.53l-7 .34.2 3.95 6.95-.34c4.2-.2 5.46-1.67 5.31-4.61-.13-3.69-2.23-4.01-5-3.87zm-32.01-3.98l-1.15-.55.35-.74 1.25.59 1.44-3-1.25-.58.35-.74-3.26-1.55c-.14.28-.13.28-.35.74l-3.34-1.59-1.45 3 3.38 1.6-.35.74-.36-.17c-1.72-.81-3.9-.44-5.17 2.25-1.2 2.52-.47 4.44 1.84 5.54 3 1.4 4.13-.19 5-2.12l.39-.83 1.23.58c.47.22.71.43.53.82s-.38.39-1 .13l-.53-.25-1.69 3.57.48.22c2.29 1.09 4.52 1.38 6.07-1.9 1.34-2.6-.13-4.68-2.41-5.76zm-6.28 1.93c-.19.39-.41.52-.61.43l-.13-.06c-.34-.17-.25-.58-.07-1a.66.66 0 011-.39l.26.12zm9.53-6.64l-1.45 3.06a.74.74 0 01.42 1.11l-.42.88 3.08 1.46.57-1.21c1.15-2.43.66-4.09-2.2-5.3zm54.47.17l.46 2.27c.29 1.61-.93 3-2.26 3.65l-4.17 2.07 1.76 3.54 4.38-2.17c3.23-1.61 5-4.38 4.2-8-.37-1.64-1-3.31-.15-3.76l-1.91-3.84c-3.09 1.52-2.99 3.33-2.31 6.24zm-4.37-3.43l-5.83 2.9 1.54 3.1 5.83-2.89zm1.91 3.85l-5.83 2.89 1.55 3.11 5.82-2.89z"/><path class="cls-3" transform="rotate(-52.83 149.408 130.123)" d="M143.09 128.07h12.62v4.1h-12.62z"/><path class="cls-3" d="M138.24 135.92l-4.59 4.08 2 2.18 4.28-3.83c.42-.36.66 0 .9.3l-4.21 3.76 1.54 1.72 4.21-3.76.55.61-4.63 4.15 1.95 2.17 7.26-6.5-4.39-4.9c-1.04-1.08-2.9-1.74-4.87.02zm-19.88 15.42a1 1 0 01.77-.54l-.64-2.35c-2.33.63-3.07 1.78-3.2 3l-1.63.44-.37-1.07-2.92.79.37 1.07-1.11.3.82 3 1.31-.35 1.79 5.26 2.92-.78-1.8-5.27 1.3-.35c.77-.21 1.16-.09 1.3.43s-.12.91-1.09 1.17l.82 3c3.45-.93 4.16-2.54 3.57-4.74l-.18-.67a3.24 3.24 0 00-2.03-2.34zm-68.22-18.42l1.86-1.44-3.15-4 .5-.39-2.22-2.81-.5.4-3.14-4-1.81 1.44 3.13 4-.64.51-3-3.77-5.24 4.14 2 2.54c-.89.05-2.24-.83-3.14-2l-1.93 1.52c1.4 1.79 2.86 2.79 4.17 2.9l-1.16.92 2.5 3.12 1.17-.92c-.19 1.29.44 2.95 1.85 4.71l1.93-1.53c-.9-1.08-1.56-2.46-1.24-3.51l2.05 2.59 5.21-4.13-3-3.78.66-.43zm-10-3.11l-.94-1.18.64-.51.94 1.19zm2.12-1.67l-.94-1.14.65-.51.94 1.18zm1 5.66l-.94-1.18.64-.51.94 1.19zm2.77-2.19l-.65.51-.94-1.18.65-.51zm-10.35-23.98l-7.86 1.46-.55-3 7.85-1.45zM55.14 50.3L50 44.17l2.37-2 5.14 6.12zM29.6 95.06l-3.1-.18.43-7.08L30 88l-.12 2 4.88.3-.19 3.09-4.88-.29zm16.07-42.51l-2.17-2.22 5.08-5 2.17 2.22L49.32 49l3.41 3.5-2.22 2.16-3.41-3.5zm49.65-22.09l.18-3.09 7.09.42-.18 3.09-2-.12-.29 4.89-3.12-.19.29-4.88zm44.25 17.7l2.24-2.16 4.91 5.12-2.24 2.15-1.38-1.45-3.54 3.39-2.14-2.21 3.58-3.4zM34.41 81l1.77.33L35 87.85l-7.86-1.43 1.18-6.53 1.76.32-.63 3.48 1.4.25.46-2.55 1.55.28-.47 2.55 1.4.26zm-5.73-3l1.72-5a3.07 3.07 0 011.34-1.79 2.1 2.1 0 013.18 1.44 6.89 6.89 0 014.19-.37L38 75.56a6.46 6.46 0 00-2.27-.31c-.53.06-1 .54-1.26 1.42l2.8 1-1 2.92zm2.57-2.39l1.46.51.17-.51c.31-.88.15-1.19-.32-1.35a.86.86 0 00-.59 0c-.19.07-.4.45-.5.74zm13.88-14.13l-1.88 2.46-4.68-7 3-4 8 2.63L47.78 58l-1.36-.45-2.1 2.76zm-1.91-2.84l1.31-1.74-3.15-1zM76.38 38.3l-3 .84.48-8.45 4.85-1.37 4.85 6.93-3 .85-.8-1.18-3.35.94zm.18-3.42l2.1-.6-1.92-2.7zM60.86 46a3.94 3.94 0 01-3.14 0 4.16 4.16 0 01-2.17-5.42 3.9 3.9 0 012.24-2.19 3.94 3.94 0 013.14 0 4.15 4.15 0 012.17 5.43A3.92 3.92 0 0160.86 46zm-2.12-5.3a1.21 1.21 0 00-.72.7 1.37 1.37 0 000 1.05 1.29 1.29 0 00.7.76 1.29 1.29 0 001.72-.69 1.5 1.5 0 00-.72-1.8 1.23 1.23 0 00-.98-.05zM106 36.69a4 4 0 01-2.52-1.87 4.05 4.05 0 01-.44-3.14 4 4 0 011.96-2.53 4.13 4.13 0 015.64 1.42 4.2 4.2 0 01-1.43 5.66 3.92 3.92 0 01-3.21.46zm1.4-5.54a1.19 1.19 0 00-1 .16 1.33 1.33 0 00-.59.86 1.39 1.39 0 00.11 1 1.29 1.29 0 001.79.45 1.46 1.46 0 00.48-1.89 1.24 1.24 0 00-.75-.58zm22.38 15.46a3.9 3.9 0 01-2-2.46 4.12 4.12 0 016-4.75 4.08 4.08 0 011.58 5.6 4 4 0 01-2.46 2 3.93 3.93 0 01-3.12-.39zm2.77-5a1.2 1.2 0 00-1-.11 1.45 1.45 0 00-.95 1.71 1.23 1.23 0 00.61.78 1.25 1.25 0 001 .12 1.33 1.33 0 00.78-.68 1.28 1.28 0 00.16-1 1.2 1.2 0 00-.6-.81zm11.35 19.01a4.14 4.14 0 013-7 4.11 4.11 0 014 4.17 3.9 3.9 0 01-1.27 2.87 4.08 4.08 0 01-5.81-.05zm4.11-4a1.26 1.26 0 00-.93-.4 1.34 1.34 0 00-1 .42 1.32 1.32 0 00-.44.94 1.21 1.21 0 00.37.94 1.23 1.23 0 00.91.39 1.39 1.39 0 001-.41 1.44 1.44 0 00.45-1 1.24 1.24 0 00-.37-.85zm7.12 36.86a3.88 3.88 0 01.71-3 4.15 4.15 0 015.77-1 3.92 3.92 0 011.65 2.66 4 4 0 01-.7 3.07 4.19 4.19 0 01-5.77 1 4 4 0 01-1.66-2.73zm5.63-.94a1.19 1.19 0 00-.54-.85 1.51 1.51 0 00-1.92.32 1.31 1.31 0 00.31 1.84 1.41 1.41 0 001 .2 1.35 1.35 0 00.9-.53 1.22 1.22 0 00.25-.98zM84.23 36.07l-1-7.93 3.08-.4.76 5.94 3.49-.45.26 2zm32.09-5.23l-.87 2.52a2.48 2.48 0 002.18-.06 3.34 3.34 0 001.05-1.64l3.2 1.11a6.36 6.36 0 01-1.16 2.15 4.35 4.35 0 01-1.91 1 5.32 5.32 0 01.67 4.46l-3.41-1.18c.62-1.94.08-3-1.41-3.58l-1 2.76-2.92-1 2.61-7.56z"/><path class="cls-3" d="M124.43 43.15l-2.73-1.46 1.64-3.08-.69-5.47 2.78 1.48.17 3 2.62-1.55 2.78 1.52-4.92 2.47zM148.52 68L147 65.29l3-1.69 2.41-5 1.59 2.8-1.51 2.6 3 .12 1.52 2.76-5.47-.6zm11.77 8.67h-2.24a3.91 3.91 0 00.22-2.26c-.07-.22-.14-.59-.53-.62s-.74.11-.64 1.6a5.33 5.33 0 01-.16 1.54 1.89 1.89 0 01-.46 1 2 2 0 01-.93.59 2.25 2.25 0 01-2.17-.26 5.1 5.1 0 01-1.58-2.47 10.67 10.67 0 01-.66-3.74h2.43c-.12.33-.22 1-.35 1.66-.17.8.14 1.19.45 1.27s.77.05.77-1.44a6.39 6.39 0 01.12-1.17 2.23 2.23 0 011.37-1.58 2.28 2.28 0 012.22.25 4.6 4.6 0 011.63 2.36 9.64 9.64 0 01.51 3.27zM155 101.43l.28-2.37 8.27-1.86-.35 3-3.83.93 3.53 1.87-.19 1.55-3.84 1 3.52 1.73-.35 3-7.63-3.62.28-2.35 3.75-1.06zM34.48 95.72l.18 2.68-3 2.54 3.16-.21.18 2.84-8 .53-.16-2.45L30 98.94l-3.36.22-.19-2.91zm119.4-12.6l-.59-3.28 7.91-1.43.59 3.28-2.9.52.42 2.3 2.9-.53.55 3.07-7.91 1.44-.55-3.07 2.93-.53-.41-2.3zM43 64.61L41.79 67l-3.9.62 2.82 1.45-1.3 2.52-7.16-3.68 1.12-2.18 4.14-.68-3-1.54 1.33-2.59zm29.75-25.2l-2.43 1.15-3.47-1.89 1.35 2.87-2.57 1.21-3.43-7.28 2.21-1 3.7 2-1.44-3 2.64-1.25zM50.12 142.79l-2-1.63a1.38 1.38 0 01-2.09-.13l-1.56 1.88c2.45 2.18 4.22 1.73 5.65-.12z"/><path class="cls-3" d="M47.54 139.65l3.53 2.92-2.85 3.43 3.11 2.58 2.85-3.43 3.53 2.93 3.75-4.51-10.17-8.44zm4.71-.49l5.07 4.21-.57.69-5.07-4.22zm7.52-1.09l.4-.49-2.76-2.29-.4.49-3.91-3.24-1.48 1.79 10.55 8.76 1.49-1.79-3.89-3.23z"/><path class="cls-3" d="M56.11 147.76l-2-1.63c-1.55 1.74-1.66 3.57.91 5.54l1.57-1.89a1.36 1.36 0 01-.48-2.02z"/><path d="M68 64.63v4.58H44v-4.58zm24.19 1.17l1.54 1.64a20 20 0 01-3.54 6.32 14.89 14.89 0 004.21 1.64 12.42 12.42 0 00-2.21 3.66 17 17 0 01-4.86-2.52A16.29 16.29 0 0182.86 79 7.61 7.61 0 0081 76.46C80.88 78.7 79 79 76 79a7.74 7.74 0 00-1.27-4 15.81 15.81 0 001.87.19c.93 0 1-.21 1-1.1v-5.22a5.56 5.56 0 01-.7.08v5.36h-2.36v-5.18l-.57.05A28.57 28.57 0 0172.3 79a7.4 7.4 0 00-3.22-1.88 21.58 21.58 0 001.66-7.69h-.15c-.08.21-.21.47-.5.47s-.31-.26-.34-.39l-.41-3.59a3.76 3.76 0 001.27.08v-8.8h2.5a15.36 15.36 0 00.8-2.45l4.5.5c.24 0 .44.08.44.28 0 .42-.54.52-.88.6a11.43 11.43 0 00-.55 1.07H81v5.59a8.48 8.48 0 001.51-5.2v-2h8.29v5.51c0 .26 0 .42.29.42.49 0 .6-1.56.62-2.24a8.78 8.78 0 002.84 1.62c-.39 3.61-1.2 4-2.68 4H89.2a2 2 0 01-2.13-2.21v-3.52h-1a10.09 10.09 0 01-2.42 6.43A8.57 8.57 0 0081 64v1.25a9.8 9.8 0 011-.13 4.29 4.29 0 000 .67zM74 61.83l2.41-.83a19.22 19.22 0 011.17 3.12v-3.67H74zm0 4c2.29-.13 2.57-.15 3.56-.26v-.93a17.51 17.51 0 00-2.55 1 20 20 0 00-1-3.3zm7.9 2.57l-.89.08v6.84a12.45 12.45 0 003.15-1.53A18.17 18.17 0 0182 70.72l2-1.2h-2.1zm3.74 1.12a16 16 0 001.51 1.85 8.85 8.85 0 001.32-1.85zm20.77-10.92a.37.37 0 01.21.36c0 .32-.26.4-.88.5a27.09 27.09 0 01-6.92 9.28 17.17 17.17 0 00-3.72-3.14 21.35 21.35 0 007-9.13zm6.22 8.3A52.92 52.92 0 01119 77a17.75 17.75 0 00-4.21 2.24c-.29-.68-.57-1.3-1.12-2.37-2 .23-11.41 1.22-14.38 1.51-.23.44-.31.57-.54.57s-.29-.13-.37-.49l-.83-4.37c.7 0 1.48 0 2.84-.13a78.05 78.05 0 004.75-11.7l4.86 1.65a.39.39 0 01.34.39c0 .33-.26.41-1 .52-.62 1.69-3.33 7.54-4 8.86 2.13-.15 4.14-.34 6.27-.52a31.71 31.71 0 00-2.71-3.9zM114 55.58c.65 5 4.91 8.2 6.76 9.57a16.94 16.94 0 00-3.07 3.49 21.6 21.6 0 01-7.23-9.1H107v-4zm13.21 17.3v-3h2.42a13 13 0 000-1.38h-2v-2.88h12.76v2.89h-1.89v1.38h2.44v3h-2.44v5.46h-3.69v-5.47H133a9.13 9.13 0 01-3.28 6 8.2 8.2 0 00-3.17-2.16v2.21h-4.19v-23.5h11.13v9.39h-6.94v11.77a5.83 5.83 0 002.75-3.71zm2.4-13.81v-.86h-3.18v.86zm-3.18 2.16v.91h3.18v-.91zm8.38 7.28h-1.56v1.38h1.56zm10.84-13.08v20.23c0 3-2.11 3.22-5.31 3.22a9.2 9.2 0 00-1.17-4.13 6.87 6.87 0 001.54.18c.39 0 .86 0 .86-.73v-9.38h-7v-9.39zm-4.08 3.64v-.86h-3.15v.86zm-3.15 2.16v.91h3.15v-.91zm-86.01 39.28c-1.17 1-2.31 2-2.31 2.88 0 1.54 3.79 1.69 5.56 1.69a35.55 35.55 0 009.57-1.4 38.88 38.88 0 00.6 4.91 40.69 40.69 0 01-9.41 1.07c-4 0-11.37-.42-11.37-5.41 0-2 1.54-3.74 2.14-4.39.31-.31 1.76-1.61 2.05-1.9zm11.05-8.37a31.12 31.12 0 00-6.89 4.73 22.08 22.08 0 00-2.75-2.63c.33-.26 1.84-1.35 2.15-1.56a74.71 74.71 0 01-8.68.29l-.18-4.5a64.47 64.47 0 006.73.31 40.14 40.14 0 007.67-.67zm1.25-3.7A17 17 0 0167 91.3c-.16.16-1.07 1-1.59 1.69a21.83 21.83 0 00-2.31-2.93zm1.87-2.36a24.86 24.86 0 012.34 2.73 9.63 9.63 0 00-1.61 1.66 26.59 26.59 0 00-2.24-2.76zM84.16 111h-4.32v-6.63a23.76 23.76 0 01-7.3 6.29 10 10 0 00-3.23-3.2 22.92 22.92 0 007.83-5.85H70v-3.73h4.55a19.16 19.16 0 00-2.08-3.64l2.26-1H71v-3.81h8.81V87l4.55.23c.13 0 .42.06.42.31s-.21.37-.65.66v1.19H93v3.81h-3.12l1.45.63c.19.07.45.18.45.41s-.52.39-.86.39a31.57 31.57 0 01-1.72 3.25H94v3.72h-7.35a26.2 26.2 0 007.7 5.77 9.64 9.64 0 00-2.94 3.23 21.57 21.57 0 01-7.25-6.37zm-4.32-13.12V93.2h-3.2a16.12 16.12 0 012.16 3.88 12.46 12.46 0 00-1.87.8zm4.32-4.68v4.68h2.73a7.79 7.79 0 00-1.89-.75 21.53 21.53 0 002-3.93zM107 103.78a17.93 17.93 0 01-3.2 3.07 8 8 0 00-2.23-1.87l-4.16 1.51c0 .18-.06.78-.47.78-.24 0-.29-.18-.37-.63l-.85-4.16c1.43-.26 2.57-.57 2.78-.62v-5.64h-2.56v-3.9h2.52v-4.89l4.16.21c.28 0 .57.07.57.31s-.13.31-.57.55v3.82h2.1v3.9h-2.1v4.31c.86-.33 1-.36 1.27-.49v-2.81H120v2.89h-10.13a5 5 0 01-.49.78h10.35c0 9.62-1.23 10.06-5.13 10.06h-1a12.52 12.52 0 00-.7-2.71 24 24 0 01-2.65 3.12 10.09 10.09 0 00-2.94-1.87 17.66 17.66 0 005-5.67h-1.06a20.76 20.76 0 01-6.66 6.92 12.78 12.78 0 00-2.55-2.21 15 15 0 005.88-4.71zm-2.21-3.66c-.1.86-.08 1.48-.1 1.95a18.5 18.5 0 001.56-1.95zm13.52-3.64h-12.7v-9.13h12.66zm-4-5.49v-.83h-4.65V91zm-4.65 2.08V94h4.65v-.89zm5.77 10.71a21.71 21.71 0 01-1.74 3.44c.36 0 .62.07.93.07.57 0 .76-.13.91-.57a10.45 10.45 0 00.44-2.94zm18.41 2.34c5.65-.88 7.31-4.88 7.31-7.67 0-.78 0-5.33-5.43-6-.39 7.75-4 16.27-7.52 16.27-2.18 0-6.06-3.19-6.06-8.55a12.34 12.34 0 0112.69-12c6.22 0 11 3.93 11 10.19a11.56 11.56 0 01-3.93 8.82 13.08 13.08 0 01-5.43 3.06 31.77 31.77 0 00-2.63-4.12zm-7.41-6c0 1.85.89 3.25 1.43 3.25.94 0 2.94-5.23 3.2-10.32-2 .78-4.63 4.03-4.63 7.12zM69.6 130.09a2.89 2.89 0 01-.57-1.77v-9.41l4.65.23c.18 0 .49 0 .49.29s-.2.36-.85.65v1.82a24 24 0 004.52-2.37l3 3.1a.46.46 0 01.16.37.35.35 0 01-.39.34 1.79 1.79 0 01-.6-.16 51 51 0 01-6.68 2.6v.65a.84.84 0 001 .89h2.34c.84 0 1.1-1.12 1.3-2.39a7.46 7.46 0 003.59 1.82c-.57 3.77-1.69 4.31-3.74 4.31h-5.67a5.09 5.09 0 01-1.46-.26 1.37 1.37 0 01-.49.21c-.11.26-.13.34-.34.91h8.63V143h-4.55v-.7h-9.85v.7h-4.58v-11.09h5.72c.34-.91.49-1.35.65-1.87-.88.18-3.22.6-7.51 1.25-.08.41-.19.85-.55.85s-.42-.44-.44-.57l-.83-4.11c.67 0 1.11-.07 2.15-.18v-8.35l4.81.27c.24 0 .45 0 .45.36s-.29.44-.78.6v1.32h5.22v3.44h-5.22v1.82c.57-.08 2.93-.42 5.3-.94a23.94 23.94 0 00-.26 3.74c-.47.11-.62.13-1.27.26zm4.34 5.77v-1h-9.85v1zm0 3.56v-1.06h-9.85v1.06zm16.25-2.49a15.79 15.79 0 003.25-1.09 23.68 23.68 0 00-2-2.66l2.56-1.76h-1.83a11.68 11.68 0 00-1.77 3.4 14.67 14.67 0 01-.91-1.38V143h-3.93v-7.67a9.35 9.35 0 01-1.22 2 13.37 13.37 0 00-2.34-3.2 18.8 18.8 0 003.22-7.35H83v-3.59h2.42V119l4.24.18c.21 0 .49.08.49.36s-.26.4-.62.55v3h1.67v3.59h-1.71v.62a17.63 17.63 0 001.87 3.12v-2.02H97v-.86h-4.39V125H97v-.85h-5.38v-2.91H94a11.89 11.89 0 00-1-1.68l3.79-1.12a20.81 20.81 0 011.43 2.56l-.78.32h2.27a17.67 17.67 0 001.22-2.79l3.95.86c.18.05.34.18.34.34 0 .34-.37.42-.68.49-.28.52-.41.78-.62 1.1h2.65v2.91h-5.49v.77h4.4v2.5h-4.4v.86h5.83v3H105l2.19 1.35a.42.42 0 01.18.36c0 .42-.47.42-.75.39a15.57 15.57 0 01-2.16 2.73 12.63 12.63 0 003.46 2.47 11.68 11.68 0 00-2.4 3.17 18.33 18.33 0 01-4.42-4.29v2.06c0 2-.39 3.14-5.3 3.35-.1-.52-.57-2.91-1.56-3.72-.47.24-.91.45-1.92.89-.06.23-.16.7-.55.7s-.44-.31-.49-.49zm4.34-5.51a28 28 0 011.82 2.31c-1.25 1-1.4 1.07-2.34 1.9 1.09-.47 1.85-.78 3-1.35v-2.86zM97 138c-1 .52-2 1-2.75 1.32a9.19 9.19 0 001.87.21c.86 0 .88-.21.88-.8zm4.08-6.06a10.32 10.32 0 001.1 1.82 13.63 13.63 0 001.56-2.31h-2.66zm7.08.06c2.6-1.95 5.35-5.74 6.7-7.59a4.22 4.22 0 013.41-2.16c1.82 0 2.42.73 5.43 4.37a49.79 49.79 0 009.83 9.36 35.37 35.37 0 00-3 4.45c-2.78-2-6.45-6.22-8.19-8.22-.52-.62-2.76-3.43-3.25-4-.39-.39-.62-.52-.88-.52s-.39.08-1 1.07c-3 4.52-3.36 5.12-5.28 7.15zm44.34 25.5v-20l10 10-10 10z" fill="#fff"/></g></g></svg>