<svg xmlns="http://www.w3.org/2000/svg" width="64" height="21.334" viewBox="0 0 64 21.334"><g transform="translate(-1039 -2146)"><g transform="translate(1039 2146)"><path d="M9.544,9.544H5.614v1.123h3.93v4.491H3.369L1.123,12.912V1.123H5.614v3.93h3.93Z" fill="#fff"/><path d="M26.386,15.158H12.912l-2.245-2.246V5.053h4.491v5.614h1.123V5.053h4.491v5.614h1.123V5.053h4.491Z" fill="#fff"/><rect width="4.491" height="10.105" transform="translate(27.509 5.052)" fill="#fff"/><rect width="4.491" height="2.807" transform="translate(27.509 1.122)" fill="#fff"/><path d="M41.544,9.544h-3.93v1.123h3.93v4.491H35.369l-2.246-2.246V1.123h4.491v3.93h3.93Z" fill="#fff"/><path d="M51.649,9.544H47.158v1.123h4.491v4.491H44.912l-2.245-2.246V7.3l2.245-2.245h6.737Z" fill="#fff"/><path d="M62.877,15.158H58.386V9.544H57.263v5.614H52.772V1.123h4.491v3.93h3.368L62.877,7.3Z" fill="#fff"/><path d="M21.9,10.667V5.053h4.49V15.158H12.912l-2.245-2.246V5.053h4.491v5.614h1.123V5.053h4.49v5.614Zm5.612-5.614H32V15.158H27.508Zm15.159,7.859V7.3l2.245-2.245h6.737V9.545H47.158v1.122h4.491v4.491H44.912Zm-41.543,0V1.123h4.49v3.93H9.543V9.545H5.614v1.122H9.543v4.491H3.368ZM27.508,1.123H32V3.93H27.508Zm5.614,11.789V1.123h4.491v3.93h3.931V9.545H37.613v1.122h3.931v4.491H35.368ZM52.772,1.123h4.491v3.93h3.369L62.877,7.3v7.86H58.385V9.545H57.263v5.613H52.772ZM52.222,0,49.387,3.93H44.351L42.667,5.614V3.93H38.736V0H26.386V3.93H9.01L6.175,0H0V13.474l7.86,7.86h7.86V19.088l2.245,2.246H33.122V19.088l2.246,2.246h7.3V19.088l2.245,2.246H58.947L64,16.281V6.736L61.192,3.93H58.385V0Z" fill="#9146ff"/></g></g></svg>