<svg xmlns="http://www.w3.org/2000/svg" width="224.333" height="41" viewBox="0 0 224.333 41">
  <g id="ico_coming01" transform="translate(-1222 -1693)">
    <path id="パス_422" data-name="パス 422" d="M0,0H224.333L203.667,41H0Z" transform="translate(1222 1693)" fill="#e8343e"/>
    <path id="パス_1312" data-name="パス 1312" d="M-73.476-4.224A4.847,4.847,0,0,1-77.22-2.472a5.3,5.3,0,0,1-5.424-5.472,5.355,5.355,0,0,1,5.3-5.592,5.149,5.149,0,0,1,3.864,1.8v-3.648a8.046,8.046,0,0,0-3.936-.984,8.193,8.193,0,0,0-5.88,2.112A8.369,8.369,0,0,0-85.86-7.992a7.978,7.978,0,0,0,2.568,6.12A7.892,7.892,0,0,0-77.436.36a8.289,8.289,0,0,0,3.96-.936ZM-62.82-16.368a8.123,8.123,0,0,0-8.544,8.376c0,4.872,3.5,8.352,8.544,8.352s8.544-3.48,8.544-8.352A8.123,8.123,0,0,0-62.82-16.368Zm0,13.9a5.207,5.207,0,0,1-5.328-5.52,5.227,5.227,0,0,1,5.328-5.544,5.227,5.227,0,0,1,5.328,5.544A5.207,5.207,0,0,1-62.82-2.472ZM-52.212,0h3.168l1.632-9.864L-43.308,0h1.056l4.3-9.864L-36.516,0h3.168l-2.688-16.008h-2.256l-4.44,10.176L-46.98-16.008h-2.256Zm21.7-16.008V0h3.12V-16.008ZM-20.628,0V-10.7L-10.884,0h2.16V-16.008h-3.12v10.68l-9.744-10.68h-2.16V0ZM3.036-5.88H7.164A4.269,4.269,0,0,1,5.652-3.432a5.336,5.336,0,0,1-3.144.96A4.925,4.925,0,0,1-1.044-3.84,5.441,5.441,0,0,1-2.628-7.9,5.966,5.966,0,0,1-1.02-12.12a5.411,5.411,0,0,1,3.7-1.416,5.248,5.248,0,0,1,2.256.5,4.365,4.365,0,0,1,1.872,1.9L9.516-12.6a7.536,7.536,0,0,0-3-2.928,7.752,7.752,0,0,0-3.7-.84A8.54,8.54,0,0,0-3.492-13.92,8.177,8.177,0,0,0-5.844-7.968,8.586,8.586,0,0,0-3.468-1.8,7.725,7.725,0,0,0,2.34.36,7.657,7.657,0,0,0,8.028-1.752C10.236-3.936,10.38-7.3,10.38-8.376v-.192H3.036ZM28.356-14.5a6.156,6.156,0,0,0-4.536-1.872c-3.552,0-5.136,2.352-5.136,4.7a3.725,3.725,0,0,0,1.272,2.976A7.7,7.7,0,0,0,22.62-7.3,7.17,7.17,0,0,1,25.092-6.12a1.859,1.859,0,0,1,.624,1.44,2.245,2.245,0,0,1-2.472,2.208,3.753,3.753,0,0,1-3.36-2.136l-2.04,1.944A6.589,6.589,0,0,0,23.364.36c3.312,0,5.568-2.136,5.568-5.256a4.354,4.354,0,0,0-1.368-3.36,9.313,9.313,0,0,0-3.24-1.608,5.457,5.457,0,0,1-1.92-.912,1.348,1.348,0,0,1-.5-1.08c0-.816.528-1.872,2.208-1.872a3.127,3.127,0,0,1,2.616,1.368Zm11.088-1.872A8.123,8.123,0,0,0,30.9-7.992C30.9-3.12,34.4.36,39.444.36s8.544-3.48,8.544-8.352A8.123,8.123,0,0,0,39.444-16.368Zm0,13.9a5.207,5.207,0,0,1-5.328-5.52,5.227,5.227,0,0,1,5.328-5.544,5.227,5.227,0,0,1,5.328,5.544A5.207,5.207,0,0,1,39.444-2.472Zm19.2-13.9A8.123,8.123,0,0,0,50.1-7.992C50.1-3.12,53.6.36,58.644.36s8.544-3.48,8.544-8.352A8.123,8.123,0,0,0,58.644-16.368Zm0,13.9a5.207,5.207,0,0,1-5.328-5.52,5.227,5.227,0,0,1,5.328-5.544,5.227,5.227,0,0,1,5.328,5.544A5.207,5.207,0,0,1,58.644-2.472ZM73.188,0V-10.7L82.932,0h2.16V-16.008h-3.12v10.68l-9.744-10.68h-2.16V0Z" transform="translate(1327.313 1722.21)" fill="#fdfdfd"/>
  </g>
</svg>
