<svg xmlns="http://www.w3.org/2000/svg" width="498" height="96" viewBox="0 0 498 96">
  <g id="txt_present01" transform="translate(-671.755 -3335.755)">
    <g id="グループ_343" data-name="グループ 343" transform="translate(672 3336)">
      <rect id="長方形_2501" data-name="長方形 2501" width="498" height="96" rx="48" transform="translate(-0.245 -0.245)" fill="#0f1721"/>
      <path id="長方形_2502" data-name="長方形 2502" d="M40,3A37.011,37.011,0,0,0,25.6,74.094,36.766,36.766,0,0,0,40,77H439A37.011,37.011,0,0,0,453.4,5.906,36.765,36.765,0,0,0,439,3H40m0-3H439a40,40,0,0,1,0,80H40A40,40,0,0,1,40,0Z" transform="translate(9.755 7.755)" fill="#fdfdfd"/>
    </g>
    <path id="パス_1314" data-name="パス 1314" d="M-60.44-30.52a4.04,4.04,0,0,1-1.24,2.96,4.04,4.04,0,0,1-2.96,1.24,4.248,4.248,0,0,1-.6-.04q-.88,12.68-8.44,19.92Q-80.44.12-91.52,1.36V-3.92q8.92-1.64,14.1-7.1a22.819,22.819,0,0,0,5.98-14.06H-96v-5.4h27.16v-.04a4.073,4.073,0,0,1,1.22-2.96,4.021,4.021,0,0,1,2.98-1.24,4.04,4.04,0,0,1,2.96,1.24A4.04,4.04,0,0,1-60.44-30.52Zm-2.36,0a1.839,1.839,0,0,0-.54-1.32,1.741,1.741,0,0,0-1.3-.56,1.806,1.806,0,0,0-1.32.56,1.806,1.806,0,0,0-.56,1.32,1.741,1.741,0,0,0,.56,1.3,1.839,1.839,0,0,0,1.32.54,1.772,1.772,0,0,0,1.3-.54A1.772,1.772,0,0,0-62.8-30.52Zm39.64,9.36Q-25-11.04-31.52-5.36q-7.56,6.6-20.92,6.6h-1.32V-31.44h5.72v26.8q7.76-.88,12.34-4.92t6.38-11.6Zm40-6.76H13.36v-5.72h3.48Zm-5.04,0H8.32v-5.72H11.8Zm4.48,1.48a19.583,19.583,0,0,1-4.8,11.8A17.645,17.645,0,0,1,1.44-9v-5.24A14.243,14.243,0,0,0,5.76-16.8a11.623,11.623,0,0,0,3.36-4.32H-6.44V-8.16a3.708,3.708,0,0,0,1,2.94,5.478,5.478,0,0,0,3.52.86H15.76V1H-2.6q-5.28,0-7.52-2.08Q-12.2-3.04-12.2-7.32v-13.8h-5.4v-5.32h5.4v-5.72h5.76v5.72Zm25.28,3.96A115.674,115.674,0,0,0,25.12-24.8v-5.72a122.593,122.593,0,0,1,16.44,2.2Zm14.48-2.64Q54.88-11.72,47-5.36,39.64.56,25.56,1.04v-5.6Q36.88-5.4,42.32-9.44q6.52-4.8,7.68-15.68Zm39.6,14.76q-10.36-2.8-22-5.16V1.84H67.72V-32.08h5.92V-21.2q13.96,2.72,22,4.96Z" transform="translate(920.755 3400.756)" fill="#fdfdfd"/>
  </g>
</svg>
