<svg xmlns="http://www.w3.org/2000/svg" xmlns:xlink="http://www.w3.org/1999/xlink" width="750" height="461" viewBox="0 0 750 461">
  <defs>
    <clipPath id="clip-path">
      <rect id="長方形_4508" data-name="長方形 4508" width="750" height="461" transform="translate(0 2077)" fill="#fff" stroke="#707070" stroke-width="1"/>
    </clipPath>
    <filter id="パス_1373" x="3.911" y="18.701" width="921.019" height="413.07" filterUnits="userSpaceOnUse">
      <feOffset dx="10" dy="10" input="SourceAlpha"/>
      <feGaussianBlur stdDeviation="10" result="blur"/>
      <feFlood flood-opacity="0.161"/>
      <feComposite operator="in" in2="blur"/>
      <feComposite in="SourceGraphic"/>
    </filter>
    <filter id="パス_1374" x="54.878" y="99.438" width="841.526" height="311.271" filterUnits="userSpaceOnUse">
      <feOffset dx="3" dy="10" input="SourceAlpha"/>
      <feGaussianBlur stdDeviation="3" result="blur-2"/>
      <feFlood flood-opacity="0.161"/>
      <feComposite operator="in" in2="blur-2"/>
      <feComposite in="SourceGraphic"/>
    </filter>
    <filter id="パス_1375" x="38.946" y="22.354" width="861.292" height="367.786" filterUnits="userSpaceOnUse">
      <feOffset dy="10" input="SourceAlpha"/>
      <feGaussianBlur stdDeviation="5" result="blur-3"/>
      <feFlood flood-opacity="0.161"/>
      <feComposite operator="in" in2="blur-3"/>
      <feComposite in="SourceGraphic"/>
    </filter>
  </defs>
  <g id="txt_timezone01_sp" transform="translate(0 -2077)" clip-path="url(#clip-path)">
    <g id="zone_date" data-name="zone date" transform="translate(0 -72.977)">
      <g id="グループ_824" data-name="グループ 824" transform="translate(721.911 14903.917)">
        <g transform="matrix(1, 0, 0, 1, -721.91, -12753.94)" filter="url(#パス_1373)">
          <path id="パス_1373-2" data-name="パス 1373" d="M134.306,0,811.019,9.3V353.07L-50,343.767Z" transform="translate(73.91 38.7)" fill="#00b0e1"/>
        </g>
        <g transform="matrix(1, 0, 0, 1, -721.91, -12753.94)" filter="url(#パス_1374)">
          <path id="パス_1374-2" data-name="パス 1374" d="M128.57,0H773.526V292.271H-50Z" transform="translate(110.88 99.44)" fill="#fff"/>
        </g>
        <g transform="matrix(1, 0, 0, 1, -721.91, -12753.94)" filter="url(#パス_1375)">
          <path id="パス_1375-2" data-name="パス 1375" d="M129.476,0H781.292V337.786H-50Z" transform="translate(103.95 27.35)" fill="#0073be"/>
        </g>
      </g>
      <g id="グループ_825" data-name="グループ 825" transform="translate(-615.6 1016.39)">
        <g id="グループ_473" data-name="グループ 473" transform="translate(891 1134)">
          <rect id="長方形_2501" data-name="長方形 2501" width="431.02" height="61.574" transform="translate(0 0)" fill="#0f1721"/>
          <path id="長方形_2502" data-name="長方形 2502" d="M3,3V48.722H415.7V3H3M0,0H418.7V51.722H0Z" transform="translate(6.157 4.926)" fill="#fdfdfd"/>
        </g>
        <path id="パス_4842" data-name="パス 4842" d="M3.24-19.035a34.767,34.767,0,0,1,3.429,8.721l3.51-1.242a38.442,38.442,0,0,0-3.645-8.613Zm16.578-1.188a24.246,24.246,0,0,1-1.35,6.1,20.388,20.388,0,0,1-4.4,7.668A20.771,20.771,0,0,1,6.561-1.3,10.1,10.1,0,0,1,9.045,1.62a24.627,24.627,0,0,0,7.776-5.886,27.819,27.819,0,0,0,5.994-12.447,12.262,12.262,0,0,1,.729-2.646Zm12.177,5.13a23.292,23.292,0,0,1,3.159-.135H45.819a23.291,23.291,0,0,1,3.159.135v-3.564a16.793,16.793,0,0,1-3.186.189H35.181a16.793,16.793,0,0,1-3.186-.189ZM29.268-1.89a26.753,26.753,0,0,1,3.4-.135H48.276a26.753,26.753,0,0,1,3.4.135V-5.508a18.844,18.844,0,0,1-3.456.189h-15.5a18.844,18.844,0,0,1-3.456-.189ZM62.046-21.627a11.475,11.475,0,0,1,.432,1.755,68.8,68.8,0,0,0,1.809,7.317,16.665,16.665,0,0,0-3.672,2.322,6.341,6.341,0,0,0-2.4,4.833A5.11,5.11,0,0,0,60.561-.891C62.289.135,64.638.594,68.391.594a57.059,57.059,0,0,0,6.318-.4A16.831,16.831,0,0,1,76.9,0l-.3-3.7a29.56,29.56,0,0,1-8.721,1.107c-4.347,0-6.183-.837-6.183-2.808,0-1.944,1.971-3.672,5.913-5.13a65.971,65.971,0,0,1,8.91-2.592l-1.161-3.4a7.39,7.39,0,0,1-1.026.405c-5.238,1.728-5.238,1.728-6.993,2.376a45.347,45.347,0,0,1-1.782-8.451ZM83.808-8.667a4.573,4.573,0,0,1,1.026.162c1.08.243,2.133.4,3.753.621a18.442,18.442,0,0,0-.135,2.295c0,4.347,2.673,6.7,7.587,6.7a9.7,9.7,0,0,0,6.1-1.782,6.424,6.424,0,0,0,2.592-5.049,8.4,8.4,0,0,0-1.161-3.969,10.376,10.376,0,0,0-1.269-1.7,9.976,9.976,0,0,1-3.348.675,6.289,6.289,0,0,1,2.43,4.563c0,2.646-1.971,4.158-5.4,4.158a4.912,4.912,0,0,1-3.348-1,3.376,3.376,0,0,1-1-2.781,19.147,19.147,0,0,1,.135-1.917c1.053.054,1.3.054,1.728.054a39.323,39.323,0,0,0,4.05-.243,3.47,3.47,0,0,1,.81-.081l.081-3.105a21.586,21.586,0,0,1-5.157.54c-.3,0-.513,0-1.323-.027.162-1.3.243-1.836.513-3.807,1.161.027,1.4.027,1.674.027.972,0,1.836-.054,3.78-.216.594-.054.729-.081,1.08-.108l.108-3.159a26.822,26.822,0,0,1-6.156.567,21.921,21.921,0,0,1,.864-4.563l-3.591-.324a1.118,1.118,0,0,1,.027.27,31.78,31.78,0,0,1-.54,4.482,20.487,20.487,0,0,1-4.887-.972l-.27,2.97c.4.081.54.108.918.189a35.412,35.412,0,0,0,3.861.675c-.135,1-.378,2.808-.486,3.78a17.7,17.7,0,0,1-4.752-1.026ZM118.5-16.74l-5.022.783a25.1,25.1,0,0,1-2.97.3l.54,3.321a28.8,28.8,0,0,1,2.97-.621l5.022-.783.81,4.428-6.561,1.053a16.615,16.615,0,0,1-2.862.27l.54,3.321a21.727,21.727,0,0,1,2.754-.594l6.669-1.053L121.365-1a20.435,20.435,0,0,1,.351,2.835l3.618-.648a15.252,15.252,0,0,1-.648-2.781l-.972-5.238,6.426-1.026c.54-.081.891-.135,1.08-.162a2.1,2.1,0,0,1,.432-.054,6.476,6.476,0,0,1,1.242-.135l-.594-3.24a23.993,23.993,0,0,1-2.808.621l-6.345,1-.81-4.428,5.7-.891a22.923,22.923,0,0,1,2.592-.351l-.567-3.24a13.908,13.908,0,0,1-2.592.594l-5.7.891-.432-2.349a18.575,18.575,0,0,1-.324-2.538l-3.564.567a11.633,11.633,0,0,1,.648,2.538ZM143.4-13.068l-2.241.378a15.144,15.144,0,0,1-2.565.243l.567,3.078a13.883,13.883,0,0,1,2.376-.594l2.322-.378L145.692-.27a11.258,11.258,0,0,1,.216,2.187l3.375-.594a10.333,10.333,0,0,1-.513-2.187l-1.917-9.99,6.345-1.053a8.315,8.315,0,0,0,1-.189,12.716,12.716,0,0,1-4.59,4.833,7.607,7.607,0,0,1,2.511,1.917,15.335,15.335,0,0,0,5.319-7.02,6.181,6.181,0,0,1,.675-1.3l-1.89-1.7a6.815,6.815,0,0,1-1.782.459l-8.073,1.35-.4-2.079a10.605,10.605,0,0,1-.27-2.079l-3.213.486a8.493,8.493,0,0,1,.513,2.025Zm21.087-4.266a28.348,28.348,0,0,1,6.885,5.481l2.322-2.943a38.24,38.24,0,0,0-6.966-5.211Zm.945,17.82a9.558,9.558,0,0,1,1.782-.459A29.164,29.164,0,0,0,177.5-4.023c3.7-2.457,6.264-5.643,8.559-10.584a11.643,11.643,0,0,1-2.862-2.646,22.546,22.546,0,0,1-2.754,5.4,18.039,18.039,0,0,1-8.019,6.615,25.727,25.727,0,0,1-7.992,2Zm26.082-5.8c.378-.486.486-.621.918-1.134,1.458-1.728,3.726-4.536,4.833-6.021s1.215-1.566,1.647-1.566c.459,0,.459,0,2.187,1.89A142.364,142.364,0,0,0,212.517-.729l1.7-3.7a19.351,19.351,0,0,1-2.565-2.052,89.586,89.586,0,0,1-8.748-8.613c-2.052-2.322-2.673-2.754-4.023-2.754a3.434,3.434,0,0,0-1.836.513,9.139,9.139,0,0,0-2.025,2.133c-3.618,4.536-5.022,6.129-5.8,6.561ZM209.2-20.061a3.123,3.123,0,0,0-3.1,3.1,3.129,3.129,0,0,0,3.1,3.132,3.134,3.134,0,0,0,3.132-3.132A3.129,3.129,0,0,0,209.2-20.061Zm0,1.35a1.758,1.758,0,0,1,1.782,1.755,1.78,1.78,0,0,1-1.782,1.782,1.775,1.775,0,0,1-1.755-1.782A1.751,1.751,0,0,1,209.2-18.711Zm7.1,10.233a29.64,29.64,0,0,1,4.4-.135h14.337a29.641,29.641,0,0,1,4.4.135v-3.753a26.515,26.515,0,0,1-4.374.189H220.671a26.515,26.515,0,0,1-4.374-.189Zm26.757-8.856a28.347,28.347,0,0,1,6.885,5.481l2.322-2.943a38.24,38.24,0,0,0-6.966-5.211ZM244,.486a9.558,9.558,0,0,1,1.782-.459,29.164,29.164,0,0,0,10.287-4.05c3.7-2.457,6.264-5.643,8.559-10.584a11.643,11.643,0,0,1-2.862-2.646,22.545,22.545,0,0,1-2.754,5.4,18.039,18.039,0,0,1-8.019,6.615,25.727,25.727,0,0,1-7.992,2Zm32.022-7.614a24.453,24.453,0,0,1-2.808-.108v2.484a18.8,18.8,0,0,1,2.862-.135,6.567,6.567,0,0,1-2.889,4.806,12.2,12.2,0,0,1,2.16,1.863,9.707,9.707,0,0,0,3.267-6.669h3.024V-.918A12.6,12.6,0,0,1,281.5,1.4h2.835a11.581,11.581,0,0,1-.135-2.3v-4h.4a19.356,19.356,0,0,1,2.781.135V-7.236a24.22,24.22,0,0,1-2.781.108h-.4V-9.612a24.453,24.453,0,0,1,2.808.108v-2.43a19.088,19.088,0,0,1-2.808.135h-7.83a18.1,18.1,0,0,1-2.727-.135V-9.5a23.533,23.533,0,0,1,2.7-.108c0,1.242,0,1.539-.054,2.484Zm5.616-2.484v2.484H278.8c.054-1.269.054-1.269.054-2.484Zm-9.855-3.456H276.8c.945,0,1.782.027,2.484.081-.054-.7-.081-1.215-.081-2.43v-4.158c0-.945.027-1.728.081-2.511a22.813,22.813,0,0,1-2.754.108H271.62a24.522,24.522,0,0,1-2.781-.108,29.936,29.936,0,0,1,.108,3.024v17.82a23.87,23.87,0,0,1-.162,3.348h3.159a23.763,23.763,0,0,1-.162-3.294Zm0-6.885h4.779v1.431h-4.779Zm0,3.348h4.779v1.458h-4.779Zm19.872-2.484c0-1.35.027-2,.108-3a24.22,24.22,0,0,1-2.781.108h-5.157a23.4,23.4,0,0,1-2.754-.108c.054.783.081,1.485.081,2.511v4.158c0,1.215,0,1.647-.054,2.43.648-.054,1.512-.081,2.457-.081h5.292V-1.593c0,.594-.162.7-1.026.7a19.3,19.3,0,0,1-2.484-.216,9.69,9.69,0,0,1,.729,2.862c.891.054,1.269.054,1.755.054,3.024,0,3.834-.621,3.834-3.024Zm-7.83-.864h5.022v1.431h-5.022Zm0,3.348h5.022v1.458h-5.022ZM312.849-3.132h3.213a18.487,18.487,0,0,1,2.268.108V-5.589a15.357,15.357,0,0,1-2.3.108h-3.186V-6.993h3.186a18.772,18.772,0,0,1,2.268.108V-9.45a14.9,14.9,0,0,1-2.3.108h-3.159v-1.485h4.266a18.121,18.121,0,0,1,2.214.108v-2.727a16.486,16.486,0,0,1-2.511.135h-3.4c.3-.432.783-1.242,1.215-2l-2.808-.54a9.134,9.134,0,0,1-1.377,2.538h-3.834c.567-.945.7-1.188,1.026-1.836l-2.808-.7a17.355,17.355,0,0,1-4.644,6.588v-7.4a41.682,41.682,0,0,0,1.539-3.969c.243-.783.243-.81.432-1.3l-2.97-.972a16.368,16.368,0,0,1-.756,3.24,20.141,20.141,0,0,1-4.158,7.344,16.5,16.5,0,0,1,1.134,3.375,15.259,15.259,0,0,0,1.917-2.7c-.054,1.458-.081,2.592-.081,3.456V-1a22.508,22.508,0,0,1-.162,3.213h3.24a28.883,28.883,0,0,1-.135-3.294V-8.451a7.73,7.73,0,0,1,1.107,2.025,10.6,10.6,0,0,0,1.7-2.16c-.027,1.215-.027,1.215-.027,1.674v6.1a22.6,22.6,0,0,1-.162,3.078h2.916V1.08h10.746a29.431,29.431,0,0,1,3,.162V-1.512A14.709,14.709,0,0,1,317.2-1.4h-4.347Zm-7.128-6.21v-1.485h4.455v1.485Zm0,2.349h4.455v1.512h-4.455Zm0,3.861h4.455V-1.4h-4.455Zm3.321-15.39h-3.726v-1.215c0-.7.027-1.269.081-1.863h-2.916a12.256,12.256,0,0,1,.108,1.755v2.052a17.41,17.41,0,0,1-.054,1.836,18,18,0,0,1,1.89-.054H316.71c.864,0,1.053,0,1.917.027a9.4,9.4,0,0,1-.081-1.755v-1.809a14.679,14.679,0,0,1,.108-2.052h-2.97a17.62,17.62,0,0,1,.081,1.836v1.242H311.8v-1.971a11.08,11.08,0,0,1,.135-2.106H308.88a10.234,10.234,0,0,1,.162,2.079Zm33.8,12.258v5.049c0,.486-.189.594-1.026.594a12.468,12.468,0,0,1-2.376-.27,11.591,11.591,0,0,1,.7,2.97c1.323.081,1.377.081,1.7.081a7.189,7.189,0,0,0,2.673-.378c.756-.324,1.134-1.161,1.134-2.484V-18.6a25.585,25.585,0,0,1,.108-2.97,26.017,26.017,0,0,1-2.916.108h-3.915a29.342,29.342,0,0,1-3-.108,27.658,27.658,0,0,1,.135,3.51c0,6.939-.162,10.935-.54,13.257A9.15,9.15,0,0,1,333.207.216,17.5,17.5,0,0,1,335.5,2.4c1.89-2.43,2.565-4.4,2.97-8.667Zm0-6.372v3.807h-4.185c.081-1.215.108-2.214.135-3.807Zm0-2.592h-4.023v-3.564h4.023Zm-18.711-4.428a8.754,8.754,0,0,1-2.052-.135v2.727a11.6,11.6,0,0,1,2.052-.108V-6.75h-.351a12.076,12.076,0,0,1-2-.108v2.727a12.373,12.373,0,0,1,2.079-.108h8.856a21.982,21.982,0,0,1,2.268.081v-2.7a10.516,10.516,0,0,1-1.62.108V-17.172a9.747,9.747,0,0,1,1.836.108v-2.727a12.158,12.158,0,0,1-1.836.135v-.459a13.378,13.378,0,0,1,.135-2.3h-2.943a12.815,12.815,0,0,1,.135,2.3v.459h-3.888v-.459a13.765,13.765,0,0,1,.135-2.3H324a13.765,13.765,0,0,1,.135,2.3ZM326.808-6.75V-8.8H330.7V-6.75Zm0-4.428v-1.836H330.7v1.836Zm0-4.212v-1.782H330.7v1.782ZM325.728-4A12.4,12.4,0,0,1,321.786.189a10.1,10.1,0,0,1,2.079,2.133,17.165,17.165,0,0,0,4.158-4.914Zm3.483,1.458A15.292,15.292,0,0,0,331.83.945a10.162,10.162,0,0,1,2.025-2,10.205,10.205,0,0,1-2.511-2.889ZM366.633-8.8c0-1.053.027-1.728.081-2.43a21.715,21.715,0,0,1-2.511.108h-6.021a22.015,22.015,0,0,1-2.511-.108c.054.729.081,1.485.081,2.43v6.588a18.613,18.613,0,0,1-.189,2.7h2.862V-1.026h5.724c.216,0,.729,0,1.512.027a10.254,10.254,0,0,1,.7,2.781c1.377.081,1.485.081,1.863.081a8.224,8.224,0,0,0,3.051-.324c.972-.405,1.3-1.107,1.3-2.727V-18.873c0-1.35.027-2.025.108-3a24.219,24.219,0,0,1-2.781.108h-5.184a23.1,23.1,0,0,1-2.754-.108c.054.837.081,1.593.081,2.511v4.131c0,1.161-.027,1.674-.081,2.457.675-.054,1.539-.081,2.484-.081h5.319V-1.566c0,.54-.243.729-1,.729-.486,0-1.458-.081-2.052-.135-.054-.7-.081-1.323-.081-2.349Zm-1.917-10.773h5.049v1.35h-5.049Zm0,3.267h5.049v1.377h-5.049Zm-6.291,7.452h5.508v1.62h-5.508Zm0,3.807h5.508v1.755h-5.508Zm-5.643-7.8h4.887c.945,0,1.782.027,2.484.081-.054-.594-.081-1.215-.081-2.457v-4.131c0-1.053.027-1.647.081-2.511a22.813,22.813,0,0,1-2.754.108H352.62a24.522,24.522,0,0,1-2.781-.108,29.936,29.936,0,0,1,.108,3.024V-1.215a24.136,24.136,0,0,1-.162,3.348h3.159a23.42,23.42,0,0,1-.162-3.321Zm0-6.723h4.644v1.35h-4.644Zm0,3.267h4.644v1.377h-4.644Z" transform="translate(911.935 1174.699)" fill="#fff"/>
      </g>
      <g id="_1st" data-name="1st" transform="translate(244 2230.852)">
        <path id="パス_1290" data-name="パス 1290" d="M23.167-12.233H6.632v-4.259H12.72v-16.1L8.362-29.267,5.9-32.761l7.386-5.589h4.392v21.859h5.49Zm18.645-4.751a4.215,4.215,0,0,1-1.89,3.726A8.669,8.669,0,0,1,35-12.06q-5.3,0-7.133-3.833l3.434-1.65A3.809,3.809,0,0,0,35-14.988q2.981,0,2.981-1.65,0-1.091-2.555-1.517a35.035,35.035,0,0,1-4.764-.985A3.571,3.571,0,0,1,28.1-22.653a4.221,4.221,0,0,1,1.757-3.54,8.523,8.523,0,0,1,5.11-1.357q4.924,0,6.734,3.434L38.432-22.6a3.736,3.736,0,0,0-3.673-2.023q-2.795,0-2.795,1.437,0,1.091,2.555,1.464a26.615,26.615,0,0,1,4.738.985A3.784,3.784,0,0,1,41.812-16.984ZM55.041-24.01H50.729v6.734a2.077,2.077,0,0,0,.293,1.357,1.964,1.964,0,0,0,1.3.293h2.635v3.274H51.022a4.7,4.7,0,0,1-3.221-.838,4.291,4.291,0,0,1-.878-3.127V-24.01h-3.3v-3.274h3.3v-4.152h3.806v4.152h4.312Z" transform="translate(-5.9 38.351)" fill="#fce01d"/>
        <path id="パス_1289" data-name="パス 1289" d="M18.2-10.027H2.04v-2.981L12.287-27.594H2.466V-31.16H17.531v2.795L7.337-13.62H18.2ZM39.862-20.594a11.933,11.933,0,0,1-2.449,7.905A8.4,8.4,0,0,1,30.6-9.761a8.437,8.437,0,0,1-6.827-2.928,11.89,11.89,0,0,1-2.462-7.905,11.836,11.836,0,0,1,2.462-7.892A8.455,8.455,0,0,1,30.6-31.4a8.415,8.415,0,0,1,6.814,2.914A11.879,11.879,0,0,1,39.862-20.594Zm-4.1,0q0-3.753-1.491-5.616a4.4,4.4,0,0,0-3.673-1.7,4.477,4.477,0,0,0-3.7,1.7q-1.491,1.863-1.491,5.616T26.9-14.978a4.477,4.477,0,0,0,3.7,1.7,4.4,4.4,0,0,0,3.673-1.7Q35.763-16.841,35.763-20.594ZM60.916-10.027H56.923L48.087-24.134v14.107H44.147V-31.16H48.14l8.81,14.293V-31.16h3.966Zm19.776,0H65.973V-31.16H80.692v3.567H70.019V-22.8h9.4v3.593h-9.4v5.589H80.692Z" transform="translate(75.906 36.025)" fill="#fce01d"/>
        <path id="パス_4317" data-name="パス 4317" d="M13.36.36H1.86v-1.5A9.972,9.972,0,0,1,4.7-5.5Q6.42-6.88,8.1-8.28a3.822,3.822,0,0,0,1.68-2.8,1.539,1.539,0,0,0-.57-1.25,2.4,2.4,0,0,0-1.57-.47A3.668,3.668,0,0,0,4.2-10.56L1.48-11.6a6.3,6.3,0,0,1,6.3-3.88,5.6,5.6,0,0,1,3.8,1.2,3.921,3.921,0,0,1,1.32,3.1,5.2,5.2,0,0,1-1.38,3.54A23.441,23.441,0,0,1,8.5-5.16a13.579,13.579,0,0,0-3,2.84h7.86ZM28.22-7.48q0,8-6.04,8-6.06,0-6.06-8t6.06-8Q28.22-15.48,28.22-7.48Zm-3,0q0-5.32-3.04-5.32T19.14-7.48q0,5.3,3.04,5.3T25.22-7.48ZM42.92.36H31.42v-1.5A9.972,9.972,0,0,1,34.26-5.5q1.72-1.38,3.4-2.78a3.822,3.822,0,0,0,1.68-2.8,1.539,1.539,0,0,0-.57-1.25,2.4,2.4,0,0,0-1.57-.47,3.668,3.668,0,0,0-3.44,2.24L31.04-11.6a6.3,6.3,0,0,1,6.3-3.88,5.6,5.6,0,0,1,3.8,1.2,3.921,3.921,0,0,1,1.32,3.1,5.2,5.2,0,0,1-1.38,3.54,23.441,23.441,0,0,1-3.02,2.48,13.579,13.579,0,0,0-3,2.84h7.86ZM57.8-4.28A4.213,4.213,0,0,1,56.08-.6,7.217,7.217,0,0,1,51.8.52a8.473,8.473,0,0,1-3.62-.68,6.057,6.057,0,0,1-2.76-2.7l2.78-1.4a3.937,3.937,0,0,0,3.42,2.22,3.674,3.674,0,0,0,2.44-.7,2.058,2.058,0,0,0,.72-1.64,1.8,1.8,0,0,0-.88-1.58,4.489,4.489,0,0,0-2.48-.58H48.86v-2.5h2.48a3.614,3.614,0,0,0,2.24-.6,1.745,1.745,0,0,0,.72-1.44,1.648,1.648,0,0,0-.64-1.34,2.962,2.962,0,0,0-1.9-.52A4.332,4.332,0,0,0,48.12-11l-2.5-1.22a6.684,6.684,0,0,1,6.24-3.26,6.377,6.377,0,0,1,4.02,1.14,3.316,3.316,0,0,1,1.34,2.72,4.246,4.246,0,0,1-.63,2.33,3.078,3.078,0,0,1-1.67,1.33A3.813,3.813,0,0,1,56.9-6.78,3.644,3.644,0,0,1,57.8-4.28Zm5.58-5.6h5.46v-2.26H64.96Q64.16-10.88,63.38-9.88ZM78.16-2.54H71.5V1.38H68.84V-2.54H60.08V-4.96h3.1V-9.64q-.48.6-.88,1.08l-2.4-1.3a26.17,26.17,0,0,0,4.6-6.8l2.62.56q-.36.78-.78,1.58H77.46v2.38H71.5v2.26h5.02V-7.6H71.5v2.64h6.66ZM68.84-4.96V-7.6H65.76v2.64ZM102.927.468H90V-2.86h4.758V-15.444l-3.406,2.6-1.924-2.73,5.772-4.368h3.432V-2.86h4.29ZM123.051-9.724q0,10.4-7.852,10.4-7.878,0-7.878-10.4t7.878-10.4Q123.051-20.124,123.051-9.724Zm-3.9,0q0-6.916-3.952-6.916t-3.952,6.916q0,6.89,3.952,6.89T119.151-9.724ZM142.629-14.9v-2.6h-9.1v2.6Zm-9.1,5.746h9.1V-11.8h-9.1Zm9.1,3.224h-9.334a15.924,15.924,0,0,1-3.172,7.9L126.561.39a13.963,13.963,0,0,0,2.756-5.2,20.258,20.258,0,0,0,.65-5.486v-10.53h16.25V-2.5q0,2.522-.923,3.315a5.409,5.409,0,0,1-3.419.793h-3.38l-1.144-3.354h3.874q1.066,0,1.274-.494a2.346,2.346,0,0,0,.13-.91Zm24.726,6.4H154.433V-2.86h4.758V-15.444l-3.406,2.6-1.924-2.73,5.772-4.368h3.432V-2.86h4.29Zm19.76-16.848A92.8,92.8,0,0,0,178.249.468H173.6a121.132,121.132,0,0,1,9.126-16.848H172.269v-3.484h14.846ZM211.4,1.482h-3.588V-.286H196.735V1.482h-3.614V-20.28H211.4Zm-3.588-13.416v-5.018H196.735v5.018Zm0,8.32V-8.762H196.735v5.148Zm26.23,5.074-2.78.68a14.593,14.593,0,0,1-3.18-4.6,12.633,12.633,0,0,1-1.12-5.14,12.745,12.745,0,0,1,1.13-5.17,14.554,14.554,0,0,1,3.17-4.57l2.78.68q-4.06,4.38-4.06,9.06T234.041,1.46Zm19.9-14.28a27.022,27.022,0,0,1-2.98,5.4l-2.4-1.14a24.914,24.914,0,0,0,2.92-5.4ZM241.8-8.32l-2.52.9a36.836,36.836,0,0,0-2.54-5.4l2.46-.86A34.815,34.815,0,0,1,241.8-8.32Zm4.82-1.92v.22q1.44,6.38,7.92,9.4l-1.7,2.16a15.432,15.432,0,0,1-7.34-7.22,14.671,14.671,0,0,1-3.26,4.2,17.986,17.986,0,0,1-4.46,2.98l-1.76-2.08a15.116,15.116,0,0,0,5.79-4.21,8.674,8.674,0,0,0,2.05-5.55v-6h2.76Zm9.76,11.7q4.06-4.38,4.06-9.06t-4.06-9.06l2.78-.68a14.553,14.553,0,0,1,3.17,4.57,12.745,12.745,0,0,1,1.13,5.17,12.633,12.633,0,0,1-1.12,5.14,14.593,14.593,0,0,1-3.18,4.6ZM294.9-7.917A7.8,7.8,0,0,1,289.48-5.25a9.115,9.115,0,0,1-4.725-1.722A5.41,5.41,0,0,0,281.92-7.98,4.639,4.639,0,0,0,278.287-5.9l-1.722-2.541a7.757,7.757,0,0,1,5.4-2.646,9.1,9.1,0,0,1,4.725,1.7,5.52,5.52,0,0,0,2.856,1.029,4.639,4.639,0,0,0,3.633-2.079ZM312.783.468H299.861V-2.86h4.758V-15.444l-3.406,2.6-1.924-2.73,5.772-4.368h3.432V-2.86h4.29ZM332.907-9.724q0,10.4-7.852,10.4-7.878,0-7.878-10.4t7.878-10.4Q332.907-20.124,332.907-9.724Zm-3.9,0q0-6.916-3.952-6.916T321.1-9.724q0,6.89,3.952,6.89T329.007-9.724ZM352.485-14.9v-2.6h-9.1v2.6Zm-9.1,5.746h9.1V-11.8h-9.1Zm9.1,3.224h-9.334a15.924,15.924,0,0,1-3.172,7.9L336.417.39a13.963,13.963,0,0,0,2.756-5.2,20.257,20.257,0,0,0,.65-5.486v-10.53h16.25V-2.5q0,2.522-.923,3.315a5.409,5.409,0,0,1-3.419.793h-3.38l-1.144-3.354h3.874q1.066,0,1.274-.494a2.346,2.346,0,0,0,.13-.91Zm25.532,6.4h-14.95v-1.95a12.964,12.964,0,0,1,3.692-5.668q2.236-1.794,4.42-3.614t2.184-3.64a2,2,0,0,0-.741-1.625,3.116,3.116,0,0,0-2.041-.611,4.768,4.768,0,0,0-4.472,2.912l-3.536-1.352q2.236-5.044,8.19-5.044a7.278,7.278,0,0,1,4.94,1.56,5.1,5.1,0,0,1,1.716,4.03,6.756,6.756,0,0,1-1.794,4.6A30.472,30.472,0,0,1,371.7-6.708a17.653,17.653,0,0,0-3.9,3.692h10.218Zm19.214,0h-14.95v-1.95a12.964,12.964,0,0,1,3.692-5.668q2.236-1.794,4.42-3.614t2.184-3.64a2,2,0,0,0-.741-1.625,3.116,3.116,0,0,0-2.041-.611,4.768,4.768,0,0,0-4.472,2.912l-3.536-1.352q2.236-5.044,8.19-5.044a7.278,7.278,0,0,1,4.94,1.56,5.1,5.1,0,0,1,1.716,4.03,6.756,6.756,0,0,1-1.794,4.6,30.472,30.472,0,0,1-3.926,3.224,17.653,17.653,0,0,0-3.9,3.692h10.218Zm24.024,1.014h-3.588V-.286H406.591V1.482h-3.614V-20.28h18.278Zm-3.588-13.416v-5.018H406.591v5.018Zm0,8.32V-8.762H406.591v5.148ZM443.9,1.46l-2.78.68a14.593,14.593,0,0,1-3.18-4.6,12.633,12.633,0,0,1-1.12-5.14,12.745,12.745,0,0,1,1.13-5.17,14.553,14.553,0,0,1,3.17-4.57l2.78.68q-4.06,4.38-4.06,9.06T443.9,1.46Zm18.24-.32h-2.76V-.22h-8.52V1.14h-2.78V-15.6h14.06Zm-2.76-10.32v-3.86h-8.52v3.86Zm0,6.4V-6.74h-8.52v3.96Zm6.86,4.24q4.06-4.38,4.06-9.06t-4.06-9.06l2.78-.68a14.553,14.553,0,0,1,3.17,4.57,12.745,12.745,0,0,1,1.13,5.17,12.633,12.633,0,0,1-1.12,5.14,14.593,14.593,0,0,1-3.18,4.6Z" transform="translate(0 59.125)" fill="#fce01d"/>
      </g>
      <g id="グループ_827" data-name="グループ 827" transform="translate(244 2315.117)">
        <path id="パス_1291" data-name="パス 1291" d="M23.463-12.35H4.332v-2.5A16.589,16.589,0,0,1,9.057-22.1q2.861-2.3,5.656-4.625t2.795-4.658a2.559,2.559,0,0,0-.948-2.079,3.988,3.988,0,0,0-2.612-.782,6.1,6.1,0,0,0-5.723,3.726L3.7-32.246Q6.561-38.7,14.18-38.7a9.313,9.313,0,0,1,6.321,2,6.523,6.523,0,0,1,2.2,5.157,8.646,8.646,0,0,1-2.3,5.889,38.994,38.994,0,0,1-5.024,4.126,22.589,22.589,0,0,0-4.991,4.724H23.463ZM41.5-12.47H37.7v-8.837a4.174,4.174,0,0,0-.373-2.023,1.9,1.9,0,0,0-1.783-.852A3.6,3.6,0,0,0,33.2-23.169a4.481,4.481,0,0,0-1.357,1.943v8.757h-3.78V-27.4h3.78v1.81a6.1,6.1,0,0,1,1.943-1.437,6.212,6.212,0,0,1,2.715-.639,4.926,4.926,0,0,1,3.686,1.344A5.424,5.424,0,0,1,41.5-22.371Zm13.867-6.148V-21.28A3.958,3.958,0,0,0,54.2-23.329a3.1,3.1,0,0,0-2.262-1.038q-2.875,0-2.875,4.418,0,4.445,2.875,4.445A3.1,3.1,0,0,0,54.2-16.542,4.1,4.1,0,0,0,55.369-18.618Zm3.806,6.148H55.369v-1.544a5.3,5.3,0,0,1-4.126,1.81,5.286,5.286,0,0,1-4.205-1.89,8.63,8.63,0,0,1-1.81-5.856,8.587,8.587,0,0,1,1.81-5.829,5.286,5.286,0,0,1,4.205-1.89,5.283,5.283,0,0,1,4.126,1.783V-34h3.806Z" transform="translate(-3.7 38.701)" fill="#fce01d"/>
        <path id="パス_1292" data-name="パス 1292" d="M18.2-10.027H2.04v-2.981L12.287-27.594H2.466V-31.16H17.531v2.795L7.337-13.62H18.2ZM39.862-20.594a11.933,11.933,0,0,1-2.449,7.905A8.4,8.4,0,0,1,30.6-9.761a8.437,8.437,0,0,1-6.827-2.928,11.89,11.89,0,0,1-2.462-7.905,11.836,11.836,0,0,1,2.462-7.892A8.455,8.455,0,0,1,30.6-31.4a8.415,8.415,0,0,1,6.814,2.914A11.879,11.879,0,0,1,39.862-20.594Zm-4.1,0q0-3.753-1.491-5.616a4.4,4.4,0,0,0-3.673-1.7,4.477,4.477,0,0,0-3.7,1.7q-1.491,1.863-1.491,5.616T26.9-14.978a4.477,4.477,0,0,0,3.7,1.7,4.4,4.4,0,0,0,3.673-1.7Q35.763-16.841,35.763-20.594ZM60.916-10.027H56.923L48.087-24.134v14.107H44.147V-31.16H48.14l8.81,14.293V-31.16h3.966Zm19.776,0H65.973V-31.16H80.692v3.567H70.019V-22.8h9.4v3.593h-9.4v5.589H80.692Z" transform="translate(77.37 36.923)" fill="#fce01d"/>
        <path id="パス_4318" data-name="パス 4318" d="M13.36.36H1.86v-1.5A9.972,9.972,0,0,1,4.7-5.5Q6.42-6.88,8.1-8.28a3.822,3.822,0,0,0,1.68-2.8,1.539,1.539,0,0,0-.57-1.25,2.4,2.4,0,0,0-1.57-.47A3.668,3.668,0,0,0,4.2-10.56L1.48-11.6a6.3,6.3,0,0,1,6.3-3.88,5.6,5.6,0,0,1,3.8,1.2,3.921,3.921,0,0,1,1.32,3.1,5.2,5.2,0,0,1-1.38,3.54A23.441,23.441,0,0,1,8.5-5.16a13.579,13.579,0,0,0-3,2.84h7.86ZM28.22-7.48q0,8-6.04,8-6.06,0-6.06-8t6.06-8Q28.22-15.48,28.22-7.48Zm-3,0q0-5.32-3.04-5.32T19.14-7.48q0,5.3,3.04,5.3T25.22-7.48ZM42.92.36H31.42v-1.5A9.972,9.972,0,0,1,34.26-5.5q1.72-1.38,3.4-2.78a3.822,3.822,0,0,0,1.68-2.8,1.539,1.539,0,0,0-.57-1.25,2.4,2.4,0,0,0-1.57-.47,3.668,3.668,0,0,0-3.44,2.24L31.04-11.6a6.3,6.3,0,0,1,6.3-3.88,5.6,5.6,0,0,1,3.8,1.2,3.921,3.921,0,0,1,1.32,3.1,5.2,5.2,0,0,1-1.38,3.54,23.441,23.441,0,0,1-3.02,2.48,13.579,13.579,0,0,0-3,2.84h7.86ZM57.8-4.28A4.213,4.213,0,0,1,56.08-.6,7.217,7.217,0,0,1,51.8.52a8.473,8.473,0,0,1-3.62-.68,6.057,6.057,0,0,1-2.76-2.7l2.78-1.4a3.937,3.937,0,0,0,3.42,2.22,3.674,3.674,0,0,0,2.44-.7,2.058,2.058,0,0,0,.72-1.64,1.8,1.8,0,0,0-.88-1.58,4.489,4.489,0,0,0-2.48-.58H48.86v-2.5h2.48a3.614,3.614,0,0,0,2.24-.6,1.745,1.745,0,0,0,.72-1.44,1.648,1.648,0,0,0-.64-1.34,2.962,2.962,0,0,0-1.9-.52A4.332,4.332,0,0,0,48.12-11l-2.5-1.22a6.684,6.684,0,0,1,6.24-3.26,6.377,6.377,0,0,1,4.02,1.14,3.316,3.316,0,0,1,1.34,2.72,4.246,4.246,0,0,1-.63,2.33,3.078,3.078,0,0,1-1.67,1.33A3.813,3.813,0,0,1,56.9-6.78,3.644,3.644,0,0,1,57.8-4.28Zm5.58-5.6h5.46v-2.26H64.96Q64.16-10.88,63.38-9.88ZM78.16-2.54H71.5V1.38H68.84V-2.54H60.08V-4.96h3.1V-9.64q-.48.6-.88,1.08l-2.4-1.3a26.17,26.17,0,0,0,4.6-6.8l2.62.56q-.36.78-.78,1.58H77.46v2.38H71.5v2.26h5.02V-7.6H71.5v2.64h6.66ZM68.84-4.96V-7.6H65.76v2.64ZM102.927.468H90V-2.86h4.758V-15.444l-3.406,2.6-1.924-2.73,5.772-4.368h3.432V-2.86h4.29ZM123.051-9.724q0,10.4-7.852,10.4-7.878,0-7.878-10.4t7.878-10.4Q123.051-20.124,123.051-9.724Zm-3.9,0q0-6.916-3.952-6.916t-3.952,6.916q0,6.89,3.952,6.89T119.151-9.724ZM142.629-14.9v-2.6h-9.1v2.6Zm-9.1,5.746h9.1V-11.8h-9.1Zm9.1,3.224h-9.334a15.924,15.924,0,0,1-3.172,7.9L126.561.39a13.963,13.963,0,0,0,2.756-5.2,20.258,20.258,0,0,0,.65-5.486v-10.53h16.25V-2.5q0,2.522-.923,3.315a5.409,5.409,0,0,1-3.419.793h-3.38l-1.144-3.354h3.874q1.066,0,1.274-.494a2.346,2.346,0,0,0,.13-.91Zm24.726,6.4H154.433V-2.86h4.758V-15.444l-3.406,2.6-1.924-2.73,5.772-4.368h3.432V-2.86h4.29Zm19.76-16.848A92.8,92.8,0,0,0,178.249.468H173.6a121.132,121.132,0,0,1,9.126-16.848H172.269v-3.484h14.846ZM211.4,1.482h-3.588V-.286H196.735V1.482h-3.614V-20.28H211.4Zm-3.588-13.416v-5.018H196.735v5.018Zm0,8.32V-8.762H196.735v5.148Zm26.23,5.074-2.78.68a14.593,14.593,0,0,1-3.18-4.6,12.633,12.633,0,0,1-1.12-5.14,12.745,12.745,0,0,1,1.13-5.17,14.554,14.554,0,0,1,3.17-4.57l2.78.68q-4.06,4.38-4.06,9.06T234.041,1.46Zm19.9-14.28a27.022,27.022,0,0,1-2.98,5.4l-2.4-1.14a24.914,24.914,0,0,0,2.92-5.4ZM241.8-8.32l-2.52.9a36.836,36.836,0,0,0-2.54-5.4l2.46-.86A34.815,34.815,0,0,1,241.8-8.32Zm4.82-1.92v.22q1.44,6.38,7.92,9.4l-1.7,2.16a15.432,15.432,0,0,1-7.34-7.22,14.671,14.671,0,0,1-3.26,4.2,17.986,17.986,0,0,1-4.46,2.98l-1.76-2.08a15.116,15.116,0,0,0,5.79-4.21,8.674,8.674,0,0,0,2.05-5.55v-6h2.76Zm9.76,11.7q4.06-4.38,4.06-9.06t-4.06-9.06l2.78-.68a14.553,14.553,0,0,1,3.17,4.57,12.745,12.745,0,0,1,1.13,5.17,12.633,12.633,0,0,1-1.12,5.14,14.593,14.593,0,0,1-3.18,4.6ZM294.9-7.917A7.8,7.8,0,0,1,289.48-5.25a9.115,9.115,0,0,1-4.725-1.722A5.41,5.41,0,0,0,281.92-7.98,4.639,4.639,0,0,0,278.287-5.9l-1.722-2.541a7.757,7.757,0,0,1,5.4-2.646,9.1,9.1,0,0,1,4.725,1.7,5.52,5.52,0,0,0,2.856,1.029,4.639,4.639,0,0,0,3.633-2.079ZM312.783.468H299.861V-2.86h4.758V-15.444l-3.406,2.6-1.924-2.73,5.772-4.368h3.432V-2.86h4.29ZM332,.468H319.075V-2.86h4.758V-15.444l-3.406,2.6-1.924-2.73,5.772-4.368h3.432V-2.86H332ZM352.485-14.9v-2.6h-9.1v2.6Zm-9.1,5.746h9.1V-11.8h-9.1Zm9.1,3.224h-9.334a15.924,15.924,0,0,1-3.172,7.9L336.417.39a13.963,13.963,0,0,0,2.756-5.2,20.257,20.257,0,0,0,.65-5.486v-10.53h16.25V-2.5q0,2.522-.923,3.315a5.409,5.409,0,0,1-3.419.793h-3.38l-1.144-3.354h3.874q1.066,0,1.274-.494a2.346,2.346,0,0,0,.13-.91Zm24.726,6.4H364.289V-2.86h4.758V-15.444l-3.406,2.6-1.924-2.73,5.772-4.368h3.432V-2.86h4.29Zm20.02,0h-14.95v-1.95a12.964,12.964,0,0,1,3.692-5.668q2.236-1.794,4.42-3.614t2.184-3.64a2,2,0,0,0-.741-1.625,3.116,3.116,0,0,0-2.041-.611,4.768,4.768,0,0,0-4.472,2.912l-3.536-1.352q2.236-5.044,8.19-5.044a7.278,7.278,0,0,1,4.94,1.56,5.1,5.1,0,0,1,1.716,4.03,6.756,6.756,0,0,1-1.794,4.6,30.472,30.472,0,0,1-3.926,3.224,17.653,17.653,0,0,0-3.9,3.692h10.218Zm24.024,1.014h-3.588V-.286H406.591V1.482h-3.614V-20.28h18.278Zm-3.588-13.416v-5.018H406.591v5.018Zm0,8.32V-8.762H406.591v5.148ZM443.9,1.46l-2.78.68a14.593,14.593,0,0,1-3.18-4.6,12.633,12.633,0,0,1-1.12-5.14,12.745,12.745,0,0,1,1.13-5.17,14.553,14.553,0,0,1,3.17-4.57l2.78.68q-4.06,4.38-4.06,9.06T443.9,1.46Zm18.24-.32h-2.76V-.22h-8.52V1.14h-2.78V-15.6h14.06Zm-2.76-10.32v-3.86h-8.52v3.86Zm0,6.4V-6.74h-8.52v3.96Zm6.86,4.24q4.06-4.38,4.06-9.06t-4.06-9.06l2.78-.68a14.553,14.553,0,0,1,3.17,4.57,12.745,12.745,0,0,1,1.13,5.17,12.633,12.633,0,0,1-1.12,5.14,14.593,14.593,0,0,1-3.18,4.6Z" transform="translate(0 60.859)" fill="#fce01d"/>
      </g>
      <g id="グループ_1460" data-name="グループ 1460">
        <g id="グループ_828" data-name="グループ 828" transform="translate(244 2409.439)">
          <path id="パス_418" data-name="パス 418" d="M199.624,29h0Z" transform="translate(456.987 7.397)" fill="#fce01d"/>
          <path id="パス_1296" data-name="パス 1296" d="M23.295-20.069a7.008,7.008,0,0,1-2.861,6.122,12.007,12.007,0,0,1-7.12,1.863,14.1,14.1,0,0,1-6.022-1.131A10.076,10.076,0,0,1,2.7-17.706l4.625-2.329q2.229,3.693,5.689,3.693a6.112,6.112,0,0,0,4.059-1.164,3.423,3.423,0,0,0,1.2-2.728,3,3,0,0,0-1.464-2.628,7.467,7.467,0,0,0-4.126-.965H8.423v-4.159h4.126a6.012,6.012,0,0,0,3.726-1,2.9,2.9,0,0,0,1.2-2.4,2.742,2.742,0,0,0-1.065-2.229,4.928,4.928,0,0,0-3.161-.865,7.207,7.207,0,0,0-6.055,3.227L3.033-33.277Q6.227-38.7,13.413-38.7A10.609,10.609,0,0,1,20.1-36.8a5.517,5.517,0,0,1,2.229,4.525A7.064,7.064,0,0,1,21.282-28.4,5.12,5.12,0,0,1,18.5-26.19,6.343,6.343,0,0,1,21.8-24.227,6.062,6.062,0,0,1,23.295-20.069Zm15.1-6.96-1.2,3.646a3.762,3.762,0,0,0-2.289-.745A3.215,3.215,0,0,0,32.65-23.09,4.707,4.707,0,0,0,31.4-21.013v8.544H27.646V-27.4H31.4v1.863a5.114,5.114,0,0,1,4.338-2.1A5.367,5.367,0,0,1,38.4-27.029Zm12,8.411V-21.28a3.958,3.958,0,0,0-1.171-2.049,3.1,3.1,0,0,0-2.262-1.038q-2.875,0-2.875,4.418,0,4.445,2.875,4.445a3.1,3.1,0,0,0,2.262-1.038A4.1,4.1,0,0,0,50.4-18.618ZM54.21-12.47H50.4v-1.544a5.3,5.3,0,0,1-4.126,1.81,5.286,5.286,0,0,1-4.205-1.89,8.63,8.63,0,0,1-1.81-5.856,8.587,8.587,0,0,1,1.81-5.829,5.286,5.286,0,0,1,4.205-1.89A5.283,5.283,0,0,1,50.4-25.884V-34H54.21Z" transform="translate(-2.7 38.699)" fill="#fce01d"/>
          <path id="パス_1295" data-name="パス 1295" d="M18.2-10.027H2.04v-2.981L12.287-27.594H2.466V-31.16H17.531v2.795L7.337-13.62H18.2ZM39.862-20.594a11.933,11.933,0,0,1-2.449,7.905A8.4,8.4,0,0,1,30.6-9.761a8.437,8.437,0,0,1-6.827-2.928,11.89,11.89,0,0,1-2.462-7.905,11.836,11.836,0,0,1,2.462-7.892A8.455,8.455,0,0,1,30.6-31.4a8.415,8.415,0,0,1,6.814,2.914A11.879,11.879,0,0,1,39.862-20.594Zm-4.1,0q0-3.753-1.491-5.616a4.4,4.4,0,0,0-3.673-1.7,4.477,4.477,0,0,0-3.7,1.7q-1.491,1.863-1.491,5.616T26.9-14.978a4.477,4.477,0,0,0,3.7,1.7,4.4,4.4,0,0,0,3.673-1.7Q35.763-16.841,35.763-20.594ZM60.916-10.027H56.923L48.087-24.134v14.107H44.147V-31.16H48.14l8.81,14.293V-31.16h3.966Zm19.776,0H65.973V-31.16H80.692v3.567H70.019V-22.8h9.4v3.593h-9.4v5.589H80.692Z" transform="translate(78.35 36.922)" fill="#fce01d"/>
        </g>
        <path id="パス_4329" data-name="パス 4329" d="M13.36.36H1.86v-1.5A9.972,9.972,0,0,1,4.7-5.5Q6.42-6.88,8.1-8.28a3.822,3.822,0,0,0,1.68-2.8,1.539,1.539,0,0,0-.57-1.25,2.4,2.4,0,0,0-1.57-.47A3.668,3.668,0,0,0,4.2-10.56L1.48-11.6a6.3,6.3,0,0,1,6.3-3.88,5.6,5.6,0,0,1,3.8,1.2,3.921,3.921,0,0,1,1.32,3.1,5.2,5.2,0,0,1-1.38,3.54A23.441,23.441,0,0,1,8.5-5.16a13.579,13.579,0,0,0-3,2.84h7.86ZM28.22-7.48q0,8-6.04,8-6.06,0-6.06-8t6.06-8Q28.22-15.48,28.22-7.48Zm-3,0q0-5.32-3.04-5.32T19.14-7.48q0,5.3,3.04,5.3T25.22-7.48ZM42.92.36H31.42v-1.5A9.972,9.972,0,0,1,34.26-5.5q1.72-1.38,3.4-2.78a3.822,3.822,0,0,0,1.68-2.8,1.539,1.539,0,0,0-.57-1.25,2.4,2.4,0,0,0-1.57-.47,3.668,3.668,0,0,0-3.44,2.24L31.04-11.6a6.3,6.3,0,0,1,6.3-3.88,5.6,5.6,0,0,1,3.8,1.2,3.921,3.921,0,0,1,1.32,3.1,5.2,5.2,0,0,1-1.38,3.54,23.441,23.441,0,0,1-3.02,2.48,13.579,13.579,0,0,0-3,2.84h7.86ZM57.8-4.28A4.213,4.213,0,0,1,56.08-.6,7.217,7.217,0,0,1,51.8.52a8.473,8.473,0,0,1-3.62-.68,6.057,6.057,0,0,1-2.76-2.7l2.78-1.4a3.937,3.937,0,0,0,3.42,2.22,3.674,3.674,0,0,0,2.44-.7,2.058,2.058,0,0,0,.72-1.64,1.8,1.8,0,0,0-.88-1.58,4.489,4.489,0,0,0-2.48-.58H48.86v-2.5h2.48a3.614,3.614,0,0,0,2.24-.6,1.745,1.745,0,0,0,.72-1.44,1.648,1.648,0,0,0-.64-1.34,2.962,2.962,0,0,0-1.9-.52A4.332,4.332,0,0,0,48.12-11l-2.5-1.22a6.684,6.684,0,0,1,6.24-3.26,6.377,6.377,0,0,1,4.02,1.14,3.316,3.316,0,0,1,1.34,2.72,4.246,4.246,0,0,1-.63,2.33,3.078,3.078,0,0,1-1.67,1.33A3.813,3.813,0,0,1,56.9-6.78,3.644,3.644,0,0,1,57.8-4.28Zm5.58-5.6h5.46v-2.26H64.96Q64.16-10.88,63.38-9.88ZM78.16-2.54H71.5V1.38H68.84V-2.54H60.08V-4.96h3.1V-9.64q-.48.6-.88,1.08l-2.4-1.3a26.17,26.17,0,0,0,4.6-6.8l2.62.56q-.36.78-.78,1.58H77.46v2.38H71.5v2.26h5.02V-7.6H71.5v2.64h6.66ZM68.84-4.96V-7.6H65.76v2.64ZM102.927.468H90V-2.86h4.758V-15.444l-3.406,2.6-1.924-2.73,5.772-4.368h3.432V-2.86h4.29ZM123.051-9.724q0,10.4-7.852,10.4-7.878,0-7.878-10.4t7.878-10.4Q123.051-20.124,123.051-9.724Zm-3.9,0q0-6.916-3.952-6.916t-3.952,6.916q0,6.89,3.952,6.89T119.151-9.724ZM142.629-14.9v-2.6h-9.1v2.6Zm-9.1,5.746h9.1V-11.8h-9.1Zm9.1,3.224h-9.334a15.924,15.924,0,0,1-3.172,7.9L126.561.39a13.963,13.963,0,0,0,2.756-5.2,20.258,20.258,0,0,0,.65-5.486v-10.53h16.25V-2.5q0,2.522-.923,3.315a5.409,5.409,0,0,1-3.419.793h-3.38l-1.144-3.354h3.874q1.066,0,1.274-.494a2.346,2.346,0,0,0,.13-.91Zm25.532,6.4h-14.95v-1.95A12.964,12.964,0,0,1,156.9-7.15q2.236-1.794,4.42-3.614t2.184-3.64a2,2,0,0,0-.741-1.625,3.116,3.116,0,0,0-2.041-.611,4.768,4.768,0,0,0-4.472,2.912l-3.536-1.352q2.236-5.044,8.19-5.044a7.278,7.278,0,0,1,4.94,1.56,5.1,5.1,0,0,1,1.716,4.03,6.756,6.756,0,0,1-1.794,4.6,30.473,30.473,0,0,1-3.926,3.224,17.653,17.653,0,0,0-3.9,3.692h10.218ZM187.115-16.38A92.8,92.8,0,0,0,178.249.468H173.6a121.132,121.132,0,0,1,9.126-16.848H172.269v-3.484h14.846ZM211.4,1.482h-3.588V-.286H196.735V1.482h-3.614V-20.28H211.4Zm-3.588-13.416v-5.018H196.735v5.018Zm0,8.32V-8.762H196.735v5.148Zm26.23,5.074-2.78.68a14.593,14.593,0,0,1-3.18-4.6,12.633,12.633,0,0,1-1.12-5.14,12.745,12.745,0,0,1,1.13-5.17,14.554,14.554,0,0,1,3.17-4.57l2.78.68q-4.06,4.38-4.06,9.06T234.041,1.46Zm14.3-12.98a21.317,21.317,0,0,1-3.22-2.68,24.943,24.943,0,0,1-3.08,2.68Zm6.58.7-1.6,2.08a31.286,31.286,0,0,1-4.08-2.18v1.58h-2.68v1.48h6.24v2.28h-6.24V-1.6h3.22l-2.04-.9a17.25,17.25,0,0,0,2-3l2.34.94a19.882,19.882,0,0,1-2,2.96h3.86V.82h-17.42V-1.6h3.94a15.77,15.77,0,0,0-1.96-2.68l2.1-1.14a13.926,13.926,0,0,1,2.1,2.8l-1.82,1.02h3V-5.58h-6.16V-7.86h6.16V-9.34h-2.66v-1.6a30.194,30.194,0,0,1-4.1,2.34l-1.6-1.98a23.013,23.013,0,0,0,8.2-5.9h2.74a19.575,19.575,0,0,0,3.62,3.12A30.829,30.829,0,0,0,254.921-10.82Zm1.46,12.28q4.06-4.38,4.06-9.06t-4.06-9.06l2.78-.68a14.553,14.553,0,0,1,3.17,4.57,12.745,12.745,0,0,1,1.13,5.17,12.633,12.633,0,0,1-1.12,5.14,14.593,14.593,0,0,1-3.18,4.6ZM294.9-7.917A7.8,7.8,0,0,1,289.48-5.25a9.115,9.115,0,0,1-4.725-1.722A5.41,5.41,0,0,0,281.92-7.98,4.639,4.639,0,0,0,278.287-5.9l-1.722-2.541a7.757,7.757,0,0,1,5.4-2.646,9.1,9.1,0,0,1,4.725,1.7,5.52,5.52,0,0,0,2.856,1.029,4.639,4.639,0,0,0,3.633-2.079ZM312.783.468H299.861V-2.86h4.758V-15.444l-3.406,2.6-1.924-2.73,5.772-4.368h3.432V-2.86h4.29Zm20.02,0h-14.95v-1.95a12.964,12.964,0,0,1,3.692-5.668q2.236-1.794,4.42-3.614t2.184-3.64a2,2,0,0,0-.741-1.625,3.116,3.116,0,0,0-2.041-.611,4.768,4.768,0,0,0-4.472,2.912l-3.536-1.352q2.236-5.044,8.19-5.044a7.278,7.278,0,0,1,4.94,1.56,5.1,5.1,0,0,1,1.716,4.03,6.756,6.756,0,0,1-1.794,4.6,30.472,30.472,0,0,1-3.926,3.224,17.653,17.653,0,0,0-3.9,3.692H332.8ZM352.485-14.9v-2.6h-9.1v2.6Zm-9.1,5.746h9.1V-11.8h-9.1Zm9.1,3.224h-9.334a15.924,15.924,0,0,1-3.172,7.9L336.417.39a13.963,13.963,0,0,0,2.756-5.2,20.257,20.257,0,0,0,.65-5.486v-10.53h16.25V-2.5q0,2.522-.923,3.315a5.409,5.409,0,0,1-3.419.793h-3.38l-1.144-3.354h3.874q1.066,0,1.274-.494a2.346,2.346,0,0,0,.13-.91Zm24.726,6.4H364.289V-2.86h4.758V-15.444l-3.406,2.6-1.924-2.73,5.772-4.368h3.432V-2.86h4.29Zm19.76-16.848A92.8,92.8,0,0,0,388.1.468h-4.654a121.131,121.131,0,0,1,9.126-16.848H382.125v-3.484h14.846ZM421.255,1.482h-3.588V-.286H406.591V1.482h-3.614V-20.28h18.278Zm-3.588-13.416v-5.018H406.591v5.018Zm0,8.32V-8.762H406.591v5.148ZM443.9,1.46l-2.78.68a14.593,14.593,0,0,1-3.18-4.6,12.633,12.633,0,0,1-1.12-5.14,12.745,12.745,0,0,1,1.13-5.17,14.553,14.553,0,0,1,3.17-4.57l2.78.68q-4.06,4.38-4.06,9.06T443.9,1.46Zm18.24-.32h-2.76V-.22h-8.52V1.14h-2.78V-15.6h14.06Zm-2.76-10.32v-3.86h-8.52v3.86Zm0,6.4V-6.74h-8.52v3.96Zm6.86,4.24q4.06-4.38,4.06-9.06t-4.06-9.06l2.78-.68a14.553,14.553,0,0,1,3.17,4.57,12.745,12.745,0,0,1,1.13,5.17,12.633,12.633,0,0,1-1.12,5.14,14.593,14.593,0,0,1-3.18,4.6Z" transform="translate(244 2468.977)" fill="#fce01d"/>
        <path id="パス_4319" data-name="パス 4319" d="M5.256-.709A.671.671,0,0,1,5.461-1.2a.671.671,0,0,1,.492-.205.671.671,0,0,1,.492.205.671.671,0,0,1,.205.492.671.671,0,0,1-.205.492.671.671,0,0,1-.492.205.671.671,0,0,1-.492-.205A.671.671,0,0,1,5.256-.709ZM8.965-4.271a.671.671,0,0,1,.205-.492.671.671,0,0,1,.492-.205.662.662,0,0,1,.489.205.676.676,0,0,1,.2.492.676.676,0,0,1-.2.492.662.662,0,0,1-.489.205.671.671,0,0,1-.492-.205A.671.671,0,0,1,8.965-4.271Zm-7.43,0a.671.671,0,0,1,.205-.492.671.671,0,0,1,.492-.205.671.671,0,0,1,.492.205.671.671,0,0,1,.205.492.671.671,0,0,1-.205.492.671.671,0,0,1-.492.205.671.671,0,0,1-.492-.205A.671.671,0,0,1,1.535-4.271Zm3.721-3.6a.671.671,0,0,1,.205-.492.671.671,0,0,1,.492-.205.671.671,0,0,1,.492.205.671.671,0,0,1,.205.492.662.662,0,0,1-.205.489.676.676,0,0,1-.492.2.676.676,0,0,1-.492-.2A.662.662,0,0,1,5.256-7.869ZM10.43-.158l-.41.387L6-3.814,1.98.24,1.57-.146l4.008-4.1L1.535-8.338l.41-.387L6-4.617l4.02-4.154.41.381L6.387-4.248ZM18.762,0H12.855V-1.143q.938-.809,2.106-1.881A12.178,12.178,0,0,0,16.7-4.91a2.832,2.832,0,0,0,.568-1.629,1.394,1.394,0,0,0-.478-1.125,1.944,1.944,0,0,0-1.3-.4,4.26,4.26,0,0,0-2.361.762h-.059V-8.449a5.643,5.643,0,0,1,2.449-.562,3.161,3.161,0,0,1,2.1.647A2.189,2.189,0,0,1,18.393-6.6a3.346,3.346,0,0,1-.2,1.143,3.68,3.68,0,0,1-.612,1.061,14.019,14.019,0,0,1-1,1.1q-.58.58-2.666,2.355h4.84Zm4.424.182A2.546,2.546,0,0,1,20.895-.932a6.453,6.453,0,0,1-.732-3.475,6.464,6.464,0,0,1,.735-3.48,2.543,2.543,0,0,1,2.288-1.119,2.537,2.537,0,0,1,2.279,1.122A6.418,6.418,0,0,1,26.2-4.418a6.483,6.483,0,0,1-.732,3.483A2.538,2.538,0,0,1,23.186.182Zm0-8.291a1.546,1.546,0,0,0-1.453.794,6.478,6.478,0,0,0-.451,2.909,6.443,6.443,0,0,0,.451,2.895,1.545,1.545,0,0,0,1.453.8,1.538,1.538,0,0,0,1.45-.8,6.517,6.517,0,0,0,.448-2.906,6.53,6.53,0,0,0-.445-2.88A1.531,1.531,0,0,0,23.186-8.109ZM33.668,0H27.762V-1.143q.938-.809,2.106-1.881A12.178,12.178,0,0,0,31.605-4.91a2.832,2.832,0,0,0,.568-1.629A1.394,1.394,0,0,0,31.7-7.664a1.944,1.944,0,0,0-1.3-.4,4.26,4.26,0,0,0-2.361.762h-.059V-8.449a5.643,5.643,0,0,1,2.449-.562,3.161,3.161,0,0,1,2.1.647A2.189,2.189,0,0,1,33.3-6.6a3.346,3.346,0,0,1-.2,1.143,3.68,3.68,0,0,1-.612,1.061,14.019,14.019,0,0,1-1,1.1q-.58.58-2.666,2.355h4.84ZM35.25-.369V-1.547h.094A4.409,4.409,0,0,0,37.8-.762a2.159,2.159,0,0,0,1.5-.51,1.812,1.812,0,0,0,.565-1.418,1.5,1.5,0,0,0-.492-1.242,2.538,2.538,0,0,0-1.594-.4h-.516v-.9h.4a2.432,2.432,0,0,0,1.488-.4A1.339,1.339,0,0,0,39.7-6.773a1.107,1.107,0,0,0-.472-.958,2.2,2.2,0,0,0-1.3-.337,4.276,4.276,0,0,0-2.361.768H35.5V-8.455a5.705,5.705,0,0,1,2.455-.557,3.414,3.414,0,0,1,2.112.571A1.842,1.842,0,0,1,40.816-6.9a1.874,1.874,0,0,1-.5,1.277A2.21,2.21,0,0,1,39.07-4.9v.094A2.066,2.066,0,0,1,41-2.59,2.536,2.536,0,0,1,40.113-.6a3.321,3.321,0,0,1-2.279.779A6.363,6.363,0,0,1,35.25-.369Zm7.143-1.594v-.744h1.594V-5.842H47.9V-7.934H45.182a10.953,10.953,0,0,1-2.508,2.8l-.551-.527a10.152,10.152,0,0,0,3.059-4.318l.92.17a10.327,10.327,0,0,1-.492,1.148H53v.727H48.82v2.092h3.721v.709H48.82v2.426H53.3v.744H48.82v2.7H47.9v-2.7Zm2.473-.744H47.9V-5.133H44.865ZM64.148,0h-4.7V-.809h1.84v-6.07h-1.84v-.715A2.971,2.971,0,0,0,60.99-7.9a1.2,1.2,0,0,0,.521-.958h.832V-.809h1.8ZM71.6,0H66.9V-.809h1.84v-6.07H66.9v-.715A2.971,2.971,0,0,0,68.443-7.9a1.2,1.2,0,0,0,.521-.958H69.8V-.809h1.8ZM81.791.58H79.963l-.094-.855H81.4q.486,0,.486-.457V-3.311H75.762A7.015,7.015,0,0,1,73.553.615L72.99.105a6.309,6.309,0,0,0,1.436-2.089,8.605,8.605,0,0,0,.568-3.437V-9.557H82.84V-.41A.9.9,0,0,1,82.515.3,1.08,1.08,0,0,1,81.791.58ZM81.885-6.9V-8.848H75.949V-6.9Zm0,2.848V-6.2H75.949v.633a13.511,13.511,0,0,1-.07,1.518ZM91.559,0H85.652V-1.143q.938-.809,2.106-1.881A12.178,12.178,0,0,0,89.5-4.91a2.832,2.832,0,0,0,.568-1.629,1.394,1.394,0,0,0-.478-1.125,1.944,1.944,0,0,0-1.3-.4,4.26,4.26,0,0,0-2.361.762h-.059V-8.449a5.643,5.643,0,0,1,2.449-.562,3.161,3.161,0,0,1,2.1.647A2.189,2.189,0,0,1,91.189-6.6a3.346,3.346,0,0,1-.2,1.143,3.68,3.68,0,0,1-.612,1.061,14.019,14.019,0,0,1-1,1.1q-.58.58-2.666,2.355h4.84Zm6.732-8.854v1.037h-.07a2.589,2.589,0,0,0-1.148-.24A2.7,2.7,0,0,0,95-7.233a3.709,3.709,0,0,0-.9,2.288,4.2,4.2,0,0,1,2.156-.662,3.016,3.016,0,0,1,2.083.712,2.591,2.591,0,0,1,.8,2.042,2.931,2.931,0,0,1-.867,2.18,2.948,2.948,0,0,1-2.156.855,2.8,2.8,0,0,1-2.323-1.04,4.746,4.746,0,0,1-.829-3.015,5.773,5.773,0,0,1,1.11-3.776,3.881,3.881,0,0,1,3.173-1.345A3.333,3.333,0,0,1,98.291-8.854ZM94.1-4.2q-.023.48-.023.58a3.65,3.65,0,0,0,.545,2.153A1.752,1.752,0,0,0,96.129-.7a1.783,1.783,0,0,0,1.389-.554,2.219,2.219,0,0,0,.5-1.55,1.99,1.99,0,0,0-.475-1.365,2.007,2.007,0,0,0-1.576-.539A3.762,3.762,0,0,0,94.1-4.2ZM108.973-.082h-6.7V.5h-.891V-9.3h8.508V.5h-.92Zm0-5.127V-8.566h-6.7v3.357Zm-6.7,4.383h6.7V-4.5h-6.7ZM122.959.85H121.8a8.325,8.325,0,0,1-2.039-5.461,8.363,8.363,0,0,1,2.039-5.455h1.154v.059a6.967,6.967,0,0,0-1.564,2.174,7.5,7.5,0,0,0-.715,3.223,7.56,7.56,0,0,0,.715,3.24A6.967,6.967,0,0,0,122.959.8Zm10.014-.932h-6.7V.5h-.891V-9.3h8.508V.5h-.92Zm0-5.127V-8.566h-6.7v3.357Zm-6.7,4.383h6.7V-4.5h-6.7Zm13.289-3.791A8.325,8.325,0,0,1,137.525.844h-1.148V.8a6.967,6.967,0,0,0,1.564-2.174,7.56,7.56,0,0,0,.715-3.24,7.5,7.5,0,0,0-.715-3.223,6.967,6.967,0,0,0-1.564-2.174v-.064h1.148A8.37,8.37,0,0,1,139.564-4.617Zm19.348-.533a5.382,5.382,0,0,1-.844,1.406,2.474,2.474,0,0,1-1.869.949,3.1,3.1,0,0,1-1.471-.387,13.568,13.568,0,0,1-1.412-.949q-.873-.639-1.066-.75a2.214,2.214,0,0,0-1.1-.3,1.492,1.492,0,0,0-.937.387,3.049,3.049,0,0,0-.732.885q-.211.375-.311.6l-.709-.287a5.318,5.318,0,0,1,.838-1.395,2.489,2.489,0,0,1,1.887-.949,3.165,3.165,0,0,1,1.6.475q.645.439,1.289.885.885.609,1.055.7a2.233,2.233,0,0,0,1.072.3q.92,0,1.67-1.26a3.648,3.648,0,0,0,.287-.615ZM165.961,0h-4.7V-.809h1.84v-6.07h-1.84v-.715A2.971,2.971,0,0,0,162.8-7.9a1.2,1.2,0,0,0,.521-.958h.832V-.809h1.8Zm7.453,0h-4.7V-.809h1.84v-6.07h-1.84v-.715a2.971,2.971,0,0,0,1.541-.308,1.2,1.2,0,0,0,.521-.958h.832V-.809h1.8ZM183.6.58h-1.828l-.094-.855h1.529q.486,0,.486-.457V-3.311h-6.123A7.015,7.015,0,0,1,175.365.615L174.8.105a6.309,6.309,0,0,0,1.436-2.089,8.605,8.605,0,0,0,.568-3.437V-9.557h7.846V-.41a.9.9,0,0,1-.325.709A1.08,1.08,0,0,1,183.6.58ZM183.7-6.9V-8.848h-5.936V-6.9Zm0,2.848V-6.2h-5.936v.633a13.511,13.511,0,0,1-.07,1.518Zm3.8,3.68V-1.547h.094a4.409,4.409,0,0,0,2.461.785,2.159,2.159,0,0,0,1.5-.51,1.812,1.812,0,0,0,.565-1.418,1.5,1.5,0,0,0-.492-1.242,2.538,2.538,0,0,0-1.594-.4h-.516v-.9h.4a2.432,2.432,0,0,0,1.488-.4,1.339,1.339,0,0,0,.539-1.137,1.107,1.107,0,0,0-.472-.958,2.2,2.2,0,0,0-1.3-.337,4.276,4.276,0,0,0-2.361.768h-.064V-8.455a5.705,5.705,0,0,1,2.455-.557,3.414,3.414,0,0,1,2.112.571,1.842,1.842,0,0,1,.747,1.544,1.874,1.874,0,0,1-.5,1.277,2.21,2.21,0,0,1-1.248.715v.094a2.066,2.066,0,0,1,1.928,2.221A2.536,2.536,0,0,1,192.363-.6a3.321,3.321,0,0,1-2.279.779A6.363,6.363,0,0,1,187.5-.369Zm10.295.551A2.546,2.546,0,0,1,195.5-.932a6.453,6.453,0,0,1-.732-3.475,6.464,6.464,0,0,1,.735-3.48,2.543,2.543,0,0,1,2.288-1.119,2.537,2.537,0,0,1,2.279,1.122,6.418,6.418,0,0,1,.738,3.466,6.483,6.483,0,0,1-.732,3.483A2.538,2.538,0,0,1,197.795.182Zm0-8.291a1.546,1.546,0,0,0-1.453.794,6.478,6.478,0,0,0-.451,2.909,6.443,6.443,0,0,0,.451,2.895,1.545,1.545,0,0,0,1.453.8,1.538,1.538,0,0,0,1.45-.8,6.517,6.517,0,0,0,.448-2.906,6.53,6.53,0,0,0-.445-2.88A1.531,1.531,0,0,0,197.795-8.109Zm12.99,8.027h-6.7V.5H203.2V-9.3h8.508V.5h-.92Zm0-5.127V-8.566h-6.7v3.357Zm-6.7,4.383h6.7V-4.5h-6.7ZM224.771.85h-1.154a8.325,8.325,0,0,1-2.039-5.461,8.363,8.363,0,0,1,2.039-5.455h1.154v.059a6.967,6.967,0,0,0-1.564,2.174,7.5,7.5,0,0,0-.715,3.223,7.56,7.56,0,0,0,.715,3.24A6.967,6.967,0,0,0,224.771.8ZM226.008-.6l-.439-.639a12.43,12.43,0,0,0,2.962-2.32,10.852,10.852,0,0,0,2.241-2.994h-4.594V-7.3h4.764V-9.82h.967V-7.3h4.934v.744h-4.9A11.818,11.818,0,0,0,234.507-3.5a14.556,14.556,0,0,0,2.968,2.1l-.609.773a15.206,15.206,0,0,1-2.886-2.147,13.947,13.947,0,0,1-2.095-2.458V.715h-.92V-5.162a14.563,14.563,0,0,1-2.317,2.631A13.565,13.565,0,0,1,226.008-.6Zm15.369-4.014A8.325,8.325,0,0,1,239.338.844h-1.148V.8a6.967,6.967,0,0,0,1.564-2.174,7.56,7.56,0,0,0,.715-3.24,7.5,7.5,0,0,0-.715-3.223,6.967,6.967,0,0,0-1.564-2.174v-.064h1.148A8.37,8.37,0,0,1,241.377-4.617Zm15.75,3.129h-.867V-3.41q0-.34-.018-.58-2.7,1.354-2.7,2.455a.979.979,0,0,0,.6.876,6.33,6.33,0,0,0,2.543.325,24.608,24.608,0,0,0,3.674-.217l.059.85A27.908,27.908,0,0,1,257.2.463a8.694,8.694,0,0,1-3.674-.492,1.544,1.544,0,0,1-.855-1.406,2.331,2.331,0,0,1,.753-1.611,9.645,9.645,0,0,1,2.64-1.723.867.867,0,0,0-.861-.527,5.072,5.072,0,0,0-1.515.255,6.353,6.353,0,0,0-2.013,1.28l-.973.82-.5-.6a10.847,10.847,0,0,0,3.2-3.844h-2.73v-.762h3.053a8.878,8.878,0,0,0,.416-1.406l.973.082a8.887,8.887,0,0,1-.4,1.324h4.354v.762H254.4A12.519,12.519,0,0,1,253.26-5.6l.088.047a3.011,3.011,0,0,1,.9-.284,5.6,5.6,0,0,1,1.037-.138,1.567,1.567,0,0,1,1.553.85l3.451-1.33.387.791q-1.219.4-3.621,1.295a7.21,7.21,0,0,1,.07,1.107Zm15.563-4.7a9.44,9.44,0,0,1-2.01-1.377,8.526,8.526,0,0,1-1.518-1.705,7.622,7.622,0,0,1-1.459,1.74,10.594,10.594,0,0,1-1.9,1.406l-.393-.568A8.6,8.6,0,0,0,267.281-8.2,7.675,7.675,0,0,0,268.6-9.885h1.066a9.478,9.478,0,0,0,3.5,3.035Zm-7.869.076a7.506,7.506,0,0,1,.46.7,3.31,3.31,0,0,1,.41.973,3.944,3.944,0,0,1,.108.873v.023a3.962,3.962,0,0,1-.076.806,2.128,2.128,0,0,1-.226.627,1.408,1.408,0,0,1-.369.428,1.239,1.239,0,0,1-.469.226,3.3,3.3,0,0,1-.712.059h-.316l-.135-.762q.51,0,.729-.015a.641.641,0,0,0,.378-.146.865.865,0,0,0,.246-.434,2.789,2.789,0,0,0,.088-.765,3.942,3.942,0,0,0-.914-2.432v-.012a.632.632,0,0,0-.018-.094.492.492,0,0,1-.023-.094q.205-.492.507-1.474a6.262,6.262,0,0,0,.3-1.216h-1.553V.779h-.844V-9.562h3.293l.182.229q-.141.615-.5,1.761A8.781,8.781,0,0,1,264.82-6.111Zm3.949,6.8h-1.395l-.111-.785h1.113q.469,0,.469-.439V-3.58H266.2v-.709h2.643V-5.977H266.8v-.686h4.969v.686h-1.98v1.688H272.6v.709h-2.812v3.4a.768.768,0,0,1-.293.633A1.126,1.126,0,0,1,268.77.691Zm3.5-.744a13.891,13.891,0,0,1-.926-1.274,11.152,11.152,0,0,1-.791-1.345l.773-.27a7.972,7.972,0,0,0,.7,1.122q.545.771,1.008,1.321Zm-6.527.023-.586-.48a8.635,8.635,0,0,0,1.1-1.163,7.2,7.2,0,0,0,.835-1.257l.832.258a8.569,8.569,0,0,1-.981,1.4A9,9,0,0,1,265.746-.029ZM283.1-.07l-.732.721a30.736,30.736,0,0,0-4.008-3.158q-.4-.252-1.172-.759t-.964-.677a1.419,1.419,0,0,1-.316-.387.9.9,0,0,1-.12-.439A1.38,1.38,0,0,1,276.5-5.83q2.086-1.336,3.129-2.106t2.068-1.69l.721.6A45.906,45.906,0,0,1,277.535-5.5a5.43,5.43,0,0,0-.68.428.355.355,0,0,0-.135.275.3.3,0,0,0,.085.223,8.475,8.475,0,0,0,.712.492q2.355,1.523,3.5,2.355T283.1-.07Z" transform="translate(244 2489.977)" fill="#fce01d"/>
      </g>
    </g>
  </g>
</svg>
