<svg xmlns="http://www.w3.org/2000/svg" width="956.9" height="170.26" viewBox="0 0 956.9 170.26">
  <path id="txt_stars01" d="M-434.14-45.22h-13.37v24.01H-461.3V-58.94h27.16Zm-4.06-4.06v-5.6h-19.04V-25.2h5.74V-49.28Zm67.2-4.34q-1.54,49-45.43,56.28V-6.93q16.59-3.71,24.92-13.93,9.24-11.34,10.01-32.76Zm-36.26,27.79h-10.92a218.523,218.523,0,0,0-9.94-27.51h10.78A239.551,239.551,0,0,1-407.26-25.83Zm98.35-15.54h-47.67v-9.66h47.67Zm5.95,41.09h-59.08V-9.94h59.08Zm43.4-21.7h-9.66a185.9,185.9,0,0,0-5.18-24.43h9.17A173.176,173.176,0,0,1-259.56-21.98Zm18.48-23.03q0,22.12-10.29,33.95Q-261.03.14-280.63,3.15V-5.88q16.31-3.36,23.17-13.02,6.3-8.89,6.3-26.18v-.98h10.08Zm-35.7,23.59h-9.59a162.457,162.457,0,0,0-5.53-24.43h9.17A171.887,171.887,0,0,1-276.78-21.42Zm95.69,5.46Q-193.48.56-219.45,2.59V-6.58q34.51-3.85,37.8-37.66h-26.11a38.186,38.186,0,0,1-8.54,12.95,34.572,34.572,0,0,1-12.88,8.4V-33.11q10.78-7,13.79-20.37h44.66Q-170.73-29.82-181.09-15.96Zm77.7,19.04q-15.26-5.6-23.8-20.51A63.192,63.192,0,0,1-161.07,2.38V-7.28a54.844,54.844,0,0,0,22.4-12.67,49.685,49.685,0,0,0,14.7-23.87h-33.74v-9.45h46.06a61.912,61.912,0,0,1-8.82,26.88q4.69,11.62,17.08,18.83Zm65.52-27.79H-95.13V-34.3h57.26ZM33.25-51.52a7.071,7.071,0,0,1-2.17,5.18,7.071,7.071,0,0,1-5.18,2.17,7.071,7.071,0,0,1-5.18-2.17,7.071,7.071,0,0,1-2.17-5.18,7.071,7.071,0,0,1,2.17-5.18,7.071,7.071,0,0,1,5.18-2.17,7.071,7.071,0,0,1,5.18,2.17A7.071,7.071,0,0,1,33.25-51.52ZM29.4,3.15Q5.95-9.38,5.95-50.26v-4.27H16.31v4.48q0,29.26,13.09,41.93ZM-6.23-50.33q0,41.02-23.45,53.55V-8.05q13.16-12.74,13.16-42.07v-4.41H-6.23Zm35.42-1.19a3.16,3.16,0,0,0-.98-2.31,3.16,3.16,0,0,0-2.31-.98,3.047,3.047,0,0,0-2.275.98,3.218,3.218,0,0,0-.945,2.31,3.218,3.218,0,0,0,.945,2.31,3.047,3.047,0,0,0,2.275.98,3.16,3.16,0,0,0,2.31-.98A3.16,3.16,0,0,0,29.19-51.52ZM95.13-24.71H37.87V-34.3H95.13ZM162.61,3.08q-15.26-5.6-23.8-20.51A63.192,63.192,0,0,1,104.93,2.38V-7.28a54.844,54.844,0,0,0,22.4-12.67,49.685,49.685,0,0,0,14.7-23.87H108.29v-9.45h46.06a61.911,61.911,0,0,1-8.82,26.88q4.69,11.62,17.08,18.83Zm65.66-57.12q0,20.72-8.47,34.44Q207.9-.35,177.66,2.73V-6.51q21.42-2.87,31.08-15.12a216.206,216.206,0,0,0-26.67-4.48v-7.35a39.161,39.161,0,0,1-12.6,8.75V-35a29.163,29.163,0,0,0,8.225-7.84,41.981,41.981,0,0,0,5.845-11.2ZM217.21-44.8H190.26a46.485,46.485,0,0,1-6.72,9.73,239.2,239.2,0,0,1,30.1,5.04A53.142,53.142,0,0,0,217.21-44.8Zm77.42,20.09H237.37V-34.3h57.26Zm71.05-23.66h-5.67V-58.73h5.67ZM361.62,3.08q-15.19-5.53-23.73-20.51A63.193,63.193,0,0,1,304.01,2.38V-7.28a54.844,54.844,0,0,0,22.4-12.67,49.685,49.685,0,0,0,14.7-23.87H307.3v-9.45h44.24v-5.46h5.74v10.36h-4.55a61.619,61.619,0,0,1-8.19,21.98q4.69,11.62,17.08,18.83ZM394.8,5.74H367.64V-8.05h13.37V-32.06H394.8Zm-4.06-4.06V-28h-5.67V-3.92H371.7v5.6ZM495.6-27.37q0,14.42-8.96,22.26-7.77,6.79-20.09,7.28V-7.07q8.19-.91,13.23-5.53,5.88-5.46,5.88-15.19a16.7,16.7,0,0,0-3.43-10.57,17.07,17.07,0,0,0-10.29-6.23q-3.43,25.9-10.22,37.03Q457.59-.77,450.87-.77q-5.74,0-10.22-5.74-4.97-6.3-4.97-16.1,0-13.23,8.61-22.19,8.89-9.17,22.89-9.17,13.16,0,20.93,7.49Q495.6-39.2,495.6-27.37Zm-33.18-17.5a19.35,19.35,0,0,0-13.02,7.84,23.8,23.8,0,0,0-4.55,14.42,17.165,17.165,0,0,0,2.17,8.82q1.89,3.22,3.71,3.22,2.31,0,5.18-6.51Q460.11-26.74,462.42-44.87ZM-270.9,63.37h-26.46v-8.4h9.03V48.39h9.52v6.58h7.91Zm-1.47,10.71h-22.75V66.66h22.75Zm0,10.22h-22.75V77.09h22.75Zm.7,24.29h-15.26v2.73h-9.03V87.73h24.29Zm-8.47-7.98V95.15h-7v5.46Zm25.97-42.28-3.78,1.33h7.49q2.45-6.3,3.99-11.83l8.75,2.1q-1.61,4.76-3.78,9.73h7.49v8.26h-13.58v5.74h11.2v7.91h-11.2v6.09h14.49v8.47h-14.49v14.63h-9.03V96.13H-270.2V87.66h13.58V81.57h-10.92V73.66h10.92V67.92h-13.23V59.66h7.21q-2.1-5.39-3.99-9.17l8.47-2.38A92.351,92.351,0,0,1-254.17,58.33Zm83.3,15.68q-.84,16.94-8.575,25.935t-21.175,9q-22.82,0-22.82-21.49V51.26h9.66V87.17q0,12.25,13.23,12.25,17.99,0,19.81-25.41Zm67.48,27.51h-9.94a107.184,107.184,0,0,0-2.31-24.15,71.265,71.265,0,0,0-9.59-22.33h10.99a68.01,68.01,0,0,1,7.98,19.11A114.046,114.046,0,0,1-103.39,101.52Zm-25.97.84q-7.7,5.53-14.77,5.53-16.1,0-16.1-28a139.925,139.925,0,0,1,2.66-26.18h9.94a134.507,134.507,0,0,0-3.01,27.3q0,16.94,7.77,16.94,4.83,0,13.51-7Zm91.07,1.47q0,3.64-1.54,5.215t-5.18,1.575h-7.7l-1.89-6.79h5.39a1.95,1.95,0,0,0,2.17-2.24V99.91H-63.63v10.92h-8.75V78.14h34.09Zm-8.75-17.5V84.09H-63.63v2.24Zm0,7.77V91.72H-63.63V94.1ZM-90.58,60.22a134.834,134.834,0,0,1-3.01,20.72l-7-3.85a120.945,120.945,0,0,0,3.22-18.97Zm9.52,50.54h-8.75V48.25h8.75v9.31l3.15-1.54a136.41,136.41,0,0,1,4.55,13.09h13.23V66.94H-72.87V60.85h12.74V58.82H-74.76V52.1h14.63V48.04h9.1V52.1h15.12v6.72H-51.03v2.03h12.88v6.09H-51.03v2.17H-34.3v7H-76.02V72.12l-2.8,1.47q-.98-4.41-2.24-8.61ZM16.66,79.05a34.988,34.988,0,0,0,3.29,10.22,39.719,39.719,0,0,0,3.36-10.22ZM15.61,96.69A48.071,48.071,0,0,1,9.73,79.05h-.7v24.92A43.8,43.8,0,0,0,15.61,96.69Zm17.71,7.21-5.53,7a52.668,52.668,0,0,1-7.42-7.35,72.241,72.241,0,0,1-5.81,7.28l-5.53-4.34v4.41H.91V49.72H30.38V61.2q0,4.55-1.47,6.09t-5.32,1.54H15.26l-1.75-7H19.6q1.82,0,2.1-.84a2.984,2.984,0,0,0,.14-1.05V57.77H9.66V71.49H30.94v6.58a55.313,55.313,0,0,1-6.16,18.34A44.165,44.165,0,0,0,33.32,103.9ZM-17.22,80.31H-14a53.279,53.279,0,0,0,2.03-6.93H-18.9Q-17.99,76.74-17.22,80.31Zm16.03,8.05h-9.73v4.48H-2.1v7.84h-8.82V110.9H-19.6V100.68H-30.03V92.84H-19.6V88.36H-30.66V80.31h5.39q-.98-3.99-1.96-6.93h-3.78V65.54H-19.6V61.06h-9.31V53.43h9.31v-4.9h8.68v4.9h8.89v7.63h-8.89v4.48H-.84v7.84H-3.92a63.714,63.714,0,0,1-2.17,6.93h4.9Zm98.49,14.7a62.994,62.994,0,0,0-10.64-7.7q-.98,13.58-16.52,13.58-7.63,0-12.11-3.36-4.97-3.78-4.97-10.85a12.035,12.035,0,0,1,4.48-9.555q4.48-3.815,12.11-3.815a37.051,37.051,0,0,1,7.63.84V69.39H54.53V60.57H77.28V50.42h9.45V60.57h9.8v8.82h-9.8V85.35A56.127,56.127,0,0,1,97.3,91.58ZM50.89,50.42q-1.75,20.79-1.75,36.75,0,10.57.63,21.28H40.04q-.35-8.61-.35-21.07,0-20.02,1.54-36.96Zm26.39,42V90.88a22.718,22.718,0,0,0-7.35-1.47,10.472,10.472,0,0,0-5.985,1.505,4.592,4.592,0,0,0-2.2,3.955q0,5.46,8.12,5.46Q77.28,100.33,77.28,92.42Zm79.59-28.49H110.74V54.55h46.13Zm2.73,41.37a157.639,157.639,0,0,1-24.22,1.96q-29.61,0-29.61-16.66,0-8.4,7.7-16.73h12.32q-9.87,8.61-9.87,15.26,0,8.54,19.32,8.54a164.67,164.67,0,0,0,24.36-2.31Zm69.09-38.29H192.5q-3.57,9.8-4.06,10.71a34.97,34.97,0,0,1,18.06-4.69q9.38,0,14.875,4.305A14.023,14.023,0,0,1,226.87,88.99q0,8.96-8.12,14.105t-22.19,5.145a95.989,95.989,0,0,1-19.25-1.82v-9.1a96.952,96.952,0,0,0,18.62,1.89q8.89,0,14.49-2.45,6.37-2.8,6.37-7.98a6.1,6.1,0,0,0-3.185-5.32q-3.185-2.03-8.855-2.03a28.939,28.939,0,0,0-11.27,2.38,26.994,26.994,0,0,0-8.54,5.39H174.86q1.4-3.57,7.77-22.19H170.45V58.26h15.19q2.1-6.37,2.59-8.05h10.22q-.35,1.12-2.8,8.05h33.04Zm59.08-5.32q-20.58-1.54-43.61-1.54V51.33q24.43,0,43.61,1.26Zm7.14,25.76a17.228,17.228,0,0,1-8.085,15.19q-8.085,5.39-22.995,5.39a128.7,128.7,0,0,1-17.36-1.19V97.6A118.223,118.223,0,0,0,263.48,99q9.31,0,15.05-2.87,6.16-3.01,6.16-8.47a6.893,6.893,0,0,0-3.08-5.95q-3.29-2.38-9.31-2.38a32.379,32.379,0,0,0-15.05,3.57,29.623,29.623,0,0,0-9.38,7.21h-8.68l2.94-27.02h9.66l-2.17,14.77q9.45-7.28,23.03-7.28,10.92,0,16.8,4.76A14.844,14.844,0,0,1,294.91,87.45Z" transform="translate(461.3 58.939)" fill="#fdfdfd"/>
</svg>
