<svg xmlns="http://www.w3.org/2000/svg" xmlns:xlink="http://www.w3.org/1999/xlink" width="750" height="461" viewBox="0 0 750 461">
  <defs>
    <clipPath id="clip-path">
      <rect id="長方形_4439" data-name="長方形 4439" width="750" height="461" transform="translate(0 2077)" fill="#fff" stroke="#707070" stroke-width="1"/>
    </clipPath>
    <filter id="パス_1373" x="3.911" y="18.701" width="921.019" height="413.07" filterUnits="userSpaceOnUse">
      <feOffset dx="10" dy="10" input="SourceAlpha"/>
      <feGaussianBlur stdDeviation="10" result="blur"/>
      <feFlood flood-opacity="0.161"/>
      <feComposite operator="in" in2="blur"/>
      <feComposite in="SourceGraphic"/>
    </filter>
    <filter id="パス_1374" x="54.878" y="99.438" width="841.526" height="311.271" filterUnits="userSpaceOnUse">
      <feOffset dx="3" dy="10" input="SourceAlpha"/>
      <feGaussianBlur stdDeviation="3" result="blur-2"/>
      <feFlood flood-opacity="0.161"/>
      <feComposite operator="in" in2="blur-2"/>
      <feComposite in="SourceGraphic"/>
    </filter>
    <filter id="パス_1375" x="38.946" y="22.354" width="861.292" height="367.786" filterUnits="userSpaceOnUse">
      <feOffset dy="10" input="SourceAlpha"/>
      <feGaussianBlur stdDeviation="5" result="blur-3"/>
      <feFlood flood-opacity="0.161"/>
      <feComposite operator="in" in2="blur-3"/>
      <feComposite in="SourceGraphic"/>
    </filter>
  </defs>
  <g id="txt_timezone01_sp" transform="translate(0 -2077)" clip-path="url(#clip-path)">
    <g id="zone_date" data-name="zone date" transform="translate(0 -72.977)">
      <g id="グループ_824" data-name="グループ 824" transform="translate(721.911 14903.917)">
        <g transform="matrix(1, 0, 0, 1, -721.91, -12753.94)" filter="url(#パス_1373)">
          <path id="パス_1373-2" data-name="パス 1373" d="M134.306,0,811.019,9.3V353.07L-50,343.767Z" transform="translate(73.91 38.7)" fill="#00b0e1"/>
        </g>
        <g transform="matrix(1, 0, 0, 1, -721.91, -12753.94)" filter="url(#パス_1374)">
          <path id="パス_1374-2" data-name="パス 1374" d="M128.57,0H773.526V292.271H-50Z" transform="translate(110.88 99.44)" fill="#fff"/>
        </g>
        <g transform="matrix(1, 0, 0, 1, -721.91, -12753.94)" filter="url(#パス_1375)">
          <path id="パス_1375-2" data-name="パス 1375" d="M129.476,0H781.292V337.786H-50Z" transform="translate(103.95 27.35)" fill="#0073be"/>
        </g>
      </g>
      <g id="グループ_825" data-name="グループ 825" transform="translate(-615.6 1016.39)">
        <g id="グループ_473" data-name="グループ 473" transform="translate(891 1134)">
          <rect id="長方形_2501" data-name="長方形 2501" width="431.02" height="61.574" transform="translate(0 0)" fill="#0f1721"/>
          <path id="長方形_2502" data-name="長方形 2502" d="M3,3V48.722H415.7V3H3M0,0H418.7V51.722H0Z" transform="translate(6.157 4.926)" fill="#fdfdfd"/>
        </g>
        <path id="パス_2533" data-name="パス 2533" d="M11.021-10.85,7.106-9.176A87.068,87.068,0,0,0,1.727-19.6l3.56-1.7q2.544,4.232,3.118,5.32T11.021-10.85Zm13.25-9.914a49.649,49.649,0,0,1-1.114,7.7,19.773,19.773,0,0,1-2.986,6.4,17.034,17.034,0,0,1-5.979,5.346A26.09,26.09,0,0,1,5.128,1.49l-1.16-3.4a24.075,24.075,0,0,0,8.464-2.815A13.931,13.931,0,0,0,17.824-10.5q1.938-3.751,2.4-10.606Zm26.921,5.616H29.966V-18.76H51.192ZM52.708-.105H28.16V-3.863H52.708ZM78.3.923q-4.166.356-8.016.356A46.2,46.2,0,0,1,62.82.9a7.885,7.885,0,0,1-4.1-1.971,5.133,5.133,0,0,1-1.49-3.843q0-4.522,6.618-7.726-.422-4.548-.448-9.176h3.836l-.013,1.187v.4q0,2.927.185,6.078,3.045-1.147,9.031-2.848l1.107,3.3a68.612,68.612,0,0,0-12.36,4.2Q60.9-7.409,60.9-5.01q0,2.927,6.447,2.927h1.226a93.236,93.236,0,0,0,9.571-.567ZM99.734-8.609H91.521a31.019,31.019,0,0,0-.5,4.1q0,2.624,5.023,2.624,3.942,0,5.221-.8a2.479,2.479,0,0,0,1.279-2.208,13.461,13.461,0,0,0-1.727-6.289l3.217-.883a15.284,15.284,0,0,1,2.32,7.3q0,6.144-10.31,6.144a11.879,11.879,0,0,1-6.493-1.5,4.933,4.933,0,0,1-2.314-4.417A31.3,31.3,0,0,1,87.7-8.609H82.6v-3.23h5.643Q88.5-13.2,88.9-15.1H83v-3.151h6.618q.541-2.268,1.015-3.863l3.836.29-.9,3.573h10.745V-15.1H92.8l-.712,3.256h7.646ZM134.275-7.4,123.926-6.328l.686,7.765-4.061.316L119.9-5.919,109.266-4.825l-.369-3.52L119.6-9.426l-.409-4.693-9.11.817-.25-3.52,9.07-.778-.369-4.324,3.995-.343.382,4.324,8.82-.765.33,3.454-8.846.778.4,4.627,10.31-1.107ZM148.2,1.358l-3.283.369-2.558-12.8-4.522.633-.461-2.979,4.4-.58-.9-4.5,3.217-.343.9,4.417,12.116-1.608,1.6,1.266a21.16,21.16,0,0,1-6.935,9.848l-2.241-2.043a19,19,0,0,0,4.746-5.774l-8.688,1.213Zm29.281-16.967-2.413,3.27q-1.951-1.252-3.461-2.109t-6.823-3.533L166.865-21A85.967,85.967,0,0,1,177.478-15.609Zm10.692,3.217a24.042,24.042,0,0,1-8.741,9.426,32.367,32.367,0,0,1-13.645,4.047l-.9-3.691A35.632,35.632,0,0,0,172.4-3.981a19.85,19.85,0,0,0,5.267-2.525,26.577,26.577,0,0,0,3.85-3.177,25.691,25.691,0,0,0,3.487-4.819Zm27.751,8.556-2.4,3.942q-4.4-4.838-7.066-7.6t-3.7-3.942q-1.035-1.18-2.656-2.92a.367.367,0,0,0-.158-.026.329.329,0,0,0-.145.026q-.053.026-1.055,1.411t-2.518,3.612l-4.113,5.906-2.953-2.729q6.7-9.7,7.772-10.9a3.66,3.66,0,0,1,2.867-1.2,4.389,4.389,0,0,1,1.384.218,3.92,3.92,0,0,1,1.14.58q.481.363,2.314,2.221l4.337,4.43Q211.293-8.543,215.921-3.836ZM212.81-17.323a2.664,2.664,0,0,1-.844,2.024,2.968,2.968,0,0,1-2.123.8,2.968,2.968,0,0,1-2.123-.8,2.664,2.664,0,0,1-.844-2.024,2.664,2.664,0,0,1,.844-2.024,2.968,2.968,0,0,1,2.123-.8,2.968,2.968,0,0,1,2.123.8A2.664,2.664,0,0,1,212.81-17.323Zm-1.292,0a1.626,1.626,0,0,0-.481-1.187A1.609,1.609,0,0,0,209.843-19a1.609,1.609,0,0,0-1.193.488,1.626,1.626,0,0,0-.481,1.187,1.626,1.626,0,0,0,.481,1.187,1.609,1.609,0,0,0,1.193.488,1.609,1.609,0,0,0,1.193-.488A1.626,1.626,0,0,0,211.518-17.323Zm30.151,9.11H217.45V-11.72h24.218Zm16.809-7.4-2.413,3.27q-1.951-1.252-3.461-2.109t-6.823-3.533L247.865-21A85.967,85.967,0,0,1,258.478-15.609Zm10.692,3.217a24.042,24.042,0,0,1-8.741,9.426,32.367,32.367,0,0,1-13.645,4.047l-.9-3.691A35.632,35.632,0,0,0,253.4-3.981a19.85,19.85,0,0,0,5.267-2.525,26.577,26.577,0,0,0,3.85-3.177,25.691,25.691,0,0,0,3.487-4.819ZM295.115-1.134a2.117,2.117,0,0,1-.87,1.72,3.243,3.243,0,0,1-2.083.692H289.09l-.356-3.006h2.083a.866.866,0,0,0,.573-.218.674.674,0,0,0,.257-.534V-12.959H284.37v-9.018h10.745ZM287.653-18.22h3.995v-1.648h-3.995Zm3.995,1.542h-3.995v1.7h3.995Zm-9.36,3.718H275.26V1.516h-3.48V-21.977h10.507Zm-3.243-5.26v-1.648H275.26v1.648Zm0,3.243v-1.7H275.26v1.7ZM282-4.667a8.577,8.577,0,0,1-1.285,3.283,9.669,9.669,0,0,1-2.881,2.61L275.972-.857a6.4,6.4,0,0,0,2.769-3.81h-2.716v-2.5h2.966V-9.334h-2.452v-2.4h13.579v2.4h-2.294v2.162h2.887v2.5h-2.887V.9h-3.217V-4.667Zm.237-2.5h2.373V-9.334h-2.373Zm21.9,8.609H300.56V-8.635q-.343.58-1.015,1.674l-2.413-1.753A38.9,38.9,0,0,0,300.118-15a37.448,37.448,0,0,0,2.116-7.495l3.573.488a41.727,41.727,0,0,1-2.215,7.343h.541v5.168a22.7,22.7,0,0,0,4.311-6.671h-2.215v-5.511h3.4v2.861h2.979v-3.612h3.454v3.612H318.9v-2.861h3.3v5.511h-5.353l2,.4a19.935,19.935,0,0,1-1.015,1.951h4.9v2.584H317.25v1.411h4.944v2.241H317.25v1.463H322.3v2.241H317.25v1.661h6.025V.409H310.2v.923h-3.48V-7.923A11,11,0,0,1,305.5-6.829l-1.371-1.463Zm7.989-17.257a17.516,17.516,0,0,1-.962,2h3.1q.646-1.345,1.068-2.347h-4.746ZM310.2-11.232v1.411h3.494v-1.411Zm0,3.652v1.463h3.494V-7.581Zm0,3.7v1.661h3.494V-3.876Zm21.252-.25a16.007,16.007,0,0,1-2.32,3.184,13.207,13.207,0,0,1-2.782,2.353L324.185-.778a16.262,16.262,0,0,0,4.087-4.153h-3.4V-7.686h1.806V-17.3h-1.358v-2.65h1.358v-2.241h3.27v2.241h4.1v-2.241h3.27v2.241h1.371v2.65h-1.371v9.611h1.424v2.755h-3.757a22.663,22.663,0,0,0,2.848,3.322L335.457.356a15.356,15.356,0,0,1-3.467-4.535l1.384-.751h-3.625Zm-1.5-13.17v1.753h4.1V-17.3Zm0,3.889v1.859h4.1v-1.859Zm0,5.722h4.1v-1.7h-4.1ZM348.864-.962a1.911,1.911,0,0,1-.712,1.516,2.747,2.747,0,0,1-1.846.606h-2.953l-.369-2.94h1.833a.839.839,0,0,0,.527-.2.589.589,0,0,0,.25-.475V-7.937h-2.874a19.559,19.559,0,0,1-2.848,9.374L337.25-.369a14.29,14.29,0,0,0,1.444-3.085,14.72,14.72,0,0,0,.686-3.2q.152-1.582.152-3.942V-21.9h9.334Zm-3.27-15.28v-3.19H342.76v3.19Zm0,5.88V-13.79H342.76v3.428ZM376.22-1.134a2.123,2.123,0,0,1-.864,1.72,3.216,3.216,0,0,1-2.076.692h-2.65l-.356-3.006h1.648a.891.891,0,0,0,.58-.218.667.667,0,0,0,.264-.534v-10.1h-7.4v-9.4h10.85Zm-7.567-17.007h4.113v-1.674h-4.113Zm4.113,1.78h-4.113v1.7h4.113Zm-9.479,3.784h-7.159V1.516h-3.48V-21.977h10.639Zm-3.243-5.563v-1.674h-3.916v1.674Zm0,3.48v-1.7h-3.916v1.7ZM361.929-.211V.382h-3.375V-11.167h11.351V-.211Zm4.509-6.829V-8.846h-4.509V-7.04Zm-4.509,4.179h4.509V-4.878h-4.509Z" transform="translate(911.935 1174.699)" fill="#fff"/>
      </g>
      <g id="_1st" data-name="1st" transform="translate(223.314 2253.852)">
        <path id="パス_1290" data-name="パス 1290" d="M23.167-12.233H6.632v-4.259H12.72v-16.1L8.362-29.267,5.9-32.761l7.386-5.589h4.392v21.859h5.49Zm18.645-4.751a4.215,4.215,0,0,1-1.89,3.726A8.669,8.669,0,0,1,35-12.06q-5.3,0-7.133-3.833l3.434-1.65A3.809,3.809,0,0,0,35-14.988q2.981,0,2.981-1.65,0-1.091-2.555-1.517a35.035,35.035,0,0,1-4.764-.985A3.571,3.571,0,0,1,28.1-22.653a4.221,4.221,0,0,1,1.757-3.54,8.523,8.523,0,0,1,5.11-1.357q4.924,0,6.734,3.434L38.432-22.6a3.736,3.736,0,0,0-3.673-2.023q-2.795,0-2.795,1.437,0,1.091,2.555,1.464a26.615,26.615,0,0,1,4.738.985A3.784,3.784,0,0,1,41.812-16.984ZM55.041-24.01H50.729v6.734a2.077,2.077,0,0,0,.293,1.357,1.964,1.964,0,0,0,1.3.293h2.635v3.274H51.022a4.7,4.7,0,0,1-3.221-.838,4.291,4.291,0,0,1-.878-3.127V-24.01h-3.3v-3.274h3.3v-4.152h3.806v4.152h4.312Z" transform="translate(-5.9 38.351)" fill="#fce01d"/>
        <path id="パス_1288" data-name="パス 1288" d="M15.016-10.605H2.773v-1.6A10.617,10.617,0,0,1,5.8-16.844q1.831-1.469,3.62-2.96A4.069,4.069,0,0,0,11.2-22.785a1.638,1.638,0,0,0-.607-1.331,2.552,2.552,0,0,0-1.672-.5,3.905,3.905,0,0,0-3.662,2.385l-2.9-1.107Q4.2-27.469,9.075-27.469a5.96,5.96,0,0,1,4.046,1.278,4.175,4.175,0,0,1,1.405,3.3,5.533,5.533,0,0,1-1.469,3.769,24.957,24.957,0,0,1-3.215,2.64,14.457,14.457,0,0,0-3.194,3.024h8.368Zm15.821-8.347q0,8.517-6.431,8.517-6.452,0-6.452-8.517t6.452-8.517Q30.837-27.469,30.837-18.952Zm-3.194,0q0-5.664-3.237-5.664T21.17-18.952q0,5.643,3.237,5.643T27.643-18.952Zm18.844,8.347H34.244v-1.6a10.617,10.617,0,0,1,3.024-4.642q1.831-1.469,3.62-2.96a4.069,4.069,0,0,0,1.789-2.981,1.638,1.638,0,0,0-.607-1.331,2.552,2.552,0,0,0-1.672-.5,3.905,3.905,0,0,0-3.662,2.385l-2.9-1.107q1.831-4.131,6.707-4.131a5.96,5.96,0,0,1,4.046,1.278A4.175,4.175,0,0,1,46-22.891a5.533,5.533,0,0,1-1.469,3.769,24.956,24.956,0,0,1-3.215,2.64,14.457,14.457,0,0,0-3.194,3.024h8.368Zm15.842-4.94A4.485,4.485,0,0,1,60.5-11.627a7.684,7.684,0,0,1-4.557,1.192,9.021,9.021,0,0,1-3.854-.724,6.449,6.449,0,0,1-2.938-2.875l2.96-1.491A4.191,4.191,0,0,0,55.75-13.16a3.912,3.912,0,0,0,2.6-.745,2.191,2.191,0,0,0,.767-1.746,1.918,1.918,0,0,0-.937-1.682,4.779,4.779,0,0,0-2.64-.618H52.812v-2.662h2.64a3.848,3.848,0,0,0,2.385-.639,1.858,1.858,0,0,0,.767-1.533,1.755,1.755,0,0,0-.681-1.427,3.154,3.154,0,0,0-2.023-.554A4.612,4.612,0,0,0,52.024-22.7L49.362-24q2.044-3.471,6.643-3.471a6.79,6.79,0,0,1,4.28,1.214,3.531,3.531,0,0,1,1.427,2.9,4.521,4.521,0,0,1-.671,2.481,3.277,3.277,0,0,1-1.778,1.416,4.059,4.059,0,0,1,2.108,1.256A3.88,3.88,0,0,1,62.33-15.545Zm5.941-5.962h5.813v-2.406H69.953Q69.1-22.572,68.27-21.507Zm15.736,7.815H76.916v4.173H74.084v-4.173H64.757v-2.576h3.3v-4.983q-.511.639-.937,1.15l-2.555-1.384a27.862,27.862,0,0,0,4.9-7.24l2.789.6q-.383.83-.83,1.682H83.261v2.534H76.916v2.406H82.26v2.427H76.916v2.811h7.091Zm-9.923-2.576V-19.08H70.8v2.811Zm35.246,5.76H96.1v-3.407h4.871V-26.8l-3.487,2.662-1.97-2.795,5.909-4.472h3.513v17.487h4.392Zm20.6-10.434q0,10.647-8.038,10.647-8.065,0-8.065-10.647t8.065-10.647Q129.93-31.589,129.93-20.943Zm-3.992,0q0-7.08-4.046-7.08t-4.046,7.08q0,7.053,4.046,7.053T125.938-20.943Zm24.035-5.3V-28.9h-9.316v2.662Zm-9.316,5.882h9.316v-2.715h-9.316Zm9.316,3.3h-9.555a16.3,16.3,0,0,1-3.247,8.091l-3.646-1.624a14.293,14.293,0,0,0,2.821-5.323,20.737,20.737,0,0,0,.665-5.616v-10.78h16.635v18.765q0,2.582-.945,3.394a5.538,5.538,0,0,1-3.5.812h-3.46l-1.171-3.434h3.966q1.091,0,1.3-.506a2.4,2.4,0,0,0,.133-.932Zm25.312,6.548H162.056v-3.407h4.871V-26.8l-3.487,2.662-1.97-2.795L167.38-31.4h3.513v17.487h4.392Zm20.229-17.247a95,95,0,0,0-9.076,17.247h-4.764a124,124,0,0,1,9.342-17.247h-10.7v-3.567h15.2Zm24.86,18.285H216.7v-1.81H205.361v1.81h-3.7V-31.749h18.711ZM216.7-23.205v-5.137H205.361v5.137Zm0,8.517v-5.27H205.361v5.27Zm27.623,5.254-2.96.724a15.537,15.537,0,0,1-3.386-4.9,13.45,13.45,0,0,1-1.192-5.472,13.569,13.569,0,0,1,1.2-5.5,15.5,15.5,0,0,1,3.375-4.865l2.96.724Q240-24.062,240-19.08T244.323-9.434Zm21.187-15.2a28.768,28.768,0,0,1-3.173,5.749L259.782-20.1a26.523,26.523,0,0,0,3.109-5.749Zm-12.925,4.791-2.683.958a39.214,39.214,0,0,0-2.7-5.749l2.619-.916A37.069,37.069,0,0,1,252.585-19.846Zm5.132-2.044v.234q1.533,6.792,8.432,10.008l-1.81,2.3a16.429,16.429,0,0,1-7.815-7.687,15.62,15.62,0,0,1-3.471,4.472A19.149,19.149,0,0,1,248.3-9.391l-1.874-2.214a16.093,16.093,0,0,0,6.164-4.482A9.235,9.235,0,0,0,254.778-22v-6.388h2.938ZM268.107-9.434q4.322-4.663,4.323-9.646t-4.323-9.646l2.96-.724a15.5,15.5,0,0,1,3.375,4.865,13.569,13.569,0,0,1,1.2,5.5,13.45,13.45,0,0,1-1.192,5.472,15.537,15.537,0,0,1-3.386,4.9Zm40.01-9.582a7.91,7.91,0,0,1-5.494,2.7,9.242,9.242,0,0,1-4.791-1.746,5.486,5.486,0,0,0-2.875-1.022,4.7,4.7,0,0,0-3.684,2.108l-1.746-2.576A7.866,7.866,0,0,1,295-22.231a9.232,9.232,0,0,1,4.791,1.725,5.6,5.6,0,0,0,2.9,1.043,4.7,4.7,0,0,0,3.684-2.108Zm18.72,8.519H313.278v-3.492h4.993v-13.2L314.7-24.466l-2.019-2.865,6.057-4.583h3.6v17.924h4.5Zm21.116-10.694q0,10.913-8.239,10.913-8.266,0-8.266-10.913T339.714-32.1Q347.953-32.1,347.953-21.192Zm-4.092,0q0-7.257-4.147-7.257t-4.147,7.257q0,7.23,4.147,7.23T343.861-21.192ZM368.5-26.621v-2.728h-9.549v2.728Zm-9.549,6.029H368.5v-2.783h-9.549Zm9.549,3.383H358.7a16.71,16.71,0,0,1-3.328,8.294l-3.738-1.664a14.651,14.651,0,0,0,2.892-5.456,21.256,21.256,0,0,0,.682-5.756V-32.841h17.051v19.234q0,2.646-.968,3.478a5.676,5.676,0,0,1-3.588.832h-3.547l-1.2-3.519h4.065q1.119,0,1.337-.518a2.462,2.462,0,0,0,.136-.955ZM395.288-10.5H379.6v-2.046a13.6,13.6,0,0,1,3.874-5.947q2.346-1.882,4.638-3.792T390.4-26.1a2.1,2.1,0,0,0-.778-1.705,3.27,3.27,0,0,0-2.142-.641,5,5,0,0,0-4.693,3.056l-3.71-1.419q2.346-5.293,8.594-5.293a7.637,7.637,0,0,1,5.184,1.637,5.349,5.349,0,0,1,1.8,4.229,7.09,7.09,0,0,1-1.882,4.829,31.975,31.975,0,0,1-4.12,3.383,18.523,18.523,0,0,0-4.092,3.874h10.722Zm20.161,0H399.762v-2.046a13.6,13.6,0,0,1,3.874-5.947q2.346-1.882,4.638-3.792t2.292-3.819a2.1,2.1,0,0,0-.778-1.705,3.27,3.27,0,0,0-2.142-.641,5,5,0,0,0-4.693,3.056l-3.71-1.419q2.346-5.293,8.594-5.293a7.637,7.637,0,0,1,5.184,1.637,5.349,5.349,0,0,1,1.8,4.229,7.09,7.09,0,0,1-1.882,4.829,31.983,31.983,0,0,1-4.12,3.383,18.524,18.524,0,0,0-4.092,3.874h10.722Zm25.208,1.064h-3.765v-1.855H425.27v1.855h-3.792V-32.268h19.179Zm-3.765-14.077v-5.265H425.27v5.265Zm0,8.73v-5.4H425.27v5.4ZM464.7-9.434l-2.96.724a15.537,15.537,0,0,1-3.386-4.9,13.45,13.45,0,0,1-1.192-5.472,13.569,13.569,0,0,1,1.2-5.5,15.5,15.5,0,0,1,3.375-4.865l2.96.724q-4.323,4.663-4.323,9.646T464.7-9.434Zm19.419-.341h-2.938v-1.448h-9.071v1.448h-2.96V-27.6h14.969Zm-2.938-10.987v-4.11h-9.071v4.11Zm0,6.814v-4.216h-9.071v4.216Zm7.3,4.514q4.323-4.663,4.322-9.646t-4.322-9.646l2.96-.724a15.5,15.5,0,0,1,3.375,4.865,13.569,13.569,0,0,1,1.2,5.5,13.45,13.45,0,0,1-1.192,5.472,15.538,15.538,0,0,1-3.386,4.9Z" transform="translate(-2.368 70.773)" fill="#fce01d"/>
        <path id="パス_1289" data-name="パス 1289" d="M18.2-10.027H2.04v-2.981L12.287-27.594H2.466V-31.16H17.531v2.795L7.337-13.62H18.2ZM39.862-20.594a11.933,11.933,0,0,1-2.449,7.905A8.4,8.4,0,0,1,30.6-9.761a8.437,8.437,0,0,1-6.827-2.928,11.89,11.89,0,0,1-2.462-7.905,11.836,11.836,0,0,1,2.462-7.892A8.455,8.455,0,0,1,30.6-31.4a8.415,8.415,0,0,1,6.814,2.914A11.879,11.879,0,0,1,39.862-20.594Zm-4.1,0q0-3.753-1.491-5.616a4.4,4.4,0,0,0-3.673-1.7,4.477,4.477,0,0,0-3.7,1.7q-1.491,1.863-1.491,5.616T26.9-14.978a4.477,4.477,0,0,0,3.7,1.7,4.4,4.4,0,0,0,3.673-1.7Q35.763-16.841,35.763-20.594ZM60.916-10.027H56.923L48.087-24.134v14.107H44.147V-31.16H48.14l8.81,14.293V-31.16h3.966Zm19.776,0H65.973V-31.16H80.692v3.567H70.019V-22.8h9.4v3.593h-9.4v5.589H80.692Z" transform="translate(75.906 36.025)" fill="#fce01d"/>
      </g>
      <g id="グループ_827" data-name="グループ 827" transform="translate(223.314 2351.117)">
        <path id="パス_1291" data-name="パス 1291" d="M23.463-12.35H4.332v-2.5A16.589,16.589,0,0,1,9.057-22.1q2.861-2.3,5.656-4.625t2.795-4.658a2.559,2.559,0,0,0-.948-2.079,3.988,3.988,0,0,0-2.612-.782,6.1,6.1,0,0,0-5.723,3.726L3.7-32.246Q6.561-38.7,14.18-38.7a9.313,9.313,0,0,1,6.321,2,6.523,6.523,0,0,1,2.2,5.157,8.646,8.646,0,0,1-2.3,5.889,38.994,38.994,0,0,1-5.024,4.126,22.589,22.589,0,0,0-4.991,4.724H23.463ZM41.5-12.47H37.7v-8.837a4.174,4.174,0,0,0-.373-2.023,1.9,1.9,0,0,0-1.783-.852A3.6,3.6,0,0,0,33.2-23.169a4.481,4.481,0,0,0-1.357,1.943v8.757h-3.78V-27.4h3.78v1.81a6.1,6.1,0,0,1,1.943-1.437,6.212,6.212,0,0,1,2.715-.639,4.926,4.926,0,0,1,3.686,1.344A5.424,5.424,0,0,1,41.5-22.371Zm13.867-6.148V-21.28A3.958,3.958,0,0,0,54.2-23.329a3.1,3.1,0,0,0-2.262-1.038q-2.875,0-2.875,4.418,0,4.445,2.875,4.445A3.1,3.1,0,0,0,54.2-16.542,4.1,4.1,0,0,0,55.369-18.618Zm3.806,6.148H55.369v-1.544a5.3,5.3,0,0,1-4.126,1.81,5.286,5.286,0,0,1-4.205-1.89,8.63,8.63,0,0,1-1.81-5.856,8.587,8.587,0,0,1,1.81-5.829,5.286,5.286,0,0,1,4.205-1.89,5.283,5.283,0,0,1,4.126,1.783V-34h3.806Z" transform="translate(-3.7 38.701)" fill="#fce01d"/>
        <path id="パス_1293" data-name="パス 1293" d="M15.016-10.605H2.773v-1.6A10.617,10.617,0,0,1,5.8-16.844q1.831-1.469,3.62-2.96A4.069,4.069,0,0,0,11.2-22.785a1.638,1.638,0,0,0-.607-1.331,2.552,2.552,0,0,0-1.672-.5,3.905,3.905,0,0,0-3.662,2.385l-2.9-1.107Q4.2-27.469,9.075-27.469a5.96,5.96,0,0,1,4.046,1.278,4.175,4.175,0,0,1,1.405,3.3,5.533,5.533,0,0,1-1.469,3.769,24.957,24.957,0,0,1-3.215,2.64,14.457,14.457,0,0,0-3.194,3.024h8.368Zm15.821-8.347q0,8.517-6.431,8.517-6.452,0-6.452-8.517t6.452-8.517Q30.837-27.469,30.837-18.952Zm-3.194,0q0-5.664-3.237-5.664T21.17-18.952q0,5.643,3.237,5.643T27.643-18.952Zm18.844,8.347H34.244v-1.6a10.617,10.617,0,0,1,3.024-4.642q1.831-1.469,3.62-2.96a4.069,4.069,0,0,0,1.789-2.981,1.638,1.638,0,0,0-.607-1.331,2.552,2.552,0,0,0-1.672-.5,3.905,3.905,0,0,0-3.662,2.385l-2.9-1.107q1.831-4.131,6.707-4.131a5.96,5.96,0,0,1,4.046,1.278A4.175,4.175,0,0,1,46-22.891a5.533,5.533,0,0,1-1.469,3.769,24.956,24.956,0,0,1-3.215,2.64,14.457,14.457,0,0,0-3.194,3.024h8.368Zm15.842-4.94A4.485,4.485,0,0,1,60.5-11.627a7.684,7.684,0,0,1-4.557,1.192,9.021,9.021,0,0,1-3.854-.724,6.449,6.449,0,0,1-2.938-2.875l2.96-1.491A4.191,4.191,0,0,0,55.75-13.16a3.912,3.912,0,0,0,2.6-.745,2.191,2.191,0,0,0,.767-1.746,1.918,1.918,0,0,0-.937-1.682,4.779,4.779,0,0,0-2.64-.618H52.812v-2.662h2.64a3.848,3.848,0,0,0,2.385-.639,1.858,1.858,0,0,0,.767-1.533,1.755,1.755,0,0,0-.681-1.427,3.154,3.154,0,0,0-2.023-.554A4.612,4.612,0,0,0,52.024-22.7L49.362-24q2.044-3.471,6.643-3.471a6.79,6.79,0,0,1,4.28,1.214,3.531,3.531,0,0,1,1.427,2.9,4.521,4.521,0,0,1-.671,2.481,3.277,3.277,0,0,1-1.778,1.416,4.059,4.059,0,0,1,2.108,1.256A3.88,3.88,0,0,1,62.33-15.545Zm5.941-5.962h5.813v-2.406H69.953Q69.1-22.572,68.27-21.507Zm15.736,7.815H76.916v4.173H74.084v-4.173H64.757v-2.576h3.3v-4.983q-.511.639-.937,1.15l-2.555-1.384a27.862,27.862,0,0,0,4.9-7.24l2.789.6q-.383.83-.83,1.682H83.261v2.534H76.916v2.406H82.26v2.427H76.916v2.811h7.091Zm-9.923-2.576V-19.08H70.8v2.811Zm35.246,5.76H96.1v-3.407h4.871V-26.8l-3.487,2.662-1.97-2.795,5.909-4.472h3.513v17.487h4.392Zm20.6-10.434q0,10.647-8.038,10.647-8.065,0-8.065-10.647t8.065-10.647Q129.93-31.589,129.93-20.943Zm-3.992,0q0-7.08-4.046-7.08t-4.046,7.08q0,7.053,4.046,7.053T125.938-20.943Zm24.035-5.3V-28.9h-9.316v2.662Zm-9.316,5.882h9.316v-2.715h-9.316Zm9.316,3.3h-9.555a16.3,16.3,0,0,1-3.247,8.091l-3.646-1.624a14.293,14.293,0,0,0,2.821-5.323,20.737,20.737,0,0,0,.665-5.616v-10.78h16.635v18.765q0,2.582-.945,3.394a5.538,5.538,0,0,1-3.5.812h-3.46l-1.171-3.434h3.966q1.091,0,1.3-.506a2.4,2.4,0,0,0,.133-.932Zm25.312,6.548H162.056v-3.407h4.871V-26.8l-3.487,2.662-1.97-2.795L167.38-31.4h3.513v17.487h4.392Zm20.229-17.247a95,95,0,0,0-9.076,17.247h-4.764a124,124,0,0,1,9.342-17.247h-10.7v-3.567h15.2Zm24.86,18.285H216.7v-1.81H205.361v1.81h-3.7V-31.749h18.711ZM216.7-23.205v-5.137H205.361v5.137Zm0,8.517v-5.27H205.361v5.27Zm27.623,5.254-2.96.724a15.537,15.537,0,0,1-3.386-4.9,13.45,13.45,0,0,1-1.192-5.472,13.569,13.569,0,0,1,1.2-5.5,15.5,15.5,0,0,1,3.375-4.865l2.96.724Q240-24.062,240-19.08T244.323-9.434Zm21.187-15.2a28.768,28.768,0,0,1-3.173,5.749L259.782-20.1a26.523,26.523,0,0,0,3.109-5.749Zm-12.925,4.791-2.683.958a39.214,39.214,0,0,0-2.7-5.749l2.619-.916A37.069,37.069,0,0,1,252.585-19.846Zm5.132-2.044v.234q1.533,6.792,8.432,10.008l-1.81,2.3a16.429,16.429,0,0,1-7.815-7.687,15.62,15.62,0,0,1-3.471,4.472A19.149,19.149,0,0,1,248.3-9.391l-1.874-2.214a16.093,16.093,0,0,0,6.164-4.482A9.235,9.235,0,0,0,254.778-22v-6.388h2.938ZM268.107-9.434q4.322-4.663,4.323-9.646t-4.323-9.646l2.96-.724a15.5,15.5,0,0,1,3.375,4.865,13.569,13.569,0,0,1,1.2,5.5,13.45,13.45,0,0,1-1.192,5.472,15.537,15.537,0,0,1-3.386,4.9Zm40.01-9.582a7.91,7.91,0,0,1-5.494,2.7,9.242,9.242,0,0,1-4.791-1.746,5.486,5.486,0,0,0-2.875-1.022,4.7,4.7,0,0,0-3.684,2.108l-1.746-2.576A7.866,7.866,0,0,1,295-22.231a9.232,9.232,0,0,1,4.791,1.725,5.6,5.6,0,0,0,2.9,1.043,4.7,4.7,0,0,0,3.684-2.108Zm18.72,8.519H313.278v-3.492h4.993v-13.2L314.7-24.466l-2.019-2.865,6.057-4.583h3.6v17.924h4.5ZM347-10.5H333.439v-3.492h4.993v-13.2l-3.574,2.728-2.019-2.865,6.057-4.583h3.6v17.924H347Zm21.5-16.124v-2.728h-9.549v2.728Zm-9.549,6.029H368.5v-2.783h-9.549Zm9.549,3.383H358.7a16.71,16.71,0,0,1-3.328,8.294l-3.738-1.664a14.651,14.651,0,0,0,2.892-5.456,21.256,21.256,0,0,0,.682-5.756V-32.841h17.051v19.234q0,2.646-.968,3.478a5.676,5.676,0,0,1-3.588.832h-3.547l-1.2-3.519h4.065q1.119,0,1.337-.518a2.462,2.462,0,0,0,.136-.955ZM394.442-10.5H380.883v-3.492h4.993v-13.2L382.3-24.466l-2.019-2.865,6.057-4.583h3.6v17.924h4.5Zm21.007,0H399.762v-2.046a13.6,13.6,0,0,1,3.874-5.947q2.346-1.882,4.638-3.792t2.292-3.819a2.1,2.1,0,0,0-.778-1.705,3.27,3.27,0,0,0-2.142-.641,5,5,0,0,0-4.693,3.056l-3.71-1.419q2.346-5.293,8.594-5.293a7.637,7.637,0,0,1,5.184,1.637,5.349,5.349,0,0,1,1.8,4.229,7.09,7.09,0,0,1-1.882,4.829,31.983,31.983,0,0,1-4.12,3.383,18.524,18.524,0,0,0-4.092,3.874h10.722Zm25.208,1.064h-3.765v-1.855H425.27v1.855h-3.792V-32.268h19.179Zm-3.765-14.077v-5.265H425.27v5.265Zm0,8.73v-5.4H425.27v5.4ZM464.7-9.434l-2.96.724a15.537,15.537,0,0,1-3.386-4.9,13.45,13.45,0,0,1-1.192-5.472,13.569,13.569,0,0,1,1.2-5.5,15.5,15.5,0,0,1,3.375-4.865l2.96.724q-4.323,4.663-4.323,9.646T464.7-9.434Zm19.419-.341h-2.938v-1.448h-9.071v1.448h-2.96V-27.6h14.969Zm-2.938-10.987v-4.11h-9.071v4.11Zm0,6.814v-4.216h-9.071v4.216Zm7.3,4.514q4.323-4.663,4.322-9.646t-4.322-9.646l2.96-.724a15.5,15.5,0,0,1,3.375,4.865,13.569,13.569,0,0,1,1.2,5.5,13.45,13.45,0,0,1-1.192,5.472,15.538,15.538,0,0,1-3.386,4.9Z" transform="translate(-2.368 70.829)" fill="#fce01d"/>
        <path id="パス_1292" data-name="パス 1292" d="M18.2-10.027H2.04v-2.981L12.287-27.594H2.466V-31.16H17.531v2.795L7.337-13.62H18.2ZM39.862-20.594a11.933,11.933,0,0,1-2.449,7.905A8.4,8.4,0,0,1,30.6-9.761a8.437,8.437,0,0,1-6.827-2.928,11.89,11.89,0,0,1-2.462-7.905,11.836,11.836,0,0,1,2.462-7.892A8.455,8.455,0,0,1,30.6-31.4a8.415,8.415,0,0,1,6.814,2.914A11.879,11.879,0,0,1,39.862-20.594Zm-4.1,0q0-3.753-1.491-5.616a4.4,4.4,0,0,0-3.673-1.7,4.477,4.477,0,0,0-3.7,1.7q-1.491,1.863-1.491,5.616T26.9-14.978a4.477,4.477,0,0,0,3.7,1.7,4.4,4.4,0,0,0,3.673-1.7Q35.763-16.841,35.763-20.594ZM60.916-10.027H56.923L48.087-24.134v14.107H44.147V-31.16H48.14l8.81,14.293V-31.16h3.966Zm19.776,0H65.973V-31.16H80.692v3.567H70.019V-22.8h9.4v3.593h-9.4v5.589H80.692Z" transform="translate(77.37 36.923)" fill="#fce01d"/>
      </g>
      <g id="グループ_828" data-name="グループ 828" transform="translate(223 2448.439)">
        <path id="パス_418" data-name="パス 418" d="M199.624,29h0Z" transform="translate(456.987 7.397)" fill="#fce01d"/>
        <path id="パス_1296" data-name="パス 1296" d="M23.295-20.069a7.008,7.008,0,0,1-2.861,6.122,12.007,12.007,0,0,1-7.12,1.863,14.1,14.1,0,0,1-6.022-1.131A10.076,10.076,0,0,1,2.7-17.706l4.625-2.329q2.229,3.693,5.689,3.693a6.112,6.112,0,0,0,4.059-1.164,3.423,3.423,0,0,0,1.2-2.728,3,3,0,0,0-1.464-2.628,7.467,7.467,0,0,0-4.126-.965H8.423v-4.159h4.126a6.012,6.012,0,0,0,3.726-1,2.9,2.9,0,0,0,1.2-2.4,2.742,2.742,0,0,0-1.065-2.229,4.928,4.928,0,0,0-3.161-.865,7.207,7.207,0,0,0-6.055,3.227L3.033-33.277Q6.227-38.7,13.413-38.7A10.609,10.609,0,0,1,20.1-36.8a5.517,5.517,0,0,1,2.229,4.525A7.064,7.064,0,0,1,21.282-28.4,5.12,5.12,0,0,1,18.5-26.19,6.343,6.343,0,0,1,21.8-24.227,6.062,6.062,0,0,1,23.295-20.069Zm15.1-6.96-1.2,3.646a3.762,3.762,0,0,0-2.289-.745A3.215,3.215,0,0,0,32.65-23.09,4.707,4.707,0,0,0,31.4-21.013v8.544H27.646V-27.4H31.4v1.863a5.114,5.114,0,0,1,4.338-2.1A5.367,5.367,0,0,1,38.4-27.029Zm12,8.411V-21.28a3.958,3.958,0,0,0-1.171-2.049,3.1,3.1,0,0,0-2.262-1.038q-2.875,0-2.875,4.418,0,4.445,2.875,4.445a3.1,3.1,0,0,0,2.262-1.038A4.1,4.1,0,0,0,50.4-18.618ZM54.21-12.47H50.4v-1.544a5.3,5.3,0,0,1-4.126,1.81,5.286,5.286,0,0,1-4.205-1.89,8.63,8.63,0,0,1-1.81-5.856,8.587,8.587,0,0,1,1.81-5.829,5.286,5.286,0,0,1,4.205-1.89A5.283,5.283,0,0,1,50.4-25.884V-34H54.21Z" transform="translate(-2.7 38.699)" fill="#fce01d"/>
        <path id="パス_1295" data-name="パス 1295" d="M18.2-10.027H2.04v-2.981L12.287-27.594H2.466V-31.16H17.531v2.795L7.337-13.62H18.2ZM39.862-20.594a11.933,11.933,0,0,1-2.449,7.905A8.4,8.4,0,0,1,30.6-9.761a8.437,8.437,0,0,1-6.827-2.928,11.89,11.89,0,0,1-2.462-7.905,11.836,11.836,0,0,1,2.462-7.892A8.455,8.455,0,0,1,30.6-31.4a8.415,8.415,0,0,1,6.814,2.914A11.879,11.879,0,0,1,39.862-20.594Zm-4.1,0q0-3.753-1.491-5.616a4.4,4.4,0,0,0-3.673-1.7,4.477,4.477,0,0,0-3.7,1.7q-1.491,1.863-1.491,5.616T26.9-14.978a4.477,4.477,0,0,0,3.7,1.7,4.4,4.4,0,0,0,3.673-1.7Q35.763-16.841,35.763-20.594ZM60.916-10.027H56.923L48.087-24.134v14.107H44.147V-31.16H48.14l8.81,14.293V-31.16h3.966Zm19.776,0H65.973V-31.16H80.692v3.567H70.019V-22.8h9.4v3.593h-9.4v5.589H80.692Z" transform="translate(78.35 36.922)" fill="#fce01d"/>
        <path id="パス_2519" data-name="パス 2519" d="M18.94-.342a9.7,9.7,0,0,1-2.9,4.658,8.721,8.721,0,0,1-5.563,1.624A8.348,8.348,0,0,1,3.689,3.1Q1.32.27,1.32-4.894a11.691,11.691,0,0,1,2.515-7.865A8.4,8.4,0,0,1,10.556-15.7a8.627,8.627,0,0,1,5.35,1.517,8.766,8.766,0,0,1,2.821,4.392L14.974-8.46a5.837,5.837,0,0,0-1.664-2.888,4.2,4.2,0,0,0-2.755-.865,4.421,4.421,0,0,0-3.646,1.7A8.834,8.834,0,0,0,5.392-4.894,9.121,9.121,0,0,0,6.856.749a4.385,4.385,0,0,0,3.673,1.677,4.282,4.282,0,0,0,2.835-.878,6.144,6.144,0,0,0,1.69-3.008ZM40.447-4.894A11.933,11.933,0,0,1,38,3.012a8.4,8.4,0,0,1-6.814,2.928,8.437,8.437,0,0,1-6.827-2.928,11.89,11.89,0,0,1-2.462-7.905,11.836,11.836,0,0,1,2.462-7.892A8.455,8.455,0,0,1,31.184-15.7,8.415,8.415,0,0,1,38-12.785,11.879,11.879,0,0,1,40.447-4.894Zm-4.1,0q0-3.753-1.491-5.616a4.4,4.4,0,0,0-3.673-1.7,4.477,4.477,0,0,0-3.7,1.7q-1.491,1.863-1.491,5.616T27.484.722a4.477,4.477,0,0,0,3.7,1.7,4.4,4.4,0,0,0,3.673-1.7Q36.348-1.141,36.348-4.894ZM66.025,5.673H62.033L61.607-8.114l-4.844,11.5H53.329L48.671-8.008,48.405,5.673H44.466l.745-21.134H49.15L55.086-1.167,61.048-15.46h4.1Zm14.187,0H70.044V2.266h3.061v-14.32H70.124V-15.46H80.159v3.407H77.124V2.266h3.088Zm21.027,0H97.247L88.41-8.434V5.673H84.471V-15.46h3.993l8.81,14.293V-15.46h3.966ZM123.145-9.791,119.392-8.46a5.726,5.726,0,0,0-1.69-2.888,4.349,4.349,0,0,0-2.808-.865,4.5,4.5,0,0,0-3.726,1.7,8.723,8.723,0,0,0-1.544,5.616q0,3.753,1.544,5.616a4.773,4.773,0,0,0,3.886,1.7,8.392,8.392,0,0,0,4.285-1.065V-2.6h-4.152V-5.958h7.985V3.97a17.325,17.325,0,0,1-8.225,1.97A8.716,8.716,0,0,1,107.973,3.1q-2.449-2.835-2.449-8a11.711,11.711,0,0,1,2.5-7.892,8.574,8.574,0,0,1,6.867-2.915,8.745,8.745,0,0,1,5.377,1.517A8.671,8.671,0,0,1,123.145-9.791ZM152.61-.608a5.756,5.756,0,0,1-2.742,5.217,9.026,9.026,0,0,1-4.977,1.331,11.11,11.11,0,0,1-5.27-1.065A8.129,8.129,0,0,1,135.868.057L139.7-1.167a5.517,5.517,0,0,0,2.289,2.981,5.828,5.828,0,0,0,2.9.612,4.063,4.063,0,0,0,2.5-.719,2.382,2.382,0,0,0,.958-2.023A2.231,2.231,0,0,0,147.1-2.338a12.26,12.26,0,0,0-3.034-1.011A20.118,20.118,0,0,1,138.929-5a5.057,5.057,0,0,1-2.555-4.711,5.248,5.248,0,0,1,2.116-4.325,8.766,8.766,0,0,1,5.576-1.664q6.069,0,8.411,4.844L148.83-9.5a4.951,4.951,0,0,0-2.183-2.209,6.3,6.3,0,0,0-2.742-.506,4.038,4.038,0,0,0-2.662.8,2.04,2.04,0,0,0-.8,1.624,2,2,0,0,0,1.065,1.81,10.489,10.489,0,0,0,2.608.852q3.088.692,3.753.9A8.091,8.091,0,0,1,151.2-4.388,5.164,5.164,0,0,1,152.61-.608ZM174.2-4.894a11.933,11.933,0,0,1-2.449,7.905,8.4,8.4,0,0,1-6.814,2.928,8.437,8.437,0,0,1-6.827-2.928,11.89,11.89,0,0,1-2.462-7.905,11.836,11.836,0,0,1,2.462-7.892,8.455,8.455,0,0,1,6.827-2.915,8.415,8.415,0,0,1,6.814,2.915A11.88,11.88,0,0,1,174.2-4.894Zm-4.1,0q0-3.753-1.491-5.616a4.4,4.4,0,0,0-3.673-1.7,4.477,4.477,0,0,0-3.7,1.7q-1.491,1.863-1.491,5.616T161.233.722a4.477,4.477,0,0,0,3.7,1.7,4.4,4.4,0,0,0,3.673-1.7Q170.1-1.141,170.1-4.894Zm26.164,0a11.933,11.933,0,0,1-2.449,7.905A8.4,8.4,0,0,1,187,5.939a8.437,8.437,0,0,1-6.827-2.928,11.89,11.89,0,0,1-2.462-7.905,11.837,11.837,0,0,1,2.462-7.892A8.455,8.455,0,0,1,187-15.7a8.415,8.415,0,0,1,6.814,2.915A11.879,11.879,0,0,1,196.261-4.894Zm-4.1,0q0-3.753-1.491-5.616a4.4,4.4,0,0,0-3.673-1.7,4.477,4.477,0,0,0-3.7,1.7q-1.491,1.863-1.491,5.616T183.3.722a4.477,4.477,0,0,0,3.7,1.7,4.4,4.4,0,0,0,3.673-1.7Q192.162-1.141,192.162-4.894ZM217.315,5.673h-3.993L204.486-8.434V5.673h-3.939V-15.46h3.992l8.81,14.293V-15.46h3.966Z" transform="translate(186.602 21.221)" fill="#fce01d"/>
      </g>
    </g>
  </g>
</svg>
