<svg xmlns="http://www.w3.org/2000/svg" width="498" height="96" viewBox="0 0 498 96">
  <g id="txt_flow01" transform="translate(-671.755 -3335.755)">
    <g id="グループ_343" data-name="グループ 343" transform="translate(672 3336)">
      <rect id="長方形_2501" data-name="長方形 2501" width="498" height="96" rx="48" transform="translate(-0.245 -0.245)" fill="#0f1721"/>
      <path id="長方形_2502" data-name="長方形 2502" d="M40,3A37.011,37.011,0,0,0,25.6,74.094,36.766,36.766,0,0,0,40,77H439A37.011,37.011,0,0,0,453.4,5.906,36.765,36.765,0,0,0,439,3H40m0-3H439a40,40,0,0,1,0,80H40A40,40,0,0,1,40,0Z" transform="translate(9.755 7.755)" fill="#fdfdfd"/>
    </g>
    <path id="パス_1317" data-name="パス 1317" d="M-61.52-3.4l-4.96,2.16a48.078,48.078,0,0,0-5-13l4.64-1.88A46.429,46.429,0,0,1-61.52-3.4Zm-8.44-15.76-2.8,4.2a42.778,42.778,0,0,0-11.2-4.56l2.92-3.92A46.54,46.54,0,0,1-69.96-19.16Zm7.08-4.56h-27.4v5.08a81.664,81.664,0,0,1-.6,11.08A43.226,43.226,0,0,1-93.76,2.8L-99.16.36a28.6,28.6,0,0,0,3-9.4,73.735,73.735,0,0,0,.6-10.68v-9h13.12v-4.12h5.76v4.12h13.8Zm-5.04,18.2q-.2,5.32-1.28,6.64t-4.84,1.32h-3.92a6.139,6.139,0,0,1-3.24-.56q-.88-.68-.88-2.96v-14.6h5.2v12.2a1.8,1.8,0,0,0,.16.94q.16.22.84.22h.96q1.4,0,1.72-.76a21.138,21.138,0,0,0,.4-4.08Zm-15.24-7.8A55.933,55.933,0,0,1-86.08.04l-4.96-1.92a44.7,44.7,0,0,0,3.32-12.6ZM-42.84-.64Q-46.4,2.24-52.88,3.28L-56.84-.6a48.773,48.773,0,0,0,5.96-1.04A13.028,13.028,0,0,0-45.8-3.96h-6.16V-5.6q-2,.92-4.08,1.68L-59.32-7.6a39.242,39.242,0,0,0,8.36-2.92h-7.12v-3.76h12.32q.28-.28,1.04-1.12h-9.56V-25.96h5.48v-1.2h-8.72v-4h8.72v-1.88h5.32v1.88h7.04v-1.88h5.28v1.88h8.72v4h-8.72v1.2h5.84V-15.4H-38.68l-.96,1.12h17.76v3.76h-7.48A50.327,50.327,0,0,0-20.6-7.6l-3.08,3.68q-2-.72-4.04-1.6v2.88q0,3.68-1.44,4.64-1.2.8-5.84.8h-6.64Zm2.92-3.32a13.24,13.24,0,0,1-2.32,2.8h6.44a6.682,6.682,0,0,0,2.08-.2q.84-.36.84-1.76v-.84Zm2.16-5.72a16.817,16.817,0,0,1-.48,1.92h6a50.236,50.236,0,0,1-4.24-2.76h-7.24A43.549,43.549,0,0,1-47.8-7.76h4.68a10.271,10.271,0,0,0,.52-1.92Zm1.32-16.28v-1.2h-7.04v1.2Zm5.84,4.04v-1.16H-49v1.16Zm0,3.8v-1.24H-49v1.24Zm47.8,2.48q0,8.24-5.12,12.72A17.95,17.95,0,0,1,.6,1.24V-4.04A12.966,12.966,0,0,0,8.16-7.2q3.36-3.12,3.36-8.68a9.544,9.544,0,0,0-1.96-6.04,9.754,9.754,0,0,0-5.88-3.56Q1.72-10.68-2.16-4.32-4.52-.44-8.36-.44q-3.28,0-5.84-3.28a14.4,14.4,0,0,1-2.84-9.2A17.59,17.59,0,0,1-12.12-25.6,17.417,17.417,0,0,1,.96-30.84q7.52,0,11.96,4.28A14.541,14.541,0,0,1,17.2-15.64Zm-18.96-10A11.057,11.057,0,0,0-9.2-21.16a13.6,13.6,0,0,0-2.6,8.24,9.809,9.809,0,0,0,1.24,5.04q1.08,1.84,2.12,1.84,1.32,0,2.96-3.72Q-3.08-15.28-1.76-25.64ZM58.4-5.92q0,5.56-.9,7T53.32,2.52H51a3.928,3.928,0,0,1-2.48-.6,3.351,3.351,0,0,1-.96-2.76V-13.68h4.88V-2.96a1.636,1.636,0,0,0,.08.68q.08.24.56.24h.2q.76,0,.88-1.6.08-1.08.08-3.64ZM31.64-27.68l-2.48,3.44a41.363,41.363,0,0,0-7.08-4.2l2.96-4.2a38.319,38.319,0,0,1,6.6,3.8v-.36h9.8v-3.4h5.32v3.4h10.8v4.72H45.04q-1.56,2.72-3.2,5.04,3.72-.2,6.96-.48-1.24-1.6-2.2-2.64l4.52-1.76a60.438,60.438,0,0,1,6.8,8.6l-4.76,2.16q-.48-.8-1.44-2.32-10,1.16-18.48,1.48l-1.36-4.68,4.24-.12a52.863,52.863,0,0,0,3.28-5.28H31.64Zm13.6,29.6H40.6V-13.36h4.64ZM31.56-18.56l-3.04,4.2a37.451,37.451,0,0,0-7.28-4.24l2.88-4.2A41.6,41.6,0,0,1,31.56-18.56Zm6.92,9.92q0,7.56-4.32,11.84L29.36.76a12.864,12.864,0,0,0,3.6-4.8,15.284,15.284,0,0,0,.84-5.6v-3.48h4.68ZM31.36-9.76A52.528,52.528,0,0,1,26,2.28L21.16.04a49.031,49.031,0,0,0,5.8-12.32ZM98.24-1.12A14.412,14.412,0,0,1,92.8.12q-5.72,0-5.72-6.96V-19.12q0-4.36-2.88-4.36-3.24,0-8.64,6.72V1.96H70.2V-10.08A59.806,59.806,0,0,1,63.32-2V-9.48a76.152,76.152,0,0,0,6.88-9v-1.6H63.32V-25.2H70.2v-6.88h5.4V-24q4.88-5.08,9.44-5.08a6.852,6.852,0,0,1,5.84,2.6,9.464,9.464,0,0,1,1.72,5.92V-7.8a3.525,3.525,0,0,0,.24,1.6,1.356,1.356,0,0,0,1.32.6,11.23,11.23,0,0,0,4.08-1.56Z" transform="translate(920.755 3400.756)" fill="#fdfdfd"/>
  </g>
</svg>
