<svg height="84.844" viewBox="0 0 419.469 84.844" width="419.469" xmlns="http://www.w3.org/2000/svg"><path d="m352.256 876.57a89.806 89.806 0 0 1 -4.706 19.23c-1.764-1.5-3.529-3-5.293-4.41 1.176-4.675 2.268-9.7 3.277-14.818h6.722zm5.125-12.084-2.016.352h-7.647c.925-5.468 1.765-10.849 2.353-16.053l-12.184-.882c-.42 5.381-1.092 11.2-2.016 16.935h-6.971v11.732h4.873c-1.428 7.144-3.025 13.759-4.621 19.14 4.033 3.44 8.57 7.5 12.856 11.643a38.823 38.823 0 0 1 -14.621 13.936c2.521 2.294 5.714 7.057 7.395 10.144a52.868 52.868 0 0 0 15.964-15.26 77.322 77.322 0 0 1 7.31 9.174l7.983-11.026a79.153 79.153 0 0 0 -9.075-9.967c4.2-10.144 6.722-22.669 7.9-38.1zm51 18.875h-15.881v-5.468a117.085 117.085 0 0 0 15.3-19.935l-8.151-6.174-2.857.618h-30.756v11.554h22.938a59.96 59.96 0 0 1 -9.158 12.084v7.321h-16.889v12.173h16.889v22.227c0 1.323-.5 1.676-1.933 1.676-1.344 0-6.47 0-10.251-.176a49.737 49.737 0 0 1 4.033 12.26c6.638 0 11.764-.265 15.713-2.117 3.949-1.94 5.125-5.116 5.125-11.378v-22.492h15.881v-12.173zm32.36-21.257c-2.941-3.881-9.243-9.614-13.612-13.583l-7.646 7.762c4.453 4.41 10.419 10.584 13.108 14.642zm-4.117 43.308v-30.871h-20.079v12.259h8.739v24.962a10.193 10.193 0 0 1 -4.033 8.291 39.867 39.867 0 0 1 5.293 10.585c1.512-2.293 4.453-4.939 19.074-18.523a61.66 61.66 0 0 1 -4.37-10.937zm59.4-13.671h-20.324v-28.049h17.477v-12.172h-48.9v12.172h19.074v28.049h-20.758v12.172h20.754v27.432h12.353v-27.432h20.334v-12.172zm-50.824-23.022a109.05 109.05 0 0 1 3.529 19.935l10.84-2.823a118.656 118.656 0 0 0 -4.118-19.67zm43.189 20.287c1.848-5.115 4.117-12.877 6.218-20.287l-11.68-2.469a136.708 136.708 0 0 1 -3.949 20.287zm68.685 7.145a44.042 44.042 0 0 1 -8.319 9.967 43.4 43.4 0 0 1 -8.654-9.967zm9.242-12.878-2.268.529h-22.522c.672-1.94 1.261-3.969 1.849-6.086h35.458l.084-12.172h-14.617l9.579-6.351c-2.185-3.175-6.722-8.291-9.747-11.819l-9.5 5.91c2.941 3.792 7.058 9.085 9.075 12.26h-17.475c1.092-5.2 1.932-10.585 2.6-16.318l-13.7-2.381c-.756 6.615-1.68 12.789-2.941 18.7h-9.578a87.406 87.406 0 0 0 5.629-14.377l-12.771-2.029a72.24 72.24 0 0 1 -6.05 15.7 8.32 8.32 0 0 1 -3.865 3.793c1.26 3.087 3.193 8.732 3.949 11.379.672-1.5 4.7-2.294 8.738-2.294h10.588c-5.378 16.318-14.285 28.843-28.989 36.517a48.421 48.421 0 0 1 8.907 10.5 64.586 64.586 0 0 0 23.022-20.9 57.288 57.288 0 0 0 6.982 9.166 72.2 72.2 0 0 1 -20.249 7.145 48.543 48.543 0 0 1 6.469 11.378 88.788 88.788 0 0 0 23.947-9.879c6.89 4.587 15.125 7.85 25.124 9.879a54.306 54.306 0 0 1 7.646-11.731 78.475 78.475 0 0 1 -21.931-6.527 60.654 60.654 0 0 0 15.125-25.844zm80.12 28.931v6.351h-35.461v-6.355h35.458zm-47.645 19.496h12.184v-3.175h35.458v3.175h12.772v-29.46h-60.414zm12.52-45.425h15.376v3h-15.376zm15.376-18.7h-15.376v-2.735h15.376zm0 10.672h-15.376v-2.647h15.376v2.646zm11.932 11.026v-3h18.821v-8.027h-18.821v-2.646h18.821v-8.026h-18.821v-2.735h23.275v-8.732h-22.939a65.9 65.9 0 0 0 -3.7-8.732l-11.343 3.352c.672 1.676 1.428 3.528 2.016 5.38h-10.584c.84-1.676 1.681-3.44 2.437-5.116l-11.343-3.881c-4.286 10.056-11.68 20.2-19.158 26.462a87.259 87.259 0 0 1 8.066 10.231c1.345-1.235 2.605-2.646 3.949-4.057v21.434h12.016v-2.646h52.767v-9.262h-25.459zm79.138 2.558v-16.496h16.216v16.494h-16.216zm-29.073 0v-16.496h16.133v16.494h-16.133zm29.073-29.108v-15.084h-12.94v15.082h-28.4v46.308h12.267v-4.587h16.133v26.991h12.94v-26.991h16.216v4.146h12.856v-45.867h-29.072z" fill="#fff" fill-rule="evenodd" transform="translate(-327.375 -846.844)"/></svg>