<svg id="on_release_04_sp.svg" xmlns="http://www.w3.org/2000/svg" width="247.062" height="82.44" viewBox="0 0 247.062 82.44">
  <defs>
    <style>
      .cls-1 {
        fill: #fff;
        fill-rule: evenodd;
      }
    </style>
  </defs>
  <path id="好评发布中" class="cls-1" d="M32.925,2009.59a53.87,53.87,0,0,1-2.823,11.53c-1.058-.9-2.117-1.8-3.176-2.64,0.706-2.81,1.361-5.82,1.966-8.89h4.033ZM36,2002.34l-1.21.21H30.2c0.555-3.28,1.059-6.51,1.412-9.63l-7.309-.53c-0.252,3.23-.655,6.72-1.21,10.16H18.912v7.04h2.924c-0.857,4.28-1.815,8.25-2.773,11.48,2.42,2.06,5.142,4.5,7.712,6.98A23.284,23.284,0,0,1,18,2036.41a27.786,27.786,0,0,1,4.436,6.09,31.686,31.686,0,0,0,9.577-9.16,46.66,46.66,0,0,1,4.386,5.51l4.789-6.62a47.649,47.649,0,0,0-5.444-5.98c2.52-6.08,4.033-13.59,4.738-22.85Zm30.6,11.32H57.07v-3.28a70.017,70.017,0,0,0,9.174-11.96l-4.89-3.7-1.714.37H41.192v6.93H54.953a35.737,35.737,0,0,1-5.495,7.25v4.39H39.327v7.3H49.459v13.34c0,0.79-.3,1-1.159,1-0.806,0-3.881,0-6.15-.1a29.81,29.81,0,0,1,2.42,7.35c3.982,0,7.057-.16,9.426-1.27,2.369-1.16,3.075-3.07,3.075-6.82v-13.5H66.6v-7.3Zm18.319-12.75a77.822,77.822,0,0,0-8.166-8.15l-4.587,4.66a71.32,71.32,0,0,1,7.864,8.78Zm-2.47,25.98v-18.52H70.4v7.36h5.242v14.97a6.1,6.1,0,0,1-2.42,4.97,23.914,23.914,0,0,1,3.176,6.35c0.907-1.37,2.672-2.96,11.442-11.11a37.032,37.032,0,0,1-2.621-6.56Zm35.638-8.2h-12.2v-16.83h10.485v-7.3H87.033v7.3H98.476v16.83H86.025v7.3H98.476v16.45h7.41v-16.45h12.2v-7.3Zm-30.5-13.81a65.473,65.473,0,0,1,2.117,11.96l6.5-1.7a71.361,71.361,0,0,0-2.47-11.8Zm25.909,12.17c1.109-3.07,2.47-7.73,3.731-12.17l-7.007-1.48a82.453,82.453,0,0,1-2.369,12.17Zm40.121,4.28a26.146,26.146,0,0,1-4.99,5.98,25.753,25.753,0,0,1-5.192-5.98h10.182Zm5.545-7.72-1.361.32h-13.51c0.4-1.17.757-2.38,1.109-3.65h21.273l0.05-7.31h-8.771l5.746-3.81c-1.31-1.9-4.032-4.97-5.847-7.09l-5.7,3.55c1.764,2.27,4.234,5.45,5.444,7.35H147.115c0.656-3.12,1.16-6.35,1.563-9.78l-8.216-1.43c-0.454,3.97-1.009,7.67-1.765,11.21h-5.746a52.093,52.093,0,0,0,3.377-8.62l-7.662-1.22a43.147,43.147,0,0,1-3.629,9.42,5,5,0,0,1-2.319,2.28c0.756,1.85,1.915,5.23,2.369,6.82,0.4-.9,2.823-1.37,5.243-1.37h6.351c-3.226,9.78-8.569,17.3-17.391,21.9a28.886,28.886,0,0,1,5.343,6.3,38.8,38.8,0,0,0,13.812-12.54,34.3,34.3,0,0,0,4.184,5.5,42.948,42.948,0,0,1-12.148,4.28,29.357,29.357,0,0,1,3.881,6.83,53.067,53.067,0,0,0,14.366-5.93,41.612,41.612,0,0,0,15.072,5.93,32.541,32.541,0,0,1,4.587-7.04,46.933,46.933,0,0,1-13.156-3.91,36.413,36.413,0,0,0,9.073-15.5Zm57.99-6.83v-7.35H193.108c0.656-1.85,1.21-3.7,1.714-5.56l-7.611-1.8a70.309,70.309,0,0,1-2.067,7.36h-13.61v7.35h10.535c-3.024,6.14-7.158,11.7-12.5,15.29a46.927,46.927,0,0,1,4.133,6.83,39.448,39.448,0,0,0,5.848-5.19v14.18h7.359v-16.77h6.452v21.32h7.41v-21.32h6.7v8.78c0,0.64-.252.85-1.008,0.85-0.655,0-3.276,0-5.091-.1a28.028,28.028,0,0,1,2.268,6.98c3.479,0,6.251-.11,8.419-1.16,2.218-1.12,2.873-3.02,2.873-6.41v-16.19H200.77v-5.5h-7.41v5.5h-6.6a69.428,69.428,0,0,0,3.528-7.09h26.868Zm30.467,11.96v-9.89h9.729v9.89H247.62Zm-17.441,0v-9.89h9.678v9.89h-9.678Zm17.441-17.46v-9.05h-7.763v9.05H222.82v27.78h7.359v-2.75h9.678v16.19h7.763v-16.19h9.729v2.48h7.712v-27.51H247.62Z" transform="translate(-18 -1991.75)"/>
  <path id="for_Android_iOS" data-name="for Android／iOS" class="cls-1" d="M29.279,2062.81v-3.05H26.81v-0.18c0-.96.311-1.26,1.328-1.26h1.141v-3.03H27.972c-3.008,0-4.356,1-4.356,4.14v0.33h-1.68v3.05h1.68v9.99H26.81v-9.99h2.469Zm6.029-3.23c-2.842,0-4.937,1.66-4.937,4.41v4.51c0,2.75,1.95,4.43,4.813,4.43,2.842,0,4.9-1.66,4.9-4.43v-4.51C40.079,2061.26,38.149,2059.58,35.307,2059.58Zm-0.041,3.06c1.037,0,1.639.63,1.639,1.89v3.49a1.62,1.62,0,0,1-1.68,1.88c-1.058,0-1.66-.61-1.66-1.88v-3.49A1.624,1.624,0,0,1,35.266,2062.64Zm9,2.76c0-1.78.581-2.76,2.386-2.76h0.56v-3.06H46.987a3.522,3.522,0,0,0-3.008,1.4l-0.166-1.22H41.075v13.04h3.195v-7.4Zm19.31,7.4h3.278l-4.232-17.51h-4l-4.315,17.51H57.48l0.705-2.99h4.709Zm-4.709-5.87,1.7-7.22,1.66,7.22H58.87Zm12.236-2.25c0-1.59.56-2.07,1.867-2.07,1.141,0,1.431.77,1.431,1.9v8.29H77.6v-9.03c0-2.79-1.224-4.19-3.713-4.19a3.736,3.736,0,0,0-3.091,1.31l-0.145-1.13H67.911v13.04h3.195v-8.12Zm15.432,8.12H89.4v-17.51H86.206v4.9a3.857,3.857,0,0,0-2.323-.63,3.94,3.94,0,0,0-4.19,4.27v4.74c0,2.76,1.556,4.36,4.066,4.36a3.322,3.322,0,0,0,2.655-1.03Zm-2.012-2.9a1.575,1.575,0,0,1-1.639-1.84v-3.68a1.547,1.547,0,0,1,1.66-1.77,1.494,1.494,0,0,1,1.66,1.75v3.7A1.612,1.612,0,0,1,84.526,2069.9Zm10.968-4.5c0-1.78.581-2.76,2.386-2.76h0.56v-3.06H98.211a3.522,3.522,0,0,0-3.008,1.4l-0.166-1.22H92.3v13.04h3.195v-7.4Zm9.678-5.82c-2.842,0-4.938,1.66-4.938,4.41v4.51c0,2.75,1.95,4.43,4.813,4.43,2.842,0,4.9-1.66,4.9-4.43v-4.51C109.943,2061.26,108.014,2059.58,105.172,2059.58Zm-0.042,3.06c1.037,0,1.639.63,1.639,1.89v3.49a1.62,1.62,0,0,1-1.68,1.88c-1.058,0-1.66-.61-1.66-1.88v-3.49A1.624,1.624,0,0,1,105.13,2062.64Zm9.033-7.35h-3.278v3.22h3.278v-3.22Zm-0.042,4.47h-3.195v13.04h3.195v-13.04Zm9.223,13.04h2.863v-17.51h-3.194v4.9a3.861,3.861,0,0,0-2.324-.63,3.939,3.939,0,0,0-4.19,4.27v4.74c0,2.76,1.555,4.36,4.066,4.36a3.321,3.321,0,0,0,2.655-1.03Zm-2.012-2.9a1.575,1.575,0,0,1-1.639-1.84v-3.68a1.547,1.547,0,0,1,1.66-1.77,1.494,1.494,0,0,1,1.66,1.75v3.7A1.612,1.612,0,0,1,121.332,2069.9Zm7.622,4.29,18.691-19.64-0.6-.64-18.691,19.65Zm22.6-18.9h-3.278v3.22h3.278v-3.22Zm-0.041,4.47h-3.195v13.04h3.195v-13.04Zm8.163-4.6c-3.029,0-5.58,1.83-5.58,5.38v7.09c0,3.55,2.613,5.3,5.518,5.3,3.028,0,5.559-1.83,5.559-5.39v-7.09C165.172,2056.9,162.579,2055.16,159.675,2055.16Zm-0.062,3.31c1.473,0,2.323.89,2.323,2.6v5.88c0,1.7-.788,2.71-2.261,2.71-1.494,0-2.324-1.01-2.324-2.71v-5.88C157.351,2059.39,158.161,2058.47,159.613,2058.47Zm10.294,1.29c0-.9.477-1.55,1.784-1.55,1.39,0,1.825.96,1.908,2.11h3.237c-0.187-3.09-1.515-5.16-5.1-5.16-3.049,0-5.082,1.5-5.082,4.62,0,5.04,7.157,5.76,7.157,8.39,0,1.18-.706,1.73-2.116,1.73-1.473,0-2.033-.77-2.137-2.56H166.3c0.166,3.34,1.535,5.59,5.435,5.59,3.174,0,5.352-1.57,5.352-4.8C177.084,2063.05,169.907,2062.42,169.907,2059.76Z" transform="translate(-18 -1991.75)"/>
</svg>
