<svg id="on_release_04.svg" xmlns="http://www.w3.org/2000/svg" width="415" height="130.72" viewBox="0 0 415 130.72">
  <defs>
    <style>
      .cls-1 {
        fill: #fff;
        fill-rule: evenodd;
      }
    </style>
  </defs>
  <path id="好评发布中" class="cls-1" d="M348.169,2044.55a89.959,89.959,0,0,1-4.706,19.23c-1.765-1.5-3.53-3-5.3-4.41,1.177-4.68,2.27-9.71,3.278-14.82h6.724Zm5.127-12.09-2.017.35h-7.648c0.924-5.47,1.765-10.85,2.353-16.06l-12.187-.88c-0.42,5.38-1.093,11.2-2.017,16.94H324.8v11.74h4.875c-1.429,7.14-3.026,13.76-4.623,19.14,4.034,3.44,8.573,7.5,12.859,11.65a38.835,38.835,0,0,1-14.624,13.94c2.521,2.29,5.715,7.06,7.4,10.15a52.823,52.823,0,0,0,15.969-15.27,77.472,77.472,0,0,1,7.313,9.18l7.984-11.03a79.182,79.182,0,0,0-9.077-9.97c4.2-10.15,6.724-22.68,7.9-38.12Zm51.017,18.88H388.428v-5.47a117.082,117.082,0,0,0,15.3-19.94l-8.153-6.18-2.857.62H361.953v11.56H384.9a60.147,60.147,0,0,1-9.161,12.09v7.32H358.843v12.18h16.894v22.23c0,1.32-.5,1.68-1.933,1.68-1.345,0-6.472,0-10.254-.18a49.743,49.743,0,0,1,4.034,12.27c6.64,0,11.767-.27,15.717-2.12,3.951-1.94,5.127-5.12,5.127-11.38v-22.5h15.885v-12.18Zm31.306-21.27c-2.942-3.88-9.246-9.61-13.616-13.58l-7.648,7.76c4.454,4.41,10.422,10.59,13.111,14.65ZM431.5,2073.4v-30.88H411.413v12.26h8.741v24.97a10.184,10.184,0,0,1-4.034,8.29,40.009,40.009,0,0,1,5.3,10.59c1.512-2.29,4.454-4.94,19.079-18.53a61.694,61.694,0,0,1-4.371-10.94Zm59.422-13.68H470.583v-28.06h17.482v-12.17H439.149v12.17h19.079v28.06h-20.76v12.18h20.76v27.44h12.355V2071.9h20.339v-12.18Zm-50.849-23.03a109.224,109.224,0,0,1,3.53,19.94l10.842-2.82a118.8,118.8,0,0,0-4.118-19.68Zm43.2,20.3c1.849-5.12,4.118-12.89,6.22-20.3l-11.683-2.47a136.758,136.758,0,0,1-3.95,20.3Zm67.658,7.14a43.936,43.936,0,0,1-8.321,9.97,43.306,43.306,0,0,1-8.657-9.97h16.978Zm9.245-12.88-2.269.53H535.383c0.672-1.94,1.261-3.97,1.849-6.09H572.7l0.084-12.17H558.16l9.581-6.36c-2.185-3.17-6.723-8.29-9.749-11.82l-9.5,5.91c2.942,3.8,7.06,9.09,9.078,12.27H540.09c1.092-5.21,1.933-10.59,2.605-16.33l-13.7-2.38c-0.756,6.62-1.681,12.79-2.941,18.71h-9.582a87.657,87.657,0,0,0,5.631-14.39l-12.775-2.03a72.175,72.175,0,0,1-6.052,15.71,8.308,8.308,0,0,1-3.866,3.79c1.261,3.09,3.194,8.74,3.951,11.39,0.672-1.5,4.706-2.3,8.741-2.3h10.59c-5.379,16.33-14.289,28.85-29,36.53a48.445,48.445,0,0,1,8.909,10.5,64.579,64.579,0,0,0,23.029-20.91,57.658,57.658,0,0,0,6.976,9.18,72.364,72.364,0,0,1-20.255,7.14,48.552,48.552,0,0,1,6.471,11.39,88.85,88.85,0,0,0,23.954-9.89c6.892,4.59,15.129,7.86,25.131,9.89a54.435,54.435,0,0,1,7.648-11.74,78.384,78.384,0,0,1-21.937-6.53,60.7,60.7,0,0,0,15.129-25.85Zm97.452-11.38V2027.6H617.538c1.093-3.08,2.017-6.17,2.858-9.26l-12.691-3a116.934,116.934,0,0,1-3.446,12.26H581.566v12.27h17.566c-5.043,10.23-11.935,19.5-20.844,25.5a78.174,78.174,0,0,1,6.892,11.38,66.409,66.409,0,0,0,9.749-8.65v23.65H607.2v-27.97h10.759v35.56h12.355v-35.56h11.178v14.65c0,1.06-.42,1.41-1.681,1.41-1.093,0-5.463,0-8.489-.18a47.035,47.035,0,0,1,3.782,11.65c5.8,0,10.422-.18,14.036-1.94,3.7-1.85,4.791-5.03,4.791-10.68v-27H630.314v-9.17H617.959v9.17H606.948a117.178,117.178,0,0,0,5.884-11.82h44.8Zm51.571,19.94v-16.5h16.222v16.5H709.2Zm-29.08,0v-16.5h16.137v16.5H680.12Zm29.08-29.12V2015.6H696.257v15.09H667.849v46.33H680.12v-4.59h16.137v27H709.2v-27h16.222v4.14h12.859v-45.88H709.2Z" transform="translate(-323.281 -2014.81)"/>
  <path id="for_Android_iOS" data-name="for Android／iOS" class="cls-1" d="M341.111,2125.81v-5.29h-4.282v-0.3c0-1.66.54-2.19,2.3-2.19h1.979v-5.26h-2.267c-5.217,0-7.556,1.74-7.556,7.18v0.57h-2.914v5.29h2.914v17.31h5.541v-17.31h4.282Zm10.29-5.59c-4.929,0-8.563,2.87-8.563,7.63v7.83c0,4.76,3.382,7.67,8.348,7.67,4.929,0,8.491-2.87,8.491-7.67v-7.83C359.677,2123.13,356.331,2120.22,351.4,2120.22Zm-0.071,5.29c1.8,0,2.842,1.1,2.842,3.29v6.05c0,2.11-1.08,3.25-2.914,3.25s-2.879-1.06-2.879-3.25v-6.05C348.379,2126.64,349.459,2125.51,351.33,2125.51Zm15.431,4.8c0-3.1,1.007-4.8,4.138-4.8h0.971v-5.29h-0.4a6.088,6.088,0,0,0-5.217,2.42l-0.288-2.12H361.22v22.6h5.541v-12.81Zm33.232,12.81h5.685l-7.34-30.35h-6.944l-7.483,30.35h5.5l1.224-5.17h8.167Zm-8.167-10.16,2.95-12.51,2.879,12.51h-5.829Zm20.983-3.9c0-2.76.971-3.59,3.238-3.59,1.979,0,2.482,1.32,2.482,3.29v14.36h5.541v-15.64c0-4.84-2.123-7.26-6.44-7.26a6.464,6.464,0,0,0-5.361,2.27l-0.252-1.97h-4.749v22.6h5.541v-14.06Zm26.53,14.06H444.3v-30.35h-5.541v8.51a6.662,6.662,0,0,0-4.029-1.1c-4.246,0-7.268,2.65-7.268,7.41v8.2c0,4.8,2.7,7.56,7.052,7.56a5.774,5.774,0,0,0,4.605-1.78Zm-3.49-5.02c-1.691,0-2.842-.99-2.842-3.18v-6.39c0-2.15,1.187-3.06,2.878-3.06,1.763,0,2.878.8,2.878,3.03v6.42C438.763,2137.08,437.54,2138.1,435.849,2138.1Zm18.784-7.79c0-3.1,1.007-4.8,4.137-4.8h0.972v-5.29h-0.4a6.088,6.088,0,0,0-5.217,2.42l-0.288-2.12h-4.749v22.6h5.541v-12.81Zm16.619-10.09c-4.929,0-8.563,2.87-8.563,7.63v7.83c0,4.76,3.382,7.67,8.347,7.67,4.93,0,8.492-2.87,8.492-7.67v-7.83C479.528,2123.13,476.182,2120.22,471.252,2120.22Zm-0.072,5.29c1.8,0,2.843,1.1,2.843,3.29v6.05c0,2.11-1.08,3.25-2.915,3.25s-2.878-1.06-2.878-3.25v-6.05C468.23,2126.64,469.309,2125.51,471.18,2125.51Zm15.464-12.74h-5.685v5.6h5.685v-5.6Zm-0.072,7.75h-5.541v22.6h5.541v-22.6Zm15.868,22.6h4.966v-30.35h-5.541v8.51a6.665,6.665,0,0,0-4.03-1.1c-4.246,0-7.268,2.65-7.268,7.41v8.2c0,4.8,2.7,7.56,7.052,7.56a5.776,5.776,0,0,0,4.606-1.78Zm-3.49-5.02c-1.691,0-2.842-.99-2.842-3.18v-6.39c0-2.15,1.187-3.06,2.878-3.06,1.763,0,2.879.8,2.879,3.03v6.42C501.865,2137.08,500.641,2138.1,498.95,2138.1Zm12.98,7.44,32.418-34.05-1.044-1.1-32.417,34.06Zm38.814-32.77h-5.685v5.6h5.685v-5.6Zm-0.072,7.75h-5.541v22.6h5.541v-22.6Zm14.029-7.97c-5.253,0-9.678,3.17-9.678,9.33v12.29c0,6.16,4.533,9.18,9.57,9.18,5.253,0,9.643-3.17,9.643-9.34v-12.28C574.236,2115.57,569.738,2112.55,564.7,2112.55Zm-0.108,5.74c2.555,0,4.03,1.55,4.03,4.5v10.2c0,2.95-1.367,4.69-3.922,4.69-2.59,0-4.029-1.74-4.029-4.69v-10.2C560.672,2119.88,562.075,2118.29,564.593,2118.29Zm17.619,2.23c0-1.55.827-2.68,3.094-2.68,2.411,0,3.166,1.66,3.31,3.66h5.613c-0.324-5.36-2.626-8.95-8.851-8.95-5.289,0-8.815,2.6-8.815,8.01,0,8.73,12.413,9.98,12.413,14.55,0,2.04-1.223,2.99-3.67,2.99-2.554,0-3.526-1.33-3.706-4.43h-5.649c0.288,5.79,2.663,9.68,9.427,9.68,5.5,0,9.283-2.72,9.283-8.32C594.661,2126.23,582.212,2125.13,582.212,2120.52Z" transform="translate(-323.281 -2014.81)"/>
</svg>
