<svg height="79.97" viewBox="0 0 293.093 79.97" width="293.093" xmlns="http://www.w3.org/2000/svg"><g fill="#fff" fill-rule="evenodd" transform="translate(-19.469 -1602.72)"><path d="m37.539 1629.99c-.338 4.77-1.69 6.49-5.359 6.49-3.283 0-5.117-2.33-5.117-6.28v-13.75c0-3.9 1.931-6.08 5.069-6.08 4.007 0 4.779 2.23 4.972 5.93h7.483c-.145-10.24-5.117-13.59-12.214-13.59-7.242 0-12.89 4.56-12.89 12.83v15.92c0 8.22 4.973 12.58 12.6 12.58 7.917 0 12.89-4.51 13.035-14.05zm24.292-27.28c-7.048 0-12.986 4.26-12.986 12.52v16.49c0 8.26 6.083 12.32 12.842 12.32 7.048 0 12.938-4.26 12.938-12.53v-16.48c-.002-8.26-6.036-12.32-12.795-12.32zm-.145 7.71c3.428 0 5.407 2.08 5.407 6.03v13.69c0 3.96-1.835 6.29-5.262 6.29-3.476 0-5.407-2.33-5.407-6.29v-13.69c-.001-3.9 1.882-6.03 5.261-6.03zm27.941-7.41h-11.442v40.73h7.145v-28.45l7.048 28.45h6.228l7.194-27.95v27.95h7.386v-40.73h-11.153l-6.324 25.77zm36.575 40.73v-40.47h-7.725v40.47h7.723zm7.43 0h7.29v-27.69l11.055 27.69h7.823v-40.73h-7.29v22.72l-8.931-22.72h-9.945v40.73zm44.344-22.06v6.84h5.214v1.12c0 4.56-1.4 6.89-5.407 6.89-3.572 0-5.262-2.38-5.262-6.33v-13.75c0-3.9 1.738-6.13 5.166-6.13s4.779 2.02 4.876 5.78h7.437c-.048-8.42-3.621-13.39-12.262-13.39-7 0-12.793 4.56-12.793 12.83v15.92c0 8.22 5.117 12.58 12.745 12.58 7.193 0 12.89-4.21 12.89-12.68v-9.68h-12.6zm55.547 14.6h-13.47l9.606-12.42a16.756 16.756 0 0 0 3.621-10.04c0-6.9-4.152-11.01-11.393-11.01-7.531 0-11.393 5.07-11.393 12.53h7.483c0-3.1 1.207-5.18 4.007-5.18 2.7 0 3.765 2.18 3.765 4.21a8 8 0 0 1 -1.931 5.12l-13.372 17.15v7.1h23.076v-7.46zm14.813-33.57c-6.179 0-11.731 3.7-11.731 11.36v18.91c0 7.61 5.359 11.06 11.49 11.06 6.179 0 11.731-3.65 11.731-11.31v-18.91c-.001-7.61-5.408-11.11-11.491-11.11zm-.1 7.66c2.655 0 4.007 1.72 4.007 4.61v17.04c0 3.04-1.448 4.46-4.055 4.46s-4.007-1.52-4.007-4.56v-17.04c.003-3.04 1.451-4.51 4.058-4.51zm38.011 25.91h-13.467l9.607-12.42a16.756 16.756 0 0 0 3.621-10.04c0-6.9-4.152-11.01-11.393-11.01-7.531 0-11.393 5.07-11.393 12.53h7.483c0-3.1 1.206-5.18 4.006-5.18 2.7 0 3.766 2.18 3.766 4.21a8 8 0 0 1 -1.931 5.12l-13.373 17.15v7.1h23.077v-7.46zm14.813-33.57c-6.179 0-11.731 3.7-11.731 11.36v18.91c0 7.61 5.359 11.06 11.49 11.06 6.179 0 11.731-3.65 11.731-11.31v-18.91c.003-7.61-5.404-11.11-11.487-11.11zm-.1 7.66c2.655 0 4.007 1.72 4.007 4.61v17.04c0 3.04-1.449 4.46-4.055 4.46s-4.007-1.52-4.007-4.56v-17.04c.007-3.04 1.455-4.51 4.062-4.51z"/><path d="m29.28 1668.71v-3.06h-2.469v-.17c0-.96.311-1.26 1.328-1.26h1.141v-3.04h-1.307c-3.008 0-4.357 1.01-4.357 4.15v.32h-1.68v3.06h1.68v9.98h3.2v-9.98zm6.432-3.23c-2.842 0-4.938 1.66-4.938 4.4v4.52c0 2.75 1.95 4.42 4.813 4.42 2.842 0 4.9-1.65 4.9-4.42v-4.52c-.003-2.72-1.932-4.4-4.775-4.4zm-.042 3.05c1.037 0 1.639.63 1.639 1.9v3.49a1.612 1.612 0 0 1 -1.681 1.87 1.581 1.581 0 0 1 -1.66-1.87v-3.49a1.632 1.632 0 0 1 1.703-1.9zm9.4 2.77c0-1.79.581-2.77 2.386-2.77h.56v-3.05h-.223a3.522 3.522 0 0 0 -3.008 1.4l-.166-1.23h-2.739v13.04h3.2v-7.39zm20.12 7.39h3.278l-4.232-17.51h-4l-4.315 17.51h3.179l.705-2.98h4.71zm-4.71-5.86 1.7-7.22 1.66 7.22h-3.354zm12.634-1.53c0-1.79.581-2.77 2.386-2.77h.56v-3.05h-.222a3.522 3.522 0 0 0 -3.008 1.4l-.166-1.23h-2.739v13.04h3.2v-7.39zm14.49-.76c-.083-3.18-1.473-5.06-4.647-5.06a4.414 4.414 0 0 0 -4.709 4.54v4.27a4.288 4.288 0 0 0 4.668 4.53c3.133 0 4.689-1.87 4.813-4.66h-3.148c-.062 1.07-.477 1.66-1.556 1.66-1.1 0-1.577-.64-1.577-1.9v-3.49c0-1.24.519-1.9 1.618-1.9 1.079 0 1.369.74 1.39 2.01h3.154zm10.3 8.15h1.2v-2.9h-.237c-.415 0-.54-.08-.54-.76v-5.32c0-2.64-1.1-4.23-4.357-4.23-3.278 0-4.585 1.74-4.772 4.06h3.195a1.159 1.159 0 0 1 1.432-1.14c1.037 0 1.39.26 1.39 1.48v.2c-4.461.15-6.245 1.81-6.245 4.69 0 2.57 1.286 4.03 3.672 4.03a3.5 3.5 0 0 0 3.05-1.22 2.331 2.331 0 0 0 2.221 1.11zm-5.747-4.01c0-1 .664-1.74 3.05-1.9v1.29a1.529 1.529 0 0 1 -1.8 1.79 1.066 1.066 0 0 1 -1.241-1.18zm14.67 4.01h2.873v-17.51h-3.2v4.91a3.859 3.859 0 0 0 -2.324-.63 3.935 3.935 0 0 0 -4.191 4.27v4.73c0 2.77 1.556 4.36 4.067 4.36a3.35 3.35 0 0 0 2.655-1.02zm-2.013-2.9a1.567 1.567 0 0 1 -1.639-1.83v-3.68a1.542 1.542 0 0 1 1.66-1.77 1.494 1.494 0 0 1 1.66 1.75v3.7a1.609 1.609 0 0 1 -1.672 1.83zm17.439-1.15h-3.091a1.479 1.479 0 0 1 -1.681 1.24 1.521 1.521 0 0 1 -1.763-1.55v-.94h6.39v-3.37a4.215 4.215 0 0 0 -4.565-4.54c-2.883 0-4.917 1.79-4.917 4.54v4.27c0 2.75 1.8 4.53 4.689 4.53 3.142 0 4.698-1.83 4.947-4.18zm-6.535-4.52a1.51 1.51 0 0 1 1.68-1.65 1.431 1.431 0 0 1 1.556 1.65v.61h-3.236zm23.756 8.14v-12.61h-2.854l-.083.66a3.434 3.434 0 0 0 -2.573-.83 3.919 3.919 0 0 0 -4.19 4.25v4.08c0 2.77 1.556 4.29 4.066 4.29a3.8 3.8 0 0 0 2.448-.67v.78a1.468 1.468 0 0 1 -1.66 1.66 1.381 1.381 0 0 1 -1.659-1.26h-3.195c.124 2.61 1.639 4.07 4.771 4.07 3.32 0 4.938-1.7 4.938-4.42zm-4.875-2.95a1.583 1.583 0 0 1 -1.639-1.85v-3.18a1.542 1.542 0 0 1 1.659-1.77 1.494 1.494 0 0 1 1.66 1.75v3.22a1.618 1.618 0 0 1 -1.671 1.83zm16.567 3.38h1.2v-2.9h-.249c-.415 0-.539-.08-.539-.76v-5.32c0-2.64-1.1-4.23-4.357-4.23-3.278 0-4.585 1.74-4.772 4.06h3.195a1.159 1.159 0 0 1 1.432-1.14c1.037 0 1.39.26 1.39 1.48v.2c-4.461.15-6.245 1.81-6.245 4.69 0 2.57 1.286 4.03 3.672 4.03a3.5 3.5 0 0 0 3.05-1.22 2.331 2.331 0 0 0 2.232 1.11zm-5.747-4.01c0-1 .664-1.74 3.05-1.9v1.29a1.529 1.529 0 0 1 -1.805 1.79 1.066 1.066 0 0 1 -1.236-1.18zm11.307-4.1c0-1.59.456-2.07 1.763-2.07 1.141 0 1.328.76 1.328 1.9v8.28h3.195v-8.11c0-1.59.456-2.07 1.764-2.07 1.141 0 1.348.76 1.348 1.9v8.28h3.195v-9.02c0-2.79-1.141-4.19-3.631-4.19a3.737 3.737 0 0 0 -3.236 1.48 3.174 3.174 0 0 0 -3.071-1.48 3.515 3.515 0 0 0 -2.966 1.26l-.146-1.09h-2.729v13.04h3.2v-8.11zm24.724 4.06h-3.091a1.479 1.479 0 0 1 -1.681 1.24 1.521 1.521 0 0 1 -1.763-1.55v-.94h6.39v-3.37a4.215 4.215 0 0 0 -4.565-4.54c-2.883 0-4.917 1.79-4.917 4.54v4.27c0 2.75 1.805 4.53 4.689 4.53 3.142 0 4.698-1.83 4.947-4.18zm-6.535-4.52a1.51 1.51 0 0 1 1.68-1.65 1.431 1.431 0 0 1 1.556 1.65v.61h-3.236z"/></g></svg>