<svg height="14.5" viewBox="0 0 198.656 14.5" width="198.656" xmlns="http://www.w3.org/2000/svg"><path d="m329.867 976.783h7.213v-1.892h-2.342c-.494 0-1.207.061-1.745.122 1.964-2.014 3.578-4.211 3.578-6.256a3.234 3.234 0 0 0 -3.389-3.479 4.288 4.288 0 0 0 -3.417 1.709l1.164 1.221a2.756 2.756 0 0 1 1.977-1.16 1.589 1.589 0 0 1 1.614 1.831c0 1.74-1.73 3.861-4.653 6.607v1.3zm13.348.217c2.181 0 3.635-2.014 3.635-5.9s-1.454-5.814-3.635-5.814-3.65 1.907-3.65 5.814c0 3.883 1.454 5.9 3.65 5.9zm0-1.755c-.931 0-1.629-.976-1.629-4.15s.7-4.074 1.629-4.074 1.614.915 1.614 4.074-.698 4.147-1.614 4.147zm5.879 1.541h7.212v-1.892h-2.341c-.494 0-1.207.061-1.745.122 1.963-2.014 3.577-4.211 3.577-6.256a3.233 3.233 0 0 0 -3.388-3.479 4.288 4.288 0 0 0 -3.417 1.709l1.163 1.221a2.758 2.758 0 0 1 1.978-1.16 1.589 1.589 0 0 1 1.614 1.831c0 1.74-1.73 3.861-4.653 6.607v1.3zm13.347.214c2.182 0 3.636-2.014 3.636-5.9s-1.454-5.814-3.636-5.814-3.65 1.907-3.65 5.814c0 3.883 1.455 5.9 3.65 5.9zm0-1.755c-.93 0-1.628-.976-1.628-4.15s.7-4.074 1.628-4.074 1.614.915 1.614 4.074-.698 4.147-1.614 4.147zm8.488-2.457a9.606 9.606 0 0 1 -2.53 3.693 10.308 10.308 0 0 1 1.454 1.16 13.583 13.583 0 0 0 2.792-4.349zm9.423-.915.015-1.755h-3.967v-1.938h-1.76v1.938h-2.62c.553-.778 1.134-1.648 1.7-2.579h7.329v-1.739h-6.369c.233-.458.451-.9.669-1.373l-1.92-.718c-.276.718-.6 1.419-.93 2.091h-3.912v1.739h3a17.052 17.052 0 0 1 -1.047 1.618 2.71 2.71 0 0 1 -1.207 1.114 14.281 14.281 0 0 1 .625 1.846 3.825 3.825 0 0 1 1.7-.244h2.981v4c0 .229-.072.29-.319.29s-1.033 0-1.789-.031a7.663 7.663 0 0 1 .654 1.862 5.463 5.463 0 0 0 2.443-.351 1.618 1.618 0 0 0 .771-1.725v-4.048h3.955zm-3.2 1.648a23.688 23.688 0 0 1 2.734 3.876l1.57-.855a22.871 22.871 0 0 0 -2.835-3.754zm20.017-8.194h-5.526v-1.465h-1.833v1.465h-5.453v1.724h12.813v-1.724zm-10.761 8.255a9.214 9.214 0 0 1 -2.458 2.93 12.615 12.615 0 0 1 1.411 1.052 13.643 13.643 0 0 0 2.821-3.387zm1.338-3.906h6.054v1.754h-6.049v-1.754zm7.881 3.311v-4.868h-9.612v4.868h3.825v3.158c0 .2-.059.244-.32.26-.233.015-1.149 0-1.891-.031a7.524 7.524 0 0 1 .553 1.74 7.575 7.575 0 0 0 2.661-.275c.64-.259.8-.717.8-1.633v-3.219zm-2.4 1.388a22.829 22.829 0 0 1 2.515 3.327l1.7-.9a23.978 23.978 0 0 0 -2.632-3.219zm12.818-2.487h1.309v-1.221a11.8 11.8 0 0 1 1.646 1.386l.8-.839a14.9 14.9 0 0 0 -1.731-1.374h1.687v-1.14h-1.149c.291-.351.64-.824 1.033-1.343l-1.178-.519a12.91 12.91 0 0 1 -.829 1.511l.756.351h-1.032v-1.877h-1.309v1.877h-1.12l.786-.4a4.472 4.472 0 0 0 -.858-1.419l-.975.5a4.991 4.991 0 0 1 .742 1.312h-.989v1.144h1.483a6.54 6.54 0 0 1 -1.832 1.374 5.025 5.025 0 0 1 .858.992 7.361 7.361 0 0 0 1.905-1.74v1.419zm-2.894 1.007v-6.408h7.14v6.408h-2.937c.043-.259.072-.534.1-.809h-1.8c-.029.29-.058.55-.1.809h-2.4zm10.078 1.526v-1.526h-1.28v-7.785h-4.464c.116-.32.247-.7.407-1.1l-1.876-.153a12.1 12.1 0 0 1 -.378 1.251h-4.086v7.782h-1.28v1.526h4.755c-.64 1.083-2.007 1.77-5.1 2.152a5.255 5.255 0 0 1 .8 1.525c3.693-.549 5.307-1.586 6.078-3.234 1.105 1.968 2.792 2.914 5.773 3.28a6.649 6.649 0 0 1 1.047-1.739c-2.588-.153-4.246-.733-5.22-1.984h4.828zm16.424-4.73v-1.694h-9.336v1.694h2.5a30.546 30.546 0 0 1 -1.149 3.448c-.451.031-.873.061-1.251.077l.262 1.8c1.876-.2 4.508-.458 7.009-.717a9.264 9.264 0 0 1 .393 1.068l1.527-.839a17.8 17.8 0 0 0 -2.531-4.44l-1.4.717a20.126 20.126 0 0 1 1.222 1.922c-1.193.107-2.385.2-3.49.275.465-.992.96-2.2 1.4-3.311h4.842zm-.945-5.081h-7.431v1.678h7.431zm-8.361 1.144a10.71 10.71 0 0 0 -2.356-1.816l-1.149 1.129a10.121 10.121 0 0 1 2.268 1.923zm-.507 2.946a10.54 10.54 0 0 0 -2.443-1.739l-1.12 1.174a10.232 10.232 0 0 1 2.356 1.847zm-.262 2.06h-3.316v1.678h1.629v2.274a22.38 22.38 0 0 1 -1.934 1.4l.829 1.846c.771-.656 1.425-1.251 2.065-1.846a4.748 4.748 0 0 0 3.926 1.709c1.73.076 4.682.046 6.427-.046a9.606 9.606 0 0 1 .538-1.8 67.3 67.3 0 0 1 -6.95.138 3.593 3.593 0 0 1 -3.214-1.526v-3.83zm25.779 3.8v1.34h-5.264v-1.343h5.264zm-.873-5.279v1.175h-4.391v-1.175zm-4.391 2.716h6.122v-4.273h-7.838v10.356h1.716v-.6h5.264v.534h1.73v-5.035h-6.994v-.992zm3.1-6.989v-1.118h-1.832v1.11h-5.311v3.754h1.7v-2.045h9.015v2.045h1.775v-3.754h-5.35zm21.3 3.022v-1.74h-5.744v-2.49h-1.789v2.487h-5.57v1.74h4.159c-.16 3.265-.494 6.744-4.421 8.651a5.742 5.742 0 0 1 1.222 1.542 8.933 8.933 0 0 0 4.668-6.5h4c-.2 2.777-.466 4.105-.844 4.441a.905.905 0 0 1 -.7.2 23.713 23.713 0 0 1 -2.443-.107 4.36 4.36 0 0 1 .611 1.785 18.956 18.956 0 0 0 2.487 0 2.1 2.1 0 0 0 1.57-.7c.582-.672.887-2.381 1.149-6.531a7.661 7.661 0 0 0 .058-.794h-5.613c.073-.656.116-1.327.16-1.983h7.038zm14.564-4.074a46.823 46.823 0 0 1 -7.271.9 4.978 4.978 0 0 1 .392 1.358 47.7 47.7 0 0 0 7.9-.931zm-2.094 4.074a13.647 13.647 0 0 0 -.6-1.984l-1.337.32a15.544 15.544 0 0 1 .523 2.06zm-3.8 2.029h5.671v1.007h1.6v-2.487h-1.512c.392-.671.785-1.465 1.178-2.243l-1.6-.488a16.92 16.92 0 0 1 -1.134 2.731h-4.066l1.091-.412a11.836 11.836 0 0 0 -.829-1.923l-1.309.458a10.2 10.2 0 0 1 .727 1.877h-1.338v2.472h1.527v-.992zm-1.774.229-1.163.351v-2.213h1.25v-1.678h-1.25v-2.869h-1.6v2.869h-1.556v1.678h1.556v2.655c-.654.184-1.236.336-1.73.458l.378 1.724 1.352-.4v3.326c0 .2-.058.26-.232.26a11.2 11.2 0 0 1 -1.207-.016 6.43 6.43 0 0 1 .45 1.679 3.511 3.511 0 0 0 1.993-.336 1.641 1.641 0 0 0 .6-1.587v-3.83c.451-.137.93-.275 1.381-.427zm6.079 2.548a5.9 5.9 0 0 1 -1.644 1.846 6.106 6.106 0 0 1 -1.527-1.846zm1.134-1.541-.277.061h-5.925v1.48h1.163l-.814.244a8.76 8.76 0 0 0 1.672 2.442 12.237 12.237 0 0 1 -3.345.992 6.019 6.019 0 0 1 .756 1.586 12.783 12.783 0 0 0 3.941-1.464 10.292 10.292 0 0 0 3.723 1.5 5.68 5.68 0 0 1 1.032-1.572 10.784 10.784 0 0 1 -3.286-.991 8.37 8.37 0 0 0 2.385-3.861zm10.49.549c-.291-.335-1.658-1.693-2.152-2.136v-1.114h1.745v-1.678h-1.745v-3.052h-1.716v3.052h-2.181v1.678h2.065a15.919 15.919 0 0 1 -2.371 5.371 8.583 8.583 0 0 1 .9 1.664 11.886 11.886 0 0 0 1.585-3.022v5.493h1.716v-6.408c.48.641.989 1.343 1.28 1.831zm5.918-6.775-.29.077h-6.006v1.739h5.511a16.725 16.725 0 0 1 -1.89 5.432 18.868 18.868 0 0 1 -1.658-5.294l-1.585.351a20.567 20.567 0 0 0 2.138 6.53 9.563 9.563 0 0 1 -3.461 2.655 6.469 6.469 0 0 1 1.105 1.557 11.917 11.917 0 0 0 3.432-2.671 13.208 13.208 0 0 0 3.126 2.716 4.685 4.685 0 0 1 1.207-1.571 11.3 11.3 0 0 1 -3.228-2.625 19.551 19.551 0 0 0 2.734-8.545zm5.759 7a50.077 50.077 0 0 1 -1.76 4.975l1.585.885c.538-1.5 1.12-3.3 1.571-4.959zm1.367-2.7a8.88 8.88 0 0 0 -2.327-1.327l-.945 1.327a9.729 9.729 0 0 1 2.268 1.465zm8.608 2.411a16.46 16.46 0 0 0 1.789-2.594l-1-.778-.306.107h-2.7c.16-.351.32-.732.466-1.144h3.475v-1.711h-2.981c.117-.489.2-.992.291-1.5l-1.658-.29a14.508 14.508 0 0 1 -.8 3.235v-1.053h-1.658v-2.162h-1.662v2.166h-1.8l.451-.641a9.8 9.8 0 0 0 -2.3-1.419l-.989 1.328a8.754 8.754 0 0 1 2.254 1.556l.567-.808v1.693h1.062c-.058 3.5-.189 7.019-1.963 9.14a4.184 4.184 0 0 1 1.163 1.175c1.44-1.755 1.992-4.257 2.225-6.988h.93c-.1 3.57-.248 4.867-.48 5.188a.4.4 0 0 1 -.393.229 9.341 9.341 0 0 1 -1.018-.046 4.225 4.225 0 0 1 .422 1.617 5.741 5.741 0 0 0 1.425-.061 1.234 1.234 0 0 0 .931-.61c.407-.565.552-2.4.7-7.263 0-.214.014-.7.014-.7h-2.428c.029-.55.043-1.114.058-1.679h2.2a5.625 5.625 0 0 1 -.451.733 9.307 9.307 0 0 1 1.381.839v.748h2.225a7.714 7.714 0 0 1 -.523.763h-.509v1.3h-1.789v1.617h1.789v2.518c0 .168-.044.213-.247.213-.189.016-.844.016-1.44-.015a7.723 7.723 0 0 1 .451 1.648 4.9 4.9 0 0 0 2.2-.29 1.435 1.435 0 0 0 .639-1.541v-2.533h1.76v-1.617h-1.76v-.367zm16.932-5.768a22.477 22.477 0 0 0 -1.9-2.09l-1.251.961a18.451 18.451 0 0 1 1.847 2.213zm-6.7 8.667c-.407-.762-1.018-1.693-1.7-2.7a26.588 26.588 0 0 0 1.44-6.15l-1.105-.4-.291.061h-4.29v1.6h3.81a19.729 19.729 0 0 1 -.8 3.174c-.654-.9-1.294-1.755-1.89-2.518l-1.178 1.038c.727.991 1.556 2.151 2.327 3.311a9.769 9.769 0 0 1 -2.6 3.509 6.633 6.633 0 0 1 1.25 1.48 11.185 11.185 0 0 0 2.472-3.25 21.451 21.451 0 0 1 1.222 2.136zm5.424-5.355a14.152 14.152 0 0 1 -1.891 3.357 28.455 28.455 0 0 1 -.479-3.327l4.2-.549-.2-1.618-4.115.519c-.073-1.175-.1-2.426-.116-3.738h-1.8c.029 1.4.087 2.716.16 3.937l-1.571.2.2 1.663 1.483-.2a24.617 24.617 0 0 0 .785 4.73 10.509 10.509 0 0 1 -2.806 1.938 7.01 7.01 0 0 1 1.367 1.358 10.8 10.8 0 0 0 2.108-1.541 3.472 3.472 0 0 0 2.69 2.044c.8.077 1.585-.61 1.978-3.494a6 6 0 0 1 -1.454-1.068c-.116 1.6-.276 2.35-.611 2.3a1.881 1.881 0 0 1 -1.221-1.221 16.148 16.148 0 0 0 2.661-4.425z" fill="#fff" fill-rule="evenodd" transform="translate(-329.75 -963.719)"/></svg>