<svg height="17.94" viewBox="0 0 343.531 17.94" width="343.531" xmlns="http://www.w3.org/2000/svg"><path d="m33.1 1706.76h-11.85v2.15h11.85zm.864-3.82c.27-2.37.54-4.99.666-7.13l-1.584-.15-.36.09h-10.158v2.18h9.795c-.126 1.51-.306 3.36-.5 5.01h-6c.144-1.27.27-2.71.378-3.97l-2.161-.15c-.126 2.02-.378 4.59-.63 6.22h11.326c-.306 3.17-.648 4.68-1.116 5.1a1.093 1.093 0 0 1 -.828.25c-.468 0-1.53-.02-2.611-.12a4.84 4.84 0 0 1 .684 2.16 20.4 20.4 0 0 0 2.809-.04 2.462 2.462 0 0 0 1.783-.81c.7-.78 1.134-2.82 1.548-7.68.036-.3.072-.96.072-.96h-3.115zm13.787-4.24v-3.89h-2.289v3.89h-5.51v2.31h5.42a11.6 11.6 0 0 1 -5.978 9.68 8.809 8.809 0 0 1 1.675 1.83c5.06-3 6.32-7.6 6.608-11.51h5.041c-.288 5.61-.648 8.09-1.188 8.68a1.051 1.051 0 0 1 -.846.3c-.468 0-1.53 0-2.665-.1a5.455 5.455 0 0 1 .738 2.33 16.494 16.494 0 0 0 2.881-.04 2.383 2.383 0 0 0 1.837-1.06c.792-.98 1.152-3.82 1.513-11.34.036-.3.054-1.08.054-1.08h-7.293zm12.9 2.74c.558.57 1.134 1.19 1.675 1.84a12.183 12.183 0 0 1 -1.675 2.89zm10.407-1.26h1.278a23.617 23.617 0 0 1 -.558 2.89l1.548.94a28.581 28.581 0 0 0 1.3-5.44l-1.459-.55-.324.12h-3.751c.216-.99.378-2.01.522-3.05l-2.161-.32c-.306 2.95-.972 5.88-2.125 7.68a12.176 12.176 0 0 1 1.728 1.49 15.908 15.908 0 0 0 1.531-3.76h.4v2.11a10.829 10.829 0 0 1 -2.557 6.89v-.95h-5.78v-1.47a11.653 11.653 0 0 1 1.242 1.17 13.122 13.122 0 0 0 1.819-2.95 14.647 14.647 0 0 1 1.332 2.04l1.332-1.68a15.406 15.406 0 0 0 -1.8-2.5 31.219 31.219 0 0 0 1.116-4.31l-1.945-.34a26.933 26.933 0 0 1 -.684 2.99c-.54-.57-1.08-1.1-1.584-1.57l-.828.96v-2.66h5.672v-2.08h-7.709v15.77h2.035v-1.29h4.5c-.108.08-.216.15-.324.23a10.774 10.774 0 0 1 1.206 1.87 10.132 10.132 0 0 0 3.979-6.37c.252 1.6 1.332 4.8 3.529 6.37.324-.57.936-1.48 1.3-1.97-3.061-2.21-3.781-6.27-3.781-8.15v-2.11zm8.018 6.73a2.727 2.727 0 0 1 1.1-1.97 19.375 19.375 0 0 0 3.007 3.27 3.46 3.46 0 0 1 -1.945.7 1.984 1.984 0 0 1 -2.166-2zm1.332-6.83a1.466 1.466 0 0 1 1.332-1.7 1.022 1.022 0 0 1 1.008 1.21c0 1.02-.81 1.7-1.854 2.36a4.5 4.5 0 0 1 -.494-1.87zm8.553 8.7a7.814 7.814 0 0 1 -2.359-1 15.74 15.74 0 0 0 2.251-4.8h-2.399a10.726 10.726 0 0 1 -1.638 3.55 17.224 17.224 0 0 1 -2.881-2.91c1.422-1.04 2.863-2.2 2.863-4.05a2.88 2.88 0 0 0 -3.1-3.04 3.4 3.4 0 0 0 -3.493 3.55 6.861 6.861 0 0 0 .846 3.03 4.652 4.652 0 0 0 -2.5 3.97c0 2.17 1.566 3.97 4.357 3.97a6.248 6.248 0 0 0 4.092-1.48 10.546 10.546 0 0 0 3.313 1.48zm5.933-.62a11.864 11.864 0 0 1 -4.105 2.55 16.442 16.442 0 0 1 1.638 1.59 16.929 16.929 0 0 0 4.5-3.33zm9.849-.36a11.984 11.984 0 0 1 .865.85l1.512-1.29a29.418 29.418 0 0 0 -4.267-3.33l-1.4 1.14c.414.28.846.58 1.278.92l-4.231.06a52.814 52.814 0 0 0 4.771-3.34l-1.909-1.08a33.844 33.844 0 0 1 -3.529 2.8c-.324-.25-.7-.52-1.1-.78a34.86 34.86 0 0 0 2.683-2.27l-.558-.28h5.959v2.04h2.125v-3.91h-6.878v-1.16h6.636v-1.93h-6.644v-1.47h-2.105v1.47h-6.518v1.93h6.518v1.16h-6.68v3.91h2.035v-2.04h3.6a19.665 19.665 0 0 1 -1.693 1.62c-.252-.15-.522-.28-.756-.41l-1.4 1.28a21.405 21.405 0 0 1 3.025 1.99c-.27.17-.54.34-.81.49-1.53.02-2.917.02-4.051.02l.108 2c1.837-.03 4.141-.09 6.644-.17v4.41h2.125v-4.48zm-3.6 1.43a27.1 27.1 0 0 1 4.25 3.01l1.764-1.27a31.61 31.61 0 0 0 -4.393-2.87zm21.346-11.61v2.01h-8.559v-2.01h8.553zm2.16 4.07v-6.11h-12.898v5.45c0 3.02-.144 7.33-1.872 10.24a8.869 8.869 0 0 1 1.944 1.16c1.693-2.95 2.071-7.47 2.107-10.74h10.713zm-5.78 7.94c-1.224 0-1.44-.11-1.44-.93v-.98c2.395-.79 5.024-1.74 7.184-2.61l-1.224-1.96c-1.639.77-3.835 1.75-5.96 2.57v-3.26h-2.149v6.26c0 2.37.721 3.03 3.421 3.03h3.962c2.268 0 2.916-.78 3.223-3.61a5.907 5.907 0 0 1 -2.017-.85c-.144 2-.306 2.34-1.35 2.34h-3.656zm14.161-7.73h7.689v2.06h-7.689zm7.653 8.18c-.648 0-.756-.07-.756-.7v-3.44h3.006v-6.01h-5.041v-1.51h6.842v-2.04h-6.842v-1.61h-2.179v1.61h-6.644v2.04h6.644v1.51h-4.753v6.01h2.413c-.289 2.22-.973 3.63-4.988 4.43a7.247 7.247 0 0 1 1.26 2.1c4.7-1.18 5.654-3.35 6.032-6.53h2.053v3.46c0 2.12.522 2.8 2.629 2.8h2.3c1.765 0 2.341-.77 2.557-3.8a6.479 6.479 0 0 1 -1.981-.87c-.072 2.21-.162 2.55-.774 2.55h-1.782zm15.121-5.06.4-1.53c.4-1.46.792-3.05 1.135-4.58h.061c.4 1.51.756 3.12 1.17 4.58l.4 1.53h-3.17zm4.682 5.76h2.79l-4.285-13.99h-3.133l-4.267 13.99h2.7l.936-3.59h4.321zm7.279 0h2.664v-11.66h3.782v-2.33h-10.198v2.33h3.746v11.66zm13.289 0h8.93v-2.34h-2.9a20.549 20.549 0 0 0 -2.16.15c2.43-2.5 4.429-5.22 4.429-7.75a4 4 0 0 0 -4.2-4.31 5.288 5.288 0 0 0 -4.232 2.12l1.441 1.51a3.4 3.4 0 0 1 2.449-1.44 1.968 1.968 0 0 1 2 2.27c0 2.16-2.142 4.78-5.761 8.19v1.6zm16.361.27c2.7 0 4.5-2.5 4.5-7.32s-1.8-7.2-4.5-7.2c-2.719 0-4.519 2.36-4.519 7.2-.006 4.82 1.794 7.32 4.513 7.32zm0-2.18c-1.152 0-2.016-1.21-2.016-5.14 0-3.91.864-5.05 2.016-5.05 1.135 0 2 1.14 2 5.05-.007 3.93-.871 5.14-2.006 5.14zm7.116 1.91h8.931v-2.34h-2.9a20.549 20.549 0 0 0 -2.16.15c2.43-2.5 4.429-5.22 4.429-7.75a4 4 0 0 0 -4.195-4.31 5.288 5.288 0 0 0 -4.232 2.12l1.441 1.51a3.4 3.4 0 0 1 2.448-1.44 1.968 1.968 0 0 1 2 2.27c0 2.16-2.143 4.78-5.762 8.19zm16.362.27c2.7 0 4.5-2.5 4.5-7.32s-1.8-7.2-4.5-7.2c-2.719 0-4.519 2.36-4.519 7.2-.006 4.82 1.794 7.32 4.513 7.32zm0-2.18c-1.152 0-2.017-1.21-2.017-5.14 0-3.91.865-5.05 2.017-5.05 1.134 0 2 1.14 2 5.05-.007 3.93-.872 5.14-2.006 5.14zm10.346-3.04a11.944 11.944 0 0 1 -3.133 4.58 12.471 12.471 0 0 1 1.8 1.43 16.692 16.692 0 0 0 3.457-5.39zm11.668-1.13.018-2.18h-4.925v-2.4h-2.178v2.4h-3.241c.684-.96 1.4-2.04 2.106-3.19h9.075v-2.16h-7.886c.288-.57.558-1.11.828-1.7l-2.377-.89c-.342.89-.738 1.76-1.152 2.59h-4.844v2.16h3.71a21.6 21.6 0 0 1 -1.3 2 3.309 3.309 0 0 1 -1.494 1.38 17.682 17.682 0 0 1 .774 2.29 4.74 4.74 0 0 1 2.107-.3h3.691v4.95c0 .28-.09.36-.4.36-.306.02-1.279 0-2.215-.04a9.528 9.528 0 0 1 .81 2.31 6.72 6.72 0 0 0 3.025-.44c.738-.38.954-.98.954-2.13v-5.01h4.9zm-3.961 2.04a29.026 29.026 0 0 1 3.385 4.8l1.944-1.06a28.439 28.439 0 0 0 -3.511-4.65zm24.193-10.15h-6.842v-1.82h-2.269v1.82h-6.758v2.13h15.863v-2.13zm-13.324 10.22a11.3 11.3 0 0 1 -3.043 3.63 16.1 16.1 0 0 1 1.747 1.31 16.96 16.96 0 0 0 3.493-4.2zm1.657-4.84h7.49v2.18h-7.49zm9.759 4.11v-6.04h-11.9v6.04h4.735v3.91c0 .24-.072.3-.4.32-.288.02-1.422 0-2.34-.04a9.5 9.5 0 0 1 .684 2.16 9.4 9.4 0 0 0 3.295-.34c.792-.32.99-.89.99-2.03v-3.98h4.934zm-2.971 1.72a27.814 27.814 0 0 1 3.115 4.12l2.106-1.12a30.38 30.38 0 0 0 -3.259-3.99zm15.281-3.09h1.62v-1.51a15.123 15.123 0 0 1 2.035 1.72l.99-1.04a18.825 18.825 0 0 0 -2.143-1.7h2.089v-1.42h-1.432c.361-.43.793-1.02 1.279-1.66l-1.459-.64a16.029 16.029 0 0 1 -1.026 1.87l.936.43h-1.278v-2.32h-1.62v2.32h-1.387l.972-.49a5.518 5.518 0 0 0 -1.062-1.76l-1.206.63a6.174 6.174 0 0 1 .918 1.62h-1.224v1.42h1.836a8.133 8.133 0 0 1 -2.268 1.7 6.335 6.335 0 0 1 1.062 1.23 9.063 9.063 0 0 0 2.359-2.15v1.75zm-3.584 1.25v-7.94h8.841v7.94h-3.637c.054-.32.09-.66.126-1h-2.233c-.036.36-.072.68-.126 1zm12.478 1.89v-1.89h-1.584v-9.64h-5.528c.144-.4.306-.87.5-1.36l-2.322-.19a15.509 15.509 0 0 1 -.469 1.55h-5.059v9.64h-1.585v1.89h5.888c-.792 1.35-2.485 2.2-6.32 2.67a6.43 6.43 0 0 1 .991 1.89c4.573-.68 6.572-1.97 7.526-4.01 1.368 2.44 3.457 3.61 7.148 4.07a8.269 8.269 0 0 1 1.3-2.16c-3.205-.19-5.257-.91-6.464-2.46zm19.748-5.86v-2.1h-11.565v2.1h3.1a37.15 37.15 0 0 1 -1.423 4.27c-.558.04-1.08.08-1.548.1l.324 2.23c2.322-.25 5.581-.57 8.678-.89a11.8 11.8 0 0 1 .487 1.32l1.89-1.03a22.013 22.013 0 0 0 -3.133-5.51l-1.728.89a25.357 25.357 0 0 1 1.512 2.38c-1.476.14-2.953.25-4.321.34.576-1.22 1.188-2.72 1.728-4.1h6zm-1.17-6.29h-9.2v2.08h9.2zm-10.353 1.41a13.358 13.358 0 0 0 -2.917-2.25l-1.423 1.4a12.709 12.709 0 0 1 2.809 2.39zm-.631 3.65a13.084 13.084 0 0 0 -3.024-2.15l-1.387 1.45a12.759 12.759 0 0 1 2.917 2.29zm-.324 2.56h-4.105v2.08h2.017v2.81a27.6 27.6 0 0 1 -2.395 1.74l1.026 2.29c.955-.81 1.765-1.55 2.557-2.29 1.134 1.48 2.647 2.01 4.862 2.12 2.142.09 5.8.06 7.958-.06a11.885 11.885 0 0 1 .666-2.23 81.183 81.183 0 0 1 -8.606.17c-1.891-.09-3.223-.62-3.98-1.89zm35.954-7.53h-4.5v1.97h4.5zm-9.273 4.77h-2.386v1.94h6.716v-1.94h-2.305v-1.84h2.034v-1.87h-2.034v-2.08h-2.031v2.08h-2.034v1.87h2.034v1.84zm-4.321-5.77a12.56 12.56 0 0 1 -3.025 3.61 15.488 15.488 0 0 1 1.116 1.68 18.034 18.034 0 0 0 3.836-4.55zm.414 3.97a14.868 14.868 0 0 1 -3.655 5.14 12.771 12.771 0 0 1 1.17 2.06 14.228 14.228 0 0 0 1.1-1.19v7.66h1.962v-10.4a22.108 22.108 0 0 0 1.333-2.59zm13.468 2.08h-4.915v2h1.458v7.05c0 .23-.072.29-.306.29-.2.02-.666 0-1.224 0l-.054-1.8c-.847.1-1.693.19-2.521.29v-2.05h2.214v-1.92h-2.214v-1.88h-2.017v1.88h-2.238v1.92h2.232v2.25c-1.008.1-1.944.19-2.719.25l.216 2.06c1.837-.21 4.3-.49 6.662-.79a10.249 10.249 0 0 1 .5 2.02 5.81 5.81 0 0 0 2.754-.4c.667-.38.811-.98.811-2.08v-7.09h1.35v-2zm9.842 4.21c-.361-.47-1.909-2.43-2.557-3.13v-1.16h2.34v-2.11h-2.34v-3.88h-2.053v3.88h-2.647v2.11h2.368a18.4 18.4 0 0 1 -2.827 6.32 10.982 10.982 0 0 1 1.009 2.12 16.868 16.868 0 0 0 2.088-4.33v7.54h2.053v-7.87c.5.84 1.026 1.72 1.314 2.33zm7.364 5.11a.212.212 0 0 1 -.2-.11 3.2 3.2 0 0 1 -.054-.84v-13.36h-6.446v6.09c0 2.83-.216 6.52-2.593 9.01a8.914 8.914 0 0 1 1.656 1.44c2.593-2.72 3.007-7.26 3.007-10.44v-3.97h2.251v11.29c0 1.63.144 2.08.486 2.44a1.738 1.738 0 0 0 1.261.51h.99a1.727 1.727 0 0 0 1.116-.34 1.818 1.818 0 0 0 .576-1.15 22.958 22.958 0 0 0 .2-2.9 5.043 5.043 0 0 1 -1.53-.9c0 1.11-.036 2.04-.054 2.45a1.642 1.642 0 0 1 -.126.67.3.3 0 0 1 -.234.11zm18.613-7.71a16.465 16.465 0 0 1 -1.224 3.68 18.167 18.167 0 0 1 -1.405-3.68zm1.009-2.1-.361.05h-4.717v-2.79h6.392v-2.03h-8.379v5.5c0 2.95-.108 7.11-1.494 10.06v-7.31h-3.583c.018-.44.018-.89.018-1.31v-.79h4.483v-1.99h-1.26v-4.97h-1.927v4.97h-1.3v-4.48h-1.887v7.24c0 2.72-.144 6.32-1.314 8.59a8.133 8.133 0 0 1 1.44 1.36 15.09 15.09 0 0 0 1.675-6.64h1.71v6.56h1.945v-1.06a7.891 7.891 0 0 1 1.693 1.06 23.639 23.639 0 0 0 1.728-8.58 20.956 20.956 0 0 0 1.711 4.33 8.943 8.943 0 0 1 -2.629 2.46 7.5 7.5 0 0 1 1.35 1.81 11.347 11.347 0 0 0 2.539-2.34 10.279 10.279 0 0 0 2.7 2.4 8.387 8.387 0 0 1 1.458-1.84 9.014 9.014 0 0 1 -2.917-2.44 20.89 20.89 0 0 0 2.251-7.41z" fill="#fff" fill-rule="evenodd" transform="translate(-21.25 -1694.59)"/></svg>