<svg height="11.72" viewBox="0 0 339.781 11.72" width="339.781" xmlns="http://www.w3.org/2000/svg"><path d="m332.779 2176c2.486 0 3.955-1.57 3.955-3.42a3.115 3.115 0 0 0 -2.167-3.07l-1.41-.62c-.916-.39-1.687-.68-1.687-1.48a1.3 1.3 0 0 1 1.556-1.19 3.322 3.322 0 0 1 2.283.93l1.091-1.42a4.669 4.669 0 0 0 -3.374-1.45c-2.181 0-3.723 1.42-3.723 3.26a3.25 3.25 0 0 0 2.181 3.04l1.44.64c.96.43 1.614.69 1.614 1.53 0 .79-.6 1.29-1.716 1.29a4.129 4.129 0 0 1 -2.734-1.25l-1.236 1.56a5.608 5.608 0 0 0 3.927 1.65zm10.781 0c2.85 0 4.813-2.25 4.813-5.91s-1.963-5.81-4.813-5.81-4.814 2.13-4.814 5.81c0 3.66 1.964 5.91 4.814 5.91zm0-1.96c-1.6 0-2.618-1.54-2.618-3.95s1.018-3.87 2.618-3.87 2.617 1.45 2.617 3.87-1.018 3.95-2.617 3.95zm7.386 1.74h2.036v-4.53c0-1.3-.16-2.71-.262-3.94h.073l1.09 2.43 3.112 6.04h2.181v-11.29h-2.035v4.5c0 1.28.159 2.78.276 3.96h-.073l-1.076-2.45-3.126-6.01h-2.2v11.29zm11.612 0h2.152v-11.29h-2.152zm10.042.22a4.262 4.262 0 0 0 3.432-1.67l-1.134-1.4a2.925 2.925 0 0 1 -2.225 1.11c-1.7 0-2.807-1.48-2.807-3.93 0-2.43 1.222-3.89 2.85-3.89a2.712 2.712 0 0 1 1.978.94l1.134-1.43a4.274 4.274 0 0 0 -3.155-1.45c-2.72 0-5 2.18-5 5.9-.004 3.77 2.207 5.82 4.927 5.82zm12.083-4.87.32-1.24c.32-1.17.64-2.45.916-3.69h.058c.32 1.22.611 2.52.946 3.69l.32 1.24zm3.781 4.65h2.254l-3.461-11.29h-2.53l-3.447 11.29h2.182l.756-2.9h3.49zm5.208 0h2.152v-9.41h3.054v-1.88h-8.231v1.88h3.025zm13.453 0h2.152v-9.41h3.054v-1.88h-8.231v1.88h3.025zm7.479 0h2.152v-4.88h4.072v4.88h2.137v-11.29h-2.137v4.44h-4.072v-4.44h-2.156v11.29zm11.616 0h6.762v-1.89h-4.61v-3.02h3.781v-1.89h-3.781v-2.61h4.45v-1.88h-6.6v11.29zm17.729.22c2.85 0 4.813-2.25 4.813-5.91s-1.963-5.81-4.813-5.81-4.814 2.13-4.814 5.81c-.001 3.66 1.965 5.91 4.813 5.91zm0-1.96c-1.6 0-2.618-1.54-2.618-3.95s1.018-3.87 2.618-3.87 2.617 1.45 2.617 3.87-1.019 3.95-2.618 3.95zm7.386 1.74h6.514v-1.89h-4.362v-9.4h-2.152zm9.441 0h2.152v-4.13l3.243-7.16h-2.239l-1.076 2.75c-.306.84-.626 1.63-.96 2.5h-.058c-.335-.87-.626-1.66-.931-2.5l-1.076-2.75h-2.283l3.228 7.16zm7 0h1.934v-4.71c0-1.07-.174-2.64-.276-3.71h.058l.858 2.66 1.672 4.74h1.237l1.657-4.74.873-2.66h.058c-.1 1.07-.262 2.64-.262 3.71v4.71h1.963v-11.29h-2.385l-1.788 5.28c-.233.7-.422 1.45-.655 2.18h-.072c-.218-.73-.422-1.48-.655-2.18l-1.832-5.28h-2.385zm12.628 0h2.152v-4.01h1.44c2.312 0 4.159-1.16 4.159-3.74 0-2.67-1.832-3.54-4.217-3.54h-3.538v11.29zm2.152-5.8v-3.7h1.222c1.483 0 2.268.44 2.268 1.75s-.712 1.95-2.195 1.95h-1.3zm8.363 5.8h2.152v-11.29h-2.152zm10.041.22a4.262 4.262 0 0 0 3.432-1.67l-1.134-1.4a2.925 2.925 0 0 1 -2.225 1.11c-1.7 0-2.807-1.48-2.807-3.93 0-2.43 1.222-3.89 2.85-3.89a2.712 2.712 0 0 1 1.978.94l1.134-1.43a4.274 4.274 0 0 0 -3.155-1.45c-2.72 0-5 2.18-5 5.9-.008 3.77 2.203 5.82 4.922 5.82zm14.686 0a4.926 4.926 0 0 0 3.49-1.36v-5.1h-3.824v1.85h1.9v2.23a2.126 2.126 0 0 1 -1.353.42c-2.108 0-3.184-1.48-3.184-3.93 0-2.43 1.25-3.89 3.039-3.89a2.775 2.775 0 0 1 2.108.94l1.149-1.43a4.422 4.422 0 0 0 -3.33-1.45c-2.865 0-5.162 2.18-5.162 5.9 0 3.77 2.221 5.82 5.162 5.82zm8.284-4.87.32-1.24c.32-1.17.64-2.45.916-3.69h.058c.32 1.22.611 2.52.945 3.69l.32 1.24zm3.781 4.65h2.254l-3.461-11.29h-2.531l-3.446 11.29h2.173l.757-2.9h3.489zm4.055 0h1.934v-4.71c0-1.07-.174-2.64-.276-3.71h.058l.858 2.66 1.672 4.74h1.236l1.658-4.74.873-2.66h.058c-.1 1.07-.262 2.64-.262 3.71v4.71h1.963v-11.29h-2.385l-1.788 5.28c-.233.7-.422 1.45-.655 2.18h-.072c-.219-.73-.422-1.48-.655-2.18l-1.832-5.28h-2.385zm12.628 0h6.762v-1.89h-4.61v-3.02h3.781v-1.89h-3.781v-2.61h4.45v-1.88h-6.6v11.29zm12.956.22c2.486 0 3.955-1.57 3.955-3.42a3.115 3.115 0 0 0 -2.167-3.07l-1.41-.62c-.916-.39-1.687-.68-1.687-1.48a1.3 1.3 0 0 1 1.556-1.19 3.32 3.32 0 0 1 2.283.93l1.091-1.42a4.667 4.667 0 0 0 -3.374-1.45c-2.181 0-3.723 1.42-3.723 3.26a3.25 3.25 0 0 0 2.182 3.04l1.439.64c.96.43 1.614.69 1.614 1.53 0 .79-.6 1.29-1.716 1.29a4.125 4.125 0 0 1 -2.733-1.25l-1.236 1.56a5.606 5.606 0 0 0 3.926 1.65zm9.629-3.79h3.97v-1.6h-3.97zm12.2 3.57h2.152v-9.41h3.054v-1.88h-8.231v1.88h3.025zm11.607.22c2.85 0 4.813-2.25 4.813-5.91s-1.963-5.81-4.813-5.81-4.814 2.13-4.814 5.81c.002 3.66 1.966 5.91 4.816 5.91zm0-1.96c-1.6 0-2.618-1.54-2.618-3.95s1.018-3.87 2.618-3.87 2.617 1.45 2.617 3.87-1.016 3.95-2.615 3.95zm7.386 1.74h2.152v-3.17l1.411-1.89 2.777 5.06h2.37l-3.868-6.85 3.287-4.44h-2.371l-3.562 4.9h-.044v-4.9h-2.152zm12.953 0h2.152v-4.13l3.243-7.16h-2.24l-1.076 2.75c-.305.84-.625 1.63-.96 2.5h-.058c-.334-.87-.625-1.66-.93-2.5l-1.076-2.75h-2.28l3.229 7.16v4.13zm10.8.22c2.851 0 4.814-2.25 4.814-5.91s-1.963-5.81-4.814-5.81-4.813 2.13-4.813 5.81c-.001 3.66 1.962 5.91 4.812 5.91zm0-1.96c-1.6 0-2.617-1.54-2.617-3.95s1.018-3.87 2.617-3.87 2.618 1.45 2.618 3.87-1.019 3.95-2.619 3.95zm10.481 1.74h7.212v-1.89h-2.341c-.494 0-1.207.06-1.745.12 1.963-2.01 3.577-4.21 3.577-6.25a3.232 3.232 0 0 0 -3.388-3.48 4.285 4.285 0 0 0 -3.417 1.71l1.163 1.22a2.745 2.745 0 0 1 1.978-1.16 1.585 1.585 0 0 1 1.614 1.83c0 1.74-1.731 3.86-4.653 6.61zm13.347.22c2.181 0 3.636-2.02 3.636-5.91s-1.455-5.81-3.636-5.81-3.65 1.91-3.65 5.81 1.453 5.91 3.649 5.91zm0-1.76c-.93 0-1.628-.97-1.628-4.15 0-3.16.7-4.07 1.628-4.07s1.614.91 1.614 4.07c-.001 3.18-.699 4.15-1.615 4.15zm5.879 1.54h7.213v-1.89h-2.345c-.5 0-1.207.06-1.745.12 1.963-2.01 3.577-4.21 3.577-6.25a3.232 3.232 0 0 0 -3.388-3.48 4.283 4.283 0 0 0 -3.417 1.71l1.163 1.22a2.743 2.743 0 0 1 1.978-1.16 1.586 1.586 0 0 1 1.614 1.83c0 1.74-1.731 3.86-4.654 6.61v1.29zm13.348.22c2.181 0 3.635-2.02 3.635-5.91s-1.454-5.81-3.635-5.81c-2.2 0-3.65 1.91-3.65 5.81s1.453 5.91 3.649 5.91zm0-1.76c-.931 0-1.629-.97-1.629-4.15 0-3.16.7-4.07 1.629-4.07.916 0 1.614.91 1.614 4.07-.001 3.18-.694 4.15-1.615 4.15z" fill="#fff" fill-rule="evenodd" transform="translate(-328.844 -2164.28)"/></svg>