<svg id="レイヤー_1" data-name="レイヤー 1" xmlns="http://www.w3.org/2000/svg" width="20" height="24" viewBox="0 0 20 24">
  <defs>
    <style>
      .cls-1 {
        fill: #fff;
      }
    </style>
  </defs>
  <title>btn_ch</title>
  <g id="レイヤー_2" data-name="レイヤー 2">
    <g id="レイヤー_1-2" data-name="レイヤー 1-2">
      <g>
        <path class="cls-1" d="M9.06,7,7.88,8.38a3.32,3.32,0,0,0-2.22-.87C4,7.52,2.73,8.75,2.73,12s1.25,4.44,3,4.44a3.9,3.9,0,0,0,2.43-1l1,1.34a5,5,0,0,1-3.61,1.5C2.49,18.25.32,16,.32,12s2.29-6.22,5.2-6.22A5,5,0,0,1,9.06,7Z"/>
        <path class="cls-1" d="M13.11,12.63V18H10.82V6h2.29v4.8h4.26V6h2.3V18h-2.3V12.63Z"/>
      </g>
    </g>
  </g>
</svg>
