<svg id="レイヤー_1" data-name="レイヤー 1" xmlns="http://www.w3.org/2000/svg" width="25" height="24" viewBox="0 0 25 24">
  <defs>
    <style>
      .cls-1 {
        fill: #fff;
      }
    </style>
  </defs>
  <title>sns_in</title>
  <g>
    <path class="cls-1" d="M13.59,10.66v0l0,0Z"/>
    <path class="cls-1" d="M7.53,20.7H3.63V9h3.9Zm-2-13.34h0A2,2,0,1,1,5.61,3.3a2,2,0,1,1,0,4.06Zm16,13.34H17.7V14.42c0-1.58-.56-2.65-2-2.65a2.14,2.14,0,0,0-2,1.43,2.66,2.66,0,0,0-.13,1V20.7H9.69s0-10.63,0-11.73h3.9v1.66a3.87,3.87,0,0,1,3.52-1.94c2.57,0,4.49,1.68,4.49,5.28Z"/>
  </g>
</svg>
