<svg height="317.22" viewBox="0 0 620.437 317.22" width="620.437" xmlns="http://www.w3.org/2000/svg"><g fill="#fff" fill-rule="evenodd" transform="translate(-67.594 -1656.28)"><path d="m108.4 1671.7a49.957 49.957 0 0 1 -3.794 13.62 55.73 55.73 0 0 1 -4.621-12.25c.145-.46.341-.91.487-1.37zm8.658 0v-5.77h-14.836c.681-2.71 1.216-5.56 1.7-8.42l-5.886-1.02c-1.167 8.21-3.4 15.97-7.2 20.92v-20.11h-5.736v27.97l-5.156 1.63v-24.9h-5.691v24.6a3.8 3.8 0 0 1 -1.8 3.62 23.772 23.772 0 0 1 2.238 5.57c1.07-.92 2.675-1.84 10.409-4.7v13.17h5.74v-25.62a30.4 30.4 0 0 1 3.5 4.74 33.24 33.24 0 0 0 2.529-3.67 55.107 55.107 0 0 0 4.621 11.12 27.373 27.373 0 0 1 -10.117 8.58 26.593 26.593 0 0 1 3.745 4.95 32.709 32.709 0 0 0 9.631-8.37 31.431 31.431 0 0 0 8.707 8.01 20.849 20.849 0 0 1 3.94-5 28.212 28.212 0 0 1 -9.29-8.11c2.87-5.26 4.767-11.64 6.031-19.19h2.919zm13-2.4a50.833 50.833 0 0 0 3.891-5.57c1.8 1.84 3.6 3.83 5.108 5.57h-9zm20.916-1.13.681-2.85h7.929l-.535 2.85zm18.825 28.64a88.96 88.96 0 0 0 -7.54-6.18c1.946-1.94 4.135-4.54 6.226-6.99l-4.669-2.76a53.831 53.831 0 0 1 -4.913 7.1l-.778-.51v-7.1h11.187v-5.31h-6.222c.973-4.44 1.994-9.59 2.578-13.98l-3.94-.56-.924.2h-8.026c.292-1.27.584-2.55.827-3.67l-5.4-.56c-.973 5.25-2.676 12.04-3.94 16.28h13.863l-.487 2.29h-15.418v5.31h10.555v7.56c-4.232 3.21-8.512 6.32-11.382 8.26l-.1-1.53-5.5.92v-12.35h5.642v-5.15h-5.638v-3.73h3.405v-4.85c.632.72 1.167 1.43 1.605 1.99l3.259-4.03c-1.7-1.99-5.059-5.31-7.783-7.96l.73-1.53-4.329-1.69a35.4 35.4 0 0 1 -9 11.84 30.665 30.665 0 0 1 1.751 5.97c.681-.61 1.411-1.27 2.092-1.99v2.25h3.6v3.73h-6.469v5.15h6.469v13.07c-2.675.35-5.2.71-7.2 1.02l1.168 5.46c4.669-.97 10.749-2.15 16.489-3.37l-.194-2.86 2.967 4.29c2.578-2.09 5.5-4.54 8.415-7.1v4.65c0 .51-.146.66-.73.66-.486 0-2.189 0-3.794-.05a17.356 17.356 0 0 1 1.557 5.15c2.772.06 4.864-.1 6.323-.91 1.605-.87 2-2.25 2-4.8v-4.95a107 107 0 0 1 8.22 7.3zm-45.189-11.18a72.867 72.867 0 0 1 1.6 8.83l3.94-1.18a77.821 77.821 0 0 0 -1.8-8.67zm15.322 8.11c.681-2.09 1.508-5.56 2.287-8.47l-3.7-.97a81.691 81.691 0 0 1 -1.557 8.63zm2.627-10.36a60.27 60.27 0 0 1 5.107 6.64l4.135-2.96a45.7 45.7 0 0 0 -5.3-6.28zm35.156 16.33h21.646v-6.07h-6.761v-31.69h-5.3a22.589 22.589 0 0 1 -8.367 3.16v4.65h6.518v23.88h-7.734v6.07zm41.084.72c6.664 0 12.6-4.85 12.6-13.27 0-8.22-5.059-11.99-11.09-11.99a8.9 8.9 0 0 0 -4.33 1.07l.681-8.01h13.085v-6.28h-19.26l-.973 18.32 3.259 2.25c2.092-1.43 3.259-1.99 5.4-1.99 3.648 0 6.081 2.45 6.081 6.83 0 4.44-2.627 6.95-6.373 6.95-3.356 0-5.885-1.74-7.928-3.83l-3.308 4.79a16.029 16.029 0 0 0 12.157 5.16zm44.269-15.36v-2.61h4.332v2.61h-4.329zm0-8.68h4.332v2.5h-4.329v-2.5zm14.349 0v2.5h-4.475v-2.5zm0 8.68h-4.475v-2.61h4.475zm-4.475 13.42v-2.3h9.68v-4.59h-9.68v-2.35h9.68v-17.09h-9.68v-2.1h10.458v-4.69h-10.454v-2.55a92.342 92.342 0 0 0 10.361-1.38l-3.307-4.54c-5.691 1.17-15.079 1.83-23.056 2.09a16.52 16.52 0 0 1 1.265 4.54c2.918-.05 6.031-.15 9.193-.31v2.15h-10.945v4.69h10.943v2.1h-9.339v12.35c-1.07-1.33-4.864-5.46-6.129-6.59v-1.48h5.2v-5.66h-5.2v-7.2a47.757 47.757 0 0 0 5.788-1.94l-3.842-4.64c-3.746 1.78-9.729 3.26-15.079 4.23a21.85 21.85 0 0 1 1.6 4.65c1.9-.26 3.891-.61 5.934-1.02v5.92h-6.956v5.66h6.178c-1.8 4.95-4.475 10.36-7.2 13.68a30.639 30.639 0 0 1 2.675 5.77 46.024 46.024 0 0 0 5.3-10.11v18.32h5.594v-19.9a46.029 46.029 0 0 1 2.918 5.15l3.211-4.59v4.49h9.347v2.35h-9.68v4.59h9.68v2.3h-12.4v4.8h29.429v-4.8h-11.48zm45.931-23.73a52.5 52.5 0 0 0 -7.686-12.25l-5.253 2.76a52.479 52.479 0 0 1 7.247 12.65zm-8.9 9.03c-2.432 1.02-4.913 2.09-7.345 3.17l-.875-27.61-6.032.25.973 29.81c-2.432 1.02-4.621 1.83-6.47 2.5l1.946 6.48c5.5-2.4 12.7-5.62 19.116-8.63zm26.413 15.26c-2.238-3.57-6.762-8.73-10.8-13.11 3.162-6.95 4.913-15.47 5.935-25.93l-6.373-.61c-1.8 20.97-6.809 33.32-22.229 39.45a34.719 34.719 0 0 1 4.621 5.36 35.163 35.163 0 0 0 14.787-12.41c3.6 4.29 7.3 8.99 9.1 12.3zm30.539-3.52v-17.66h17.175v-6.17h-17.173v-14.6h-6.227v38.43h-17.413v6.12h44.213v-6.12h-20.573zm34.014-1.99v-10h7.734v10zm7.734-15.26h-7.734v-8.27h7.734zm15.419-13.93a61.968 61.968 0 0 0 1.9-6.48l-5.5-1.33c-1.411 5.97-3.746 12.15-6.567 16.43v-8.27h-7.539c.826-2.19 1.7-4.74 2.529-7.29l-6.324-.92a56.985 56.985 0 0 1 -1.41 8.21h-5.5v37.92h5.254v-3.72h12.987v-23.84a37.386 37.386 0 0 1 3.746 2.86 44.636 44.636 0 0 0 4.28-8.06h10.409c-.535 18.01-1.167 25.67-2.578 27.3a2.514 2.514 0 0 1 -2.14.87c-1.265 0-4.134 0-7.248-.31a14.839 14.839 0 0 1 1.9 5.92 50.279 50.279 0 0 0 7.636-.1 6.423 6.423 0 0 0 4.67-2.8c1.994-2.71 2.529-10.82 3.162-33.64.048-.71.048-2.75.048-2.75h-13.713zm5.643 23.27a123.742 123.742 0 0 0 -7.151-11.33l-4.523 2.7a111.163 111.163 0 0 1 6.761 11.79z"/><path d="m87.027 1725.46h42v27.84c0 .67-.16.92-.8.92h-2.165l.722-1.18a125.888 125.888 0 0 0 -12.987-7.57h12.506v-5.88h-6.333q1.081-2.025 2.645-4.54l-5.771-1.69a51.9 51.9 0 0 1 -2.485 6.06l.481.17h-3.44v-6.4c5.21-.33 10.18-.92 14.269-1.59l-3.848-5.13c-7.455 1.34-20.762 2.1-31.584 2.27a20.152 20.152 0 0 1 1.523 5.04c3.928.09 8.177 0 12.505-.16v5.97h-3.768l.722-.26a23.948 23.948 0 0 0 -2.325-5.38l-5.211 1.6a22.05 22.05 0 0 1 1.6 4.04h-5.53v5.88h11.222a41.372 41.372 0 0 1 -12.986 8.08 32.879 32.879 0 0 1 4.569 5.55 43.929 43.929 0 0 0 11.7-8.49v6.64h7.142v-6.06c4.328 2.53 8.817 5.39 11.463 7.32l2.565-3.53a36.692 36.692 0 0 1 2.565 6.56c3.046 0 5.612-.17 7.616-1.43 2.084-1.26 2.645-3.2 2.645-6.81v-35.67h-26.216c.721-1.51 1.443-3.19 2.164-4.87l-10.421-1.01c-.4 1.68-1.042 3.78-1.763 5.88h-23.889v43.07h8.9v-35.24zm57.156 46.34v-8.24h-32.867c.161-1.26.321-2.61.481-4.04h-10.02c-.16 1.43-.321 2.78-.561 4.04h-29.58v8.24h26.614c-3.527 5.3-11.062 8.41-28.057 10.01 1.6 2.1 3.768 5.97 4.249 8.41 22.526-2.69 31.1-8.49 34.79-18.42h3.368l-3.367 5.38c9.86 3.96 24.049 9.93 30.943 13.63l4.489-7.91c-6.413-3.11-18.277-7.65-27.335-11.1h26.854zm76.263-50.13v5.55h-11.546v-3.28h-9.3v3.28h-12.342v-5.55zm-3.367 21.7v3.37h-8.179v-3.37h8.177zm0 12.45h-8.179v-3.36h8.177v3.36zm-25.973 0v-3.36h8.5v3.36zm0-12.45h8.5v3.37h-8.5zm-5.852-9.17h14.346v3.03h-16.59v24.65h16.59v3.02h-20.358v7.24h20.358v5.55h9.3v-5.55h20.6v-7.24h-20.6v-3.02h16.674v-24.65h-16.674v-3.03h12.345v-3.11h8.337v-16.74h-51.061v16.74h6.733zm-10.742-8.49c-1.042-3.79-3.126-9.42-4.649-13.96l-8.417 2.69c1.363 4.54 3.527 10.68 4.409 14.55zm-1.2 23.89-1.363.25h-1.282c1.843-5.81 3.928-12.53 5.611-18.51h-19v8.92h7.375c-1.843 6.56-4.008 13.29-5.932 18.25h10.179a72.03 72.03 0 0 1 -4.489 14.47 36.184 36.184 0 0 0 -8.658 8.16l6.413 9.5c1.924-4.79 4.81-10.51 6.654-10.51 1.683 0 4.489 2.77 7.856 4.71 5.772 3.53 12.5 4.45 23.167 4.45 9.379 0 23.568-.58 30.141-1 .08-2.7 1.684-7.57 2.806-10.27a258.148 258.148 0 0 1 -32.466 2.19c-9.379 0-16.914-.5-22.366-3.95-2-1.26-3.527-2.36-4.729-3.2a104.637 104.637 0 0 0 5.691-20.69zm141.235-32.3h-12.508a51.483 51.483 0 0 0 -2-5.72l-8.337 1.6c.4 1.26.882 2.69 1.283 4.12h-11.628v7.57h33.188v-7.57zm1.683 16.15h-8.5c.881-2.11 1.843-4.29 2.805-6.73l-8.256-1.43a81.978 81.978 0 0 1 -2.325 8.16h-4.97a62.134 62.134 0 0 0 -2.726-7.99l-7.455 1.59c.722 1.94 1.363 4.21 2 6.4h-6.333v7.82h35.753v-7.82zm-37.356-16.15h-11.786c-.641-1.94-1.363-4.21-2.164-5.97l-8.417 1.76c.481 1.26.962 2.69 1.443 4.21h-12.185v7.57h33.107v-7.57zm.321 16.23h-6.335l2.725-6.73-8.5-1.51a74.807 74.807 0 0 1 -2.164 8.24h-5.291a75.892 75.892 0 0 0 -2.886-8.16l-7.535 1.68c.721 2.02 1.523 4.29 2.164 6.48h-7.054v7.74h34.871v-7.74zm-23.648 17.08h12.746v6.39h-12.748v-6.39zm16.914 22.45v-9.67h4.169v-19.26h-28.861v19.26h4.81c-.642 8.24-2.405 15.22-9.94 19.68a21.75 21.75 0 0 1 5.29 6.9c9.459-5.89 11.945-15.23 12.906-26.58h3.528v9.76c0 3.02-.962 4.2-2.245 4.96a37.7 37.7 0 0 1 2.966 8.66l.08.67c1.283-1.51 3.447-3.11 15.071-10.26a43.167 43.167 0 0 1 -1.764-7.57zm17.556-22.45h14.75v6.22h-14.75zm18.117 31.12a1.332 1.332 0 0 1 -1.043-.34 5.2 5.2 0 0 1 -.24-2.27v-15.81h6.249v-19.1h-30.861v19.1h4.73c-.8 9-3.047 16.14-12.666 20.52a23.572 23.572 0 0 1 4.97 6.98c11.784-5.89 14.83-15.39 15.952-27.5h3.207v15.56c0 5.21.561 6.89 2 8.24a7.5 7.5 0 0 0 5.451 2.02h4.417a11.032 11.032 0 0 0 4.409-.84 5.845 5.845 0 0 0 2.806-3.12 34.687 34.687 0 0 0 1.122-8.15 19.992 19.992 0 0 1 -6.493-3.71c-.081 3.03-.161 5.39-.321 6.48a2.527 2.527 0 0 1 -.8 1.68 2.664 2.664 0 0 1 -1.282.26h-1.6zm68.318-31.71c.8.92 1.6 1.76 2.485 2.6h-24.69c.8-.84 1.6-1.68 2.325-2.6zm-17.876-9.17h14.349v2.35h-14.351v-2.35zm0-7.57h14.349v2.52h-14.351v-2.52zm-18.918-5.38v-3.96h51.942v3.96h-9.78v-2.86h-8.9v2.86h-14.346v-2.86h-8.738v2.86h-10.18zm11.784 32.04v-2.44h28.458v2.44h-28.46zm28.457 11.69v2.69h-28.459v-2.69h28.46zm-28.457-4.54v-2.52h28.458v2.52h-28.46zm37.6-6.9a46.572 46.572 0 0 0 8.9 4.04 34.991 34.991 0 0 1 5.852-7.57 54.231 54.231 0 0 1 -15.953-6.64h13.299v-6.82h-19.319v-2.35h10.261v-5.05h-10.261v-2.52h10.822v-2.78h8.016v-14.04h-28.377a42.5 42.5 0 0 0 -2.726-5.81l-9.459 2.53c.481 1.01.962 2.1 1.443 3.28h-30.54v14.04h8.1v2.78h10.742v2.52h-9.78v5.05h9.78v2.35h-19.325v6.82h15.311a58.128 58.128 0 0 1 -18.117 8.24 33.774 33.774 0 0 1 5.612 7.15 59.353 59.353 0 0 0 9.379-4.21v17.92h7.214a105.862 105.862 0 0 1 -19.479 4.62 79.767 79.767 0 0 1 5.451 6.4c8.978-1.35 19.8-4.55 26.374-7.99l-4.169-3.03h14.83l-3.767 3.28a214.514 214.514 0 0 1 22.844 7.74l7.936-5.56c-4.489-1.42-11.062-3.53-17.716-5.46h6.814v-18.93zm53.128-4.37-9.86 3.36v-29.18h8.9v-9.25h-27.424v9.25h8.9v32.3c-4.169 1.34-8.017 2.52-11.063 3.44l3.928 9.59c8.016-3.02 18.438-6.98 28.137-10.85zm12.185 5.21h21v5.39h-21zm0-12.28h21v5.39h-21zm0-12.02h21v5.3h-21zm30.3 37v-44.4h-16.755c.642-1.85 1.363-3.79 2-5.81h17.716v-8.41h-45.372v8.41h16.915c-.321 1.85-.642 3.87-1.042 5.81h-12.586v44.4h8.1c-4.088 3.45-12.024 7.57-18.517 9.68a49.186 49.186 0 0 1 5.772 6.81 72.949 72.949 0 0 0 20.762-11.02l-7.375-5.47h30.377zm-18.678 5.56c5.211 3.19 12.185 7.99 15.472 11.1l7.535-5.89c-3.687-3.2-10.9-7.65-15.952-10.51zm48.079-4.88v-9.93h37.115v9.93h-37.12zm37.115-29.27v9.92h-37.12v-9.92h37.115zm0-19.09v9.67h-37.12v-9.67h37.115zm-46.735-9.76v73.09h9.62v-5.22h37.115v5.22h10.1v-73.09h-56.84zm92.862 45.08h8.257l2.806-28.76.4-12.54h-14.67l.321 12.54zm4.089 22.37a8.014 8.014 0 0 0 8.337-8.24 8.337 8.337 0 0 0 -16.674 0 8.014 8.014 0 0 0 8.332 8.24z"/><path d="m113.947 1809.42h7.82v-3.43h12.376v-7h-12.376v-4h-7.82v4h-8.976v7h8.976zm-27.812 0h7.888v-3.36h7.888v-7h-7.888v-4.07h-7.888v4.07h-12.921v7h12.92v3.36zm37.468 31.72v3.5h-12.852v-3.5h12.849zm-12.852 12.5v-3.65h12.849v3.65zm-7.344 7.85h7.344v-1.78h12.849v1.71h7.752v-26.29h-27.945zm10.608-40h5.712v4.64h-5.712zm13.328 4.64v-4.64h5.508v-6.5h-5.508v-4.57h-7.616v4.57h-5.712v-4.57h-7.415v4.57h-5.5v6.5h5.5v4.64h-7.069v6.65h-9.18v-2.93h7.888v-6.22h-7.888v-3.28a72.44 72.44 0 0 0 10-1.79l-4.352-5.5c-1.632.43-3.536.86-5.644 1.22v-3.86h-7.212v4.71c-3.4.29-6.936.5-10.2.57a29.987 29.987 0 0 1 1.7 5.65c2.72 0 5.576-.14 8.5-.36v2.64h-8.773v6.22h8.772v2.93h-10.268v6.86h8.16a39.647 39.647 0 0 1 -10 12.35 40.877 40.877 0 0 1 5.1 5.79 42.117 42.117 0 0 0 7-9.5v13.36h7.208v-13.86c1.972 2.28 3.808 4.64 4.964 6.28l4.692-6c-1.5-1.35-6.6-6-9.52-8.42h9.18v-6.79h34.816v-6.72h-7.14zm51.384 23.29v-12.14h14.892v12.14zm-22.78-12.14h14.416v12.14h-14.416zm14.416-20.22v11.93h-14.416v-11.93zm23.256 0v11.93h-14.892v-11.93zm-14.892-8.57v-13.5h-8.364v13.5h-22.509v53.15h8.093v-3.79h37.672v3.72h8.5v-53.08zm51.329-2.86-2.516 2.36c1.632 1.5 3.74 3.71 5.3 5.5h-13.324a53.229 53.229 0 0 0 6.528-7.86zm6.12 15.15h-10.744v-2.36h10.744zm-10.744 7v-2.43h10.744v2.43zm18.02 4.85v-19.14h-7.616l3.4-3.29a50.008 50.008 0 0 0 -4.556-4.57h10.2v-6.5h-15.028c.476-.86.884-1.78 1.292-2.64l-7.14-2.22a38.451 38.451 0 0 1 -10.2 13.79c1.36 1.29 3.808 3.93 5.032 5.43h-.68v48.08h7.276v-28.94zm5.917-19.14a48.8 48.8 0 0 0 5.78-7.93h4.828l-2.924 2.64a56.722 56.722 0 0 1 5.712 5.29h-13.4zm5.372 7.29v-2.36h11.016v2.36zm0 7v-2.43h11.016v2.43zm-14.621 22.93v-3.07h11.221v3.07zm11.221-10.65v3h-11.221v-3zm25.568-40.93h-18.632c.408-1 .748-1.93 1.088-2.93l-7.344-1.93a34.771 34.771 0 0 1 -8.841 14.43 47.4 47.4 0 0 1 5.917 4.79h-1.632v19.14h18.292v20.29a1.111 1.111 0 0 1 -1.36 1.36c-.816 0-3.332.07-5.916-.07v-18.86h-25.637v22.5h7.276v-2.5h17.273a29.567 29.567 0 0 1 1.7 6.22c5.032.07 8.636-.08 11.016-1.36 2.448-1.14 3.2-3.22 3.2-7.15v-39.57h-7.548l3.74-3.43a59.441 59.441 0 0 0 -4.9-4.5h12.308zm57.85 7.79h-9.724v-4.14h9.724zm7.548-9.22h-24.407v14.29h24.412v-14.29zm-36.108 9.22h-9.52v-4.14h9.52zm7.548-9.22h-24.276v14.29h24.276zm-13.94 37.36v-3.85h11.493v3.85zm0-13.71h11.493v3.78h-11.493zm32.028 3.78h-12.235v-3.78h12.24v3.78zm0 9.93h-12.235v-3.85h12.24v3.85zm14.213 10.22h-26.448v-3.72h20.536v-26.78h-48.217v26.78h19.381v3.72h-25.842v7.28h25.842v9.08h8.3v-9.08h26.453v-7.28zm57.014-37.08h-12.376v-4.71h12.376zm7.344-10.64h-26.589v16.57h26.589zm-34.341 34.79-1.292-7.5-4.9 1.71v-10.28h5.644v-7.86h-5.644v-13.43h-7.548v13.43h-6.6v7.86h6.6v12.78c-2.856.86-5.372 1.65-7.548 2.22l1.9 8.14c1.768-.64 3.672-1.28 5.644-2v14.86c0 .78-.2 1.07-.952 1.07-.612 0-2.448 0-4.352-.07a25.97 25.97 0 0 1 1.972 7.57c3.876 0 6.46-.28 8.364-1.57 1.972-1.29 2.516-3.36 2.516-7.07v-17.5zm8.432 12.43a47.311 47.311 0 0 1 -10.608 10.79 57.557 57.557 0 0 1 5.508 5.35 72.666 72.666 0 0 0 12.037-13.57zm4.761-17.15h-5.577v-5.28h5.577zm15.3-5.28h5.848v5.28h-5.848zm13.464 22.29v-6.86h-17.136v-4.36h15.98v-16.79h-18.566v16.5h-2.65v-16.5h-17.95v16.79h15.5v4.36h-16.387v6.86h16.387v17.14h7.684v-17.14h6.324l-4.692 4.21c4.012 3.5 9.044 8.5 11.22 11.93l5.44-5.14a80.648 80.648 0 0 0 -11.424-11h10.268zm24.313-49.44c-3.4 10.15-9.316 20.29-15.5 26.72a59.081 59.081 0 0 1 4.488 9.07c1.36-1.57 2.788-3.36 4.216-5.14v35.72h8.16v-48.94a113.108 113.108 0 0 0 6.528-14.86zm48.757 19.43v-8.07h-26.385a87.17 87.17 0 0 0 3.332-8.86l-7.82-2.07c-3.06 10.22-8.432 20.5-14.416 26.93a56.5 56.5 0 0 1 6.188 5.93 79.352 79.352 0 0 0 8.908-13.86h2.584v47.01h8.3v-15.86h18.5v-7.86h-18.5v-8.07h17.613v-7.72h-17.617v-7.5z"/><path d="m164.046 1938.46a56.583 56.583 0 0 0 -8.1-7.03 92.366 92.366 0 0 0 7.561-9.07l-10.478-3.96a47.175 47.175 0 0 1 -5.832 6.8c-2.377-1.7-4.861-3.18-7.021-4.54l-7.345 6.47q3.4 2.2 7.129 4.76c-2.269 1.7-4.537 3.4-6.805 4.87-4.213-7.03-7.129-15.64-9.181-25.5.54-5.79.864-12.02.972-18.6h41.369v-12.12h-41.154v-13.27h-13.61v13.27h-42.017v12.12h41.909c-.756 36.73-5.616 57.25-43.853 68.13a40.736 40.736 0 0 1 7.777 12.36c24.735-7.6 37.156-19.61 43.313-36.62 7.777 18.37 20.091 30.27 41.909 36.28a47.04 47.04 0 0 1 7.885-12.13c-16.85-3.85-27.759-11.68-35.1-23.47a74.939 74.939 0 0 1 8.533 6.92 55.44 55.44 0 0 0 6.7-5.55 57.327 57.327 0 0 1 7.669 7.14zm-59.84-27.77a78.833 78.833 0 0 0 -7.02-5.56c2.7-2.72 5.292-5.44 7.453-8.04l-9.83-4.09a55.384 55.384 0 0 1 -6.157 6.35c-2.916-1.7-5.617-3.4-8.209-4.76l-6.913 6.8c2.268 1.36 4.753 2.84 7.345 4.54a91.609 91.609 0 0 1 -9.937 6.46 68.8 68.8 0 0 1 8.317 7.59c3.24-2.26 6.7-4.98 10.261-7.93a58.018 58.018 0 0 1 7.237 6.46zm-3.024 27.43a59.508 59.508 0 0 0 -5.833-5.55 85.3 85.3 0 0 0 8.317-9.75l-10.366-4.08a79.176 79.176 0 0 1 -6.481 7.37c-2.052-1.48-4.213-2.84-6.157-4.09l-7.345 6.35c1.944 1.25 4 2.84 6.157 4.2a85.494 85.494 0 0 1 -9.721 6.8 74.577 74.577 0 0 1 8.641 7.93 107.118 107.118 0 0 0 9.606-7.59 54.176 54.176 0 0 1 5.509 5.44zm50.118-45.34a80.57 80.57 0 0 1 -5.941 6.46c-2.808-1.7-5.508-3.4-8.1-4.76l-6.912 6.69c2.376 1.36 4.968 3.06 7.452 4.76a83.217 83.217 0 0 1 -9.613 6.8 80.334 80.334 0 0 1 8.533 7.59c3.133-2.26 6.373-5.1 9.83-8.16a56.958 56.958 0 0 1 7.128 6.46l7.561-7.59a88.64 88.64 0 0 0 -7.345-6.01c2.7-2.72 5.185-5.44 7.345-8.05zm38.211 29.47a157.78 157.78 0 0 0 4.861-31.85l-9.182-1.25c-.756 9.41-2.7 21.99-5.292 29.59zm31.972-15.3c-1.4-5.56-5.077-14.63-8.425-21.43l-5.833 2.61v-21.31h-12.745v105.76h12.745v-76.29a103.556 103.556 0 0 1 4.861 15.31zm29.811-10.54h10.906v20.74h-11.23c.216-3.51.324-6.91.324-10.32zm30.244 33.55v-12.81h-6.805v-33.21h-23.439v-17.12h-12.961v17.12h-18.578v12.47h18.578v10.31c0 3.4 0 6.8-.324 10.43h-23.223v12.81h21.5c-2.917 12.47-9.83 24.49-26.248 32.87 2.809 2.5 7.345 7.49 9.073 10.43 18.687-11.22 26.788-27.09 30.136-43.3h32.3zm-31.756 6.12c7.021 11.45 16.526 27.09 20.631 36.16l11.665-6.91c-4.645-8.96-14.582-23.92-21.6-34.92zm70.917-5.55v-24.83h10.045v-12.81h-10.044v-24.6h-11.882v24.6h-11.666v12.81h11.666v30.04c-5.293 2.27-10.045 4.08-14.042 5.56l5.185 13.6c9.829-4.65 21.926-10.77 33.16-16.55l-2.917-12.02zm36.833 28c-6.589 0-7.561-1.02-7.561-7.6v-35.03l8.965-4.08v34.58h11.989v-40.02l8.317-3.85c-.432 13.37-1.3 27.77-2.484 36.95l10.477 3.06c2.593-13.6 4.1-34.23 4.753-49.99l.432-2.04-9.721-3.29-11.774 5.33v-25.84h-11.989v31.28l-8.965 3.97v-24.26h-12.314v29.81l-10.585 4.77 4.753 11.9 5.832-2.61v29.25c0 15.53 4.213 19.72 18.8 19.72h23.006c12.638 0 16.31-5.44 18.038-21.31a32.555 32.555 0 0 1 -11.233-4.87c-.972 11.56-2.052 14.17-7.885 14.17zm89.862-52.38c0 11.79-.972 28.68-10.153 39.79a41.423 41.423 0 0 1 7.453 7.83c10.153-11.45 12.637-28.34 13.069-41.95h6.157c-.432 21.77-.972 29.59-2.268 31.63a2.849 2.849 0 0 1 -2.7 1.47 49.9 49.9 0 0 1 -6.372-.34 28.86 28.86 0 0 1 2.808 10.77 57.234 57.234 0 0 0 9.5-.45 7.887 7.887 0 0 0 6.157-4.2c2.484-3.51 3.132-14.73 3.78-45.23v-4.64h-16.954v-8.28h14.69c2.052 1.59 5.293 4.2 7.345 6.12v7.14h14.8a52.042 52.042 0 0 1 -5.509 5.56v7.03h-12.097v10.65h12.1v13.27c0 1.02-.324 1.36-1.62 1.36-1.188 0-5.185 0-9.181-.12a36.022 36.022 0 0 1 3.564 11.11c6.157 0 10.693-.11 13.934-1.92 3.564-1.82 4.212-4.99 4.212-10.32v-13.38h12.53v-10.65h-12.539v-4.42a112.267 112.267 0 0 0 11.99-13.15l-6.805-5.56-2.052.68h-20.303c1.188-2.15 2.377-4.31 3.565-6.8h25.491v-11.11h-20.847c.972-2.95 1.944-5.78 2.809-8.73l-10.8-3.06a89.107 89.107 0 0 1 -8.425 21.54v-6.35h-9.937a121.088 121.088 0 0 0 -4.212-13.49l-11.558 2.16c1.188 3.4 2.376 7.7 3.241 11.33h-13.72v11.11h8.857zm-13.61-19.83c-1.512-5.1-3.78-12.81-5.616-18.93l-9.829 3.06c1.62 6.12 4 14.39 5.184 19.49zm.648 31.51-1.62.34h-3.888c2.16-7.93 4.428-17 6.373-24.94h-22.035v12.02h8.538c-2.052 8.84-4.537 17.91-6.7 24.6h11.88a117.509 117.509 0 0 1 -5.293 19.95c-3.24 2.15-7.021 6.12-10.693 11.22l8.209 12.47c1.944-6.35 4.968-14.06 7.02-14.06 2.377 0 6.157 3.74 10.8 6.46 7.993 4.65 17.282 5.79 31.756 5.79 12.745 0 32.4-.8 41.152-1.25.216-3.52 2.269-9.86 3.673-13.15a401.741 401.741 0 0 1 -44.285 2.83c-12.746 0-23.115-.79-30.568-5.32-3.024-1.82-5.185-3.52-7.021-4.65a157.716 157.716 0 0 0 7.669-30.5zm189.235-42.96h-51.847v12.81h51.847zm-55.843 62.34-13.07 3.29v-20.4h10.694v-12.36h-10.694v-20.06h11.666v-12.47h-36.833v12.47h12.746v20.06h-11.665v12.36h11.665v23.46c-5.509 1.25-10.585 2.38-14.8 3.29l2.592 12.92c11.018-3.06 25.492-6.91 39.1-10.77zm46.121 22.34c-1.512 0-1.728-.46-1.728-4.31v-35.71h16.958v-12.92h-61.675v12.92h12.205c-.864 22.11-3.24 35.26-24.735 42.85a32.442 32.442 0 0 1 7.129 10.32c24.843-9.3 28.732-26.64 30.028-53.17h7.345v35.82c0 12.59 2.268 16.78 12.205 16.78h7.345c8.209 0 11.341-5.1 12.422-22.56-3.349-1.02-8.749-3.17-11.342-5.55-.216 13.37-.648 15.53-2.376 15.53zm57.355-25.85h11.126l3.78-38.77.54-16.89h-19.768l.432 16.89zm5.509 30.15c6.373 0 11.233-4.53 11.233-11.1a11.233 11.233 0 0 0 -22.466 0c-.002 6.57 4.858 11.1 11.231 11.1z"/></g></svg>