<svg height="21.25" viewBox="0 0 124.75 21.25" width="124.75" xmlns="http://www.w3.org/2000/svg"><path d="m741.105 1398.09c-.063 3.73-.147 5.07-.357 5.42a.527.527 0 0 1 -.525.31 8.9 8.9 0 0 1 -.944-.04 17.132 17.132 0 0 0 1.112-5.69zm-3.127-1.43c0 2.18-.168 5.44-1.847 7.49a10.3 10.3 0 0 1 1.742 1.85 7.479 7.479 0 0 0 1.343-2.11 7.365 7.365 0 0 1 .567 2.4 9.1 9.1 0 0 0 1.888-.13 1.828 1.828 0 0 0 1.3-.91c.483-.72.588-2.97.693-8.68 0-.31.021-1.04.021-1.04h-3.274v-1.21h2.98v-.33c.357.29.776.62 1.112.93v1.96h2.413a8.794 8.794 0 0 1 -.8.81v1.11h-2.057v2.49h2.057v1.94c0 .19-.063.26-.315.26-.231 0-1.007 0-1.7-.02a9.267 9.267 0 0 1 .819 2.62 5.7 5.7 0 0 0 2.833-.46c.776-.42.923-1.17.923-2.36v-1.98h2.2v-2.49h-2.2v-.55a24.643 24.643 0 0 0 2.2-2.54l-1.574-1.28-.483.16h-3.358c.168-.31.336-.64.5-1h4.785v-2.6h-3.694q.284-.75.5-1.47l-2.518-.73a18.823 18.823 0 0 1 -1.658 4.19v-1.26h-1.721c-.168-.75-.44-1.76-.713-2.56l-2.728.49c.168.62.356 1.39.482 2.07h-2.329v2.6h1.595v2.34zm-2.266-3.9c-.294-1.02-.756-2.54-1.113-3.75l-2.329.73c.315 1.23.8 2.88 1.028 3.92zm-.042 5.95-.378.09h-.546c.4-1.55.8-3.27 1.133-4.81h-4.553v2.84h1.448c-.378 1.7-.819 3.4-1.2 4.7h2.329a28.012 28.012 0 0 1 -.861 3.5 7.826 7.826 0 0 0 -2.182 2.01l1.91 3c.335-1.15.944-2.71 1.343-2.71a9.359 9.359 0 0 1 2.077 1.21c1.553.9 3.337 1.12 6.149 1.12 2.434 0 6.085-.15 7.89-.26a13.24 13.24 0 0 1 .839-3.13 63.6 63.6 0 0 1 -8.6.64c-2.435 0-4.512-.14-5.939-1.02-.483-.28-.86-.55-1.175-.77a34.687 34.687 0 0 0 1.427-6.02zm36.837-6.04c-.378-.9-1.175-2.38-1.742-3.46l-2.224 1.12a36.846 36.846 0 0 1 1.595 3.64zm-2.371 4.78a21.6 21.6 0 0 1 -1.154 3.35c-.105-1.01-.21-2.16-.294-3.41l4.029-.58-.336-2.77-3.861.55c-.063-1.77-.105-3.64-.105-5.58h-2.791c.042 2.12.084 4.1.168 5.95l-1.07.16c.189-.78.356-1.64.5-2.43l-1.783-.29-.378.07h-2.749v-.59h4.26v-1.99h-4.26v-.97h-2.812v3.55h-3.819v5.93c0 2.84-.084 6.83-1.259 9.61a9.961 9.961 0 0 1 2.014 1.7c1.448-3.11 1.7-8.07 1.7-11.31v-3.95h1.847v.89l-1.847.15.189 1.56 1.658-.15c.063 1.3.44 2.07 2.119 2.07h2.182a5.949 5.949 0 0 0 1.637-.15c-.084-.6-.105-1.06-.147-1.7a7.47 7.47 0 0 1 -1.615.16h-1.259c-.44 0-.5-.2-.5-.6l1.847-.15-.189-1.55-1.658.14v-.67h2.119c-.084.6-.189 1.17-.272 1.61l2.14.33c.063-.24.147-.53.231-.83l.294 2.38 1.049-.16a49.163 49.163 0 0 0 .86 6.75 11.492 11.492 0 0 1 -2.182 2.2v-.13l-1.406.09c.231-.36.482-.73.713-1.13l-2.476-.33a12.533 12.533 0 0 1 -.671 1.61l-.945.07a13.655 13.655 0 0 0 -.482-1.52l-2.036.35c.126.4.252.86.357 1.3-.756.04-1.448.09-2.057.11l.252 2.27c2.392-.15 5.666-.4 8.751-.66v-1.15a10.687 10.687 0 0 1 1.553 1.63 12.4 12.4 0 0 0 1.636-1.56 3.052 3.052 0 0 0 2.519 2.05c.86.02 2.056-.75 2.644-4.59a8.836 8.836 0 0 1 -2.078-1.8c-.084 1.74-.252 2.66-.524 2.66a1.3 1.3 0 0 1 -.651-1.01 24.562 24.562 0 0 0 2.623-6.3zm-5.5 1.81h-8.226v1.92h8.226zm-5.6 3.81h2.917v.69h-2.917zm5.288 2.12v-3.57h-7.514v3.57h7.513zm16.293-5.78c.042-.83.063-1.69.063-2.51h9.4v-7.98h-3.169v4.76h-6.233v-4.34h-3.078v7.49c0 3.6-.294 7.65-2.854 10.56a13.118 13.118 0 0 1 2.308 2.54 13.755 13.755 0 0 0 3.253-7.3h7.218v7.21h3.232v-10.43h-10.141zm24.352-9.56h-8.6v2.93h8.6zm-3.148 8.04h-2.35v-1.41h2.35zm2.707-3.88h-7.6v6.35h7.6zm-4.281 10.45a15.492 15.492 0 0 0 -.776-3.77l-2.413.64a16.85 16.85 0 0 1 .629 3.84zm4.827-.33-1.658.37c.294-1.01.609-2.22.944-3.39l-2.958-.62a33.644 33.644 0 0 1 -.63 4.52l.126.05c-1.847.39-3.589.75-4.911.99l.693 2.95c2.455-.59 5.687-1.39 8.667-2.16zm7.3-7.32h-3.734v-.99h3.736v.99zm0 3.11h-3.734v-.99h3.736v.99zm0 3.13h-3.734v-.99h3.736v.99zm2.916 2.29v-11.81h-3.67c.126-.38.252-.75.357-1.15h3.693v-2.66h-10.219v2.66h3.189c-.021.38-.084.77-.126 1.15h-2.644v11.81h1.889a14.037 14.037 0 0 1 -4.155 2.54 18.075 18.075 0 0 1 1.993 2.02 16.4 16.4 0 0 0 4.7-2.97l-2.266-1.59h7.26zm-4.658 1.61a27.827 27.827 0 0 1 3.357 2.93l2.435-1.67a34.58 34.58 0 0 0 -3.5-2.76zm11.047-13.09h4.621v.53h-4.617v-.53zm0-2.29h4.621v.53h-4.617v-.53zm8.352 5.46h-4.239c-.105-.26-.231-.53-.357-.77h3.882v-2.36a12.869 12.869 0 0 1 1.931 2.05 20.21 20.21 0 0 0 5.561-5.46l-2.9-1.22a13.557 13.557 0 0 1 -4.6 4.32v-3.9h-10.503v6.57h5.183l-1.615.33c.062.13.125.29.188.44h-4.637v2.41h12.108v-2.41zm4.323-1.74a15.737 15.737 0 0 1 -5.162 4.72 10.7 10.7 0 0 1 2.1 2.25 22.755 22.755 0 0 0 5.855-5.76zm-8.919 10.18v-.74h1.665zm-5.225-.74h2.245v2.38a.22.22 0 0 1 -.272.26h-.943a19.571 19.571 0 0 0 .987-2.01zm1.826-2.76h3.964v.75h-3.966v-.75zm6.925 2.76v-4.79h-9.737v4.79h.44a11.915 11.915 0 0 1 -1.741 2.9 20.539 20.539 0 0 1 2.035 1.68 14.551 14.551 0 0 0 1.07-1.59 10.574 10.574 0 0 1 .651 2.16 6.4 6.4 0 0 0 2.791-.39c.8-.4.965-1.04.965-2.3v-1.56a25.166 25.166 0 0 1 1.511 3.66l2.267-1.1a23.77 23.77 0 0 0 -1.616-3.46zm5.708-3.38a13.543 13.543 0 0 1 -5.834 5.8 11.6 11.6 0 0 1 2.1 2.51 18.215 18.215 0 0 0 6.569-7.23zm10.816-1.94c.042-.83.063-1.69.063-2.51h9.4v-7.98h-3.169v4.76h-6.229v-4.34h-3.085v7.49c0 3.6-.294 7.65-2.854 10.56a13.091 13.091 0 0 1 2.309 2.54 13.753 13.753 0 0 0 3.252-7.3h7.219v7.21h3.232v-10.43h-10.136z" fill="#fff" fill-rule="evenodd" transform="translate(-730.875 -1388.78)"/></svg>