<svg height="277.4" viewBox="0 0 631.313 277.4" width="631.313" xmlns="http://www.w3.org/2000/svg"><g fill="#fff" fill-rule="evenodd" transform="translate(-58.313 -3307.22)"><path d="m100.114 3330.79a66.183 66.183 0 0 0 -9.7-15.47l-6.632 3.48c3.684 4.77 7.614 11.54 9.149 15.98zm-11.237 11.4c-3.07 1.29-6.2 2.64-9.272 3.99l-1.105-34.85-7.614.32 1.228 37.63c-3.07 1.29-5.833 2.32-8.167 3.15l2.456 8.19c6.939-3.03 16.026-7.09 24.132-10.89zm33.342 19.26c-2.825-4.51-8.535-11.01-13.632-16.55 3.992-8.77 6.2-19.52 7.492-32.73l-8.044-.78c-2.272 26.48-8.6 42.07-28.062 49.81a44.56 44.56 0 0 1 5.833 6.76 44.289 44.289 0 0 0 18.667-15.65c4.544 5.41 9.211 11.33 11.483 15.52zm18.658-43.23h32.176v21.33c0 .51-.123.71-.614.71h-1.658l.552-.9a94.444 94.444 0 0 0 -9.947-5.8h9.579v-4.51h-4.851q.829-1.545 2.026-3.48l-4.421-1.29a40.235 40.235 0 0 1 -1.9 4.64l.368.13h-2.64v-4.9c3.991-.26 7.8-.71 10.93-1.22l-2.948-3.93c-5.71 1.03-15.9 1.61-24.193 1.74a15.407 15.407 0 0 1 1.167 3.86c3.009.07 6.263 0 9.579-.13v4.58h-2.886l.553-.2a18.343 18.343 0 0 0 -1.781-4.12l-3.991 1.23a16.867 16.867 0 0 1 1.228 3.09h-4.237v4.51h8.6a31.926 31.926 0 0 1 -9.947 6.18 25.6 25.6 0 0 1 3.5 4.25 33.568 33.568 0 0 0 8.965-6.5v5.09h5.465v-4.64c3.316 1.93 6.754 4.12 8.781 5.6l1.965-2.7a28.4 28.4 0 0 1 1.965 5.02c2.333 0 4.3-.13 5.833-1.09 1.6-.97 2.026-2.45 2.026-5.22v-27.32h-20.086c.553-1.16 1.1-2.45 1.658-3.73l-7.982-.78c-.307 1.29-.8 2.9-1.351 4.51h-18.3v32.99h6.816v-27zm43.781 35.5v-6.31h-25.175q.183-1.455.368-3.09h-7.676c-.122 1.09-.245 2.12-.429 3.09h-22.658v6.31h20.386c-2.7 4.06-8.474 6.45-21.492 7.67a19.8 19.8 0 0 1 3.255 6.44c17.254-2.06 23.824-6.51 26.649-14.11h2.579l-2.579 4.13c7.553 3.02 18.421 7.6 23.7 10.43l3.439-6.05c-4.913-2.39-14-5.87-20.939-8.51h20.57zm55.961-38.4v4.26h-8.842v-2.52h-7.123v2.52h-9.454v-4.26h25.421zm-2.579 16.63v2.57h-6.263v-2.57zm0 9.53h-6.263v-2.58h6.263zm-19.895 0v-2.58h6.509v2.58zm0-9.53h6.509v2.57h-6.509zm-4.482-7.03h10.991v2.32h-12.71v18.88h12.71v2.32h-15.6v5.54h15.6v4.25h7.123v-4.25h15.781v-5.54h-15.781v-2.32h12.772v-18.88h-12.772v-2.32h9.456v-2.38h6.386v-12.82h-39.114v12.82h5.158zm-8.228-6.5c-.8-2.9-2.4-7.22-3.562-10.7l-6.447 2.06c1.044 3.48 2.7 8.19 3.377 11.15zm-.921 18.29-1.044.2h-.983c1.413-4.45 3.009-9.6 4.3-14.18h-14.554v6.83h5.649c-1.412 5.03-3.07 10.18-4.544 13.98h7.8a55 55 0 0 1 -3.438 11.08 27.844 27.844 0 0 0 -6.632 6.25l4.913 7.28c1.473-3.67 3.684-8.05 5.1-8.05 1.29 0 3.439 2.13 6.018 3.61 4.421 2.7 9.579 3.41 17.745 3.41 7.185 0 18.053-.45 23.088-.77a28.923 28.923 0 0 1 2.149-7.86 198.5 198.5 0 0 1 -24.868 1.68c-7.184 0-12.956-.39-17.132-3.03-1.535-.97-2.7-1.81-3.623-2.45a80.207 80.207 0 0 0 4.36-15.85zm89.666 14.18v2.57h-21.43v-2.57zm-21.43 10.18v-2.58h21.43v2.58zm-7.185 6.76h7.185v-1.74h21.43v1.55h7.491v-21.78h-36.106zm-.307-41.55a72.057 72.057 0 0 0 7.43-3.55v1.29h21.553v-1.67a67.337 67.337 0 0 0 8.351 3.93zm33.036 12.82h-4.974c.982-1.81 2.149-4.32 3.377-6.9l-4.789-1.22h6.386zm-30.088 0v-8.12h6.938l-4.728 1.42a26.258 26.258 0 0 1 2.088 6.7h-4.3zm12.035 0h-6.263l3.93-1.29a30.025 30.025 0 0 0 -2.457-6.83h4.79zm10.316-8.12a51.7 51.7 0 0 1 -2.4 7.02l3.684 1.1h-5.71v-8.12h4.421zm-11.851-11.92c1.842-1.35 3.623-2.77 5.219-4.19a59.4 59.4 0 0 0 5.158 4.19zm3.5-11.85c-5.588 7.47-16.518 12.82-27.816 15.59a41.262 41.262 0 0 1 3.93 5.93c1.228-.33 2.517-.78 3.807-1.23v16.24h42.673v-16.63c1.29.39 2.579.84 3.808 1.16a26.107 26.107 0 0 1 4.6-5.86c-9.763-2-19.834-6.44-25.483-11.6.307-.38.614-.83.921-1.22zm67.407 51.15v-12.43h17.623v-7.41h-17.623v-11.15h20.57v-7.47h-19.465l3.255-2.51c-2.579-2.97-7.86-7.09-11.79-9.73l-6.017 4.38a91.349 91.349 0 0 1 9.21 7.86h-24.561v7.47h20.754v11.15h-17.5v7.41h17.5v12.43h-23.333v7.54h54.956v-7.54zm68.39-7.47v2.57h-21.43v-2.57h21.427zm-21.43 10.18v-2.58h21.427v2.58h-21.43zm-7.184 6.76h7.184v-1.74h21.427v1.55h7.491v-21.78h-36.102zm-.307-41.55a72.057 72.057 0 0 0 7.43-3.55v1.29h21.552v-1.67a67.337 67.337 0 0 0 8.351 3.93zm33.035 12.82h-4.974c.983-1.81 2.149-4.32 3.377-6.9l-4.789-1.22h6.386zm-30.088 0v-8.12h6.939l-4.728 1.42a26.294 26.294 0 0 1 2.087 6.7h-4.3zm12.035 0h-6.264l3.93-1.29a30.067 30.067 0 0 0 -2.456-6.83h4.789v8.12zm10.316-8.12a51.7 51.7 0 0 1 -2.395 7.02l3.685 1.1h-5.711v-8.12zm-11.851-11.92c1.842-1.35 3.623-2.77 5.219-4.19a59.55 59.55 0 0 0 5.158 4.19zm3.5-11.85c-5.588 7.47-16.518 12.82-27.816 15.59a41.262 41.262 0 0 1 3.93 5.93c1.228-.33 2.518-.78 3.807-1.23v16.24h42.676v-16.63c1.289.39 2.579.84 3.807 1.16a26.107 26.107 0 0 1 4.605-5.86c-9.763-2-19.833-6.44-25.483-11.6.308-.38.615-.83.922-1.22zm82.611 10.5h-15.84v-3.09h15.84zm0 8.12h-15.84v-3.1h15.84zm6.754-16.5h-29.044v21.78h29.044zm4.175 30.67v-6.44h-38.623v6.44h6.939a31.141 31.141 0 0 1 -5.649 6.83l-1.29-5.48-4.912 2.26v-15.21h5.772v-7.21h-5.772v-12.69h-6.754v12.69h-6.141v7.21h6.141v18.17c-2.886 1.23-5.465 2.32-7.553 3.16l2.7 7.73c3.745-1.93 8.166-4.25 12.587-6.57a25.512 25.512 0 0 1 4.79 4.51 38.893 38.893 0 0 0 7.123-6.32h3.684a37.738 37.738 0 0 1 -12.526 11.67 21.834 21.834 0 0 1 4.789 4.5 48.223 48.223 0 0 0 14.369-16.17h3.623c-2.641 6-6.755 11.73-11.422 14.82a20.294 20.294 0 0 1 5.158 4.25c4.974-4.05 9.764-11.85 12.281-19.07h2.395c-.676 7.8-1.412 11.09-2.272 12.05a2.05 2.05 0 0 1 -1.842.71c-.8 0-2.395 0-4.36-.19a15.81 15.81 0 0 1 1.658 5.99 37 37 0 0 0 6.2-.13 5.635 5.635 0 0 0 4.053-2.19c1.657-1.87 2.64-7.02 3.5-19.59.061-.9.122-2.64.122-2.64h-24.93c.614-1.03 1.228-2.06 1.72-3.09h24.438zm22.1 13.72a46.357 46.357 0 0 1 1.228 11.92l6.325-.84a46.749 46.749 0 0 0 -1.658-11.85zm9.272-.64a58.118 58.118 0 0 1 2.825 10.69l5.833-1.54a53.021 53.021 0 0 0 -2.947-10.44zm18.115-15.91c-.369 1.86-.737 3.67-1.106 5.21h-23.459a59.648 59.648 0 0 0 4.605-5.21h19.957zm-4.79-11.73c-.307 1.8-.675 3.54-1.044 5.09h-9.4c1.044-1.68 2.027-3.35 2.948-5.09h7.491zm16.886 16.94h-6.57c.737-3.48 1.535-7.99 2.21-11.85h-7c.8-3.54 1.72-7.93 2.334-11.79h-12.038q1.933-4.35 3.5-8.89l-7.307-2.13a75.2 75.2 0 0 1 -4.237 11.02h-8.9l3.07-1.35a45.044 45.044 0 0 0 -4.728-9.41l-6.324 2.58a54.762 54.762 0 0 1 3.868 8.18h-10.32v6.7h19.711c-5.649 9.21-13.386 17.2-23.518 22.1a47.811 47.811 0 0 1 3.807 6.7c1.535-.84 3.07-1.68 4.544-2.64-1.105 4.76-3.377 9.27-6.632 12.17l5.711 3.8c3.868-3.47 5.956-9.02 7.184-14.56l-5.587-1.86c1.105-.71 2.149-1.42 3.131-2.19h36.539c-.736 7.34-1.535 10.56-2.517 11.59a2.562 2.562 0 0 1 -2.026.71 46.16 46.16 0 0 1 -5.957-.32 17.333 17.333 0 0 1 1.965 6.83 50.833 50.833 0 0 0 7.307-.13 6.412 6.412 0 0 0 4.606-2.39c1.9-2.06 2.947-7.47 3.991-19.97zm-12.158 16.05a34.144 34.144 0 0 0 -3.991-8.51l-5.035 1.81a37.415 37.415 0 0 1 3.623 8.69zm58.4-20.43h-28v-3.93h28zm-28 20.23v-4.38h28v4.38zm28-10.24h-28v-4.19h28zm14.123-24.61v-7.09h-13.757c1.6-2 3.315-4.38 4.912-6.83l-8.412-1.93a51.084 51.084 0 0 1 -4.728 8.76h-14.062l2.7-1.48a44.077 44.077 0 0 0 -5.956-7.6l-6.509 3.09a58.545 58.545 0 0 1 4.421 5.99h-14.06v7.09h23.334c-.307 1.35-.614 2.7-1.044 4.06h-16.211v40.52h7.246v-3.03h28v3.03h7.614v-40.52h-18.544c.553-1.29 1.167-2.64 1.72-4.06h23.333zm14.569 31.12v-12.63h9.764v12.63zm9.764-19.27h-9.764v-10.43h9.764zm19.465-17.59a77.1 77.1 0 0 0 2.394-8.18l-6.938-1.67c-1.781 7.53-4.728 15.33-8.29 20.74v-10.43h-9.517c1.044-2.78 2.149-6 3.193-9.22l-7.983-1.16a72.248 72.248 0 0 1 -1.781 10.38h-6.938v47.86h6.631v-4.7h16.395v-30.09a45.243 45.243 0 0 1 4.728 3.61 56.253 56.253 0 0 0 5.4-10.18h13.14c-.675 22.74-1.473 32.41-3.254 34.47a3.193 3.193 0 0 1 -2.7 1.1c-1.6 0-5.219 0-9.149-.39a18.661 18.661 0 0 1 2.395 7.47 64.348 64.348 0 0 0 9.64-.13 8.119 8.119 0 0 0 5.9-3.54c2.518-3.41 3.193-13.66 3.991-42.46.062-.9.062-3.48.062-3.48h-17.322zm7.123 29.38a158.082 158.082 0 0 0 -9.027-14.3l-5.71 3.41a139.954 139.954 0 0 1 8.535 14.89z"/><path d="m105.4 3406.26a52.563 52.563 0 0 1 -12.939 9.64 63.33 63.33 0 0 0 -8.861-7.99c.784-.58 1.568-1.07 2.274-1.65zm8.7-9.06-1.647.41h-16.538c1.49-1.48 2.9-2.97 4.234-4.45l-10.037-2.47c-5.254 6.43-14.586 13.43-27.211 18.37a29.51 29.51 0 0 1 6.352 7c2.509-1.15 4.862-2.39 7.136-3.71a100.53 100.53 0 0 1 7.685 7.42 104.127 104.127 0 0 1 -23.134 6.26 36.837 36.837 0 0 1 4.313 8.65c22.585-4.45 44.855-14.66 54.971-33.61zm2.195 39.46a42.3 42.3 0 0 1 -13.174 11.36 78.448 78.448 0 0 0 -9.175-8.15c1.49-1.07 3.058-2.14 4.548-3.21h17.8zm7.842-9.15-1.725.5h-14.029c1.725-1.82 3.215-3.63 4.784-5.52l-10.116-2.47c-5.96 7.99-16.782 16.06-32.936 21.33a30.756 30.756 0 0 1 5.724 7.58 83.039 83.039 0 0 0 10.116-4.53c2.823 2.47 5.96 5.27 8.156 7.66-9.881 3.71-21.565 5.6-33.955 6.51a42.317 42.317 0 0 1 3.764 9.47c29.878-2.96 55.6-11.61 66.656-36.66zm59.843 21.91h20.624v-8.48h-20.616v-7.08a33.935 33.935 0 0 1 4.391 3.95 32.413 32.413 0 0 0 6.744-8.24 121.575 121.575 0 0 1 8.705 8.73l5.254-6.34a137.939 137.939 0 0 0 -10.744-9.72 51.5 51.5 0 0 0 2.51-9.89l-8.313-1.07c-1.176 7.83-3.921 14.5-8.547 19.12v-20.19h-9.018v19.36a101.991 101.991 0 0 0 -8.078-8.24 59.7 59.7 0 0 0 1.961-9.14l-8.391-.91c-1.176 8.9-4.156 16.56-9.959 21.26.235-4.2.314-8.16.314-11.7v-13.35h57.559v-9.06h-25.176a63.058 63.058 0 0 0 -4.627-8.48l-8.94 2.96a59.3 59.3 0 0 1 2.823 5.52h-30.814v22.33c0 12.11-.471 29.32-6.588 41.02a36.484 36.484 0 0 1 7.921 5.52c4.783-9.31 6.744-22.49 7.45-34.19a52.5 52.5 0 0 1 6.508 5.19 28.776 28.776 0 0 0 6.823-9.06 82.173 82.173 0 0 1 6.587 7.66l4.627-5.93v9.97h-19.919v8.48h19.919v8.16h-24.859v8.4h58.814v-8.4h-24.937v-8.16zm53.326-8.56h30.74v3.79h-30.74zm30.74-26.36v3.54h-30.74v-3.54zm0 17.63v3.21h-30.74v-3.21zm0-5.44h-30.74v-3.13h30.74zm19.527 26.03v-8.07h-10.108v-36.25h-21.33c.235-1.15.392-2.39.706-3.71h28.859v-8.15h-27.37l.785-4.78-9.8-.99c-.078 1.73-.313 3.71-.47 5.77h-28.861v8.15h27.76c-.235 1.32-.471 2.56-.706 3.71h-18.738v36.25h-10.43v8.07h21.409c-5.019 3.21-14.194 6.76-21.8 8.57a62.505 62.505 0 0 1 6.352 6.67c7.764-1.98 17.488-5.93 23.683-9.89l-7.293-5.35h22.9l-5.019 5.44a125.66 125.66 0 0 1 22.585 9.72l7.763-6.59a159.932 159.932 0 0 0 -21.643-8.57h20.781zm19.677-47.53h49.65v6.75h8.7v-14.33h-28.622a44.794 44.794 0 0 0 -3.607-7.33l-8.156 2.39a39.916 39.916 0 0 1 2.275 4.94h-28.623v14.33h8.391v-6.75zm8.626 43.91h32.622v2.63h-32.614v-2.63zm0-7.17h32.622v2.55h-32.614v-2.55zm0-7.09h32.622v2.39h-32.614v-2.39zm42.124 21.75v-26.69h-51.13v26.69h11.214a100.14 100.14 0 0 1 -20.624 5.11 47.056 47.056 0 0 1 4.941 6.67c9.1-1.4 20.075-4.61 26.662-8.15l-4.7-3.63h14.337l-3.215 3.71a250.362 250.362 0 0 1 23.84 7.99l6.352-6.01c-4.627-1.57-11.528-3.71-18.429-5.69zm-22.9-33.94.314-2.63h10.038l-.236 2.63zm-17.644-2.63h10.344l-.313 2.63h-10.349zm11.057-7.25-.235 2.39h-10.278l.314-2.39h10.194zm17.331 2.39h-9.881l.157-2.39h9.88zm8.7-1.08.549-6.26h-44.385l-.784 6.26h-13.253v7.01h12.312l-.784 6.42h45.09l.628-6.42h14.194v-7.01zm90.881-17.71h-12.233a51.816 51.816 0 0 0 -1.96-5.6l-8.156 1.57c.392 1.23.863 2.63 1.255 4.03h-11.371v7.42h32.465zm1.647 15.82h-8.312c.862-2.06 1.8-4.2 2.744-6.59l-8.077-1.4a79.906 79.906 0 0 1 -2.274 7.99h-4.862a62.055 62.055 0 0 0 -2.666-7.83l-7.293 1.57c.706 1.89 1.333 4.12 1.96 6.26h-6.192v7.66h34.975v-7.66zm-36.543-15.82h-11.529c-.627-1.89-1.333-4.12-2.117-5.85l-8.234 1.73c.471 1.24.941 2.64 1.412 4.12h-11.92v7.42h32.387v-7.42zm.314 15.9h-6.195l2.666-6.59-8.314-1.48a72.9 72.9 0 0 1 -2.117 8.07h-5.176a74.016 74.016 0 0 0 -2.823-7.99l-7.371 1.65c.706 1.98 1.49 4.2 2.117 6.34h-6.9v7.58h34.113zm-23.134 16.73h12.469v6.26h-12.469zm16.546 21.99v-9.47h4.078v-18.87h-28.233v18.87h4.706c-.628 8.07-2.353 14.91-9.724 19.27a21.253 21.253 0 0 1 5.175 6.76c9.254-5.77 11.685-14.91 12.626-26.03h3.45v9.55c0 2.97-.941 4.12-2.2 4.86a37.045 37.045 0 0 1 2.9 8.49l.078.66c1.255-1.49 3.372-3.05 14.743-10.05a42.529 42.529 0 0 1 -1.725-7.42zm17.174-21.99h14.429v6.09h-14.429zm17.723 30.48a1.318 1.318 0 0 1 -1.02-.33 5.17 5.17 0 0 1 -.235-2.23v-15.49h6.117v-18.7h-30.191v18.7h4.626c-.784 8.82-2.98 15.82-12.39 20.1a23.3 23.3 0 0 1 4.862 6.84c11.528-5.76 14.508-15.07 15.605-26.94h3.137v15.24c0 5.11.549 6.76 1.961 8.08a7.321 7.321 0 0 0 5.332 1.97h4.313a10.58 10.58 0 0 0 4.313-.82 5.716 5.716 0 0 0 2.745-3.05 34.048 34.048 0 0 0 1.1-7.99 19.45 19.45 0 0 1 -6.352-3.62c-.079 2.96-.157 5.27-.314 6.34a2.5 2.5 0 0 1 -.784 1.65 2.691 2.691 0 0 1 -1.255.25h-1.568zm43.211-33.53-7.215 1.89v-12.19h7.685v-9.06h-7.685v-15.65h-9.248v15.65h-9.019v9.06h9.019v14.58c-3.764.99-7.136 1.81-10.038 2.39l2.431 9.31 7.607-1.98v16.97c0 1.24-.314 1.65-1.49 1.65-1.02 0-4.235 0-7.293-.08a44.054 44.054 0 0 1 2.666 8.89c5.489 0 9.253-.24 11.841-1.73 2.666-1.56 3.529-3.87 3.529-8.65v-19.68c2.823-.75 5.646-1.57 8.391-2.39zm32.779 4.45a46 46 0 0 1 -9.8 14.58 47.38 47.38 0 0 1 -9.253-14.58h19.056zm5.881-9.23-1.647.41h-9.41v-9.88h17.566v-9.07h-17.566v-11.78h-9.253v11.78h-16.86v9.07h16.86v9.88h-15.449v8.82h4.078l-2.353.74a65.926 65.926 0 0 0 11.136 19.6 58.853 58.853 0 0 1 -18.742 8.08 40.755 40.755 0 0 1 5.018 8.89 70.692 70.692 0 0 0 20.625-10.13 55 55 0 0 0 19.526 10.38 42.42 42.42 0 0 1 5.96-8.48 51.858 51.858 0 0 1 -18.115-8.33c6.587-6.91 11.606-15.89 14.586-27.34zm73.778-17.46h-20.232v-3.96h20.231v3.96zm0 10.37h-20.232v-3.95h20.231v3.95zm8.626-21.08h-37.092v27.84h37.092zm5.332 39.21v-8.24h-49.325v8.24h8.861a39.581 39.581 0 0 1 -7.214 8.73l-1.647-7-6.273 2.88v-19.44h7.371v-9.23h-7.371v-16.22h-8.626v16.22h-7.842v9.23h7.842v23.23c-3.686 1.57-6.98 2.97-9.646 4.04l3.45 9.88c4.784-2.47 10.43-5.43 16.076-8.4a32.807 32.807 0 0 1 6.117 5.77 49.889 49.889 0 0 0 9.1-8.08h4.7c-4.157 6.1-10.195 11.87-16 14.91a28.181 28.181 0 0 1 6.117 5.77c6.822-4.53 14.115-12.77 18.35-20.68h4.627c-3.372 7.66-8.626 15-14.586 18.95a25.888 25.888 0 0 1 6.587 5.44c6.352-5.19 12.468-15.16 15.684-24.39h3.058c-.863 9.97-1.8 14.17-2.9 15.41a2.615 2.615 0 0 1 -2.352.9c-1.02 0-3.058 0-5.568-.24a20.252 20.252 0 0 1 2.117 7.66 47.051 47.051 0 0 0 7.921-.17 7.156 7.156 0 0 0 5.175-2.8c2.118-2.39 3.372-8.98 4.47-25.04.079-1.15.157-3.38.157-3.38h-31.836c.784-1.32 1.568-2.63 2.2-3.95h31.21zm25.1 5.02v-18.04h7.293v-9.31h-7.293v-17.87h-8.626v17.87h-8.473v9.31h8.469v21.83c-3.842 1.65-7.293 2.97-10.194 4.04l3.764 9.88c7.136-3.37 15.919-7.82 24.075-12.02l-2.118-8.73zm26.741 20.35c-4.783 0-5.489-.74-5.489-5.52v-25.45l6.509-2.97v25.13h8.7v-29.08l6.038-2.8c-.313 9.72-.941 20.18-1.8 26.85l7.606 2.23c1.882-9.89 2.98-24.88 3.451-36.33l.313-1.49-7.057-2.39-8.548 3.88v-18.79h-8.7v22.74l-6.509 2.88v-17.63h-8.94v21.67l-7.685 3.46 3.45 8.65 4.235-1.89v21.25c0 11.28 3.058 14.33 13.645 14.33h16.7c9.175 0 11.841-3.95 13.1-15.48a23.6 23.6 0 0 1 -8.155-3.55c-.706 8.41-1.49 10.3-5.725 10.3z"/><path d="m80.7 3524.8a137.731 137.731 0 0 0 24.165-22.58 130.529 130.529 0 0 0 23.576 22.58zm30.059 33.21h25.741v-10.62h-25.742v-11.76h21.021v-8.45a95.929 95.929 0 0 0 12.378 7.32 60.5 60.5 0 0 1 7.858-11.24c-16.7-6.4-32.416-19.39-40.864-32.38h-33.6v11.34h13.069c-9.234 9.18-21.415 17.74-32.318 22.38a51.122 51.122 0 0 1 7.171 9.9 121.107 121.107 0 0 0 12.475-7.74v8.87h20.629v11.76h-25.442v10.62h25.442v12.48h-35.068v10.93h83.6v-10.93h-36.351v-12.48zm75.917-40.42v-8.46h7.367c-1.768 2.99-3.536 5.77-5.4 8.46h-1.965zm7.662 34.54h-15.816v-6.6h15.815v6.6zm-15.815 16.5v-7.32h15.815v7.32h-15.816zm63.457-75.69-1.768.41h-28.292v1.96l-10.314-2.99a100.352 100.352 0 0 1 -4.813 11.55v-5.26h-10.118v-10h-10.806v10h-12.869v10.52h12.868v8.46h-17.091v10.72h20.923a91.123 91.123 0 0 1 -23.477 17.02 62.9 62.9 0 0 1 6.777 10.21c1.572-.93 3.242-1.96 4.912-3.1v31.25h10.609v-5.26h15.815v3.92h11.1v-46.51h-17.681c2.162-2.48 4.224-4.85 6.287-7.53h14.637v-10.72h-7.269a127.791 127.791 0 0 0 10.51-21.97v88.28h11.494v-79h12.475c-2.456 7.94-5.8 18.36-8.644 25.78 7.858 7.94 10.117 15.47 10.117 21.14 0 3.41-.687 5.88-2.554 7.02a7.688 7.688 0 0 1 -3.929.92 43.76 43.76 0 0 1 -6.188-.2 31 31 0 0 1 2.946 11.86 47.7 47.7 0 0 0 8.547-.1 14.58 14.58 0 0 0 6.876-2.79c3.929-2.68 5.5-7.73 5.5-15.47 0-6.6-1.67-14.75-10.02-23.92 4.028-9.08 8.35-20.73 11.886-30.63zm28.708 17.12h59.822v13.82h12.279v-25.58h-33.889a78.334 78.334 0 0 0 -5.3-11.76l-11.984 3.72a84.266 84.266 0 0 1 3.339 8.04h-35.855v25.58h11.591v-13.82zm55.305 18.77v-11.35h-50.787v11.35h50.786zm-3.438 42.49c-3.439 0-4.028-.42-4.028-3.72v-19.69h26.228v-11.56h-87.525v11.56h24.263c-.884 14.85-3.831 21.86-26.032 25.67 2.26 2.48 5.305 7.33 6.189 10.42 25.933-5.36 30.55-16.4 31.827-36.09h13.163v19.8c0 11.13 2.751 14.85 14.145 14.85h12.279c9.234 0 12.279-4.03 13.556-18.98-3.241-.82-8.153-2.78-10.51-4.64-.492 10.62-.983 12.38-4.126 12.38h-9.43zm81.723-5.16h25.344v-8.97h-25.345v-5.16h33.2v-9.9h-77.5v9.9h32.81v19.39h-12.97v-15.57h-11.2v15.57h-14.537v10.1h89.489v-10.1h-39.292v-5.26zm21.513-58.17a36.939 36.939 0 0 1 -4.617 9.8 41.3 41.3 0 0 1 -6.385-9.8h11zm-42.731 19.6v-3.4h2.652zm-16.8-15.78h6.582v5.26h-6.582zm22.79 0v5.26h-5.992v-5.26zm54.125-3.82v-9.79h-24.556c.884-2.58 1.768-5.16 2.554-7.84l-10.413-2.58c-2.259 8.87-6.581 17.22-12.181 22.9v-6.09h-15.52v-3.5h16.994v-8.56h-16.994v-4.95h-10.216v4.95h-17.878v8.56h17.878v3.5h-15.619v19.6h11.493a50.511 50.511 0 0 1 -15.815 10 37.282 37.282 0 0 1 6.581 7.73 53.342 53.342 0 0 0 13.36-10.21v8.15h10.216v-10.52a60.546 60.546 0 0 1 10.511 8.05l4.813-6.81a66.034 66.034 0 0 0 -9.136-6.39h9.332v-10.52a81.713 81.713 0 0 1 5.992 7.01 38.791 38.791 0 0 0 4.224-4.74 73.074 73.074 0 0 0 5.8 8.97c-4.42 3.71-10.118 6.39-16.8 8.35 2.062 2.06 5.5 6.5 6.483 8.77a57.012 57.012 0 0 0 17.387-9.8 49.366 49.366 0 0 0 16.994 10 40.54 40.54 0 0 1 6.385-9.48 47.666 47.666 0 0 1 -16.405-7.95 51.373 51.373 0 0 0 8.055-16.81h6.483zm30.545 36.1v-4.64h16.307v4.64h-16.306zm0-16.6h16.307v4.64h-16.306v-4.64zm45.285 0v4.64h-17.19v-4.64h17.191zm0 16.6h-17.19v-4.64h17.191v4.64zm-17.191 27.33v-5.47h32.81v-9.18h-32.81v-4.64h29.176v-32.69h-29.175v-3.92h38.507v-9.59h-38.507v-5.36c10.708-.83 20.924-1.96 29.47-3.4l-5.4-9.49c-16.6 2.89-43.222 4.64-66.11 5.16a33.563 33.563 0 0 1 2.358 9.38c8.841-.1 18.467-.41 27.9-.83v4.54h-37.533v9.59h37.525v3.92h-27.7v32.69h27.7v4.64h-30.94v9.18h30.943v5.47h-38.114v9.69h89.1v-9.69h-39.199zm81.832-23.62c-3.831 1.14-7.859 2.27-11.69 3.41v-17.64h10.216v-11.24h-10.215v-17.94h11.3v-11.35h-34.384v11.35h11.788v17.94h-10.9v11.24h10.9v20.73c-5.3 1.44-10.118 2.78-14.047 3.71l2.947 11.55c10.117-3.09 23.28-7.11 35.658-10.93zm14.342-14.85h25.638v6.4h-25.637v-6.4zm0-15.67h25.638v6.39h-25.637v-6.39zm0-15.68h25.638v6.39h-25.637v-6.39zm26.817 71.37c-1.67 0-1.867-.42-1.867-3.41v-20.21h12.083v-57.75h-47.936v57.75h7.171c-1.277 12.06-4.421 20.52-22.2 25.16a36.5 36.5 0 0 1 6.483 10.11c20.923-6.5 25.442-18.46 27.21-35.27h5.992v20.21c0 10.42 1.965 13.92 11 13.92h7.367c7.27 0 9.824-3.81 10.806-17.94a29.245 29.245 0 0 1 -9.725-4.54c-.2 10.32-.589 11.97-2.358 11.97h-4.027zm46.113-24.45h10.118l3.438-35.27.491-15.36h-17.975l.393 15.36zm5.01 27.44a9.831 9.831 0 0 0 10.216-10.11 10.216 10.216 0 0 0 -20.432 0 9.83 9.83 0 0 0 10.217 10.11z"/></g></svg>