<svg id="txt_lead_03_sp.svg" xmlns="http://www.w3.org/2000/svg" width="609.5" height="282.85" viewBox="0 0 609.5 282.85">
  <defs>
    <style>
      .cls-1 {
        fill: #fff;
        fill-rule: evenodd;
      }
    </style>
  </defs>
  <path id="打造出和自己相似的虛擬人物_のコピー" data-name="打造出和自己相似的虛擬人物， のコピー" class="cls-1" d="M93.48,6343.96l-5.167,1.38v-6.8h5.122v-5.32H88.313v-8.99H82.829v8.99H76.982v5.32h5.847v8.18c-2.312.62-4.532,1.14-6.346,1.52l1.5,5.61,4.85-1.28v9.42c0,0.71-.227.95-0.861,0.95-0.589,0-2.493,0-4.306-.1a20.3,20.3,0,0,1,1.586,5.33c3.263,0,5.439-.14,6.98-1.05,1.541-.85,2.085-2.28,2.085-5.09V6351c1.949-.52,3.9-1.09,5.847-1.66Zm25.2-16.17H94.16v5.66h11.467v27.63a1.026,1.026,0,0,1-1.269,1.19c-0.906,0-4.305.05-7.116-.14a22.186,22.186,0,0,1,2.13,6.18c4.215,0,7.252-.09,9.291-1.14,2.085-1,2.81-2.66,2.81-5.99v-27.73h7.207v-5.66Zm28.009,6.57v3.99h-8.611a27.319,27.319,0,0,0,2.9-3.99h5.711Zm-12.056,3.99v4.76h29.144v-4.76H152.039v-3.99h9.88v-4.81h-9.88v-5.32H146.69v5.32h-3.172a35.092,35.092,0,0,0,1.359-3.66l-4.985-1.23a26.772,26.772,0,0,1-6.437,11.03,28.826,28.826,0,0,1,4.442,2.66h-3.263Zm8.521,16.03V6350h12.238v4.38H143.155Zm17.586,6.04v-14.89H137.988v15.03h5.167v-1.43h12.238v1.29h5.348Zm-28.328-28.11c-0.68-2.04-1.768-5.18-2.629-7.7l-4.94,1.52c0.816,2.52,1.9,5.85,2.493,7.94Zm1.178,12.89-0.77.24h-2.584c1.088-3.24,2.267-6.95,3.218-10.18H122.306v5.04h4.8c-1.088,3.57-2.312,7.32-3.354,9.99h6.073a46.872,46.872,0,0,1-2.764,7.99,17.042,17.042,0,0,0-5.575,5.09l3.58,5.42c1.043-2.71,2.539-5.95,3.581-5.95,0.907,0,2.538,1.57,4.4,2.67,3.263,1.99,7.07,2.52,13.053,2.52,5.3,0,13.235-.34,17.042-0.57a23.038,23.038,0,0,1,1.541-5.81,146.579,146.579,0,0,1-18.356,1.24c-5.3,0-9.518-.29-12.6-2.23-0.861-.53-1.541-1.05-2.13-1.48a55.547,55.547,0,0,0,4.261-12.93Zm67.374,2.71v12.46H191.4v-14.93h13.779v-17.27H199.2v11.8h-7.8v-15.79h-5.983v15.79H177.94v-11.8h-5.71v17.27h13.189v14.93H175.9v-12.41h-6.074v18.02h31.138v2.57h6.074v-20.64h-6.074Zm25.812-4.37h6.572v-5.24h-6.572v-7.27a55.462,55.462,0,0,0,6.753-2l-3.49-4.42a78.3,78.3,0,0,1-16.634,4.09,20.074,20.074,0,0,1,1.45,4.42c2.085-.28,4.261-0.62,6.482-1v6.18H213.27v5.24h6.753c-1.767,5.23-4.668,10.7-7.75,14.12a25.345,25.345,0,0,1,2.719,5.33,42.766,42.766,0,0,0,6.346-11.37v16.93h5.439V6351c1.5,2.24,2.946,4.61,3.807,6.23l3.082-4.71c-1-1.28-5.076-6.27-6.889-8.18v-0.8Zm13.053,13.6v-23.07h7.252v23.07H239.83Zm-5.3-28.49v37.66h5.3v-3.75h7.252v3.42h5.575v-37.33h-18.13Zm32.352,32.29v-4.95h21.53v4.95h-21.53Zm21.53-15.07v4.89h-21.53v-4.89h21.53Zm0-10.13v4.89h-21.53v-4.89h21.53Zm-9.791-5.43c0.726-1.71,1.451-3.56,2.131-5.46l-6.527-.77a55.583,55.583,0,0,1-1.224,6.23H261.4v38.24h5.484v-2.38h21.53v2.33h5.756v-38.19H278.618Zm36.414,31.77c-4.85,0-5.666-.43-5.666-2.95v-11.46h20.215v2.71h5.757v-23.49H303.2v5.8h26.379v9.42H303.746v17.12c0,6.8,2.765,8.51,11.241,8.51h14.685c8.113,0,10.107-2.47,11.1-11.56a19.707,19.707,0,0,1-5.484-2.14c-0.589,6.85-1.224,8.04-5.756,8.04h-14.5Zm42.382-22.82h5.665v-5.33h-5.665v-9.75h-5.168v9.75h-6.481v5.33h5.847c-1.45,5.65-4.079,12.12-7.025,15.88a28.726,28.726,0,0,1,2.538,5.32,41.4,41.4,0,0,0,5.121-10.7v18.79h5.168v-19.78c1.269,2.14,2.583,4.37,3.263,5.89l3.082-4.61c-0.906-1.19-4.759-6.09-6.345-7.89v-2.9Zm12.419,21.06v-6.08h10.651v6.08H369.833Zm10.651-17.26v6.04H369.833v-6.04h10.651Zm0-10.99v5.9H369.833v-5.9h10.651Zm-15.819-5.32v41.42h5.168v-2.71h10.651v2.42h5.439v-41.13H364.665Zm58.608,14.41a53.687,53.687,0,0,0-4.9-11.04l-4.487,1.95a58.183,58.183,0,0,1,4.487,11.32Zm-22.707-16.84c-2.312,6.8-6.21,13.56-10.289,17.84a36.412,36.412,0,0,1,2.855,5.85,44.38,44.38,0,0,0,3.082-3.81v24.3h5.122v-32.67a77.253,77.253,0,0,0,4.351-9.8Zm17.631,25.25c-1.949.77-3.943,1.53-5.892,2.29l-0.227-24.97-5.258.05,0.272,26.82c-1.677.62-3.263,1.19-4.577,1.62l2.175,5.56c4.261-1.81,9.609-4.14,14.5-6.42Zm16.09,15.03a96.263,96.263,0,0,0-7.342-9.98c3.354-6.95,4.578-16.13,4.985-28.3l-5.484-.14c-0.453,21.49-3.445,32.62-18.991,37.85a26.422,26.422,0,0,1,3.445,4.9c5.756-2.33,9.971-5.37,13.053-9.37a86.826,86.826,0,0,1,6.028,9.08Zm9.585-5.89v-9.33h7.207v9.33h-7.207Zm7.207-14.22h-7.207v-7.71h7.207v7.71Zm14.368-12.99a56.288,56.288,0,0,0,1.767-6.04l-5.121-1.23a50.5,50.5,0,0,1-6.119,15.31v-7.7h-7.026c0.771-2.05,1.587-4.43,2.357-6.8l-5.892-.86a53.25,53.25,0,0,1-1.314,7.66h-5.122v35.33h4.9v-3.47h12.1v-22.21a34.83,34.83,0,0,1,3.49,2.66,41.517,41.517,0,0,0,3.988-7.51h9.7c-0.5,16.79-1.088,23.92-2.4,25.44a2.357,2.357,0,0,1-2,.81c-1.178,0-3.852,0-6.753-.29a13.8,13.8,0,0,1,1.768,5.52,48.936,48.936,0,0,0,7.116-.09,6.016,6.016,0,0,0,4.351-2.62c1.858-2.52,2.357-10.08,2.946-31.34,0.045-.66.045-2.57,0.045-2.57H465.447Zm5.257,21.69a115.036,115.036,0,0,0-6.662-10.56l-4.216,2.52a102.293,102.293,0,0,1,6.3,10.99Zm20.459-15.74h8.657v2.71l-7.252.57,0.272,3.76,6.98-.62c0.181,3.8,1.677,5.37,6.527,5.37h9.563a25.416,25.416,0,0,0,5.485-.38c-0.182-1.14-.318-2.71-0.5-4.18a30.926,30.926,0,0,1-5.394.38h-8.747c-1.5,0-1.813-.48-1.859-1.57l10.788-.91-0.227-3.66-10.561.86v-2.33h12.193c-0.272,1.23-.544,2.42-0.861,3.37l4.487,1.24a52.534,52.534,0,0,0,2.538-8.23l-3.807-.9-0.862.19H505.44v-1.9h14.867v-4.14H505.44v-2.85h-5.393v8.89H486.086v10.89c0,6.23-.362,15.03-4.169,21.16a19.373,19.373,0,0,1,4.305,3.09c4.17-6.65,4.941-17.16,4.941-24.2v-6.61Zm21.212,24.96v-2.42h7.252v-9.04H515.5v4.95h-3.127v-5.61h-4.623v12.12h-2.946v-12.12h-4.533v5.61h-3.354v-4.95H492.84v9.04h7.433v2.42H489.894v4.76h33.4v-4.76H512.375Zm37.441-22.68a10.382,10.382,0,0,0,3.173-.33,38.748,38.748,0,0,1-.363-4.04,13.888,13.888,0,0,1-2.855.28h-4.079c-0.862,0-1-.47-1-1.85v-1.81H551.9v-4.04h-7.207v-3.66h-4.441v9.51c0,4.28.951,5.94,5.257,5.94h4.306Zm2.448,22.07a29.8,29.8,0,0,0-3.944-3.95c0.136-.52.227-1.05,0.318-1.52h4.306v-4.38h-3.853v-3.94h3.445v-4.33h-7.207c0.272-.95.5-1.9,0.68-2.86l-4.034-.9a35.868,35.868,0,0,1-1.9,6.85l-0.589-3.23-2.946,1.04v-6.18h2.946v-5.23h-2.946v-8.99h-4.714v8.99h-3.716v5.23h3.716v7.85c-1.677.57-3.173,1.04-4.487,1.42l1.269,5.42,3.218-1.23v10.89c0,0.62-.181.81-0.68,0.81s-1.9,0-3.4-.05a22.1,22.1,0,0,1,1.314,4.99c2.675,0,4.533-.19,5.8-1.04,1.314-.86,1.677-2.19,1.677-4.71V6350.1l2.221-.91-0.181.29a32.3,32.3,0,0,1,3.354,2.47,24.055,24.055,0,0,0,1.994-3.94h0.952v3.94h-5.757v4.38h5.258a14.4,14.4,0,0,1-6.527,9.13,13.419,13.419,0,0,1,2.992,3.09,19.236,19.236,0,0,0,5.847-6.47,37.781,37.781,0,0,1,2.81,3.38Zm13.28,1.66a15.022,15.022,0,0,1-2.04-.14v-6.85h5.167v-4.42H563.5v-6.09h2.221c-0.226,1.43-.408,2.81-0.589,3.8l3.082,0.81c0.544-2.18,1.178-5.66,1.632-8.65l-2.538-.62-0.635.14h-2.221l2.538-2.76c-0.816-.71-1.949-1.56-3.218-2.47a55.549,55.549,0,0,0,5.666-8.84l-3.037-2.14-0.77.28H553.941v4.33h8.974a35.16,35.16,0,0,1-2.583,3.9c-0.952-.62-1.9-1.24-2.765-1.76l-3.037,3a95.538,95.538,0,0,1,8.476,6.46h-9.79v4.52h6.209v15.08a12.278,12.278,0,0,1-1.949-3.9,75.073,75.073,0,0,0,.68-8.28l-3.989-.19c-0.136,7.42-.816,13.51-4.079,17.36a16.827,16.827,0,0,1,3.263,2.61,17.623,17.623,0,0,0,2.811-5.65c2.221,3.89,5.3,4.85,9.065,4.85h4.26a15.606,15.606,0,0,1,1.224-4.38h-5.167Zm26.631-39.23c-0.181,8.03.68,29.34-17.722,39.66a17.691,17.691,0,0,1,4.487,4.61c9.428-5.8,14.187-14.41,16.68-22.78,2.628,8.18,7.66,17.46,17.722,22.5a14.913,14.913,0,0,1,3.943-4.9c-15.818-7.33-18.583-25.25-19.218-31.67,0.181-2.86.272-5.43,0.317-7.42h-6.209Zm42.229,20.92-4.17,1.24v-7.66H634v-5.37h-3.762v-9.13h-4.941v9.13h-2.13c0.272-1.9.5-3.76,0.68-5.66l-4.487-.81c-0.408,5.61-1.179,11.56-2.584,15.31a40.172,40.172,0,0,1,3.807,2.62,44.822,44.822,0,0,0,1.678-6.09h3.036v9.09c-3.082.9-5.847,1.66-8.113,2.18l1.315,5.38c2.084-.57,4.351-1.34,6.8-2.1v15.36h4.941v-16.93c1.677-.52,3.263-1.09,4.895-1.56Zm8.067-13.6c0.635-2.09,1.224-4.23,1.677-6.42l-4.895-.95c-1.359,6.99-3.852,13.79-7.433,17.93a30.862,30.862,0,0,1,4.079,3.18,35.837,35.837,0,0,0,4.669-8.51h2.311c-1.994,6.9-5.529,13.94-10.016,17.65a18.962,18.962,0,0,1,4.124,3.18c4.578-4.56,8.385-13.08,10.379-20.83H649.5c-2.267,11.13-6.8,21.93-14.051,27.39a20.043,20.043,0,0,1,4.4,3.29c7.3-6.33,11.965-18.69,14.186-30.68h0.227c-0.725,17.07-1.541,23.54-2.674,25.06a1.859,1.859,0,0,1-1.677.91,35.088,35.088,0,0,1-4.034-.19,16.415,16.415,0,0,1,1.5,5.51,24.248,24.248,0,0,0,5.122-.14,4.935,4.935,0,0,0,3.535-2.47c1.723-2.38,2.539-10.13,3.4-31.34,0.045-.67.091-2.57,0.091-2.57H642.471Zm30.441,25.25c5.621-1.71,8.929-6.13,8.929-11.51,0-3.99-1.677-6.51-4.895-6.51a4.211,4.211,0,0,0-4.441,4.28,4.106,4.106,0,0,0,4.3,4.23,1.547,1.547,0,0,0,.5-0.05c-0.272,2.52-2.312,4.57-5.847,5.76Z" transform="translate(-72.344 -6324.09)"/>
  <path id="任何人都能_參加奧運_のコピー" data-name="任何人都能 參加奧運！ のコピー" class="cls-1" d="M99.1,6387.05c-5.926,16.43-16.085,32.53-26.773,42.63a98.433,98.433,0,0,1,7.3,13.99,109.236,109.236,0,0,0,8.995-10.55v56.85h12.487V6413.8a159.97,159.97,0,0,0,10.476-22.65Zm74.6,58.95v-12.77H146.4v-24.2h23.281V6396.6H112.012v12.43H133.6v24.2H106.3V6446h27.3v27.65H109.154v12.66h62.223v-12.66H146.4V6446h27.3Zm31.161-59.73c-5.185,15.65-14.286,31.2-23.6,40.97a87.232,87.232,0,0,1,6.772,13.77,115.229,115.229,0,0,0,7.408-9.33v58.07H208.04v-79.17a185.677,185.677,0,0,0,8.678-20.31Zm35.661,45.74v17.32H228.781v-17.32h11.746Zm11.747,28.76v-40.19H217.035v47.41h11.746v-7.22h23.493Zm28.677-64.84H215.765v12.66H261.9v65.61c0,2.11-.635,2.78-2.751,2.78s-9.524,0-16.4-.33c1.8,3.88,3.809,9.66,4.232,13.54,9.842,0,17.038-.44,21.482-2.44,4.55-2.11,6.138-5.66,6.138-13.32v-65.84h6.349v-12.66Zm47.511-9.44c-0.424,18.77,1.587,68.51-41.376,92.6a41.486,41.486,0,0,1,10.476,10.77c22.011-13.55,33.122-33.64,38.942-53.18,6.138,19.09,17.884,40.74,41.376,52.51a34.9,34.9,0,0,1,9.206-11.43c-36.931-17.1-43.386-58.96-44.868-73.95,0.424-6.66.635-12.66,0.741-17.32h-14.5Zm93.151,32.09v-9.11h7.937c-1.905,3.22-3.81,6.22-5.82,9.11h-2.117Zm8.254,37.19H412.83v-7.1h17.037v7.1Zm-17.037,17.77v-7.88h17.037v7.88H412.83Zm68.361-81.5-1.9.45H448.809v2.11l-11.111-3.22a107.182,107.182,0,0,1-5.185,12.43v-5.66h-10.9v-10.77h-11.64v10.77H396.111v11.32h13.862v9.11H391.56v11.55H414.1a98.369,98.369,0,0,1-25.291,18.32,67.654,67.654,0,0,1,7.3,10.99c1.693-1,3.492-2.11,5.291-3.33v33.64H412.83v-5.66h17.037v4.21h11.958v-50.07H422.777c2.329-2.66,4.551-5.22,6.773-8.1h15.767v-11.55h-7.83a137.319,137.319,0,0,0,11.322-23.65v95.04H461.19v-85.05h13.44c-2.646,8.55-6.244,19.77-9.313,27.76,8.466,8.55,10.9,16.65,10.9,22.76,0,3.66-.741,6.33-2.751,7.55a8.268,8.268,0,0,1-4.233,1,47.826,47.826,0,0,1-6.667-.22,33.323,33.323,0,0,1,3.175,12.77,49.362,49.362,0,0,0,9.206-.12,15.584,15.584,0,0,0,7.408-2.99c4.232-2.89,5.926-8.33,5.926-16.66,0-7.1-1.8-15.87-10.794-25.76,4.339-9.77,9-22.31,12.8-32.97Zm102.114,43.3c4.021,0,8.465-.22,10.688-1-0.424-2.99-.953-7.77-1.164-11.21a51.786,51.786,0,0,1-9.736.89h-15.45c-3.386,0-4.021-1.56-4.021-5.66v-7.33h26.032V6399.7H563.622v-13.1H551.135v31.53c0,12.33,3.386,17.21,16.085,17.21H583.3Zm-68.361,11.88c4.022,3.45,8.889,7.78,11.535,10.66l5.079-5.22v3.67c-6.349,3.55-12.592,6.88-17.354,9.1a138.081,138.081,0,0,0,.74-14.21v-4Zm16.614-9.99v12.55c-3.174-2.89-7.725-6.77-11.323-9.44l-5.291,4.77v-7.88h16.614Zm11.852-11.1H503.3v24.98c0,9.66-.423,21.87-6.032,30.53a52.021,52.021,0,0,1,8.783,8.89c4.022-5.78,6.35-13.33,7.514-20.88l2.645,7.77c4.762-3.22,10.053-6.99,15.344-10.99v11.33c0,1.44-.423,1.88-1.8,1.88-1.27,0-5.4,0-9.206-.22a38,38,0,0,1,3.809,10.33c6.455,0,11.217-.22,14.6-1.89,3.492-1.78,4.444-4.55,4.444-9.99v-51.74Zm-16.085-27.65c1.376,2.67,2.858,5.78,4.445,9l-15.45,1.22a123.435,123.435,0,0,0,13.016-18.43l-12.7-3.78a94.25,94.25,0,0,1-12.486,19.76c-2.117,2.45-3.916,4-5.821,4.45,1.27,3.33,3.281,9.32,3.916,11.88,3.069-1.34,7.407-2,34.18-4.78,1.058,2.67,2.011,5,2.646,7l11-4.67c-2.54-6.66-8.148-17.54-12.593-25.53Zm41.165,79.28c-4.127,0-4.868-.56-4.868-4.44v-12.11H590.4v-11.65H563.622v-11.11H551.135v34.87c0,12.1,3.069,15.98,15.556,15.98h15.026c10.053,0,13.334-4.33,14.6-18.87-3.281-.78-8.36-2.78-10.9-4.77-0.529,10.21-1.27,12.1-4.868,12.1H568.49Zm-420.076,96.98c-11.746,12.43-35.556,18.54-60.847,21.09a40.444,40.444,0,0,1,5.608,10.55c27.091-3.77,51.429-11.1,65.4-26.53Zm-11.535-10.99c-9.418,7.88-27.83,13.54-44.021,16.32a44.734,44.734,0,0,1,6.243,9.32c17.355-3.77,35.768-10.76,47.2-20.76Zm34.921-15.99c-1.693-4.89-6.137-12.1-10.37-17.21l-8.677,3.55c1.058,1.45,2.116,3,3.174,4.67l-8.889.44a63.857,63.857,0,0,0,5.08-8.22l-11.112-4.66a44.066,44.066,0,0,1-5.079,10.99,7.034,7.034,0,0,1-3.6,2.89v0.11a42.02,42.02,0,0,1-2.963-3.33c0.529-1.11,1.27-2.22,1.9-3.44l-11.535-3.44a41.532,41.532,0,0,1-7.09,10.21c-1.269-2.78-2.751-5.66-4.021-8.22l-8.995,2.67a35.652,35.652,0,0,1,2.329,4.55l-7.62.33a55.833,55.833,0,0,0,6.138-8.66l-9.841-4.1c4.445-1.23,12.275-1.34,56.508-3,1.482,1.66,2.751,3.22,3.81,4.44l10.053-5.11c-4.762-5.66-14.392-13.77-21.694-19.32l-9.524,4.67a91.245,91.245,0,0,1,7.831,6.32l-27.619.67a120.512,120.512,0,0,0,12.593-8.1l-11.006-5.67c-6.349,5.78-15.238,10.55-18.2,11.99a25.313,25.313,0,0,1-6.984,2.78c1.058,2.78,2.645,7.44,3.281,9.88l-0.318-.11a46.407,46.407,0,0,1-6.349,11.44,8.348,8.348,0,0,1-3.915,2.88,95.525,95.525,0,0,1,4.021,10.33c2.116-.89,5.185-1.44,20.53-2.55-8.254,6.1-18.519,10.76-29.63,13.87a60.61,60.61,0,0,1,6.772,10.44,122.959,122.959,0,0,0,14.6-6.11,49.761,49.761,0,0,1,5.926,7.22c11-3.22,24.444-8.88,33.227-15.54l-8.783-4.78c-6.243,4.44-17.354,8.77-26.984,11.44a81.625,81.625,0,0,0,24.021-19.1c11.429,11.77,27.408,21.1,44.233,26.2a48.412,48.412,0,0,1,7.937-10.21,105.443,105.443,0,0,1-31.217-12.77c3.492-.44,8.783-0.89,17.037-1.44,0.635,1.55,1.27,3,1.693,4.33Zm46.333-25.54c0.106-6.33.211-12.88,0.211-19.32h-12.7c0,6.44,0,12.99-.106,19.32h-12.7v12.88h12.381c-0.847,24.43-4.022,46.63-15.239,61.73,3.493,1.89,7.725,6.22,9.948,9.44,12.592-17.65,16.508-43.19,17.778-71.17h10.37c-1.27,36.75-2.857,50.52-5.185,53.74-1.164,1.67-2.117,2.11-3.7,2.11-1.905,0-5.291-.11-9-0.44a37.25,37.25,0,0,1,3.6,13.65c4.656,0.11,9.1.11,12.064-.55,3.386-.67,5.714-2,8.148-5.89,3.7-5.22,5.291-22.54,6.878-69.5,0.106-1.67.212-6.11,0.212-6.11Zm40.318,61.29v-55.63h14.18v55.63h-14.18Zm-12.593-68.28v88.71h12.593v-7.66h14.18v6.88h13.121v-87.93H245.858Zm86.184,5.44h55.45v36.75c0,0.89-.212,1.22-1.058,1.22h-2.858l0.953-1.55a164.656,164.656,0,0,0-17.143-10h16.508v-7.77h-8.36c0.952-1.78,2.116-3.77,3.492-5.99l-7.619-2.23a68.346,68.346,0,0,1-3.28,8l0.635,0.22h-4.551v-8.44c6.879-.44,13.439-1.22,18.836-2.11l-5.079-6.77c-9.841,1.78-27.408,2.78-41.694,3a26.643,26.643,0,0,1,2.011,6.66c5.185,0.11,10.794,0,16.508-.22v7.88H349.82l0.952-.33a31.469,31.469,0,0,0-3.069-7.11l-6.878,2.11a29.236,29.236,0,0,1,2.116,5.33h-7.3v7.77h14.814a54.8,54.8,0,0,1-17.142,10.66,43.779,43.779,0,0,1,6.031,7.33,57.942,57.942,0,0,0,15.45-11.21v8.77h9.418v-8c5.715,3.33,11.641,7.11,15.133,9.66l3.386-4.66a48.826,48.826,0,0,1,3.386,8.66c4.021,0,7.408-.22,10.053-1.89,2.751-1.66,3.492-4.22,3.492-8.99v-47.08h-34.6c0.952-2,1.905-4.22,2.857-6.44l-13.757-1.33c-0.529,2.22-1.375,5-2.328,7.77H320.3v56.85h11.746v-46.52Zm75.45,61.17v-10.88H364.105c0.212-1.66.424-3.44,0.635-5.33H351.513c-0.212,1.89-.424,3.67-0.741,5.33H311.724v10.88h35.133c-4.657,7-14.6,11.11-37.038,13.22,2.117,2.77,4.974,7.88,5.609,11.1,29.735-3.55,41.058-11.21,45.926-24.32H365.8l-4.445,7.11c13.016,5.22,31.746,13.1,40.847,17.99l5.926-10.44c-8.466-4.11-24.127-10.1-36.085-14.66h35.45Zm107.993-66.17V6523H500.247v-4.33H487.971V6523h-16.3v-7.33h43.81Zm-4.445,28.65v4.44H500.247v-4.44H511.04Zm0,16.43H500.247v-4.44H511.04v4.44Zm-34.286,0v-4.44h11.217v4.44H476.754Zm0-16.43h11.217v4.44H476.754v-4.44Zm-7.725-12.11h18.942v4H466.066v32.53h21.905v4H461.093v9.55h26.878v7.33h12.276v-7.33h27.2v-9.55h-27.2v-4h22.01v-32.53h-22.01v-4h16.3v-4.1h11v-22.1H460.14v22.1h8.889v4.1ZM454.849,6521c-1.375-5-4.127-12.43-6.137-18.43l-11.111,3.55c1.8,6,4.656,14.1,5.82,19.21Zm-1.587,31.53-1.8.34H449.77c2.434-7.66,5.185-16.55,7.407-24.43H432.1v11.77h9.735c-2.433,8.66-5.291,17.54-7.83,24.09h13.439a94.891,94.891,0,0,1-5.926,19.1,47.786,47.786,0,0,0-11.429,10.77l8.466,12.55c2.54-6.33,6.349-13.88,8.783-13.88,2.222,0,5.926,3.66,10.371,6.21,7.619,4.67,16.508,5.89,30.582,5.89,12.381,0,31.111-.78,39.788-1.33,0.106-3.56,2.223-10,3.7-13.55-11.746,1.78-30.688,2.89-42.857,2.89-12.381,0-22.328-.67-29.524-5.22-2.646-1.67-4.656-3.11-6.244-4.22a138.293,138.293,0,0,0,7.514-27.31Zm124.475,15.55h10.9l3.7-37.97,0.53-16.55H573.5l0.424,16.55Zm5.4,29.53c6.244,0,11-4.44,11-10.88a11.005,11.005,0,0,0-22.01,0C572.129,6593.17,576.891,6597.61,583.134,6597.61Z" transform="translate(-72.344 -6324.09)"/>
</svg>
