<svg height="271.06" viewBox="0 0 503.5 271.06" width="503.5" xmlns="http://www.w3.org/2000/svg"><g fill="#fff" fill-rule="evenodd" transform="translate(-71.906 -1372)"><path d="m107.1 1384.68a40.991 40.991 0 0 1 -3.12 11.2 45.91 45.91 0 0 1 -3.8-10.07c.12-.38.28-.76.4-1.13zm7.118 0v-4.75h-12.2c.56-2.22 1-4.57 1.4-6.92l-4.839-.84c-.96 6.76-2.8 13.14-5.919 17.21v-16.54h-4.718v23l-4.239 1.34v-20.48h-4.68v20.23a3.126 3.126 0 0 1 -1.48 2.98 19.357 19.357 0 0 1 1.84 4.57c.88-.75 2.2-1.51 8.558-3.86v10.83h4.719v-21.07a25.329 25.329 0 0 1 2.879 3.9 27.647 27.647 0 0 0 2.08-3.02 45.419 45.419 0 0 0 3.8 9.15 22.547 22.547 0 0 1 -8.318 7.05 21.917 21.917 0 0 1 3.079 4.07 26.893 26.893 0 0 0 7.918-6.88 26.024 26.024 0 0 0 7.159 6.59 17.176 17.176 0 0 1 3.239-4.12 23.163 23.163 0 0 1 -7.638-6.67 50.051 50.051 0 0 0 4.959-15.77h2.4zm10.692-1.98a40.239 40.239 0 0 0 3.2-4.57c1.48 1.51 2.96 3.15 4.2 4.57zm17.2-.92.56-2.35h6.518l-.44 2.35h-6.648zm15.477 23.54a73.661 73.661 0 0 0 -6.2-5.08c1.6-1.59 3.4-3.73 5.119-5.75l-3.839-2.26a44.856 44.856 0 0 1 -4.04 5.83l-.639-.42v-5.83h9.2v-4.37h-5.119c.8-3.65 1.639-7.88 2.119-11.49l-3.239-.46-.76.16h-6.6c.24-1.04.48-2.09.68-3.02l-4.439-.46c-.8 4.32-2.2 9.9-3.239 13.39h11.4l-.4 1.88h-12.685v4.37h8.678v6.21c-3.479 2.64-7 5.2-9.358 6.8l-.08-1.26-4.519.75v-10.15h4.639v-4.24h-4.639v-3.06h2.8v-3.99c.519.59.959 1.18 1.319 1.64l2.68-3.32c-1.4-1.63-4.159-4.36-6.4-6.54l.6-1.26-3.559-1.39a29.209 29.209 0 0 1 -7.4 9.74 24.969 24.969 0 0 1 1.44 4.91c.56-.51 1.16-1.05 1.719-1.64v1.85h2.96v3.06h-5.319v4.24h5.319v10.74c-2.2.29-4.279.59-5.919.84l.96 4.49c3.839-.8 8.838-1.76 13.557-2.77l-.16-2.35 2.44 3.52c2.119-1.72 4.519-3.73 6.918-5.83v3.82c0 .42-.12.55-.6.55-.4 0-1.8 0-3.12-.05a14.4 14.4 0 0 1 1.28 4.24c2.279.04 4-.08 5.2-.75 1.32-.72 1.64-1.85 1.64-3.95v-4.07a89.148 89.148 0 0 1 6.758 6zm-37.153-9.19a60.37 60.37 0 0 1 1.32 7.26l3.239-.97a64.6 64.6 0 0 0 -1.48-7.13zm12.6 6.67c.56-1.72 1.24-4.57 1.88-6.96l-3.039-.8a66.775 66.775 0 0 1 -1.28 7.09zm2.16-8.52a49.97 49.97 0 0 1 4.2 5.46l3.4-2.43a38.032 38.032 0 0 0 -4.36-5.17zm28.905 13.43h17.8v-4.99h-5.559v-26.06h-4.359a18.454 18.454 0 0 1 -6.879 2.6v3.82h5.359v19.64h-6.358v4.99zm33.777.59c5.479 0 10.358-3.99 10.358-10.91 0-6.76-4.159-9.86-9.118-9.86a7.33 7.33 0 0 0 -3.559.88l.56-6.59h10.757v-5.16h-15.844l-.8 15.06 2.679 1.85c1.72-1.17 2.68-1.64 4.439-1.64 3 0 5 2.02 5 5.63 0 3.65-2.159 5.7-5.239 5.7a9.019 9.019 0 0 1 -6.518-3.14l-2.72 3.94a13.179 13.179 0 0 0 9.997 4.24zm36.4-12.63v-2.14h3.56v2.14zm0-7.13h3.56v2.05h-3.56zm11.8 0v2.05h-3.679v-2.05zm0 7.13h-3.679v-2.14h3.679zm-3.679 11.03v-1.88h7.958v-3.78h-7.958v-1.93h7.958v-14.06h-7.958v-1.72h8.6v-3.86h-8.6v-2.1a73.024 73.024 0 0 0 8.518-1.13l-2.719-3.73a131.256 131.256 0 0 1 -18.957 1.72 13.544 13.544 0 0 1 1.04 3.73c2.4-.04 4.959-.12 7.559-.25v1.76h-9v3.86h9v1.72h-7.679v10.16c-.88-1.09-4-4.49-5.039-5.42v-1.21h4.279v-4.66h-4.279v-5.92a39.575 39.575 0 0 0 4.759-1.59l-3.159-3.82a54.636 54.636 0 0 1 -12.4 3.48 17.977 17.977 0 0 1 1.32 3.82c1.56-.21 3.2-.5 4.879-.84v4.87h-5.719v4.66h5.079a41.474 41.474 0 0 1 -5.919 11.24 25.52 25.52 0 0 1 2.2 4.74 37.663 37.663 0 0 0 4.359-8.3v15.06h4.6v-16.36a37.221 37.221 0 0 1 2.4 4.23l2.639-3.77v3.69h7.679v1.93h-7.959v3.78h7.959v1.88h-10.2v3.95h24.195v-3.95h-9.438zm37.762-19.51a43.275 43.275 0 0 0 -6.318-10.07l-4.32 2.27a43.211 43.211 0 0 1 5.959 10.4zm-7.318 7.43c-2 .84-4.039 1.72-6.039 2.6l-.72-22.7-4.959.21.8 24.51c-2 .84-3.8 1.51-5.319 2.05l1.6 5.33c4.519-1.97 10.438-4.61 15.717-7.09zm21.716 12.55a90.346 90.346 0 0 0 -8.879-10.79c2.6-5.7 4.039-12.71 4.879-21.31l-5.239-.51c-1.479 17.25-5.6 27.4-18.276 32.44a28.957 28.957 0 0 1 3.8 4.4 28.837 28.837 0 0 0 12.158-10.19 72.74 72.74 0 0 1 7.478 10.11zm25.108-2.9v-14.52h14.105v-5.07h-14.118v-12.01h-5.119v31.6h-14.317v5.04h36.353v-5.04h-16.917zm27.965-1.64v-8.22h6.359v8.22zm6.359-12.54h-6.359v-6.8h6.359zm12.678-11.46a50.175 50.175 0 0 0 1.559-5.33l-4.519-1.09a44.5 44.5 0 0 1 -5.4 13.51v-6.79h-6.2c.68-1.81 1.4-3.91 2.08-6l-5.2-.76a47.157 47.157 0 0 1 -1.16 6.76h-4.527v31.17h4.319v-3.06h10.681v-19.6a31.955 31.955 0 0 1 3.08 2.35 36.8 36.8 0 0 0 3.519-6.62h8.558c-.44 14.81-.96 21.1-2.119 22.44a2.074 2.074 0 0 1 -1.76.72c-1.04 0-3.4 0-5.959-.25a12.123 12.123 0 0 1 1.56 4.86 41.948 41.948 0 0 0 6.279-.08 5.285 5.285 0 0 0 3.839-2.31c1.64-2.22 2.079-8.89 2.6-27.65.04-.59.04-2.27.04-2.27h-11.283zm4.639 19.14a101.848 101.848 0 0 0 -5.879-9.32l-3.72 2.23a90.049 90.049 0 0 1 5.559 9.69z"/><path d="m87.712 1430.06h33.888v22.46c0 .55-.129.75-.647.75h-1.746l.582-.95a100.86 100.86 0 0 0 -10.477-6.11h10.088v-4.75h-5.109q.873-1.62 2.134-3.66l-4.657-1.36a42.256 42.256 0 0 1 -2 4.89l.388.13h-2.781v-5.15c4.2-.28 8.214-.75 11.513-1.29l-3.1-4.14c-6.015 1.08-16.751 1.69-25.482 1.83a16.28 16.28 0 0 1 1.229 4.07c3.169.07 6.6 0 10.089-.14v4.82h-3.04l.582-.2a19.259 19.259 0 0 0 -1.876-4.34l-4.2 1.29a17.9 17.9 0 0 1 1.294 3.25h-4.473v4.75h9.055a33.451 33.451 0 0 1 -10.477 6.52 26.323 26.323 0 0 1 3.686 4.48 35.607 35.607 0 0 0 9.442-6.86v5.36h5.756v-4.88c3.493 2.03 7.115 4.34 9.249 5.9l2.069-2.85a29.75 29.75 0 0 1 2.07 5.29c2.458 0 4.527-.13 6.144-1.15 1.682-1.02 2.135-2.58 2.135-5.5v-28.77h-21.149c.582-1.22 1.164-2.58 1.746-3.93l-8.408-.82c-.323 1.36-.841 3.06-1.423 4.75h-19.273v34.75h7.179zm46.114 37.39v-6.65h-26.517c.129-1.02.258-2.1.388-3.25h-8.085c-.129 1.15-.259 2.23-.453 3.25h-23.865v6.65h21.473c-2.846 4.28-8.925 6.79-22.636 8.08a20.856 20.856 0 0 1 3.428 6.78c18.174-2.17 25.094-6.85 28.069-14.86h2.716l-2.716 4.35c7.955 3.18 19.4 8 24.965 10.99l3.622-6.38c-5.174-2.51-14.746-6.18-22.055-8.96h21.667zm61.528-40.44v4.48h-9.313v-2.65h-7.5v2.65h-9.96v-4.48h26.775zm-2.716 17.51v2.71h-6.6v-2.71zm0 10.04h-6.6v-2.71h6.6zm-20.955 0v-2.71h6.856v2.71zm0-10.04h6.856v2.71h-6.856zm-4.721-7.4h11.577v2.44h-13.388v19.89h13.388v2.44h-16.428v5.83h16.428v4.48h7.5v-4.48h16.622v-5.83h-16.62v-2.44h13.452v-19.89h-13.452v-2.44h9.959v-2.51h6.726v-13.5h-41.2v13.5h5.433v2.51zm-8.667-6.85c-.841-3.06-2.522-7.6-3.751-11.27l-6.791 2.17c1.1 3.67 2.846 8.62 3.557 11.74zm-.97 19.27-1.1.2h-1.035c1.487-4.68 3.169-10.11 4.527-14.93h-15.327v7.2h5.95c-1.487 5.29-3.234 10.72-4.786 14.72h8.214a58.012 58.012 0 0 1 -3.622 11.67 29.5 29.5 0 0 0 -6.985 6.58l5.174 7.67c1.552-3.87 3.881-8.48 5.368-8.48 1.358 0 3.622 2.24 6.338 3.8 4.657 2.85 10.09 3.6 18.692 3.6 7.567 0 19.014-.48 24.318-.82.064-2.17 1.358-6.1 2.263-8.28a208.123 208.123 0 0 1 -26.193 1.77c-7.567 0-13.647-.41-18.045-3.19-1.617-1.02-2.845-1.9-3.816-2.58a84.487 84.487 0 0 0 4.592-16.69zm113.948-26.06h-10.089a41.613 41.613 0 0 0 -1.617-4.61l-6.726 1.29c.323 1.01.711 2.17 1.035 3.32h-9.376v6.11h26.775v-6.11zm1.358 13.03h-6.855c.711-1.7 1.487-3.46 2.263-5.43l-6.661-1.15a65.64 65.64 0 0 1 -1.876 6.58h-4.01a50.527 50.527 0 0 0 -2.2-6.45l-6.014 1.29c.582 1.56 1.1 3.39 1.617 5.16h-5.11v6.31h28.845v-6.31zm-30.138-13.03h-9.508c-.517-1.56-1.1-3.39-1.746-4.82l-6.791 1.43c.388 1.02.776 2.17 1.164 3.39h-9.83v6.11h26.711zm.258 13.1h-5.109l2.2-5.43-6.856-1.22a60.583 60.583 0 0 1 -1.746 6.65h-4.268a61.135 61.135 0 0 0 -2.329-6.59l-6.079 1.36c.582 1.63 1.229 3.46 1.746 5.23h-5.691v6.24h28.133v-6.24zm-19.079 13.77h10.283v5.16h-10.283zm13.647 18.12v-7.8h3.363v-15.54h-23.282v15.54h3.88c-.517 6.65-1.94 12.28-8.02 15.88a17.4 17.4 0 0 1 4.269 5.56c7.632-4.75 9.637-12.28 10.413-21.44h2.845v7.87c0 2.44-.776 3.39-1.811 4a30.538 30.538 0 0 1 2.393 6.99l.065.54c1.035-1.22 2.781-2.51 12.159-8.27a35.061 35.061 0 0 1 -1.423-6.11zm14.164-18.12h11.9v5.02h-11.9zm14.616 25.11a1.078 1.078 0 0 1 -.841-.27 4.192 4.192 0 0 1 -.194-1.83v-12.76h5.045v-15.41h-24.9v15.41h3.816c-.647 7.26-2.458 13.03-10.219 16.56a18.981 18.981 0 0 1 4.01 5.63c9.507-4.75 11.965-12.42 12.87-22.19h2.587v12.55c0 4.21.453 5.57 1.617 6.65a6.023 6.023 0 0 0 4.4 1.63h3.557a8.7 8.7 0 0 0 3.558-.68 4.653 4.653 0 0 0 2.263-2.51 27.968 27.968 0 0 0 .906-6.58 15.951 15.951 0 0 1 -5.239-2.99c-.065 2.45-.129 4.35-.259 5.23a2.078 2.078 0 0 1 -.647 1.36 2.248 2.248 0 0 1 -1.034.2h-1.295zm55.12-25.58c.647.74 1.293 1.42 2 2.1h-19.919c.646-.68 1.293-1.36 1.875-2.1h16.04zm-14.423-7.4h11.577v1.9h-11.573v-1.9zm0-6.11h11.577v2.04h-11.573v-2.04zm-15.263-4.34v-3.19h41.909v3.19h-7.89v-2.31h-7.179v2.31h-11.573v-2.31h-7.049v2.31h-8.214zm9.507 25.85v-1.96h22.96v1.96zm22.96 9.44v2.17h-22.96v-2.17zm-22.96-3.67v-2.03h22.96v2.03zm30.333-5.56a38.09 38.09 0 0 0 7.179 3.26 27.839 27.839 0 0 1 4.721-6.11 44.049 44.049 0 0 1 -12.87-5.36h10.736v-5.5h-15.587v-1.9h8.279v-4.07h-8.279v-2.04h8.731v-2.24h6.468v-11.33h-22.895a34.238 34.238 0 0 0 -2.2-4.68l-7.632 2.04q.582 1.215 1.164 2.64h-24.64v11.33h6.532v2.24h8.667v2.04h-7.891v4.07h7.891v1.9h-15.587v5.5h12.353a46.839 46.839 0 0 1 -14.617 6.65 27.013 27.013 0 0 1 4.527 5.77 47.682 47.682 0 0 0 7.567-3.4v14.46h5.821a85.358 85.358 0 0 1 -15.716 3.73 63.216 63.216 0 0 1 4.4 5.16c7.244-1.09 15.975-3.67 21.278-6.45l-3.363-2.44h11.965l-3.04 2.64a172.474 172.474 0 0 1 18.433 6.25l6.4-4.48c-3.622-1.16-8.926-2.85-14.294-4.41h5.5v-15.27zm42.864-3.53-7.955 2.71v-23.54h7.179v-7.47h-22.119v7.47h7.179v26.05c-3.364 1.09-6.468 2.04-8.926 2.79l3.17 7.73c6.467-2.44 14.875-5.63 22.7-8.75zm9.83 4.21h16.945v4.34h-16.945zm0-9.91h16.945v4.34h-16.945zm0-9.7h16.945v4.27h-16.945zm24.448 29.85v-35.83h-13.515c.517-1.49 1.1-3.05 1.616-4.68h14.294v-6.78h-36.61v6.78h13.647c-.259 1.49-.517 3.12-.841 4.68h-10.153v35.83h6.532c-3.3 2.79-9.7 6.11-14.94 7.81a39.285 39.285 0 0 1 4.657 5.49 58.99 58.99 0 0 0 16.751-8.89l-5.95-4.41zm-15.07 4.48a92.581 92.581 0 0 1 12.483 8.96l6.079-4.75a94.463 94.463 0 0 0 -12.87-8.48zm38.79-3.93v-8.01h29.945v8.01zm29.945-23.62v8.01h-29.945v-8.01zm0-15.4v7.8h-29.945v-7.8zm-37.706-7.87v58.96h7.761v-4.2h29.945v4.2h8.149v-58.96zm74.921 36.37h6.662l2.263-23.21.324-10.11h-11.836l.259 10.11zm3.3 18.05a6.472 6.472 0 0 0 6.726-6.65 6.727 6.727 0 0 0 -13.453 0 6.472 6.472 0 0 0 6.726 6.65z"/><path d="m109.453 1502.46h6.517v-2.86h10.313v-5.83h-10.313v-3.33h-6.517v3.33h-7.48v5.83h7.48zm-23.177 0h6.574v-2.8h6.573v-5.83h-6.573v-3.39h-6.574v3.39h-10.767v5.83h10.767zm31.224 26.43v2.92h-10.71v-2.92zm-10.71 10.42v-3.04h10.71v3.04zm-6.12 6.55h6.12v-1.49h10.71v1.43h6.46v-21.91h-23.29zm8.84-33.34h4.76v3.87h-4.76zm11.107 3.87v-3.87h4.59v-5.42h-4.59v-3.81h-6.347v3.81h-4.76v-3.81h-6.177v3.81h-4.59v5.42h4.59v3.87h-5.893v5.54h-7.65v-2.44h6.573v-5.18h-6.573v-2.74a60.37 60.37 0 0 0 8.33-1.49l-3.627-4.58c-1.36.35-2.947.71-4.7 1.01v-3.22h-6.01v3.93c-2.833.24-5.78.42-8.5.48a24.737 24.737 0 0 1 1.417 4.7c2.267 0 4.647-.12 7.083-.29v2.2h-7.31v5.18h7.31v2.44h-8.557v5.71h6.8a33 33 0 0 1 -8.33 10.3 33.582 33.582 0 0 1 4.25 4.82 34.86 34.86 0 0 0 5.837-7.91v11.13h6.007v-11.55c1.643 1.9 3.173 3.87 4.137 5.24l3.91-5c-1.247-1.13-5.5-5-7.933-7.03h7.65v-5.65h29.014v-5.6h-5.95zm39.418 19.41v-10.12h12.411v10.12zm-18.983-10.12h12.013v10.12h-12.013zm12.013-16.85v9.94h-12.013v-9.94zm19.381 0v9.94h-12.411v-9.94zm-12.411-7.14v-11.25h-6.97v11.25h-18.757v44.29h6.744v-3.16h31.394v3.1h7.083v-44.23zm39.374-2.38-2.1 1.96c1.36 1.25 3.117 3.1 4.42 4.58h-11.104a44.036 44.036 0 0 0 5.44-6.54zm5.1 12.62h-8.954v-1.97h8.954zm-8.954 5.83v-2.02h8.954v2.02zm15.017 4.05v-15.96h-6.347l2.834-2.73a40.483 40.483 0 0 0 -3.8-3.81h8.5v-5.42h-12.52c.4-.71.736-1.49 1.076-2.2l-5.95-1.85a32.037 32.037 0 0 1 -8.5 11.49 61.557 61.557 0 0 1 4.194 4.52h-.567v40.07h6.063v-24.11zm4.93-15.96a40.319 40.319 0 0 0 4.817-6.6h4.023l-2.436 2.2a48.4 48.4 0 0 1 4.76 4.4h-11.166zm4.477 6.08v-1.97h9.18v1.97zm0 5.83v-2.02h9.18v2.02zm-12.179 19.11v-2.56h9.35v2.56zm9.35-8.87v2.5h-9.35v-2.5zm21.307-34.11h-15.531c.34-.83.623-1.61.906-2.44l-6.12-1.61a28.979 28.979 0 0 1 -7.366 12.03 39.4 39.4 0 0 1 4.93 3.98h-1.36v15.96h15.243v16.9a.928.928 0 0 1 -1.133 1.14c-.68 0-2.777.05-4.93-.06v-15.72h-21.364v18.75h6.068v-2.08h14.393a24.716 24.716 0 0 1 1.417 5.18c4.193.06 7.2-.06 9.18-1.13 2.04-.96 2.663-2.68 2.663-5.96v-32.98h-6.29l3.117-2.85a49.188 49.188 0 0 0 -4.08-3.75h10.257zm44.807 6.49h-8.1v-3.45h8.1zm6.29-7.68h-20.347v11.9h20.343v-11.9zm-30.09 7.68h-7.934v-3.45h7.934zm6.29-7.68h-20.234v11.9h20.23v-11.9zm-11.617 31.13v-3.21h9.577v3.21zm0-11.43h9.577v3.16h-9.577zm26.691 3.16h-10.2v-3.16h10.2zm0 8.27h-10.2v-3.21h10.2zm11.843 8.51h-22.048v-3.09h17.114v-22.32h-40.177v22.32h16.15v3.09h-21.534v6.08h21.534v7.56h6.913v-7.56h22.044v-6.08zm44.111-30.89h-10.318v-3.93h10.314v3.93zm6.12-8.87h-22.161v13.81h22.159v-13.81zm-28.617 28.99-1.077-6.25-4.08 1.43v-8.57h4.7v-6.55h-4.7v-11.19h-6.29v11.19h-5.5v6.55h5.5v10.65c-2.38.72-4.477 1.37-6.29 1.85l1.587 6.78c1.473-.53 3.06-1.07 4.7-1.66v12.38c0 .65-.17.89-.793.89-.51 0-2.04 0-3.627-.06a21.732 21.732 0 0 1 1.643 6.31c3.23 0 5.384-.24 6.97-1.31 1.644-1.07 2.1-2.8 2.1-5.89v-14.59zm7.027 10.36a39.612 39.612 0 0 1 -8.841 8.99 48.686 48.686 0 0 1 4.591 4.46 60.9 60.9 0 0 0 10.03-11.31zm3.966-14.29h-4.646v-4.4h4.646zm12.751-4.4h4.871v4.4h-4.873v-4.4zm11.22 18.57v-5.72h-14.28v-3.63h13.316v-13.99h-15.47v13.75h-2.215v-13.75h-14.96v13.99h12.92v3.63h-13.66v5.72h13.657v14.29h6.4v-14.29h5.27l-3.91 3.51c3.343 2.92 7.536 7.09 9.35 9.94l4.533-4.28a67.867 67.867 0 0 0 -9.52-9.17h8.557zm16.859-41.19c-2.833 8.45-7.763 16.9-12.92 22.26a48.847 48.847 0 0 1 3.74 7.56c1.134-1.31 2.324-2.8 3.514-4.29v29.77h6.8v-40.78a95.081 95.081 0 0 0 5.44-12.38zm40.631 16.19v-6.73h-21.991a72.519 72.519 0 0 0 2.777-7.38l-6.517-1.73c-2.55 8.52-7.027 17.09-12.014 22.44a47.532 47.532 0 0 1 5.157 4.95 66.782 66.782 0 0 0 7.424-11.55h2.153v39.17h6.913v-13.22h15.414v-6.55h-15.414v-6.72h14.677v-6.43h-14.677v-6.25h16.094z"/><path d="m154.5 1613.06a47.964 47.964 0 0 0 -6.937-6.02 78.809 78.809 0 0 0 6.474-7.77l-8.971-3.39a39.889 39.889 0 0 1 -4.994 5.82c-2.034-1.46-4.161-2.72-6.011-3.88l-6.289 5.53q2.913 1.89 6.1 4.08c-1.942 1.45-3.884 2.91-5.826 4.17-3.607-6.02-6.1-13.39-7.861-21.84.462-4.95.739-10.29.832-15.92h35.421v-10.38h-35.238v-11.36h-11.651v11.36h-35.975v10.38h35.883c-.648 31.45-4.809 49.02-37.548 58.34a34.753 34.753 0 0 1 6.659 10.58c21.178-6.51 31.814-16.79 37.085-31.35 6.659 15.72 17.2 25.91 35.883 31.06a40.289 40.289 0 0 1 6.751-10.39c-14.427-3.3-23.768-10-30.056-20.09a63.308 63.308 0 0 1 7.306 5.92 46.972 46.972 0 0 0 5.734-4.76 49.908 49.908 0 0 1 6.566 6.12zm-51.236-23.78a67.289 67.289 0 0 0 -6.011-4.76c2.312-2.33 4.532-4.66 6.381-6.89l-8.416-3.49a48.432 48.432 0 0 1 -5.272 5.43c-2.5-1.45-4.809-2.91-7.029-4.08l-5.917 5.83c1.942 1.16 4.069 2.42 6.289 3.88a77.265 77.265 0 0 1 -8.508 5.53 59.081 59.081 0 0 1 7.121 6.51c2.774-1.95 5.734-4.27 8.786-6.8a49.591 49.591 0 0 1 6.2 5.53zm-2.589 23.49a51.179 51.179 0 0 0 -4.994-4.76 72.856 72.856 0 0 0 7.121-8.35l-8.878-3.49a67.8 67.8 0 0 1 -5.549 6.31c-1.757-1.26-3.607-2.43-5.272-3.5l-6.289 5.44c1.665 1.07 3.422 2.42 5.272 3.59a72.374 72.374 0 0 1 -8.323 5.82 64.032 64.032 0 0 1 7.4 6.8 92.316 92.316 0 0 0 8.231-6.51 46.689 46.689 0 0 1 4.717 4.66zm42.912-38.83a67.447 67.447 0 0 1 -5.087 5.53c-2.4-1.45-4.716-2.91-6.936-4.07l-5.919 5.72c2.035 1.17 4.254 2.62 6.381 4.08a71.573 71.573 0 0 1 -8.231 5.82 69.085 69.085 0 0 1 7.307 6.51c2.682-1.94 5.456-4.37 8.415-6.99a47.989 47.989 0 0 1 6.1 5.53l6.474-6.5a76.91 76.91 0 0 0 -6.289-5.15c2.312-2.33 4.439-4.65 6.289-6.89zm27.168 25.24a135.1 135.1 0 0 0 4.162-27.28l-7.861-1.06c-.648 8.05-2.312 18.83-4.532 25.33zm27.375-13.11a111.625 111.625 0 0 0 -7.214-18.34l-4.994 2.23v-18.24h-10.917v90.55h10.913v-65.32a89.077 89.077 0 0 1 4.162 13.1zm25.525-9.02h9.341v17.76h-9.618c.184-3.01.277-5.92.277-8.83zm25.895 28.73v-10.97h-5.83v-28.44h-20.069v-14.65h-11.1v14.65h-15.905v10.68h15.907v8.83c0 2.91 0 5.82-.277 8.93h-19.884v10.97h18.4c-2.5 10.67-8.416 20.96-22.473 28.14a49.451 49.451 0 0 1 7.768 8.93c16-9.6 22.936-23.19 25.8-37.07h27.652zm-27.19 5.24c6.012 9.8 14.15 23.2 17.664 30.96l9.988-5.92c-3.976-7.67-12.485-20.48-18.5-29.89zm55.172-4.76v-21.25h8.6v-10.97h-8.6v-21.06h-10.177v21.06h-9.988v10.97h9.988v25.72c-4.531 1.94-8.6 3.49-12.023 4.75l4.44 11.65c8.416-3.98 18.774-9.22 28.392-14.17l-2.5-10.29zm31.537 23.98c-5.642 0-6.474-.88-6.474-6.51v-29.99l7.676-3.49v29.6h10.265v-34.26l7.122-3.3c-.37 11.45-1.11 23.78-2.127 31.64l8.97 2.62c2.22-11.65 3.515-29.31 4.07-42.8l.369-1.75-8.323-2.81-10.081 4.56v-22.13h-10.269v26.79l-7.676 3.39v-20.77h-10.543v25.53l-9.063 4.08 4.069 10.19 4.994-2.24v25.05c0 13.29 3.607 16.88 16.092 16.88h19.7c10.82 0 13.964-4.65 15.444-18.24a27.792 27.792 0 0 1 -9.618-4.18c-.832 9.9-1.757 12.14-6.751 12.14h-17.85zm71.393-44.85c0 10.1-.832 24.56-8.693 34.07a35.735 35.735 0 0 1 6.381 6.7c8.693-9.8 10.82-24.27 11.19-35.91h5.272c-.37 18.63-.833 25.33-1.942 27.08a2.438 2.438 0 0 1 -2.313 1.26 42.9 42.9 0 0 1 -5.456-.29 24.662 24.662 0 0 1 2.405 9.22 48.42 48.42 0 0 0 8.138-.39 6.775 6.775 0 0 0 5.272-3.59c2.127-3.01 2.681-12.62 3.236-38.73v-3.98h-14.523v-7.08h12.577c1.757 1.36 4.532 3.59 6.289 5.24v6.11h12.67a44.077 44.077 0 0 1 -4.716 4.76v6.02h-10.358v9.12h10.358v11.36c0 .87-.278 1.16-1.388 1.16-1.017 0-4.439 0-7.861-.1a30.8 30.8 0 0 1 3.052 9.52c5.272 0 9.156-.1 11.93-1.65 3.052-1.56 3.607-4.27 3.607-8.84v-11.45h10.728v-9.12h-10.728v-3.79a95.736 95.736 0 0 0 10.266-11.26l-5.827-4.75-1.757.58h-17.386c1.017-1.84 2.034-3.69 3.051-5.82h21.826v-9.52h-17.849c.833-2.52 1.665-4.95 2.4-7.47l-9.248-2.62a76.522 76.522 0 0 1 -7.214 18.44v-5.43h-8.508a103.4 103.4 0 0 0 -3.607-11.55l-9.9 1.84c1.017 2.91 2.035 6.6 2.775 9.71h-11.737v9.51h7.584v11.64zm-11.653-16.98c-1.3-4.37-3.237-10.97-4.809-16.21l-8.416 2.62c1.387 5.24 3.422 12.33 4.439 16.7zm.555 26.98-1.387.29h-3.33c1.85-6.79 3.792-14.56 5.457-21.35h-18.871v10.29h7.307c-1.758 7.57-3.885 15.33-5.734 21.06h10.173a100 100 0 0 1 -4.532 17.08c-2.774 1.85-6.011 5.24-9.156 9.61l7.029 10.68c1.665-5.44 4.254-12.04 6.011-12.04 2.035 0 5.272 3.21 9.249 5.54 6.843 3.97 14.8 4.95 27.189 4.95 10.913 0 27.745-.68 35.236-1.07.185-3.01 1.942-8.45 3.145-11.26a344.3 344.3 0 0 1 -37.918 2.43c-10.913 0-19.791-.68-26.173-4.57-2.589-1.55-4.439-3.01-6.011-3.98a135.1 135.1 0 0 0 6.566-26.11zm156.477-36.78h-44.396v10.96h44.392v-10.96zm-47.813 53.38-11.191 2.81v-17.47h9.156v-10.58h-9.156v-17.18h9.988v-10.67h-31.54v10.67h10.915v17.18h-9.99v10.58h9.99v20.09c-4.717 1.07-9.063 2.04-12.67 2.82l2.219 11.06c9.433-2.62 21.826-5.92 33.479-9.22zm39.49 19.12c-1.295 0-1.48-.39-1.48-3.69v-30.57h14.52v-11.07h-52.812v11.07h10.454c-.74 18.92-2.775 30.18-21.179 36.69a27.675 27.675 0 0 1 6.1 8.83c21.271-7.96 24.6-22.81 25.71-45.52h6.289v30.67c0 10.77 1.942 14.36 10.45 14.36h6.289c7.029 0 9.711-4.36 10.636-19.31-2.867-.87-7.491-2.72-9.711-4.76-.185 11.46-.555 13.3-2.035 13.3h-3.236zm43.558-22.13h9.524l3.237-33.19.462-14.47h-16.927l.37 14.47zm4.716 25.82a9.248 9.248 0 0 0 9.618-9.51 9.618 9.618 0 0 0 -19.236 0 9.249 9.249 0 0 0 9.614 9.51z"/></g></svg>