<svg id="txt_lead_03.svg" xmlns="http://www.w3.org/2000/svg" width="451.469" height="209.5" viewBox="0 0 451.469 209.5">
  <defs>
    <style>
      .cls-1 {
        fill: #fff;
        fill-rule: evenodd;
      }
    </style>
  </defs>
  <path id="打造出和自己相似的虛擬人物_のコピー" data-name="打造出和自己相似的虛擬人物， のコピー" class="cls-1" d="M110.874,3813.71l-3.828,1.02v-5.04h3.794v-3.94h-3.794v-6.66h-4.062v6.66H98.653v3.94h4.331v6.06c-1.713.46-3.358,0.85-4.7,1.13l1.108,4.16,3.593-.95v6.97c0,0.53-.168.71-0.638,0.71-0.437,0-1.847,0-3.19-.07a14.959,14.959,0,0,1,1.175,3.94c2.418,0,4.029-.11,5.171-0.77,1.141-.64,1.544-1.7,1.544-3.77v-8.18c1.444-.38,2.888-0.81,4.331-1.23Zm18.667-11.98H111.377v4.2h8.494v20.46a0.76,0.76,0,0,1-.94.88c-0.671,0-3.189.04-5.271-.1a16.27,16.27,0,0,1,1.578,4.58c3.123,0,5.372-.07,6.883-0.85,1.544-.74,2.081-1.97,2.081-4.44v-20.53h5.339v-4.2Zm20.747,4.86v2.96h-6.379a19.8,19.8,0,0,0,2.149-2.96h4.23Zm-8.93,2.96v3.53h21.588v-3.53h-8.7v-2.96h7.319v-3.55H154.25v-3.95h-3.962v3.95h-2.35a25.619,25.619,0,0,0,1.007-2.72l-3.693-.91a19.8,19.8,0,0,1-4.767,8.17,21.213,21.213,0,0,1,3.29,1.97h-2.417Zm6.312,11.87v-3.24h9.065v3.24H147.67Zm13.026,4.48v-11.03H143.842V3826h3.828v-1.05h9.065v0.95H160.7Zm-20.983-20.82c-0.5-1.51-1.31-3.84-1.948-5.71l-3.659,1.13c0.6,1.87,1.41,4.33,1.846,5.88Zm0.873,9.55-0.571.17H138.1c0.806-2.39,1.679-5.14,2.384-7.54h-8.259V3811h3.558c-0.8,2.64-1.712,5.42-2.484,7.4h4.5a34.48,34.48,0,0,1-2.048,5.91,12.712,12.712,0,0,0-4.13,3.77l2.653,4.02c0.772-2.01,1.88-4.4,2.652-4.4,0.671,0,1.88,1.16,3.257,1.97,2.417,1.48,5.237,1.86,9.669,1.86,3.928,0,9.8-.24,12.624-0.42a17,17,0,0,1,1.141-4.3,107.248,107.248,0,0,1-13.6.92c-3.928,0-7.051-.21-9.334-1.66a18.8,18.8,0,0,1-1.578-1.09,41.056,41.056,0,0,0,3.156-9.58Zm49.906,2v9.23h-7.084V3814.8h10.207v-12.78h-4.432v8.73h-5.775v-11.69h-4.432v11.69h-5.539v-8.73h-4.231v12.78h9.77v11.06h-7.05v-9.19h-4.5v13.35h23.065v1.9h4.5v-15.29h-4.5Zm19.12-3.24h4.868v-3.87h-4.868v-5.39a41.229,41.229,0,0,0,5-1.48l-2.585-3.28a57.37,57.37,0,0,1-12.322,3.03,15.036,15.036,0,0,1,1.075,3.28c1.544-.21,3.156-0.46,4.8-0.74v4.58h-5.976v3.87h5a31.94,31.94,0,0,1-5.741,10.47,18.669,18.669,0,0,1,2.014,3.94,31.638,31.638,0,0,0,4.7-8.42v12.54h4.029v-13c1.108,1.66,2.182,3.42,2.82,4.62l2.283-3.49c-0.739-.95-3.76-4.65-5.1-6.06v-0.6Zm9.669,10.08v-17.09h5.372v17.09h-5.372Zm-3.928-21.1v27.9h3.928v-2.79h5.372v2.54h4.129v-27.65H215.353Zm23.964,23.92v-3.67h15.948v3.67H239.317Zm15.948-11.17v3.63H239.317v-3.63h15.948Zm0-7.5v3.62H239.317v-3.62h15.948Zm-7.252-4.02c0.537-1.27,1.074-2.64,1.578-4.05l-4.835-.56a41.811,41.811,0,0,1-.906,4.61h-8.595v28.32h4.062v-1.76h15.948v1.73h4.264V3803.6H248.013Zm26.973,23.53c-3.592,0-4.2-.32-4.2-2.18v-8.49h14.974v2.01h4.264v-17.41h-23.8v4.3h19.54v6.98H266.626v12.68c0,5.04,2.048,6.3,8.326,6.3H285.83c6.01,0,7.487-1.83,8.226-8.56a14.89,14.89,0,0,1-4.063-1.58c-0.436,5.07-.906,5.95-4.263,5.95H274.986Zm31.394-16.91h4.2v-3.94h-4.2v-7.22h-3.828v7.22h-4.8v3.94h4.331c-1.074,4.19-3.021,8.99-5.2,11.77a21.319,21.319,0,0,1,1.88,3.94,30.614,30.614,0,0,0,3.794-7.92v13.91h3.828v-14.65c0.94,1.58,1.913,3.24,2.417,4.37l2.283-3.42c-0.671-.88-3.525-4.51-4.7-5.85v-2.15Zm9.2,15.61v-4.51h7.89v4.51h-7.89Zm7.89-12.79v4.47h-7.89v-4.47h7.89Zm0-8.14v4.37h-7.89v-4.37h7.89Zm-11.718-3.94v30.68h3.828v-2.01h7.89v1.8H327.5v-30.47H311.751Zm43.414,10.67a39.736,39.736,0,0,0-3.626-8.17l-3.324,1.44a43.016,43.016,0,0,1,3.324,8.39Zm-16.821-12.47a37.773,37.773,0,0,1-7.621,13.21,27.252,27.252,0,0,1,2.115,4.33,31.416,31.416,0,0,0,2.283-2.81v18h3.794v-24.2a57.582,57.582,0,0,0,3.223-7.26Zm13.06,18.71c-1.443.56-2.92,1.12-4.364,1.69l-0.168-18.5-3.9.04,0.2,19.87c-1.242.45-2.417,0.88-3.391,1.19l1.611,4.13c3.156-1.34,7.118-3.07,10.744-4.76ZM363.323,3829a71.817,71.817,0,0,0-5.439-7.4c2.485-5.14,3.391-11.94,3.693-20.96l-4.062-.1c-0.336,15.92-2.552,24.16-14.068,28.04A19.261,19.261,0,0,1,346,3832.2a22.175,22.175,0,0,0,9.669-6.94,63.563,63.563,0,0,1,4.466,6.73Zm7.1-4.37v-6.9h5.338v6.9h-5.338Zm5.338-10.53h-5.338v-5.71h5.338v5.71Zm10.643-9.62a42.661,42.661,0,0,0,1.31-4.47l-3.794-.92a37.315,37.315,0,0,1-4.533,11.34v-5.7h-5.2c0.571-1.52,1.175-3.28,1.746-5.04l-4.364-.63a39.716,39.716,0,0,1-.974,5.67H366.8v26.17h3.626v-2.57h8.964v-16.45a24.192,24.192,0,0,1,2.585,1.97,30.73,30.73,0,0,0,2.955-5.56h7.185c-0.37,12.43-.806,17.71-1.78,18.84a1.741,1.741,0,0,1-1.477.6c-0.873,0-2.854,0-5-.21a10.17,10.17,0,0,1,1.309,4.09,35.233,35.233,0,0,0,5.271-.08,4.417,4.417,0,0,0,3.223-1.93c1.377-1.87,1.746-7.47,2.183-23.22,0.033-.49.033-1.9,0.033-1.9H386.4Zm3.895,16.06a85.838,85.838,0,0,0-4.936-7.82l-3.122,1.87a75.486,75.486,0,0,1,4.667,8.14Zm15.154-11.66h6.413v2.01l-5.372.42,0.2,2.79,5.171-.46c0.134,2.82,1.242,3.98,4.835,3.98h7.084a18.485,18.485,0,0,0,4.062-.28c-0.134-.85-0.235-2.01-0.369-3.1a22.672,22.672,0,0,1-4,.28H417c-1.108,0-1.343-.35-1.377-1.16l7.991-.67-0.168-2.71-7.823.63v-1.73h9.032c-0.2.92-.4,1.8-0.638,2.51l3.323,0.91a38.656,38.656,0,0,0,1.881-6.09l-2.821-.67-0.638.14h-9.736v-1.41h11.012v-3.07H416.029v-2.11h-4v6.59H401.693v8.07c0,4.61-.269,11.13-3.089,15.67a14.17,14.17,0,0,1,3.19,2.29c3.089-4.93,3.659-12.72,3.659-17.93v-4.9Zm15.713,18.5v-1.8h5.372v-6.69h-3.056v3.66h-2.316v-4.15h-3.425v8.98h-2.182v-8.98H412.2v4.15h-2.485v-3.66H406.7v6.69H412.2v1.8h-7.689v3.52h24.744v-3.52h-8.091Zm27.734-16.8a7.59,7.59,0,0,0,2.35-.25,28.32,28.32,0,0,1-.268-3,9.68,9.68,0,0,1-2.115.22h-3.022c-0.638,0-.739-0.36-0.739-1.38v-1.34h5.339v-2.99h-5.339v-2.71h-3.29v7.04c0,3.17.705,4.41,3.9,4.41H448.9Zm1.813,16.34a22,22,0,0,0-2.921-2.92c0.1-.39.168-0.78,0.235-1.13h3.19v-3.24h-2.854v-2.93h2.552v-3.2h-5.339c0.2-.71.37-1.41,0.5-2.11l-2.988-.67a26.642,26.642,0,0,1-1.41,5.07l-0.437-2.4-2.182.78v-4.58h2.182v-3.88h-2.182v-6.65h-3.492v6.65h-2.753v3.88h2.753v5.81c-1.242.42-2.35,0.78-3.324,1.06l0.941,4.01,2.383-.91v8.06c0,0.46-.134.6-0.5,0.6s-1.41,0-2.518-.03a16.325,16.325,0,0,1,.973,3.7c1.981,0,3.358-.14,4.3-0.78,0.973-.63,1.242-1.62,1.242-3.49v-9.37l1.645-.66-0.134.21a23.379,23.379,0,0,1,2.484,1.83,17.79,17.79,0,0,0,1.478-2.93h0.7v2.93h-4.264v3.24h3.894a10.639,10.639,0,0,1-4.834,6.76,10.054,10.054,0,0,1,2.215,2.29,14.167,14.167,0,0,0,4.332-4.79,28.454,28.454,0,0,1,2.081,2.5Zm9.837,1.23a10.624,10.624,0,0,1-1.511-.1v-5.08h3.828v-3.27h-3.828v-4.51h1.646c-0.168,1.06-.3,2.08-0.437,2.82l2.283,0.6c0.4-1.62.873-4.2,1.209-6.41l-1.88-.46-0.47.1h-1.645l1.88-2.04c-0.605-.53-1.444-1.16-2.384-1.83a41.228,41.228,0,0,0,4.2-6.55l-2.25-1.59-0.571.21h-8.662v3.21H458.6a26.616,26.616,0,0,1-1.914,2.89c-0.705-.46-1.41-0.92-2.048-1.31l-2.249,2.22a72.076,72.076,0,0,1,6.278,4.79h-7.252v3.35h4.6v11.17a9.089,9.089,0,0,1-1.444-2.89,55.387,55.387,0,0,0,.5-6.13l-2.955-.14c-0.1,5.49-.6,10-3.021,12.86a12.13,12.13,0,0,1,2.417,1.93,13.034,13.034,0,0,0,2.081-4.19c1.646,2.89,3.929,3.59,6.715,3.59h3.156a11.64,11.64,0,0,1,.907-3.24H460.55Zm19.727-29.06c-0.134,5.95.5,21.74-13.127,29.38a13.079,13.079,0,0,1,3.323,3.42c6.984-4.3,10.509-10.68,12.356-16.88,1.947,6.06,5.674,12.93,13.127,16.67a11.028,11.028,0,0,1,2.921-3.63c-11.717-5.43-13.765-18.71-14.235-23.46,0.134-2.12.2-4.02,0.235-5.5h-4.6Zm31.28,15.5-3.088.92v-5.67h2.786v-3.99h-2.786v-6.76h-3.66v6.76h-1.578c0.2-1.4.369-2.78,0.5-4.19l-3.324-.6c-0.3,4.16-.873,8.56-1.914,11.35a29.063,29.063,0,0,1,2.82,1.93,33.086,33.086,0,0,0,1.243-4.5h2.249v6.72c-2.283.67-4.331,1.24-6.01,1.62l0.974,3.98c1.544-.42,3.223-0.98,5.036-1.55v11.38h3.66v-12.54c1.242-.39,2.417-0.81,3.626-1.16Zm5.977-10.07c0.47-1.55.906-3.14,1.242-4.76l-3.626-.7c-1.007,5.17-2.854,10.21-5.506,13.28a22.082,22.082,0,0,1,3.021,2.36,26.594,26.594,0,0,0,3.459-6.31h1.712c-1.477,5.11-4.1,10.32-7.42,13.07a14.2,14.2,0,0,1,3.055,2.36c3.391-3.38,6.211-9.69,7.689-15.43h1.578c-1.679,8.24-5.036,16.24-10.408,20.29a14.959,14.959,0,0,1,3.256,2.43c5.406-4.68,8.864-13.84,10.509-22.72h0.168c-0.537,12.65-1.142,17.44-1.981,18.57a1.39,1.39,0,0,1-1.242.66,26.128,26.128,0,0,1-2.988-.14,12.221,12.221,0,0,1,1.108,4.09,18.024,18.024,0,0,0,3.793-.11,3.645,3.645,0,0,0,2.619-1.83c1.276-1.76,1.88-7.5,2.518-23.21,0.034-.49.067-1.9,0.067-1.9H517.534Zm22.549,18.7a8.757,8.757,0,0,0,6.614-8.52c0-2.96-1.243-4.83-3.626-4.83a3.12,3.12,0,0,0-3.291,3.17,3.046,3.046,0,0,0,3.19,3.14,1.062,1.062,0,0,0,.369-0.04c-0.2,1.87-1.712,3.38-4.331,4.26Z" transform="translate(-95.219 -3799)"/>
  <path id="任何人都能_參加奧運_のコピー" data-name="任何人都能 參加奧運！ のコピー" class="cls-1" d="M115.037,3845.62c-4.389,12.18-11.914,24.1-19.831,31.59a72.318,72.318,0,0,1,5.408,10.36,81.707,81.707,0,0,0,6.663-7.81v42.1h9.25v-56.42a118.971,118.971,0,0,0,7.76-16.77ZM170.3,3889.3v-9.46H150.076v-17.93h17.245v-9.21H124.6v9.21h15.991v17.93H120.368v9.46h20.223v20.47H122.484v9.38h46.091v-9.38h-18.5V3889.3H170.3Zm23.082-44.25c-3.841,11.59-10.582,23.11-17.48,30.35a64.448,64.448,0,0,1,5.017,10.19,83.209,83.209,0,0,0,5.487-6.9v43.01h9.328v-58.64a137.8,137.8,0,0,0,6.428-15.05Zm26.416,33.88v12.83h-8.7v-12.83h8.7Zm8.7,21.3v-29.77H202.4v35.12h8.7v-5.35h17.4Zm21.243-48.03H201.455v9.38h34.176v48.61c0,1.56-.47,2.05-2.038,2.05s-7.054,0-12.15-.25a38.08,38.08,0,0,1,3.136,10.04c7.29,0,12.62-.33,15.912-1.81,3.371-1.56,4.547-4.2,4.547-9.87v-48.77h4.7v-9.38Zm35.193-6.99c-0.314,13.9,1.176,50.75-30.649,68.59a30.7,30.7,0,0,1,7.76,7.98c16.3-10.03,24.535-24.92,28.846-39.39,4.547,14.14,13.247,30.18,30.649,38.9a25.724,25.724,0,0,1,6.82-8.47c-27.357-12.67-32.139-43.67-33.236-54.78,0.314-4.93.47-9.37,0.549-12.83H284.934Zm69,23.77v-6.74h5.879c-1.411,2.38-2.822,4.6-4.311,6.74h-1.568Zm6.114,27.55h-12.62v-5.26h12.62v5.26Zm-12.62,13.16v-5.84h12.62v5.84h-12.62Zm50.637-60.37-1.411.33H374.08v1.57l-8.23-2.39a79.87,79.87,0,0,1-3.841,9.21v-4.19h-8.074v-7.98h-8.622v7.98H335.044v8.39h10.269v6.74H331.674v8.55h16.7a72.474,72.474,0,0,1-18.734,13.57,50.572,50.572,0,0,1,5.408,8.15c1.254-.74,2.587-1.57,3.919-2.47v24.92h8.466v-4.2h12.62v3.13h8.858v-37.09H354.8c1.725-1.98,3.371-3.87,5.017-6.01h11.68v-8.55h-5.8a101.492,101.492,0,0,0,8.387-17.52v70.4h9.171v-62.99h9.955c-1.959,6.33-4.624,14.63-6.9,20.56,6.27,6.33,8.073,12.33,8.073,16.86,0,2.71-.548,4.68-2.038,5.59a6.184,6.184,0,0,1-3.135.74,34.7,34.7,0,0,1-4.939-.17,24.757,24.757,0,0,1,2.352,9.46,36.2,36.2,0,0,0,6.82-.08,11.57,11.57,0,0,0,5.487-2.22c3.135-2.14,4.389-6.17,4.389-12.34,0-5.26-1.332-11.76-8-19.08,3.214-7.24,6.663-16.53,9.485-24.42Zm75.64,32.08c2.979,0,6.271-.16,7.917-0.74-0.313-2.22-.7-5.76-0.862-8.31a38.75,38.75,0,0,1-7.211.66H462.105c-2.508,0-2.978-1.15-2.978-4.19v-5.43H478.41V3855H459.127v-9.71h-9.25v23.36c0,9.13,2.508,12.75,11.915,12.75h11.914Zm-50.637,8.8a114.879,114.879,0,0,1,8.544,7.9l3.763-3.87v2.71c-4.7,2.64-9.328,5.1-12.856,6.75a102.325,102.325,0,0,0,.549-10.53v-2.96Zm12.307-7.4v9.29c-2.352-2.14-5.722-5.02-8.388-6.99l-3.919,3.54v-5.84h12.307Zm8.779-8.23H414.447v18.51c0,7.15-.314,16.2-4.468,22.62a38.466,38.466,0,0,1,6.506,6.57c2.978-4.27,4.7-9.86,5.565-15.46l1.96,5.76c3.527-2.38,7.446-5.18,11.366-8.14v8.39c0,1.07-.314,1.4-1.333,1.4-0.94,0-4,0-6.819-.17a28.162,28.162,0,0,1,2.821,7.65c4.782,0,8.309-.17,10.818-1.4,2.586-1.31,3.292-3.37,3.292-7.4v-38.33ZM432.24,3854.1c1.019,1.97,2.117,4.27,3.293,6.66l-11.445.9a91.359,91.359,0,0,0,9.642-13.65l-9.407-2.8a69.8,69.8,0,0,1-9.249,14.64c-1.568,1.81-2.9,2.96-4.311,3.29,0.94,2.47,2.43,6.91,2.9,8.8,2.273-.99,5.487-1.48,25.318-3.53,0.784,1.97,1.49,3.7,1.96,5.18l8.152-3.46a178.548,178.548,0,0,0-9.328-18.91Zm30.492,58.72c-3.057,0-3.605-.41-3.605-3.29v-8.97h19.831v-8.63H459.127v-8.23h-9.25v25.83c0,8.96,2.273,11.84,11.523,11.84h11.131c7.446,0,9.876-3.21,10.817-13.98a24.991,24.991,0,0,1-8.074-3.54c-0.392,7.57-.94,8.97-3.606,8.97h-8.936Zm-311.167,71.84c-8.7,9.21-26.337,13.73-45.072,15.62a30.013,30.013,0,0,1,4.155,7.81c20.067-2.79,38.1-8.22,48.442-19.65Zm-8.544-8.15c-6.976,5.84-20.615,10.04-32.608,12.09a33.463,33.463,0,0,1,4.624,6.91c12.856-2.79,26.5-7.98,34.96-15.38Zm25.867-11.84c-1.254-3.62-4.546-8.96-7.681-12.75l-6.428,2.63c0.784,1.07,1.568,2.22,2.352,3.46l-6.585.33a48.469,48.469,0,0,0,3.763-6.09l-8.231-3.45a32.825,32.825,0,0,1-3.762,8.14,5.269,5.269,0,0,1-2.665,2.14v0.08a31.018,31.018,0,0,1-2.2-2.47c0.392-.82.94-1.64,1.411-2.55l-8.544-2.55a30.654,30.654,0,0,1-5.252,7.57c-0.941-2.06-2.038-4.19-2.979-6.09l-6.663,1.98a26.056,26.056,0,0,1,1.725,3.37l-5.644.25a41.8,41.8,0,0,0,4.546-6.42l-7.29-3.04c3.293-.91,9.093-0.99,41.859-2.22,1.1,1.23,2.038,2.38,2.821,3.29l7.447-3.79c-3.527-4.19-10.66-10.19-16.069-14.31l-7.055,3.46a66.808,66.808,0,0,1,5.8,4.69l-20.459.49a89.956,89.956,0,0,0,9.328-6l-8.152-4.2a64.9,64.9,0,0,1-13.482,8.88,19.018,19.018,0,0,1-5.174,2.06c0.784,2.06,1.96,5.51,2.43,7.32l-0.235-.08a34.389,34.389,0,0,1-4.7,8.47,6.221,6.221,0,0,1-2.9,2.14,69.735,69.735,0,0,1,2.979,7.65c1.568-.66,3.841-1.07,15.207-1.9a67.61,67.61,0,0,1-21.948,10.28,45.052,45.052,0,0,1,5.017,7.73,90.235,90.235,0,0,0,10.817-4.52,36.768,36.768,0,0,1,4.389,5.35c8.153-2.39,18.108-6.58,24.614-11.52l-6.506-3.53c-4.625,3.29-12.856,6.49-19.989,8.47a60.337,60.337,0,0,0,17.794-14.15c8.465,8.72,20.3,15.63,32.765,19.41a35.568,35.568,0,0,1,5.879-7.56,78.435,78.435,0,0,1-23.124-9.46c2.587-.33,6.506-0.66,12.62-1.07,0.471,1.15.941,2.22,1.254,3.21Zm34.321-18.92c0.078-4.68.157-9.54,0.157-14.31h-9.407c0,4.77,0,9.63-.078,14.31h-9.406v9.54h9.171c-0.627,18.1-2.979,34.55-11.288,45.73a25.562,25.562,0,0,1,7.368,6.99c9.328-13.07,12.229-31.99,13.169-52.72h7.682c-0.941,27.23-2.116,37.43-3.841,39.81a2.927,2.927,0,0,1-2.743,1.56c-1.411,0-3.92-.08-6.663-0.33A27.716,27.716,0,0,1,200,4006.45a42.22,42.22,0,0,0,8.936-.41c2.508-.49,4.233-1.48,6.036-4.36,2.743-3.87,3.919-16.7,5.095-51.48,0.078-1.24.156-4.53,0.156-4.53Zm29.865,45.4v-41.2h10.5v41.2h-10.5Zm-9.328-50.58v65.72h9.328v-5.68h10.5v5.1h9.72v-65.14H223.746Zm63.84,4.03H328.66v27.23c0,0.65-.157.9-0.784,0.9H325.76l0.7-1.15a120.959,120.959,0,0,0-12.7-7.4H326v-5.76H319.8q1.059-1.98,2.587-4.44l-5.644-1.65a50.167,50.167,0,0,1-2.43,5.93l0.471,0.16h-3.371v-6.25c5.095-.33,9.955-0.91,13.953-1.56l-3.763-5.02c-7.29,1.32-20.3,2.06-30.884,2.22a19.809,19.809,0,0,1,1.489,4.93c3.841,0.09,8,0,12.229-.16v5.84h-3.684l0.7-.25a23.277,23.277,0,0,0-2.273-5.26l-5.1,1.56a21.39,21.39,0,0,1,1.567,3.95h-5.408v5.76h10.974a40.48,40.48,0,0,1-12.7,7.89,32.668,32.668,0,0,1,4.468,5.43,42.838,42.838,0,0,0,11.445-8.31v6.5h6.976v-5.92c4.233,2.47,8.622,5.26,11.209,7.15l2.509-3.45a35.946,35.946,0,0,1,2.508,6.42c2.979,0,5.487-.17,7.447-1.4,2.038-1.24,2.586-3.13,2.586-6.66v-34.88H312.042c0.706-1.48,1.411-3.12,2.116-4.77l-10.19-.98c-0.392,1.64-1.019,3.7-1.724,5.75H278.885v42.11h8.7V3944.6Zm55.889,45.32v-8.06H311.337c0.156-1.23.313-2.55,0.47-3.95h-9.8c-0.157,1.4-.314,2.72-0.549,3.95H272.536v8.06H298.56c-3.449,5.18-10.818,8.22-27.435,9.79,1.567,2.05,3.684,5.84,4.154,8.22,22.027-2.63,30.414-8.31,34.02-18.01h3.292l-3.292,5.26c9.641,3.87,23.515,9.71,30.257,13.33l4.389-7.73c-6.271-3.05-17.872-7.49-26.729-10.86h26.259Zm79.994-49.02v5.43H412.182v-3.21h-9.093v3.21H391.018v-5.43h32.451Zm-3.292,21.22v3.29h-8v-3.29h8Zm0,12.17h-8V3971h8v3.29Zm-25.4,0V3971h8.309v3.29H394.78Zm0-12.17h8.309v3.29H394.78v-3.29Zm-5.722-8.96h14.031v2.96H386.863v24.09h16.226v2.96h-19.91v7.08h19.91v5.43h9.093v-5.43h20.145v-7.08H412.182v-2.96h16.3v-24.09h-16.3v-2.96h12.071v-3.05h8.152v-16.36H382.474v16.36h6.584v3.05Zm-10.5-8.31c-1.019-3.7-3.057-9.21-4.546-13.65l-8.231,2.63c1.333,4.44,3.449,10.44,4.312,14.23Zm-1.175,23.36-1.333.24h-1.254c1.8-5.67,3.841-12.25,5.487-18.09H361.7v8.72h7.212c-1.8,6.41-3.919,12.99-5.8,17.84h9.955a70.136,70.136,0,0,1-4.389,14.15,35.539,35.539,0,0,0-8.466,7.98l6.271,9.29c1.881-4.69,4.7-10.28,6.506-10.28,1.646,0,4.39,2.72,7.682,4.61,5.644,3.45,12.228,4.36,22.653,4.36,9.171,0,23.046-.58,29.473-0.99,0.079-2.63,1.647-7.4,2.744-10.04a252.446,252.446,0,0,1-31.746,2.14c-9.172,0-16.54-.49-21.87-3.86-1.96-1.24-3.449-2.3-4.625-3.13a102.422,102.422,0,0,0,5.566-20.23Zm92.2,11.51h8.074l2.744-28.13,0.392-12.25H466.447l0.313,12.25Zm4,21.88a7.839,7.839,0,0,0,8.152-8.06,8.152,8.152,0,0,0-16.3,0A7.839,7.839,0,0,0,473.58,4001.6Z" transform="translate(-95.219 -3799)"/>
</svg>
