<svg height="219.68" viewBox="0 0 657.438 219.68" width="657.438" xmlns="http://www.w3.org/2000/svg"><g fill="#fff" fill-rule="evenodd" transform="translate(-57.906 -6030.66)"><path d="m58.4 6117.06v8.79h59.716v-8.79zm116.438-17.05v11.8h-10.191v-11.8zm1.947 41.32c6.491 0 8.568-3.27 9.412-12.95a21.57 21.57 0 0 1 -6.75-3.14c-.39 7.23-.844 8.79-3.311 8.79h-8.373c-2.726 0-3.116-.54-3.116-3.68v-11.52h17.591v-25.91h-25.055v37.43c0 8.66 2.336 10.98 9.606 10.98h10zm-31.091-9.41h8.243v-7.02h-8.243v-7.36h8.762v-7.1h-10.19v-6.34h8.634v-7.02h-8.633v-6.61h-7.267v6.61h-9.152v7.02h9.152v6.34h-10.97v7.1h12.593v20.52a22.179 22.179 0 0 1 -3.57-7.23c.129-2.8.259-5.8.324-8.8l-7.075-.54c-.13 11.66-.779 23.04-3.96 29.93a65.272 65.272 0 0 1 6.491 3.48 50.848 50.848 0 0 0 2.986-12c5.128 7.63 12.852 9.34 24.861 9.34h25.055a28.608 28.608 0 0 1 2.92-8.05c-5.841.34-23.042.34-27.975.27-5.193 0-9.542-.27-12.982-1.5v-11.04zm78.856-7.36c0 .61-.2.75-.779.75a28.916 28.916 0 0 1 -4.155-.07 22.324 22.324 0 0 1 1.688 4.98c3.181 0 5.712 0 7.4-.82 1.752-.89 2.272-2.05 2.272-4.84v-17.25h-2.467v-.14h-7.2v-4.97h10.191v-6.69h-10.2v-4.63h-6.556v22.63h9.8v11.05zm-8.893-9.41c-.26 3.61-.779 7.09-2.4 9.61a34.21 34.21 0 0 1 4.868 3.21c1.818-2.87 2.857-7.37 3.311-11.8zm36.739 15.68h-5.647c.519-10.23.843-25.43.843-37.57h-14.539v6.96h7.464c-.065 1.98-.065 3.88-.065 5.86h-6.752v6.68h6.556c-.065 1.98-.13 3.96-.2 5.87h-6.816v6.68h6.56c-.13 1.97-.194 3.75-.324 5.52h-33.876l-.195-5.73h7.01v-6.61h-7.2l-.195-5.86h7.205v-6.62h-7.4l-.195-6.13c2.921-.82 5.972-1.64 8.7-2.66l-3.31-6.61a109.9 109.9 0 0 1 -12.4 5.04l1.1 35.18h-5.842v7.5h17.72a82.592 82.592 0 0 1 -17.526 9.48 49.448 49.448 0 0 1 4.284 6.06 119.521 119.521 0 0 0 20.057-10.84l-5.452-4.7h19.278l-3.44 4.7a152.492 152.492 0 0 1 17.72 10.64l5.128-6.21a175.12 175.12 0 0 0 -16.552-9.13h18.3v-7.5zm18.77-16.02a91.281 91.281 0 0 0 15.967-14.93 86.276 86.276 0 0 0 15.579 14.93zm19.862 21.95h17.006v-7.02h-17.006v-7.77h13.891v-5.59a64.035 64.035 0 0 0 8.178 4.84 39.93 39.93 0 0 1 5.193-7.43c-11.035-4.23-21.42-12.82-27-21.41h-22.2v7.5h8.632a73.22 73.22 0 0 1 -21.355 14.79 33.684 33.684 0 0 1 4.739 6.55 80.453 80.453 0 0 0 8.243-5.12v5.87h13.631v7.77h-16.812v7.02h16.811v8.25h-23.173v7.23h55.238v-7.23h-24.016zm86.483-25.36a88.8 88.8 0 0 1 -6.556 10.09 87.82 87.82 0 0 1 -2.337-10.09v-2.73h15.9v-7.43h-5.582l3.7-3.75a40.123 40.123 0 0 0 -7.789-6.75l-4.219 4.09a49.51 49.51 0 0 1 6.816 6.41h-8.828v-10.91h-7.4v10.91h-14.927v7.43h14.929v16.3c-5.387 4.7-11.164 9.47-15.383 12.75l-.714-4.44-6.621 2.12v-14.25h5.582v-7.43h-5.582v-12h6.556v-7.57h-20.576v7.57h6.82v12h-6.5v7.43h6.5v16.43c-2.921.89-5.517 1.63-7.789 2.25l1.623 7.7c5.582-1.84 12.592-4.16 19.278-6.41l3.57 5.73c4.024-3.82 8.7-8.52 13.241-13.16v11.18a1.187 1.187 0 0 1 -1.428 1.37c-.973.07-4.024.07-7.14-.07a37.008 37.008 0 0 1 2.6 7.84c4.8 0 8.113-.34 10.32-1.71 2.272-1.29 3.051-3.4 3.051-7.49v-10.84a44.752 44.752 0 0 0 12.268 14.72 17.34 17.34 0 0 1 4.738-6.13 37.03 37.03 0 0 1 -12.138-14.32 151.637 151.637 0 0 0 10.71-13.16zm-30.832 3.07a55.838 55.838 0 0 1 5.906 12.27l6.3-3.07c-.974-3.41-3.765-8.25-6.232-12zm102.158-19.36h-31.157v7.7h31.157zm-33.559 37.49-7.854 1.98v-12.27h6.426v-7.43h-6.426v-12.07h7.011v-7.5h-22.135v7.5h7.659v12.07h-7.01v7.43h7.01v14.11c-3.311.75-6.361 1.43-8.893 1.98l1.558 7.77c6.621-1.84 15.319-4.16 23.5-6.48zm27.722 13.43c-.909 0-1.039-.27-1.039-2.59v-21.47h10.191v-7.78h-37.068v7.78h7.335c-.52 13.29-1.948 21.2-14.865 25.77a19.477 19.477 0 0 1 4.284 6.2c14.929-5.59 17.266-16.02 18.045-31.97h4.417v21.54c0 7.57 1.363 10.09 7.335 10.09h4.414c4.933 0 6.815-3.07 7.464-13.57-2.012-.61-5.258-1.91-6.815-3.34-.13 8.05-.39 9.34-1.428 9.34zm26.019-43.02h40.5v8.05h7.919v-15.41h-23.109a36.2 36.2 0 0 0 -2.791-6.07l-8.179 2.46a30.726 30.726 0 0 1 1.558 3.61h-23.5v15.41h7.594v-8.05zm37.972 11.73a86.879 86.879 0 0 1 -12.268 10.29 26.251 26.251 0 0 0 -5.712-8.24 31.6 31.6 0 0 0 3.9-3.14h14.41v-6.89h-36.294v6.89h11.164c-5.842 3.34-13.566 5.93-20.9 7.5a37.66 37.66 0 0 1 3.96 6.34 84.213 84.213 0 0 0 18.044-7.16c.65.75 1.234 1.5 1.818 2.25-5.647 3.95-16.292 8.25-24.276 10.02a35.257 35.257 0 0 1 3.829 6.27 105.452 105.452 0 0 0 23.368-11.11 26.278 26.278 0 0 1 .973 2.59c-6.426 5.73-18.888 11.59-29.144 13.91a32.829 32.829 0 0 1 4.025 6.75 100.389 100.389 0 0 0 26.223-13.09c0 3.27-.779 5.79-1.882 6.89-.909 1.43-1.948 1.63-3.506 1.63a50.4 50.4 0 0 1 -5.841-.34 19 19 0 0 1 2.077 7.7c1.882.07 3.829.14 5.257.07 3.376-.07 5.453-.75 7.725-3.2 3.31-2.86 4.868-10.71 3.05-18.89.649-.41 1.363-.81 2.013-1.29 3.18 9.27 8.308 16.57 16.1 20.45a29.032 29.032 0 0 1 5.128-6.61c-7.465-3.14-12.657-9.89-15.189-17.93 2.856-2.05 5.777-4.23 8.373-6.34z"/><path d="m75.463 6052.64h7.281v-5.8h-7.281v-8.07a61.529 61.529 0 0 0 7.482-2.22l-3.867-4.9c-4.57 1.9-11.9 3.58-18.43 4.53a22.291 22.291 0 0 1 1.607 4.91c2.31-.32 4.72-.69 7.181-1.11v6.86h-8.936v5.8h7.482c-1.958 5.8-5.172 11.87-8.587 15.66a28.269 28.269 0 0 1 3.013 5.91c2.662-3.11 5.022-7.65 7.03-12.6v18.77h6.026v-19.46c1.657 2.48 3.264 5.12 4.218 6.91l3.415-5.22c-1.1-1.43-5.624-6.96-7.633-9.07v-.9zm14.462 15.08v-25.58h8.035v25.58h-8.034zm-5.875-31.59v41.77h5.875v-4.16h8.035v3.79h6.177v-41.4zm34.317 4.91h31.333v6.22h6.126v-11.92h-17.875a28.343 28.343 0 0 0 -2.159-4.7l-6.328 1.9a24 24 0 0 1 1.206 2.8h-18.179v11.92h5.876zm29.376 9.07a67.111 67.111 0 0 1 -9.491 7.96 20.339 20.339 0 0 0 -4.419-6.38 23.613 23.613 0 0 0 3.013-2.43h11.148v-5.32h-28.071v5.32h8.638a58.865 58.865 0 0 1 -16.17 5.81 29.085 29.085 0 0 1 3.063 4.9 64.97 64.97 0 0 0 13.96-5.54c.5.58.954 1.16 1.406 1.74-4.369 3.06-12.6 6.38-18.781 7.76a26.617 26.617 0 0 1 2.963 4.85 82.291 82.291 0 0 0 18.078-8.6 20.177 20.177 0 0 1 .753 2.01c-4.971 4.43-14.613 8.96-22.547 10.75a25.624 25.624 0 0 1 3.113 5.23 77.782 77.782 0 0 0 20.288-10.13c0 2.53-.6 4.48-1.456 5.33a2.692 2.692 0 0 1 -2.712 1.26 38.668 38.668 0 0 1 -4.52-.26 14.688 14.688 0 0 1 1.607 5.96c1.457.05 2.963.1 4.068.05a7.236 7.236 0 0 0 5.976-2.48c2.561-2.21 3.766-8.28 2.36-14.61.5-.31 1.054-.63 1.557-1 2.46 7.17 6.427 12.82 12.453 15.82a22.521 22.521 0 0 1 3.967-5.11c-5.775-2.43-9.792-7.65-11.75-13.87 2.209-1.59 4.469-3.27 6.478-4.91zm34.065-18.88c-.2 8.91.753 32.54-19.635 43.98a19.73 19.73 0 0 1 4.972 5.12c10.445-6.44 15.718-15.98 18.48-25.26 2.912 9.07 8.486 19.35 19.634 24.94a16.6 16.6 0 0 1 4.369-5.43c-17.526-8.12-20.589-28.01-21.292-35.13.2-3.16.3-6.01.352-8.22zm36.456 16.98-5.223 4.8a96.821 96.821 0 0 1 10.8 11.6l5.373-4.85a96.777 96.777 0 0 0 -10.95-11.55zm53.084 8.81c.1-2.06.151-4.01.151-5.81v-.42h7.281v6.23zm7.432-17.83v6.06h-7.28v-6.06h7.281zm-29.48 17.83c.1-1.64.1-3.12.1-4.59v-1.64h6.327v6.23zm6.428-17.83v6.06h-6.328v-6.06h6.327zm28.824-5.7h-18.73v17.72c0 7.71-.4 17.94-4.922 25.27a10.977 10.977 0 0 0 .4-3.43v-39.56h-17.42v18.99c0 7.7-.3 17.99-4.57 24.9a24.127 24.127 0 0 1 4.821 3.16c2.913-4.85 4.268-11.55 4.871-17.93h6.729v10.44a.753.753 0 0 1 -.8.95c-.653 0-2.561 0-4.319-.11a20.275 20.275 0 0 1 1.607 5.6c3.214 0 5.474-.16 7.03-1.11a4.092 4.092 0 0 0 1.105-.95 22.353 22.353 0 0 1 4.871 3.22c3.364-4.91 4.921-11.61 5.674-18.04h7.884v10.28a.832.832 0 0 1 -1 1 43.094 43.094 0 0 1 -5.273-.05 24.637 24.637 0 0 1 1.758 6.17c3.716 0 6.277-.16 7.984-1.21 1.808-1.06 2.31-2.74 2.31-5.8v-39.51zm39.408 23.1a29.167 29.167 0 0 1 -5.774 8.87 29.794 29.794 0 0 1 -6.629-8.87h12.4zm3.917-6.32-1.1.26h-17.577c.4-1.9.7-3.69.954-5.43h26.012v-6.12h-25.359c.3-3.22.4-5.96.5-7.86h-6.227c-.1 1.63-.151 4.43-.4 7.86h-12.152v6.12h11.449c-1.356 9.6-4.67 21.52-13.357 29.01a18.734 18.734 0 0 1 5.122 4.43c5.423-5.17 8.888-12.08 11.2-19.04a39.2 39.2 0 0 0 6.679 9.96 35.383 35.383 0 0 1 -11.952 5.59 26.3 26.3 0 0 1 3.365 5.33 44.1 44.1 0 0 0 13.307-6.8 41.645 41.645 0 0 0 15.316 6.64 25.663 25.663 0 0 1 3.867-5.69 42.934 42.934 0 0 1 -14.412-5.28 40.358 40.358 0 0 0 8.838-17.14zm22.1 17.08c6.227-1.89 9.893-6.8 9.893-12.76 0-4.43-1.858-7.23-5.423-7.23a4.67 4.67 0 0 0 -4.921 4.75 4.555 4.555 0 0 0 4.77 4.7 1.584 1.584 0 0 0 .552-.06c-.3 2.8-2.561 5.07-6.477 6.38z"/><path d="m126.65 6223.54a95.039 95.039 0 0 1 -8.711 6.13 29.152 29.152 0 0 1 -4.792-6.13h13.5zm-26.744-15.46h12.98v6.31h-12.98zm0-15.38h12.98v6.32h-12.98zm-22.214-15.28h46.084v6.04h-46.084zm51.92 46.12h9.147v-9.15h-16.29v-6.31h12.544v-9.06h-12.544v-6.32h11.76v-24.43h-66.991v27.09c0 14.55-.7 35.04-9.321 49.13a43.932 43.932 0 0 1 9.234 5.58c9.147-15 10.541-38.79 10.541-54.71v-2.66h12.718v6.32h-10.889v9.06h10.889v6.31h-12.718v9.15h7.23v9.52a9.98 9.98 0 0 1 -4.443 8.5 34.41 34.41 0 0 1 3.746 8.79v-.09c1.829-1.28 4.878-2.02 24.044-6.41a56.734 56.734 0 0 1 .871-8.96l-14.64 2.92v-14.27h8.885c5.837 13.45 15.333 22.23 30.491 26.17a42.3 42.3 0 0 1 6.011-9.06 46.992 46.992 0 0 1 -15.245-5.58 111 111 0 0 0 11.237-7.05zm45.593-47.95v4.67h-13.677v-4.67zm-13.677 16.75v-5.03h13.677v5.03zm23.434 7.87v-32.39h-33.539v81.98h10.1v-49.59h23.434zm-1.394 20.13v-6.87h8.1v6.87zm26.745 8.87v-8.87h-9.583v-6.87h8.189v-8.6h-42.077v8.6h7.928v6.87h-9.147v8.87h8.8c-.871 4.67-3.31 10.62-8.886 14.28a39.8 39.8 0 0 1 6.621 6.22c7.405-5.31 10.28-14.18 11.151-20.5h8.363v18.85h9.06v-18.85h9.583zm-9.757-36.69v-5.21h14.112v5.21zm14.112-16.93v4.67h-14.112v-4.67zm10.193-7.77h-34.149v32.57h23.956v36.6c0 1.28-.435 1.83-1.829 1.83-1.307.09-5.575.09-9.5-.09a40.1 40.1 0 0 1 3.137 10.8c6.62 0 11.15-.28 14.286-2.11 3.137-1.74 4.095-4.76 4.095-10.34v-69.26zm76.9 14.55a142.881 142.881 0 0 1 -9.669 25.89l9.06 4.12a261.721 261.721 0 0 0 12.021-25.53zm-43.122 25.52c-1.568-7.04-5.4-18.57-8.45-27.26l-10.279 3.75c2.874 9.06 6.359 21.04 7.753 28.18zm11.5-42.91c-.261 31.93 1.656 61.3-34.5 75.67a31.863 31.863 0 0 1 7.23 9.24c17.859-7.59 27.442-18.94 32.669-32.39 6.62 15.74 16.813 26.26 34.236 31.57a43.265 43.265 0 0 1 6.882-10.25c-21.082-5.03-31.71-18.67-36.675-38.8 1.655-11.16 1.742-22.96 1.829-35.04h-11.67zm75.9 23.7v2.65c0 5.86 1.133 8.6 7.144 8.6h5.139a17.11 17.11 0 0 0 4.617-.45c-.261-1.93-.348-4.3-.522-6.23a16.773 16.773 0 0 1 -4.269.46h-3.484c-1.133 0-1.307-.64-1.307-2.38v-2.65h9.67v-7.5h-14.027v-4.49h11.674v-7.32h-11.674v-4.85h-9.147v4.85h-11.583v7.32h11.586v4.49h-14.548v7.5h8.711c-.871 4.39-3.223 6.77-10.541 8.14a19.443 19.443 0 0 1 4.095 6.41c10.105-2.47 13.241-7.14 14.2-14.55h4.268zm-12.539 61.12a50.919 50.919 0 0 0 10.366-17.39l-10.018-2.74c-2.265 6.13-6.272 12.44-10.105 16.01zm15.419-17.02a116.022 116.022 0 0 1 1.394 16.29l10.367-1.37a97.549 97.549 0 0 0 -2.091-15.93zm17.423-.09a91.741 91.741 0 0 1 4.094 16.29l10.367-2.11a86.219 86.219 0 0 0 -4.7-15.74zm17.336-.18a109.873 109.873 0 0 1 9.931 17.38l10.715-3.48c-2.265-4.85-6.969-11.89-10.715-17.01zm2.788-46.85v18.94c-1.743-1.37-3.921-3.02-6.273-4.76.61-4.39 1.046-9.06 1.307-14.18zm10.279 32.48a.752.752 0 0 1 -.784-.46 14.728 14.728 0 0 1 -.174-3.56v-38.07h-13.854c.087-3.84.087-7.68.174-11.8h-9.321c0 4.21-.088 8.05-.175 11.8h-7.579v9.61h7.318c-.087 2.84-.349 5.58-.61 8.14l-4.269-3.02-4.268 8.15c2.091 1.55 4.53 3.29 6.882 5.21-1.481 5.77-3.572 10.71-7.144 14.73v-2.92l-13.941 1.28v-4.85h11.848v-7.6h-11.848v-4.94h-9.147v4.94h-12.803v7.6h12.806v5.58c-5.75.46-11.064.91-15.245 1.19l.7 8.87c10.192-1.09 24.218-2.56 37.721-4.02v-.19a31.589 31.589 0 0 1 3.658 4.85 38.362 38.362 0 0 0 11.151-18.48c2 1.74 3.833 3.29 5.14 4.58l3.485-7.32v6.86c0 6.77.609 8.6 1.916 10.25a7.627 7.627 0 0 0 5.576 2.19h3.92a7.125 7.125 0 0 0 4.617-1.37 8.08 8.08 0 0 0 2.439-4.58 82.381 82.381 0 0 0 .958-12.44 22.151 22.151 0 0 1 -6.359-3.66c0 4.67-.087 8.51-.261 10.16a5.876 5.876 0 0 1 -.523 2.83 1.081 1.081 0 0 1 -.958.46zm29.172 12.63v-17.94h13.851v17.94h-13.854zm13.851-27.36h-13.854v-14.82h13.851v14.82zm27.616-24.98a110.419 110.419 0 0 0 3.4-11.62l-9.844-2.38c-2.526 10.71-6.708 21.78-11.76 29.46v-14.82h-13.5c1.481-3.93 3.049-8.51 4.53-13.08l-11.325-1.65a102.5 102.5 0 0 1 -2.527 14.73h-9.844v67.98h9.409v-6.67h23.26v-42.73a64.247 64.247 0 0 1 6.707 5.12 80.33 80.33 0 0 0 7.667-14.46h18.633c-.958 32.3-2.091 46.03-4.617 48.95a4.533 4.533 0 0 1 -3.833 1.56c-2.265 0-7.405 0-12.98-.55a26.562 26.562 0 0 1 3.4 10.61 91.731 91.731 0 0 0 13.677-.18c3.485-.64 5.924-1.65 8.363-5.03 3.572-4.85 4.53-19.4 5.663-60.3.087-1.28.087-4.94.087-4.94h-24.569zm10.105 41.72c-2.7-5.3-8.45-14-12.806-20.31l-8.1 4.85c4.269 6.68 9.67 15.65 12.109 21.14zm54.391-27.35a80.208 80.208 0 0 1 -4.791 11.25h-9.321l5.14-3.11a34.262 34.262 0 0 0 -5.053-8.14zm-2 34.95h13.067v-8.79h-13.073v-6.13h14.2v-8.78h-7.667c1.568-2.84 3.224-5.95 4.7-9.06l-5.924-2.19h11.325v-8.97h-11.32v-2.65l2.875 1.92c2.787-2.66 6.446-6.59 9.931-10.53l-8.1-4.66a54.533 54.533 0 0 1 -4.7 7.14v-10.62h-8.276v19.4h-4.007v-19.4h-8.1v9.79a66.317 66.317 0 0 0 -5.314-6.68l-6.272 4.3c2.787 3.3 5.923 7.87 7.143 10.98l4.443-3.29v4.3h-11.856v8.97h10.89l-4.443 2.56a52.138 52.138 0 0 1 5.575 8.69h-9.408v8.78h14.722v6.13h-13.067v8.79h13.067v6.86c-6.534.73-12.632 1.28-17.51 1.74l1.307 9.88c11.5-1.28 27.7-3.11 42.686-5.12l-.174-9.43c-5.575.64-11.238 1.28-16.726 1.92v-5.85zm52.356-40.35h-6.621v-22.88h-10.024v22.88h-18.73v10.15h18.73v39.9c0 1.55-.523 2.01-2 2.01-1.393 0-5.749 0-10.192-.18a47.978 47.978 0 0 1 3.484 10.34c6.795.09 11.413-.28 14.462-2.11 3.223-1.74 4.268-4.48 4.268-10.06v-39.9h6.621v-10.15zm-18.991 35.59c-.7-5.58-3.659-13.91-6.882-20.31l-8.538 3.02c3.05 6.68 5.75 15.28 6.273 20.68zm107.933-42c-1.307-4.3-5.227-10.61-8.625-15.37l-7.84 4.3a75.2 75.2 0 0 1 8.189 15.83zm-43.645-1.55h-4.623v-5.95h4.617v5.95zm7.753-12.72h-19.694v19.58h19.688v-19.58zm-30.49 12.72h-4.53v-5.95h4.53zm7.579-12.72h-19.52v19.58h19.514v-19.58zm-10.111 43.28h7.23v4.94h-7.23zm0-12.26h7.23v4.75h-7.23zm23.346 4.75h-7.4v-4.75h7.4zm0 12.45h-7.4v-4.94h7.4zm11.151 22.05v-9.52h-18.033v-4.57h15.855v-33.12h-40.857v33.12h15.158v4.57h-18.555v9.52h18.555v12.81h9.844v-12.81zm25.438-37.88a83.466 83.466 0 0 1 -6.882 16.38c-.7-4.94-1.307-10.52-1.83-16.56l18.817-2.47-1.045-9.98-18.556 2.38c-.435-7.5-.7-15.64-.784-23.97h-9.844c.174 8.97.523 17.38.958 25.16l-7.579 1.01 1.046 10.06 7.23-.91a205.832 205.832 0 0 0 3.746 26.81 54.768 54.768 0 0 1 -17.51 14.27 37.866 37.866 0 0 1 7.492 7.59 57.815 57.815 0 0 0 13.242-10.88c2.962 7.41 6.969 11.62 12.2 11.89 3.746.09 8.189-3.48 10.366-19.4-1.655-1-5.836-3.75-7.491-6.13-.436 8.24-1.394 12.54-2.788 12.54-1.83-.18-3.485-3.11-4.966-8.24a94.726 94.726 0 0 0 12.022-24.98zm39.647 19.21h8.973l3.049-31.29.436-13.63h-15.942l.348 13.63zm4.443 24.34a8.715 8.715 0 0 0 9.06-8.96 9.06 9.06 0 0 0 -18.12 0 8.715 8.715 0 0 0 9.06 8.96z"/></g></svg>