<svg height="81.656" viewBox="0 0 444.938 81.656" width="444.938" xmlns="http://www.w3.org/2000/svg"><path d="m432.784 631.831c.892-4.427 1.7-9.2 2.513-14.133l4.944-.34a73.056 73.056 0 0 1 -3.08 18.56zm22.612-15.58.081-11.068-4.133.256v-4.257h-10.944v4.853l-3.485.17c.648-5.534 1.215-11.068 1.621-16.261l-11.671-.6c-.243 5.534-.73 11.493-1.459 17.453l-6.159.255 1.053 11.668 3.566-.255c-.972 6.385-2.188 12.259-3.323 17.027 3.485 3.576 7.538 7.662 11.59 11.749a47 47 0 0 1 -12.968 14.3 43.58 43.58 0 0 1 8.267 8.769 54.521 54.521 0 0 0 13.049-14.3c3.08 3.406 5.835 6.556 7.78 9.2l7.781-10.3a126.475 126.475 0 0 0 -9.807-10.386 87.074 87.074 0 0 0 5.025-27.925zm41.091 7.407h-15.318v-5.278a112.951 112.951 0 0 0 14.751-19.241l-7.862-5.96-2.755.6h-29.663v11.153h22.125a57.873 57.873 0 0 1 -8.834 11.664v7.066h-16.29v11.749h16.29v21.455c0 1.277-.486 1.617-1.864 1.617-1.3 0-6.24 0-9.888-.17a48.085 48.085 0 0 1 3.891 11.834c6.4 0 11.346-.255 15.155-2.043 3.81-1.873 4.944-4.938 4.944-10.983v-21.71h15.318zm39.6-20.518h-13.773l4.457-2.724a98.1 98.1 0 0 0 -5.349-11.664l-8.348 4.512c1.378 2.98 3 6.726 4.134 9.876h-12.076v9.621h30.96v-9.621zm-3.4 21.369v-9.194h-24.4v9.194zm.081 2.555h-24.476v9.194h24.477v-9.194zm-9.078 21.71v6.981h-6.078v-6.981zm9.24-9.706h-24.475v29.883h9.158v-3.4h15.318v-26.483zm48.466-8.94h-17.262v-25.541h15.885v-11.493h-41.658v11.493h14.183v25.541h-16.777v11.664h16.777v28.181h11.59v-28.181h17.266v-11.664zm-42.873-20.688a107.805 107.805 0 0 1 2.674 19.241l9.888-2.3a108.961 108.961 0 0 0 -3.242-18.985zm35.742 19.071c1.864-4.938 3.971-12.43 6-19.582l-11.1-2.3a122.486 122.486 0 0 1 -3.891 19.581zm52.653 19.071-3.161 4c3.161 1.7 6.727 3.746 10.293 5.789a48.427 48.427 0 0 1 -13.05 3.747c.892-3.32 1.378-8.173 1.864-15.239.162-1.362.243-4.087.243-4.087h-16.127l.567-4.171h15.561v-3.661a62.3 62.3 0 0 1 5.106 5.534h-2.431v8.088zm19.289 0a27.062 27.062 0 0 1 -3.485 4.086c-2.513-1.447-5.106-2.809-7.619-4.086h11.1zm-33.878-46.23a41.593 41.593 0 0 1 -3.161 3.491c-1.864-1.192-4.214-2.469-6.24-3.491h9.4zm44.819-3.15a66.677 66.677 0 0 1 -7.862 8.173 42.855 42.855 0 0 1 -3.485-3.15c2.675-2.043 5.836-4.6 8.916-7.322l-8.429-6.215a50.216 50.216 0 0 1 -6.079 6.726 40.527 40.527 0 0 1 -3.566-6.726l-9.4 2.81a59.931 59.931 0 0 0 14.993 22.05h-14.427v5.705c0 3.575-.486 7.407-4.7 10.812v-15.921h-9.563a48.335 48.335 0 0 0 14.426-20.092l-7.294-3.661-1.864.426h-20.914v9.535h2.836l-5.835 5.789c1.945 1.107 4.377 2.555 6.4 3.917a49.689 49.689 0 0 1 -12.157 5.619 51.844 51.844 0 0 1 6.24 9.024c2.189-.851 4.3-1.788 6.4-2.809v1.447h10.941v4.342h-13.444c-.73 7.152-2.108 16.006-3.323 21.88h16.128c-.486 4.6-1.135 6.982-1.945 7.748a3.875 3.875 0 0 1 -3 .851c-1.783 0-5.673-.085-9.482-.425a23.661 23.661 0 0 1 3.323 10.3 81.744 81.744 0 0 0 10.86-.255c3-.256 5.187-1.022 7.213-3.235a10.042 10.042 0 0 0 1.945-4.345 38.749 38.749 0 0 1 4.782 8.854c6.889-1.533 12.886-3.661 17.992-6.9 4.134 2.554 7.862 4.938 10.455 6.9l5.917-8.173c-2.27-1.533-5.268-3.321-8.591-5.279a38.029 38.029 0 0 0 8.1-15.154l-6.4-2.214-1.783.256h-22.204c5.673-4.172 7.618-10.132 8.105-15.751h5.592v3.065c0 7.918 1.54 11.323 9.482 11.323h4.134a14.168 14.168 0 0 0 4.862-.6c-.324-2.383-.567-5.874-.729-8.343a17.5 17.5 0 0 1 -4.3.511h-2.837c-.973 0-1.135-.766-1.135-2.81v-5.185a56.513 56.513 0 0 0 7.943 3.4 47.514 47.514 0 0 1 6.97-9.705 53.543 53.543 0 0 1 -10.293-4c2.593-1.958 5.673-4.427 8.51-7.066zm75.994 53.3v6.13h-34.2v-6.132h34.2zm-45.953 18.815h11.752v-3.065h34.2v3.065h12.319v-28.44h-58.271v28.436zm12.076-43.845h14.835v2.894h-14.835zm14.835-18.053h-14.835v-2.64h14.835zm0 10.3h-14.835v-2.554h14.835zm11.509 10.642v-2.894h18.151v-7.747h-18.155v-2.554h18.155v-7.747h-18.155v-2.64h22.45v-8.428h-22.126a63.463 63.463 0 0 0 -3.566-8.429l-10.941 3.235c.648 1.618 1.378 3.406 1.945 5.194h-10.212c.811-1.618 1.621-3.321 2.35-4.938l-10.941-3.746c-4.133 9.7-11.265 19.5-18.479 25.541a84.245 84.245 0 0 1 7.781 9.876c1.3-1.192 2.512-2.554 3.809-3.917v20.689h11.59v-2.556h50.9v-8.94h-24.56zm78.175 2.469v-15.92h15.642v15.92h-15.646zm-28.043 0v-15.92h15.559v15.92h-15.563zm28.043-28.1v-14.553h-12.484v14.559h-27.395v44.7h11.832v-4.427h15.563v26.052h12.48v-26.055h15.642v4h12.4v-44.27h-28.042zm47.109 35.247h9.321l2.107-28.777.486-13.451h-14.507l.486 13.451zm4.62 24.179c5.025 0 8.591-4.172 8.591-9.45 0-5.194-3.566-9.366-8.591-9.366-4.944 0-8.51 4.172-8.51 9.366-.003 5.284 3.562 9.456 8.506 9.456z" fill="#fff" fill-rule="evenodd" transform="translate(-419.156 -588.656)"/></svg>