<svg height="217" viewBox="0 0 493.875 217" width="493.875" xmlns="http://www.w3.org/2000/svg"><g fill="#fff" fill-rule="evenodd" transform="translate(-688.875 -2604.5)"><path d="m721.6 2622.94a51.65 51.65 0 0 0 -7.59-12.09l-5.187 2.72a51.916 51.916 0 0 1 7.157 12.5zm-8.791 8.92c-2.4 1.01-4.851 2.07-7.253 3.13l-.864-27.27-5.956.25.96 29.44c-2.4 1-4.563 1.81-6.388 2.47l1.921 6.4c5.428-2.37 12.537-5.55 18.877-8.52zm26.083 15.07c-2.21-3.53-6.677-8.62-10.664-12.95 3.122-6.86 4.852-15.27 5.86-25.6l-6.292-.61c-1.777 20.72-6.725 32.91-21.951 38.96a34.743 34.743 0 0 1 4.563 5.29 34.581 34.581 0 0 0 14.6-12.25c3.554 4.24 7.2 8.87 8.982 12.15zm14.6-33.82h25.17v16.69c0 .4-.1.55-.481.55h-1.3l.433-.71a74.939 74.939 0 0 0 -7.782-4.53h7.493v-3.53h-3.794c.432-.81.961-1.71 1.585-2.72l-3.458-1.01a31.064 31.064 0 0 1 -1.49 3.63l.289.1h-2.066v-3.83c3.122-.2 6.1-.55 8.55-.96l-2.3-3.07a140.056 140.056 0 0 1 -18.926 1.36 12.166 12.166 0 0 1 .913 3.02c2.354.05 4.9 0 7.493-.1v3.58h-2.257l.432-.15a14.318 14.318 0 0 0 -1.393-3.23l-3.122.96a13.264 13.264 0 0 1 .96 2.42h-3.314v3.53h6.725a25.028 25.028 0 0 1 -7.782 4.84 19.77 19.77 0 0 1 2.738 3.32 26.251 26.251 0 0 0 7.013-5.09v3.98h4.275v-3.62c2.594 1.51 5.284 3.22 6.869 4.38l1.537-2.12a22.4 22.4 0 0 1 1.537 3.93 8.542 8.542 0 0 0 4.563-.85c1.249-.76 1.585-1.92 1.585-4.08v-21.37h-15.715c.432-.91.864-1.92 1.3-2.93l-6.244-.6c-.24 1.01-.624 2.27-1.057 3.53h-14.318v25.8h5.332v-21.12zm34.248 27.77v-4.94h-19.701c.1-.75.192-1.56.288-2.41h-6c-.1.85-.192 1.66-.336 2.41h-17.728v4.94h15.947c-2.114 3.18-6.629 5.04-16.812 6a15.508 15.508 0 0 1 2.546 5.04c13.5-1.61 18.637-5.09 20.846-11.04h2.018l-2.018 3.23c5.908 2.37 14.41 5.95 18.541 8.16l2.69-4.73c-3.843-1.87-10.951-4.59-16.379-6.66h16.091zm43.776-30.03v3.32h-6.917v-1.96h-5.579v1.96h-7.4v-3.32h19.886zm-2.018 13v2.01h-4.9v-2.01zm0 7.46h-4.9v-2.02h4.9zm-15.562 0v-2.02h5.091v2.02zm0-7.46h5.091v2.01h-5.091zm-3.507-5.49h8.6v1.81h-9.943v14.77h9.943v1.81h-12.2v4.33h12.2v3.33h5.572v-3.33h12.345v-4.33h-12.354v-1.81h9.991v-14.77h-9.991v-1.81h7.4v-1.87h5v-10.03h-30.6v10.03h4.035v1.87zm-6.436-5.09c-.625-2.27-1.874-5.65-2.786-8.37l-5.044 1.61c.817 2.72 2.114 6.4 2.642 8.72zm-.721 14.31-.817.15h-.775c1.105-3.48 2.354-7.51 3.362-11.09h-11.384v5.34h4.419c-1.1 3.94-2.4 7.97-3.554 10.94h6.1a43.112 43.112 0 0 1 -2.69 8.67 21.735 21.735 0 0 0 -5.187 4.89l3.842 5.69c1.153-2.87 2.882-6.3 3.987-6.3 1.009 0 2.69 1.67 4.707 2.82 3.459 2.12 7.494 2.68 13.882 2.68 5.62 0 14.122-.36 18.061-.61a22.712 22.712 0 0 1 1.681-6.15 154.491 154.491 0 0 1 -19.454 1.31c-5.62 0-10.135-.3-13.4-2.37-1.2-.75-2.113-1.41-2.834-1.91a62.769 62.769 0 0 0 3.41-12.4zm70.142 11.09v2.01h-16.771v-2.01h16.764zm-16.764 7.96v-2.02h16.764v2.02h-16.771zm-5.62 5.29h5.62v-1.36h16.764v1.21h5.86v-17.04h-28.251v17.19zm-.24-32.51a54.981 54.981 0 0 0 5.812-2.77v1.01h16.86v-1.31a50.864 50.864 0 0 0 6.532 3.07h-29.2zm25.842 10.03h-3.891c.769-1.41 1.681-3.37 2.642-5.39l-3.747-.96h5v6.35zm-23.536 0v-6.35h5.427l-3.7 1.11a20.6 20.6 0 0 1 1.633 5.24h-3.362zm9.414 0h-4.9l3.074-1a23.505 23.505 0 0 0 -1.922-5.35h3.738v6.35zm8.07-6.35a40.89 40.89 0 0 1 -1.874 5.5l2.882.85h-4.467v-6.35zm-9.271-9.32c1.441-1.06 2.834-2.17 4.083-3.28a47.4 47.4 0 0 0 4.035 3.28h-8.127zm2.738-9.27c-4.371 5.84-12.921 10.03-21.759 12.19a32.208 32.208 0 0 1 3.074 4.64c.961-.25 1.969-.61 2.978-.96v12.7h33.384v-13c1.008.3 2.017.65 2.978.91a20.488 20.488 0 0 1 3.6-4.59c-7.637-1.56-15.515-5.04-19.934-9.07.24-.3.481-.66.721-.96zm52.73 40.01v-9.72h13.786v-5.8h-13.793v-8.72h16.091v-5.85h-15.227l2.546-1.96a55.122 55.122 0 0 0 -9.222-7.61l-4.707 3.43a72.144 72.144 0 0 1 7.205 6.14h-19.214v5.85h16.235v8.72h-13.689v5.8h13.689v9.72h-18.252v5.9h42.99v-5.9h-18.445zm53.5-5.84v2.01h-16.777v-2.01h16.764zm-16.764 7.96v-2.02h16.764v2.02h-16.777zm-5.619 5.29h5.606v-1.36h16.764v1.21h5.86v-17.04h-28.239v17.19zm-.241-32.51a54.887 54.887 0 0 0 5.812-2.77v1.01h16.86v-1.31a50.877 50.877 0 0 0 6.533 3.07h-29.214zm25.842 10.03h-3.895c.768-1.41 1.681-3.37 2.642-5.39l-3.747-.96h5zm-23.536 0v-6.35h5.428l-3.7 1.11a20.562 20.562 0 0 1 1.633 5.24h-3.37zm9.415 0h-4.9l3.074-1a23.5 23.5 0 0 0 -1.921-5.35h3.747zm8.069-6.35a40.887 40.887 0 0 1 -1.873 5.5l2.882.85h-4.467v-6.35zm-9.27-9.32c1.441-1.06 2.834-2.17 4.083-3.28a47.229 47.229 0 0 0 4.034 3.28zm2.738-9.27c-4.371 5.84-12.921 10.03-21.76 12.19a32.3 32.3 0 0 1 3.075 4.64c.96-.25 1.969-.61 2.978-.96v12.7h33.383v-13c1.009.3 2.017.65 2.978.91a20.521 20.521 0 0 1 3.6-4.59c-7.638-1.56-15.515-5.04-19.934-9.07.24-.3.48-.66.72-.96zm64.618 8.21h-12.39v-2.42h12.39zm0 6.35h-12.39v-2.42h12.39zm5.29-12.9h-22.72v17.03h22.72zm3.26 23.99v-5.04h-30.21v5.04h5.43a24.271 24.271 0 0 1 -4.42 5.34l-1.01-4.28-3.84 1.76v-11.89h4.51v-5.65h-4.51v-9.93h-5.285v9.93h-4.8v5.65h4.8v14.21c-2.258.96-4.275 1.81-5.909 2.47l2.114 6.05c2.93-1.52 6.388-3.33 9.85-5.14a20.122 20.122 0 0 1 3.74 3.52 30.163 30.163 0 0 0 5.58-4.94h2.88a29.634 29.634 0 0 1 -9.8 9.13 17.511 17.511 0 0 1 3.75 3.52 37.78 37.78 0 0 0 11.23-12.65h2.84c-2.07 4.69-5.28 9.18-8.94 11.6a15.572 15.572 0 0 1 4.04 3.32c3.89-3.17 7.64-9.27 9.61-14.92h1.87c-.53 6.1-1.11 8.67-1.78 9.43a1.606 1.606 0 0 1 -1.44.55 34.044 34.044 0 0 1 -3.41-.15 12.5 12.5 0 0 1 1.3 4.69 29.014 29.014 0 0 0 4.85-.1 4.41 4.41 0 0 0 3.17-1.72c1.3-1.46 2.06-5.49 2.74-15.32.05-.7.09-2.06.09-2.06h-19.5c.48-.81.96-1.62 1.35-2.42zm17.29 10.73a36.573 36.573 0 0 1 .96 9.33l4.95-.66a36.326 36.326 0 0 0 -1.3-9.27zm7.25-.5a45.774 45.774 0 0 1 2.21 8.37l4.57-1.21a41.715 41.715 0 0 0 -2.31-8.17zm14.17-12.45c-.29 1.46-.57 2.87-.86 4.08h-18.35a45.7 45.7 0 0 0 3.6-4.08zm-3.74-9.17c-.24 1.41-.53 2.77-.82 3.98h-7.35c.82-1.31 1.59-2.62 2.31-3.98zm13.21 13.25h-5.14c.57-2.72 1.2-6.25 1.72-9.27h-5.47c.62-2.77 1.34-6.2 1.82-9.22h-9.41q1.515-3.405 2.74-6.96l-5.72-1.66a58.814 58.814 0 0 1 -3.31 8.62h-6.97l2.4-1.06a35.646 35.646 0 0 0 -3.69-7.36l-4.95 2.02a42.52 42.52 0 0 1 3.02 6.4h-8.07v5.24h15.42a44.673 44.673 0 0 1 -18.39 17.29 36.576 36.576 0 0 1 2.97 5.24c1.21-.66 2.41-1.31 3.56-2.07a18.447 18.447 0 0 1 -5.19 9.53l4.47 2.97c3.02-2.72 4.66-7.06 5.62-11.39l-4.37-1.46c.86-.56 1.68-1.11 2.45-1.72h28.58c-.58 5.75-1.2 8.27-1.97 9.08a2.027 2.027 0 0 1 -1.59.55 36.163 36.163 0 0 1 -4.66-.25 13.554 13.554 0 0 1 1.54 5.34 39.907 39.907 0 0 0 5.72-.1 5.029 5.029 0 0 0 3.6-1.87c1.49-1.61 2.3-5.84 3.12-15.62zm-9.52 12.55a26.729 26.729 0 0 0 -3.12-6.65l-3.94 1.41a29.726 29.726 0 0 1 2.84 6.8zm45.69-15.97h-21.91v-3.08h21.91zm-21.91 15.82v-3.43h21.91v3.43zm21.91-8.01h-21.91v-3.28h21.91zm11.05-19.25v-5.55h-10.76c1.25-1.56 2.59-3.42 3.84-5.34l-6.58-1.51a40.353 40.353 0 0 1 -3.7 6.85h-11l2.11-1.16a34.356 34.356 0 0 0 -4.66-5.94l-5.09 2.42a45.213 45.213 0 0 1 3.46 4.68h-11v5.55h18.25c-.24 1.05-.48 2.11-.81 3.17h-12.68v31.7h5.66v-2.37h21.91v2.37h5.95v-31.7h-14.5c.43-1.01.91-2.07 1.34-3.17zm11.39 24.34v-9.88h7.64v9.88zm7.64-15.07h-7.64v-8.17h7.64zm15.23-13.76a60.682 60.682 0 0 0 1.87-6.4l-5.43-1.31a53.654 53.654 0 0 1 -6.48 16.23v-8.17h-7.45c.82-2.16 1.68-4.68 2.5-7.2l-6.24-.91a56.748 56.748 0 0 1 -1.4 8.11h-5.42v37.45h5.18v-3.68h12.83v-23.54a36.553 36.553 0 0 1 3.7 2.83 44.1 44.1 0 0 0 4.22-7.97h10.28c-.53 17.79-1.15 25.35-2.54 26.97a2.53 2.53 0 0 1 -2.12.85c-1.25 0-4.08 0-7.15-.3a14.761 14.761 0 0 1 1.87 5.85 51.71 51.71 0 0 0 7.54-.1 6.356 6.356 0 0 0 4.61-2.78c1.97-2.67 2.5-10.68 3.12-33.21.05-.7.05-2.72.05-2.72zm5.57 22.98a123.664 123.664 0 0 0 -7.06-11.19l-4.47 2.67a110.183 110.183 0 0 1 6.68 11.65z"/><path d="m725.735 2681.98a40.967 40.967 0 0 1 -10.121 7.54 49.6 49.6 0 0 0 -6.932-6.25c.613-.45 1.227-.84 1.779-1.29zm6.809-7.09-1.288.32h-12.943q1.747-1.74 3.312-3.48l-7.852-1.93c-4.11 5.03-11.41 10.5-21.286 14.37a23.127 23.127 0 0 1 4.969 5.48c1.963-.9 3.8-1.87 5.582-2.9a78.089 78.089 0 0 1 6.012 5.8 81.229 81.229 0 0 1 -18.1 4.9 28.712 28.712 0 0 1 3.373 6.76c17.667-3.48 35.089-11.47 43-26.29zm1.718 30.87a33.176 33.176 0 0 1 -10.306 8.89 61.809 61.809 0 0 0 -7.177-6.38c1.166-.84 2.393-1.67 3.558-2.51zm6.134-7.15-1.349.38h-10.981c1.35-1.42 2.515-2.83 3.742-4.32l-7.913-1.93c-4.662 6.25-13.127 12.57-25.764 16.69a24.143 24.143 0 0 1 4.478 5.93 66.227 66.227 0 0 0 7.913-3.54 87.278 87.278 0 0 1 6.38 5.99c-7.729 2.9-16.87 4.38-26.562 5.09a33.007 33.007 0 0 1 2.945 7.41c23.372-2.32 43.492-9.09 52.142-28.68zm46.813 17.14h16.133v-6.64h-16.133v-5.54a27.356 27.356 0 0 1 3.435 3.09 25.406 25.406 0 0 0 5.275-6.44 94.594 94.594 0 0 1 6.809 6.83l4.11-4.96a105.947 105.947 0 0 0 -8.4-7.61 40.251 40.251 0 0 0 1.963-7.73l-6.5-.84c-.92 6.12-3.067 11.34-6.686 14.95v-15.79h-7.055v15.15a78.393 78.393 0 0 0 -6.318-6.45 46.81 46.81 0 0 0 1.533-7.15l-6.564-.71c-.92 6.96-3.251 12.95-7.79 16.63.184-3.29.245-6.38.245-9.15v-10.44h45.026v-7.09h-19.692a49.539 49.539 0 0 0 -3.619-6.64l-6.993 2.32a45.432 45.432 0 0 1 2.208 4.32h-24.113v17.46c0 9.47-.368 22.94-5.153 32.09a28.752 28.752 0 0 1 6.2 4.32c3.742-7.28 5.275-17.59 5.828-26.74a40.2 40.2 0 0 1 5.091 4.06 22.727 22.727 0 0 0 5.337-7.09 64.236 64.236 0 0 1 5.153 5.99l3.619-4.64v7.8h-15.585v6.64h15.581v6.38h-19.446v6.57h46.008v-6.57h-19.507zm41.715-6.7h24.046v2.96h-24.046zm24.046-20.63v2.78h-24.046v-2.78zm0 13.79v2.52h-24.046v-2.52zm0-4.25h-24.046v-2.45h24.046zm15.275 20.36v-6.31h-7.914v-28.35h-16.685c.184-.91.307-1.87.552-2.9h22.574v-6.38h-21.408l.613-3.74-7.668-.77c-.061 1.35-.245 2.9-.368 4.51h-22.574v6.38h21.715c-.184 1.03-.368 1.99-.552 2.9h-14.661v28.35h-8.159v6.31h16.747c-3.926 2.52-11.1 5.29-17.053 6.71a47.253 47.253 0 0 1 4.968 5.22 70.933 70.933 0 0 0 18.526-7.74l-5.705-4.19h17.913l-3.926 4.26a97.975 97.975 0 0 1 17.666 7.6l6.073-5.15a125.059 125.059 0 0 0 -16.93-6.71zm15.392-37.18h38.83v5.29h6.81v-11.22h-22.391a35.562 35.562 0 0 0 -2.822-5.73l-6.379 1.87a31.659 31.659 0 0 1 1.779 3.86h-22.391v11.22h6.564zm6.748 34.35h25.515v2.06h-25.515zm0-5.61h25.515v2h-25.515zm0-5.54h25.515v1.87h-25.515zm32.941 17.01v-20.88h-40v20.88h8.774a78.327 78.327 0 0 1 -16.133 4 37.009 37.009 0 0 1 3.865 5.22c7.116-1.1 15.7-3.61 20.857-6.38l-3.681-2.84h11.226l-2.515 2.9c7.054 1.94 14.231 4.51 18.648 6.25l4.969-4.7c-3.619-1.22-9.018-2.9-14.416-4.45h8.4zm-17.912-26.55.245-2.06h7.852l-.184 2.06zm-13.8-2.06h8.1l-.245 2.06h-8.1zm8.649-5.67-.184 1.87h-8.036l.245-1.87zm13.557 1.87h-7.729l.122-1.87h7.73zm6.809-.84.43-4.9h-34.723l-.613 4.9h-10.367v5.48h9.631l-.614 5.03h35.273l.49-5.03h11.1v-5.48h-10.609zm71.093-13.85h-9.57a39.416 39.416 0 0 0 -1.534-4.38l-6.379 1.22c.306.97.674 2.06.981 3.16h-8.895v5.8h25.4v-5.8zm1.288 12.37h-6.5c.675-1.61 1.411-3.29 2.147-5.16l-6.318-1.09a62.761 62.761 0 0 1 -1.779 6.25h-3.8a48.161 48.161 0 0 0 -2.086-6.12l-5.705 1.22c.552 1.48 1.043 3.22 1.534 4.9h-4.846v5.99h27.359v-5.99zm-28.586-12.37h-9.024c-.491-1.48-1.043-3.22-1.656-4.58l-6.441 1.36c.368.96.736 2.06 1.1 3.22h-9.324v5.8h25.335v-5.8zm.245 12.43h-4.846l2.086-5.15-6.5-1.16a57.256 57.256 0 0 1 -1.656 6.31h-4.053a59.182 59.182 0 0 0 -2.208-6.25l-5.766 1.29c.552 1.55 1.165 3.29 1.656 4.96h-5.4v5.93h26.684v-5.93zm-18.1 13.09h9.753v4.89h-9.753zm12.943 17.2v-7.41h3.19v-14.76h-22.082v14.76h3.68c-.491 6.32-1.84 11.66-7.607 15.08a16.653 16.653 0 0 1 4.049 5.28c7.239-4.51 9.14-11.66 9.876-20.36h2.7v7.48c0 2.32-.736 3.22-1.717 3.8a28.876 28.876 0 0 1 2.27 6.64l.061.51c.981-1.16 2.638-2.38 11.532-7.86a33.338 33.338 0 0 1 -1.349-5.8zm13.434-17.2h11.288v4.76h-11.286v-4.76zm13.864 23.84a1.02 1.02 0 0 1 -.8-.26 4 4 0 0 1 -.184-1.74v-12.11h4.784v-14.63h-23.61v14.63h3.619c-.613 6.89-2.331 12.37-9.692 15.72a18.063 18.063 0 0 1 3.8 5.35c9.018-4.51 11.349-11.79 12.208-21.07h2.453v11.92c0 3.99.43 5.28 1.534 6.31a5.716 5.716 0 0 0 4.171 1.55h3.374a8.337 8.337 0 0 0 3.374-.64 4.483 4.483 0 0 0 2.147-2.39 26.556 26.556 0 0 0 .859-6.25 15.176 15.176 0 0 1 -4.969-2.84c-.061 2.32-.122 4.13-.245 4.97a1.956 1.956 0 0 1 -.614 1.29 2.177 2.177 0 0 1 -.981.19h-1.227zm33.8-26.23-5.64 1.48v-9.53h6.01v-7.09h-6.01v-12.25h-7.24v12.25h-7.05v7.09h7.05v11.4c-2.94.78-5.58 1.42-7.85 1.87l1.9 7.28 5.95-1.54v13.27c0 .97-.24 1.29-1.16 1.29-.8 0-3.32 0-5.71-.06a34.436 34.436 0 0 1 2.09 6.96c4.29 0 7.24-.2 9.26-1.36 2.09-1.22 2.76-3.03 2.76-6.76v-15.41c2.21-.58 4.42-1.22 6.56-1.86zm25.65 3.48a35.973 35.973 0 0 1 -7.67 11.41 37.1 37.1 0 0 1 -7.24-11.41zm4.6-7.22-1.29.33h-7.36v-7.74h13.74v-7.09h-13.74v-9.21h-7.24v9.21h-13.19v7.09h13.19v7.74h-12.09v6.89h3.19l-1.84.58a51.656 51.656 0 0 0 8.71 15.34 45.921 45.921 0 0 1 -14.66 6.31 32.11 32.11 0 0 1 3.93 6.96 55.248 55.248 0 0 0 16.13-7.92 42.986 42.986 0 0 0 15.28 8.12 33.377 33.377 0 0 1 4.66-6.64 40.6 40.6 0 0 1 -14.17-6.51c5.15-5.41 9.08-12.44 11.41-21.39zm57.71-13.66h-15.83v-3.09h15.83zm0 8.12h-15.83v-3.09h15.83zm6.75-16.49h-29.02v21.78h29.02zm4.17 30.67v-6.45h-38.59v6.45h6.94a31.287 31.287 0 0 1 -5.65 6.83l-1.29-5.48-4.9 2.26v-15.21h5.76v-7.22h-5.76v-12.69h-6.75v12.69h-6.14v7.22h6.14v18.17c-2.88 1.23-5.46 2.32-7.55 3.16l2.7 7.73c3.74-1.93 8.16-4.25 12.58-6.57a25.926 25.926 0 0 1 4.78 4.51 39.087 39.087 0 0 0 7.12-6.31h3.68a37.791 37.791 0 0 1 -12.52 11.66 21.947 21.947 0 0 1 4.79 4.51 48.226 48.226 0 0 0 14.35-16.17h3.62c-2.63 5.99-6.74 11.72-11.41 14.82a20.391 20.391 0 0 1 5.16 4.25c4.96-4.06 9.75-11.86 12.26-19.07h2.4c-.68 7.79-1.41 11.08-2.27 12.05a2.039 2.039 0 0 1 -1.84.7c-.8 0-2.4 0-4.36-.19a15.827 15.827 0 0 1 1.66 5.99 37.045 37.045 0 0 0 6.19-.12 5.621 5.621 0 0 0 4.05-2.2c1.66-1.86 2.64-7.02 3.5-19.59.06-.9.12-2.64.12-2.64h-24.9c.61-1.03 1.22-2.06 1.71-3.09zm19.63 3.93v-14.11h5.7v-7.28h-5.7v-13.99h-6.75v13.99h-6.62v7.28h6.62v17.07c-3 1.29-5.7 2.32-7.97 3.16l2.94 7.73c5.58-2.64 12.45-6.12 18.83-9.4l-1.65-6.83zm20.92 15.92c-3.74 0-4.3-.58-4.3-4.32v-19.91l5.1-2.32v19.65h6.8v-22.75l4.73-2.19c-.25 7.61-.74 15.79-1.41 21.01l5.95 1.74c1.47-7.73 2.33-19.46 2.7-28.42l.24-1.16-5.52-1.87-6.69 3.03v-14.69h-6.8v17.79l-5.1 2.25v-13.79h-6.99v16.95l-6.01 2.7 2.7 6.77 3.31-1.48v16.62c0 8.83 2.39 11.22 10.67 11.22h13.07c7.18 0 9.26-3.1 10.25-12.12a18.27 18.27 0 0 1 -6.38-2.77c-.56 6.57-1.17 8.06-4.48 8.06z"/><path d="m706.41 2774.71a107.666 107.666 0 0 0 18.9-17.66 102.067 102.067 0 0 0 18.442 17.66zm23.514 25.98h20.133v-8.31h-20.133v-9.2h16.444v-6.61a75.459 75.459 0 0 0 9.682 5.73 47.419 47.419 0 0 1 6.148-8.8c-13.063-5-25.358-15.16-31.967-25.33h-26.28v8.88h10.22c-7.223 7.18-16.751 13.87-25.281 17.5a40.082 40.082 0 0 1 5.61 7.75 94.955 94.955 0 0 0 9.759-6.05v6.93h16.141v9.2h-19.9v8.31h19.9v9.76h-27.437v8.55h65.393v-8.55h-28.432zm59.387-31.62v-6.62h5.763c-1.383 2.34-2.767 4.52-4.227 6.62zm5.993 27.02h-12.371v-5.16h12.367v5.16zm-12.371 12.91v-5.73h12.367v5.73zm49.64-59.21-1.383.32h-22.131v1.53l-8.068-2.34a78.714 78.714 0 0 1 -3.766 9.04v-4.12h-7.914v-7.82h-8.453v7.82h-10.066v8.23h10.066v6.62h-13.371v8.39h16.368a71.343 71.343 0 0 1 -18.365 13.31 49.451 49.451 0 0 1 5.3 7.98c1.229-.72 2.535-1.53 3.842-2.42v24.45h8.3v-4.12h12.368v3.07h8.683v-36.38h-13.827c1.69-1.94 3.3-3.8 4.918-5.89h11.449v-8.39h-5.686a100.109 100.109 0 0 0 8.222-17.19v69.06h8.991v-61.8h9.759c-1.922 6.22-4.534 14.36-6.763 20.17 6.148 6.21 7.915 12.1 7.915 16.54 0 2.66-.538 4.6-2 5.48a5.965 5.965 0 0 1 -3.073.73 34.667 34.667 0 0 1 -4.841-.16 24.269 24.269 0 0 1 2.305 9.28 36.482 36.482 0 0 0 6.685-.08 11.38 11.38 0 0 0 5.379-2.18c3.074-2.1 4.3-6.05 4.3-12.1 0-5.17-1.306-11.54-7.838-18.72 3.151-7.1 6.532-16.21 9.3-23.96zm22.457 13.39h46.8v10.81h9.605v-20.01h-26.514a61.6 61.6 0 0 0 -4.149-9.2l-9.375 2.91a65.214 65.214 0 0 1 2.613 6.29h-28.048v20.01h9.068zm43.262 14.68v-8.87h-39.728v8.87zm-2.69 33.24c-2.689 0-3.15-.33-3.15-2.91v-15.41h20.517v-9.03h-68.469v9.03h18.98c-.691 11.62-3 17.11-20.363 20.09a25.793 25.793 0 0 1 4.841 8.15c20.287-4.2 23.9-12.83 24.9-28.24h10.3v15.49c0 8.72 2.152 11.62 11.065 11.62h9.606c7.223 0 9.6-3.15 10.6-14.84a26.8 26.8 0 0 1 -8.222-3.63c-.385 8.3-.769 9.68-3.228 9.68h-7.379zm63.929-4.04h19.825v-7.02h-19.825v-4.03h25.969v-7.74h-60.625v7.74h25.665v15.17h-10.14v-12.18h-8.76v12.18h-11.375v7.9h70v-7.9h-30.734zm16.828-45.5a28.881 28.881 0 0 1 -3.611 7.67 32.374 32.374 0 0 1 -5-7.67h8.606zm-33.426 15.33v-2.66h2.075zm-13.14-12.34h5.148v4.11h-5.148zm17.827 0v4.11h-4.687v-4.11zm42.34-2.99v-7.66h-19.21c.691-2.02 1.383-4.03 2-6.13l-8.146-2.02c-1.767 6.94-5.148 13.47-9.528 17.91v-4.76h-12.143v-2.74h13.294v-6.7h-13.294v-3.87h-7.992v3.87h-13.985v6.7h13.985v2.74h-12.218v15.33h8.991a39.247 39.247 0 0 1 -12.372 7.82 29.586 29.586 0 0 1 5.149 6.05 41.556 41.556 0 0 0 10.45-7.98v6.37h7.992v-8.23a47.708 47.708 0 0 1 8.222 6.3l3.765-5.33a51.923 51.923 0 0 0 -7.146-5h7.3v-8.23a64.644 64.644 0 0 1 4.687 5.49 30.465 30.465 0 0 0 3.305-3.71 56.082 56.082 0 0 0 4.533 7.01 35.788 35.788 0 0 1 -13.14 6.54 31.2 31.2 0 0 1 5.072 6.86 44.455 44.455 0 0 0 13.6-7.67 38.709 38.709 0 0 0 13.294 7.83 31.914 31.914 0 0 1 4.994-7.43 37.109 37.109 0 0 1 -12.832-6.21 40.213 40.213 0 0 0 6.3-13.15h5.071zm23.89 28.24v-3.63h12.76v3.63zm0-12.99h12.76v3.63h-12.76zm35.43 0v3.63h-13.45v-3.63zm0 12.99h-13.45v-3.63h13.45zm-13.45 21.38v-4.28h25.67v-7.18h-25.67v-3.63h22.82v-25.57h-22.82v-3.07h30.12v-7.5h-30.12v-4.19c8.38-.65 16.37-1.54 23.05-2.67l-4.22-7.42c-12.99 2.26-33.81 3.63-51.72 4.03a26.449 26.449 0 0 1 1.85 7.35c6.91-.08 14.44-.33 21.82-.65v3.55h-29.354v7.5h29.354v3.07h-21.67v25.57h21.67v3.63h-24.21v7.18h24.21v4.28h-29.81v7.58h69.7v-7.58h-30.66zm64.01-18.48c-2.99.89-6.14 1.78-9.14 2.67v-13.8h7.99v-8.79h-7.99v-14.04h8.84v-8.87h-26.9v8.87h9.22v14.04h-8.53v8.79h8.53v16.22c-4.15 1.12-7.91 2.17-10.99 2.9l2.31 9.03c7.91-2.42 18.21-5.56 27.89-8.55zm11.22-11.61h20.06v5h-20.06zm0-12.27h20.06v5.01h-20.06zm0-12.26h20.06v5h-20.06zm20.98 55.83c-1.31 0-1.46-.33-1.46-2.67v-15.81h9.45v-45.17h-37.5v45.17h5.61c-1 9.44-3.45 16.06-17.36 19.69a28.465 28.465 0 0 1 5.07 7.9c16.37-5.08 19.9-14.44 21.28-27.59h4.69v15.81c0 8.15 1.54 10.9 8.61 10.9h5.76c5.69 0 7.68-2.99 8.45-14.04a23.053 23.053 0 0 1 -7.6-3.55c-.16 8.07-.47 9.36-1.85 9.36zm36.07-19.12h7.92l2.69-27.59.38-12.02h-14.06l.31 12.02zm3.92 21.46a7.685 7.685 0 0 0 7.99-7.91 7.99 7.99 0 1 0 -15.98 0 7.691 7.691 0 0 0 7.99 7.91z"/></g></svg>