<svg height="182.87" viewBox="0 0 532.435 182.87" width="532.435" xmlns="http://www.w3.org/2000/svg"><g fill="#fff" fill-rule="evenodd" transform="translate(-692.625 -4176.66)"><path d="m694.015 4248.59v7.32h49.76v-7.32zm97.024-14.18v9.81h-8.491v-9.81zm1.623 34.39c5.409 0 7.139-2.73 7.843-10.79a17.67 17.67 0 0 1 -5.625-2.61c-.325 6.02-.7 7.32-2.759 7.32h-6.977c-2.272 0-2.6-.45-2.6-3.06v-9.59h14.657v-21.57h-20.873v31.16c0 7.21 1.947 9.14 8 9.14h8.329zm-25.908-7.84h6.869v-5.84h-6.869v-6.13h7.3v-5.9h-8.492v-5.28h7.194v-5.84h-7.194v-5.51h-6.057v5.51h-7.625v5.84h7.627v5.28h-9.141v5.9h10.493v17.08a18.468 18.468 0 0 1 -2.975-6.01c.108-2.33.216-4.83.27-7.32l-5.895-.46c-.108 9.71-.649 19.18-3.3 24.91a55.487 55.487 0 0 1 5.408 2.9 42.117 42.117 0 0 0 2.488-9.99c4.273 6.36 10.71 7.78 20.716 7.78h20.877a23.8 23.8 0 0 1 2.434-6.7c-4.868.28-19.2.28-23.311.23-4.327 0-7.951-.23-10.818-1.25v-9.2zm65.708-6.13c0 .52-.162.63-.649.63a23.41 23.41 0 0 1 -3.461-.06 18.544 18.544 0 0 1 1.406 4.15c2.65 0 4.76 0 6.166-.69 1.46-.73 1.893-1.7 1.893-4.03v-14.35h-2.055v-.12h-6v-4.14h8.492v-5.56h-8.492v-3.86h-5.462v18.84h8.167v9.19zm-7.409-7.83c-.217 3.01-.649 5.91-2 8.01a28.187 28.187 0 0 1 4.057 2.66c1.514-2.38 2.38-6.13 2.758-9.82zm30.613 13.06h-4.706c.433-8.52.7-21.17.7-31.27h-12.112v5.79h6.22c-.054 1.64-.054 3.23-.054 4.88h-5.625v5.56h5.463c-.055 1.64-.109 3.29-.163 4.88h-5.679v5.56h5.463c-.108 1.64-.162 3.12-.27 4.6h-28.234l-.162-4.77h5.841v-5.51h-6l-.163-4.88h6v-5.5h-6.165l-.162-5.11c2.434-.68 4.976-1.36 7.247-2.21l-2.758-5.51a88.731 88.731 0 0 1 -10.331 4.2l.92 29.29h-4.868v6.24h14.766a69.166 69.166 0 0 1 -14.6 7.89 41.225 41.225 0 0 1 3.57 5.05 99.975 99.975 0 0 0 16.713-9.03l-4.543-3.91h16.063l-2.866 3.91a126.754 126.754 0 0 1 14.766 8.86l4.273-5.17a148.205 148.205 0 0 0 -13.793-7.6h15.253v-6.24zm15.64-13.34a75.751 75.751 0 0 0 13.306-12.43 71.944 71.944 0 0 0 12.981 12.43zm16.551 18.27h14.171v-5.84h-14.171v-6.47h11.575v-4.65a52.252 52.252 0 0 0 6.815 4.02 33.087 33.087 0 0 1 4.327-6.18c-9.195-3.52-17.849-10.67-22.5-17.82h-18.5v6.24h7.193a61.187 61.187 0 0 1 -17.795 12.32 28.1 28.1 0 0 1 3.949 5.44 66.85 66.85 0 0 0 6.869-4.25v4.88h11.36v6.47h-14.008v5.84h14.008v6.87h-19.309v6.02h46.028v-6.02h-20.012zm72.063-21.11a73.235 73.235 0 0 1 -5.462 8.4 72.786 72.786 0 0 1 -1.948-8.4v-2.27h13.252v-6.18h-4.652l3.083-3.12a32.938 32.938 0 0 0 -6.49-5.62l-3.516 3.4a40.438 40.438 0 0 1 5.679 5.34h-7.356v-9.08h-6.165v9.08h-12.445v6.18h12.441v13.57c-4.49 3.91-9.3 7.88-12.819 10.61l-.595-3.69-5.517 1.76v-11.86h4.652v-6.19h-4.652v-9.99h5.463v-6.3h-17.142v6.3h5.679v9.99h-5.41v6.19h5.408v13.67q-3.651 1.11-6.49 1.88l1.352 6.41c4.652-1.53 10.493-3.46 16.064-5.34l2.975 4.77c3.353-3.18 7.247-7.09 11.034-10.95v9.31a.984.984 0 0 1 -1.19 1.13c-.812.06-3.354.06-5.95-.06a30.86 30.86 0 0 1 2.164 6.53c4 0 6.76-.28 8.6-1.42 1.893-1.08 2.542-2.84 2.542-6.24v-9.02a37.281 37.281 0 0 0 10.223 12.25 14.443 14.443 0 0 1 3.948-5.1 30.859 30.859 0 0 1 -10.114-11.92 125.577 125.577 0 0 0 8.924-10.95zm-25.691 2.56a46.281 46.281 0 0 1 4.922 10.21l5.246-2.55c-.811-2.84-3.137-6.87-5.192-9.99zm85.121-16.12h-25.957v6.41h25.957zm-27.959 31.21-6.544 1.65v-10.22h5.353v-6.18h-5.354v-10.05h5.841v-6.24h-18.443v6.24h6.383v10.05h-5.842v6.18h5.842v11.75c-2.759.62-5.3 1.19-7.41 1.65l1.3 6.46c5.517-1.53 12.764-3.46 19.579-5.39zm23.1 11.18c-.76 0-.87-.23-.87-2.16v-17.87h8.49v-6.47h-30.882v6.47h6.112c-.433 11.06-1.623 17.65-12.386 21.45a16.231 16.231 0 0 1 3.57 5.16c12.435-4.65 14.385-13.33 15.035-26.61h3.68v17.93c0 6.3 1.13 8.4 6.11 8.4h3.68c4.11 0 5.68-2.55 6.22-11.29a17.283 17.283 0 0 1 -5.68-2.78c-.11 6.69-.33 7.77-1.19 7.77h-1.89zm21.68-35.81h33.75v6.7h6.6v-12.83h-19.26a30.638 30.638 0 0 0 -2.32-5.05l-6.82 2.05a26.7 26.7 0 0 1 1.3 3h-19.58v12.83h6.33zm31.64 9.76a72.5 72.5 0 0 1 -10.22 8.57 21.988 21.988 0 0 0 -4.76-6.86 26.757 26.757 0 0 0 3.24-2.61h12.01v-5.74h-30.24v5.74h9.31a63.625 63.625 0 0 1 -17.42 6.24 30.76 30.76 0 0 1 3.3 5.28 70.439 70.439 0 0 0 15.04-5.96c.54.62 1.02 1.25 1.51 1.87-4.7 3.29-13.57 6.87-20.23 8.34a28.9 28.9 0 0 1 3.19 5.22 87.843 87.843 0 0 0 19.48-9.25c.32.74.59 1.48.81 2.16-5.36 4.77-15.74 9.65-24.29 11.58a27.009 27.009 0 0 1 3.35 5.61 83.854 83.854 0 0 0 21.86-10.89c0 2.72-.65 4.82-1.57 5.73a2.9 2.9 0 0 1 -2.92 1.36 42.966 42.966 0 0 1 -4.87-.28 15.853 15.853 0 0 1 1.73 6.41c1.57.06 3.19.11 4.38.06 2.81-.06 4.54-.63 6.44-2.67 2.76-2.38 4.05-8.91 2.54-15.72.54-.34 1.14-.68 1.68-1.08 2.65 7.72 6.92 13.79 13.41 17.03a24.235 24.235 0 0 1 4.27-5.51c-6.22-2.61-10.54-8.23-12.65-14.92 2.38-1.71 4.81-3.52 6.97-5.28z"/><path d="m709.233 4194.97h6.067v-4.83h-6.068v-6.72a50.416 50.416 0 0 0 6.235-1.84l-3.222-4.08a71.985 71.985 0 0 1 -15.357 3.77 18.549 18.549 0 0 1 1.339 4.09c1.925-.27 3.934-.58 5.984-.93v5.71h-7.448v4.83h6.237a39.761 39.761 0 0 1 -7.156 13.04 23.419 23.419 0 0 1 2.511 4.92 39.379 39.379 0 0 0 5.858-10.5v15.63h5.021v-16.2c1.381 2.07 2.72 4.26 3.515 5.75l2.846-4.34c-.921-1.19-4.687-5.8-6.361-7.55v-.75zm12.051 12.56v-21.3h6.7v21.3zm-4.895-26.3v34.77h4.895v-3.47h6.7v3.16h5.147v-34.46zm27.13 4.08h26.111v5.18h5.105v-9.92h-14.9a23.583 23.583 0 0 0 -1.8-3.91l-5.272 1.58a20.257 20.257 0 0 1 1 2.33h-15.139v9.92h4.895zm24.481 7.55a56.036 56.036 0 0 1 -7.909 6.63 16.9 16.9 0 0 0 -3.682-5.31 19.76 19.76 0 0 0 2.511-2.02h9.289v-4.43h-23.393v4.43h7.2a49.085 49.085 0 0 1 -13.474 4.83 24.189 24.189 0 0 1 2.552 4.08 53.828 53.828 0 0 0 11.633-4.61c.418.49.795.97 1.172 1.45-3.641 2.55-10.5 5.31-15.65 6.46a22.438 22.438 0 0 1 2.469 4.03 68.3 68.3 0 0 0 15.064-7.15 16.423 16.423 0 0 1 .627 1.67c-4.142 3.68-12.176 7.46-18.788 8.95a21.4 21.4 0 0 1 2.6 4.35 65 65 0 0 0 16.9-8.43c0 2.11-.5 3.73-1.214 4.43a2.227 2.227 0 0 1 -2.259 1.06 33.444 33.444 0 0 1 -3.766-.22 12.245 12.245 0 0 1 1.339 4.96c1.213.04 2.468.09 3.389.04a6.026 6.026 0 0 0 4.979-2.06c2.134-1.84 3.139-6.89 1.967-12.16.418-.26.879-.53 1.3-.84 2.051 5.98 5.356 10.67 10.377 13.18a18.511 18.511 0 0 1 3.306-4.26c-4.812-2.02-8.159-6.37-9.791-11.55 1.841-1.32 3.724-2.72 5.4-4.08zm27.306-15.71c-.167 7.42.628 27.08-16.361 36.61a16.369 16.369 0 0 1 4.143 4.26c8.7-5.36 13.1-13.3 15.4-21.03 2.427 7.55 7.072 16.11 16.361 20.77a13.8 13.8 0 0 1 3.641-4.53c-14.6-6.76-17.156-23.31-17.742-29.24.167-2.63.251-5 .293-6.84h-5.741zm29.256 14.13-4.352 4a79.791 79.791 0 0 1 9 9.66l4.477-4.04a80.964 80.964 0 0 0 -9.127-9.62zm43.155 7.33c.084-1.71.126-3.33.126-4.83v-.35h6.067v5.18zm6.193-14.83v5.04h-6.067v-5.04zm-24.562 14.83c.083-1.36.083-2.59.083-3.82v-1.36h5.269v5.18h-5.356zm5.356-14.83v5.04h-5.273v-5.04h5.269zm24.018-4.75h-15.61v14.75c0 6.41-.335 14.93-4.1 21.03a9.015 9.015 0 0 0 .335-2.85v-32.93h-14.52v15.81c0 6.41-.251 14.97-3.807 20.72a20.021 20.021 0 0 1 4.017 2.64c2.427-4.04 3.556-9.62 4.058-14.93h5.605v8.69a.628.628 0 0 1 -.67.79c-.544 0-2.134 0-3.6-.09a16.834 16.834 0 0 1 1.339 4.66c2.679 0 4.561-.13 5.859-.92a3.331 3.331 0 0 0 .92-.8 19.225 19.225 0 0 1 4.059 2.68c2.8-4.08 4.1-9.66 4.728-15.01h6.57v8.56a.693.693 0 0 1 -.837.83 36.521 36.521 0 0 1 -4.394-.04 20.433 20.433 0 0 1 1.465 5.14c3.1 0 5.23-.14 6.653-1.01 1.507-.88 1.925-2.29 1.925-4.83v-32.89zm31.758 19.23a24.232 24.232 0 0 1 -4.812 7.38 24.794 24.794 0 0 1 -5.523-7.38zm3.264-5.27-.92.22h-14.648c.335-1.58.586-3.07.795-4.52h21.675v-5.09h-21.131c.251-2.68.335-4.96.419-6.54h-5.189c-.084 1.36-.125 3.69-.335 6.54h-10.126v5.09h9.541c-1.13 7.99-3.892 17.91-11.131 24.15a15.591 15.591 0 0 1 4.268 3.69c4.519-4.31 7.407-10.06 9.331-15.85a33.057 33.057 0 0 0 5.566 8.3 29.86 29.86 0 0 1 -9.959 4.65 21.78 21.78 0 0 1 2.8 4.43 36.544 36.544 0 0 0 11.089-5.66 34.667 34.667 0 0 0 12.762 5.53 21.385 21.385 0 0 1 3.222-4.74 35.813 35.813 0 0 1 -12.009-4.39 33.593 33.593 0 0 0 7.365-14.27zm17.305 14.23c5.188-1.58 8.243-5.66 8.243-10.63 0-3.68-1.548-6.01-4.519-6.01a3.885 3.885 0 0 0 -4.1 3.95 3.8 3.8 0 0 0 3.975 3.91 1.318 1.318 0 0 0 .46-.05c-.251 2.33-2.134 4.22-5.4 5.32z"/><path d="m749.886 4337.23a79.2 79.2 0 0 1 -7.259 5.1 24.322 24.322 0 0 1 -3.993-5.1zm-22.286-12.87h10.816v5.25h-10.816zm0-12.8h10.816v5.26h-10.816zm-18.511-12.72h38.4v5.03h-38.4zm43.264 38.39h7.622v-7.62h-13.575v-5.25h10.453v-7.54h-10.453v-5.26h9.8v-20.34h-55.821v22.55c0 12.11-.581 29.17-7.767 40.9a36.585 36.585 0 0 1 7.7 4.64c7.622-12.49 8.783-32.29 8.783-45.54v-2.21h10.6v5.26h-9.074v7.54h9.074v5.25h-10.6v7.62h6.025v7.92a8.306 8.306 0 0 1 -3.7 7.08 28.487 28.487 0 0 1 3.121 7.31v-.07c1.525-1.07 4.065-1.68 20.035-5.33a47.381 47.381 0 0 1 .726-7.47l-12.195 2.44v-11.88h7.4c4.864 11.19 12.776 18.51 25.407 21.78a35.285 35.285 0 0 1 5.009-7.54 38.863 38.863 0 0 1 -12.7-4.65 91.124 91.124 0 0 0 9.364-5.86zm35.6-39.91v3.88h-11.4v-3.88zm-11.4 13.94v-4.19h11.4v4.19zm19.527 6.55v-26.97h-27.939v68.25h8.42v-41.28h19.527zm-1.161 16.75v-5.71h6.75v5.71zm22.285 7.39v-7.39h-7.985v-5.71h6.823v-7.16h-35.053v7.16h6.611v5.71h-7.622v7.39h7.332c-.726 3.88-2.759 8.83-7.4 11.88a33.28 33.28 0 0 1 5.517 5.18c6.17-4.42 8.566-11.81 9.292-17.06h6.968v15.69h7.55v-15.69h7.985zm-8.13-30.54v-4.34h11.759v4.34h-11.751zm11.759-14.09v3.88h-11.751v-3.88h11.759zm8.493-6.48h-28.447v27.12h19.962v30.46a1.281 1.281 0 0 1 -1.524 1.53c-1.089.07-4.646.07-7.912-.08a33.36 33.36 0 0 1 2.613 8.99c5.517 0 9.291-.23 11.9-1.75 2.613-1.45 3.411-3.96 3.411-8.61v-57.66zm62.209 12.11a118.654 118.654 0 0 1 -8.058 21.56l7.55 3.43a218.863 218.863 0 0 0 10.017-21.25zm-35.925 21.25c-1.306-5.86-4.5-15.46-7.041-22.69l-8.569 3.12c2.4 7.54 5.3 17.52 6.461 23.46zm9.582-35.72c-.217 26.58 1.38 51.03-28.745 62.99a26.6 26.6 0 0 1 6.025 7.69c14.881-6.32 22.866-15.76 27.221-26.96 5.517 13.1 14.01 21.86 28.528 26.28a35.844 35.844 0 0 1 5.735-8.53c-17.567-4.19-26.423-15.54-30.561-32.3 1.379-9.29 1.452-19.11 1.525-29.17zm61.374 19.73v2.21c0 4.87.944 7.16 5.952 7.16h4.282a14.239 14.239 0 0 0 3.847-.38c-.217-1.6-.29-3.58-.435-5.18a14.355 14.355 0 0 1 -3.557.38h-2.9c-.943 0-1.088-.53-1.088-1.98v-2.21h8.057v-6.25h-11.69v-3.73h9.727v-6.09h-9.727v-4.04h-7.622v4.04h-9.655v6.09h9.655v3.73h-12.123v6.25h7.259c-.725 3.66-2.685 5.64-8.783 6.78a16.144 16.144 0 0 1 3.412 5.33c8.42-2.06 11.033-5.94 11.832-12.11zm-10.453 50.88a42.51 42.51 0 0 0 8.638-14.47l-8.348-2.29a37.271 37.271 0 0 1 -8.42 13.33zm12.848-14.17a96.447 96.447 0 0 1 1.162 13.56l8.638-1.15a80.773 80.773 0 0 0 -1.742-13.25zm14.519-.08a76.681 76.681 0 0 1 3.411 13.56l8.639-1.75a71.838 71.838 0 0 0 -3.92-13.1zm14.445-.15a92.035 92.035 0 0 1 8.275 14.47l8.929-2.89a101.415 101.415 0 0 0 -8.929-14.17zm2.323-38.99v15.76c-1.452-1.14-3.267-2.51-5.227-3.96.509-3.65.872-7.54 1.089-11.8zm8.566 27.03a.622.622 0 0 1 -.654-.38 12.283 12.283 0 0 1 -.145-2.97v-31.68h-11.542c.073-3.2.073-6.4.145-9.83h-7.767c0 3.51-.072 6.71-.145 9.83h-6.315v8h6.1c-.072 2.36-.29 4.64-.508 6.77l-3.557-2.51-3.557 6.78c1.742 1.29 3.775 2.74 5.735 4.34-1.234 4.8-2.976 8.91-5.953 12.26v-2.43l-11.614 1.06v-4.03h9.872v-6.33h-9.872v-4.11h-7.622v4.11h-10.674v6.33h10.671v4.64c-4.791.38-9.219.76-12.7.99l.58 7.39c8.493-.91 20.181-2.13 31.432-3.35v-.15a26.124 26.124 0 0 1 3.049 4.03 31.9 31.9 0 0 0 9.291-15.38c1.67 1.44 3.194 2.74 4.283 3.81l2.9-6.1v5.72c0 5.63.508 7.15 1.6 8.53a6.356 6.356 0 0 0 4.646 1.82h3.266a5.946 5.946 0 0 0 3.848-1.14 6.735 6.735 0 0 0 2.032-3.81 68.713 68.713 0 0 0 .8-10.36 18.277 18.277 0 0 1 -5.3-3.04c0 3.88-.073 7.08-.218 8.45a4.895 4.895 0 0 1 -.436 2.36.894.894 0 0 1 -.8.38zm21.92 10.51v-14.92h11.546v14.92zm11.546-22.77h-11.546v-12.34h11.546zm23.01-20.79a92.735 92.735 0 0 0 2.83-9.67l-8.2-1.98c-2.11 8.91-5.59 18.12-9.8 24.52v-12.34h-11.256c1.236-3.27 2.536-7.08 3.776-10.89l-9.438-1.37a85.243 85.243 0 0 1 -2.105 12.26h-8.2v56.59h7.84v-5.56h19.386v-35.57a55.261 55.261 0 0 1 5.59 4.27 66.467 66.467 0 0 0 6.38-12.04h15.54c-.8 26.89-1.74 38.31-3.85 40.75a3.772 3.772 0 0 1 -3.19 1.3c-1.89 0-6.17 0-10.82-.46a22.03 22.03 0 0 1 2.83 8.83 76.718 76.718 0 0 0 11.4-.15 9.6 9.6 0 0 0 6.97-4.19c2.97-4.03 3.77-16.14 4.71-50.19.08-1.06.08-4.11.08-4.11h-20.47zm8.42 34.73a184.981 184.981 0 0 0 -10.67-16.91l-6.75 4.04c3.55 5.56 8.05 13.02 10.09 17.59zm42.82-22.77a65.662 65.662 0 0 1 -3.99 9.36h-7.77l4.29-2.58a28.623 28.623 0 0 0 -4.21-6.78zm-1.67 29.09h10.89v-7.31h-10.89v-5.1h11.84v-7.32h-6.39c1.31-2.36 2.68-4.95 3.92-7.54l-4.94-1.82h9.44v-7.47h-9.44v-2.21l2.4 1.6c2.32-2.21 5.37-5.48 8.27-8.76l-6.75-3.88a44.3 44.3 0 0 1 -3.92 5.94v-8.83h-6.89v16.14h-3.34v-16.14h-6.75v8.15a55.7 55.7 0 0 0 -4.43-5.56l-5.23 3.58a39.245 39.245 0 0 1 5.95 9.13l3.71-2.74v3.58h-9.88v7.47h9.08l-3.7 2.13a43.32 43.32 0 0 1 4.64 7.23h-7.84v7.32h12.27v5.1h-10.89v7.31h10.89v5.71c-5.44.61-10.53 1.07-14.59 1.45l1.09 8.23c9.58-1.07 23.08-2.59 35.57-4.27l-.15-7.84c-4.64.53-9.36 1.06-13.94 1.6zm43.63-33.59h-5.52v-19.04h-8.34v19.04h-15.61v8.46h15.61v33.2c0 1.3-.44 1.68-1.67 1.68-1.16 0-4.79 0-8.5-.15a39.85 39.85 0 0 1 2.91 8.6c5.66.08 9.51-.22 12.05-1.75 2.68-1.44 3.55-3.73 3.55-8.38v-33.2h5.52zm-15.82 29.63c-.58-4.65-3.05-11.58-5.74-16.91l-7.11 2.52c2.54 5.56 4.79 12.71 5.22 17.21zm87.68-34.96c-1.08-3.58-4.35-8.83-7.18-12.79l-6.54 3.58a62.357 62.357 0 0 1 6.83 13.17zm-36.36-1.29h-3.85v-4.95h3.85zm6.46-10.59h-16.41v16.3h16.41zm-25.41 10.59h-3.77v-4.95h3.77zm6.32-10.59h-16.26v16.3h16.26zm-8.42 36.03h6.02v4.11h-6.02zm0-10.21h6.02v3.96h-6.02zm19.45 3.96h-6.17v-3.96h6.17zm0 10.36h-6.17v-4.11h6.17zm9.29 18.35v-7.92h-15.03v-3.81h13.22v-27.57h-34.05v27.57h12.63v3.81h-15.46v7.92h15.46v10.67h8.2v-10.67zm21.2-31.53a69.29 69.29 0 0 1 -5.74 13.64c-.58-4.12-1.09-8.76-1.52-13.79l15.68-2.06-.87-8.3-15.46 1.98c-.37-6.24-.59-13.02-.66-19.95h-8.2c.14 7.46.43 14.47.8 20.94l-6.32.84.87 8.38 6.03-.76a170 170 0 0 0 3.12 22.31 45.6 45.6 0 0 1 -14.59 11.88 31.843 31.843 0 0 1 6.24 6.32 48.223 48.223 0 0 0 11.04-9.06c2.46 6.17 5.8 9.67 10.16 9.9 3.12.08 6.82-2.89 8.64-16.14-1.38-.84-4.87-3.13-6.25-5.11-.36 6.86-1.16 10.44-2.32 10.44-1.52-.16-2.9-2.59-4.14-6.86a78.723 78.723 0 0 0 10.02-20.79zm30.94 16h7.48l2.54-26.05.36-11.35h-13.28l.29 11.35zm3.71 20.26a7.265 7.265 0 0 0 7.55-7.47 7.55 7.55 0 0 0 -15.1 0 7.26 7.26 0 0 0 7.55 7.47z"/></g></svg>