<svg id="レイヤー_1" data-name="レイヤー 1" xmlns="http://www.w3.org/2000/svg" viewBox="0 0 311 30"><defs><style>.cls-1{fill:#ff9600;}</style></defs><title>アートボード 16</title><path class="cls-1" d="M28.57,5.65l3.84-.52c.17,0,.5,0,.5.24s-.16.36-.36.5L33,9l5.4-.67.41,3.5-5.28.72L33.9,15l8-1,.41,3.52-7.87,1.06,1.1,7.56-3.84.65-1.13-7.7-8.4,1.1-.43-3.6L30,15.52l-.36-2.47-5.85.76-.44-3.6,5.76-.72Z"/><path class="cls-1" d="M50.55,10.89a36.84,36.84,0,0,1,2.21,4.39,15.24,15.24,0,0,0-3,1.49c-.65-1.56-1.46-3.12-2.25-4.59Zm13.59.38c.26.07.45.14.45.36s-.33.26-.45.26c-2,8.53-5.88,11.89-11.45,14.29a9.82,9.82,0,0,0-2.28-2.72c6.14-2.37,9.22-5.64,10.25-13.27ZM55.45,9.78a17.71,17.71,0,0,1,2,4.51,25.43,25.43,0,0,0-3,1.25,37.32,37.32,0,0,0-2.09-4.49Z"/><path class="cls-1" d="M71.29,10.24V6.64H83.53a7.22,7.22,0,0,0,1.61-.17L87,8.56A6,6,0,0,0,86.17,10a39.66,39.66,0,0,1-3,5.88,61.08,61.08,0,0,1,7.18,6.58c-.77.91-2.07,2.35-2.86,3.26A33,33,0,0,0,81,18.9a28,28,0,0,1-9.25,7.18A10.11,10.11,0,0,0,69,22.79,20,20,0,0,0,76.83,18a19,19,0,0,0,4.8-7.75ZM87.9,5.73A19.79,19.79,0,0,1,90,8.05a7.31,7.31,0,0,0-1.54,1.42,24.14,24.14,0,0,0-2-2.38Zm2-1.73A20.91,20.91,0,0,1,92,6.35a5.87,5.87,0,0,0-1.56,1.42,15.7,15.7,0,0,0-2-2.4Z"/><path class="cls-1" d="M109.86,11.58a7.4,7.4,0,0,0,2.06-.21L114.25,13c-.41.77-2.16,4.18-2.54,4.85a19.23,19.23,0,0,1-10.45,9.22A16.58,16.58,0,0,0,98.65,24c2.21-.77,7.68-2.66,10.06-8.9H94.3V11.58ZM111.27,6V9.42H97.35V6Z"/><path class="cls-1" d="M130.59,26.49h-4.13V15.57A44.73,44.73,0,0,1,119.82,19a11.75,11.75,0,0,0-2.88-3.44,33.5,33.5,0,0,0,16.34-11l3.19,2.52a.55.55,0,0,1,.29.46c0,.21-.19.31-.38.31a1.52,1.52,0,0,1-.48-.07,47,47,0,0,1-5.31,4.92Z"/><path class="cls-1" d="M158.12,6.37a11.29,11.29,0,0,0,1.66-.14l2.78,2.26a4.4,4.4,0,0,0-.79,1.27c-2.4,5.85-2.9,7-4.66,9.38-2,2.71-4.41,4.68-8.88,7.16a14.31,14.31,0,0,0-3-2.93c5.45-2.62,9.14-5.07,12.14-13.44H142.81V6.37Z"/><path class="cls-1" d="M169.23,7.53a26,26,0,0,1,3.67,5.9,30.46,30.46,0,0,0-3.4,1.92,27.87,27.87,0,0,0-3.65-5.78Zm16.16,2.52c.28.12.33.21.33.33,0,.31-.36.31-.55.31-2.28,6.63-4.06,9.44-6.55,11.62a20.47,20.47,0,0,1-7.35,4.18,13.83,13.83,0,0,0-2.88-2.81,19.32,19.32,0,0,0,9-5.74,24.47,24.47,0,0,0,4.15-9.38Zm-3.27-5.74A13.66,13.66,0,0,1,184,6.9a15.16,15.16,0,0,0-2.35,1.25A24,24,0,0,0,180,5.51Zm3.77-.14a16.31,16.31,0,0,1,1.87,2.59c-.33.19-1.75,1.1-2,1.29a16.52,16.52,0,0,0-1.92-2.73Z"/><path class="cls-1" d="M210.44,14v4.08H189.58V14Z"/><path class="cls-1" d="M216.82,5.7c4,2.07,5.29,3.27,6,3.94-.57.69-.74,1-2.32,3.26a24.61,24.61,0,0,0-6.05-3.84Zm-2,16.59A28.41,28.41,0,0,0,232.71,9.37a15.18,15.18,0,0,0,2.48,3.27,31.84,31.84,0,0,1-7.47,8A39.35,39.35,0,0,1,217.83,26c0,.27-.12.53-.33.53s-.24-.07-.39-.33Z"/><path class="cls-1" d="M257.19,13.31c-1.7.12-3.72.29-8.06,2.26s-5.91,4-5.91,5.16c0,1.73,2.57,2.06,5.62,2.06a25.31,25.31,0,0,0,8.21-1.37,15.87,15.87,0,0,0-.26,4.23,50.23,50.23,0,0,1-8.12.72c-4.17,0-5.8-.63-7-1.27A4.65,4.65,0,0,1,239.05,21c0-3.27,2.74-5.31,5.11-6.8-1.2-1.34-1.37-2.61-1.78-5.66a9.69,9.69,0,0,0-.64-2.57l4.7-1c-.1,1.23-.14,1.76-.14,2.52a11.54,11.54,0,0,0,1,5.12,76.63,76.63,0,0,1,8.38-3.44Z"/><path class="cls-1" d="M267.2,6.81c.19.07.31.16.31.33s-.45.34-.67.36a33.17,33.17,0,0,0-1.44,9.24,17.27,17.27,0,0,0,.17,2.4c.31-.45.81-1.22,1.13-1.7a10,10,0,0,0,1.72,2.37,10.81,10.81,0,0,0-2,5.89l-3.21.6a33.8,33.8,0,0,1-1.3-9.68,43,43,0,0,1,1.44-11Zm11.4-.53c.12,0,.31,0,.31.26s-.33.36-.55.39a26.32,26.32,0,0,0-.24,2.88,21.76,21.76,0,0,0,3.55-.89v3.62c-.55.15-1.65.41-3.64.77a39.45,39.45,0,0,0,.38,5.52A13.57,13.57,0,0,1,283,21.3c-.38.7-1.1,2.26-1.63,3.39a8.54,8.54,0,0,0-2.57-1.83c-.1,3.08-3.17,3.44-4.68,3.44-3.6,0-5.4-2-5.4-4.2,0-2.86,2.83-3.94,5.95-3.87-.19-2.74-.21-3.05-.26-4.44-1.37.12-2.35.12-2.76.12a17.25,17.25,0,0,1-1.78-.07V10.07a25.61,25.61,0,0,0,4.51.17c0-1,0-3.12,0-4.68Zm-5,14.88c-.52,0-1.68.17-1.68.91s.8.89,1.56.89c.2,0,1.64,0,1.64-1.18a.63.63,0,0,0,0-.31A3.43,3.43,0,0,0,273.63,21.16Z"/><path class="cls-1" d="M295.88,20.77v4.35h-4.22V20.77Z"/><path class="cls-1" d="M303.44,20.77v4.35h-4.22V20.77Z"/><path class="cls-1" d="M311,20.77v4.35h-4.22V20.77Z"/><rect class="cls-1" width="10" height="30"/></svg>