<svg id="レイヤー_1" data-name="レイヤー 1" xmlns="http://www.w3.org/2000/svg" viewBox="0 0 232.66 23.09"><defs><style>.cls-1{fill:#fff;}</style></defs><title>アートボード 19</title><path class="cls-1" d="M6.84,1.66l3.84-.53c.17,0,.51,0,.51.24s-.17.36-.36.5L11.28,5l5.4-.67.41,3.51-5.28.71.36,2.5,8-1,.41,3.53L12.7,14.59l1.1,7.56L10,22.8,8.83,15.1.43,16.2,0,12.6l8.3-1.08L7.94,9.05l-5.85.77-.43-3.6L7.42,5.5Z"/><path class="cls-1" d="M31.22,6.89a36.11,36.11,0,0,1,2.21,4.39,15.81,15.81,0,0,0-3.05,1.49,50,50,0,0,0-2.25-4.59Zm13.59.38c.26.07.46.15.46.36s-.34.27-.46.27c-2,8.52-5.88,11.88-11.45,14.28a9.68,9.68,0,0,0-2.28-2.71c6.15-2.38,9.22-5.64,10.25-13.28ZM36.12,5.79a17.4,17.4,0,0,1,2,4.51,28,28,0,0,0-3,1.24A38,38,0,0,0,33,7.06Z"/><path class="cls-1" d="M54.36,6.24V2.64H66.6a7.22,7.22,0,0,0,1.61-.17L70.1,4.56A6.45,6.45,0,0,0,69.24,6a40.23,40.23,0,0,1-3,5.89,60.25,60.25,0,0,1,7.18,6.57c-.77.91-2.06,2.35-2.86,3.27a32.73,32.73,0,0,0-6.45-6.84,28,28,0,0,1-9.24,7.17,10.27,10.27,0,0,0-2.74-3.29A20,20,0,0,0,59.9,14a19,19,0,0,0,4.8-7.75ZM71,1.73a20,20,0,0,1,2.09,2.33,7.22,7.22,0,0,0-1.54,1.41,23.52,23.52,0,0,0-2-2.37ZM73,0a22,22,0,0,1,2.11,2.35,5.87,5.87,0,0,0-1.56,1.42,16.22,16.22,0,0,0-2-2.4Z"/><path class="cls-1" d="M95.33,7.58a7.4,7.4,0,0,0,2.06-.21L99.72,9c-.41.76-2.16,4.17-2.54,4.84a19.24,19.24,0,0,1-10.44,9.22A17,17,0,0,0,84.12,20c2.21-.76,7.68-2.66,10.06-8.9H79.78V7.58ZM96.75,2V5.42H82.82V2Z"/><path class="cls-1" d="M118.47,22.49h-4.13V11.57A43,43,0,0,1,107.69,15a12,12,0,0,0-2.88-3.44,33.5,33.5,0,0,0,16.34-11l3.2,2.52a.56.56,0,0,1,.28.46c0,.21-.19.31-.38.31a1.52,1.52,0,0,1-.48-.07,48.15,48.15,0,0,1-5.3,4.92Z"/><path class="cls-1" d="M148.39,2.38a11.38,11.38,0,0,0,1.66-.15l2.78,2.26A4.63,4.63,0,0,0,152,5.76c-2.4,5.86-2.9,7-4.65,9.39-2,2.71-4.42,4.68-8.89,7.15a14.29,14.29,0,0,0-3-2.93c5.45-2.62,9.14-5.06,12.14-13.44H133.08V2.38Z"/><path class="cls-1" d="M161.9,3.53a26.38,26.38,0,0,1,3.68,5.9,31.2,31.2,0,0,0-3.41,1.92,27.87,27.87,0,0,0-3.65-5.78Zm16.16,2.52c.29.12.33.21.33.33,0,.32-.36.32-.55.32-2.28,6.62-4.06,9.43-6.55,11.61a20.24,20.24,0,0,1-7.35,4.18,13.83,13.83,0,0,0-2.88-2.81A19.34,19.34,0,0,0,170,14a24.45,24.45,0,0,0,4.15-9.39ZM174.79.31a14,14,0,0,1,1.9,2.59,16.07,16.07,0,0,0-2.35,1.25,25.08,25.08,0,0,0-1.71-2.64Zm3.77-.14a16.31,16.31,0,0,1,1.87,2.59c-.33.19-1.75,1.1-2,1.3a16.49,16.49,0,0,0-1.92-2.74Z"/><path class="cls-1" d="M205.51,10v4.08H184.66V10Z"/><path class="cls-1" d="M214.3,1.7a23.1,23.1,0,0,1,6,3.94A39.26,39.26,0,0,0,218,8.91a25.05,25.05,0,0,0-6.05-3.85Zm-2,16.59A28.47,28.47,0,0,0,230.19,5.38a15.34,15.34,0,0,0,2.47,3.26,31.49,31.49,0,0,1-7.47,8A39.67,39.67,0,0,1,215.3,22c0,.26-.12.52-.33.52s-.24-.07-.39-.33Z"/></svg>