<svg xmlns="http://www.w3.org/2000/svg" viewBox="0 0 96.67 40"><defs><style>.b1bac6e9-75a6-442e-b879-f58ca0ccd571{fill:#00b4dc;}</style></defs><title>title_contents</title><g id="acf0e9c7-e7d9-4b5a-bfbc-153b2a9413f5" data-name="レイヤー 2"><g id="b6fa12b9-d547-40e6-bffb-6250b409eb42" data-name="object"><rect class="b1bac6e9-75a6-442e-b879-f58ca0ccd571" width="10" height="40"/><path class="b1bac6e9-75a6-442e-b879-f58ca0ccd571" d="M58.44,8.81V32.46c0,1.72,0,4-4.82,4-.9,0-2.13-.11-3-.15a13.51,13.51,0,0,0-1.91-5.76,23.66,23.66,0,0,0,3.31.47c.47,0,.94-.21.94-1.33V25.94a14.94,14.94,0,0,0-2.7,3.38,15.61,15.61,0,0,1-7.2-7.41A24.7,24.7,0,0,1,35.29,30,9.94,9.94,0,0,0,33,26.63v9.82H27.48V8.81H40.19V3.3L46,3.52c.43,0,.69.21.69.5s-.47.58-1,.72V8.81ZM33,24.9a13.86,13.86,0,0,0,7.09-11H33Zm12.77-11a10.69,10.69,0,0,0,2,5.9A16.13,16.13,0,0,0,53,24.46V13.92Z"/><path class="b1bac6e9-75a6-442e-b879-f58ca0ccd571" d="M90.34,36.27H85.19v-.83H73.13v.83H67.84v-9a17,17,0,0,1-2.77,1.29,9.59,9.59,0,0,0-3.75-3.63C65,23.38,73,19.64,76.62,12l5,.94c.36.07.68.32.68.57s-.1.33-.43.51c2.92,3.88,10.55,8.81,14.83,10A13.62,13.62,0,0,0,93,28.21,12.11,12.11,0,0,1,90.34,27ZM95.23,5.89V14H90.52A23.88,23.88,0,0,0,94,16.11a12.28,12.28,0,0,0-3.89,3.53A40,40,0,0,1,82.27,13l3.86-2.85H71.47l3.68,2c.18.11.43.32.43.57,0,.4-.43.51-.76.54a24.65,24.65,0,0,1-6.59,6.34,10.79,10.79,0,0,0-3.92-3.24A20.76,20.76,0,0,0,67.7,14H62.76V5.89h13.5V3l5.58.15c.4,0,.72.21.72.43s-.39.5-.72.68V5.89ZM68,13.67a20.6,20.6,0,0,0,3-3.57H68ZM85.19,31.05V27.2H73.13v3.85Zm-1.51-8.53a34.45,34.45,0,0,1-4.9-4.5,40.07,40.07,0,0,1-4.46,4.5ZM86.41,10.1a29.83,29.83,0,0,0,3.67,3.53V10.1Z"/></g></g></svg>