<svg id="レイヤー_1" data-name="レイヤー 1" xmlns="http://www.w3.org/2000/svg" width="20" height="20" viewBox="0 0 20 20">
  <title>アートボード 1</title>
  <g>
    <g>
      <path d="M9.92,1A.51.51,0,0,1,9.57.87.36.36,0,0,1,9.46.71a.43.43,0,0,1,0-.19A.47.47,0,0,1,9.57.17.35.35,0,0,1,9.73.06a.49.49,0,0,1,.54.11.47.47,0,0,1,.15.35.44.44,0,0,1,0,.19.36.36,0,0,1-.11.16A.51.51,0,0,1,9.92,1Z"/>
      <path d="M17.69,9a.51.51,0,0,1,0-.71h0a.51.51,0,0,1,.71,0h0a.51.51,0,0,1,0,.71h0a.49.49,0,0,1-.35.15h0A.51.51,0,0,1,17.69,9ZM16.34,7.64a.48.48,0,0,1,0-.7h0a.49.49,0,0,1,.71,0h0a.5.5,0,0,1,0,.7h0a.51.51,0,0,1-.36.15h0A.49.49,0,0,1,16.34,7.64ZM15,6.29a.51.51,0,0,1,0-.71h0a.51.51,0,0,1,.71,0h0a.5.5,0,0,1,0,.71h0a.49.49,0,0,1-.35.15h0A.51.51,0,0,1,15,6.29ZM13.63,4.94a.49.49,0,0,1,0-.71h0a.49.49,0,0,1,.71,0h0a.51.51,0,0,1,0,.71h0a.54.54,0,0,1-.36.14h0A.54.54,0,0,1,13.63,4.94ZM12.27,3.58a.51.51,0,0,1,0-.71h0a.51.51,0,0,1,.71,0h0a.5.5,0,0,1,0,.71h0a.47.47,0,0,1-.35.15h0A.51.51,0,0,1,12.27,3.58ZM10.92,2.23a.51.51,0,0,1,0-.71h0a.49.49,0,0,1,.71,0h0a.51.51,0,0,1,0,.71h0a.54.54,0,0,1-.36.14h0A.54.54,0,0,1,10.92,2.23Z"/>
      <path d="M19.4,10.5A.5.5,0,0,1,19,9.65a.5.5,0,0,1,.7,0,.5.5,0,0,1-.35.85Z"/>
      <path d="M10.92,18.48a.51.51,0,0,1,0-.71h0a.51.51,0,0,1,.71,0h0a.51.51,0,0,1,0,.71h0a.51.51,0,0,1-.36.15h0A.5.5,0,0,1,10.92,18.48Zm1.35-1.35a.51.51,0,0,1,0-.71h0a.49.49,0,0,1,.71,0h0a.5.5,0,0,1,0,.71h0a.52.52,0,0,1-.35.14h0A.54.54,0,0,1,12.27,17.13Zm1.36-1.36a.49.49,0,0,1,0-.71h0a.51.51,0,0,1,.71,0h0a.51.51,0,0,1,0,.71h0a.51.51,0,0,1-.36.15h0A.49.49,0,0,1,13.63,15.77ZM15,14.42a.51.51,0,0,1,0-.71h0a.49.49,0,0,1,.71,0h0a.5.5,0,0,1,0,.71h0a.52.52,0,0,1-.35.14h0A.54.54,0,0,1,15,14.42Zm1.36-1.36a.5.5,0,0,1,0-.71h0a.5.5,0,0,1,.7,0h0a.5.5,0,0,1,0,.71h0a.47.47,0,0,1-.35.15h0A.49.49,0,0,1,16.34,13.06Zm1.35-1.35a.51.51,0,0,1,0-.71h0a.51.51,0,0,1,.71,0h0a.5.5,0,0,1,0,.71h0a.49.49,0,0,1-.35.14h0A.5.5,0,0,1,17.69,11.71Z"/>
      <path d="M9.92,20a.51.51,0,0,1-.36-.15.51.51,0,0,1,0-.7.51.51,0,0,1,.71,0,.5.5,0,0,1-.35.85Z"/>
    </g>
    <path d="M16.33,10a.5.5,0,0,1,.5-.5h0a.5.5,0,0,1,.5.5h0a.5.5,0,0,1-.5.5h0A.5.5,0,0,1,16.33,10Zm-2,0a.5.5,0,0,1,.5-.5h0a.5.5,0,0,1,.5.5h0a.5.5,0,0,1-.5.5h0A.5.5,0,0,1,14.33,10Zm-2,0a.5.5,0,0,1,.5-.5h0a.5.5,0,0,1,.5.5h0a.5.5,0,0,1-.5.5h0A.5.5,0,0,1,12.33,10Zm-2,0a.5.5,0,0,1,.5-.5h0a.5.5,0,0,1,.5.5h0a.5.5,0,0,1-.5.5h0A.5.5,0,0,1,10.33,10Zm-2,0a.5.5,0,0,1,.5-.5h0a.5.5,0,0,1,.5.5h0a.5.5,0,0,1-.5.5h0A.5.5,0,0,1,8.33,10Zm-2,0a.5.5,0,0,1,.5-.5h0a.5.5,0,0,1,.5.5h0a.5.5,0,0,1-.5.5h0A.5.5,0,0,1,6.33,10Zm-2,0a.5.5,0,0,1,.5-.5h0a.5.5,0,0,1,.5.5h0a.5.5,0,0,1-.5.5h0A.5.5,0,0,1,4.33,10Zm-2,0a.5.5,0,0,1,.5-.5h0a.5.5,0,0,1,.5.5h0a.5.5,0,0,1-.5.5h0A.5.5,0,0,1,2.33,10Zm-2,0a.5.5,0,0,1,.5-.5h0a.5.5,0,0,1,.5.5h0a.5.5,0,0,1-.5.5h0A.5.5,0,0,1,.33,10Z"/>
  </g>
</svg>
