<svg id="レイヤー_1" data-name="レイヤー 1" xmlns="http://www.w3.org/2000/svg" width="21.33" height="21.38" viewBox="0 0 21.33 21.38">
  <defs>
    <style>
      .cls-1 {
        fill: #333;
      }
    </style>
  </defs>
  <title>icon_link_g</title>
  <path class="cls-1" d="M8.31,20A4.89,4.89,0,0,1,1.46,20,4.79,4.79,0,0,1,0,16.57,5,5,0,0,1,1.46,13L6.31,8.14A4.82,4.82,0,0,1,9.76,6.71a5.1,5.1,0,0,1,.87.07,4.85,4.85,0,0,1,.9.26,4.24,4.24,0,0,1,.77.38A4.92,4.92,0,0,1,13.89,9a.27.27,0,0,1,0,.32l-1.32,1.32a.27.27,0,0,1-.19.08.25.25,0,0,1-.23-.15,2.41,2.41,0,0,0-.53-.77,2.55,2.55,0,0,0-.92-.59A2.42,2.42,0,0,0,9.77,9,2.56,2.56,0,0,0,8,9.77L3,14.68a2.58,2.58,0,0,0,0,3.61,2.5,2.5,0,0,0,1.82.76,2.67,2.67,0,0,0,1.89-.78L9.4,15.59l.08,0a6.15,6.15,0,0,0,2.08.36h.75ZM19.87,8.39,15,13.24a4.8,4.8,0,0,1-3.45,1.43,4.91,4.91,0,0,1-.86-.07,5.44,5.44,0,0,1-.9-.25A5.05,5.05,0,0,1,9,14a4.91,4.91,0,0,1-.92-.71,5.37,5.37,0,0,1-.67-.84.26.26,0,0,1,0-.32L8.8,10.77A.25.25,0,0,1,9,10.69a.27.27,0,0,1,.24.15,2.38,2.38,0,0,0,.52.77,2.73,2.73,0,0,0,.92.59,2.51,2.51,0,0,0,.9.16,2.56,2.56,0,0,0,1.82-.75L18.29,6.7a2.58,2.58,0,0,0,0-3.61,2.51,2.51,0,0,0-1.83-.76,2.65,2.65,0,0,0-1.88.78L11.93,5.79l-.08,0A6.15,6.15,0,0,0,9.77,5.4H9l4-4a4.88,4.88,0,0,1,6.84-.06,4.76,4.76,0,0,1,1.47,3.44A5,5,0,0,1,19.87,8.39Z"/>
</svg>
