<svg xmlns="http://www.w3.org/2000/svg" width="38.79mm" height="41.78mm" viewBox="0 0 109.95 118.42"><defs><style>.cls-2{fill:#231815}</style></defs><g id="レイヤー_2" data-name="レイヤー 2"><g id="レイヤー_1-2" data-name="レイヤー 1"><path d="M44.64 36.13l-19.56-1.67-4.31 13.39 14.57 8.21L26.06 78l12.12 8.54 17.06-15.9 17.21 15.75 12-8.65L75 55.87l14.5-8.34-4.44-13.36L66.61 36l-4.4-20.11-14.7.07-2.45 12.49a33.08 33.08 0 0013.57-.31c.27-.08.67-.11.85.12a.73.73 0 010 .7c-.58 1.29-2.92 3.43-7.75 4a23.6 23.6 0 01-6.45-.08l-.68 3.28" fill="#e7242e"/><path class="cls-2" d="M66.13 30.45c-1.27-5.79-3.23-14.76-3.23-14.76a.72.72 0 00-.69-.56l-14.7.07a.71.71 0 00-.69.57l-2.45 12.55a.71.71 0 00.57.83 35.66 35.66 0 0011.06.23c.64-.09 1.32-.25 1.8-.36.22 0 .62-.24.73-.05s-.07.36-.25.56a7.18 7.18 0 01-1.59 1.2 12.68 12.68 0 01-5 1.49 23.71 23.71 0 01-6.2 0 .73.73 0 00-.56.08.7.7 0 00-.31.46s-.08.35-.17.82-.29 1.4-.29 1.4a.55.55 0 01-.55.41s-2.23-.17-4-.33l-14.47-1.31a.69.69 0 00-.73.49l-4.31 13.4a.85.85 0 000 .22.71.71 0 00.36.61l9.65 5.43 4 2.24a.51.51 0 01.22.64l-1.69 4-7.17 17a.67.67 0 00-.06.28.71.71 0 00.3.57l12.13 8.54a.69.69 0 00.88-.06l12.99-12.22c1.89-1.75 3.2-3 3.2-3a.52.52 0 01.67 0l3.18 2.92L72 86.91a.69.69 0 00.88 0l12-8.65a.71.71 0 00.29-.58.74.74 0 00-.06-.28l-7.33-16.9-1.73-4a.53.53 0 01.22-.64l4.56-2.63 9-5.17a.71.71 0 00.36-.61.54.54 0 000-.22L85.73 34a.71.71 0 00-.74-.48L71 34.82l-3.41.33a.55.55 0 01-.56-.4zM45.47 35.6l.31-1.51a.53.53 0 01.55-.4 21.9 21.9 0 002.46.09 26 26 0 003.06-.16c5.26-.58 7.7-3 8.31-4.37a1.4 1.4 0 00-.16-1.43 1.47 1.47 0 00-1.58-.37 29.34 29.34 0 01-8.35.83c-1.64-.06-3.76-.35-3.76-.35a.41.41 0 01-.36-.5s.33-1.68.7-3.59c.11-.58.23-1.19.35-1.8l1-5a.57.57 0 01.54-.45H61.2a.59.59 0 01.55.44l.84 3.83 3.33 15.24a.71.71 0 00.76.56l8.63-.84 8.81-.82a.57.57 0 01.59.39s.81 2.41 1.67 5c.16.52.34 1 .51 1.55l1.62 4.87a.57.57 0 01-.25.66l-6.82 3.93-6.78 3.9a.69.69 0 00-.36.61.71.71 0 00.06.28s3.29 7.59 6 13.72l3.12 7.2a.59.59 0 01-.19.69l-5.43 3.91-.69.49-4.25 3.06a.59.59 0 01-.71 0s-2-1.88-4.67-4.28L55.72 70.12a.71.71 0 00-1 0L44 80.14l-5.58 5.2a.57.57 0 01-.7 0l-5-3.54-.44-.31L27.3 78a.59.59 0 01-.19-.68l3.38-8 5.5-13a.71.71 0 00.06-.28.71.71 0 00-.36-.61L29 51.68l-7-3.93a.61.61 0 01-.26-.66l1.7-5.28c.24-.72.47-1.45.7-2.15l1.29-4a.58.58 0 01.59-.39l6.55.57 12 1a.62.62 0 00.19 0h.21a.36.36 0 00.12-.08.2.2 0 00.06-.07.41.41 0 00.1-.13v-.07a.61.61 0 000-.12z"/><path class="cls-2" d="M51.27 27.27a.57.57 0 01-.18 0 .61.61 0 01-.41-.77 33.92 33.92 0 001.4-8.15.62.62 0 111.23.07 36.11 36.11 0 01-1.45 8.45.63.63 0 01-.59.43zm7.73-4.1a1 1 0 11-1.93 0 1 1 0 111.93 0zm-10.26-2.71a.77.77 0 101.51 0 .84.84 0 00-.76-.9.83.83 0 00-.75.9z"/><path d="M47.07 43.49v.84a2.75 2.75 0 01-2.31 1.06 2.84 2.84 0 01-2-.68 2.55 2.55 0 01-.08-3.57 2.47 2.47 0 011.8-.69 2.76 2.76 0 011.05.19 2.27 2.27 0 01.84.55 2.36 2.36 0 01.52.86 3.91 3.91 0 01.18 1.18h-2.5a1.07 1.07 0 00.45.57 1.27 1.27 0 00.72.21 1.81 1.81 0 001.33-.52zm-2.66-1.08h1.15a1 1 0 00-.17-.55.53.53 0 00-.42-.2.5.5 0 00-.39.2.81.81 0 00-.17.55zm5.84-1.89v.6a2 2 0 011.47-.64 1.75 1.75 0 011.29.45 2 2 0 01.45 1.38v3h-2.31V42.5c0-.39-.16-.59-.46-.59a.82.82 0 00-.44.16v3.22h-2.43v-4.77zm7.9-.04v1.34h-1v1c0 .34.16.52.47.51a.69.69 0 00.58-.34v1.89a2.48 2.48 0 01-1.41.39 2.18 2.18 0 01-1.49-.52 1.84 1.84 0 01-.61-1.45v-1.46h-1l3.44-2.72v1.37zm5.65 2.93v.83a2.76 2.76 0 01-2.31 1.07 2.84 2.84 0 01-2-.68 2.55 2.55 0 01-.08-3.57 2.47 2.47 0 011.8-.69 2.8 2.8 0 011.05.19A2.26 2.26 0 0163.63 42a3.68 3.68 0 01.17 1.18h-2.5a1.09 1.09 0 00.45.56 1.32 1.32 0 00.73.21 1.77 1.77 0 001.32-.54zm-2.65-1.08h1.15a1 1 0 00-.17-.55.55.55 0 00-.42-.2.46.46 0 00-.39.2.77.77 0 00-.17.55zm5.85-.84c.31-.73.75-1.09 1.35-1.09a1.06 1.06 0 01.81.32 1.09 1.09 0 01.33.82 1.17 1.17 0 01-.31.85 1.11 1.11 0 01-.82.32 1.3 1.3 0 01-1-.43 1.41 1.41 0 00-.36 1.15v1.78h-2.43v-4.77H67zM42 53.17v-3.86h7.73v3.86h-1.98v4.84H43.9v-4.84zm13.45 4.92a4.25 4.25 0 01-3.17-1.29 4.54 4.54 0 010-6.37 4.49 4.49 0 016.36 6.34 4.27 4.27 0 01-3.19 1.32zm0-5.64a.79.79 0 00-.61.26.91.91 0 00-.25.66.92.92 0 00.25.65.88.88 0 001.24 0 1 1 0 000-1.3.82.82 0 00-.66-.27zm11.49 5.44h-3.85v-3.8l-3.34-4.88h3.9l1.35 2 1.33-2h3.91l-3.31 4.89zm-22.27 3.36v.6a1.92 1.92 0 011.47-.65 1.67 1.67 0 011.54.82 2.82 2.82 0 01.82-.63 2.26 2.26 0 01.92-.21 1.6 1.6 0 011.23.48A1.85 1.85 0 0151.1 63v3h-2.3v-2.85a.53.53 0 00-.13-.39.39.39 0 00-.32-.14.73.73 0 00-.45.16V66h-2.31v-2.83a.68.68 0 00-.12-.4.46.46 0 00-.34-.14.76.76 0 00-.44.17V66h-2.44v-4.77zm12.54 2.89V65a2.73 2.73 0 01-2.31 1 2.81 2.81 0 01-2-.68 2.57 2.57 0 01-.08-3.57 2.47 2.47 0 011.8-.68 2.66 2.66 0 011.06.18 2.36 2.36 0 01.83.55 2.23 2.23 0 01.52.86 3.41 3.41 0 01.18 1.18h-2.5a1.09 1.09 0 00.45.56 1.28 1.28 0 00.73.21 1.77 1.77 0 001.32-.47zm-2.65-1.08h1.15a.9.9 0 00-.18-.55.53.53 0 00-.42-.2.5.5 0 00-.39.2.83.83 0 00-.16.55zm6.16-1.89v.6a2 2 0 011.47-.64 1.67 1.67 0 011.28.45 2 2 0 01.46 1.42v3h-2.3v-2.84c0-.4-.16-.6-.46-.6a.91.91 0 00-.44.16v3.22h-2.44v-4.77zm8.22-.04v1.34h-1v1c0 .34.15.52.46.51a.71.71 0 00.59-.34v1.89a2.56 2.56 0 01-1.41.39 2.25 2.25 0 01-1.49-.52 1.84 1.84 0 01-.61-1.4v-1.51h-1l3.43-2.71v1.36z" fill="#fff"/><path class="cls-2" d="M8.5 72l1.65 3.15-3.21-1.58-2.52 2.59.53-3.56L1.7 71l3.56-.6.52-3.5L7.44 70l3.54-.6zm94.11-1.94l1.61-3.16.54 3.5 3.57.56-3.21 1.63.55 3.56-2.53-2.56-3.14 1.67 1.62-3.16L99 69.54zM53 100.7l.33-2.23-6.45-.93.1-.76-3.36-.49-.11.76-.9-.13-.32 2.23.9.12-.1.66-.89-.13-.32 2.2.9.13-.07.45c-.41 2.86.66 4.54 3.42 4.94l1.56.23c2.25.32 4.34-.43 4.85-4l.36-2.47-3.3-.48-.36 2.47a1.29 1.29 0 01-1.68 1.25h-.24c-.83-.12-1.38-.43-1.24-1.42l.07-.45 2.47.36.33-2.24-2.48-.36.09-.65zm8.85.68l-1.57.07v-.64l5-.25-.14-2.71-5 .25v-.66l-3.4.17v.65l-1.87.09.13 2.71 1.87-.09.13 3.43 4.46-.22c.46 0 .61.15.62.41s-.16.4-.62.42l-5.58.27.16 3.16 5.57-.26c3.37-.17 4.38-1.34 4.26-3.7-.11-2.95-1.8-3.21-4.02-3.1zm-25.66-3.19l-.92-.44.28-.6 1 .48 1.15-2.45-1-.47.28-.59-2.62-1.24c-.11.22-.11.22-.28.59l-2.67-1.27-1.16 2.44L33 95.93l-.28.59-.29-.13c-1.38-.66-3.13-.36-4.15 1.79s-.37 3.57 1.48 4.44c2.37 1.13 3.31-.14 4-1.69l.32-.67c.52.26 1 .47 1 .47.37.18.57.34.42.65s-.3.32-.76.11l-.42-.2-1.36 2.86.38.18c1.84.87 3.63 1.11 4.88-1.53.98-2.1-.22-3.75-2.03-4.61zm-5 1.54c-.15.32-.33.42-.5.35h-.1c-.27-.14-.2-.47 0-.78a.52.52 0 01.76-.31l.21.1zm7.63-5.32l-1.16 2.46a.6.6 0 01.34.89l-.34.7 2.47 1.17.46-1c.89-1.92.49-3.25-1.8-4.22zm43.64.14l.37 1.82A2.9 2.9 0 0181 99.29L77.68 101l1.41 2.84 3.51-1.74c2.59-1.29 4.05-3.51 3.37-6.42-.3-1.32-.84-2.65-.12-3l-1.53-3.08c-2.48 1.17-2.4 2.61-1.86 4.95zM79 91.8l-4.67 2.32 1.23 2.49 4.68-2.32zm1.53 3.08l-4.71 2.32 1.24 2.5 4.67-2.32z"/><path class="cls-2" transform="rotate(-52.83 98.592 82.38)" d="M93.52 80.74h10.12v3.29H93.52z"/><path class="cls-2" d="M89.64 87L86 90.32l1.57 1.75L91 89c.34-.29.53 0 .72.24l-3.37 3 1.24 1.38 3.36-3 .44.49-3.7 3.32 1.56 1.75L97 91l-3.49-4a2.56 2.56 0 00-3.87 0zM73.7 99.39a.82.82 0 01.62-.43l-.51-1.89c-1.87.51-2.47 1.43-2.57 2.37l-1.31.35-.29-.86-2.34.64.29.85-.88.24.65 2.43 1-.29 1.49 4.2 2.33-.64-1.43-4.22 1-.28c.61-.16.92-.07 1 .35s-.1.73-.88.93l.66 2.43c2.77-.75 3.33-2 2.86-3.8l-.14-.54a2.58 2.58 0 00-1.55-1.84zM19 84.62l1.45-1.15-2.52-3.18.4-.32-1.78-2.25-.4.32-2.51-3.18L12.19 76l2.52 3.17-.52.41-2.4-3-4.17 3.31 1.62 2a3.67 3.67 0 01-2.52-1.62l-1.55 1.27a5.3 5.3 0 003.35 2.32l-.94.74 2 2.51.93-.74A5.28 5.28 0 0012 90.15l1.54-1.22a3.39 3.39 0 01-1-2.81l1.64 2.07 4.18-3.31-2.4-3 .52-.41zm-8-2.49l-.75-.95.52-.4.75 1zm1.7-1.34l-.75-1 .52-.41.75.95zm.84 4.54l-.76-1 .52-.4.75.94zm2.21-1.76l-.51.41-.75-1 .51-.41zM7.42 64.35l-6.3 1.16-.45-2.41L7 61.93zM23 18.39l-4.1-4.92 1.91-1.59 4.11 4.91zM2.54 54.27l-2.48-.15.34-5.67 2.48.15-.09 1.59 3.91.24-.15 2.48-3.91-.24zm12.88-34.08l-1.74-1.78 4.08-4 1.74 1.78-1.15 1.12 2.73 2.81-1.77 1.73-2.74-2.8zM55.23 2.48L55.38 0l5.68.34-.15 2.48-1.6-.1-.23 3.92-2.48-.15.23-3.91zm35.48 14.19L92.5 15l3.94 4.1-1.8 1.72-1.11-1.15-2.83 2.66-1.7-1.79 2.83-2.72zM6.4 43l1.42.26-1 5.23-6.26-1.15 1-5.23 1.41.26-.51 2.78 1.13.21.37-2 1.23.23-.37 2 1.12.21zm-4.59-2.45l1.37-3.95a2.48 2.48 0 011.08-1.43 1.76 1.76 0 011.5-.17 1.78 1.78 0 011 1.29 5.53 5.53 0 013.36-.3l-.91 2.62a5.06 5.06 0 00-1.82-.25c-.42 0-.76.43-1 1.14l2.25.78-.81 2.35zm2.06-1.91L5 39l.14-.4c.24-.71.11-1-.26-1.09a.72.72 0 00-.48 0c-.15 0-.32.36-.4.59zM15 27.35l-1.51 2-3.76-5.68 2.45-3.21 6.44 2.11-1.5 2-1.12-.39-1.65 2.22zm-1.53-2.28l1-1.39-2.47-.81zM40 8.76l-2.38.68.38-6.77 3.89-1.1 3.89 5.56-2.39.67-.65-.94-2.67.76zM40.19 6l1.68-.48-1.53-2.14zM27.6 14.91a3.11 3.11 0 01-2.52 0 3.34 3.34 0 01-1.74-4.35 3.29 3.29 0 016.08.09 3.25 3.25 0 010 2.54 3.13 3.13 0 01-1.82 1.72zm-1.7-4.24a1 1 0 00-.57.56 1.11 1.11 0 000 .84 1.06 1.06 0 00.56.61 1 1 0 00.8 0 1 1 0 00.58-.57 1.09 1.09 0 000-.83 1.14 1.14 0 00-.56-.62 1 1 0 00-.81.01zm37.93-3.19a3.17 3.17 0 01-2-1.51 3.23 3.23 0 01-.36-2.51 3.21 3.21 0 011.5-2 3.19 3.19 0 012.49-.36 3.14 3.14 0 012 1.5 3.23 3.23 0 01.35 2.49 3.27 3.27 0 01-1.49 2.05 3.17 3.17 0 01-2.49.34zM65 3a1 1 0 00-.8.12 1.09 1.09 0 00-.47.69 1.12 1.12 0 00.09.83A1 1 0 0065.2 5a1 1 0 00.49-.68 1.08 1.08 0 00-.11-.83A.92.92 0 0065 3zm17.86 12.43a3.15 3.15 0 01-1.57-2 3.23 3.23 0 01.31-2.52 3.18 3.18 0 012-1.58 3.3 3.3 0 014.07 2.26 3.35 3.35 0 01-2.27 4.09 3.14 3.14 0 01-2.54-.25zm2.21-4a1 1 0 00-.79-.09 1.09 1.09 0 00-.64.54 1.07 1.07 0 00-.12.83 1 1 0 00.49.63 1 1 0 00.81.09 1.07 1.07 0 00.63-.54 1.12 1.12 0 00.13-.83 1 1 0 00-.51-.63zm9.11 15.23a3.15 3.15 0 01-.93-2.35 3.3 3.3 0 015.68-2.24 3.3 3.3 0 01-4.75 4.59zm3.29-3.18a1 1 0 00-.74-.33 1.13 1.13 0 00-.77.34 1.11 1.11 0 00-.36.75 1 1 0 001 1.07 1.12 1.12 0 00.8-.31 1.13 1.13 0 00.36-.76 1 1 0 00-.29-.76zM103.18 53a3.12 3.12 0 01.57-2.45 3.24 3.24 0 012.16-1.34 3.16 3.16 0 012.46.57 3.12 3.12 0 011.33 2.13 3.2 3.2 0 01-.56 2.46 3.35 3.35 0 01-4.63.77 3.17 3.17 0 01-1.33-2.14zm4.51-.76a1 1 0 00-.43-.68 1.18 1.18 0 00-1.54.26 1.06 1.06 0 00.28 1.48 1.12 1.12 0 00.81.16 1.1 1.1 0 00.73-.42 1 1 0 00.15-.79zM46.34 7L45.52.62 48 .3l.61 4.76 2.8-.36.21 1.6zm25.73-4.22l-.7 2a2 2 0 001.74 0A2.68 2.68 0 0074 3.44l2.56.89a5.2 5.2 0 01-.92 1.72 3.48 3.48 0 01-1.54.82 4.26 4.26 0 01.54 3.57l-2.77-.94c.5-1.56.06-2.42-1.13-2.87L70 8.84 67.62 8l2.1-6zm6.49 9.87l-2.18-1.17L77.69 9l-.55-4.38 2.23 1.19.14 2.43L81.6 7l2.23 1.2-4 2zm19.32 19.93l-1.2-2.17 2.44-1.36 1.93-4 1.22 2.21-1.21 2.11 2.44.1 1.22 2.21-4.39-.48zm9.44 6.95h-1.8a3.14 3.14 0 00.18-1.81c-.06-.17-.12-.47-.43-.49s-.59.08-.51 1.27a4.56 4.56 0 01-.13 1.24 1.47 1.47 0 01-.37.76 1.71 1.71 0 01-.75.48 1.82 1.82 0 01-1.73-.21 4 4 0 01-1.27-2 8.3 8.3 0 01-.53-3h2a11.75 11.75 0 00-.28 1.33c-.13.64.11 1 .36 1s.62 0 .61-1.15a7.54 7.54 0 01.1-.94 1.78 1.78 0 011.1-1.26 1.83 1.83 0 011.78.2 3.69 3.69 0 011.31 1.89 8 8 0 01.36 2.69zm-4.23 19.85l.23-1.91L110 56l-.28 2.38-3.07.75 2.81 1.47-.15 1.25-3.08.82 2.77 1.38-.28 2.41-6.11-2.9.22-1.89 3-.85zM6.45 54.8L6.6 57l-2.43 2 2.53-.16.15 2.27-6.44.42-.13-1.97 2.57-2.18-2.7.17L0 55.22zm95.73-10.1l-.47-2.63 6.29-1.15.48 2.63-2.33.42.34 1.84 2.32-.42.45 2.46L103 49l-.45-2.46 2.35-.43-.33-1.83zM13.3 29.86l-1 1.91-3.13.5 2.26 1.16-1 2-5.74-3 .9-1.75 3.32-.55L6.48 29l1.07-2.1zm23.84-20.2l-2 .92-2.74-1.52 1.09 2.3-2.06 1-2.76-5.86 1.78-.84 3 1.59-1.19-2.44 2.12-1zM19 92.54l-1.58-1.31a1.1 1.1 0 01-1.67-.11l-1.25 1.51c1.93 1.75 3.35 1.37 4.5-.09z"/><path class="cls-2" d="M16.93 90l2.82 2.34-2.28 2.75L20 97.18l2.28-2.75 2.83 2.35 3-3.62-8.16-6.77zm3.77-.39L24.77 93l-.46.55-4.06-3.38zm6.03-.86l.32-.39-2.21-1.84-.32.4-3.13-2.6-1.2 1.44 8.47 7.01 1.19-1.43-3.12-2.59z"/><path class="cls-2" d="M23.79 96.52l-1.58-1.31c-1.23 1.4-1.32 2.87.74 4.44l1.25-1.51a1.11 1.11 0 01-.41-1.62zm14.9 14.36V113h4.37c.29 0 .48.07.48.34s-.17.34-.48.34h-4v4.73h6.54v-2.21h-4.06v-.57h1.33c2.76.06 3.25-1.08 3.25-2.32 0-1.83-1-2.43-3-2.43zm16.53 0V113h4.37c.28 0 .48.07.48.34s-.17.34-.48.34h-4v4.73h6.54v-2.21h-4.06v-.57h1.33c2.76.06 3.25-1.08 3.25-2.32 0-1.83-1-2.43-3-2.43zm-5.59 0a2.92 2.92 0 00-3 2.57v2.41a2.91 2.91 0 003 2.56h1.51a2.9 2.9 0 002.94-2.56v-2.41a2.91 2.91 0 00-2.94-2.57zm-.45 4.67v-1.8a.77.77 0 01.65-.74h1.11a.78.78 0 01.65.74v1.8a.79.79 0 01-.65.76h-1.11a.75.75 0 01-.65-.76m21.5-.91a2.4 2.4 0 00.33-1.33c0-1.83-1-2.43-3-2.43h-4.43V113H68c.28 0 .48.07.48.34s-.15.32-.43.34h-2.58v1.93H68c.28 0 .42.12.43.33s-.2.35-.48.35h-4.37v2.12H68c2 0 3-.6 3-2.43a2.31 2.31 0 00-.34-1.35"/></g></g></svg>