<svg xmlns="http://www.w3.org/2000/svg" width="51.94" height="8.12"><path d="M6.12 8.12H0V0h6v1.63H2.45v1.49h3.41v1.63H2.45v1.74h3.67zm12.26 0H16.2L12 3.6v4.52H9.56V0h2.18l4.2 4.5V0h2.44zM30 2h-3v6.12h-2.41V2h-3V0H30zm11.1 6.12h-2.63l-.64-1.44a5.78 5.78 0 00-.63-1.16 1.42 1.42 0 00-.55-.47A2.19 2.19 0 0036 5h-.27v3.12h-2.49V0h4.16a3.07 3.07 0 011.66.41 2.37 2.37 0 01.92 1 2.55 2.55 0 01.29 1.11 2.08 2.08 0 01-.24 1 1.93 1.93 0 01-.5.62 5.44 5.44 0 01-.59.37 2.31 2.31 0 01.65.54 6.64 6.64 0 01.69 1.27zm-3.33-5.55a.84.84 0 00-.37-.79 2.38 2.38 0 00-1.2-.22h-.51v2h.52a2.65 2.65 0 001.23-.2.8.8 0 00.33-.79zM51.94 0l-3.19 4.4v3.72h-2.44V4.45L43.07 0h2.54l1.86 2.55L49.34 0z" fill="#fff" data-name="レイヤー 2"/></svg>