<svg id="icon_tw" xmlns="http://www.w3.org/2000/svg" width="35.636" height="28.956" viewBox="0 0 35.636 28.956">
  <path id="パス_114" data-name="パス 114" d="M35.9,6.54a14.686,14.686,0,0,1-4.2,1.153,7.351,7.351,0,0,0,3.215-4.047A14.642,14.642,0,0,1,30.272,5.42a7.316,7.316,0,0,0-12.457,6.669A20.761,20.761,0,0,1,2.746,4.446,7.323,7.323,0,0,0,5.009,14.21,7.249,7.249,0,0,1,1.7,13.3v.092a7.318,7.318,0,0,0,5.864,7.17,7.247,7.247,0,0,1-1.926.256,7.157,7.157,0,0,1-1.376-.13,7.315,7.315,0,0,0,6.827,5.075,14.632,14.632,0,0,1-9.079,3.128,15.264,15.264,0,0,1-1.741-.1,20.69,20.69,0,0,0,11.206,3.28c13.447,0,20.8-11.141,20.8-20.8,0-.321-.005-.636-.022-.952A14.627,14.627,0,0,0,35.9,6.54" transform="translate(-0.266 -3.113)" fill="#fff"/>
</svg>
