<?xml version="1.0" encoding="utf-8"?>
<!-- Generator: Adobe Illustrator 21.0.0, SVG Export Plug-In . SVG Version: 6.00 Build 0)  -->
<svg version="1.1" id="レイヤー_1" xmlns="http://www.w3.org/2000/svg" xmlns:xlink="http://www.w3.org/1999/xlink" x="0px"
	 y="0px" viewBox="0 0 271.4 17.6" style="enable-background:new 0 0 271.4 17.6;" xml:space="preserve">
<style type="text/css">
	.st0{fill:#FFFFFF;}
</style>
<g>
	<g>
		<g>
			<g>
				<g>
					<path class="st0" d="M11.6,5.1v11.4H8.3V5.1H3.5v-3h13v3H11.6z"/>
					<path class="st0" d="M41.2,2.1h4.1l-6.1,6.9l6.3,7.4h-4.2l-5.9-7.3v7.3h-3.3V2.1h3.3v6.8L41.2,2.1z"/>
					<path class="st0" d="M49.3,2.1l3.2,5.8l3.2-5.8h3.8l-5.4,8.7v5.6h-3.3v-5.6l-5.4-8.7H49.3z"/>
					<path class="st0" d="M17.7,2.1v14.4h13.5V2.1H17.7z M28,13.4h-7.3V5.2H28V13.4z"/>
					<path class="st0" d="M59.9,2.1v14.4h13.5V2.1H59.9z M70.3,13.4H63V5.2h7.3V13.4z"/>
				</g>
				<g>
					<path class="st0" d="M113.1,16.5h-3.7l-1.1-3h-5.7l-1.1,3h-3.7l5.5-14.4h4.3L113.1,16.5z M105.5,5.3l-2,5.4h3.9L105.5,5.3z"/>
					<path class="st0" d="M118.3,2.2l3.2,10.4l3.2-10.4h4.8v14.4h-3.1V9.6c0-0.5,0.1-3.5,0.1-4l-3.4,11H120l-3.4-11
						c0,0.5,0.1,3.6,0.1,4v6.9h-3.1V2.2H118.3z"/>
					<path class="st0" d="M142,2.2v3h-8.3v2.7h7.9v2.9h-7.9v2.9h8.5v3h-11.8V2.2H142z"/>
					<path class="st0" d="M167.9,2.2v5.5h7V2.2h3.3v14.4h-3.3v-5.9h-7v5.9h-3.3V2.2H167.9z"/>
					<path class="st0" d="M196.7,2.2l1.6,11.1l1.6-11.1h4.3l1.6,11.1l1.6-11.1h3.4l-2.8,14.4h-4.4l-1.6-11l-1.6,11h-4.4l-2.8-14.4
						H196.7z"/>
					<path class="st0" d="M179.4,2.1v14.4h13.5V2.1H179.4z M189.8,13.4h-7.3V5.3h7.3V13.4z"/>
					<g>
						<polygon class="st0" points="97.5,7.2 97.5,2.1 84,2.1 84,16.6 97.5,16.6 97.5,11.6 97.5,8.4 94.4,8.4 90.7,8.4 90.7,11.6 
							94.4,11.6 94.4,13.4 87.1,13.4 87.1,5.3 94.4,5.3 94.4,7.2 						"/>
					</g>
					<polygon class="st0" points="163.3,5 163.3,2 151.6,2 151.6,3.4 151.6,5 151.6,7.8 151.6,9.8 151.6,10.8 160.3,10.8 
						160.3,13.5 151.6,13.5 151.6,16.5 160.3,16.5 163.3,16.5 163.3,13.5 163.3,10.8 163.3,10.1 163.3,7.8 154.5,7.8 154.5,5 					
						"/>
				</g>
			</g>
		</g>
	</g>
	<g>
		<path class="st0" d="M223.9,11.7c-0.9,0.1-1.5,0.3-1.5,1.4v0.5h9.7v3h-12.9v-2.9c0-1.4,0-4.4,3.6-4.8l4.7-0.5
			c1.1-0.1,1.6-0.3,1.6-1.5c0-1.3-0.4-1.8-3.1-1.8c-3,0-3.2,0.4-3.2,2.2h-3.2c0-3.1,0.2-5.2,6.1-5.2c3.8,0,6.6,0.3,6.6,4.6
			c0,1.9-0.5,2.8-1.1,3.4c-1.2,1-2.2,1.1-2.7,1.2L223.9,11.7z"/>
		<path class="st0" d="M240,2c5.8,0,6.6,1.4,6.6,7.5c0,5.9-1.1,7.2-6.2,7.2c-5.5,0-6.8-0.7-6.8-7.3C233.6,3.4,234.7,2,240,2z
			 M236.9,9.4c0,4.3,0.2,4.3,3.4,4.3c2.7,0,3-0.2,3-4c0-0.8,0-3.2-0.3-3.8c-0.3-0.9-1.3-0.9-3-0.9C237.1,5,236.9,5.1,236.9,9.4z"/>
		<path class="st0" d="M254.1,2.1v14.4h-3.3V5.1h-3v-3H254.1z"/>
		<path class="st0" d="M269.4,2.1v3l-6.5,11.4h-3.9l6.9-11.4h-9.3v-3H269.4z"/>
	</g>
</g>
</svg>
