<svg id="レイヤー_1" data-name="レイヤー 1" xmlns="http://www.w3.org/2000/svg" width="23" height="26" viewBox="0 0 23 26"><defs><style>.cls-1{fill:#fff;}</style></defs><title>pdf_w</title><polygon class="cls-1" points="5.86 0 0 6 0 26 7 26 9.1 23.9 2.1 23.9 2.1 6.86 6.75 2.1 20.9 2.1 20.9 23.9 15.1 23.9 13 26 23 26 23 0 5.86 0"/><path class="cls-1" d="M14.56,10.77l-1.2-1.36H9.81v8.86h4.75ZM13.3,17H11.07V10.67h1.72l.51.58Z"/><path class="cls-1" d="M4,12.82v5.45H5.36V14.18H8.75V9.41H4Zm3.49-2.15v2.25H5.36v-.1h-.1V10.67Z"/><polygon class="cls-1" points="19 10.72 19 9.46 15.64 9.46 15.64 18.27 16.9 18.27 16.9 13.85 19 13.85 19 12.59 16.9 12.59 16.9 10.72 19 10.72"/></svg>