<svg xmlns="http://www.w3.org/2000/svg" width="560" height="80" viewBox="0 0 560 80">
  <defs>
    <style>
      .cls-1 {
        fill: #fff;
      }

      .cls-2 {
        fill: #00b4dc;
      }
    </style>
  </defs>
  <g id="レイヤー_2" data-name="レイヤー 2">
    <g id="object">
      <g>
        <rect class="cls-1" width="560" height="60" rx="10"/>
        <rect class="cls-2" width="560" height="80" rx="10"/>
        <g>
          <path class="cls-1" d="M115.826,28.009,119.884,48.5l3.863-20.488h5.236L132.846,48.5,136.9,28.009h5.106L135.922,53.8h-5.793l-3.764-19.671L122.6,53.8h-5.793L110.72,28.009Z"/>
          <path class="cls-1" d="M165.769,28.009v3.8H150.157v6.9H164v3.8H150.157V50h15.972v3.8H145.247V28.009Z"/>
          <path class="cls-1" d="M183.866,28.009c5.3,0,7.855,3.076,7.855,6.611a5.553,5.553,0,0,1-3.862,5.433,6.274,6.274,0,0,1,4.877,6.383c0,3.763-2.618,7.364-8.281,7.364H169.988V28.009Zm-9,3.8v7h7.921c3.437,0,3.927-2.456,3.927-3.6,0-3.207-3.076-3.4-3.927-3.4Zm0,10.506V50h8.085c2.095,0,4.778-.884,4.778-3.928s-2.651-3.763-4.811-3.763Z"/>
          <path class="cls-1" d="M227.263,44.177v2.684h-2.094v5.433H221.11V51.182h-6.775v2.225c0,2.226-1.179,2.88-5.073,2.88-.72,0-1.146-.032-1.6-.065a11.406,11.406,0,0,0-1.309-3.568,19.983,19.983,0,0,0,2.847.262c.557,0,1.113-.065,1.113-.949v-.819H199.672V48.235h10.637V46.861H197.38V44.177h12.929V42.9H199.672V40.217h10.637V39.071h-8.477V32.427h8.477V31.281h-12.9V28.336h12.9V26.307l4.288.2a.46.46,0,0,1,.49.426c0,.261-.392.458-.752.589v.818h12.83v2.945h-12.83v1.146h8.412v6.644h-8.412v1.146h10.834v3.96Zm-16.954-7.789V35.013H205.6v1.375Zm4.026-1.375v1.375h4.713V35.013Zm6.775,9.164V42.9h-6.775v1.277Zm0,4.058V46.861h-6.775v1.374Z"/>
          <path class="cls-1" d="M247.029,30.954a29.043,29.043,0,0,0,2.913-4.844l4.222,1.146c.2.065.36.163.36.36,0,.524-.785.458-.949.458-.622,1.015-1.211,1.964-1.865,2.88h8.182v3.47H229.944v-3.47H237.9a19.275,19.275,0,0,0-2.226-3.272l3.731-1.67a24.112,24.112,0,0,1,2.782,4.255l-1.735.687ZM235.836,48.988v7.168h-3.83V35.831h12.5V52.818c0,2.619-.982,3.273-5.433,3.338a8.524,8.524,0,0,0-1.407-3.96,18.4,18.4,0,0,0,1.9.163c.753,0,1.179-.032,1.179-1.276V48.988Zm4.909-8.018V38.94h-4.909v2.03Zm0,5.073V43.915h-4.909v2.128Zm10.212-9.885c.2,0,.556.1.556.361,0,.163-.327.392-.556.556V50.3h-3.993v-14.3Zm6.971-.72c.229,0,.59.066.59.393,0,.23-.066.262-.753.589V52.262c0,3.534-1.833,3.96-6.317,3.894a9.691,9.691,0,0,0-.982-4.189c.491.065,1.767.2,2.258.2.524,0,1.08,0,1.08-1.178V35.209Z"/>
          <path class="cls-1" d="M267.646,48.825v-8.15a21.052,21.052,0,0,1-3.207,2.259,13.26,13.26,0,0,0-2.783-3.044,28.978,28.978,0,0,0,5.565-3.961,17.188,17.188,0,0,0-3.274-2.585l2.619-2.685a21.373,21.373,0,0,1,3.338,2.554,11.937,11.937,0,0,0,2.128-2.913H265V26.994h11.292l1.342,1.407a28.9,28.9,0,0,1-3.8,6.186h8.314a23.365,23.365,0,0,1-4.55-7.168l3.5-1.342a17.423,17.423,0,0,0,1.931,3.47,23.574,23.574,0,0,0,2.586-3.109l2.88,1.833c.327.2.393.293.393.425,0,.36-.491.393-.884.393a35.859,35.859,0,0,1-2.782,3.141c.164.2.327.361,1.015,1.081a35.09,35.09,0,0,0,3.4-3.96l2.618,1.767c.36.229.524.393.524.589,0,.393-.327.426-.949.426a24.008,24.008,0,0,1-3.208,3.338,22.21,22.21,0,0,0,5.106,3.436,13.537,13.537,0,0,0-2.52,3.274,29.745,29.745,0,0,1-3.568-2.357v9H284.8l.623.1c.163.033.458.327.458.491,0,.36-.589.458-.851.491-.36.949-.786,1.767-1.047,2.324h8.575V55.6H262.769V52.229h8.968c-.392-1.047-1.014-2.324-1.276-2.848l1.931-.556ZM272.2,36.519c-.687.687-1.636,1.7-3.305,3.141h18.558a37.359,37.359,0,0,1-3.895-3.567v2.029H272.2Zm-.588,6.251v2.88h12.109V42.77Zm2.978,6.055a21.6,21.6,0,0,1,1.309,3.076c-.458.1-.916.164-1.538.328h5.269a21.258,21.258,0,0,0,1.44-3.4Z"/>
          <path class="cls-1" d="M306.952,37.893H304.17V40.25h3.6v3.469h-3.6v5.63a21.026,21.026,0,0,0,1.538-4.713l3.338.654c.131.032.361.065.361.36,0,.36-.459.425-.884.458A29.713,29.713,0,0,1,307.05,50.1a14,14,0,0,0-2.88-.557v1.571c2.553-.459,3.24-.622,3.993-.818a12.29,12.29,0,0,0-.393,3.436c-4.517,1.113-8.477,1.735-10.7,2.095-.261.785-.294.851-.622.851-.294,0-.359-.294-.392-.458l-.688-3.829a51.684,51.684,0,0,0,5.139-.655V43.719h-4.647V40.25H300.5V37.893h-2.88V36.42l-.3.262a10.641,10.641,0,0,0-2.913-2.716,16.287,16.287,0,0,0,6.448-7.627l3.829.818c.229.066.393.1.393.327,0,.066,0,.394-.458.525a21.835,21.835,0,0,0,4.681,4.909,11.813,11.813,0,0,0-2.357,2.324ZM298.7,45.028a27.924,27.924,0,0,1,1.7,5.074,14.489,14.489,0,0,0-3.175,1.08,31.536,31.536,0,0,0-1.669-5.139Zm7.1-10.376a17.531,17.531,0,0,1-3.273-3.894,32.957,32.957,0,0,1-3.076,3.894Zm2.488,14.14a42.164,42.164,0,0,0,6.873-2.356V40.577H308.49V37.206h10.736V35.34H310.52V32.1h8.706V30.365H309.112V26.9h14.041v10.31h2.357v3.371h-6.742v3.338a9.137,9.137,0,0,0,.621.949,15.459,15.459,0,0,0,2.291-3.894l3.437,1.6c.164.066.393.164.393.458,0,.491-.524.459-.851.459a37.172,37.172,0,0,1-2.847,4.255,24.108,24.108,0,0,0,4.385,3.469,11.918,11.918,0,0,0-2.291,3.4,31.033,31.033,0,0,1-5.138-5.2v3.862c0,3.142-1.964,3.142-5.663,3.142a11.845,11.845,0,0,0-1.571-3.862c.72.1,2.16.229,2.618.229.982,0,1.015-.622,1.015-1.08V49.774a38.589,38.589,0,0,1-4.746,2.357c-.065.556-.1,1.047-.589,1.047-.2,0-.36-.2-.425-.393Zm3.666-7.757a31.61,31.61,0,0,1,2.421,4.19,13.366,13.366,0,0,0-2.978,1.93,25.262,25.262,0,0,0-2.422-4.32Z"/>
          <path class="cls-1" d="M336.144,28.762c.262.1.393.228.393.458,0,.359-.491.458-.917.523a47.245,47.245,0,0,0-1.865,12.994,25.866,25.866,0,0,0,.229,3.863c.294-.525,1.5-2.848,1.768-3.307a11.748,11.748,0,0,0,2.094,2.782,16.23,16.23,0,0,0-2.717,8.51l-3.731.721a45.529,45.529,0,0,1-1.7-12.929,62.111,62.111,0,0,1,1.9-15.056Zm15.678-.721c.36.065.458.23.458.426,0,.327-.458.426-.785.458a37.982,37.982,0,0,0-.328,4.288,31.737,31.737,0,0,0,5.139-1.276v4.221c-2.651.655-4.288.917-5.237,1.08a64.9,64.9,0,0,0,.491,8.216,20.426,20.426,0,0,1,6.513,3.534c-.491.852-1.7,3.371-1.931,3.9a13.387,13.387,0,0,0-4.157-2.816c0,4.485-5.04,4.779-6.48,4.779-4.746,0-6.415-2.912-6.415-5.138,0-3.273,3.207-5.073,6.742-5.073a13.71,13.71,0,0,1,1.375.1c-.1-1.276-.328-4.058-.36-6.938-2,.163-3.666.228-4.648.228-.949,0-1.571-.032-2.258-.065V33.572A36.068,36.068,0,0,0,344,33.8c1.342,0,2.226-.066,2.815-.1,0-.294.033-5.727.033-6.48Zm-6.415,20.031c-2.029,0-2.652.916-2.652,1.637,0,.916.95,1.57,2.291,1.57.23,0,2.75-.032,2.75-2.061a6.04,6.04,0,0,0-.065-.721A5.335,5.335,0,0,0,345.407,48.072Z"/>
          <path class="cls-1" d="M371.358,43.556c-.49.424-3.4,2.945-3.4,4.582a1.6,1.6,0,0,0,.818,1.472c1.6.819,5.106.95,6.971.95a41.564,41.564,0,0,0,12.47-1.637,29.055,29.055,0,0,0,.917,4.615,67.356,67.356,0,0,1-13.452,1.309c-7.364,0-12.274-1.374-12.274-6.218,0-1.474.491-3.765,4.91-7.528Zm15.58-11.75a39.571,39.571,0,0,0-10.474,6.742c-.392-.459-2.16-2.455-2.52-2.848.262-.164,2.782-2.1,3.47-2.749-1.735.131-4.157.262-7.07.262-2.422,0-3.437-.1-4.255-.164l-.262-4.582a63.478,63.478,0,0,0,9.328.589,51.461,51.461,0,0,0,9.525-.72Z"/>
          <path class="cls-1" d="M409,27.256c.425.1.655.228.655.491,0,.327-.393.425-.753.458-.164.524-.916,2.88-1.08,3.338a53.374,53.374,0,0,0,11.194-2.65,12.063,12.063,0,0,0,.85,4.124,57.08,57.08,0,0,1-13.484,2.814c-.164.458-.753,2.062-2.161,5.5a18.944,18.944,0,0,1,9.165-2.586c8.379,0,8.9,6.023,8.9,7.527,0,9.067-12.962,9.558-16.955,9.558a28.127,28.127,0,0,1-3.436-.164,17.583,17.583,0,0,0-1.048-4.156,48.751,48.751,0,0,0,4.943.3c4.222,0,11.881-.753,11.881-5.663,0-2.684-1.964-3.764-4.55-3.764-3.8,0-8.444,2.062-11.881,5.727l-3.927-2a41.894,41.894,0,0,0,4.647-10.015,59.247,59.247,0,0,1-6.808-.164l-.032-4.549A39.574,39.574,0,0,0,403.2,32a40.787,40.787,0,0,0,1.277-5.925Z"/>
          <path class="cls-1" d="M437.925,33.409c.23.066.557.2.557.49,0,.426-.458.459-.687.459a30.5,30.5,0,0,0-2.259,6.84,16.236,16.236,0,0,1,10.114-3.73c5.466,0,8.281,3.829,8.281,7.822,0,6.382-6.317,10.277-16.725,10.277-1.015,0-1.833-.033-2.455-.065a12.66,12.66,0,0,0-1.277-4.648,24.916,24.916,0,0,0,4.517.393c2.062,0,11.357-.3,11.357-5.925,0-1.734-.982-3.926-4.32-3.926-5.662,0-9.688,4.483-10.9,5.825l-3.993-1.44A79.52,79.52,0,0,1,433.441,32Zm-1.309-7.233a33.666,33.666,0,0,1,11.26,3.763A35.317,35.317,0,0,0,445.388,34a30.359,30.359,0,0,0-10.244-4.091Z"/>
        </g>
        <polygon class="cls-1" points="526.909 50.909 526.909 29.091 540 40 526.909 50.909"/>
      </g>
    </g>
  </g>
</svg>
