<svg xmlns="http://www.w3.org/2000/svg" width="469.382" height="90" viewBox="0 0 469.382 90">
  <defs>
    <style>
      .cls-1 {
        fill: #00b4dc;
      }
    </style>
  </defs>
  <g id="レイヤー_2" data-name="レイヤー 2">
    <g id="object">
      <rect class="cls-1" width="10" height="90"/>
      <path class="cls-1" d="M42.026,11.435c-.036-1.224-.036-1.548-.072-2.376H34.071V3.768h13.75c-.036.935-.252,5.075-.252,5.9,0,10.942,5.831,18.573,13.21,23.109A14.332,14.332,0,0,0,56.064,36.7c-4.463-3.1-10.978-9.862-13.03-18.141-1.188,4.031-4,11.482-13.607,18.177A15.506,15.506,0,0,0,25,32.708c11.051-7.091,12.959-14.723,13.93-21.85Z"/>
      <path class="cls-1" d="M77.918,26.373a25.164,25.164,0,0,1-4.248,4.356,9.043,9.043,0,0,0-3.383-2.413c.648-.5,1.188-.9,2.016-1.62-2.232.972-4.968,2.016-7.883,2.989,0,.431-.145.935-.54.935-.36,0-.5-.468-.576-.828L62.08,24.717a29.258,29.258,0,0,0,4.068-.756V15.79H62.44V11.11h3.708V3.623l5.327.288c.432.036.756.072.756.4,0,.252-.216.431-.756.683V11.11h3.2v4.68h-3.2v6.551c.863-.36,1.4-.575,2.267-.972H73.49V17.733H95.3v3.636H81.374l-.684,1.152H95.052c0,3.635-.108,10.834-2.448,12.67-1.368,1.08-3.671,1.188-5.939,1.188a10.76,10.76,0,0,0-.972-3.887,27.674,27.674,0,0,1-4.283,4.5c-.936-1.008-1.512-1.3-3.816-2.3a25.078,25.078,0,0,0,7.595-8.315h-1.62A25.122,25.122,0,0,1,74.1,35.911a9.456,9.456,0,0,0-3.168-2.879,21.983,21.983,0,0,0,8.387-6.659Zm-3.276-5a15.78,15.78,0,0,0-.252,3.2,23.36,23.36,0,0,0,2.2-3.2Zm18.142-4.823H75.974V3.875h16.81Zm-4.859-7.7V7.619H80.834V8.843Zm-7.091,2.88v1.223h7.091V11.723Zm8.495,14.65a39.281,39.281,0,0,1-2.844,5c.432.036.828.072,1.26.072.719,0,1.367-.072,1.619-.9a18.29,18.29,0,0,0,.648-4.175Z"/>
      <path class="cls-1" d="M107.8,6.215c.287.108.468.252.468.5,0,.432-.684.5-1.008.54a49.68,49.68,0,0,0-2.16,13.858,25.5,25.5,0,0,0,.252,3.6c.468-.684,1.224-1.836,1.692-2.556a15.081,15.081,0,0,0,2.591,3.564,15.982,15.982,0,0,0-2.987,8.819l-4.824.9a50.784,50.784,0,0,1-1.943-14.5,64.81,64.81,0,0,1,2.16-16.487Zm17.1-.792c.18.036.467.072.467.4,0,.432-.5.54-.827.577a39.779,39.779,0,0,0-.36,4.319A32.651,32.651,0,0,0,129.5,9.383v5.435c-.828.216-2.484.612-5.471,1.152a58.369,58.369,0,0,0,.575,8.279,20.091,20.091,0,0,1,6.84,3.707C130.872,29,129.792,31.34,129,33.032a12.73,12.73,0,0,0-3.851-2.736c-.145,4.607-4.752,5.147-7.02,5.147-5.4,0-8.1-2.951-8.1-6.3,0-4.285,4.248-5.9,8.927-5.8-.287-4.1-.324-4.572-.395-6.66-2.052.181-3.528.181-4.14.181a26.62,26.62,0,0,1-2.664-.108V11.11a37.949,37.949,0,0,0,6.767.252c0-1.511,0-4.679.037-7.018ZM117.445,27.74c-.792,0-2.519.252-2.519,1.368,0,.936,1.188,1.332,2.34,1.332.287,0,2.447,0,2.447-1.763a.992.992,0,0,0-.072-.469A5.1,5.1,0,0,0,117.445,27.74Z"/>
      <path class="cls-1" d="M167.484,22.809v3.383h-1.8v5.976h-5.327V31.016h-6.624v2.3c0,1.836-.467,3.1-5.831,3.1-.72,0-1.44-.036-1.908-.071a13.524,13.524,0,0,0-1.691-4.5,28.49,28.49,0,0,0,3.059.288c1.044,0,1.044-.361,1.044-1.116H137.175v-3.6h11.231V26.192H134.692V22.809h13.714V21.657H137.175V18.489h11.231V17.481h-9.143V10.175h9.143V9.167H134.692V5.388h13.714V3.407l5.579.216a.493.493,0,0,1,.54.469c0,.323-.215.4-.792.683v.613H167.34V9.167H153.733v1.008h9v7.306h-9v1.008h11.951v4.32Zm-19.078-8.351v-1.4h-4.391v1.4Zm5.327-1.4v1.4h4.356v-1.4Zm6.624,9.754V21.657h-6.624v1.152Zm0,4.607V26.192h-6.624v1.224Z"/>
      <path class="cls-1" d="M188.978,8.267a27.32,27.32,0,0,0,3.095-5.076l5.4,1.369c.252.071.5.179.5.431,0,.4-.5.576-1.044.5-.936,1.476-1.3,2.088-1.8,2.772h8.243v4.5H170.548v-4.5h7.919a16.563,16.563,0,0,0-2.052-3.06l4.859-2.195a24.028,24.028,0,0,1,2.916,4.5l-1.944.756Zm-11.555,20.3v7.776h-5.039V13.954H186.71V32.815c0,2.953-1.548,3.384-6.3,3.529a10.387,10.387,0,0,0-1.836-5.112c.54.036,1.62.18,2.159.18.685,0,1.081-.072,1.081-1.152V28.568Zm4.392-9.142V17.842h-4.392v1.584Zm0,5.363v-1.62h-4.392v1.62ZM194.089,14.53c.324,0,.54.108.54.36,0,.18-.216.4-.54.612V29.828h-5.184V14.314Zm7.595-.756c.324,0,.648.072.648.4,0,.252-.4.468-.864.72V32.06c0,1.332,0,2.484-1.548,3.492-1.295.863-2.843.827-5.831.792a13.5,13.5,0,0,0-1.188-5.4c.612.072,1.944.252,2.484.252.9,0,.9-.576.9-1.008V13.522Z"/>
      <path class="cls-1" d="M211.7,28.425V20.037a20.23,20.23,0,0,1-2.916,1.981,17.847,17.847,0,0,0-3.563-4,25.081,25.081,0,0,0,4.572-3.131,26.016,26.016,0,0,0-2.952-2.3l3.456-3.527a24.215,24.215,0,0,1,3.239,2.267,10.483,10.483,0,0,0,2.159-2.987h-6.659V4.056H221.45l1.62,1.727a29.047,29.047,0,0,1-3.456,6.119h7.379a23.512,23.512,0,0,1-4.247-7.09l4.571-1.728a21.8,21.8,0,0,0,1.548,2.987,18.327,18.327,0,0,0,2.2-2.735l3.779,2.375c.144.072.4.252.4.433,0,.431-.611.467-.972.467-1.187,1.512-2.159,2.627-2.591,3.06.4.468.684.756.972,1.044a45.094,45.094,0,0,0,3.275-3.888L239.268,9.1c.288.216.648.431.648.683,0,.469-.54.5-1.08.54a28.007,28.007,0,0,1-3.1,3.241,24.934,24.934,0,0,0,5.075,3.347c-1.475,1.079-3.2,4.1-3.311,4.283a39.407,39.407,0,0,1-3.312-2.376v9.612H231.6a.529.529,0,0,1,.4.5c0,.359-.36.575-.756.611a13.753,13.753,0,0,1-.756,1.98H239.3v4.355H206.62V31.52H215.8c-.144-.432-.684-1.835-1.008-2.627l1.764-.468Zm5.364-13.355c-.936,1.008-1.3,1.4-2.916,2.915h19.006a33.433,33.433,0,0,1-3.744-3.382v1.871H217.059Zm-.181,6.948v2.3h12.131v-2.3Zm3.384,6.407c.324.791.576,1.4,1.008,2.735l-1.3.36h4.86a27.377,27.377,0,0,0,1.08-3.095Z"/>
      <path class="cls-1" d="M255.182,16.51h-2.627v1.872h3.6v4.571h-3.6v4.9a21.64,21.64,0,0,0,1.26-4.284l4.1.828c.216.036.54.108.54.467,0,.433-.54.5-1.044.54-.144.54-.216.721-.72,2.233a42.435,42.435,0,0,0,7.163-2.556v-5.9H261.3a35.942,35.942,0,0,1,2.52,4.607,34.143,34.143,0,0,0-3.887,2.556,29.979,29.979,0,0,0-2.592-4.9l3.672-2.267h-4.1V14.926h11.339v-1.44h-9.107V9.635h9.107V8.267H257.414V3.875H273.4V14.926h2.2v4.248h-4.284l4,1.943a.6.6,0,0,1,.4.5c0,.36-.252.432-.936.54a32.7,32.7,0,0,1-2.916,4.283,26.688,26.688,0,0,0,4.5,3.636,17.5,17.5,0,0,0-2.952,4.571,30.929,30.929,0,0,1-4.823-4.9v3.059c0,3.564-2.34,3.564-6.624,3.564a16.469,16.469,0,0,0-1.835-4.859c-.361.18-.468.216-.972.432-.036.684-.108,1.3-.72,1.3a.585.585,0,0,1-.432-.4l-1.3-5.184a17.358,17.358,0,0,1-.756,1.836,14.163,14.163,0,0,0-3.383-.827v1.655c2.627-.5,3.383-.684,4.067-.864a14.58,14.58,0,0,0-.468,4.5c-4.571,1.008-8.279,1.62-11.77,2.124-.072.539-.18,1.008-.684,1.008-.324,0-.4-.288-.432-.54l-.828-4.968c1.476-.072,4-.36,5.327-.5V29.433a23.435,23.435,0,0,0-3.779,1.3,34.028,34.028,0,0,0-1.836-5.508l4.067-1.3a40.835,40.835,0,0,1,1.548,4.391V22.953h-4.715V18.382h4.715V16.51H244.96V15.142a12.854,12.854,0,0,0-3.78-3.564,16.5,16.5,0,0,0,6.911-8.026L253.2,4.56c.4.071.539.179.539.4,0,.4-.395.612-.827.649a27.1,27.1,0,0,0,5.219,5,14.939,14.939,0,0,0-2.952,2.34ZM253.059,12.3a17.207,17.207,0,0,1-2.7-3.24c-.828,1.116-1.4,1.872-2.556,3.24Zm10.8,17.349c-.9.5-2.231,1.224-3.312,1.692.325.036,2.052.216,2.269.216,1.043,0,1.043-.72,1.043-1.152Zm4.716-7.451c.072.108.18.324.252.468a20.211,20.211,0,0,0,1.907-3.491h-2.159Z"/>
      <path class="cls-1" d="M295.07,4.955c.648.145.864.216.864.612,0,.468-.468.468-.936.5-.18.72-1.008,3.743-1.188,4.535,6.371-.252,8.531,3.708,8.531,10.691,0,.576,0,8.279-2.988,12.058-.791,1.008-2.3,2.376-5.8,2.376A9.364,9.364,0,0,1,290.5,35.3a16.881,16.881,0,0,0-.757-5.867,14.1,14.1,0,0,0,3.78.719c2.952,0,3.348-6.479,3.348-10.079,0-1.439-.108-4.067-3.384-4.067-.36,0-.72.036-1.08.072A74.841,74.841,0,0,1,284.2,35.552a17.693,17.693,0,0,0-5.183-2.88,64.2,64.2,0,0,0,7.595-15.334,28.561,28.561,0,0,0-5.111,1.943L279.808,13.2a82.384,82.384,0,0,0,8.315-1.691,38.238,38.238,0,0,0,1.08-8.028Zm9.251,4.356a44.608,44.608,0,0,1,5.831,6.947c1.332,2.052,1.727,3.239,1.727,4.5,0,2.7-3.131,3.851-5.291,4.68a38.708,38.708,0,0,0-2.735-4.788c1.368-.431,1.836-.576,1.836-1.368,0-1.727-3.528-6.262-5.076-7.919Zm2.015-4.463a23.348,23.348,0,0,1,2.952,3.563c-.828.575-1.008.72-2.628,1.907-.36-.467-2.159-2.843-2.951-3.671Zm3.6-2.233a20.021,20.021,0,0,1,3.024,3.672c-.792.576-2.088,1.476-2.916,2.052a16.045,16.045,0,0,0-2.88-3.96Z"/>
      <path class="cls-1" d="M322.575,13.918c.54.145,1.115.288,1.115.72,0,.468-.359.576-1.187.792-.648,2.771-1.836,7.163-4.1,10.4a13.5,13.5,0,0,0-5.039-1.872,27.708,27.708,0,0,0,4.355-11.231Zm22.317-7.451c.468.18.864.36.864.648,0,.5-.828.576-1.26.612-5.183,14.218-12.31,19.078-14.866,20.841V29.5c0,1.44.36,1.764,2.016,1.764h3.779c1.872,0,2.412-.252,2.952-4.427a16.094,16.094,0,0,0,4.679,2.663c-1.223,6.371-2.988,6.516-6.839,6.516h-7.595c-3.959,0-4.391-2.665-4.536-4.284a53.419,53.419,0,0,1-6.011,2.411,11.44,11.44,0,0,0-3.743-4.895,35.744,35.744,0,0,0,9.683-3.348V10.822l5.939.5c.324.036.756.109.756.54,0,.4-.432.613-1.08.828v9.359c5.255-4.535,8.459-10.87,10.223-17.566Zm-17.6-3.635a34.887,34.887,0,0,1,8.6,4.715,16.021,16.021,0,0,0-2.844,4.464,39.9,39.9,0,0,0-8.35-5.184Zm15.3,14.649a39.756,39.756,0,0,1,5.9,8.64,18.773,18.773,0,0,0-4.5,3.167,26.253,26.253,0,0,0-5.327-8.675Z"/>
      <path class="cls-1" d="M350.692,25.509V21.3h9.971c.323-.5.648-.972,1.152-1.835h-8.531V9.707h7.558V8.267H350.764V4.235h32.5V8.267H373.081v1.44h7.631v9.755H368.33a.447.447,0,0,1,.144.287c0,.5-.684.576-.9.612-.252.4-.36.577-.576.936h16.2v4.212h-5.58a.638.638,0,0,1,.144.324c0,.432-.431.575-1.475.647a25.123,25.123,0,0,1-2.448,2.665,45.092,45.092,0,0,1,8.243,3.167A15.577,15.577,0,0,0,378.7,36.7a43.518,43.518,0,0,0-9.143-4.355c-5.363,2.916-11.482,3.779-16.269,4.031a9.444,9.444,0,0,0-2.412-4.643,38.73,38.73,0,0,0,12.346-1.4c-.648-.18-1.3-.324-2.951-.72-.216.18-.5.5-.828.792a19.261,19.261,0,0,0-5.22-2.088,32.407,32.407,0,0,0,3.06-2.807Zm10.15-12.023h-2.555v2.268h2.555Zm3.1,12.023c-.288.324-.684.792-1.044,1.223,1.188.18,4.536.792,5.544,1.008a11.584,11.584,0,0,0,2.232-2.231Zm4.32-17.242H365.63v1.44h2.628Zm-2.628,7.487h2.628V13.486H365.63Zm7.451,0h2.628V13.486h-2.628Z"/>
      <path class="cls-1" d="M418.764,10.03c-8.891-.143-16.594,7.848-16.594,13.679,0,4.176,5.291,6.228,10.187,6.335a48.5,48.5,0,0,0-2.7,6.552c-2.916-.792-13.246-3.672-13.246-12.275,0-6.659,5.147-11.447,6.623-12.383a98.243,98.243,0,0,0-14.9,2.268L387.3,7.439a116.637,116.637,0,0,0,16.018-.828,86.5,86.5,0,0,0,14.434-2.628Zm-5.975,5.112a22.411,22.411,0,0,1,3.347,3.851c-1.008.721-1.511,1.116-2.772,2.16a29,29,0,0,0-3.2-4.067Zm3.779-2.556a22.843,22.843,0,0,1,3.2,3.78c-.9.684-1.512,1.224-2.628,2.232a26.6,26.6,0,0,0-3.2-4.068Z"/>
      <path class="cls-1" d="M442.814,4.02c.575.072.9.107.9.4,0,.4-.432.54-.72.612-.072.648-.108,1.08-.179,2.52,10.15-.432,11.266-.468,11.95-.54-.036.756-.108,4.319.036,5.8-6.515-.324-9.251-.324-11.879-.288a29.254,29.254,0,0,0,.036,4c2.088,2.555,2.088,6.407,2.088,6.911a17.015,17.015,0,0,1-8.351,13.894,24.169,24.169,0,0,0-5.255-3.708c1.08-.431,5.327-2.231,6.623-5.182a4.035,4.035,0,0,1-2.844.863,4.811,4.811,0,0,1-3.887-1.62,9.033,9.033,0,0,1-1.548-5.327c0-7.919,6.767-7.667,7.523-7.559.036-1.152.036-1.475.036-2.015a97.526,97.526,0,0,0-14.362,1.871l-.4-6.083c.828.036,2.195-.036,14.614-.756a37.939,37.939,0,0,0-.5-4.571Zm-8.315,18c0,2.375,1.187,3.023,1.835,3.023,1.116,0,1.764-1.656,1.764-3.456,0-.828-.18-2.231-1.62-2.231C435.29,19.354,434.5,20.541,434.5,22.018Z"/>
      <path class="cls-1" d="M469.382,30.656a5.075,5.075,0,1,1-5.075-5.075A5.1,5.1,0,0,1,469.382,30.656Zm-7.919,0a2.844,2.844,0,1,0,2.844-2.843A2.827,2.827,0,0,0,461.463,30.656Z"/>
      <path class="cls-1" d="M41.088,53.567a21.671,21.671,0,0,0,0,28.869l-3.2,2.771a25.66,25.66,0,0,1,0-34.411Z"/>
      <path class="cls-1" d="M72.229,75.345H45.952v-4.14h3.455V66.777H44.476V62.638h4.931V60.154c-.756.72-1.152,1.044-1.655,1.476a15.937,15.937,0,0,0-4.572-2.484A26.567,26.567,0,0,0,50.451,50.9L55.6,52.6c.179.071.36.179.36.4,0,.468-.577.576-.829.649a5.419,5.419,0,0,1-.359.467H75.936V58.57H72.66v4.068h4.86v4.139H72.66v4.428H76.4v4.14h-4.14a37.744,37.744,0,0,1,5.724,6.623,36,36,0,0,0-4.5,2.88,29.281,29.281,0,0,0-5.147-6.768ZM53.475,77.576c.324.18.611.324.611.649,0,.4-.251.431-.9.539a35.324,35.324,0,0,1-4.68,6.407,11.647,11.647,0,0,0-4.427-2.879,19.169,19.169,0,0,0,5.363-6.731Zm.18-14.938h2.087V58.57H53.655Zm0,8.567h2.087V66.777H53.655Zm5.183,5.148a23.874,23.874,0,0,1,2.3,7.054,32.713,32.713,0,0,0-5.256,1.405A28.918,28.918,0,0,0,54.2,77.576Zm1.116-13.715h2.088V58.57H59.954Zm0,8.567h2.088V66.777H59.954Zm6.263,4.859a25.431,25.431,0,0,1,2.88,6.7,33.825,33.825,0,0,0-4.9,1.655,41.485,41.485,0,0,0-2.627-7.055Zm.036-17.494v4.068h2.088V58.57Zm0,8.207v4.428h2.088V66.777Z"/>
      <path class="cls-1" d="M91.49,84.344h-5V76.532a22.622,22.622,0,0,1-2.808,3.6,13.869,13.869,0,0,0-4.247-2.987,22.186,22.186,0,0,0,6.623-10.007H80.584V62.494h5.9V59.866a22.26,22.26,0,0,0-4.1,1.872A24.31,24.31,0,0,0,80.3,55.367l4-1.44a33.783,33.783,0,0,1,2.195,5.508V51.228l4.9.288c.469.036,1.008.072,1.008.576,0,.431-.575.683-.9.791v9.611h4.932v4.644H91.994a21.237,21.237,0,0,0,4.644,5.111A11.684,11.684,0,0,0,94.01,75.7a27,27,0,0,1-2.52-2.34Zm6.372-29.517c.324.072.72.216.72.468,0,.288-.468.54-.792.72a46.12,46.12,0,0,1-1.98,5.615,10.856,10.856,0,0,0-3.959-1.4,56.22,56.22,0,0,0,1.835-6.516Zm15.226,14.435.864,4.39-3.6.937v9.682h-5.111V75.956l-8.6,2.3-.828-4.608,9.431-2.411v-12.6A17.068,17.068,0,0,0,102.4,61.63a32.186,32.186,0,0,0-4.463-4.392l2.987-3.419a28.378,28.378,0,0,1,4.32,4.1V51.336l5.075.432c.288.036.792.072.792.467,0,.288-.4.54-.756.756V69.945Zm-12.635-6.8a29.916,29.916,0,0,1,4.608,5c-.9.9-1.872,1.943-3.132,3.311A27.375,27.375,0,0,0,97.5,65.806Z"/>
      <path class="cls-1" d="M120.111,50.8a25.66,25.66,0,0,1,0,34.411l-3.167-2.771a21.671,21.671,0,0,0,0-28.869Z"/>
    </g>
  </g>
</svg>
