<svg xmlns="http://www.w3.org/2000/svg" viewBox="0 0 204.24 40"><defs><style>.a9c5987b-f5ca-4352-ae54-c17c457e2e98{fill:#00b4dc;}</style></defs><title>ttl_entrance</title><g id="ad0248b6-cb27-41d5-90ec-18133a7c1490" data-name="レイヤー 2"><g id="a9af022f-66e6-4f7a-858d-1fde43d160a7" data-name="object"><rect class="a9c5987b-f5ca-4352-ae54-c17c457e2e98" width="10" height="40"/><path class="a9c5987b-f5ca-4352-ae54-c17c457e2e98" d="M38.14,22.74c-1,.86-2.81,2.73-2.81,3.92,0,2.59,4.93,2.59,6.44,2.59a50.06,50.06,0,0,0,14.44-2.16,27.25,27.25,0,0,0,.93,6.12,54.7,54.7,0,0,1-14.07,1.66c-5.62,0-7.85-.61-9.61-1.33-1.15-.47-4.57-2.16-4.57-5.8s3.74-7.09,5.22-8.42ZM53.26,10.89c-3.35,1.34-7.09,3.57-9.07,5.87-1.3-1.11-2.67-2.27-3.78-3.09,1.33-1.23,1.65-1.48,2.7-2.34-2.24.18-8.28.5-11.34.43l-.29-6a72.51,72.51,0,0,0,9,.46,71,71,0,0,0,10-.82Zm1.58-5.61a26.27,26.27,0,0,1,3.28,3.78A14.66,14.66,0,0,0,56,11.65a40.22,40.22,0,0,0-3.45-4Zm2.77-3.06A37.54,37.54,0,0,1,61,5.75,14.07,14.07,0,0,0,58.69,8.2a28.69,28.69,0,0,0-3.13-3.53Z"/><path class="a9c5987b-f5ca-4352-ae54-c17c457e2e98" d="M78,11.43c0-1.22,0-1.54-.08-2.37H70.07V3.77H83.82c0,.93-.25,5.07-.25,5.9,0,10.94,5.83,18.57,13.21,23.11a14.39,14.39,0,0,0-4.72,3.92c-4.46-3.09-11-9.86-13-18.14-1.18,4-4,11.48-13.6,18.18a15.65,15.65,0,0,0-4.43-4c11-7.09,13-14.72,13.93-21.85Z"/><path class="a9c5987b-f5ca-4352-ae54-c17c457e2e98" d="M113.92,26.37a25.31,25.31,0,0,1-4.25,4.36,8.92,8.92,0,0,0-3.38-2.41c.64-.51,1.18-.9,2-1.62-2.23,1-5,2-7.88,3,0,.44-.14.94-.54.94s-.5-.47-.58-.83l-1.22-5.07a31.34,31.34,0,0,0,4.07-.76V15.79H98.44V11.11h3.71V3.62l5.32.29c.44,0,.76.07.76.4s-.22.43-.76.68v6.12h3.21v4.68h-3.21v6.55c.87-.36,1.41-.57,2.27-1h-.25V17.73H131.3v3.64H117.37l-.68,1.15h14.36c0,3.64-.11,10.84-2.45,12.67-1.36,1.08-3.67,1.19-5.94,1.19a10.63,10.63,0,0,0-1-3.89,27.09,27.09,0,0,1-4.28,4.5c-.94-1-1.51-1.29-3.82-2.3a25,25,0,0,0,7.6-8.32h-1.62a25.1,25.1,0,0,1-9.47,9.54A9.53,9.53,0,0,0,106.93,33a21.84,21.84,0,0,0,8.39-6.66Zm-3.28-5a15.78,15.78,0,0,0-.25,3.2,23.78,23.78,0,0,0,2.2-3.2Zm18.14-4.82H112V3.88h16.81Zm-4.86-7.71V7.62h-7.09V8.84Zm-7.09,2.88V13h7.09V11.72Zm8.5,14.65a39.4,39.4,0,0,1-2.85,5c.44,0,.83.07,1.26.07.72,0,1.37-.07,1.62-.9a18.1,18.1,0,0,0,.65-4.18Z"/><path class="a9c5987b-f5ca-4352-ae54-c17c457e2e98" d="M167.45,8.3v5.15H151.93c0,1.33-.14,2.27-.21,3h11.37c0,12.16-.68,15.48-3.24,18-1.83,1.84-5.76,2-7.09,2a9.14,9.14,0,0,0-2.66-5.65c1,.14,3.42.54,3.78.54a2.66,2.66,0,0,0,2.88-2.09,25,25,0,0,0,1-7.84h-7a24.32,24.32,0,0,1-13,15.11c-.87-1.36-2.67-3.34-4.43-3.88,6.41-2,13.1-7.24,13.1-19.19H134.55V8.3h13.53v-5l5.76.32c.22,0,.65.11.65.5s-.4.54-.65.65V8.3Z"/><path class="a9c5987b-f5ca-4352-ae54-c17c457e2e98" d="M172.42,12.26a45.1,45.1,0,0,1,5.72,4.47,18.48,18.48,0,0,0-2.91,3.7A47.93,47.93,0,0,0,169.5,16ZM169.54,33.1c1.8-2.12,4.36-7.27,5.58-11.12a11.52,11.52,0,0,0,4.17,2.59,55.82,55.82,0,0,1-4.64,10.73,1,1,0,0,1,.11.47.51.51,0,0,1-.5.47,1.4,1.4,0,0,1-.69-.26Zm5.29-29.76A25.34,25.34,0,0,1,180.41,8c-1.69,1.84-1.87,2.06-3.38,3.89a31.9,31.9,0,0,0-5.47-5ZM196.9,22.49a45.41,45.41,0,0,1,7.34,11,18.28,18.28,0,0,0-4.54,2.81c-.75-1.55-1.15-2.34-1.83-3.56A104.72,104.72,0,0,1,182,35.12c-.15.32-.33.72-.76.72s-.5-.43-.61-.86L179.44,30c1.65,0,2.73,0,4-.1a62.09,62.09,0,0,0,3.46-8h-7.49V17.27h9.25v-4h-7.42V8.63h7.42V3.37l5.58.11c.57,0,1,.07,1,.5s-.36.51-1.05.76V8.63h8v4.64h-8v4h9.4V22h-9.58a.29.29,0,0,1,.08.25c0,.51-1,.72-1.52.8-.72,1.69-1.58,3.38-3.16,6.47a50.69,50.69,0,0,0,5.93-.86,16.75,16.75,0,0,0-2.62-3.49Z"/></g></g></svg>