<svg xmlns="http://www.w3.org/2000/svg" width="22" height="22" viewBox="0 0 22 22"><g transform="translate(-279 123)"><rect width="22" height="22" transform="translate(279 -123)" fill="none"/><path d="M393.846,716.46H376.911a.571.571,0,0,1-.563-.579V703.355c0-.008,0-.016,0-.023a.592.592,0,0,1,.039-.192.584.584,0,0,1,.1-.171h0l.013-.014a.561.561,0,0,1,.182-.131.549.549,0,0,1,.225-.048h16.935a.563.563,0,0,1,.523.365.592.592,0,0,1-.136.635l-8.468,8.256a.551.551,0,0,1-.774,0l-7.518-7.33v10.6h15.81v-6.912a.563.563,0,1,1,1.125,0v7.492A.571.571,0,0,1,393.846,716.46Zm-15.523-12.527,7.055,6.879,7.055-6.879Z" transform="translate(-95.348 -821.774)"/></g></svg>