<svg xmlns="http://www.w3.org/2000/svg" width="22" height="22" viewBox="0 0 22 22"><g transform="translate(-207 123)"><rect width="22" height="22" transform="translate(207 -123)" fill="none"/><g transform="translate(209 -122)"><path d="M565.582,540.833H548.268a.571.571,0,0,1-.563-.579V523.248a.571.571,0,0,1,.563-.579h17.314a.571.571,0,0,1,.563.579v3.7a.571.571,0,0,1-.563.579H550.793a.58.58,0,0,1,0-1.159h14.226v-2.542H548.83v15.846h16.189v-8.987a.563.563,0,1,1,1.125,0v9.566A.571.571,0,0,1,565.582,540.833Z" transform="translate(-547.705 -521.569)"/><g transform="translate(3.282 14.328)"><rect width="1.977" height="2.036" transform="translate(0)"/><rect width="1.977" height="2.036" transform="translate(3.324)"/><rect width="1.977" height="2.036" transform="translate(6.647)"/><rect width="1.977" height="2.036" transform="translate(9.971)"/></g><path d="M574.858,518.981a.571.571,0,0,1-.563-.579v-2.751a.563.563,0,1,1,1.125,0V518.4A.571.571,0,0,1,574.858,518.981Z" transform="translate(-570.555 -515.072)"/><path d="M643.578,518.981a.571.571,0,0,1-.563-.579v-2.751a.563.563,0,1,1,1.125,0V518.4A.571.571,0,0,1,643.578,518.981Z" transform="translate(-629.61 -515.072)"/><g transform="translate(3.282 7.452)"><rect width="1.977" height="2.036" transform="translate(0)"/><rect width="1.977" height="2.036" transform="translate(3.324)"/><rect width="1.977" height="2.036" transform="translate(6.647)"/><rect width="1.977" height="2.036" transform="translate(9.971)"/></g><g transform="translate(3.282 10.89)"><rect width="1.977" height="2.036" transform="translate(0)"/><rect width="1.977" height="2.036" transform="translate(3.324)"/><rect width="1.977" height="2.036" transform="translate(6.647)"/><rect width="1.977" height="2.036" transform="translate(9.971)"/></g></g></g></svg>