<svg id="レイヤー_1" data-name="レイヤー 1" xmlns="http://www.w3.org/2000/svg" viewBox="0 0 349 389.6"><defs><style>.cls-1{fill:#fff;}.cls-2{fill:none;stroke:#707070;}.cls-3{fill:#ffa238;}.cls-4{isolation:isolate;}</style></defs><path class="cls-1" d="M172.77,8h-12.7V.11h34.2V8h-12.7V38h-8.7Zm71.8,10.7,15.5,19.2h11l-16.6-19.59,16-18.3h-10.9l-15,18V0H236V37.9h8.6Zm40.6,19.2h8.6V23.11L308.07,0h-10l-8.5,15.3L281.07,0H271l14.3,23.09Zm-52.2.2h-35.5V0H233Zm-8.1-29.8h-19.3V29.7h19.3ZM344.47,0V38.1H309V0Zm-8.2,8.3H317V29.7h19.3Zm-264,50.1,14.5,37.91h-9.7l-2.8-7.91h-15l-2.8,7.91h-9.7L61.17,58.4Zm-.4,22.5-5.2-14.2-5.2,14.2Zm37,4.8-8.3-27.3H88V96.32h8.2V78.11c0-1.2-.2-9.5-.3-10.7l8.9,28.91h8.1l8.9-28.91c0,1.41-.3,9.5-.3,10.7V96.32h8.2V58.41H117.2Zm54.7,2.7h-22.3V80.9h20.9V73.4h-20.9v-7H163V58.5H132.5V96.4h31Zm67.5-7.7h18.5V96.3h8.7V58.41h-8.7v14.4h-18.5V58.41h-8.6v37.9h8.6Zm100.1,7L327,58.41H315.6l-4.2,29.3-4.2-29.3h-9l7.4,37.91h11.6l4.2-28.91,4.2,28.91h11.6l7.3-37.91h-9Zm-69.7-29.4H297V96.4H261.5Zm8.1,29.8h19.3V66.71h-19.3ZM10.07,96.4h35.5V74.91H27.77v8.2h9.7V88H18.17V66.61h19.3v4.91h8.1V58.22H10.07Zm178-8v7.8h31v-23H196V65.9h23.1V58h-31V81h23.1v7.3Zm1,119.3c0,14.5-3.8,18.4-17,18.4-14.2,0-15.9-7.09-15.9-18.4,0-14.4,3.7-18.4,17-18.4,14.2,0,15.9,7.2,15.9,18.4Zm-4.6,0c0-11.1-1.2-14.4-12.4-14.4-10.9,0-11.3,5.3-11.3,14.4,0,11.1,1.2,14.4,12.4,14.4,10.9,0,11.3-5.3,11.3-14.4ZM223,221.4l-19.9-31.7h-7v36h4.6V193.9l19.9,31.8h7v-36H223Zm17-31.7h-4.6v36h25.2v-4H240Zm25.6,36h4.7v-36h-4.7Zm39.3-4.2L285,189.71h-7v36h4.6v-31.8l19.9,31.8h7v-36h-4.6Zm16.9-12.3H343v-3.9H321.8V193.7h22.4v-4h-27v36h27.3v-4H321.8ZM156.2,173.3H344.5v-2.2H156.17Z"/><path class="cls-1" d="M224.71,142.09c-2.5.3-4,.7-4,3.5v1.2h25.2v7.9h-33.7v-7.5c0-3.7,0-11.5,9.3-12.6l12.2-1.4c2.8-.3,4.1-.8,4.1-4s-1-4.7-8.1-4.7c-8,0-8.2,1-8.3,5.7h-8.5c0-8,.4-13.5,16.1-13.5,9.9,0,17.2.7,17.2,12,0,4.9-1.2,7.3-2.9,8.8a11.49,11.49,0,0,1-7,3.1Z"/><path class="cls-1" d="M301.41,142.09c-2.5.3-4,.7-4,3.5v1.2h25.2v7.9h-33.7v-7.5c0-3.6,0-11.4,9.3-12.5l12.2-1.4c2.8-.3,4.1-.8,4.1-4s-1-4.7-8.1-4.7c-8,0-8.2,1-8.3,5.7h-8.4c0-8,.4-13.5,16.1-13.5,9.9,0,17.3.7,17.3,12,0,4.9-1.2,7.3-2.9,8.8a11.49,11.49,0,0,1-7,3.1Z"/><path class="cls-1" d="M266.91,116.69c15.3,0,17.4,3.5,17.4,19.5,0,15.4-2.9,18.8-16.3,18.8-14.4,0-17.8-1.7-17.8-19.1,0-15.5,2.7-19.2,16.7-19.2m-8.2,19.3c0,11.2.6,11.3,9,11.3,7.2,0,8-.6,8-10.3,0-2-.1-8.3-.7-10-.8-2.3-3.5-2.5-7.8-2.5-7.9,0-8.5.3-8.5,11.5"/><path class="cls-1" d="M344.41,117.59v37h-7.9v-29.9h-7.7v-7Z"/><rect class="cls-1" x="162" y="240.57" width="186" height="27"/><rect class="cls-2" x="162.5" y="241.07" width="185" height="26"/><path d="M190.9,250.17c.5,0,1.2-.1,1.6-.1v2H189c0,2.2.1,4.7.1,6.7,0,1-.5,1.5-1.7,1.5a20.48,20.48,0,0,1-2.6-.1l-.2-1.9a16.72,16.72,0,0,0,2,.2c.4,0,.5-.2.5-.6v-4A22.44,22.44,0,0,1,181,259l-1.4-1.6a18.4,18.4,0,0,0,6.6-5.2h-4.1a9.65,9.65,0,0,0-1.7.1v-2a8.78,8.78,0,0,0,1.7.1h5v-1.1c0-.4-.1-1-.1-1.5h2.1a7.57,7.57,0,0,0-.1,1.5v1.1h1.9Z"/><path d="M202.2,256.17a15.1,15.1,0,0,0,5.5-5.8l1.2,2.1a16.25,16.25,0,0,1-11.1,7.6l-1.3-2A13.29,13.29,0,0,0,202.2,256.17Zm0-4.8-1.5,1.6a40.22,40.22,0,0,0-3.7-3.2l1.4-1.5a26.93,26.93,0,0,1,3.8,3.1Z"/><path d="M223.9,252.37a3.36,3.36,0,0,1-.3.6,12.17,12.17,0,0,1-2.2,4.2,10.41,10.41,0,0,1-5.4,3.2l-1.5-1.7a10.7,10.7,0,0,0,5.2-2.6,5.78,5.78,0,0,0,1.5-2.6H214a10.71,10.71,0,0,0-1.7.1v-2a10.71,10.71,0,0,0,1.7.1h7.4c.5,0,.9-.1,1.1-.1Zm-10.2-4.3a7.78,7.78,0,0,0,1.6.1h5.8a7.78,7.78,0,0,0,1.6-.1V250h-8.9v-1.9Z"/><path d="M235.9,258.27a12.13,12.13,0,0,0,.1,2h-2.4a12.13,12.13,0,0,0,.1-2v-4.9a21.6,21.6,0,0,1-5.2,2l-1.1-1.8a25.75,25.75,0,0,0,6.8-2.7,14.58,14.58,0,0,0,3.9-3.4l1.6,1.5a21.29,21.29,0,0,1-4,3.2v6.1Z"/><path d="M249.5,256.17a14.48,14.48,0,0,0,5.5-5.8l1.2,2.1a15.26,15.26,0,0,1-5.5,5.5,14.87,14.87,0,0,1-5.6,2.1l-1.3-2A13.29,13.29,0,0,0,249.5,256.17Zm0-4.8L248,253a30.5,30.5,0,0,0-3.8-3.2l1.4-1.5a28.17,28.17,0,0,1,3.9,3.07Z"/><path d="M271.3,252.77v1.4h1.5v1.6h-1.5v3.1c0,.9-.2,1.4-.8,1.7a6.37,6.37,0,0,1-2.6.3,12.65,12.65,0,0,0-.5-1.8h1.8c.3,0,.3-.1.3-.3v-3.1h-3.1a15.85,15.85,0,0,1,1.8,2.2l-1.4.9a21.23,21.23,0,0,0-1.7-2.4l1.3-.8h-1.8v-.8c-.4.1-.9.3-1.3.4v5.5h-1.6v-5c-.8.2-1.6.5-2.2.7l-.4-1.7c.7-.2,1.7-.4,2.7-.7v-2.8h-1a9.12,9.12,0,0,1-.6,1.9,13.33,13.33,0,0,0-1.3-.8,20.65,20.65,0,0,0,.9-4.8l1.5.2c-.1.6-.1,1.2-.2,1.8h.7v-2.8h1.6v2.8h1.2v1.4h3.3v-1.3h-2.7V248h2.7v-1.3h1.8V248h2.8v1.6h-2.8v1.3h3.4v1.6h-1.8Zm-1.7,0h-5.3v-1.4h-1v2.3l1.4-.4.1.8h4.8Z"/><path d="M283.2,254v.6c-.2,3.6-.3,5.1-.7,5.6a1.49,1.49,0,0,1-1.1.6,5.44,5.44,0,0,1-1.8,0,2.69,2.69,0,0,0-.5-1.5,9.45,9.45,0,0,0,1.5.1c.2,0,.4,0,.5-.2a11.86,11.86,0,0,0,.5-3.6h-1.7a7.88,7.88,0,0,1-2.6,5.3,5.12,5.12,0,0,0-1.2-1.3c2-1.6,2.3-4.3,2.4-6.8H277v-5.2h6.2v5.2h-2.9c0,.4-.1.8-.1,1.2Zm-4.6-2.8h2.8v-2.1h-2.8Zm7.4,6h-1.7v-8.4H286Zm3.5-10v11.5c0,1-.2,1.5-.8,1.8a7.8,7.8,0,0,1-3,.3,5.46,5.46,0,0,0-.6-1.8h2.2c.3,0,.4-.1.4-.4V247.1h1.8Z"/><path d="M296.8,251.87a17.61,17.61,0,0,1-2.5,1.5,13.48,13.48,0,0,0-1-1.5,15.53,15.53,0,0,0,6.1-5h1.9a14.63,14.63,0,0,0,6.3,4.8c-.4.5-.8,1.1-1.2,1.6a17.61,17.61,0,0,1-2.5-1.5V253h-7v-1.1Zm-2.7,2.4h12.4V256h-6.7c-.4.9-.9,1.8-1.4,2.7,1.4,0,3-.1,4.5-.2-.5-.5-1-1.1-1.5-1.5l1.6-.8a20.05,20.05,0,0,1,3.4,3.9l-1.7,1a5.42,5.42,0,0,0-.6-.9c-3.5.2-7.2.3-9.8.5l-.2-1.7,2.3-.1a21.82,21.82,0,0,0,1.1-2.7H294v-1.9Zm9.1-2.9a13.06,13.06,0,0,1-2.9-2.8,14,14,0,0,1-2.7,2.8Z"/><path d="M318.5,254.37c-.1.2-.3.5-.4.7h6.1v.6c-.2,2.9-.4,4.1-.9,4.6a1.39,1.39,0,0,1-1,.5,7.52,7.52,0,0,1-1.5,0,3.82,3.82,0,0,0-.4-1.4h1.1c.2,0,.3,0,.4-.2a9.6,9.6,0,0,0,.6-2.8h-.6a10.14,10.14,0,0,1-3,4.4,4.52,4.52,0,0,0-1.3-1,9.19,9.19,0,0,0,2.8-3.5h-.9a12.7,12.7,0,0,1-3.5,3.8,13.84,13.84,0,0,0-1.2-1.1,9.8,9.8,0,0,0,3.1-2.7H317a8.1,8.1,0,0,1-1.7,1.5,7,7,0,0,0-1.2-1.1c-1.1.5-2.2,1.1-3.1,1.5l-.7-1.8a17.17,17.17,0,0,1,1.8-.7v-4.2h-1.5v-1.7h1.5v-3h1.6v3h1.4v1.7h-1.4V255l1.2-.5.3,1.3a10.63,10.63,0,0,0,1.4-1.6H315v-1.5h9.4v1.5h-5.9Zm4.9-2.1h-7.1v-5.1h7.1Zm-1.6-3.8h-3.9v.7h3.9Zm0,1.9h-3.9v.7h3.9Z"/><circle class="cls-1" cx="68" cy="195.57" r="68"/><path class="cls-3" d="M50.1,166.47v12.7H46.4v-1.7H29.8v1.7H26.2v-12.7h3.6V174h6.3v-9.1H27.4V154h3.5v7.4h5.2v-9.9h3.7v9.9h5.5V154h3.8v10.9H39.9V174h6.7v-7.5Z"/><path class="cls-3" d="M80.6,172a31.15,31.15,0,0,1-3.9,2.4,15.67,15.67,0,0,0,5.3,1.9,15,15,0,0,0-2.1,2.9,14.53,14.53,0,0,1-7.9-4.6l.1,2.4c-3.9.6-8.1,1.2-11.2,1.7l-.5-3.2c.9-.1,1.9-.2,3.1-.4v-4.5H60.4v-3H65v-2H61.2v-3H65v-2H60.6v.7c0,5.2-.5,13-3.6,18a12.6,12.6,0,0,0-3.2-1.8c3-4.6,3.2-11.4,3.2-16.1v-8.8H80.1v8.1H76v2h4.3v3H76v2h5.6v3H78.5Zm-20-14.4H76.5v-2.1H60.6Zm6.1,17.2c1.5-.2,3.1-.4,4.7-.7a17,17,0,0,1-2.1-3.5H66.7Zm1.5-12.2h4.5v-2H68.2Zm0,5h4.5v-2H68.2Zm4.5,3a8.36,8.36,0,0,0,1.7,2c1-.6,2.2-1.4,3.1-2Z"/><path class="cls-3" d="M95.1,171.07a30.59,30.59,0,0,0-2.7-3.1v11.3H88.9V169a31.27,31.27,0,0,1-3.7,2.9,12,12,0,0,0-1.7-3.4,22.57,22.57,0,0,0,8.4-8.4H84.6v-3.2h4.3v-5.5h3.5v5.5h1.4l.6-.1,2,1.3a30.59,30.59,0,0,1-3.5,6.4c1.4,1.2,3.8,3.2,4.4,3.8Zm17.2,3.8v3.5h-17v-3.5h6.9v-11H96.5v-3.4h5.7v-9h3.7v9h5.7v3.4h-5.7v11Z"/><path class="cls-3" d="M39.9,208.37a19.59,19.59,0,0,0,6.1,2.5,15,15,0,0,0-2.3,2.8,16.69,16.69,0,0,1-3.6-1.7c-.3,2.9-.6,4.3-1.3,5a3.34,3.34,0,0,1-2.2.9,21.64,21.64,0,0,1-3.6,0,7.09,7.09,0,0,0-.9-2.8c1.2.1,2.4.2,2.9.2a1.68,1.68,0,0,0,1-.3c.3-.3.5-.9.6-2.2H31.5c-1.3,2.6-3.8,4.3-9.2,5.4a9.4,9.4,0,0,0-1.7-2.7c3.7-.6,5.8-1.4,6.9-2.7H22.7v-1c-1.1.5-2.2,1-3.5,1.5a8.24,8.24,0,0,0-2-2.5,20.86,20.86,0,0,0,5.6-2.5H18.1v-2.7h7.6a6.61,6.61,0,0,0,.7-1.1H21.3V196H41.8v8.5H30.1c-.2.4-.4.7-.6,1.1H44.9v2.8Zm-15.1-13.8H18.5v-2.8h6.3v-1.6h3.5v1.6h6.4v-1.6h3.5v1.6h6.3v2.8H38.2v1H34.7v-1H28.3v1H24.8Zm-.1,4.7H38.2v-1.2H24.7Zm0,3.2H38.2v-1.2H24.7Zm7.8,6.4a11,11,0,0,1-.3,1.6h5.3a13.7,13.7,0,0,1-2.1-2h-8a15.64,15.64,0,0,1-2.3,2h3.7c.1-.5.2-1,.3-1.6Z"/><path class="cls-3" d="M66.1,211.37a33.35,33.35,0,0,0,9.6,3.6,14.15,14.15,0,0,0-2.2,2.8,36.14,36.14,0,0,1-10.3-4.9v5.2H59.7V213a33.93,33.93,0,0,1-10.3,5,12.89,12.89,0,0,0-2.3-2.9,35.43,35.43,0,0,0,9.9-3.7H48.1v-2.9H59.7v-1.2H51.5v-8.1c-.5.5-1.1,1-1.7,1.5a11.62,11.62,0,0,0-2.5-2.4,24,24,0,0,0,7.1-8.2l3.7.7c-.5.9-1,1.7-1.6,2.6h4.3c.5-1.1,1-2.3,1.3-3.2l4,.5c-.5,1-1.1,1.9-1.6,2.8h9v2.8H64.1v1.2H72v2.3H64.1v1.3h8v2.3h-8v1.3H74.4v2.7h-11v1.2H75.2v2.9H66.1Zm-5.6-15.2H54.8v1.2h5.7Zm0,3.6H54.8v1.3h5.7Zm-5.7,4.9h5.7v-1.3H54.8Z"/><path class="cls-3" d="M103.8,195.37v15H100v-1.5H93.2v9.4H89.4v-9.4H82.7v1.7H79.1v-15.1H89.4v-5.2h3.8v5.2h10.6Zm-14.3,9.9v-6.4H82.8v6.4Zm10.6,0v-6.4H93.3v6.4Z"/><path class="cls-3" d="M110.19,212.87a3.1,3.1,0,0,1,6.2,0h0a2.89,2.89,0,0,1-2.87,2.91h-.23a2.85,2.85,0,0,1-3.09-2.57A1.93,1.93,0,0,1,110.19,212.87Zm.5-15.3-.1-4.5h5.5l-.1,4.5-1,10.3h-3.1Z"/><path class="cls-3" d="M23.3,233.87a7.55,7.55,0,0,1-.7,2.8,3.64,3.64,0,0,0-.9-.4,8.34,8.34,0,0,0,.6-2.6Zm8.8-3.6v2.1H30.9v-1H27v1H25.9a3.24,3.24,0,0,1,.2.8l-.9.4c0-.2-.1-.4-.1-.6h-.6v4.5H23.4V233l-1.5.1-.1-1.1h.9c.1-.2.3-.4.4-.6a9.1,9.1,0,0,0-1.3-1.6l.6-.8.3.3c.3-.6.6-1.4.8-1.9l1.1.4a22.25,22.25,0,0,1-1.2,2.2c.1.2.3.3.4.5a10.09,10.09,0,0,0,.9-1.8l1,.5c-.4.7-.9,1.4-1.4,2.1l.9-.4a9.78,9.78,0,0,1,.6,1.5v-2h1.3c-.1-.3-.2-.7-.3-1h-1v-1.1h2.3v-.9h1.3v.9h2.3v1.1h-.8c-.2.4-.3.7-.5,1.1h1.7Zm-7.4,1.6c-.1-.3-.2-.5-.3-.8a6.68,6.68,0,0,1-.6.8Zm.7,1.8a7.82,7.82,0,0,1,.6,2l-.9.3a8,8,0,0,0-.5-2Zm6.2,1.6a1,1,0,0,1-.4,1,2.16,2.16,0,0,1-1.2.2,4.17,4.17,0,0,0-.3-1.1h.7c.1,0,.1,0,.1-.1v-1.7h-.9v3.9H28.4v-3.9h-.8v2.9H26.5v-4h2v-.9h1.2v.9h2.1v2.8Zm-3.5-6a4.17,4.17,0,0,1,.3,1.1h1c.1-.3.3-.7.4-1.1Z"/><path class="cls-3" d="M36.1,234.17c.2,0,.2-.3.3-1.4a2.51,2.51,0,0,0,1.2.5c-.1,1.6-.4,2.1-1.3,2.1h-.9c-1,0-1.3-.4-1.3-1.7v-2l-1,.2-.2-1.2,1.2-.2v-2.9h1.3v2.5l2.1-.4.2,1.2-2.3.5v2.3c0,.4,0,.5.2.5Zm6.9-6.1v.7c-.1,5.5-.2,7.4-.6,8a1.67,1.67,0,0,1-1,.7,4.3,4.3,0,0,1-1.6,0,2.83,2.83,0,0,0-.4-1.3h1.3c.2,0,.3,0,.4-.2.3-.4.4-2.1.5-6.6H39.9c-.1,3.5-.3,6.5-3,8.3a4.76,4.76,0,0,0-.9-1.1c2.5-1.5,2.6-4.1,2.7-7.2H37v-1.3Z"/><path class="cls-3" d="M46.7,228.07c-.1.2-.2.8-.3,1a23.73,23.73,0,0,0-.5,4.2v.7a5.18,5.18,0,0,1,.5-1.1l.7.5a23.65,23.65,0,0,0-.8,2.6,4,4,0,0,1-.1.5v.5l-1.2.1a14.74,14.74,0,0,1-.4-3.5,22,22,0,0,1,.5-4.5c0-.3.1-.7.1-1.1Zm6.7,8.3c-.5-.4-.9-.8-1.3-1.1a1.88,1.88,0,0,1-1.94,1.81H50c-1.5,0-2.4-.6-2.4-1.8s.9-1.9,2.4-1.9h.7c0-.7-.1-1.5-.1-2.2h-.8a12.1,12.1,0,0,1-1.9-.1v-1.3a12.1,12.1,0,0,0,1.9.1h.8v-1.2a1.66,1.66,0,0,0-.1-.7h1.6c0,.2-.1.5-.1.7v1.1a8.07,8.07,0,0,0,1.7-.3v1.4c-.5.1-1.1.1-1.7.2,0,1.1.1,1.9.1,2.7a7.08,7.08,0,0,1,2.1,1.4Zm-2.7-1.8a2.74,2.74,0,0,0-.9-.1c-.6,0-1,.3-1,.7s.4.6,1,.6.9-.4.9-1Z"/><path class="cls-3" d="M59.4,230.17a2,2,0,0,0-1.3-.6c-.9,0-1.7.7-1.8,2.7a2.42,2.42,0,0,1,1.7-.9c1.4,0,2.3.8,2.3,2.6a2.56,2.56,0,0,1-2.39,2.7H57.7c-1.6,0-2.9-1.2-2.9-4.1s1.5-4.3,3.1-4.3a3,3,0,0,1,2.2.9Zm-.5,3.8c0-1-.5-1.4-1.2-1.4a1.51,1.51,0,0,0-1.3.9c.2,1.5.7,2.1,1.4,2.1s1.1-.57,1.1-1.57Z"/><path class="cls-3" d="M70.1,235.87c0,.8-.2,1.2-.7,1.4a7,7,0,0,1-2.4.3,4.24,4.24,0,0,0-.6-1.4h1.9c.3,0,.4-.1.4-.3v-1.6H64a5.9,5.9,0,0,1-1.9,3.3,3,3,0,0,0-1-.9c1.7-1.4,1.8-3.5,1.8-5.2v-3.6h7.2ZM68.7,233v-1.3H64.3a5.66,5.66,0,0,1-.1,1.3Zm-4.4-3.9v1.3h4.4v-1.3Z"/><path class="cls-3" d="M72.3,235.67c2.2-2,3.5-3.5,3.5-4.8a1.17,1.17,0,0,0-1-1.29h-.2a2.26,2.26,0,0,0-1.5.8l-.9-.9a3.22,3.22,0,0,1,2.6-1.2,2.45,2.45,0,0,1,2.6,2.27v.23c0,1.5-1.2,3.1-2.7,4.5.4,0,.9-.1,1.3-.1h1.8v1.4H72.3Z"/><path class="cls-3" d="M78.6,235.57l.7-1a2.33,2.33,0,0,0,1.8.8,1.5,1.5,0,1,0,0-3,1.87,1.87,0,0,0-1.2.4l-.7-.5.2-4h4.4v1.4h-3l-.2,1.7a1.65,1.65,0,0,1,1-.2,2.34,2.34,0,0,1,2.51,2.16h0a3.23,3.23,0,0,1,0,.44,2.76,2.76,0,0,1-2.61,2.9h-.2A3.4,3.4,0,0,1,78.6,235.57Z"/><path class="cls-3" d="M94.2,227.87v9.5H92.8v-.7H87.9v.7H86.5v-9.5Zm-6.3,1.4v2.4h4.9v-2.4Zm4.9,6.1v-2.5H87.9v2.5Z"/><path class="cls-3" d="M96.8,233.07a10.81,10.81,0,0,1,1.6-5.7l1,.4a11.47,11.47,0,0,0,0,10.6l-1,.4A10.81,10.81,0,0,1,96.8,233.07Z"/><path class="cls-3" d="M108.9,234.37a11.85,11.85,0,0,1-1.2,1.7h2.5v1.1h-9.3v-1.1H103a10.09,10.09,0,0,0-.9-1.8l1-.4h-1.7v-1.1h3.3v-1.1h-2v-.5a13.84,13.84,0,0,1-1.6,1,7.18,7.18,0,0,0-.8-1.1,11.41,11.41,0,0,0,4.4-3.9h1.4a12.17,12.17,0,0,0,4.7,3.8,13.4,13.4,0,0,0-.9,1.2c-.5-.3-1.1-.6-1.7-1v.6h-2.1v1.1h3.4V234h-3.4v2.2h1.2l-.7-.3a6.92,6.92,0,0,0,1-1.9Zm-5.8-.5a11.3,11.3,0,0,1,1,1.8l-.9.4h1.5v-2.2Zm4.4-3.3a18.88,18.88,0,0,1-2-2,11.61,11.61,0,0,1-1.9,2Z"/><path class="cls-3" d="M111.6,238.37a11.47,11.47,0,0,0,0-10.6l1-.4a11,11,0,0,1,1.7,5.7,10.06,10.06,0,0,1-1.7,5.7Z"/><g id="mainDays"><g id="_2021.9.30_thu_10.3_sun_" data-name=" 2021.9.30 thu 10.3 sun " class="cls-4"><g class="cls-4"><path class="cls-1" d="M144.89,321c4-3.6,6.4-6.38,6.4-8.66a2.12,2.12,0,0,0-2.22-2.4,3.83,3.83,0,0,0-2.72,1.52l-1.6-1.6a6,6,0,0,1,4.7-2.24,4.34,4.34,0,0,1,4.66,4.56c0,2.68-2.22,5.56-4.92,8.2.74-.08,1.72-.16,2.4-.16h3.22v2.48h-9.92Z"/><path class="cls-1" d="M156.69,315.27c0-5.12,2-7.62,5-7.62s5,2.52,5,7.62-2,7.74-5,7.74S156.69,320.37,156.69,315.27Zm7.24,0c0-4.14-1-5.34-2.22-5.34s-2.24,1.2-2.24,5.34,1,5.44,2.24,5.44S163.93,319.43,163.93,315.27Z"/><path class="cls-1" d="M168.45,321c4-3.6,6.4-6.38,6.4-8.66a2.12,2.12,0,0,0-2.22-2.4,3.83,3.83,0,0,0-2.72,1.52l-1.6-1.6a6,6,0,0,1,4.7-2.24,4.34,4.34,0,0,1,4.66,4.56c0,2.68-2.22,5.56-4.92,8.2.74-.08,1.72-.16,2.4-.16h3.22v2.48h-9.92Z"/><path class="cls-1" d="M181,320.35h3.18V311h-2.68v-1.82a9.6,9.6,0,0,0,3.44-1.24h2.18v12.42h2.78v2.38H181Z"/><path class="cls-1" d="M192.57,321.09a1.83,1.83,0,1,1,1.82,1.92A1.84,1.84,0,0,1,192.57,321.09Z"/></g><g class="cls-4"><path class="cls-1" d="M204.1,314.83a8.49,8.49,0,0,0,5.85,2.6c4.15,0,7.6-3.15,7.9-12.45a10.29,10.29,0,0,1-7.6,4c-6.15,0-10.6-3.8-10.6-11.65,0-7.6,5.3-12.35,11.65-12.35,7,0,13.3,5.5,13.3,18.35,0,14-6.85,20.05-14.2,20.05a13.88,13.88,0,0,1-10.15-4.2Zm13.65-15c-.65-6.75-3.2-9.25-6.35-9.25-2.75,0-5,2.25-5,6.8,0,4.35,2,6.4,5.25,6.4C213.65,303.78,216,302.68,217.75,299.83Z"/><path class="cls-1" d="M230.65,318.63a4.58,4.58,0,1,1,4.55,4.8A4.6,4.6,0,0,1,230.65,318.63Z"/><path class="cls-1" d="M244.65,318.28l3.45-4.65a11.75,11.75,0,0,0,8.25,3.8c3.75,0,6.3-1.85,6.3-5.15,0-3.65-2.15-5.9-10.2-5.9v-5.3c6.8,0,9-2.35,9-5.65,0-2.9-1.8-4.6-4.95-4.65-2.65.05-4.8,1.3-7,3.3l-3.75-4.5a16.42,16.42,0,0,1,11.1-4.55c7.15,0,12,3.5,12,9.85,0,4-2.25,6.9-6.2,8.45v.25c4.2,1.15,7.4,4.25,7.4,9.1,0,6.8-5.95,10.75-13,10.75C251.2,323.43,247.25,321.23,244.65,318.28Z"/><path class="cls-1" d="M275,304.08c0-12.8,5-19.05,12.55-19.05s12.5,6.3,12.5,19.05-5,19.35-12.5,19.35S275,316.83,275,304.08Zm18.1,0c0-10.35-2.4-13.35-5.55-13.35s-5.6,3-5.6,13.35,2.4,13.6,5.6,13.6S293.1,314.48,293.1,304.08Z"/></g><g class="cls-4"><path class="cls-1" d="M310,309.88h3.67v1.25h-1.91v13.09h1.91v1.28H310Z"/><path class="cls-1" d="M316,319.6v-4h-1.26v-1.75l1.37-.11.28-2.4h2v2.4h2.21v1.86h-2.21v4c0,1,.42,1.5,1.22,1.5a2.51,2.51,0,0,0,.88-.19l.39,1.71A5.81,5.81,0,0,1,319,323C316.84,323,316,321.61,316,319.6Z"/><path class="cls-1" d="M322.41,310h2.33v3.22l-.09,1.68a4.08,4.08,0,0,1,2.81-1.31c1.94,0,2.77,1.34,2.77,3.6v5.58h-2.35v-5.29c0-1.38-.38-1.88-1.26-1.88a2.6,2.6,0,0,0-1.88,1v6.16h-2.33Z"/><path class="cls-1" d="M332.55,319.37v-5.6h2.35v5.3c0,1.39.39,1.87,1.25,1.87a2.17,2.17,0,0,0,1.83-1.12v-6.05h2.35v9h-1.92l-.18-1.28h-.06A3.59,3.59,0,0,1,335.3,323C333.38,323,332.55,321.61,332.55,319.37Z"/><path class="cls-1" d="M342.34,324.22h1.91V311.13h-1.91v-1.25H346V325.5h-3.67Z"/></g><g class="cls-4"><path class="cls-1" d="M189.8,365.54a3.85,3.85,0,0,0-3.13-1.51c-1.34,0-2.54,1-3.34,2.52L181,365.29c1.41-2.61,3.47-3.87,5.71-3.87a6.37,6.37,0,0,1,5,2.31,3.83,3.83,0,0,0,3.13,1.51c1.34,0,2.54-1,3.34-2.52l2.31,1.26c-1.41,2.61-3.47,3.87-5.72,3.87A6.37,6.37,0,0,1,189.8,365.54Z"/></g><g class="cls-4"><path class="cls-1" d="M205.35,366.78h8v-23.4h-6.7v-4.55a24,24,0,0,0,8.6-3.1h5.45v31h6.95v6H205.35Z"/><path class="cls-1" d="M232.9,354.08c0-12.8,5-19.05,12.55-19.05s12.5,6.3,12.5,19.05-5,19.35-12.5,19.35S232.9,366.83,232.9,354.08Zm18.1,0c0-10.35-2.4-13.35-5.55-13.35s-5.6,3-5.6,13.35,2.4,13.6,5.6,13.6S251,364.48,251,354.08Z"/><path class="cls-1" d="M263.7,368.63a4.58,4.58,0,1,1,4.55,4.8A4.6,4.6,0,0,1,263.7,368.63Z"/><path class="cls-1" d="M277.7,368.28l3.45-4.65a11.75,11.75,0,0,0,8.25,3.8c3.75,0,6.3-1.85,6.3-5.15,0-3.65-2.15-5.9-10.2-5.9v-5.3c6.8,0,9-2.35,9-5.65,0-2.9-1.8-4.6-4.95-4.65-2.65.05-4.8,1.3-7,3.3l-3.76-4.5A16.46,16.46,0,0,1,289.9,335c7.15,0,12,3.5,12,9.85,0,4-2.25,6.9-6.2,8.45v.25c4.2,1.15,7.4,4.25,7.4,9.1,0,6.8-6,10.75-13,10.75C284.25,373.43,280.3,371.23,277.7,368.28Z"/></g><g class="cls-4"><path class="cls-1" d="M311.09,359.88h3.67v1.25h-1.91v13.09h1.91v1.28h-3.67Z"/><path class="cls-1" d="M315.94,371.69l1.07-1.47a3.92,3.92,0,0,0,2.4,1c.9,0,1.3-.39,1.3-.95s-.93-1-1.87-1.34c-1.14-.43-2.45-1.12-2.45-2.61s1.31-2.75,3.33-2.75a5,5,0,0,1,3.06,1.1l-1.06,1.43a3.45,3.45,0,0,0-1.94-.77c-.8,0-1.18.35-1.18.86s.88.9,1.82,1.25c1.19.45,2.5,1,2.5,2.7s-1.23,2.84-3.57,2.84A5.63,5.63,0,0,1,315.94,371.69Z"/><path class="cls-1" d="M324.61,369.37v-5.6H327v5.3c0,1.39.38,1.87,1.24,1.87a2.17,2.17,0,0,0,1.83-1.12v-6.05h2.35v9h-1.92l-.18-1.28h-.06a3.58,3.58,0,0,1-2.86,1.51C325.45,373,324.61,371.61,324.61,369.37Z"/><path class="cls-1" d="M334.9,363.77h1.92L337,365H337a4.17,4.17,0,0,1,2.92-1.4c1.94,0,2.77,1.34,2.77,3.6v5.58h-2.36v-5.29c0-1.38-.38-1.88-1.26-1.88a2.58,2.58,0,0,0-1.87,1v6.16H334.9Z"/><path class="cls-1" d="M344.66,374.22h1.9V361.13h-1.9v-1.25h3.67V375.5h-3.67Z"/></g></g></g></svg>