<svg xmlns="http://www.w3.org/2000/svg" width="71.6" height="41.1" viewBox="0 0 71.6 41.1">
  <title>CES Logo</title>
    <polygon points="38.5 4.2 39.5 9.5 26.8 11.1 25.6 0.3 38.5 4.2" style="fill: #44c8f5"/>
    <polygon points="28.8 32.8 28.8 32.8 28.8 32.8 26.8 11.1 0 14.4 15.4 41.1 49.7 36.3 49.7 36.3 28.8 32.8" style="fill: #00a0db"/>
    <polygon points="71.6 0 67.4 33.9 62.3 33.1 63.3 11.8 38.5 4.2 38.1 2.5 71.6 0" style="fill: #e1e000"/>
    <polygon points="43.7 30.1 39.5 9.5 26.8 11.1 28.8 32.8 49.7 36.3 49.1 30.9 43.7 30.1" style="fill: #0080be"/>
    <polygon points="49.1 30.9 49.7 36.3 62.1 38.4 62.3 33.1 49.1 30.9" style="fill: #44c8f5"/>
    <polygon points="38.5 4.2 43.7 30.1 62.3 33.1 63.3 11.8 38.5 4.2" style="fill: #48bd9c"/>
    <path d="M57.1,13.4a.99.99,0,1,0-1.4,1.4.99.99,0,1,0,1.4-1.4Zm0,1.3c-.2.2-.3.2-.6.2a1.421,1.421,0,0,1-.6-.2.735.735,0,0,1-.2-.6,1.421,1.421,0,0,1,.2-.6c.2-.2.3-.2.6-.2a1.421,1.421,0,0,1,.6.2c.2.2.2.3.2.6A1.421,1.421,0,0,1,57.1,14.7Zm-.2-.8c0-.1-.1-.2-.2-.3H56v1h.2v-.4h.3c.1,0,.1.1.1.2v.1h.2v-.3c0-.1,0-.1-.1-.2,0-.1-.1-.1-.2-.1.1,0,.1,0,.1-.1C56.9,14,56.9,14,56.9,13.9Zm-.3.1h-.4v-.4h.4l.1.1C56.7,14,56.7,14,56.6,14ZM21.1,29.9a8.267,8.267,0,0,0,5.5-2v4.3a10.6,10.6,0,0,1-5.7,1.5c-6.1,0-10.1-4.2-10.1-10.1A9.66,9.66,0,0,1,20.9,13.5a10.167,10.167,0,0,1,5.3,1.3v4.5a7.244,7.244,0,0,0-5.3-2c-3.5,0-5.8,2.6-5.8,6.4A5.829,5.829,0,0,0,21.1,29.9Zm11.8-.3h8.6v3.7H28.8V13.7H41.3v3.7H32.9v4.3h7.7v3.6H32.9Zm23-1.9c0,4.1-3.2,5.9-7.3,5.9a10.092,10.092,0,0,1-5.3-1.4V28a8.61,8.61,0,0,0,5.3,2c1.7,0,3.2-.6,3.2-2.2,0-1.5-1.2-2-3.3-2.6-3.9-1.1-5.5-2.7-5.5-6,0-3.7,2.9-5.8,6.5-5.8a9.146,9.146,0,0,1,5.2,1.5V19a7.628,7.628,0,0,0-5.1-2c-1.7,0-2.6.8-2.6,2,0,1.4,1.1,1.9,3.4,2.6C54.4,22.7,55.9,24.4,55.9,27.7Z" style="fill: #fff"/>
</svg>
