<svg xmlns="http://www.w3.org/2000/svg" viewBox="0 0 27.64 34.02"><defs><style>.cls-1{fill:#fff;}.cls-2{fill:#231815;}.cls-3,.cls-4,.cls-5{fill:none;}.cls-3,.cls-5{stroke:#231815;}.cls-3{stroke-width:0.56px;}.cls-4{stroke:#fff;stroke-width:3.05px;}.cls-5{stroke-width:1.52px;}</style></defs><title>ceroA_s</title><g id="レイヤー_2" data-name="レイヤー 2"><g id="レイヤー_1-2" data-name="レイヤー 1"><rect class="cls-1" width="27.64" height="34.02" rx="1.91"/><path class="cls-2" d="M25.51,4.25a2.12,2.12,0,0,0-2.12-2.12H4.25A2.12,2.12,0,0,0,2.13,4.25V26.9H25.51Z"/><rect class="cls-3" x="2.13" y="2.13" width="23.39" height="29.76" rx="2.13"/><path class="cls-1" d="M8,4.22a2.67,2.67,0,0,0-1.45-.45c-1.18,0-1.52.95-1.52,2C5,7,5.57,7.94,6.86,7.94a4,4,0,0,0,1.87-.57L8.29,8.64a6.63,6.63,0,0,1-1.72.2A3.26,3.26,0,0,1,4.25,8.1a2.9,2.9,0,0,1-1-2.26,3,3,0,0,1,.94-2.17A3.69,3.69,0,0,1,6.59,2.9L7.9,3Z"/><path class="cls-1" d="M10.86,7.77a2.51,2.51,0,0,0,.91.13A1.5,1.5,0,0,0,13,7.42h0l-.34,1.31H8.89v0c.43-.26.37-.75.37-1.2V4.26c0-.45.06-.94-.37-1.2V3h3a.88.88,0,0,0,.37,0h0V4.25h0c-.24-.41-.73-.37-1.15-.37h-.28V5.29h.8a.74.74,0,0,0,.32,0h0V6.45h0c-.12-.34-.52-.31-.84-.31h-.28Z"/><path class="cls-1" d="M15.19,6.29l1,1.89a1,1,0,0,0,1.16.58l1.2-.08a4,4,0,0,1-.84-1l-1-1.72a1.52,1.52,0,0,0,1-1.37,1.43,1.43,0,0,0-.77-1.32A2.28,2.28,0,0,0,15.79,3H13.22v0c.43.27.37.76.37,1.21V7.49c0,.45.06.95-.37,1.21v0h2.33v0c-.42-.26-.36-.76-.36-1.21Zm.08-2.42a.9.9,0,0,1,.51.12.91.91,0,0,1,.34.74,1.13,1.13,0,0,1-.93,1.1v-2h.08"/><path class="cls-1" d="M18.08,5.87a2.94,2.94,0,0,0,3.15,3,3,3,0,0,0,3.26-3,2.86,2.86,0,0,0-3.15-3A3,3,0,0,0,18.08,5.87Zm1.68-.24c0-.89.45-1.87,1.47-1.87,1.19,0,1.58,1.41,1.58,2.4a2,2,0,0,1-.32,1.21A1.45,1.45,0,0,1,21.34,8a1.41,1.41,0,0,1-1.17-.75,3.69,3.69,0,0,1-.41-1.6"/><path class="cls-4" d="M12.22,20.1l1.68-5.25,1.69,5.25Zm4.16,2.46.55,1.72h3.91L16,11.42h-4.1L7,24.28h3.91l.54-1.72Z"/><path class="cls-5" d="M12.22,20.1l1.68-5.25,1.69,5.25Zm4.16,2.46.55,1.72h3.91L16,11.42h-4.1L7,24.28h3.91l.54-1.72Z"/><path class="cls-2" d="M12.22,20.1l1.68-5.25,1.69,5.25Zm4.16,2.46.55,1.72h3.91L16,11.42h-4.1L7,24.28h3.91l.54-1.72Z"/><path class="cls-1" d="M12,20.1l1.68-5.25,1.69,5.25Zm4.15,2.46.56,1.72h3.91L15.7,11.42H11.6L6.72,24.28h3.91l.54-1.72Z"/><path class="cls-2" d="M4.52,28.84a3.75,3.75,0,0,1-.48.25l-.21-.41a3.76,3.76,0,0,0,1.7-1.23H6A3.58,3.58,0,0,0,7.7,28.68l-.22.4A2.6,2.6,0,0,1,7,28.84v.31H6v.54H7.23v.36H6v.65H7.58v.41H3.92V30.7H5.54v-.65H4.29v-.36H5.54v-.54h-1Zm2.34-.09h0a4.54,4.54,0,0,1-1.11-.94,4,4,0,0,1-1.08.94H6.86Z"/><path class="cls-2" d="M9.76,29.21v.72H8.88v-.72Zm0-.94v.55H8.45v1.11h-.6v.4H9.76v.9h.43v-.9h1.45v-.4H10.19v-.72h1.17v-.39H10.19v-.55h1.29v-.4H9a1.7,1.7,0,0,0,.12-.3l-.46-.11a2.45,2.45,0,0,1-.9,1.28l.28.35a3.29,3.29,0,0,0,.75-.82Z"/><path class="cls-2" d="M13.11,30h0a2.75,2.75,0,0,0,.34.53l.12-.23h0v.4H12.3v-.47h0l.14.29a1.93,1.93,0,0,0,.34-.48h0v.52h.31Zm-.81-.59v-.55H12v2.36h.34v-.17h1.29v.17h.35V28.87h-.35v.55h-.48v-.6H12.8v.6ZM14.12,29a.64.64,0,0,0,.12-.14h0V29h1.07v-.19l.16.14.21-.42a2.39,2.39,0,0,1-.78-1.06h-.39a2.48,2.48,0,0,1-.53,1v-.15H13.2v-.26h.74v-.34H13.2v-.26h-.37v.86h-.4v-.69h-.37v.69h-.22v.36H14Zm-.53.77v.47a1.8,1.8,0,0,1-.39-.47Zm-.85,0a2,2,0,0,1-.44.51v-.51Zm1.64-1.09a4,4,0,0,0,.36-.71,3.48,3.48,0,0,0,.42.71Zm-.34.71v.37h.26v1.51h.37V29.72h.44v.74c0,.07,0,.07-.1.07h-.23l.06.41h.33c.17,0,.31-.06.31-.34V29.35Zm-1.64-.48a2.64,2.64,0,0,1,.08.48l.25-.05a3.7,3.7,0,0,0-.08-.48Zm.9-.05a4.2,4.2,0,0,1-.08.47l.23.06a4.37,4.37,0,0,0,.08-.48Z"/><path class="cls-2" d="M18.81,27.49v.73h-1v.43h1v2.07c0,.08,0,.09-.14.09h-.61l.1.41h.61c.3,0,.47,0,.47-.36V28.65h.33v-.43h-.33v-.73Zm-2.88,1.58a5.16,5.16,0,0,1,.75.69,3,3,0,0,1-.89,1l.28.37a3.56,3.56,0,0,0,.91-1,5,5,0,0,1,.43.64l.34-.27a4.39,4.39,0,0,0-.58-.78,6.4,6.4,0,0,0,.32-1.2h.24v-.41H17v-.6h-.42v.6h-.75v.41h1.21a4.31,4.31,0,0,1-.21.87,5.64,5.64,0,0,0-.63-.58Zm1.76.11a5.17,5.17,0,0,1,.51,1.06l.4-.2A5.1,5.1,0,0,0,18.07,29Z"/><path class="cls-2" d="M21.51,28.59V29h-1v-.37ZM20,30.6a4.9,4.9,0,0,0,1.53-.53l0,.14a5.7,5.7,0,0,1-1.76.58l.13.35a6.35,6.35,0,0,0,1.69-.61c0,.24,0,.3-.24.3h-.35l.09.4h.36c.22,0,.54,0,.54-.58a1.68,1.68,0,0,0-.29-.93,1.3,1.3,0,0,0-.17-.17c.17-.08.31-.17.48-.27a2.15,2.15,0,0,0,1.32,1.85l.26-.36a3.2,3.2,0,0,1-.77-.52,4.56,4.56,0,0,0,.64-.46l-.33-.28a3.71,3.71,0,0,1-.54.42,2.07,2.07,0,0,1-.2-.65h.89v-1h-.92a2.68,2.68,0,0,0,.25-.25V27.7H21.27a.65.65,0,0,0,.12-.15L21,27.46a2.25,2.25,0,0,1-1.19.74l.16.35a.67.67,0,0,0,.18-.07v.8h1.32a6,6,0,0,1-1.51.41l.14.33a6.26,6.26,0,0,0,1.17-.32l.11.11a4.17,4.17,0,0,1-1.47.44Zm.55-2.33a3,3,0,0,0,.39-.25h1.15a2.06,2.06,0,0,1-.26.25Zm2.39.32V29H21.89v-.37Z"/></g></g></svg>