<svg id="period_campaign_sp.svg" xmlns="http://www.w3.org/2000/svg" width="447.156" height="64.312" viewBox="0 0 447.156 64.312">
  <defs>
    <style>
      .cls-1, .cls-2 {
        fill: #fff;
      }

      .cls-1, .cls-3 {
        fill-rule: evenodd;
      }

      .cls-3 {
        fill: #f21f28;
      }
    </style>
  </defs>
  <path id="_2021年4月30日_金_23:59まで" data-name="2021年4月30日（金） 23:59まで" class="cls-1" d="M163.411,444.18c1.8-3,3.669-4.405,5.871-4.405a2.79,2.79,0,0,1,2.874,3c0,2.65-2.6,6.257-12.842,17.843h19.477v-5.426h-7.675c5.6-6.7,6.727-8.81,6.727-12.512,0-4.98-3.394-8.331-8.47-8.331a10.152,10.152,0,0,0-8.469,4.341Zm28.475-9.831a8.042,8.042,0,0,0-6.879,3.671c-1.5,2.2-2.233,5.458-2.233,9.735a18.925,18.925,0,0,0,1.8,9,8.113,8.113,0,0,0,7.217,4.373c5.931,0,9.2-4.724,9.2-13.374a19.372,19.372,0,0,0-1.773-9.033A8.169,8.169,0,0,0,191.886,434.349Zm0,5.426c2.294,0,3.425,2.617,3.425,7.948q0,7.947-3.394,7.948c-2.355,0-3.455-2.554-3.455-8.044C188.462,442.392,189.593,439.775,191.886,439.775Zm15.144,4.405c1.8-3,3.669-4.405,5.871-4.405a2.79,2.79,0,0,1,2.874,3c0,2.65-2.6,6.257-12.842,17.843H222.41v-5.426h-7.674c5.595-6.7,6.726-8.81,6.726-12.512,0-4.98-3.394-8.331-8.469-8.331a10.155,10.155,0,0,0-8.47,4.341Zm19.685-5.331,0.7,5.427,4.281-3.128v19.47h5.687V434.86h-5.045Zm28.075-3.191a22.07,22.07,0,0,0,.642-2.139l-5.168-.575a18.852,18.852,0,0,1-6.054,9.161l3.272,4.66c0.55-.51.826-0.766,1.254-1.213v6.48h-4.067v5.043H258.49v6.575h5.228v-6.575h9.968v-5.043h-9.968V448.3h7.95V443.35h-7.95v-2.585h8.929v-5.107H254.79Zm3.7,5.107v2.585H250.6a26.546,26.546,0,0,0,1.773-2.585h6.116Zm0,7.532v3.735h-4.77V448.3h4.77Zm33.941,12.321v-4.884h2.875v-5.2h-2.875V434.86h-5.412L276.5,450.883v4.851h10.335v4.884h5.595Zm-10.365-10.086,4.77-7.437v7.437h-4.77Zm42.158-16.183H301.353v13.438c0,4.883-1.192,9.384-3.241,12.32l4.525,3.8a23.737,23.737,0,0,0,3.394-9.672h12.934v2.937a0.809,0.809,0,0,1-.887.925h-5.167l0.856,5.554h7.553a2.91,2.91,0,0,0,2.9-3.1v-26.2Zm-17.765,5.33h12.506v2.3H306.459v-2.3Zm0,7.214h12.506v2.394H306.459v-2.394Zm24.751-4.15a7.706,7.706,0,0,1,5.962-2.968c1.682,0,2.844.958,2.844,2.362,0,1.6-1.254,2.554-3.333,2.554h-2.538v4.851h2.966c2.722,0,4.22.99,4.22,2.809,0,2.075-1.774,3.32-4.678,3.32a11,11,0,0,1-6.605-2.011l-1.59,5.266a14.967,14.967,0,0,0,8.195,2.2c6.329,0,10.365-3.16,10.365-8.14,0-2.936-1.131-4.787-3.883-6.415a5.6,5.6,0,0,0,2.538-4.948c0-4.277-3.425-7.277-8.287-7.277a11.435,11.435,0,0,0-8.133,3.287Zm28.974-8.394a8.043,8.043,0,0,0-6.88,3.671c-1.5,2.2-2.232,5.458-2.232,9.735,0,3.8.611,6.83,1.8,9a8.111,8.111,0,0,0,7.216,4.373c5.932,0,9.2-4.724,9.2-13.374a19.371,19.371,0,0,0-1.774-9.033A8.169,8.169,0,0,0,360.184,434.349Zm0,5.426c2.293,0,3.424,2.617,3.424,7.948q0,7.947-3.394,7.948c-2.354,0-3.455-2.554-3.455-8.044C356.759,442.392,357.89,439.775,360.184,439.775Zm14.872-5.33v28.216h24.981V434.445H375.056Zm5.289,11.331v-6.1h14.28v6.1h-14.28Zm0,5.075h14.28v6.543h-14.28v-6.543Zm43.449,12.767a24.73,24.73,0,0,1,0-30.259h-4.281a24.392,24.392,0,0,0,0,30.259h4.281Zm8.334-17.778H438.3v1.723H427.419v5.012H438.3v5.266h-1.773a30.95,30.95,0,0,0-1.743-5.171l-4.984,1.373a35.81,35.81,0,0,1,1.406,3.8h-4.525v5.011h28.192v-5.011H450.29c0.734-1.787,1.193-2.936,1.468-3.83l-5.015-1.436h7.492v-5.012H443.288V445.84h6.3v-1.947c0.734,0.415,1.926,1.021,3.914,1.947l2.354-5.522a32.067,32.067,0,0,1-12.23-7.182h-5.412c-2.324,2.809-7.155,5.618-12.292,7.15l2.354,5.362a40.543,40.543,0,0,0,3.853-1.819v2.011Zm4.617-4.788a26.005,26.005,0,0,0,4.158-3.8,32.1,32.1,0,0,0,4.281,3.8h-8.439Zm9.876,11.523a40.527,40.527,0,0,1-1.559,5.266h-1.774v-5.266h3.333Zm15.321,11.043a24.506,24.506,0,0,0,0-30.259h-4.311a24.734,24.734,0,0,1,0,30.259h4.311Zm-298.531,15.62c1.8-3,3.669-4.4,5.871-4.4a2.79,2.79,0,0,1,2.874,3c0,2.649-2.6,6.256-12.842,17.843h19.477v-5.426h-7.675c5.6-6.7,6.727-8.81,6.727-12.513,0-4.979-3.394-8.331-8.47-8.331a10.154,10.154,0,0,0-8.469,4.341Zm21.9-1.436a7.706,7.706,0,0,1,5.963-2.968c1.682,0,2.843.957,2.843,2.362,0,1.6-1.253,2.553-3.332,2.553h-2.538V484.6h2.966c2.721,0,4.219.989,4.219,2.809,0,2.074-1.773,3.319-4.678,3.319a10.992,10.992,0,0,1-6.605-2.011l-1.59,5.267a14.966,14.966,0,0,0,8.2,2.2c6.329,0,10.365-3.16,10.365-8.139,0-2.936-1.131-4.788-3.883-6.416a5.6,5.6,0,0,0,2.538-4.947c0-4.277-3.424-7.278-8.286-7.278a11.437,11.437,0,0,0-8.134,3.288Zm20.428-1.309v5.937h5.687v-5.937h-5.687Zm0,13.247v5.937h5.687V489.74h-5.687Zm25.913-19.822H216.7V485.3h4.617a3.426,3.426,0,0,1,2.935-1.372,3.181,3.181,0,0,1,3.456,3.287c0,2.235-1.682,3.543-4.526,3.543a12.329,12.329,0,0,1-6.543-1.947L215.3,494.24a17.008,17.008,0,0,0,7.919,1.947c6.237,0,10.182-3.511,10.182-9.065a8.3,8.3,0,0,0-8.714-8.618,10,10,0,0,0-2.569.351v-3.511h9.54v-5.426Zm7.506,25.631a13.246,13.246,0,0,0,4.128.638c7.308,0,11.864-5.649,11.864-14.682,0-3.894-.857-6.895-2.6-8.969a8.736,8.736,0,0,0-6.849-3.129c-5.167,0-9.02,3.99-9.02,9.353,0,4.947,3.425,8.554,8.1,8.554a7.353,7.353,0,0,0,3.944-1.117c-0.795,3.1-2.568,4.532-5.656,4.532a10.436,10.436,0,0,1-3.914-.8v5.618Zm6.7-20.715a3.687,3.687,0,0,1-.061,7.373,3.412,3.412,0,0,1-3.425-3.543A3.579,3.579,0,0,1,245.858,474.834Zm30.026-2.554v-2.458h-5.351v2.458H260.2V477h10.335v1.883H260.84v4.629h9.693v1.532a5.359,5.359,0,0,0-1.315-.16c-4.984,0-8.439,2.554-8.439,6.224,0,3.639,3.333,6.129,8.195,6.129,2.629,0,4.647-.7,5.87-2.075a4.057,4.057,0,0,0,.979-2.458l0.061-.383a23.188,23.188,0,0,1,4.892,4.405l3.364-5.139a28.987,28.987,0,0,0-8.226-5.3v-2.777h8.011v-4.629h-8.011V477h8.715V472.28h-8.745Zm-5.32,18.577c0,1.149-.673,1.66-2.233,1.66-1.528,0-2.537-.639-2.537-1.6,0-.926,1.131-1.66,2.629-1.66a6.718,6.718,0,0,1,2.141.415v1.181Zm36.048-9.959a27.1,27.1,0,0,1,3.333,6.065l2.844-1.692a29.12,29.12,0,0,0-3.486-5.937Zm4.1-2.138a27.642,27.642,0,0,1,3.456,6l2.843-1.564a29.372,29.372,0,0,0-3.577-5.905Zm-21.22-.734c1.1-.128,1.743-0.192,2.966-0.32,1.8-.191,3.669-0.383,5.137-0.542l1.957-.192,1.315-.127c-3.883,2.777-5.993,6.479-5.993,10.437,0,4.437,2.721,7.661,7.583,8.937,2.507,0.639,4.77.862,9.876,0.862l0.7-6.033c-1.223.1-1.957,0.128-3.149,0.128a24.337,24.337,0,0,1-6.452-.7c-2.018-.607-3.027-1.819-3.027-3.607,0-4.213,4.556-9.1,9.632-10.342a18.494,18.494,0,0,1,3.088-.255c0.367,0,.367,0,2.385.032l-0.153-5.554-2.966.1c-5.809.159-9.387,0.351-16.634,0.8-4.494.351-4.861,0.351-6.543,0.383Z" transform="translate(-20 -432.938)"/>
  <rect id="角丸長方形_4" data-name="角丸長方形 4" class="cls-2" y="14.062" width="119.781" height="34" rx="17" ry="17"/>
  <path id="応募締切" class="cls-3" d="M53.99,473.909a35.828,35.828,0,0,0-2.376-10.332l-3.507,1.084a24.96,24.96,0,0,1,1.546,4.768l0.069,0.337,0.023,0.1-2.768-.626c-0.046,1.493-.092,2.7-0.139,2.865a0.444,0.444,0,0,1-.577.41h-0.3c-0.531,0-.669-0.121-0.669-0.626v-7.9H41.509v10.067a1.875,1.875,0,0,0,1.961,2.192h2.976c2.607,0.168,3.161-.723,3.461-5.443a33,33,0,0,1,.438,3.877ZM42.455,458.76l-1.661,2.36a19.794,19.794,0,0,1,5.929,3.3l2.33-3.011a19.9,19.9,0,0,0-4.614-2.649H53.69v-3.805H45.223V453.2h-3.9v1.758H33.065v10.693a20.408,20.408,0,0,1-1.5,7.683l3.045,3.082c1.407-2.432,2.192-6.261,2.261-10.982V458.76h5.583Zm-2.976,16.112A28.02,28.02,0,0,0,41,465.022l-2.953-.53a23.625,23.625,0,0,1-1.73,8.983Zm38.758-5.443a11.025,11.025,0,0,1-4.406-1.9H77.8v-2.818H66.632l0.3-.6h9.044v-6.551H73.184v-0.674H77.8v-2.818H73.184v-0.819H69.331v0.819H64.6v-0.819H60.818v0.819H55.9v2.818h4.914v0.674H57.75v6.551h5.191a3.559,3.559,0,0,1-.346.6H55.9v2.818h3.622a12.582,12.582,0,0,1-3.968,1.565l1.569,3.492a19,19,0,0,0,2.792-1.252V471.6h3.207a9.557,9.557,0,0,1-5.652,1.493l1.361,3.323c4.153-.385,7.013-2.023,8.536-4.816h2.7c0,1.276-.115,1.493-0.761,1.493l-2.63-.024,0.508,3.2h4.06c1.8-.072,2.515-1.252,2.768-4.5a13.716,13.716,0,0,0,2.584,1.229Zm-9.851-.554c0.023-.12.046-0.192,0.092-0.385l0.069-.458-3.461-.168a5.247,5.247,0,0,1-.208,1.011h-1.43a11.52,11.52,0,0,0,1.292-1.348h4.291a6.688,6.688,0,0,0,1.154,1.348h-1.8Zm0.946-11.319H64.6v-0.674h4.73v0.674Zm2.861,1.83v0.747H61.51v-0.747H72.192Zm0,2.216v0.747H61.51V461.6H72.192Zm10.995,14.643h2.861V466.106l0.277-.024,0.3-.049,0.092-.024v0.1l0.069,0.554,0.046,0.409,2.653-.891-0.115-.506-0.046-.241h0.392v9.345h3v-7.057H93.66v8.526h3.115v-4.937l0.738,3.468h1.546c1.13,0.1,1.753-.651,1.73-2.047v-7.3h1.038v-5.876H99.913a1.259,1.259,0,0,0,.093-0.265,4.234,4.234,0,0,0,.161-0.506l0.162-.578,0.069-.24h1.638v-3.252h-4.96v-1.372H93.337v1.372H88.516v1.807l-2.469-.867c-0.577,1.131-1.13,2.1-1.869,3.323-0.254-.289-0.392-0.482-0.623-0.747a20.435,20.435,0,0,0,2.261-4.383l-3.045-.6a21.832,21.832,0,0,1-1.2,2.938,1.513,1.513,0,0,0-.254-0.216l-0.231-.217-1.407,3.516a12.767,12.767,0,0,1,2.538,2.721c-0.554.795-.761,1.06-0.969,1.325-0.6.024-1.015,0.024-1.246,0.024l0.231,3.516c0.738-.072.854-0.1,2.953-0.337v9.73Zm5.329-18.279h1.569l0.023,0.12c0.023,0.072.046,0.12,0.092,0.289l0.231,0.915c0,0.024.023,0.121,0.046,0.265h-1.8v3.4a16.306,16.306,0,0,0-.761-2.216l-2.169.747c0.231,0.7.346,1.156,0.461,1.637-0.185,0-.484.024-1.892,0.1a48.861,48.861,0,0,0,4.2-5.708v0.458Zm3.461,6.526v-1.686H93.66v1.686H91.976Zm4.8-1.686h1.707v1.686H96.775v-1.686Zm0,8.237v-3.324h0.946v2.866c0,0.386-.069.458-0.415,0.458H96.775ZM96.8,457.966c-0.138.674-.3,1.276-0.392,1.589H94.03c-0.069-.361-0.092-0.433-0.323-1.349l-0.069-.24H96.8Zm-16.4,9.44a22.322,22.322,0,0,1-.784,5.828l2.307,1.807a31.692,31.692,0,0,0,.761-7.322Zm6.114,0.361a37.185,37.185,0,0,1,.346,5.106v0.506l2.238-.385a33.516,33.516,0,0,0-.554-5.564Zm25.344,8.911a15.462,15.462,0,0,0,6.921-8.718,42.1,42.1,0,0,0,1.015-9.9h1.8v0.8c-0.023,7.056-.162,10.331-0.554,12.282-0.208.963-.461,1.18-1.269,1.156h-2.745l0.715,3.974h3.622c1.938,0,2.838-.554,3.3-2.047,0.531-1.59.831-6.912,0.831-14.571l-0.023-4.768v-0.771H112.453v3.95h3.483c0,6.984-.622,9.73-2.7,12.09a27.361,27.361,0,0,0,.6-4.408l-2.815-.626c-0.161,2.987-.207,3.276-0.6,3.324h-0.531c-0.3,0-.369-0.1-0.346-0.41v-4.72l4.014-1.011-0.254-3.95-3.76.963v-5.9h-3.784v6.864l-1.684.433,0.092,3.974,1.592-.41v5.8a2.3,2.3,0,0,0,1.984,2.385h2.723a0.828,0.828,0,0,0,.23-0.024,9.555,9.555,0,0,1-1.638.987Z" transform="translate(-20 -432.938)"/>
</svg>
