<svg id="period_campaign.svg" xmlns="http://www.w3.org/2000/svg" width="451.812" height="26" viewBox="0 0 451.812 26">
  <defs>
    <style>
      .cls-1, .cls-3 {
        fill: #fff;
      }

      .cls-2 {
        fill: #f21f28;
      }

      .cls-2, .cls-3 {
        fill-rule: evenodd;
      }
    </style>
  </defs>
  <rect id="角丸長方形_4" data-name="角丸長方形 4" class="cls-1" width="91.031" height="26" rx="13" ry="13"/>
  <path id="応募締切" class="cls-2" d="M441.835,414.577a27.562,27.562,0,0,0-1.806-7.9l-2.666.828a19.146,19.146,0,0,1,1.175,3.647l0.053,0.257,0.017,0.074-2.1-.478c-0.035,1.141-.07,2.062-0.105,2.191a0.338,0.338,0,0,1-.439.313h-0.228c-0.4,0-.508-0.092-0.508-0.479v-6.04h-2.876v7.7a1.431,1.431,0,0,0,1.491,1.676H436.1c1.981,0.129,2.4-.553,2.63-4.163a25.444,25.444,0,0,1,.333,2.966Zm-8.768-11.584-1.262,1.805a15.019,15.019,0,0,1,4.506,2.523l1.771-2.3a15.085,15.085,0,0,0-3.507-2.026h7.032v-2.91h-6.436v-1.344h-2.963v1.344H425.93v8.177a15.656,15.656,0,0,1-1.14,5.875l2.315,2.358c1.07-1.86,1.666-4.789,1.719-8.4v-5.1h4.243Zm-2.262,12.321a21.538,21.538,0,0,0,1.157-7.532l-2.244-.406a18.179,18.179,0,0,1-1.315,6.87Zm29.459-4.162a8.353,8.353,0,0,1-3.35-1.455h3.016v-2.155h-8.487l0.228-.46h6.874v-5.01h-2.122v-0.515h3.507V399.4h-3.507v-0.626H453.5V399.4h-3.6v-0.626h-2.876V399.4h-3.735v2.155h3.735v0.515h-2.332v5.01h3.946a2.809,2.809,0,0,1-.263.46h-5.086V409.7h2.753a9.529,9.529,0,0,1-3.016,1.2l1.193,2.671a14.6,14.6,0,0,0,2.122-.958v0.2h2.437a7.221,7.221,0,0,1-4.3,1.142l1.034,2.542c3.157-.3,5.331-1.548,6.488-3.684h2.052c0,0.976-.088,1.142-0.579,1.142l-2-.018,0.386,2.449h3.086c1.368-.055,1.912-0.957,2.105-3.444a10.326,10.326,0,0,0,1.963.939Zm-7.488-.424c0.018-.092.035-0.147,0.07-0.294l0.053-.35-2.631-.129a4.008,4.008,0,0,1-.157.773h-1.088a8.718,8.718,0,0,0,.982-1.031h3.262a5.081,5.081,0,0,0,.877,1.031h-1.368Zm0.719-8.656h-3.6v-0.515h3.6v0.515Zm2.174,1.4v0.571h-8.118v-0.571h8.118Zm0,1.694v0.571h-8.118v-0.571h8.118Zm8.357,11.2H466.2V408.61l0.211-.018,0.228-.037,0.07-.018v0.073l0.052,0.424,0.035,0.313,2.017-.681-0.088-.387-0.035-.185h0.3v7.146h2.28v-5.4h0.719v6.52h2.367v-3.776l0.561,2.652h1.175c0.859,0.074,1.333-.5,1.315-1.565v-5.581h0.789V403.6h-1.455a0.984,0.984,0,0,0,.07-0.2,3.279,3.279,0,0,0,.123-0.388l0.123-.441,0.052-.185h1.245V399.9h-3.77v-1.05h-2.841v1.05h-3.665v1.381l-1.876-.663c-0.438.866-.859,1.6-1.42,2.542-0.193-.221-0.3-0.368-0.474-0.571a15.646,15.646,0,0,0,1.719-3.352l-2.315-.46a16.7,16.7,0,0,1-.912,2.247,1.1,1.1,0,0,0-.192-0.166l-0.176-.166-1.07,2.689a9.708,9.708,0,0,1,1.929,2.081c-0.421.608-.578,0.81-0.736,1.013-0.456.018-.772,0.018-0.947,0.018l0.175,2.689c0.561-.055.649-0.074,2.245-0.258v7.441Zm4.05-13.979h1.193l0.017,0.093c0.018,0.055.036,0.092,0.071,0.221l0.175,0.7c0,0.018.017,0.092,0.035,0.2H468.2v2.6a12.479,12.479,0,0,0-.578-1.695l-1.649.571c0.176,0.534.263,0.884,0.351,1.252-0.14,0-.368.019-1.438,0.074a37.164,37.164,0,0,0,3.191-4.365v0.35Zm2.631,4.991v-1.289h1.28v1.289h-1.28Zm3.647-1.289h1.3v1.289h-1.3v-1.289Zm0,6.3v-2.541h0.719v2.192c0,0.294-.053.349-0.316,0.349h-0.4Zm0.018-10c-0.106.516-.228,0.977-0.3,1.216h-1.806c-0.052-.276-0.07-0.332-0.245-1.031l-0.053-.185h2.4Zm-12.468,7.22a17.151,17.151,0,0,1-.6,4.456l1.753,1.382a24.329,24.329,0,0,0,.579-5.6Zm4.647,0.276a28.654,28.654,0,0,1,.263,3.9v0.387l1.7-.3a25.77,25.77,0,0,0-.421-4.254Zm19.263,6.814a11.811,11.811,0,0,0,5.261-6.667,32.4,32.4,0,0,0,.772-7.569h1.367v0.608c-0.017,5.4-.122,7.9-0.421,9.392-0.157.737-.35,0.9-0.964,0.884h-2.087l0.544,3.039h2.753c1.473,0,2.157-.423,2.507-1.565,0.4-1.216.632-5.286,0.632-11.142l-0.018-3.647v-0.589h-9.89v3.02h2.648c0,5.341-.473,7.44-2.051,9.245a21.04,21.04,0,0,0,.455-3.37l-2.139-.479c-0.123,2.284-.158,2.5-0.456,2.542h-0.4c-0.228,0-.281-0.074-0.263-0.313v-3.61l3.051-.774-0.193-3.02-2.858.737v-4.512h-2.876v5.249l-1.28.331,0.07,3.039,1.21-.314v4.439a1.753,1.753,0,0,0,1.508,1.823h2.069a0.648,0.648,0,0,0,.176-0.018,7.364,7.364,0,0,1-1.245.755Z" transform="translate(-416 -394)"/>
  <path id="_2021年4月30日_金_23:59まで" data-name="2021年4月30日（金）23:59まで" class="cls-3" d="M518.659,403.314c1.372-2.294,2.789-3.368,4.462-3.368a2.127,2.127,0,0,1,2.185,2.294c0,2.026-1.975,4.784-9.761,13.645h14.8v-4.15h-5.833c4.253-5.126,5.113-6.737,5.113-9.568a6.061,6.061,0,0,0-6.438-6.371,7.7,7.7,0,0,0-6.437,3.32ZM540.3,395.8a6.106,6.106,0,0,0-5.23,2.807c-1.138,1.684-1.7,4.174-1.7,7.445a14.547,14.547,0,0,0,1.371,6.883,6.161,6.161,0,0,0,5.485,3.344c4.508,0,7-3.613,7-10.227a14.9,14.9,0,0,0-1.348-6.908A6.2,6.2,0,0,0,540.3,395.8Zm0,4.15c1.743,0,2.6,2,2.6,6.077q0,6.078-2.579,6.078c-1.79,0-2.626-1.952-2.626-6.151C537.7,401.947,538.559,399.946,540.3,399.946Zm11.51,3.368c1.371-2.294,2.789-3.368,4.462-3.368a2.127,2.127,0,0,1,2.185,2.294c0,2.026-1.976,4.784-9.761,13.645h14.8v-4.15H557.67c4.252-5.126,5.112-6.737,5.112-9.568a6.06,6.06,0,0,0-6.437-6.371,7.7,7.7,0,0,0-6.438,3.32Zm14.962-4.076,0.534,4.149L570.563,401v14.89h4.322v-19.7h-3.834Zm21.338-2.441a16.605,16.605,0,0,0,.488-1.636l-3.927-.439a14.42,14.42,0,0,1-4.6,7l2.487,3.564c0.418-.39.627-0.586,0.953-0.927v4.954h-3.091v3.857h10.5V418.2H594.9v-5.028h7.576v-3.857H594.9v-2.855h6.042v-3.784H594.9V400.7h6.786v-3.9H588.113Zm2.812,3.9v1.977h-6a20.258,20.258,0,0,0,1.347-1.977h4.648Zm0,5.761v2.855H587.3v-2.855h3.625Zm25.8,9.422V412.15h2.184v-3.979h-2.184V396.187H612.61l-8,12.253v3.71h7.856v3.735h4.253Zm-7.879-7.714,3.626-5.687v5.687h-3.626ZM640.888,395.8H623.505v10.276a17.04,17.04,0,0,1-2.464,9.422l3.44,2.9a18.2,18.2,0,0,0,2.579-7.4h9.831v2.245a0.618,0.618,0,0,1-.674.708h-3.928l0.651,4.247h5.74a2.22,2.22,0,0,0,2.208-2.368V395.8Zm-13.5,4.076h9.5v1.758h-9.5v-1.758Zm0,5.517h9.5v1.83h-9.5v-1.83Zm18.812-3.173a5.844,5.844,0,0,1,4.532-2.27,1.91,1.91,0,0,1,2.161,1.806c0,1.22-.953,1.953-2.533,1.953h-1.929v3.71h2.254c2.069,0,3.207.756,3.207,2.147,0,1.587-1.348,2.539-3.555,2.539a8.317,8.317,0,0,1-5.02-1.538l-1.209,4.028a11.323,11.323,0,0,0,6.229,1.684c4.81,0,7.878-2.417,7.878-6.224a5.163,5.163,0,0,0-2.951-4.906,4.291,4.291,0,0,0,1.928-3.784c0-3.27-2.6-5.565-6.3-5.565a8.662,8.662,0,0,0-6.182,2.514Zm22.022-6.42a6.1,6.1,0,0,0-5.229,2.807c-1.139,1.684-1.7,4.174-1.7,7.445a14.547,14.547,0,0,0,1.371,6.883,6.161,6.161,0,0,0,5.485,3.344c4.509,0,7-3.613,7-10.227a14.9,14.9,0,0,0-1.347-6.908A6.2,6.2,0,0,0,668.22,395.8Zm0,4.15c1.743,0,2.6,2,2.6,6.077q0,6.078-2.58,6.078c-1.789,0-2.626-1.952-2.626-6.151C665.617,401.947,666.477,399.946,668.22,399.946Zm11.3-4.077v21.578h18.988V395.869H679.523Zm4.021,8.666v-4.663H694.4v4.663H683.544Zm0,3.88H694.4v5H683.544v-5Zm27.911,9.764a19.008,19.008,0,0,1,0-23.14H708.2a18.74,18.74,0,0,0,0,23.14h3.253Zm6.335-13.6h4.694V405.9h-8.273v3.833h8.273v4.027h-1.348a23.778,23.778,0,0,0-1.325-3.955l-3.788,1.05a27.37,27.37,0,0,1,1.069,2.905h-3.439v3.832H735.08v-3.832h-3.486c0.558-1.367.907-2.246,1.116-2.929l-3.812-1.1h5.694V405.9h-8.32v-1.318h4.788v-1.489c0.557,0.317,1.464.782,2.974,1.489l1.79-4.222a24.338,24.338,0,0,1-9.3-5.492h-4.114c-1.766,2.147-5.438,4.3-9.342,5.467l1.789,4.1a30.686,30.686,0,0,0,2.929-1.392v1.538Zm3.509-3.661a19.78,19.78,0,0,0,3.16-2.905,24.45,24.45,0,0,0,3.254,2.905H721.3Zm7.506,8.812a30.945,30.945,0,0,1-1.185,4.027h-1.348v-4.027h2.533Zm11.645,8.445a18.83,18.83,0,0,0,0-23.14h-3.277a19,19,0,0,1,0,23.14h3.277Zm10.621-14.865c1.371-2.294,2.788-3.368,4.462-3.368a2.127,2.127,0,0,1,2.184,2.294c0,2.026-1.975,4.784-9.761,13.645h14.8v-4.15h-5.833c4.253-5.126,5.113-6.737,5.113-9.568A6.061,6.061,0,0,0,755.6,395.8a7.7,7.7,0,0,0-6.437,3.32Zm16.648-1.1a5.844,5.844,0,0,1,4.532-2.27,1.911,1.911,0,0,1,2.162,1.806c0,1.22-.953,1.953-2.534,1.953H769.95v3.71h2.255c2.068,0,3.207.756,3.207,2.147,0,1.587-1.348,2.539-3.556,2.539a8.32,8.32,0,0,1-5.02-1.538l-1.208,4.028a11.32,11.32,0,0,0,6.228,1.684c4.811,0,7.879-2.417,7.879-6.224a5.162,5.162,0,0,0-2.952-4.906,4.289,4.289,0,0,0,1.929-3.784c0-3.27-2.6-5.565-6.3-5.565a8.661,8.661,0,0,0-6.182,2.514Zm15.527-1v4.54h4.322v-4.54h-4.322Zm0,10.129v4.541h4.322v-4.541h-4.322Zm19.7-15.157H791.577v11.765h3.509a2.6,2.6,0,0,1,2.231-1.05,2.424,2.424,0,0,1,2.626,2.514c0,1.709-1.278,2.71-3.439,2.71a9.337,9.337,0,0,1-4.974-1.489l-1.022,4.149a12.866,12.866,0,0,0,6.019,1.489c4.741,0,7.739-2.685,7.739-6.932a6.331,6.331,0,0,0-6.623-6.591,7.573,7.573,0,0,0-1.953.269v-2.685h7.251v-4.149Zm5.7,19.6a10.01,10.01,0,0,0,3.138.488c5.554,0,9.017-4.32,9.017-11.228,0-2.978-.651-5.272-1.975-6.859a6.624,6.624,0,0,0-5.206-2.392,6.829,6.829,0,0,0-6.856,7.152c0,3.783,2.6,6.542,6.159,6.542a5.569,5.569,0,0,0,3-.855c-0.605,2.368-1.953,3.466-4.3,3.466a7.9,7.9,0,0,1-2.975-.61v4.3Zm5.09-15.841a2.82,2.82,0,0,1-.046,5.638,2.6,2.6,0,0,1-2.6-2.71A2.728,2.728,0,0,1,813.736,399.946Zm22.822-1.953v-1.88H832.49v1.88h-7.855v3.612h7.855v1.44h-7.367v3.54h7.367v1.171a4.08,4.08,0,0,0-1-.122c-3.788,0-6.414,1.953-6.414,4.76,0,2.782,2.533,4.687,6.228,4.687a5.745,5.745,0,0,0,4.462-1.587,3.111,3.111,0,0,0,.744-1.88l0.047-.293a17.676,17.676,0,0,1,3.718,3.369l2.556-3.93a22.022,22.022,0,0,0-6.251-4.052v-2.123h6.089v-3.54h-6.089v-1.44H843.2v-3.612h-6.646ZM832.514,412.2c0,0.878-.512,1.269-1.7,1.269-1.162,0-1.929-.488-1.929-1.22,0-.708.86-1.27,2-1.27a5.065,5.065,0,0,1,1.627.318v0.9Zm27.4-7.616a20.761,20.761,0,0,1,2.533,4.638l2.162-1.294a22.254,22.254,0,0,0-2.65-4.54Zm3.114-1.635a21.126,21.126,0,0,1,2.626,4.589l2.162-1.2a22.521,22.521,0,0,0-2.719-4.516Zm-16.128-.562c0.836-.1,1.324-0.146,2.254-0.244,1.371-.146,2.789-0.293,3.9-0.415l1.488-.146,1-.1c-2.952,2.124-4.555,4.955-4.555,7.982,0,3.393,2.068,5.858,5.763,6.834a27.769,27.769,0,0,0,7.507.659l0.535-4.613c-0.93.073-1.488,0.1-2.394,0.1a18.384,18.384,0,0,1-4.9-.537,2.771,2.771,0,0,1-2.3-2.759c0-3.221,3.463-6.956,7.321-7.908a13.988,13.988,0,0,1,2.347-.195c0.279,0,.279,0,1.813.024l-0.116-4.246-2.255.072c-4.415.122-7.134,0.269-12.642,0.611-3.416.268-3.7,0.268-4.974,0.293Z" transform="translate(-416 -394)"/>
</svg>
