<svg height="116.469" viewBox="0 0 814.376 116.469" width="814.376" xmlns="http://www.w3.org/2000/svg"><path d="m129.8 276.391h6.659v-40.6h8.021v-6.97h-14.68zm64.505-37.038v-7.275h-19.005v-3.409h-8.069v3.409h-19.006v7.275h19.008v1.679h-16.042v20.4h9.771c-3.16 3.1-7.341 5.342-13.709 7.275l4.667 8.446c5.542-2.34 12.59-7.631 15.313-11.447v11.6h8.067v-11.955a39.755 39.755 0 0 0 14.972 11.7l4.764-8.445c-5.59-1.577-10.354-4.07-13.562-7.174h9.965v-20.4h-16.139v-1.679h19.007zm-35.486 7.275h8.41v2.137h-8.41zm25.132 0v2.137h-8.651v-2.137h8.653zm-25.128 7.072h8.41v2.137h-8.41zm25.132 0v2.137h-8.655v-2.137h8.653zm57.51 7.072v-18.972h-38.065v18.977h3.889a34.811 34.811 0 0 1 -8.409 9.158l5.395 6.613a43.766 43.766 0 0 0 7.243-7.631l1.653 8.4h8.264c3.452-.2 4.813-1.832 4.764-5.7v-10.845h8.993l-6.465 3.714a44.73 44.73 0 0 0 11.326 11.956l5.834-7.174a31.406 31.406 0 0 1 -9.82-8.5h5.4zm-29.6 7.631a24.215 24.215 0 0 0 2.43-3.816l-6.416-3.815h10.111v6.308a1.157 1.157 0 0 1 -1.264 1.323zm21-19.587v4.784h-21.053v-4.782h21.049zm12.59-16.84h-19.255v-3.155h-8.458v3.155h-18.374v7.733h46.083v-7.733zm30.089 33.272h-13.518l8.75-10.633a18.779 18.779 0 0 0 4.375-11.8c0-6.614-3.646-10.583-11.813-10.583-8.555 0-12.1 4.935-12.1 12.567h8.7c0-2.646.875-4.376 3.451-4.376s3.063 1.985 3.063 3.409a8.87 8.87 0 0 1 -2.334 5.8l-12.981 15.868v8.039h24.4v-8.293zm18.252-33.019c-6.174 0-12.445 3.256-12.445 10.888v20.2c0 7.631 6.271 10.531 12.347 10.531 6.125 0 12.4-3.2 12.4-10.836v-20.251c-.008-7.632-6.327-10.532-12.306-10.532zm-.1 8.6c2.431 0 3.5 1.476 3.5 3.816v16.993c0 2.645-1.02 3.714-3.4 3.714s-3.549-1.069-3.549-3.714v-16.995c-.004-2.595 1.065-3.816 3.447-3.816zm42.874 24.421h-13.516l8.75-10.633a18.779 18.779 0 0 0 4.375-11.8c0-6.614-3.646-10.583-11.813-10.583-8.555 0-12.1 4.935-12.1 12.567h8.7c0-2.646.875-4.376 3.451-4.376s3.062 1.985 3.062 3.409a8.869 8.869 0 0 1 -2.333 5.8l-12.981 15.866v8.039h24.4v-8.293zm18.252-33.019c-6.174 0-12.445 3.256-12.445 10.888v20.2c0 7.631 6.271 10.531 12.347 10.531 6.125 0 12.4-3.2 12.4-10.836v-20.253c-.006-7.632-6.324-10.532-12.304-10.532zm-.1 8.6c2.431 0 3.5 1.476 3.5 3.816v16.993c0 2.645-1.021 3.714-3.4 3.714s-3.549-1.069-3.549-3.714v-16.997c-.002-2.595 1.067-3.816 3.449-3.816zm38.231 6.615a59.379 59.379 0 0 1 -20.076 15.721l5.007 6.919a56.533 56.533 0 0 0 18.229-15.161l.049 9.819c.048 1.17-.584 1.628-2.139 1.628-.584 0-.632 0-3.549-.152l-1.944-.153 1.264 8.7c2.479.051 3.791.051 5.541.051 3.986 0 5.4-.306 6.952-1.628a7.667 7.667 0 0 0 2.333-5.8l-.049-19.944h10.16v-8.446h-10.208v-7.479h-8.459v7.479h-20.854v8.445h17.743zm40.366-14.754h-8.945v27.066h8.945v-27.07zm22.312-.814h-8.993v21.673c-.146 8.548-4.861 11.549-19.931 12.77l3.306 8.548c18.424-2.036 25.084-7.835 25.618-22.03v-20.965zm9.959 9a61.421 61.421 0 0 1 15.215 7.835l4.473-8.14a62.074 62.074 0 0 0 -15.945-7.275zm2.868 33.629c21.924-3.052 32.473-12.261 38.695-33.731l-7.486-5.342c-5.3 20.1-13.563 27.474-33.2 29.458zm55.532-41.973h-8.75v32.409c.146 5.8 3.306 8.5 9.82 8.394h17.354a46.589 46.589 0 0 0 8.41-.763l-.535-9.209a42.44 42.44 0 0 1 -10.743 1.221h-12.736c-2.48 0-2.82-.305-2.82-2.442v-7.936a112.208 112.208 0 0 0 22.6-8.191l-4.083-8.293a78.873 78.873 0 0 1 -18.521 7.733v-12.922zm26.542-5.138a6.878 6.878 0 1 0 6.468 6.869 6.707 6.707 0 0 0 -6.468-6.865zm-.2 3.51a3.362 3.362 0 1 1 -3.159 3.358 3.29 3.29 0 0 1 3.164-3.357zm9.668 13.686a60.508 60.508 0 0 1 3.84 12.923l7.146-1.73a53.573 53.573 0 0 0 -4.278-13.024zm11.277-2.391a59.842 59.842 0 0 1 3.452 12.821l6.9-1.628a48.431 48.431 0 0 0 -3.646-12.567zm16.431-1.323c-3.257 18.214-8.312 24.014-24.5 27.88l5.444 6.716c15.9-4.375 23.431-13.33 27.369-32.51zm27.848-7.886a29.2 29.2 0 0 1 -11.813 14.144l5.445 6.563a37.556 37.556 0 0 0 11.91-12.465h13.222c-2.188 14.246-12.056 23.4-28.1 26.049l3.452 8.242c21.389-4.121 33.2-18.723 34.465-42.533h-28.576zm45.275-3.307h-6.611v40.6h-8.07v6.97h14.681zm-510.807 107.485v-1.628h3.6v-5.142h-3.6v-1.628h3.6v-5.24h-3.6v-1.577h4.132v-5.8h-2.625a11.2 11.2 0 0 0 1.215-2.7h2.285v-6.513h-8.069c.243-.661.34-1.017.632-1.984h6.706v-6.41h-11.859a28.541 28.541 0 0 0 1.312-3l-7.194-.763a19.667 19.667 0 0 1 -6.077 7.733l4.861 4.426h-4.18v6.513h4.569a27.3 27.3 0 0 1 -5.444 5.036l1.75 8.649c.778-.559.923-.661 1.312-.966v16.992h20.709v-3.459l2.285 4.172c5.007-4.172 6.854-8.446 7.145-16.383h1.75v12.211c.049 2.8 1.07 3.968 3.452 4.019h4.667c3.5 0 4.472-2.239 4.861-11.752l-4.861-1.476c-.049 4.426-.195 5.393-.778 5.393h-.486c-.438 0-.438-.051-.438-1.374v-7.019h4.764v-30.726h-20.42v30.726h1.556c-.146 4.223-1.9 7.734-4.813 9.667h-2.722zm-4.229-23.708c-.292.864-.583 1.577-1.07 2.7h-2.187c.583-.967.972-1.628 1.6-2.7h1.653zm-9.479-6.513a23.557 23.557 0 0 0 1.9-1.984h2.284a13.985 13.985 0 0 1 -.729 1.984h-3.451zm7.389 14.958v1.628h-3.305v-1.628h3.306zm0 6.868v1.625h-3.305v-1.628h3.306zm0 6.767v1.628h-3.305v-1.628h3.306zm25.278-31.849v2.29h-5.983v-2.29h5.98zm0 7.225v2.238h-5.983v-2.238h5.98zm0 7.275v2.29h-5.983v-2.29h5.98zm39.817-10.124v-2.951h-1.6a41.037 41.037 0 0 0 4.035-8.039l-8.07-1.984a56.336 56.336 0 0 1 -2.576 7.377 44.1 44.1 0 0 0 -1.264-7.377l-7.194.662a36.933 36.933 0 0 1 1.7 8.5l6.465-1.018a5.634 5.634 0 0 1 -.291.56 11.72 11.72 0 0 1 -.681 1.323h-13.033l6.125-1.883a67.074 67.074 0 0 0 -3.159-7.733l-7 1.781a44.4 44.4 0 0 1 3.063 7.835h-1.313v22.078h8.507v1.984h-9.914v7.632h9.916v7.021h7.778v-7.021h3.986l4.716 6.817a46.464 46.464 0 0 0 7.194-5.6c1.9 4.121 3.743 5.851 6.174 5.851s5.639-2.544 7.049-5.648l-1.848-9.615c-1.507 2.849-2.965 4.579-3.84 4.579-.583 0-.972-.56-1.507-2.035a48.786 48.786 0 0 0 6.757-12.618l-5.59-3.561 5.444-.407-.146-8.039-4.326.357 5.007-3a49.546 49.546 0 0 0 -4.764-8.649l-5.35 3.252v-3.1h-7.632v1.12c0 .865.048 2.645.1 5.545l.049 5.8zm0 8.038 3.257-.254c.438 5.444.924 9.87 1.507 13.38a24.462 24.462 0 0 1 -3.791 3.256v-3.307h-9.48v-1.982h8.507zm13.612-1.017a24.4 24.4 0 0 1 -2.285 5.8l-.049-.2-.389-5.189v-.2zm-3.112-7.835c-.048-3.765-.048-6.156-.048-7.683a32.257 32.257 0 0 1 3.741 7.428zm-26.007 3.663v2.391h-2.819v-2.391zm0 7.784v2.498h-2.819v-2.5h2.819zm9.139-7.784v2.391h-2.625v-2.391zm0 7.784v2.498h-2.625v-2.5h2.625zm58.624-10.277c4.083-.662 7.535-1.323 11.278-2.239l-4.234-8.086c-8.02 2.747-18.375 4.019-31.6 3.968l1.6 7.988c6.563-.051 7.875-.1 14.438-.611v4.02h-17.638v8.089h17.5c-.292 6.665-5.4 10.328-16.674 12.007l3.5 7.936c14.292-2.8 20.806-8.852 21.632-19.943h14.584v-8.089h-14.388v-5.037zm63.557 6v-8.394h-24.793a45.619 45.619 0 0 0 2.138-7.734l-8.944-.864c-1.215 8.6-4.764 15.313-11.035 20.554l6.221 6.113a34.489 34.489 0 0 0 7.876-9.667h9.138c-.875 12.719-5.3 17.4-18.958 19.893l4.083 7.937c15.9-3.511 22.653-11.346 23.966-27.83h10.305zm8.136-3.307a60.527 60.527 0 0 1 3.841 12.923l7.145-1.73a53.577 53.577 0 0 0 -4.277-13.024zm11.278-2.391a59.9 59.9 0 0 1 3.451 12.821l6.9-1.628a48.431 48.431 0 0 0 -3.646-12.567zm16.431-1.323c-3.257 18.214-8.313 24.014-24.5 27.881l5.442 6.715c15.9-4.375 23.431-13.329 27.368-32.51zm30.589-9.615h-9.236v43.451h9.236v-22.64a86.779 86.779 0 0 1 17.744 10.175l4.52-9.31a105.352 105.352 0 0 0 -22.264-10.226v-11.447zm48.975 3.256c.291-1.221.486-2.035.826-3.918l-8.7-.458c-.341 2.137-.487 2.849-.827 4.376h-10.114v7.479h7.972a44.424 44.424 0 0 1 -10.062 15.576l5.687 6.054c1.216-1.17 3.063-3.663 6.174-8.344 2.917-2.951 5.493-4.375 7.778-4.375a3.2 3.2 0 0 1 2.625 1.119c-8.313 4.172-11.861 8.09-11.861 13.025a8.483 8.483 0 0 0 5.347 7.987c2.965 1.17 7.194 1.73 13.319 1.73.778 0 4.181-.051 10.257-.153l-.043-8.343a91.018 91.018 0 0 1 -12.056.661c-6.368 0-8.069-.611-8.069-3.053 0-1.729 1.215-3 4.472-4.68l.049 1.017c0 1.17-.049 1.73-.195 3.663h7.972c.049-2.34.049-2.34.049-3.307 0-1.628-.049-2.95-.146-4.426a83.4 83.4 0 0 1 10.695-2.9l-1.459-8.191a95.732 95.732 0 0 0 -10.889 3.663c-1.6-3.154-3.743-4.477-7.34-4.477a11.476 11.476 0 0 0 -5.639 1.476 35.128 35.128 0 0 0 1.75-3.714h19.542v-7.479h-17.116zm36.724 10.073 6.173-3.866a61.784 61.784 0 0 0 -7.583-11.8l-7.389 4.528a67.35 67.35 0 0 1 6.952 11.142h-7.924v8.039h36.07v3.51h-34.176v7.835h34.174v3.561h-36.508v8.293h44.626v-31.239h-6.461a78.589 78.589 0 0 0 7.778-11.956l-8.312-3.765a53.731 53.731 0 0 1 -7.292 11.8l6.028 3.917h-8.8v-15.869h-8.6v15.873h-8.75zm40.953-.356c1.75-.2 2.771-.305 4.715-.509 2.868-.3 5.834-.61 8.167-.865l3.111-.305 2.091-.2c-6.174 4.426-9.528 10.328-9.528 16.636 0 7.072 4.326 12.211 12.055 14.246 3.986 1.017 7.584 1.373 15.7 1.373l1.118-9.615c-1.945.152-3.111.2-5.007.2a38.614 38.614 0 0 1 -10.257-1.119c-3.208-.967-4.813-2.9-4.813-5.749 0-6.716 7.243-14.5 15.313-16.484a29.292 29.292 0 0 1 4.91-.407c.583 0 .583 0 3.791.051l-.243-8.853-4.715.153c-9.236.254-14.924.56-26.445 1.272-7.145.559-7.729.559-10.4.61zm71.623 2.747h14.437v-8.9h-14.439v-6.665h-9.042l.1 22.131c-.778-.05-1.167-.05-1.847-.05-8.216 0-14.146 4.578-14.146 10.938 0 6.258 5.2 10.379 13.028 10.379 5.4 0 9.041-1.73 10.694-5.139a7.788 7.788 0 0 0 .875-3.663v-1.17a62.388 62.388 0 0 1 10.743 8.9l5.98-8.8a49.362 49.362 0 0 0 -16.382-9.616v-8.344zm-8.9 17.3c0 1.679-1.313 2.595-3.792 2.595-2.333 0-3.792-.967-3.792-2.493 0-1.882 1.993-3.154 4.959-3.154a9.131 9.131 0 0 1 2.625.407zm37.837-25.743c8.6.153 17.014 1.272 23.236 3.2l1.7-8.6a132.462 132.462 0 0 0 -23.82-2.7zm-5.347 6.36 1.41 9.31c10.159-1.933 15.458-2.747 18.132-2.747 4.18 0 5.784 1.373 5.784 4.985a8.466 8.466 0 0 1 -4.569 7.937c-3.4 1.781-7.2 2.442-16.091 2.8l2.674 8.344c7.486-.356 12.2-1.17 15.993-2.747 7.389-3.053 11.084-8.5 11.084-16.281a15.746 15.746 0 0 0 -2.82-9.615c-2.041-2.544-5.639-3.816-10.743-3.816-3.257 0-3.743.051-17.16 1.475zm43.1-13.584 1.118 28.846h7.243l1.118-28.846zm.34 41.057h8.8v-8.8h-8.8zm39.277-34.6-.629-7.22-8.847.713.681 7.428-14.389 1.424.68 8.395 14.486-1.476.584 6.512-16.483 1.625.729 8.394 16.528-1.628 1.215 13.279 8.847-.611-1.264-13.584 15.9-1.577-.583-8.394-16.042 1.577-.632-6.512 14.389-1.476-.632-8.293zm43.355 16.128 8.264-1.272c-1.167 3.1-2.722 5.036-6.174 7.479l5.882 5.443c6.174-4.629 9.334-11.6 9.334-20.706v-1.018l-18.328 2.447-1.069-7.682-7.827.763 1.07 7.988-8.7 1.119 1.07 7.937 8.653-1.323 2.771 20.859 7.972-1.017zm25.32-13.025a61.446 61.446 0 0 1 15.216 7.835l4.472-8.14a62.108 62.108 0 0 0 -15.945-7.275zm2.868 33.63c21.924-3.053 32.473-12.262 38.695-33.731l-7.486-5.342c-5.3 20.1-13.563 27.473-33.2 29.457zm78.963-44.263a7.363 7.363 0 1 0 6.9 7.326 7.185 7.185 0 0 0 -6.901-7.321zm-.194 3.765a3.59 3.59 0 0 1 .1 7.174 3.592 3.592 0 0 1 -.101-7.169zm-30.869 28.44c1.945-2.595 3.257-4.426 5.347-7.479 5.056-7.479 5.056-7.479 5.98-7.479.68 0 1.312.509 2.576 2.086l18.667 23 6.708-8.242-19.687-22.894c-3.209-3.765-5.153-4.986-7.924-4.986a6.886 6.886 0 0 0 -5.2 2.239c-1.216 1.17-2.091 2.289-6.271 7.631-2.334 2.951-4.084 5.088-6.514 7.937zm42.48-14.042v9.268h41.563v-9.259h-41.564zm45.081-7.53a61.439 61.439 0 0 1 15.215 7.835l4.472-8.14a62.085 62.085 0 0 0 -15.944-7.275zm2.868 33.63c21.923-3.053 32.472-12.262 38.694-33.731l-7.486-5.342c-5.3 20.1-13.562 27.473-33.2 29.457z" fill="#fff" fill-rule="evenodd" transform="translate(-129.812 -227.406)"/></svg>