<svg height="165.531" viewBox="0 0 508.719 165.531" width="508.719" xmlns="http://www.w3.org/2000/svg"><path d="m29.105 281.9h6.32v-38.478h7.612v-6.606h-13.932zm63.983-35.1v-6.9h-18.037v-3.231h-7.658v3.231h-18.038v6.9h18.038v1.591h-15.224v19.334h9.273c-3 2.941-6.966 5.063-13.009 6.9l4.429 8c5.259-2.217 11.948-7.232 14.532-10.848v10.993h7.658v-11.33a37.726 37.726 0 0 0 14.209 11.089l4.521-8c-5.305-1.494-9.826-3.857-12.871-6.8h9.457v-19.341h-15.317v-1.588zm-33.676 6.894h7.981v2.025h-7.981zm23.85 0v2.025h-8.211v-2.025h8.212zm-23.85 6.7h7.981v2.025h-7.981zm23.85 0v2.025h-8.211v-2.025h8.212zm54.577 6.7v-17.983h-36.121v17.989h3.69a32.985 32.985 0 0 1 -7.981 8.679l5.121 6.268a41.516 41.516 0 0 0 6.874-7.232l1.568 7.955h7.843c3.275-.193 4.567-1.736 4.521-5.4v-10.27h8.534l-6.135 3.52a42.365 42.365 0 0 0 10.748 11.33l5.536-6.8a29.782 29.782 0 0 1 -9.318-8.052h5.12zm-28.094 7.232a22.946 22.946 0 0 0 2.306-3.616l-6.089-3.616h9.595v5.979a1.1 1.1 0 0 1 -1.2 1.253h-4.613zm19.929-18.562v4.536h-19.974v-4.532h19.975zm11.948-15.96h-18.268v-2.989h-8.027v2.989h-17.438v7.329h43.733zm28.554 31.532h-12.825l8.3-10.077a17.783 17.783 0 0 0 4.152-11.186c0-6.268-3.46-10.028-11.21-10.028-8.119 0-11.487 4.677-11.487 11.909h8.258c0-2.507.83-4.147 3.275-4.147s2.906 1.881 2.906 3.231a8.4 8.4 0 0 1 -2.214 5.5l-12.317 15.043v7.619h23.158v-7.859zm17.324-31.29c-5.859 0-11.81 3.085-11.81 10.318v19.141c0 7.232 5.951 9.981 11.718 9.981 5.812 0 11.763-3.038 11.763-10.27v-19.19c-.003-7.232-6-9.98-11.671-9.98zm-.092 8.148c2.306 0 3.321 1.4 3.321 3.616v16.1c0 2.507-.969 3.52-3.229 3.52s-3.368-1.013-3.368-3.52v-16.1c-.003-2.459 1.012-3.616 3.273-3.616zm40.686 23.143h-12.827l8.3-10.077a17.778 17.778 0 0 0 4.152-11.186c0-6.268-3.46-10.028-11.21-10.028-8.119 0-11.487 4.677-11.487 11.909h8.258c0-2.507.83-4.147 3.275-4.147s2.907 1.881 2.907 3.231a8.4 8.4 0 0 1 -2.215 5.5l-12.317 15.043v7.618h23.158v-7.859zm17.321-31.291c-5.859 0-11.81 3.085-11.81 10.318v19.141c0 7.232 5.951 9.981 11.718 9.981 5.813 0 11.764-3.038 11.764-10.27v-19.19c-.003-7.232-6.001-9.98-11.675-9.98zm-.092 8.148c2.307 0 3.321 1.4 3.321 3.616v16.1c0 2.507-.968 3.52-3.229 3.52s-3.367-1.013-3.367-3.52v-16.1c-.003-2.459 1.011-3.616 3.272-3.616zm36.281 6.269a56.348 56.348 0 0 1 -19.053 14.9l4.752 6.558a53.657 53.657 0 0 0 17.3-14.369l.046 9.306c.046 1.109-.554 1.543-2.03 1.543-.554 0-.6 0-3.368-.145l-1.845-.144 1.2 8.244c2.353.049 3.6.049 5.259.049 3.783 0 5.121-.29 6.6-1.543a7.262 7.262 0 0 0 2.215-5.5l-.046-18.9h9.641v-8h-9.695v-7.088h-8.027v7.088h-19.79v8h16.837zm38.306-13.983h-8.488v25.651h8.488zm21.175-.771h-8.534v20.54c-.139 8.1-4.614 10.944-18.914 12.1l3.137 8.1c17.484-1.929 23.8-7.425 24.311-20.877zm9.451 8.534a58.334 58.334 0 0 1 14.439 7.425l4.244-7.714a58.964 58.964 0 0 0 -15.131-6.9zm2.722 31.87c20.805-2.893 30.816-11.62 36.721-31.966l-7.1-5.063c-5.036 19.045-12.879 26.036-31.516 27.916zm52.7-39.777h-8.3v30.713c.138 5.5 3.137 8.052 9.318 7.955h16.469a44.294 44.294 0 0 0 7.981-.723l-.507-8.727a40.3 40.3 0 0 1 -10.195 1.157h-12.094c-2.353 0-2.676-.289-2.676-2.314v-7.522a106.6 106.6 0 0 0 21.452-7.762l-3.875-7.859a74.919 74.919 0 0 1 -17.577 7.328v-12.246zm25.189-4.87a6.518 6.518 0 1 0 6.135 6.509 6.361 6.361 0 0 0 -6.139-6.509zm-.185 3.327a3.185 3.185 0 1 1 -3 3.182 3.119 3.119 0 0 1 2.996-3.182zm9.174 12.97a57.272 57.272 0 0 1 3.645 12.246l6.781-1.639a50.7 50.7 0 0 0 -4.06-12.343zm10.7-2.266a56.694 56.694 0 0 1 3.275 12.15l6.551-1.543a45.849 45.849 0 0 0 -3.462-11.904zm15.592-1.254c-3.09 17.261-7.888 22.758-23.25 26.422l5.167 6.364c15.085-4.146 22.235-12.632 25.972-30.809zm26.428-7.473a27.684 27.684 0 0 1 -11.21 13.4l5.166 6.219a35.591 35.591 0 0 0 11.3-11.812h12.548c-2.076 13.5-11.441 22.179-26.665 24.686l3.276 7.811c20.3-3.906 31.508-17.744 32.707-40.308h-27.123zm43.87-3.134h-6.274v38.475h-7.658v6.606h13.932zm-490 98.331v-1.543h3.414v-4.87h-3.41v-1.543h3.414v-4.966h-3.414v-1.5h3.921v-5.5h-2.491a10.623 10.623 0 0 0 1.153-2.556h2.168v-6.171h-7.658c.231-.627.323-.964.6-1.881h6.366v-6.075h-11.256a26.817 26.817 0 0 0 1.246-2.844l-6.828-.724a18.638 18.638 0 0 1 -5.767 7.329l4.613 4.195h-3.967v6.182h4.336a25.9 25.9 0 0 1 -5.166 4.772l1.661 8.2c.738-.53.877-.627 1.246-.916v16.1h19.652v-3.279l2.168 3.954c4.752-3.954 6.5-8 6.781-15.525h1.661v11.571c.046 2.652 1.015 3.761 3.275 3.809h4.429c3.322 0 4.244-2.121 4.613-11.137l-4.613-1.4c-.046 4.2-.184 5.111-.738 5.111h-.461c-.415 0-.415-.048-.415-1.3v-6.653h4.521v-29.123h-19.38v29.122h1.48c-.138 4-1.8 7.328-4.567 9.161h-2.583zm-4.01-22.467c-.277.82-.553 1.5-1.015 2.556h-2.076c.554-.916.923-1.543 1.522-2.556h1.568zm-9-6.171a22.077 22.077 0 0 0 1.8-1.881h2.168a13.323 13.323 0 0 1 -.684 1.879h-3.28zm7.017 14.171v1.543h-3.133v-1.543h3.137zm0 6.509v1.543h-3.133v-1.543h3.137zm0 6.413v1.543h-3.133v-1.543h3.137zm23.989-30.183v2.17h-5.675v-2.17h5.674zm0 6.847v2.121h-5.675v-2.121h5.674zm0 6.894v2.17h-5.675v-2.17h5.674zm37.785-9.594v-2.8h-1.522a38.933 38.933 0 0 0 3.829-7.618l-7.658-1.88a53.464 53.464 0 0 1 -2.445 6.991 41.711 41.711 0 0 0 -1.2-6.991l-6.828.626a34.977 34.977 0 0 1 1.615 8.052l6.136-.964a5.222 5.222 0 0 1 -.277.53 11.043 11.043 0 0 1 -.646 1.254h-12.364l5.813-1.784a63.286 63.286 0 0 0 -3-7.329l-6.643 1.688a42.057 42.057 0 0 1 2.906 7.425h-1.244v20.925h8.073v1.889h-9.411v7.232h9.411v6.654h7.381v-6.654h3.783l4.475 6.461a44.112 44.112 0 0 0 6.827-5.3c1.8 3.906 3.552 5.545 5.859 5.545s5.351-2.411 6.689-5.352l-1.753-9.113c-1.43 2.7-2.814 4.34-3.644 4.34-.554 0-.923-.531-1.43-1.929a46.224 46.224 0 0 0 6.412-11.957l-5.3-3.375 5.167-.386-.139-7.618-4.106.338 4.752-2.845a46.909 46.909 0 0 0 -4.521-8.2l-5.074 3.086v-2.941h-7.243v1.061c0 .819.046 2.507.092 5.255l.046 5.5zm0 7.618 3.091-.242c.415 5.159.877 9.354 1.43 12.681a23.226 23.226 0 0 1 -3.6 3.086v-3.129h-9v-1.881h8.073v-10.51zm12.917-.965a23.1 23.1 0 0 1 -2.168 5.5l-.046-.193-.369-4.918v-.193zm-2.952-7.425c-.046-3.568-.046-5.834-.046-7.28a30.558 30.558 0 0 1 3.552 7.039zm-24.682 3.474v2.266h-2.676v-2.266zm0 7.377v2.362h-2.676v-2.362zm8.673-7.377v2.266h-2.491v-2.266zm0 7.377v2.362h-2.491v-2.362zm55.633-9.74c3.875-.627 7.151-1.254 10.7-2.121l-4.013-7.667c-7.612 2.6-17.438 3.809-29.986 3.761l1.522 7.57c6.228-.048 7.473-.1 13.7-.579v3.811h-16.742v7.667h16.608c-.277 6.316-5.121 9.787-15.823 11.378l3.321 7.522c13.563-2.652 19.745-8.39 20.529-18.9h13.839v-7.667h-13.651v-4.773zm60.316 5.689v-7.955h-23.527a43.224 43.224 0 0 0 2.03-7.329l-8.488-.819c-1.154 8.148-4.521 14.512-10.472 19.478l5.9 5.786a32.7 32.7 0 0 0 7.474-9.161h8.673c-.831 12.054-5.029 16.49-17.992 18.853l3.875 7.521c15.085-3.327 21.5-10.752 22.743-26.374h9.78zm7.721-3.134a57.264 57.264 0 0 1 3.645 12.247l6.781-1.639a50.688 50.688 0 0 0 -4.06-12.343zm10.7-2.266a56.719 56.719 0 0 1 3.275 12.151l6.551-1.543a45.849 45.849 0 0 0 -3.46-11.909zm15.593-1.253c-3.091 17.261-7.889 22.757-23.251 26.422l5.167 6.364c15.085-4.146 22.235-12.632 25.972-30.809zm29.029-9.113h-8.765v41.176h8.765v-21.456a82.354 82.354 0 0 1 16.838 9.643l4.29-8.823a100.033 100.033 0 0 0 -21.128-9.692zm46.476 3.086c.277-1.157.462-1.929.785-3.713l-8.258-.434c-.323 2.025-.461 2.7-.784 4.147h-9.6v7.087h7.566a42.067 42.067 0 0 1 -9.549 14.754l5.4 5.738c1.153-1.109 2.906-3.472 5.859-7.907 2.768-2.8 5.213-4.147 7.381-4.147a3.044 3.044 0 0 1 2.491 1.061c-7.889 3.954-11.256 7.666-11.256 12.343a8.042 8.042 0 0 0 5.074 7.57c2.814 1.109 6.828 1.639 12.641 1.639.738 0 3.967-.048 9.733-.145l-.046-7.907a86.317 86.317 0 0 1 -11.44.627c-6.044 0-7.658-.579-7.658-2.893 0-1.639 1.153-2.845 4.244-4.436l.046.964c0 1.109-.046 1.64-.185 3.472h7.566c.046-2.218.046-2.218.046-3.134 0-1.543-.046-2.8-.138-4.195a79.244 79.244 0 0 1 10.151-2.748l-1.384-7.763a91 91 0 0 0 -10.334 3.472 6.933 6.933 0 0 0 -6.966-4.243 10.9 10.9 0 0 0 -5.351 1.4 33.254 33.254 0 0 0 1.661-3.52h18.545v-7.087h-16.237zm34.851 9.546 5.859-3.664a58.559 58.559 0 0 0 -7.2-11.186l-7.012 4.291a63.808 63.808 0 0 1 6.6 10.559h-7.519v7.62h34.23v3.327h-32.428v7.425h32.431v3.375h-34.643v7.86h42.349v-29.607h-6.136a74.482 74.482 0 0 0 7.382-11.33l-7.889-3.568a50.913 50.913 0 0 1 -6.92 11.186l5.72 3.712h-8.349v-15.043h-8.166v15.043h-8.3zm38.865-.337c1.661-.193 2.63-.289 4.475-.482 2.722-.289 5.536-.579 7.75-.82l2.952-.289 1.984-.193c-5.859 4.195-9.042 9.788-9.042 15.766 0 6.7 4.106 11.572 11.441 13.5 3.783.964 7.2 1.3 14.9 1.3l1.061-9.112c-1.846.144-2.953.193-4.752.193a36.679 36.679 0 0 1 -9.734-1.061c-3.044-.916-4.567-2.748-4.567-5.448 0-6.365 6.874-13.742 14.532-15.622a27.839 27.839 0 0 1 4.659-.386c.554 0 .554 0 3.6.048l-.23-8.389-4.475.145c-8.765.241-14.163.53-25.1 1.2-6.781.53-7.335.53-9.872.579zm67.969 2.6h13.7v-8.438h-13.7v-6.316h-8.58l.092 20.973c-.738-.048-1.107-.048-1.753-.048-7.8 0-13.424 4.339-13.424 10.366 0 5.931 4.936 9.836 12.363 9.836 5.121 0 8.581-1.639 10.149-4.869a7.371 7.371 0 0 0 .83-3.472v-1.105a59.2 59.2 0 0 1 10.2 8.438l5.674-8.341a46.824 46.824 0 0 0 -15.547-9.113v-7.907zm-8.442 16.393c0 1.591-1.245 2.459-3.6 2.459-2.214 0-3.6-.916-3.6-2.363 0-1.784 1.891-2.989 4.7-2.989a8.644 8.644 0 0 1 2.491.386v2.507zm35.908-24.4c8.165.144 16.146 1.2 22.051 3.037l1.615-8.148a125.858 125.858 0 0 0 -22.6-2.555zm-5.075 6.027 1.338 8.823c9.642-1.832 14.67-2.6 17.207-2.6 3.968 0 5.49 1.3 5.49 4.726a8.021 8.021 0 0 1 -4.336 7.521c-3.23 1.688-6.828 2.314-15.27 2.652l2.537 7.907c7.105-.337 11.579-1.109 15.178-2.6 7.012-2.893 10.518-8.052 10.518-15.429a14.911 14.911 0 0 0 -2.669-9.113c-1.937-2.411-5.351-3.616-10.195-3.616-3.091 0-3.552.048-16.285 1.4zm40.9-12.874 1.061 27.338h6.874l1.061-27.338h-9zm.323 38.91h8.35v-8.341h-8.35zm-350.565 27.24-.6-6.847-8.4.675.645 7.04-13.655 1.35.646 7.955 13.748-1.4.553 6.171-15.639 1.543.692 7.956 15.685-1.543 1.154 12.584 8.4-.579-1.2-12.873 15.085-1.5-.553-7.955-15.226 1.501-.6-6.171 13.656-1.4-.6-7.859zm41.144 15.284 7.842-1.206c-1.107 2.942-2.583 4.774-5.858 7.088l5.582 5.159c5.858-4.387 8.857-10.993 8.857-19.623v-.965l-17.392 2.315-1.015-7.281-7.427.723 1.015 7.57-8.258 1.061 1.015 7.521 8.212-1.253 2.629 19.768 7.566-.964zm24.029-12.343a58.318 58.318 0 0 1 14.439 7.425l4.244-7.715a58.978 58.978 0 0 0 -15.131-6.89zm2.721 31.87c20.806-2.893 30.817-11.62 36.722-31.967l-7.105-5.062c-5.028 19.045-12.871 26.036-31.508 27.916zm74.941-41.95a6.978 6.978 0 1 0 6.55 6.943 6.815 6.815 0 0 0 -6.55-6.943zm-.185 3.568a3.4 3.4 0 1 1 -3.183 3.375 3.331 3.331 0 0 1 3.178-3.372zm-29.294 26.952c1.846-2.459 3.091-4.195 5.075-7.088 4.8-7.087 4.8-7.087 5.674-7.087.646 0 1.246.482 2.445 1.977l17.715 21.793 6.366-7.811-18.684-21.7c-3.044-3.568-4.89-4.725-7.519-4.725a6.541 6.541 0 0 0 -4.936 2.122c-1.153 1.108-1.984 2.169-5.951 7.232-2.215 2.8-3.875 4.821-6.182 7.521zm40.313-13.307v8.775h39.443v-8.775h-39.448zm42.782-7.136a58.318 58.318 0 0 1 14.439 7.425l4.244-7.715a58.963 58.963 0 0 0 -15.131-6.894zm2.722 31.87c20.8-2.893 30.816-11.62 36.721-31.967l-7.1-5.062c-5.028 19.045-12.87 26.036-31.508 27.916z" fill="#fff" fill-rule="evenodd" transform="translate(-28 -235.469)"/></svg>