<?xml version="1.0" encoding="utf-8"?>
<!-- Generator: Adobe Illustrator 23.0.1, SVG Export Plug-In . SVG Version: 6.00 Build 0)  -->
<svg version="1.1" id="レイヤー_1" xmlns="http://www.w3.org/2000/svg" xmlns:xlink="http://www.w3.org/1999/xlink" x="0px"
	 y="0px" viewBox="0 0 200 178.6" style="enable-background:new 0 0 200 178.6;" xml:space="preserve">
<style type="text/css">
	.st0{fill:#231815;}
	.st1{fill:#FBE3D5;}
	.st2{fill:#E50012;}
</style>
<g>
	<g>
		<path class="st0" d="M99.6,22.7c-32.6,0-32.8,46.9-22.4,75.4c3.7,10.2,6.8,16.3,9.8,20h25.3c3-3.7,6.1-9.9,9.7-20
			C132.4,69.6,132.2,22.7,99.6,22.7z M116,73.4c-0.4,7.7-1.8,15.7-4,23.2c-1.9,6.5-3.6,11-5,14.3H92.2c-1.4-3.2-3-7.8-4.9-14.3
			c-5.4-18.2-5.7-40,0.2-51.6c1.8-3.4,4.8-8.1,12.1-8.1c7.3,0,10.3,4.7,12.1,8.1C115.3,51.8,116.6,62.2,116,73.4z"/>
		<path class="st0" d="M68.5,118.1h7.6C62.7,98.3,59,77.3,58.3,68.2c3.9-0.5,8,1.1,10.4,4.5c0,0-0.4-3.8-0.5-7.6
			c-0.1-4.3,0.1-6.6,0.1-6.6c-2.1-1.5-6.4-3.6-12.3-2.9c-22.4,2.6-19.3,43.1-6.1,62.5h7.5c-8.7-13.8-10.3-34.2-7.4-42.3
			C55.1,100.3,68.5,118.1,68.5,118.1z"/>
		<polygon class="st0" points="61.3,47.3 67.5,42.9 59.9,42.9 57.6,35.7 55.2,42.9 47.7,42.9 53.8,47.3 51.5,54.6 57.6,50 
			63.6,54.6 		"/>
		<polygon class="st0" points="103.4,13.4 109.6,8.9 102,8.9 99.7,1.7 97.3,8.9 89.7,8.9 95.9,13.4 93.6,20.6 99.7,16.1 105.7,20.6 
					"/>
		<polygon class="st0" points="145.5,47.3 151.7,42.9 144.1,42.9 141.7,35.7 139.4,42.9 131.8,42.9 138,47.3 135.7,54.6 141.7,50 
			147.8,54.6 		"/>
		<path class="st0" d="M160.5,89c1.5-6.3,1.9-14.7-1.2-22.3c-5.6-13.9-22.3-13.1-28.3-8.2c0.4,6.9-0.3,14.2-0.3,14.2
			c7-10.2,23.4-5.4,20.3,7.7c-2.5,10.7-18.4,9.7-21.2-0.8c-0.8,5.4-2.3,11.1-2.3,11.1c2.9,6.8,15.6,9.4,22.5,5
			c-3,7.6-8.5,15.7-15.4,22.3h7.6C142.2,118.1,156.2,106.3,160.5,89z"/>
	</g>
	<g>
		<path class="st1" d="M97.9,21c-32.6,0-32.8,46.9-22.4,75.4c3.7,10.2,6.8,16.3,9.8,20h25.3c3-3.7,6.1-9.8,9.8-20
			C130.7,67.9,130.5,21,97.9,21z M114.3,71.7c-0.4,7.7-1.8,15.7-4,23.2c-1.9,6.5-3.6,11-5,14.3H90.5c-1.4-3.2-3-7.8-4.9-14.3
			c-5.4-18.2-5.7-40,0.3-51.6c1.8-3.4,4.8-8.2,12.1-8.2c7.3,0,10.4,4.8,12.1,8.2C113.6,50.1,114.9,60.5,114.3,71.7z"/>
		<path class="st1" d="M66.8,116.3h7.6C61,96.6,57.3,75.6,56.6,66.5c3.9-0.6,8,1.1,10.3,4.5c0,0-0.4-3.7-0.4-7.6
			c-0.1-4.3,0.1-6.7,0.1-6.7c-2.1-1.5-6.4-3.6-12.3-2.9c-22.4,2.6-19.3,43.1-6.1,62.5h7.5C47,102.6,45.4,82.2,48.3,74
			C53.4,98.6,66.8,116.3,66.8,116.3z"/>
		<polygon class="st1" points="59.6,45.6 65.8,41.2 58.1,41.2 55.8,34 53.5,41.2 45.9,41.2 52.1,45.6 49.8,52.9 55.8,48.3 
			61.9,52.9 		"/>
		<polygon class="st1" points="101.7,11.6 107.9,7.2 100.3,7.2 97.9,0 95.6,7.2 88,7.2 94.2,11.6 91.9,18.9 97.9,14.3 104,18.9 		
			"/>
		<polygon class="st1" points="143.7,45.6 149.9,41.2 142.3,41.2 140,34 137.7,41.2 130.1,41.2 136.3,45.6 133.9,52.9 140,48.3 
			146.1,52.9 		"/>
		<path class="st1" d="M158.7,87.3c1.6-6.3,1.9-14.7-1.1-22.3c-5.6-14-22.3-13.1-28.3-8.2c0.4,6.9-0.3,14.3-0.3,14.3
			c7-10.1,23.4-5.4,20.3,7.7c-2.5,10.7-18.4,9.7-21.2-0.8c-0.7,5.5-2.3,11.1-2.3,11.1c3,6.7,15.6,9.3,22.6,5
			c-3,7.5-8.5,15.6-15.4,22.3h7.6C140.4,116.3,154.5,104.6,158.7,87.3z"/>
	</g>
	<g>
		<path class="st2" d="M98.8,21.9c-32.6,0-32.8,46.9-22.4,75.3c3.7,10.1,6.8,16.2,9.8,20h25.3c3-3.7,6.1-9.9,9.7-20
			C131.6,68.7,131.3,21.9,98.8,21.9z M115.2,72.6c-0.4,7.7-1.8,15.7-4,23.2c-1.9,6.5-3.6,11-4.9,14.3H91.4c-1.4-3.2-3-7.8-4.9-14.3
			c-5.4-18.2-5.7-40,0.2-51.6c1.8-3.4,4.8-8.2,12.1-8.2c7.3,0,10.4,4.8,12.1,8.2C114.4,50.9,115.8,61.4,115.2,72.6z"/>
		<path class="st2" d="M67.6,117.2h7.6C61.8,97.4,58.1,76.4,57.4,67.3c3.8-0.6,8,1.1,10.4,4.5c0,0-0.4-3.7-0.5-7.5
			c-0.1-4.4,0.1-6.7,0.1-6.7c-2.1-1.5-6.4-3.6-12.3-2.9c-22.4,2.6-19.3,43.1-6.1,62.5h7.5c-8.7-13.8-10.3-34.2-7.5-42.3
			C54.3,99.5,67.6,117.2,67.6,117.2z"/>
		<polygon class="st2" points="60.4,46.4 66.6,42 59,42 56.7,34.8 54.4,42 46.8,42 53,46.4 50.7,53.7 56.7,49.2 62.8,53.7 		"/>
		<polygon class="st2" points="102.5,12.4 108.7,8.1 101.1,8.1 98.8,0.9 96.5,8.1 88.9,8.1 95.1,12.4 92.7,19.8 98.8,15.2 
			104.9,19.8 		"/>
		<polygon class="st2" points="144.6,46.4 150.8,42 143.2,42 140.9,34.8 138.6,42 131,42 137.1,46.4 134.8,53.7 140.9,49.2 
			146.9,53.7 		"/>
		<path class="st2" d="M159.6,88.1c1.5-6.3,1.9-14.7-1.2-22.3c-5.6-13.9-22.3-13.1-28.3-8.2c0.4,6.9-0.3,14.2-0.3,14.2
			c7-10.1,23.4-5.4,20.3,7.7c-2.5,10.7-18.4,9.7-21.2-0.8c-0.7,5.4-2.3,11.1-2.3,11.1c2.9,6.8,15.6,9.4,22.6,5
			c-3,7.6-8.5,15.6-15.4,22.3h7.6C141.3,117.2,155.3,105.4,159.6,88.1z"/>
	</g>
	<g>
		<g>
			<path class="st0" d="M138,139l-1,2c0,0,0,0.1,0,0.2c0,0,0,0.1,0,0.1c0,0.1,0.1,0.2,0.2,0.2l0.7,0.4l-0.1,0.3h-3.4v-3
				c0-0.2-0.2-0.4-0.4-0.4h-2.3c-0.2,0-0.4,0.2-0.4,0.4v3h-3.1c-0.2,0-0.4,0.2-0.4,0.4v2.2c0,0.2,0.2,0.4,0.4,0.4h3.1v7.5
				c0,0.2,0.2,0.4,0.4,0.4h2.3c0.2,0,0.4-0.2,0.4-0.4v-7.5h6v2.3h-3c-0.2,0-0.4,0.2-0.4,0.4v2.3c0,0.2,0.2,0.4,0.4,0.4h5.7
				c0.2,0,0.4-0.2,0.4-0.4v-7.6c0-0.2-0.2-0.4-0.4-0.4h-3.3l0.9-1.9c0-0.1,0-0.2,0-0.3c0-0.1-0.1-0.2-0.2-0.2l-2-1
				C138.4,138.8,138.1,138.8,138,139z"/>
			<path class="st0" d="M109.5,127.1c-0.2,0-0.4,0.2-0.4,0.4v4.6h-5c-0.2,0-0.4,0.2-0.4,0.4v2.2c0,0.2,0.2,0.4,0.4,0.4h5v6.3
				c0,0.2,0.2,0.4,0.4,0.4h8.8v8.3h-8.8c-0.2,0-0.4,0.2-0.4,0.4v2.3c0,0.2,0.2,0.4,0.4,0.4l11.5,0c0.2,0,0.4-0.2,0.4-0.4v-13.6
				c0-0.3-0.2-0.4-0.4-0.4h-8.8v-3.7h8.9c0.2,0,0.4-0.2,0.4-0.4v-2.2c0-0.2-0.2-0.4-0.4-0.4h-8.9v-4.6c0-0.2-0.2-0.4-0.4-0.4H109.5z
				"/>
			<path class="st0" d="M85.4,127.1c-0.2,0-0.4,0.2-0.4,0.4v4.6h-4.9c-0.2,0-0.4,0.2-0.4,0.4v2.2c0,0.2,0.2,0.4,0.4,0.4H85v3.7h-4.9
				c-0.2,0-0.4,0.2-0.4,0.4v2.2c0,0.2,0.2,0.4,0.4,0.4H85v11c0,0.2,0.2,0.4,0.4,0.4h13.7c0.2,0,0.4-0.2,0.4-0.4v-5.7
				c0-0.2-0.2-0.4-0.4-0.4h-2.3c-0.2,0-0.4,0.2-0.4,0.4v3h-8.4v-8.3h7.2c0.2,0,0.4-0.2,0.4-0.4v-2.2c0-0.3-0.2-0.4-0.4-0.4h-7.2
				v-3.7h7.2c0.2,0,0.4-0.2,0.4-0.4v-2.2c0-0.2-0.2-0.4-0.4-0.4h-7.2v-4.6c0-0.2-0.2-0.4-0.4-0.4H85.4z"/>
			<path class="st0" d="M68,126.9c-0.1,0-0.2,0-0.3,0.1l-1.5,1.7c-0.2,0.2-0.1,0.4,0,0.6l3,2.8h-5.8v-4.6c0-0.2-0.2-0.4-0.4-0.4
				h-2.3c-0.2,0-0.4,0.2-0.4,0.4v4.6h-6.6c-0.2,0-0.4,0.2-0.4,0.4v2.2c0,0.2,0.2,0.4,0.4,0.4h6.6v5.2h-6.6l-0.2,0
				c-0.2,0.1-0.3,0.2-0.3,0.3v12.2c0,0.2,0.2,0.4,0.4,0.4H63c0.2,0,0.4-0.2,0.4-0.4v-9.5h6.3v6.9h-2.2c-0.2,0-0.4,0.2-0.4,0.4v2.3
				c0,0.2,0.2,0.4,0.4,0.4h4.9c0.2,0,0.4-0.2,0.4-0.4v-12.2c0-0.1-0.1-0.3-0.2-0.3l-0.2,0h-9v-5.2h9c0.2,0,0.4-0.2,0.4-0.4v-2.2
				c0-0.2-0.2-0.4-0.4-0.4h-1.6l1.1-1.2c0.1-0.1,0.1-0.2,0.1-0.3c0-0.1-0.1-0.2-0.1-0.3l-3.6-3.3C68.2,126.9,68.1,126.9,68,126.9z
				 M56.4,150v-6.7h3.9v6.9h-3.9V150z"/>
			<path class="st0" d="M0.4,129.1c-0.2,0-0.4,0.2-0.4,0.4v23.3c0,0.2,0.2,0.4,0.4,0.4l17,0c0.3,0,0.5-0.2,0.5-0.4v-23.3
				c0-0.2-0.2-0.4-0.4-0.4H0.4z M3.1,149.9v-17.7h11.7v7.2H6.7c-0.2,0-0.4,0.2-0.4,0.4v2.2c0,0.2,0.2,0.4,0.4,0.4h8.1v7.6H3.1V149.9
				z"/>
			<path class="st0" d="M195.1,127h-2.3c-0.2,0-0.4,0.2-0.4,0.4v1.9c0,0.2,0.2,0.4,0.4,0.4h2.3c0.2,0,0.4-0.2,0.4-0.4v-1.9
				C195.5,127.2,195.3,127,195.1,127L195.1,127z M189.4,127h-2.3c-0.2,0-0.4,0.2-0.4,0.4v3.4H177c-0.2,0-0.4,0.2-0.4,0.4v4.9
				c0,0.3,0.2,0.4,0.4,0.4h2.3c0.2,0,0.4-0.2,0.4-0.4v-3.5h17.2v3.5c0,0.3,0.2,0.4,0.4,0.4h2.3c0.2,0,0.4-0.2,0.4-0.4v-4.9
				c0-0.2-0.2-0.4-0.4-0.4h-9.8v-3.4C189.8,127.2,189.6,127,189.4,127L189.4,127z M181.5,127c-0.2,0-0.4,0.2-0.4,0.4v1.9
				c0,0.2,0.2,0.4,0.4,0.4h2.3c0.2,0,0.4-0.2,0.4-0.4v-1.9c0-0.2-0.2-0.4-0.4-0.4H181.5z M181.6,133.7c-0.2,0-0.4,0.2-0.4,0.4v3.4
				c0,0.2,0.2,0.4,0.4,0.4h13.5c0.2,0,0.4-0.2,0.4-0.4v-3.4c0-0.2-0.2-0.4-0.4-0.4H181.6z M183.9,136.5V135h8.8v1.6h-8.8V136.5z
				 M196.5,139.2H180c-0.2,0-0.4,0.2-0.4,0.4v9.6c0,0.2,0.2,0.4,0.4,0.4h3.1l-2.7,2.1c-0.2,0.1-0.2,0.4-0.1,0.6l1.4,1.8
				c0.1,0.1,0.2,0.2,0.3,0.2c0.1,0,0.2,0,0.3-0.1l2.7-2.1c0.2-0.2,0.2-0.4,0.1-0.6l-1.4-1.9h9.4l-1.5,1.9c-0.1,0.2-0.1,0.4,0.1,0.6
				l2.7,2.1c0.2,0.1,0.4,0.1,0.6-0.1l1.4-1.8c0.1-0.2,0.1-0.4-0.1-0.6l-2.7-2.1h3.1c0.2,0,0.4-0.2,0.4-0.4v-9.6
				C196.9,139.4,196.7,139.2,196.5,139.2L196.5,139.2z M182.5,142.1v-1.5H194v1.7h-11.6V142.1z M182.5,145.1v-1.5H194v1.7h-11.6
				V145.1z M182.5,148.2v-1.5H194v1.7h-11.6V148.2z"/>
			<path class="st0" d="M34.3,127.1c-0.2,0-0.4,0.2-0.4,0.4v4.6h-9.1c-0.2,0-0.4,0.2-0.4,0.4v2.2c0,0.2,0.2,0.4,0.4,0.4h9.1v12.2
				h-2.7c-0.2,0-0.4,0.2-0.4,0.4v2.3c0,0.2,0.2,0.4,0.4,0.4h2.7v3.5c0,0.2,0.2,0.4,0.4,0.4h2.3c0.2,0,0.4-0.2,0.4-0.4v-3.5h2.7
				c0.2,0,0.4-0.2,0.4-0.4v-2.3c0-0.2-0.2-0.4-0.4-0.4H37v-12.2h9.2c0.2,0,0.4-0.2,0.4-0.4v-2.2c0-0.2-0.2-0.4-0.4-0.4H37v-4.6
				c0-0.2-0.2-0.4-0.4-0.4H34.3z M30,138.8l-2.1,4.2c-0.1,0.3-0.5,0.7-0.7,0.9l-3.6,3.5c-0.2,0.2-0.2,0.4,0,0.6l1.6,1.6
				c0.2,0.2,0.4,0.2,0.6,0l4-3.9c0.2-0.2,0.5-0.6,0.6-0.9l2.4-4.7c0.1-0.2,0-0.5-0.2-0.5l-2-1C30.3,138.6,30.1,138.6,30,138.8z
				 M40.3,138.7L40.3,138.7l-2,1c-0.1,0-0.2,0.1-0.2,0.2c0,0.1,0,0.2,0,0.3l2.4,4.7c0.1,0.3,0.4,0.7,0.6,0.9l4,3.9
				c0.1,0.1,0.2,0.1,0.3,0.1c0.1,0,0.2,0,0.3-0.1l1.6-1.6c0.2-0.2,0.2-0.4,0-0.6l-3.6-3.5c-0.2-0.2-0.5-0.6-0.7-0.9l-2.1-4.2
				C40.8,138.6,40.5,138.6,40.3,138.7z"/>
			<path class="st0" d="M158.5,127c-0.2,0-0.4,0.2-0.4,0.4v4.7H148c-0.2,0-0.4,0.2-0.4,0.4v2.2c0,0.2,0.2,0.4,0.4,0.4h10.1v2.8
				c0,0.4-0.2,0.8-0.3,1.1l-9.1,13.3c-0.1,0.1-0.1,0.2-0.1,0.3c0,0.1,0.1,0.2,0.2,0.3l1.8,1.3c0.1,0.1,0.2,0.1,0.3,0.1
				c0.1,0,0.2-0.1,0.3-0.2l8-11.7c0.1-0.2,0.3-0.2,0.4-0.2c0.2,0,0.3,0.1,0.5,0.2l8,11.7c0.1,0.1,0.2,0.1,0.3,0.2
				c0.1,0,0.2,0,0.3-0.1l1.8-1.3c0.2-0.1,0.2-0.4,0.1-0.6l-9.1-13.3c-0.2-0.3-0.4-0.8-0.4-1.1v-2.8h10.1c0.2,0,0.4-0.2,0.4-0.4v-2.2
				c0-0.2-0.2-0.4-0.4-0.4h-10.1v-4.7c0-0.2-0.2-0.4-0.4-0.4H158.5z"/>
		</g>
	</g>
	<g>
		<path class="st0" d="M83.9,170.7c0.2,0,0.4-0.2,0.4-0.4v-9.5c0-0.2-0.2-0.4-0.4-0.4H72.6c-0.2,0-0.4,0.2-0.4,0.4v1.6
			c0,0.2,0.2,0.4,0.4,0.4h9.3v5.6h-9.3c-0.2,0-0.4,0.1-0.4,0.4v9.5c0,0.2,0.2,0.3,0.4,0.3h11.2c0.2,0,0.4-0.2,0.4-0.3v-1.5
			c0-0.2-0.2-0.4-0.4-0.4h-9.3v-5.6H83.9z"/>
		<path class="st0" d="M125.6,168.4h-7.4v-5.6h7.4V168.4z M127.9,160.8c0-0.2-0.2-0.3-0.4-0.3h-11.2c-0.2,0-0.4,0.2-0.4,0.3v9.5
			c0,0.2,0.2,0.4,0.4,0.4h9.3v5.6h-9.3c-0.2,0-0.4,0.2-0.4,0.4v1.6c0,0.2,0.2,0.4,0.4,0.4h11.2c0.2,0,0.4-0.2,0.4-0.4V160.8z"/>
		<path class="st0" d="M100.3,160.5H89.1c-0.2,0-0.4,0.2-0.4,0.4v17.4c0,0.2,0.2,0.3,0.4,0.3h11.2c0.2,0,0.4-0.2,0.4-0.3v-17.4
			C100.7,160.6,100.6,160.5,100.3,160.5z M98.4,162.8v13.5h-7.3v-13.5H98.4z"/>
		<path class="st0" d="M105,160.5c-0.2,0-0.4,0.2-0.4,0.4v1.6c0,0.2,0.2,0.4,0.4,0.4h3.2v15.4c0,0.2,0.2,0.4,0.4,0.4h1.6
			c0.2,0,0.4-0.2,0.4-0.4v-17.4c0-0.2-0.2-0.4-0.4-0.4H105z"/>
	</g>
</g>
</svg>
