<svg id="レイヤー_1" data-name="レイヤー 1" xmlns="http://www.w3.org/2000/svg" viewBox="0 0 201.37 47.4"><path d="M120.57,0H78.71a10.25,10.25,0,0,0-7.52,3.1,10.27,10.27,0,0,0-3.1,7.52V36.78A10.57,10.57,0,0,0,78.71,47.4h41.86a10.57,10.57,0,0,0,10.62-10.62v-15h-24v7.47H122.4a1.41,1.41,0,0,1,1.41,1.41v6.1A3.28,3.28,0,0,1,120.57,40H78.71a3.26,3.26,0,0,1-3.24-3.25V10.62a3.24,3.24,0,0,1,3.24-3.24h41.86a3.26,3.26,0,0,1,3.24,3.24v2.69h7.38V10.62a10.28,10.28,0,0,0-3.1-7.52A10.28,10.28,0,0,0,120.57,0"/><path d="M190.75,0H148.89a10.27,10.27,0,0,0-7.52,3.1,10.28,10.28,0,0,0-3.1,7.52v6.19a10.29,10.29,0,0,0,3.1,7.53,10.29,10.29,0,0,0,7.52,3.1h41.86a3.21,3.21,0,0,1,2.29.91,3,3,0,0,1,1,2.24v6.19A3.26,3.26,0,0,1,190.75,40H148.89a3.26,3.26,0,0,1-3.24-3.25v-2.6h-7.38v2.6A10.57,10.57,0,0,0,148.89,47.4h41.86a10.57,10.57,0,0,0,10.62-10.62V30.59A10.58,10.58,0,0,0,190.75,20H148.89a3.19,3.19,0,0,1-2.29-.92,3,3,0,0,1-.95-2.24V10.62a3.24,3.24,0,0,1,3.24-3.24h41.86A3.24,3.24,0,0,1,194,10.62v2.6h7.38v-2.6a10.28,10.28,0,0,0-3.1-7.52A10.28,10.28,0,0,0,190.75,0"/><path d="M0,7.38H26.49a1.42,1.42,0,0,1,1.42,1.41V47.4h7.37V8.79A1.42,1.42,0,0,1,36.7,7.38H63.1V0H0Z"/></svg>