<svg xmlns="http://www.w3.org/2000/svg" width="417" height="30" viewBox="0 0 417 30"><defs><style>.cls-1 { fill: #004fdf; fill-rule: evenodd; }</style></defs><path id="滞在先は高級ホテルをご用意_" class="cls-1" d="M11.885 5.325h1.89l-.815 4.62h17.489l.815-4.62h1.92l.62-3.51h-1.92l.265-1.5h-4.049l-.265 1.5h-2.7l.265-1.5h-4.05l-.265 1.5h-2.73l.265-1.5h-3.96l-.265 1.5h-1.895l-.18 1.02a14.7 14.7 0 0 0-4-2.49l-2.892 3.3a17.28 17.28 0 0 1 4.154 3.15l2.538-2.82zm8.58 0l-.286 1.62h-2.73l.286-1.62h2.73zm6.75 0l-.286 1.62h-2.7l.286-1.62h2.7zm-17.367 22.075h4.02l1.393-7.89h2.67l-1.631 9.244h4.08l1.631-9.24h2.7l-.535 3.03a.748.748 0 0 1-.923.81h-1.653l.275 4.05h3.33a2.536 2.536 0 0 0 2.608-2.37l1.451-8.22h1.44l1-5.64h-20.522l-1 5.64h1.53zm4.352-11.4l.275-1.56h4.35l-.275 1.56h-4.35zm8.7-1.56h4.32l-.271 1.56h-4.32zm-19.473-3.175a19.058 19.058 0 0 1 4.059 3.18l3.164-3.48a20.136 20.136 0 0 0-4.224-3.09zm3.383 4.29a49.209 49.209 0 0 1-5.81 9.269l2.313 3.72a48.129 48.129 0 0 0 6.595-10.68zm29.169 13.2h4.621l2.737-15.509a47.77 47.77 0 0 0 4.331-5.67h16.648l.784-4.476h-14.9c.745-1.5 1-2.07 1.364-2.97l-5.109-.12a33.28 33.28 0 0 1-1.355 3.09h-8.43l-.789 4.47h6.6a26.014 26.014 0 0 1-8.594 8.07l.907 4.89c1.218-.78 2.033-1.32 3.005-2.07zm20.283-16.17l.72-4.08h-4.62l-.72 4.08h-6.33l-.778 4.41h6.33l-1.149 6.505h-7.14l-.784 4.44h18.93l.779-4.44h-7.17l1.149-6.51h6.45l.778-4.41h-6.45zm10.3-1.05l-.794 4.465h7.68c-.909 4.98-3.387 7.29-9.644 8.58l1.75 4.53c6.386-1.676 11.28-5.61 12.693-13.11h3.153l-1.71 9.69a2.149 2.149 0 0 0 2.193 2.7h7.2a3.331 3.331 0 0 0 2.813-1.83 26.956 26.956 0 0 0 1.856-5.76l-4.355-.99a22.19 22.19 0 0 1-.8 3.03 1.092 1.092 0 0 1-1.078.84h-2.1c-.3 0-.69 0-.558-.75l1.216-6.93h8.37l.789-4.47h-11.4l.6-3.42h10.17l.784-4.44h-10.167l.6-3.42h-4.86l-.6 3.42h-3.42c.572-1.2.782-1.71 1.089-2.43l-4.667-.75a22.33 22.33 0 0 1-6.175 8.64l2.936 2.4h-3.57zm4.8 0a26.738 26.738 0 0 0 2.853-3.42h5.37l-.6 3.42h-7.62zm31.112-10.05a74.817 74.817 0 0 0-3.339 13.14 86.459 86.459 0 0 0-1.407 12.9l4.9-.54a59.469 59.469 0 0 1 1.082-11.91 64.612 64.612 0 0 1 3.559-13.2zm5.423 4.8l-.794 4.5h8.279l-.882 5.34a6.368 6.368 0 0 0-1.943-.21c-4.62 0-7.512 2.79-8.047 5.82-.439 2.49.618 5.85 6.137 5.85 1.29 0 4.267-.21 6.028-2.37a5.033 5.033 0 0 0 1.105-2.52 16.424 16.424 0 0 1 2.681 3l3.7-4.17a17.094 17.094 0 0 0-5.189-4.08l1.145-6.66h5.07l.794-4.5h-5.1l.816-4.62h-4.8l-.815 4.62h-8.19zm5.667 15.479c-.153.87-.333 1.89-2.583 1.89-1.89 0-2.506-.93-2.342-1.86.175-.99 1.275-1.95 3.194-1.95a4.5 4.5 0 0 1 1.991.45zm35.366-3.03h-13.68l-1.334 7.56h12.06l.045 2.46h4.53a3.267 3.267 0 0 0 3.3-3.06l2-11.339h-26.162l-2.542 14.4h4.53l1.964-11.13h17.159l-1.09 6.175a.664.664 0 0 1-.722.69h-1.08zm-4.763 2.85l-.3 1.68h-5.16l.3-1.68h5.16zm-10.079-15.329l-1.244 7.05h20.279l1.244-7.05h-20.279zm15.333 2.7l-.259 1.47h-11.37l.259-1.47h11.37zm-6.764-7.23h-11.789l-.646 3.66h28.439l.646-3.66h-12.03l.265-1.5h-4.62zm25.483 16.409a37.842 37.842 0 0 1-.328 5.43l1.117-.21a20.122 20.122 0 0 1-1.906 2.13l2.5 3.36a17.068 17.068 0 0 0 3-3.39l1.477 3.36a30.71 30.71 0 0 0 6.208-3.9 15.593 15.593 0 0 0 4.092 3.84l3.093-4.44a15.473 15.473 0 0 1-3.74-2.94c1.59-2.04 3.891-6.24 5.589-12.629h-3.09c1.15-2.61 2.349-6 2.864-7.56h-14.85l-.571 3.24-3.168-1.26a50.457 50.457 0 0 1-3.439 4.53c-.113-.21-.237-.36-.69-1.02a49.769 49.769 0 0 0 4.126-5.7l-3.561-.9a27.842 27.842 0 0 1-2.512 4.2 10.678 10.678 0 0 0-.827-.75l-2.513 3.87a16.67 16.67 0 0 1 2.979 3.69c-1.042 1.14-1.375 1.5-1.7 1.8-.42 0-1.565.03-1.9.06l-.344 3.99c.485-.03.881-.06 4.239-.39l-2.166 12.27h3.51l2.229-12.629c.311-.06.556-.09 1.262-.18l-.032 1.2 3.575-1.05a29.841 29.841 0 0 0-1.037-6.36l-3.094.87a19.138 19.138 0 0 1 .382 1.92c-.426.03-2.272.12-2.637.15a82.228 82.228 0 0 0 7.248-7.92l-.117.66h2.22c-1.811 10.26-3.671 13.319-4.763 15.089-.011-.45-.012-1.8-.095-3.03zm15.672-5.34a20.894 20.894 0 0 1-2.564 5.01 26.956 26.956 0 0 1-1.863-10.35c-.015-.09.307-1.74.349-1.98h3.45a58.048 58.048 0 0 1-3 7.32h3.63zm-6.9 3.72a24.138 24.138 0 0 0 1.293 4.74 20.919 20.919 0 0 1-5.082 3.3 30.259 30.259 0 0 0 3.793-8.04zm-16.603 1.286a28.031 28.031 0 0 1-2.393 7.44l2.68 1.98a45.541 45.541 0 0 0 2.624-9.09zm44.912-16.165l-.778 4.41h-9.99l-.789 4.47h9.99l-2.986 16.919h4.8l2.981-16.889h10.02l.794-4.5h-10.02l.778-4.41h-4.8zm-11.875 24.959c1.347-1.17 5.079-4.47 7.438-13.08l-4.355-.48a18.207 18.207 0 0 1-6.1 10.08zm16.932-12.994c-.685 8.13 1.63 11.67 2.527 13.05l4.351-3.24c-1.341-1.92-2.521-4.41-2.392-10.41zm17.264-11.46l-.783 4.44h20.579l.784-4.44h-20.58zm-3.742 7.625l-.784 4.44h10.98l-.12.51c-1.326 5.64-4.5 7.83-11.557 8.88l1.2 4.23c9.332-1.71 13.51-5.67 15.309-13.139l.114-.48h9.45l.784-4.44h-25.376zm39.884-7.05h-4.829l-1.324 7.5c-1.758 9.96-5.2 12.81-6.849 14.16l3.061 3.9c1.82-1.47 6.357-5.25 8.708-18.569zm8.36-.96h-4.8l-4.524 25.619c9.483-.36 15.365-6.15 18.409-14.219l-4.119-2.16c-.783 2.4-3 8.67-8.431 10.38zm23.221-1.02c-.32.96-.618 1.8-1.033 2.79h-6.419l-.768 4.35h5.25c-1.518 2.82-2.838 4.86-8.109 9.57l2.732 3.39c.7-.72 3.972-4.32 4.794-5.07.787-.72 3.312-2.79 5.652-2.79a1.94 1.94 0 0 1 1.717.81c-4.545 2.13-8.5 4.47-9.128 8.04a4.213 4.213 0 0 0 2.512 4.8c1.4.57 3.51 1.02 7.92 1.02.66 0 1.265-.03 6.711-.12l.785-4.62c-3.483.36-7.323.36-7.623.36-3.12 0-5.444-.09-5.11-1.98.259-1.47 1.932-2.28 3.926-3.21-.344 1.95-.459 2.43-.635 3.09h4.65c.114-.48.234-.99.361-1.71a30.528 30.528 0 0 0 .433-3.3 65.653 65.653 0 0 1 7.254-2.01l-.37-4.53c-1.389.39-3.881 1.08-7.062 2.28a4.068 4.068 0 0 0-4.2-2.73 9.247 9.247 0 0 0-3.694.87 19.026 19.026 0 0 0 1.372-2.16h12.417l.768-4.35h-11.068c.256-.6.456-1.05.929-2.37zm44.776 1.765c-2.88 0-16.935.09-20.1 0l-.848 4.8c1.432-.12 8.633-.3 9.258-.27a14.335 14.335 0 0 0-3.316 1.62l2.949 2.67a30.371 30.371 0 0 1 11.246-4.23zm-19.9 9.9c-2.079 1.92-4.08 4.08-4.614 7.11a5.2 5.2 0 0 0 2.186 5.46c2.438 1.65 5.115 1.95 11.445 1.95a55.979 55.979 0 0 0 8.158-.33l.808-4.92a86.463 86.463 0 0 1-9.319.45c-4.5 0-8.754-.03-8.219-3.06.323-1.83 1.978-3.39 2.871-4.2zm17.539 2.1a18.624 18.624 0 0 0-2.065-4.62l-2.692 1.32a23.063 23.063 0 0 1 1.918 4.77zm4.366-2.13a18.178 18.178 0 0 0-2.1-4.44l-2.722 1.32a23.98 23.98 0 0 1 2.05 4.53zm23 10.95a.771.771 0 0 1-.928.84h-2.88l-.1 4.62h4.41a3.5 3.5 0 0 0 3.666-3.09l4.288-24.3h-24.084l-2.578 14.61a23.429 23.429 0 0 1-1.762 5.22 16.883 16.883 0 0 1-2.985 4.17l3.146 3.42c.963-.87 3.275-3.09 5.026-8.76h5.52l-1.494 8.46h4.23l1.493-8.46h5.61zm3.124-17.7l-.57 3.215h-5.6l.566-3.21h5.61zm-9.84 0l-.566 3.21h-5.25l.567-3.21h5.249zm-1.265 7.17l-.572 3.24h-5.25l.572-3.24h5.25zm9.839 0l-.571 3.24h-5.61l.572-3.24h5.609zm17.588 8.79l.508.184h-3.81l-.832 4.71c-.195 1.11.39 2.04 2.19 2.04h9.18c2.28 0 3.146-2.7 3.843-4.95l-4.03-.96c-.688 2.37-1.078 2.37-1.708 2.37h-4.17c-.57 0-.808-.18-.7-.81l.4-2.25a15.766 15.766 0 0 1 3.813 2.19l2.979-2.94a20.253 20.253 0 0 0-2.523-1.17h9.089l-3.554 1.95c.7.99 1.3 2.16 2.315 6.6l4.649-2.37a23.012 23.012 0 0 0-2.9-6.18h.84l1.631-9.24h-22.402l-1.631 9.24h8.28zm12.282-8.4l-.2 1.14h-13.5l.2-1.14h13.5zm-.561 3.18l-.2 1.14h-13.5l.2-1.14h13.5zm-6.48-14.605h-10.079l-.554 3.145h4.109c.052.39.06.51.135 1.62h-6.244l-.577 3.27h28.289l.577-3.27h-6.18c.48-1.02.542-1.2.736-1.62h4.08l.556-3.15h-10.29l.254-1.44h-4.56zm5.384 3.15c-.046.09-.39 1.02-.706 1.62h-6.39a12.166 12.166 0 0 0-.194-1.62h7.29zm-17.76 15.3a14.886 14.886 0 0 1-4.1 5.22l2.7 3.21a18.605 18.605 0 0 0 4.917-7.29zm34.18-17.909l-2.324 16.739h3.779l3.585-16.739h-5.04zm-3.191 18.929l-.831 4.71h4.74l.831-4.71h-4.74z"/></svg>