<svg xmlns="http://www.w3.org/2000/svg" viewBox="0 0 180 30"><defs><style>.bc7aa019-59b0-4e90-884a-06fe7b3093cc{fill:#00b4dc;}.bd13fb9f-e20d-4854-8acc-cc589c045791{fill:#fff;}</style></defs><title>booth_link_contact2</title><g id="ae5bfc87-f72e-4ab5-8843-03b3a6cae5c1" data-name="レイヤー 2"><g id="fb7a0f96-02ba-4ac9-8104-ff045575b0c7" data-name="編集モード"><path class="bc7aa019-59b0-4e90-884a-06fe7b3093cc" d="M180,15a15,15,0,0,1-15,15H15A15,15,0,0,1,0,15H0A15,15,0,0,1,15,0H165a15,15,0,0,1,15,15Z"/><path class="bd13fb9f-e20d-4854-8acc-cc589c045791" d="M49,12l-.42.08a24,24,0,0,1-2.48.42V15a9.81,9.81,0,0,1,3-.51,4.74,4.74,0,0,1,2.48.59,2.88,2.88,0,0,1-1.41,5.38A2.08,2.08,0,0,1,48,18.84a5.52,5.52,0,0,1-.17-1.59,3.11,3.11,0,0,0,.93-.36,3.85,3.85,0,0,0,0,.54c0,1.46.42,2.06,1.44,2.06a1.85,1.85,0,0,0,1.88-2c0-1.37-1.16-2.23-3-2.23a9.47,9.47,0,0,0-3,.55v3.5c0,.76-.33,1.12-1,1.12a3.7,3.7,0,0,1-2.31-.9,1.66,1.66,0,0,1-.65-1.31,2.54,2.54,0,0,1,1.11-1.87,7.33,7.33,0,0,1,2-1.14V12.59l-.56,0H42.38v-.92a8.09,8.09,0,0,0,1.43.09c.38,0,.93,0,1.35,0V10.38A10.33,10.33,0,0,0,45.09,9h1a8.9,8.9,0,0,0-.07,1.31v1.34a13.59,13.59,0,0,0,2.86-.6Zm-3.79,4.13c-1.39.67-2.18,1.43-2.18,2.1,0,.3.2.58.61.84a2.6,2.6,0,0,0,1.24.41c.28,0,.33-.09.33-.69Zm7.69-2.63A11.57,11.57,0,0,0,50,10.78l.73-.55a12.07,12.07,0,0,1,2.82,2.67Z"/><path class="bd13fb9f-e20d-4854-8acc-cc589c045791" d="M57,19.72a9.29,9.29,0,0,0,.09,1.57H56a11.84,11.84,0,0,0,.08-1.57V10.63c0-.69,0-1.1-.05-1.54a13.51,13.51,0,0,0,1.45.05h2a13.2,13.2,0,0,0,1.43-.05c0,.42,0,.78,0,1.33v1.87c0,.56,0,1,0,1.29-.31,0-.85,0-1.42,0H57ZM57,11h3.12V9.83H57Zm0,1.86h3.12V11.66H57Zm7.2,5.07c0,.34,0,.6,0,.84a7.67,7.67,0,0,0-.88,0H60v1.11h-.91a9.74,9.74,0,0,0,.07-1.31v-2.8c0-.32,0-.6,0-.88a9,9,0,0,0,1,0h3.14a9.46,9.46,0,0,0,1,0c0,.27,0,.53,0,.85ZM60,18h3.37V15.61H60Zm7.37,2c0,.91-.27,1.16-1.24,1.16-.54,0-1,0-1.66-.05a2.77,2.77,0,0,0-.25-.9,16.7,16.7,0,0,0,1.77.14c.41,0,.51-.09.51-.41V13.54h-2.8c-.59,0-1.12,0-1.43,0,0-.4,0-.77,0-1.29V10.42c0-.49,0-.91,0-1.33a13.09,13.09,0,0,0,1.43.05h2.27a14,14,0,0,0,1.47-.05,12.18,12.18,0,0,0-.07,1.54ZM63.09,11h3.38V9.83H63.09Zm0,1.86h3.38V11.66H63.09Z"/><path class="bd13fb9f-e20d-4854-8acc-cc589c045791" d="M71.77,10.4a10.21,10.21,0,0,0-.1,1.67A24,24,0,0,0,72,16.43c.3,1.43.88,2.39,1.41,2.39.25,0,.49-.24.7-.7a10.06,10.06,0,0,0,.73-2.39,4.17,4.17,0,0,0,.83.79C75,19,74.37,19.91,73.38,19.91c-.78,0-1.51-.78-2-2.12s-.69-3.13-.75-6.57a7.84,7.84,0,0,0,0-.83Zm6.76.75a11.85,11.85,0,0,1,2,3.19,13.44,13.44,0,0,1,1,3.74l-1,.41a12.33,12.33,0,0,0-2.91-6.91Z"/><path class="bd13fb9f-e20d-4854-8acc-cc589c045791" d="M90.17,8.71a9.61,9.61,0,0,0,2.31,2.53,14.66,14.66,0,0,0,3.84,2.3,3.37,3.37,0,0,0-.56.88,19.45,19.45,0,0,1-4-2.57,11.69,11.69,0,0,1-2.16-2.36,13,13,0,0,1-2.94,3.07,16.38,16.38,0,0,1-3,1.82,2.69,2.69,0,0,0-.59-.8A14.54,14.54,0,0,0,87,11.15a10.56,10.56,0,0,0,2.16-2.44ZM85.28,21.23a9.54,9.54,0,0,0,.08-1.37v-3.1a8.35,8.35,0,0,0-.07-1.29,6.47,6.47,0,0,0,1.1.06H93a6.41,6.41,0,0,0,1.09-.06A8.06,8.06,0,0,0,94,16.76v3.1a10.88,10.88,0,0,0,.08,1.37h-1v-.81H86.29v.81Zm1-1.64h6.76V16.38H86.29Zm.1-6.62a7.49,7.49,0,0,0,1.1,0h4.34A8.89,8.89,0,0,0,93,13v.95a8.84,8.84,0,0,0-1.18-.06H87.48a8.17,8.17,0,0,0-1.09.06Z"/><path class="bd13fb9f-e20d-4854-8acc-cc589c045791" d="M97.75,17.24a10.56,10.56,0,0,0,1.21-1c.47-.45.47-.45,1-.88a3.9,3.9,0,0,1,.41-.36c0-1.17,0-1.29.07-2.48l-.72,0a12.09,12.09,0,0,0-1.54.17l-.07-1h.39c.21,0,.8,0,2-.11,0-.87.06-1.4.06-1.95a2.09,2.09,0,0,0,0-.54h1.11a8.82,8.82,0,0,0-.14,1.62c0,.48,0,.48,0,.8a1,1,0,0,0,.32-.08l.37.46a4,4,0,0,0-.74.91c0,.91-.07,1.39-.07,1.41h0l0,0a7.46,7.46,0,0,1,.81-.71,5.45,5.45,0,0,1,3.54-1.39,3.54,3.54,0,0,1,3.77,3.64A4,4,0,0,1,105.19,20a7.16,7.16,0,0,1-2.38-.42c0-.11,0-.2,0-.24a3.12,3.12,0,0,0-.11-.81,6.17,6.17,0,0,0,2.48.55,3.12,3.12,0,0,0,2.8-1.59,3.5,3.5,0,0,0,.39-1.68A2.56,2.56,0,0,0,105.71,13c-1.37,0-2.63.65-4.47,2.31,0,4.21,0,4.91.08,5.56h-1.1a15.09,15.09,0,0,0,.07-2.65c0-1.71,0-1.82,0-2.16h0a3.63,3.63,0,0,1-.73.77,12,12,0,0,0-1.26,1.34Z"/><path class="bd13fb9f-e20d-4854-8acc-cc589c045791" d="M115.41,9.66a15,15,0,0,0-.13,2.93c2.27-.13,2.83-.16,4.58-.23V12a3.62,3.62,0,0,0,0-.47,13.07,13.07,0,0,0-.09-2.13h1.08a7.8,7.8,0,0,0-.06,1.08v1.87c1.37,0,2.47-.07,2.93-.12l0,1a10.1,10.1,0,0,0-1.05,0c-.13,0-.49,0-1,0h-1a13.06,13.06,0,0,1-.25,2.73,1.4,1.4,0,0,1-1.41,1.23,4,4,0,0,1-2-.64c0-.21,0-.28,0-.42s0-.29,0-.57a4,4,0,0,0,1.83.77c.4,0,.56-.23.69-.91a13.2,13.2,0,0,0,.17-2.16c-1.7,0-2.7.11-4.57.24v1.26a21.34,21.34,0,0,0,.14,3.53,1.22,1.22,0,0,0,.94.91,8,8,0,0,0,2.19.24,12.78,12.78,0,0,0,3.89-.52l.11,1.08A4.83,4.83,0,0,0,122,20a24.51,24.51,0,0,1-3.54.29c-2.5,0-3.56-.48-3.92-1.74a14.5,14.5,0,0,1-.19-3.32V13.51a26,26,0,0,0-2.81.3l-.09-1h.31c.25,0,1.12-.06,2.59-.18v-.91a14.34,14.34,0,0,0-.07-2.09Z"/><path class="bd13fb9f-e20d-4854-8acc-cc589c045791" d="M128.23,11.92a11.31,11.31,0,0,1-1.53,2,2.63,2.63,0,0,0-.74-.62,7.83,7.83,0,0,0,1.81-2.36,7,7,0,0,0,.66-2l1,.27a6.27,6.27,0,0,0-.26.67c-.2.52-.3.77-.49,1.19h2.56V10a9.41,9.41,0,0,0-.08-1.23h1.07a9,9,0,0,0-.08,1.23v1.11h3.35a7.87,7.87,0,0,0,1.34-.09v1a8.44,8.44,0,0,0-1.34-.08h-3.35v2.49h4.36a10.54,10.54,0,0,0,1.43-.08v1a9.79,9.79,0,0,0-1.43-.08h-2.95V19.9c0,.36.19.42,1.35.42s1.55-.08,1.74-.41a5,5,0,0,0,.26-2.08,3.77,3.77,0,0,0,.91.38,6.18,6.18,0,0,1-.42,2.21c-.32.62-.82.75-2.64.75s-2.11-.19-2.11-1v-5h-2.1a6.89,6.89,0,0,1-.57,3,5.31,5.31,0,0,1-2.31,2.45,10.39,10.39,0,0,1-1.73.84,2.82,2.82,0,0,0-.26-.44l-.31-.44A6.76,6.76,0,0,0,128.3,19a4.34,4.34,0,0,0,1.19-2.42,8.82,8.82,0,0,0,.11-1.33H127a9.85,9.85,0,0,0-1.44.08v-1a10.7,10.7,0,0,0,1.44.08h4.19V11.92Z"/></g></g></svg>