<svg id="レイヤー_1" data-name="レイヤー 1" xmlns="http://www.w3.org/2000/svg" viewBox="0 0 67.79 30"><defs><style>.cls-1{fill:#00b4dc;}</style></defs><title>アートボード 27</title><path class="cls-1" d="M42.3,8.54V24.3c0,1.16,0,2.69-3.22,2.69-.6,0-1.41-.07-2-.09a9,9,0,0,0-1.27-3.84,16.5,16.5,0,0,0,2.21.31c.31,0,.62-.15.62-.89V20a10.2,10.2,0,0,0-1.8,2.26,10.47,10.47,0,0,1-4.8-4.95,16.41,16.41,0,0,1-5.19,5.4,6.55,6.55,0,0,0-1.56-2.25V27H21.66V8.54h8.47V4.86L34,5c.28,0,.45.14.45.33s-.31.39-.64.48V8.54Zm-17,10.72A9.2,9.2,0,0,0,30,11.94H25.3Zm8.53-7.32a7,7,0,0,0,1.32,3.94,10.76,10.76,0,0,0,3.5,3.1v-7Z"/><path class="cls-1" d="M63.56,26.85H60.13V26.3h-8v.55H48.56v-6a12,12,0,0,1-1.85.87,6.39,6.39,0,0,0-2.49-2.43c2.44-1,7.77-3.5,10.2-8.59l3.31.63c.24,0,.45.21.45.38s-.07.21-.28.33a23.58,23.58,0,0,0,9.89,6.65,9.08,9.08,0,0,0-2.45,2.81,8,8,0,0,1-1.78-.84ZM66.83,6.59V12H63.68A16.25,16.25,0,0,0,66,13.41a8,8,0,0,0-2.6,2.35,27,27,0,0,1-5.21-4.46l2.57-1.9H51l2.45,1.34a.53.53,0,0,1,.29.39c0,.26-.29.33-.5.36a16.41,16.41,0,0,1-4.4,4.22,7.26,7.26,0,0,0-2.61-2.16A13.42,13.42,0,0,0,48.46,12H45.18V6.59h9V4.67l3.72.1c.26,0,.48.14.48.28s-.27.34-.48.46V6.59ZM48.68,11.78a13.87,13.87,0,0,0,2-2.38h-2ZM60.13,23.37V20.8h-8v2.57Zm-1-5.69a22.46,22.46,0,0,1-3.26-3,27.81,27.81,0,0,1-3,3ZM61,9.4a20.26,20.26,0,0,0,2.44,2.35V9.4Z"/><rect class="cls-1" width="10" height="30"/></svg>