<svg xmlns="http://www.w3.org/2000/svg" viewBox="0 0 630 53.88"><defs><style>.a48e3764-83d7-4dd2-abeb-dd397c512b25{fill:#00b4dc;}</style></defs><title>ttl_campaign</title><g id="eb37a9e3-025b-4a60-a8f1-e97b397e41e6" data-name="レイヤー 2"><g id="b82e2e06-d5d5-4793-8a25-5b4d9247af02" data-name="編集モード"><rect class="a48e3764-83d7-4dd2-abeb-dd397c512b25" y="48.88" width="630" height="5"/><path class="a48e3764-83d7-4dd2-abeb-dd397c512b25" d="M25.23,6.88l1.87.28c.83.15,1.16.18,1.16.58s-.47.47-.87.5c-.14.36-.39.87-.83,1.73h7V28.33c0,3.56-.83,5.07-6.66,5.07,0-.46,0-.68,0-.93a6.28,6.28,0,0,0-1.29-3.85v2.16H15.19v.86H10.47V23.25a1.72,1.72,0,0,1-.36.18A6.89,6.89,0,0,0,7.6,21.06V33.44H2.38V10H9.9A14.73,14.73,0,0,0,8.5,7.34l2.55-.46H1.66V2.56h13.6V0L20.7.25c.36,0,.68.11.68.47s-.36.5-.68.65V2.56H34.41V6.88ZM7.6,14.58v5.07a8,8,0,0,0,3.81-5.07ZM28.54,18.5a3.38,3.38,0,0,1-3.31,2.05h-4.6c-2.13,0-2.81-.75-2.81-2.44V14.58H14.15l1.9.61c.26.07.76.25.76.58,0,.14,0,.39-1,.61a13,13,0,0,1-3.28,5.29H25.63v6.69c.72.08,1.33.18,1.73.18,1.11,0,1.18-.36,1.18-1.18ZM14.15,6.88a18.74,18.74,0,0,1,1.58,2.77l-1.3.32h6.3a20.81,20.81,0,0,0,1.44-3.09Zm6.73,18.5H15.19v1.69h5.69Zm1.47-10.8v1.15c0,.47,0,.79.72.79h1.08c.69,0,.79-.61,1.08-1.94Zm6.19,0H25.27a10.52,10.52,0,0,0,3.27,1.73Z"/><path class="a48e3764-83d7-4dd2-abeb-dd397c512b25" d="M59.47,2.74c.36,0,.54.14.54.36s-.32.43-.86.64a33.41,33.41,0,0,1-1.23,5.94,12.33,12.33,0,0,0-4.61-.86v.93H41.22V6.19H53.31V8.71a33,33,0,0,0,1.3-6.62ZM53,32.83H48.78V31.57H46.69v1.76h-4.5V20.41H53v3.67a17.77,17.77,0,0,0,2.19-6.3l4.61,1c.25,0,.65.22.65.51,0,.54-.72.68-1,.72a29.39,29.39,0,0,1-1.87,5.94A11.62,11.62,0,0,0,53,24.51v4.54c7.7-2.38,7.63-7.13,7.52-13.72l5.22.29c.18,0,.54,0,.54.43,0,.22-.25.4-1,.62,0,.93,0,1.54,0,2.66a10.64,10.64,0,0,0,3.13,5.8c.65.61,3.35,3.09,5.55,3.88a10.41,10.41,0,0,0-3.21,4,17.42,17.42,0,0,1-7.2-6.55,14.74,14.74,0,0,1-7.84,6.81A11,11,0,0,0,53,29.8Zm-1-31.35V5H43V1.48Zm0,9.5v3.49H43V11Zm0,4.71v3.5H43v-3.5ZM48.78,27.46V24.33H46.69v3.13ZM65.48.4c.43,0,.72.07.72.39s-.58.58-1,.69c0,.54-.14,3-.14,3.49a8.2,8.2,0,0,0,2.66,5,22.07,22.07,0,0,0,6.55,3.71A12.74,12.74,0,0,0,71,17.57a20.29,20.29,0,0,1-7.92-5.84,15.92,15.92,0,0,1-7.55,5.76,13.8,13.8,0,0,0-2.85-3.85c6.19-2,7.63-5.07,7.63-10.8,0-1,0-1.65-.07-2.62Zm7.78,3.38a.59.59,0,0,1,.36.5.44.44,0,0,1-.51.44,3,3,0,0,1-.65-.08A23.71,23.71,0,0,1,69.19,9a15.05,15.05,0,0,0-3.82-2.85A19.16,19.16,0,0,0,68.83,1.4Zm-.44,15.37c.36.18.54.32.54.61s-.57.61-1.08.65a21.4,21.4,0,0,1-2.37,3.92,13.86,13.86,0,0,0-3.82-2.55,23.44,23.44,0,0,0,2.52-4.61Z"/><path class="a48e3764-83d7-4dd2-abeb-dd397c512b25" d="M92.05,1.37,97.81.58c.25,0,.76-.08.76.36s-.26.54-.54.75l.68,4.68,8.1-1,.61,5.26L99.5,11.7l.54,3.74,12-1.55.61,5.3-11.81,1.58,1.66,11.34-5.76,1L95,21.53l-12.6,1.65-.65-5.4,12.46-1.62-.54-3.71-8.79,1.16-.64-5.4,8.63-1.08Z"/><path class="a48e3764-83d7-4dd2-abeb-dd397c512b25" d="M130.28,7.16l5-.61c.33,0,.76-.11.76.33,0,.28-.29.5-.54.68l1,5.22L145.26,11a3,3,0,0,0,1.65-1l3.49,2.63c-1.51,1.84-3.52,5.51-6,10.08a32.09,32.09,0,0,0-4.72-2.27,25.68,25.68,0,0,0,2.63-4.1l-4.79,1.08,2.74,13.93-4.9,1.15-2.77-14-7.24,1.62L124,15.3l7.66-1.55Z"/><path class="a48e3764-83d7-4dd2-abeb-dd397c512b25" d="M165.63,1.44c6.05,3.1,7.92,4.89,9,5.9-.86,1.05-1.11,1.44-3.49,4.9a37.13,37.13,0,0,0-9.07-5.76Zm-2.95,24.87c10.26-2.12,20.38-9.07,26.78-19.36a23.27,23.27,0,0,0,3.71,4.89,47.75,47.75,0,0,1-11.19,12,60.41,60.41,0,0,1-14.83,8c0,.39-.18.79-.51.79s-.36-.11-.57-.51Z"/><path class="a48e3764-83d7-4dd2-abeb-dd397c512b25" d="M198.94,17c2.41-1.77,3-2.38,8-8.07,3.39-3.78,4.72-4.89,6.77-4.89,2.3,0,3.42,1.37,5.94,4.43,4.28,5.21,8.71,10.36,14,14.5-1.37,1.73-3.13,4.29-3.82,5.26a196.82,196.82,0,0,1-14-15.95c-1.44-1.84-1.94-1.84-2.38-1.84-.82,0-2,1.34-2.84,2.34-1.69,2-5.25,6.63-6.41,8.39a1.41,1.41,0,0,1,.11.47c0,.18-.11.4-.32.4a.91.91,0,0,1-.61-.36ZM230.61,3.89A3.39,3.39,0,1,1,227.23.5,3.38,3.38,0,0,1,230.61,3.89Zm-5,0a1.58,1.58,0,0,0,1.59,1.58,1.59,1.59,0,1,0-1.59-1.58Z"/><path class="a48e3764-83d7-4dd2-abeb-dd397c512b25" d="M271.26,13.86V20H240V13.86Z"/><path class="a48e3764-83d7-4dd2-abeb-dd397c512b25" d="M284.44,1.44c6,3.1,7.91,4.89,9,5.9-.86,1.05-1.11,1.44-3.49,4.9a37.13,37.13,0,0,0-9.07-5.76Zm-3,24.87c10.26-2.12,20.38-9.07,26.78-19.36A23.27,23.27,0,0,0,312,11.84a47.75,47.75,0,0,1-11.19,12,60.41,60.41,0,0,1-14.83,8c0,.39-.18.79-.51.79s-.36-.11-.57-.51Z"/><path class="a48e3764-83d7-4dd2-abeb-dd397c512b25" d="M327.64,3.06c.68.25,1,.36,1,.61s-.72.4-1,.43A41.85,41.85,0,0,0,325.3,19a12.53,12.53,0,0,0,.25,2.88c.21-.4,1.08-2,1.51-2.7a10.34,10.34,0,0,0,2.77,3c-.9,1.69-2.56,5.87-2.38,8.6l-5.11,1.37a38,38,0,0,1-2.55-14.4c0-6.51,1-11,2.3-16.7ZM337.14,20a9.56,9.56,0,0,0-.54,2.55c0,1.59.86,1.84,5,1.84a37,37,0,0,0,8.89-1,23.77,23.77,0,0,0-.54,5.86,76.28,76.28,0,0,1-9.1.47c-5.37,0-9.51-.93-9.51-5.32a13.36,13.36,0,0,1,1.19-5.3ZM332.78,4.61c1.08.07,2.52.18,4.68.18A41.91,41.91,0,0,0,348,3.64a54.15,54.15,0,0,0,.51,5.47,54.29,54.29,0,0,1-11.09,1.08c-2.12,0-3.53-.11-4.68-.18Z"/><path class="a48e3764-83d7-4dd2-abeb-dd397c512b25" d="M357.34,7.42a28.42,28.42,0,0,0,4.53-.87c10.15-2.66,12.6-3.27,16.56-3.27,8.64,0,12.42,5.72,12.42,12.05,0,13.57-16.38,14.58-22.17,14.87a24.22,24.22,0,0,0-1.84-5.76c6.48,0,17.93-.18,17.93-9,0-1.88-.65-6.88-7-6.88-5.37,0-14.26,3.64-18.15,5.83Z"/><path class="a48e3764-83d7-4dd2-abeb-dd397c512b25" d="M406,3.85c.33.11.72.22.72.54,0,.47-.43.54-.75.58a32,32,0,0,0-2,10.83c0,4.39,1.37,7.45,2.41,7.45s2.52-3.16,3.49-5.43a16.29,16.29,0,0,0,3.78,3.81c-2.88,7-6.15,9.43-7.92,9.43-2,0-7.34-4.28-7.34-15.4A64.3,64.3,0,0,1,400.1,2.2Zm17.39.25a35.89,35.89,0,0,1,7.27,18.11c-2.13.83-4.68,2.05-5.87,2.66a32.69,32.69,0,0,0-6.05-17.81Z"/><path class="a48e3764-83d7-4dd2-abeb-dd397c512b25" d="M469.65,6.7c-10.29-.11-16.41,8.92-16.41,13.6,0,6,8.13,6.41,10,6.52a31.36,31.36,0,0,0-2.7,6.48c-6.3-1.48-13.25-4.83-13.25-12.57,0-6.62,5-10.76,6.38-11.91a122.81,122.81,0,0,0-14.87,2.12l-.76-6.76c.8,0,1.55.1,2.7.1,5.29,0,19.66-1,27.83-3.56Z"/></g></g></svg>