<svg xmlns="http://www.w3.org/2000/svg" viewBox="0 0 630 54.78"><defs><style>.a9c2f637-1628-49e7-a706-fa71f3465252{fill:#00b4dc;}</style></defs><title>ttl_notice</title><g id="e463a417-5e61-4025-a0f2-0ababec08282" data-name="レイヤー 2"><g id="fa2c445c-2de8-42a4-9601-7d1cdc12ac3e" data-name="object"><rect class="a9c2f637-1628-49e7-a706-fa71f3465252" y="49.78" width="630" height="5"/><path class="a9c2f637-1628-49e7-a706-fa71f3465252" d="M25.23,7.77l1.87.29c.83.15,1.16.18,1.16.58s-.47.47-.87.5c-.14.36-.39.87-.83,1.73h7V29.23c0,3.56-.83,5.07-6.66,5.07a9.07,9.07,0,0,0,0-.93,6.27,6.27,0,0,0-1.3-3.85v2.16H15.19v.86H10.48V24.15a2.41,2.41,0,0,1-.36.18A7,7,0,0,0,7.6,22V34.34H2.38V10.87H9.9A14.39,14.39,0,0,0,8.5,8.24l2.55-.47H1.66V3.46h13.6V.9l5.44.25c.36,0,.68.11.68.47s-.36.5-.68.65V3.46H34.41V7.77ZM7.6,15.48v5.07a7.93,7.93,0,0,0,3.81-5.07ZM28.54,19.4a3.38,3.38,0,0,1-3.31,2.05h-4.6c-2.13,0-2.81-.75-2.81-2.44V15.48H14.15l1.9.61c.26.07.76.25.76.58,0,.14,0,.39-1,.61a13,13,0,0,1-3.28,5.29H25.63v6.69c.72.08,1.33.18,1.73.18,1.11,0,1.18-.36,1.18-1.18ZM14.15,7.77a19.77,19.77,0,0,1,1.58,2.78l-1.3.32h6.3a20.53,20.53,0,0,0,1.44-3.1Zm6.73,18.51H15.19V28h5.69Zm1.47-10.8v1.15c0,.47,0,.79.72.79h1.08c.69,0,.8-.61,1.08-1.94Zm6.19,0H25.27a10.52,10.52,0,0,0,3.27,1.73Z"/><path class="a9c2f637-1628-49e7-a706-fa71f3465252" d="M59.47,3.64c.36,0,.54.14.54.36s-.32.43-.86.64a33.41,33.41,0,0,1-1.23,5.94,12.33,12.33,0,0,0-4.61-.86v.93H41.22V7.09H53.31V9.61A33,33,0,0,0,54.61,3ZM53,33.73H48.78V32.47H46.69v1.76h-4.5V21.31H53V25a17.77,17.77,0,0,0,2.19-6.3l4.61,1c.25,0,.65.22.65.51,0,.54-.72.68-1,.72a29.39,29.39,0,0,1-1.87,5.94A11.62,11.62,0,0,0,53,25.41V30c7.7-2.38,7.63-7.13,7.52-13.72l5.22.29c.18,0,.54,0,.54.43,0,.22-.25.4-1,.62,0,.93,0,1.54,0,2.66A10.67,10.67,0,0,0,68.43,26c.65.62,3.35,3.1,5.55,3.89a10.41,10.41,0,0,0-3.21,4,17.42,17.42,0,0,1-7.2-6.55,14.74,14.74,0,0,1-7.84,6.81A11,11,0,0,0,53,30.7Zm-1-31.35V5.87H43V2.38Zm0,9.5v3.49H43V11.88Zm0,4.71v3.5H43v-3.5ZM48.78,28.36V25.23H46.69v3.13ZM65.48,1.3c.43,0,.72.07.72.39s-.57.58-1,.69c0,.54-.14,3-.14,3.49a8.2,8.2,0,0,0,2.66,5,22.07,22.07,0,0,0,6.55,3.71A12.74,12.74,0,0,0,71,18.47a20.28,20.28,0,0,1-7.91-5.84,16,16,0,0,1-7.56,5.76,13.8,13.8,0,0,0-2.85-3.85c6.19-2,7.63-5.07,7.63-10.8,0-1,0-1.65-.07-2.62Zm7.78,3.38a.59.59,0,0,1,.36.5.44.44,0,0,1-.51.44,3,3,0,0,1-.65-.08,23.18,23.18,0,0,1-3.27,4.39,15,15,0,0,0-3.82-2.84A19.16,19.16,0,0,0,68.83,2.3Zm-.44,15.37c.36.18.54.32.54.61s-.57.61-1.08.65a21.4,21.4,0,0,1-2.37,3.92,13.86,13.86,0,0,0-3.82-2.55,23.44,23.44,0,0,0,2.52-4.61Z"/><path class="a9c2f637-1628-49e7-a706-fa71f3465252" d="M103.46,27.64c0,.72.25,1.3,1.44,1.3h2.59c1,0,1.19-.4,1.34-.86.17-.62.61-2.38.82-3.39,2.7,2,4.07,2.27,4.72,2.38a16.62,16.62,0,0,1-1.62,5.25,3.73,3.73,0,0,1-3.24,1.59h-6.62c-2.81,0-5-.94-5-4.54V22.46H94.07l1.76.47c.22.07.61.18.61.61,0,.69-.75.72-1.4.76A18.06,18.06,0,0,1,84,34.66a14.67,14.67,0,0,0-4.28-4.28c2.27-.5,8.85-2,10.29-7.92H84.67V1.84h24.69V22.46h-5.9Zm.36-19.94V6.44H90.54V7.7ZM90.54,11.34v1.29h13.28V11.34Zm0,5.07v1.44h13.28V16.41Z"/><path class="a9c2f637-1628-49e7-a706-fa71f3465252" d="M120.38,11.91V7.16h13.68v-6l5.19.32c.9.07,1,.32,1,.5s-.14.4-.75.8V7.16h13.71v4.75H141.62a33.93,33.93,0,0,0,12.6,13.9c-2.38,1.91-3.1,2.59-3.92,4.14a42,42,0,0,1-5.47-5.11v4.24H139.5v5.08h-5.44V29.08H128.7V24.8A44.45,44.45,0,0,1,123.19,30c-.83-1.59-1.58-2.27-3.92-4.14a33.28,33.28,0,0,0,12.6-13.9Zm13.68,5.48a41.12,41.12,0,0,1-4.86,6.84h4.86Zm10.26,6.84a40,40,0,0,1-4.82-6.77v6.77Z"/><path class="a9c2f637-1628-49e7-a706-fa71f3465252" d="M179.1,12.35h11.08V27.14c0,1.51,0,2.81-1.26,3.71s-3.06,1.08-6.15,1.08a12.14,12.14,0,0,0-1.66-5.55,15.4,15.4,0,0,0,2.24.22c1.15,0,1.36-.25,1.36-1.3V17.42H179.1V34.16h-5.44V17.42h-5.5V31.57h-5.51V12.35h11V9.65H160V4.75h13.68V1.12l5.73.21c.21,0,.54.11.54.43s-.47.62-.83.69v2.3h13.71v4.9H179.49c.22.07.44.21.44.43,0,.39-.51.57-.83.68Z"/><path class="a9c2f637-1628-49e7-a706-fa71f3465252" d="M211.14,20.52c-1,.86-2.81,2.73-2.81,3.92,0,2.59,4.93,2.59,6.44,2.59a50.06,50.06,0,0,0,14.44-2.16,27.25,27.25,0,0,0,.93,6.12,54.7,54.7,0,0,1-14.07,1.66c-5.62,0-7.85-.61-9.61-1.33-1.15-.47-4.57-2.16-4.57-5.8s3.74-7.09,5.22-8.42ZM226.26,8.67c-3.35,1.34-7.09,3.57-9.07,5.87-1.3-1.11-2.67-2.27-3.78-3.09,1.33-1.23,1.65-1.48,2.7-2.34-2.24.18-8.28.5-11.34.43l-.29-6a72.48,72.48,0,0,0,9,.47,70.92,70.92,0,0,0,10.05-.83Zm1.58-5.61a26.27,26.27,0,0,1,3.28,3.78A14.66,14.66,0,0,0,229,9.43a40.22,40.22,0,0,0-3.45-4ZM230.61,0A37.54,37.54,0,0,1,234,3.53,14.07,14.07,0,0,0,231.69,6a28.69,28.69,0,0,0-3.13-3.53Z"/><path class="a9c2f637-1628-49e7-a706-fa71f3465252" d="M258.19,34.2H253V24.58a35.64,35.64,0,0,1-10.55,9.18,12.57,12.57,0,0,0-4.61-3.56A30.94,30.94,0,0,0,249.41,21H239V16.31h6.73A29.08,29.08,0,0,0,242.89,11l2.59-1.44h-4.75V4.86H253V1.19l5.4.32c.43,0,.79.07.79.54s-.72.61-1,.69V4.86h12.2V9.54h-4.68l2.2.93c.25.11.36.26.36.44,0,.46-.43.54-.72.61a32.5,32.5,0,0,1-2.27,4.79h6.8V21H261.39a28.1,28.1,0,0,0,11.2,8.71,17.06,17.06,0,0,0-3.82,3.88,28.22,28.22,0,0,1-10.58-9.21ZM253,16.31V9.54h-4.65a20.16,20.16,0,0,1,3,5.54,17.38,17.38,0,0,0-2.73,1.23Zm5.18-6.77v6.77h4.18a26,26,0,0,0-2.49-1.3,28.17,28.17,0,0,0,2.74-5.47Z"/><path class="a9c2f637-1628-49e7-a706-fa71f3465252" d="M294.12,24.15a25.31,25.31,0,0,1-4.25,4.36,8.92,8.92,0,0,0-3.38-2.41c.64-.51,1.18-.9,2-1.62-2.23,1-5,2-7.88,3,0,.44-.14.94-.54.94s-.5-.47-.58-.83l-1.22-5.07a29.69,29.69,0,0,0,4.07-.76V13.57h-3.71V8.89h3.71V1.4l5.32.29c.44,0,.76.07.76.4s-.22.43-.76.68V8.89h3.21v4.68h-3.21v6.55c.87-.36,1.41-.57,2.27-1h-.25V15.51H311.5v3.64H297.57l-.68,1.15h14.36c0,3.64-.11,10.84-2.45,12.67-1.36,1.08-3.67,1.19-5.93,1.19a10.9,10.9,0,0,0-1-3.89,27.09,27.09,0,0,1-4.28,4.5c-.94-1-1.51-1.29-3.82-2.3a25,25,0,0,0,7.6-8.32h-1.62a25.1,25.1,0,0,1-9.47,9.54,9.53,9.53,0,0,0-3.17-2.88,21.84,21.84,0,0,0,8.39-6.66Zm-3.28-5a15.78,15.78,0,0,0-.25,3.2,23.78,23.78,0,0,0,2.2-3.2ZM309,14.33H292.17V1.66H309Zm-4.86-7.71V5.4H297V6.62ZM297,9.5v1.23h7.09V9.5Zm8.5,14.65a39.4,39.4,0,0,1-2.85,5c.44,0,.83.07,1.27.07.71,0,1.36-.07,1.61-.9a18.1,18.1,0,0,0,.65-4.18Z"/><path class="a9c2f637-1628-49e7-a706-fa71f3465252" d="M335.27,28c7.81-1.44,10.11-7.48,10.11-11.23A8.52,8.52,0,0,0,337.07,8C336,21.13,330.51,31,326.7,31c-2.81,0-8-4.76-8-11.41,0-7.74,7.06-16.78,17.64-16.78,7.88,0,14.76,5.36,14.76,14a16.8,16.8,0,0,1-4.25,11.12c-2.2,2.56-4.75,3.89-7.81,5.22A23.54,23.54,0,0,0,335.27,28ZM324,19.11c0,2.78,1.55,4.86,2.3,4.86s1.55-1.62,1.95-2.55A31.75,31.75,0,0,0,331,9C326.84,10.58,324,15.87,324,19.11Z"/><path class="a9c2f637-1628-49e7-a706-fa71f3465252" d="M375.08,16.2a4.42,4.42,0,0,1-.25-1.55V1l5.47.43c.36,0,.61.15.61.4s-.28.5-.93.86v3.5a37.19,37.19,0,0,0,6.51-3.5l3.75,3.39c.14.14.32.32.32.5a.51.51,0,0,1-.57.51,3.19,3.19,0,0,1-.76-.15,83,83,0,0,1-9.25,4v1.15c0,1.34,1.08,1.34,1.58,1.34h3.53c1.26,0,1.62-1.48,2.09-3.28a12.51,12.51,0,0,0,4.28,1.94c-1,6-3.42,6-5.4,6h-7.49a5.05,5.05,0,0,1-2.8-.83c-.26.54-.72,1.48-1,2.05H387v14.8h-5.61v-1h-14v1H361.8V19.29h7.27a28.58,28.58,0,0,0,1.3-2.91c-5.15.93-5.62,1-10.73,2-.11.43-.25.75-.57.75s-.44-.36-.51-.68l-1.22-4.75c1.33-.07,2.88-.22,4-.4V1.08l5.83.36a.49.49,0,0,1,.47.5c0,.33-.33.51-.83.76V5.26h7.06V9.57h-7.06v2.92c4-.61,5.72-1,7.06-1.26a24.6,24.6,0,0,0-.54,4.57c-.11,0-.19,0-.29.07Zm6.34,8.35v-1.3h-14v1.3Zm0,4.71v-1.4h-14v1.4Z"/><path class="a9c2f637-1628-49e7-a706-fa71f3465252" d="M407.66,27.14A38.25,38.25,0,0,0,417,22.32V18.18h-3.75a27.32,27.32,0,0,1,2.77,3.6,26.55,26.55,0,0,0-3.31,2.55,46.58,46.58,0,0,0-3.27-4.1l2.81-2.05h-3.06a7.2,7.2,0,0,0,.75.86,8.14,8.14,0,0,0-2.19,3.85,26.48,26.48,0,0,1-1.62-2.3V34.34H401.4V22.68a20.92,20.92,0,0,1-1.8,3.67,13.28,13.28,0,0,0-3.38-3.28,31.84,31.84,0,0,0,4.6-11.34h-3.6V7.38h3.93v-6l5,.25c.39,0,.82.14.82.54s-.5.54-.82.61V7.38h2.62v4.35h-2.62v1.16a19.55,19.55,0,0,0,2.8,5V14.29H417V13H410.9V9.57H417V8.24h-7.74V4.61h3.52a13.6,13.6,0,0,0-1.58-2.31l4.21-2A31.23,31.23,0,0,1,417.74,4l-1.19.61h4a26.28,26.28,0,0,0,1.77-4L426.88,2c.44.14.73.29.73.54,0,.47-.47.5-1.08.5-.26.47-.29.58-.87,1.59h4.18V8.24H422V9.57h6V13h-6v1.33h8.56v3.89h-2.66l2.55,2.09a.67.67,0,0,1,.36.54c0,.54-.61.46-1,.46a20.26,20.26,0,0,1-3.68,3.93,18,18,0,0,0,5.4,3.09A9.78,9.78,0,0,0,428.83,32a23.91,23.91,0,0,1-6.8-5.62v2.81c0,4-1.26,5.11-6.92,5.33a12.51,12.51,0,0,0-2-5,14.92,14.92,0,0,0,2.27.18c1.55,0,1.59-.4,1.59-1.3V27.07c-.72.43-3.1,1.87-6.48,3.6,0,.21.11,1.15-.4,1.15s-.65-.47-.86-1ZM422,20.23a12.07,12.07,0,0,0,1.47,2.23,22.62,22.62,0,0,0,3.31-4.28H422Z"/><path class="a9c2f637-1628-49e7-a706-fa71f3465252" d="M435.74,19.87a38.3,38.3,0,0,0,8-8.39c2.92-4,3.89-5.25,6.08-5.25s3.75,1.51,6.09,4.46c3.09,3.85,7.95,9.94,14.79,14.65a36.12,36.12,0,0,0-4,5.47c-6.05-5.11-10.22-10.26-15.08-16.23-.29-.36-1.26-1.55-1.95-1.55s-1.26,1-1.76,1.69c-4.1,6-4.53,6.7-7.34,9.79Z"/></g></g></svg>