<svg width="12" height="120" viewBox="0 0 12 120" fill="none" xmlns="http://www.w3.org/2000/svg">
<path d="M4.99996 71.5L5 120" stroke="white"/>
<circle cx="5" cy="118" r="2" fill="white"/>
<path d="M1.91976 3.01C1.91976 2.47667 2.00309 2.01 2.16976 1.61C2.34309 1.21 2.58642 0.9 2.89976 0.68C3.21976 0.466666 3.58976 0.36 4.00976 0.36L4.22976 0.36C4.26309 0.36 4.28976 0.37 4.30976 0.39C4.33642 0.416666 4.34976 0.446666 4.34976 0.48L4.34976 1.62C4.34976 1.65333 4.33642 1.68 4.30976 1.7C4.28976 1.72667 4.26309 1.74 4.22976 1.74L4.07976 1.74C3.81309 1.74 3.58642 1.86333 3.39976 2.11C3.21976 2.35667 3.12976 2.69 3.12976 3.11C3.12976 3.46333 3.20309 3.72667 3.34976 3.9C3.50309 4.07333 3.68976 4.16 3.90976 4.16C4.06976 4.16 4.20309 4.10667 4.30976 4C4.42309 3.89333 4.51976 3.74667 4.59976 3.56C4.68642 3.38 4.80309 3.09 4.94976 2.69C5.10309 2.24333 5.25976 1.86333 5.41976 1.55C5.57976 1.24333 5.79642 0.983333 6.06976 0.77C6.34976 0.563333 6.69309 0.46 7.09976 0.46C7.49976 0.46 7.84976 0.563333 8.14976 0.77C8.44976 0.976667 8.67976 1.26333 8.83976 1.63C8.99976 1.99667 9.07976 2.42 9.07976 2.9C9.07976 3.40667 8.98976 3.85667 8.80976 4.25C8.62976 4.65 8.37642 4.96 8.04976 5.18C7.72976 5.40667 7.35642 5.52 6.92976 5.52L6.77976 5.52C6.74642 5.52 6.71642 5.50667 6.68976 5.48C6.66976 5.46 6.65976 5.43333 6.65976 5.4L6.65976 4.25C6.65976 4.21667 6.66976 4.18667 6.68976 4.16C6.71642 4.14 6.74642 4.13 6.77976 4.13L6.85976 4.13C7.13976 4.13 7.37642 4.01333 7.56976 3.78C7.76976 3.55333 7.86976 3.24 7.86976 2.84C7.86976 2.52667 7.80309 2.28 7.66976 2.1C7.53642 1.92667 7.35309 1.84 7.11976 1.84C6.95309 1.84 6.81309 1.89 6.69976 1.99C6.58642 2.09667 6.48309 2.25 6.38976 2.45C6.30309 2.65667 6.18309 2.97333 6.02976 3.4C5.85642 3.87333 5.70309 4.24333 5.56976 4.51C5.43642 4.78333 5.23642 5.02667 4.96976 5.24C4.70976 5.46 4.36976 5.57 3.94976 5.57C3.32309 5.57 2.82642 5.34 2.45976 4.88C2.09976 4.42 1.91976 3.79667 1.91976 3.01ZM1.91976 9.01727C1.91976 8.49727 2.01976 8.0406 2.21976 7.64727C2.42642 7.25393 2.71309 6.9506 3.07976 6.73727C3.44642 6.52393 3.86976 6.41727 4.34976 6.41727L6.65976 6.41727C7.13976 6.41727 7.56309 6.52393 7.92976 6.73727C8.29642 6.9506 8.57976 7.25393 8.77976 7.64727C8.97976 8.0406 9.07976 8.49727 9.07976 9.01727C9.07976 9.5306 8.98309 9.9806 8.78976 10.3673C8.60309 10.7606 8.33309 11.0639 7.97976 11.2773C7.63309 11.4973 7.22976 11.6073 6.76976 11.6073C6.70976 11.6073 6.67309 11.5673 6.65976 11.4873L6.58976 10.3173L6.58976 10.2973C6.58976 10.2306 6.62642 10.1973 6.69976 10.1973C7.05309 10.1973 7.33642 10.0873 7.54976 9.86727C7.76309 9.65393 7.86976 9.3706 7.86976 9.01727C7.86976 8.65727 7.76309 8.36727 7.54976 8.14727C7.33642 7.93393 7.05309 7.82727 6.69976 7.82727L4.28976 7.82727C3.94309 7.82727 3.66309 7.93393 3.44976 8.14727C3.23642 8.36727 3.12976 8.65727 3.12976 9.01727C3.12976 9.3706 3.23642 9.65393 3.44976 9.86727C3.66309 10.0873 3.94309 10.1973 4.28976 10.1973C4.36309 10.1973 4.39976 10.2373 4.39976 10.3173L4.34976 11.4873C4.34976 11.5206 4.33976 11.5473 4.31976 11.5673C4.29976 11.5939 4.27642 11.6073 4.24976 11.6073C3.78976 11.6073 3.38309 11.4973 3.02976 11.2773C2.67642 11.0639 2.40309 10.7606 2.20976 10.3673C2.01642 9.9806 1.91976 9.5306 1.91976 9.01727ZM1.99976 16.4812C1.99976 16.4146 2.02976 16.3679 2.08976 16.3412L4.85976 15.0912C4.88642 15.0779 4.89976 15.0579 4.89976 15.0312L4.89976 14.1012C4.89976 14.0679 4.88309 14.0512 4.84976 14.0512L2.11976 14.0512C2.08642 14.0512 2.05642 14.0379 2.02976 14.0112C2.00976 13.9912 1.99976 13.9646 1.99976 13.9312L1.99976 12.7612C1.99976 12.7279 2.00976 12.6979 2.02976 12.6712C2.05642 12.6512 2.08642 12.6412 2.11976 12.6412L8.87976 12.6412C8.91309 12.6412 8.93976 12.6512 8.95976 12.6712C8.98642 12.6979 8.99976 12.7279 8.99976 12.7612L8.99976 15.6213C8.99976 16.0479 8.91309 16.4212 8.73976 16.7413C8.56642 17.0679 8.31976 17.3179 7.99976 17.4912C7.67976 17.6712 7.30976 17.7612 6.88976 17.7612C6.43642 17.7612 6.04642 17.6479 5.71976 17.4213C5.39976 17.1946 5.17309 16.8779 5.03976 16.4713C5.02642 16.4379 5.00309 16.4279 4.96976 16.4412L2.13976 17.8012C2.11309 17.8146 2.09309 17.8213 2.07976 17.8213C2.02642 17.8213 1.99976 17.7846 1.99976 17.7112L1.99976 16.4812ZM7.78976 14.1012C7.78976 14.0679 7.77309 14.0512 7.73976 14.0512L6.02976 14.0512C5.99642 14.0512 5.97976 14.0679 5.97976 14.1012L5.97976 15.4113C5.97976 15.6913 6.06309 15.9179 6.22976 16.0912C6.39642 16.2713 6.61309 16.3613 6.87976 16.3613C7.14642 16.3613 7.36309 16.2713 7.52976 16.0912C7.70309 15.9179 7.78976 15.6913 7.78976 15.4113L7.78976 14.1012ZM1.88975 21.2738C1.88975 20.7538 1.99642 20.2938 2.20976 19.8938C2.42309 19.5005 2.71976 19.1938 3.09976 18.9738C3.48642 18.7538 3.92976 18.6438 4.42976 18.6438L6.56976 18.6438C7.06309 18.6438 7.49976 18.7538 7.87976 18.9738C8.25976 19.1938 8.55309 19.5005 8.75976 19.8938C8.97309 20.2938 9.07975 20.7538 9.07975 21.2738C9.07975 21.8005 8.97309 22.2605 8.75976 22.6538C8.55309 23.0538 8.25976 23.3638 7.87975 23.5838C7.49975 23.8038 7.06309 23.9138 6.56975 23.9138L4.42975 23.9138C3.92975 23.9138 3.48642 23.8038 3.09975 23.5838C2.71309 23.3638 2.41309 23.0538 2.19975 22.6538C1.99309 22.2605 1.88975 21.8005 1.88975 21.2738ZM3.09975 21.2738C3.09975 21.6405 3.21642 21.9372 3.44975 22.1638C3.68309 22.3905 3.99309 22.5038 4.37975 22.5038L6.57976 22.5038C6.96642 22.5038 7.27642 22.3905 7.50975 22.1638C7.74975 21.9438 7.86976 21.6472 7.86976 21.2738C7.86976 20.9072 7.74976 20.6105 7.50975 20.3838C7.27642 20.1638 6.96642 20.0538 6.57976 20.0538L4.37976 20.0538C3.99309 20.0538 3.68309 20.1638 3.44976 20.3838C3.21642 20.6105 3.09976 20.9072 3.09975 21.2738ZM1.99975 25.1148C1.99975 25.0814 2.00975 25.0514 2.02975 25.0248C2.05642 25.0048 2.08642 24.9948 2.11975 24.9948L8.87976 24.9948C8.91309 24.9948 8.93976 25.0048 8.95976 25.0248C8.98642 25.0514 8.99976 25.0814 8.99976 25.1148L8.99976 26.2848C8.99976 26.3181 8.98642 26.3448 8.95976 26.3648C8.93975 26.3914 8.91309 26.4048 8.87975 26.4048L3.25975 26.4048C3.22642 26.4048 3.20975 26.4214 3.20975 26.4548L3.20975 29.7248C3.20975 29.7581 3.19642 29.7848 3.16975 29.8048C3.14975 29.8314 3.12309 29.8448 3.08975 29.8448L2.11975 29.8448C2.08642 29.8448 2.05642 29.8314 2.02975 29.8048C2.00975 29.7848 1.99975 29.7581 1.99975 29.7248L1.99975 25.1148ZM1.99975 30.8374C1.99975 30.8041 2.00975 30.7741 2.02975 30.7474C2.05642 30.7274 2.08642 30.7174 2.11975 30.7174L8.87975 30.7174C8.91309 30.7174 8.93975 30.7274 8.95975 30.7474C8.98642 30.7741 8.99975 30.8041 8.99975 30.8374L8.99975 32.0074C8.99975 32.0408 8.98642 32.0674 8.95975 32.0874C8.93975 32.1141 8.91309 32.1274 8.87975 32.1274L3.25975 32.1274C3.22642 32.1274 3.20975 32.1441 3.20975 32.1774L3.20975 35.4474C3.20975 35.4808 3.19642 35.5074 3.16975 35.5274C3.14975 35.5541 3.12309 35.5674 3.08975 35.5674L2.11975 35.5674C2.08642 35.5674 2.05642 35.5541 2.02975 35.5274C2.00975 35.5074 1.99975 35.4808 1.99975 35.4474L1.99975 30.8374ZM1.99975 38.562C1.99975 38.5287 2.00975 38.4987 2.02975 38.472C2.05642 38.452 2.08642 38.442 2.11975 38.442L8.87975 38.442C8.91309 38.442 8.93975 38.452 8.95975 38.472C8.98642 38.4987 8.99975 38.5287 8.99975 38.562L8.99975 41.062C8.99975 41.562 8.90975 41.9987 8.72975 42.372C8.55642 42.752 8.30975 43.0454 7.98975 43.252C7.66975 43.4587 7.29975 43.562 6.87975 43.562L4.11975 43.562C3.69975 43.562 3.32975 43.4587 3.00975 43.252C2.68975 43.0454 2.43975 42.752 2.25975 42.372C2.08642 41.9987 1.99975 41.562 1.99975 41.062L1.99975 38.562ZM3.25975 39.852C3.22642 39.852 3.20975 39.8687 3.20975 39.902L3.20975 41.112C3.20975 41.4187 3.31309 41.6654 3.51975 41.852C3.72642 42.0454 4.00309 42.1454 4.34975 42.152L6.64975 42.152C6.99642 42.152 7.27309 42.0554 7.47975 41.862C7.68642 41.6754 7.78975 41.422 7.78975 41.102L7.78975 39.902C7.78975 39.8687 7.77309 39.852 7.73975 39.852L3.25975 39.852ZM1.88975 47.1039C1.88975 46.5839 1.99642 46.1239 2.20975 45.7239C2.42309 45.3306 2.71975 45.0239 3.09975 44.8039C3.48642 44.5839 3.92975 44.4739 4.42975 44.4739L6.56975 44.4739C7.06309 44.4739 7.49975 44.5839 7.87975 44.8039C8.25975 45.0239 8.55309 45.3306 8.75975 45.7239C8.97309 46.1239 9.07975 46.5839 9.07975 47.1039C9.07975 47.6306 8.97309 48.0906 8.75975 48.4839C8.55309 48.8839 8.25975 49.1939 7.87975 49.4139C7.49975 49.6339 7.06309 49.7439 6.56975 49.7439L4.42975 49.7439C3.92975 49.7439 3.48642 49.6339 3.09975 49.4139C2.71309 49.1939 2.41309 48.8839 2.19975 48.4839C1.99309 48.0906 1.88975 47.6306 1.88975 47.1039ZM3.09975 47.1039C3.09975 47.4706 3.21642 47.7672 3.44975 47.9939C3.68309 48.2206 3.99309 48.3339 4.37975 48.3339L6.57975 48.3339C6.96642 48.3339 7.27642 48.2206 7.50975 47.9939C7.74975 47.7739 7.86975 47.4772 7.86975 47.1039C7.86975 46.7372 7.74975 46.4406 7.50975 46.2139C7.27642 45.9939 6.96642 45.8839 6.57975 45.8839L4.37975 45.8839C3.99309 45.8839 3.68309 45.9939 3.44975 46.2139C3.21642 46.4406 3.09975 46.7372 3.09975 47.1039ZM1.99975 52.2284C1.99975 52.155 2.03309 52.1084 2.09975 52.0884L8.86975 50.3184L8.90975 50.3084C8.96975 50.3084 8.99975 50.345 8.99975 50.4184L8.99975 51.6584C8.99975 51.725 8.96642 51.7684 8.89975 51.7884L4.82975 52.7384C4.80309 52.745 4.78975 52.755 4.78975 52.7684C4.78975 52.7817 4.80309 52.7917 4.82975 52.7984L8.88975 53.7184C8.96309 53.7384 8.99975 53.7817 8.99975 53.8484L8.99975 55.0584C8.99975 55.1317 8.96642 55.1784 8.89975 55.1984L4.82975 56.1984C4.80975 56.205 4.79642 56.215 4.78975 56.2284C4.78975 56.2417 4.80309 56.2517 4.82975 56.2584L8.88975 57.1784C8.96309 57.1984 8.99975 57.2417 8.99975 57.3084L8.99975 58.4884C8.99975 58.5817 8.95642 58.6184 8.86975 58.5984L2.09975 56.9584C2.03309 56.9384 1.99975 56.8917 1.99975 56.8184L1.99975 55.6284C1.99975 55.5617 2.03309 55.5184 2.09975 55.4984L6.42975 54.4784C6.45642 54.4717 6.46975 54.4617 6.46975 54.4484C6.46975 54.435 6.45642 54.425 6.42975 54.4184L2.10975 53.4684C2.03642 53.455 1.99975 53.4117 1.99975 53.3384L1.99975 52.2284ZM8.87975 63.4093C8.91309 63.4093 8.93975 63.4193 8.95975 63.4393C8.98642 63.466 8.99975 63.496 8.99975 63.5293L8.99975 64.6993C8.99975 64.7326 8.98642 64.7593 8.95975 64.7793C8.93975 64.806 8.91309 64.8193 8.87975 64.8193L2.11975 64.8193C2.08642 64.8193 2.05642 64.806 2.02975 64.7793C2.00975 64.7593 1.99975 64.7326 1.99975 64.6993L1.99975 63.5693C1.99975 63.5026 2.02642 63.456 2.07975 63.4293L6.35975 60.8393C6.37975 60.826 6.38642 60.8126 6.37975 60.7993C6.37975 60.786 6.36642 60.7793 6.33975 60.7793L2.11975 60.7993C2.08642 60.7993 2.05642 60.786 2.02975 60.7593C2.00975 60.7393 1.99975 60.7126 1.99975 60.6793L1.99975 59.5093C1.99975 59.476 2.00975 59.446 2.02975 59.4193C2.05642 59.3993 2.08642 59.3893 2.11975 59.3893L8.87975 59.3893C8.91309 59.3893 8.93975 59.3993 8.95975 59.4193C8.98642 59.446 8.99975 59.476 8.99975 59.5093L8.99975 60.6393C8.99975 60.706 8.97309 60.7526 8.91975 60.7793L4.65975 63.3593C4.63975 63.3726 4.62975 63.386 4.62975 63.3993C4.63642 63.4126 4.65309 63.4193 4.67975 63.4193L8.87975 63.4093Z" fill="white"/>
</svg>
