<svg id="レイヤー_1" data-name="レイヤー 1" xmlns="http://www.w3.org/2000/svg" viewBox="0 0 162.71 30"><defs><style>.cls-1{fill:#ff5064;}</style></defs><title>アートボード 4</title><path class="cls-1" d="M38.07,15.25H25.93v-2A22.44,22.44,0,0,1,23,14.82a13.08,13.08,0,0,0-2.66-2.88c3.65-1,8.4-4.82,9.72-7.46L34.35,5c.15,0,.31.09.31.31s-.31.38-.48.43a21.38,21.38,0,0,0,9.56,5.79,8.35,8.35,0,0,0-2.38,3A22.18,22.18,0,0,1,38.07,13ZM22,22.91l3.74-.12a29,29,0,0,0,1.52-3.5H22.16V16.12H41.89v3.17H37a29.41,29.41,0,0,1,5,5.4,14.49,14.49,0,0,0-2.79,2.54,27.06,27.06,0,0,0-1.68-2.4c-2.76.46-8.09,1.18-13.85,1.54-.19.43-.28.67-.55.67s-.29-.22-.31-.38ZM36.61,12.09a31.72,31.72,0,0,1-4.73-3.87,41.51,41.51,0,0,1-4.27,3.87Zm-1.54,7.2H32c0,.21-.07.36-.57.45-.44,1-1,1.88-1.49,2.81,2.42-.19,3.86-.36,5-.5-.67-.6-1.06-.94-1.51-1.32Z"/><path class="cls-1" d="M50.58,22.05a.34.34,0,0,1,.24.33c0,.36-.41.36-.68.36a25.94,25.94,0,0,1-2.88,4.08,11.34,11.34,0,0,0-2.92-1.41,14.4,14.4,0,0,0,3.24-4.71ZM52,7.26V5.1l3.67.22c.22,0,.41.09.41.31s-.07.31-.65.5V7.26H56.6v2.79H55.42v7.8h1.35v2.69h-12V17.85h1.6v-7.8H45V7.26h1.46v-2l3.63.14a.35.35,0,0,1,.36.34c0,.24-.24.33-.58.5v1Zm-2.16,2.79v1.1H52v-1.1Zm0,3.36v1.08H52V13.41Zm0,3.36v1.08H52V16.77ZM57.58,5.85h8.91v18.5c0,1.54-.53,2.57-4.3,2.5a7.74,7.74,0,0,0-1.41-3.31,7.74,7.74,0,0,0,1.53.21c.68,0,.68-.36.68-.72V19H60.83a14.69,14.69,0,0,1-3.56,8.09,6.31,6.31,0,0,0-3-1.75,15.37,15.37,0,0,0,1.1-1.3A8,8,0,0,0,53,25.46a16.49,16.49,0,0,1-1.88-3.41l2.52-1.32a14.85,14.85,0,0,0,2,3,12.85,12.85,0,0,0,2-7.56ZM63,14H61v1.73c0,.14,0,.26,0,.41h2Zm-2-2.91h2V8.92H61Z"/><path class="cls-1" d="M75.22,6.78c.46.17.65.24.65.41s-.48.26-.65.29a27.88,27.88,0,0,0-1.56,9.91,8.29,8.29,0,0,0,.17,1.92c.15-.26.72-1.32,1-1.8a7,7,0,0,0,1.85,2,13.54,13.54,0,0,0-1.59,5.74l-3.4.91A25.21,25.21,0,0,1,70,16.53,45.26,45.26,0,0,1,71.53,5.39Zm6.34,11.28a6.75,6.75,0,0,0-.36,1.71c0,1.05.58,1.22,3.34,1.22a24.07,24.07,0,0,0,5.93-.65,15.59,15.59,0,0,0-.36,3.92,51,51,0,0,1-6.08.31c-3.57,0-6.33-.63-6.33-3.55a8.9,8.9,0,0,1,.79-3.53ZM78.66,7.81c.72.05,1.68.12,3.12.12a28.24,28.24,0,0,0,7-.76c0,.38.12,2.49.34,3.64a34.8,34.8,0,0,1-7.39.73c-1.42,0-2.36-.08-3.12-.12Z"/><path class="cls-1" d="M92.62,9.69a18.91,18.91,0,0,0,3-.58c6.77-1.77,8.4-2.18,11-2.18,5.76,0,8.28,3.81,8.28,8,0,9-10.92,9.72-14.79,9.91A15.64,15.64,0,0,0,99,21c4.32,0,12-.12,12-6a4.28,4.28,0,0,0-4.68-4.59c-3.57,0-9.5,2.43-12.09,3.89Z"/><path class="cls-1" d="M122.65,7.31c.22.07.48.14.48.36s-.29.36-.51.38a21.67,21.67,0,0,0-1.34,7.23c0,2.93.91,5,1.61,5s1.68-2.11,2.33-3.63a11,11,0,0,0,2.52,2.55c-1.92,4.65-4.11,6.29-5.28,6.29-1.35,0-4.9-2.86-4.9-10.28a42.63,42.63,0,0,1,1.18-9Zm11.59.17a23.94,23.94,0,0,1,4.85,12.07c-1.42.55-3.12,1.37-3.91,1.78a21.92,21.92,0,0,0-4-11.88Z"/><path class="cls-1" d="M162.71,9.21c-6.87-.08-11,5.95-11,9.07,0,4,5.43,4.27,6.7,4.34a21.34,21.34,0,0,0-1.8,4.32c-4.2-1-8.84-3.21-8.84-8.37,0-4.42,3.32-7.18,4.25-8A82.65,82.65,0,0,0,142.16,12l-.5-4.51c.52,0,1,.07,1.8.07,3.52,0,13.1-.67,18.55-2.38Z"/><rect class="cls-1" width="10" height="30"/></svg>