<svg id="レイヤー_1" data-name="レイヤー 1" xmlns="http://www.w3.org/2000/svg" viewBox="0 0 403.69 30"><defs><style>.cls-1{fill:#ff5064;}</style></defs><title>アートボード 9</title><path class="cls-1" d="M31.09,5.51c.31,0,.5.1.5.31s-.26.34-.4.39c-.08.72-.12,1.56-.17,2.54a17.48,17.48,0,0,0,3.77-1.2c0,.89,0,2,0,2.54a9.9,9.9,0,0,0,0,1.3,17.86,17.86,0,0,1-3.94,1.08c0,.27-.05,1.42-.05,1.63a12.23,12.23,0,0,1,4.08-.72,6.37,6.37,0,0,1,6.65,6.51,5.56,5.56,0,0,1-5.69,6c-3.62,0-3.74-3.21-3.77-4.22.51-.17,2.67-.89,3-1,0,.48,0,1.61,1.13,1.61.91,0,1.51-.91,1.51-2.11A3,3,0,0,0,34.5,17a11.13,11.13,0,0,0-3.72.84A70.12,70.12,0,0,0,31.09,25L27.8,26.51a32.22,32.22,0,0,0-4.2-3.43c-.6.65-.89,1-1.22,1.39l-1.73-4.13c1.1-.6,5.47-3.91,6.43-4.51,0-.84,0-1,0-2.88-1.42.07-3.1.1-4.47.1V9.23a10.24,10.24,0,0,0,1.9.15c.93,0,2.28-.1,2.57-.1,0-1.8,0-2.06-.1-4.47ZM25.71,21a2.58,2.58,0,0,0,1.08.63c.36,0,.34-.84.31-1.76C26.82,20.1,26.31,20.46,25.71,21ZM38.24,8.22a20.46,20.46,0,0,1,5.23,3.84A16.72,16.72,0,0,0,41.15,15a13.94,13.94,0,0,0-5.09-3.77Z"/><path class="cls-1" d="M58.35,6c.27.1.41.17.41.39s-.41.41-.69.43a28.83,28.83,0,0,0-1.42,2.52c1.27.12,2.5.17,3,.17s.84,0,1.18,0a17.89,17.89,0,0,0-1.06,3.79,29,29,0,0,1-4.54-.21c-.29.65-.62,1.51-.86,2.11a35.69,35.69,0,0,0,5.33.36c-.46,1.3-.84,2.81-1,3.55-1.47-.09-3.12-.24-5.38-.57A7.91,7.91,0,0,0,53,20.44c0,2.93,2.71,2.93,3.88,2.93s4.66,0,4.66-3.48a9.19,9.19,0,0,0-1.22-3.75A11.5,11.5,0,0,0,64,14.85a12.49,12.49,0,0,1,1.66,5.45c0,5.28-5.57,6.5-8.72,6.5-4.82,0-7.49-2.5-7.49-6a12.1,12.1,0,0,1,.36-2.91A19.1,19.1,0,0,1,46.66,17l.82-3.55a21.81,21.81,0,0,0,3.24,1c.1-.31.26-.84.72-2.13a21.83,21.83,0,0,1-3.58-1.2l.72-3.72a31.23,31.23,0,0,0,4.25,1.32c.24-.65,1.4-3.58,1.63-4.18Z"/><path class="cls-1" d="M80.6,5.68c.19.05.46.14.46.38s-.12.31-.53.34C80,8,80,8.2,79.83,8.56a36.24,36.24,0,0,0,7.83-1.9c.12.79.43,2.62.67,3.58a41.65,41.65,0,0,1-9.82,2c-.57,1.58-.77,2.06-1.25,3.24a14.24,14.24,0,0,1,6.25-1.63c6.4,0,6.74,4.51,6.74,5.71a5.93,5.93,0,0,1-2.57,4.85c-1.27.86-3.67,2.3-10.32,2.3a21.41,21.41,0,0,1-2.23-.12,17.12,17.12,0,0,0-.89-3.57c.7.07,2.11.21,3.58.21.55,0,4.65,0,7.13-1.46a2.44,2.44,0,0,0,1.29-2.26c0-1.39-.72-2.57-2.93-2.57A12.3,12.3,0,0,0,75,21l-3.46-1.73a33.08,33.08,0,0,0,3.19-6.74c-2.08,0-3.74-.07-4.65-.14l0-3.94A22.25,22.25,0,0,0,75.85,9a31.76,31.76,0,0,0,.91-4.25Z"/><path class="cls-1" d="M103.76,8.85c.29.33,1.49,1.82,1.73,2.11a10.27,10.27,0,0,1,2.64-.41,4.57,4.57,0,0,1,4.78,4.68c0,4.49-4.88,4.9-7.32,5.09a16.57,16.57,0,0,0-1.11-3.22c.41,0,.7,0,1.11,0,.81,0,3.88,0,3.88-2.11,0-.41-.12-1.35-1.53-1.35-.22,0-.41,0-.53,0,.43.69.67,1.15.89,1.51-.89.36-2.28.93-3.15,1.32a15,15,0,0,0-.88-1.85c-.89.41-1.42.7-1.76.89a46.93,46.93,0,0,1,3.36,9.26,31.28,31.28,0,0,0-3.41,1.66,41.31,41.31,0,0,0-2.8-9.22c-.7.51-.89.67-2.72,2.23l-2.16-3.38a30.85,30.85,0,0,0,3.41-1.7A17.76,17.76,0,0,0,96,11.27L99.3,9.93a1.16,1.16,0,0,1,.5-.15.26.26,0,0,1,.29.27.69.69,0,0,1-.22.38l1.3,2.38,1.37-.68c-.39-.52-.51-.69-1.51-2Z"/><path class="cls-1" d="M120.61,10.05a24.51,24.51,0,0,1,5.62,3.29,22.52,22.52,0,0,0-2.33,3.19,20.68,20.68,0,0,0-5.45-3.27ZM119.84,23a35.08,35.08,0,0,0,16.9-12.72,12.58,12.58,0,0,0,2.47,3.24c-3,4.51-10.13,10.42-16.54,12.79,0,.15,0,.55-.41.55-.16,0-.31-.24-.36-.31ZM123,4.72a36.49,36.49,0,0,1,6,2.83c-.51.58-2,2.62-2.28,3.12a25.47,25.47,0,0,0-5.84-3Z"/><path class="cls-1" d="M144.56,25.07V22h10.73V19.55H145.18V16.41h10.11V14.1H144.87V11h13.78V25.79h-3.36v-.72Z"/><path class="cls-1" d="M186.44,14v4.08H165.58V14Z"/><path class="cls-1" d="M200.31,22.82c5.21-1,6.75-5,6.75-7.49a5.68,5.68,0,0,0-5.55-5.88c-.74,8.78-4.36,15.33-6.91,15.33-1.87,0-5.35-3.16-5.35-7.6A11.78,11.78,0,0,1,201,6c5.26,0,9.84,3.58,9.84,9.31A11.21,11.21,0,0,1,208,22.72a13.4,13.4,0,0,1-5.21,3.48A15.37,15.37,0,0,0,200.31,22.82Zm-7.51-5.93c0,1.85,1,3.24,1.54,3.24s1-1.08,1.29-1.71a20.9,20.9,0,0,0,1.85-8.25C194.7,11.2,192.8,14.73,192.8,16.89Z"/><path class="cls-1" d="M226.59,26.49h-4.13V15.57A44.73,44.73,0,0,1,215.82,19a12,12,0,0,0-2.88-3.44,33.5,33.5,0,0,0,16.34-11l3.19,2.52a.55.55,0,0,1,.29.46c0,.21-.19.31-.38.31a1.52,1.52,0,0,1-.48-.07,47,47,0,0,1-5.31,4.92Z"/><path class="cls-1" d="M236.79,16.48c1.71-1.32,2-1.68,5.93-6.29,1.92-2.28,3.17-2.35,3.74-2.35,1.18,0,2.07.62,3.22,2,5,5.95,6.51,7.68,10.13,10.61a19.8,19.8,0,0,0-2.52,3.48c-1.3-1.25-2.64-2.52-8.83-9.82a16.58,16.58,0,0,0-1.61-1.8.73.73,0,0,0-.51-.19c-.55,0-1.31.91-1.94,1.63s-3.6,4.61-4.2,5.38a.67.67,0,0,1,.14.43.26.26,0,0,1-.28.26c-.17,0-.27-.07-.46-.29Zm17.72-9.43A17.07,17.07,0,0,1,257,9.62a13.42,13.42,0,0,0-1.78,1.68,26.7,26.7,0,0,0-2.5-2.67ZM257,4.84a23.84,23.84,0,0,1,2.38,2.54,19.9,19.9,0,0,0-1.68,1.71,23.59,23.59,0,0,0-2.45-2.79Z"/><path class="cls-1" d="M264.82,5.7c4,2.07,5.29,3.27,6,3.94-.57.7-.74,1-2.32,3.26a25.25,25.25,0,0,0-6.05-3.84Zm-2,16.59A28.43,28.43,0,0,0,280.71,9.38a15.35,15.35,0,0,0,2.48,3.26,31.84,31.84,0,0,1-7.47,8A39.35,39.35,0,0,1,265.83,26c0,.27-.12.53-.33.53s-.24-.07-.39-.33Z"/><path class="cls-1" d="M297,11.58a35.06,35.06,0,0,1,8.38,5.64c-1.08,1.56-1.2,1.73-2.26,3.36a35.49,35.49,0,0,0-7.49-5.32V26.51h-4V5.32l4,.19c.17,0,.46,0,.46.26s-.26.34-.46.39V13.5Z"/><path class="cls-1" d="M330.3,8.54V24.3c0,1.16,0,2.69-3.22,2.69-.6,0-1.41-.07-2-.09a9,9,0,0,0-1.27-3.84,16.5,16.5,0,0,0,2.21.31c.31,0,.62-.15.62-.89V20a10.2,10.2,0,0,0-1.8,2.26,10.47,10.47,0,0,1-4.8-4.95,16.41,16.41,0,0,1-5.19,5.4,6.55,6.55,0,0,0-1.56-2.25V27h-3.64V8.54h8.47V4.86L322,5c.29,0,.45.14.45.33s-.31.39-.64.48V8.54Zm-17,10.72A9.2,9.2,0,0,0,318,11.94H313.3Zm8.53-7.32a7,7,0,0,0,1.32,3.94,10.76,10.76,0,0,0,3.5,3.1v-7Z"/><path class="cls-1" d="M351.56,26.85h-3.43V26.3h-8v.55h-3.53v-6a12,12,0,0,1-1.85.87,6.39,6.39,0,0,0-2.49-2.43c2.44-1,7.77-3.5,10.2-8.59l3.31.63c.24,0,.46.21.46.38s-.08.21-.29.33a23.58,23.58,0,0,0,9.89,6.65,9.08,9.08,0,0,0-2.45,2.81,8,8,0,0,1-1.78-.84Zm3.27-20.26V12h-3.15A16.25,16.25,0,0,0,354,13.41a8,8,0,0,0-2.6,2.35,26.54,26.54,0,0,1-5.2-4.46l2.56-1.9H339l2.45,1.34a.53.53,0,0,1,.29.39c0,.26-.29.33-.5.36a16.41,16.41,0,0,1-4.4,4.22,7.26,7.26,0,0,0-2.61-2.16A13.42,13.42,0,0,0,336.46,12h-3.28V6.59h9V4.67l3.72.1c.26,0,.48.14.48.28s-.27.34-.48.46V6.59Zm-18.15,5.19a13.87,13.87,0,0,0,2-2.38h-2Zm11.45,11.59V20.8h-8v2.57Zm-1-5.69a22.46,22.46,0,0,1-3.26-3,27.81,27.81,0,0,1-3,3ZM349,9.4a20.26,20.26,0,0,0,2.44,2.35V9.4Z"/><path class="cls-1" d="M358.16,8.77a16.47,16.47,0,0,0,2.66.2c.7,0,1.42-.05,2.45-.12a39,39,0,0,0,.89-4.08l3.77,1.17c.34.1.46.19.46.39s-.39.28-.51.28c-.07.17-.38,1.28-.48,1.59A21,21,0,0,0,370,7.41a25,25,0,0,0,.08,3.57,32.09,32.09,0,0,1-3.84.84c-.34,1-1.16,3.2-2.45,6.15A32.4,32.4,0,0,1,361,23.25a18.92,18.92,0,0,0-3.6-1.44,43.56,43.56,0,0,0,4.85-9.48c-.56.05-2.86.12-3.6.12Zm15.53,6.56a3.52,3.52,0,0,0-.86,2.35,15.84,15.84,0,0,0,.24,2.35A25.28,25.28,0,0,1,378.15,23a24.16,24.16,0,0,0-2.2,2.88,23.06,23.06,0,0,0-2.76-2c-.46,2.26-2,2.93-4.8,2.93-3.82,0-5.72-1.7-5.72-4,0-.45.1-3.79,4.95-3.79.67,0,1.15.05,1.58.07,0-.17-.12-1.89-.12-2.09a4.65,4.65,0,0,1,1.68-3.33Zm-5.95,6.53c-.67,0-1.54.33-1.54,1s.7.89,1.71.89c1.63,0,1.72-.79,1.8-1.39A4.65,4.65,0,0,0,367.74,21.86Zm4.65-12.8a17.87,17.87,0,0,1,6.32,3.12,31.68,31.68,0,0,0-2.19,3.1,17.12,17.12,0,0,0-6-3.1Z"/><path class="cls-1" d="M401.07,13.34c-4.56.19-13.92,4-13.92,7.36,0,1.88,3.34,2.07,5.55,2.07a24.49,24.49,0,0,0,8.37-1.39,13.74,13.74,0,0,0-.36,3.24,7.54,7.54,0,0,0,.08,1,43.94,43.94,0,0,1-7.88.69c-4.25,0-6.17-.55-7.34-1.29a5,5,0,0,1-2.5-4.13c0-3.26,3.19-5.5,5.21-6.72-1.37-1.37-1.56-2.71-2-6a8.89,8.89,0,0,0-.58-2.33l4.71-1a11.71,11.71,0,0,0-.15,2.21c0,3.81.7,4.92,1,5.45,1.52-.7,2.88-1.35,5.24-2.26.48-.19,2.66-1,3.12-1.18Zm-2-8.17a17,17,0,0,1,1.73,2.55,8.26,8.26,0,0,0-2,1.2,24.69,24.69,0,0,0-1.6-2.47ZM402,4.36a17.18,17.18,0,0,1,1.73,2.54,8.26,8.26,0,0,0-2,1.2,19.11,19.11,0,0,0-1.61-2.47Z"/><rect class="cls-1" width="10" height="30"/></svg>