<svg id="レイヤー_1" data-name="レイヤー 1" xmlns="http://www.w3.org/2000/svg" viewBox="0 0 91.52 30"><defs><style>.cls-1{fill:#ff5064;}</style></defs><title>アートボード 12</title><path class="cls-1" d="M42.39,14.49c-6.84,0-10.1,4.17-10.1,6.57s2.57,2.72,6.26,2.74a22.93,22.93,0,0,0-1.32,3.63c-3.79-.34-9.09-.89-9.09-5.89a7.77,7.77,0,0,1,2.64-5.4,56.9,56.9,0,0,0-8.93,2.14l-.94-4.34c1.87-.08,4-.24,5.86-.46a20,20,0,0,0,4.46-4.39l-3.84.38c-.74,0-1.25.07-1.73.07l-.24-3.72c.58,0,1.52.07,2.79.07A43.15,43.15,0,0,0,37.67,5l1.48,2.21a71.93,71.93,0,0,0-6.52,5.49c4-.72,6-1.1,9.36-1.87Z"/><path class="cls-1" d="M56.31,22.82c5.21-1,6.75-5,6.75-7.49a5.68,5.68,0,0,0-5.55-5.88c-.74,8.78-4.36,15.33-6.91,15.33-1.87,0-5.35-3.16-5.35-7.6A11.78,11.78,0,0,1,57,6c5.26,0,9.84,3.58,9.84,9.31A11.21,11.21,0,0,1,64,22.72a13.4,13.4,0,0,1-5.21,3.48A15.37,15.37,0,0,0,56.31,22.82ZM48.8,16.89c0,1.85,1,3.24,1.54,3.24s1-1.08,1.29-1.71a20.9,20.9,0,0,0,1.85-8.25C50.7,11.2,48.8,14.73,48.8,16.89Z"/><path class="cls-1" d="M73.93,27H70.64V15.81c-.19.24-.38.45-.58.67A10.23,10.23,0,0,0,68,13.65a22.62,22.62,0,0,0,5.33-8.81l3.24,1.27a.34.34,0,0,1,.26.31c0,.19-.26.36-.6.41a28.49,28.49,0,0,1-2.18,4.35c.21.09.38.19.38.45s-.31.38-.5.46ZM81.68,11.2V5l3.22.24c.26,0,.53,0,.53.36s-.29.36-.53.43V10.5l3.48-.77,1.56.89v6.05c0,2.71-.55,3.46-.82,3.79a4.7,4.7,0,0,1-3.31,1.16,6.72,6.72,0,0,0-.91-2.88v2.54H81.68V14.56l-1.37.29v7.37c0,1,.87,1.27,2,1.27h4.44c1.25,0,1.46-.94,1.82-2.4a5.84,5.84,0,0,0,2.93,1.39c-.74,3.77-2.59,4.15-4.8,4.15H81.23c-4,0-4.23-2-4.23-3.77V15.57L74.82,16l-.65-3.21,2.83-.6V6.57l3.27.19c.12,0,.48,0,.48.36s-.15.33-.44.48v3.89Zm3.22,2.69v4.44c.24,0,.69.05,1,.05s.67,0,.67-.68V13.53Z"/><rect class="cls-1" width="10" height="30"/></svg>