<svg id="レイヤー_1" data-name="レイヤー 1" xmlns="http://www.w3.org/2000/svg" viewBox="0 0 331.43 30"><defs><style>.cls-1{fill:#ff5064;}</style></defs><title>アートボード 10</title><path class="cls-1" d="M27.63,17.37l.22.07c0-.67,0-1.22,0-1.92H21.22V12.28h8.93V10.43H22.93V7.29h7.22V4.89l4,.16a.27.27,0,0,1,.27.24c0,.24-.22.41-.55.56V7.29h7.22v3.14H33.83v1.85h9v3.24H35.89v9.12c0,2.23-1.66,2.23-4.78,2.23a14.33,14.33,0,0,0-1-3.5,8,8,0,0,0,1.46.14c.87,0,1-.19,1-1.39v-6.6h-1.1a14.6,14.6,0,0,1-.77,5.9,10,10,0,0,1-6.1,5.64A10.91,10.91,0,0,0,22.4,24a7.66,7.66,0,0,0,4.27-2.47c.53-.63.91-1.47,1.13-3.56a4.24,4.24,0,0,1-.58.1,24.72,24.72,0,0,1-3.07,5,19.24,19.24,0,0,0-3.33-1.85A19.55,19.55,0,0,0,24.15,16Zm11.74-1.25A24.52,24.52,0,0,1,42.54,22,24.51,24.51,0,0,0,39,24a24.84,24.84,0,0,0-3-6.58Z"/><path class="cls-1" d="M56.6,5.68c.19.05.46.14.46.38s-.12.31-.53.34C56,8,56,8.2,55.83,8.56a36.24,36.24,0,0,0,7.83-1.9c.12.79.43,2.62.67,3.58a41.65,41.65,0,0,1-9.82,2c-.57,1.58-.77,2.06-1.25,3.24a14.24,14.24,0,0,1,6.25-1.63c6.4,0,6.74,4.51,6.74,5.71a5.93,5.93,0,0,1-2.57,4.85c-1.27.86-3.67,2.3-10.32,2.3a21.41,21.41,0,0,1-2.23-.12,17.12,17.12,0,0,0-.89-3.57c.7.07,2.11.21,3.58.21.55,0,4.65,0,7.13-1.46a2.44,2.44,0,0,0,1.29-2.26c0-1.39-.72-2.57-2.93-2.57A12.3,12.3,0,0,0,51,21l-3.46-1.73a33.08,33.08,0,0,0,3.19-6.74c-2.08,0-3.74-.07-4.65-.15L46,8.44A22.25,22.25,0,0,0,51.85,9a31.76,31.76,0,0,0,.91-4.25Z"/><path class="cls-1" d="M79.76,8.85c.29.33,1.49,1.82,1.73,2.11a10.27,10.27,0,0,1,2.64-.41,4.57,4.57,0,0,1,4.78,4.68c0,4.49-4.88,4.9-7.33,5.09a16,16,0,0,0-1.1-3.22c.41,0,.7,0,1.1,0,.82,0,3.89,0,3.89-2.11,0-.41-.12-1.35-1.53-1.35-.22,0-.41,0-.53,0,.43.69.67,1.15.89,1.51-.89.36-2.28.93-3.15,1.32a14.35,14.35,0,0,0-.88-1.85c-.89.41-1.42.69-1.76.89a46.93,46.93,0,0,1,3.36,9.26,31.28,31.28,0,0,0-3.41,1.66,41.31,41.31,0,0,0-2.8-9.22c-.7.51-.89.67-2.72,2.23l-2.16-3.38a29.83,29.83,0,0,0,3.41-1.71A17.92,17.92,0,0,0,72,11.27L75.3,9.93a1.16,1.16,0,0,1,.5-.15.26.26,0,0,1,.29.27.69.69,0,0,1-.22.38l1.3,2.38c.86-.44,1.08-.53,1.37-.68-.39-.52-.51-.69-1.52-2Z"/><path class="cls-1" d="M105.75,6.4c.22.09.39.21.39.43s-.36.29-.58.24c-.89,1.56-2,3.74-3.29,6.26a9.25,9.25,0,0,1-.53.92,9.61,9.61,0,0,1,2.24-.31c1.49,0,3.5.57,3.5,3.07a10.77,10.77,0,0,1-.21,2,10.87,10.87,0,0,0-.29,2.36c0,.62.17,1.2.91,1.2s3.46-1.52,5.16-3.94a26.4,26.4,0,0,0,2.52,3.05,18,18,0,0,1-4.08,3.48,9.48,9.48,0,0,1-4.58,1.41c-2.24,0-3.85-1.27-3.85-3.64,0-.72.41-3.89.41-4.54,0-.87-.48-1.15-1-1.15-2.59,0-5.47,7.41-5.86,8.85l-3.91-1.63c1.54-2.57,5-9.77,5.76-11.35,1.51-3.27,2.47-5.64,3.6-8.55Z"/><path class="cls-1" d="M123,13.79v7.85c0,.6.65,1.15,1.3,1.46,1,.46,1.25.6,6.36.6a67.8,67.8,0,0,0,8.81-.57,7.24,7.24,0,0,0-1.13,3.48H127.21a13.1,13.1,0,0,1-3.51-.48,5.35,5.35,0,0,1-2.42-1.51,24,24,0,0,1-2.42,1.87c0,.5,0,.84-.34.84-.07,0-.24,0-.38-.34l-1.68-3.12a16.33,16.33,0,0,0,3.14-1.61V17H117V13.79Zm-3.57-8.71a21.44,21.44,0,0,1,3.43,3.36A33.2,33.2,0,0,0,120.22,11,22.54,22.54,0,0,0,117,7.48Zm9.72-.29,3.36.12c.36,0,.48.1.48.26s-.24.36-.48.51v.6h6V8.73h-6v1h4.94V18h-4.94v1h6.17v2.59h-6.17v1.59h-3.36V21.54H123.7V19h5.43V18H124.3V9.69h4.83v-1h-5.88V6.28h5.88Zm0,6.91H127.5v1.08h1.63Zm0,3H127.5v1.08h1.63Zm3.36-2h1.7V11.7h-1.7Zm0,3h1.7V14.73h-1.7Z"/><path class="cls-1" d="M151.38,11.22a7.91,7.91,0,0,1,4.92-2.45c.69,0,3,.51,3,3.75a34.38,34.38,0,0,1-.6,4.92,20.67,20.67,0,0,0-.2,2.74c0,.31,0,1.12.63,1.12.29,0,1.29-.16,3-2.06A16.16,16.16,0,0,0,163.5,23c-2.16,2.09-4,2.54-5.09,2.54-1.34,0-3.62-.86-3.62-4.34,0-1.2.64-6.82.64-7.51a.7.7,0,0,0-.74-.79c-1.46,0-3.53,2.44-5.07,4.24a78.33,78.33,0,0,0,.46,9.46l-4.2.19a33.31,33.31,0,0,0,.22-4.13v-1c-.34.48-1.71,2.64-2,3l-2.93-2.95a51.79,51.79,0,0,0,5-6.14c0-.24,0-.6,0-.92a18.81,18.81,0,0,1-3.81.87l-.8-4.06a16.35,16.35,0,0,0,4.71-.72c.05-1.63.07-4.82,0-5.66l3.51.29c.26,0,.67.07.67.4s-.31.32-.48.36c-.19,1.9-.24,2.86-.27,3.56Z"/><path class="cls-1" d="M186.51,9.35c-5.92-.1-11.06,5.23-11.06,9.12,0,2.79,3.53,4.15,6.79,4.23a31.82,31.82,0,0,0-1.8,4.36c-1.94-.52-8.83-2.44-8.83-8.18A11,11,0,0,1,176,10.62a67.37,67.37,0,0,0-9.93,1.51l-.55-4.51a78.07,78.07,0,0,0,10.68-.55,57.12,57.12,0,0,0,9.62-1.75Zm-4,3.41a14.53,14.53,0,0,1,2.23,2.57c-.67.48-1,.74-1.85,1.44a20.22,20.22,0,0,0-2.13-2.72Zm2.52-1.71a15.52,15.52,0,0,1,2.14,2.52c-.6.46-1,.82-1.76,1.49a17.48,17.48,0,0,0-2.13-2.71Z"/><path class="cls-1" d="M201.73,26.94h-3.46v-6.4a23.83,23.83,0,0,1-7,6.12,8.22,8.22,0,0,0-3.07-2.38,20.55,20.55,0,0,0,7.7-6.14H189V15h4.49a19.19,19.19,0,0,0-1.92-3.56l1.73-1h-3.17V7.38h8.18V4.93l3.6.22c.29,0,.53,0,.53.36s-.48.41-.67.46V7.38h8.14V10.5h-3.12l1.46.63c.17.07.24.16.24.28,0,.32-.29.37-.48.41a22,22,0,0,1-1.51,3.2H211v3.12h-7.12a18.65,18.65,0,0,0,7.46,5.8,11.12,11.12,0,0,0-2.54,2.6,18.83,18.83,0,0,1-7.06-6.15ZM198.27,15V10.5h-3.09a13.53,13.53,0,0,1,2,3.7,11.92,11.92,0,0,0-1.83.82Zm3.46-4.52V15h2.78a15.3,15.3,0,0,0-1.65-.87,18.78,18.78,0,0,0,1.82-3.65Z"/><path class="cls-1" d="M222.08,10.38c.17,0,.36.1.36.32s-.29.31-.55.33a16.07,16.07,0,0,0-1.59,4.15,13.36,13.36,0,0,1,7-2.23,5.82,5.82,0,0,1,6.15,5.91c0,4.58-4.32,7.72-12.27,7.72-.69,0-1.29,0-1.75,0a13.56,13.56,0,0,0-1.13-4,13.22,13.22,0,0,0,3.55.36c5.45,0,7.61-2,7.61-4.05,0-.7-.33-2.45-2.81-2.45-3.43,0-5.92,2.21-7.65,3.94l-3.43-1.25a56,56,0,0,1,2.52-9.94Zm-1.32-5.61a24,24,0,0,1,8.07,2.66,29.35,29.35,0,0,0-2.17,3.5A21.48,21.48,0,0,0,219.51,8Z"/><path class="cls-1" d="M247.38,11.22a7.91,7.91,0,0,1,4.92-2.45c.69,0,3,.51,3,3.75a34.38,34.38,0,0,1-.6,4.92,20.67,20.67,0,0,0-.2,2.74c0,.31,0,1.12.63,1.12.29,0,1.29-.16,3-2.06A16.16,16.16,0,0,0,259.5,23c-2.16,2.09-4,2.54-5.09,2.54-1.34,0-3.62-.86-3.62-4.34,0-1.2.64-6.82.64-7.51a.7.7,0,0,0-.74-.79c-1.46,0-3.53,2.44-5.07,4.24a78.33,78.33,0,0,0,.46,9.46l-4.2.19a33.31,33.31,0,0,0,.22-4.13v-1c-.34.48-1.71,2.64-2,3l-2.93-2.95a51.79,51.79,0,0,0,5-6.14c0-.24,0-.6,0-.92a18.81,18.81,0,0,1-3.81.87l-.8-4.06a16.35,16.35,0,0,0,4.71-.72c.05-1.63.07-4.82,0-5.66l3.51.29c.26,0,.67.07.67.4s-.31.32-.48.36c-.19,1.9-.24,2.86-.27,3.56Z"/><path class="cls-1" d="M278.1,7.79a59.82,59.82,0,0,0-5.88,5.35,13.29,13.29,0,0,1,2.88-.36c3.26,0,6.62,2.07,6.62,6.32,0,5.28-5,7.58-9.17,7.58-3.09,0-6.09-1.22-6.09-4.13,0-2.37,2.2-3.84,4.7-3.84,2.26,0,4.61,1.27,5.16,3.53a3.17,3.17,0,0,0,1.59-2.83c0-.58-.2-3.51-3.92-3.51-4.05,0-6.36,2.38-9.69,5.86L261.42,19a63.49,63.49,0,0,0,9.72-9.34,49.59,49.59,0,0,1-6.39.84l-.57-3.76c.93,0,7.87.09,12-1.52Zm-7.23,13.92c-.81,0-1,.46-1,.87,0,.91,1.35,1.27,2.16,1.27a4.09,4.09,0,0,0,1.21-.19A2.37,2.37,0,0,0,270.87,21.71Z"/><path class="cls-1" d="M307,8.2v3.43H296.62c0,.89-.09,1.51-.14,2h7.59c0,8.12-.46,10.32-2.16,12-1.23,1.22-3.84,1.34-4.73,1.32a6.11,6.11,0,0,0-1.78-3.77c.65.1,2.28.36,2.52.36a1.77,1.77,0,0,0,1.92-1.39,16.42,16.42,0,0,0,.67-5.23h-4.68A16.17,16.17,0,0,1,287.19,27a6.41,6.41,0,0,0-2.95-2.6c4.27-1.34,8.74-4.82,8.74-12.79h-8V8.2h9V4.89l3.84.21c.14,0,.43.07.43.34s-.26.36-.43.43V8.2Z"/><path class="cls-1" d="M308.1,17.39a25.82,25.82,0,0,0,5.35-5.59c1.94-2.64,2.59-3.51,4.05-3.51s2.5,1,4.06,3A47.35,47.35,0,0,0,331.43,21a23.1,23.1,0,0,0-2.69,3.65,75,75,0,0,1-10.06-10.83c-.19-.24-.84-1-1.3-1s-.84.65-1.17,1.13a44.63,44.63,0,0,1-4.9,6.53Z"/><rect class="cls-1" width="10" height="30"/></svg>