<svg id="レイヤー_1" data-name="レイヤー 1" xmlns="http://www.w3.org/2000/svg" viewBox="0 0 269.31 23.19"><defs><style>.cls-1{fill:#fff;}</style></defs><title>アートボード 13</title><path class="cls-1" d="M21.67,9.72v4H0v-4Z"/><path class="cls-1" d="M35.93,19.47a8.7,8.7,0,0,0,3.67-1.73,14.53,14.53,0,0,1-2.06-2.91l1.56-1.1h-2V10.54h9.31l1.13,1.25a18.72,18.72,0,0,1-3.31,6,11.27,11.27,0,0,0,4.1,1.89,16.29,16.29,0,0,0-1.72,2.88A21.86,21.86,0,0,1,42.05,20a12.71,12.71,0,0,1-4.3,2.47,8.49,8.49,0,0,0-1.82-2.81v.77c0,2-1.37,2.16-4.18,2.19a11,11,0,0,0-1.08-3.24,6.66,6.66,0,0,0,1.66.24c.81,0,.81-.32.81-1V12.77a6.27,6.27,0,0,1-.64.07v5.74h-2V13.06a3.91,3.91,0,0,1-.48,0,29.58,29.58,0,0,1-1.65,9.26A5,5,0,0,0,25.49,21a23.28,23.28,0,0,0,1.73-7.56,1.28,1.28,0,0,1-.27.05c-.17.31-.31.5-.5.5a.27.27,0,0,1-.24-.24l-.55-3.22c.57,0,.93,0,1.48,0V2.76H29.4c.17-.41.55-1.39.86-2.4L33.82.7a.26.26,0,0,1,.24.21c0,.22-.44.48-.6.53-.17.36-.41,1-.58,1.32h3V8.3a5.71,5.71,0,0,0,1.82-4.51V1.15h7.49V6.38c0,.27,0,.46.27.46.43,0,.57-1.37.64-2.11A6.35,6.35,0,0,0,48.91,6c-.45,3.09-.81,3.69-2.47,3.69H44a1.79,1.79,0,0,1-1.92-2V4.13H41a9.58,9.58,0,0,1-2.64,6.19,6.32,6.32,0,0,0-2.4-1.44v1c.31,0,.72-.08.86-.1,0,.5-.09,2-.12,2.64a6.61,6.61,0,0,0-.74.05ZM30,6.41,32.33,6a31.27,31.27,0,0,1,.81,3.24V5.67H30Zm0,3.89c.8-.05,2.31-.15,3.12-.22V9.36a15.58,15.58,0,0,0-2.42.48A15.81,15.81,0,0,0,30,6.91Zm10.59,3.43a8.76,8.76,0,0,0,1.2,1.87A8.4,8.4,0,0,0,43,13.73Z"/><path class="cls-1" d="M62,3.75a.37.37,0,0,1,.19.31c0,.19-.17.24-.29.28a3.32,3.32,0,0,1-.43.12A24.42,24.42,0,0,1,54.89,13a8,8,0,0,0-3-2.45,17.91,17.91,0,0,0,6.64-8.48Zm5.33,7.77a56,56,0,0,1,6.26,9.17,9.06,9.06,0,0,0-3.36,2,23.35,23.35,0,0,0-1-2.11c-5.33.76-10.9,1.2-13.37,1.36,0,.17-.07.65-.43.65S55,22.39,55,22l-.82-3.5c1.18,0,1.73-.05,2.6-.07A79.73,79.73,0,0,0,61.18,7.39l3.69,1.25c.12,0,.34.12.34.36s-.48.36-.72.38c-.48,1.2-2.07,5.24-4,8.86.6,0,4.37-.33,6.89-.65-1.37-2-2.14-3-3-4.08ZM69.12,1.25c.67,4.29,2.71,6.46,6.27,8.93a6.38,6.38,0,0,0-2.48,2.57,17,17,0,0,1-6.79-8.41H62.57V1.25Z"/><path class="cls-1" d="M94.11,16.85V22h-3V16.85H89.28a9,9,0,0,1-3.67,5.66,7,7,0,0,0-2.69-1.77v1.73H79.49V1.1H89.55V9.46H82.92V20.71c1.68-.93,2.83-1.84,3.31-3.86H83.76V14.19h2.78c0-.44,0-1,0-1.42H84.36V10.25H96v2.52H94.11v1.42h2.4v2.66ZM86.33,3.48H82.92v.89h3.41Zm0,2.71H82.92V7.1h3.41Zm4.73,6.58H89.57c0,.29,0,1.2,0,1.42h1.54Zm5.13,9.79a8.26,8.26,0,0,0-1.27-3.5,7.5,7.5,0,0,0,1.39.19c.46,0,1,0,1-.84V9.46H90.6V1.1h10.11V19.78C100.71,22,99.34,22.59,96.19,22.56ZM97.27,3.48H93.82v.89h3.45Zm0,2.71H93.82V7.1h3.45Z"/><path class="cls-1" d="M129.15,1.37c.21,0,.4.07.4.33s-.24.41-.43.46c-.19,1.75-.24,2.64-.26,3.19a26.8,26.8,0,0,0,7.53-1.2,28.61,28.61,0,0,0-.24,4.13,38.38,38.38,0,0,1-7.39.91,32.65,32.65,0,0,0,.36,4.61c2.33.31,7.11,2.83,8.69,4a22.78,22.78,0,0,0-2.54,3.33,25.27,25.27,0,0,0-5.81-3.45,3.85,3.85,0,0,1-1,2.92c-1.3,1.42-3.75,1.49-4.49,1.49-3,0-7-1.22-7-4.58,0-3.55,4.8-4.39,7.54-4.39a4.9,4.9,0,0,1,.64,0C125,9.67,125,9.46,125,4.49a20.72,20.72,0,0,0-.36-3.87Zm-5.36,15c-1.27,0-2.69.39-2.69,1.28,0,1.1,1.9,1.12,2.09,1.12,2.28,0,2.28-.88,2.28-2.18A5.06,5.06,0,0,0,123.79,16.39Z"/><path class="cls-1" d="M159.7,2.64c.14.12.24.22.24.36s-.17.26-.29.26a1.39,1.39,0,0,1-.41-.09c-.48.46-4.39,3.5-5.21,4.2-1.1.93-2.45,2.09-3.33,2.88s-.84.79-.84,1,.09.31,1,.84c.07,0,2.28,1.52,4.44,3.17a25.34,25.34,0,0,1,5,4.71,15,15,0,0,0-2.76,3.24c-1.06-1.56-5-5.74-12.1-10.32a1.69,1.69,0,0,1-.82-1.42c0-.62.1-.91,2.52-2.83A63.84,63.84,0,0,0,156.29,0Z"/><path class="cls-1" d="M171.6,4.25a14,14,0,0,0,3.31.31c.15,0,.75,0,1.42,0,.33-1.51.77-2.83,1.1-3.93l3.75,1.17c.19.05.43.12.43.34s-.29.31-.58.33c-.29.65-.45,1-.69,1.66a25.55,25.55,0,0,0,5.83-1.61l.53,3.34a40.68,40.68,0,0,1-7.37,1.56c0,.19-.19,1-.22,1.15a11.7,11.7,0,0,1,2.47-.24c4.25,0,8.57,2.14,8.57,6.67,0,4.76-4.32,6.8-8.3,7.71a10.14,10.14,0,0,0-2.07-2.88c2.72-.55,6.32-1.87,6.32-4.83a2.93,2.93,0,0,0-2-2.9,26.32,26.32,0,0,1-4.35,6.05c.17.48.24.69.39,1-.34.22-.46.29-1.49.89-.1.05-1.37.87-1.63,1-.17-.38-.2-.45-.29-.69a8,8,0,0,1-4.18,1.29c-3.19,0-3.19-3-3.19-3.64,0-1.37.41-5.64,6.22-8.36.07-1.1.14-1.53.19-2l-1.59,0a13.61,13.61,0,0,1-2.68-.21Zm3.89,9.34a5.69,5.69,0,0,0-2.38,4c0,.58.22.72.53.72a4.44,4.44,0,0,0,2.21-1A34.85,34.85,0,0,1,175.49,13.59Zm3.43.45a23.3,23.3,0,0,0,1.49-2.45,9.1,9.1,0,0,0-1.61.32A16.76,16.76,0,0,0,178.92,14Z"/><path class="cls-1" d="M212.16,3.46a59.82,59.82,0,0,0-5.88,5.35,12.85,12.85,0,0,1,2.88-.36c3.27,0,6.63,2.06,6.63,6.31,0,5.28-5,7.59-9.17,7.59-3.1,0-6.1-1.23-6.1-4.13,0-2.38,2.21-3.84,4.71-3.84,2.25,0,4.6,1.27,5.16,3.53A3.19,3.19,0,0,0,212,15.07c0-.57-.19-3.5-3.91-3.5-4.06,0-6.36,2.38-9.7,5.86l-2.88-2.81a63.49,63.49,0,0,0,9.72-9.34,49.21,49.21,0,0,1-6.38.84l-.58-3.77c.94,0,7.87.1,12-1.51Zm-7.22,13.92c-.82,0-1,.45-1,.86,0,.91,1.34,1.27,2.16,1.27a4.07,4.07,0,0,0,1.2-.19A2.35,2.35,0,0,0,204.94,17.38Z"/><path class="cls-1" d="M235.15,1.25a17.7,17.7,0,0,0,5.12-.91L242,2.59a.64.64,0,0,1,.12.27c0,.16-.14.21-.29.21a3.65,3.65,0,0,1-.53-.09,35.45,35.45,0,0,1-5.28.6c0,.31,0,.38,0,.72h7.25V6.65h-3.07V9h-3.29V6.65h-1.3a11.29,11.29,0,0,1-1.65,2.78h6.55v9.65h-1.15A15.78,15.78,0,0,0,243,20.14a15.73,15.73,0,0,0-1.9,2.76,26.22,26.22,0,0,1-7-3l.91-.84h-5.52l1,.84c.17.12.22.19.22.29,0,.29-.36.24-.82.19a32.31,32.31,0,0,1-6.24,2.47,8,8,0,0,0-1.89-2.61,25.42,25.42,0,0,0,3.84-1.18H224.5V10.13a6.19,6.19,0,0,1-.63.67,6.92,6.92,0,0,0-2.93-1.46c2.09-1.71,2.21-4.4,2.21-8.28l2.59.38a15.11,15.11,0,0,0,4.52-1l1.37,2.28a.58.58,0,0,1,.09.26.24.24,0,0,1-.24.22A2.08,2.08,0,0,1,230.9,3a33.78,33.78,0,0,1-4.6.68c0,.36,0,.43,0,.6h6.1V6.43c.24-.45.69-1.32.69-4.32v-1Zm-2,8.18a6.18,6.18,0,0,0-2.28-1.27,5.28,5.28,0,0,0,1.39-1.51h-1.83V9h-3.07V6.65H226A9.46,9.46,0,0,1,225,9.43Zm-5.07,2.72H237v-.77h-8.91ZM237,13.68h-8.91v.79H237ZM237,16h-8.91v.79H237Z"/><path class="cls-1" d="M258.1,1.08v9h-6.27V22.56h-3.45V1.08ZM255,4.51V3.41h-3.15v1.1Zm-3.15,2.12v1.1H255V6.63Zm5.31,14.13h-3.29V11.5h9.74v7.22a10.61,10.61,0,0,0,1.75.29c.27,0,.49-.12.49-.65V10h-6.27V1.08h9.75V20c0,2.54-2.52,2.59-3.44,2.59a4.91,4.91,0,0,1-1.1-.1,8.29,8.29,0,0,0-1.37-3.55h-6.26Zm3.19-4.44V14.07h-3.19v2.25Zm5.5-11.81V3.41h-3.15v1.1Zm-3.15,2.12v1.1h3.15V6.63Z"/></svg>