<svg xmlns="http://www.w3.org/2000/svg" width="523.16" height="114.34" viewBox="0 0 523.16 114.34"><path d="M51.32.5c6.78 0 12.34 1 16.71 3 4.36 2 8.24 4.34 11.63 7.01 2.05 1.54 3.62 1.72 4.7.54 1.08-1.18 1.82-3.98 2.23-8.39h3.54c-.21 3.9-.36 8.6-.46 14.09-.1 5.49-.15 12.81-.15 21.95h-3.54c-.72-4.52-1.41-8.21-2.08-11.09-.67-2.87-1.54-5.34-2.62-7.39-1.08-2.05-2.54-4.05-4.39-6.01-2.98-3.7-6.62-6.36-10.93-8.01-4.31-1.64-8.88-2.46-13.71-2.46-5.24 0-9.86 1.31-13.86 3.93-4 2.62-7.37 6.34-10.09 11.17-2.72 4.83-4.8 10.52-6.24 17.09-1.44 6.57-2.16 13.76-2.16 21.56s.77 15.27 2.31 21.79c1.54 6.52 3.77 12.12 6.7 16.79 2.93 4.67 6.47 8.27 10.63 10.78 4.16 2.52 8.8 3.77 13.94 3.77 4.21 0 8.57-.85 13.09-2.54 4.52-1.69 8.11-4.29 10.78-7.78 2.87-3.08 4.85-6.54 5.93-10.39 1.08-3.85 1.98-9.11 2.7-15.79h3.54c0 9.45.05 17.07.15 22.87.1 5.8.25 10.7.46 14.71h-3.54c-.41-4.41-1.1-7.19-2.08-8.32-.98-1.13-2.59-.97-4.85.46-3.8 2.67-7.83 5-12.09 7.01-4.26 2-9.73 3-16.4 3-10.16 0-19.05-2.21-26.64-6.62-7.6-4.41-13.5-10.78-17.71-19.1C2.6 79.81.5 69.8.5 58.1s2.18-21.56 6.54-30.18c4.36-8.62 10.34-15.35 17.94-20.17C32.58 2.91 41.36.5 51.32.5ZM138.62 30.07c6.88 0 12.99 1.44 18.33 4.31 5.34 2.88 9.6 7.39 12.78 13.55 3.18 6.16 4.77 14.22 4.77 24.18s-1.59 17.99-4.77 24.1c-3.18 6.11-7.44 10.58-12.78 13.4-5.34 2.82-11.45 4.24-18.33 4.24s-12.89-1.41-18.33-4.24c-5.44-2.82-9.73-7.29-12.86-13.4-3.13-6.11-4.7-14.14-4.7-24.1s1.56-18.02 4.7-24.18c3.13-6.16 7.42-10.68 12.86-13.55 5.44-2.87 11.55-4.31 18.33-4.31Zm0 3.08c-5.34 0-9.7 3.06-13.09 9.16-3.39 6.11-5.08 16.04-5.08 29.8s1.69 23.64 5.08 29.64c3.39 6.01 7.75 9.01 13.09 9.01s9.57-3 13.01-9.01c3.44-6.01 5.16-15.88 5.16-29.64s-1.72-23.69-5.16-29.8c-3.44-6.11-7.78-9.16-13.01-9.16ZM233.3 30.07c4.11 0 7.47.54 10.09 1.62s4.8 2.54 6.54 4.39c1.85 1.95 3.16 4.46 3.93 7.54.77 3.08 1.16 7.24 1.16 12.47v41.27c0 4.31.85 7.24 2.54 8.78s4.54 2.31 8.55 2.31v3.23c-1.75-.1-4.47-.23-8.16-.38-3.7-.15-7.34-.23-10.93-.23s-6.96.08-10.4.23c-3.44.15-6.03.28-7.78.38v-3.23c3.49 0 5.95-.77 7.39-2.31 1.44-1.54 2.16-4.47 2.16-8.78v-45.58c0-2.98-.26-5.67-.77-8.08-.51-2.41-1.59-4.36-3.23-5.85-1.64-1.49-4.11-2.23-7.39-2.23-3.8 0-7.16 1.08-10.09 3.23-2.93 2.16-5.24 5.11-6.93 8.86-1.69 3.75-2.54 7.93-2.54 12.55v37.11c0 4.31.74 7.24 2.23 8.78 1.49 1.54 3.93 2.31 7.31 2.31v3.23c-1.64-.1-4.13-.23-7.47-.38-3.34-.15-6.8-.23-10.4-.23s-7.14.08-10.93.23c-3.8.15-6.62.28-8.47.38v-3.23c4 0 6.85-.77 8.55-2.31s2.54-4.47 2.54-8.78v-48.36c0-4.62-.77-8.03-2.31-10.24-1.54-2.21-4.47-3.31-8.78-3.31v-3.23c3.28.31 6.47.46 9.55.46 3.49 0 6.75-.18 9.78-.54 3.03-.36 5.83-.9 8.39-1.62v16.79c2.67-6.36 6.34-10.83 11.01-13.4 4.67-2.57 9.62-3.85 14.86-3.85ZM294.24 6.81v25.56h21.25v3.08h-21.25v60.52c0 4.21.77 7.19 2.31 8.93 1.54 1.75 3.75 2.62 6.62 2.62 2.67 0 5.06-1.08 7.16-3.23 2.1-2.16 3.93-5.8 5.47-10.93l2.93 1.08c-1.23 5.44-3.41 10.04-6.54 13.78-3.13 3.75-7.73 5.62-13.78 5.62-3.49 0-6.42-.44-8.78-1.31-2.36-.87-4.42-2.13-6.16-3.77-2.26-2.36-3.8-5.18-4.62-8.47-.82-3.28-1.23-7.65-1.23-13.09v-51.74h-14.17v-3.08h14.17V9.89c3.18-.1 6.16-.39 8.93-.85 2.77-.46 5.34-1.21 7.7-2.23ZM345.86 112.77c-4.31 0-8.01-.82-11.09-2.46-3.08-1.64-5.39-3.9-6.93-6.78-1.54-2.87-2.31-6.16-2.31-9.86 0-4.52 1.03-8.19 3.08-11.01 2.05-2.82 4.7-5.11 7.93-6.85 3.23-1.75 6.67-3.21 10.32-4.39 3.64-1.18 7.08-2.31 10.32-3.39 3.23-1.08 5.9-2.33 8.01-3.77 2.1-1.44 3.16-3.34 3.16-5.7v-10.47c0-3.7-.59-6.65-1.77-8.86-1.18-2.21-2.77-3.77-4.77-4.7-2-.92-4.39-1.39-7.16-1.39-2.36 0-4.88.33-7.55 1-2.67.67-4.77 1.98-6.31 3.93 2.26.62 4.13 1.82 5.62 3.62 1.49 1.8 2.23 4.03 2.23 6.7 0 2.88-.95 5.13-2.85 6.78-1.9 1.64-4.29 2.46-7.16 2.46-3.18 0-5.54-1-7.08-3s-2.31-4.34-2.31-7.01.69-5.03 2.08-6.78c1.39-1.74 3.21-3.39 5.47-4.93 2.46-1.64 5.62-3.03 9.47-4.16 3.85-1.13 8.14-1.69 12.86-1.69 4.41 0 8.24.49 11.47 1.46 3.23.98 5.93 2.54 8.08 4.7 2.57 2.36 4.26 5.31 5.08 8.85.82 3.54 1.23 7.83 1.23 12.86v42.5c0 2.57.33 4.39 1 5.47.67 1.08 1.77 1.62 3.31 1.62 1.03 0 2.03-.25 3-.77.97-.51 2.13-1.28 3.46-2.31l1.54 2.62c-2.16 1.75-4.34 3.13-6.54 4.16-2.21 1.02-5 1.54-8.39 1.54s-5.96-.52-8.01-1.54c-2.06-1.03-3.57-2.51-4.54-4.47-.98-1.95-1.46-4.36-1.46-7.24-2.67 4.31-5.85 7.6-9.55 9.86-3.7 2.26-8.01 3.39-12.94 3.39Zm7.39-7.39c2.87 0 5.57-.82 8.08-2.46 2.51-1.64 4.85-4.11 7.01-7.39v-30.65c-1.13 1.64-2.77 3.06-4.93 4.24-2.16 1.18-4.47 2.39-6.93 3.62s-4.8 2.64-7.01 4.24c-2.21 1.59-4.03 3.62-5.47 6.08-1.44 2.46-2.16 5.6-2.16 9.39 0 4 1.02 7.16 3.08 9.47 2.05 2.31 4.82 3.46 8.32 3.46ZM436.26 30.07c3.49 0 6.83.44 10.01 1.31 3.18.87 5.95 2.08 8.32 3.62 2.46 1.54 4.34 3.39 5.62 5.54 1.28 2.16 1.93 4.52 1.93 7.08 0 3.08-.87 5.49-2.62 7.24s-4 2.62-6.78 2.62-5.08-.77-6.93-2.31c-1.85-1.54-2.77-3.75-2.77-6.62 0-2.67.77-4.85 2.31-6.54 1.54-1.69 3.33-2.79 5.39-3.31-.92-1.54-2.54-2.85-4.85-3.93-2.31-1.08-4.8-1.62-7.47-1.62s-5.42.72-7.93 2.16c-2.52 1.44-4.75 3.65-6.7 6.62-1.95 2.98-3.52 6.83-4.7 11.55-1.18 4.72-1.77 10.42-1.77 17.09 0 8.62 1 15.48 3 20.56s4.64 8.7 7.93 10.86c3.29 2.16 6.83 3.23 10.63 3.23 2.46 0 5.01-.46 7.62-1.39 2.62-.92 5.13-2.46 7.55-4.62 2.41-2.16 4.54-5.08 6.39-8.78l2.93 1.08c-1.13 3.39-2.9 6.83-5.31 10.32-2.41 3.49-5.57 6.37-9.47 8.62-3.9 2.26-8.68 3.39-14.32 3.39-6.47 0-12.32-1.59-17.56-4.77-5.24-3.18-9.39-7.83-12.47-13.94-3.08-6.11-4.62-13.58-4.62-22.41s1.56-16.14 4.7-22.56c3.13-6.41 7.47-11.37 13.01-14.86 5.54-3.49 11.86-5.24 18.94-5.24ZM498.09 6.81v25.56h21.25v3.08h-21.25v60.52c0 4.21.77 7.19 2.31 8.93 1.54 1.75 3.75 2.62 6.62 2.62 2.67 0 5.06-1.08 7.16-3.23 2.1-2.16 3.93-5.8 5.47-10.93l2.93 1.08c-1.23 5.44-3.41 10.04-6.54 13.78-3.13 3.75-7.73 5.62-13.78 5.62-3.49 0-6.42-.44-8.78-1.31-2.36-.87-4.42-2.13-6.16-3.77-2.26-2.36-3.8-5.18-4.62-8.47-.82-3.28-1.23-7.65-1.23-13.09v-51.74h-14.17v-3.08h14.17V9.89c3.18-.1 6.16-.39 8.93-.85 2.77-.46 5.34-1.21 7.7-2.23Z" fill="#fff" stroke="#f2e5af" stroke-miterlimit="10"/></svg>