<svg xmlns="http://www.w3.org/2000/svg" width="299.52" height="80.38" viewBox="0 0 299.52 80.38">
  <defs>
    <style>
      .cls-1 {
        fill: #fff;
      }
    </style>
  </defs>
  <title>logo_tgs</title>
  <g id="レイヤー_2" data-name="レイヤー 2">
    <g id="レイヤー_1-2" data-name="レイヤー 1">
      <g>
        <g>
          <path class="cls-1" d="M46.31,71.71H60.13L62.73,79h8.92L58.36,44.17H48L34.79,79H43.7ZM53.2,51.85l4.77,13H48.43Z"/>
          <path class="cls-1" d="M103.6,79h7.5V44.17H99.58L91.95,69.29,84.31,44.17H72.78V79h7.51V62.22c0-1.1-.22-8.69-.27-9.8L88.24,79h7.42l8.21-26.53c0,1.28-.26,8.69-.26,9.8Z"/>
          <polygon class="cls-1" points="141.72 51.41 141.72 44.17 113.73 44.17 113.73 78.96 142.21 78.96 142.21 71.71 121.68 71.71 121.68 64.78 140.93 64.78 140.93 57.85 121.68 57.85 121.68 51.41 141.72 51.41"/>
          <polygon class="cls-1" points="33.8 56.27 33.8 44.08 1.19 44.08 1.19 79.06 33.8 79.06 33.8 59.35 17.44 59.35 17.44 66.9 26.34 66.9 26.34 71.42 8.65 71.42 8.65 51.72 26.34 51.72 26.34 56.27 33.8 56.27"/>
        </g>
        <g>
          <polygon class="cls-1" points="195.35 65.97 212.31 65.97 212.31 80.28 220.25 80.28 220.25 45.48 212.31 45.48 212.31 58.73 195.35 58.73 195.35 45.48 187.44 45.48 187.44 80.28 195.35 80.28 195.35 65.97"/>
          <polygon class="cls-1" points="287.38 72.37 283.5 45.48 272.99 45.48 269.1 72.37 265.21 45.48 256.96 45.48 263.71 80.28 274.35 80.28 278.24 53.74 282.13 80.28 292.81 80.28 299.52 45.48 291.26 45.48 287.38 72.37"/>
          <path class="cls-1" d="M255.88,45.39h-32.6v35h32.6Zm-7.45,27.34h-17.7V53h17.7Z"/>
          <polygon class="cls-1" points="184.33 59.08 163.08 59.08 163.08 52.35 184.33 52.35 184.33 45.15 155.88 45.15 155.88 66.28 177.13 66.28 177.13 73 155.88 73 155.88 80.21 184.33 80.21 184.33 59.08"/>
        </g>
        <g>
          <polygon class="cls-1" points="11.7 34.88 19.69 34.88 19.69 7.33 31.39 7.33 31.39 0.09 0 0.09 0 7.33 11.7 7.33 11.7 34.88"/>
          <polygon class="cls-1" points="77.62 17.22 91.84 34.88 101.99 34.88 86.72 16.91 101.38 0.09 91.4 0.09 77.62 16.6 77.62 0.09 69.72 0.09 69.72 34.88 77.62 34.88 77.62 17.22"/>
          <polygon class="cls-1" points="114.96 34.88 122.91 34.88 122.91 21.28 136.02 0.09 126.79 0.09 118.94 14.13 111.12 0.09 101.85 0.09 114.96 21.28 114.96 34.88"/>
          <path class="cls-1" d="M66.94,0H34.34V35h32.6ZM59.49,27.34H41.8V7.64H59.49Z"/>
          <path class="cls-1" d="M136.79,0V35H169.4V0Zm25.15,27.34H144.25V7.64h17.69Z"/>
        </g>
      </g>
    </g>
  </g>
</svg>
