<svg id="レイヤー_1" data-name="レイヤー 1" xmlns="http://www.w3.org/2000/svg" viewBox="0 0 309.06 26.38"><defs><style>.cls-1{fill:#ff5064;}</style></defs><title>アートボード 5</title><path class="cls-1" d="M25.76,10.64v4.93H0V10.64Z"/><path class="cls-1" d="M51.86,11.9l1.65,1.76a21.77,21.77,0,0,1-3.81,6.81,15.89,15.89,0,0,0,4.54,1.76,12.92,12.92,0,0,0-2.38,3.95,18.23,18.23,0,0,1-5.24-2.72,17.45,17.45,0,0,1-4.82,2.66,8.09,8.09,0,0,0-2-2.74c-.14,2.41-2.13,2.77-5.38,2.74a8.31,8.31,0,0,0-1.37-4.28,18.46,18.46,0,0,0,2,.2c1,0,1-.23,1-1.18V15.2a6.31,6.31,0,0,1-.76.09v5.77H32.84V15.48l-.61.06c-.17,4.14-.48,7.17-1.79,10.56a7.9,7.9,0,0,0-3.48-2,23.12,23.12,0,0,0,1.8-8.29l-.17,0c-.09.22-.23.5-.53.5s-.34-.28-.37-.42L27.24,12a4.48,4.48,0,0,0,1.38.08V2.63H31.3A16.07,16.07,0,0,0,32.17,0L37,.53c.25,0,.47.09.47.31,0,.45-.59.56-1,.64A11.93,11.93,0,0,0,36,2.63h3.87v6a9.11,9.11,0,0,0,1.62-5.6V.92h8.93V6.86c0,.28,0,.45.31.45.53,0,.64-1.68.67-2.41a9.63,9.63,0,0,0,3,1.74C54,10.53,53.12,11,51.52,11H48.64a2.1,2.1,0,0,1-2.3-2.38V4.76H45.28a10.9,10.9,0,0,1-2.61,6.92A9.14,9.14,0,0,0,39.82,10v1.34c.16,0,.7-.11,1.06-.14a4.25,4.25,0,0,0-.06.73ZM32.28,7.62l2.58-.87a20.2,20.2,0,0,1,1.26,3.36v-4H32.28Zm0,4.36c2.47-.14,2.78-.16,3.84-.28v-1a17.88,17.88,0,0,0-2.74,1,21.19,21.19,0,0,0-1.1-3.55Zm8.49,2.72-1,.08v7.37A13.43,13.43,0,0,0,43.2,20.5a19,19,0,0,1-2.35-3.31L43,15.9H40.77Zm4,1.2a17.66,17.66,0,0,0,1.62,2,9.35,9.35,0,0,0,1.43-2Z"/><path class="cls-1" d="M67.17,4.14a.42.42,0,0,1,.23.4c0,.33-.28.42-1,.53a29.17,29.17,0,0,1-7.44,10,19.24,19.24,0,0,0-4-3.38,23,23,0,0,0,7.53-9.83Zm6.69,8.94A56.3,56.3,0,0,1,80.7,24a18.67,18.67,0,0,0-4.54,2.41c-.31-.73-.62-1.4-1.2-2.55-2.22.25-12.3,1.31-15.49,1.62-.25.48-.33.62-.59.62s-.3-.14-.39-.53l-.89-4.71c.75,0,1.59,0,3-.14a84.64,84.64,0,0,0,5.12-12.6L71,9.86a.42.42,0,0,1,.36.42c0,.36-.28.44-1.06.56C69.66,12.66,66.75,19,66,20.38c2.29-.16,4.45-.36,6.74-.56a34.68,34.68,0,0,0-2.91-4.2ZM75.35.9c.7,5.37,5.29,8.82,7.28,10.3A18.69,18.69,0,0,0,79.32,15a23.24,23.24,0,0,1-7.78-9.8H67.76V.9Z"/><path class="cls-1" d="M89.57,19.52V16.3h2.61c0-.51,0-1,0-1.49H90.05V11.7H103.8v3.11h-2.08V16.3h2.64v3.22h-2.64V25.4h-4V19.52h-2A9.86,9.86,0,0,1,92.26,26a8.79,8.79,0,0,0-3.42-2.33V26h-4.5V.73h12V10.84H88.84V23.52a6.3,6.3,0,0,0,3-4ZM92.15,4.65V3.72H88.73v.93ZM88.73,7V8h3.42V7Zm9,7.84H96.07V16.3h1.68ZM109.42.73V22.51c0,3.25-2.26,3.47-5.71,3.47a10.1,10.1,0,0,0-1.26-4.45,7.08,7.08,0,0,0,1.65.2c.42,0,.93,0,.93-.79V10.84H97.44V.73ZM105,4.65V3.72h-3.39v.93ZM101.64,7V8H105V7Z"/><path class="cls-1" d="M134.06,7.08c-.47-1.37-2.1-1.65-2.91-1.65-3.67,0-3.89,3.45-4,5.49A7.89,7.89,0,0,1,132.38,9c2.44,0,8,1.23,8,7.45,0,3.92-2.75,8-8.91,8-6.77,0-10.08-4.92-10.08-12C121.35,6,124.57.7,131.26.7c2.89,0,6,1.09,7.4,3.05A7.81,7.81,0,0,1,140,7.08Zm.42,9.41A3.3,3.3,0,0,0,131,13.27a3.15,3.15,0,0,0-3.39,3.19,3.46,3.46,0,0,0,6.91,0Z"/><path class="cls-1" d="M144.73,23.83l9.13-22.51h3.92l-9.13,22.51Z"/><path class="cls-1" d="M166.6,23.83V9.6h-4.23V5.52c3.17-.48,4.48-1.4,5.43-4.2h4.59V23.83Z"/><path class="cls-1" d="M195.21,5.8H186l-.73,4.2a5.89,5.89,0,0,1,4-1.21c3.92,0,7.62,2.38,7.62,7.48,0,4.2-2.75,8.17-9.58,8.17a11.46,11.46,0,0,1-6.83-2,7.21,7.21,0,0,1-2.58-4.9h6.08c.53,2,2,2.12,3.3,2.12s3.76-.33,3.76-3.3c0-3.3-3-3.3-3.64-3.3-1.91,0-2.33.36-2.86.84h-5.68l2.24-12.6h14.16Z"/><path class="cls-1" d="M238.64,13.19a2.89,2.89,0,1,1-2.88-2.89A2.88,2.88,0,0,1,238.64,13.19Z"/><path class="cls-1" d="M251.1,23.83V9.6h-4.23V5.52c3.17-.48,4.48-1.4,5.44-4.2h4.59V23.83Z"/><path class="cls-1" d="M275.07,7.08c-.48-1.37-2.1-1.65-2.91-1.65-3.67,0-3.89,3.45-4,5.49A7.89,7.89,0,0,1,273.39,9c2.44,0,7.95,1.23,7.95,7.45,0,3.92-2.74,8-8.9,8-6.78,0-10.08-4.92-10.08-12C262.36,6,265.58.7,272.27.7c2.88,0,6,1.09,7.39,3.05A7.85,7.85,0,0,1,281,7.08Zm.42,9.41A3.3,3.3,0,0,0,272,13.27a3.16,3.16,0,0,0-3.39,3.19,3.47,3.47,0,0,0,6.92,0Z"/><path class="cls-1" d="M212,.59a12.6,12.6,0,1,0,12.6,12.6A12.58,12.58,0,0,0,212,.59ZM220.25,21H203.67V18.51h6.79v-6h-5.93V10.05h5.93V4.9l3,.15a.27.27,0,0,1,.29.21c0,.13-.23.31-.36.4v4.39h6v2.49h-6v6h6.88Z"/><rect class="cls-1" x="292.83" y="8.47" width="7.26" height="3.01"/><rect class="cls-1" x="292.83" y="13.9" width="7.26" height="3.19"/><path class="cls-1" d="M296.46.59a12.6,12.6,0,1,0,12.6,12.6A12.58,12.58,0,0,0,296.46.59Zm6.46,20.07h-2.83v-1h-7.26v1H290V6h12.91Z"/></svg>