<svg xmlns="http://www.w3.org/2000/svg" xmlns:xlink="http://www.w3.org/1999/xlink" version="1.1" id="_イヤー_2" x="0px" y="0px" viewBox="0 0 64 64" style="enable-background:new 0 0 64 64;" xml:space="preserve"><script xmlns=""/><style type="text/css">
	.st0{fill-rule:evenodd;clip-rule:evenodd;fill:#FFFFFF;}
</style><g id="_icon_clip.html"><path id="_方形_12" class="st0" d="M26.9,43.9c-0.6,0.4-1.3,0.4-1.9,0c-0.4-0.6-0.4-1.3,0-1.9l14.1-14.3c1.2-1.2,1.2-3.2,0-4.4   C38,22,36,22,34.8,23.2L17.3,40.9c-2.1,2.3-2.1,5.7,0,8c2.2,2.1,5.6,2.1,7.8,0l20.9-21.3c3.2-3.1,3.2-8.2,0-11.3l0,0   C43,13.2,38.1,13.1,35,16c-0.1,0.1-0.2,0.2-0.3,0.3L17.5,33.8c-0.6,0.4-1.3,0.4-1.9,0c-0.4-0.6-0.4-1.5,0-2.1l17.3-17.5   c4-4.1,10.6-4.2,14.7-0.3c0.1,0.1,0.2,0.2,0.3,0.3c4.2,4.2,4.2,11,0,15.1l0,0L27,50.6c-3.2,3.2-8.4,3.2-11.6,0   c-3.2-3.3-3.2-8.5,0-11.8l17.5-17.7c2.2-2.3,5.9-2.3,8.2-0.1s2.4,5.9,0.1,8.2c0,0-0.1,0.1-0.1,0.1L26.9,43.9L26.9,43.9z"/></g></svg>