<svg xmlns="http://www.w3.org/2000/svg" id="_イヤー_2" viewBox="0 0 64 64"><script xmlns=""/><defs><style>.cls-1{fill:#fff;}.cls-2{fill:#1877f2;}</style></defs><g id="_イヤー_1-2"><g id="_イヤー_1-2"><g><path class="cls-2" d="M63.998,32C63.998,14.326,49.672,0,31.999,0S0,14.326,0,32c0,15.972,11.702,29.21,26.999,31.612v-22.362h-8.124v-9.25h8.124v-7.05c0-8.02,4.778-12.45,12.086-12.45,3.502,0,7.164,.624,7.164,.624v7.876h-4.036c-3.976,0-5.214,2.466-5.214,4.998v6.002h8.876l-1.418,9.25h-7.456v22.362c15.298-2.4,26.999-15.638,26.999-31.612h-.002Z"/><path class="cls-1" d="M44.455,41.25l1.418-9.25h-8.876v-6.002c0-2.53,1.24-4.998,5.214-4.998h4.036v-7.876s-3.662-.624-7.164-.624c-7.31,0-12.086,4.43-12.086,12.45v7.05h-8.124v9.25h8.124v22.362c1.63,.256,3.3,.388,5,.388s3.37-.134,5-.388v-22.362h7.458Z"/></g></g></g></svg>