<svg xmlns="http://www.w3.org/2000/svg" xmlns:xlink="http://www.w3.org/1999/xlink" version="1.1" id="_イヤー_2" x="0px" y="0px" viewBox="0 0 64 64" style="enable-background:new 0 0 64 64;" xml:space="preserve"><script xmlns=""/><style type="text/css">
	.st0{fill-rule:evenodd;clip-rule:evenodd;fill:#FFFFFF;}
</style><g id="_icon_urlcopy.html"><path id="_方形_7" class="st0" d="M41.5,32.4c1.9,1.2,1.9,3.9,0,5.2c-0.5,0.3-1,0.4-1.6,0.4H38v2h1.9c2.8,0,5-2.2,5-5   c0-0.2,0-0.3,0-0.5c-0.4-2.7-2.7-4.6-5.3-4.5H38v2h1.9C40.4,32,41,32.1,41.5,32.4L41.5,32.4z M46,16v-2H14v30h2V16H46z M32,36h6v-2   h-6V36z M30.4,40H32v-2h-1.9c-1.1,0-2-0.6-2.6-1.5c-0.5-0.9-0.5-2.1,0-3C28,32.6,29,32,30.1,32H32v-2h-1.9c-2.8,0-5,2.2-5,5   c0,0.2,0,0.3,0,0.5C25.5,38.1,27.8,40.1,30.4,40z M50,20H20v30h30V20z M22,48V22h26v26H22z"/></g></svg>