<svg xmlns="http://www.w3.org/2000/svg" viewBox="0 0 32 32"><script xmlns=""/><defs><style>
      .cls-1 {
        fill: #000000;
        fill-rule: evenodd;
      }
    </style></defs><g id="_icon_instagram.html"><path id="長方形_1" data-name="長方形 1" class="cls-1" d="M690,1845.88c4.272,0,4.778.02,6.465,0.1a8.807,8.807,0,0,1,2.971.55,4.937,4.937,0,0,1,1.84,1.19,5.023,5.023,0,0,1,1.2,1.84,8.906,8.906,0,0,1,.551,2.97c0.076,1.69.093,2.2,0.093,6.47s-0.017,4.78-.093,6.46a8.983,8.983,0,0,1-.551,2.98,5.261,5.261,0,0,1-3.037,3.03,8.807,8.807,0,0,1-2.971.55c-1.687.08-2.193,0.1-6.465,0.1s-4.779-.02-6.466-0.1a8.807,8.807,0,0,1-2.971-.55,5.068,5.068,0,0,1-1.839-1.19,5.011,5.011,0,0,1-1.2-1.84,8.956,8.956,0,0,1-.551-2.98c-0.077-1.68-.093-2.19-0.093-6.46s0.016-4.78.093-6.47a8.88,8.88,0,0,1,.551-2.97,5.011,5.011,0,0,1,1.2-1.84,4.941,4.941,0,0,1,1.839-1.19,8.807,8.807,0,0,1,2.971-.55c1.688-.08,2.194-0.1,6.466-0.1m0-2.88c-4.346,0-4.89.02-6.6,0.1a11.452,11.452,0,0,0-3.884.74,8.136,8.136,0,0,0-4.679,4.68,11.742,11.742,0,0,0-.744,3.88c-0.078,1.71-.1,2.25-0.1,6.6s0.018,4.89.1,6.6a11.742,11.742,0,0,0,.744,3.88,8.212,8.212,0,0,0,4.679,4.68,11.7,11.7,0,0,0,3.884.74c1.707,0.08,2.251.1,6.6,0.1s4.89-.02,6.6-0.1a11.689,11.689,0,0,0,3.883-.74,8.217,8.217,0,0,0,4.68-4.68,11.744,11.744,0,0,0,.743-3.88c0.078-1.71.1-2.26,0.1-6.6s-0.019-4.89-.1-6.6a11.744,11.744,0,0,0-.743-3.88,8.142,8.142,0,0,0-4.68-4.68,11.44,11.44,0,0,0-3.883-.74c-1.707-.08-2.252-0.1-6.6-0.1h0Zm0,7.78a8.22,8.22,0,1,0,8.216,8.22A8.218,8.218,0,0,0,690,1850.78Zm0,13.55a5.33,5.33,0,1,1,5.333-5.33A5.333,5.333,0,0,1,690,1864.33Zm10.461-13.87a1.92,1.92,0,1,1-1.92-1.92A1.92,1.92,0,0,1,700.461,1850.46Z" transform="translate(-674 -1843)"/></g></svg>