<?xml version="1.0" encoding="UTF-8"?><svg id="b" xmlns="http://www.w3.org/2000/svg" viewBox="0 0 12 20"><defs><style>.c{fill:#e50012;}</style></defs><path class="c" d="m11.9,9.8c0,2.7-.7,4.7-2.2,6l2.3,2-2.1,1.9-3-2.8-.9.1c-1.9,0-3.3-.6-4.4-1.9s-1.6-3-1.6-5.3v-2.6C0,4.9.5,3.2,1.6,1.9S4.1,0,6,0c1.8,0,3.3.6,4.3,1.8,1,1.2,1.6,2.9,1.6,5.2,0,0,0,2.8,0,2.8Zm-3.3-2.6c0-1.5-.2-2.6-.6-3.3s-1.2-1.1-2-1.1-1.6.3-2,1-.6,1.8-.7,3.2v2.7c0,1.5.2,2.6.7,3.3s1.1,1.1,2,1.1,1.5-.4,1.9-1.1c.4-.7.6-1.8.7-3.3v-2.5Z"/></svg>