<?xml version="1.0" encoding="UTF-8"?><svg id="_レイヤー_1" xmlns="http://www.w3.org/2000/svg" viewBox="0 0 550 60"><defs><style>.cls-1{fill:#e50012;}.cls-2{fill:#231815;}.cls-3{fill:#0062b0;}</style></defs><g><g><path class="cls-2" d="m426.07,21.63c0,.31-.12.58-.35.81-.23.23-.52.35-.85.35h-5.12s-.04.01-.05.03c-.01.02,0,.04.02.07,2.52,2.17,5.52,3.92,9,5.25.24.09.4.26.46.53v.17c0,.2-.07.38-.2.53-.71.75-1.39,1.58-2.06,2.49-.18.29-.43.48-.75.58-.32.1-.64.07-.95-.08-3.37-1.64-6.43-3.91-9.2-6.81-.02-.02-.04-.03-.07-.02-.02.01-.03.03-.03.05v6.34c0,.31-.12.58-.35.81-.23.23-.52.35-.85.35h-2.79c-.33,0-.61-.12-.85-.35-.23-.23-.35-.5-.35-.81v-6.11s-.01-.07-.03-.08c-.02-.01-.04,0-.07.02-2.61,2.77-5.61,4.95-9,6.54-.31.15-.63.18-.95.08-.32-.1-.58-.28-.78-.55-.6-.84-1.23-1.63-1.89-2.36-.16-.15-.23-.32-.23-.5,0-.07.01-.13.03-.2.04-.26.2-.44.47-.53,3.39-1.35,6.32-3.13,8.8-5.35.02-.02.03-.04.02-.07-.01-.02-.03-.03-.05-.03h-4.82c-.33,0-.62-.12-.85-.35-.23-.23-.35-.5-.35-.81v-11.06c0-.33.12-.61.35-.83.23-.22.52-.33.85-.33h8.37c.09,0,.13-.06.13-.17v-1.13c0-.09-.04-.13-.13-.13h-11.16c-.33,0-.61-.12-.85-.35-.23-.23-.35-.52-.35-.85v-2.22c0-.33.12-.62.35-.85.23-.23.51-.35.85-.35h11.16c.09,0,.13-.04.13-.13v-1.26c0-.33.12-.61.35-.85.23-.23.51-.35.85-.35h2.79c.33,0,.61.12.85.35.23.23.35.51.35.85v1.26c0,.09.04.13.13.13h11.49c.33,0,.61.12.85.35.23.23.35.52.35.85v2.22c0,.33-.12.62-.35.85-.23.23-.52.35-.85.35h-11.49c-.09,0-.13.05-.13.13v1.13c0,.11.04.17.13.17h8.8c.33,0,.61.11.85.33.23.22.35.5.35.83v11.06Zm-20.03-8.6c-.09,0-.13.06-.13.17v1.06c0,.09.04.13.13.13h4.58c.09,0,.13-.04.13-.13v-1.06c0-.11-.04-.17-.13-.17h-4.58Zm0,4.72c-.09,0-.13.06-.13.17v1.1c0,.09.04.13.13.13h4.58c.09,0,.13-.04.13-.13v-1.1c0-.11-.04-.17-.13-.17h-4.58Zm14.95-4.55c0-.11-.04-.17-.13-.17h-4.78c-.09,0-.13.06-.13.17v1.06c0,.09.04.13.13.13h4.78c.09,0,.13-.04.13-.13v-1.06Zm-.13,5.95c.09,0,.13-.04.13-.13v-1.1c0-.11-.04-.17-.13-.17h-4.78c-.09,0-.13.06-.13.17v1.1c0,.09.04.13.13.13h4.78Z"/><path class="cls-2" d="m436,23.76c.2-.31.46-.53.78-.65.32-.12.64-.13.95-.02l2.79.86c.29.09.48.28.58.56s.06.55-.12.8c-1.55,2.3-3.21,4.25-4.98,5.85-.24.24-.54.37-.88.37s-.65-.11-.91-.33c-.66-.51-1.37-1.02-2.13-1.53-.27-.15-.4-.39-.4-.7,0-.26.1-.49.3-.66,1.59-1.33,2.93-2.85,4.02-4.55Zm25.41-20.06c.33,0,.61.11.85.33.23.22.35.5.35.83v2.36c0,.33-.12.62-.35.85-.23.23-.52.35-.85.35h-27.97c-.33,0-.61-.12-.85-.35-.23-.23-.35-.52-.35-.85v-2.36c0-.33.12-.61.35-.83.23-.22.52-.33.85-.33h11.13c.09,0,.13-.05.13-.17v-1.56c0-.33.12-.61.35-.85.23-.23.52-.35.85-.35h2.92c.33,0,.61.12.85.35.23.23.35.51.35.85v1.56c0,.11.04.17.13.17h11.26Zm-2.26,16.91c0,.31-.12.58-.35.81-.23.23-.5.35-.81.35h-7.84c-.09,0-.13.06-.13.17v6.18c0,1.22-.15,2.15-.47,2.81-.31.65-.88,1.15-1.69,1.48-1.15.46-2.88.7-5.18.7-.33,0-.63-.11-.88-.32-.25-.21-.43-.48-.51-.81-.2-.82-.48-1.66-.83-2.53-.11-.24-.09-.48.07-.7.15-.22.37-.33.63-.33.91.04,1.63.07,2.16.07.33,0,.59-.01.76-.03.29,0,.48-.03.58-.1.1-.07.15-.2.15-.4v-6.01c0-.11-.04-.17-.13-.17h-7.54c-.31,0-.58-.12-.81-.35-.23-.23-.35-.5-.35-.81v-9.07c0-.33.12-.61.35-.85s.5-.35.81-.35h20.86c.31,0,.58.12.81.35s.35.51.35.85v9.07Zm-18.1-6.05c-.11,0-.17.06-.17.17v2.69c0,.09.06.13.17.13h12.69c.11,0,.17-.04.17-.13v-2.69c0-.11-.06-.17-.17-.17h-12.69Zm12.62,11.16c-.13-.18-.2-.37-.2-.56v-.2c.07-.29.23-.5.5-.63l2.43-1.16c.22-.11.45-.17.7-.17.09,0,.19.01.3.03.35.07.64.23.86.5,2.04,2.17,3.55,3.95,4.55,5.35.13.18.2.37.2.56,0,.09-.01.18-.03.27-.09.29-.27.51-.53.66l-2.82,1.4c-.18.09-.37.13-.56.13-.11,0-.23-.02-.37-.07-.31-.09-.55-.28-.73-.56-.97-1.55-2.4-3.4-4.29-5.55Z"/><path class="cls-1" d="m471.51,29.87c-.33,0-.61-.12-.85-.35-.23-.23-.35-.52-.35-.85v-1.1c0-.78.29-1.43.86-1.96,3.23-2.97,5.66-5.5,7.27-7.61,1.62-2.1,2.42-3.97,2.42-5.61,0-1.15-.29-2.04-.88-2.66-.59-.62-1.39-.93-2.41-.93-1.13,0-2.28.54-3.45,1.63-.24.22-.53.33-.85.33s-.59-.11-.81-.33l-1.63-1.59c-.24-.24-.36-.52-.36-.85s.12-.59.36-.81c1.13-1.06,2.28-1.84,3.45-2.34,1.17-.5,2.55-.75,4.12-.75,2.46,0,4.46.73,6,2.18,1.54,1.45,2.31,3.37,2.31,5.76,0,3.56-2.51,7.88-7.54,12.95,0,.02,0,.04.02.07.01.02.03.03.05.03,1.62-.22,2.93-.33,3.95-.33h3.49c.33,0,.61.12.83.35.22.23.33.51.33.85v2.72c0,.33-.11.62-.33.85-.22.23-.5.35-.83.35h-15.18Z"/><path class="cls-1" d="m506.47,26.9c-1.63,2.29-3.81,3.44-6.54,3.44s-4.91-1.15-6.53-3.44c-1.62-2.29-2.42-5.56-2.42-9.82s.8-7.48,2.41-9.68c1.61-2.2,3.78-3.31,6.53-3.31s4.93,1.11,6.56,3.34c1.63,2.22,2.44,5.44,2.44,9.65s-.81,7.52-2.44,9.82Zm-7.84-1.63c.37.25.79.38,1.28.38s.91-.13,1.28-.38c.37-.26.71-.69,1.03-1.3s.56-1.49.73-2.64c.17-1.15.25-2.57.25-4.25s-.08-3.06-.25-4.2c-.17-1.14-.41-2-.73-2.57-.32-.58-.66-.98-1.03-1.21-.37-.23-.79-.35-1.28-.35s-.91.12-1.26.35c-.36.23-.69.64-1,1.21-.31.58-.55,1.43-.71,2.57-.17,1.14-.25,2.54-.25,4.2s.08,3.1.25,4.25c.17,1.15.4,2.03.7,2.64s.63,1.04,1,1.3Z"/><path class="cls-1" d="m512.9,29.87c-.33,0-.61-.12-.85-.35-.23-.23-.35-.52-.35-.85v-1.1c0-.78.29-1.43.86-1.96,3.23-2.97,5.66-5.5,7.27-7.61,1.62-2.1,2.42-3.97,2.42-5.61,0-1.15-.29-2.04-.88-2.66-.59-.62-1.39-.93-2.41-.93-1.13,0-2.28.54-3.45,1.63-.24.22-.53.33-.85.33s-.59-.11-.81-.33l-1.63-1.59c-.24-.24-.36-.52-.36-.85s.12-.59.36-.81c1.13-1.06,2.28-1.84,3.45-2.34,1.17-.5,2.55-.75,4.12-.75,2.46,0,4.46.73,6,2.18,1.54,1.45,2.31,3.37,2.31,5.76,0,3.56-2.51,7.88-7.54,12.95,0,.02,0,.04.02.07.01.02.03.03.05.03,1.62-.22,2.93-.33,3.95-.33h3.49c.33,0,.61.12.83.35.22.23.33.51.33.85v2.72c0,.33-.11.62-.33.85-.22.23-.5.35-.83.35h-15.18Z"/><path class="cls-1" d="m540.47,30.34c-3.28,0-5.9-.9-7.87-2.69-.27-.24-.4-.55-.4-.93,0-.33.1-.62.3-.86l1.39-1.89c.18-.27.42-.41.73-.43.31-.02.59.05.83.23,1.44,1.13,2.9,1.69,4.39,1.69,1.2,0,2.14-.25,2.84-.75.7-.5,1.05-1.21,1.05-2.14,0-1.09-.37-1.91-1.11-2.47-.74-.56-2.13-.89-4.17-.98-.33-.02-.61-.14-.85-.36-.23-.22-.35-.5-.35-.83v-1.89c0-.33.12-.62.35-.85.23-.23.51-.36.85-.38,1.62-.11,2.77-.44,3.45-1s1.03-1.32,1.03-2.29c0-.86-.24-1.53-.73-1.99-.49-.47-1.21-.7-2.16-.7-1.17,0-2.37.45-3.59,1.36-.27.2-.56.28-.88.25-.32-.03-.58-.17-.78-.41l-1.56-1.89c-.22-.24-.32-.52-.28-.85.03-.32.18-.58.45-.78,2.19-1.59,4.51-2.39,6.94-2.39,2.66,0,4.77.6,6.33,1.81,1.56,1.21,2.34,2.93,2.34,5.17,0,2.59-1.34,4.44-4.02,5.55-.04.02-.07.06-.07.11s.02.09.07.12c1.46.44,2.63,1.18,3.5,2.23.87,1.04,1.31,2.34,1.31,3.89s-.43,2.86-1.29,4-1.99,1.99-3.39,2.54c-1.4.55-2.95.83-4.65.83Z"/></g><rect class="cls-1" x="397.67" y="36.82" width="152.33" height="2.89"/></g><g><g><g><g><path class="cls-2" d="m112.05,9.91c0-.63-.52-1.15-1.15-1.15h-7.18c-.63,0-1.15-.52-1.15-1.16V1.99c0-.63.52-1.15,1.15-1.15h25.25c.63,0,1.15.52,1.15,1.15v5.6c0,.63-.52,1.16-1.15,1.16h-7.18c-.63,0-1.15.52-1.15,1.15v28.81c0,.63-.52,1.15-1.15,1.15h-6.29c-.63,0-1.15-.52-1.15-1.15V9.91Z"/><path class="cls-2" d="m137.01,1.99c0-.63.52-1.15,1.15-1.15h22.35c.63,0,1.15.52,1.15,1.15v5.34c0,.63-.52,1.15-1.15,1.15h-13.82c-.64,0-1.15.52-1.15,1.15v5.61c0,.63.52,1.15,1.15,1.15h10.88c.63,0,1.15.52,1.15,1.15v5.33c0,.63-.52,1.15-1.15,1.15h-10.88c-.64,0-1.15.52-1.15,1.15v5.89c0,.63.52,1.15,1.15,1.15h14.1c.63,0,1.15.52,1.15,1.15v5.34c0,.63-.52,1.15-1.15,1.15h-22.63c-.63,0-1.15-.52-1.15-1.15V1.99Z"/><path class="cls-2" d="m208.49,1.99c0-.63.52-1.15,1.15-1.15h6.28c.63,0,1.15.52,1.15,1.15v13.15c0,.63.52,1.15,1.15,1.15h9.22c.63,0,1.15-.52,1.15-1.15V1.99c0-.63.52-1.15,1.15-1.15h6.29c.63,0,1.15.52,1.15,1.15v36.73c0,.63-.52,1.15-1.15,1.15h-6.29c-.63,0-1.15-.52-1.15-1.15v-13.36c0-.64-.52-1.15-1.15-1.15h-9.22c-.63,0-1.15.52-1.15,1.15v13.36c0,.63-.52,1.15-1.15,1.15h-6.28c-.63,0-1.15-.52-1.15-1.15V1.99Z"/><path class="cls-2" d="m168.27,20.29v-.11c0-11.09,7.76-20.18,18.88-20.18,6.44,0,10.45,2.18,13.7,5.43.2.19.37.82,0,1.31l-.07.07-3.48,4.31s-.26.44-.68.57c-.47.15-.88.03-1.03-.09-2.67-2.3-4.81-3.69-8.24-3.69-6.1,0-10.19,5.56-10.19,12.26v.11c0,6.69,3.99,12.16,10.19,12.16,3.98,0,5.87-1.5,8.66-4.12.11-.11.47-.19.67-.13.39.13.56.37.56.37l3.86,4.2s.25.24.24.63c0,.33-.18.58-.28.68-3.71,3.99-7.43,6.28-14.23,6.28-10.66,0-18.57-8.86-18.57-20.07"/></g><g><path class="cls-3" d="m82.3,20.23L66.55,1.79c-.51-.6-1.12-1.08-2.24-1.08h-9.48c-.47,0-.74.65-.38,1.08l15.74,18.43-15.73,18.44c-.33.37-.13,1.08.39,1.08h9.48c1.1,0,1.73-.49,2.24-1.08l15.74-18.43Z"/><path class="cls-2" d="m97.2.7h-9.48c-1.06,0-1.52.27-2.03.86l-7.3,8.52,6.05,7.08,13.14-15.38c.37-.49.15-1.08-.38-1.08"/><path class="cls-2" d="m97.57,38.66l-13.13-15.37-6.05,7.08,7.34,8.55c.51.6,1.26.82,1.98.82h9.48c.51,0,.74-.67.38-1.08"/></g><path class="cls-3" d="m16.98,10.94v18.41l.05,1.78h-3.17v-1.81H3.19v1.81H0c.03-.69.05-1.28.05-1.78V10.94c0-.52-.02-1.11-.05-1.76h17.03c-.04.41-.05.99-.05,1.76m-3.12,1.04H3.19v5.64h10.67v-5.64ZM3.19,26.54h10.67v-6.16H3.19v6.16Z"/><path class="cls-3" d="m29.03,20.56v9.49c0,.53.02.9.05,1.11h-2.66c.02-.2.03-.57.03-1.11v-9.23c-1.15.14-2.11.23-2.86.28l-1.13.18-.28-2.66c.45.04.94.04,1.47.03l.62-.03c.6-.69,1.15-1.38,1.65-2.07-1.09-1.27-2.27-2.53-3.56-3.76l1.42-2.05.9.91c.51-.71,1-1.47,1.44-2.3.45-.8.75-1.43.9-1.9l2.24,1.46c-.08.08-.18.21-.28.37-.59,1.11-1.47,2.49-2.66,4.2.35.39.67.76.98,1.14,1.51-2.25,2.47-3.87,2.86-4.92l2.24,1.43-.34.4c-.41.7-.92,1.5-1.52,2.41-.6.9-1.19,1.75-1.77,2.52-.58.79-1.07,1.44-1.48,1.95,1.31-.1,2.22-.19,2.73-.25-.21-.7-.45-1.35-.72-1.93l2.01-.57c.29.59.61,1.37.94,2.38.34,1,.61,1.97.81,2.9l-2.24.7-.23-1.29-1.57.21Zm-6.65,8.22c.29-.85.53-1.84.71-2.97.18-1.12.29-2.32.32-3.61l2.27.41-.08.52c-.12,2.75-.47,5-1.06,6.76-.84-.45-1.56-.82-2.17-1.11m9.39-6.83c.19.6.39,1.43.59,2.49.21,1.06.37,2.11.49,3.16l-2.29.65c-.02-.75-.11-1.68-.27-2.77-.16-1.09-.34-2.08-.53-2.95l2.01-.57Zm12.92,6.14c.81,0,1.38-.02,1.7-.05v2.79c-.31-.03-.88-.05-1.7-.05h-10.99c-.83,0-1.4.02-1.73.05v-2.79c.32.04.9.05,1.73.05h4.44v-3.25h-2.86c-.71,0-1.2,0-1.5.03v-2.66c.29.02.79.02,1.5.02h2.86v-1.91l-.05-.88c.38,0,.9.01,1.56.04.66.03,1.13.06,1.41.09-.04.28-.05.52-.05.75v1.91h2.97c.69,0,1.19,0,1.5-.02v2.66c-.31-.02-.81-.03-1.5-.03h-2.97v3.25h3.69Zm-11.68-10.75c1.62-.26,3.1-.69,4.46-1.29-.41-.44-.8-.93-1.17-1.48-.37-.54-.68-1.09-.94-1.62-.26-.53-.47-1-.62-1.43h-.15l-1.34.02v-2.55l1.34.03h8.41l.26-.3c.88.63,1.69,1.3,2.42,2.03l-.36.17c-.15.47-.39,1-.7,1.61-.31.61-.71,1.23-1.19,1.86-.48.63-.99,1.2-1.52,1.71.99.51,2.48.94,4.46,1.26-.41.99-.76,1.88-1.03,2.65-1.15-.27-2.19-.57-3.11-.9-.92-.33-1.74-.74-2.47-1.24-.53.36-1.22.72-2.06,1.07-.84.36-2.01.73-3.51,1.12-.19-.52-.58-1.42-1.19-2.73m9.26-5.83h-4.77c.28.62.61,1.2.99,1.74.39.54.82,1.01,1.3,1.42.52-.41.99-.88,1.42-1.43.43-.55.78-1.13,1.06-1.73"/></g><g><g><path class="cls-3" d="m341.26,20.23l-15.75-18.44c-.51-.6-1.12-1.08-2.24-1.08h-9.48c-.47,0-.74.65-.38,1.08l15.74,18.43-15.73,18.44c-.33.37-.13,1.08.38,1.08h9.48c1.11,0,1.73-.49,2.23-1.08l15.74-18.43Z"/><path class="cls-2" d="m356.16.7h-9.48c-1.06,0-1.52.27-2.03.86l-7.3,8.52,6.05,7.08,13.14-15.38c.37-.49.15-1.08-.38-1.08"/><path class="cls-2" d="m356.53,38.66l-13.12-15.37-6.05,7.08,7.34,8.55c.51.6,1.26.82,1.98.82h9.48c.5,0,.73-.67.38-1.08"/></g><path class="cls-2" d="m260.59,39.89c-.43,0-.82-.16-1.14-.49-.33-.32-.49-.72-.49-1.19V13.38c0-.47.16-.86.49-1.19.32-.33.71-.49,1.14-.49h3.63c.47,0,.89.16,1.26.47.37.31.59.69.65,1.17l.28,2.7c0,.07.04.1.12.1s.13-.02.16-.05c2.73-2.67,5.61-4,8.62-4,2.85,0,4.97.95,6.36,2.89,1.38,1.92,2.07,4.64,2.07,8.15v15.09c0,.47-.16.86-.49,1.19-.32.33-.71.49-1.14.49h-5.22c-.43,0-.81-.16-1.14-.49-.33-.32-.49-.72-.49-1.19v-14.07c0-1.8-.25-3.05-.75-3.75-.5-.7-1.3-1.05-2.42-1.05-.87,0-1.63.17-2.28.51-.65.34-1.41.93-2.28,1.77-.09.09-.14.2-.14.33v16.26c0,.47-.16.86-.49,1.19-.33.33-.72.49-1.19.49h-5.12Z"/><path class="cls-2" d="m301.56,40.54c-4,0-7.3-1.27-9.9-3.82-2.59-2.55-3.89-6.01-3.89-10.39,0-2.14.36-4.12,1.09-5.94.73-1.82,1.69-3.33,2.89-4.52,1.2-1.19,2.56-2.12,4.1-2.79,1.54-.68,3.13-.99,4.77-.99,3.79,0,6.68,1.21,8.67,3.63,1.99,2.42,2.98,5.59,2.98,9.5,0,.65-.03,1.31-.09,1.96-.06.5-.28.89-.65,1.19-.37.3-.79.44-1.26.44h-14.07c-.15,0-.21.08-.18.24.77,3.35,3.01,5.03,6.7,5.03,1.43,0,2.86-.31,4.29-.93.4-.22.83-.26,1.28-.12.45.14.79.4,1,.77l1.21,2.24c.22.4.27.83.16,1.28-.11.45-.37.8-.77,1.05-2.64,1.46-5.42,2.19-8.34,2.19Zm-5.68-17.37c0,.09.06.14.19.14h8.8c.16,0,.24-.08.24-.23-.03-1.4-.39-2.5-1.1-3.31-.7-.81-1.76-1.21-3.18-1.21-1.21,0-2.27.39-3.17,1.16-1.18,1.02-1.77,2.17-1.77,3.45Z"/><path class="cls-2" d="m370.33,40.54c-3.29,0-5.72-.94-7.27-2.82-1.55-1.88-2.33-4.51-2.33-7.89v-7.56c0-.12-.06-.19-.18-.19h-1.82c-.47,0-.86-.16-1.19-.49-.33-.33-.49-.72-.49-1.19v-2.98c0-.47.17-.88.49-1.21.32-.35.72-.53,1.19-.56l2.28-.19c.16-.03.23-.11.23-.24l.02-2.57c.06-.47.27-.87.63-1.16.36-.32.78-.47,1.28-.47h4.41c.47,0,.86.15,1.19.49.33.32.49.7.49,1.14v2.57c0,.12.06.19.19.19h4.52c.47,0,.86.17,1.19.49.33.34.49.73.49,1.19v3.31c0,.47-.16.86-.49,1.19-.33.32-.72.49-1.19.49h-4.52c-.12,0-.19.06-.19.19v7.46c0,1.42.3,2.48.91,3.16.61.69,1.43,1.03,2.49,1.03.28,0,.57-.03.89-.09.43-.06.85.02,1.24.26.39.23.63.55.72.95l.65,2.89c.03.15.05.29.05.42,0,.31-.09.6-.28.88-.22.41-.56.65-1.02.75-1.49.37-3.01.56-4.57.56Z"/></g></g><path class="cls-2" d="m105.53,48.7v10.77h-1.6v-.79h-5.56v.82h-1.54v-10.8h8.71Zm-7.17,4.2h5.56v-2.69h-5.56v2.69Zm5.56,1.48h-5.56v2.81h5.56v-2.81Z"/><path class="cls-2" d="m110.77,55.49c-.12,1.18-.39,2.43-.75,3.23-.26-.16-.81-.42-1.14-.53.37-.74.56-1.86.67-2.91l1.23.21Zm9.63-6.58c-.45,1.33-1.15,2.39-2.04,3.24.75.43,1.62.75,2.57.95-.31.29-.71.85-.91,1.21-1.06-.29-2-.7-2.8-1.25-.85.56-1.82.99-2.86,1.31-.16-.34-.5-.89-.79-1.2.24.54.44,1.08.51,1.48l-1.05.47c-.04-.19-.08-.4-.16-.64l-.64.05v5.12h-1.29v-5.03l-1.82.11-.13-1.29.9-.04c.19-.24.39-.52.59-.81-.36-.54-.96-1.2-1.48-1.7l.71-1.02c.09.07.19.16.29.25.35-.69.7-1.52.92-2.18l1.29.48c-.45.85-.95,1.81-1.4,2.52.16.18.3.35.42.5.43-.7.83-1.42,1.12-2.03l1.21.56c-.69,1.09-1.55,2.35-2.34,3.37l1.2-.05c-.14-.32-.29-.63-.44-.9l.99-.41c.2.35.4.75.58,1.16.9-.24,1.74-.59,2.49-1.04-.59-.59-1.08-1.27-1.48-2.04l.8-.26h-1.43v-1.27h5.19l.27-.06,1,.45Zm-7.09,6.26c.31.72.64,1.63.78,2.26l-1.1.4c-.11-.63-.44-1.59-.73-2.33l1.05-.33Zm4.68,2.82h2.74v1.3h-7.08v-1.3h2.87v-1.47h-2.13v-1.32h2.13v-1.49h1.47v1.49h2.23v1.32h-2.23v1.47Zm-2.04-8.2c.3.55.71,1.06,1.2,1.49.49-.44.9-.94,1.23-1.49h-2.43Z"/><path class="cls-2" d="m128.84,50.06s-.02.04-.04.07h2.52c.39,0,.8-.07,1.09-.15l1.28.79c-.13.24-.31.59-.41.9-.34,1.12-1.05,2.79-2.18,4.19-1.19,1.45-2.71,2.6-5.06,3.53l-1.48-1.33c2.57-.76,3.96-1.86,5.05-3.09.85-.98,1.58-2.48,1.78-3.42h-3.52c-.84,1.09-1.93,2.19-3.16,3.04l-1.4-1.04c2.19-1.34,3.28-2.96,3.91-4.03.19-.31.45-.89.56-1.32l1.83.6c-.29.44-.61,1-.76,1.28"/><path class="cls-2" d="m139.11,49.7h6.89c.31,0,.79,0,1.24-.03-.02.37-.02.84-.02,1.22v6.14c0,.49.02,1.69.02,1.74h-1.73s.01-.31.01-.67h-6.04c.01.35.01.64.01.67h-1.73c0-.06.04-1.15.04-1.75v-6.12c0-.36,0-.87-.03-1.22.51.01.99.03,1.33.03m.37,6.79h6.05v-5.2h-6.05v5.2Z"/><path class="cls-2" d="m159.98,50.84c-.43.97-1.13,2.32-1.97,3.44,1.24,1.08,2.76,2.68,3.5,3.58l-1.43,1.24c-.82-1.12-1.98-2.4-3.16-3.54-1.33,1.4-2.99,2.7-4.71,3.52l-1.29-1.35c2.02-.75,3.96-2.28,5.13-3.59.83-.94,1.59-2.18,1.87-3.07h-4.25c-.52,0-1.21.07-1.48.09v-1.78c.34.05,1.1.09,1.48.09h4.42c.54,0,1.04-.08,1.29-.16l1.03.77c-.1.14-.33.52-.44.78"/><path class="cls-2" d="m166.01,52.23h8.21c.26,0,.81-.03,1.14-.07v1.63c-.31-.03-.79-.04-1.14-.04h-3.02c-.07,1.29-.35,2.34-.8,3.22-.44.86-1.4,1.84-2.52,2.4l-1.47-1.06c.89-.34,1.77-1.06,2.27-1.79.51-.78.72-1.71.77-2.77h-3.45c-.37,0-.85.03-1.2.05v-1.64c.37.04.81.07,1.2.07m1.59-3.19h5.04c.42,0,.93-.03,1.35-.09v1.62c-.42-.03-.91-.05-1.35-.05h-5.02c-.44,0-.97.02-1.35.05v-1.62c.41.06.93.09,1.34.09"/><path class="cls-2" d="m182.1,54.64l-1.53.57c-.21-.67-.84-2.34-1.14-2.89l1.5-.54c.31.64.92,2.15,1.16,2.86m6.07-1.69c-.33,1.27-.85,2.57-1.71,3.67-1.16,1.51-2.73,2.56-4.2,3.11l-1.31-1.34c1.38-.36,3.12-1.31,4.16-2.62.85-1.06,1.45-2.74,1.6-4.3l1.75.56c-.15.4-.22.67-.3.91m-3.29.92l-1.5.52c-.15-.61-.7-2.13-1.02-2.79l1.49-.48c.24.54.85,2.17,1.03,2.74"/><path class="cls-2" d="m197.7,50.06s-.02.04-.04.07h2.52c.39,0,.8-.07,1.09-.15l1.28.79c-.14.24-.31.59-.41.9-.34,1.12-1.05,2.79-2.17,4.19-1.19,1.45-2.71,2.6-5.06,3.53l-1.48-1.33c2.57-.76,3.96-1.86,5.05-3.09.85-.98,1.58-2.48,1.78-3.42h-3.52c-.84,1.09-1.93,2.19-3.16,3.04l-1.4-1.04c2.19-1.34,3.28-2.96,3.91-4.03.19-.31.45-.89.57-1.32l1.82.6c-.28.44-.61,1-.76,1.28"/></g></svg>