<svg xmlns="http://www.w3.org/2000/svg" viewBox="0 0 150 30"><defs><style>.bd998094-f03a-49c5-a47c-8ff4a815743b{fill:#00b4dc;}.fe0b2b83-9d63-4f55-bda2-d4a791bab768{fill:#fff;}</style></defs><title>link_campaign</title><g id="a3af193b-1712-4c4b-9d15-5b6bf8811d8e" data-name="レイヤー 2"><g id="a6d2c82c-b917-4d2f-a0d9-c27e840d1b60" data-name="object"><path class="bd998094-f03a-49c5-a47c-8ff4a815743b" d="M150,15a15,15,0,0,1-15,15H15A15,15,0,0,1,0,15H0A15,15,0,0,1,15,0H135a15,15,0,0,1,15,15Z"/><path class="fe0b2b83-9d63-4f55-bda2-d4a791bab768" d="M23.16,17.21a3.6,3.6,0,0,1-.36.22,2.63,2.63,0,0,0-1-.89v4.83H20.06V12.45h3.11a5.89,5.89,0,0,0-.75-1.23l.94-.23H19.64V9.58h5.48V8.48l1.77.09c.11,0,.25,0,.25.15a.27.27,0,0,1-.07.14L26.89,9v.58h5.5V11H29l.58.07c.21,0,.38.06.38.21s-.21.21-.38.23c-.18.36-.35.7-.49.95h2.86v7.09A1.75,1.75,0,0,1,31.51,21c-.45.47-.93.48-2.05.51a2.67,2.67,0,0,0-.51-1.7,6.34,6.34,0,0,0,.82.07c.27,0,.49,0,.49-.51v-4c-.25.54-.47,1-1.4,1h-1.6c-.64,0-1.13-.16-1.13-1V14H24.45l.73.22c.21.07.26.14.26.21s-.21.2-.33.21a4.92,4.92,0,0,1-1.49,2.27h5.24v3.36H24.73v.41H23.16Zm-1.39-.94A3.26,3.26,0,0,0,23.66,14H21.77ZM24.25,11A9.84,9.84,0,0,1,25,12.25l-.71.2h2.81A7.93,7.93,0,0,0,27.85,11Zm.48,7.12V19h2.56v-.88ZM30.26,14H27.63v.7c0,.26.05.36.36.36h.55c.27,0,.39-.11.49-.81a4,4,0,0,0,1.23.62Z"/><path class="fe0b2b83-9d63-4f55-bda2-d4a791bab768" d="M38.34,10.89V12.1H33.63V10.89ZM43,14.51c.12,0,.22.07.22.16s-.14.16-.36.23v1.2a4.7,4.7,0,0,0,1.66,2.67A8.75,8.75,0,0,0,46.38,20a3.57,3.57,0,0,0-1.05,1.35,7.23,7.23,0,0,1-3-2.84,5.88,5.88,0,0,1-3.16,2.91,3.76,3.76,0,0,0-1-1.25V21.2H36.74v-.56H35.52v.72H34V16.51h4.11V20a5.33,5.33,0,0,0,2.22-1.34c.94-1,.92-2.48.91-4.25ZM37.85,9.06v1.17H34.3V9.06Zm0,3.71V14H34.3V12.77Zm0,1.88v1.17H34.3V14.65Zm-1.09,4.63V17.81H35.52v1.47Zm6.19-10.7c.16,0,.27,0,.27.16S43,9,42.82,9c0,.24-.07,1.24-.07,1.46a4,4,0,0,0,.8,1.66A7,7,0,0,0,46.48,14a3.83,3.83,0,0,0-1.07,1.3,7.68,7.68,0,0,1-3.24-2.52,6,6,0,0,1-3.1,2.46,4.12,4.12,0,0,0-1-1.28c2.62-.85,3.11-2.16,3.11-4.33,0-.44,0-.66,0-1.05ZM40.8,15.67c.17,0,.25.1.25.18s-.21.25-.4.25a8.59,8.59,0,0,1-.72,2.32A3.52,3.52,0,0,0,38.36,18a7.69,7.69,0,0,0,.92-2.62Zm-.08-6.15c.1,0,.22,0,.22.15s-.11.17-.35.24a12,12,0,0,1-.53,2.26,3.85,3.85,0,0,0-1.51-.32,8.83,8.83,0,0,0,.57-2.58ZM46,9.83a.21.21,0,0,1,.14.19c0,.06,0,.17-.21.17l-.24,0a12,12,0,0,1-1.24,1.73A5.13,5.13,0,0,0,43.16,11,7.2,7.2,0,0,0,44.5,9Zm-.17,6c.1,0,.2.1.2.22s-.21.23-.39.23a9.06,9.06,0,0,1-1,1.59,4,4,0,0,0-1.26-.81,8.58,8.58,0,0,0,1-1.89Z"/><path class="fe0b2b83-9d63-4f55-bda2-d4a791bab768" d="M52.18,9l1.91-.25c.07,0,.28,0,.28.13s-.09.19-.21.29l.28,1.91,3.35-.42L58,12.36l-3.29.44L55,14.65l4.8-.62L60,15.8l-4.75.61.66,4.51L54,21.26l-.67-4.6-5.06.66L48,15.53l5-.63-.26-1.85-3.59.48L49,11.73l3.53-.43Z"/><path class="fe0b2b83-9d63-4f55-bda2-d4a791bab768" d="M65.61,11.22l1.65-.2c.13,0,.3,0,.3.14s-.1.17-.2.25l.41,2.1,3.62-.71a1.3,1.3,0,0,0,.68-.37l1.17.89c-.47.57-2.18,3.41-2.55,4a14.31,14.31,0,0,0-1.55-.75c.14-.18.45-.62.78-1.09s.49-.73.61-.93l-2.46.53,1.11,5.65-1.61.38-1.14-5.66-3,.64L63,14.45l3.1-.62Z"/><path class="fe0b2b83-9d63-4f55-bda2-d4a791bab768" d="M77.67,9.09a15,15,0,0,1,3.67,2.41,12.78,12.78,0,0,0-1.16,1.62,14,14,0,0,0-3.68-2.38Zm-1,9.84a16.56,16.56,0,0,0,10.52-7.6A8.53,8.53,0,0,0,88.42,13c-.91,1.4-3.54,5.36-10.16,7.74,0,.14,0,.31-.23.31s-.19-.11-.26-.24Z"/><path class="fe0b2b83-9d63-4f55-bda2-d4a791bab768" d="M89.46,15.33a16.72,16.72,0,0,0,2.59-2.62c1.64-2,2.19-2.39,3-2.39s1.29.41,2.88,2.37a31.74,31.74,0,0,0,4.81,4.91,16.29,16.29,0,0,0-1.26,1.71,55.38,55.38,0,0,1-5-5.52c-1.07-1.31-1.15-1.43-1.53-1.43s-.59.27-1.28,1.08-2,2.4-2.49,3.17c0,.15,0,.32-.18.32s-.11,0-.2-.14Zm12.19-5.45a1.31,1.31,0,1,1-1.3-1.28A1.28,1.28,0,0,1,101.65,9.88Zm-2,0a.65.65,0,1,0,1.3,0,.64.64,0,0,0-.64-.64A.66.66,0,0,0,99.69,9.88Z"/><path class="fe0b2b83-9d63-4f55-bda2-d4a791bab768" d="M116.05,14v2H104V14Z"/><path class="fe0b2b83-9d63-4f55-bda2-d4a791bab768" d="M119.67,9.09a15,15,0,0,1,3.67,2.41,12.78,12.78,0,0,0-1.16,1.62,14,14,0,0,0-3.68-2.38Zm-1,9.84a16.56,16.56,0,0,0,10.52-7.6A8.53,8.53,0,0,0,130.42,13c-.91,1.4-3.54,5.36-10.16,7.74,0,.14,0,.31-.23.31s-.19-.11-.26-.24Z"/></g></g></svg>