<svg xmlns="http://www.w3.org/2000/svg" width="529.65" height="96.08" viewBox="0 0 529.65 96.08"><defs><style>.cls-1{fill:#00b4dc;}.cls-2{fill:#3c3c3c;}</style></defs><g id="レイヤー_2" data-name="レイヤー 2"><g id="レイヤー_2-2" data-name="レイヤー 2"><path class="cls-1" d="M129.48,66.61c-.45-1-1.35-3-5.44-3-7,0-7.43,6-7.7,9.5,1.58-1.44,3.65-3.33,9.5-3.33,7.51,0,12.6,4.32,12.6,11.43,0,6.61-4.55,13-14.36,13a15.55,15.55,0,0,1-8.37-2.2c-6.34-3.83-7.29-11.12-7.29-16.52,0-17.64,12.56-18.72,15.66-18.72,4,0,12.46,1.85,14,9.86Zm.86,14.94c0-3.74-3.24-5.63-6.66-5.63S117,77.86,117,81.55c0,2.92,2.16,5.89,6.71,5.89S130.34,84.47,130.34,81.55Z"/><path class="cls-1" d="M145.91,93.2l15-35.45h5.67l-15,35.45Z"/><path class="cls-1" d="M182.36,93.2v-23h-7.7V64.27c4.55-.14,7.79-.9,9.45-6.52h6.61V93.2Z"/><path class="cls-1" d="M220.29,66.61c-.45-1-1.35-3-5.45-3-7,0-7.42,6-7.69,9.5,1.57-1.44,3.64-3.33,9.49-3.33,7.52,0,12.6,4.32,12.6,11.43,0,6.61-4.54,13-14.35,13a15.52,15.52,0,0,1-8.37-2.2c-6.35-3.83-7.29-11.12-7.29-16.52,0-17.64,12.55-18.72,15.66-18.72,4.05,0,12.46,1.85,14,9.86Zm.85,14.94c0-3.74-3.24-5.63-6.66-5.63s-6.7,1.94-6.7,5.63c0,2.92,2.16,5.89,6.7,5.89S221.14,84.47,221.14,81.55Z"/><path class="cls-1" d="M278.29,76.1a20,20,0,1,1-20-20A20,20,0,0,1,278.29,76.1Z"/><path class="cls-1" d="M302.05,76.1a5.49,5.49,0,1,1-5.49-5.49A5.51,5.51,0,0,1,302.05,76.1Z"/><path class="cls-1" d="M321.54,93.2v-23h-7.7V64.27c4.55-.14,7.79-.9,9.45-6.52h6.62V93.2Z"/><path class="cls-1" d="M338.86,64.36V57.75H368v6.56c-1.94,1.35-5.94,4.19-9.5,12.33-2.92,6.62-3.24,11.93-3.46,16.56h-8.37a41.1,41.1,0,0,1,3.91-16.56,36.24,36.24,0,0,1,9-12.28Z"/><path class="cls-1" d="M417.48,76.1a20,20,0,1,1-20-20A20,20,0,0,1,417.48,76.1Z"/><path class="cls-2" d="M260.69,89.31h-4.77V77.67a27.41,27.41,0,0,1-8.73,9A7.48,7.48,0,0,0,244,83.07a25,25,0,0,0,10.14-11h-9.45V67.83h11.19V61.71l4.62.15c.24,0,.75,0,.75.37s-.09.32-.6.65v4.95H272v4.26h-9.63A28.24,28.24,0,0,0,272.54,83c-.51.33-1.56,1-3.15,3.6a36.51,36.51,0,0,1-8.7-9Z"/><path class="cls-2" d="M399.51,75.6h9.18v3.78h-5.4l3.84,1.53c.27.12.45.18.45.36,0,.33-.48.39-1,.42a23.69,23.69,0,0,1-1.44,3.24h4.59v3.69H384.6V84.93h5a15.44,15.44,0,0,0-2.34-4l2.94-1.59h-4.38V75.6h9.3V73.92h-4.32v-2.1c-2,1.26-2.52,1.62-5,3a15.61,15.61,0,0,0-3.48-3.42c8.37-3.57,12.15-8,13-9.72l4.89.54c.18,0,.39.06.39.31s-.3.44-.6.53A29.81,29.81,0,0,0,412.35,71a14.11,14.11,0,0,0-3.3,3.9,25.82,25.82,0,0,1-5.28-3v2.1h-4.26Zm-4.38,3.78h-3.81a19.73,19.73,0,0,1,2.46,4.05c-1.26.69-1.83,1-2.55,1.5h3.9Zm6.21-9.33a22.27,22.27,0,0,1-4-3.69,28.28,28.28,0,0,1-4.05,3.69Zm-1.83,14.88h3.66a23.19,23.19,0,0,0-2.34-1.17A17.41,17.41,0,0,0,403,79.38h-3.48Z"/><path class="cls-1" d="M29.47,8.59,31.81,9c1,.18,1.44.23,1.44.72s-.58.59-1.08.63c-.18.45-.49,1.08-1,2.16h8.73V35.41c0,4.46-1,6.35-8.33,6.35a11.65,11.65,0,0,0,.05-1.17A7.89,7.89,0,0,0,30,35.77v2.7h-13v1.08H11V29.07a3.8,3.8,0,0,1-.45.22,8.74,8.74,0,0,0-3.15-3V41.8H.9V12.46h9.4A16.82,16.82,0,0,0,8.55,9.18l3.19-.59H0V3.19H17V0L23.8.31c.45,0,.86.14.86.59s-.45.63-.86.81V3.19H41v5.4Zm-22,9.63v6.35a9.88,9.88,0,0,0,4.77-6.35Zm26.19,4.91a4.24,4.24,0,0,1-4.14,2.56H23.71c-2.65,0-3.51-.94-3.51-3.06V18.22H15.61L18,19c.31.09.94.31.94.72,0,.18,0,.49-1.21.76a16.2,16.2,0,0,1-4.1,6.62H30v8.37c.9.09,1.66.22,2.16.22,1.39,0,1.48-.45,1.48-1.48Zm-18-14.54a22.94,22.94,0,0,1,2,3.47l-1.62.4h7.88a26.88,26.88,0,0,0,1.8-3.87ZM24,31.72H16.92v2.12H24Zm1.84-13.5v1.44c0,.59.05,1,.9,1h1.35c.86,0,1-.76,1.35-2.43Zm7.74,0H29.52a12.78,12.78,0,0,0,4.09,2.16Z"/><path class="cls-1" d="M67.77,3.42c.45,0,.67.18.67.45s-.4.54-1.08.81a40.48,40.48,0,0,1-1.53,7.42A15.35,15.35,0,0,0,60.07,11v1.17H45V7.74H60.07v3.15a41.84,41.84,0,0,0,1.62-8.28ZM59.71,41H54.4V39.46H51.79v2.21H46.17V25.51H59.71V30.1a22.24,22.24,0,0,0,2.75-7.87l5.76,1.21c.31,0,.81.27.81.63,0,.68-.9.86-1.31.9a37,37,0,0,1-2.34,7.43,14.65,14.65,0,0,0-5.67-1.76v5.67c9.63-3,9.54-8.91,9.41-17.14l6.52.36c.23,0,.68,0,.68.54,0,.27-.32.49-1.22.76,0,1.17,0,1.94,0,3.33A13.35,13.35,0,0,0,79,31.41c.81.76,4.19,3.87,6.93,4.86a12.94,12.94,0,0,0-4,5,21.86,21.86,0,0,1-9-8.19c-1.35,2.56-4.86,6.93-9.81,8.5a13.52,13.52,0,0,0-3.38-4.36ZM58.5,1.85V6.21H47.16V1.85Zm0,11.87v4.37H47.16V13.72Zm0,5.9V24H47.16V19.62ZM54.4,34.33V30.42H51.79v3.91ZM75.28.5c.54,0,.9.08.9.49s-.72.72-1.26.86c0,.67-.18,3.73-.18,4.36,0,1.62,1.4,4.54,3.33,6.25a27.76,27.76,0,0,0,8.19,4.64A15.78,15.78,0,0,0,82.21,22c-2.07-.95-6.75-3.11-9.9-7.29a20,20,0,0,1-9.45,7.2,17.12,17.12,0,0,0-3.55-4.82c7.74-2.52,9.54-6.34,9.54-13.49,0-1.31,0-2.08-.09-3.29ZM85,4.73a.71.71,0,0,1,.45.62c0,.23-.13.55-.63.55A4.54,4.54,0,0,1,84,5.81c-2.25,3.41-2.65,4-4.09,5.48a19.13,19.13,0,0,0-4.77-3.55,24.06,24.06,0,0,0,4.32-6Zm-.54,19.21c.45.22.68.4.68.76,0,.54-.72.77-1.35.81a27.74,27.74,0,0,1-3,4.91,17.59,17.59,0,0,0-4.77-3.2,29.39,29.39,0,0,0,3.15-5.76Z"/><path class="cls-1" d="M118.26,33.43c0,.9.31,1.62,1.8,1.62h3.24c1.21,0,1.48-.49,1.66-1.08.23-.76.77-3,1-4.23,3.37,2.48,5.08,2.84,5.89,3a20.66,20.66,0,0,1-2,6.57c-1,1.85-3.38,2-4.05,2h-8.28c-3.51,0-6.21-1.17-6.21-5.67V27h-4.82l2.21.59c.27.09.76.22.76.76,0,.86-.94.9-1.75.95-3.69,8.86-10.35,11.56-13.86,13a18.11,18.11,0,0,0-5.36-5.36c2.84-.63,11.07-2.47,12.87-9.9H94.77V1.17h30.87V27h-7.38Zm.45-24.93V6.93H102.1V8.5ZM102.1,13.05v1.62h16.61V13.05Zm0,6.34v1.8h16.61v-1.8Z"/><path class="cls-1" d="M134.91,13.77V7.83H152V.27l6.48.41c1.12.09,1.26.4,1.26.63s-.18.49-.95,1V7.83H176v5.94H161.46a42.46,42.46,0,0,0,15.75,17.37c-3,2.38-3.87,3.24-4.91,5.17a53.36,53.36,0,0,1-6.84-6.39v5.31H158.8v6.35H152V35.23H145.3V29.88a54.51,54.51,0,0,1-6.88,6.43c-1-2-2-2.83-4.91-5.17a41.51,41.51,0,0,0,15.75-17.37ZM152,20.61a51.16,51.16,0,0,1-6.08,8.55H152Zm12.82,8.55a50.74,50.74,0,0,1-6-8.46v8.46Z"/><path class="cls-1" d="M203.8,14.31h13.86V32.8c0,1.89,0,3.51-1.57,4.64s-3.83,1.35-7.7,1.35a15.1,15.1,0,0,0-2.07-6.93,19.68,19.68,0,0,0,2.79.27c1.44,0,1.71-.32,1.71-1.62V20.65h-7V41.58H197V20.65h-6.89V38.34h-6.88v-24H197V10.93h-17.1V4.81H197V.27l7.15.27c.27,0,.68.14.68.54s-.59.77-1,.86V4.81H221v6.12H204.3c.27.09.54.27.54.54,0,.5-.63.72-1,.86Z"/><path class="cls-1" d="M259.56,27.73l-1.83,3.63L236.19,20.68,257.73,10l1.83,3.63-14.19,7Z"/><path class="cls-1" d="M288.93,15.64c.18.15.36.3.36.45a.46.46,0,0,1-.45.36,4,4,0,0,1-.6-.09A49.46,49.46,0,0,1,272.67,22V26.8c0,2.22.72,2.22,5.85,2.22a80.54,80.54,0,0,0,11.07-.6,20.31,20.31,0,0,0-.63,4.8c-1.08.06-2.61.15-5.34.15-12,0-12.6-.33-13.89-1-1.74-1-2-2.7-2-5V7.93l4.92.3c.36,0,.6,0,.6.3s-.3.48-.6.66v8.49c3.27-.69,8.58-2.4,12.3-5.34Zm-2.25-7a29,29,0,0,1,3.06,2.94c-.18.15-1.32,1.14-1.95,1.71-.42-.39-1.89-1.86-3.21-2.88Zm2.79-2.34a23.7,23.7,0,0,1,3,2.94c-.54.45-1.47,1.32-2,1.83a35.74,35.74,0,0,0-3.12-3Z"/><path class="cls-1" d="M298.83,13.6a43.53,43.53,0,0,1,7,4.11c-.87,1.08-1.2,1.56-2.91,4a31.68,31.68,0,0,0-6.84-4.08Zm-.93,16.2a42.22,42.22,0,0,0,20.82-16c1.41,2.79,2.52,3.54,3.09,3.93a42.19,42.19,0,0,1-8.13,8.7,53.55,53.55,0,0,1-12.24,7.41c-.06.33-.15.72-.48.72-.18,0-.36-.24-.48-.42ZM301.74,7a34.65,34.65,0,0,1,7.5,3.48,33.54,33.54,0,0,0-2.79,4,33.48,33.48,0,0,0-7.29-3.78Zm13.38,1.74c.93.69,2.73,2.19,3.45,2.88-.33.27-1.53,1.47-2.28,2.19a36.29,36.29,0,0,0-3.39-3.06ZM318,6.55a25.46,25.46,0,0,1,3.21,2.91,15.29,15.29,0,0,0-2,1.86,26.16,26.16,0,0,0-3.27-2.91Z"/><path class="cls-1" d="M328.11,18V13.78h15.78a6.22,6.22,0,0,0,1.83-.33l2.55,2.49a13.39,13.39,0,0,0-1.77,1.47c-3.66,3.75-4.08,4.17-6.12,6V34.72h-4.83v-8a35.23,35.23,0,0,1-8,3.84,17.18,17.18,0,0,0-2.64-4c6.81-2.13,10.44-4.35,14.88-8.49ZM335,6.64A42.94,42.94,0,0,1,343,9.79c-1.35,2.13-1.41,2.22-2.34,3.81a38.77,38.77,0,0,0-8-3.48ZM343.89,22a57.29,57.29,0,0,1,7.17,5.13c-.39.48-1.83,2.4-2.76,3.63A44,44,0,0,0,341,25.27Z"/><path class="cls-1" d="M357.51,13.9V9.4h15.33a8.29,8.29,0,0,0,2.07-.24l2.34,2.55a9.18,9.18,0,0,0-1.14,1.92A51.67,51.67,0,0,1,372.3,21a79.26,79.26,0,0,1,9,8.22c-1,1.14-2.61,2.94-3.6,4.08a41.14,41.14,0,0,0-8.07-8.55c-2.88,3.45-7.59,7.32-11.52,9a13.4,13.4,0,0,0-3.42-4.11,25.22,25.22,0,0,0,9.75-6c3.42-3.3,4.65-6.24,6-9.69Z"/><path class="cls-1" d="M385.29,17.92V13.39h13.44V7.57l5,.3c.33,0,.57,0,.57.33s-.33.45-.57.54v4.65H410v4.53h-6.21V30.28a3.17,3.17,0,0,1-2,3.36,10,10,0,0,1-4.83.69,12.57,12.57,0,0,0-1.74-5.07,9.59,9.59,0,0,0,2.25.33c1.23,0,1.29-.57,1.29-1.77V22.39A31.51,31.51,0,0,1,388,31.3a13.61,13.61,0,0,0-3.24-3.81,27.72,27.72,0,0,0,11.64-9.57Z"/><path class="cls-1" d="M419,8.23c5,2.58,6.6,4.08,7.5,4.92-.72.87-.93,1.2-2.91,4.08a30.87,30.87,0,0,0-7.56-4.8ZM416.49,29c8.55-1.77,17-7.56,22.32-16.14a19.22,19.22,0,0,0,3.09,4.08,39.7,39.7,0,0,1-9.33,10,49.87,49.87,0,0,1-12.36,6.69c0,.33-.15.66-.42.66s-.3-.09-.48-.42Z"/><path class="cls-1" d="M453.42,8.35c.36,0,.57,0,.57.3s-.36.48-.57.57V23.89h-5V8.2Zm13.74-.54c.3,0,.57.06.57.3s-.36.51-.57.6v9.78a16.32,16.32,0,0,1-2.4,9.27,18.32,18.32,0,0,1-9.09,6.93,8.6,8.6,0,0,0-3.12-3.84c9.39-3.27,9.57-9.27,9.57-12.33V7.63Z"/><path class="cls-1" d="M501,18.58v5.1H474.9v-5.1Z"/><path class="cls-1" d="M506.28,13.63,508.11,10l21.54,10.68L508.11,31.36l-1.83-3.63,14.19-7Z"/></g></g></svg>