<svg xmlns="http://www.w3.org/2000/svg" width="22" height="22" viewBox="0 0 22 22"><g transform="translate(-255 123)"><rect width="22" height="22" transform="translate(255 -123)" fill="none"/><g transform="translate(255 -121)"><path d="M728.518,540.833H715a1,1,0,0,1-.985-1.014V523.683a1,1,0,0,1,.985-1.014h13.517a1,1,0,0,1,.985,1.014v3.267a.563.563,0,1,1-1.125,0v-3.122H715.142v15.846h13.235v-5.312a.563.563,0,1,1,1.125,0v5.457A1,1,0,0,1,728.518,540.833Z" transform="translate(-714.017 -522.669)"/><path d="M746.038,549.674h-7.791a.518.518,0,0,1,0-1.035h7.791a.518.518,0,0,1,0,1.035Z" transform="translate(-734.408 -544.878)"/><path d="M746.038,571.878h-7.791a.518.518,0,0,1,0-1.035h7.791a.518.518,0,0,1,0,1.035Z" transform="translate(-734.408 -563.866)"/><path d="M743.234,594.083h-4.986a.518.518,0,0,1,0-1.035h4.986a.518.518,0,0,1,0,1.035Z" transform="translate(-734.408 -582.855)"/><path d="M743.234,616.287h-4.986a.518.518,0,0,1,0-1.035h4.986a.518.518,0,0,1,0,1.035Z" transform="translate(-734.408 -601.843)"/><path d="M0,0,2.034.03l.17,11.6L.17,11.6Z" transform="matrix(0.695, 0.719, -0.719, 0.695, 20.046, 1.496)"/><path d="M788.5,594.445h0l.98-2.41,1.392,1.483Z" transform="translate(-778.023 -581.988)"/></g></g></svg>