<svg xmlns="http://www.w3.org/2000/svg" width="18" height="20" viewBox="0 0 18 20"><path data-name="パス 54" d="M12,0H0V20H18V6.09Zm5,19H1V1H11V7h6Z" fill="#f21f26"/><g data-name="グループ 27"><path data-name="パス 55" d="M5.16,9.98H2.85v7.29H4.34V14.11h.67a2.816,2.816,0,0,0,1.05-.18,1.383,1.383,0,0,0,.72-.63,2.323,2.323,0,0,0,.27-1.22,2.928,2.928,0,0,0-.2-1.13,1.506,1.506,0,0,0-.62-.72,2.019,2.019,0,0,0-1.07-.25h0Zm-.83,3.09V11.03h.51a.858.858,0,0,1,.54.13.562.562,0,0,1,.22.35,2.9,2.9,0,0,1,.05.56,2.347,2.347,0,0,1-.06.58.517.517,0,0,1-.24.33.984.984,0,0,1-.5.1H4.33Z" fill="#f21f26"/><path data-name="パス 56" d="M9.24,9.98H7.46v7.29H9.28a3.227,3.227,0,0,0,1.42-.25,1.427,1.427,0,0,0,.72-.77,3.584,3.584,0,0,0,.22-1.33V12.27a3.233,3.233,0,0,0-.22-1.3,1.408,1.408,0,0,0-.73-.75,3.531,3.531,0,0,0-1.44-.24h0Zm-.3,6.26V11.03h.31a1.168,1.168,0,0,1,.57.11.5.5,0,0,1,.23.34,2.5,2.5,0,0,1,.06.61V15.1a5.266,5.266,0,0,1-.04.63.589.589,0,0,1-.22.39.99.99,0,0,1-.59.13H8.95Z" fill="#f21f26"/><path data-name="パス 57" d="M15.69,9.98H12.61v7.29H14.1V14h1.35V12.96H14.1V10.99h1.59V9.98Z" fill="#f21f26"/></g></svg>