<svg id="_レイヤー_2" data-name="レイヤー_2" xmlns="http://www.w3.org/2000/svg" viewBox="0 0 85 30"><defs><style>.cls-1{fill:#fff}</style></defs><g id="_レイヤー_1-2" data-name="レイヤー_1"><g><g><path class="cls-1" d="M75.34 12.18h-7.99s-5.32 5.32-5.32 5.32c.72.2 1.47.31 2.25.31h11.07c1.63 0 2.95 1.33 2.95 2.95s-1.32 2.95-2.95 2.95h-19.53l-5.63 5.63h25.16c4.73 0 8.59-3.85 8.59-8.59s-3.85-8.59-8.59-8.59ZM46.58 12.17l-5.64 5.64h8.65l-6.22 6.22h-.17c-4.98 0-9.03-4.05-9.03-9.03s4.05-9.03 9.03-9.03c2.26 0 4.42.84 6.08 2.36l4.22-4.22c-2.8-2.65-6.45-4.11-10.3-4.11-8.27 0-15 6.73-15 15 0 7.41 5.53 13.8 12.87 14.85.72.1 1.43.15 2.13.15h2.08l17.83-17.83h-16.53Z"/><path class="cls-1" d="M61.32,9.22c0-1.63,1.32-2.95,2.95-2.95h14.14l5.63-5.63h-19.77c-4.73,0-8.59,3.85-8.59,8.59h5.63Z"/></g><g><path class="cls-1" d="M26.47 6.32 32.12.68 5.65.68 0 6.32 26.47 6.32zM13.08 29.41 19.1 29.41 19.1 6.78 13.08 12.79 13.08 29.41z"/></g></g><path fill="none" d="M0 0H85V30H0z"/></g></svg>