<svg data-name="レイヤー_2" xmlns="http://www.w3.org/2000/svg" viewBox="0 0 500 459"><g data-name="レイヤー_1"><path fill="none" d="M0 0H500V459H0z"/><g><g><path d="M164.72 355.14c-28.61 0-51.88 23.27-51.88 51.88s23.27 51.88 51.88 51.88 51.88-23.27 51.88-51.88-23.27-51.88-51.88-51.88ZM164.72 438.26c-17.23 0-31.25-14.01-31.25-31.24s14.02-31.24 31.25-31.24 31.24 14.02 31.24 31.24-14.02 31.24-31.24 31.24ZM395.64 397.25h-44.93v-20.43h55.15l19.47-19.47-95.68.21v59.18h65.99c5.63 0 10.22 4.58 10.22 10.22s-4.58 10.22-10.22 10.22h-66.23v19.48h66.23c16.37 0 29.7-13.32 29.7-29.7s-13.32-29.7-29.7-29.7ZM27.91 426.94c0-5.63 4.58-10.21 10.22-10.21h38.27c16.37 0 29.69-13.32 29.69-29.7s-13.32-29.7-29.69-29.7H27.91l-19.48 19.48h67.97c5.63 0 10.22 4.58 10.22 10.22s-4.58 10.21-10.22 10.21h-38.27c-16.37 0-29.7 13.32-29.7 29.7v29.7h78.16l19.5-19.48H27.91v-10.22ZM243.04 426.94c0-5.63 4.58-10.21 10.22-10.21h38.27c16.37 0 29.69-13.32 29.69-29.7s-13.32-29.7-29.69-29.7h-48.49l-19.48 19.48h67.97c5.63 0 10.22 4.58 10.22 10.22s-4.58 10.21-10.22 10.21h-38.27c-16.37 0-29.7 13.32-29.7 29.7v29.7h78.16l19.5-19.48h-78.19v-10.22Z"/></g><g><g><g><g><path d="M188.16 305.67H209.22V336.64H188.16zM188.16 237.28H209.22V268.35H188.16zM351.3 287.55 351.3 237.28 330.23 237.23 330.23 336.64 381.21 285.67 381.21 336.64 480.35 237.52 452.73 237.56 402.27 287.55 402.27 237.28 351.3 287.55zM87.02 256.76l19.48-19.48H38.12c-16.37 0-29.7 13.32-29.7 29.7s13.32 29.7 29.7 29.7h38.27c5.63 0 10.22 4.58 10.22 10.22s-4.58 10.22-10.22 10.22H27.91l-19.48 19.48h67.97c16.37 0 29.7-13.32 29.7-29.7s-13.32-29.7-29.7-29.7h-38.27c-5.63 0-10.22-4.58-10.22-10.22s4.58-10.22 10.22-10.22h48.9Z"/></g><g><path d="m72.03 157.9-19.51 19.51h29.91l-21.53 21.53h-.59c-17.23 0-31.24-14.01-31.24-31.24s14.02-31.24 31.24-31.24c7.82 0 15.28 2.9 21.04 8.17l14.6-14.6c-9.68-9.17-22.31-14.21-35.64-14.21-28.61 0-51.88 23.27-51.88 51.88 0 25.64 19.13 47.72 44.5 51.35 2.48.36 4.96.53 7.38.53h7.2l61.68-61.68h-57.16ZM300.79 118.02 300.79 137.53 375.88 137.53 395.38 118.02 300.79 118.02zM300.79 157.93 300.79 177.44 362.38 177.44 381.89 157.93 300.79 157.93zM300.79 197.87 300.79 217.38 375.88 217.38 395.38 197.87 300.79 197.87zM236.86 172.82 236.5 172.46 182.17 118.14 182.17 118.09 82.92 217.33 110.22 217.33 182.13 145.46 182.05 197.87 142.42 197.87 122.91 217.38 203.12 217.38 203.12 167.58 236.86 201.32 270.6 167.58 270.6 217.38 291.67 217.38 291.67 118.02 236.86 172.82z"/></g></g><g><path d="M147.34.16c-28.62 0-51.9 23.28-51.9 51.9s23.28 51.9 51.9 51.9 51.9-23.28 51.9-51.9S175.96.16 147.34.16ZM147.34 83.32c-17.23 0-31.25-14.02-31.25-31.25s14.02-31.25 31.25-31.25 31.25 14.02 31.25 31.25-14.02 31.25-31.25 31.25ZM448.1 0c-28.62 0-51.9 23.28-51.9 51.9s23.28 51.9 51.9 51.9 51.9-23.28 51.9-51.9S476.72 0 448.1 0ZM448.1 83.15c-17.23 0-31.25-14.02-31.25-31.25s14.02-31.25 31.25-31.25 31.25 14.02 31.25 31.25-14.02 31.25-31.25 31.25ZM308.38 2.25 281.07 2.2 231.37 51.9 281.07 101.6 308.38 101.55 258.68 51.9 308.38 2.25zM228.99 2.25 208.17 2.2 208.17 101.42 228.99 101.42 228.99 2.25z"/><path d="M384.28 2.15 352.08 34.36 320.47 2.75 306.8 16.42 341.67 51.25 341.67 101.42 362.49 101.42 362.49 51.26 362.9 50.84 411.59 2.2 384.28 2.15z"/></g><g><path d="M91.6 21.88 111.13 2.37 19.53 2.37 0 21.88 91.6 21.88zM45.26 101.77 66.08 101.77 66.08 23.45 45.26 44.27 45.26 101.77z"/></g></g><path d="M269.26,235.08c-24.68,0-46.09,17.57-50.89,41.77l-.08.41h-82.32v-39.98l-21.07,21.07v78.29h21.07v-39.91l1.41-.03h80.49s.42,0,.42,0l.08.41c4.82,24.18,26.22,41.73,50.88,41.73,28.61,0,51.88-23.27,51.88-51.88s-23.27-51.88-51.88-51.88ZM269.26,318.2c-17.23,0-31.24-14.01-31.24-31.24s14.02-31.24,31.24-31.24,31.24,14.02,31.24,31.24-14.02,31.24-31.24,31.24Z"/></g></g></g></svg>