<svg xmlns="http://www.w3.org/2000/svg" width="102.48" height="16.6" viewBox="0 0 102.48 16.6"><path data-name="パス 44" d="M5.64.22c3.46,0,4.66-2.04,4.66-5.3v-6.08c0-3.28-1.2-5.22-4.66-5.22-3.48,0-4.68,1.94-4.68,5.22v6.08C.96-1.8,2.14.22,5.64.22Zm0-2.18c-1.46,0-1.68-1.08-1.68-2.42v-7.46c0-1.36.24-2.38,1.68-2.38S7.3-13.2,7.3-11.84v7.46C7.3-3.04,7.08-1.96,5.64-1.96ZM12.48,0h2.94V-7.38h3.04V-9.44H15.42v-4.72h3.72V-16.2H12.48Zm8.26,0h2.94V-7.38h3.04V-9.44H23.68v-4.72H27.4V-16.2H20.74Zm8.34,0H32V-16.2H29.08Zm9.78.22c3.42,0,4.38-2.06,4.38-4.92V-6H40.4v1.46c0,1.44-.06,2.58-1.52,2.58-1.3,0-1.66-.84-1.66-2.6v-7.02c0-1.48.14-2.64,1.66-2.64,1.5,0,1.52,1.1,1.52,2.46v1.4h2.84v-1.36c0-2.82-1.06-4.66-4.38-4.66-3.56,0-4.62,2.1-4.62,5.42v5.78C34.24-2.02,35.3.22,38.86.22ZM45.38,0H48.3V-16.2H45.38Zm4.6,0h2.78l.66-3.74h2.82L56.88,0h2.74L56.38-16.2H53.22Zm3.74-5.62,1.1-6.8,1.1,6.8ZM61.24,0h6.88V-2.02H64.18V-16.2H61.24ZM78.6.22a3.833,3.833,0,0,0,4.06-3.98,6.008,6.008,0,0,0-2.42-4.7l-2.02-1.78a2.938,2.938,0,0,1-1.32-2.44,1.358,1.358,0,0,1,1.36-1.52c1.3,0,1.52,1.14,1.58,2.66l2.54-.44c-.16-2.36-1.02-4.4-4.06-4.4-2.58,0-4.18,1.44-4.18,4a4.782,4.782,0,0,0,1.88,3.92l2.04,1.78c1.06.92,1.78,1.7,1.78,3.1,0,.88-.4,1.52-1.34,1.52-1.3,0-1.76-1.24-1.84-3.16l-2.54.5C74.24-1.5,75.64.22,78.6.22ZM84.4,0h2.52V-9.68L90.88,0h1.96V-16.2H90.4v9.24L86.46-16.2H84.4ZM99.38.22a3.833,3.833,0,0,0,4.06-3.98,6.008,6.008,0,0,0-2.42-4.7L99-10.24a2.938,2.938,0,0,1-1.32-2.44,1.358,1.358,0,0,1,1.36-1.52c1.3,0,1.52,1.14,1.58,2.66l2.54-.44c-.16-2.36-1.02-4.4-4.06-4.4-2.58,0-4.18,1.44-4.18,4A4.782,4.782,0,0,0,96.8-8.46l2.04,1.78c1.06.92,1.78,1.7,1.78,3.1,0,.88-.4,1.52-1.34,1.52-1.3,0-1.76-1.24-1.84-3.16l-2.54.5C95.02-1.5,96.42.22,99.38.22Z" transform="translate(-.96 16.38)" fill="#212121"/></svg>