<svg xmlns="http://www.w3.org/2000/svg" viewBox="0 0 198.05 23.37"><defs><style>.cls-1{fill:#e6222e;stroke:#231815;stroke-width:0.75px;}.cls-2{fill:#231815;}.cls-3{fill:#fff;}</style></defs><g id="レイヤー_2" data-name="レイヤー 2"><g id="レイヤー_1-2" data-name="レイヤー 1"><path class="cls-1" d="M8,6.78,8.19,6a.12.12,0,0,1,.14-.1,8.65,8.65,0,0,0,1.95,0,3,3,0,0,0,2.49-1.27.25.25,0,0,0,0-.23c-.05-.07-.18-.06-.27,0a10.59,10.59,0,0,1-4.22.13.12.12,0,0,1-.1-.15L8.9.5A.13.13,0,0,1,9,.39l4.51,0a.12.12,0,0,1,.12.1L15,6.71a.13.13,0,0,0,.14.1l5.7-.55a.12.12,0,0,1,.13.09l1.36,4.08a.12.12,0,0,1-.06.15l-4.45,2.57a.13.13,0,0,0-.06.16l3,6.81a.13.13,0,0,1,0,.15L17,22.92a.12.12,0,0,1-.16,0L11.48,18a.12.12,0,0,0-.17,0L6,23a.13.13,0,0,1-.16,0L2.13,20.36a.14.14,0,0,1,0-.16L5,13.37a.13.13,0,0,0,0-.16L.44,10.68a.12.12,0,0,1-.06-.15L1.7,6.44a.12.12,0,0,1,.13-.09l6.07.52A.13.13,0,0,0,8,6.78Z"/><path class="cls-2" d="M10.12,4h-.06a.2.2,0,0,1-.13-.25,10.7,10.7,0,0,0,.45-2.61A.21.21,0,0,1,10.59,1a.19.19,0,0,1,.18.21,11,11,0,0,1-.46,2.71.2.2,0,0,1-.19.14Z"/><path class="cls-2" d="M12.59,2.72a.31.31,0,1,1-.62,0,.33.33,0,0,1,.3-.37A.34.34,0,0,1,12.59,2.72Z"/><path class="cls-2" d="M9.31,1.86a.27.27,0,0,0,.24.28.26.26,0,0,0,.24-.29.26.26,0,0,0-.24-.28A.27.27,0,0,0,9.31,1.86Z"/><path class="cls-3" d="M8.77,9.24V9.5A.86.86,0,0,1,8,9.84a1,1,0,0,1-.65-.21A.78.78,0,0,1,7.15,9a.75.75,0,0,1,.22-.56A.82.82,0,0,1,8,8.26a.88.88,0,0,1,.33.06.64.64,0,0,1,.27.18.77.77,0,0,1,.17.27,1.4,1.4,0,0,1,0,.38H8a.38.38,0,0,0,.15.18.44.44,0,0,0,.23.06A.54.54,0,0,0,8.77,9.24Zm-.85-.35h.37a.3.3,0,0,0,0-.18.18.18,0,0,0-.14-.06A.14.14,0,0,0,8,8.71.24.24,0,0,0,7.92,8.89Z"/><path class="cls-3" d="M9.79,8.28v.2a.64.64,0,0,1,.48-.21.56.56,0,0,1,.41.15.63.63,0,0,1,.14.44v1h-.74V8.92c0-.13-.05-.19-.14-.19a.24.24,0,0,0-.14,0v1H9V8.29Z"/><path class="cls-3" d="M12.33,8.27V8.7H12V9c0,.11.05.17.15.16a.22.22,0,0,0,.19-.11v.61a.79.79,0,0,1-.45.12.67.67,0,0,1-.48-.16.58.58,0,0,1-.19-.47V8.71H10.9L12,7.84v.43Z"/><path class="cls-3" d="M14.14,9.21v.27a1,1,0,0,1-1.38.12.81.81,0,0,1,0-1.14.78.78,0,0,1,.58-.22,1,1,0,0,1,.34.06.65.65,0,0,1,.26.17.62.62,0,0,1,.17.28,1,1,0,0,1,.06.38h-.8a.32.32,0,0,0,.14.18.39.39,0,0,0,.23.07A.58.58,0,0,0,14.14,9.21Zm-.85-.35h.37a.48.48,0,0,0-.06-.18.16.16,0,0,0-.13-.06.18.18,0,0,0-.13.06A.3.3,0,0,0,13.29,8.86Z"/><path class="cls-3" d="M15.16,8.59a.49.49,0,0,1,.43-.35.37.37,0,0,1,.27.11.38.38,0,0,1,.1.26.36.36,0,0,1-.1.27A.35.35,0,0,1,15.6,9a.43.43,0,0,1-.32-.14.46.46,0,0,0-.12.37v.57h-.79V8.26h.78Z"/><path class="cls-3" d="M7.14,12.34V11.1H9.61v1.23H9v1.55H7.77V12.33Z"/><path class="cls-3" d="M11.46,13.92a1.39,1.39,0,0,1-1-.42,1.47,1.47,0,0,1-.42-1,1.42,1.42,0,0,1,.41-1,1.39,1.39,0,0,1,1-.42,1.36,1.36,0,0,1,1,.41,1.39,1.39,0,0,1,.42,1,1.34,1.34,0,0,1-.41,1A1.4,1.4,0,0,1,11.46,13.92Zm0-1.81a.3.3,0,0,0-.2.08.31.31,0,0,0-.07.21.28.28,0,0,0,.08.21.26.26,0,0,0,.19.08.28.28,0,0,0,.2-.08.32.32,0,0,0,.08-.21.29.29,0,0,0-.08-.21A.24.24,0,0,0,11.45,12.11Z"/><path class="cls-3" d="M15.14,13.85H13.91V12.64l-1.07-1.57h1.25l.44.63.42-.64h1.25l-1.05,1.57Z"/><path class="cls-3" d="M8,14.93v.19a.59.59,0,0,1,.47-.21.55.55,0,0,1,.49.26,1.07,1.07,0,0,1,.26-.2.73.73,0,0,1,.3-.06.51.51,0,0,1,.39.15.57.57,0,0,1,.15.42v1H9.33v-.91a.22.22,0,0,0,0-.13.15.15,0,0,0-.11,0,.2.2,0,0,0-.14.05v1H8.3v-.91a.28.28,0,0,0,0-.13.14.14,0,0,0-.11,0,.3.3,0,0,0-.14.05v1H7.23V14.93Z"/><path class="cls-3" d="M12,15.85v.27a.86.86,0,0,1-.74.34.93.93,0,0,1-.65-.22.82.82,0,0,1,0-1.14.82.82,0,0,1,.58-.22.88.88,0,0,1,.33.06.64.64,0,0,1,.27.18.77.77,0,0,1,.17.27,1.06,1.06,0,0,1,0,.38h-.8a.43.43,0,0,0,.15.18.44.44,0,0,0,.23.06A.51.51,0,0,0,12,15.85Zm-.84-.34h.36a.3.3,0,0,0,0-.18.16.16,0,0,0-.14-.07.15.15,0,0,0-.12.07A.24.24,0,0,0,11.18,15.51Z"/><path class="cls-3" d="M13.15,14.9v.19a.65.65,0,0,1,.47-.2A.53.53,0,0,1,14,15a.61.61,0,0,1,.15.45v.95h-.74v-.89c0-.13,0-.19-.15-.19a.27.27,0,0,0-.14.05v1h-.79V14.91Z"/><path class="cls-3" d="M15.78,14.89v.43h-.33v.33c0,.11,0,.16.15.16a.26.26,0,0,0,.19-.11v.61a.79.79,0,0,1-.45.12.71.71,0,0,1-.48-.16.6.6,0,0,1-.19-.47v-.48h-.32l1.1-.87v.44Z"/><path d="M25.85,6.67V.82h2.27V6.67Z"/><path d="M75.72,6.67V.82H78V6.67Z"/><path d="M35.18,6.72H33.27l-1.7-2.34V6.67H29.5V.82h1.78L33.1,3.28V.82h2.08Z"/><path d="M60.82,6.72H58.91l-1.7-2.34V6.67H55.13V.82h1.79l1.82,2.46V.82h2.08Z"/><path d="M91.71,6.72h-1.9L88.1,4.38V6.67H86V.82h1.78l1.82,2.46V.82h2.08Z"/><path d="M36.1,3.1V.82h5.2V3.1H39.84V6.67H37.57V3.1Z"/><path d="M69.47,3.1V.82h5.2V3.1H73.21V6.67H70.93V3.1Z"/><path d="M109.11,3.1V.82h5.2V3.1h-1.46V6.67h-2.27V3.1Z"/><path d="M146,3.1V.82h5.2V3.1h-1.47V6.67h-2.27V3.1Z"/><path d="M47,5.37v1.3H42.18V.82H47V2.14h-2.6v1h1.9V4.32h-1.9v1Z"/><path d="M48,.82h3.83a2.26,2.26,0,0,1,1.56.51,1.61,1.61,0,0,1,.56,1.24,1.67,1.67,0,0,1-.79,1.31A5,5,0,0,1,54.4,6.67H51.87A4.82,4.82,0,0,0,51.54,5c-.17-.34-.61-.52-1.29-.52V6.67H48ZM50.25,2V3.16h.39c.69,0,.86-.18.86-.56a.6.6,0,0,0-.14-.39A1,1,0,0,0,50.73,2Z"/><path d="M63.91,6.67H61.64l2-5.85h3.69l2,5.85H67.12l-.33-1H64.25Zm.81-2.37h1.59L65.5,2Z"/><path d="M94.8,6.67H92.53l2-5.85h3.69l2,5.85H98l-.34-1H95.14Zm.81-2.37h1.6L96.4,2Z"/><path d="M82.16,6.76A2.83,2.83,0,0,1,80,5.88a2.88,2.88,0,0,1-.87-2.13A2.94,2.94,0,0,1,80,1.61a3,3,0,0,1,4.26,0,2.94,2.94,0,0,1,.87,2.14,2.88,2.88,0,0,1-.87,2.13A2.83,2.83,0,0,1,82.16,6.76Zm0-4.18a.88.88,0,0,0-.68.3,1,1,0,0,0-.26.7,1,1,0,0,0,.26.72.94.94,0,0,0,1.36,0,1,1,0,0,0,.27-.72,1,1,0,0,0-.27-.7A.88.88,0,0,0,82.16,2.58Z"/><path d="M118,6.76a2.86,2.86,0,0,1-2.13-.88A2.87,2.87,0,0,1,115,3.75a2.93,2.93,0,0,1,.86-2.14A2.9,2.9,0,0,1,118,.73a2.87,2.87,0,0,1,2.13.88A2.94,2.94,0,0,1,121,3.75a2.88,2.88,0,0,1-.87,2.13A2.83,2.83,0,0,1,118,6.76Zm0-4.18a.85.85,0,0,0-.67.3,1,1,0,0,0-.27.7,1,1,0,0,0,.27.72.84.84,0,0,0,.67.29.87.87,0,0,0,.68-.29,1,1,0,0,0,.27-.72,1,1,0,0,0-.27-.7A.88.88,0,0,0,118,2.58Z"/><path d="M138.83,6.76a2.82,2.82,0,0,1-2.12-.88,2.88,2.88,0,0,1-.87-2.13,2.94,2.94,0,0,1,.87-2.14,3,3,0,0,1,4.25,0,2.91,2.91,0,0,1,.88,2.14A2.85,2.85,0,0,1,141,5.88,2.82,2.82,0,0,1,138.83,6.76Zm0-4.18a.86.86,0,0,0-.67.3,1,1,0,0,0-.27.7,1,1,0,0,0,.27.72.93.93,0,0,0,1.35,0,1,1,0,0,0,.28-.72.94.94,0,0,0-.28-.7A.85.85,0,0,0,138.83,2.58Z"/><path d="M154.9,6.76a2.83,2.83,0,0,1-2.13-.88,2.88,2.88,0,0,1-.87-2.13,2.94,2.94,0,0,1,.87-2.14,3,3,0,0,1,4.26,0,2.94,2.94,0,0,1,.87,2.14A2.88,2.88,0,0,1,157,5.88,2.85,2.85,0,0,1,154.9,6.76Zm0-4.18a.88.88,0,0,0-.68.3,1,1,0,0,0-.27.7,1,1,0,0,0,.27.72.94.94,0,0,0,1.36,0,1,1,0,0,0,.27-.72,1,1,0,0,0-.27-.7A.88.88,0,0,0,154.9,2.58Z"/><path d="M184.56,6.76a2.82,2.82,0,0,1-2.12-.88,2.85,2.85,0,0,1-.88-2.13,2.91,2.91,0,0,1,.88-2.14,3,3,0,0,1,4.25,0,2.94,2.94,0,0,1,.88,2.14,2.89,2.89,0,0,1-.88,2.13A2.83,2.83,0,0,1,184.56,6.76Zm0-4.18a.86.86,0,0,0-.67.3,1,1,0,0,0-.27.7,1,1,0,0,0,.27.72.93.93,0,0,0,1.35,0,1,1,0,0,0,.27-.72,1,1,0,0,0-.27-.7A.87.87,0,0,0,184.56,2.58Z"/><path d="M101,6.67V.82h2.27V5.2h2.59V6.67Z"/><path d="M124.17.82v2a1.79,1.79,0,0,0,1.49-.55A2.42,2.42,0,0,0,126,.82h2.48a4.6,4.6,0,0,1-.28,1.76,3.29,3.29,0,0,1-1.09,1.17,3.86,3.86,0,0,1,1.53,2.92H126c0-1.49-.69-2.1-1.85-2.12V6.67h-2.26V.82Z"/><path d="M133.69,6.67h-2.27V4.12L129.09.82h2.31l1.16,1.9,1.15-1.9H136l-2.33,3.3Z"/><path d="M162.18,6.67h-2.27V4.12L157.59.82h2.3l1.16,1.9L162.2.82h2.31l-2.33,3.3Z"/><path d="M173.23,1.12l-.54,1.55A3,3,0,0,0,171.18,2c-.17,0-.44,0-.56.24s-.1.52,1,.83a4,4,0,0,1,1,.47,1.6,1.6,0,0,1,.54.56,1.63,1.63,0,0,1,.18.78,1.65,1.65,0,0,1-.71,1.44,3.79,3.79,0,0,1-2.1.48,7.7,7.7,0,0,1-2.73-.44l.6-1.67c.2.15.64.39,1.05.65s.86.18,1,0,.23-.54-.8-.9a6.6,6.6,0,0,1-.78-.36,1.65,1.65,0,0,1-.75-1.35,1.65,1.65,0,0,1,.7-1.46,3.4,3.4,0,0,1,2-.55A7.2,7.2,0,0,1,173.23,1.12Z"/><path d="M176.64,6.67h-2.27V.82h2.27V3h1.7V.82h2.28V6.67h-2.28V4.51h-1.7Z"/><path d="M191.76,6.67H190L188,.82h2.2l1,2.7,1-2.7h1.16l1.07,2.7,1-2.7h2.21l-2,5.85h-1.76L192.78,4Z"/><path d="M80.84,14.09V11.51H73.48v-.89H69.63v.89h-1v2.58h1v.75h-1v2.59h1V18c0,3.3,1.47,5,4.62,5H76c2.57,0,4.79-1.2,4.79-5.32V14.82H77.05v2.85a1.47,1.47,0,0,1-1.68,1.68h-.28c-.94,0-1.61-.25-1.61-1.39v-.53H76.3V14.84H73.48v-.75Z"/><path d="M90.46,15.22H88.68v-.74h5.65v-3.1H88.68v-.76H84.84v.76H82.72v3.1h2.12v3.93h5c.52,0,.68.21.68.51s-.2.43-.73.43H83.53V23h6.31c3.81,0,5-1.3,5-4C94.86,15.62,93,15.22,90.46,15.22Z"/><path d="M62.05,15.22H60.89v-.75h1.24V11.38H60.89v-.76H57.62v.76H54.26v3.09h3.39v.75h-.36c-1.72,0-3.37,1.18-3.37,3.9,0,2.55,1.35,3.87,3.67,3.87,3,0,3.3-1.77,3.3-3.74v-.84h1.23c.47,0,.74.07.74.48s-.15.46-.72.46h-.53V23h.48c2.3,0,4.24-.65,4.24-4C66.33,16.35,64.34,15.22,62.05,15.22Zm-4.4,4.07c0,.4-.13.6-.34.6h-.12c-.35,0-.43-.38-.43-.77s.25-.71.63-.71h.26Zm5.23-9.24v3.11c.68,0,.77.42.77.76v.89h3.08V13.58C66.73,11.11,65.69,9.93,62.88,10.05Z"/><path d="M115.6,15.22l-.54,2.06a3.28,3.28,0,0,1-3.3,2.07h-4.23V23H112c3.27,0,5.86-1.54,6.64-4.87.35-1.5.47-3.14,1.39-3.14V11C116.86,11,116.22,12.56,115.6,15.22Zm-2.17-4.6h-5.9v3.19h5.9Zm0,4h-5.9v3.19h5.9Z"/><rect x="131.89" y="15.05" width="11.44" height="3.77"/><path d="M127,14h-5.57v2.68h5.2c.5,0,.42.43.42.76h-5.11v2.12H127v.75h-5.62V23h8.83V17A2.92,2.92,0,0,0,127,14Z"/><path d="M104.4,15.71a.9.9,0,0,1,.79-.3V13.17c-2.19,0-3.11.85-3.5,1.85h-1.53l-.07-1H97.35l.07,1h-1v2.87h1.22l.33,5.1h2.73l-.32-5.1h1.22c.71,0,1,.21,1,.69s-.32.78-1.23.78v2.87c3.24,0,4.25-1.26,4.25-3.34v-.65A3,3,0,0,0,104.4,15.71Z"/><path d="M47.72,10.62v-.57H44.47v.57h-4.6v2.14H52.3V10.62ZM40.11,18.9h4.14V23h3.67V18.9h4.16V13.51h-12Zm3-3.1h6v.82h-6Zm-3.24,4.94V23c2.94.12,3.92-1.24,3.85-3.37H41.41C41.37,20.45,40.66,20.81,39.87,20.74Z"/><path d="M38.07,12.75V10.62H33.48v-.57H30.24v.57H25.67v2.13h4.57v.76H25.88v6.1h2.95a4.19,4.19,0,0,1-3.2,1.11V23c2.05,0,3.59-.48,4.4-1.37V23h3.63V21.61C34.47,22.5,36,23,38.05,23V20.72c-1.28,0-2.62-.28-3.19-1.11h3v-6.1H33.48v-.76Zm-7.83,5.43H28.87v-.75h1.37Zm0-2.48H28.87v-.76h1.37Zm4.61,2.48H33.48v-.75h1.37Zm0-3.24v.76H33.48v-.76Z"/><path d="M50.77,19.62c0,.83.75,1.19,1.53,1.12V23c-2.94.12-3.91-1.24-3.85-3.37Z"/><path d="M144.6,10.19V13.8h7.33c.48,0,.8.12.8.58s-.28.57-.8.57h-6.66v8h11V19.22h-6.86v-1h2.23c4.63.1,5.44-1.83,5.44-3.93,0-3.11-1.72-4.13-5.05-4.13Z"/><path d="M171.93,10.19V13.8h7.33c.47,0,.8.12.8.58s-.28.57-.8.57h-6.67v8h11V19.22h-6.86v-1h2.23c4.63.1,5.44-1.83,5.44-3.93,0-3.11-1.73-4.13-5-4.13Z"/><path d="M163.09,10.19c-2.37,0-4.94,2-4.94,4.36v4.09c0,2.4,2.57,4.35,4.94,4.35h2.64c2.39,0,4.94-1.95,4.94-4.35V14.55c0-2.4-2.55-4.36-4.94-4.36Zm-.75,7.93V15.06c0-.53.49-1.26,1.08-1.26h2c.58,0,1.08.73,1.08,1.26v3.06a1.31,1.31,0,0,1-1.08,1.28h-2A1.26,1.26,0,0,1,162.34,18.12Z"/><path d="M185.59,10.19V13.8h7.33c.48,0,.81.12.81.58s-.28.57-.81.57h-6.66v8h11V19.22h-6.86v-1h2.23c4.63.1,5.45-1.83,5.45-3.93,0-3.11-1.73-4.13-5.05-4.13Z"/></g></g></svg>