<svg xmlns="http://www.w3.org/2000/svg" width="383.42" height="31.49"><path d="M19.84.4V5H5.93v8.1h13.32v4.63H5.93v8.73h14.22v4.63H0V.4zM31 .4l8.68 19.7L48.17.4h6.22L40.83 31.49h-2.06L24.77.4zm49.09 0V5H66.18v8.1h13.31v4.63H66.18v8.73h14.21v4.63H60.24V.4zm13.3 0l18.24 21.42V.4h5.8v30.69h-5.1L94 9.32v21.77h-5.8V.4zm58.5 0V5H141v26.09h-5.93V5h-10.9V.4zm37.24-.4a18.44 18.44 0 018.58 2 15.12 15.12 0 016.07 5.67 15.23 15.23 0 012.27 8.11 15.25 15.25 0 01-2.21 8 15.11 15.11 0 01-6.07 5.71 19.34 19.34 0 01-17.35 0 15.2 15.2 0 01-8.26-13.67 15.45 15.45 0 012.18-7.93 15.14 15.14 0 016-5.77A18.4 18.4 0 01189.13 0zM178.3 15.75a11 11 0 001.38 5.5 9.68 9.68 0 003.86 3.75 11.55 11.55 0 005.59 1.34 10.67 10.67 0 007.77-3 10.25 10.25 0 003-7.65 11 11 0 00-1.38-5.5 9.46 9.46 0 00-3.86-3.79 11.75 11.75 0 00-5.62-1.34 11.58 11.58 0 00-5.61 1.35 9.36 9.36 0 00-3.83 3.78 11.12 11.12 0 00-1.3 5.56zM219.57.4v17.86a9.73 9.73 0 00.82 4.37 6.43 6.43 0 002.69 2.68 8.67 8.67 0 004.36 1.06 9.92 9.92 0 004.62-1 6.33 6.33 0 002.78-2.73 10.61 10.61 0 00.88-4.78V.4h5.93v18.23q0 6.2-3.71 9.53t-10.5 3.33A16.82 16.82 0 01220 30a10.76 10.76 0 01-4.78-4.38 13.28 13.28 0 01-1.65-6.74V.4zm56.34 0V5H265v26.09h-5.94V5h-10.87V.4zm12.69 0v26.06h14.9v4.63h-20.83V.4zm27.28 0v30.69H310V.4zm14.36 0l18.23 21.42V.4h5.8v30.69h-5.09L330.83 9.32v21.77H325V.4zm52.87 0V5H369.2v8.1h13.32v4.63H369.2v8.73h14.22v4.63h-20.15V.4z" fill="#ffa000" data-name="レイヤー 2"/></svg>