<svg xmlns="http://www.w3.org/2000/svg" width="449.73" height="19.97"><path d="M10.73 19.44H6.38V4.06H0V.53h17.11v3.53h-6.38zm7.68-6.89c0-5.23 3.67-7.41 7.49-7.41s7.46 2.18 7.46 7.41S29.69 20 25.9 20s-7.49-2.24-7.49-7.45zm7.49-4.46c-2 0-3.46 1.61-3.46 4.53 0 2.21 1.06 4.37 3.46 4.37 2.23 0 3.43-1.92 3.43-4.44s-1.2-4.46-3.43-4.46zm17.83 11.35V.53H53.9c3.7 0 6 2 6 4.85A3.9 3.9 0 0157 9.29a4.75 4.75 0 011.82.86 4.62 4.62 0 011.8 3.85c0 3.24-2.54 5.47-6.21 5.47zm4.32-11h4.89A2.21 2.21 0 0055.25 6a2.06 2.06 0 00-2.31-2.18h-4.89zm0 7.75h4.87c1.54 0 3.07-.69 3.07-2.61 0-2.12-1.87-2.45-3.07-2.45h-4.87zm25.03 3.25L73 17.88A5.65 5.65 0 0168.35 20a5.34 5.34 0 01-5.47-5.62V5.64h3.86v8.14a3 3 0 003.17 3 2.91 2.91 0 003.1-3V5.64h3.86v13.8zM88 9.43c0-1.25-1.13-1.68-2.45-1.68-.64 0-2.2.12-2.2 1.3 0 1 1.17 1.32 1.46 1.39 5.33 1.32 7.54 1.87 7.54 4.9 0 2.78-2.5 4.63-6.65 4.63a9.22 9.22 0 01-4.47-1 4.42 4.42 0 01-2.35-3.79h4c.17 1.87 1.47 2.16 3 2.16 2 0 2.4-1 2.4-1.51 0-1.08-1.08-1.32-2-1.56-4.8-1.18-6.94-1.68-6.94-4.76 0-4.36 5.4-4.36 6.27-4.36a8 8 0 015.13 1.58A3.67 3.67 0 0192 9.43zm11-5.52h-4V.53h4zm0 15.53h-4V5.64h4zm6.79-13.8l.07 1.58a5.59 5.59 0 014.66-2.08 5.32 5.32 0 015.48 5.59v8.71h-3.86V11.3a2.94 2.94 0 00-3.15-3 2.9 2.9 0 00-3.12 3v8.14H102V5.64zm16.08 7.73c.1 2.3 1.27 3.72 3.62 3.72s2.93-1.22 3.2-1.78h3.93a5.18 5.18 0 01-1.27 2.33 7.71 7.71 0 01-5.86 2.36c-4.36 0-7.53-2.62-7.53-7.42 0-5.28 3.77-7.41 7.34-7.41a7.19 7.19 0 016 2.83 9.49 9.49 0 011.61 5.4zm7.13-2.45c-.92-2.9-3.1-2.9-3.61-2.9a3.49 3.49 0 00-3.45 2.9zm14.59-1.49c-.05-1.25-1.13-1.68-2.45-1.68-.65 0-2.21.12-2.21 1.3 0 1 1.18 1.32 1.47 1.39 5.33 1.32 7.54 1.87 7.54 4.9 0 2.78-2.5 4.63-6.65 4.63a9.22 9.22 0 01-4.47-1 4.42 4.42 0 01-2.35-3.79h4c.17 1.87 1.47 2.16 3 2.16 2 0 2.4-1 2.4-1.51 0-1.08-1.08-1.32-2-1.56-4.8-1.18-6.94-1.68-6.94-4.76 0-4.36 5.4-4.36 6.26-4.36a8 8 0 015.14 1.58 3.67 3.67 0 011.23 2.71zm15.12 0c-.05-1.25-1.13-1.68-2.45-1.68-.65 0-2.21.12-2.21 1.3 0 1 1.18 1.32 1.47 1.39 5.33 1.32 7.53 1.87 7.53 4.9 0 2.78-2.49 4.63-6.64 4.63a9.22 9.22 0 01-4.47-1 4.42 4.42 0 01-2.35-3.79h4c.17 1.87 1.47 2.16 3 2.16 2 0 2.4-1 2.4-1.51 0-1.08-1.08-1.32-2-1.56-4.8-1.18-6.94-1.68-6.94-4.76 0-4.36 5.4-4.36 6.26-4.36a8 8 0 015.14 1.58 3.63 3.63 0 011.22 2.71zm22.94 5.04L186.43.53h4.49l-7.18 18.91h-4.15L172.41.53h4.49zm15.53-10.56h-3.94V.53h3.94zm0 15.53h-3.94V5.64h3.94zm11.76-10.01c-.05-1.25-1.13-1.68-2.45-1.68-.65 0-2.21.12-2.21 1.3 0 1 1.18 1.32 1.47 1.39 5.33 1.32 7.54 1.87 7.54 4.9 0 2.78-2.5 4.63-6.65 4.63a9.22 9.22 0 01-4.47-1 4.42 4.42 0 01-2.35-3.79h4c.17 1.87 1.47 2.16 3 2.16 2 0 2.4-1 2.4-1.51 0-1.08-1.08-1.32-2-1.56-4.8-1.18-6.94-1.68-6.94-4.76 0-4.36 5.4-4.36 6.26-4.36a8 8 0 015.14 1.58 3.63 3.63 0 011.22 2.71zm10.92-5.52h-3.94V.53h3.94zm0 15.53h-3.94V5.64h3.94zM228.72 8v7.24c0 1.37.81 1.57 1.92 1.57h1.15v3c-.82.07-1.51.12-2.26.12-2.9 0-4.75-1.32-4.75-4V8h-2.54V5.64h2.54V1.78h3.94v3.86h3.07V8zm4.36 4.55c0-5.23 3.67-7.41 7.49-7.41S248 7.32 248 12.55 244.36 20 240.57 20s-7.49-2.24-7.49-7.45zm7.49-4.46c-2 0-3.45 1.61-3.45 4.53 0 2.21 1 4.37 3.45 4.37 2.23 0 3.43-1.92 3.43-4.44s-1.2-4.46-3.43-4.46zm12.98-2.45l.08 2.52c.38-.86 1.34-3 5.28-3h1.39v4h-1.56c-1.87 0-4.85.77-4.85 4.15v6.17H250V5.64zm17.17 3.79c-.05-1.25-1.13-1.68-2.45-1.68-.65 0-2.21.12-2.21 1.3 0 1 1.18 1.32 1.46 1.39 5.33 1.32 7.54 1.87 7.54 4.9 0 2.78-2.5 4.63-6.65 4.63A9.16 9.16 0 01264 19a4.41 4.41 0 01-2.36-3.79h4c.16 1.87 1.46 2.16 3 2.16 2 0 2.4-1 2.4-1.51 0-1.08-1.08-1.32-2-1.56-4.8-1.18-6.94-1.68-6.94-4.76 0-4.36 5.41-4.36 6.27-4.36a8 8 0 015.14 1.58 3.67 3.67 0 011.22 2.71zM294 5.64V8h-3v11.44h-4V8h-2.57V5.64H287V4.39C287 .6 289.77 0 292 0h2v2.62h-1.49c-1.08 0-1.56.43-1.56 1.75v1.27zm5.32 0l.07 2.52c.39-.86 1.35-3 5.28-3h1.4v4h-1.56c-1.88 0-4.85.77-4.85 4.15v6.17h-3.87V5.64zm7.97 6.91c0-5.23 3.67-7.41 7.49-7.41s7.46 2.18 7.46 7.41-3.67 7.45-7.46 7.45-7.49-2.24-7.49-7.45zm7.49-4.46c-2 0-3.46 1.61-3.46 4.53 0 2.21 1.06 4.37 3.46 4.37 2.23 0 3.43-1.92 3.43-4.44s-1.21-4.46-3.43-4.46zm13.05-2.45l.08 2a4.43 4.43 0 014.09-2.5 3.59 3.59 0 013.7 2.47 4.37 4.37 0 014.15-2.47c2.62 0 4.44 1.72 4.44 5v9.31h-3.86v-8.7c0-.45-.1-2.33-2-2.33s-2.23 1.95-2.23 2.72v8.3h-3.87v-8.76c0-1.66-.81-2.26-1.94-2.26-2 0-2.26 2-2.26 2.84v8.18h-3.88V5.64zM359.75 16l-1.13 3.48h-4.46L361 .53h4.83l6.84 18.91h-4.47L367.07 16zm6.34-3l-2.69-8.39-2.69 8.39zm12.19-5.68c.43-.7 1.37-2.18 4.42-2.18 4.15 0 6.19 3.24 6.19 7.39 0 3.62-1.66 7.44-6.46 7.44a4.66 4.66 0 01-4.43-2.45l-.07 1.92h-3.5V.53h3.86zm.05 5.18c0 2.09.72 4.25 3.21 4.25s3.2-2.16 3.2-4.25-.72-4.22-3.2-4.22-3.21 2.09-3.21 4.22zm16.08-6.86l.07 2.52c.39-.86 1.35-3 5.28-3h1.39v4h-1.56c-1.87 0-4.84.77-4.84 4.15v6.17h-3.87V5.64zm7.97 6.91c0-5.23 3.67-7.41 7.49-7.41s7.46 2.18 7.46 7.41-3.67 7.45-7.46 7.45-7.49-2.24-7.49-7.45zm7.49-4.46c-2 0-3.46 1.61-3.46 4.53 0 2.21 1 4.37 3.46 4.37 2.23 0 3.43-1.92 3.43-4.44s-1.2-4.46-3.43-4.46zm19.96 11.35a3.33 3.33 0 01-.4-1.63c-.6.69-1.9 2.16-5.26 2.16-1.66 0-5.35-.26-5.35-4.37 0-3.43 2.95-3.84 6.45-4.32s4.16-.57 4.16-1.73c0-1.56-1.54-1.63-2.52-1.63-3.58 0-3.61 1.18-3.61 1.85h-3.79a4.28 4.28 0 011.78-3.34c1.44-1 4.2-1.29 5.54-1.29 2.07 0 6.46.55 6.46 4.46v7.94a2.27 2.27 0 00.67 1.59v.31zm-.4-6.6a7.66 7.66 0 01-2.74.7c-2.52.38-3.82.57-3.82 1.94 0 1.56 2.59 1.56 2.74 1.56a3.68 3.68 0 003.82-2.83zM445.87.53h3.86v18.91h-3.48l-.07-1.92a4.7 4.7 0 01-4.47 2.48c-4.8 0-6.45-3.82-6.45-7.44 0-4.15 2-7.39 6.19-7.39 3.05 0 4 1.48 4.42 2.18zm-6.46 12c0 2.09.72 4.25 3.19 4.25s3.22-2.16 3.22-4.25-.75-4.22-3.22-4.22-3.19 2.11-3.19 4.19z" fill="#ff9600" data-name="レイヤー 2"/></svg>