<svg xmlns="http://www.w3.org/2000/svg" width="600" height="240"><defs><style>.cls-1{fill:#00b4dc}</style></defs><g id="レイヤー_2" data-name="レイヤー 2"><g id="レイヤー_1-2" data-name="レイヤー 1"><path class="cls-1" d="M595 0H96v57.6L72 30.32 48 60.63V0H5C2.25 0 0 2.84 0 6.32v227.36c0 3.48 2.25 6.32 5 6.32h590c2.75 0 5-2.84 5-6.32V6.32c0-3.48-2.25-6.32-5-6.32z"/><path d="M156.43 50.35a8.42 8.42 0 01-2.87 6.7q-2.87 2.51-8 2.51h-18.8V27.08h15.7a21.35 21.35 0 015.31.58 10.57 10.57 0 013.65 1.61 6.59 6.59 0 012.06 2.4 6.79 6.79 0 01.68 3 8 8 0 01-2.45 5.78 6.35 6.35 0 01-2.1 1.37 12.9 12.9 0 015.08 3.32 7.61 7.61 0 011.74 5.21zM145 36.43a3.16 3.16 0 00-1.55-3.12 11.29 11.29 0 00-4.83-.77h-2.06v7.78h2.11a11.1 11.1 0 004.84-.78C144.5 39 145 38 145 36.43zM146.59 50q0-4.17-6.05-4.17h-4v8.27h4q6.04 0 6.05-4.1zm47.57-5a15 15 0 01-1.56 7.11 12.52 12.52 0 01-4.13 4.65 17.71 17.71 0 01-5.53 2.46A24 24 0 01177 60a23.63 23.63 0 01-8-1.4 14.31 14.31 0 01-6.53-4.79 13.88 13.88 0 01-2.63-8.81V27.08h9.78v15.39a13.31 13.31 0 00.92 5.31 6.4 6.4 0 002.58 3.07 8.17 8.17 0 007.72 0 6.35 6.35 0 002.59-3 13.08 13.08 0 00.93-5.3V27.08h9.8zm36.97-17.92l-12.72 17.6v14.88h-9.8V44.87l-13-17.79h10.17l7.45 10.21 7.48-10.21zm26.45 32.48h-24.49V27.08h24.1v6.51h-14.3v5.95h13.64v6.54h-13.64V53h14.69zm35.62 0h-10.52l-2.56-5.77a24.08 24.08 0 00-2.53-4.62 5.43 5.43 0 00-2.19-1.88 7.85 7.85 0 00-2.75-.41h-1.11v12.68h-9.79V27.08h16.66a12.06 12.06 0 016.59 1.64 9.85 9.85 0 013.72 4 10.32 10.32 0 011.13 4.45 8.34 8.34 0 01-.95 4.16 7.63 7.63 0 01-2 2.48 20.12 20.12 0 01-2.37 1.47 9.43 9.43 0 012.59 2.17 27.22 27.22 0 012.78 5.08zm-13.31-22.22a3.35 3.35 0 00-1.48-3.14 9.73 9.73 0 00-4.8-.89h-2.07v7.83h2.11c2.39 0 4-.26 4.91-.79a3.18 3.18 0 001.33-3.01zM303.9 34a9.28 9.28 0 01-.62 3.23 9.81 9.81 0 01-1.95 3.13 11.36 11.36 0 01-3.46 2.53 16.66 16.66 0 01-5 1.45v-1.5c2.46-.92 3.68-3 3.68-6.21v-.49q-3.68-1.07-3.68-4.62a4.69 4.69 0 01.66-2.4 5 5 0 011.8-1.82 4.92 4.92 0 012.53-.68 5.25 5.25 0 013.37 1.1 6.63 6.63 0 012 2.81 9.82 9.82 0 01.67 3.47zm26.15 16.12a9 9 0 01-1.56 5.27 9.9 9.9 0 01-4.35 3.41 16.24 16.24 0 01-6.4 1.18c-.67 0-1.49 0-2.47-.13a27 27 0 01-3.89-.71 30 30 0 01-5.05-1.74v-8a36.94 36.94 0 004.84 2.6 12.92 12.92 0 005.1 1c1.67 0 2.75-.27 3.24-.83a2.43 2.43 0 00.74-1.56 2.65 2.65 0 00-1.25-2.24 18.22 18.22 0 00-3.68-1.86 28.84 28.84 0 01-4.69-2.45 11.08 11.08 0 01-3.29-3.32 8.48 8.48 0 01-1.29-4.74 8.61 8.61 0 015.22-8.13 14.87 14.87 0 016.47-1.27 22.64 22.64 0 015 .53 21.44 21.44 0 013.81 1.18 15.13 15.13 0 012.06 1V37a27.11 27.11 0 00-4.44-2.55 12.4 12.4 0 00-5.17-1.14 4 4 0 00-2.65.7 2.23 2.23 0 00-.82 1.74 2.15 2.15 0 00.82 1.66 14.54 14.54 0 002.93 1.71 57.54 57.54 0 016 3.17 11.82 11.82 0 013.53 3.24 7.89 7.89 0 011.24 4.59zm49.5-6.22a15.49 15.49 0 01-1.81 8 17.13 17.13 0 01-4.28 4.9q-3.49 2.74-9.77 2.74h-17.54V27.08h13.5a37.05 37.05 0 015.22.31 23.16 23.16 0 013.9.89 16.15 16.15 0 013 1.29 14.76 14.76 0 012.18 1.54 14.48 14.48 0 012.92 3.21 15.42 15.42 0 012 4.29 17.9 17.9 0 01.68 5.29zm-10-.42a10.8 10.8 0 00-1.51-6.17 7.42 7.42 0 00-3.63-3 12.94 12.94 0 00-4.33-.75H356v19.27h4.17a12 12 0 006.61-1.83q2.81-1.82 2.81-7.52zm49.32 16.08h-10L406.19 53h-14.11l-2.69 6.59h-10l14.36-32.48h10.83zm-14.93-12.23l-4.76-11.86-4.8 11.86zm48.53-20.25l-12.72 17.6v14.88H430V44.87l-13-17.79h10.17l7.45 10.21 7.48-10.21zm24.67 23.04a9 9 0 01-1.56 5.27 9.92 9.92 0 01-4.34 3.41 16.27 16.27 0 01-6.4 1.18c-.67 0-1.5 0-2.48-.13a27.24 27.24 0 01-3.89-.71 30.34 30.34 0 01-5.05-1.74v-8a37.59 37.59 0 004.84 2.6 13 13 0 005.1 1c1.67 0 2.75-.27 3.25-.83a2.41 2.41 0 00.73-1.56 2.65 2.65 0 00-1.26-2.21 18 18 0 00-3.68-1.86 29.69 29.69 0 01-4.69-2.45 11.19 11.19 0 01-3.29-3.32 8.56 8.56 0 01-1.28-4.77 8.6 8.6 0 015.23-8.13 14.81 14.81 0 016.47-1.27 22.54 22.54 0 015 .53 21.44 21.44 0 013.81 1.18 16.09 16.09 0 012.07 1V37a26.81 26.81 0 00-4.45-2.55 12.35 12.35 0 00-5.23-1.13 4 4 0 00-2.65.7 2.2 2.2 0 00-.82 1.74 2.11 2.11 0 00.82 1.66 14 14 0 002.93 1.71 57.54 57.54 0 016 3.17 11.77 11.77 0 013.52 3.24 7.81 7.81 0 011.3 4.58zM60 84h480v2.4H60zm132.54 53.14v4h-2.15v7.14H184v-1.38h-7.91v2.75c0 2.19-.56 3.7-7 3.7-.86 0-1.72 0-2.28-.09a16 16 0 00-2-5.37 34.52 34.52 0 003.66.34c1.24 0 1.24-.43 1.24-1.33h-13.37v-4.3h13.41v-1.46h-16.38v-4h16.38v-1.38h-13.41V132h13.41v-1.21h-10.92V122h10.92v-1.2h-16.38v-4.52h16.38V114l6.67.26a.58.58 0 01.64.56c0 .38-.25.47-.94.81v.73h16.25v4.52h-16.25V122h10.75v8.73h-10.75V132h14.27v5.16zm-22.79-10v-1.68h-5.24v1.68zm6.37-1.68v1.68h5.2v-1.68zm7.88 11.68v-1.38h-7.91v1.38zm0 5.5v-1.46h-7.91v1.46zm34.21-22.88a31.84 31.84 0 003.7-6.06l6.45 1.63c.3.09.6.22.6.52 0 .47-.6.69-1.24.6-1.12 1.77-1.55 2.5-2.15 3.31h9.84v5.38H196.2v-5.38h9.46a19.81 19.81 0 00-2.45-3.65l5.8-2.62a28 28 0 013.48 5.37l-2.32.9zM204.41 144v9.28h-6v-26.72h17.09v22.53c0 3.52-1.84 4-7.52 4.21a12.39 12.39 0 00-2.19-6.1c.64 0 1.93.21 2.58.21.81 0 1.29-.08 1.29-1.37v-2zm5.25-10.93v-1.87h-5.25v1.89zm0 6.41v-1.93h-5.25v1.93zm14.66-12.26c.39 0 .64.13.64.44s-.25.47-.64.73v17.11h-6.19V127zm9.07-.9c.39 0 .78.09.78.48s-.48.55-1 .86v20.51c0 1.59 0 3-1.84 4.17-1.55 1-3.4 1-7 .94a16 16 0 00-1.42-6.45c.73.09 2.32.3 3 .3 1.07 0 1.07-.68 1.07-1.2V126zm29.33.07l-4 23.73h-8.82l-7.78-33.88h7.7l4.82 25.15 4.21-25.15h7.74l4.21 25.15 4.82-25.15h7.7l-7.79 33.88h-8.77zm52.37 17.67v6.06h-27.78v-33.88h27.22v6.06h-19.47v7.61h17.19v5.81h-17.19v8.34zm4.69 6.06v-33.88H338c6.62 0 10.67 3.61 10.67 8.68s-3.44 6.32-5.12 7a8.59 8.59 0 013.27 1.55 8.28 8.28 0 013.22 6.84c0 5.8-4.56 9.8-11.14 9.8zm7.74-19.78h8.77c3.18 0 4.13-2.45 4.13-4.3 0-1.46-.65-3.91-4.13-3.91h-8.77zm0 13.89h8.73c2.75 0 5.5-1.25 5.5-4.69 0-3.78-3.35-4.38-5.5-4.38h-8.73zm43.13-.39v-10a24.93 24.93 0 01-3.48 2.37 21.82 21.82 0 00-4.26-4.77 30 30 0 005.46-3.74 29.7 29.7 0 00-3.53-2.76l4.13-4.21a28.75 28.75 0 013.87 2.71 12.67 12.67 0 002.58-3.57h-7.95v-5.12h14.83l1.94 2.07a35.25 35.25 0 01-4.13 7.31h8.81a28.06 28.06 0 01-5.07-8.47l5.46-2.07a26.89 26.89 0 001.85 3.57 21.44 21.44 0 002.62-3.27l4.52 2.84c.17.09.47.3.47.52 0 .51-.73.55-1.16.55-1.42 1.81-2.58 3.14-3.1 3.66.48.56.82.9 1.16 1.25a53.18 53.18 0 003.92-4.65l4 2.71c.34.26.77.52.77.82 0 .56-.64.6-1.29.64a32.37 32.37 0 01-3.7 3.87 29.71 29.71 0 006.07 4c-1.77 1.29-3.83 4.91-4 5.12a46.6 46.6 0 01-4-2.84v11.48h-3.09c.3.13.47.3.47.6s-.43.69-.9.74a16.89 16.89 0 01-.91 2.36h10.54v5.2h-39v-5.2h11c-.17-.51-.82-2.19-1.2-3.14l2.1-.56zm6.41-16c-1.12 1.2-1.55 1.68-3.49 3.48h22.71a40 40 0 01-4.48-4v2.24h-14.74zm-.22 8.3v2.75h14.49v-2.75zm4 7.65c.39.95.69 1.68 1.21 3.27l-1.55.43h5.8a30.92 30.92 0 001.29-3.7zm41.75-14.18h-3.14v2.24h4.3v5.46h-4.3v5.84A25.31 25.31 0 00421 138l4.9 1c.26 0 .65.13.65.56s-.65.6-1.25.64c-.17.65-.26.86-.86 2.67a50.78 50.78 0 008.56-3.06v-7.05h-3.1a43.29 43.29 0 013 5.51 40.22 40.22 0 00-4.64 3 35.42 35.42 0 00-3.1-5.85l4.39-2.71h-4.9v-5.07h13.55V126h-10.88v-4.6h10.88v-1.64h-12.94v-5.24h19.09v13.2H447v5.07h-5.11l4.77 2.32a.72.72 0 01.47.61c0 .43-.3.51-1.12.64a38.92 38.92 0 01-3.48 5.12 31.63 31.63 0 005.38 4.34 20.64 20.64 0 00-3.53 5.46 37.06 37.06 0 01-5.76-5.85v3.66c0 4.26-2.8 4.26-7.91 4.26a20 20 0 00-2.2-5.81c-.43.22-.56.26-1.16.52 0 .81-.13 1.55-.86 1.55a.69.69 0 01-.51-.48l-1.55-6.19a19.89 19.89 0 01-.9 2.19 17 17 0 00-4.05-1v2c3.14-.6 4.05-.82 4.86-1a17.52 17.52 0 00-.56 5.37c-5.46 1.21-9.89 1.94-14.06 2.54-.08.65-.21 1.21-.81 1.21-.39 0-.48-.35-.52-.65l-1-5.93c1.76-.09 4.77-.43 6.36-.6v-2a28.22 28.22 0 00-4.51 1.54A41.17 41.17 0 00407 140l4.86-1.55a47.85 47.85 0 011.84 5.24v-6.4h-5.6v-5.46h5.63v-2.24h-3.35V128a15.39 15.39 0 00-4.51-4.26 19.68 19.68 0 008.25-9.59l6.11 1.2c.47.09.64.22.64.48 0 .47-.47.73-1 .77a32.37 32.37 0 006.24 6 17.86 17.86 0 00-3.53 2.79zm-2.53-5a20.29 20.29 0 01-3.23-3.87c-1 1.33-1.68 2.23-3.05 3.87zM433 145.3c-1.08.61-2.67 1.47-4 2 .39 0 2.45.25 2.71.25 1.25 0 1.25-.86 1.25-1.37zm5.63-8.9c.08.13.21.39.3.56a24.42 24.42 0 002.28-4.17h-2.58zM50 179.01h500v45.77H50z" fill="#fff"/><path class="cls-1" d="M146.37 195.51h-7.2l-.63 3.34a5.75 5.75 0 013.36-.9c2.69 0 5.63 1.66 5.63 5.42 0 3.55-2.52 6.07-7 6.07-6 0-6.63-3.76-6.86-5.09h4c.4 1.94 2.56 1.94 3 1.94 1.91 0 3.1-1.12 3.1-2.75a2.75 2.75 0 00-2.91-2.82 3.22 3.22 0 00-2.46.86h-4.14l1.7-9.15h10.52zm14.63 8.21a10.4 10.4 0 01-4.14 6.93 9.45 9.45 0 00-2.62-2.2c3.84-2.56 3.8-6.55 3.8-8.65v-8h13.14v15.6c0 2.27-.54 3.17-4.72 3a9.54 9.54 0 00-1.05-3.44 12.4 12.4 0 001.72.23c.72 0 .76-.44.76-1.2v-2.27zm6.89-7.43v-1.49h-6.66v1.49zm0 4.41v-1.51h-6.66v1.51zm12.31 8.3v-10.78h-3.59v-2.75c2.12-.06 3.64-.42 4.41-3h3.09V209zm22.8-13.49h-7.2l-.63 3.34a5.73 5.73 0 013.36-.9c2.69 0 5.63 1.66 5.63 5.42 0 3.55-2.52 6.07-7 6.07-6 0-6.63-3.76-6.87-5.09h4c.4 1.94 2.56 1.94 3 1.94 1.91 0 3.11-1.12 3.11-2.75a2.75 2.75 0 00-2.92-2.82 3.2 3.2 0 00-2.45.86h-4.14l1.7-9.15H203zm13.68 13.04v1.16h-3.3v-17.13h15.06v17.13h-3.3v-1.16zm8.46-9.55v-3.51h-8.46V199zm0 6.55v-3.71h-8.46v3.71zm15.63 6.24a17.61 17.61 0 010-19.36h2.87a20.65 20.65 0 000 19.36zm16.17-8.07a10.4 10.4 0 01-4.14 6.93 9.45 9.45 0 00-2.62-2.2c3.84-2.56 3.8-6.55 3.8-8.65v-8h13.14v15.6c0 2.27-.55 3.17-4.72 3a9.75 9.75 0 00-1-3.44 12 12 0 001.72.23c.71 0 .75-.44.75-1.2v-2.27zm6.88-7.43v-1.49h-6.65v1.49zm0 4.41v-1.51h-6.65v1.51zm12.9 11.09a20.65 20.65 0 000-19.36h2.88a18.44 18.44 0 012.87 9.68c0 2.56-.84 6.91-2.87 9.68zm16.13-5.88V201a12.83 12.83 0 01-1.7 1.15 10.6 10.6 0 00-2.08-2.33 13.89 13.89 0 002.66-1.83 15.8 15.8 0 00-1.72-1.34l2-2.06a15.08 15.08 0 011.89 1.32 6.28 6.28 0 001.26-1.74h-3.89v-2.5h7.25l.94 1a16.62 16.62 0 01-2 3.57h4.3a13.73 13.73 0 01-2.48-4.14l2.67-1a12.74 12.74 0 00.9 1.74 10 10 0 001.28-1.6l2.21 1.39c.08 0 .23.15.23.25 0 .25-.36.27-.57.27a22.49 22.49 0 01-1.5 1.85c.23.27.4.44.57.61a27.17 27.17 0 001.91-2.27l1.95 1.32c.17.13.38.26.38.4s-.32.3-.63.32a17.13 17.13 0 01-1.81 1.89 14.89 14.89 0 003 1.95 10.12 10.12 0 00-1.93 2.5 22.49 22.49 0 01-1.94-1.42v5.61h-1.51a.3.3 0 01.23.29c0 .21-.21.34-.44.36a7.9 7.9 0 01-.44 1.15H309v2.55h-19.11v-2.55h5.35c-.08-.25-.4-1.07-.59-1.53l1-.27zm3.13-7.79c-.55.59-.76.82-1.71 1.7h11.09a19.48 19.48 0 01-2.18-2v1.09H296zm-.11 4v1.34H303v-1.34zm2 3.74c.19.46.34.82.59 1.59l-.75.21h2.83a17.35 17.35 0 00.63-1.8zm20.34-6.86h-1.53v1.09h2.1v2.67h-2.1v2.85a12.12 12.12 0 00.74-2.5l2.39.49c.13 0 .31.06.31.27s-.31.29-.6.31c-.09.32-.13.42-.42 1.31a25.89 25.89 0 004.17-1.49v-3.45h-1.49a19.84 19.84 0 011.47 2.69 20.12 20.12 0 00-2.26 1.49 17.37 17.37 0 00-1.52-2.85l2.15-1.33h-2.4V198h6.62v-.84h-5.32V195h5.32v-.8h-6.32v-2.56h9.32V198h1.28v2.48h-2.5l2.33 1.14a.34.34 0 01.23.29c0 .21-.15.25-.54.32a19.23 19.23 0 01-1.7 2.49 14.73 14.73 0 002.62 2.12 10.21 10.21 0 00-1.72 2.67 17.75 17.75 0 01-2.82-2.86v1.79c0 2.08-1.36 2.08-3.86 2.08a9.57 9.57 0 00-1.07-2.84c-.21.11-.27.13-.57.26 0 .39-.06.75-.42.75a.33.33 0 01-.25-.23l-.75-3c-.24.63-.3.75-.44 1.07a8 8 0 00-2-.48v1c1.53-.29 2-.4 2.37-.5a8.77 8.77 0 00-.27 2.62c-2.67.59-4.83 1-6.86 1.24-.05.32-.11.59-.4.59s-.23-.17-.25-.32l-.49-2.89c.86 0 2.33-.21 3.11-.3v-1a12.92 12.92 0 00-2.2.75 19.84 19.84 0 00-1.08-3.21l2.38-.76a23.54 23.54 0 01.9 2.56v-3.12h-2.75v-2.67h2.75V199h-1.64v-.8a7.71 7.71 0 00-2.2-2.08 9.68 9.68 0 004-4.68l3 .59c.23 0 .31.1.31.23s-.23.36-.48.38a16.07 16.07 0 003.05 2.91 8.61 8.61 0 00-1.73 1.37zm-1.21-2.5a9.84 9.84 0 01-1.58-1.89c-.48.65-.82 1.09-1.49 1.89zm6.29 10.12a20.39 20.39 0 01-1.93 1c.19 0 1.2.13 1.33.13.6 0 .6-.42.6-.68zm2.75-4.34a1.36 1.36 0 01.15.27 11.35 11.35 0 001.11-2H326zm18.96 3.25V210h-2.7v-4.51h-1.55a7.94 7.94 0 01-3.22 5 6 6 0 00-2.35-1.56v1.51h-3v-18.68H341v7.3h-5.8v9.85a5 5 0 002.9-3.38h-2.16v-2.33h2.43v-1.24h-1.93v-2.2h10.19V202H345v1.24h2.1v2.33zm-6.81-11.69h-3v.77h3zm0 2.37h-3v.8h3zm4.11 5.79H341v1.24h1.34zm4.49 8.57a7.23 7.23 0 00-1.11-3.07 6 6 0 001.22.17c.4 0 .84 0 .84-.73v-7.84h-5.84v-7.3h8.84v16.33c0 1.87-1.2 2.42-3.95 2.4zm.95-16.69h-3v.77h3zm0 2.37h-3v.8h3zm5.13 1.16v-2.74h1.82c.25-1.78.32-2.58.36-3.33l2.81.42c.34 0 .42.12.42.27s-.12.23-.52.29c-.13 1.2-.19 1.75-.3 2.35h3.13a30.34 30.34 0 01-1.24 9 19.34 19.34 0 012.12 3 19.44 19.44 0 00-2.43 1.7 9.29 9.29 0 00-1-1.72 15.12 15.12 0 01-2.9 3.91 7.24 7.24 0 00-2.6-1.47 17.27 17.27 0 003.61-4.75c-.1-.1-.59-.57-.86-.86-.19.42-.25.55-.33.71a7 7 0 00-2.57-1.07 25.79 25.79 0 001.81-5.64zm4.11 0c-.33 1.51-.4 1.74-.8 3.21l1 .86a18.15 18.15 0 00.53-4.07zm12.37-3.53a28.87 28.87 0 013.08 6.3 11.48 11.48 0 00-2.56 1.34c-.35-.94-.46-1.15-.59-1.49-1.63.17-1.95.19-7.64.57 0 .16-.06.56-.38.56s-.29-.19-.31-.37l-.34-3h1.79a35.92 35.92 0 001.64-6.45l3.17.59c.23 0 .35.08.35.25s-.08.28-.56.38c-.21.67-1.1 3.59-1.28 4.18-.15.44-.26.69-.34.92l2.69-.16c-.78-1.5-1-1.9-1.26-2.27zm-4.79 15.87v.74h-2.92v-8.82h9.55v8.82h-3v-.74zm3.63-2.73v-2.62h-3.63v2.6zm23.63-8.42l1.53 1.53a29.87 29.87 0 01-5 6.26 7.19 7.19 0 00-2.52-2 11.93 11.93 0 002.66-2.79h-3.39v6.4c0 2.35-1.47 2.62-4.85 2.56a7.19 7.19 0 00-1-3.09 8.62 8.62 0 001.7.17c.9 0 1-.29 1-1.24v-4.83h-8.06v-3h8.67a39.29 39.29 0 00-4.58-1.85l2-2.18h-4.11v-2.69h13.71l1.18 1.62a31.63 31.63 0 01-4.6 3.59 10.79 10.79 0 011.17.71c-.31.23-.56.4-1 .8zm-11.63-4c.37.15 2 .71 3.12 1.16a13.49 13.49 0 001.56-1.16zm25.93 6.94h5.52v2.75h-5.52v3.13h1.95a60 60 0 006.47-.36 7 7 0 00-.76 3.28h-8.21a7.19 7.19 0 01-6.19-2.94 16.44 16.44 0 01-2 3.32 6.25 6.25 0 00-3-1.3 14.61 14.61 0 003.57-8.7l3.24.57c.19 0 .42.09.42.34s-.13.25-.59.42c-.11.52-.21 1-.48 2a4.49 4.49 0 002.35 2.73v-7.26h-5.44V198h-2.62v-4.87h7.95v-2l3.22.21c.29 0 .56 0 .56.25s-.1.25-.56.46v1h8.06v4.79h-2.44v1.68h-5.52zm4.88-4.64v-1.22h-13.11v1.22zm23.64-1.72c-5.19-.09-9.68 4.58-9.68 8 0 2.43 3.08 3.63 5.94 3.69a29.7 29.7 0 00-1.58 3.82c-1.7-.46-7.72-2.14-7.72-7.16a9.56 9.56 0 013.86-7.22 58.25 58.25 0 00-8.69 1.32l-.48-3.94a67.08 67.08 0 009.34-.49 50.08 50.08 0 008.42-1.53zm-3.49 3a13.22 13.22 0 012 2.25c-.58.42-.88.65-1.61 1.26a17.28 17.28 0 00-1.87-2.38zm2.21-1.49a13.46 13.46 0 011.86 2.2c-.52.4-.88.72-1.53 1.31a15.87 15.87 0 00-1.87-2.38zm15.31-5.02c.33 0 .52.07.52.23s-.25.32-.42.36c0 .38-.06.63-.1 1.47 5.92-.25 6.57-.27 7-.31a32.15 32.15 0 000 3.38c-3.8-.19-5.4-.19-6.93-.17a17.91 17.91 0 000 2.33 6.87 6.87 0 011.22 4 9.9 9.9 0 01-4.87 8.1 14.4 14.4 0 00-3.07-2.16c.63-.25 3.11-1.3 3.86-3a2.33 2.33 0 01-1.65.5 2.81 2.81 0 01-2.27-.94 5.26 5.26 0 01-.91-3.11c0-4.62 3.95-4.47 4.39-4.41v-1.18a56.43 56.43 0 00-8.37 1.1l-.23-3.55c.48 0 1.28 0 8.52-.44a24.82 24.82 0 00-.29-2.67zm-4.85 10.5c0 1.39.69 1.76 1.07 1.76.65 0 1-1 1-2 0-.48-.11-1.3-.95-1.3s-1.12.68-1.12 1.54zm20.34 5.04a3 3 0 11-3-3 3 3 0 013 3zm-4.61 0a1.66 1.66 0 101.65-1.66 1.65 1.65 0 00-1.65 1.66z"/></g></g></svg>