<svg id="レイヤー_1" data-name="レイヤー 1" xmlns="http://www.w3.org/2000/svg" width="20.9" height="26" viewBox="0 0 20.9 26">
  <defs>
    <style>
      .cls-1 {
        fill: #00dbff;
      }
    </style>
  </defs>
  <title>nav_in</title>
  <path class="cls-1" d="M4.75,23H.26V9.51H4.75ZM2.5,7.67h0A2.34,2.34,0,0,1,2.23,3h.3A2.34,2.34,0,0,1,3,7.66H2.5ZM20.9,23H16.42V15.78c0-1.81-.65-3-2.27-3a2.46,2.46,0,0,0-2.3,1.64,2.88,2.88,0,0,0-.15,1.09V23H7.22s.06-12.21,0-13.48H11.7v1.91a4.46,4.46,0,0,1,4-2.22c2.95,0,5.16,1.92,5.16,6.07Z"/>
</svg>
