<svg xmlns="http://www.w3.org/2000/svg" width="31.33" height="31.33" viewBox="0 0 31.33 31.33">
  <defs>
    <style>
      .cls-1 {
        fill: #e60000;
      }

      .cls-2 {
        fill: #fff;
      }
    </style>
  </defs>
  <title>numberdticket_09</title>
  <g id="レイヤー_1" data-name="レイヤー 1">
    <circle class="cls-1" cx="15.67" cy="15.67" r="15.67" transform="translate(-6.45 17.03) rotate(-48.53)"/>
  </g>
  <g id="_2のコピー_7" data-name="2のコピー 7">
    <path class="cls-2" d="M10.54,21.51a7.44,7.44,0,0,0,2.87.57c2,0,5-.75,5.72-5.67a5.9,5.9,0,0,1-4.21,1.68,6.28,6.28,0,0,1-6.44-6.46,6.8,6.8,0,0,1,7-6.91c2,0,7.38.84,7.38,9.11,0,6.54-3.27,11.44-9.36,11.44a8.55,8.55,0,0,1-3-.49Zm5-6.47a3.57,3.57,0,1,0,.07-7.13A3.53,3.53,0,0,0,12,11.55,3.36,3.36,0,0,0,15.49,15Z"/>
  </g>
</svg>
