<svg id="レイヤー_1" data-name="レイヤー 1" xmlns="http://www.w3.org/2000/svg" xmlns:xlink="http://www.w3.org/1999/xlink" viewBox="0 0 413.32 26.6"><defs><style>.cls-1{fill:url(#名称未設定グラデーション);}.cls-2{fill:url(#名称未設定グラデーション_2);}.cls-3{fill:url(#名称未設定グラデーション_3);}.cls-4{fill:url(#名称未設定グラデーション_4);}.cls-5{fill:url(#名称未設定グラデーション_5);}.cls-6{fill:url(#名称未設定グラデーション_6);}.cls-7{fill:url(#名称未設定グラデーション_7);}.cls-8{fill:url(#名称未設定グラデーション_8);}.cls-9{fill:url(#名称未設定グラデーション_8-2);}.cls-10{fill:url(#名称未設定グラデーション_9);}.cls-11{fill:url(#名称未設定グラデーション_10);}.cls-12{fill:url(#名称未設定グラデーション_11);}.cls-13{fill:url(#名称未設定グラデーション_12);}.cls-14{fill:url(#名称未設定グラデーション_13);}.cls-15{fill:url(#名称未設定グラデーション_14);}</style><linearGradient id="名称未設定グラデーション" x1="90.21" y1="-37.25" x2="160.21" y2="-81.92" gradientTransform="matrix(1, 0, 0, -1, 0, 28)" gradientUnits="userSpaceOnUse"><stop offset="0" stop-color="#3bd1ff"/><stop offset="1" stop-color="#00ebbc"/></linearGradient><linearGradient id="名称未設定グラデーション_2" x1="97.57" y1="-25.7" x2="167.57" y2="-70.37" xlink:href="#名称未設定グラデーション"/><linearGradient id="名称未設定グラデーション_3" x1="106.87" y1="-11.13" x2="176.87" y2="-55.8" xlink:href="#名称未設定グラデーション"/><linearGradient id="名称未設定グラデーション_4" x1="116.06" y1="3.27" x2="186.06" y2="-41.4" xlink:href="#名称未設定グラデーション"/><linearGradient id="名称未設定グラデーション_5" x1="124.68" y1="16.78" x2="194.68" y2="-27.89" xlink:href="#名称未設定グラデーション"/><linearGradient id="名称未設定グラデーション_6" x1="133.45" y1="30.51" x2="203.45" y2="-14.16" xlink:href="#名称未設定グラデーション"/><linearGradient id="名称未設定グラデーション_7" x1="140.97" y1="42.3" x2="210.97" y2="-2.37" xlink:href="#名称未設定グラデーション"/><linearGradient id="名称未設定グラデーション_8" x1="143.09" y1="45.63" x2="213.09" y2="0.96" xlink:href="#名称未設定グラデーション"/><linearGradient id="名称未設定グラデーション_8-2" x1="345.84" y1="45.63" x2="415.84" y2="0.96" xlink:href="#名称未設定グラデーション"/><linearGradient id="名称未設定グラデーション_9" x1="157.34" y1="67.96" x2="227.34" y2="23.29" xlink:href="#名称未設定グラデーション"/><linearGradient id="名称未設定グラデーション_10" x1="164.71" y1="79.51" x2="234.71" y2="34.84" xlink:href="#名称未設定グラデーション"/><linearGradient id="名称未設定グラデーション_11" x1="174.01" y1="94.08" x2="244.01" y2="49.41" xlink:href="#名称未設定グラデーション"/><linearGradient id="名称未設定グラデーション_12" x1="183.11" y1="108.33" x2="253.11" y2="63.66" xlink:href="#名称未設定グラデーション"/><linearGradient id="名称未設定グラデーション_13" x1="190.15" y1="119.38" x2="260.15" y2="74.71" xlink:href="#名称未設定グラデーション"/><linearGradient id="名称未設定グラデーション_14" x1="199.14" y1="133.46" x2="269.14" y2="88.79" xlink:href="#名称未設定グラデーション"/></defs><title>leftHeader</title><path class="cls-1" d="M9.75,25.32a5,5,0,0,1-4.93-4.93V15.9H1.45A1.46,1.46,0,0,1,0,14.45,1.43,1.43,0,0,1,1.41,13H4.82V9.11H1.45a1.45,1.45,0,1,1,0-2.9H4.82V3.13a2.47,2.47,0,0,1,4.93,0V6.21h6.84a1.45,1.45,0,0,1,0,2.9H9.75V13h6.84A1.44,1.44,0,0,1,18,14.45a1.46,1.46,0,0,1-1.45,1.45H9.75v6.52h9a1.45,1.45,0,1,1,0,2.9h-9Z"/><path class="cls-2" d="M37.33,25.47a1.29,1.29,0,0,1,0-2.58h6.9V12.68H31.87a1.3,1.3,0,0,1-.23-2.59H44.23a4.19,4.19,0,0,1,4.35,4v7.26a4.18,4.18,0,0,1-4.29,4.09h-7Z"/><path class="cls-3" d="M64,25.38a4.93,4.93,0,0,1-4.93-4.93h0V14.13A4.93,4.93,0,0,1,64,9.2h2.53v-6a2.47,2.47,0,0,1,4.93,0V6.38a5,5,0,0,1-.9,2.82h5.63a1.45,1.45,0,0,1,1.45,1.45,1.49,1.49,0,0,1-1.45,1.45H64V22.48H77.46a1.45,1.45,0,1,1,0,2.9H64Z"/><path class="cls-4" d="M95.21,24.08a1.46,1.46,0,0,1,0-2.91h8.87V8H88.39a1.45,1.45,0,0,1,0-2.9h15.69A5,5,0,0,1,109,10v9.13a5,5,0,0,1-4.94,4.94Z"/><path class="cls-5" d="M117.25,16a1.45,1.45,0,0,1,0-2.9h1.45V7.34h-2.41a1.46,1.46,0,0,1-1.45-1.45,1.43,1.43,0,0,1,1.43-1.45h2.43V3.19a2.47,2.47,0,0,1,4.93,0V4.44h2.81a1.45,1.45,0,1,1,0,2.9h-2.81V11a4.94,4.94,0,0,1-4.88,5h-1.5Zm16.33,2.44V20.5a4.93,4.93,0,0,1-4.93,4.93H126A4.44,4.44,0,0,1,121.65,21V20a4.46,4.46,0,0,1,4.35-4.5h2.61V11.28a2.47,2.47,0,0,1,4.93,0v4.21h2.06a1.49,1.49,0,0,1,1.45,1.45,1.46,1.46,0,0,1-1.45,1.45Zm-4.93,0H126v4.09h2.61Zm6.47-11h-2.35A1.45,1.45,0,0,1,131.32,6a1.43,1.43,0,0,1,1.41-1.45h2.39a4.35,4.35,0,0,1,4.35,4.35h0a2.18,2.18,0,1,1-4.34.41,1.09,1.09,0,0,1,0-.18Z"/><path class="cls-6" d="M151.15,25.38a1.45,1.45,0,0,1,0-2.9h3.16V9.05h-2.38v5.86A5,5,0,0,1,147,19.84h-1.74a1.46,1.46,0,0,1-1.45-1.45,1.49,1.49,0,0,1,1.45-1.45H147V9.05h-1.71a1.49,1.49,0,0,1-1.45-1.45,1.46,1.46,0,0,1,1.45-1.45H147v-3a2.47,2.47,0,0,1,4.93,0v3h2.38a5,5,0,0,1,4.93,4.93v9.37a5,5,0,0,1-4.93,4.93ZM162.4,9h-.87a1.49,1.49,0,0,1-1.45-1.45,1.46,1.46,0,0,1,1.45-1.45h.87A4.93,4.93,0,0,1,167.34,11h0v5.66a2.47,2.47,0,0,1-4.94,0Zm2-3.31a1.45,1.45,0,0,1,0-2.9h0a1.45,1.45,0,0,1,0,2.9Zm3.36,0a1.45,1.45,0,1,1,1.45-1.45h0a1.47,1.47,0,0,1-1.47,1.47Z"/><path class="cls-7" d="M179.89,25.38a3.76,3.76,0,0,1-3.77-3.75v-.72a3.77,3.77,0,0,1,3.77-3.77h3a3.77,3.77,0,0,1,3.77,3.77h0v.7a4.24,4.24,0,0,1-.12.87H189V15H178a1.46,1.46,0,0,1-1.45-1.45A1.43,1.43,0,0,1,178,12.1h2.34l5.13-6.27h-7.6a1.49,1.49,0,0,1-1.45-1.45,1.46,1.46,0,0,1,1.45-1.45h10l.23-.29a2.44,2.44,0,0,1,1.8-.84,2.34,2.34,0,0,1,2.35,2.33v0a2.4,2.4,0,0,1-.52,1.48l-5.28,6.47H189a4.92,4.92,0,0,1,4.88,4.9v3.42A4.92,4.92,0,0,1,189,25.35h0Zm3-5.34h-3v2.44h3Z"/><path class="cls-8" d="M205.58,26.6a4.35,4.35,0,1,1,4.35-4.35,4.35,4.35,0,0,1-4.35,4.35Zm0-5.8A1.45,1.45,0,1,0,207,22.28v0A1.48,1.48,0,0,0,205.58,20.8Z"/><path class="cls-9" d="M408.33,26.6a4.35,4.35,0,1,1,4.35-4.35,4.35,4.35,0,0,1-4.35,4.35Zm0-5.8a1.45,1.45,0,1,0,1.42,1.48v0A1.48,1.48,0,0,0,408.33,20.8Z"/><path class="cls-10" d="M241.75,25.32a5,5,0,0,1-4.93-4.93V15.9h-3.37A1.46,1.46,0,0,1,232,14.45,1.43,1.43,0,0,1,233.41,13h3.41V9.11h-3.37a1.45,1.45,0,1,1,0-2.9h3.37V3.13a2.47,2.47,0,0,1,4.93,0V6.21h6.84a1.45,1.45,0,0,1,0,2.9h-6.84V13h6.84A1.44,1.44,0,0,1,250,14.45a1.46,1.46,0,0,1-1.45,1.45h-6.84v6.52h9a1.45,1.45,0,0,1,0,2.9Z"/><path class="cls-11" d="M269.33,25.47a1.29,1.29,0,1,1,0-2.58h6.9V12.68H263.87a1.3,1.3,0,0,1-.23-2.59h12.59a4.19,4.19,0,0,1,4.35,4v7.26a4.18,4.18,0,0,1-4.29,4.09h-7Z"/><path class="cls-12" d="M296,25.38a4.93,4.93,0,0,1-4.93-4.93V14.13A4.93,4.93,0,0,1,296,9.2h2.53v-6a2.47,2.47,0,0,1,4.93,0V6.38a5,5,0,0,1-.9,2.82h5.63a1.45,1.45,0,0,1,1.45,1.45h0a1.49,1.49,0,0,1-1.45,1.45H296V22.48h13.46a1.45,1.45,0,0,1,0,2.9Z"/><path class="cls-13" d="M332.31,18.74v5.19a2.18,2.18,0,0,1-4.35.3,1.5,1.5,0,0,1,0-.3V18.74h-8.84a1.45,1.45,0,1,1,0-2.9H328a2.14,2.14,0,0,1,.5-1.37h-2.35a2,2,0,0,1-2-2V10.91a4,4,0,0,1-3.25,1.77,3.77,3.77,0,0,1-2.38-.87c-.58-.47-1.1-.79-1.1-1.57a1.45,1.45,0,0,1,1.45-1.45h0c.64,0,1,.41,1.48.78L321.8,7.8a1.93,1.93,0,0,1,1.45-.69,1.91,1.91,0,0,1,.9.23V3.6a2,2,0,0,1,4-.38h.17V1.89a1.89,1.89,0,1,1,3.77-.27,1.22,1.22,0,0,1,0,.27v1.3h.09a2.07,2.07,0,0,1,2-1.62,2,2,0,0,1,2,2h0V7.51a2,2,0,0,1,1.16-.4,2,2,0,0,1,1.48.69l1.45,1.77c.47-.37.82-.78,1.48-.78a1.45,1.45,0,0,1,1.45,1.45h0c0,.78-.52,1.1-1.1,1.57a3.83,3.83,0,0,1-2.38.87c-1.74,0-2.55-.9-3.54-2.09a4,4,0,0,1-.29,1.33,1.37,1.37,0,0,1,.93,1.25,1.3,1.3,0,0,1-1.3,1.3h-3.69a2.1,2.1,0,0,1,.52,1.37h8.85a1.43,1.43,0,0,1,1.45,1.43v0a1.46,1.46,0,0,1-1.45,1.45Zm-13.95,4.32a1.45,1.45,0,0,1,0-2.06,1.47,1.47,0,0,1,1-.41,1.36,1.36,0,0,1,1,.44l1,1,2-2a1.87,1.87,0,0,1,1.39-.58,2,2,0,0,1,1.36,3.37c-1.24,1.24-2.08,2.35-4,2.35a3.89,3.89,0,0,1-2.75-1.14Zm2.47-16.42A2.18,2.18,0,1,1,323,4.45v0a2.17,2.17,0,0,1-2.17,2.17Zm11.25-1h-3.94V7.45h3.94Zm0,4.41h-3.94v1.79h3.94Zm8.82,14a4,4,0,0,1-2.78,1.14c-1.89,0-2.76-1.11-4-2.35a2.1,2.1,0,0,1-.58-1.4,2,2,0,0,1,3.4-1.42L338.88,22l1-1a1.45,1.45,0,1,1,2.34,1.71,1.28,1.28,0,0,1-.28.29ZM339.42,6.64a2.18,2.18,0,1,1,2.18-2.18h0A2.18,2.18,0,0,1,339.42,6.64Z"/><path class="cls-14" d="M355.51,25.38a4.93,4.93,0,0,1-4.93-4.93V3.19a2.47,2.47,0,0,1,4.93,0V22.48h10.74a1.45,1.45,0,0,1,0,2.9Z"/><path class="cls-15" d="M381.79,25.38a4.93,4.93,0,0,1-4.94-4.92h0V4.79a2.47,2.47,0,0,1,4.94,0V22.48h1.45a1.45,1.45,0,0,1,0,2.9ZM394.64,7.92h-1.45a1.45,1.45,0,0,1-1.45-1.45h0A1.47,1.47,0,0,1,393.19,5h1.45a4.93,4.93,0,0,1,4.93,4.93v9.76a2.47,2.47,0,0,1-4.93,0Z"/></svg>