<svg id="レイヤー_1" data-name="レイヤー 1" xmlns="http://www.w3.org/2000/svg" width="16.41" height="19.55" viewBox="0 0 16.41 19.55">
  <title>icon_link_ank_b.svg</title>
  <g>
    <path d="M10.66,14.38a.11.11,0,0,1-.1-.1V7.55a.09.09,0,0,0-.1-.1H5.94a.1.1,0,0,0-.1.1v6.73a.1.1,0,0,1-.1.1H3s-.07,0,0,.07l5.14,5.07a.1.1,0,0,0,.14,0l5.14-5.07s0-.07,0-.07Z"/>
    <path d="M10.66,14.38a.11.11,0,0,1-.1-.1V7.55a.09.09,0,0,0-.1-.1H5.94a.1.1,0,0,0-.1.1v6.73a.1.1,0,0,1-.1.1H3s-.07,0,0,.07l5.14,5.07a.1.1,0,0,0,.14,0l5.14-5.07s0-.07,0-.07Z"/>
  </g>
  <path d="M15.4,0H1A1,1,0,0,0,0,1V12.14a1,1,0,0,0,1,1H2.79a1,1,0,0,0,0-2H2V2H14.4v9.14h-.79a1,1,0,0,0,0,2H15.4a1,1,0,0,0,1-1V1A1,1,0,0,0,15.4,0Z"/>
</svg>
