<svg xmlns="http://www.w3.org/2000/svg" width="188.742" height="60" viewBox="0 0 188.742 60"><g><path d="m14.244 18.82 4.821-4.055c.147-.122.212-.316.167-.503-.045-.186-.191-.331-.377-.374l-5.095-1.165c-.155-.034-.316.004-.436.105-.063.052-.113.122-.142.196-.028.067-.041.141-.038.217l.273 5.219c.01.191.127.36.302.437.175.077.38.046.526-.077M19.165 45.177l-4.506-4.4c-.138-.133-.338-.176-.517-.116-.181.063-.312.223-.336.411l-.658 5.186c-.019.157.035.313.148.424.057.057.13.1.207.122.071.022.146.027.219.016l5.168-.784c.19-.028.346-.162.403-.343.061-.183.011-.382-.128-.516M45.607 18.82l-4.822-4.055c-.146-.122-.211-.316-.166-.503.046-.186.191-.331.379-.374l5.095-1.165c.153-.034.315.004.437.105.062.052.11.122.14.196.029.067.041.141.038.217l-.274 5.219c-.008.191-.124.36-.301.437-.175.077-.379.046-.526-.077M40.685 45.177l4.508-4.4c.138-.133.338-.176.517-.116.181.063.309.223.333.411l.66 5.186c.021.157-.034.313-.147.424-.058.057-.129.1-.208.122-.071.022-.144.027-.219.016l-5.169-.784c-.187-.028-.344-.162-.404-.343-.058-.183-.007-.382.129-.516M37.429 15.062l-6.9-9.091c-.364-.477-.859-.482-1.232-.01l-7.051 8.971c-.285.359-.452.942-.452 1.559s.169 1.195.453 1.542l6.905 8.459c.175.214.379.323.583.324.205.002.409-.101.59-.314l7.046-8.34c.291-.343.467-.914.482-1.532.01-.618-.15-1.205-.425-1.569M37.429 40.9l-6.9-9.091c-.364-.477-.859-.482-1.232-.011l-7.051 8.97c-.285.36-.452.943-.452 1.562s.169 1.194.453 1.54l6.905 8.46c.175.215.379.323.583.324.205.004.409-.102.59-.314l7.046-8.337c.291-.343.467-.916.482-1.534.01-.618-.15-1.205-.425-1.569M43.683 36.793l9.091-6.899c.478-.364.482-.858.01-1.232l-8.97-7.052c-.359-.284-.942-.45-1.559-.45s-1.196.169-1.543.452l-8.458 6.905c-.215.175-.323.38-.325.583-.001.206.102.41.316.592l8.337 7.046c.342.29.914.467 1.534.48.619.012 1.206-.146 1.568-.424M17.845 36.793l9.091-6.899c.477-.364.482-.858.009-1.232l-8.969-7.052c-.359-.284-.942-.45-1.56-.45s-1.194.169-1.541.452l-8.458 6.905c-.217.175-.324.38-.325.583-.004.206.104.41.314.592l8.338 7.046c.343.29.915.467 1.532.48.619.012 1.206-.146 1.569-.424" fill="#f6b400"/><path d="m26.927 56.659-4.585-7.28c-.24-.382-.7-.57-1.142-.46l-8.352 2.053c-.335.082-.607.322-.731.643-.123.324-.082.686.111.97l4.715 6.953c.12.178.288.308.478.385.19.077.402.099.61.055l8.221-1.728c.337-.068.618-.299.753-.618.134-.316.106-.682-.078-.972M33.47 58.068l8.389 1.905c.442.101.898-.094 1.134-.48l4.456-7.361c.178-.292.2-.656.06-.971-.141-.316-.426-.54-.764-.607l-8.249-1.582c-.211-.041-.421-.013-.611.067-.187.079-.353.213-.467.394l-4.593 7.032c-.19.287-.224.651-.095.971.129.319.406.555.741.632M47.439 7.772 42.854.493c-.241-.385-.701-.571-1.143-.463l-8.352 2.053c-.334.083-.607.325-.731.645-.124.323-.08.684.111.97l4.716 6.952c.121.176.286.307.477.385.19.077.403.099.611.055l8.22-1.727c.338-.071.618-.304.755-.62.134-.316.105-.68-.079-.971M12.866 9.327l8.388 1.906c.442.101.898-.095 1.134-.483l4.455-7.357c.179-.296.201-.66.061-.972-.138-.315-.425-.542-.766-.606L17.892.23c-.212-.04-.424-.015-.612.066-.189.079-.353.217-.467.394l-4.593 7.032c-.189.29-.225.652-.095.971.13.32.407.557.742.633M56.512 32.085l-7.277 4.582c-.385.243-.57.702-.461 1.143l2.053 8.354c.082.334.323.606.644.73.323.124.684.082.969-.112l6.953-4.715c.176-.119.31-.287.385-.478.078-.187.101-.4.055-.611l-1.727-8.22c-.069-.336-.301-.617-.619-.752-.319-.133-.68-.106-.974.079M57.858 25.541l1.906-8.388c.099-.443-.094-.899-.481-1.133l-7.36-4.456c-.294-.179-.658-.201-.971-.061-.316.141-.544.426-.606.763l-1.585 8.251c-.039.211-.013.421.066.61.082.187.214.353.393.47l7.035 4.593c.288.187.652.223.969.093.321-.128.557-.407.635-.741M7.77 11.575.492 16.157c-.385.242-.57.703-.461 1.143l2.053 8.353c.083.335.324.607.645.73.321.125.683.084.968-.111l6.953-4.715c.178-.12.308-.287.386-.476.075-.191.097-.404.054-.612l-1.727-8.22c-.071-.337-.302-.618-.62-.755-.316-.133-.68-.103-.972.08M9.322 46.144l1.91-8.388c.1-.439-.096-.898-.483-1.134l-7.357-4.452c-.295-.18-.661-.202-.974-.061-.315.139-.543.422-.609.761L.228 41.121c-.039.209-.013.421.064.609.082.191.214.355.396.471l7.034 4.592c.287.19.65.224.971.096.318-.13.555-.408.629-.745M105.235 7.142 98.904 28.976 98.079 28.976 91.658 7.906 91.598 7.906 85.298 28.976 84.472 28.976 78.051 7.142 78.66 7.142 84.841 28.213 84.902 28.213 91.2 7.142 92.086 7.142 98.477 28.213 98.538 28.213 104.625 7.142 105.235 7.142zM106.566 13.656c.437-1.386 1.081-2.599 1.927-3.639.846-1.039 1.897-1.866 3.149-2.477 1.254-.612 2.697-.916 4.327-.916s3.076.304 4.327.916c1.254.611 2.306 1.437 3.15 2.477.846 1.041 1.49 2.253 1.928 3.639.439 1.386.658 2.855.658 4.402s-.219 3.018-.658 4.405c-.438 1.387-1.082 2.6-1.928 3.639-.844 1.041-1.896 1.861-3.15 2.462-1.251.6-2.695.901-4.327.901s-3.073-.301-4.327-.901c-1.251-.601-2.303-1.422-3.149-2.462-.846-1.039-1.49-2.252-1.927-3.639-.439-1.386-.657-2.853-.657-4.405s.218-3.016.657-4.402m.641 8.746c.439 1.324 1.06 2.467 1.866 3.425.807.958 1.789 1.709 2.951 2.248 1.162.54 2.477.812 3.943.812s2.782-.271 3.947-.812c1.162-.539 2.145-1.29 2.95-2.248.804-.958 1.425-2.101 1.867-3.425.437-1.325.666-2.773.684-4.344-.018-1.568-.247-3.016-.684-4.341-.442-1.324-1.063-2.467-1.867-3.425-.806-.958-1.788-1.706-2.95-2.248-1.165-.539-2.478-.811-3.947-.811s-2.781.271-3.943.811c-1.162.542-2.145 1.29-2.951 2.248-.806.958-1.426 2.101-1.866 3.425-.438 1.325-.667 2.774-.688 4.341.021 1.571.25 3.018.688 4.344M149.791 7.142 149.791 28.976 149.18 28.976 149.18 7.906 149.118 7.906 139.851 28.976 139.18 28.976 129.915 7.906 129.852 7.906 129.852 28.976 129.241 28.976 129.241 7.142 130.25 7.142 139.485 28.182 139.547 28.182 148.784 7.142 149.791 7.142zM152.391 28.976h-.673l8.837-21.834h.796l8.623 21.834h-.674l-2.874-7.186h-11.133l-2.903 7.186Zm8.593-21.221h-.062l-5.382 13.423h10.644l-5.199-13.423ZM172.818 7.142 187.742 28.213 187.803 28.213 187.803 7.142 188.414 7.142 188.414 28.976 187.497 28.976 172.574 7.906 172.514 7.906 172.514 28.976 171.9 28.976 171.9 7.142 172.818 7.142zM91.224 39.776 81.428 39.776 81.428 43.707 90.42 43.707 90.42 46.922 81.428 46.922 81.428 51.681 91.677 51.681 91.677 55.008 77.648 55.008 77.648 36.497 91.224 36.497 91.224 39.776zM99.189 55.008 94.694 55.008 100.647 45.577 94.983 36.497 99.603 36.497 102.906 42.526 106.3 36.497 110.767 36.497 105.104 45.427 111.12 55.008 106.424 55.008 102.906 48.698 99.189 55.008zM126.331 46.996c-1.084.904-2.634 1.356-4.644 1.356h-3.853v6.656h-3.842v-18.511h7.948c1.832 0 3.293.478 4.383 1.433 1.088.955 1.633 2.432 1.633 4.433 0 2.185-.54 3.729-1.624 4.634m-2.955-6.669c-.488-.41-1.173-.616-2.057-.616h-3.486v5.451h3.486c.884 0 1.569-.223 2.057-.665.493-.445.735-1.15.735-2.113s-.242-1.648-.735-2.058M145.31 53.363c-1.397 1.441-3.42 2.162-6.065 2.162s-4.669-.72-6.066-2.162c-1.877-1.766-2.813-4.31-2.813-7.635 0-3.391.936-5.937 2.813-7.635 1.397-1.441 3.419-2.16 6.066-2.16s4.668.719 6.065 2.16c1.867 1.698 2.802 4.244 2.802 7.635 0 3.325-.935 5.869-2.802 7.635m-2.418-2.811c.901-1.131 1.35-2.739 1.35-4.823s-.449-3.682-1.35-4.816c-.898-1.134-2.114-1.703-3.646-1.703s-2.757.567-3.668 1.697c-.912 1.131-1.369 2.738-1.369 4.822s.458 3.693 1.369 4.823c.912 1.129 2.137 1.694 3.668 1.694s2.748-.565 3.646-1.694M153.719 51.124c.01-.519.1-.981.271-1.381.17-.4.395-.76.675-1.08.281-.321.595-.613.946-.879.351-.265.711-.52 1.081-.765.37-.245.738-.496 1.103-.751.365-.255.692-.528.983-.817.29-.291.507-.588.653-.894.146-.304.218-.667.218-1.088 0-.34-.063-.643-.187-.908-.125-.265-.295-.49-.51-.676-.215-.185-.465-.325-.75-.42-.286-.095-.588-.143-.909-.143-.43 0-.797.08-1.102.24-.305.16-.554.375-.744.646-.19.269-.328.58-.413.93-.085.351-.123.72-.112 1.11h-.946c-.01-.539.053-1.037.188-1.492.136-.456.342-.848.623-1.178.28-.33.632-.588 1.058-.774.426-.185.923-.278 1.493-.278.46 0 .887.063 1.284.188.395.125.74.31 1.035.555.296.246.526.553.691.923.165.37.247.801.247 1.29 0 .44-.074.842-.217 1.201-.146.361-.341.691-.586.992-.246.299-.526.577-.84.833-.315.255-.648.493-.998.713-.251.17-.546.358-.886.562-.34.206-.668.434-.983.683-.315.25-.593.523-.833.818-.241.296-.39.617-.451.968h5.839v.87h-6.919ZM168.466 41.031c.475.335.845.764 1.111 1.283.265.521.445 1.101.54 1.742.095.64.142 1.266.142 1.876 0 .62-.047 1.251-.142 1.892-.095.64-.275 1.22-.54 1.741-.266.521-.635.945-1.111 1.276-.476.33-1.098.495-1.868.495-.761 0-1.382-.165-1.862-.495-.48-.331-.853-.755-1.118-1.276-.265-.52-.445-1.101-.54-1.741-.096-.64-.142-1.266-.142-1.877 0-.62.047-1.251.142-1.891.095-.641.275-1.22.54-1.742.265-.519.638-.947 1.118-1.283.48-.335 1.101-.503 1.862-.503.77 0 1.392.168 1.868.503Zm-3.311.758c-.359.31-.632.696-.817 1.155-.185.461-.308.962-.368 1.501-.06.541-.091 1.036-.091 1.486 0 .46.031.958.091 1.494.06.535.183 1.035.368 1.5.185.465.458.853.817 1.164.362.31.841.465 1.443.465s1.079-.155 1.441-.465c.36-.311.631-.699.818-1.164.184-.465.307-.965.366-1.5.06-.536.091-1.034.091-1.494 0-.45-.031-.946-.091-1.486-.06-.539-.182-1.04-.366-1.501-.187-.46-.458-.845-.818-1.155-.361-.31-.841-.465-1.441-.465s-1.081.155-1.443.465ZM172.211 51.124c.009-.519.099-.981.269-1.381.17-.4.396-.76.676-1.08.28-.321.594-.613.946-.879.349-.265.71-.52 1.08-.765.37-.245.739-.496 1.103-.751.366-.255.692-.528.984-.817.288-.291.507-.588.652-.894.145-.304.217-.667.217-1.088 0-.34-.063-.643-.188-.908-.125-.265-.294-.49-.51-.676-.216-.185-.466-.325-.751-.42-.285-.095-.588-.143-.908-.143-.43 0-.798.08-1.104.24-.305.16-.553.375-.742.646-.19.269-.329.58-.413.93-.086.351-.123.72-.113 1.11h-.944c-.011-.539.052-1.037.187-1.492.135-.456.342-.848.624-1.178.279-.33.632-.588 1.057-.774.425-.185.923-.278 1.493-.278.461 0 .888.063 1.284.188.395.125.74.31 1.036.555.294.246.526.553.691.923.163.37.246.801.246 1.29 0 .44-.072.842-.216 1.201-.146.361-.34.691-.585.992-.246.299-.526.577-.841.833-.315.255-.648.493-.998.713-.251.17-.546.358-.886.562-.339.206-.667.434-.983.683-.315.25-.593.523-.833.818-.24.296-.391.617-.45.968h5.838v.87h-6.918ZM184.364 45.212c.452 0 .863-.028 1.234-.083s.689-.16.955-.316c.266-.155.474-.364.624-.624s.226-.597.226-1.008c0-.331-.061-.614-.181-.85-.12-.236-.283-.429-.488-.579-.206-.151-.447-.261-.722-.331-.275-.07-.564-.105-.865-.105-.34 0-.649.055-.925.165-.276.111-.514.269-.715.474-.2.206-.356.446-.466.722-.111.276-.166.579-.166.91h-.963c0-.481.083-.915.249-1.301.165-.386.423-.744.775-1.075.331-.301.704-.494 1.12-.579.416-.085.846-.128 1.287-.128.421 0 .815.053 1.181.158.366.105.684.266.955.481.271.216.486.489.646.82.16.331.241.717.241 1.158 0 .551-.122 1.028-.368 1.429-.246.401-.624.712-1.136.933.381.12.694.278.94.474.246.195.438.411.579.646.141.236.236.484.286.745.05.261.075.512.075.752 0 .441-.075.853-.225 1.233-.151.381-.371.717-.662 1.008-.29.291-.649.524-1.075.699-.427.176-.911.269-1.452.278-.612 0-1.144-.055-1.595-.165-.451-.11-.827-.294-1.128-.549-.301-.256-.537-.592-.707-1.008-.171-.416-.286-.935-.346-1.557h.962c0 .813.244 1.427.73 1.843.487.416 1.121.624 1.903.624.382 0 .737-.065 1.069-.196.331-.13.614-.305.85-.526.235-.22.416-.476.541-.767.126-.291.184-.592.174-.903-.021-.431-.121-.79-.301-1.075-.18-.286-.424-.511-.73-.677-.306-.165-.665-.275-1.076-.331-.411-.055-.847-.068-1.309-.038v-.782Z" fill="#ef5a49"/></g></svg>