<svg id="a" xmlns="http://www.w3.org/2000/svg" width="170" height="67.96" viewBox="0 0 170 67.96"><defs><style>.c{fill:#d52e62}</style></defs><path d="m14.45 22.83 4.89-4.11c.15-.12.21-.32.17-.51-.05-.19-.19-.34-.38-.38l-5.17-1.18c-.16-.03-.32 0-.44.11-.06.05-.11.12-.14.2-.03.07-.04.14-.04.22l.28 5.29c0 .19.13.37.31.44.18.08.39.05.53-.08M19.44 49.56l-4.57-4.46c-.14-.13-.34-.18-.52-.12-.18.06-.32.23-.34.42l-.67 5.26c-.02.16.04.32.15.43.06.06.13.1.21.12.07.02.15.03.22.02l5.24-.79c.19-.03.35-.16.41-.35.06-.19.01-.39-.13-.52M46.25 22.83l-4.89-4.11c-.15-.12-.21-.32-.17-.51.05-.19.19-.34.38-.38l5.17-1.18c.16-.03.32 0 .44.11.06.05.11.12.14.2.03.07.04.14.04.22l-.28 5.29c0 .19-.13.37-.3.44-.18.08-.38.05-.53-.08M41.26 49.56l4.57-4.46c.14-.13.34-.18.52-.12.18.06.31.23.34.42l.67 5.26c.02.16-.04.32-.15.43-.06.06-.13.1-.21.12-.07.02-.15.03-.22.02l-5.24-.79c-.19-.03-.35-.16-.41-.35-.06-.19 0-.39.13-.52M37.96 19.02l-7-9.22c-.37-.48-.87-.49-1.25 0l-7.15 9.1c-.29.36-.46.96-.46 1.58s.17 1.21.46 1.56l7 8.58c.18.22.38.33.59.33.21 0 .41-.1.6-.32l7.15-8.46c.3-.35.47-.93.49-1.55 0-.63-.15-1.22-.43-1.59M37.96 45.22l-7-9.22c-.37-.48-.87-.49-1.25-.01l-7.15 9.1c-.29.37-.46.96-.46 1.58s.17 1.21.46 1.56l7 8.58c.18.22.38.33.59.33.21 0 .41-.1.6-.32l7.15-8.46c.3-.35.47-.93.49-1.56 0-.63-.15-1.22-.43-1.59M44.3 41.06l9.22-7c.49-.37.49-.87 0-1.25l-9.1-7.15c-.36-.29-.95-.46-1.58-.46s-1.21.17-1.57.46l-8.58 7c-.22.18-.33.39-.33.59 0 .21.1.42.32.6l8.46 7.15c.35.29.93.47 1.56.49.63.01 1.22-.15 1.59-.43M18.1 41.06l9.22-7c.48-.37.49-.87 0-1.25l-9.1-7.15c-.36-.29-.96-.46-1.58-.46s-1.21.17-1.56.46l-8.58 7c-.22.18-.33.39-.33.59 0 .21.1.42.32.6l8.46 7.15c.35.29.93.47 1.55.49.63.01 1.22-.15 1.59-.43" fill="#ee94ac"/><path class="c" d="m27.31 61.2-4.65-7.38c-.24-.39-.71-.58-1.16-.47l-8.47 2.08c-.34.08-.62.33-.74.65-.12.33-.08.7.11.98l4.78 7.05c.12.18.29.31.49.39.19.08.41.1.62.06l8.34-1.75c.34-.07.63-.3.76-.63.14-.32.11-.69-.08-.99M33.94 62.63l8.51 1.93c.45.1.91-.09 1.15-.49l4.52-7.47c.18-.3.2-.67.06-.99-.14-.32-.43-.55-.78-.62l-8.37-1.6c-.21-.04-.43-.01-.62.07-.19.08-.36.22-.47.4l-4.66 7.13c-.19.29-.23.66-.1.99.13.32.41.56.75.64M48.11 11.63l-4.65-7.38c-.24-.39-.71-.58-1.16-.47l-8.47 2.08c-.34.08-.62.33-.74.65-.13.33-.08.69.11.98l4.78 7.05c.12.18.29.31.48.39.19.08.41.1.62.06l8.34-1.75c.34-.07.63-.31.77-.63.14-.32.11-.69-.08-.99M13.05 13.2l8.51 1.93c.45.1.91-.1 1.15-.49l4.52-7.46c.18-.3.2-.67.06-.99-.14-.32-.43-.55-.78-.61l-8.36-1.61c-.21-.04-.43-.01-.62.07-.19.08-.36.22-.47.4l-4.66 7.13c-.19.29-.23.66-.1.99.13.32.41.57.75.64M57.31 36.28l-7.38 4.65c-.39.25-.58.71-.47 1.16l2.08 8.47c.08.34.33.61.65.74.33.13.69.08.98-.11l7.05-4.78c.18-.12.31-.29.39-.49.08-.19.1-.41.06-.62l-1.75-8.34c-.07-.34-.31-.63-.63-.76-.32-.13-.69-.11-.99.08M58.68 29.65l1.93-8.51c.1-.45-.1-.91-.49-1.15l-7.46-4.52c-.3-.18-.67-.2-.99-.06-.32.14-.55.43-.62.77l-1.61 8.37c-.04.21-.01.43.07.62.08.19.22.36.4.48l7.13 4.66c.29.19.66.23.98.09.33-.13.57-.41.64-.75M7.88 15.48.5 20.13c-.39.25-.58.71-.47 1.16l2.08 8.47c.08.34.33.62.65.74.33.13.69.09.98-.11l7.05-4.78c.18-.12.31-.29.39-.48.08-.19.1-.41.05-.62l-1.75-8.34c-.07-.34-.31-.63-.63-.77-.32-.13-.69-.1-.99.08M9.45 50.54l1.94-8.51c.1-.45-.1-.91-.49-1.15l-7.46-4.52c-.3-.18-.67-.2-.99-.06-.32.14-.55.43-.62.77L.23 45.45c-.04.21-.01.43.07.62.08.19.22.36.4.48l7.13 4.66c.29.19.66.23.98.1.32-.13.56-.41.64-.76M111.99 56.04c-.13.06-.26.14-.38.21.33.19.56.48.68.87.51 1.58-.87 4.41-2.02 6.11.1.15.21.29.33.41 0 0 .01.01.02.02 3.95-4.4 3.24-6.51 3.14-6.74-.25-.67-.64-1-1.19-1-.32 0-.58.12-.58.12ZM103.84 62.96c.78-2.97 1-3.72 1.64-5.95.26-.91.6-2.07 1.07-3.72.36-1.21.45-2.25.29-3.11-.22-.86-.89-1.3-2.01-1.3-.13 0-.25 0-.37.02-.02 0-.03 0-.05 0-.11.01-.21.02-.3.04-.02 0-.03 0-.05 0-.09.01-.16.03-.22.04 0 0-.02 0-.03 0-.06.01-.1.02-.13.03.16 1.19-.07 2.43-.21 3.2l-.04.22c-.04.13-2.57 8.77-2.9 10.07-.03.12-.07.25-.1.39-.31 1.14-.83 3.04 0 4.14.62.82 1.99 1.09 4.01.8.01 0 .03 0 .04 0-.03-.02-.06-.04-.08-.06-.7-.5-1.36-1.75-.54-4.83Z"/><path class="c" d="M103.08 48.39h0l.11-.04c.07-.03.15-.06.22-.08.04-.01.66-.19 1.42-.19.18 0 .36.01.53.03.06 0 .11.02.16.03.11.02.21.03.32.06.06.02.11.04.17.06.09.03.17.06.25.09.06.02.11.06.16.08.06.03.12.06.18.09-.18-.45-.41-.85-.71-1.17-.9-.99-2.31-1.3-4.09-.89-.29.07-.59.15-.88.24 0 0 0 0 0 0-10.44 2.98-18.56 13.26-21.01 16.66l4.78-1.89s.1-.03.15-.03c.06 0 .13.01.18.04.1.05.18.15.21.26l1.31 5.1c.45-1.72 1.51-4.48 3.98-7.7 4.04-5.28 8.73-9.31 12.57-10.76h0ZM118.6 57.32c-.03-.21-.07-.18-.15-.18-.06 0-.11.39-.15.53-.79 4.83-2.52 5.73-2.56 5.77-.63.63-2.33 1.12-3.74 1.12-.5 0-.96-.14-1.35-.41-.05-.03-.1-.08-.14-.11-.06-.05-.12-.09-.18-.14-.15-.14-.28-.32-.41-.51-.04-.05-.07-.11-.11-.17-.01-.02-.03-.04-.04-.07-.27-.48-.48-1.09-.63-1.82 0 0 0 0 0-.01v-.05s-.01-.03-.01-.04c-.07-.57-.3-3.61 2.06-5.26.23-.16.47-.3.72-.42.01 0 .36-.17.81-.16-.27-.1-.61-.12-.98-.05-.02 0-1.06.15-2.17.95-1.46 1.06-2.39 2.8-2.68 5.03-.15 1.38.21 2.76 1.02 3.87.14.19.29.37.44.53 0 0 0 0 0 0 .89.93 2.05 1.45 3.26 1.45.3 0 .6-.03.89-.09 2.42-.49 5.72-2.89 5.99-7.41.09-.84.12-1.6.11-2.27 0-.03 0-.06-.01-.09ZM104.99 67.2c-.1.03-.21.07-.31.09.2.09.44.14.7.14h0c.53 0 1.15-.2 1.81-.56.13-.07.27-.15.41-.23 0 0 .01 0 .02-.01.12-.07.24-.16.36-.24.03-.02.06-.04.09-.06l.08-.06c-.14-.13-.27-.27-.4-.41-.93.66-1.85 1.1-2.75 1.35ZM125.09 60.22c-.76.92-1.52 1.84-2.29 2.77-1.24 1.53-1.88 2.38-1.89 2.57l.22.12c.56-.03 1.44-.51 2.63-1.44 1.24-.96 1.61-1.29 2.11-1.67l-.05.39c-1.16 1.08-.74.72-2.23 1.83-1.33.99-2.3 1.34-2.73 1.38-.54.05-.8-.2-.8-.77 0-.44.17-.92.51-1.46.03-.04.34-.46.95-1.28-.37.31-.85.65-1.43 1.03l-.14-.16.09-.17c1.47-1.12 2.66-2.12 3.58-3l1.49-.15Zm2.77-3.33c-.12.32-.41.65-.85.98-.32-.19-.58-.44-.78-.76.17-.39.43-.7.8-.94.27.1.55.34.83.72Z"/><path class="c" d="M135.18 63.66c-1.38.86-2.3 1.31-2.76 1.36-.54.05-.82-.22-.82-.84 0-.53.39-1.32 1.18-2.35.61-.72 1.22-1.44 1.83-2.17l-.22-.04c-1.46.15-3.76 2.12-6.89 5.9l-1.49.15c1.33-1.71 2.69-3.53 4.06-5.46l-.15-.11c-.54.05-1.96 1.05-4.26 3.02l-.14-.14.07-.14c.66-.64 1.38-1.26 2.17-1.85 1.07-.79 1.86-1.21 2.38-1.27.44-.04.66.17.66.63 0 .42-.18.94-.53 1.55 1.85-1.65 3.22-2.52 4.1-2.61.48-.05.72.21.72.78 0 .68-.44 1.53-1.33 2.55-.88 1.02-1.33 1.6-1.33 1.74 0 .11.08.16.24.15.63-.06 1.54-.22 2.73-1.13M138.24 61.88l-.12-.17.08-.17c2.49-1.93 4.29-3.58 5.42-4.95l-.68.07-.22-.15c.07-.17.48-.27 1.22-.32l2.29-2.79 1.53-.15-2.31 2.8 1.65-.17.17.17c-.03.16-.72.29-2.08.39-1.05 1.27-2.1 2.54-3.16 3.81-1.74 2.13-2.62 3.29-2.64 3.47l.2.1c1.02-.05 2.55-1.01 4.6-2.88l.12.17c0 .37-.72.99-2.14 1.87-1.36.84-2.28 1.28-2.76 1.33-.54.05-.82-.2-.82-.75 0-.62.3-1.31.91-2.08.53-.59 1.07-1.18 1.6-1.77-.86.68-1.81 1.4-2.87 2.16Z"/><path class="c" d="m150.17,60.25l.13.25.13-.02c-2.39,1.97-4.23,3.15-5.14,3.24-1.15.12-1.72-.27-1.72-1.15,0-.95.6-1.96,1.8-3.05,1.15-1.04,2.2-1.6,3.17-1.7.55-.06.83.15.83.6,0,.53-.42,1.03-1.26,1.52-.78.41-1.56.83-2.34,1.25-.84.52-1.26,1.1-1.26,1.73,0,.32.2.45.59.41.83-.08,1.88-.61,3.15-1.58,1.27-.97,1.91-1.51,1.93-1.51Zm-4.15.29c1.97-.85,2.96-1.53,2.96-2.06,0-.2-.1-.29-.29-.27-.68.07-1.56.85-2.67,2.33Z"/><path class="c" d="M150.02 60.38c1.11-1.03 1.92-1.84 2.43-2.43-.32-.07-.49-.26-.49-.57 0-.53.27-.82.82-.87.35-.03.52.13.52.49 0 .21-.08.39-.25.54.53-.05 1-.17 1.42-.34l.51.99c-.62.73-1.24 1.46-1.87 2.19-1 1.2-1.5 1.88-1.5 2.04 0 .12.09.17.26.16.95-.1 2.43-1.05 4.44-2.85l.16.2c0 .29-.74.89-2.2 1.8-1.41.88-2.32 1.34-2.74 1.38-.55.06-.83-.25-.83-.9 0-.53.43-1.32 1.3-2.38.6-.66 1.19-1.33 1.79-1.99-.31.08-.59.13-.86.14-1.6 1.77-2.55 2.67-2.85 2.72l-.14-.17.05-.12ZM143.65 56.54s-5.16 5.87-10.87 8c0 0 .44.23.5.17.06-.05 7.15-3 11.03-8.59l-.62.44M158.57 52.11l-.15-.16.09-.08c.1-.09.1-.24.01-.34-.09-.1-.25-.1-.34-.01l-.09.08-.27-.29h.27c.13.02.25-.09.25-.22 0-.13-.1-.25-.23-.25l-.76-.03-.12-.13c.05-.07.08-.15.11-.24.03-.09.04-.17.04-.26l.17-.04.65.4s.04.02.06.03c.1.03.22 0 .28-.1.07-.11.04-.26-.08-.33l-.23-.14.39-.09.03.12c.02.09.09.15.17.18.04.01.08.01.12 0 .13-.03.21-.16.18-.29l-.03-.12.22-.05c.13-.03.21-.16.18-.29-.03-.13-.16-.21-.29-.18l-.22.05-.03-.12c-.03-.13-.16-.21-.29-.18-.13.03-.21.16-.18.29l.03.12-.39.09.15-.23c.07-.11.04-.26-.08-.33-.11-.07-.26-.04-.33.07l-.41.65-.17.04c-.08-.15-.2-.29-.35-.38l.05-.17.67-.35c.12-.06.16-.21.1-.33-.06-.12-.21-.17-.33-.1l-.24.12.12-.37.12.04c.13.04.26-.03.3-.16.04-.13-.03-.26-.16-.3l-.12-.04.07-.23c.04-.13-.03-.26-.16-.3-.13-.04-.26.03-.3.16l-.07.23-.12-.04c-.13-.04-.26.03-.3.16-.04.13.03.26.16.3l.12.04-.11.37-.13-.24c-.06-.12-.21-.16-.33-.1-.12.06-.16.21-.1.33l.36.66-.05.17c-.18 0-.35.03-.51.11l-.12-.13.03-.75c0-.13-.1-.25-.23-.25-.13 0-.25.1-.25.23v.27s-.28-.29-.28-.29l.09-.08c.1-.09.1-.24.01-.34-.09-.1-.24-.1-.34-.01l-.09.08-.16-.18c-.09-.1-.25-.1-.34-.01-.1.09-.1.25-.01.34l.17.18-.09.08c-.1.09-.1.24-.01.34.03.03.07.05.11.07.08.02.17 0 .24-.05l.09-.08.27.29h-.27c-.13-.01-.25.09-.25.23 0 .11.07.21.17.24.02 0 .04 0 .07 0l.75.02.12.13c-.05.07-.08.15-.11.24-.03.09-.04.17-.04.26l-.17.04-.63-.4c-.11-.07-.26-.04-.34.07-.07.11-.04.26.07.34l.23.15-.38.09-.03-.12c-.03-.13-.16-.21-.29-.18-.13.03-.21.16-.18.29l.03.12-.24.05c-.13.03-.21.16-.18.29.02.09.09.15.17.18.04.01.08.01.12 0l.24-.05.03.12c.02.09.09.15.16.18.04.01.08.01.13 0 .13-.03.21-.16.18-.29l-.03-.12.38-.09-.14.23c-.07.11-.04.26.08.33.02.01.04.02.06.03.1.03.22 0 .28-.1l.39-.64.17-.04c.08.15.2.29.35.38l-.05.17-.67.36c-.12.06-.16.21-.1.33.06.12.21.16.33.1l.24-.13-.12.38-.12-.03c-.13-.04-.26.03-.3.16-.04.13.03.26.16.3l.12.04-.07.21c-.04.13.03.26.16.3.13.04.26-.03.3-.16l.07-.21.12.04c.13.04.26-.03.3-.16.04-.13-.03-.26-.16-.3l-.12-.04.12-.38.13.24c.03.06.08.1.14.12.06.02.13.01.19-.02.12-.06.16-.21.1-.33l-.35-.68.05-.17c.18 0 .35-.03.5-.12l.12.13-.02.76c0 .11.07.21.17.24.02 0 .04 0 .06.01.13 0 .25-.1.25-.24v-.27s.28.29.28.29l-.09.08c-.1.09-.1.25-.01.34.03.03.07.05.1.07.08.02.17 0 .24-.05l.09-.08.15.16s.07.05.11.07c.08.02.17 0 .24-.05.1-.09.1-.24.01-.34Zm-2.3-1.5c-.26-.08-.4-.35-.32-.61s.35-.4.61-.32c.26.08.4.35.32.61-.08.26-.35.4-.61.32ZM164.12 48.49c-.06-.18-.25-.28-.44-.22-.04.01-.07.03-.1.06h0c-.15.12-.35.27-.5.38-.04-.05-.1-.09-.16-.11.07-.19.15-.41.21-.6h0s.02-.08.02-.12c0-.19-.15-.35-.35-.35s-.35.16-.35.35c0 .04 0 .08.02.12h0c.06.18.15.41.21.6-.06.02-.12.06-.16.11-.15-.12-.35-.27-.5-.39h0s-.07-.04-.1-.05c-.18-.06-.38.04-.44.22-.06.18.04.38.22.44.04.01.08.02.12.01h0c.2 0 .44 0 .63-.01 0 .07.02.13.06.19-.16.11-.36.25-.52.36h0s-.06.05-.09.08c-.11.16-.08.37.08.49.16.11.37.08.49-.08.02-.03.04-.07.05-.11h0c.06-.19.12-.42.18-.61.03 0 .06.02.1.02s.07 0 .1-.02c.06.19.13.42.18.61h0s.03.07.05.1c.11.15.33.19.48.08.16-.11.19-.33.08-.49-.02-.03-.05-.06-.09-.08h0c-.16-.11-.36-.25-.52-.36.04-.05.06-.12.06-.19.2 0 .44.01.63.02h0s.08 0 .12-.02c.18-.06.28-.26.22-.44ZM97.92.45 92.44 19.37 91.72 19.37 86.16 1.11 86.1 1.11 80.65 19.37 79.93 19.37 74.37.45 74.89.45 80.25 18.71 80.3 18.71 85.76.45 86.53.45 92.07 18.71 92.12 18.71 97.39.45 97.92.45zM99.08 6.09c.38-1.2.94-2.25 1.67-3.15.73-.9 1.64-1.62 2.73-2.15 1.09-.53 2.34-.79 3.75-.79s2.66.26 3.75.79c1.09.53 2 1.25 2.73 2.15.73.9 1.29 1.95 1.67 3.15.38 1.2.57 2.47.57 3.81s-.19 2.62-.57 3.82c-.38 1.2-.94 2.25-1.67 3.15-.73.9-1.64 1.61-2.73 2.13-1.08.52-2.33.78-3.75.78s-2.66-.26-3.75-.78c-1.08-.52-2-1.23-2.73-2.13-.73-.9-1.29-1.95-1.67-3.15-.38-1.2-.57-2.47-.57-3.82s.19-2.61.57-3.81m.56 7.58c.38 1.15.92 2.14 1.62 2.97.7.83 1.55 1.48 2.56 1.95 1.01.47 2.15.7 3.42.7s2.41-.24 3.42-.7c1.01-.47 1.86-1.12 2.56-1.95.7-.83 1.23-1.82 1.62-2.97.38-1.15.58-2.4.59-3.76-.02-1.36-.21-2.61-.59-3.76-.38-1.15-.92-2.14-1.62-2.97-.7-.83-1.55-1.48-2.56-1.95-1.01-.47-2.15-.7-3.42-.7s-2.41.23-3.42.7c-1.01.47-1.86 1.12-2.56 1.95-.7.83-1.24 1.82-1.62 2.97-.38 1.15-.58 2.4-.6 3.76.02 1.36.22 2.62.6 3.76M136.53.45 136.53 19.37 136 19.37 136 1.11 135.95 1.11 127.92 19.37 127.34 19.37 119.31 1.11 119.25 1.11 119.25 19.37 118.72 19.37 118.72.45 119.6.45 127.6 18.68 127.65 18.68 135.66.45 136.53.45zM138.78 19.37h-.58L145.86.45h.69l7.47 18.92h-.58l-2.49-6.23h-9.65l-2.52 6.23Zm7.45-18.39h-.06l-4.66 11.63h9.22l-4.51-11.63ZM156.49.45 169.42 18.71 169.47 18.71 169.47.45 170 .45 170 19.37 169.21 19.37 156.27 1.11 156.22 1.11 156.22 19.37 155.69 19.37 155.69.45 156.49.45zM85.78 28.73 77.29 28.73 77.29 32.13 85.08 32.13 85.08 34.92 77.29 34.92 77.29 39.04 86.17 39.04 86.17 41.93 74.02 41.93 74.02 25.89 85.78 25.89 85.78 28.73zM92.68 41.93 88.79 41.93 93.95 33.75 89.04 25.89 93.04 25.89 95.9 31.11 98.84 25.89 102.72 25.89 97.81 33.62 103.02 41.93 98.95 41.93 95.9 36.46 92.68 41.93zM116.2 34.98c-.94.78-2.28 1.18-4.03 1.18h-3.34v5.77h-3.33v-16.04h6.89c1.59 0 2.86.41 3.8 1.24.94.83 1.42 2.11 1.42 3.84 0 1.89-.47 3.23-1.41 4.02m-2.56-5.78c-.42-.36-1.02-.53-1.78-.53h-3.02v4.72h3.02c.77 0 1.36-.19 1.78-.58.43-.39.64-1 .64-1.83s-.21-1.43-.64-1.78M132.65 40.5c-1.21 1.25-2.96 1.87-5.25 1.87s-4.05-.62-5.26-1.87c-1.63-1.53-2.44-3.74-2.44-6.62s.81-5.14 2.44-6.62c1.21-1.25 2.96-1.87 5.26-1.87s4.04.62 5.25 1.87c1.62 1.47 2.43 3.68 2.43 6.62s-.81 5.09-2.43 6.62m-2.09-2.44c.78-.98 1.17-2.37 1.17-4.18s-.39-3.19-1.17-4.17c-.78-.98-1.83-1.48-3.16-1.48s-2.39.49-3.18 1.47c-.79.98-1.19 2.37-1.19 4.18s.4 3.2 1.19 4.18c.79.98 1.85 1.47 3.18 1.47s2.38-.49 3.16-1.47M140.62 32.39c0-.43.07-.83.2-1.19.13-.36.33-.66.58-.92.25-.26.55-.45.91-.59.36-.14.75-.21 1.18-.21s.84.07 1.17.2c.34.13.62.3.85.52.23.22.4.48.52.78.12.3.18.62.18.95 0 .4-.06.74-.2 1.04-.13.3-.3.57-.51.8-.21.23-.46.44-.73.62-.27.19-.55.36-.84.52-.28.16-.56.32-.84.47-.28.15-.52.31-.74.48-.15.11-.28.22-.42.35-.14.12-.26.25-.36.4-.11.14-.2.3-.26.47-.07.17-.11.36-.11.57h4.93v.68h-5.79c0-.43.05-.81.14-1.15.08-.34.27-.68.55-1.01.31-.35.63-.65.96-.9.33-.25.66-.48.97-.67.32-.2.62-.38.9-.54.28-.16.53-.34.75-.53.22-.19.39-.41.52-.65.12-.24.19-.54.19-.89 0-.29-.05-.54-.15-.77-.1-.22-.24-.42-.42-.58-.17-.16-.38-.28-.61-.36-.23-.08-.49-.12-.77-.12s-.56.06-.8.18c-.24.12-.44.28-.61.48-.17.2-.3.44-.4.7-.09.27-.13.55-.11.85h-.85ZM151.19 29.49c.43 0 .81.07 1.13.2.32.13.59.31.81.53.22.23.4.49.54.79.14.3.25.62.32.96.07.34.13.69.15 1.05.02.36.04.71.04 1.05 0 .59-.04 1.15-.12 1.68-.08.54-.24 1.01-.46 1.42-.22.41-.53.74-.91.98-.39.24-.88.36-1.49.36s-1.11-.12-1.5-.36c-.39-.24-.69-.57-.92-.99-.22-.41-.38-.89-.46-1.44-.08-.55-.13-1.13-.13-1.74 0-.56.04-1.11.11-1.64.07-.54.22-1.01.43-1.44.21-.42.52-.77.91-1.02.39-.26.91-.39 1.54-.39Zm2.18 4.49c0-.48-.03-.94-.08-1.4-.05-.46-.16-.86-.32-1.23-.16-.36-.38-.65-.67-.87-.29-.22-.67-.33-1.14-.33-.44 0-.8.11-1.08.33-.28.22-.5.52-.66.88-.16.37-.27.79-.33 1.26-.06.47-.1.95-.1 1.43 0 .57.03 1.09.11 1.55.07.46.19.86.36 1.19.17.33.39.58.67.76.28.18.63.27 1.06.27.48 0 .86-.12 1.15-.35.29-.24.51-.54.66-.9.15-.37.25-.78.3-1.24.05-.46.08-.91.08-1.35ZM156.43 32.39c0-.43.07-.83.2-1.19.13-.36.33-.66.58-.92.25-.26.55-.45.91-.59.36-.14.75-.21 1.19-.21s.83.07 1.17.2c.34.13.62.3.85.52.23.22.4.48.52.78.12.3.18.62.18.95 0 .4-.07.74-.2 1.04-.13.3-.3.57-.51.8-.21.23-.45.44-.73.62-.27.19-.55.36-.84.52-.29.16-.57.32-.84.47-.28.15-.52.31-.74.48-.14.11-.28.22-.41.35-.13.12-.26.25-.36.4-.11.14-.2.3-.26.47-.07.17-.11.36-.11.57h4.93v.68h-5.78c0-.43.05-.81.14-1.15.09-.34.27-.68.55-1.01.31-.35.63-.65.96-.9.33-.25.65-.48.97-.67.32-.2.62-.38.9-.54.28-.16.53-.34.75-.53.22-.19.39-.41.52-.65.13-.24.19-.54.19-.89 0-.29-.05-.54-.15-.77-.1-.22-.24-.42-.41-.58-.18-.16-.38-.28-.61-.36-.23-.08-.49-.12-.77-.12-.29 0-.56.06-.8.18-.24.12-.45.28-.61.48-.17.2-.3.44-.4.7-.09.27-.13.55-.11.85h-.85ZM164.27 32.39c0-.43.07-.83.2-1.19.13-.36.33-.66.58-.92.25-.26.55-.45.91-.59.36-.14.75-.21 1.19-.21s.83.07 1.17.2c.34.13.62.3.85.52.23.22.4.48.52.78.12.3.18.62.18.95 0 .4-.07.74-.2 1.04-.13.3-.3.57-.51.8-.21.23-.45.44-.73.62-.27.19-.55.36-.84.52-.29.16-.57.32-.84.47-.28.15-.52.31-.74.48-.14.11-.28.22-.41.35-.13.12-.26.25-.36.4-.11.14-.2.3-.26.47-.07.17-.11.36-.11.57h4.93v.68h-5.78c0-.43.05-.81.14-1.15.09-.34.27-.68.55-1.01.31-.35.63-.65.96-.9.33-.25.65-.48.97-.67.32-.2.62-.38.9-.54.28-.16.53-.34.75-.53.22-.19.39-.41.52-.65.13-.24.19-.54.19-.89 0-.29-.05-.54-.15-.77-.1-.22-.24-.42-.41-.58-.18-.16-.38-.28-.61-.36-.23-.08-.49-.12-.77-.12-.29 0-.56.06-.8.18-.24.12-.45.28-.61.48-.17.2-.3.44-.4.7-.09.27-.13.55-.11.85h-.85Z"/></svg>