<svg version="1.1" id="レイヤー_1" xmlns="http://www.w3.org/2000/svg" xmlns:xlink="http://www.w3.org/1999/xlink" x="0px" y="0px" width="188.5px" height="60px" viewBox="0 0 188.5 60" xml:space="preserve"><style type="text/css">.st1{fill:#d52e62}</style><g><path d="m14.2 18.8 4.8-4c.1-.1.2-.3.2-.5-.1-.2-.2-.3-.4-.4l-5.1-1.2c-.1-.1-.3 0-.4.1-.1.1-.1.1-.1.2 0 .1-.1.1-.1.2l.2 5.2c0 .2.1.4.3.4C13.9 18.9 14.1 18.9 14.2 18.8M19.2 45.1l-4.5-4.4c-.1-.1-.3-.2-.5-.1-.2.1-.3.2-.3.4l-.7 5.2c0 .2.1.3.1.4.1.1.1.1.2.1.1 0 .1 0 .2 0l5.2-.8c.2 0 .4-.2.4-.4C19.4 45.5 19.3 45.3 19.2 45.1M45.6 18.8l-4.8-4c-.1-.1-.2-.3-.2-.5.1-.2.2-.3.4-.4l5.1-1.2c.1-.1.3 0 .4.1.1.1.1.1.1.2 0 .1.1.1.1.2l-.2 5.2c0 .2-.1.4-.3.4C45.9 18.9 45.7 18.9 45.6 18.8M40.7 45.1l4.5-4.4c.1-.1.3-.2.5-.1.2.1.3.2.3.4l.7 5.2c0 .2-.1.3-.1.4-.1.1-.1.1-.2.1s-.1 0-.2 0L40.9 46c-.2 0-.4-.2-.4-.4C40.5 45.5 40.5 45.3 40.7 45.1M37.4 15.1 30.5 6c-.4-.5-.9-.5-1.2 0l-7 9c-.3.4-.4.9-.4 1.6 0 .6.2 1.2.4 1.6l6.9 8.5c.2.2.4.3.6.3.2 0 .4-.1.6-.3l7.1-8.4c.3-.4.5-.9.5-1.6C37.9 16 37.7 15.4 37.4 15.1M37.4 40.8l-6.9-9.1c-.4-.5-.9-.5-1.2 0l-7 9c-.3.4-.4.9-.4 1.6 0 .6.2 1.2.4 1.6l6.9 8.5c.2.2.4.3.6.3s.4-.1.6-.3l7.1-8.3c.3-.4.5-.9.5-1.6C37.9 41.8 37.7 41.2 37.4 40.8M43.6 36.7l9.1-6.9c.5-.4.5-.9 0-1.2l-9-7c-.4-.3-.9-.4-1.6-.4s-1.2.2-1.6.4l-8.4 6.9c-.2.2-.3.4-.3.6 0 .2.1.4.3.6l8.3 7.1c.3.3.9.5 1.6.5C42.7 37.2 43.3 37 43.6 36.7M17.8 36.7l9.1-6.9c.5-.4.5-.9 0-1.2l-9-7c-.4-.3-.9-.4-1.6-.4-.6 0-1.2.2-1.6.4l-8.4 6.9c-.2.2-.3.4-.3.6 0 .2.1.4.3.6l8.3 7.1c.4.3.9.5 1.6.5C16.9 37.2 17.5 37 17.8 36.7" fill="#ee94ac"/><path class="st1" d="m26.9 56.6-4.6-7.3c-.2-.4-.7-.6-1.1-.4l-8.3 2.1c-.3.1-.6.3-.7.6-.1.3-.1.7.1 1l4.7 7c.1.2.3.3.5.4C17.6 60 17.8 60 18 60l8.2-1.7c.3-.1.6-.3.7-.6S27.1 56.9 26.9 56.6M33.4 58l8.4 1.9c.4.1.9-.1 1.1-.5l4.5-7.4c.2-.3.2-.7.1-1-.1-.3-.4-.6-.7-.6l-8.2-1.6c-.2-.1-.4 0-.6.1-.2.1-.4.2-.5.4l-4.6 7c-.2.3-.2.6-.1 1C32.8 57.7 33.1 58 33.4 58M47.4 7.8l-4.5-7.3c-.2-.4-.7-.6-1.1-.4l-8.4 2c-.3.1-.6.3-.7.6-.1.3-.1.7.1 1l4.7 7c.1.2.3.3.5.4.2.1.4.1.6.1l8.2-1.7C47 9.3 47.3 9 47.4 8.7 47.6 8.4 47.6 8 47.4 7.8M12.8 9.3l8.4 1.9c.4.1.9-.1 1.1-.5l4.4-7.4C27 3 27 2.7 26.8 2.3s-.4-.6-.7-.6l-8.2-1.5c-.2-.1-.4 0-.6.1-.2.1-.4.2-.5.4l-4.6 7c-.2.3-.2.6-.1 1C12.2 9 12.5 9.2 12.8 9.3M56.5 32.1l-7.3 4.5c-.4.2-.6.7-.4 1.1l2.1 8.3c.1.3.3.6.6.7s.7.1 1-.1l7-4.7c.2-.1.3-.3.4-.5.1-.2.1-.4.1-.6l-1.7-8.2c-.1-.3-.3-.6-.6-.7C57.1 31.8 56.8 31.9 56.5 32.1M57.8 25.5l1.9-8.4c.1-.4-.1-.9-.5-1.1l-7.4-4.5c-.3-.2-.7-.2-1-.1-.3.1-.6.4-.6.7l-1.6 8.2c-.1.2 0 .4.1.6.1.2.2.4.4.5l7.1 4.6c.3.2.6.2 1 .1C57.5 26.1 57.7 25.8 57.8 25.5M7.8 11.6l-7.3 4.5c-.4.2-.6.7-.4 1.1l2.1 8.3c.1.3.3.6.6.7.3.1.7.1 1-.1l7-4.7c.2-.1.3-.3.4-.5.1-.2.1-.4.1-.6l-1.8-8.1c-.1-.3-.3-.6-.6-.7C8.4 11.3 8 11.4 7.8 11.6M9.3 46.1l1.9-8.3c.1-.4-.1-.9-.5-1.1l-7.4-4.5c-.3-.2-.7-.2-1-.1-.3.1-.6.4-.6.7l-1.5 8.3c-.1.2 0 .4.1.6.1.2.2.4.4.5l7 4.6c.3.2.6.2 1 .1C9 46.7 9.2 46.4 9.3 46.1"/><g><g><path class="st1" d="M105.2 7.1 98.8 28.9 98 28.9 91.6 7.9 91.6 7.9 85.3 28.9 84.5 28.9 78 7.1 78.6 7.1 84.8 28.2 84.8 28.2 91.2 7.1 92.1 7.1 98.4 28.2 98.5 28.2 104.6 7.1zM106.5 13.6c.4-1.4 1.1-2.6 1.9-3.6.9-1.1 1.9-1.9 3.2-2.5 1.2-.6 2.7-.9 4.3-.9s3.1.3 4.3.9 2.3 1.4 3.2 2.5c.9 1.1 1.5 2.2 1.9 3.6.4 1.4.7 2.9.7 4.4 0 1.6-.2 3-.7 4.4-.4 1.4-1.1 2.6-1.9 3.6-.9 1.1-1.9 1.9-3.2 2.5-1.2.6-2.7.9-4.3.9-1.6 0-3.1-.3-4.3-.9-1.2-.6-2.3-1.4-3.2-2.5-.9-1.1-1.5-2.2-1.9-3.6-.4-1.4-.7-2.9-.7-4.4C105.9 16.5 106.1 15 106.5 13.6M107.1 22.3c.4 1.3 1.1 2.5 1.9 3.4s1.8 1.7 2.9 2.2c1.2.6 2.5.8 3.9.8 1.5 0 2.8-.2 3.9-.8 1.2-.6 2.1-1.3 2.9-2.2.8-.9 1.4-2.1 1.9-3.4.4-1.3.7-2.7.7-4.4 0-1.6-.2-3-.7-4.4-.4-1.3-1.1-2.5-1.9-3.4-.8-.9-1.8-1.7-2.9-2.2-1.2-.6-2.5-.8-3.9-.8-1.5 0-2.8.2-3.9.8-1.2.6-2.1 1.3-2.9 2.2s-1.4 2.1-1.9 3.4-.7 2.8-.7 4.4C106.5 19.6 106.7 21 107.1 22.3M149.7 7.1 149.7 28.9 149.1 28.9 149.1 7.9 149.1 7.9 139.8 28.9 139.1 28.9 129.9 7.9 129.8 7.9 129.8 28.9 129.2 28.9 129.2 7.1 130.2 7.1 139.4 28.1 139.5 28.1 148.7 7.1zM152.3 28.9h-.7l8.8-21.8h.8l8.6 21.8h-.7l-2.8-7.2h-11.2L152.3 28.9zM160.9 7.7 160.9 7.7l-5.4 13.5h10.7L160.9 7.7zM172.7 7.1 187.7 28.2 187.7 28.2 187.7 7.1 188.4 7.1 188.4 28.9 187.4 28.9 172.5 7.9 172.4 7.9 172.4 28.9 171.9 28.9 171.9 7.1z"/></g><g><g><path class="st1" d="M91.2 39.7 81.4 39.7 81.4 43.6 90.4 43.6 90.4 46.9 81.4 46.9 81.4 51.6 91.6 51.6 91.6 55 77.6 55 77.6 36.5 91.2 36.5zM99.2 55 94.7 55 100.6 45.5 94.9 36.5 99.5 36.5 102.8 42.5 106.3 36.5 110.7 36.5 105.1 45.4 111.1 55 106.4 55 102.8 48.6zM126.3 46.9c-1.1.9-2.6 1.4-4.7 1.4h-3.9V55h-3.9V36.5h8c1.8 0 3.3.5 4.4 1.4 1.1.9 1.6 2.4 1.6 4.4C127.9 44.5 127.4 46.1 126.3 46.9M123.3 40.3c-.5-.4-1.2-.6-2.1-.6h-3.5v5.4h3.5c.9 0 1.6-.2 2.1-.7s.7-1.1.7-2.1C124.1 41.4 123.8 40.7 123.3 40.3M145.3 53.3c-1.4 1.4-3.4 2.2-6 2.2-2.6 0-4.7-.7-6-2.2-1.9-1.7-2.8-4.3-2.8-7.7 0-3.4.9-5.9 2.8-7.7 1.4-1.4 3.4-2.2 6-2.2 2.6 0 4.7.7 6 2.2 1.9 1.7 2.8 4.2 2.8 7.7C148.1 49 147.1 51.6 145.3 53.3M142.8 50.5c.9-1.1 1.4-2.7 1.4-4.8 0-2.1-.4-3.7-1.4-4.8-.9-1.1-2.1-1.7-3.7-1.7-1.6 0-2.7.6-3.7 1.7-.9 1.1-1.4 2.7-1.4 4.8 0 2.1.4 3.7 1.4 4.8.9 1.1 2.1 1.7 3.7 1.7C140.7 52.2 141.9 51.6 142.8 50.5"/></g><g><path class="st1" d="M153.6 51.1c0-.5.1-1 .2-1.4.2-.4.4-.7.7-1.1.3-.3.6-.6.9-.9.4-.2.7-.5 1.1-.7.4-.2.7-.5 1.1-.7s.7-.5 1-.8.5-.6.6-.9c.1-.3.2-.7.2-1.1 0-.3-.1-.6-.2-.9-.1-.2-.3-.5-.5-.7-.2-.2-.4-.3-.7-.4-.3-.1-.6-.1-.9-.1-.4 0-.8.1-1.1.2-.3.2-.6.4-.7.6-.2.2-.3.6-.4.9-.1.4-.1.7-.1 1.1h-.9c0-.6.1-1.1.2-1.5.1-.4.3-.9.6-1.2.2-.3.6-.6 1.1-.7.4-.2.9-.2 1.5-.2.4 0 .9.1 1.3.2.4.1.7.3 1.1.6.3.2.5.6.7.9.2.4.2.8.2 1.3 0 .4-.1.9-.2 1.2-.1.4-.3.7-.6 1-.2.3-.5.6-.8.8s-.6.5-1 .7c-.2.2-.6.4-.9.6-.3.2-.7.4-1 .7-.3.2-.6.5-.8.8-.2.3-.4.6-.4 1h5.9v.7H153.6zM168.4 41c.5.3.9.7 1.1 1.3.2.5.4 1.1.6 1.7.1.6.1 1.2.1 1.9 0 .6-.1 1.2-.1 1.9-.1.6-.2 1.2-.6 1.7-.2.5-.6.9-1.1 1.2-.5.3-1.1.5-1.9.5-.7 0-1.4-.2-1.9-.5-.5-.3-.9-.7-1.1-1.2-.2-.5-.4-1.1-.6-1.7-.1-.6-.1-1.2-.1-1.9 0-.6.1-1.2.1-1.9.1-.6.2-1.2.6-1.7.2-.5.6-.9 1.1-1.3.5-.3 1.1-.5 1.9-.5C167.2 40.5 167.9 40.6 168.4 41zM165.1 41.7c-.4.3-.6.7-.8 1.2-.2.4-.3.9-.4 1.5s-.1 1.1-.1 1.5c0 .4 0 .9.1 1.5s.2 1.1.4 1.5c.2.4.4.9.8 1.2.4.3.9.4 1.4.4.6 0 1.1-.1 1.4-.4.4-.3.6-.7.8-1.2.2-.4.3-.9.4-1.5s.1-1.1.1-1.5c0-.4 0-.9-.1-1.5s-.2-1.1-.4-1.5c-.2-.4-.4-.9-.8-1.2-.4-.3-.9-.4-1.4-.4C165.9 41.2 165.4 41.4 165.1 41.7zM172.1 51.1c0-.5.1-1 .2-1.4.2-.4.4-.7.7-1.1.2-.3.6-.6.9-.9.4-.2.7-.5 1.1-.7.4-.2.7-.5 1.1-.7.4-.2.7-.5 1-.8.3-.3.5-.6.6-.9.1-.3.2-.7.2-1.1 0-.3-.1-.6-.2-.9-.1-.2-.3-.5-.5-.7-.2-.2-.4-.3-.7-.4s-.6-.1-.9-.1c-.4 0-.8.1-1.1.2-.3.2-.6.4-.7.6-.2.2-.3.6-.4.9-.1.4-.1.7-.1 1.1h-.9c0-.6.1-1.1.2-1.5.1-.4.4-.9.6-1.2.2-.3.6-.6 1.1-.7.4-.2.9-.2 1.5-.2.4 0 .9.1 1.3.2.4.1.7.3 1.1.6.3.2.5.6.7.9.2.4.2.8.2 1.3 0 .4-.1.9-.2 1.2-.1.4-.3.7-.6 1-.2.3-.5.6-.9.8-.3.2-.6.5-1 .7-.2.2-.6.4-.9.6-.3.2-.7.4-1 .7-.3.2-.6.5-.8.8-.2.3-.4.6-.4 1h5.9v.7H172.1zM181.5 51.1c0-.5.1-1 .2-1.4.2-.4.4-.7.7-1.1.2-.3.6-.6.9-.9.4-.2.7-.5 1.1-.7.4-.2.7-.5 1.1-.7.4-.2.7-.5 1-.8.3-.3.5-.6.6-.9.1-.3.2-.7.2-1.1 0-.3-.1-.6-.2-.9-.1-.2-.3-.5-.5-.7-.2-.2-.4-.3-.7-.4-.3-.1-.6-.1-.9-.1-.4 0-.8.1-1.1.2-.3.2-.6.4-.7.6-.2.2-.3.6-.4.9-.1.4-.1.7-.1 1.1h-.9c0-.6.1-1.1.2-1.5.1-.4.4-.9.6-1.2.2-.3.6-.6 1.1-.7.4-.2.9-.2 1.5-.2.4 0 .9.1 1.3.2.4.1.7.3 1.1.6.3.2.5.6.7.9.2.4.2.8.2 1.3 0 .4-.1.9-.2 1.2-.1.4-.3.7-.6 1-.2.3-.5.6-.9.8-.3.2-.6.5-1 .7-.2.2-.6.4-.9.6-.3.2-.7.4-1 .7-.3.2-.6.5-.8.8-.2.3-.4.6-.4 1h5.9v.7H181.5z"/></g></g></g></g></svg>