<svg width="80" height="72" viewBox="0 0 80 72" fill="none" xmlns="http://www.w3.org/2000/svg">
<path d="M4.20069 71.0747V59.9387H6.71269V71.0747H4.20069ZM0.664688 61.9707V59.7787H10.2487V61.9707H0.664688ZM11.9714 71.0747V59.7787H14.4834V71.0747H11.9714ZM22.3389 71.2507C21.4963 71.2507 20.7123 71.1067 19.9869 70.8187C19.2723 70.52 18.6429 70.104 18.0989 69.5707C17.5656 69.0374 17.1496 68.4187 16.8509 67.7147C16.5523 67 16.4029 66.232 16.4029 65.4107C16.4029 64.5894 16.5523 63.8267 16.8509 63.1227C17.1496 62.408 17.5656 61.7894 18.0989 61.2667C18.6323 60.744 19.2563 60.3387 19.9709 60.0507C20.6963 59.752 21.4803 59.6027 22.3229 59.6027C23.2189 59.6027 24.0136 59.7467 24.7069 60.0347C25.4109 60.3227 26.0243 60.7174 26.5469 61.2187L24.8669 62.9147C24.5683 62.5947 24.2056 62.344 23.7789 62.1627C23.3629 61.9814 22.8776 61.8907 22.3229 61.8907C21.8323 61.8907 21.3789 61.976 20.9629 62.1467C20.5576 62.3067 20.2056 62.5414 19.9069 62.8507C19.6189 63.16 19.3896 63.5334 19.2189 63.9707C19.0589 64.408 18.9789 64.888 18.9789 65.4107C18.9789 65.944 19.0589 66.4294 19.2189 66.8667C19.3896 67.304 19.6189 67.6774 19.9069 67.9867C20.2056 68.296 20.5576 68.536 20.9629 68.7067C21.3789 68.8774 21.8323 68.9627 22.3229 68.9627C22.8989 68.9627 23.4003 68.872 23.8269 68.6907C24.2536 68.5094 24.6216 68.2587 24.9309 67.9387L26.6269 69.6347C26.0829 70.136 25.4589 70.5307 24.7549 70.8187C24.0616 71.1067 23.2563 71.2507 22.3389 71.2507ZM35.1622 71.0747L30.5862 65.1867L35.0182 59.7787H38.1222L33.1302 65.6507V64.6267L38.2822 71.0747H35.1622ZM28.3302 71.0747V59.7787H30.8422V71.0747H28.3302ZM39.6502 71.0747V59.7787H42.1622V71.0747H39.6502ZM41.5702 71.0747V68.8987H47.7622V71.0747H41.5702ZM41.5702 66.3547V64.2587H47.2022V66.3547H41.5702ZM41.5702 61.9387V59.7787H47.6822V61.9387H41.5702ZM52.2382 71.0747V59.9387H54.7502V71.0747H52.2382ZM48.7022 61.9707V59.7787H58.2862V61.9707H48.7022ZM62.8072 71.2507C61.8792 71.2507 61.0792 71.1014 60.4072 70.8027C59.7459 70.4934 59.1379 70.0294 58.5832 69.4107L60.2152 67.7947C60.5779 68.2107 60.9779 68.536 61.4152 68.7707C61.8632 68.9947 62.3805 69.1067 62.9672 69.1067C63.5005 69.1067 63.9112 69.0107 64.1992 68.8187C64.4979 68.6267 64.6472 68.36 64.6472 68.0187C64.6472 67.7094 64.5512 67.4587 64.3592 67.2667C64.1672 67.0747 63.9112 66.9094 63.5912 66.7707C63.2819 66.632 62.9352 66.4987 62.5512 66.3707C62.1779 66.2427 61.8045 66.0987 61.4312 65.9387C61.0579 65.768 60.7112 65.56 60.3912 65.3147C60.0819 65.0587 59.8312 64.744 59.6392 64.3707C59.4472 63.9867 59.3512 63.5067 59.3512 62.9307C59.3512 62.2374 59.5165 61.64 59.8472 61.1387C60.1885 60.6374 60.6579 60.2587 61.2552 60.0027C61.8525 59.736 62.5405 59.6027 63.3192 59.6027C64.1085 59.6027 64.8285 59.7414 65.4792 60.0187C66.1405 60.296 66.6845 60.6747 67.1112 61.1547L65.4792 62.7707C65.1379 62.4187 64.7912 62.1574 64.4392 61.9867C64.0979 61.816 63.7085 61.7307 63.2712 61.7307C62.8339 61.7307 62.4872 61.816 62.2312 61.9867C61.9752 62.1467 61.8472 62.3814 61.8472 62.6907C61.8472 62.9787 61.9432 63.2134 62.1352 63.3947C62.3272 63.5654 62.5779 63.7147 62.8872 63.8427C63.2072 63.9707 63.5539 64.0987 63.9272 64.2267C64.3112 64.3547 64.6899 64.504 65.0632 64.6747C65.4365 64.8454 65.7779 65.064 66.0872 65.3307C66.4072 65.5867 66.6632 65.9174 66.8552 66.3227C67.0472 66.7174 67.1432 67.208 67.1432 67.7947C67.1432 68.872 66.7592 69.72 65.9912 70.3387C65.2232 70.9467 64.1619 71.2507 62.8072 71.2507Z" fill="white"/>
<path d="M74 61.5747L78 65.5747L74 69.5747" stroke="white" stroke-width="2"/>
<path d="M20.25 14.895L46.7 2.24499C46.9998 2.10147 47.3253 2.0192 47.6573 2.00298C47.9893 1.98676 48.3213 2.03691 48.6337 2.15052C48.9461 2.26412 49.2327 2.43888 49.4767 2.66459C49.7208 2.89029 49.9174 3.1624 50.055 3.46499L55.25 14.895M24 19.895V14.895M24 29.895V32.395M24 42.395V47.395" stroke="white" stroke-width="3" stroke-linecap="round" stroke-linejoin="round"/>
<path d="M59 14.895H19C16.2386 14.895 14 17.1335 14 19.895V42.395C14 45.1564 16.2386 47.395 19 47.395H59C61.7614 47.395 64 45.1564 64 42.395V19.895C64 17.1335 61.7614 14.895 59 14.895Z" stroke="white" stroke-width="3" stroke-linecap="round" stroke-linejoin="round"/>
</svg>
