<svg id="_レイヤー_2" xmlns="http://www.w3.org/2000/svg" width="838" height="162.27" viewBox="0 0 838 162.27"><defs><style>.cls-1{fill:#004ea2}.cls-3{fill:#f18d1e}.cls-5,.cls-6{fill:#fff}.cls-12{font-size:23.82px;letter-spacing:-.1em}.cls-13{fill:#999}.cls-14{fill:#0086d1}.cls-18{fill:#231815}.cls-6{font-family:GothicMB101Pro-DeBold-90ms-RKSJ-H,&apos;A-OTF Gothic MB101 Pro&apos;;font-weight:700}.cls-19{font-size:25.81px;letter-spacing:-.1em}.cls-20{fill:#0062b0}</style></defs><path class="cls-13" d="M195 56 0 56 28 28 0 0 195 0 223 28 195 56z"/><path class="cls-5" d="M400 56 205 56 233 28 205 0 400 0 428 28 400 56z"/><path opacity=".65" fill="#bf0000" d="M400 56 205 56 233 28 205 0 400 0 428 28 400 56z"/><path class="cls-5" d="M605 56 410 56 438 28 410 0 605 0 633 28 605 56z"/><path fill="#bf0000" opacity=".78" d="M605 56 410 56 438 28 410 0 605 0 633 28 605 56z"/><path fill="#bf0000" d="M810 56 615 56 643 28 615 0 810 0 838 28 810 56z"/><text class="cls-6" transform="translate(89.65 37.89)"><tspan class="cls-19" x="0" y="0">3</tspan><tspan class="cls-12" x="22.96" y="-.75">月</tspan></text><text class="cls-6" transform="translate(294.67 37.6)"><tspan class="cls-19" x="0" y="0">4</tspan><tspan class="cls-12" x="22.96" y="-.75">月</tspan></text><text class="cls-6" transform="translate(499.65 37.6)"><tspan class="cls-19" x="0" y="0">5</tspan><tspan class="cls-12" x="22.96" y="-.75">月</tspan></text><text class="cls-6" transform="translate(704.61 37.89)"><tspan class="cls-19" x="0" y="0">6</tspan><tspan class="cls-12" x="22.96" y="-.75">月</tspan></text><g><circle class="cls-13" cx="94" cy="81" r="5"/><g><path stroke="#999" fill="none" stroke-miterlimit="10" stroke-width="2px" d="M94 81 128.95 81"/><path class="cls-13" d="M128.17 75.17 128.17 86.83 134 81 128.17 75.17z"/></g></g><g><circle class="cls-14" cx="504" cy="81" r="5"/><g><path fill="none" stroke-miterlimit="10" stroke-width="2px" stroke="#0086d1" d="M504 81 538.95 81"/><path class="cls-14" d="M538.17 75.17 538.17 86.83 544 81 538.17 75.17z"/></g></g><g><circle class="cls-1" cx="664" cy="81" r="5"/><g><path stroke="#004ea2" fill="none" stroke-miterlimit="10" stroke-width="2px" d="M664 81 698.95 81"/><path class="cls-1" d="M698.17 75.17 698.17 86.83 704 81 698.17 75.17z"/></g></g><g><circle class="cls-3" cx="754" cy="81" r="5"/><g><path stroke="#f18d1e" fill="none" stroke-miterlimit="10" stroke-width="2px" d="M754 81 788.95 81"/><path class="cls-3" d="M788.17 75.17 788.17 86.83 794 81 788.17 75.17z"/></g></g><text transform="translate(509 118.59)" fill="#0086d1" font-family="GothicMB101Pro-Medium-90ms-RKSJ-H, 'A-OTF Gothic MB101 Pro'" font-size="20px" font-weight="500"><tspan x="0" y="0">九州</tspan></text><text transform="translate(669 118.32)" font-family="GothicMB101Pro-Medium-90ms-RKSJ-H, 'A-OTF Gothic MB101 Pro'" font-size="20px" font-weight="500" fill="#004ea2"><tspan x="0" y="0">関西</tspan></text><text transform="translate(759 118.77)" font-family="GothicMB101Pro-Medium-90ms-RKSJ-H, 'A-OTF Gothic MB101 Pro'" font-size="20px" font-weight="500" fill="#f18d1e"><tspan x="0" y="0">名古屋</tspan></text><g><g><g><g><g><path class="cls-18" d="M72.09 106.13c0-.33-.27-.6-.6-.6h-3.72c-.33 0-.6-.27-.6-.6v-2.9c0-.33.27-.6.6-.6h13.09c.33 0 .6.27.6.6v2.9c0 .33-.27.6-.6.6h-3.72c-.33 0-.6.27-.6.6v14.93c0 .33-.27.6-.6.6h-3.26c-.33 0-.6-.27-.6-.6v-14.93ZM85.03 102.03c0-.33.27-.6.6-.6h11.58c.33 0 .6.27.6.6v2.77c0 .33-.27.6-.6.6h-7.16c-.33 0-.6.27-.6.6v2.91c0 .33.27.6.6.6h5.64c.33 0 .6.27.6.6v2.76c0 .33-.27.6-.6.6h-5.64c-.33 0-.6.27-.6.6v3.05c0 .33.27.6.6.6h7.31c.33 0 .6.27.6.6v2.76c0 .33-.27.6-.6.6h-11.73c-.33 0-.6-.27-.6-.6v-19.03ZM122.08 102.03c0-.33.27-.6.6-.6h3.26c.33 0 .6.27.6.6v6.81c0 .33.27.6.6.6h4.78c.33 0 .6-.27.6-.6v-6.81c0-.33.27-.6.6-.6h3.26c.33 0 .6.27.6.6v19.03c0 .33-.27.6-.6.6h-3.26c-.33 0-.6-.27-.6-.6v-6.93c0-.33-.27-.6-.6-.6h-4.78c-.33 0-.6.27-.6.6v6.93c0 .33-.27.6-.6.6h-3.26c-.33 0-.6-.27-.6-.6v-19.03ZM101.23 111.52v-.06c0-5.75 4.02-10.46 9.79-10.46 3.34 0 5.41 1.13 7.1 2.82.1.1.19.42 0 .68l-.04.04-1.8 2.24s-.13.23-.35.3c-.24.08-.45.02-.53-.05-1.38-1.19-2.49-1.91-4.27-1.91-3.16 0-5.28 2.88-5.28 6.35v.06c0 3.47 2.07 6.3 5.28 6.3 2.06 0 3.04-.78 4.49-2.13.06-.05.24-.1.35-.07.2.07.29.19.29.19l2 2.17s.13.12.12.33c0 .17-.09.3-.15.35-1.92 2.07-3.85 3.25-7.37 3.25-5.52 0-9.63-4.59-9.63-10.4"/></g><g><path class="cls-20" d="M56.68,111.48l-8.16-9.56c-.26-.31-.58-.56-1.16-.56h-4.91c-.25,0-.39,.34-.2,.56l8.16,9.55-8.15,9.56c-.17,.19-.07,.56,.2,.56h4.91c.57,0,.9-.25,1.16-.56l8.16-9.55Z"/><path class="cls-18" d="M64.4 101.36h-4.91c-.55 0-.79.14-1.05.45l-3.78 4.42 3.14 3.67 6.81-7.97c.19-.26.08-.56-.2-.56M64.59 121.03l-6.8-7.97-3.14 3.67 3.8 4.43c.26.31.65.43 1.03.43h4.91c.26 0 .38-.35.2-.56"/></g><path class="cls-20" d="M22.82 106.67v9.54l.03.92h-1.64v-.94h-5.53v.94h-1.65c.02-.36.03-.66.03-.92v-9.54c0-.27 0-.57-.03-.91h8.83c-.02.21-.03.51-.03.91m-1.62.54h-5.53v2.92h5.53v-2.92Zm-5.53 7.55h5.53v-3.19h-5.53v3.19ZM29.07 111.65v4.92c0 .28 0 .47.03.57h-1.38c0-.11.01-.3.01-.57v-4.79c-.6.07-1.09.12-1.48.15l-.59.09-.15-1.38c.23.02.49.02.76.01h.32c.31-.37.6-.73.86-1.09-.56-.66-1.18-1.31-1.85-1.95l.73-1.06.47.47c.27-.37.52-.76.75-1.19.23-.41.39-.74.47-.99l1.16.76s-.09.11-.15.19c-.3.57-.76 1.29-1.38 2.18.18.2.35.39.51.59.78-1.16 1.28-2 1.48-2.55l1.16.74-.17.21c-.21.36-.48.78-.79 1.25-.31.46-.62.91-.92 1.31-.3.41-.56.74-.77 1.01.68-.05 1.15-.1 1.42-.13-.11-.36-.23-.7-.37-1l1.04-.29c.15.3.31.71.49 1.24.18.52.32 1.02.42 1.5l-1.16.36-.12-.67-.81.11Zm-3.45 4.26c.15-.44.27-.96.37-1.54.09-.58.15-1.2.17-1.87l1.18.21-.04.27c-.06 1.43-.24 2.59-.55 3.5-.44-.23-.81-.42-1.12-.58m4.87-3.54c.1.31.2.74.31 1.29.11.55.19 1.09.25 1.64l-1.19.33c-.01-.39-.06-.87-.14-1.43-.09-.57-.18-1.08-.27-1.53l1.04-.3Zm6.7 3.18c.42 0 .71 0 .88-.03v1.44c-.16-.02-.45-.03-.88-.03h-5.69c-.43 0-.73 0-.89.03v-1.44c.17.02.47.03.89.03h2.3v-1.68h-1.48c-.37 0-.62 0-.78.01v-1.38c.15 0 .41.01.78.01h1.48v-.99l-.03-.45c.2 0 .47 0 .81.02.34.01.59.03.73.05-.02.14-.03.27-.03.39v.99h1.54c.36 0 .62 0 .78-.01v1.38c-.16 0-.42-.01-.78-.01h-1.54v1.68h1.91Zm-6.06-5.57c.84-.14 1.61-.36 2.31-.67-.21-.23-.42-.48-.61-.77-.19-.28-.35-.56-.49-.84-.13-.28-.24-.52-.32-.74h-.77s0-1.31 0-1.31h.7s4.36.01 4.36.01l.13-.15c.45.33.87.67 1.26 1.05l-.19.09c-.08.24-.2.52-.36.84-.16.32-.37.64-.62.96-.25.33-.51.62-.79.89.52.27 1.29.48 2.31.65-.21.52-.39.98-.54 1.38-.6-.14-1.13-.3-1.61-.47-.48-.17-.9-.38-1.28-.64-.28.18-.63.37-1.07.55-.44.19-1.04.38-1.82.58-.1-.27-.3-.74-.61-1.42m4.8-3.02h-2.47c.14.32.32.62.52.9.2.28.43.52.68.74.27-.21.51-.46.74-.74.22-.29.41-.59.55-.9"/></g><g><g><path class="cls-20" d="M190.89,111.48l-8.17-9.56c-.26-.31-.58-.56-1.16-.56h-4.91c-.24,0-.38,.34-.2,.56l8.16,9.55-8.15,9.56c-.17,.19-.07,.56,.2,.56h4.91c.57,0,.9-.25,1.16-.56l8.16-9.55Z"/><path class="cls-18" d="M198.61 101.36h-4.91c-.55 0-.79.14-1.05.45l-3.78 4.42 3.14 3.67 6.81-7.97c.19-.26.08-.56-.2-.56M198.8 121.03l-6.8-7.97-3.14 3.67 3.8 4.43c.26.31.65.43 1.02.43h4.91c.26 0 .38-.35.2-.56"/></g><path class="cls-18" d="M149.08 121.67c-.23 0-.42-.08-.59-.25-.17-.17-.25-.37-.25-.62v-12.87c0-.24.09-.44.25-.62.17-.17.37-.26.59-.26h1.88c.24 0 .46.08.65.24.19.16.31.36.34.6l.14 1.4s.02.05.06.05.07 0 .09-.02c1.42-1.38 2.91-2.07 4.47-2.07 1.48 0 2.58.49 3.3 1.5.72 1 1.07 2.4 1.07 4.22v7.82c0 .24-.09.45-.25.62-.17.17-.37.25-.59.25h-2.7c-.23 0-.42-.08-.59-.25-.17-.17-.25-.37-.25-.62v-7.29c0-.93-.13-1.58-.39-1.94-.26-.36-.68-.54-1.25-.54-.45 0-.84.09-1.18.26-.34.18-.73.48-1.18.92-.05.05-.07.1-.07.17v8.42c0 .24-.08.45-.25.62-.17.17-.37.25-.62.25h-2.65ZM170.31 122.01c-2.08 0-3.78-.66-5.13-1.98-1.34-1.32-2.02-3.12-2.02-5.38 0-1.11.19-2.14.57-3.08.38-.94.88-1.72 1.5-2.34.62-.62 1.33-1.1 2.13-1.45.8-.35 1.62-.52 2.47-.52 1.97 0 3.46.63 4.49 1.88 1.03 1.26 1.55 2.9 1.55 4.92 0 .34-.02.68-.05 1.01-.03.26-.15.46-.34.62-.19.15-.41.23-.65.23h-7.29c-.08 0-.11.04-.09.12.4 1.74 1.56 2.61 3.47 2.61.74 0 1.48-.16 2.22-.48.21-.11.43-.13.66-.06.23.07.41.21.52.4l.63 1.16c.11.21.14.43.09.66-.06.23-.19.41-.4.54-1.37.76-2.81 1.13-4.32 1.13Zm-2.95-9s.03.07.1.07h4.56c.08 0 .12-.04.12-.12-.02-.73-.2-1.3-.57-1.72-.36-.42-.91-.63-1.65-.63-.63 0-1.18.2-1.64.6-.61.53-.92 1.13-.92 1.79ZM205.95 122.01c-1.71 0-2.96-.48-3.77-1.46-.8-.97-1.21-2.34-1.21-4.09v-3.92c0-.06-.03-.1-.09-.1h-.94c-.24 0-.45-.09-.61-.25-.17-.17-.26-.37-.26-.62v-1.54c0-.24.09-.45.26-.63.17-.18.37-.27.61-.29l1.18-.1c.08-.02.12-.06.12-.12v-1.33c.04-.24.15-.45.34-.6.18-.17.4-.25.66-.25h2.29c.24 0 .45.08.61.26.17.16.25.36.25.59v1.33c0 .06.03.1.1.1h2.34c.24 0 .45.09.62.25.17.18.25.38.25.62v1.72c0 .24-.08.45-.25.62-.17.17-.37.25-.62.25h-2.34c-.06 0-.1.03-.1.1v3.87c0 .74.16 1.29.47 1.64.31.35.74.53 1.29.53.15 0 .3-.02.46-.05.22-.03.44.01.64.13.2.12.32.29.37.49l.34 1.5c.02.08.02.15.02.22 0 .16-.05.31-.14.46-.11.21-.29.34-.53.39-.77.19-1.56.29-2.37.29Z"/></g></g><path class="cls-18" d="M68.72 126.24v5.58h-.83v-.41h-2.88v.42h-.8v-5.6h4.51Zm-3.71 2.17h2.88v-1.4h-2.88v1.4Zm2.88.77h-2.88v1.45h2.88v-1.45ZM71.43 129.76c-.06.61-.2 1.26-.39 1.67-.13-.08-.42-.22-.59-.28.19-.38.29-.96.34-1.51l.64.11Zm4.99-3.41c-.23.69-.6 1.24-1.06 1.68.39.22.84.39 1.33.49-.16.15-.37.44-.47.62-.55-.15-1.03-.36-1.45-.65-.44.29-.94.51-1.48.68-.08-.18-.26-.46-.41-.62.12.28.23.56.27.77l-.55.24c-.02-.1-.04-.21-.08-.33l-.33.02v2.66h-.67v-2.61l-.94.06-.06-.67.47-.02c.1-.13.2-.27.3-.42-.19-.28-.5-.62-.77-.88l.37-.53s.1.09.15.13c.18-.36.36-.79.47-1.13l.67.25c-.23.44-.49.94-.73 1.31.08.09.16.18.22.26.22-.36.43-.73.58-1.05l.63.29c-.36.56-.8 1.22-1.21 1.75l.62-.03c-.07-.16-.15-.33-.23-.47l.51-.21c.1.18.21.39.3.6.47-.13.9-.31 1.29-.54-.3-.31-.56-.66-.77-1.06l.42-.14h-.74v-.66h2.69l.14-.03.52.23Zm-3.67 3.25c.16.37.33.85.4 1.17l-.57.21c-.06-.32-.23-.83-.38-1.21l.55-.17Zm2.43 1.46h1.42v.68h-3.67v-.68h1.49v-.76h-1.1v-.68h1.1v-.77h.76v.77h1.16v.68h-1.16v.76Zm-1.06-4.25c.16.29.37.55.62.77.25-.23.47-.49.64-.77h-1.26ZM80.8 126.95s-.01.02-.02.03h1.3c.2 0 .42-.03.56-.08l.66.41c-.07.12-.16.31-.21.47-.18.58-.55 1.44-1.13 2.17-.62.75-1.4 1.35-2.62 1.83l-.77-.69c1.33-.4 2.05-.96 2.62-1.6.44-.51.82-1.29.92-1.77h-1.82c-.44.56-1 1.14-1.64 1.57l-.73-.54c1.14-.69 1.7-1.53 2.03-2.09.1-.16.23-.46.29-.68l.95.31c-.15.22-.32.52-.4.66M86.12 126.76h3.57c.16 0 .41 0 .64-.01-.01.19-.01.43-.01.63v3.18c0 .25.01.88.01.9h-.89s0-.16 0-.35h-3.13c0 .18 0 .33 0 .35h-.9s.02-.6.02-.91v-3.17c0-.18 0-.45-.01-.63.26 0 .51.01.69.01m.19 3.52h3.14v-2.69h-3.14v2.69ZM96.94 127.35c-.22.5-.58 1.2-1.02 1.78.64.56 1.43 1.39 1.81 1.86l-.74.64c-.42-.58-1.03-1.25-1.64-1.84-.69.73-1.55 1.4-2.44 1.82l-.67-.7c1.04-.39 2.05-1.18 2.66-1.86.43-.49.83-1.13.97-1.59h-2.2c-.27 0-.63.04-.77.05v-.92c.17.03.57.04.77.04h2.29c.28 0 .54-.04.67-.08l.53.4c-.05.07-.17.27-.23.4M100.06 128.07h4.25c.14 0 .42-.01.59-.04v.84c-.16-.01-.41-.02-.59-.02h-1.56c-.04.67-.18 1.21-.42 1.67-.23.45-.73.95-1.3 1.25l-.76-.55c.46-.18.92-.55 1.18-.93.26-.4.37-.89.4-1.43h-1.79c-.19 0-.44.01-.62.03v-.85c.19.02.42.04.62.04m.82-1.65h2.61c.22 0 .48-.01.7-.05v.84c-.22-.01-.47-.03-.7-.03h-2.6c-.23 0-.5.01-.7.03v-.84c.21.03.48.05.69.05M108.4 129.32l-.79.3c-.11-.35-.43-1.21-.59-1.5l.78-.28c.16.33.47 1.12.6 1.48m3.14-.88c-.17.66-.44 1.33-.88 1.9-.6.78-1.42 1.33-2.17 1.61l-.68-.69c.71-.19 1.62-.68 2.15-1.36.44-.55.75-1.42.83-2.23l.91.29c-.08.21-.12.34-.15.47m-1.71.48-.78.27c-.08-.32-.36-1.1-.53-1.44l.77-.25c.12.28.44 1.12.53 1.42M116.49 126.95s-.01.02-.02.03h1.31c.2 0 .41-.03.56-.08l.66.41c-.07.12-.16.31-.21.47-.17.58-.55 1.44-1.13 2.17-.62.75-1.4 1.35-2.62 1.83l-.77-.69c1.33-.4 2.05-.96 2.62-1.6.44-.51.82-1.29.92-1.77h-1.82c-.43.56-1 1.14-1.64 1.57l-.73-.54c1.14-.69 1.7-1.53 2.03-2.09.1-.16.23-.46.29-.68l.95.31c-.15.22-.32.52-.4.66"/></g><g><g><path class="cls-18" d="M44.17 147.87c0 .06.03.09.08.09h1.97c.43 0 .95-.03 1.56-.09.18-.02.33.02.46.14.13.12.2.27.2.45v1.75c0 .18-.07.33-.2.46-.13.13-.29.19-.48.18-.58-.01-1.04-.02-1.37-.02h-2.07c-.05 0-.08.03-.08.1.11 5.48.17 8.27.17 8.37 0 .68-.2 1.21-.59 1.58-.41.38-1.01.57-1.82.57-.97 0-1.92-.03-2.85-.08-.19-.01-.35-.09-.49-.22-.14-.13-.22-.29-.25-.48l-.15-1.71c-.01-.18.04-.32.17-.44.13-.11.27-.16.44-.15.71.09 1.32.13 1.84.13.43 0 .65-.27.65-.82 0-1.72 0-3.11-.02-4.18 0-.01 0-.02-.02-.03-.01 0-.03 0-.04 0-.81 1.03-1.85 2.06-3.1 3.1-1.26 1.04-2.55 1.94-3.86 2.69-.18.1-.36.13-.55.09-.19-.04-.36-.13-.49-.28l-1.25-1.42c-.09-.1-.13-.21-.13-.34v-.11c.04-.16.13-.28.29-.36 1.64-.82 3.14-1.76 4.49-2.82 1.35-1.06 2.4-2.1 3.16-3.12.03-.05.01-.08-.04-.08h-4.56c-.48 0-1.07.02-1.76.06-.18 0-.33-.06-.47-.19-.13-.13-.2-.28-.2-.46v-1.77c0-.18.07-.33.2-.45.13-.12.29-.17.47-.16.63.06 1.19.09 1.67.09h5.98c.06 0 .1-.03.1-.09l-.06-1.04c-.04-.58-.08-1.08-.13-1.5-.01-.18.04-.33.15-.46.12-.13.26-.2.44-.2h1.97c.18 0 .33.07.45.2.12.13.17.29.16.46-.04.39-.06.77-.06 1.14 0 .13 0 .25.02.36l.02 1.04ZM52.88 161.25c-.06.01-.13.02-.19.02-.14 0-.27-.03-.4-.09-.19-.08-.33-.2-.44-.38l-1.27-1.97c-.05-.08-.07-.15-.07-.23 0-.06.01-.13.04-.19.06-.14.18-.22.34-.25 2.51-.42 4.7-1.18 6.59-2.28 1.57-.9 2.97-1.98 4.2-3.25 1.23-1.27 2.2-2.58 2.92-3.93.08-.11.18-.18.32-.19h.02c.13 0 .23.06.3.19l1.18 2.14c.1.19.15.38.15.57 0 .2-.06.4-.17.59-.81 1.29-1.84 2.52-3.09 3.7-1.25 1.18-2.63 2.21-4.14 3.09-2.02 1.19-4.12 2.01-6.28 2.45Zm-1.48-13.12c-.15-.1-.23-.24-.25-.42-.01-.18.04-.34.15-.48l1.33-1.4c.13-.14.28-.22.47-.25h.09c.15 0 .3.05.44.15 1.57 1.14 2.91 2.24 4.02 3.3.14.14.21.3.21.48s-.07.34-.21.48l-1.46 1.5c-.13.14-.28.21-.47.2-.18 0-.34-.07-.47-.2-1.19-1.18-2.48-2.3-3.87-3.38ZM81.33 150.09c.14-.03.27-.04.38-.04.33 0 .61.08.85.23l.93.59c.16.1.27.24.32.42.01.08.02.15.02.23 0 .1-.03.2-.08.3-.05.14-.09.25-.11.34-.77 2.23-1.74 3.99-2.9 5.3-1.67 1.89-3.77 3.25-6.3 4.1-.13.04-.24.06-.34.06-.28 0-.53-.12-.74-.36l-1.46-1.65c-.1-.11-.13-.24-.09-.39.04-.15.14-.24.29-.28 2.54-.63 4.56-1.69 6.04-3.17.78-.79 1.37-1.7 1.76-2.73.03-.05 0-.08-.06-.08h-8.75c-.6 0-1.2.01-1.8.04-.18.01-.33-.04-.46-.16-.13-.12-.2-.28-.2-.47v-1.67c0-.19.07-.34.2-.47s.29-.17.46-.16c.75.05 1.35.08 1.8.08h9.24c.37 0 .7-.02.99-.06Zm-10.19-1.82c-.19 0-.35-.06-.48-.18-.13-.12-.2-.27-.2-.45v-1.69c0-.18.07-.32.2-.45.13-.12.29-.17.48-.16.48.03.98.04 1.5.04h7.36c.53 0 1.08-.01 1.63-.04.01-.01.03-.02.04-.02.16 0 .3.06.42.17.14.13.21.28.21.45v1.69c0 .18-.07.33-.21.46-.11.11-.26.17-.44.17h-.04c-.61-.03-1.16-.04-1.65-.04h-7.33c-.54 0-1.04.01-1.5.04ZM97.12 150.83c-.05.03-.08.07-.08.13v7.67c0 .89.03 1.6.1 2.15.01.18-.03.33-.14.46-.11.13-.25.2-.43.2h-2.39c-.18 0-.32-.07-.45-.2-.12-.13-.17-.29-.14-.46.05-.76.08-1.47.08-2.15v-5.77c0-.05-.03-.07-.08-.06-1.92.95-3.8 1.7-5.64 2.24-.19.05-.38.04-.56-.03-.18-.07-.32-.19-.43-.37l-.99-1.69c-.05-.09-.07-.17-.07-.25 0-.06.02-.13.06-.21.06-.15.18-.25.34-.29 1.54-.35 3.04-.83 4.48-1.43 1.44-.6 2.7-1.24 3.78-1.91.87-.54 1.72-1.16 2.55-1.86.83-.7 1.53-1.38 2.1-2.05.13-.14.28-.22.45-.23h.06c.15 0 .29.05.42.15l1.52 1.37c.14.13.21.28.21.47 0 .18-.06.33-.19.46-1.54 1.46-3.06 2.67-4.56 3.64ZM106.33 161.25c-.06.01-.13.02-.19.02-.14 0-.27-.03-.4-.09-.19-.08-.34-.2-.44-.38l-1.27-1.97c-.05-.08-.08-.15-.08-.23 0-.06.01-.13.04-.19.06-.14.18-.22.34-.25 2.51-.42 4.7-1.18 6.59-2.28 1.57-.9 2.97-1.98 4.19-3.25 1.23-1.27 2.2-2.58 2.92-3.93.08-.11.18-.18.32-.19h.02c.13 0 .23.06.3.19l1.18 2.14c.1.19.15.38.15.57 0 .2-.06.4-.17.59-.81 1.29-1.84 2.52-3.09 3.7-1.25 1.18-2.63 2.21-4.14 3.09-2.02 1.19-4.12 2.01-6.28 2.45Zm-1.48-13.12c-.15-.1-.24-.24-.25-.42-.01-.18.04-.34.15-.48l1.33-1.4c.13-.14.28-.22.47-.25h.09c.15 0 .3.05.44.15 1.57 1.14 2.91 2.24 4.02 3.3.14.14.21.3.21.48s-.07.34-.21.48l-1.46 1.5c-.13.14-.28.21-.46.2-.18 0-.34-.07-.46-.2-1.19-1.18-2.48-2.3-3.87-3.38ZM123.51 160.43c-.19 0-.35-.07-.48-.2-.13-.13-.2-.29-.2-.48v-.63c0-.44.16-.82.49-1.12 1.85-1.7 3.23-3.14 4.16-4.35.92-1.2 1.39-2.27 1.39-3.21 0-.66-.17-1.16-.5-1.52-.33-.35-.79-.53-1.38-.53-.65 0-1.3.31-1.97.93-.14.13-.3.19-.48.19s-.34-.06-.47-.19l-.93-.91c-.14-.14-.21-.3-.21-.48s.07-.34.21-.47c.65-.61 1.3-1.05 1.97-1.34.67-.28 1.46-.43 2.35-.43 1.4 0 2.55.41 3.43 1.24.88.83 1.32 1.93 1.32 3.29 0 2.04-1.44 4.5-4.31 7.4 0 .01 0 .03 0 .04 0 .01.02.02.03.02.92-.13 1.68-.19 2.26-.19h1.99c.19 0 .35.07.47.2.13.13.19.29.19.48v1.56c0 .19-.06.35-.19.48-.13.13-.28.2-.47.2h-8.67ZM143.49 158.73c-.93 1.31-2.18 1.96-3.74 1.96s-2.81-.66-3.73-1.96c-.92-1.31-1.39-3.18-1.39-5.61s.46-4.27 1.38-5.53c.92-1.26 2.16-1.89 3.73-1.89s2.82.64 3.75 1.91c.93 1.27 1.4 3.11 1.4 5.51s-.47 4.3-1.4 5.61Zm-4.48-.93c.21.15.45.22.73.22s.52-.07.73-.22c.21-.15.41-.39.59-.74s.32-.85.42-1.51c.1-.66.14-1.47.14-2.43s-.05-1.75-.14-2.4c-.09-.65-.23-1.14-.42-1.47s-.38-.56-.59-.69c-.21-.13-.45-.2-.73-.2s-.52.07-.72.2c-.2.13-.39.36-.57.69-.18.33-.31.82-.41 1.47-.09.65-.14 1.45-.14 2.4s.05 1.77.14 2.43c.1.66.23 1.16.4 1.51.17.35.36.59.57.74ZM147.16 160.43c-.19 0-.35-.07-.48-.2-.13-.13-.2-.29-.2-.48v-.63c0-.44.16-.82.49-1.12 1.85-1.7 3.23-3.14 4.16-4.35.92-1.2 1.39-2.27 1.39-3.21 0-.66-.17-1.16-.5-1.52-.34-.35-.79-.53-1.38-.53-.65 0-1.3.31-1.97.93-.14.13-.3.19-.48.19s-.34-.06-.47-.19l-.93-.91c-.14-.14-.21-.3-.21-.48s.07-.34.21-.47c.65-.61 1.3-1.05 1.97-1.34.67-.28 1.45-.43 2.35-.43 1.4 0 2.55.41 3.43 1.24.88.83 1.32 1.93 1.32 3.29 0 2.04-1.44 4.5-4.31 7.4 0 .01 0 .03.01.04 0 .01.01.02.03.02.92-.13 1.68-.19 2.26-.19h1.99c.19 0 .35.07.47.2.13.13.19.29.19.48v1.56c0 .19-.06.35-.19.48-.13.13-.29.2-.47.2h-8.68ZM162.91 160.7c-1.87 0-3.37-.51-4.5-1.54-.15-.14-.23-.32-.23-.53 0-.19.06-.35.17-.49l.8-1.08c.1-.15.24-.23.42-.25.18-.01.33.03.47.13.82.65 1.66.97 2.51.97.68 0 1.22-.14 1.62-.43.4-.28.6-.69.6-1.22 0-.62-.21-1.09-.64-1.41-.42-.32-1.22-.51-2.38-.56-.19-.01-.35-.08-.48-.21-.13-.13-.2-.28-.2-.47v-1.08c0-.19.07-.35.2-.48.13-.13.29-.2.48-.22.92-.06 1.58-.25 1.97-.57.39-.32.59-.75.59-1.31 0-.49-.14-.87-.42-1.14-.28-.27-.69-.4-1.23-.4-.67 0-1.35.26-2.05.78-.15.11-.32.16-.5.14-.18-.02-.33-.1-.45-.24l-.89-1.08c-.13-.14-.18-.3-.16-.48.02-.18.11-.33.26-.45 1.25-.91 2.58-1.37 3.97-1.37 1.52 0 2.72.35 3.62 1.03.89.69 1.34 1.67 1.34 2.95 0 1.48-.77 2.54-2.3 3.17-.03.01-.04.03-.04.07s.01.05.04.07c.83.25 1.5.68 2 1.27.5.6.75 1.34.75 2.22s-.25 1.64-.74 2.29c-.49.65-1.14 1.14-1.93 1.45-.8.32-1.68.47-2.66.47ZM190.88 152.37c0 .19-.07.35-.2.48-.13.13-.29.2-.47.2h-2.41s-.04 0-.05.02c0 .01 0 .03 0 .04.92.89 1.95 1.59 3.07 2.13.18.08.27.21.27.42 0 .11-.04.22-.13.32-.37.39-.72.83-1.06 1.31-.1.15-.24.26-.43.31-.18.06-.36.04-.52-.05-.56-.3-1.09-.65-1.61-1.03-.04-.04-.06-.03-.06.04v4.97c0 .18-.07.33-.2.47-.13.13-.3.2-.48.2h-1.84c-.11 0-.21-.04-.29-.12-.08-.08-.12-.18-.12-.3 0-.03-.02-.04-.06-.04h-4.9s-.06.02-.06.06c0 .13-.05.24-.14.33-.1.09-.21.14-.35.14h-1.61c-.19 0-.35-.07-.48-.2-.13-.13-.2-.29-.2-.47v-4.63c0-.05-.02-.06-.06-.04-.52.41-1.06.77-1.61 1.1-.15.09-.32.11-.49.06-.18-.05-.32-.15-.42-.3-.29-.47-.62-.89-.99-1.27-.1-.09-.15-.2-.15-.34 0-.19.08-.33.25-.42 1.33-.72 2.45-1.61 3.38-2.66.01-.01.02-.03 0-.04s-.02-.02-.03-.02h-2.75c-.18 0-.33-.07-.47-.2-.13-.13-.2-.29-.2-.48v-.91c0-.19.07-.35.2-.48.13-.13.29-.2.47-.2h4.33c.05 0 .09-.02.11-.08.03-.05.07-.13.12-.24.06-.11.1-.19.12-.26.03-.05 0-.08-.06-.08h-2.9c-.19 0-.35-.07-.48-.2-.13-.13-.2-.29-.2-.47v-.85c0-.19.07-.35.2-.47.13-.13.29-.19.48-.19h3.68c.06 0 .1-.03.11-.1.01-.06.06-.23.13-.51.01-.05-.01-.08-.07-.08h-4.52c-.19 0-.35-.07-.48-.2-.13-.13-.2-.29-.2-.48v-.87c0-.18.07-.33.2-.47.13-.13.29-.2.48-.2h4.9c.05 0 .08-.03.1-.1.01-.19.03-.34.04-.45.01-.19.09-.34.23-.46.13-.11.27-.17.44-.17h.06l1.56.11c.18.01.33.09.45.24.12.15.17.31.16.48-.01.1-.03.19-.04.27 0 .05.02.08.08.08h6.45c.19 0 .35.07.48.2.13.13.2.29.2.47v.87c0 .19-.07.35-.2.48s-.29.2-.48.2h-6.81c-.06 0-.1.03-.11.08-.01.06-.03.15-.06.27-.03.11-.04.2-.06.25-.01.06.01.1.08.1h6.3c.19 0 .35.06.48.19.13.13.2.28.2.47v.85c0 .18-.07.33-.2.47s-.29.2-.48.2h-2.89c-.06 0-.08.02-.04.08.11.21.21.38.29.49.02.05.06.08.11.08h4.25c.18 0 .33.07.47.2.13.13.2.29.2.48v.91Zm-6.63 4.33c.06 0 .1-.02.1-.08v-.65c0-.06-.03-.09-.1-.09h-4.84c-.05 0-.08.03-.08.09v.65c0 .05.03.08.08.08h4.84Zm-4.92 2.79c0 .06.03.1.08.1h4.84c.06 0 .1-.03.1-.1v-.74c0-.05-.03-.08-.1-.08h-4.84c-.05 0-.08.03-.08.08v.74Zm4.86-6.36c-.03-.05-.07-.08-.13-.08h-3.97c-.05 0-.09.03-.13.08-.01.01-.06.09-.15.23-.09.14-.15.24-.19.3-.04.05-.03.07.04.07h4.9s.06-.02.04-.07c-.1-.13-.24-.3-.4-.53Zm-1.56-2.9c-.01-.06-.05-.09-.11-.09h-1.01c-.06 0-.1.03-.12.08-.02.06-.05.14-.09.25-.04.11-.08.19-.1.24-.02.05 0 .08.07.08h1.54c.05 0 .06-.02.04-.08-.09-.2-.16-.36-.21-.47Z"/></g><path class="cls-18" d="M14 137.13H209V138.89H14z"/></g></g></svg>