<svg id="_レイヤー_1" xmlns="http://www.w3.org/2000/svg" width="407.11" height="49.77" viewBox="0 0 407.11 49.77"><defs><style>.cls-1{fill:#0062b1}.cls-2{fill:#231815}</style></defs><g><g><g><g><path class="cls-2" d="M93.37 8.26c0-.53-.43-.96-.96-.96h-5.98c-.53 0-.96-.43-.96-.96V1.66c0-.53.43-.96.96-.96h21.04c.53 0 .96.44.96.96V6.33c0 .53-.43.96-.96.96h-5.98c-.53 0-.96.43-.96.96v24.01c0 .53-.43.96-.96.96h-5.24c-.53 0-.96-.43-.96-.96V8.26ZM114.18 1.66c0-.53.43-.96.96-.96h18.62c.53 0 .96.43.96.96V6.11c0 .53-.43.96-.96.96h-11.51c-.53 0-.96.44-.96.96v4.67c0 .53.43.96.96.96h9.07c.53 0 .96.43.96.96v4.44c0 .53-.43.96-.96.96h-9.07c-.53 0-.96.43-.96.96v4.91c0 .52.43.96.96.96h11.75c.53 0 .96.43.96.96v4.45c0 .53-.43.96-.96.96h-18.86c-.53 0-.96-.43-.96-.96V1.66ZM173.75 1.66c0-.53.43-.96.96-.96h5.24c.53 0 .96.43.96.96V12.62c0 .53.43.96.96.96h7.69c.53 0 .96-.44.96-.96V1.66c0-.53.43-.96.96-.96h5.24c.53 0 .96.43.96.96v30.6c0 .53-.43.96-.96.96h-5.24c-.53 0-.96-.43-.96-.96v-11.14c0-.53-.43-.96-.96-.96h-7.69c-.53 0-.96.43-.96.96v11.14c0 .53-.43.96-.96.96h-5.24c-.53 0-.96-.43-.96-.96V1.66ZM140.23 16.91v-.09c0-9.24 6.47-16.82 15.74-16.82 5.37 0 8.71 1.82 11.42 4.53.16.16.31.68 0 1.09l-.06.06-2.9 3.6s-.21.37-.57.48c-.39.12-.73.03-.86-.08-2.22-1.92-4-3.07-6.86-3.07-5.09 0-8.5 4.63-8.5 10.21v.09c0 5.58 3.32 10.14 8.5 10.14 3.31 0 4.89-1.25 7.22-3.43.09-.09.39-.16.55-.11.32.11.47.31.47.31l3.21 3.5s.21.2.2.53c0 .27-.15.48-.23.57-3.09 3.32-6.19 5.23-11.86 5.23-8.88 0-15.48-7.39-15.48-16.73"/></g><g><path class="cls-1" d="M68.59,16.86L55.46,1.49c-.42-.5-.93-.9-1.87-.9h-7.9c-.39,0-.62,.54-.32,.9l13.12,15.36-13.11,15.37c-.27,.31-.11,.9,.32,.9h7.9c.92,0,1.44-.41,1.86-.9l13.12-15.36Z"/><path class="cls-2" d="M81 .59h-7.9c-.88 0-1.26.22-1.69.72l-6.08 7.1 5.04 5.9L81.32 1.49c.31-.41.13-.9-.32-.9M81.31 32.21l-10.94-12.81-5.04 5.9 6.11 7.12c.42.5 1.05.69 1.65.69h7.9c.42 0 .61-.56.32-.9"/></g><path class="cls-1" d="M14.15 9.12v15.34l.04 1.48h-2.64v-1.51H2.66v1.51H0c.03-.57.04-1.07.04-1.48V9.12c0-.43-.01-.92-.04-1.46H14.2c-.03.34-.04.83-.04 1.46m-2.6.87H2.66v4.7H11.55v-4.7ZM2.66 22.12H11.55v-5.14H2.66v5.14ZM24.19 17.13v7.91c0 .44.01.75.04.92h-2.21c.02-.17.02-.48.02-.92v-7.7c-.96.12-1.76.19-2.39.24l-.95.15-.24-2.21c.37.03.78.04 1.22.02l.52-.02c.5-.57.96-1.15 1.38-1.72-.9-1.06-1.89-2.1-2.97-3.13l1.18-1.71.75.76c.43-.6.83-1.23 1.2-1.92.37-.67.62-1.19.75-1.59l1.87 1.22c-.07.07-.15.17-.23.31-.49.92-1.23 2.08-2.22 3.5.29.32.56.63.82.95 1.26-1.87 2.06-3.22 2.39-4.1l1.87 1.2-.28.33c-.34.58-.77 1.25-1.27 2.01-.5.75-.99 1.46-1.47 2.1-.48.66-.89 1.2-1.24 1.62 1.09-.09 1.85-.16 2.28-.21-.17-.59-.37-1.12-.6-1.61l1.68-.47c.24.49.51 1.14.78 1.99.28.83.51 1.64.68 2.42l-1.87.58-.19-1.07-1.31.17Zm-5.55 6.85c.24-.71.44-1.54.59-2.47.15-.93.24-1.93.27-3.01l1.89.34-.06.43c-.1 2.29-.39 4.17-.88 5.63-.7-.38-1.3-.68-1.8-.93m7.82-5.69c.16.5.32 1.19.49 2.07.17.88.31 1.76.41 2.63l-1.91.54c-.02-.63-.09-1.4-.23-2.31-.14-.91-.28-1.73-.44-2.46l1.68-.47Zm10.77 5.12c.67 0 1.15-.01 1.42-.04v2.32c-.26-.03-.73-.04-1.42-.04h-9.16c-.69 0-1.17.02-1.44.04v-2.32c.27.03.75.04 1.44.04h3.7v-2.71h-2.39c-.59 0-1 0-1.25.02v-2.22c.24.01.66.02 1.25.02h2.39v-1.59l-.04-.73c.32 0 .75.01 1.3.03.55.02.94.05 1.17.08-.03.23-.04.44-.04.62v1.59h2.47c.57 0 .99 0 1.25-.02v2.22c-.26-.01-.67-.02-1.25-.02h-2.47v2.71h3.07Zm-9.74-8.96c1.35-.22 2.59-.58 3.72-1.08-.34-.36-.67-.78-.98-1.23-.31-.46-.57-.91-.79-1.35-.21-.45-.39-.83-.52-1.19h-.13l-1.12.02v-2.12l1.12.02h7.01l.22-.25c.73.53 1.41 1.08 2.02 1.69l-.3.14c-.13.39-.32.83-.58 1.34-.26.51-.59 1.02-.99 1.55-.4.52-.82 1-1.27 1.42.83.43 2.07.78 3.72 1.05-.34.83-.63 1.57-.86 2.21-.96-.23-1.82-.48-2.59-.75-.77-.27-1.45-.62-2.05-1.03-.44.3-1.02.6-1.72.89-.7.3-1.68.61-2.92.94-.16-.43-.49-1.19-.99-2.28m7.72-4.86h-3.98c.23.51.51 1 .83 1.45.32.45.68.84 1.09 1.19.43-.34.82-.74 1.18-1.2.36-.46.65-.94.88-1.44"/></g><g><g><path class="cls-1" d="M284.4,16.86l-13.13-15.37c-.42-.5-.93-.9-1.86-.9h-7.9c-.39,0-.62,.54-.32,.9l13.12,15.36-13.11,15.37c-.28,.31-.11,.9,.32,.9h7.9c.92,0,1.44-.41,1.86-.9l13.12-15.36Z"/><path class="cls-2" d="M296.81.59h-7.9c-.89 0-1.27.22-1.69.72l-6.08 7.1 5.04 5.9 10.95-12.81c.31-.41.12-.9-.32-.9M297.12 32.21l-10.94-12.81-5.04 5.9 6.11 7.12c.42.5 1.05.69 1.65.69h7.9c.42 0 .61-.56.32-.9"/></g><path class="cls-2" d="M217.16 33.24c-.36 0-.68-.13-.95-.41-.27-.27-.41-.6-.41-.99V11.15c0-.39.14-.71.41-.99.27-.27.59-.41.95-.41h3.03c.39 0 .74.13 1.05.39.31.26.49.58.54.97l.23 2.25c0 .05.03.08.1.08s.11-.01.14-.04c2.28-2.23 4.67-3.33 7.18-3.33 2.38 0 4.15.79 5.3 2.41 1.15 1.6 1.73 3.87 1.73 6.79v12.57c0 .39-.14.72-.41.99-.27.27-.59.41-.95.41h-4.35c-.36 0-.68-.13-.95-.41-.27-.27-.41-.6-.41-.99v-11.72c0-1.5-.21-2.54-.62-3.12-.41-.58-1.09-.87-2.02-.87-.72 0-1.36.14-1.9.43-.54.28-1.18.78-1.9 1.48-.08.08-.12.17-.12.27v13.55c0 .39-.13.72-.41.99-.27.27-.6.41-.99.41h-4.27ZM251.31 33.79c-3.34 0-6.09-1.06-8.25-3.18-2.16-2.12-3.24-5.01-3.24-8.66 0-1.79.3-3.43.91-4.95.61-1.51 1.41-2.77 2.41-3.77 1-.99 2.14-1.76 3.42-2.33 1.28-.56 2.61-.83 3.98-.83 3.16 0 5.57 1.01 7.22 3.03 1.66 2.02 2.48 4.66 2.48 7.92 0 .54-.03 1.09-.08 1.63-.05.41-.23.75-.54.99-.31.25-.66.37-1.05.37h-11.73c-.12 0-.18.06-.15.2.64 2.79 2.51 4.19 5.59 4.19 1.19 0 2.38-.26 3.57-.78.34-.18.69-.21 1.07-.1.38.12.65.33.84.64l1.01 1.86c.18.34.23.69.14 1.07-.09.38-.31.66-.64.87-2.2 1.22-4.52 1.82-6.95 1.82Zm-4.74-14.48c0 .08.05.12.16.12h7.33c.13 0 .2-.06.2-.19-.03-1.17-.33-2.08-.92-2.76-.58-.67-1.47-1.01-2.65-1.01-1.01 0-1.89.32-2.64.97-.98.85-1.47 1.81-1.47 2.87ZM308.62 33.79c-2.74 0-4.76-.78-6.06-2.35-1.29-1.57-1.94-3.76-1.94-6.58v-6.3c0-.1-.05-.15-.15-.15h-1.52c-.39 0-.72-.14-.99-.41-.27-.27-.41-.6-.41-.99v-2.48c0-.39.14-.73.41-1.01.27-.29.6-.44.99-.46l1.9-.16c.13-.03.19-.1.19-.2v-2.14c.07-.39.24-.73.54-.97.3-.27.65-.39 1.06-.39h3.68c.39 0 .72.13.99.41.27.26.41.58.41.95v2.14c0 .1.05.16.16.16h3.76c.39 0 .72.14.99.4.27.28.41.61.41.99v2.76c0 .39-.13.72-.41.99-.27.27-.6.41-.99.41h-3.76c-.1 0-.16.05-.16.15v6.22c0 1.19.25 2.07.76 2.64.51.57 1.2.86 2.08.86.23 0 .48-.03.74-.08.36-.05.71.02 1.03.21.32.19.52.46.6.79l.54 2.41c.03.13.04.25.04.35 0 .26-.08.5-.23.74-.18.34-.46.54-.85.62-1.24.31-2.51.46-3.81.46Z"/></g></g><path class="cls-2" d="M87.95 40.58v8.98h-1.34v-.66h-4.64v.68h-1.28v-9h7.25Zm-5.97 3.5h4.64v-2.24h-4.64v2.24Zm4.64 1.23h-4.64v2.34h4.64v-2.34ZM92.31 46.24c-.1.98-.32 2.03-.63 2.69-.22-.13-.68-.35-.95-.45.3-.62.47-1.55.55-2.42l1.02.18Zm8.03-5.48c-.38 1.11-.96 1.99-1.7 2.7.62.36 1.35.62 2.14.79-.26.24-.59.71-.76 1-.88-.24-1.66-.58-2.33-1.04-.71.47-1.51.82-2.38 1.1-.14-.28-.42-.74-.66-1 .2.45.36.9.43 1.23l-.88.39c-.03-.15-.07-.33-.13-.53l-.53.04v4.27h-1.08v-4.2l-1.51.09-.1-1.08.75-.03c.15-.2.32-.43.49-.67-.3-.45-.8-1-1.23-1.42l.59-.85c.07.06.16.14.24.21.29-.57.58-1.26.76-1.82l1.08.4c-.38.71-.79 1.51-1.17 2.1.13.15.25.29.35.42.36-.58.69-1.18.93-1.69l1.01.47c-.58.91-1.29 1.96-1.95 2.81l1-.04c-.12-.27-.24-.52-.37-.75l.83-.35c.17.29.33.63.48.96.75-.2 1.45-.49 2.08-.86-.49-.49-.9-1.06-1.23-1.7l.67-.22h-1.19v-1.06h4.32l.22-.05.83.38Zm-5.91 5.22c.26.6.53 1.36.65 1.88l-.92.34c-.09-.52-.36-1.33-.61-1.94l.88-.27Zm3.9 2.35h2.29v1.09h-5.9v-1.09h2.39v-1.22h-1.77v-1.1h1.77v-1.24h1.22v1.24h1.86v1.1h-1.86v1.22Zm-1.7-6.83c.25.46.59.88 1 1.24.41-.36.75-.79 1.02-1.24h-2.03ZM107.37 41.72s-.02.03-.03.05h2.1c.32 0 .67-.05.91-.13l1.06.65c-.11.2-.26.49-.34.75-.28.93-.88 2.32-1.82 3.49-.99 1.21-2.26 2.17-4.22 2.94l-1.23-1.11c2.14-.64 3.3-1.55 4.21-2.58.71-.82 1.31-2.07 1.48-2.85h-2.93c-.7.91-1.61 1.83-2.63 2.53l-1.17-.87c1.83-1.12 2.73-2.47 3.26-3.36.16-.26.38-.74.47-1.1l1.53.5c-.24.36-.51.83-.64 1.06M115.93 41.42h5.74c.26 0 .66 0 1.03-.02-.02.31-.02.7-.02 1.02v5.11c0 .41.02 1.41.02 1.45h-1.44s.01-.26.01-.56h-5.04c.01.29.01.53.01.56h-1.44c0-.05.03-.96.03-1.46v-5.1c0-.3 0-.72-.02-1.02.43.01.82.02 1.11.02m.31 5.66h5.04v-4.33h-5.04v4.33ZM133.32 42.37c-.36.81-.94 1.93-1.64 2.87 1.03.9 2.3 2.24 2.91 2.99l-1.19 1.03c-.68-.94-1.65-2-2.63-2.95-1.1 1.17-2.49 2.25-3.93 2.93l-1.07-1.13c1.68-.62 3.3-1.9 4.28-2.99.69-.78 1.33-1.82 1.56-2.56h-3.54c-.44 0-1.01.06-1.23.07v-1.48c.28.04.92.07 1.23.07h3.69c.45 0 .87-.06 1.08-.14l.86.64c-.08.11-.27.44-.37.65M138.35 43.53h6.84c.22 0 .68-.02.95-.06v1.36c-.26-.02-.66-.03-.95-.03h-2.52c-.06 1.07-.29 1.95-.67 2.68-.37.72-1.17 1.53-2.1 2l-1.22-.89c.74-.28 1.47-.89 1.89-1.49.43-.65.6-1.43.65-2.31h-2.87c-.31 0-.71.02-1 .04v-1.37c.31.03.68.06 1 .06m1.33-2.66h4.2c.35 0 .77-.02 1.13-.07v1.35c-.35-.02-.76-.04-1.13-.04h-4.19c-.37 0-.8.02-1.13.04v-1.35c.35.05.77.07 1.12.07M151.75 45.53l-1.27.48c-.18-.56-.7-1.95-.95-2.41l1.25-.45c.26.54.76 1.79.97 2.38m5.05-1.41c-.27 1.06-.71 2.14-1.42 3.06-.97 1.26-2.28 2.13-3.5 2.59l-1.1-1.11c1.15-.3 2.6-1.1 3.46-2.18.71-.89 1.21-2.28 1.34-3.58l1.46.47c-.12.33-.19.55-.25.76m-2.75.77-1.25.44c-.13-.51-.58-1.77-.85-2.32l1.24-.4c.2.45.71 1.81.86 2.29M164.75 41.72s-.02.03-.03.05h2.1c.32 0 .67-.05.91-.13l1.06.65c-.11.2-.26.49-.34.75-.28.93-.88 2.32-1.81 3.49-.99 1.21-2.26 2.17-4.22 2.94l-1.23-1.11c2.14-.64 3.3-1.55 4.21-2.58.71-.82 1.32-2.07 1.48-2.85h-2.93c-.7.91-1.61 1.83-2.63 2.53l-1.17-.87c1.83-1.12 2.74-2.47 3.26-3.36.16-.26.37-.74.47-1.1l1.52.5c-.24.36-.51.83-.64 1.06"/></g><g><path class="cls-2" d="M331.4 30.83H407.10999999999996V33.239999999999995H331.4z"/><g><path class="cls-2" d="M333.51 24.74c-.31 0-.57-.11-.78-.32-.22-.22-.32-.48-.32-.79v-1.02c0-.72.26-1.32.8-1.82 3-2.75 5.25-5.1 6.75-7.05 1.5-1.95 2.25-3.69 2.25-5.21 0-1.07-.27-1.89-.82-2.46-.54-.57-1.29-.86-2.23-.86-1.05 0-2.12.5-3.2 1.51-.23.2-.49.31-.79.31s-.55-.1-.75-.31l-1.51-1.48c-.23-.23-.34-.49-.34-.79s.11-.55.34-.75c1.05-.99 2.12-1.71 3.2-2.17 1.09-.46 2.36-.69 3.82-.69 2.28 0 4.13.67 5.56 2.02 1.43 1.35 2.14 3.13 2.14 5.34 0 3.3-2.33 7.31-6.99 12.01 0 .02 0 .04.01.06.01.02.03.03.05.03 1.5-.21 2.72-.31 3.67-.31h3.23c.31 0 .56.11.77.32.21.22.31.48.31.79v2.53c0 .31-.1.57-.31.79-.2.22-.46.32-.77.32h-14.08ZM365.92 21.98c-1.51 2.12-3.53 3.19-6.07 3.19s-4.56-1.06-6.05-3.19c-1.5-2.13-2.25-5.16-2.25-9.1s.74-6.94 2.23-8.98c1.49-2.04 3.51-3.07 6.05-3.07s4.57 1.03 6.08 3.1c1.51 2.06 2.27 5.05 2.27 8.95s-.76 6.98-2.27 9.1Zm-7.27-1.51c.34.24.74.35 1.19.35s.85-.12 1.19-.35c.34-.24.66-.64.95-1.2.3-.56.53-1.38.68-2.45.16-1.07.23-2.38.23-3.94s-.08-2.84-.23-3.9c-.15-1.06-.38-1.85-.68-2.39-.3-.53-.61-.91-.95-1.12-.34-.21-.74-.32-1.19-.32s-.84.11-1.17.32c-.33.22-.64.59-.92 1.12-.29.53-.51 1.33-.66 2.39-.15 1.06-.23 2.36-.23 3.9s.08 2.87.23 3.94c.16 1.07.37 1.88.65 2.45.28.56.58.96.92 1.2ZM371.88 24.74c-.31 0-.57-.11-.79-.32-.21-.22-.32-.48-.32-.79v-1.02c0-.72.27-1.32.8-1.82 3-2.75 5.25-5.1 6.75-7.05 1.5-1.95 2.25-3.69 2.25-5.21 0-1.07-.27-1.89-.81-2.46-.55-.57-1.29-.86-2.23-.86-1.05 0-2.12.5-3.2 1.51-.22.2-.49.31-.78.31s-.55-.1-.76-.31l-1.51-1.48c-.22-.23-.34-.49-.34-.79s.11-.55.34-.75c1.05-.99 2.12-1.71 3.2-2.17 1.09-.46 2.36-.69 3.82-.69 2.28 0 4.13.67 5.56 2.02 1.42 1.35 2.14 3.13 2.14 5.34 0 3.3-2.33 7.31-6.99 12.01 0 .02 0 .04.02.06 0 .02.02.03.04.03 1.5-.21 2.72-.31 3.67-.31h3.24c.31 0 .56.11.77.32.2.22.31.48.31.79v2.53c0 .31-.1.57-.31.79-.21.22-.46.32-.77.32h-14.08ZM397.45 25.17c-3.04 0-5.47-.83-7.3-2.5-.24-.22-.37-.51-.37-.86 0-.31.09-.58.28-.8l1.29-1.76c.17-.25.39-.38.68-.4.28-.02.54.05.77.22 1.33 1.05 2.69 1.57 4.07 1.57 1.11 0 1.99-.23 2.63-.69.65-.46.97-1.12.97-1.99 0-1-.34-1.77-1.03-2.29-.68-.53-1.97-.83-3.86-.91-.31-.02-.57-.13-.79-.34-.22-.21-.32-.46-.32-.77v-1.76c0-.31.11-.57.32-.79.22-.21.48-.33.79-.35 1.5-.1 2.57-.41 3.2-.92.64-.51.95-1.22.95-2.12 0-.8-.22-1.42-.68-1.85-.45-.43-1.12-.65-2-.65-1.09 0-2.2.42-3.33 1.26-.25.19-.52.26-.82.23-.3-.03-.54-.16-.72-.38l-1.45-1.76c-.21-.23-.29-.49-.26-.79.03-.3.17-.54.42-.72 2.03-1.48 4.18-2.22 6.44-2.22 2.46 0 4.42.56 5.87 1.68 1.45 1.12 2.17 2.71 2.17 4.79 0 2.4-1.24 4.12-3.73 5.14-.04.02-.06.06-.06.11s.02.09.06.11c1.35.41 2.44 1.1 3.25 2.06.81.97 1.22 2.17 1.22 3.6s-.4 2.65-1.2 3.71c-.8 1.06-1.85 1.84-3.14 2.35-1.3.51-2.73.77-4.31.77Z"/></g></g></svg>