<svg id="_レイヤー_2" xmlns="http://www.w3.org/2000/svg" width="313.55" height="97.48" viewBox="0 0 313.55 97.48"><defs><style>.cls-1{fill:#004ea2}.cls-2{fill:#0062b1}.cls-3{fill:#231815}</style></defs><g><g><g><g><path class="cls-3" d="M93.41 8.26c0-.53-.43-.96-.96-.96h-5.98c-.53 0-.96-.43-.96-.96V1.66c0-.53.43-.96.96-.96h21.04c.53 0 .96.44.96.96V6.33c0 .53-.43.96-.96.96h-5.98c-.53 0-.96.44-.96.96v24.01c0 .53-.43.96-.96.96h-5.24c-.53 0-.96-.43-.96-.96V8.26ZM114.22 1.66c0-.53.43-.96.96-.96h18.62c.53 0 .96.44.96.96V6.11c0 .53-.43.96-.96.96h-11.51c-.53 0-.96.44-.96.96v4.67c0 .53.43.96.96.96h9.07c.53 0 .96.44.96.96v4.44c0 .53-.43.96-.96.96h-9.07c-.53 0-.96.43-.96.96v4.91c0 .52.43.96.96.96h11.75c.53 0 .96.43.96.96v4.45c0 .53-.43.96-.96.96h-18.86c-.53 0-.96-.43-.96-.96V1.66ZM173.78 1.66c0-.53.43-.96.96-.96h5.24c.53 0 .96.44.96.96V12.62c0 .53.43.96.96.96h7.69c.53 0 .96-.44.96-.96V1.66c0-.53.43-.96.96-.96h5.24c.53 0 .96.44.96.96v30.6c0 .53-.43.96-.96.96h-5.24c-.53 0-.96-.43-.96-.96v-11.14c0-.53-.43-.96-.96-.96h-7.69c-.53 0-.96.43-.96.96v11.14c0 .53-.43.96-.96.96h-5.24c-.53 0-.96-.43-.96-.96V1.66ZM140.27 16.91v-.09c0-9.24 6.47-16.82 15.74-16.82 5.37 0 8.7 1.82 11.41 4.53.16.16.31.68 0 1.09l-.06.06-2.9 3.6s-.21.37-.57.48c-.39.12-.73.03-.85-.08-2.22-1.92-4.01-3.07-6.86-3.07-5.09 0-8.5 4.63-8.5 10.21v.09c0 5.58 3.32 10.14 8.5 10.14 3.31 0 4.89-1.25 7.22-3.43.09-.09.39-.16.56-.11.32.11.47.31.47.31l3.21 3.5s.21.2.2.53c0 .28-.15.48-.23.57-3.09 3.32-6.19 5.23-11.86 5.23-8.88 0-15.48-7.39-15.48-16.73"/></g><g><path class="cls-2" d="M68.62,16.86L55.5,1.49c-.42-.5-.93-.9-1.87-.9h-7.9c-.39,0-.62,.54-.32,.9l13.12,15.36-13.11,15.37c-.27,.31-.11,.9,.32,.9h7.9c.92,0,1.44-.41,1.86-.9l13.12-15.36Z"/><path class="cls-3" d="M81.04.59h-7.9c-.88 0-1.27.22-1.69.72l-6.08 7.1 5.04 5.9L81.36 1.49c.31-.41.13-.9-.32-.9M81.35 32.21l-10.94-12.81-5.04 5.9 6.11 7.12c.42.5 1.05.69 1.65.69h7.9c.42 0 .61-.56.32-.9"/></g><path class="cls-2" d="M14.19 9.12v15.34l.04 1.48h-2.64v-1.51H2.7v1.51H.04c.03-.57.04-1.07.04-1.48V9.12c0-.43-.01-.92-.04-1.46H14.23c-.03.34-.04.82-.04 1.46m-2.6.87H2.7v4.7H11.59v-4.7ZM2.7 22.12H11.59v-5.14H2.7v5.14ZM24.23 17.13v7.91c0 .44.01.75.04.92h-2.21c.02-.17.02-.48.02-.92v-7.7c-.96.12-1.76.19-2.39.24l-.95.15-.24-2.21c.37.03.78.04 1.22.02l.52-.02c.5-.57.96-1.15 1.38-1.72-.9-1.06-1.89-2.1-2.97-3.13l1.18-1.71.75.76c.43-.6.83-1.23 1.2-1.92.37-.67.62-1.19.75-1.59l1.87 1.22c-.07.07-.15.17-.23.31-.49.92-1.23 2.08-2.22 3.5.29.32.56.63.82.95 1.26-1.87 2.06-3.22 2.38-4.1l1.87 1.2-.28.33c-.35.58-.77 1.25-1.27 2.01-.5.75-.99 1.46-1.47 2.1-.48.65-.89 1.2-1.24 1.62 1.09-.09 1.85-.16 2.28-.21-.17-.59-.37-1.12-.6-1.61l1.68-.47c.24.49.5 1.14.78 1.99.28.83.51 1.64.68 2.42l-1.87.58-.19-1.07-1.31.17Zm-5.55 6.85c.24-.71.44-1.54.59-2.47.15-.93.24-1.94.27-3.01l1.89.34-.06.43c-.1 2.29-.39 4.17-.88 5.63-.7-.38-1.3-.68-1.8-.93m7.82-5.69c.16.5.32 1.19.49 2.07.17.88.31 1.76.41 2.63l-1.91.54c-.02-.63-.09-1.4-.23-2.31-.14-.91-.28-1.73-.44-2.46l1.68-.47Zm10.77 5.12c.67 0 1.15-.02 1.42-.04v2.32c-.26-.03-.73-.04-1.42-.04h-9.16c-.69 0-1.17.02-1.44.04v-2.32c.27.03.75.04 1.44.04h3.7v-2.71h-2.39c-.59 0-1 0-1.25.02v-2.22c.24.01.66.02 1.25.02h2.39v-1.59l-.04-.73c.31 0 .75 0 1.3.03.55.02.94.05 1.17.08-.03.23-.04.44-.04.62v1.59h2.47c.57 0 .99 0 1.25-.02v2.22c-.26-.01-.67-.02-1.25-.02h-2.47v2.71h3.07Zm-9.74-8.96c1.35-.22 2.59-.58 3.72-1.08-.34-.37-.67-.78-.98-1.23-.31-.46-.57-.9-.79-1.35-.21-.45-.39-.83-.52-1.19h-.13l-1.12.02v-2.12l1.12.02h7.01l.21-.25c.73.53 1.41 1.08 2.02 1.69l-.3.14c-.13.39-.32.83-.58 1.34-.26.51-.59 1.02-.99 1.55-.4.52-.82 1-1.27 1.42.83.43 2.07.78 3.72 1.05-.35.83-.63 1.57-.86 2.21-.96-.23-1.82-.48-2.59-.75-.77-.27-1.45-.62-2.05-1.03-.44.3-1.02.6-1.72.89-.7.3-1.68.61-2.92.94-.16-.43-.49-1.19-.99-2.28m7.72-4.86h-3.98c.23.51.51 1 .83 1.45.32.45.68.84 1.09 1.19.43-.34.82-.74 1.18-1.2.36-.46.65-.94.88-1.44"/></g><g><g><path class="cls-2" d="M284.43,16.86l-13.13-15.37c-.42-.5-.93-.9-1.86-.9h-7.9c-.39,0-.62,.54-.32,.9l13.12,15.36-13.11,15.37c-.28,.31-.11,.9,.32,.9h7.9c.92,0,1.44-.41,1.86-.9l13.12-15.36Z"/><path class="cls-3" d="M296.84.59h-7.9c-.89 0-1.27.22-1.69.72l-6.08 7.1 5.04 5.9 10.95-12.81c.3-.41.12-.9-.32-.9M297.15 32.21l-10.94-12.81-5.04 5.9 6.12 7.12c.42.5 1.05.69 1.65.69h7.9c.42 0 .61-.56.32-.9"/></g><path class="cls-3" d="M217.2 33.24c-.36 0-.68-.13-.95-.41-.27-.27-.41-.6-.41-.99V11.15c0-.39.14-.71.41-.99.27-.27.59-.41.95-.41h3.03c.39 0 .74.13 1.05.39.31.26.49.58.55.97l.23 2.25c0 .05.03.08.1.08s.11-.01.14-.04c2.28-2.23 4.67-3.33 7.18-3.33 2.38 0 4.15.79 5.3 2.41 1.15 1.61 1.73 3.87 1.73 6.79v12.57c0 .39-.14.72-.41.99-.27.27-.59.41-.95.41h-4.35c-.36 0-.68-.13-.95-.41-.27-.27-.41-.6-.41-.99v-11.72c0-1.5-.21-2.54-.62-3.12-.41-.58-1.09-.87-2.02-.87-.73 0-1.36.14-1.9.43-.54.28-1.18.78-1.9 1.48-.08.08-.12.17-.12.27v13.54c0 .39-.13.72-.41.99-.27.27-.6.41-.99.41h-4.27ZM251.34 33.79c-3.34 0-6.09-1.06-8.25-3.18-2.16-2.12-3.24-5.01-3.24-8.66 0-1.79.3-3.44.91-4.95.61-1.51 1.41-2.77 2.4-3.77 1-.99 2.14-1.76 3.42-2.32 1.28-.56 2.61-.83 3.98-.83 3.16 0 5.57 1.01 7.22 3.03 1.66 2.02 2.48 4.66 2.48 7.92 0 .54-.03 1.09-.08 1.63-.05.41-.23.75-.54.99-.31.25-.66.37-1.05.37h-11.73c-.13 0-.18.06-.15.2.64 2.79 2.51 4.19 5.59 4.19 1.19 0 2.38-.26 3.57-.78.34-.18.69-.21 1.07-.1.38.12.65.33.84.64l1.01 1.86c.18.34.23.69.14 1.07-.09.38-.31.66-.64.87-2.2 1.22-4.52 1.82-6.95 1.82Zm-4.74-14.48c0 .08.05.12.16.12h7.33c.13 0 .2-.06.2-.19-.03-1.17-.33-2.08-.92-2.76-.58-.67-1.47-1.01-2.65-1.01-1.01 0-1.89.32-2.64.97-.98.85-1.47 1.81-1.47 2.87ZM308.65 33.79c-2.74 0-4.76-.78-6.06-2.35-1.29-1.57-1.94-3.76-1.94-6.58v-6.3c0-.1-.05-.15-.15-.15h-1.52c-.39 0-.72-.14-.99-.41-.27-.27-.41-.6-.41-.99v-2.48c0-.39.14-.73.41-1.01.27-.29.6-.44.99-.46l1.9-.16c.13-.03.19-.1.19-.2l.02-2.14c.05-.39.23-.73.53-.97.3-.27.65-.39 1.06-.39h3.68c.39 0 .72.13.99.41.27.27.41.59.41.95v2.14c0 .1.05.15.16.15h3.76c.39 0 .72.14.99.4.27.28.41.61.41.99v2.76c0 .39-.13.72-.41.99-.27.27-.6.41-.99.41h-3.76c-.1 0-.16.05-.16.15v6.22c0 1.19.25 2.07.76 2.64.51.57 1.2.86 2.08.86.23 0 .48-.03.74-.08.36-.05.7.02 1.03.21.32.19.52.46.6.8l.54 2.41c.03.13.04.25.04.35 0 .26-.08.51-.23.74-.18.34-.46.54-.85.62-1.24.31-2.51.46-3.81.46Z"/></g></g><path class="cls-3" d="M87.98 40.58v8.98h-1.34v-.66h-4.64v.68h-1.28v-9h7.26Zm-5.97 3.5h4.64v-2.24h-4.64v2.24Zm4.64 1.23h-4.64v2.34h4.64v-2.34ZM92.35 46.24c-.1.98-.32 2.03-.63 2.69-.22-.13-.68-.35-.95-.45.3-.62.47-1.55.55-2.42l1.02.18Zm8.03-5.48c-.38 1.11-.96 1.99-1.7 2.7.62.36 1.35.62 2.14.79-.26.24-.59.71-.76 1-.88-.24-1.66-.58-2.33-1.05-.71.47-1.51.82-2.38 1.1-.13-.29-.42-.74-.66-1 .2.45.37.9.43 1.23l-.88.39c-.03-.15-.07-.33-.13-.53l-.53.04v4.27h-1.08v-4.2l-1.51.09-.1-1.07.75-.03c.15-.2.32-.43.49-.67-.3-.45-.8-1-1.23-1.42l.59-.85c.07.06.16.14.24.21.29-.57.58-1.26.76-1.82l1.08.4c-.38.71-.79 1.51-1.17 2.1.13.14.25.29.35.42.36-.58.69-1.18.93-1.69l1.01.47c-.58.91-1.29 1.96-1.95 2.81l1-.04c-.12-.27-.24-.52-.37-.75l.82-.35c.17.29.34.62.48.96.75-.2 1.45-.49 2.08-.86-.49-.49-.9-1.06-1.23-1.7l.67-.22h-1.19v-1.06h4.32l.22-.05.83.38Zm-5.91 5.22c.26.6.53 1.36.65 1.88l-.92.34c-.09-.52-.36-1.33-.61-1.94l.88-.27Zm3.9 2.35h2.29v1.09h-5.9v-1.09h2.39v-1.22h-1.77v-1.1h1.77v-1.24h1.22v1.24h1.86v1.1h-1.86v1.22Zm-1.7-6.83c.25.46.59.88 1 1.24.41-.37.75-.79 1.02-1.24h-2.03ZM107.41 41.72s-.02.03-.03.05h2.1c.32 0 .67-.05.91-.13l1.06.65c-.11.2-.26.49-.34.75-.28.93-.88 2.32-1.82 3.49-.99 1.21-2.26 2.17-4.22 2.94l-1.23-1.11c2.14-.64 3.3-1.55 4.21-2.58.71-.82 1.32-2.07 1.48-2.85h-2.93c-.7.91-1.61 1.83-2.63 2.53l-1.17-.87c1.83-1.12 2.73-2.47 3.26-3.36.16-.26.38-.74.47-1.1l1.52.51c-.24.36-.51.83-.64 1.06M115.96 41.42h5.74c.26 0 .66 0 1.03-.02-.02.31-.02.7-.02 1.02v5.11c0 .41.02 1.41.02 1.45h-1.44s.01-.26.01-.56h-5.03c.01.29.01.53.01.56h-1.44c0-.05.03-.96.03-1.46v-5.1c0-.29 0-.72-.02-1.02.43.01.82.02 1.11.02m.31 5.66h5.04v-4.33h-5.04v4.33ZM133.36 42.37c-.35.81-.94 1.93-1.64 2.87 1.03.9 2.3 2.24 2.91 2.99l-1.19 1.03c-.68-.94-1.65-2-2.63-2.95-1.11 1.17-2.49 2.25-3.93 2.93l-1.07-1.13c1.68-.62 3.3-1.9 4.28-2.99.69-.78 1.33-1.82 1.56-2.56h-3.54c-.44 0-1.01.06-1.23.07v-1.48c.28.04.92.07 1.23.07h3.69c.45 0 .87-.06 1.08-.14l.85.64c-.08.11-.27.44-.37.64M138.38 43.53h6.84c.22 0 .68-.02.95-.06v1.36c-.26-.02-.66-.03-.95-.03h-2.52c-.06 1.07-.29 1.95-.67 2.68-.37.72-1.17 1.53-2.1 2l-1.22-.89c.74-.28 1.47-.89 1.89-1.49.43-.65.6-1.43.64-2.31h-2.87c-.31 0-.71.02-1 .04v-1.37c.31.03.68.06 1 .06m1.33-2.66h4.2c.35 0 .77-.02 1.13-.07v1.35c-.35-.02-.76-.04-1.13-.04h-4.19c-.37 0-.8.02-1.13.04v-1.35c.35.05.77.07 1.12.07M151.79 45.53l-1.27.48c-.18-.56-.7-1.95-.95-2.41l1.25-.45c.26.54.76 1.79.97 2.38m5.05-1.41c-.27 1.06-.71 2.14-1.42 3.06-.97 1.26-2.28 2.13-3.5 2.59l-1.1-1.12c1.15-.3 2.6-1.1 3.46-2.18.71-.89 1.21-2.28 1.34-3.58l1.46.47c-.12.33-.19.55-.25.76m-2.75.77-1.25.44c-.12-.51-.58-1.77-.85-2.32l1.24-.4c.2.45.71 1.81.86 2.29M164.79 41.72s-.02.03-.03.05h2.1c.32 0 .67-.05.91-.13l1.06.65c-.11.2-.26.49-.34.75-.28.93-.88 2.32-1.81 3.49-.99 1.21-2.26 2.17-4.22 2.94l-1.23-1.11c2.14-.64 3.3-1.55 4.21-2.58.71-.82 1.32-2.07 1.48-2.85h-2.93c-.7.91-1.61 1.83-2.63 2.53l-1.17-.87c1.83-1.12 2.74-2.47 3.26-3.36.16-.26.38-.74.47-1.1l1.52.51c-.24.36-.51.83-.64 1.06"/></g><g><g><path class="cls-3" d="M99.95 78.71c0 .31-.1.57-.31.78-.2.21-.46.32-.76.32h-6.84c-.1 0-.15.04-.15.12v16.48c0 .28-.11.53-.32.75-.21.21-.46.32-.75.32h-2.29c-.29 0-.54-.11-.75-.32-.21-.21-.32-.46-.32-.75v-26.4c0-.31.11-.56.32-.78.21-.21.46-.32.75-.32h10.35c.31 0 .56.11.76.32.21.21.31.47.31.78v8.7Zm-4.24-6.59c0-.08-.04-.12-.12-.12h-3.54c-.1 0-.15.04-.15.12v.73c0 .08.05.12.15.12h3.54c.08 0 .12-.04.12-.12v-.73Zm-3.82 4.52c0 .08.05.12.15.12h3.54c.08 0 .12-.04.12-.12v-.79c0-.08-.04-.12-.12-.12h-3.54c-.1 0-.15.04-.15.12v.79Zm21.33-7.72c.3 0 .56.11.76.32.2.21.31.47.31.78v22.89c0 1.02-.1 1.81-.29 2.39-.19.58-.56 1.04-1.11 1.39-.73.47-1.86.73-3.39.79h-.03c-.28 0-.54-.1-.76-.31-.22-.2-.37-.46-.43-.76-.14-.71-.34-1.43-.61-2.14-.02-.04-.04-.06-.08-.06-.03 0-.06.01-.08.03-.24.33-.47.64-.67.95-.18.28-.42.48-.7.59-.29.11-.57.12-.86.02-1.77-.67-3.22-1.71-4.36-3.11-.06-.06-.12-.06-.18 0-1.08 1.2-2.64 2.2-4.67 2.99-.3.12-.61.13-.91.03-.31-.1-.56-.27-.77-.52-.38-.47-.78-.91-1.19-1.31-.12-.12-.18-.26-.18-.43 0-.04.01-.09.03-.15.04-.22.17-.37.39-.43 2.04-.67 3.46-1.6 4.27-2.78.06-.06.04-.09-.06-.09h-3.45c-.31 0-.56-.11-.78-.32-.21-.21-.32-.47-.32-.78v-1.01c0-.3.11-.56.32-.78.21-.21.47-.32.78-.32h4.18c.08 0 .12-.04.12-.12v-.92c0-.1-.04-.15-.12-.15h-3.75c-.31 0-.57-.11-.78-.32-.21-.21-.32-.46-.32-.75v-.95c0-.29.11-.53.32-.75.21-.21.47-.32.78-.32h.64c.1 0 .13-.04.09-.12-.08-.22-.16-.44-.25-.64-.12-.25-.13-.49-.02-.75.11-.25.29-.42.54-.5l1.41-.4c.3-.08.61-.06.92.05.3.11.54.31.7.6.33.59.57 1.14.73 1.65.02.08.07.12.15.12h2.56c.08 0 .14-.04.18-.12.35-1 .59-1.78.73-2.35.02-.08-.02-.12-.12-.12h-.24c-.3 0-.56-.11-.76-.32s-.3-.47-.3-.78v-8.82c0-.31.1-.56.3-.78.2-.21.46-.32.76-.32h10.56Zm-4.76 19.99c0 .3-.11.56-.32.78-.21.21-.47.32-.78.32h-4.03s-.03.01-.04.03c0 .02 0 .04.02.06 1.16 1.32 2.79 2.23 4.88 2.71.1.02.17.09.21.2.04.11.02.21-.06.29-.02.04-.01.06.03.06h1.01c.18 0 .3-.04.37-.12.06-.08.09-.21.09-.4v-12.79c0-.08-.05-.12-.15-.12h-6.07s-.03.01-.03.03l2.62.67c.24.06.41.21.5.46.09.24.06.47-.11.67-.16.24-.31.46-.43.64-.06.08-.04.12.06.12h.88c.31 0 .56.11.78.32.21.21.32.46.32.75v.95c0 .29-.11.53-.32.75-.21.21-.47.32-.78.32h-4.42c-.1 0-.15.05-.15.15v.92c0 .08.05.12.15.12h4.67c.31 0 .56.11.78.32.21.21.32.47.32.78v1.01Zm1.37-16.79c0-.08-.05-.12-.15-.12h-3.66c-.08 0-.12.04-.12.12v.73c0 .08.04.12.12.12h3.66c.1 0 .15-.04.15-.12v-.73Zm-3.81 3.6c-.08 0-.12.04-.12.12v.88c0 .08.04.12.12.12h3.66c.1 0 .15-.04.15-.12v-.88c0-.08-.05-.12-.15-.12h-3.66ZM146.21 71.94c0 .28-.11.53-.32.75-.21.21-.47.32-.78.32h-7.45c-.1 0-.15.05-.15.15v2.44c0 .1.05.15.15.15h6.47c.29 0 .54.11.75.32.21.21.32.46.32.75v18.74c0 .3-.11.56-.32.78-.21.21-.46.32-.75.32h-2.44c-.3 0-.57-.11-.78-.32-.21-.21-.32-.47-.32-.78v-.43c0-.1-.04-.15-.12-.15h-16.97c-.08 0-.12.05-.12.15v.43c0 .3-.11.56-.32.78-.21.21-.47.32-.78.32h-2.2c-.31 0-.56-.11-.78-.32-.21-.21-.32-.47-.32-.78v-18.74c0-.29.1-.53.32-.75.21-.21.47-.32.78-.32h5.92c.08 0 .12-.05.12-.15v-2.44c0-.1-.04-.15-.12-.15h-7.14c-.31 0-.56-.11-.78-.32-.22-.21-.32-.46-.32-.75v-2.2c0-.3.11-.56.32-.78.21-.21.47-.32.78-.32h26.25c.31 0 .56.11.78.32.21.21.32.47.32.78v2.2Zm-22.83 18.74c0 .1.04.15.12.15h16.97c.08 0 .12-.05.12-.15v-3.3c0-.08-.04-.11-.12-.09-.3.04-.66.06-1.07.06h-2.35c-1.69 0-2.8-.34-3.33-1.01-.53-.67-.79-1.95-.79-3.84v-2.44c0-.1-.05-.15-.15-.15h-2.01c-.1 0-.15.05-.15.15-.1 3.68-1.47 6.42-4.12 8.21-.26.16-.55.22-.85.17-.31-.05-.57-.19-.79-.41-.37-.32-.83-.71-1.38-1.16-.06-.06-.09-.05-.09.03v3.78Zm3.02-10.62c0-.1-.05-.15-.15-.15h-2.75c-.08 0-.12.05-.12.15v5.13c0 .08.04.1.12.06 1.81-1.22 2.78-2.95 2.9-5.19Zm6.44-4.3c.08 0 .12-.05.12-.15v-2.44c0-.1-.04-.15-.12-.15h-2.07c-.1 0-.15.05-.15.15v2.44c0 .1.05.15.15.15h2.07Zm7.63 7.02c.08.04.12.02.12-.06v-2.66c0-.1-.04-.15-.12-.15h-3.05c-.1 0-.15.05-.15.15v2.41c0 .43.03.69.09.79.06.1.21.15.46.15h1.04c.2 0 .36-.05.46-.15.33-.37.62-.55.88-.55.1 0 .2.02.28.06Z"/><path class="cls-1" d="M154.15 94.52c-.3 0-.56-.11-.78-.32-.21-.21-.32-.47-.32-.78v-1.01c0-.71.27-1.31.79-1.8 2.97-2.73 5.2-5.06 6.68-6.99 1.48-1.93 2.23-3.65 2.23-5.16 0-1.06-.27-1.87-.81-2.44-.54-.57-1.28-.86-2.21-.86-1.04 0-2.09.5-3.17 1.5-.22.2-.48.3-.78.3s-.54-.1-.75-.3l-1.5-1.47c-.22-.22-.34-.48-.34-.78s.11-.54.34-.75c1.04-.98 2.1-1.7 3.17-2.15 1.08-.46 2.34-.69 3.78-.69 2.26 0 4.1.67 5.51 2 1.41 1.33 2.12 3.1 2.12 5.29 0 3.28-2.31 7.24-6.93 11.9 0 .02 0 .04.02.06 0 .02.02.03.04.03 1.48-.2 2.7-.31 3.63-.31h3.21c.3 0 .56.11.76.32.2.21.3.47.3.78v2.5c0 .3-.1.56-.3.78-.21.21-.46.32-.76.32h-13.95ZM186.27 91.79c-1.49 2.11-3.5 3.16-6.01 3.16s-4.51-1.05-6-3.16c-1.48-2.11-2.22-5.11-2.22-9.02s.73-6.87 2.21-8.89c1.47-2.02 3.47-3.04 6-3.04s4.53 1.02 6.03 3.07c1.5 2.04 2.24 5 2.24 8.86s-.75 6.91-2.24 9.02Zm-7.2-1.5c.34.24.73.35 1.18.35s.84-.12 1.18-.35c.34-.23.65-.63.95-1.19.29-.56.52-1.37.67-2.42.15-1.06.23-2.36.23-3.91s-.08-2.81-.23-3.86c-.15-1.05-.38-1.83-.67-2.37-.29-.53-.61-.9-.95-1.11-.34-.21-.73-.32-1.18-.32s-.83.11-1.16.32c-.33.21-.63.58-.92 1.11-.29.53-.51 1.32-.66 2.37-.15 1.05-.23 2.34-.23 3.86s.08 2.85.23 3.91c.15 1.06.37 1.87.64 2.42.28.56.58.96.91 1.19ZM192.18 94.52c-.3 0-.56-.11-.78-.32-.21-.21-.32-.47-.32-.78v-1.01c0-.71.26-1.31.79-1.8 2.97-2.73 5.2-5.06 6.68-6.99 1.49-1.93 2.23-3.65 2.23-5.16 0-1.06-.27-1.87-.81-2.44-.54-.57-1.28-.86-2.21-.86-1.04 0-2.1.5-3.17 1.5-.22.2-.48.3-.78.3s-.54-.1-.75-.3l-1.5-1.47c-.22-.22-.33-.48-.33-.78s.11-.54.33-.75c1.04-.98 2.1-1.7 3.17-2.15 1.08-.46 2.34-.69 3.79-.69 2.26 0 4.09.67 5.51 2 1.41 1.33 2.12 3.1 2.12 5.29 0 3.28-2.31 7.24-6.93 11.9 0 .02 0 .04.02.06 0 .02.03.03.04.03 1.49-.2 2.7-.31 3.63-.31h3.2c.31 0 .56.11.76.32.2.21.3.47.3.78v2.5c0 .3-.1.56-.3.78-.2.21-.46.32-.76.32h-13.95ZM217.51 94.95c-3.01 0-5.42-.82-7.23-2.47-.25-.22-.37-.51-.37-.86 0-.3.09-.57.28-.79l1.28-1.74c.16-.24.39-.38.67-.4.29-.02.54.05.77.21 1.32 1.04 2.66 1.56 4.03 1.56 1.1 0 1.97-.23 2.61-.69s.96-1.11.96-1.97c0-1-.34-1.75-1.02-2.27-.68-.52-1.96-.82-3.83-.9-.3-.02-.56-.13-.78-.34-.21-.2-.32-.46-.32-.76v-1.74c0-.31.11-.57.32-.78.21-.21.47-.33.78-.35 1.49-.1 2.54-.41 3.18-.92.63-.51.95-1.21.95-2.11 0-.79-.22-1.4-.67-1.83-.45-.43-1.11-.64-1.98-.64-1.08 0-2.18.42-3.3 1.25-.24.18-.51.26-.81.23-.3-.03-.54-.16-.72-.38l-1.43-1.74c-.21-.22-.29-.48-.26-.78.03-.3.17-.53.41-.72 2.01-1.46 4.14-2.2 6.38-2.2 2.44 0 4.38.55 5.81 1.66 1.43 1.11 2.15 2.69 2.15 4.75 0 2.38-1.23 4.08-3.69 5.1-.04.02-.06.05-.06.11s.02.09.06.11c1.34.41 2.42 1.09 3.22 2.05.8.96 1.2 2.15 1.2 3.57s-.39 2.63-1.19 3.68c-.79 1.05-1.83 1.83-3.12 2.33-1.28.51-2.71.76-4.27.76Z"/></g><path class="cls-1" d="M0 58.09H313.55V60.92H0z"/></g></svg>