<svg xmlns="http://www.w3.org/2000/svg" viewBox="0 0 269.34 201.62"><defs><style>.cls-1{fill:#fa69b3;}.cls-2{fill:#fa46a1;}.cls-3{fill:#fa99c9;}.cls-4{fill:#29b900;}.cls-5{fill:#6ad000;}.cls-6{fill:#aae700;}</style></defs><title>indie_games_sownImg</title><g id="レイヤー_5" data-name="レイヤー 5"><polygon class="cls-1" points="194.72 53.02 120.33 53.02 83.36 105.71 231.69 105.71 194.72 53.02"/><polygon class="cls-2" points="157.53 0 121.23 51.73 193.82 51.73 157.53 0"/><polygon class="cls-3" points="269.34 159.37 232.59 107 82.45 107 45.71 159.37 269.34 159.37"/><path class="cls-4" d="M122.18,18.64,120.11,22a23.48,23.48,0,0,0-8.94-1.82c-9.11-.05-15.86,5.23-17.89,12.53,3.23-4.07,8.44-6.66,14.83-6.62a23.67,23.67,0,0,1,8.5,1.64l-1.5,2.45,9-3.21Z"/><path class="cls-5" d="M93.1,41.58a18.29,18.29,0,0,1,.18-8.85,17.06,17.06,0,0,0-3.1,14.57c1.52,6.8,6.51,12.45,12.76,15.51l3.31-5.41C99.81,54.36,94.64,48.58,93.1,41.58Z"/><path class="cls-5" d="M84.91,81.61,82.84,85a23.86,23.86,0,0,0-8.94-1.82C64.79,83.13,58,88.41,56,95.7c3.23-4.06,8.44-6.65,14.83-6.61a23.46,23.46,0,0,1,8.5,1.64l-1.5,2.45,9-3.21Z"/><path class="cls-6" d="M55.83,104.56A18.22,18.22,0,0,1,56,95.7a17.08,17.08,0,0,0-3.11,14.57c1.52,6.81,6.52,12.46,12.77,15.52L69,120.38C62.54,117.33,57.37,111.55,55.83,104.56Z"/><polygon class="cls-4" points="178.41 164.51 157.53 151.66 136.64 164.51 147.24 164.51 147.24 176.72 167.81 176.72 167.81 164.51 178.41 164.51"/><path d="M143.68,16.39c-1.83-.66-2.67-1.52-2.67-3.18,0-1.82,1.5-3.32,4-3.32,2,0,3.42.73,4.07,2.32l-1.64,1.18a2.38,2.38,0,0,0-2.36-1.66c-1.26,0-1.9.62-1.9,1.37s.43,1.05,1.48,1.4l1.8.58c1.85.63,2.95,1.65,2.95,3.46,0,2.28-1.55,3.63-4.31,3.63a4.43,4.43,0,0,1-4.55-3.05L142.21,18a3.18,3.18,0,0,0,2.87,2.26c1.32,0,2-.6,2-1.5s-.51-1.34-1.74-1.79Z"/><path d="M151.09,16c0-3.56,2-6.11,5.27-6.11s5.24,2.56,5.24,6.11-2,6.17-5.24,6.17S151.09,19.63,151.09,16Zm8.25,0c0-2.58-1.22-4.19-3-4.19s-3,1.61-3,4.19,1.25,4.25,3,4.25S159.34,18.6,159.34,16Z"/><path d="M171.37,21.88l-1.41-7a18.44,18.44,0,0,1-.31-2.57h0a22.21,22.21,0,0,1-.32,2.57l-1.38,7h-2.55l-2.59-11.71H165l1.45,7.09a16.86,16.86,0,0,1,.21,2.39h.05a22.7,22.7,0,0,1,.27-2.36l1.45-7.12h2.38l1.54,7.1a21.22,21.22,0,0,1,.27,2.33h.05c0-.76.1-1.77.19-2.3l1.38-7.13h2.14l-2.54,11.71Z"/><path d="M184.49,21.88,181,15.13a18.77,18.77,0,0,1-1-2.75h0c.07.74.28,2.7.28,4.07v5.43h-2.11V10.17h2.68l3.47,6.71a15.43,15.43,0,0,1,1.11,2.69l.06,0a33.21,33.21,0,0,1-.31-3.8V10.17h2.1V21.88Z"/><path d="M143.07,40.63c4.68-1,7.62-4.1,8.15-8.14-2.28,0-7.07,0-9.49.17l0-2.06c1.27,0,3.43.06,5.56.06,2,0,3.89,0,5.09-.06l1.14.86c-.8,5.69-3.54,9.32-8.78,10.88Z"/><path d="M162.89,37.06a6.57,6.57,0,0,1-4.11,5.58l-1.44-1.45c3.53-1.15,4-3.34,4-6.1v-.3l1.81.07c0,.65-.1,1.25-.18,1.81a4.34,4.34,0,0,0,2.78-2.75c-2.87,0-6.16,0-8.47.1l0-1.71c1.11.06,2.86.08,4.61.08,2,0,4,0,4.95-.08l1.2,1a8.57,8.57,0,0,1-3.9,5Z"/><path d="M177.31,42.64c.05-1.63.06-3.66.06-5.45V35.6a48.68,48.68,0,0,1-5.07,3l-1.43-1.76c3.58-1.36,8.83-4.76,10.72-7.61l1.88,1.32a29,29,0,0,1-4,3.62c0,.7,0,1.58,0,2.54,0,1.92,0,4.17.08,6Z"/><path d="M187.46,41.22a6.44,6.44,0,0,0,4.23-6.36c-2.49,0-4.86,0-5.85.06V33c1,0,3.34.06,5.85.06,0-1.05,0-2.26-.09-3.48l2.15,0c-.09,1.22-.12,2.33-.14,3.45,2.19,0,4.28,0,5.32-.06v1.92c-1,0-3.08,0-5.33-.06a8.55,8.55,0,0,1-4.22,7.78Z"/><path d="M202.73,37.54c0-1.58.06-3.29.06-4.87,0-1,0-2,0-2.85l2.06,0c0,.8,0,1.68,0,2.63,0,1.62,0,3.38.07,5Zm1.61,3.65c3.87-.65,5.47-2,5.5-5.24,0-.73,0-1.58,0-2.51,0-1.14,0-2.4,0-3.67l2.07,0c0,2.13-.06,4.47-.06,6.11,0,3-1.22,5.89-5.84,7.12Z"/><path d="M227,42.09a21.76,21.76,0,0,0-4.28-3.89,21.85,21.85,0,0,1-5.36,4.1l-1.74-1.58a15.81,15.81,0,0,0,8.69-8.26c-2,0-5.21,0-6.74.14V30.54c1,0,2.35.08,3.83.08s3.06,0,4.45-.08l1.15.95a23.46,23.46,0,0,1-3,5.25,43.57,43.57,0,0,1,4.83,3.77Z"/><path d="M234.82,42.79c.06-1.68.09-5,.09-8,0-2.37,0-4.52,0-5.48l2.1,0c0,.88-.06,2.93-.06,5.27L238,33.44a41.49,41.49,0,0,1,5.17,2.79L242,38a31.15,31.15,0,0,0-5.1-3v2.2c0,2.2,0,4.32,0,5.57Z"/><path d="M79.35,139.5V124.61H84.2v1.67h-3V139.5Z"/><path d="M92.91,139.5a4.78,4.78,0,0,1-4.08-1.6,5.37,5.37,0,0,1-1.65,1.93L85.88,138a4.94,4.94,0,0,0,1.79-1.6v-3.87H86.1v-2h3.62v5.46a2.63,2.63,0,0,0,1.91,1.43l-.9-1.69a9.67,9.67,0,0,0,2.78-.56H90.33v-1.62h2.29v-.77h-2v-1.53h2v-.6h-.49c-1.23,0-1.52-.15-1.52-1.11v-2.34H93.2v-.68H90.64V124.9h4.45v3.53h-1l1.47.65c-.21,1.24-.43,1.5-.92,1.5v.6h2v-.7a.82.82,0,0,1-.89-.92v-2.43h2.77v-.68H95.78V124.9h4.62v3.53h-1l1.46.65c-.3,1.33-.54,1.5-1.57,1.5h-.64v.6h2v1.53h-2v.77H101v1.62H98a24.28,24.28,0,0,1,2.92.68l-1,1.59,1.36,0-.7,2.15Zm-4.66-10.74a17.55,17.55,0,0,0-2.2-2.72l1.64-1.36a18,18,0,0,1,2.1,2.78Zm9.15,6.34H94.05l1,1a8.44,8.44,0,0,1-3,1.31,8,8,0,0,0,1,.05l6.57-.07c-1.59-.66-3.17-1.19-3.17-1.19Zm-4.92-6.67v.5c0,.2,0,.29.16.29h.7c.3,0,.41-.09.44-.79Zm4.15,4.28h-2v.77h2Zm1-4.28v.51c0,.22,0,.28.2.28h.7c.36,0,.5-.11.57-.79Z"/><path d="M114.62,136.31h-7.27a10.16,10.16,0,0,1-.93,1.71l-2-1a11.58,11.58,0,0,0,2-3.82,19.83,19.83,0,0,1-2.63.76l-.78-2.2a29.72,29.72,0,0,0,6.81-1.4h-6.42v-1.91H109v-.93h-4.14V125.6H109v-1.11h2.12v1.11h3.39v1.3a11.71,11.71,0,0,0,1.38-1.76l1.78,1.16a10.25,10.25,0,0,1-2,2.11h2.42v1.91h-4.67a28.85,28.85,0,0,1-4.93,2.12,78,78,0,0,0,8.32-1.3l.84,1.93s-4.66.68-9.45,1a1.46,1.46,0,0,1-.11.36h8.64v1.69c0,3.6-.14,3.73-6.52,3.73l-.77-2h3.82c1.16,0,1.35-.1,1.35-1Zm-3.51-8.83v.93h1.46a7.44,7.44,0,0,0,1.27-.93Z"/><path d="M122.82,137.39c5.05-1.13,8.22-4.66,8.79-9.25-2.46,0-7.63.05-10.24.19l0-2.34c1.35.05,3.69.07,6,.07,2.1,0,4.2,0,5.48-.07l1.24,1c-.87,6.47-3.82,10.6-9.48,12.37ZM134,126.47a18,18,0,0,0-1.73-1.77l1-.82a16.85,16.85,0,0,1,1.78,1.7Zm1.94-.72a14,14,0,0,0-1.72-1.72l1-.78a16.1,16.1,0,0,1,1.76,1.63Z"/><path d="M152,133.14c-1.84,0-4.59-.07-7.3-.07s-5.39,0-7.13.07v-2.3c1.58,0,3.92,0,6.36,0,2.95,0,6,0,8.07,0Z"/><path d="M167,139a24.72,24.72,0,0,0-4.86-4.42,24.72,24.72,0,0,1-6.09,4.66l-2-1.79a18,18,0,0,0,9.88-9.38c-2.28,0-5.92,0-7.66.15l0-2.34c1.13,0,2.68.09,4.35.09s3.48,0,5.07-.09L167,127a26.65,26.65,0,0,1-3.43,6,48.94,48.94,0,0,1,5.49,4.28Z"/><path d="M171.17,139.71V138h3V124.81H176v14.9Z"/><path d="M191.22,127.71v2.48a45.63,45.63,0,0,1-.44,6.6,18.93,18.93,0,0,0,1.37-5.68l1.91.63a25.85,25.85,0,0,1-1.45,6.43l-1.83-1.23a9.55,9.55,0,0,1-.94,2.92L188.22,138c.73-1.76.94-3.85.94-7.9v-4.47H195v-1.14h2.39v1.14h5.82v2.08Zm5.46,11.81c-1.82,0-2.21-.43-2.21-1.83v-7h2.18V137c0,.44.1.52.65.52h.92c.75,0,.85-.15.9-2.32l2.1,1c-.27,3-.66,3.28-2.8,3.28Zm1.69-7.66a22.82,22.82,0,0,0-3-2.75l1.47-1.33a25.09,25.09,0,0,1,3.08,2.6Zm3.36,6.38a31.83,31.83,0,0,0-1.82-6.52l1.92-.93a39.06,39.06,0,0,1,1.92,6.38Z"/><path d="M220.1,137a9.11,9.11,0,0,1-1.45-.65c-.15,3.07-.51,3.22-4.37,3.27l-.7-1.82h.36c2.7,0,2.76,0,2.76-.73v-.11h-4c-.94,1.52-2.59,2.53-6.09,2.9l-.78-1.89c2.4,0,3.8-.43,4.62-1h-2.08v-.87a15,15,0,0,1-2.56,1l-.75-1.94a9.56,9.56,0,0,0,3.68-1.2h-3.25v-1.45h4.76a3.18,3.18,0,0,0,.39-.59h-4.13v-4.52h2.88v-.67H205.8V125h3.55v-.55h2.05V125h3.07v-.55h2.05V125h3.56v1.65h-3.56v.67h2.9v4.52h-6.5a2.86,2.86,0,0,1-.33.59h7.85v1.45h-2.52a10.7,10.7,0,0,0,3,1.11Zm-2.76-8.38h-8.79v.56h8.79Zm0,1.52h-8.79v.6h8.79Zm-6.06,3.8a10.9,10.9,0,0,1-1.76,1.39h1.79a5.42,5.42,0,0,0,.23-1l2,.06a6.36,6.36,0,0,1-.24.93h3.8a16.72,16.72,0,0,1-1.77-1.39Zm3.19-7.23H211.4v.67h3.07Z"/><path d="M234.49,139.84v-.73h-7.74v.73H224.7v-5.1a11.11,11.11,0,0,1-1.5.51l-.94-2a39.37,39.37,0,0,0,7.39-2.12H222.6V129.2h5.94v-1.31H224V126h4.59v-1.5h2.13V126H234v1.59a24.34,24.34,0,0,0,1.48-2.3l1.79,1.14A14.79,14.79,0,0,1,235,129.2h2.58v1.89h-4.74a17.31,17.31,0,0,1-2.24,1.2h6v7.55Zm0-5.83h-7.74v.89h7.74Zm0,2.44h-7.74v1h7.74Zm-3.82-8.56v1.31h1.59a10.69,10.69,0,0,0,1.41-1.31Z"/><path d="M115,78V64.87h4.26v1.47h-2.61V78Z"/><path d="M126.93,78a4.17,4.17,0,0,1-3.59-1.42,4.62,4.62,0,0,1-1.46,1.7l-1.14-1.62a4.4,4.4,0,0,0,1.58-1.41V71.82h-1.38V70h3.18v4.8a2.32,2.32,0,0,0,1.68,1.26L125,74.6a8.82,8.82,0,0,0,2.44-.5h-2.79V72.68h2V72H125V70.65h1.72v-.53h-.43c-1.08,0-1.34-.13-1.34-1V67.09h2.28v-.6h-2.25V65.12h3.92v3.11H128l1.29.57c-.18,1.1-.38,1.32-.81,1.32v.53h1.77V70a.72.72,0,0,1-.78-.81V67.09h2.43v-.6h-2.4V65.12h4.07v3.11h-.9l1.29.57c-.27,1.17-.48,1.32-1.38,1.32H132v.53h1.72V72H132v.68H134V74.1h-2.66a21.26,21.26,0,0,1,2.57.6l-.87,1.4,1.2,0-.62,1.9Zm-4.1-9.46a15.73,15.73,0,0,0-1.94-2.39l1.44-1.2a15.12,15.12,0,0,1,1.85,2.45Zm8,5.58h-2.95l.87.89a7.39,7.39,0,0,1-2.67,1.15,6.43,6.43,0,0,0,.89,0l5.78-.06c-1.4-.59-2.79-1-2.79-1Zm-4.33-5.87v.44c0,.18,0,.25.14.25h.61c.27,0,.36-.07.39-.69ZM130.2,72h-1.77v.68h1.77Zm.87-3.77v.45c0,.2.05.24.18.24h.62c.31,0,.43-.09.49-.69Z"/><path d="M146,75.17h-6.39a9.27,9.27,0,0,1-.83,1.5l-1.75-.92a10.22,10.22,0,0,0,1.72-3.36,16,16,0,0,1-2.31.68l-.69-1.94a26.4,26.4,0,0,0,6-1.23h-5.65V68.22h5v-.83h-3.65V65.74h3.65v-1h1.86v1h3v1.14a10.59,10.59,0,0,0,1.22-1.55l1.56,1A8.92,8.92,0,0,1,147,68.22h2.13V69.9H145a25.62,25.62,0,0,1-4.34,1.86A69,69,0,0,0,148,70.62l.74,1.7s-4.1.6-8.32.87a2.54,2.54,0,0,1-.09.31h7.6V75c0,3.17-.12,3.29-5.74,3.29l-.68-1.79h3.37c1,0,1.18-.09,1.18-.87Zm-3.09-7.78v.83h1.29a6.55,6.55,0,0,0,1.11-.83Z"/><path d="M153.25,76.11c4.44-1,7.24-4.09,7.73-8.13-2.16,0-6.71,0-9,.16V66.08c1.18,0,3.24.06,5.28.06,1.85,0,3.7,0,4.82-.06l1.1.86c-.77,5.69-3.36,9.32-8.35,10.89Zm9.83-9.61a17,17,0,0,0-1.51-1.56l.87-.72a15.79,15.79,0,0,1,1.56,1.5Zm1.72-.63a12.77,12.77,0,0,0-1.52-1.51l.85-.69a12.52,12.52,0,0,1,1.55,1.44Z"/><path d="M178.9,72.38c-1.62,0-4-.06-6.42-.06s-4.75,0-6.28.06v-2c1.4,0,3.45,0,5.6,0,2.6,0,5.31,0,7.1,0Z"/><path d="M192.17,77.57a22.37,22.37,0,0,0-4.28-3.89,21.8,21.8,0,0,1-5.36,4.1l-1.74-1.58A15.8,15.8,0,0,0,189.48,68c-2,0-5.21,0-6.74.13l0-2.06c1,0,2.36.08,3.83.08s3.06,0,4.46-.08l1.14,1a22.78,22.78,0,0,1-3,5.26A42.58,42.58,0,0,1,194,76Z"/><path d="M195.79,78.16V76.69h2.62V65.05h1.65V78.16Z"/><path d="M148.71,90.15a17.72,17.72,0,0,1-2.24-.89v1.32h-7.7V89.14a13.64,13.64,0,0,1-2.45,1l-.78-2a9.68,9.68,0,0,0,5.94-3.63h2a9.85,9.85,0,0,0,6,3.63Zm-2.5,7.91v-.69H138.9v.69h-1.81V91.6h11v6.46Zm0-4.67H138.9v2.18h7.31Zm-.63-4.61a11.5,11.5,0,0,1-3.09-2.7,12,12,0,0,1-3.08,2.7Z"/><path d="M161.39,98.07v-.52h-3.13v.51h-1.8V92.91s-.28.1-.52.16l-.32-1.15-.31.73a21.35,21.35,0,0,1-.75-2.62v8h-1.81V91a16.48,16.48,0,0,1-1.29,3.7l-.67-2.47a14.5,14.5,0,0,0,1.8-3.56h-1.44V86.92h1.6V84.55h1.81v2.37h1.27v.34a6.91,6.91,0,0,0,2.34-2.71L160,85a4.3,4.3,0,0,1-.42.66h3.79v1.52a10,10,0,0,1-2,2.93,12.84,12.84,0,0,0,2.89,1.26L163.64,93s-.14-.07-.45-.19v5.22ZM156,91.15a12.4,12.4,0,0,0,2.66-1.06,9.85,9.85,0,0,1-1.25-1.58c-.45.39-.93.72-.93.72l-.6-1.32v.73h-1.14a8.45,8.45,0,0,0,1.5,2Zm6.35,1.37A17.65,17.65,0,0,1,160,91.14a14.06,14.06,0,0,1-2.45,1.38Zm-.91,1.53h-3.13v1.86h3.13Zm-3-6.74A9.94,9.94,0,0,0,160,89.17a7,7,0,0,0,1.53-1.86Z"/><path d="M176.48,98.06v-.65h-6.81v.65h-1.8V93.57a10.45,10.45,0,0,1-1.33.45l-.82-1.8a34.49,34.49,0,0,0,6.5-1.86H166V88.69h5.22V87.53h-4V85.87h4V84.55h1.88v1.32H176v1.39a20.3,20.3,0,0,0,1.31-2l1.58,1a13.29,13.29,0,0,1-2,2.45h2.27v1.67H175a15.53,15.53,0,0,1-2,1h5.27v6.65Zm0-5.14h-6.81v.78h6.81Zm0,2.15h-6.81v.84h6.81Zm-3.36-7.54v1.16h1.4a8.9,8.9,0,0,0,1.24-1.16Z"/><path d="M69.5,194.87v-1.16a5.43,5.43,0,0,1,3.41-4.57c1.7-.84,2.28-1.59,2.28-2.4s-.65-1.54-1.82-1.54-1.82.82-1.87,2.14l-1.92-.49a3.58,3.58,0,0,1,3.89-3.42c2.48,0,3.87,1.33,3.87,3.18,0,1.59-.88,2.78-3.16,3.84-1.33.61-2.33,1.6-2.36,2.58h5.54v1.84Z"/><path d="M79,189.27c0-3.31,1.29-5.84,4.21-5.84s4.23,2.49,4.23,5.84c0,3.51-1.32,5.88-4.23,5.88S79,192.93,79,189.27Zm6.31,0c0-2.36-.7-4-2.1-4s-2.09,1.63-2.09,4,.68,4.07,2.09,4.07S85.28,191.79,85.28,189.27Z"/><path d="M89.27,194.87v-1.16a5.41,5.41,0,0,1,3.41-4.57c1.7-.84,2.27-1.59,2.27-2.4s-.64-1.54-1.82-1.54a2,2,0,0,0-1.86,2.14l-1.92-.49a3.57,3.57,0,0,1,3.88-3.42c2.48,0,3.87,1.33,3.87,3.18,0,1.59-.87,2.78-3.15,3.84-1.33.61-2.33,1.6-2.36,2.58h5.54v1.84Z"/><path d="M98.73,189.27c0-3.31,1.29-5.84,4.22-5.84s4.22,2.49,4.22,5.84c0,3.51-1.31,5.88-4.22,5.88S98.73,192.93,98.73,189.27Zm6.32,0c0-2.36-.7-4-2.1-4s-2.09,1.63-2.09,4,.68,4.07,2.09,4.07S105.05,191.79,105.05,189.27Z"/><path d="M117,192.78V196h-1.84v-3.17h-6.53v-1.6h2.15v-3.53a7.9,7.9,0,0,1-1.15,1.16l-1.23-1.67a9.63,9.63,0,0,0,3.08-4.16l1.94.27a5.06,5.06,0,0,1-.33.75h8.18v1.6H117v1.74h4v1.6h-4v2.24h4.53v1.6Zm-1.84-7.18h-2.93a14.85,14.85,0,0,1-1.19,1.74h4.12Zm0,3.34h-2.6v2.24h2.6Z"/><path d="M127.93,194.87v-2.35h-5.19V190.7l5-7h2.18v7.05h1.69v1.77h-1.69v2.35Zm0-8.61-3.07,4.49h3.07Z"/><path d="M140.18,193.93h.67c1.58,0,1.66,0,1.66-.85V192h-6.29a10.45,10.45,0,0,1-1.34,4l-1.56-1.57c.93-1.55,1.27-3.43,1.27-6.58V183.4h9.8v9.41c0,2.67-.17,3-3.45,3Zm2.33-5.42h-6.06a16.29,16.29,0,0,1-.07,1.75h6.13Zm0-3.39h-6v1.67h6Z"/><path d="M153.74,192.45a21.3,21.3,0,0,1-6.19,2.93l-.41-1.95a7.67,7.67,0,0,0,1.09-.32v-9.88h1.87v9.18a15.91,15.91,0,0,0,3.4-1.92Zm.1-3.78a26.83,26.83,0,0,0-2.52-3.63l1.44-1.16a29.89,29.89,0,0,1,2.67,3.57Zm4.88,7.14a15.85,15.85,0,0,0-1.78-3,9.18,9.18,0,0,1-3.17,3.15l-1.23-1.61c3.63-2.13,4.41-4.8,4.46-11.12h1.86a24.53,24.53,0,0,1-1,7.9,34.78,34.78,0,0,1,2.31,3.29Z"/><path d="M173.69,189.21a11.77,11.77,0,0,1-3.3-.94,11.58,11.58,0,0,1-3.88,1.27l-.69-1.67a11.71,11.71,0,0,0,3.17-.53,7.18,7.18,0,0,1-1-.83,3.86,3.86,0,0,1-.89.87l-1.16-1.4-.71,2.09a7.79,7.79,0,0,1,.94,3.19c0,1.09-.51,2-2.1,2l-.56-1.59V196h-1.68V183.4h4.39V185l-.26.89a6.19,6.19,0,0,0,2.35-2.87l1.65.26a1.87,1.87,0,0,1-.19.46h3.84v1.39a7.56,7.56,0,0,1-1.62,2.08,9.74,9.74,0,0,0,2.39.28Zm-10,2.2c.54,0,.88-.15.88-.71a6.4,6.4,0,0,0-.86-2.49l1-3.17H163.5v6.37Zm8,3V196H170V194.4h-3.89v-1.59h1.1v-1.37h-.76v-1.61H170v-1h1.72v1h2v1.61h-2v1.37H174v1.59Zm-1.72-3H168.8v1.37H170Zm-1-6.09a6.32,6.32,0,0,0,1.47,1.14,4.31,4.31,0,0,0,1.26-1.14Z"/><path d="M180.06,191.46c-.5,1.31-.75,2.2-1.05,2.94s-.68,1.08-1.07,1.08c-1.32,0-1.33-4.2-1.33-4.6a40.9,40.9,0,0,1,.83-7.2l2,.35a23.13,23.13,0,0,0-1,6.85c0,.74,0,.91.13.91s.3-.27.73-1.07Zm8,3.24a23.31,23.31,0,0,1-3,.17c-.56,0-1.06,0-1.46,0-1.76-.13-2.85-1-2.85-2.62a4.8,4.8,0,0,1,.23-1.41l1.7.33a3.11,3.11,0,0,0-.16.88c0,.7.35,1,2.28,1a14.24,14.24,0,0,0,3.21-.4Zm-.29-8.14c-1.11.1-2.42.15-3.69.15-1,0-1.89,0-2.75-.07l-.05-1.85a31.43,31.43,0,0,0,3.18.15,28.12,28.12,0,0,0,3.33-.17Z"/><path d="M192.64,185.76v2.08a37.61,37.61,0,0,1-.38,5.54,15.9,15.9,0,0,0,1.15-4.77l1.6.53a21.4,21.4,0,0,1-1.21,5.4l-1.54-1a8,8,0,0,1-.78,2.45l-1.37-1.56c.62-1.47.79-3.24.79-6.63V184h4.87v-1h2v1h4.89v1.75Zm4.58,9.92c-1.53,0-1.86-.36-1.86-1.54v-5.9h1.83v5.32c0,.37.09.44.55.44h.77c.63,0,.72-.13.76-1.95l1.76.88c-.23,2.49-.56,2.75-2.35,2.75Zm1.42-6.44a18.92,18.92,0,0,0-2.52-2.3l1.23-1.12a21.24,21.24,0,0,1,2.59,2.18Zm2.82,5.36a26.85,26.85,0,0,0-1.53-5.47l1.62-.79a32.75,32.75,0,0,1,1.6,5.36Z"/><path d="M216.89,193.54a8.49,8.49,0,0,1-1.22-.54c-.13,2.58-.43,2.71-3.67,2.75l-.58-1.54h.3c2.26,0,2.32,0,2.32-.61v-.09h-3.4c-.78,1.28-2.17,2.12-5.11,2.44l-.66-1.59a7,7,0,0,0,3.88-.85H207v-.73a12.36,12.36,0,0,1-2.14.83l-.64-1.63a8.09,8.09,0,0,0,3.1-1h-2.74v-1.22h4a2.55,2.55,0,0,0,.33-.5h-3.47v-3.8h2.42v-.56h-3v-1.39h3v-.46h1.72v.46h2.58v-.46h1.72v.46h3v1.39h-3v.56h2.44v3.8h-5.46a2.7,2.7,0,0,1-.27.5h6.59V191h-2.12a9.07,9.07,0,0,0,2.52.93Zm-2.32-7h-7.38V187h7.38Zm0,1.27h-7.38v.5h7.38Zm-5.09,3.2a9.77,9.77,0,0,1-1.47,1.16h1.5a4.48,4.48,0,0,0,.19-.83l1.69.05a5.58,5.58,0,0,1-.2.78h3.19a14.74,14.74,0,0,1-1.49-1.16Zm2.68-6.08h-2.58v.56h2.58Z"/><path d="M219.27,196V183.4h5.53v5.24H221V196Zm3.81-11.18H221v.68h2.09Zm0,1.84H221v.73h2.09Zm2.88,9v-2.39h-1.39a3.08,3.08,0,0,1-1.95,2.44l-1.13-1.38a1.91,1.91,0,0,0,1.46-1.06h-1.46v-1.46h1.62v-1.08H221.9v-1.39h6.59v1.39h-.94v1.08h1.36v1.46h-1.36v2.39Zm0-4.93H224.7v1.08H226Zm1.85,3.38h.38c1.22,0,1.25,0,1.25-.83v-4.64h-4V183.4h5.68v9.48c0,2.45,0,3-2.65,3Zm1.63-9.34H227.2v.68h2.24Zm0,1.84H227.2v.73h2.24Z"/><path d="M243.74,196v-.55h-3.07V196H239v-2.14l-1.09,1.35s-.56-.67-1.33-1.53a9,9,0,0,1-2.45,2.32l-1-1.74a7.89,7.89,0,0,0,2.18-1.77,13.93,13.93,0,0,0-1.91-1.39,30.86,30.86,0,0,0,.93-4.11h-1v-1.68h1.19c.07-.72.12-1.46.12-2.21h1.65c0,.78-.06,1.52-.12,2.21h2.65a21.23,21.23,0,0,1-.1,2.19h.45a25.66,25.66,0,0,0,1.67-4.34l1.72.59a28.34,28.34,0,0,1-1.47,3.71,19,19,0,0,0,2.45-.26c-.22-.49-.46-1-.78-1.56l1.41-.89c.71,1.3,1.26,2.39,1.87,3.8l-1.5,1.12-.32-.85a52.6,52.6,0,0,1-5.38.47l-.2-1a12.79,12.79,0,0,1-1.19,4,20,20,0,0,1,1.56,1.37V190h6.39v6Zm-7.78-9a25.33,25.33,0,0,1-.75,3.45,8.25,8.25,0,0,1,1,.72,11.63,11.63,0,0,0,.86-4.17Zm7.78,4.7h-3.07v2.1h3.07Z"/><path d="M39,29v6.26H37.23v-.81c-2.15.28-4.35.38-4.35.38l-.25-1.53h1V29h-.85V27.68H45.25V29Zm-5.34-1.9V22.74H44.36v4.39Zm3.6,1.9h-1.9v.69h1.9Zm0,1.72h-1.9v.72h1.9Zm0,1.75h-1.9v.81c.62,0,1.34-.07,1.9-.12Zm5.18-8.64H35.58v.57h6.83Zm0,1.59H35.58v.63h6.83Zm2.22,9.84a6.92,6.92,0,0,1-2.29-1.23,7.38,7.38,0,0,1-2.43,1.23l-.74-1.65a7.47,7.47,0,0,0,1.95-.54A10.87,10.87,0,0,1,39.91,31h-.65V29.63h5.65v1.22a7.33,7.33,0,0,1-1.37,2.21,9.51,9.51,0,0,0,1.85.63ZM41.52,31a4.48,4.48,0,0,0,.84,1.21A4.13,4.13,0,0,0,43.2,31Z"/><path d="M49,35.29V30.13c-.86,0-1.88,0-1.88,0l-.18-1.59s.48,0,1.12,0a11,11,0,0,0,.81-1.06,17,17,0,0,0-2-1.88l.92-1.43.42.41a9.36,9.36,0,0,0,1-2.23l1.52.61a16.89,16.89,0,0,1-1.47,2.73,3.79,3.79,0,0,1,.44.47,10.09,10.09,0,0,0,1-1.88l1.42.77A24.94,24.94,0,0,1,50,28.54c.19,0,.72,0,1-.05a3.87,3.87,0,0,0-.2-.63l1.1-.55a21.1,21.1,0,0,1,.81,2.82l-1.29.55s-.05-.33-.15-.72a4.83,4.83,0,0,1-.57.06v5.27Zm-2.09-1a26.39,26.39,0,0,0,.54-3.75l1.32.29a32.73,32.73,0,0,1-.49,3.91Zm4.4.18s-.12-1.66-.38-3.36l1.25-.41c.2,1,.4,2.23.55,3.34Zm7.83-4.06a18.41,18.41,0,0,1-3-1.73,10.61,10.61,0,0,1-2.92,1.62l-.88-1.72a9.31,9.31,0,0,0,2.5-1,12.09,12.09,0,0,1-1.07-1.12,4.86,4.86,0,0,1-.61.7l-1.36-1.22a8.69,8.69,0,0,0,2.38-3.48l1.72.27s-.15.42-.33.79h3.61v1.41a9.86,9.86,0,0,1-1.77,2.76A12,12,0,0,0,60,28.72Zm-.7,4.9a51.1,51.1,0,0,0-5.59-2.12l.94-1.62a34.24,34.24,0,0,1,5.58,2.08Zm-.6-2.85a16.31,16.31,0,0,0-3.51-1.57l1-1.45a19.41,19.41,0,0,1,3.48,1.5Zm-3.15-7.38a7.25,7.25,0,0,0,1.47,1.52,4.43,4.43,0,0,0,1.22-1.52Z"/><path d="M67.09,35a4,4,0,0,1-3.42-1.35,4.53,4.53,0,0,1-1.39,1.62l-1.09-1.55a4.28,4.28,0,0,0,1.51-1.35V29.13H61.38V27.41h3V32A2.26,2.26,0,0,0,66,33.2l-.76-1.42a8.18,8.18,0,0,0,2.34-.47H64.93V30h1.92V29.3H65.2V28h1.65v-.5h-.42c-1,0-1.27-.13-1.27-.93v-2h2.18V24H65.19v-1.3h3.74v3h-.86l1.23.54c-.17,1.05-.36,1.26-.77,1.26V28h1.69v-.58a.69.69,0,0,1-.75-.78v-2h2.32V24H69.5v-1.3h3.88v3h-.86l1.24.54c-.26,1.12-.46,1.26-1.32,1.26h-.55V28h1.65V29.3H71.89V30h2v1.36H71.34a19.75,19.75,0,0,1,2.45.57L73,33.21H74.1L73.51,35Zm-3.91-9a14.38,14.38,0,0,0-1.85-2.28l1.38-1.15a14.8,14.8,0,0,1,1.76,2.34Zm7.68,5.33H68.05l.84.84a7.23,7.23,0,0,1-2.56,1.11,7.38,7.38,0,0,0,.85,0l5.52-.06c-1.34-.56-2.67-1-2.67-1Zm-4.12-5.6v.41c0,.17,0,.25.12.25h.59c.26,0,.35-.08.37-.66Zm3.48,3.59H68.53V30h1.69Zm.83-3.59v.43c0,.18,0,.23.17.23h.59c.3,0,.41-.09.47-.66Z"/><path d="M85.33,32.33h-6.1a9.17,9.17,0,0,1-.79,1.43l-1.68-.87a9.92,9.92,0,0,0,1.65-3.21,15.35,15.35,0,0,1-2.21.64l-.66-1.85a25.42,25.42,0,0,0,5.72-1.17H75.87V25.69H80.6V24.9H77.12V23.33H80.6V22.4h1.78v.93h2.85v1.09a10.15,10.15,0,0,0,1.16-1.48l1.49,1a8.51,8.51,0,0,1-1.66,1.77h2V27.3H84.33a25.05,25.05,0,0,1-4.14,1.77,64.64,64.64,0,0,0,7-1.09l.7,1.62s-3.91.58-7.94.84a1.35,1.35,0,0,1-.08.3h7.25v1.41c0,3-.12,3.14-5.48,3.14L81,33.59H84.2c1,0,1.13-.09,1.13-.83Zm-3-7.43v.79h1.23a5.52,5.52,0,0,0,1.06-.79Z"/><path d="M4.43,96.55V88.39l-2,.84-.55-1.7a4.34,4.34,0,0,0,2.75-2.15H6.58V96.55Z"/><path d="M10.6,94.93a11.62,11.62,0,0,0,2.72-4.14l1.55,1a16.16,16.16,0,0,1-3,4.85Zm2.85-5.74a31.83,31.83,0,0,0-2.84-2.12l1.22-1.64c1.36.94,2.73,2.1,2.73,2.1Zm9.19,8.44a8.15,8.15,0,0,1-3.8-4.77,9.62,9.62,0,0,1-3.94,4.77l-1-1.71c4-2.12,4.19-6.5,4.19-7.3v-.13H19.8v0a11.48,11.48,0,0,1-.19,1.86,7.78,7.78,0,0,0,4.06,5.48Zm-2.12-6.88a11.9,11.9,0,0,0,.9-2.78h-4a13.17,13.17,0,0,1-1.46,2.88l-1.57-1.29a12.13,12.13,0,0,0,2.18-4.83l1.82.23A8.75,8.75,0,0,1,18,86.22h5.31a14.82,14.82,0,0,1-1.09,5.4Z"/><path d="M30.81,97.34A4,4,0,0,1,27.39,96,4.44,4.44,0,0,1,26,97.61l-1.09-1.54a4.28,4.28,0,0,0,1.51-1.35V91.47H25.1V89.75h3v4.58a2.23,2.23,0,0,0,1.6,1.21L29,94.12a8.18,8.18,0,0,0,2.34-.48H28.65V92.28h1.92v-.64H28.92V90.35h1.65v-.5h-.41c-1,0-1.28-.13-1.28-.93V87h2.18v-.57H28.91v-1.3h3.74v3h-.86l1.23.55c-.17,1-.36,1.26-.77,1.26v.5h1.69v-.59a.69.69,0,0,1-.75-.77V87h2.32v-.57H33.22v-1.3H37.1v3h-.86l1.24.55c-.26,1.11-.46,1.26-1.32,1.26h-.55v.5h1.65v1.29H35.61v.64h2v1.36H35.06a19.68,19.68,0,0,1,2.45.58l-.84,1.33h1.15l-.59,1.8Zm-3.91-9A14.58,14.58,0,0,0,25.05,86l1.38-1.15a14.31,14.31,0,0,1,1.76,2.34Zm7.68,5.33H31.77l.84.85a7.24,7.24,0,0,1-2.55,1.1,5.73,5.73,0,0,0,.84,0l5.52-.06c-1.34-.56-2.67-1-2.67-1ZM30.46,88v.42c0,.17,0,.24.13.24h.58c.26,0,.35-.07.38-.66Zm3.48,3.6H32.25v.64h1.69Zm.83-3.6v.43c0,.19,0,.23.17.23h.59c.3,0,.41-.08.47-.66Z"/><path d="M49.05,94.66H43a8.74,8.74,0,0,1-.79,1.43l-1.68-.87A9.72,9.72,0,0,0,42.13,92a16.91,16.91,0,0,1-2.21.65l-.65-1.85A25,25,0,0,0,45,89.63H39.59V88h4.73v-.79H40.84V85.66h3.48v-.93H46.1v.93H49v1.09a9.53,9.53,0,0,0,1.16-1.47l1.49,1A8.57,8.57,0,0,1,49.94,88h2v1.6H48.05a25,25,0,0,1-4.14,1.78,67.66,67.66,0,0,0,7-1.09l.7,1.62s-3.91.57-7.94.83a1.22,1.22,0,0,1-.08.3h7.25v1.42c0,3-.12,3.14-5.48,3.14l-.64-1.71h3.21c1,0,1.13-.08,1.13-.83ZM46.1,87.24V88h1.23a6,6,0,0,0,1.06-.79Z"/></g></svg>