<svg width="16" height="16" viewBox="0 0 16 16" fill="none" xmlns="http://www.w3.org/2000/svg">
<path fill-rule="evenodd" clip-rule="evenodd" d="M4.00065 3.33331H12.0007C12.7079 3.33331 13.3862 3.61426 13.8863 4.11436C14.3864 4.61446 14.6673 5.29274 14.6673 5.99998V10.6666C14.6673 11.3739 14.3864 12.0522 13.8863 12.5523C13.3862 13.0524 12.7079 13.3333 12.0007 13.3333H4.00065C3.29341 13.3333 2.61513 13.0524 2.11503 12.5523C1.61494 12.0522 1.33398 11.3739 1.33398 10.6666V5.99998C1.33398 5.29274 1.61494 4.61446 2.11503 4.11436C2.61513 3.61426 3.29341 3.33331 4.00065 3.33331ZM4.00065 4.66665C3.64703 4.66665 3.30789 4.80712 3.05784 5.05717C2.80779 5.30722 2.66732 5.64636 2.66732 5.99998V10.6666C2.66732 11.0203 2.80779 11.3594 3.05784 11.6095C3.30789 11.8595 3.64703 12 4.00065 12H12.0007C12.3543 12 12.6934 11.8595 12.9435 11.6095C13.1935 11.3594 13.334 11.0203 13.334 10.6666V5.99998C13.334 5.64636 13.1935 5.30722 12.9435 5.05717C12.6934 4.80712 12.3543 4.66665 12.0007 4.66665H4.00065Z" fill="white"/>
<path fill-rule="evenodd" clip-rule="evenodd" d="M2.42984 4.65734C2.47488 4.58227 2.53427 4.5168 2.60461 4.46468C2.67496 4.41256 2.75488 4.3748 2.83981 4.35357C2.92475 4.33234 3.01303 4.32804 3.09963 4.34093C3.18622 4.35381 3.26943 4.38363 3.3445 4.42867L7.65784 7.01667C7.76153 7.07897 7.88021 7.11188 8.00117 7.11188C8.12213 7.11188 8.24082 7.07897 8.3445 7.01667L12.6578 4.42867C12.7329 4.38359 12.8161 4.35373 12.9027 4.3408C12.9894 4.32787 13.0777 4.33213 13.1626 4.35334C13.2476 4.37454 13.3275 4.41227 13.3979 4.46437C13.4683 4.51648 13.5278 4.58193 13.5728 4.65701C13.6179 4.73208 13.6478 4.8153 13.6607 4.90191C13.6736 4.98852 13.6694 5.07683 13.6482 5.1618C13.627 5.24676 13.5892 5.32672 13.5371 5.3971C13.485 5.46749 13.4196 5.52692 13.3445 5.57201L9.02984 8.16001C8.71908 8.34638 8.36353 8.44483 8.00117 8.44483C7.63881 8.44483 7.28326 8.34638 6.9725 8.16001L2.65717 5.57201C2.50567 5.48093 2.39654 5.33341 2.35378 5.16188C2.31102 4.99036 2.33881 4.80887 2.42984 4.65734Z" fill="white"/>
</svg>
