<svg width="20" height="21" viewBox="0 0 20 21" fill="none" xmlns="http://www.w3.org/2000/svg">
<path d="M16.2361 15.1255H14.3472V17.0144H15.2917C15.5421 17.0144 15.7823 16.9149 15.9594 16.7377C16.1365 16.5606 16.2361 16.3205 16.2361 16.07V15.1255ZM6.79167 17.0144H12.4583V11.3478H6.79167V17.0144ZM14.3472 13.2367H16.2361V11.3478H14.3472V13.2367ZM3.01389 13.2367H4.90278V11.3478H3.01389V13.2367ZM14.3472 9.45888H16.2361V7.56999H14.3472V9.45888ZM6.79167 9.45888H12.4583V3.79221H6.79167V9.45888ZM3.01389 9.45888H4.90278V7.56999H3.01389V9.45888ZM3.0185 16.1631C3.03993 16.3794 3.13556 16.5827 3.29058 16.7377C3.4677 16.9149 3.70785 17.0144 3.95833 17.0144H4.90278V15.1255H3.01389V16.07L3.0185 16.1631ZM16.2361 4.73665C16.2361 4.48617 16.1365 4.24602 15.9594 4.0689C15.8044 3.91388 15.6011 3.81825 15.3848 3.79682L15.2917 3.79221H14.3472V5.6811H16.2361V4.73665ZM3.01389 5.6811H4.90278V3.79221H3.95833C3.70785 3.79221 3.4677 3.89178 3.29058 4.0689C3.11346 4.24602 3.01389 4.48617 3.01389 4.73665V5.6811ZM18.125 16.07C18.125 16.8214 17.8263 17.5419 17.2949 18.0732C16.7636 18.6046 16.0431 18.9033 15.2917 18.9033H3.95833C3.20689 18.9033 2.48643 18.6046 1.95508 18.0732C1.49022 17.6084 1.2033 16.9989 1.13883 16.3504L1.125 16.07V4.73665C1.125 3.98521 1.42372 3.26475 1.95508 2.7334C2.48643 2.20205 3.20689 1.90332 3.95833 1.90332H15.2917L15.572 1.91715C16.2205 1.98162 16.8301 2.26854 17.2949 2.7334C17.8263 3.26475 18.125 3.98521 18.125 4.73665V16.07Z" fill="black"/>
</svg>
