<svg width="19" height="21" viewBox="0 0 19 21" fill="none" xmlns="http://www.w3.org/2000/svg">
<path d="M8.97461 0.682606C9.26939 0.500526 9.63735 0.483705 9.94727 0.638661L11.9473 1.63866L12.0938 1.7285C12.4114 1.9627 12.5667 2.36805 12.4736 2.76268C12.3671 3.21404 11.9638 3.53319 11.5 3.53319H10.5V4.8828C10.5065 4.89263 10.5135 4.904 10.5225 4.916C10.6125 5.03683 10.7693 5.20731 11.001 5.41796C11.4602 5.83541 12.1262 6.33081 12.8994 6.80663C13.6705 7.28111 14.5219 7.72049 15.3447 8.03808C16.1799 8.36039 16.924 8.53319 17.5 8.53319C18.0523 8.53319 18.5 8.98091 18.5 9.53319C18.5 10.0855 18.0523 10.5332 17.5 10.5332H16.5713C16.7329 12.6881 16.9537 14.4529 17.2305 15.8369C17.5588 17.4785 17.942 18.4565 18.2998 18.9336C18.527 19.2366 18.5639 19.6417 18.3945 19.9805C18.2251 20.3192 17.8788 20.5332 17.5 20.5332H13.5C13.0776 20.5332 12.7185 20.3395 12.4844 20.1826C12.2233 20.0076 11.966 19.7741 11.7217 19.5117C11.2302 18.9838 10.7133 18.2531 10.2441 17.3818C9.97995 16.8911 9.72813 16.3468 9.5 15.7588C9.27187 16.3468 9.02005 16.8911 8.75586 17.3818C8.28668 18.2531 7.76978 18.9838 7.27832 19.5117C7.03399 19.7741 6.77672 20.0076 6.51562 20.1826C6.28152 20.3395 5.92236 20.5332 5.5 20.5332H1.5C1.12124 20.5332 0.774865 20.3192 0.605469 19.9805C0.436109 19.6417 0.473048 19.2366 0.700195 18.9336C1.05799 18.4565 1.4412 17.4785 1.76953 15.8369C2.04631 14.4529 2.26709 12.6881 2.42871 10.5332H1.5C0.947724 10.5332 0.500014 10.0855 0.5 9.53319C0.5 8.98091 0.947715 8.53319 1.5 8.53319C2.07596 8.53319 2.8201 8.36039 3.65527 8.03808C4.4781 7.72049 5.32951 7.28111 6.10059 6.80663C6.8738 6.33081 7.53982 5.83541 7.99902 5.41796C8.23073 5.20731 8.38753 5.03683 8.47754 4.916C8.48669 4.90371 8.49357 4.89195 8.5 4.88183V1.53319L8.50781 1.40429C8.54626 1.10812 8.71673 0.841992 8.97461 0.682606ZM4.43359 10.5332C4.26747 12.8041 4.0351 14.7063 3.73047 16.2295C3.55793 17.0922 3.35459 17.8669 3.11328 18.5332H5.38086C5.38709 18.5293 5.39484 18.5255 5.40234 18.5205C5.4966 18.4573 5.63818 18.3388 5.81543 18.1484C6.16757 17.7701 6.58853 17.1877 6.99414 16.4346C7.80546 14.9278 8.49999 12.8391 8.5 10.5332H4.43359ZM10.5 10.5332C10.5 12.8391 11.1945 14.9278 12.0059 16.4346C12.4115 17.1877 12.8324 17.7701 13.1846 18.1484C13.3618 18.3388 13.5034 18.4573 13.5977 18.5205C13.6052 18.5255 13.6129 18.5293 13.6191 18.5332H15.8867C15.6454 17.8669 15.4421 17.0922 15.2695 16.2295C14.9649 14.7063 14.7325 12.8041 14.5664 10.5332H10.5ZM9.34473 6.89843C8.77274 7.4184 8.00106 7.98565 7.14941 8.50975C7.13659 8.51765 7.12322 8.52531 7.11035 8.53319H11.8896C11.8768 8.52531 11.8634 8.51765 11.8506 8.50975C10.9989 7.98565 10.2273 7.4184 9.65527 6.89843C9.60224 6.85022 9.55096 6.80069 9.5 6.75194C9.44904 6.80069 9.39776 6.85022 9.34473 6.89843Z" fill="black"/>
</svg>
