<svg width="10" height="10" viewBox="0 0 10 10" fill="none" xmlns="http://www.w3.org/2000/svg">
<path fill-rule="evenodd" clip-rule="evenodd" d="M2.08329 4.18099C2.08502 4.2062 2.08481 4.21261 2.08911 4.23757C2.09879 4.2937 2.12007 4.34768 2.15132 4.39531C2.16711 4.41939 2.18548 4.44041 2.20509 4.46142L4.7052 6.96152C4.72368 6.97877 4.72789 6.98359 4.74807 6.9989C4.77074 7.01609 4.79518 7.03094 4.82089 7.04317C4.93321 7.09659 5.06648 7.09659 5.1788 7.04317C5.20451 7.03094 5.22895 7.01609 5.25162 6.9989C5.27178 6.98359 5.27601 6.97877 5.29447 6.96152L7.79458 4.46142C7.81183 4.44294 7.81666 4.43871 7.83196 4.41854C7.87214 4.36558 7.89927 4.30308 7.91058 4.23757C7.91863 4.1908 7.91863 4.14274 7.91058 4.09596C7.90413 4.05857 7.89254 4.02208 7.87625 3.98781C7.81435 3.85764 7.68595 3.76701 7.54257 3.75226C7.4859 3.74645 7.42819 3.75239 7.37389 3.76962C7.32866 3.78397 7.28597 3.80608 7.24818 3.83474C7.22799 3.85006 7.22378 3.85487 7.2053 3.87212L4.99983 6.07759L2.79437 3.87212L2.77357 3.8527C2.75399 3.83676 2.74943 3.83222 2.72826 3.81835C2.68859 3.79232 2.64448 3.77316 2.5984 3.76193C2.56152 3.75295 2.52344 3.74903 2.48552 3.75032C2.34145 3.75524 2.20717 3.83691 2.13652 3.96254C2.11327 4.0039 2.09717 4.04921 2.08911 4.09596C2.08481 4.12092 2.08502 4.12734 2.08329 4.15255C2.08329 4.16203 2.08329 4.17151 2.08329 4.18099V4.18099Z" fill="black"/>
</svg>
