<svg width="19" height="20" viewBox="0 0 19 20" fill="none" xmlns="http://www.w3.org/2000/svg">
<path d="M9.5 9.05556V13.7778M9.5 18.5C8.38376 18.5 7.27846 18.2801 6.24719 17.853C5.21592 17.4258 4.27889 16.7997 3.48959 16.0104C2.70029 15.2211 2.07419 14.2841 1.64702 13.2528C1.21986 12.2215 1 11.1162 1 10C1 8.88376 1.21986 7.77846 1.64702 6.74719C2.07419 5.71592 2.70029 4.77889 3.48959 3.98959C4.27889 3.20029 5.21592 2.57419 6.24719 2.14702C7.27846 1.71986 8.38376 1.5 9.5 1.5C11.7543 1.5 13.9163 2.39553 15.5104 3.98959C17.1045 5.58365 18 7.74566 18 10C18 12.2543 17.1045 14.4163 15.5104 16.0104C13.9163 17.6045 11.7543 18.5 9.5 18.5ZM9.54722 6.22222V6.31667H9.45278V6.22222H9.54722Z" stroke="black" stroke-width="2" stroke-linecap="round" stroke-linejoin="round"/>
</svg>
