<svg width="19" height="20" viewBox="0 0 19 20" fill="none" xmlns="http://www.w3.org/2000/svg">
<path d="M2.97823 2.0622C2.99367 1.90206 3.07124 1.754 3.19473 1.64892C3.31822 1.54384 3.47808 1.48987 3.64096 1.49827C3.80383 1.50668 3.95711 1.57681 4.06881 1.69403C4.1805 1.81125 4.24197 1.96649 4.24038 2.12734V6.28182C4.24038 6.42267 4.29712 6.55776 4.3981 6.65735C4.49908 6.75695 4.63604 6.8129 4.77885 6.8129C4.92166 6.8129 5.05861 6.75695 5.1596 6.65735C5.26058 6.55776 5.31731 6.42267 5.31731 6.28182V2.03387C5.31731 1.89302 5.37404 1.75794 5.47502 1.65834C5.576 1.55874 5.71296 1.50279 5.85577 1.50279C5.99858 1.50279 6.13554 1.55874 6.23652 1.65834C6.3375 1.75794 6.39423 1.89302 6.39423 2.03387V6.28182C6.39423 6.42267 6.45096 6.55776 6.55194 6.65735C6.65292 6.75695 6.78988 6.8129 6.93269 6.8129C7.0755 6.8129 7.21246 6.75695 7.31344 6.65735C7.41442 6.55776 7.47115 6.42267 7.47115 6.28182V2.12734C7.47302 1.96861 7.53609 1.81653 7.64756 1.70202C7.75902 1.58751 7.91052 1.51916 8.07125 1.51087C8.23198 1.50257 8.38988 1.55495 8.51286 1.65736C8.63583 1.75977 8.71466 1.90452 8.73331 2.0622C8.78787 2.57345 9.08654 5.4505 9.08654 6.81361C9.08654 7.76106 8.66654 8.61221 8.00244 9.19569C7.76264 9.40529 7.65064 9.62127 7.65064 9.80254V10.3173L7.65136 10.3506C7.68151 10.7748 8.00962 15.5106 8.00962 16.3731C8.00962 16.6521 7.9539 16.9283 7.84566 17.186C7.73742 17.4438 7.57877 17.678 7.37877 17.8752C7.17877 18.0725 6.94133 18.229 6.68001 18.3357C6.41869 18.4425 6.13862 18.4974 5.85577 18.4974C5.57292 18.4974 5.29284 18.4425 5.03153 18.3357C4.77021 18.229 4.53277 18.0725 4.33277 17.8752C4.13277 17.678 3.97412 17.4438 3.86588 17.186C3.75763 16.9283 3.70192 16.6521 3.70192 16.3731C3.70192 15.5106 4.03074 10.7748 4.06018 10.3506L4.0609 10.3173V9.80254C4.0609 9.62198 3.9489 9.406 3.7091 9.19569C3.36809 8.89666 3.09517 8.52978 2.90832 8.1192C2.72146 7.70862 2.6249 7.26366 2.625 6.81361C2.625 5.4505 2.92367 2.57345 2.97823 2.0622ZM12.644 10.0001L12.621 10.3938C12.5873 10.9723 12.542 11.7534 12.4975 12.562C12.4085 14.1673 12.3173 15.9142 12.3173 16.3731C12.3173 16.6521 12.373 16.9283 12.4813 17.186C12.5895 17.4438 12.7482 17.678 12.9482 17.8752C13.1482 18.0725 13.3856 18.229 13.6469 18.3357C13.9082 18.4425 14.1883 18.4974 14.4712 18.4974C14.754 18.4974 15.0341 18.4425 15.2954 18.3357C15.5567 18.229 15.7942 18.0725 15.9942 17.8752C16.1942 17.678 16.3528 17.4438 16.461 17.186C16.5693 16.9283 16.625 16.6521 16.625 16.3731C16.625 15.8625 16.5116 13.9131 16.4139 12.2271L16.4111 12.1804C16.3328 10.8357 16.266 9.68146 16.266 9.46902V2.03387C16.266 1.89302 16.2093 1.75794 16.1083 1.65834C16.0073 1.55874 15.8704 1.50279 15.7276 1.50279H15.3686C14.0833 1.50279 12.8507 2.00637 11.9418 2.90274C11.033 3.79912 10.5224 5.01486 10.5224 6.28253V8.76091C10.5224 9.44495 11.0853 10.0001 11.7788 10.0001H12.644Z" fill="black"/>
</svg>
