<svg width="16" height="16" viewBox="0 0 16 16" fill="none" xmlns="http://www.w3.org/2000/svg">
<path d="M1.99963 11.9997V5.33368C1.99963 4.8034 2.2107 4.29466 2.58557 3.91962C2.96057 3.54462 3.46932 3.33377 3.99963 3.33368H7.99963L8.1344 3.34735C8.438 3.40956 8.66647 3.67773 8.66663 3.99969C8.66663 4.32182 8.43814 4.59081 8.1344 4.65302L7.99963 4.66669H3.99963C3.82302 4.66677 3.65386 4.73715 3.52893 4.862C3.40391 4.98702 3.33362 5.15687 3.33362 5.33368V11.9997C3.33362 12.1765 3.40391 12.3463 3.52893 12.4714C3.65386 12.5962 3.82302 12.6666 3.99963 12.6667H10.6666C10.8434 12.6667 11.0133 12.5964 11.1383 12.4714C11.2632 12.3464 11.3336 12.1764 11.3336 11.9997V7.99969C11.3338 7.63176 11.6317 7.33386 11.9996 7.33368C12.3677 7.33368 12.6665 7.63165 12.6666 7.99969V11.9997C12.6666 12.5301 12.4557 13.0387 12.0807 13.4138C11.7056 13.7888 11.1971 13.9997 10.6666 13.9997H3.99963C3.46932 13.9996 2.96057 13.7888 2.58557 13.4138C2.2107 13.0387 1.99963 12.53 1.99963 11.9997ZM13.9996 5.99969C13.9996 6.36778 13.7017 6.66651 13.3336 6.66669C12.9654 6.66669 12.6666 6.36788 12.6666 5.99969V4.27606L7.80432 9.13837C7.544 9.39834 7.12219 9.39845 6.86194 9.13837C6.60159 8.87802 6.60159 8.45536 6.86194 8.19501L11.7233 3.33368H9.99963C9.63159 3.3335 9.33362 3.03477 9.33362 2.66669C9.33362 2.29861 9.63159 1.99987 9.99963 1.99969H13.3336C13.7017 1.99987 13.9996 2.29861 13.9996 2.66669V5.99969Z" fill="white"/>
</svg>
