<svg width="20" height="21" viewBox="0 0 20 21" fill="none" xmlns="http://www.w3.org/2000/svg">
<path d="M13.269 2.40332C13.3902 2.40948 13.5108 2.42807 13.6284 2.45801L13.8022 2.51172L13.9702 2.58301C14.0796 2.63561 14.1839 2.69835 14.2808 2.77148L14.4204 2.88867L14.5483 3.01953C14.6287 3.11032 14.7003 3.20863 14.7612 3.31348L14.8452 3.47559L16.3101 6.69922H16.9165C18.3892 6.69922 19.5835 7.89349 19.5835 9.36621V16.8662C19.5833 18.3388 18.3892 19.5322 16.9165 19.5322H5.26709C5.26137 19.5323 5.25526 19.5332 5.24951 19.5332C5.24396 19.5332 5.23844 19.5323 5.23291 19.5322H3.5835C2.11085 19.5322 0.91668 18.3388 0.916504 16.8662V9.36621C0.916549 7.89349 2.11076 6.69922 3.5835 6.69922H3.77393L12.3843 2.58105L12.5522 2.51074C12.7235 2.44877 12.9038 2.41229 13.0864 2.40332H13.269ZM3.5835 8.69922C3.21533 8.69922 2.91655 8.99806 2.9165 9.36621V16.8662C2.91668 17.2343 3.21541 17.5322 3.5835 17.5322H4.24951V16.8662C4.24959 16.3141 4.69745 15.8664 5.24951 15.8662C5.80175 15.8662 6.24943 16.314 6.24951 16.8662V17.5322H16.9165C17.2846 17.5322 17.5833 17.2343 17.5835 16.8662V9.36621C17.5835 8.99806 17.2847 8.69922 16.9165 8.69922H6.24951V9.36621C6.2493 9.91831 5.80166 10.3662 5.24951 10.3662C4.69754 10.366 4.24973 9.91819 4.24951 9.36621V8.69922H3.5835ZM5.24951 11.6992C5.80164 11.6992 6.24925 12.1472 6.24951 12.6992V13.5332C6.2492 14.0852 5.80161 14.5332 5.24951 14.5332C4.69759 14.533 4.24982 14.0851 4.24951 13.5332V12.6992C4.24977 12.1473 4.69756 11.6994 5.24951 11.6992ZM8.40771 6.69922H14.1128L13.0933 4.45801L8.40771 6.69922Z" fill="black"/>
</svg>
