<svg width="20" height="20" viewBox="0 0 20 20" fill="none" xmlns="http://www.w3.org/2000/svg">
<path d="M16.0334 15.5333C16.5373 15.5333 17.0206 15.7335 17.3769 16.0898C17.7332 16.4461 17.9334 16.9294 17.9334 17.4333C17.9334 17.9372 17.7332 18.4205 17.3769 18.7768C17.0206 19.1331 16.5373 19.3333 16.0334 19.3333C15.5295 19.3333 15.0462 19.1331 14.6899 18.7768C14.3336 18.4205 14.1334 17.9372 14.1334 17.4333C14.1334 16.3788 14.9789 15.5333 16.0334 15.5333ZM0.833374 0.333328H3.93987L4.83287 2.23333H18.8834C19.1353 2.23333 19.377 2.33342 19.5551 2.51158C19.7333 2.68974 19.8334 2.93137 19.8334 3.18333C19.8334 3.34483 19.7859 3.50633 19.7194 3.65833L16.3184 9.80483C15.9954 10.3843 15.3684 10.7833 14.6559 10.7833H7.57837L6.72337 12.3318L6.69487 12.4458C6.69487 12.5088 6.7199 12.5692 6.76444 12.6138C6.80898 12.6583 6.86939 12.6833 6.93237 12.6833H17.9334V14.5833H6.53337C6.02946 14.5833 5.54619 14.3831 5.18987 14.0268C4.83355 13.6705 4.63337 13.1872 4.63337 12.6833C4.63337 12.3508 4.71887 12.0373 4.86137 11.7713L6.15337 9.44383L2.73337 2.23333H0.833374V0.333328ZM6.53337 15.5333C7.03729 15.5333 7.52056 15.7335 7.87688 16.0898C8.2332 16.4461 8.43337 16.9294 8.43337 17.4333C8.43337 17.9372 8.2332 18.4205 7.87688 18.7768C7.52056 19.1331 7.03729 19.3333 6.53337 19.3333C6.02946 19.3333 5.54619 19.1331 5.18987 18.7768C4.83355 18.4205 4.63337 17.9372 4.63337 17.4333C4.63337 16.3788 5.47887 15.5333 6.53337 15.5333ZM15.0834 8.88333L17.7244 4.13333H5.71637L7.95837 8.88333H15.0834Z" fill="black"/>
</svg>
