<svg width="19" height="20" viewBox="0 0 19 20" fill="none" xmlns="http://www.w3.org/2000/svg">
<path d="M17.667 1.5L17.7686 1.50488C18.273 1.55592 18.667 1.9821 18.667 2.5V5.83301C18.667 6.18405 18.4825 6.50963 18.1816 6.69043L17.5996 7.04004L17.5986 7.04102C17.2807 7.23178 16.9383 7.37397 16.583 7.46777V9.83301H16.833C17.3852 9.83301 17.8328 10.2809 17.833 10.833V18.333C17.833 18.8853 17.3853 19.333 16.833 19.333H1.83301C1.28087 19.3328 0.833008 18.8852 0.833008 18.333V10.833L0.838867 10.7314C0.889921 10.2271 1.31528 9.83317 1.83301 9.83301H2.08301V7.46777C1.81313 7.39646 1.55059 7.2976 1.30078 7.16992L1.06836 7.04102L0.485352 6.69043C0.18431 6.50967 0 6.18415 0 5.83301V2.5L0.00488281 2.39746C0.0562144 1.89333 0.482323 1.5 1 1.5H17.667ZM2.83301 17.333H15.833V11.833H2.83301V17.333ZM13.4326 7.04004L13.4316 7.04102C12.8992 7.36041 12.2996 7.54789 11.6826 7.58984L11.417 7.59863C10.7958 7.59863 10.1846 7.45155 9.63379 7.16992L9.40137 7.04102L9.33203 6.99902L9.26562 7.04004V7.04102C8.733 7.3606 8.13283 7.54792 7.51562 7.58984L7.25 7.59863C6.5403 7.5986 5.84394 7.4061 5.23535 7.04102H5.23438L5.16602 7L5.09863 7.04102C4.78076 7.2317 4.43816 7.37399 4.08301 7.46777V9.83301H14.583V7.46777C14.3131 7.39644 14.0506 7.29762 13.8008 7.16992L13.5684 7.04102L13.499 6.99902L13.4326 7.04004ZM2 5.2666L2.09766 5.32617L2.21094 5.38867C2.48038 5.52642 2.77917 5.59858 3.08301 5.59863L3.21289 5.59473C3.51494 5.57427 3.80866 5.48252 4.06934 5.32617L4.65234 4.97559L4.77441 4.91406C5.06673 4.78927 5.40446 4.80917 5.68164 4.97559L6.26465 5.32617H6.26367C6.56149 5.50487 6.90268 5.5986 7.25 5.59863L7.37988 5.59473C7.68166 5.57427 7.97486 5.48228 8.23535 5.32617L8.81836 4.97656L8.94043 4.91406C9.2327 4.78909 9.57039 4.80933 9.84766 4.97559L10.4307 5.32617L10.5439 5.38867C10.8136 5.52663 11.1129 5.59863 11.417 5.59863L11.5469 5.59473C11.8486 5.57422 12.1419 5.48232 12.4023 5.32617L12.9854 4.97656L13.1074 4.91406C13.3997 4.78918 13.7374 4.80925 14.0146 4.97559L14.5977 5.32617L14.7109 5.38867C14.9805 5.52654 15.2799 5.59863 15.584 5.59863C15.9311 5.59855 16.2717 5.50468 16.5693 5.32617L16.667 5.2666V3.5H2V5.2666Z" fill="black"/>
</svg>
