<svg width="140" height="50" viewBox="0 0 140 50" fill="none" xmlns="http://www.w3.org/2000/svg">
<g clip-path="url(#clip0_40001270_12827)">
<path d="M125.505 20.2946H112.196L103.331 29.1648C104.527 29.4903 105.779 29.6778 107.074 29.6778H125.505C128.218 29.6778 130.423 31.8844 130.423 34.5984C130.423 37.3124 128.218 39.519 125.505 39.519H92.9713L83.5876 48.9078H125.505C133.39 48.9078 139.807 42.4868 139.807 34.5984C139.807 26.7101 133.39 20.2891 125.505 20.2891V20.2946Z" fill="black"/>
<path d="M77.5946 20.2835L68.1999 29.6834H82.6062L72.2357 40.0541H71.949C63.6514 40.0541 56.9031 33.3021 56.9031 25C56.9031 16.6979 63.6514 9.94594 71.949 9.94594C75.7146 9.94594 79.3093 11.3416 82.0825 13.8846L89.112 6.85128C84.4532 2.4327 78.3665 0.00551605 71.949 0.00551605C58.1712 0.00551605 46.9626 11.2202 46.9626 25.0055C46.9626 37.3621 56.1753 47.9976 68.3984 49.7518C69.5893 49.9228 70.7857 50.011 71.949 50.011H75.4169L105.123 20.2891H77.5946V20.2835Z" fill="black"/>
<path d="M102.151 15.3685C102.151 12.6545 104.356 10.4479 107.069 10.4479H130.616L140 1.05914H107.069C99.1848 1.05914 92.7673 7.48014 92.7673 15.3685H102.151Z" fill="black"/>
<path d="M44.0956 10.5417L53.5014 1.14188H9.40574L0 10.5417H44.0956Z" fill="black"/>
<path d="M21.7942 49.0181H31.8119V11.2974L21.7942 21.3206V49.0181Z" fill="black"/>
</g>
<defs>
<clipPath id="clip0_40001270_12827">
<rect width="140" height="50" fill="white"/>
</clipPath>
</defs>
</svg>
