<svg xmlns="http://www.w3.org/2000/svg" viewBox="0 0 561.29 135"><defs><style>.cls-1{fill:#ffa000;}</style></defs><g id="レイヤー_2" data-name="レイヤー 2"><g id="object"><rect class="cls-1" width="10" height="135"/><path class="cls-1" d="M45.55,36.49H40.44V29.07a34,34,0,0,1-10.08,7.38,11.31,11.31,0,0,0-4.5-3.78A26.85,26.85,0,0,0,36.55,26H30.08V12.33H40.44V10.86H26.66V6.54H40.44V3.34L46,3.62c.36,0,.72.11.72.47s-.44.58-1.16.76V6.54H59.3v4.32H45.55v1.47H56V26H49.66A30.6,30.6,0,0,0,59.88,32.1,11,11,0,0,0,56,36.2,35.59,35.59,0,0,1,45.55,29Zm-5.11-20.7h-5v1.66h5Zm0,4.75h-5v1.69h5Zm5.11-3.09H50.7V15.79H45.55Zm0,4.78H50.7V20.54H45.55Z"/><path class="cls-1" d="M76.37,3.34l5.51.25c.25,0,.65,0,.65.36s-.36.47-.87.65V6.25H95.27v4.61H62.66V6.25H76.37ZM75,26.73c.21.11.36.22.36.43,0,.4-.51.4-.94.4a30.9,30.9,0,0,1-7,8.21,16.35,16.35,0,0,0-4.68-3A27.92,27.92,0,0,0,70.14,24Zm6.69,5.73c0,2.95-.65,4.28-7.27,4a18.75,18.75,0,0,0-2-5.33c.65.08,2,.22,2.77.22,1.15,0,1.19-.54,1.19-1V23.53H66.54V12.41h24.8V23.53H81.66ZM71.87,16.69v2.56H86.13V16.69Zm15.51,7.49a30.66,30.66,0,0,1,7,8.06,57.35,57.35,0,0,0-4.64,3.49A36.47,36.47,0,0,0,83.07,27Z"/><path class="cls-1" d="M113.63,4.27c.47.07.76.15.76.47s-.4.5-.62.58c-.1,1.08-.18,2.34-.25,3.81a25.73,25.73,0,0,0,5.65-1.8c0,1.33-.07,3-.07,3.82a15.78,15.78,0,0,0,.07,1.94,26.37,26.37,0,0,1-5.9,1.62c0,.4-.07,2.12-.07,2.45a17.93,17.93,0,0,1,6.12-1.08c5.43,0,10,3.78,10,9.75,0,6.7-5,9-8.53,9-5.44,0-5.62-4.83-5.65-6.34.75-.25,4-1.33,4.46-1.51,0,.72,0,2.41,1.69,2.41,1.37,0,2.27-1.37,2.27-3.17a4.53,4.53,0,0,0-4.79-4.75,17,17,0,0,0-5.58,1.26,108.08,108.08,0,0,0,.47,10.84l-4.93,2.23a49.5,49.5,0,0,0-6.3-5.15c-.9,1-1.33,1.48-1.84,2.09L98,26.52c1.66-.9,8.21-5.87,9.65-6.77,0-1.26,0-1.55,0-4.32-2.12.11-4.64.14-6.69.14V9.85a14.88,14.88,0,0,0,2.84.22c1.4,0,3.42-.15,3.85-.15,0-2.7,0-3.09-.14-6.69Zm-8.06,23.22a3.86,3.86,0,0,0,1.62.93c.54,0,.5-1.26.46-2.62C107.22,26.16,106.47,26.7,105.57,27.49ZM124.36,8.34a30.4,30.4,0,0,1,7.84,5.76,25.46,25.46,0,0,0-3.49,4.35,21,21,0,0,0-7.63-5.65Z"/><path class="cls-1" d="M154.53,5c.39.14.61.25.61.57,0,.51-.61.61-1,.65-.39.61-.82,1.33-2.12,3.78,1.91.18,3.74.25,4.5.25s1.26,0,1.76-.07a26.14,26.14,0,0,0-1.58,5.69,44.56,44.56,0,0,1-6.8-.33c-.44,1-.94,2.27-1.3,3.17a53.37,53.37,0,0,0,8,.54c-.68,1.95-1.26,4.21-1.55,5.33-2.19-.15-4.68-.36-8.06-.86a11.52,11.52,0,0,0-.4,2.91c0,4.39,4.07,4.39,5.84,4.39,1.54,0,7,0,7-5.22a13.69,13.69,0,0,0-1.84-5.61A17.24,17.24,0,0,0,163,18.27c.86,1.59,2.48,5,2.48,8.17,0,7.92-8.35,9.76-13.06,9.76-7.24,0-11.24-3.74-11.24-9a17.92,17.92,0,0,1,.54-4.35A30.32,30.32,0,0,1,137,21.48l1.22-5.33a34.56,34.56,0,0,0,4.86,1.55c.14-.47.39-1.26,1.08-3.21a30.17,30.17,0,0,1-5.36-1.8l1.08-5.57a43.53,43.53,0,0,0,6.37,2c.36-1,2.08-5.36,2.44-6.26Z"/><path class="cls-1" d="M187.9,4.52c.29.08.68.22.68.58s-.18.47-.79.5c-.79,2.45-.86,2.7-1,3.24A55,55,0,0,0,198.48,6c.18,1.19.65,3.92,1,5.36a62.19,62.19,0,0,1-14.72,3.06c-.87,2.38-1.16,3.1-1.88,4.86a21.34,21.34,0,0,1,9.36-2.45c9.61,0,10.12,6.77,10.12,8.57a8.89,8.89,0,0,1-3.85,7.27C196.61,34,193,36.13,183,36.13c-1.51,0-2.56-.11-3.35-.18a25.26,25.26,0,0,0-1.33-5.37,52,52,0,0,0,5.36.33c.83,0,7,0,10.69-2.2a3.66,3.66,0,0,0,2-3.38c0-2.09-1.08-3.85-4.39-3.85s-8.25,1.62-12.46,6l-5.18-2.59a50.23,50.23,0,0,0,4.78-10.12c-3.13,0-5.61-.11-7-.21l-.07-5.91a32.85,32.85,0,0,0,8.71.8,49,49,0,0,0,1.37-6.38Z"/><path class="cls-1" d="M222.64,9.27c.43.51,2.23,2.74,2.59,3.17a16.12,16.12,0,0,1,4-.61,6.84,6.84,0,0,1,7.16,7c0,6.73-7.31,7.34-11,7.63a24.57,24.57,0,0,0-1.65-4.82c.61,0,1,0,1.65,0,1.23,0,5.83,0,5.83-3.16,0-.62-.18-2-2.3-2-.32,0-.61,0-.79,0,.65,1,1,1.72,1.33,2.26-1.33.54-3.42,1.41-4.71,2A22.16,22.16,0,0,0,223.39,18c-1.33.61-2.12,1.05-2.62,1.33a71.57,71.57,0,0,1,5,13.9,49.49,49.49,0,0,0-5.12,2.48c-.64-5.07-3.24-11.52-4.21-13.82-1,.76-1.33,1-4.06,3.35l-3.24-5.08a47.87,47.87,0,0,0,5.11-2.55,27.71,27.71,0,0,0-3.24-4.72l4.89-2a2.17,2.17,0,0,1,.76-.21.38.38,0,0,1,.43.39,1.06,1.06,0,0,1-.32.58c.54,1,1.4,2.59,1.94,3.56l2.05-1c-.57-.8-.75-1.05-2.27-3Z"/><path class="cls-1" d="M247.91,11.07A36.81,36.81,0,0,1,256.33,16a36,36,0,0,0-3.49,4.78,30.46,30.46,0,0,0-8.17-4.89Zm-1.15,19.37c11.3-3.89,20.62-12,25.34-19.08a18.66,18.66,0,0,0,3.71,4.86C271.27,23,260.62,31.84,251,35.41c0,.21-.08.83-.61.83-.26,0-.47-.36-.54-.47Zm4.79-27.36a55.42,55.42,0,0,1,9,4.25c-.75.87-2.91,3.92-3.42,4.68a38.41,38.41,0,0,0-8.74-4.54Z"/><path class="cls-1" d="M283.84,33.61V29h16.09V25.33H284.77V20.61h15.16V17.16H284.31V12.44H305V34.69h-5V33.61Z"/><path class="cls-1" d="M346.66,17V23.1H315.38V17Z"/><path class="cls-1" d="M383.84,33.68H359.66c.46-6.3,4-8.89,11.62-14.07,5.8-4,5.8-4.79,5.8-6.3,0-2.7-2.88-3.39-4.75-3.39-4.86,0-5.37,3.46-5.51,5.8h-6.66c.11-2.27.22-4.75,2.23-7.17,2.41-2.91,5.9-4,10-4,8.25,0,11.23,4.54,11.23,8.68A8.51,8.51,0,0,1,382,18.13c-1.84,2.56-9.11,7.2-9.47,7.45a19.71,19.71,0,0,0-3.67,2.77h15Z"/><path class="cls-1" d="M411,20c0,3.45-.83,14.5-12,14.5-5.22,0-8-2.52-9.5-4.64C387.63,27.09,387,22.16,387,19c0-3.46.83-14.51,12-14.51C409.51,4.52,411,14.1,411,20Zm-17.32-.47c0,1.19,0,9.54,5.33,9.54s5.29-8.32,5.29-9.54S404.29,10,399,10,393.67,18.2,393.67,19.5Z"/><path class="cls-1" d="M438.49,33.68H414.3c.47-6.3,4-8.89,11.63-14.07,5.8-4,5.8-4.79,5.8-6.3,0-2.7-2.88-3.39-4.76-3.39-4.86,0-5.36,3.46-5.5,5.8h-6.66c.11-2.27.21-4.75,2.23-7.17,2.41-2.91,5.9-4,10-4,8.24,0,11.23,4.54,11.23,8.68a8.59,8.59,0,0,1-1.58,4.93c-1.84,2.56-9.11,7.2-9.47,7.45a19.71,19.71,0,0,0-3.67,2.77h15Z"/><path class="cls-1" d="M465.82,33.68H441.63c.46-6.3,4-8.89,11.62-14.07,5.8-4,5.8-4.79,5.8-6.3,0-2.7-2.88-3.39-4.75-3.39-4.86,0-5.37,3.46-5.51,5.8h-6.66c.11-2.27.22-4.75,2.23-7.17,2.41-2.91,5.91-4,10-4,8.25,0,11.23,4.54,11.23,8.68A8.51,8.51,0,0,1,464,18.13c-1.84,2.56-9.11,7.2-9.47,7.45a19.71,19.71,0,0,0-3.67,2.77h15Z"/><path class="cls-1" d="M510.06,10c-8.89-.14-16.6,7.85-16.6,13.68,0,4.17,5.3,6.23,10.19,6.33A49.11,49.11,0,0,0,501,36.6c-2.91-.8-13.24-3.68-13.24-12.28,0-6.66,5.14-11.45,6.62-12.38a96.13,96.13,0,0,0-14.9,2.27l-.83-6.77a116.36,116.36,0,0,0,16-.83A85.72,85.72,0,0,0,509.05,4Zm-6,5.11A22.72,22.72,0,0,1,507.43,19c-1,.72-1.51,1.12-2.77,2.16a29.58,29.58,0,0,0-3.2-4.06Zm3.78-2.55a22.62,22.62,0,0,1,3.21,3.78,34,34,0,0,0-2.63,2.23,26.91,26.91,0,0,0-3.2-4.07Z"/><path class="cls-1" d="M523.09,6.21c.29.11.47.26.47.51,0,.43-.68.5-1,.54a49.65,49.65,0,0,0-2.16,13.86,24.91,24.91,0,0,0,.26,3.6l1.69-2.56a15.13,15.13,0,0,0,2.59,3.56,16.06,16.06,0,0,0-3,8.82l-4.82.9a50.4,50.4,0,0,1-2-14.5,65.1,65.1,0,0,1,2.16-16.49Zm17.1-.79c.18,0,.47.08.47.4s-.5.54-.83.58a39.74,39.74,0,0,0-.36,4.31,32.47,32.47,0,0,0,5.33-1.33v5.44c-.83.21-2.48.61-5.47,1.15a59.37,59.37,0,0,0,.57,8.28A19.92,19.92,0,0,1,546.74,28c-.57,1-1.65,3.38-2.45,5.07a12.54,12.54,0,0,0-3.85-2.73c-.14,4.6-4.75,5.14-7,5.14-5.39,0-8.09-2.95-8.09-6.3,0-4.28,4.24-5.9,8.92-5.79-.29-4.1-.32-4.57-.39-6.66-2.06.18-3.53.18-4.14.18-1.16,0-1.91,0-2.67-.11V11.11a38.05,38.05,0,0,0,6.77.25c0-1.51,0-4.68,0-7Zm-7.45,22.32c-.79,0-2.52.25-2.52,1.37,0,.93,1.19,1.33,2.34,1.33.29,0,2.45,0,2.45-1.76a1,1,0,0,0-.07-.47A5.14,5.14,0,0,0,532.74,27.74Z"/><path class="cls-1" d="M557.22,35.77a28.87,28.87,0,0,0-7.3-6.19l3.49-3.86a47.25,47.25,0,0,1,7.88,6.05Z"/><path class="cls-1" d="M36.63,69V64.58h1.8c.68,0,5-.39,5-3.53,0-3-3.2-3-4.28-3-2.77,0-4.71.43-4.79,3.56H27.59c.79-6.77,5.54-9.11,11.77-9.11,6.73,0,10.58,3.1,10.58,7.71,0,4.35-3,5.54-4.39,6.12,1.66.61,5.11,1.94,5.11,6.76,0,6.41-5.68,9.36-12.16,9.36-6.19,0-11.34-2.88-11.84-10.26h6.76c.08,1.37.33,4.86,5.15,4.86.68,0,5.33-.11,5.33-4,0-2.3-1.62-4.07-5.15-4.07Z"/><path class="cls-1" d="M62.26,58.53a29.22,29.22,0,0,0,4.53-.86C77,55,79.39,54.4,83.35,54.4c8.64,0,12.42,5.72,12.42,12.05C95.77,80,79.39,81,73.6,81.32a23.78,23.78,0,0,0-1.84-5.76c6.48,0,17.93-.18,17.93-9,0-1.88-.65-6.88-7-6.88-5.36,0-14.25,3.64-18.14,5.83Z"/><path class="cls-1" d="M115.79,78.22C123.6,76.78,125.9,70.74,125.9,67c0-2.91-1.54-8.28-8.31-8.82-1.12,13.18-6.55,23-10.37,23-2.8,0-8-4.76-8-11.41,0-7.74,7-16.78,17.63-16.78,7.89,0,14.76,5.36,14.76,14a16.74,16.74,0,0,1-4.25,11.12c-2.19,2.56-4.75,3.89-7.81,5.22A23.21,23.21,0,0,0,115.79,78.22Zm-11.27-8.89c0,2.77,1.55,4.86,2.31,4.86s1.54-1.62,1.94-2.55a31.4,31.4,0,0,0,2.77-12.39C107.37,60.8,104.52,66.09,104.52,69.33Z"/><path class="cls-1" d="M161.15,60.05c.18.1.5.36.5.64s-.18.36-.57.36a2.49,2.49,0,0,1-.51-.07,26.28,26.28,0,0,1-3.27,3.46,6.18,6.18,0,0,0,4.39,2,9.2,9.2,0,0,1-1.08,3.6A4.57,4.57,0,0,1,157.15,72H148a3.56,3.56,0,0,1-2.05-.58,28.92,28.92,0,0,1-8.35,2.52,15.36,15.36,0,0,0-3.24-4.35,37.67,37.67,0,0,0,10.12-2.16V63a23.46,23.46,0,0,1-5.33,5.76c-.9-1.41-1.55-1.87-3.74-2.77a17.16,17.16,0,0,0,4-3.68h-4.47v-8.6h13.54V50.87l5.83.11c.47,0,.68.21.68.46s-.29.47-.65.69v1.58h13.32v8.46h-3.17a33.25,33.25,0,0,1,3.78,4.68,26.71,26.71,0,0,0-4,2.73,32.64,32.64,0,0,0-4.68-5.83l2.88-2.3V57.89h-4.79ZM148.69,78.76v-6.3l5.22.15c.47,0,.65.25.65.47s-.25.43-.65.79v4.89H160V73.29l5.19.25c.28,0,.79.08.79.54,0,.26-.15.4-.54.69v9.5H160V83.12H142.5v1.15h-5.29V74.16l5.29.18a.56.56,0,0,1,.58.54c0,.36-.25.5-.58.64v3.24Zm-.5-17.71c-1-.72-1.48-1-2-1.29l1.77-1.87H140.2v3.2c.14-.25.22-.43.54-1l3.71,1.73V61Zm3-3.16a22.25,22.25,0,0,1,2.73,2A30.65,30.65,0,0,0,151,63.32c-.54-.5-.9-.79-1.58-1.33v3.17c3.35-2.27,6.66-5.55,7.52-7.27Zm3.6,10c2.12,0,2.19-1,2.34-3.24a28.16,28.16,0,0,1-3.89,3.24Z"/><path class="cls-1" d="M189.63,52c.21,0,.72.14.72.65s-.65.54-.9.54L188.62,55a38.46,38.46,0,0,0,7.45-1.69v5.33c-5.36.93-6,1-10.26,1.54-.43.76-.5.9-1.4,2.49a6.8,6.8,0,0,1,3.13-.72A6.31,6.31,0,0,1,192.79,65c5.33-2.56,5.94-2.81,7.27-3.57l2.13,5.76A84.79,84.79,0,0,0,194,70.09c.07,1,.11,2.16.11,3.24,0,1.62-.07,2.63-.11,3.6-1.15-.07-2.45-.07-3.6-.07a16.55,16.55,0,0,0-2.09.07,30.41,30.41,0,0,0,.26-4.1c-2.24,1.36-4.5,2.87-4.5,4.35s3.67,1.73,5.5,1.73a40.29,40.29,0,0,0,11.52-1.77,22.36,22.36,0,0,0-.68,5.73,45,45,0,0,1-10,1c-2.42,0-11.78,0-11.78-6.37,0-4.25,5.73-7.81,9.65-9.86a2.6,2.6,0,0,0-2.7-1.8c-3.74,0-6.26,4-8.24,7.23l-5-2.84a77.45,77.45,0,0,0,7.3-9.68c-1.94.07-3.53.07-5.07,0l0-5.22c1.12.11,3.21.29,5.65.29,1.05,0,1.48,0,2.06,0a26.31,26.31,0,0,0,1.9-4.72Z"/><path class="cls-1" d="M228.07,64.73V78h-5.43v.72H219v-4.5a11.79,11.79,0,0,1-1.16,2.81,11.85,11.85,0,0,0-3.06-2.19,3.7,3.7,0,0,0,.47,2.48c1.55,2.3,5,2.3,11.92,2.3A94.91,94.91,0,0,0,241.07,79a14.47,14.47,0,0,0-1.26,4.86H222.24c-4.39,0-7.67-1.48-9.57-3.46-.51.44-2.77,2.27-3.24,2.67.07.29.11.93-.54.93-.18,0-.36-.21-.47-.39L205.72,79a22.13,22.13,0,0,0,4.07-2.45V69.19h-3.1V64.73h8.06v7.7a32.78,32.78,0,0,0,1.52-9.11V52.16h11.44V62.67h-7c-.07,1.19-.07,1.55-.11,2.06Zm-18.28-13a57.46,57.46,0,0,1,5.9,5.07,28.15,28.15,0,0,0-3.64,3.78,52.53,52.53,0,0,0-5.86-5.29Zm10.94,4.68v2.44h2.84V56.38Zm1.91,12.34v5.15h1.73V68.72Zm16.2-10.19c.25,0,.61.18.61.47s-.47.51-.83.65c-.25.83-.58,1.84-.83,2.48h2.27v4.22H236.5v2.26h3.13V73H236.5v5.4h-4.61V73h-3.06V68.61h3.06V66.35h-3.6V62.13h1.94a17.15,17.15,0,0,0-1-3.38l2.05-.43h-2.77V54.25h3.42V51.16h4.61c.43,0,.54.25.54.46a1.12,1.12,0,0,1-.54.8v1.83h3.13v4.07h-1.87Zm-4.76,3.6c.15-.36.83-2.59,1.12-3.81h-2.66a27.51,27.51,0,0,1,1,3.38l-1.83.43Z"/><path class="cls-1" d="M252.19,53.82c.44.11.62.18.62.43,0,.43-.62.54-.87.58a38.29,38.29,0,0,0-2,13.06,19.38,19.38,0,0,0,.61,5.4c.26-.57,1.37-3.2,1.62-3.74A24.6,24.6,0,0,0,256,72.18a30.89,30.89,0,0,0-3.82,10.26l-4.67.68c-2.27-4.75-3.06-12.13-3.06-16.45,0-2.3.25-9.21,1.9-14.36Zm17.21-1.48c.68.08,1,.08,1,.44s-.39.46-.65.5c0,2,0,4.5,0,6.48a33.47,33.47,0,0,0,5.33-1.62,43,43,0,0,0,.07,5.54,30.35,30.35,0,0,1-5.4,1.44c0,9.47-.79,13.46-6.51,19.3a15.67,15.67,0,0,0-4.72-3.93c5.29-3.92,5.72-9,5.72-14.58a62,62,0,0,1-7.45.4l-.5-5.83a17.61,17.61,0,0,0,3.81.32c.36,0,1.8,0,4-.18-.08-1.11-.4-5.5-.9-8.82Z"/><path class="cls-1" d="M304.46,55.69c-2.44,1.62-8,7.2-8.81,8a19.07,19.07,0,0,1,4.31-.54c4.9,0,9.94,3.09,9.94,9.46,0,7.92-7.52,11.38-13.75,11.38-4.64,0-9.14-1.84-9.14-6.19,0-3.57,3.31-5.76,7.05-5.76,3.39,0,6.91,1.91,7.74,5.29a4.76,4.76,0,0,0,2.38-4.25c0-.86-.29-5.25-5.87-5.25-6.08,0-9.54,3.56-14.54,8.78l-4.32-4.21a95.9,95.9,0,0,0,14.58-14c-1.16.25-2.38.54-9.58,1.26L283.59,54c1.4,0,11.8.14,18-2.27ZM293.63,76.57c-1.22,0-1.51.68-1.51,1.29,0,1.37,2,1.91,3.24,1.91a5.88,5.88,0,0,0,1.8-.29A3.54,3.54,0,0,0,293.63,76.57Z"/><path class="cls-1" d="M331.9,52.85c.32.07.72.21.72.57s-.51.47-.79.47c-.15.58-.76,3.13-.9,3.64a22.37,22.37,0,0,0,6-1.77l.61,5.65a46.29,46.29,0,0,1-8.13,1.7,87,87,0,0,1-9.43,21,37.6,37.6,0,0,0-5.44-2.73A58.07,58.07,0,0,0,323.4,64c-2.19.18-2.63.18-6.58.22l-.47-5.91c1.08.07,2.34.15,4.17.15,1.62,0,2.7,0,4.29-.15.5-2.7.75-5,1-6.8Zm2.7,21.67a3.5,3.5,0,0,0-1,2.12,1,1,0,0,0,.64.94,13.32,13.32,0,0,0,4.83.61A26,26,0,0,0,347,77a15.25,15.25,0,0,0-.26,2.81,26.33,26.33,0,0,0,.22,3,43.87,43.87,0,0,1-7.45.61c-4.72,0-11-.69-11-5.8A9.75,9.75,0,0,1,330,72.9Zm-1.69-10.19a45.92,45.92,0,0,1,7.95-.65,25.16,25.16,0,0,1,5.29.4c-.21,2.66-.25,3.24-.29,5.65a20.8,20.8,0,0,0-5.4-.65,67,67,0,0,0-7.55.65Z"/><path class="cls-1" d="M359.91,53.82a31.61,31.61,0,0,0,.82,5.9,17.29,17.29,0,0,1,6.48-2.09,34.3,34.3,0,0,0,.54-6.19l6.09,1.41c.43.11.68.25.68.54,0,.5-.58.47-.76.47,0,.18-.68,3.23-.79,3.77a11.68,11.68,0,0,1,10.37,12.1c0,10.26-9.65,13.32-13.82,14A16.81,16.81,0,0,0,366.35,79,16.48,16.48,0,0,0,373,77c3-1.66,4.68-3.74,4.68-7.45,0-5.76-4.42-6.59-5.93-6.84a34.63,34.63,0,0,1-4.61,10.62c.39.5.68.9,1.65,2a27.79,27.79,0,0,0-4.57,4.14c-.5-.72-.72-1-1-1.58-3.39,3.1-5.51,3.28-6.73,3.28-3.17,0-5.37-2.31-5.37-6.2a17.52,17.52,0,0,1,5.11-11.77,71.19,71.19,0,0,1-2.15-7.55Zm-1.7,14.65a11.48,11.48,0,0,0-2.08,5.9c0,.25,0,1.26,1,1.26s2.41-1.44,3.31-2.37C359.15,70.63,358.5,69.19,358.21,68.47Zm4.07-3.89A33.34,33.34,0,0,0,364,68.36a21.48,21.48,0,0,0,2.16-5.47A14,14,0,0,0,362.28,64.58Z"/><path class="cls-1" d="M396.16,54.18c.68.25,1,.36,1,.61s-.72.4-1,.43a41.85,41.85,0,0,0-2.34,14.87,12.53,12.53,0,0,0,.25,2.88c.22-.4,1.08-2,1.51-2.7a10.62,10.62,0,0,0,2.77,3c-.9,1.69-2.55,5.87-2.37,8.6l-5.11,1.37a37.8,37.8,0,0,1-2.56-14.4c0-6.51,1-11,2.31-16.7Zm9.5,16.92a10,10,0,0,0-.54,2.55c0,1.59.87,1.84,5,1.84a37.11,37.11,0,0,0,8.9-1,23.77,23.77,0,0,0-.54,5.86,76.56,76.56,0,0,1-9.11.47c-5.36,0-9.5-.93-9.5-5.33a13.42,13.42,0,0,1,1.18-5.29Zm-4.35-15.37c1.08.07,2.52.18,4.68.18a41.36,41.36,0,0,0,10.58-1.16,53.4,53.4,0,0,0,.5,5.48A54.06,54.06,0,0,1,406,61.31c-2.13,0-3.53-.11-4.68-.18Z"/><path class="cls-1" d="M25.86,123.78l3.5-1.08V99.88l6,.46a.67.67,0,0,1,.65.62c0,.5-.68.71-.9.79v19.11c2.3-.76,6.91-2.45,9-3.31a16.66,16.66,0,0,0-.21,2.63,14.53,14.53,0,0,0,.21,2.55c-6.26,2.63-13.75,5.33-14.75,5.69-.29.5-.51.86-.83.86s-.47-.32-.58-.54Zm31.82-23.65a.52.52,0,0,1,.58.54c0,.5-.5.68-.83.79,0,11-1.4,16.52-3.09,19.9,2.41,2.24,4.71,4.61,5.72,6.52a38.14,38.14,0,0,0-4.14,4,30.31,30.31,0,0,0-4.64-6c-3.64,4.22-7.6,5.62-11.23,6.59A14.08,14.08,0,0,0,36.7,128a17.2,17.2,0,0,0,10.58-5.69c1.48-1.72,4.57-5.32,4.57-17.31a48.78,48.78,0,0,0-.25-5.07Zm-15.29.57a34.6,34.6,0,0,1,6.3,8.14A32.9,32.9,0,0,0,43.9,112a30.81,30.81,0,0,0-6-8.06Z"/><path class="cls-1" d="M80.58,108.15c1.77,1.12,4.11,2.63,5.15,3.46,5.25,4.21,5.79,4.64,6.87,5.9a44.09,44.09,0,0,0-4.17,4.65,36.48,36.48,0,0,0-7.85-7.27v17.53H74.82V105.85H62.69V100.6H95.63v5.25h-15Z"/><path class="cls-1" d="M115.47,126.22c7.81-1.44,10.11-7.48,10.11-11.23a8.53,8.53,0,0,0-8.31-8.82c-1.12,13.18-6.56,23-10.37,23-2.81,0-8-4.76-8-11.41,0-7.74,7.06-16.78,17.64-16.78,7.88,0,14.76,5.36,14.76,14A16.8,16.8,0,0,1,127,126.08c-2.2,2.56-4.75,3.89-7.81,5.22A23.54,23.54,0,0,0,115.47,126.22Zm-11.27-8.89c0,2.77,1.55,4.86,2.3,4.86s1.55-1.62,2-2.55a31.75,31.75,0,0,0,2.77-12.39C107,108.8,104.2,114.09,104.2,117.33Z"/><path class="cls-1" d="M159.56,108.55V99.48l5.51.29c.58,0,.83.18.83.43s-.47.54-.9.68v7.67h3.31v4.79H165v13.82c0,4.68-2.12,5.18-8.21,5.18a10.5,10.5,0,0,0-2.48-5.83,30.31,30.31,0,0,0,4,.43c1,0,1.29-.36,1.29-2V113.34h-7.12V109h-1.95a41.24,41.24,0,0,1-3.34,10.84,71,71,0,0,1,4.39,7.74,39.42,39.42,0,0,0-5.08,2.73,52.29,52.29,0,0,0-2.16-5.4c-3.31,4.79-5.47,6.52-6.76,7.53a9.17,9.17,0,0,0-4.47-3.21,26.74,26.74,0,0,0,8.06-9,42.75,42.75,0,0,0-6.26-7.09l4-2.77a35.32,35.32,0,0,1,4.71,5,30.61,30.61,0,0,0,1.87-6.37h-11v-4.57h6.58V99.3l5.8.29c.18,0,.65,0,.65.43s-.44.58-.65.65v3.74h6.08v4.14Zm-5.25,6.19a28.36,28.36,0,0,1,3.82,6.77c-.51.25-3.24,1.76-4.86,2.63a33.5,33.5,0,0,0-3.35-6.88Z"/><path class="cls-1" d="M190.38,106a21.26,21.26,0,0,1-1.33,1.8,20.42,20.42,0,0,0-4.5-1.55c.07-.07.14-.18.22-.25h-2.45a19.53,19.53,0,0,1,.9,2.23,21.88,21.88,0,0,0-5,.76,23.8,23.8,0,0,0-1.08-3H176c-1,1.33-1.55,1.94-2,2.52a19.75,19.75,0,0,0-4.47-1.69,25.54,25.54,0,0,0,5.08-7.74l4.86.93a.5.5,0,0,1,.46.44c0,.39-.39.61-.9.68-.1.18-.21.4-.32.61h7.52v2.34A29,29,0,0,0,188.37,99l5.11.93a.55.55,0,0,1,.5.54c0,.33-.36.54-.94.51l-.32.75h10V106h-5.43a22.9,22.9,0,0,1,1,2.19,30,30,0,0,0-5.36.69,18.59,18.59,0,0,0-1.22-2.88Zm-.9,26.53h-4.93v-8.07a44.24,44.24,0,0,1-10.83,7.67,15.41,15.41,0,0,0-4-3.78,27.15,27.15,0,0,0,7.74-3.85h-4.72v-9.61h11.81v-1.37H170.37V109.2h14.18v-2l5.18.79a.54.54,0,0,1,.54.5c0,.36-.36.47-.79.65v.11h13.86v4.28H189.48v1.37H201.4v6.8c0,2.59-2.63,3.1-4.07,3.31a30.59,30.59,0,0,0,6.66,3.17,9.55,9.55,0,0,0-4,3.93,33.84,33.84,0,0,1-10.48-7.78Zm-11.66-8.28A33.82,33.82,0,0,0,183.4,119h-5.58ZM190.89,119a24.65,24.65,0,0,0,4.28,4.43,11.26,11.26,0,0,0-1.48-3c.25,0,1.51.18,1.8.18.51,0,.72-.18.72-.68v-1Z"/><path class="cls-1" d="M225.3,100c.22,0,.72.14.72.65s-.65.54-.9.54l-.83,1.76a38.15,38.15,0,0,0,7.45-1.69v5.33c-5.36.93-6,1-10.25,1.54-.44.76-.51.9-1.41,2.49a6.84,6.84,0,0,1,3.13-.72,6.33,6.33,0,0,1,5.26,3.06c5.33-2.56,5.94-2.81,7.27-3.57l2.12,5.76a85.39,85.39,0,0,0-8.2,2.92c.07,1,.1,2.16.1,3.24,0,1.62-.07,2.63-.1,3.6-1.16-.07-2.45-.07-3.6-.07a16.55,16.55,0,0,0-2.09.07,30.85,30.85,0,0,0,.25-4.1c-2.23,1.36-4.5,2.87-4.5,4.35s3.67,1.73,5.51,1.73a40.34,40.34,0,0,0,11.52-1.77,22.84,22.84,0,0,0-.69,5.73,45,45,0,0,1-10,1c-2.41,0-11.77,0-11.77-6.37,0-4.25,5.72-7.81,9.65-9.86a2.61,2.61,0,0,0-2.7-1.8c-3.75,0-6.27,4-8.24,7.23l-5-2.84a76.63,76.63,0,0,0,7.31-9.68c-1.94.07-3.53.07-5.08,0l0-5.22c1.12.11,3.2.29,5.65.29,1,0,1.48,0,2,0a27.56,27.56,0,0,0,1.91-4.72Z"/><path class="cls-1" d="M251,103c.32.11.72.22.72.54s-.43.54-.76.58a32.32,32.32,0,0,0-2,10.83c0,4.39,1.37,7.45,2.41,7.45s2.52-3.16,3.49-5.43a16.29,16.29,0,0,0,3.78,3.81c-2.88,7-6.15,9.43-7.92,9.43-2,0-7.34-4.28-7.34-15.4a64.3,64.3,0,0,1,1.76-13.46Zm17.39.25a35.89,35.89,0,0,1,7.27,18.11c-2.13.83-4.68,2-5.87,2.66a32.75,32.75,0,0,0-6.05-17.82Z"/><path class="cls-1" d="M295.57,100.85c.33.07.72.21.72.57s-.5.47-.79.47c-.14.58-.75,3.13-.9,3.64a22.6,22.6,0,0,0,6-1.77l.61,5.65a46.76,46.76,0,0,1-8.14,1.7,87,87,0,0,1-9.43,21,37.4,37.4,0,0,0-5.43-2.73A58.54,58.54,0,0,0,287.08,112c-2.2.18-2.63.18-6.59.22l-.47-5.91c1.08.07,2.34.15,4.18.15,1.62,0,2.7,0,4.28-.15.51-2.7.76-5,1-6.8Zm2.7,21.67a3.5,3.5,0,0,0-1,2.12,1,1,0,0,0,.65.94,13.25,13.25,0,0,0,4.82.61,25.89,25.89,0,0,0,7.92-1.19,15.45,15.45,0,0,0-.25,2.81,24.17,24.17,0,0,0,.22,3,43.9,43.9,0,0,1-7.46.61c-4.71,0-11-.69-11-5.8a9.75,9.75,0,0,1,1.4-4.71Zm-1.69-10.19a46,46,0,0,1,8-.65,25.16,25.16,0,0,1,5.29.4c-.22,2.66-.25,3.24-.29,5.65a20.85,20.85,0,0,0-5.4-.65,67.38,67.38,0,0,0-7.56.65Z"/><path class="cls-1" d="M327.22,100.85c.54.07.83.11.83.5s-.26.43-.69.61a79.34,79.34,0,0,0-1.15,14.29c0,8.17.79,9.69,3.56,9.69,6.16,0,11.59-8.32,12.57-10.33a37.82,37.82,0,0,0,4.17,4.71C342.41,127,336.29,132,329,132c-8,0-8.64-6.76-8.64-15.76,0-2.09.36-11.2.36-13,0-1,0-2.27-.07-3.31Z"/><path class="cls-1" d="M370.6,100.56c.32.07.65.11.65.47s-.4.47-.65.5c-.15,1.4-.15,1.73-.18,2.13,1.65,0,7.23-.11,9.93.21v5.36a88.09,88.09,0,0,0-10.11-.32v4a47.26,47.26,0,0,0,9.14-1.69v5.36a67.79,67.79,0,0,1-9,1.19c0,1.55,0,1.69.07,3.2,4.5.61,10.69,3.75,12,4.75a57.65,57.65,0,0,0-4,4.5,29,29,0,0,0-7.7-4.53c.07,1.87.32,6.12-7.56,6.12-5.58,0-9.65-2.56-9.65-5.83,0-4.11,5.15-5.87,11.16-5.76,0-.83,0-.83,0-2.13-3.56.07-10.07.18-10.07-3.38,0-1.26.64-2.41,2.51-4.36l4,.9c-.64.87-.75,1-.75,1.23s0,1,4.21.83c0-.65,0-3.57,0-4.14-4.42.18-8.31.68-11.3,1.08v-5.69c1.77-.18,9.65-.54,11.27-.65,0-1.37,0-2.77-.15-4.43Zm-7.45,23.76c-.18,0-3.64,0-3.64,1.47,0,1.19,2,1.3,2.59,1.3,1.77,0,2.85-.65,2.63-2.63A8.05,8.05,0,0,0,363.15,124.32Z"/><path class="cls-1" d="M406.81,100c.58.07.9.11.9.4s-.43.54-.72.61c-.07.64-.1,1.08-.18,2.52,10.15-.43,11.27-.47,11.95-.54,0,.75-.1,4.32,0,5.79-6.52-.32-9.25-.32-11.88-.29a29.71,29.71,0,0,0,0,4c2.08,2.56,2.08,6.41,2.08,6.91a17,17,0,0,1-8.35,13.9,23.71,23.71,0,0,0-5.25-3.71c1.08-.43,5.33-2.23,6.62-5.19a4,4,0,0,1-2.84.87,4.81,4.81,0,0,1-3.89-1.62,9,9,0,0,1-1.55-5.33c0-7.92,6.77-7.67,7.53-7.56,0-1.15,0-1.47,0-2A96.79,96.79,0,0,0,387,110.64l-.4-6.09c.83,0,2.2,0,14.62-.75a35.61,35.61,0,0,0-.51-4.57Zm-8.31,18c0,2.37,1.19,3,1.83,3,1.12,0,1.77-1.66,1.77-3.46,0-.82-.18-2.23-1.62-2.23C399.29,115.35,398.5,116.54,398.5,118Z"/><path class="cls-1" d="M433.38,126.66a5.08,5.08,0,1,1-5.07-5.08A5.1,5.1,0,0,1,433.38,126.66Zm-7.92,0a2.85,2.85,0,1,0,2.85-2.85A2.83,2.83,0,0,0,425.46,126.66Z"/></g></g></svg>