<svg xmlns="http://www.w3.org/2000/svg" viewBox="0 0 347.99 95"><defs><style>.cls-1{fill:#ffa000;}</style></defs><g id="レイヤー_2" data-name="レイヤー 2"><g id="object"><rect class="cls-1" width="10" height="95"/><path class="cls-1" d="M58.33,10.1v4.61H45.88v5.15h9.39v4.82H45.88v6.55H59.45V35.8H26.55V31.23H40.19V24.68H30.58V19.86h9.61V14.71H27.74V10.1H41.52a18.93,18.93,0,0,0-4.86-3.78l3.53-3.56a30.5,30.5,0,0,1,6.88,5.15,25.72,25.72,0,0,0-2.42,2.19Z"/><path class="cls-1" d="M88,20.07v1.51h5.58v3.64H88v1.51h5.58v3.64H88v1.47h7.27v3.93H78.71v.57H73.63V23.82l-1,1a12.09,12.09,0,0,0-1.73-2.56V36.34H65.68V19.07l-1,1.18A8.66,8.66,0,0,0,61,16.55,38.33,38.33,0,0,0,68.6,2.87l5,1.69V4l5.12.18a.47.47,0,0,1,.54.51c0,.36-.29.54-.8.86V9h2.7V3.05l5.37.32c.36,0,.54.22.54.47,0,.47-.54.61-.87.68V9h3V4.16l5.32.33c.44,0,.65.14.65.39,0,.44-.43.62-.9.83v7.2H86l2.52,1.37a.66.66,0,0,1,.39.57c0,.4-.5.54-1,.65-.15.25-.36.58-.58.9H95v3.67Zm-17-.64a33.36,33.36,0,0,0,4.9-6.52h-2.2V5.64c-.1,0-.21.11-.32.14-.61,1.34-1,2.09-2.23,4.54.54.29.68.36.68.61s-.57.65-.83.76Zm7.78.64v1.51h4.18V20.07Zm0,5.15v1.51h4.18V25.22Zm4.18,6.62V30.37H78.71v1.47ZM81.59,16.4a36.6,36.6,0,0,0,2-3.49H79.14l1.66.83c.29.14.5.29.5.57s-.39.54-1,.62c-.4.64-.54.86-.9,1.47Z"/><path class="cls-1" d="M128.82,6.11a.7.7,0,0,1,.36.47c0,.21-.18.39-.54.39-.14,0-.29,0-.61-.07-2.38,3.53-3.6,5.11-4.21,5.9h7.48v4.54H119.71a31.3,31.3,0,0,1-2.77,2.37h10.94V36.45H122.7V35.12H110.79v1.33H105.6V26.37a39,39,0,0,1-4.89,1.8A16.46,16.46,0,0,0,97.9,23.1,42.1,42.1,0,0,0,112,17.34H98.62V12.8h12.49V10.89h-10V6.43h10v-3l5.65.21c.22,0,.58,0,.58.4s-.25.4-.9.65V6.43h4.25V8.88A34.84,34.84,0,0,0,124,3.41ZM122.7,25.65V24H110.79v1.69Zm0,5.4V29.4H110.79v1.65ZM117.41,12.8c.32-.32.72-.75,1.69-1.91h-2.66V12.8Z"/><path class="cls-1" d="M151.07,5c.65.14.86.21.86.61s-.46.47-.93.5c-.18.72-1,3.74-1.19,4.54,6.37-.26,8.53,3.7,8.53,10.69,0,.57,0,8.28-3,12.06-.79,1-2.3,2.37-5.79,2.37a9.22,9.22,0,0,1-3.06-.43,16.89,16.89,0,0,0-.76-5.87,14.21,14.21,0,0,0,3.78.72c2.95,0,3.35-6.48,3.35-10.08,0-1.44-.11-4.06-3.38-4.06a9.79,9.79,0,0,0-1.08.07,75,75,0,0,1-8.21,19.47A17.71,17.71,0,0,0,135,32.67a64.29,64.29,0,0,0,7.59-15.33,28.78,28.78,0,0,0-5.11,1.94l-1.69-6.08c1.44-.15,3-.51,8.31-1.69a37.73,37.73,0,0,0,1.08-8Zm9.25,4.35a44.14,44.14,0,0,1,5.83,7c1.33,2,1.73,3.24,1.73,4.5,0,2.7-3.13,3.85-5.29,4.68a37.15,37.15,0,0,0-2.74-4.79c1.37-.43,1.84-.58,1.84-1.37,0-1.73-3.53-6.26-5.08-7.92Zm2-4.46a23.81,23.81,0,0,1,2.95,3.56c-.83.58-1,.72-2.63,1.91-.36-.47-2.16-2.85-2.95-3.67Zm3.6-2.23a19.59,19.59,0,0,1,3,3.67c-.79.57-2.09,1.47-2.92,2.05a15.73,15.73,0,0,0-2.88-4Z"/><path class="cls-1" d="M184.51,13.05h19V18h-4.36V32.24c0,1.76,0,4.25-8.6,4.07a11,11,0,0,0-1.8-5.47c.61.07,2.88.28,3.21.28.64,0,1.54,0,1.54-1.22V18H184V14.13a1.15,1.15,0,0,0-.32.08c-1.62,2.12-2.42,3.13-3.24,4.17.28.11.79.33.79.65s0,.4-.43.65V36.31h-5.65V23.71a17.68,17.68,0,0,1-2.09,1.69A12.22,12.22,0,0,0,169,22a36.24,36.24,0,0,0,10.9-11.52ZM182.89,5.6a.82.82,0,0,1,.4.58c0,.54-.58.57-.9.57a47.22,47.22,0,0,1-8.71,7.42,13,13,0,0,0-4.07-3.42,42.32,42.32,0,0,0,9.18-7.7ZM202.26,9H185.45V4.09h16.81Z"/><path class="cls-1" d="M208.24,9.17a26.22,26.22,0,0,0,4,.29c1.05,0,2.13-.08,3.68-.19a56.69,56.69,0,0,0,1.33-6.11l5.65,1.76c.5.14.68.29.68.58s-.57.43-.75.43c-.11.25-.58,1.9-.72,2.37A32.32,32.32,0,0,0,226,7.12a38.29,38.29,0,0,0,.1,5.36,47.31,47.31,0,0,1-5.76,1.26c-.5,1.47-1.72,4.79-3.67,9.21a48.31,48.31,0,0,1-4.21,7.92,28.85,28.85,0,0,0-5.4-2.16,64,64,0,0,0,7.27-14.22c-.82.08-4.28.18-5.4.18ZM231.53,19a5.34,5.34,0,0,0-1.3,3.53,25.27,25.27,0,0,0,.36,3.53,38.49,38.49,0,0,1,7.63,4.39,36.49,36.49,0,0,0-3.31,4.32,30.66,30.66,0,0,0-4.14-3c-.68,3.38-3.06,4.39-7.2,4.39-5.72,0-8.56-2.56-8.56-5.94,0-.69.14-5.69,7.41-5.69,1,0,1.73.07,2.38.11,0-.25-.18-2.84-.18-3.13a7,7,0,0,1,2.52-5Zm-8.93,9.79c-1,0-2.3.51-2.3,1.48s1,1.33,2.55,1.33c2.45,0,2.6-1.19,2.7-2.09A7,7,0,0,0,222.6,28.78Zm7-19.18c5.72,1.87,7.84,3.38,9.46,4.68a45.59,45.59,0,0,0-3.27,4.64,25.89,25.89,0,0,0-9-4.64Z"/><path class="cls-1" d="M244.89,15.32c1.62-.14,2.23-.36,7.74-2.37a28.89,28.89,0,0,1,9.93-2.24c5.26,0,9.9,3.53,9.9,10.08,0,11.16-12.38,15.52-17.17,16.38a18.72,18.72,0,0,0-3.78-4.89c13.61-2.45,15.19-8.75,15.19-11.16A4.73,4.73,0,0,0,261.81,16c-3.1,0-9,2.09-14.29,6.59ZM252.7,2.4a31.12,31.12,0,0,0,10.69,1.76A18.46,18.46,0,0,0,266.05,4a50.46,50.46,0,0,0-.72,6c-7.84-.11-11.59-1.27-13.42-1.84Z"/><path class="cls-1" d="M58.58,65.73c-10.25,0-15.15,6.27-15.15,9.87s3.85,4.06,9.39,4.1a35.13,35.13,0,0,0-2,5.43c-5.68-.5-13.64-1.33-13.64-8.81a11.6,11.6,0,0,1,4-8.1,85.84,85.84,0,0,0-13.39,3.2l-1.4-6.51c2.81-.11,6-.36,8.78-.69a29.79,29.79,0,0,0,6.7-6.59c-.9.08-4.94.51-5.76.58-1.12.07-1.88.11-2.59.11l-.37-5.58c.87,0,2.27.11,4.18.11,1,0,9.22,0,14.18-1.41l2.23,3.31A108.16,108.16,0,0,0,43.93,63c6-1.08,9-1.66,14-2.81Z"/><path class="cls-1" d="M79.47,78.22C87.28,76.78,89.58,70.74,89.58,67a8.53,8.53,0,0,0-8.31-8.82c-1.12,13.18-6.56,23-10.37,23-2.81,0-8-4.76-8-11.41C62.87,62,69.93,53,80.51,53c7.88,0,14.76,5.36,14.76,14A16.8,16.8,0,0,1,91,78.08c-2.2,2.56-4.75,3.89-7.81,5.22A23.54,23.54,0,0,0,79.47,78.22ZM68.2,69.33c0,2.77,1.55,4.86,2.3,4.86s1.55-1.62,2-2.55a31.75,31.75,0,0,0,2.77-12.39C71,60.8,68.2,66.09,68.2,69.33Z"/><path class="cls-1" d="M105.89,84.56H101V67.71c-.29.36-.58.69-.86,1A15.66,15.66,0,0,0,97,64.47c4.25-4.1,7.56-10.94,8-13.21l4.86,1.91a.5.5,0,0,1,.4.47c0,.29-.4.54-.9.61a42.34,42.34,0,0,1-3.28,6.52c.33.14.58.28.58.68s-.47.58-.76.68ZM117.52,60.8V51.48l4.82.36c.4,0,.79.07.79.54,0,.29-.43.54-.79.65v6.73l5.22-1.15,2.34,1.33V69c0,4.07-.83,5.18-1.22,5.69-.9,1.15-3.28,1.72-5,1.72a10.28,10.28,0,0,0-1.37-4.32v3.82h-4.82V65.84l-2,.43v11c0,1.48,1.29,1.91,3,1.91h6.66c1.87,0,2.19-1.4,2.73-3.6a8.7,8.7,0,0,0,4.4,2.09c-1.12,5.65-3.89,6.23-7.2,6.23h-8.25c-5.94,0-6.33-3-6.33-5.65v-11l-3.28.69-1-4.83,4.25-.9V53.86l4.89.28c.18,0,.72,0,.72.54,0,.33-.21.51-.64.72v5.83Zm4.82,4v6.66c.36,0,1,.08,1.44.08s1,0,1-1V64.29Z"/><path class="cls-1" d="M151.47,78.22c7.81-1.44,10.11-7.48,10.11-11.23a8.53,8.53,0,0,0-8.31-8.82c-1.12,13.18-6.56,23-10.37,23-2.81,0-8-4.76-8-11.41C134.87,62,141.93,53,152.51,53c7.88,0,14.76,5.36,14.76,14A16.8,16.8,0,0,1,163,78.08c-2.2,2.56-4.75,3.89-7.81,5.22A23.54,23.54,0,0,0,151.47,78.22ZM140.2,69.33c0,2.77,1.55,4.86,2.3,4.86s1.55-1.62,1.95-2.55a31.75,31.75,0,0,0,2.77-12.39C143,60.8,140.2,66.09,140.2,69.33Z"/><path class="cls-1" d="M187.54,72.25a22.77,22.77,0,0,1,3.71,4.68c-.54.32-3,1.8-3.68,2.34A21,21,0,0,0,185,75.06c-.07.36-.43.43-.76.5v2.88c0,1.4.58,1.62,2.09,1.62h3.06c.86,0,2.16,0,3-4a8.19,8.19,0,0,0,4.28,2.63c-.83,2.77-1.08,3.74-2.34,4.64-.43.33-1,.61-2.77.61h-8.24c-3.53,0-4-1.51-4-3.7V76.82c-.26.25-.9.18-1.23.14a31.51,31.51,0,0,1-4,7.35,14.27,14.27,0,0,0-4.06-2.77c.79-.9,2.34-2.74,3.92-7.35a14.55,14.55,0,0,0-4.18-2c2.81-5,2.81-8.32,2.81-12.6V54.65h15.26c-.14-1.73-.14-2.59-.18-3.49l5.19.39c.29,0,.61.07.61.4s-.4.61-1,.86c0,.58,0,1,.11,1.84h2.87a12.13,12.13,0,0,0-1.69-1.87l3.35-2.34a25.44,25.44,0,0,1,3.31,3.7c-.43.26-.57.36-.79.51h3.71V59h-7.17l5,2a.51.51,0,0,1,.33.47c0,.46-.44.54-1.08.61a44.91,44.91,0,0,1-3.39,5.83,2.89,2.89,0,0,0,1.51.9c.83,0,1.16-1.66,1.3-2.77a8.89,8.89,0,0,0,3.89,2.77c-.25,2.27-1.3,4.43-2.2,5.07a3,3,0,0,1-1.94.58,29.23,29.23,0,0,1,4.35,6.3,14,14,0,0,0-2.19,1.15c-1.77,1.19-2,1.3-2.34,1.55a25.3,25.3,0,0,0-4.36-7l3.57-2.16a8.78,8.78,0,0,1-4.36-2.84,30.62,30.62,0,0,1-3.38,3.2,12,12,0,0,0-4-3.2l.07,0h-5.29v1.12h-4.17V64.11H188v6.66a30.54,30.54,0,0,0,3.46-3.27A27,27,0,0,1,188.51,59H177.35c.07,2.73-.11,9.46-2.88,14.76l4.43,2a1.45,1.45,0,0,1,.47.29v-2l4.89.47c.15,0,.29,0,.43,0a1.48,1.48,0,0,0-.21-.26Zm.72-12.31v3.2H177.89v-3.2ZM181.74,67v1.4h2.52V67Zm11.49-8a27,27,0,0,0,1.18,4.32A20.18,20.18,0,0,0,196.14,59Z"/><path class="cls-1" d="M220.23,78.37a37.22,37.22,0,0,1-10.33,5.94,14,14,0,0,0-3.71-4A30.71,30.71,0,0,0,216.48,75h-9.75V70.59h2.63a1.35,1.35,0,0,1-.18-.25l-2.67-3.89a73.61,73.61,0,0,0,9.5-6.26,15.17,15.17,0,0,0,1.84,3.71c-2,1.65-4.25,3.49-7.59,5.83a1.69,1.69,0,0,1,0,.86h10V69.23a21,21,0,0,1-2.09,1,13.29,13.29,0,0,0-3.39-3.42c3.68-1.62,6.77-3.34,7.49-7.45l-5.18.07L217,54.61l5.61-.07c0-1.87,0-2.41,0-2.95l5.11.32c.72,0,.93.07.93.36s-.61.61-.93.72c0,.22-.07,1.19-.07,1.48l6.47-.07L233.8,64c0,.61.21.65.57.65.87,0,1.19-.18,1.48-3.31a10.73,10.73,0,0,0,4.5,1.8c-.54,6.19-2.49,6.19-4.61,6.19h-3.53c-2.55,0-3.45-1.23-3.38-3.6l.21-6.41h-1.79a13,13,0,0,1-4.83,8.5l3.42.18c.29,0,.94,0,.94.46s-.25.47-.94.87v1.29h13.5V75h-9.21a36.85,36.85,0,0,0,9.71,5,17.35,17.35,0,0,0-3.2,4.32,37.18,37.18,0,0,1-10.8-6.73v6.73h-5.61ZM208.89,56.05a31.92,31.92,0,0,1,5.36,2.63,35.15,35.15,0,0,0-2.48,3.74,22.51,22.51,0,0,0-5.26-2.59Zm2.73-5.33a29,29,0,0,1,5.26,2.74c-1.41,2-1.59,2.23-2.52,3.78a21.65,21.65,0,0,0-5.15-2.81Z"/><path class="cls-1" d="M275.34,54.58v4.49H251.83v5.8a42.12,42.12,0,0,1-.9,10.62A22.42,22.42,0,0,1,247,84.38a14.21,14.21,0,0,0-4.5-2.38,20.86,20.86,0,0,0,4.21-10.79l-2.34,1.4c-.07.22-.25.61-.64.61s-.51-.43-.58-.61l-1.33-4.39A52,52,0,0,0,247,66.09V63.43a14.39,14.39,0,0,0-2.45,1.4,18.79,18.79,0,0,0-2.73-5.14l3.81-2.31c.54.83.87,1.33,1.37,2.2v-5h10.8V51.3l5.72.18c.33,0,.54.14.54.32,0,.33-.32.58-.75.83v1.95Zm0,24.4v4.64H250.21V79h3V67.28l4.57.22c.18,0,.83,0,.83.43,0,.25-.18.36-.43.5V79h2.3V65.63h-7.88V61H274.3v4.61h-8.61v3.56h7.42V74h-7.42v5Z"/><path class="cls-1" d="M303.56,60.55V51.48l5.51.29c.58,0,.83.18.83.43s-.47.54-.9.68v7.67h3.31v4.79H309V79.16c0,4.68-2.12,5.18-8.21,5.18a10.5,10.5,0,0,0-2.48-5.83,30.31,30.31,0,0,0,4,.43c1,0,1.29-.36,1.29-2V65.34h-7.12V61h-1.95a41.24,41.24,0,0,1-3.34,10.84,71,71,0,0,1,4.39,7.74,39.42,39.42,0,0,0-5.08,2.73,52.29,52.29,0,0,0-2.16-5.4c-3.31,4.79-5.47,6.52-6.76,7.53a9.17,9.17,0,0,0-4.47-3.21,26.74,26.74,0,0,0,8.06-9,42.75,42.75,0,0,0-6.26-7.09l4-2.77a35.32,35.32,0,0,1,4.71,5A30.61,30.61,0,0,0,289.45,61h-11V56.41h6.58V51.3l5.8.29c.18,0,.65,0,.65.43s-.44.58-.65.65v3.74h6.08v4.14Zm-5.25,6.19a28.36,28.36,0,0,1,3.82,6.77c-.51.25-3.24,1.76-4.86,2.63a33.5,33.5,0,0,0-3.35-6.88Z"/><path class="cls-1" d="M334.38,58a21.26,21.26,0,0,1-1.33,1.8,20.42,20.42,0,0,0-4.5-1.55c.07-.07.14-.18.22-.25h-2.45a19.53,19.53,0,0,1,.9,2.23,21.88,21.88,0,0,0-5,.76,23.8,23.8,0,0,0-1.08-3H320c-1,1.33-1.55,1.94-2.05,2.52a19.75,19.75,0,0,0-4.47-1.69,25.54,25.54,0,0,0,5.08-7.74l4.86.93a.5.5,0,0,1,.46.44c0,.39-.39.61-.9.68-.1.18-.21.4-.32.61h7.52v2.34A29,29,0,0,0,332.37,51l5.11.93a.55.55,0,0,1,.5.54c0,.33-.36.54-.94.51l-.32.75h10V58h-5.43a22.9,22.9,0,0,1,1,2.19,30,30,0,0,0-5.36.69A18.59,18.59,0,0,0,335.79,58Zm-.9,26.53h-4.93V76.42a44.24,44.24,0,0,1-10.83,7.67,15.41,15.41,0,0,0-4-3.78,27.15,27.15,0,0,0,7.74-3.85h-4.72V66.85h11.81V65.48H314.37V61.2h14.18V59.15l5.18.79a.54.54,0,0,1,.54.5c0,.36-.36.47-.79.65v.11h13.86v4.28H333.48v1.37H345.4v6.8c0,2.59-2.63,3.1-4.07,3.31A30.59,30.59,0,0,0,348,80.13a9.55,9.55,0,0,0-4,3.93,33.84,33.84,0,0,1-10.48-7.78Zm-11.66-8.28A33.82,33.82,0,0,0,327.4,71h-5.58ZM334.89,71a24.65,24.65,0,0,0,4.28,4.43,11.26,11.26,0,0,0-1.48-3c.25,0,1.51.18,1.8.18.51,0,.72-.18.72-.68V71Z"/></g></g></svg>