<svg id="レイヤー_1" data-name="レイヤー 1" xmlns="http://www.w3.org/2000/svg" viewBox="0 0 100.95 22.42"><defs><style>.cls-1{fill:#fff;}</style></defs><title>アートボード 4</title><path class="cls-1" d="M14.62,16.61v5.16h-3V16.61H9.79a9,9,0,0,1-3.67,5.66A7,7,0,0,0,3.43,20.5v1.73H0V.86H10.06V9.22H3.43V20.47c1.68-.93,2.83-1.84,3.31-3.86H4.27V14H7.06c0-.44,0-1,0-1.42H4.87V10H16.51v2.52H14.62V14H17v2.66ZM6.84,3.24H3.43v.89H6.84ZM6.84,6H3.43v.91H6.84Zm4.73,6.58H10.08c0,.29,0,1.2-.05,1.42h1.54Zm5.14,9.79a8.37,8.37,0,0,0-1.28-3.5,7.57,7.57,0,0,0,1.4.19c.45,0,1,0,1-.84v-9H11.11V.86H21.22V19.54C21.22,21.77,19.85,22.35,16.71,22.32ZM17.79,3.24H14.33v.89h3.46Zm0,2.71H14.33v.91h3.46Z"/><path class="cls-1" d="M43,11.47v1h3.72v2.43H43v1h3.72v2.43H43v1h4.85v2.62h-11v.38H33.41V14l-.65.65a8.23,8.23,0,0,0-1.15-1.71v9.41H28.1V10.8l-.64.79A5.83,5.83,0,0,0,25,9.12a25.64,25.64,0,0,0,5-9.12l3.36,1.13V.74l3.41.12a.32.32,0,0,1,.36.34c0,.24-.2.36-.53.58v2.3h1.8v-4L42,.34c.25,0,.37.14.37.31s-.37.41-.58.45v3h2V.86l3.55.22c.29,0,.43.1.43.26s-.29.41-.6.56V6.7H41.67l1.68.91a.44.44,0,0,1,.26.38c0,.27-.34.36-.7.43-.09.17-.24.39-.38.6h5.14v2.45ZM31.61,11A22.15,22.15,0,0,0,34.87,6.7H33.41V1.85l-.22.09c-.41.89-.65,1.4-1.49,3,.36.19.46.24.46.41s-.38.43-.55.5Zm5.18.43v1h2.79v-1Zm0,3.44v1h2.79v-1Zm2.79,4.41v-1H36.79v1ZM38.71,9A23.14,23.14,0,0,0,40.06,6.7h-3l1.11.55c.19.09.33.19.33.38s-.26.36-.7.41c-.26.43-.36.58-.59,1Z"/><path class="cls-1" d="M61.78,4.58c.14.08.24.17.24.32,0,.38-.65.33-.89.31a50.52,50.52,0,0,1-4,5.06l2-.14c-.22-.72-.31-1-.46-1.39l2.26-1.16a21.14,21.14,0,0,1,1.63,4.28,20.77,20.77,0,0,0-2.74,1.32c-.07-.53-.12-.75-.21-1.25-.15.05-.82.17-1,.19V22.37H55.39V14.74a1,1,0,0,1-.36.09,37,37,0,0,1-.77,5.86,8.25,8.25,0,0,0-2.66-.58,23.37,23.37,0,0,0,1.15-6.28l2.4.24a.49.49,0,0,1,.24,0V12.7c-1.15.19-1.61.29-2.16.41,0,.14-.17.52-.43.52s-.34-.24-.36-.36l-.67-2.95c.6,0,.74,0,1.94-.1.58-.62.72-.76,1.44-1.58A17.74,17.74,0,0,0,51.94,6l1.72-2.64c.34.22.58.39.77.53a20.44,20.44,0,0,0,2-3.74l2.86,1.51c.19.09.29.19.29.31s-.2.29-.68.34c-.6,1-1.36,2.06-2.25,3.26a4.77,4.77,0,0,1,.5.48,33.5,33.5,0,0,0,1.9-3Zm-.41,8.91a22.22,22.22,0,0,0,1,5.23,6.56,6.56,0,0,0-2.33,1,19.56,19.56,0,0,1-1.15-5.57ZM74.62,3.31V6.38H70.13v2h3.74v2.91H63V8.35h3.62v-2H62.09V3.31h4.53V.36l3.53.17c.15,0,.63,0,.63.33s-.27.36-.65.46v2ZM66.34,21.07v1.3H63V12.48H73.87v9.89h-3.4v-1.3Zm4.13-3V15.48H66.34v2.57Z"/><path class="cls-1" d="M91.54,22.42H88.06V16.66a26.09,26.09,0,0,1-6.87,5.16,8.07,8.07,0,0,0-2.66-2.74,16.14,16.14,0,0,0,6.89-4.25H78.89V11.88h9.17V10.61H81.31V.89H98.4v9.72H91.54v1.27h9.29v2.95h-7A16.16,16.16,0,0,0,101,18.6a9.07,9.07,0,0,0-2.55,2.76A19.66,19.66,0,0,1,91.54,17ZM88.06,4.66V3.41H85V4.66ZM85,6.82V8h3.1V6.82Zm9.7-2.16V3.41H91.54V4.66ZM91.54,6.82V8h3.12V6.82Z"/></svg>