<svg id="レイヤー_1" data-name="レイヤー 1" xmlns="http://www.w3.org/2000/svg" viewBox="0 0 180.36 22.83"><defs><style>.cls-1{fill:#fff;}</style></defs><title>アートボード 6</title><path class="cls-1" d="M21.67,9.7v4H0v-4Z"/><path class="cls-1" d="M35.93,19.44a8.47,8.47,0,0,0,3.67-1.73,14,14,0,0,1-2.06-2.9l1.56-1.1h-2v-3.2h9.31l1.13,1.25a18.52,18.52,0,0,1-3.31,6,11.17,11.17,0,0,0,4.1,1.9,15.9,15.9,0,0,0-1.72,2.88A22.35,22.35,0,0,1,42.05,20a12.88,12.88,0,0,1-4.3,2.47,8.49,8.49,0,0,0-1.82-2.81v.77c0,2-1.37,2.16-4.18,2.18a11.14,11.14,0,0,0-1.08-3.24,6.23,6.23,0,0,0,1.66.24c.81,0,.81-.31.81-1v-5.8a6.27,6.27,0,0,1-.64.07v5.73h-2V13a2.61,2.61,0,0,1-.48.05,29.69,29.69,0,0,1-1.65,9.27A5.06,5.06,0,0,0,25.49,21a23.22,23.22,0,0,0,1.73-7.56.86.86,0,0,1-.27,0c-.17.31-.31.51-.5.51a.27.27,0,0,1-.24-.24l-.55-3.22c.57,0,.93,0,1.48-.05V2.74H29.4c.17-.41.55-1.4.86-2.4l3.56.33c.14,0,.24.12.24.22s-.44.48-.6.53c-.17.36-.41,1-.58,1.32h3V8.28a5.72,5.72,0,0,0,1.82-4.51V1.13h7.49V6.36c0,.26,0,.46.27.46.43,0,.57-1.37.64-2.12A6.12,6.12,0,0,0,48.91,6c-.45,3.1-.81,3.7-2.47,3.7H44a1.79,1.79,0,0,1-1.92-2V4.1H41a9.63,9.63,0,0,1-2.64,6.2,6.32,6.32,0,0,0-2.4-1.44v1c.31-.05.72-.07.86-.09,0,.5-.09,2-.12,2.63l-.74,0ZM30,6.38,32.33,6a32.59,32.59,0,0,1,.81,3.24V5.64H30Zm0,3.89c.8,0,2.31-.14,3.12-.21V9.34a14.37,14.37,0,0,0-2.42.48A15.61,15.61,0,0,0,30,6.89Zm10.59,3.44a8.76,8.76,0,0,0,1.2,1.87A8.64,8.64,0,0,0,43,13.71Z"/><path class="cls-1" d="M62,3.72a.37.37,0,0,1,.19.31c0,.19-.17.24-.29.29s-.31.07-.43.12A24.28,24.28,0,0,1,54.89,13a8.09,8.09,0,0,0-3-2.45A17.88,17.88,0,0,0,58.58,2ZM67.3,11.5a55.54,55.54,0,0,1,6.26,9.17,9,9,0,0,0-3.36,2,23.35,23.35,0,0,0-1-2.11c-5.33.77-10.9,1.2-13.37,1.37,0,.17-.07.65-.43.65S55,22.37,55,22l-.82-3.5,2.6-.08A80.19,80.19,0,0,0,61.18,7.37l3.69,1.25c.12.05.34.12.34.36s-.48.36-.72.38c-.48,1.2-2.07,5.23-4,8.86.6,0,4.37-.34,6.89-.65-1.37-2-2.14-3-3-4.08ZM69.12,1.22c.67,4.3,2.71,6.46,6.27,8.93a6.45,6.45,0,0,0-2.48,2.57,17,17,0,0,1-6.79-8.4H62.57V1.22Z"/><path class="cls-1" d="M94.11,16.83V22h-3V16.83H89.28a9,9,0,0,1-3.67,5.66,7,7,0,0,0-2.69-1.78v1.73H79.49V1.08H89.54V9.43H82.92V20.69c1.68-.94,2.83-1.85,3.31-3.86H83.76V14.16h2.78c0-.43,0-1,0-1.41H84.36V10.22H96v2.53H94.11v1.41h2.4v2.67ZM86.33,3.46H82.92v.88h3.41Zm0,2.71H82.92v.91h3.41Zm4.73,6.58H89.57c0,.28,0,1.2,0,1.41h1.54Zm5.13,9.79A8.26,8.26,0,0,0,94.92,19a6.94,6.94,0,0,0,1.39.2c.46,0,1,0,1-.84v-9H90.6V1.08h10.11V19.75C100.71,22,99.34,22.56,96.19,22.54ZM97.27,3.46H93.82v.88h3.45Zm0,2.71H93.82v.91h3.45Z"/><path class="cls-1" d="M116.79,18.46A7.68,7.68,0,0,0,123.53,11,5.68,5.68,0,0,0,118,5.09c-.75,8.78-4.37,15.34-6.92,15.34-1.87,0-5.35-3.17-5.35-7.61A11.78,11.78,0,0,1,117.48,1.63c5.26,0,9.84,3.58,9.84,9.32a11.14,11.14,0,0,1-2.83,7.41,13.22,13.22,0,0,1-5.21,3.48A15.64,15.64,0,0,0,116.79,18.46Zm-7.52-5.93c0,1.85,1,3.24,1.54,3.24s1-1.08,1.29-1.7A20.82,20.82,0,0,0,114,5.81C111.17,6.84,109.27,10.37,109.27,12.53Z"/><path class="cls-1" d="M138.65,17.88a25.37,25.37,0,0,0,6.22-3.21V11.91h-2.5a19.33,19.33,0,0,1,1.85,2.39A17,17,0,0,0,142,16a33.67,33.67,0,0,0-2.19-2.74l1.88-1.36h-2a6.18,6.18,0,0,0,.5.57,5.38,5.38,0,0,0-1.46,2.57,16.75,16.75,0,0,1-1.08-1.54v9.17h-3.15V14.91a14,14,0,0,1-1.2,2.44A8.93,8.93,0,0,0,131,15.17a21.4,21.4,0,0,0,3.07-7.56h-2.4V4.7h2.61V.7l3.32.16c.26,0,.55.1.55.36s-.34.36-.55.41V4.7h1.75V7.61h-1.75v.77a12.86,12.86,0,0,0,1.87,3.36V9.31h5.38V8.42h-4.06V6.17h4.06V5.28h-5.16V2.86h2.35A9.32,9.32,0,0,0,141,1.32L143.81,0a20.4,20.4,0,0,1,1.56,2.45l-.79.41h2.64A18,18,0,0,0,148.39.19l3.08.91c.28.1.48.2.48.36,0,.32-.32.34-.72.34-.17.31-.2.38-.58,1.06h2.78V5.28h-5.2v.89h4V8.42h-4v.89h5.71v2.6h-1.78l1.71,1.39a.48.48,0,0,1,.24.36c0,.36-.41.31-.68.31A13.39,13.39,0,0,1,151,16.58a11.76,11.76,0,0,0,3.6,2.07,6.24,6.24,0,0,0-1.83,2.5,15.9,15.9,0,0,1-4.53-3.75v1.87c0,2.64-.84,3.41-4.61,3.56a8.28,8.28,0,0,0-1.32-3.36,10.85,10.85,0,0,0,1.51.12c1,0,1.06-.27,1.06-.87v-.89c-.49.29-2.07,1.25-4.33,2.4,0,.15.08.77-.26.77s-.43-.31-.57-.65Zm9.58-4.61a7.59,7.59,0,0,0,1,1.49,15.29,15.29,0,0,0,2.21-2.85h-3.19Z"/><path class="cls-1" d="M180.36,9.5v3.27h-9.07v6.62c0,1.54-.15,3.36-5.83,3.22A7.44,7.44,0,0,0,164.3,19c.77.05,1.23.1,1.68.1,1.64,0,1.64-.19,1.64-1.56V12.77h-9.44V9.5h9.44V6l1.84.19a9,9,0,0,0,2-1.72H160.58V1.22h15.73L178,3a26.31,26.31,0,0,1-6.74,6.17V9.5Z"/></svg>