<svg id="レイヤー_1" data-name="レイヤー 1" xmlns="http://www.w3.org/2000/svg" viewBox="0 0 206.79 22.9"><defs><style>.cls-1{fill:#fff;}</style></defs><title>アートボード 2</title><path class="cls-1" d="M15.72,5,17,5.16c.55.1.77.12.77.38s-.31.32-.58.34c-.09.24-.26.58-.55,1.15h4.66V19.27c0,2.38-.56,3.39-4.44,3.39,0-.31,0-.46,0-.63A4.21,4.21,0,0,0,16,19.47v1.44H9v.57H5.88V15.89a1.78,1.78,0,0,1-.24.12A4.57,4.57,0,0,0,4,14.43v8.25H.48V7h5a9.58,9.58,0,0,0-.94-1.75L6.26,5H0V2.09H9.07V.38L12.7.55c.24,0,.45.07.45.31s-.24.34-.45.44v.79h9.14V5ZM4,10.1v3.39A5.28,5.28,0,0,0,6.5,10.1Zm14,2.62a2.27,2.27,0,0,1-2.21,1.37H12.65c-1.42,0-1.87-.51-1.87-1.63V10.1H8.33l1.27.41c.17.05.5.17.5.39s0,.26-.64.4a8.54,8.54,0,0,1-2.19,3.53H16V19.3c.48.05.88.12,1.15.12.74,0,.79-.24.79-.79ZM8.33,5A12.29,12.29,0,0,1,9.38,6.82L8.52,7h4.2a13.89,13.89,0,0,0,1-2.06Zm4.49,12.34H9v1.12h3.8Zm1-7.21v.77c0,.31,0,.53.48.53H15c.46,0,.53-.41.72-1.3Zm4.13,0H15.75a6.65,6.65,0,0,0,2.18,1.16Z"/><path class="cls-1" d="M38.54,2.21c.25,0,.37.09.37.24s-.22.29-.58.43a22.34,22.34,0,0,1-.82,4,8.11,8.11,0,0,0-3.07-.58v.63H26.38V4.51h8.06V6.19a22.5,22.5,0,0,0,.86-4.41ZM34.25,22.27H31.42v-.84H30v1.18H27V14h7.23v2.45a11.69,11.69,0,0,0,1.46-4.2l3.08.65c.16,0,.43.14.43.33,0,.36-.48.46-.7.49a20,20,0,0,1-1.25,4,7.62,7.62,0,0,0-3-.94v3c5.14-1.58,5.09-4.75,5-9.14l3.48.19c.12,0,.36,0,.36.29s-.17.26-.65.41c0,.62,0,1,0,1.77a7.12,7.12,0,0,0,2.09,3.87,13.43,13.43,0,0,0,3.7,2.59,7,7,0,0,0-2.14,2.69,11.67,11.67,0,0,1-4.8-4.37,9.82,9.82,0,0,1-5.23,4.54,7.09,7.09,0,0,0-1.8-2.33ZM33.6,1.37V3.7H27.55V1.37Zm0,6.34V10H27.55V7.71Zm0,3.14v2.33H27.55V10.85ZM31.42,18.7V16.61H30V18.7ZM42.55.65c.29,0,.48,0,.48.26s-.38.39-.67.46c0,.36-.09,2-.09,2.33A5.46,5.46,0,0,0,44,7,14.6,14.6,0,0,0,48.41,9.5a8.51,8.51,0,0,0-2.16,2.6A13.58,13.58,0,0,1,41,8.21a10.73,10.73,0,0,1-5,3.84A9.24,9.24,0,0,0,34,9.48c4.13-1.34,5.09-3.38,5.09-7.2,0-.7,0-1.1,0-1.75ZM47.74,2.9a.41.41,0,0,1,.24.34c0,.12-.07.29-.34.29a2.42,2.42,0,0,1-.43,0A16.18,16.18,0,0,1,45,6.41a10,10,0,0,0-2.55-1.9,13,13,0,0,0,2.31-3.19Zm-.29,10.25c.24.12.36.22.36.41s-.38.41-.72.43a14.28,14.28,0,0,1-1.58,2.62A9,9,0,0,0,43,14.91a15.66,15.66,0,0,0,1.68-3.08Z"/><path class="cls-1" d="M67.87,18.22c0,.48.17.86,1,.86h1.73c.65,0,.79-.26.89-.57s.41-1.59.55-2.26a7.12,7.12,0,0,0,3.15,1.58,11.38,11.38,0,0,1-1.08,3.51,2.49,2.49,0,0,1-2.16,1.05H67.49c-1.87,0-3.31-.62-3.31-3V14.76H61.61l1.17.31c.15,0,.41.12.41.41,0,.46-.5.48-.93.51a12.1,12.1,0,0,1-7.4,6.91A9.65,9.65,0,0,0,52,20c1.51-.33,5.9-1.32,6.86-5.28H55.34V1H71.81V14.76H67.87Zm.24-13.3V4.08H59.26v.84ZM59.26,7.34v.87h8.85V7.34Zm0,3.39v1h8.85v-1Z"/><path class="cls-1" d="M79.15,7.73V4.56h9.12v-4l3.46.21c.6.05.67.22.67.34s-.09.26-.5.53V4.56H101V7.73H93.31a22.68,22.68,0,0,0,8.4,9.26,8.2,8.2,0,0,0-2.61,2.76,28.82,28.82,0,0,1-3.65-3.4v2.83H91.9v3.38H88.27V19.18H84.7V16.32A28.82,28.82,0,0,1,81,19.75,8,8,0,0,0,78.41,17a22.12,22.12,0,0,0,8.4-9.26Zm9.12,3.65A26.91,26.91,0,0,1,85,15.94h3.24Zm6.84,4.56a26.25,26.25,0,0,1-3.21-4.52v4.52Z"/><path class="cls-1" d="M118.3,8h7.39v9.86c0,1,0,1.87-.84,2.47s-2,.72-4.1.72a8.15,8.15,0,0,0-1.11-3.69,9.92,9.92,0,0,0,1.49.14c.77,0,.91-.17.91-.86V11.4H118.3V22.56h-3.63V11.4H111v9.43h-3.67V8h7.34V6.22h-9.12V3h9.12V.53l3.82.14c.14,0,.36.07.36.29s-.31.41-.55.46V3h9.14V6.22h-8.88c.14,0,.29.14.29.28s-.34.39-.55.46Z"/><path class="cls-1" d="M143.21,18.46A7.67,7.67,0,0,0,150,11a5.68,5.68,0,0,0-5.54-5.88c-.74,8.78-4.37,15.34-6.91,15.34-1.88,0-5.36-3.17-5.36-7.61A11.79,11.79,0,0,1,143.91,1.63c5.25,0,9.84,3.58,9.84,9.32a11.17,11.17,0,0,1-2.84,7.41,13.15,13.15,0,0,1-5.21,3.48A15.32,15.32,0,0,0,143.21,18.46Zm-7.51-5.93c0,1.85,1,3.24,1.53,3.24s1-1.08,1.3-1.7a21.17,21.17,0,0,0,1.85-8.26C137.59,6.84,135.7,10.37,135.7,12.53Z"/><path class="cls-1" d="M165.07,17.88a25.37,25.37,0,0,0,6.22-3.21V11.91h-2.5a18,18,0,0,1,1.85,2.4,16.79,16.79,0,0,0-2.21,1.7,31.49,31.49,0,0,0-2.18-2.74l1.87-1.36h-2c.19.23.27.33.5.57a5.46,5.46,0,0,0-1.46,2.57A16.75,16.75,0,0,1,164,13.51v9.17H160.9V14.91a14,14,0,0,1-1.2,2.44,9,9,0,0,0-2.26-2.18,21.21,21.21,0,0,0,3.07-7.56h-2.4V4.7h2.62V.7L164,.86c.26,0,.55.1.55.36s-.33.36-.55.41V4.7h1.75V7.61H164v.77a13.16,13.16,0,0,0,1.87,3.36V9.31h5.38V8.42h-4.06V6.17h4.06V5.28h-5.16V2.86h2.35a9.42,9.42,0,0,0-1-1.54L170.23,0a20.4,20.4,0,0,1,1.56,2.45l-.79.41h2.64A17.92,17.92,0,0,0,174.82.19l3.07.91c.29.1.48.2.48.36,0,.32-.31.34-.72.34-.17.31-.19.38-.58,1.06h2.79V5.28h-5.21v.89h4V8.42h-4v.89h5.71v2.6h-1.77l1.7,1.39a.46.46,0,0,1,.24.36c0,.36-.41.31-.67.31a13.79,13.79,0,0,1-2.45,2.62,12,12,0,0,0,3.6,2.06,6.34,6.34,0,0,0-1.82,2.5,15.78,15.78,0,0,1-4.54-3.75v1.87c0,2.64-.84,3.41-4.61,3.56a8.28,8.28,0,0,0-1.32-3.36,10.85,10.85,0,0,0,1.51.12c1,0,1.06-.27,1.06-.87v-.89c-.48.29-2.06,1.25-4.32,2.4,0,.15.07.77-.27.77s-.43-.31-.57-.65Zm9.58-4.61a8.11,8.11,0,0,0,1,1.49,15.29,15.29,0,0,0,2.21-2.85h-3.19Z"/><path class="cls-1" d="M206.79,9.5v3.27h-9.08v6.62c0,1.54-.14,3.36-5.83,3.22A7.36,7.36,0,0,0,190.73,19c.77.05,1.22.1,1.68.1,1.63,0,1.63-.19,1.63-1.56V12.77h-9.43V9.5H194V6l1.85.19a9.52,9.52,0,0,0,2-1.72H187V1.22h15.72L204.46,3a26.24,26.24,0,0,1-6.75,6.17V9.5Z"/></svg>