<svg version="1.1" xmlns="http://www.w3.org/2000/svg" xmlns:xlink="http://www.w3.org/1999/xlink" x="0px" y="0px" width="578px" height="532.41px" viewBox="0 0 578 532.41" xml:space="preserve"><g><g><path fill="#FFF6E6" d="M557.84,356.8c4.46-3.55,7.01-8.74,7.01-14.23V214.48l9.65-7.33c2.22-1.69,3.5-4.2,3.5-6.89v-76.11 c0-1.35-0.75-2.53-2.01-3.16l-15.91-8.48L288.57,0.65c-2.51-1.03-5.38-0.83-7.69,0.55L32.03,149.88c0,0-6.15,3.49-6.15,10.05 v71.61c0,3.22,1.88,6.17,4.9,7.68l12.43,6.75v150.1c0,4.85,2.87,9.21,7.5,11.36L315.37,530.7c2.45,1.14,5.06,1.71,7.66,1.71 c3.36,0,6.7-0.95,9.63-2.82c0.74-0.47,1.42-0.98,2.06-1.53c0.29,0.19,0.59,0.37,0.92,0.52c2.57,1.24,5.54,0.92,7.74-0.84 l214.46-170.95V356.8z"/><path fill="#D6D6D6" d="M297.15,532.41c-2.6,0-5.21-0.57-7.66-1.71l-125.94-58.66c-0.07,0.05-0.14,0.1-0.22,0.14 c-2.12,1.36-4.76,1.56-7.06,0.51l-26.82-12.12c-3.13-1.41-5.36-4.13-6.1-7.26l-98.53-45.89c-4.63-2.15-7.5-6.51-7.5-11.36V254.6 h1.2v141.48c0,4.38,2.61,8.32,6.81,10.28l97.79,45.55c-0.02-0.28-0.04-0.55-0.04-0.83V298.53L4.9,239.22 c-3.02-1.52-4.9-4.46-4.9-7.68v-71.61c0-1.23,0.64-2.37,1.72-3.05c1.18-0.74,2.63-0.82,3.89-0.21l120.62,58.09 c-0.59-2.55-2.36-4.81-4.94-6.04L6.34,153.89c-0.76-0.36-1.26-1.11-1.29-1.95c-0.04-0.84,0.38-1.63,1.11-2.06L112.5,86.35 c-0.81-0.37-1.44-1.06-1.7-1.94c-0.39-1.31,0.14-2.64,1.35-3.39l27.25-16.9c2.95-1.83,6.49-2.47,9.95-1.81 c0.79,0.15,1.64,0.32,2.55,0.5L254.99,1.2c2.31-1.38,5.18-1.59,7.69-0.56L374.7,46.79c0.69-0.28,1.37-0.54,2.05-0.79 c3.77-1.4,8.07-1.3,11.8,0.3l34.87,14.85c1.33,0.57,2.19,1.78,2.25,3.16c0.04,1.14-0.47,2.2-1.38,2.91L534.2,112.5 c2.9,1.19,4.77,3.89,4.77,6.87v7.26l7.03-5.29c1.19-0.89,2.76-1.03,4.1-0.36c1.26,0.63,2.01,1.81,2.01,3.16v76.11 c0,2.69-1.27,5.2-3.5,6.89l-9.65,7.33v128.09c0,5.49-2.56,10.68-7.01,14.23l-68.87,54.9v1.4c0,3.73-1.7,7.29-4.67,9.76 l-23.52,19.64c-1.11,0.93-2.63,1.12-3.96,0.52c-1.23-0.56-2.02-1.72-2.04-3.02l-0.02-1.02l-111.38,88.79 c-2.2,1.75-5.17,2.08-7.74,0.84c-0.32-0.16-0.63-0.33-0.92-0.52c-0.64,0.55-1.32,1.06-2.06,1.53c-2.93,1.87-6.27,2.82-9.63,2.82 L297.15,532.41z M164.56,471.2l125.43,58.42c5.25,2.45,11.29,2.06,16.14-1.03c0.62-0.4,1.21-0.83,1.75-1.29 c-1.25-1.2-1.96-2.82-1.96-4.61V390.32c-0.4-0.25-0.82-0.48-1.26-0.7l-138.27-69.37v146.44c0,1.72-0.66,3.3-1.85,4.51 L164.56,471.2z M309.74,527.22c0.17,0.1,0.35,0.2,0.53,0.29c2.16,1.04,4.64,0.77,6.48-0.69l112.1-89.36l-2.84-137.14 l-116.78,88.74c-0.54,0.41-1.16,0.69-1.81,0.81c4.3,3.02,6.88,7.78,6.88,12.92v113.46C314.3,520.44,312.67,524.28,309.74,527.22 L309.74,527.22z M307.13,391.13v131.56c0,1.47,0.6,2.81,1.65,3.8c2.78-2.73,4.33-6.33,4.33-10.24V402.79 c0-4.59-2.23-8.85-5.98-11.65L307.13,391.13z M124.79,453.99c0.84,2.37,2.68,4.38,5.15,5.5l26.82,12.12 c1.78,0.81,3.8,0.73,5.49-0.17L124.79,453.99L124.79,453.99z M124.4,452.49l38.99,18.16c1.17-1.02,1.82-2.43,1.82-3.96V319.65 l-40.93-20.53v151.95c0,0.48,0.04,0.96,0.12,1.43L124.4,452.49z M430.05,438.02l0.04,1.94c0.02,0.85,0.52,1.58,1.35,1.96 c0.71,0.33,1.8,0.41,2.7-0.35l23.52-19.64c2.69-2.25,4.24-5.47,4.24-8.85v-0.44l-31.84,25.38H430.05z M427.18,299.42l2.84,137.1 l31.87-25.4V285.96c0-4.42-0.08-8.65-0.25-12.71l-34.46,26.18V299.42z M462.8,272.36c0.19,4.33,0.29,8.85,0.29,13.6v124.21 l68.13-54.31c4.17-3.32,6.56-8.17,6.56-13.3V215.38l-74.98,56.97L462.8,272.36z M393.87,237.26l-81.5,61.29 c-3.33,2.51-5.25,6.24-5.25,10.24v79.92c0.49-0.08,0.96-0.29,1.37-0.6l117.47-89.26l-0.53-25.75l1.2-0.02l0.52,24.88l34.42-26.16 c-1.37-28.95-7.36-49.32-20.59-69.96l-29.39,22.1c0.16,11.74-3.01,24.15-9.52,37.09l-1.1-0.46c0.02-0.05,1.71-5.28-0.55-12.31 C399.41,245.11,397.48,241.28,393.87,237.26L393.87,237.26z M175.81,238.63l123.54,59.49c2.59,1.25,4.19,3.72,4.19,6.46v81.36 c0,1.05,0.6,1.97,1.6,2.47c0.26,0.13,0.52,0.22,0.79,0.28v-79.9c0-4.38,2.09-8.46,5.72-11.19l81.4-61.22 c-3.84-4.03-9.41-8.2-17.47-12.05c-2.01-0.96-4.11-1.95-6.28-2.98c-28.71-13.61-69.99-33.17-92.33-58.55 c-1.93-0.23-3.24-0.44-3.76-0.53c-3.5,2.52-50.15,36.03-79.29,55.31c-8.33,5.51-14.11,13.15-18.12,21.05L175.81,238.63z M166.41,318.92l136.15,68.31c-0.14-0.4-0.22-0.84-0.22-1.28v-81.36c0-2.27-1.35-4.34-3.52-5.38l-123.55-59.5 c-3.17,6.52-5.16,13.17-6.41,18.91c-3.09,14.18-2.47,26.07-2.46,26.19v0.03v34.08H166.41z M124.28,297.79l40.93,20.54v-33.46 c-0.03-0.54-0.58-12.39,2.48-26.46c1.53-7.05,3.71-13.49,6.48-19.22l-46.54-22.41c0,0.55-0.07,1.11-0.18,1.66 c-1.45,7.28-3.18,19.08-3.18,33.93v45.43L124.28,297.79z M3.86,157.46c-0.52,0-1.04,0.15-1.5,0.43c-0.74,0.47-1.17,1.21-1.17,2.04 v71.61c0,2.77,1.62,5.3,4.24,6.61l117.66,59.03v-44.83c0-14.95,1.74-26.83,3.2-34.17c0.13-0.67,0.18-1.35,0.15-2.01L5.1,157.74 C4.7,157.55,4.28,157.46,3.86,157.46z M441.95,201.11c13.26,20.66,19.33,41.03,20.79,69.81l75.05-57.03v-84.85l-95.83,72.07 H441.95z M394.83,236.54c3.73,4.17,5.72,8.16,6.76,11.43c1.12,3.51,1.31,6.56,1.19,8.82c5.08-11.11,7.62-21.8,7.63-31.97 l-15.57,11.71L394.83,236.54z M127.57,215.39l47.14,22.7c0.38-0.75,0.77-1.49,1.17-2.22c4.51-8.16,10.36-14.65,17.39-19.3 c30.12-19.92,78.96-55.08,79.45-55.43l0.21-0.15l0.25,0.05c0,0,0.96,0.18,2.62,0.4c-2.98-3.52-5.59-7.15-7.75-10.89 c-6.65,1.69-15.17,2.05-25.32,1.08c-1.77-0.17-3.73-0.35-5.84-0.53c-6.36,4.78-12.08,8.67-17.01,11.35 c-5.91,3.21-13.24,7.28-21,11.59c-13.92,7.72-29.69,16.48-42.09,22.98c-6.76,3.54-11.84,6.07-15.53,7.71 c-6.15,2.74-7.08,2.44-7.55,1.86c-0.55-0.69,0.15-1.65,0.9-2.49c4.96-5.55,9.98-9.12,19.59-14.21 c-10.14,1.66-23.46,2.2-38.56,0.54c-22.6-2.49-57.38-10.84-94.75-36.49l-3.08-2.12l3.59,1.05c18.13,5.3,35.3,7.1,40.95,7.58 c-14.59-12-17.04-28.27-17.06-28.43l-0.25-1.78l1.27,1.27c0.16,0.16,16.29,16.03,56.53,27.93c20.05,5.93,45.62,5.72,63.54,4.49 c7.68-0.52,14.64-1.27,20.27-1.99c-9.96,0.51-24.04,0.95-38.74,0.51c-13.43-0.41-23.74-2.32-30.67-5.69 c-6.54-3.18-10.11-7.66-10.58-13.31c-0.12-1.46-2.88-35.77,8.75-45.67c4.73-4.03,15.37-5.13,31.62-3.27 c13.81,1.59,31.58,5.34,51.39,10.85c42.8,11.91,50.42,15.29,50.73,15.43l2.51,1.14h-2.76c-4.64,0-6.55,9.07-8.09,16.35 c-0.5,2.4-0.98,4.66-1.52,6.48c-0.57,1.92-1.91,3.56-3.99,5c0.42,0.03,0.83,0.07,1.24,0.1c9.57-7.21,20.61-16.44,32.64-26.63 c-5.98-0.42-11.98-1.79-18.42-4.18c-24.03-8.93-70.8-21.67-99.41-27.96c-15.6-3.43-29.26-4.56-37.01-4.47L6.77,150.91 c-0.35,0.21-0.55,0.57-0.53,0.98s0.25,0.75,0.62,0.93l114.96,54.83c3.21,1.53,5.33,4.5,5.75,7.75L127.57,215.39z M278.75,162.99 c22.36,24.71,62.83,43.89,91.08,57.28c2.17,1.03,4.27,2.02,6.28,2.99c8.26,3.94,13.97,8.24,17.91,12.4l16.37-12.31 c-0.17-7.18-1.62-14.11-4.35-20.74c-7.41-18-23.07-30.62-34.9-38.03c-12.84-8.04-24.05-11.86-24.17-11.9l0.31-1.15 c0.16,0.03,15.42,3,32.27,4.73c-8.72-4.39-18-8.84-27.51-13.25c-2.59,1.28-5.12,2.79-7.52,4.55 c-15.86,11.66-34.48,15.02-47.3,15.8c-7.6,0.46-14.12,0.08-18.49-0.36L278.75,162.99z M353.08,153.79 c4.56,1.95,11.37,5.18,18.7,9.77c11.98,7.5,27.84,20.29,35.37,38.59c2.68,6.51,4.15,13.29,4.41,20.31l28.78-21.64 c-1.98-3.03-4.11-6.07-6.41-9.15c-7-9.37-26.74-21.36-51.38-33.9c-11.67-1.07-22.85-2.83-29.48-3.97L353.08,153.79z M538.98,128.13v84.84l8.93-6.78c1.92-1.46,3.03-3.62,3.03-5.94v-76.1c0-0.89-0.5-1.67-1.35-2.09c-0.94-0.47-2.03-0.37-2.85,0.25 l-7.75,5.83L538.98,128.13z M158.26,189.14c-11.8,6.04-17.33,9.71-22.74,15.76c-0.39,0.44-0.59,0.72-0.69,0.9 c1.22-0.04,5.89-1.66,22.32-10.31c12.23-6.44,27.6-14.96,41.15-22.49c7.76-4.31,15.09-8.38,21-11.59 c4.6-2.5,9.91-6.07,15.79-10.45c-0.5-0.04-1.01-0.08-1.53-0.13c-6.95,3.78-19.73,5.99-37.48,8.07 c-10.91,1.28-28.97,0.97-47.12-0.8c-18.54-1.81-31.62-4.55-34.99-7.34c-0.63-0.52-0.97-1.08-1.01-1.65 c-0.02-0.27,0.04-0.67,0.44-1.06c2.58-2.52,20.86-3.23,54.32-2.12c23.3,0.78,48.5,2.31,65.58,3.69c2.6-1.47,4.25-3.17,4.84-5.18 c0.52-1.77,1-4.01,1.5-6.39c1.48-7.05,3.14-14.91,7.23-16.85c-4.09-1.5-16.42-5.67-48.77-14.67c-19.74-5.5-37.45-9.24-51.2-10.82 c-15.9-1.83-26.23-0.82-30.71,2.99c-8.93,7.61-9.36,32.54-8.33,44.66c0.92,10.95,14.79,17.14,40.1,17.9 c27.43,0.83,52.69-1.43,52.94-1.45l0.16,1.18c-0.15,0.03-15.08,2.81-34.58,4.14c-18.02,1.23-43.74,1.44-63.96-4.54 c-21.19-6.27-35.55-13.59-43.87-18.64c-6.14-3.72-9.94-6.74-11.79-8.34c1.11,4.65,5.18,17.57,17.79,27.11l1.57,1.19l-1.97-0.12 c-0.2-0.01-18.79-1.15-39.58-6.77c35.99,23.89,69.29,31.81,91.13,34.21c16.99,1.87,31.67,0.94,42.02-1.21 c3.28-1.68,7.05-3.54,11.42-5.68c0.86-0.42,1.65,0,1.99,0.65c0.34,0.64,0.24,1.54-0.6,2c-2.79,1.56-7.01,3.01-12.36,4.14 L158.26,189.14z M385.75,158.04c26.84,13.82,42.95,24.62,49.15,32.92c2.3,3.08,4.43,6.12,6.41,9.15l96.48-72.56v-8.16 c0-2.49-1.58-4.76-4.03-5.77L423,67.99c-10.38,5.39-33.45,17.46-46.55,25.17c9.39-0.4,42.88-1.13,53.89,8.31 c10.55,9.04-0.07,39.11-1.95,43.07c-0.14,0.28-0.41,0.88-0.98,0.69c-0.59-0.19-0.49-0.8-0.33-1.82c0.12-0.73,0.31-1.74,0.55-3.03 c1.64-8.76,5.47-29.29-0.19-34.88c-4-3.95-21.82-7.33-41.46-7.85c-24.09-0.64-46.2,2.88-60.65,9.65 c-9.77,4.58-18.2,8.25-25.83,10.92c17.14,7.46,35.23,15.41,52.57,23.46c13.44-6.48,28.47-7.21,37.12-6.95 c15.16,0.45,29.09,4.33,34.67,9.66c2.75,2.63,3.27,5.41,1.5,8.06c-4.38,6.57-22.11,6.99-39.6,5.6L385.75,158.04z M169.92,183.38 c0,0-0.1,0.01-0.16,0.04c-2.42,1.19-4.65,2.28-6.72,3.31c2.87-0.84,5.23-1.79,7-2.78c0.21-0.12,0.18-0.29,0.12-0.4 C170.11,183.46,170.04,183.38,169.92,183.38L169.92,183.38z M277.58,161.67c4.25,0.48,11.28,0.99,19.63,0.49 c12.65-0.76,31.01-4.09,46.63-15.56c2.19-1.61,4.49-3.01,6.84-4.23c-17.62-8.16-35.94-16.21-52.87-23.57 c-9.84,3.3-18.39,4.89-26.89,4.56c-11.98,10.14-22.99,19.38-32.6,26.68c1.62,0.14,3.13,0.28,4.53,0.41 c11.04,1.06,18.95,0.41,24.59-0.98c-6.22-11.29-5.22-16.97-3.27-19.75c1.87-2.67,5.51-3.86,9.73-3.2c4.44,0.7,8.16,3.21,9.05,6.1 c1.14,3.7,0.29,7.67-2.34,10.89c-2.45,3-6.27,5.26-11.36,6.73c2.3,3.93,5.1,7.74,8.32,11.43L277.58,161.67z M141.57,146.62 c-22.05,0-26.51,1.49-27.32,2.28c-0.06,0.06-0.09,0.11-0.09,0.12c0.02,0.23,0.22,0.52,0.58,0.82c3.14,2.6,16.3,5.31,34.34,7.07 c18.07,1.76,36.03,2.07,46.87,0.8c15.96-1.87,28.15-3.89,35.29-7.06c-16.99-1.33-41.14-2.78-63.55-3.53 c-10.69-0.36-19.26-0.5-26.13-0.5L141.57,146.62z M382.88,156.58c23.61,2.15,37.95,0.5,41.48-4.79c1.42-2.13,0.97-4.33-1.33-6.53 c-5.3-5.06-19.23-8.9-33.88-9.33c-8.34-0.25-22.7,0.43-35.68,6.41c8.12,3.78,16.06,7.57,23.65,11.35c1.97,0.98,3.89,1.95,5.76,2.9 L382.88,156.58z M271.65,127.54c-2.85,0-5.2,1.01-6.5,2.87c-1.75,2.5-2.59,7.76,3.39,18.57c0.03,0.06,0.06,0.11,0.1,0.17 c6.18-1.74,9.4-4.37,11.05-6.4c2.37-2.9,3.14-6.47,2.12-9.78c-0.75-2.43-4.15-4.65-8.09-5.27c-0.71-0.11-1.4-0.17-2.06-0.17 L271.65,127.54z M380.39,96.38c1.85,0,3.72,0.02,5.6,0.07c20.23,0.54,38,3.99,42.26,8.2c5.94,5.87,2.42,25.8,0.68,35.14 c1.29-3.73,2.94-9.3,3.95-15.22c1.31-7.7,1.8-17.81-3.34-22.21c-12.22-10.48-55.02-7.93-55.45-7.9l-2.44,0.15l2.09-1.26 c12.3-7.41,36.41-20.06,47.79-25.97l-46.84-19.3c-26.37,10.71-59.56,37.85-90.1,63.66c1.47,0.64,2.95,1.28,4.45,1.93 c2.89,1.26,5.83,2.53,8.79,3.82c7.92-2.68,16.68-6.48,26.95-11.3c13.48-6.32,33.51-9.83,55.58-9.83L380.39,96.38z M272.31,122.18 c7.55,0.11,15.2-1.31,23.85-4.1c-2.56-1.11-5.08-2.21-7.57-3.29c-1.68-0.73-3.35-1.46-4.99-2.17c-2.52,2.13-5.02,4.25-7.49,6.34 C274.83,120.04,273.57,121.12,272.31,122.18L272.31,122.18z M116.33,85.45c8.05,0.11,20.85,1.32,35.28,4.5 c28.65,6.3,75.49,19.06,99.57,28.01c6.77,2.51,13.04,3.88,19.34,4.17c1.59-1.35,3.19-2.7,4.81-4.08c2.33-1.97,4.67-3.96,7.04-5.96 c-18.14-7.89-33.71-14.72-44.22-19.91c-32.48-16.05-69.1-24.68-86.05-28.09l-35.77,21.37L116.33,85.45z M153.63,63.17 c17.52,3.59,53.25,12.22,85.06,27.93c10.58,5.23,26.35,12.14,44.7,20.12c30.3-25.61,63.27-52.64,89.75-63.77L262.23,1.75 c-2.16-0.89-4.64-0.71-6.62,0.48L153.63,63.16V63.17z M146.71,63.26c-2.36,0-4.71,0.65-6.69,1.88l-27.24,16.9 c-0.89,0.55-1.01,1.42-0.83,2.04c0.19,0.65,0.84,1.4,1.99,1.38c0.02,0,0.04,0,0.06,0l36.36-21.72c-0.43-0.08-0.85-0.17-1.25-0.24 c-0.79-0.15-1.6-0.23-2.4-0.23V63.26z M376.31,47.46l46.63,19.21c0.07-0.04,0.15-0.08,0.22-0.11c0.87-0.45,1.37-1.27,1.33-2.19 c-0.04-0.93-0.6-1.72-1.52-2.11L388.1,47.41c-3.45-1.47-7.43-1.57-10.92-0.27c-0.29,0.11-0.58,0.22-0.87,0.33V47.46z"/></g></g></svg>