<svg version="1.1" xmlns="http://www.w3.org/2000/svg" xmlns:xlink="http://www.w3.org/1999/xlink" x="0px" y="0px" width="698.374px" height="123.046px" viewBox="0 0 698.374 123.046" xml:space="preserve"><g><path fill="#f3ecda" d="M78.694 11.55c-.412 3.903-.693 7.676-.848 11.319-.153 3.646-.23 6.444-.23 8.393 0 1.951.051 3.799.154 5.544.101 1.747.204 3.183.308 4.312h-3.542c-.72-6.569-1.824-11.755-3.311-15.554-1.49-3.797-3.696-6.492-6.622-8.085-2.927-1.59-7.008-2.387-12.243-2.387H41.734c-3.287 0-5.775.284-7.469.847-1.694.565-2.85 1.694-3.466 3.388-.615 1.694-.924 4.338-.924 7.931v77.616c0 3.491.309 6.109.924 7.854.616 1.746 1.771 2.901 3.466 3.465 1.693.564 4.182.847 7.469.847h10.01c5.852 0 10.496-.924 13.937-2.772 3.439-1.848 6.057-4.875 7.854-9.086 1.795-4.208 3.157-9.957 4.081-17.248h3.542c-.308 2.979-.462 6.88-.462 11.705 0 2.055.077 5.031.23 8.932.154 3.902.436 7.906.848 12.012-5.236-.205-11.142-.332-17.71-.385-6.572-.051-12.424-.077-17.557-.077-2.362 0-5.39 0-9.086 0-3.695 0-7.676.026-11.935.077-4.262.053-8.573.104-12.937.154-4.364.053-8.547.129-12.551.23v-3.08c3.489-.205 6.107-.615 7.854-1.232 1.744-.615 2.899-1.848 3.465-3.695.562-1.848.847-4.62.847-8.316V27.874c0-3.797-.308-6.596-.924-8.393-.616-1.795-1.798-3.027-3.542-3.696C5.953 15.119 3.388 14.733 0 14.63v-3.08c4.004.104 8.187.181 12.551.231 4.363.053 8.675.103 12.937.154 4.259.053 8.239.077 11.935.077 3.696 0 6.724 0 9.086 0 4.722 0 10.087-.024 16.094-.077C68.607 11.884 73.971 11.757 78.694 11.55zM53.13 64.219v3.079H25.256v-3.079H53.13zM57.596 43.89c-.411 5.852-.592 10.318-.538 13.398.05 3.08.076 5.905.076 8.47 0 2.568.051 5.391.154 8.471.102 3.08.358 7.545.771 13.397h-3.542c-.516-3.388-1.182-6.646-2.003-9.778-.822-3.131-2.285-5.672-4.389-7.623-2.105-1.949-5.366-2.927-9.779-2.927v-3.079c3.285 0 5.877-.668 7.777-2.003 1.898-1.333 3.361-3.079 4.389-5.236 1.025-2.156 1.771-4.389 2.233-6.699.462-2.31.897-4.44 1.309-6.391H57.596zM122.907 41.118v3.234c-1.951 0-3.542.462-4.773 1.386-1.232.924-1.336 2.209-.309 3.85l40.964 60.061c1.54 2.362 3.003 4.133 4.39 5.312 1.386 1.182 3.003 1.979 4.851 2.387v3.234c-1.231-.102-3.056-.23-5.467-.385-2.413-.154-4.851-.231-7.315-.231-3.388 0-6.93.077-10.626.231-3.695.154-6.417.283-8.162.385v-3.234c2.053 0 3.696-.486 4.929-1.463 1.231-.975 1.282-2.232.153-3.773l-40.964-60.059c-1.951-2.772-3.518-4.697-4.696-5.775-1.182-1.078-2.695-1.718-4.543-1.925v-3.234c1.333.104 3.284.231 5.852.385 2.565.154 5.082.231 7.546.231 3.388 0 6.854-.077 10.396-.231C118.673 41.349 121.264 41.222 122.907 41.118zM124.602 81.466c.308 1.232.717 2.567 1.231 4.005l-10.626 13.705c-2.771 3.596-4.261 6.752-4.466 9.471-.207 2.723.717 4.801 2.772 6.237 2.053 1.438 4.875 2.31 8.47 2.618v3.08c-1.848-.102-3.953-.178-6.314-.23-2.362-.051-4.673-.102-6.93-.154-2.26-.051-4.211-.077-5.852-.077-2.363 0-4.466.026-6.314.077-1.848.053-3.542.18-5.082.385v-3.08c2.053-.409 4.132-1.463 6.237-3.156 2.103-1.695 4.594-4.337 7.469-7.932L124.602 81.466zM164.487 41.118v3.08c-2.055.411-4.235 1.54-6.545 3.388s-4.697 4.466-7.161 7.854l-17.556 23.408c-.309-1.332-.669-2.617-1.078-3.85l10.626-14.63c2.36-3.388 3.85-6.21 4.466-8.47.616-2.257.255-4.055-1.078-5.39-1.335-1.333-3.85-2.103-7.546-2.31v-3.08c2.772.104 5.261.207 7.469.308 2.207.103 4.543.154 7.008.154 2.36 0 4.466-.051 6.313-.154C161.254 41.325 162.947 41.222 164.487 41.118zM202.371 0v56.056c2.565-6.365 6.185-10.804 10.857-13.321 4.67-2.514 9.625-3.773 14.86-3.773 4.105 0 7.47.539 10.088 1.617 2.617 1.078 4.798 2.541 6.545 4.389 1.848 1.951 3.181 4.466 4.004 7.546.82 3.08 1.231 7.238 1.231 12.474v41.271c0 4.312.848 7.238 2.541 8.778 1.694 1.54 4.543 2.31 8.547 2.31v3.234c-1.848-.102-4.62-.23-8.315-.385-3.696-.154-7.291-.231-10.78-.231-3.595 0-7.11.077-10.549.231-3.441.154-5.982.283-7.623.385v-3.234c3.489 0 5.953-.77 7.392-2.31 1.437-1.54 2.156-4.466 2.156-8.778V60.676c0-2.976-.258-5.671-.77-8.085-.516-2.411-1.617-4.362-3.312-5.852-1.694-1.487-4.185-2.233-7.469-2.233-3.696 0-7.007 1.054-9.933 3.157-2.927 2.105-5.236 5.005-6.931 8.701-1.693 3.696-2.541 7.907-2.541 12.628v37.268c0 4.312.717 7.238 2.156 8.778 1.437 1.54 3.9 2.31 7.392 2.31v3.234c-1.747-.102-4.287-.23-7.623-.385-3.337-.154-6.752-.231-10.24-.231-3.596 0-7.265.077-11.012.231-3.749.154-6.545.283-8.393.385v-3.234c4.004 0 6.853-.77 8.547-2.31s2.541-4.466 2.541-8.778V18.48c0-4.62-.797-8.032-2.387-10.241-1.593-2.207-4.493-3.311-8.701-3.311V1.694c3.284.308 6.468.462 9.548.462 3.388 0 6.622-.178 9.702-.539C196.981 1.258 199.804.72 202.371 0zM296.219 39.424v66.836c0 4.312.847 7.238 2.541 8.778s4.543 2.31 8.547 2.31v3.234c-1.747-.102-4.441-.23-8.085-.385-3.646-.154-7.368-.231-11.165-.231-3.696 0-7.418.077-11.165.231-3.749.154-6.545.283-8.393.385v-3.234c4.004 0 6.853-.77 8.547-2.31s2.541-4.466 2.541-8.778V57.904c0-4.62-.771-8.032-2.311-10.241-1.539-2.207-4.466-3.311-8.777-3.311v-3.234c3.284.308 6.468.462 9.548.462 3.489 0 6.749-.178 9.779-.539C290.853 40.683 293.651 40.144 296.219 39.424zM286.979 2.31c3.182 0 5.853 1.001 8.009 3.003 2.155 2.002 3.233 4.493 3.233 7.469 0 2.979-1.078 5.467-3.233 7.469-2.156 2.002-4.827 3.003-8.009 3.003-3.184 0-5.852-1.001-8.008-3.003s-3.233-4.49-3.233-7.469c0-2.977 1.077-5.467 3.233-7.469S283.795 2.31 286.979 2.31zM335.951 0v114.268c-1.747.616-3.542 1.387-5.391 2.311-1.848.924-3.595 1.925-5.235 3.003-1.644 1.078-3.184 2.233-4.62 3.465l-2.464-1.231c.409-1.438.692-2.873.847-4.312.154-1.437.231-2.926.231-4.466V18.48c0-4.62-.797-8.032-2.388-10.241-1.593-2.207-4.492-3.311-8.701-3.311V1.694c3.285.308 6.469.462 9.549.462 3.388 0 6.622-.178 9.701-.539C330.561 1.258 333.384.72 335.951 0zM359.821 38.962c8.212 0 15.065 3.415 20.559 10.241 5.491 6.829 8.239 17.171 8.239 31.031 0 9.754-1.593 17.763-4.774 24.023-3.184 6.264-7.418 10.91-12.705 13.938-5.289 3.027-11.011 4.543-17.171 4.543-4.827 0-9.446-1.208-13.859-3.619-4.416-2.411-7.804-6.083-10.164-11.012l2.771.771c2.257 3.491 5.082 6.109 8.47 7.854 3.389 1.746 6.827 2.617 10.318 2.617 6.468 0 11.319-3.13 14.553-9.394 3.234-6.261 4.852-15.913 4.852-28.952 0-8.521-.643-15.501-1.925-20.943-1.285-5.441-3.184-9.418-5.698-11.936-2.518-2.515-5.674-3.773-9.472-3.773-4.415 0-8.47 1.901-12.165 5.698-3.696 3.8-5.905 9.293-6.622 16.478l-1.54-3.233c1.437-7.7 4.543-13.68 9.316-17.941C347.578 41.094 353.249 38.962 359.821 38.962zM421.544 39.424v66.836c0 4.312.847 7.238 2.541 8.778s4.543 2.31 8.547 2.31v3.234c-1.747-.102-4.441-.23-8.085-.385-3.646-.154-7.368-.231-11.165-.231-3.696 0-7.418.077-11.165.231-3.749.154-6.545.283-8.393.385v-3.234c4.004 0 6.853-.77 8.547-2.31s2.541-4.466 2.541-8.778V57.904c0-4.62-.771-8.032-2.311-10.241-1.539-2.207-4.466-3.311-8.777-3.311v-3.234c3.284.308 6.468.462 9.548.462 3.489 0 6.749-.178 9.779-.539C416.178 40.683 418.977 40.144 421.544 39.424zM412.304 2.31c3.182 0 5.853 1.001 8.009 3.003 2.155 2.002 3.233 4.493 3.233 7.469 0 2.979-1.078 5.467-3.233 7.469-2.156 2.002-4.827 3.003-8.009 3.003-3.184 0-5.852-1.001-8.008-3.003s-3.233-4.49-3.233-7.469c0-2.977 1.077-5.467 3.233-7.469S409.12 2.31 412.304 2.31zM463.294 15.708v25.564h21.252v3.08h-21.252v60.522c0 4.211.77 7.188 2.31 8.933 1.54 1.746 3.746 2.617 6.622 2.617 2.669 0 5.056-1.078 7.161-3.234 2.103-2.155 3.927-5.799 5.467-10.934l2.926 1.078c-1.231 5.443-3.414 10.037-6.545 13.783-3.133 3.746-7.727 5.621-13.783 5.621-3.491 0-6.417-.438-8.777-1.309-2.363-.871-4.416-2.131-6.16-3.773-2.26-2.361-3.8-5.184-4.62-8.471-.823-3.284-1.232-7.646-1.232-13.09V44.352h-14.168v-3.08h14.168V18.788c3.182-.101 6.16-.385 8.933-.847C458.365 17.479 460.931 16.735 463.294 15.708zM519.565 39.424v66.836c0 4.312.847 7.238 2.541 8.778s4.543 2.31 8.547 2.31v3.234c-1.747-.102-4.441-.23-8.085-.385-3.646-.154-7.368-.231-11.165-.231-3.696 0-7.418.077-11.165.231-3.749.154-6.545.283-8.393.385v-3.234c4.004 0 6.853-.77 8.547-2.31s2.541-4.466 2.541-8.778V57.904c0-4.62-.771-8.032-2.311-10.241-1.539-2.207-4.466-3.311-8.777-3.311v-3.234c3.284.308 6.468.462 9.548.462 3.489 0 6.749-.178 9.779-.539C514.199 40.683 516.998 40.144 519.565 39.424zM510.325 2.31c3.182 0 5.853 1.001 8.009 3.003 2.155 2.002 3.233 4.493 3.233 7.469 0 2.979-1.078 5.467-3.233 7.469-2.156 2.002-4.827 3.003-8.009 3.003-3.184 0-5.852-1.001-8.008-3.003s-3.233-4.49-3.233-7.469c0-2.977 1.077-5.467 3.233-7.469S507.142 2.31 510.325 2.31zM570.894 38.962c6.877 0 12.986 1.439 18.326 4.312 5.337 2.875 9.599 7.392 12.781 13.552 3.182 6.16 4.774 14.221 4.774 24.178 0 9.959-1.593 17.994-4.774 24.102-3.183 6.109-7.444 10.575-12.781 13.397-5.34 2.823-11.449 4.235-18.326 4.235-6.776 0-12.886-1.412-18.326-4.235-5.443-2.822-9.729-7.288-12.859-13.397-3.133-6.107-4.696-14.143-4.696-24.102 0-9.957 1.563-18.018 4.696-24.178 3.131-6.16 7.416-10.677 12.859-13.552C558.008 40.401 564.117 38.962 570.894 38.962zM570.894 42.042c-5.34 0-9.702 3.056-13.09 9.163-3.389 6.109-5.082 16.043-5.082 29.799 0 13.76 1.693 23.639 5.082 29.645 3.388 6.007 7.75 9.01 13.09 9.01 5.235 0 9.572-3.003 13.013-9.01 3.438-6.006 5.159-15.885 5.159-29.645 0-13.756-1.721-23.689-5.159-29.799C580.466 45.098 576.129 42.042 570.894 42.042zM665.572 38.962c4.105 0 7.469.539 10.087 1.617s4.798 2.541 6.545 4.389c1.849 1.951 3.157 4.466 3.927 7.546.771 3.08 1.155 7.238 1.155 12.474v41.271c0 4.312.847 7.238 2.541 8.778s4.543 2.31 8.547 2.31v3.234c-1.747-.102-4.466-.23-8.162-.385-3.695-.154-7.341-.231-10.934-.231-3.491 0-6.956.077-10.396.231-3.44.154-6.032.283-7.776.385v-3.234c3.489 0 5.953-.77 7.392-2.31 1.437-1.54 2.156-4.466 2.156-8.778V60.676c0-2.976-.258-5.671-.771-8.085-.515-2.411-1.593-4.362-3.233-5.852-1.644-1.487-4.107-2.233-7.393-2.233-3.799 0-7.16 1.078-10.087 3.234-2.926 2.156-5.235 5.108-6.93 8.855-1.694 3.749-2.541 7.93-2.541 12.551v37.113c0 4.312.743 7.238 2.233 8.778 1.486 1.54 3.927 2.31 7.314 2.31v3.234c-1.644-.102-4.134-.23-7.469-.385-3.338-.154-6.803-.231-10.396-.231-3.491 0-7.137.077-10.934.231-3.8.154-6.622.283-8.47.385v-3.234c4.004 0 6.853-.77 8.547-2.31s2.541-4.466 2.541-8.778V57.904c0-4.62-.771-8.032-2.311-10.241-1.539-2.207-4.466-3.311-8.777-3.311v-3.234c3.284.308 6.468.462 9.548.462 3.489 0 6.749-.178 9.779-.539 3.026-.358 5.825-.897 8.393-1.617V56.21c2.669-6.364 6.338-10.831 11.011-13.398C655.382 40.247 660.336 38.962 665.572 38.962z"/></g></svg>