<svg xmlns="http://www.w3.org/2000/svg" width="31.33" height="31.33" viewBox="0 0 31.33 31.33">
  <defs>
    <style>
      .cls-1 {
        fill: #e60000;
      }

      .cls-2 {
        fill: #fff;
      }
    </style>
  </defs>
  <title>numberdticket_08</title>
  <g id="レイヤー_1" data-name="レイヤー 1">
    <circle class="cls-1" cx="15.67" cy="15.67" r="15.67" transform="translate(-6.45 17.03) rotate(-48.53)"/>
  </g>
  <g id="_2のコピー_6" data-name="2のコピー 6">
    <path class="cls-2" d="M22.82,19c0,3.74-3.25,6.26-7.13,6.26S8.55,22.75,8.55,19a5.77,5.77,0,0,1,3-5.15,4.7,4.7,0,0,1-2-3.92C9.62,7,12,4.72,15.69,4.72s6.06,2.2,6.06,5.22a4.75,4.75,0,0,1-2,3.92A5.77,5.77,0,0,1,22.82,19Zm-3.49-.1c0-1.41-1.07-3.15-3.64-3.15s-3.64,1.69-3.64,3.15a3.35,3.35,0,0,0,3.64,3.17A3.35,3.35,0,0,0,19.33,18.91Zm-.92-8.84a2.49,2.49,0,0,0-2.72-2.46A2.49,2.49,0,0,0,13,10.07a2.44,2.44,0,0,0,2.73,2.47A2.44,2.44,0,0,0,18.41,10.07Z"/>
  </g>
</svg>
