<svg xmlns="http://www.w3.org/2000/svg" viewBox="0 0 27.64 34.02"><defs><style>.cls-1{fill:#fff;}.cls-2{fill:#231815;}.cls-3,.cls-4,.cls-5{fill:none;}.cls-3,.cls-5{stroke:#231815;}.cls-3{stroke-width:0.56px;}.cls-4{stroke:#fff;stroke-width:3.05px;}.cls-5{stroke-width:1.52px;}</style></defs><title>ceroB_s</title><g id="レイヤー_2" data-name="レイヤー 2"><g id="レイヤー_1-2" data-name="レイヤー 1"><rect class="cls-1" width="27.64" height="34.02" rx="1.91"/><path class="cls-2" d="M25.51,4.25a2.12,2.12,0,0,0-2.12-2.12H4.25A2.12,2.12,0,0,0,2.13,4.25V26.9H25.51Z"/><path class="cls-3" d="M4.25,2.13H23.39a2.12,2.12,0,0,1,2.12,2.12V29.76a2.13,2.13,0,0,1-2.13,2.13H4.25a2.13,2.13,0,0,1-2.13-2.13V4.25A2.12,2.12,0,0,1,4.25,2.13Z"/><path class="cls-1" d="M8,4.22a2.67,2.67,0,0,0-1.45-.45c-1.18,0-1.52.95-1.52,2C5,7,5.57,7.94,6.86,7.94a4,4,0,0,0,1.87-.57L8.29,8.64a6.63,6.63,0,0,1-1.72.2A3.27,3.27,0,0,1,4.25,8.1a3,3,0,0,1-.08-4.43A3.69,3.69,0,0,1,6.59,2.9L7.9,3Z"/><path class="cls-1" d="M10.86,7.77a2.31,2.31,0,0,0,.91.13A1.5,1.5,0,0,0,13,7.42h.05l-.35,1.31H8.89v0c.43-.26.37-.75.37-1.2V4.26c0-.45.06-.94-.37-1.2V3h3a.88.88,0,0,0,.37,0h0V4.25h0c-.24-.41-.73-.37-1.15-.37h-.28V5.29h.8a.72.72,0,0,0,.32,0h0V6.45h0c-.12-.34-.52-.31-.84-.31h-.28Z"/><path class="cls-1" d="M15.19,6.29l1,1.89a1,1,0,0,0,1.16.58l1.2-.08a3.88,3.88,0,0,1-.84-1l-1-1.72a1.53,1.53,0,0,0,1-1.37A1.42,1.42,0,0,0,17,3.23,2.33,2.33,0,0,0,15.79,3H13.22v0c.43.27.37.76.37,1.21V7.49c0,.45.06.95-.37,1.21v0h2.33v0c-.42-.26-.36-.76-.36-1.21Zm.08-2.42a.83.83,0,0,1,.51.13.88.88,0,0,1,.34.73,1.12,1.12,0,0,1-.93,1.1v-2h.08"/><path class="cls-1" d="M18.08,5.87a2.94,2.94,0,0,0,3.15,3,3,3,0,0,0,3.26-3,2.86,2.86,0,0,0-3.15-3A3,3,0,0,0,18.08,5.87Zm1.68-.24c0-.89.45-1.87,1.47-1.87,1.19,0,1.58,1.41,1.58,2.4a2,2,0,0,1-.32,1.21,1.33,1.33,0,0,1-2.32-.14,3.69,3.69,0,0,1-.41-1.6"/><path class="cls-4" d="M12,14.15h3.1a1,1,0,0,1,1.07,1.11c0,.8-.47,1.35-1.07,1.35H12Zm4.4,10.14c2.28,0,4.29-1.38,4.29-3.78a3.12,3.12,0,0,0-1.29-2.64,3.07,3.07,0,0,0-1.28-.53,3,3,0,0,0,1.08-.54,2.55,2.55,0,0,0,1-2.07c0-2-1.64-3.31-4.1-3.31H8V24.29ZM12,18.8h3c.92,0,1.69.29,1.69,1.3s-.84,1.46-1.69,1.46H12Z"/><path class="cls-5" d="M12,14.15h3.1a1,1,0,0,1,1.07,1.11c0,.8-.47,1.35-1.07,1.35H12Zm4.4,10.14c2.28,0,4.29-1.38,4.29-3.78a3.12,3.12,0,0,0-1.29-2.64,3.07,3.07,0,0,0-1.28-.53,3,3,0,0,0,1.08-.54,2.55,2.55,0,0,0,1-2.07c0-2-1.64-3.31-4.1-3.31H8V24.29ZM12,18.8h3c.92,0,1.69.29,1.69,1.3s-.84,1.46-1.69,1.46H12Z"/><path class="cls-2" d="M12,14.15h3.1a1,1,0,0,1,1.07,1.11c0,.8-.47,1.35-1.07,1.35H12Zm4.4,10.14c2.28,0,4.29-1.38,4.29-3.78a3.12,3.12,0,0,0-1.29-2.64,3.07,3.07,0,0,0-1.28-.53,3,3,0,0,0,1.08-.54,2.55,2.55,0,0,0,1-2.07c0-2-1.64-3.31-4.1-3.31H8V24.29ZM12,18.8h3c.92,0,1.69.29,1.69,1.3s-.84,1.46-1.69,1.46H12Z"/><path class="cls-1" d="M11.7,14.15h3.1a1,1,0,0,1,1.07,1.11c0,.8-.48,1.35-1.07,1.35H11.7Zm4.39,10.14c2.29,0,4.29-1.38,4.29-3.78a3.12,3.12,0,0,0-1.29-2.64,3,3,0,0,0-1.27-.53,3,3,0,0,0,1.08-.54,2.57,2.57,0,0,0,1-2.07c0-2-1.64-3.31-4.1-3.31h-8V24.29ZM11.7,18.8h2.94c.93,0,1.7.29,1.7,1.3s-.84,1.46-1.7,1.46H11.7Z"/><path class="cls-2" d="M3.37,27.73v.43h.51v2.71h.39V27.73Z"/><path class="cls-2" d="M6.18,29.75a.39.39,0,0,0-.36.25,1.48,1.48,0,0,0-.05.35v.09H7.51v.43H5.38v-.35c0-.49,0-1.07.66-1.18l.65-.12c.29-.06.44-.15.44-.54s-.16-.55-.65-.55-.67.16-.67.65H5.42c0-.68.17-1.08,1-1.08.5,0,1.06.07,1.06,1a.86.86,0,0,1-.29.76,1,1,0,0,1-.42.19Z"/><path class="cls-2" d="M8,30.52a6.33,6.33,0,0,0,1.46-.58v.75c0,.09,0,.12-.1.12H8.77l.06.42h.65a.29.29,0,0,0,.31-.32V29.72a3.28,3.28,0,0,0,.8-.76l-.29-.27a2.21,2.21,0,0,1-.51.55v-.68h1.12v-.41H9.79v-.66H9.42v.66H7.83v.41H9.42v.93a4.83,4.83,0,0,1-1.59.63Z"/><path class="cls-2" d="M14,27.59H13.6v.68c0,1-.1,2.16-1.44,2.55l.18.41a2.13,2.13,0,0,0,1.14-.88,4.25,4.25,0,0,1,.5.86l.3-.36a5.59,5.59,0,0,0-.61-.85,4.56,4.56,0,0,0,.3-1.7ZM11.2,30.9a12.41,12.41,0,0,0,1.56-.73l-.07-.38c-.35.19-.88.42-.88.42V27.56h-.36v2.8l-.31.11Zm1-2.95A4.85,4.85,0,0,1,12.78,29l.32-.26a4.72,4.72,0,0,0-.68-1.06Z"/><path class="cls-2" d="M16.1,27.49v1.2h1.24v.43H16.1v1.55h1.45v.42H14.42v-.42h1.32V27.49Z"/><path class="cls-2" d="M18.07,28.79a6.43,6.43,0,0,1,.53.58,4.83,4.83,0,0,0,.16-.87h-1v-.41h.62v-.61h.35v.61h.58v.41h-.19a6.87,6.87,0,0,1-.27,1.2,3.85,3.85,0,0,1,.48.78l-.28.26c-.07-.13-.18-.35-.36-.63a3.4,3.4,0,0,1-.75,1l-.24-.37a2.88,2.88,0,0,0,.74-1,4.39,4.39,0,0,0-.62-.69Zm2.49-1.31v.74h.28v.43h-.28v2.21c0,.31-.13.36-.39.36h-.5l-.08-.41h.51c.1,0,.11,0,.11-.09V28.65h-.8v-.43h.8v-.74Zm-1,1.5A5.28,5.28,0,0,1,20,30l-.34.2a5.44,5.44,0,0,0-.42-1.06Z"/><path class="cls-2" d="M22.45,28.59V29h-.83v-.37Zm-1.25,2a3.67,3.67,0,0,0,1.27-.53.74.74,0,0,1,0,.14,4,4,0,0,1-1.46.57l.11.35a4.72,4.72,0,0,0,1.4-.6c0,.24,0,.3-.2.3h-.29l.07.4h.3c.18,0,.45,0,.45-.59a1.84,1.84,0,0,0-.24-.92c-.06-.09-.11-.14-.14-.18a3,3,0,0,0,.4-.26A2.12,2.12,0,0,0,24,31.13l.21-.37a2.41,2.41,0,0,1-.64-.51,3.44,3.44,0,0,0,.53-.46l-.27-.29a2.61,2.61,0,0,1-.45.43,2.7,2.7,0,0,1-.17-.65H24v-1H23.2a1.42,1.42,0,0,0,.2-.25V27.7H22.26l.1-.15L22,27.46a1.82,1.82,0,0,1-1,.74l.14.35.15-.07v.8h1.09a4.27,4.27,0,0,1-1.25.41l.11.32a3.78,3.78,0,0,0,1-.31l.09.11a3.1,3.1,0,0,1-1.22.44Zm.46-2.33A1.93,1.93,0,0,0,22,28h1a1.64,1.64,0,0,1-.21.25Zm2,.32V29h-.87v-.37Z"/></g></g></svg>