<svg xmlns="http://www.w3.org/2000/svg" viewBox="0 0 27.64 34.02"><defs><style>.cls-1{fill:#fff;}.cls-2{fill:#231815;}.cls-3,.cls-4,.cls-5{fill:none;}.cls-3,.cls-5{stroke:#231815;}.cls-3{stroke-width:0.56px;}.cls-4{stroke:#fff;stroke-width:3.05px;}.cls-5{stroke-width:1.52px;}</style></defs><title>ceroC_s</title><g id="レイヤー_2" data-name="レイヤー 2"><g id="レイヤー_1-2" data-name="レイヤー 1"><rect class="cls-1" width="27.64" height="34.02" rx="1.91"/><path class="cls-2" d="M25.51,4.25a2.12,2.12,0,0,0-2.12-2.12H4.25A2.12,2.12,0,0,0,2.13,4.25V26.9H25.51Z"/><rect class="cls-3" x="2.13" y="2.13" width="23.39" height="29.76" rx="2.13"/><path class="cls-1" d="M8,4.22a2.67,2.67,0,0,0-1.45-.45c-1.18,0-1.52.95-1.52,2C5,7,5.57,7.94,6.86,7.94a4,4,0,0,0,1.87-.57L8.29,8.64a6.63,6.63,0,0,1-1.72.2A3.26,3.26,0,0,1,4.25,8.1a2.9,2.9,0,0,1-1-2.26,3,3,0,0,1,.94-2.17A3.69,3.69,0,0,1,6.59,2.9L7.9,3Z"/><path class="cls-1" d="M10.86,7.77a2.31,2.31,0,0,0,.91.13A1.5,1.5,0,0,0,13,7.42h0l-.34,1.31H8.89v0c.43-.26.37-.75.37-1.2V4.26c0-.45.06-.94-.37-1.2V3h3a.88.88,0,0,0,.37,0h0V4.25h0c-.24-.41-.73-.37-1.16-.37h-.27V5.29h.8a.74.74,0,0,0,.32,0h0V6.45h0c-.12-.34-.52-.31-.84-.31h-.28Z"/><path class="cls-1" d="M15.19,6.29l1,1.89a1,1,0,0,0,1.16.58l1.2-.08a3.88,3.88,0,0,1-.84-1l-1-1.72a1.52,1.52,0,0,0,1-1.37,1.43,1.43,0,0,0-.77-1.32A2.28,2.28,0,0,0,15.79,3H13.22v0c.43.27.37.76.37,1.21V7.49c0,.45.06.95-.37,1.21v0h2.33v0c-.42-.26-.36-.76-.36-1.21Zm.08-2.42a.83.83,0,0,1,.51.13.88.88,0,0,1,.34.73,1.12,1.12,0,0,1-.93,1.1v-2h.08"/><path class="cls-1" d="M18.08,5.87a2.94,2.94,0,0,0,3.15,3,3,3,0,0,0,3.26-3,2.86,2.86,0,0,0-3.15-3A3,3,0,0,0,18.08,5.87Zm1.68-.24c0-.89.45-1.87,1.47-1.87,1.19,0,1.58,1.41,1.58,2.4a2,2,0,0,1-.32,1.21A1.42,1.42,0,0,1,21.34,8a1.4,1.4,0,0,1-1.17-.75,3.69,3.69,0,0,1-.41-1.6"/><path class="cls-4" d="M16.5,16.28c-.16-2-1.35-2.16-2.46-2.16a2.18,2.18,0,0,0-2,1,6.64,6.64,0,0,0-.6,3,5.15,5.15,0,0,0,.58,2.49,2.22,2.22,0,0,0,2.08,1,2.26,2.26,0,0,0,2-.9,2.76,2.76,0,0,0,.37-1.41h3.92A5.19,5.19,0,0,1,18.7,23a6.44,6.44,0,0,1-4.57,1.65c-3.77,0-6.74-2.34-6.74-6.66,0-4.11,2.65-6.91,6.72-6.91a6.79,6.79,0,0,1,4.64,1.68,5.79,5.79,0,0,1,1.6,3.53Z"/><path class="cls-5" d="M16.5,16.28c-.16-2-1.35-2.16-2.46-2.16a2.18,2.18,0,0,0-2,1,6.64,6.64,0,0,0-.6,3,5.15,5.15,0,0,0,.58,2.49,2.22,2.22,0,0,0,2.08,1,2.26,2.26,0,0,0,2-.9,2.76,2.76,0,0,0,.37-1.41h3.92A5.19,5.19,0,0,1,18.7,23a6.44,6.44,0,0,1-4.57,1.65c-3.77,0-6.74-2.34-6.74-6.66,0-4.11,2.65-6.91,6.72-6.91a6.79,6.79,0,0,1,4.64,1.68,5.79,5.79,0,0,1,1.6,3.53Z"/><path class="cls-2" d="M16.5,16.28c-.16-2-1.35-2.16-2.46-2.16a2.18,2.18,0,0,0-2,1,6.64,6.64,0,0,0-.6,3,5.15,5.15,0,0,0,.58,2.49,2.22,2.22,0,0,0,2.08,1,2.26,2.26,0,0,0,2-.9,2.76,2.76,0,0,0,.37-1.41h3.92A5.19,5.19,0,0,1,18.7,23a6.44,6.44,0,0,1-4.57,1.65c-3.77,0-6.74-2.34-6.74-6.66,0-4.11,2.65-6.91,6.72-6.91a6.79,6.79,0,0,1,4.64,1.68,5.79,5.79,0,0,1,1.6,3.53Z"/><path class="cls-1" d="M16.25,16.28c-.16-2-1.35-2.16-2.46-2.16a2.2,2.2,0,0,0-2,1,6.76,6.76,0,0,0-.59,3,5,5,0,0,0,.58,2.49,2.21,2.21,0,0,0,2.07,1,2.28,2.28,0,0,0,2-.9,2.76,2.76,0,0,0,.37-1.41h3.92A5.17,5.17,0,0,1,18.44,23a6.42,6.42,0,0,1-4.57,1.65c-3.77,0-6.73-2.34-6.73-6.66,0-4.11,2.65-6.91,6.72-6.91a6.79,6.79,0,0,1,4.64,1.68,5.85,5.85,0,0,1,1.6,3.53Z"/><path class="cls-2" d="M4.27,27.73v3.14h-.4V28.16h-.5v-.43Z"/><path class="cls-2" d="M5.49,27.73l0,1.76h.36c0-.14.13-.31.67-.31s.64.31.64.69-.19.6-.69.6c-.66,0-.66-.3-.66-.58H5.39c0,.77.31,1,1.06,1s1.07-.36,1.07-1.1-.42-1-.95-1a.89.89,0,0,0-.74.24l0-.84H7.42v-.43Z"/><path class="cls-2" d="M8,30.52a6.33,6.33,0,0,0,1.46-.58v.75c0,.09,0,.12-.1.12H8.77l.06.42h.65a.29.29,0,0,0,.31-.32V29.72a3.48,3.48,0,0,0,.8-.76l-.29-.27a2.21,2.21,0,0,1-.51.55v-.68h1.12v-.41H9.79v-.66H9.42v.66H7.83v.41H9.42v.93a4.83,4.83,0,0,1-1.59.63Z"/><path class="cls-2" d="M11.2,30.9a12.41,12.41,0,0,0,1.56-.73l-.07-.38c-.35.19-.88.42-.88.42V27.56h-.36v2.8l-.31.11ZM14,27.59H13.6v.68c0,1-.1,2.16-1.44,2.55l.18.41a2.13,2.13,0,0,0,1.14-.88,4.25,4.25,0,0,1,.5.86l.3-.36a5.59,5.59,0,0,0-.61-.85,4.56,4.56,0,0,0,.3-1.7ZM12.15,28A4.85,4.85,0,0,1,12.78,29l.32-.26a4.72,4.72,0,0,0-.68-1.06Z"/><path class="cls-2" d="M15.74,27.49v3.18H14.42v.42h3.13v-.42H16.1V29.12h1.24v-.43H16.1v-1.2Z"/><path class="cls-2" d="M18.07,28.79a6.94,6.94,0,0,1,.52.58,4.25,4.25,0,0,0,.17-.87h-1v-.41h.62v-.61h.35v.61h.58v.41h-.19a8,8,0,0,1-.27,1.2,4.35,4.35,0,0,1,.48.78l-.28.26c-.07-.13-.18-.35-.36-.63a3.4,3.4,0,0,1-.75,1l-.24-.37a2.88,2.88,0,0,0,.74-1,4.39,4.39,0,0,0-.62-.69Zm2.49-1.31v.74h.28v.43h-.28v2.21c0,.31-.13.36-.39.36h-.5l-.09-.41h.52c.1,0,.11,0,.11-.09V28.65h-.8v-.43h.8v-.74Zm-1,1.5A5.28,5.28,0,0,1,20,30l-.34.2a5.44,5.44,0,0,0-.42-1.06Z"/><path class="cls-2" d="M21.66,28.27A2.52,2.52,0,0,0,22,28h1a1.27,1.27,0,0,1-.22.25ZM21.2,30.6a3.67,3.67,0,0,0,1.27-.53.74.74,0,0,1,0,.14,4.09,4.09,0,0,1-1.46.57l.11.35a4.72,4.72,0,0,0,1.4-.6c0,.24,0,.3-.2.3h-.29l.07.4h.3c.18,0,.45,0,.45-.59a1.84,1.84,0,0,0-.24-.92c-.06-.09-.11-.14-.14-.18a3,3,0,0,0,.4-.26A2.12,2.12,0,0,0,24,31.13l.21-.37a2.26,2.26,0,0,1-.64-.51,3.44,3.44,0,0,0,.53-.46l-.27-.29a2.61,2.61,0,0,1-.45.43,2.7,2.7,0,0,1-.17-.65H24v-1H23.2a1.42,1.42,0,0,0,.2-.25V27.7H22.25a.65.65,0,0,0,.1-.15L22,27.46a1.82,1.82,0,0,1-1,.74l.14.35.15-.07v.8h1.09a4.27,4.27,0,0,1-1.25.41l.11.32a3.78,3.78,0,0,0,1-.31l.09.11a3.1,3.1,0,0,1-1.22.44Zm1.25-2V29h-.83v-.37Zm1.18,0V29h-.86v-.37Z"/></g></g></svg>