<svg xmlns="http://www.w3.org/2000/svg" width="15.6" height="13.28" viewBox="0 0 15.6 13.28"><path data-name="パス 46" d="M4.464.176c2.736,0,3.5-1.648,3.5-3.936V-4.8H5.7v1.168c0,1.152-.048,2.064-1.216,2.064-1.04,0-1.328-.672-1.328-2.08V-9.264c0-1.184.112-2.112,1.328-2.112,1.2,0,1.216.88,1.216,1.968v1.12H7.968V-9.376c0-2.256-.848-3.728-3.5-3.728-2.848,0-3.7,1.68-3.7,4.336v4.624C.768-1.616,1.616.176,4.464.176ZM9.616,0h2.016V-7.744L14.8,0h1.568V-12.96H14.416v7.392L11.264-12.96H9.616Z" transform="translate(-.768 13.104)" fill="#212121"/></svg>