<svg xmlns="http://www.w3.org/2000/svg" width="21.216" height="13.28" viewBox="0 0 21.216 13.28"><path data-name="パス 44" d="M.16.32H1.3C3.6.32,4.224-.72,4.224-2.9V-12.96H1.872v10C1.872-1.6,1.52-1.344.16-1.344ZM6.192,0H8.544V-5.76h1.3c2.1,0,3.472-.976,3.472-3.52,0-2.336-.992-3.68-3.312-3.68H6.192ZM8.544-7.424V-11.3h.912c1.456,0,1.632.608,1.632,2,0,1.376-.336,1.872-1.632,1.872ZM14.624,0H16.64V-7.744L19.808,0h1.568V-12.96H19.424v7.392L16.272-12.96H14.624Z" transform="translate(-.16 12.96)" fill="#212121"/></svg>