<svg xmlns="http://www.w3.org/2000/svg" width="476" height="382.149" viewBox="0 0 476 382.149"><path data-name="パス 27" d="M15.476,274.625H76.463a15.412,15.412,0,0,0,15.476-15.476v-9.021a15.414,15.414,0,0,0-15.476-15.476H15.476a4.664,4.664,0,0,1-3.335-1.333,4.359,4.359,0,0,1-1.39-3.266v-9.021a4.762,4.762,0,0,1,4.726-4.726H76.464a4.762,4.762,0,0,1,4.727,4.726v3.787H91.94v-3.787a15.414,15.414,0,0,0-15.476-15.476H15.476a14.988,14.988,0,0,0-10.961,4.515A14.988,14.988,0,0,0,0,221.032v9.021a14.982,14.982,0,0,0,4.515,10.962,14.982,14.982,0,0,0,10.961,4.514H76.463a4.681,4.681,0,0,1,3.337,1.333,4.366,4.366,0,0,1,1.391,3.266v9.021a4.76,4.76,0,0,1-4.727,4.727H15.476a4.76,4.76,0,0,1-4.726-4.727v-3.786H0v3.786a14.982,14.982,0,0,0,4.515,10.962A14.982,14.982,0,0,0,15.476,274.625Z"/><path data-name="パス 28" d="M186.252,232.594a2.06,2.06,0,0,1-2.058,2.058H115.71a2.06,2.06,0,0,1-2.058-2.058V205.556H102.9v69.069h10.75V247.587a2.061,2.061,0,0,1,2.058-2.058h68.484a2.06,2.06,0,0,1,2.058,2.058v27.038h10.875V205.556H186.252Z"/><path data-name="パス 29" d="M295.516,210.071a14.994,14.994,0,0,0-10.962-4.515H223.567a15.416,15.416,0,0,0-15.476,15.476v38.117a15.414,15.414,0,0,0,15.476,15.476h60.987a15.412,15.412,0,0,0,15.476-15.476V221.032a14.993,14.993,0,0,0-4.514-10.961h0Zm-76.675,10.961a4.762,4.762,0,0,1,4.726-4.727h60.987a4.762,4.762,0,0,1,4.727,4.727v38.117a4.76,4.76,0,0,1-4.727,4.727H223.567a4.76,4.76,0,0,1-4.726-4.727V221.032Z"/><path data-name="パス 30" d="M393.087,256.106a1.487,1.487,0,0,1-2.782,0L371.3,205.7l-.056-.148h-14.8l-19.062,50.55a1.487,1.487,0,0,1-2.782,0L315.6,205.7l-.056-.148H302.51l27.581,69.069h11.32L362.465,221.9a1.487,1.487,0,0,1,2.761,0l21.054,52.723h10.834L424.7,205.556H412.151l-19.062,50.55Z"/><path data-name="パス 31" d="M40.659,12.807V69.068H51.408V12.807a2.06,2.06,0,0,1,2.058-2.058H91.939V0H0V10.749H38.6a2.06,2.06,0,0,1,2.058,2.058Z"/><path data-name="パス 32" d="M114.683,69.069H175.67a15.411,15.411,0,0,0,15.476-15.476V15.476a14.991,14.991,0,0,0-4.514-10.961A14.994,14.994,0,0,0,175.67,0H114.683a14.988,14.988,0,0,0-10.961,4.515,14.985,14.985,0,0,0-4.515,10.961V53.593a15.412,15.412,0,0,0,15.476,15.476Zm0-58.32H175.67a4.762,4.762,0,0,1,4.727,4.727V53.593a4.76,4.76,0,0,1-4.727,4.727H114.683a4.76,4.76,0,0,1-4.726-4.727V15.476a4.762,4.762,0,0,1,4.726-4.727Z"/><path data-name="パス 33" d="M471.486,4.515A14.994,14.994,0,0,0,460.524,0H399.537a14.988,14.988,0,0,0-10.961,4.515,14.985,14.985,0,0,0-4.515,10.961V53.593a15.412,15.412,0,0,0,15.476,15.476h60.987A15.411,15.411,0,0,0,476,53.593V15.476a14.991,14.991,0,0,0-4.514-10.961ZM394.811,15.476a4.762,4.762,0,0,1,4.726-4.727h60.987a4.762,4.762,0,0,1,4.727,4.727V53.593a4.76,4.76,0,0,1-4.727,4.727H399.537a4.76,4.76,0,0,1-4.726-4.727Z"/><path data-name="パス 34" d="M212.985,42.031a2.06,2.06,0,0,1,2.058-2.058H241.36a2.055,2.055,0,0,1,1.372.524l31.9,28.514.065.058h14.024l-35.51-33.028a2.06,2.06,0,0,1,0-3.013L288.622,0H274.208L242.734,28.562a2.054,2.054,0,0,1-1.383.534H215.044a2.06,2.06,0,0,1-2.058-2.058V0H202.109V69.069h10.877V42.031Z"/><path data-name="パス 35" d="M333.016,45.107V69.068h10.749V45.107a2.055,2.055,0,0,1,.537-1.387L384.163,0H369.642L339.953,31.9a2.037,2.037,0,0,1-1.5.656,2.089,2.089,0,0,1-1.505-.649L307.049.072,306.981,0H292.617l39.862,43.72a2.055,2.055,0,0,1,.537,1.387Z"/><path data-name="パス 36" d="M15.476,171.847H76.463a15.411,15.411,0,0,0,15.476-15.476V134.543H58.573V145.42H79.132a2.06,2.06,0,0,1,2.058,2.058v8.893a4.762,4.762,0,0,1-4.727,4.727H15.476a4.763,4.763,0,0,1-4.727-4.728V118.253a4.763,4.763,0,0,1,4.727-4.727H76.463a4.763,4.763,0,0,1,4.727,4.727v3.913H91.939v-3.913a15.414,15.414,0,0,0-15.476-15.476H15.476a14.987,14.987,0,0,0-10.962,4.515A14.986,14.986,0,0,0,0,118.253V156.37a14.982,14.982,0,0,0,4.514,10.962,14.984,14.984,0,0,0,10.962,4.514Z"/><path data-name="パス 37" d="M194.84,171.847V118.254a15.416,15.416,0,0,0-15.476-15.476H118.377A15.414,15.414,0,0,0,102.9,118.254v53.593H113.65V151.924a2.06,2.06,0,0,1,2.058-2.058h66.323a2.06,2.06,0,0,1,2.058,2.058v19.923h10.75Zm-81.19-53.593a4.762,4.762,0,0,1,4.727-4.727h60.987a4.762,4.762,0,0,1,4.726,4.727v18.8a2.061,2.061,0,0,1-2.058,2.058H115.709a2.06,2.06,0,0,1-2.058-2.058V118.254Z"/><path data-name="パス 38" d="M334.217,113.527h71.126V102.778H321.41v69.069h83.933V161.1H334.217a2.06,2.06,0,0,1-2.058-2.058V144.809a2.06,2.06,0,0,1,2.058-2.058h56.77V131.874h-56.77a2.06,2.06,0,0,1-2.058-2.058V115.585a2.06,2.06,0,0,1,2.058-2.058Z"/><path data-name="パス 39" d="M216.552,119.4a1.486,1.486,0,0,1,2.624-.956l38.775,46.081.175.208,38.949-46.288a1.486,1.486,0,0,1,2.624.957v52.447h10.749V102.779H296.009L259.7,146.008a2.057,2.057,0,0,1-3.152,0l-36.239-43.147-.069-.082H205.8v69.069h10.749V119.4Z"/><path data-name="パス 40" d="M390.675,358.516V311.04H378.818l-63.409,46.187v11.857h64.7v13.065h10.568V369.084h14.434V358.516Zm-12.346,0H334.585a1.185,1.185,0,0,1-.676-2.158l44.336-30.8a1.185,1.185,0,0,1,1.861.973v30.207a1.778,1.778,0,0,1-1.778,1.778Z"/><path data-name="パス 41" d="M79.055,310.9H15.974a15.388,15.388,0,0,0-11.353,4.686A15.714,15.714,0,0,0,0,327v3.876H11.135V327a4.873,4.873,0,0,1,4.839-4.837H79.055A4.874,4.874,0,0,1,83.894,327v10.26a4.874,4.874,0,0,1-4.839,4.838H15.974a15.492,15.492,0,0,0-11.352,4.62A15.5,15.5,0,0,0,0,358.072V381.7H95.027V370.566H15.973a4.873,4.873,0,0,1-4.839-4.837v-7.657a4.872,4.872,0,0,1,4.839-4.839H79.054a16,16,0,0,0,15.972-15.971V327a16,16,0,0,0-15.972-16.1Z"/><path data-name="パス 42" d="M185.32,310.9H122.239a15.385,15.385,0,0,0-11.353,4.687A15.718,15.718,0,0,0,106.265,327v38.727a15.548,15.548,0,0,0,4.621,11.284,15.379,15.379,0,0,0,11.353,4.688H185.32a16,16,0,0,0,15.972-15.971V327.005a16,16,0,0,0-15.972-16.1Zm2.73,24.007a2.114,2.114,0,0,1,2.109,2.112v28.711a4.873,4.873,0,0,1-4.839,4.837H125.615a1.524,1.524,0,0,1-.707-2.874l62.161-32.543a2.1,2.1,0,0,1,.98-.243Zm-5.518-9.869L120.49,357.578a2.11,2.11,0,0,1-3.09-1.868V327a4.872,4.872,0,0,1,4.839-4.839h59.585a1.524,1.524,0,0,1,.707,2.874h0Z"/><path data-name="パス 43" d="M291.586,310.9H228.505a15.387,15.387,0,0,0-11.353,4.686A15.713,15.713,0,0,0,212.531,327v3.876h11.135V327a4.873,4.873,0,0,1,4.839-4.837h63.081A4.874,4.874,0,0,1,296.425,327v10.26a4.874,4.874,0,0,1-4.839,4.838H228.505a15.781,15.781,0,0,0-15.974,15.972V381.7h95.027V370.568H228.5a4.873,4.873,0,0,1-4.839-4.837v-7.657a4.872,4.872,0,0,1,4.839-4.839h63.081a16,16,0,0,0,15.972-15.971V327a16,16,0,0,0-15.972-16.1Z"/></svg>