<?xml version="1.0" encoding="UTF-8"?><svg id="_レイヤー_2" xmlns="http://www.w3.org/2000/svg" viewBox="0 0 101.95 24"><g id="_デザイン"><g id="_ヘッダー"><g><path d="M61.04,0h-21.19c-1.49,0-2.77,.53-3.81,1.57-1.04,1.04-1.57,2.32-1.57,3.81v13.24c0,1.49,.53,2.77,1.57,3.81,1.04,1.04,2.32,1.57,3.81,1.57h21.19c1.49,0,2.77-.53,3.81-1.57,1.04-1.04,1.57-2.32,1.57-3.81v-7.58h-12.16v3.78h7.71c.39,0,.72,.32,.72,.72v3.09c0,.45-.16,.84-.48,1.16-.32,.32-.71,.48-1.16,.48h-21.19c-.45,0-.84-.16-1.16-.48-.32-.32-.48-.71-.48-1.16V5.38c0-.45,.16-.84,.48-1.16,.32-.32,.71-.48,1.16-.48h21.19c.45,0,.84,.16,1.16,.48,.32,.32,.48,.71,.48,1.16v1.36h3.73v-1.36c0-1.49-.53-2.77-1.57-3.81-1.04-1.04-2.32-1.57-3.81-1.57Z"/><path d="M96.57,0h-21.19c-1.49,0-2.77,.53-3.81,1.57-1.04,1.04-1.57,2.32-1.57,3.81v3.13c0,1.49,.53,2.77,1.57,3.81,1.04,1.04,2.32,1.57,3.81,1.57h21.19c.45,0,.84,.16,1.16,.46,.32,.31,.48,.69,.48,1.13v3.13c0,.45-.16,.84-.48,1.16-.32,.32-.71,.48-1.16,.48h-21.19c-.45,0-.84-.16-1.16-.48-.32-.32-.48-.71-.48-1.16v-1.32h-3.74v1.32c0,1.49,.53,2.77,1.57,3.81,1.04,1.04,2.32,1.57,3.81,1.57h21.19c1.49,0,2.77-.53,3.81-1.57s1.57-2.32,1.57-3.81v-3.13c0-1.49-.53-2.77-1.57-3.81-1.04-1.04-2.32-1.57-3.81-1.57h-21.19c-.45,0-.84-.16-1.16-.46-.32-.31-.48-.69-.48-1.13v-3.13c0-.45,.16-.84,.48-1.16,.32-.32,.71-.48,1.16-.48h21.19c.45,0,.84,.16,1.16,.48,.32,.32,.48,.71,.48,1.16v1.32h3.74v-1.32c0-1.49-.53-2.77-1.57-3.81-1.04-1.04-2.32-1.57-3.81-1.57Z"/><path d="M0,3.74H13.41c.39,0,.72,.32,.72,.72V24h3.74V4.45c0-.39,.32-.72,.72-.72h13.37V0H0V3.74Z"/></g></g></g></svg>