<svg xmlns="http://www.w3.org/2000/svg" width="252.621" height="324.33" viewBox="0 0 252.621 324.33">
  <g id="グループ_4604" data-name="グループ 4604" transform="translate(-1236.019 -5089)">
    <path id="パス_739" data-name="パス 739" d="M899.741,305.7a20.032,20.032,0,0,1,13.5-9.839c6.276-1.168,13.153.874,19.364,5.751l10.975,8.619c4.432,3.48,8.868,4.687,12.489,3.4s6.3-5.041,7.524-10.531l3.047-13.62c1.994-8.911,7.119-15.443,14.06-17.918s15.04-.66,22.223,4.982l10.977,8.619c4.432,3.48,8.867,4.687,12.488,3.4s6.3-5.031,7.523-10.531l3.048-13.619,9.966,2.231-3.048,13.618c-1.991,8.915-7.118,15.445-14.059,17.92s-15.042.658-22.225-4.983l-10.977-8.62c-4.431-3.479-8.866-4.684-12.487-3.393s-6.305,5.039-7.524,10.529l-3.047,13.619c-1.985,8.9-7.119,15.443-14.06,17.918s-15.041.66-22.224-4.981L926.3,309.646c-3.869-3.037-7.842-4.366-11.189-3.744a9.874,9.874,0,0,0-6.6,5.025Z" transform="translate(421.45 5089.001)" fill="#fff"/>
    <path id="パス_740" data-name="パス 740" d="M920.007,302.505a20.031,20.031,0,0,1,13.5-9.838c6.276-1.167,13.154.875,19.363,5.752l10.976,8.619c4.432,3.48,8.867,4.686,12.489,3.4s6.3-5.035,7.523-10.531l3.047-13.619c1.989-8.925,7.12-15.443,14.06-17.918s15.041-.658,22.225,4.983l10.975,8.619c4.433,3.481,8.868,4.685,12.488,3.394s6.3-5.023,7.524-10.531l3.048-13.617,9.965,2.23-3.048,13.618c-1.993,8.925-7.117,15.444-14.058,17.918s-15.042.66-22.225-4.982l-10.976-8.618c-4.432-3.482-8.867-4.686-12.488-3.395s-6.3,5.03-7.524,10.53l-3.047,13.618c-1.987,8.9-7.119,15.443-14.06,17.919s-15.042.659-22.225-4.983l-10.975-8.618c-3.869-3.039-7.842-4.367-11.189-3.745a9.871,9.871,0,0,0-6.6,5.025Z" transform="translate(421.45 5089.001)" fill="#fccf00"/>
    <path id="パス_747" data-name="パス 747" d="M932.217,156.584,901.251,117.6l34.887-76.615L855.916,57.179,854.4,49.671l94.923-19.157-39.161,85.995,28.051,35.311Z" transform="translate(421.45 5089.001)" fill="#fff"/>
    <path id="パス_748" data-name="パス 748" d="M931.494,144.679,900.527,105.7l34.888-76.616L855.193,45.274l-1.515-7.508L948.6,18.609l-39.162,86,28.052,35.31Z" transform="translate(421.45 5089.001)" fill="#f5aa00"/>
    <path id="パス_749" data-name="パス 749" d="M885.866,194.06a14,14,0,1,1,19.164-4.95,14.011,14.011,0,0,1-19.164,4.95m12.147-20.606a9.924,9.924,0,1,0,3.51,13.589,9.936,9.936,0,0,0-3.51-13.589" transform="translate(421.45 5089.001)" fill="#fff"/>
    <path id="パス_750" data-name="パス 750" d="M969.182,212.77l-2.751-51.66,46.116,23.449Zm5.6-38.821,1.34,25.168,21.125-13.744Z" transform="translate(421.45 5089.001)" fill="#ef8200"/>
    <path id="パス_751" data-name="パス 751" d="M1041.406,132.456l-25.323,1.286,11.549-22.574Zm-19.02-2.793,12.337-.626-6.711-10.37Z" transform="translate(421.45 5089.001)" fill="#7d4697"/>
    <path id="パス_752" data-name="パス 752" d="M814.569,23.72,819.408,0l23.721,4.839L838.29,28.559Zm7.825-19.2-3.307,16.217L835.3,24.041l3.307-16.217Z" transform="translate(421.45 5089.001)" fill="#7d4697"/>
  </g>
</svg>
