<svg xmlns="http://www.w3.org/2000/svg" width="108.25" height="214.648" viewBox="0 0 108.25 214.648">
  <g id="グループ_4597" data-name="グループ 4597" transform="translate(-409.158 -4079.09)">
    <path id="パス_792" data-name="パス 792" d="M129.891,1442.766a3,3,0,0,1-1.764-3.383,4.937,4.937,0,0,0-.7-4.026c-1.012-1.358-2.935-2.211-5.416-2.41l-7.3-.581c-4.889-.389-8.754-2.633-10.6-6.158s-1.5-7.979.96-12.223l3.671-6.337c1.425-2.461,1.722-4.744.838-6.429s-2.933-2.738-5.765-2.964l-7.3-.58c-4.889-.392-8.755-2.636-10.6-6.158s-1.5-7.98.959-12.224l3.671-6.338c1.247-2.152,1.637-4.221,1.1-5.826a4.961,4.961,0,0,0-2.915-2.862l-.01,0a3,3,0,0,1,2.327-5.531l.044.019a10.82,10.82,0,0,1,6.241,6.464c1.1,3.265.533,7.081-1.591,10.748l-3.671,6.337c-1.425,2.46-1.723,4.744-.838,6.429s2.933,2.738,5.766,2.964l7.3.582c4.888.389,8.754,2.635,10.6,6.156s1.5,7.98-.96,12.224l-3.671,6.338c-1.424,2.459-1.722,4.742-.838,6.428s2.932,2.741,5.766,2.964l7.3.582c4.225.335,7.686,2.039,9.746,4.8a10.825,10.825,0,0,1,1.763,8.857,3,3,0,0,1-3.556,2.316,3.049,3.049,0,0,1-.551-.173" transform="translate(371.149 2764.561)" fill="#fff"/>
    <path id="パス_793" data-name="パス 793" d="M141.878,1441.67a3,3,0,0,1-1.764-3.384,4.93,4.93,0,0,0-.7-4.023c-1.013-1.358-2.936-2.213-5.417-2.411l-7.3-.582c-4.887-.388-8.754-2.634-10.6-6.157s-1.5-7.979.96-12.224l3.671-6.337c1.425-2.461,1.722-4.744.838-6.429s-2.932-2.739-5.765-2.964l-7.3-.581c-4.889-.391-8.755-2.635-10.6-6.158s-1.5-7.979.961-12.223l3.671-6.337c1.246-2.153,1.636-4.222,1.1-5.827a4.932,4.932,0,0,0-2.891-2.852l-.034-.014a3,3,0,0,1,2.327-5.531l.044.019a10.82,10.82,0,0,1,6.241,6.464c1.1,3.264.534,7.081-1.59,10.748l-3.671,6.338c-1.425,2.46-1.724,4.743-.839,6.428s2.933,2.737,5.766,2.964l7.3.582c4.889.389,8.756,2.634,10.6,6.156s1.5,7.979-.959,12.224l-3.672,6.338c-1.425,2.46-1.722,4.743-.838,6.429s2.933,2.738,5.766,2.964l7.3.581c4.224.335,7.686,2.041,9.748,4.8a10.831,10.831,0,0,1,1.76,8.856,3,3,0,0,1-3.556,2.314,2.948,2.948,0,0,1-.551-.172" transform="translate(371.149 2764.561)" fill="#82cbd1"/>
    <path id="パス_794" data-name="パス 794" d="M51.393,1499.951a4.5,4.5,0,0,1,7.472-4.61c.135.136,10.535,10.549,23.467,11.361,13.786.866,25.81-5.174,25.93-5.235a4.5,4.5,0,0,1,4.111,8.006c-.575.295-14.27,7.238-30.605,6.212-16.47-1.034-28.823-13.524-29.34-14.055a4.473,4.473,0,0,1-1.035-1.679" transform="translate(371.149 2764.561)" fill="#fff"/>
    <path id="パス_795" data-name="パス 795" d="M64.538,1513.341a4.5,4.5,0,0,1,7.472-4.61c.135.136,10.535,10.549,23.467,11.361,13.786.866,25.809-5.174,25.929-5.235a4.5,4.5,0,0,1,4.111,8.006c-.574.3-14.269,7.238-30.6,6.212-16.47-1.034-28.822-13.524-29.34-14.055a4.473,4.473,0,0,1-1.035-1.679" transform="translate(371.149 2764.561)" fill="#e8546b"/>
    <path id="パス_796" data-name="パス 796" d="M38.01,1424.776a2.5,2.5,0,0,1,4.986-.344c1.746,17.076,5.94,22.248,8.144,22.612,1.958.323,4.623-2.527,6.788-7.258,6.215-13.582,11.327-20.392,11.541-20.674a2.5,2.5,0,0,1,3.987,3.017c-.049.066-5.022,6.713-10.981,19.738-4.485,9.8-9.538,10.541-12.149,10.11-6.348-1.049-10.6-10.4-12.305-27.036-.005-.055-.009-.11-.011-.165" transform="translate(371.149 2764.561)" fill="#fff"/>
    <path id="パス_797" data-name="パス 797" d="M42.181,1434.738a2.5,2.5,0,0,1,4.986-.344c1.746,17.076,5.94,22.248,8.144,22.612,1.958.323,4.622-2.526,6.788-7.258,6.214-13.581,11.327-20.391,11.541-20.674a2.5,2.5,0,0,1,3.987,3.018c-.05.066-5.023,6.712-10.981,19.737-4.485,9.8-9.538,10.541-12.15,10.11-6.347-1.048-10.6-10.4-12.3-27.036-.005-.055-.009-.11-.011-.165" transform="translate(371.149 2764.561)" fill="#7d4697"/>
    <path id="パス_798" data-name="パス 798" d="M66.4,1331.9s3.328-7.969,3.025-12.064c-.232-3.13-2.9-5.912-6.284-5.187-4.447.953-4.327,5.936-4.327,5.936s-4.564-2-7.134,1.747c-1.955,2.852-.4,6.38,2.411,7.783,3.673,1.837,12.309,1.785,12.309,1.785" transform="translate(371.149 2764.561)" fill="#26b559"/>
  </g>
</svg>
