<svg xmlns="http://www.w3.org/2000/svg" xmlns:xlink="http://www.w3.org/1999/xlink" width="87.444" height="145.078" viewBox="0 0 87.444 145.078">
  <defs>
    <clipPath id="clip-path">
      <rect id="長方形_2629" data-name="長方形 2629" width="87.444" height="145.078" fill="none"/>
    </clipPath>
  </defs>
  <g id="グループ_1461" data-name="グループ 1461" transform="translate(0)">
    <g id="グループ_1460" data-name="グループ 1460" transform="translate(0 0)" clip-path="url(#clip-path)">
      <path id="パス_1630" data-name="パス 1630" d="M26.4,33.856s9.887-13.425,11.191-21.247c1-5.978-2.744-12.416-9.417-12.6C19.4-.24,17.347,9.162,17.347,9.162S9.7,3.316,3.166,9.177C-1.8,13.633-.5,20.963,4.13,24.88,10.179,30,26.4,33.856,26.4,33.856" transform="translate(0 0)" fill="#ed86b3"/>
      <path id="パス_1631" data-name="パス 1631" d="M41.005,72.3A3.179,3.179,0,0,1,39,71.591c-.586-.478-14.405-11.788-18.1-20.1a15.553,15.553,0,0,1,.009-12.71,13.1,13.1,0,0,1,8.365-7.139c6.771-1.95,11.938,1.319,14.97,4.761,3.647-2.78,9.354-4.974,15.611-1.735a13.1,13.1,0,0,1,6.8,8.639,15.549,15.549,0,0,1-2.482,12.465C58.925,63.2,43.157,71.582,42.488,71.936a3.176,3.176,0,0,1-1.483.367M33.27,37.412a8.015,8.015,0,0,0-2.235.329,6.745,6.745,0,0,0-4.368,3.717,9.118,9.118,0,0,0,.039,7.45C28.949,53.959,36.967,61.5,41.383,65.3c5.076-2.861,14.424-8.692,17.608-13.2a9.122,9.122,0,0,0,1.5-7.3,6.744,6.744,0,0,0-3.555-4.5c-5.723-2.968-10.191,2.306-10.681,2.917a3.186,3.186,0,0,1-5.323-.542c-.308-.592-2.893-5.267-7.659-5.267" transform="translate(6.477 10.289)" fill="#e8546b"/>
      <path id="パス_1632" data-name="パス 1632" d="M61.637,113.379s6.97-5.7,8.7-9.623c1.321-3,.225-6.866-3.242-7.856-4.561-1.3-6.892,3.344-6.892,3.344s-3.219-4.082-7.425-1.889c-3.2,1.668-3.491,5.68-1.595,8.348,2.482,3.491,10.456,7.677,10.456,7.677" transform="translate(16.568 31.699)" fill="#7d4697"/>
      <rect id="長方形_2627" data-name="長方形 2627" width="5.142" height="28.972" transform="matrix(0.936, -0.352, 0.352, 0.936, 29.709, 107.858)" fill="#7d4697"/>
      <rect id="長方形_2628" data-name="長方形 2628" width="28.972" height="5.142" transform="matrix(0.936, -0.352, 0.352, 0.936, 22.754, 123.207)" fill="#7d4697"/>
    </g>
  </g>
</svg>
