<svg xmlns="http://www.w3.org/2000/svg" xmlns:xlink="http://www.w3.org/1999/xlink" width="166.886" height="236.093" viewBox="0 0 166.886 236.093">
  <defs>
    <clipPath id="clip-path">
      <rect id="長方形_2626" data-name="長方形 2626" width="166.886" height="236.093" fill="none"/>
    </clipPath>
  </defs>
  <g id="グループ_1460" data-name="グループ 1460" transform="translate(0)">
    <rect id="長方形_2624" data-name="長方形 2624" width="4.542" height="25.595" transform="translate(109.547 200.867) rotate(-88.591)" fill="#7d4697"/>
    <rect id="長方形_2625" data-name="長方形 2625" width="25.595" height="4.542" transform="translate(119.812 211.649) rotate(-88.591)" fill="#7d4697"/>
    <g id="グループ_1458" data-name="グループ 1458" transform="translate(0)">
      <g id="グループ_1457" data-name="グループ 1457" clip-path="url(#clip-path)">
        <path id="パス_1621" data-name="パス 1621" d="M38.2,63.808A13.3,13.3,0,0,1,49.231,64.98C52.84,67.2,55.314,71.27,56.2,76.437l1.562,9.131c.631,3.688,2.277,6.258,4.633,7.236s5.346.325,8.4-1.832l7.566-5.346c4.952-3.5,10.386-4.428,14.9-2.555s7.695,6.377,8.717,12.355l1.562,9.131c.631,3.688,2.277,6.258,4.634,7.234s5.341.332,8.394-1.83l7.568-5.346,3.911,5.538-7.568,5.344c-4.951,3.5-10.384,4.43-14.9,2.557s-7.7-6.377-8.719-12.355l-1.564-9.131c-.629-3.688-2.275-6.256-4.633-7.236s-5.349-.326-8.394,1.832L74.7,96.511c-4.944,3.5-10.384,4.428-14.9,2.555s-7.7-6.377-8.719-12.355L49.516,77.58c-.552-3.218-1.914-5.643-3.839-6.827a6.55,6.55,0,0,0-5.485-.466Z" transform="translate(27.442 45.349)" fill="#fff"/>
        <path id="パス_1622" data-name="パス 1622" d="M44.836,68.147a13.3,13.3,0,0,1,11.028,1.172c3.608,2.222,6.083,6.291,6.966,11.458l1.562,9.133c.631,3.688,2.277,6.256,4.634,7.234s5.344.33,8.394-1.83l7.568-5.346c4.956-3.507,10.384-4.428,14.9-2.555s7.7,6.377,8.721,12.353l1.56,9.131c.632,3.689,2.277,6.258,4.633,7.236s5.339.333,8.394-1.832l7.569-5.344,3.911,5.536-7.567,5.346c-4.959,3.5-10.384,4.43-14.9,2.555s-7.7-6.377-8.719-12.353l-1.562-9.133c-.629-3.688-2.277-6.256-4.633-7.234s-5.342-.332-8.4,1.83l-7.566,5.346c-4.94,3.493-10.386,4.43-14.9,2.555s-7.7-6.377-8.719-12.353l-1.562-9.133c-.552-3.218-1.914-5.643-3.839-6.827a6.55,6.55,0,0,0-5.485-.466Z" transform="translate(32.207 48.466)" fill="#fccf00"/>
        <path id="パス_1623" data-name="パス 1623" d="M51.054,28.727A13.841,13.841,0,1,1,64.232,43.2,13.857,13.857,0,0,1,51.054,28.727m23.419,1.1a9.6,9.6,0,1,0-10.042,9.143,9.615,9.615,0,0,0,10.042-9.143" transform="translate(36.663 11.159)" fill="#fccf00"/>
        <path id="パス_1624" data-name="パス 1624" d="M8.571,88.609,24.8,57.179,57.531,79.158,81.61,58.028l26.882,6.122,24.442-51.638,4.595,2.175L111.342,70.013l-28.33-6.452-25.069,22L26.7,64.58,13.087,90.943Z" transform="translate(6.157 8.988)" fill="#fff"/>
        <path id="パス_1625" data-name="パス 1625" d="M12.223,86.62,28.456,55.19,61.185,77.168l24.077-21.13,26.882,6.124,24.442-51.639L141.18,12.7,114.994,68.024,86.664,61.57,61.6,83.57,30.356,62.591,16.739,88.954Z" transform="translate(8.78 7.558)" fill="#ef8200"/>
        <path id="パス_1626" data-name="パス 1626" d="M9.483,56.616a111.26,111.26,0,0,0,7.731-29.239C18.963,10.815,24.836.435,25.087,0l5.877,3.377L28.025,1.689l2.943,1.682c-.055.095-5.425,9.671-7.012,24.716a116.218,116.218,0,0,1-8.277,31.275Z" transform="translate(6.812)" fill="#fccf00"/>
        <path id="パス_1627" data-name="パス 1627" d="M0,61.338A111.283,111.283,0,0,0,7.731,32.1C9.48,15.537,15.353,5.157,15.6,4.722l5.88,3.371c-.053.095-5.423,9.671-7.011,24.715A116.264,116.264,0,0,1,6.2,64.087Z" transform="translate(0 3.392)" fill="#fff"/>
        <path id="パス_1628" data-name="パス 1628" d="M54.947,110.526l9.028,2.318A57.538,57.538,0,0,1,52.7,133.732,74.341,74.341,0,0,1,34.076,149.2l-4.5-8.166A65.949,65.949,0,0,0,45.6,127.692a48.879,48.879,0,0,0,9.343-17.166" transform="translate(21.249 79.394)" fill="#fff"/>
        <path id="パス_1629" data-name="パス 1629" d="M64.055,114.893l9.03,2.316A57.544,57.544,0,0,1,61.811,138.1a74.3,74.3,0,0,1-18.627,15.463l-4.5-8.165a65.873,65.873,0,0,0,16.023-13.339,48.85,48.85,0,0,0,9.343-17.164" transform="translate(27.791 82.531)" fill="#fccf00"/>
      </g>
    </g>
  </g>
</svg>
