<svg xmlns="http://www.w3.org/2000/svg" width="185.151" height="288.024" viewBox="0 0 185.151 288.024">
  <g id="グループ_4592" data-name="グループ 4592" transform="translate(-1318.997 -439.504)">
    <path id="パス_707" data-name="パス 707" d="M1024.669,55.334l-5.62-4.133a109.782,109.782,0,0,1,26.484-26.1l3.944,5.753a102.923,102.923,0,0,0-24.808,24.477" transform="translate(415.853 439.503)" fill="#0068b6"/>
    <path id="パス_708" data-name="パス 708" d="M1025.471,51.993l-5.62-4.133a109.782,109.782,0,0,1,26.484-26.1l3.944,5.753a102.923,102.923,0,0,0-24.808,24.477" transform="translate(415.853 439.503)" fill="#fccf00"/>
    <path id="パス_713" data-name="パス 713" d="M937.506,60.765l-34.362-23.25L940.461,19.38ZM913.58,38.259l19.353,13.1L934.6,28.047Z" transform="translate(415.853 439.503)" fill="#f5aa00"/>
    <path id="パス_716" data-name="パス 716" d="M1085.973,170.925a13.52,13.52,0,0,1-10.343-4.5c-2.814-3.229-3.981-7.851-3.29-13.018l1.139-8.507c.4-2.962-.214-5.359-1.674-6.579s-3.929-1.392-6.772-.473l-8.168,2.639c-5.751,1.859-11.234,1.1-15.04-2.077s-5.531-8.439-4.73-14.43l1.139-8.507c.354-2.645-.079-4.824-1.221-6.136a4.831,4.831,0,0,0-3.808-1.5l.039-8.72a13.524,13.524,0,0,1,10.343,4.5c2.813,3.23,3.981,7.853,3.29,13.02l-1.139,8.506c-.4,2.963.214,5.361,1.674,6.58s3.928,1.391,6.772.473l8.168-2.639c5.752-1.858,11.234-1.1,15.041,2.077s5.53,8.438,4.729,14.429l-1.139,8.508c-.354,2.645.079,4.824,1.221,6.134a4.827,4.827,0,0,0,3.808,1.506Z" transform="translate(415.853 439.503)" fill="#0068b6"/>
    <path id="パス_717" data-name="パス 717" d="M1088.256,167.554a13.522,13.522,0,0,1-10.343-4.5c-2.813-3.228-3.981-7.852-3.29-13.019l1.139-8.507c.4-2.962-.213-5.359-1.673-6.579s-3.93-1.392-6.774-.473l-8.166,2.639c-5.752,1.859-11.234,1.1-15.042-2.078s-5.53-8.438-4.729-14.429l1.139-8.508c.355-2.645-.08-4.824-1.221-6.135a4.825,4.825,0,0,0-3.807-1.5l.038-8.72a13.524,13.524,0,0,1,10.343,4.5c2.813,3.229,3.982,7.853,3.29,13.021l-1.139,8.507c-.4,2.961.214,5.36,1.675,6.579s3.927,1.391,6.772.473l8.167-2.639c5.75-1.857,11.235-1.1,15.042,2.078s5.53,8.438,4.728,14.429l-1.139,8.507c-.354,2.645.08,4.825,1.222,6.135a4.822,4.822,0,0,0,3.807,1.505Z" transform="translate(415.853 439.503)" fill="#33b495"/>
    <path id="パス_718" data-name="パス 718" d="M1066.838,93.7l-16.293-2.835,2.834-16.294,16.294,2.835Zm-13.267-4.964,11.139,1.937,1.937-11.138L1055.508,77.6Z" transform="translate(415.853 439.503)" fill="#7dccf3"/>
    <rect id="長方形_395" data-name="長方形 395" width="6.093" height="34.336" transform="matrix(0.548, -0.837, 0.837, 0.548, 1431.456, 704.641)" fill="#7d4697"/>
    <rect id="長方形_396" data-name="長方形 396" width="34.336" height="6.093" transform="translate(1435.538 724.19) rotate(-56.793)" fill="#7d4697"/>
    <path id="パス_705" data-name="パス 705" d="M983.976,55.238l-3.042-4.258,36.909-26.363L1001.175,6.753,1005,3.183l20.736,22.226Z" transform="translate(415.853 439.503)" fill="#0068b6"/>
    <path id="パス_706" data-name="パス 706" d="M1006.715,0,1002.89,3.57l16.667,17.864L982.649,47.8l3.042,4.258,41.76-29.83Z" transform="translate(415.853 439.503)" fill="#e8546b"/>
  </g>
</svg>
