<svg xmlns="http://www.w3.org/2000/svg" xmlns:xlink="http://www.w3.org/1999/xlink" width="174.646" height="183.68" viewBox="0 0 174.646 183.68">
  <defs>
    <clipPath id="clip-path">
      <rect id="長方形_2633" data-name="長方形 2633" width="174.646" height="183.68" fill="none"/>
    </clipPath>
  </defs>
  <g id="グループ_1465" data-name="グループ 1465" transform="translate(0.001 0)">
    <g id="グループ_1464" data-name="グループ 1464" transform="translate(-0.001 0)" clip-path="url(#clip-path)">
      <path id="パス_1637" data-name="パス 1637" d="M53.247,152.705a2.971,2.971,0,0,1,1.956-3.231,4.889,4.889,0,0,0,3.048-2.659c.63-1.555.363-3.621-.744-5.822l-3.258-6.475c-2.183-4.338-2.27-8.761-.239-12.137s5.984-5.367,10.838-5.468l7.247-.149c2.816-.058,4.9-.98,5.873-2.594s.808-3.888-.457-6.4l-3.258-6.475c-2.181-4.339-2.27-8.762-.238-12.137s5.98-5.368,10.838-5.469l7.249-.149c2.46-.051,4.412-.784,5.491-2.067a4.907,4.907,0,0,0,.926-3.938l0-.01a2.97,2.97,0,0,1,5.876-.873c0,.015,0,.032.007.047a10.7,10.7,0,0,1-2.264,8.6c-2.2,2.608-5.717,4.09-9.911,4.177l-7.25.149c-2.813.058-4.9.98-5.871,2.594s-.809,3.888.455,6.4l3.257,6.475c2.183,4.338,2.269,8.762.241,12.135S77.073,122.6,72.219,122.7l-7.249.149c-2.814.058-4.9.98-5.871,2.594s-.812,3.889.455,6.4l3.258,6.477c1.887,3.747,2.223,7.552.946,10.712a10.718,10.718,0,0,1-6.589,6.044,2.972,2.972,0,0,1-3.787-1.819,3.093,3.093,0,0,1-.137-.555" transform="translate(20.157 28.432)" fill="#fff"/>
      <path id="パス_1638" data-name="パス 1638" d="M53.184,145.353a2.97,2.97,0,0,1,1.956-3.231,4.881,4.881,0,0,0,3.047-2.658c.628-1.555.364-3.622-.743-5.824l-3.258-6.475c-2.183-4.335-2.269-8.761-.238-12.135s5.981-5.368,10.836-5.469l7.249-.149c2.814-.058,4.9-.98,5.872-2.594s.809-3.888-.455-6.4L74.19,93.94c-2.181-4.339-2.269-8.762-.237-12.138s5.981-5.367,10.836-5.467l7.249-.151c2.461-.051,4.412-.784,5.493-2.067a4.881,4.881,0,0,0,.928-3.911c0-.012,0-.026-.006-.036a2.97,2.97,0,0,1,5.875-.873c0,.015.006.032.007.047a10.7,10.7,0,0,1-2.264,8.6c-2.2,2.607-5.717,4.091-9.911,4.178l-7.249.149c-2.816.058-4.9.978-5.872,2.593s-.809,3.888.455,6.4l3.258,6.475c2.183,4.338,2.27,8.762.239,12.135s-5.983,5.368-10.838,5.469l-7.249.149c-2.814.058-4.9.98-5.871,2.594s-.811,3.888.454,6.4l3.26,6.475c1.887,3.748,2.222,7.554.946,10.717a10.721,10.721,0,0,1-6.59,6.039,2.971,2.971,0,0,1-3.786-1.819,3.094,3.094,0,0,1-.137-.555" transform="translate(20.133 25.612)" fill="#82cbd1"/>
      <path id="パス_1639" data-name="パス 1639" d="M92.279,63.963a2.972,2.972,0,0,1-3.752.429,4.887,4.887,0,0,0-3.968-.786c-1.615.452-3.087,1.926-4.152,4.148l-3.131,6.539c-2.1,4.379-5.543,7.153-9.457,7.61s-7.9-1.451-10.953-5.23l-4.552-5.644c-1.767-2.192-3.77-3.278-5.642-3.059s-3.571,1.738-4.787,4.274l-3.13,6.54c-2.1,4.378-5.547,7.153-9.458,7.61s-7.906-1.45-10.954-5.23L13.79,75.518C12.245,73.6,10.471,72.506,8.8,72.436a4.916,4.916,0,0,0-3.682,1.677l-.007.008A2.97,2.97,0,0,1,.825,70.006l.033-.035A10.709,10.709,0,0,1,9.049,66.5c3.406.145,6.733,2.024,9.366,5.288l4.552,5.645c1.765,2.19,3.77,3.276,5.642,3.059s3.571-1.738,4.787-4.275l3.131-6.539c2.1-4.379,5.547-7.155,9.457-7.61s7.906,1.45,10.954,5.23l4.552,5.644c1.765,2.19,3.77,3.276,5.641,3.058s3.575-1.735,4.787-4.274l3.132-6.539c1.811-3.786,4.616-6.378,7.9-7.3a10.718,10.718,0,0,1,8.812,1.518,2.971,2.971,0,0,1,.876,4.108,3.07,3.07,0,0,1-.356.448" transform="translate(0 22.062)" fill="#fff"/>
      <path id="パス_1640" data-name="パス 1640" d="M94.626,55.676a2.972,2.972,0,0,1-3.754.428,4.89,4.89,0,0,0-3.965-.786c-1.615.454-3.088,1.927-4.152,4.149l-3.132,6.539c-2.095,4.378-5.543,7.152-9.455,7.61s-7.906-1.45-10.954-5.23l-4.552-5.644c-1.767-2.192-3.77-3.278-5.642-3.059s-3.572,1.736-4.787,4.274L41.1,70.5c-2.1,4.378-5.545,7.153-9.458,7.61s-7.9-1.451-10.953-5.231l-4.551-5.644c-1.547-1.916-3.321-3.012-4.995-3.083A4.881,4.881,0,0,0,7.48,65.808a.218.218,0,0,0-.025.026,2.97,2.97,0,0,1-4.284-4.115l.033-.035a10.709,10.709,0,0,1,8.191-3.47c3.406.144,6.733,2.023,9.366,5.288l4.552,5.644c1.767,2.192,3.77,3.278,5.642,3.061s3.571-1.738,4.787-4.275l3.131-6.539c2.1-4.38,5.545-7.155,9.455-7.61s7.906,1.45,10.955,5.23l4.551,5.644c1.768,2.19,3.772,3.276,5.644,3.059s3.572-1.738,4.787-4.275L77.4,56.9c1.811-3.786,4.617-6.378,7.9-7.3a10.727,10.727,0,0,1,8.809,1.521,2.972,2.972,0,0,1,.874,4.109,3.029,3.029,0,0,1-.354.447" transform="translate(0.9 18.883)" fill="#7d4697"/>
      <path id="パス_1641" data-name="パス 1641" d="M10.331,37.2a3.465,3.465,0,0,1-1.51-4.545c.38-.8,9.516-19.63,30.7-28.036A68.356,68.356,0,0,1,76.684,1.141,3.465,3.465,0,0,1,75.14,7.9a62.4,62.4,0,0,0-33.061,3.167c-18.579,7.372-26.916,24.4-27,24.573a3.466,3.466,0,0,1-4.617,1.633c-.044-.021-.089-.043-.131-.065" transform="translate(3.256 0)" fill="#fff"/>
      <path id="パス_1642" data-name="パス 1642" d="M23.7,37.8a3.465,3.465,0,0,1-1.51-4.545c.38-.8,9.516-19.63,30.7-28.036A68.372,68.372,0,0,1,90.048,1.737,3.465,3.465,0,0,1,88.5,8.493a62.407,62.407,0,0,0-33.061,3.168c-18.579,7.37-26.916,24.4-27,24.571a3.466,3.466,0,0,1-4.617,1.633c-.044-.021-.089-.043-.131-.065" transform="translate(8.382 0.229)" fill="#ed848c"/>
      <path id="パス_1643" data-name="パス 1643" d="M100.6,123.487a2.475,2.475,0,0,1-.158-4.945c16.957-1.1,22.227-5.063,22.669-7.229.39-1.925-2.33-4.665-6.932-6.98-13.209-6.647-19.759-11.954-20.03-12.176a2.475,2.475,0,0,1,3.131-3.834c.064.051,6.457,5.215,19.124,11.588,9.532,4.8,10.078,9.821,9.556,12.389-1.269,6.241-10.674,10.107-27.2,11.182-.054,0-.109.006-.163.006" transform="translate(36.536 33.667)" fill="#fff"/>
      <path id="パス_1644" data-name="パス 1644" d="M107.838,120.769a2.475,2.475,0,0,1-.158-4.945c16.957-1.1,22.227-5.063,22.669-7.229.392-1.925-2.33-4.665-6.932-6.98-13.209-6.645-19.758-11.953-20.03-12.176a2.475,2.475,0,0,1,3.132-3.834c.062.051,6.456,5.215,19.123,11.588,9.533,4.8,10.079,9.821,9.556,12.39-1.269,6.24-10.673,10.107-27.2,11.182-.054,0-.109,0-.163,0" transform="translate(39.31 32.624)" fill="#7d4697"/>
      <path id="パス_1645" data-name="パス 1645" d="M58.6,48.74s3.541-5.406,3.878-8.461A4.025,4.025,0,0,0,58.567,35.6c-3.4.091-4,3.774-4,3.774s-3.083-2.1-5.489.307a4.026,4.026,0,0,0,.708,6.056c2.45,1.854,8.809,3,8.809,3" transform="translate(18.413 13.656)" fill="#26b559"/>
    </g>
  </g>
</svg>
