<svg xmlns="http://www.w3.org/2000/svg" width="235.877" height="280.265" viewBox="0 0 235.877 280.265">
  <g id="グループ_4601" data-name="グループ 4601" transform="translate(-421.45 -5117.279)">
    <path id="パス_737" data-name="パス 737" d="M231.911,178.425a20.034,20.034,0,0,1-13.187-10.255c-2.857-5.709-2.794-12.882.177-20.2l5.251-12.93c2.12-5.222,2.053-9.818-.189-12.941s-6.584-4.66-12.2-4.321l-13.931.836c-9.116.545-16.81-2.575-21.107-8.561s-4.789-14.273-1.352-22.735l5.25-12.931c2.12-5.222,2.053-9.818-.188-12.94s-6.575-4.663-12.2-4.32l-13.93.833L153.7,47.768l13.931-.834c9.116-.55,16.809,2.572,21.1,8.559s4.79,14.274,1.354,22.736l-5.25,12.931c-2.121,5.221-2.053,9.817.188,12.94s6.586,4.666,12.2,4.321l13.931-.835c9.1-.553,16.809,2.574,21.106,8.56s4.79,14.274,1.353,22.737l-5.25,12.929c-1.85,4.558-2.029,8.743-.506,11.788a9.869,9.869,0,0,0,6.653,4.95Z" transform="translate(421.45 5089.001)" fill="#fff"/>
    <path id="パス_738" data-name="パス 738" d="M223.238,159.831a20.034,20.034,0,0,1-13.187-10.255c-2.855-5.71-2.793-12.884.178-20.2l5.251-12.93c2.12-5.222,2.053-9.818-.188-12.941s-6.581-4.665-12.2-4.321l-13.931.836c-9.128.554-16.809-2.576-21.1-8.561s-4.791-14.274-1.354-22.736l5.25-12.93c2.121-5.222,2.053-9.818-.188-12.94s-6.569-4.664-12.2-4.32l-13.931.833-.611-10.193,13.931-.834c9.129-.551,16.809,2.573,21.105,8.559s4.791,14.274,1.354,22.737l-5.25,12.929c-2.12,5.222-2.053,9.818.188,12.94s6.577,4.668,12.2,4.322l13.93-.835c9.1-.549,16.809,2.574,21.106,8.561s4.79,14.273,1.354,22.736l-5.251,12.929c-1.851,4.558-2.03,8.743-.507,11.788a9.869,9.869,0,0,0,6.653,4.95Z" transform="translate(421.45 5089.001)" fill="#fccf00"/>
    <path id="パス_753" data-name="パス 753" d="M70.532,190.208a20.849,20.849,0,1,1,9.764-27.82,20.873,20.873,0,0,1-9.764,27.82M55.24,158.375a14.466,14.466,0,1,0,19.3,6.776,14.483,14.483,0,0,0-19.3-6.776" transform="translate(421.45 5089.001)" fill="#fccf00"/>
    <path id="パス_754" data-name="パス 754" d="M199.238,245.711l-53.278.952,5.738-59.106-45.232-16.814-11.1-40.017L9.424,135.247l-.4-7.648,92.075-4.844,11.7,42.172,47.091,17.506-5.477,56.419,44.69-.8Z" transform="translate(421.45 5089.001)" fill="#fff"/>
    <path id="パス_755" data-name="パス 755" d="M190.218,239.836l-53.278.952,5.736-59.106L97.445,164.869l-11.1-40.017L.4,129.372,0,121.724l92.076-4.843,11.7,42.172,47.09,17.5-5.475,56.42,44.69-.8Z" transform="translate(421.45 5089.001)" fill="#ef8200"/>
    <path id="パス_756" data-name="パス 756" d="M143.784,272.938c-.226.017-22.875,1.869-44.294,10.658-23.206,9.523-41.17,9.159-41.924,9.138l.274-10.208-.137,5.1.127-5.1c.164,0,16.7.274,37.783-8.377,22.955-9.42,46.4-11.315,47.383-11.392Z" transform="translate(421.45 5089.001)" fill="#fccf00"/>
    <path id="パス_757" data-name="パス 757" d="M166.192,288.74c-.227.017-22.877,1.868-44.295,10.659-23.205,9.522-41.169,9.158-41.923,9.137l.264-10.208c.164,0,16.7.275,37.782-8.376,22.954-9.421,46.4-11.317,47.385-11.395Z" transform="translate(421.45 5089.001)" fill="#fff"/>
  </g>
</svg>
