<svg id="グループ_1467" data-name="グループ 1467" xmlns="http://www.w3.org/2000/svg" xmlns:xlink="http://www.w3.org/1999/xlink" width="132.053" height="168.862" viewBox="0 0 132.053 168.862">
  <defs>
    <clipPath id="clip-path">
      <rect id="長方形_2634" data-name="長方形 2634" width="132.053" height="168.862" fill="none"/>
    </clipPath>
  </defs>
  <g id="グループ_1466" data-name="グループ 1466" transform="translate(0 0)" clip-path="url(#clip-path)">
    <path id="パス_1646" data-name="パス 1646" d="M119.23,44.8a2.872,2.872,0,0,1-3.3,1.567,4.721,4.721,0,0,0-3.873.524c-1.334.92-2.218,2.727-2.495,5.092l-.814,6.957c-.545,4.66-2.827,8.275-6.262,9.918S94.81,70,90.841,67.5l-5.927-3.734c-2.3-1.449-4.474-1.814-6.116-1.029s-2.72,2.707-3.037,5.406L74.948,75.1c-.548,4.659-2.829,8.275-6.262,9.917s-7.68,1.151-11.65-1.349l-5.927-3.734c-2.013-1.269-3.977-1.714-5.53-1.254a4.747,4.747,0,0,0-2.839,2.686l0,.009a2.87,2.87,0,0,1-5.2-2.42l.02-.041a10.345,10.345,0,0,1,6.4-5.736c3.159-.934,6.787-.259,10.217,1.9l5.927,3.734c2.3,1.449,4.473,1.815,6.116,1.029s2.719-2.707,3.037-5.407l.814-6.957c.545-4.659,2.829-8.275,6.259-9.917S84,56.413,87.972,58.913L93.9,62.646c2.3,1.449,4.472,1.814,6.115,1.029s2.723-2.706,3.037-5.407l.814-6.957c.471-4.027,2.222-7.275,4.932-9.145a10.357,10.357,0,0,1,8.53-1.372,2.87,2.87,0,0,1,2.087,3.48,2.9,2.9,0,0,1-.184.521" transform="translate(12.551 13.619)" fill="#fff"/>
    <path id="パス_1647" data-name="パス 1647" d="M118.764,36.195a2.873,2.873,0,0,1-3.3,1.567,4.722,4.722,0,0,0-3.871.523c-1.333.921-2.219,2.728-2.5,5.093l-.814,6.957c-.544,4.657-2.827,8.275-6.26,9.918s-7.68,1.15-11.65-1.35l-5.927-3.734c-2.3-1.449-4.474-1.814-6.116-1.029s-2.722,2.707-3.037,5.406L74.482,66.5c-.548,4.659-2.829,8.275-6.263,9.918s-7.68,1.15-11.649-1.352l-5.927-3.734c-2.013-1.267-3.977-1.712-5.53-1.253a4.718,4.718,0,0,0-2.829,2.663.221.221,0,0,0-.015.032,2.87,2.87,0,0,1-5.2-2.42l.02-.041a10.345,10.345,0,0,1,6.4-5.736c3.159-.936,6.787-.261,10.217,1.9l5.927,3.732c2.3,1.45,4.473,1.817,6.115,1.031s2.72-2.707,3.039-5.407l.814-6.957c.544-4.66,2.827-8.276,6.259-9.917s7.68-1.151,11.652,1.349l5.927,3.734c2.3,1.449,4.473,1.815,6.115,1.029s2.722-2.706,3.037-5.406l.814-6.958c.471-4.026,2.223-7.275,4.934-9.148a10.357,10.357,0,0,1,8.528-1.369,2.871,2.871,0,0,1,2.087,3.481,2.924,2.924,0,0,1-.184.52" transform="translate(12.394 10.722)" fill="#82cbd1"/>
    <path id="パス_1648" data-name="パス 1648" d="M14.557,70.688a2.871,2.871,0,0,1,2.2-2.909,4.722,4.722,0,0,0,3.2-2.249c.761-1.43.711-3.442-.13-5.669l-2.482-6.55c-1.662-4.386-1.3-8.645.991-11.685s6.288-4.557,10.963-4.167l6.981.584c2.71.227,4.807-.449,5.9-1.9s1.168-3.655.2-6.2l-2.48-6.55c-1.66-4.387-1.3-8.648.989-11.686S47.186,7.148,51.862,7.54l6.98.584c2.372.2,4.321-.31,5.486-1.434A4.745,4.745,0,0,0,65.613,3V2.989a2.869,2.869,0,0,1,5.732-.249v.045a10.343,10.343,0,0,1-3.039,8.04c-2.374,2.285-5.9,3.355-9.943,3.017l-6.981-.584c-2.711-.227-4.807.449-5.9,1.9s-1.168,3.656-.206,6.2l2.48,6.55c1.662,4.387,1.3,8.648-.989,11.685S40.476,44.154,35.8,43.762l-6.981-.584c-2.708-.226-4.8.449-5.9,1.9s-1.174,3.655-.206,6.2l2.48,6.55c1.436,3.791,1.377,7.481-.166,10.39a10.37,10.37,0,0,1-6.939,5.145,2.871,2.871,0,0,1-3.456-2.128,2.8,2.8,0,0,1-.076-.548" transform="translate(4.902 0)" fill="#fff"/>
    <path id="パス_1649" data-name="パス 1649" d="M18.931,78.107A2.872,2.872,0,0,1,21.136,75.2a4.722,4.722,0,0,0,3.194-2.247c.761-1.43.714-3.444-.13-5.671l-2.48-6.55c-1.662-4.385-1.3-8.645.989-11.685S29,44.488,33.673,44.878l6.982.584c2.71.227,4.806-.449,5.9-1.9s1.17-3.655.206-6.2l-2.481-6.55c-1.66-4.387-1.3-8.648.991-11.688s6.288-4.557,10.963-4.164l6.98.584c2.373.2,4.321-.311,5.486-1.436a4.715,4.715,0,0,0,1.286-3.666v-.035a2.869,2.869,0,0,1,5.732-.249l0,.045a10.35,10.35,0,0,1-3.04,8.04c-2.374,2.285-5.9,3.357-9.945,3.019l-6.981-.584c-2.71-.227-4.807.448-5.9,1.9s-1.17,3.656-.207,6.2l2.481,6.55c1.662,4.387,1.3,8.648-.991,11.685s-6.288,4.559-10.962,4.167L33.2,50.6c-2.711-.226-4.807.449-5.9,1.9s-1.168,3.655-.206,6.2l2.481,6.55C31,69.04,30.945,72.731,29.4,75.641a10.359,10.359,0,0,1-6.939,5.143,2.871,2.871,0,0,1-3.456-2.13,3.106,3.106,0,0,1-.075-.547" transform="translate(6.375 2.499)" fill="#7d4697"/>
    <path id="パス_1650" data-name="パス 1650" d="M45.466,139.955a4.305,4.305,0,0,1-1.282-8.3c.17-.067,13.216-5.357,18.744-16.45,5.893-11.827,5.044-24.67,5.034-24.8a4.3,4.3,0,0,1,8.585-.644c.045.616,1.068,15.268-5.914,29.28-7.04,14.128-22.642,20.365-23.3,20.623a4.282,4.282,0,0,1-1.865.287" transform="translate(13.963 28.896)" fill="#fff"/>
    <path id="パス_1651" data-name="パス 1651" d="M57.951,135.018a4.305,4.305,0,0,1-1.282-8.3c.17-.067,13.216-5.357,18.744-16.45,5.893-11.827,5.044-24.668,5.034-24.8a4.3,4.3,0,0,1,8.585-.643c.045.616,1.068,15.266-5.914,29.279-7.04,14.127-22.642,20.365-23.3,20.623a4.282,4.282,0,0,1-1.865.287" transform="translate(18.169 27.233)" fill="#e8546b"/>
    <path id="パス_1652" data-name="パス 1652" d="M7.369,34.228s7.655-3.105,10.232-6.071c1.969-2.265,2.06-5.953-.709-7.762-3.643-2.378-6.946,1.06-6.946,1.06s-1.712-4.45-5.992-3.671C.7,18.379-.646,21.813.292,24.666c1.226,3.731,7.077,9.562,7.077,9.562" transform="translate(0 5.959)" fill="#26b559"/>
  </g>
</svg>
