<svg xmlns="http://www.w3.org/2000/svg" width="172.948" height="209.71" viewBox="0 0 172.948 209.71">
  <g id="グループ_4594" data-name="グループ 4594" transform="translate(0 0)">
    <path id="パス_769" data-name="パス 769" d="M5.3,204.746a3,3,0,0,1,3.562-1.366,4.943,4.943,0,0,0,4.08-.234c1.464-.85,2.532-2.663,3.012-5.1l1.412-7.186c.944-4.813,3.615-8.4,7.328-9.831s8.1-.577,12.033,2.35l5.877,4.371c2.281,1.7,4.516,2.253,6.291,1.567s3.054-2.6,3.6-5.39l1.41-7.186c.948-4.812,3.618-8.4,7.328-9.831s8.1-.578,12.035,2.349l5.877,4.371c2,1.485,4.006,2.108,5.663,1.754a4.959,4.959,0,0,0,3.176-2.569l0-.009a3,3,0,0,1,5.229,2.943l-.024.041a10.815,10.815,0,0,1-7.134,5.462c-3.369.719-7.1-.279-10.5-2.808l-5.876-4.37c-2.281-1.7-4.517-2.253-6.292-1.568s-3.054,2.6-3.6,5.391l-1.411,7.186c-.946,4.812-3.618,8.4-7.327,9.83s-8.1.578-12.035-2.349l-5.877-4.371c-2.28-1.7-4.515-2.252-6.29-1.567s-3.058,2.6-3.6,5.39L21.837,199.2c-.816,4.16-2.9,7.4-5.88,9.135a10.829,10.829,0,0,1-9,.74,3,3,0,0,1-1.895-3.8,3.1,3.1,0,0,1,.235-.528" fill="#fff"/>
    <path id="パス_770" data-name="パス 770" d="M11.528,196.575a3,3,0,0,1,3.563-1.366,4.935,4.935,0,0,0,4.077-.233c1.464-.851,2.534-2.663,3.014-5.107l1.412-7.185c.943-4.81,3.616-8.4,7.327-9.83s8.1-.578,12.034,2.349l5.877,4.371c2.281,1.7,4.516,2.253,6.291,1.567s3.055-2.6,3.6-5.39l1.41-7.186c.948-4.812,3.618-8.4,7.33-9.831s8.1-.577,12.033,2.35l5.876,4.371c2,1.484,4.008,2.108,5.664,1.753a4.924,4.924,0,0,0,3.163-2.546.3.3,0,0,0,.019-.033,3,3,0,0,1,5.228,2.944c-.008.013-.016.028-.023.042a10.82,10.82,0,0,1-7.135,5.461c-3.368.719-7.1-.276-10.5-2.806L75.918,165.9c-2.282-1.7-4.515-2.253-6.291-1.567s-3.054,2.6-3.6,5.389l-1.411,7.186c-.945,4.813-3.617,8.4-7.327,9.831s-8.1.577-12.035-2.35l-5.876-4.371c-2.282-1.7-4.516-2.253-6.292-1.567s-3.055,2.6-3.6,5.39l-1.411,7.186c-.815,4.16-2.905,7.4-5.882,9.136a10.827,10.827,0,0,1-9,.737,3,3,0,0,1-1.893-3.8,3.048,3.048,0,0,1,.234-.527" fill="#82cbd1"/>
    <path id="パス_771" data-name="パス 771" d="M79.274,140.549a3,3,0,0,1-3.26-1.983,4.932,4.932,0,0,0-2.679-3.085c-1.569-.639-3.656-.375-5.882.738L60.9,139.5c-4.386,2.2-8.854,2.274-12.26.214s-5.409-6.055-5.5-10.958l-.135-7.323c-.053-2.843-.979-4.951-2.607-5.936s-3.926-.826-6.468.445l-6.549,3.279c-4.386,2.193-8.855,2.272-12.259.213s-5.41-6.054-5.5-10.959l-.135-7.322c-.046-2.487-.783-4.459-2.076-5.553a4.961,4.961,0,0,0-3.975-.943l-.011,0a3,3,0,0,1-.868-5.937l.047-.007a10.819,10.819,0,0,1,8.685,2.306c2.628,2.226,4.118,5.784,4.2,10.021l.135,7.322c.053,2.842.979,4.951,2.607,5.937s3.926.826,6.469-.446l6.549-3.278c4.385-2.194,8.856-2.272,12.258-.214s5.41,6.054,5.5,10.959l.135,7.323c.053,2.842.979,4.949,2.607,5.935s3.927.83,6.468-.445l6.549-3.277c3.79-1.9,7.634-2.23,10.823-.933a10.827,10.827,0,0,1,6.09,6.669,3,3,0,0,1-1.846,3.821,3.059,3.059,0,0,1-.561.137" fill="#fff"/>
    <path id="パス_772" data-name="パス 772" d="M88.967,133.412a3,3,0,0,1-3.26-1.984,4.931,4.931,0,0,0-2.677-3.083c-1.569-.638-3.658-.376-5.884.738L70.6,132.36c-4.383,2.195-8.853,2.273-12.258.214s-5.41-6.054-5.5-10.958l-.135-7.323c-.053-2.843-.979-4.951-2.607-5.936s-3.927-.827-6.468.445l-6.549,3.279c-4.386,2.193-8.856,2.272-12.26.212s-5.409-6.054-5.5-10.958l-.135-7.322c-.047-2.487-.784-4.459-2.077-5.553a4.925,4.925,0,0,0-3.949-.946.333.333,0,0,0-.037,0,3,3,0,0,1-.868-5.937l.047-.007a10.82,10.82,0,0,1,8.685,2.306c2.628,2.225,4.119,5.783,4.2,10.021l.136,7.322c.053,2.843.978,4.951,2.606,5.937s3.926.825,6.469-.446l6.549-3.278c4.385-2.195,8.855-2.273,12.258-.214s5.41,6.054,5.5,10.959l.135,7.323c.053,2.843.979,4.95,2.607,5.936s3.927.827,6.468-.446l6.549-3.277c3.79-1.9,7.634-2.229,10.826-.933a10.829,10.829,0,0,1,6.087,6.67,3,3,0,0,1-1.847,3.82,3.049,3.049,0,0,1-.56.137" fill="#7d4697"/>
    <path id="パス_773" data-name="パス 773" d="M57.088,37.58a3.5,3.5,0,0,1-1.524-4.591c.383-.805,9.612-19.829,31.012-28.319a69.057,69.057,0,0,1,37.537-3.519,3.5,3.5,0,0,1-1.56,6.825,63.036,63.036,0,0,0-33.4,3.2C70.391,18.622,61.968,35.824,61.885,36a3.5,3.5,0,0,1-4.664,1.649c-.045-.021-.09-.043-.133-.066" fill="#fff"/>
    <path id="パス_774" data-name="パス 774" d="M75.765,38.413a3.5,3.5,0,0,1-1.524-4.59c.383-.806,9.612-19.83,31.012-28.32a69.048,69.048,0,0,1,37.536-3.518,3.5,3.5,0,1,1-1.56,6.824,63.042,63.042,0,0,0-33.4,3.2C89.068,19.455,80.645,36.657,80.562,36.83A3.5,3.5,0,0,1,75.9,38.479c-.045-.021-.09-.043-.133-.066" fill="#ed848c"/>
    <path id="パス_775" data-name="パス 775" d="M96,88.183s3.576-5.461,3.918-8.546a4.066,4.066,0,0,0-3.952-4.724c-3.435.093-4.036,3.812-4.036,3.812s-3.114-2.121-5.543.31a4.066,4.066,0,0,0,.714,6.118c2.475,1.873,8.9,3.03,8.9,3.03" fill="#26b559"/>
    <path id="パス_776" data-name="パス 776" d="M160.756,73.795s8-3.247,10.7-6.346c2.059-2.369,2.154-6.224-.741-8.115-3.807-2.486-7.262,1.108-7.262,1.108s-1.79-4.653-6.263-3.837c-3.4.62-4.81,4.211-3.83,7.193,1.282,3.9,7.4,10,7.4,10" fill="#26b559"/>
  </g>
</svg>
