<svg xmlns="http://www.w3.org/2000/svg" width="162.942" height="216.873" viewBox="0 0 162.942 216.873">
  <g id="グループ_4593" data-name="グループ 4593" transform="translate(-415.853 -766.317)">
    <path id="パス_709" data-name="パス 709" d="M36.338,405.211c-6.561.716-20.772,5.291-27.647,8.9L3.018,403.3c7.489-3.93,23.1-9.252,32-10.224Z" transform="translate(415.853 439.503)" fill="#0068b6"/>
    <path id="パス_710" data-name="パス 710" d="M33.32,403c-6.561.716-20.772,5.291-27.647,8.9L0,401.085c7.489-3.93,23.1-9.252,32-10.224Z" transform="translate(415.853 439.503)" fill="#fccf00"/>
    <path id="パス_711" data-name="パス 711" d="M162.942,484.755l-24.817,23.253L84.019,488.519l15.49,53.719-5.027,1.449L76.154,480.125,136.885,502l22.479-21.064Z" transform="translate(415.853 439.503)" fill="#0068b6"/>
    <path id="パス_712" data-name="パス 712" d="M159.588,481.945,134.77,505.2l-54.1-19.488,15.49,53.718-5.028,1.45L72.8,477.316l60.73,21.875,22.48-21.064Z" transform="translate(415.853 439.503)" fill="#e8546b"/>
    <path id="パス_714" data-name="パス 714" d="M96.031,407.1a13.517,13.517,0,0,1-9.463-6.135c-2.245-3.648-2.638-8.4-1.106-13.384l2.521-8.2c.877-2.856.669-5.322-.571-6.765s-3.647-2.019-6.6-1.58l-8.491,1.261c-5.98.888-11.263-.76-14.5-4.521s-4.068-9.232-2.293-15.009l2.522-8.2c.783-2.551.714-4.771-.2-6.252a4.831,4.831,0,0,0-3.508-2.112l1.471-8.593a13.517,13.517,0,0,1,9.463,6.136c2.244,3.647,2.637,8.4,1.106,13.382l-2.522,8.2c-.877,2.856-.669,5.321.571,6.764s3.646,2.019,6.6,1.58l8.489-1.261c5.979-.887,11.262.76,14.5,4.52s4.069,9.233,2.293,15.011l-2.521,8.2c-.783,2.552-.714,4.772.2,6.253A4.833,4.833,0,0,0,97.5,398.5Z" transform="translate(415.853 439.503)" fill="#0068b6"/>
    <path id="パス_715" data-name="パス 715" d="M91.847,406.313a13.525,13.525,0,0,1-9.463-6.136c-2.243-3.647-2.637-8.4-1.105-13.382l2.521-8.2c.877-2.857.67-5.323-.57-6.765s-3.647-2.019-6.6-1.581l-8.49,1.261c-5.979.888-11.262-.76-14.5-4.52s-4.069-9.232-2.293-15.01l2.521-8.205c.784-2.551.714-4.772-.2-6.253a4.825,4.825,0,0,0-3.508-2.11l1.47-8.594a13.518,13.518,0,0,1,9.464,6.135c2.244,3.647,2.637,8.4,1.106,13.383l-2.521,8.2c-.877,2.856-.67,5.322.57,6.765s3.647,2.019,6.6,1.579l8.49-1.261c5.98-.887,11.263.761,14.5,4.522s4.068,9.232,2.293,15.009l-2.522,8.2c-.783,2.551-.714,4.771.2,6.252a4.83,4.83,0,0,0,3.509,2.111Z" transform="translate(415.853 439.503)" fill="#33b495"/>
    <rect id="長方形_397" data-name="長方形 397" width="34.336" height="6.094" transform="translate(444.589 923.284) rotate(-30.951)" fill="#7dccf3"/>
    <rect id="長方形_398" data-name="長方形 398" width="6.094" height="34.336" transform="translate(449.438 903.91) rotate(-30.951)" fill="#7dccf3"/>
  </g>
</svg>
