<svg xmlns="http://www.w3.org/2000/svg" xmlns:xlink="http://www.w3.org/1999/xlink" width="154.151" height="229.538" viewBox="0 0 154.151 229.538">
  <defs>
    <clipPath id="clip-path">
      <rect id="長方形_2623" data-name="長方形 2623" width="154.151" height="229.538" fill="none"/>
    </clipPath>
  </defs>
  <g id="グループ_1459" data-name="グループ 1459" transform="translate(0 0)">
    <g id="グループ_1455" data-name="グループ 1455" transform="translate(0 0)" clip-path="url(#clip-path)">
      <path id="パス_1613" data-name="パス 1613" d="M1.756.676A13.3,13.3,0,0,1,12.784,1.849c3.608,2.22,6.083,6.289,6.968,11.456l1.562,9.131c.631,3.688,2.277,6.258,4.633,7.236s5.346.325,8.4-1.832L41.908,22.5c4.952-3.5,10.386-4.428,14.9-2.555s7.695,6.377,8.717,12.355l1.562,9.131c.631,3.688,2.277,6.258,4.634,7.234s5.341.332,8.394-1.83l7.568-5.346L91.6,47.022l-7.568,5.344c-4.951,3.5-10.384,4.43-14.9,2.557s-7.7-6.377-8.719-12.355l-1.564-9.131c-.629-3.688-2.275-6.256-4.633-7.236s-5.349-.326-8.394,1.832l-7.568,5.346c-4.944,3.5-10.384,4.428-14.9,2.555s-7.7-6.377-8.719-12.355l-1.562-9.131c-.552-3.218-1.914-5.643-3.839-6.827a6.55,6.55,0,0,0-5.485-.466Z" transform="translate(1.261 0)" fill="#fff"/>
      <path id="パス_1614" data-name="パス 1614" d="M8.39,5.015A13.3,13.3,0,0,1,19.418,6.187c3.608,2.222,6.083,6.291,6.966,11.458l1.562,9.133c.631,3.688,2.277,6.256,4.634,7.234s5.344.33,8.394-1.83l7.568-5.346c4.956-3.507,10.384-4.428,14.9-2.555s7.7,6.377,8.719,12.353l1.562,9.131C74.357,49.454,76,52.023,78.359,53s5.339.333,8.394-1.832l7.569-5.344,3.911,5.536-7.568,5.346c-4.959,3.5-10.384,4.43-14.9,2.555s-7.7-6.377-8.719-12.353l-1.562-9.133c-.631-3.688-2.277-6.256-4.633-7.234s-5.344-.332-8.4,1.83l-7.568,5.346c-4.94,3.493-10.384,4.43-14.9,2.555s-7.7-6.377-8.719-12.353L19.7,18.787c-.552-3.218-1.914-5.643-3.839-6.827a6.55,6.55,0,0,0-5.485-.466Z" transform="translate(6.027 3.116)" fill="#fccf00"/>
      <path id="パス_1615" data-name="パス 1615" d="M71.186,147.838l-21.879-24.77,20.472-52L17.156,84.581l-1.265-4.925L78.157,63.665,55.176,122.033,75,144.471Z" transform="translate(11.415 45.733)" fill="#fff"/>
      <path id="パス_1616" data-name="パス 1616" d="M70.666,143.259l-21.881-24.77,20.474-52L16.637,80l-1.265-4.925L77.638,59.087l-22.981,58.37,19.821,22.436Z" transform="translate(11.042 42.444)" fill="#f5aa00"/>
      <path id="パス_1617" data-name="パス 1617" d="M33.032,135.372a9.291,9.291,0,1,1,12.533-3.945,9.3,9.3,0,0,1-12.533,3.945m7.339-14.082a6.588,6.588,0,1,0,2.8,8.887,6.6,6.6,0,0,0-2.8-8.887" transform="translate(20.139 84.65)" fill="#fccf00"/>
      <path id="パス_1618" data-name="パス 1618" d="M64.976,147.86l-3.614-34.153,31.385,13.948Zm2.37-25.931,1.761,16.639,13.528-9.844Z" transform="translate(44.078 81.678)" fill="#ef8200"/>
      <path id="パス_1619" data-name="パス 1619" d="M96.709,106.839l-16.742,1.73L86.84,93.2ZM84,105.646l8.157-.842-4.808-6.643Z" transform="translate(57.443 66.951)" fill="#7d4697"/>
      <path id="パス_1620" data-name="パス 1620" d="M0,70.406,2.387,54.513,18.28,56.9,15.895,72.793Zm4.523-13L2.892,68.27,13.759,69.9l1.629-10.865Z" transform="translate(0 39.158)" fill="#7d4697"/>
    </g>
  </g>
</svg>
