<svg xmlns="http://www.w3.org/2000/svg" width="241.944" height="290.974" viewBox="0 0 241.944 290.974">
  <g id="グループ_4594" data-name="グループ 4594" transform="translate(-1414.534 -880.804)">
    <path id="パス_33" data-name="パス 33" d="M1274.558,98.466l-3.488-4.883L1313.4,63.348l-19.116-20.487,4.387-4.094,23.782,25.489Z" transform="translate(243 880.804)" fill="#0068b6"/>
    <path id="パス_35" data-name="パス 35" d="M1321.227,98.577l-6.445-4.74a125.887,125.887,0,0,1,30.373-29.929l4.523,6.6a118.035,118.035,0,0,0-28.451,28.071" transform="translate(243 880.804)" fill="#0068b6"/>
    <rect id="長方形_44" data-name="長方形 44" width="6.988" height="39.379" transform="matrix(0.548, -0.837, 0.837, 0.548, 1575.404, 1145.53)" fill="#7d4697"/>
    <rect id="長方形_45" data-name="長方形 45" width="39.379" height="6.988" transform="matrix(0.548, -0.837, 0.837, 0.548, 1580.085, 1167.95)" fill="#7d4697"/>
    <path id="パス_34" data-name="パス 34" d="M1276.525,94.816l-3.488-4.883L1315.365,59.7,1296.25,39.211l4.386-4.094,23.782,25.489Z" transform="translate(243 880.804)" fill="#e8546b"/>
    <path id="パス_36" data-name="パス 36" d="M1322.147,94.745,1315.7,90a125.869,125.869,0,0,1,30.373-29.929l4.523,6.6a118.036,118.036,0,0,0-28.451,28.071" transform="translate(243 880.804)" fill="#fccf00"/>
    <path id="パス_41" data-name="パス 41" d="M1210.942,47.462,1171.534,20.8l42.8-20.8ZM1183.5,21.651,1205.7,36.669l1.909-26.73Z" transform="translate(243 880.804)" fill="#f5aa00"/>
    <path id="パス_44" data-name="パス 44" d="M1410.814,265.628a15.5,15.5,0,0,1-11.862-5.159c-3.227-3.7-4.566-9-3.773-14.931l1.306-9.756c.455-3.4-.245-6.146-1.92-7.545s-4.506-1.6-7.767-.543l-9.367,3.027c-6.6,2.133-12.884,1.262-17.249-2.382s-6.343-9.678-5.424-16.549l1.306-9.756c.406-3.034-.091-5.533-1.4-7.037a5.539,5.539,0,0,0-4.368-1.726l.045-10a15.509,15.509,0,0,1,11.863,5.158c3.226,3.7,4.565,9.007,3.772,14.932l-1.306,9.755c-.455,3.4.246,6.148,1.92,7.546s4.505,1.6,7.767.543l9.367-3.026c6.6-2.132,12.884-1.263,17.25,2.382s6.342,9.676,5.423,16.547l-1.306,9.757c-.406,3.035.091,5.533,1.4,7.035a5.538,5.538,0,0,0,4.367,1.728Z" transform="translate(243 880.804)" fill="#0068b6"/>
    <path id="パス_45" data-name="パス 45" d="M1413.432,261.762a15.5,15.5,0,0,1-11.86-5.158c-3.228-3.7-4.567-9.005-3.775-14.931l1.307-9.757c.454-3.4-.245-6.146-1.92-7.545s-4.507-1.6-7.767-.543l-9.366,3.027c-6.6,2.132-12.884,1.262-17.25-2.383s-6.343-9.677-5.425-16.548l1.307-9.757c.406-3.034-.091-5.533-1.4-7.036a5.533,5.533,0,0,0-4.365-1.726l.042-10a15.513,15.513,0,0,1,11.864,5.157c3.225,3.7,4.566,9.006,3.772,14.932l-1.307,9.757c-.455,3.4.245,6.147,1.921,7.545s4.505,1.6,7.767.543l9.367-3.026c6.595-2.131,12.885-1.263,17.251,2.383s6.342,9.676,5.422,16.547L1407.709,243c-.406,3.034.093,5.533,1.4,7.036a5.535,5.535,0,0,0,4.367,1.727Z" transform="translate(243 880.804)" fill="#33b495"/>
    <path id="パス_46" data-name="パス 46" d="M1382.2,144.873l-18.687-3.251,3.251-18.686,18.687,3.251Zm-15.216-5.692,12.774,2.222,2.222-12.775-12.774-2.221Z" transform="translate(243 880.804)" fill="#7dccf3"/>
  </g>
</svg>
