<svg xmlns="http://www.w3.org/2000/svg" xmlns:xlink="http://www.w3.org/1999/xlink" width="177.524" height="192.445" viewBox="0 0 177.524 192.445">
  <defs>
    <clipPath id="clip-path">
      <rect id="長方形_2632" data-name="長方形 2632" width="150.484" height="168.879" fill="none"/>
    </clipPath>
  </defs>
  <g id="グループ_1462" data-name="グループ 1462" transform="matrix(0.985, 0.174, -0.174, 0.985, 29.326, 0)">
    <g id="グループ_1462-2" data-name="グループ 1462" clip-path="url(#clip-path)">
      <path id="パス_1633" data-name="パス 1633" d="M36.069,48.676a3.35,3.35,0,0,1-.781-.092c-.852-.2-20.966-5.034-28.981-11.822A17.759,17.759,0,0,1,0,23.689,14.912,14.912,0,0,1,5.043,12.226c6.094-5.464,13.176-4.533,18.013-2.417,2.321-4.74,7.124-10.047,15.3-9.8A14.918,14.918,0,0,1,49.618,5.5a17.765,17.765,0,0,1,3.639,14.051C51.53,29.907,39.308,46.6,38.789,47.3a3.379,3.379,0,0,1-2.72,1.374M15.541,14.907a8.74,8.74,0,0,0-5.989,2.348,8.149,8.149,0,0,0-2.8,6.34,10.916,10.916,0,0,0,3.918,8.012c5,4.232,17.476,8.134,23.988,9.855,3.858-5.527,10.858-16.575,11.934-23.026A10.92,10.92,0,0,0,44.4,9.789a8.154,8.154,0,0,0-6.232-3.029c-7.869-.208-9.934,8.336-10.018,8.7a3.387,3.387,0,0,1-5.347,1.945,13.468,13.468,0,0,0-7.265-2.5" transform="translate(63.06 -0.001)" fill="#ed848c"/>
      <path id="パス_1634" data-name="パス 1634" d="M13.842,35.786s16.888-5.33,22.9-11.224c4.6-4.5,5.419-12.371-.188-16.709C29.18,2.148,21.532,8.93,21.532,8.93S18.633-.872,9.356.063C2.3.775-1.164,7.885.351,14.14c1.984,8.185,13.491,21.646,13.491,21.646" transform="translate(0 24.496)" fill="#e52d8a"/>
      <path id="パス_1635" data-name="パス 1635" d="M19.969,38.388a2.958,2.958,0,0,1-1.866-.663c-.545-.445-13.406-10.97-16.844-18.71A14.474,14.474,0,0,1,1.268,7.188,12.192,12.192,0,0,1,9.052.544c6.3-1.815,11.11,1.228,13.931,4.431,3.394-2.587,8.7-4.629,14.528-1.614a12.191,12.191,0,0,1,6.331,8.04A14.47,14.47,0,0,1,41.533,23c-4.888,6.916-19.562,14.716-20.184,15.046a2.956,2.956,0,0,1-1.38.342M12.77,5.918a7.459,7.459,0,0,0-2.08.306A6.277,6.277,0,0,0,6.625,9.683a8.485,8.485,0,0,0,.036,6.933c2.088,4.7,9.55,11.722,13.66,15.255,4.724-2.663,13.423-8.089,16.387-12.282A8.489,8.489,0,0,0,38.1,12.8a6.276,6.276,0,0,0-3.308-4.19c-5.326-2.762-9.484,2.146-9.94,2.715a2.965,2.965,0,0,1-4.953-.5c-.286-.551-2.692-4.9-7.128-4.9" transform="translate(106.267 53.385)" fill="#e8546b"/>
      <path id="パス_1636" data-name="パス 1636" d="M12.989,19.282a1.255,1.255,0,0,1-.488-.1c-.327-.136-8.043-3.391-10.789-6.621A7.1,7.1,0,0,1,.071,6.994,5.957,5.957,0,0,1,2.8,2.806a6.52,6.52,0,0,1,7.347.276A6.527,6.527,0,0,1,16.878.126a5.955,5.955,0,0,1,4.076,2.892A7.1,7.1,0,0,1,21.475,8.8c-1.368,4.013-7.348,9.875-7.6,10.121a1.265,1.265,0,0,1-.885.361M6.178,4.33a3.693,3.693,0,0,0-2.016.612A3.411,3.411,0,0,0,2.576,7.369a4.535,4.535,0,0,0,1.064,3.552C5.388,12.975,10.217,15.4,12.7,16.51c1.9-1.946,5.5-5.974,6.374-8.528a4.537,4.537,0,0,0-.315-3.693A3.412,3.412,0,0,0,16.4,2.613c-3.268-.636-4.645,2.738-4.7,2.882a1.266,1.266,0,0,1-2.1.4A5.287,5.287,0,0,0,6.178,4.33" transform="translate(120.445 149.597)" fill="#7d4697"/>
      <rect id="長方形_2630" data-name="長方形 2630" width="26.962" height="4.784" transform="matrix(0.468, -0.884, 0.884, 0.468, 95.855, 151.579)" fill="#7d4697"/>
      <rect id="長方形_2631" data-name="長方形 2631" width="4.784" height="26.962" transform="translate(91.24 136.591) rotate(-62.114)" fill="#7d4697"/>
    </g>
  </g>
</svg>
