<svg xmlns="http://www.w3.org/2000/svg" width="169.34" height="168.104" viewBox="0 0 169.34 168.104">
  <g id="グループ_4596" data-name="グループ 4596" transform="translate(-1379.51 -4006.3)">
    <path id="パス_785" data-name="パス 785" d="M1121.049,1267.274a3,3,0,0,1-3.446,1.638,4.939,4.939,0,0,0-4.049.548c-1.395.961-2.318,2.852-2.609,5.323l-.851,7.274c-.569,4.871-2.955,8.65-6.546,10.368s-8.029,1.2-12.179-1.412l-6.2-3.9c-2.406-1.515-4.676-1.9-6.393-1.076s-2.844,2.83-3.176,5.652l-.85,7.275c-.572,4.87-2.957,8.651-6.546,10.367s-8.029,1.2-12.18-1.411l-6.2-3.9c-2.1-1.326-4.158-1.791-5.782-1.31a4.961,4.961,0,0,0-2.968,2.807l-.005.01a3,3,0,0,1-5.44-2.53c.007-.014.014-.03.02-.044a10.817,10.817,0,0,1,6.691-6c3.3-.977,7.1-.271,10.682,1.987l6.2,3.9c2.405,1.515,4.676,1.9,6.393,1.076s2.844-2.83,3.176-5.653l.851-7.274c.57-4.87,2.957-8.651,6.544-10.367s8.03-1.2,12.181,1.411l6.2,3.9c2.405,1.515,4.676,1.9,6.393,1.076s2.847-2.828,3.175-5.652l.852-7.274c.491-4.21,2.322-7.605,5.156-9.562a10.833,10.833,0,0,1,8.917-1.434,3,3,0,0,1,2.182,3.639,3.05,3.05,0,0,1-.193.545" transform="translate(371.149 2764.561)" fill="#fff"/>
    <path id="パス_786" data-name="パス 786" d="M1120.4,1255.254a3,3,0,0,1-3.447,1.637,4.939,4.939,0,0,0-4.046.548c-1.394.962-2.32,2.853-2.61,5.325l-.851,7.273c-.568,4.869-2.957,8.65-6.545,10.368s-8.03,1.2-12.181-1.412l-6.2-3.9c-2.406-1.515-4.677-1.9-6.394-1.076s-2.845,2.83-3.176,5.652l-.85,7.274c-.572,4.871-2.957,8.652-6.547,10.369s-8.028,1.2-12.178-1.413l-6.2-3.9c-2.1-1.325-4.157-1.79-5.782-1.309a4.929,4.929,0,0,0-2.957,2.783.33.33,0,0,0-.015.034,3,3,0,0,1-5.441-2.53c.007-.014.014-.029.02-.044a10.817,10.817,0,0,1,6.691-6c3.3-.977,7.1-.272,10.682,1.986l6.2,3.9c2.406,1.516,4.677,1.9,6.393,1.077s2.844-2.83,3.176-5.653l.851-7.273c.57-4.872,2.956-8.652,6.544-10.368s8.031-1.2,12.182,1.411l6.2,3.9c2.406,1.516,4.677,1.9,6.393,1.076s2.845-2.829,3.176-5.652l.851-7.274c.491-4.21,2.324-7.606,5.158-9.564a10.831,10.831,0,0,1,8.915-1.431,3,3,0,0,1,2.182,3.639,3.067,3.067,0,0,1-.193.544" transform="translate(371.149 2764.561)" fill="#82cbd1"/>
    <path id="パス_787" data-name="パス 787" d="M1146.722,1399.252a4.5,4.5,0,0,1-4.33-7.638c.14-.129,10.932-10.137,12.222-23.03,1.375-13.745-4.216-25.984-4.273-26.106a4.5,4.5,0,0,1,8.153-3.812c.274.585,6.7,14.529,5.075,30.814-1.642,16.42-14.581,28.3-15.131,28.8a4.488,4.488,0,0,1-1.716.972" transform="translate(371.149 2764.561)" fill="#fff"/>
    <path id="パス_788" data-name="パス 788" d="M1160.589,1386.612a4.5,4.5,0,0,1-4.33-7.638c.14-.129,10.932-10.137,12.222-23.03,1.375-13.745-4.215-25.983-4.273-26.1a4.5,4.5,0,0,1,8.154-3.812c.273.585,6.7,14.528,5.075,30.813-1.643,16.42-14.582,28.3-15.132,28.8a4.486,4.486,0,0,1-1.716.972" transform="translate(371.149 2764.561)" fill="#e8546b"/>
    <path id="パス_789" data-name="パス 789" d="M1071.1,1409.844a2.5,2.5,0,0,1-.159-4.995c17.129-1.113,22.452-5.113,22.9-7.3.4-1.944-2.353-4.713-7-7.052-13.342-6.713-19.958-12.074-20.232-12.3a2.5,2.5,0,0,1,3.163-3.872c.063.052,6.522,5.267,19.317,11.705,9.628,4.844,10.181,9.92,9.654,12.514-1.283,6.305-10.783,10.21-27.473,11.3-.055,0-.11.005-.165.005" transform="translate(371.149 2764.561)" fill="#fff"/>
    <path id="パス_790" data-name="パス 790" d="M1081.213,1406.045a2.5,2.5,0,0,1-.16-4.995c17.129-1.113,22.452-5.113,22.9-7.3.4-1.944-2.352-4.713-7-7.052-13.34-6.712-19.956-12.074-20.231-12.3a2.5,2.5,0,0,1,3.163-3.872c.063.051,6.521,5.267,19.317,11.7,9.629,4.844,10.181,9.921,9.654,12.515-1.283,6.3-10.783,10.209-27.473,11.3-.055,0-.11.005-.165.005" transform="translate(371.149 2764.561)" fill="#7d4697"/>
    <path id="パス_791" data-name="パス 791" d="M1016.065,1259.025s8-3.247,10.7-6.346c2.059-2.369,2.153-6.224-.741-8.115-3.807-2.486-7.262,1.108-7.262,1.108s-1.79-4.652-6.263-3.837c-3.4.62-4.81,4.211-3.83,7.193,1.282,3.9,7.4,10,7.4,10" transform="translate(371.149 2764.561)" fill="#26b559"/>
  </g>
</svg>
