<svg xmlns="http://www.w3.org/2000/svg" width="201.288" height="234.159" viewBox="0 0 201.288 234.159">
  <g id="グループ_4603" data-name="グループ 4603" transform="translate(-1297.263 -6023.951)">
    <path id="パス_742" data-name="パス 742" d="M1011.938,1245.218l-36.62,33.726-78.955-29.211,22,78.828-7.378,2.059-26.024-93.274,88.621,32.789,33.171-30.551Z" transform="translate(421.45 4887.462)" fill="#f5aa00"/>
    <path id="パス_744" data-name="パス 744" d="M1077.1,1202.667l-51.322,6.509,20.025-47.7Zm-39.126-2.758,25-3.171-15.247-20.067Z" transform="translate(421.45 4887.462)" fill="#ef8200"/>
    <path id="パス_745" data-name="パス 745" d="M991.737,1136.489l3.127,25.162-23.355-9.873Zm-1.4,19.173-1.523-12.258-9.854,7.448Z" transform="translate(421.45 4887.462)" fill="#7d4697"/>
    <path id="パス_746" data-name="パス 746" d="M899.823,1370.648l-24.01-3.1,3.1-24.01,24.01,3.1Zm-19.722-6.4,16.415,2.116,2.116-16.415-16.415-2.116Z" transform="translate(421.45 4887.462)" fill="#7d4697"/>
  </g>
</svg>
