<svg xmlns="http://www.w3.org/2000/svg" viewBox="0 0 631.01 55"><g data-name="レイヤー 2"><path d="M1.01 50h630v5h-630zm9.25-47.52L16 1.69c.25 0 .75-.07.75.36s-.25.54-.54.76l.69 4.68 8.1-1 .61 5.25-7.92 1.08.54 3.75 12-1.55.61 5.29L19 21.89l1.7 11.33-5.76 1-1.69-11.58L.65 24.3 0 18.9l12.45-1.62-.54-3.71-8.78 1.15-.65-5.4 8.64-1.08zm36.57 7.85a56.54 56.54 0 013.32 6.59 22.79 22.79 0 00-4.57 2.23c-1-2.34-2.2-4.68-3.39-6.88zm20.38.58c.39.1.68.21.68.54s-.5.39-.68.39c-3 12.78-8.82 17.82-17.17 21.42a14.48 14.48 0 00-3.42-4.07c9.21-3.56 13.82-8.46 15.38-19.9zm-13-2.23a26.29 26.29 0 013 6.76 37 37 0 00-4.54 1.87 57.09 57.09 0 00-3.13-6.73zm27.33.68V4H99.9a10.78 10.78 0 002.41-.25l2.84 3.13A8.81 8.81 0 00103.86 9a61.86 61.86 0 01-4.57 8.81c3.23 2.56 8.56 7.2 10.76 9.87-1.15 1.36-3.1 3.52-4.29 4.89a49.21 49.21 0 00-9.68-10.26c-3.49 4.14-9.1 8.79-13.86 10.77a15.1 15.1 0 00-4.1-4.94A30 30 0 0089.85 21c4.11-4 5.58-7.49 7.2-11.63zm24.91-6.77a29 29 0 013.13 3.49 10.69 10.69 0 00-2.3 2.13 37 37 0 00-3.06-3.57zm3-2.59a31.89 31.89 0 013.16 3.53 8.8 8.8 0 00-2.34 2.12 25.19 25.19 0 00-3.06-3.6zM143 11.38a10.94 10.94 0 003.09-.33l3.5 2.48c-.62 1.16-3.24 6.27-3.82 7.28-3.64 6.37-7.52 10.43-15.66 13.82a25.24 25.24 0 00-3.93-4.63c3.31-1.15 11.52-4 15.08-13.35h-21.6v-5.27zM145.11 3v5.14h-20.88V3zm32.58 30.73h-6.19V17.35a65.54 65.54 0 01-10 5.11 17.53 17.53 0 00-4.32-5.15c13.75-3.88 22.35-13.67 24.55-16.48l4.78 3.78a.82.82 0 01.43.68c0 .33-.28.47-.57.47a2.19 2.19 0 01-.72-.11 70.63 70.63 0 01-8 7.38zm44.89-30.17a18.32 18.32 0 002.49-.21l4.17 3.38a6.75 6.75 0 00-1.18 1.91c-3.6 8.78-4.36 10.55-7 14.07-3.06 4.07-6.62 7-13.32 10.73a21.43 21.43 0 00-4.46-4.39c8.17-3.92 13.72-7.6 18.21-20.16h-21.87V3.56zm20.28 1.73a39.9 39.9 0 015.5 8.86 44.48 44.48 0 00-5.11 2.85 41.63 41.63 0 00-5.47-8.68zm24.22 3.78c.43.18.5.33.5.51 0 .46-.54.46-.82.46-3.42 9.94-6.09 14.15-9.83 17.42a30.52 30.52 0 01-11 6.27 20.8 20.8 0 00-4.32-4.21 29 29 0 0013.46-8.61c2.34-2.88 4.61-7.56 6.22-14.07zm-4.89-8.6A20.79 20.79 0 01265 4.36a21.88 21.88 0 00-3.53 1.87 31.7 31.7 0 00-2.56-4zm5.65-.22a26.11 26.11 0 012.8 3.89c-.5.29-2.62 1.66-3.06 1.94A24.56 24.56 0 00264.7 2zM308.26 15v6.12H277V15zm13.18-12.44c6.05 3.09 7.92 4.89 9 5.9-.86 1-1.11 1.44-3.49 4.89a36.69 36.69 0 00-9.07-5.75zm-2.95 24.87c10.26-2.12 20.38-9.07 26.78-19.37A23.1 23.1 0 00349 13a47.91 47.91 0 01-11.19 12A60.09 60.09 0 01323 33c0 .4-.18.79-.51.79s-.36-.1-.57-.5z" fill="#ff9600" data-name="object"/></g></svg>