<svg id="レイヤー_1" data-name="レイヤー 1" xmlns="http://www.w3.org/2000/svg" xmlns:xlink="http://www.w3.org/1999/xlink" viewBox="0 0 560 50"><defs><style>.cls-1{fill:#ffa000;}.cls-2{fill:url(#名称未設定グラデーション_22);}.cls-3{fill:#fff;}</style><linearGradient id="名称未設定グラデーション_22" x1="280" y1="50" x2="280" gradientUnits="userSpaceOnUse"><stop offset="0" stop-opacity="0.15"/><stop offset="0.15" stop-opacity="0.08"/><stop offset="1" stop-opacity="0"/></linearGradient></defs><title>アートボード 37</title><rect class="cls-1" width="560" height="50" rx="5"/><rect class="cls-2" width="560" height="50" rx="5"/><path class="cls-3" d="M161.81,32.28V25.79L166,26c.39,0,.78.05.78.36s-.36.39-.7.5V37.8h-4.31V36.34H146.19V37.8H141.9v-12l4.15.22c.45,0,.84,0,.84.36s-.48.45-.7.51v5.4h5.63V24.83h-8.91V13.55l4.51.25c.17,0,.56,0,.56.37s-.31.36-.67.47v6.24h4.51V12l4.22.3c.48,0,.84.06.84.37s-.25.39-.72.59v7.58h4.45V13.55l4.62.25c.22,0,.53,0,.53.34s-.36.39-.7.5V24.83h-8.9v7.45Z"/><path class="cls-3" d="M194.15,30.26a.46.46,0,0,1,.25.4c0,.3-.28.33-.67.33a21.47,21.47,0,0,1-2.38,2.13,12.56,12.56,0,0,0,3.7,1.48,9.48,9.48,0,0,0-2.3,3.28,17.58,17.58,0,0,1-7-4.76,14.4,14.4,0,0,0-.33,2.69c-2.21.45-7.31,1.43-9.61,1.73-.11.23-.25.45-.5.45s-.36-.17-.42-.45l-.81-3.36c.56,0,3-.44,3.55-.5v-4h-2.91c-.17,1.12-1,5.37-2.49,7.72a10.38,10.38,0,0,0-3.58-1.59,17.33,17.33,0,0,0,2.07-5.71,43.74,43.74,0,0,0,.45-6.7V12.79h22.68v7.06H175.17v4.31c0,.28-.06,1.63-.11,2.16h3.08V24.61h-2.3v-3h2.3V20l3.61.2c.25,0,1.06.14,1.06.5,0,.14-.14.42-.87.51v.47h3.62V20l3.66.22c.17,0,1,.12,1,.45,0,.17-.22.42-.92.54v.47h4.48v3h-4.48v1.71h5.2v3.36h-1.12Zm-19-14.61v1.23h14.64V15.65Zm6.38,17.41c.79-.14,2.91-.53,3.5-.67a17.21,17.21,0,0,1-1.87-2.71h-1.63Zm.39-6.74h3.62V24.61h-3.62Zm5.55,3.36A8.19,8.19,0,0,0,188.61,31c.75-.59,1.31-1.09,1.54-1.31Z"/><path class="cls-3" d="M213.28,20.16v-8l4.56.19c.14,0,.34.09.34.28s-.28.37-.56.45v7.06h4.5v4.06h-4.5V33.4h5.32v3.86H206.78V33.4h6.5V24.22h-4.62V20.77a19.93,19.93,0,0,1-2.1,3.48,24,24,0,0,0,3.92,3.41,12.47,12.47,0,0,0-2.58,3.05A15.21,15.21,0,0,1,205,28.14v9.68h-4.15V30.38c-1.17.95-1.59,1.29-2.26,1.76a8.12,8.12,0,0,0-2.52-3.47c3-1.71,6.49-5.13,7.47-7.39h-6.16v-3.9h3.47v-5.2l4.15.11c.17,0,.45.05.45.36,0,.14-.12.28-.45.51v4.22h2.69l1.79,1.74c-.09.17-.45.9-.51,1Z"/><path class="cls-3" d="M250.6,22.73v4.71H225.32V22.73Z"/><path class="cls-3" d="M269.22,37.66c-.78,0-2.69,0-2.69-1.8V33.43h-3.81l1.52.64c.22.11.64.28.64.59s-.56.45-1.09.48A15.14,15.14,0,0,1,254.66,38a10.16,10.16,0,0,0-1.43-3.41,7.34,7.34,0,0,0,1,.11c.81,0,4.23-.25,5.77-1.26h-3.76v-10h19.6v8.12A8.22,8.22,0,0,0,279.22,33c-.17,1.37-.59,4.62-3.06,4.62ZM265.38,15.4v1.7a16.14,16.14,0,0,0,2.36-5.29l3.83.9c.2,0,.34.14.34.28,0,.34-.42.5-.81.53-.06.23-.17.5-.23.7h7.87v3.25h-9.38c-.17.25-.36.59-.92,1.37H277v3.42h-8.82V19.15c-.14.22-.5.67-.67.92a9.14,9.14,0,0,0-2.13-1.57v1.26h-3.5v1h4.34v2.07H253.57V12.32h12.35v2.1h-4v1Zm-6.8,0v-1H257v1ZM257,17.08v1h5.15v-1Zm0,2.68v1h1.62v-1Zm15,6.7v-.9H260.18v.9Zm-11.81,1.45v.95H272v-.95Zm0,2.41v.95H272v-.95Zm14.3,4.4c.45,0,.68-.31.87-1.29h-4.81v.64c0,.37.14.65.67.65Z"/><path class="cls-3" d="M288.4,14.28c.22.08.36.19.36.39s-.53.39-.78.42a38.65,38.65,0,0,0-1.68,10.78,18.88,18.88,0,0,0,.2,2.8c.36-.53.95-1.43,1.31-2a11.67,11.67,0,0,0,2,2.77,12.48,12.48,0,0,0-2.33,6.86l-3.75.7a39.57,39.57,0,0,1-1.51-11.28,50.57,50.57,0,0,1,1.68-12.83Zm13.3-.62c.14,0,.36.06.36.31s-.39.42-.64.45a30.8,30.8,0,0,0-.28,3.36,25.44,25.44,0,0,0,4.14-1V21c-.64.17-1.93.47-4.25.89a44.74,44.74,0,0,0,.45,6.44,15.72,15.72,0,0,1,5.32,2.89c-.45.81-1.29,2.63-1.91,3.95a9.77,9.77,0,0,0-3-2.13c-.12,3.58-3.7,4-5.46,4-4.2,0-6.3-2.29-6.3-4.9,0-3.33,3.3-4.59,6.94-4.51-.22-3.19-.25-3.55-.31-5.18-1.59.14-2.74.14-3.22.14a19.78,19.78,0,0,1-2.07-.08v-4.4a29,29,0,0,0,5.26.2c0-1.18,0-3.64,0-5.46ZM295.9,31c-.61,0-2,.2-2,1.06s.93,1,1.82,1c.23,0,1.91,0,1.91-1.37a.76.76,0,0,0-.06-.37A4.12,4.12,0,0,0,295.9,31Z"/><path class="cls-3" d="M318.25,26.85c-1.51,1.34-2.52,2.88-2.52,3.53a1.07,1.07,0,0,0,.56.89c1,.56,4.25.62,5.57.62a37.09,37.09,0,0,0,10.81-1.4,31.62,31.62,0,0,0,.81,4.65,59.42,59.42,0,0,1-11.87,1.12c-6.41,0-10.53-1.18-10.53-5.44,0-2.4,2-4.53,4.17-6.41Zm13.38-9.77a26.93,26.93,0,0,0-8.82,5.54c-.05-.06-.31-.33-2.49-2.8a11.07,11.07,0,0,0,2-1.68c-.7.06-2.44.17-5,.17a33.72,33.72,0,0,1-3.78-.17l-.22-4.62a49.14,49.14,0,0,0,8.46.62,36.49,36.49,0,0,0,7.58-.62Z"/><path class="cls-3" d="M350.7,13c.22.06.53.17.53.45s-.14.36-.61.39c-.62,1.91-.68,2.1-.82,2.52a42.68,42.68,0,0,0,9.13-2.21c.14.92.51,3.05.79,4.17a48.79,48.79,0,0,1-11.46,2.38c-.67,1.85-.89,2.41-1.45,3.78a16.56,16.56,0,0,1,7.28-1.9c7.47,0,7.87,5.26,7.87,6.66a6.94,6.94,0,0,1-3,5.66c-1.48,1-4.28,2.68-12,2.68a24.31,24.31,0,0,1-2.6-.14,20.36,20.36,0,0,0-1-4.17,39.47,39.47,0,0,0,4.17.25c.65,0,5.43,0,8.32-1.7a2.86,2.86,0,0,0,1.51-2.64c0-1.62-.84-3-3.42-3a14.36,14.36,0,0,0-9.68,4.67l-4-2a39.25,39.25,0,0,0,3.73-7.87c-2.44,0-4.37-.08-5.43-.17l-.06-4.59a25.67,25.67,0,0,0,6.78.62,38,38,0,0,0,1.06-5Z"/><path class="cls-3" d="M375.76,18.45c.2.05.42.11.42.36s-.34.37-.64.4a18.41,18.41,0,0,0-1.85,4.84,15.49,15.49,0,0,1,8.17-2.61A6.79,6.79,0,0,1,389,28.33c0,5.35-5,9-14.31,9-.81,0-1.51,0-2-.06a15.69,15.69,0,0,0-1.32-4.7,16.08,16.08,0,0,0,4.15.42c6.35,0,8.87-2.38,8.87-4.73,0-.82-.39-2.86-3.27-2.86-4,0-6.92,2.58-8.93,4.59l-4-1.45A66.38,66.38,0,0,1,371.11,17Zm-1.54-6.55a28,28,0,0,1,9.41,3.1,34.15,34.15,0,0,0-2.52,4.09,25,25,0,0,0-8.35-3.44Z"/><path class="cls-3" d="M406.64,13.6c.31.09.56.17.56.42,0,.4-.58.45-.75.45-.42,1.91-.59,2.63-.79,3.36,2.41,0,6.42.09,6.42,6.86,0,4.62-1.46,8.57-2.8,10.36a4.81,4.81,0,0,1-4.15,2,15.5,15.5,0,0,1-3-.3,8.22,8.22,0,0,0,.09-1,21.4,21.4,0,0,0-.42-3.75,4.68,4.68,0,0,0,2.43.61,2.13,2.13,0,0,0,1.66-.53c.95-.84,1.84-4,1.84-7.45,0-2.88-2-2.71-3.22-2.63-2.21,7.59-4.84,11.84-7.11,14.79a19.58,19.58,0,0,0-4.11-2.22A33.54,33.54,0,0,0,400,22.76a30,30,0,0,0-4.45,1.43L394,19.68c1.15-.22,6.13-1.26,7.17-1.43a43.5,43.5,0,0,0,.86-6.13Zm7.56,1.46c3.08,3.44,5,8.12,5,10.33a2.86,2.86,0,0,1-2,3,11.46,11.46,0,0,1-2.8.87,22.42,22.42,0,0,0-1.63-3.75c.76-.17,1.79-.4,1.79-1.29a11.23,11.23,0,0,0-1.45-3.84,20.33,20.33,0,0,0-2.38-3.1Z"/><path class="cls-3" d="M431.76,18.45c.2.05.42.11.42.36s-.34.37-.64.4a18.41,18.41,0,0,0-1.85,4.84,15.49,15.49,0,0,1,8.17-2.61A6.79,6.79,0,0,1,445,28.33c0,5.35-5,9-14.31,9-.81,0-1.51,0-2-.06a15.69,15.69,0,0,0-1.32-4.7,16.08,16.08,0,0,0,4.15.42c6.35,0,8.87-2.38,8.87-4.73,0-.82-.39-2.86-3.27-2.86-4,0-6.92,2.58-8.93,4.59l-4-1.45A66.38,66.38,0,0,1,427.11,17Zm-1.54-6.55a28,28,0,0,1,9.41,3.1,34.15,34.15,0,0,0-2.52,4.09,25,25,0,0,0-8.35-3.44Z"/><polygon class="cls-3" points="110 33 110 17 118 25 110 33"/></svg>