<?xml version="1.0" encoding="utf-8"?>
<!-- Generator: Adobe Illustrator 23.0.2, SVG Export Plug-In . SVG Version: 6.00 Build 0)  -->
<svg version="1.1" id="レイヤー_1" xmlns="http://www.w3.org/2000/svg" xmlns:xlink="http://www.w3.org/1999/xlink" x="0px"
	 y="0px" viewBox="0 0 240 62.7" style="enable-background:new 0 0 240 62.7;" xml:space="preserve">
<style type="text/css">
	.st0{fill:#0A3E6F;}
</style>
<g>
	<path class="st0" d="M0,0.6v62h56.7V8.8l6.5-8.1H0V0.6z M44.5,26.4h-32V9.5h32V26.4z M12.5,35.3h32v18.4h-32V35.3z"/>
	<path class="st0" d="M172.6,31.4c8.1-2.3,11.2-5.9,11.2-13.3c0-11-7-17.5-19.1-17.5h-38.4l5.9,8.4v53.6h32.6
		c15.6,0,19.1-9.4,19.1-17.9C183.9,38.4,182.5,34.3,172.6,31.4 M160,9.6c8.5,0,10.7,3,10.7,8.3s-1.2,8.3-10.7,8.3h-14.9V9.6H160z
		 M161.1,53.5h-16V35.7h18.4c7.1,0,8.2,4.7,8.2,8.9C171.7,49.9,171.1,53.5,161.1,53.5"/>
	<path class="st0" d="M92.2,38c-1.7-6.8-3.9-13.5-5.7-18h-4.4L92.6,6.4H81.4l-6.7,9.1l-3-2L82.7,0H71.1l-8.9,11.3v6l7.2,4.9
		l-7.2,9.4V38H73v24.7h9.7V38H92.2z M81.3,31.3h-7.9l6-7.8C80.1,25.9,80.7,28.6,81.3,31.3"/>
	<path class="st0" d="M103.5,12.1H92.8c1.5,4.2,4,7.8,7.3,10.8c-2.5,1.2-5.2,2.1-8.3,2.6V33c6.3-0.7,11.6-2.5,16-4.9
		c4.9,2.4,10.9,4,17.8,4.7v-7.9c-3.4-0.5-7-1.4-10.2-2.7c4.4-4.5,7.2-10.1,8.7-16L120,0.4H93.3v8.3h18.4c-0.8,3.4-2.2,6.3-4.3,8.7
		C105.6,15.9,104.3,14.2,103.5,12.1"/>
	<path class="st0" d="M217.3,0.6h-34.9l5.9,8.4v11c0,6.5,3.3,9.3,11.3,11.4c-7.9,1.9-11.3,5.7-11.3,11.2v20h13.1V40.8h15.8
		c15.6,0,22.8-9.6,22.8-19.7C240.1,6.4,229.4,0.6,217.3,0.6 M214.7,31.4h-13.2V10.1h13.2c8.5,0,12.3,4,12.3,10.7
		C227,26.1,224.7,31.4,214.7,31.4"/>
	<path class="st0" d="M61.8,62.2h6.9c1-5.8,1.6-13.5,1.9-20.7h-8.2C62.4,47.7,62.2,55.5,61.8,62.2z"/>
	<path class="st0" d="M113.8,54.5V47h9.4v-8h-9.4v-7.2h-10.4V39h-8.7v8h8.7v7.5h-9.8c-0.5-4.5-1.2-9.1-1.8-13.1h-6.7
		c0.6,6.4,1.2,13.8,1.4,21h40.5v-7.9H113.8z"/>
</g>
</svg>
