<svg xmlns="http://www.w3.org/2000/svg" width="199.063" height="18.687"><path fill-rule="evenodd" d="M9.936 3.006c.144-.7.234-1.151.36-1.793L7.867.987a12.076 12.076 0 0 1-1.152 3.907V3.743h-1.71V.628H2.522v3.115h-2.2v2.605h2A13.905 13.905 0 0 1-.017 11.52l.846 3.7a13.193 13.193 0 0 0 1.691-3.869v7.135h2.483v-7.852a9.481 9.481 0 0 0 1.026 2.642l1.547-2.152a6.833 6.833 0 0 1-.81-.944h3.149a11.972 11.972 0 0 1-4.031 4.606l1.6 2.662a15.991 15.991 0 0 0 3.383-4.851v5.889h2.555v-5.455a11.223 11.223 0 0 0 3.2 4.379l1.044-3.19a11.529 11.529 0 0 1-3.509-4.04h3.185v-2.7h-3.915V5.687h3.653V3.006h-3.653V.628h-2.556v2.378h-.935zM8.047 7.48H6.715v2.643a14.772 14.772 0 0 1-1.71-2.945v-.83h1.566zm.216 0a12.8 12.8 0 0 0 .9-1.793h1.709V7.48h-2.61zm28.394-4.266l1.152-.528A8.45 8.45 0 0 0 36.064.477l-2.321.982a9.492 9.492 0 0 1 1.332 1.755h-1.781V.59h-2.863c0 .491 0 .51.036 1.51 0 .151.018.6.036 1.114h-9.109v2.737h9.2l.036.774a23.314 23.314 0 0 0 1.53 8.57c.936 2.114 2.159 3.228 3.545 3.228 1.206 0 2.249-1.133 2.951-3.209l-1.134-3c-.432 1.283-1.386 2.567-1.889 2.567-.4 0-.864-.812-1.278-2.152a24.83 24.83 0 0 1-.99-6.7v-.076h5V3.216h-1.71zM24.601 14.861c-.666.056-1.278.094-1.476.113-.756.076-1.278.113-1.476.113a2.306 2.306 0 0 1-.414.019l.289 2.969.432-.038c6.514-.736 6.64-.755 8.835-1.227l-.018-2.661c-.99.188-1.871.3-3.437.471v-4.285h2.807V7.598h-8.421v2.737h2.879v4.531zm34.469 2.4a32.732 32.732 0 0 0-3.725-5.229l-.036-.037h3.725v-2.72H42.803v2.719h4.013a24.873 24.873 0 0 1-1.26 3.265h-2c-.072 0-.288 0-.612-.019l.414 2.926c6.172-.226 11.031-.547 12.416-.812.306.529.468.831.72 1.322zm-10.671-2l.036-.075.54-1.19c.108-.226.216-.453.306-.679.2-.491.306-.736.54-1.321h5.056l-2.123 1.057c.5.641.936 1.208 1.493 2a50.778 50.778 0 0 1-5.29.188zM46.15 7.956h9.573V6.805a18.3 18.3 0 0 0 2.681 1.453l1.4-2.85a17.151 17.151 0 0 1-7.23-4.933h-3.2c-1.206 1.831-3.563 3.417-7.324 4.965l1.368 2.888a15.581 15.581 0 0 0 2.735-1.473V7.95zm2.051-2.529a15.505 15.505 0 0 0 2.753-2.662 19.831 19.831 0 0 0 2.807 2.662h-5.56zm20.308 6.059a10.526 10.526 0 0 0 1.529 1.831l1.35-2.7a9.312 9.312 0 0 1-2.466-2.02 14.83 14.83 0 0 0 1.44-2.737V3.217h-1.853V.631h-2.735v2.586h-2.267V5.86h3.941a12.648 12.648 0 0 1-4.265 4.511l.684 3.36a19.309 19.309 0 0 0 1.907-1.51v6.286h2.736v-7.022zM73.871.632v4.681h-3.239V8.22h3.239v6.909h-4.139v2.869h10.707v-2.873h-3.761V8.216h3.491V5.309h-3.491V.628h-2.807zm14.328 7.72v5.135c-.054 2.586 1.08 3.7 3.8 3.775h4.732a23.991 23.991 0 0 0 2.664-.151v-3a16.6 16.6 0 0 1-2.754.245h-4.047c-1.332 0-1.476-.132-1.476-1.17V8.033l5.218-.548a5.74 5.74 0 0 1-3.49 3.247l1.727 2.3c3.509-1.869 5.074-4.4 5.344-8.7l-8.8.812V1.475h-2.915v3.926l-3.527.321.2 2.963zm28.114-.943v.981a38.883 38.883 0 0 1-.324 4.889c-.18 1.038-.432 1.246-1.53 1.246a12.157 12.157 0 0 1-2.321-.245l.162 3.02a16.479 16.479 0 0 0 2.555.189c2.231 0 3.221-.661 3.725-2.492a36.268 36.268 0 0 0 .594-7.4V4.575h-6.244c.09-1.227.126-1.925.162-3.095l-2.969-.038c0 1.415-.018 2.114-.108 3.133h-4.805v2.832h4.517a10.417 10.417 0 0 1-5.327 7.909l1.962 2.3c3.545-2.36 5.506-5.569 6.244-10.212h3.707zm-.666-6.758a14.694 14.694 0 0 1 1.259 3.586l1.548-.6a15.22 15.22 0 0 0-1.368-3.586zm2.771-.076a15.472 15.472 0 0 1 1.206 3.625l1.547-.567a15.048 15.048 0 0 0-1.314-3.624zm21.535 6.89V4.634h-9.393c.018-.076.018-.095.036-.151a18.865 18.865 0 0 0 .773-2.813l-3.023-.283a11.617 11.617 0 0 1-4.1 7.7l2.1 2.057a12.323 12.323 0 0 0 2.951-3.681h3.697c-.378 4.984-2.051 6.8-7.126 7.758l1.368 2.681c5.776-1.227 8.313-4.247 8.8-10.439h3.923zm-4.459-6.95a14.69 14.69 0 0 1 1.2 3.66l1.583-.491A15.664 15.664 0 0 0 136.964.06zm2.663-.057a15.348 15.348 0 0 1 1.224 3.662l1.565-.491a14.831 14.831 0 0 0-1.313-3.624zm5.779 7.513v3.115h15.4V7.975h-15.4zm21.089 5.904h-1.763l.342 3.1c3.634-.151 7.611-.434 10.2-.717l1.584-.17c.216.566.342.925.576 1.642l2.861-1.3a31.063 31.063 0 0 0-4.391-8.4l-2.483 1.208a35.565 35.565 0 0 1 2.177 3.907c.09.208.09.208.162.359l-1.673.113c-1.4.113-2.915.189-4.769.226a90.656 90.656 0 0 0 3.689-11.835l-3.095-.566c-.99 4.341-2.015 8.1-3.131 11.533zm19.207-11.6v2.851h8.462a17.284 17.284 0 0 1-9.519 9.985l1.619 2.511a21.106 21.106 0 0 0 6.838-5.21 55.187 55.187 0 0 1 5.021 5.323l2.429-2.454a39.355 39.355 0 0 0-4.553-4.172c-.4-.32-.773-.622-1.133-.943a19.861 19.861 0 0 0 3.095-7.891h-12.259z"/></svg>