<svg xmlns="http://www.w3.org/2000/svg" width="94.813" height="18.156"><path fill-rule="evenodd" d="M14.24 7.747a18.387 18.387 0 0 0 2.3 1.114l1.134-2.7c-.81-.321-1.3-.548-2.213-1a18.768 18.768 0 0 0 2.051-2.321l-1.961-1.246a20.519 20.519 0 0 1-2.123 2.435 5.964 5.964 0 0 1-.738-.529c.81-.83 1.673-1.774 2.123-2.322L12.852.008a15.928 15.928 0 0 1-1.8 1.925A14.579 14.579 0 0 1 9.99.555H1.932v1.907l-1.3 1.321a18.79 18.79 0 0 1 1.656 1.473 13.488 13.488 0 0 1-2.3.925l1.17 2.737c.81-.378 1.422-.7 2.285-1.19v.85h1.691v1.453H.691v2.511h4.085c-.432 1.435-2.069 2.454-4.5 2.812l1.368 2.756c3.545-.962 5.452-2.737 5.956-5.568h2v3.794a1.428 1.428 0 0 0 1.475 1.454h4.387c1.422-.114 1.818-.944 1.979-4.172l-2.609-.472c-.072 1.85-.144 2.057-.72 2.057h-1.26c-.4 0-.5-.132-.5-.6v-2.057h4.66v-2.511h-4.66V8.582h1.889v-.831zM5.873 6.106a14.86 14.86 0 0 0 2.969-2.945 17.571 17.571 0 0 0 2.987 2.945H5.873zm.126-3.379a15.1 15.1 0 0 1-1.565 1.265 16.548 16.548 0 0 0-1.4-1.265h2.969zm3.6 5.852v1.453h-1.8V8.579h1.8zm31.177-7.362v2.589h7.054v.9h-6.155v2.322h15.313V4.706h-6.226v-.9h7.036v-2.59h-7.036V.14h-2.933v1.076h-7.054zm.324 6.55v4.153h2.807v-1.737h10.85v1.794h2.805v-4.21H41.099zm4.175 3c-.09 2.982-1.062 3.945-4.643 4.586l1.134 2.813c4.516-.812 6.19-2.737 6.388-7.4h-2.88zm9.879 2.189c-.144 2.077-.162 2.133-.81 2.152h-1.225c-.324 0-.414-.113-.414-.491v-3.85h-2.789v5.266a1.6 1.6 0 0 0 1.709 1.85h4.247c1.475-.208 1.8-.887 2.051-4.361zM80.32.838V17.43h14.5V.839h-14.5zm2.825 6.795V3.65h8.8v3.983h-8.8zm0 2.756h8.8v4.228h-8.8v-4.228z"/></svg>