<svg xmlns="http://www.w3.org/2000/svg" viewBox="0 0 63.51 63.51"><defs><style>.cls-1{fill:#fff;}.cls-2{fill:#4b4b4b;}</style></defs><g id="レイヤー_2" data-name="レイヤー 2"><circle class="cls-1" cx="31.76" cy="31.76" r="26.47"/><path class="cls-2" d="M31.76,0A31.76,31.76,0,1,0,63.51,31.76,31.76,31.76,0,0,0,31.76,0ZM50.31,33.35l0,6.87L42.05,32l8.26-8.26ZM38.26,32l-3.8,3.79a3.8,3.8,0,0,1-5.41,0L13.24,20a2.23,2.23,0,0,1,2.2-1.85H48.07A2.23,2.23,0,0,1,50.27,20ZM13.2,40.22V23.73L21.46,32,16.64,36.8Zm.13,3.68,10-10,3.79,3.8a6.51,6.51,0,0,0,9.21,0l3.8-3.8,10,10a2.22,2.22,0,0,1-2.11,1.49H15.44A2.23,2.23,0,0,1,13.33,43.9Z"/></g></svg>