<svg xmlns="http://www.w3.org/2000/svg" viewBox="0 0 721.47 54.91"><defs><style>.cls-1{fill:#d32f2f;}.cls-2{fill:#231815;}.cls-3{fill:#fff;}</style></defs><g id="レイヤー_2" data-name="レイヤー 2"><path class="cls-1" d="M721.47,0,465.65.19c-11,0-19.86,5.45-24.3,14V1.07H404.94V54.5H694.41c15.67,0,27.06-11.24,27.06-27.09Z"/><path class="cls-2" d="M639,36.33l6.41-7.1c1.78-2.06,2.75-3.75,2.75-5.61s-1-3.06-3.48-3.06a8.71,8.71,0,0,0-5.23,1.65l-.25-.1V17.84a11.48,11.48,0,0,1,6.55-1.62c4.86,0,8,2.45,8,6.85,0,3.13-1.73,5.68-4.2,8.47l-4,4.2,3.76-.31h4.72V39.5H639Z"/><path class="cls-2" d="M656.92,27.55c0-7.51,4.14-11.74,10-11.74s9.9,4.23,9.94,11.74-4.06,12-9.94,12S657,35.06,656.92,27.55Zm14.11,0Q671,20,666.91,20c-2.72,0-4.14,2.52-4.14,7.55s1.42,7.71,4.14,7.71S671,32.61,671,27.55Z"/><path class="cls-2" d="M702.07,39.5V22.34L697.8,25.1l-.21-.11V20.32l6-3.86h4.11v23Z"/><path class="cls-3" d="M420.51,32.47V48.86H409.78V5.9h26.75v7.92h-16V24.56h14.26v7.91Z"/><path class="cls-3" d="M443.5,27.25C443.5,14.51,452.48,5,466,5s22.56,9.48,22.56,22.22S479.68,49.73,466,49.73,443.5,40,443.5,27.25Zm34,0c0-8.59-4.41-14-11.44-14s-11.42,5.4-11.42,14S458.94,41.44,466,41.44,477.48,35.8,477.48,27.25Z"/><path class="cls-3" d="M510.62,33.41h-5.14V48.86H494.75V5.9H511c11,0,16.77,4.91,16.77,13.46,0,5.76-2.7,9.65-7.35,11.54l10,17.39v.57H519.18Zm-5.14-19.79V25.94h4.71c5.16,0,7.22-2.27,7.22-6.35s-2.25-6-7.4-6Z"/><path class="cls-3" d="M592.58,48.86H583.8V5.9h12.68l7.65,20.59,2.08,7.56,2.15-7.56L616.2,5.9h12.93v43h-10V31.47l.76-13.82-3.7,11.93-7.23,19.28h-6.35l-7-19.28-3.71-12.37.76,14.26Z"/><path class="cls-3" d="M536.64,32V5.8h11v26c0,6,2.91,9,8.14,9s8.26-3,8.26-9V5.8h9.78V32c0,11-6.56,17.66-18.42,17.66S536.64,43.52,536.64,32Z"/><polygon class="cls-3" points="164.58 12.32 164.58 53.9 150.04 53.9 150.04 12.32 136.25 12.32 136.25 1.07 178.36 1.07 178.36 12.32 164.58 12.32"/><path class="cls-3" d="M207.27,35.4h-5.93V53.9H187V1.07h20.83c13.78,0,20.83,6.16,20.83,16.73,0,6.9-3.15,11.76-8.55,14.15l11.68,21.21v.74H217Zm-5.93-24.18v14.3h5.23c6.07,0,8.4-2.63,8.4-7.35,0-4.87-2.54-7-8.62-7Z"/><polygon class="cls-3" points="239.7 1.07 274.17 1.07 274.17 11.5 254.03 11.5 254.03 21.69 271.25 21.69 271.25 32.03 254.03 32.03 254.03 43.49 274.55 43.49 274.55 53.9 239.7 53.9 239.7 1.07"/><polygon class="cls-3" points="324.08 54.91 297.84 24.86 297.84 54.33 285.48 54.33 285.48 1.07 294.09 1.07 320.03 30.77 320.03 1.6 332.39 1.6 332.39 54.91 324.08 54.91"/><path class="cls-3" d="M344,1.07h19c17,0,30.14,7.78,30.14,26.83S380,54.2,363,54.2H344Zm14.44,10.72V43.5h3.79c9.64,0,16.13-3.75,16.13-15.6,0-11.59-6.49-16.11-16.13-16.11Z"/><path class="cls-3" d="M26.64,42.09,26.71,45H21.1V42.45H5.59V45H0c0-.82.05-1.91.05-2.95v-28c0-1.05,0-2.15,0-2.93H26.71c0,1-.07,1.88-.07,2.93ZM5.59,24H21.1V16.13H5.59ZM21.1,28.91H5.59v8.56H21.1Z"/><path class="cls-3" d="M44.87,43.35c0,.59,0,1.26,0,1.78H40.23a12.75,12.75,0,0,0,.08-1.78V29.44c-1.61.17-3.06.27-4,.37-.46,0-1.32.17-1.84.28l-.58-4.52c.51,0,1.53,0,2.39,0a7.41,7.41,0,0,0,1-.05c.7-.81,1.45-1.73,2.2-2.71-1.73-2-3.62-4-5.34-5.61l2.43-3.73c.35.34.78.83,1.22,1.29A28,28,0,0,0,41.18,8.6l4,2.33c-.15.13-.34.47-.46.6A52.21,52.21,0,0,1,40.59,18c.44.51.86,1,1.25,1.53a40.19,40.19,0,0,0,4.4-7.41l3.88,2.31a3.58,3.58,0,0,1-.54.65A123,123,0,0,1,42.39,25.2c1.26-.11,2.51-.23,3.58-.35a29.09,29.09,0,0,0-1-3l3.45-.9A53.68,53.68,0,0,1,51,29.48c-1.14.37-2.63.81-3.81,1.11-.07-.54-.2-1.17-.32-1.8-.59,0-1.25.12-2,.17ZM35.6,31.41c1.25.2,2.75.44,3.76.64,0,.15-.06.44-.11.78a41.2,41.2,0,0,1-1.34,10.41c-.66-.27-2.51-1-3.77-1.45A34.14,34.14,0,0,0,35.6,31.41m32.81,8.45c1.08,0,2,0,2.73-.08v4.87c-.73-.07-1.65-.07-2.73-.07H51.74c-1.06,0-2,0-2.78.07V39.82l-2.21.62a51.49,51.49,0,0,0-1.06-8.72l3.39-.89a58.18,58.18,0,0,1,1.53,8.52c-.24.08-.83.28-1.49.43a26,26,0,0,0,2.62.08H58.1V35.58h-4c-1,0-1.69,0-2.4,0V31.07c.71,0,1.45,0,2.4,0h4V28.65c0-.35,0-1-.07-1.39,1.13,0,4.21.1,5.3.19,0,.35-.07.85-.07,1.2v2.44H67.5c.94,0,1.72,0,2.38,0v4.54c-.66,0-1.44,0-2.38,0H63.26v4.28ZM56.81,21.79a18,18,0,0,1-4-6.56c-.75,0-1.46,0-2,0V10.76c.63,0,1.36,0,2.14,0H65.77l.35-.4a37.38,37.38,0,0,1,4.13,3.42,6.71,6.71,0,0,1-.6.31,18.26,18.26,0,0,1-4.9,7.78,27.29,27.29,0,0,0,6.39,1.66c-.58,1.37-1.49,3.62-1.85,4.73a27.62,27.62,0,0,1-8.38-3.2,31.44,31.44,0,0,1-8.29,3.2c-.41-1.15-1.51-3.44-2.16-4.89a25.1,25.1,0,0,0,6.35-1.61m7.51-6.56H57.71a11.81,11.81,0,0,0,3.16,4.28,11.58,11.58,0,0,0,3.45-4.28"/><polygon class="cls-1" points="83.71 54.01 85.92 54.01 114.97 1.07 112.78 1.07 83.71 54.01"/><polygon class="cls-1" points="87.38 54.01 89.59 54.01 118.65 1.07 116.45 1.07 87.38 54.01"/><polygon class="cls-1" points="91.06 54.01 93.26 54.01 122.34 1.07 120.15 1.07 91.06 54.01"/><polygon class="cls-1" points="94.74 54.01 96.94 54.01 126.02 1.07 123.83 1.07 94.74 54.01"/><polygon class="cls-1" points="98.43 54.01 100.62 54.01 129.69 1.07 127.5 1.07 98.43 54.01"/><polygon class="cls-1" points="92.84 14.32 98.1 24.15 98.82 22.6 94.28 14.32 95.48 14.32 99.4 21.43 100.04 20 96.91 14.32 98.1 14.32 100.61 18.89 104.87 9.87 100.06 1.07 82.95 1.07 96.79 26.95 97.43 25.5 91.67 14.32 92.84 14.32"/><polygon class="cls-1" points="115.9 54.01 117.33 54.01 110.34 41.32 109.68 42.7 115.9 54.01"/><polygon class="cls-1" points="113.36 54.01 114.78 54.01 109.17 43.81 108.52 45.25 113.36 54.01"/><polygon class="cls-1" points="110.92 40.18 118.52 54.01 119.95 54.01 111.57 38.75 110.92 40.18"/><polygon class="cls-1" points="112.3 37.29 121.14 54.01 130.45 54.01 116.62 28.16 112.3 37.29"/><path class="cls-2" d="M679.7,36.33l6.4-7.1c1.79-2.06,2.76-3.75,2.76-5.61s-1-3.06-3.48-3.06a8.76,8.76,0,0,0-5.24,1.65l-.24-.1V17.84a11.48,11.48,0,0,1,6.55-1.62c4.86,0,8,2.45,8,6.85,0,3.13-1.73,5.68-4.2,8.47l-4,4.2,3.76-.31h4.71V39.5h-15Z"/></g></svg>