<svg id="レイヤー_1" data-name="レイヤー 1" xmlns="http://www.w3.org/2000/svg" viewBox="0 0 407.04 142.87"><defs><style>.cls-1{fill:#d32f2f;}.cls-2{fill:#231815;}.cls-3{fill:#fff;}</style></defs><path class="cls-1" d="M404.71,73.18l-327.1.26c-14,0-25.38,7-31.06,17.91V74.56H0v68.31H370.11c20,0,34.6-14.37,34.6-34.64Z"/><path class="cls-2" d="M299.3,119.64l8.19-9.07c2.29-2.64,3.52-4.8,3.52-7.18,0-2.2-1.23-3.92-4.45-3.92a11.2,11.2,0,0,0-6.69,2.12l-.31-.14V96c2-1.28,4.5-2.08,8.37-2.08,6.21,0,10.21,3.13,10.21,8.77,0,4-2.2,7.26-5.37,10.83l-5.06,5.37,4.8-.4h6v5.2H299.3Z"/><path class="cls-2" d="M322.7,108.41c0-9.6,5.28-15,12.76-15s12.68,5.41,12.73,15-5.2,15.28-12.73,15.28S322.74,118,322.7,108.41Zm18,0q0-9.64-5.28-9.64c-3.47,0-5.28,3.21-5.28,9.64s1.81,9.86,5.28,9.86S340.74,114.88,340.74,108.41Z"/><path class="cls-2" d="M381.47,123.69V101.76L376,105.28l-.27-.13v-6l7.66-4.93h5.24v29.46Z"/><path class="cls-3" d="M19.9,114.71v21H6.19V80.73H40.38V90.86H19.9v13.73H38.14v10.12Z"/><path class="cls-3" d="M49.3,108c0-16.29,11.48-28.42,28.83-28.42S107,91.74,107,108s-11.4,28.75-28.82,28.75S49.3,124.26,49.3,108Zm43.44,0c0-11-5.63-17.89-14.61-17.89S63.51,97.05,63.51,108s5.54,18.15,14.62,18.15S92.74,119,92.74,108Z"/><path class="cls-3" d="M135.11,115.91h-6.57v19.75H114.81V80.73h20.8c14,0,21.44,6.28,21.44,17.2,0,7.38-3.45,12.35-9.4,14.77l12.77,22.23v.73H146.05ZM128.54,90.6v15.75h6c6.6,0,9.23-2.9,9.23-8.12s-2.88-7.63-9.46-7.63Z"/><path class="cls-3" d="M239.91,135.66H228.67V80.73h16.22l9.79,26.34,2.65,9.64,2.74-9.64,10-26.34h16.52v54.93H273.8V113.43l1-17.68L270,111l-9.23,24.65h-8.12l-9-24.65L238.94,95.2l1,18.23Z"/><path class="cls-3" d="M168.38,114.15V80.61h14V113.9c0,7.66,3.71,11.53,10.4,11.53s10.56-3.87,10.56-11.53V80.61h12.49v33.54c0,14-8.38,22.57-23.54,22.57C177,136.72,168.38,128.83,168.38,114.15Z"/><polygon class="cls-3" points="170.4 11.64 170.4 54.7 155.35 54.7 155.35 11.64 141.07 11.64 141.07 0 184.67 0 184.67 11.64 170.4 11.64"/><path class="cls-3" d="M214.6,35.54h-6.14V54.7H193.63V0H215.2c14.27,0,21.57,6.39,21.57,17.33,0,7.14-3.27,12.16-8.85,14.64l12.08,22v.76H224.65Zm-6.14-25v14.8h5.41c6.29,0,8.71-2.72,8.71-7.61s-2.64-7.19-8.94-7.19Z"/><polygon class="cls-3" points="248.18 0 283.86 0 283.86 10.8 263.01 10.8 263.01 21.34 280.84 21.34 280.84 32.06 263.01 32.06 263.01 43.92 284.26 43.92 284.26 54.7 248.18 54.7 248.18 0"/><polygon class="cls-3" points="335.54 55.74 308.37 24.63 308.37 55.15 295.58 55.15 295.58 0 304.49 0 331.34 30.75 331.34 0.55 344.14 0.55 344.14 55.74 335.54 55.74"/><path class="cls-3" d="M356.17,0h19.66C393.46,0,407,8.05,407,27.78S393.46,55,375.83,55H356.17Zm14.95,11.1V43.93H375c10,0,16.71-3.88,16.71-16.15,0-12-6.72-16.68-16.71-16.68Z"/><path class="cls-3" d="M27.58,42.47l.07,3.06H21.84V42.85h-16v2.68H0c0-.85.05-2,.05-3.06V13.52c0-1.08,0-2.23,0-3H27.65c0,1-.07,2-.07,3ZM5.79,23.73H21.84V15.59h-16Zm16.05,5.1h-16v8.86H21.84Z"/><path class="cls-3" d="M46.46,43.78c0,.61,0,1.3,0,1.84H41.66a15.57,15.57,0,0,0,.07-1.84V29.38c-1.67.17-3.17.27-4.15.37-.48.05-1.38.18-1.91.29l-.61-4.67c.54,0,1.59,0,2.48,0a7.83,7.83,0,0,0,1-.05c.73-.85,1.5-1.8,2.28-2.81-1.79-2.08-3.74-4.11-5.53-5.81l2.52-3.87c.37.36.81.87,1.26,1.35a29.23,29.23,0,0,0,3.54-6.39l4.11,2.42a5.43,5.43,0,0,0-.48.62A53.21,53.21,0,0,1,42,17.51c.46.53.89,1.06,1.3,1.58a41.44,41.44,0,0,0,4.55-7.67l4,2.39a3.48,3.48,0,0,1-.56.67A128.12,128.12,0,0,1,43.88,25c1.32-.12,2.61-.24,3.71-.37a30.52,30.52,0,0,0-1-3.06l3.57-.93a55.3,55.3,0,0,1,2.61,8.79c-1.19.38-2.73.84-3.94,1.14-.08-.56-.21-1.21-.33-1.86-.62,0-1.3.13-2,.18Zm-9.6-12.36c1.29.2,2.85.45,3.89.65a6.59,6.59,0,0,1-.12.81,42.42,42.42,0,0,1-1.38,10.78c-.69-.28-2.6-1-3.9-1.5a35.66,35.66,0,0,0,1.51-10.74m34,8.74c1.13,0,2.08,0,2.84-.08v5c-.76-.07-1.71-.07-2.84-.07H53.57c-1.1,0-2.07,0-2.88.07v-5l-2.28.64a55.76,55.76,0,0,0-1.1-9l3.5-.93a59.6,59.6,0,0,1,1.59,8.82,15.42,15.42,0,0,1-1.54.45c.75.08,1.69.08,2.71.08h6.58V35.73H56c-1,0-1.75,0-2.48,0v-4.7c.73,0,1.5,0,2.48,0h4.14V28.56c0-.36,0-1.07-.07-1.44,1.17,0,4.36.1,5.49.19,0,.37-.08.89-.08,1.25v2.52h4.39c1,0,1.79,0,2.47,0v4.7c-.68,0-1.49,0-2.47,0H65.49v4.43Zm-12-18.71a18.6,18.6,0,0,1-4.11-6.79c-.78,0-1.51,0-2.11,0V10c.66,0,1.41,0,2.23,0H68.09l.37-.42a39.39,39.39,0,0,1,4.28,3.54c-.18.12-.44.2-.63.33a18.83,18.83,0,0,1-5.08,8,28.08,28.08,0,0,0,6.63,1.73c-.61,1.42-1.55,3.74-1.92,4.89a28.59,28.59,0,0,1-8.68-3.31,32.54,32.54,0,0,1-8.58,3.31c-.43-1.2-1.56-3.56-2.24-5.06a26,26,0,0,0,6.58-1.67m7.77-6.79H59.75A12.22,12.22,0,0,0,63,19.09a11.92,11.92,0,0,0,3.57-4.43"/><polygon class="cls-1" points="86.67 54.81 88.96 54.81 119.04 0 116.77 0 86.67 54.81"/><polygon class="cls-1" points="90.47 54.81 92.76 54.81 122.84 0 120.57 0 90.47 54.81"/><polygon class="cls-1" points="94.28 54.81 96.56 54.81 126.67 0 124.39 0 94.28 54.81"/><polygon class="cls-1" points="98.09 54.81 100.36 54.81 130.48 0 128.21 0 98.09 54.81"/><polygon class="cls-1" points="101.91 54.81 104.18 54.81 134.28 0 132.01 0 101.91 54.81"/><polygon class="cls-1" points="96.13 13.73 101.56 23.9 102.32 22.29 97.62 13.73 98.86 13.73 102.92 21.08 103.58 19.6 100.33 13.73 101.57 13.73 104.17 18.45 108.58 9.12 103.59 0 85.88 0 100.21 26.79 100.87 25.3 94.91 13.73 96.13 13.73"/><polygon class="cls-1" points="119.99 54.81 121.48 54.81 114.25 41.68 113.55 43.11 119.99 54.81"/><polygon class="cls-1" points="117.36 54.81 118.83 54.81 113.03 44.25 112.35 45.74 117.36 54.81"/><polygon class="cls-1" points="114.84 40.5 122.71 54.81 124.19 54.81 115.51 39.02 114.84 40.5"/><polygon class="cls-1" points="116.27 37.5 125.42 54.81 135.07 54.81 120.74 28.05 116.27 37.5"/><path class="cls-2" d="M352.35,119.64l8.19-9.07c2.29-2.64,3.52-4.8,3.52-7.18,0-2.2-1.23-3.92-4.45-3.92a11.18,11.18,0,0,0-6.69,2.12l-.31-.14V96c2-1.28,4.49-2.08,8.36-2.08,6.21,0,10.22,3.13,10.22,8.77,0,4-2.2,7.26-5.37,10.83l-5.06,5.37,4.79-.4h6v5.2H352.35Z"/></svg>