<svg xmlns="http://www.w3.org/2000/svg" width="630" height="200" viewBox="0 0 630 200"><defs><style>.cls-1{fill:#e6e6e6;}.cls-2{fill:#fff;}.cls-3{fill:#3c3c3c;}.cls-4{fill:#ff9600;}</style></defs><g id="レイヤー_2" data-name="レイヤー 2"><g id="object"><rect class="cls-1" width="630" height="200" rx="10"/><path class="cls-2" d="M625,35V190a5,5,0,0,1-5,5H10a5,5,0,0,1-5-5V35Z"/><path class="cls-3" d="M32.09,13.58a2.52,2.52,0,0,0-.24.63,12.46,12.46,0,0,1-8,9.09,5.12,5.12,0,0,0-1.23-1.67A10.16,10.16,0,0,0,30,14.1H23.29a10.19,10.19,0,0,0-1.76.08V12.36a9.87,9.87,0,0,0,1.79.1h6.43c.5,0,.74,0,1,0A8.22,8.22,0,0,0,29.89,11l1-.38a8.65,8.65,0,0,1,1.25,2.22l-.56.22Zm.83-1a9.61,9.61,0,0,0-1.21-2.17l1-.38A8.06,8.06,0,0,1,34,12.16Z"/><path class="cls-3" d="M35,16a14.68,14.68,0,0,0,2.27.09h7.47A14.6,14.6,0,0,0,47,16v1.94a15.4,15.4,0,0,0-2.28-.07H37.28a15.49,15.49,0,0,0-2.29.07Z"/><path class="cls-3" d="M59.72,22.75a27,27,0,0,0-4.3-4.16,16.55,16.55,0,0,1-5.33,4.05A5.6,5.6,0,0,0,49,21.09a11.59,11.59,0,0,0,2.8-1.54,13.5,13.5,0,0,0,4.71-5.71l.15-.36L52,13.56a12,12,0,0,0-1.53.12l-.05-1.8a6,6,0,0,0,1.23.09H52l4.94-.07a3,3,0,0,0,1.24-.16l.93,1a2.4,2.4,0,0,0-.45.75,18.6,18.6,0,0,1-2.19,3.87,22.33,22.33,0,0,1,2.59,2c.35.31.35.31,2,1.95Z"/><path class="cls-3" d="M73.64,14a9.64,9.64,0,0,0,1.53-.09v1.45a11.46,11.46,0,0,0-1.53-.09H71.23a10.57,10.57,0,0,0,4.44,2.26A5.43,5.43,0,0,0,74.86,19c-.59-.26-.81-.38-1.28-.63V22a8.74,8.74,0,0,0,.09,1.47H72.13v-.65H65.91v.65H64.38c0-.42.07-.95.07-1.47V18.35c-.38.22-.56.31-1.16.62a3.77,3.77,0,0,0-.81-1.39,9.52,9.52,0,0,0,4.16-2.31h-2.3a11.3,11.3,0,0,0-1.54.09V13.91a10.05,10.05,0,0,0,1.54.09H65.5a9.82,9.82,0,0,0-.63-1.11l1-.33c-.87,0-1,0-1.88,0a4.2,4.2,0,0,0-.6-1.33c.64,0,.94,0,1.34,0A43.68,43.68,0,0,0,69.65,11a20.07,20.07,0,0,0,3.65-.6l1,1.28-.42.06-.36.06c-.77.11-1.62.22-3.92.47V14h1.26a8.72,8.72,0,0,0,.88-1.82l1.47.36A12.54,12.54,0,0,1,72.42,14Zm-7.73,5.46h2.32v-.88H65.91Zm0,2.1h2.32v-.87H65.91Zm6-4.2a10,10,0,0,1-2.31-2c0,.13,0,.2,0,.21a1.12,1.12,0,0,1,0,.27v.37a4.9,4.9,0,0,0,0,.9H68.14a5.75,5.75,0,0,0,.07-.88v-.37c0-.08,0-.25,0-.49a9.42,9.42,0,0,1-2.18,2Zm-3.71-4.92c-.58.05-.58.05-2,.1A13.25,13.25,0,0,1,67,14h1.25Zm1.42,9.14h2.48v-.89H69.63Zm0-2.1h2.48v-.89H69.65Z"/><path class="cls-3" d="M78.23,17.19a11.81,11.81,0,0,0-1.63.09V15.76a11.38,11.38,0,0,0,1.64.09h9.53a11.74,11.74,0,0,0,1.65-.09v1.52a11.83,11.83,0,0,0-1.65-.09H81.46c-.21.49-.28.66-.46,1h5.28a12.63,12.63,0,0,0,1.44-.05c0,.08,0,.29-.11.9-.24,2-.5,3.11-.88,3.57s-1,.68-2.44.68c-.73,0-1.26,0-2.11-.08a3.68,3.68,0,0,0-.38-1.5c1,.11,2,.2,2.48.2.68,0,1-.09,1.16-.3A5.11,5.11,0,0,0,86,19.5H80.33c-.2.35-.31.54-.65,1.05L78,20.25a13.79,13.79,0,0,0,1.78-3.06Zm.15-5.14a10.33,10.33,0,0,0,0-1.16,12.38,12.38,0,0,0,1.58.07h6.18a10.45,10.45,0,0,0,1.59-.07,9.7,9.7,0,0,0-.05,1.16v1.82a10.25,10.25,0,0,0,.05,1.19A13.53,13.53,0,0,0,86.24,15H79.77a13.76,13.76,0,0,0-1.44.05,10.67,10.67,0,0,0,0-1.19Zm1.5.23v1.44h6.21V12.28Z"/><path class="cls-3" d="M96.64,19c-.8,1.8-1.7,2.63-2.84,2.63-1.6,0-2.75-1.62-2.75-3.88a6.06,6.06,0,0,1,1.54-4.08,6.32,6.32,0,0,1,4.82-2c3.36,0,5.55,2,5.55,5.2a5.4,5.4,0,0,1-3.41,5.23,9.27,9.27,0,0,1-2.2.58,4.35,4.35,0,0,0-.85-1.64,7.28,7.28,0,0,0,2.79-.77,3.91,3.91,0,0,0,1.94-3.5,3.47,3.47,0,0,0-1.72-3.11,3.12,3.12,0,0,0-1.41-.42A20.5,20.5,0,0,1,96.64,19Zm-2.06-5a4.68,4.68,0,0,0-1.9,3.78c0,1.15.49,2.06,1.1,2.06.46,0,.94-.58,1.44-1.79a18.21,18.21,0,0,0,1.17-4.73A3.57,3.57,0,0,0,94.58,14Z"/><path class="cls-3" d="M107.84,19.32c-.67,0-1.15,0-1.51,0a11.78,11.78,0,0,0,.07-1.48V12.77c0-.77,0-1.39-.07-1.76a10.06,10.06,0,0,0,1.47.07h6.45a10.28,10.28,0,0,0,1.49-.07,17.53,17.53,0,0,0-.07,1.76v5.11a9.82,9.82,0,0,0,.07,1.48c-.37,0-.91,0-1.49,0h-1.2v2.16c0,.39.12.43,1.22.43s1.36-.05,1.52-.29a4.56,4.56,0,0,0,.26-1.79,6,6,0,0,0,1.44.58c-.14,1.56-.28,2.08-.63,2.41s-1,.48-2.58.48c-2.32,0-2.74-.2-2.74-1.25V19.32h-1.26a4.28,4.28,0,0,1-1.34,2.59,7.06,7.06,0,0,1-3.55,1.68,4.46,4.46,0,0,0-.82-1.37,7.18,7.18,0,0,0,2.74-.92,2.84,2.84,0,0,0,1.33-2Zm0-5.92h6.31v-.91h-6.31Zm0,2.25h6.31v-.94h-6.31Zm0,2.31h6.31V17h-6.31Z"/><path class="cls-3" d="M124.09,11.71a5.69,5.69,0,0,0-.09-1.16h1.8a7,7,0,0,0-.08,1.16v.86h3.85a11.66,11.66,0,0,0,1.76-.1v1.7a11.48,11.48,0,0,0-1.7-.09H124.5c-.07,1.05-.07,1.09-.11,1.52h3.88a9.49,9.49,0,0,0,1.44-.07.49.49,0,0,1,0,.14c0,.21,0,.37-.06,1a27.75,27.75,0,0,1-.48,4.91c-.32,1.33-.78,1.68-2.18,1.68-.49,0-.81,0-1.89-.09a4.6,4.6,0,0,0-.41-1.63,12.84,12.84,0,0,0,2.1.18c.62,0,.76-.15.94-1.12a20.62,20.62,0,0,0,.31-3.51h-3.87a9.17,9.17,0,0,1-4.49,6.34,3.9,3.9,0,0,0-1.14-1.33A9,9,0,0,0,121,20c1.2-1.44,1.68-3.07,1.75-5.93h-2.3a14.26,14.26,0,0,0-1.75.09v-1.7a12.53,12.53,0,0,0,1.75.1h3.6Z"/><rect class="cls-4" x="365" y="55" width="240" height="60" rx="10"/><path class="cls-4" d="M215,61a4.05,4.05,0,0,1,4,4v40a4.05,4.05,0,0,1-4,4H35a4.05,4.05,0,0,1-4-4V65a4.05,4.05,0,0,1,4-4H215m0-6H35A10,10,0,0,0,25,65v40a10,10,0,0,0,10,10H215a10,10,0,0,0,10-10V65a10,10,0,0,0-10-10Z"/><rect class="cls-4" x="25" y="55" width="130" height="60" rx="10"/><path class="cls-2" d="M45.62,86.22c.17.1.27.21.27.33s-.27.23-.54.21A26.51,26.51,0,0,1,41,92.24a15.2,15.2,0,0,0-2.41-1.78,16,16,0,0,0,4.6-5.67Zm1.32-9.91,2.8.1c.27,0,.46.06.46.25s-.17.23-.36.32V80.8H56.9v2.56H49.84V91.3c0,1.45,0,3.17-3.38,3.17-.38,0-1,0-1.43-.09a8,8,0,0,0-.9-2.81,15.07,15.07,0,0,0,1.91.19c.9,0,.9-.32.9-1.64V83.36H39.87V80.8h7.07Zm6.56,8.35A28.56,28.56,0,0,1,57.82,90c-.71.54-1.72,1.49-2.16,1.91a28.56,28.56,0,0,0-4.26-5.63Z"/><path class="cls-2" d="M78.57,84v3H60.45V84Z"/><path class="cls-2" d="M88.08,77.48c.21,0,.49,0,.49.27s-.21.34-.38.4V83.3c0,5.33-2.37,7.72-5.23,10a9.17,9.17,0,0,0-2.37-2c4-2.54,4.55-4.92,4.55-7.81V77.33Zm5.21-.19c.23,0,.4,0,.4.23s-.21.3-.4.4v11a22,22,0,0,0,6-5.85,7.94,7.94,0,0,0,1.4,2.6,31.36,31.36,0,0,1-6,5.9C93,92.83,92.77,93,92.22,93.44l-1.93-1.26c0-.57.08-1.09.08-1.66V77.15Z"/><path class="cls-2" d="M118.05,95h-2.5v-.77h-8.08V95H105V88c-.67.42-1.32.78-2,1.14a6.84,6.84,0,0,0-1.78-2,21.16,21.16,0,0,0,6.53-4.07H101.9V81.09h4.31A11.13,11.13,0,0,0,105,79.48l1.14-.55c-.36,0-2,.06-2.29.06a7.21,7.21,0,0,0-.68-2.16c.55,0,3.7.06,3.93.06a43.11,43.11,0,0,0,6.72-.56,17.25,17.25,0,0,0,3.34-.84l1.49,1.8c.17.21.23.3.23.46s-.13.19-.25.19a2.58,2.58,0,0,1-.76-.27,16.83,16.83,0,0,1-1.82.42l2.35.82c.14.06.19.13.19.21s-.24.23-.61.31a16.54,16.54,0,0,1-1.14,1.66h4.33v2.06H115a19.9,19.9,0,0,0,6.74,3.91c-1.28,1.23-1.47,1.65-1.61,2-1.1-.48-1.6-.76-2-1Zm-2.25-8.35A16.4,16.4,0,0,1,112.72,84v2.25h-2.48V84.07a24.36,24.36,0,0,1-3.13,2.61Zm-5.56,3v-1h-2.77v1Zm0,2.69v-1h-2.77v1Zm0-13.55c-.61,0-1.83.11-2.58.13a11.34,11.34,0,0,1,1.19,1.74l-1.15.44h2.54Zm4,1.77a9.36,9.36,0,0,0,1.45-2.38,27.32,27.32,0,0,1-3,.4v2.52h3.06Zm1.3,9.09v-1h-2.83v1Zm-2.83,1.64v1h2.83v-1Z"/><path class="cls-2" d="M139.38,87.33a20.06,20.06,0,0,1-1.4,6.09c-.67,1.21-1.62,1.72-4.31,1.72-.46,0-.75,0-1.07,0a6,6,0,0,0-.63-2.5,11,11,0,0,0,2.06.21c1.22,0,1.91-.17,2.31-3.34h-7.58a14.24,14.24,0,0,1-1,2,7.29,7.29,0,0,0-2.52-.77,25.26,25.26,0,0,0,2.33-4.83h-4.68V83.78h19.21v2.08H130.23c-.4,1-.44,1.15-.57,1.47Zm-.14-11v6.11H125.76V76.37Zm-10.9,2.08v1.89h8.29V78.45Z"/><path class="cls-4" d="M595,61a4.05,4.05,0,0,1,4,4v40a4.05,4.05,0,0,1-4,4H285a4.05,4.05,0,0,1-4-4V65a4.05,4.05,0,0,1,4-4H595m0-6H285a10,10,0,0,0-10,10v40a10,10,0,0,0,10,10H595a10,10,0,0,0,10-10V65a10,10,0,0,0-10-10Z"/><path class="cls-2" d="M387.12,86.22c.17.1.27.21.27.33s-.27.23-.54.21a26.51,26.51,0,0,1-4.35,5.48,15.2,15.2,0,0,0-2.41-1.78,16,16,0,0,0,4.6-5.67Zm1.32-9.91,2.8.1c.27,0,.46.06.46.25s-.17.23-.36.32V80.8h7.06v2.56h-7.06V91.3c0,1.45,0,3.17-3.38,3.17-.38,0-1,0-1.43-.09a8,8,0,0,0-.9-2.81,15.07,15.07,0,0,0,1.91.19c.9,0,.9-.32.9-1.64V83.36h-7.07V80.8h7.07ZM395,84.66A28.56,28.56,0,0,1,399.32,90c-.71.54-1.72,1.49-2.16,1.91a28.56,28.56,0,0,0-4.26-5.63Z"/><path class="cls-2" d="M420.07,84v3H402V84Z"/><path class="cls-2" d="M429.58,77.48c.21,0,.49,0,.49.27s-.21.34-.38.4V83.3c0,5.33-2.37,7.72-5.23,10a9.17,9.17,0,0,0-2.37-2c4-2.54,4.55-4.92,4.55-7.81V77.33Zm5.21-.19c.23,0,.4,0,.4.23s-.21.3-.4.4v11a22,22,0,0,0,6-5.85,7.94,7.94,0,0,0,1.4,2.6,31.36,31.36,0,0,1-6,5.9c-1.75,1.26-1.93,1.41-2.48,1.87l-1.93-1.26c0-.57.08-1.09.08-1.66V77.15Z"/><path class="cls-2" d="M461.84,79.18V92.75c0,1,0,2.35-2.84,2.35l-1.55,0a5.79,5.79,0,0,0-.95-2.81,13,13,0,0,0,1.92.23c.33,0,.77,0,.77-.88V88.9a6.64,6.64,0,0,0-1.61,1.81,9.61,9.61,0,0,1-4.5-4.89,13.74,13.74,0,0,1-4.7,5.35,5.81,5.81,0,0,0-1.53-2v5.83h-2.67V79.18h7.47v-3.4l2.8.15c.1,0,.46,0,.46.27s-.23.34-.55.42v2.31c0,.06,0,.19,0,.25Zm-15,9.7a8.6,8.6,0,0,0,4.74-7.2h-4.74Zm7.51-7.2a7,7,0,0,0,1.26,3.88,10.38,10.38,0,0,0,3.57,3V81.68Z"/><path class="cls-2" d="M483.28,79.33c-5.25,0-9.91,4.28-9.91,8.13,0,2.45,1.72,4.05,6.17,4.38A15.58,15.58,0,0,0,478.22,95c-3.19-.71-7.67-2.54-7.67-7.3,0-2.82,1.6-5.23,4.41-7.39a88.61,88.61,0,0,0-9.57,1.32l-.4-3.38a13.12,13.12,0,0,0,1.37.06,82.79,82.79,0,0,0,16.37-2Zm-3.51,3.38A26.79,26.79,0,0,1,481.6,85a15.4,15.4,0,0,0-1.41,1.22,18.28,18.28,0,0,0-1.78-2.34Zm2-1.55a14.29,14.29,0,0,1,1.91,2.22,11.11,11.11,0,0,0-1.37,1.2,16.89,16.89,0,0,0-1.84-2.37Z"/><path class="cls-2" d="M495.21,91.82c5-.94,6.23-4.64,6.23-6.84a5.34,5.34,0,0,0-5.35-5.48c-.71,7.83-3.74,13.46-5.9,13.46-1.62,0-4.45-2.65-4.45-6.41a10.09,10.09,0,0,1,10-9.61c4.48,0,8.49,3,8.49,8a9.26,9.26,0,0,1-2.48,6.36,11.45,11.45,0,0,1-4.72,3A13.37,13.37,0,0,0,495.21,91.82Zm-6.8-5.46c0,1.79.94,3.19,1.59,3.19s1.2-1.42,1.53-2.26A19.91,19.91,0,0,0,493.11,80,7.29,7.29,0,0,0,488.41,86.36Z"/><path class="cls-2" d="M511.25,84v5.86c.15,1.59.44,2.64,3.51,2.64,7.58,0,8.52,0,11.21-.48a5.31,5.31,0,0,0-.88,2.56h-9.76c-3,0-4.18-.46-5.21-1.93-.44.4-1.37,1.2-2.29,1.91a1.62,1.62,0,0,1,0,.3c0,.16-.06.33-.23.33s-.25-.15-.34-.29L506,92.49A16.44,16.44,0,0,0,508.67,91V86.32h-2.14V84ZM508,75.91a19.68,19.68,0,0,1,3.69,3.1c-.54.51-.86.87-1.82,1.89a27.34,27.34,0,0,0-3.43-3.19Zm9.3,12.66h-2.14v3.19h-2.36V80.86h3.49c-1-.71-1.51-1.07-2-1.36l1.15-1.2h-2.56v-2h9.57l.93,1.1a28,28,0,0,1-4,3.5h4.77v8.8c0,1.57-.93,2.14-3.34,2.18a5.88,5.88,0,0,0-.72-2.2,10.18,10.18,0,0,0,1.12.08c.58,0,.58-.25.58-.5v-.65h-2.22V91.4h-2.35Zm0-5.84h-2.14V84h2.14Zm0,2.92h-2.14v1.22h2.14ZM516,78.3c.61.46,1.55,1.13,1.87,1.37a13.77,13.77,0,0,0,1.74-1.37ZM519.61,84h2.22V82.73h-2.22Zm0,2.92h2.22V85.65h-2.22Z"/><path class="cls-2" d="M534.5,76.64c.33,0,.48.07.48.3s-.29.31-.46.35a64.1,64.1,0,0,0-.61,9.43c0,3.61.34,5,2.29,5,3.57,0,6.74-4.26,7.6-6.11A13.92,13.92,0,0,0,545.92,88c-3.42,5.5-7.52,6.72-10,6.72-4.77,0-4.92-4.54-4.92-8.74,0-1.32.24-7.16.24-8.35,0-.86,0-1,0-1.43Z"/><path class="cls-2" d="M564.55,95h-2.5v-.77H554V95h-2.46V88c-.67.42-1.32.78-2,1.14a6.84,6.84,0,0,0-1.78-2,21.16,21.16,0,0,0,6.53-4.07H548.4V81.09h4.31a11.13,11.13,0,0,0-1.18-1.61l1.14-.55c-.36,0-2,.06-2.29.06a7.21,7.21,0,0,0-.68-2.16c.55,0,3.7.06,3.93.06a43.11,43.11,0,0,0,6.72-.56,17.25,17.25,0,0,0,3.34-.84l1.49,1.8c.17.21.23.3.23.46s-.13.19-.25.19a2.58,2.58,0,0,1-.76-.27,16.83,16.83,0,0,1-1.82.42l2.35.82c.14.06.19.13.19.21s-.24.23-.61.31a16.54,16.54,0,0,1-1.14,1.66h4.33v2.06h-6.24a19.9,19.9,0,0,0,6.74,3.91,5.89,5.89,0,0,0-1.62,2c-1.09-.48-1.59-.76-2-1Zm-2.25-8.35A16.4,16.4,0,0,1,559.22,84v2.25h-2.48V84.07a24.36,24.36,0,0,1-3.13,2.61Zm-5.56,3v-1H554v1Zm0,2.69v-1H554v1Zm0-13.55c-.61,0-1.83.11-2.58.13a11.34,11.34,0,0,1,1.19,1.74l-1.15.44h2.54Zm4,1.77a9.36,9.36,0,0,0,1.45-2.38,27.32,27.32,0,0,1-3,.4v2.52h3.06Zm1.3,9.09v-1h-2.83v1Zm-2.83,1.64v1h2.83v-1Z"/><path class="cls-2" d="M585.88,87.33a20.06,20.06,0,0,1-1.4,6.09c-.67,1.21-1.62,1.72-4.31,1.72-.46,0-.75,0-1.07,0a6,6,0,0,0-.63-2.5,11,11,0,0,0,2.06.21c1.22,0,1.91-.17,2.31-3.34h-7.58a14.24,14.24,0,0,1-1,2,7.29,7.29,0,0,0-2.52-.77,25.26,25.26,0,0,0,2.33-4.83h-4.68V83.78h19.21v2.08H576.73c-.4,1-.44,1.15-.57,1.47Zm-.14-11v6.11H572.26V76.37Zm-10.9,2.08v1.89h8.29V78.45Z"/><path class="cls-3" d="M323.49,85.55c0,4.51-1.18,13.31-10.62,13.31s-10.62-8.76-10.62-13.31c0-4.35,1.09-13.31,10.62-13.31S323.49,81,323.49,85.55Zm-16.31,0c0,1.38,0,9.28,5.69,9.28s5.67-7.9,5.67-9.28,0-9.28-5.67-9.28S307.18,84.05,307.18,85.55Z"/><path class="cls-3" d="M340.74,98.16h-4.8v-17h-5.37V77.62c2.69-.13,5.25-.45,6.37-4.67h3.8Z"/><path class="cls-3" d="M254.64,82v4h-9.28V82Z"/><path class="cls-3" d="M191.74,98.16h-4.8v-17h-5.37V77.62c2.69-.13,5.25-.45,6.37-4.67h3.8Z"/><path class="cls-3" d="M37,136.5l.44.47-5,5,5,5-.44.46-5-4.93-5,4.93-.46-.46,5-5-5-5,.46-.47,5,5ZM29.06,142A1.06,1.06,0,0,1,28,143,1.09,1.09,0,0,1,26.92,142,1.07,1.07,0,0,1,28,140.89,1.06,1.06,0,0,1,29.06,142Zm4,4.09A1.09,1.09,0,0,1,32,147.12a1.08,1.08,0,0,1-.09-2.15H32A1.06,1.06,0,0,1,33.07,146Zm0-8.13A1.06,1.06,0,0,1,32,139a1.07,1.07,0,1,1,0-2.14A1.06,1.06,0,0,1,33.08,137.91Zm4,4.06A1.06,1.06,0,1,1,36,140.9,1.05,1.05,0,0,1,37.07,142Z"/><path class="cls-3" d="M47.87,147.21a10.47,10.47,0,0,0-.44-1.43L46.7,144H41.82l-.73,1.81a8,8,0,0,0-.44,1.43H39.2A9.39,9.39,0,0,0,40,145.6l3.14-7.74a7.47,7.47,0,0,0,.45-1.3H45a7.92,7.92,0,0,0,.48,1.3l3.14,7.74a14.52,14.52,0,0,0,.74,1.61Zm-3.31-8.83-.31-.89-.15.46c-.09.22-.13.38-.16.43L42.15,143h4.22Z"/><path class="cls-3" d="M54.58,145.62a8.17,8.17,0,0,0,.12,1.59H53.38a8.84,8.84,0,0,0,.11-1.59v-8.08H51.31a10,10,0,0,0-1.61.1v-1.18a9.77,9.77,0,0,0,1.59.1h5.47a9.78,9.78,0,0,0,1.65-.1v1.18a10,10,0,0,0-1.65-.1H54.58Z"/><path class="cls-3" d="M66.28,139.57H64.89v-1.38h1.39Zm-1.39,6.18v-1.39h1.39v1.39Z"/><path class="cls-3" d="M79.83,139.39a5.66,5.66,0,0,0-.06,1c0,2.34-.43,3.73-1.38,4.93a7.74,7.74,0,0,1-3.59,2.43,2.69,2.69,0,0,0-.65-.94,6.67,6.67,0,0,0,2.57-1.29c1.48-1.19,2-2.62,2-5.35a3.19,3.19,0,0,0-.06-.76Zm5.53-1.76a2.43,2.43,0,0,0-.34.56,8.34,8.34,0,0,1-4.09,4,2.77,2.77,0,0,0-.68-.8,6,6,0,0,0,2.21-1.33A7.36,7.36,0,0,0,84,138h-8a14.84,14.84,0,0,0-1.65.07V137a10.29,10.29,0,0,0,1.67.1h7.52c.94,0,.94,0,1.19-.1Z"/><path class="cls-3" d="M90.73,147.73a8.53,8.53,0,0,0,.09-1.48v-8.69a7.72,7.72,0,0,0-.09-1.43h1.21a8.3,8.3,0,0,0-.07,1.45v2.62a34.56,34.56,0,0,1,6.23,3l-.6,1a28.08,28.08,0,0,0-5.23-2.78,1.32,1.32,0,0,1-.43-.24l0,0a5,5,0,0,1,.06.82v4.22a9.21,9.21,0,0,0,.07,1.49Z"/><path class="cls-3" d="M105,136.48a7.73,7.73,0,0,0-.06,1.16v3.77a7.55,7.55,0,0,0,.06,1.16h-1.16a9.07,9.07,0,0,0,.05-1.18v-3.74a8.63,8.63,0,0,0-.05-1.17Zm6.21,0a5.9,5.9,0,0,0-.07,1.22v1.65a15.83,15.83,0,0,1-.35,4.27,5.32,5.32,0,0,1-2.67,3.11,10.83,10.83,0,0,1-2.55,1,2.57,2.57,0,0,0-.58-1,8.27,8.27,0,0,0,2.66-1,4.19,4.19,0,0,0,2.24-3,17.82,17.82,0,0,0,.19-3.57v-1.58a8.3,8.3,0,0,0-.05-1.23Z"/><path class="cls-3" d="M125,138.35a3.28,3.28,0,0,0,1.18-.08l.57.55c-.12.22-.12.22-.3,1.41a8.69,8.69,0,0,1-2.54,5.11,10.86,10.86,0,0,1-4.1,2.33,2.83,2.83,0,0,0-.65-.95,9.3,9.3,0,0,0,3.1-1.36,7.71,7.71,0,0,0,3.25-6.12h-7.65v2.1a9.31,9.31,0,0,0,0,1h-1.15a9.63,9.63,0,0,0,.06-1.05v-1.89a7.71,7.71,0,0,0-.06-1.13,12.76,12.76,0,0,0,1.29,0h3v-1.41a4.16,4.16,0,0,0-.07-.9h1.18a5.85,5.85,0,0,0-.07.89v1.42Z"/><path class="cls-3" d="M135.7,136.45a5.43,5.43,0,0,0-.38,1,74.89,74.89,0,0,1-2.91,8.19c1.86-.12,5.15-.56,6.81-.88a26.53,26.53,0,0,0-2.16-3.63l.87-.47a36.33,36.33,0,0,1,3.49,6.33l-1,.53a19.29,19.29,0,0,0-.83-1.89A86.55,86.55,0,0,1,131,146.8a8.57,8.57,0,0,0-1.2.16l-.14-1.17.4,0,1.19-.07a51.73,51.73,0,0,0,2.11-5.55,26.44,26.44,0,0,0,1.11-4Z"/><path class="cls-3" d="M37,160.5l.44.47-5,5,5,5-.44.46-5-4.93-5,4.93-.46-.46,5-5-5-5,.46-.47,5,5ZM29.06,166A1.06,1.06,0,0,1,28,167,1.09,1.09,0,0,1,26.92,166,1.07,1.07,0,0,1,28,164.89,1.06,1.06,0,0,1,29.06,166Zm4,4.09A1.09,1.09,0,0,1,32,171.12a1.08,1.08,0,0,1-.09-2.15H32A1.06,1.06,0,0,1,33.07,170Zm0-8.13A1.06,1.06,0,0,1,32,163a1.07,1.07,0,1,1,0-2.14A1.06,1.06,0,0,1,33.08,161.91Zm4,4.06A1.06,1.06,0,1,1,36,164.9,1.05,1.05,0,0,1,37.07,166Z"/><path class="cls-3" d="M47.64,163.59a3.19,3.19,0,0,0-.66-1.24,3.08,3.08,0,0,0-2.42-1c-2.27,0-3.7,1.73-3.7,4.52s1.45,4.54,3.7,4.54a2.95,2.95,0,0,0,3.18-2.58l1.16.28a4.5,4.5,0,0,1-.75,1.67,4.35,4.35,0,0,1-3.63,1.62,4.47,4.47,0,0,1-3.28-1.23,6.74,6.74,0,0,1,.09-8.61,4.38,4.38,0,0,1,3.2-1.19,4.12,4.12,0,0,1,4.23,2.89Z"/><path class="cls-3" d="M58.51,171.3a10,10,0,0,0-1.64-.09H51.62c-.85,0-1.15,0-1.6,0v-1a9.58,9.58,0,0,0,1-1.19l5.31-7,.52-.6c-.28,0-.66,0-.86,0H52.18a10.41,10.41,0,0,0-1.63.1v-1.18a10.32,10.32,0,0,0,1.63.1H56.7c.57,0,1,0,1.57,0v1a9.19,9.19,0,0,0-1,1.19l-5.17,6.78c-.19.25-.38.46-.67.79.48,0,.74,0,1.08,0h4.37a11.45,11.45,0,0,0,1.64-.1Z"/><path class="cls-3" d="M66.64,163.57H65.25v-1.38h1.39Zm-1.39,6.18v-1.39h1.39v1.39Z"/><path class="cls-3" d="M76.75,170.28a12.47,12.47,0,0,0-1.5.06v-1.11a6.44,6.44,0,0,0,1.52.1h6.67v-6.77H77.07a12.74,12.74,0,0,0-1.61.07v-1.12a7.23,7.23,0,0,0,1.61.1h6.72l.73,0c0,.35,0,.59,0,1.1v7.17a9.61,9.61,0,0,0,.07,1.27H83.44v-.84Z"/><path class="cls-3" d="M89.48,168.15a42.8,42.8,0,0,1,9,2.34l-.4,1A23.13,23.13,0,0,0,93.29,170a41.31,41.31,0,0,0-4.23-.86Zm1.1-3.93a43.49,43.49,0,0,1,6.9,1.64l-.36,1a33.2,33.2,0,0,0-7-1.7Zm.25-3.83a44.19,44.19,0,0,1,7.06,1.54l-.36,1a35.55,35.55,0,0,0-7.11-1.63Z"/><path class="cls-3" d="M111.33,170.46a5.81,5.81,0,0,0,1.26-.08v1a8.47,8.47,0,0,0-1.27-.07h-6.87a8.13,8.13,0,0,0-1.27.07v-1a5.92,5.92,0,0,0,1.26.08h4.26c.32-1.49.64-3.55.77-4.81h-3.74a7.13,7.13,0,0,0-1.24,0v-1a6.9,6.9,0,0,0,1.25.09h3.75a1.45,1.45,0,0,0,.66-.1l.46.41a2.66,2.66,0,0,0-.22,1c-.32,2.22-.43,2.92-.73,4.39Z"/><path class="cls-3" d="M116.35,168.69a10.1,10.1,0,0,0,1.63.08h7.94a10,10,0,0,0,1.62-.08v1.17a13.72,13.72,0,0,0-1.61-.07h-8a13.94,13.94,0,0,0-1.61.07Zm1.42-6.66a8.56,8.56,0,0,0,1.49.09h5.35a8.61,8.61,0,0,0,1.5-.09v1.14a11.8,11.8,0,0,0-1.48-.06h-5.38a11.8,11.8,0,0,0-1.48.06Z"/><path class="cls-3" d="M136.7,165.21a13.38,13.38,0,0,1-.16,1.49,5.47,5.47,0,0,1-1.89,3.69,8.14,8.14,0,0,1-2.46,1.39,2.53,2.53,0,0,0-.66-.91,5.3,5.3,0,0,0,3.54-2.76,8.12,8.12,0,0,0,.56-2.9h-3.79a14.25,14.25,0,0,0-1.62.07v-1a10.24,10.24,0,0,0,1.63.08H140a10.24,10.24,0,0,0,1.63-.08v1a14.06,14.06,0,0,0-1.61-.07Zm-5.06-4.44a7.28,7.28,0,0,0,1.61.1h5.45a7.28,7.28,0,0,0,1.61-.1v1.07a10.68,10.68,0,0,0-1.6-.07h-5.47a10.68,10.68,0,0,0-1.6.07Z"/><path class="cls-3" d="M154,163.25a1.64,1.64,0,0,0-.33.32,23.13,23.13,0,0,1-2.82,2.47v4.73a7.14,7.14,0,0,0,.07,1.24h-1.09a8.66,8.66,0,0,0,0-1.22v-4.16a16.11,16.11,0,0,1-4.3,1.93,2.6,2.6,0,0,0-.49-.84,14.16,14.16,0,0,0,3.25-1.23,15.59,15.59,0,0,0,4-2.92,4.41,4.41,0,0,0,.78-.91Z"/><path class="cls-3" d="M160,161.16a17.16,17.16,0,0,1,1.88,4.3l-1,.44a15.54,15.54,0,0,0-1.83-4.34Zm8.46,1.38a4.58,4.58,0,0,0-.25.82,17.46,17.46,0,0,1-.88,2.47,11.85,11.85,0,0,1-5.9,6,2.32,2.32,0,0,0-.74-.85,10.47,10.47,0,0,0,3.68-2.54,11,11,0,0,0,2.36-3.93,7.37,7.37,0,0,0,.54-2.3Zm-.89-2.9a10.89,10.89,0,0,1,1.31,2l-.75.32a9.88,9.88,0,0,0-1.31-2ZM169,159a11.62,11.62,0,0,1,1.34,2l-.76.32a9.93,9.93,0,0,0-1.32-2Z"/><path class="cls-3" d="M172.17,165.34a10,10,0,0,0,1.74.08H182a10.63,10.63,0,0,0,1.7-.07v1.14a13.88,13.88,0,0,0-1.71-.06h-8.12a13.27,13.27,0,0,0-1.74.06Z"/><path class="cls-3" d="M186.92,170.07A11.93,11.93,0,0,0,191,169a10.6,10.6,0,0,0,5.72-6.23,2.91,2.91,0,0,0,.85.83,12.34,12.34,0,0,1-4.27,5.35,14.1,14.1,0,0,1-5.23,2.08c-.37.09-.49.12-.84.23Zm.9-8.68A18.38,18.38,0,0,1,191.2,164l-.73.87a15.83,15.83,0,0,0-3.34-2.75Z"/></g></g></svg>