<svg xmlns="http://www.w3.org/2000/svg" viewBox="0 0 631.15 53.95"><defs><style>.adfb47d3-77b9-497e-8fc9-9986acd445a4{fill:#ffa000;}</style></defs><title>ttl_company</title><g id="a116b2f4-15b6-4f76-8225-e22fe447fc60" data-name="レイヤー 2"><g id="b15c0ab9-09aa-4b79-8c97-f01a4ec8808d" data-name="object"><rect class="adfb47d3-77b9-497e-8fc9-9986acd445a4" x="1.15" y="48.95" width="630" height="5"/><path class="adfb47d3-77b9-497e-8fc9-9986acd445a4" d="M25.59,26.31V18l5.44.33c.5,0,1,.07,1,.46s-.47.51-.9.65v14H25.59V31.53H5.51V33.4H0V18l5.33.29c.57,0,1.08.07,1.08.47s-.61.57-.9.65v6.94h7.23V16.74H1.3V2.23l5.79.33c.22,0,.72,0,.72.46s-.39.47-.86.62v8h5.79V.29l5.44.39c.61,0,1.08.08,1.08.47s-.33.51-.94.76v9.75H24V2.23L30,2.56c.29,0,.69,0,.69.43s-.47.5-.9.65v13.1H18.32v9.57Z"/><path class="adfb47d3-77b9-497e-8fc9-9986acd445a4" d="M70.77,23.72c.25.18.33.32.33.51,0,.39-.36.43-.87.43a30.9,30.9,0,0,1-3.06,2.73,16.37,16.37,0,0,0,4.75,1.91,12.16,12.16,0,0,0-3,4.21,22.33,22.33,0,0,1-9-6.12,17.84,17.84,0,0,0-.43,3.46c-2.85.57-9.4,1.83-12.35,2.23-.14.29-.33.58-.65.58s-.47-.22-.54-.58l-1-4.32c.72-.07,3.92-.58,4.57-.65V23H45.76c-.22,1.44-1.26,6.91-3.21,9.93a12.84,12.84,0,0,0-4.61-2,22,22,0,0,0,2.67-7.34,55.51,55.51,0,0,0,.57-8.61V1.26H70.34v9.07h-24v5.54c0,.36-.07,2.09-.15,2.78h4v-2.2h-3V12.63h3V10.47l4.65.26c.32,0,1.36.18,1.36.64,0,.18-.18.54-1.11.65v.61h4.64V10.47l4.72.29c.21,0,1.33.15,1.33.58,0,.21-.29.54-1.19.68v.61h5.76v3.82H64.58v2.2h6.7V23H69.84ZM46.37,4.93V6.52H65.19V4.93Zm8.2,22.39c1-.18,3.75-.68,4.5-.86A23.09,23.09,0,0,1,56.66,23H54.57Zm.51-8.67h4.64v-2.2H55.08ZM62.21,23a10.07,10.07,0,0,0,1.44,1.69c1-.76,1.69-1.41,2-1.69Z"/><path class="adfb47d3-77b9-497e-8fc9-9986acd445a4" d="M99,10.73V.47l5.87.25a.4.4,0,0,1,.43.36c0,.32-.36.47-.72.58v9.07h5.8V16h-5.8v11.8h6.84v5H90.61v-5H99V16H93V11.52A24.36,24.36,0,0,1,90.32,16a31.57,31.57,0,0,0,5,4.39,16.24,16.24,0,0,0-3.31,3.93A20.28,20.28,0,0,1,88.31,21V33.44H83V23.87c-1.51,1.22-2,1.65-2.92,2.26a10.33,10.33,0,0,0-3.24-4.46c3.82-2.2,8.36-6.59,9.62-9.5H78.52v-5H83V.47l5.33.14c.21,0,.57.07.57.47,0,.18-.14.36-.57.65V7.16h3.45L94.07,9.4c-.11.21-.58,1.15-.65,1.33Z"/><path class="adfb47d3-77b9-497e-8fc9-9986acd445a4" d="M150.55,14v6.05H118V14Z"/><path class="adfb47d3-77b9-497e-8fc9-9986acd445a4" d="M178.09,33.22c-1,0-3.46,0-3.46-2.3V27.79h-4.89l1.94.83c.29.14.83.36.83.75s-.72.58-1.4.61a19.44,19.44,0,0,1-11.74,3.68,13.07,13.07,0,0,0-1.83-4.4,7.42,7.42,0,0,0,1.33.15c1,0,5.43-.33,7.41-1.62h-4.82V14.94h25.2V25.38a10.38,10.38,0,0,0,4.28,1.9c-.22,1.77-.76,5.94-3.92,5.94ZM173.16,4.61V6.8a21,21,0,0,0,3-6.8l4.93,1.15c.25.07.43.18.43.36,0,.43-.54.65-1,.69-.07.28-.21.64-.29.9h10.12V7.27H178.27c-.22.33-.47.76-1.19,1.77h11v4.39H176.76v-4c-.18.29-.65.86-.87,1.19a11.82,11.82,0,0,0-2.73-2v1.62h-4.5v1.3h5.58v2.66H158V.65h15.87v2.7h-5.18V4.61Zm-8.75,0V3.35h-2.09V4.61Zm-2.09,2.16V8H169V6.77Zm0,3.45v1.3h2.09v-1.3Zm19.33,8.61V17.67H166.46v1.16ZM166.46,20.7v1.22h15.19V20.7Zm0,3.09V25h15.19V23.79Zm18.4,5.65c.57,0,.86-.39,1.11-1.65h-6.19v.83c0,.46.18.82.87.82Z"/></g></g></svg>