<svg id="レイヤー_1" data-name="レイヤー 1" xmlns="http://www.w3.org/2000/svg" viewBox="0 0 286.3 23.19"><defs><style>.cls-1{fill:#fff;}</style></defs><title>アートボード 4</title><path class="cls-1" d="M21.67,9.91v4H0v-4Z"/><path class="cls-1" d="M35.93,19.66a8.58,8.58,0,0,0,3.67-1.73A14.35,14.35,0,0,1,37.54,15l1.56-1.11h-2V10.73h9.31L47.52,12a18.62,18.62,0,0,1-3.31,6,11.09,11.09,0,0,0,4.1,1.89,16.69,16.69,0,0,0-1.72,2.88,21.86,21.86,0,0,1-4.54-2.59,12.53,12.53,0,0,1-4.3,2.47,8.43,8.43,0,0,0-1.82-2.8v.76c0,2-1.37,2.16-4.18,2.19a11,11,0,0,0-1.08-3.24,6.66,6.66,0,0,0,1.66.24c.81,0,.81-.31.81-1V13a6.27,6.27,0,0,1-.64.07v5.74h-2V13.25a3.91,3.91,0,0,1-.48.05,29.58,29.58,0,0,1-1.65,9.26,5,5,0,0,0-2.88-1.39,23.28,23.28,0,0,0,1.73-7.56,1.28,1.28,0,0,1-.27.05c-.17.31-.31.5-.5.5a.26.26,0,0,1-.24-.24l-.55-3.21c.57,0,.93,0,1.48-.05V3H29.4c.17-.41.55-1.39.86-2.4l3.56.34a.26.26,0,0,1,.24.21c0,.22-.43.48-.6.53-.17.36-.41,1-.58,1.32h3V8.5A5.75,5.75,0,0,0,37.75,4V1.34h7.49V6.58c0,.26,0,.45.27.45.43,0,.57-1.37.64-2.11a6.35,6.35,0,0,0,2.76,1.25c-.45,3.09-.81,3.69-2.47,3.69H44a1.79,1.79,0,0,1-1.92-2V4.32H41a9.58,9.58,0,0,1-2.64,6.19,6.46,6.46,0,0,0-2.4-1.44v1c.31-.05.72-.08.86-.1,0,.5-.09,2-.12,2.64l-.74.05ZM30,6.6l2.31-.43a31.27,31.27,0,0,1,.81,3.24V5.86H30Zm0,3.89c.8-.05,2.31-.15,3.12-.22V9.55a15.58,15.58,0,0,0-2.42.48A15.81,15.81,0,0,0,30,7.1Zm10.59,3.43a8.76,8.76,0,0,0,1.2,1.87A8.4,8.4,0,0,0,43,13.92Z"/><path class="cls-1" d="M62,3.94a.37.37,0,0,1,.19.31c0,.19-.17.24-.29.29s-.31.07-.43.12a24.47,24.47,0,0,1-6.55,8.52,8,8,0,0,0-3-2.45,17.93,17.93,0,0,0,6.64-8.47Zm5.33,7.77a56,56,0,0,1,6.26,9.17,9.06,9.06,0,0,0-3.36,2,23.35,23.35,0,0,0-1-2.11c-5.33.77-10.9,1.2-13.37,1.37,0,.16-.07.64-.43.64s-.34-.16-.41-.52l-.82-3.51c1.18,0,1.73,0,2.6-.07A79.73,79.73,0,0,0,61.18,7.58l3.69,1.25c.12.05.34.12.34.36s-.48.36-.72.39c-.48,1.2-2.07,5.23-4,8.85.6,0,4.37-.33,6.89-.64-1.37-2-2.14-3-3-4.08ZM69.12,1.44c.67,4.3,2.71,6.46,6.27,8.93a6.38,6.38,0,0,0-2.48,2.57,17,17,0,0,1-6.79-8.4H62.57V1.44Z"/><path class="cls-1" d="M94.11,17V22.2h-3V17H89.28a9,9,0,0,1-3.67,5.67,7,7,0,0,0-2.69-1.78v1.73H79.49V1.3H89.55V9.65H82.92V20.91C84.6,20,85.75,19.06,86.23,17H83.76V14.38h2.78c0-.43,0-1,0-1.42H84.36V10.44H96V13H94.11v1.42h2.4V17ZM86.33,3.67H82.92v.89h3.41Zm0,2.71H82.92V7.3h3.41ZM91.06,13H89.57c0,.29,0,1.2,0,1.42h1.54Zm5.13,9.79a8.26,8.26,0,0,0-1.27-3.5,7.5,7.5,0,0,0,1.39.19c.46,0,1,0,1-.84v-9H90.6V1.3h10.11V20C100.71,22.2,99.34,22.78,96.19,22.75ZM97.27,3.67H93.82v.89h3.45Zm0,2.71H93.82V7.3h3.45Z"/><path class="cls-1" d="M113.23,13.68c-.67.58-1.87,1.82-1.87,2.62,0,1.73,3.29,1.73,4.3,1.73a33.37,33.37,0,0,0,9.62-1.45,18.28,18.28,0,0,0,.63,4.09,37,37,0,0,1-9.39,1.1c-3.74,0-5.23-.41-6.41-.89-.77-.31-3-1.44-3-3.86s2.5-4.73,3.48-5.62Zm10.08-7.9a16.77,16.77,0,0,0-6,3.92c-.87-.75-1.78-1.52-2.52-2.07.88-.81,1.1-1,1.8-1.56-1.49.12-5.52.34-7.57.29l-.19-4a48.44,48.44,0,0,0,6,.31,46.11,46.11,0,0,0,6.7-.55ZM124.37,2a16.66,16.66,0,0,1,2.18,2.52,9.65,9.65,0,0,0-1.41,1.73,26.12,26.12,0,0,0-2.31-2.67Zm1.85-2a26.76,26.76,0,0,1,2.25,2.35A9.91,9.91,0,0,0,126.94,4a22.06,22.06,0,0,0-2.09-2.35Z"/><path class="cls-1" d="M144.6,22.8h-3.45V16.39a23.78,23.78,0,0,1-7,6.12A8.3,8.3,0,0,0,131,20.14,20.69,20.69,0,0,0,138.75,14h-6.92V10.87h4.49a19.5,19.5,0,0,0-1.92-3.55l1.73-1H133V3.24h8.19V.79l3.6.22c.28,0,.52.05.52.36s-.48.41-.67.45V3.24h8.14V6.36h-3.12l1.46.62c.17.08.24.17.24.29,0,.31-.29.36-.48.41a21.31,21.31,0,0,1-1.51,3.19h4.54V14h-7.13a18.67,18.67,0,0,0,7.46,5.81,11.28,11.28,0,0,0-2.54,2.59,18.82,18.82,0,0,1-7.06-6.14Zm-3.45-11.93V6.36h-3.1a13.53,13.53,0,0,1,2,3.7,11.63,11.63,0,0,0-1.82.81Zm3.45-4.51v4.51h2.79a17.46,17.46,0,0,0-1.66-.86,18.5,18.5,0,0,0,1.82-3.65Z"/><path class="cls-1" d="M168.55,16.11a16.52,16.52,0,0,1-2.83,2.9,6.18,6.18,0,0,0-2.26-1.61c.44-.33.8-.6,1.35-1.08-1.49.65-3.31,1.35-5.26,2,0,.29-.09.63-.36.63s-.33-.31-.38-.55L158,15a19.09,19.09,0,0,0,2.71-.5V9.05h-2.47V5.93h2.47v-5l3.56.19c.28,0,.5.05.5.26s-.14.29-.5.46V5.93h2.13V9.05h-2.13v4.37c.57-.24.93-.39,1.51-.65h-.17V10.34h14.55v2.43h-9.29l-.46.77H180c0,2.42-.07,7.22-1.63,8.45-.92.72-2.45.79-4,.79a7.31,7.31,0,0,0-.65-2.59,19,19,0,0,1-2.86,3,6,6,0,0,0-2.54-1.54,16.76,16.76,0,0,0,5.06-5.54h-1.08A16.85,16.85,0,0,1,166,22.47a6.23,6.23,0,0,0-2.11-1.92,14.8,14.8,0,0,0,5.59-4.44Zm-2.18-3.34a10.35,10.35,0,0,0-.17,2.14,16,16,0,0,0,1.47-2.14Zm12.1-3.22H167.26V1.1h11.21Zm-3.24-5.13V3.6H170.5v.82ZM170.5,6.34v.81h4.73V6.34Zm5.66,9.77a26,26,0,0,1-1.89,3.33,7.73,7.73,0,0,0,.84,0c.48,0,.91,0,1.08-.6a12.62,12.62,0,0,0,.43-2.78Z"/><path class="cls-1" d="M196,18.67a7.67,7.67,0,0,0,6.74-7.49,5.69,5.69,0,0,0-5.54-5.88c-.75,8.79-4.37,15.34-6.92,15.34-1.87,0-5.35-3.17-5.35-7.61A11.78,11.78,0,0,1,196.68,1.85c5.26,0,9.84,3.57,9.84,9.31a11.16,11.16,0,0,1-2.83,7.42,13.33,13.33,0,0,1-5.21,3.48A15.94,15.94,0,0,0,196,18.67Zm-7.52-5.92c0,1.84,1,3.24,1.54,3.24s1-1.08,1.29-1.71A20.82,20.82,0,0,0,193.15,6,8.18,8.18,0,0,0,188.47,12.75Z"/><path class="cls-1" d="M222.53,10.8a2.89,2.89,0,0,1-.17-1V.65L226,.94c.24,0,.41.09.41.26s-.19.34-.63.58V4.1a25.53,25.53,0,0,0,4.35-2.32L232.63,4c.1.1.22.22.22.34a.34.34,0,0,1-.38.33,2,2,0,0,1-.51-.09,57.54,57.54,0,0,1-6.17,2.69v.76c0,.89.72.89,1.06.89h2.35c.84,0,1.08-1,1.39-2.18a8.4,8.4,0,0,0,2.86,1.29c-.7,4-2.28,4-3.6,4h-5A3.41,3.41,0,0,1,223,11.5c-.17.36-.48,1-.65,1.37h8.16v9.86h-3.75v-.67h-9.36v.67h-3.72V12.87h4.85a20.35,20.35,0,0,0,.87-1.95c-3.44.62-3.75.67-7.16,1.32-.07.29-.17.51-.38.51s-.29-.25-.34-.46l-.81-3.17c.88,0,1.92-.14,2.68-.26V.72l3.89.24a.32.32,0,0,1,.31.34c0,.21-.21.33-.55.5V3.5h4.71V6.38H217v2c2.64-.41,3.82-.67,4.71-.84a16.64,16.64,0,0,0-.36,3l-.19,0Zm4.22,5.57V15.5h-9.36v.87Zm0,3.14v-.93h-9.36v.93Z"/><path class="cls-1" d="M244.25,18.1a25.56,25.56,0,0,0,6.22-3.22V12.12H248a19.6,19.6,0,0,1,1.85,2.4,17,17,0,0,0-2.21,1.71,30.2,30.2,0,0,0-2.19-2.74l1.88-1.37h-2a5.16,5.16,0,0,0,.5.58,5.35,5.35,0,0,0-1.46,2.56,16.66,16.66,0,0,1-1.08-1.53V22.9h-3.15V15.12a14.76,14.76,0,0,1-1.2,2.45,9,9,0,0,0-2.25-2.19,21.4,21.4,0,0,0,3.07-7.56h-2.4V4.92h2.61v-4l3.32.17c.26,0,.55.1.55.36s-.34.36-.55.41V4.92H245v2.9h-1.75v.77A12.7,12.7,0,0,0,245.09,12V9.53h5.38V8.64h-4.06V6.38h4.06V5.5H245.3V3.07h2.36a8.56,8.56,0,0,0-1.06-1.53L249.41.22A20.42,20.42,0,0,1,251,2.66l-.79.41h2.64A17.39,17.39,0,0,0,254,.41l3.08.91c.28.1.48.19.48.36s-.32.34-.72.34c-.17.31-.2.38-.58,1H259V5.5h-5.2v.88h4V8.64h-4v.89h5.71v2.59h-1.78l1.71,1.39a.48.48,0,0,1,.24.36c0,.36-.41.31-.68.31a13.72,13.72,0,0,1-2.44,2.62,11.76,11.76,0,0,0,3.6,2.07,6.26,6.26,0,0,0-1.83,2.49,15.82,15.82,0,0,1-4.53-3.74v1.87c0,2.64-.84,3.41-4.61,3.55a8.4,8.4,0,0,0-1.32-3.36,9.47,9.47,0,0,0,1.51.12c1,0,1.06-.26,1.06-.86v-.89c-.48.29-2.07,1.25-4.32,2.4,0,.14.07.77-.27.77s-.43-.31-.58-.65Zm9.58-4.61a7.59,7.59,0,0,0,1,1.49A15.4,15.4,0,0,0,257,12.12h-3.19Z"/><path class="cls-1" d="M263,13.25a26,26,0,0,0,5.35-5.59c1.94-2.64,2.59-3.51,4.06-3.51s2.49,1,4.05,3a47.59,47.59,0,0,0,9.87,9.77,23.27,23.27,0,0,0-2.69,3.65A75,75,0,0,1,273.55,9.72c-.19-.24-.84-1-1.29-1s-.84.65-1.18,1.13a43.15,43.15,0,0,1-4.9,6.52Z"/></svg>