<svg id="レイヤー_1" data-name="レイヤー 1" xmlns="http://www.w3.org/2000/svg" xmlns:xlink="http://www.w3.org/1999/xlink" viewBox="0 0 330 50"><defs><style>.cls-1{fill:#ff5064;}.cls-2{fill:url(#名称未設定グラデーション_22);}.cls-3{fill:#fff;}</style><linearGradient id="名称未設定グラデーション_22" x1="165" y1="50" x2="165" gradientUnits="userSpaceOnUse"><stop offset="0" stop-opacity="0.15"/><stop offset="0.15" stop-opacity="0.08"/><stop offset="1" stop-opacity="0"/></linearGradient></defs><title>アートボード 3</title><rect class="cls-1" width="330" height="50" rx="5"/><rect class="cls-2" width="330" height="50" rx="5"/><path class="cls-3" d="M127.62,25.52c-3.45,0-5.58-.71-5.58-2.73,0-.9.54-2,2.31-3.47l.94.78c-.3.24-2,1.55-2,2.61a1,1,0,0,0,.51.93,8.93,8.93,0,0,0,3.62.63,19.4,19.4,0,0,0,5.59-.69c.14.63.23,1,.33,1.35A29.86,29.86,0,0,1,127.62,25.52ZM127.27,18c-.1-.12-.57-.55-.85-.84,1.62-1.32,1.92-1.54,2.49-2a34.88,34.88,0,0,1-3.65.16c-1.2,0-1.66,0-2.25-.06l-.1-1.39a22,22,0,0,0,3.55.22,28.11,28.11,0,0,0,4.29-.3l.71,1.16A21.57,21.57,0,0,0,127.27,18Zm5.81-2.26a11.14,11.14,0,0,0-1.46-1.62l.68-.6a12.37,12.37,0,0,1,1.44,1.57A2.72,2.72,0,0,0,133.08,15.71Zm1-1.13a8.32,8.32,0,0,0-1.4-1.63l.65-.57a12.43,12.43,0,0,1,1.47,1.56A2.64,2.64,0,0,0,134.13,14.58Z"/><path class="cls-3" d="M143.1,26.38h-1.19V21a16.57,16.57,0,0,1-5.5,5,3.64,3.64,0,0,0-1-.93,16.38,16.38,0,0,0,5.8-4.68h-5.53V19.34h6.28V15.71H136.3V14.6h5.61V12.66l1.22.11c.09,0,.33,0,.33.19s-.2.21-.36.26V14.6h5.59v1.11H143.1v3.63h6.24V20.4h-5.58a15.83,15.83,0,0,0,5.59,4.52,3.23,3.23,0,0,0-.87,1,15.19,15.19,0,0,1-5.38-4.77Zm-4.16-10.49a15,15,0,0,1,1.49,2.77,7.57,7.57,0,0,0-1.11.59,14,14,0,0,0-1.44-2.81Zm8.16.48c.08,0,.21.09.21.19s-.21.2-.39.21a15.53,15.53,0,0,1-1.26,2.48,7.69,7.69,0,0,0-1.06-.59A14.64,14.64,0,0,0,146,15.83Z"/><path class="cls-3" d="M155.67,21.53c-.71.28-2.61,1.08-4.26,1.64,0,.16,0,.4-.24.4s-.17-.08-.24-.33l-.32-1.14c.71-.17,1.68-.47,2.06-.59V17.19h-1.94V16.05h1.94V12.68l1.23.09c.15,0,.31,0,.31.18s-.16.19-.33.27v2.83h1.91v1.14h-1.91v3.92c.27-.09,1.23-.45,1.91-.77A3.31,3.31,0,0,0,155.67,21.53Zm2.77-1.71c-.19.34-.36.58-.55.91h6c0,1.31-.21,4.27-1,5.15-.21.23-.63.55-2.21.46a3,3,0,0,0-.42-1.29,6.83,6.83,0,0,0,1.13.12c.36,0,.72,0,.93-.93a14.88,14.88,0,0,0,.34-2.5h-.94a13.77,13.77,0,0,1-3.62,4.7,3.11,3.11,0,0,0-.94-.64,11.41,11.41,0,0,0,3.46-4.06h-1.14a12.16,12.16,0,0,1-4.26,4.18,2.24,2.24,0,0,0-.85-.73,10.47,10.47,0,0,0,3.93-3.45h-1.23a12.76,12.76,0,0,1-2.12,2,2.94,2.94,0,0,0-.9-.67,10.39,10.39,0,0,0,3.2-3.22h-1.94v-1h9v1Zm-1.81-1.71v-5H163v5Zm5.25-4.1H157.8v1.1h4.08Zm0,2H157.8v1.17h4.08Z"/><path class="cls-3" d="M177,23.64a8.61,8.61,0,0,1-3.58,2,6.18,6.18,0,0,0-.86-1.15c4.47-1,4.94-4.07,4.94-5.28A4.32,4.32,0,0,0,173,14.84a21.66,21.66,0,0,1-1.64,6.91c-.82,1.95-1.54,2.75-2.37,2.75-1.11,0-2.82-1.75-2.82-4.21A6.91,6.91,0,0,1,173,13.65c3.21,0,5.87,2.15,5.87,5.57A6.38,6.38,0,0,1,177,23.64Zm-9.66-3.42c0,1.62.89,2.81,1.53,2.81s1.19-1.43,1.55-2.37A17.59,17.59,0,0,0,171.63,15,5.63,5.63,0,0,0,167.38,20.22Z"/><path class="cls-3" d="M183.18,19.28a20,20,0,0,0-2.84-1.56l.59-1.13a17.89,17.89,0,0,1,2.85,1.58A7.59,7.59,0,0,0,183.18,19.28ZM182,25.71a1.47,1.47,0,0,1,.12.36c0,.1-.11.15-.18.15a.64.64,0,0,1-.3-.15l-1-.69a25,25,0,0,0,3-5,3.69,3.69,0,0,0,.9.87A32,32,0,0,1,182,25.71Zm2.26-10.56a17.17,17.17,0,0,0-2.44-1.66l.66-1a18.87,18.87,0,0,1,2.46,1.61A4.91,4.91,0,0,0,184.21,15.15Zm.24,10.68V24.67h4.35V20.84h-3.34V19.68h3.34V16.26h-4V15.15h4.58a11.82,11.82,0,0,0-2-2l1-.8a14.79,14.79,0,0,1,2.22,2.15,5.81,5.81,0,0,0-.85.61h4.33v1.11h-4.09v3.42h3.25v1.16h-3.25v3.83h4.3v1.16Z"/><path class="cls-3" d="M195.64,17V16h4.17A10.19,10.19,0,0,0,199,15l.78-.21h-3.34v-1h5.38V12.57l1.28.09c.1,0,.34.05.34.2s-.09.15-.34.22v.68h5.37v1h-2.85l.24,0c.13,0,.3.07.3.19s-.26.2-.42.21c-.24.45-.35.62-.5.86h4.1v1Zm3,6.58a15.2,15.2,0,0,1-1.84,2.55,3.51,3.51,0,0,0-1.05-.66,10.44,10.44,0,0,0,2-2.79l1,.5c.08,0,.24.12.24.22S198.82,23.61,198.64,23.61ZM203,22.28a14.28,14.28,0,0,1,1.25,1.5,9.73,9.73,0,0,0-1,.6A8.73,8.73,0,0,0,202,22.74l.7-.46h-4.63V17.76H207v4.52Zm2.79-3.62h-6.51v.9h6.51Zm0,1.77h-6.51v1h6.51Zm-1.54,5.7h-3c-1.33,0-1.69-.29-1.69-1.42v-2l1.09.11c.11,0,.35,0,.35.19s-.11.15-.32.23v1.14c0,.74.18.74,1,.74h2.49c.9,0,1.1-.17,1.31-1.34a3.07,3.07,0,0,0,1.08.55C206.16,25.73,205.86,26.13,204.24,26.13Zm-4-11.38a8,8,0,0,1,.81,1.09l-.7.2H204a14.44,14.44,0,0,0,.67-1.29Zm8.13,11.17a14.67,14.67,0,0,0-2-2.65l1-.6a16.38,16.38,0,0,1,2,2.58A4.07,4.07,0,0,0,208.39,25.92Z"/><polygon class="cls-3" points="160 35 170 35 165 40 160 35"/></svg>