<svg id="レイヤー_1" data-name="レイヤー 1" xmlns="http://www.w3.org/2000/svg" xmlns:xlink="http://www.w3.org/1999/xlink" viewBox="0 0 340 50"><defs><style>.cls-1{fill:#ff5064;}.cls-2{fill:url(#名称未設定グラデーション_22);}.cls-3{fill:#fff;}</style><linearGradient id="名称未設定グラデーション_22" x1="170" y1="50" x2="170" gradientUnits="userSpaceOnUse"><stop offset="0" stop-opacity="0.15"/><stop offset="0.15" stop-opacity="0.08"/><stop offset="1" stop-opacity="0"/></linearGradient></defs><title>アートボード 2</title><rect class="cls-1" width="340" height="50" rx="5"/><rect class="cls-2" width="340" height="50" rx="5"/><path class="cls-3" d="M76,25.56l-1.14.23a20.09,20.09,0,0,1-.72-5.61,31.89,31.89,0,0,1,.83-7l1.36.48c.14.05.24.08.24.23s-.13.21-.41.22a24.55,24.55,0,0,0-.81,6.26c0,1.11.1,1.87.14,2.42.18-.37.86-2.05,1-2.38a5,5,0,0,0,.73.87A9.44,9.44,0,0,0,76,25.56Zm10.21-1.1a8.57,8.57,0,0,0-2.47-1.55c.15,2.46-2.3,2.65-2.74,2.65a2.42,2.42,0,0,1-2.63-2.19c0-1.38,1.36-2.14,2.82-2.14a5.77,5.77,0,0,1,1.14.12c-.09-1-.1-1.28-.17-4a18.57,18.57,0,0,1-2.59.17c-.53,0-.87,0-1.23-.05v-1.3a16.72,16.72,0,0,0,1.71.09c.37,0,1,0,2.08-.09,0-.77,0-2,0-3.08l1.52.23c.1,0,.24.06.24.18s-.24.22-.35.24c-.09.72-.11,1.59-.15,2.26a16.65,16.65,0,0,0,2.63-.6v1.26c-.36.09-1.07.27-2.64.53a37.4,37.4,0,0,0,.21,4.38,10.67,10.67,0,0,1,3.24,1.77A10.3,10.3,0,0,0,86.16,24.46Zm-3.75-2a3.28,3.28,0,0,0-1.27-.23c-1,0-1.69.36-1.69,1.13S80.26,24.5,81,24.5a1.33,1.33,0,0,0,1.47-1.41A2.92,2.92,0,0,0,82.41,22.49Z"/><path class="cls-3" d="M94.2,25.91c-3.09,0-3.17-3.08-3.17-5.49,0-1.07.19-5.7.19-6.65a6,6,0,0,0,0-.84l1.58.21c.23,0,.37.06.37.2s-.22.24-.39.27a62.34,62.34,0,0,0-.38,6.88c0,2.55.18,4.1,1.94,4.1,3.1,0,5.38-3.42,5.89-4.5a4.8,4.8,0,0,0,1,1.11C98.52,25.46,95.45,25.91,94.2,25.91Zm4.47-9.45a10.83,10.83,0,0,0-1.54-1.62l.7-.63a10.88,10.88,0,0,1,1.55,1.6A2.87,2.87,0,0,0,98.67,16.46ZM100,15.41a9.85,9.85,0,0,0-1.53-1.7l.72-.51a12.22,12.22,0,0,1,1.55,1.59A3.22,3.22,0,0,0,100,15.41Z"/><path class="cls-3" d="M110.54,25.84a4.56,4.56,0,0,0-.68-1.12c1.26-.15,5.18-.87,5.18-4.47a3.5,3.5,0,0,0-3.42-3.57,15.11,15.11,0,0,1-2.37,5.43,11.63,11.63,0,0,0,.81,1.06c-.54.47-.6.52-1.08,1-.22-.35-.42-.62-.64-1-1.34,1.34-2.18,1.55-2.84,1.55-1.23,0-2-1-2-2.35a6.73,6.73,0,0,1,2.22-4.68,33.93,33.93,0,0,1-1-3.66l1.36-.42a17.2,17.2,0,0,0,.66,3.22,7.13,7.13,0,0,1,3.74-1.32,15.94,15.94,0,0,0,.32-2.76l1.47.36c.09,0,.29.08.29.21s-.26.2-.35.21c0,.29-.34,1.68-.4,2a4.61,4.61,0,0,1,4.48,4.74C116.34,23.42,114,25.23,110.54,25.84Zm-4.36-7a5.27,5.27,0,0,0-1.44,3.39c0,.55.16,1.2.9,1.2s1.83-1.1,2-1.37A26.21,26.21,0,0,1,106.18,18.86Zm1-.89a16.44,16.44,0,0,0,1.38,3,13.35,13.35,0,0,0,1.75-4.3A5.79,5.79,0,0,0,107.17,18Z"/><path class="cls-3" d="M127.32,16.14c-.79.54-3.18,2.34-3.18,4.85,0,1.92,1.46,3.46,4.65,3.79a8,8,0,0,0-.57,1.41c-2.74-.56-5.4-2.06-5.4-5.19,0-2,1.16-4.06,4.1-5.82-.38,0-6.89.72-8.1,1l-.21-1.62c.29,0,.48,0,.77,0a85,85,0,0,0,11.81-1.32l.3,1.49A6.82,6.82,0,0,0,127.32,16.14Z"/><path class="cls-3" d="M140.12,25.52c-3.45,0-5.58-.71-5.58-2.73,0-.9.54-2,2.31-3.47l1,.78c-.31.24-2,1.55-2,2.61a1,1,0,0,0,.52.93,8.86,8.86,0,0,0,3.61.63,19.4,19.4,0,0,0,5.59-.69c.14.63.23,1,.33,1.35A29.86,29.86,0,0,1,140.12,25.52ZM139.78,18c-.11-.12-.58-.55-.86-.84,1.62-1.32,1.92-1.54,2.49-2a34.71,34.71,0,0,1-3.65.16c-1.19,0-1.66,0-2.25-.06l-.1-1.39a22,22,0,0,0,3.56.22,28.07,28.07,0,0,0,4.28-.3L144,15A21.2,21.2,0,0,0,139.78,18Zm5.8-2.26a11.14,11.14,0,0,0-1.46-1.62l.68-.6a12.37,12.37,0,0,1,1.44,1.57A2.72,2.72,0,0,0,145.58,15.71Zm1-1.13a8.32,8.32,0,0,0-1.4-1.63l.65-.57a12.43,12.43,0,0,1,1.47,1.56A2.64,2.64,0,0,0,146.63,14.58Z"/><path class="cls-3" d="M155.6,26.38h-1.19V21a16.48,16.48,0,0,1-5.5,5,3.37,3.37,0,0,0-1-.93,16.29,16.29,0,0,0,5.8-4.68h-5.53V19.34h6.28V15.71h-5.6V14.6h5.6V12.66l1.22.11c.09,0,.33,0,.33.19s-.2.21-.36.26V14.6h5.59v1.11H155.6v3.63h6.24V20.4h-5.58a15.83,15.83,0,0,0,5.59,4.52,3.23,3.23,0,0,0-.87,1,15.19,15.19,0,0,1-5.38-4.77Zm-4.15-10.49a14.37,14.37,0,0,1,1.48,2.77,8.11,8.11,0,0,0-1.11.59,13.43,13.43,0,0,0-1.44-2.81Zm8.15.48c.08,0,.21.09.21.19s-.21.2-.39.21a14.74,14.74,0,0,1-1.26,2.48,7.69,7.69,0,0,0-1.06-.59,14.64,14.64,0,0,0,1.35-2.83Z"/><path class="cls-3" d="M168.17,21.53c-.7.28-2.61,1.08-4.26,1.64,0,.16,0,.4-.24.4s-.16-.08-.24-.33l-.32-1.14c.71-.17,1.69-.47,2.06-.59V17.19h-1.93V16.05h1.93V12.68l1.23.09c.15,0,.32,0,.32.18s-.17.19-.33.27v2.83h1.9v1.14h-1.9v3.92c.27-.09,1.22-.45,1.9-.77A3.31,3.31,0,0,0,168.17,21.53ZM171,19.82c-.2.34-.37.58-.56.91h6c0,1.31-.21,4.27-1,5.15-.21.23-.63.55-2.21.46a3,3,0,0,0-.42-1.29,6.83,6.83,0,0,0,1.13.12c.36,0,.72,0,.93-.93a14.88,14.88,0,0,0,.34-2.5h-.94a13.91,13.91,0,0,1-3.61,4.7,3.21,3.21,0,0,0-1-.64,11.22,11.22,0,0,0,3.46-4.06h-1.14a12.2,12.2,0,0,1-4.25,4.18,2.35,2.35,0,0,0-.86-.73,10.47,10.47,0,0,0,3.93-3.45h-1.23a13.08,13.08,0,0,1-2.11,2,3.07,3.07,0,0,0-.9-.67,10.39,10.39,0,0,0,3.19-3.22h-1.93v-1h9v1Zm-1.82-1.71v-5h6.37v5Zm5.25-4.1H170.3v1.1h4.08Zm0,2H170.3v1.17h4.08Z"/><path class="cls-3" d="M181.94,25.44c-1.38,0-3.09-2.49-3.09-6.6a26,26,0,0,1,.62-5.05l1.37.42c.2.06.32.09.32.24s-.21.21-.33.21a14.61,14.61,0,0,0-.69,4.48c0,2.63,1.05,4.7,1.83,4.7s1.47-1.91,1.89-3a4,4,0,0,0,.93.84C184.46,22.56,183.3,25.44,181.94,25.44Zm8.29-2.56a13.09,13.09,0,0,0-2.7-7.62l1.13-.69a15.23,15.23,0,0,1,3,7.72Z"/><path class="cls-3" d="M198.71,16.83a33.17,33.17,0,0,1-4,9.22c-.36-.22-1-.49-1.28-.65A25.43,25.43,0,0,0,197.33,17a32.89,32.89,0,0,1-3.31.17l-.11-1.37c.35,0,.7,0,1.25,0,1,0,1.9-.06,2.47-.11a19.19,19.19,0,0,0,.45-3.07l1.45.37c.23.06.3.14.3.21s-.22.21-.3.21c-.08.33-.42,1.82-.49,2.12a12.16,12.16,0,0,0,3.25-.83l.24,1.28A23.91,23.91,0,0,1,198.71,16.83Zm4.48,8.91c-.94,0-4.21,0-4.21-2.25a3.57,3.57,0,0,1,.82-2.08l1.11.48a2.56,2.56,0,0,0-.73,1.51c0,1,1.53,1.14,3,1.14a11.1,11.1,0,0,0,3.2-.48,5.41,5.41,0,0,0,0,.63,3.53,3.53,0,0,0,.07.77A18.32,18.32,0,0,1,203.19,25.74Zm2.75-6.31a11.64,11.64,0,0,0-2.24-.2,24.32,24.32,0,0,0-3.29.26V18.27a23.72,23.72,0,0,1,3.46-.25,13.49,13.49,0,0,1,2.2.15A7.35,7.35,0,0,0,205.94,19.43Z"/><path class="cls-3" d="M213.71,16.83a33.17,33.17,0,0,1-4,9.22c-.42-.25-1-.52-1.28-.65A25.43,25.43,0,0,0,212.33,17a32.89,32.89,0,0,1-3.31.17l-.11-1.37c.35,0,.7,0,1.25,0,1,0,1.9-.06,2.47-.11a19.19,19.19,0,0,0,.45-3.07l1.45.37c.23.06.3.14.3.21s-.22.21-.3.21c-.08.33-.42,1.82-.49,2.12a12.16,12.16,0,0,0,3.25-.83l.24,1.28A23.91,23.91,0,0,1,213.71,16.83Zm4.48,8.91c-.94,0-4.21,0-4.21-2.25a3.57,3.57,0,0,1,.82-2.08l1.11.48a2.56,2.56,0,0,0-.73,1.51c0,1,1.53,1.14,3,1.14a11.1,11.1,0,0,0,3.2-.48,2.94,2.94,0,0,0-.05.51,3.87,3.87,0,0,0,.09.89A18.32,18.32,0,0,1,218.19,25.74Zm2.75-6.31a11.64,11.64,0,0,0-2.24-.2,24.32,24.32,0,0,0-3.29.26V18.27a23.72,23.72,0,0,1,3.46-.25,13.49,13.49,0,0,1,2.2.15A7.35,7.35,0,0,0,220.94,19.43Zm-1.08-3.23a14.08,14.08,0,0,0-1.43-1.6l.71-.53a12.76,12.76,0,0,1,1.45,1.58A2.51,2.51,0,0,0,219.86,16.2Zm1.44-1a8.72,8.72,0,0,0-1.44-1.65l.7-.5A11.45,11.45,0,0,1,222,14.64,6.72,6.72,0,0,0,221.3,15.2Z"/><path class="cls-3" d="M233.14,26.58a27,27,0,0,0-6.2-5.46C225.29,20,225.2,20,225.2,19.41s.21-.66,1.56-1.69a36.26,36.26,0,0,0,5.63-5.31l1.19.84c.15.1.24.16.24.28s-.07.15-.21.15l-.25,0c-1,1-3.79,3.34-5.85,5-.23.17-.67.54-.67.78s.09.32.9.84a29.21,29.21,0,0,1,6.46,5.24C233.9,25.74,233.48,26.22,233.14,26.58Z"/><path class="cls-3" d="M249.8,18.45c0,.38,0,5.15-1.08,6.83-.69,1-1.74,1-3.09,1.08a3.13,3.13,0,0,0-.53-1.4,6.83,6.83,0,0,0,1.19.12A1.5,1.5,0,0,0,248,23.84a16.28,16.28,0,0,0,.51-4.23h-4A10.44,10.44,0,0,1,239,26.29a2.75,2.75,0,0,0-1.07-1c5.19-2.05,5.69-6.54,5.73-9.07h-5.52v-1.2h6.22V12.62l1.31.1c.16,0,.36,0,.36.2s-.17.19-.36.24v1.89h6.21v1.2h-6.94a15.77,15.77,0,0,1-.2,2.2Z"/><path class="cls-3" d="M266.19,24.33a44.77,44.77,0,0,1-6.41-6.66c-.68-.81-.89-1-1.23-1s-.73.32-1.37,1.17a29.77,29.77,0,0,1-3.32,4.08l-1.09-1.06a24.7,24.7,0,0,0,4.17-4.64c.63-.81,1.14-1,1.59-1,.94,0,1.42.6,2.36,1.76a35.06,35.06,0,0,0,6.22,6.13C266.7,23.63,266.64,23.71,266.19,24.33Z"/><polygon class="cls-3" points="165 35 175 35 170 40 165 35"/></svg>