<svg width="311" height="27" viewBox="0 0 311 27" fill="none" xmlns="http://www.w3.org/2000/svg">
<path d="M63.9205 8.13661V18.1309C63.9205 23.8897 59.9079 26.3046 55.3009 26.3046C50.6939 26.3046 46.6813 23.8897 46.6813 18.1309V8.17376C46.6813 2.1549 50.6939 0 55.3009 0C59.9079 0 63.9205 2.1549 63.9205 8.13661ZM58.719 8.6196C58.719 5.87025 57.6044 4.38411 55.3009 4.38411C52.9602 4.38411 51.8456 5.87025 51.8456 8.6196V17.685C51.8456 20.4344 52.9602 21.9205 55.3009 21.9205C57.6044 21.9205 58.719 20.4344 58.719 17.685V8.6196Z" fill="white"/>
<path d="M42.9273 21.5862V25.9703H27.1V22.6265L35.6824 12.5207C37.28 10.663 38.0602 9.1026 38.0602 7.43069C38.0602 5.3501 36.5369 4.3098 34.865 4.3098C33.1188 4.3098 31.8184 5.38725 31.6698 7.43069H27.0628C27.0628 3.00943 30.7038 0 35.1251 0C39.7321 0 43.2246 3.1952 43.2246 7.43069C43.2246 10.8117 40.9953 13.4496 39.3606 15.3815L34.0848 21.5862H42.9273Z" fill="white"/>
<path d="M22.9623 20.1743V25.9703H17.1663V20.1743H22.9623Z" fill="white"/>
<path d="M4.16119 25.9703L9.54844 15.4187C8.73106 15.7902 7.95084 15.9017 7.05916 15.9017C3.12089 15.9017 0 12.6693 0 8.24807C0 2.56359 3.86396 0 8.6196 0C13.4124 0 17.2764 2.52644 17.2764 8.21091C17.2764 10.2172 16.3475 12.595 14.8985 15.5301L9.7342 25.9703H4.16119ZM12.0749 8.02515C12.0749 5.87025 10.886 4.38411 8.6196 4.38411C6.39039 4.38411 5.20148 5.87025 5.20148 8.02515C5.20148 10.1429 6.39039 11.629 8.6196 11.629C10.886 11.629 12.0749 10.1429 12.0749 8.02515Z" fill="white"/>
<path d="M90.3886 0V9.65116H88.4304V0H90.3886Z" fill="white"/>
<path d="M86.6513 9.65116H84.4973L82.7629 5.86063H81.1963V9.65116H79.2381V0H82.693C84.9169 0 86.3017 0.993091 86.3017 2.9513C86.3017 4.2521 85.7002 5.10532 84.6512 5.53893L86.6513 9.65116ZM81.1963 4.21014H82.5111C83.6721 4.21014 84.3434 3.95837 84.3434 2.9513C84.3434 1.94422 83.6721 1.66448 82.5111 1.66448H81.1963V4.21014Z" fill="white"/>
<path d="M71.3845 0H77.399V1.66448H73.3427V4.05628H76.9793V5.70677H73.3427V9.65116H71.3845V0Z" fill="white"/>
<path d="M82.7326 19.6844V23.447C82.7326 25.615 81.222 26.5242 79.4875 26.5242C77.7531 26.5242 76.2425 25.615 76.2425 23.447V19.6984C76.2425 17.4325 77.7531 16.6213 79.4875 16.6213C81.222 16.6213 82.7326 17.4325 82.7326 19.6844ZM80.7744 19.8663C80.7744 18.8312 80.3548 18.2717 79.4875 18.2717C78.6064 18.2717 78.1867 18.8312 78.1867 19.8663V23.2792C78.1867 24.3142 78.6064 24.8737 79.4875 24.8737C80.3548 24.8737 80.7744 24.3142 80.7744 23.2792V19.8663Z" fill="white"/>
<path d="M74.2278 16.7471V26.3983H72.2696V18.7892L70.8849 19.6984V17.8101L72.4654 16.7471H74.2278Z" fill="white"/>
<path d="M102.334 19.6844V23.447C102.334 25.615 100.824 26.5242 99.0894 26.5242C97.3549 26.5242 95.8443 25.615 95.8443 23.447V19.6984C95.8443 17.4325 97.3549 16.6213 99.0894 16.6213C100.824 16.6213 102.334 17.4325 102.334 19.6844ZM100.376 19.8663C100.376 18.8312 99.9566 18.2717 99.0894 18.2717C98.2082 18.2717 97.7886 18.8312 97.7886 19.8663V23.2792C97.7886 24.3142 98.2082 24.8737 99.0894 24.8737C99.9566 24.8737 100.376 24.3142 100.376 23.2792V19.8663Z" fill="white"/>
<path d="M94.6411 19.6845V23.447C94.6411 25.615 93.1305 26.5242 91.3961 26.5242C89.6617 26.5242 88.151 25.615 88.151 23.447V19.6985C88.151 17.4325 89.6617 16.6213 91.3961 16.6213C93.1305 16.6213 94.6411 17.4325 94.6411 19.6845ZM92.6829 19.8663C92.6829 18.8313 92.2633 18.2718 91.3961 18.2718C90.5149 18.2718 90.0953 18.8313 90.0953 19.8663V23.2792C90.0953 24.3142 90.5149 24.8737 91.3961 24.8737C92.2633 24.8737 92.6829 24.3142 92.6829 23.2792V19.8663Z" fill="white"/>
<path d="M86.3648 18.4057V20.3219H84.4625V18.4057H86.3648ZM86.3648 23.497V25.3992H84.4625V23.497H86.3648Z" fill="white"/>
<path d="M266.385 0.334381L261.035 10.886C261.815 10.5144 262.595 10.403 263.524 10.403C267.462 10.403 270.546 13.6353 270.546 18.0566C270.546 23.7411 266.719 26.3046 261.963 26.3046C257.171 26.3046 253.307 23.7782 253.307 18.0937C253.307 16.0874 254.198 13.7096 255.647 10.7745L260.812 0.334381H266.385ZM258.508 18.2795C258.508 20.4344 259.66 21.9205 261.963 21.9205C264.193 21.9205 265.344 20.4344 265.344 18.2795C265.344 16.1618 264.193 14.6756 261.963 14.6756C259.66 14.6756 258.508 16.1618 258.508 18.2795Z" fill="white"/>
<path d="M249.652 20.1743V25.9703H243.856V20.1743H249.652Z" fill="white"/>
<path d="M240.213 8.13661V18.1309C240.213 23.8897 236.201 26.3046 231.594 26.3046C226.987 26.3046 222.974 23.8897 222.974 18.1309V8.17376C222.974 2.1549 226.987 0 231.594 0C236.201 0 240.213 2.1549 240.213 8.13661ZM235.012 8.6196C235.012 5.87025 233.897 4.38411 231.594 4.38411C229.253 4.38411 228.139 5.87025 228.139 8.6196V17.685C228.139 20.4344 229.253 21.9205 231.594 21.9205C233.897 21.9205 235.012 20.4344 235.012 17.685V8.6196Z" fill="white"/>
<path d="M216.88 0.334381V25.9703H211.678V5.75879L208 8.17376V3.15804L212.198 0.334381H216.88Z" fill="white"/>
<path d="M301.05 0.125861H302.91V9.77702H301.273L297.511 3.80449V9.77702H295.65V0.125861H297.273L301.05 6.18231V0.125861Z" fill="white"/>
<path d="M291.51 0.125861H293.468V5.86061C293.468 8.71399 291.902 9.9029 289.762 9.9029C287.622 9.9029 286.055 8.71399 286.055 5.87459V0.125861H288.013V5.87459C288.013 7.52508 288.559 8.25242 289.762 8.25242C290.965 8.25242 291.51 7.52508 291.51 5.87459V0.125861Z" fill="white"/>
<path d="M284.22 1.58055L282.751 2.62959C282.332 1.97219 281.828 1.65049 280.849 1.65049C279.968 1.65049 279.492 2.05612 279.492 2.71351C279.492 3.46882 280.108 3.80451 281.395 4.12622C283.409 4.62976 284.318 5.38507 284.318 7.0915C284.318 8.67205 283.255 9.90293 280.989 9.90293C279.297 9.90293 278.122 9.44135 277.268 8.32237L278.765 7.28732C279.283 7.93073 279.87 8.25244 280.863 8.25244C281.982 8.25244 282.36 7.76289 282.36 7.17543C282.36 6.50404 281.954 6.12639 280.388 5.72076C278.485 5.21722 277.534 4.30805 277.534 2.71351C277.534 1.18891 278.541 0 280.835 0C282.374 0 283.535 0.517526 284.22 1.58055Z" fill="white"/>
<path d="M310.766 19.6844V23.447C310.766 25.615 309.256 26.5242 307.521 26.5242C305.787 26.5242 304.276 25.615 304.276 23.447V19.6984C304.276 17.4325 305.787 16.6213 307.521 16.6213C309.256 16.6213 310.766 17.4325 310.766 19.6844ZM308.808 19.8663C308.808 18.8312 308.388 18.2717 307.521 18.2717C306.64 18.2717 306.22 18.8312 306.22 19.8663V23.2792C306.22 24.3142 306.64 24.8737 307.521 24.8737C308.388 24.8737 308.808 24.3142 308.808 23.2792V19.8663Z" fill="white"/>
<path d="M303.073 19.6845V23.447C303.073 25.615 301.562 26.5242 299.828 26.5242C298.093 26.5242 296.583 25.615 296.583 23.447V19.6985C296.583 17.4325 298.093 16.6213 299.828 16.6213C301.562 16.6213 303.073 17.4325 303.073 19.6845ZM301.115 19.8663C301.115 18.8313 300.695 18.2718 299.828 18.2718C298.947 18.2718 298.527 18.8313 298.527 19.8663V23.2792C298.527 24.3142 298.947 24.8737 299.828 24.8737C300.695 24.8737 301.115 24.3142 301.115 23.2792V19.8663Z" fill="white"/>
<path d="M294.796 18.4057V20.3219H292.894V18.4057H294.796ZM294.796 23.497V25.3992H292.894V23.497H294.796Z" fill="white"/>
<path d="M287.55 16.7471H289.69L286.682 23.3631H288.529V20.9013H290.487V23.3631H291.368V25.0275H290.487V26.3983H288.529V25.0275H284.249V23.6708L287.55 16.7471Z" fill="white"/>
<path d="M283.241 24.7478V26.3983H277.282V25.1395L280.513 21.335C281.115 20.6356 281.409 20.0481 281.409 19.4187C281.409 18.6354 280.835 18.2438 280.206 18.2438C279.548 18.2438 279.059 18.6494 279.003 19.4187H277.268C277.268 17.7542 278.639 16.6213 280.304 16.6213C282.038 16.6213 283.353 17.8242 283.353 19.4187C283.353 20.6916 282.514 21.6846 281.898 22.412L279.912 24.7478H283.241Z" fill="white"/>
<path d="M117 13H193" stroke="white"/>
</svg>
