<svg id="レイヤー_1" data-name="レイヤー 1" xmlns="http://www.w3.org/2000/svg" viewBox="0 0 987.53 346.76"><defs><style>.cls-1{opacity:0.3;}.cls-2{fill:none;stroke:#d4d4d4;stroke-linecap:round;stroke-linejoin:round;}.cls-3{fill:#d4d4d4;}</style></defs><title>h1_bkLogo</title><g class="cls-1"><polygon class="cls-2" points="408.84 28.92 408.84 132.06 372.8 132.06 372.8 28.92 338.58 28.92 338.58 1 443.05 1 443.05 28.92 408.84 28.92"/><path class="cls-2" d="M514.77,86.17H500.06v45.89H464.53V1h51.69c34.19,0,51.68,15.29,51.68,41.5,0,17.12-7.83,29.17-21.2,35.1l28.95,52.66v1.8H538.87Zm-14.71-60V61.65h13c15.08,0,20.84-6.53,20.84-18.24,0-12.08-6.31-17.21-21.39-17.21Z"/><polygon class="cls-2" points="595.24 1 680.76 1 680.76 26.87 630.79 26.87 630.79 52.15 673.52 52.15 673.52 77.81 630.79 77.81 630.79 106.26 681.7 106.26 681.7 132.06 595.24 132.06 595.24 1"/><polygon class="cls-2" points="804.59 134.57 739.48 60.02 739.48 133.15 708.83 133.15 708.83 1 730.18 1 794.54 74.68 794.54 2.31 825.2 2.31 825.2 134.57 804.59 134.57"/><path class="cls-2" d="M854,1h47.12c42.24,0,74.78,19.29,74.78,66.59,0,47.53-32.54,65.25-74.78,65.25H854Zm35.83,26.59v78.69h9.4c23.94,0,40-9.32,40-38.69,0-28.78-16.1-40-40-40Z"/><path class="cls-2" d="M66.6,102.78l.2,7.31H52.86v-6.42H14.38v6.42H.5c0-2,.14-4.73.14-7.31V33.4C.64,30.8.52,28,.5,26.11H66.8c-.08,2.43-.2,4.69-.2,7.29ZM14.38,57.86H52.86V38.34H14.38Zm38.48,12.2H14.38V91.31H52.86Z"/><path class="cls-2" d="M111.83,105.91c0,1.46,0,3.12.09,4.4H100.35a34.53,34.53,0,0,0,.18-4.4V71.4c-4,.4-7.61.66-10,.89-1.15.11-3.31.43-4.58.69l-1.46-11.2c1.3.09,3.8.09,6,0a18.42,18.42,0,0,0,2.42-.12c1.76-2,3.6-4.29,5.46-6.74-4.29-5-9-9.83-13.24-13.92l6-9.25c.84.85,1.93,2.06,3,3.21,3.69-5.27,7.3-11.6,8.47-15.3l9.85,5.8a13.94,13.94,0,0,0-1.17,1.47,126.12,126.12,0,0,1-10.13,16c1.07,1.27,2.13,2.54,3.11,3.79,5-7.07,9.28-14.14,10.9-18.38l9.65,5.74a10.13,10.13,0,0,1-1.35,1.6c-4.27,7-11.3,16.77-17.84,25.16,3.13-.26,6.23-.56,8.88-.86a66.47,66.47,0,0,0-2.45-7.32l8.58-2.24a130.12,130.12,0,0,1,6.24,21c-2.83.91-6.51,2-9.44,2.76-.19-1.36-.5-2.93-.81-4.48-1.46.07-3.08.29-4.86.43Zm-23-29.63c3.1.49,6.83,1.09,9.33,1.57,0,.38-.17,1.1-.28,1.94-.28,10.74-1.26,18.5-3.31,25.83-1.66-.67-6.25-2.45-9.35-3.59,2.33-6.65,3.41-15.42,3.61-25.75m81.39,20.94c2.71,0,5,0,6.8-.17v12.07c-1.85-.17-4.09-.17-6.8-.17H128.9c-2.65,0-5,0-6.92.17v-12l-5.48,1.53a132,132,0,0,0-2.62-21.63l8.39-2.21A136.43,136.43,0,0,1,126.07,96c-.6.2-2,.69-3.7,1.08,1.84.17,4.08.17,6.53.17h15.78V86.61h-9.93c-2.36,0-4.19,0-6,.09V75.43c1.77,0,3.6,0,6,0h9.93V69.42c0-.86-.08-2.54-.17-3.44,2.79.08,10.42.25,13.15.47a29.62,29.62,0,0,0-.2,3v6.06H168c2.33,0,4.28,0,5.93,0V86.7c-1.65-.09-3.6-.09-5.93-.09H157.46V97.22ZM141.46,52.41a44.85,44.85,0,0,1-9.85-16.28c-1.85,0-3.61,0-5.06.1V25c1.58.1,3.41.1,5.35.1h31.8l.86-1a92.15,92.15,0,0,1,10.26,8.47c-.42.3-1,.5-1.48.79-2.34,8-7.21,14.35-12.2,19.29A69.39,69.39,0,0,0,177,56.81c-1.47,3.39-3.69,9-4.59,11.7-7.29-1.79-14.88-4-20.83-7.91-5.85,3.69-13.06,5.85-20.57,7.91-1-2.85-3.71-8.51-5.34-12.12a63.31,63.31,0,0,0,15.76-4m18.63-16.28H143.7a29.26,29.26,0,0,0,7.83,10.61,28.57,28.57,0,0,0,8.56-10.61"/><path class="cls-3" d="M285.78,1h0m0,0-72.1,131.36h-5.47L280.34,1h5.44m0-1h-5.45a1,1,0,0,0-.87.52L207.33,131.88a1,1,0,0,0,.88,1.48h5.47a1,1,0,0,0,.87-.51L286.63,1.53a1,1,0,0,0,.16-.53,1,1,0,0,0-1-1Zm0,2h0Z"/><path class="cls-3" d="M294.91,1h0m0,0L222.79,132.36h-5.45L289.46,1h5.45m0-1h-5.45a1,1,0,0,0-.88.52L216.46,131.88a1,1,0,0,0,.88,1.48h5.45a1,1,0,0,0,.88-.51L295.76,1.53a.94.94,0,0,0,.15-.53,1,1,0,0,0-1-1Zm0,2Z"/><path class="cls-3" d="M304.06,1h0m0,0L231.91,132.36h-5.44L298.61,1h5.45m0-1h-5.45a1,1,0,0,0-.88.52L225.59,131.88a1,1,0,0,0,0,1,1,1,0,0,0,.86.49h5.44a1,1,0,0,0,.88-.51L304.91,1.53a1,1,0,0,0,.15-.53,1,1,0,0,0-1-1Zm0,2Z"/><path class="cls-3" d="M313.17,1h0m0,0L241,132.36h-5.44L307.75,1h5.42m0-1h-5.43a1,1,0,0,0-.88.52L234.7,131.88a1,1,0,0,0,0,1,1,1,0,0,0,.86.49H241a1,1,0,0,0,.88-.51L314,1.53a1,1,0,0,0,.16-.53,1,1,0,0,0-1-1Zm0,2h0Z"/><path class="cls-3" d="M322.29,1h0m0,0L250.16,132.36h-5.44L316.85,1h5.44m0-1h-5.45a1,1,0,0,0-.87.52L243.84,131.88a1,1,0,0,0,.88,1.48h5.44a1,1,0,0,0,.88-.51L323.14,1.53A1,1,0,0,0,323.3,1a1,1,0,0,0-1-1Zm0,2h0Z"/><polygon class="cls-2" points="230.88 33.87 243.89 58.26 245.71 54.39 234.43 33.87 237.42 33.87 247.15 51.49 248.72 47.95 240.96 33.87 243.91 33.87 250.14 45.19 260.73 22.84 248.76 1 206.32 1 240.66 65.19 242.25 61.6 227.93 33.87 230.88 33.87"/><polygon class="cls-2" points="288.06 132.36 291.61 132.36 274.29 100.87 272.63 104.29 288.06 132.36"/><polygon class="cls-2" points="281.75 132.36 285.3 132.36 271.38 107.03 269.77 110.61 281.75 132.36"/><polygon class="cls-2" points="275.72 98.04 294.57 132.36 298.11 132.36 277.32 94.49 275.72 98.04"/><polygon class="cls-2" points="279.14 90.85 301.08 132.36 324.2 132.36 289.86 68.22 279.14 90.85"/><path class="cls-2" d="M987,176.3l-797.42.62c-34.2,0-61.88,17.05-75.73,43.76v-41H.5V346.26H902.68c48.84,0,84.35-35,84.35-84.45Z"/><path class="cls-2" d="M48.91,277.62v51.06H15.48V194.84H98.84v24.62H48.91v33.47H93.37v24.69Z"/><path class="cls-2" d="M120.59,261.33c0-39.73,28-69.21,70.27-69.21,42.47,0,70.24,29.48,70.24,69.21,0,39.56-27.77,70.07-70.24,70.07C148.58,331.4,120.59,300.89,120.59,261.33Zm105.89,0c0-26.78-13.74-43.6-35.62-43.6s-35.64,16.82-35.64,43.6,13.51,44.24,35.64,44.24C213.16,305.57,226.48,288,226.48,261.33Z"/><path class="cls-2" d="M329.77,280.52h-16v48.16H280.28V194.84H331c34.23,0,52.28,15.24,52.28,41.86,0,18-8.41,30.11-22.92,36l31.14,54.19v1.77h-35Zm-16-61.7v38.43h14.68c16.09,0,22.48-7.09,22.48-19.82s-7-18.61-23-18.61Z"/><path class="cls-2" d="M585.28,328.68H557.87V194.84h39.54L621.27,259l6.48,23.54L634.43,259l24.47-64.13h40.28V328.68h-31.3V274.49l2.35-43.08L658.68,268.6l-22.52,60.08H616.37L594.45,268.6,582.92,230l2.36,44.45Z"/><path class="cls-2" d="M410.87,276.25V194.52h34.24v81.13c0,18.65,9,28.1,25.34,28.1s25.75-9.45,25.75-28.1V194.52h30.46v81.73c0,34.19-20.45,55-57.39,55C431.93,331.26,410.87,312,410.87,276.25Z"/><path class="cls-2" d="M730,287.62l19.75-21.85c5.49-6.35,8.47-11.55,8.47-17.28,0-5.3-3-9.43-10.72-9.43-6.75,0-10.89,1.79-16.09,5.09l-.75-.31V230.71c4.78-3.08,10.82-5,20.15-5,14.92,0,24.58,7.51,24.58,21.06,0,9.66-5.32,17.48-12.91,26.1L750.3,285.82l11.56-1h14.51v12.51H730Z"/><path class="cls-2" d="M785,261.85c0-23.09,12.71-36.12,30.71-36.12s30.52,13,30.62,36.12-12.5,36.77-30.62,36.77S785.09,285,785,261.85Zm43.43,0c0-15.47-4.22-23.22-12.72-23.22S803,246.38,803,261.85s4.33,23.74,12.71,23.74S828.42,277.43,828.42,261.85Z"/><path class="cls-2" d="M851.78,287.62l19.75-21.85c5.49-6.35,8.46-11.55,8.46-17.28,0-5.3-3-9.43-10.71-9.43-6.76,0-10.9,1.79-16.09,5.09l-.76-.31V230.71c4.78-3.08,10.83-5,20.15-5,14.92,0,24.58,7.51,24.58,21.06,0,9.66-5.31,17.48-12.91,26.1L872,285.82l11.57-1h14.5v12.51H851.78Z"/><path class="cls-2" d="M906.74,261.85c0-23.09,12.7-36.12,30.7-36.12s30.53,13,30.63,36.12-12.51,36.77-30.63,36.77S906.83,285,906.74,261.85Zm43.42,0c0-15.47-4.21-23.22-12.72-23.22s-12.71,7.75-12.71,23.22,4.34,23.74,12.71,23.74S950.16,277.43,950.16,261.85Z"/></g></svg>