<svg id="レイヤー_1" data-name="レイヤー 1" xmlns="http://www.w3.org/2000/svg" viewBox="0 0 654.65 229.11"><defs><style>.cls-1,.cls-2{fill:#fff;}.cls-1{stroke:#fff;stroke-linecap:round;stroke-linejoin:round;stroke-width:4px;}.cls-3{fill:#231815;}.cls-4{fill:#d32f2f;}</style></defs><title>h1_logo</title><path class="cls-1" d="M48.2,67.87l.13,4.82H39.15V68.46H13.8v4.23H4.65c0-1.33.09-3.12.09-4.82V22.16c0-1.71-.08-3.53-.09-4.8H48.33c0,1.6-.13,3.09-.13,4.8ZM13.8,38.28H39.15V25.42H13.8Zm25.35,8H13.8v14H39.15Z"/><path class="cls-1" d="M78,69.93c0,1,0,2.06.06,2.91H70.44a22.65,22.65,0,0,0,.12-2.91V47.2c-2.64.26-5,.44-6.56.58-.76.08-2.19.29-3,.46l-1-7.38c.86.06,2.51.06,3.94,0a11.92,11.92,0,0,0,1.59-.08c1.16-1.34,2.38-2.82,3.6-4.44-2.83-3.27-5.9-6.48-8.72-9.17l4-6.1c.56.57,1.27,1.36,2,2.12,2.44-3.47,4.82-7.64,5.59-10.08l6.49,3.82a8.16,8.16,0,0,0-.77,1A82.82,82.82,0,0,1,71,28.45c.71.84,1.4,1.68,2,2.5,3.33-4.66,6.11-9.31,7.18-12.11l6.36,3.78a6.46,6.46,0,0,1-.89,1.06c-2.82,4.58-7.44,11-11.75,16.58,2.06-.18,4.1-.37,5.85-.57a42.93,42.93,0,0,0-1.62-4.82l5.66-1.48A87.32,87.32,0,0,1,88,47.25c-1.86.61-4.29,1.33-6.22,1.83-.12-.9-.33-1.93-.53-3-1,.05-2,.19-3.21.29ZM62.85,50.41c2.05.32,4.5.72,6.15,1,0,.25-.11.72-.18,1.28a68.16,68.16,0,0,1-2.18,17c-1.1-.45-4.12-1.62-6.16-2.37,1.53-4.38,2.24-10.16,2.37-17m53.63,13.8c1.78,0,3.26,0,4.48-.11v8c-1.22-.11-2.7-.11-4.48-.11H89.25c-1.75,0-3.27,0-4.56.11V64.16l-3.61,1a85.75,85.75,0,0,0-1.73-14.25l5.53-1.46a90.94,90.94,0,0,1,2.51,13.92c-.4.14-1.35.46-2.44.72,1.21.11,2.69.11,4.3.11h10.4v-7H93.1c-1.55,0-2.76,0-3.92.06V49.85c1.16,0,2.37,0,3.92,0h6.55v-4c0-.57-.06-1.68-.12-2.27,1.84,0,6.87.16,8.67.31a18.25,18.25,0,0,0-.13,2v4H115c1.53,0,2.82,0,3.91,0v7.43c-1.09-.06-2.38-.06-3.91-.06h-6.93v7Zm-19-29.52A29.87,29.87,0,0,1,91,24c-1.22,0-2.37,0-3.33.06V16.64c1,.07,2.24.07,3.53.07h21l.57-.66a60.77,60.77,0,0,1,6.75,5.59c-.27.19-.66.32-1,.51a30,30,0,0,1-8,12.72A45.63,45.63,0,0,0,121,37.58c-1,2.24-2.43,5.91-3,7.72-4.81-1.18-9.81-2.66-13.73-5.22-3.85,2.43-8.6,3.86-13.55,5.22-.65-1.88-2.45-5.61-3.52-8a41.74,41.74,0,0,0,10.38-2.62M109.8,24H99a19.35,19.35,0,0,0,5.16,7,18.87,18.87,0,0,0,5.64-7"/><polygon class="cls-2" points="273.69 19.21 273.69 87.17 249.95 87.17 249.95 19.21 227.4 19.21 227.4 0.81 296.23 0.81 296.23 19.21 273.69 19.21"/><path class="cls-2" d="M343.49,56.93H333.8V87.16H310.39V.81h34.05c22.53,0,34.05,10.08,34.05,27.35,0,11.28-5.15,19.22-14,23.12L383.6,86v1.18H359.37ZM333.8,17.42V40.77h8.55c9.93,0,13.73-4.3,13.73-12,0-8-4.16-11.34-14.09-11.34Z"/><polygon class="cls-2" points="396.51 0.81 452.86 0.81 452.86 17.86 419.93 17.86 419.93 34.51 448.08 34.51 448.08 51.42 419.93 51.42 419.93 70.17 453.48 70.17 453.48 87.17 396.51 87.17 396.51 0.81"/><polygon class="cls-2" points="534.44 88.82 491.55 39.7 491.55 87.88 471.35 87.88 471.35 0.81 485.41 0.81 527.82 49.36 527.82 1.68 548.02 1.68 548.02 88.82 534.44 88.82"/><path class="cls-2" d="M567,.81h31.05c27.82,0,49.27,12.71,49.27,43.87,0,31.32-21.45,43-49.27,43H567Zm23.61,17.52V70.18h6.19c15.77,0,26.38-6.14,26.38-25.5,0-19-10.61-26.35-26.38-26.35Z"/><path class="cls-3" d="M48.2,67.87l.13,4.82H39.15V68.46H13.8v4.23H4.65c0-1.33.09-3.12.09-4.82V22.16c0-1.71-.08-3.53-.09-4.8H48.33c0,1.6-.13,3.09-.13,4.8ZM13.8,38.28H39.15V25.42H13.8Zm25.35,8H13.8v14H39.15Z"/><path class="cls-3" d="M78,69.93c0,1,0,2.06.06,2.91H70.44a22.65,22.65,0,0,0,.12-2.91V47.2c-2.64.26-5,.44-6.56.58-.76.08-2.19.29-3,.46l-1-7.38c.86.06,2.51.06,3.94,0a11.92,11.92,0,0,0,1.59-.08c1.16-1.34,2.38-2.82,3.6-4.44-2.83-3.27-5.9-6.48-8.72-9.17l4-6.1c.56.57,1.27,1.36,2,2.12,2.44-3.47,4.82-7.64,5.59-10.08l6.49,3.82a8.16,8.16,0,0,0-.77,1A82.82,82.82,0,0,1,71,28.45c.71.84,1.4,1.68,2,2.5,3.33-4.66,6.11-9.31,7.18-12.11l6.36,3.78a6.46,6.46,0,0,1-.89,1.06c-2.82,4.58-7.44,11-11.75,16.58,2.06-.18,4.1-.37,5.85-.57a42.93,42.93,0,0,0-1.62-4.82l5.66-1.48A87.32,87.32,0,0,1,88,47.25c-1.86.61-4.29,1.33-6.22,1.83-.12-.9-.33-1.93-.53-3-1,.05-2,.19-3.21.29ZM62.85,50.41c2.05.32,4.5.72,6.15,1,0,.25-.11.72-.18,1.28a68.16,68.16,0,0,1-2.18,17c-1.1-.45-4.12-1.62-6.16-2.37,1.53-4.38,2.24-10.16,2.37-17m53.63,13.8c1.78,0,3.26,0,4.48-.11v8c-1.22-.11-2.7-.11-4.48-.11H89.25c-1.75,0-3.27,0-4.56.11V64.16l-3.61,1a85.75,85.75,0,0,0-1.73-14.25l5.53-1.46a90.94,90.94,0,0,1,2.51,13.92c-.4.14-1.35.46-2.44.72,1.21.11,2.69.11,4.3.11h10.4v-7H93.1c-1.55,0-2.76,0-3.92.06V49.85c1.16,0,2.37,0,3.92,0h6.55v-4c0-.57-.06-1.68-.12-2.27,1.84,0,6.87.16,8.67.31a18.25,18.25,0,0,0-.13,2v4H115c1.53,0,2.82,0,3.91,0v7.43c-1.09-.06-2.38-.06-3.91-.06h-6.93v7Zm-19-29.52A29.87,29.87,0,0,1,91,24c-1.22,0-2.37,0-3.33.06V16.64c1,.07,2.24.07,3.53.07h21l.57-.66a60.77,60.77,0,0,1,6.75,5.59c-.27.19-.66.32-1,.51a30,30,0,0,1-8,12.72A45.63,45.63,0,0,0,121,37.58c-1,2.24-2.43,5.91-3,7.72-4.81-1.18-9.81-2.66-13.73-5.22-3.85,2.43-8.6,3.86-13.55,5.22-.65-1.88-2.45-5.61-3.52-8a41.74,41.74,0,0,0,10.38-2.62M109.8,24H99a19.35,19.35,0,0,0,5.16,7,18.87,18.87,0,0,0,5.64-7"/><polygon class="cls-4" points="141.5 87.37 145.11 87.37 192.62 0.81 189.03 0.81 141.5 87.37"/><polygon class="cls-4" points="147.52 87.37 151.11 87.37 198.63 0.81 195.04 0.81 147.52 87.37"/><polygon class="cls-4" points="153.53 87.37 157.12 87.37 204.66 0.81 201.06 0.81 153.53 87.37"/><polygon class="cls-4" points="159.54 87.37 163.12 87.37 210.66 0.81 207.09 0.81 159.54 87.37"/><polygon class="cls-4" points="165.56 87.37 169.15 87.37 216.67 0.81 213.09 0.81 165.56 87.37"/><polygon class="cls-4" points="156.44 22.47 165.01 38.54 166.21 35.99 158.78 22.47 160.75 22.47 167.16 34.08 168.2 31.75 163.08 22.47 165.03 22.47 169.13 29.93 176.1 15.2 168.22 0.81 140.26 0.81 162.88 43.11 163.93 40.74 154.5 22.47 156.44 22.47"/><polygon class="cls-4" points="194.11 87.37 196.46 87.37 185.04 66.61 183.95 68.87 194.11 87.37"/><polygon class="cls-4" points="189.96 87.37 192.29 87.37 183.13 70.68 182.06 73.03 189.96 87.37"/><polygon class="cls-4" points="185.98 64.75 198.4 87.37 200.74 87.37 187.04 62.41 185.98 64.75"/><polygon class="cls-4" points="188.24 60.01 202.69 87.37 217.92 87.37 195.3 45.1 188.24 60.01"/><path class="cls-4" d="M654.65,116.31l-525.4.41c-22.53,0-40.77,11.24-49.9,28.84v-27H4.65V228.3H599.07c32.18,0,55.58-23.08,55.58-55.64Z"/><path class="cls-2" d="M36.54,183.07v33.64h-22V128.53H69.44v16.22H36.54V166.8h29.3v16.27Z"/><path class="cls-2" d="M83.77,172.34c0-26.18,18.45-45.6,46.3-45.6s46.29,19.42,46.29,45.6-18.3,46.16-46.29,46.16S83.77,198.4,83.77,172.34Zm69.77,0c0-17.65-9-28.73-23.47-28.73s-23.48,11.08-23.48,28.73,8.9,29.14,23.48,29.14S153.54,189.89,153.54,172.34Z"/><path class="cls-2" d="M221.6,185H211v31.73H189V128.53h33.4c22.55,0,34.44,10,34.44,27.58,0,11.86-5.54,19.84-15.1,23.74l20.52,35.7v1.16H239.18ZM211,144.33v25.32h9.67c10.6,0,14.81-4.67,14.81-13.06s-4.6-12.26-15.17-12.26Z"/><path class="cls-2" d="M390,216.71H371.89V128.53h26.05l15.72,42.26,4.27,15.5,4.4-15.5,16.12-42.26H465v88.18H444.37V181l1.55-28.39-7.61,24.51-14.84,39.58h-13L396,177.13l-7.6-25.41L390,181Z"/><path class="cls-2" d="M275,182.17V128.32h22.56v53.45c0,12.29,6,18.52,16.7,18.52s17-6.23,17-18.52V128.32h20.07v53.85c0,22.53-13.47,36.25-37.81,36.25C288.91,218.42,275,205.74,275,182.17Z"/><path class="cls-3" d="M485.32,189.66l13-14.4c3.62-4.18,5.58-7.61,5.58-11.38,0-3.49-2-6.22-7.06-6.22-4.45,0-7.18,1.18-10.6,3.36l-.5-.21v-8.65c3.15-2,7.13-3.28,13.28-3.28,9.83,0,16.19,5,16.19,13.88,0,6.36-3.5,11.52-8.5,17.2l-8.05,8.51,7.62-.64h9.56v8.24H485.32Z"/><path class="cls-3" d="M521.53,172.68c0-15.21,8.37-23.8,20.23-23.8s20.11,8.59,20.18,23.8-8.24,24.23-20.18,24.23S521.59,187.91,521.53,172.68Zm28.61,0c0-10.2-2.77-15.3-8.38-15.3s-8.37,5.1-8.37,15.3,2.85,15.65,8.37,15.65S550.14,182.94,550.14,172.68Z"/><path class="cls-3" d="M565.54,189.66l13-14.4c3.61-4.18,5.57-7.61,5.57-11.38,0-3.49-2-6.22-7-6.22-4.46,0-7.19,1.18-10.61,3.36l-.5-.21v-8.65c3.16-2,7.14-3.28,13.28-3.28,9.83,0,16.2,5,16.2,13.88,0,6.36-3.51,11.52-8.51,17.2l-8,8.51,7.62-.64h9.55v8.24H565.54Z"/><path class="cls-3" d="M601.74,172.68c0-15.21,8.37-23.8,20.24-23.8s20.11,8.59,20.17,23.8-8.24,24.23-20.17,24.23S601.81,187.91,601.74,172.68Zm28.62,0c0-10.2-2.78-15.3-8.38-15.3s-8.38,5.1-8.38,15.3,2.86,15.65,8.38,15.65S630.36,182.94,630.36,172.68Z"/></svg>