<svg id="レイヤー_1" data-name="レイヤー 1" xmlns="http://www.w3.org/2000/svg" viewBox="0 0 31.28 31.28"><defs><style>.cls-1{fill:#231f20;}.cls-2{fill:#fff;}</style></defs><title>icon_tel</title><circle class="cls-1" cx="15.64" cy="15.64" r="15.64" transform="translate(-3.16 3.99) rotate(-13.23)"/><path class="cls-2" d="M20.59,18.68h0a6.87,6.87,0,0,0-.9-.07c-.76,0-1.2.2-1.3.58s-.23.9-.28,1H18c-.55,0-1.9-.77-4.05-2.93-2.57-2.57-3-3.79-2.92-4.12l1-.27c.75-.2.59-1.55.52-2.21v0c-.12-1-.35-2.4-1-2.4a3,3,0,0,0-3.1,2.31,6.51,6.51,0,0,0,.41,4A13.71,13.71,0,0,0,12,19.25c2.34,2.34,5.1,3.74,7.4,3.74h0a5,5,0,0,0,1.25-.16A3,3,0,0,0,23,19.73C23,19,21.62,18.79,20.59,18.68Z"/></svg>