<svg xmlns="http://www.w3.org/2000/svg" xmlns:xlink="http://www.w3.org/1999/xlink" viewBox="0 0 1434.95 2048.58"><defs><style>.cls-1{fill:none;}.cls-2{isolation:isolate;}.cls-3{clip-path:url(#clip-path);}.cls-4{fill:#ccc;}.cls-10,.cls-11,.cls-12,.cls-13,.cls-14,.cls-15,.cls-16,.cls-17,.cls-18,.cls-20,.cls-21,.cls-22,.cls-23,.cls-24,.cls-25,.cls-26,.cls-27,.cls-28,.cls-29,.cls-30,.cls-31,.cls-32,.cls-33,.cls-35,.cls-36,.cls-37,.cls-38,.cls-39,.cls-40,.cls-41,.cls-42,.cls-43,.cls-44,.cls-45,.cls-46,.cls-47,.cls-48,.cls-5,.cls-6,.cls-7,.cls-8,.cls-9{mix-blend-mode:screen;}.cls-5{fill:url(#_裼隯澵_胙琅韃炅_11);}.cls-6{fill:url(#_裼隯澵_胙琅韃炅_11-2);}.cls-7{fill:url(#_裼隯澵_胙琅韃炅_11-3);}.cls-8{fill:url(#_裼隯澵_胙琅韃炅_11-4);}.cls-9{fill:url(#_裼隯澵_胙琅韃炅_11-5);}.cls-10{fill:url(#_裼隯澵_胙琅韃炅_11-6);}.cls-11{fill:url(#_裼隯澵_胙琅韃炅_11-7);}.cls-12{fill:url(#_裼隯澵_胙琅韃炅_11-8);}.cls-13{fill:url(#_裼隯澵_胙琅韃炅_11-9);}.cls-14{fill:url(#_裼隯澵_胙琅韃炅_11-10);}.cls-15{fill:url(#_裼隯澵_胙琅韃炅_11-11);}.cls-16{fill:url(#_裼隯澵_胙琅韃炅_11-12);}.cls-17{fill:url(#_裼隯澵_胙琅韃炅_11-13);}.cls-18{fill:url(#_裼隯澵_胙琅韃炅_11-14);}.cls-19{clip-path:url(#clip-path-2);}.cls-20{fill:url(#_裼隯澵_胙琅韃炅_11-15);}.cls-21{fill:url(#_裼隯澵_胙琅韃炅_11-16);}.cls-22{fill:url(#_裼隯澵_胙琅韃炅_11-17);}.cls-23{fill:url(#_裼隯澵_胙琅韃炅_11-18);}.cls-24{fill:url(#_裼隯澵_胙琅韃炅_11-19);}.cls-25{fill:url(#_裼隯澵_胙琅韃炅_11-20);}.cls-26{fill:url(#_裼隯澵_胙琅韃炅_11-21);}.cls-27{fill:url(#_裼隯澵_胙琅韃炅_11-22);}.cls-28{fill:url(#_裼隯澵_胙琅韃炅_11-23);}.cls-29{fill:url(#_裼隯澵_胙琅韃炅_11-24);}.cls-30{fill:url(#_裼隯澵_胙琅韃炅_11-25);}.cls-31{fill:url(#_裼隯澵_胙琅韃炅_11-26);}.cls-32{fill:url(#_裼隯澵_胙琅韃炅_11-27);}.cls-33{fill:url(#_裼隯澵_胙琅韃炅_11-28);}.cls-34{clip-path:url(#clip-path-3);}.cls-35{fill:url(#_裼隯澵_胙琅韃炅_11-29);}.cls-36{fill:url(#_裼隯澵_胙琅韃炅_11-30);}.cls-37{fill:url(#_裼隯澵_胙琅韃炅_11-31);}.cls-38{fill:url(#_裼隯澵_胙琅韃炅_11-32);}.cls-39{fill:url(#_裼隯澵_胙琅韃炅_11-33);}.cls-40{fill:url(#_裼隯澵_胙琅韃炅_11-34);}.cls-41{fill:url(#_裼隯澵_胙琅韃炅_11-35);}.cls-42{fill:url(#_裼隯澵_胙琅韃炅_11-36);}.cls-43{fill:url(#_裼隯澵_胙琅韃炅_11-37);}.cls-44{fill:url(#_裼隯澵_胙琅韃炅_11-38);}.cls-45{fill:url(#_裼隯澵_胙琅韃炅_11-39);}.cls-46{fill:url(#_裼隯澵_胙琅韃炅_11-40);}.cls-47{fill:url(#_裼隯澵_胙琅韃炅_11-41);}.cls-48{fill:url(#_裼隯澵_胙琅韃炅_11-42);}</style><clipPath id="clip-path"><rect id="SVGID" class="cls-1" x="-6.98" y="1097.16" width="1448.2" height="965.47"/></clipPath><linearGradient id="_裼隯澵_胙琅韃炅_11" x1="-6401.45" y1="750.28" x2="-4665.62" y2="-797.66" gradientTransform="translate(-3552.62 1176.9) rotate(173.33)" gradientUnits="userSpaceOnUse"><stop offset="0" stop-color="#fff"/><stop offset="1"/></linearGradient><linearGradient id="_裼隯澵_胙琅韃炅_11-2" x1="-2545.36" y1="-1220.81" x2="-4454.55" y2="400.48" gradientTransform="translate(-3735.68 823.23) rotate(-169.31)" xlink:href="#_裼隯澵_胙琅韃炅_11"/><linearGradient id="_裼隯澵_胙琅韃炅_11-3" x1="1385.54" y1="-3328.63" x2="-2572.22" y2="32.33" gradientTransform="translate(-1173.59 2181.43) rotate(70.98)" xlink:href="#_裼隯澵_胙琅韃炅_11"/><linearGradient id="_裼隯澵_胙琅韃炅_11-4" x1="-3850.09" y1="-1237.11" x2="-6265.41" y2="813.99" gradientTransform="matrix(-1, -0.06, 0.06, -1, -3654.87, 910.41)" xlink:href="#_裼隯澵_胙琅韃炅_11"/><linearGradient id="_裼隯澵_胙琅韃炅_11-5" x1="-3527.76" y1="-1242.5" x2="-5610.26" y2="525.97" gradientTransform="translate(-3364.28 282.92) rotate(-168.04)" xlink:href="#_裼隯澵_胙琅韃炅_11"/><linearGradient id="_裼隯澵_胙琅韃炅_11-6" x1="-359.38" y1="-1688.86" x2="-2611.42" y2="223.58" gradientTransform="matrix(1.2, 1.75, -2.38, -0.85, 2029.48, 4687.69)" xlink:href="#_裼隯澵_胙琅韃炅_11"/><linearGradient id="_裼隯澵_胙琅韃炅_11-7" x1="-1161.49" y1="-3581.29" x2="-3413.47" y2="-1668.89" gradientTransform="translate(-2875.7 2009.61) rotate(136.58)" xlink:href="#_裼隯澵_胙琅韃炅_11"/><linearGradient id="_裼隯澵_胙琅韃炅_11-8" x1="-1479.2" y1="-1325.3" x2="-6288.49" y2="2758.78" gradientTransform="translate(-4116.27 625.8) rotate(-153.64)" xlink:href="#_裼隯澵_胙琅韃炅_11"/><linearGradient id="_裼隯澵_胙琅韃炅_11-9" x1="-5187.76" y1="815.12" x2="-4125.61" y2="-1175.02" gradientTransform="matrix(-0.98, -0.21, 0.21, -0.98, -3874.55, 536.27)" xlink:href="#_裼隯澵_胙琅韃炅_11"/><linearGradient id="_裼隯澵_胙琅韃炅_11-10" x1="-266.06" y1="2667.08" x2="-1691.87" y2="2208.95" gradientTransform="matrix(0.78, -0.71, 0.74, 0.81, 106.47, -1102.09)" xlink:href="#_裼隯澵_胙琅韃炅_11"/><linearGradient id="_裼隯澵_胙琅韃炅_11-11" x1="-678.24" y1="3142.89" x2="-2350.97" y2="2605.42" gradientTransform="translate(-704.34 -1132.45) rotate(-50.36)" xlink:href="#_裼隯澵_胙琅韃炅_11"/><linearGradient id="_裼隯澵_胙琅韃炅_11-12" x1="-1319.72" y1="1389.32" x2="1684.08" y2="2095.72" gradientTransform="matrix(1, 0, 0, 1, 0, 0)" xlink:href="#_裼隯澵_胙琅韃炅_11"/><linearGradient id="_裼隯澵_胙琅韃炅_11-13" x1="-1261.41" y1="2522.93" x2="-166.46" y2="2414.42" gradientTransform="translate(-476.82 -827.69) rotate(-29.58)" xlink:href="#_裼隯澵_胙琅韃炅_11"/><linearGradient id="_裼隯澵_胙琅韃炅_11-14" x1="-835.22" y1="-3336.62" x2="-4990.73" y2="-714.89" gradientTransform="matrix(-0.45, 0.89, -0.89, -0.45, -2209.07, 2572.38)" xlink:href="#_裼隯澵_胙琅韃炅_11"/><clipPath id="clip-path-2"><polygon id="SVGID-2" data-name="SVGID" class="cls-1" points="1441.22 1131.86 -6.98 1527.97 -6.98 562.5 1441.22 562.5 1441.22 1131.86"/></clipPath><linearGradient id="_裼隯澵_胙琅韃炅_11-15" x1="-6463.53" y1="1281.34" x2="-4727.7" y2="-266.59" xlink:href="#_裼隯澵_胙琅韃炅_11"/><linearGradient id="_裼隯澵_胙琅韃炅_11-16" x1="-2446.17" y1="-695.41" x2="-4355.36" y2="925.89" gradientTransform="translate(-3735.68 823.23) rotate(-169.31)" xlink:href="#_裼隯澵_胙琅韃炅_11"/><linearGradient id="_裼隯澵_胙琅韃炅_11-17" x1="880.07" y1="-3502.88" x2="-3077.7" y2="-141.92" gradientTransform="translate(-1173.59 2181.43) rotate(70.98)" xlink:href="#_裼隯澵_胙琅韃炅_11"/><linearGradient id="_裼隯澵_胙琅韃炅_11-18" x1="-3818.98" y1="-703.41" x2="-6234.3" y2="1347.7" gradientTransform="matrix(-1, -0.06, 0.06, -1, -3654.87, 910.41)" xlink:href="#_裼隯澵_胙琅韃炅_11"/><linearGradient id="_裼隯澵_胙琅韃炅_11-19" x1="-3416.93" y1="-719.47" x2="-5499.43" y2="1049" gradientTransform="translate(-3364.28 282.92) rotate(-168.04)" xlink:href="#_裼隯澵_胙琅韃炅_11"/><linearGradient id="_裼隯澵_胙琅韃炅_11-20" x1="-764.19" y1="-1892.73" x2="-3016.23" y2="19.72" gradientTransform="matrix(1.2, 1.75, -2.38, -0.85, 2029.48, 4687.69)" xlink:href="#_裼隯澵_胙琅韃炅_11"/><linearGradient id="_裼隯澵_胙琅韃炅_11-21" x1="-1529" y1="-3192.97" x2="-3780.99" y2="-1280.58" gradientTransform="translate(-2875.7 2009.61) rotate(136.58)" xlink:href="#_裼隯澵_胙琅韃炅_11"/><linearGradient id="_裼隯澵_胙琅韃炅_11-22" x1="-1241.79" y1="-846.22" x2="-6051.09" y2="3237.86" gradientTransform="translate(-4116.27 625.8) rotate(-153.64)" xlink:href="#_裼隯澵_胙琅韃炅_11"/><linearGradient id="_裼隯澵_胙琅韃炅_11-23" x1="-5076.88" y1="1338.13" x2="-4014.73" y2="-652.01" gradientTransform="matrix(-0.98, -0.21, 0.21, -0.98, -3874.55, 536.27)" xlink:href="#_裼隯澵_胙琅韃炅_11"/><linearGradient id="_裼隯澵_胙琅韃炅_11-24" x1="76.21" y1="2308.59" x2="-1349.59" y2="1850.46" gradientTransform="matrix(0.78, -0.71, 0.74, 0.81, 106.47, -1102.09)" xlink:href="#_裼隯澵_胙琅韃炅_11"/><linearGradient id="_裼隯澵_胙琅韃炅_11-25" x1="-266.49" y1="2801.82" x2="-1939.21" y2="2264.35" gradientTransform="translate(-704.34 -1132.45) rotate(-50.36)" xlink:href="#_裼隯澵_胙琅韃炅_11"/><linearGradient id="_裼隯澵_胙琅韃炅_11-26" x1="-1319.72" y1="854.66" x2="1684.08" y2="1561.06" gradientTransform="matrix(1, 0, 0, 1, 0, 0)" xlink:href="#_裼隯澵_胙琅韃炅_11"/><linearGradient id="_裼隯澵_胙琅韃炅_11-27" x1="-997.43" y1="2057.96" x2="97.51" y2="1949.45" gradientTransform="translate(-476.82 -827.69) rotate(-29.58)" xlink:href="#_裼隯澵_胙琅韃炅_11"/><linearGradient id="_裼隯澵_胙琅韃炅_11-28" x1="-1313.28" y1="-3097.18" x2="-5468.8" y2="-475.45" gradientTransform="matrix(-0.45, 0.89, -0.89, -0.45, -2209.07, 2572.38)" xlink:href="#_裼隯澵_胙琅韃炅_11"/><clipPath id="clip-path-3"><polygon id="SVGID-3" data-name="SVGID" class="cls-1" points="1441.22 579.11 -6.98 959.67 -6.98 -5.8 1441.22 -5.8 1441.22 579.11"/></clipPath><linearGradient id="_裼隯澵_胙琅韃炅_11-29" x1="-6529.51" y1="1845.82" x2="-4793.68" y2="297.88" xlink:href="#_裼隯澵_胙琅韃炅_11"/><linearGradient id="_裼隯澵_胙琅韃炅_11-30" x1="-2340.74" y1="-136.95" x2="-4249.93" y2="1484.35" gradientTransform="translate(-3735.68 823.23) rotate(-169.31)" xlink:href="#_裼隯澵_胙琅韃炅_11"/><linearGradient id="_裼隯澵_胙琅韃炅_11-31" x1="342.79" y1="-3688.09" x2="-3614.97" y2="-327.13" gradientTransform="translate(-1173.59 2181.43) rotate(70.98)" xlink:href="#_裼隯澵_胙琅韃炅_11"/><linearGradient id="_裼隯澵_胙琅韃炅_11-32" x1="-3785.91" y1="-136.13" x2="-6201.23" y2="1914.98" gradientTransform="matrix(-1, -0.06, 0.06, -1, -3654.87, 910.41)" xlink:href="#_裼隯澵_胙琅韃炅_11"/><linearGradient id="_裼隯澵_胙琅韃炅_11-33" x1="-3299.12" y1="-163.53" x2="-5381.63" y2="1604.95" gradientTransform="translate(-3364.28 282.92) rotate(-168.04)" xlink:href="#_裼隯澵_胙琅韃炅_11"/><linearGradient id="_裼隯澵_胙琅韃炅_11-34" x1="-1194.48" y1="-2109.41" x2="-3446.52" y2="-196.97" gradientTransform="matrix(1.2, 1.75, -2.38, -0.85, 2029.48, 4687.69)" xlink:href="#_裼隯澵_胙琅韃炅_11"/><linearGradient id="_裼隯澵_胙琅韃炅_11-35" x1="-1919.64" y1="-2780.23" x2="-4171.62" y2="-867.83" gradientTransform="translate(-2875.7 2009.61) rotate(136.58)" xlink:href="#_裼隯澵_胙琅韃炅_11"/><linearGradient id="_裼隯澵_胙琅韃炅_11-36" x1="-989.46" y1="-337" x2="-5798.75" y2="3747.08" gradientTransform="translate(-4116.27 625.8) rotate(-153.64)" xlink:href="#_裼隯澵_胙琅韃炅_11"/><linearGradient id="_裼隯澵_胙琅韃炅_11-37" x1="-4959.02" y1="1894.05" x2="-3896.87" y2="-96.09" gradientTransform="matrix(-0.98, -0.21, 0.21, -0.98, -3874.55, 536.27)" xlink:href="#_裼隯澵_胙琅韃炅_11"/><linearGradient id="_裼隯澵_胙琅韃炅_11-38" x1="440.02" y1="1927.55" x2="-985.78" y2="1469.41" gradientTransform="matrix(0.78, -0.71, 0.74, 0.81, 106.47, -1102.09)" xlink:href="#_裼隯澵_胙琅韃炅_11"/><linearGradient id="_裼隯澵_胙琅韃炅_11-39" x1="171.17" y1="2439.29" x2="-1501.55" y2="1901.82" gradientTransform="translate(-704.34 -1132.45) rotate(-50.36)" xlink:href="#_裼隯澵_胙琅韃炅_11"/><linearGradient id="_裼隯澵_胙琅韃炅_11-40" x1="-1319.72" y1="286.36" x2="1684.08" y2="992.76" gradientTransform="matrix(1, 0, 0, 1, 0, 0)" xlink:href="#_裼隯澵_胙琅韃炅_11"/><linearGradient id="_裼隯澵_胙琅韃炅_11-41" x1="-716.84" y1="1563.74" x2="378.1" y2="1455.23" gradientTransform="translate(-476.82 -827.69) rotate(-29.58)" xlink:href="#_裼隯澵_胙琅韃炅_11"/><linearGradient id="_裼隯澵_胙琅韃炅_11-42" x1="-1821.43" y1="-2842.68" x2="-5976.94" y2="-220.95" gradientTransform="matrix(-0.45, 0.89, -0.89, -0.45, -2209.07, 2572.38)" xlink:href="#_裼隯澵_胙琅韃炅_11"/></defs><title>Inquiry_bg</title><g class="cls-2"><g id="レイヤー_1" data-name="レイヤー 1"><g class="cls-3"><rect class="cls-4" x="-6.98" y="1097.16" width="1448.2" height="965.47"/><polygon class="cls-5" points="1528.95 1044.96 1396 1044.96 1528.95 1160.04 1528.95 1044.96"/><polygon class="cls-6" points="-64 1091.93 -64 1895.88 795.49 1818.44 -64 1091.93"/><polygon class="cls-7" points="785.91 1044.96 -64 1044.96 -64 1322.87 1025.61 1524.07 1267.48 1578.78 785.91 1044.96"/><polygon class="cls-8" points="1492.4 2116.58 1528.95 2037.89 1528.95 1044.96 835.24 1044.96 1438.96 2116.58 1492.4 2116.58"/><polygon class="cls-9" points="1528.95 2116.58 1528.95 1645.64 1480.52 1619.46 393.08 1120.51 1228.25 2116.58 1528.95 2116.58"/><polygon class="cls-10" points="1528.95 2116.58 1528.95 2059.83 77.39 1044.96 -59.5 1044.96 828.18 2116.58 1528.95 2116.58"/><polygon class="cls-11" points="1086.97 2116.58 909.28 1140.42 143.07 2116.58 1086.97 2116.58"/><polygon class="cls-12" points="454.39 1044.96 -48.46 2111.68 1272.85 1044.96 454.39 1044.96"/><polygon class="cls-13" points="168.81 1044.96 -64 1044.96 -64 1539.28 1528.95 2100.25 1528.95 2029.58 168.81 1044.96"/><polygon class="cls-14" points="1528.95 2116.58 1528.95 1871.44 436.97 1180.48 838.94 2116.58 1528.95 2116.58"/><polygon class="cls-15" points="1289.99 2116.58 -64 1528.66 -64 1885.18 1033.91 2116.58 1289.99 2116.58"/><polygon class="cls-16" points="752.62 2116.58 407.76 1363.62 -64 1777.14 -64 2116.58 752.62 2116.58"/><polygon class="cls-17" points="563.21 2116.58 -19.25 1044.96 -64 1044.96 -64 1641.77 445.24 2116.58 563.21 2116.58"/><polygon class="cls-18" points="1528.95 1044.96 1329.1 1044.96 420.04 2079.29 1528.95 1617.14 1528.95 1044.96"/></g><g class="cls-19"><rect class="cls-4" x="-6.98" y="562.5" width="1448.2" height="965.47"/><polygon class="cls-20" points="1528.95 510.3 1396 510.3 1528.95 625.38 1528.95 510.3"/><polygon class="cls-21" points="-64 557.27 -64 1361.22 795.49 1283.78 -64 557.27"/><polygon class="cls-22" points="785.91 510.3 -64 510.3 -64 788.21 1025.61 989.41 1267.48 1044.12 785.91 510.3"/><polygon class="cls-23" points="1492.4 1581.92 1528.95 1503.23 1528.95 510.3 835.24 510.3 1438.96 1581.92 1492.4 1581.92"/><polygon class="cls-24" points="1528.95 1581.92 1528.95 1110.98 1480.52 1084.8 393.08 585.85 1228.25 1581.92 1528.95 1581.92"/><polygon class="cls-25" points="1528.95 1581.92 1528.95 1525.17 77.39 510.3 -59.5 510.3 828.18 1581.92 1528.95 1581.92"/><polygon class="cls-26" points="1086.97 1581.92 909.28 605.76 143.07 1581.92 1086.97 1581.92"/><polygon class="cls-27" points="454.39 510.3 -48.46 1577.02 1272.85 510.3 454.39 510.3"/><polygon class="cls-28" points="168.81 510.3 -64 510.3 -64 1004.62 1528.95 1565.59 1528.95 1494.92 168.81 510.3"/><polygon class="cls-29" points="1528.95 1581.92 1528.95 1336.78 436.97 645.82 838.94 1581.92 1528.95 1581.92"/><polygon class="cls-30" points="1289.99 1581.92 -64 994 -64 1350.52 1033.91 1581.92 1289.99 1581.92"/><polygon class="cls-31" points="752.62 1581.92 407.76 828.96 -64 1242.48 -64 1581.92 752.62 1581.92"/><polygon class="cls-32" points="563.21 1581.92 -19.25 510.3 -64 510.3 -64 1107.11 445.24 1581.92 563.21 1581.92"/><polygon class="cls-33" points="1528.95 510.3 1329.1 510.3 420.04 1544.63 1528.95 1082.48 1528.95 510.3"/></g><g class="cls-34"><rect class="cls-4" x="-6.98" y="-5.8" width="1448.2" height="965.47"/><polygon class="cls-35" points="1528.95 -58 1396 -58 1528.95 57.08 1528.95 -58"/><polygon class="cls-36" points="-64 -11.03 -64 792.92 795.49 715.48 -64 -11.03"/><polygon class="cls-37" points="785.91 -58 -64 -58 -64 219.91 1025.61 421.11 1267.48 475.82 785.91 -58"/><polygon class="cls-38" points="1492.4 1013.62 1528.95 934.93 1528.95 -58 835.24 -58 1438.96 1013.62 1492.4 1013.62"/><polygon class="cls-39" points="1528.95 1013.62 1528.95 542.68 1480.52 516.5 393.08 17.55 1228.25 1013.62 1528.95 1013.62"/><polygon class="cls-40" points="1528.95 1013.62 1528.95 956.87 77.39 -58 -59.5 -58 828.18 1013.62 1528.95 1013.62"/><polygon class="cls-41" points="1086.97 1013.62 909.28 37.46 143.07 1013.62 1086.97 1013.62"/><polygon class="cls-42" points="454.39 -58 -48.46 1008.72 1272.85 -58 454.39 -58"/><polygon class="cls-43" points="168.81 -58 -64 -58 -64 436.32 1528.95 997.29 1528.95 926.62 168.81 -58"/><polygon class="cls-44" points="1528.95 1013.62 1528.95 768.48 436.97 77.52 838.94 1013.62 1528.95 1013.62"/><polygon class="cls-45" points="1289.99 1013.62 -64 425.7 -64 782.22 1033.91 1013.62 1289.99 1013.62"/><polygon class="cls-46" points="752.62 1013.62 407.76 260.66 -64 674.18 -64 1013.62 752.62 1013.62"/><polygon class="cls-47" points="563.21 1013.62 -19.25 -58 -64 -58 -64 538.81 445.24 1013.62 563.21 1013.62"/><polygon class="cls-48" points="1528.95 -58 1329.1 -58 420.04 976.33 1528.95 514.18 1528.95 -58"/></g><polygon points="1125.62 -574.65 6099.62 652.35 6099.62 125.35 1125.62 -1101.65 1125.62 -574.65"/></g></g></svg>