<svg xmlns="http://www.w3.org/2000/svg" width="630" height="54.17"><path d="M0 49.17h630v5H0zm28-22.64v-8.35l5.44.32c.5 0 1 .07 1 .47s-.46.5-.9.65v14H28v-1.87H8v1.87H2.45V18.18l5.32.29c.58 0 1.08.07 1.08.46s-.61.58-.9.65v7h7.24V17H3.74V2.45l5.8.32c.21 0 .72 0 .72.47s-.4.47-.87.61v8h5.8V.5l5.44.4c.61 0 1.07.07 1.07.47s-.32.5-.93.75v9.76h5.72V2.45l5.94.32c.29 0 .69 0 .69.43s-.47.51-.9.65V17H20.77v9.58zm45.22-2.59c.25.18.32.32.32.5 0 .4-.36.43-.86.43a30.5 30.5 0 01-3.06 2.74 16.37 16.37 0 004.75 1.91 11.93 11.93 0 00-3 4.21 22.44 22.44 0 01-9-6.12 18.41 18.41 0 00-.37 3.45c-2.84.58-9.39 1.84-12.34 2.24-.15.28-.33.57-.65.57s-.47-.21-.54-.57l-1.1-4.3c.73-.08 3.93-.58 4.58-.65v-5.17H48.2c-.21 1.44-1.26 6.91-3.2 9.94a13.19 13.19 0 00-4.61-2.06 21.82 21.82 0 002.67-7.34 55.3 55.3 0 00.57-8.6V1.48h29.16v9.07h-24v5.54c0 .36-.07 2.09-.14 2.77h4v-2.19h-3v-3.82h3v-2.16l4.64.25c.33 0 1.37.18 1.37.65 0 .18-.18.54-1.11.65v.61h4.64v-2.16l4.71.29c.22 0 1.34.14 1.34.57 0 .22-.29.54-1.19.69v.61h5.76v3.82H67v2.19h6.69v4.32h-1.41zM48.81 5.15v1.58h18.83V5.15zM57 27.54c1-.18 3.75-.69 4.5-.87a22.59 22.59 0 01-2.41-3.49H57zm.51-8.68h4.64v-2.19h-4.62zm7.12 4.32a10.62 10.62 0 001.44 1.69 23.32 23.32 0 002-1.69zm36.78-12.24V.68l5.87.26a.39.39 0 01.43.36c0 .32-.36.46-.72.57v9.07h5.79v5.22H107V28h6.84v5H93.06v-5h8.35V16.16h-5.94v-4.43a24.47 24.47 0 01-2.7 4.47 31.14 31.14 0 005 4.39 15.76 15.76 0 00-3.31 3.92 20.29 20.29 0 01-3.75-3.31v12.46h-5.28v-9.58c-1.51 1.22-2.05 1.66-2.92 2.27a10.29 10.29 0 00-3.24-4.46c3.82-2.2 8.35-6.59 9.61-9.51H81v-5h4.47V.68l5.32.15c.22 0 .58.07.58.47 0 .18-.14.36-.58.64v5.44h3.46l2.3 2.23c-.1.22-.57 1.15-.64 1.33zm35.86 16.45c7.81-1.44 10.11-7.48 10.11-11.23a8.53 8.53 0 00-8.31-8.82c-1.12 13.18-6.56 23-10.37 23-2.81 0-8-4.75-8-11.41 0-7.74 7.06-16.77 17.64-16.77 7.88 0 14.76 5.36 14.76 14a16.8 16.8 0 01-4.25 11.12c-2.2 2.55-4.75 3.89-7.81 5.22a23.54 23.54 0 00-3.77-5.11zM126 18.5c0 2.77 1.55 4.86 2.3 4.86s1.55-1.62 1.95-2.55A31.75 31.75 0 00133 8.42c-4.16 1.58-7 6.84-7 10.08zm54.29 14.4h-6.2V16.52a63.77 63.77 0 01-10 5.11 17.37 17.37 0 00-4.32-5.14C173.52 12.6 182.12 2.81 184.32 0l4.78 3.78a.83.83 0 01.44.68c0 .33-.29.47-.58.47a2.22 2.22 0 01-.72-.11 71.76 71.76 0 01-8 7.38zm18.9-15.01c2.55-2 3-2.52 8.89-9.43 2.92-3.46 4.75-3.53 5.61-3.53 1.77 0 3.1.94 4.83 3 7.56 8.93 9.75 11.52 15.19 15.91a29.93 29.93 0 00-3.78 5.16c-2-1.87-4-3.78-13.25-14.72a22.46 22.46 0 00-2.41-2.7 1.09 1.09 0 00-.76-.29c-.82 0-2 1.37-2.91 2.45s-5.4 6.91-6.3 8.06a1.13 1.13 0 01.22.65.42.42 0 01-.44.4c-.25 0-.39-.11-.68-.43zm26.56-14.15a25.63 25.63 0 013.78 3.86 20.63 20.63 0 00-2.66 2.51 42.9 42.9 0 00-3.75-4zM229.5.43a35.77 35.77 0 013.56 3.82 32.45 32.45 0 00-2.52 2.55 36.33 36.33 0 00-3.67-4.17zm15.33 1.3c6 3.09 7.92 4.89 9 5.9-.86 1-1.11 1.44-3.49 4.9a36.82 36.82 0 00-9.07-5.76zm-3 24.87c10.26-2.12 20.38-9.07 26.78-19.36a23.27 23.27 0 003.71 4.89 47.75 47.75 0 01-11.19 12 60.09 60.09 0 01-14.83 8c0 .4-.18.8-.51.8s-.36-.11-.57-.51zm54.81-16.05c5.32 2.7 9.9 5.79 12.56 8.46-1.62 2.34-1.8 2.59-3.38 5a53.68 53.68 0 00-11.23-8v16.93h-6.09V1.15l6.09.29c.25 0 .68 0 .68.4s-.4.5-.68.57v11z" fill="#ff5064" data-name="レイヤー 2"/></svg>