<svg xmlns="http://www.w3.org/2000/svg" width="600" height="136.5" viewBox="0 0 600 136.5">
  <defs>
    <style>
      .cls-1, .cls-3 {
        fill: none;
      }

      .cls-2 {
        opacity: 0.1;
      }

      .cls-3 {
        stroke: #231815;
      }

      .cls-4 {
        fill: #fff;
      }
    </style>
  </defs>
  <g id="レイヤー_2" data-name="レイヤー 2">
    <g id="レイヤー_2-2" data-name="レイヤー 2">
      <g>
        <rect class="cls-1" width="600" height="136.5" rx="20.67"/>
        <g>
          <g class="cls-2">
            <polygon class="cls-3" points="37 79.19 37 57.31 50.13 68.25 37 79.19"/>
          </g>
          <polygon class="cls-4" points="37 79.19 37 57.31 50.13 68.25 37 79.19"/>
        </g>
        <g>
          <g>
            <path class="cls-4" d="M123.68,54.47v4h-2.15v7.14h-6.37V64.27h-7.91V67c0,2.2-.56,3.7-7,3.7-.86,0-1.72,0-2.28-.09a16.45,16.45,0,0,0-2-5.37,34.36,34.36,0,0,0,3.65.34c1.25,0,1.25-.43,1.25-1.33H87.47V60h13.42V58.51H84.51v-4h16.38V53.09H87.47V49.31h13.42V48.1H90V39.37h10.92v-1.2H84.51V33.65h16.38V31.29l6.66.26a.59.59,0,0,1,.65.56c0,.38-.26.47-1,.81v.73h16.26v4.52H107.25v1.2H118V48.1H107.25v1.21h14.28v5.16Zm-22.79-10V42.81H95.64v1.68Zm6.36-1.68v1.68h5.21V42.81Zm7.91,11.66V53.09h-7.91v1.38Zm0,5.5V58.51h-7.91V60Z"/>
            <path class="cls-4" d="M152.79,37.09a32.39,32.39,0,0,0,3.7-6.06l6.45,1.64c.3.08.6.21.6.51,0,.47-.6.69-1.25.6-1.12,1.77-1.55,2.5-2.15,3.31H170v5.38H130.77V37.09h9.46a19.3,19.3,0,0,0-2.45-3.65l5.81-2.62a28.82,28.82,0,0,1,3.48,5.37l-2.32.9ZM139,61.35v9.28h-6V43.89h17.11V66.42c0,3.53-1.85,4-7.52,4.21a12.41,12.41,0,0,0-2.2-6.1c.65,0,1.94.21,2.58.21.82,0,1.29-.08,1.29-1.37v-2Zm5.24-10.93V48.53H139v1.89Zm0,6.41V54.9H139v1.93ZM158.9,44.58c.38,0,.64.13.64.43s-.26.47-.64.73V62.85h-6.2V44.32Zm9.07-.91c.39,0,.77.09.77.48s-.47.56-1,.86V65.52c0,1.59,0,3-1.85,4.17-1.55,1-3.4,1-7,.94a16.25,16.25,0,0,0-1.42-6.45c.73.09,2.32.31,3,.31,1.08,0,1.08-.69,1.08-1.21V43.37Z"/>
            <path class="cls-4" d="M183.36,61.17v-10a24.22,24.22,0,0,1-3.48,2.36,21.26,21.26,0,0,0-4.26-4.77A30,30,0,0,0,181.08,45a31.67,31.67,0,0,0-3.52-2.76L181.69,38a29.4,29.4,0,0,1,3.87,2.71,12.92,12.92,0,0,0,2.58-3.57h-8V32.06H195L197,34.13a34.3,34.3,0,0,1-4.13,7.31h8.82A28.29,28.29,0,0,1,196.56,33L202,30.9a25.56,25.56,0,0,0,1.84,3.57,22.17,22.17,0,0,0,2.63-3.27L211,34c.17.09.47.3.47.52,0,.51-.73.56-1.16.56-1.41,1.8-2.58,3.14-3.09,3.65.47.56.81.9,1.16,1.25a52.82,52.82,0,0,0,3.91-4.65l4,2.71c.34.26.77.52.77.82,0,.56-.64.6-1.29.65a33.78,33.78,0,0,1-3.69,3.87,30,30,0,0,0,6.06,4c-1.76,1.29-3.83,4.91-4,5.12a47,47,0,0,1-3.95-2.84V61.17h-3.1c.3.13.48.3.48.61s-.44.68-.91.73a15.22,15.22,0,0,1-.9,2.36h10.53v5.21h-39V64.87h11c-.18-.51-.82-2.19-1.21-3.14l2.11-.56Zm6.41-16c-1.12,1.21-1.55,1.68-3.48,3.48H209a39,39,0,0,1-4.47-4V46.9H189.77Zm-.21,8.3v2.75h14.49V53.52Zm4,7.65c.38.95.68,1.68,1.2,3.27l-1.55.43h5.81a32.14,32.14,0,0,0,1.29-3.7Z"/>
            <path class="cls-4" d="M238.75,46.94h-3.14v2.24h4.3v5.46h-4.3v5.85a25.63,25.63,0,0,0,1.5-5.12l4.9,1c.26,0,.65.13.65.56s-.65.6-1.25.64c-.17.65-.25.86-.86,2.67a51,51,0,0,0,8.56-3V50.12h-3.05a44.67,44.67,0,0,1,3,5.51,40.18,40.18,0,0,0-4.65,3,36.68,36.68,0,0,0-3.09-5.85l4.38-2.71h-4.9V45.05h13.55V43.33H243.48v-4.6h10.88V37.09h-13V31.85H260.5v13.2h2.63v5.07H258l4.77,2.33a.69.69,0,0,1,.48.6c0,.43-.3.51-1.12.64a39.23,39.23,0,0,1-3.48,5.12A31,31,0,0,0,264,63.15a21.18,21.18,0,0,0-3.53,5.46,37.43,37.43,0,0,1-5.76-5.84v3.65c0,4.26-2.79,4.26-7.91,4.26a19.78,19.78,0,0,0-2.19-5.81c-.43.22-.56.26-1.16.52,0,.81-.13,1.55-.86,1.55a.72.72,0,0,1-.52-.48l-1.55-6.19a19.89,19.89,0,0,1-.9,2.19,17.59,17.59,0,0,0-4-1v2c3.14-.6,4-.81,4.86-1a17.24,17.24,0,0,0-.56,5.38c-5.46,1.2-9.89,1.93-14.06,2.53-.09.65-.22,1.21-.82,1.21-.39,0-.47-.35-.52-.65l-1-5.93c1.76-.09,4.77-.43,6.36-.6v-2a27.52,27.52,0,0,0-4.52,1.55,40,40,0,0,0-2.19-6.58L228,55.8a49.6,49.6,0,0,1,1.85,5.25V54.64h-5.63V49.18h5.63V46.94h-3.36V45.31A15.27,15.27,0,0,0,222,41.05a19.75,19.75,0,0,0,8.26-9.59l6.1,1.21c.48.08.65.21.65.47,0,.47-.48.73-1,.77a32.56,32.56,0,0,0,6.23,6,17.91,17.91,0,0,0-3.52,2.79Zm-2.54-5A20.25,20.25,0,0,1,233,38c-1,1.33-1.68,2.24-3.06,3.87Zm12.9,20.73c-1.08.6-2.67,1.46-4,2,.39,0,2.45.25,2.71.25,1.25,0,1.25-.85,1.25-1.37Zm5.63-8.9a4,4,0,0,1,.3.55,23.74,23.74,0,0,0,2.28-4.17h-2.58Z"/>
            <path class="cls-4" d="M281.15,34.64c.34.13.55.3.55.61,0,.51-.81.6-1.2.64a59.36,59.36,0,0,0-2.58,16.56,30.15,30.15,0,0,0,.3,4.29c.56-.81,1.46-2.19,2-3.05a17.85,17.85,0,0,0,3.1,4.26,19.12,19.12,0,0,0-3.57,10.53L274,69.56a60.82,60.82,0,0,1-2.32-17.33,77.25,77.25,0,0,1,2.58-19.69Zm20.42-.94c.21,0,.56.08.56.47s-.6.65-1,.69a47.38,47.38,0,0,0-.43,5.16,39.12,39.12,0,0,0,6.36-1.59v6.49c-1,.26-3,.73-6.53,1.38a69.3,69.3,0,0,0,.69,9.89,23.92,23.92,0,0,1,8.17,4.43c-.69,1.24-2,4-2.93,6.06a15.06,15.06,0,0,0-4.6-3.27c-.17,5.5-5.67,6.15-8.38,6.15-6.45,0-9.68-3.53-9.68-7.53,0-5.11,5.07-7.05,10.66-6.92-.34-4.9-.38-5.46-.47-8-2.45.21-4.21.21-4.94.21a30.8,30.8,0,0,1-3.19-.13V40.49a46.13,46.13,0,0,0,8.09.3c0-1.8,0-5.59,0-8.38Zm-8.9,26.66c-.95,0-3,.3-3,1.63,0,1.12,1.42,1.59,2.79,1.59.35,0,2.93,0,2.93-2.11a1.1,1.1,0,0,0-.09-.55A6,6,0,0,0,292.67,60.36Z"/>
            <path class="cls-4" d="M329.13,54c-2.32,2.06-3.87,4.43-3.87,5.42a1.65,1.65,0,0,0,.86,1.37c1.59.86,6.54.95,8.56.95a56.93,56.93,0,0,0,16.6-2.15,47.33,47.33,0,0,0,1.25,7.14c-5.9,1.46-14.88,1.72-18.24,1.72-9.84,0-16.16-1.81-16.16-8.34,0-3.7,3-7,6.4-9.85Zm20.56-15a41.44,41.44,0,0,0-13.55,8.52l-3.82-4.3a18,18,0,0,0,3.05-2.58c-1.08.08-3.74.26-7.66.26a55,55,0,0,1-5.8-.26l-.34-7.1a76,76,0,0,0,13,1,56.19,56.19,0,0,0,11.65-1Z"/>
            <path class="cls-4" d="M381.55,32.62c.34.09.82.26.82.69,0,.26-.22.56-.95.6-.94,2.93-1,3.23-1.25,3.87a65.34,65.34,0,0,0,14-3.39c.22,1.41.78,4.68,1.21,6.4a74.41,74.41,0,0,1-17.59,3.66c-1,2.84-1.38,3.7-2.24,5.8a25.47,25.47,0,0,1,11.18-2.92c11.48,0,12.09,8.08,12.09,10.23a10.64,10.64,0,0,1-4.6,8.69c-2.28,1.55-6.58,4.13-18.5,4.13a37.82,37.82,0,0,1-4-.22,30.67,30.67,0,0,0-1.59-6.41,62.52,62.52,0,0,0,6.4.39c1,0,8.34,0,12.77-2.62a4.39,4.39,0,0,0,2.33-4c0-2.5-1.29-4.6-5.25-4.6-3.79,0-9.85,1.93-14.88,7.18L365.34,57a60,60,0,0,0,5.72-12.08c-3.74,0-6.71-.13-8.34-.26l-.09-7c2.8.69,5.25.94,10.41.94a56.72,56.72,0,0,0,1.63-7.61Z"/>
            <path class="cls-4" d="M422.62,41.05c.3.09.64.17.64.56s-.52.56-1,.6a29.23,29.23,0,0,0-2.84,7.44,23.86,23.86,0,0,1,12.56-4c7.39,0,11,5.46,11,10.58,0,8.21-7.74,13.85-22,13.85-1.24,0-2.32,0-3.14-.09-.25-2.37-.6-3.53-2-7.22a24.57,24.57,0,0,0,6.37.64c9.76,0,13.63-3.65,13.63-7.27,0-1.24-.6-4.38-5-4.38-6.15,0-10.62,4-13.72,7.05L411,56.57a102.2,102.2,0,0,1,4.52-17.8ZM420.25,31a42.78,42.78,0,0,1,14.45,4.77A53.27,53.27,0,0,0,430.83,42,38.32,38.32,0,0,0,418,36.75Z"/>
            <path class="cls-4" d="M472.62,33.61c.48.13.86.26.86.65,0,.6-.9.68-1.16.68-.64,2.93-.9,4.05-1.2,5.16,3.7,0,9.85.13,9.85,10.54,0,7.09-2.24,13.16-4.3,15.91a7.4,7.4,0,0,1-6.37,3,23.21,23.21,0,0,1-4.56-.47,12,12,0,0,0,.13-1.6,32.61,32.61,0,0,0-.64-5.76,7.13,7.13,0,0,0,3.74,1,3.24,3.24,0,0,0,2.54-.82c1.46-1.29,2.83-6.1,2.83-11.44,0-4.42-3.09-4.17-4.94-4C466,58,462,64.57,458.48,69.09a30,30,0,0,0-6.32-3.4,51.58,51.58,0,0,0,10.23-18,46.39,46.39,0,0,0-6.84,2.2l-2.36-6.93c1.76-.34,9.42-1.93,11-2.19a65.94,65.94,0,0,0,1.33-9.42Zm11.61,2.24C489,41.14,492,48.32,492,51.71c0,2.24-.73,3.44-3.05,4.56a17.06,17.06,0,0,1-4.3,1.34,34.8,34.8,0,0,0-2.49-5.77c1.16-.25,2.75-.6,2.75-2a17.12,17.12,0,0,0-2.24-5.9A31.36,31.36,0,0,0,479,39.2Z"/>
            <path class="cls-4" d="M513.78,41.05c.3.09.64.17.64.56s-.52.56-1,.6a29.23,29.23,0,0,0-2.84,7.44,23.86,23.86,0,0,1,12.56-4c7.39,0,11,5.46,11,10.58,0,8.21-7.74,13.85-22,13.85-1.24,0-2.32,0-3.14-.09-.25-2.37-.6-3.53-2-7.22a24.57,24.57,0,0,0,6.37.64c9.76,0,13.63-3.65,13.63-7.27,0-1.24-.6-4.38-5-4.38-6.15,0-10.62,4-13.72,7.05l-6.15-2.24a102.2,102.2,0,0,1,4.52-17.8ZM511.41,31a42.78,42.78,0,0,1,14.45,4.77A53.27,53.27,0,0,0,522,42a38.32,38.32,0,0,0-12.82-5.29Z"/>
          </g>
          <g class="cls-2">
            <path class="cls-3" d="M123.68,54.47v4h-2.15v7.14h-6.37V64.27h-7.91V67c0,2.2-.56,3.7-7,3.7-.86,0-1.72,0-2.28-.09a16.45,16.45,0,0,0-2-5.37,34.36,34.36,0,0,0,3.65.34c1.25,0,1.25-.43,1.25-1.33H87.47V60h13.42V58.51H84.51v-4h16.38V53.09H87.47V49.31h13.42V48.1H90V39.37h10.92v-1.2H84.51V33.65h16.38V31.29l6.66.26a.59.59,0,0,1,.65.56c0,.38-.26.47-1,.81v.73h16.26v4.52H107.25v1.2H118V48.1H107.25v1.21h14.28v5.16Zm-22.79-10V42.81H95.64v1.68Zm6.36-1.68v1.68h5.21V42.81Zm7.91,11.66V53.09h-7.91v1.38Zm0,5.5V58.51h-7.91V60Z"/>
            <path class="cls-3" d="M152.79,37.09a32.39,32.39,0,0,0,3.7-6.06l6.45,1.64c.3.08.6.21.6.51,0,.47-.6.69-1.25.6-1.12,1.77-1.55,2.5-2.15,3.31H170v5.38H130.77V37.09h9.46a19.3,19.3,0,0,0-2.45-3.65l5.81-2.62a28.82,28.82,0,0,1,3.48,5.37l-2.32.9ZM139,61.35v9.28h-6V43.89h17.11V66.42c0,3.53-1.85,4-7.52,4.21a12.41,12.41,0,0,0-2.2-6.1c.65,0,1.94.21,2.58.21.82,0,1.29-.08,1.29-1.37v-2Zm5.24-10.93V48.53H139v1.89Zm0,6.41V54.9H139v1.93ZM158.9,44.58c.38,0,.64.13.64.43s-.26.47-.64.73V62.85h-6.2V44.32Zm9.07-.91c.39,0,.77.09.77.48s-.47.56-1,.86V65.52c0,1.59,0,3-1.85,4.17-1.55,1-3.4,1-7,.94a16.25,16.25,0,0,0-1.42-6.45c.73.09,2.32.31,3,.31,1.08,0,1.08-.69,1.08-1.21V43.37Z"/>
            <path class="cls-3" d="M183.36,61.17v-10a24.22,24.22,0,0,1-3.48,2.36,21.26,21.26,0,0,0-4.26-4.77A30,30,0,0,0,181.08,45a31.67,31.67,0,0,0-3.52-2.76L181.69,38a29.4,29.4,0,0,1,3.87,2.71,12.92,12.92,0,0,0,2.58-3.57h-8V32.06H195L197,34.13a34.3,34.3,0,0,1-4.13,7.31h8.82A28.29,28.29,0,0,1,196.56,33L202,30.9a25.56,25.56,0,0,0,1.84,3.57,22.17,22.17,0,0,0,2.63-3.27L211,34c.17.09.47.3.47.52,0,.51-.73.56-1.16.56-1.41,1.8-2.58,3.14-3.09,3.65.47.56.81.9,1.16,1.25a52.82,52.82,0,0,0,3.91-4.65l4,2.71c.34.26.77.52.77.82,0,.56-.64.6-1.29.65a33.78,33.78,0,0,1-3.69,3.87,30,30,0,0,0,6.06,4c-1.76,1.29-3.83,4.91-4,5.12a47,47,0,0,1-3.95-2.84V61.17h-3.1c.3.13.48.3.48.61s-.44.68-.91.73a15.22,15.22,0,0,1-.9,2.36h10.53v5.21h-39V64.87h11c-.18-.51-.82-2.19-1.21-3.14l2.11-.56Zm6.41-16c-1.12,1.21-1.55,1.68-3.48,3.48H209a39,39,0,0,1-4.47-4V46.9H189.77Zm-.21,8.3v2.75h14.49V53.52Zm4,7.65c.38.95.68,1.68,1.2,3.27l-1.55.43h5.81a32.14,32.14,0,0,0,1.29-3.7Z"/>
            <path class="cls-3" d="M238.75,46.94h-3.14v2.24h4.3v5.46h-4.3v5.85a25.63,25.63,0,0,0,1.5-5.12l4.9,1c.26,0,.65.13.65.56s-.65.6-1.25.64c-.17.65-.25.86-.86,2.67a51,51,0,0,0,8.56-3V50.12h-3.05a44.67,44.67,0,0,1,3,5.51,40.18,40.18,0,0,0-4.65,3,36.68,36.68,0,0,0-3.09-5.85l4.38-2.71h-4.9V45.05h13.55V43.33H243.48v-4.6h10.88V37.09h-13V31.85H260.5v13.2h2.63v5.07H258l4.77,2.33a.69.69,0,0,1,.48.6c0,.43-.3.51-1.12.64a39.23,39.23,0,0,1-3.48,5.12A31,31,0,0,0,264,63.15a21.18,21.18,0,0,0-3.53,5.46,37.43,37.43,0,0,1-5.76-5.84v3.65c0,4.26-2.79,4.26-7.91,4.26a19.78,19.78,0,0,0-2.19-5.81c-.43.22-.56.26-1.16.52,0,.81-.13,1.55-.86,1.55a.72.72,0,0,1-.52-.48l-1.55-6.19a19.89,19.89,0,0,1-.9,2.19,17.59,17.59,0,0,0-4-1v2c3.14-.6,4-.81,4.86-1a17.24,17.24,0,0,0-.56,5.38c-5.46,1.2-9.89,1.93-14.06,2.53-.09.65-.22,1.21-.82,1.21-.39,0-.47-.35-.52-.65l-1-5.93c1.76-.09,4.77-.43,6.36-.6v-2a27.52,27.52,0,0,0-4.52,1.55,40,40,0,0,0-2.19-6.58L228,55.8a49.6,49.6,0,0,1,1.85,5.25V54.64h-5.63V49.18h5.63V46.94h-3.36V45.31A15.27,15.27,0,0,0,222,41.05a19.75,19.75,0,0,0,8.26-9.59l6.1,1.21c.48.08.65.21.65.47,0,.47-.48.73-1,.77a32.56,32.56,0,0,0,6.23,6,17.91,17.91,0,0,0-3.52,2.79Zm-2.54-5A20.25,20.25,0,0,1,233,38c-1,1.33-1.68,2.24-3.06,3.87Zm12.9,20.73c-1.08.6-2.67,1.46-4,2,.39,0,2.45.25,2.71.25,1.25,0,1.25-.85,1.25-1.37Zm5.63-8.9a4,4,0,0,1,.3.55,23.74,23.74,0,0,0,2.28-4.17h-2.58Z"/>
            <path class="cls-3" d="M281.15,34.64c.34.13.55.3.55.61,0,.51-.81.6-1.2.64a59.36,59.36,0,0,0-2.58,16.56,30.15,30.15,0,0,0,.3,4.29c.56-.81,1.46-2.19,2-3.05a17.85,17.85,0,0,0,3.1,4.26,19.12,19.12,0,0,0-3.57,10.53L274,69.56a60.82,60.82,0,0,1-2.32-17.33,77.25,77.25,0,0,1,2.58-19.69Zm20.42-.94c.21,0,.56.08.56.47s-.6.65-1,.69a47.38,47.38,0,0,0-.43,5.16,39.12,39.12,0,0,0,6.36-1.59v6.49c-1,.26-3,.73-6.53,1.38a69.3,69.3,0,0,0,.69,9.89,23.92,23.92,0,0,1,8.17,4.43c-.69,1.24-2,4-2.93,6.06a15.06,15.06,0,0,0-4.6-3.27c-.17,5.5-5.67,6.15-8.38,6.15-6.45,0-9.68-3.53-9.68-7.53,0-5.11,5.07-7.05,10.66-6.92-.34-4.9-.38-5.46-.47-8-2.45.21-4.21.21-4.94.21a30.8,30.8,0,0,1-3.19-.13V40.49a46.13,46.13,0,0,0,8.09.3c0-1.8,0-5.59,0-8.38Zm-8.9,26.66c-.95,0-3,.3-3,1.63,0,1.12,1.42,1.59,2.79,1.59.35,0,2.93,0,2.93-2.11a1.1,1.1,0,0,0-.09-.55A6,6,0,0,0,292.67,60.36Z"/>
            <path class="cls-3" d="M329.13,54c-2.32,2.06-3.87,4.43-3.87,5.42a1.65,1.65,0,0,0,.86,1.37c1.59.86,6.54.95,8.56.95a56.93,56.93,0,0,0,16.6-2.15,47.33,47.33,0,0,0,1.25,7.14c-5.9,1.46-14.88,1.72-18.24,1.72-9.84,0-16.16-1.81-16.16-8.34,0-3.7,3-7,6.4-9.85Zm20.56-15a41.44,41.44,0,0,0-13.55,8.52l-3.82-4.3a18,18,0,0,0,3.05-2.58c-1.08.08-3.74.26-7.66.26a55,55,0,0,1-5.8-.26l-.34-7.1a76,76,0,0,0,13,1,56.19,56.19,0,0,0,11.65-1Z"/>
            <path class="cls-3" d="M381.55,32.62c.34.09.82.26.82.69,0,.26-.22.56-.95.6-.94,2.93-1,3.23-1.25,3.87a65.34,65.34,0,0,0,14-3.39c.22,1.41.78,4.68,1.21,6.4a74.41,74.41,0,0,1-17.59,3.66c-1,2.84-1.38,3.7-2.24,5.8a25.47,25.47,0,0,1,11.18-2.92c11.48,0,12.09,8.08,12.09,10.23a10.64,10.64,0,0,1-4.6,8.69c-2.28,1.55-6.58,4.13-18.5,4.13a37.82,37.82,0,0,1-4-.22,30.67,30.67,0,0,0-1.59-6.41,62.52,62.52,0,0,0,6.4.39c1,0,8.34,0,12.77-2.62a4.39,4.39,0,0,0,2.33-4c0-2.5-1.29-4.6-5.25-4.6-3.79,0-9.85,1.93-14.88,7.18L365.34,57a60,60,0,0,0,5.72-12.08c-3.74,0-6.71-.13-8.34-.26l-.09-7c2.8.69,5.25.94,10.41.94a56.72,56.72,0,0,0,1.63-7.61Z"/>
            <path class="cls-3" d="M422.62,41.05c.3.09.64.17.64.56s-.52.56-1,.6a29.23,29.23,0,0,0-2.84,7.44,23.86,23.86,0,0,1,12.56-4c7.39,0,11,5.46,11,10.58,0,8.21-7.74,13.85-22,13.85-1.24,0-2.32,0-3.14-.09-.25-2.37-.6-3.53-2-7.22a24.57,24.57,0,0,0,6.37.64c9.76,0,13.63-3.65,13.63-7.27,0-1.24-.6-4.38-5-4.38-6.15,0-10.62,4-13.72,7.05L411,56.57a102.2,102.2,0,0,1,4.52-17.8ZM420.25,31a42.78,42.78,0,0,1,14.45,4.77A53.27,53.27,0,0,0,430.83,42,38.32,38.32,0,0,0,418,36.75Z"/>
            <path class="cls-3" d="M472.62,33.61c.48.13.86.26.86.65,0,.6-.9.68-1.16.68-.64,2.93-.9,4.05-1.2,5.16,3.7,0,9.85.13,9.85,10.54,0,7.09-2.24,13.16-4.3,15.91a7.4,7.4,0,0,1-6.37,3,23.21,23.21,0,0,1-4.56-.47,12,12,0,0,0,.13-1.6,32.61,32.61,0,0,0-.64-5.76,7.13,7.13,0,0,0,3.74,1,3.24,3.24,0,0,0,2.54-.82c1.46-1.29,2.83-6.1,2.83-11.44,0-4.42-3.09-4.17-4.94-4C466,58,462,64.57,458.48,69.09a30,30,0,0,0-6.32-3.4,51.58,51.58,0,0,0,10.23-18,46.39,46.39,0,0,0-6.84,2.2l-2.36-6.93c1.76-.34,9.42-1.93,11-2.19a65.94,65.94,0,0,0,1.33-9.42Zm11.61,2.24C489,41.14,492,48.32,492,51.71c0,2.24-.73,3.44-3.05,4.56a17.06,17.06,0,0,1-4.3,1.34,34.8,34.8,0,0,0-2.49-5.77c1.16-.25,2.75-.6,2.75-2a17.12,17.12,0,0,0-2.24-5.9A31.36,31.36,0,0,0,479,39.2Z"/>
            <path class="cls-3" d="M513.78,41.05c.3.09.64.17.64.56s-.52.56-1,.6a29.23,29.23,0,0,0-2.84,7.44,23.86,23.86,0,0,1,12.56-4c7.39,0,11,5.46,11,10.58,0,8.21-7.74,13.85-22,13.85-1.24,0-2.32,0-3.14-.09-.25-2.37-.6-3.53-2-7.22a24.57,24.57,0,0,0,6.37.64c9.76,0,13.63-3.65,13.63-7.27,0-1.24-.6-4.38-5-4.38-6.15,0-10.62,4-13.72,7.05l-6.15-2.24a102.2,102.2,0,0,1,4.52-17.8ZM511.41,31a42.78,42.78,0,0,1,14.45,4.77A53.27,53.27,0,0,0,522,42a38.32,38.32,0,0,0-12.82-5.29Z"/>
          </g>
        </g>
        <g>
          <path class="cls-4" d="M88.06,105.87l-.81-.81,8.23-8.2-8.23-8.2.81-.81,8.2,8.23,8.2-8.23.81.81-8.22,8.2,8.22,8.2-.81.81-8.2-8.22Zm3.42-9a2.12,2.12,0,1,1-2.1-2.1A2.11,2.11,0,0,1,91.48,96.86ZM98.36,90a2.1,2.1,0,1,1-2.1-2.13A2.11,2.11,0,0,1,98.36,90Zm0,13.77a2.1,2.1,0,1,1-2.1-2.1A2.11,2.11,0,0,1,98.36,103.75Zm6.91-6.89a2.11,2.11,0,1,1-2.12-2.1A2.11,2.11,0,0,1,105.27,96.86Z"/>
          <path class="cls-4" d="M133,99.93v2.25H123v3.54c0,2.69-1.65,2.84-5.65,2.81a10,10,0,0,0-.91-2.66c.3,0,1.67.13,2,.13,1.27,0,1.42,0,1.67-.15s.3-.28.3-1.37v-2.3H110.22V99.93h10.17v-2l1.3.2a8.56,8.56,0,0,0,2.32-2H114.7V93.83h12.58l1,1.54a30.88,30.88,0,0,1-5.26,4.3v.26Zm-8.33-10.08a24.54,24.54,0,0,0,3.24-4.53l2.61.91c.18.08.33.15.33.33s-.43.35-.84.38c-1.06,1.54-1.36,1.92-2.15,2.91h4.79V96.1H130V92H113.1V96.1h-2.5V89.85h4.05a25.84,25.84,0,0,0-2.23-3.26l2.13-1.17A16.46,16.46,0,0,1,117,89a16.48,16.48,0,0,0-1.62.89Zm-4-5a21.13,21.13,0,0,1,2.48,3.72,9.68,9.68,0,0,0-2.26,1.22,17,17,0,0,0-2.5-3.85Z"/>
          <path class="cls-4" d="M145.77,90.2v-5l2.68.1c.23,0,.63,0,.63.35s-.28.38-.55.48v4h9v2.41h-9v5h6.8v2.4h-6.8v5.34h10v2.36H135.36v-2.36h10.41v-5.34h-6.61v-2.4h6.61v-5h-5.85a28.47,28.47,0,0,1-2.89,4.3,7.33,7.33,0,0,0-2.38-1.36c4.31-5.29,5.17-9.5,5.24-9.93l2.56.76c.25.08.53.15.53.43s-.38.38-.66.36c-.5,1.39-.63,1.69-1.21,3Z"/>
          <path class="cls-4" d="M172,96.51a1.87,1.87,0,0,1-1.87,1.87,1.87,1.87,0,1,1,0-3.74A1.87,1.87,0,0,1,172,96.51Z"/>
          <path class="cls-4" d="M191.47,85.8c.28,0,.51.08.51.35s-.26.33-.43.36c-.05.58-.13,1.57-.21,3.52a21.34,21.34,0,0,0,4.71-1.34c0,1.44,0,2.25.08,2.68a29,29,0,0,1-4.86,1.16l0,3.45a12.38,12.38,0,0,1,4.81-1.14c3.39,0,6.79,1.9,6.79,6.22a5.38,5.38,0,0,1-5.4,5.75c-3.77,0-3.84-3.44-3.84-4.3a19.28,19.28,0,0,0,2.17-.74c0,.84-.1,2.56,1.9,2.56,1.62,0,2.66-1.39,2.66-3.24,0-2.18-1.52-4-4.3-4a10.2,10.2,0,0,0-4.81,1.34,79.18,79.18,0,0,0,.33,8.38l-2.13,1a37.8,37.8,0,0,0-5.06-4.25c-.46.43-.81.78-1.37,1.34l-1.11-2.79c.5-.3.83-.55,1.36-.93,3.83-2.81,4.26-3.12,5.45-3.85,0-2,0-2.28,0-4.51-1.72.13-3.47.18-5.19.21l-.07-2.66a12.27,12.27,0,0,0,1.89.12c1.22,0,2.69-.1,3.37-.15,0-1.69,0-3.39,0-5.06ZM186,102.1a27.12,27.12,0,0,0,2.63,2c.13,0,.1-.4.08-4.07A31.3,31.3,0,0,0,186,102.1Zm13.67-13a20,20,0,0,1,5.52,4.1,18,18,0,0,0-1.7,2,14.65,14.65,0,0,0-5.37-4Z"/>
          <path class="cls-4" d="M220.13,95.24h10.13V97.7H220.13v7.14c0,3.24-1.44,3.62-5.77,3.64a11,11,0,0,0-.83-2.88,12.49,12.49,0,0,0,2.1.22c1.77,0,1.79-.33,1.79-1.89V97.7H207V95.24h10.47V91.5l1.68.27a16.89,16.89,0,0,0,3.54-3H209.4v-2.4H226l1.49,1.44a43.7,43.7,0,0,1-7.34,6.35Z"/>
          <path class="cls-4" d="M237.84,108.41h-2.21V97.7a22.94,22.94,0,0,1-2.17,5.09,6.4,6.4,0,0,0-1.85-1.75,23.24,23.24,0,0,0,3.95-8.84h-3.29v-2h3.36V85.27l2.21.15c.07,0,.53.1.53.36s-.16.27-.53.43v3.94h2.45v2h-2.45V93A15.2,15.2,0,0,0,241,98.38a4.86,4.86,0,0,0-1.57,1.57,16.85,16.85,0,0,1-1.62-3.42Zm11.23-17h4.59v1.88h-4.59v1.54h6.59v2h-6.59v2a13.36,13.36,0,0,0,1.3,1.65,14.25,14.25,0,0,0,3-3.6l1.79,1.24a.5.5,0,0,1,.23.41c0,.25-.28.28-.63.28a17.56,17.56,0,0,1-2.94,3.06,16.7,16.7,0,0,0,4.46,2.91,6.15,6.15,0,0,0-1.5,2.08,19.3,19.3,0,0,1-5.67-4.86V105c0,3.21-1.29,3.47-4.2,3.52a5.71,5.71,0,0,0-1.19-2.58,10.64,10.64,0,0,0,1.6.12c1.21,0,1.29-.33,1.29-1.09v-2.17a51.92,51.92,0,0,1-5,2.73c-.18.48-.2.58-.35.58s-.33-.25-.41-.43l-.91-2a33,33,0,0,0,6.71-3.22V96.84h-6.13v-2h6.13V93.27H242V91.39h4.58V90h-5.92v-2h3.46a13.47,13.47,0,0,0-1.52-2.2l2.16-.91a30.53,30.53,0,0,1,1.74,2.7l-1.06.41h3.34a18.82,18.82,0,0,0,1.62-3.22l2.33.76a.42.42,0,0,1,.3.38c0,.1-.2.26-.58.28-.33.61-.71,1.22-1.09,1.8h3.85v2h-6.13ZM243.4,97a23,23,0,0,1,2.21,2.89c-.23.18-1.32,1-1.65,1.32a28.43,28.43,0,0,0-2.33-3Z"/>
          <path class="cls-4" d="M263.36,87c.28.1.33.15.33.35s-.2.35-.69.4a39.85,39.85,0,0,0-1.39,10.41,26.41,26.41,0,0,0,.21,3.64c.27-.53,1.31-3,1.56-3.49a9.25,9.25,0,0,0,1.37,1.72,15.15,15.15,0,0,0-2.07,7l-2.28.46a34.7,34.7,0,0,1-1.24-9.67,51.89,51.89,0,0,1,1.41-11.8Zm12.33-.51c.25,0,.3.15.3.25,0,.33-.35.38-.58.43a33.48,33.48,0,0,0-.25,3.65,27.52,27.52,0,0,0,4.25-1l0,2.55c-.78.18-2.1.51-4.32.86a59.24,59.24,0,0,0,.38,7,18.09,18.09,0,0,1,5.31,2.89,25.62,25.62,0,0,0-1.24,2.3,11.75,11.75,0,0,0-3.82-2.45c.12,3.19-2.86,4.13-4.94,4.13-2.68,0-4.45-1.8-4.45-3.73,0-2.68,2.76-3.74,4.91-3.74a8.94,8.94,0,0,1,1.62.15c-.15-1.7-.18-2.15-.28-6.23-1.57.15-3,.23-4.15.23-.81,0-1.34,0-1.9,0V91.12c.76.07,1.69.15,3.06.15s2.38-.08,2.94-.13c0-1.37,0-3.44.05-5.11Zm-4.48,15.19c-.33,0-2.64,0-2.64,1.67,0,1.16,1.37,1.64,2.31,1.64a2.15,2.15,0,0,0,2.38-2.1,4.63,4.63,0,0,0-.1-.83A4.64,4.64,0,0,0,271.21,101.7Z"/>
          <path class="cls-4" d="M291,98.13c-.43.35-3,2.5-3,4.1a1.51,1.51,0,0,0,.76,1.39c1.7,1,5.16,1,5.9,1a33.14,33.14,0,0,0,9.47-1.21,23.71,23.71,0,0,0,.6,2.76,51.06,51.06,0,0,1-10,1c-5.87,0-9.44-1.19-9.44-4.66,0-1,.2-2.79,3.85-5.85Zm10.45-8.74a31.4,31.4,0,0,0-6.83,5c-.33-.35-1.42-1.36-1.75-1.64,1.19-1,2.36-2.05,3.62-3-1,.08-3.72.28-6.43.28a23.11,23.11,0,0,1-3.06-.15l-.2-2.74a35.53,35.53,0,0,0,5.69.43A48.23,48.23,0,0,0,300,87Zm1.32-2.68a20.5,20.5,0,0,1,2.4,2.66,6.45,6.45,0,0,0-1.21,1.24,19,19,0,0,0-2.46-2.73Zm1.87-2a24.12,24.12,0,0,1,2.48,2.58,5.21,5.21,0,0,0-1.31,1.26,17,17,0,0,0-2.33-2.7Z"/>
          <path class="cls-4" d="M319.6,90.89c-.05-.76-.05-1.29-.08-2.38h-5.44V85.9h8.28c0,.53-.06,2.79-.06,3.24,0,2.89,0,11.24,9.83,17.32a7.45,7.45,0,0,0-2.18,2.12c-3.77-2.55-8.78-7.62-10-14.1a24.25,24.25,0,0,1-10,14.1,8,8,0,0,0-2.15-2c8.63-5.62,9.67-12.58,10.1-16Z"/>
          <path class="cls-4" d="M342.31,90.91v2.36H339.4v6c2-.76,2.13-.81,3-1.22a6.52,6.52,0,0,0-.26,1.88,4.51,4.51,0,0,0,.05.6c-2.12,1-6.45,2.53-7.21,2.79,0,.28-.05.66-.41.66s-.3-.33-.38-.59l-.63-2.45a27.14,27.14,0,0,0,3.27-.84V93.27h-3.07V90.91h3.07V85.34l2.6.18c.23,0,.54.08.54.28s-.23.33-.56.48v4.63Zm2.35,9.9a19.37,19.37,0,0,1-3.46,3.32,4.72,4.72,0,0,0-1.8-1.34,15.9,15.9,0,0,0,5.11-5.27h-2.93V95.6h15.24v1.92h-9.95c-.21.41-.54.89-.74,1.22h10.13a28.08,28.08,0,0,1-.91,7.49c-.43,1.21-1,2.18-3.78,2.18-.3,0-.53,0-.86,0a7.45,7.45,0,0,0-.91-2.66,8.84,8.84,0,0,0,1.95.23c.58,0,1.09,0,1.39-1.27a17.86,17.86,0,0,0,.59-3.85h-1.19a22.64,22.64,0,0,1-6,7.82,5.44,5.44,0,0,0-1.92-1.26,17.67,17.67,0,0,0,5.69-6.56h-1.57a21.71,21.71,0,0,1-3.82,4.66,17.11,17.11,0,0,1-3.26,2.35,5.38,5.38,0,0,0-1.72-1.51,16.19,16.19,0,0,0,6.45-5.5Zm10-6.28H343.55V85.88h11.09Zm-2.36-5.26V87.85h-6.22v1.42Zm-6.22,1.82v1.55h6.22V91.09Z"/>
          <path class="cls-4" d="M363.88,87.88c.36.1.54.15.54.4s-.33.36-.56.36a24.21,24.21,0,0,0-1.22,7.59c0,4.13,1.57,7.26,2.76,7.26s2.41-3.24,3-4.7a8.3,8.3,0,0,0,1.85,1.72c-.46,1.11-2.56,6.35-5,6.35-2.07,0-5.21-3.85-5.21-11A44.86,44.86,0,0,1,361.13,87Zm13,.5a25.59,25.59,0,0,1,5,13c-.4.13-2.1.89-2.78,1.19a22.29,22.29,0,0,0-4.48-12.76Z"/>
          <path class="cls-4" d="M395.38,86c.33.07.48.2.48.35,0,.31-.35.36-.48.38-.12.51-.68,2.84-.78,3.32a19.44,19.44,0,0,0,5.16-1.37l.43,2.61a38.72,38.72,0,0,1-6.28,1.29A56.8,56.8,0,0,1,387.13,108a21.41,21.41,0,0,0-2.56-1.32A40.42,40.42,0,0,0,391.13,93a46,46,0,0,1-5.37.25l-.22-2.76c.6,0,1.26.1,2.25.1,1.69,0,3.16-.12,4-.17a41.7,41.7,0,0,0,.74-5.09Zm2.23,15a3.94,3.94,0,0,0-1.09,2.38c0,1,1.19,1.65,4.79,1.65a19.43,19.43,0,0,0,5.39-.84,10.39,10.39,0,0,0-.1,1.4,5.71,5.71,0,0,0,.15,1.39,30.13,30.13,0,0,1-5.39.48c-1.65,0-7.24,0-7.24-3.87a6.11,6.11,0,0,1,1.29-3.45Zm-.94-6.35a39.18,39.18,0,0,1,5.8-.43,22.41,22.41,0,0,1,3.7.25,17.21,17.21,0,0,0-.21,2.59,17,17,0,0,0-3.77-.36,42.37,42.37,0,0,0-5.52.43Z"/>
          <path class="cls-4" d="M420.7,86c.33.07.49.2.49.35,0,.31-.36.36-.49.38-.12.51-.68,2.84-.78,3.32a19.44,19.44,0,0,0,5.16-1.37l.43,2.61a38.75,38.75,0,0,1-6.27,1.29A57.15,57.15,0,0,1,412.45,108a21.09,21.09,0,0,0-2.55-1.32A40.66,40.66,0,0,0,416.45,93a45.88,45.88,0,0,1-5.37.25l-.22-2.76c.6,0,1.26.1,2.25.1,1.7,0,3.16-.12,4-.17a41.7,41.7,0,0,0,.74-5.09Zm2.23,15a4,4,0,0,0-1.09,2.38c0,1,1.19,1.65,4.79,1.65a19.38,19.38,0,0,0,5.39-.84,10.39,10.39,0,0,0-.1,1.4,5.71,5.71,0,0,0,.15,1.39,30.07,30.07,0,0,1-5.39.48c-1.65,0-7.24,0-7.24-3.87a6.11,6.11,0,0,1,1.29-3.45ZM422,94.66a39.18,39.18,0,0,1,5.8-.43,22.41,22.41,0,0,1,3.7.25,16.85,16.85,0,0,0-.2,2.59,17.15,17.15,0,0,0-3.78-.36,42.53,42.53,0,0,0-5.52.43Zm6.23-7.06a20,20,0,0,1,2.46,2.71,5.21,5.21,0,0,0-1.42,1,26.87,26.87,0,0,0-2.35-2.73Zm2.46-1.7a16.27,16.27,0,0,1,2.45,2.68,10.82,10.82,0,0,0-1.34,1,17.46,17.46,0,0,0-2.4-2.78Z"/>
          <path class="cls-4" d="M440.63,86.79c.28.07.41.1.41.3s-.41.36-.58.38a31.61,31.61,0,0,0-1.24,9.14,22.09,22.09,0,0,0,.63,5.64c.13-.3.18-.5.81-2.2.33-.88.73-1.77,1-2.35a6.74,6.74,0,0,0,1.93,1.19,23.7,23.7,0,0,0-2.76,7.9l-2.13.48c-2-4.18-2.08-9.93-2.08-11.17a41.91,41.91,0,0,1,1.24-10ZM453.09,86c.53,0,.68.07.68.28s-.28.33-.45.38c0,3.51,0,3.92.05,5a20.36,20.36,0,0,0,4.17-1.19,24.88,24.88,0,0,0,0,2.61,22,22,0,0,1-4.2,1.06c0,4.48,0,6.58-1.09,9a13.32,13.32,0,0,1-4.2,5.22,6.93,6.93,0,0,0-2.15-1.85c4.61-3.22,5-6.23,4.91-12a54,54,0,0,1-6.43.28l-.23-2.69a16.67,16.67,0,0,0,2.48.16,39.92,39.92,0,0,0,4.13-.23c0-.94-.18-4.2-.48-6.38Z"/>
          <path class="cls-4" d="M473.75,86c.23,0,.41,0,.41.28s-.36.35-.51.4c-.08,1.06-.1,1.62-.13,2.1,1.22,0,6.53-.1,7.62,0v2.5c-1.31-.07-3.16-.2-7.67-.12,0,.12-.05,2.76,0,4a32.28,32.28,0,0,0,7-1.14v2.58a43.29,43.29,0,0,1-7,.86c0,.51.08,2.76.1,3.22a22.53,22.53,0,0,1,8.36,3.57,27.44,27.44,0,0,0-1.77,2.2,17.1,17.1,0,0,0-6.46-3.54c.1,1.74.31,4.81-4.88,4.81-3.65,0-6-1.78-6-3.78,0-2.68,3.31-3.77,6.07-3.77.53,0,1.37.05,2,.1,0-.32-.05-2.17-.05-2.65-3.57.07-7.47.15-7.47-2,0-.89.53-1.67,1.8-2.84l2,.63c-.89.79-1,.89-1,1.22,0,.56.64.61,1.5.66a26.7,26.7,0,0,0,3.14,0c0-.63-.05-3.44-.05-4-4.11.15-6.89.5-8.46.68V89.27c1.32-.1,7.24-.38,8.46-.43,0-1.88,0-2.48-.13-3.42Zm-4.63,16.1c-1.72,0-3.6.45-3.6,1.74,0,1.5,2.36,1.62,2.92,1.62,2.6,0,2.6-1.54,2.6-2.35a7,7,0,0,0-.05-.81A6.92,6.92,0,0,0,469.12,102.08Z"/>
          <path class="cls-4" d="M503.17,86.1c.54.08.56.21.56.31,0,.28-.3.38-.48.43,0,.43,0,3.21.05,4.81l5-.63.05,2.75a37.91,37.91,0,0,0-5.11.31c0,6.58-.46,7.31-5.88,7.29a20.61,20.61,0,0,0-.68-2.53,13.15,13.15,0,0,0,1.72.1c2.23,0,2.25-.61,2.4-4.56-1.06.18-5.77.91-6.73,1.07,0,.5-.05,2.65-.05,3.16,0,5.11.1,6.15,5,6.15a30.14,30.14,0,0,0,7.67-1,23.15,23.15,0,0,0-.38,2.78,49.81,49.81,0,0,1-7.8.61c-6.83,0-7-3.34-7-7.9,0-.22,0-3,.05-3.36-2.36.43-4,.88-5.32,1.21l-.28-3a39.18,39.18,0,0,0,5.55-.73,44.57,44.57,0,0,0-.28-6.18l3,.38c.28,0,.66.1.66.38s-.28.41-.5.48c-.08,1.22-.21,3.14-.26,4.54.71-.13,5.29-.82,6.56-1a38.36,38.36,0,0,0-.53-6.3Z"/>
          <path class="cls-4" d="M523.71,86.28c.13,0,.36.23.36.41,0,.35-.41.27-.59.27-.73,1.35-3.62,7.42-4.3,8.61a7.31,7.31,0,0,1,2.86-.63c1.47,0,3.39.56,3.39,3.14a12.4,12.4,0,0,1-.35,2.73,13,13,0,0,0-.21,2.31c0,.6,0,2,1.47,2,2.13,0,5-3.06,6.15-4.76a14,14,0,0,0,1.83,2.13c-1.14,1.39-4.43,5.29-8.51,5.29a3.44,3.44,0,0,1-3.62-3.75c0-.83.51-4.53.51-5.29,0-1.26-.71-1.54-1.47-1.54-2.15,0-3.34,1.82-3.85,2.63a46.27,46.27,0,0,0-3.69,7.49l-2.81-1.21c2.25-3.72,4.32-7.93,5-9.32A118.53,118.53,0,0,0,521.05,85Z"/>
        </g>
      </g>
    </g>
  </g>
</svg>
