<svg xmlns="http://www.w3.org/2000/svg" width="40" height="40"><g data-name="レイヤー 2"><circle cx="20" cy="20" r="20" fill="#1da1f2"/><path d="M16.34 30.55a13.63 13.63 0 0013.72-13.72v-.62a9.71 9.71 0 002.41-2.5 9.47 9.47 0 01-2.77.76 4.82 4.82 0 002.1-2.67 9.3 9.3 0 01-3.06 1.2 4.82 4.82 0 00-8.34 3.3 4.94 4.94 0 00.12 1.1 13.66 13.66 0 01-9.93-5 4.81 4.81 0 001.49 6.44 4.78 4.78 0 01-2.19-.6v.06a4.85 4.85 0 003.87 4.7 4.81 4.81 0 01-1.27.16 5.5 5.5 0 01-.91-.08 4.85 4.85 0 004.51 3.35 9.69 9.69 0 01-6 2.06A8.77 8.77 0 019 28.38a13.63 13.63 0 007.39 2.17" fill="#fff"/></g></svg>