<svg xmlns="http://www.w3.org/2000/svg" viewBox="0 0 630 54.85"><g data-name="レイヤー 2"><path d="M0 49.85h630v5H0zM15.73 6.73c.32.07.72.18.72.54s-.5.54-.76.54c-2.88 13.07-6.3 18.54-10.07 23a28.76 28.76 0 00-5.44-2.55c5.65-6.34 8.64-14.51 9.65-23zm8.6-2.23c2.45 3.17 8.35 12.2 10.59 22a38.16 38.16 0 00-5.66 3.13 52.11 52.11 0 00-9.61-21.78zm4.36-1.22a25.49 25.49 0 013.6 4.14c-.9.72-1.77 1.47-2.67 2.3A33.88 33.88 0 0026 5.47zm3.6-2.6a24.52 24.52 0 013.6 4 18.81 18.81 0 00-2.56 2.12 30.37 30.37 0 00-3.53-4.06zM56 1.87l6.08.22c.33 0 .76 0 .76.43s-.58.61-.76.68v6.41h11.3V15H62c-.36 6.09-2.6 14-12.64 19.08a20.58 20.58 0 00-4.57-4.35C55.33 25.13 55.69 18.9 55.94 15H42.08V9.61H56zm56.86 12.96V21H81.58v-6.17zm21.78-.9a49.87 49.87 0 015.65 3.31 38 38 0 002.63-5.24h-8.68a59.18 59.18 0 01-7.31 8 29 29 0 00-4.57-3.74 37.55 37.55 0 0011.77-15.11L139.79 3c.54.18.61.29.61.47 0 .36-.36.46-.87.54-.83 1.44-1.29 2.16-1.83 3h8a6.74 6.74 0 002.45-.4l2.55 2.27a9.9 9.9 0 00-.57 1.12 80.5 80.5 0 01-5.37 10.8c1.77 1.69 2.45 2.48 3.21 3.31-1.66 2.12-1.77 2.26-3.53 4.78a29.54 29.54 0 00-3.13-3.63A36.82 36.82 0 01128 34a22.71 22.71 0 00-3.7-4.82c7.05-2.34 10.51-4.9 12.81-7.53a37.58 37.58 0 00-5.9-3.78zM145.26 0a35.41 35.41 0 013.09 3.85A19.22 19.22 0 00145.26 6a45.31 45.31 0 00-3-3.78zm5.86 0a32.1 32.1 0 013.24 4 12.75 12.75 0 01-1.44 1c-.32.22-.75.5-1.58 1.12-1.48-2.09-2.27-3.06-3.17-4.14zm34.64 7.2a6.46 6.46 0 002.66-.36L192 9.47c-.21.86-1.18 4.71-1.4 5.5-1.84 6.3-3.92 11-8.53 15.37a19.73 19.73 0 01-6.41 4.29 18.69 18.69 0 00-4.57-4.21 21.8 21.8 0 009.79-7.35 29.08 29.08 0 004.36-10.76H168V20h-5.9V7.2h11.26V1.73l6.16.25c.29 0 .79 0 .79.36s-.54.61-.79.68V7.2zm19.47-4.79c6.05 3.1 7.92 4.9 9 5.9-.86 1-1.11 1.44-3.49 4.9a37.13 37.13 0 00-9.07-5.76zm-2.95 24.87c10.26-2.12 20.38-9.07 26.78-19.36a22.76 22.76 0 003.71 4.89 47.58 47.58 0 01-11.19 12 60.08 60.08 0 01-14.83 8c0 .39-.18.79-.51.79s-.36-.11-.57-.5zm45.54 2.24v1.83h-6V5.69h27.64v25.66h-6v-1.83zm15.63-5.33V11.05h-15.63v13.14zm47.41-9.36V21h-31.28v-6.17zm24.84-3.49a58.79 58.79 0 0112.45 8.46 56.82 56.82 0 00-3.53 5.2 43.69 43.69 0 00-11.08-8.28V33.8h-6.16V2l6.16.22c.18 0 .65 0 .65.46s-.4.54-.65.62v11.1zm8-6.37a34.46 34.46 0 013.68 3.67c-.83.68-2.16 1.76-3 2.45a24 24 0 00-3.52-3.82zm3.86-2.81a22.89 22.89 0 013.67 3.64c-.47.36-2.34 1.94-2.7 2.23a40.08 40.08 0 00-3.75-3.78z" fill="#ffa000" data-name="object"/></g></svg>