<?xml version="1.0" encoding="utf-8"?>
<!-- Generator: Adobe Illustrator 21.0.0, SVG Export Plug-In . SVG Version: 6.00 Build 0)  -->
<svg version="1.1" id="レイヤー_1" xmlns="http://www.w3.org/2000/svg" xmlns:xlink="http://www.w3.org/1999/xlink" x="0px"
	 y="0px" viewBox="0 0 260 45.7" style="enable-background:new 0 0 260 45.7;" xml:space="preserve">
<style type="text/css">
	.st0{fill:#243B51;}
</style>
<g>
	<path class="st0" d="M28.7,26.4c-2.5,2.7-5.2,3.1-11.7,3.1h-1.3C4,29.5,0,26.7,0,15.9c0-2.5,0.3-4.9,0.8-6.6
		c1.1-3.9,4.9-6.7,9.8-7.3c2.4-0.3,5.3-0.5,8.2-0.5c17.1,0,18.9,4.3,18.9,21.2c0,17.5-1.8,22.4-19.2,22.4C6.8,45,0.5,43.2,0.5,32.4
		l9.3-0.1c0,0.4,0.1,0.9,0.1,1.2c0.3,2.5,2.1,3.5,8.5,3.5c8.9,0,10.3-1.7,10.3-9.4V26.4z M18.5,9.5c-8.8,0-9.6,1.4-9.6,6.3
		c0,4.9,1.5,5.9,8.9,5.9c10,0,10.5-1.7,10.7-6C28.6,11,27.1,9.5,18.5,9.5z"/>
	<path class="st0" d="M40.7,43.7L58.9,2.4h8.3L48.9,43.7H40.7z"/>
	<path class="st0" d="M70.5,43.7c0-0.4,0.1-5.5,0.1-5.8c0.1-7.8,0.9-13.1,9.6-15.2c2-0.5,9.2-2,13.2-2.9c3.8-0.8,4.4-2.5,4.4-4.9
		c0-2.5-0.2-4.7-7.7-4.7h-0.8c-1.4,0-2.6,0.2-3.9,0.3c-4.7,0.6-4.8,2.2-4.8,6.9h-9.9c0-1.1,0.1-2.2,0.1-3C71,4.7,75.7,1.6,89.1,1.6
		c13.7,0,18.4,2,18.4,13.4c0,7.9-1.9,12.1-11,13.6c-0.3,0.1-11.7,1.8-12,1.9c-4.3,0.9-4.3,2.8-4.3,4.6l27-0.3v8.9H70.5z"/>
	<path class="st0" d="M128.2,43.7V11.4h-9.8v-9h19.5v41.4L128.2,43.7z"/>
	<path class="st0" d="M157.3,23.1c0-4.3,3.5-7.7,7.7-7.7c4.3,0,7.7,3.5,7.7,7.7s-3.5,7.7-7.7,7.7C160.8,30.8,157.3,27.4,157.3,23.1z
		"/>
	<path class="st0" d="M180.3,43.7c0-0.4,0.1-5.5,0.1-5.8c0.1-7.8,0.9-13.1,9.6-15.2c2-0.5,9.2-2,13.2-2.9c3.8-0.8,4.4-2.5,4.4-4.9
		c0-2.5-0.2-4.7-7.7-4.7h-0.8c-1.4,0-2.6,0.2-3.9,0.3c-4.7,0.6-4.8,2.2-4.8,6.9h-9.9c0-1.1,0.1-2.2,0.1-3
		c0.3-9.7,4.9-12.8,18.3-12.8c13.7,0,18.4,2,18.4,13.4c0,7.9-1.9,12.1-11,13.6c-0.3,0.1-11.7,1.8-12,1.9c-4.3,0.9-4.3,2.8-4.3,4.6
		l27-0.3v8.9H180.3z"/>
	<path class="st0" d="M222.5,43.7c0-0.4,0.1-5.5,0.1-5.8c0.1-7.8,0.9-13.1,9.6-15.2c2-0.5,9.2-2,13.2-2.9c3.8-0.8,4.4-2.5,4.4-4.9
		c0-2.5-0.2-4.7-7.7-4.7h-0.8c-1.4,0-2.6,0.2-3.9,0.3c-4.7,0.6-4.8,2.2-4.8,6.9h-9.9c0-1.1,0.1-2.2,0.1-3C223,4.7,227.6,1.6,241,1.6
		c13.7,0,18.4,2,18.4,13.4c0,7.9-1.9,12.1-11,13.6c-0.3,0.1-11.7,1.8-12,1.9c-4.3,0.9-4.3,2.8-4.3,4.6l27-0.3v8.9H222.5z"/>
</g>
</svg>
