<svg id="レイヤー_1" data-name="レイヤー 1" xmlns="http://www.w3.org/2000/svg" xmlns:xlink="http://www.w3.org/1999/xlink" viewBox="0 0 412.26 36.63"><defs><style>.cls-1{fill:url(#名称未設定グラデーション_36);}.cls-2{fill:url(#名称未設定グラデーション_36-2);}.cls-3{fill:url(#名称未設定グラデーション_36-3);}.cls-4{fill:url(#名称未設定グラデーション_36-5);}.cls-5{fill:url(#名称未設定グラデーション_36-6);}.cls-6{fill:url(#名称未設定グラデーション_36-7);}.cls-7{fill:url(#名称未設定グラデーション_36-8);}.cls-8{fill:url(#名称未設定グラデーション_36-9);}.cls-9{fill:url(#名称未設定グラデーション_36-10);}.cls-10{fill:url(#名称未設定グラデーション_36-11);}.cls-11{fill:url(#名称未設定グラデーション_36-12);}.cls-12{fill:url(#名称未設定グラデーション_36-14);}.cls-13{fill:url(#名称未設定グラデーション_36-15);}.cls-14{fill:url(#名称未設定グラデーション_36-17);}.cls-15{fill:url(#名称未設定グラデーション_36-19);}</style><linearGradient id="名称未設定グラデーション_36" y1="116.79" x2="412.26" y2="116.79" gradientTransform="matrix(1, 0, 0, -1, 0, 131.59)" gradientUnits="userSpaceOnUse"><stop offset="0" stop-color="#3bd1ff"/><stop offset="0.54" stop-color="#00f0a4"/><stop offset="1" stop-color="#04ff00"/></linearGradient><linearGradient id="名称未設定グラデーション_36-2" y1="111.95" x2="412.26" y2="111.95" xlink:href="#名称未設定グラデーション_36"/><linearGradient id="名称未設定グラデーション_36-3" y1="111.94" x2="412.26" y2="111.94" xlink:href="#名称未設定グラデーション_36"/><linearGradient id="名称未設定グラデーション_36-5" y1="111.96" x2="412.26" y2="111.96" xlink:href="#名称未設定グラデーション_36"/><linearGradient id="名称未設定グラデーション_36-6" y1="111.94" x2="412.26" y2="111.94" xlink:href="#名称未設定グラデーション_36"/><linearGradient id="名称未設定グラデーション_36-7" y1="116.79" x2="412.26" y2="116.79" xlink:href="#名称未設定グラデーション_36"/><linearGradient id="名称未設定グラデーション_36-8" y1="116.79" x2="412.26" y2="116.79" xlink:href="#名称未設定グラデーション_36"/><linearGradient id="名称未設定グラデーション_36-9" y1="103.5" x2="412.26" y2="103.5" xlink:href="#名称未設定グラデーション_36"/><linearGradient id="名称未設定グラデーション_36-10" y1="116.78" x2="412.26" y2="116.78" xlink:href="#名称未設定グラデーション_36"/><linearGradient id="名称未設定グラデーション_36-11" y1="111.94" x2="412.26" y2="111.94" xlink:href="#名称未設定グラデーション_36"/><linearGradient id="名称未設定グラデーション_36-12" y1="116.75" x2="412.26" y2="116.75" xlink:href="#名称未設定グラデーション_36"/><linearGradient id="名称未設定グラデーション_36-14" y1="116.77" x2="412.26" y2="116.77" xlink:href="#名称未設定グラデーション_36"/><linearGradient id="名称未設定グラデーション_36-15" y1="116.81" x2="412.26" y2="116.81" xlink:href="#名称未設定グラデーション_36"/><linearGradient id="名称未設定グラデーション_36-17" y1="116.78" x2="412.26" y2="116.78" xlink:href="#名称未設定グラデーション_36"/><linearGradient id="名称未設定グラデーション_36-19" y1="108.42" x2="412.26" y2="108.42" xlink:href="#名称未設定グラデーション_36"/></defs><title>leftHeader_en</title><path class="cls-1" d="M6.39,29.56C2.73,29.56,0,25.76,0,22.32V7.3C0,3.89,2.73,0,6.39,0H17.11C20.76,0,23.5,3.89,23.5,7.3v15c0,3.41-2.74,7.28-6.39,7.28ZM17.11,3.4H6.39V26.22H17.11Z"/><path class="cls-2" d="M45.08,29.56a5.7,5.7,0,0,1-5.7-5.7V13.09H35.14V26.72a2.86,2.86,0,0,1-5.71,0V12.55A2.92,2.92,0,0,1,32.29,9.7h7.1a5.71,5.71,0,0,1,5.7,5.71V26.23h.5a1.67,1.67,0,0,1,0,3.33Z"/><path class="cls-3" d="M56.22,29.56a5.71,5.71,0,0,1-5.71-5.7V15.4a5.71,5.71,0,0,1,5.71-5.71H61a5.71,5.71,0,0,1,5.71,5.71v.79A5.71,5.71,0,0,1,61,21.89H56.22v4.34h8.31A1.67,1.67,0,0,1,66.2,27.9a1.69,1.69,0,0,1-1.67,1.7ZM61,13.05H56.22v5.44H61Z"/><path class="cls-1" d="M103.65,29.56a5.6,5.6,0,0,1-2.85-.78,5.41,5.41,0,0,1-2.85.78H92.13c-3.66,0-6.43-3.87-6.43-7.28v-19a3.22,3.22,0,1,1,6.43,0h0V26.19H98V2.88a2.85,2.85,0,1,1,5.7,0V26.17h5.82V3.26a3.22,3.22,0,1,1,6.43,0v19c0,3.41-2.77,7.28-6.43,7.28Z"/><path class="cls-4" d="M127.25,29.56a5.69,5.69,0,0,1-5.75-5.65V15.4a5.7,5.7,0,0,1,5.7-5.71h4.91a5.71,5.71,0,0,1,5.7,5.71v8.45a5.7,5.7,0,0,1-5.7,5.7Zm4.86-16.51h-4.86V26.19h4.86Z"/><path class="cls-5" d="M143.18,15.4a5.71,5.71,0,0,1,5.71-5.71h4.16a1.66,1.66,0,0,1,1.67,1.66h0a1.7,1.7,0,0,1-1.67,1.7h-4.12V26.72a2.88,2.88,0,1,1-5.75,0Z"/><path class="cls-6" d="M158.91,2.88a2.88,2.88,0,1,1,5.75,0V26.72a2.88,2.88,0,1,1-5.75,0Z"/><path class="cls-7" d="M186.67,29.56a5.67,5.67,0,0,1-3.8-1.38,1.69,1.69,0,0,1-1.64,1.38h-5.4a5.7,5.7,0,0,1-5.7-5.7V15.4a5.71,5.71,0,0,1,5.7-5.71h5.08V2.88a2.85,2.85,0,1,1,5.7,0V26.17H187a1.69,1.69,0,1,1,0,3.37ZM181,13.05h-5.07V26.23h5.58a5.75,5.75,0,0,1-.51-2.38Z"/><path class="cls-8" d="M193.58,32.55a1.54,1.54,0,0,1-2.59-1.1,1.61,1.61,0,0,1,.5-1.07l1.56-1.6A3.19,3.19,0,0,1,197.31,24a3.22,3.22,0,0,1,1.06,2.38,3.18,3.18,0,0,1-.6,1.9,3.07,3.07,0,0,1-.28.42Z"/><path class="cls-9" d="M217.76,3.26a3.2,3.2,0,1,1,6.39,0V26.37a3.2,3.2,0,0,1-6.39,0Z"/><path class="cls-10" d="M246.26,29.56a5.7,5.7,0,0,1-5.7-5.7V13.09h-4.24V26.72a2.88,2.88,0,1,1-5.76,0V12.55a2.91,2.91,0,0,1,2.86-2.85h7.09a5.71,5.71,0,0,1,5.7,5.71V26.23h.5a1.67,1.67,0,0,1,.25,3.33,1,1,0,0,1-.25,0Z"/><path class="cls-11" d="M253.85,13.05h-1.46a1.7,1.7,0,0,1-1.7-1.62,1.72,1.72,0,0,1,1.7-1.7h1.46V5.78a5.71,5.71,0,0,1,5.7-5.71h7.74a2.86,2.86,0,1,1-3,3.33h-4.76V9.68h1.52a1.71,1.71,0,0,1,1.71,1.7v0a1.67,1.67,0,0,1-1.67,1.67h-1.53V26.72a2.85,2.85,0,1,1-5.7,0Zm10.46-.53a2.88,2.88,0,1,1,5.75,0v14.2a2.88,2.88,0,1,1-5.75,0Z"/><path class="cls-2" d="M292.05,29.56a5.71,5.71,0,0,1-5.71-5.7V13.09h-4.23V26.72a2.85,2.85,0,0,1-5.7,0V12.55a2.91,2.91,0,0,1,2.85-2.85h7.1a5.71,5.71,0,0,1,5.71,5.71V26.23h.49a1.67,1.67,0,1,1,.25,3.33,1,1,0,0,1-.25,0Z"/><path class="cls-12" d="M301.13,5.78A2.86,2.86,0,1,1,304,2.92,2.85,2.85,0,0,1,301.13,5.78Zm-2.85,6.77a2.85,2.85,0,0,1,2.85-2.85A2.92,2.92,0,0,1,304,12.55V26.72a2.85,2.85,0,0,1-5.7,0Z"/><path class="cls-13" d="M317.32,29.56a5.69,5.69,0,0,1-5.75-5.65V13.05H310.1a1.7,1.7,0,0,1-1.7-1.62,1.72,1.72,0,0,1,1.7-1.7h1.47V2.88a2.88,2.88,0,1,1,5.75,0V9.66h1.48a1.71,1.71,0,0,1,1.68,1.73v0a1.67,1.67,0,0,1-1.67,1.67h-1.49V26.19H319a1.73,1.73,0,0,1,1.67,1.7,1.71,1.71,0,0,1-1.71,1.67Z"/><path class="cls-3" d="M330.31,29.56a5.71,5.71,0,0,1-5.71-5.7V15.4a5.71,5.71,0,0,1,5.71-5.71h4.75a5.71,5.71,0,0,1,5.7,5.71v.79a5.7,5.7,0,0,1-5.7,5.7h-4.75v4.34h8.31a1.66,1.66,0,0,1,1.66,1.66h0a1.69,1.69,0,0,1-1.66,1.7Zm4.75-16.51h-4.75v5.44h4.75Z"/><path class="cls-14" d="M359.09,29.56a1.66,1.66,0,0,1-1.67-1.66h0a1.69,1.69,0,0,1,1.67-1.7h3.39V3.26a3.22,3.22,0,1,1,6.43,0V22.32c0,3.41-2.77,7.24-6.43,7.24Z"/><path class="cls-4" d="M380.25,29.56a5.69,5.69,0,0,1-5.75-5.65V15.4a5.71,5.71,0,0,1,5.7-5.71h4.91a5.71,5.71,0,0,1,5.7,5.71v8.45a5.7,5.7,0,0,1-5.7,5.7Zm4.86-16.51h-4.86V26.19h4.86Z"/><path class="cls-15" d="M398.61,36.63A1.68,1.68,0,0,1,396.93,35v0a1.69,1.69,0,0,1,1.68-1.65h7.95V29.56h-4.65a5.71,5.71,0,0,1-5.71-5.7V12.55a2.86,2.86,0,0,1,5.71,0V26.19h4.65V12.55a2.85,2.85,0,1,1,5.7,0V30.91a5.71,5.71,0,0,1-5.7,5.71Z"/></svg>