<svg xmlns="http://www.w3.org/2000/svg" width="560" height="250" viewBox="0 0 560 250">
  <defs>
    <style>
      .cls-1 {
        fill: #00b4dc;
      }

      .cls-2 {
        fill: #fff;
      }
    </style>
  </defs>
  <g id="レイヤー_2" data-name="レイヤー 2">
    <g id="object">
      <g>
        <rect class="cls-1" width="560" height="250" rx="5"/>
        <g>
          <path class="cls-2" d="M58.391,31.5c-2.062-3.572-5.437-3.572-7.5,0L23.75,78.505c-2.062,3.572-.375,6.5,3.75,6.5H81.782c4.125,0,5.813-2.923,3.75-6.5Z"/>
          <path class="cls-1" d="M52.224,63.427l-.7-10.525q-.2-3.075-.2-4.416a4.007,4.007,0,0,1,.956-2.846A3.288,3.288,0,0,1,54.8,44.619a2.532,2.532,0,0,1,2.527,1.308,8.85,8.85,0,0,1,.637,3.767,28.621,28.621,0,0,1-.154,2.945L56.86,63.471a8.486,8.486,0,0,1-.659,2.967,1.726,1.726,0,0,1-1.67,1.032,1.661,1.661,0,0,1-1.648-1A9.955,9.955,0,0,1,52.224,63.427Zm2.439,14.458a3.459,3.459,0,0,1-2.34-.868,3.042,3.042,0,0,1-1-2.428,3.264,3.264,0,0,1,3.3-3.274,3.261,3.261,0,0,1,2.362.956,3.122,3.122,0,0,1,.978,2.318,3.068,3.068,0,0,1-.989,2.417A3.363,3.363,0,0,1,54.663,77.885Z"/>
        </g>
        <g>
          <path class="cls-2" d="M509.109,31.5c-2.063-3.572-5.438-3.572-7.5,0l-27.141,47.01c-2.063,3.572-.375,6.5,3.75,6.5H532.5c4.125,0,5.813-2.923,3.75-6.5Z"/>
          <path class="cls-1" d="M502.942,63.427l-.7-10.525q-.2-3.075-.2-4.416A4.007,4.007,0,0,1,503,45.64a3.288,3.288,0,0,1,2.516-1.021,2.532,2.532,0,0,1,2.527,1.308,8.85,8.85,0,0,1,.637,3.767,28.621,28.621,0,0,1-.154,2.945l-.945,10.832a8.486,8.486,0,0,1-.659,2.967,1.727,1.727,0,0,1-1.67,1.032,1.661,1.661,0,0,1-1.648-1A9.955,9.955,0,0,1,502.942,63.427Zm2.439,14.458a3.459,3.459,0,0,1-2.34-.868,3.042,3.042,0,0,1-1-2.428,3.264,3.264,0,0,1,3.3-3.274,3.261,3.261,0,0,1,2.362.956,3.122,3.122,0,0,1,.978,2.318,3.068,3.068,0,0,1-.989,2.417A3.363,3.363,0,0,1,505.381,77.885Z"/>
        </g>
        <g>
          <path class="cls-2" d="M145.212,36.13h-17.6V33.358a41.866,41.866,0,0,1-5.111,2.879c-.325-.647-.9-1.8-4.068-3.815,3.312-1.4,10.619-4.535,15.262-11.626l5.651.792c.324.035.684.18.684.611,0,.288-.288.432-.54.576,1.98,3.06,9.683,6.8,14.038,7.631a13.258,13.258,0,0,0-2.987,4.68,30.6,30.6,0,0,1-5.328-2.232Zm-21.92,7.522V38.686h23.145l2.267,2.051a62.307,62.307,0,0,1-8.711,14.29,14.284,14.284,0,0,0-5.4-2.628,33.9,33.9,0,0,0,6.479-8.747Zm19.077-12.31a25.348,25.348,0,0,1-6.335-5.075,58.44,58.44,0,0,1-5.616,5.075Z"/>
          <path class="cls-2" d="M161.6,52.832v1.655H156.34V22.271h31.316V54.487h-5.219V52.832Zm20.842-4.5V26.843H161.6V48.332Zm-13.175-3.707v1.331H163.9V29.578h16.2V45.956H174.77V44.625Zm5.508-4.644V34.294h-5.508v5.687Z"/>
          <path class="cls-2" d="M200.8,24.215c.287.108.468.252.468.5,0,.432-.684.5-1.008.54a49.68,49.68,0,0,0-2.16,13.858,25.5,25.5,0,0,0,.252,3.6c.468-.684,1.224-1.836,1.692-2.556a15.081,15.081,0,0,0,2.591,3.564,15.982,15.982,0,0,0-2.987,8.819l-4.824.9a50.784,50.784,0,0,1-1.943-14.5,64.81,64.81,0,0,1,2.16-16.487Zm17.1-.792c.181.036.468.072.468.4,0,.432-.5.54-.827.577a39.779,39.779,0,0,0-.36,4.319,32.651,32.651,0,0,0,5.327-1.332v5.435c-.828.216-2.484.612-5.471,1.152a58.369,58.369,0,0,0,.575,8.279,20.091,20.091,0,0,1,6.84,3.707C223.872,47,222.792,49.34,222,51.032a12.722,12.722,0,0,0-3.852-2.736c-.144,4.607-4.751,5.147-7.019,5.147-5.4,0-8.1-2.951-8.1-6.3,0-4.285,4.248-5.9,8.927-5.8-.288-4.1-.324-4.572-.395-6.66-2.052.181-3.528.181-4.14.181a26.62,26.62,0,0,1-2.664-.108V29.11a37.949,37.949,0,0,0,6.767.252c0-1.511,0-4.679.037-7.018ZM210.445,45.74c-.792,0-2.519.252-2.519,1.368,0,.936,1.188,1.332,2.34,1.332.287,0,2.447,0,2.447-1.763a.992.992,0,0,0-.072-.469A5.1,5.1,0,0,0,210.445,45.74Z"/>
          <path class="cls-2" d="M258.648,23.243v3.743H246.77v1.153h9.43V31.63h-9.43v1.152h13.786V36.6h-32.9V32.782h13.5V31.63h-9.467V28.139h9.467V26.986H229.2V23.243h11.95V21.228l5.508.179c.287,0,.575.145.575.468a1.648,1.648,0,0,1-.467.685v.683ZM237.2,49.3v5.219h-5.256V37.749h24.009V51.355c0,1.189,0,3.168-4.967,3.168a12.157,12.157,0,0,1-1.764-.108,9.714,9.714,0,0,0-1.3-4.1,15.947,15.947,0,0,0,2.34.288c.576,0,.612-.252.576-1.3Zm13.642-7.235V40.881H237.2v1.188Zm0,4.247V45.057H237.2v1.259Z"/>
          <path class="cls-2" d="M264.988,31.559a36.38,36.38,0,0,1,5.687,4.283,14.712,14.712,0,0,0-2.808,3.707,37.092,37.092,0,0,0-5.723-4.283Zm-2.664,20.193a40.736,40.736,0,0,0,5.759-10.475,28.052,28.052,0,0,0,3.78,2.844,63.687,63.687,0,0,1-4.427,9.215,2.131,2.131,0,0,1,.179.72c0,.215-.144.611-.468.611a1.493,1.493,0,0,1-.72-.252Zm3.924-30.381A21.6,21.6,0,0,1,271.4,25.4a21.523,21.523,0,0,0-2.7,3.816,19.856,19.856,0,0,0-5-3.852Zm30.272,15.91v4.14H294.5c-.036.5-.072,2.7-.108,3.132H296.3v4.283h-2.232c-.72,5.039-3.42,5.472-7.6,6.012a10.6,10.6,0,0,0-2.3-4.248c4.032.036,4.464.036,4.968-1.764H278.486c-.216.864-.4,1.439-.648,2.268a19.288,19.288,0,0,0-2.628-.684c-1.835-.252-2.051-.288-2.411-.36a29.759,29.759,0,0,0,2.052-8.639h-2.592v-4.14h2.807v-6.3c-.467.5-.719.756-1.08,1.116a24.421,24.421,0,0,0-4.247-2.375,24.014,24.014,0,0,0,6.155-8.963l4.572,1.08c.36.071.648.252.648.539,0,.433-.5.648-.9.684a5.532,5.532,0,0,1-.324.684H296.3V28h-18.9c-.72,1.008-1.044,1.4-1.4,1.871h18.5v7.415Zm-14.867,7.272a27.181,27.181,0,0,0,.469-3.132H279.6c-.108,1.368-.144,1.727-.324,3.132Zm.757-7.272c.071-.792.108-1.511.143-2.879h-2.735v1.8c0,.324,0,.757-.036,1.08Zm7.163,7.272c0-.252.072-2.736.072-3.132h-2.808c-.108,1.8-.252,2.916-.288,3.132Zm.072-7.272V34.4h-2.52c-.036,2.051-.036,2.3-.072,2.879Z"/>
          <path class="cls-2" d="M331.62,44.769c.252.179.324.324.324.5,0,.4-.36.432-.864.432a30.657,30.657,0,0,1-3.06,2.736,16.231,16.231,0,0,0,4.751,1.908,12.046,12.046,0,0,0-2.951,4.212,22.434,22.434,0,0,1-9.035-6.12,18.225,18.225,0,0,0-.432,3.456c-2.843.576-9.395,1.835-12.346,2.231-.144.288-.324.576-.648.576-.36,0-.468-.216-.54-.576l-1.044-4.319c.72-.072,3.924-.576,4.572-.648V44.013H306.6c-.216,1.439-1.26,6.911-3.2,9.934a13.114,13.114,0,0,0-4.607-2.051,21.956,21.956,0,0,0,2.664-7.343,55.1,55.1,0,0,0,.575-8.6V22.308h29.157v9.07H307.215v5.544c0,.359-.072,2.088-.144,2.771h3.959V37.5h-2.951V33.682h2.951v-2.16l4.644.252c.324,0,1.368.18,1.368.648,0,.181-.18.54-1.116.648v.612h4.643v-2.16l4.716.289c.215,0,1.331.143,1.331.575,0,.217-.287.54-1.187.684v.612h5.759V37.5h-5.759v2.2h6.7v4.32h-1.44Zm-24.405-18.79v1.584h18.826V25.979Zm8.207,22.389c1.008-.18,3.744-.683,4.5-.864a22.294,22.294,0,0,1-2.411-3.491h-2.088Zm.5-8.675h4.643V37.5h-4.643Zm7.127,4.32a10.162,10.162,0,0,0,1.44,1.691,24.343,24.343,0,0,0,1.98-1.691Z"/>
          <path class="cls-2" d="M347.318,39.478a.616.616,0,0,1,.5.575c0,.468-.5.576-1.044.684A44.552,44.552,0,0,1,339.975,52a15.127,15.127,0,0,0-5.039-2.664A34.868,34.868,0,0,0,342.207,38Zm7.7,10.4c0,2.735,0,5-8.566,4.68a10.417,10.417,0,0,0-1.872-5.724c.828.108,2.843.324,3.491.324.756,0,1.3-.324,1.3-1.836V36.237H335.692V31.2H368.34v5.039H355.021Zm9.971-27.609V27.49H338.967V22.271Zm-4.571,15.262a49.3,49.3,0,0,1,8.5,11.051,17.7,17.7,0,0,0-4.788,3.275,44.863,44.863,0,0,0-7.991-11.41Z"/>
          <path class="cls-2" d="M385.226,42.969v-1.98a44.162,44.162,0,0,0-3.419,3.276A24.008,24.008,0,0,1,380.871,42V54.271h-5V45.885a17.158,17.158,0,0,1-1.3,2.34,23.743,23.743,0,0,0-4.139-3.1,35.184,35.184,0,0,0,5-12.491h-3.96V28.03h4.391V21.516l5,.252c.288,0,.755.036.755.467,0,.361-.251.5-.755.792v5h3.2V24.683h7.775v-3.24l4.9.288c.288,0,.611.037.611.361,0,.287-.288.539-.792.827v1.764h7.74v4.284h-7.74v1.548h6.984V42.969h-5.111a23.824,23.824,0,0,0,7.342,6.767,14.964,14.964,0,0,0-3.455,3.923,24.1,24.1,0,0,1-5.579-5.507v6.119h-4.9V47.36a31.485,31.485,0,0,1-6.839,6.192A27.585,27.585,0,0,0,381.3,49.88a25.7,25.7,0,0,0,8.423-6.911Zm-4.392-10.223a36.617,36.617,0,0,0,4.392,7.451V30.515h6.623V28.967H384.4v3.671h-3.564ZM391.993,35.3V33.718h-2.231V35.3Zm-2.231,2.735v1.584h2.231V38.037Zm9.071-2.735V33.718h-2.269V35.3Zm-2.269,2.735v1.584h2.269V38.037Z"/>
          <path class="cls-2" d="M439.764,28.03c-8.891-.143-16.594,7.848-16.594,13.679,0,4.176,5.291,6.228,10.186,6.335a48.5,48.5,0,0,0-2.7,6.552c-2.916-.792-13.246-3.672-13.246-12.275,0-6.659,5.147-11.447,6.623-12.383a98.243,98.243,0,0,0-14.9,2.268l-.828-6.767a116.637,116.637,0,0,0,16.018-.828,86.5,86.5,0,0,0,14.434-2.628Zm-5.975,5.112a22.411,22.411,0,0,1,3.347,3.851c-1.008.721-1.511,1.116-2.772,2.16a29,29,0,0,0-3.2-4.067Zm3.779-2.556a22.789,22.789,0,0,1,3.2,3.78c-.9.684-1.511,1.224-2.627,2.232a26.6,26.6,0,0,0-3.2-4.068Z"/>
          <path class="cls-2" d="M196.045,87.776v7.74h-4.571v-7.74H188.81a13.549,13.549,0,0,1-5.507,8.5,10.455,10.455,0,0,0-4.032-2.664V96.2h-5.147V64.163h15.082V76.689h-9.935V93.571c2.52-1.4,4.248-2.771,4.967-5.8h-3.707V83.781h4.176c0-.648.035-1.44.035-2.124h-3.311V77.878h17.458v3.779h-2.844v2.124h3.6v3.995ZM184.382,67.727h-5.111v1.332h5.111Zm0,4.068h-5.111v1.367h5.111Zm7.092,9.862h-2.232c-.036.432-.036,1.8-.072,2.124h2.3Zm7.7,14.687a12.543,12.543,0,0,0-1.908-5.256,10.809,10.809,0,0,0,2.087.288c.685,0,1.44,0,1.44-1.26V76.689H190.79V64.163h15.154V92.168C205.944,95.516,203.892,96.379,199.177,96.344ZM200.8,67.727h-5.183v1.332H200.8Zm0,4.068h-5.183v1.367H200.8Z"/>
          <path class="cls-2" d="M234.96,80.073v1.512h5.58v3.636h-5.58v1.511h5.58v3.636h-5.58v1.476h7.272v3.924H225.71v.576h-5.076V83.817l-.971.972a12.57,12.57,0,0,0-1.728-2.556V96.344h-5.256V79.065c-.287.361-.683.829-.971,1.188a8.675,8.675,0,0,0-3.672-3.707A38.193,38.193,0,0,0,215.6,62.867l5.039,1.693v-.577l5.112.18c.4,0,.54.216.54.5,0,.36-.288.54-.792.864v3.455h2.7V63.048l5.364.323c.36.036.54.217.54.469,0,.468-.54.611-.864.683v4.463h3.023V64.163l5.328.324c.432.036.648.144.648.4,0,.432-.432.612-.9.828v7.2h-8.315l2.52,1.368a.669.669,0,0,1,.4.576c0,.4-.5.54-1.044.648-.144.252-.36.576-.577.9h7.7v3.671Zm-17.025-.647a33.2,33.2,0,0,0,4.9-6.516h-2.2V65.64c-.108.035-.216.107-.323.143-.612,1.332-.973,2.088-2.232,4.535.54.288.684.361.684.613,0,.359-.576.647-.828.756Zm7.775.647v1.512h4.175V80.073Zm0,5.148v1.511h4.175V85.221Zm4.175,6.623V90.368H225.71v1.476Zm-1.3-15.442a35.654,35.654,0,0,0,2.016-3.492h-4.463l1.655.828c.288.144.5.288.5.576,0,.324-.4.54-1.043.612-.4.648-.54.864-.9,1.476Z"/>
          <path class="cls-2" d="M262.934,63.588a24.867,24.867,0,0,0,1.655,5.579c5-2.052,6.767-3.42,7.74-4.176,1.115,1.512,2.627,3.2,3.6,4.283a50.736,50.736,0,0,1-9.035,4.644c2.088,3.563,5.832,8.207,8.027,9.9l-3.708,3.2a17.521,17.521,0,0,0-9.574-2.736c-2.808,0-5.975.72-5.975,3.024,0,.935.936,3.671,7.486,3.671a20.11,20.11,0,0,0,8.459-1.8,25.556,25.556,0,0,0,1.08,5.651,32.5,32.5,0,0,1-9.287,1.26c-8.746,0-13.894-3.6-13.894-8.279,0-3.1,2.628-8.028,10.8-8.028a13.056,13.056,0,0,1,3.887.433c-.683-1.044-1.259-1.981-2.591-4.392a65.669,65.669,0,0,1-12.491,2.3l-1.871-5.579a51.313,51.313,0,0,0,12.094-1.62c-.432-.936-2.3-5.184-2.7-6.048Z"/>
          <path class="cls-2" d="M297.062,72.838a11.869,11.869,0,0,1,7.379-3.671c1.044,0,4.571.756,4.571,5.615,0,1.188-.035,1.44-.9,7.379a31.19,31.19,0,0,0-.287,4.1c0,.467,0,1.691.935,1.691.432,0,1.944-.252,4.536-3.1a24.088,24.088,0,0,0,1.944,5.58c-3.24,3.131-6.011,3.816-7.632,3.816-2.015,0-5.435-1.3-5.435-6.516,0-1.8.972-10.222.972-11.266a1.061,1.061,0,0,0-1.116-1.188c-2.2,0-5.291,3.672-7.595,6.371a115.639,115.639,0,0,0,.684,14.183l-6.3.287a50.581,50.581,0,0,0,.324-6.19V88.46c-.5.721-2.556,3.96-3.06,4.536l-4.391-4.428a77.575,77.575,0,0,0,7.559-9.214c0-.361.036-.9.036-1.369a29.224,29.224,0,0,1-5.724,1.3L282.375,73.2a24.623,24.623,0,0,0,7.056-1.08c.072-2.447.108-7.235.036-8.495l5.255.433c.4.036,1.008.107,1.008.611,0,.4-.468.469-.72.54-.288,2.844-.36,4.283-.4,5.327Z"/>
          <path class="cls-2" d="M337.6,64.56c.324.071.648.107.648.467,0,.4-.4.468-.648.5-.144,1.4-.144,1.728-.18,2.124,1.656,0,7.235-.108,9.935.216v5.363a87.524,87.524,0,0,0-10.115-.324v3.96a47.237,47.237,0,0,0,9.143-1.692v5.363a68.2,68.2,0,0,1-9,1.188c0,1.548,0,1.692.072,3.2a35.691,35.691,0,0,1,12.023,4.752,57.282,57.282,0,0,0-4,4.5,29.013,29.013,0,0,0-7.7-4.536c.072,1.872.324,6.12-7.559,6.12-5.579,0-9.647-2.556-9.647-5.831,0-4.1,5.148-5.868,11.159-5.76,0-.828,0-.828-.036-2.124-3.564.072-10.079.18-10.079-3.383,0-1.26.648-2.412,2.52-4.356l3.96.9c-.648.864-.757.972-.757,1.224,0,.4,0,1.007,4.212.828,0-.648-.036-3.564-.036-4.14-4.428.181-8.315.685-11.3,1.08V68.519c1.764-.18,9.647-.54,11.267-.648,0-1.368,0-2.771-.144-4.428Zm-7.451,23.756c-.18,0-3.635,0-3.635,1.476,0,1.188,1.979,1.3,2.592,1.3,1.763,0,2.843-.648,2.627-2.628A7.959,7.959,0,0,0,330.146,88.316Z"/>
          <path class="cls-2" d="M373.813,64.02c.576.072.9.107.9.4,0,.4-.432.54-.72.612-.072.648-.108,1.08-.18,2.52,10.151-.432,11.267-.468,11.951-.54-.036.756-.108,4.319.036,5.8-6.515-.324-9.251-.324-11.879-.288a29.254,29.254,0,0,0,.036,4c2.088,2.555,2.088,6.407,2.088,6.911a17.015,17.015,0,0,1-8.351,13.894,24.15,24.15,0,0,0-5.256-3.708c1.081-.431,5.328-2.231,6.624-5.182a4.035,4.035,0,0,1-2.844.863,4.811,4.811,0,0,1-3.887-1.62,9.033,9.033,0,0,1-1.548-5.327c0-7.919,6.767-7.667,7.523-7.559.036-1.152.036-1.475.036-2.015a97.526,97.526,0,0,0-14.362,1.871l-.4-6.083c.828.036,2.195-.036,14.614-.756a37.939,37.939,0,0,0-.5-4.571Zm-8.314,18c0,2.375,1.187,3.023,1.835,3.023,1.116,0,1.764-1.656,1.764-3.456,0-.828-.18-2.231-1.62-2.231C366.29,79.354,365.5,80.541,365.5,82.018Z"/>
        </g>
        <g>
          <path class="cls-2" d="M158.826,135.327l1.248.192c.551.1.768.12.768.383s-.312.313-.576.337c-.1.24-.265.575-.553,1.152h4.657v12.241c0,2.376-.552,3.385-4.44,3.385.024-.313.024-.456.024-.624a4.193,4.193,0,0,0-.865-2.569v1.44h-6.96v.576h-3.145v-5.592a2.3,2.3,0,0,1-.239.12,4.655,4.655,0,0,0-1.681-1.585v8.257h-3.48V137.391H148.6a9.312,9.312,0,0,0-.936-1.752l1.7-.312H143.1v-2.881h9.073v-1.7l3.624.168c.24,0,.456.072.456.313,0,.191-.24.336-.456.431v.792h9.145v2.881Zm-11.762,5.136v3.385a5.3,5.3,0,0,0,2.545-3.385Zm13.97,2.616a2.263,2.263,0,0,1-2.208,1.368h-3.073c-1.416,0-1.872-.5-1.872-1.632v-2.352h-2.448l1.272.408c.168.048.5.168.5.384,0,.1,0,.265-.648.408a8.61,8.61,0,0,1-2.184,3.528h8.712v4.465c.48.048.889.12,1.153.12.744,0,.792-.24.792-.792Zm-9.6-7.752a12.439,12.439,0,0,1,1.056,1.848l-.864.216h4.2a14.624,14.624,0,0,0,.96-2.064Zm4.488,12.337h-3.792v1.128h3.792Zm.984-7.2v.768c0,.312.024.529.48.529h.72c.457,0,.528-.408.721-1.3Zm4.129,0H158.85a6.848,6.848,0,0,0,2.184,1.152Z"/>
          <path class="cls-2" d="M179.249,132.566c.24.025.36.1.36.241,0,.12-.216.288-.576.431a21.944,21.944,0,0,1-.816,3.961,8.185,8.185,0,0,0-3.072-.576v.624H167.08v-2.376h8.065v1.68a22.266,22.266,0,0,0,.864-4.416Zm-4.3,20.066h-2.832v-.84h-1.392v1.177h-3v-8.617h7.225V146.8a11.885,11.885,0,0,0,1.464-4.2l3.072.647c.168.024.432.145.432.336,0,.36-.48.456-.7.48a19.83,19.83,0,0,1-1.248,3.96,7.78,7.78,0,0,0-3.024-.935v3.024c5.136-1.584,5.088-4.753,5.016-9.145l3.481.192c.119,0,.36.025.36.288,0,.144-.168.264-.648.408,0,.624,0,1.033-.024,1.777a7.09,7.09,0,0,0,2.088,3.864,13.523,13.523,0,0,0,3.7,2.592,6.925,6.925,0,0,0-2.136,2.688,11.636,11.636,0,0,1-4.8-4.368,9.829,9.829,0,0,1-5.232,4.536,7.281,7.281,0,0,0-1.8-2.328Zm-.648-20.9v2.328h-6.049v-2.328Zm0,6.336v2.329h-6.049v-2.329Zm0,3.144v2.328h-6.049v-2.328Zm-2.184,7.849v-2.088h-1.392v2.088Zm11.136-18.049c.288,0,.48.048.48.264s-.383.383-.672.456c0,.36-.1,1.992-.1,2.328a5.467,5.467,0,0,0,1.777,3.336,14.76,14.76,0,0,0,4.368,2.472,8.373,8.373,0,0,0-2.16,2.592,13.472,13.472,0,0,1-5.281-3.888,10.656,10.656,0,0,1-5.04,3.84,9.1,9.1,0,0,0-1.9-2.568c4.128-1.344,5.088-3.384,5.088-7.2,0-.7-.024-1.105-.048-1.752Zm5.185,2.256a.385.385,0,0,1,.24.336c0,.12-.072.288-.336.288a2.228,2.228,0,0,1-.432-.048,15.614,15.614,0,0,1-2.185,2.928,10.025,10.025,0,0,0-2.543-1.9,12.8,12.8,0,0,0,2.3-3.192Zm-.288,10.249c.24.12.36.216.36.408,0,.288-.384.407-.72.432a14.541,14.541,0,0,1-1.584,2.616,9.238,9.238,0,0,0-2.544-1.7,15.671,15.671,0,0,0,1.68-3.073Z"/>
          <path class="cls-2" d="M206.177,148.576c0,.48.168.864.961.864h1.728c.648,0,.792-.264.888-.576.12-.408.408-1.584.552-2.257a7.183,7.183,0,0,0,3.144,1.584,11.021,11.021,0,0,1-1.08,3.5,2.482,2.482,0,0,1-2.16,1.056h-4.417c-1.872,0-3.312-.624-3.312-3.024v-4.609h-2.568l1.176.313c.144.047.408.12.408.408,0,.456-.5.479-.936.5a12.063,12.063,0,0,1-7.393,6.912,9.736,9.736,0,0,0-2.856-2.856c1.512-.336,5.9-1.32,6.865-5.281h-3.529V131.366h16.466v13.753h-3.937Zm.24-13.3v-.84h-8.856v.84Zm-8.856,2.425v.864h8.856V137.7Zm0,3.384v.96h8.856v-.96Z"/>
          <path class="cls-2" d="M215.056,138.087v-3.168h9.121v-4.032l3.456.216c.6.047.672.215.672.335,0,.144-.1.264-.5.529v2.952h9.145v3.168h-7.729a22.648,22.648,0,0,0,8.4,9.265,8.121,8.121,0,0,0-2.616,2.76,28.214,28.214,0,0,1-3.648-3.408v2.832H227.8v3.384h-3.624v-3.384H220.6V146.68a28.941,28.941,0,0,1-3.673,3.432,7.942,7.942,0,0,0-2.616-2.76,22.172,22.172,0,0,0,8.4-9.265Zm9.121,3.648a27.233,27.233,0,0,1-3.24,4.561h3.24Zm6.841,4.561a26.727,26.727,0,0,1-3.217-4.513V146.3Z"/>
          <path class="cls-2" d="M251.8,138.375h7.393v9.865c0,1.008,0,1.872-.84,2.472-.888.648-2.041.721-4.1.721a8.1,8.1,0,0,0-1.1-3.7,10.122,10.122,0,0,0,1.487.145c.768,0,.912-.168.912-.864V141.76H251.8v11.16h-3.624V141.76H244.5v9.432h-3.672V138.375h7.345v-1.8h-9.121v-3.264h9.121v-2.424l3.816.143c.144,0,.36.073.36.288,0,.264-.312.409-.552.456v1.537h9.145v3.264h-8.881c.144.048.288.144.288.288,0,.264-.336.384-.552.456Z"/>
          <path class="cls-2" d="M270.761,143.823c-.672.576-1.872,1.824-1.872,2.616,0,1.729,3.288,1.729,4.3,1.729a33.521,33.521,0,0,0,9.625-1.44,18.2,18.2,0,0,0,.624,4.08,36.5,36.5,0,0,1-9.385,1.1c-3.744,0-5.233-.408-6.408-.888-.768-.312-3.049-1.44-3.049-3.864,0-2.5,2.5-4.728,3.481-5.617Zm10.081-7.9a16.785,16.785,0,0,0-6.049,3.912c-.864-.744-1.776-1.512-2.52-2.064.888-.816,1.1-.984,1.8-1.56-1.488.12-5.52.336-7.561.288l-.192-4.009a48.348,48.348,0,0,0,5.977.313,46.856,46.856,0,0,0,6.7-.552Zm1.056-3.744a17.061,17.061,0,0,1,2.184,2.52,9.722,9.722,0,0,0-1.416,1.728,26.532,26.532,0,0,0-2.3-2.664Zm1.848-2.04A25.764,25.764,0,0,1,286,132.494a9.587,9.587,0,0,0-1.536,1.633,20.212,20.212,0,0,0-2.088-2.353Z"/>
          <path class="cls-2" d="M299.729,152.944h-3.456v-6.408a23.8,23.8,0,0,1-7.033,6.12,8.315,8.315,0,0,0-3.072-2.376,20.58,20.58,0,0,0,7.7-6.144H286.96v-3.12h4.488a19.339,19.339,0,0,0-1.92-3.553l1.728-.96h-3.168v-3.12h8.185v-2.448l3.6.215c.288.025.528.048.528.361,0,.336-.48.408-.672.456v1.416h8.137v3.12h-3.12l1.464.624c.168.072.24.168.24.288,0,.312-.288.36-.48.408a21.543,21.543,0,0,1-1.512,3.193h4.536v3.12h-7.129a18.694,18.694,0,0,0,7.465,5.808,11.273,11.273,0,0,0-2.544,2.592,18.834,18.834,0,0,1-7.057-6.144Zm-3.456-11.928V136.5h-3.1a13.472,13.472,0,0,1,1.992,3.7,12.21,12.21,0,0,0-1.824.817Zm3.456-4.513v4.513h2.785a16.95,16.95,0,0,0-1.657-.865,18.818,18.818,0,0,0,1.825-3.648Z"/>
          <path class="cls-2" d="M321.281,146.248a16.723,16.723,0,0,1-2.832,2.9,6.032,6.032,0,0,0-2.257-1.608c.433-.336.792-.6,1.345-1.08-1.489.647-3.312,1.344-5.257,1.992,0,.288-.1.624-.36.624-.24,0-.336-.312-.384-.552l-.816-3.384a19.506,19.506,0,0,0,2.712-.5v-5.449H310.96v-3.12h2.472v-4.993l3.552.193c.288.023.5.047.5.263,0,.168-.144.288-.5.456v4.081h2.137v3.12h-2.137v4.369c.577-.241.937-.384,1.513-.649h-.168v-2.424h14.545v2.424h-9.289l-.456.769h9.577c0,2.424-.072,7.224-1.632,8.448-.912.721-2.449.792-3.961.792a7.173,7.173,0,0,0-.648-2.592,18.362,18.362,0,0,1-2.856,3,6.1,6.1,0,0,0-2.544-1.536,16.7,16.7,0,0,0,5.064-5.544h-1.08a16.744,16.744,0,0,1-6.312,6.36,6.316,6.316,0,0,0-2.112-1.92,14.66,14.66,0,0,0,5.592-4.44Zm-2.184-3.337a10.486,10.486,0,0,0-.168,2.137,15.589,15.589,0,0,0,1.464-2.137Zm12.1-3.216H319.985v-8.449h11.209Zm-3.24-5.136v-.817h-4.729v.817Zm-4.729,1.92v.816h4.729v-.816Zm5.665,9.769a26.143,26.143,0,0,1-1.9,3.336c.287.024.551.048.839.048.48,0,.913-.048,1.081-.6a12.239,12.239,0,0,0,.432-2.784Z"/>
          <path class="cls-2" d="M346.313,148.815c5.208-.96,6.745-4.992,6.745-7.488a5.689,5.689,0,0,0-5.545-5.881c-.744,8.785-4.368,15.338-6.912,15.338-1.872,0-5.353-3.168-5.353-7.608a11.783,11.783,0,0,1,11.761-11.186c5.257,0,9.841,3.576,9.841,9.314a11.181,11.181,0,0,1-2.832,7.416,13.27,13.27,0,0,1-5.209,3.48A15.591,15.591,0,0,0,346.313,148.815Zm-7.513-5.927c0,1.847,1.033,3.24,1.536,3.24.577,0,1.033-1.08,1.3-1.7a21,21,0,0,0,1.848-8.257A8.159,8.159,0,0,0,338.8,142.888Z"/>
          <path class="cls-2" d="M380.97,134.2v3.433H370.625c-.024.888-.1,1.513-.144,1.992h7.585c0,8.112-.456,10.321-2.16,12.025-1.224,1.224-3.841,1.344-4.729,1.321A6.1,6.1,0,0,0,369.4,149.2c.648.1,2.28.36,2.52.36a1.771,1.771,0,0,0,1.92-1.392,16.536,16.536,0,0,0,.673-5.232h-4.681a16.194,16.194,0,0,1-8.641,10.081,6.492,6.492,0,0,0-2.952-2.593c4.272-1.344,8.737-4.824,8.737-12.793h-7.945V134.2h9.025v-3.311l3.84.216c.144,0,.432.072.432.335,0,.193-.264.361-.432.432V134.2Z"/>
          <path class="cls-2" d="M389.2,132.807c.192.072.312.168.312.336,0,.288-.456.336-.672.36a33.108,33.108,0,0,0-1.441,9.24,17.182,17.182,0,0,0,.168,2.4c.312-.456.817-1.224,1.129-1.705a10.016,10.016,0,0,0,1.728,2.376,10.659,10.659,0,0,0-1.992,5.881l-3.217.6a33.863,33.863,0,0,1-1.3-9.673,43.24,43.24,0,0,1,1.44-10.992Zm11.4-.529c.12.025.312.048.312.265,0,.287-.336.359-.552.384a26.239,26.239,0,0,0-.24,2.88,21.691,21.691,0,0,0,3.552-.888v3.624c-.552.145-1.656.408-3.649.769a38.744,38.744,0,0,0,.385,5.52,13.377,13.377,0,0,1,4.56,2.472c-.384.7-1.1,2.256-1.632,3.384a8.482,8.482,0,0,0-2.568-1.824c-.1,3.073-3.168,3.432-4.681,3.432-3.6,0-5.4-1.968-5.4-4.2,0-2.857,2.832-3.937,5.952-3.865-.192-2.736-.216-3.047-.264-4.44-1.368.12-2.352.12-2.76.12a17.747,17.747,0,0,1-1.776-.072v-3.768a25.438,25.438,0,0,0,4.512.168c0-1.009,0-3.121.024-4.68Zm-4.969,14.882c-.528,0-1.68.168-1.68.912,0,.624.792.888,1.56.888.192,0,1.633,0,1.633-1.176a.645.645,0,0,0-.049-.312A3.4,3.4,0,0,0,395.633,147.16Z"/>
          <path class="cls-2" d="M411.953,152.513a19.35,19.35,0,0,0-4.873-4.129l2.328-2.569a31.266,31.266,0,0,1,5.257,4.033Z"/>
          <path class="cls-2" d="M120.113,173.871l-2.256,13.249h-4.9l-4.345-18.914h4.3l2.688,14.042,2.352-14.042h4.32l2.353,14.042,2.688-14.042h4.3l-4.344,18.914h-4.9Z"/>
          <path class="cls-2" d="M149.346,183.735v3.385H133.84V168.206h15.194v3.385H138.161v4.248h9.6v3.24h-9.6v4.656Z"/>
          <path class="cls-2" d="M151.96,187.12V168.206h10.177c3.7,0,5.953,2.017,5.953,4.849a3.9,3.9,0,0,1-2.857,3.912,4.788,4.788,0,0,1,1.825.864,4.617,4.617,0,0,1,1.8,3.816c0,3.241-2.545,5.473-6.217,5.473Zm4.321-11.041h4.9a2.208,2.208,0,0,0,2.3-2.4,2.057,2.057,0,0,0-2.3-2.184h-4.9Zm0,7.753h4.872c1.536,0,3.072-.7,3.072-2.616,0-2.112-1.872-2.448-3.072-2.448h-4.872Z"/>
          <path class="cls-2" d="M198.4,171.351c-5.929-.1-11.065,5.232-11.065,9.121,0,2.784,3.528,4.152,6.792,4.224a32.367,32.367,0,0,0-1.8,4.368c-1.944-.528-8.832-2.448-8.832-8.184a10.918,10.918,0,0,1,4.416-8.257,65.43,65.43,0,0,0-9.937,1.512l-.552-4.512a77.646,77.646,0,0,0,10.681-.553,57.553,57.553,0,0,0,9.624-1.752Zm-3.985,3.408a14.9,14.9,0,0,1,2.232,2.568c-.671.481-1.007.744-1.848,1.441a19.4,19.4,0,0,0-2.136-2.713Zm2.52-1.7a15.235,15.235,0,0,1,2.137,2.52c-.6.456-1.009.817-1.752,1.488a17.831,17.831,0,0,0-2.136-2.712Z"/>
          <path class="cls-2" d="M212.2,184.815c5.208-.96,6.744-4.992,6.744-7.488a5.688,5.688,0,0,0-5.544-5.881c-.744,8.785-4.368,15.338-6.913,15.338-1.872,0-5.352-3.168-5.352-7.608A11.782,11.782,0,0,1,212.9,167.99c5.256,0,9.841,3.576,9.841,9.314a11.179,11.179,0,0,1-2.833,7.416,13.274,13.274,0,0,1-5.208,3.48A15.591,15.591,0,0,0,212.2,184.815Zm-7.513-5.927c0,1.847,1.032,3.24,1.536,3.24.576,0,1.032-1.08,1.3-1.7a21.017,21.017,0,0,0,1.848-8.257A8.157,8.157,0,0,0,204.688,178.888Z"/>
          <path class="cls-2" d="M246.882,179.871v2.257h-1.2v3.984h-3.553v-.768h-4.416v1.536c0,1.224-.312,2.064-3.888,2.064-.48,0-.961-.024-1.273-.048a9.032,9.032,0,0,0-1.128-3,19.027,19.027,0,0,0,2.04.192c.7,0,.7-.24.7-.744h-7.489v-2.4h7.489v-.815h-9.145v-2.257h9.145V179.1h-7.489v-2.113h7.489v-.672h-6.1v-4.873h6.1v-.672h-9.145v-2.519h9.145v-1.32l3.72.143a.329.329,0,0,1,.36.313c0,.215-.144.263-.528.456v.408h9.073v2.519h-9.073v.672h6v4.873h-6v.672h7.969v2.88ZM234.161,174.3v-.936h-2.929v.936Zm3.552-.936v.936h2.9v-.936Zm4.416,6.5V179.1h-4.416v.767Zm0,3.072v-.815h-4.416v.815Z"/>
          <path class="cls-2" d="M261.209,170.175a18.186,18.186,0,0,0,2.064-3.385l3.6.912c.168.048.335.12.335.288,0,.265-.335.384-.7.336-.624.985-.864,1.393-1.2,1.849h5.5v3H248.92v-3h5.28a11.018,11.018,0,0,0-1.368-2.04l3.24-1.465a15.986,15.986,0,0,1,1.945,3l-1.3.5ZM253.5,183.712V188.9h-3.36V173.967H259.7v12.577c0,1.969-1.032,2.256-4.2,2.352a6.936,6.936,0,0,0-1.225-3.408c.36.024,1.081.12,1.44.12.456,0,.721-.048.721-.768v-1.128Zm2.929-6.1V176.56H253.5v1.055Zm0,3.576v-1.08H253.5v1.08Zm8.184-6.84c.216,0,.36.072.36.24,0,.12-.144.264-.36.408v9.553h-3.456V174.207Zm5.065-.5c.215,0,.432.048.432.264,0,.168-.264.312-.576.48V186.04a2.282,2.282,0,0,1-1.033,2.328c-.863.576-1.9.552-3.888.528a9,9,0,0,0-.792-3.6c.408.048,1.3.168,1.656.168.6,0,.6-.384.6-.672V173.679Z"/>
          <path class="cls-2" d="M276.352,183.616v-5.593a13.57,13.57,0,0,1-1.944,1.321,11.88,11.88,0,0,0-2.376-2.664,16.81,16.81,0,0,0,3.048-2.089,17.285,17.285,0,0,0-1.968-1.536l2.3-2.352a16.053,16.053,0,0,1,2.16,1.512,7.023,7.023,0,0,0,1.44-1.992h-4.44v-2.857h8.28l1.081,1.153a19.392,19.392,0,0,1-2.305,4.08h4.921a15.7,15.7,0,0,1-2.832-4.729l3.048-1.151a14.63,14.63,0,0,0,1.032,1.992,12.238,12.238,0,0,0,1.464-1.824l2.521,1.584c.095.048.263.168.263.288,0,.288-.407.311-.648.311-.792,1.009-1.44,1.752-1.728,2.04.264.313.456.5.648.7a29.935,29.935,0,0,0,2.184-2.592l2.233,1.512c.192.144.432.288.432.456,0,.312-.36.336-.72.36a18.634,18.634,0,0,1-2.065,2.16,16.668,16.668,0,0,0,3.385,2.233,11.743,11.743,0,0,0-2.208,2.855,26.272,26.272,0,0,1-2.208-1.584v6.409h-1.729c.168.072.264.168.264.336,0,.239-.24.384-.5.408a9.168,9.168,0,0,1-.5,1.32h5.881v2.9H272.968v-2.9h6.12c-.1-.288-.456-1.224-.672-1.752l1.176-.312Zm3.576-8.905c-.624.672-.864.936-1.944,1.944h12.673a22.294,22.294,0,0,1-2.5-2.256v1.248h-8.233Zm-.119,4.633v1.536H287.9v-1.536Zm2.255,4.272c.217.528.385.936.673,1.824l-.864.24h3.24a18.08,18.08,0,0,0,.72-2.064Z"/>
          <path class="cls-2" d="M305.345,175.671h-1.753v1.248h2.4v3.049h-2.4v3.263a14.43,14.43,0,0,0,.841-2.855l2.735.552c.144.023.361.072.361.311,0,.288-.361.336-.7.361-.1.36-.145.48-.48,1.488a28.3,28.3,0,0,0,4.776-1.7v-3.937h-1.7a23.954,23.954,0,0,1,1.68,3.073,22.726,22.726,0,0,0-2.592,1.7,20.037,20.037,0,0,0-1.728-3.265l2.448-1.512H306.5v-2.832h7.56v-.96h-6.072v-2.568h6.072v-.912h-7.224v-2.929H317.49v7.369h1.464v2.832H316.1l2.664,1.3a.4.4,0,0,1,.264.336c0,.24-.168.288-.624.36a21.8,21.8,0,0,1-1.944,2.857,17.844,17.844,0,0,0,3,2.424,11.64,11.64,0,0,0-1.968,3.049,20.74,20.74,0,0,1-3.217-3.265v2.04c0,2.376-1.56,2.376-4.416,2.376a10.981,10.981,0,0,0-1.224-3.24c-.24.12-.312.144-.648.288-.024.456-.072.864-.48.864a.389.389,0,0,1-.288-.264l-.864-3.457a11.743,11.743,0,0,1-.5,1.225,9.458,9.458,0,0,0-2.257-.552v1.1c1.753-.336,2.257-.456,2.713-.576a9.691,9.691,0,0,0-.312,3c-3.049.671-5.521,1.08-7.849,1.416-.048.359-.12.671-.456.671-.216,0-.264-.192-.288-.36l-.552-3.312c.984-.048,2.664-.24,3.552-.336v-1.1a15.592,15.592,0,0,0-2.52.864,22.773,22.773,0,0,0-1.224-3.673l2.712-.864a27.336,27.336,0,0,1,1.032,2.929v-3.576h-3.144v-3.049H300.4v-1.248h-1.872v-.912a8.57,8.57,0,0,0-2.52-2.376,11.01,11.01,0,0,0,4.608-5.353l3.408.672c.265.048.36.12.36.265,0,.263-.263.407-.551.431a18.03,18.03,0,0,0,3.479,3.336,9.988,9.988,0,0,0-1.967,1.561Zm-1.417-2.808a11.471,11.471,0,0,1-1.8-2.16c-.552.743-.936,1.248-1.7,2.16Zm7.2,11.569c-.6.336-1.488.816-2.208,1.128.216.024,1.368.144,1.512.144.7,0,.7-.48.7-.768Zm3.144-4.968c.048.071.12.216.168.311a13.342,13.342,0,0,0,1.272-2.328h-1.44Z"/>
          <path class="cls-2" d="M331.937,167.967c.432.1.576.143.576.407,0,.313-.312.313-.624.337-.12.479-.672,2.5-.792,3.023,4.248-.168,5.688,2.473,5.688,7.129,0,.384,0,5.521-1.992,8.041a4.446,4.446,0,0,1-3.864,1.584,6.246,6.246,0,0,1-2.04-.288,11.26,11.26,0,0,0-.5-3.912,9.379,9.379,0,0,0,2.521.48c1.968,0,2.232-4.321,2.232-6.721,0-.96-.072-2.712-2.256-2.712-.24,0-.481.024-.72.048a49.9,49.9,0,0,1-5.473,12.985,11.847,11.847,0,0,0-3.456-1.92,42.772,42.772,0,0,0,5.064-10.224,18.966,18.966,0,0,0-3.408,1.3l-1.128-4.057a55.019,55.019,0,0,0,5.544-1.128,25.5,25.5,0,0,0,.72-5.353Zm6.168,2.9a29.722,29.722,0,0,1,3.889,4.632,5.317,5.317,0,0,1,1.152,3c0,1.8-2.088,2.568-3.529,3.121a25.671,25.671,0,0,0-1.824-3.192c.912-.288,1.225-.385,1.225-.912,0-1.153-2.353-4.177-3.385-5.281Zm1.344-2.976a15.547,15.547,0,0,1,1.968,2.376c-.551.383-.671.48-1.751,1.272-.241-.313-1.441-1.9-1.969-2.448Zm2.4-1.489a13.384,13.384,0,0,1,2.016,2.448c-.528.384-1.392.985-1.945,1.369a10.659,10.659,0,0,0-1.92-2.641Z"/>
          <path class="cls-2" d="M350.272,173.943c.36.1.744.192.744.48,0,.312-.24.384-.792.528a20.891,20.891,0,0,1-2.736,6.937,9.005,9.005,0,0,0-3.36-1.248,18.486,18.486,0,0,0,2.9-7.489Zm14.881-4.968c.312.12.576.24.576.431,0,.336-.551.385-.839.408-3.457,9.482-8.209,12.722-9.913,13.9v.624c0,.96.24,1.176,1.344,1.176h2.52c1.248,0,1.608-.168,1.968-2.952a10.737,10.737,0,0,0,3.12,1.776c-.816,4.248-1.992,4.345-4.56,4.345h-5.064c-2.64,0-2.929-1.777-3.025-2.857a35.819,35.819,0,0,1-4.008,1.609,7.622,7.622,0,0,0-2.5-3.265,23.88,23.88,0,0,0,6.456-2.232V171.879l3.961.336c.216.024.5.072.5.36,0,.264-.288.407-.72.552v6.24a22.88,22.88,0,0,0,6.816-11.713Zm-11.736-2.424a23.266,23.266,0,0,1,5.736,3.143,10.721,10.721,0,0,0-1.9,2.977,26.543,26.543,0,0,0-5.569-3.456Zm10.2,9.768a26.48,26.48,0,0,1,3.937,5.761,12.513,12.513,0,0,0-3,2.111A17.545,17.545,0,0,0,361,178.407Z"/>
          <path class="cls-2" d="M369.016,181.672v-2.809h6.649c.215-.336.431-.647.768-1.223h-5.689v-6.5h5.04v-.96h-6.72v-2.689h21.674v2.689h-6.793v.96h5.089v6.5h-8.257a.3.3,0,0,1,.1.191c0,.336-.456.385-.6.408-.168.264-.24.384-.384.624h10.8v2.809h-3.72a.416.416,0,0,1,.1.216c0,.288-.288.383-.984.431a16.658,16.658,0,0,1-1.632,1.777,30.128,30.128,0,0,1,5.5,2.112,10.381,10.381,0,0,0-2.257,2.929,28.989,28.989,0,0,0-6.1-2.905,25.758,25.758,0,0,1-10.849,2.688,6.294,6.294,0,0,0-1.608-3.1,25.817,25.817,0,0,0,8.233-.936c-.432-.12-.865-.216-1.969-.48-.144.12-.336.336-.552.528a12.841,12.841,0,0,0-3.48-1.392,21.733,21.733,0,0,0,2.04-1.872Zm6.768-8.017h-1.7v1.512h1.7Zm2.065,8.017c-.192.216-.456.527-.7.815.792.12,3.025.529,3.7.673a7.7,7.7,0,0,0,1.488-1.488Zm2.88-11.5h-1.752v.96h1.752Zm-1.752,4.992h1.752v-1.512h-1.752Zm4.968,0H385.7v-1.512h-1.752Z"/>
          <path class="cls-2" d="M414.4,171.351c-5.929-.1-11.065,5.232-11.065,9.121,0,2.784,3.528,4.152,6.792,4.224a32.367,32.367,0,0,0-1.8,4.368c-1.944-.528-8.832-2.448-8.832-8.184a10.918,10.918,0,0,1,4.416-8.257,65.43,65.43,0,0,0-9.937,1.512l-.552-4.512a77.646,77.646,0,0,0,10.681-.553,57.553,57.553,0,0,0,9.624-1.752Zm-3.985,3.408a14.9,14.9,0,0,1,2.232,2.568c-.671.481-1.007.744-1.848,1.441a19.4,19.4,0,0,0-2.136-2.713Zm2.52-1.7a15.235,15.235,0,0,1,2.137,2.52c-.6.456-1.009.817-1.752,1.488a17.831,17.831,0,0,0-2.136-2.712Z"/>
          <path class="cls-2" d="M430.433,167.343c.384.048.6.071.6.263,0,.264-.288.361-.48.409-.048.431-.072.719-.12,1.679,6.769-.288,7.513-.311,7.969-.359-.025.5-.072,2.88.024,3.864-4.345-.217-6.169-.217-7.921-.192a19.51,19.51,0,0,0,.024,2.664,7.859,7.859,0,0,1,1.392,4.608,11.345,11.345,0,0,1-5.568,9.265,16.134,16.134,0,0,0-3.5-2.472c.72-.288,3.552-1.488,4.417-3.456a2.691,2.691,0,0,1-1.9.575,3.21,3.21,0,0,1-2.593-1.08,6.022,6.022,0,0,1-1.032-3.551c0-5.281,4.513-5.113,5.017-5.041.024-.768.024-.984.024-1.344a65.093,65.093,0,0,0-9.577,1.248l-.264-4.057c.552.025,1.464-.023,9.744-.5a25.211,25.211,0,0,0-.335-3.048Zm-5.544,12c0,1.584.792,2.015,1.224,2.015.743,0,1.176-1.1,1.176-2.3,0-.553-.121-1.489-1.081-1.489C425.417,177.567,424.889,178.359,424.889,179.344Z"/>
          <path class="cls-2" d="M448.145,185.1a3.385,3.385,0,1,1-3.385-3.384A3.4,3.4,0,0,1,448.145,185.1Zm-5.281,0a1.9,1.9,0,1,0,1.9-1.9A1.885,1.885,0,0,0,442.864,185.1Z"/>
          <path class="cls-2" d="M104.622,204.374a14.45,14.45,0,0,0,0,19.25l-2.136,1.849a17.11,17.11,0,0,1,0-22.947Z"/>
          <path class="cls-2" d="M121.686,207.734h-8.233l-.72,3.817a6.5,6.5,0,0,1,3.84-1.032c3.073,0,6.432,1.9,6.432,6.193,0,4.056-2.88,6.936-8.04,6.936-6.84,0-7.585-4.3-7.849-5.808h4.536c.456,2.208,2.929,2.208,3.385,2.208,2.184,0,3.552-1.273,3.552-3.145a3.14,3.14,0,0,0-3.336-3.215,3.691,3.691,0,0,0-2.808.983h-4.729l1.945-10.465h12.025Z"/>
          <path class="cls-2" d="M138.413,217.119a11.931,11.931,0,0,1-4.729,7.921,10.841,10.841,0,0,0-3-2.519c4.392-2.929,4.344-7.49,4.344-9.89v-9.1h15.026V221.32c0,2.592-.624,3.624-5.4,3.432a10.952,10.952,0,0,0-1.2-3.937,13.373,13.373,0,0,0,1.968.265c.816,0,.864-.5.864-1.368v-2.593Zm7.872-8.5v-1.7h-7.608v1.7Zm0,5.04v-1.727h-7.608v1.727Z"/>
          <path class="cls-2" d="M167.957,224.92h-3.648v-6.984h-4.872v.984h-3.745V207.351h8.617v-4.416l3.96.215c.12,0,.384.025.384.288s-.336.361-.7.409v3.5h8.617V218.92H172.9v-.984h-4.944Zm-3.648-14.3h-4.872V214.5h4.872Zm3.648,3.888H172.9v-3.888h-4.944Z"/>
          <path class="cls-2" d="M200.526,205.551c0,18.169-.384,19.9-6.913,19.586a7.268,7.268,0,0,0-1.656-3.433,20.389,20.389,0,0,0,2.5.192c.768,0,1.873,0,2.28-2.5a85.012,85.012,0,0,0,.433-10.56H185.117c-.456.936-.6,1.248-.744,1.512h9.432v11.113h-7.033v.912h-3.48v-10.2a17.1,17.1,0,0,1-1.512,2.016,8.092,8.092,0,0,0-3.168-1.7c2.136-2.3,3.864-4.753,4.92-9.985l3.433.7c.288.048.672.145.672.456,0,.241-.312.336-.84.456-.12.409-.169.624-.432,1.441Zm-13.754,9.192h3.577v-1.391h-3.577Zm3.577,2.5h-3.577v1.441h3.577Z"/>
          <path class="cls-2" d="M216.389,203.7c.216.025.408.072.408.336,0,.336-.24.408-.432.456-.192,1.753-.24,2.641-.264,3.193a26.839,26.839,0,0,0,7.537-1.2,26.49,26.49,0,0,0-.24,4.129,38.764,38.764,0,0,1-7.393.912,31.26,31.26,0,0,0,.36,4.609c2.328.311,7.1,2.832,8.689,3.984a23.042,23.042,0,0,0-2.544,3.336A25.056,25.056,0,0,0,216.7,220a3.838,3.838,0,0,1-.96,2.928c-1.3,1.416-3.744,1.488-4.488,1.488-3.024,0-7.009-1.224-7.009-4.584,0-3.553,4.8-4.393,7.537-4.393a4.35,4.35,0,0,1,.648.048c-.192-3.48-.192-3.7-.192-8.665a20.684,20.684,0,0,0-.36-3.864Zm-5.352,15.026c-1.272,0-2.688.383-2.688,1.272,0,1.1,1.9,1.128,2.088,1.128,2.28,0,2.28-.888,2.28-2.185A5.1,5.1,0,0,0,211.037,218.728Z"/>
          <path class="cls-2" d="M234.7,204.038c.432.1.672.168.672.433,0,.311-.408.383-.576.408a18.336,18.336,0,0,0-1.056,6.12,9.07,9.07,0,0,0,.216,2.137c.191-.385.264-.576.552-1.273a5.521,5.521,0,0,1,.744-1.368,17.334,17.334,0,0,0,2.4,1.992,18.619,18.619,0,0,0-2.472,6.073l-3.432.408a23.48,23.48,0,0,1-.913-14.833c.121-.529.121-.649.168-.937Zm10.968-.888c.241,0,.553.025.553.336,0,.264-.216.313-.385.361.025.84.337,4.488.385,5.232.071.864.12,1.872.12,2.808,0,3.024-.24,9.193-7.225,13.2A8.854,8.854,0,0,0,236,222.28c5.76-2.784,6.312-6.936,6.312-10.465a33.71,33.71,0,0,0-.912-8.785Z"/>
          <path class="cls-2" d="M254.572,219.616v-5.593a13.57,13.57,0,0,1-1.944,1.321,11.88,11.88,0,0,0-2.376-2.664,16.81,16.81,0,0,0,3.048-2.089,17.285,17.285,0,0,0-1.968-1.536l2.3-2.352a16.053,16.053,0,0,1,2.16,1.512,7.023,7.023,0,0,0,1.44-1.992H252.8v-2.857h8.281l1.08,1.153a19.405,19.405,0,0,1-2.3,4.08h4.92a15.7,15.7,0,0,1-2.832-4.729l3.048-1.151a14.63,14.63,0,0,0,1.032,1.992,12.238,12.238,0,0,0,1.464-1.824l2.521,1.584c.1.048.264.168.264.288,0,.288-.408.311-.648.311-.792,1.009-1.44,1.752-1.728,2.04.263.313.456.5.648.7a30.118,30.118,0,0,0,2.184-2.592l2.232,1.512c.192.144.432.288.432.456,0,.312-.36.336-.72.36a18.549,18.549,0,0,1-2.065,2.16,16.668,16.668,0,0,0,3.385,2.233,11.743,11.743,0,0,0-2.208,2.855,26.272,26.272,0,0,1-2.208-1.584v6.409h-1.729c.169.072.264.168.264.336,0,.239-.239.384-.5.408a9.276,9.276,0,0,1-.5,1.32h5.88v2.9H251.188v-2.9h6.121c-.1-.288-.456-1.224-.672-1.752l1.175-.312Zm3.576-8.905c-.624.672-.863.936-1.943,1.944h12.672a22.294,22.294,0,0,1-2.5-2.256v1.248h-8.233Zm-.119,4.633v1.536h8.088v-1.536Zm2.256,4.272c.216.528.384.936.672,1.824l-.864.24h3.24a18.08,18.08,0,0,0,.72-2.064Z"/>
          <path class="cls-2" d="M283.565,211.671h-1.753v1.248h2.4v3.049h-2.4v3.263a14.3,14.3,0,0,0,.841-2.855l2.736.552c.144.023.36.072.36.311,0,.288-.36.336-.7.361-.1.36-.144.48-.48,1.488a28.3,28.3,0,0,0,4.776-1.7v-3.937h-1.7a23.954,23.954,0,0,1,1.68,3.073,22.726,22.726,0,0,0-2.592,1.7,19.959,19.959,0,0,0-1.728-3.265l2.448-1.512h-2.736v-2.832h7.56v-.96h-6.072v-2.568h6.072v-.912h-7.224v-2.929H295.71v7.369h1.464v2.832h-2.856l2.664,1.3a.4.4,0,0,1,.264.336c0,.24-.168.288-.624.36a21.8,21.8,0,0,1-1.944,2.857,17.844,17.844,0,0,0,3,2.424,11.64,11.64,0,0,0-1.968,3.049,20.734,20.734,0,0,1-3.216-3.265v2.04c0,2.376-1.56,2.376-4.417,2.376a10.981,10.981,0,0,0-1.224-3.24c-.24.12-.312.144-.648.288-.024.456-.072.864-.48.864a.389.389,0,0,1-.288-.264l-.864-3.457a11.521,11.521,0,0,1-.5,1.225,9.431,9.431,0,0,0-2.257-.552v1.1c1.753-.336,2.257-.456,2.713-.576a9.723,9.723,0,0,0-.312,3c-3.048.671-5.521,1.08-7.849,1.416-.048.359-.12.671-.456.671-.216,0-.264-.192-.288-.36l-.552-3.312c.984-.048,2.664-.24,3.552-.336v-1.1a15.592,15.592,0,0,0-2.52.864,22.773,22.773,0,0,0-1.224-3.673l2.712-.864a27.336,27.336,0,0,1,1.032,2.929v-3.576h-3.144v-3.049h3.144v-1.248h-1.872v-.912a8.57,8.57,0,0,0-2.52-2.376,11.01,11.01,0,0,0,4.608-5.353l3.409.672c.264.048.359.12.359.265,0,.263-.263.407-.551.431a18.011,18.011,0,0,0,3.48,3.336,9.953,9.953,0,0,0-1.968,1.561Zm-1.417-2.808a11.467,11.467,0,0,1-1.8-2.16c-.553.743-.936,1.248-1.7,2.16Zm7.2,11.569c-.6.336-1.488.816-2.208,1.128.216.024,1.368.144,1.512.144.7,0,.7-.48.7-.768Zm3.145-4.968c.048.071.119.216.168.311a13.409,13.409,0,0,0,1.272-2.328h-1.44Z"/>
          <path class="cls-2" d="M314.141,219.184v5.16h-3.048v-5.16h-1.776a9.037,9.037,0,0,1-3.672,5.665,6.971,6.971,0,0,0-2.688-1.777V224.8h-3.433V203.438h10.057v8.353h-6.624v11.257c1.68-.936,2.832-1.848,3.312-3.864H303.8V216.52h2.785c0-.432.023-.96.023-1.416H304.4v-2.521h11.642V215.1h-1.9v1.416h2.4v2.664Zm-7.776-13.37h-3.408v.889h3.408Zm0,2.712h-3.408v.912h3.408Zm4.728,6.578h-1.488c-.024.288-.024,1.2-.048,1.416h1.536Zm5.136,9.792a8.355,8.355,0,0,0-1.271-3.5,7.2,7.2,0,0,0,1.392.192c.456,0,.96,0,.96-.84v-8.953h-6.673v-8.353h10.105v18.674C320.742,224.344,319.374,224.92,316.229,224.9Zm1.081-19.082h-3.456v.889h3.456Zm0,2.712h-3.456v.912h3.456Z"/>
          <path class="cls-2" d="M323.164,209.9v-3.121h2.088c.288-2.04.36-2.952.408-3.816l3.216.48c.385.048.48.144.48.312,0,.24-.144.265-.6.337-.144,1.367-.215,1.992-.336,2.687H332a34.817,34.817,0,0,1-1.416,10.249,22.943,22.943,0,0,1,2.424,3.385,22.2,22.2,0,0,0-2.784,1.945,9.724,9.724,0,0,0-1.129-1.969,17.229,17.229,0,0,1-3.312,4.465,8.552,8.552,0,0,0-2.976-1.681,19.809,19.809,0,0,0,4.128-5.425c-.12-.119-.672-.647-.984-.983-.216.479-.288.624-.384.815a7.707,7.707,0,0,0-2.928-1.223A29.561,29.561,0,0,0,324.7,209.9Zm4.7,0c-.384,1.728-.455,1.992-.911,3.672.168.144.983.817,1.175.985a20.742,20.742,0,0,0,.6-4.657Zm14.138-4.033a33.553,33.553,0,0,1,3.528,7.2,12.75,12.75,0,0,0-2.929,1.537c-.407-1.08-.527-1.321-.671-1.7-1.872.191-2.232.215-8.737.647-.024.192-.072.648-.432.648-.216,0-.336-.215-.36-.431l-.384-3.481c.312,0,1.752-.048,2.04-.048a40.011,40.011,0,0,0,1.872-7.369l3.625.672c.263.048.407.1.407.288,0,.241-.095.313-.648.433-.24.767-1.248,4.1-1.463,4.776-.169.5-.289.792-.385,1.056.48-.024,2.76-.168,3.073-.192-.889-1.705-1.177-2.161-1.44-2.592Zm-5.473,18.146v.841H333.2V214.768h10.921v10.081h-3.432v-.841Zm4.153-3.12v-3h-4.153v3Z"/>
          <path class="cls-2" d="M367.686,211.263l1.752,1.753a33.9,33.9,0,0,1-5.665,7.152,8.163,8.163,0,0,0-2.88-2.328,14.014,14.014,0,0,0,3.048-3.193h-3.936v7.345c0,2.689-1.68,3-5.545,2.928a8.13,8.13,0,0,0-1.175-3.528,10.183,10.183,0,0,0,1.944.192c1.032,0,1.152-.336,1.152-1.416v-5.521h-9.217v-3.384h9.913a43.324,43.324,0,0,0-5.233-2.112l2.281-2.5h-4.7v-3.072h15.674l1.343,1.849a35.023,35.023,0,0,1-5.256,4.1,10.475,10.475,0,0,1,1.344.816c-.359.264-.648.456-1.176.912Zm-13.3-4.609c.432.168,2.3.817,3.576,1.321a15.1,15.1,0,0,0,1.776-1.321Z"/>
          <path class="cls-2" d="M384.029,214.623h6.313v3.145h-6.313v3.576c.6.024,1.3.048,2.232.048a69.558,69.558,0,0,0,7.393-.408,8.014,8.014,0,0,0-.864,3.745h-9.385a8.231,8.231,0,0,1-7.081-3.361,18.079,18.079,0,0,1-2.256,3.792,7.1,7.1,0,0,0-3.432-1.488,16.711,16.711,0,0,0,4.08-9.937l3.7.649c.215.048.48.1.48.384,0,.24-.144.288-.672.479-.12.6-.241,1.2-.553,2.353a5.2,5.2,0,0,0,2.689,3.12v-8.305H374.14v-1.824h-3v-5.569h9.1v-2.255l3.672.24c.336.023.648.048.648.287,0,.192-.12.288-.648.528v1.2h9.217V210.5h-2.784v1.92h-6.313Zm5.545-5.3v-1.392H374.62v1.392Z"/>
          <path class="cls-2" d="M416.622,207.351c-5.929-.1-11.065,5.232-11.065,9.121,0,2.784,3.528,4.152,6.793,4.224a32.366,32.366,0,0,0-1.8,4.368c-1.944-.528-8.832-2.448-8.832-8.184a10.918,10.918,0,0,1,4.416-8.257,65.451,65.451,0,0,0-9.937,1.512l-.552-4.512a77.653,77.653,0,0,0,10.681-.553,57.606,57.606,0,0,0,9.625-1.752Zm-3.984,3.408a14.938,14.938,0,0,1,2.232,2.568c-.672.481-1.008.744-1.849,1.441a19.329,19.329,0,0,0-2.136-2.713Zm2.52-1.7a15.229,15.229,0,0,1,2.136,2.52c-.6.456-1.008.817-1.752,1.488a17.769,17.769,0,0,0-2.136-2.712Z"/>
          <path class="cls-2" d="M432.653,203.343c.384.048.6.071.6.263,0,.264-.288.361-.48.409-.048.431-.072.719-.12,1.679,6.769-.288,7.513-.311,7.969-.359-.024.5-.072,2.88.024,3.864-4.345-.217-6.168-.217-7.921-.192a19.51,19.51,0,0,0,.024,2.664,7.859,7.859,0,0,1,1.392,4.608,11.345,11.345,0,0,1-5.568,9.265,16.086,16.086,0,0,0-3.5-2.472c.721-.288,3.553-1.488,4.417-3.456a2.687,2.687,0,0,1-1.9.575,3.208,3.208,0,0,1-2.592-1.08,6.017,6.017,0,0,1-1.033-3.551c0-5.281,4.513-5.113,5.017-5.041.024-.768.024-.984.024-1.344a65.093,65.093,0,0,0-9.577,1.248l-.264-4.057c.552.025,1.464-.023,9.745-.5a25.356,25.356,0,0,0-.336-3.048Zm-5.544,12c0,1.584.792,2.015,1.224,2.015.744,0,1.176-1.1,1.176-2.3,0-.553-.12-1.489-1.08-1.489C427.637,213.567,427.109,214.359,427.109,215.344Z"/>
          <path class="cls-2" d="M450.365,221.1a3.385,3.385,0,1,1-3.385-3.384A3.4,3.4,0,0,1,450.365,221.1Zm-5.281,0a1.9,1.9,0,1,0,1.9-1.9A1.885,1.885,0,0,0,445.084,221.1Z"/>
          <path class="cls-2" d="M457.516,202.526a17.11,17.11,0,0,1,0,22.947l-2.112-1.849a14.45,14.45,0,0,0,0-19.25Z"/>
        </g>
        <rect class="cls-2" x="20" y="110" width="520" height="2"/>
      </g>
    </g>
  </g>
</svg>
