<svg xmlns="http://www.w3.org/2000/svg" viewBox="0 0 330 30"><defs><style>.b7f39ba3-20c0-458d-bcd4-19573005b9d2{fill:#ff5064;}.ae49f0a5-52c6-40ff-9a07-0c29e8a0adfd{fill:#fff;}</style></defs><title>to_caution</title><g id="b37667a0-918b-4aee-bbb6-f9bb5c2475a8" data-name="レイヤー 2"><g id="ffd2f86d-dd9f-495d-aeba-564f2187346c" data-name="object"><rect class="b7f39ba3-20c0-458d-bcd4-19573005b9d2" width="330" height="30" rx="5"/><path class="ae49f0a5-52c6-40ff-9a07-0c29e8a0adfd" d="M130.12,21.61c-3.23,0-5.21-.65-5.21-2.54,0-.85.5-1.85,2.15-3.24l.88.73c-.28.22-1.82,1.44-1.82,2.44a.92.92,0,0,0,.48.86,8.14,8.14,0,0,0,3.38.59,18.39,18.39,0,0,0,5.22-.64c.13.59.21.94.31,1.26A27.75,27.75,0,0,1,130.12,21.61Zm-.33-7c-.09-.11-.53-.52-.79-.79,1.51-1.23,1.79-1.44,2.32-1.83a34,34,0,0,1-3.4.15c-1.12,0-1.56,0-2.1,0l-.1-1.31A19.17,19.17,0,0,0,129,11a25.42,25.42,0,0,0,4-.29l.66,1.08A20.5,20.5,0,0,0,129.79,14.57Zm5.42-2.12a11.23,11.23,0,0,0-1.35-1.51l.63-.56a12.23,12.23,0,0,1,1.34,1.47A2.73,2.73,0,0,0,135.21,12.45Zm1-1a7.85,7.85,0,0,0-1.31-1.52l.6-.54a12.29,12.29,0,0,1,1.38,1.46A2.28,2.28,0,0,0,136.2,11.4Z"/><path class="ae49f0a5-52c6-40ff-9a07-0c29e8a0adfd" d="M144.56,22.43h-1.1V17.38a15.57,15.57,0,0,1-5.14,4.7,3.42,3.42,0,0,0-1-.87,15.41,15.41,0,0,0,5.42-4.37h-5.17v-1h5.87V12.45h-5.24v-1h5.24V9.61l1.13.1c.09,0,.31,0,.31.18s-.18.2-.34.24v1.29h5.23v1h-5.23v3.39h5.83v1h-5.21a14.63,14.63,0,0,0,5.23,4.21,3.09,3.09,0,0,0-.82.9,14.16,14.16,0,0,1-5-4.45Zm-3.88-9.81a13.65,13.65,0,0,1,1.39,2.59,8.2,8.2,0,0,0-1,.55,13.07,13.07,0,0,0-1.34-2.62Zm7.62.45c.07,0,.2.08.2.18s-.2.18-.36.2A14.63,14.63,0,0,1,147,15.76a7.14,7.14,0,0,0-1-.55,13.6,13.6,0,0,0,1.27-2.64Z"/><path class="ae49f0a5-52c6-40ff-9a07-0c29e8a0adfd" d="M156.29,17.89c-.65.26-2.43,1-4,1.54,0,.14,0,.36-.23.36s-.15-.07-.22-.3l-.3-1.07c.66-.15,1.57-.43,1.92-.55v-4h-1.8V12.78h1.8V9.62l1.15.09c.14,0,.3,0,.3.17s-.16.18-.31.25v2.65h1.78v1.06h-1.78V17.5c.25-.09,1.15-.42,1.78-.72A3.12,3.12,0,0,0,156.29,17.89Zm2.6-1.6c-.19.32-.34.55-.52.86H164c0,1.21-.19,4-.91,4.8-.19.22-.59.52-2.06.43a2.8,2.8,0,0,0-.39-1.2,6.72,6.72,0,0,0,1,.11c.34,0,.67,0,.87-.87a13.3,13.3,0,0,0,.32-2.34H162a13,13,0,0,1-3.38,4.4,2.78,2.78,0,0,0-.88-.6,10.65,10.65,0,0,0,3.24-3.8h-1.07a11.28,11.28,0,0,1-4,3.91,2,2,0,0,0-.79-.68,9.79,9.79,0,0,0,3.67-3.23h-1.15a11.9,11.9,0,0,1-2,1.85,2.58,2.58,0,0,0-.84-.63,9.61,9.61,0,0,0,3-3H156V15.4h8.4v.89Zm-1.7-1.6V10h5.95v4.7Zm4.9-3.82h-3.81v1h3.81Zm0,1.86h-3.81v1.1h3.81Z"/><path class="ae49f0a5-52c6-40ff-9a07-0c29e8a0adfd" d="M176.25,19.86a8.12,8.12,0,0,1-3.35,1.91,5.65,5.65,0,0,0-.8-1.08c4.18-.88,4.61-3.8,4.61-4.93a4,4,0,0,0-4.26-4.12,20.06,20.06,0,0,1-1.53,6.46c-.77,1.82-1.44,2.56-2.21,2.56-1,0-2.63-1.62-2.63-3.92a6.46,6.46,0,0,1,6.36-6.21,5.17,5.17,0,0,1,5.48,5.2A6,6,0,0,1,176.25,19.86Zm-9-3.19c0,1.51.82,2.62,1.43,2.62s1.1-1.33,1.44-2.21a16.47,16.47,0,0,0,1.09-5.26A5.25,5.25,0,0,0,167.23,16.67Z"/><path class="ae49f0a5-52c6-40ff-9a07-0c29e8a0adfd" d="M182,15.79a18.27,18.27,0,0,0-2.65-1.46l.55-1.05a16.27,16.27,0,0,1,2.66,1.47A7.57,7.57,0,0,0,182,15.79Zm-1.15,6a1.13,1.13,0,0,1,.11.33c0,.1-.1.14-.17.14s-.16-.07-.28-.14l-.95-.64a23.64,23.64,0,0,0,2.78-4.65,3.38,3.38,0,0,0,.84.81A29.48,29.48,0,0,1,180.82,21.8Zm2.12-9.86a15.66,15.66,0,0,0-2.29-1.56l.62-.94a17.41,17.41,0,0,1,2.3,1.5A4.33,4.33,0,0,0,182.94,11.94Zm.22,10V20.83h4.06V17.24H184.1V16.17h3.12V13h-3.7v-1h4.28A11.09,11.09,0,0,0,186,10.1l.94-.74a14.23,14.23,0,0,1,2.07,2,5.22,5.22,0,0,0-.8.58h4.05v1h-3.83v3.2h3v1.07h-3v3.59h4v1.08Z"/><path class="ae49f0a5-52c6-40ff-9a07-0c29e8a0adfd" d="M193.6,13.69v-.93h3.9c-.26-.39-.44-.64-.73-1l.73-.19h-3.13v-.93h5V9.53l1.19.08c.1,0,.32,0,.32.18s-.08.14-.32.21v.63h5v.93H203l.22,0c.12,0,.28.08.28.19s-.24.18-.39.19a8.62,8.62,0,0,1-.47.8h3.83v.93Zm2.8,6.15a14,14,0,0,1-1.72,2.38,3.07,3.07,0,0,0-1-.62,9.81,9.81,0,0,0,1.88-2.6l1,.46c.07,0,.23.11.23.21S196.57,19.84,196.4,19.84Zm4.07-1.25a13.1,13.1,0,0,1,1.16,1.4,9.19,9.19,0,0,0-.91.56A8.33,8.33,0,0,0,199.53,19l.66-.43h-4.33V14.37h8.32v4.22Zm2.6-3.38H197v.84h6.08Zm0,1.66H197v.89h6.08Zm-1.44,5.32h-2.82c-1.24,0-1.58-.27-1.58-1.33V19l1,.1c.1,0,.33,0,.33.18s-.1.14-.3.21v1.06c0,.7.17.7.93.7h2.32c.84,0,1-.17,1.22-1.26a2.79,2.79,0,0,0,1,.52C203.42,21.81,203.14,22.19,201.63,22.19Zm-3.71-10.63a8.49,8.49,0,0,1,.75,1l-.66.18h3.39a11.33,11.33,0,0,0,.63-1.2ZM205.51,22a13.82,13.82,0,0,0-1.91-2.48l.94-.56a16,16,0,0,1,1.89,2.41A4,4,0,0,0,205.51,22Z"/><polygon class="ae49f0a5-52c6-40ff-9a07-0c29e8a0adfd" points="20 14 30 14 25 19 20 14"/></g></g></svg>