<svg xmlns="http://www.w3.org/2000/svg" viewBox="0 0 330 30"><defs><style>.ec170436-b23a-42d1-844c-aa32513bd803{fill:#ff5064;}.fe1c03b3-ccbf-4483-a43f-6ba7d9d79fed{fill:#fff;}</style></defs><title>to_guide</title><g id="e45bf483-07b7-4d7f-bcbf-b41791933ca4" data-name="レイヤー 2"><g id="f130305c-20b8-49fd-93a7-526bbc3d6056" data-name="object"><rect class="ec170436-b23a-42d1-844c-aa32513bd803" width="330" height="30" rx="5"/><path class="fe1c03b3-ccbf-4483-a43f-6ba7d9d79fed" d="M77.22,21.66l-1.06.21a18.47,18.47,0,0,1-.68-5.24,29.56,29.56,0,0,1,.78-6.57l1.27.45c.13,0,.22.07.22.21s-.12.19-.37.21a22.61,22.61,0,0,0-.76,5.84A21.2,21.2,0,0,0,76.75,19c.16-.35.79-1.92.93-2.23a4.69,4.69,0,0,0,.69.81A8.74,8.74,0,0,0,77.22,21.66Zm9.54-1a7.91,7.91,0,0,0-2.31-1.45c.14,2.29-2.14,2.48-2.56,2.48a2.25,2.25,0,0,1-2.45-2.05c0-1.29,1.27-2,2.63-2a5.08,5.08,0,0,1,1.06.11c-.08-.91-.1-1.19-.15-3.71a19.13,19.13,0,0,1-2.42.15c-.49,0-.82,0-1.15,0V12.9A14.42,14.42,0,0,0,81,13c.35,0,.91,0,2-.09,0-.71,0-1.88,0-2.87l1.41.21c.1,0,.23.06.23.17s-.23.21-.32.22c-.09.67-.12,1.49-.14,2.12a16,16,0,0,0,2.45-.56v1.17a22.69,22.69,0,0,1-2.47.49,34.86,34.86,0,0,0,.2,4.09,10,10,0,0,1,3,1.66A10.79,10.79,0,0,0,86.76,20.63Zm-3.5-1.84a3.07,3.07,0,0,0-1.19-.21c-.91,0-1.58.33-1.58,1s.75,1,1.47,1a1.23,1.23,0,0,0,1.37-1.31A3.27,3.27,0,0,0,83.26,18.79Z"/><path class="fe1c03b3-ccbf-4483-a43f-6ba7d9d79fed" d="M94.26,22c-2.88,0-3-2.87-3-5.13,0-1,.18-5.32.18-6.2a5.28,5.28,0,0,0,0-.79l1.49.2c.21,0,.33,0,.33.18s-.19.22-.36.25a60.56,60.56,0,0,0-.35,6.43c0,2.38.17,3.83,1.81,3.83,2.9,0,5-3.2,5.5-4.21a4.63,4.63,0,0,0,.92,1C98.3,21.56,95.42,22,94.26,22Zm4.18-8.83A10.68,10.68,0,0,0,97,11.64l.66-.59a11.27,11.27,0,0,1,1.44,1.5A2.81,2.81,0,0,0,98.44,13.15Zm1.2-1a9.09,9.09,0,0,0-1.43-1.58l.67-.48a12,12,0,0,1,1.45,1.49A3,3,0,0,0,99.64,12.17Z"/><path class="fe1c03b3-ccbf-4483-a43f-6ba7d9d79fed" d="M109.51,21.92a4.49,4.49,0,0,0-.63-1.05c1.17-.14,4.83-.81,4.83-4.17a3.27,3.27,0,0,0-3.19-3.34,14.2,14.2,0,0,1-2.22,5.07,9,9,0,0,0,.76,1c-.5.43-.56.48-1,.92-.21-.32-.39-.57-.6-.92-1.25,1.25-2,1.44-2.65,1.44-1.15,0-1.83-.92-1.83-2.2A6.29,6.29,0,0,1,105,14.3a31.21,31.21,0,0,1-.92-3.42l1.27-.39a15.27,15.27,0,0,0,.62,3,6.66,6.66,0,0,1,3.48-1.23,14.53,14.53,0,0,0,.31-2.58l1.37.34c.09,0,.27.07.27.2s-.24.18-.32.19c0,.27-.32,1.57-.38,1.88a4.31,4.31,0,0,1,4.19,4.43C114.93,19.65,112.73,21.35,109.51,21.92Zm-4.08-6.52a4.92,4.92,0,0,0-1.34,3.16c0,.52.15,1.12.84,1.12s1.71-1,1.92-1.27A26.1,26.1,0,0,1,105.43,15.4Zm.93-.83a15.45,15.45,0,0,0,1.29,2.8,12.31,12.31,0,0,0,1.63-4A5.42,5.42,0,0,0,106.36,14.57Z"/><path class="fe1c03b3-ccbf-4483-a43f-6ba7d9d79fed" d="M125.17,12.86c-.74.5-3,2.18-3,4.52,0,1.8,1.35,3.24,4.34,3.55a6.75,6.75,0,0,0-.53,1.32c-2.57-.52-5-1.92-5-4.85,0-1.84,1.08-3.8,3.83-5.44-.35,0-6.43.68-7.57,1L117,11.4c.26,0,.44,0,.71,0a81.14,81.14,0,0,0,11-1.23l.28,1.38A6.42,6.42,0,0,0,125.17,12.86Z"/><path class="fe1c03b3-ccbf-4483-a43f-6ba7d9d79fed" d="M137.12,21.61c-3.23,0-5.21-.65-5.21-2.54,0-.85.5-1.85,2.15-3.24l.88.73c-.28.22-1.82,1.44-1.82,2.44a.92.92,0,0,0,.48.86,8.14,8.14,0,0,0,3.38.59,18.39,18.39,0,0,0,5.22-.64c.13.59.21.94.31,1.26A27.75,27.75,0,0,1,137.12,21.61Zm-.33-7c-.09-.11-.53-.52-.79-.79,1.51-1.23,1.79-1.44,2.32-1.83a34,34,0,0,1-3.4.15c-1.12,0-1.56,0-2.1,0l-.1-1.31A19.17,19.17,0,0,0,136,11a25.42,25.42,0,0,0,4-.29l.66,1.08A20.5,20.5,0,0,0,136.79,14.57Zm5.42-2.12a11.23,11.23,0,0,0-1.35-1.51l.63-.56a12.23,12.23,0,0,1,1.34,1.47A2.73,2.73,0,0,0,142.21,12.45Zm1-1a7.85,7.85,0,0,0-1.31-1.52l.6-.54a12.29,12.29,0,0,1,1.38,1.46A2.28,2.28,0,0,0,143.2,11.4Z"/><path class="fe1c03b3-ccbf-4483-a43f-6ba7d9d79fed" d="M151.56,22.43h-1.1V17.38a15.57,15.57,0,0,1-5.14,4.7,3.42,3.42,0,0,0-1-.87,15.41,15.41,0,0,0,5.42-4.37h-5.17v-1h5.87V12.45h-5.24v-1h5.24V9.61l1.13.1c.09,0,.31,0,.31.18s-.18.2-.34.24v1.29h5.23v1h-5.23v3.39h5.83v1h-5.21a14.63,14.63,0,0,0,5.23,4.21,3.09,3.09,0,0,0-.82.9,14.16,14.16,0,0,1-5-4.45Zm-3.88-9.81a13.65,13.65,0,0,1,1.39,2.59,8.2,8.2,0,0,0-1,.55,13.07,13.07,0,0,0-1.34-2.62Zm7.62.45c.07,0,.2.08.2.18s-.2.18-.36.2A14.63,14.63,0,0,1,154,15.76a7.14,7.14,0,0,0-1-.55,13.6,13.6,0,0,0,1.27-2.64Z"/><path class="fe1c03b3-ccbf-4483-a43f-6ba7d9d79fed" d="M163.29,17.89c-.65.26-2.43,1-4,1.54,0,.14,0,.36-.23.36s-.15-.07-.22-.3l-.3-1.07c.66-.15,1.57-.43,1.92-.55v-4h-1.8V12.78h1.8V9.62l1.15.09c.14,0,.3,0,.3.17s-.16.18-.31.25v2.65h1.78v1.06h-1.78V17.5c.25-.09,1.15-.42,1.78-.72A3.12,3.12,0,0,0,163.29,17.89Zm2.6-1.6c-.19.32-.34.55-.52.86H171c0,1.21-.19,4-.91,4.8-.19.22-.59.52-2.06.43a2.8,2.8,0,0,0-.39-1.2,6.72,6.72,0,0,0,1,.11c.34,0,.67,0,.87-.87a13.3,13.3,0,0,0,.32-2.34H169a13,13,0,0,1-3.38,4.4,2.78,2.78,0,0,0-.88-.6,10.65,10.65,0,0,0,3.24-3.8h-1.07a11.28,11.28,0,0,1-4,3.91,2,2,0,0,0-.79-.68,9.79,9.79,0,0,0,3.67-3.23h-1.15a11.9,11.9,0,0,1-2,1.85,2.58,2.58,0,0,0-.84-.63,9.61,9.61,0,0,0,3-3H163V15.4h8.4v.89Zm-1.7-1.6V10h5.95v4.7Zm4.9-3.82h-3.81v1h3.81Zm0,1.86h-3.81v1.1h3.81Z"/><path class="fe1c03b3-ccbf-4483-a43f-6ba7d9d79fed" d="M176.15,21.54c-1.29,0-2.89-2.32-2.89-6.16a25.08,25.08,0,0,1,.57-4.72l1.29.39c.19.06.3.09.3.23s-.2.19-.31.19a13.79,13.79,0,0,0-.64,4.19c0,2.45,1,4.39,1.7,4.39s1.38-1.78,1.77-2.76a3.65,3.65,0,0,0,.87.78C178.5,18.86,177.42,21.54,176.15,21.54Zm7.74-2.39A12.29,12.29,0,0,0,181.37,12l1-.64a14.25,14.25,0,0,1,2.78,7.21Z"/><path class="fe1c03b3-ccbf-4483-a43f-6ba7d9d79fed" d="M191.8,13.5A31.06,31.06,0,0,1,188,22.12c-.34-.21-.88-.46-1.19-.62a23.73,23.73,0,0,0,3.67-7.83c-1.13.11-1.75.14-3.1.16l-.09-1.28c.32,0,.66,0,1.16,0,.92,0,1.78-.05,2.31-.09a19.53,19.53,0,0,0,.42-2.88l1.36.35c.21.06.28.13.28.2s-.21.2-.28.2c-.08.3-.39,1.69-.46,2a11.62,11.62,0,0,0,3-.77l.22,1.19A21.72,21.72,0,0,1,191.8,13.5ZM196,21.82c-.89,0-3.94,0-3.94-2.1a3.31,3.31,0,0,1,.77-1.94l1,.44a2.4,2.4,0,0,0-.69,1.42c0,.9,1.43,1.06,2.79,1.06a10.48,10.48,0,0,0,3-.44c0,.16,0,.33,0,.58a3.14,3.14,0,0,0,.06.72A17.14,17.14,0,0,1,196,21.82Zm2.56-5.89a11.39,11.39,0,0,0-2.09-.18,24.23,24.23,0,0,0-3.08.23V14.85a21.32,21.32,0,0,1,3.24-.24,12.32,12.32,0,0,1,2.06.14A6.53,6.53,0,0,0,198.55,15.93Z"/><path class="fe1c03b3-ccbf-4483-a43f-6ba7d9d79fed" d="M205.8,13.5A31.06,31.06,0,0,1,202,22.12c-.39-.24-.94-.49-1.19-.62a23.73,23.73,0,0,0,3.67-7.83c-1.13.11-1.75.14-3.1.16l-.09-1.28c.32,0,.66,0,1.16,0,.92,0,1.78-.05,2.31-.09a19.53,19.53,0,0,0,.42-2.88l1.36.35c.21.06.28.13.28.2s-.21.2-.28.2c-.08.3-.39,1.69-.46,2a11.62,11.62,0,0,0,3-.77l.22,1.19A21.72,21.72,0,0,1,205.8,13.5ZM210,21.82c-.89,0-3.94,0-3.94-2.1a3.31,3.31,0,0,1,.77-1.94l1,.44a2.4,2.4,0,0,0-.69,1.42c0,.9,1.43,1.06,2.79,1.06a10.48,10.48,0,0,0,3-.44,3.73,3.73,0,0,0,0,.47,3.47,3.47,0,0,0,.08.83A17.14,17.14,0,0,1,210,21.82Zm2.56-5.89a11.39,11.39,0,0,0-2.09-.18,24.23,24.23,0,0,0-3.08.23V14.85a21.32,21.32,0,0,1,3.24-.24,12.32,12.32,0,0,1,2.06.14A6.53,6.53,0,0,0,212.55,15.93Zm-1-3a11.53,11.53,0,0,0-1.33-1.5l.66-.49a11.72,11.72,0,0,1,1.36,1.47A2.13,2.13,0,0,0,211.54,12.92Zm1.35-.94a8.12,8.12,0,0,0-1.35-1.54l.66-.47a10,10,0,0,1,1.37,1.49A5.82,5.82,0,0,0,212.89,12Z"/><path class="fe1c03b3-ccbf-4483-a43f-6ba7d9d79fed" d="M223.93,22.61a24.78,24.78,0,0,0-5.78-5.1c-1.54-1-1.63-1.08-1.63-1.6s.2-.61,1.46-1.58a33.31,33.31,0,0,0,5.25-5l1.12.79c.14.09.23.15.23.26s-.07.14-.2.14l-.24,0c-.92.9-3.54,3.12-5.46,4.64-.21.15-.63.5-.63.73s.08.29.84.78a27.23,27.23,0,0,1,6,4.89C224.65,21.82,224.25,22.27,223.93,22.61Z"/><path class="fe1c03b3-ccbf-4483-a43f-6ba7d9d79fed" d="M239.49,15c0,.35,0,4.8-1,6.37-.65,1-1.63,1-2.89,1a2.81,2.81,0,0,0-.49-1.3,6.06,6.06,0,0,0,1.11.11,1.41,1.41,0,0,0,1.64-1.16,14.94,14.94,0,0,0,.47-3.95h-3.78a9.71,9.71,0,0,1-5.15,6.24,2.63,2.63,0,0,0-1-.91c4.85-1.92,5.31-6.1,5.35-8.47h-5.15V11.84h5.81V9.57l1.22.1c.15,0,.34,0,.34.18s-.16.18-.34.22v1.77h5.8V13h-6.49a12.32,12.32,0,0,1-.18,2.06Z"/><path class="fe1c03b3-ccbf-4483-a43f-6ba7d9d79fed" d="M254.79,20.51a42.49,42.49,0,0,1-6-6.22c-.63-.76-.82-.93-1.14-.93s-.68.3-1.28,1.1a28.81,28.81,0,0,1-3.1,3.81l-1-1a22.32,22.32,0,0,0,3.9-4.33,1.85,1.85,0,0,1,1.48-.92c.88,0,1.33.56,2.2,1.64a33.19,33.19,0,0,0,5.81,5.73C255.27,19.85,255.21,19.93,254.79,20.51Z"/><polygon class="fe1c03b3-ccbf-4483-a43f-6ba7d9d79fed" points="20 14 30 14 25 19 20 14"/></g></g></svg>