<svg id="レイヤー_1" data-name="レイヤー 1" xmlns="http://www.w3.org/2000/svg" viewBox="0 0 163.14 30"><defs><style>.cls-1{fill:#ff5064;}</style></defs><title>アートボード 6</title><path class="cls-1" d="M28.76,17.82c-.67.58-1.87,1.83-1.87,2.62,0,1.73,3.29,1.73,4.29,1.73a33.73,33.73,0,0,0,9.63-1.44,18,18,0,0,0,.62,4.08,36.36,36.36,0,0,1-9.38,1.1c-3.75,0-5.23-.41-6.41-.89-.77-.31-3.05-1.44-3.05-3.86s2.5-4.73,3.48-5.62ZM38.84,9.93a16.67,16.67,0,0,0-6.05,3.91c-.86-.75-1.77-1.51-2.52-2.06.89-.82,1.11-1,1.8-1.56-1.48.12-5.52.33-7.56.28l-.19-4a48.3,48.3,0,0,0,6,.32A47.29,47.29,0,0,0,37,6.26ZM39.9,6.18A17.25,17.25,0,0,1,42.08,8.7a9.65,9.65,0,0,0-1.41,1.73,27.32,27.32,0,0,0-2.31-2.66Zm1.85-2A26.76,26.76,0,0,1,44,6.49a9.56,9.56,0,0,0-1.53,1.64,21.26,21.26,0,0,0-2.09-2.36Z"/><path class="cls-1" d="M57.73,26.94H54.27v-6.4a23.83,23.83,0,0,1-7,6.12,8.22,8.22,0,0,0-3.07-2.38,20.55,20.55,0,0,0,7.7-6.14H45V15h4.49a19.19,19.19,0,0,0-1.92-3.56l1.73-1H46.09V7.38h8.18V4.93l3.6.22c.29,0,.53,0,.53.36s-.48.41-.67.46V7.38h8.14V10.5H62.75l1.46.63c.17.07.24.17.24.29,0,.31-.29.36-.48.4A22,22,0,0,1,62.46,15H67v3.12H59.87a18.65,18.65,0,0,0,7.46,5.8,11.12,11.12,0,0,0-2.54,2.6,18.83,18.83,0,0,1-7.06-6.15ZM54.27,15V10.5H51.18a13.68,13.68,0,0,1,2,3.7,11.92,11.92,0,0,0-1.83.82Zm3.46-4.52V15h2.78a16.36,16.36,0,0,0-1.65-.87,18.78,18.78,0,0,0,1.82-3.65Z"/><path class="cls-1" d="M79.28,20.25a16.5,16.5,0,0,1-2.83,2.9,6.18,6.18,0,0,0-2.26-1.61c.43-.33.79-.6,1.35-1.08-1.49.65-3.32,1.35-5.26,2,0,.28-.1.62-.36.62s-.34-.31-.38-.55l-.82-3.39a17.74,17.74,0,0,0,2.71-.5V13.19H69V10.07h2.47v-5L75,5.27c.29,0,.51.05.51.26s-.15.29-.51.46v4.08h2.14v3.12H75v4.37c.58-.24.94-.38,1.52-.65h-.17V14.49H90.87v2.42H81.59l-.46.77h9.58c0,2.42-.08,7.22-1.64,8.45-.91.72-2.44.79-4,.79a6.89,6.89,0,0,0-.65-2.59,18.42,18.42,0,0,1-2.85,3,6.07,6.07,0,0,0-2.55-1.54,16.68,16.68,0,0,0,5.07-5.54H83.05a16.76,16.76,0,0,1-6.31,6.36,6.18,6.18,0,0,0-2.12-1.92,14.73,14.73,0,0,0,5.6-4.44ZM77.1,16.91a9.74,9.74,0,0,0-.17,2.14,15.17,15.17,0,0,0,1.46-2.14ZM89.19,13.7H78V5.25H89.19ZM86,8.56V7.74H81.22v.82Zm-4.73,1.92v.82H86v-.82Zm5.67,9.77A26.2,26.2,0,0,1,85,23.58a8,8,0,0,0,.84.05c.48,0,.92-.05,1.08-.6a11.81,11.81,0,0,0,.44-2.78Z"/><path class="cls-1" d="M104.31,22.82c5.21-1,6.75-5,6.75-7.49a5.68,5.68,0,0,0-5.55-5.88c-.74,8.78-4.37,15.33-6.91,15.33-1.87,0-5.35-3.16-5.35-7.6A11.78,11.78,0,0,1,105,6c5.26,0,9.84,3.58,9.84,9.31A11.21,11.21,0,0,1,112,22.72a13.4,13.4,0,0,1-5.21,3.48A15.37,15.37,0,0,0,104.31,22.82ZM96.8,16.89c0,1.85,1,3.24,1.54,3.24s1-1.08,1.29-1.71a20.9,20.9,0,0,0,1.85-8.25C98.7,11.2,96.8,14.73,96.8,16.89Z"/><path class="cls-1" d="M117.7,10.43a22.9,22.9,0,0,1,4.64,2.45,23.55,23.55,0,0,0-1.56,3,43.87,43.87,0,0,0-4.56-2.43Zm-1.48,14.21a38,38,0,0,0,4.89-8,12.85,12.85,0,0,0,2.52,2.21A52.28,52.28,0,0,1,119.84,26c0,.22.07.41.07.53s-.09.31-.24.31a.79.79,0,0,1-.36-.14Zm4-19.92a34.36,34.36,0,0,1,3.93,2.45,31.54,31.54,0,0,0-1.8,2.95,33,33,0,0,0-3.93-2.57Zm18.31,3.89v3.05h-5.78v3.57h4.53V18.5h-4.53v4.58h6.14v3.34H123.1V23.08h6.05V18.5h-4.46V15.23h4.46V11.66h-5.42V8.61H129a20.82,20.82,0,0,0-2.07-1.9l3-2.21a27.64,27.64,0,0,1,3.55,3.31,12.81,12.81,0,0,0-1.22.8Z"/><path class="cls-1" d="M146.48,22.5c.24.12.5.27.5.51s-.55.33-.76.33a28.49,28.49,0,0,1-2.6,3.58,6.9,6.9,0,0,0-2.73-1.7,17.17,17.17,0,0,0,2.93-4.16ZM161.7,6.18V8.73h-3c0,.28-.38.33-.72.36a6.25,6.25,0,0,1-.31.64h5.47v2.6H141.06V9.73h5.11c-.12-.19-.31-.47-.48-.72l1.13-.28h-4.44V6.18h7.75V4.69l3.72.2c.14,0,.38.07.38.24s-.14.31-.38.45v.6Zm-9.89,14.64h-7.44V13.19h15.29v7.63h-6a17.81,17.81,0,0,1,1.37,1.78c-.24.17-2,1.27-2.35,1.49a13.79,13.79,0,0,0-1.9-2.67Zm-1.75.7c.4.05.72.1.72.31s-.17.24-.6.36v1.39c0,.72.45.77.88.77h3.15c.86,0,1.22-.86,1.51-2a7.39,7.39,0,0,0,2.83,1.42c-.4,1.56-.84,3.19-3.57,3.19h-5.47c-2,0-2.43-.72-2.43-2.14V21.23Zm6.21-5.38v-1h-8.4v1Zm-8.4,1.71v1h8.4v-1Zm1.49-9.12.65,1h3.77c.26-.52.31-.59.48-1Zm10.83,12.14a19.82,19.82,0,0,1,2.95,3.79,15.13,15.13,0,0,0-2.52,1.78,27.28,27.28,0,0,0-2.93-4.06Z"/><rect class="cls-1" width="10" height="30"/></svg>