<svg id="レイヤー_1" data-name="レイヤー 1" xmlns="http://www.w3.org/2000/svg" xmlns:xlink="http://www.w3.org/1999/xlink" viewBox="0 0 186 35"><defs><style>.cls-1{fill:#fff;}.cls-2{fill:#00b4dc;}.cls-3{fill:url(#名称未設定グラデーション_22);}</style><linearGradient id="名称未設定グラデーション_22" x1="93" y1="35" x2="93" gradientUnits="userSpaceOnUse"><stop offset="0" stop-opacity="0.15"/><stop offset="0.15" stop-opacity="0.08"/><stop offset="1" stop-opacity="0"/></linearGradient></defs><title>アートボード 30</title><rect class="cls-1" width="186" height="35" rx="10"/><rect class="cls-2" width="186" height="35" rx="5"/><rect class="cls-3" width="186" height="35" rx="5"/><path class="cls-1" d="M17.15,17.05a11.8,11.8,0,0,1-1.48,3L15,19.63a13.24,13.24,0,0,0,1.21-2.54,16.51,16.51,0,0,0,.84-2.83H15.64l0-.79h1.49V10.74h1v2.73h1v.79h-1v1.41c.34.44.79,1,1.32,1.59L19,18a8.3,8.3,0,0,1-.81-1.06v6.27h-1Zm1.92,5.71-.27-.86c.26-.08.58-.18.94-.32V11.1H23V17H20.69v4.18l1.46-.63c-.18-.71-.36-1.42-.55-2.11l.83-.25c.14.39.45,1.52.92,3.39l-.89.28c0-.08-.06-.26-.13-.54C21.25,21.88,20.17,22.35,19.07,22.76Zm3-10.93H20.69v1.84H22Zm-1.35,2.53v1.88H22V14.36Zm5.48,4.72a8.67,8.67,0,0,1-3,4.09l-.52-.56a11.63,11.63,0,0,0,3.45-5.95H23.63V15.9h.58v-4h-.38V11.1h4.42v.77h-.77V13.3a14,14,0,0,1-.24,2.6h1.08v.76H27c-.07.27-.15.51-.22.71H27v4.5c0,.28.11.41.33.41h.36a.31.31,0,0,0,.34-.22,13,13,0,0,0,.13-1.85l.71.09v1.64c0,.49-.12.79-.37.92a2.43,2.43,0,0,1-1.08.19q-.88,0-1.08-.3a1.27,1.27,0,0,1-.21-.74Zm.13-3.18a14.39,14.39,0,0,0,.2-2.5V11.87H25.16v4Z"/><path class="cls-1" d="M33.79,13.47V12.18H29.64v-.8H42.25v.8H38v1.29h3.45v3.22H35.13c-.11.24-.34.67-.68,1.3h8v.85H40.05a6.4,6.4,0,0,1-2,2.35c1.43.4,2.63.77,3.58,1.13l-.63.81q-1.66-.66-3.9-1.35a11.82,11.82,0,0,1-3.13.93,28.29,28.29,0,0,1-3.65.48l-.2-.81A22.56,22.56,0,0,0,33.6,22a17.4,17.4,0,0,0,2.28-.57,4.68,4.68,0,0,0-.52-.14l-2.48-.46a7.28,7.28,0,0,1-.77-.16.2.2,0,0,1-.09-.09.43.43,0,0,1,0-.17.29.29,0,0,1,0-.09q.41-.58.9-1.47H29.55V18h3.82c.24-.46.45-.9.63-1.3H30.48V13.47Zm0,2.48V14.21H31.5V16Zm3.15,4.91a5.55,5.55,0,0,0,1.9-2H34c-.3.52-.54.92-.72,1.21C33.9,20.18,35.13,20.45,36.94,20.86Zm-2.12-8.68v1.29H37V12.18Zm0,2V16H37V14.21Zm5.61,0H38V16h2.41Z"/><path class="cls-1" d="M48.76,17.29a1.26,1.26,0,1,1,.37.89A1.18,1.18,0,0,1,48.76,17.29Z"/><path class="cls-1" d="M63.92,22.37l.25-.84a4.89,4.89,0,0,0,1.75.32,3.09,3.09,0,0,0,2-.6,2,2,0,0,0,.73-1.7,2.06,2.06,0,0,0-1-1.84,5.07,5.07,0,0,0-2.74-.63,10,10,0,0,0-2.28.26v4.11c0,.87-.66,1.31-2,1.31a3.14,3.14,0,0,1-2-.67,2.08,2.08,0,0,1-.87-1.71,2.91,2.91,0,0,1,1.08-2.13,7.13,7.13,0,0,1,2.69-1.53V14.37H58.16v-.9h3.38V11.26h1.12v2.11h3.57v.9H62.66v2.16a10.71,10.71,0,0,1,2.26-.24,6.39,6.39,0,0,1,3.44.87,2.74,2.74,0,0,1,1.4,2.43,3.11,3.11,0,0,1-1,2.44,3.82,3.82,0,0,1-2.64.87A4.79,4.79,0,0,1,63.92,22.37Zm-2.33-4.7a6.45,6.45,0,0,0-2,1.18,2,2,0,0,0-.8,1.48,1.22,1.22,0,0,0,.58,1.1,2.31,2.31,0,0,0,1.31.38c.59,0,.88-.21.88-.63Zm9-3-.89.63a15.75,15.75,0,0,0-3.35-3.05l.72-.63a15.85,15.85,0,0,1,1.89,1.44A14.66,14.66,0,0,1,70.56,14.7Z"/><path class="cls-1" d="M73.16,15.78v7.39h-1V11.24H77v4.54Zm0-2.59H76V12H73.16Zm2.87.64H73.16v1.24H76Zm.1,7.2v.38h-1V17.1h5.5V21Zm0-.79h3.44V17.85H76.13ZM82.57,23H81l-.16-.95h1.33a.65.65,0,0,0,.42-.16.45.45,0,0,0,.17-.33v-5.8h-4V11.24h5V22a.89.89,0,0,1-.37.71A1.24,1.24,0,0,1,82.57,23Zm-2.81-9.83h3V12h-3Zm3,.64h-3v1.24h3Z"/><path class="cls-1" d="M91.89,18.68a12.59,12.59,0,0,1-.73,1.59,9.81,9.81,0,0,1-1,1.56,1.43,1.43,0,0,1-1.08.62,1.13,1.13,0,0,1-.61-.16,3.84,3.84,0,0,1-.7-.63,4.75,4.75,0,0,1-.79-1.3,8.27,8.27,0,0,1-.53-1.73,9.69,9.69,0,0,1-.17-1.75,19.6,19.6,0,0,1,.16-2.17c.11-1,.17-1.7.18-2.15h1.14c0,.41-.09,1.13-.21,2.15a17.49,17.49,0,0,0-.18,2.16A8.79,8.79,0,0,0,87.59,19a5.18,5.18,0,0,0,.73,1.63c.32.45.55.68.69.68s.56-.32,1-1a15.45,15.45,0,0,0,1.08-2.11Zm6.26,2-1.15,0V20.6a12,12,0,0,0-.66-3.94,11.18,11.18,0,0,0-1.87-3.41l.84-.54A11.93,11.93,0,0,1,98.15,20.69Z"/><path class="cls-1" d="M112.34,16.29a15.73,15.73,0,0,1-3.3-2A17.36,17.36,0,0,1,106,11.46a13.6,13.6,0,0,1-2.75,2.71,16.45,16.45,0,0,1-3.63,2.2l-.46-.75a18.23,18.23,0,0,0,3.49-2.22,12.34,12.34,0,0,0,2.55-2.62h1.51a14.19,14.19,0,0,0,2.9,2.72,15.24,15.24,0,0,0,3.32,1.91Zm-2.54,6.07h-7.71V23H101V17.72h9.86V23H109.8Zm-7.71-.83h7.71v-3h-7.71Zm7.49-5.69h-7.12V15h7.12Z"/><path class="cls-1" d="M116.4,17.84c-.5.76-1.28,1.88-2.33,3.36l-.72-.7a25.73,25.73,0,0,0,1.7-2.34,19.33,19.33,0,0,0,1.35-2.37V14.21h-2.52v-.89h2.52V11.09h1v4a9,9,0,0,1,2.38-1.66,5.68,5.68,0,0,1,2.47-.61,3.9,3.9,0,0,1,3,1.24,4.31,4.31,0,0,1,1.17,3.08,5.25,5.25,0,0,1-1.4,3.77q-1.41,1.45-4.75,1.75l-.23-.92c3.52-.24,5.27-1.76,5.27-4.58a3.74,3.74,0,0,0-.83-2.39,2.64,2.64,0,0,0-2.09-1.05,5.37,5.37,0,0,0-2.58.72,8.48,8.48,0,0,0-2.36,1.88v6.5h-1Z"/><path class="cls-1" d="M138.87,22.63c-1.12,0-2.23.06-3.35.06a24.69,24.69,0,0,1-3.45-.16,2.57,2.57,0,0,1-1.56-.76,2.69,2.69,0,0,1-.56-1.86V15.44h-2.12v-.89H130V11.68H131v2.87h6.15c0-1.16,0-2.14-.12-3l1.06-.08c.08.83.13,1.77.13,2.8v.24h2.2v.89h-2.22c0,.72-.07,1.45-.13,2.19a2.34,2.34,0,0,1-.5,1.49,1.52,1.52,0,0,1-1.08.37,5,5,0,0,1-2.64-1.16l.4-.8a4.38,4.38,0,0,0,2.11.93c.32,0,.53-.2.61-.58a15.67,15.67,0,0,0,.17-2.44H131V19.9a1.68,1.68,0,0,0,.39,1.23,2.1,2.1,0,0,0,1.25.49,29.46,29.46,0,0,0,3.26.11c1.17,0,2.15,0,2.94-.11Z"/><path class="cls-1" d="M141.92,23.12l-.32-.8a5.52,5.52,0,0,0,3.07-1.81,5.12,5.12,0,0,0,1-3.3v0h-3.87v-.8h5.72V13.64h-3.28A10.45,10.45,0,0,1,143,15.41l-.76-.5a11.56,11.56,0,0,0,1.19-1.81,11.24,11.24,0,0,0,.94-2.08l1,.22a10.71,10.71,0,0,1-.65,1.56h2.81V10.73h1.09V12.8h4.93v.84h-4.93v2.74h5.6v.8H150v4.21a.68.68,0,0,0,.13.42c.1.12.34.19.74.21l.76.05a8.13,8.13,0,0,0,.84-.06.83.83,0,0,0,.47-.17.64.64,0,0,0,.23-.39s.05-.6.12-1.7l.88.12v1.86a1,1,0,0,1-.09.43,1,1,0,0,1-.22.33,1.08,1.08,0,0,1-.32.22,1.26,1.26,0,0,1-.34.13c-.13,0-.45.05-1,.07l-1,0a3.67,3.67,0,0,1-2-.31,1.11,1.11,0,0,1-.36-.89V17.18h-2.2a6.15,6.15,0,0,1-1.22,3.89A6.11,6.11,0,0,1,141.92,23.12Z"/><polygon class="cls-1" points="166 15 176 15 171 20 166 15"/></svg>