<svg xmlns="http://www.w3.org/2000/svg" xmlns:xlink="http://www.w3.org/1999/xlink" viewBox="0 0 186 35"><defs><style>.e722ce5f-db80-408c-89a1-e1aa441fda64{fill:#fff;}.be748d17-43e8-4cdf-9bf9-327bb46b662a{fill:#00b4dc;}.ed8b2186-3231-4b15-89cd-daf69e65fae6{fill:url(#a98b1094-cd3f-486f-8326-862b1e49bc58);}</style><linearGradient id="a98b1094-cd3f-486f-8326-862b1e49bc58" x1="93" y1="35" x2="93" gradientUnits="userSpaceOnUse"><stop offset="0" stop-opacity="0.15"/><stop offset="0.15" stop-opacity="0.08"/><stop offset="1" stop-opacity="0"/></linearGradient></defs><title>booth_link_contact2</title><g id="af9cc549-1702-4da6-8b48-bed3663ab589" data-name="レイヤー 2"><g id="aa66587f-e11b-4207-a892-c23f7a339ede" data-name="コンテンツ"><rect class="e722ce5f-db80-408c-89a1-e1aa441fda64" width="186" height="35" rx="10"/><rect class="be748d17-43e8-4cdf-9bf9-327bb46b662a" width="186" height="35" rx="5"/><rect class="ed8b2186-3231-4b15-89cd-daf69e65fae6" width="186" height="35" rx="5"/><polygon class="e722ce5f-db80-408c-89a1-e1aa441fda64" points="166 15 176 15 171 20 166 15"/><path class="e722ce5f-db80-408c-89a1-e1aa441fda64" d="M21.92,22.37l.25-.84a4.89,4.89,0,0,0,1.75.32,3.09,3.09,0,0,0,2-.6,2,2,0,0,0,.73-1.7,2.06,2.06,0,0,0-1-1.84,5.07,5.07,0,0,0-2.74-.63,10,10,0,0,0-2.28.26v4.11c0,.87-.66,1.31-2,1.31a3.14,3.14,0,0,1-2-.67,2.08,2.08,0,0,1-.87-1.71,2.91,2.91,0,0,1,1.08-2.13,7.13,7.13,0,0,1,2.69-1.53V14.37H16.16v-.9h3.38V11.26h1.12v2.11h3.57v.9H20.66v2.16a10.71,10.71,0,0,1,2.26-.24,6.39,6.39,0,0,1,3.44.87,2.74,2.74,0,0,1,1.4,2.43,3.11,3.11,0,0,1-1,2.44,3.82,3.82,0,0,1-2.64.87A4.79,4.79,0,0,1,21.92,22.37Zm-2.33-4.7a6.45,6.45,0,0,0-2,1.18,2,2,0,0,0-.8,1.48,1.22,1.22,0,0,0,.58,1.1,2.31,2.31,0,0,0,1.31.38c.59,0,.88-.21.88-.63Zm9-3-.89.63a15.75,15.75,0,0,0-3.35-3.05l.72-.63a15.85,15.85,0,0,1,1.89,1.44A14.66,14.66,0,0,1,28.56,14.7Z"/><path class="e722ce5f-db80-408c-89a1-e1aa441fda64" d="M31.16,15.78v7.39h-1V11.24H35v4.54Zm0-2.59H34V12H31.16Zm2.87.64H31.16v1.24H34Zm.1,7.2v.38h-1V17.1h5.5V21Zm0-.79h3.44V17.85H34.13ZM40.57,23H39l-.16-.95h1.33a.65.65,0,0,0,.42-.16.45.45,0,0,0,.17-.33v-5.8h-4V11.24h5V22a.89.89,0,0,1-.37.71A1.24,1.24,0,0,1,40.57,23Zm-2.81-9.83h3V12h-3Zm3,.64h-3v1.24h3Z"/><path class="e722ce5f-db80-408c-89a1-e1aa441fda64" d="M49.89,18.68a12.59,12.59,0,0,1-.73,1.59,9.81,9.81,0,0,1-1,1.56,1.43,1.43,0,0,1-1.08.62,1.13,1.13,0,0,1-.61-.16,3.61,3.61,0,0,1-.7-.64A4.54,4.54,0,0,1,45,20.36a8.46,8.46,0,0,1-.53-1.73,9.69,9.69,0,0,1-.17-1.75,19.6,19.6,0,0,1,.16-2.17c.11-1,.17-1.7.18-2.15h1.14c0,.41-.09,1.13-.21,2.15a17.49,17.49,0,0,0-.18,2.16A8.79,8.79,0,0,0,45.59,19a5.18,5.18,0,0,0,.73,1.63c.32.45.55.68.69.68s.56-.32,1-1a15.45,15.45,0,0,0,1.08-2.11Zm6.26,2-1.15,0V20.6a12,12,0,0,0-.66-3.94,11.18,11.18,0,0,0-1.87-3.41l.84-.54A11.93,11.93,0,0,1,56.15,20.69Z"/><path class="e722ce5f-db80-408c-89a1-e1aa441fda64" d="M70.34,16.29a15.73,15.73,0,0,1-3.3-2A17.36,17.36,0,0,1,64,11.46a13.6,13.6,0,0,1-2.75,2.71,16.45,16.45,0,0,1-3.63,2.2l-.46-.75a18.23,18.23,0,0,0,3.49-2.22,12.34,12.34,0,0,0,2.55-2.62h1.51a14.19,14.19,0,0,0,2.9,2.72,15.24,15.24,0,0,0,3.32,1.91ZM67.8,22.36H60.09V23H59V17.72h9.86V23H67.8Zm-7.71-.83H67.8v-3H60.09Zm7.49-5.69H60.46V15h7.12Z"/><path class="e722ce5f-db80-408c-89a1-e1aa441fda64" d="M74.4,17.84c-.5.76-1.28,1.88-2.33,3.36l-.72-.7a24.65,24.65,0,0,0,1.7-2.35,18.59,18.59,0,0,0,1.35-2.36V14.21H71.88v-.89H74.4V11.09h1v4a9,9,0,0,1,2.38-1.66,5.68,5.68,0,0,1,2.47-.61,3.9,3.9,0,0,1,3,1.24,4.31,4.31,0,0,1,1.17,3.08A5.25,5.25,0,0,1,83,20.89q-1.41,1.45-4.75,1.75L78,21.72c3.52-.24,5.27-1.76,5.27-4.58a3.74,3.74,0,0,0-.83-2.39,2.64,2.64,0,0,0-2.09-1.05,5.37,5.37,0,0,0-2.58.72,8.48,8.48,0,0,0-2.36,1.88v6.5h-1Z"/><path class="e722ce5f-db80-408c-89a1-e1aa441fda64" d="M96.87,22.63c-1.12,0-2.23.06-3.35.06a24.69,24.69,0,0,1-3.45-.16,2.57,2.57,0,0,1-1.56-.76A2.69,2.69,0,0,1,88,19.91V15.44H85.83v-.89H88V11.68H89v2.87h6.15c0-1.16,0-2.14-.12-3l1.06-.08c.08.83.13,1.77.13,2.8v.24h2.2v.89H96.23c0,.72-.07,1.45-.13,2.19a2.34,2.34,0,0,1-.5,1.49,1.52,1.52,0,0,1-1.08.37,5,5,0,0,1-2.64-1.16l.4-.8a4.38,4.38,0,0,0,2.11.93c.32,0,.53-.2.61-.58a15.67,15.67,0,0,0,.17-2.44H89V19.9a1.68,1.68,0,0,0,.39,1.23,2.1,2.1,0,0,0,1.25.49,32.29,32.29,0,0,0,3.26.11c1.17,0,2.15,0,2.94-.11Z"/><path class="e722ce5f-db80-408c-89a1-e1aa441fda64" d="M99.92,23.12l-.32-.8a5.52,5.52,0,0,0,3.07-1.81,5.12,5.12,0,0,0,1-3.3v0H99.82v-.8h5.72V13.64h-3.28A10.45,10.45,0,0,1,101,15.41l-.76-.5a11.56,11.56,0,0,0,1.19-1.81,11.24,11.24,0,0,0,.94-2.08l1,.22a11.19,11.19,0,0,1-.65,1.56h2.81V10.73h1.09V12.8h4.93v.84h-4.93v2.74h5.6v.8H108v4.21a.68.68,0,0,0,.13.42c.1.12.34.19.74.21l.76.05a8.13,8.13,0,0,0,.84-.06.83.83,0,0,0,.47-.17.64.64,0,0,0,.23-.39s0-.6.12-1.7l.88.12v1.86a1,1,0,0,1-.09.43,1,1,0,0,1-.22.33,1.08,1.08,0,0,1-.32.22,1.26,1.26,0,0,1-.34.13c-.13,0-.45.05-1,.07l-1,0a3.67,3.67,0,0,1-2-.31,1.11,1.11,0,0,1-.36-.89V17.18h-2.2a6.15,6.15,0,0,1-1.22,3.89A6.11,6.11,0,0,1,99.92,23.12Z"/></g></g></svg>