<svg id="レイヤー_1" data-name="レイヤー 1" xmlns="http://www.w3.org/2000/svg" viewBox="0 0 235.33 30"><defs><style>.cls-1{fill:#00b4dc;}</style></defs><title>アートボード 28</title><path class="cls-1" d="M39.75,14.61v2.66H33.54a5.49,5.49,0,0,1-.1.84h9.27v2.76H35.53A14.86,14.86,0,0,0,43,23.8a10.14,10.14,0,0,0-1.89,3.14,17.43,17.43,0,0,1-9.17-5A13.64,13.64,0,0,1,23.19,27a12.28,12.28,0,0,0-1.82-3.08c2.47-.19,5.47-.88,7.25-3.07h-7.3V18.11h8.54c0-.19.08-.41.12-.84H24.3V14.61h5.85v-.92H23.94v-.93H21.2V6.83H30V5l3.82.1c.31,0,.55.12.55.31s-.19.29-.55.48v1h8.9v5.76H40v1.1H33.73c0,.39,0,.68,0,.92Zm-9.6-5H24.58v1.48h5.57Zm3.58,1.48h5.66V9.57H34.31a.28.28,0,0,1,.07.16c0,.29-.32.36-.65.44Z"/><path class="cls-1" d="M59.34,13.81V10.43l3,.22c.36,0,.51.19.51.31s-.34.33-.51.38v1.54L65,12l1.58.65v6a2.65,2.65,0,0,1-1.68,2.76,4.46,4.46,0,0,0,2.76,1.3,6.09,6.09,0,0,1-.53,2.35,3.38,3.38,0,0,1-3,1.65H59c-3.56,0-3.72-2.37-3.72-3.07V18.47l-1.08.34c-.25,6.36-.65,7.82-4.76,8.25a7.2,7.2,0,0,0-.74-3,9.9,9.9,0,0,1-1.44,2.64,8,8,0,0,0-3-1.75,16.33,16.33,0,0,0,2.57-7.46c.1-1.35.1-2.38.07-6.34H44.79v-3h3.46V4.79l3.53.14c.21,0,.6.05.6.39,0,.19-.2.31-.6.45V8.13h2.71V9.69a12.35,12.35,0,0,0,2.25-5L60,5.58c.13,0,.34.1.34.34s-.17.31-.53.45a8.52,8.52,0,0,1-.31.82h7.63V10h-9a21.17,21.17,0,0,1-1.22,2l1.51.07c.29,0,.41.19.41.36s-.15.26-.41.41v1.2Zm-9,2.29a23.65,23.65,0,0,1-1.45,7.44,6,6,0,0,0,1,.12c.72,0,1.06-.6,1.25-2.45a46.11,46.11,0,0,0,.24-5.11Zm0-5V13h3.43a9.17,9.17,0,0,0-1.46-.79,12.49,12.49,0,0,0,1-1.06Zm4.88,3.94V14a8.85,8.85,0,0,0-1.11-.82c0,.75,0,1.47,0,2.19Zm3.14,2.37v4.85a1.29,1.29,0,0,0,1.39,1.32H63c1.42,0,1.54-.72,1.61-2.11a5.73,5.73,0,0,1-1.39.19,6.69,6.69,0,0,0-.87-2.47v2.93h-3v-5Zm3.91-1.24v2.42c1.11,0,1.11-.79,1.11-1.11V15.85Z"/><path class="cls-1" d="M89.58,13.26,91.33,15a34.19,34.19,0,0,1-5.66,7.15,8.29,8.29,0,0,0-2.88-2.33,14,14,0,0,0,3-3.19H81.9V24c0,2.69-1.68,3-5.55,2.93a8.1,8.1,0,0,0-1.17-3.53,9.65,9.65,0,0,0,1.94.19c1,0,1.15-.33,1.15-1.41V16.65H69.06V13.26H79a43.17,43.17,0,0,0-5.23-2.11L76,8.65H71.31V5.58H87l1.34,1.85a34.37,34.37,0,0,1-5.26,4.1,10.16,10.16,0,0,1,1.35.82c-.36.26-.65.46-1.18.91ZM76.28,8.65c.43.17,2.3.82,3.58,1.32a14.43,14.43,0,0,0,1.77-1.32Z"/><path class="cls-1" d="M105.92,16.62h6.31v3.15h-6.31v3.57c.6,0,1.3.05,2.23.05a68.24,68.24,0,0,0,7.4-.41,8.13,8.13,0,0,0-.87,3.75H105.3a8.2,8.2,0,0,1-7.08-3.36A18.16,18.16,0,0,1,96,27.16a7.12,7.12,0,0,0-3.43-1.49,16.69,16.69,0,0,0,4.08-9.94l3.7.65c.21.05.47.1.47.39s-.14.29-.67.48c-.12.6-.24,1.2-.55,2.35a5.2,5.2,0,0,0,2.69,3.12V14.41H96V12.59H93V7h9.1V4.77L105.8,5c.34,0,.65,0,.65.28s-.12.29-.65.53V7H115v5.47h-2.79v1.92h-6.31Zm5.55-5.3V9.93h-15v1.39Z"/><path class="cls-1" d="M134.07,8.05a1.78,1.78,0,0,0,1.2-.38l2.45,1.68a11.63,11.63,0,0,0-1.41,2.88c-2.45,6.07-4.16,10.3-12.53,14.47a14.52,14.52,0,0,0-2.69-3.16c2.57-1,9.38-4,11.28-12h-13.8V8.05Zm-.36-4a15,15,0,0,1,2.19,2.5c-.72.46-.84.53-2,1.37a24.83,24.83,0,0,0-2.16-2.52Zm4.11,0a16.38,16.38,0,0,1,2.11,2.62c-.67.46-1.54,1-2,1.34a15.18,15.18,0,0,0-2.11-2.68Z"/><path class="cls-1" d="M162.44,14v4.08H141.58V14Z"/><path class="cls-1" d="M167.67,10.24V6.64h12.27a6.75,6.75,0,0,0,1.65-.19l1.88,2a6.9,6.9,0,0,0-.92,1.53,40.38,40.38,0,0,1-3,5.88,64.39,64.39,0,0,1,7.2,6.58c-.8.91-2.09,2.35-2.88,3.26a33.23,33.23,0,0,0-6.46-6.84,27.85,27.85,0,0,1-9.22,7.18,10.78,10.78,0,0,0-2.73-3.29,20.19,20.19,0,0,0,7.8-4.8,19.1,19.1,0,0,0,4.8-7.75Z"/><path class="cls-1" d="M210.8,14.05v4H189.13v-4Z"/><path class="cls-1" d="M226.76,26.85c-.67,0-2.3,0-2.3-1.54V23.22h-3.27l1.3.56c.19.09.55.24.55.5s-.48.38-.94.41a13,13,0,0,1-7.82,2.45,8.68,8.68,0,0,0-1.22-2.93,5.25,5.25,0,0,0,.88.09c.7,0,3.63-.21,4.95-1.08h-3.22V14.65h16.8v7a7.13,7.13,0,0,0,2.86,1.27c-.14,1.17-.5,4-2.62,4ZM223.47,7.77V9.23a13.63,13.63,0,0,0,2-4.54l3.29.77c.17,0,.28.12.28.24,0,.29-.35.43-.69.46-.05.19-.14.43-.19.6h6.74V9.54h-8c-.14.22-.31.51-.79,1.18h7.34v2.93h-7.56V11c-.12.19-.43.58-.57.79a8.19,8.19,0,0,0-1.83-1.34v1.08h-3v.86h3.72v1.78H213.34v-9h10.59v1.8h-3.46v.84Zm-5.83,0V6.93h-1.39v.84Zm-1.39,1.44v.84h4.41V9.21Zm0,2.3v.86h1.39v-.86Zm12.89,5.74v-.77H219v.77ZM219,18.49v.82h10.13v-.82Zm0,2.07v.82h10.13v-.82Zm12.26,3.77c.39,0,.58-.27.75-1.11h-4.13v.56c0,.31.12.55.58.55Z"/><rect class="cls-1" width="10" height="30"/></svg>