<svg id="レイヤー_1" data-name="レイヤー 1" xmlns="http://www.w3.org/2000/svg" xmlns:xlink="http://www.w3.org/1999/xlink" viewBox="0 0 220 50"><defs><style>.cls-1{fill:#00b4dc;}.cls-2{fill:url(#名称未設定グラデーション_22);}.cls-3{fill:#fff;}</style><linearGradient id="名称未設定グラデーション_22" x1="110" y1="50" x2="110" gradientUnits="userSpaceOnUse"><stop offset="0" stop-opacity="0.15"/><stop offset="0.15" stop-opacity="0.08"/><stop offset="1" stop-opacity="0"/></linearGradient></defs><title>アートボード 14</title><rect class="cls-1" width="220" height="50" rx="5"/><rect class="cls-2" width="220" height="50" rx="5"/><path class="cls-3" d="M30.29,15l.84.12c.09,0,.33.06.33.21s-.32.22-.48.25c-.27.57-.66,1.2-.78,1.41h3.36v7.37c0,2-.81,2-2.36,2a2.74,2.74,0,0,0-.48-1.32,8,8,0,0,0,1,.09c.65,0,.66-.29.66-.71V18.09h-3.2v1.22c0,.46.16.48.52.48h.81c.28,0,.55,0,.66-1a3.33,3.33,0,0,0,1.06.54c-.31,1.33-.85,1.48-1.55,1.48H29.28c-.77,0-1.3-.13-1.3-1.18V18.09H25.73l.74.23c.21.06.28.1.28.19s-.2.2-.33.21A5.29,5.29,0,0,1,23.8,21.9a2.42,2.42,0,0,0-1-.79,4,4,0,0,0,2.6-3H22.63v8.27H21.4V17H25a9.4,9.4,0,0,0-1.11-1.72L24.8,15H20.71V14h6.16V12.63l1.27.08c.15,0,.35,0,.35.18s-.2.22-.35.27V14h6.23v1ZM25.8,24.89v.55H24.62V21.51h5.74v3.38ZM25.16,15a12.08,12.08,0,0,1,1.1,1.72l-.89.27H28.8a9.8,9.8,0,0,0,1.05-2Zm4,7.45H25.8v1.46h3.4Z"/><path class="cls-3" d="M35.68,16.23v-1h5v1Zm3.64,9.92v-.74h-2v1H36.17v-5H40.4v4.79Zm-2.94-12v-.94h3.81v.94Zm0,4V17.3h3.78v.94Zm0,2.06v-.93h3.78v.93Zm2.94,2.05h-2v2h2Zm9.3-2.62c-.87-.41-2.94-1.41-3.78-3.26a6,6,0,0,1-3.58,3.15,3.06,3.06,0,0,0-.74-1c3.28-1.07,3.55-2.81,3.55-4.92,0-.47,0-.74,0-1.16l1.33.06c.17,0,.29,0,.29.17s-.11.16-.41.27a16.71,16.71,0,0,1-.07,1.72c.75,2.61,3.15,3.54,4.26,3.93A3.22,3.22,0,0,0,48.62,19.73Zm-.06,6.63a8.46,8.46,0,0,1-3.65-3.65,6.76,6.76,0,0,1-3.57,3.68,3.18,3.18,0,0,0-.82-1c3.62-1.55,3.6-3.41,3.55-6.45l1.26.07c.08,0,.27,0,.27.17s-.12.16-.34.24c0,.22,0,1.3,0,1.44a5.29,5.29,0,0,0,.87,1.95,9.1,9.1,0,0,0,3.22,2.52A3.12,3.12,0,0,0,48.56,26.36Zm-5.49-5.84A10.12,10.12,0,0,1,42.33,23a2.81,2.81,0,0,0-1.13-.33,9.26,9.26,0,0,0,.87-2.81l1.17.24c.16,0,.25.09.25.17S43.22,20.51,43.07,20.52Zm0-6.42a12.43,12.43,0,0,1-.67,2.33,2.9,2.9,0,0,0-1.1-.32,9.65,9.65,0,0,0,.75-2.7l1.16.26c.11,0,.25.06.25.22S43.37,14.06,43.1,14.1Zm5.44.12a.56.56,0,0,1-.22,0A15.37,15.37,0,0,1,47,16.13a4.24,4.24,0,0,0-.93-.69,8.89,8.89,0,0,0,1.42-2.21l1.13.62a.21.21,0,0,1,.15.19C48.8,14.18,48.68,14.22,48.54,14.22Zm-.25,6.51a11,11,0,0,1-1.08,1.82,3.6,3.6,0,0,0-1-.54,9.69,9.69,0,0,0,1.22-2.21l1,.51c.08.05.23.12.23.26S48.42,20.75,48.29,20.73Z"/><path class="cls-3" d="M62.27,26H60.12c-1.38,0-1.83-.54-1.83-1.68V21.08h-2.2c.21,0,.45.15.45.3s-.21.19-.43.21a7.46,7.46,0,0,1-4.43,4.81,4.75,4.75,0,0,0-1-1,5.81,5.81,0,0,0,4.28-4.27H52.64v-8h9.61v8H59.57V24c0,.67.18.76.91.76h1.76c.36,0,.76,0,1-2a2.36,2.36,0,0,0,1.16.6C63.93,25.83,63.33,26,62.27,26ZM61,14.22H54v1.22h7Zm0,2.21H54v1.2h7Zm0,2.22H54V20h7Z"/><path class="cls-3" d="M73.11,22.62h2.6v1.16h-2.6v2.59H71.87V23.78H69.32V22.62h2.55V17.7a21.27,21.27,0,0,1-5.44,7.05,3.36,3.36,0,0,0-1.1-.88,19.52,19.52,0,0,0,6-7.1H65.63V15.69h6.24v-3.1l1.21.09c.23,0,.39.09.39.21s-.15.16-.36.25v2.55H79.4v1.08H73.66a19,19,0,0,0,6,6.9,3.2,3.2,0,0,0-1,1,19.59,19.59,0,0,1-5.49-6.86Z"/><path class="cls-3" d="M87.49,15.66l.64.11c.12,0,.38.07.38.21s-.22.21-.38.25v1.41h4.68v5.45c0,1.68-.3,2.13-2.76,2.11a3.65,3.65,0,0,0-.45-1.32,7.43,7.43,0,0,0,1,.08c.76,0,.89-.17.89-1V18.81h-3.4v7.58H86.85V18.81H83.47v6.36H82.19V17.64h4.66v-2H80.61V14.51h6.24V12.68l1.29.06c.18,0,.37.09.37.21s-.23.21-.38.24v1.32h6.24v1.15Z"/><path class="cls-3" d="M102.62,25.52c-3.45,0-5.58-.71-5.58-2.73,0-.9.54-2,2.31-3.47l1,.78c-.31.24-2,1.55-2,2.61a1,1,0,0,0,.52.93,8.69,8.69,0,0,0,3.61.63,19.4,19.4,0,0,0,5.59-.69c.14.63.23,1,.33,1.35A29.86,29.86,0,0,1,102.62,25.52ZM102.28,18c-.11-.12-.58-.55-.86-.84,1.62-1.32,1.92-1.54,2.49-2a34.71,34.71,0,0,1-3.65.16c-1.19,0-1.66,0-2.25-.06l-.1-1.39a22,22,0,0,0,3.56.22,28.07,28.07,0,0,0,4.28-.3l.71,1.16A21.2,21.2,0,0,0,102.28,18Zm5.8-2.26a11.14,11.14,0,0,0-1.46-1.62l.68-.6a12.37,12.37,0,0,1,1.44,1.57A2.72,2.72,0,0,0,108.08,15.71Zm1-1.13a8.32,8.32,0,0,0-1.4-1.63l.65-.57a12.43,12.43,0,0,1,1.47,1.56A2.64,2.64,0,0,0,109.13,14.58Z"/><path class="cls-3" d="M118.1,26.39h-1.19V21a16.48,16.48,0,0,1-5.5,5,3.51,3.51,0,0,0-1-.93,16.19,16.19,0,0,0,5.8-4.68h-5.53V19.34h6.28V15.71h-5.6V14.6h5.6V12.66l1.22.11c.09,0,.33,0,.33.19s-.2.21-.36.26V14.6h5.59v1.11H118.1v3.63h6.24V20.4h-5.58a15.83,15.83,0,0,0,5.59,4.52,3.36,3.36,0,0,0-.87,1,15.1,15.1,0,0,1-5.38-4.77ZM114,15.89a14.37,14.37,0,0,1,1.48,2.77,8.11,8.11,0,0,0-1.11.59,13.43,13.43,0,0,0-1.44-2.81Zm8.15.48c.08,0,.21.09.21.19s-.21.2-.39.21a14.74,14.74,0,0,1-1.26,2.48,7.69,7.69,0,0,0-1.06-.59A14.64,14.64,0,0,0,121,15.83Z"/><path class="cls-3" d="M130.67,21.53c-.7.28-2.61,1.08-4.26,1.65,0,.15,0,.39-.24.39s-.16-.08-.24-.33l-.32-1.14c.71-.17,1.69-.47,2.06-.59V17.19h-1.93V16.05h1.93V12.68l1.23.09c.15,0,.32,0,.32.18s-.17.19-.33.27v2.83h1.9v1.14h-1.9v3.92c.27-.09,1.22-.45,1.9-.77A3.31,3.31,0,0,0,130.67,21.53Zm2.78-1.71c-.2.34-.37.58-.56.91h6c0,1.31-.21,4.28-1,5.15-.21.24-.63.55-2.21.46a3,3,0,0,0-.42-1.29,6.83,6.83,0,0,0,1.13.12c.36,0,.72,0,.93-.93a14.88,14.88,0,0,0,.34-2.5h-.94a14.1,14.1,0,0,1-3.61,4.71,3.37,3.37,0,0,0-1-.65,11.22,11.22,0,0,0,3.46-4.06h-1.14a12.12,12.12,0,0,1-4.25,4.18,2.35,2.35,0,0,0-.86-.73,10.47,10.47,0,0,0,3.93-3.45h-1.23a13.57,13.57,0,0,1-2.11,2,2.93,2.93,0,0,0-.9-.68,10.27,10.27,0,0,0,3.19-3.22h-1.93v-1h9v1Zm-1.82-1.71v-5H138v5Zm5.25-4.1H132.8v1.1h4.08Zm0,2H132.8v1.17h4.08Z"/><path class="cls-3" d="M152,23.64a8.61,8.61,0,0,1-3.58,2,5.75,5.75,0,0,0-.86-1.15c4.47-1,4.94-4.07,4.94-5.28A4.32,4.32,0,0,0,148,14.84a21.66,21.66,0,0,1-1.64,6.91c-.82,1.95-1.54,2.75-2.37,2.75-1.11,0-2.81-1.74-2.81-4.2A6.91,6.91,0,0,1,148,13.65a5.53,5.53,0,0,1,5.86,5.57A6.38,6.38,0,0,1,152,23.64Zm-9.65-3.42c0,1.62.88,2.81,1.53,2.81s1.18-1.43,1.54-2.37A17.59,17.59,0,0,0,146.63,15,5.62,5.62,0,0,0,142.39,20.22Z"/><path class="cls-3" d="M162.12,18.3c-.46.09-2.45.53-2.86.6-1.25.24-1.41.27-3,.54-.05.18-.11.36-.29.36s-.18-.12-.24-.33l-.28-1.11c.34,0,.7-.07,1.9-.25V12.57l1.29.09c.2,0,.31.09.31.2s-.1.16-.36.24v1.65h3.71v1.08h-3.71V17.9c1.69-.29,3.23-.63,3.71-.74A4.33,4.33,0,0,0,162.12,18.3Zm4.16,8.06v-.78h-7.57v.78h-1.28V20.21h3.33a11.44,11.44,0,0,0,.61-1.68l1.28.21c.16,0,.28.09.28.19s-.29.21-.4.21c-.08.17-.39.92-.46,1.07h5.48v6.15Zm0-5.16h-7.57v1.2h7.57Zm0,2.11h-7.57V24.6h7.57Zm1-4.09h-2.65c-1.26,0-1.56-.51-1.56-1.56V12.53l1.34.1c.06,0,.28,0,.28.18s-.17.18-.42.26v2.11a21.11,21.11,0,0,0,3.79-1.71l.83.87a.39.39,0,0,1,.1.24c0,.14-.07.17-.18.17a1.51,1.51,0,0,1-.37-.14,27.14,27.14,0,0,1-4.17,1.68v1c0,.63.1.84.87.84h2.19c.4,0,.72-.13,1-1.48a3.07,3.07,0,0,0,1.08.51C168.9,19.22,168.21,19.22,167.28,19.22Z"/><path class="cls-3" d="M173.74,26.36h-1.07v-7.2a15.25,15.25,0,0,1-1.53,3.75,3,3,0,0,0-.9-.8,15.69,15.69,0,0,0,2.4-5.5h-2v-1h2v-3l1.12.09c.07,0,.34.06.34.19s-.07.15-.35.26v2.43h1.6v1h-1.6v.67a13.43,13.43,0,0,0,2,3.08,3.46,3.46,0,0,0-.81,1,19.54,19.54,0,0,1-1.17-2.59Zm6.64-10h2.89v.94h-2.89v1.11h4.06v1h-4.06v1.16a8.16,8.16,0,0,0,1,1.24,10.38,10.38,0,0,0,1.84-2.19l.86.62c.16.12.18.21.18.25s-.24.15-.42.15a16.19,16.19,0,0,1-1.8,1.85,9.34,9.34,0,0,0,2.67,1.83,3.47,3.47,0,0,0-.74,1,11.12,11.12,0,0,1-3.55-3.16v2.22c0,1.77-.45,2-2.35,2.05a3.76,3.76,0,0,0-.59-1.29,4.54,4.54,0,0,0,1,.08c.74,0,.79-.15.79-.68V22.8c-1.28.81-1.75,1.11-3.08,1.83,0,.15,0,.42-.19.42s-.2-.1-.29-.27l-.53-.93a23.76,23.76,0,0,0,4.09-2.19V19.38h-3.77v-1h3.77V17.28h-2.87v-.94h2.87v-1h-3.65v-1h2.34a9.79,9.79,0,0,0-1-1.49l1-.45A16.08,16.08,0,0,1,179,14.1l-.72.29h2.2a14.58,14.58,0,0,0,1-2l1.11.39c.07,0,.21.12.21.21s-.17.15-.39.17c-.14.25-.32.57-.74,1.2h2.51v1h-3.81Zm-3.3,3.27a12.07,12.07,0,0,1,1.37,1.74,6.33,6.33,0,0,0-.81.64,15.88,15.88,0,0,0-1.46-1.75Z"/><path class="cls-3" d="M198.69,24.33a44.77,44.77,0,0,1-6.41-6.66c-.68-.81-.89-1-1.23-1s-.73.32-1.37,1.17a29.77,29.77,0,0,1-3.32,4.08l-1.09-1.06a24.7,24.7,0,0,0,4.17-4.64c.63-.81,1.14-1,1.59-1,.94,0,1.42.6,2.36,1.76a35.06,35.06,0,0,0,6.22,6.13C199.2,23.63,199.14,23.72,198.69,24.33Z"/><polygon class="cls-3" points="105 35 115 35 110 40 105 35"/></svg>