<svg id="レイヤー_1" data-name="レイヤー 1" xmlns="http://www.w3.org/2000/svg" xmlns:xlink="http://www.w3.org/1999/xlink" viewBox="0 0 220 50"><defs><style>.cls-1{fill:#00b4dc;}.cls-2{fill:url(#名称未設定グラデーション_22);}.cls-3{fill:#fff;}</style><linearGradient id="名称未設定グラデーション_22" x1="110" y1="50" x2="110" gradientUnits="userSpaceOnUse"><stop offset="0" stop-opacity="0.15"/><stop offset="0.15" stop-opacity="0.08"/><stop offset="1" stop-opacity="0"/></linearGradient></defs><title>アートボード 16</title><rect class="cls-1" width="220" height="50" rx="5"/><rect class="cls-2" width="220" height="50" rx="5"/><path class="cls-3" d="M30.29,15l.84.12c.09,0,.33,0,.33.21s-.32.22-.48.25c-.27.57-.66,1.2-.78,1.41h3.36v7.36c0,2-.81,2-2.36,2a2.74,2.74,0,0,0-.48-1.31,7.93,7.93,0,0,0,1,.08c.65,0,.66-.28.66-.7V18.09H29.13v1.22c0,.46.17.47.53.47h.81c.28,0,.55,0,.66-1a3.29,3.29,0,0,0,1.06.53c-.31,1.34-.85,1.49-1.56,1.49H29.28c-.78,0-1.3-.13-1.3-1.18V18.09H25.73l.73.23c.21.05.29.1.29.19s-.2.19-.33.21a5.28,5.28,0,0,1-2.63,3.18,2.31,2.31,0,0,0-1-.79,4,4,0,0,0,2.6-3H22.62v8.27H21.4V17H25a10.39,10.39,0,0,0-1.11-1.73L24.8,15H20.7V14h6.17V12.63l1.27.08c.15,0,.35,0,.35.18s-.2.22-.35.26V14h6.23v1ZM25.8,24.88v.56H24.62V21.51h5.74v3.37ZM25.16,15a11.22,11.22,0,0,1,1.09,1.72l-.88.27H28.8a10.08,10.08,0,0,0,1.05-2Zm4,7.45H25.8v1.45h3.39Z"/><path class="cls-3" d="M35.67,16.23v-1h5v1Zm3.65,9.92v-.74h-2v1H36.17v-5H40.4v4.79Zm-2.94-12v-.94h3.81v.94Zm0,4V17.3h3.78v.94Zm0,2.05v-.93h3.78v.93Zm2.94,2.06h-2v2h2Zm9.3-2.62c-.87-.41-2.94-1.41-3.78-3.26a6,6,0,0,1-3.59,3.15,2.94,2.94,0,0,0-.73-1c3.28-1.07,3.55-2.81,3.55-4.92,0-.47,0-.74,0-1.16l1.33.06c.17,0,.29,0,.29.17s-.11.16-.41.27a16.71,16.71,0,0,1-.07,1.72c.75,2.61,3.15,3.54,4.26,3.93A3.1,3.1,0,0,0,48.62,19.73Zm-.06,6.63a8.52,8.52,0,0,1-3.65-3.65,6.77,6.77,0,0,1-3.57,3.67,3.41,3.41,0,0,0-.82-1c3.61-1.54,3.6-3.4,3.55-6.45l1.26.08c.08,0,.27,0,.27.16s-.12.17-.34.25c0,.22,0,1.3,0,1.43a5.22,5.22,0,0,0,.87,2,9.12,9.12,0,0,0,3.22,2.53A3.12,3.12,0,0,0,48.56,26.36Zm-5.49-5.84A9.82,9.82,0,0,1,42.33,23a3,3,0,0,0-1.14-.33,9,9,0,0,0,.87-2.8l1.17.24c.17,0,.26.09.26.17S43.22,20.51,43.07,20.52Zm0-6.42a12,12,0,0,1-.68,2.33,2.69,2.69,0,0,0-1.09-.32,10,10,0,0,0,.75-2.7l1.15.26c.12,0,.26.06.26.22S43.37,14.06,43.1,14.1Zm5.44.12a.56.56,0,0,1-.22,0A16.12,16.12,0,0,1,47,16.13a4,4,0,0,0-.93-.69,8.89,8.89,0,0,0,1.42-2.21l1.13.62a.21.21,0,0,1,.15.19C48.8,14.18,48.68,14.22,48.54,14.22Zm-.25,6.51a11,11,0,0,1-1.08,1.81,3.88,3.88,0,0,0-1-.54,9.53,9.53,0,0,0,1.22-2.2l1,.51c.08.05.23.12.23.26S48.42,20.74,48.29,20.73Z"/><path class="cls-3" d="M58.4,20.82l.72,5.05-1.29.23L57.08,21l-5.72.74-.16-1.23,5.7-.73L56.48,17l-4.19.54-.13-1.23,4.15-.53-.39-2.68,1.32-.15c.09,0,.32,0,.32.15s-.06.17-.24.3l.31,2.22,4-.51.14,1.21-3.95.51.41,2.81,5.44-.69.15,1.23Z"/><path class="cls-3" d="M77.27,18.61A30.43,30.43,0,0,1,74.82,22a6.82,6.82,0,0,0-1.06-.55,12.76,12.76,0,0,0,2.32-3.06l-3.94.81,1.3,6.49L72.32,26,71,19.44l-3.48.72-.3-1.09,3.57-.7-.6-3,1.16-.09c.13,0,.3,0,.3.15s-.06.17-.21.27l.49,2.41,4.38-.85a1.68,1.68,0,0,0,.81-.37l.86.69A8.32,8.32,0,0,0,77.27,18.61Z"/><path class="cls-3" d="M86,17.32a17.39,17.39,0,0,0-4.26-2.86l.78-1.11a20.24,20.24,0,0,1,4.29,2.84A7.67,7.67,0,0,0,86,17.32Zm-2.93,8.1c0,.26,0,.35-.2.35s-.2-.11-.25-.18l-.81-1.35A17.77,17.77,0,0,0,93.3,16a8.58,8.58,0,0,0,.83,1.17C90.77,22.61,85.55,24.56,83.1,25.42Z"/><path class="cls-3" d="M108.81,23.74a49.88,49.88,0,0,1-5.11-5.47c-1.55-1.91-1.71-2.12-2.25-2.12s-.83.4-1.61,1.29-2.55,3-2.92,3.5c0,.15,0,.34-.18.34s-.14-.05-.22-.14l-1-1a15.7,15.7,0,0,0,2.7-2.75c1.75-2.08,2.28-2.58,3.21-2.58s1.51.62,3.07,2.58a35.62,35.62,0,0,0,5.1,5.17A7.89,7.89,0,0,0,108.81,23.74ZM107,15.4a1.34,1.34,0,1,1,1.35-1.34A1.33,1.33,0,0,1,107,15.4Zm0-2.11a.78.78,0,1,0,.78.77A.77.77,0,0,0,107,13.29Z"/><path class="cls-3" d="M111.14,20.16V18.84H123.9v1.32Z"/><path class="cls-3" d="M131,17.32a17.39,17.39,0,0,0-4.26-2.86l.78-1.11a20.24,20.24,0,0,1,4.29,2.84A7.67,7.67,0,0,0,131,17.32Zm-2.93,8.1c0,.26,0,.35-.2.35s-.2-.11-.25-.18l-.81-1.35A17.77,17.77,0,0,0,138.3,16a8.58,8.58,0,0,0,.83,1.17C135.77,22.61,130.55,24.56,128.1,25.42Z"/><path class="cls-3" d="M143.75,25.38l-1.19.36a14.77,14.77,0,0,1-.88-5.43,32.81,32.81,0,0,1,.94-7.26l1.35.51c.24.09.32.15.32.23s-.18.18-.35.21a21.33,21.33,0,0,0-1,6.58,12.94,12.94,0,0,0,.18,2.31,19.2,19.2,0,0,1,1-2.41,2.52,2.52,0,0,0,.74.76A9.79,9.79,0,0,0,143.75,25.38Zm10.05-1a25.21,25.21,0,0,1-3.48.22c-1.86,0-4.22-.18-4.22-2.12a5.07,5.07,0,0,1,.62-2.23l1.17.24a3.42,3.42,0,0,0-.57,1.69c0,1,1.09,1.21,2.91,1.21a15.23,15.23,0,0,0,3.66-.42A8.22,8.22,0,0,0,153.8,24.35Zm-5.63-8.22c-.69,0-1.14,0-1.5-.05V14.82a13.28,13.28,0,0,0,1.52.08,20.36,20.36,0,0,0,4.74-.48c0,.11.12.9.16,1.29A27.44,27.44,0,0,1,148.17,16.13Z"/><path class="cls-3" d="M159.93,24.73a4.53,4.53,0,0,0-.49-1.37c1.81,0,8.16-.08,8.16-4.35,0-.62-.17-3.47-3.77-3.47a20.46,20.46,0,0,0-7.6,2.22l-.66-1.69a15.15,15.15,0,0,0,1.92-.39c4.38-1.22,4.86-1.34,6.52-1.34,3.5,0,5,2.31,5,4.64C169,22.64,165.3,24.51,159.93,24.73Z"/><path class="cls-3" d="M174.44,25.44c-1.38,0-3.09-2.49-3.09-6.6a26.73,26.73,0,0,1,.61-5.05l1.38.42c.2.06.32.09.32.23s-.21.21-.33.21a14.7,14.7,0,0,0-.69,4.49c0,2.63,1.05,4.69,1.83,4.69s1.47-1.9,1.89-2.95a3.76,3.76,0,0,0,.93.84C177,22.56,175.8,25.44,174.44,25.44Zm8.29-2.57a13.09,13.09,0,0,0-2.7-7.61l1.13-.69a15.23,15.23,0,0,1,3,7.72C184.05,22.32,182.88,22.82,182.73,22.87Z"/><path class="cls-3" d="M194.82,16.14c-.79.54-3.18,2.34-3.18,4.84,0,1.92,1.46,3.47,4.65,3.8a8,8,0,0,0-.57,1.41c-2.74-.56-5.4-2.06-5.4-5.19,0-2,1.16-4.06,4.1-5.82-.38,0-6.89.72-8.1,1l-.21-1.62c.29,0,.48,0,.76,0a85.06,85.06,0,0,0,11.82-1.32l.3,1.48A6.86,6.86,0,0,0,194.82,16.14Z"/><polygon class="cls-3" points="105 35 115 35 110 40 105 35"/></svg>