<svg id="レイヤー_1" data-name="レイヤー 1" xmlns="http://www.w3.org/2000/svg" xmlns:xlink="http://www.w3.org/1999/xlink" viewBox="0 0 220 50"><defs><style>.cls-1{fill:#00b4dc;}.cls-2{fill:url(#名称未設定グラデーション_22);}.cls-3{fill:#fff;}</style><linearGradient id="名称未設定グラデーション_22" x1="110" y1="50" x2="110" gradientUnits="userSpaceOnUse"><stop offset="0" stop-opacity="0.15"/><stop offset="0.15" stop-opacity="0.08"/><stop offset="1" stop-opacity="0"/></linearGradient></defs><title>アートボード 15</title><rect class="cls-1" width="220" height="50" rx="5"/><rect class="cls-2" width="220" height="50" rx="5"/><path class="cls-3" d="M35.6,26.39H34.41V21a16.57,16.57,0,0,1-5.5,5,3.8,3.8,0,0,0-1.05-.93,16.27,16.27,0,0,0,5.8-4.68H28.13V19.34h6.28V15.71H28.8V14.6h5.61V12.66l1.22.11c.09,0,.33,0,.33.19s-.2.21-.36.26V14.6h5.59v1.11H35.6v3.63h6.24V20.4H36.26a15.83,15.83,0,0,0,5.59,4.52,3.36,3.36,0,0,0-.87,1,15.1,15.1,0,0,1-5.38-4.77Zm-4.16-10.5a15,15,0,0,1,1.49,2.77,7.57,7.57,0,0,0-1.11.59,14,14,0,0,0-1.44-2.81Zm8.16.48c.08,0,.21.09.21.19s-.21.2-.39.21a15.53,15.53,0,0,1-1.26,2.48,7.69,7.69,0,0,0-1.06-.59,14.64,14.64,0,0,0,1.35-2.83Z"/><path class="cls-3" d="M48.17,21.53c-.71.28-2.61,1.08-4.26,1.65,0,.15,0,.39-.24.39s-.17-.08-.24-.33l-.32-1.14c.71-.17,1.68-.47,2.06-.59V17.19H43.23V16.05h1.94V12.68l1.23.09c.15,0,.31,0,.31.18s-.16.19-.33.27v2.83h1.91v1.14H46.38v3.92c.27-.09,1.23-.45,1.91-.77A3.31,3.31,0,0,0,48.17,21.53Zm2.77-1.71c-.19.34-.36.58-.55.91h6c0,1.31-.21,4.28-1,5.15-.21.24-.63.55-2.21.46a3,3,0,0,0-.42-1.29,6.83,6.83,0,0,0,1.13.12c.36,0,.72,0,.93-.93a14.88,14.88,0,0,0,.34-2.5h-.94a14,14,0,0,1-3.62,4.71,3.25,3.25,0,0,0-.94-.65,11.41,11.41,0,0,0,3.46-4.06H52.05a12.08,12.08,0,0,1-4.26,4.18,2.24,2.24,0,0,0-.85-.73,10.47,10.47,0,0,0,3.93-3.45H49.64a13.23,13.23,0,0,1-2.12,2,2.82,2.82,0,0,0-.9-.68,10.28,10.28,0,0,0,3.2-3.22H47.88v-1h9v1Zm-1.81-1.71v-5H55.5v5ZM54.38,14H50.3v1.1h4.08Zm0,2H50.3v1.17h4.08Z"/><path class="cls-3" d="M71.6,14.64c.15.11.21.14.21.26s-.24.16-.41.15a12.74,12.74,0,0,1-1.83,1.84,15.33,15.33,0,0,0,2.67,1.76,4.68,4.68,0,0,0-.81,1,21.58,21.58,0,0,1-3.73-2.89v1H62.39V17A20.4,20.4,0,0,1,58.65,20a4.61,4.61,0,0,0-.87-1A16.66,16.66,0,0,0,60.65,17a13.19,13.19,0,0,0-1.85-1.53l.81-.79a10,10,0,0,1,1.86,1.53,12.82,12.82,0,0,0,1.7-2.13h-4V13h5.19l.5.53a14,14,0,0,1-2.15,3.09h4.85A11.65,11.65,0,0,1,65.06,13l1.06-.42a9.92,9.92,0,0,0,1.19,2,10.29,10.29,0,0,0,1.59-1.82l.91.62c.15.1.2.12.2.19s-.3.17-.41.15A10.93,10.93,0,0,1,68,15.38a8.44,8.44,0,0,0,.81.84,16.13,16.13,0,0,0,2-2.15Zm.24,10.16v1.09H58.14V24.8h4.61a11.76,11.76,0,0,0-.8-1.7l.95-.33H60.57v-4h8.82v4H67.32l.86.14c.12,0,.42.07.42.24s-.3.19-.48.19a14.08,14.08,0,0,1-.72,1.46Zm-10.05-5v1.93h6.4V19.82Zm4.24,5a12.41,12.41,0,0,0,1-2H63.12A18.45,18.45,0,0,1,64,24.53l-.78.27Z"/><path class="cls-3" d="M76.83,19.34H79V20.4H76.83v4c1.26-.29,1.71-.42,2-.51A3.89,3.89,0,0,0,78.75,25,42.21,42.21,0,0,1,73.83,26c-.06.21-.09.35-.25.35s-.18-.12-.2-.21L73.11,25c.56-.06,1.25-.14,2.57-.38V20.4H73.34V19.34h2.34V17.75H74.1v-.89a4.07,4.07,0,0,1-.36.3,3.51,3.51,0,0,0-.93-.82,8.7,8.7,0,0,0,3.09-3.78L77,12.8c.15,0,.21.09.21.18s-.24.22-.38.24a10.48,10.48,0,0,0,2.43,2.61,3.46,3.46,0,0,0-.84.82,10.43,10.43,0,0,1-2.13-2.53,11.77,11.77,0,0,1-2.07,2.61h4.16v1H76.83Zm-2.28,2a16.59,16.59,0,0,1,.78,2.41,3.64,3.64,0,0,0-1,.38,16,16,0,0,0-.78-2.45Zm4.38,0c.11,0,.2.09.2.18s-.2.2-.38.23a12,12,0,0,1-.7,1.89,3.49,3.49,0,0,0-1-.2A11.84,11.84,0,0,0,77.85,21Zm4.61-.55a5,5,0,0,0,.54.7,10.31,10.31,0,0,0,1.36-2.1l1.07.5c.07,0,.18.12.18.22s-.14.17-.41.2a15.62,15.62,0,0,1-1.44,2,12.89,12.89,0,0,0,2.43,1.89,4.38,4.38,0,0,0-.73,1.12,13.58,13.58,0,0,1-3-2.95v2.52c0,1.39-.8,1.44-2.31,1.44a3.82,3.82,0,0,0-.53-1.28,8.52,8.52,0,0,0,1.08.08c.56,0,.63-.15.63-.53V23.07a16.9,16.9,0,0,1-2.53,1.32c0,.18,0,.42-.23.42s-.18-.15-.19-.21l-.38-1.17a18.5,18.5,0,0,0,3.33-1.36V18.86h-3.3V17.81h5.24V16.43H80v-1h4.34V14.15H79.52V13.07h6v4.74h1.38v1.05H83.54Zm-3-1.29a15.44,15.44,0,0,1,1.15,1.92,3,3,0,0,0-.93.64,10.91,10.91,0,0,0-1.15-2Z"/><path class="cls-3" d="M88.1,16.2v-1h5.73v1Zm4.09,9.93v-.72H89.78v.95H88.67V21.3h4.65v4.83ZM88.85,14.18v-1h4.27v1Zm0,4.05v-1h4.25v1Zm0,2v-1h4.25v1Zm3.33,2.05H89.78v2.06h2.41Zm1.52,3.35V24.54h1.11V16.35l1.24.08c.15,0,.3.09.3.22s-.21.24-.37.29v7.6h1.44V14.25H94V13.16h7.72v1.09H98.6v4h2.8v1.15H98.6v5.1h3.28v1.13Z"/><path class="cls-3" d="M115.07,16.37a18.1,18.1,0,0,1-2.22,4.6,14.32,14.32,0,0,1,1.89,1.92,8,8,0,0,0-.9,1.1,13.58,13.58,0,0,0-1.79-2,15.47,15.47,0,0,1-6.24,4.17,12.41,12.41,0,0,0-.87-1.17,13.45,13.45,0,0,0,6.14-3.84A25.3,25.3,0,0,0,107.91,19l.8-.91a36.11,36.11,0,0,1,3.13,2.08,13.77,13.77,0,0,0,1.67-3.67h-4.64a16.75,16.75,0,0,1-3.61,3.87,4.49,4.49,0,0,0-1-.95,13.43,13.43,0,0,0,5.06-6.67l1.35.4c.21.06.25.12.25.2s-.25.19-.34.19c-.29.54-.63,1.23-1,1.79h4.12a2.89,2.89,0,0,0,1-.15l.66.58A4.2,4.2,0,0,0,115.07,16.37Zm-.72-1.94a14,14,0,0,0-1.41-1.59l.76-.57a13.08,13.08,0,0,1,1.41,1.56A3.09,3.09,0,0,0,114.35,14.43Zm2.05,0A11.65,11.65,0,0,0,115,12.72l.76-.52a13,13,0,0,1,1.46,1.62A4,4,0,0,0,116.4,14.4Z"/><path class="cls-3" d="M130.47,18.15c-.58,2.09-1.93,6.29-6.66,8.21a6.6,6.6,0,0,0-1-1A9.48,9.48,0,0,0,127.4,22a12.52,12.52,0,0,0,2-5.43h-8.74v3.89h-1.34V15.35h4.95V12.9l1.37.09c.25,0,.33.06.33.17s-.24.24-.33.27v1.92h3.51a2.6,2.6,0,0,0,1.08-.15l.79.58C131,16.14,130.58,17.81,130.47,18.15Z"/><path class="cls-3" d="M138.53,17.33a17.24,17.24,0,0,0-4.26-2.87l.78-1.11a20.24,20.24,0,0,1,4.29,2.84A7.59,7.59,0,0,0,138.53,17.33Zm-2.93,8.1c0,.25,0,.34-.21.34s-.19-.1-.24-.18l-.81-1.35A17.74,17.74,0,0,0,145.8,16a8.58,8.58,0,0,0,.83,1.17C143.27,22.61,138.05,24.56,135.6,25.43Z"/><path class="cls-3" d="M151.08,24.12v.8h-1.35V14.7h10.53V24.92h-1.35v-.8Zm7.83-1.21v-7h-7.83v7Z"/><path class="cls-3" d="M163.64,20.16V18.84H176.4v1.32Z"/><path class="cls-3" d="M189.62,21.86a20.94,20.94,0,0,0-5.55-3.81v7.89h-1.35V13l1.36.11c.2,0,.29.06.29.18s-.2.21-.3.22v4.28l.58-.81a23.56,23.56,0,0,1,5.76,3.82A7.2,7.2,0,0,0,189.62,21.86Zm.07-5.09a8.29,8.29,0,0,0-1.57-1.56l.73-.6a12.94,12.94,0,0,1,1.62,1.44A7.05,7.05,0,0,0,189.69,16.77ZM191,15.6a9.77,9.77,0,0,0-1.61-1.48l.71-.6A11,11,0,0,1,191.67,15,3.39,3.39,0,0,0,191,15.6Z"/><polygon class="cls-3" points="105 35 115 35 110 40 105 35"/></svg>