<svg id="レイヤー_1" data-name="レイヤー 1" xmlns="http://www.w3.org/2000/svg" viewBox="0 0 312.72 23.19"><defs><style>.cls-1{fill:#fff;}</style></defs><title>アートボード 17</title><path class="cls-1" d="M15.72,5.18l1.25.2c.55.09.77.12.77.38s-.31.31-.58.34c-.09.24-.26.57-.55,1.15h4.66V19.49c0,2.38-.56,3.38-4.44,3.38,0-.31,0-.45,0-.62A4.27,4.27,0,0,0,16,19.68v1.44H9v.58H5.88V16.11l-.24.12A4.58,4.58,0,0,0,4,14.64V22.9H.48V7.25h5A9,9,0,0,0,4.56,5.5l1.71-.32H0V2.3H9.07V.6L12.7.77c.24,0,.45.07.45.31s-.24.34-.45.43V2.3h9.14V5.18ZM4,10.32v3.39a5.35,5.35,0,0,0,2.55-3.39Zm14,2.62a2.26,2.26,0,0,1-2.21,1.36H12.65c-1.42,0-1.87-.5-1.87-1.63V10.32H8.33l1.27.41c.17,0,.51.17.51.38s0,.27-.65.41a8.67,8.67,0,0,1-2.19,3.53H16v4.46c.48,0,.88.12,1.15.12.74,0,.79-.24.79-.79ZM8.33,5.18A12.29,12.29,0,0,1,9.38,7l-.86.22h4.2a14.1,14.1,0,0,0,1-2.07Zm4.49,12.34H9v1.13h3.79Zm1-7.2v.77c0,.31,0,.53.48.53H15c.46,0,.53-.41.72-1.3Zm4.13,0H15.75a6.77,6.77,0,0,0,2.18,1.15Z"/><path class="cls-1" d="M38.54,2.42c.25,0,.37.1.37.24s-.22.29-.58.44a22.34,22.34,0,0,1-.82,4,8.11,8.11,0,0,0-3.07-.58V7.1H26.38V4.73h8.06V6.41A22.67,22.67,0,0,0,35.3,2ZM34.25,22.49H31.42v-.84H30v1.18H27V14.21h7.23v2.45a11.77,11.77,0,0,0,1.46-4.2l3.08.64c.16,0,.43.15.43.34,0,.36-.48.46-.7.48a19.64,19.64,0,0,1-1.25,4,7.75,7.75,0,0,0-3-.93v3c5.14-1.58,5.09-4.75,5-9.15l3.48.2c.12,0,.36,0,.36.28s-.17.27-.65.41c0,.63,0,1,0,1.78a7.1,7.1,0,0,0,2.09,3.86,13.42,13.42,0,0,0,3.7,2.6,6.89,6.89,0,0,0-2.14,2.68,11.62,11.62,0,0,1-4.8-4.36,9.85,9.85,0,0,1-5.23,4.53,7.3,7.3,0,0,0-1.8-2.33ZM33.6,1.58V3.91H27.55V1.58Zm0,6.34v2.33H27.55V7.92Zm0,3.14v2.33H27.55V11.06Zm-2.18,7.85V16.83H30v2.08ZM42.55.86c.29,0,.48.05.48.27s-.38.38-.67.45c0,.36-.09,2-.09,2.33A5.46,5.46,0,0,0,44,7.25a14.84,14.84,0,0,0,4.37,2.47,8.47,8.47,0,0,0-2.16,2.59A13.38,13.38,0,0,1,41,8.42a10.67,10.67,0,0,1-5,3.84A9,9,0,0,0,34,9.7c4.13-1.35,5.09-3.39,5.09-7.2,0-.7,0-1.11,0-1.76Zm5.19,2.26a.39.39,0,0,1,.24.34c0,.12-.07.28-.34.28a2.52,2.52,0,0,1-.43,0A16,16,0,0,1,45,6.62a10,10,0,0,0-2.55-1.89,13.16,13.16,0,0,0,2.31-3.19Zm-.29,10.25c.24.12.36.21.36.41s-.38.4-.72.43a14.62,14.62,0,0,1-1.58,2.62A9.17,9.17,0,0,0,43,15.12a15.88,15.88,0,0,0,1.68-3.07Z"/><path class="cls-1" d="M67.87,18.43c0,.48.17.87,1,.87h1.73c.65,0,.79-.27.89-.58s.41-1.58.55-2.26a7.07,7.07,0,0,0,3.15,1.59,11.32,11.32,0,0,1-1.08,3.5,2.48,2.48,0,0,1-2.16,1.06H67.49c-1.87,0-3.31-.62-3.31-3V15H61.61l1.18.31c.14.05.4.12.4.41,0,.45-.5.48-.93.5a12.05,12.05,0,0,1-7.39,6.91A9.86,9.86,0,0,0,52,20.26c1.51-.34,5.9-1.32,6.86-5.28H55.34V1.22H71.81V15H67.87Zm.24-13.29V4.3H59.26v.84ZM59.26,7.56v.86h8.85V7.56Zm0,3.38v1h8.85v-1Z"/><path class="cls-1" d="M79.15,7.94V4.78h9.12v-4L91.73,1c.6.05.67.22.67.34s-.09.26-.5.52v3H101V7.94H93.31a22.72,22.72,0,0,0,8.4,9.27A8.11,8.11,0,0,0,99.1,20a28,28,0,0,1-3.65-3.41v2.83H91.9v3.39H88.27V19.39H84.7V16.54A30.09,30.09,0,0,1,81,20a8,8,0,0,0-2.62-2.76,22.09,22.09,0,0,0,8.4-9.27Zm9.12,3.65A26.91,26.91,0,0,1,85,16.15h3.24Zm6.84,4.56a26.33,26.33,0,0,1-3.21-4.51v4.51Z"/><path class="cls-1" d="M118.3,8.23h7.39V18.1c0,1,0,1.87-.84,2.47s-2,.72-4.1.72a8.15,8.15,0,0,0-1.11-3.7,10.47,10.47,0,0,0,1.49.15c.77,0,.91-.17.91-.87V11.62H118.3V22.78h-3.63V11.62H111v9.43h-3.67V8.23h7.34V6.43h-9.12V3.17h9.12V.74l3.82.15c.14,0,.36.07.36.29s-.31.4-.55.45V3.17h9.14V6.43h-8.88c.15.05.29.15.29.29s-.34.38-.55.46Z"/><path class="cls-1" d="M139.66,13.68c-.67.58-1.87,1.82-1.87,2.62,0,1.73,3.28,1.73,4.29,1.73a33.39,33.39,0,0,0,9.63-1.45,18,18,0,0,0,.62,4.09,36.88,36.88,0,0,1-9.38,1.1c-3.75,0-5.24-.41-6.41-.89-.77-.31-3-1.44-3-3.86S136,12.29,137,11.4Zm10.08-7.9a16.82,16.82,0,0,0-6.05,3.92c-.86-.75-1.78-1.52-2.52-2.07.89-.81,1.1-1,1.8-1.56-1.49.12-5.52.34-7.56.29l-.19-4a48.27,48.27,0,0,0,6,.31,45.82,45.82,0,0,0,6.7-.55Zm1-3.74A17.3,17.3,0,0,1,153,4.56a10,10,0,0,0-1.42,1.73,27.3,27.3,0,0,0-2.3-2.67Zm1.85-2a26.23,26.23,0,0,1,2.26,2.35A10,10,0,0,0,153.36,4a20.07,20.07,0,0,0-2.09-2.35Z"/><path class="cls-1" d="M171,22.8h-3.46V16.39a23.83,23.83,0,0,1-7,6.12,8.33,8.33,0,0,0-3.08-2.37A20.61,20.61,0,0,0,165.17,14h-6.91V10.87h4.48a19.5,19.5,0,0,0-1.92-3.55l1.73-1h-3.17V3.24h8.19V.79l3.6.22c.29,0,.53.05.53.36s-.48.41-.67.45V3.24h8.13V6.36H176l1.47.62c.16.08.24.17.24.29,0,.31-.29.36-.48.41a21.17,21.17,0,0,1-1.52,3.19h4.54V14h-7.13a18.7,18.7,0,0,0,7.47,5.81,11.34,11.34,0,0,0-2.55,2.59A18.77,18.77,0,0,1,171,16.25Zm-3.46-11.93V6.36h-3.1a13.26,13.26,0,0,1,2,3.7,12.06,12.06,0,0,0-1.82.81ZM171,6.36v4.51h2.78a17.46,17.46,0,0,0-1.66-.86A18.87,18.87,0,0,0,174,6.36Z"/><path class="cls-1" d="M195,16.11a16.81,16.81,0,0,1-2.84,2.9,6.09,6.09,0,0,0-2.25-1.61c.43-.33.79-.6,1.34-1.08-1.49.65-3.31,1.35-5.25,2,0,.29-.1.63-.36.63s-.34-.31-.39-.55L184.42,15a19.6,19.6,0,0,0,2.71-.5V9.05h-2.47V5.93h2.47v-5l3.55.19c.29,0,.51.05.51.26s-.15.29-.51.46V5.93h2.14V9.05h-2.14v4.37c.58-.24.94-.39,1.51-.65H192V10.34h14.54v2.43h-9.29l-.45.77h9.57c0,2.42-.07,7.22-1.63,8.45-.91.72-2.45.79-4,.79a7.09,7.09,0,0,0-.65-2.59,18.42,18.42,0,0,1-2.85,3,6,6,0,0,0-2.55-1.54,16.79,16.79,0,0,0,5.07-5.54h-1.08a16.85,16.85,0,0,1-6.32,6.36,6.14,6.14,0,0,0-2.11-1.92,14.65,14.65,0,0,0,5.59-4.44Zm-2.19-3.34a10.25,10.25,0,0,0-.16,2.14,16.07,16.07,0,0,0,1.46-2.14Zm12.1-3.22H193.68V1.1h11.21Zm-3.24-5.13V3.6h-4.73v.82Zm-4.73,1.92v.81h4.73V6.34Zm5.67,9.77a26.2,26.2,0,0,1-1.9,3.33,7.89,7.89,0,0,0,.84,0c.48,0,.91,0,1.08-.6a12.62,12.62,0,0,0,.43-2.78Z"/><path class="cls-1" d="M222.41,18.67c5.21-1,6.74-5,6.74-7.49a5.69,5.69,0,0,0-5.54-5.88c-.74,8.79-4.37,15.34-6.91,15.34-1.87,0-5.36-3.17-5.36-7.61A11.78,11.78,0,0,1,223.11,1.85c5.25,0,9.84,3.57,9.84,9.31a11.19,11.19,0,0,1-2.84,7.42,13.29,13.29,0,0,1-5.2,3.48A16,16,0,0,0,222.41,18.67Zm-7.51-5.92c0,1.84,1,3.24,1.53,3.24s1-1.08,1.3-1.71A21.17,21.17,0,0,0,219.58,6,8.16,8.16,0,0,0,214.9,12.75Z"/><path class="cls-1" d="M249,10.8a3.05,3.05,0,0,1-.16-1V.65l3.64.29c.24,0,.41.09.41.26s-.19.34-.62.58V4.1a25.47,25.47,0,0,0,4.34-2.32L259.06,4c.09.1.21.22.21.34a.34.34,0,0,1-.38.33,1.89,1.89,0,0,1-.5-.09,58.43,58.43,0,0,1-6.17,2.69v.76c0,.89.72.89,1.05.89h2.36c.84,0,1.08-1,1.39-2.18a8.31,8.31,0,0,0,2.86,1.29c-.7,4-2.29,4-3.61,4h-5a3.44,3.44,0,0,1-1.87-.55c-.17.36-.48,1-.65,1.37h8.16v9.86h-3.74v-.67h-9.36v.67H240.1V12.87H245a19.86,19.86,0,0,0,.86-1.95c-3.43.62-3.75.67-7.15,1.32-.08.29-.17.51-.39.51s-.29-.25-.33-.46l-.82-3.17c.89,0,1.92-.14,2.69-.26V.72L243.7,1a.33.33,0,0,1,.31.34c0,.21-.22.33-.55.5V3.5h4.7V6.38h-4.7v2c2.64-.41,3.81-.67,4.7-.84a17.62,17.62,0,0,0-.36,3l-.19,0Zm4.23,5.57V15.5h-9.36v.87Zm0,3.14v-.93h-9.36v.93Z"/><path class="cls-1" d="M270.67,18.1a25.38,25.38,0,0,0,6.22-3.22V12.12h-2.5a18.65,18.65,0,0,1,1.85,2.4A17.67,17.67,0,0,0,274,16.23a30.05,30.05,0,0,0-2.18-2.74l1.87-1.37h-2a5.3,5.3,0,0,0,.51.58,5.37,5.37,0,0,0-1.47,2.56c-.45-.59-.72-1-1.08-1.53V22.9H266.5V15.12a14.76,14.76,0,0,1-1.2,2.45A9,9,0,0,0,263,15.38a21.21,21.21,0,0,0,3.07-7.56h-2.4V4.92h2.62v-4l3.31.17c.27,0,.55.1.55.36s-.33.36-.55.41V4.92h1.75v2.9h-1.75v.77A13.3,13.3,0,0,0,271.51,12V9.53h5.38V8.64h-4.06V6.38h4.06V5.5h-5.16V3.07h2.35A9.23,9.23,0,0,0,273,1.54l2.8-1.32a20.42,20.42,0,0,1,1.56,2.44l-.79.41h2.64A17.28,17.28,0,0,0,280.42.41l3.07.91c.29.1.48.19.48.36s-.31.34-.72.34c-.17.31-.19.38-.58,1h2.79V5.5h-5.21v.88h4V8.64h-4v.89H286v2.59h-1.77l1.7,1.39a.46.46,0,0,1,.24.36c0,.36-.41.31-.67.31A13.79,13.79,0,0,1,283,16.8a11.76,11.76,0,0,0,3.6,2.07,6.36,6.36,0,0,0-1.82,2.49,15.83,15.83,0,0,1-4.54-3.74v1.87c0,2.64-.84,3.41-4.61,3.55a8.4,8.4,0,0,0-1.32-3.36,9.47,9.47,0,0,0,1.51.12c1,0,1.06-.26,1.06-.86v-.89c-.48.29-2.06,1.25-4.32,2.4,0,.14.07.77-.27.77s-.43-.31-.57-.65Zm9.58-4.61a8.11,8.11,0,0,0,1,1.49,15.4,15.4,0,0,0,2.21-2.86h-3.19Z"/><path class="cls-1" d="M289.39,13.25a25.8,25.8,0,0,0,5.35-5.59c1.95-2.64,2.6-3.51,4.06-3.51s2.5,1,4.06,3a47.25,47.25,0,0,0,9.86,9.77A23.93,23.93,0,0,0,310,20.55,74.92,74.92,0,0,1,300,9.72c-.19-.24-.84-1-1.3-1s-.84.65-1.18,1.13a43.26,43.26,0,0,1-4.89,6.52Z"/></svg>