<svg id="レイヤー_1" data-name="レイヤー 1" xmlns="http://www.w3.org/2000/svg" viewBox="0 0 286.8 23.31"><defs><style>.cls-1{fill:#fff;}</style></defs><title>アートボード 25</title><path class="cls-1" d="M13.56,22.85H10.1V16.44a23.54,23.54,0,0,1-7,6.12A8.3,8.3,0,0,0,0,20.19,20.58,20.58,0,0,0,7.7,14H.79V10.92H5.28A19.18,19.18,0,0,0,3.36,7.37l1.73-1H1.92V3.29H10.1V.84l3.61.22c.28,0,.52,0,.52.36s-.48.4-.67.45V3.29H21.7V6.41H18.58L20,7c.17.07.24.17.24.29,0,.31-.29.36-.48.41a21.81,21.81,0,0,1-1.51,3.19h4.54V14H15.7a18.67,18.67,0,0,0,7.46,5.81,11.28,11.28,0,0,0-2.54,2.59,18.82,18.82,0,0,1-7.06-6.14ZM10.1,10.92V6.41H7A13.6,13.6,0,0,1,9,10.1a11.91,11.91,0,0,0-1.82.82Zm3.46-4.51v4.51h2.79a15.24,15.24,0,0,0-1.66-.86,18.85,18.85,0,0,0,1.82-3.65Z"/><path class="cls-1" d="M37.51,16.15a16.7,16.7,0,0,1-2.83,2.91,5.94,5.94,0,0,0-2.26-1.61c.44-.34.8-.6,1.35-1.08-1.49.65-3.31,1.34-5.26,2,0,.29-.09.63-.36.63s-.33-.32-.38-.56L27,15.05a19.45,19.45,0,0,0,2.71-.51V9.1H27.19V6h2.47V1l3.56.2c.28,0,.5,0,.5.26s-.14.29-.5.46V6h2.13V9.1H33.22v4.36c.57-.24.93-.38,1.51-.64h-.17V10.39H49.11v2.43H39.82l-.46.76h9.58c0,2.43-.07,7.23-1.63,8.45-.92.72-2.45.8-4,.8a7.08,7.08,0,0,0-.64-2.6,18.13,18.13,0,0,1-2.86,3A6.09,6.09,0,0,0,37.3,21.7a16.79,16.79,0,0,0,5.06-5.55H41.28A16.68,16.68,0,0,1,35,22.51a6.44,6.44,0,0,0-2.11-1.92,14.58,14.58,0,0,0,5.59-4.44Zm-2.18-3.33A10.26,10.26,0,0,0,35.16,15a16.56,16.56,0,0,0,1.47-2.13ZM47.43,9.6H36.22V1.15H47.43ZM44.19,4.46V3.65H39.46v.81ZM39.46,6.38V7.2h4.73V6.38Zm5.66,9.77a26,26,0,0,1-1.89,3.34c.28,0,.55.05.84.05.47,0,.91-.05,1.08-.6a12.73,12.73,0,0,0,.43-2.79Z"/><path class="cls-1" d="M57.1,17.52V11.93a13.37,13.37,0,0,1-2,1.32,12.09,12.09,0,0,0-2.37-2.67,16.66,16.66,0,0,0,3-2.08,16.37,16.37,0,0,0-2-1.54l2.3-2.35a15.46,15.46,0,0,1,2.16,1.51,7.15,7.15,0,0,0,1.44-2H55.32V1.27H63.6l1.08,1.15a19.56,19.56,0,0,1-2.3,4.08H67.3a15.71,15.71,0,0,1-2.84-4.72L67.51.62a15.41,15.41,0,0,0,1,2A11.79,11.79,0,0,0,70,.79l2.52,1.59c.1,0,.26.16.26.28,0,.29-.4.32-.64.32-.8,1-1.44,1.75-1.73,2a7.69,7.69,0,0,0,.65.69,31.69,31.69,0,0,0,2.18-2.59l2.23,1.51c.19.15.43.29.43.46s-.36.33-.72.36a19.05,19.05,0,0,1-2.06,2.16,16.64,16.64,0,0,0,3.38,2.23,11.72,11.72,0,0,0-2.2,2.86c-.36-.22-1.13-.75-2.21-1.59v6.41H70.37a.35.35,0,0,1,.26.34c0,.24-.24.38-.5.41a9.89,9.89,0,0,1-.5,1.31h5.88v2.91H53.71V19.58h6.12c-.09-.28-.45-1.22-.67-1.75l1.18-.31Zm3.57-8.9c-.62.67-.86.93-1.94,1.94H71.4A21.42,21.42,0,0,1,68.91,8.3V9.55H60.67Zm-.12,4.63v1.54h8.09V13.25Zm2.26,4.27c.21.53.38.94.67,1.83l-.86.23h3.24a19.29,19.29,0,0,0,.72-2.06Z"/><path class="cls-1" d="M88.49,9.58H86.74v1.24h2.4v3h-2.4v3.27a14.88,14.88,0,0,0,.84-2.86l2.73.55c.15,0,.36.08.36.31s-.36.34-.69.36c-.1.37-.15.49-.48,1.49a27.92,27.92,0,0,0,4.77-1.7V11.35h-1.7a24,24,0,0,1,1.68,3.07,22.78,22.78,0,0,0-2.59,1.71,20.09,20.09,0,0,0-1.73-3.27l2.45-1.51H89.64V8.52H97.2v-1H91.13V5H97.2V4.08H90V1.15h10.65V8.52h1.47v2.83H99.24l2.67,1.3c.09,0,.26.14.26.33s-.17.29-.62.36a22.18,22.18,0,0,1-2,2.86,18,18,0,0,0,3,2.43,12,12,0,0,0-2,3,20.62,20.62,0,0,1-3.21-3.26v2c0,2.38-1.56,2.38-4.42,2.38a10.91,10.91,0,0,0-1.22-3.25,6.09,6.09,0,0,1-.65.29c0,.46-.07.87-.48.87a.39.39,0,0,1-.29-.27L89.5,17A12,12,0,0,1,89,18.24a9.62,9.62,0,0,0-2.25-.55v1.1c1.75-.33,2.25-.45,2.71-.57a9.48,9.48,0,0,0-.31,3c-3,.67-5.52,1.08-7.85,1.41-.05.36-.12.68-.46.68s-.26-.2-.29-.36L80,19.63c1-.05,2.67-.24,3.55-.33V18.19a15.52,15.52,0,0,0-2.52.87,23.35,23.35,0,0,0-1.22-3.68l2.71-.86a25.52,25.52,0,0,1,1,2.93V13.87H80.4v-3h3.14V9.58H81.67V8.66a8.46,8.46,0,0,0-2.52-2.37A11.07,11.07,0,0,0,83.76.94l3.41.67c.26,0,.36.12.36.26s-.27.41-.55.43a17.6,17.6,0,0,0,3.48,3.34,9.57,9.57,0,0,0-2,1.56ZM87.07,6.77a11.66,11.66,0,0,1-1.8-2.16c-.55.74-.93,1.25-1.7,2.16Zm7.2,11.57c-.6.33-1.48.81-2.2,1.12.21,0,1.36.15,1.51.15.69,0,.69-.48.69-.77Zm3.15-5a2.88,2.88,0,0,1,.17.31,14,14,0,0,0,1.27-2.33H97.42Z"/><path class="cls-1" d="M115.51,4.58V7.13h-9V4.58Zm-5.3,17.09V23h-3.07V14.11h8.11v8.43h-3v-.87Zm4.27-20.16V4h-6.89V1.51Zm0,6.27v2.44h-6.89V7.78Zm0,3.12v2.56h-6.89V10.9Zm-2.28,7.92V16.87h-2v1.95Zm16.25.24v3.07h-12.7V19.06h.63V6.86l3.5.12c.12,0,.48,0,.48.36s-.17.29-.65.46V19.06h1.13V4.49h-5.09v-3h12.32v3h-3.92v4.8h3.53v3.26h-3.53v6.51Z"/><path class="cls-1" d="M142.39,9.29a32.66,32.66,0,0,1,3.77,2.21A23.13,23.13,0,0,0,147.91,8h-5.78a40.65,40.65,0,0,1-4.87,5.37,19.72,19.72,0,0,0-3-2.49A25.17,25.17,0,0,0,142.06.77L145.83,2c.35.12.4.19.4.31s-.24.32-.57.36c-.56,1-.87,1.44-1.23,2h5.33a4.54,4.54,0,0,0,1.63-.26l1.71,1.51c-.19.33-.24.43-.39.74a51.91,51.91,0,0,1-3.57,7.2c1.17,1.13,1.63,1.66,2.13,2.21-1.1,1.42-1.17,1.51-2.35,3.19a20,20,0,0,0-2.09-2.42A24.43,24.43,0,0,1,138,22.66a15.58,15.58,0,0,0-2.48-3.22c4.71-1.56,7-3.26,8.55-5a25.16,25.16,0,0,0-3.94-2.52ZM149.47,0a25,25,0,0,1,2.07,2.57A13.12,13.12,0,0,0,149.47,4a29.42,29.42,0,0,0-2-2.52Zm3.92,0a21.92,21.92,0,0,1,2.16,2.69,10.54,10.54,0,0,1-1,.67c-.22.14-.51.34-1.06.74-1-1.39-1.51-2-2.11-2.76Z"/><path class="cls-1" d="M176.47,4.8a4.32,4.32,0,0,0,1.78-.24l2.38,1.75c-.15.58-.8,3.15-.94,3.67-1.22,4.2-2.62,7.35-5.69,10.25a13.11,13.11,0,0,1-4.27,2.86,12.24,12.24,0,0,0-3-2.81,14.55,14.55,0,0,0,6.53-4.9,19.35,19.35,0,0,0,2.9-7.17H164.64v5.13H160.7V4.8h7.52V1.15l4.1.17c.19,0,.53,0,.53.24s-.36.41-.53.46V4.8Z"/><path class="cls-1" d="M189.46,1.61a22.92,22.92,0,0,1,6,3.93,39.26,39.26,0,0,0-2.33,3.27,24.61,24.61,0,0,0-6-3.84Zm-2,16.58A28.43,28.43,0,0,0,205.35,5.28a15.34,15.34,0,0,0,2.47,3.26,31.66,31.66,0,0,1-7.47,8,40,40,0,0,1-9.89,5.35c0,.26-.12.53-.33.53s-.24-.07-.39-.34Z"/><path class="cls-1" d="M217.85,19.68v1.23h-4V3.79h18.43V20.91h-4V19.68Zm10.42-3.55V7.37H217.85v8.76Z"/><path class="cls-1" d="M259.87,9.89V14H239V9.89Z"/><path class="cls-1" d="M276.43,7.56a39.64,39.64,0,0,1,8.31,5.64,36.3,36.3,0,0,0-2.35,3.48,29.32,29.32,0,0,0-7.4-5.52V22.54h-4.1V1.32l4.1.14c.12,0,.43,0,.43.32s-.26.36-.43.4V9.6Zm5.36-4.25a24.53,24.53,0,0,1,2.44,2.45c-.55.46-1.44,1.18-2,1.63a16.58,16.58,0,0,0-2.36-2.54Zm2.56-1.87a14.5,14.5,0,0,1,2.45,2.42c-.31.24-1.56,1.3-1.8,1.49a28.23,28.23,0,0,0-2.49-2.52Z"/></svg>