<svg id="レイヤー_1" data-name="レイヤー 1" xmlns="http://www.w3.org/2000/svg" viewBox="0 0 294.23 30"><defs><style>.cls-1{fill:#00b4dc;}</style></defs><title>アートボード 21</title><path class="cls-1" d="M31.35,10.29c0-.82,0-1,0-1.59H26.05V5.17h9.17c0,.63-.17,3.39-.17,3.94a17.58,17.58,0,0,0,8.81,15.41,9.51,9.51,0,0,0-3.15,2.62c-3-2.07-7.32-6.58-8.69-12.1-.79,2.69-2.66,7.66-9.07,12.12A10.21,10.21,0,0,0,20,24.47c7.37-4.73,8.64-9.82,9.29-14.57Z"/><path class="cls-1" d="M55.28,20.25a16.5,16.5,0,0,1-2.83,2.9,6.18,6.18,0,0,0-2.26-1.61c.43-.33.79-.6,1.35-1.08-1.49.65-3.31,1.35-5.26,2,0,.28-.1.62-.36.62s-.34-.31-.38-.55l-.82-3.39a17.74,17.74,0,0,0,2.71-.5V13.19H45V10.07h2.47v-5L51,5.27c.29,0,.51.05.51.26s-.14.29-.51.46v4.08h2.14v3.12H51v4.37c.58-.24.94-.38,1.52-.65h-.17V14.49H66.87v2.42H57.59l-.46.77h9.58c0,2.42-.08,7.22-1.64,8.45-.91.72-2.44.79-4,.79a7,7,0,0,0-.64-2.59,19,19,0,0,1-2.86,3,6.07,6.07,0,0,0-2.55-1.54,16.68,16.68,0,0,0,5.07-5.54H59.05a16.76,16.76,0,0,1-6.31,6.36,6.18,6.18,0,0,0-2.12-1.92,14.73,14.73,0,0,0,5.6-4.44ZM53.1,16.91a9.74,9.74,0,0,0-.17,2.14,15.17,15.17,0,0,0,1.46-2.14Zm12.09-3.22H54V5.25H65.19ZM62,8.56V7.74H57.23v.82Zm-4.72,1.92v.81H62v-.81Zm5.66,9.77A26.2,26.2,0,0,1,61,23.58a8,8,0,0,0,.84.05c.48,0,.92-.05,1.08-.6a11.81,11.81,0,0,0,.44-2.78Z"/><path class="cls-1" d="M75.2,6.81c.19.07.31.16.31.33s-.45.34-.67.36a33.17,33.17,0,0,0-1.44,9.24,17.27,17.27,0,0,0,.17,2.4c.31-.45.82-1.22,1.13-1.7a10,10,0,0,0,1.73,2.38,10.56,10.56,0,0,0-2,5.88l-3.21.6a33.8,33.8,0,0,1-1.3-9.68,43,43,0,0,1,1.44-11Zm11.4-.53c.12,0,.31,0,.31.26s-.33.36-.55.39a26.32,26.32,0,0,0-.24,2.88,21.76,21.76,0,0,0,3.55-.89v3.62c-.55.15-1.65.41-3.64.77a39.45,39.45,0,0,0,.38,5.52A13.57,13.57,0,0,1,91,21.3c-.38.7-1.1,2.26-1.63,3.39a8.54,8.54,0,0,0-2.57-1.83c-.1,3.08-3.17,3.44-4.68,3.44-3.6,0-5.4-2-5.4-4.2,0-2.86,2.83-3.94,6-3.87-.19-2.74-.21-3.05-.26-4.44-1.37.12-2.36.12-2.76.12a17.38,17.38,0,0,1-1.78-.07V10.07a25.61,25.61,0,0,0,4.51.17c0-1,0-3.12,0-4.68Zm-5,14.88c-.53,0-1.68.17-1.68.91s.8.89,1.56.89c.2,0,1.64,0,1.64-1.18a.63.63,0,0,0-.05-.31A3.43,3.43,0,0,0,81.63,21.16Z"/><path class="cls-1" d="M96.46,21.62V16a13.19,13.19,0,0,1-1.94,1.32,12,12,0,0,0-2.38-2.66,16.5,16.5,0,0,0,3-2.09,17.48,17.48,0,0,0-2-1.54L95.53,8.7a17.07,17.07,0,0,1,2.16,1.51,7.09,7.09,0,0,0,1.44-2H94.69V5.37H103l1.08,1.15a19,19,0,0,1-2.31,4.08h4.93a15.88,15.88,0,0,1-2.84-4.73l3-1.15a15.36,15.36,0,0,0,1,2,11.74,11.74,0,0,0,1.47-1.82l2.52,1.58c.09,0,.26.17.26.29,0,.29-.41.31-.65.31-.79,1-1.44,1.75-1.72,2,.26.31.45.5.64.7a30.06,30.06,0,0,0,2.19-2.6l2.23,1.52c.19.14.43.28.43.45s-.36.34-.72.36a19.05,19.05,0,0,1-2.06,2.16,17.17,17.17,0,0,0,3.38,2.24,11.91,11.91,0,0,0-2.21,2.85c-.36-.22-1.12-.74-2.2-1.58v6.41h-1.73c.17.07.26.16.26.33s-.24.39-.5.41a8.87,8.87,0,0,1-.51,1.32h5.88v2.9H93.08v-2.9H99.2c-.1-.29-.46-1.22-.67-1.75l1.17-.31ZM100,12.71a26.68,26.68,0,0,1-1.94,1.94h12.67a22.28,22.28,0,0,1-2.5-2.25v1.25H100Zm-.12,4.63v1.54H108V17.34Zm2.26,4.28c.21.52.38.93.67,1.82l-.87.24h3.25a20.09,20.09,0,0,0,.72-2.06Z"/><path class="cls-1" d="M125.46,13.67H123.7v1.25h2.4v3h-2.4v3.26a14.55,14.55,0,0,0,.85-2.85l2.73.55c.15,0,.36.07.36.31s-.36.33-.7.36c-.09.36-.14.48-.47,1.49a28,28,0,0,0,4.77-1.71V15.45h-1.7a24.56,24.56,0,0,1,1.68,3.07,21.18,21.18,0,0,0-2.59,1.7A20.3,20.3,0,0,0,126.9,17l2.45-1.51h-2.74V12.61h7.56v-1H128.1V9.09h6.07V8.17h-7.23V5.25H137.6v7.36h1.47v2.84h-2.86l2.66,1.29a.41.41,0,0,1,.27.34c0,.24-.17.29-.63.36a21.86,21.86,0,0,1-1.94,2.86,18.15,18.15,0,0,0,3,2.42,11.7,11.7,0,0,0-2,3.05,20.69,20.69,0,0,1-3.21-3.27v2c0,2.38-1.56,2.38-4.42,2.38a11.42,11.42,0,0,0-1.22-3.24c-.24.12-.32.14-.65.29,0,.45-.08.86-.48.86a.39.39,0,0,1-.29-.26l-.86-3.46a12.43,12.43,0,0,1-.51,1.23,9,9,0,0,0-2.26-.56v1.11c1.76-.34,2.26-.46,2.72-.58a9.7,9.7,0,0,0-.32,3c-3,.67-5.52,1.08-7.84,1.42-.05.36-.12.67-.46.67s-.26-.19-.29-.36L117,23.73c1-.05,2.66-.24,3.55-.34v-1.1a15.26,15.26,0,0,0-2.52.86,22.89,22.89,0,0,0-1.22-3.67l2.71-.87a26.92,26.92,0,0,1,1,2.93V18h-3.14v-3h3.14V13.67h-1.87v-.91a8.61,8.61,0,0,0-2.52-2.38A11,11,0,0,0,120.73,5l3.41.67c.26,0,.36.12.36.27s-.27.4-.56.43a18.32,18.32,0,0,0,3.49,3.33,10.39,10.39,0,0,0-2,1.56ZM124,10.86a11.35,11.35,0,0,1-1.8-2.16c-.55.75-.93,1.25-1.7,2.16Zm7.2,11.57c-.6.34-1.49.82-2.21,1.13.22,0,1.37.14,1.52.14.69,0,.69-.48.69-.76Zm3.15-5c0,.07.12.22.16.31a13.21,13.21,0,0,0,1.28-2.32h-1.44Z"/><path class="cls-1" d="M146.07,7.62V5.13l3.17.12c.34,0,.55,0,.55.31s-.26.36-.55.45V7.62h4.18v3.17h-4.18v1.44h4.59v3.14h-4.59v1h4.35v7c0,1.59-.44,2.24-3.41,2.26a6.5,6.5,0,0,0-.94-2.66v4h-3.17v-7.4h-1v6.27h-3.36V16.36h4.32v-1h-5.13V12.23h5.13V10.79h-2.4c-.17.34-.29.55-.5.91a12,12,0,0,0-2.91-1,14,14,0,0,0,1.85-5l3,.43c.24,0,.38.14.38.34s-.31.4-.6.48c-.07.26-.14.52-.19.69Zm3.17,14.79a3.48,3.48,0,0,0,.65.07c.55,0,.55-.34.55-.77V19.57h-1.2Zm8.83-14.52c.36,0,.53.09.53.31s-.17.29-.53.48V21.86h-3.4V7.62Zm4.37-2.79c.17,0,.6.05.6.31s-.26.39-.6.58V23.85a2.82,2.82,0,0,1-1.2,2.66c-.69.36-1.05.39-3.65.53a7.26,7.26,0,0,0-1.34-3.38c.26,0,1.51.12,1.75.12.89,0,1-.2,1-.89V5Z"/><path class="cls-1" d="M186.51,9.35c-5.92-.1-11.06,5.23-11.06,9.12,0,2.79,3.53,4.15,6.79,4.23a31.82,31.82,0,0,0-1.8,4.36c-1.94-.52-8.83-2.44-8.83-8.18A11,11,0,0,1,176,10.62a67.37,67.37,0,0,0-9.93,1.51l-.55-4.51a78.07,78.07,0,0,0,10.68-.55,57.12,57.12,0,0,0,9.62-1.75Zm-4,3.41a14.53,14.53,0,0,1,2.23,2.57c-.67.48-1,.74-1.85,1.44a20.22,20.22,0,0,0-2.13-2.72Zm2.52-1.71a15.52,15.52,0,0,1,2.14,2.52c-.6.46-1,.82-1.76,1.49a17.48,17.48,0,0,0-2.13-2.71Z"/><path class="cls-1" d="M202.55,5.34c.38,0,.6.07.6.27s-.29.36-.48.4c0,.44-.08.72-.12,1.68,6.76-.28,7.51-.31,8-.36,0,.51-.07,2.88,0,3.87-4.35-.22-6.17-.22-7.92-.19a19.08,19.08,0,0,0,0,2.66A7.86,7.86,0,0,1,204,18.28a11.34,11.34,0,0,1-5.56,9.26A16.48,16.48,0,0,0,195,25.07c.72-.29,3.55-1.49,4.42-3.45a2.71,2.71,0,0,1-1.9.57,3.21,3.21,0,0,1-2.59-1.08,6,6,0,0,1-1-3.55c0-5.28,4.51-5.11,5-5,0-.77,0-1,0-1.35a66,66,0,0,0-9.58,1.25l-.26-4.05c.55,0,1.46,0,9.74-.51a28.49,28.49,0,0,0-.33-3.05Zm-5.55,12c0,1.59.79,2,1.23,2,.74,0,1.17-1.1,1.17-2.3,0-.56-.12-1.49-1.08-1.49C197.53,15.57,197,16.36,197,17.34Z"/><path class="cls-1" d="M220.26,23.1a3.39,3.39,0,1,1-3.39-3.38A3.4,3.4,0,0,1,220.26,23.1Zm-5.28,0a1.9,1.9,0,1,0,3.79,0,1.9,1.9,0,0,0-3.79,0Z"/><path class="cls-1" d="M237.13,6.37a14.46,14.46,0,0,0,0,19.25L235,27.47a17.12,17.12,0,0,1,0-22.94Z"/><path class="cls-1" d="M257.89,20.9H240.37V18.14h2.3v-3h-3.29V12.42h3.29V10.77c-.5.48-.77.69-1.1,1a10.73,10.73,0,0,0-3-1.66,17.74,17.74,0,0,0,4.85-5.49l3.43,1.13c.12,0,.24.12.24.26,0,.31-.38.38-.55.43a2.79,2.79,0,0,1-.24.31h14.11v3h-2.18v2.71h3.24v2.76h-3.24v3h2.49V20.9h-2.76a24.34,24.34,0,0,1,3.82,4.41,24.08,24.08,0,0,0-3,1.92,19.72,19.72,0,0,0-3.43-4.51Zm-12.51,1.48c.22.12.41.22.41.44s-.17.28-.6.36a23.33,23.33,0,0,1-3.12,4.27,7.7,7.7,0,0,0-2.95-1.92A12.79,12.79,0,0,0,242.7,21Zm.12-10h1.4V9.71h-1.4Zm0,5.72h1.4v-3h-1.4ZM249,21.57a15.92,15.92,0,0,1,1.54,4.7,21.27,21.27,0,0,0-3.51.94,18.85,18.85,0,0,0-1.13-4.83Zm.75-9.15h1.39V9.71h-1.39Zm0,5.72h1.39v-3h-1.39Zm4.17,3.24a16.62,16.62,0,0,1,1.92,4.46,22.87,22.87,0,0,0-3.26,1.1,28.17,28.17,0,0,0-1.75-4.7Zm0-11.67v2.71h1.39V9.71Zm0,5.47v3h1.39v-3Z"/><path class="cls-1" d="M270.73,26.9h-3.34V21.69a15.74,15.74,0,0,1-1.87,2.4,9.06,9.06,0,0,0-2.83-2,14.84,14.84,0,0,0,4.41-6.68h-3.64V12.33h3.93V10.57a15.18,15.18,0,0,0-2.73,1.25,16.56,16.56,0,0,0-1.4-4.25l2.67-1a22.12,22.12,0,0,1,1.46,3.68V4.81l3.27.2c.31,0,.67,0,.67.38s-.39.46-.6.53v6.41H274v3.09h-3a14.13,14.13,0,0,0,3.1,3.41,7.94,7.94,0,0,0-1.75,2.31,17.35,17.35,0,0,1-1.68-1.57ZM275,7.21c.21,0,.48.15.48.32s-.32.36-.53.48a30,30,0,0,1-1.32,3.74,7.38,7.38,0,0,0-2.64-.94,36.5,36.5,0,0,0,1.22-4.34Zm10.15,9.63.58,2.93-2.4.62v6.46H279.9V21.3l-5.74,1.54-.55-3.07,6.29-1.61V9.76a11.49,11.49,0,0,0-1.9,2,21.07,21.07,0,0,0-3-2.93l2-2.28a19.31,19.31,0,0,1,2.88,2.74V4.89l3.38.28c.19,0,.53,0,.53.32s-.26.36-.5.5V17.3Zm-8.42-4.54a20,20,0,0,1,3.07,3.34c-.6.6-1.25,1.3-2.09,2.21a18.43,18.43,0,0,0-2.95-3.32Z"/><path class="cls-1" d="M289.81,4.53a17.09,17.09,0,0,1,0,22.94l-2.11-1.85a14.46,14.46,0,0,0,0-19.25Z"/><rect class="cls-1" width="10" height="30"/></svg>