<svg id="レイヤー_1" data-name="レイヤー 1" xmlns="http://www.w3.org/2000/svg" viewBox="0 0 312 22.3"><defs><style>.cls-1{fill:#fff;}</style></defs><title>アートボード 26</title><path class="cls-1" d="M15.72,4.58l1.25.2c.55.09.77.12.77.38s-.31.31-.58.34c-.09.24-.26.57-.55,1.15h4.66V18.89c0,2.38-.56,3.38-4.44,3.38,0-.31,0-.45,0-.62A4.27,4.27,0,0,0,16,19.08v1.44H9v.58H5.88V15.51l-.24.12A4.58,4.58,0,0,0,4,14V22.3H.48V6.65h5A9,9,0,0,0,4.56,4.9l1.7-.32H0V1.7H9.07V0L12.7.17c.24,0,.45.07.45.31s-.24.34-.45.43V1.7h9.14V4.58ZM4,9.72v3.39A5.3,5.3,0,0,0,6.5,9.72Zm14,2.62a2.27,2.27,0,0,1-2.21,1.37H12.65c-1.42,0-1.87-.51-1.87-1.64V9.72H8.33l1.27.41c.17,0,.51.17.51.38s0,.27-.65.41a8.67,8.67,0,0,1-2.19,3.53H16v4.46c.47.05.88.12,1.15.12.74,0,.79-.24.79-.79ZM8.33,4.58A12.29,12.29,0,0,1,9.38,6.43l-.86.22h4.2a14.1,14.1,0,0,0,1-2.07Zm4.49,12.34H9v1.13h3.79Zm1-7.2v.77c0,.31,0,.53.48.53H15c.46,0,.53-.41.72-1.3Zm4.13,0H15.75a6.57,6.57,0,0,0,2.18,1.15Z"/><path class="cls-1" d="M38.54,1.82c.25,0,.37.1.37.24s-.22.29-.58.44a22.34,22.34,0,0,1-.82,4,8.11,8.11,0,0,0-3.07-.58V6.5H26.38V4.13h8.06V5.81a22.67,22.67,0,0,0,.86-4.42ZM34.25,21.89H31.42v-.84H30v1.18H27V13.61h7.23v2.45a11.77,11.77,0,0,0,1.46-4.2l3.08.64c.16,0,.43.15.43.34,0,.36-.48.46-.7.48a19.64,19.64,0,0,1-1.25,4,7.75,7.75,0,0,0-3-.93v3c5.13-1.58,5.09-4.75,5-9.15l3.48.2c.12,0,.36,0,.36.29s-.17.26-.65.4c0,.63,0,1,0,1.78a7.1,7.1,0,0,0,2.09,3.86,13.42,13.42,0,0,0,3.7,2.6A6.89,6.89,0,0,0,46.08,22a11.62,11.62,0,0,1-4.8-4.36,9.85,9.85,0,0,1-5.23,4.53,7.3,7.3,0,0,0-1.8-2.33ZM33.6,1V3.31H27.55V1Zm0,6.34V9.65H27.55V7.32Zm0,3.14v2.33H27.55V10.46Zm-2.18,7.85V16.23H30v2.08ZM42.55.26c.29,0,.48,0,.48.27s-.38.38-.67.45c0,.36-.09,2-.09,2.33A5.46,5.46,0,0,0,44,6.65a14.84,14.84,0,0,0,4.37,2.47,8.47,8.47,0,0,0-2.16,2.59A13.43,13.43,0,0,1,41,7.83a10.79,10.79,0,0,1-5,3.84A9.07,9.07,0,0,0,34,9.1c4.13-1.35,5.09-3.39,5.09-7.2,0-.7,0-1.11,0-1.76Zm5.19,2.26a.39.39,0,0,1,.24.34c0,.12-.07.28-.34.28a2.52,2.52,0,0,1-.43,0A16,16,0,0,1,45,6a10,10,0,0,0-2.55-1.89A13.16,13.16,0,0,0,44.79.94Zm-.29,10.25c.24.12.36.22.36.41s-.38.4-.72.43a14.62,14.62,0,0,1-1.58,2.62A9.17,9.17,0,0,0,43,14.52a15.88,15.88,0,0,0,1.68-3.07Z"/><path class="cls-1" d="M60.26.91,64.11.38c.16,0,.5,0,.5.24s-.17.36-.36.51l.46,3.12,5.4-.67.4,3.5-5.28.72.36,2.5,8-1,.4,3.53-7.87,1.06,1.1,7.56-3.84.65-1.12-7.71-8.4,1.11-.44-3.6,8.31-1.08L61.37,8.3l-5.86.77-.43-3.6,5.76-.72Z"/><path class="cls-1" d="M85.75,4.78l3.36-.41c.22,0,.51-.07.51.21s-.19.34-.36.46L90,8.52l5.79-1.18a2,2,0,0,0,1.1-.64l2.33,1.75a54,54,0,0,0-4,6.72A22.58,22.58,0,0,0,92,13.66a17.6,17.6,0,0,0,1.76-2.74l-3.2.72,1.83,9.29-3.27.77-1.84-9.32-4.83,1.09-.91-3.27,5.11-1Z"/><path class="cls-1" d="M109.32,1c4,2.06,5.28,3.26,6,3.94-.57.69-.74,1-2.33,3.26a24.61,24.61,0,0,0-6-3.84Zm-2,16.59A28.42,28.42,0,0,0,125.21,4.63a15.43,15.43,0,0,0,2.47,3.27,31.76,31.76,0,0,1-7.46,8,40,40,0,0,1-9.89,5.35c0,.27-.12.53-.34.53s-.24-.07-.38-.34Z"/><path class="cls-1" d="M131.52,11.35c1.61-1.17,2-1.58,5.35-5.37,2.26-2.52,3.15-3.27,4.51-3.27,1.54,0,2.29.91,4,3a60.32,60.32,0,0,0,9.36,9.67c-.92,1.15-2.09,2.85-2.55,3.5a130,130,0,0,1-9.33-10.63C141.87,7,141.53,7,141.24,7c-.55,0-1.32.89-1.9,1.56-1.12,1.33-3.5,4.42-4.27,5.6a.84.84,0,0,1,.07.31.24.24,0,0,1-.21.26.61.61,0,0,1-.41-.24Zm21.12-8.76A2.26,2.26,0,1,1,150.39.34,2.26,2.26,0,0,1,152.64,2.59Zm-3.31,0a1.05,1.05,0,0,0,1.06,1.06,1.06,1.06,0,1,0-1.06-1.06Z"/><path class="cls-1" d="M179.74,9.24v4.08H158.88V9.24Z"/><path class="cls-1" d="M188.52,1c4,2.06,5.28,3.26,6,3.94-.57.69-.74,1-2.33,3.26a24.42,24.42,0,0,0-6.05-3.84Zm-2,16.59A28.42,28.42,0,0,0,204.41,4.63a15.43,15.43,0,0,0,2.47,3.27,31.76,31.76,0,0,1-7.46,8,40,40,0,0,1-9.89,5.35c0,.27-.12.53-.34.53s-.24-.07-.38-.34Z"/><path class="cls-1" d="M217.32,2c.46.17.65.24.65.41s-.48.26-.65.29a27.83,27.83,0,0,0-1.56,9.91,8.35,8.35,0,0,0,.17,1.92c.14-.26.72-1.32,1-1.8a7,7,0,0,0,1.85,2,13.54,13.54,0,0,0-1.59,5.73l-3.41.92a25.45,25.45,0,0,1-1.7-9.6A45.19,45.19,0,0,1,213.63.65Zm6.34,11.28A6.34,6.34,0,0,0,223.3,15c0,1,.57,1.22,3.33,1.22a24.57,24.57,0,0,0,5.93-.65,16.07,16.07,0,0,0-.36,3.91,50.87,50.87,0,0,1-6.07.32c-3.58,0-6.34-.63-6.34-3.56a8.86,8.86,0,0,1,.79-3.52ZM220.75,3.07c.72.05,1.68.12,3.12.12a27.64,27.64,0,0,0,7.06-.77,34,34,0,0,0,.34,3.65,36,36,0,0,1-7.4.72c-1.41,0-2.35-.07-3.12-.12Z"/><path class="cls-1" d="M237.12,4.94a19.84,19.84,0,0,0,3-.57c6.77-1.78,8.4-2.19,11.05-2.19,5.76,0,8.28,3.82,8.28,8,0,9-10.93,9.73-14.79,9.92a15.94,15.94,0,0,0-1.22-3.84c4.32,0,11.95-.12,11.95-6a4.28,4.28,0,0,0-4.68-4.58c-3.58,0-9.51,2.42-12.1,3.89Z"/><path class="cls-1" d="M269.54,2.57c.22.07.48.14.48.36s-.28.36-.5.38a21.67,21.67,0,0,0-1.34,7.23c0,2.93.91,5,1.61,5s1.67-2.12,2.32-3.63a11,11,0,0,0,2.52,2.55c-1.92,4.65-4.1,6.28-5.28,6.28-1.34,0-4.89-2.85-4.89-10.27a42.78,42.78,0,0,1,1.17-9Zm11.6.17A23.94,23.94,0,0,1,286,14.81c-1.42.55-3.12,1.37-3.92,1.78A21.79,21.79,0,0,0,278,4.7Z"/><path class="cls-1" d="M312,4.46c-6.86-.07-10.94,6-10.94,9.08,0,4,5.42,4.27,6.69,4.34A21.34,21.34,0,0,0,306,22.2c-4.2-1-8.83-3.21-8.83-8.37,0-4.42,3.31-7.18,4.25-7.95a82.65,82.65,0,0,0-9.91,1.42L291,2.78c.53,0,1,.08,1.8.08,3.53,0,13.11-.68,18.56-2.38Z"/></svg>