<svg xmlns="http://www.w3.org/2000/svg" viewBox="0 0 269.34 201.62"><defs><style>.cls-1{fill:#fa69b3;}.cls-2{fill:#fa46a1;}.cls-3{fill:#fa99c9;}.cls-4{fill:#29b900;}.cls-5{fill:#6ad000;}.cls-6{fill:#aae700;}</style></defs><g id="レイヤー_5" data-name="レイヤー 5"><polygon class="cls-1" points="193.77 55.84 119.38 55.84 82.4 108.53 230.74 108.53 193.77 55.84"/><polygon class="cls-2" points="156.57 2.82 120.28 54.55 192.87 54.55 156.57 2.82"/><polygon class="cls-3" points="268.39 162.19 231.64 109.82 81.5 109.82 44.76 162.19 268.39 162.19"/><path class="cls-4" d="M121.23,21.46l-2.07,3.38A23.71,23.71,0,0,0,110.22,23c-9.11-.05-15.86,5.23-17.89,12.53,3.22-4.06,8.44-6.66,14.83-6.62a23.68,23.68,0,0,1,8.5,1.65L114.16,33l9-3.22Z"/><path class="cls-5" d="M92.15,44.4a18.18,18.18,0,0,1,.18-8.85,17.07,17.07,0,0,0-3.11,14.57c1.52,6.81,6.52,12.46,12.77,15.51l3.31-5.41C98.86,57.18,93.69,51.4,92.15,44.4Z"/><path class="cls-5" d="M84,84.44l-2.07,3.38A23.52,23.52,0,0,0,73,86c-9.11,0-15.86,5.23-17.9,12.53,3.23-4.07,8.45-6.66,14.84-6.62a23.62,23.62,0,0,1,8.49,1.64L76.89,96l9-3.21Z"/><path class="cls-6" d="M54.88,107.38a18.3,18.3,0,0,1,.17-8.85A17.1,17.1,0,0,0,52,113.1c1.52,6.8,6.51,12.45,12.76,15.51L68,123.2C61.58,120.16,56.42,114.38,54.88,107.38Z"/><polygon class="cls-4" points="177.46 167.34 156.57 154.48 135.69 167.34 146.29 167.34 146.29 179.54 166.85 179.54 166.85 167.34 177.46 167.34"/><path d="M142.73,19.21c-1.83-.66-2.67-1.52-2.67-3.18,0-1.82,1.5-3.32,4-3.32,2.06,0,3.43.74,4.07,2.33l-1.63,1.17a2.37,2.37,0,0,0-2.36-1.65c-1.26,0-1.91.61-1.91,1.36s.44,1,1.49,1.4l1.8.58c1.85.64,2.94,1.66,2.94,3.46,0,2.28-1.54,3.63-4.31,3.63a4.43,4.43,0,0,1-4.54-3l1.68-1.12a3.19,3.19,0,0,0,2.86,2.27c1.33,0,2-.61,2-1.51s-.51-1.33-1.75-1.78Z"/><path d="M150.14,18.82c0-3.56,2-6.11,5.27-6.11s5.24,2.57,5.24,6.11-2,6.17-5.24,6.17S150.14,22.45,150.14,18.82Zm8.24,0c0-2.58-1.21-4.19-3-4.19s-3,1.61-3,4.19,1.24,4.25,3,4.25S158.38,21.42,158.38,18.82Z"/><path d="M170.42,24.71l-1.41-7a20.21,20.21,0,0,1-.32-2.57h0a22,22,0,0,1-.31,2.57l-1.38,7h-2.56L161.83,13h2.22l1.46,7.08a18.47,18.47,0,0,1,.21,2.39h0c.05-.66.15-1.73.27-2.36L167.49,13h2.37l1.55,7.1a20.72,20.72,0,0,1,.27,2.32h0c0-.76.1-1.77.19-2.29L173.3,13h2.13L172.9,24.71Z"/><path d="M183.53,24.71,180.07,18a18.77,18.77,0,0,1-1-2.75h0c.07.74.28,2.7.28,4.07v5.44h-2.12V13h2.69l3.47,6.71a15.08,15.08,0,0,1,1.11,2.68l.06,0a33,33,0,0,1-.31-3.8V13h2.1V24.71Z"/><path d="M142.11,43.45c4.69-1,7.63-4.1,8.16-8.14-2.29,0-7.08,0-9.49.17l0-2.06c1.26,0,3.42.06,5.56.06,2,0,3.89,0,5.09-.06l1.14.86c-.8,5.69-3.55,9.32-8.79,10.88Z"/><path d="M161.94,39.88a6.57,6.57,0,0,1-4.11,5.58L156.38,44c3.53-1.14,4-3.33,4-6.1v-.3l1.82.08q-.08,1-.18,1.8a4.32,4.32,0,0,0,2.78-2.75c-2.87,0-6.16,0-8.47.11l-.05-1.72c1.12.06,2.87.08,4.61.08,2,0,4,0,5-.08l1.2,1a8.58,8.58,0,0,1-3.9,5Z"/><path d="M176.36,45.46c0-1.63.06-3.66.06-5.45V38.42a50.84,50.84,0,0,1-5.07,3l-1.43-1.76c3.57-1.36,8.83-4.76,10.72-7.61l1.88,1.32a28.33,28.33,0,0,1-4,3.62c0,.71,0,1.58,0,2.54,0,1.92,0,4.17.07,6Z"/><path d="M186.5,44a6.43,6.43,0,0,0,4.24-6.35c-2.49,0-4.87,0-5.86.06V35.83c1,0,3.35.06,5.86.06,0-1.06,0-2.27-.09-3.49l2.14,0c-.09,1.22-.12,2.33-.13,3.46,2.19,0,4.28,0,5.32-.06v1.92c-1,0-3.08,0-5.34-.06a8.51,8.51,0,0,1-4.21,7.77Z"/><path d="M201.78,40.36c0-1.58.06-3.29.06-4.86,0-1,0-2,0-2.86l2.06,0c0,.8-.05,1.68-.05,2.63,0,1.62,0,3.38.08,5ZM203.39,44c3.87-.65,5.46-2,5.49-5.24,0-.72,0-1.58,0-2.51,0-1.14,0-2.4-.05-3.66h2.08c-.05,2.13-.06,4.48-.06,6.11,0,3-1.22,5.89-5.85,7.12Z"/><path d="M226.07,44.91A22.08,22.08,0,0,0,221.79,41a21.8,21.8,0,0,1-5.36,4.1l-1.74-1.58a15.78,15.78,0,0,0,8.69-8.26c-2,0-5.21,0-6.74.14l0-2.06c1,0,2.36.08,3.83.08s3.07,0,4.46-.08l1.14,1a22.51,22.51,0,0,1-3,5.25,43.75,43.75,0,0,1,4.84,3.77Z"/><path d="M233.87,45.61c.06-1.68.09-5,.09-8,0-2.37,0-4.52-.05-5.48l2.11,0c0,.89-.06,2.93-.06,5.27l1.09-1.14a46,46,0,0,1,5.17,2.79l-1.16,1.79a30.83,30.83,0,0,0-5.1-3V40c0,2.21,0,4.32,0,5.57Z"/><path d="M86.93,142.33v-14.9h4.84v1.67h-3v13.23Z"/><path d="M100.48,142.33a4.72,4.72,0,0,1-4.07-1.61,5.41,5.41,0,0,1-1.66,1.93l-1.29-1.84a5.13,5.13,0,0,0,1.79-1.61v-3.87H93.68v-2.05h3.61v5.46a2.67,2.67,0,0,0,1.92,1.44l-.91-1.69a9.68,9.68,0,0,0,2.78-.57H97.91V136.3h2.28v-.76h-2V134h2v-.6H99.7c-1.23,0-1.52-.15-1.52-1.11V130h2.59v-.69H98.22v-1.55h4.45v3.53h-1l1.47.65c-.2,1.25-.42,1.5-.92,1.5v.6h2v-.7a.81.81,0,0,1-.88-.92V130h2.76v-.69h-2.73v-1.55H108v3.53h-1l1.47.65c-.31,1.33-.55,1.5-1.57,1.5h-.65v.6h2v1.54h-2v.76h2.35v1.62h-3a22.06,22.06,0,0,1,2.92.69l-1,1.58h1.37l-.7,2.15Zm-4.65-10.75a17.94,17.94,0,0,0-2.2-2.71l1.63-1.37a17.22,17.22,0,0,1,2.1,2.78Zm9.14,6.34h-3.34l1,1a8.49,8.49,0,0,1-3,1.31,6.88,6.88,0,0,0,1,.06l6.56-.07c-1.58-.67-3.17-1.2-3.17-1.2Zm-4.91-6.67v.5c0,.2,0,.29.15.29h.7c.31,0,.41-.09.44-.79Zm4.14,4.29h-2v.76h2Zm1-4.29v.52c0,.22,0,.27.21.27h.7c.36,0,.49-.1.56-.79Z"/><path d="M122.2,139.14h-7.27a10.54,10.54,0,0,1-.94,1.7l-2-1a11.8,11.8,0,0,0,2-3.82,18.56,18.56,0,0,1-2.63.77l-.79-2.2a30.26,30.26,0,0,0,6.81-1.4h-6.41v-1.91h5.63v-.94h-4.15v-1.88h4.15v-1.11h2.11v1.11h3.4v1.3a13.15,13.15,0,0,0,1.38-1.76l1.77,1.16a10.29,10.29,0,0,1-2,2.12h2.43v1.91H121a28.89,28.89,0,0,1-4.93,2.11A79.93,79.93,0,0,0,124.4,134l.83,1.92s-4.66.69-9.45,1a1.78,1.78,0,0,1-.1.36h8.63v1.69c0,3.6-.14,3.74-6.52,3.74l-.76-2h3.82c1.16,0,1.35-.11,1.35-1Zm-3.52-8.84v.94h1.47a7.38,7.38,0,0,0,1.26-.94Z"/><path d="M140.46,142.67v-.92H130.05v.92h-2v-7.22h2v4.25h4.17v-5.32h-5.67v-5.77h2v3.72h3.62v-5h2v5h3.62v-3.72h2.05v5.77h-5.67v5.32h4.2v-4.25h2v7.22Z"/><path d="M158.88,142.65a11.79,11.79,0,0,1-6.47-4.85h-1.17v2.29a18.43,18.43,0,0,0,2.23-.58v1.93a33.7,33.7,0,0,1-5.56,1.16l-.48-2s.91-.07,1.76-.19V137.8h-1.74a13.19,13.19,0,0,1-1.21,4.88l-1.61-1.86c.74-1.89.94-4.19.94-7.89v-5.22h13.8v4.43h-2.71v1h2.53V135h-2.53v1h3v1.8h-4.95a7.83,7.83,0,0,0,1.57,1.39,5.43,5.43,0,0,0,1.38-1.33l1.76.92a5.48,5.48,0,0,1-1.55,1.33,14.37,14.37,0,0,0,2.18.7Zm-8.7-7.69H148.1v-1.81h2.08v-1h-2.56V133c0,1,0,2.1-.05,3h2.61Zm7.13-5.46h-9.69v.95h9.69Zm-2.63,2.64h-2.52v1h2.52Zm0,2.82h-2.52v1h2.52Z"/><path d="M161.69,142.53v-1.67h3V127.64h1.87v14.89Z"/><path d="M181.74,130.54V133a45.63,45.63,0,0,1-.44,6.6,18.93,18.93,0,0,0,1.37-5.68l1.91.63a25.85,25.85,0,0,1-1.45,6.43l-1.83-1.22a9.57,9.57,0,0,1-.94,2.91l-1.62-1.86c.74-1.75.94-3.85.94-7.89v-4.47h5.8v-1.15h2.39v1.15h5.82v2.08Zm5.46,11.8c-1.82,0-2.21-.42-2.21-1.82v-7h2.18v6.33c0,.44.1.53.65.53h.92c.75,0,.85-.16.9-2.32l2.1,1c-.27,3-.66,3.27-2.8,3.27Zm1.69-7.66a22.36,22.36,0,0,0-3-2.74l1.47-1.33a24.54,24.54,0,0,1,3.08,2.59Zm3.36,6.38a31.65,31.65,0,0,0-1.82-6.51l1.93-.94a39.63,39.63,0,0,1,1.91,6.38Z"/><path d="M210.62,139.8a9.11,9.11,0,0,1-1.45-.65c-.15,3.07-.51,3.23-4.37,3.28l-.7-1.83h.36c2.7,0,2.77,0,2.77-.73v-.1h-4c-.94,1.51-2.59,2.52-6.09,2.9l-.78-1.9c2.4,0,3.8-.42,4.62-1h-2.08v-.87a16.82,16.82,0,0,1-2.56,1l-.75-1.95a9.73,9.73,0,0,0,3.68-1.19H196V135.3h4.76a3.64,3.64,0,0,0,.39-.6H197v-4.52h2.88v-.67h-3.55v-1.65h3.55v-.55h2v.55H205v-.55h2v.55h3.56v1.65H207v.67h2.9v4.52h-6.5a3.22,3.22,0,0,1-.33.6H211v1.45h-2.52a10.7,10.7,0,0,0,3,1.11Zm-2.76-8.38h-8.79V132h8.79Zm0,1.52h-8.79v.6h8.79Zm-6.06,3.81a10.86,10.86,0,0,1-1.76,1.38h1.79a5.42,5.42,0,0,0,.23-1l2,.07a6.24,6.24,0,0,1-.24.92h3.8a17.73,17.73,0,0,1-1.77-1.38Zm3.19-7.24h-3.07v.67H205Z"/><path d="M225,142.67v-.74h-7.74v.74h-2.05v-5.1a14.84,14.84,0,0,1-1.5.51l-.94-2.05a38.56,38.56,0,0,0,7.39-2.11h-7V132h5.94v-1.31h-4.59v-1.9h4.59v-1.5h2.13v1.5h3.28v1.59a24.34,24.34,0,0,0,1.48-2.3l1.79,1.14a14.79,14.79,0,0,1-2.27,2.78h2.58v1.9h-4.74a17.31,17.31,0,0,1-2.24,1.19h6v7.56Zm0-5.84h-7.74v.89H225Zm0,2.44h-7.74v1H225Zm-3.82-8.56V132h1.59a10.05,10.05,0,0,0,1.41-1.31Z"/><path d="M121.55,80.8V67.69h4.26v1.47H123.2V80.8Z"/><path d="M133.48,80.8a4.19,4.19,0,0,1-3.59-1.41,4.67,4.67,0,0,1-1.46,1.69l-1.14-1.62a4.4,4.4,0,0,0,1.58-1.41V74.64h-1.38v-1.8h3.18v4.81a2.34,2.34,0,0,0,1.68,1.26l-.79-1.49a8.46,8.46,0,0,0,2.44-.49h-2.79V75.5h2v-.68H131.5V73.47h1.72V73h-.43c-1.08,0-1.34-.14-1.34-1V69.91h2.28v-.6h-2.25V68h3.92v3.1h-.9l1.29.58c-.18,1.09-.37,1.32-.81,1.32v.52h1.77v-.61a.72.72,0,0,1-.78-.81V69.91h2.43v-.6H136V68h4.07v3.1h-.9l1.29.58C140.19,72.8,140,73,139.08,73h-.57v.52h1.73v1.35h-1.73v.68h2.07v1.43h-2.66a19.52,19.52,0,0,1,2.57.6l-.87,1.39h1.2l-.61,1.89Zm-4.1-9.46A15.73,15.73,0,0,0,127.44,69l1.44-1.2a15.61,15.61,0,0,1,1.85,2.45Zm8.05,5.59h-3l.88.88A7.72,7.72,0,0,1,132.68,79a8,8,0,0,0,.89,0l5.78-.06c-1.4-.58-2.79-1-2.79-1Zm-4.33-5.88v.44c0,.18,0,.26.14.26h.61c.27,0,.36-.08.39-.7Zm3.65,3.77H135v.68h1.77Zm.87-3.77v.45c0,.2,0,.25.18.25h.62c.31,0,.43-.1.49-.7Z"/><path d="M152.59,78h-6.4a8.49,8.49,0,0,1-.83,1.5l-1.75-.91a10.27,10.27,0,0,0,1.72-3.37,16,16,0,0,1-2.31.68L142.33,74a26.4,26.4,0,0,0,6-1.23h-5.64V71h4.95v-.83H144V68.56h3.65v-1h1.86v1h3V69.7a10,10,0,0,0,1.22-1.54l1.56,1A9.11,9.11,0,0,1,153.52,71h2.13v1.68h-4.12a24.84,24.84,0,0,1-4.34,1.86,69,69,0,0,0,7.33-1.14l.74,1.7s-4.1.6-8.32.87a2.54,2.54,0,0,1-.09.31h7.6v1.49c0,3.17-.12,3.29-5.74,3.29L148,79.31h3.36c1,0,1.19-.09,1.19-.87Zm-3.1-7.78V71h1.29a6.55,6.55,0,0,0,1.11-.83Z"/><path d="M168.66,81.1v-.81H159.5v.81h-1.8V74.75h1.8v3.74h3.66V73.8h-5V68.73H160V72h3.18V67.59H165V72h3.19V68.73H170V73.8h-5v4.69h3.7V74.75h1.8V81.1Z"/><path d="M184.87,81.08a10.33,10.33,0,0,1-5.69-4.26h-1v2a15.52,15.52,0,0,0,2-.51V80a29.75,29.75,0,0,1-4.9,1l-.42-1.73s.8-.06,1.55-.16V76.82h-1.53a11.5,11.5,0,0,1-1.07,4.29l-1.41-1.63c.65-1.67.83-3.7.83-7v-4.6H185.3v3.91h-2.38v.88h2.22v1.59h-2.22v.92h2.61v1.59h-4.36A7,7,0,0,0,182.55,78a4.67,4.67,0,0,0,1.22-1.17l1.55.81A4.79,4.79,0,0,1,184,78.85a12.09,12.09,0,0,0,1.92.61Zm-7.66-6.77h-1.83V72.72h1.83v-.88H175v.76c0,.9,0,1.85-.05,2.63h2.3Zm6.28-4.8H175v.84h8.53Zm-2.32,2.33H179v.88h2.22Zm0,2.47H179v.92h2.22Z"/><path d="M187.34,81V79.51H190V67.87h1.65V81Z"/><path d="M147.75,93a17.56,17.56,0,0,1-2.23-.89V93.4h-7.71V92a13.24,13.24,0,0,1-2.44,1l-.78-2a9.71,9.71,0,0,0,5.94-3.63h2a9.85,9.85,0,0,0,6,3.63Zm-2.49,7.91v-.69H138v.69h-1.82V94.43h11v6.45Zm0-4.67H138v2.18h7.31Zm-.63-4.61a11,11,0,0,1-3.09-2.7,11.81,11.81,0,0,1-3.08,2.7Z"/><path d="M160.43,100.9v-.53h-3.12v.51h-1.8V95.73s-.29.11-.53.17l-.31-1.16-.32.74a25.85,25.85,0,0,1-.75-2.63v8h-1.8V93.79a16.31,16.31,0,0,1-1.29,3.7L149.83,95a14.52,14.52,0,0,0,1.81-3.56h-1.45V89.74h1.61V87.37h1.8v2.37h1.28v.35a7.09,7.09,0,0,0,2.34-2.72l1.83.43a4.3,4.3,0,0,1-.42.66h3.8V90a9.78,9.78,0,0,1-2,2.93,12.92,12.92,0,0,0,2.9,1.26l-.64,1.7a3.71,3.71,0,0,0-.45-.2v5.23ZM155,94a12.4,12.4,0,0,0,2.66-1.06,9.85,9.85,0,0,1-1.25-1.58c-.45.39-.93.72-.93.72l-.6-1.32v.74h-1.14a8.58,8.58,0,0,0,1.5,2Zm6.35,1.37A15.83,15.83,0,0,1,159,94a12.48,12.48,0,0,1-2.44,1.38Zm-.92,1.53h-3.12v1.86h3.12Zm-3-6.74A9.94,9.94,0,0,0,159,92a7.23,7.23,0,0,0,1.53-1.86Z"/><path d="M175.53,100.88v-.64h-6.82v.64h-1.8V96.39a10.34,10.34,0,0,1-1.32.45l-.82-1.8a34.49,34.49,0,0,0,6.5-1.86h-6.2V91.51h5.22V90.36h-4V88.69h4V87.37h1.88v1.32h2.88v1.4a19.41,19.41,0,0,0,1.31-2l1.57,1a12.94,12.94,0,0,1-2,2.45h2.26v1.67H174a15.69,15.69,0,0,1-2,1h5.27v6.65Zm0-5.13h-6.82v.78h6.82Zm0,2.14h-6.82v.84h6.82Zm-3.36-7.53v1.15h1.39a8.35,8.35,0,0,0,1.25-1.15Z"/><path d="M68.54,197.7v-1.16A5.44,5.44,0,0,1,72,192c1.71-.85,2.28-1.59,2.28-2.41S73.59,188,72.41,188a1.94,1.94,0,0,0-1.86,2.13l-1.92-.49a3.58,3.58,0,0,1,3.88-3.42c2.48,0,3.87,1.33,3.87,3.18,0,1.59-.87,2.78-3.15,3.84-1.33.62-2.34,1.6-2.36,2.58h5.54v1.85Z"/><path d="M78,192.09c0-3.31,1.29-5.84,4.22-5.84s4.22,2.49,4.22,5.84c0,3.52-1.32,5.88-4.22,5.88S78,195.75,78,192.09Zm6.32,0c0-2.36-.7-4-2.1-4s-2.1,1.64-2.1,4,.69,4.07,2.1,4.07S84.33,194.62,84.33,192.09Z"/><path d="M88.31,197.7v-1.16A5.44,5.44,0,0,1,91.72,192c1.71-.85,2.28-1.59,2.28-2.41S93.36,188,92.18,188a1.94,1.94,0,0,0-1.86,2.13l-1.92-.49a3.58,3.58,0,0,1,3.88-3.42c2.48,0,3.87,1.33,3.87,3.18,0,1.59-.87,2.78-3.15,3.84-1.33.62-2.34,1.6-2.37,2.58h5.55v1.85Z"/><path d="M97.78,192.09c0-3.31,1.29-5.84,4.21-5.84s4.23,2.49,4.23,5.84c0,3.52-1.32,5.88-4.23,5.88S97.78,195.75,97.78,192.09Zm6.32,0c0-2.36-.7-4-2.11-4s-2.09,1.64-2.09,4,.69,4.07,2.09,4.07S104.1,194.62,104.1,192.09Z"/><path d="M116,195.61v3.16h-1.83v-3.16h-6.53V194h2.15v-3.52a9.72,9.72,0,0,1-1.15,1.16L107.41,190a9.63,9.63,0,0,0,3.08-4.16l1.93.28a5.21,5.21,0,0,1-.33.74h8.18v1.61H116v1.73h4v1.61h-4V194h4.53v1.61Zm-1.83-7.18h-2.94a13.61,13.61,0,0,1-1.19,1.73h4.13Zm0,3.34h-2.61V194h2.61Z"/><path d="M128.7,189.37a2.21,2.21,0,0,0-2.28-1.43c-1.36,0-2.47,1.06-2.47,3.77a3,3,0,0,1,2.54-1.39c2,0,4,1.12,4,3.68a3.71,3.71,0,0,1-4.07,4c-2.58,0-4.43-1.71-4.43-5.68,0-4.29,1.88-6,4.47-6a3.76,3.76,0,0,1,3.84,2.19Zm-2.35,6.92a2.15,2.15,0,0,0,0-4.3,2.21,2.21,0,0,0-2.22,1.75C124.25,195.38,125.2,196.29,126.35,196.29Z"/><path d="M139.23,196.75h.67c1.57,0,1.66,0,1.66-.84V194.8h-6.29a10.28,10.28,0,0,1-1.35,4l-1.56-1.58c.93-1.55,1.28-3.42,1.28-6.58v-4.41h9.8v9.41c0,2.67-.17,3-3.46,3Zm2.33-5.41H135.5a16.1,16.1,0,0,1-.07,1.74h6.13Zm0-3.4h-6.05v1.68h6.05Z"/><path d="M152.79,195.28a21.54,21.54,0,0,1-6.19,2.92l-.41-1.95a7.72,7.72,0,0,0,1.08-.32v-9.88h1.88v9.18a15.73,15.73,0,0,0,3.4-1.92Zm.1-3.79a26.72,26.72,0,0,0-2.52-3.62l1.43-1.16a31,31,0,0,1,2.68,3.56Zm4.87,7.14a16,16,0,0,0-1.77-3,9.18,9.18,0,0,1-3.17,3.15l-1.23-1.6c3.62-2.14,4.41-4.8,4.45-11.12h1.87a24.5,24.5,0,0,1-1,7.89,33.65,33.65,0,0,1,2.3,3.3Z"/><path d="M172.73,192a11.62,11.62,0,0,1-3.29-.95,11.88,11.88,0,0,1-3.89,1.28l-.68-1.68a11.2,11.2,0,0,0,3.16-.53,7.1,7.1,0,0,1-1-.83,3.67,3.67,0,0,1-.89.87L165,188.8l-.71,2.09a7.84,7.84,0,0,1,.94,3.2c0,1.09-.51,2-2.11,2l-.55-1.59v4.31h-1.68V186.22h4.38v1.63l-.25.89a6.28,6.28,0,0,0,2.35-2.86l1.64.25a2.07,2.07,0,0,1-.18.46h3.84V188a7.6,7.6,0,0,1-1.62,2.08,9.26,9.26,0,0,0,2.39.29Zm-10,2.19c.53,0,.88-.14.88-.7a6.61,6.61,0,0,0-.86-2.5l1-3.16h-1.21v6.36Zm8,3v1.57H169v-1.57h-3.9v-1.59h1.11v-1.37h-.76v-1.61H169v-1h1.72v1h2v1.61h-2v1.37h2.32v1.59Zm-1.72-3h-1.17v1.37H169Zm-1-6.09a6.31,6.31,0,0,0,1.48,1.14,4.18,4.18,0,0,0,1.26-1.14Z"/><path d="M179.11,194.29c-.51,1.3-.75,2.19-1.05,2.93s-.69,1.08-1.07,1.08c-1.32,0-1.34-4.2-1.34-4.6a41.63,41.63,0,0,1,.83-7.19l2,.34a23.17,23.17,0,0,0-1,6.85c0,.74,0,.92.12.92s.31-.28.74-1.08Zm8,3.23a23.46,23.46,0,0,1-3,.18c-.56,0-1.06,0-1.46,0-1.77-.13-2.86-1-2.86-2.62a5.09,5.09,0,0,1,.23-1.4l1.71.33a2.73,2.73,0,0,0-.16.87c0,.7.34,1,2.28,1a14.92,14.92,0,0,0,3.21-.4Zm-.29-8.13c-1.12.1-2.42.14-3.7.14-1,0-1.89,0-2.75-.07l0-1.85a31.14,31.14,0,0,0,3.18.16,30.24,30.24,0,0,0,3.32-.17Z"/><path d="M191.68,188.58v2.08a37.89,37.89,0,0,1-.37,5.55,16,16,0,0,0,1.15-4.77l1.6.53a21.25,21.25,0,0,1-1.22,5.4l-1.53-1a8.2,8.2,0,0,1-.79,2.45l-1.36-1.57c.62-1.47.79-3.23.79-6.63v-3.75h4.87v-1h2v1h4.88v1.74Zm4.59,9.92c-1.53,0-1.86-.36-1.86-1.53v-5.91h1.83v5.32c0,.37.09.44.54.44h.78c.63,0,.71-.13.76-1.95l1.76.88c-.23,2.49-.56,2.75-2.35,2.75Zm1.42-6.43a19.38,19.38,0,0,0-2.52-2.31l1.23-1.12a21.24,21.24,0,0,1,2.59,2.18Zm2.82,5.35A27,27,0,0,0,199,192l1.62-.79a33.92,33.92,0,0,1,1.6,5.36Z"/><path d="M215.94,196.36a7.51,7.51,0,0,1-1.22-.54c-.13,2.58-.43,2.71-3.67,2.75l-.59-1.53h.31c2.26,0,2.32,0,2.32-.62v-.08h-3.4c-.79,1.27-2.18,2.12-5.11,2.43l-.66-1.59a7.06,7.06,0,0,0,3.88-.84h-1.75v-.73a13.94,13.94,0,0,1-2.15.83l-.63-1.64a8.15,8.15,0,0,0,3.1-1h-2.74v-1.22h4a3.09,3.09,0,0,0,.33-.5h-3.47v-3.8h2.42v-.56h-3v-1.39h3v-.45h1.72v.45h2.58v-.45h1.72v.45h3v1.39h-3v.56h2.43v3.8h-5.45a2.76,2.76,0,0,1-.28.5h6.59v1.22H214.1a9.13,9.13,0,0,0,2.53.93Zm-2.32-7h-7.38v.47h7.38Zm0,1.27h-7.38v.51h7.38Zm-5.09,3.2a8.84,8.84,0,0,1-1.48,1.16h1.51a5.2,5.2,0,0,0,.19-.83l1.69.06a7.27,7.27,0,0,1-.2.77h3.19a14.74,14.74,0,0,1-1.49-1.16Zm2.68-6.08h-2.58v.56h2.58Z"/><path d="M218.31,198.77V186.22h5.53v5.24H220v7.31Zm3.81-11.17H220v.67h2.09Zm0,1.83H220v.73h2.09Zm2.88,9v-2.39h-1.39a3.05,3.05,0,0,1-1.94,2.44l-1.14-1.38a1.91,1.91,0,0,0,1.47-1.06h-1.47v-1.46h1.62v-1.07H221v-1.39h6.59v1.39h-.94v1.07H228v1.46H226.6v2.39Zm0-4.92h-1.26v1.07H225Zm1.85,3.38h.39c1.22,0,1.25,0,1.25-.83v-4.65h-4v-5.24h5.68v9.49c0,2.45,0,3-2.65,3Zm1.64-9.34h-2.24v.67h2.24Zm0,1.83h-2.24v.73h2.24Z"/><path d="M242.78,198.77v-.54h-3.06v.54h-1.67v-2.13L237,198s-.56-.67-1.34-1.53a8.69,8.69,0,0,1-2.45,2.32l-1-1.73a7.93,7.93,0,0,0,2.18-1.78,14.56,14.56,0,0,0-1.91-1.39,30.86,30.86,0,0,0,.93-4.11h-1v-1.68h1.19c.07-.71.11-1.46.11-2.2h1.65c0,.77-.05,1.52-.11,2.2h2.65a21.23,21.23,0,0,1-.1,2.19h.44a25.36,25.36,0,0,0,1.68-4.34l1.72.59a27.84,27.84,0,0,1-1.48,3.71,17,17,0,0,0,2.45-.26c-.21-.48-.46-1-.77-1.56l1.4-.89c.72,1.31,1.26,2.4,1.88,3.8l-1.5,1.12-.32-.85c-1.89.26-3.54.4-5.39.48l-.2-1a12.26,12.26,0,0,1-1.19,4,15.62,15.62,0,0,1,1.56,1.36V192.8h6.4v6Zm-7.78-9a24.55,24.55,0,0,1-.74,3.45,10.87,10.87,0,0,1,1,.72,11.63,11.63,0,0,0,.86-4.17Zm7.78,4.7h-3.06v2.1h3.06Z"/><path d="M38,31.85v6.27H36.27V37.3c-2.15.29-4.34.39-4.34.39l-.26-1.54s.32,0,1,0V31.85h-.84V30.51H44.3v1.34ZM32.68,30V25.56H43.41V30Zm3.59,1.9H34.38v.69h1.89Zm0,1.72H34.38v.72h1.89Zm0,1.75H34.38v.82c.62,0,1.33-.07,1.89-.13Zm5.19-8.64H34.63v.57h6.83Zm0,1.59H34.63v.63h6.83Zm2.22,9.85a7,7,0,0,1-2.29-1.24A7.54,7.54,0,0,1,39,38.12l-.73-1.65a7.86,7.86,0,0,0,2-.55A10.14,10.14,0,0,1,39,33.86h-.64v-1.4H44v1.21a7.06,7.06,0,0,1-1.36,2.21,9.29,9.29,0,0,0,1.85.63Zm-3.11-4.26a4.63,4.63,0,0,0,.83,1.22,4.15,4.15,0,0,0,.85-1.22Z"/><path d="M48.05,38.12V33c-.86,0-1.88,0-1.88,0L46,31.4H47.1a11,11,0,0,0,.82-1.06,17.83,17.83,0,0,0-2-1.88L46.86,27l.41.42a9.65,9.65,0,0,0,1-2.24l1.52.62a16,16,0,0,1-1.48,2.72c.13.13.36.36.45.47a11.4,11.4,0,0,0,1-1.88l1.41.78A25,25,0,0,1,49,31.37c.19,0,.72,0,.95-.06a5.18,5.18,0,0,0-.2-.63l1.1-.55a19.85,19.85,0,0,1,.8,2.83l-1.29.54a5.93,5.93,0,0,0-.14-.71l-.57.05v5.28ZM46,37.1a26.64,26.64,0,0,0,.54-3.76l1.32.29a32.73,32.73,0,0,1-.49,3.91Zm4.39.17s-.11-1.66-.37-3.35l1.25-.42c.2,1,.4,2.24.54,3.34Zm7.84-4.06a18.41,18.41,0,0,1-3-1.73A10.67,10.67,0,0,1,52.3,33.1l-.87-1.72a9.24,9.24,0,0,0,2.49-1,10.72,10.72,0,0,1-1.06-1.12,4.86,4.86,0,0,1-.61.7l-1.37-1.21a8.63,8.63,0,0,0,2.38-3.49l1.72.28a6.72,6.72,0,0,1-.33.78h3.61V27.7a9.83,9.83,0,0,1-1.76,2.76,11.75,11.75,0,0,0,2.57,1.08Zm-.7,4.91A50,50,0,0,0,51.9,36l.93-1.61a33.58,33.58,0,0,1,5.59,2.07Zm-.6-2.86a16.31,16.31,0,0,0-3.51-1.57l.94-1.45a19,19,0,0,1,3.49,1.51Zm-3.15-7.38a7.25,7.25,0,0,0,1.47,1.52,4.34,4.34,0,0,0,1.22-1.52Z"/><path d="M66.14,37.83a4,4,0,0,1-3.42-1.35,4.53,4.53,0,0,1-1.39,1.62l-1.09-1.55a4.12,4.12,0,0,0,1.5-1.34V32H60.42V30.23h3v4.59A2.24,2.24,0,0,0,65.07,36l-.76-1.41a8.39,8.39,0,0,0,2.33-.48H64V32.77H65.9v-.64H64.25V30.84H65.9v-.5h-.42c-1,0-1.27-.13-1.27-.94v-2h2.17v-.57H64.24V25.56H68v3h-.86l1.23.54c-.17,1.05-.36,1.27-.78,1.27v.5h1.69v-.59a.69.69,0,0,1-.74-.77v-2h2.32v-.57H68.55V25.56h3.88v3h-.86l1.23.54c-.25,1.12-.45,1.27-1.31,1.27h-.55v.5h1.65v1.29H70.94v.64h2v1.36H70.38a19.68,19.68,0,0,1,2.45.58L72,36l1.15,0-.59,1.81Zm-3.91-9a15.67,15.67,0,0,0-1.85-2.28l1.38-1.14a15.2,15.2,0,0,1,1.76,2.33Zm7.68,5.33H67.1l.83.85a7.27,7.27,0,0,1-2.55,1.1,7.21,7.21,0,0,0,.85,0l5.51,0c-1.33-.56-2.66-1-2.66-1Zm-4.13-5.6V29c0,.17,0,.24.13.24h.59c.26,0,.34-.07.37-.66Zm3.48,3.6H67.57v.64h1.69Zm.84-3.6V29c0,.19,0,.23.17.23h.59c.3,0,.41-.09.47-.66Z"/><path d="M84.38,35.15H78.27a8.68,8.68,0,0,1-.78,1.43l-1.68-.87a9.72,9.72,0,0,0,1.65-3.21,15.35,15.35,0,0,1-2.21.64l-.66-1.85a25.09,25.09,0,0,0,5.72-1.17H74.92v-1.6h4.73v-.79H76.17V26.15h3.48v-.93h1.78v.93h2.85v1.09a9.64,9.64,0,0,0,1.16-1.48l1.49,1a8.85,8.85,0,0,1-1.66,1.78h2v1.6H83.38a24.78,24.78,0,0,1-4.15,1.78,68.14,68.14,0,0,0,7-1.09l.7,1.62S83,33,79,33.26a1,1,0,0,1-.09.3h7.25V35c0,3-.11,3.14-5.47,3.14L80,36.41h3.21c1,0,1.13-.09,1.13-.83Zm-2.95-7.42v.79h1.23a7.49,7.49,0,0,0,1.06-.79Z"/><path d="M3.47,99.38V91.21l-2,.84L1,90.35A4.31,4.31,0,0,0,3.7,88.2H5.62V99.38Z"/><path d="M9.65,97.76a11.94,11.94,0,0,0,2.72-4.14l1.55,1a16.44,16.44,0,0,1-3,4.84ZM12.5,92a34.2,34.2,0,0,0-2.84-2.12l1.22-1.63c1.36.93,2.72,2.09,2.72,2.09Zm9.18,8.44a8.11,8.11,0,0,1-3.79-4.77A9.63,9.63,0,0,1,14,100.45l-1-1.7c4-2.13,4.18-6.51,4.18-7.31v-.13h1.74v0a11.48,11.48,0,0,1-.19,1.86,7.75,7.75,0,0,0,4.05,5.48Zm-2.12-6.88a11.52,11.52,0,0,0,.91-2.78h-4A12.7,12.7,0,0,1,15,93.67L13.4,92.38a12.13,12.13,0,0,0,2.18-4.83l1.82.23A8.41,8.41,0,0,1,17.06,89h5.31a15.13,15.13,0,0,1-1.09,5.41Z"/><path d="M29.86,100.16a4,4,0,0,1-3.42-1.34,4.62,4.62,0,0,1-1.39,1.62L24,98.89a4.2,4.2,0,0,0,1.5-1.35V94.29H24.14V92.57h3v4.58a2.23,2.23,0,0,0,1.61,1.21L28,96.94a8.39,8.39,0,0,0,2.33-.47H27.7V95.11h1.92v-.65H28V93.17h1.65v-.5H29.2c-1,0-1.27-.13-1.27-.93v-2h2.18V89.2H28V87.9H31.7v3h-.86l1.23.55c-.17,1-.36,1.26-.78,1.26v.5H33v-.59a.69.69,0,0,1-.75-.77v-2h2.32V89.2H32.27V87.9h3.88v3h-.86l1.23.55c-.25,1.12-.45,1.26-1.31,1.26h-.55v.5h1.65v1.29H34.66v.65h2v1.36H34.1a18.1,18.1,0,0,1,2.45.57l-.83,1.33h1.15l-.59,1.8Zm-3.91-9a14.38,14.38,0,0,0-1.85-2.28l1.38-1.15a15.56,15.56,0,0,1,1.76,2.34Zm7.68,5.33H30.82l.83.84a7.11,7.11,0,0,1-2.55,1.11,7.21,7.21,0,0,0,.85,0l5.51-.06c-1.33-.56-2.66-1-2.66-1ZM29.5,90.86v.42c0,.17,0,.24.13.24h.59c.26,0,.34-.07.37-.66ZM33,94.46h-1.7v.65H33Zm.83-3.6v.43c0,.19,0,.23.17.23h.59c.3,0,.41-.08.47-.66Z"/><path d="M48.1,97.48H42a8.76,8.76,0,0,1-.78,1.44L39.53,98a9.72,9.72,0,0,0,1.65-3.21,15.49,15.49,0,0,1-2.21.65l-.66-1.85A25.53,25.53,0,0,0,44,92.46H38.64V90.85h4.73v-.79H39.89V88.49h3.48v-.94h1.78v.94H48v1.09a10.15,10.15,0,0,0,1.16-1.48l1.49,1A8.85,8.85,0,0,1,49,90.85h2v1.61H47.1A24.82,24.82,0,0,1,43,94.23a64.57,64.57,0,0,0,7-1.09l.7,1.62s-3.91.58-7.94.83a1.22,1.22,0,0,1-.08.3h7.25v1.42c0,3-.12,3.14-5.48,3.14l-.64-1.7H47c1,0,1.13-.09,1.13-.84Zm-3-7.42v.79h1.23a6.22,6.22,0,0,0,1.06-.79Z"/></g></svg>