<svg xmlns="http://www.w3.org/2000/svg" width="61.184" height="21.416" viewBox="0 0 61.184 21.416"><g transform="translate(0 0)"><path d="M595.387,746.169l18.865.181.107-11.747-9.462-.091-.041,4.5,5.15.05-.024,2.688-10.238-.1.107-11.734,10.238.1-.025,2.708,4.313.041.066-7.265-18.864-.181Z" transform="translate(-574.312 -724.935)"/><path d="M560.854,729.1l-6.768-.065.039-4.314,18.165.175-.039,4.314-6.774-.065-.149,16.416-4.624-.045Z" transform="translate(-554.087 -724.648)"/><path d="M641.391,741.183l-.039,4.292,16.465.158.114-12.594-12.3-.118.036-4,12.3.118.039-4.291-16.463-.159-.114,12.59,12.3.118-.037,4.006Z" transform="translate(-596.822 -724.585)"/></g></svg>