<svg xmlns="http://www.w3.org/2000/svg" width="22" height="22" viewBox="0 0 22 22"><g transform="translate(-231 123)"><rect width="22" height="22" transform="translate(231 -123)" fill="none"/><g transform="translate(233.568 -115)"><path d="M595.387,731.068l5.2.05.029-3.238-2.608-.025L598,729.1l1.419.014-.007.741-2.822-.027.029-3.234,2.822.027-.007.746,1.189.011.018-2-5.2-.05Z" transform="translate(-589.578 -725.215)"/><path d="M555.952,725.926l-1.865-.018.011-1.189,5.007.048-.011,1.189-1.867-.018-.041,4.525-1.274-.012Z" transform="translate(-554.087 -724.699)"/><path d="M641.362,729.16l-.011,1.183,4.538.044.032-3.471-3.389-.033.01-1.1,3.389.033.011-1.183-4.538-.044-.031,3.47,3.389.033-.01,1.1Z" transform="translate(-629.078 -724.585)"/></g></g></svg>