<svg xmlns="http://www.w3.org/2000/svg" width="255.6" height="22.87"><path d="M3.77 20.11v1.32H0V1.85h17.21v19.58h-3.77v-1.32zm9.67-10.92v-4H3.77v4zm0 7.49v-4.25H3.77v4.25zm8.21-9.12V4.39h9.12v-4l3.45.22c.61 0 .68.21.68.33s-.1.27-.51.53v2.92h9.15v3.17h-7.73a22.65 22.65 0 008.4 9.27 8.17 8.17 0 00-2.62 2.76A28.51 28.51 0 0138 16.18V19h-3.61v3.38h-3.62V19h-3.58v-2.85a28.51 28.51 0 01-3.67 3.44 7.84 7.84 0 00-2.62-2.76 22.21 22.21 0 008.4-9.27zm9.12 3.65a26.91 26.91 0 01-3.24 4.56h3.24zm6.84 4.56a27.72 27.72 0 01-3.22-4.51v4.51zM55.68 1c.31.05.5.1.5.32s-.26.33-.4.38c-.07.72-.12 1.56-.17 2.54A16.44 16.44 0 0059.38 3c0 .89-.05 2-.05 2.55a9.74 9.74 0 00.05 1.29 17.86 17.86 0 01-3.94 1.08v1.64a12 12 0 014.08-.72 6.36 6.36 0 016.65 6.5 5.56 5.56 0 01-5.69 6c-3.62 0-3.74-3.22-3.76-4.23.5-.16 2.66-.88 3-1 0 .47 0 1.6 1.13 1.6.91 0 1.51-.91 1.51-2.11a3 3 0 00-3.19-3.17 11.38 11.38 0 00-3.72.84 70.38 70.38 0 00.31 7.23L52.39 22a33 33 0 00-4.2-3.44c-.6.65-.89 1-1.22 1.4l-1.73-4.13c1.1-.6 5.47-3.91 6.43-4.52V8.43c-1.42.08-3.1.1-4.47.1V4.7a9.42 9.42 0 001.9.15c.94 0 2.28-.1 2.57-.1 0-1.8 0-2.06-.1-4.46zM50.3 16.47a2.7 2.7 0 001.08.62c.36 0 .34-.84.32-1.75-.29.24-.8.6-1.4 1.13zM62.83 3.7a20.45 20.45 0 015.24 3.84 16.53 16.53 0 00-2.33 2.9 14.06 14.06 0 00-5.09-3.77zM83 1.49c.26.09.4.17.4.38s-.4.41-.69.43a28.83 28.83 0 00-1.42 2.52c1.27.12 2.5.17 3 .17h1.18a18 18 0 00-1.06 3.8 29.24 29.24 0 01-4.53-.22c-.29.65-.63 1.51-.87 2.11a35.69 35.69 0 005.33.36c-.46 1.3-.84 2.81-1 3.55a58.28 58.28 0 01-5.38-.57 8 8 0 00-.26 1.94c0 2.93 2.71 2.93 3.88 2.93s4.66 0 4.66-3.48a9.19 9.19 0 00-1.22-3.74 11.51 11.51 0 003.62-1.3 12.58 12.58 0 011.66 5.45c0 5.28-5.57 6.5-8.72 6.5-4.82 0-7.48-2.49-7.48-6a11.6 11.6 0 01.36-2.91 19.5 19.5 0 01-3.12-.88l.81-3.56a23 23 0 003.24 1c.1-.32.27-.84.72-2.14a20.82 20.82 0 01-3.57-1.2l.72-3.72a29.81 29.81 0 004.16 1.29c.25-.65 1.4-3.58 1.64-4.18zm22.19-.34c.19.05.46.15.46.39s-.12.31-.53.33c-.53 1.63-.58 1.8-.7 2.16a36.81 36.81 0 007.83-1.89c.12.79.43 2.61.67 3.57a41.65 41.65 0 01-9.82 2c-.57 1.59-.76 2.07-1.24 3.24a14.16 14.16 0 016.24-1.63c6.41 0 6.74 4.51 6.74 5.71a5.91 5.91 0 01-2.57 4.85c-1.27.87-3.67 2.31-10.32 2.31-1 0-1.7-.08-2.23-.12a17.21 17.21 0 00-.89-3.58 35.71 35.71 0 003.58.22c.55 0 4.66 0 7.13-1.47a2.43 2.43 0 001.29-2.24c0-1.4-.72-2.57-2.92-2.57a12.3 12.3 0 00-8.31 4l-3.46-1.73a33.89 33.89 0 003.2-6.7c-2.09 0-3.75-.07-4.66-.14l-.05-3.94a21.82 21.82 0 005.81.53 31.44 31.44 0 00.91-4.25zm23.16 3.17c.29.34 1.49 1.82 1.73 2.11a10.75 10.75 0 012.64-.43 4.57 4.57 0 014.78 4.69c0 4.48-4.88 4.89-7.32 5.08a16.42 16.42 0 00-1.11-3.21h1.11c.81 0 3.89 0 3.89-2.11 0-.41-.12-1.35-1.54-1.35H132c.43.7.67 1.15.89 1.51-.89.36-2.28.94-3.14 1.32a16.66 16.66 0 00-.89-1.85c-.89.41-1.42.7-1.76.89a47 47 0 013.36 9.27 31.88 31.88 0 00-3.4 1.65 41.13 41.13 0 00-2.81-9.21 34.3 34.3 0 00-2.71 2.32l-2.16-3.39a32.11 32.11 0 003.4-1.7 18.2 18.2 0 00-2.16-3.15l3.27-1.34a1.34 1.34 0 01.5-.14.26.26 0 01.29.26.69.69 0 01-.22.38l1.3 2.38 1.37-.67c-.38-.53-.51-.7-1.51-2zm13.32 5.18V6.05h9.1V.12l3.77.19c.14 0 .45 0 .45.31s-.24.32-.45.39v5h8.93V9.5h-8.86a17.38 17.38 0 009.31 10.37 9.32 9.32 0 00-2.78 2.86c-2.43-1.08-6.24-4.42-8.43-8.83a18.44 18.44 0 01-9.36 8.93 8.48 8.48 0 00-2.54-3.2c2-.79 8-3.07 9.6-10.13zm37.78 9.13h-5.07l1.47 1.44a.39.39 0 01.12.24c0 .19-.14.26-.34.26a1.2 1.2 0 01-.6-.17 21.8 21.8 0 01-7.29 2.47 11.35 11.35 0 00-2.26-3.07 18.5 18.5 0 006.17-1.17h-3.72v-8.45h17.38v8.45h-3.89a21.94 21.94 0 006.17 1.29 12 12 0 00-2.09 2.91 23.57 23.57 0 01-7.92-2.76zm-4.63-16.16V.12l4 .12c.12 0 .29.07.29.24s-.2.31-.63.53v1.46h2.26c-.17-.07-.34-.14-.72-.26A8.44 8.44 0 00181.08 0l3.65 1.35c.12 0 .24.12.24.26 0 .34-.5.34-.67.34a3.08 3.08 0 01-.24.5h3.5v5.81h-3.5V4.94h-14.91v3.44h-3.41V2.47h3.58a7.77 7.77 0 00-.77-1.13L171.86 0a11.4 11.4 0 011.44 2.06 12.3 12.3 0 00-1.24.41zm8.73 3.15v4h-13.89v-4zm-1.8 7.05v-.62h-10.22v.62zm-10.22 1.4v.62h10.22v-.62zm0 2v.65h10.22v-.65zm1.63-8.88V8h7v-.8zm36.63 1.6c-1.71.11-3.72.28-8.07 2.25s-5.9 4-5.9 5.16c0 1.73 2.56 2.07 5.61 2.07a25.53 25.53 0 008.21-1.37 16.69 16.69 0 00-.26 4.22 50.14 50.14 0 01-8.12.72c-4.17 0-5.8-.62-7-1.27a4.63 4.63 0 01-2.62-4.13c0-3.26 2.74-5.3 5.11-6.79C195.55 8.3 195.38 7 195 4a10 10 0 00-.65-2.56l4.7-1c-.09 1.22-.14 1.75-.14 2.52A11.43 11.43 0 00199.94 8a74.4 74.4 0 018.38-3.43zm10-6.51c.19.07.31.17.31.34s-.45.33-.67.36a33.09 33.09 0 00-1.43 9.24 17.27 17.27 0 00.17 2.4c.31-.46.82-1.23 1.13-1.71a9.82 9.82 0 001.7 2.38 10.67 10.67 0 00-2 5.88l-3.21.6a33.63 33.63 0 01-1.3-9.67 43.6 43.6 0 011.51-11zm11.4-.53c.12 0 .32.05.32.27s-.34.36-.56.38c-.07.53-.16 1.2-.24 2.88a22 22 0 003.56-.89V8c-.56.14-1.66.4-3.65.77a39.71 39.71 0 00.38 5.52 13.23 13.23 0 014.56 2.47c-.38.69-1.1 2.25-1.63 3.38a8.51 8.51 0 00-2.57-1.82c-.09 3.07-3.17 3.43-4.68 3.43-3.6 0-5.4-2-5.4-4.2 0-2.86 2.83-3.94 5.95-3.86C227 11 227 10.66 227 9.26c-1.37.12-2.35.12-2.76.12a17.38 17.38 0 01-1.78-.07V5.54a24.69 24.69 0 004.52.17V1.03zm-5 14.88c-.52 0-1.68.17-1.68.92s.8.88 1.56.88c.2 0 1.64 0 1.64-1.17a.62.62 0 00-.05-.31 3.39 3.39 0 00-1.44-.32zm20.17-2.21V13a4.15 4.15 0 011.94-3.53c1.88-1.46 2.81-2.21 2.81-3.22 0-1.41-1.82-1.51-2.42-1.51a2.26 2.26 0 00-2.59 2.47h-4.52a6 6 0 011.08-3.36c1.76-2.37 4.71-2.71 6.22-2.71 4.3 0 6.72 2.4 6.72 5 0 1.68-.81 2.74-3 4.44-1.7 1.32-2.3 1.87-2.3 3.32v.47zm-.07 2.12h4v4.05h-4z" fill="#ffa000" data-name="レイヤー 2"/></svg>