<svg xmlns="http://www.w3.org/2000/svg" width="12" height="20" viewBox="0 0 12 20"><g transform="translate(-4)"><path data-name="パス 105" d="M9.991,19.653,8.438,17.6C6.891,15.547,4,10.381,4,7.159A6.088,6.088,0,0,1,10,1a6.088,6.088,0,0,1,6,6.159c0,3.269-2.9,8.417-4.445,10.447ZM10,3A4.086,4.086,0,0,0,6,7.159c0,2.357,2.356,6.989,4,9.188,1.644-2.174,4-6.793,4-9.188A4.086,4.086,0,0,0,10,3Z" fill="#3232fc"/><circle data-name="楕円形 47" cx="2" cy="2" r="2" transform="translate(8 5)" fill="#3232fc"/></g></svg>