<svg id="title_movie.svg" xmlns="http://www.w3.org/2000/svg" width="164.625" height="44.281" viewBox="0 0 164.625 44.281">
  <defs>
    <style>
      .cls-1 {
        fill: #fff;
        fill-rule: evenodd;
      }
    </style>
  </defs>
  <path id="MOVIE" class="cls-1" d="M597.867,992.769V950.741H584.32l-5.542,24.786c-0.462,2.263-.667,6.681-0.77,7h-0.154c-0.1-.323-0.359-4.634-0.872-7.058l-5.85-24.732H558.149v42.028H566V976.227c0-4.31-.564-14.979-0.667-16.6h0.308c0.205,2.1,1.232,8.782,1.745,10.776l5.747,22.361h9.442l5.388-22.415c0.616-2.748,1.591-9.483,1.642-10.722h0.308c-0.051,1.508-.615,12.608-0.615,16.434v16.7h8.569Zm40.395-21.122c0-13.255-7.236-22.037-18.32-22.037-11.135,0-18.473,8.675-18.473,22.037,0,13.686,7.338,22.253,18.473,22.253C631.026,993.9,638.262,985.333,638.262,971.647Zm-9.6,0c0,8.783-3.951,13.794-8.724,13.794-5.08,0-8.877-5.011-8.877-13.794s4.156-13.578,8.877-13.578C624.971,958.069,628.666,962.865,628.666,971.647Zm47.113-20.906h-9.853l-6.465,23.977c-0.821,3.126-1.489,6.843-1.643,7.759h-0.2c-0.154-.916-0.872-4.526-1.693-7.759l-6.569-23.977H639.14L651.4,992.769h12.111Zm11.239,42.028V950.741h-9.647v42.028h9.647Zm35.757,0v-8.19h-19.4v-9.322h15.754v-8.028H703.377v-8.3h18.371v-8.19h-27.71v42.028h28.737Z" transform="translate(-558.156 -949.625)"/>
</svg>
