<svg height="314.56" viewBox="0 0 558.031 314.56" width="558.031" xmlns="http://www.w3.org/2000/svg"><g fill="#fff" fill-rule="evenodd" transform="translate(-102.594 -1580.25)"><path d="m124.48 1602.28a36.849 36.849 0 0 1 3.055 3.26 35.42 35.42 0 0 0 3-4.28 58.165 58.165 0 0 0 4.9 12.88 30.2 30.2 0 0 1 -10.957 8.15v-20.01zm19.1-7.23a48.776 48.776 0 0 1 -4.509 13.59 56.72 56.72 0 0 1 -4.557-13.59zm8.678 0v-5.75h-16.53a81.576 81.576 0 0 0 2.085-7.89l-5.915-1.17c-1.358 7.18-3.879 14.15-7.418 18.99v-18.69h-5.624v28.46l-3.878.97v-23.83h-5.527v25.2c-1.115.26-2.085.46-3.006.66l1.988 6.16c3.1-.96 6.739-2.18 10.423-3.41v12.98h5.624v-5.09a25.189 25.189 0 0 1 3.055 5.3 36.474 36.474 0 0 0 11.247-8.61 30.011 30.011 0 0 0 10.036 8.46 24.711 24.711 0 0 1 3.976-5.3 26.247 26.247 0 0 1 -10.23-8.25c3.2-5.24 5.43-11.6 6.933-19.19h2.763zm31.052 9.32h11.2a62.9 62.9 0 0 1 -7.466 6.67 27.946 27.946 0 0 1 -3.733-5.6v-1.07zm11.538 0h7.03v-5.25h-5.914c.484-5.24.824-11.09.921-16.39l-4.655-.25-1.066.25h-28.9v5.5h28.12l-.1 2.75h-26.414v5.4h26.13l-.145 2.74h-30.5v5.25h18.045v7.99c-6.788 2.8-13.914 5.6-18.472 7.23l3.152 5.45c4.411-1.94 9.938-4.43 15.32-6.88v3.77c0 .71-.291.92-1.067.92-.727.05-3.539.05-5.818-.1a24.892 24.892 0 0 1 1.94 5.24c3.636 0 6.3-.1 8.242-.87 1.987-.81 2.618-2.13 2.618-5.04v-7.28a32.109 32.109 0 0 0 15.32 11.1 27.245 27.245 0 0 1 3.879-5.34 31.664 31.664 0 0 1 -11.733-5.91 98.493 98.493 0 0 0 8.824-6.67zm-20.023 6.36c-1.987-1.98-6.011-4.48-8.969-6.11l-3.83 3.67c3.054 1.83 6.933 4.58 8.678 6.57zm67.879-27.34-1.406.41h-33.063v5.96h28.119a56.643 56.643 0 0 1 -8.387 7.79h-3.248v23.06c0 .86-.34 1.12-1.406 1.12-1.115.05-5.091.05-8.485-.16a27.4 27.4 0 0 1 2.279 6.22c4.654 0 8.1-.11 10.521-1.02 2.375-.92 3.2-2.55 3.2-6.06v-18.07c5.867-3.87 12.121-10.24 16.387-15.73zm12.71 39.97h21.575v-6.06h-6.74v-31.62h-5.284a22.472 22.472 0 0 1 -8.339 3.16v4.63h6.5v23.83h-7.709v6.06zm40.824.71c6.642 0 12.557-4.84 12.557-13.24 0-8.19-5.042-11.96-11.054-11.96a8.951 8.951 0 0 0 -4.315 1.07l.679-7.99h13.041v-6.27h-19.2l-.969 18.28 3.248 2.24c2.085-1.42 3.248-1.98 5.382-1.98 3.636 0 6.06 2.44 6.06 6.82 0 4.43-2.618 6.92-6.351 6.92-3.345 0-5.867-1.73-7.9-3.82l-3.3 4.79a15.98 15.98 0 0 0 12.124 5.14zm35.862-43.37c-4.024 1.78-10.133 3.25-15.612 4.17a21.172 21.172 0 0 1 1.552 4.68c1.745-.2 3.539-.51 5.43-.81v5.75h-7.176v5.65h6.4c-1.745 4.94-4.46 10.39-7.175 13.7a33.4 33.4 0 0 1 2.666 5.7 47 47 0 0 0 5.285-10.08v18.33h5.624v-20.27a56.06 56.06 0 0 1 2.909 5.35l3.3-4.73a86.934 86.934 0 0 0 -6.2-7.18v-.82h5.333v-5.65h-5.333v-6.97a41.041 41.041 0 0 0 6.254-1.89zm18.762 24.99v-9.47h4.073v9.47zm-9.939 0v-9.47h4.121v9.47zm9.939-15.27v-9.98h-5.818v9.98h-9.551v24.23h5.43v-3.1h4.121v16.08h5.818v-16.08h4.073v2.69h5.665v-23.82h-9.745zm44.8 8.04a52.361 52.361 0 0 0 -7.66-12.22l-5.236 2.75a52.6 52.6 0 0 1 7.224 12.63zm-8.872 9.01c-2.424 1.02-4.9 2.09-7.321 3.16l-.873-27.54-6.011.25.969 29.73c-2.424 1.02-4.606 1.84-6.448 2.5l1.939 6.46c5.479-2.39 12.654-5.6 19.054-8.6zm26.326 15.22c-2.23-3.56-6.739-8.7-10.763-13.08 3.151-6.92 4.9-15.42 5.914-25.86l-6.351-.61c-1.794 20.92-6.787 33.24-22.156 39.35a34.641 34.641 0 0 1 4.606 5.35 35.069 35.069 0 0 0 14.738-12.37c3.588 4.27 7.273 8.96 9.067 12.26zm30.232-3.51v-17.61h17.114v-6.16h-17.123v-14.56h-6.206v38.33h-17.357v6.11h44.071v-6.11h-20.508z"/><path d="m137.777 1678.66h7.192v-6.72a65.052 65.052 0 0 1 9.031 7.64l4.4-4.62a82.649 82.649 0 0 0 -9.51-7.56h9.271v-6.29h-6.314c1.6-1.93 3.517-4.54 5.674-7.39l-6.473-2.86a72.256 72.256 0 0 1 -4.555 8.32l4.155 1.93h-5.674v-10.33h-7.192v10.33h-6.154l4.315-2.19a24.571 24.571 0 0 0 -4.715-7.81l-5.354 2.77a27.623 27.623 0 0 1 4.076 7.23h-5.44v6.29h8.152a35.973 35.973 0 0 1 -10.07 7.56 28.023 28.023 0 0 1 4.715 5.46 40.4 40.4 0 0 0 10.47-9.57zm-15.9 5.54v-35.27h39.24v35.27h-16.148c.24-1.43.4-2.94.56-4.45h-9.91c-.16 1.59-.32 3.02-.56 4.45h-13.186zm55.383 8.4v-8.4h-7.033v-42.83h-24.539c.64-1.76 1.359-3.86 2.238-6.04l-10.309-.84a65.945 65.945 0 0 1 -2.078 6.88h-22.457v42.83h-7.033v8.4h26.133c-3.516 5.96-11.028 9.74-28.051 11.84a28.827 28.827 0 0 1 4.395 8.39c20.3-3.02 29.171-8.73 33.406-17.8 6.074 10.83 15.345 16.04 31.728 18.06a36.57 36.57 0 0 1 5.754-9.58c-14.226-.84-23.336-4.03-28.691-10.91h26.533zm78.55-26.04v-9.32h-51.31v9.32h13.746a167.7 167.7 0 0 1 -6.313 18.98c-2.478.17-4.8.34-6.873.42l1.438 9.91c10.31-1.09 24.775-2.52 38.521-3.95a50.7 50.7 0 0 1 2.158 5.88l8.391-4.62c-2.158-6.88-8.311-16.96-13.906-24.43l-7.672 3.94a111.457 111.457 0 0 1 6.713 10.59c-6.553.58-13.106 1.09-19.18 1.51 2.557-5.46 5.274-12.1 7.672-18.23h26.613zm-5.2-27.96h-40.837v9.24h40.838v-9.24zm-45.953 6.3c-2.717-3.11-8.391-7.39-12.947-9.99l-6.313 6.21c4.555 2.86 9.99 7.39 12.467 10.58zm-2.8 16.21c-2.877-3.11-8.791-7.14-13.426-9.58l-6.154 6.47c4.635 2.69 10.389 7.05 12.947 10.16zm-1.439 11.33h-18.218v9.24h8.951v12.51a121.527 121.527 0 0 1 -10.629 7.73l4.555 10.16c4.236-3.61 7.832-6.89 11.349-10.16 5.034 6.55 11.748 8.9 21.577 9.4 9.511.42 25.734.25 35.324-.25a52.633 52.633 0 0 1 2.957-9.91 367.467 367.467 0 0 1 -38.2.76c-8.391-.42-14.305-2.77-17.662-8.4v-21.08zm79.909-12.76a74.675 74.675 0 0 0 14.625-15.54 79.569 79.569 0 0 0 15.344 15.54h-29.965zm-3.916 9.15h37.321v-6.63a95.255 95.255 0 0 0 13.427 8.14 51.681 51.681 0 0 1 6.153-9.15 73.479 73.479 0 0 1 -33.8-26.62h-9.912c-5.994 9.91-18.621 21.83-32.287 28.13a39.125 39.125 0 0 1 5.594 8.4 91.386 91.386 0 0 0 13.507-8.4v6.13zm-14.146 16.21h18.545c-1.678 4.95-3.916 10.5-6.074 15.2l-12.067.42 1.278 9.74c13.587-.67 33.326-1.51 52.107-2.6a44.59 44.59 0 0 1 3.2 5.2l8.871-5.62c-3.756-6.3-11.189-15.04-18.3-21.59l-8.391 4.62a98.712 98.712 0 0 1 7.832 8.57c-8.152.33-16.383.67-24.055.92 2.4-4.7 5.035-9.91 7.352-14.86h35.8v-9.24h-66.094v9.24zm120.035-36.61c-.639 2.26-1.6 5.03-2.557 7.64h-17.426a33.527 33.527 0 0 0 -3.277-7.64zm24.455 7.64h-17.186c.8-1.85 1.6-3.7 2.4-5.63l-9.27-2.01h20.459v-8.57h-26.536a34.178 34.178 0 0 0 -2.4-5.79l-9.43 1.93c.48 1.17.959 2.52 1.359 3.86h-27.011v8.57h19.26l-8.312 2.35a39.348 39.348 0 0 1 2.158 5.29h-16.862v8.06h71.367v-8.06zm-52.346 19.14h32.846v7.06h-32.85v-7.06zm33.086 27.55c-2.957 0-3.437-.25-3.437-2.77v-9.66h12.942v-23.18h-51.706v23.18h11.988c-1.918 7.39-6.554 11.5-23.576 14.02a32.531 32.531 0 0 1 4.875 8.57c20.3-3.86 26.053-11.09 28.291-22.59h7.672v9.82c0 8.57 2.238 11.34 11.588 11.34h10.468c7.272 0 9.829-2.94 10.788-14.61-2.557-.67-6.473-2.18-8.391-3.7-.32 8.4-.8 9.58-3.357 9.58h-8.151zm48.1-32.58-7.352 1.93v-12.43h7.832v-9.24h-7.832v-15.95h-9.431v15.95h-9.19v9.24h9.19v14.86c-3.836 1.01-7.272 1.85-10.229 2.44l2.477 9.49 7.752-2.02v17.3c0 1.26-.319 1.68-1.518 1.68-1.039 0-4.316 0-7.432-.08a44.963 44.963 0 0 1 2.717 9.06c5.594 0 9.43-.25 12.067-1.76 2.718-1.59 3.6-3.95 3.6-8.82v-20.07c2.877-.75 5.754-1.59 8.551-2.43zm33.405 4.53a46.847 46.847 0 0 1 -9.99 14.86 48.215 48.215 0 0 1 -9.43-14.86zm5.994-9.4-1.678.42h-9.591v-10.08h17.9v-9.24h-17.9v-12.01h-9.43v12.01h-17.185v9.24h17.182v10.08h-15.744v8.98h4.152l-2.4.76a67.219 67.219 0 0 0 11.349 19.98 59.906 59.906 0 0 1 -19.1 8.23 41.343 41.343 0 0 1 5.115 9.07 72.046 72.046 0 0 0 21.019-10.33 55.942 55.942 0 0 0 19.9 10.58 43.648 43.648 0 0 1 6.074-8.65 52.624 52.624 0 0 1 -18.461-8.48c6.713-7.05 11.828-16.21 14.865-27.88zm39.309-12.18v39.47h9.351v-30.74h20.858v30.4h9.75v-39.13h-18.462c1.039-2.02 2.158-4.2 3.277-6.55h19.18v-8.9h-46.114v8.9h15.743c-.639 2.27-1.358 4.45-2.077 6.55h-11.509zm-2.957 27.21-8.231 2.26v-29.64h7.912v-9.49h-26.536v9.49h9.19v32.33c-4 1.09-7.592 2.02-10.549 2.77l2.318 10.58c7.752-2.77 17.662-6.46 27.092-9.91zm27.572-15.2h-9.51v17.04c0 8.23-2.717 17.72-23.976 23.35a32.962 32.962 0 0 1 5.994 7.64c22.457-7.22 27.492-19.31 27.492-30.9zm-2.718 34.26c5.674 3.86 13.186 9.49 16.7 13.27l6.313-6.81c-3.756-3.69-11.508-8.9-17.182-12.42zm38.613-2.35v-9.91h37v9.91zm37-29.23v9.91h-37v-9.91zm0-19.06v9.66h-37v-9.66zm-46.593-9.74v72.97h9.59v-5.2h37v5.2h10.069v-72.97h-56.658zm83.021 45.01h8.231l2.8-28.72.4-12.51h-14.627l.32 12.51zm4.076 22.34a8 8 0 0 0 8.311-8.23 8.312 8.312 0 0 0 -16.623 0 8 8 0 0 0 8.313 8.23z"/><path d="m150.863 1732.2h-12.376v-4.71h12.376zm7.344-10.64h-26.588v16.57h26.588zm-34.34 34.79-1.292-7.5-4.9 1.71v-10.28h5.644v-7.86h-5.644v-13.43h-7.545v13.43h-6.6v7.86h6.6v12.78c-2.856.86-5.372 1.65-7.548 2.22l1.9 8.14c1.768-.64 3.672-1.28 5.644-2v14.86c0 .78-.2 1.07-.952 1.07-.612 0-2.448 0-4.352-.07a25.97 25.97 0 0 1 1.972 7.57c3.876 0 6.461-.28 8.365-1.57 1.972-1.29 2.516-3.36 2.516-7.07v-17.5zm13.192-4.72h-5.576v-5.28h5.576zm15.3-5.28h5.848v5.28h-5.848zm13.464 22.29v-6.86h-17.136v-4.36h15.98v-16.79h-18.567v16.5h-2.652v-16.5h-17.948v16.79h15.5v4.36h-16.385v6.86h12.512a43.065 43.065 0 0 1 -17.544 9.42 38.443 38.443 0 0 1 4.964 6.58 45.226 45.226 0 0 0 16.453-10.29v11.43h7.684v-11.64a41.13 41.13 0 0 0 13.328 9.93 31.007 31.007 0 0 1 5.1-6.43 40.749 40.749 0 0 1 -14.96-9h13.668zm20.225-49.44c-3.4 10.15-9.316 20.29-15.5 26.72a59.081 59.081 0 0 1 4.488 9.07c1.36-1.57 2.788-3.36 4.216-5.14v35.72h8.16v-48.94a113.108 113.108 0 0 0 6.528-14.86zm48.757 19.43v-8.07h-26.384a87.17 87.17 0 0 0 3.332-8.86l-7.821-2.07c-3.06 10.22-8.432 20.5-14.416 26.93a56.5 56.5 0 0 1 6.188 5.93 79.352 79.352 0 0 0 8.908-13.86h2.588v47.01h8.3v-15.86h18.5v-7.86h-18.5v-8.07h17.612v-7.72h-17.619v-7.5zm20.545-7.93a50.511 50.511 0 0 1 3.672 8.36l6.936-3.14a43.861 43.861 0 0 0 -2.448-5.22h8.09v-6.93h-14.754c.476-1.07.952-2.07 1.36-3.14l-7.617-2.14c-2.176 6.07-6.12 12.21-10.54 16a49.046 49.046 0 0 1 6.6 4.64 52.057 52.057 0 0 0 6.46-8.43h2.245zm-11.425 54.94h7.888v-38.01h-7.888zm3.876-45.08a44.11 44.11 0 0 1 6.46 8.93l6.461-4.5a47.058 47.058 0 0 0 -6.869-8.5zm30.6 15.93v3.43h-13.327v-3.43h13.326zm-13.328 12.86v-3.71h13.327v3.71h-13.326zm20.876 6.21v-25.35h-28.219v28.57h7.344v-3.22h20.876zm16.252-51.79h-17.475c.408-1.07.748-2.14 1.088-3.21l-7.616-1.86c-1.632 5.65-4.692 11.29-8.432 14.93a38.5 38.5 0 0 1 6.6 4.57 39.666 39.666 0 0 0 5.236-7.57h2.992a39.886 39.886 0 0 1 4.148 7.93h-26.86v7.57h30.056v30.43c0 1.22-.476 1.58-1.768 1.65s-6.188.07-10.2-.15a29.263 29.263 0 0 1 2.584 7.29c6.188 0 10.54-.07 13.4-1.21 2.924-1.22 3.944-3.22 3.944-7.5v-38.08h-10.276l6.256-3a37.71 37.71 0 0 0 -2.652-4.93h8.974v-6.86zm19.232 30.44v-4.93h12.377v4.93h-12.376zm0-16.22h12.377v4.86h-12.376v-4.86zm33.592 4.86h-12.851v-4.86h12.852v4.86zm0 11.36h-12.851v-4.93h12.852v4.93zm13.805 11.64h-26.656v-4.64h21.216v-30.15h-9.724c1.836-2.71 3.876-5.71 5.712-8.86l-8.976-2.71a68.4 68.4 0 0 1 -5.848 11.57h-14.554l2.924-1.5a50.771 50.771 0 0 0 -7.072-10.29l-6.936 3.22a59.223 59.223 0 0 1 5.576 8.57h-10.946v30.15h20.264v4.64h-26.249v7.93h26.249v11.64h8.364v-11.64h26.657v-7.93zm21.547-4.79h7l2.38-24.43.34-10.64h-12.439l.272 10.64zm3.468 19.01a6.808 6.808 0 0 0 7.072-7.01 7.072 7.072 0 0 0 -14.144 0 6.808 6.808 0 0 0 7.073 7.01z"/><path d="m197.591 1861.54a54.053 54.053 0 0 0 -7.741-6.72 89.375 89.375 0 0 0 7.225-8.66l-10.012-3.8a44.66 44.66 0 0 1 -5.573 6.51c-2.271-1.63-4.645-3.04-6.709-4.34l-7.019 6.18c2.168 1.41 4.438 2.92 6.812 4.55-2.167 1.62-4.335 3.25-6.5 4.66-4.025-6.72-6.812-14.96-8.773-24.38.516-5.53.826-11.48.929-17.77h39.53v-11.59h-39.326v-12.68h-13v12.68h-40.154v11.59h40.046c-.722 35.1-5.367 54.71-41.9 65.11a38.9 38.9 0 0 1 7.431 11.81c23.636-7.26 35.505-18.74 41.389-34.99 7.431 17.55 19.2 28.93 40.046 34.67a44.771 44.771 0 0 1 7.534-11.59c-16.1-3.69-26.525-11.16-33.544-22.43a69.442 69.442 0 0 1 8.154 6.61 53.029 53.029 0 0 0 6.4-5.31 55.936 55.936 0 0 1 7.328 6.82zm-57.18-26.54a74.506 74.506 0 0 0 -6.709-5.31c2.581-2.6 5.058-5.2 7.122-7.69l-9.392-3.9a54.19 54.19 0 0 1 -5.883 6.06c-2.787-1.62-5.368-3.25-7.845-4.55l-6.6 6.5c2.167 1.3 4.541 2.71 7.018 4.34a87.439 87.439 0 0 1 -9.5 6.17 66.2 66.2 0 0 1 7.947 7.26c3.1-2.17 6.4-4.77 9.8-7.58a55.007 55.007 0 0 1 6.915 6.17zm-2.89 26.22a56.907 56.907 0 0 0 -5.573-5.31 82.441 82.441 0 0 0 7.947-9.32l-9.908-3.9a75.656 75.656 0 0 1 -6.193 7.04c-1.961-1.41-4.025-2.71-5.883-3.9l-7.019 6.07c1.858 1.19 3.819 2.71 5.883 4.01a80.416 80.416 0 0 1 -9.289 6.5 70.837 70.837 0 0 1 8.257 7.58 102.423 102.423 0 0 0 9.186-7.26 51.839 51.839 0 0 1 5.264 5.2zm47.891-43.34a77.374 77.374 0 0 1 -5.677 6.18c-2.684-1.63-5.264-3.26-7.741-4.56l-6.606 6.4c2.271 1.3 4.748 2.92 7.122 4.55a79.6 79.6 0 0 1 -9.186 6.5 76.341 76.341 0 0 1 8.154 7.26c2.993-2.17 6.09-4.88 9.392-7.8a53.289 53.289 0 0 1 6.812 6.17l7.225-7.26a86.966 86.966 0 0 0 -7.018-5.74c2.58-2.6 4.954-5.2 7.018-7.69zm27.947 28.17a150.729 150.729 0 0 0 4.641-30.45l-8.773-1.19c-.723 9-2.581 21.02-5.058 28.28zm30.551-14.63c-1.342-5.31-4.851-13.97-8.051-20.47l-5.573 2.49v-20.37h-12.179v101.08h12.179v-72.91a99.294 99.294 0 0 1 4.645 14.62zm28.487-10.07h10.424v19.82h-10.734c.206-3.36.31-6.61.31-9.86zm28.9 32.07v-12.25h-6.5v-31.74h-22.397v-16.36h-12.389v16.36h-17.752v11.92h17.752v9.86c0 3.25 0 6.5-.31 9.96h-22.19v12.25h20.539c-2.787 11.91-9.392 23.4-25.081 31.41a54.988 54.988 0 0 1 8.67 9.97c14.244-8.56 22.088-19.93 26.216-32.07 5.677 14.52 13.934 25.46 26.835 31.85a50.757 50.757 0 0 1 8.67-12.13c-12.9-5.09-21.365-15.71-26.422-29.03h24.362zm20.165-2.06a355.142 355.142 0 0 1 -12.489 35.32l11.251 6.28c3.818-10.62 7.947-23.4 11.146-35.21zm9.7-19.18c-3.509-3.25-10.837-7.15-16.514-9.42l-6.709 9.42c5.677 2.71 12.695 7.04 16.1 10.4zm61.1 17.12a117.067 117.067 0 0 0 12.695-18.42l-7.122-5.52-2.167.75h-19.2c1.136-2.49 2.271-5.2 3.3-8.12h24.668v-12.14h-21.151c.826-3.46 1.445-7.04 2.065-10.61l-11.767-2.06a103.233 103.233 0 0 1 -5.676 22.97v-7.48h-11.767v-15.38h-11.766v15.38h-12.8l3.2-4.55c-3.612-3.36-10.734-7.58-16.307-10.08l-7.018 9.43c5.676 2.71 12.8 7.58 16 11.05l4.026-5.74v12.02h7.534c-.413 24.81-1.342 49.84-13.933 64.9a29.6 29.6 0 0 1 8.257 8.34c10.218-12.46 14.14-30.22 15.791-49.62h6.606c-.723 25.35-1.755 34.56-3.406 36.84a2.842 2.842 0 0 1 -2.787 1.62 67.638 67.638 0 0 1 -7.225-.32 30 30 0 0 1 2.993 11.48 40.761 40.761 0 0 0 10.115-.43 8.769 8.769 0 0 0 6.606-4.33c2.889-4.01 3.922-17.01 4.954-51.57 0-1.52.1-4.99.1-4.99h-17.236c.207-3.9.31-7.91.413-11.92h15.585a39.179 39.179 0 0 1 -3.2 5.21 66.3 66.3 0 0 1 9.805 5.95v5.31h15.791a54.153 54.153 0 0 1 -3.715 5.42h-3.613v9.21h-12.694v11.48h12.695v17.88c0 1.19-.309 1.52-1.754 1.52-1.342.1-5.987.1-10.218-.11a54.665 54.665 0 0 1 3.2 11.7c6.916 0 11.87-.11 15.585-2.06 3.716-1.84 4.542-5.09 4.542-10.94v-17.99h12.488v-11.48h-12.489v-2.6zm109.175-40.95c-2.89-4.12-9.186-10.4-13.521-14.85l-8.876 6.83c4.438 4.77 10.425 11.37 13.108 15.71zm-47.581 61.53c-2.89-5.41-7.225-12.02-12.076-19.17a188.879 188.879 0 0 0 10.22-43.66l-7.844-2.82-2.064.43h-30.447v11.38h27.042a140.1 140.1 0 0 1 -5.677 22.53c-4.644-6.39-9.186-12.46-13.417-17.87l-8.36 7.36c5.16 7.05 11.043 15.28 16.514 23.51-4.955 10.51-11.251 19.18-18.475 24.92 2.993 2.28 6.915 7.37 8.876 10.51 6.915-6.07 12.695-13.87 17.546-23.08a153.845 153.845 0 0 1 8.67 15.17zm38.5-38.02a100.549 100.549 0 0 1 -13.417 23.83 201.92 201.92 0 0 1 -3.406-23.62l29.828-3.9-1.445-11.48-29.209 3.68c-.516-8.34-.722-17.22-.826-26.54h-12.8c.207 9.97.619 19.28 1.135 27.95l-11.146 1.41 1.444 11.81 10.528-1.41c1.135 13.22 2.89 24.48 5.574 33.58a74.4 74.4 0 0 1 -19.92 13.76 49.621 49.621 0 0 1 9.7 9.65 76.505 76.505 0 0 0 14.965-10.95c4.645 8.56 10.734 13.55 19.1 14.52 5.676.54 11.25-4.33 14.037-24.81-2.478-1.19-7.948-4.87-10.322-7.58-.825 11.37-1.961 16.68-4.335 16.36-3.3-.54-6.3-3.58-8.669-8.67a114.705 114.705 0 0 0 18.887-31.42zm44.6 25.13h10.631l3.612-37.05.516-16.14h-18.888l.412 16.14zm5.264 28.82a10.323 10.323 0 0 0 10.734-10.62 10.734 10.734 0 0 0 -21.468 0 10.323 10.323 0 0 0 10.733 10.62z"/></g></svg>