<svg height="18.5" viewBox="0 0 91.84 18.5" width="91.84" xmlns="http://www.w3.org/2000/svg"><path d="m1072.82 1395.01 2.73 12.76h4.53l4.83-17.79h-4.11l-2.96 12.47-2.75-12.47h-4.55l-2.75 12.47-2.94-12.47h-4.11l4.8 17.79h4.53zm18.19 1.76v-3.04h7.3v-3.75h-11.21v17.79h11.46v-3.75h-7.55v-3.59h6.67v-3.66zm10.73-6.79v17.79h6.06a7.5 7.5 0 0 0 4.18-.88 4.743 4.743 0 0 0 2.08-4.19 4.833 4.833 0 0 0 -2.14-4.32 4.511 4.511 0 0 0 1.65-3.71 4.464 4.464 0 0 0 -2.7-4.21 7.781 7.781 0 0 0 -3.3-.48zm3.9 3.75h2.25a1.592 1.592 0 1 1 .08 3.17h-2.33zm0 6.5h2.54a1.9 1.9 0 1 1 -.13 3.79h-2.41zm24.9 2.29a8.92 8.92 0 0 1 -5.27 1.85 5.1 5.1 0 0 1 -5.42-5.49c0-3.32 2.06-5.51 5.19-5.51a5.769 5.769 0 0 1 4.24 1.7l1.26-3.75a9.78 9.78 0 0 0 -5.52-1.69c-5.31 0-9.07 3.83-9.07 9.25 0 5.54 3.63 9.24 9.07 9.24a12.029 12.029 0 0 0 5.52-1.28zm4.01-12.54-2.24 17.79h3.96l1.14-11.02 3.16 11.02h3.76l3.17-11.02 1.13 11.02h3.97l-2.23-17.79h-4.4l-3.51 11.88-3.52-11.88z" fill="#fff" fill-rule="evenodd" transform="translate(-1060.75 -1389.62)"/></svg>