<svg height="281.46" viewBox="0 0 517.719 281.46" width="517.719" xmlns="http://www.w3.org/2000/svg"><g fill="#fff" fill-rule="evenodd" transform="translate(-117.469 -4512.38)"><path d="m136.581 4531.5-4.985 1.33v-6.56h4.941v-5.14h-4.937v-8.67h-5.3v8.67h-5.642v5.14h5.642v7.89c-2.231.6-4.374 1.11-6.123 1.47l1.443 5.42 4.68-1.24v9.08c0 .69-.219.92-.831.92-.569 0-2.406 0-4.155-.09a19.689 19.689 0 0 1 1.531 5.14c3.149 0 5.248-.14 6.735-1.01 1.487-.83 2.012-2.2 2.012-4.91v-10.65c1.88-.5 3.761-1.05 5.641-1.6zm24.316-15.6h-23.66v5.46h11.063v26.66a.994.994 0 0 1 -1.225 1.15c-.875 0-4.155.05-6.866-.14a21.37 21.37 0 0 1 2.055 5.97c4.068 0 7-.09 8.966-1.1 2.012-.97 2.711-2.57 2.711-5.79v-26.75h6.959v-5.46zm27.782 6.29v3.9h-8.353a27.072 27.072 0 0 0 2.887-3.9zm-11.633 3.9v4.54h28.121v-4.54h-11.327v-3.9h9.534v-4.64h-9.534v-5.09h-5.161v5.09h-3.061a34.02 34.02 0 0 0 1.356-3.53l-4.855-1.19a25.11 25.11 0 0 1 -6.21 10.69 31.984 31.984 0 0 1 4.33 2.57zm8.572 11.38h11.5v4.68h-11.5zm16.925 9.04v-13.35h-22v13.35zm-25.843-26.11a35.675 35.675 0 0 0 -7.3-6.93l-3.849 3.3a34 34 0 0 1 7.041 7.25zm-1.093 9.82h-10.107v5h5.03v9.68a56.206 56.206 0 0 1 -5.992 4.22l2.537 5.69c2.405-1.92 4.329-3.71 6.254-5.5 2.842 3.58 6.429 4.86 11.808 5.09 5.2.23 14 .14 19.243-.14a29.383 29.383 0 0 1 1.618-5.5c-5.817.46-15.657.59-20.774.36-4.548-.18-7.828-1.42-9.621-4.49v-14.41zm66.373 5.6v11.42h-9.753v-13.86h13.426v-16.65h-5.466v11.33h-7.96v-15.19h-5.335v15.19h-7.523v-11.33h-5.16v16.65h12.683v13.86h-9.141v-11.42h-5.291v19.45h5.291v-2.66h24.229v2.62h5.42v-19.41h-5.423zm20.5-23.22a48.83 48.83 0 0 1 -9.927 17.16 35.832 35.832 0 0 1 2.8 5.69 43.122 43.122 0 0 0 2.93-3.72v23.45h4.985v-31.57a70.99 70.99 0 0 0 4.155-9.41zm8.091 20.23c-1.006 5.1-2.843 10.28-5.336 13.49a32.3 32.3 0 0 1 4.461 2.94 48.492 48.492 0 0 0 5.948-15.32zm18.193-7.15c-.219 2.02-.481 3.94-.7 5.36l4.417.78c.613-2.66 1.356-6.92 1.881-10.64l-3.674-.73-.831.18h-15.052c.787-2.25 1.487-4.5 2.055-6.84l-5.073-1.19c-1.487 6.28-4.111 12.62-7.434 16.52a35.675 35.675 0 0 1 4.2 3.58 39.558 39.558 0 0 0 4.111-7.02h5.073v23.4a.653.653 0 0 1 -.787.78c-.612 0-2.449 0-4.286-.05a19.291 19.291 0 0 1 1.793 5.51c2.8 0 4.9-.23 6.429-1.1 1.574-.92 2.012-2.43 2.012-5.05v-23.49h5.86zm-4.286 8.35a60.119 60.119 0 0 1 4.417 15.09l4.986-1.79a58.562 58.562 0 0 0 -4.767-14.95zm31.653-13.13h-12.691v3.77h31.444v-3.77h-13.47v-1.88h16.094v-3.9h-16.094v-2.75h-5.291v2.75h-15.7v3.9h15.7v1.88zm12.376 26.66v2.8h-18.944v-2.8h18.937zm-24.053 7.71h5.117v-1.24h18.929v1.2h5.379v-11.29h-29.433v11.33zm20.074-20a26.486 26.486 0 0 1 -1.138 2.84h-9.009a14.151 14.151 0 0 0 -1.224-2.84h11.363zm-14.258-5.65h17.45v2.3h-17.45zm18.5 8.49a30.927 30.927 0 0 0 1.749-2.84h2.449v-9.09h-27.647v9.09h4.46l-1.836.46a16.541 16.541 0 0 1 1 2.38h-10.01v4.13h39.929v-4.13h-10.1zm49.189-14.36a55.83 55.83 0 0 1 -1.749 6.29l4.111 1.37a74.006 74.006 0 0 0 3.5-11.74l-3.5-1.01-.787.18h-10.89c.35-1.88.656-3.76.875-5.74l-4.942-.64c-.656 6.88-2.1 13.45-4.986 17.44a29.089 29.089 0 0 1 4.111 3.07 30.2 30.2 0 0 0 3.849-9.22zm-17.459 21.11a74.305 74.305 0 0 0 -4.242-7.53 74.4 74.4 0 0 0 4.723-19.04l-3.193-1.15-.831.18h-13.249v4.82h11.852a60.727 60.727 0 0 1 -2.668 10.14c-1.924-2.84-3.936-5.64-5.729-8.12l-3.63 3.03c2.231 3.17 4.767 6.93 7 10.6a28.889 28.889 0 0 1 -7.96 10.14 20.687 20.687 0 0 1 3.5 4.08 31.917 31.917 0 0 0 7.434-9.13 56.571 56.571 0 0 1 2.887 5.69zm12.989-18.91h-4.942v3.4c0 6.19-.919 15.69-11.283 22.16a18.9 18.9 0 0 1 3.673 3.85 25.906 25.906 0 0 0 10.5-12.94c2.056 5.69 5.073 10.15 9.884 12.9a18.567 18.567 0 0 1 3.324-4.64c-6.385-3.07-9.578-9.86-11.24-18.3.088-1.01.088-1.98.088-2.9v-3.53zm21.615 19.78v-9h6.954v9zm6.954-13.72h-6.954v-7.44h6.954zm13.864-12.53a54.89 54.89 0 0 0 1.705-5.83l-4.942-1.19a48.8 48.8 0 0 1 -5.9 14.78v-7.44h-6.778c.743-1.97 1.53-4.26 2.274-6.56l-5.686-.82a51.31 51.31 0 0 1 -1.268 7.38h-4.942v34.1h4.723v-3.35h11.677v-21.43a31.573 31.573 0 0 1 3.368 2.57 40.56 40.56 0 0 0 3.848-7.25h9.359c-.481 16.19-1.049 23.08-2.318 24.55a2.293 2.293 0 0 1 -1.924.78c-1.137 0-3.717 0-6.516-.28a13.329 13.329 0 0 1 1.7 5.32 45.573 45.573 0 0 0 6.867-.09 5.765 5.765 0 0 0 4.2-2.52c1.793-2.43 2.274-9.73 2.843-30.24.043-.64.043-2.48.043-2.48h-12.331zm5.078 20.93a109.619 109.619 0 0 0 -6.429-10.19l-4.067 2.43a99.708 99.708 0 0 1 6.079 10.6zm41.125-2.57h-4.854v12.11h-2.974v-12.11h-4.855v12.11h-9.142v4.59h32.406v-4.59h-10.584v-12.11zm-20.249 3.21a41.4 41.4 0 0 1 2.8 7.98l4.461-1.7a31.732 31.732 0 0 0 -3.1-7.7zm24.054-1.7a48.154 48.154 0 0 1 -3.586 8.03l3.63 1.42c1.53-1.97 3.367-5 5.116-7.84zm-7.479-6.29c-2.492 0-2.886-.18-2.886-1.51v-.09l9.315-.78-.262-3.58-9.053.73v-1.88h11.2c-.263 1.01-.525 1.97-.787 2.75l4.635 1.56a42.253 42.253 0 0 0 2.581-7.93l-4.024-1.01-.831.23h-12.471v-1.93h13.907v-4.31h-13.907v-2.85h-5.2v9.09h-13.562v10.5c0 6.02-.306 14.5-3.8 20.42a20.645 20.645 0 0 1 4.5 2.76c3.761-6.38 4.417-16.34 4.417-23.18v-6.1h8.441v2.3l-7.3.59.263 3.63 7.041-.6c.087 3.99 1.618 5.09 7.347 5.09h8.79c4.024 0 5.467-1.01 6.036-4.95a15.269 15.269 0 0 1 -4.242-1.42c-.175 2.11-.569 2.47-2.318 2.47h-7.829zm50.791-2.93a47.835 47.835 0 0 0 -4.155-9.78l-4.111 1.79a45.287 45.287 0 0 1 3.805 10.01zm-16.007 1.74-4.242 1.1v-6.88h4.2v-5.05h-4.2v-8.58h-5.029v8.58h-5.073v5.05h5.073v8.21c-2.187.55-4.242 1.06-5.948 1.43l1.268 5.18 4.68-1.24v9.73a.724.724 0 0 1 -.831.87c-.569 0-2.318 0-4.024-.09a20.8 20.8 0 0 1 1.443 4.91c3.018 0 5.074-.14 6.517-.96s1.924-2.12 1.924-4.78v-11.1c1.662-.46 3.236-.92 4.854-1.42zm11.152 5.32c-1.487.74-3.017 1.47-4.5 2.16v-25.15h-4.9v27.4q-2.691 1.23-4.724 2.06l2.274 5.23c3.893-1.97 8.7-4.58 13.12-6.97zm15.219 14.78c-1.093-2.94-3.673-7.02-6.122-10.51 2.668-6.74 3.324-15.69 3.28-27.53l-5.292.05c.306 20.69-1.4 31.56-15.613 36.57a22.606 22.606 0 0 1 3.368 4.86c5.116-2.25 8.79-5.05 11.414-8.76a50.111 50.111 0 0 1 4.417 8.67zm21.773-38.5c-.306 6.06.306 26.89-17.143 37.03a18.786 18.786 0 0 1 4.373 4.36c9.228-5.92 13.82-14.78 16.182-23.04 2.449 8.45 7.347 17.9 17.231 23.04a17.53 17.53 0 0 1 4.023-4.63c-16.313-8.04-18.5-27.81-18.849-34.14.044-.97.087-1.89.131-2.62zm42.2 19.18-4.023 1.19v-7.38h3.63v-5.19h-3.63v-8.81h-4.767v8.81h-2.056c.263-1.83.481-3.62.656-5.46l-4.329-.78c-.394 5.42-1.137 11.15-2.493 14.78a36.6 36.6 0 0 1 3.674 2.52 43.523 43.523 0 0 0 1.618-5.87h2.93v8.76c-2.974.87-5.642 1.61-7.828 2.11l1.268 5.19c2.012-.55 4.2-1.29 6.56-2.02v14.82h4.767v-16.34c1.618-.5 3.149-1.05 4.723-1.51zm7.785-13.12c.612-2.02 1.181-4.09 1.618-6.2l-4.723-.91c-1.312 6.74-3.718 13.3-7.173 17.29a30.071 30.071 0 0 1 3.936 3.08 34.515 34.515 0 0 0 4.5-8.22h2.23c-1.924 6.66-5.335 13.45-9.665 17.03a18.609 18.609 0 0 1 3.98 3.07c4.417-4.4 8.091-12.62 10.015-20.1h2.055c-2.186 10.74-6.56 21.16-13.557 26.44a19.6 19.6 0 0 1 4.242 3.16c7.041-6.1 11.546-18.03 13.689-29.6h.219c-.7 16.48-1.487 22.72-2.581 24.19a1.815 1.815 0 0 1 -1.618.87 32.676 32.676 0 0 1 -3.892-.19 15.906 15.906 0 0 1 1.443 5.33 23.907 23.907 0 0 0 4.942-.14 4.787 4.787 0 0 0 3.411-2.39c1.662-2.29 2.449-9.77 3.28-30.23.044-.65.088-2.48.088-2.48h-16.44zm25.045 38.08c5.423-1.7 8.616-5.92 8.616-11.15 0-3.85-1.618-6.28-4.724-6.28a4.062 4.062 0 0 0 -4.285 4.13 3.963 3.963 0 0 0 4.154 4.08 1.441 1.441 0 0 0 .481-.05c-.262 2.44-2.23 4.41-5.641 5.56z"/><path d="m214.271 4633.12v-12.32h-25.527v-26.14a162.21 162.21 0 0 0 23.076-6.11l-8.883-10.71c-12.661 4.82-32.776 8.89-51.155 11.36 1.328-2.9 2.451-5.68 3.574-8.58l-12.049-3.96c-5.615 15.86-15.315 31.39-25.526 41.25a100.634 100.634 0 0 1 7.147 13.39 99.725 99.725 0 0 0 8.271-9.86v54.85h12.15v-73.92a124.2 124.2 0 0 0 6.331-12.85 51.561 51.561 0 0 1 3.472 10.6c6.841-.85 14.09-1.82 21.238-3.1v23.78h-27.671v12.32h27.671v27.42h-23.59v12.22h60.45v-12.22h-24.506v-27.42zm33.476-56.89c-5 15.11-13.784 30.11-22.77 39.53a84.27 84.27 0 0 1 6.535 13.29 110.359 110.359 0 0 0 7.147-9v56.03h12.151v-76.39a179.5 179.5 0 0 0 8.373-19.6zm34.409 44.14v16.71h-11.333v-16.71zm11.334 27.75v-38.78h-34v45.74h11.334v-6.96zm27.671-62.57h-62.9v12.22h44.518v63.31c0 2.04-.613 2.68-2.655 2.68s-9.189 0-15.826-.32c1.735 3.75 3.675 9.32 4.084 13.07 9.5 0 16.439-.43 20.727-2.36 4.391-2.04 5.922-5.46 5.922-12.86v-63.52h6.127v-12.22zm48.272-6.75c-.715 14.14.714 62.78-40.026 86.46a43.39 43.39 0 0 1 10.211 10.18c21.544-13.82 32.265-34.5 37.779-53.78 5.718 19.71 17.154 41.78 40.229 53.78a41.057 41.057 0 0 1 9.394-10.82c-38.085-18.75-43.191-64.93-44.007-79.71.1-2.25.2-4.39.306-6.11zm93.28 28.61v-8.79h7.658c-1.838 3.11-3.676 6-5.616 8.79zm7.964 35.89h-16.439v-6.86h16.439zm-16.439 17.14v-7.61h16.439v7.61zm65.96-78.64-1.837.43h-29.407v2.04l-10.721-3.11a104.026 104.026 0 0 1 -5 12v-5.46h-10.52v-10.4h-11.232v10.4h-13.375v10.92h13.375v8.79h-17.766v11.14h21.748a94.609 94.609 0 0 1 -24.4 17.68 65.475 65.475 0 0 1 7.046 10.6c1.633-.96 3.369-2.03 5.105-3.21v32.46h11.027v-5.47h16.439v4.08h11.538v-48.32h-18.382c2.246-2.57 4.391-5.04 6.535-7.82h15.214v-11.14h-7.556a132.787 132.787 0 0 0 10.925-22.82v91.7h11.946v-82.06h12.968c-2.553 8.25-6.024 19.07-8.985 26.78 8.168 8.25 10.516 16.07 10.516 21.96 0 3.54-.714 6.11-2.654 7.29a8.041 8.041 0 0 1 -4.085.96 45.857 45.857 0 0 1 -6.432-.21 32.184 32.184 0 0 1 3.063 12.32 48.583 48.583 0 0 0 8.883-.11 15.05 15.05 0 0 0 7.148-2.89c4.084-2.79 5.718-8.03 5.718-16.07 0-6.86-1.736-15.32-10.415-24.85 4.186-9.43 8.679-21.54 12.355-31.82zm100.294 42.64c9.394 0 12.559-3.96 13.887-17.68-3.268-.75-8.271-2.78-10.721-4.71-.409 9.32-1.123 10.93-4.391 10.93h-11.129c-3.88 0-4.493-.43-4.493-4.29v-6.32a180.8 180.8 0 0 0 26.139-10.07l-7.76-9.21a155.714 155.714 0 0 1 -18.379 8.89v-15.32h-12.045v32.25c0 11.78 2.859 15.53 14.805 15.53h14.09zm-64.224 22.18v-6.32h15.316v6.32zm15.316-21.32v5.57h-15.316v-5.57zm11.946-10.5h-38.494v61.49h11.232v-20.25h15.316v7.18c0 1.29-.409 1.61-1.634 1.61a81.2 81.2 0 0 1 -8.985 0 48.692 48.692 0 0 1 3.88 11.25c6.126 0 10.823-.11 14.295-2.14 3.369-1.83 4.39-4.93 4.39-10.5zm-15.316-27.32c1.634 2.79 3.268 5.79 4.8 8.79l-13.58.64c2.553-5.68 5.31-12.11 7.658-18.32l-12.661-2.68a174.468 174.468 0 0 1 -7.454 21.53c-2.858.11-5.513.22-7.964.22l1.021 12.1c10.415-.64 24.3-1.5 37.779-2.46a40.815 40.815 0 0 1 1.838 5.68l11.13-4.72c-1.94-6.96-7.352-17.14-12.355-24.85zm40.026 77.03c-3.982 0-4.7-.54-4.7-4.29v-8.57c9.292-3 19.4-6.85 27.262-11.35l-8.066-9.32c-4.9 3.42-11.947 6.96-19.2 10.07v-14.47h-11.936v33.64c0 11.79 2.961 15.43 14.907 15.43h14.493c9.8 0 12.865-4.18 14.193-19.28-3.166-.86-8.067-2.79-10.619-4.72-.511 10.82-1.226 12.86-4.7 12.86zm-417.964 100.52c-10.823 11.03-32.878 16.28-56.567 18.43a39.033 39.033 0 0 1 5.616 10.39c25.833-3.32 48.4-9.64 61.672-23.79zm-12.151-11.25c-8.066 6.11-24.1 10.82-37.574 13.18a35.256 35.256 0 0 1 6.432 9c14.908-3.32 30.734-9 40.74-17.36zm35.431-15.1v-10.72h-50.746a78.266 78.266 0 0 0 3.063-7.39c9.189-.32 18.889-.75 28.283-1.18a67.944 67.944 0 0 1 6.024 7.07l10.415-6.53c-5.31-6.75-16.235-16.29-24.607-22.71l-9.6 5.89c2.348 1.82 4.8 3.85 7.249 6.1-9.6.33-19.2.54-28.283.86 3.063-4.07 6.228-8.68 9.087-12.96l-13.376-3.54a108.816 108.816 0 0 1 -9.087 16.82c-6.433.11-12.355.22-17.46.32l1.327 11.36c7.658-.21 16.746-.54 26.752-.96-1.021 2.35-2.042 4.71-3.165 6.85h-28.282v10.72h21.034a66.715 66.715 0 0 1 -24.709 18.31 60.7 60.7 0 0 1 8.883 9.86 84.15 84.15 0 0 0 17.664-12.53c1.532 1.6 3.063 3.53 4.186 4.92 10.007-2.35 21.953-6.64 29.917-12.53l-9.393-4.71c-4.8 3.21-13.07 6.21-20.83 8.35a83.328 83.328 0 0 0 9.088-11.67h20.727c7.556 11.35 18.583 21.53 30.121 27.31a49.728 49.728 0 0 1 7.862-10.07 69.677 69.677 0 0 1 -24.3-17.24h22.157zm48.676-25.93c.1-5.79.1-11.68.1-17.68h-11.944c0 6.11 0 12-.1 17.68h-11.948v12.43h11.844c-.715 25.07-3.472 45.53-14.908 59.13a32.927 32.927 0 0 1 8.884 9.32c13.171-15.85 16.745-39.85 17.766-68.45h10.313c-.613 35.78-1.43 49.06-3.37 51.96a3.648 3.648 0 0 1 -3.471 1.92c-1.94 0-5.616-.1-9.7-.42 2.145 3.64 3.268 9.21 3.472 12.74 4.8.22 9.394.22 12.355-.42a10.863 10.863 0 0 0 7.862-5.47c3.165-4.93 3.88-21.32 4.8-66.95.1-1.61.1-5.79.1-5.79zm39.413 58.92v-53.67h13.172v53.67zm-11.745-65.88v85.59h11.742v-7.39h13.172v6.64h12.15v-84.84zm106.315 44.13h9.189v-8.57c4.493 3.32 9.087 6.97 11.538 9.75l5.616-5.89a105.527 105.527 0 0 0 -12.151-9.64h11.845v-8.04h-8.067c2.042-2.46 4.493-5.78 7.25-9.42l-8.271-3.65a90.9 90.9 0 0 1 -5.82 10.61l5.31 2.46h-7.25v-13.17h-9.189v13.17h-7.863l5.514-2.78a31.24 31.24 0 0 0 -6.024-9.96l-6.842 3.53a35.286 35.286 0 0 1 5.207 9.21h-6.943v8.04h10.415a46.037 46.037 0 0 1 -12.865 9.64 35.5 35.5 0 0 1 6.024 6.96 51.46 51.46 0 0 0 13.376-12.21v9.96zm-20.319 7.07v-44.99h50.133v44.99h-20.622c.306-1.82.511-3.74.715-5.67h-12.661c-.2 2.03-.409 3.85-.715 5.67h-16.846zm70.759 10.72v-10.72h-8.986v-54.63h-31.343c.817-2.25 1.736-4.93 2.859-7.72l-13.172-1.07a83.464 83.464 0 0 1 -2.654 8.79h-28.692v54.63h-8.985v10.72h33.388c-4.492 7.6-14.09 12.43-35.839 15.1a36.8 36.8 0 0 1 5.616 10.72c25.935-3.86 37.268-11.15 42.68-22.72 7.76 13.82 19.6 20.47 40.536 23.04a46.567 46.567 0 0 1 7.352-12.21c-18.175-1.08-29.815-5.15-36.656-13.93h33.9zm122.255-33.21v-11.89h-65.552v11.89h17.563a213.8 213.8 0 0 1 -8.067 24.21c-3.165.21-6.126.43-8.781.53l1.838 12.65c13.172-1.4 31.653-3.22 49.215-5.04a64.305 64.305 0 0 1 2.757 7.5l10.721-5.89c-2.757-8.79-10.619-21.64-17.766-31.18l-9.8 5.04a140.389 140.389 0 0 1 8.577 13.5c-8.372.75-16.745 1.39-24.5 1.92 3.267-6.96 6.739-15.42 9.8-23.24h34zm-6.637-35.68h-52.173v11.79h52.176v-11.79zm-58.71 8.04c-3.472-3.97-10.721-9.43-16.541-12.75l-8.067 7.93c5.82 3.64 12.763 9.42 15.929 13.5zm-3.574 20.67c-3.676-3.96-11.232-9.1-17.154-12.21l-7.862 8.25c5.922 3.43 13.274 9 16.541 12.96zm-1.838 14.47h-23.28v11.78h11.436v15.96a155.193 155.193 0 0 1 -13.58 9.86l5.82 12.96c5.411-4.6 10.006-8.78 14.5-12.96 6.432 8.36 15.009 11.36 27.568 12 12.151.53 32.878.32 45.131-.32a66.717 66.717 0 0 1 3.778-12.64 473.52 473.52 0 0 1 -48.807.96c-10.721-.54-18.277-3.54-22.565-10.71v-26.89zm118.91 14.78h10.516l3.574-36.64.511-15.96h-18.686l.409 15.96zm5.207 28.5a10.215 10.215 0 0 0 10.619-10.5 10.619 10.619 0 0 0 -21.238 0 10.215 10.215 0 0 0 10.619 10.5z"/></g></svg>