<svg height="212.63" viewBox="0 0 593.155 212.63" width="593.155" xmlns="http://www.w3.org/2000/svg"><g fill="#fff" fill-rule="evenodd" transform="translate(-657.375 -2615.62)"><path d="m679.687 2626.16a39.925 39.925 0 0 0 -4.347-7l-3 1.76a35.786 35.786 0 0 1 4.172 7.27zm-9.811 9.12v-17.16h-3.819v17.69a4.807 4.807 0 0 1 -2.174 3.54 11.2 11.2 0 0 1 1.909 2.9c.852-.86 2.2-1.79 10.576-6.41a23.875 23.875 0 0 1 -.911-3.52zm20.651 6.97a60.049 60.049 0 0 0 -6.257-7.43c1.851-4.47 2.673-10.17 3-17.32l-3.73-.19c-.47 13.01-2.527 20.65-11.34 24.41a21.981 21.981 0 0 1 2.674 3.21 19.194 19.194 0 0 0 7.637-6.75 49.453 49.453 0 0 1 4.936 6.5zm9.22-20.93h14.394v11.84h3.379v-14.83h-9.283c.235-.58.528-1.23.822-1.88l-3.907-.58c-.205.73-.5 1.63-.822 2.46h-7.814v14.83h3.231zm13.748 9.31c-.705-.62-2.174-1.63-3.231-2.37h3.084v-2.44h-2.379c.558-.74 1.322-1.76 2.144-2.77l-2.556-1.17a22.012 22.012 0 0 1 -1.645 3.02l1.792.92h-2.232v-4.07h-2.967v4.07h-2.5l1.939-1.02a29.1 29.1 0 0 0 -1.7-2.8l-2.174 1.05a23.385 23.385 0 0 1 1.5 2.77h-2.056v2.44h2.937a16.065 16.065 0 0 1 -3.407 2.52 11.2 11.2 0 0 1 1.85 2.1 17.18 17.18 0 0 0 3.614-3.21v2.38h2.967v-3.79h1.645l-1.616 1.6a34.3 34.3 0 0 1 3.261 2.65zm6.58 6.72v-3.08h-11.75c.059-.5.117-1.02.176-1.51h-3.672c-.059.52-.117 1.01-.206 1.51h-10.692v3.08h9.723c-1.293 2.22-4 3.6-10.37 4.34a11.163 11.163 0 0 1 1.675 3.24c7.52-1.14 10.751-3.24 12.25-6.56 2.262 3.85 5.7 5.79 11.574 6.53a11.58 11.58 0 0 1 2.115-3.51c-5.141-.34-8.519-1.55-10.487-4.04zm16.488-5.73c-.676-.87-3.584-4.35-4.465-5.28v-.49h3.848v-3.45h-3.846v-6.38h-3.41v6.38h-4.641v3.45h4.142a28.689 28.689 0 0 1 -4.965 10.2 20.725 20.725 0 0 1 1.733 3.55 26.844 26.844 0 0 0 3.731-7.15v12.33h3.41v-13.84c.881 1.35 1.762 2.83 2.291 3.85zm13.807-5.77v-3.45h-5.17v-6.38h-3.526v6.38h-4.817v3.45h4.259a29.193 29.193 0 0 1 -6.462 11.34 18.529 18.529 0 0 1 1.968 3.36 27.764 27.764 0 0 0 5.052-8.26v12.49h3.526v-12.36a31.342 31.342 0 0 0 3.466 7.33 14.588 14.588 0 0 1 2.614-2.83 32.828 32.828 0 0 1 -5.375-11.07zm7.925 13.87v-18.52h4.318c-.088 6.87-.353 10.97-4.054 13.53a9.588 9.588 0 0 1 2.144 2.9c4.612-3.12 5.229-8.42 5.347-16.43h3.85v10.94c0 3.48.734 4.62 3.672 4.62h2.791c2.467 0 3.349-1.42 3.672-6.19a8.555 8.555 0 0 1 -3.055-1.48c-.118 3.67-.235 4.28-.97 4.28h-1.88c-.705 0-.793-.12-.793-1.26v-10.91h6.228v-3.52h-24.737v25.55h25.293v-3.51h-21.821zm32.629-12.08h12.544v3.36h-12.544zm12.485 13.34c-1.057 0-1.233-.12-1.233-1.14v-5.61h4.9v-9.8h-8.225v-2.46h11.163v-3.33h-11.158v-2.62h-3.556v2.62h-10.838v3.33h10.838v2.46h-7.755v9.8h3.937c-.47 3.61-1.587 5.92-8.138 7.22a11.878 11.878 0 0 1 2.057 3.42c7.667-1.91 9.224-5.46 9.841-10.64h3.349v5.65c0 3.45.852 4.56 4.289 4.56h3.76c2.879 0 3.819-1.27 4.171-6.2a10.38 10.38 0 0 1 -3.231-1.42c-.118 3.61-.265 4.16-1.263 4.16h-2.909zm14.561-24.84a32.864 32.864 0 0 1 -6.081 11.53 22.249 22.249 0 0 1 1.939 3.82c.588-.74 1.205-1.57 1.792-2.4v15.66h3.32v-21.61a55.6 55.6 0 0 0 2.35-5.95zm13.484 20.22v-8.04a46.264 46.264 0 0 0 3.613 8.04zm-6.992 0a40.754 40.754 0 0 0 3.584-7.83v7.83zm15.1-11.37v-3.48h-8.108v-5.34h-3.408v5.34h-7.432v3.48h5.786c-1.615 4.87-4.347 9.74-7.314 12.51a14.623 14.623 0 0 1 2.5 2.78 22.643 22.643 0 0 0 2.614-3.49v2.84h3.848v4.96h3.408v-4.96h3.936v-2.71a27.754 27.754 0 0 0 2.351 3.26 14.888 14.888 0 0 1 2.614-2.83c-2.85-2.81-5.552-7.62-7.168-12.36h6.375zm10.6 12.36v-1.48h11.78v1.48h-11.782zm11.78-5.43v1.42h-11.782v-1.42h11.78zm3.554-2.99h-18.861v15.91h3.525v-4.96h11.78v1.35c0 .53-.206.71-.823.71-.558.03-3 .03-4.818-.09a11.359 11.359 0 0 1 1.175 2.96 23.379 23.379 0 0 0 6.169-.43c1.352-.47 1.851-1.27 1.851-3.12v-12.33zm-5.2-4.87-9.047.4c1.087-.8 2.173-1.66 3.231-2.58h5.32l-1.116.74zm8.755-5.39h-10.4c-.5-.99-1.116-2.13-1.586-3.05l-3.5 1.02c.294.61.647 1.32.97 2.03h-11.514v3.21h6.14a23 23 0 0 1 -2.291 1.75 5.965 5.965 0 0 1 -2.027 1.02c.352 1.02.94 2.83 1.145 3.64 1.322-.53 3.114-.56 17.244-1.42.676.68 1.293 1.29 1.733 1.82l2.938-2.07c-1.205-1.26-3.408-3.14-5.229-4.74h6.375v-3.21zm19.6 6.97a65.661 65.661 0 0 0 7.815-6.48l-2.5-2.06-.764.31h-11.487v3.45h7.755a54.12 54.12 0 0 1 -4.759 3.7 9.908 9.908 0 0 1 -3.055 1.57c.441.92 1.146 2.65 1.41 3.42a4.951 4.951 0 0 1 2.614-.46h.294a14.492 14.492 0 0 1 -4.524 6.59l-.323-1.66-2.732 1.02v-8.23h2.905v-3.49h-2.9v-6.9h-3.261v6.9h-3.172v3.49h3.172v9.4c-1.38.49-2.585.92-3.613 1.23l1.146 3.73c2.673-1.08 6.051-2.5 9.136-3.82l-.088-.5a18.966 18.966 0 0 1 1.557 1.27 18.694 18.694 0 0 0 5.992-9.03h1.675c-1.557 5.92-4.407 10.66-8.725 13.5a20.393 20.393 0 0 1 2.644 1.97c4.318-3.33 7.462-8.63 9.253-15.47h1.029c-.441 7.83-1 11-1.675 11.74a1.141 1.141 0 0 1 -1.057.52 26.776 26.776 0 0 1 -2.674-.15 8.511 8.511 0 0 1 .94 3.42 17.3 17.3 0 0 0 3.467-.12 3.14 3.14 0 0 0 2.379-1.42c1.028-1.32 1.616-5.33 2.2-15.84.058-.46.088-1.6.088-1.6h-10.166zm21.685-4.26a22.866 22.866 0 0 0 -2.908-4.62l-3.055 1.32a26.558 26.558 0 0 1 2.732 4.72zm4.818 1.79c.029-1.05.058-2 .058-2.93v-4.19h-3.554v4.16c0 .93-.029 1.91-.088 2.96h-9.019v3.73h8.608a21.01 21.01 0 0 1 -9.342 14.61 12.55 12.55 0 0 1 2.791 2.71c6.932-4.78 9.371-11.43 10.193-17.32h8.519c-.293 8.75-.675 12.54-1.469 13.41a1.419 1.419 0 0 1 -1.263.49c-.793 0-2.467 0-4.259-.15a9.439 9.439 0 0 1 1.2 3.85 28.932 28.932 0 0 0 4.7-.09 3.873 3.873 0 0 0 2.909-1.7c1.145-1.51 1.527-5.95 1.909-17.78.029-.5.059-1.76.059-1.76h-11.956zm5.846 12.21a33.226 33.226 0 0 0 -3.584-5.61l-2.938 1.41a32.89 32.89 0 0 1 3.378 5.83zm29.895-4.87h-13.395v-1.88h13.4v1.88zm-13.4 9.67v-2.09h13.4v2.09h-13.395zm13.4-4.9h-13.395v-2h13.4v2zm6.756-11.77v-3.39h-6.58c.764-.96 1.586-2.1 2.35-3.27l-4.024-.92a24.818 24.818 0 0 1 -2.262 4.19h-6.735l1.292-.71a21.039 21.039 0 0 0 -2.849-3.64l-3.114 1.48a28.736 28.736 0 0 1 2.115 2.87h-6.727v3.39h11.163c-.147.65-.294 1.29-.5 1.94h-7.755v19.39h3.475v-1.45h13.4v1.45h3.642v-19.39h-8.871c.264-.62.558-1.26.822-1.94h11.163zm6.97 14.89v-6.05h4.671v6.05zm4.671-9.22h-4.671v-4.99h4.671zm9.312-8.41a37.215 37.215 0 0 0 1.146-3.92l-3.319-.8a32.576 32.576 0 0 1 -3.966 9.92v-4.99h-4.553c.5-1.32 1.028-2.86 1.527-4.41l-3.819-.55a34.36 34.36 0 0 1 -.852 4.96h-3.319v22.9h3.172v-2.25h7.844v-14.39a21.607 21.607 0 0 1 2.262 1.72 26.838 26.838 0 0 0 2.585-4.87h6.286c-.323 10.88-.705 15.51-1.557 16.49a1.534 1.534 0 0 1 -1.292.53 43.6 43.6 0 0 1 -4.377-.19 8.952 8.952 0 0 1 1.146 3.58 32.248 32.248 0 0 0 4.612-.06 3.9 3.9 0 0 0 2.82-1.7c1.2-1.63 1.527-6.53 1.909-20.31.029-.43.029-1.66.029-1.66h-8.288zm3.408 14.05a73.606 73.606 0 0 0 -4.318-6.84l-2.732 1.63a66.605 66.605 0 0 1 4.083 7.12z"/><path d="m709.1 2661.55-1.425.36h-14.323q1.933-1.935 3.665-3.85l-8.687-2.14c-4.546 5.56-12.622 11.62-23.547 15.89a25.729 25.729 0 0 1 5.5 6.06 83.144 83.144 0 0 0 14.387-8.48h16.9a47.989 47.989 0 0 1 -11.129 8.34 62.246 62.246 0 0 0 -6.786-5.27l-6.04 3.92a64.171 64.171 0 0 1 5.565 4.7 89.084 89.084 0 0 1 -20.087 5.42 31.932 31.932 0 0 1 3.732 7.48c19.544-3.84 38.817-12.68 47.571-29.08zm8.686 26.23-1.493.43h-12.151c1.493-1.57 2.782-3.14 4.14-4.78l-8.755-2.13c-5.157 6.91-14.522 13.9-28.5 18.46a26.52 26.52 0 0 1 4.954 6.56 81.82 81.82 0 0 0 19.612-10.62h15.407a35.666 35.666 0 0 1 -11.265 9.69c-2.1-1.92-4.682-3.92-6.786-5.49l-6.65 4.06a72.194 72.194 0 0 1 5.836 5c-8.619 3.27-18.866 4.91-29.724 5.7a36.569 36.569 0 0 1 3.258 8.2c25.855-2.57 48.113-10.06 57.682-31.73zm47.713 18.97h17.847v-7.35h-17.846v-6.13a30.343 30.343 0 0 1 3.8 3.42 27.8 27.8 0 0 0 5.836-7.13 105.734 105.734 0 0 1 7.533 7.56l4.547-5.49a119.615 119.615 0 0 0 -9.3-8.41 44.714 44.714 0 0 0 2.171-8.55l-7.193-.93c-1.018 6.77-3.393 12.55-7.4 16.54v-17.47h-7.8v16.75a87.671 87.671 0 0 0 -6.99-7.12 52.04 52.04 0 0 0 1.7-7.92l-7.261-.78c-1.018 7.7-3.6 14.33-8.619 18.39.2-3.63.272-7.06.272-10.12v-11.55h49.804v-7.84h-21.784a54.263 54.263 0 0 0 -4-7.34l-7.737 2.56a50.847 50.847 0 0 1 2.443 4.78h-26.672v19.32c0 10.48-.407 25.38-5.7 35.5a31.582 31.582 0 0 1 6.854 4.77c4.139-8.05 5.836-19.46 6.446-29.58a45.377 45.377 0 0 1 5.633 4.49 25.038 25.038 0 0 0 5.9-7.84 69.921 69.921 0 0 1 5.7 6.63l4-5.13v8.62h-17.229v7.35h17.237v7.05h-21.512v7.27h50.9v-7.27h-21.579v-7.05zm42.074-7.42h26.6v3.28h-26.6zm26.6-22.81v3.06h-26.6v-3.06zm0 15.25v2.79h-26.6v-2.79zm0-4.7h-26.6v-2.71h26.6zm16.9 22.53v-6.99h-8.754v-31.37h-18.463c.2-.99.339-2.06.611-3.2h24.973v-7.06h-23.684l.679-4.14-8.483-.85c-.068 1.5-.271 3.21-.407 4.99h-24.973v7.06h24.028c-.2 1.14-.407 2.21-.611 3.2h-16.224v31.37h-9.025v6.99h18.526c-4.343 2.78-12.283 5.84-18.866 7.41a54.874 54.874 0 0 1 5.5 5.77 78.609 78.609 0 0 0 20.494-8.55l-6.311-4.63h19.817l-4.344 4.7a109.155 109.155 0 0 1 19.544 8.41l6.719-5.7a139.519 139.519 0 0 0 -18.73-7.41h17.983zm13.22-38.85h40.784v8.34h8.483v-16.26h-22.874a60.3 60.3 0 0 0 -3.869-7.55l-8.075 2.63a40.687 40.687 0 0 1 2.307 4.92h-24.837v16.26h8.076v-8.34zm17.168 8.83c-2.1-2.49-6.582-5.56-10.043-7.34l-4.682 5.49c3.46 2.14 7.736 5.49 9.636 7.91zm-21.647 8.77c3.6 2.07 8.007 5.28 10.043 7.63l4.818-6.27c-2.171-2.35-6.718-5.28-10.247-7.06zm54.56 15.69v-7.13h-24.574c1.7-6.63 2.1-14.33 2.375-23.1h-8.55c-.271 9.2-.475 16.9-2.511 23.1h-25.514v7.13h21.92c-3.868 5.06-10.382 8.76-21.376 11.26a22.757 22.757 0 0 1 4.479 7.27c14.929-3.78 22.666-9.98 26.737-18.53h27.009zm-27.552 7.62c8.619 2.78 17.509 6.99 22.666 10.7l4.954-6.78a110.992 110.992 0 0 0 -23.887-10.12zm72.436-43.7c-.543 1.93-1.358 4.28-2.172 6.49h-14.799a28.63 28.63 0 0 0 -2.782-6.49h19.748zm20.765 6.49h-14.59c.679-1.57 1.357-3.13 2.036-4.77l-7.872-1.72h17.372v-7.27h-22.534a29.429 29.429 0 0 0 -2.036-4.92l-8.008 1.64c.407 1 .814 2.14 1.154 3.28h-22.937v7.27h16.354l-7.057 2a33.426 33.426 0 0 1 1.832 4.49h-14.319v6.85h60.6v-6.85zm-44.449 16.26h27.886v5.98h-27.891v-5.98zm28.1 23.38c-2.511 0-2.918-.22-2.918-2.35v-8.2h10.993v-19.68h-43.916v19.68h10.179c-1.629 6.27-5.564 9.76-20.019 11.9a27.734 27.734 0 0 1 4.14 7.27c17.236-3.28 22.122-9.41 24.022-19.17h6.515v8.34c0 7.27 1.9 9.62 9.84 9.62h8.89c6.175 0 8.347-2.49 9.161-12.4a23.406 23.406 0 0 1 -7.125-3.14c-.272 7.13-.679 8.13-2.851 8.13h-6.921zm41.936-27.66-6.248 1.64v-10.55h6.638v-7.84h-6.648v-13.55h-8.008v13.55h-7.8v7.84h7.8v12.62c-3.257.85-6.175 1.56-8.686 2.06l2.1 8.06 6.582-1.71v14.68c0 1.07-.271 1.43-1.289 1.43-.882 0-3.664 0-6.311-.07a38.192 38.192 0 0 1 2.307 7.7c4.751 0 8.008-.22 10.247-1.5 2.308-1.36 3.054-3.35 3.054-7.49v-17.03c2.448-.65 4.888-1.36 7.258-2.07zm28.36 3.85a39.7 39.7 0 0 1 -8.48 12.62 41.127 41.127 0 0 1 -8.01-12.62zm5.09-7.99-1.42.36h-8.15v-8.55h15.2v-7.85h-15.2v-10.19h-8.01v10.19h-14.59v7.85h14.59v8.55h-13.36v7.63h3.52l-2.03.64a56.946 56.946 0 0 0 9.64 16.97 51.22 51.22 0 0 1 -16.22 6.98 35.442 35.442 0 0 1 4.34 7.7 61.376 61.376 0 0 0 17.85-8.77 47.428 47.428 0 0 0 16.89 8.98 37.343 37.343 0 0 1 5.16-7.34 44.736 44.736 0 0 1 -15.67-7.2c5.7-5.99 10.04-13.76 12.62-23.67zm48.14-3.92a150.01 150.01 0 0 0 18.05-14.97l-5.77-4.77-1.76.71h-26.53v7.98h17.91a122.224 122.224 0 0 1 -10.99 8.56c-2.58 1.71-5.09 3.28-7.06 3.63 1.02 2.14 2.65 6.13 3.26 7.92.61-.72 3.39-1.07 6.04-1.07h.68a33.67 33.67 0 0 1 -10.45 15.25l-.75-3.85-6.31 2.36v-19.04h6.72v-8.05h-6.72v-15.97h-7.53v15.97h-7.33v8.05h7.33v21.74c-3.19 1.14-5.98 2.14-8.35 2.86l2.65 8.62c6.17-2.49 13.97-5.77 21.1-8.84l-.2-1.14a41.662 41.662 0 0 1 3.59 2.92c6.04-4.7 11-12.04 13.85-20.88h3.86c-3.59 13.68-10.17 24.66-20.15 31.22a46.913 46.913 0 0 1 6.11 4.56c9.97-7.7 17.23-19.96 21.37-35.78h2.38c-1.02 18.1-2.31 25.45-3.87 27.16a2.655 2.655 0 0 1 -2.44 1.21 59.065 59.065 0 0 1 -6.18-.36 19.618 19.618 0 0 1 2.17 7.92 38.747 38.747 0 0 0 8.01-.29 7.29 7.29 0 0 0 5.5-3.28c2.37-3.06 3.73-12.33 5.09-36.64.13-1.07.2-3.71.2-3.71zm41.93 2.21h6.86v-8.05h-6.86v-15.47h-7.53v15.47h-7.94v8.05h7.94v20.03c-3.39 1.43-6.38 2.64-8.82 3.57l3.26 8.55c6.24-3.06 13.98-6.84 21.17-10.62l-1.83-7.48c-2.04.92-4.14 1.85-6.25 2.78zm23.14 33.22c-4.14 0-4.75-.64-4.75-4.84v-21.96l5.64-2.57v21.74h7.53v-25.16l5.84-2.71c0 10.12-.07 15.33-.21 16.47-.27 1.28-.68 1.57-1.49 1.57a27.972 27.972 0 0 1 -3.26-.15 24.564 24.564 0 0 1 1.7 7.13c2.17 0 5.09-.07 7.06-.99 2.03-.93 3.25-2.64 3.46-5.92.34-2.92.47-11.48.47-25.02l.27-1.43-5.63-2.07-1.42 1-1.43 1-5.36 2.42v-16.25h-7.53v19.68l-5.64 2.49v-15.26h-7.73v18.75l-6.65 2.93 2.98 7.55 3.67-1.64v18.32c0 9.84 2.64 12.48 11.81 12.48h14.45c7.94 0 10.31-3.42 11.4-13.4a20.041 20.041 0 0 1 -7.06-3.07c-.61 7.27-1.29 8.91-5.02 8.91z"/><path d="m679.733 2771.39a123.619 123.619 0 0 0 22.835-20.53 125.33 125.33 0 0 0 23.022 20.53zm51.871 10.37v-6.32c2.819 1.68 5.92 3.45 9.021 5.23 1.409-3.45 4.7-7.4 7.517-10.07-15.035-6.91-28-15.59-39.184-28.13.563-.88 1.127-1.77 1.691-2.66l-9.961-4.84c-9.4 15.3-26.5 28.13-43.319 35.44a42 42 0 0 1 7.611 9.77q4.651-2.37 9.021-5.04v6.62h22.741v11.35h-21.425v10.26h21.425v11.85h-33.735v10.56h79.873v-10.56h-34.392v-11.85h22.364v-10.26h-22.364v-11.35h23.112zm58.231 19.54v12.04h-20.11v-12.04zm-30.728 26.65h10.618v-4.44h20.11v3.94h10.994v-36.61h-41.722zm28.848-70.67a119.036 119.036 0 0 1 -5.262 15.79h-11.182l5.638-1.68a72.953 72.953 0 0 0 -5.168-14.11zm3.571 0h10.994v-10.56h-15.88a106.264 106.264 0 0 0 -4.511-11.65l-10.242 3.06a66.333 66.333 0 0 1 3.007 8.59h-17.76v10.56h12.591l-7.611 1.97a75.154 75.154 0 0 1 4.7 13.82h-12.029v10.66h49.615v-10.66h-11c1.88-4.14 3.759-9.28 5.733-14.01zm42.192-17.17-1.6.39h-24.241v87.15h9.772v-76.59h10.525c-2.162 7.5-5.075 17.57-7.706 24.77 7.142 7.9 9.115 15.01 9.115 20.34 0 3.35-.564 5.82-2.161 6.81a6.011 6.011 0 0 1 -3.477.98c-1.315 0-3.2 0-5.262-.19a29.3 29.3 0 0 1 2.725 10.85 35 35 0 0 0 7.236-.19 13.65 13.65 0 0 0 6.2-2.37c3.477-2.57 4.981-7.41 4.981-14.51 0-6.42-1.41-14.21-8.927-23.1 3.571-8.49 7.423-19.84 10.618-29.31zm28.1 17.17h57.226v13.23h11.746v-24.48h-32.415a74.464 74.464 0 0 0 -5.074-11.25l-11.464 3.55a80.291 80.291 0 0 1 3.2 7.7h-34.3v24.48h11.088v-13.23zm52.9 17.96v-10.85h-48.574v10.85h48.582zm-3.289 40.67c-3.289 0-3.853-.4-3.853-3.56v-18.85h25.09v-11.05h-83.718v11.05h23.21c-.845 14.21-3.664 20.93-24.9 24.58a31.563 31.563 0 0 1 5.92 9.97c24.807-5.14 29.224-15.7 30.445-34.55h12.592v18.95c0 10.66 2.631 14.21 13.532 14.21h11.746c8.833 0 11.746-3.84 12.967-18.16-3.1-.79-7.8-2.66-10.054-4.44-.47 10.17-.94 11.85-3.947 11.85h-9.021zm114.983-11.65v-10.56h-37.3c.282-1.68.564-3.36.752-5.13h38.619v-10.17h-37.4v-5.23h28.758v-9.87h-28.749v-5.03h32.518v-10.37h-17.29c2.06-2.86 4.22-6.12 6.29-9.57l-12.03-3.26a92.513 92.513 0 0 1 -6.669 12.83h-20.673l2.726-1.28a44 44 0 0 0 -7.048-11.55l-9.961 4.15a56.484 56.484 0 0 1 5.263 8.68h-16.818v10.37h32.137v5.03h-27.817v9.87h27.814v5.23h-36.083v10.17h34.58c-.188 1.77-.47 3.55-.752 5.13h-31.009v10.56h26.968c-4.6 6.32-13.437 10.56-31.761 13.13a30.424 30.424 0 0 1 5.544 10.56c23.3-4.05 33.641-11.06 38.527-21.72 7.612 12.74 18.982 19.25 37.872 21.91a40.23 40.23 0 0 1 6.67-10.95c-15.69-1.28-26.59-5.33-33.266-12.93h29.6zm32.21-14.41v-4.44h15.59v4.44zm0-15.89h15.59v4.44h-15.59zm43.32 0v4.44h-16.442v-4.44h16.45zm0 15.89h-16.442v-4.44h16.45v4.44zm-16.442 26.15v-5.23h31.39v-8.78h-31.39v-4.44h27.91v-31.29h-27.91v-3.75h36.84v-9.18h-36.84v-5.13c10.24-.79 20.02-1.88 28.19-3.26l-5.17-9.08c-15.88 2.77-41.34 4.44-63.24 4.94a32.359 32.359 0 0 1 2.26 8.98c8.45-.1 17.66-.4 26.68-.79v4.34h-35.89v9.18h35.89v3.75h-26.49v31.29h26.49v4.44h-29.6v8.78h29.6v5.23h-36.45v9.28h85.22v-9.28zm92.72-65.63h23.87v42.24h11.08v-52.31h-45.48v52.31h10.53zm-13.72 47.57c-3.57.99-7.05 1.98-10.62 2.96v-20.33h8.74v-10.76h-8.74v-17.37h10.71v-10.95h-32.98v10.95h11.46v17.37h-10.05v10.76h10.05v23.2c-4.88 1.28-9.49 2.46-13.25 3.25l2.17 11.26c9.67-2.87 22.27-6.32 33.92-9.78zm37.21 19.64c-2.07 0-2.73-.88-2.73-3.55v-21.71h-6.1a82.045 82.045 0 0 0 2.35-19.94v-15.89h-10.34v15.59c0 15.2-2.63 34.75-26.5 47.87a38.049 38.049 0 0 1 6.95 8.29 54.235 54.235 0 0 0 23.4-24.57v11.64c0 8.39 3.01 10.76 10.81 10.76h6.86c9.49 0 11.09-4.54 12.12-19.93a28.459 28.459 0 0 1 -8.74-4.25c-.28 12.83-.84 15.69-3.29 15.69zm34.26-23.49h9.68l3.29-33.75.46-14.71h-17.19l.47 14.71zm4.79 26.26a9.4 9.4 0 0 0 9.77-9.67 9.77 9.77 0 1 0 -19.54 0 9.4 9.4 0 0 0 9.77 9.67z"/></g></svg>