<svg height="21.09" viewBox="0 0 84.624 21.09" width="84.624" xmlns="http://www.w3.org/2000/svg"><path d="m769.478 1397.63v-3.33h-4.449v-5.36h-3.316v5.36h-4.7v-4.96h-3.213v7.49c0 3.6-.294 7.67-2.854 10.54a12.7 12.7 0 0 1 2.392 2.67 13.445 13.445 0 0 0 3.148-6.64h7.554v6.46h3.379v-9.83h-10.49c.042-.82.063-1.61.084-2.4zm12.705-5.78a19.344 19.344 0 0 0 -5.037-2.49l-1.637 2.27a19 19 0 0 1 4.911 2.76zm10.2 9.77v-2.96h-6.883a65.258 65.258 0 0 0 .483-9.69h-3.19a55.66 55.66 0 0 1 -.462 9.69h-3.651l1.763-2.27a19.555 19.555 0 0 0 -5.12-2.71l-1.763 2.25a21.28 21.28 0 0 1 4.742 2.73h-5.1v2.96h8.142c-1.3 2.53-3.777 4.34-8.5 5.53a9.625 9.625 0 0 1 1.742 2.69c6.023-1.63 8.835-4.43 10.178-8.22h7.617zm-8.751 3.66a28.509 28.509 0 0 1 7.03 4.34l1.973-2.51a33.684 33.684 0 0 0 -7.429-4.15zm20.176-14.7h-8.331v2.79h8.331zm7.114 6.03c-.147 6.4-.315 8.97-.735 9.55a.8.8 0 0 1 -.755.39c-.441 0-1.154 0-1.994-.06a27.7 27.7 0 0 0 1.868-9.88zm-1.511-3.06c.021-1.37.021-2.78.021-4.23h-3.022c0 1.48 0 2.89-.021 4.23h-1.972v3.06h1.909a21.9 21.9 0 0 1 -1.427 7.85 42.05 42.05 0 0 0 -1.7-4.83l-2.435.71c.273.73.567 1.54.819 2.36l-2.77.72a38.141 38.141 0 0 0 1.574-4.91h3.777v-2.89h-9.364v2.89h2.455a33.865 33.865 0 0 1 -1.343 4.87 2.367 2.367 0 0 1 -1.091 1.43 24.7 24.7 0 0 1 .965 2.82.145.145 0 0 1 .021-.08v.08c.65-.44 1.616-.81 6.5-2.27a7.211 7.211 0 0 1 .168.8l1.868-.62a9.4 9.4 0 0 1 -1.364 1.81 9.175 9.175 0 0 1 2.245 2.49 12.151 12.151 0 0 0 2.14-3.22 8.5 8.5 0 0 1 .84 2.98 12.891 12.891 0 0 0 2.77-.14 2.631 2.631 0 0 0 1.867-1.3c.693-1.05.882-4.36 1.071-13.22 0-.38.021-1.39.021-1.39h-4.533zm22.631 12.32h-12v-9.85h-3.148v12.83h15.146v.97h3.085v-13.89h-3.085v9.94zm-3.652-7.47h-1.154v-1.28h1.154zm0 3.7h-1.154v-1.3h1.154zm-4.889-1.3h1.133v1.3h-1.134v-1.3zm0-3.68h1.133v1.28h-1.134v-1.28zm-2.476-2.58v10.14h9.968v-10.14zm-4.554-4.36v2.97h19.1v-2.97z" fill="#fff" fill-rule="evenodd" transform="translate(-750.938 -1388.94)"/></svg>