<svg height="216.09" viewBox="0 0 397.437 216.09" width="397.437" xmlns="http://www.w3.org/2000/svg"><g fill="#fff" fill-rule="evenodd" transform="translate(-127.219 -3343.03)"><path d="m143.874 3357.71-3.828 1.02v-5.04h3.794v-3.94h-3.794v-6.66h-4.062v6.66h-4.331v3.94h4.331v6.06c-1.713.46-3.358.85-4.7 1.13l1.108 4.16 3.593-.95v6.97c0 .53-.168.71-.638.71-.437 0-1.847 0-3.19-.07a14.945 14.945 0 0 1 1.175 3.94c2.418 0 4.029-.11 5.171-.77 1.141-.64 1.544-1.7 1.544-3.77v-8.18c1.444-.38 2.888-.81 4.331-1.23zm18.667-11.98h-18.164v4.2h8.494v20.46a.76.76 0 0 1 -.94.88c-.671 0-3.189.04-5.271-.1a16.27 16.27 0 0 1 1.578 4.58c3.123 0 5.372-.07 6.883-.85 1.544-.74 2.081-1.97 2.081-4.44v-20.53h5.339zm21.328 4.83v2.99h-6.413a20.324 20.324 0 0 0 2.216-2.99h4.2zm-8.931 2.99v3.49h21.588v-3.49h-8.7v-2.99h7.319v-3.56h-7.319v-3.91h-3.962v3.91h-2.35a27 27 0 0 0 1.041-2.71l-3.727-.92a19.332 19.332 0 0 1 -4.768 8.21 25.2 25.2 0 0 1 3.324 1.97h-2.451zm6.581 8.74h8.83v3.59h-8.83zm12.993 6.94v-10.25h-16.888v10.25zm-19.842-20.04a27.321 27.321 0 0 0 -5.607-5.32l-2.955 2.53a26.084 26.084 0 0 1 5.406 5.57zm-.84 7.53h-7.755v3.84h3.861v7.44a45.022 45.022 0 0 1 -4.6 3.24l1.948 4.37c1.846-1.48 3.323-2.86 4.8-4.23 2.182 2.75 4.935 3.73 9.065 3.91 4 .17 10.743.1 14.772-.11a22.547 22.547 0 0 1 1.242-4.22c-4.465.35-12.019.45-15.947.28-3.492-.14-6.01-1.09-7.387-3.46v-11.06zm50.954 4.3v8.77h-7.484v-10.64h10.308v-12.78h-4.2v8.7h-6.108v-11.66h-4.1v11.66h-5.774v-8.7h-3.962v12.78h9.736v10.64h-7.017v-8.77h-4.062v14.94h4.062v-2.05h18.6v2.01h4.164v-14.9h-4.164zm15.735-17.82a37.424 37.424 0 0 1 -7.621 13.17 27.349 27.349 0 0 1 2.149 4.37 35.225 35.225 0 0 0 2.249-2.85v18h3.828v-24.24a54.434 54.434 0 0 0 3.189-7.22zm6.212 15.53c-.773 3.91-2.183 7.89-4.1 10.36a24.644 24.644 0 0 1 3.424 2.25 37.137 37.137 0 0 0 4.566-11.76zm13.966-5.49c-.167 1.55-.369 3.03-.537 4.12l3.391.6c.47-2.05 1.041-5.32 1.444-8.18l-2.82-.56-.638.14h-11.55a54.219 54.219 0 0 0 1.578-5.25l-3.894-.91c-1.142 4.82-3.156 9.68-5.708 12.68a27.891 27.891 0 0 1 3.223 2.75 30.4 30.4 0 0 0 3.156-5.39h3.895v17.96a.5.5 0 0 1 -.6.6c-.47 0-1.88 0-3.29-.03a14.694 14.694 0 0 1 1.377 4.22 10.137 10.137 0 0 0 4.935-.84c1.209-.71 1.544-1.87 1.544-3.88v-18.03h4.5zm-3.29 6.41a46.137 46.137 0 0 1 3.391 11.59l3.828-1.38a45.062 45.062 0 0 0 -3.66-11.48zm24.3-10.08h-9.737v2.89h24.14v-2.89h-10.341v-1.44h12.355v-3h-12.355v-2.11h-4.062v2.11h-12.053v3h12.053zm9.5 20.47v2.15h-14.536v-2.15h14.537zm-18.466 5.92h3.929v-.95h14.537v.91h4.13v-8.66h-22.6v8.7zm15.411-15.36a19.62 19.62 0 0 1 -.873 2.18h-6.916a10.9 10.9 0 0 0 -.94-2.18zm-10.945-4.33h13.4v1.76h-13.4zm14.2 6.51a23.121 23.121 0 0 0 1.342-2.18h1.881v-6.98h-21.216v6.98h3.424l-1.41.35a13.083 13.083 0 0 1 .773 1.83h-7.689v3.17h30.653v-3.17h-7.755zm37.762-11.02a42.405 42.405 0 0 1 -1.343 4.82l3.156 1.06a56.6 56.6 0 0 0 2.686-9.02l-2.686-.77-.6.14h-8.36c.269-1.45.5-2.89.672-4.41l-3.794-.49c-.5 5.29-1.612 10.32-3.828 13.39a21.512 21.512 0 0 1 3.156 2.36 23.26 23.26 0 0 0 2.955-7.08h7.99zm-13.4 16.2a57.86 57.86 0 0 0 -3.256-5.78 57.1 57.1 0 0 0 3.626-14.61l-2.451-.89-.638.15h-10.166v3.69h9.1a46.733 46.733 0 0 1 -2.048 7.79c-1.477-2.18-3.021-4.33-4.4-6.24l-2.786 2.33c1.712 2.43 3.659 5.32 5.371 8.14a22.153 22.153 0 0 1 -6.11 7.78 15.892 15.892 0 0 1 2.686 3.14 24.787 24.787 0 0 0 5.707-7.01 42.961 42.961 0 0 1 2.216 4.36zm9.972-14.51h-3.794v2.6c0 4.76-.7 12.05-8.662 17.02a14.186 14.186 0 0 1 2.82 2.96 19.925 19.925 0 0 0 8.058-9.94c1.578 4.37 3.894 7.79 7.587 9.9a14.524 14.524 0 0 1 2.552-3.56c-4.9-2.36-7.353-7.57-8.628-14.05.067-.78.067-1.52.067-2.22zm16.594 15.18v-6.9h5.338v6.9zm5.338-10.53h-5.338v-5.71h5.338zm10.643-9.62a42.661 42.661 0 0 0 1.31-4.47l-3.794-.92a37.315 37.315 0 0 1 -4.533 11.34v-5.7h-5.2c.571-1.52 1.175-3.28 1.746-5.04l-4.364-.63a39.716 39.716 0 0 1 -.974 5.67h-3.794v26.17h3.626v-2.57h8.964v-16.45a24.192 24.192 0 0 1 2.585 1.97 30.73 30.73 0 0 0 2.955-5.56h7.185c-.37 12.43-.806 17.71-1.78 18.84a1.741 1.741 0 0 1 -1.477.6c-.873 0-2.854 0-5-.21a10.17 10.17 0 0 1 1.309 4.09 35.233 35.233 0 0 0 5.271-.08 4.417 4.417 0 0 0 3.223-1.93c1.377-1.87 1.746-7.47 2.182-23.22.034-.49.034-1.9.034-1.9h-9.468zm3.9 16.06a85.838 85.838 0 0 0 -4.936-7.82l-3.122 1.87a75.486 75.486 0 0 1 4.667 8.14zm31.571-1.97h-3.726v9.3h-2.281v-9.3h-3.727v9.3h-7.017v3.52h24.878v-3.52h-8.125v-9.3zm-15.544 2.47a31.6 31.6 0 0 1 2.148 6.13l3.425-1.31a24.439 24.439 0 0 0 -2.384-5.91zm18.465-1.31a36.85 36.85 0 0 1 -2.753 6.17l2.787 1.09c1.175-1.51 2.585-3.84 3.928-6.02zm-5.741-4.82c-1.913 0-2.216-.14-2.216-1.16v-.07l7.152-.6-.2-2.75-6.95.56v-1.44h8.6c-.2.77-.4 1.51-.6 2.11l3.559 1.2a32.506 32.506 0 0 0 1.981-6.1l-3.089-.77-.638.18h-9.569v-1.48h10.677v-3.31h-10.686v-2.19h-4v6.98h-10.403v8.06c0 4.62-.235 11.13-2.921 15.68a15.954 15.954 0 0 1 3.458 2.11c2.888-4.89 3.391-12.54 3.391-17.79v-4.68h6.48v1.76l-5.607.46.2 2.78 5.4-.46c.067 3.07 1.242 3.91 5.641 3.91h6.748c3.089 0 4.2-.77 4.633-3.8a11.956 11.956 0 0 1 -3.257-1.09c-.134 1.62-.436 1.9-1.779 1.9h-6.01zm38.992-2.26a36.838 36.838 0 0 0 -3.19-7.5l-3.156 1.37a34.856 34.856 0 0 1 2.921 7.68zm-12.288 1.34-3.257.85v-5.29h3.223v-3.87h-3.223v-6.59h-3.861v6.59h-3.893v3.87h3.895v6.31c-1.679.42-3.257.81-4.566 1.09l.974 3.98 3.592-.95v7.47a.56.56 0 0 1 -.638.67c-.436 0-1.779 0-3.089-.07a15.884 15.884 0 0 1 1.108 3.77c2.317 0 3.9-.11 5-.74s1.477-1.62 1.477-3.67v-8.52c1.276-.35 2.484-.71 3.727-1.09zm8.561 4.09c-1.142.56-2.317 1.13-3.458 1.65v-19.3h-3.76v21.03q-2.065.945-3.626 1.59l1.745 4.01c2.989-1.51 6.682-3.52 10.073-5.35zm11.684 11.34a42.528 42.528 0 0 0 -4.7-8.07c2.048-5.17 2.552-12.04 2.518-21.13l-4.062.03c.235 15.89-1.074 24.24-11.986 28.08a17.562 17.562 0 0 1 2.585 3.73 19.989 19.989 0 0 0 8.763-6.73 39.148 39.148 0 0 1 3.391 6.66zm16.715-29.55c-.235 4.65.235 20.64-13.161 28.42a14.424 14.424 0 0 1 3.357 3.35c7.084-4.54 10.609-11.34 12.422-17.68 1.881 6.48 5.641 13.74 13.228 17.68a13.589 13.589 0 0 1 3.089-3.56c-12.523-6.16-14.2-21.34-14.47-26.21.034-.74.067-1.44.1-2h-4.566zm32.4 14.72-3.089.92v-5.67h2.787v-3.99h-2.787v-6.76h-3.66v6.76h-1.582c.2-1.4.37-2.78.5-4.19l-3.324-.6c-.3 4.16-.873 8.56-1.914 11.35a29.2 29.2 0 0 1 2.821 1.93 32.951 32.951 0 0 0 1.242-4.5h2.249v6.72c-2.283.67-4.331 1.24-6.009 1.62l.973 3.98c1.545-.42 3.223-.98 5.036-1.55v11.38h3.66v-12.54c1.242-.39 2.417-.81 3.626-1.16zm5.976-10.07c.47-1.55.906-3.14 1.242-4.76l-3.626-.7c-1.007 5.17-2.854 10.21-5.506 13.28a22.153 22.153 0 0 1 3.022 2.36 26.628 26.628 0 0 0 3.458-6.31h1.712c-1.477 5.11-4.1 10.32-7.42 13.07a14.2 14.2 0 0 1 3.055 2.36c3.391-3.38 6.212-9.69 7.689-15.43h1.578c-1.679 8.24-5.036 16.24-10.408 20.29a14.99 14.99 0 0 1 3.257 2.43c5.4-4.68 8.863-13.84 10.508-22.72h.168c-.537 12.65-1.141 17.44-1.981 18.57a1.389 1.389 0 0 1 -1.242.66 26.128 26.128 0 0 1 -2.988-.14 12.221 12.221 0 0 1 1.108 4.09 18.031 18.031 0 0 0 3.794-.11 3.647 3.647 0 0 0 2.619-1.83c1.275-1.76 1.88-7.5 2.518-23.21.033-.49.067-1.9.067-1.9zm19.227 29.23c4.163-1.3 6.614-4.54 6.614-8.56 0-2.96-1.242-4.82-3.626-4.82a3.12 3.12 0 0 0 -3.29 3.17 3.037 3.037 0 0 0 3.189 3.13 1.407 1.407 0 0 0 .37-.03c-.2 1.87-1.713 3.38-4.331 4.26z"/><path d="m201.516 3435.72v-9.46h-19.6v-20.07a124.6 124.6 0 0 0 17.715-4.68l-6.819-8.23c-9.72 3.7-25.162 6.83-39.272 8.72 1.019-2.22 1.882-4.36 2.744-6.58l-9.25-3.04c-4.311 12.17-11.758 24.09-19.6 31.66a78.15 78.15 0 0 1 5.487 10.28 76.087 76.087 0 0 0 6.349-7.56v42.1h9.33v-56.74a95.6 95.6 0 0 0 4.86-9.87 39.31 39.31 0 0 1 2.665 8.14c5.252-.66 10.817-1.4 16.3-2.39v18.26h-21.233v9.46h21.242v21.05h-18.107v9.38h46.405v-9.38h-18.813v-21.05h19.6zm25.7-43.67c-3.841 11.59-10.582 23.11-17.48 30.35a64.534 64.534 0 0 1 5.017 10.19 83.419 83.419 0 0 0 5.487-6.9v43.01h9.328v-58.64a137.786 137.786 0 0 0 6.427-15.05zm26.416 33.88v12.83h-8.7v-12.83zm8.7 21.3v-29.77h-26.1v35.12h8.7v-5.35zm21.242-48.03h-48.285v9.38h34.176v48.61c0 1.56-.47 2.05-2.038 2.05s-7.055 0-12.15-.25a38.08 38.08 0 0 1 3.136 10.04c7.289 0 12.62-.33 15.912-1.81 3.37-1.56 4.546-4.2 4.546-9.87v-48.77h4.7v-9.38zm37.058-5.18c-.548 10.86.549 48.2-30.727 66.37a33.567 33.567 0 0 1 7.839 7.82c16.539-10.61 24.77-26.49 29-41.29 4.39 15.13 13.169 32.07 30.884 41.29a31.516 31.516 0 0 1 7.212-8.31c-29.238-14.39-33.157-49.84-33.784-61.19.078-1.73.156-3.37.235-4.69zm71.611 21.96v-6.74h5.879c-1.411 2.38-2.822 4.6-4.311 6.74zm6.114 27.55h-12.62v-5.26h12.62zm-12.62 13.16v-5.84h12.62v5.84zm50.637-60.37-1.411.33h-22.575v1.57l-8.23-2.39a79.87 79.87 0 0 1 -3.841 9.21v-4.19h-8.074v-7.98h-8.622v7.98h-10.269v8.39h10.269v6.74h-13.639v8.55h16.7a72.474 72.474 0 0 1 -18.734 13.57 50.572 50.572 0 0 1 5.408 8.15c1.254-.74 2.587-1.57 3.919-2.47v24.92h8.466v-4.2h12.62v3.13h8.858v-37.09h-14.11c1.725-1.98 3.371-3.87 5.017-6.01h11.674v-8.55h-5.8a101.492 101.492 0 0 0 8.387-17.52v70.4h9.172v-62.99h9.955c-1.96 6.33-4.625 14.63-6.9 20.56 6.27 6.33 8.073 12.33 8.073 16.86 0 2.71-.548 4.68-2.038 5.59a6.184 6.184 0 0 1 -3.135.74 34.684 34.684 0 0 1 -4.938-.17 24.774 24.774 0 0 1 2.351 9.46 36.2 36.2 0 0 0 6.82-.08 11.57 11.57 0 0 0 5.487-2.22c3.135-2.14 4.389-6.17 4.389-12.34 0-5.26-1.332-11.76-8-19.08 3.214-7.24 6.663-16.53 9.485-24.42zm77 32.74c7.211 0 9.641-3.05 10.66-13.57a25.23 25.23 0 0 1 -8.23-3.62c-.314 7.15-.863 8.39-3.371 8.39h-8.544c-2.979 0-3.449-.33-3.449-3.29v-4.85a138.691 138.691 0 0 0 20.067-7.74l-5.958-7.07a119.465 119.465 0 0 1 -14.109 6.83v-11.76h-9.25v24.75c0 9.05 2.195 11.93 11.366 11.93h10.814zm-49.305 17.02v-4.85h11.758v4.85h-11.762zm11.758-16.36v4.27h-11.762v-4.27h11.758zm9.171-8.06h-29.556v47.2h8.623v-15.54h11.758v5.51a1.009 1.009 0 0 1 -1.254 1.23 58.912 58.912 0 0 1 -6.9 0 37.522 37.522 0 0 1 2.978 8.64c4.7 0 8.309-.08 10.974-1.65 2.587-1.39 3.371-3.78 3.371-8.06v-37.33zm-11.758-20.98c1.254 2.14 2.508 4.44 3.684 6.75l-10.425.49c1.96-4.36 4.076-9.29 5.879-14.06l-9.72-2.06a133.905 133.905 0 0 1 -5.722 16.53c-2.195.08-4.233.17-6.114.17l.784 9.29c8-.49 18.655-1.15 29-1.89a31.087 31.087 0 0 1 1.411 4.36l8.544-3.62c-1.489-5.35-5.643-13.16-9.484-19.08zm30.727 59.14c-3.057 0-3.605-.41-3.605-3.29v-6.58c7.133-2.31 14.893-5.27 20.929-8.72l-6.193-7.16a86.96 86.96 0 0 1 -14.736 7.74v-11.11h-9.172v25.83c0 9.04 2.274 11.84 11.445 11.84h11.131c7.525 0 9.876-3.21 10.9-14.8a28.382 28.382 0 0 1 -8.152-3.62c-.392 8.3-.941 9.87-3.606 9.87h-8.936zm-320.867 77.17c-8.309 8.47-25.24 12.5-43.426 14.14a30.1 30.1 0 0 1 4.311 7.98c19.832-2.55 37.155-7.4 47.345-18.26zm-9.328-8.64c-6.193 4.69-18.5 8.31-28.846 10.12a27.075 27.075 0 0 1 4.938 6.91c11.445-2.55 23.594-6.91 31.276-13.33zm27.2-11.59v-8.23h-38.963a61.182 61.182 0 0 0 2.352-5.67c7.054-.25 14.5-.58 21.713-.91a52.3 52.3 0 0 1 4.624 5.43l8-5.02c-4.076-5.18-12.464-12.5-18.891-17.43l-7.369 4.52c1.8 1.4 3.685 2.96 5.566 4.69-7.369.24-14.737.41-21.713.66 2.351-3.13 4.781-6.67 6.976-9.96l-10.267-2.71a83.715 83.715 0 0 1 -6.977 12.91c-4.938.08-9.484.17-13.4.25l1.019 8.72c5.879-.17 12.856-.41 20.537-.74-.783 1.81-1.567 3.62-2.429 5.26h-21.722v8.23h16.147a51.308 51.308 0 0 1 -18.969 14.06 46.545 46.545 0 0 1 6.819 7.57 64.426 64.426 0 0 0 13.561-9.63c1.176 1.24 2.352 2.72 3.214 3.79 7.682-1.81 16.853-5.1 22.967-9.63l-7.212-3.62c-3.684 2.47-10.033 4.77-15.99 6.42a64.1 64.1 0 0 0 6.976-8.96h15.912c5.8 8.71 14.267 16.53 23.124 20.97a37.828 37.828 0 0 1 6.036-7.73 53.5 53.5 0 0 1 -18.656-13.24h17.01zm37.368-19.91c.079-4.44.079-8.96.079-13.57h-9.171c0 4.69 0 9.21-.079 13.57h-9.171v9.54h9.093c-.549 19.25-2.665 34.96-11.445 45.4a25.144 25.144 0 0 1 6.82 7.16c10.112-12.18 12.855-30.6 13.639-52.56h7.917c-.47 27.47-1.1 37.67-2.587 39.89a2.808 2.808 0 0 1 -2.665 1.48c-1.489 0-4.311-.08-7.446-.33a24.476 24.476 0 0 1 2.665 9.79 42.582 42.582 0 0 0 9.484-.33 8.35 8.35 0 0 0 6.036-4.19c2.43-3.79 2.979-16.37 3.684-51.41.079-1.23.079-4.44.079-4.44h-16.937zm30.257 45.24v-41.21h10.103v41.21h-10.108zm-9.014-50.58v65.71h9.014v-5.68h10.103v5.1h9.328v-65.13h-28.45zm81.617 33.88h7.055v-6.58a63.683 63.683 0 0 1 8.857 7.49l4.312-4.53a80.684 80.684 0 0 0 -9.328-7.4h9.092v-6.17h-6.192c1.568-1.89 3.449-4.44 5.565-7.24l-6.349-2.79a69.811 69.811 0 0 1 -4.468 8.14l4.076 1.89h-5.57v-10.11h-7.05v10.11h-6.036l4.233-2.14a24.144 24.144 0 0 0 -4.625-7.65l-5.251 2.72a26.946 26.946 0 0 1 4 7.07h-5.33v6.17h8a35.286 35.286 0 0 1 -9.876 7.4 27.121 27.121 0 0 1 4.624 5.35 39.55 39.55 0 0 0 10.269-9.38v7.65zm-15.6 5.43v-34.54h38.488v34.54h-15.838c.235-1.4.392-2.88.548-4.36h-9.719c-.157 1.56-.314 2.96-.549 4.36zm54.322 8.22v-8.22h-6.9v-41.95h-24.067c.627-1.72 1.333-3.78 2.195-5.92l-10.112-.82a64.28 64.28 0 0 1 -2.038 6.74h-22.026v41.95h-6.9v8.22h25.632c-3.449 5.84-10.817 9.54-27.513 11.6a28.393 28.393 0 0 1 4.311 8.22c19.91-2.96 28.611-8.55 32.765-17.43 5.957 10.61 15.05 15.71 31.119 17.68a36.031 36.031 0 0 1 5.644-9.38c-13.953-.82-22.889-3.94-28.14-10.69h26.024zm93.852-25.49v-9.13h-50.328v9.13h13.483a163.288 163.288 0 0 1 -6.193 18.58c-2.43.17-4.7.33-6.741.42l1.411 9.7c10.112-1.07 24.3-2.47 37.782-3.86a49.385 49.385 0 0 1 2.117 5.75l8.23-4.52c-2.116-6.75-8.152-16.61-13.639-23.93l-7.525 3.86a110.249 110.249 0 0 1 6.584 10.36c-6.427.58-12.855 1.07-18.812 1.48 2.508-5.34 5.173-11.84 7.525-17.84h26.1zm-5.095-27.39h-40.059v9.05h40.055v-9.05zm-45.072 6.17c-2.665-3.04-8.23-7.24-12.7-9.79l-6.193 6.09c4.468 2.79 9.8 7.24 12.228 10.36zm-2.743 15.87c-2.822-3.04-8.623-6.99-13.169-9.37l-6.036 6.33c4.547 2.63 10.19 6.91 12.7 9.95zm-1.411 11.1h-17.876v9.05h8.779v12.26a119.811 119.811 0 0 1 -10.425 7.56l4.468 9.95c4.154-3.53 7.682-6.74 11.13-9.95 4.939 6.42 11.523 8.72 21.165 9.21 9.328.41 25.24.25 34.646-.24a51.328 51.328 0 0 1 2.9-9.71 361.5 361.5 0 0 1 -37.468.74c-8.23-.41-14.031-2.71-17.323-8.22v-20.65zm86.412 11.35h8.074l2.743-28.12.392-12.26h-14.349l.314 12.26zm4 21.88a7.84 7.84 0 0 0 8.152-8.06 8.153 8.153 0 0 0 -16.3 0 7.84 7.84 0 0 0 8.142 8.06z"/></g></svg>