<svg height="263.93" viewBox="0 0 469.625 263.93" width="469.625" xmlns="http://www.w3.org/2000/svg"><g fill="#fff" fill-rule="evenodd" transform="translate(-92.75 -1380.88)"><path d="m110.841 1399.56a30.554 30.554 0 0 1 2.588 2.76 30.157 30.157 0 0 0 2.547-3.62 49.481 49.481 0 0 0 4.148 10.91 25.475 25.475 0 0 1 -9.283 6.9zm16.184-6.12a41.537 41.537 0 0 1 -3.82 11.51 48.12 48.12 0 0 1 -3.861-11.51zm7.352 0v-4.88h-14.006a68.805 68.805 0 0 0 1.766-6.68l-5.011-.99c-1.15 6.08-3.286 11.99-6.285 16.08v-15.83h-4.765v24.11l-3.286.82v-20.18h-4.682v21.35c-.945.21-1.766.39-2.547.56l1.684 5.22c2.629-.82 5.71-1.86 8.831-2.89v11h4.765v-4.32a21.458 21.458 0 0 1 2.588 4.49 31.023 31.023 0 0 0 9.529-7.29 25.434 25.434 0 0 0 8.5 7.16 21.1 21.1 0 0 1 3.368-4.49 22.242 22.242 0 0 1 -8.667-6.98 49.488 49.488 0 0 0 5.874-16.26h2.341zm25.645 7.89h9.488a53.02 53.02 0 0 1 -6.326 5.65 23.476 23.476 0 0 1 -3.162-4.75zm9.776 0h5.955v-4.44h-5.011c.411-4.45.7-9.41.781-13.89l-3.944-.22-.9.22h-24.479v4.66h23.824l-.083 2.33h-22.391v4.57h22.14l-.123 2.33h-25.837v4.44h15.28v6.77c-5.75 2.37-11.788 4.75-15.649 6.13l2.67 4.61c3.738-1.64 8.42-3.75 12.979-5.82v3.19c0 .6-.246.78-.9.78-.616.04-3 .04-4.929-.09a21.247 21.247 0 0 1 1.643 4.44c3.08 0 5.34-.08 6.983-.73 1.684-.69 2.218-1.81 2.218-4.27v-6.17a27.18 27.18 0 0 0 12.979 9.4 23.518 23.518 0 0 1 3.286-4.53 26.712 26.712 0 0 1 -9.94-5 83.272 83.272 0 0 0 7.476-5.65zm-16.965 5.39a39.746 39.746 0 0 0 -7.6-5.18l-3.245 3.11a36.674 36.674 0 0 1 7.352 5.56zm56.836-23.16-1.191.34h-28.013v5.05h23.823a48.159 48.159 0 0 1 -7.106 6.6h-2.752v19.54c0 .73-.287.95-1.191.95-.945.04-4.313.04-7.188-.13a23.115 23.115 0 0 1 1.931 5.26c3.943 0 6.859-.09 8.913-.86 2.013-.78 2.711-2.16 2.711-5.14v-15.31a64.38 64.38 0 0 0 13.883-13.32zm10.1 33.86h18.279v-5.14h-5.71v-26.78h-4.477a19.081 19.081 0 0 1 -7.065 2.67v3.93h5.5v20.18h-6.531v5.14zm32.63.6c5.627 0 10.639-4.1 10.639-11.21 0-6.95-4.272-10.14-9.366-10.14a7.492 7.492 0 0 0 -3.655.91l.575-6.77h11.049v-5.31h-16.261l-.821 15.48 2.752 1.9c1.766-1.21 2.752-1.68 4.559-1.68 3.081 0 5.135 2.07 5.135 5.78 0 3.75-2.219 5.87-5.381 5.87a9.268 9.268 0 0 1 -6.7-3.24l-2.793 4.05a13.511 13.511 0 0 0 10.269 4.36zm28.42-36.75a61.048 61.048 0 0 1 -13.226 3.54 17.829 17.829 0 0 1 1.314 3.97c1.479-.17 3-.43 4.6-.69v4.87h-6.079v4.79h5.422a41.933 41.933 0 0 1 -6.079 11.6 28.608 28.608 0 0 1 2.259 4.83 39.4 39.4 0 0 0 4.477-8.54v15.53h4.765v-17.17a47.152 47.152 0 0 1 2.465 4.53l2.793-4.01a76.27 76.27 0 0 0 -5.258-6.08v-.69h4.528v-4.79h-4.518v-5.91a35.958 35.958 0 0 0 5.3-1.59zm15.9 21.18v-8.02h3.45v8.02zm-8.42 0v-8.02h3.491v8.02h-3.49zm8.42-12.94v-8.45h-4.929v8.45h-8.09v20.53h4.6v-2.63h3.491v13.63h4.929v-13.63h3.45v2.29h4.806v-20.19h-8.256zm37.289 6.82a44.225 44.225 0 0 0 -6.49-10.36l-4.436 2.33a44.547 44.547 0 0 1 6.12 10.7zm-7.517 7.63c-2.053.86-4.148 1.77-6.2 2.67l-.739-23.33-5.094.22.822 25.18c-2.054.87-3.9 1.56-5.463 2.12l1.643 5.48c4.641-2.03 10.72-4.75 16.142-7.29zm22.3 12.9a92.855 92.855 0 0 0 -9.119-11.09c2.67-5.86 4.149-13.07 5.012-21.91l-5.381-.52c-1.52 17.73-5.751 28.17-18.772 33.34a29.86 29.86 0 0 1 3.9 4.53 29.573 29.573 0 0 0 12.486-10.48 74.694 74.694 0 0 1 7.682 10.4zm24.95-2.98v-14.92h14.5v-5.22h-14.5v-12.34h-5.257v32.48h-14.7v5.18h37.337v-5.18h-17.375z"/><path d="m122.449 1463.82h6.051v-5.66a55.853 55.853 0 0 1 7.6 6.43l3.7-3.88a68.7 68.7 0 0 0 -8-6.36h7.8v-5.3h-5.312c1.345-1.63 2.959-3.82 4.774-6.22l-5.447-2.4a59.05 59.05 0 0 1 -3.833 6.99l3.5 1.63h-4.782v-8.69h-6.052v8.69h-5.178l3.631-1.84a20.642 20.642 0 0 0 -3.967-6.57l-4.506 2.33a23.173 23.173 0 0 1 3.43 6.08h-4.573v5.3h6.859a30.328 30.328 0 0 1 -8.473 6.36 23.5 23.5 0 0 1 3.968 4.59 34.037 34.037 0 0 0 8.809-8.05v6.57zm-13.382 4.66v-29.68h33.017v29.68h-13.584c.2-1.2.336-2.47.471-3.74h-8.339c-.134 1.34-.269 2.54-.47 3.74h-11.1zm46.6 7.07v-7.07h-5.917v-36.03h-20.644c.538-1.49 1.143-3.25 1.883-5.09l-8.675-.71a55.3 55.3 0 0 1 -1.748 5.8h-18.9v36.03h-5.913v7.07h21.989c-2.959 5.01-9.28 8.19-23.6 9.96a24.3 24.3 0 0 1 3.7 7.06c17.079-2.54 24.545-7.34 28.108-14.97 5.11 9.11 12.91 13.49 26.695 15.19a30.775 30.775 0 0 1 4.842-8.06c-11.969-.71-19.635-3.39-24.141-9.18h22.325zm66.093-21.91v-7.84h-43.171v7.84h11.566a140.76 140.76 0 0 1 -5.312 15.97c-2.085.14-4.035.28-5.783.35l1.21 8.34c8.675-.92 20.846-2.12 32.412-3.32a42.232 42.232 0 0 1 1.816 4.95l7.06-3.89c-1.815-5.79-6.993-14.27-11.7-20.56l-6.456 3.32a93.473 93.473 0 0 1 5.649 8.9c-5.514.5-11.028.92-16.139 1.28 2.152-4.6 4.438-10.18 6.456-15.34zm-4.371-23.53h-34.362v7.78h34.362zm-38.665 5.3a49.491 49.491 0 0 0 -10.894-8.4l-5.312 5.22c3.833 2.41 8.406 6.22 10.49 8.91zm-2.354 13.64c-2.421-2.61-7.4-6.01-11.3-8.05l-5.178 5.44c3.9 2.26 8.742 5.93 10.894 8.55zm-1.21 9.54h-15.332v7.77h7.532v10.53a104.185 104.185 0 0 1 -8.944 6.5l3.833 8.55c3.564-3.04 6.59-5.8 9.549-8.55 4.236 5.51 9.885 7.49 18.156 7.91 8 .36 21.652.21 29.722-.21a44.2 44.2 0 0 1 2.488-8.34 310.855 310.855 0 0 1 -32.143.64c-7.061-.35-12.037-2.33-14.861-7.07zm67.236-10.74a62.858 62.858 0 0 0 12.305-13.07 67.131 67.131 0 0 0 12.911 13.07h-25.212zm-3.295 7.7h31.4v-5.58a80.079 80.079 0 0 0 11.3 6.85 43.664 43.664 0 0 1 5.178-7.7 61.876 61.876 0 0 1 -28.445-22.4h-8.334c-5.043 8.34-15.668 18.37-27.167 23.67a32.959 32.959 0 0 1 4.707 7.07 76.618 76.618 0 0 0 11.365-7.07v5.16zm-11.9 13.64h15.6c-1.412 4.17-3.3 8.83-5.11 12.79l-10.154.35 1.076 8.2c11.431-.57 28.04-1.28 43.843-2.2a37.7 37.7 0 0 1 2.69 4.39l7.464-4.74c-3.161-5.3-9.415-12.65-15.4-18.16l-7.061 3.89a81.8 81.8 0 0 1 6.59 7.21c-6.859.28-13.785.56-20.24.77 2.017-3.95 4.236-8.33 6.186-12.5h30.125v-7.78h-55.61v7.78zm100.993-30.81c-.538 1.91-1.345 4.24-2.152 6.43h-14.662a28.418 28.418 0 0 0 -2.757-6.43h19.568zm20.576 6.43h-14.46c.672-1.55 1.345-3.11 2.017-4.73l-7.8-1.7h17.214v-7.21h-22.325a28.918 28.918 0 0 0 -2.017-4.87l-7.935 1.62c.4.99.807 2.12 1.143 3.25h-22.728v7.21h16.206l-6.994 1.98a33.373 33.373 0 0 1 1.816 4.45h-14.189v6.78h60.049v-6.78zm-44.045 16.11h27.635v5.94h-27.638v-5.94zm27.84 23.18c-2.488 0-2.892-.22-2.892-2.34v-8.12h10.894v-19.5h-43.51v19.5h10.086c-1.614 6.22-5.514 9.68-19.837 11.8a27.379 27.379 0 0 1 4.1 7.2c17.08-3.25 21.922-9.32 23.805-19h6.455v8.27c0 7.2 1.883 9.53 9.75 9.53h8.809c6.12 0 8.271-2.47 9.078-12.29a23.3 23.3 0 0 1 -7.06-3.11c-.269 7.07-.673 8.06-2.825 8.06h-6.858zm40.472-27.42-6.187 1.63v-10.46h6.59v-7.77h-6.59v-13.43h-7.934v13.43h-7.734v7.77h7.734v12.51c-3.228.84-6.12 1.55-8.608 2.04l2.085 7.99 6.523-1.7v14.56c0 1.06-.269 1.41-1.278 1.41-.874 0-3.631 0-6.254-.07a37.89 37.89 0 0 1 2.287 7.63c4.707 0 7.934-.21 10.153-1.48 2.287-1.35 3.026-3.32 3.026-7.42v-16.89c2.421-.63 4.842-1.34 7.2-2.05zm28.108 3.82a39.41 39.41 0 0 1 -8.406 12.5 40.539 40.539 0 0 1 -7.934-12.5zm5.043-7.92-1.412.36h-8.076v-8.48h15.062v-7.77h-15.062v-10.11h-7.935v10.11h-14.454v7.77h14.458v8.48h-13.247v7.56h3.5l-2.018.63a56.7 56.7 0 0 0 9.549 16.82 50.393 50.393 0 0 1 -16.071 6.92 35.017 35.017 0 0 1 4.3 7.63 60.528 60.528 0 0 0 17.685-8.69 47.1 47.1 0 0 0 16.744 8.91 36.38 36.38 0 0 1 5.111-7.28 44.459 44.459 0 0 1 -15.534-7.14c5.649-5.93 9.952-13.63 12.508-23.46zm33.076-10.24v33.21h7.867v-25.86h17.551v25.57h8.2v-32.92h-15.533c.875-1.7 1.816-3.54 2.757-5.51h16.139v-7.49h-38.8v7.49h13.247c-.538 1.9-1.143 3.74-1.748 5.51h-9.683zm-2.488 22.89-6.927 1.91v-24.94h6.651v-7.99h-22.321v7.99h7.733v27.2c-3.363.92-6.389 1.69-8.877 2.33l1.95 8.9c6.523-2.33 14.861-5.44 22.8-8.33zm23.2-12.79h-8v14.34c0 6.93-2.287 14.91-20.173 19.65a27.509 27.509 0 0 1 5.043 6.43c18.9-6.08 23.132-16.25 23.132-26v-14.42zm-2.286 28.83c4.774 3.25 11.1 7.98 14.054 11.16l5.312-5.72c-3.161-3.11-9.683-7.49-14.458-10.46zm32.489-1.98v-8.34h31.134v8.34h-31.138zm31.134-24.59v8.34h-31.138v-8.34h31.134zm0-16.04v8.13h-31.138v-8.13h31.134zm-39.2-8.19v61.4h8.069v-4.38h31.134v4.38h8.473v-61.4h-47.683zm69.855 37.87h6.926l2.353-24.17.337-10.52h-12.313l.269 10.52zm3.429 18.79a6.725 6.725 0 0 0 6.994-6.92 6.994 6.994 0 1 0 -13.987 0 6.725 6.725 0 0 0 6.986 6.92z"/><path d="m133.383 1508.45h-10.313v-3.93h10.313zm6.12-8.87h-22.157v13.81h22.154v-13.81zm-28.617 28.99-1.076-6.25-4.081 1.43v-8.57h4.7v-6.55h-4.7v-11.19h-6.29v11.19h-5.5v6.55h5.5v10.65c-2.38.72-4.477 1.37-6.29 1.85l1.587 6.78c1.473-.53 3.06-1.07 4.7-1.66v12.38c0 .65-.17.89-.793.89-.51 0-2.04 0-3.627-.06a21.733 21.733 0 0 1 1.643 6.31c3.23 0 5.383-.24 6.97-1.31 1.643-1.07 2.1-2.8 2.1-5.89v-14.59zm10.994-3.93h-4.647v-4.4h4.647zm12.75-4.4h4.87v4.4h-4.87zm11.22 18.57v-5.72h-14.28v-3.63h13.317v-13.99h-15.471v13.75h-2.21v-13.75h-14.96v13.99h12.92v3.63h-13.656v5.72h10.426a35.977 35.977 0 0 1 -14.62 7.86 31.987 31.987 0 0 1 4.137 5.47 37.5 37.5 0 0 0 13.713-8.57v9.53h6.4v-9.71a34.245 34.245 0 0 0 11.107 8.28 25.708 25.708 0 0 1 4.25-5.36 33.956 33.956 0 0 1 -12.467-7.5h11.39zm16.854-41.19c-2.833 8.45-7.763 16.9-12.92 22.26a48.847 48.847 0 0 1 3.74 7.56c1.133-1.31 2.323-2.8 3.513-4.29v29.77h6.8v-40.78a94.952 94.952 0 0 0 5.441-12.38zm40.631 16.19v-6.73h-21.987a72.511 72.511 0 0 0 2.776-7.38l-6.516-1.73c-2.55 8.52-7.027 17.09-12.014 22.44a47.624 47.624 0 0 1 5.157 4.95 66.722 66.722 0 0 0 7.423-11.55h2.154v39.17h6.913v-13.22h15.414v-6.55h-15.414v-6.72h14.677v-6.43h-14.677v-6.25zm17.12-6.61a41.962 41.962 0 0 1 3.06 6.96l5.78-2.62a36.771 36.771 0 0 0 -2.04-4.34h6.745v-5.77h-12.3c.4-.9.793-1.73 1.133-2.62l-6.347-1.79a32.983 32.983 0 0 1 -8.783 13.33 41.091 41.091 0 0 1 5.5 3.87 43.419 43.419 0 0 0 5.383-7.02h1.87zm-9.52 45.78h6.573v-31.67h-6.573zm3.23-37.57a36.732 36.732 0 0 1 5.384 7.45l5.383-3.75a38.916 38.916 0 0 0 -5.723-7.09zm25.5 13.28v2.86h-11.106v-2.86h11.107zm-11.107 10.71v-3.09h11.107v3.09h-11.106zm17.4 5.18v-21.13h-23.519v23.81h6.12v-2.68h17.4zm13.543-43.15h-14.565c.34-.9.623-1.79.906-2.68l-6.346-1.55a29.436 29.436 0 0 1 -7.027 12.44 31.652 31.652 0 0 1 5.5 3.81 33.223 33.223 0 0 0 4.364-6.31h2.493a32.849 32.849 0 0 1 3.457 6.61h-22.383v6.31h25.047v25.36c0 1.01-.4 1.31-1.473 1.37s-5.157.06-8.5-.12a24.035 24.035 0 0 1 2.153 6.07c5.157 0 8.784-.06 11.164-1.01 2.436-1.02 3.286-2.68 3.286-6.25v-31.73h-8.556l5.213-2.5a31.459 31.459 0 0 0 -2.21-4.11h7.48v-5.71zm16.026 25.35v-4.1h10.314v4.1h-10.316zm0-13.51h10.314v4.05h-10.316v-4.05zm27.994 4.05h-10.71v-4.05h10.71zm0 9.46h-10.71v-4.1h10.71zm11.5 9.71h-22.212v-3.87h17.68v-25.12h-8.1c1.53-2.27 3.23-4.77 4.76-7.38l-7.48-2.27a56.991 56.991 0 0 1 -4.874 9.65h-12.13l2.437-1.25a42.642 42.642 0 0 0 -5.893-8.58l-5.78 2.68a49.238 49.238 0 0 1 4.646 7.15h-9.123v25.12h16.887v3.87h-21.874v6.61h21.874v9.7h6.97v-9.7h22.214v-6.61zm17.956-3.99h5.836l1.984-20.36.283-8.87h-10.37l.227 8.87zm2.89 15.83a5.669 5.669 0 0 0 5.893-5.83 5.894 5.894 0 0 0 -11.787 0 5.669 5.669 0 0 0 5.896 5.83z"/><path d="m171.2 1616.52a44.89 44.89 0 0 0 -6.589-5.72 75.863 75.863 0 0 0 6.15-7.38l-8.522-3.23a37.984 37.984 0 0 1 -4.744 5.54c-1.932-1.39-3.953-2.59-5.71-3.69l-5.974 5.25q2.768 1.8 5.8 3.88c-1.845 1.38-3.689 2.76-5.534 3.96-3.427-5.71-5.8-12.72-7.468-20.75.44-4.7.7-9.77.791-15.12h33.647v-9.87h-33.475v-10.79h-11.072v10.79h-34.172v9.87h34.087c-.615 29.88-4.569 46.57-35.668 55.42a33.144 33.144 0 0 1 6.325 10.05c20.118-6.17 30.221-15.95 35.229-29.78 6.325 14.94 16.34 24.62 34.086 29.51a38.291 38.291 0 0 1 6.413-9.87c-13.705-3.14-22.578-9.5-28.552-19.09a60.078 60.078 0 0 1 6.941 5.63 45.393 45.393 0 0 0 5.446-4.52 47.382 47.382 0 0 1 6.238 5.81zm-48.67-22.6a64.751 64.751 0 0 0 -5.71-4.52c2.2-2.21 4.305-4.42 6.062-6.54l-7.995-3.32a45.575 45.575 0 0 1 -5.007 5.16c-2.372-1.38-4.568-2.77-6.677-3.87l-5.622 5.53c1.845 1.11 3.865 2.31 5.974 3.69a75.116 75.116 0 0 1 -8.083 5.26 55.7 55.7 0 0 1 6.765 6.17c2.635-1.84 5.447-4.05 8.346-6.45a46.7 46.7 0 0 1 5.886 5.26zm-2.459 22.32a49.761 49.761 0 0 0 -4.744-4.52 70.124 70.124 0 0 0 6.764-7.93l-8.434-3.32a63 63 0 0 1 -5.271 5.99c-1.669-1.19-3.426-2.3-5.007-3.32l-5.974 5.17c1.581 1.01 3.25 2.3 5.007 3.41a67.621 67.621 0 0 1 -7.906 5.53 61.319 61.319 0 0 1 7.028 6.46 86.038 86.038 0 0 0 7.819-6.18 43.326 43.326 0 0 1 4.48 4.43zm40.763-36.89a65.8 65.8 0 0 1 -4.832 5.26c-2.284-1.38-4.481-2.77-6.589-3.87l-5.622 5.44c1.932 1.1 4.041 2.49 6.061 3.87a66.9 66.9 0 0 1 -7.818 5.53 66.242 66.242 0 0 1 6.94 6.18c2.547-1.84 5.183-4.15 7.994-6.64a45.918 45.918 0 0 1 5.8 5.26l6.15-6.18a72.93 72.93 0 0 0 -5.974-4.89c2.2-2.21 4.217-4.42 5.974-6.55zm23.788 23.98a128.24 128.24 0 0 0 3.953-25.91l-7.467-1.02c-.615 7.66-2.2 17.89-4.305 24.07zm26-12.45a105.925 105.925 0 0 0 -6.852-17.43l-4.744 2.12v-17.33h-10.365v86.03h10.367v-62.06a84.654 84.654 0 0 1 3.953 12.45zm24.247-8.58h8.873v16.88h-9.137c.176-2.86.264-5.63.264-8.39zm24.6 27.3v-10.42h-5.534v-27.02h-19.064v-13.92h-10.542v13.92h-15.111v10.14h15.111v8.4c0 2.76 0 5.53-.264 8.48h-18.888v10.42h17.483c-2.372 10.14-8 19.92-21.348 26.74a46.7 46.7 0 0 1 7.379 8.49c12.124-7.29 18.8-16.97 22.315-27.3 4.831 12.36 11.859 21.67 22.841 27.11a43.229 43.229 0 0 1 7.379-10.33c-10.981-4.33-18.185-13.37-22.49-24.71zm17.164-1.75a302.206 302.206 0 0 1 -10.633 30.06l9.576 5.35c3.251-9.04 6.765-19.92 9.488-29.97zm8.258-16.32c-2.986-2.77-9.224-6.09-14.056-8.03l-5.71 8.03c4.832 2.3 10.806 5.99 13.7 8.85zm52.009 14.57a100.148 100.148 0 0 0 10.805-15.68l-6.061-4.7-1.845.64h-16.341c.967-2.12 1.933-4.43 2.812-6.92h21v-10.32h-18.01c.7-2.95 1.23-6 1.758-9.04l-10.018-1.75a87.807 87.807 0 0 1 -4.831 19.55v-6.37h-10.017v-13.09h-10.016v13.09h-10.893l2.723-3.87c-3.075-2.86-9.136-6.45-13.88-8.57l-5.974 8.02c4.832 2.3 10.893 6.45 13.617 9.4l3.426-4.88v10.23h6.413c-.351 21.12-1.142 42.42-11.86 55.24a25.18 25.18 0 0 1 7.028 7.1c8.7-10.6 12.036-25.73 13.442-42.23h5.622c-.615 21.57-1.493 29.41-2.9 31.35a2.414 2.414 0 0 1 -2.372 1.38 58.083 58.083 0 0 1 -6.15-.27 25.5 25.5 0 0 1 2.548 9.77 34.519 34.519 0 0 0 8.61-.37 7.457 7.457 0 0 0 5.622-3.69c2.46-3.41 3.338-14.47 4.217-43.89 0-1.29.088-4.24.088-4.24h-14.67c.175-3.32.263-6.74.351-10.15h13.266a33.542 33.542 0 0 1 -2.724 4.43 56.716 56.716 0 0 1 8.346 5.07v4.52h13.441a45.121 45.121 0 0 1 -3.162 4.61h-3.075v7.84h-10.806v9.77h10.806v15.22c0 1.01-.264 1.29-1.494 1.29-1.142.09-5.1.09-8.7-.09a46.773 46.773 0 0 1 2.724 9.96c5.886 0 10.1-.09 13.265-1.75 3.163-1.57 3.866-4.34 3.866-9.32v-15.31h10.63v-9.77h-10.627zm92.927-34.86c-2.46-3.51-7.819-8.86-11.509-12.64l-7.555 5.81c3.778 4.06 8.873 9.69 11.157 13.37zm-40.5 52.38c-2.46-4.61-6.149-10.24-10.278-16.33a160.666 160.666 0 0 0 8.7-37.16l-6.677-2.4-1.757.37h-25.915v9.68h23.017a119.5 119.5 0 0 1 -4.832 19.19c-3.953-5.44-7.819-10.61-11.421-15.22l-7.116 6.27c4.393 6 9.4 13 14.057 20.01-4.217 8.95-9.576 16.32-15.726 21.21 2.548 1.94 5.886 6.27 7.556 8.95a67.855 67.855 0 0 0 14.934-19.65 131.758 131.758 0 0 1 7.38 12.91zm32.769-32.37a85.5 85.5 0 0 1 -11.421 20.29 171.7 171.7 0 0 1 -2.9-20.11l25.389-3.32-1.23-9.77-24.862 3.13c-.439-7.1-.615-14.66-.7-22.59h-10.895c.175 8.48.527 16.42.966 23.79l-9.488 1.2 1.23 10.05 8.961-1.2c.966 11.25 2.46 20.84 4.744 28.59a63.261 63.261 0 0 1 -16.955 11.71 42.718 42.718 0 0 1 8.258 8.21 65.476 65.476 0 0 0 12.738-9.31c3.953 7.28 9.137 11.52 16.253 12.35 4.831.46 9.575-3.69 11.947-21.11a36.459 36.459 0 0 1 -8.785-6.46c-.7 9.68-1.669 14.2-3.689 13.92-2.812-.46-5.359-3.04-7.38-7.37a97.639 97.639 0 0 0 16.077-26.75zm37.96 21.39h9.049l3.075-31.54.439-13.74h-16.077l.351 13.74zm4.481 24.53a8.787 8.787 0 0 0 9.136-9.03 9.137 9.137 0 0 0 -18.273 0 8.787 8.787 0 0 0 9.137 9.03z"/></g></svg>