<svg height="201" viewBox="0 0 497.559 201" width="497.559" xmlns="http://www.w3.org/2000/svg"><g fill="#fff" fill-rule="evenodd" transform="translate(-713.031 -4175.06)"><path d="m725.1 4244.72a64.066 64.066 0 0 0 13.521-14.07 66.8 66.8 0 0 0 13.955 14.07zm16.929 18.39h15.144v-5.91h-15.141v-6.52h12.656v-4.43a66.624 66.624 0 0 0 5.842 3.8 32.939 32.939 0 0 1 4.273-6.07 57.768 57.768 0 0 1 -23.15-19.86h-6.653c-4 6.92-12.711 15.66-21.96 20.54a24.832 24.832 0 0 1 4.057 5.45 70.365 70.365 0 0 0 6-3.91v4.48h12.224v6.52h-14.978v5.91h14.982v6.75h-19.309v6.07h46.028v-6.07h-20.012v-6.75zm70.706-8.35a111.766 111.766 0 0 0 7.193-9.76l-5.625-3.12a54.325 54.325 0 0 1 -5.625 9.48 65.027 65.027 0 0 1 -2.271-9.36v-2.05h13.684v-6.13h-4.219l3.245-3.4a38.556 38.556 0 0 0 -7.194-5.9l-3.569 3.52a38.781 38.781 0 0 1 6.6 5.78h-8.544v-9.53h-6.22v9.53h-12.17v-5.22h-18.065v6.25h6.058v9.53h-5.68v6.19h5.68v11.52c-2.705.73-5.139 1.41-7.14 1.92l1.677 6.42c3.948-1.31 8.762-2.9 13.576-4.6l2.974 5.51c3.841-2.45 8.384-5.68 12.441-8.74l-1.948-5.57c-3.083 1.93-6.22 3.92-8.978 5.62l-.649-4.2c-1.947.63-3.894 1.19-5.842 1.82v-9.7h5.3v-6.19h-5.3v-9.53h5.3v5.1h12.766v29.68a1.006 1.006 0 0 1 -1.136 1.19c-.866 0-3.354 0-6.058-.11a23.961 23.961 0 0 1 2.218 6.53c4.056 0 6.76-.29 8.653-1.42 1.894-1.02 2.543-2.84 2.543-6.19v-9.25a38.186 38.186 0 0 0 10.655 12.6 15.035 15.035 0 0 1 3.948-5.11 32.012 32.012 0 0 1 -11.845-15.15zm-14.55-2.38a43.466 43.466 0 0 0 -5.3-9.87l-4.976 2.32a45.381 45.381 0 0 1 4.976 10.16zm75.363-24.06h-25.959v6.41h25.962v-6.41zm-27.963 31.21-6.545 1.65v-10.22h5.36v-6.18h-5.355v-10.05h5.842v-6.24h-18.446v6.24h6.382v10.05h-5.841v6.18h5.841v11.75c-2.758.62-5.3 1.19-7.41 1.65l1.3 6.46c5.517-1.53 12.765-3.46 19.58-5.39zm23.1 11.18c-.757 0-.865-.23-.865-2.16v-17.87h8.491v-6.47h-30.885v6.47h6.111c-.432 11.06-1.622 17.65-12.386 21.45a16.215 16.215 0 0 1 3.57 5.16c12.44-4.65 14.387-13.33 15.036-26.61h3.678v17.93c0 6.3 1.136 8.4 6.112 8.4h3.678c4.111 0 5.679-2.55 6.22-11.29a17.288 17.288 0 0 1 -5.679-2.78c-.108 6.69-.325 7.77-1.19 7.77h-1.893zm22.006-35.81h32.939v6.53h6.6v-12.66h-19.8v-4.42h-6.6v4.42h-19.469v12.66h6.328v-6.53zm34.507 9.71a65.546 65.546 0 0 1 -7.518 6.18 51.871 51.871 0 0 1 -2.217-6.58h6.166v-5.68h-29.047v5.68h7.9a63.349 63.349 0 0 1 -16.551 5.73 40.235 40.235 0 0 1 3.3 5.28 77.78 77.78 0 0 0 12.819-4.83c.487.46.919.91 1.352 1.37a56.848 56.848 0 0 1 -16.713 7.37 24.669 24.669 0 0 1 3.245 5.11 78.327 78.327 0 0 0 16.389-8.51 21.122 21.122 0 0 1 1.028 1.99c-5.355 4.76-14.766 9.42-22.555 11.46a29 29 0 0 1 3.354 5.62 82.1 82.1 0 0 0 20.661-11.24c.216 3.01-.541 5.33-1.785 6.36a3.748 3.748 0 0 1 -3.245 1.19c-1.407 0-3.137-.12-5.193-.29a14.707 14.707 0 0 1 1.839 6.47 42.9 42.9 0 0 0 4.6.12 8.631 8.631 0 0 0 6.6-2.39c5.355-4.08 5.788-18.21-4.435-27.52a34.775 34.775 0 0 0 4.489-3.29h.109c3.083 13.22 8.437 23.66 18.065 29.05a28.023 28.023 0 0 1 4.489-5.84 28.026 28.026 0 0 1 -12.061-11.41 97.475 97.475 0 0 0 9.952-6.86zm34.468 16.4h4.76a29.94 29.94 0 0 0 3.786 6.64c-2.867.45-5.787.85-8.546 1.24zm2.705-9.54h8.059v3.86h-8.059zm0-9.36h8.059v3.74h-8.059zm-13.793-9.7h28.613v3.97h-28.615v-3.97zm30.4 28.6a66.465 66.465 0 0 1 -5.516 3.86 22.753 22.753 0 0 1 -2.975-3.86zm1.893 0h5.68v-5.68h-10.174v-3.86h7.789v-5.62h-7.789v-3.74h7.356v-15.38h-41.647v16.74c0 9.02-.433 21.79-5.787 30.53a27.57 27.57 0 0 1 5.733 3.46c5.679-9.3 6.544-24.06 6.544-33.99v-1.36h7.9v3.74h-6.815v5.62h6.815v3.86h-8.276v5.68h5.571v8.68c-2 .28-3.894.51-5.517.68l.865 6.13c5.625-.91 13.144-1.99 20.175-3.18l-.217-4.6a26.834 26.834 0 0 0 14.334 8.63 22.923 22.923 0 0 1 3.786-5.56 28.586 28.586 0 0 1 -9.52-3.58 61.883 61.883 0 0 0 7.032-4.48zm31.114-13.23v-13.84h12.39v13.84zm30.24 0h-11.09v-13.84h9.46v-6.36h-45.652v6.36h10.437v13.84h-12.222v6.47h11.682a24.661 24.661 0 0 1 -11.84 18.22 26.75 26.75 0 0 1 5.193 5.05c9.411-6.18 12.441-14.81 13.411-23.27h12.77v23.1h6.76v-23.1h11.09v-6.47z"/><path d="m728.233 4192.97h6.067v-4.83h-6.068v-6.72a50.416 50.416 0 0 0 6.235-1.84l-3.222-4.08a71.985 71.985 0 0 1 -15.357 3.77 18.549 18.549 0 0 1 1.339 4.09c1.925-.27 3.934-.58 5.984-.93v5.71h-7.448v4.83h6.237a39.761 39.761 0 0 1 -7.156 13.04 23.419 23.419 0 0 1 2.511 4.92 39.379 39.379 0 0 0 5.858-10.5v15.63h5.021v-16.2c1.381 2.07 2.72 4.26 3.515 5.75l2.846-4.34c-.921-1.19-4.687-5.8-6.361-7.55v-.75zm12.051 12.56v-21.3h6.7v21.3zm-4.895-26.3v34.77h4.895v-3.47h6.7v3.16h5.147v-34.46zm28.758 4.08h25.483v5.05h5.105v-9.79h-15.315v-3.42h-5.1v3.42h-15.069v9.79h4.9v-5.05zm26.7 7.51a50.74 50.74 0 0 1 -5.816 4.78 39.5 39.5 0 0 1 -1.716-5.09h4.77v-4.39h-22.47v4.39h6.109a49.087 49.087 0 0 1 -12.8 4.44 31.222 31.222 0 0 1 2.553 4.08 61 61 0 0 0 9.917-3.73c.376.35.711.7 1.046 1.05a44.107 44.107 0 0 1 -12.93 5.71 18.9 18.9 0 0 1 2.511 3.95 60.234 60.234 0 0 0 12.678-6.59c.293.49.544 1.01.795 1.54-4.142 3.69-11.423 7.29-17.449 8.87a22.582 22.582 0 0 1 2.595 4.35 63.352 63.352 0 0 0 15.984-8.7c.167 2.33-.418 4.13-1.381 4.92a2.9 2.9 0 0 1 -2.51.92c-1.088 0-2.427-.09-4.017-.22a11.367 11.367 0 0 1 1.422 5.01 33.55 33.55 0 0 0 3.557.09 6.671 6.671 0 0 0 5.105-1.85c4.143-3.16 4.477-14.09-3.431-21.29a27.119 27.119 0 0 0 3.473-2.55h.084c2.385 10.23 6.527 18.31 13.975 22.48a7.328 7.328 0 0 0 -5.858-13.35 75.7 75.7 0 0 0 7.7-5.31zm24.992-14.71c-.293 5.8.293 25.73-16.4 35.43a17.87 17.87 0 0 1 4.185 4.17c8.829-5.66 13.222-14.13 15.482-22.04 2.343 8.08 7.03 17.13 16.486 22.04a16.98 16.98 0 0 1 3.85-4.43c-15.608-7.69-17.7-26.61-18.035-32.67.042-.92.084-1.8.126-2.5h-5.691zm38.646 35.17a80.964 80.964 0 0 0 -9.122-9.62l-4.352 3.95a80.757 80.757 0 0 1 9 9.71zm42.729-14.67c.084-1.71.126-3.33.126-4.83v-.35h6.06v5.18h-6.19zm6.193-14.83v5.04h-6.067v-5.04h6.06zm-24.562 14.83c.084-1.36.084-2.59.084-3.82v-1.36h5.271v5.18h-5.356zm5.356-14.83v5.04h-5.272v-5.04h5.271zm24.018-4.75h-15.612v14.75c0 6.41-.334 14.93-4.1 21.03a9.044 9.044 0 0 0 .335-2.85v-32.93h-14.52v15.81c0 6.41-.251 14.97-3.808 20.72a19.993 19.993 0 0 1 4.017 2.64c2.427-4.04 3.557-9.62 4.059-14.93h5.61v8.69a.628.628 0 0 1 -.67.79c-.544 0-2.134 0-3.6-.09a16.868 16.868 0 0 1 1.339 4.66c2.678 0 4.561-.13 5.858-.92a3.317 3.317 0 0 0 .92-.8 19.2 19.2 0 0 1 4.059 2.68c2.8-4.08 4.1-9.66 4.729-15.01h6.565v8.56a.693.693 0 0 1 -.837.83 36.5 36.5 0 0 1 -4.393-.04 20.472 20.472 0 0 1 1.464 5.14c3.1 0 5.231-.14 6.653-1.01 1.507-.88 1.925-2.29 1.925-4.83v-32.89zm32.838 19.23a24.25 24.25 0 0 1 -4.812 7.38 24.78 24.78 0 0 1 -5.524-7.38zm3.264-5.27-.921.22h-14.649c.335-1.58.586-3.07.8-4.52h21.675v-5.09h-21.136c.251-2.68.335-4.96.418-6.54h-5.188c-.084 1.36-.126 3.69-.335 6.54h-10.126v5.09h9.54c-1.13 7.99-3.891 17.91-11.13 24.15a15.605 15.605 0 0 1 4.268 3.69c4.519-4.31 7.406-10.06 9.331-15.85a33.027 33.027 0 0 0 5.565 8.3 29.851 29.851 0 0 1 -9.959 4.65 21.784 21.784 0 0 1 2.8 4.43 36.55 36.55 0 0 0 11.088-5.66 34.672 34.672 0 0 0 12.763 5.53 21.351 21.351 0 0 1 3.222-4.74 35.8 35.8 0 0 1 -12.009-4.39 33.591 33.591 0 0 0 7.364-14.27zm23.494 20.29a80.964 80.964 0 0 0 -9.122-9.62l-4.351 3.95a80.75 80.75 0 0 1 9 9.71z"/><path d="m762.62 4287.93h-11.638v29.76c0 14.21-8.273 37.3-35.639 48.27a57.184 57.184 0 0 1 7.637 9.73c21.366-9.64 31.366-28.14 33.73-37.87 2.546 9.44 13.547 28.52 35.185 37.87a49.266 49.266 0 0 1 7.546-10.69c-28.275-10.97-36.821-32.91-36.821-47.41zm21 17.45a147.213 147.213 0 0 1 -12.183 26.43l9.455 4.19c4.546-6.48 10-16.69 14.638-25.94zm-55.551.1c-1.272 10.78-4.273 20.22-10.91 26.14l9.819 6.39c7.819-6.77 10.456-18.13 12-30.05zm89.3 70.59a113.143 113.143 0 0 0 11.183-20.22l-10.364-2.87a88.953 88.953 0 0 1 -11.092 18.7zm16.184-19.27a118.283 118.283 0 0 1 1.727 18.32l10.637-1.53a113.3 113.3 0 0 0 -2.273-17.84zm37.366-22.32a116.361 116.361 0 0 0 -10.728-7.63 116.256 116.256 0 0 0 2.364-17.55h8.455c-.454 25.66-.454 41.68 11.183 41.68 6.637 0 9.456-3.43 10.456-15.17a22.116 22.116 0 0 1 -8-4.1c-.273 6.68-.818 9.45-2.091 9.45-2.819.09-2.455-14.98-1.364-41.4h-18.268c.182-4.2.182-8.59.272-13.36h-10.182c0 4.77-.091 9.16-.182 13.36h-10.728v9.54h10.364a88.546 88.546 0 0 1 -1.454 11.92c-1.91-1.15-3.728-2.19-5.365-3.15l-4.545 7.06-1-9.83c-3 .77-6 1.53-8.91 2.29v-7.91h9.364v-10.4h-9.36v-12.5h-9.91v12.5h-12.096v10.4h12.092v10.3c-5.274 1.24-10.183 2.38-14.092 3.15l2.091 10.97 12-3.15v8.77c0 1.25-.455 1.53-1.637 1.63-1.182 0-4.909 0-8.637-.19a39.123 39.123 0 0 1 2.909 10.2c6.092 0 10.365-.28 13.365-1.91 3-1.71 3.91-4.38 3.91-9.53v-11.64l9.546-2.58-.182.29c2.364 1.43 4.91 3.15 7.546 4.86a29.962 29.962 0 0 1 -11.637 13.45 27.883 27.883 0 0 1 6.728 8.4 36.079 36.079 0 0 0 13.728-15.93 83.728 83.728 0 0 1 8.637 6.87zm-18.819 22.13c2.091 5.91 4.182 13.54 4.727 18.22l10.729-2.19a90.418 90.418 0 0 0 -5.274-17.75zm18.456-.19c4.091 6.2 8.91 14.59 10.819 19.65l10.274-4.77c-2.273-5.34-7.365-13.26-11.456-18.98zm42.8-.57v-18.7h14.456v18.7h-14.449zm14.456-28.53h-14.449v-15.45h14.456v15.45zm28.821-26.04a114.521 114.521 0 0 0 3.546-12.11l-10.274-2.48c-2.637 11.16-7 22.7-12.274 30.71v-15.45h-14.085c1.546-4.1 3.182-8.87 4.728-13.64l-11.82-1.72a106.648 106.648 0 0 1 -2.636 15.36h-10.274v70.88h9.819v-6.97h24.275v-44.55a68.29 68.29 0 0 1 7 5.35 83.7 83.7 0 0 0 8-15.08h19.462c-1 33.68-2.182 47.99-4.819 51.04a4.731 4.731 0 0 1 -4 1.62c-2.364 0-7.728 0-13.547-.57a27.669 27.669 0 0 1 3.546 11.06 96.848 96.848 0 0 0 14.274-.19c3.637-.66 6.182-1.71 8.728-5.24 3.728-5.06 4.728-20.23 5.91-62.87.09-1.33.09-5.15.09-5.15h-25.642zm10.546 43.5c-2.818-5.53-8.819-14.59-13.365-21.18l-8.455 5.06c4.455 6.96 10.092 16.31 12.638 22.04zm56.654-47.31-1.82.38h-27.9v10.87h25.1a163.44 163.44 0 0 1 -4.82 21.37c-4.37-4.29-8.73-8.39-12.91-12.11l-7.458 7.25a216.778 216.778 0 0 1 16 16.31c-4.82 10.68-11.27 19.27-18.907 24.7a38.37 38.37 0 0 1 7.546 9.26 70.86 70.86 0 0 0 19.271-24.33 94.658 94.658 0 0 1 8.28 12.59l8.36-8.49c-2.54-4.77-6.82-10.39-11.64-15.93 3.91-11.35 6.64-24.61 8.1-39.77zm7.73 33.1c4 6.48 8 15.16 9.37 20.7l9.36-4.96c-1.45-5.63-5.91-13.93-10.09-20.13zm44.1-22.8h-9.73v-21.27h-10.73v21.27h-22.903v10.87h22.91v42.83c0 1.63-.55 2.1-2.18 2.1-1.55 0-6.46.1-11.46-.19a52.386 52.386 0 0 1 3.37 12.21c7.54 0 13-.47 16.36-2.48 3.46-1.91 4.64-5.15 4.64-11.64v-42.83h9.73v-10.87zm87.6-4.48c-1.73-3.63-5.73-9.26-8.82-13.36l-7.36 4.29c3.09 4.3 6.82 10.21 8.36 13.93zm-69.19 54.85v-19.18h19.55v19.18zm61.83-35.39a92.686 92.686 0 0 1 -7.91 18.31c-.91-5.44-1.73-11.64-2.37-18.31l19.73-3.06-1.45-9.54-19 2.77c-.55-8.01-.91-16.6-1-25.57h-10c.27 9.64.63 18.61 1.18 27l-11 1.62 1.45 9.73 10.27-1.52a215.679 215.679 0 0 0 4.19 28.14 58.176 58.176 0 0 1 -16.37 13.35v-36.92h-16.18v-15.64h17.36v-10.02h-17.36v-15.45h-10.37v41.11h-12.63v45.13h9.63v-5.44h19.55v4.96h10v-6.58a45.585 45.585 0 0 1 6.91 7.15 58.622 58.622 0 0 0 12.82-10.59c3.27 7.63 7.46 12.02 13 12.31 3.73.09 8.18-3.63 10.46-19.46-1.64-1.05-5.82-4.01-7.64-6.3-.45 8.4-1.45 12.69-2.91 12.59-2-.19-3.82-3.24-5.45-8.3a99.384 99.384 0 0 0 13.18-26.71zm40.6 20.12h9.37l3.18-32.62.45-14.21h-16.63l.36 14.21zm4.64 25.38a9.093 9.093 0 0 0 9.45-9.35 9.455 9.455 0 0 0 -18.91 0 9.1 9.1 0 0 0 9.467 9.35z"/></g></svg>