<svg height="240.69" viewBox="0 0 592.937 240.69" width="592.937" xmlns="http://www.w3.org/2000/svg"><g fill="#fff" fill-rule="evenodd" transform="translate(-78.219 -8209.12)"><path d="m92.706 8292.81a76.807 76.807 0 0 0 16.227-16.91c3.765 5.52 10 11.73 16.747 16.91zm20.317 22.09h18.177v-7.09h-18.177v-7.84h15.189v-5.32c2.336 1.7 4.673 3.2 7.01 4.57a39.147 39.147 0 0 1 5.128-7.3c-10.256-4.57-20.836-13.5-27.782-23.86h-7.983c-4.8 8.32-15.254 18.82-26.354 24.68a29.885 29.885 0 0 1 4.868 6.54 80.818 80.818 0 0 0 7.2-4.7v5.39h14.67v7.84h-17.975v7.09h17.98v8.11h-23.174v7.29h55.238v-7.29h-24.015zm84.853-10.02a137.041 137.041 0 0 0 8.633-11.73l-6.75-3.75a65.056 65.056 0 0 1 -6.751 11.38 78.319 78.319 0 0 1 -2.726-11.24v-2.46h16.418v-7.36h-5.063l3.9-4.09a46.118 46.118 0 0 0 -8.633-7.09l-4.284 4.22a46.812 46.812 0 0 1 7.919 6.96h-10.257v-11.45h-7.465v11.45h-14.6v-6.27h-21.68v7.5h7.27v11.45h-6.816v7.43h6.809v13.84c-3.246.89-6.167 1.7-8.568 2.32l2.012 7.7c4.738-1.57 10.515-3.48 16.292-5.52l3.57 6.61c4.609-2.93 10.061-6.82 14.929-10.5l-2.336-6.68c-3.7 2.32-7.465 4.71-10.775 6.75l-.779-5.04c-2.337.75-4.674 1.43-7.01 2.18v-11.66h6.365v-7.43h-6.361v-11.45h6.361v6.13h15.318v35.66a1.211 1.211 0 0 1 -1.363 1.43c-1.038 0-4.024 0-7.27-.14a28.725 28.725 0 0 1 2.662 7.84c4.868 0 8.113-.34 10.385-1.7 2.272-1.23 3.051-3.41 3.051-7.43v-11.12a45.93 45.93 0 0 0 12.787 15.14 18.119 18.119 0 0 1 4.738-6.14 38.4 38.4 0 0 1 -14.215-18.2zm-17.46-2.87c-1.039-3.34-3.83-8.18-6.362-11.86l-5.971 2.79a54.5 54.5 0 0 1 5.971 12.21zm90.441-28.9h-31.157v7.7h31.156v-7.7zm-33.557 37.49-7.854 1.98v-12.27h6.426v-7.43h-6.426v-12.07h7.01v-7.5h-22.135v7.5h7.66v12.07h-7.011v7.43h7.011v14.11c-3.311.75-6.361 1.43-8.893 1.98l1.558 7.77c6.621-1.84 15.319-4.16 23.5-6.48zm27.717 13.43c-.909 0-1.039-.27-1.039-2.59v-21.47h10.191v-7.78h-37.064v7.78h7.334c-.519 13.29-1.947 21.2-14.864 25.77a19.477 19.477 0 0 1 4.284 6.2c14.929-5.59 17.266-16.02 18.045-31.97h4.414v21.54c0 7.57 1.363 10.09 7.335 10.09h4.413c4.933 0 6.816-3.07 7.465-13.57-2.012-.61-5.258-1.91-6.816-3.34-.129 8.05-.389 9.34-1.428 9.34h-2.271zm26.409-43.02h39.53v7.84h7.918v-15.2h-23.757v-5.32h-7.917v5.32h-23.37v15.2h7.6v-7.84zm41.412 11.66a78.761 78.761 0 0 1 -9.023 7.43 62.133 62.133 0 0 1 -2.661-7.91h7.4v-6.81h-34.854v6.81h9.476a75.743 75.743 0 0 1 -19.862 6.89 48.3 48.3 0 0 1 3.959 6.34 94.207 94.207 0 0 0 15.384-5.79c.584.54 1.1 1.09 1.623 1.63-4.868 3.48-13.5 7.23-20.057 8.86a29.46 29.46 0 0 1 3.894 6.14 93.68 93.68 0 0 0 19.668-10.23 26.843 26.843 0 0 1 1.233 2.39c-6.426 5.73-17.72 11.32-27.067 13.77a35.3 35.3 0 0 1 4.024 6.75 98.228 98.228 0 0 0 24.8-13.5c.259 3.62-.649 6.41-2.142 7.64-1.039 1.23-2.272 1.43-3.895 1.43-1.688 0-3.765-.14-6.231-.34a17.633 17.633 0 0 1 2.207 7.77 49.9 49.9 0 0 0 5.517.14c3.375 0 5.517-.68 7.919-2.87 6.426-4.9 6.945-21.88-5.323-33.06a41.265 41.265 0 0 0 5.388-3.96h.13c3.7 15.89 10.126 28.43 21.679 34.91a33.847 33.847 0 0 1 5.388-7.02 33.8 33.8 0 0 1 -14.475-13.7 117.719 117.719 0 0 0 11.943-8.25zm41.364 19.7h5.712a35.856 35.856 0 0 0 4.544 7.98c-3.44.55-6.945 1.02-10.256 1.5zm3.246-11.45h9.671v4.64h-9.671zm0-11.25h9.671v4.5h-9.671zm-16.548-11.66h34.337v4.78h-34.337zm36.479 34.36a77.5 77.5 0 0 1 -6.621 4.64 26.8 26.8 0 0 1 -3.57-4.64zm2.272 0h6.815v-6.81h-12.2v-4.64h9.347v-6.75h-9.347v-4.5h8.828v-18.47h-49.98v20.11c0 10.84-.519 26.18-6.945 36.68a32.192 32.192 0 0 1 6.88 4.16c6.815-11.19 7.854-28.91 7.854-40.84v-1.64h9.477v4.5h-8.179v6.75h8.179v4.64h-9.931v6.81h6.685v10.44c-2.4.34-4.673.61-6.62.81l1.038 7.37c6.751-1.09 15.773-2.39 24.211-3.82l-.259-5.52a32.276 32.276 0 0 0 17.2 10.36 27.8 27.8 0 0 1 4.543-6.68 34.353 34.353 0 0 1 -11.424-4.3 77.578 77.578 0 0 0 8.439-5.38zm37.34-15.88v-16.64h14.859v16.64h-14.864zm36.284 0h-13.311v-16.64h11.359v-7.63h-54.784v7.63h12.528v16.64h-14.667v7.77h14.021c-1.233 8.05-4.739 15.89-14.215 21.89a31.759 31.759 0 0 1 6.231 6.06c11.294-7.43 14.929-17.79 16.1-27.95h15.313v27.75h8.114v-27.75h13.306v-7.77z"/><path d="m96.463 8230.64h7.282v-5.8h-7.282v-8.07a61.565 61.565 0 0 0 7.483-2.22l-3.867-4.9c-4.57 1.9-11.9 3.58-18.43 4.53a22.291 22.291 0 0 1 1.607 4.91c2.31-.32 4.72-.69 7.181-1.11v6.86h-8.937v5.8h7.482c-1.958 5.8-5.172 11.87-8.587 15.66a28.269 28.269 0 0 1 3.013 5.91c2.662-3.11 5.022-7.65 7.03-12.6v18.77h6.026v-19.46c1.657 2.48 3.264 5.12 4.218 6.91l3.415-5.22c-1.105-1.43-5.624-6.96-7.633-9.07v-.9zm14.463 15.08v-25.58h8.034v25.58zm-5.876-31.59v41.77h5.876v-4.16h8.034v3.79h6.177v-41.4zm34.512 4.91h30.582v6.06h6.127v-11.76h-18.38v-4.11h-6.126v4.11h-18.078v11.76h5.875zm32.039 9.01a59.936 59.936 0 0 1 -6.981 5.75 48.54 48.54 0 0 1 -2.058-6.11h5.724v-5.28h-26.966v5.28h7.332a58.9 58.9 0 0 1 -15.367 5.32 37.424 37.424 0 0 1 3.064 4.91 72.5 72.5 0 0 0 11.9-4.49c.452.43.854.85 1.255 1.27a52.824 52.824 0 0 1 -15.517 6.86 22.545 22.545 0 0 1 3.013 4.74 72.4 72.4 0 0 0 15.216-7.91c.352.58.653 1.22.954 1.85-4.971 4.43-13.709 8.75-20.94 10.65a27.276 27.276 0 0 1 3.113 5.22 75.907 75.907 0 0 0 19.183-10.44c.2 2.8-.5 4.96-1.657 5.91a3.476 3.476 0 0 1 -3.013 1.11c-1.306 0-2.913-.11-4.821-.27a13.626 13.626 0 0 1 1.707 6.01 39.255 39.255 0 0 0 4.269.11 8.013 8.013 0 0 0 6.126-2.22c4.972-3.79 5.373-16.93-4.118-25.58a32.989 32.989 0 0 0 4.168-3.05h.1c2.862 12.28 7.834 21.99 16.772 27a26.082 26.082 0 0 1 4.168-5.43 26.115 26.115 0 0 1 -11.2-10.6 90.769 90.769 0 0 0 9.24-6.39zm29.992-17.66c-.351 6.96.352 30.9-19.685 42.56a21.385 21.385 0 0 1 5.022 5.01c10.6-6.8 15.868-16.98 18.58-26.48 2.812 9.71 8.436 20.57 19.785 26.48a20.321 20.321 0 0 1 4.62-5.33c-18.73-9.23-21.241-31.96-21.643-39.24.05-1.11.1-2.16.151-3zm46.379 42.24a96.777 96.777 0 0 0 -10.947-11.55l-5.223 4.75a96.328 96.328 0 0 1 10.8 11.66zm51.279-17.61c.1-2.06.151-4.01.151-5.81v-.42h7.281v6.23zm7.432-17.83v6.06h-7.283v-6.06h7.281zm-29.477 17.83c.1-1.64.1-3.12.1-4.59v-1.64h6.328v6.23zm6.428-17.83v6.06h-6.328v-6.06zm28.824-5.7h-18.731v17.72c0 7.71-.4 17.94-4.921 25.27a11.007 11.007 0 0 0 .4-3.43v-39.56h-17.423v18.99c0 7.7-.3 17.99-4.57 24.9a24.156 24.156 0 0 1 4.821 3.16c2.912-4.85 4.268-11.55 4.871-17.93h6.729v10.44a.754.754 0 0 1 -.8.95c-.653 0-2.561 0-4.318-.11a20.238 20.238 0 0 1 1.606 5.6c3.214 0 5.474-.16 7.031-1.11a4.107 4.107 0 0 0 1.105-.95 22.353 22.353 0 0 1 4.871 3.22c3.364-4.91 4.921-11.61 5.674-18.04h7.884v10.28a.832.832 0 0 1 -1 1 43.1 43.1 0 0 1 -5.273-.05 24.635 24.635 0 0 1 1.757 6.17c3.717 0 6.278-.16 7.985-1.21 1.808-1.06 2.31-2.74 2.31-5.8v-39.51zm39.408 23.1a29.17 29.17 0 0 1 -5.775 8.87 29.791 29.791 0 0 1 -6.628-8.87h12.4zm3.917-6.32-1.105.26h-17.578c.4-1.9.7-3.69.955-5.43h26.012v-6.12h-25.36c.3-3.22.4-5.96.5-7.86h-6.226c-.1 1.63-.151 4.43-.4 7.86h-12.15v6.12h11.449c-1.356 9.6-4.67 21.52-13.358 29.01a18.7 18.7 0 0 1 5.122 4.43c5.424-5.17 8.889-12.08 11.2-19.04a39.169 39.169 0 0 0 6.678 9.96 35.37 35.37 0 0 1 -11.951 5.59 26.294 26.294 0 0 1 3.364 5.33 44.1 44.1 0 0 0 13.308-6.8 41.637 41.637 0 0 0 15.316 6.64 25.659 25.659 0 0 1 3.866-5.69 42.942 42.942 0 0 1 -14.412-5.28 40.358 40.358 0 0 0 8.838-17.14zm28.195 24.36a96.7 96.7 0 0 0 -10.947-11.55l-5.222 4.75a96.321 96.321 0 0 1 10.8 11.66z"/><path d="m137.3 8344.68h-13.865v35.5c0 16.96-9.859 44.5-42.471 57.58a68.449 68.449 0 0 1 9.1 11.61c25.461-11.49 37.379-33.57 40.2-45.18 3.033 11.27 16.143 34.03 41.929 45.18a58.849 58.849 0 0 1 8.992-12.75c-33.695-13.08-43.879-39.26-43.879-56.55v-35.39zm25.027 20.82a175.141 175.141 0 0 1 -14.518 31.52l11.268 5.01c5.417-7.74 11.918-19.91 17.444-30.95zm-66.2.12c-1.517 12.85-5.092 24.12-13 31.18l11.7 7.62c9.318-8.08 12.46-21.62 14.3-35.85zm106.423 84.2a134.421 134.421 0 0 0 13.327-24.12l-12.352-3.41a106.1 106.1 0 0 1 -13.218 22.3zm19.285-22.98a141.032 141.032 0 0 1 2.059 21.85l12.676-1.82a135.268 135.268 0 0 0 -2.708-21.28zm44.53-26.63a141.014 141.014 0 0 0 -12.785-9.1 138.61 138.61 0 0 0 2.817-20.94h10.076c-.541 30.61-.541 49.73 13.327 49.73 7.909 0 11.268-4.1 12.459-18.1a26.379 26.379 0 0 1 -9.534-4.89c-.325 7.97-.975 11.27-2.492 11.27-3.359.11-2.925-17.87-1.625-49.39h-21.772c.216-5.01.216-10.24.325-15.93h-12.135c0 5.69-.108 10.92-.217 15.93h-12.784v11.38h12.351a105.624 105.624 0 0 1 -1.733 14.22c-2.276-1.36-4.443-2.62-6.393-3.75l-5.417 8.42-1.192-11.72c-3.575.91-7.15 1.82-10.617 2.73v-9.45h11.159v-12.4h-11.159v-14.91h-11.81v14.91h-14.414v12.4h14.41v12.29c-6.284 1.48-12.135 2.85-16.793 3.76l2.492 13.08 14.3-3.75v10.47c0 1.48-.542 1.82-1.95 1.93-1.409 0-5.851 0-10.293-.22a46.649 46.649 0 0 1 3.467 12.17c7.259 0 12.351-.34 15.927-2.27 3.575-2.05 4.659-5.24 4.659-11.38v-13.89l11.376-3.07-.217.34c2.817 1.71 5.851 3.76 8.993 5.81a35.781 35.781 0 0 1 -13.869 16.04 33.291 33.291 0 0 1 8.018 10.01 42.917 42.917 0 0 0 16.36-19 101.174 101.174 0 0 1 10.293 8.19zm-22.427 26.4c2.492 7.06 4.984 16.16 5.634 21.74l12.784-2.62a107.845 107.845 0 0 0 -6.284-21.17zm21.994-.23c4.875 7.4 10.617 17.41 12.893 23.44l12.243-5.68c-2.709-6.38-8.776-15.82-13.652-22.65zm51-.68v-22.3h17.227v22.3h-17.218zm17.227-34.02h-17.218v-18.44h17.227v18.44zm34.345-31.07a137.441 137.441 0 0 0 4.226-14.45l-12.23-2.96c-3.142 13.31-8.343 27.08-14.627 36.64v-18.43h-16.797c1.842-4.9 3.792-10.59 5.634-16.28l-14.085-2.05a127.712 127.712 0 0 1 -3.142 18.33h-12.243v84.55h11.7v-8.31h28.928v-53.14a79.208 79.208 0 0 1 8.343 6.37 99.526 99.526 0 0 0 9.534-17.98h23.186c-1.192 40.17-2.6 57.24-5.742 60.88a5.633 5.633 0 0 1 -4.768 1.93c-2.817 0-9.209 0-16.143-.68a33.032 33.032 0 0 1 4.225 13.2c6.393.23 12.893.34 17.011-.23 4.333-.79 7.367-2.04 10.4-6.25 4.442-6.04 5.634-24.13 7.042-75 .108-1.59.108-6.14.108-6.14h-30.551zm12.568 51.89c-3.359-6.6-10.509-17.41-15.926-25.26l-10.076 6.03c5.308 8.31 12.026 19.46 15.059 26.29zm67.517-56.44-2.167.45h-33.253v12.97h29.9a193.743 193.743 0 0 1 -5.742 25.5c-5.2-5.13-10.4-10.02-15.385-14.46l-8.884 8.65a261.889 261.889 0 0 1 19.069 19.46c-5.743 12.75-13.435 22.99-22.536 29.47a45.823 45.823 0 0 1 8.993 11.04 84.525 84.525 0 0 0 22.969-29.02 112.977 112.977 0 0 1 9.859 15.03l9.968-10.13c-3.034-5.69-8.126-12.41-13.868-19.01 4.658-13.54 7.909-29.36 9.642-47.45zm9.209 39.48c4.767 7.74 9.535 18.1 11.16 24.7l11.159-5.92c-1.733-6.71-7.042-16.61-12.026-24.01zm52.547-27.19h-11.584v-25.38h-12.784v25.38h-27.3v12.97h27.3v51.09c0 1.94-.65 2.51-2.6 2.51-1.842 0-7.693.11-13.652-.23a62.327 62.327 0 0 1 4.009 14.57c8.993 0 15.493-.57 19.5-2.96 4.117-2.28 5.525-6.15 5.525-13.89v-51.09h11.593v-12.97zm104.4-5.35c-2.058-4.33-6.825-11.04-10.509-15.93l-8.776 5.12c3.684 5.12 8.126 12.17 9.968 16.61zm-82.45 65.43v-22.87h23.305v22.87h-23.3zm73.674-42.22a110.141 110.141 0 0 1 -9.426 21.85c-1.083-6.48-2.058-13.88-2.817-21.85l23.511-3.64-1.733-11.38-22.644 3.3c-.65-9.56-1.084-19.8-1.192-30.5h-11.911c.325 11.5.758 22.19 1.409 32.21l-13.11 1.93 1.733 11.61 12.243-1.82a257.779 257.779 0 0 0 4.984 33.57 69.317 69.317 0 0 1 -19.5 15.93v-44.04h-19.287v-18.66h20.694v-11.95h-20.694v-18.43h-12.351v49.04h-15.06v53.83h11.482v-6.49h23.3v5.92h11.918v-7.85a54.341 54.341 0 0 1 8.234 8.53 69.751 69.751 0 0 0 15.277-12.63c3.9 9.1 8.884 14.34 15.493 14.68 4.442.11 9.751-4.32 12.46-23.21-1.95-1.26-6.934-4.78-9.1-7.52-.542 10.02-1.734 15.14-3.467 15.03-2.384-.23-4.551-3.87-6.5-9.9a118.683 118.683 0 0 0 15.71-31.87zm48.389 24.01h11.159l3.792-38.91.542-16.96h-19.82l.433 16.96zm5.525 30.27c6.393 0 11.268-4.55 11.268-11.15a11.268 11.268 0 0 0 -22.536 0c.007 6.6 4.885 11.15 11.275 11.15z"/></g></svg>