<svg height="81.906" viewBox="0 0 444.187 81.906" width="444.187" xmlns="http://www.w3.org/2000/svg"><path d="m442.123 617.1a86.763 86.763 0 0 1 -4.539 18.559c-1.7-1.447-3.4-2.894-5.106-4.256 1.135-4.513 2.188-9.366 3.161-14.3h6.484zm4.943-11.664-1.945.34h-7.375c.892-5.278 1.7-10.472 2.269-15.5l-11.751-.851c-.406 5.193-1.054 10.812-1.946 16.346h-6.726v11.329h4.7c-1.378 6.9-2.917 13.281-4.457 18.474 3.89 3.321 8.266 7.237 12.4 11.238a37.46 37.46 0 0 1 -14.1 13.452c2.431 2.214 5.511 6.811 7.132 9.791a51.02 51.02 0 0 0 15.4-14.729 74.788 74.788 0 0 1 7.051 8.854l7.7-10.642a76.358 76.358 0 0 0 -8.753-9.62c4.053-9.791 6.484-21.881 7.619-36.78zm49.2 18.219h-15.322v-5.275a113.054 113.054 0 0 0 14.756-19.241l-7.862-5.96-2.756.6h-29.668v11.153h22.126a57.873 57.873 0 0 1 -8.834 11.664v7.066h-16.29v11.749h16.29v21.455c0 1.277-.486 1.617-1.864 1.617-1.3 0-6.241 0-9.888-.17a48.041 48.041 0 0 1 3.89 11.834c6.4 0 11.347-.255 15.156-2.043 3.809-1.873 4.944-4.938 4.944-10.983v-21.71h15.318v-11.753zm33.034-20.515c-2.836-3.746-8.915-9.28-13.129-13.111l-7.375 7.492c4.295 4.257 10.049 10.216 12.643 14.133zm-3.971 41.8v-29.8h-19.369v11.834h8.429v24.094a9.84 9.84 0 0 1 -3.89 8 38.462 38.462 0 0 1 5.105 10.217c1.459-2.214 4.3-4.768 18.4-17.879a59.485 59.485 0 0 1 -4.214-10.557zm57.3-13.2h-19.612v-27.068h16.858v-11.748h-47.17v11.748h18.4v27.074h-20.021v11.754h20.016v26.478h11.914v-26.478h19.616v-11.754zm-49.029-22.215a105.357 105.357 0 0 1 3.4 19.241l10.455-2.724a114.52 114.52 0 0 0 -3.971-18.986zm41.658 19.582c1.783-4.938 3.971-12.43 6-19.582l-11.265-2.384a132.056 132.056 0 0 1 -3.809 19.582zm68.084 6.9a42.491 42.491 0 0 1 -8.023 9.62 41.88 41.88 0 0 1 -8.348-9.62zm8.915-12.43-2.188.511h-21.72c.648-1.873 1.215-3.831 1.783-5.875h34.2l.081-11.749h-14.1l9.24-6.13c-2.108-3.064-6.484-8-9.4-11.408l-9.158 5.7c2.837 3.661 6.808 8.769 8.753 11.834h-16.864c1.054-5.023 1.864-10.216 2.513-15.75l-13.211-2.3c-.729 6.386-1.621 12.345-2.837 18.049h-9.239a84.449 84.449 0 0 0 5.43-13.877l-12.319-1.958a69.756 69.756 0 0 1 -5.835 15.154 8.036 8.036 0 0 1 -3.728 3.661c1.215 2.98 3.079 8.429 3.809 10.983.648-1.447 4.538-2.214 8.429-2.214h10.212c-5.187 15.751-13.778 27.84-27.962 35.247a46.725 46.725 0 0 1 8.591 10.131 62.321 62.321 0 0 0 22.207-20.177 55.267 55.267 0 0 0 6.727 8.854 69.61 69.61 0 0 1 -19.532 6.9 46.873 46.873 0 0 1 6.24 10.983 85.636 85.636 0 0 0 23.1-9.535c6.646 4.427 14.588 7.577 24.233 9.535a52.476 52.476 0 0 1 7.375-11.323 75.669 75.669 0 0 1 -21.153-6.3 58.562 58.562 0 0 0 14.588-24.946zm79.112 27.923v6.13h-34.2v-6.13zm-45.953 18.815h11.751v-3.065h34.2v3.065h12.319v-28.438h-58.27v28.436zm12.076-43.845h14.831v2.894h-14.831zm14.831-18.049h-14.831v-2.64h14.831zm0 10.3h-14.831v-2.554h14.831zm11.509 10.642v-2.894h18.154v-7.749h-18.154v-2.554h18.154v-7.747h-18.154v-2.64h22.45v-8.428h-22.126a63.6 63.6 0 0 0 -3.566-8.429l-10.941 3.235c.648 1.618 1.377 3.406 1.945 5.194h-10.212c.81-1.618 1.621-3.321 2.35-4.938l-10.941-3.746c-4.134 9.7-11.266 19.5-18.479 25.541a84.351 84.351 0 0 1 7.781 9.876c1.3-1.192 2.512-2.554 3.809-3.917v20.689h11.59v-2.556h50.9v-8.94h-24.56zm78.174 2.469v-15.92h15.643v15.92zm-28.042 0v-15.92h15.561v15.92zm28.042-28.1v-14.555h-12.481v14.559h-27.394v44.7h11.833v-4.427h15.561v26.052h12.481v-26.055h15.643v4h12.4v-44.27h-28.043zm47.11 35.247h9.32l2.108-28.777.486-13.451h-14.508l.487 13.451zm4.62 24.179c5.025 0 8.591-4.172 8.591-9.45 0-5.194-3.566-9.366-8.591-9.366-4.944 0-8.51 4.172-8.51 9.366 0 5.282 3.566 9.454 8.51 9.454z" fill="#fff" fill-rule="evenodd" transform="translate(-418.125 -588.406)"/></svg>