<svg id="icon_linkin" data-name="icon linkin" xmlns="http://www.w3.org/2000/svg" viewBox="0 0 36.21 37"><defs><style>.cls-1{fill:#333;}</style></defs><title>icon_linkin</title><path id="パス_113" data-name="パス 113" class="cls-1" d="M29.42.4H6.79A6.78,6.78,0,0,0,0,7.19H0V29.82A6.78,6.78,0,0,0,6.79,36.6H29.42a6.78,6.78,0,0,0,6.79-6.79h0V7.19A6.78,6.78,0,0,0,29.42.4ZM11.2,31.14H5.57V14.28h5.62Zm-3-19h0A2.87,2.87,0,1,1,7.87,6.4h.41a2.85,2.85,0,0,1,.4,5.69Zm22.46,19H25V22c0-2.22-.58-3.73-2.57-3.73a2.86,2.86,0,0,0-2.71,2,3.57,3.57,0,0,0-.19,1.34v9.53h-5.7V14.28h5.7v2.39A5.25,5.25,0,0,1,24.38,14c3.6,0,6.29,2.35,6.29,7.4v9.78Z"/></svg>