<svg xmlns="http://www.w3.org/2000/svg" width="60" height="60" viewBox="0 0 60 60"><defs><style>.cls-1{fill:#f6f7fc;opacity:0;}.cls-2{opacity:0.5;}.cls-3{fill:#fff;}</style></defs><g id="最終形"><rect class="cls-1" width="60" height="60"/></g><g id="レイヤー_4" data-name="レイヤー 4" class="cls-2"><path class="cls-3" d="M223,944H177a3,3,0,0,0-3,3v32a3,3,0,0,0,3,3h46a3,3,0,0,0,3-3V947A3,3,0,0,0,223,944Zm-46,2h46a1,1,0,0,1,1,1v4H176v-4A1,1,0,0,1,177,946Zm46,34H177a1,1,0,0,1-1-1V953h48v26A1,1,0,0,1,223,980Zm-4-31.5a1.5,1.5,0,1,1,1.5,1.5A1.5,1.5,0,0,1,219,948.5Zm-4,0a1.5,1.5,0,1,1,1.5,1.5A1.5,1.5,0,0,1,215,948.5Zm-4,0a1.5,1.5,0,1,1,1.5,1.5A1.5,1.5,0,0,1,211,948.5Zm-5.13,17.77a.27.27,0,0,1,0,.46L194.31,973c-.14.08-.31-.05-.31-.23v-12.5c0-.18.17-.31.31-.23Z" transform="translate(-170 -933)"/></g></svg>