<svg height="84.594" viewBox="0 0 420.219 84.594" width="420.219" xmlns="http://www.w3.org/2000/svg"><path d="m342.341 891.829c.924-4.587 1.764-9.526 2.605-14.642l5.125-.353a75.57 75.57 0 0 1 -3.193 19.229zm23.443-16.141.084-11.467-4.286.265v-4.411h-11.343v5.025l-3.613.176c.672-5.733 1.26-11.466 1.68-16.847l-12.1-.617c-.252 5.733-.756 11.908-1.512 18.082l-6.386.264 1.092 12.084 3.7-.264c-1.008 6.615-2.269 12.7-3.445 17.641 3.613 3.7 7.814 7.938 12.016 12.172a48.72 48.72 0 0 1 -13.444 14.818 45.2 45.2 0 0 1 8.57 9.085 56.481 56.481 0 0 0 13.528-14.818c3.193 3.528 6.05 6.792 8.066 9.526l8.067-10.673a131.024 131.024 0 0 0 -10.167-10.761c3.781-10.055 4.957-20.375 5.209-28.931zm42.6 7.673h-15.884v-5.468a117.085 117.085 0 0 0 15.3-19.935l-8.151-6.174-2.857.618h-30.756v11.554h22.938a59.96 59.96 0 0 1 -9.158 12.084v7.321h-16.889v12.173h16.889v22.227c0 1.323-.5 1.676-1.933 1.676-1.344 0-6.47 0-10.251-.176a49.737 49.737 0 0 1 4.033 12.26c6.638 0 11.764-.265 15.713-2.117 3.949-1.94 5.125-5.116 5.125-11.378v-22.492h15.881zm39.158-21.261h-14.284l4.621-2.822a101.61 101.61 0 0 0 -5.545-12.085l-8.655 4.675c1.429 3.087 3.109 6.968 4.285 10.232h-12.519v9.967h32.1v-9.967zm-3.529 22.139v-9.526h-25.291v9.526zm.084 2.647h-25.375v9.526h25.378v-9.522zm-9.411 22.492v7.232h-6.3v-7.232zm9.579-10.056h-25.375v30.96h9.5v-3.528h15.88v-27.428zm50.247-9.261h-17.9v-26.461h16.469v-11.9h-43.181v11.9h14.7v26.461h-17.394v12.084h17.394v29.2h12.015v-29.2h17.9v-12.08zm-44.449-21.434a111.683 111.683 0 0 1 2.773 19.934l10.251-2.381a112.971 112.971 0 0 0 -3.361-19.67zm37.054 19.758c1.933-5.116 4.118-12.878 6.218-20.287l-11.511-2.382a126.765 126.765 0 0 1 -4.033 20.287zm52.683 19.762-3.277 4.145c3.277 1.765 6.974 3.881 10.671 6a50.219 50.219 0 0 1 -13.528 3.881c.924-3.44 1.428-8.467 1.932-15.788.168-1.412.252-4.234.252-4.234h-16.72l.588-4.322h16.132v-3.793a64.814 64.814 0 0 1 5.294 5.733h-2.521v8.38h1.177zm20 0a27.931 27.931 0 0 1 -3.613 4.234c-2.6-1.5-5.293-2.911-7.9-4.234zm-35.122-47.9a43.1 43.1 0 0 1 -3.277 3.616c-1.932-1.235-4.369-2.558-6.47-3.616zm46.466-3.264a69.169 69.169 0 0 1 -8.151 8.468 44.613 44.613 0 0 1 -3.613-3.264c2.773-2.117 6.05-4.763 9.243-7.585l-8.739-6.439a52.134 52.134 0 0 1 -6.3 6.968 41.939 41.939 0 0 1 -3.7-6.968l-9.747 2.91a62.069 62.069 0 0 0 15.544 22.845h-14.953v5.91c0 3.705-.5 7.674-4.874 11.2v-16.487h-9.914a50.088 50.088 0 0 0 14.96-20.816l-7.562-3.793-1.933.441h-21.682v9.879h2.941l-6.05 6c2.017 1.146 4.537 2.646 6.638 4.057a51.549 51.549 0 0 1 -12.6 5.822 53.719 53.719 0 0 1 6.47 9.349c2.269-.882 4.453-1.852 6.638-2.911v1.5h11.34v4.5h-13.949c-.756 7.41-2.184 16.583-3.445 22.669h16.721c-.5 4.763-1.176 7.233-2.016 8.027a4.022 4.022 0 0 1 -3.109.882c-1.849 0-5.882-.089-9.831-.441a24.5 24.5 0 0 1 3.445 10.672 84.517 84.517 0 0 0 11.259-.264c3.109-.265 5.378-1.059 7.478-3.352a10.4 10.4 0 0 0 2.017-4.5 40.11 40.11 0 0 1 4.957 9.173c7.142-1.588 13.36-3.793 18.654-7.145 4.285 2.646 8.15 5.116 10.839 7.145l6.134-8.468c-2.353-1.588-5.462-3.44-8.907-5.469a39.383 39.383 0 0 0 8.4-15.7l-6.638-2.293-1.848.264h-23.021c5.882-4.322 7.9-10.5 8.4-16.317h5.8v3.175c0 8.2 1.6 11.731 9.831 11.731h4.285a14.716 14.716 0 0 0 5.042-.617c-.336-2.47-.588-6.086-.756-8.644a18.217 18.217 0 0 1 -4.454.529h-2.94c-1.009 0-1.177-.794-1.177-2.911v-5.38a58.643 58.643 0 0 0 8.235 3.528 49.2 49.2 0 0 1 7.226-10.056 55.491 55.491 0 0 1 -10.671-4.145c2.688-2.029 5.881-4.587 8.822-7.321zm76.893 55.217v6.351h-35.458v-6.351zm-47.637 19.5h12.183v-3.175h35.458v3.175h12.772v-29.46h-60.413zm12.519-45.425h15.377v3h-15.381v-3zm15.377-18.7h-15.381v-2.735h15.377v2.735zm0 10.672h-15.381v-2.647h15.377v2.646zm11.931 11.026v-3h18.822v-8.027h-18.826v-2.646h18.822v-8.026h-18.822v-2.735h23.277v-8.732h-22.941a65.77 65.77 0 0 0 -3.7-8.732l-11.343 3.352c.672 1.676 1.428 3.528 2.017 5.38h-10.584c.84-1.676 1.68-3.44 2.436-5.116l-11.343-3.881c-4.285 10.056-11.679 20.2-19.158 26.462a87.376 87.376 0 0 1 8.067 10.231c1.344-1.235 2.605-2.646 3.949-4.057v21.434h12.015v-2.646h52.768v-9.262h-25.46zm79.138 2.558v-16.496h16.217v16.494h-16.221zm-29.072 0v-16.496h16.132v16.494h-16.136zm29.072-29.108v-15.084h-12.94v15.082h-28.4v46.308h12.268v-4.587h16.132v26.991h12.94v-26.991h16.217v4.146h12.855v-45.867h-29.076z" fill="#fff" fill-rule="evenodd" transform="translate(-328.219 -847.094)"/></svg>