<svg id="on_release_04.svg" xmlns="http://www.w3.org/2000/svg" width="415" height="130.37" viewBox="0 0 415 130.37">
  <defs>
    <style>
      .cls-1 {
        fill: #fff;
        fill-rule: evenodd;
      }
    </style>
  </defs>
  <path id="好評發布中" class="cls-1" d="M338.252,2059.81c0.924-4.59,1.765-9.53,2.605-14.65l5.127-.35a75.567,75.567,0,0,1-3.194,19.23Zm23.449-16.15,0.084-11.47-4.286.27v-4.41H346.152v5.02l-3.614.18c0.672-5.73,1.261-11.47,1.681-16.85l-12.1-.62c-0.252,5.74-.756,11.91-1.513,18.09l-6.388.26,1.093,12.09,3.7-.26c-1.008,6.61-2.269,12.7-3.446,17.64,3.614,3.71,7.817,7.94,12.019,12.18a48.693,48.693,0,0,1-13.448,14.82,45.341,45.341,0,0,1,8.573,9.09,56.5,56.5,0,0,0,13.532-14.82c3.194,3.53,6.052,6.79,8.069,9.53l8.068-10.68a130.441,130.441,0,0,0-10.169-10.76c3.782-10.06,4.958-20.39,5.211-28.94Zm42.612,7.68H388.428v-5.47a117.082,117.082,0,0,0,15.3-19.94l-8.153-6.18-2.857.62H361.953v11.56H384.9a60.147,60.147,0,0,1-9.161,12.09v7.32H358.843v12.18h16.894v22.23c0,1.32-.5,1.68-1.933,1.68-1.345,0-6.472,0-10.254-.18a49.743,49.743,0,0,1,4.034,12.27c6.64,0,11.767-.27,15.717-2.12,3.951-1.94,5.127-5.12,5.127-11.38v-22.5h15.885v-12.18Zm38.114-21.27H428.139l4.623-2.82a102.347,102.347,0,0,0-5.547-12.09l-8.657,4.68c1.429,3.09,3.109,6.97,4.286,10.23H410.321v9.98h32.106v-9.98Zm-3.53,22.15v-9.53H413.6v9.53h25.3Zm0.084,2.65H413.6v9.53h25.382v-9.53Zm-9.413,22.5v7.23h-6.3v-7.23h6.3Zm9.582-10.06H413.767v30.97h9.5v-3.53H439.15v-27.44Zm50.26-9.27h-17.9v-26.47h16.473v-11.91h-43.2v11.91h14.708v26.47h-17.4v12.09h17.4v29.21h12.019v-29.21h17.9v-12.09Zm-44.461-21.44a111.74,111.74,0,0,1,2.773,19.94l10.254-2.38a112.758,112.758,0,0,0-3.362-19.67Zm37.065,19.77c1.933-5.12,4.118-12.88,6.22-20.3l-11.515-2.38a126.751,126.751,0,0,1-4.034,20.3Zm51.646,19.76-3.278,4.15c3.278,1.76,6.976,3.88,10.674,6a50.2,50.2,0,0,1-13.532,3.88c0.925-3.44,1.429-8.47,1.933-15.79,0.168-1.41.252-4.24,0.252-4.24H512.984l0.588-4.32h16.137v-3.79a63.862,63.862,0,0,1,5.3,5.73h-2.521v8.38h1.177Zm20,0a28.275,28.275,0,0,1-3.614,4.24c-2.605-1.5-5.295-2.91-7.9-4.24h11.514Zm-35.132-47.91a43.019,43.019,0,0,1-3.278,3.62c-1.933-1.24-4.37-2.56-6.472-3.62h9.75Zm46.479-3.26a69.06,69.06,0,0,1-8.153,8.47,44.152,44.152,0,0,1-3.614-3.27c2.773-2.11,6.051-4.76,9.245-7.59l-8.741-6.44a51.679,51.679,0,0,1-6.3,6.97,41.8,41.8,0,0,1-3.7-6.97L534,2019.05a62.145,62.145,0,0,0,15.549,22.85H534.584v5.91c0,3.71-.5,7.68-4.875,11.21v-16.5h-9.917a50.159,50.159,0,0,0,14.96-20.83l-7.564-3.79-1.933.44H503.57v9.88h2.942l-6.051,6c2.017,1.15,4.538,2.65,6.639,4.06a51.415,51.415,0,0,1-12.607,5.82,53.907,53.907,0,0,1,6.472,9.36c2.269-.89,4.454-1.86,6.64-2.91v1.49h11.346v4.5H505c-0.756,7.42-2.185,16.59-3.446,22.68h16.726c-0.5,4.77-1.177,7.24-2.017,8.03a4.035,4.035,0,0,1-3.11.88c-1.849,0-5.883-.09-9.834-0.44a24.521,24.521,0,0,1,3.446,10.68,83.042,83.042,0,0,0,11.263-.27c3.109-.26,5.379-1.06,7.48-3.35a10.383,10.383,0,0,0,2.017-4.5,40.039,40.039,0,0,1,4.959,9.18c7.144-1.59,13.364-3.8,18.659-7.15,4.286,2.65,8.152,5.12,10.842,7.15l6.135-8.47c-2.353-1.59-5.463-3.44-8.909-5.47a39.457,39.457,0,0,0,8.4-15.71l-6.64-2.29-1.849.26H536.1c5.883-4.32,7.9-10.5,8.4-16.32h5.8v3.17c0,8.21,1.6,11.74,9.834,11.74h4.286a14.7,14.7,0,0,0,5.043-.62c-0.336-2.47-.588-6.09-0.756-8.65a17.844,17.844,0,0,1-4.455.53h-2.941c-1.009,0-1.177-.79-1.177-2.91v-5.38a58.979,58.979,0,0,0,8.237,3.53,49.116,49.116,0,0,1,7.228-10.06,55.348,55.348,0,0,1-10.674-4.15,113.7,113.7,0,0,0,8.825-7.32Zm93.459,14.91V2027.6H618.378c1.093-3.08,2.017-6.17,2.858-9.26l-12.691-3a116.692,116.692,0,0,1-3.446,12.26H582.406v12.27h17.566c-5.043,10.23-11.935,19.5-20.844,25.5a78.174,78.174,0,0,1,6.892,11.38,66.409,66.409,0,0,0,9.749-8.65v23.65H608.04v-27.97H618.8v35.56h12.355v-35.56h11.178v14.65c0,1.06-.42,1.41-1.681,1.41-1.093,0-5.463,0-8.489-.18a47.035,47.035,0,0,1,3.782,11.65c5.8,0,10.422-.18,14.036-1.94,3.7-1.85,4.791-5.03,4.791-10.68v-27H631.154v-9.17H618.8v9.17H607.788a117.178,117.178,0,0,0,5.884-11.82h44.8Zm51.571,19.94v-16.5h16.222v16.5H710.04Zm-29.08,0v-16.5H697.1v16.5H680.96Zm29.08-29.12V2015.6H697.1v15.09H668.689v46.33H680.96v-4.59H697.1v27H710.04v-27h16.222v4.14h12.859v-45.88H710.04Z" transform="translate(-324.125 -2015.16)"/>
  <path id="for_Android_iOS" data-name="for Android／iOS" class="cls-1" d="M341.111,2125.81v-5.29h-4.282v-0.3c0-1.66.54-2.19,2.3-2.19h1.979v-5.26h-2.267c-5.217,0-7.556,1.74-7.556,7.18v0.57h-2.914v5.29h2.914v17.31h5.541v-17.31h4.282Zm10.29-5.59c-4.929,0-8.563,2.87-8.563,7.63v7.83c0,4.76,3.382,7.67,8.348,7.67,4.929,0,8.491-2.87,8.491-7.67v-7.83C359.677,2123.13,356.331,2120.22,351.4,2120.22Zm-0.071,5.29c1.8,0,2.842,1.1,2.842,3.29v6.05c0,2.11-1.08,3.25-2.914,3.25s-2.879-1.06-2.879-3.25v-6.05C348.379,2126.64,349.459,2125.51,351.33,2125.51Zm15.431,4.8c0-3.1,1.007-4.8,4.138-4.8h0.971v-5.29h-0.4a6.088,6.088,0,0,0-5.217,2.42l-0.288-2.12H361.22v22.6h5.541v-12.81Zm33.232,12.81h5.685l-7.34-30.35h-6.944l-7.483,30.35h5.5l1.224-5.17h8.167Zm-8.167-10.16,2.95-12.51,2.879,12.51h-5.829Zm20.983-3.9c0-2.76.971-3.59,3.238-3.59,1.979,0,2.482,1.32,2.482,3.29v14.36h5.541v-15.64c0-4.84-2.123-7.26-6.44-7.26a6.464,6.464,0,0,0-5.361,2.27l-0.252-1.97h-4.749v22.6h5.541v-14.06Zm26.53,14.06H444.3v-30.35h-5.541v8.51a6.662,6.662,0,0,0-4.029-1.1c-4.246,0-7.268,2.65-7.268,7.41v8.2c0,4.8,2.7,7.56,7.052,7.56a5.774,5.774,0,0,0,4.605-1.78Zm-3.49-5.02c-1.691,0-2.842-.99-2.842-3.18v-6.39c0-2.15,1.187-3.06,2.878-3.06,1.763,0,2.878.8,2.878,3.03v6.42C438.763,2137.08,437.54,2138.1,435.849,2138.1Zm18.784-7.79c0-3.1,1.007-4.8,4.137-4.8h0.972v-5.29h-0.4a6.088,6.088,0,0,0-5.217,2.42l-0.288-2.12h-4.749v22.6h5.541v-12.81Zm16.619-10.09c-4.929,0-8.563,2.87-8.563,7.63v7.83c0,4.76,3.382,7.67,8.347,7.67,4.93,0,8.492-2.87,8.492-7.67v-7.83C479.528,2123.13,476.182,2120.22,471.252,2120.22Zm-0.072,5.29c1.8,0,2.843,1.1,2.843,3.29v6.05c0,2.11-1.08,3.25-2.915,3.25s-2.878-1.06-2.878-3.25v-6.05C468.23,2126.64,469.309,2125.51,471.18,2125.51Zm15.464-12.74h-5.685v5.6h5.685v-5.6Zm-0.072,7.75h-5.541v22.6h5.541v-22.6Zm15.868,22.6h4.966v-30.35h-5.541v8.51a6.665,6.665,0,0,0-4.03-1.1c-4.246,0-7.268,2.65-7.268,7.41v8.2c0,4.8,2.7,7.56,7.052,7.56a5.776,5.776,0,0,0,4.606-1.78Zm-3.49-5.02c-1.691,0-2.842-.99-2.842-3.18v-6.39c0-2.15,1.187-3.06,2.878-3.06,1.763,0,2.879.8,2.879,3.03v6.42C501.865,2137.08,500.641,2138.1,498.95,2138.1Zm12.98,7.44,32.418-34.05-1.044-1.1-32.417,34.06Zm38.814-32.77h-5.685v5.6h5.685v-5.6Zm-0.072,7.75h-5.541v22.6h5.541v-22.6Zm14.029-7.97c-5.253,0-9.678,3.17-9.678,9.33v12.29c0,6.16,4.533,9.18,9.57,9.18,5.253,0,9.643-3.17,9.643-9.34v-12.28C574.236,2115.57,569.738,2112.55,564.7,2112.55Zm-0.108,5.74c2.555,0,4.03,1.55,4.03,4.5v10.2c0,2.95-1.367,4.69-3.922,4.69-2.59,0-4.029-1.74-4.029-4.69v-10.2C560.672,2119.88,562.075,2118.29,564.593,2118.29Zm17.619,2.23c0-1.55.827-2.68,3.094-2.68,2.411,0,3.166,1.66,3.31,3.66h5.613c-0.324-5.36-2.626-8.95-8.851-8.95-5.289,0-8.815,2.6-8.815,8.01,0,8.73,12.413,9.98,12.413,14.55,0,2.04-1.223,2.99-3.67,2.99-2.554,0-3.526-1.33-3.706-4.43h-5.649c0.288,5.79,2.663,9.68,9.427,9.68,5.5,0,9.283-2.72,9.283-8.32C594.661,2126.23,582.212,2125.13,582.212,2120.52Z" transform="translate(-324.125 -2015.16)"/>
</svg>
