<svg height="17.94" viewBox="0 0 270.937 17.94" width="270.937" xmlns="http://www.w3.org/2000/svg"><path d="m26.868 1353.89-1.71.43v-3.16h1.837v-2.06h-1.838v-3.19h2.017v-2.08h-6.122v2.08h2.035v3.19h-1.927v2.06h1.927v3.67c-.918.23-1.765.42-2.467.57l.432 2.15c1.729-.47 3.943-1.05 6.032-1.64zm.684 5.84a8.487 8.487 0 0 0 1.512-4.5l-1.674-.44a7.911 7.911 0 0 1 -1.422 4.09zm1.8-4.27a20.526 20.526 0 0 1 .288 3.51l1.512-.26a18.878 18.878 0 0 0 -.378-3.48zm2-.14a15.566 15.566 0 0 1 .684 2.95l1.422-.43a16.478 16.478 0 0 0 -.792-2.91zm-1.6-4.31h2.125v1.16h-2.128v-1.16zm2.125-5.63v1.04h-2.128v-1.04h2.125zm0 3.89h-2.128v-1.09h2.125v1.09zm1.89 2.9v-1.16h2.773v-1.74h-2.776v-1.09h2.755v-1.76h-2.755v-1.04h3.421v-1.93h-9.417v10.64h7.8c-.054 1.06-.108 1.88-.162 2.5a8.93 8.93 0 0 0 -1.062-2.12l-1.134.49a8.947 8.947 0 0 1 .972 2.22l1.224-.57a4.3 4.3 0 0 1 -.378 1.7.6.6 0 0 1 -.558.23 12.167 12.167 0 0 1 -1.512-.08 5.087 5.087 0 0 1 .54 1.97 12.287 12.287 0 0 0 2-.04 1.779 1.779 0 0 0 1.242-.74c.486-.6.666-2.34.846-6.65.018-.27.036-.83.036-.83h-3.858zm11.66-6.62a22.394 22.394 0 0 0 2.989-.98l-1.512-1.72a29.7 29.7 0 0 1 -7.238 1.94 7.189 7.189 0 0 1 .63 1.76c.954-.13 1.963-.3 2.971-.51v2.33h-3.4v2.08h3.025a18.312 18.312 0 0 1 -3.421 5.4 13.307 13.307 0 0 1 1.1 2.21 17.95 17.95 0 0 0 2.7-4.34v6.67h2.161v-6.81c.7.82 1.459 1.72 1.909 2.31l1.224-1.91c-.468-.45-2.233-2.12-3.133-2.87v-.66h3.241v-2.08h-3.249v-2.82zm6.41-.49h-2.146v10.57h2.143v-10.57zm1.693-1.97v14.52a.413.413 0 0 1 -.486.49c-.36 0-1.531 0-2.7-.05a8.794 8.794 0 0 1 .738 2.34 8.832 8.832 0 0 0 3.583-.45c.738-.38.99-.97.99-2.31v-14.54h-2.129zm19.293 4.43a29.726 29.726 0 0 1 -.792 3.15l1.6.55a48.213 48.213 0 0 0 1.459-5.39l-1.368-.43-.306.07h-3.352c.18-.79.324-1.6.432-2.44l-1.945-.32a16.79 16.79 0 0 1 -2.215 7.19 10.936 10.936 0 0 1 1.674 1.17 14.163 14.163 0 0 0 1.53-3.55h3.277zm-8.373 1.9h-1.372v-1.7h1.368v1.7zm1.621-3.02h-4.523v4.33h4.519v-4.33zm-4.141 6.62h.738v2.13h-.742v-2.13zm-1.008 3.46h2.768v-4.79h-2.773v4.79zm5.041-1.29h-.796v-2.14h.792v2.14zm1.062-3.46h-2.867v4.77h2.863v-4.77zm4.429-3.34h-1.948v1.41c0 2.2-.252 5.56-2.395 8.21l-.072-.68a8.323 8.323 0 0 1 -1.783.19h-3.618c-.882 0-1.152-.4-1.152-1.61v-10.47h6.536v-1.89h-8.985v1.89h.558v10.38c0 2.64.792 3.57 3.115 3.57h3.439a10.165 10.165 0 0 0 1.873-.12 9.926 9.926 0 0 1 .846 1.18 11.757 11.757 0 0 0 2.827-4.92 12.856 12.856 0 0 0 2.953 4.92 5.178 5.178 0 0 1 1.314-1.74c-1.963-1.87-2.9-4.09-3.529-7.7.018-.39.018-.79.018-1.15v-1.47zm8.3 8.5a1.288 1.288 0 0 1 -1.26-1.49 3.731 3.731 0 0 1 .54-1.91 18.5 18.5 0 0 0 1.765 2.78 1.441 1.441 0 0 1 -1.048.62zm.378-10.55c.45 0 .612.51.612 1.21a3.531 3.531 0 0 1 -.972 2.22 6.677 6.677 0 0 1 -.378-2.03c-.003-.92.285-1.4.735-1.4zm4.879 10.5a5.809 5.809 0 0 1 -1.476-1.1 17.619 17.619 0 0 0 1.278-4.76h-2.181a14.388 14.388 0 0 1 -.648 2.91 18.181 18.181 0 0 1 -1.422-2.29 6.256 6.256 0 0 0 2.071-4.29 2.477 2.477 0 0 0 -2.575-2.8c-1.512 0-2.665 1.21-2.665 3.52a10.618 10.618 0 0 0 .738 3.38 5.524 5.524 0 0 0 -2 3.89c0 2.2 1.08 3.71 3.241 3.71a3.79 3.79 0 0 0 2.863-1.17 5.719 5.719 0 0 0 1.62 1.17zm5.541-.68a14.359 14.359 0 0 1 -4 2.51 16.477 16.477 0 0 1 1.6 1.51 20.963 20.963 0 0 0 4.339-3.17zm9.309-.87a14.187 14.187 0 0 1 1.152 1.41l1.621-1.11a32.126 32.126 0 0 0 -3.637-3.73l-1.513.99c.324.3.684.64 1.044 1l-5.6.32a45.721 45.721 0 0 0 6.32-3.21l-1.476-1.31a27.439 27.439 0 0 1 -2.665 1.65l-2.953.11a24.026 24.026 0 0 0 3.151-1.87l-.4-.36h5.8v2.04h2.125v-3.91h-6.93v-1.14h6.518v-1.93h-6.518v-1.47h-2.272v1.47h-6.536v1.93h6.536v1.14h-6.928v3.91h2.035v-2.04h4.087a27.273 27.273 0 0 1 -2.683 1.63 3.8 3.8 0 0 1 -1.35.54 17.736 17.736 0 0 1 .54 1.8 11.821 11.821 0 0 1 2.773-.34c-.954.45-1.747.77-2.161.94a10.033 10.033 0 0 1 -2.431.78 17.615 17.615 0 0 1 .5 1.81c.594-.2 1.386-.32 6.05-.66v2.38c0 .21-.072.27-.378.29s-1.386 0-2.323-.04a8.6 8.6 0 0 1 .738 2.06 8.319 8.319 0 0 0 3.061-.34c.774-.32.972-.87.972-1.89v-2.61zm-2.971 1.85a29.639 29.639 0 0 1 4.249 2.99l1.765-1.27a35.937 35.937 0 0 0 -4.375-2.82zm21.147-11.52v2.16h-8.912v-2.16zm2.161 4.2v-6.24h-13.255v5.45c0 3.04-.144 7.33-2 10.24a8.673 8.673 0 0 1 1.909 1.18c1.819-2.9 2.215-7.34 2.269-10.63h11.079zm-5.744 8.15c-1.26 0-1.44-.11-1.44-.93v-2.66h7.076v-1.95h-7.076v-2h-2.164v6.61c0 2.35.738 3.05 3.439 3.05h4.011c2.287 0 2.935-.8 3.241-3.61a6.164 6.164 0 0 1 -2.016-.85c-.144 2-.324 2.34-1.369 2.34h-3.709zm13.675-8.07h7.689v2.06h-7.689zm7.653 8.18c-.649 0-.757-.07-.757-.7v-3.44h3.007v-6.01h-5.041v-1.51h6.842v-2.04h-6.842v-1.61h-2.179v1.61h-6.644v2.04h6.644v1.51h-4.753v6.01h2.412c-.288 2.22-.972 3.63-4.987 4.43a7.247 7.247 0 0 1 1.26 2.1c4.7-1.18 5.654-3.35 6.032-6.53h2.053v3.46c0 2.12.522 2.8 2.628 2.8h2.3c1.765 0 2.341-.77 2.557-3.8a6.468 6.468 0 0 1 -1.981-.87c-.072 2.21-.162 2.55-.774 2.55h-1.782zm19.509-5.08.234-1.53c.234-1.46.486-3.07.666-4.6h.072c.234 1.53.432 3.14.684 4.6l.234 1.53zm2.773 5.78h2.574l-2.538-14.04h-3.674l-2.538 14.04h2.538l.541-3.59h2.556zm5.93 0h2.682v-11.7h2.791v-2.34h-8.282v2.34h2.809zm17.3 0h7.67v-2.3h-2.214a16.57 16.57 0 0 0 -1.927.13c1.981-2.69 3.637-5.24 3.637-7.64 0-2.49-1.44-4.14-3.565-4.14a4.692 4.692 0 0 0 -3.745 1.99l1.494 1.55a2.615 2.615 0 0 1 1.909-1.33c.882 0 1.35.78 1.35 2.08 0 2.37-1.818 4.79-4.609 8.08zm13.215.23c2.287 0 3.8-2.33 3.8-7.17 0-4.82-1.512-6.97-3.8-6.97-2.269 0-3.8 2.15-3.8 6.97-.009 4.84 1.525 7.17 3.791 7.17zm0-2.16c-.7 0-1.279-1.05-1.279-5.01s.57-4.84 1.27-4.84 1.278.89 1.278 4.84-.573 5.01-1.278 5.01zm5.528 1.93h7.663v-2.3h-2.215a16.6 16.6 0 0 0 -1.927.13c1.981-2.69 3.637-5.24 3.637-7.64 0-2.49-1.44-4.14-3.565-4.14a4.693 4.693 0 0 0 -3.745 1.99l1.5 1.55a2.614 2.614 0 0 1 1.908-1.33c.883 0 1.351.78 1.351 2.08 0 2.37-1.819 4.79-4.61 8.08v1.58zm13.215.23c2.287 0 3.8-2.33 3.8-7.17 0-4.82-1.512-6.97-3.8-6.97-2.268 0-3.8 2.15-3.8 6.97-.005 4.84 1.526 7.17 3.794 7.17zm0-2.16c-.7 0-1.278-1.05-1.278-5.01s.576-4.84 1.278-4.84 1.279.89 1.279 4.84-.583 5.01-1.285 5.01zm9.171-4.95h3.169v1.15h-3.169zm0-2.7h3.169v1.11h-3.169zm8.7 0v1.11h-3.323v-1.11h3.313zm0 3.85h-3.323v-1.15h3.313v1.15zm2.179 1.69v-7.22h-5.502v-1.08h6.932v-2.1h-6.932v-1.55h-2.215v1.55h-6.77v2.1h6.77v1.08h-5.239v7.22h3.637a16.239 16.239 0 0 1 -5.672 3.57 12.012 12.012 0 0 1 1.477 1.89 17.7 17.7 0 0 0 5.8-4.27v4.5h2.212v-4.6a17.841 17.841 0 0 0 5.906 4.41 9.9 9.9 0 0 1 1.53-1.95 17.115 17.115 0 0 1 -5.816-3.55h3.872zm7 .15a15.284 15.284 0 0 1 -3.043 3.69 15.513 15.513 0 0 1 1.567 1.41 24.006 24.006 0 0 0 3.583-4.29zm1.459-4.9h7.49v2.04h-7.49zm9.759 3.97v-5.92h-11.9v5.92h4.825v4.07c0 .24-.09.3-.4.3-.288 0-1.422.02-2.34-.02a8.5 8.5 0 0 1 .684 2.17 9.112 9.112 0 0 0 3.3-.34c.828-.32 1.026-.9 1.026-2.04v-4.14h4.808zm-3.043 2.03a30.75 30.75 0 0 1 3.043 4.04l1.89-1.32a39.442 39.442 0 0 0 -3.151-3.88zm-1.387-11.1c-.324-.7-.828-1.61-1.224-2.31l-2.107.7c.234.49.522 1.06.774 1.61h-6.968v2.21h15.863v-2.21zm12.3.96h9.435v6.26c0 .15-.036.21-.18.21h-.487l.162-.27a28.953 28.953 0 0 0 -2.916-1.7h2.796v-1.32h-1.422q.243-.45.594-1.02l-1.3-.38a11.9 11.9 0 0 1 -.558 1.36l.108.04h-.775v-1.44a32.1 32.1 0 0 0 3.2-.36l-.864-1.15a53.5 53.5 0 0 1 -7.094.51 4.512 4.512 0 0 1 .342 1.13c.882.02 1.837 0 2.809-.03v1.34h-.84l.162-.06a5.383 5.383 0 0 0 -.522-1.21l-1.171.36a5.223 5.223 0 0 1 .36.91h-1.242v1.32h2.521a9.315 9.315 0 0 1 -2.917 1.82 7.6 7.6 0 0 1 1.026 1.24 9.611 9.611 0 0 0 2.629-1.91v1.5h1.6v-1.36c.973.56 1.981 1.21 2.575 1.64l.576-.79a8.285 8.285 0 0 1 .577 1.47 3.211 3.211 0 0 0 1.71-.32 1.521 1.521 0 0 0 .594-1.53v-8.02h-5.888c.163-.34.325-.71.487-1.09l-2.341-.23c-.09.38-.234.85-.4 1.32h-5.366v9.68h2v-7.92zm12.838 10.42v-1.85h-7.398c.036-.29.072-.59.108-.91h-2.25c-.036.32-.072.62-.126.91h-6.644v1.85h5.982c-.793 1.19-2.485 1.89-6.3 2.25a5.772 5.772 0 0 1 .954 1.89c5.059-.61 6.986-1.91 7.814-4.14h.757l-.757 1.21c2.215.89 5.4 2.23 6.95 3.06l1.009-1.78c-1.441-.7-4.106-1.72-6.14-2.49h6.032zm16.551-11.27v1.25h-2.593v-.74h-2.086v.74h-2.773v-1.25h7.454zm-.756 4.88v.75h-1.837v-.75zm0 2.8h-1.837v-.76h1.837zm-5.834 0v-.76h1.911v.76h-1.909zm0-2.8h1.911v.75h-1.909v-.75zm-1.314-2.06h3.225v.68h-3.727v5.54h3.727v.68h-4.574v1.62h4.574v1.25h2.088v-1.25h4.628v-1.62h-4.628v-.68h3.745v-5.54h-3.745v-.68h2.773v-.7h1.873v-3.76h-11.47v3.76h1.513v.7zm-2.413-1.91c-.234-.85-.7-2.12-1.044-3.14l-1.891.61c.306 1.02.792 2.4.99 3.27zm-.27 5.37-.306.05h-.286c.414-1.3.882-2.81 1.26-4.15h-4.267v2h1.656c-.414 1.47-.9 2.99-1.332 4.1h2.283a15.894 15.894 0 0 1 -1.009 3.25 8.088 8.088 0 0 0 -1.944 1.84l1.44 2.13c.432-1.07 1.081-2.36 1.5-2.36a7.463 7.463 0 0 1 1.764 1.06c1.3.79 2.809 1 5.2 1 2.106 0 5.293-.13 6.77-.23a8.439 8.439 0 0 1 .63-2.3 58.606 58.606 0 0 1 -7.292.49c-2.107 0-3.8-.11-5.024-.89-.45-.28-.792-.53-1.062-.72a23.586 23.586 0 0 0 1.278-4.65z" fill="#fff" fill-rule="evenodd" transform="translate(-20.625 -1342.59)"/></svg>