<svg height="39.468" viewBox="0 0 224.688 39.468" width="224.688" xmlns="http://www.w3.org/2000/svg"><path d="m24.016 907.783h8.931v-2.344h-2.9c-.612 0-1.494.076-2.161.151 2.431-2.5 4.429-5.218 4.429-7.751a4.006 4.006 0 0 0 -4.2-4.311 5.31 5.31 0 0 0 -4.231 2.118l1.44 1.512a3.415 3.415 0 0 1 2.449-1.437 1.968 1.968 0 0 1 2 2.269c0 2.155-2.143 4.783-5.762 8.186v1.607zm16.362.265c2.7 0 4.5-2.5 4.5-7.317s-1.8-7.2-4.5-7.2c-2.719 0-4.519 2.364-4.519 7.2-.001 4.821 1.8 7.317 4.519 7.317zm0-2.174c-1.152 0-2.017-1.21-2.017-5.143 0-3.913.864-5.047 2.017-5.047 1.134 0 2 1.134 2 5.047-.002 3.933-.866 5.143-2 5.143zm7.116 1.909h8.931v-2.344h-2.9c-.612 0-1.494.076-2.161.151 2.431-2.5 4.429-5.218 4.429-7.751a4.006 4.006 0 0 0 -4.2-4.311 5.31 5.31 0 0 0 -4.231 2.118l1.44 1.512a3.415 3.415 0 0 1 2.449-1.437 1.968 1.968 0 0 1 2 2.269c0 2.155-2.143 4.783-5.762 8.186v1.607zm16.362.265c2.7 0 4.5-2.5 4.5-7.317s-1.8-7.2-4.5-7.2c-2.719 0-4.519 2.364-4.519 7.2-.001 4.821 1.8 7.317 4.519 7.317zm0-2.174c-1.152 0-2.017-1.21-2.017-5.143 0-3.913.864-5.047 2.017-5.047 1.134 0 2 1.134 2 5.047-.002 3.933-.866 5.143-2 5.143zm10.758-4.974h3.169v1.153h-3.169zm0-2.7h3.169v1.115h-3.169zm8.7 0v1.115h-3.314v-1.115h3.313zm0 3.857h-3.314v-1.157h3.313v1.153zm2.179 1.682v-7.222h-5.493v-1.077h6.93v-2.1h-6.93v-1.55h-2.217v1.55h-6.77v2.1h6.77v1.077h-5.24v7.222h3.637a16.16 16.16 0 0 1 -5.672 3.574 12.181 12.181 0 0 1 1.476 1.89 17.587 17.587 0 0 0 5.8-4.273v4.5h2.216v-4.594a17.873 17.873 0 0 0 5.906 4.405 9.8 9.8 0 0 1 1.53-1.947 17.005 17.005 0 0 1 -5.816-3.555h3.871zm7 .152a15.15 15.15 0 0 1 -3.043 3.686 16.08 16.08 0 0 1 1.567 1.418 24.152 24.152 0 0 0 3.583-4.291zm1.459-4.9h7.49v2.042h-7.49zm9.758 3.97v-5.917h-11.91v5.917h4.826v4.065c0 .246-.09.3-.4.3-.288 0-1.422.019-2.341-.018a8.449 8.449 0 0 1 .684 2.174 9.29 9.29 0 0 0 3.295-.341c.828-.321 1.026-.907 1.026-2.041v-4.141h4.81zm-3.043 2.023a31.267 31.267 0 0 1 3.043 4.046l1.891-1.323a39.926 39.926 0 0 0 -3.151-3.876zm-1.386-11.1c-.324-.7-.828-1.607-1.224-2.307l-2.107.7c.234.491.522 1.058.774 1.607h-6.975v2.216h15.863v-2.212h-6.338zm12.3.964h9.434v6.258c0 .151-.036.207-.18.207h-.495l.162-.264a28.1 28.1 0 0 0 -2.917-1.7h2.809v-1.323h-1.422q.243-.455.594-1.021l-1.3-.378a11.7 11.7 0 0 1 -.559 1.361l.108.038h-.774v-1.437c1.171-.076 2.287-.208 3.2-.359l-.864-1.153a52.844 52.844 0 0 1 -7.094.51 4.54 4.54 0 0 1 .342 1.134c.882.019 1.836 0 2.809-.037v1.342h-.834l.162-.057a5.37 5.37 0 0 0 -.523-1.21l-1.17.359a4.965 4.965 0 0 1 .36.908h-1.242v1.323h2.521a9.318 9.318 0 0 1 -2.917 1.815 7.449 7.449 0 0 1 1.026 1.248 9.864 9.864 0 0 0 2.629-1.909v1.497h1.6v-1.361c.973.567 1.981 1.21 2.575 1.645l.576-.794a8.285 8.285 0 0 1 .576 1.474 3.185 3.185 0 0 0 1.711-.321 1.524 1.524 0 0 0 .594-1.531v-8.016h-5.888c.162-.341.324-.719.486-1.1l-2.34-.227c-.09.378-.234.851-.4 1.324h-5.366v9.679h2v-7.921zm12.837 10.417v-1.853h-7.382q.054-.426.108-.907h-2.25c-.036.321-.072.623-.126.907h-6.644v1.853h5.977c-.792 1.191-2.484 1.89-6.3 2.25a5.794 5.794 0 0 1 .955 1.89c5.059-.605 6.986-1.909 7.814-4.14h.756l-.756 1.21c2.215.888 5.4 2.231 6.95 3.062l1.008-1.777c-1.44-.7-4.1-1.72-6.139-2.5h6.031zm16.558-11.265v1.248h-2.593v-.738h-2.088v.738h-2.773v-1.248zm-.756 4.878v.756h-1.837v-.756zm0 2.8h-1.837v-.758h1.837v.757zm-5.834 0v-.758h1.909v.757h-1.909zm0-2.8h1.909v.756h-1.909zm-1.314-2.061h3.223v.683h-3.728v5.539h3.728v.68h-4.574v1.626h4.574v1.248h2.088v-1.248h4.628v-1.626h-4.628v-.68h3.745v-5.539h-3.745v-.681h2.773v-.7h1.873v-3.762h-11.47v3.762h1.513v.7zm-2.413-1.91c-.234-.85-.7-2.117-1.044-3.138l-1.891.605c.306 1.021.792 2.4.99 3.271zm-.27 5.37-.306.056h-.288c.414-1.3.882-2.817 1.26-4.159h-4.267v2h1.656c-.414 1.475-.9 2.987-1.332 4.1h2.288a16.228 16.228 0 0 1 -1.009 3.251 8.17 8.17 0 0 0 -1.944 1.834l1.44 2.137c.432-1.078 1.08-2.364 1.494-2.364a7.611 7.611 0 0 1 1.765 1.059c1.3.794 2.809 1 5.2 1 2.106 0 5.293-.132 6.77-.227a8.478 8.478 0 0 1 .63-2.306 58.225 58.225 0 0 1 -7.292.491c-2.107 0-3.8-.113-5.024-.888-.45-.284-.792-.53-1.062-.719a23.548 23.548 0 0 0 1.278-4.65zm-102.862 30.5h2.665v-11.659h3.781v-2.325h-10.191v2.325h3.745v11.665zm8.9 0h2.633v-7.278a2.856 2.856 0 0 1 2.107-1.192c.99 0 1.422.587 1.422 2.212v6.258h2.647v-6.6c0-2.666-.936-4.254-3.115-4.254a4.5 4.5 0 0 0 -3.169 1.551l.108-1.974v-3.8h-2.629v15.086zm17.259.265a6.157 6.157 0 0 0 3.529-1.172l-.9-1.7a4.016 4.016 0 0 1 -2.269.738 2.7 2.7 0 0 1 -2.791-2.647h6.212a5.415 5.415 0 0 0 .133-1.261c0-2.93-1.44-5.067-4.213-5.067-2.413 0-4.7 2.137-4.7 5.578-.002 3.476 2.194 5.537 5.003 5.537zm-2.467-6.617c.2-1.55 1.134-2.344 2.2-2.344 1.3 0 1.908.907 1.908 2.344h-4.104zm19.4 6.617c3.529 0 5.96-2.779 5.96-7.317s-2.431-7.2-5.96-7.2-5.96 2.647-5.96 7.2c.006 4.544 2.441 7.323 5.965 7.323zm0-2.42c-1.981 0-3.241-1.91-3.241-4.9 0-3.006 1.26-4.8 3.241-4.8s3.241 1.8 3.241 4.8c.005 2.996-1.255 4.906-3.236 4.906zm16.292-8.422h-3.637v-.718c0-1.1.522-1.645 1.3-1.645a2.621 2.621 0 0 1 1.224.265l.486-2.061a5.377 5.377 0 0 0 -2.035-.4c-2.557 0-3.619 1.663-3.619 3.838v.737l-1.35.113v2.061h1.35v8.394h2.647v-8.394h3.637v8.394h2.626v-8.394h1.909v-2.19h-1.909v-.907c0-1.173.432-1.664 1.224-1.664a3.233 3.233 0 0 1 1.08.227l.486-2.042a5.094 5.094 0 0 0 -1.927-.378c-2.521 0-3.493 1.7-3.493 3.913v.851zm7.562-1.7a1.513 1.513 0 0 0 1.585-1.513 1.586 1.586 0 1 0 -1.585 1.513zm-1.332 12.288h2.647v-10.588h-2.647v10.587zm10.244.265a4.86 4.86 0 0 0 3.3-1.286l-1.044-1.834a3.052 3.052 0 0 1 -1.963.851c-1.458 0-2.5-1.285-2.5-3.27 0-2 1.044-3.309 2.575-3.309a2.247 2.247 0 0 1 1.548.7l1.26-1.8a4.291 4.291 0 0 0 -2.935-1.173c-2.736 0-5.149 2.042-5.149 5.578-.007 3.496 2.123 5.538 4.908 5.538zm5.406-.265h2.629v-10.588h-2.629v10.587zm1.333-12.288a1.5 1.5 0 0 0 1.566-1.513 1.577 1.577 0 0 0 -3.151 0 1.5 1.5 0 0 0 1.585 1.513zm6.876 12.548a4.637 4.637 0 0 0 3.043-1.4h.054l.2 1.134h2.161v-6.182c0-3.063-1.315-4.67-3.871-4.67a7.8 7.8 0 0 0 -4.214 1.4l.955 1.834a5.518 5.518 0 0 1 2.772-1 1.615 1.615 0 0 1 1.705 1.836c-4.051.454-5.8 1.645-5.8 3.914a2.939 2.939 0 0 0 2.995 3.134zm.864-2.174a1.15 1.15 0 0 1 -1.332-1.191c0-.946.828-1.645 3.277-1.985v2.136a2.629 2.629 0 0 1 -1.949 1.04zm10.937 2.174a3.456 3.456 0 0 0 1.368-.246l-.324-2.061a1.415 1.415 0 0 1 -.36.038c-.252 0-.54-.208-.54-.832v-12.247h-2.629v12.118c-.004 1.963.645 3.23 2.484 3.23zm11.872-.265h3.169l4.087-13.99h-2.7l-1.729 6.807c-.414 1.55-.72 2.949-1.134 4.519h-.09c-.433-1.57-.7-2.969-1.117-4.519l-1.764-6.806h-2.795zm9.612 0h2.628v-10.583h-2.628v10.587zm1.332-12.288a1.5 1.5 0 0 0 1.566-1.513 1.577 1.577 0 0 0 -3.151 0 1.5 1.5 0 0 0 1.581 1.518zm8.01 12.553a4.1 4.1 0 0 0 2.791-1.361h.054l.216 1.1h2.143v-15.087h-2.651v3.724l.108 1.664a3.394 3.394 0 0 0 -2.557-1.154c-2.178 0-4.231 2.118-4.231 5.578s1.62 5.536 4.123 5.536zm.684-2.288c-1.332 0-2.088-1.1-2.088-3.289 0-2.118.954-3.252 2.088-3.252a2.611 2.611 0 0 1 1.873.794v4.651a2.217 2.217 0 0 1 -1.877 1.096zm13 2.288a6.159 6.159 0 0 0 3.529-1.172l-.9-1.7a4.014 4.014 0 0 1 -2.268.738 2.7 2.7 0 0 1 -2.791-2.647h6.212a5.415 5.415 0 0 0 .126-1.267c0-2.93-1.441-5.067-4.213-5.067-2.413 0-4.7 2.137-4.7 5.578-.006 3.476 2.194 5.537 4.999 5.537zm-2.467-6.617c.2-1.55 1.134-2.344 2.2-2.344 1.3 0 1.908.907 1.908 2.344h-4.105zm13.223 6.617c2.52 0 4.843-2.042 4.843-5.539 0-3.536-2.323-5.578-4.843-5.578s-4.844 2.042-4.844 5.578c-.006 3.497 2.317 5.539 4.838 5.539zm0-2.269c-1.369 0-2.143-1.285-2.143-3.27 0-2 .774-3.309 2.143-3.309s2.142 1.3 2.142 3.309c-.009 1.985-.78 3.27-2.148 3.27zm18.528 2.269a6.1 6.1 0 0 0 4.321-1.683v-6.314h-4.735v2.287h2.359v2.762a2.6 2.6 0 0 1 -1.675.529c-2.611 0-3.943-1.834-3.943-4.878 0-3.006 1.548-4.821 3.763-4.821a3.425 3.425 0 0 1 2.611 1.173l1.422-1.778a5.483 5.483 0 0 0 -4.123-1.8c-3.547 0-6.392 2.7-6.392 7.317-.003 4.673 2.749 7.206 6.386 7.206zm10.339 0a4.639 4.639 0 0 0 3.043-1.4h.054l.2 1.134h2.16v-6.182c0-3.063-1.314-4.67-3.871-4.67a7.793 7.793 0 0 0 -4.213 1.4l.954 1.834a5.522 5.522 0 0 1 2.773-1 1.616 1.616 0 0 1 1.703 1.836c-4.052.454-5.8 1.645-5.8 3.914a2.939 2.939 0 0 0 2.991 3.134zm.864-2.174a1.15 1.15 0 0 1 -1.332-1.191c0-.946.828-1.645 3.277-1.985v2.136a2.633 2.633 0 0 1 -1.951 1.04zm8.488 1.909h2.629v-7.278a2.907 2.907 0 0 1 1.944-1.192c.955 0 1.405.587 1.405 2.212v6.258h2.647v-7.278a2.907 2.907 0 0 1 1.944-1.192c.954 0 1.4.587 1.4 2.212v6.258h2.645v-6.6c0-2.666-.99-4.254-3.133-4.254a4.422 4.422 0 0 0 -3.2 1.853 2.743 2.743 0 0 0 -2.772-1.853 4.186 4.186 0 0 0 -3.1 1.683h-.072l-.18-1.418h-2.163v10.587zm22.268.265a6.157 6.157 0 0 0 3.529-1.172l-.9-1.7a4.017 4.017 0 0 1 -2.269.738 2.7 2.7 0 0 1 -2.791-2.647h6.212a5.415 5.415 0 0 0 .126-1.267c0-2.93-1.44-5.067-4.213-5.067-2.413 0-4.7 2.137-4.7 5.578-.005 3.476 2.191 5.537 5 5.537zm-2.467-6.617c.2-1.55 1.135-2.344 2.2-2.344 1.3 0 1.909.907 1.909 2.344h-4.106z" fill="#fff" fill-rule="evenodd" transform="translate(-23.781 -891.594)"/></svg>