<svg height="14.469" viewBox="0 0 286.219 14.469" width="286.219" xmlns="http://www.w3.org/2000/svg"><path d="m329.867 976.783h7.213v-1.892h-2.342c-.494 0-1.207.061-1.745.122 1.964-2.014 3.578-4.211 3.578-6.256a3.234 3.234 0 0 0 -3.389-3.479 4.288 4.288 0 0 0 -3.417 1.709l1.164 1.221a2.756 2.756 0 0 1 1.977-1.16 1.589 1.589 0 0 1 1.614 1.831c0 1.74-1.73 3.861-4.653 6.607v1.3zm13.348.217c2.181 0 3.635-2.014 3.635-5.9s-1.454-5.814-3.635-5.814-3.65 1.907-3.65 5.814c0 3.883 1.454 5.9 3.65 5.9zm0-1.755c-.931 0-1.629-.976-1.629-4.15s.7-4.074 1.629-4.074 1.614.915 1.614 4.074-.698 4.147-1.614 4.147zm5.879 1.541h7.212v-1.892h-2.341c-.494 0-1.207.061-1.745.122 1.963-2.014 3.577-4.211 3.577-6.256a3.233 3.233 0 0 0 -3.388-3.479 4.288 4.288 0 0 0 -3.417 1.709l1.163 1.221a2.758 2.758 0 0 1 1.978-1.16 1.589 1.589 0 0 1 1.614 1.831c0 1.74-1.73 3.861-4.653 6.607v1.3zm13.347.214c2.182 0 3.636-2.014 3.636-5.9s-1.454-5.814-3.636-5.814-3.65 1.907-3.65 5.814c0 3.883 1.455 5.9 3.65 5.9zm0-1.755c-.93 0-1.628-.976-1.628-4.15s.7-4.074 1.628-4.074 1.614.915 1.614 4.074-.698 4.147-1.614 4.147zm8.823-4.013h2.559v.931h-2.559zm0-2.182h2.559v.9h-2.559zm7.023 0v.9h-2.675v-.9zm0 3.113h-2.675v-.931h2.675zm1.76 1.358v-5.829h-4.435v-.87h5.6v-1.694h-5.6v-1.251h-1.789v1.251h-5.468v1.694h5.468v.87h-4.231v5.829h2.937a13.053 13.053 0 0 1 -4.581 2.884 9.872 9.872 0 0 1 1.193 1.526 14.211 14.211 0 0 0 4.682-3.449v3.632h1.789v-3.714a14.449 14.449 0 0 0 4.769 3.555 7.979 7.979 0 0 1 1.236-1.572 13.747 13.747 0 0 1 -4.7-2.868h3.127zm6.125.122a12.24 12.24 0 0 1 -2.458 2.975 12.88 12.88 0 0 1 1.265 1.145 19.474 19.474 0 0 0 2.894-3.464zm1.178-3.952h6.05v1.648h-6.05zm7.881 3.2v-4.776h-9.612v4.776h3.9v3.281c0 .2-.072.244-.319.244s-1.149.015-1.891-.015a6.806 6.806 0 0 1 .553 1.754 7.533 7.533 0 0 0 2.661-.274c.669-.26.829-.733.829-1.648v-3.342h3.882zm-2.457 1.633a25.352 25.352 0 0 1 2.457 3.265l1.527-1.068a32.02 32.02 0 0 0 -2.545-3.128zm-1.12-8.957c-.262-.565-.669-1.3-.989-1.862l-1.7.565c.189.4.422.854.625 1.3h-5.627v1.785h12.811v-1.785h-5.119zm10.406.778h7.62v5.055c0 .122-.029.168-.145.168h-.393l.131-.214a22.719 22.719 0 0 0 -2.356-1.373h2.269v-1.071h-1.149q.2-.366.48-.824l-1.047-.305a9.625 9.625 0 0 1 -.451 1.1l.087.031h-.625v-1.16c.945-.061 1.847-.168 2.588-.29l-.7-.931a42.536 42.536 0 0 1 -5.729.412 3.677 3.677 0 0 1 .276.916c.713.015 1.483 0 2.269-.031v1.084h-.685l.131-.046a4.316 4.316 0 0 0 -.422-.977l-.945.29a4.071 4.071 0 0 1 .291.733h-1v1.068h2.035a7.547 7.547 0 0 1 -2.355 1.465 6.077 6.077 0 0 1 .829 1.007 8 8 0 0 0 2.123-1.541v1.205h1.294v-1.1c.785.458 1.6.977 2.079 1.328l.466-.641a6.728 6.728 0 0 1 .465 1.19 2.564 2.564 0 0 0 1.381-.259 1.23 1.23 0 0 0 .48-1.236v-6.47h-4.752c.131-.275.262-.58.393-.885l-1.891-.183c-.072.3-.189.687-.32 1.068h-4.333v7.813h1.614v-6.394zm10.368 8.408v-1.5h-5.962c.029-.228.058-.473.088-.732h-1.818c-.029.259-.058.5-.1.732h-5.366v1.5h4.83c-.64.961-2.007 1.526-5.09 1.816a4.682 4.682 0 0 1 .771 1.525c4.086-.488 5.642-1.541 6.311-3.341h.608l-.611.976c1.789.718 4.363 1.8 5.613 2.472l.815-1.434c-1.164-.565-3.316-1.389-4.959-2.014h4.871zm13.854-9.094v1.007h-2.094v-.6h-1.688v.6h-2.239v-1.006h6.02zm-.611 3.936v.611h-1.483v-.606h1.483zm0 2.259h-1.483v-.611h1.483zm-4.711 0v-.611h1.54v.611zm0-2.259h1.54v.611h-1.54v-.606zm-1.062-1.663h2.6v.549h-3.01v4.471h3.01v.55h-3.693v1.312h3.695v1.007h1.687v-1.007h3.737v-1.314h-3.737v-.55h3.025v-4.471h-3.025v-.549h2.24v-.564h1.512v-3.037h-9.263v3.037h1.224v.564zm-1.948-1.541c-.189-.687-.567-1.709-.844-2.533l-1.527.488c.248.824.64 1.938.8 2.64zm-.218 4.333-.248.046h-.232c.334-1.053.712-2.273 1.018-3.357h-3.447v1.618h1.338c-.334 1.19-.727 2.411-1.076 3.311h1.847a13.038 13.038 0 0 1 -.814 2.624 6.588 6.588 0 0 0 -1.571 1.481l1.163 1.724c.349-.87.873-1.908 1.207-1.908a6.144 6.144 0 0 1 1.425.855 7.683 7.683 0 0 0 4.2.809c1.7 0 4.275-.107 5.468-.183a6.8 6.8 0 0 1 .509-1.862 47.022 47.022 0 0 1 -5.89.4 7.7 7.7 0 0 1 -4.057-.717c-.363-.229-.64-.428-.858-.58a19.1 19.1 0 0 0 1.033-3.754zm23.424 6.058h2.152v-9.414h3.054v-1.877h-8.231v1.877h3.025zm7.323 0h2.121v-5.874a2.309 2.309 0 0 1 1.7-.962c.8 0 1.148.473 1.148 1.786v5.05h2.138v-5.325c0-2.152-.756-3.433-2.516-3.433a3.636 3.636 0 0 0 -2.559 1.251l.087-1.6v-3.067h-2.123v12.176zm13.26.218a4.974 4.974 0 0 0 2.851-.946l-.727-1.374a3.246 3.246 0 0 1 -1.833.6 2.181 2.181 0 0 1 -2.254-2.137h5.017a4.367 4.367 0 0 0 .1-1.022c0-2.365-1.163-4.089-3.4-4.089-1.948 0-3.8 1.724-3.8 4.5.007 2.802 1.778 4.468 4.046 4.468zm-1.992-5.341a1.88 1.88 0 0 1 1.774-1.892c1.047 0 1.542.733 1.542 1.892zm15.362 5.341c2.85 0 4.813-2.243 4.813-5.9s-1.963-5.814-4.813-5.814-4.813 2.136-4.813 5.814c.004 3.654 1.963 5.9 4.813 5.9zm0-1.953c-1.6 0-2.617-1.541-2.617-3.952s1.017-3.876 2.617-3.876 2.618 1.45 2.618 3.876-1.018 3.949-2.618 3.949zm11.989-6.806h-2.938v-.58a1.1 1.1 0 0 1 1.047-1.327 2.119 2.119 0 0 1 .989.214l.393-1.664a4.365 4.365 0 0 0 -1.643-.32c-2.065 0-2.923 1.343-2.923 3.1v.6l-1.091.091v1.663h1.091v6.775h2.137v-6.775h2.94v6.775h2.123v-6.775h1.541v-1.77h-1.541v-.732c0-.946.349-1.343.989-1.343a2.62 2.62 0 0 1 .872.183l.393-1.648a4.128 4.128 0 0 0 -1.556-.3c-2.036 0-2.821 1.373-2.821 3.159v.686zm6.107-1.373a1.222 1.222 0 0 0 1.28-1.221 1.281 1.281 0 1 0 -1.28 1.218zm-1.076 9.918h2.138v-8.545h-2.138zm8.751.214a3.928 3.928 0 0 0 2.661-1.038l-.843-1.48a2.467 2.467 0 0 1 -1.585.687c-1.178 0-2.021-1.038-2.021-2.64s.843-2.67 2.079-2.67a1.816 1.816 0 0 1 1.251.564l1.018-1.449a3.471 3.471 0 0 0 -2.371-.946 4.171 4.171 0 0 0 -4.158 4.5c0 2.821 1.715 4.472 3.969 4.472zm5.115-.214h2.123v-8.545h-2.118v8.545zm1.076-9.918a1.209 1.209 0 0 0 1.265-1.221 1.274 1.274 0 0 0 -2.545 0 1.214 1.214 0 0 0 1.28 1.218zm5.529 10.132a3.746 3.746 0 0 0 2.458-1.129h.042l.16.915h1.745v-4.989c0-2.472-1.061-3.769-3.126-3.769a6.294 6.294 0 0 0 -3.4 1.129l.771 1.48a4.456 4.456 0 0 1 2.239-.809 1.3 1.3 0 0 1 1.382 1.48c-3.272.367-4.683 1.328-4.683 3.159a2.373 2.373 0 0 0 2.412 2.533zm.7-1.755a.929.929 0 0 1 -1.076-.961c0-.763.669-1.328 2.647-1.6v1.716a2.126 2.126 0 0 1 -1.571.842zm8.962 1.755a2.785 2.785 0 0 0 1.105-.2l-.262-1.663a1.126 1.126 0 0 1 -.29.031c-.2 0-.437-.168-.437-.672v-9.887h-2.123v9.781c0 1.584.524 2.61 2.007 2.61zm9.512-.214h2.559l3.3-11.291h-2.181l-1.4 5.493c-.335 1.251-.582 2.38-.916 3.647h-.073c-.349-1.267-.567-2.4-.9-3.647l-1.425-5.493h-2.254zm7.891 0h2.123v-8.545h-2.123zm1.076-9.918a1.209 1.209 0 0 0 1.265-1.221 1.273 1.273 0 0 0 -2.544 0 1.213 1.213 0 0 0 1.279 1.218zm6.446 10.132a3.311 3.311 0 0 0 2.254-1.1h.043l.175.885h1.73v-12.178h-2.137v3.006l.087 1.342a2.745 2.745 0 0 0 -2.065-.93c-1.76 0-3.417 1.709-3.417 4.5s1.308 4.475 3.33 4.475zm.552-1.846c-1.076 0-1.686-.885-1.686-2.656 0-1.709.77-2.624 1.686-2.624a2.112 2.112 0 0 1 1.513.641v3.754a1.8 1.8 0 0 1 -1.513.882zm9.82 1.846a4.968 4.968 0 0 0 2.85-.946l-.727-1.374a3.241 3.241 0 0 1 -1.832.6 2.181 2.181 0 0 1 -2.254-2.137h5.017a4.367 4.367 0 0 0 .1-1.022c0-2.365-1.164-4.089-3.4-4.089-1.949 0-3.795 1.724-3.795 4.5-.001 2.802 1.773 4.468 4.041 4.468zm-1.992-5.341a1.88 1.88 0 0 1 1.774-1.892c1.047 0 1.541.733 1.541 1.892zm10.619 5.341c2.035 0 3.911-1.648 3.911-4.471 0-2.853-1.876-4.5-3.911-4.5s-3.912 1.648-3.912 4.5c0 2.82 1.876 4.471 3.912 4.471zm0-1.831c-1.106 0-1.731-1.038-1.731-2.64s.625-2.67 1.731-2.67 1.73 1.053 1.73 2.67-.625 2.637-1.73 2.637zm14.849 1.831a4.938 4.938 0 0 0 3.49-1.358v-5.1h-3.825v1.847h1.9v2.227a2.1 2.1 0 0 1 -1.353.428c-2.108 0-3.184-1.48-3.184-3.937 0-2.426 1.25-3.891 3.039-3.891a2.765 2.765 0 0 1 2.108.946l1.149-1.434a4.429 4.429 0 0 0 -3.33-1.45c-2.865 0-5.162 2.182-5.162 5.9.006 3.774 2.233 5.822 5.168 5.822zm6.99 0a3.746 3.746 0 0 0 2.458-1.129h.043l.16.915h1.745v-4.989c0-2.472-1.061-3.769-3.126-3.769a6.294 6.294 0 0 0 -3.4 1.129l.771 1.48a4.456 4.456 0 0 1 2.239-.809 1.3 1.3 0 0 1 1.381 1.48c-3.271.367-4.682 1.328-4.682 3.159a2.373 2.373 0 0 0 2.411 2.533zm.7-1.755a.929.929 0 0 1 -1.076-.961c0-.763.669-1.328 2.646-1.6v1.716a2.122 2.122 0 0 1 -1.572.842zm5.816 1.541h2.123v-5.874a2.35 2.35 0 0 1 1.57-.962c.771 0 1.134.473 1.134 1.786v5.05h2.132v-5.874a2.351 2.351 0 0 1 1.571-.962c.77 0 1.134.473 1.134 1.786v5.05h2.137v-5.325c0-2.152-.8-3.433-2.53-3.433a3.569 3.569 0 0 0 -2.588 1.5 2.216 2.216 0 0 0 -2.24-1.5 3.381 3.381 0 0 0 -2.5 1.358h-.058l-.145-1.145h-1.745v8.545zm18.267.214a4.971 4.971 0 0 0 2.85-.946l-.727-1.374a3.246 3.246 0 0 1 -1.832.6 2.18 2.18 0 0 1 -2.254-2.137h5.016a4.313 4.313 0 0 0 .1-1.022c0-2.365-1.163-4.089-3.4-4.089-1.948 0-3.795 1.724-3.795 4.5-.001 2.802 1.773 4.468 4.042 4.468zm-1.993-5.341a1.881 1.881 0 0 1 1.775-1.892c1.047 0 1.541.733 1.541 1.892z" fill="#fff" fill-rule="evenodd" transform="translate(-329.75 -963.719)"/></svg>