<svg height="14.75" viewBox="0 0 175.406 14.75" width="175.406" xmlns="http://www.w3.org/2000/svg"><path d="m334.829 2175.01c0 .16-.073.21-.32.21-.2.01-.843 0-1.454-.02.276-.23.538-.45.771-.68l-1.833-.8c.655-.06 1.556-.13 2.836-.23zm-3.97-6.81h2.719c-.77.5-1.526.9-1.817 1.05a4.554 4.554 0 0 1 -.9.4v-1.45zm8.725 4.96a9.616 9.616 0 0 1 .887 1.13l1.585-1.1a25.443 25.443 0 0 0 -2.937-3.02l-1.469.96c.2.2.407.4.625.62l-3.46.19a30.592 30.592 0 0 0 4.551-2.31l-1.44-1.25a18.622 18.622 0 0 1 -2.195 1.36l-1.949.06a16.279 16.279 0 0 0 2.385-1.36l-.291-.24h4.232v1.51h2.092v-3.34h-5.541v-.64h5.119v-1.89h-5.119v-1.1h-2.239v1.1h-5.148v1.89h5.148v.64h-5.555v3.34h1.76c.174.49.436 1.37.508 1.72a5.6 5.6 0 0 1 1.586-.22c-.5.21-.888.38-1.135.47a8.507 8.507 0 0 1 -2.006.62c.174.49.421 1.41.494 1.76a6.835 6.835 0 0 1 1.774-.32 11.148 11.148 0 0 1 -3.141 1.86 14.226 14.226 0 0 1 1.571 1.5 18.57 18.57 0 0 0 2.472-1.65 8.515 8.515 0 0 1 .61 1.75 6.561 6.561 0 0 0 2.6-.32 1.611 1.611 0 0 0 .9-1.8v-1.74zm-2.443 1.48a26.1 26.1 0 0 1 3.388 2.41l1.745-1.24a33.034 33.034 0 0 0 -3.519-2.25zm18-9.29v1.45h-6.781v-1.45h6.776zm2.138 3.44v-5.44h-11.057v4.54c0 2.43-.116 5.89-1.585 8.2a8.724 8.724 0 0 1 1.891 1.14c1.425-2.24 1.759-5.77 1.817-8.44h8.929zm-4.523 6.11c-.974 0-1.1-.08-1.1-.75v-1.74h5.41v-1.91h-5.41v-1.28h-2.123v4.95c0 2.15.625 2.8 3.039 2.8h2.894c1.963 0 2.589-.65 2.865-2.99a6.087 6.087 0 0 1 -1.978-.82c-.116 1.49-.247 1.74-1.047 1.74h-2.545zm11.975-6.11h5.686v1.21h-5.686zm6.093 6.17c-.451 0-.523-.05-.523-.6v-2.41h2.3v-5.09h-4.021v-.95h5.4v-2h-5.4v-1.19h-2.152v1.19h-5.221v2h5.221v.95h-3.738v5.09h1.76c-.2 1.62-.64 2.64-3.9 3.25a7.014 7.014 0 0 1 1.221 2.06c3.956-.96 4.683-2.77 4.959-5.31h1.4v2.44c0 1.99.451 2.66 2.356 2.66h1.614c1.556 0 2.108-.67 2.327-3.2a6.558 6.558 0 0 1 -1.949-.87c-.058 1.72-.145 1.98-.582 1.98h-1.076zm12.576-3.89.232-.96c.276-1.13.567-2.46.829-3.65h.058c.291 1.16.567 2.52.858 3.65l.233.96zm3.33 4.71h2.733l-3.359-11.35h-3.112l-3.359 11.35h2.647l.625-2.61h3.2zm6.338 0h2.6v-9.09h2.932v-2.26h-8.46v2.26h2.923v9.09zm10.72 0h7.5v-2.29h-1.992a13.992 13.992 0 0 0 -1.76.16c1.658-1.76 3.258-3.91 3.258-5.86a3.366 3.366 0 0 0 -3.548-3.57 4.451 4.451 0 0 0 -3.592 1.75l1.41 1.47a2.581 2.581 0 0 1 1.833-1.1 1.384 1.384 0 0 1 1.41 1.6c0 1.65-1.818 3.71-4.522 6.29v1.55zm13.478.22c2.283 0 3.839-2.05 3.839-5.95 0-3.88-1.556-5.83-3.839-5.83s-3.824 1.92-3.824 5.83 1.536 5.95 3.819 5.95zm0-2.11c-.771 0-1.381-.73-1.381-3.84s.61-3.74 1.381-3.74 1.4.64 1.4 3.74-.634 3.84-1.405 3.84zm5.741 1.89h7.5v-2.29h-1.993a13.994 13.994 0 0 0 -1.759.16c1.658-1.76 3.257-3.91 3.257-5.86a3.366 3.366 0 0 0 -3.548-3.57 4.454 4.454 0 0 0 -3.592 1.75l1.411 1.47a2.579 2.579 0 0 1 1.832-1.1 1.385 1.385 0 0 1 1.411 1.6c0 1.65-1.818 3.71-4.523 6.29v1.55zm13.479.22c2.283 0 3.839-2.05 3.839-5.95 0-3.88-1.556-5.83-3.839-5.83s-3.825 1.92-3.825 5.83 1.539 5.95 3.82 5.95zm0-2.11c-.771 0-1.382-.73-1.382-3.84s.611-3.74 1.382-3.74 1.4.64 1.4 3.74-.635 3.84-1.405 3.84zm9.135-3.54h2.079v.63h-2.079zm0-2.12h2.079v.61h-2.079zm6.456 0v.61h-2.167v-.61zm0 2.75h-2.167v-.63h2.167zm2.167 1.63v-6.01h-4.334v-.64h5.483v-2.06h-5.483v-1.16h-2.21v1.16h-5.337v2.06h5.337v.64h-4.144v6.01h2.632a13.154 13.154 0 0 1 -4.29 2.62 10.669 10.669 0 0 1 1.454 1.87 13.3 13.3 0 0 0 4.348-3.21v3.34h2.21v-3.43a14.026 14.026 0 0 0 4.436 3.33 9.041 9.041 0 0 1 1.512-1.94 13.3 13.3 0 0 1 -4.377-2.58zm6.238.05a12.567 12.567 0 0 1 -2.356 2.89 16.664 16.664 0 0 1 1.542 1.42 22.715 22.715 0 0 0 2.879-3.52zm1.629-3.74h5.555v1.2h-5.555zm7.808 3.09v-4.99h-9.919v4.99h3.868v2.93c0 .19-.073.23-.32.23s-1.149 0-1.745-.03a8.655 8.655 0 0 1 .655 2.15 7.1 7.1 0 0 0 2.733-.32c.742-.32.931-.88.931-1.95v-3.01h3.795zm-2.748 1.71a23.052 23.052 0 0 1 2.341 3.25l1.876-1.29a26.621 26.621 0 0 0 -2.472-3.09zm-.771-9.35c-.232-.53-.61-1.25-.9-1.8l-2.094.7c.145.34.32.72.48 1.1h-5.468v2.18h12.971v-2.18zm15.269 2.76.916.46h-.916zm0 2.58v-.69h.683zm-4.29.23a6.328 6.328 0 0 1 1.1 1.25 7.244 7.244 0 0 0 1.411-1.27v.87h1.774v-.85a11.042 11.042 0 0 1 1.265 1.08l1.047-1.1c-.276-.24-.771-.59-1.178-.9h1.091v-1.43h-.96c.276-.32.6-.75.989-1.21l-1.527-.67a10.65 10.65 0 0 1 -.727 1.39v-1.39h-1.774v1.88h-1.033l1-.5a12.35 12.35 0 0 0 -.756-1.33l-1.309.61c.2.38.465.85.625 1.22h-.829v1.43h1.076a7.215 7.215 0 0 1 -1.294.9v-4.36h6.748v5.71h2.05v-7.5h-4.523l.364-.8-2.37-.32a8.909 8.909 0 0 1 -.378 1.12h-3.854v7.5h1.963v-1.33zm9.961 3.66v-1.86h-5.729c.029-.21.043-.43.058-.66h-2.21c-.015.23-.044.45-.058.66h-5.163v1.86h4.581c-.64.89-1.978 1.42-4.944 1.74a6.273 6.273 0 0 1 1 1.95c4.217-.61 5.744-1.78 6.369-3.69h.771l-1.251 1.3a32.888 32.888 0 0 1 5.628 2.35l1.44-1.57a31.645 31.645 0 0 0 -5.468-2.08h4.973zm14.2-8.82v.76h-1.614v-.47h-2.05v.47h-1.836v-.76zm-.552 3.92v.37h-1.062v-.37zm0 1.96h-1.062v-.37h1.062zm-4.261 0v-.37h1.149v.37zm0-1.96h1.149v.37h-1.149zm-1.323-1.66h2.472v.35h-2.938v4.58h2.938v.33h-3.563v1.58h3.563v.88h2.05v-.88h3.563v-1.58h-3.563v-.33h2.938v-4.58h-2.938v-.35h1.963v-.66h1.673v-3.2h-9.442v3.2h1.28v.66zm-1.7-1.75c-.218-.71-.6-1.76-.887-2.6l-1.861.61c.247.86.654 2 .829 2.72zm-.523 4.22-.218.05c.305-1.07.625-2.25.9-3.31h-3.664v1.96h1.163c-.305 1.18-.654 2.35-.974 3.25h1.8a14.083 14.083 0 0 1 -.712 2.35 6.38 6.38 0 0 0 -1.585 1.36l1.4 2.14c.334-.82.857-1.91 1.206-1.91a5.851 5.851 0 0 1 1.411.86 7.981 7.981 0 0 0 4.2.77c1.686 0 4.158-.1 5.424-.19a9.478 9.478 0 0 1 .61-2.26 44.387 44.387 0 0 1 -5.933.44 7.61 7.61 0 0 1 -4.071-.72c-.291-.18-.524-.33-.727-.47a20.632 20.632 0 0 0 1.017-3.71z" fill="#fff" fill-rule="evenodd" transform="translate(-328.719 -2162.56)"/></svg>