<svg height="14.47" viewBox="0 0 230 14.47" width="230" xmlns="http://www.w3.org/2000/svg"><path d="m333.593 1375.83-1.381.35v-2.55h1.488v-1.66h-1.483v-2.58h1.628v-1.68h-4.945v1.68h1.643v2.58h-1.556v1.66h1.556v2.96c-.741.19-1.425.34-1.992.46l.349 1.74c1.4-.38 3.185-.85 4.872-1.33zm.553 4.72a6.87 6.87 0 0 0 1.221-3.64l-1.352-.35a6.345 6.345 0 0 1 -1.149 3.3zm1.454-3.45a16.527 16.527 0 0 1 .232 2.84l1.222-.22a15.325 15.325 0 0 0 -.3-2.81zm1.614-.11a12.5 12.5 0 0 1 .552 2.38l1.149-.35a13.246 13.246 0 0 0 -.64-2.35zm-1.294-3.48h1.716v.93h-1.716zm1.716-4.55v.84h-1.716v-.84zm0 3.15h-1.716v-.89h1.716zm1.526 2.33v-.93h2.24v-1.4h-2.24v-.89h2.225v-1.42h-2.225v-.84h2.763v-1.55h-7.605v8.59h6.3c-.044.85-.088 1.51-.131 2.01a7.507 7.507 0 0 0 -.858-1.71l-.916.4a7.266 7.266 0 0 1 .785 1.79l.989-.46a3.394 3.394 0 0 1 -.306 1.37.488.488 0 0 1 -.45.18 10.584 10.584 0 0 1 -1.222-.06 4.144 4.144 0 0 1 .436 1.59 10.052 10.052 0 0 0 1.614-.03 1.48 1.48 0 0 0 1-.59c.392-.49.538-1.9.683-5.38.015-.21.029-.67.029-.67h-3.112zm9.892-5.34a18.537 18.537 0 0 0 2.414-.79l-1.222-1.39a23.934 23.934 0 0 1 -5.846 1.57 5.669 5.669 0 0 1 .509 1.42c.771-.11 1.585-.24 2.4-.41v1.88h-2.749v1.67h2.44a14.728 14.728 0 0 1 -2.763 4.37 10.334 10.334 0 0 1 .887 1.78 14.493 14.493 0 0 0 2.182-3.51v5.39h1.745v-5.49c.567.65 1.178 1.39 1.541 1.86l.989-1.54c-.378-.37-1.8-1.71-2.53-2.32v-.54h2.617v-1.67h-2.617v-2.28zm5.177-.39h-1.731v8.52h1.731zm1.366-1.59v11.72a.33.33 0 0 1 -.392.39c-.291 0-1.236 0-2.181-.04a7.213 7.213 0 0 1 .6 1.89 6.922 6.922 0 0 0 2.894-.37c.6-.3.8-.77.8-1.86v-11.73h-1.718zm16.057 3.57a24.457 24.457 0 0 1 -.639 2.55l1.294.44a38.784 38.784 0 0 0 1.178-4.35l-1.105-.35-.248.06h-2.7c.145-.64.261-1.3.349-1.97l-1.571-.26a13.462 13.462 0 0 1 -1.789 5.8 9.156 9.156 0 0 1 1.353.95 11.614 11.614 0 0 0 1.236-2.87h2.646zm-6.761 1.54h-1.106v-1.37h1.106zm1.308-2.44h-3.65v3.49h3.65zm-3.344 5.34h.6v1.72h-.6zm-.815 2.79h2.24v-3.86h-2.24zm4.072-1.04h-.64v-1.72h.64zm.858-2.79h-2.312v3.85h2.312zm3.577-2.7h-1.57v1.15a10.4 10.4 0 0 1 -1.934 6.62l-.058-.55a6.671 6.671 0 0 1 -1.44.15h-2.923c-.712 0-.931-.32-.931-1.3v-8.45h5.279v-1.53h-7.256v1.53h.451v8.38c0 2.13.639 2.88 2.515 2.88h2.778a8.343 8.343 0 0 0 1.512-.09 7.578 7.578 0 0 1 .683.95 9.481 9.481 0 0 0 2.284-3.97 10.383 10.383 0 0 0 2.384 3.97 4.262 4.262 0 0 1 1.062-1.41c-1.585-1.51-2.341-3.29-2.85-6.21.014-.32.014-.64.014-.93zm7.178 6.87a1.044 1.044 0 0 1 -1.018-1.21 3.032 3.032 0 0 1 .436-1.54 14.417 14.417 0 0 0 1.426 2.24 1.191 1.191 0 0 1 -.844.51zm.306-8.52c.363 0 .494.41.494.98a2.8 2.8 0 0 1 -.785 1.78 5.325 5.325 0 0 1 -.306-1.63c0-.75.233-1.13.597-1.13zm3.94 8.47a4.643 4.643 0 0 1 -1.192-.88 14.138 14.138 0 0 0 1.032-3.85h-1.759a11.576 11.576 0 0 1 -.524 2.35 14 14 0 0 1 -1.148-1.85 5.053 5.053 0 0 0 1.672-3.46 2 2 0 0 0 -2.08-2.26c-1.221 0-2.152.98-2.152 2.84a8.552 8.552 0 0 0 .6 2.73 4.471 4.471 0 0 0 -1.614 3.15c0 1.77.873 2.99 2.618 2.99a3.05 3.05 0 0 0 2.312-.95 4.674 4.674 0 0 0 1.309.95zm4.218-.55a11.345 11.345 0 0 1 -3.228 2.03 13.328 13.328 0 0 1 1.294 1.22 17.073 17.073 0 0 0 3.5-2.56zm7.518-.7a11.815 11.815 0 0 1 .931 1.14l1.309-.9a25.723 25.723 0 0 0 -2.938-3l-1.221.79c.261.25.552.52.843.81l-4.522.26a36.764 36.764 0 0 0 5.1-2.59l-1.193-1.06a22.476 22.476 0 0 1 -2.152 1.33l-2.385.09a19.238 19.238 0 0 0 2.545-1.51l-.32-.29h4.683v1.65h1.716v-3.16h-5.6v-.91h5.264v-1.56h-5.259v-1.19h-1.832v1.19h-5.278v1.56h5.279v.91h-5.6v3.16h1.643v-1.65h3.3a19.207 19.207 0 0 1 -2.166 1.31 3.171 3.171 0 0 1 -1.091.45 13.736 13.736 0 0 1 .436 1.45 8.625 8.625 0 0 1 2.24-.28c-.771.37-1.411.63-1.745.76a7.882 7.882 0 0 1 -1.963.63 14.063 14.063 0 0 1 .407 1.46c.48-.16 1.119-.25 4.886-.53v1.92c0 .17-.058.22-.306.23s-1.119 0-1.875-.03a6.985 6.985 0 0 1 .6 1.66 6.7 6.7 0 0 0 2.472-.27 1.352 1.352 0 0 0 .785-1.53v-2.1zm-2.4 1.5a24.131 24.131 0 0 1 3.432 2.41l1.425-1.03a29.417 29.417 0 0 0 -3.534-2.27zm17.555-9.3v1.74h-7.2v-1.74zm1.745 3.39v-5.03h-10.7v4.39c0 2.46-.116 5.92-1.614 8.27a7.046 7.046 0 0 1 1.541.95c1.469-2.34 1.789-5.92 1.832-8.58h8.944zm-4.639 6.58c-1.018 0-1.164-.09-1.164-.75v-2.15h5.715v-1.57h-5.715v-1.62h-1.745v5.34c0 1.89.6 2.46 2.778 2.46h3.243c1.846 0 2.37-.64 2.617-2.92a4.708 4.708 0 0 1 -1.629-.69c-.116 1.62-.261 1.9-1.105 1.9h-3zm11.52-6.52h6.21v1.66h-6.209v-1.66zm6.18 6.61c-.524 0-.611-.06-.611-.57v-2.77h2.429v-4.86h-4.072v-1.22h5.526v-1.64h-5.526v-1.3h-1.76v1.3h-5.365v1.64h5.365v1.22h-3.839v4.86h1.949c-.233 1.78-.785 2.93-4.028 3.57a5.93 5.93 0 0 1 1.018 1.69c3.8-.94 4.566-2.7 4.871-5.26h1.658v2.79c0 1.71.422 2.26 2.123 2.26h1.861c1.426 0 1.891-.63 2.065-3.07a5.212 5.212 0 0 1 -1.6-.7c-.058 1.78-.131 2.06-.625 2.06h-1.44zm15.95-4.11.189-1.23c.189-1.18.393-2.47.538-3.71h.058c.189 1.24.349 2.53.553 3.71l.189 1.23zm2.239 4.67h2.08l-2.051-11.33h-2.966l-2.05 11.33h2.05l.436-2.9h2.065zm4.537 0h2.167v-9.44h2.254v-1.89h-6.69v1.89h2.273v9.44zm13.519 0h7.213v-1.89h-2.341c-.5 0-1.207.06-1.745.12 1.963-2.01 3.577-4.21 3.577-6.25a3.232 3.232 0 0 0 -3.388-3.48 4.283 4.283 0 0 0 -3.417 1.71l1.163 1.22a2.743 2.743 0 0 1 1.978-1.16 1.586 1.586 0 0 1 1.614 1.83c0 1.74-1.731 3.86-4.654 6.61zm13.348.22c2.181 0 3.635-2.02 3.635-5.91s-1.454-5.81-3.635-5.81c-2.2 0-3.65 1.91-3.65 5.81s1.455 5.91 3.651 5.91zm0-1.76c-.931 0-1.629-.97-1.629-4.15 0-3.16.7-4.07 1.629-4.07s1.614.91 1.614 4.07c.001 3.18-.697 4.15-1.613 4.15zm5.879 1.54h7.213v-1.89h-2.341c-.5 0-1.207.06-1.745.12 1.963-2.01 3.577-4.21 3.577-6.25a3.233 3.233 0 0 0 -3.388-3.48 4.287 4.287 0 0 0 -3.418 1.71l1.164 1.22a2.743 2.743 0 0 1 1.977-1.16 1.585 1.585 0 0 1 1.614 1.83c0 1.74-1.73 3.86-4.653 6.61zm13.348.22c2.181 0 3.635-2.02 3.635-5.91s-1.454-5.81-3.635-5.81-3.65 1.91-3.65 5.81 1.46 5.91 3.651 5.91zm0-1.76c-.931 0-1.629-.97-1.629-4.15 0-3.16.7-4.07 1.629-4.07s1.614.91 1.614 4.07c.001 3.18-.697 4.15-1.613 4.15zm8.822-4.01h2.559v.93h-2.559zm0-2.18h2.559v.9h-2.559zm7.024 0v.9h-2.676v-.9zm0 3.11h-2.676v-.93h2.676zm1.759 1.36v-5.83h-4.435v-.87h5.6v-1.69h-5.6v-1.26h-1.789v1.26h-5.467v1.69h5.467v.87h-4.231v5.83h2.937a13.048 13.048 0 0 1 -4.58 2.88 10.178 10.178 0 0 1 1.192 1.53 14.313 14.313 0 0 0 4.682-3.45v3.63h1.789v-3.71a14.417 14.417 0 0 0 4.77 3.56 7.816 7.816 0 0 1 1.236-1.57 13.811 13.811 0 0 1 -4.7-2.87h3.134zm6.125.12a12.314 12.314 0 0 1 -2.457 2.98 13.19 13.19 0 0 1 1.265 1.14 19.7 19.7 0 0 0 2.894-3.46zm1.178-3.95h6.049v1.65h-6.047v-1.65zm7.882 3.2v-4.77h-9.612v4.77h3.9v3.28c0 .2-.073.25-.32.25s-1.149.01-1.89-.02a6.835 6.835 0 0 1 .552 1.76 7.487 7.487 0 0 0 2.661-.28c.669-.26.829-.73.829-1.65v-3.34h3.883zm-2.458 1.63a25.526 25.526 0 0 1 2.458 3.27l1.527-1.07a33.454 33.454 0 0 0 -2.545-3.13zm-1.12-8.95c-.261-.57-.668-1.3-.988-1.86l-1.7.56c.189.4.422.86.626 1.3h-5.628v1.78h12.811v-1.78h-5.123zm10.407.78h7.619v5.05c0 .12-.029.16-.145.16h-.393l.131-.21a22.575 22.575 0 0 0 -2.356-1.37h2.269v-1.07h-1.149c.131-.24.291-.52.48-.82l-1.047-.31a9.687 9.687 0 0 1 -.451 1.1l.087.03h-.624v-1.16c.945-.06 1.847-.17 2.589-.29l-.7-.93a43.266 43.266 0 0 1 -5.73.41 3.663 3.663 0 0 1 .276.92c.713.01 1.484 0 2.269-.03v1.08h-.683l.13-.05a4.362 4.362 0 0 0 -.421-.97l-.946.29a3.9 3.9 0 0 1 .291.73h-1v1.07h2.036a7.439 7.439 0 0 1 -2.356 1.46 6.041 6.041 0 0 1 .829 1.01 8.087 8.087 0 0 0 2.123-1.54v1.2h1.294v-1.09c.785.45 1.6.97 2.08 1.32l.465-.64a6.728 6.728 0 0 1 .465 1.19 2.561 2.561 0 0 0 1.382-.26 1.226 1.226 0 0 0 .48-1.23v-6.47h-4.755c.13-.28.261-.58.392-.89l-1.89-.18c-.073.3-.189.69-.32 1.07h-4.33v7.81h1.615v-6.39zm10.368 8.4v-1.49h-5.962c.029-.23.058-.47.087-.73h-1.818c-.029.26-.058.5-.1.73h-5.365v1.49h4.827c-.639.97-2.006 1.53-5.089 1.82a4.616 4.616 0 0 1 .77 1.53c4.087-.49 5.643-1.55 6.312-3.35h.61l-.61.98c1.788.72 4.362 1.8 5.613 2.47l.814-1.43c-1.163-.57-3.316-1.39-4.959-2.02h4.872zm13.854-9.09v1.01h-2.094v-.6h-1.687v.6h-2.24v-1.01zm-.611 3.94v.61h-1.483v-.61zm0 2.25h-1.483v-.61h1.483zm-4.712 0v-.61h1.542v.61zm0-2.25h1.542v.61h-1.542zm-1.061-1.67h2.6v.55h-3.01v4.47h3.01v.55h-3.694v1.31h3.694v1.01h1.687v-1.01h3.737v-1.31h-3.737v-.55h3.024v-4.47h-3.024v-.55h2.239v-.56h1.512v-3.04h-9.263v3.04h1.222v.56zm-1.947-1.54c-.189-.68-.567-1.71-.843-2.53l-1.527.49c.247.82.64 1.94.8 2.64zm-.218 4.34-.247.04h-.235c.335-1.05.713-2.27 1.018-3.36h-3.446v1.62h1.338c-.335 1.19-.728 2.41-1.077 3.31h1.847a13.238 13.238 0 0 1 -.814 2.63 6.421 6.421 0 0 0 -1.571 1.48l1.164 1.72c.349-.87.872-1.91 1.207-1.91a6.293 6.293 0 0 1 1.425.86 7.688 7.688 0 0 0 4.2.81c1.7 0 4.276-.11 5.468-.19a6.93 6.93 0 0 1 .509-1.86 45.885 45.885 0 0 1 -5.889.4 7.656 7.656 0 0 1 -4.058-.72c-.363-.23-.639-.42-.857-.58a18.911 18.911 0 0 0 1.032-3.75z" fill="#fff" fill-rule="evenodd" transform="translate(-328.562 -1366.72)"/></svg>