<svg height="58.53" viewBox="0 0 274.031 58.53" width="274.031" xmlns="http://www.w3.org/2000/svg"><path d="m21.88 1710.78h2.395v-5.84c0-1.32-.216-3.27-.342-4.59h.067l1.062 3.29 2.071 5.88h1.53l2.053-5.88 1.08-3.29h.072c-.126 1.32-.324 3.27-.324 4.59v5.84h2.436v-13.99h-2.953l-2.215 6.54c-.288.87-.522 1.8-.81 2.71h-.09c-.27-.91-.522-1.84-.81-2.71l-2.269-6.54h-2.953zm18.565-5.76.4-1.53c.4-1.46.792-3.05 1.134-4.58h.072c.4 1.51.756 3.12 1.17 4.58l.4 1.53zm4.681 5.76h2.791l-4.285-13.99h-3.132l-4.267 13.99h2.7l.936-3.59h4.321zm8.523-11.78h1.728c1.711 0 2.647.52 2.647 2.03 0 1.49-.936 2.25-2.647 2.25h-1.728zm7.562 11.78-3.115-5.73a3.992 3.992 0 0 0 2.539-4.02c0-3.22-2.215-4.24-5.005-4.24h-4.646v13.99h2.665v-5.29h1.851l2.737 5.29h2.971zm2.606 0h2.665v-13.99h-2.664v13.99zm12.078.27c3.529 0 5.96-2.78 5.96-7.32s-2.431-7.2-5.96-7.2-5.96 2.65-5.96 7.2 2.432 7.32 5.965 7.32zm0-2.42c-1.981 0-3.241-1.91-3.241-4.9s1.26-4.8 3.241-4.8 3.241 1.8 3.241 4.8-1.259 4.9-3.236 4.9zm15.929-1.72a2.728 2.728 0 0 1 1.1-1.97 19.375 19.375 0 0 0 3.007 3.27 3.46 3.46 0 0 1 -1.945.7 1.984 1.984 0 0 1 -2.161-2zm1.332-6.83a1.466 1.466 0 0 1 1.332-1.7 1.022 1.022 0 0 1 1.008 1.21c0 1.02-.81 1.7-1.854 2.36a4.5 4.5 0 0 1 -.485-1.87zm8.553 8.7a7.819 7.819 0 0 1 -2.359-1 15.728 15.728 0 0 0 2.251-4.8h-2.394a10.726 10.726 0 0 1 -1.638 3.55 17.224 17.224 0 0 1 -2.881-2.91c1.422-1.04 2.863-2.2 2.863-4.05a2.88 2.88 0 0 0 -3.1-3.04 3.4 3.4 0 0 0 -3.493 3.55 6.862 6.862 0 0 0 .846 3.03 4.652 4.652 0 0 0 -2.5 3.97c0 2.17 1.566 3.97 4.357 3.97a6.247 6.247 0 0 0 4.087-1.48 10.54 10.54 0 0 0 3.313 1.48zm11.472 2.27c3.079 0 4.9-1.95 4.9-4.24a3.848 3.848 0 0 0 -2.683-3.8l-1.746-.77c-1.134-.47-2.089-.83-2.089-1.84 0-.92.757-1.47 1.927-1.47a4.172 4.172 0 0 1 2.827 1.15l1.35-1.76a5.778 5.778 0 0 0 -4.177-1.79c-2.7 0-4.61 1.76-4.61 4.04a4.033 4.033 0 0 0 2.7 3.77l1.783.79c1.188.53 2 .85 2 1.89 0 .98-.738 1.61-2.124 1.61a5.152 5.152 0 0 1 -3.385-1.55l-1.531 1.93a6.942 6.942 0 0 0 4.859 2.04zm13.184 0c3.529 0 5.959-2.78 5.959-7.32s-2.43-7.2-5.959-7.2-5.96 2.65-5.96 7.2 2.432 7.32 5.961 7.32zm0-2.42c-1.981 0-3.241-1.91-3.241-4.9s1.26-4.8 3.241-4.8 3.241 1.8 3.241 4.8-1.26 4.9-3.24 4.9zm9.505 2.15h2.521v-5.61c0-1.61-.2-3.37-.324-4.88h.09l1.35 3.01 3.853 7.48h2.7v-13.99h-2.521v5.58c0 1.59.2 3.44.343 4.9h-.09l-1.333-3.03-3.871-7.45h-2.719v13.99zm13.738 0h2.665v-13.99h-2.665zm12.223.27a5.3 5.3 0 0 0 4.249-2.06l-1.405-1.74a3.648 3.648 0 0 1 -2.754 1.38c-2.107 0-3.475-1.84-3.475-4.88 0-3.01 1.512-4.82 3.529-4.82a3.367 3.367 0 0 1 2.448 1.17l1.405-1.78a5.339 5.339 0 0 0 -3.907-1.79c-3.367 0-6.194 2.7-6.194 7.31.001 4.67 2.738 7.21 6.105 7.21zm14.865-6.03.4-1.53c.4-1.46.792-3.05 1.134-4.58h.07c.4 1.51.756 3.12 1.171 4.58l.4 1.53h-3.171zm4.681 5.76h2.791l-4.285-13.99h-3.133l-4.268 13.99h2.7l.937-3.59h4.321zm7.279 0h2.665v-11.66h3.779v-2.33h-10.188v2.33h3.745v11.66zm16.8 0h2.665v-11.66h3.779v-2.33h-10.188v2.33h3.745v11.66zm9.095 0h2.665v-6.05h5.041v6.05h2.647v-13.99h-2.647v5.5h-5.041v-5.5h-2.665zm14.749 0h8.372v-2.34h-5.707v-3.74h4.681v-2.35h-4.681v-3.23h5.509v-2.33h-8.174zm-202.126 22.27c3.529 0 5.96-2.78 5.96-7.32s-2.431-7.2-5.96-7.2-5.96 2.65-5.96 7.2 2.431 7.32 5.96 7.32zm0-2.42c-1.981 0-3.241-1.91-3.241-4.9s1.26-4.8 3.241-4.8 3.241 1.8 3.241 4.8-1.261 4.9-3.241 4.9zm9.506 2.15h8.066v-2.34h-5.4v-11.65h-2.667v13.99zm11.758 0h2.662v-5.12l4.015-8.87h-2.771l-1.332 3.41c-.378 1.04-.774 2.02-1.188 3.1h-.073c-.414-1.08-.774-2.06-1.152-3.1l-1.332-3.41h-2.827l4 8.87v5.12zm8.739 0h2.395v-5.84c0-1.32-.216-3.27-.342-4.59h.07l1.062 3.29 2.071 5.88h1.53l2.053-5.88 1.08-3.29h.072c-.126 1.32-.324 3.27-.324 4.59v5.84h2.431v-13.99h-2.952l-2.215 6.54c-.288.87-.522 1.8-.81 2.71h-.09c-.27-.91-.522-1.84-.81-2.71l-2.269-6.54h-2.953v13.99zm15.758 0h2.665v-4.97h1.782c2.863 0 5.15-1.44 5.15-4.63 0-3.31-2.269-4.39-5.222-4.39h-4.376v13.99zm2.665-7.18v-4.6h1.512c1.837 0 2.809.55 2.809 2.18 0 1.61-.882 2.42-2.719 2.42zm9.951 7.18h2.665v-13.99h-2.666v13.99zm12.222.27a5.3 5.3 0 0 0 4.249-2.06l-1.4-1.74a3.65 3.65 0 0 1 -2.755 1.38c-2.107 0-3.475-1.84-3.475-4.88 0-3.01 1.513-4.82 3.529-4.82a3.369 3.369 0 0 1 2.449 1.17l1.4-1.78a5.338 5.338 0 0 0 -3.907-1.79c-3.367 0-6.194 2.7-6.194 7.31-.001 4.67 2.736 7.21 6.103 7.21zm18.088 0a6.134 6.134 0 0 0 4.321-1.68v-6.32h-4.735v2.29h2.359v2.76a2.6 2.6 0 0 1 -1.675.53c-2.611 0-3.943-1.84-3.943-4.88 0-3.01 1.548-4.82 3.763-4.82a3.43 3.43 0 0 1 2.611 1.17l1.422-1.78a5.5 5.5 0 0 0 -4.123-1.79c-3.547 0-6.392 2.7-6.392 7.31-.001 4.67 2.754 7.21 6.391 7.21zm10.857-6.03.4-1.53c.4-1.46.792-3.05 1.135-4.58h.072c.4 1.51.756 3.12 1.17 4.58l.4 1.53h-3.169zm4.682 5.76h2.79l-4.285-13.99h-3.133l-4.267 13.99h2.7l.936-3.59h4.321zm5.858 0h2.394v-5.84c0-1.32-.216-3.27-.342-4.59h.072l1.063 3.29 2.07 5.88h1.531l2.052-5.88 1.081-3.29h.072c-.126 1.32-.325 3.27-.325 4.59v5.84h2.431v-13.99h-2.957l-2.214 6.54c-.288.87-.522 1.8-.811 2.71h-.09c-.27-.91-.522-1.84-.81-2.71l-2.269-6.54h-2.952v13.99zm15.757 0h8.373v-2.34h-5.708v-3.74h4.682v-2.35h-4.682v-3.23h5.51v-2.33h-8.175zm15.887.27c3.079 0 4.9-1.95 4.9-4.24a3.848 3.848 0 0 0 -2.683-3.8l-1.746-.77c-1.134-.47-2.089-.83-2.089-1.84 0-.92.757-1.47 1.927-1.47a4.172 4.172 0 0 1 2.827 1.15l1.35-1.76a5.778 5.778 0 0 0 -4.177-1.79c-2.7 0-4.61 1.76-4.61 4.04a4.033 4.033 0 0 0 2.7 3.77l1.783.79c1.188.53 2 .85 2 1.89 0 .98-.738 1.61-2.124 1.61a5.152 5.152 0 0 1 -3.385-1.55l-1.531 1.93a6.942 6.942 0 0 0 4.856 2.04zm15.467-.27h2.665v-11.66h3.781v-2.33h-10.192v2.33h3.745v11.66zm14.207.27c3.529 0 5.96-2.78 5.96-7.32s-2.431-7.2-5.96-7.2-5.96 2.65-5.96 7.2 2.43 7.32 5.959 7.32zm0-2.42c-1.981 0-3.241-1.91-3.241-4.9s1.26-4.8 3.241-4.8 3.241 1.8 3.241 4.8-1.261 4.9-3.242 4.9zm9.506 2.15h2.664v-3.93l1.747-2.34 3.439 6.27h2.935l-4.79-8.49 4.07-5.5h-2.935l-4.412 6.07h-.054v-6.07h-2.664zm15.638 0h2.665v-5.12l4.015-8.87h-2.773l-1.332 3.41c-.378 1.04-.774 2.02-1.189 3.1h-.072c-.414-1.08-.774-2.06-1.152-3.1l-1.332-3.41h-2.827l4 8.87v5.12zm13.439.27c3.529 0 5.96-2.78 5.96-7.32s-2.431-7.2-5.96-7.2-5.96 2.65-5.96 7.2 2.43 7.32 5.959 7.32zm0-2.42c-1.981 0-3.241-1.91-3.241-4.9s1.26-4.8 3.241-4.8 3.241 1.8 3.241 4.8-1.261 4.9-3.242 4.9zm13.642 2.15h8.931v-2.34h-2.9a20.568 20.568 0 0 0 -2.161.15c2.431-2.5 4.43-5.22 4.43-7.75a4 4 0 0 0 -4.2-4.31 5.286 5.286 0 0 0 -4.231 2.12l1.441 1.51a3.4 3.4 0 0 1 2.448-1.44 1.968 1.968 0 0 1 2 2.27c0 2.16-2.143 4.78-5.762 8.19v1.6zm16.362.27c2.7 0 4.5-2.5 4.5-7.32s-1.8-7.2-4.5-7.2c-2.719 0-4.519 2.36-4.519 7.2-.001 4.82 1.799 7.32 4.518 7.32zm0-2.18c-1.152 0-2.017-1.21-2.017-5.14 0-3.91.865-5.05 2.017-5.05 1.134 0 2 1.14 2 5.05-.003 3.93-.863 5.14-2.001 5.14zm7.116 1.91h8.931v-2.34h-2.9a20.568 20.568 0 0 0 -2.161.15c2.431-2.5 4.429-5.22 4.429-7.75a4 4 0 0 0 -4.195-4.31 5.286 5.286 0 0 0 -4.231 2.12l1.44 1.51a3.4 3.4 0 0 1 2.449-1.44 1.968 1.968 0 0 1 2 2.27c0 2.16-2.143 4.78-5.762 8.19zm16.362.27c2.7 0 4.5-2.5 4.5-7.32s-1.8-7.2-4.5-7.2c-2.719 0-4.52 2.36-4.52 7.2-.001 4.82 1.8 7.32 4.519 7.32zm0-2.18c-1.153 0-2.017-1.21-2.017-5.14 0-3.91.864-5.05 2.017-5.05 1.134 0 2 1.14 2 5.05-.003 3.93-.867 5.14-2.001 5.14zm-269.517 19.39h8.048v-1.79h-8.048zm19.059-1.24.4-1.53c.4-1.46.792-3.05 1.134-4.58h.072c.4 1.51.756 3.12 1.17 4.58l.4 1.53zm4.681 5.76h2.791l-4.285-13.99h-3.133l-4.267 13.99h2.7l.936-3.59h4.321zm8.523-11.78h1.728c1.711 0 2.647.52 2.647 2.03 0 1.49-.936 2.25-2.647 2.25h-1.728zm7.562 11.78-3.115-5.73a3.992 3.992 0 0 0 2.539-4.02c0-3.22-2.215-4.24-5.005-4.24h-4.646v13.99h2.665v-5.29h1.855l2.737 5.29h2.971zm7.963.27a5.3 5.3 0 0 0 4.249-2.06l-1.4-1.74a3.649 3.649 0 0 1 -2.761 1.38c-2.107 0-3.475-1.84-3.475-4.88 0-3.01 1.513-4.82 3.529-4.82a3.368 3.368 0 0 1 2.449 1.17l1.4-1.78a5.339 5.339 0 0 0 -3.903-1.79c-3.367 0-6.194 2.7-6.194 7.31.003 4.67 2.739 7.21 6.106 7.21zm10.455-6.03.4-1.53c.4-1.46.792-3.05 1.134-4.58h.069c.4 1.51.756 3.12 1.17 4.58l.4 1.53zm4.681 5.76h2.791l-4.285-13.99h-3.133l-4.267 13.99h2.7l.936-3.59h4.321zm5.858 0h3.8c3.925 0 6.446-2.34 6.446-7.05 0-4.73-2.521-6.94-6.59-6.94h-3.655v13.99zm2.665-2.25v-9.51h.829c2.485 0 4.033 1.29 4.033 4.71 0 3.4-1.548 4.8-4.033 4.8zm11.126 2.25h8.372v-2.34h-5.707v-3.74h4.681v-2.35h-4.681v-3.23h5.509v-2.33h-8.171v13.99zm16.8 0h8.372v-2.34h-5.707v-3.74h4.681v-2.35h-4.681v-3.23h5.509v-2.33h-8.171v13.99zm11.666 0h3.8c3.925 0 6.446-2.34 6.446-7.05 0-4.73-2.521-6.94-6.59-6.94h-3.655v13.99zm2.665-2.25v-9.51h.828c2.485 0 4.033 1.29 4.033 4.71 0 3.4-1.548 4.8-4.033 4.8zm11.147 2.25h2.664v-13.99h-2.664zm9.354 0h2.665v-11.66h3.781v-2.33h-10.191v2.33h3.745zm9.095 0h2.664v-13.99h-2.664zm12.078.27c3.529 0 5.96-2.78 5.96-7.32s-2.431-7.2-5.96-7.2-5.96 2.65-5.96 7.2 2.431 7.32 5.958 7.32zm0-2.42c-1.981 0-3.241-1.91-3.241-4.9s1.26-4.8 3.241-4.8 3.241 1.8 3.241 4.8-1.26 4.9-3.243 4.9zm9.506 2.15h2.52v-5.61c0-1.61-.2-3.37-.324-4.88h.09l1.351 3.01 3.853 7.48h2.7v-13.99h-2.521v5.58c0 1.59.2 3.44.342 4.9h-.09l-1.332-3.03-3.872-7.45h-2.718v13.99z" fill="#fff" fill-rule="evenodd" transform="translate(-21.125 -1696.53)"/></svg>