<svg height="18.28" viewBox="0 0 214.063 18.28" width="214.063" xmlns="http://www.w3.org/2000/svg"><path d="m27.4 2104.82c0 .21-.09.26-.4.26-.252.02-1.044 0-1.8-.02a12.552 12.552 0 0 0 .954-.85l-2.269-.98c.81-.07 1.927-.17 3.511-.28v1.87zm-4.915-8.43h3.365c-.954.62-1.891 1.11-2.251 1.3a5.362 5.362 0 0 1 -1.116.49v-1.79zm10.8 6.14a11.933 11.933 0 0 1 1.1 1.4l1.963-1.36a31.284 31.284 0 0 0 -3.637-3.74l-1.818 1.19c.252.24.5.49.774.77l-4.285.23a37.421 37.421 0 0 0 5.636-2.86l-1.782-1.55a23.408 23.408 0 0 1 -2.719 1.69l-2.413.07a20.769 20.769 0 0 0 2.953-1.68l-.36-.3h5.24v1.87h2.593v-4.14h-6.86v-.8h6.33v-2.34h-6.333v-1.36h-2.773v1.36h-6.374v2.34h6.374v.8h-6.878v4.14h2.179a21.849 21.849 0 0 1 .63 2.14 6.78 6.78 0 0 1 1.963-.29c-.612.27-1.1.47-1.4.59a10.649 10.649 0 0 1 -2.485.77 22.571 22.571 0 0 1 .612 2.18 8.066 8.066 0 0 1 2.2-.4 14.052 14.052 0 0 1 -3.889 2.31 18.17 18.17 0 0 1 1.945 1.85 22.22 22.22 0 0 0 3.061-2.04 10.535 10.535 0 0 1 .756 2.17 8.189 8.189 0 0 0 3.223-.4c.882-.37 1.116-1.04 1.116-2.23v-2.15zm-3.025 1.84a31.676 31.676 0 0 1 4.2 2.98l2.161-1.53a41.665 41.665 0 0 0 -4.357-2.8zm21.691-11.52v1.8h-8.39v-1.8h8.391zm2.647 4.27v-6.74h-13.684v5.63c0 3-.144 7.3-1.963 10.15a10.931 10.931 0 0 1 2.341 1.42c1.765-2.78 2.179-7.15 2.251-10.46h11.057zm-5.6 7.57c-1.206 0-1.368-.1-1.368-.93v-2.15h6.7v-2.37h-6.7v-1.59h-2.63v6.13c0 2.66.774 3.48 3.763 3.48h3.583c2.431 0 3.2-.82 3.547-3.71a7.585 7.585 0 0 1 -2.449-1.02c-.144 1.85-.306 2.16-1.3 2.16h-3.144zm14.237-7.57h7.04v1.5h-7.04zm7.544 7.64c-.558 0-.648-.05-.648-.74v-2.98h2.845v-6.32h-4.969v-1.17h6.68v-2.48h-6.68v-1.47h-2.665v1.47h-6.464v2.48h6.464v1.17h-4.627v6.32h2.179c-.252 2-.792 3.27-4.825 4.02a8.735 8.735 0 0 1 1.513 2.56c4.9-1.19 5.8-3.44 6.14-6.58h1.728v3.02c0 2.46.558 3.29 2.917 3.29h2c1.927 0 2.611-.83 2.881-3.97a7.774 7.774 0 0 1 -2.413-1.08c-.072 2.14-.18 2.46-.72 2.46h-1.335zm15.284-4.82.288-1.19c.342-1.4.7-3.04 1.026-4.52h.073c.36 1.44.7 3.12 1.062 4.52l.288 1.19zm4.123 5.84h3.385l-4.159-14.06h-3.853l-4.159 14.06h3.277l.774-3.23h3.961zm7.443 0h3.223v-11.26h3.637v-2.8h-10.479v2.8h3.619zm14.415 0h9.291v-2.83h-2.467a17.07 17.07 0 0 0 -2.178.19c2.052-2.18 4.033-4.84 4.033-7.26a4.174 4.174 0 0 0 -4.394-4.43 5.493 5.493 0 0 0 -4.447 2.18l1.747 1.81a3.185 3.185 0 0 1 2.268-1.36 1.721 1.721 0 0 1 1.747 1.99c0 2.04-2.251 4.59-5.6 7.78zm16.524.27c2.827 0 4.753-2.54 4.753-7.38 0-4.8-1.926-7.22-4.753-7.22s-4.735 2.38-4.735 7.22 1.908 7.38 4.735 7.38zm0-2.61c-.954 0-1.711-.91-1.711-4.77 0-3.83.757-4.63 1.711-4.63s1.728.8 1.728 4.63c.004 3.86-.774 4.77-1.728 4.77zm6.943 2.34h9.289v-2.83h-2.467a17.07 17.07 0 0 0 -2.178.19c2.052-2.18 4.033-4.84 4.033-7.26a4.174 4.174 0 0 0 -4.394-4.43 5.493 5.493 0 0 0 -4.447 2.18l1.747 1.81a3.185 3.185 0 0 1 2.268-1.36 1.721 1.721 0 0 1 1.747 1.99c0 2.04-2.251 4.59-5.6 7.78v1.93zm16.524.27c2.827 0 4.753-2.54 4.753-7.38 0-4.8-1.926-7.22-4.753-7.22s-4.735 2.38-4.735 7.22 1.908 7.38 4.735 7.38zm0-2.61c-.954 0-1.711-.91-1.711-4.77 0-3.83.757-4.63 1.711-4.63s1.728.8 1.728 4.63c0 3.86-.774 4.77-1.728 4.77zm11.147-4.39h2.575v.78h-2.575zm0-2.63h2.575v.76h-2.575zm8 0v.76h-2.683v-.76zm0 3.41h-2.683v-.78h2.683zm2.683 2.02v-7.45h-5.366v-.79h6.788v-2.55h-6.788v-1.44h-2.737v1.44h-6.608v2.55h6.608v.79h-5.131v7.45h3.259a16.279 16.279 0 0 1 -5.312 3.25 12.976 12.976 0 0 1 1.8 2.31 16.493 16.493 0 0 0 5.383-3.97v4.14h2.737v-4.25a17.274 17.274 0 0 0 5.492 4.12 11.042 11.042 0 0 1 1.872-2.4 16.476 16.476 0 0 1 -5.419-3.2h3.421zm7.135.06a15.918 15.918 0 0 1 -2.917 3.59 18.015 18.015 0 0 1 1.908 1.76 28.55 28.55 0 0 0 3.566-4.37zm2.016-4.63h6.878v1.49h-6.878zm9.669 3.83v-6.18h-12.285v6.18h4.789v3.63c0 .23-.09.29-.4.29-.288 0-1.423 0-2.161-.04a10.6 10.6 0 0 1 .81 2.66 8.883 8.883 0 0 0 3.385-.39c.919-.4 1.153-1.1 1.153-2.42v-3.73h4.7zm-3.4 2.12a27.98 27.98 0 0 1 2.9 4.03l2.323-1.61a32.8 32.8 0 0 0 -3.061-3.82zm-.954-11.59c-.288-.66-.756-1.55-1.116-2.23l-2.593.87c.18.42.4.89.594 1.36h-6.77v2.71h16.054v-2.71h-6.176zm18.313 3.42 1.134.57h-1.134zm0 3.2v-.85h.846zm-5.312.28a7.921 7.921 0 0 1 1.369 1.55 9.3 9.3 0 0 0 1.746-1.57v1.08h2.2v-1.06a16.152 16.152 0 0 1 1.566 1.34l1.3-1.36c-.342-.3-.955-.73-1.459-1.11h1.351v-1.78h-1.205c.342-.4.739-.93 1.225-1.49l-1.891-.83a13.805 13.805 0 0 1 -.9 1.72v-1.72h-2.2v2.32h-1.278l1.242-.62a15.958 15.958 0 0 0 -.936-1.65l-1.621.76c.253.47.577 1.06.775 1.51h-1.027v1.78h1.333a8.835 8.835 0 0 1 -1.6 1.11v-5.4h8.355v7.07h2.539v-9.29h-5.6l.45-1-2.935-.39a10.831 10.831 0 0 1 -.468 1.39h-4.771v9.29h2.43v-1.65zm12.334 4.54v-2.31h-7.094c.036-.26.054-.53.072-.81h-2.744c-.018.28-.054.55-.072.81h-6.392v2.31h5.672c-.792 1.1-2.449 1.76-6.122 2.15a7.988 7.988 0 0 1 1.242 2.42c5.222-.75 7.113-2.21 7.887-4.57h.954l-1.548 1.61a41.076 41.076 0 0 1 6.968 2.91l1.782-1.95a39.343 39.343 0 0 0 -6.77-2.57h6.158zm16.993-10.93v.95h-2v-.59h-2.538v.59h-2.269v-.95h6.806zm-.684 4.86v.45h-1.315v-.45zm0 2.42h-1.315v-.45h1.315zm-5.276 0v-.45h1.423v.45zm0-2.42h1.423v.45h-1.423zm-1.638-2.06h3.061v.44h-3.637v5.67h3.637v.41h-4.422v1.95h4.412v1.1h2.538v-1.1h4.412v-1.95h-4.412v-.41h3.638v-5.67h-3.638v-.44h2.431v-.81h2.071v-3.97h-11.684v3.97h1.585v.81zm-2.107-2.17c-.27-.87-.738-2.18-1.1-3.22l-2.305.76c.306 1.06.81 2.48 1.026 3.36zm-.648 5.23-.27.06c.378-1.32.774-2.78 1.116-4.1h-4.537v2.44h1.44c-.378 1.45-.81 2.91-1.206 4.02h2.233a17.586 17.586 0 0 1 -.883 2.91 7.778 7.778 0 0 0 -1.962 1.69l1.728 2.64c.414-1.02 1.063-2.36 1.5-2.36a7.457 7.457 0 0 1 1.746 1.06c1.3.76 2.791.96 5.2.96 2.088 0 5.149-.13 6.716-.24a11.816 11.816 0 0 1 .756-2.8 54.064 54.064 0 0 1 -7.346.55c-2.089 0-3.835-.1-5.042-.89-.36-.23-.648-.42-.9-.59a25.321 25.321 0 0 0 1.26-4.59z" fill="#fff" fill-rule="evenodd" transform="translate(-19.813 -2089.41)"/></svg>