<svg id="レイヤー_1" data-name="レイヤー 1" xmlns="http://www.w3.org/2000/svg" viewBox="0 0 154.37 22.78"><defs><style>.cls-1{fill:#fff;}</style></defs><title>アートボード 9</title><path class="cls-1" d="M12.6,1.27l4.06.22c.19,0,.36.07.36.24a.5.5,0,0,1-.36.43V6.07h4.17V9.82h-4.2a16.64,16.64,0,0,1-.74,5.42,13,13,0,0,1-7.08,7.54,11.52,11.52,0,0,0-2.95-3,9.79,9.79,0,0,0,5.88-4.94,13.6,13.6,0,0,0,.86-5H8.45v5.35H4.56V9.82H0V6.07H4.56V1.42l3.77.21c.21,0,.5,0,.5.29s-.19.26-.38.38V6.07H12.6Z"/><path class="cls-1" d="M39.5,22.39H35.38V11.47a43,43,0,0,1-6.65,3.41,11.84,11.84,0,0,0-2.88-3.43A33.5,33.5,0,0,0,42.19.46L45.39,3a.55.55,0,0,1,.28.45c0,.22-.19.31-.38.31a1.52,1.52,0,0,1-.48-.07A47,47,0,0,1,39.5,8.59Z"/><path class="cls-1" d="M64.27,7.49a34.57,34.57,0,0,1,8.38,5.64c-1.08,1.56-1.2,1.73-2.26,3.36a35.38,35.38,0,0,0-7.49-5.33V22.42h-4V1.22l4,.2c.17,0,.46,0,.46.26s-.26.34-.46.38V9.41Z"/><path class="cls-1" d="M86.06,10.18a38,38,0,0,1,3.32,2.71A32.39,32.39,0,0,0,94,7.82H79.56V4.25h17a6.14,6.14,0,0,0,1.68-.31l2.32,2.83a7.64,7.64,0,0,0-1.17,1.17A82.68,82.68,0,0,1,92,15.72a18.73,18.73,0,0,1,2.16,2.83c-.86.77-2.26,2-3.12,2.81-.86-1.61-2.38-4.34-7.56-8.42Z"/><path class="cls-1" d="M110.66,6.79a36.11,36.11,0,0,1,2.21,4.39,15.81,15.81,0,0,0-3.05,1.49,48.6,48.6,0,0,0-2.25-4.58Zm13.59.39c.26.07.46.14.46.36s-.34.26-.46.26c-2,8.52-5.88,11.88-11.45,14.28a9.82,9.82,0,0,0-2.28-2.71c6.15-2.38,9.22-5.64,10.25-13.27Zm-8.69-1.49a17.55,17.55,0,0,1,2,4.51,25.43,25.43,0,0,0-3,1.25A38.1,38.1,0,0,0,112.42,7Z"/><path class="cls-1" d="M148.27,3.89a1.46,1.46,0,0,0,1.16-.34l2.44,1.73a13.8,13.8,0,0,0-1.53,3.19c-1.87,4.83-3.31,7.56-6,9.91a27.18,27.18,0,0,1-6.53,4.23,10.46,10.46,0,0,0-2.74-3.17,20.9,20.9,0,0,0,7.59-4.8,18.36,18.36,0,0,0,3.86-7.3H132.6V3.89Zm6.1-1.63A2.26,2.26,0,1,1,152.11,0,2.26,2.26,0,0,1,154.37,2.26Zm-3.31,0a1,1,0,0,0,1.05,1.05,1.07,1.07,0,0,0,1.06-1.05,1.06,1.06,0,1,0-2.11,0Z"/></svg>