<svg height="20.78" viewBox="0 0 98.625 20.78" width="98.625" xmlns="http://www.w3.org/2000/svg"><path d="m749.173 1395.91c0-1.96 1.658-3.04 4.113-3.04 2.476 0 4.113 1.08 4.113 3.04 0 1.98-1.637 3.04-4.113 3.04-2.455 0-4.113-1.06-4.113-3.04zm5.813 8.82v-3.07c3.358-.55 5.771-2.69 5.771-5.75 0-3.53-3.232-5.84-7.471-5.84s-7.47 2.31-7.47 5.84c0 3.06 2.392 5.2 5.77 5.75v3.07h-7.218v2.84h17.858v-2.84zm19.482-5.45h-3.5v-5.69h3.5zm-6.883 0h-2.35v2.8h15v-2.8h-2.392v-5.69h2.476v-2.79h-15.21v2.79h2.476zm-3.735 5.45v2.86h17.816v-2.86zm35.871-15.59h-3.4v11.77h3.4zm-4.617 7.25a41.384 41.384 0 0 1 -7.365.84v-6.83h-3.379v9.74h1.763a44.477 44.477 0 0 0 9.338-.9zm-2.119 10.69c-2.287 0-3.421-.42-3.421-1.47 0-1.08 1.134-1.5 3.421-1.5 2.308 0 3.441.42 3.441 1.5 0 1.05-1.133 1.47-3.441 1.47zm0-5.77c-4.134 0-6.8 1.61-6.8 4.3 0 2.66 2.665 4.27 6.8 4.27 4.155 0 6.82-1.61 6.82-4.27 0-2.69-2.665-4.3-6.82-4.3zm26.556-5.49h-7.177v-2.93h7.177zm3.336-5.71h-13.849v8.49h13.849zm2.036 10.38h-17.813v2.8h7.135v6.57h3.4v-6.57h7.282v-2.8zm14.7-11.35v20.79h3.4v-20.79zm-12.172 1.59v14.44h9.905v-14.44h-3.357v4.8h-3.189v-4.8h-3.358zm3.358 7.54h3.19v4.1h-3.189v-4.1z" fill="#fff" fill-rule="evenodd" transform="translate(-744.375 -1389.16)"/></svg>