<svg id="txt_lead_02_sp.svg" xmlns="http://www.w3.org/2000/svg" width="643.843" height="262.78" viewBox="0 0 643.843 262.78">
  <defs>
    <style>
      .cls-1 {
        fill: #fff;
        fill-rule: evenodd;
      }
    </style>
  </defs>
  <path id="올림픽_스타디움을_포함하여" data-name="올림픽 스타디움을 포함하여" class="cls-1" d="M56.4,3238.96c0,2.81,3.029,5.1,8.736,5.58v1.77H53.369v3.96H81.727v-3.96H69.749v-1.73c5.848-.48,8.948-2.78,8.948-5.62,0-3.18-3.91-5.69-11.167-5.69C60.309,3233.27,56.4,3235.78,56.4,3238.96Zm22.686,26.65v-3.96H61.436v-1.37h16.8v-8.57H56.927v3.81H73.554v1.4H56.821v8.69H79.085ZM61.3,3239c0-1.19,2.219-2.19,6.235-2.19s6.27,1,6.27,2.19c0,1.25-2.254,2.21-6.27,2.21S61.3,3240.25,61.3,3239Zm48.48,26.27v-11.34H88.146v11.34h21.629Zm-7.257-14.85-0.352-3.66a51.629,51.629,0,0,1-9.758.81c-0.916,0-1.761-.04-2.5-0.07v-2.67H99.7v-9.9H85.257v3.81H94.98v2.51H85.222v10.05c1.867,0.04,3.8.11,5.636,0.11A74.709,74.709,0,0,0,102.518,3250.42Zm7.257,1.92v-19.59H105.09v19.59h4.685Zm-4.65,9.2H92.866v-3.92h12.259v3.92Zm27.732-14.19c-1.128.18-2.5,0.29-4.087,0.44l0.74-6.87c-1.479-.11-2.959-0.34-4.438-0.41-0.177,2.4-.282,5.1-0.423,7.54l-2.889.07c-0.105-2.51-.211-5.1-0.282-7.61l-4.473.41c0.211,2.36.458,4.88,0.739,7.28-1.373,0-2.747,0-3.91-.08l0.564,4.18a146.991,146.991,0,0,0,18.846-1.26Zm-14.655,6.98v3.88h16.7v7.51h4.72v-11.39H118.2Zm21.418-1.25v-20.22H134.9v20.22h4.72Zm-7.891-13.75v-3.85H114.961v3.85h16.768Zm50.221,22.14v-3.88H153.592v3.88H181.95Zm-0.775-13.72c-5.214-.7-10.921-4.73-10.921-10.75v-1.96h-5V3237c0,6.02-5.777,10.09-10.92,10.75,0.669,1.34,1.409,2.63,2.113,3.96,4.016-.85,9.547-3.99,11.273-8.8,1.761,4.81,7.5,7.99,11.378,8.8Zm8.712,6.1v-5.54h9.37v-3.92h-9.37v-4.91h9.828v-3.81H185.272v22.14c1.48,0,3,.07,4.474.07a68.561,68.561,0,0,0,12.858-1.11c-0.106-1.25-.317-2.47-0.423-3.73a66.63,66.63,0,0,1-10.709.85C190.873,3253.89,190.345,3253.89,189.887,3253.85Zm18.882-21.1h-4.615v32.93h4.615v-16.71h4.156v-4.02h-4.156v-12.2Zm31.521,32.93v-32.93h-4.65v32.93h4.65Zm-19.233-11.83v-14.3h9.616v-3.84h-14.3v22.25c1.691,0,3.347.07,5.073,0.07a63.722,63.722,0,0,0,12.647-1.07c-0.177-1.37-.353-2.66-0.494-3.99a49.144,49.144,0,0,1-10.6.92C222.325,3253.89,221.691,3253.89,221.057,3253.85Zm48.18,11.46v-11.09h-8.384v-2.73h11.872v-3.85H244.367v3.85h11.872v2.73h-8.314v11.09h21.312Zm-21.84-25.28c0,3.7,4.192,6.39,11.131,6.39s11.2-2.69,11.2-6.39-4.263-6.43-11.2-6.43S247.4,3236.33,247.4,3240.03Zm4.9,0.04c0-1.56,2.36-2.74,6.235-2.74s6.306,1.18,6.306,2.74c0,1.59-2.395,2.73-6.306,2.73C254.653,3242.8,252.293,3241.66,252.293,3240.07Zm12.33,21.47H252.54v-3.66h12.083v3.66Zm39.218-11.57v-3.88H275.484v3.88h28.357Zm-2.712,15.53v-4H283.621v-1.4h16.733v-8.61H278.971v3.84h16.7v1.37H279.006v8.8h22.123Zm-17.719-26.32c0-1.15,2.008-2.11,6.235-2.11,4.157,0,6.27.96,6.27,2.11,0,1.18-2.113,2.07-6.27,2.07C285.418,3241.25,283.41,3240.36,283.41,3239.18Zm-4.9-.04c0,3.37,3.734,5.66,11.132,5.66s11.167-2.29,11.167-5.66-3.769-5.69-11.167-5.69S278.513,3235.78,278.513,3239.14Zm65.368,22.44v-3.81H332.009v-5.91h9.159v-3.85H336.8l1.2-7.02-4.615-.52-0.7,7.54h-5.918l-0.634-7.57-4.615.48,0.986,7.09H318.06v3.85H327.4v5.91H315.523v3.81h28.358Zm-2.642-22.4v-3.88H318.024v3.88h23.215Zm33.03,7.06v-3.99h-4.192v-9.5h-4.615v20.84h4.615v-7.35h4.192Zm-4.192,19.15v-10.5H349.222v10.5h20.855Zm-4.65-3.77H353.943v-3h11.484v3Zm-1.9-19.78v-3.73H345.206v3.73h18.318Zm-13.6-4.95h9.441v-3.73h-9.441v3.73Zm12.083,11.16c0-3.03-3.065-5.54-7.539-5.54-4.579,0-7.644,2.51-7.644,5.54,0,3.18,3.1,5.66,7.644,5.66C358.945,3253.71,362.01,3251.23,362.01,3248.05Zm-10.5,0c0-1.22,1.2-2.18,2.959-2.18,1.726,0,2.924.96,2.924,2.18,0,1.26-1.2,2.22-2.924,2.22C352.71,3250.27,351.512,3249.31,351.512,3248.05Zm43.414-3.62v-3.85H376.679v3.85h18.247Zm-13.738-5.77h9.687v-3.92h-9.687v3.92Zm20.4-5.91h-4.65v32.93h4.65v-15.56h4.263v-3.99h-4.263v-13.38Zm-23.25,19.85c0,4.25,3.312,7.09,7.645,7.09,4.3,0,7.714-2.81,7.714-7.09,0-4.25-3.417-7.06-7.714-7.06C381.646,3245.54,378.334,3248.31,378.334,3252.6Zm4.122,0a3.54,3.54,0,1,1,7.08,0,3.481,3.481,0,0,1-3.557,3.58A3.414,3.414,0,0,1,382.456,3252.6Zm42.745,1.25h4.473v11.83h4.686v-32.93h-4.686v5.95h-4.4l0.141,4.47h4.262v6.29h-4.3Zm-16.768-7.09c0,6.8,3.135,11.79,8.278,11.79,5.214,0,8.278-5.03,8.278-11.79,0-6.91-3.064-11.9-8.278-11.9C411.568,3234.86,408.433,3239.85,408.433,3246.76Zm12.188,0c0,4.95-1.656,7.54-3.91,7.54-2.149,0-3.769-2.59-3.769-7.54,0-5.03,1.62-7.58,3.769-7.58C418.965,3239.18,420.621,3241.73,420.621,3246.76Z" transform="translate(-52.813 -3232.75)"/>
  <path id="실제_경기장을" data-name="실제 경기장을" class="cls-1" d="M113.069,3328.7v-39.18H102.157v39.18h10.912Zm1.792,36.44v-8.89H75.04v-3.77h38.029v-20.87H64.046v9.07H102.32v3.67H64.128v20.79h50.733Zm-17.753-46.96c-9.121-3.25-16.124-10.01-16.124-22.33v-3.34H69.91v4.03c0,11.12-6.27,20.01-17.1,23.95l5.375,8.89c6.922-2.31,15.309-9.66,17.427-16.76,2.606,6.41,10.016,12.57,15.717,14.63Zm58.958,21.38c-10.668-7.01-13.355-16.25-13.355-30.36v-3.25h10.5v-8.82h-32.41v8.82h11.482v3.25c0,13.85-2.932,24.21-14.5,32.5l5.863,7.79c5.537-3.34,12.54-12.83,13.925-19.42,1.791,6.76,7.98,14.63,12.7,17.71Zm10.749,22.67v-71.25h-9.853v23.95h-8.225v9.84h8.225v37.46h9.853Zm14.9,3.51v-76.22h-9.935v76.22h9.935Zm87.372-15.82c0-9.67-9.2-16-25-16-15.472,0-24.674,6.33-24.674,16,0,9.58,9.2,15.82,24.674,15.82C259.888,3365.74,269.09,3359.5,269.09,3349.92Zm-0.407-17.46v-42.94H257.69v12.06H246.615v8.64H257.69v6.68H246.045v8.72H257.69v6.84h10.993Zm-10.749,17.46c0,4.27-4.886,6.92-13.844,6.92-8.469,0-13.436-2.65-13.436-6.92s4.967-7.02,13.436-7.02C253.048,3342.9,257.934,3345.64,257.934,3349.92Zm-11.889-55.61H211.517v9.24h22.476c-1.385,9.67-12.948,19.42-26.14,22.24l4.153,8.9C232.445,3328.87,245.475,3315.27,246.045,3294.31Zm88.6,71.43v-76.22h-10.83v76.22h10.83Zm-21.905-68.35H278.292v9.24h23.046c-1.466,14.63-11.645,29.26-27.524,37.04l6.107,8.9C303.455,3338.97,312.087,3319.63,312.739,3297.39Zm86.116,52.53c0-9.59-9.691-15.66-25.733-15.66-15.961,0-25.57,6.07-25.57,15.66,0,9.41,9.609,15.31,25.57,15.31C389.164,3365.23,398.855,3359.33,398.855,3349.92Zm-56.434-46.54h13.844c-0.733,10.69-6.84,18.05-17.02,21.64L344.7,3334c7-2.31,15.472-9.66,17.345-16.42,2.687,6.33,10.423,13,15.961,14.88l5.781-8.89c-8.469-3-15.309-9.58-16.449-20.19H380.7v-9.15H342.421v9.15Zm65.8,13.86v-9.16h-10.1v-18.56H387.454v43.8h10.668v-16.08h10.1Zm-35.1,26.17c9.527,0,14.739,2.66,14.739,6.51s-5.212,6.41-14.739,6.41c-9.2,0-14.658-2.57-14.658-6.41C358.464,3345.89,363.92,3343.41,373.122,3343.41Zm101.768-14.03v-8.98H409.336v8.98H474.89Zm-6.271,35.93v-9.24H428.147v-3.25h38.681v-19.93H417.4v8.9H456v3.16H417.479v20.36h51.14Zm-40.961-60.9c0-2.66,4.642-4.88,14.414-4.88,9.609,0,14.5,2.22,14.5,4.88,0,2.73-4.886,4.79-14.5,4.79C432.3,3309.2,427.658,3307.14,427.658,3304.41Zm-11.319-.09c0,7.78,8.632,13.09,25.733,13.09s25.814-5.31,25.814-13.09-8.713-13.17-25.814-13.17S416.339,3296.54,416.339,3304.32Z" transform="translate(-52.813 -3232.75)"/>
  <path id="충실하게_재현_" data-name="충실하게 재현!" class="cls-1" d="M138.776,3476.27c0-10.13-11.538-17.17-30.376-18.66v-4.32h39.677v-12.72H53.3v12.72H92.977v4.32c-18.955,1.36-30.375,8.53-30.375,18.66,0,11.61,14.481,19.27,38.145,19.27C124.059,3495.54,138.776,3487.88,138.776,3476.27Zm3.532-50.9c-15.895-.37-25.666-4.45-29.9-9.76h24.724v-12.35H64.132v12.35h24.96c-4.121,5.31-13.893,9.14-30.022,9.51l5.3,12.48c15.894-.25,30.964-5.93,36.262-14.33,5.769,8.4,21.31,14.08,36.262,14.33Zm-19.78,51.27c0,3.71-8.948,6.67-22.016,6.67-12.951,0-21.663-2.96-21.663-6.67,0-4.2,8.712-6.92,21.663-6.92C113.58,3469.72,122.528,3472.44,122.528,3476.64ZM83.087,3399.3h35.438v-12.23H83.087v12.23Zm156.482,42.01v-56.59H223.792v56.59h15.777Zm2.59,52.62v-12.84H184.587v-5.44h54.982v-30.14H168.693v13.09h55.335v5.31H168.811v30.02h73.348Zm-25.666-67.82c-13.186-4.69-23.311-14.45-23.311-32.24v-4.82H177.17v5.81c0,16.06-9.066,28.9-24.724,34.59l7.77,12.84c10.007-3.33,22.134-13.96,25.195-24.21,3.768,9.27,14.481,18.16,22.723,21.13Zm94.565-2.35v-12.84H250.072v12.84h60.986Zm-45.916-19.27h32.377V3391.4H265.142v13.09Zm68.168-19.77H317.769V3494.8H333.31v-52.01h14.246v-13.34H333.31v-44.73Zm-77.7,66.35c0,14.2,11.067,23.72,25.548,23.72,14.364,0,25.784-9.39,25.784-23.72,0-14.21-11.42-23.6-25.784-23.6C266.673,3427.47,255.606,3436.74,255.606,3451.07Zm13.775,0c0-7.17,5.18-11.99,11.773-11.99a11.985,11.985,0,0,1,0,23.97C274.561,3463.05,269.381,3458.35,269.381,3451.07Zm123.811-53.5H351.749v12.85h26.137c-2.119,20.14-11.773,37.31-32.377,49.66l9.3,12.23c14.011-8.89,24.136-20.26,30.611-33.97H401.08v51.52h14.6V3386.7h-14.6v38.18H390.131A100.886,100.886,0,0,0,393.192,3397.57Zm44.5,97.23V3384.72H423.1V3494.8h14.6Zm129.4,0V3384.72H552.5v42.63h-7.064v-40.9H530.951v103.41h14.482v-49.67H552.5v54.61h14.6Zm-36.851-37.93c-15.659-10.25-19.191-23.35-19.191-43.98v-4.57h15.188v-12.85H479.266v12.85h16.718v4.7c0,20.01-4.709,36.56-21.31,47.19l8.242,11.36c8.123-4.94,18.366-18.9,20.368-28.29,2.59,9.64,12.009,21.25,18.837,25.82Zm91.186-55.84v-12.35h-29.2v12.35h29.2Zm11.538,17.05v-12.6h-55.1v12.6h55.1Zm32.73,74.87V3480.1H607.892v-16.31H592.116v29.16H665.7Zm-2.354-25.58v-82.65H647.686v28.05H635.442v13.09h12.244v10.01H634.735v13.1h12.951v18.4h15.659Zm-32.966-27.3c0-11.49-10.007-20.26-24.489-20.26s-24.371,8.77-24.371,20.26,10.008,20.26,24.371,20.26C620.372,3460.33,630.379,3451.56,630.379,3440.07Zm-14.481-.12c0,4.57-4.121,8.52-10.008,8.52s-9.772-3.95-9.772-8.52c0-4.33,3.886-8.53,9.772-8.53S615.9,3435.62,615.9,3439.95Zm65.685,14.95h13.186l1.884-62.89H679.111Zm-1.295,26.8h15.776v-15.69H680.288v15.69Z" transform="translate(-52.813 -3232.75)"/>
</svg>
