<svg id="txt_lead_01.svg" xmlns="http://www.w3.org/2000/svg" width="449.156" height="254.65" viewBox="0 0 449.156 254.65">
  <defs>
    <style>
      .cls-1 {
        fill: #fff;
        fill-rule: evenodd;
      }
    </style>
  </defs>
  <path id="올림픽_경기를" data-name="올림픽 경기를" class="cls-1" d="M92.808,1387.89c0,2.93,3.161,5.32,9.115,5.82v1.85H89.647v4.13h29.588v-4.13h-12.5v-1.81c6.1-.5,9.336-2.89,9.336-5.86,0-3.32-4.08-5.94-11.652-5.94C96.888,1381.95,92.808,1384.57,92.808,1387.89Zm23.67,27.8v-4.12H98.064v-1.43H115.6v-8.95H93.359v3.97h17.349v1.47H93.249v9.06h23.229Zm-18.561-27.76c0-1.24,2.315-2.28,6.505-2.28s6.543,1.04,6.543,2.28c0,1.31-2.352,2.31-6.543,2.31S97.917,1389.24,97.917,1387.93Zm52.054,27.41v-11.83H127.4v11.83h22.568Zm-7.572-15.5-0.367-3.82a53.356,53.356,0,0,1-10.182.85c-0.956,0-1.838-.04-2.61-0.07v-2.78h10.219v-10.34h-15.07v3.98h10.144v2.62H124.352v10.49c1.948,0.04,3.97.11,5.881,0.11A77.42,77.42,0,0,0,142.4,1399.84Zm7.572,2.01v-20.44h-4.889v20.44h4.889Zm-4.852,9.6H132.328v-4.09h12.791v4.09Zm30.405-14.81c-1.176.19-2.61,0.31-4.264,0.46l0.772-7.17c-1.543-.12-3.087-0.35-4.631-0.42-0.184,2.5-.294,5.32-0.441,7.86l-3.014.08c-0.11-2.62-.221-5.32-0.294-7.94l-4.668.42c0.22,2.47.478,5.09,0.772,7.6-1.434,0-2.867,0-4.08-.08l0.588,4.36a155.123,155.123,0,0,0,19.664-1.31Zm-15.29,7.29v4.05h17.422v7.83h4.925v-11.88H160.234Zm22.347-1.31v-21.1h-4.925v21.1h4.925Zm-8.233-14.35v-4.01h-17.5v4.01h17.5Zm53.171,20.36c0-4.35-4.154-7.21-11.284-7.21-6.984,0-11.137,2.86-11.137,7.21,0,4.32,4.153,7.14,11.137,7.14C223.365,1415.77,227.519,1412.95,227.519,1408.63Zm-0.184-7.86v-19.36h-4.962v5.44h-5v3.89h5v3.01h-5.256v3.93h5.256v3.09h4.962Zm-4.852,7.86c0,1.93-2.205,3.13-6.248,3.13-3.823,0-6.065-1.2-6.065-3.13s2.242-3.16,6.065-3.16C220.278,1405.47,222.483,1406.71,222.483,1408.63Zm-5.366-25.06H201.532v4.16h10.145c-0.625,4.36-5.844,8.76-11.8,10.03l1.875,4.01C210.979,1399.15,216.86,1393.02,217.117,1383.57Zm43.012,32.2v-34.36h-4.888v34.36h4.888Zm-9.887-30.81H234.694v4.16h10.4c-0.662,6.6-5.256,13.19-12.424,16.7l2.757,4.01C246.052,1403.7,249.948,1394.98,250.242,1384.96Zm45,15.85v-3.78H265.65v3.78h29.589Zm-3.088,14.73v-3.55H274.068v-1.47h17.385v-8.33H269.142v3.55H286.6v1.47H269.216v8.33h22.935Zm-0.22-20.02v-3.51h-17.5v-1.42h16.834v-7.95H269.51v3.55h16.834v1.31H269.51v8.02h22.421Z" transform="translate(-87.25 -1381.41)"/>
  <path id="_15종목_이상_수록_" data-name="15종목 이상 수록!" class="cls-1" d="M97.214,1477.99h9.151v-46.55h-4.672l-11.647,5.37v5.58l7.168-1.41v37.01Zm24.86,0.41c10.175,0,16.255-6.66,16.255-15.39,0-9.88-5.376-14.71-14.271-14.71a17.5,17.5,0,0,0-5.12.8l0.64-10.27h16.575v-7.19H112.858l-1.664,26.06c2.048-1.07,6.208-2.55,8.832-2.55,5.824,0,8.96,2.28,8.96,7.73,0,5.17-3.52,7.86-9.344,7.86a18.417,18.417,0,0,1-8.7-2.56l-1.536,7.12A25.958,25.958,0,0,0,122.074,1478.4Zm62.056-4.04c0-6.78-7.488-11.01-20.16-11.01-12.543,0-20.031,4.23-20.031,11.01,0,6.52,7.488,10.95,20.159,10.95C176.642,1485.31,184.13,1480.88,184.13,1474.36Zm3.647-30.09c-7.295-.07-15.807-4.24-18.3-9.34h15.552v-6.99h-41.6v6.99h15.167c-2.112,5.04-9.471,9.14-18.3,9.47l3.328,6.85c8.256-.47,17.407-4.36,20.415-10.75,3.584,6.19,12.864,10.28,20.416,10.75Zm2.048,16.93v-6.92H168.258v-6.65H159.81v6.65h-21.5v6.92h51.518Zm-14.463,13.3c0,2.22-4.48,4.1-11.392,4.1-6.72,0-11.2-1.88-11.2-4.1,0-2.49,4.48-4.3,11.2-4.3C170.882,1470.2,175.362,1472.01,175.362,1474.5Zm59.032-25.8v-21.23H196.571v21.23h14.72v5.11H189.723v7.12h51.519v-7.12H219.674v-5.11h14.72Zm-38.527,16.46v6.99h30.271v13.57h8.448v-20.56H195.867Zm29.887-23.31H205.083v-7.66h20.671v7.66Zm77.86,43.93v-59.85h-8.447v59.85h8.447Zm-45.822-34.39c0,12.36,5.568,21.43,14.911,21.43,9.472,0,15.04-9.14,15.04-21.43,0-12.56-5.568-21.63-15.04-21.63C263.36,1429.76,257.792,1438.83,257.792,1451.39Zm22.015,0c0,9-3.008,13.7-7.1,13.7-3.84,0-6.847-4.7-6.847-13.7,0-9.14,3.007-13.77,6.847-13.77C276.8,1437.62,279.807,1442.25,279.807,1451.39Zm79.16-3.83v-7.26h-7.936v-14.37h-8.448v35h8.448v-13.37h7.936Zm-19.136,4.37c-7.168-2.62-12.735-7.86-12.735-17.47v-4.97h-8.64v5.37c0,8.8-4.928,15.72-13.5,18.81l4.288,6.99c5.44-1.88,11.968-7.53,13.632-13.17,2.048,5.04,8,9.88,12.351,11.36Zm11.776,21.56c0-7.52-7.616-12.23-20.224-12.23-12.543,0-20.095,4.71-20.095,12.23,0,7.39,7.552,12.03,20.095,12.03C343.991,1485.52,351.607,1480.88,351.607,1473.49Zm-20.224-5.1c7.488,0,11.584,2.01,11.584,5.1s-4.1,5.04-11.584,5.04c-7.231,0-11.519-1.95-11.519-5.04S324.152,1468.39,331.383,1468.39Zm71.141,17.46v-20.82h21.759v-7.06H372.765v7.06H394.14v20.82h8.384Zm19.519-39.57c-9.791-1.14-19.071-7.05-19.071-16.32v-2.76H394.14v2.76c0,9.27-9.344,15.45-19.071,16.52l3.328,7.13c8.639-1.28,17.087-6.66,20.159-13.24,2.944,6.58,11.52,11.82,20.223,13.17Zm48.345,6.32v-6.59H439.477v-2.89h29.375v-15.51H431.029v6.58H460.34v2.62H430.965v15.79h14.591v4.36H424.181v7.13H475.7v-7.13H453.94v-4.36h16.448Zm-40.063,14.24v6.92h30.463v12.16h8.384v-19.08H430.325Zm47.4-2.75h7.168l1.024-34.2h-9.536Zm-0.7,14.57h8.576v-8.53h-8.576v8.53Z" transform="translate(-87.25 -1381.41)"/>
  <path id="간단한_조작으로" data-name="간단한 조작으로" class="cls-1" d="M136.07,1516.53v-6.54h-7.083v-14.53h-7.481v38.04h7.481v-16.97h7.083Zm-20.74-17.08H91.076v6.49H107c-1.531,7.38-9.067,13.99-18.248,16.07l3.06,6.31C103.033,1525.52,114.593,1516.18,115.33,1499.45Zm14.847,47.8v-6.43H103.883v-11.31H96.289v17.74h33.888Zm55.546-31.19v-6.43H178.7v-14.17H171.16v38.22H178.7v-17.62h7.026Zm-6.063,30.89v-6.13H153.479v-10.95h-7.536v17.08H179.66Zm-31.621-27.74v-13.27h15.187v-6.25h-22.61v25.77c1.53,0,2.89.06,4.307,0.06a136.176,136.176,0,0,0,23.12-1.78l-0.623-6.02C162.546,1518.8,154.726,1519.21,148.039,1519.21Zm70.8-8.27v-6.01H189.368v6.01h29.468Zm-2.437,10.89c0-5.59-4.93-10-12.184-10-7.31,0-12.183,4.41-12.183,10,0,5.66,4.93,10,12.183,10S216.4,1527.49,216.4,1521.83Zm-19.72-19.11h15.186v-5.77H196.679v5.77Zm32.753-7.26h-7.423v39.94h7.423v-15.65h6.8v-6.43h-6.8v-17.86Zm1.02,52.15v-6.25h-27.03v-7.86h-7.707v14.11h34.737Zm-31-25.78a4.819,4.819,0,0,1,9.577,0c0,2.2-1.927,4.17-4.817,4.17C201.382,1526,199.455,1524.03,199.455,1521.83Zm100.866-2.14c-7.706-.95-16.037-5.66-17.283-13.87h15.187v-6.19H259.634v6.19h15.017c-1.19,8.21-9.52,13.15-17.114,14.11l3.4,6.25c6.29-1.31,15.131-5.66,17.907-12.8,2.834,7.26,11.957,11.25,18.134,12.56C298.111,1523.86,299.245,1521.77,300.321,1519.69Zm1.417,22.2v-6.13H282.471v-11.43h-7.423v11.43H256.121v6.13h45.617Zm5-37.26h9.69c-0.34,7.56-4.59,12.98-11.786,15.54l3.966,6.31c4.874-1.61,10.484-7.03,11.787-11.79,1.87,4.46,7.254,9.11,11.107,10.42l4.023-6.14c-5.893-2.14-10.766-6.78-11.333-14.34h9.18v-6.37H306.737v6.37Zm5.724,24.17v6.25h25.9v13.51h7.48V1528.8H312.461Zm40.29-14.53v-6.49h-7.026v-12.32H338.3v31.07h7.424v-12.26h7.026Zm47.4,27.5v-6.31H354.537v6.31h45.618Zm-4.024-28.51c0-8.45-7.423-14.41-18.813-14.41-11.334,0-18.757,5.96-18.757,14.41,0,8.39,7.423,14.41,18.757,14.41C388.708,1527.67,396.131,1521.65,396.131,1513.26Zm-7.593.06c0,4.88-4.534,8.15-11.22,8.15-6.8,0-11.164-3.27-11.164-8.15,0-5.06,4.363-8.28,11.164-8.28C384.174,1505.04,388.538,1508.26,388.538,1513.32Zm57.19,14.7v-6.25H417.677v-5.53h26.747V1498.5H410.141v6.31h26.8v5.12H410.2v18.09h13.374v7.74h-19.1v6.19h45.617v-6.19h-19.1v-7.74h14.734Z" transform="translate(-87.25 -1381.41)"/>
  <path id="통쾌한_플레이_" data-name="통쾌한 플레이!" class="cls-1" d="M148.406,1592.28v-8.94h-41.2V1580h38.876v-8.94H107.207v-3.25h40.6v-9.39H95.939v33.86H115.98v4.24H87.252v9.66h69.239v-9.66H127.247v-4.24h21.159Zm0.946,29.7c0-8.03-7.913-14.08-27.524-14.08-19.438,0-27.351,5.86-27.351,14.08,0,8.04,7.913,14.08,27.437,14.08S149.352,1629.93,149.352,1621.98Zm-11.956,0c0,2.98-6.02,4.88-15.568,4.88-9.2,0-15.395-1.9-15.395-4.88,0-3.07,6.192-5.06,15.395-5.06C131.376,1616.92,137.4,1618.91,137.4,1621.98Zm85.634,13.63v-80.44H212.365v31.42h-4.3v-30.06h-10.58v75.38h10.58v-35.66h4.3v39.36H223.03Zm-29.157-72.77h-33.8v9.39h23.137c0.086,1.09.086,2.44,0.086,4.07v1.17c-8.257.36-16.514,0.63-24.771,1.08l1.462,9.66c7.569-.72,15.31-1.53,22.965-2.16-0.345,4.78-.689,9.48-1.2,12.73,3.355,0.36,6.881.54,10.15,0.81,1.29-7.67,1.978-21.04,1.978-28.08v-8.67Zm1.118,52.55c-0.258-2.89-.6-5.78-0.774-8.76-3.613.63-11.095,1.18-16.514,1.45V1592.1H167.554v16.43H156.286c0.344,3.25.688,6.41,1.118,9.57C170.65,1618.1,179.509,1617.83,194.991,1615.39Zm75.038-36.75v-9.11H225.3v9.11h44.726Zm-3.7,16.53c0-8.49-7.483-15.17-18.492-15.17-11.095,0-18.492,6.68-18.492,15.17,0,8.57,7.483,15.16,18.492,15.16S266.33,1603.74,266.33,1595.17ZM236.4,1566.19h23.05v-8.76H236.4v8.76Zm49.714-11.02H274.845v60.58h11.268v-23.74h10.321v-9.75H286.113v-27.09Zm1.548,79.09v-9.48H246.634v-11.92h-11.7v21.4h52.725Zm-47.048-39.09c0-3.16,2.924-6.5,7.225-6.5,4.387,0,7.311,3.34,7.311,6.5,0,3.34-2.924,6.32-7.311,6.32C243.537,1601.49,240.613,1598.51,240.613,1595.17Zm145.567,3.61v-9.39H316.942v9.39H386.18Zm-6.967,36.38v-9.57H336.466v-3.16h41.113v-20.49H325.285v9.3h40.941v2.98H325.113v20.94h54.1Zm-0.344-48.93v-8.85H368.032l1.548-7.22-10.751-1-1.2,8.22h-12.3l-0.6-8.4-10.665,1.09,0.774,7.31H324.253v8.85h54.616Zm0.688-19.59v-9.3H323.565v9.3h55.992Zm40.126,48.39c-0.344-3.07-.6-6.14-0.86-9.3-4.558,1.17-12.9,1.72-17.8,1.72h-1.806v-13.73h15.912v-30.88H388.29v9.85h15.568v11.01H387.946v33.5c2.752,0,5.5.09,8.429,0.09C404.46,1617.29,414.351,1616.38,419.683,1615.03Zm31.394,20.58v-80.44H440.24v80.44h10.837Zm-15.138-3.7v-75.29H425.36v27.26h-7.225v9.75h7.225v38.28h10.579Zm80.534,3.7v-80.44H505.12v80.44h11.353Zm-61.583-46.22c0,16.61,7.483,28.8,20.04,28.8,12.73,0,20.213-12.28,20.213-28.8,0-16.88-7.483-29.07-20.213-29.07C462.373,1560.32,454.89,1572.51,454.89,1589.39Zm29.587,0c0,12.1-4.042,18.42-9.547,18.42-5.16,0-9.2-6.32-9.2-18.42,0-12.28,4.043-18.51,9.2-18.51C480.435,1570.88,484.477,1577.11,484.477,1589.39Zm40.909,23.03h9.634l1.376-54.7H523.58Zm-0.946,23.32h11.526v-13.65H524.44v13.65Z" transform="translate(-87.25 -1381.41)"/>
</svg>
