<svg id="txt_lead_03_sp.svg" xmlns="http://www.w3.org/2000/svg" width="480.218" height="310.94" viewBox="0 0 480.218 310.94">
  <defs>
    <style>
      .cls-1 {
        fill: #fff;
        fill-rule: evenodd;
      }
    </style>
  </defs>
  <path id="취향에_맞는_のコピー" data-name="취향에 맞는 のコピー" class="cls-1" d="M130.591,6307.71H119.949v75.3h10.642v-75.3Zm-55.71,22.73H88.587c-1.451,5.41-7.659,8.37-15.721,9.38l3.951,8.54c7.256-.68,15.479-4.82,17.818-10.57,2.58,5.41,11.045,8.79,17.414,9.38l4.112-8.45c-6.934-.59-14.27-2.87-16.044-8.28h13.706v-8.79H74.881v8.79Zm24.106,50.62v-21.72c6.611-.42,12.658-1.01,18.382-1.77l-0.484-8.62c-5,.67-15.318,1.18-22.977,1.43-5.885.17-15.238,0.26-23.7,0.17l1.371,9.64c4.192,0,10.239-.09,16.689-0.34v21.21H98.987Zm-14.673-62.37h21.365v-8.62H84.314v8.62Zm111.64,51.55c0-7.85-9.352-12.33-24.671-12.33s-24.831,4.48-24.831,12.33c0,8.12,9.513,12.6,24.831,12.6S195.954,6378.44,195.954,6370.24Zm-18.382-26.87c0-7.1-7.175-12.93-17.334-12.93-10.4,0-17.414,5.83-17.414,12.93,0,7.27,7.094,13.1,17.414,13.1C170.4,6356.47,177.572,6350.64,177.572,6343.37Zm26.767-5.58h-8.546v-6.59h8.546v-9.04h-8.546v-14.45H185.151v50.03h10.642v-10.99h8.546v-8.96Zm-23.381-8.53v-8.54H139.115v8.54h41.843Zm-9.675,37.1c9.03,0,14.029,1.69,14.029,3.97,0,2.45-5,4.14-14.029,4.14-8.949,0-13.947-1.61-13.947-4.14C157.336,6367.96,162.334,6366.36,171.283,6366.36Zm-21.768-48.68h21.527v-8.45H149.515v8.45Zm4.032,25.69c0-2.7,2.741-5.07,6.691-5.07,3.87,0,6.772,2.37,6.772,5.07,0,2.87-2.9,5.16-6.772,5.16C156.288,6348.53,153.547,6346.24,153.547,6343.37Zm103.141,36.17v-70.4h-9.836V6335h-4.595c-1.048-11.32-5.483-21.88-15.48-21.88-11.529,0-15.8,14.19-15.8,27.21,0,13.35,4.273,27.8,15.8,27.8,10.32,0,14.754-11.49,15.641-23.32h4.434v34.73h9.836Zm14.835,3.47v-75.3h-10v75.3h10Zm-38.86-42.51c0,8.96-1.371,16.9-5.805,16.9-4.354,0-5.724-7.94-5.724-16.9,0-8.88,1.37-16.99,5.724-16.99C231.292,6323.51,232.663,6331.62,232.663,6340.5Zm105.1,5.15v-33.38H303.741v33.38h34.023Zm-27.17,7.44v8.79h18.3c-1.532,7.77-11.529,12.51-21.365,12.84l4.031,8.71c9.675-.76,18.947-5.41,22.817-12.42,4.272,7.09,13.705,12,23.3,12.5,1.452-2.79,2.9-5.74,4.273-8.7-10.481-.42-20.639-5.24-22.01-12.93h18.866v-8.79H310.594Zm57.726-18.76v-9.13H358.242v-17.49H347.6v41.32h10.642v-14.7H368.32Zm-41.118,2.53h-12.98v-15.89H327.2v15.89ZM434.811,6353v-8.95h-64.9V6353h64.9Zm-7.82-15.38v-8.7H389.259v-18.76h-10.8v27.46h48.535Zm0.322,43.36v-8.71h-38.7v-13.6H377.892v22.31h49.421Z" transform="translate(-69.563 -6307.72)"/>
  <path id="아바타를_만들어_누구든지_のコピー" data-name="아바타를 만들어 누구든지 のコピー" class="cls-1" d="M103.725,6395.37H97.437v44.5h6.288v-22.33h5.907v-5.39h-5.907v-16.78ZM70.52,6414.3c0,9.19,4.24,15.93,11.2,15.93,7,0,11.2-6.79,11.2-15.93,0-9.34-4.192-16.08-11.2-16.08C74.76,6398.22,70.52,6404.96,70.52,6414.3Zm16.436,0c0,6.69-2.191,10.18-5.24,10.18-2.906,0-5.1-3.49-5.1-10.18,0-6.79,2.192-10.24,5.1-10.24C84.764,6404.06,86.956,6407.51,86.956,6414.3Zm58.555-18.93H139.27v44.5h6.241v-22.63h5.669v-5.39h-5.669v-16.48Zm-11.481,33.56v-30.01h-6.384v10.48h-7.718v-10.48h-6.241v30.01H134.03Zm-6.384-5.19h-7.718v-9.29h7.718v9.29Zm33.959,0.15v-7.5h12.672v-5.29H161.6v-6.64H174.9v-5.14H155.364v29.91c2,0,4.049.1,6.05,0.1a92.781,92.781,0,0,0,17.389-1.5c-0.143-1.7-.429-3.35-0.572-5.04a90.481,90.481,0,0,1-14.483,1.15C162.939,6423.94,162.224,6423.94,161.6,6423.89Zm25.535-28.52H180.9v44.5h6.241v-22.58h5.621v-5.44H187.14v-16.48Zm47.421,25.12v-4.89h-38.35v4.89h38.35Zm-4,19.08v-4.6H207.121v-1.9h22.533v-10.78H200.737v4.59h22.629v1.9H200.832v10.79H230.56Zm-0.286-25.92v-4.55H207.6v-1.84h21.819v-10.29h-28.2v4.59h21.82v1.7h-21.82v10.39h29.061Zm53.434-18.28h-6.289v32.26h6.289v-14.28h5.907v-5.44h-5.907v-12.54Zm0.857,43.25v-5.2H262.127v-8.94h-6.241v14.14h28.679Zm-13-18.73v-20.87h-20.1v20.87h20.1Zm-6.241-5.19h-7.67v-10.49h7.67v10.49Zm61.237-4.2v-5.24H304.213v-4.05H326.27v-5.29H297.924v14.58h28.632Zm4.716,7.64v-5.29h-38.35v5.29h38.35Zm-3.668,21.63v-5.4H303.832v-1.9h22.629v-11.78H297.638v5.19h22.534v2H297.591v11.89H327.6Zm7.661-25.47c0,9.19,4.24,15.93,11,15.93,6.146,0,10.148-5.6,10.815-13.44h6.526v23.08h6.432v-44.5h-6.432v15.83h-6.574c-0.81-7.74-4.716-12.98-10.767-12.98C339.505,6398.22,335.265,6404.96,335.265,6414.3Zm16.055,0c0,6.69-2.239,10.18-5.05,10.18-2.763,0-4.954-3.49-4.954-10.18,0-6.79,2.191-10.24,4.954-10.24C349.081,6404.06,351.32,6407.51,351.32,6414.3Zm59.723,25.62v-15.29h16.2v-5.29H388.89v5.29H404.8v15.29h6.241Zm12.053-24.87v-5.3H400.324v-12.23h-6.289v17.53H423.1Zm41.605-17.48H435.5v5.29h23.058a63.734,63.734,0,0,1-1.143,14.08H430.971v5.2h15.912v17.73h6.241v-17.73h16.2v-5.2h-6.051A96.8,96.8,0,0,0,464.7,6397.57Zm46.7,24.97v-5.2h-38.35v5.2H511.4Zm-4.383,16.23v-5.15H484.01v-7.79h-6.289v12.94h29.3Zm-0.572-24.67v-5.2H484.439v-6.09H506.4v-5.19H478.1v16.48h28.345Zm34.436,10.19c-6.575-3.7-9.957-9.89-10.052-19.33h8.146v-5.49h-22.82v5.49H524.3c-0.048,9.59-3.1,16.13-10.243,20.52l3.716,5.1c3.907-2.2,8.623-7.99,9.862-12.84,1.381,4.4,6.336,9.64,9.718,11.74Zm8.908,15.58v-44.5h-6.431v44.5h6.431Z" transform="translate(-69.563 -6307.72)"/>
  <path id="올림픽에_참가할_수_있다_のコピー" data-name="올림픽에 참가할 수 있다! のコピー" class="cls-1" d="M77.236,6468.62c0,6.38,6.886,11.58,19.858,12.67v4.03H70.35v8.98h64.46v-8.98H107.584v-3.94c13.293-1.1,20.339-6.3,20.339-12.76,0-7.22-8.888-12.93-25.383-12.93C86.125,6455.69,77.236,6461.4,77.236,6468.62Zm51.568,60.52v-8.99H88.687v-3.1h38.2v-19.47H78.437v8.64h37.795v3.19H78.2v19.73H128.8ZM88.367,6468.7c0-2.69,5.045-4.95,14.173-4.95s14.253,2.26,14.253,4.95c0,2.85-5.125,5.04-14.253,5.04S88.367,6471.55,88.367,6468.7Zm110.2,59.68v-25.77H149.4v25.77h49.165Zm-16.5-33.74-0.8-8.31c-5.525,1.26-14.733,1.84-22.18,1.84-2.082,0-4-.08-5.685-0.16v-6.05h22.26v-22.49h-32.83v8.64h22.1v5.71h-22.18v22.83c4.244,0.09,8.648.25,12.812,0.25A169.962,169.962,0,0,0,182.071,6494.64Zm16.5,4.36v-44.48h-10.65V6499h10.65ZM188,6519.9H160.131V6511H188v8.9Zm63.036-32.23c-2.562.42-5.685,0.67-9.288,1.01l1.681-15.61c-3.363-.26-6.726-0.76-10.089-0.93-0.4,5.46-.641,11.59-0.961,17.13l-6.566.16c-0.24-5.7-.481-11.58-0.641-17.29l-10.169.93c0.48,5.37,1.041,11.08,1.681,16.53-3.123,0-6.245,0-8.888-.17l1.281,9.49c14.093,0,33.391-1.34,42.84-2.86Zm-33.311,15.86v8.82h37.955v17.04h10.73v-25.86H217.722Zm48.685-2.85v-45.91h-10.73v45.91h10.73Zm-17.936-31.22v-8.73H210.355v8.73h38.116Zm73.109,56.4v-69.92h-9.769v25.69h-4.564c-1.041-11.25-5.445-21.74-15.374-21.74-11.451,0-15.695,14.1-15.695,27.03,0,13.26,4.244,27.61,15.695,27.61,10.249,0,14.653-11.42,15.534-23.17h4.4v34.5h9.769Zm14.734,3.44v-74.78h-9.929v74.78h9.929Zm-38.6-42.22c0,8.9-1.361,16.79-5.765,16.79-4.324,0-5.685-7.89-5.685-16.79,0-8.81,1.361-16.87,5.685-16.87C296.357,6470.21,297.718,6478.27,297.718,6487.08Zm-171.4,129.22v-25.26H79.4v25.26h46.924Zm-54.531-50.36H85c-1.041,7.13-7.527,12.42-15.454,14.69,1.6,2.77,3.363,5.54,5.045,8.39,6.966-2.01,14.093-8.14,16.335-13.68,2.562,5.46,9.609,11.5,15.694,12.84,1.6-2.85,3.283-5.7,4.8-8.47-6.406-1.52-13.853-6.64-14.974-13.77h13.132v-8.39H71.791v8.39Zm64.3,5.96v-9.07h-9.769v-20.48h-10.49v45.75h10.49v-16.2h9.769Zm-20.339,35.84H89.888v-8.39h25.864v8.39ZM80.519,6553.6h20.739v-7.89H80.519v7.89Zm124.453,26.11v-9.15H194.723v-28.21h-10.57v74.79h10.57v-37.43h10.249Zm-28.746-29.63H142.354v9.14h22.661c-1.441,14.27-11.45,28.63-26.985,36.27l5.926,8.72C167.177,6590.87,175.665,6571.98,176.226,6550.08Zm73.854,11.41v-8.14H208.6v8.14H250.08Zm-30.989-11.25h21.06v-7.55h-21.06v7.55Zm55.411,21.24v-9.15h-9.689v-19.98H254.324V6586h10.489v-14.52H274.5Zm-8.327,45.83v-8.23H228.139v-2.35h36.674v-17.96H217.49v8.06h36.754v2.85H217.49v17.63h48.685ZM246.8,6574.33c0-6.54-7.127-11.75-17.216-11.75-10.33,0-17.3,5.21-17.3,11.75,0,6.47,7.046,11.84,17.3,11.84C239.67,6586.17,246.8,6580.8,246.8,6574.33Zm-23.862,0c0-2.51,2.722-4.19,6.646-4.19s6.726,1.68,6.726,4.19-2.8,4.2-6.726,4.2S222.935,6576.85,222.935,6574.33Zm114.075,42.9V6591.2h27.225v-8.81h-64.46v8.81H326.52v26.03h10.49Zm24.422-49.44c-12.251-1.43-23.862-8.82-23.862-20.4v-3.44H326.52v3.44c0,11.58-11.691,19.31-23.862,20.65l4.164,8.9c10.81-1.6,21.38-8.31,25.223-16.54,3.683,8.23,14.413,14.77,25.3,16.45Zm69.874-3.11c0-10.41-8.327-17.37-19.3-17.37-10.81,0-19.058,6.96-19.058,17.37,0,10.24,8.168,17.46,19.058,17.46S431.306,6574.92,431.306,6564.68Zm18.738,52.55c1.922-2.61,3.683-5.38,5.605-8.06-7.927-2.52-12.572-9.4-12.572-18.64v-3.19H432.588v3.03c0,9.56-4.565,16.61-13.293,20.81l5.766,7.47c6.085-3.1,11.53-8.9,12.892-13.76C439.474,6609.67,445.159,6615.46,450.044,6617.23Zm-10.81-74.96v42.05h10.73v-42.05h-10.73Zm-20.1,67.48c2.4-2.68,4.644-5.28,6.967-7.97-4.164-1.59-8.728-5.04-8.728-12.09v-2.26h-10.33v2.43c0,9.4-5.925,16.29-14.253,19.48,1.842,2.93,3.763,5.7,5.685,8.64,5.926-2.01,12.412-8.23,14.413-14.18A16.2,16.2,0,0,0,419.135,6609.75Zm1.922-45.07c0,5.04-3.924,8.23-9.048,8.23-4.965,0-8.889-3.19-8.889-8.23s3.924-8.39,8.889-8.39C417.053,6556.29,421.057,6559.64,421.057,6564.68Zm50.673,26.36v-32.99h22.341v-8.98H461.24v51.28h6.246c12.812,0,26.344-1.17,32.911-2.51-0.4-3.03-.721-6.05-1.041-9.07-6.727,1.43-17.857,2.27-25.784,2.27H471.73Zm42.76-48.69H504v74.79h10.49v-37.77h9.929v-9.07H514.49v-27.95Zm18.2,47.68h8.968l1.282-42.72H531.011Zm-0.881,18.21h10.73v-10.66h-10.73v10.66Z" transform="translate(-69.563 -6307.72)"/>
</svg>
