<svg id="txt_lead_01_sp.svg" xmlns="http://www.w3.org/2000/svg" width="574.563" height="304.03" viewBox="0 0 574.563 304.03">
  <defs>
    <style>
      .cls-1 {
        fill: #fff;
        fill-rule: evenodd;
      }
    </style>
  </defs>
  <path id="올림픽_경기를_のコピー" data-name="올림픽 경기를 のコピー" class="cls-1" d="M91.172,1450.73c0,3.52,3.793,6.39,10.939,6.99v2.22H87.379v4.95h35.506v-4.95h-15v-2.18c7.322-.6,11.2-3.47,11.2-7.03,0-3.98-4.9-7.13-13.982-7.13C96.068,1443.6,91.172,1446.75,91.172,1450.73Zm28.4,33.37v-4.96H97.48v-1.71h21.039v-10.74H91.834v4.77h20.819v1.76H91.7v10.88h27.875ZM97.3,1450.78c0-1.49,2.779-2.74,7.807-2.74s7.851,1.25,7.851,2.74c0,1.57-2.823,2.77-7.851,2.77S97.3,1452.35,97.3,1450.78Zm62.465,32.9v-14.21H132.686v14.21h27.082Zm-9.086-18.61-0.441-4.58a63.686,63.686,0,0,1-12.218,1.02c-1.146,0-2.2-.04-3.131-0.09v-3.33h12.262v-12.41H129.07v4.77h12.173v3.15H129.026v12.59c2.337,0.04,4.763.13,7.057,0.13A92.2,92.2,0,0,0,150.682,1465.07Zm9.086,2.41v-24.53H153.9v24.53h5.866ZM153.946,1479H138.6v-4.9h15.349v4.9Zm36.486-17.77c-1.411.24-3.131,0.37-5.116,0.56l0.926-8.61c-1.852-.14-3.7-0.41-5.557-0.51-0.221,3.01-.353,6.39-0.53,9.44l-3.617.1c-0.132-3.15-.264-6.39-0.352-9.54l-5.6.51c0.265,2.96.573,6.11,0.926,9.12-1.72,0-3.44,0-4.9-.09l0.706,5.23a185.624,185.624,0,0,0,23.6-1.58Zm-18.348,8.75v4.86H192.99v9.39H198.9v-14.25H172.084Zm26.817-1.57v-25.32H192.99v25.32H198.9Zm-9.88-17.22v-4.81H168.026v4.81h20.995Zm63.805,24.44c0-5.23-4.984-8.66-13.541-8.66-8.38,0-13.364,3.43-13.364,8.66,0,5.18,4.984,8.56,13.364,8.56C247.842,1484.19,252.826,1480.81,252.826,1475.63Zm-0.221-9.44v-23.24h-5.954v6.53h-6v4.67h6v3.61h-6.307v4.72h6.307v3.71h5.954Zm-5.822,9.44c0,2.31-2.646,3.74-7.5,3.74-4.587,0-7.278-1.43-7.278-3.74s2.691-3.8,7.278-3.8C244.137,1471.83,246.783,1473.31,246.783,1475.63Zm-6.439-30.08h-18.7v4.99h12.174c-0.75,5.23-7.013,10.51-14.159,12.04l2.25,4.81C232.978,1464.24,240.035,1456.88,240.344,1445.55Zm51.614,38.64v-41.24h-5.866v41.24h5.866Zm-11.865-36.98H261.436v5h12.482c-0.793,7.91-6.307,15.83-14.908,20.04l3.308,4.81C275.065,1469.7,279.741,1459.24,280.093,1447.21Zm54,19.02v-4.53H298.584v4.53H334.09Zm-3.7,17.68v-4.26h-21.7v-1.76h20.863v-9.99H302.774v4.26h20.951v1.75H302.862v10h27.523Zm-0.265-24.02v-4.21h-21v-1.71h20.2v-9.54H303.215v4.26h20.2v1.58h-20.2v9.62H330.12Z" transform="translate(-86.938 -1442.97)"/>
  <path id="_15종목_이상_수록_のコピー" data-name="15종목 이상 수록! のコピー" class="cls-1" d="M95.632,1556.49h10.955v-55.78H101l-13.942,6.44v6.68l8.58-1.69v44.35Zm34.326,0.48c12.18,0,19.458-7.97,19.458-18.43,0-11.83-6.435-17.63-17.083-17.63a20.7,20.7,0,0,0-6.129.97l0.766-12.32h19.841v-8.61H118.927l-1.992,31.23c2.452-1.29,7.431-3.06,10.572-3.06,6.971,0,10.724,2.74,10.724,9.26,0,6.2-4.213,9.42-11.184,9.42a22.1,22.1,0,0,1-10.418-3.06l-1.839,8.53A31.127,31.127,0,0,0,129.958,1556.97Zm78.837-4.83c0-8.13-8.962-13.2-24.13-13.2-15.015,0-23.977,5.07-23.977,13.2,0,7.81,8.962,13.12,24.13,13.12C199.833,1565.26,208.8,1559.95,208.8,1552.14Zm4.367-36.06c-8.733-.08-18.922-5.07-21.909-11.19h18.615v-8.37H160.075v8.37H178.23c-2.528,6.04-11.337,10.95-21.909,11.35l3.984,8.21c9.882-.56,20.836-5.23,24.436-12.87,4.29,7.4,15.4,12.31,24.437,12.87Zm2.451,20.29v-8.29H189.8v-7.97H179.686v7.97h-25.74v8.29h61.667ZM198.3,1552.3c0,2.66-5.362,4.91-13.635,4.91-8.044,0-13.406-2.25-13.406-4.91,0-2.97,5.362-5.15,13.406-5.15C192.938,1547.15,198.3,1549.33,198.3,1552.3Zm75.19-30.9v-25.44H228.217v25.44h17.619v6.11H220.02v8.53h61.667v-8.53H255.871v-6.11H273.49Zm-46.116,19.72v8.37h36.234v16.26H273.72v-24.63H227.374Zm35.775-27.94H238.405v-9.17h24.744v9.17Zm102.3,52.65v-71.72H355.338v71.72H365.45ZM310.6,1524.61c0,14.82,6.664,25.68,17.849,25.68,11.337,0,18-10.95,18-25.68,0-15.05-6.665-25.91-18-25.91C317.265,1498.7,310.6,1509.56,310.6,1524.61Zm26.352,0c0,10.79-3.6,16.42-8.5,16.42-4.6,0-8.2-5.63-8.2-16.42,0-10.94,3.6-16.5,8.2-16.5C333.352,1508.11,336.953,1513.67,336.953,1524.61Zm99.281-4.58v-8.7h-9.5v-17.22H416.624v41.93h10.111v-16.01h9.5Zm-22.9,5.23c-8.58-3.14-15.245-9.42-15.245-20.93v-5.96H387.744v6.44c0,10.55-5.9,18.84-16.164,22.54l5.133,8.37c6.511-2.25,14.325-9.01,16.316-15.77,2.452,6.03,9.576,11.83,14.785,13.6Zm14.1,25.84c0-9.02-9.116-14.65-24.207-14.65-15.015,0-24.054,5.63-24.054,14.65,0,8.85,9.039,14.4,24.054,14.4C418.309,1565.5,427.425,1559.95,427.425,1551.1Zm-24.207-6.12c8.962,0,13.865,2.41,13.865,6.12s-4.9,6.03-13.865,6.03c-8.657,0-13.789-2.33-13.789-6.03S394.561,1544.98,403.218,1544.98Zm94.257,20.93v-24.96h26.046v-8.45H461.854v8.45H487.44v24.96h10.035Zm23.365-47.41c-11.721-1.37-22.828-8.45-22.828-19.56v-3.3H487.44v3.3c0,11.11-11.184,18.51-22.828,19.8l3.983,8.53c10.342-1.53,20.454-7.97,24.131-15.86,3.524,7.89,13.789,14.17,24.207,15.78Zm62.4,7.56v-7.88h-37v-3.47H581.4v-18.59H536.125v7.89H571.21v3.14H536.048v18.91h17.466v5.24H527.928v8.53H589.6v-8.53H563.549v-5.24h19.688Zm-47.955,17.07v8.29h36.464v14.57h10.035v-22.86h-46.5Zm61.263-3.3h8.579l1.226-40.97H594.936Zm-0.843,17.46h10.265v-10.22H595.7v10.22Z" transform="translate(-86.938 -1442.97)"/>
  <path id="간단한_조작으로_のコピー" data-name="간단한 조작으로 のコピー" class="cls-1" d="M143.887,1599.71v-7.86h-8.5v-17.43h-8.976v45.64h8.976v-20.35h8.5ZM119,1579.2h-29.1v7.79H109c-1.836,8.86-10.88,16.79-21.9,19.29l3.672,7.57C104.243,1610.49,118.115,1599.28,119,1579.2Zm17.816,57.37v-7.72H105.263v-13.57H96.151v21.29h40.665Zm66.656-37.44v-7.71h-8.432v-17H186v45.86h9.044v-21.15h8.432Zm-7.276,37.08v-7.36H164.779v-13.14h-9.045v20.5H196.2Zm-37.945-33.29v-15.93h18.225v-7.5H149.342v30.93c1.836,0,3.468.07,5.168,0.07,11.493,0,22.441-1.07,27.745-2.14l-0.748-7.22C175.659,1602.42,166.275,1602.92,158.25,1602.92Zm84.956-9.93v-7.21H207.845v7.21h35.361Zm-2.924,13.07c0-6.71-5.916-12-14.62-12-8.772,0-14.621,5.29-14.621,12,0,6.79,5.917,12,14.621,12S240.282,1612.85,240.282,1606.06Zm-23.664-22.93h18.224v-6.93H216.618v6.93Zm39.3-8.71h-8.908v47.93h8.908v-18.79h8.16v-7.71h-8.16v-21.43Zm1.224,62.57v-7.5H224.71v-9.43h-9.249v16.93h41.685Zm-37.2-30.93a5.782,5.782,0,0,1,11.492,0c0,2.65-2.312,5-5.78,5C222.262,1611.06,219.95,1608.71,219.95,1606.06Zm121.039-2.57c-9.248-1.14-19.244-6.78-20.74-16.64h18.224v-7.43H292.164v7.43h18.02c-1.428,9.86-11.424,15.78-20.536,16.93l4.08,7.5c7.548-1.57,18.156-6.79,21.488-15.36,3.4,8.71,14.349,13.5,21.761,15.07C338.337,1608.49,339.7,1605.99,340.989,1603.49Zm1.7,26.65v-7.36H319.568v-13.72H310.66v13.72H287.948v7.36h54.741Zm6-44.72h11.628c-0.408,9.07-5.508,15.57-14.144,18.64l4.76,7.57c5.848-1.92,12.58-8.42,14.144-14.14,2.244,5.36,8.7,10.93,13.328,12.5l4.829-7.36c-7.073-2.57-12.921-8.14-13.6-17.21h11.017v-7.65H348.688v7.65Zm6.868,29v7.5h31.077v16.22h8.976v-23.72H355.556Zm48.349-17.43v-7.79h-8.432v-14.78h-8.908v37.29h8.908v-14.72h8.432Zm56.884,33v-7.57H406.048v7.57h54.741Zm-4.828-34.21c0-10.15-8.908-17.29-22.577-17.29-13.6,0-22.508,7.14-22.508,17.29,0,10.07,8.908,17.28,22.508,17.28C447.053,1613.06,455.961,1605.85,455.961,1595.78Zm-9.112.07c0,5.86-5.441,9.78-13.465,9.78-8.16,0-13.4-3.92-13.4-9.78,0-6.07,5.236-9.93,13.4-9.93C441.612,1585.92,446.849,1589.78,446.849,1595.85Zm68.628,17.64v-7.5H481.816v-6.64h32.1v-21.29H472.772v7.57h32.164v6.15h-32.1v21.71h16.048v9.29H465.972v7.43h54.741v-7.43H497.8v-9.29h17.681Z" transform="translate(-86.938 -1442.97)"/>
  <path id="통쾌한_플레이_のコピー" data-name="통쾌한 플레이! のコピー" class="cls-1" d="M160.856,1694.08v-10.8h-49.8v-4.03h47v-10.81h-47v-3.92h49.077v-11.35h-62.7v40.91h24.227v5.13H86.929v11.68h83.7v-11.68H135.278v-5.13h25.578Zm1.144,35.9c0-9.71-9.566-17.02-33.273-17.02-23.5,0-33.064,7.09-33.064,17.02,0,9.71,9.566,17.02,33.168,17.02S162,1739.58,162,1729.98Zm-14.453,0c0,3.6-7.278,5.89-18.82,5.89-11.125,0-18.611-2.29-18.611-5.89,0-3.71,7.486-6.11,18.611-6.11C140.269,1723.87,147.547,1726.27,147.547,1729.98Zm109,16.47v-97.21H243.652v37.97h-5.2v-36.33H225.664v91.1h12.789v-43.1h5.2v47.57h12.893ZM221.3,1658.52H180.434v11.34H208.4c0.1,1.31.1,2.95,0.1,4.91v1.42c-9.982.44-19.963,0.76-29.945,1.31l1.767,11.67c9.15-.87,18.508-1.85,27.762-2.61-0.416,5.78-.832,11.45-1.456,15.38,4.055,0.44,8.318.65,12.27,0.98,1.559-9.27,2.391-25.42,2.391-33.93v-10.47Zm1.352,63.49c-0.312-3.49-.728-6.98-0.936-10.58-4.367.76-13.413,1.42-19.963,1.75v-19.31H189.48v19.85H175.859c0.416,3.93.832,7.75,1.352,11.57C193.223,1725.29,203.933,1724.96,222.649,1722.01Zm96.189-44.4v-11.02H264.77v11.02h54.068Zm-4.471,19.96c0-10.25-9.046-18.32-22.355-18.32-13.413,0-22.355,8.07-22.355,18.32,0,10.37,9.046,18.33,22.355,18.33S314.367,1707.94,314.367,1697.57Zm-36.184-35.02h27.865v-10.58H278.183v10.58Zm60.1-13.31H324.66v73.21h13.621v-28.69h12.477v-11.79H338.281v-32.73Zm1.872,95.58v-11.46h-49.6v-14.4H276.415v25.86h63.738Zm-56.875-47.25c0-3.81,3.535-7.85,8.734-7.85,5.3,0,8.838,4.04,8.838,7.85,0,4.04-3.536,7.64-8.838,7.64C286.813,1705.21,283.278,1701.61,283.278,1697.57Zm180.2,4.37v-11.35h-83.7v11.35h83.7Zm-8.422,43.97v-11.57H403.379v-3.82h49.7v-24.76H389.863V1717h49.492v3.6h-49.7v25.31h65.4Zm-0.416-59.14v-10.69h-13.1l1.871-8.73-13-1.2-1.455,9.93H414.089l-0.728-10.15-12.893,1.31,0.936,8.84H388.615v10.69H454.64Zm0.831-23.67v-11.24H387.783v11.24h67.688Zm53.985,58.48c-0.416-3.71-.728-7.42-1.039-11.24-5.511,1.42-15.6,2.07-21.523,2.07H484.71v-16.58h19.236v-37.31H471.505v11.89h18.82v13.31H471.089v40.48c3.327,0,6.655.11,10.19,0.11C491.053,1724.31,503.01,1723.21,509.456,1721.58Zm37.952,24.87v-97.21h-13.1v97.21h13.1Zm-18.3-4.47v-90.99H516.319v32.95h-8.734v11.78h8.734v46.26h12.789Zm102.834,4.47v-97.21H618.217v97.21h13.725ZM557.5,1690.59c0,20.08,9.046,34.81,24.226,34.81,15.389,0,24.434-14.84,24.434-34.81,0-20.4-9.045-35.13-24.434-35.13C566.541,1655.46,557.5,1670.19,557.5,1690.59Zm35.767,0c0,14.62-4.886,22.26-11.541,22.26-6.238,0-11.125-7.64-11.125-22.26,0-14.84,4.887-22.36,11.125-22.36C588.376,1668.23,593.262,1675.75,593.262,1690.59Zm54.932,20.62h11.645l1.664-55.53H646.011Zm-1.144,23.68h13.933v-13.86H647.05v13.86Z" transform="translate(-86.938 -1442.97)"/>
</svg>
