<svg id="txt_lead_02.svg" xmlns="http://www.w3.org/2000/svg" width="497.155" height="207.03" viewBox="0 0 497.155 207.03">
  <defs>
    <style>
      .cls-1 {
        fill: #fff;
        fill-rule: evenodd;
      }
    </style>
  </defs>
  <path id="올림픽_스타디움을_포함하여" data-name="올림픽 스타디움을 포함하여" class="cls-1" d="M707.276,2615.84c0,2.39,2.579,4.35,7.438,4.76v1.51H704.7v3.37H728.84v-3.37h-10.2v-1.48c4.978-.41,7.618-2.36,7.618-4.79,0-2.71-3.329-4.85-9.508-4.85C710.605,2610.99,707.276,2613.13,707.276,2615.84Zm19.315,22.71v-3.37H711.565v-1.17h14.306v-7.3H707.726v3.24h14.156v1.2H707.636v7.4h18.955Zm-15.146-22.68c0-1.01,1.889-1.86,5.308-1.86s5.339,0.85,5.339,1.86c0,1.07-1.92,1.89-5.339,1.89S711.445,2616.94,711.445,2615.87Zm40.725,22.4v-9.67H733.756v9.67H752.17Zm-6.178-12.67-0.3-3.11a43.8,43.8,0,0,1-8.307.69c-0.78,0-1.5-.03-2.13-0.06v-2.27h8.338v-8.44H731.3v3.24h8.278v2.14h-8.308v8.57c1.59,0.03,3.24.1,4.8,0.1A62.669,62.669,0,0,0,745.992,2625.6Zm6.178,1.64v-16.69h-3.988v16.69h3.988Zm-3.958,7.85H737.775v-3.34h10.437v3.34Zm23.057-12.1c-0.96.16-2.129,0.25-3.479,0.38l0.63-5.86c-1.26-.09-2.52-0.28-3.779-0.35-0.15,2.05-.24,4.35-0.36,6.43l-2.459.06c-0.09-2.14-.18-4.34-0.24-6.49l-3.809.35c0.18,2.02.39,4.16,0.63,6.2-1.17,0-2.34,0-3.329-.06l0.479,3.56a125.279,125.279,0,0,0,16.046-1.07Zm-12.476,5.95v3.31h14.215v6.4h4.019v-9.71H758.793Zm18.234-1.07v-17.23h-4.019v17.23h4.019Zm-6.718-11.71v-3.28H756.033v3.28h14.276Zm42.038,18.86v-3.3H788.2v3.3h24.143Zm-0.66-11.68c-4.438-.6-9.3-4.03-9.3-9.17v-1.67h-4.259v1.67c0,5.14-4.918,8.6-9.3,9.17,0.57,1.13,1.2,2.23,1.8,3.37,3.419-.73,8.128-3.4,9.6-7.5,1.5,4.1,6.388,6.8,9.687,7.5Zm6.866,5.19v-4.72h7.977v-3.34h-7.977v-4.19h8.367v-3.24h-12.3v18.86c1.259,0,2.549.07,3.809,0.07a58.345,58.345,0,0,0,10.946-.95c-0.09-1.07-.269-2.11-0.359-3.18a57.017,57.017,0,0,1-9.118.73C819.392,2628.57,818.942,2628.57,818.553,2628.53Zm16.075-17.98H830.7v28.06h3.929v-14.23h3.539v-3.44h-3.539v-10.39Zm26.285,28.06v-28.06h-3.959v28.06h3.959Zm-16.376-10.08v-12.19h8.188v-3.27H840.548v18.96c1.44,0,2.85.06,4.319,0.06a53.646,53.646,0,0,0,10.767-.91c-0.15-1.17-.3-2.27-0.42-3.4a41.643,41.643,0,0,1-9.027.79C845.617,2628.57,845.077,2628.57,844.537,2628.53Zm40.468,9.77v-9.45h-7.138v-2.33h10.107v-3.28H863.831v3.28h10.107v2.33H866.86v9.45h18.145Zm-18.6-21.55c0,3.15,3.569,5.45,9.477,5.45s9.537-2.3,9.537-5.45-3.628-5.48-9.537-5.48S866.41,2613.6,866.41,2616.75Zm4.169,0.04c0-1.33,2.009-2.34,5.308-2.34s5.369,1.01,5.369,2.34c0,1.35-2.04,2.33-5.369,2.33C872.588,2619.12,870.579,2618.14,870.579,2616.79Zm10.5,18.3H870.789v-3.12h10.287v3.12Zm32.841-9.86v-3.31H889.774v3.31h24.143Zm-2.31,13.23v-3.41H896.7v-1.19h14.245v-7.34h-18.2v3.27h14.216v1.17H892.773v7.5h18.834Zm-15.085-22.43c0-.98,1.709-1.8,5.308-1.8,3.539,0,5.339.82,5.339,1.8,0,1.01-1.8,1.76-5.339,1.76C898.231,2617.79,896.522,2617.04,896.522,2616.03Zm-4.169-.03c0,2.86,3.179,4.82,9.477,4.82s9.507-1.96,9.507-4.82-3.209-4.85-9.507-4.85S892.353,2613.13,892.353,2616Zm54.934,19.12v-3.25H937.18v-5.04h7.8v-3.27h-3.719l1.02-5.99-3.929-.44-0.6,6.43h-5.039l-0.54-6.46-3.928.41,0.839,6.05H925.3v3.27h7.948v5.04H923.144v3.25h24.143Zm-2.249-19.09v-3.31H925.273v3.31h19.765Zm27.571,6.02v-3.41H969.04v-8.09h-3.929v17.76h3.929v-6.26h3.569Zm-3.569,16.31v-8.94H951.285v8.94H969.04Zm-3.959-3.21H955.3v-2.55h9.777v2.55Zm-1.62-16.85v-3.18h-15.6v3.18h15.6Zm-11.576-4.22h8.037v-3.19h-8.037v3.19Zm10.287,9.51c0-2.58-2.609-4.73-6.418-4.73-3.9,0-6.508,2.15-6.508,4.73,0,2.71,2.639,4.82,6.508,4.82C959.563,2628.41,962.172,2626.3,962.172,2623.59Zm-8.938,0c0-1.04,1.02-1.86,2.52-1.86,1.469,0,2.489.82,2.489,1.86,0,1.07-1.02,1.89-2.489,1.89C954.254,2625.48,953.234,2624.66,953.234,2623.59Zm36.413-3.09v-3.27H974.112v3.27h15.535Zm-11.7-4.91H986.2v-3.34h-8.247v3.34Zm17.365-5.04h-3.959v28.06h3.959v-13.26h3.629v-3.4h-3.629v-11.4Zm-19.8,16.91c0,3.63,2.82,6.05,6.509,6.05,3.658,0,6.568-2.39,6.568-6.05,0-3.62-2.91-6.01-6.568-6.01C978.341,2621.45,975.521,2623.81,975.521,2627.46Zm3.509,0a3.015,3.015,0,1,1,6.029,0,2.972,2.972,0,0,1-3.029,3.06A2.915,2.915,0,0,1,979.03,2627.46Zm35.84,1.07h3.81v10.08h3.99v-28.06h-3.99v5.07h-3.75l0.12,3.81h3.63v5.36h-3.66Zm-14.27-6.04c0,5.79,2.67,10.04,7.05,10.04,4.43,0,7.04-4.28,7.04-10.04,0-5.89-2.61-10.15-7.04-10.15C1003.27,2612.34,1000.6,2616.6,1000.6,2622.49Zm10.37,0c0,4.22-1.41,6.42-3.32,6.42-1.83,0-3.21-2.2-3.21-6.42,0-4.29,1.38-6.46,3.21-6.46C1009.56,2616.03,1010.97,2618.2,1010.97,2622.49Z" transform="translate(-700.375 -2610.56)"/>
  <path id="실제_경기장을" data-name="실제 경기장을" class="cls-1" d="M750.928,2683.28v-32.65h-9.093v32.65h9.093Zm1.493,30.36v-7.41H719.237v-3.14h31.691V2685.7H710.076v7.56H741.97v3.06H710.144v17.32h42.277Zm-14.794-39.13c-7.6-2.71-13.436-8.34-13.436-18.61v-2.78h-9.229v3.35c0,9.27-5.226,16.68-14.251,19.96l4.479,7.42c5.768-1.93,12.758-8.06,14.522-13.98,2.172,5.35,8.347,10.48,13.1,12.19Zm49.132,17.82c-8.89-5.85-11.129-13.55-11.129-25.31v-2.71h8.754v-7.34H757.375v7.34h9.569v2.71c0,11.55-2.443,20.18-12.08,27.09l4.886,6.49c4.615-2.78,10.451-10.69,11.6-16.18,1.493,5.63,6.651,12.19,10.587,14.75Zm8.958,18.89v-59.38h-8.212v19.96h-6.854v8.2h6.854v31.22h8.212Zm12.418,2.92v-63.51h-8.279v63.51h8.279Zm72.811-13.18c0-8.06-7.668-13.34-20.834-13.34-12.893,0-20.561,5.28-20.561,13.34,0,7.98,7.668,13.18,20.561,13.18C873.278,2714.14,880.946,2708.94,880.946,2700.96Zm-0.339-14.55v-35.78h-9.162v10.05h-9.229v7.2h9.229v5.56h-9.7v7.27h9.7v5.7h9.162Zm-8.958,14.55c0,3.56-4.072,5.77-11.537,5.77-7.057,0-11.2-2.21-11.2-5.77s4.14-5.85,11.2-5.85C867.577,2695.11,871.649,2697.39,871.649,2700.96Zm-9.908-46.34H832.968v7.7H851.7c-1.154,8.05-10.79,16.18-21.784,18.53l3.461,7.42C850.408,2683.42,861.266,2672.08,861.741,2654.62Zm73.833,59.52v-63.51h-9.026v63.51h9.026Zm-18.255-56.96h-28.7v7.7h19.2c-1.222,12.19-9.7,24.38-22.937,30.87l5.089,7.41C909.583,2691.83,916.776,2675.72,917.319,2657.18Zm71.764,43.78c0-7.99-8.076-13.05-21.444-13.05-13.3,0-21.309,5.06-21.309,13.05,0,7.84,8.008,12.76,21.309,12.76C981.007,2713.72,989.083,2708.8,989.083,2700.96Zm-47.028-38.79h11.536c-0.61,8.92-5.7,15.05-14.183,18.04l4.547,7.49c5.836-1.93,12.894-8.06,14.454-13.69,2.24,5.27,8.687,10.83,13.3,12.4l4.818-7.41c-7.057-2.5-12.758-7.99-13.708-16.83h11.13v-7.62h-31.9v7.62Zm54.832,11.55v-7.62h-8.415v-15.47h-8.89v36.5h8.89v-13.41h8.415Zm-29.248,21.82c7.939,0,12.282,2.21,12.282,5.42s-4.343,5.34-12.282,5.34c-7.669,0-12.215-2.14-12.215-5.34C955.424,2697.6,959.97,2695.54,967.639,2695.54Zm84.811-11.69v-7.49H997.817v7.49h54.633Zm-5.23,29.94v-7.7h-33.73v-2.71h32.24v-16.61h-41.19v7.41h32.16v2.64h-32.1v16.97h42.62Zm-34.13-50.76c0-2.21,3.86-4.06,12.01-4.06,8,0,12.08,1.85,12.08,4.06,0,2.28-4.08,3.99-12.08,3.99C1016.95,2667.02,1013.09,2665.31,1013.09,2663.03Zm-9.44-.07c0,6.49,7.2,10.91,21.45,10.91s21.51-4.42,21.51-10.91-7.26-10.98-21.51-10.98S1003.65,2656.47,1003.65,2662.96Z" transform="translate(-700.375 -2610.56)"/>
  <path id="충실하게_재현_" data-name="충실하게 재현!" class="cls-1" d="M765.7,2802.85c0-7.75-8.817-13.14-23.214-14.27v-3.31H772.81v-9.73H700.377v9.73H730.7v3.31c-14.487,1.04-23.215,6.52-23.215,14.27,0,8.88,11.068,14.74,29.153,14.74C754.454,2817.59,765.7,2811.73,765.7,2802.85Zm2.7-38.94c-12.147-.28-19.616-3.4-22.855-7.47h18.9v-9.45H708.655v9.45H727.73c-3.149,4.07-10.617,7-22.944,7.28l4.049,9.55c12.147-.19,23.664-4.54,27.713-10.97,4.409,6.43,16.287,10.78,27.714,10.97Zm-15.117,39.22c0,2.84-6.838,5.11-16.826,5.11-9.9,0-16.556-2.27-16.556-5.11,0-3.21,6.659-5.29,16.556-5.29C746.446,2797.84,753.284,2799.92,753.284,2803.13Zm-30.142-59.16h27.083v-9.36H723.142v9.36Zm120.139,32.13v-43.28H831.224v43.28h12.057Zm1.979,40.26v-9.83h-44v-4.15h42.02v-23.06H789.114v10.01H831.4v4.07H789.2v22.96H845.26Zm-19.615-51.88c-10.078-3.59-17.816-11.06-17.816-24.67v-3.68H795.592v4.44c0,12.28-6.928,22.11-18.9,26.46l5.939,9.83c7.648-2.55,16.916-10.68,19.255-18.52,2.88,7.08,11.068,13.89,17.366,16.16Zm72.819-1.8v-9.83H851.855v9.83h46.609Zm-35.092-14.74h24.745v-10.02H863.372v10.02Zm52.1-15.12H903.593v84.2H915.47v-39.78h10.887v-10.21H915.47v-34.21Zm-59.386,50.75c0,10.87,8.458,18.14,19.525,18.14,10.978,0,19.706-7.18,19.706-18.14,0-10.87-8.728-18.05-19.706-18.05C864.542,2765.52,856.084,2772.61,856.084,2783.57Zm10.528,0a9.043,9.043,0,1,1,18.085,0,8.914,8.914,0,0,1-9.088,9.17A8.74,8.74,0,0,1,866.612,2783.57Zm95.169-40.92H930.109v9.83h19.975c-1.62,15.4-9,28.54-24.744,37.99l7.108,9.35a61.627,61.627,0,0,0,23.395-25.99H967.81v39.41h11.157v-78.91H967.81v29.2h-8.368A77.125,77.125,0,0,0,961.781,2742.65Zm34.012,74.37v-84.2H984.636v84.2h11.157Zm101.647,0v-84.2h-11.15v32.6h-5.4v-31.28h-11.07v79.1h11.07v-37.99h5.4v41.77h11.15Zm-28.16-29.01c-11.97-7.84-14.67-17.86-14.67-33.64v-3.5h11.61v-9.83h-35.9v9.83h12.78v3.59c0,15.31-3.6,27.97-16.29,36.1l6.3,8.7c6.21-3.78,14.04-14.46,15.57-21.65,1.98,7.38,9.17,16.26,14.39,19.76Zm70.24-42.72v-9.45H1117.2v9.45h22.32Zm8.82,13.05v-9.64h-42.11v9.64h42.11Zm25.01,57.27v-9.83h-44.18V2793.3h-12.06v22.31h56.24Zm-1.8-19.57v-63.22h-11.97v21.45h-9.35v10.02h9.35v7.65h-9.89v10.02h9.89v14.08h11.97Zm-25.19-20.88c0-8.79-7.65-15.5-18.72-15.5s-18.62,6.71-18.62,15.5,7.64,15.5,18.62,15.5C1138.71,2790.66,1146.36,2783.95,1146.36,2775.16Zm-11.07-.1c0,3.5-3.15,6.52-7.65,6.52s-7.47-3.02-7.47-6.52c0-3.3,2.97-6.52,7.47-6.52S1135.29,2771.76,1135.29,2775.06Zm50.74,11.44h10.08l1.43-48.11h-13.4Zm-0.99,20.51h12.05V2795h-12.05v12.01Z" transform="translate(-700.375 -2610.56)"/>
</svg>
