<svg id="txt_lead_03.svg" xmlns="http://www.w3.org/2000/svg" width="399.125" height="259.18" viewBox="0 0 399.125 259.18">
  <defs>
    <style>
      .cls-1 {
        fill: #fff;
        fill-rule: evenodd;
      }
    </style>
  </defs>
  <path id="취향에_맞는_のコピー" data-name="취향에 맞는 のコピー" class="cls-1" d="M136.275,3773.4h-8.863v62.77h8.863V3773.4Zm-46.393,18.95H101.3c-1.209,4.51-6.378,6.98-13.092,7.82l3.29,7.12c6.043-.57,12.891-4.02,14.838-8.81,2.148,4.51,9.2,7.33,14.5,7.82l3.424-7.04c-5.774-.5-11.884-2.4-13.361-6.91H122.31v-7.32H89.882v7.32Zm20.075,42.2v-18.1c5.505-.36,10.54-0.85,15.307-1.48l-0.4-7.19c-4.162.56-12.756,0.99-19.134,1.2-4.9.14-12.689,0.21-19.739,0.14l1.141,8.03c3.491,0,8.527-.07,13.9-0.28v17.68h8.93Zm-12.22-51.99h17.792v-7.18H97.737v7.18Zm92.968,42.97c0-6.55-7.788-10.28-20.544-10.28s-20.679,3.73-20.679,10.28c0,6.76,7.923,10.5,20.679,10.5S190.705,3832.37,190.705,3825.53Zm-15.307-22.4c0-5.92-5.976-10.78-14.435-10.78-8.661,0-14.5,4.86-14.5,10.78,0,6.06,5.908,10.92,14.5,10.92C169.422,3814.05,175.4,3809.19,175.4,3803.13Zm22.29-4.65h-7.117v-5.49h7.117v-7.54h-7.117V3773.4h-8.862v41.71h8.862v-9.16h7.117v-7.47Zm-19.47-7.11v-7.12H143.373v7.12h34.845Zm-8.057,30.92c7.519,0,11.682,1.41,11.682,3.31,0,2.05-4.163,3.45-11.682,3.45-7.452,0-11.615-1.33-11.615-3.45C158.546,3823.63,162.709,3822.29,170.161,3822.29Zm-18.127-40.57H169.96v-7.05H152.034v7.05Zm3.357,21.41c0-2.25,2.282-4.23,5.572-4.23,3.223,0,5.64,1.98,5.64,4.23,0,2.4-2.417,4.3-5.64,4.3C157.673,3807.43,155.391,3805.53,155.391,3803.13Zm85.891,30.15V3774.6h-8.191v21.56h-3.827c-0.873-9.44-4.566-18.25-12.891-18.25-9.6,0-13.159,11.84-13.159,22.69,0,11.13,3.559,23.17,13.159,23.17,8.594,0,12.287-9.58,13.025-19.44h3.693v28.95h8.191Zm12.353,2.89V3773.4H245.31v62.77h8.325Zm-32.361-35.43c0,7.46-1.141,14.08-4.834,14.08-3.625,0-4.766-6.62-4.766-14.08,0-7.4,1.141-14.16,4.766-14.16C220.133,3786.58,221.274,3793.34,221.274,3800.74Zm87.523,4.29v-27.82H280.465v27.82H308.8Zm-22.626,6.2v7.33h15.241c-1.276,6.48-9.6,10.42-17.792,10.71l3.357,7.25c8.057-.63,15.777-4.51,19-10.35,3.558,5.91,11.414,10,19.4,10.42,1.209-2.32,2.417-4.79,3.558-7.25-8.728-.36-17.187-4.37-18.328-10.78h15.71v-7.33H286.171Zm48.071-15.64v-7.6H325.85V3773.4h-8.862v34.45h8.862v-12.26h8.392ZM300,3797.71H289.193v-13.25H300v13.25Zm89.611,13.45v-7.47H335.567v7.47h54.046Zm-6.512-12.82v-7.25H351.68v-15.64h-9v22.89H383.1Zm0.268,36.14v-7.26H351.143v-11.34h-8.93v18.6h41.156Z" transform="translate(-84.406 -3773.41)"/>
  <path id="아바타를_만들어_누구든지_のコピー" data-name="아바타를 만들어 누구든지 のコピー" class="cls-1" d="M112.069,3847.48h-5.237v37.08h5.237v-18.6h4.919v-4.5h-4.919v-13.98Zm-27.651,15.77c0,7.66,3.531,13.28,9.323,13.28,5.832,0,9.323-5.66,9.323-13.28,0-7.78-3.491-13.4-9.323-13.4C87.948,3849.85,84.418,3855.47,84.418,3863.25Zm13.687,0c0,5.58-1.825,8.49-4.364,8.49-2.42,0-4.245-2.91-4.245-8.49,0-5.66,1.825-8.53,4.245-8.53C96.28,3854.72,98.1,3857.59,98.1,3863.25Zm48.762-15.77h-5.2v37.08h5.2v-18.85h4.721v-4.5h-4.721v-13.73Zm-9.561,27.97v-25.02h-5.316v8.74h-6.427v-8.74h-5.2v25.02h16.94Zm-5.316-4.33h-6.427v-7.74h6.427v7.74Zm28.279,0.12V3865h10.553v-4.41H160.268v-5.54h11.069v-4.29H155.071v24.94c1.666,0,3.372.08,5.039,0.08a77.5,77.5,0,0,0,14.48-1.25c-0.119-1.41-.357-2.79-0.476-4.2a75.748,75.748,0,0,1-12.061.95C161.379,3871.28,160.784,3871.28,160.268,3871.24Zm21.265-23.76h-5.2v37.08h5.2v-18.81h4.681v-4.54h-4.681v-13.73Zm39.49,20.93v-4.08H189.087v4.08h31.936Zm-3.333,15.9v-3.83H198.172v-1.58h18.765v-8.99H192.856v3.83H211.7v1.58H192.935v8.99H217.69Zm-0.238-21.6v-3.79H198.568v-1.54h18.17v-8.57H193.252v3.83h18.17v1.41h-18.17v8.66h24.2Zm44.5-15.23h-5.236v26.88h5.236v-11.9h4.92v-4.54h-4.92v-10.44Zm0.714,36.04v-4.33H243.978v-7.45h-5.2v11.78h23.882Zm-10.83-15.61v-17.4H235.091v17.4h16.742Zm-5.2-4.33h-6.387v-8.74h6.387v8.74Zm50.995-3.49v-4.37H279.025v-3.37h18.368v-4.42h-23.6v12.16h23.843Zm3.928,6.37v-4.42H269.622v4.42h31.937Zm-3.055,18.02v-4.5h-19.8v-1.58h18.845v-9.82h-24v4.33h18.765v1.66H273.51v9.91H298.5Zm6.38-21.23c0,7.66,3.531,13.28,9.164,13.28,5.118,0,8.45-4.66,9.006-11.2h5.435v19.23h5.356v-37.08h-5.356v13.19h-5.475c-0.674-6.45-3.928-10.82-8.966-10.82C308.415,3849.85,304.884,3855.47,304.884,3863.25Zm13.369,0c0,5.58-1.864,8.49-4.2,8.49-2.3,0-4.126-2.91-4.126-8.49,0-5.66,1.825-8.53,4.126-8.53C316.389,3854.72,318.253,3857.59,318.253,3863.25Zm49.734,21.35v-12.73h13.489v-4.41H349.54v4.41h13.25v12.73h5.2Zm10.037-20.72v-4.42H359.061v-10.19h-5.237v14.61h24.2Zm34.647-14.57H388.352v4.41h19.2a53.236,53.236,0,0,1-.952,11.74H384.583v4.33h13.25v14.77h5.2v-14.77h13.489v-4.33H411.48A80.856,80.856,0,0,0,412.671,3849.31Zm38.891,20.81v-4.33H419.626v4.33h31.936Zm-3.65,13.53v-4.29H428.75v-6.49h-5.236v10.78h24.4Zm-0.476-20.57v-4.32H429.107v-5.08H447.4v-4.33H423.831v13.73h23.6Zm28.676,8.5c-5.475-3.08-8.292-8.25-8.371-16.11h6.784v-4.58h-19v4.58h6.784c-0.04,7.99-2.579,13.44-8.53,17.11l3.095,4.24a20.089,20.089,0,0,0,8.212-10.7c1.15,3.67,5.276,8.04,8.093,9.79Zm7.419,12.98v-37.08h-5.356v37.08h5.356Z" transform="translate(-84.406 -3773.41)"/>
  <path id="올림픽에_참가할_수_있다_のコピー" data-name="올림픽에 참가할 수 있다! のコピー" class="cls-1" d="M90.843,3907.53c0,5.31,5.735,9.65,16.537,10.56v3.36H85.109v7.49h53.678v-7.49H116.116v-3.29c11.069-.91,16.937-5.25,16.937-10.63,0-6.02-7.4-10.78-21.138-10.78C98.245,3896.75,90.843,3901.51,90.843,3907.53Zm42.943,50.44v-7.48H100.379v-2.59h31.807v-16.23H91.844v7.2h31.473v2.66H91.644v16.44h42.142Zm-33.674-50.37c0-2.24,4.2-4.13,11.8-4.13s11.869,1.89,11.869,4.13c0,2.38-4.268,4.2-11.869,4.2S100.112,3909.98,100.112,3907.6Zm91.769,49.74v-21.48H150.938v21.48h40.943Zm-13.737-28.12-0.667-6.93c-4.6,1.05-12.269,1.54-18.47,1.54-1.734,0-3.334-.07-4.735-0.14v-5.04H172.81V3899.9H145.47v7.21h18.4v4.76H145.4v19.03c3.534,0.07,7.2.21,10.669,0.21A141.024,141.024,0,0,0,178.144,3929.22Zm13.737,3.63v-37.08h-8.869v37.08h8.869Zm-8.8,17.43H159.874v-7.42h23.205v7.42Zm52.493-26.87c-2.134.35-4.734,0.56-7.735,0.84l1.4-13.01c-2.8-.21-5.6-0.63-8.4-0.77-0.334,4.54-.534,9.65-0.8,14.27l-5.467.14c-0.2-4.76-.4-9.66-0.534-14.41l-8.468.77c0.4,4.47.866,9.23,1.4,13.78-2.6,0-5.2,0-7.4-.14l1.067,7.9c11.736,0,27.806-1.11,35.675-2.37Zm-27.739,13.22v7.35H239.44v14.2h8.935v-21.55H207.833Zm40.542-2.38v-38.27H239.44v38.27h8.935Zm-14.937-26.02v-7.28H201.7v7.28h31.74Zm60.882,47.01v-58.28h-8.135v21.41h-3.8c-0.866-9.37-4.534-18.12-12.8-18.12-9.536,0-13.07,11.76-13.07,22.53,0,11.05,3.534,23.02,13.07,23.02,8.535,0,12.2-9.52,12.936-19.31h3.667v28.75h8.135Zm12.27,2.87v-62.34h-8.269v62.34h8.269Zm-32.141-35.19c0,7.42-1.133,13.99-4.8,13.99-3.6,0-4.734-6.57-4.734-13.99,0-7.35,1.133-14.06,4.734-14.06C273.316,3908.86,274.449,3915.57,274.449,3922.92Zm-142.73,107.71v-21.06H92.644v21.06h39.075Zm-45.41-41.98h11c-0.867,5.95-6.268,10.35-12.87,12.24,1.334,2.31,2.8,4.62,4.2,7,5.8-1.68,11.736-6.79,13.6-11.41,2.134,4.55,8,9.59,13.069,10.71,1.334-2.38,2.734-4.76,4-7.07-5.334-1.26-11.536-5.52-12.469-11.47h10.936v-7H86.309v7Zm53.545,4.97v-7.56h-8.135v-17.07h-8.735v38.13h8.735v-13.5h8.135Zm-16.937,29.87H101.379v-7h21.538v7Zm-29.34-45.13h17.271v-6.57H93.577v6.57Zm103.638,21.76v-7.62H188.68v-23.51h-8.8v62.34h8.8v-31.21h8.535Zm-23.938-24.69H145.07v7.62h18.871c-1.2,11.9-9.535,23.86-22.471,30.23l4.934,7.27C165.742,4009.43,172.81,3993.69,173.277,3975.43Zm61.5,9.51v-6.79H200.237v6.79h34.541Zm-25.8-9.37H226.51v-6.3H208.973v6.3Zm46.143,17.7v-7.63h-8.068v-16.65h-8.736v36.38h8.736v-12.1h8.068Zm-6.935,38.2v-6.86H216.508v-1.96h30.54v-14.97H207.639v6.72h30.607v2.37H207.639v14.7h40.542Zm-16.137-35.82c0-5.46-5.934-9.8-14.336-9.8-8.6,0-14.4,4.34-14.4,9.8,0,5.38,5.868,9.86,14.4,9.86C226.11,4005.51,232.044,4001.03,232.044,3995.65Zm-19.871,0c0-2.1,2.267-3.5,5.535-3.5s5.6,1.4,5.6,3.5-2.334,3.49-5.6,3.49S212.173,3997.74,212.173,3995.65Zm95,35.75v-21.69h22.672v-7.35H276.162v7.35h22.272v21.69h8.735Zm20.338-41.21c-10.2-1.19-19.871-7.35-19.871-17v-2.87h-9.2v2.87c0,9.65-9.736,16.09-19.871,17.21l3.467,7.41c9-1.33,17.8-6.92,21.005-13.78,3.067,6.86,12,12.31,21.071,13.71Zm58.187-2.59c0-8.68-6.934-14.48-16.07-14.48-9,0-15.87,5.8-15.87,14.48,0,8.53,6.8,14.55,15.87,14.55S385.694,3996.13,385.694,3987.6Zm15.6,43.8c1.6-2.17,3.067-4.48,4.668-6.72-6.6-2.1-10.469-7.84-10.469-15.53v-2.66h-8.736v2.52c0,7.97-3.8,13.85-11.069,17.35l4.8,6.23c5.068-2.59,9.6-7.42,10.736-11.48C392.5,4025.1,397.23,4029.93,401.3,4031.4Zm-9-62.48v35.05h8.935v-35.05H392.3Zm-16.737,56.25c2-2.24,3.867-4.41,5.8-6.65-3.467-1.33-7.268-4.19-7.268-10.07v-1.89h-8.6v2.03c0,7.83-4.934,13.57-11.869,16.23,1.533,2.45,3.134,4.76,4.734,7.21,4.934-1.68,10.336-6.86,12-11.83A13.522,13.522,0,0,0,375.559,4025.17Zm1.6-37.57c0,4.2-3.267,6.86-7.535,6.86-4.134,0-7.4-2.66-7.4-6.86s3.267-7,7.4-7C373.825,3980.6,377.159,3983.4,377.159,3987.6Zm42.2,21.97v-27.5h18.6v-7.48H410.622v42.74h5.2c10.669,0,21.938-.98,27.406-2.1-0.333-2.51-.6-5.03-0.867-7.55a121.761,121.761,0,0,1-21.471,1.89h-1.534Zm35.608-40.58H446.23v62.34h8.735v-31.49h8.269v-7.55h-8.269v-23.3Zm15.158,39.74h7.468l1.067-35.61h-9.935Zm-0.733,15.18h8.935v-8.88H469.39v8.88Z" transform="translate(-84.406 -3773.41)"/>
</svg>
