<svg height="80.094" viewBox="0 0 433.938 80.094" width="433.938" xmlns="http://www.w3.org/2000/svg"><path d="m464.219 605.609v10.812h9.725v13.963h13.13v-40.184h-13.13v15.41h-9.725zm4.376 14.729c-11.022-3.15-15.4-10.132-16.209-17.113h13.614v-10.725h-41.01v10.727h13.7c-.811 7.152-5.511 14.984-17.02 18.73l6.079 10.728a28.013 28.013 0 0 0 17.911-14.729c3.242 6.045 8.753 10.812 16.858 13.111zm-19.451 38.4v-2.728h37.93v-22.817h-50.974v10.387h38.011v2.639h-37.93v22.987h52.762v-10.471h-39.799zm97.276-29.543c-12.076-3.661-16.372-11.919-16.777-19.667h13.857v-10.645h-14.019v-8.088h-13.13v8.088h-13.94v10.642h13.94c-.486 8.429-4.782 17.113-16.939 20.944l6.4 10.727a27.6 27.6 0 0 0 17.263-14.643 28.438 28.438 0 0 0 17.182 13.366zm-22.531 14.9h-13.13v24.775h52.275v-10.816h-39.145v-13.963zm36.876-30.99v-22.905h-13.13v59.256h13.13v-25.2h9.482v-11.156h-9.482zm58.5-6.13h5.187v20.6c-1.784.086-3.4.171-5.187.256v-20.86zm24.962 18.9c-2.269.34-4.782.6-7.213.851v-19.755h5.186v-10.812h-40.685v10.812h5.185v21.114h-7.051l1.216 10.983c12.481 0 29.5-.341 44.251-3.235zm-20.343 17.705h-13.129v25.286h52.275v-10.812h-39.146zm36.876-31.756v-21.71h-13.129v58.915h13.129v-26.052h9.483v-11.153zm32.641-3.4h6.322v31.836h-6.323v-31.841zm-12.157 42.476h30.556v-53.124h-30.556zm51.465-60.788v29.888h-4.376v-28.779h-12.158v75.431h12.158v-35.752h4.376v38.993h12.4v-79.779h-12.4zm31.774 33.544c15.074-1.192 23.665-6.641 27.556-13.622 3.89 6.981 12.481 12.43 27.556 13.622l4.457-10.642c-13.535-1.107-19.613-5.108-21.8-9.025h18.073v-10.725h-56.49v10.727h17.993c-2.27 3.917-8.348 7.918-21.8 9.025zm40.685 31.844c0 3.15-4.133 4.342-13.291 4.342-9.24 0-13.373-1.192-13.373-4.342 0-3.235 4.133-4.342 13.373-4.342 9.158-.001 13.291 1.106 13.291 4.342zm21.316-18.9v-10.728h-68.89v10.728h27.88v4.427c-12.725 1.277-20.262 6.385-20.262 14.473 0 9.365 10.131 14.729 26.665 14.729 16.452 0 26.583-5.364 26.583-14.729 0-8-7.375-13.026-19.857-14.388v-4.512zm15.9 2.384h9.321l2.107-28.777.486-13.451h-14.498l.486 13.451zm4.62 24.179c5.025 0 8.591-4.172 8.591-9.45 0-5.194-3.566-9.366-8.591-9.366-4.944 0-8.51 4.172-8.51 9.366.006 5.277 3.57 9.449 8.514 9.449z" fill="#fff" fill-rule="evenodd" transform="translate(-421.656 -590.125)"/></svg>