<svg id="レイヤー_1" data-name="レイヤー 1" xmlns="http://www.w3.org/2000/svg" xmlns:xlink="http://www.w3.org/1999/xlink" viewBox="0 0 1507.34 537.56"><defs><style>.cls-1{fill:none;}.cls-2{clip-path:url(#clip-path);}.cls-3{fill:#fff;}.cls-4{fill:#1d1d1b;}</style><clipPath id="clip-path"><rect class="cls-1" y="1.01" width="1507.34" height="536.12"/></clipPath></defs><g class="cls-2"><rect class="cls-3" x="2.16" y="-144.75" width="1509.84" height="873.19"/><polygon class="cls-4" points="159.4 -144.75 2.16 12.94 2.16 53.52 199.86 -144.75 159.4 -144.75"/><polygon class="cls-4" points="320.45 -144.75 2.16 174.46 2.16 215.04 360.91 -144.75 320.45 -144.75"/><polygon class="cls-4" points="400.97 -144.75 77.65 176.98 77.65 217.56 441.43 -144.75 400.97 -144.75"/><polygon class="cls-4" points="156.88 178.28 2.16 335.97 2.16 376.55 197.34 178.28 156.88 178.28"/><polygon class="cls-4" points="479.76 420.96 147.6 754.08 188.06 754.08 520.22 420.96 479.76 420.96"/><polyline class="cls-4" points="1864.75 -200.8 1864.75 -241.38 1296 329.01 1336.46 329.01"/><polygon class="cls-4" points="1288.55 417.02 817.95 887.72 858.41 887.72 1288.55 457.6 1288.55 417.02"/><polygon class="cls-4" points="1512 352.38 1243.97 621.19 1284.43 621.19 1512 392.95 1512 352.38"/><polygon class="cls-4" points="1512 433.13 1217.54 728.44 1258.01 728.44 1512 473.71 1512 433.13"/><polygon class="cls-4" points="1512 513.89 1350.91 675.45 1391.37 675.45 1512 554.47 1512 513.89"/></g></svg>