<?xml version="1.0" encoding="utf-8"?>
<svg version="1.1" id="caution" xmlns="http://www.w3.org/2000/svg" xmlns:xlink="http://www.w3.org/1999/xlink" x="0px" y="0px"
	 viewBox="0 0 28 28" style="enable-background:new 0 0 28 28;" xml:space="preserve">
<style type="text/css">
	.st0{fill:#999;}
</style>
<path class="st0" d="M13.99,2.99c6.07,0,11,4.93,11,11s-4.93,11-11,11s-11-4.93-11-11S7.92,2.99,13.99,2.99 M13.99-0.01
	c-7.73,0-14,6.27-14,14s6.27,14,14,14s14-6.27,14-14S21.72-0.01,13.99-0.01L13.99-0.01z"/>
<path class="st0" d="M13.96,18.11c-1.02,0-1.84,0.83-1.84,1.84s0.83,1.84,1.84,1.84s1.84-0.83,1.84-1.84S14.98,18.11,13.96,18.11
	L13.96,18.11z"/>
<path class="st0" d="M13.99,6.11c-1.07,0-1.94,0.9-1.94,2v6.69c0,1.1,0.87,2,1.94,2s1.94-0.9,1.94-2V8.11
	C15.93,7.01,15.05,6.11,13.99,6.11L13.99,6.11z"/>
</svg>
