<svg id="text" xmlns="http://www.w3.org/2000/svg" width="371.19" height="110" viewBox="0 0 371.19 110">
  <defs>
    <style>
      .cls-1 {
        fill: #202020;
      }

      .cls-2 {
        fill: #fff;
      }

      .cls-2, .cls-3 {
        fill-rule: evenodd;
      }

      .cls-3 {
        fill: #231815;
      }
    </style>
  </defs>
  <rect id="タグ塗" class="cls-1" width="60" height="30"/>
  <path id="会期" class="cls-2" d="M2082.34,528.5v-1.121a17.64,17.64,0,0,0,2.52,1.485,7.441,7.441,0,0,1,.85-1.205,14.5,14.5,0,0,1-5.94-4.4,0.392,0.392,0,0,0,.33-0.238l-1.84-.1a14.534,14.534,0,0,1-5.88,4.958,5.728,5.728,0,0,1,.78,1.093,16.856,16.856,0,0,0,2.48-1.5V528.5h6.7Zm-6.4-1.233a13.41,13.41,0,0,0,3.02-3.026,14.555,14.555,0,0,0,3.22,3.026h-6.24Zm0.78,3.964a24.259,24.259,0,0,1-1.37,3.012c-0.77.028-1.47,0.028-2.06,0.042l0.47,1.5a0.269,0.269,0,0,0,.24-0.21c2.19-.1,5.63-0.253,8.91-0.435,0.25,0.336.46,0.673,0.63,0.953l1.22-.757a18.822,18.822,0,0,0-3.3-3.684l-1.15.617a19.309,19.309,0,0,1,1.73,1.793c-1.79.056-3.61,0.112-5.24,0.154a27.26,27.26,0,0,0,1.38-2.718,0.4,0.4,0,0,0,.38-0.168l-0.31-.1h6.66v-1.247h-11.72v1.247h3.53Zm21.1,0.238v-5.575h1v-1.162h-1v-1.317a0.276,0.276,0,0,0,.3-0.224l-1.54-.1v1.639h-2.22v-1.317a0.325,0.325,0,0,0,.32-0.224l-1.53-.1v1.639h-1.16v1.162h1.16v5.575h-1.33v1.163h7.07v-1.163h-1.07Zm-1.24-3.432v1.149h-2.22v-1.149h2.22Zm0-1.036h-2.22v-1.107h2.22V527Zm0,3.222v1.246h-2.22v-1.246h2.22Zm2.85-6.612v5.155a12.511,12.511,0,0,1-1.07,5.869,14.681,14.681,0,0,0-1.39-1.821l-1.02.56a12.536,12.536,0,0,1,1.49,2.157l0.59-.336-0.12.154a4.636,4.636,0,0,1,1.04.771,9.712,9.712,0,0,0,1.61-4.819h2.68v3.222c0,0.294-.07.294-0.73,0.294-0.32,0-.74,0-1.15-0.028a4.788,4.788,0,0,1,.39,1.275c2.27,0.028,2.77-.224,2.77-1.541V523.61h-5.09Zm3.81,3.236h-2.55v-2.031h2.55v2.031Zm-2.55,1.19h2.55v2.06h-2.58c0.01-.463.03-0.911,0.03-1.331v-0.729Zm-6.99,4.819a7.445,7.445,0,0,1-1.85,2.451,6.93,6.93,0,0,1,.99.757,9.548,9.548,0,0,0,1.99-2.592,0.275,0.275,0,0,0,.32-0.126Z" transform="translate(-2058 -515)"/>
  <path id="_2022年4月19日_火_4月20日_水_" data-name="2022年4月19日（火）～ 4月20日（水）" class="cls-3" d="M2141.17,536.062h-5.8l2.19-3.129a17.665,17.665,0,0,0,2.52-3.65,6.761,6.761,0,0,0,.7-2.924,4.842,4.842,0,0,0-1.26-3.58,4.786,4.786,0,0,0-3.54-1.26,5.007,5.007,0,0,0-2.67.721,4.936,4.936,0,0,0-1.83,2.021,6.382,6.382,0,0,0-.65,2.872h3.33a4.006,4.006,0,0,1,.47-2.11,1.468,1.468,0,0,1,1.29-.75,1.249,1.249,0,0,1,1.13.645,3.437,3.437,0,0,1,.39,1.781,4.39,4.39,0,0,1-.41,1.764,12.827,12.827,0,0,1-1.3,2.138l-4.62,5.871v2.344h10.06v-2.754Zm11.7-7.406a9.415,9.415,0,0,0-1.3-5.285,4.55,4.55,0,0,0-7.34.017,9.557,9.557,0,0,0-1.27,5.4v3.223a9.183,9.183,0,0,0,1.33,5.22,4.528,4.528,0,0,0,7.3-.053,9.6,9.6,0,0,0,1.28-5.414v-3.105Zm-3.33,3.809a8.163,8.163,0,0,1-.41,2.888,1.3,1.3,0,0,1-1.2.944,1.328,1.328,0,0,1-1.26-1.008,8.712,8.712,0,0,1-.41-3.071v-4.253c0.04-2.461.59-3.692,1.64-3.692a1.323,1.323,0,0,1,1.24,1.008,8.575,8.575,0,0,1,.4,3.023v4.161Zm15.61,3.6h-5.8l2.19-3.129a18.194,18.194,0,0,0,2.53-3.65,6.89,6.89,0,0,0,.69-2.924,4.879,4.879,0,0,0-1.25-3.58,4.811,4.811,0,0,0-3.55-1.26,5.031,5.031,0,0,0-2.67.721,4.847,4.847,0,0,0-1.82,2.021,6.253,6.253,0,0,0-.65,2.872h3.32a3.908,3.908,0,0,1,.48-2.11,1.441,1.441,0,0,1,1.28-.75,1.249,1.249,0,0,1,1.13.645,3.432,3.432,0,0,1,.4,1.781,4.249,4.249,0,0,1-.42,1.764,12.827,12.827,0,0,1-1.3,2.138l-4.61,5.871v2.344h10.05v-2.754Zm12.09,0h-5.8l2.19-3.129a18.194,18.194,0,0,0,2.53-3.65,6.89,6.89,0,0,0,.69-2.924,4.842,4.842,0,0,0-1.26-3.58,4.786,4.786,0,0,0-3.54-1.26,5.031,5.031,0,0,0-2.67.721,4.936,4.936,0,0,0-1.83,2.021,6.382,6.382,0,0,0-.65,2.872h3.33a3.908,3.908,0,0,1,.48-2.11,1.441,1.441,0,0,1,1.28-.75,1.249,1.249,0,0,1,1.13.645,3.437,3.437,0,0,1,.39,1.781,4.39,4.39,0,0,1-.41,1.764,12.827,12.827,0,0,1-1.3,2.138l-4.62,5.871v2.344h10.06v-2.754Zm13.44-2.987v-3.041h5.34v-2.24h-5.34v-2.441h5.78v-2.32h-11.42c0.18-.4.36-0.78,0.52-1.18a0.544,0.544,0,0,0,.56-0.24l-2.9-.9a16.778,16.778,0,0,1-4.31,6.8,14.756,14.756,0,0,1,1.93,1.64,18.244,18.244,0,0,0,2.96-3.8h4.4v2.441h-5.9v5.281h-3.21v2.341h9.11v4.24h2.48v-4.24h6.9v-2.341h-6.9Zm-5.98-3.041h3.5v3.041h-3.5v-3.041Zm23.43-8.28h-3.33l-5.79,11.226,0.15,2.145h5.65v3.691h3.32v-3.691h1.45v-2.754h-1.45V521.754Zm-3.39,5.039,0.07-.129v5.707h-2.58Zm9.31-5.06v6.641c0,3.1-.28,6.962-3.66,9.542a10.2,10.2,0,0,1,1.82,1.781,10.688,10.688,0,0,0,3.76-6.2h8.44v3.1c0,0.58-.14.58-1.46,0.58-0.74,0-1.8,0-2.74-.06a10.037,10.037,0,0,1,1,2.52c4.48,0,5.74-.32,5.74-3v-14.9h-12.9Zm10.36,4.761h-7.9v-2.421h7.9v2.421Zm0,2.28v2.4h-8.04c0.08-.84.12-1.641,0.14-2.4h7.9Zm12.3-7.044h-0.36l-6.22,2.543v2.766l3.25-1.254v13.031h3.33V521.73Zm8.67,13.395a3.986,3.986,0,0,1-2.93,1.008h-0.22v2.859h0.34a6.613,6.613,0,0,0,5.43-2.5,10.809,10.809,0,0,0,1.92-6.815v-1.207a10.078,10.078,0,0,0-.62-3.638,5.527,5.527,0,0,0-1.75-2.455,4.142,4.142,0,0,0-2.57-.856,4.344,4.344,0,0,0-2.52.774,5.129,5.129,0,0,0-1.77,2.173,7.442,7.442,0,0,0-.63,3.088,7.082,7.082,0,0,0,1.12,4.178,3.578,3.578,0,0,0,3.07,1.565,3.171,3.171,0,0,0,2.3-1.079A4.708,4.708,0,0,1,2245.38,535.125Zm-1.56-5.28a5.01,5.01,0,0,1-.45-2.326,5.327,5.327,0,0,1,.44-2.3,1.314,1.314,0,0,1,1.15-.943,1.361,1.361,0,0,1,1.18.955,6.118,6.118,0,0,1,.46,2.631v1.524a1.724,1.724,0,0,1-1.51,1.312A1.408,1.408,0,0,1,2243.82,529.845Zm9.68,9.531h2.48v-1.32h8.61v1.3h2.58V521.973H2253.5v17.4Zm11.09-10.6h-8.61v-4.381h8.61v4.381Zm-8.61,2.381h8.61v4.481h-8.61v-4.481Zm21.78-7.976h-1.49a11.04,11.04,0,0,0,0,15.11h1.49v-0.08a10.4,10.4,0,0,1,0-14.95v-0.08Zm7.31,0.16v5.122c0,2.4-1.46,6.322-6.32,8.179a9.443,9.443,0,0,1,1.36,1.649,10.448,10.448,0,0,0,6-6.419,10.931,10.931,0,0,0,6.26,6.419,7.9,7.9,0,0,1,1.34-1.809c-5.02-1.857-6.54-5.586-6.54-8.035v-4.514a0.6,0.6,0,0,0,.49-0.432l-1.55-.08Zm5.83,3.025a24.945,24.945,0,0,1-2.2,4.45s1.64,0.8,1.65.816a31.426,31.426,0,0,0,2.39-4.066,0.532,0.532,0,0,0,.49-0.176Zm-10.07,5.538c1.37-1.152,1.85-3.073,2.13-5.09l-1.94-.432a6.656,6.656,0,0,1-1.94,4.434Zm13.82,6.387h1.49a11.04,11.04,0,0,0,0-15.11h-1.49v0.08a10.4,10.4,0,0,1,0,14.95v0.08Zm24.62-9.895a3.908,3.908,0,0,1-3.18,2.4,3.679,3.679,0,0,1-2.99-1.441,6.051,6.051,0,0,0-4.72-2.2c-2.14,0-4.1,1.2-5.44,3.681l2.2,1.2a3.908,3.908,0,0,1,3.18-2.4,3.686,3.686,0,0,1,2.98,1.441,6.057,6.057,0,0,0,4.73,2.2c2.14,0,4.1-1.2,5.44-3.681Zm17.11-6.64h-3.33l-5.79,11.226,0.15,2.145h5.65v3.691h3.32v-3.691h1.45v-2.754h-1.45V521.754Zm-3.39,5.039,0.07-.129v5.707h-2.58Zm9.31-5.06v6.641c0,3.1-.28,6.962-3.66,9.542a10.2,10.2,0,0,1,1.82,1.781,10.688,10.688,0,0,0,3.76-6.2h8.44v3.1c0,0.58-.14.58-1.46,0.58-0.74,0-1.8,0-2.74-.06a10.037,10.037,0,0,1,1,2.52c4.48,0,5.74-.32,5.74-3v-14.9h-12.9Zm10.36,4.761h-7.9v-2.421h7.9v2.421Zm0,2.28v2.4h-8.04c0.08-.84.12-1.641,0.14-2.4h7.9Zm15.56,7.288h-5.8l2.19-3.129a17.782,17.782,0,0,0,2.53-3.65,6.907,6.907,0,0,0,.7-2.924,4.386,4.386,0,0,0-4.81-4.84,4.972,4.972,0,0,0-2.66.721,4.8,4.8,0,0,0-1.83,2.021,6.253,6.253,0,0,0-.65,2.872h3.33a3.913,3.913,0,0,1,.47-2.11,1.453,1.453,0,0,1,1.28-.75,1.238,1.238,0,0,1,1.13.645,3.336,3.336,0,0,1,.4,1.781,4.249,4.249,0,0,1-.42,1.764,13.391,13.391,0,0,1-1.29,2.138l-4.62,5.871v2.344h10.05v-2.754Zm11.71-7.406a9.415,9.415,0,0,0-1.3-5.285,4.55,4.55,0,0,0-7.34.017,9.552,9.552,0,0,0-1.28,5.4v3.223a9.263,9.263,0,0,0,1.33,5.22,4.528,4.528,0,0,0,7.3-.053,9.515,9.515,0,0,0,1.29-5.414v-3.105Zm-3.33,3.809a8.359,8.359,0,0,1-.42,2.888,1.283,1.283,0,0,1-1.2.944,1.345,1.345,0,0,1-1.26-1.008,8.754,8.754,0,0,1-.4-3.071v-4.253c0.04-2.461.58-3.692,1.64-3.692a1.332,1.332,0,0,1,1.24,1.008,8.575,8.575,0,0,1,.4,3.023v4.161Zm6.96,6.911h2.48v-1.32h8.61v1.3h2.58V521.973h-13.67v17.4Zm11.09-10.6h-8.61v-4.381h8.61v4.381Zm-8.61,2.381h8.61v4.481h-8.61v-4.481Zm21.78-7.976h-1.49a11.04,11.04,0,0,0,0,15.11h1.49v-0.08a10.4,10.4,0,0,1,0-14.95v-0.08Zm9.53,0.448a0.387,0.387,0,0,0,.44-0.32l-2.49-.112v12.6c0,0.4-.06.4-1.12,0.4-0.48,0-1.08,0-1.72-.032a7.731,7.731,0,0,1,.75,2.145c3.42,0,4.14-.529,4.14-2.513v-4.77a12.429,12.429,0,0,0,5.14,6.1,8.292,8.292,0,0,1,1.49-1.793,10.962,10.962,0,0,1-4.66-4.433,32.4,32.4,0,0,0,3.89-3.57,0.633,0.633,0,0,0,.53-0.128l-2-1.488a24.365,24.365,0,0,1-3.25,3.569,21.316,21.316,0,0,1-1.14-3.233v-2.417Zm-3.93,3.537h-4.34V529.1h3.49a10.53,10.53,0,0,1-4.02,6.323,7.288,7.288,0,0,1,1.6,1.52c2.29-1.7,4-4.946,4.74-8.979a0.686,0.686,0,0,0,.21-0.305l-1.33-.576Zm11.29,11.125h1.49a11.04,11.04,0,0,0,0-15.11h-1.49v0.08a10.4,10.4,0,0,1,0,14.95v0.08Z" transform="translate(-2058 -515)"/>
  <rect id="タグ塗-2" data-name="タグ塗" class="cls-1" y="40" width="60" height="30"/>
  <path id="会場" class="cls-2" d="M2082.34,568.5v-1.121a17.64,17.64,0,0,0,2.52,1.485,7.441,7.441,0,0,1,.85-1.205,14.5,14.5,0,0,1-5.94-4.4,0.392,0.392,0,0,0,.33-0.238l-1.84-.1a14.534,14.534,0,0,1-5.88,4.958,5.728,5.728,0,0,1,.78,1.093,16.856,16.856,0,0,0,2.48-1.5V568.5h6.7Zm-6.4-1.233a13.41,13.41,0,0,0,3.02-3.026,14.555,14.555,0,0,0,3.22,3.026h-6.24Zm0.78,3.964a24.259,24.259,0,0,1-1.37,3.012c-0.77.028-1.47,0.028-2.06,0.042l0.47,1.5a0.269,0.269,0,0,0,.24-0.21c2.19-.1,5.63-0.253,8.91-0.435,0.25,0.336.46,0.673,0.63,0.953l1.22-.757a18.822,18.822,0,0,0-3.3-3.684l-1.15.617a19.309,19.309,0,0,1,1.73,1.793c-1.79.056-3.61,0.112-5.24,0.154a27.26,27.26,0,0,0,1.38-2.718,0.4,0.4,0,0,0,.38-0.168l-0.31-.1h6.66v-1.247h-11.72v1.247h3.53Zm20.79-7.9v4.678h6.6V563.33h-6.6Zm1.19,1.877v-0.925h4.18v0.925h-4.18Zm0,1.849v-0.939h4.18v0.939h-4.18Zm6.42,1.639h-8.99v1.134h1.86a7.96,7.96,0,0,1-1.37,1.779c-0.24-1.036-.24-1.092-0.27-1.148l-1.36.574V567.21h1.45v-1.261h-1.45V563.26c0.23-.028.31-0.1,0.32-0.21l-1.56-.1v3h-1.56v1.261h1.56v4.328c-0.7.294-1.33,0.547-1.84,0.729l0.58,1.457a0.272,0.272,0,0,0,.18-0.253c0.99-.448,2.5-1.162,3.93-1.863v0.014a6.171,6.171,0,0,1-1.31,1.009,7.962,7.962,0,0,1,.84.77,8.639,8.639,0,0,0,1.85-1.625h1.2a9.126,9.126,0,0,1-3.01,3.012,4.565,4.565,0,0,1,.9.8,11.278,11.278,0,0,0,3.29-3.811h1.13A8.034,8.034,0,0,1,2099,575.4a3.938,3.938,0,0,1,.95.771,9.894,9.894,0,0,0,2.62-4.4h0.93c-0.17,2.018-.35,2.844-0.59,3.082a0.473,0.473,0,0,1-.42.154c-0.2,0-.63-0.014-1.12-0.056a2.7,2.7,0,0,1,.29,1.079c1.5,0.042,1.89.014,2.3-.434,0.38-.407.6-1.541,0.82-4.455a2.136,2.136,0,0,0,.06-0.35l-0.71-.112-0.27.028h-5.07c0.19-.294.36-0.588,0.52-0.883h5.81V568.7Z" transform="translate(-2058 -515)"/>
  <path id="産業貿易センター浜松町館" class="cls-3" d="M2144.22,564.293h2.92v-2.04h-6.88v-0.94a0.508,0.508,0,0,0,.54-0.381l-2.96-.16v1.481h-6.82v2.04h3.52l-0.46.12a10.4,10.4,0,0,1,.76,2.021h-3.66v3.28c0,2.421-.16,5.962-1.82,8.442a9.046,9.046,0,0,1,1.86,1.541c1.9-2.8,2.26-7.122,2.26-9.963v-1.24h14.64v-2.06h-4.8a19.7,19.7,0,0,0,.98-1.741,0.535,0.535,0,0,0,.56-0.22Zm-2.76,2.141h-4.78l0.58-.16a8.61,8.61,0,0,0-.76-1.981h5.24a13.556,13.556,0,0,1-.72,1.981Zm4.94,9.062v-1.841H2142v-1.52h4.92v-1.841H2142v-0.96c0.38-.06.52-0.18,0.54-0.38l-2.9-.16v1.5h-2.02c0.1-.22.18-0.44,0.26-0.66a0.429,0.429,0,0,0,.48-0.22l-2.44-.68a9.939,9.939,0,0,1-2.26,3.981,12.21,12.21,0,0,1,1.76,1.08,11.267,11.267,0,0,0,1.26-1.66h2.96v1.52h-4V575.5h4v1.78h-5.8v1.98H2148v-1.98h-6V575.5h4.4Zm21.58-2.421h-7.84v-0.9h6.06v-1.74h-6.06v-0.9h7v-1.88h-4a14.377,14.377,0,0,0,.78-1.36,0.5,0.5,0,0,0,.52-0.2l-0.18-.06h3.66v-1.961h-2.66c0.46-.66.94-1.46,1.28-2.08a0.459,0.459,0,0,0,.52-0.22l-2.7-.841a16.29,16.29,0,0,1-1.34,2.881l0.7,0.26h-1.7v-2.76a0.52,0.52,0,0,0,.54-0.4l-2.82-.14v3.3h-1.48v-2.78a0.482,0.482,0,0,0,.52-0.381l-2.76-.14v3.3h-1.84l0.98-.36a14.348,14.348,0,0,0-1.54-2.841l-2.06.7a16.276,16.276,0,0,1,1.26,2.5h-2.7v1.961l4.22-.02v0.02l-0.24.04a9.181,9.181,0,0,1,.68,1.58h-3.84v1.88h6.82v0.9h-5.82v1.74h5.82v0.9h-7.7v1.981h5.78a20.876,20.876,0,0,1-6.38,2.36,11.345,11.345,0,0,1,1.54,2,19.645,19.645,0,0,0,6.76-3.26v3.5h2.38v-3.62a17.22,17.22,0,0,0,6.78,3.4,10.122,10.122,0,0,1,1.62-2.18,18.357,18.357,0,0,1-6.38-2.2h5.82v-1.981Zm-11-5.4v-0.02l0.34-.06a10.893,10.893,0,0,0-.68-1.56h4.78c-0.24.56-.52,1.16-0.74,1.62Zm28.79,0.38h-13.5v8.222h2.94a24.322,24.322,0,0,1-5.46,1.74,21.362,21.362,0,0,1,1.64,1.66,33.323,33.323,0,0,0,6.04-2.26,0.68,0.68,0,0,0,.2.02,0.439,0.439,0,0,0,.36-0.16l-2.06-1h5.88l-1.8,1.04a38.694,38.694,0,0,1,5.24,2.381l2.8-1.081c-1.36-.66-3.66-1.6-5.7-2.34h3.42v-8.222Zm-2.44,3.661v0.86h-8.74v-0.86h8.74Zm0-2.221v0.861h-8.74v-0.861h8.74Zm0,4.441v0.9h-8.74v-0.9h8.74Zm-4.88-6.961a6.132,6.132,0,0,1,.62,1.04c2.9-.98,3.72-2.581,4.08-4.541h1.9a3.975,3.975,0,0,1-.44,1.98,0.642,0.642,0,0,1-.56.18c-0.28,0-.88,0-1.56-0.06a4.554,4.554,0,0,1,.58,1.961c2.24,0.1,2.92-.1,3.44-0.68,0.46-.5.68-1.761,0.88-4.5l0.06-.6-1.28-.18-0.48.04h-6.9v1.86h2.26a3.578,3.578,0,0,1-2.68,2.641,15.7,15.7,0,0,0-1.88-2.821l-1.82.62c0.28,0.38.58,0.78,0.84,1.2l-2.02.3-0.08-1.9a30.769,30.769,0,0,0,4.52-1.02,0.674,0.674,0,0,0,.48-0.08l-1.66-1.621a21.637,21.637,0,0,1-4.24,1.141l-1.42-.4,0.2,4.181c-0.56.08-1.06,0.14-1.52,0.2l0.82,2.24a0.362,0.362,0,0,0,.3-0.32c1.4-.24,3.48-0.62,5.56-1.04a5.866,5.866,0,0,1,.32.78Zm25.57,4.061h-8.86c0.28-.36.56-0.741,0.8-1.121a0.533,0.533,0,0,0,.48-0.1h8.18v-8.161h-13.29v8.161h1.89a14.982,14.982,0,0,1-4.79,4.1,14.382,14.382,0,0,1,1.68,1.621,17.81,17.81,0,0,0,3.13-2.4h1.74a14.425,14.425,0,0,1-5.05,4.481,11.553,11.553,0,0,1,1.64,1.64,18.031,18.031,0,0,0,6.13-6.121h1.7a12.524,12.524,0,0,1-3.92,5.221,12.844,12.844,0,0,1,1.8,1.441,16.82,16.82,0,0,0,4.62-6.662h1.4c-0.24,2.741-.56,3.941-0.9,4.3a0.985,0.985,0,0,1-.72.24c-0.36,0-1.16-.02-1.98-0.1a4.827,4.827,0,0,1,.62,2.08c2.48,0.041,3.42.061,4.16-.82,0.64-.68,1.04-2.5,1.4-6.961,0.04-.22.1-0.46,0.12-0.64l-1.44-.28Zm-1.84-7.462v1.24h-8.48v-1.24h8.48Zm0,3.041v1.28h-8.48v-1.28h8.48Zm9.76,2.56c-0.02,1.541-.04,4.081-0.04,5.361,0,2.4.68,3.761,5.66,3.761a34.979,34.979,0,0,0,5.93-.46,11.141,11.141,0,0,0,.28-2.841,22.413,22.413,0,0,1-6.45.861c-2.42,0-2.84-.74-2.84-1.821,0-.98.04-3.14,0.06-5.3,2.72-.46,5.38-0.9,6.15-1a14.674,14.674,0,0,1-3.99,4.2,7.841,7.841,0,0,0,2.44,1.34,28.668,28.668,0,0,0,5.03-6.8,7.9,7.9,0,0,0-1.8-1.561,9.018,9.018,0,0,1-1.02.32c-1.15.26-4.17,0.741-6.81,1.121,0.02-1.761.06-3.2,0.06-4.081a16.226,16.226,0,0,0-2.96-.12c0.1,0.64.18,1.48,0.22,2.18,0.04,0.68.06,1.541,0.08,2.4-0.58.08-1.06,0.14-1.4,0.18-1.02.14-2.12,0.24-3.04,0.3a9.324,9.324,0,0,0,.86,2.58Zm16.24-6.3a25.811,25.811,0,0,0-1.44,2.42,31.769,31.769,0,0,1,5.34,3.2,10.329,10.329,0,0,0,1.56-2.54A29.359,29.359,0,0,0,2228.18,562.873Zm-1.06,13.183a7.408,7.408,0,0,0,1.76,2.7,25.715,25.715,0,0,0,5.9-2.46,21.168,21.168,0,0,0,7.9-8.2,7.916,7.916,0,0,0-2.06-2.28,17.2,17.2,0,0,1-7.3,8.1A18.265,18.265,0,0,1,2227.12,576.056Zm30.36-11.523s-0.6.06-4.26,0.08a16.975,16.975,0,0,0,1.1-2.16,6.4,6.4,0,0,0-2.5-1.16,15.077,15.077,0,0,1-7.02,8.341,5.728,5.728,0,0,0,2.22,1.761,18.913,18.913,0,0,0,4.74-4.6l5.52-.08a13.761,13.761,0,0,1-2.22,4.341,31.355,31.355,0,0,0-3.44-2.241,10.676,10.676,0,0,0-1.68,1.741,32.037,32.037,0,0,1,3.42,2.4,16.589,16.589,0,0,1-7.58,4.041,7.729,7.729,0,0,0,2.22,2.2,18.366,18.366,0,0,0,7.26-4.621c0.62,0.561,1.16,1.1,1.62,1.6a4.916,4.916,0,0,0,1.84-2.061,21.778,21.778,0,0,0-1.72-1.54,21.773,21.773,0,0,0,3.4-6.921,6.713,6.713,0,0,0-1.52-1.241,5.2,5.2,0,0,1-1.4.14v-0.02Zm5.22,4.461a19.88,19.88,0,0,0,.2,2.961c2.7,0.02,13.39-.14,16.41-0.02a17.608,17.608,0,0,0-.1-2.921c-2.3.04-8.81,0.12-13.29,0.12C2264.84,569.134,2263.36,569.054,2262.7,568.994Zm37.19,5.281v-2.22h-2.9v-3.6h2.4v-2.24h-8.88v-1.621a60.287,60.287,0,0,0,7.66-1.58,0.879,0.879,0,0,0,.54-0.08l-1.92-1.981a46.615,46.615,0,0,1-6.78,1.661l-1.9-.42v9.862h-1.76v0.86l-1.87-1.42a56.819,56.819,0,0,1-3.24,6.461l2.44,1.62a0.6,0.6,0,0,0,.1-0.3,0.736,0.736,0,0,0-.16-0.42c0.84-1.54,1.85-3.72,2.73-5.8v1.22h13.54Zm-5.26-5.821v3.6h-4.12v-3.6h4.12Zm-12.69-5.821a15.536,15.536,0,0,1,3.69,2.28l1.42-1.96a15.187,15.187,0,0,0-3.79-2.081Zm-1.2,5.441a15.911,15.911,0,0,1,3.74,2.2l1.37-1.98a16.544,16.544,0,0,0-3.85-2.02Zm19.25,10.322a23.236,23.236,0,0,0-3.9-3.7l-2.04,1.2a23.939,23.939,0,0,1,3.76,3.841Zm-10.28-3.641a13.06,13.06,0,0,1-3.88,3.421,16.157,16.157,0,0,1,1.9,1.581,21.094,21.094,0,0,0,4.2-3.761,0.5,0.5,0,0,0,.16.02,0.407,0.407,0,0,0,.38-0.2Zm16.73-7.6h2.26v-2.221h-2.26v-3.62a0.519,0.519,0,0,0,.52-0.381l-2.78-.16v4.161h-2.66v2.221h2.44a19.688,19.688,0,0,1-2.96,6.781,11.085,11.085,0,0,1,1.14,2.221,17.278,17.278,0,0,0,2.04-4.261v7.741h2.26v-8.481c0.5,0.9,1.02,1.86,1.3,2.52l1.34-1.84c-0.36-.56-2.04-2.881-2.64-3.581v-1.1Zm6.2,1.44a48.119,48.119,0,0,1-2.4,7.9l-1.94.04,0.74,2.78a0.423,0.423,0,0,0,.38-0.32c2.04-.12,5.14-0.38,8.22-0.62a12.22,12.22,0,0,1,.42,1.321l2.28-1.181a34.182,34.182,0,0,0-3.08-6.3l-2.08,1c0.54,0.94,1.1,2.021,1.58,3.081-1.4.04-2.8,0.1-4.1,0.14a52.867,52.867,0,0,0,2.44-6.682,0.632,0.632,0,0,0,.62-0.32Zm2.38-7.061a30.989,30.989,0,0,0,3.38,8.261,10.108,10.108,0,0,1,1.96-1.96,22.753,22.753,0,0,1-3.16-6.962Zm-3.84-.6a19.143,19.143,0,0,1-2.96,7.482,12.861,12.861,0,0,1,1.88,1.54,23.863,23.863,0,0,0,3.4-8.021,0.475,0.475,0,0,0,.52-0.26Zm10.7,0.761v15.723h2.02V575.9h6.9v-14.2h-8.92Zm3.46,5.961h-1.44v-3.861h1.44v3.861Zm1.86,0v-3.861h1.52v3.861h-1.52Zm-1.86,2.06v4.081h-1.44v-4.081h1.44Zm1.86,0h1.52v4.081h-1.52v-4.081Zm4-6.721v2.36h3.86v11.483c0,0.46-.08.46-1.36,0.46-0.6,0-1.38,0-2.06-.04a9.678,9.678,0,0,1,.8,2.4c4.04,0,5.1-.36,5.1-2.78V565.353h2.54v-2.36h-8.88Zm27.32,3.6h1.3v-3.541h-3.96v-1.72a0.483,0.483,0,0,0,.52-0.381l-2.84-.16v2.261h-3.84v0.8a25.54,25.54,0,0,0-2.66-2.34l0.02-.02a0.477,0.477,0,0,0,.48-0.32l-2.58-.421a15.224,15.224,0,0,1-3.78,5.162,7.215,7.215,0,0,1,1.48,1.28v9.262c-0.52.1-1.02,0.18-1.44,0.26l0.84,2.42a0.461,0.461,0,0,0,.32-0.34c1.36-.34,3.36-0.82,5.34-1.34a10.324,10.324,0,0,1,.64,1.56l1.96-1.04a18.773,18.773,0,0,0-2.64-4.561l-1.82.9c0.3,0.42.6,0.881,0.88,1.361-0.66.14-1.3,0.26-1.94,0.38v-2.741h4.56v-6.9h-2.28v-1.241a0.427,0.427,0,0,0,.48-0.34l-2.44-.14c0.34-.48.66-0.94,0.94-1.4a17.813,17.813,0,0,1,2.54,2.621l1.1-.961v1.641h1.2v13.062h2.18V578.9h4.04v0.64h2.22v-6.621h-6.26v-1.06h5.44v-5.261Zm-13.72,2.42v-0.86h2.4v0.86h-2.4Zm-1.06-2.6a20.6,20.6,0,0,0,1.38-1.7v1.7h-1.38Zm1.06,4.261h2.4v0.92h-2.4v-0.92Zm12.84-4.421h-5.86v-1.3h5.86v1.3Zm-4.56,3.7v-1.8h3.24v1.8h-3.24Zm4.04,6.922h-4.04V574.9h4.04v1.981Z" transform="translate(-2058 -515)"/>
  <rect id="タグ塗-3" data-name="タグ塗" class="cls-1" y="80" width="60" height="30"/>
  <path id="主催" class="cls-2" d="M2079.68,611.286h4.34v-1.274h-4.34v-2.774h4.98v-1.3h-4.1l0.97-1.12a24.864,24.864,0,0,0-4.47-1.961l-0.94,1.05a22.25,22.25,0,0,1,4.31,2.031h-7.07v1.3h4.9v2.774h-4.23v1.274h4.23v3h-5.57v1.3h12.66v-1.3h-5.67v-3Zm21.43,3.1v-1.065h2.67v-0.98h-2.67V611.3h2.67v-0.994h-2.67V609.3h3.13v-1.05h-3.18c0.2-.393.4-0.8,0.54-1.121a0.3,0.3,0,0,0,.33-0.154l-1.37-.406h3.42v-2.648a0.306,0.306,0,0,0,.31-0.238c-0.44-.014-1.15-0.07-1.59-0.084v1.835h-2.11v-2.059a0.3,0.3,0,0,0,.32-0.238l-1.64-.1v2.4h-2v-1.513a0.3,0.3,0,0,0,.32-0.238l-1.54-.084v2.97h1.08a10.719,10.719,0,0,1-2.72,3.992,6.342,6.342,0,0,1,.85.952,8.988,8.988,0,0,0,1.11-1.19v5.757h1.28v-0.631h6.8v-1.064h-3.34Zm-3.46-4.076V609.3h2.18v1.009h-2.18Zm0,2.031V611.3h2.18v1.037h-2.18Zm2.76-5.771a13.438,13.438,0,0,1-.61,1.681h-2.07a13.016,13.016,0,0,0,.57-1.191,0.342,0.342,0,0,0,.35-0.14l-1.09-.35h2.85Zm-0.58,6.751v1.065h-2.18v-1.065h2.18Zm-5.62-10.309a18.107,18.107,0,0,1-3.18,6.065,9.769,9.769,0,0,1,.62,1.317,14.509,14.509,0,0,0,1.36-1.863v7.564h1.29V606.65a0.319,0.319,0,0,0,.33-0.21l-0.4-.126a27,27,0,0,0,1.12-2.662,0.328,0.328,0,0,0,.36-0.14Z" transform="translate(-2058 -515)"/>
  <path id="日経BP" class="cls-3" d="M2130.3,619.376h2.48v-1.32h8.6v1.3h2.58V601.973H2130.3v17.4Zm11.08-10.6h-8.6v-4.381h8.6v4.381Zm-8.6,2.381h8.6v4.481h-8.6v-4.481Zm30.41-9.442h-8.3v2.14h2.58l-1.54.44a11.823,11.823,0,0,0,2.2,3.341,14.285,14.285,0,0,1-3.78,1.66,7.744,7.744,0,0,1,1.3,1.921,17.635,17.635,0,0,0,4.24-2.021,13.933,13.933,0,0,0,4.58,2.041,9.611,9.611,0,0,1,1.44-2,13.424,13.424,0,0,1-4.18-1.52,12.281,12.281,0,0,0,3.2-5.1,0.748,0.748,0,0,0,.26-0.3l-1.6-.7Zm-1.38,2.14a10.14,10.14,0,0,1-1.96,2.461,8.753,8.753,0,0,1-1.82-2.461h3.78Zm2.96,10.8V612.5h-3.6v-1.84a0.512,0.512,0,0,0,.52-0.4l-2.9-.16v2.4h-3.32v2.16h3.32V617h-4.34v2.14h11.26V617h-4.54v-2.341h3.6Zm-9.7,1.741a24.345,24.345,0,0,0-1.28-3.881l-1.78.58a24.3,24.3,0,0,1,1.2,3.961Zm0.08-4.841a16.967,16.967,0,0,0-1.88-4.281l-1.72.72a15.756,15.756,0,0,1,.76,1.54l-2.08.02a47.624,47.624,0,0,0,3.62-5.141,0.666,0.666,0,0,0,.56-0.22l-2.26-1.02c-0.48,1-1.14,2.16-1.84,3.3-0.2-.26-0.44-0.54-0.68-0.82a33.871,33.871,0,0,0,2.02-3.7,0.649,0.649,0,0,0,.54-0.2l-2.34-.961a27.463,27.463,0,0,1-1.52,3.521l-0.44-.4-1.16,1.64a16.711,16.711,0,0,1,2.36,2.741c-0.32.46-.66,0.9-0.98,1.3h-1.44l0.48,2.4a0.419,0.419,0,0,0,.36-0.3c0.66-.02,1.46-0.06,2.36-0.12v1.56l-2.28-.54a17.607,17.607,0,0,1-.98,4.7,16.448,16.448,0,0,1,1.68.84,18.014,18.014,0,0,0,1.16-4.781,0.426,0.426,0,0,0,.42-0.16v6.461h2.1v-8.2l1.06-.08a8.266,8.266,0,0,1,.26,1Zm19.58-2.041a3.517,3.517,0,0,0,2.46-3.32,3.4,3.4,0,0,0-1.5-2.9,7.1,7.1,0,0,0-4.24-.98,21.93,21.93,0,0,0-3.9.32v15.123a24.183,24.183,0,0,0,3.28.2c2.74,0,4.46-.5,5.5-1.44a4.23,4.23,0,0,0,1.4-3.161,3.794,3.794,0,0,0-3-3.761v-0.08Zm-4.24-.82v-4.081a6.092,6.092,0,0,1,1.3-.1c1.32,0,2.46.5,2.46,2.021,0,1.26-1,2.16-2.68,2.16h-1.08Zm0,2.161h1.1c1.52,0,3.04.64,3.04,2.42,0,1.741-1.36,2.461-2.96,2.461a6.136,6.136,0,0,1-1.18-.08v-4.8Zm9.35,6.961h2.94v-5.761a5.667,5.667,0,0,0,1.08.08c2.3,0,5.82-.94,5.82-5.161a4.456,4.456,0,0,0-1.48-3.441,6.579,6.579,0,0,0-4.38-1.22,21.9,21.9,0,0,0-3.98.32v15.183Zm2.94-13.083a5.814,5.814,0,0,1,1.28-.12,2.366,2.366,0,0,1,2.68,2.5,2.6,2.6,0,0,1-2.92,2.7,4.982,4.982,0,0,1-1.04-.08v-5Z" transform="translate(-2058 -515)"/>
</svg>
