<svg xmlns="http://www.w3.org/2000/svg" width="373.87" height="19.97"><path d="M16.71 16.58c0 2.07.38 2.29.74 2.48v.38h-4.56a5.9 5.9 0 01-.48-2.44v-1.93a2.69 2.69 0 00-3.1-2.83h-5v7.2H0V.53h10.2c4.8 0 6.7 2.47 6.7 5.13A5.25 5.25 0 0115.67 9a5.51 5.51 0 01-2.59 1.54 3.92 3.92 0 012 .62 3.92 3.92 0 011.61 3.36zM4.32 9h5.4a2.68 2.68 0 002.88-2.57 2.54 2.54 0 00-2.76-2.52H4.32zm18.26 4.37c.1 2.3 1.28 3.72 3.63 3.72s2.93-1.22 3.19-1.78h3.94a5.21 5.21 0 01-1.28 2.33A7.68 7.68 0 0126.21 20c-4.37 0-7.54-2.62-7.54-7.42 0-5.28 3.77-7.41 7.35-7.41A7.22 7.22 0 0132 8a9.55 9.55 0 011.6 5.4zm7.11-2.45C28.78 8 26.59 8 26.09 8a3.5 3.5 0 00-3.46 2.9zm16.22-.36c-.26-2.47-2.73-2.47-3.14-2.47-3.15 0-3.63 2.71-3.63 4.39 0 1.87.68 4.51 3.6 4.51s3.1-1.77 3.27-2.71h4.05c-.48 3.87-3.62 5.72-7.27 5.72-4.32 0-7.68-2.5-7.68-7.35s3.7-7.48 7.73-7.48c3.7 0 6.43 1.75 7.06 5.42zm5.64 1.99c0-5.23 3.67-7.41 7.49-7.41s7.46 2.18 7.46 7.41S62.83 20 59 20s-7.45-2.24-7.45-7.45zM59 8.09c-2 0-3.46 1.61-3.46 4.53.04 2.21 1.1 4.38 3.46 4.38 2.23 0 3.43-1.92 3.43-4.44S61.27 8.09 59 8.09zm13.1-2.45l.07 2a4.44 4.44 0 014.13-2.5A3.58 3.58 0 0180 7.61a4.37 4.37 0 014.15-2.47c2.62 0 4.44 1.72 4.44 5v9.31h-3.87v-8.7c0-.45-.1-2.33-2-2.33s-2.23 1.95-2.23 2.72v8.3h-3.83v-8.76c0-1.66-.82-2.26-2-2.26-2 0-2.25 2-2.25 2.84v8.18h-3.84V5.64zm22.65 0l.07 2A4.45 4.45 0 0199 5.14a3.59 3.59 0 013.7 2.47 4.37 4.37 0 014.15-2.47c2.62 0 4.44 1.72 4.44 5v9.31h-3.86v-8.7c0-.45-.1-2.33-2-2.33s-2.23 1.95-2.23 2.72v8.3h-3.89v-8.76c0-1.66-.81-2.26-1.94-2.26-2 0-2.26 2-2.26 2.84v8.18h-3.89V5.64zm22.46 7.73c.1 2.3 1.28 3.72 3.63 3.72s2.93-1.22 3.19-1.78H128a5.28 5.28 0 01-1.27 2.33 7.71 7.71 0 01-5.89 2.36c-4.37 0-7.54-2.62-7.54-7.42 0-5.28 3.77-7.41 7.35-7.41a7.21 7.21 0 016 2.83 9.65 9.65 0 011.61 5.4zm7.11-2.45c-.91-2.9-3.1-2.9-3.6-2.9a3.5 3.5 0 00-3.46 2.9zM134 5.64l.07 1.58a5.57 5.57 0 014.65-2.08 5.32 5.32 0 015.48 5.59v8.71h-3.87V11.3a2.93 2.93 0 00-3.14-3 2.89 2.89 0 00-3.12 3v8.14h-3.87V5.64zM156.79.53h3.87v18.91h-3.49l-.07-1.92a4.69 4.69 0 01-4.46 2.48c-4.8 0-6.46-3.82-6.46-7.44 0-4.15 2-7.39 6.2-7.39 3 0 4 1.48 4.41 2.18zm-6.46 12c0 2.09.72 4.25 3.2 4.25s3.21-2.16 3.21-4.25-.74-4.22-3.21-4.22-3.2 2.11-3.2 4.19zm23.31 6.91a3.34 3.34 0 01-.41-1.63c-.6.69-1.9 2.16-5.26 2.16-1.65 0-5.35-.26-5.35-4.37 0-3.43 2.95-3.84 6.46-4.32 3.36-.48 4.15-.57 4.15-1.73 0-1.56-1.53-1.63-2.52-1.63-3.58 0-3.6 1.18-3.6 1.85h-3.79a4.29 4.29 0 011.77-3.34c1.44-1 4.2-1.29 5.55-1.29 2.06 0 6.46.55 6.46 4.46v7.94a2.27 2.27 0 00.67 1.59v.31zm-.41-6.6a7.59 7.59 0 01-2.73.7c-2.53.38-3.82.57-3.82 1.94 0 1.56 2.59 1.56 2.74 1.56a3.67 3.67 0 003.81-2.83zM185.35 8v7.24c0 1.37.82 1.57 1.92 1.57h1.15v3c-.81.07-1.51.12-2.25.12-2.91 0-4.76-1.32-4.76-4V8h-2.54V5.64h2.54V1.78h3.94v3.86h3.07V8zm9.36-4.09h-3.94V.53h3.94zm0 15.53h-3.94V5.64h3.94zm2.57-6.89c0-5.23 3.67-7.41 7.49-7.41s7.46 2.18 7.46 7.41-3.67 7.45-7.46 7.45-7.49-2.24-7.49-7.45zm7.49-4.46c-2 0-3.46 1.61-3.46 4.53 0 2.21 1.06 4.37 3.46 4.37 2.23 0 3.43-1.92 3.43-4.44s-1.2-4.46-3.43-4.46zM218 5.64l.07 1.58a5.59 5.59 0 014.66-2.08 5.32 5.32 0 015.47 5.59v8.71h-3.86V11.3a2.94 2.94 0 00-3.15-3 2.9 2.9 0 00-3.12 3v8.14h-3.87V5.64zm21.35 3.79c0-1.25-1.13-1.68-2.45-1.68-.65 0-2.21.12-2.21 1.3 0 1 1.18 1.32 1.47 1.39 5.33 1.32 7.53 1.87 7.53 4.9 0 2.78-2.49 4.63-6.64 4.63a9.22 9.22 0 01-4.47-1 4.42 4.42 0 01-2.35-3.79h4c.17 1.87 1.47 2.16 3 2.16 2 0 2.4-1 2.4-1.51 0-1.08-1.08-1.32-2-1.56-4.8-1.18-6.94-1.68-6.94-4.76 0-4.36 5.4-4.36 6.26-4.36a8 8 0 015.14 1.58 3.63 3.63 0 011.22 2.71zm13.92 3.12c0-5.23 3.67-7.41 7.49-7.41s7.46 2.18 7.46 7.41-3.67 7.45-7.46 7.45-7.49-2.24-7.49-7.45zm7.49-4.46c-2 0-3.46 1.61-3.46 4.53 0 2.21 1.06 4.37 3.46 4.37 2.23 0 3.43-1.92 3.43-4.44s-1.19-4.46-3.43-4.46zm18.31-2.45V8H276v11.44h-3.94V8h-2.56V5.64h2.56V4.39c0-3.79 2.76-4.39 5-4.39h2v2.62h-1.49c-1.08 0-1.56.43-1.56 1.75v1.27zm23.57 5.88h-9.15v7.92h-4.32V.53h4.32v7.15h9.15V.53h4.29v18.91h-4.29zm6.6 1.03c0-5.23 3.67-7.41 7.48-7.41s7.47 2.18 7.47 7.41-3.67 7.45-7.47 7.45-7.48-2.24-7.48-7.45zm7.48-4.46c-2 0-3.45 1.61-3.45 4.53 0 2.21 1.05 4.37 3.45 4.37 2.24 0 3.44-1.92 3.44-4.44s-1.16-4.46-3.44-4.46zM332 8v7.24c0 1.37.82 1.57 1.92 1.57H335v3c-.82.07-1.52.12-2.26.12-2.9 0-4.75-1.32-4.75-4V8h-2.55V5.64H328V1.78h4v3.86h3V8zm8.24 5.37c.1 2.3 1.28 3.72 3.63 3.72s2.93-1.22 3.19-1.78H351a5.21 5.21 0 01-1.28 2.33 7.68 7.68 0 01-5.85 2.36c-4.37 0-7.54-2.62-7.54-7.42 0-5.28 3.77-7.41 7.35-7.41a7.22 7.22 0 016 2.83 9.65 9.65 0 011.61 5.4zm7.11-2.45c-.91-2.9-3.1-2.9-3.6-2.9a3.5 3.5 0 00-3.46 2.9zM357.76.53v18.91h-3.93V.53zm11.76 8.9c0-1.25-1.12-1.68-2.44-1.68-.65 0-2.21.12-2.21 1.3 0 1 1.17 1.32 1.46 1.39 5.33 1.32 7.54 1.87 7.54 4.9 0 2.78-2.5 4.63-6.65 4.63a9.16 9.16 0 01-4.46-1 4.41 4.41 0 01-2.36-3.79h4c.16 1.87 1.46 2.16 3 2.16 2 0 2.4-1 2.4-1.51 0-1.08-1.08-1.32-2-1.56-4.8-1.18-6.94-1.68-6.94-4.76 0-4.36 5.4-4.36 6.27-4.36a8 8 0 015.13 1.58 3.67 3.67 0 011.23 2.71z" fill="#ff9600" data-name="レイヤー 2"/></svg>