<svg xmlns="http://www.w3.org/2000/svg" width="629.3" height="40" viewBox="0 0 629.3 40">
  <defs>
    <style>
      .cls-1 {
        fill: #00b4dc;
      }

      .cls-2 {
        fill: #fff;
      }
    </style>
  </defs>
  <g id="レイヤー_2" data-name="レイヤー 2">
    <g id="contents_bg">
      <g>
        <path class="cls-1" d="M629.3,20a20.06,20.06,0,0,1-20,20H20A20.06,20.06,0,0,1,0,20H0A20.06,20.06,0,0,1,20,0H609.3a20.06,20.06,0,0,1,20,20Z"/>
        <g>
          <path class="cls-2" d="M212,23.84a3.7,3.7,0,0,1-.47.29A3.43,3.43,0,0,0,210.21,23v6.21H208V17.72h4a7.79,7.79,0,0,0-1-1.58l1.21-.29h-4.77V14h7V12.62l2.27.11c.14,0,.32.08.32.2a.28.28,0,0,1-.09.18,1.68,1.68,0,0,1-.23.18V14h7.07v1.82h-4.39l.74.09c.27,0,.48.07.48.27s-.27.27-.48.29c-.24.46-.45.9-.63,1.22h3.67v9.11a2.3,2.3,0,0,1-.52,1.84c-.58.59-1.19.61-2.63.65a3.41,3.41,0,0,0-.67-2.18,10,10,0,0,0,1.07.09c.34,0,.63,0,.63-.67V21.39c-.33.71-.62,1.35-1.8,1.35h-2.06c-.83,0-1.46-.19-1.46-1.29v-1.8h-2.16l.94.29c.27.09.34.18.34.27s-.27.25-.43.27a6.21,6.21,0,0,1-1.91,2.91h6.74v4.32H214v.53h-2Zm-1.79-1.2a4.26,4.26,0,0,0,2.44-3h-2.44Zm3.19-6.79a12.55,12.55,0,0,1,1,1.62l-.92.25h3.62a10.67,10.67,0,0,0,.94-1.87ZM214,25v1.13h3.3V25Zm7.12-5.35h-3.39v.9c0,.34.07.47.47.47h.7c.34,0,.51-.15.63-1.05a5.22,5.22,0,0,0,1.59.79Z"/>
          <path class="cls-2" d="M231.51,15.72v1.55h-6V15.72Zm6,4.65c.16,0,.29.09.29.21s-.18.2-.47.29v1.55a6,6,0,0,0,2.14,3.42,10.6,10.6,0,0,0,2.39,1.57,4.66,4.66,0,0,0-1.35,1.73,9.3,9.3,0,0,1-3.87-3.66,7.59,7.59,0,0,1-4.07,3.75,4.81,4.81,0,0,0-1.27-1.61V29h-1.82v-.72h-1.57v.92H226V22.94h5.3v4.5a6.78,6.78,0,0,0,2.84-1.73c1.21-1.29,1.19-3.18,1.17-5.45Zm-6.61-7v1.52h-4.56V13.36Zm0,4.77v1.52h-4.54V18.13Zm0,2.42v1.51h-4.54V20.55Zm-1.4,6V24.62h-1.57v1.89Zm8-13.76c.19,0,.34,0,.34.2s-.24.27-.49.32c0,.31-.09,1.61-.09,1.88a5,5,0,0,0,1,2.14A9.14,9.14,0,0,0,242,19.65a5.12,5.12,0,0,0-1.37,1.67,9.72,9.72,0,0,1-4.16-3.24,7.76,7.76,0,0,1-4,3.17,5.33,5.33,0,0,0-1.23-1.66c3.37-1.08,4-2.77,4-5.56,0-.56,0-.85,0-1.35Zm-2.74,9.11c.21.06.32.13.32.24s-.27.32-.52.32a11.37,11.37,0,0,1-.92,3,4.84,4.84,0,0,0-2-.58,9.92,9.92,0,0,0,1.17-3.36Zm-.11-7.9c.13,0,.29,0,.29.2s-.15.21-.45.3a15.35,15.35,0,0,1-.69,2.9,5,5,0,0,0-1.94-.41,11.34,11.34,0,0,0,.74-3.32Zm6.75.39a.3.3,0,0,1,.18.26c0,.07-.05.21-.27.21a2.33,2.33,0,0,1-.3,0A15.47,15.47,0,0,1,239.32,17a6.3,6.3,0,0,0-1.62-1.19,9,9,0,0,0,1.73-2.48Zm-.21,7.73c.12.05.25.12.25.29s-.27.28-.51.28a11.34,11.34,0,0,1-1.24,2.06A5.25,5.25,0,0,0,238,23.66a10.69,10.69,0,0,0,1.33-2.43Z"/>
          <path class="cls-2" d="M254.57,26.11c0,.42.05.76.86.76H257c.46,0,.75,0,1.13-2.2a4.79,4.79,0,0,0,2,1c-.54,2.86-1.17,3.26-2.58,3.26h-2.95c-1.37,0-2.38-.42-2.38-2.16V23.12h-2.21l.65.16c.11,0,.29.08.29.27s-.24.26-.54.27a8.49,8.49,0,0,1-5.69,5.59,8.24,8.24,0,0,0-1.62-1.8c.88-.2,4.32-.94,5.11-4.49h-2.7v-10h12v10h-3ZM255.29,16v-.89H248V16ZM248,17.59v.92h7.31v-.92Zm0,2.56v1h7.31v-1Z"/>
          <path class="cls-2" d="M273.61,26.47h-2.84v2.74H268.5V26.47h-2.67V24.54a15.49,15.49,0,0,1-2.84,3,5.31,5.31,0,0,0-2-1.46c3.38-2.16,5.71-6.38,6.46-8h-6.05v-2h7.08V12.68l2.18.14c.09,0,.47.06.47.26s-.18.25-.38.34v2.64h7.11v2h-6.25a20.43,20.43,0,0,0,6.68,7.58,5.38,5.38,0,0,0-1.69,1.75,20.49,20.49,0,0,1-3-2.92Zm-5.11-6.16a25.3,25.3,0,0,1-2.58,4.11h2.58Zm5.06,4.11a23,23,0,0,1-2.79-4v4Z"/>
          <path class="cls-2" d="M288.79,18.46h5.56v7.08c0,1.9-.45,2.44-3.56,2.44a5.42,5.42,0,0,0-.71-2.32,8.94,8.94,0,0,0,1.17.09c.58,0,.81-.07.81-.84V20.58h-3.27v8.65h-2.27V20.58h-3.26v7.28H281v-9.4h5.57V16.73h-7.1V14.68h7.1v-2l2.36.1s.32,0,.32.23-.31.29-.41.32v1.32h7.07v2.05h-7.11c.34.05.45.09.45.25s-.31.29-.41.33Z"/>
          <path class="cls-2" d="M305.83,26.42c4.25-.81,5.35-4,5.35-5.87a4.58,4.58,0,0,0-4.59-4.7c-.61,6.71-3.21,11.54-5.06,11.54-1.39,0-3.82-2.27-3.82-5.49a8.66,8.66,0,0,1,8.61-8.25c3.83,0,7.27,2.59,7.27,6.9A7.91,7.91,0,0,1,311.47,26a9.82,9.82,0,0,1-4.05,2.56A11.54,11.54,0,0,0,305.83,26.42ZM300,21.74c0,1.53.81,2.73,1.37,2.73s1-1.22,1.31-1.94A16.89,16.89,0,0,0,304,16.28,6.26,6.26,0,0,0,300,21.74Z"/>
          <path class="cls-2" d="M319.51,29.21h-2V22.62a16,16,0,0,1-1.2,2.61,5.88,5.88,0,0,0-1.5-1.41,16.44,16.44,0,0,0,2.68-6H315.3V16h2.12V12.64l2.09.13s.36.05.36.25-.05.16-.36.31V16H321v1.84h-1.53v.56a11.63,11.63,0,0,0,2.09,3.51,4,4,0,0,0-1,1.62,11.86,11.86,0,0,1-1.1-1.8Zm1.12-3.33a21.13,21.13,0,0,0,4.71-2.4V21.07h-2.17a14.27,14.27,0,0,1,1.47,2c-.21.18-1.19.94-1.37,1.1a20.92,20.92,0,0,0-1.67-2.07l1.48-1h-1.95V19.41h4.21v-.88h-3.09V17h3.09v-.78h-4V14.66h2.2a9.51,9.51,0,0,0-1-1.44l1.78-.81a21.47,21.47,0,0,1,1.26,2l-.59.25h2a13.91,13.91,0,0,0,1.09-2.21L330,13a.31.31,0,0,1,.2.27c0,.11-.11.14-.38.22-.14.25-.43.75-.66,1.13h2.48v1.58h-4.16V17h3.08v1.51h-3.08v.88H332v1.66h-1.51l1.22.85c.09.07.18.12.18.28s-.25.24-.46.22a11.29,11.29,0,0,1-1.84,2.12,10.8,10.8,0,0,0,2.92,1.93,4.68,4.68,0,0,0-1.28,1.69,11.72,11.72,0,0,1-3.73-3.33v2c0,2.23-.85,2.39-3.11,2.54a4.85,4.85,0,0,0-1-2.09c.17,0,.56,0,1.07,0s.91-.07.91-.68V25.41a32.81,32.81,0,0,1-3.31,2c0,.23-.09.43-.27.43s-.29-.21-.36-.34Zm6.82-3.77a8.88,8.88,0,0,0,1,1.27,15.82,15.82,0,0,0,1.67-2.31h-2.63Z"/>
          <path class="cls-2" d="M349.93,19.65V21.7h-7v5c0,1.53-.45,2.63-4.21,2.51a11.82,11.82,0,0,0-.72-2.34,10.59,10.59,0,0,0,1.35.12c1.28,0,1.28-.18,1.28-1.28v-4h-7.28V19.65h7.28V17l1.26.16A11,11,0,0,0,344,15.4H335.1v-2h11.79l1.28,1.1a44.11,44.11,0,0,1-5.26,4.57v.6Z"/>
          <path class="cls-2" d="M355.8,14.07c.14,0,.22.12.22.25s-.27.25-.51.29a25.79,25.79,0,0,0-1,7.14,14.37,14.37,0,0,0,.13,2.13c.16-.29.83-1.57,1-1.82a6.56,6.56,0,0,0,1.16,1.53,8.92,8.92,0,0,0-1.5,4.68l-2.05.4a25,25,0,0,1-.94-7.11,34.1,34.1,0,0,1,1.05-8.29Zm8.62-.4c.2,0,.26.13.26.23s-.26.24-.44.26c-.05.41-.12.9-.18,2.35a16.43,16.43,0,0,0,2.83-.7v2.32c-1.46.37-2.36.51-2.88.6a35.55,35.55,0,0,0,.27,4.52,11.15,11.15,0,0,1,3.58,1.94c-.27.47-.93,1.86-1.06,2.15a7.18,7.18,0,0,0-2.29-1.55c0,2.46-2.77,2.63-3.56,2.63-2.61,0-3.53-1.61-3.53-2.83,0-1.8,1.76-2.79,3.71-2.79a6.83,6.83,0,0,1,.75.05c-.05-.7-.18-2.23-.19-3.81-1.1.08-2,.12-2.56.12s-.86,0-1.24,0V16.71a18.47,18.47,0,0,0,2.23.13c.74,0,1.22,0,1.55-.06,0-.16,0-3.15,0-3.56Zm-3.53,11c-1.11,0-1.45.5-1.45.9s.52.86,1.26.86c.12,0,1.51,0,1.51-1.13a3,3,0,0,0,0-.4A2.9,2.9,0,0,0,360.89,24.69Z"/>
          <path class="cls-2" d="M375.17,22.2c-.27.24-1.88,1.62-1.88,2.52a.89.89,0,0,0,.46.82,10.77,10.77,0,0,0,3.83.52,22.91,22.91,0,0,0,6.86-.9,16.86,16.86,0,0,0,.5,2.54,37.09,37.09,0,0,1-7.4.72c-4.05,0-6.75-.76-6.75-3.42,0-.82.27-2.08,2.7-4.15Zm8.57-6.46A21.57,21.57,0,0,0,378,19.45l-1.39-1.57c.14-.09,1.53-1.15,1.91-1.51-1,.07-2.29.14-3.89.14a22.83,22.83,0,0,1-2.34-.09l-.15-2.52a34.46,34.46,0,0,0,5.14.33,27.85,27.85,0,0,0,5.24-.4Z"/>
          <path class="cls-2" d="M395.87,13.24c.23,0,.36.12.36.27s-.22.23-.42.25c-.09.29-.5,1.58-.59,1.84a30,30,0,0,0,6.16-1.46,6.52,6.52,0,0,0,.47,2.27A32.23,32.23,0,0,1,394.43,18c-.09.25-.42,1.13-1.19,3a10.34,10.34,0,0,1,5-1.42c4.61,0,4.9,3.31,4.9,4.14,0,5-7.13,5.26-9.33,5.26a16.48,16.48,0,0,1-1.89-.09,9.39,9.39,0,0,0-.58-2.29c.58.05,1.54.16,2.72.16,2.33,0,6.54-.41,6.54-3.11,0-1.48-1.08-2.07-2.5-2.07a9.53,9.53,0,0,0-6.54,3.15l-2.16-1.1A23.17,23.17,0,0,0,392,18.1a33.65,33.65,0,0,1-3.75-.09l0-2.5a21.82,21.82,0,0,0,4.45.34,22.37,22.37,0,0,0,.7-3.26Z"/>
          <path class="cls-2" d="M411.78,16.62c.13,0,.31.11.31.27s-.26.25-.38.25a16.52,16.52,0,0,0-1.24,3.77A8.92,8.92,0,0,1,416,18.86a4.23,4.23,0,0,1,4.55,4.3c0,3.51-3.47,5.65-9.2,5.65-.55,0-1,0-1.35,0a7,7,0,0,0-.7-2.56,13.69,13.69,0,0,0,2.49.22c1.13,0,6.24-.17,6.24-3.26A2.1,2.1,0,0,0,415.69,21c-3.12,0-5.33,2.46-6,3.2l-2.2-.79a44.57,44.57,0,0,1,1.82-7.58Zm-.72-4a18.54,18.54,0,0,1,6.19,2.07A20.56,20.56,0,0,0,415.88,17a16.55,16.55,0,0,0-5.63-2.25Z"/>
        </g>
      </g>
    </g>
  </g>
</svg>
