<svg xmlns="http://www.w3.org/2000/svg" width="630" height="54.13" viewBox="0 0 630 54.13">
  <defs>
    <style>
      .cls-1 {
        fill: #ffa000;
      }
    </style>
  </defs>
  <g id="レイヤー_2" data-name="レイヤー 2">
    <g id="object">
      <g>
        <rect class="cls-1" y="49.13" width="630" height="5"/>
        <g>
          <path class="cls-1" d="M24,24.91v7.74H19.47V24.91H16.81A13.5,13.5,0,0,1,11.3,33.4a10.36,10.36,0,0,0-4-2.66v2.59H2.12V1.3H17.21V13.82H7.27V30.7c2.52-1.4,4.25-2.77,5-5.79H8.53v-4h4.18c0-.64,0-1.44,0-2.12H9.43V15H26.89v3.78H24v2.12h3.6v4Zm-11.66-20H7.27V6.19h5.11Zm0,4.07H7.27v1.36h5.11Zm7.09,9.86H17.24c0,.43,0,1.8-.07,2.12h2.3Zm7.71,14.69a12.66,12.66,0,0,0-1.91-5.26,10.53,10.53,0,0,0,2.09.29c.68,0,1.44,0,1.44-1.26V13.82h-10V1.3H33.94v28C33.94,32.65,31.89,33.51,27.18,33.48ZM28.8,4.86H23.61V6.19H28.8Zm0,4.07H23.61v1.36H28.8Z"/>
          <path class="cls-1" d="M66.56,17.21v1.51h5.58v3.63H66.56v1.51h5.58V27.5H66.56V29h7.27V32.9H57.31v.58H52.23V21l-1,1a12.34,12.34,0,0,0-1.73-2.55V33.48H44.28V16.2l-1,1.19a8.69,8.69,0,0,0-3.67-3.71A38.33,38.33,0,0,0,47.2,0l5,1.69V1.12l5.12.18c.39,0,.54.21.54.5s-.29.54-.8.86V6.12h2.7V.18L65.16.5c.36,0,.54.22.54.47,0,.47-.54.61-.87.69V6.12h3V1.3l5.32.32c.44,0,.65.14.65.4,0,.43-.43.61-.9.82V10H64.62l2.52,1.37a.68.68,0,0,1,.39.58c0,.39-.5.54-1,.64-.15.26-.36.58-.58.9h7.71v3.68Zm-17-.65A33.36,33.36,0,0,0,54.43,10h-2.2V2.77c-.1,0-.21.11-.32.15-.61,1.33-1,2.08-2.23,4.53.54.29.68.36.68.61s-.57.65-.83.76Zm7.78.65v1.51h4.18V17.21Zm0,5.14v1.51h4.18V22.35ZM61.49,29V27.5H57.31V29Zm-1.3-15.45a36.6,36.6,0,0,0,2-3.49H57.74l1.66.83c.29.14.5.29.5.58s-.39.54-1,.61c-.4.65-.54.86-.9,1.47Z"/>
          <path class="cls-1" d="M94.79,6.88a.53.53,0,0,1,.36.46c0,.58-1,.51-1.34.47a73.85,73.85,0,0,1-6,7.6c1.44-.11,2.56-.18,2.91-.22-.32-1.08-.46-1.51-.68-2.09l3.38-1.73a30.53,30.53,0,0,1,2.45,6.41,32.44,32.44,0,0,0-4.1,2c-.11-.79-.18-1.11-.33-1.87-.21.07-1.22.25-1.44.29V33.55H85.21V22.1a2.07,2.07,0,0,1-.54.15A56.89,56.89,0,0,1,83.52,31a12.21,12.21,0,0,0-4-.87,34.91,34.91,0,0,0,1.73-9.43l3.6.36a.58.58,0,0,1,.36.08V19c-1.73.29-2.41.43-3.24.61-.07.22-.25.8-.65.8-.25,0-.5-.36-.54-.54l-1-4.43c.9,0,1.11,0,2.91-.15.87-.93,1.08-1.15,2.16-2.37a26.61,26.61,0,0,0-4.82-4l2.59-4c.5.32.86.57,1.15.79A31.38,31.38,0,0,0,86.83.14l4.28,2.27c.29.15.44.29.44.47,0,.4-.29.43-1,.5-.9,1.48-2.05,3.1-3.38,4.9a6.67,6.67,0,0,1,.75.72,48.73,48.73,0,0,0,2.84-4.54Zm-.62,13.35a33.92,33.92,0,0,0,1.52,7.85,10.12,10.12,0,0,0-3.5,1.47,29.49,29.49,0,0,1-1.72-8.35ZM114,5v4.6h-6.73v3h5.62v4.35H96.62V12.53h5.44v-3H95.25V5h6.81V.54l5.29.25c.21,0,.93,0,.93.51s-.39.54-1,.68V5ZM101.63,31.6v1.95h-5V18.72h16.31V33.55h-5.11V31.6Zm6.19-4.53V23.22h-6.19v3.85Z"/>
          <path class="cls-1" d="M139.43,33.62h-5.22V25a39.18,39.18,0,0,1-10.3,7.74,12,12,0,0,0-4-4.1,24.27,24.27,0,0,0,10.33-6.37h-9.79V17.82h13.75V15.91H124.09V1.33h25.63V15.91H139.43v1.91h13.93v4.43H142.92a24.24,24.24,0,0,0,10.62,5.65A13.56,13.56,0,0,0,149.72,32a29.72,29.72,0,0,1-10.29-6.56ZM134.21,7V5.11h-4.65V7Zm-4.65,3.24v1.84h4.65V10.22ZM144.1,7V5.11h-4.67V7Zm-4.67,3.24v1.84h4.67V10.22Z"/>
        </g>
      </g>
    </g>
  </g>
</svg>
