<svg xmlns="http://www.w3.org/2000/svg" width="491.05" height="40"><path d="M0 0h10v40H0zm59.12 6.25V11h-8.49A34.69 34.69 0 0060 18.81a13.52 13.52 0 00-3.24 4c-3.82-2.12-9-7.23-11.09-9.64l3-2.16H36.23l3.31 2c.4.25.58.36.58.65 0 .46-.61.43-.9.36a43 43 0 01-9.32 9 14.74 14.74 0 00-4-3.2c6.16-4.39 8.24-7.52 9.1-8.82h-8.13V6.25h13.21V3.16l5.76.25c.43 0 .69 0 .69.36s-.26.47-.69.64v1.84zM39.69 16.87A22.82 22.82 0 0043.07 23a20.32 20.32 0 003.31-6l4.86 2.16a.74.74 0 01.54.65c0 .47-.76.43-1 .43a25.91 25.91 0 01-4.18 6.37 27.26 27.26 0 0013.36 5.51 13.43 13.43 0 00-3.6 4.64 34.27 34.27 0 01-13.43-6.62 35.54 35.54 0 01-13.14 6.62c-.79-2.16-3.35-4.32-3.49-4.46a31.39 31.39 0 0013.1-5.76 34.16 34.16 0 01-4.21-7.31zm31.6.18v10.37a4.08 4.08 0 001 2.8c1.12 1.26 2.45 1.26 6 1.26 10.55 0 12.35 0 17.64-.68a10.33 10.33 0 00-1.51 4.9H77.27c-3.78 0-6.44-.58-8.31-3.21-1 .9-2.56 2.23-3.86 3.21a1.93 1.93 0 01.08.54c0 .25 0 .61-.44.61-.25 0-.39-.22-.57-.54l-2.63-4.86A23.64 23.64 0 0066 29.07V21.8h-3.1v-4.75zM65.5 3.44a29.8 29.8 0 016.15 5.08c-.64.65-1.15 1.08-3.74 3.92a38.14 38.14 0 00-5.54-5.25zM81 25.36h-2.94v5.15h-4.82V11.94h4.93A32.1 32.1 0 0075.4 10l1.83-1.91h-4V4h17.18l1.8 1.87a27.36 27.36 0 01-5.83 6.05h7.16v14.96c0 3.45-3.31 3.7-5.87 3.81a10.6 10.6 0 00-1.4-4.35c.93.1 1.65.14 1.8.14.65 0 .68-.07.68-1.12h-3.24v4.54H81zm0-9.68h-2.94v1.59H81zm0 4.82h-2.94v1.59H81zM79.36 8.12c1.58 1.34 1.76 1.51 2.59 2.23a13.22 13.22 0 002.41-2.23zm6.15 9.15h3.24v-1.59h-3.24zm0 4.82h3.24V20.5h-3.24zm40.93-16.16a5.81 5.81 0 002-.33l4 3.67c-.36.51-.47.69-1.3 1.88A82.23 82.23 0 01121.48 23a18.14 18.14 0 00-4.14-4 38.61 38.61 0 006.73-7.71H100V5.93zm-8.71 6.84c.26 0 .65 0 .65.43s-.47.54-.65.61a35.23 35.23 0 01-1.87 10.76 22.54 22.54 0 01-9 10.66 30.2 30.2 0 00-5-3.82c5-2.88 10.47-6.8 9.82-19zM160.18 9a6.13 6.13 0 002.55-.54l3 2.55c-.65 1.08-2.84 6-3.67 7.85-5.55 12.45-13.54 16.45-16.7 18a19.35 19.35 0 00-4.65-4.1 33 33 0 0011.7-8.53 34.12 34.12 0 005.36-10.08h-9a49.41 49.41 0 01-8.1 9.21 19.81 19.81 0 00-4.39-3.88c8.74-7.42 11-13.75 11.8-15.91l5.19 2.52c.14.07.46.25.46.54s-.5.47-.86.5c-.58 1.12-.68 1.4-.94 1.84zm20.05-4.59l5.87.29c.36 0 .72 0 .72.4s-.43.54-.72.61v7.92l11.12-1.3a9.55 9.55 0 002.59-.68l3.75 3.42c-.47.54-1.3 1.58-1.62 2-1.12 1.44-5.76 8.17-6.77 9.47a39.5 39.5 0 00-4.9-2.95 33.16 33.16 0 004.32-5.4l-8.49 1V27c0 2.2.68 2.74 3.56 2.74a104.34 104.34 0 0011.66-.65 30.14 30.14 0 00-.68 5.83c-2.74.08-9.86.11-12.38.11-7 0-8-2.77-8-7.34v-7.76l-7.81.94-.5-5.55 8.31-1zm30.28 6.95V6h18.39a9.7 9.7 0 002.48-.29l2.81 3.06a11 11 0 00-1.37 2.23 61.89 61.89 0 01-4.57 8.82c1.51 1.15 8.1 6.62 10.8 9.86-1.19 1.37-3.13 3.53-4.32 4.9a49 49 0 00-9.68-10.26c-3.46 4.14-9.11 8.78-13.82 10.76a16 16 0 00-4.11-4.93 30.25 30.25 0 0011.7-7.2c4.11-4 5.58-7.49 7.2-11.63zM263.39 20a4.39 4.39 0 11-4.39-4.39 4.41 4.41 0 014.39 4.39zm26.68-8.39c.25.08.61.18.61.54s-.47.51-1 .54a4.08 4.08 0 01-.33.69h20.2v4.14h-6.92c-.18.36-.61 1.22-.86 1.69h7.34v17.1H304v-1h-8.42v1h-5.44v-17.1h5.76c.26-.47.58-1.12.83-1.69h-7.85v-3.24c-1 1.91-1.18 2.3-2.26 4.1.39.15.93.43.93.76s-.25.36-.57.47v16.7h-4.93V24.64c-.18.19-.4.36-.72.65a13 13 0 00-4.14-3.17 32.17 32.17 0 008.2-11.91h-1.36v2.48h-5.12V6h13.25V3.19l5.62.22c.21 0 .75 0 .75.46s-.5.58-.75.62V6h13.31v6.52h-5.18v-2.31h-20.45zm14 13.83v-1.87h-8.42v1.87zm0 5.72v-1.87h-8.42v1.87zm12.06-19.73a49 49 0 016.23 4.11 37.36 37.36 0 00-3.1 4.39 31.12 31.12 0 00-6.26-4.39zm-2.37 22.5c3-3.78 6.11-12.35 6.44-13.28a17.36 17.36 0 004.21 2.77c-.36 1-1.4 4-2.34 6.12-2.05 4.64-2.27 5.15-2.59 5.83a1.68 1.68 0 01.36.87c0 .21-.11.36-.29.36a1.56 1.56 0 01-.5-.15zm5.68-30.88a35 35 0 015.87 4 39.9 39.9 0 00-3.2 4.24 50.1 50.1 0 00-6-4.24zm27.22 5.5V36H341v-1.67h-9.89V36h-5.8V8.55H331a29.7 29.7 0 001.76-5.5l6.26.54c.22 0 .51 0 .51.36s-.4.57-1 .83c-.76 1.94-.83 2.15-1.51 3.77zm-15.55 10.34H341v-5.58h-9.89zm9.89 4.68h-9.89v5.9H341zm18.83-17.39c.69.25 1 .36 1 .61s-.72.4-1 .43a41.91 41.91 0 00-2.33 14.87 12.53 12.53 0 00.25 2.88c.21-.4 1.08-2 1.51-2.7a10.34 10.34 0 002.74 2.95c-.9 1.69-2.56 5.87-2.38 8.6l-5.11 1.37a38 38 0 01-2.51-14.4c0-6.51 1-11 2.3-16.7zm9.51 16.92a9.56 9.56 0 00-.54 2.55c0 1.59.86 1.84 5 1.84a37 37 0 008.89-1 23.77 23.77 0 00-.54 5.86 76.34 76.34 0 01-9.11.47c-5.36 0-9.5-.93-9.5-5.33a13.33 13.33 0 011.19-5.29zM365 7.73c1.08.07 2.52.18 4.68.18a41.21 41.21 0 0010.58-1.16 54 54 0 00.51 5.48 54.29 54.29 0 01-11.09 1.08c-2.12 0-3.53-.11-4.68-.18zm20.94 2.8a29.44 29.44 0 004.53-.86C400.62 7 403.07 6.4 407 6.4c8.64 0 12.42 5.72 12.42 12 0 13.57-16.38 14.58-22.18 14.87a23.76 23.76 0 00-1.83-5.76c6.48 0 17.92-.18 17.92-9 0-1.88-.64-6.88-7-6.88-5.37 0-14.26 3.64-18.15 5.83zM431 7c.32.11.72.22.72.54 0 .47-.43.54-.76.58a32.32 32.32 0 00-2 10.83c0 4.39 1.37 7.45 2.41 7.45s2.52-3.16 3.49-5.43a16.29 16.29 0 003.78 3.81c-2.88 7-6.15 9.43-7.92 9.43-2 0-7.34-4.28-7.34-15.4a64.3 64.3 0 011.72-13.49zm17.39.25a35.89 35.89 0 017.27 18.11c-2.13.83-4.68 2.05-5.87 2.66a32.75 32.75 0 00-6.05-17.82zm42.66 2.56c-10.29-.1-16.41 8.93-16.41 13.61 0 6 8.13 6.41 10 6.52a31.58 31.58 0 00-2.7 6.47c-6.3-1.47-13.25-4.82-13.25-12.56 0-6.62 5-10.76 6.38-11.91a120.86 120.86 0 00-14.87 2.12l-.76-6.77c.8 0 1.55.11 2.7.11 5.29 0 19.66-1 27.83-3.56z" fill="#ff5064" data-name="レイヤー 2"/></svg>