<svg xmlns="http://www.w3.org/2000/svg" width="162.71" height="30"><path d="M31.35 10.29V8.7h-5.3V5.17h9.17c0 .63-.17 3.39-.17 3.94a17.58 17.58 0 008.81 15.41 9.51 9.51 0 00-3.15 2.62c-3-2.07-7.32-6.58-8.69-12.1-.79 2.69-2.66 7.66-9.07 12.12A10.21 10.21 0 0020 24.47c7.37-4.73 8.64-9.81 9.29-14.57zm23.93 9.96a16.5 16.5 0 01-2.83 2.9 6.18 6.18 0 00-2.26-1.61c.43-.33.79-.6 1.35-1.08-1.49.65-3.32 1.35-5.26 2 0 .28-.1.62-.36.62s-.34-.31-.38-.55l-.82-3.39a17.74 17.74 0 002.71-.5v-5.45H45v-3.12h2.47v-5l3.53.2c.29 0 .51.05.51.26s-.15.29-.51.46v4.08h2.14v3.12H51v4.37c.58-.24.94-.38 1.52-.65h-.17v-2.42h14.52v2.42h-9.29l-.45.77h9.58c0 2.42-.08 7.22-1.64 8.45-.91.72-2.44.79-4 .79a7 7 0 00-.64-2.59 19 19 0 01-2.86 3 6.07 6.07 0 00-2.55-1.54 16.68 16.68 0 005.07-5.54h-1.04a16.84 16.84 0 01-6.31 6.36 6.18 6.18 0 00-2.12-1.92 14.73 14.73 0 005.6-4.44zm-2.18-3.34a9.74 9.74 0 00-.17 2.14 15.17 15.17 0 001.46-2.14zm12.09-3.21H54V5.25h11.19zM62 8.56v-.82h-4.77v.82zm-4.72 1.92v.81H62v-.81zm5.66 9.77A26.2 26.2 0 0161 23.58a8 8 0 00.84.05c.48 0 .92-.05 1.08-.6a11.81 11.81 0 00.44-2.78zM75.22 6.78c.46.17.65.24.65.41s-.48.26-.65.29a27.88 27.88 0 00-1.56 9.91 8.29 8.29 0 00.17 1.92c.15-.26.72-1.32 1-1.8a7 7 0 001.85 2 13.54 13.54 0 00-1.59 5.74l-3.4.91A25.21 25.21 0 0170 16.53a45.26 45.26 0 011.53-11.14zm6.34 11.28a6.75 6.75 0 00-.36 1.71c0 1.05.58 1.22 3.34 1.22a24.07 24.07 0 005.93-.65 15.59 15.59 0 00-.36 3.92 51 51 0 01-6.08.31c-3.57 0-6.33-.63-6.33-3.55a8.9 8.9 0 01.79-3.53zm-2.9-10.25c.72.05 1.68.12 3.12.12a28.24 28.24 0 007-.76c0 .38.12 2.49.34 3.64a34.8 34.8 0 01-7.39.73c-1.42 0-2.36-.08-3.12-.12zm13.96 1.88a18.91 18.91 0 003-.58c6.77-1.78 8.4-2.18 11-2.18 5.76 0 8.28 3.81 8.28 8 0 9-10.92 9.72-14.79 9.91A16.08 16.08 0 0099 21c4.32 0 12-.12 12-6a4.28 4.28 0 00-4.68-4.59c-3.57 0-9.5 2.43-12.09 3.89zm30.03-2.38c.21.07.48.14.48.36s-.29.36-.51.38a21.67 21.67 0 00-1.34 7.23c0 2.93.91 5 1.61 5s1.68-2.11 2.33-3.63a10.81 10.81 0 002.52 2.55c-1.92 4.65-4.11 6.29-5.28 6.29-1.35 0-4.9-2.86-4.9-10.28a42.63 42.63 0 011.18-9zm11.59.17a23.94 23.94 0 014.85 12.07c-1.42.55-3.12 1.37-3.91 1.78a21.92 21.92 0 00-4-11.88zm28.47 1.73c-6.87-.08-11 5.95-11 9.07 0 4 5.43 4.27 6.7 4.34a21.34 21.34 0 00-1.8 4.32c-4.2-1-8.84-3.21-8.84-8.37 0-4.42 3.32-7.18 4.25-8a82.65 82.65 0 00-9.86 1.43l-.5-4.51c.52 0 1 .07 1.8.07 3.52 0 13.1-.67 18.55-2.38zM0 0h10v30H0z" fill="#ff5064" data-name="レイヤー 2"/></svg>