<svg xmlns="http://www.w3.org/2000/svg" width="330.71" height="30"><path d="M42.75 6.83V10h-5.66a23 23 0 006.24 5.24 9 9 0 00-2.16 2.64 36 36 0 01-7.39-6.43l2-1.45h-8.29l2.21 1.37c.26.17.38.24.38.44s-.41.28-.6.23a28.28 28.28 0 01-6.22 6 10.08 10.08 0 00-2.68-2.14c4.12-3 5.52-5 6.09-5.93h-5.42V6.83h8.81V4.77l3.84.16c.29 0 .45 0 .45.24s-.16.32-.45.44v1.22zm-13 7.08a15.25 15.25 0 002.3 4.09 13.88 13.88 0 002.21-4l3.24 1.44a.5.5 0 01.36.43c0 .32-.51.29-.7.29a17.31 17.31 0 01-2.78 4.25 18.07 18.07 0 008.9 3.67 9 9 0 00-2.4 3.1 22.7 22.7 0 01-9-4.42 23.68 23.68 0 01-8.76 4.42 9.23 9.23 0 00-2.33-3 21.05 21.05 0 008.74-3.84 22.3 22.3 0 01-2.81-4.87zm21.11.09v6.91a2.72 2.72 0 00.68 1.88c.74.84 1.63.84 4 .84 7 0 8.24 0 11.77-.46a6.8 6.8 0 00-1 3.26H54.85c-2.52 0-4.3-.38-5.55-2.13-.67.6-1.7 1.49-2.56 2.13a1.79 1.79 0 010 .36c0 .17 0 .41-.28.41s-.27-.14-.39-.36l-1.75-3.24a15.62 15.62 0 003-1.58V17.2h-2.07V14zM47 5a19.36 19.36 0 014.1 3.38c-.43.43-.76.72-2.49 2.62a25.56 25.56 0 00-3.7-3.51zm10.32 14.58h-1.94V23h-3.22V10.62h3.29a22.38 22.38 0 00-1.85-1.27l1.22-1.27h-2.66V5.34h11.45l1.2 1.25a18 18 0 01-3.89 4h4.78v10c0 2.31-2.21 2.48-3.91 2.55a7.22 7.22 0 00-.94-2.91 11.82 11.82 0 001.2.1c.43 0 .46-.05.46-.74h-2.16v3h-3zm0-6.46h-1.94v1.05h1.94zm0 3.21h-1.94v1.06h1.94zm-1.08-8.25c1.06.89 1.18 1 1.73 1.49a9.08 9.08 0 001.61-1.49zm4.11 6.09h2.16v-1.05h-2.16zm0 3.22h2.16v-1.06h-2.16zM87.63 6.61A4.09 4.09 0 0089 6.4l2.66 2.45c-.24.33-.31.45-.86 1.24A54.8 54.8 0 0184.32 18a11.76 11.76 0 00-2.76-2.64 25.77 25.77 0 004.49-5.14H70V6.61zm-5.8 4.56c.16 0 .43 0 .43.29s-.31.36-.43.41a23.75 23.75 0 01-1.25 7.18 15 15 0 01-6 7.1 19.61 19.61 0 00-3.36-2.54c3.36-1.92 7-4.54 6.55-12.68zm28.29-2.52a3.92 3.92 0 001.71-.36l2 1.71c-.43.72-1.9 4-2.45 5.23-3.7 8.31-9 11-11.14 12a13 13 0 00-3.09-2.74 22.2 22.2 0 007.8-5.69 22.65 22.65 0 003.57-6.72h-6a33 33 0 01-5.4 6.15 12.74 12.74 0 00-2.93-2.6c5.84-4.94 7.35-9.17 7.88-10.61l3.45 1.68c.1 0 .32.17.32.36s-.34.32-.58.34c-.38.74-.46.94-.63 1.22zm13.37-3.04l3.91.19c.24 0 .48 0 .48.26s-.29.36-.48.41v5.28l7.42-.86a7.05 7.05 0 001.73-.46l2.45 2.28c-.31.36-.86 1.06-1.08 1.32-.74 1-3.84 5.45-4.51 6.31a28.58 28.58 0 00-3.26-2 23.25 23.25 0 002.88-3.6l-5.67.69v5.19c0 1.46.46 1.82 2.38 1.82a68.85 68.85 0 007.77-.43 20.41 20.41 0 00-.45 3.89c-1.83 0-6.58.07-8.26.07-4.68 0-5.35-1.85-5.35-4.9V16l-5.21.63-.34-3.7 5.55-.67zm20.18 4.63v-3.6h12.27a6.75 6.75 0 001.65-.19l1.88 2a6.9 6.9 0 00-.92 1.53 40.38 40.38 0 01-3 5.88 64.39 64.39 0 017.2 6.58c-.8.91-2.09 2.35-2.88 3.26a33.23 33.23 0 00-6.46-6.84 27.85 27.85 0 01-9.22 7.18 10.78 10.78 0 00-2.73-3.29 20.19 20.19 0 007.8-4.8 19.1 19.1 0 004.8-7.75zM178.93 16a2.93 2.93 0 11-2.93-2.93 2.94 2.94 0 012.93 2.93zm17.78-5.59c.17.05.41.12.41.36s-.31.33-.65.36a2.76 2.76 0 01-.21.45h13.46v2.76h-4.61c-.12.24-.4.82-.57 1.13h4.89v11.4H206v-.67h-5.62v.67h-3.63v-11.4h3.84c.17-.31.39-.74.56-1.13h-5.24v-2.16a30 30 0 01-1.51 2.74c.27.1.63.29.63.5s-.17.24-.39.32v11.13h-3.29V19.1c-.12.12-.26.24-.48.43a8.36 8.36 0 00-2.76-2.11 21.43 21.43 0 005.48-8h-.92v1.66h-3.4V6.64h8.83V4.79l3.74.14c.15 0 .51 0 .51.32s-.34.38-.51.4v1h8.88V11h-3.42V9.47h-13.66zm9.29 9.21v-1.24h-5.62v1.24zm0 3.82v-1.25h-5.62v1.25zm8.09-13.15a32.61 32.61 0 014.15 2.71 25.49 25.49 0 00-2.06 3 20.57 20.57 0 00-4.18-3zm-1.59 15c2-2.52 4.08-8.23 4.3-8.86a11.54 11.54 0 002.81 1.85c-.24.67-.94 2.69-1.56 4.08-1.37 3.1-1.51 3.43-1.73 3.89a1.17 1.17 0 01.24.57c0 .15-.07.24-.19.24A1 1 0 01216 27zm3.8-20.6a24.73 24.73 0 013.91 2.64 27 27 0 00-2.14 2.84 33 33 0 00-4-2.84zm18.14 3.68v18.31h-3.77v-1.13h-6.6v1.13h-3.86V8.37H224a20.57 20.57 0 001.18-3.68l4.17.36c.15 0 .34 0 .34.24s-.27.39-.67.56c-.51 1.29-.56 1.44-1 2.52zm-10.37 6.88h6.6v-3.71h-6.6zm6.6 3.13h-6.6v3.93h6.6zm12.55-11.6c.46.17.65.24.65.41s-.48.26-.65.29a27.88 27.88 0 00-1.56 9.91 8.29 8.29 0 00.17 1.92c.15-.26.72-1.32 1-1.8a7 7 0 001.85 2 13.54 13.54 0 00-1.59 5.74l-3.4.91a25.21 25.21 0 01-1.71-9.6 45.26 45.26 0 011.54-11.14zm6.34 11.28a6.75 6.75 0 00-.36 1.71c0 1.05.58 1.22 3.34 1.22a24.07 24.07 0 005.93-.65 15.59 15.59 0 00-.36 3.92 51 51 0 01-6.08.31c-3.57 0-6.33-.63-6.33-3.55a8.9 8.9 0 01.79-3.53zm-2.9-10.25c.72.05 1.68.12 3.12.12a28.24 28.24 0 007-.76c0 .38.12 2.49.34 3.64a34.8 34.8 0 01-7.39.73c-1.42 0-2.36-.08-3.12-.12zm13.96 1.88a18.91 18.91 0 003-.58c6.77-1.78 8.4-2.18 11-2.18 5.76 0 8.28 3.81 8.28 8 0 9-10.92 9.72-14.79 9.91A16.08 16.08 0 00267 21c4.32 0 12-.12 12-6a4.28 4.28 0 00-4.68-4.59c-3.57 0-9.5 2.43-12.09 3.89zm30.03-2.38c.21.07.48.14.48.36s-.29.36-.51.38a21.67 21.67 0 00-1.34 7.23c0 2.93.91 5 1.61 5s1.68-2.11 2.33-3.63a10.81 10.81 0 002.52 2.55c-1.92 4.65-4.11 6.29-5.28 6.29-1.35 0-4.9-2.86-4.9-10.28a42.63 42.63 0 011.18-9zm11.59.17a23.94 23.94 0 014.85 12.07c-1.42.55-3.12 1.37-3.91 1.78a21.92 21.92 0 00-4-11.88zm28.47 1.73c-6.87-.08-10.95 5.95-10.95 9.07 0 4 5.43 4.27 6.7 4.34a21.34 21.34 0 00-1.8 4.32c-4.2-1-8.84-3.21-8.84-8.37 0-4.42 3.32-7.18 4.25-8a82.65 82.65 0 00-9.91 1.43l-.5-4.51c.52 0 1 .07 1.8.07 3.52 0 13.1-.67 18.55-2.38zM0 0h10v30H0z" fill="#ff5064" data-name="レイヤー 2"/></svg>