<svg xmlns="http://www.w3.org/2000/svg" width="331.43" height="30"><path d="M27.63 17.37l.22.07v-1.92h-6.63v-3.24h8.93v-1.85h-7.22V7.29h7.22v-2.4l4 .16a.27.27 0 01.27.24c0 .24-.22.41-.55.56v1.44h7.22v3.14h-7.26v1.85h9v3.24h-6.94v9.12c0 2.23-1.66 2.23-4.78 2.23a14.33 14.33 0 00-1-3.5 8 8 0 001.46.14c.87 0 1-.19 1-1.39v-6.6h-1.1a14.6 14.6 0 01-.77 5.9 10 10 0 01-6.1 5.64A10.91 10.91 0 0022.4 24a7.66 7.66 0 004.27-2.47c.53-.63.91-1.47 1.13-3.56a4.24 4.24 0 01-.58.1 24.72 24.72 0 01-3.07 5 19.24 19.24 0 00-3.33-1.85A19.55 19.55 0 0024.15 16zm11.74-1.25A24.71 24.71 0 0142.54 22 24.51 24.51 0 0039 24a24.84 24.84 0 00-3-6.58zM56.6 5.68c.19.05.46.14.46.38s-.12.31-.53.34C56 8 56 8.2 55.83 8.56a36.24 36.24 0 007.83-1.9c.12.79.43 2.62.67 3.58a41.65 41.65 0 01-9.82 2c-.57 1.58-.77 2.06-1.25 3.24a14.24 14.24 0 016.25-1.63c6.4 0 6.74 4.51 6.74 5.71a5.93 5.93 0 01-2.57 4.85c-1.27.86-3.67 2.3-10.32 2.3a21.41 21.41 0 01-2.23-.12 17.12 17.12 0 00-.89-3.57c.7.07 2.11.21 3.58.21.55 0 4.65 0 7.13-1.46a2.44 2.44 0 001.29-2.26c0-1.39-.72-2.57-2.93-2.57A12.3 12.3 0 0051 21l-3.46-1.73a33.08 33.08 0 003.19-6.74c-2.08 0-3.74-.07-4.65-.14L46 8.44a22.25 22.25 0 005.85.56 31.76 31.76 0 00.91-4.25zm23.16 3.17c.29.33 1.49 1.82 1.73 2.11a10.27 10.27 0 012.64-.41 4.57 4.57 0 014.78 4.68c0 4.49-4.88 4.9-7.33 5.09a16 16 0 00-1.1-3.22h1.1c.82 0 3.89 0 3.89-2.11 0-.41-.12-1.35-1.53-1.35h-.53c.43.69.67 1.15.89 1.51-.89.36-2.28.93-3.15 1.32a15 15 0 00-.88-1.85c-.89.41-1.42.7-1.76.89a46.93 46.93 0 013.36 9.26 31.28 31.28 0 00-3.41 1.66 41.31 41.31 0 00-2.8-9.22c-.7.51-.89.67-2.72 2.23l-2.16-3.38a30.85 30.85 0 003.41-1.7A17.76 17.76 0 0072 11.27l3.3-1.34a1.16 1.16 0 01.5-.15.26.26 0 01.29.27.69.69 0 01-.22.38l1.3 2.38 1.37-.68c-.39-.52-.51-.69-1.52-2zm25.99-2.45c.22.09.39.21.39.43s-.36.29-.58.24c-.89 1.56-2 3.74-3.29 6.26a9.25 9.25 0 01-.53.92 9.61 9.61 0 012.24-.31c1.49 0 3.5.57 3.5 3.07a10.68 10.68 0 01-.21 2 10.87 10.87 0 00-.29 2.36c0 .62.17 1.2.91 1.2s3.46-1.52 5.16-3.94a26.4 26.4 0 002.52 3.05 18 18 0 01-4.08 3.48 9.48 9.48 0 01-4.58 1.41c-2.24 0-3.85-1.27-3.85-3.64 0-.72.41-3.89.41-4.54 0-.86-.48-1.15-1-1.15-2.59 0-5.47 7.41-5.86 8.85l-3.91-1.63c1.54-2.57 5-9.77 5.76-11.35 1.51-3.27 2.47-5.64 3.6-8.55zM123 13.79v7.85c0 .6.65 1.15 1.3 1.46 1 .46 1.25.6 6.36.6a67.8 67.8 0 008.81-.57 7.24 7.24 0 00-1.13 3.48h-11.13a13.1 13.1 0 01-3.51-.48 5.35 5.35 0 01-2.42-1.51 24 24 0 01-2.42 1.87c0 .5 0 .84-.34.84-.07 0-.24 0-.38-.34l-1.68-3.12a16.33 16.33 0 003.14-1.61V17H117v-3.21zm-3.57-8.71a21.44 21.44 0 013.43 3.36 33.2 33.2 0 00-2.64 2.56A22.54 22.54 0 00117 7.48zm9.72-.29l3.36.12c.36 0 .48.1.48.26s-.24.36-.48.51v.6h6v2.45h-6v1h4.94V18h-4.94v1h6.17v2.59h-6.17v1.59h-3.36v-1.64h-5.45V19h5.43v-1h-4.83V9.69h4.83v-1h-5.88V6.28h5.88zm0 6.91h-1.65v1.08h1.63zm0 3h-1.65v1.08h1.63zm3.36-2h1.7v-1h-1.7zm0 3h1.7v-.97h-1.7zm18.87-4.48a7.91 7.91 0 014.92-2.45c.69 0 3 .51 3 3.75a34.38 34.38 0 01-.6 4.92 20.67 20.67 0 00-.2 2.74c0 .31 0 1.12.63 1.12.29 0 1.29-.16 3-2.06A16.16 16.16 0 00163.5 23c-2.16 2.09-4 2.54-5.09 2.54-1.34 0-3.62-.86-3.62-4.34 0-1.2.64-6.82.64-7.51a.7.7 0 00-.74-.79c-1.46 0-3.53 2.44-5.07 4.24a78.33 78.33 0 00.46 9.46l-4.2.19a33.31 33.31 0 00.22-4.13v-1c-.34.48-1.71 2.64-2 3l-2.93-2.95a51.79 51.79 0 005-6.14v-.91a19.65 19.65 0 01-3.81.86l-.8-4.06a16.35 16.35 0 004.71-.72c.05-1.63.07-4.82 0-5.66l3.51.29c.26 0 .67.07.67.4s-.31.32-.48.36c-.19 1.9-.24 2.86-.27 3.56zm35.13-1.87c-5.93-.1-11.06 5.23-11.06 9.12 0 2.79 3.53 4.15 6.79 4.23a31.82 31.82 0 00-1.8 4.36c-1.94-.52-8.83-2.44-8.83-8.18a11 11 0 014.39-8.26 67.37 67.37 0 00-9.93 1.51l-.55-4.51a78.07 78.07 0 0010.68-.55 57.12 57.12 0 009.62-1.75zm-4 3.41a14.53 14.53 0 012.23 2.57c-.67.48-1 .74-1.85 1.44a20.22 20.22 0 00-2.13-2.72zm2.52-1.71a15.59 15.59 0 012.14 2.53c-.6.45-1 .81-1.76 1.48a17.48 17.48 0 00-2.13-2.71zm16.7 15.89h-3.46v-6.4a23.83 23.83 0 01-7 6.12 8.22 8.22 0 00-3.07-2.38 20.55 20.55 0 007.7-6.14H189V15h4.49a19.19 19.19 0 00-1.92-3.56l1.73-1h-3.17V7.38h8.18V4.93l3.6.22c.29 0 .53 0 .53.36s-.48.41-.67.46v1.41h8.14v3.12h-3.12l1.46.63c.17.07.24.16.24.29 0 .31-.29.36-.48.4a22 22 0 01-1.51 3.2h4.5v3.12h-7.12a18.65 18.65 0 007.46 5.8 11.12 11.12 0 00-2.54 2.6 18.83 18.83 0 01-7.06-6.15zM198.27 15v-4.5h-3.09a13.53 13.53 0 012 3.7 11.92 11.92 0 00-1.83.82zm3.46-4.52V15h2.78a17.58 17.58 0 00-1.65-.87 18.78 18.78 0 001.82-3.65zm20.35-.1c.17 0 .36.1.36.32s-.29.31-.55.33a16.07 16.07 0 00-1.59 4.15 13.33 13.33 0 017-2.23 5.82 5.82 0 016.15 5.91c0 4.58-4.32 7.72-12.27 7.72h-1.75a13.56 13.56 0 00-1.13-4 13.22 13.22 0 003.55.36c5.45 0 7.61-2 7.61-4.05 0-.7-.33-2.45-2.8-2.45-3.44 0-5.93 2.21-7.66 3.94l-3.43-1.25a56 56 0 012.52-9.94zm-1.32-5.61a24 24 0 018.07 2.66 28 28 0 00-2.16 3.5A21.61 21.61 0 00219.51 8zm26.62 6.45a7.89 7.89 0 014.92-2.45c.69 0 3 .51 3 3.75a34.38 34.38 0 01-.6 4.92 19.11 19.11 0 00-.2 2.74c0 .31 0 1.12.63 1.12.29 0 1.29-.16 3-2.06A16.16 16.16 0 00259.5 23c-2.16 2.09-4 2.54-5.09 2.54-1.34 0-3.62-.86-3.62-4.34 0-1.2.64-6.82.64-7.51a.7.7 0 00-.74-.79c-1.47 0-3.53 2.44-5.07 4.24a78.33 78.33 0 00.46 9.46l-4.2.19a33.31 33.31 0 00.22-4.13v-1c-.34.48-1.71 2.64-2 3l-2.93-2.95a51.79 51.79 0 005-6.14v-.91a19.65 19.65 0 01-3.81.86l-.8-4.06a16.35 16.35 0 004.71-.72c.05-1.63.07-4.82 0-5.66l3.51.29c.26 0 .67.07.67.4s-.31.32-.48.36c-.19 1.9-.24 2.86-.27 3.56zm30.72-3.43a58.68 58.68 0 00-5.88 5.35 13.29 13.29 0 012.88-.36c3.26 0 6.62 2.07 6.62 6.32 0 5.28-5 7.58-9.17 7.58-3.09 0-6.09-1.22-6.09-4.13 0-2.37 2.2-3.84 4.7-3.84 2.26 0 4.61 1.27 5.16 3.53a3.17 3.17 0 001.59-2.83c0-.58-.2-3.51-3.92-3.51-4.05 0-6.36 2.38-9.69 5.86L261.42 19a63.92 63.92 0 009.72-9.33 54.52 54.52 0 01-6.39.84l-.57-3.77c.93 0 7.87.09 12-1.52zm-7.23 13.92c-.81 0-1 .46-1 .87 0 .91 1.35 1.27 2.16 1.27a4 4 0 001.2-.19 2.35 2.35 0 00-2.36-1.95zM307 8.2v3.43h-10.38c0 .89-.09 1.51-.14 2h7.59c0 8.12-.46 10.32-2.16 12-1.23 1.22-3.84 1.34-4.73 1.32a6.11 6.11 0 00-1.78-3.77c.65.1 2.28.36 2.52.36a1.77 1.77 0 001.92-1.39 16.42 16.42 0 00.67-5.23h-4.68A16.17 16.17 0 01287.19 27a6.41 6.41 0 00-2.95-2.6c4.27-1.34 8.74-4.82 8.74-12.79h-8V8.2h9V4.89l3.84.21c.14 0 .43.07.43.34s-.26.36-.43.43V8.2zm1.1 9.19a25.82 25.82 0 005.35-5.59c1.94-2.64 2.59-3.51 4.05-3.51s2.5 1 4.06 3a47.1 47.1 0 009.87 9.71 23.1 23.1 0 00-2.69 3.65 75 75 0 01-10.06-10.83c-.19-.24-.84-1-1.3-1s-.84.65-1.17 1.13a44.63 44.63 0 01-4.9 6.53zM0 0h10v30H0z" fill="#ff5064" data-name="レイヤー 2"/></svg>