<svg xmlns="http://www.w3.org/2000/svg" width="91.52" height="30"><path d="M42.39 14.49c-6.84 0-10.1 4.17-10.1 6.57s2.57 2.72 6.26 2.74a23.17 23.17 0 00-1.32 3.62c-3.79-.33-9.09-.88-9.09-5.88a7.77 7.77 0 012.64-5.4 56.9 56.9 0 00-8.93 2.14l-.94-4.34c1.87-.08 4-.24 5.86-.46a20 20 0 004.46-4.39c-.6 0-3.29.33-3.84.38-.74 0-1.25.07-1.73.07l-.24-3.72c.58 0 1.52.07 2.79.07A43.15 43.15 0 0037.67 5l1.48 2.21a73.71 73.71 0 00-6.53 5.49c4-.72 6-1.1 9.37-1.87zm13.92 8.33c5.21-1 6.75-5 6.75-7.49a5.68 5.68 0 00-5.55-5.88c-.74 8.78-4.36 15.33-6.91 15.33-1.87 0-5.35-3.16-5.35-7.6A11.78 11.78 0 0157 6c5.26 0 9.84 3.58 9.84 9.31A11.21 11.21 0 0164 22.72a13.4 13.4 0 01-5.21 3.48 15.37 15.37 0 00-2.48-3.38zm-7.51-5.93c0 1.85 1 3.24 1.54 3.24s1-1.08 1.29-1.71a20.9 20.9 0 001.85-8.25c-2.78 1.03-4.68 4.56-4.68 6.72zM73.93 27h-3.29V15.81c-.19.24-.38.45-.58.67A10.23 10.23 0 0068 13.65a22.62 22.62 0 005.33-8.81l3.24 1.27a.33.33 0 01.26.31c0 .19-.26.36-.6.41a27.73 27.73 0 01-2.18 4.34c.21.1.38.2.38.46s-.31.38-.5.46zm7.75-15.8V5l3.22.24c.26 0 .53 0 .53.36s-.29.36-.53.43v4.47l3.48-.77 1.56.89v6.05c0 2.71-.55 3.46-.82 3.79a4.7 4.7 0 01-3.31 1.16 6.72 6.72 0 00-.91-2.88v2.54h-3.22v-6.72l-1.37.29v7.37c0 1 .87 1.27 2 1.27h4.44c1.25 0 1.46-.94 1.82-2.4a5.84 5.84 0 002.93 1.39c-.74 3.77-2.59 4.15-4.8 4.15h-5.47c-4 0-4.23-2-4.23-3.77v-7.29l-2.18.43-.65-3.21 2.83-.6V6.57l3.27.19c.12 0 .48 0 .48.36s-.15.33-.44.48v3.89zm3.22 2.69v4.44c.24 0 .69.05 1 .05s.67 0 .67-.68v-4.17zM0 0h10v30H0z" fill="#ff5064" data-name="レイヤー 2"/></svg>