<svg xmlns="http://www.w3.org/2000/svg" width="492.13" height="40"><path d="M0 0h10v40H0zm36.45 22.05l.32.11c0-1 .07-1.83.07-2.88h-10v-4.86h13.39v-2.77H29.39V6.93h10.84V3.34l5.94.25a.38.38 0 01.39.36c0 .36-.32.61-.83.83v2.15h10.84v4.72H45.73v2.77h13.5v4.86h-10.4V33c0 3.35-2.48 3.35-7.16 3.35a21.87 21.87 0 00-1.55-5.26 11.52 11.52 0 002.19.22c1.3 0 1.52-.29 1.52-2.09v-9.9h-1.66c.07 4.43-.36 6.88-1.15 8.86a15.11 15.11 0 01-9.15 8.46A16.57 16.57 0 0028.6 32a11.51 11.51 0 006.4-3.76c.79-.93 1.36-2.19 1.69-5.32-.22 0-.51.11-.87.14a36.35 36.35 0 01-4.6 7.52 29.58 29.58 0 00-5-2.77 28.73 28.73 0 005-7.77zm17.6-1.87A37.37 37.37 0 0158.8 29a39.49 39.49 0 00-5.36 3c-.58-2.16-1.41-4.46-4.54-9.86zM79.9 4.52c.29.08.68.22.68.58s-.18.47-.79.5c-.79 2.45-.86 2.7-1 3.24A55 55 0 0090.48 6c.18 1.19.65 3.92 1 5.36a62.19 62.19 0 01-14.72 3.06c-.87 2.38-1.16 3.1-1.88 4.86a21.34 21.34 0 019.36-2.45c9.61 0 10.12 6.77 10.12 8.57a8.89 8.89 0 01-3.85 7.27C88.61 34 85 36.13 75 36.13c-1.51 0-2.56-.11-3.35-.18a25.26 25.26 0 00-1.33-5.37 52 52 0 005.36.33c.83 0 7 0 10.69-2.2a3.66 3.66 0 002-3.38c0-2.09-1.08-3.85-4.39-3.85s-8.25 1.62-12.46 6l-5.19-2.58a50.23 50.23 0 004.78-10.12c-3.13 0-5.61-.11-7-.21l-.07-5.91a32.85 32.85 0 008.71.8 49 49 0 001.37-6.38zm34.74 4.75c.43.51 2.23 2.74 2.59 3.17a16.12 16.12 0 014-.61 6.84 6.84 0 017.16 7c0 6.73-7.31 7.34-11 7.63a24.57 24.57 0 00-1.65-4.82h1.65c1.23 0 5.83 0 5.83-3.16 0-.62-.18-2-2.3-2h-.79c.65 1 1 1.72 1.33 2.26-1.33.54-3.42 1.41-4.71 2a22.16 22.16 0 00-1.36-2.74 33.53 33.53 0 00-2.62 1.33 71.57 71.57 0 015 13.9 49.49 49.49 0 00-5.12 2.48c-.64-5.07-3.24-11.52-4.21-13.82-1 .75-1.33 1-4.06 3.35l-3.24-5.08a47.87 47.87 0 005.11-2.55 27.71 27.71 0 00-3.24-4.72l4.89-2a2.17 2.17 0 01.76-.21.38.38 0 01.43.39 1.06 1.06 0 01-.32.58c.54 1 1.4 2.59 1.94 3.56l2-1c-.57-.8-.75-1.05-2.27-3zm38.99-3.67c.32.15.57.33.57.65s-.54.43-.86.36c-1.33 2.34-3 5.62-4.93 9.4-.36.68-.51.9-.8 1.36a14.48 14.48 0 013.35-.46c2.23 0 5.26.86 5.26 4.6a16.25 16.25 0 01-.33 3 16.86 16.86 0 00-.43 3.52c0 .94.25 1.8 1.37 1.8S162 27.6 164.57 24a38.11 38.11 0 003.78 4.57 26.49 26.49 0 01-6.12 5.22 14.31 14.31 0 01-6.88 2.12c-3.34 0-5.76-1.9-5.76-5.47 0-1.08.62-5.83.62-6.8 0-1.3-.72-1.73-1.48-1.73-3.89 0-8.21 11.13-8.78 13.29l-5.87-2.45c2.3-3.85 7.52-14.65 8.64-17 2.27-4.89 3.71-8.46 5.4-12.81zm25.84 11.09v11.77c0 .9 1 1.73 1.95 2.2 1.47.68 1.87.9 9.54.9a100.44 100.44 0 0013.21-.87 10.73 10.73 0 00-1.69 5.22h-16.67a19.47 19.47 0 01-5.26-.72 7.94 7.94 0 01-3.63-2.27 36.52 36.52 0 01-3.64 2.81c0 .76 0 1.26-.5 1.26-.11 0-.36-.07-.58-.5l-2.52-4.68a25.55 25.55 0 004.72-2.41v-7.92h-3.89v-4.79zm-5.36-13.07a32.89 32.89 0 015.15 5 50.76 50.76 0 00-3.93 3.82 34 34 0 00-4.89-5.26zm14.58-.43l5 .18c.54 0 .72.15.72.4s-.36.54-.72.75v.9h9.07v3.67h-9.07v1.44h7.41V23h-7.41v1.44H203v3.89h-9.25v2.37h-5v-2.38h-8.14v-3.89h8.14V23h-7.24V10.53h7.24V9.09h-8.82V5.42h8.82zm0 10.37h-2.45v1.62h2.45zm0 4.53h-2.45v1.62h2.45zm5-2.91h2.55v-1.62h-2.55zm0 4.53h2.55v-1.62h-2.55zm28.37-6.87a11.87 11.87 0 017.38-3.67c1 0 4.57.75 4.57 5.61 0 1.19 0 1.44-.9 7.38a31 31 0 00-.29 4.1c0 .47 0 1.7.94 1.7.43 0 1.94-.26 4.54-3.1a24 24 0 001.94 5.58c-3.24 3.13-6 3.82-7.63 3.82-2 0-5.44-1.3-5.44-6.52 0-1.8 1-10.22 1-11.27a1.06 1.06 0 00-1.17-1.18c-2.2 0-5.29 3.67-7.6 6.37a116.24 116.24 0 00.69 14.18l-6.3.29a51 51 0 00.32-6.19v-1.48c-.5.72-2.55 4-3.06 4.54l-4.39-4.43a76.38 76.38 0 007.56-9.22v-1.36a29.31 29.31 0 01-5.73 1.29l-1.18-6.08a24.75 24.75 0 007.05-1.08c.07-2.45.11-7.24 0-8.5l5.25.44c.4 0 1 .1 1 .61s-.47.47-.72.54c-.29 2.84-.36 4.28-.4 5.32zm52.7-2.84c-8.89-.14-16.59 7.85-16.59 13.68 0 4.17 5.29 6.23 10.19 6.33a47.82 47.82 0 00-2.7 6.56c-2.92-.8-13.25-3.68-13.25-12.28 0-6.66 5.15-11.45 6.62-12.38a96.34 96.34 0 00-14.9 2.27l-.83-6.77a116.36 116.36 0 0016-.83A86.05 86.05 0 00273.76 4zm-6 5.11a22.72 22.72 0 013.38 3.89c-1 .72-1.52 1.12-2.78 2.16a28.13 28.13 0 00-3.2-4.06zm3.78-2.55a22.56 22.56 0 013.2 3.78c-.9.68-1.51 1.22-2.63 2.23a26.29 26.29 0 00-3.2-4.07zm25.05 23.85h-5.18V26.8a35.79 35.79 0 01-10.55 9.2 12.57 12.57 0 00-4.61-3.56 30.94 30.94 0 0011.56-9.21h-10.37v-4.7h6.73a29.08 29.08 0 00-2.88-5.33l2.59-1.44h-4.75V7.08h12.28V3.41l5.4.32c.43 0 .79.07.79.54s-.72.61-1 .69v2.12h12.2v4.68h-4.68l2.2.93c.25.11.36.26.36.44 0 .46-.43.54-.72.61a32.5 32.5 0 01-2.27 4.79h6.8v4.68h-10.7A28.1 28.1 0 00312 31.92a17.06 17.06 0 00-3.82 3.88 28.22 28.22 0 01-10.58-9.21zm-5.18-17.88v-6.77h-4.65a20.16 20.16 0 013 5.54 17.8 17.8 0 00-2.76 1.23zm5.18-6.77v6.77h4.17a25.06 25.06 0 00-2.48-1.3 28.17 28.17 0 002.72-5.47zm30.53-.18c.25.07.54.14.54.47s-.43.46-.83.5a24.29 24.29 0 00-2.38 6.23A19.92 19.92 0 01336 15.43c6.19 0 9.21 4.57 9.21 8.86 0 6.87-6.48 11.58-18.39 11.58-1.05 0-2 0-2.63-.07a20.56 20.56 0 00-1.69-6 20.58 20.58 0 005.32.54c8.18 0 11.41-3.06 11.41-6.09 0-1-.5-3.67-4.21-3.67-5.14 0-8.89 3.31-11.48 5.9l-5.15-1.87a86.59 86.59 0 013.78-14.9zm-2-8.42a35.79 35.79 0 0112.09 4 47.84 47.84 0 00-3.21 5.25A32 32 0 00324.27 8zm39.94 9.68a11.87 11.87 0 017.38-3.67c1 0 4.57.75 4.57 5.61 0 1.19 0 1.44-.9 7.38a31 31 0 00-.29 4.1c0 .47 0 1.7.94 1.7.43 0 1.94-.26 4.54-3.1a24 24 0 001.94 5.58c-3.24 3.13-6 3.82-7.63 3.82-2 0-5.44-1.3-5.44-6.52 0-1.8 1-10.22 1-11.27a1.06 1.06 0 00-1.17-1.18c-2.2 0-5.29 3.67-7.6 6.37a116.24 116.24 0 00.69 14.18l-6.3.29a51 51 0 00.32-6.19v-1.48c-.5.72-2.55 4-3.06 4.54l-4.39-4.43a76.38 76.38 0 007.56-9.22v-1.36a29.31 29.31 0 01-5.73 1.29l-1.18-6.08a24.75 24.75 0 007.05-1.08c.07-2.45.11-7.24 0-8.5l5.25.44c.4 0 1 .1 1 .61s-.47.47-.72.54c-.29 2.84-.36 4.28-.4 5.32zm46.08-5.15c-2.45 1.62-8 7.2-8.82 8a19.19 19.19 0 014.32-.54c4.9 0 9.94 3.09 9.94 9.46 0 7.92-7.53 11.38-13.75 11.38-4.65 0-9.15-1.84-9.15-6.19 0-3.57 3.31-5.76 7.06-5.76 3.38 0 6.91 1.91 7.74 5.29a4.77 4.77 0 002.37-4.25c0-.86-.29-5.25-5.86-5.25-6.09 0-9.54 3.56-14.55 8.78l-4.32-4.21a95.43 95.43 0 0014.58-14c-1.15.25-2.37.54-9.57 1.26L391.26 6c1.41 0 11.81.14 18-2.27zm-10.83 20.88c-1.23 0-1.52.68-1.52 1.29 0 1.37 2 1.91 3.24 1.91a5.88 5.88 0 001.8-.29 3.53 3.53 0 00-3.52-2.91zM455.45 8.3v5.15h-15.52c0 1.33-.14 2.27-.21 3h11.37c0 12.16-.68 15.48-3.24 18-1.83 1.84-5.76 2-7.09 2a9.14 9.14 0 00-2.66-5.65c1 .14 3.42.54 3.78.54a2.66 2.66 0 002.88-2.09 25 25 0 001-7.84h-7a24.32 24.32 0 01-13 15.11c-.87-1.36-2.67-3.34-4.43-3.88 6.41-2 13.1-7.24 13.1-19.19h-11.88V8.3h13.53v-5l5.76.32c.22 0 .65.11.65.5s-.4.54-.65.65V8.3zm1.69 13.79a38.3 38.3 0 008-8.39c2.92-4 3.89-5.25 6.08-5.25s3.78 1.55 6.12 4.46c3.09 3.85 8 9.93 14.79 14.65a36.12 36.12 0 00-4 5.47c-6.08-5.11-10.25-10.26-15.13-16.23-.29-.36-1.26-1.55-1.95-1.55s-1.26 1-1.76 1.69c-4.1 6-4.54 6.7-7.34 9.79z" fill="#ff5064" data-name="レイヤー 2"/></svg>