<svg xmlns="http://www.w3.org/2000/svg" width="403.69" height="30"><path d="M31.09 5.51c.31 0 .5.1.5.31s-.26.34-.4.39c-.08.72-.13 1.56-.17 2.54a17.66 17.66 0 003.77-1.2v2.54a9.9 9.9 0 000 1.3 17.86 17.86 0 01-3.94 1.08c0 .27-.05 1.42-.05 1.63a12.23 12.23 0 014.08-.72 6.37 6.37 0 016.65 6.51 5.56 5.56 0 01-5.69 6c-3.62 0-3.74-3.21-3.77-4.22l3-1c0 .48 0 1.61 1.13 1.61.91 0 1.51-.91 1.51-2.11A3 3 0 0034.5 17a11.13 11.13 0 00-3.72.84 70.12 70.12 0 00.31 7.16l-3.29 1.51a32.22 32.22 0 00-4.2-3.43c-.6.65-.89 1-1.22 1.39l-1.73-4.13c1.1-.6 5.47-3.91 6.43-4.51v-2.88c-1.42.07-3.1.1-4.47.1V9.23a10.24 10.24 0 001.9.15c.93 0 2.28-.1 2.57-.1 0-1.8 0-2.07-.1-4.47zM25.71 21a2.58 2.58 0 001.08.63c.36 0 .34-.84.31-1.76-.28.23-.79.59-1.39 1.13zM38.24 8.22a20.46 20.46 0 015.23 3.84A16.72 16.72 0 0041.15 15a13.94 13.94 0 00-5.09-3.77zM58.35 6c.27.1.41.17.41.39s-.41.41-.69.43a28.83 28.83 0 00-1.42 2.52c1.27.12 2.5.17 3 .17h1.18a17.89 17.89 0 00-1.06 3.79 29 29 0 01-4.54-.21c-.29.65-.62 1.51-.86 2.11a37.24 37.24 0 005.33.36c-.46 1.3-.84 2.81-1 3.55-1.47-.09-3.13-.24-5.38-.57a7.77 7.77 0 00-.32 1.9c0 2.93 2.72 2.93 3.89 2.93s4.66 0 4.66-3.48a9.19 9.19 0 00-1.22-3.75A11.5 11.5 0 0064 14.85a12.49 12.49 0 011.66 5.45c0 5.28-5.57 6.5-8.72 6.5-4.82 0-7.49-2.5-7.49-6a12.1 12.1 0 01.36-2.91 19.1 19.1 0 01-3.15-.89l.82-3.55a21.81 21.81 0 003.24 1c.1-.31.26-.84.72-2.13a21.83 21.83 0 01-3.58-1.2l.72-3.72a31.23 31.23 0 004.25 1.32c.24-.65 1.4-3.58 1.63-4.18zm22.25-.32c.19.05.46.14.46.38s-.12.31-.53.34C80 8 80 8.2 79.83 8.56a36.24 36.24 0 007.83-1.9c.12.79.43 2.62.67 3.58a41.65 41.65 0 01-9.82 2c-.57 1.58-.77 2.06-1.25 3.24a14.24 14.24 0 016.25-1.63c6.4 0 6.74 4.51 6.74 5.71a5.93 5.93 0 01-2.57 4.85c-1.27.86-3.67 2.3-10.32 2.3a21.41 21.41 0 01-2.23-.12 17.12 17.12 0 00-.89-3.57c.7.07 2.11.21 3.58.21.55 0 4.65 0 7.13-1.46a2.44 2.44 0 001.29-2.26c0-1.39-.72-2.57-2.93-2.57A12.3 12.3 0 0075 21l-3.46-1.73a33.08 33.08 0 003.19-6.74c-2.08 0-3.74-.07-4.65-.14V8.45a22.25 22.25 0 005.77.55 31.76 31.76 0 00.91-4.25zm23.16 3.17c.29.33 1.49 1.82 1.73 2.11a10.27 10.27 0 012.64-.41 4.57 4.57 0 014.78 4.68c0 4.49-4.88 4.9-7.33 5.09a16 16 0 00-1.1-3.22h1.1c.82 0 3.89 0 3.89-2.11 0-.41-.12-1.35-1.53-1.35h-.53c.43.69.67 1.15.89 1.51-.89.36-2.28.93-3.15 1.32a15 15 0 00-.88-1.85c-.89.41-1.42.7-1.76.89a46.93 46.93 0 013.36 9.26 31.28 31.28 0 00-3.41 1.66 41.31 41.31 0 00-2.8-9.22c-.7.51-.89.67-2.72 2.23l-2.16-3.38a30.85 30.85 0 003.41-1.7A17.76 17.76 0 0096 11.27l3.3-1.34a1.16 1.16 0 01.5-.15.26.26 0 01.29.27.69.69 0 01-.22.38l1.3 2.38 1.37-.68c-.39-.52-.51-.69-1.52-2zm16.85 1.2a24.88 24.88 0 015.62 3.28 22.52 22.52 0 00-2.33 3.2 20.68 20.68 0 00-5.45-3.27zM119.84 23a35.08 35.08 0 0016.9-12.72 12.58 12.58 0 002.47 3.24c-3 4.51-10.13 10.42-16.54 12.79 0 .15 0 .55-.41.55-.16 0-.31-.24-.36-.31zM123 4.72a36.49 36.49 0 016 2.83c-.51.58-2 2.62-2.28 3.12a25.47 25.47 0 00-5.84-3zm21.56 20.35V22h10.73v-2.45h-10.11v-3.14h10.11V14.1h-10.42V11h13.78v14.79h-3.36v-.72zM186.44 14v4.08h-20.86V14zm13.87 8.82c5.21-1 6.75-5 6.75-7.49a5.68 5.68 0 00-5.55-5.88c-.74 8.78-4.37 15.33-6.91 15.33-1.87 0-5.35-3.16-5.35-7.6A11.78 11.78 0 01201 6c5.26 0 9.84 3.58 9.84 9.31a11.21 11.21 0 01-2.84 7.41 13.4 13.4 0 01-5.21 3.48 15.37 15.37 0 00-2.48-3.38zm-7.51-5.93c0 1.85 1 3.24 1.54 3.24s1-1.08 1.29-1.71a20.9 20.9 0 001.85-8.25c-2.78 1.03-4.68 4.56-4.68 6.72zm33.79 9.6h-4.13V15.57a44.73 44.73 0 01-6.64 3.43 12 12 0 00-2.88-3.44 33.5 33.5 0 0016.34-11l3.19 2.52a.55.55 0 01.29.46c0 .21-.19.31-.38.31a1.52 1.52 0 01-.48-.07 47 47 0 01-5.31 4.92zm10.2-10.01c1.71-1.32 2-1.68 5.93-6.29 1.92-2.28 3.17-2.35 3.74-2.35 1.18 0 2.07.62 3.22 2 5 5.95 6.51 7.68 10.13 10.61a19.8 19.8 0 00-2.52 3.48c-1.3-1.25-2.64-2.52-8.83-9.82a16.58 16.58 0 00-1.61-1.8.73.73 0 00-.51-.19c-.55 0-1.32.91-1.94 1.63s-3.6 4.61-4.2 5.38a.67.67 0 01.14.43.26.26 0 01-.28.26c-.17 0-.27-.07-.46-.29zm17.71-9.43a16.66 16.66 0 012.5 2.57 14 14 0 00-1.78 1.67 28.1 28.1 0 00-2.5-2.66zm2.5-2.21a23.84 23.84 0 012.38 2.54 19.9 19.9 0 00-1.68 1.71 22.79 22.79 0 00-2.45-2.79zm7.82.86a22.89 22.89 0 016 3.94c-.57.69-.74 1-2.32 3.26a25.25 25.25 0 00-6.05-3.84zm-2 16.59a28.43 28.43 0 0017.89-12.91 15.35 15.35 0 002.48 3.26 31.84 31.84 0 01-7.47 8 39.35 39.35 0 01-9.89 5.36c0 .27-.12.53-.33.53s-.24-.07-.39-.33zM297 11.58a35.06 35.06 0 018.38 5.64c-1.08 1.56-1.2 1.73-2.26 3.36a35.77 35.77 0 00-7.49-5.33v11.26h-4V5.32l4 .19c.17 0 .46 0 .46.26s-.26.34-.46.39v7.34zm33.3-3.04V24.3c0 1.16 0 2.69-3.22 2.69-.6 0-1.41-.07-2-.09a9 9 0 00-1.27-3.84 16.5 16.5 0 002.21.31c.31 0 .62-.15.62-.89V20a9.9 9.9 0 00-1.8 2.26 10.42 10.42 0 01-4.8-4.95 16.41 16.41 0 01-5.19 5.4 6.55 6.55 0 00-1.56-2.25V27h-3.64V8.54h8.47V4.86L322 5c.28 0 .45.14.45.33s-.31.39-.64.48v2.73zm-17 10.72a9.2 9.2 0 004.7-7.32h-4.7zm8.53-7.32a7 7 0 001.32 3.94 10.76 10.76 0 003.5 3.1v-7zm29.73 14.91h-3.43v-.55h-8v.55h-3.53v-6a12 12 0 01-1.85.87 6.39 6.39 0 00-2.49-2.43c2.44-1 7.77-3.5 10.2-8.59l3.31.62c.24.05.45.22.45.39s-.07.21-.28.33a23.58 23.58 0 009.89 6.65 9.08 9.08 0 00-2.45 2.81 8 8 0 01-1.78-.84zm3.27-20.26V12h-3.15a16.25 16.25 0 002.32 1.41 8 8 0 00-2.6 2.35 26.61 26.61 0 01-5.21-4.47l2.57-1.89H339l2.45 1.34a.53.53 0 01.29.39c0 .26-.29.33-.5.36a16.56 16.56 0 01-4.4 4.22 7.26 7.26 0 00-2.61-2.16 13.42 13.42 0 002.23-1.55h-3.28V6.59h9V4.67l3.72.1c.26 0 .48.14.48.28s-.27.34-.48.46v1.08zm-18.15 5.19a13.87 13.87 0 002-2.38h-2zm11.45 11.59V20.8h-8v2.57zm-1-5.69a22.46 22.46 0 01-3.26-3 27.81 27.81 0 01-3 3zM349 9.4a20.26 20.26 0 002.44 2.35V9.4zm9.16-.63a16.47 16.47 0 002.66.2c.7 0 1.42-.05 2.45-.12a39 39 0 00.89-4.08l3.77 1.17c.33.1.45.19.45.39s-.38.28-.5.28c-.07.17-.38 1.28-.48 1.59a21 21 0 002.6-.79 25 25 0 00.08 3.57 31.74 31.74 0 01-3.85.84c-.33 1-1.15 3.2-2.44 6.15a32.4 32.4 0 01-2.79 5.28 18.92 18.92 0 00-3.6-1.44 43.56 43.56 0 004.85-9.48c-.56.05-2.86.12-3.6.12zm15.53 6.56a3.52 3.52 0 00-.86 2.35 15.84 15.84 0 00.24 2.35 25.55 25.55 0 015.08 2.97 24.16 24.16 0 00-2.2 2.88 23.06 23.06 0 00-2.76-2c-.46 2.26-2 2.93-4.81 2.93-3.81 0-5.71-1.7-5.71-4 0-.45.1-3.79 4.95-3.79.67 0 1.15.05 1.58.07 0-.17-.12-1.89-.12-2.09a4.65 4.65 0 011.68-3.33zm-5.95 6.53c-.68 0-1.54.33-1.54 1s.7.89 1.71.89c1.63 0 1.72-.79 1.8-1.39a4.69 4.69 0 00-1.97-.5zm4.65-12.8a17.87 17.87 0 016.32 3.12 31.68 31.68 0 00-2.19 3.1 17.12 17.12 0 00-6-3.1zm28.68 4.27c-4.56.2-13.92 4-13.92 7.37 0 1.88 3.34 2.07 5.55 2.07a24.49 24.49 0 008.37-1.39 13.74 13.74 0 00-.36 3.24 7.54 7.54 0 00.08 1 43.94 43.94 0 01-7.88.69c-4.25 0-6.17-.55-7.34-1.29a5 5 0 01-2.5-4.13c0-3.26 3.19-5.5 5.21-6.72-1.37-1.37-1.56-2.71-2-6a8.89 8.89 0 00-.58-2.33l4.71-1a11.71 11.71 0 00-.15 2.21c0 3.81.7 4.92 1 5.45 1.52-.7 2.88-1.35 5.24-2.26.48-.19 2.66-1 3.12-1.18zm-2-8.16a17 17 0 011.73 2.55 8.26 8.26 0 00-2 1.2 24.69 24.69 0 00-1.6-2.47zm2.93-.81a17.18 17.18 0 011.73 2.54 8.26 8.26 0 00-2 1.2 18.45 18.45 0 00-1.61-2.47zM0 0h10v30H0z" fill="#ff5064" data-name="レイヤー 2"/></svg>