<svg xmlns="http://www.w3.org/2000/svg" width="239.05" height="40"><path d="M0 0h10v40H0zm52.1 18.89H33.89v-3a33 33 0 01-4.35 2.31 20.3 20.3 0 00-4-4.32c5.46-1.55 12.6-7.2 14.58-11.16l6.41.8A.46.46 0 0147 4c0 .4-.46.58-.72.65a32.1 32.1 0 0014.32 8.66c-1.91 1.15-3.49 4.32-3.56 4.5a31.91 31.91 0 01-4.94-2.34zm-24 11.48l5.61-.18a40.67 40.67 0 002.27-5.26h-7.7v-4.75h29.55v4.75h-7.42A43.64 43.64 0 0157.9 33a21.26 21.26 0 00-4.18 3.82 38.15 38.15 0 00-2.52-3.6c-4.13.68-12.13 1.76-20.76 2.3-.29.65-.44 1-.83 1s-.43-.32-.47-.58zm21.81-16.24a47.43 47.43 0 01-7.09-5.79 61 61 0 01-6.41 5.79zm-2.31 10.8h-4.67c0 .33-.11.54-.87.69-.65 1.44-1.44 2.8-2.23 4.21 3.64-.29 5.8-.54 7.56-.76-1-.9-1.58-1.4-2.27-2zm23.26 4.14a.52.52 0 01.36.51c0 .54-.61.54-1 .54a40.24 40.24 0 01-4.31 6.12 16.39 16.39 0 00-4.4-2.13 21.46 21.46 0 004.86-7zM73 6.9V3.66l5.5.32c.33 0 .62.15.62.47s-.11.47-1 .76V6.9h1.78v4.17h-1.77v11.7h2v4H62.22v-4h2.42v-11.7h-2.2V6.9h2.2v-3l5.43.22a.53.53 0 01.54.51c0 .36-.36.5-.86.75V6.9zm-3.24 4.17v1.66H73v-1.66zm0 5v1.62H73v-1.58zm0 5v1.62H73v-1.54zM81.37 4.78h13.36v27.75c0 2.3-.79 3.85-6.45 3.74a11.61 11.61 0 00-2.12-5 11.77 11.77 0 002.3.33c1 0 1-.54 1-1.08v-6h-3.23a22 22 0 01-5.32 12.13A9.68 9.68 0 0076.37 34c.79-.86 1.15-1.3 1.66-1.94-2.34 1.15-2.63 1.26-3.57 2.08a24.72 24.72 0 01-2.81-5.11l3.78-2a22.32 22.32 0 003 4.47c1.18-1.77 3-5.19 3-11.34zm8.1 12.16h-2.91v3.21h3zm-2.91-4.35h2.91V9.38h-2.91zm21.27-6.41c.69.25 1 .36 1 .61s-.72.4-1 .43a41.91 41.91 0 00-2.33 14.87 12.53 12.53 0 00.25 2.88c.21-.4 1.08-2 1.51-2.7a10.34 10.34 0 002.74 2.95c-.9 1.69-2.56 5.87-2.38 8.6l-5.11 1.37a38 38 0 01-2.51-14.4c0-6.51 1-11 2.3-16.7zm9.51 16.92a9.56 9.56 0 00-.54 2.55c0 1.59.86 1.84 5 1.84a37 37 0 008.89-1 23.77 23.77 0 00-.54 5.86 76.34 76.34 0 01-9.11.47c-5.36 0-9.5-.93-9.5-5.33a13.33 13.33 0 011.19-5.29zM113 7.73c1.08.07 2.52.18 4.68.18a41.21 41.21 0 0010.58-1.16 54 54 0 00.51 5.48 54.29 54.29 0 01-11.09 1.08c-2.12 0-3.53-.11-4.68-.18zm20.94 2.8a29.44 29.44 0 004.53-.86C148.62 7 151.07 6.4 155 6.4c8.64 0 12.42 5.72 12.42 12 0 13.57-16.38 14.58-22.18 14.87a23.76 23.76 0 00-1.83-5.76c6.48 0 17.92-.18 17.92-9 0-1.88-.64-6.88-7-6.88-5.37 0-14.26 3.64-18.15 5.83zM179 7c.32.11.72.22.72.54 0 .47-.43.54-.76.58a32.32 32.32 0 00-2 10.83c0 4.39 1.37 7.45 2.41 7.45s2.52-3.16 3.49-5.43a16.29 16.29 0 003.78 3.81c-2.88 7-6.15 9.43-7.92 9.43-2 0-7.34-4.28-7.34-15.4a64.3 64.3 0 011.72-13.49zm17.39.25a35.89 35.89 0 017.27 18.11c-2.13.83-4.68 2.05-5.87 2.66a32.75 32.75 0 00-6-17.82zm42.66 2.56c-10.29-.1-16.41 8.93-16.41 13.61 0 6 8.13 6.41 10 6.52a31.58 31.58 0 00-2.7 6.47c-6.3-1.47-13.25-4.82-13.25-12.56 0-6.62 5-10.76 6.38-11.91a120.86 120.86 0 00-14.87 2.12l-.76-6.77c.8 0 1.55.11 2.7.11 5.29 0 19.66-1 27.83-3.56z" fill="#ff5064" data-name="レイヤー 2"/></svg>