<svg xmlns="http://www.w3.org/2000/svg" width="239.05" height="40"><path d="M0 0h10v40H0zm42 11.43c0-1.22 0-1.54-.08-2.37h-7.85V3.77h13.75c0 .93-.25 5.07-.25 5.9 0 10.94 5.83 18.57 13.21 23.11a14.39 14.39 0 00-4.72 3.92c-4.46-3.09-11-9.86-13-18.14-1.18 4-4 11.48-13.6 18.18a15.65 15.65 0 00-4.43-4c11-7.09 13-14.72 13.93-21.85zm35.92 14.94a25.31 25.31 0 01-4.25 4.36 8.92 8.92 0 00-3.38-2.41c.64-.51 1.18-.9 2-1.62-2.23 1-5 2-7.88 3 0 .44-.14.94-.54.94s-.5-.47-.58-.83l-1.22-5.07a31.34 31.34 0 004.08-.74v-8.21h-3.71v-4.68h3.71V3.62l5.32.29c.44 0 .76.07.76.4s-.22.43-.76.68v6.12h3.21v4.68h-3.21v6.55c.87-.36 1.41-.57 2.27-1h-.25v-3.61H95.3v3.64H81.37l-.68 1.15h14.36c0 3.64-.11 10.84-2.45 12.67-1.36 1.08-3.67 1.19-5.94 1.19a10.63 10.63 0 00-1-3.89A27.09 27.09 0 0181.41 37c-.94-1-1.51-1.29-3.82-2.3a25 25 0 007.6-8.32h-1.62a25.1 25.1 0 01-9.47 9.54A9.53 9.53 0 0070.93 33a21.84 21.84 0 008.39-6.66zm-3.28-5a15.78 15.78 0 00-.25 3.2 23.78 23.78 0 002.2-3.2zm18.14-4.82H76V3.87h16.78zm-4.86-7.71V7.62h-7.09v1.22zm-7.09 2.88V13h7.09v-1.28zm8.5 14.65a39.4 39.4 0 01-2.85 5c.44 0 .83.07 1.26.07.72 0 1.37-.07 1.62-.9a18.1 18.1 0 00.64-4.17zm18.5-20.19c.69.25 1 .36 1 .61s-.72.4-1 .43a41.91 41.91 0 00-2.33 14.87 12.53 12.53 0 00.25 2.88c.21-.4 1.08-2 1.51-2.7a10.34 10.34 0 002.74 2.95c-.9 1.69-2.56 5.87-2.38 8.6l-5.11 1.37a38 38 0 01-2.51-14.4c0-6.51 1-11 2.3-16.7zm9.51 16.92a9.56 9.56 0 00-.54 2.55c0 1.59.86 1.84 5 1.84a37 37 0 008.89-1 23.77 23.77 0 00-.54 5.86 76.34 76.34 0 01-9.11.47c-5.36 0-9.5-.93-9.5-5.33a13.33 13.33 0 011.19-5.29zM113 7.73c1.08.07 2.52.18 4.68.18a41.21 41.21 0 0010.58-1.16 54 54 0 00.51 5.48 54.29 54.29 0 01-11.09 1.08c-2.12 0-3.53-.11-4.68-.18zm20.94 2.8a29.44 29.44 0 004.53-.86C148.62 7 151.07 6.4 155 6.4c8.64 0 12.42 5.72 12.42 12 0 13.57-16.38 14.58-22.18 14.87a23.76 23.76 0 00-1.83-5.76c6.48 0 17.92-.18 17.92-9 0-1.88-.64-6.88-7-6.88-5.37 0-14.26 3.64-18.15 5.83zM179 7c.32.11.72.22.72.54 0 .47-.43.54-.76.58a32.32 32.32 0 00-2 10.83c0 4.39 1.37 7.45 2.41 7.45s2.52-3.16 3.49-5.43a16.29 16.29 0 003.78 3.81c-2.88 7-6.15 9.43-7.92 9.43-2 0-7.34-4.28-7.34-15.4a64.3 64.3 0 011.72-13.49zm17.39.25a35.89 35.89 0 017.27 18.11c-2.13.83-4.68 2.05-5.87 2.66a32.75 32.75 0 00-6-17.82zm42.66 2.56c-10.29-.1-16.41 8.93-16.41 13.61 0 6 8.13 6.41 10 6.52a31.58 31.58 0 00-2.7 6.47c-6.3-1.47-13.25-4.82-13.25-12.56 0-6.62 5-10.76 6.38-11.91a120.86 120.86 0 00-14.87 2.12l-.76-6.77c.8 0 1.55.11 2.7.11 5.29 0 19.66-1 27.83-3.56z" fill="#ff5064" data-name="レイヤー 2"/></svg>