<svg xmlns="http://www.w3.org/2000/svg" width="312.53" height="90"><path d="M0 0h10v90H0zm41.63 4.27c.47.07.76.14.76.47s-.4.5-.62.58c-.1 1.08-.18 2.34-.25 3.81a25.73 25.73 0 005.65-1.8c0 1.33-.07 3-.07 3.82a15.78 15.78 0 00.07 1.94 26.37 26.37 0 01-5.9 1.62c0 .4-.07 2.12-.07 2.45a17.93 17.93 0 016.12-1.08c5.43 0 10 3.78 10 9.75 0 6.7-5 9-8.53 9-5.44 0-5.62-4.83-5.65-6.34.75-.25 4-1.33 4.46-1.51 0 .72 0 2.41 1.69 2.41 1.37 0 2.27-1.37 2.27-3.17a4.53 4.53 0 00-4.79-4.75 17 17 0 00-5.58 1.26 108.08 108.08 0 00.47 10.84l-4.96 2.2a49.5 49.5 0 00-6.3-5.15c-.9 1-1.33 1.48-1.84 2.09L26 26.52c1.66-.9 8.21-5.87 9.65-6.77v-4.32c-2.12.11-4.64.14-6.69.14V9.85a14.88 14.88 0 002.84.22c1.4 0 3.42-.15 3.85-.15 0-2.7 0-3.09-.14-6.69zm-8.06 23.22a3.86 3.86 0 001.62.93c.54 0 .5-1.26.46-2.62-.43.36-1.18.9-2.08 1.69zM52.36 8.34a30.4 30.4 0 017.84 5.76 25.46 25.46 0 00-3.49 4.35 21 21 0 00-7.63-5.65zM82.53 5c.39.14.61.25.61.57 0 .51-.61.61-1 .65-.44.64-.87 1.36-2.14 3.78 1.91.18 3.74.25 4.5.25s1.26 0 1.76-.07a26.14 26.14 0 00-1.58 5.69 44.56 44.56 0 01-6.8-.33c-.44 1-.94 2.27-1.3 3.17a53.37 53.37 0 008 .54c-.68 1.95-1.26 4.21-1.55 5.33a97.54 97.54 0 01-8.06-.86 11.52 11.52 0 00-.4 2.91c0 4.39 4.07 4.39 5.84 4.39 1.54 0 7 0 7-5.22a13.69 13.69 0 00-1.84-5.61A17.24 17.24 0 0091 18.27c.86 1.59 2.48 5 2.48 8.17 0 7.92-8.35 9.76-13.06 9.76-7.24 0-11.24-3.74-11.24-9a17.92 17.92 0 01.54-4.35A30.32 30.32 0 0165 21.48l1.22-5.33a34.56 34.56 0 004.86 1.55c.14-.47.39-1.26 1.08-3.21a30.17 30.17 0 01-5.36-1.8l1.07-5.57a44 44 0 006.38 2c.36-1 2.08-5.36 2.44-6.26zm33.37-.48c.29.08.68.22.68.58s-.18.47-.79.5c-.79 2.45-.86 2.7-1 3.24A55 55 0 00126.48 6c.18 1.19.65 3.92 1 5.36a62.19 62.19 0 01-14.72 3.06c-.87 2.38-1.16 3.1-1.88 4.86a21.34 21.34 0 019.36-2.45c9.61 0 10.12 6.77 10.12 8.57a8.89 8.89 0 01-3.85 7.27C124.61 34 121 36.13 111 36.13c-1.51 0-2.56-.11-3.35-.18a25.26 25.26 0 00-1.33-5.37 52 52 0 005.36.33c.83 0 7 0 10.69-2.2a3.66 3.66 0 002-3.38c0-2.09-1.08-3.85-4.39-3.85s-8.25 1.62-12.46 6l-5.18-2.59a50.23 50.23 0 004.78-10.12c-3.13 0-5.61-.11-7-.21l-.07-5.91a32.85 32.85 0 008.71.8 49 49 0 001.37-6.38zm34.74 4.75c.43.51 2.23 2.74 2.59 3.17a16.12 16.12 0 014-.61 6.84 6.84 0 017.16 7c0 6.73-7.31 7.34-11 7.63a24.57 24.57 0 00-1.65-4.82h1.65c1.23 0 5.83 0 5.83-3.16 0-.62-.18-2-2.3-2h-.79c.65 1 1 1.72 1.33 2.26-1.33.54-3.42 1.41-4.71 2a22.16 22.16 0 00-1.36-2.74 33.53 33.53 0 00-2.62 1.33 71.57 71.57 0 015 13.9 49.49 49.49 0 00-5.12 2.48c-.64-5.07-3.24-11.52-4.21-13.82-1 .75-1.33 1-4.06 3.35l-3.24-5.08a47.87 47.87 0 005.11-2.55 27.71 27.71 0 00-3.24-4.72l4.89-2a2.17 2.17 0 01.76-.21.38.38 0 01.43.39 1.06 1.06 0 01-.32.58c.54 1 1.4 2.59 1.94 3.56l2.05-1c-.57-.8-.75-1.05-2.27-3zm25.27 1.8a36.81 36.81 0 018.42 4.93 36 36 0 00-3.49 4.78 30.46 30.46 0 00-8.17-4.89zm-1.15 19.37c11.3-3.89 20.62-12 25.34-19.08a18.66 18.66 0 003.71 4.86C199.27 23 188.62 31.84 179 35.41c0 .21-.08.83-.62.83-.25 0-.46-.37-.54-.47zm4.79-27.36a55.42 55.42 0 019 4.25c-.75.87-2.91 3.92-3.42 4.68a38.41 38.41 0 00-8.74-4.54zm32.29 30.53V29h16.09v-3.67h-15.16v-4.72h15.16v-3.45h-15.62v-4.72H233v22.25h-5v-1.08zM274.66 17v6.1h-31.28V17zm20.81 13.22c7.81-1.44 10.11-7.48 10.11-11.23a8.53 8.53 0 00-8.31-8.82c-1.12 13.18-6.56 23-10.37 23-2.81 0-8-4.76-8-11.41C278.87 14 285.93 5 296.51 5c7.88 0 14.76 5.36 14.76 14A16.8 16.8 0 01307 30.08c-2.2 2.56-4.75 3.89-7.81 5.22a23.54 23.54 0 00-3.72-5.08zm-11.27-8.89c0 2.77 1.55 4.86 2.3 4.86s1.55-1.62 1.95-2.55a31.75 31.75 0 002.77-12.39c-4.22 1.55-7.02 6.84-7.02 10.08zM46.89 83.73h-6.2V67.35a63.77 63.77 0 01-10 5.11 17.62 17.62 0 00-4.32-5.14c13.72-3.89 22.32-13.68 24.52-16.49l4.78 3.78a.83.83 0 01.44.68c0 .33-.29.47-.58.47a2.43 2.43 0 01-.72-.1 72.37 72.37 0 01-8 7.37zm15.3-15.01c2.55-2 3-2.52 8.89-9.43 2.88-3.42 4.75-3.53 5.61-3.53 1.77 0 3.1.94 4.83 3 7.56 8.93 9.75 11.52 15.19 15.91a29.93 29.93 0 00-3.78 5.22C91 78 89 76.06 79.68 65.12a22.46 22.46 0 00-2.41-2.7 1.14 1.14 0 00-.76-.29c-.82 0-2 1.37-2.91 2.45-1 1.23-5.4 6.91-6.3 8.06a1.13 1.13 0 01.22.65.42.42 0 01-.44.4c-.25 0-.39-.11-.68-.43zm26.56-14.14a25.09 25.09 0 013.78 3.85A20.09 20.09 0 0089.87 61a41.43 41.43 0 00-3.75-4zm3.75-3.32a36.76 36.76 0 013.56 3.82 32.45 32.45 0 00-2.52 2.55 36.33 36.33 0 00-3.67-4.17zm11.73 1.3c6 3.1 7.92 4.9 9 5.9-.86 1-1.11 1.44-3.49 4.9a37.13 37.13 0 00-9.07-5.76zm-3 24.87c10.26-2.12 20.38-9.07 26.78-19.36a23.27 23.27 0 003.76 4.93 47.75 47.75 0 01-11.19 12 60.41 60.41 0 01-14.83 8c0 .39-.18.79-.51.79s-.36-.11-.57-.51zm51.21-16.05c5.32 2.7 9.9 5.79 12.56 8.46-1.62 2.34-1.8 2.59-3.38 5a52.9 52.9 0 00-11.23-8v16.93h-6.09V52l6.09.29c.25 0 .68 0 .68.4s-.4.5-.68.57v11zm50-4.57v23.65c0 1.72 0 4-4.82 4-.9 0-2.13-.11-3-.15a13.64 13.64 0 00-1.91-5.76 23.46 23.46 0 003.31.47c.47 0 .94-.21.94-1.33v-3.75a14.94 14.94 0 00-2.7 3.38 15.61 15.61 0 01-7.2-7.41 24.7 24.7 0 01-7.78 8.1 10.07 10.07 0 00-2.28-3.39v9.83h-5.48V56.81h12.71V51.3l5.83.22c.43 0 .69.21.69.5s-.47.58-1 .72v4.07zM177 72.9a13.86 13.86 0 007.09-11H177zm12.77-11a10.69 10.69 0 002 5.9 16.13 16.13 0 005.23 4.66V61.92zm44.57 22.37h-5.15v-.83h-12.06v.83h-5.29v-9a17 17 0 01-2.77 1.29 9.59 9.59 0 00-3.75-3.63C209 71.38 217 67.64 220.62 60l5 .94c.36.07.68.32.68.57s-.1.33-.43.51c2.92 3.88 10.55 8.81 14.83 10a13.62 13.62 0 00-3.7 4.19 12.11 12.11 0 01-2.66-1.21zm4.89-30.38V62h-4.71a23.88 23.88 0 003.48 2.11 12.28 12.28 0 00-3.89 3.53 40 40 0 01-7.84-6.64l3.85-2.85h-14.65l3.68 2c.18.11.43.32.43.57 0 .4-.43.51-.76.54a24.65 24.65 0 01-6.59 6.34 10.79 10.79 0 00-3.92-3.24A20.76 20.76 0 00211.7 62h-4.94v-8.1h13.5V51l5.58.15c.4 0 .72.21.72.43s-.39.5-.72.68v1.62zM212 61.67a20.6 20.6 0 003-3.57h-3zm17.17 17.38V75.2h-12.04v3.85zm-1.51-8.53a34.45 34.45 0 01-4.9-4.5 40.07 40.07 0 01-4.46 4.5zm2.73-12.42a29.83 29.83 0 003.67 3.53V58.1zm13.85-.93a26.22 26.22 0 004 .29c1.05 0 2.13-.08 3.68-.19a56.69 56.69 0 001.33-6.11l5.65 1.76c.5.14.68.29.68.58s-.57.43-.75.43c-.11.25-.58 1.9-.72 2.37a32.32 32.32 0 003.89-1.18 38.29 38.29 0 00.1 5.36 47.31 47.31 0 01-5.76 1.26c-.5 1.47-1.72 4.79-3.67 9.21a48.31 48.31 0 01-4.21 7.92 28.85 28.85 0 00-5.4-2.16 64 64 0 007.27-14.22c-.82.08-4.28.18-5.4.18zM267.53 67a5.34 5.34 0 00-1.3 3.53 25.27 25.27 0 00.36 3.53 38.49 38.49 0 017.63 4.39 36.49 36.49 0 00-3.31 4.32 30.66 30.66 0 00-4.14-3c-.68 3.38-3.06 4.39-7.2 4.39-5.72 0-8.56-2.56-8.56-5.94 0-.69.14-5.69 7.41-5.69 1 0 1.73.07 2.38.11 0-.25-.18-2.84-.18-3.13a7 7 0 012.52-5zm-8.93 9.79c-1 0-2.3.51-2.3 1.48s1 1.33 2.55 1.33c2.45 0 2.6-1.19 2.7-2.09a7 7 0 00-2.95-.73zm7-19.18c5.73 1.87 7.85 3.38 9.47 4.68a45.59 45.59 0 00-3.27 4.64 25.89 25.89 0 00-9-4.64zm43 6.39c-6.84.28-20.87 6-20.87 11 0 2.8 5 3.09 8.31 3.09A36.5 36.5 0 00308.6 76a20.8 20.8 0 00-.54 4.86 14.74 14.74 0 00.11 1.55 65.2 65.2 0 01-11.8 1c-6.38 0-9.26-.83-11-2a7.43 7.43 0 01-3.74-6.19c0-4.89 4.78-8.24 7.81-10.08-2.05-2-2.34-4.07-3-9a13.76 13.76 0 00-.86-3.49l7.05-1.48a18.84 18.84 0 00-.21 3.31c0 5.73 1 7.38 1.54 8.17 2.27-1 4.32-2 7.85-3.38.72-.29 4-1.47 4.68-1.76zm-3.06-12.24a26.05 26.05 0 012.6 3.81 12.16 12.16 0 00-3 1.8 37.16 37.16 0 00-2.41-3.71zm4.4-1.23a27.5 27.5 0 012.59 3.82 11.8 11.8 0 00-2.95 1.8 28.1 28.1 0 00-2.42-3.71z" fill="#ff5064" data-name="レイヤー 2"/></svg>