<svg xmlns="http://www.w3.org/2000/svg" width="631.91" height="54.49"><path d="M1.91 49.49h630v5h-630zM32.5 14.58v6H0v-6zm21.39 14.61c2.2-.14 4.79-2.09 5.51-2.59a22.21 22.21 0 01-3.1-4.35l2.34-1.66h-3V15.8h14l1.7 1.87a28 28 0 01-5 9 16.93 16.93 0 006.15 2.85 24.44 24.44 0 00-2.59 4.32A33.49 33.49 0 0163.07 30a19.24 19.24 0 01-6.44 3.71 12.79 12.79 0 00-2.74-4.22v1.11c0 3-2 3.24-6.26 3.27A17 17 0 0046 29a9.41 9.41 0 002.48.36c1.22 0 1.22-.47 1.22-1.51v-8.7a7 7 0 01-1 .11v8.6h-3v-8.28a4.39 4.39 0 01-.72.07c-.11 4.14-.9 10.08-2.49 13.9a7.56 7.56 0 00-4.32-2.09c1.55-3 2.31-7.92 2.59-11.34a1.34 1.34 0 01-.39.07c-.25.47-.47.76-.76.76a.42.42 0 01-.36-.36l-.83-4.82c.87 0 1.41 0 2.24-.08V4.14h3.44c.25-.61.83-2.09 1.3-3.6l5.32.5c.22 0 .36.18.36.33 0 .32-.65.72-.9.79-.25.54-.61 1.44-.86 2h4.57v8.31a8.55 8.55 0 002.74-6.76v-4h11.23v7.86c0 .4 0 .69.39.69.65 0 .87-2 1-3.17A9.34 9.34 0 0073.36 9c-.68 4.65-1.22 5.55-3.7 5.55H66a2.69 2.69 0 01-2.88-3V6.19h-1.67c-.4 3.74-1.62 7.16-4 9.29a9.44 9.44 0 00-3.6-2.16v1.47c.47-.07 1.08-.1 1.3-.14-.08.76-.15 3.06-.18 4-.65 0-.83 0-1.12.07zM45 9.61L48.49 9a50 50 0 011.22 4.86V8.49H45zm0 5.83c1.18-.07 3.45-.21 4.67-.32V14a21.87 21.87 0 00-3.63.72 24.14 24.14 0 00-1-4.39zm15.87 5.15a13.3 13.3 0 001.8 2.81 13 13 0 001.73-2.81zM93 5.62a.54.54 0 01.29.46c0 .29-.25.36-.43.44s-.47.1-.65.17c-2.16 5.19-7.45 11.2-9.83 12.78a12.1 12.1 0 00-4.48-3.67 26.88 26.88 0 0010-12.7zm8 11.66A84.37 84.37 0 01110.34 31a13.42 13.42 0 00-5 2.95 33.81 33.81 0 00-1.55-3.17c-8 1.15-16.34 1.8-20 2.05 0 .26-.11 1-.65 1-.32 0-.5-.26-.61-.8l-1.22-5.25 3.88-.11a119 119 0 006.66-16.59L97.31 13c.18.07.5.18.5.54 0 .54-.72.54-1.08.57-.72 1.8-3.1 7.85-5.94 13.29.9-.08 6.55-.51 10.33-1-2.05-3.06-3.2-4.53-4.46-6.11zm2.74-15.41c1 6.44 4.06 9.68 9.39 13.39a9.6 9.6 0 00-3.71 3.85A25.48 25.48 0 0199.18 6.52h-5.33V1.87zm37.41 23.4V33h-4.57v-7.73h-2.66a13.54 13.54 0 01-5.51 8.49 10.44 10.44 0 00-4-2.66v2.59h-5.15v-32h15.08v12.49h-9.93v16.88c2.52-1.4 4.25-2.77 5-5.79h-3.71v-4h4.17v-2.12h-3.31v-3.78H144v3.78h-2.85v2.12h3.6v4zm-11.66-20h-5.11v1.28h5.11zm0 4.07h-5.11v1.36h5.11zm7.09 9.86h-2.23c0 .43 0 1.8-.07 2.12h2.3zm7.7 14.69a12.55 12.55 0 00-1.9-5.26 10.46 10.46 0 002.08.29c.69 0 1.44 0 1.44-1.26V14.18h-10V1.66h15.15v28c0 3.34-2.05 4.21-6.77 4.18zm1.62-28.67h-5.18v1.33h5.18zm0 4.07h-5.18v1.36h5.18zm47.81-7.24c.33 0 .62.11.62.51s-.36.61-.65.68c-.29 2.63-.36 4-.4 4.79a40.6 40.6 0 0011.3-1.8 40.1 40.1 0 00-.36 6.19 58.42 58.42 0 01-11.08 1.37 45.56 45.56 0 00.54 6.91c3.49.47 10.65 4.24 13 6a34.11 34.11 0 00-3.82 5c-.83-.65-5.36-4.07-8.71-5.19a5.72 5.72 0 01-1.44 4.39c-1.94 2.13-5.61 2.24-6.73 2.24-4.54 0-10.51-1.84-10.51-6.88 0-5.33 7.2-6.59 11.3-6.59a5.59 5.59 0 011 .08c-.28-5.22-.28-5.55-.28-13A31 31 0 00187 .94zm-8 22.53c-1.91 0-4 .58-4 1.91 0 1.66 2.84 1.69 3.13 1.69 3.42 0 3.42-1.33 3.42-3.27a7.47 7.47 0 00-2.57-.33zM239.54 4c.22.18.36.32.36.54a.39.39 0 01-.43.4 2.17 2.17 0 01-.61-.15c-.72.69-6.59 5.26-7.81 6.3-1.66 1.4-3.68 3.13-5 4.32-1.15 1-1.26 1.19-1.26 1.48s.15.46 1.55 1.26c.11.07 3.42 2.26 6.66 4.75a37.54 37.54 0 017.45 7.05 22.88 22.88 0 00-4.14 4.86c-1.58-2.34-7.52-8.6-18.14-15.48a2.5 2.5 0 01-1.22-2.12c0-.94.14-1.37 3.77-4.25A94.82 94.82 0 00234.43 0zm17.86 2.37a20.77 20.77 0 005 .47c.21 0 1.11 0 2.12-.07.5-2.27 1.15-4.25 1.66-5.91l5.61 1.77c.29.07.65.18.65.5s-.43.47-.86.51c-.44 1-.69 1.54-1.05 2.48a38.86 38.86 0 008.75-2.41l.79 5A60.39 60.39 0 01269 11.05c0 .29-.29 1.48-.32 1.73a17.8 17.8 0 013.7-.36c6.38 0 12.85 3.2 12.85 10 0 7.13-6.47 10.19-12.45 11.56a15 15 0 00-3.1-4.32c4.07-.83 9.47-2.81 9.47-7.24a4.38 4.38 0 00-3.06-4.35 39.26 39.26 0 01-6.51 9.07c.25.72.36 1 .57 1.58-.5.33-.68.44-2.23 1.34-.14.07-2.05 1.29-2.45 1.54-.25-.57-.29-.68-.43-1a11.93 11.93 0 01-6.26 1.94C254 32.5 254 27.93 254 27c0-2.05.61-8.46 9.32-12.52.11-1.66.22-2.31.29-3-1.15 0-1.84.08-2.38.08a21 21 0 01-4-.33zm5.83 14c-2.12 1.66-3.56 4.07-3.56 6 0 .86.32 1.08.79 1.08a6.56 6.56 0 003.31-1.45 54.8 54.8 0 01-.54-5.63zm5.15.69a36.88 36.88 0 002.23-3.67 11.75 11.75 0 00-2.41.46 25.31 25.31 0 00.18 3.21zm49.86-15.88c-2.45 1.62-8 7.2-8.82 8a19.71 19.71 0 014.32-.54c4.89 0 9.93 3.1 9.93 9.47 0 7.92-7.52 11.37-13.75 11.37-4.64 0-9.14-1.83-9.14-6.19 0-3.56 3.31-5.76 7.05-5.76 3.39 0 6.92 1.91 7.74 5.29A4.76 4.76 0 00318 22.6c0-.86-.29-5.25-5.87-5.25-6.08 0-9.54 3.56-14.54 8.78l-4.32-4.21a95.43 95.43 0 0014.58-14c-1.15.25-2.38.54-9.58 1.26l-.86-5.65c1.4 0 11.81.14 18-2.27zM307.4 26.06c-1.22 0-1.51.68-1.51 1.3 0 1.36 2 1.9 3.24 1.9a6.28 6.28 0 001.8-.28 3.54 3.54 0 00-3.53-2.92zm45.33-24.19c2.15.15 5.5-.72 7.66-1.37L363 3.89a1 1 0 01.18.39c0 .26-.22.33-.43.33a3.75 3.75 0 01-.8-.15 50.74 50.74 0 01-7.91.9 10 10 0 010 1.08h10.87V10h-4.61v3.56h-4.93V10h-1.94a17.25 17.25 0 01-2.49 4.18h9.83v14.44H359a24 24 0 005.58 1.58 23.65 23.65 0 00-2.84 4.14 39.72 39.72 0 01-10.55-4.46l1.37-1.26h-8.28l1.58 1.26c.26.18.33.28.33.43 0 .43-.54.36-1.23.29a50.58 50.58 0 01-9.35 3.7 12 12 0 00-2.85-3.92 37.38 37.38 0 005.76-1.76h-1.73V15.19a10.1 10.1 0 01-.93 1 10.42 10.42 0 00-4.39-2.2c3.13-2.55 3.31-6.58 3.31-12.42l3.89.58a22.54 22.54 0 006.71-1.43l2.05 3.42a.7.7 0 01.15.4.35.35 0 01-.36.32 3.52 3.52 0 01-.87-.32 48.13 48.13 0 01-6.91 1v.9h9.14v3.21c.36-.69 1-2 1-6.48V1.66zm-3 12.28a9.05 9.05 0 00-3.42-1.91 8.16 8.16 0 002.06-2.24h-2.74v3.56H341V10h-2a14.38 14.38 0 01-1.58 4.18zm-7.59 4.06h13.35v-1.15h-13.38zm13.35 2.31h-13.38v1.19h13.35zm0 3.49h-13.38v1.19h13.35zm31.65-22.39v13.43h-9.39v18.79h-5.19V1.62zm-4.68 5.15V5.11h-4.71v1.66zm-4.71 3.16v1.66h4.71V9.93zm7.95 21.21h-4.93v-13.9h14.61v10.84a16.32 16.32 0 002.63.43c.4 0 .72-.18.72-1V15.05h-9.39V1.62H404v28.29c0 3.82-3.78 3.89-5.15 3.89a7.74 7.74 0 01-1.65-.14 12.51 12.51 0 00-2-5.33h-9.4zm4.79-6.66v-3.39h-4.79v3.39zm8.24-17.71V5.11H394v1.66zM394 9.93v1.66h4.71V9.93z" fill="#ff5064" data-name="レイヤー 2"/></svg>