<svg xmlns="http://www.w3.org/2000/svg" width="560" height="59.42"><path d="M0 54.42h560v5H0zM39.91 17v7.06H2V17zm24.94 17.07c2.56-.17 5.59-2.44 6.43-3A25 25 0 0167.67 26l2.73-2h-3.53v-5.56h16.3l2 2.19a32.7 32.7 0 01-5.8 10.5 19.77 19.77 0 007.19 3.32 28.41 28.41 0 00-3 5 39.73 39.73 0 01-8-4.45A22.36 22.36 0 0168 39.28a14.75 14.75 0 00-3.19-4.92v1.35c0 3.48-2.39 3.78-7.31 3.82a19.52 19.52 0 00-1.89-5.67 11.35 11.35 0 002.9.42c1.43 0 1.43-.55 1.43-1.77V22.35a10 10 0 01-1.14.12v10h-3.44v-9.62a6 6 0 01-.84.09c-.13 4.83-1.05 11.76-2.9 16.21a8.88 8.88 0 00-5-2.44c1.8-3.52 2.69-9.24 3-13.23a1.87 1.87 0 01-.46.09c-.29.54-.55.88-.88.88a.48.48 0 01-.42-.42l-1-5.63c1 0 1.64 0 2.61-.08V4.83h3.94c.3-.71 1-2.44 1.52-4.2l6.21.59a.44.44 0 01.42.38c0 .37-.75.84-1 .92-.29.63-.71 1.68-1 2.31h5.33v9.7C66.45 13.15 68 10.67 68 6.64V2h13.15v9.15c0 .47 0 .8.46.8.76 0 1-2.39 1.14-3.69 2.14 1.38 2.81 1.8 4.83 2.18-.8 5.42-1.43 6.47-4.33 6.47H79a3.14 3.14 0 01-3.36-3.45V7.23h-2c-.46 4.36-1.89 8.35-4.62 10.83a11.07 11.07 0 00-4.2-2.52v1.73c.55-.09 1.26-.13 1.51-.17-.08.88-.16 3.57-.21 4.62-.75 0-1 0-1.3.08zM54.52 11.22l4-.76C59 11.76 59.81 15 60 16.13V9.91h-5.48zm0 6.8c1.38-.08 4-.25 5.46-.38v-1.26a26.33 26.33 0 00-4.24.84 28.65 28.65 0 00-1.22-5.12zM73 24a15.42 15.42 0 002.1 3.27 14.64 14.64 0 002-3.27zm37.42-17.45a.67.67 0 01.34.55c0 .34-.3.42-.51.5s-.54.13-.75.21c-2.5 6.05-8.7 13.07-11.5 14.92a14.08 14.08 0 00-5.17-4.29A31.31 31.31 0 00104.5 3.61zm9.33 13.61a98.25 98.25 0 0111 16.05 15.8 15.8 0 00-5.88 3.44A37.61 37.61 0 00123 36c-9.32 1.34-19.07 2.1-23.4 2.39 0 .3-.12 1.14-.75 1.14-.38 0-.59-.3-.72-.93l-1.42-6.13c2 0 3-.08 4.53-.13a138.21 138.21 0 007.76-19.4l6.47 2.18c.21.09.59.21.59.63 0 .63-.84.63-1.26.67-.84 2.11-3.61 9.16-6.93 15.51 1-.09 7.65-.59 12.06-1.14-2.4-3.57-3.74-5.29-5.21-7.14zm3.19-18c1.18 7.52 4.75 11.3 11 15.63a11.06 11.06 0 00-4.32 4.5A29.72 29.72 0 01117.69 7.6h-6.22V2.18zm43.72 27.33v9h-5.33v-9h-3.11a15.79 15.79 0 01-6.43 9.91 12.15 12.15 0 00-4.71-3.11v3h-6V1.93h17.6v14.62h-11.6v19.7c2.95-1.64 5-3.23 5.8-6.76h-4.32v-4.66h4.87v-2.48h-3.86v-4.41H170v4.41h-3.32v2.48h4.2v4.66zm-13.61-23.4h-6v1.56h6zm0 4.75h-6v1.59h6zm8.28 11.51h-2.61c0 .5 0 2.1-.08 2.48h2.69zm9 17.14a14.71 14.71 0 00-2.23-6.14 12.07 12.07 0 002.44.34c.79 0 1.68 0 1.68-1.47V16.55h-11.69V1.93h17.68v32.68c0 3.91-2.39 4.92-7.89 4.88zm1.89-33.4h-6.05v1.56h6.05zm0 4.75h-6.05v1.59h6.05zM228 2.39c.38 0 .71.13.71.59s-.42.72-.75.8c-.34 3.07-.42 4.62-.46 5.59a47.44 47.44 0 0013.19-2.1 44.85 44.85 0 00-.42 7.22 67.78 67.78 0 01-12.94 1.6 54.61 54.61 0 00.63 8.06c4.07.55 12.43 5 15.2 7a40.74 40.74 0 00-4.47 5.85c-1-.76-6.26-4.75-10.16-6a6.73 6.73 0 01-1.68 5c-2.27 2.48-6.56 2.61-7.86 2.61-5.29 0-12.27-2.15-12.27-8 0-6.21 8.41-7.68 13.19-7.68a7.84 7.84 0 011.14.08c-.34-6.09-.34-6.47-.34-15.16a36.21 36.21 0 00-.63-6.77zm-9.37 26.3c-2.22 0-4.7.67-4.7 2.23 0 1.93 3.32 2 3.65 2 4 0 4-1.55 4-3.82a8.69 8.69 0 00-2.97-.41zm62.82-24.07c.25.21.42.38.42.63a.45.45 0 01-.51.46 2.28 2.28 0 01-.71-.17c-.84.8-7.69 6.14-9.12 7.36-1.93 1.63-4.28 3.65-5.84 5-1.34 1.22-1.47 1.38-1.47 1.72s.17.55 1.81 1.47c.13.08 4 2.65 7.77 5.54a44.16 44.16 0 018.7 8.24 26.29 26.29 0 00-4.83 5.67c-1.85-2.73-8.78-10-21.17-18.06a3 3 0 01-1.43-2.48c0-1.09.16-1.6 4.41-5a111.4 111.4 0 0016-15zm20.83 2.82a24.33 24.33 0 005.79.54c.25 0 1.3 0 2.48-.08.59-2.65 1.34-5 1.93-6.89L319 3.07c.33.08.75.21.75.58s-.5.55-1 .59c-.5 1.14-.79 1.81-1.21 2.9a45 45 0 0010.2-2.81l.93 5.84a71.34 71.34 0 01-12.9 2.73c0 .33-.34 1.72-.38 2a21.06 21.06 0 014.33-.42c7.44 0 15 3.74 15 11.68 0 8.32-7.56 11.89-14.54 13.48a17.69 17.69 0 00-3.61-5c4.75-1 11-3.27 11-8.44a5.13 5.13 0 00-3.57-5.08 45.65 45.65 0 01-7.61 10.58c.3.84.42 1.22.68 1.85-.59.38-.8.51-2.61 1.56-.17.08-2.39 1.51-2.86 1.8-.29-.67-.33-.8-.5-1.22a14 14 0 01-7.31 2.27c-5.59 0-5.59-5.33-5.59-6.38 0-2.4.72-9.87 10.88-14.62.13-1.93.26-2.69.34-3.45-1.34 0-2.14.09-2.77.09a24.7 24.7 0 01-4.71-.38zm6.8 16.34c-2.48 1.93-4.16 4.74-4.16 7 0 1 .38 1.26.93 1.26a7.67 7.67 0 003.86-1.72c-.04-.41-.5-3.27-.63-6.54zm6 .79a42.55 42.55 0 002.6-4.28 14.66 14.66 0 00-2.81.55 30.35 30.35 0 00.22 3.73zm58.18-18.52c-2.86 1.89-9.37 8.4-10.29 9.37a22.61 22.61 0 015-.63c5.71 0 11.59 3.61 11.59 11 0 9.25-8.78 13.28-16.05 13.28-5.41 0-10.67-2.14-10.67-7.23 0-4.15 3.87-6.72 8.24-6.72 3.95 0 8.06 2.23 9 6.18 2.77-1.39 2.77-4.62 2.77-5 0-1-.33-6.13-6.84-6.13-7.1 0-11.14 4.16-17 10.25l-5-4.92c4.83-3.36 14.2-12.6 17-16.34-1.35.3-2.78.63-11.18 1.47l-1-6.59c1.64 0 13.78.16 21-2.65zm-12.65 24.36c-1.42 0-1.76.8-1.76 1.52 0 1.59 2.35 2.22 3.78 2.22a7.17 7.17 0 002.1-.33 4.13 4.13 0 00-4.12-3.41zm52.88-28.23c2.52.17 6.43-.84 8.95-1.59l3 4a1 1 0 01.21.46c0 .29-.25.38-.5.38a5.08 5.08 0 01-.92-.17 61.12 61.12 0 01-9.25 1v1.26h12.69v4.12h-5.38v4.15h-5.75v-4.15h-2.27a20 20 0 01-2.9 4.87h11.47V33.4h-2a27.69 27.69 0 006.51 1.84 27.81 27.81 0 00-3.35 4.84 46.2 46.2 0 01-12.3-5.21l1.59-1.47h-9.66l1.85 1.47c.29.21.38.33.38.5 0 .5-.63.42-1.43.34A58.59 58.59 0 01393.46 40a14.3 14.3 0 00-3.32-4.58 44.08 44.08 0 006.72-2.05h-2V17.73a9.39 9.39 0 01-1.09 1.17 12.23 12.23 0 00-5.13-2.56c3.66-3 3.87-7.69 3.87-14.49l4.54.67a26.29 26.29 0 007.87-1.68l2.4 4a.92.92 0 01.17.46.42.42 0 01-.42.38 4 4 0 01-1-.38A57.07 57.07 0 01398 6.47v1h10.67v3.74c.42-.8 1.22-2.31 1.22-7.56V1.93zM410 16.51a10.49 10.49 0 00-4-2.23 9.41 9.41 0 002.44-2.64h-3.19v4.15h-5.38v-4.15h-2.35a16.79 16.79 0 01-1.85 4.87zm-8.86 4.75h15.59v-1.35H401.1zm15.59 2.68H401.1v1.39h15.59zm0 4.08H401.1v1.39h15.59zm36.91-26.13v15.67h-11v21.93h-6.05V1.89zm-5.46 6V6h-5.5v1.9zm-5.5 3.69v1.94h5.5v-1.93zM452 36.34h-5.75V20.12h17.05v12.65a18.51 18.51 0 003.07.5c.46 0 .84-.21.84-1.13V17.56h-11V1.89h17.05v33c0 4.45-4.41 4.53-6 4.53a8.86 8.86 0 01-1.93-.16c-.25-1.85-.59-3.11-2.39-6.22H452zm5.59-7.78v-3.94H452v3.94zm9.58-20.66V6h-5.5v1.9zm-5.5 3.69v1.94h5.5v-1.94z" fill="#ff5064" data-name="レイヤー 2"/></svg>