<svg xmlns="http://www.w3.org/2000/svg" width="189.281" height="16.156"><path fill-rule="evenodd" d="M.014.69v15.177h3.041V5.541l6.332 10.326h3.365V.69H9.713v10.325L3.379.69H.014zM20.17.237h-3.078v3.039h3.077V.237zm-.126 4.323h-2.826v11.307h2.825V4.56zm5.1 11.307V9.411c0-1.51.738-2.435 1.943-2.435 1.188 0 1.62.661 1.62 2.435v6.456h2.825V9.505a7.4 7.4 0 0 0-.486-3.4 3.387 3.387 0 0 0-3.149-1.85 3.438 3.438 0 0 0-2.879 1.4V4.56h-2.7v11.307h2.825zm10.8-11.307h-1.222v2.718h1.224v5.1a4.325 4.325 0 0 0 .468 2.623c.486.812 1.368 1.171 2.861 1.171a15.687 15.687 0 0 0 2.2-.17v-2.681a10.029 10.029 0 0 1-1.511.133c-.918 0-1.188-.284-1.188-1.284V7.281h2.861V4.563H38.77V1.278h-2.825v3.285zm17.349 8.117a6.468 6.468 0 0 1-3.329.906c-1.889 0-2.753-.737-2.951-2.454h7.144a10.9 10.9 0 0 0-.45-3.511 4.622 4.622 0 0 0-4.5-3.36c-2.951 0-5.02 2.491-5.02 6.04 0 3.662 2.105 5.871 5.6 5.871a8.471 8.471 0 0 0 3.509-.718v-2.774zm-6.226-3.681c.216-1.435.954-2.19 2.141-2.19 1.206 0 1.961.774 2.141 2.19h-4.28zm13.52 6.871V9.411c0-1.51.738-2.435 1.943-2.435 1.188 0 1.62.661 1.62 2.435v6.456h2.825V9.505a7.394 7.394 0 0 0-.486-3.4 3.387 3.387 0 0 0-3.149-1.85 3.437 3.437 0 0 0-2.879 1.4V4.56h-2.7v11.307h2.826zm17.637 0h2.735V-.008h-2.825v5.455a4.089 4.089 0 0 0-2.9-1.189c-2.789 0-4.751 2.454-4.751 5.965 0 3.492 1.962 5.946 4.733 5.946a3.788 3.788 0 0 0 3-1.4v1.095zm-2.5-8.891c1.512 0 2.448 1.227 2.448 3.19 0 2.076-.918 3.285-2.466 3.285-1.457 0-2.393-1.246-2.393-3.228-.004-2.001.932-3.247 2.407-3.247zm13.283-2.718c-3.023 0-5.327 2.529-5.327 5.889 0 3.511 2.232 6.022 5.345 6.022 3.041 0 5.308-2.53 5.308-5.946-.004-3.436-2.271-5.965-5.33-5.965zm0 2.718c1.529 0 2.5 1.265 2.5 3.247 0 1.963-.972 3.228-2.5 3.228-1.512 0-2.5-1.265-2.5-3.209-.005-2.001.948-3.266 2.496-3.266zm24.83-5.512a6.863 6.863 0 0 0-3.635-1.076 4.6 4.6 0 0 0-4.841 4.681c0 2.19 1.008 3.342 3.779 4.361 1.836.661 2.393 1.151 2.393 2.114 0 1.019-.935 1.7-2.339 1.7a5.983 5.983 0 0 1-3.527-1.34l-.881 2.869a8.018 8.018 0 0 0 4.516 1.4c3.095 0 5.273-2 5.273-4.87a4.244 4.244 0 0 0-1.026-2.87c-.648-.736-1.224-1.057-3.311-1.812-1.476-.528-1.836-.868-1.836-1.717a1.694 1.694 0 0 1 1.89-1.586 5.27 5.27 0 0 1 2.861 1.019zm13.145 3.1h-3.275l-1.637 8.1-1.908-8.1h-2.825l2.951 11.307h3.383l1.674-8.212L127 15.871h3.4l2.951-11.307h-2.843l-1.907 8.1zM138.23.241h-3.077V3.28h3.077V.241zm-.126 4.323h-2.825v11.307h2.825V4.56zm2.791 0h-1.223v2.718h1.215v5.1a4.324 4.324 0 0 0 .468 2.623c.486.812 1.368 1.171 2.861 1.171a15.671 15.671 0 0 0 2.2-.17v-2.681a10.012 10.012 0 0 1-1.511.133c-.918 0-1.188-.284-1.188-1.284V7.285h2.861V4.567h-2.861V1.282h-2.83v3.285zm17.252 7.871a5.56 5.56 0 0 1-3.149 1.02c-1.907 0-3.059-1.209-3.059-3.247a2.939 2.939 0 0 1 3-3.228 3.87 3.87 0 0 1 2.5.906l.7-2.624a6.027 6.027 0 0 0-3.418-1c-3.329 0-5.6 2.435-5.6 6.021 0 3.643 2.178 5.89 5.723 5.89a6.752 6.752 0 0 0 3.292-.774v-2.968zm7.352 3.436v-6.46c0-1.529.738-2.435 1.961-2.435 1.17 0 1.6.661 1.6 2.435v6.456h2.827V9.505a7.394 7.394 0 0 0-.486-3.4 3.379 3.379 0 0 0-3.131-1.85 3.6 3.6 0 0 0-2.771 1.151V-.011h-2.825v15.875h2.825zm13.168-13.14h2V.692h-6.1v2.039h2v5.512h2.1V2.731zm2.951-2.039l-.918 7.551h2.016l.432-3.908 1.1 3.908h1.476l1.1-3.908.432 3.908h2.016l-.918-7.551h-2.237l-1.134 4.059-1.134-4.059h-2.231z"/></svg>