<svg xmlns="http://www.w3.org/2000/svg" viewBox="0 0 632.99 54.56"><defs><style>.cls-1{fill:#ffa000;}</style></defs><g id="レイヤー_2" data-name="レイヤー 2"><g id="object"><rect class="cls-1" x="2.99" y="49.56" width="630" height="5"/><path class="cls-1" d="M12.42,17.71h4.86v4.5H13.5a15.92,15.92,0,0,0,3.63,3.63,8.07,8.07,0,0,0-2.91,3.64,11,11,0,0,1-1.8-2v6.63h-5V27.72a23.61,23.61,0,0,1-3.1,4.1A13.64,13.64,0,0,0,0,29.3a28.16,28.16,0,0,0,5.62-7.09H1.55v-4.5H7.42V16H1.08V11.84H4.9A21.07,21.07,0,0,0,4,8.93l1.84-.69H2.2V4.18H7.81V.94L13,1.3c.47,0,.72.1.72.43s-.18.36-.72.72V4.18h4.29V8.24H14.83l1.22.29c.36.07.51.18.51.43s-.22.36-.76.58a22.38,22.38,0,0,1-1,2.3h3.35V16H13.5a1.52,1.52,0,0,1-1.08.54Zm-4-9.47a18.9,18.9,0,0,1,.9,3.17l-1.66.43h2.63a17.39,17.39,0,0,0,1.37-3.6Zm10.33-5,2.52.28c3,0,8.06-1.47,10-2.23l2.84,3.75a.89.89,0,0,1,.18.5.55.55,0,0,1-.58.58,2.38,2.38,0,0,1-1-.4A33.65,33.65,0,0,1,23.9,7.38v4.1h9.79v4.79H30.88V34.09H25.81V16.27H23.9c0,10-3.24,15.62-5.11,17.93a17.46,17.46,0,0,0-5-2c4.5-4.79,5-9.83,5-16.38Z"/><path class="cls-1" d="M52.28,8.89h2.77v4.39H52.28v6.23l4.18.14c.25,0,.61.08.61.44s-.07.32-.83.82v1.23h9.32v4.35H56.24v2.16H69.77v4.54H37.45V28.65H51.09V26.49h-9.5V22.14h9.5V20.41H47.31V13.28h-2a17.16,17.16,0,0,1-3.82,8.39,18.34,18.34,0,0,0-4.82-2.38c2.52-2.62,3.24-4.06,3.67-6H37.52V8.89h3.21V6.44H38.46V2.16H54.22V6.44H52.28Zm-5-2.45h-1.8V8.89h1.8Zm16.6-5.29,5.25.33c.25,0,.47.07.47.32s-.11.36-.65.76V17.85c0,2.49-.43,3.78-6.55,3.75a14.3,14.3,0,0,0-1.55-5.11H56.67V3.56l5.08.29c.32,0,.65,0,.65.36s-.44.61-.83.76V16.23c.11,0,1.08.08,1.33.08,1,0,1-.44,1-1.7Z"/><path class="cls-1" d="M74.83,29.19V23.61H96V11.41H74.83V5.83h27.32V30.7H96V29.19Z"/><path class="cls-1" d="M115.53,29.23v1.83h-6V5.4h27.65V31.06h-6V29.23Zm15.62-5.33V10.76H115.53V23.9Z"/><path class="cls-1" d="M156.34,1.58l6.08.22c.33,0,.76,0,.76.43s-.58.61-.76.69v6.4h11.3v5.37H162.39c-.36,6.08-2.6,14-12.64,19.07a20.81,20.81,0,0,0-4.57-4.35c10.51-4.57,10.87-10.8,11.12-14.72H142.44V9.32h13.9Z"/><path class="cls-1" d="M202.35,6.91A6.46,6.46,0,0,0,205,6.55l3.56,2.63c-.21.86-1.19,4.71-1.4,5.51-1.84,6.3-3.92,11-8.53,15.37a19.92,19.92,0,0,1-6.41,4.28,18.69,18.69,0,0,0-4.57-4.21,21.85,21.85,0,0,0,9.79-7.34A29.24,29.24,0,0,0,201.81,12H184.6v7.71h-5.9V6.91H190V1.44l6.16.25c.29,0,.79,0,.79.36s-.54.61-.79.69V6.91Z"/><path class="cls-1" d="M232,33.3h-6.19V16.92a65.54,65.54,0,0,1-10,5.11,17.53,17.53,0,0,0-4.32-5.15C225.26,13,233.87,3.2,236.06.4l4.79,3.78a.82.82,0,0,1,.43.68.51.51,0,0,1-.57.47,2.19,2.19,0,0,1-.72-.11,70.63,70.63,0,0,1-8,7.38Z"/><path class="cls-1" d="M255.72,3.71c.39,0,.82,0,.82.5s-.46.61-.61.69v8.78c0,9.47-4.6,13.46-8.92,17.17a18.37,18.37,0,0,0-4.86-3.93A19.24,19.24,0,0,0,248,21.38c.43-.68,1.76-2.77,1.76-7.38V3.42Zm9.18-.29c.39,0,.68,0,.68.4s-.36.5-.68.64V22a38.54,38.54,0,0,0,9.32-9.43A16.82,16.82,0,0,0,277,18a61.73,61.73,0,0,1-10.11,10c-1.44,1.05-2.85,2.16-4.25,3.24l-3.82-2.45c.07-1,.15-1.87.15-2.88V3.1Z"/><path class="cls-1" d="M279.42,8.93V3.53h18.39a9.7,9.7,0,0,0,2.48-.29L303.1,6.3a11.07,11.07,0,0,0-1.37,2.3,61.36,61.36,0,0,1-4.57,8.82c1.51,1.15,8.1,6.62,10.8,9.86-1.19,1.37-3.13,3.53-4.32,4.9A49,49,0,0,0,294,21.92c-3.46,4.14-9.11,8.78-13.82,10.76A16.26,16.26,0,0,0,276,27.75a30.14,30.14,0,0,0,11.7-7.2c4.11-4,5.58-7.48,7.2-11.62Z"/><path class="cls-1" d="M327.85,21.81a23.32,23.32,0,0,1,3.71,4.68c-.54.33-2.95,1.8-3.67,2.34a21.83,21.83,0,0,0-2.56-4.21c-.07.36-.43.43-.76.51V28c0,1.41.58,1.62,2.09,1.62h3.06c.87,0,2.16,0,3-3.95A8.31,8.31,0,0,0,337,28.29c-.82,2.77-1.08,3.75-2.34,4.65-.43.32-1,.61-2.77.61h-8.24c-3.53,0-4-1.51-4-3.71V26.38c-.25.26-.9.18-1.22.15a32.2,32.2,0,0,1-4,7.34,14.32,14.32,0,0,0-4.07-2.77c.79-.9,2.34-2.74,3.92-7.34a14.27,14.27,0,0,0-4.17-2c2.8-5,2.8-8.31,2.8-12.6V4.21h15.27c-.15-1.73-.15-2.59-.18-3.49l5.18.4c.29,0,.61.07.61.39s-.39.61-1,.87c0,.57,0,1,.11,1.83h2.88a14.05,14.05,0,0,0-1.69-1.87L337.53,0a25.68,25.68,0,0,1,3.31,3.71c-.43.25-.57.36-.79.5h3.71V8.6H336.6l5,2a.53.53,0,0,1,.33.47c0,.47-.43.54-1.08.61a44.91,44.91,0,0,1-3.39,5.83,2.91,2.91,0,0,0,1.52.9c.82,0,1.15-1.65,1.29-2.77a8.86,8.86,0,0,0,3.89,2.77c-.25,2.27-1.3,4.43-2.2,5.08A3.08,3.08,0,0,1,340,24a29.46,29.46,0,0,1,4.36,6.3,13.43,13.43,0,0,0-2.2,1.16c-1.76,1.18-2,1.29-2.34,1.54a25.31,25.31,0,0,0-4.35-7L339,23.87A8.87,8.87,0,0,1,334.65,21a28.89,28.89,0,0,1-3.38,3.21,11.93,11.93,0,0,0-4-3.21l.08,0h-5.3V22.1h-4.17V13.68h10.4v6.66a30.34,30.34,0,0,0,3.46-3.28,26.93,26.93,0,0,1-2.92-8.46H317.66c.08,2.74-.1,9.47-2.88,14.76l4.43,2.05a1.45,1.45,0,0,1,.47.29v-2l4.89.46c.15,0,.29,0,.44,0a1.94,1.94,0,0,0-.22-.25Zm.72-12.31v3.21H318.2V9.5Zm-6.52,7.09V18h2.52V16.59Zm11.49-8a27.1,27.1,0,0,0,1.19,4.32,19.77,19.77,0,0,0,1.72-4.32Z"/><path class="cls-1" d="M361.53,27.93a37.08,37.08,0,0,1-10.33,5.94,13.94,13.94,0,0,0-3.71-4,30.75,30.75,0,0,0,10.3-5.3H348V20.16h2.63c-.07-.07-.14-.22-.18-.25L347.82,16a74.41,74.41,0,0,0,9.5-6.27,15,15,0,0,0,1.84,3.71c-2,1.66-4.25,3.49-7.6,5.83a1.74,1.74,0,0,1,0,.87h10V18.79a17.76,17.76,0,0,1-2.08,1,13.29,13.29,0,0,0-3.39-3.42c3.67-1.62,6.77-3.35,7.49-7.45L358.37,9l-.08-4.82,5.62-.08a29.22,29.22,0,0,0,0-2.95l5.11.33c.72,0,.94.07.94.36s-.61.61-.94.72c0,.21-.07,1.18-.07,1.47L375.39,4l-.29,9.57c0,.62.22.65.58.65.86,0,1.19-.18,1.47-3.31a10.53,10.53,0,0,0,4.5,1.8c-.54,6.19-2.48,6.19-4.6,6.19h-3.53c-2.56,0-3.46-1.22-3.38-3.6l.21-6.41h-1.8a13,13,0,0,1-4.82,8.5l3.42.18c.29,0,.93,0,.93.47s-.25.47-.93.86v1.3h13.5v4.42h-9.22a36.78,36.78,0,0,0,9.72,5,17.53,17.53,0,0,0-3.2,4.32,37.18,37.18,0,0,1-10.8-6.73v6.73h-5.62ZM350.19,5.62a31.36,31.36,0,0,1,5.37,2.62A36.57,36.57,0,0,0,353.07,12a22.36,22.36,0,0,0-5.25-2.59ZM352.93.29A28.3,28.3,0,0,1,358.19,3c-1.41,2-1.59,2.24-2.52,3.78A21.62,21.62,0,0,0,350.52,4Z"/><path class="cls-1" d="M417.41,4.14v4.5h-23.5v5.79a42.08,42.08,0,0,1-.9,10.62,22.45,22.45,0,0,1-3.93,8.89,14.1,14.1,0,0,0-4.5-2.37,21,21,0,0,0,4.22-10.8l-2.34,1.4c-.08.22-.25.62-.65.62s-.51-.44-.58-.62l-1.33-4.39a51.43,51.43,0,0,0,5.18-2.12V13a14.09,14.09,0,0,0-2.44,1.41,18.73,18.73,0,0,0-2.74-5.15L387.72,7c.54.82.86,1.33,1.36,2.19v-5h10.8V.86l5.73.18c.32,0,.54.15.54.33s-.33.57-.76.83V4.14Zm0,24.4v4.65H392.29V28.54h3V16.85l4.57.21c.18,0,.83,0,.83.43s-.18.36-.43.51V28.54h2.3V15.19H394.7V10.58h21.67v4.61h-8.6v3.56h7.41v4.83h-7.41v5Z"/><path class="cls-1" d="M446.85,10.11V1l5.51.29c.58,0,.83.18.83.43,0,.4-.47.54-.9.69v7.66h3.31V14.9h-3.31V28.72c0,4.68-2.12,5.19-8.21,5.19a10.5,10.5,0,0,0-2.48-5.83,30.31,30.31,0,0,0,4,.43c1,0,1.29-.36,1.29-2.05V14.9h-7.12V10.55h-2a41.16,41.16,0,0,1-3.34,10.83,72.93,72.93,0,0,1,4.39,7.74,37.7,37.7,0,0,0-5.08,2.74,51.41,51.41,0,0,0-2.16-5.4c-3.31,4.78-5.47,6.51-6.76,7.52a9.09,9.09,0,0,0-4.47-3.2,26.84,26.84,0,0,0,8.06-9,42.35,42.35,0,0,0-6.26-7.09l4-2.78a35.78,35.78,0,0,1,4.71,5,30.8,30.8,0,0,0,1.87-6.37h-11V6h6.58V.86l5.8.29c.18,0,.65,0,.65.43s-.44.58-.65.65V6h6.08v4.13Zm-5.25,6.2a28.27,28.27,0,0,1,3.82,6.76c-.51.26-3.24,1.77-4.86,2.63a33.67,33.67,0,0,0-3.35-6.87Z"/><path class="cls-1" d="M478.72,7.52a21.83,21.83,0,0,1-1.33,1.8,20.42,20.42,0,0,0-4.5-1.55c.07-.07.14-.17.21-.25h-2.44a19.53,19.53,0,0,1,.9,2.23,22.94,22.94,0,0,0-5,.76,24.43,24.43,0,0,0-1.08-3h-1.18c-1,1.33-1.55,2-2.06,2.52a19.46,19.46,0,0,0-4.46-1.69A25.43,25.43,0,0,0,462.84.61l4.87.94a.48.48,0,0,1,.46.43c0,.4-.39.61-.9.68-.1.18-.21.4-.32.62h7.52V5.62A28.86,28.86,0,0,0,476.7.54l5.11.94a.55.55,0,0,1,.51.54c0,.32-.36.54-.94.5l-.32.76h10V7.52h-5.43a21.8,21.8,0,0,1,1,2.2,29.93,29.93,0,0,0-5.36.68,19.37,19.37,0,0,0-1.23-2.88Zm-.9,26.53h-4.93V26a44.34,44.34,0,0,1-10.84,7.67,15.06,15.06,0,0,0-4-3.78A27,27,0,0,0,465.8,26h-4.72V16.41h11.81V15.05H458.71V10.76h14.18v-2l5.18.79a.55.55,0,0,1,.54.51c0,.36-.36.46-.79.64v.11h13.86v4.29H477.82v1.36h11.91v6.81c0,2.59-2.62,3.09-4.06,3.31a31.37,31.37,0,0,0,6.66,3.17,9.66,9.66,0,0,0-4,3.92,33.76,33.76,0,0,1-10.47-7.78Zm-11.66-8.28a33.37,33.37,0,0,0,5.58-5.22h-5.58Zm13.06-5.22A24.83,24.83,0,0,0,483.51,25,11.18,11.18,0,0,0,482,22c.25,0,1.51.18,1.8.18.5,0,.72-.18.72-.68v-1Z"/><path class="cls-1" d="M504,3.74c.68.26,1,.36,1,.62s-.72.39-1,.43a41.74,41.74,0,0,0-2.34,14.86,12.47,12.47,0,0,0,.25,2.88c.22-.39,1.08-2,1.51-2.7a10.86,10.86,0,0,0,2.77,3c-.9,1.69-2.55,5.86-2.37,8.6l-5.11,1.37a37.84,37.84,0,0,1-2.56-14.4c0-6.52,1-11,2.3-16.7Zm9.5,16.92a9.63,9.63,0,0,0-.54,2.56c0,1.58.86,1.83,5,1.83a36.48,36.48,0,0,0,8.89-1,24.34,24.34,0,0,0-.54,5.87,76.28,76.28,0,0,1-9.1.47c-5.37,0-9.51-.94-9.51-5.33a13.3,13.3,0,0,1,1.19-5.29ZM509.17,5.29c1.07.07,2.51.18,4.67.18a42.1,42.1,0,0,0,10.59-1.15,53.26,53.26,0,0,0,.5,5.47,53.35,53.35,0,0,1-11.09,1.08c-2.12,0-3.52-.11-4.67-.18Z"/><path class="cls-1" d="M529.45,8.1A29.44,29.44,0,0,0,534,7.24C544.13,4.57,546.58,4,550.54,4,559.18,4,563,9.68,563,16c0,13.57-16.38,14.58-22.18,14.86A23.68,23.68,0,0,0,539,25.13c6.48,0,17.92-.19,17.92-9,0-1.87-.64-6.88-7-6.88-5.37,0-14.26,3.64-18.15,5.84Z"/><path class="cls-1" d="M574.57,4.54c.33.1.72.21.72.54s-.43.54-.75.57a32.15,32.15,0,0,0-2,10.84c0,4.39,1.37,7.45,2.41,7.45s2.52-3.17,3.5-5.44a16.37,16.37,0,0,0,3.78,3.82c-2.88,7-6.16,9.43-7.92,9.43-2,0-7.35-4.29-7.35-15.41a64.32,64.32,0,0,1,1.77-13.46ZM592,4.79a35.83,35.83,0,0,1,7.27,18.1c-2.12.83-4.68,2.05-5.87,2.67a32.8,32.8,0,0,0-6-17.82Z"/><path class="cls-1" d="M632.89,7.38C622.6,7.27,616.48,16.31,616.48,21c0,6,8.14,6.4,10,6.51a32,32,0,0,0-2.7,6.48c-6.3-1.48-13.24-4.82-13.24-12.56,0-6.63,5-10.77,6.37-11.92a122.9,122.9,0,0,0-14.87,2.13l-.75-6.77c.79,0,1.54.11,2.7.11,5.29,0,19.65-1,27.82-3.57Z"/></g></g></svg>