<svg xmlns="http://www.w3.org/2000/svg" width="167.565" height="8.338"><path d="M7.418 5.93c0 .699-.239 1.258-.718 1.676s-1.147.626-2.007.626H0V.111h3.926c.508 0 .95.049 1.327.146s.681.231.911.401.402.371.516.602.17.482.17.756c0 .297-.059.571-.176.823s-.263.459-.437.621-.348.276-.524.343c.555.218.977.495 1.268.829s.437.766.437 1.298zM4.559 2.449c0-.391-.129-.65-.387-.779s-.66-.193-1.207-.193h-.516v1.945h.527c.559 0 .962-.064 1.21-.193s.373-.389.373-.78zm.398 3.381c0-.695-.504-1.043-1.512-1.043h-.996v2.08h.996c1.008 0 1.512-.346 1.512-1.037zm14.749 2.402h-2.508l-.662-1.646h-3.527l-.674 1.646H9.827L13.419.111h2.707l3.58 8.121zm-3.732-3.058l-1.189-2.965-1.201 2.965h2.39zm15.428 3.058h-2.18L25.01 3.709v4.523h-2.426V.111h2.174l4.201 4.5v-4.5h2.443v8.121zm12.658 0h-2.18l-4.213-4.523v4.523h-2.426V.111h2.174l4.201 4.5v-4.5h2.443v8.121zm9.962 0h-6.123V.111h6.023V1.74h-3.574v1.488h3.41v1.635h-3.41v1.734h3.674v1.635zm11.304 0h-2.631l-.639-1.441c-.234-.527-.445-.913-.633-1.157s-.37-.4-.548-.469-.407-.103-.688-.103h-.275v3.17h-2.449V.111h4.166c.672 0 1.223.137 1.652.41s.739.605.929.996.284.762.284 1.113c0 .41-.079.757-.237 1.04s-.325.489-.501.618a4.927 4.927 0 01-.592.369c.262.152.478.333.647.542s.401.632.694 1.269l.821 1.764zm-3.328-5.554c0-.375-.123-.637-.369-.785s-.647-.223-1.201-.223h-.516v1.957h.527c.598 0 1.007-.065 1.228-.196s.331-.382.331-.753zm19.953 1.64c0 .832-.151 1.5-.454 2.004s-.659.912-1.069 1.225c-.582.457-1.396.686-2.443.686h-4.383V.111h3.375c.508 0 .942.026 1.304.079s.687.127.976.223c.289.096.535.203.738.322s.385.247.545.384c.277.227.521.494.729.803s.375.666.498 1.072.184.848.184 1.324zm-2.49-.105c0-.66-.126-1.175-.378-1.544s-.555-.616-.908-.741-.714-.188-1.081-.188h-1.043v4.811h1.043c.641 0 1.195-.152 1.664-.457s.703-.932.703-1.881zm14.491-.047c0 .758-.175 1.455-.524 2.092s-.87 1.143-1.562 1.518-1.533.563-2.525.563c-1.004 0-1.854-.195-2.549-.586s-1.212-.904-1.55-1.541-.507-1.318-.507-2.045c0-.73.168-1.413.504-2.048s.853-1.146 1.55-1.535S88.337 0 89.341 0c.75 0 1.419.111 2.007.334s1.071.524 1.45.905.666.824.861 1.33.293 1.038.293 1.597zm-2.496 0c0-.305-.045-.583-.135-.835s-.226-.471-.407-.656-.403-.33-.665-.434-.564-.155-.908-.155c-.656 0-1.172.191-1.547.574s-.563.885-.563 1.506.188 1.124.565 1.509.892.577 1.544.577c.449 0 .832-.089 1.148-.267.316-.178.557-.424.721-.738s.247-.675.247-1.081zM110.431.111l-3.516 8.227h-1.418l-2.109-4.787-2.162 4.787h-1.43L96.351.111h2.537l1.688 4.5 1.934-4.5h1.752l1.898 4.5 1.764-4.5h2.507zm11.743 8.121h-2.18l-4.213-4.523v4.523h-2.426V.111h2.174l4.201 4.5v-4.5h2.443v8.121zm10.009 0h-6.17V.111h2.449v6.176h3.721v1.945zm11.913-4.066c0 .758-.175 1.455-.524 2.092s-.87 1.143-1.562 1.518-1.533.563-2.525.563c-1.004 0-1.854-.195-2.549-.586s-1.212-.904-1.55-1.541-.507-1.318-.507-2.045c0-.73.168-1.413.504-2.048s.853-1.146 1.55-1.535S138.48 0 139.484 0c.75 0 1.419.111 2.007.334s1.071.524 1.45.905.666.824.861 1.33.294 1.038.294 1.597zm-2.496 0c0-.305-.045-.583-.135-.835s-.226-.471-.407-.656-.403-.33-.665-.434-.564-.155-.908-.155c-.656 0-1.172.191-1.547.574s-.563.885-.563 1.506.188 1.124.565 1.509.892.577 1.544.577c.449 0 .832-.089 1.148-.267.316-.178.557-.424.721-.738s.247-.675.247-1.081zm14.737 4.066h-2.508l-.662-1.646h-3.527l-.674 1.646h-2.508L150.05.111h2.707l3.58 8.121zm-3.733-3.058l-1.189-2.965-1.201 2.965h2.39zm14.961-.856c0 .832-.151 1.5-.454 2.004s-.659.912-1.069 1.225c-.582.457-1.396.686-2.443.686h-4.383V.111h3.375c.508 0 .942.026 1.304.079.361.053.687.127.976.223.289.096.535.203.738.322s.385.247.545.384c.277.227.521.494.729.803s.375.666.498 1.072.184.848.184 1.324zm-2.49-.105c0-.66-.126-1.175-.378-1.544s-.555-.616-.908-.741-.714-.188-1.081-.188h-1.043v4.811h1.043c.641 0 1.195-.152 1.664-.457s.703-.932.703-1.881z" fill="#fff"/></svg>