<svg id="レイヤー_1" data-name="レイヤー 1" xmlns="http://www.w3.org/2000/svg" width="430.51" height="199.59" viewBox="0 0 430.51 199.59">
  <defs>
    <style>
      .cls-1 {
        fill: #fff;
      }

      .cls-2 {
        fill: #04c3f8;
      }
    </style>
  </defs>
  <title>p_top_jp_logo</title>
  <g>
    <g>
      <g>
        <path class="cls-1" d="M27.6,10.27v38.6H16.4V10.27H0V.12H44V10.27Z"/>
        <path class="cls-1" d="M128.07.12h14L121.52,23.69l21.4,25.18H128.69L108.77,24.13V48.87H97.7V.12h11.07V23.26Z"/>
        <path class="cls-1" d="M155.7.12l11,19.67,11-19.67h12.93l-18.37,29.7v19H161.08v-19L142.71.12Z"/>
        <path class="cls-1" d="M48.13,0V49H93.81V0ZM83.36,38.3H58.57V10.71H83.36Z"/>
        <path class="cls-1" d="M191.67,0V49h45.69V0Zm35.24,38.3H202.12V10.71h24.79Z"/>
      </g>
      <g>
        <path class="cls-1" d="M98.74,124H86.24l-3.65-10.15H63.23L59.58,124H47.08L65.64,75.22H80.11ZM72.88,86,66.2,104.23H79.56Z"/>
        <path class="cls-1" d="M116.47,75.22l10.7,35.2,10.7-35.2H154V124H143.5V100.52c0-1.55.31-11.94.37-13.73L132.37,124H122L110.46,86.79c.07,1.54.38,12.18.38,13.73V124H100.32V75.22Z"/>
        <path class="cls-1" d="M196.91,75.22V85.36H168.83v9h27v9.72h-27v9.71h28.76V124H157.7V75.22Z"/>
        <path class="cls-1" d="M284.56,75.22V93.77h23.75V75.22h11.13V124H308.31v-20H284.56v20H273.48V75.22Z"/>
        <path class="cls-1" d="M382.44,75.22l5.45,37.67,5.44-37.67h14.73l5.44,37.67,5.44-37.67h11.57L421.11,124h-15L400.7,86.79,395.24,124h-14.9l-9.46-48.75Z"/>
        <path class="cls-1" d="M323.69,75.09v49h45.68v-49Zm35.24,38.31h-24.8V85.8h24.8Z"/>
        <polygon class="cls-1" points="45.7 92.17 45.7 75.09 0.01 75.09 0.01 124.11 45.7 124.11 45.7 107.08 45.7 96.49 35.25 96.49 22.78 96.49 22.78 107.08 35.25 107.08 35.25 113.4 10.46 113.4 10.46 85.81 35.25 85.81 35.25 92.17 45.7 92.17"/>
        <polygon class="cls-1" points="269.12 84.84 269.12 74.75 229.25 74.75 229.25 79.37 229.25 84.84 229.25 94.26 229.25 101.24 229.25 104.36 259.03 104.36 259.03 113.78 229.25 113.78 229.25 123.87 259.03 123.87 269.12 123.87 269.12 113.78 269.12 104.36 269.12 102 269.12 94.26 239.34 94.26 239.34 84.84 269.12 84.84"/>
      </g>
    </g>
    <g>
      <path class="cls-1" d="M16.28,182.82c-3.22.37-5.2.92-5.2,4.58V189H43.84V199.1H0v-9.72c0-4.71,0-14.86,12.07-16.29l15.85-1.85c3.6-.44,5.27-1.06,5.27-5.2,0-4.34-1.36-6.07-10.53-6.07-10.34,0-10.71,1.3-10.83,7.37H.93c0-10.41.56-17.53,20.86-17.53,12.88,0,22.42.87,22.42,15.61,0,6.31-1.61,9.53-3.78,11.45a15.82,15.82,0,0,1-9.1,4.09Z"/>
      <path class="cls-1" d="M71.08,149.81c19.82,0,22.54,4.59,22.54,25.33,0,19.93-3.72,24.45-21.18,24.45-18.69,0-23.15-2.22-23.15-24.89C49.29,154.64,52.82,149.81,71.08,149.81ZM60.43,174.89c0,14.49.75,14.61,11.7,14.61,9.29,0,10.34-.74,10.34-13.43,0-2.67-.12-10.84-.92-12.94C80.49,160.22,77,160,71.45,160,61.18,160,60.43,160.28,60.43,174.89Z"/>
      <path class="cls-1" d="M118.82,150.31V199.1H107.61V160.46h-10V150.31Z"/>
      <path class="cls-1" d="M127.3,163.75c0-11.21,6.94-13.94,20.74-13.94s22.36,1.55,22.36,13.87c0,4.4-1.18,8.18-5.89,10.16a7.19,7.19,0,0,1,3.72,2.1c2.91,3.22,3,8.49,3,9.6,0,12.88-10.4,14.05-21.42,14.05s-23.28-.24-23.28-13.93c0-1.23.12-6.62,3-9.72a7.3,7.3,0,0,1,3.65-2.1C128.91,172,127.3,168.64,127.3,163.75Zm10.16,20.49c0,4.71,2.16,5.51,11.39,5.51,9.78,0,11.45-.93,11.45-5.88,0-5.2-3.09-5.51-11.45-5.51C139.69,178.36,137.46,178.92,137.46,184.24Zm.8-19.57c0,4.28,1.86,4.9,11.33,4.9,8.86,0,9.85-1.18,9.85-5.21,0-3.59-1.12-4.82-10.59-4.82C138.94,159.54,138.26,160.9,138.26,164.67Z"/>
    </g>
  </g>
  <rect class="cls-1" x="197.1" y="159.14" width="104.5" height="27.1"/>
  <g>
    <path class="cls-2" d="M221.31,171.47v1.09H204.42v-1.09Z"/>
    <path class="cls-2" d="M227.41,177.14h-.91v-4.53c-.22,0-.31,0-1.4.15,0,1.79,0,5.31-1.48,7.78l-.83-.76c.35-.64,1.35-2.49,1.35-6.91l-1.3.13-.09-.94c.48,0,.76-.06,1.39-.09v-6.23h1.92c.18-.46.52-1.66.59-2l1,.15c-.09.28-.54,1.61-.65,1.81h2.9v5.56c.21,0,.67-.13.78-.15v.91l-.78.11v7.41c0,.94-.51,1.07-1.25,1.07h-1.78l-.2-1.12,1.68,0c.46,0,.57-.13.57-.48V172.3l-1.49.2Zm-2.31-5.27c2.05-.2,2.62-.25,3.8-.42v-4.84h-3.8Zm2.05-1.27a12.44,12.44,0,0,0-1.33-2.79l.83-.39a10.9,10.9,0,0,1,1.39,2.77Zm12.25,10a11.17,11.17,0,0,1-4.45-2.49A15.1,15.1,0,0,1,231,180.6l-.65-.89a13.32,13.32,0,0,0,3.87-2.29,11.09,11.09,0,0,1-2.37-4.36l.79-.34a10.34,10.34,0,0,0,2.28,4,12.22,12.22,0,0,0,2.49-4.32H231v-.91h7.58v.84a14,14,0,0,1-2.94,5.08,10.9,10.9,0,0,0,4.19,2.16Zm-2.11-16.24v4.31c0,.39.15.39.45.39h.61c.5,0,.59,0,.77-2.06l.93.26c-.17,2.2-.41,2.72-1.59,2.72h-1.07c-.54,0-1.06-.18-1.06-1.28V165.3H233.1c0,3.49-1.18,4.78-1.72,5.35l-.72-.73c1.39-1.48,1.44-2.89,1.44-5.55Z"/>
    <path class="cls-2" d="M241.08,170.77c1.17-.76,3.66-2.52,5.77-7.14l.91.45a17.7,17.7,0,0,1-5.92,7.57Zm8.41-1.06a70.86,70.86,0,0,1-3.82,9.11,77,77,0,0,0,9.09-1.09,41.85,41.85,0,0,0-3.33-4.27l.87-.61a36.1,36.1,0,0,1,5.23,7.28l-1,.63a24.79,24.79,0,0,0-1.22-2.23,100.44,100.44,0,0,1-13.35,1.53l-.18-1c.57,0,1.16-.05,2.73-.15a75.09,75.09,0,0,0,3.9-9.59Zm3.33-6c2.47,4.82,4.64,6.39,5.74,7.15l-.81.91a20.13,20.13,0,0,1-5.89-7.63Z"/>
    <path class="cls-2" d="M267.18,164.56v5.65h-5.84v10.48h-1V164.56Zm-1,.88h-4.82v1.48h4.82Zm0,2.29h-4.82v1.61h4.82Zm7.84,7.21v.89h-3.09v4.58h-1v-4.58h-3.32a5.46,5.46,0,0,1-3,4.58l-.68-.81a4.51,4.51,0,0,0,2.64-3.77h-3.16v-.89h3.23c0-.37,0-.4,0-.61v-1.75H263v-.89h10.35v.89h-2.48v2.36Zm-4.11,0v-2.36h-3.21v1.81a5.43,5.43,0,0,1,0,.55Zm6.23-10.38v14.58c0,.87-.29,1.55-1.37,1.55H272.3l-.28-1.15,2.36.06c.37,0,.72,0,.72-.52v-8.87h-5.87v-5.65Zm-1,.88h-4.87v1.48h4.87Zm0,2.29h-4.87v1.61h4.87Z"/>
    <path class="cls-2" d="M293.62,164.72v15.64H279.93V164.72ZM281,171.93h11.57v-6.25H281Zm0,1v6.54h11.57v-6.54Z"/>
  </g>
</svg>
