<svg width="1440" height="65" viewBox="0 0 1440 65" fill="none" xmlns="http://www.w3.org/2000/svg" preserveAspectRatio="none">
<g clip-path="url(#clip0_40002217_26787)">
<path d="M20 95.2373C78.0493 54.9061 241.073 -9.16523 428.774 57.1992C616.475 123.564 798.444 84.851 865.965 57.1992C962.147 14.0353 1196.12 -46.394 1362.54 57.1992C1385.26 71.3383 1403.76 82.8541 1418.65 92.119V92.0001C1462.38 119.256 1512.84 150.735 1418.65 92.119V283H20V95.2373Z" fill="#FFC768"/>
<path d="M265.569 52.1515C174.645 70.8835 50.6382 49.2607 0 36.1078V1281H1440V25.7001C1364.98 45.5017 1148.77 83.6316 945.621 36.1078C608.408 -42.7769 379.224 28.7364 265.569 52.1515Z" fill="#FFE259"/>
</g>
<defs>
<clipPath id="clip0_40002217_26787">
<rect width="1440" height="65" fill="white"/>
</clipPath>
</defs>
</svg>
