<svg xmlns="http://www.w3.org/2000/svg" xmlns:xlink="http://www.w3.org/1999/xlink" width="60" height="32" viewBox="0 0 60 32">
  <defs>
    <style>
      .cls-1 {
        fill: url(#linear-gradient);
      }
    </style>
    <linearGradient id="linear-gradient" x1="-0.021" y1="0.095" x2="1.021" y2="0.905" gradientUnits="objectBoundingBox">
      <stop offset="0" stop-color="#ffcc70"/>
      <stop offset="0.33" stop-color="#e03192"/>
      <stop offset="0.66" stop-color="#2caaf2"/>
      <stop offset="1" stop-color="#0442b8"/>
    </linearGradient>
  </defs>
  <path id="パス_151" data-name="パス 151" class="cls-1" d="M58,2V8.062a8,8,0,0,0,0,15.876V30H2V2H58m2-2H0V32H60V21.91a6,6,0,1,1,0-11.82V0ZM47,2H45V6h2Zm0,6H45v4h2Zm0,6H45v4h2Zm0,6H45v4h2Zm0,6H45v4h2ZM28,8H8v2H28Zm-8,4H8v2H20Zm0,4H8v2H20Z"/>
</svg>
