<svg xmlns="http://www.w3.org/2000/svg" width="588.19" height="59.07"><path d="M1.2.19h8.62V3H4v19.87H1.2zm21.99.91c.31 0 .5.1.5.32s-.26.33-.41.38c-.07.72-.12 1.56-.17 2.54a16.44 16.44 0 003.77-1.2c0 .89-.05 2-.05 2.55A9.74 9.74 0 0026.88 7 17 17 0 0123 8.06c0 .27-.05 1.42-.05 1.64A12 12 0 0127 9a6.37 6.37 0 016.65 6.5 5.57 5.57 0 01-5.69 6c-3.63 0-3.75-3.22-3.77-4.23.5-.16 2.66-.88 3-1 0 .48 0 1.6 1.12 1.6.92 0 1.52-.91 1.52-2.11a3 3 0 00-3.2-3.17 11.51 11.51 0 00-3.72.84 69.16 69.16 0 00.32 7.23l-3.33 1.45a33.77 33.77 0 00-4.2-3.44c-.6.65-.89 1-1.23 1.4l-1.73-4.13c1.11-.6 5.48-3.91 6.44-4.52V8.54c-1.41.08-3.09.1-4.46.1V4.82a9.3 9.3 0 001.86.18c.94 0 2.28-.1 2.57-.1 0-1.8 0-2.06-.09-4.46zm-5.38 15.49a2.58 2.58 0 001.08.62c.36 0 .33-.84.31-1.75-.29.24-.79.6-1.39 1.13zM30.34 3.82a20.4 20.4 0 015.23 3.84 17 17 0 00-2.33 2.9 14 14 0 00-5.09-3.77zm20.11-2.21c.26.09.41.17.41.38s-.41.41-.7.43c-.26.41-.55.89-1.41 2.52 1.27.12 2.49.17 3 .17s.84 0 1.17-.05a17.31 17.31 0 00-1.05 3.8 29.36 29.36 0 01-4.54-.22c-.29.65-.62 1.51-.86 2.11a35.36 35.36 0 005.32.36c-.45 1.3-.84 2.81-1 3.56-1.46-.1-3.12-.24-5.38-.58a8 8 0 00-.29 1.91c0 3 2.71 3 3.88 3s4.66 0 4.66-3.48a9.15 9.15 0 00-1.23-3.74 11.66 11.66 0 003.63-1.3 12.73 12.73 0 011.65 5.45c0 5.28-5.57 6.5-8.71 6.5-4.82 0-7.49-2.49-7.49-6a12.1 12.1 0 01.36-2.91 20.11 20.11 0 01-3.12-.88L39.58 9a22.16 22.16 0 003.24 1c.09-.31.26-.84.72-2.14A20.92 20.92 0 0140 6.72L40.68 3a29.47 29.47 0 004.25 1.32c.24-.65 1.39-3.58 1.63-4.18zm22.25-.34c.19.05.45.15.45.39S73 2 72.63 2c-.53 1.63-.58 1.8-.7 2.16a36.87 36.87 0 007.82-1.89c.12.79.44 2.61.68 3.57a41.75 41.75 0 01-9.82 2c-.58 1.59-.77 2.07-1.25 3.24a14.23 14.23 0 016.24-1.6c6.41 0 6.75 4.51 6.75 5.71A5.94 5.94 0 0179.78 20c-1.27.87-3.67 2.31-10.32 2.31-1 0-1.71-.08-2.24-.12a16.58 16.58 0 00-.88-3.58 35.47 35.47 0 003.57.22c.56 0 4.66 0 7.13-1.47a2.45 2.45 0 001.3-2.25c0-1.4-.72-2.57-2.93-2.57a12.32 12.32 0 00-8.31 4l-3.45-1.73a33.65 33.65 0 003.19-6.75C64.75 8.14 63.1 8 62.18 8V4.06a21.73 21.73 0 005.8.53 31.51 31.51 0 00.88-4.28zm23.16 3.17c.29.34 1.49 1.82 1.73 2.11a10.75 10.75 0 012.64-.41 4.56 4.56 0 014.77 4.69c0 4.48-4.87 4.89-7.32 5.08a16.13 16.13 0 00-1.1-3.21h1.1c.82 0 3.89 0 3.89-2.11 0-.41-.12-1.35-1.54-1.35h-.52c.43.7.67 1.15.88 1.51-.88.36-2.28.94-3.14 1.32a13.73 13.73 0 00-.89-1.85c-.89.41-1.41.7-1.75.89A47 47 0 0198 20.43a31.87 31.87 0 00-3.41 1.65 40.61 40.61 0 00-2.81-9.21c-.69.5-.89.67-2.71 2.23l-2.16-3.39A30.85 30.85 0 0090.29 10a18.83 18.83 0 00-2.16-3.15l3.26-1.34a1.39 1.39 0 01.51-.14.26.26 0 01.29.26A.69.69 0 0192 6c.36.65.93 1.73 1.3 2.38l1.36-.67c-.38-.53-.5-.7-1.51-2zm16.84 1.2a24.65 24.65 0 015.62 3.29 23.35 23.35 0 00-2.32 3.19 20.18 20.18 0 00-5.45-3.26zm-.76 12.91a35 35 0 0016.89-12.72 12.34 12.34 0 002.48 3.24c-3 4.51-10.13 10.42-16.54 12.8 0 .14 0 .55-.41.55-.17 0-.31-.24-.36-.31zM115.13.31a36.81 36.81 0 016 2.83c-.5.58-1.94 2.62-2.28 3.12a25.6 25.6 0 00-5.83-3zm21.53 20.36v-3.08h10.73v-2.44h-10.11V12h10.11V9.7H137V6.55h13.78v14.84h-3.36v-.72zm41.88-11.09v4.08h-20.86V9.58zm8.78-7.2c.46.16.65.24.65.4s-.48.27-.65.29a27.9 27.9 0 00-1.56 9.93 8.4 8.4 0 00.17 1.92c.14-.27.72-1.33 1-1.8a6.75 6.75 0 001.85 2 13.59 13.59 0 00-1.59 5.74l-3.41.91a25.41 25.41 0 01-1.7-9.6A45.82 45.82 0 01183.62 1zm6.34 11.28a6.27 6.27 0 00-.36 1.7c0 1.06.57 1.23 3.33 1.23a24.57 24.57 0 005.93-.65 16 16 0 00-.36 3.91 50.88 50.88 0 01-6.07.31c-3.58 0-6.34-.62-6.34-3.55a8.83 8.83 0 01.8-3.53zm-2.91-10.25c.72 0 1.68.12 3.12.12a27.64 27.64 0 007.06-.77 34.19 34.19 0 00.34 3.65 36 36 0 01-7.4.72c-1.41 0-2.35-.07-3.12-.12zm27.08 19.13h-3.46v-6.41a23.83 23.83 0 01-7 6.12 8.36 8.36 0 00-3.08-2.38 20.49 20.49 0 007.71-6.14h-6.91v-3.12h4.48a18.58 18.58 0 00-1.92-3.55l1.73-1h-3.16V3h8.18V.53l3.6.21c.29 0 .53.05.53.36s-.48.41-.67.46V3H226v3.1h-3.12l1.47.62c.16.07.24.17.24.29 0 .31-.29.36-.48.41a21.67 21.67 0 01-1.52 3.19h4.54v3.12H220a18.7 18.7 0 007.47 5.81 11.34 11.34 0 00-2.55 2.59 18.86 18.86 0 01-7-6.14zm-3.46-11.93V6.1h-3.1a13.58 13.58 0 012 3.69 11.92 11.92 0 00-1.83.82zm3.46-4.51v4.51h2.78a15.24 15.24 0 00-1.61-.86 19.23 19.23 0 001.83-3.65zm21.64.72a7.94 7.94 0 014.92-2.45c.7 0 3.05.5 3.05 3.74a32.46 32.46 0 01-.6 4.92 20.79 20.79 0 00-.19 2.74c0 .31 0 1.13.62 1.13.29 0 1.3-.17 3-2.07a16 16 0 001.29 3.72c-2.16 2.09-4 2.55-5.08 2.55-1.35 0-3.63-.87-3.63-4.35 0-1.2.65-6.81.65-7.51a.71.71 0 00-.74-.79c-1.47 0-3.53 2.45-5.07 4.25a76 76 0 00.46 9.45l-4.2.2a33.41 33.41 0 00.21-4.13v-1c-.33.48-1.7 2.64-2 3l-2.93-3a52.13 52.13 0 005.05-6.15v-.91a19.06 19.06 0 01-3.82.86l-.79-4a16.7 16.7 0 004.71-.72c0-1.64.07-4.83 0-5.67l3.5.29c.27 0 .68.07.68.41s-.32.31-.49.36c-.19 1.89-.23 2.85-.26 3.55zM259 2.93c.39.12.56.19.56.43s-.12.29-.58.36a25.78 25.78 0 00-1.63 8.78 6.57 6.57 0 00.21 1.9c.24-.26.94-1.05 1.13-1.32a11 11 0 001.42 2.19A16 16 0 00258 21l-3 .86a35.43 35.43 0 01-1.13-9.26 37.43 37.43 0 01.48-5.93c.1-.48.89-4.71.94-5zm13.9 6.26a26.82 26.82 0 01-3.48.72 35.63 35.63 0 00.29 4.42 17.8 17.8 0 014.82 2.35c-.69 1.42-1.34 3.12-1.49 3.55a13.51 13.51 0 00-3-2.06c0 1.2-.48 3.72-4.15 3.72-2.52 0-5.45-1.37-5.45-4 0-.48 0-4 5.45-4-.07-1-.17-2.85-.19-3.6-.6 0-1.47.05-2.21.05a16.81 16.81 0 01-2.09-.1V6.7a18.57 18.57 0 004.25.24V1.66l4 .67c.28 0 .5.09.5.31s-.29.31-.46.36c-.16 1.56-.21 3.14-.21 3.58a15 15 0 003.43-.82zm-7.75 7.56c-1.08 0-1.59.48-1.59 1s.7.93 1.49.93a1.12 1.12 0 001.25-1.2 1.91 1.91 0 00-.05-.5 3.47 3.47 0 00-1.07-.23zm7-15.07a10 10 0 011.56 2.54A11.67 11.67 0 00272 5.5a14.13 14.13 0 00-1.58-2.69zm2.17-1.51a7.75 7.75 0 011.73 2.37A10.84 10.84 0 00274.32 4a8.85 8.85 0 00-1.56-2.64zm24.89 1.37v3.24h-1.63v14.16c0 3.17-1.59 3.5-5.09 3.67A6.52 6.52 0 00291 19a10.33 10.33 0 002.11.26c1 0 1.13-.19 1.13-1.2V4.78h-10.05V2.21a42.9 42.9 0 01-1.92 3.89h.5c.19 0 .46.08.46.27s-.2.29-.46.43v15.71h-3.43v-12c-.39.49-.65.75-.89 1-1.3-1.72-1.75-2-2.35-2.37a22.24 22.24 0 005.06-8.8l3.24 1a1.11 1.11 0 01.31.15zm-6.6 5.59v9.36h-5v1.92h-3.21V7.13zm-5 3.17v3.12h1.87V10.3zm25.04-8.48c.26.08.48.15.48.36s-.5.39-.65.39c-.36 1.63-.5 2.25-.67 2.88 2.06 0 5.5.07 5.5 5.88a16.09 16.09 0 01-2.4 8.88 4.14 4.14 0 01-3.56 1.68 13.51 13.51 0 01-2.54-.26 8.48 8.48 0 00.07-.89 17.84 17.84 0 00-.36-3.22 4 4 0 002.09.53 1.83 1.83 0 001.42-.46c.81-.72 1.58-3.4 1.58-6.38 0-2.47-1.73-2.33-2.76-2.26a36.19 36.19 0 01-6.1 12.68 16.54 16.54 0 00-3.53-1.9 28.7 28.7 0 005.72-10.06 24.94 24.94 0 00-3.82 1.23L301.8 7c1-.19 5.26-1.08 6.14-1.22a36.8 36.8 0 00.75-5.26zm6.48 1.25c2.64 2.95 4.32 7 4.32 8.86a2.45 2.45 0 01-1.7 2.54 9.12 9.12 0 01-2.4.75A19.92 19.92 0 00318 12c.65-.14 1.54-.33 1.54-1.1a9.47 9.47 0 00-1.25-3.29 17.27 17.27 0 00-2-2.67zm13.66 8.62H336v3h-2.52a10.45 10.45 0 002.42 2.42 5.44 5.44 0 00-1.9 2.43 7.4 7.4 0 01-1.19-1.35v4.42h-3.34v-4.25a15.52 15.52 0 01-2.07 2.74 8.86 8.86 0 00-2.88-1.68 18.77 18.77 0 003.75-4.73h-2.71v-3h3.91v-1.15h-4.23V7.78h2.55a13.8 13.8 0 00-.58-1.95l1.23-.45H326V2.66h3.74V.5l3.46.24c.31 0 .48.08.48.29s-.12.24-.48.48v1.15h2.8v2.72h-1.64l.82.19c.24 0 .34.12.34.29s-.15.24-.51.38a13.08 13.08 0 01-.67 1.54h2.23v2.76h-3.09a1.1 1.1 0 01-.72.36zm-2.64-6.31a11.66 11.66 0 01.59 2.11l-1.1.29h1.75a12.2 12.2 0 00.92-2.4zM337 2.06l1.68.2a24.41 24.41 0 006.71-1.49l1.89 2.49a.65.65 0 01.12.34.35.35 0 01-.4.4 1.55 1.55 0 01-.65-.26 22.73 22.73 0 01-5.93 1.08v2.72H347v3.19h-1.9v11.88h-3.39V10.73h-1.27c0 6.67-2.16 10.42-3.41 12a11.76 11.76 0 00-3.31-1.34c3-3.19 3.31-6.55 3.31-10.92zm20.58-.57c.36.05.55.07.55.33s-.17.29-.46.41a53.21 53.21 0 00-.77 9.53c0 5.45.53 6.46 2.38 6.46 4.11 0 7.73-5.55 8.38-6.89a24.48 24.48 0 002.78 3.14c-2.73 4.44-6.81 7.78-11.66 7.78-5.33 0-5.76-4.51-5.76-10.51 0-1.4.24-7.47.24-8.69 0-.7 0-1.51-.05-2.21zm21.16 1.41c.22.08.49.15.49.36s-.29.36-.51.39a21.55 21.55 0 00-1.34 7.22c0 2.93.91 5 1.6 5s1.69-2.11 2.33-3.62a10.93 10.93 0 002.52 2.54c-1.92 4.66-4.1 6.29-5.28 6.29-1.34 0-4.89-2.86-4.89-10.27a43.45 43.45 0 011.17-9zm11.6.17a24 24 0 014.85 12.08c-1.42.55-3.12 1.36-3.92 1.77a21.76 21.76 0 00-4-11.88zm20.11-1.46c.26.09.41.17.41.38s-.41.41-.7.43c-.26.41-.55.89-1.41 2.52 1.27.12 2.49.17 3 .17s.84 0 1.17-.05a17.31 17.31 0 00-1.05 3.8 29.36 29.36 0 01-4.54-.22c-.29.65-.62 1.51-.86 2.11a35.36 35.36 0 005.32.36c-.45 1.3-.84 2.81-1 3.56-1.46-.1-3.12-.24-5.37-.58a7.38 7.38 0 00-.27 1.94C405.12 19 407.83 19 409 19s4.66 0 4.66-3.48a9.15 9.15 0 00-1.23-3.74 11.66 11.66 0 003.63-1.3 12.73 12.73 0 011.65 5.45c0 5.28-5.57 6.5-8.71 6.5-4.82 0-7.49-2.49-7.49-6a12.1 12.1 0 01.36-2.91 20.11 20.11 0 01-3.12-.88l.83-3.64a22.16 22.16 0 003.24 1c.09-.31.26-.84.72-2.14A20.92 20.92 0 01400 6.72l.68-3.72a29.47 29.47 0 004.25 1.32c.24-.65 1.39-3.58 1.63-4.18zm21.96 16.8c5.21-1 6.74-5 6.74-7.49A5.69 5.69 0 00433.61 5c-.74 8.79-4.37 15.34-6.91 15.34-1.88 0-5.36-3.17-5.36-7.61a11.79 11.79 0 0111.77-11.15c5.25 0 9.84 3.58 9.84 9.32a11.17 11.17 0 01-2.84 7.41 13.08 13.08 0 01-5.2 3.48 15.69 15.69 0 00-2.5-3.38zm-7.51-5.93c0 1.85 1 3.24 1.53 3.24s1-1.08 1.3-1.7a21.17 21.17 0 001.85-8.26c-2.79 1.03-4.68 4.56-4.68 6.72zm31.25-10.92c.43.1.57.14.57.41s-.31.31-.62.33c-.12.48-.67 2.5-.79 3 4.24-.17 5.68 2.47 5.68 7.13 0 .38 0 5.52-2 8a4.44 4.44 0 01-3.86 1.58 6 6 0 01-2-.29 11.27 11.27 0 00-.51-3.91 9.31 9.31 0 002.52.48c2 0 2.24-4.32 2.24-6.72 0-1-.08-2.71-2.26-2.71a5.81 5.81 0 00-.72.05 49.63 49.63 0 01-5.47 13 11.85 11.85 0 00-3.49-1.91 43 43 0 005.07-10.22 19 19 0 00-3.41 1.29l-1.13-4c1-.1 2-.34 5.54-1.13a25.37 25.37 0 00.72-5.35zm6.16 2.9a29.1 29.1 0 013.89 4.64 5.28 5.28 0 011.15 3c0 1.8-2.08 2.57-3.52 3.12A24.42 24.42 0 00462 12c.91-.29 1.23-.39 1.23-.92 0-1.15-2.36-4.17-3.39-5.28zm1.35-3a16.35 16.35 0 012 2.37c-.56.39-.68.48-1.76 1.28-.24-.32-1.44-1.9-2-2.45zm2.4-1.46a12.83 12.83 0 012 2.45c-.52.38-1.39 1-1.94 1.37a10.57 10.57 0 00-1.92-2.64zm18.21 18.17c0 .48.17.86 1 .86H487c.65 0 .79-.26.89-.57s.41-1.59.55-2.26a7.33 7.33 0 003.15 1.59 11.4 11.4 0 01-1.08 3.5 2.51 2.51 0 01-2.16 1.06h-4.42c-1.87 0-3.31-.63-3.31-3v-4.64H478l1.18.32c.14 0 .4.12.4.4 0 .46-.5.48-.93.51a12.05 12.05 0 01-7.39 6.91 9.91 9.91 0 00-2.85-2.85c1.51-.33 5.9-1.32 6.86-5.28h-3.53V1h16.47v13.71h-3.94zm.24-13.3V4h-8.85v.84zm-8.85 2.43v.86h8.85V7.3zm0 3.38v1h8.85v-1zM502.18 6c.17 0 .36.09.36.31s-.29.31-.56.33a16.53 16.53 0 00-1.58 4.16 13.26 13.26 0 017-2.24 5.81 5.81 0 016.14 5.91c0 4.58-4.32 7.73-12.26 7.73-.7 0-1.3 0-1.75-.05a13.75 13.75 0 00-1.13-4 13.6 13.6 0 003.55.36c5.45 0 7.61-2 7.61-4.06 0-.69-.34-2.45-2.81-2.45-3.43 0-5.93 2.21-7.66 3.94l-3.43-1.25a58 58 0 012.52-9.94zM500.86.36A24 24 0 01508.92 3a31.53 31.53 0 00-2.16 3.51 21.27 21.27 0 00-7.15-2.95zm26.61 6.46a7.94 7.94 0 014.92-2.45c.7 0 3.05.5 3.05 3.74a32.46 32.46 0 01-.6 4.92 20.79 20.79 0 00-.19 2.74c0 .31 0 1.13.62 1.13.29 0 1.3-.17 3-2.07a16 16 0 001.29 3.72c-2.16 2.09-4 2.55-5.08 2.55-1.35 0-3.63-.87-3.63-4.35 0-1.2.65-6.81.65-7.51a.71.71 0 00-.74-.79c-1.47 0-3.53 2.45-5.07 4.25a76 76 0 00.46 9.45l-4.2.2a33.41 33.41 0 00.21-4.13v-1c-.33.48-1.7 2.64-2 3l-2.93-3a52.13 52.13 0 005-6.15v-.91a19.06 19.06 0 01-3.82.86l-.79-4a16.58 16.58 0 004.7-.72c0-1.64.08-4.83 0-5.67l3.5.29c.27 0 .68.07.68.41s-.32.31-.49.36c-.19 1.89-.24 2.85-.26 3.55zm30.72-3.44a58.51 58.51 0 00-5.88 5.36 12.85 12.85 0 012.88-.36c3.27 0 6.63 2.06 6.63 6.31 0 5.28-5 7.58-9.17 7.58-3.1 0-6.1-1.22-6.1-4.12 0-2.38 2.21-3.84 4.71-3.84 2.25 0 4.61 1.27 5.16 3.52A3.17 3.17 0 00558 15c0-.57-.19-3.5-3.91-3.5-4.06 0-6.36 2.37-9.7 5.85l-2.88-2.81a63.46 63.46 0 009.72-9.33 48.85 48.85 0 01-6.38.84l-.58-3.77c.94 0 7.88.1 12-1.51zM551 17.31c-.82 0-1 .45-1 .86 0 .91 1.35 1.27 2.16 1.27a4.07 4.07 0 001.2-.19 2.35 2.35 0 00-2.36-1.94zM573.31 1.8v5.59l-.86 7.06h-2.3l-.89-7.06V1.8zm-4 14.86h4v4.05h-4zM588.19 23h-8.61v-2.84h5.78V.31h2.83zM15.72 40.92l1.25.19c.55.1.77.12.77.39s-.31.31-.58.33c-.09.24-.26.58-.55 1.15h4.66v12.25c0 2.37-.56 3.38-4.44 3.38v-.62a4.24 4.24 0 00-.83-2.57v1.44H9v.57H5.88v-5.59a1.78 1.78 0 01-.24.12A4.57 4.57 0 004 50.38v8.25H.48V43h5a9.58 9.58 0 00-.94-1.75l1.7-.31H0V38h9.07v-1.7l3.63.16c.24 0 .45.08.45.32s-.24.33-.45.43V38h9.14v2.88zM4 46.06v3.38a5.28 5.28 0 002.5-3.38zm14 2.61A2.25 2.25 0 0115.72 50h-3.07c-1.42 0-1.87-.5-1.87-1.63v-2.31H8.33l1.27.4c.17 0 .5.17.5.39s0 .26-.64.41a8.67 8.67 0 01-2.19 3.53H16v4.46c.48 0 .88.12 1.15.12.74 0 .79-.24.79-.79zm-9.6-7.75a12.29 12.29 0 011.05 1.85l-.93.23h4.2a13.89 13.89 0 001-2.06zm4.49 12.34H9v1.13h3.8zm1-7.2v.77c0 .31 0 .52.48.52H15c.46 0 .53-.4.72-1.29zm4.13 0h-2.27a6.77 6.77 0 002.18 1.15zm18.13-7.9q.36 0 .36.24c0 .12-.22.29-.58.43a22.16 22.16 0 01-.82 4 8.24 8.24 0 00-3.11-.61v.62h-8v-2.38h8v1.68a22.33 22.33 0 00.86-4.41zm-4.3 20.07H29v-.84h-1.4v1.17h-3V50h7.23v2.44a11.69 11.69 0 001.46-4.2l3.08.65c.16 0 .43.15.43.34 0 .36-.48.45-.7.48a19.84 19.84 0 01-1.25 4 7.79 7.79 0 00-3-.94v3c5.14-1.59 5.09-4.76 5-9.15l3.48.19c.12 0 .36 0 .36.29s-.17.26-.65.41v1.78a7.13 7.13 0 002.09 3.86 13.43 13.43 0 003.7 2.59 7 7 0 00-2.14 2.69A11.67 11.67 0 0138.88 54a9.82 9.82 0 01-5.23 4.54 7.09 7.09 0 00-1.8-2.33zm-.65-20.91v2.33h-6.05v-2.33zm0 6.34V46h-6.05v-2.34zm0 3.14v2.33h-6.05V46.8zM29 54.65v-2.09h-1.4v2.09zm11.13-18c.29 0 .48 0 .48.26s-.38.39-.67.46c0 .36-.09 2-.09 2.33a5.46 5.46 0 001.79 3.3A14.52 14.52 0 0046 45.46a8.36 8.36 0 00-2.16 2.59 13.58 13.58 0 01-5.28-3.89 10.67 10.67 0 01-5 3.84 9.24 9.24 0 00-1.9-2.57c4.13-1.34 5.09-3.38 5.09-7.2v-1.75zm5.19 2.26a.39.39 0 01.24.33c0 .12-.07.29-.34.29a1.75 1.75 0 01-.43 0 15.81 15.81 0 01-2.18 2.93 10.21 10.21 0 00-2.55-1.9 13 13 0 002.31-3.19zm-.29 10.25c.24.12.36.21.36.4s-.38.41-.72.44a14.61 14.61 0 01-1.58 2.61 9.22 9.22 0 00-2.55-1.7 15.88 15.88 0 001.68-3.07zm18.04 5.01c0 .48.17.86 1 .86h1.73c.65 0 .79-.26.89-.57s.41-1.59.55-2.26a7.33 7.33 0 003.15 1.59 11.4 11.4 0 01-1.08 3.5 2.51 2.51 0 01-2.16 1.06h-4.46c-1.87 0-3.31-.63-3.31-3v-4.64h-2.57L58 51c.15 0 .41.12.41.4 0 .46-.5.48-.93.51a12 12 0 01-7.4 6.91A9.77 9.77 0 0047.21 56c1.51-.33 5.9-1.32 6.86-5.28h-3.53V37H67v13.71h-3.93zm.24-13.3V40h-8.85v.84zm-8.85 2.43v.86h8.85v-.86zm0 3.38v1h8.85v-1zm17.54-3v-3.17h9.12v-4l3.46.22c.6 0 .67.21.67.33s-.1.27-.5.53v2.95h9.14v3.17h-7.78a22.72 22.72 0 008.4 9.29 8 8 0 00-2.61 2.76 28.74 28.74 0 01-3.65-3.41v2.83H84.7v3.38h-3.63v-3.43H77.5v-2.86a29.47 29.47 0 01-3.68 3.44A7.79 7.79 0 0071.21 53a22.21 22.21 0 008.4-9.27zm9.12 3.65a26.91 26.91 0 01-3.24 4.56h3.24zm6.84 4.56a26.75 26.75 0 01-3.21-4.51v4.51zM108.7 44h7.39v9.86c0 1 0 1.88-.84 2.48s-2 .72-4.1.72a8.15 8.15 0 00-1.11-3.7 9.92 9.92 0 001.49.14c.77 0 .91-.16.91-.86v-5.29h-3.74v11.16h-3.63V47.35h-3.67v9.44h-3.67V44h7.34v-1.8H96v-3.3h9.12v-2.42l3.82.14c.14 0 .36.08.36.29s-.31.41-.55.46v1.53h9.14v3.27H109c.14 0 .29.14.29.29s-.34.38-.55.45zm25.73-6a14.43 14.43 0 000 19.25l-2.14 1.85a17.11 17.11 0 010-23zM148 42.53c-.24-.51-.72-1.61-2.9-1.61-3.72 0-4 3.22-4.11 5.07.84-.77 1.95-1.78 5.07-1.78 4 0 6.72 2.3 6.72 6.1 0 3.52-2.42 6.93-7.66 6.93a8.29 8.29 0 01-4.46-1.17c-3.39-2-3.89-5.93-3.89-8.81 0-9.41 6.7-10 8.35-10 2.16 0 6.65 1 7.44 5.26zm.46 8c0-2-1.73-3-3.55-3s-3.58 1-3.58 3c0 1.56 1.15 3.14 3.58 3.14s3.58-1.61 3.58-3.17zm14.96.18a11.92 11.92 0 01-4.73 7.92 11.12 11.12 0 00-3-2.52c4.39-2.92 4.34-7.49 4.34-9.89v-9.09h15v17.78c0 2.6-.63 3.63-5.4 3.44a11.27 11.27 0 00-1.2-3.94 13.72 13.72 0 002 .26c.81 0 .86-.5.86-1.36v-2.6zm7.87-8.49v-1.71h-7.61v1.71zm0 5v-1.69h-7.61v1.73zm27.34 4.17a5.38 5.38 0 01-2.16 4.39 10.74 10.74 0 01-5.84 1.46 10.59 10.59 0 01-5.83-1.46 5.34 5.34 0 01-2.18-4.39 4.77 4.77 0 013.6-4.71 4.46 4.46 0 01-3-4.22 4.77 4.77 0 012.09-3.89c1.39-1 3.89-1.3 5.4-1.3 6.74 0 7.27 4.06 7.27 5.19a4.45 4.45 0 01-3 4.22 4.78 4.78 0 013.65 4.71zm-11.55-.51c0 2 1.92 2.74 3.55 2.74s3.53-.7 3.53-2.74c0-.77-.41-2.73-3.53-2.73s-3.55 1.94-3.55 2.73zm.62-7.7c0 .31.05 2.28 2.91 2.28s2.93-1.92 2.93-2.26c0-.86-.56-2.33-2.91-2.33s-2.93 1.44-2.93 2.31zm21.6 13.05v1.32h-3.76V38h17.21v19.55H219v-1.32zm9.7-10.92v-4h-9.7v4zm0 7.49v-4.25h-9.7v4.25zm17.26-5.21a2.93 2.93 0 11-2.93-2.92 2.94 2.94 0 012.93 2.92zm18.14 10.97h-3.82v-9.31a22 22 0 01-7 7.18 6 6 0 00-2.52-2.86 20 20 0 008.11-8.78h-7.56v-3.41h9v-4.9l3.7.12c.19 0 .6 0 .6.29s-.07.26-.48.53v4h9v3.41h-7.71a22.68 22.68 0 008.16 8.71 7.62 7.62 0 00-2.52 2.88 29.43 29.43 0 01-7-7.2zm16.08-.45a19.39 19.39 0 00-4.87-4.11l2.33-2.57a31.11 31.11 0 015.25 4zM289.63 52c.22.5.72 1.6 2.88 1.6 3.72 0 4-3.21 4.11-5.06-.84.77-1.95 1.78-5.07 1.78-4 0-6.72-2.31-6.72-6.1 0-3.53 2.43-6.94 7.66-6.94a8.27 8.27 0 014.51 1.17c3.39 2 3.89 5.93 3.89 8.81 0 9.41-6.69 10-8.35 10-2.16 0-6.65-1-7.44-5.25zm-.48-8c0 2 1.73 3 3.58 3s3.55-1 3.55-3a3.21 3.21 0 00-3.55-3.15c-2.43.02-3.58 1.61-3.58 3.15zm22.37 12.23v1.32h-3.77V38H325v19.55h-3.77v-1.32zm9.67-10.92v-4h-9.67v4zm0 7.49v-4.25h-9.67v4.25zm17.28-5.21a2.93 2.93 0 11-2.93-2.92 2.94 2.94 0 012.93 2.92zm18 0h7.35v3h-4.32l3.07 1.22c.22.1.36.15.36.29s-.38.31-.77.34a19.23 19.23 0 01-1.16 2.62h3.67V58h-20.13v-2.94h4a12.22 12.22 0 00-1.87-3.17l2.33-1.27h-3.5v-3h7.5v-1.37h-3.46v-1.68c-1.58 1-2 1.3-4 2.38a12.45 12.45 0 00-2.79-2.74c6.7-2.86 9.72-6.43 10.45-7.78l3.91.43c.14 0 .31 0 .31.24s-.24.36-.48.44a23.81 23.81 0 009.82 6.33 11.24 11.24 0 00-2.65 3.13 20.38 20.38 0 01-4.23-2.42v1.68h-3.41zm-3.5 3h-3.05a15.83 15.83 0 012 3.24 21.47 21.47 0 00-2 1.2H353zm5-7.47a17.61 17.61 0 01-3.17-2.95 23.25 23.25 0 01-3.24 2.95zm-1.47 11.91h2.93a18.63 18.63 0 00-1.87-.94 14.1 14.1 0 001.73-3.5h-2.79zm13.65-18.91a17.11 17.11 0 010 23l-2.15-1.9A14.46 14.46 0 00368 38z" fill="#00b4dc" data-name="レイヤー 2"/></svg>