<svg id="レイヤー_1" data-name="レイヤー 1" xmlns="http://www.w3.org/2000/svg" viewBox="0 0 306.58 24.52"><defs><style>.cls-1{fill:#231815;}.cls-2{fill:#0062b0;}</style></defs><path class="cls-1" d="M66.2,5.86a.68.68,0,0,0-.68-.68H61.27a.69.69,0,0,1-.68-.68V1.18A.69.69,0,0,1,61.27.5H76.19a.69.69,0,0,1,.68.68V4.5a.69.69,0,0,1-.68.68H72a.67.67,0,0,0-.68.68v17a.69.69,0,0,1-.68.68H66.88a.68.68,0,0,1-.68-.68Z"/><path class="cls-1" d="M81,1.18A.68.68,0,0,1,81.63.5h13.2a.68.68,0,0,1,.68.68V4.33a.67.67,0,0,1-.68.68H86.67a.68.68,0,0,0-.68.68V9a.68.68,0,0,0,.68.68H93.1a.69.69,0,0,1,.68.68v3.15a.68.68,0,0,1-.68.68H86.67a.68.68,0,0,0-.68.68v3.49a.68.68,0,0,0,.68.68H95a.68.68,0,0,1,.69.68v3.15a.69.69,0,0,1-.69.68H81.63a.68.68,0,0,1-.68-.68Z"/><path class="cls-1" d="M123.18,1.18a.69.69,0,0,1,.68-.68h3.71a.68.68,0,0,1,.68.68V9a.68.68,0,0,0,.68.67h5.45a.68.68,0,0,0,.68-.67V1.18a.69.69,0,0,1,.68-.68h3.71a.68.68,0,0,1,.68.68v21.7a.68.68,0,0,1-.68.68h-3.71a.69.69,0,0,1-.68-.68V15a.69.69,0,0,0-.68-.68h-5.45a.69.69,0,0,0-.68.68v7.9a.68.68,0,0,1-.68.68h-3.71a.69.69,0,0,1-.68-.68Z"/><path class="cls-1" d="M99.42,12v-.06C99.42,5.37,104,0,110.57,0a10.59,10.59,0,0,1,8.1,3.21.63.63,0,0,1,0,.77l0,.05-2,2.55a.82.82,0,0,1-.4.34.71.71,0,0,1-.61-.06C114,5.5,112.73,4.68,110.7,4.68c-3.6,0-6,3.29-6,7.24V12c0,3.95,2.35,7.18,6,7.18,2.35,0,3.47-.89,5.12-2.43a.55.55,0,0,1,.39-.08.78.78,0,0,1,.34.22l2.27,2.48a.55.55,0,0,1,.15.38.65.65,0,0,1-.17.4,10.23,10.23,0,0,1-8.41,3.71c-6.29,0-11-5.24-11-11.86"/><path class="cls-2" d="M48.62,12,39.31,1.05A1.6,1.6,0,0,0,38,.41h-5.6a.38.38,0,0,0-.22.64l9.3,10.89-9.3,10.9c-.19.22-.08.64.23.64H38a1.61,1.61,0,0,0,1.32-.64Z"/><path class="cls-1" d="M57.42.41h-5.6a1.33,1.33,0,0,0-1.19.52L46.31,6l3.57,4.18,7.77-9.09c.22-.29.09-.64-.23-.64"/><path class="cls-1" d="M57.64,22.84l-7.76-9.08-3.57,4.18,4.34,5a1.47,1.47,0,0,0,1.17.49h5.59a.38.38,0,0,0,.23-.64"/><path class="cls-2" d="M10,6.46V17.34l0,1.06H8.18V17.33H1.87V18.4H0c0-.41,0-.76,0-1.06V6.46c0-.3,0-.65,0-1H10.06c0,.24,0,.59,0,1m-1.85.61H1.88v3.34h6.3ZM1.87,15.68H8.18V12H1.87Z"/><path class="cls-2" d="M17.15,12.15v5.61a3.48,3.48,0,0,0,0,.65H15.61c0-.12,0-.34,0-.65V12.3c-.68.08-1.25.14-1.69.17l-.67.1L13.09,11A8.16,8.16,0,0,0,14,11l.37,0a15.23,15.23,0,0,0,1-1.22q-1-1.12-2.1-2.22L14,6.34l.53.55a14.2,14.2,0,0,0,.85-1.36A6.71,6.71,0,0,0,16,4.4l1.32.86a1,1,0,0,0-.16.23A25.76,25.76,0,0,1,15.54,8c.21.22.4.45.58.67a16.75,16.75,0,0,0,1.7-2.91l1.32.85-.2.23c-.24.42-.54.89-.9,1.43s-.7,1-1,1.49-.63.85-.88,1.15q1.15-.09,1.62-.15a7.54,7.54,0,0,0-.43-1.14l1.19-.34a10.83,10.83,0,0,1,.56,1.41c.19.59.35,1.17.48,1.71l-1.33.42L18.08,12ZM13.21,17a11.69,11.69,0,0,0,.42-1.76,15.33,15.33,0,0,0,.19-2.13l1.34.24,0,.31a14.61,14.61,0,0,1-.63,4c-.5-.26-.92-.48-1.28-.65m5.55-4a14.17,14.17,0,0,1,.35,1.47c.12.62.22,1.25.29,1.87L18,16.69a12.64,12.64,0,0,0-.16-1.64c-.09-.65-.2-1.23-.31-1.75ZM26.4,16.6c.47,0,.81,0,1,0v1.64c-.18,0-.52,0-1,0H19.9c-.49,0-.82,0-1,0V16.57c.2,0,.53,0,1,0h2.62V14.68H20V13.12l.88,0h1.69V12l0-.52.93,0,.83.06a3.61,3.61,0,0,0,0,.44v1.13H26l.88,0v1.57H24.22V16.6Zm-6.91-6.36a10.26,10.26,0,0,0,2.64-.76,7.66,7.66,0,0,1-.69-.88,7.34,7.34,0,0,1-.56-.95,9.19,9.19,0,0,1-.37-.85h-.88V5.3l.79,0h5l.15-.17A13.08,13.08,0,0,1,27,6.34l-.21.11a7.55,7.55,0,0,1-.41,1,7.18,7.18,0,0,1-.7,1.1,9.93,9.93,0,0,1-.9,1,9.35,9.35,0,0,0,2.64.75c-.25.59-.45,1.11-.61,1.57a17.94,17.94,0,0,1-1.84-.54,5.8,5.8,0,0,1-1.45-.73,7,7,0,0,1-1.23.63,16.39,16.39,0,0,1-2.07.67c-.11-.31-.34-.85-.7-1.62M25,6.8H22.14a6.54,6.54,0,0,0,.59,1,4.78,4.78,0,0,0,.77.84,5.64,5.64,0,0,0,.84-.85,5.46,5.46,0,0,0,.62-1"/><path class="cls-1" d="M156.56,1.09a.61.61,0,0,1,.59-.63h12.31a.61.61,0,0,1,.59.63V2a.6.6,0,0,1-.59.62H159v8h9a.63.63,0,0,1,.59.62v1a.6.6,0,0,1-.59.62h-9v8.39h10.5a.6.6,0,0,1,.59.62v1a.61.61,0,0,1-.59.62H157.15a.61.61,0,0,1-.59-.62Z"/><path class="cls-1" d="M179,11.68,172.9,1.38a.59.59,0,0,1,.53-.92h1.68a.65.65,0,0,1,.54.3l4.81,8.71h0L185.36.76a.59.59,0,0,1,.53-.3h1.69a.59.59,0,0,1,.53.92L182,11.68l6.31,10.88a.58.58,0,0,1-.53.92h-1.44a.61.61,0,0,1-.53-.3l-5.34-9.3h0l-5.28,9.3a.61.61,0,0,1-.53.3h-1.44a.59.59,0,0,1-.56-.92Z"/><path class="cls-1" d="M192.42,1.09a.61.61,0,0,1,.6-.63h6.9a7.18,7.18,0,0,1,7,7.27,7.22,7.22,0,0,1-7,7.4H194.8v7.73a.63.63,0,0,1-.6.62H193a.61.61,0,0,1-.6-.62Zm7.34,11.61a4.78,4.78,0,0,0,4.75-5A4.56,4.56,0,0,0,199.76,3h-5V12.7Z"/><path class="cls-1" d="M220.79.13C227,.13,232,5.43,232,12s-5,11.81-11.25,11.81S209.57,18.58,209.57,12,214.54.13,220.79.13m0,21.38A9.33,9.33,0,0,0,229.85,12c0-5.22-4.09-9.56-9.06-9.56s-9,4.34-9,9.56a9.3,9.3,0,0,0,9,9.51"/><path class="cls-1" d="M255.22,24.15H241.94V22.63l2.19-2.31c5.33-5.4,8-8.67,8-12.33,0-2.4-1-4.62-4.29-4.62a7.48,7.48,0,0,0-4.49,1.86l-.84-1.74a8.78,8.78,0,0,1,5.81-2.19c4.53,0,6.33,3.3,6.33,6.39,0,4.23-3,7.83-7.62,12.51l-1.76,1.86v.06h9.92Z"/><path class="cls-1" d="M258.79,13c0-7.86,3.06-11.67,7.26-11.67s6.87,4,6.87,11.37c0,7.8-2.73,11.82-7.2,11.82C261.64,24.52,258.79,20.5,258.79,13Zm11.61-.18c0-5.61-1.35-9.48-4.5-9.48-2.67,0-4.56,3.57-4.56,9.48s1.65,9.66,4.47,9.66C269.14,22.48,270.4,18.16,270.4,12.82Z"/><path class="cls-1" d="M288.88,24.15H275.6V22.63l2.19-2.31c5.33-5.4,8-8.67,8-12.33,0-2.4-1.05-4.62-4.28-4.62A7.51,7.51,0,0,0,277,5.23l-.84-1.74A8.78,8.78,0,0,1,282,1.3c4.53,0,6.33,3.3,6.33,6.39,0,4.23-3,7.83-7.61,12.51L279,22.06v.06h9.92Z"/><path class="cls-1" d="M292.45,13c0-7.86,3.06-11.67,7.26-11.67s6.87,4,6.87,11.37c0,7.8-2.73,11.82-7.2,11.82C295.3,24.52,292.45,20.5,292.45,13Zm11.61-.18c0-5.61-1.35-9.48-4.5-9.48-2.67,0-4.56,3.57-4.56,9.48s1.65,9.66,4.47,9.66C302.8,22.48,304.06,18.16,304.06,12.82Z"/></svg>