<svg id="レイヤー_1" data-name="レイヤー 1" xmlns="http://www.w3.org/2000/svg" viewBox="0 0 192.06 152.71"><defs><style>.cls-1{fill:#fff;}</style></defs><path class="cls-1" d="M1.1,39.14V4.21h9.24c.81,0,1.65,0,2.49.08s1.67.13,2.47.24,1.57.23,2.32.38a15.05,15.05,0,0,1,2.06.53,17.87,17.87,0,0,1,4.94,2.4,14.67,14.67,0,0,1,3.58,3.58A15.46,15.46,0,0,1,30.4,16a19.75,19.75,0,0,1,.74,5.52,21.23,21.23,0,0,1-.63,5.28,15.33,15.33,0,0,1-1.9,4.5,14.25,14.25,0,0,1-3.22,3.59,16.61,16.61,0,0,1-4.61,2.55,24.44,24.44,0,0,1-5,1.25,43.28,43.28,0,0,1-6.34.42Zm9-5.35a20.34,20.34,0,0,0,8.77-1.54,9.47,9.47,0,0,0,4.23-4,14.09,14.09,0,0,0,1.43-6.74,14.43,14.43,0,0,0-.47-3.86,10.56,10.56,0,0,0-1.35-3.07,9.69,9.69,0,0,0-2.16-2.31,11.79,11.79,0,0,0-2.86-1.59,15,15,0,0,0-3.31-.83,28.29,28.29,0,0,0-4.1-.27H7.49V33.79Z"/><path class="cls-1" d="M50.2,35.78h-.1a11.56,11.56,0,0,1-1.12,1,10.34,10.34,0,0,1-1.51,1,8.57,8.57,0,0,1-1.88.74,8.36,8.36,0,0,1-2.23.28,8.84,8.84,0,0,1-3-.5,6.79,6.79,0,0,1-2.42-1.46,6.86,6.86,0,0,1-1.59-2.3,8.35,8.35,0,0,1,.1-6.31,6.89,6.89,0,0,1,1.87-2.46,8,8,0,0,1,2.86-1.54,11.92,11.92,0,0,1,3.69-.53,17.73,17.73,0,0,1,2.73.19,18.56,18.56,0,0,1,2.18.44V23.4a4.42,4.42,0,0,0-.27-1.54,3.46,3.46,0,0,0-.87-1.32,4.23,4.23,0,0,0-1.56-.91,7,7,0,0,0-2.35-.34,15.49,15.49,0,0,0-3.38.37,26.82,26.82,0,0,0-3.67,1.13V16.44a18.62,18.62,0,0,1,3.64-1.15,21.11,21.11,0,0,1,4-.42,14,14,0,0,1,4.36.61,9.25,9.25,0,0,1,3.13,1.68,6.9,6.9,0,0,1,1.88,2.52,8.12,8.12,0,0,1,.62,3.18v8.57c0,1.51,0,2.8,0,3.88s.06,2,.09,2.89h-5Zm-.45-7.29c-.53-.12-1.14-.23-1.83-.34A14.59,14.59,0,0,0,45.83,28a5.63,5.63,0,0,0-3.23.81,2.81,2.81,0,0,0-1.19,2.48,3.13,3.13,0,0,0,.27,1.35,2.57,2.57,0,0,0,.73,1,3.14,3.14,0,0,0,1.07.57,4.52,4.52,0,0,0,1.29.18,5.57,5.57,0,0,0,1.6-.22,7.8,7.8,0,0,0,1.38-.56,6,6,0,0,0,1.14-.77,6.85,6.85,0,0,0,.86-.82Z"/><path class="cls-1" d="M77.16,38.17a14,14,0,0,1-2.24.45,19.43,19.43,0,0,1-2.44.16,10.26,10.26,0,0,1-4.68-.92,5.35,5.35,0,0,1-2.58-2.67,8.68,8.68,0,0,1-.54-3.38V20H60.43V15.43h4.25V9.07h5.57v6.36h6.58V20H70.25V31.08a3.69,3.69,0,0,0,.4,2,3.11,3.11,0,0,0,2.8,1.08A12.2,12.2,0,0,0,75.36,34a15,15,0,0,0,1.8-.39Z"/><path class="cls-1" d="M97.11,35.78H97a11.75,11.75,0,0,1-1.13,1,10.34,10.34,0,0,1-1.51,1,8.57,8.57,0,0,1-1.88.74,8.31,8.31,0,0,1-2.23.28,8.84,8.84,0,0,1-3-.5,6.88,6.88,0,0,1-2.42-1.46,6.69,6.69,0,0,1-1.58-2.3,7.53,7.53,0,0,1-.58-3,7.74,7.74,0,0,1,.67-3.29,7,7,0,0,1,1.87-2.46,8.11,8.11,0,0,1,2.86-1.54,12,12,0,0,1,3.69-.53,17.73,17.73,0,0,1,2.73.19,18.14,18.14,0,0,1,2.18.44V23.4a4.42,4.42,0,0,0-.27-1.54,3.46,3.46,0,0,0-.87-1.32A4.23,4.23,0,0,0,94,19.63a7,7,0,0,0-2.35-.34,15.55,15.55,0,0,0-3.38.37,26.82,26.82,0,0,0-3.67,1.13V16.44a18.72,18.72,0,0,1,3.65-1.15,21,21,0,0,1,4-.42,13.89,13.89,0,0,1,4.35.61,9.25,9.25,0,0,1,3.13,1.68,6.79,6.79,0,0,1,1.88,2.52,8.12,8.12,0,0,1,.62,3.18v8.57c0,1.51,0,2.8,0,3.88s.06,2,.09,2.89h-5Zm-.45-7.29c-.53-.12-1.14-.23-1.83-.34A14.59,14.59,0,0,0,92.74,28a5.66,5.66,0,0,0-3.23.81,2.81,2.81,0,0,0-1.19,2.48,3.13,3.13,0,0,0,.27,1.35,2.68,2.68,0,0,0,.73,1,3.23,3.23,0,0,0,1.07.57,4.57,4.57,0,0,0,1.29.18,5.53,5.53,0,0,0,1.6-.22,8.23,8.23,0,0,0,1.39-.56,6.69,6.69,0,0,0,1.14-.77,7.46,7.46,0,0,0,.85-.82Z"/><path class="cls-1" d="M18.27,85a3.38,3.38,0,0,0-.65-2.15,4.86,4.86,0,0,0-1.78-1.35,12.73,12.73,0,0,0-2.51-.85c-.94-.21-1.91-.43-2.94-.64A36.8,36.8,0,0,1,6.5,79a11,11,0,0,1-3.26-1.7A7.88,7.88,0,0,1,1,74.51a9.29,9.29,0,0,1-.83-4.18,11.3,11.3,0,0,1,1-4.82,9.63,9.63,0,0,1,2.63-3.39,11,11,0,0,1,3.89-2,17.64,17.64,0,0,1,5-.66,29.77,29.77,0,0,1,5.61.54,25.29,25.29,0,0,1,4.86,1.41v5.48a29.78,29.78,0,0,0-5.21-1.55,24.8,24.8,0,0,0-4.69-.48A8.64,8.64,0,0,0,8.37,66a3.86,3.86,0,0,0-1.71,3.44,3.93,3.93,0,0,0,.56,2.2,4.52,4.52,0,0,0,1.52,1.42A9.72,9.72,0,0,0,11,74c.84.23,1.73.43,2.67.63,1.47.31,2.89.67,4.24,1.08a12.68,12.68,0,0,1,3.59,1.71,7.82,7.82,0,0,1,2.48,2.86,9.71,9.71,0,0,1,.91,4.5,10.74,10.74,0,0,1-1,4.88,9.2,9.2,0,0,1-3,3.41,13.48,13.48,0,0,1-4.66,2,25.53,25.53,0,0,1-6,.66,28.29,28.29,0,0,1-5.6-.56A16.42,16.42,0,0,1,0,93.54V88.13a25.64,25.64,0,0,0,5,1.63,24.74,24.74,0,0,0,5.06.51,18.43,18.43,0,0,0,3-.24,9.06,9.06,0,0,0,2.62-.85,5,5,0,0,0,1.87-1.63A4.42,4.42,0,0,0,18.27,85Z"/><path class="cls-1" d="M52.54,83.51a14.33,14.33,0,0,1-.8,4.89,10.91,10.91,0,0,1-2.29,3.78,10.34,10.34,0,0,1-3.61,2.44,12.48,12.48,0,0,1-4.72.85,12.81,12.81,0,0,1-4.81-.85,10.12,10.12,0,0,1-3.6-2.44,10.58,10.58,0,0,1-2.27-3.78,14.58,14.58,0,0,1-.79-4.89,14.31,14.31,0,0,1,.8-4.88,10.77,10.77,0,0,1,2.29-3.78,10.34,10.34,0,0,1,3.61-2.44,12.48,12.48,0,0,1,4.72-.85,12.81,12.81,0,0,1,4.81.85,10.21,10.21,0,0,1,3.6,2.44,10.72,10.72,0,0,1,2.27,3.78A14.56,14.56,0,0,1,52.54,83.51Zm-5.76,0a11,11,0,0,0-.42-3.19A7.19,7.19,0,0,0,45.18,78a4.87,4.87,0,0,0-1.81-1.41,5.63,5.63,0,0,0-2.3-.47,5.56,5.56,0,0,0-2.27.47A5,5,0,0,0,37,78a7,7,0,0,0-1.18,2.33,12.36,12.36,0,0,0,0,6.39A6.55,6.55,0,0,0,37,89a5,5,0,0,0,1.81,1.41,5.57,5.57,0,0,0,4.57,0A4.93,4.93,0,0,0,45.18,89a6.88,6.88,0,0,0,1.18-2.31A11,11,0,0,0,46.78,83.51Z"/><path class="cls-1" d="M74.59,94.39a14.69,14.69,0,0,1-2.59.77,15.82,15.82,0,0,1-3.21.31,14.65,14.65,0,0,1-4.61-.7,10.31,10.31,0,0,1-3.73-2.14A9.77,9.77,0,0,1,57.93,89,13.24,13.24,0,0,1,57,83.87a13.75,13.75,0,0,1,1-5.64,11,11,0,0,1,2.74-3.82,10.81,10.81,0,0,1,3.78-2.16,13.27,13.27,0,0,1,4.15-.69,15.6,15.6,0,0,1,2.94.27,13,13,0,0,1,2.56.74V77.1a13.5,13.5,0,0,0-2.2-.72,11.08,11.08,0,0,0-2.5-.27,7.81,7.81,0,0,0-2.56.42,5.56,5.56,0,0,0-2.16,1.3,6.22,6.22,0,0,0-1.5,2.36,10.28,10.28,0,0,0-.55,3.54,9.36,9.36,0,0,0,.42,2.83,6.49,6.49,0,0,0,1.24,2.26,5.87,5.87,0,0,0,2.07,1.52,7.09,7.09,0,0,0,3,.58,11.79,11.79,0,0,0,2.77-.31,16.56,16.56,0,0,0,2.35-.75Z"/><path class="cls-1" d="M80.61,60.87h5.85v6H80.61Zm.14,11.25h5.57V94.89H80.75Z"/><path class="cls-1" d="M104.38,91a18.42,18.42,0,0,0,3.39-.33,27.74,27.74,0,0,0,3.57-.94v4.44a16.91,16.91,0,0,1-3.31.89,25,25,0,0,1-4.63.42,16.32,16.32,0,0,1-4.59-.62,9.85,9.85,0,0,1-3.8-2,9.59,9.59,0,0,1-2.57-3.59,13.42,13.42,0,0,1-1-5.36,15,15,0,0,1,.89-5.43,11,11,0,0,1,2.4-3.85,9.84,9.84,0,0,1,3.44-2.29,10.81,10.81,0,0,1,4-.76,11.93,11.93,0,0,1,4,.65,8,8,0,0,1,3.14,2.07,9.56,9.56,0,0,1,2.07,3.63,16.75,16.75,0,0,1,.74,5.25c0,.79,0,1.45-.07,2H97.17a6.86,6.86,0,0,0,.71,2.69,5.13,5.13,0,0,0,1.54,1.81,6.28,6.28,0,0,0,2.22,1A11.31,11.31,0,0,0,104.38,91ZM102.15,75.9a4.36,4.36,0,0,0-1.88.39,4.48,4.48,0,0,0-1.42,1.06,5.22,5.22,0,0,0-.95,1.56,7.89,7.89,0,0,0-.47,1.9h8.95a6.56,6.56,0,0,0-.27-1.9,4.52,4.52,0,0,0-.8-1.56A3.76,3.76,0,0,0,104,76.29,4.13,4.13,0,0,0,102.15,75.9Z"/><path class="cls-1" d="M133.26,94.86a13.93,13.93,0,0,1-2.25.45,19.27,19.27,0,0,1-2.43.16,10.25,10.25,0,0,1-4.68-.93,5.25,5.25,0,0,1-2.58-2.66,8.68,8.68,0,0,1-.54-3.38V76.7h-4.25V72.12h4.25V65.75h5.57v6.37h6.58V76.7h-6.58V87.77a3.74,3.74,0,0,0,.4,2,3.11,3.11,0,0,0,2.8,1.08,12.2,12.2,0,0,0,1.91-.15c.64-.11,1.23-.24,1.8-.39Z"/><path class="cls-1" d="M138.4,72.12h6l3.4,8.25c1.29,3.13,2.19,5.45,2.73,6.95h.09q.58-1.75,2.49-6.53l3.53-8.67h6L148,105.81h-5.49l5.21-12.19Z"/><path class="cls-1" d="M7.49,152.52H1.1V117.59H23.34v5.35H7.49v9H21v5.35H7.49Z"/><path class="cls-1" d="M40.08,147.67a18.5,18.5,0,0,0,3.39-.33,26.13,26.13,0,0,0,3.57-.93v4.44a16.91,16.91,0,0,1-3.31.89,25.08,25.08,0,0,1-4.63.42,16.81,16.81,0,0,1-4.6-.62,10.16,10.16,0,0,1-3.79-2,9.59,9.59,0,0,1-2.57-3.59,13.45,13.45,0,0,1-.95-5.36,15,15,0,0,1,.89-5.43,10.88,10.88,0,0,1,2.4-3.85A9.75,9.75,0,0,1,33.92,129a10.77,10.77,0,0,1,4-.76,11.58,11.58,0,0,1,4,.65A8,8,0,0,1,45.05,131a9.56,9.56,0,0,1,2.07,3.63,16.75,16.75,0,0,1,.74,5.25c0,.78,0,1.45-.07,2H32.87a6.74,6.74,0,0,0,.71,2.69,5.22,5.22,0,0,0,1.54,1.81,6.28,6.28,0,0,0,2.22,1A11.33,11.33,0,0,0,40.08,147.67Zm-2.23-15.08a4.26,4.26,0,0,0-3.3,1.45,4.91,4.91,0,0,0-.95,1.56,7.35,7.35,0,0,0-.47,1.9h8.95a6.51,6.51,0,0,0-.27-1.9A4.61,4.61,0,0,0,41,134,3.76,3.76,0,0,0,39.7,133,4.13,4.13,0,0,0,37.85,132.59Z"/><path class="cls-1" d="M64.89,145a1.8,1.8,0,0,0-.41-1.2,3.29,3.29,0,0,0-1.1-.78,9.7,9.7,0,0,0-1.56-.56L60,142a23.09,23.09,0,0,1-2.35-.77,7.18,7.18,0,0,1-2-1.14,5.11,5.11,0,0,1-1.36-1.77,6.06,6.06,0,0,1-.5-2.62,7.37,7.37,0,0,1,.68-3.3,6.58,6.58,0,0,1,1.84-2.32,8,8,0,0,1,2.7-1.36,11.57,11.57,0,0,1,3.26-.44,21.19,21.19,0,0,1,3.92.34,19.85,19.85,0,0,1,3.31.88V134c-.52-.17-1.06-.33-1.63-.48s-1.15-.28-1.74-.39-1.17-.2-1.75-.27a13.71,13.71,0,0,0-1.64-.1,6.61,6.61,0,0,0-1.67.18,3.47,3.47,0,0,0-1.11.51,1.91,1.91,0,0,0-.61.73,2.1,2.1,0,0,0-.19.85,1.89,1.89,0,0,0,.42,1.27,2.81,2.81,0,0,0,1.14.8,10.43,10.43,0,0,0,1.52.51l1.55.38c.79.19,1.57.42,2.35.69a7.14,7.14,0,0,1,2.12,1.11,5.65,5.65,0,0,1,1.54,1.86,6.31,6.31,0,0,1,.59,2.9,7.42,7.42,0,0,1-.72,3.36,6.69,6.69,0,0,1-2,2.38,8.76,8.76,0,0,1-3.12,1.41,16.18,16.18,0,0,1-4,.46,19.87,19.87,0,0,1-3.88-.34,12.7,12.7,0,0,1-2.86-.86v-4.48A17.87,17.87,0,0,0,60,147.65,11.63,11.63,0,0,0,62,147.5a5.26,5.26,0,0,0,1.54-.48,2.85,2.85,0,0,0,1-.84A2,2,0,0,0,64.89,145Z"/><path class="cls-1" d="M88.24,148.72a1,1,0,0,1,.29-.76l14-17c1.71-2.08,2.73-4.09,2.73-6.44,0-3.33-2.33-5.84-6.1-5.84s-5.75,2.13-6.32,5.46a.5.5,0,0,1-.63.43l-3.48-.71a.56.56,0,0,1-.46-.65c.52-4.42,4.17-8.79,11-8.79s10.89,4.37,10.89,10.1c0,3.33-1.43,6.06-3.77,8.9l-12,14.41v0h15.17a.53.53,0,0,1,.57.55v3.16a.53.53,0,0,1-.57.55H88.81a.53.53,0,0,1-.57-.55Z"/><path class="cls-1" d="M114.7,133.55c0-8.73.4-10.7.85-12.12,1.54-4.53,5.25-7,10.61-7s9.06,2.51,10.6,7c.46,1.42.85,3.39.85,12.12s-.39,10.7-.85,12.12c-1.54,4.53-5.25,7-10.6,7s-9.07-2.51-10.61-7C115.1,144.25,114.7,142.28,114.7,133.55Zm11.46,14.9c2.85,0,5-1.26,5.87-3.71.4-1.15.62-2.73.62-11.19s-.22-10-.62-11.19c-.91-2.46-3-3.71-5.87-3.71s-5,1.25-5.88,3.71c-.4,1.15-.62,2.73-.62,11.19s.22,10,.62,11.19C121.2,147.19,123.31,148.45,126.16,148.45Z"/><path class="cls-1" d="M142.12,148.72a1,1,0,0,1,.28-.76l14-17c1.71-2.08,2.74-4.09,2.74-6.44,0-3.33-2.34-5.84-6.1-5.84s-5.76,2.13-6.33,5.46a.5.5,0,0,1-.63.43l-3.48-.71c-.34-.11-.51-.32-.45-.65.51-4.42,4.16-8.79,11-8.79S164,118.76,164,124.49c0,3.33-1.43,6.06-3.76,8.9l-12,14.41v0h15.17a.53.53,0,0,1,.57.55v3.16a.53.53,0,0,1-.57.55H142.69a.53.53,0,0,1-.57-.55Z"/><path class="cls-1" d="M169.14,133.55c0-8.73.4-10.7.85-12.12,1.54-4.53,5.25-7,10.61-7s9.06,2.51,10.6,7c.46,1.42.86,3.39.86,12.12s-.4,10.7-.86,12.12c-1.54,4.53-5.24,7-10.6,7s-9.07-2.51-10.61-7C169.54,144.25,169.14,142.28,169.14,133.55Zm11.46,14.9c2.85,0,5-1.26,5.87-3.71.4-1.15.63-2.73.63-11.19s-.23-10-.63-11.19c-.91-2.46-3-3.71-5.87-3.71s-5,1.25-5.87,3.71c-.4,1.15-.63,2.73-.63,11.19s.23,10,.63,11.19C175.64,147.19,177.75,148.45,180.6,148.45Z"/><rect class="cls-1" x="170.03" y="30.71" width="9.28" transform="translate(60.74 166.62) rotate(-60)"/><polygon class="cls-1" points="117.76 25.3 117.76 25.3 124.86 13 117.76 25.3"/><rect class="cls-1" x="173.53" y="12.41" height="13.81"/><polygon class="cls-1" points="117.76 26.69 124.86 38.99 117.76 26.69 117.76 26.69"/><path class="cls-1" d="M160.52,22.9l11.83,11.83,4.64-8a1.55,1.55,0,0,0,0-1.39l-6.91-12Z"/><path class="cls-1" d="M154.75,28.94A11.22,11.22,0,0,1,160,30.11L141.66,11.78a25.6,25.6,0,0,1,4.78,15.38,28.48,28.48,0,0,1-.75,6.64C147.23,31,150.33,28.94,154.75,28.94Z"/><path class="cls-1" d="M164.39,34.79l-4.27,2.51a5.39,5.39,0,0,0-5.32-3.45c-3.24,0-4.9,1.93-4.9,4.18,0,1,.36,2.87,3.75,4.23l3.49,1.41c3.65,1.49,5.79,3.31,7,5.33l5.4-9.37-5.44-5.44C164.18,34.39,164.29,34.58,164.39,34.79Z"/><path class="cls-1" d="M156.86,19.24,167.4,8.7l-4.62-8a1.52,1.52,0,0,0-1.2-.7H155.5l-8.94,8.94Z"/><path class="cls-1" d="M139.24,9,148.19,0h-15A1.55,1.55,0,0,0,132,.7l-1.52,2.64a23.86,23.86,0,0,1,7.27,4.21C138.23,8,138.74,8.45,139.24,9Z"/><path class="cls-1" d="M155,48.37,151.67,47c-2.87-1.2-7.09-3.6-7.09-8.83a8.89,8.89,0,0,1,.06-1,24.61,24.61,0,0,1-7.16,9.67,23.12,23.12,0,0,1-5.94,3.79l.42.73a1.58,1.58,0,0,0,1.21.7h26.36C158.65,50.06,156.71,49.07,155,48.37Z"/><path class="cls-1" d="M140.62,27.16c0-9.31-5-16.15-13-18.89L124.86,13l-7.1,12.3a1.55,1.55,0,0,0,0,1.39l7.1,12.3,3.87,6.7a18.61,18.61,0,0,0,5-3C137.56,39.5,140.62,34.44,140.62,27.16Z"/><polygon class="cls-1" points="170.08 13.34 169.89 13 170.08 13.34 170.08 13.34"/></svg>