<svg id="レイヤー_1" data-name="レイヤー 1" xmlns="http://www.w3.org/2000/svg" xmlns:xlink="http://www.w3.org/1999/xlink" viewBox="0 0 227.59 203.36"><defs><style>.cls-1{fill:#fff;}.cls-2{fill:#04243d;}.cls-3{fill:#e50012;}.cls-4{fill:url(#linear-gradient);}</style><linearGradient id="linear-gradient" x1="75.13" y1="81.37" x2="148.7" y2="7.8" gradientUnits="userSpaceOnUse"><stop offset="0" stop-color="#64c5e7"/><stop offset="0.48" stop-color="#2862ad"/><stop offset="0.56" stop-color="#2e68b0"/><stop offset="0.67" stop-color="#3e78ba"/><stop offset="0.79" stop-color="#5992cb"/><stop offset="0.91" stop-color="#7eb7e1"/><stop offset="1" stop-color="#9bd3f3"/></linearGradient></defs><path class="cls-1" d="M190.1,177.36v2.37a.41.41,0,0,1-.42.42h-8.36a.41.41,0,0,1-.42-.42v-2.28a1.07,1.07,0,0,1,.08-.37.88.88,0,0,1,.23-.32l1.6-1.33,1.12-.93c.3-.26.55-.47.76-.63l.53-.44a8,8,0,0,0,.7-.64,3.48,3.48,0,0,0,.39-.51,1.48,1.48,0,0,0,.16-.44,1.84,1.84,0,0,0,0-.41.82.82,0,0,0-.38-.78,1.58,1.58,0,0,0-.79-.21.8.8,0,0,0-.48.17,1.82,1.82,0,0,0-.38.4,3.1,3.1,0,0,0-.29.5,3.94,3.94,0,0,0-.19.48.45.45,0,0,1-.2.25.51.51,0,0,1-.32,0l-2.53-.65a.37.37,0,0,1-.25-.2.35.35,0,0,1,0-.3,9.87,9.87,0,0,1,.59-1.27,6.55,6.55,0,0,1,1-1.29,5.23,5.23,0,0,1,1.35-1,3.9,3.9,0,0,1,1.77-.39,5.14,5.14,0,0,1,2,.38,4.15,4.15,0,0,1,1.44,1,3.89,3.89,0,0,1,.85,1.36,4.28,4.28,0,0,1,.28,1.51,4.94,4.94,0,0,1-.18,1.37,4.87,4.87,0,0,1-.53,1.16,5.86,5.86,0,0,1-.84,1.05c-.33.33-.7.66-1.11,1l-.25.23-.15.12-.15.12-.26.21c-.09.07-.13.13-.11.18s.08.08.2.08h3.1a.42.42,0,0,1,.3.12A.41.41,0,0,1,190.1,177.36Z"/><path class="cls-1" d="M193.12,178.32a6.11,6.11,0,0,1-1.11-2.06,8,8,0,0,1-.37-2.47,8.14,8.14,0,0,1,.42-2.68,6.23,6.23,0,0,1,1.18-2.08,5.38,5.38,0,0,1,1.82-1.35,5.64,5.64,0,0,1,2.35-.48,5.34,5.34,0,0,1,2.3.5,5.61,5.61,0,0,1,1.83,1.37,6.5,6.5,0,0,1,1.2,2.09,8.14,8.14,0,0,1,0,5.1,6.31,6.31,0,0,1-1.12,2.06,5.48,5.48,0,0,1-1.9,1.54,5.41,5.41,0,0,1-6.64-1.54Zm2-4.53a5.18,5.18,0,0,0,.14,1.16,3.78,3.78,0,0,0,.42,1.05,2.5,2.5,0,0,0,.71.77,1.81,1.81,0,0,0,1.83.08,2.22,2.22,0,0,0,.73-.62,3.43,3.43,0,0,0,.52-1,4.66,4.66,0,0,0,.2-1.41,6,6,0,0,0-.17-1.41,3,3,0,0,0-.51-1.1,2,2,0,0,0-1.58-.77,2,2,0,0,0-.81.19,2.09,2.09,0,0,0-.74.6,3.3,3.3,0,0,0-.53,1A4.68,4.68,0,0,0,195.12,173.79Z"/><path class="cls-1" d="M213.87,177.36v2.37a.42.42,0,0,1-.12.3.4.4,0,0,1-.29.12h-8.37a.42.42,0,0,1-.3-.12.41.41,0,0,1-.12-.3v-2.28a.91.91,0,0,1,.09-.37.78.78,0,0,1,.23-.32c.62-.53,1.16-1,1.6-1.33l1.11-.93.76-.63c.21-.16.38-.31.53-.44a6.75,6.75,0,0,0,.7-.64,2.47,2.47,0,0,0,.39-.51,1.28,1.28,0,0,0,.17-.44,2.73,2.73,0,0,0,0-.41.81.81,0,0,0-.37-.78,1.58,1.58,0,0,0-.79-.21.76.76,0,0,0-.48.17,1.65,1.65,0,0,0-.39.4,3.05,3.05,0,0,0-.28.5,4.17,4.17,0,0,0-.2.48.41.41,0,0,1-.2.25.49.49,0,0,1-.32,0l-2.53-.65a.39.39,0,0,1-.25-.2.35.35,0,0,1,0-.3,8.68,8.68,0,0,1,.59-1.27,5.84,5.84,0,0,1,1-1.29,5.23,5.23,0,0,1,1.35-1,3.85,3.85,0,0,1,1.77-.39,5.14,5.14,0,0,1,2,.38,4.15,4.15,0,0,1,1.44,1,4,4,0,0,1,.85,1.36,4.5,4.5,0,0,1,.27,1.51,4.94,4.94,0,0,1-.18,1.37A4.51,4.51,0,0,1,213,174a5.86,5.86,0,0,1-.84,1.05c-.33.33-.69.66-1.1,1l-.26.23-.15.12-.14.12-.26.21c-.1.07-.13.13-.12.18s.09.08.2.08h3.11a.4.4,0,0,1,.29.12A.41.41,0,0,1,213.87,177.36Z"/><path class="cls-1" d="M216.89,178.32a6.27,6.27,0,0,1-1.1-2.06,8,8,0,0,1-.38-2.47,8.14,8.14,0,0,1,.42-2.68A6.25,6.25,0,0,1,217,169a5.28,5.28,0,0,1,1.82-1.35,5.56,5.56,0,0,1,2.34-.48,5.35,5.35,0,0,1,2.31.5,5.57,5.57,0,0,1,1.82,1.37,6.5,6.5,0,0,1,1.2,2.09,8,8,0,0,1,.05,5.1,6.33,6.33,0,0,1-1.13,2.06,5.46,5.46,0,0,1-6.65,1.53A5.56,5.56,0,0,1,216.89,178.32Zm2-4.53A5.18,5.18,0,0,0,219,175a3.5,3.5,0,0,0,.42,1.05,2.47,2.47,0,0,0,.7.77,1.83,1.83,0,0,0,1.84.08,2.1,2.1,0,0,0,.72-.62,3.44,3.44,0,0,0,.53-1,4.66,4.66,0,0,0,.2-1.41,5.56,5.56,0,0,0-.18-1.41,2.87,2.87,0,0,0-.5-1.1,2,2,0,0,0-1.59-.77,2,2,0,0,0-.81.19,2.06,2.06,0,0,0-.73.6,3.1,3.1,0,0,0-.53,1A4.68,4.68,0,0,0,218.9,173.79Z"/><path class="cls-1" d="M4.56,196c-.56.07-1.8.26-2.54.39,0,0-.83.15-.85.15C.88,196.49,0,196,0,195.38c0,0,0-.26.11-.26s.23.08.27.09a6.11,6.11,0,0,0,.92.12c.12,0,5.77-.66,6.87-.77.16,0,.87-.13,1-.13.43,0,1.26.46,1.26.89a.53.53,0,0,1-.5.52c-.11,0-.15,0-.6-.07A10.92,10.92,0,0,0,8,195.69a13.74,13.74,0,0,0-2.2.2,3.37,3.37,0,0,1,.19.56A15.34,15.34,0,0,1,4.55,200a5,5,0,0,1-2.91,2.38,0,0,0,0,1,0,0c0-.05.88-.92,1-1.06a10.26,10.26,0,0,0,2.09-4.95,2.33,2.33,0,0,0,0-.38Zm1.94-4.48c.11,0,.54-.14.64-.14a.77.77,0,0,1,.76.7c0,.43-.25.45-.86.48a20.45,20.45,0,0,0-2.71.41c-.11,0-.6.15-.71.15s-1.15-.35-1.15-1c0-.12,0-.23.11-.23l.12,0a2.2,2.2,0,0,0,.61.07,5.94,5.94,0,0,0,.64-.06l.81-.12Zm2-.21c.7,0,1.73.53,1.73,1.3,0,.06,0,.49-.36.49s-.27-.13-.48-.48a8.59,8.59,0,0,0-.91-1.24Zm3.32.57c0,.21-.09.5-.34.5s-.19-.06-.62-.63a4.32,4.32,0,0,0-.91-1s0,0,0-.1C10.67,190.56,11.86,191.06,11.86,191.83Z"/><path class="cls-1" d="M12.17,199.46a20,20,0,0,0,3.48-4,3.65,3.65,0,0,0,.78-1.45c0-.06-.07-.32-.07-.36a.48.48,0,0,1,.28-.11,1.11,1.11,0,0,1,.94.89c0,.17,0,.21-.28.51s-1.47,1.83-1.47,1.89a1.17,1.17,0,0,0,.19.3.93.93,0,0,1,.16.51c0,.23,0,1.29,0,1.5,0,.65,0,2.77,0,3.33,0,.23-.05.63-.41.63s-.6-.3-.6-1a5.57,5.57,0,0,1,.06-.68c0-.24.12-2.85.12-3.31a3.18,3.18,0,0,0,0-.64,7.07,7.07,0,0,1-2.2,1.87,2.44,2.44,0,0,1-.82.26s-.06,0-.09-.06Z"/><path class="cls-1" d="M31.64,196.16c0,.76-1.06.77-2.3.78-1.48,0-5,.08-6.68.29l-.76.09a1.48,1.48,0,0,1-1.2-1.19c0-.18.09-.36.18-.36l.57.17a4.41,4.41,0,0,0,.68.07c1.79,0,2.46,0,6.11-.23.38,0,2-.15,2.37-.15C31.21,195.63,31.64,195.84,31.64,196.16Z"/><path class="cls-1" d="M40.51,193.39a53.75,53.75,0,0,0-5.73.4c-.16,0-.87.17-1,.17-.43,0-1-.73-1-1.16,0-.2.12-.39.19-.39s.3.18.37.19a2.56,2.56,0,0,0,.79.09c.23,0,5.61-.31,6-.35.17,0,.91-.12,1.06-.12s1.05.5,1.05.91c0,.14,0,.19-.38.75s-1.42,2.55-1.67,3c-2.79,4.57-5.77,5.25-5.84,5.25s-.07,0-.08-.09a20.08,20.08,0,0,0,4.11-4.45,19.62,19.62,0,0,0,2.2-4.13Zm4-2.6a1.4,1.4,0,1,1-1.4-1.55A1.49,1.49,0,0,1,44.47,190.79Zm-2.2,0a.81.81,0,1,0,1.61,0,.81.81,0,1,0-1.61,0Z"/><path class="cls-1" d="M52.68,195.18a40.66,40.66,0,0,0-6,1,2.44,2.44,0,0,1-.46.07c-.28,0-1.16-.44-1.16-1,0-.16,0-.23.21-.23s.58.07.69.07c.26,0,4-.51,6.2-.85.2,0,1.11-.28,1.3-.28s1,.53,1,.92c0,.2,0,.23-.28.55,0,0-1.34,2.27-1.63,2.68A11.84,11.84,0,0,1,48.48,202a4.92,4.92,0,0,1-1.23.48s-.1,0-.1-.07.19-.18.23-.23a16.71,16.71,0,0,0,5.37-7Zm-5.39-3.41a22.7,22.7,0,0,0,3.76-.37,10.4,10.4,0,0,1,1.08-.23c.2,0,.8.21.8.68s-.44.49-1.59.59c-.49,0-3,.4-3.07.4-.39,0-1.12-.36-1.12-.93C47.15,191.8,47.2,191.77,47.29,191.77Z"/><path class="cls-1" d="M67.54,196.16c0,.76-1.06.77-2.3.78-1.48,0-5,.08-6.68.29l-.76.09a1.48,1.48,0,0,1-1.2-1.19c0-.18.08-.36.18-.36l.57.17A4.41,4.41,0,0,0,58,196c1.79,0,2.46,0,6.11-.23.38,0,2-.15,2.37-.15C67.11,195.63,67.54,195.84,67.54,196.16Z"/><path class="cls-1" d="M79.14,199.13a.5.5,0,0,1-.5.53,5.35,5.35,0,0,1-.79-.14,10.68,10.68,0,0,0-1.72-.13,26.82,26.82,0,0,0-5.38.5,4.42,4.42,0,0,1-.83.15c-.4,0-1.26-.41-1.26-1,0-.14,0-.2.12-.2s.65.06.76.06c.6,0,3.23-.32,3.76-.36,2.12-.2,2.68-.2,3.61-.23.14,0,.82-.1.84-.1C78.37,198.17,79.14,198.62,79.14,199.13Zm-2-5.83c0,.46-.26.46-1.21.55s-1.78.21-2.49.33c-.25,0-.86.14-1,.14-.57,0-1.24-.42-1.24-.93,0-.17,0-.22.13-.22s.77.1.92.1a21.22,21.22,0,0,0,2.83-.41,9.66,9.66,0,0,1,1.11-.3C76.47,192.56,77.12,192.86,77.12,193.3Z"/><path class="cls-1" d="M81.82,191.82a.5.5,0,0,1,.34-.08c.5,0,2.41.32,2.41,1.62a.56.56,0,0,1-.47.58c-.29,0-.37-.09-1-.9a6.92,6.92,0,0,0-.84-.86c-.06-.06-.36-.29-.41-.35Zm.07,8.52c0-.08,0-.39.08-.39a.43.43,0,0,1,.16,0,1.11,1.11,0,0,0,.38.06c.61,0,2.81-1.84,2.91-1.91a40.3,40.3,0,0,0,4.91-5.07,1.88,1.88,0,0,1,.34-.38s0,0,0,0a4.43,4.43,0,0,1-.45,1.19,18.21,18.21,0,0,1-5,6c-.2.16-1.2.9-1.37,1.07-.48.45-.53.51-.73.51C82.69,201.47,81.89,200.81,81.89,200.34Z"/><path class="cls-1" d="M97.15,191.77c.2,0,1.22-.18,1.56-.22.11,0,.35-.08.43-.08.3,0,1.11.44,1.11.91,0,.15,0,.18-.27.55-.06.1-1.34,2.79-1.61,3.29-2.93,5.45-5.8,6.12-6.08,6.08v0a22.06,22.06,0,0,0,4.45-5.45,21.67,21.67,0,0,0,2-4.17l-.1-.05-1.16.09-1.22.12,0,.05A13,13,0,0,1,94,195.94a4,4,0,0,1-1.48.94s-.07,0-.07,0,.8-1.1,1-1.31a10.14,10.14,0,0,0,1.79-3.61,1.4,1.4,0,0,0-.06-.41.24.24,0,0,1,.17-.07c.3,0,.44.12.71.35a.57.57,0,0,0,.27,0Zm3.25-1.18c.47,0,1.65.35,1.65,1.15,0,.15-.06.48-.37.48s-.24-.09-.8-.84c0-.06-.53-.59-.63-.69S100.31,190.59,100.4,190.59Zm1.2-.94c.57,0,1.64.3,1.64,1.07,0,.33-.19.43-.32.43s-.44-.33-.59-.56a7.77,7.77,0,0,0-.8-.84s0,0,0-.07S101.56,189.65,101.6,189.65Z"/><path class="cls-1" d="M112.36,195.1a14.73,14.73,0,0,0,3.49-1,9,9,0,0,1,1-.44c.26,0,.88.26.88.76,0,.34-.11.37-1,.66a38.59,38.59,0,0,1-4.17,1.08l-.3,0c-.11,0-.11.21-.11.35a19.13,19.13,0,0,0,.1,3.07c.09.58.43,1.14,2.23,1.14a16.07,16.07,0,0,0,2.59-.31c.06,0,.62-.13.68-.13a.89.89,0,0,1,.85.8c0,.42-.41.51-.67.56a33.65,33.65,0,0,1-3.45.21c-3.32,0-3.33-1.71-3.32-4.12l0-5.11a2,2,0,0,0-.41-1.48V191a.78.78,0,0,1,.45-.19c.34,0,1.19.28,1.19.9,0,.17-.08.86-.09,1-.08,1.08-.11,1.6-.11,2.36Zm5.94-3.39c0,.39-.21.5-.36.5s-.25-.08-.61-.66a4.36,4.36,0,0,0-.74-.89c0-.08-.08-.1-.08-.16s0-.06.15-.06S118.3,190.7,118.3,191.71Zm1.47-.74c0,.15-.07.44-.34.44s-.22-.06-.62-.59a5.68,5.68,0,0,0-.85-.92.1.1,0,0,1,0-.12C118.41,189.74,119.77,190.08,119.77,191Z"/><path class="cls-1" d="M122.09,194.82c.8,0,1.81.35,1.81,1.2a.48.48,0,0,1-.48.52c-.24,0-.32-.08-1-.74a7.38,7.38,0,0,0-.91-.71s-.08-.06-.08-.11S122,194.82,122.09,194.82Zm3.45,5.4c-.22.16-1.33.95-1.42,1-.63.62-.7.69-.85.69a1.58,1.58,0,0,1-.92-.56c-.2-.21-.31-.31-.31-.58,0-.08,0-.27.08-.27l.38.05c.41,0,.73-.22,1.7-.9a38.07,38.07,0,0,0,4.94-4.15,19.38,19.38,0,0,0,1.75-2c.07-.09.08-.08.12-.06C130.9,194.65,129.33,197.22,125.54,200.22Zm-2.12-8.81c1.44,0,1.7.8,1.7,1.13,0,.49-.27.56-.4.56s-.27-.06-.9-.68a6.25,6.25,0,0,0-.93-.74c-.12-.07-.13-.07-.13-.17A1.27,1.27,0,0,1,123.42,191.41Zm4.44-1.22c.83,0,1.86.39,1.86,1.13,0,.13-.07.47-.39.47s-.25-.08-.41-.28a7,7,0,0,0-1.25-1.23C127.68,190.2,127.72,190.19,127.86,190.19Zm1.75-.73c.06,0,1.55.06,1.55,1.06,0,.3-.16.45-.34.45s-.22,0-.6-.5a10.31,10.31,0,0,0-.88-.87.07.07,0,0,1,0-.09A1,1,0,0,1,129.61,189.46Z"/><path class="cls-1" d="M133,199.83a25,25,0,0,0,4.56-4.57,9,9,0,0,0,1.1-1.71,7.52,7.52,0,0,0-1.8.35c-.27.07-1.56.55-1.65.55-.47,0-1.15-.54-1.15-.91,0-.15.05-.15.59-.2.32,0,1.89-.39,2.81-.62.33-.07,1.44-.33,1.62-.39.43-.17.47-.18.57-.18.31,0,1,.54,1,.89,0,.18,0,.19-.48.62-.09.09-2,2.49-2,2.59a1.46,1.46,0,0,0,.17.38,1.23,1.23,0,0,1,.1.44c0,.78,0,4.26,0,5,0,.24,0,1-.46,1s-.69-.42-.69-1.2c0-.06,0-.61,0-.73.07-1.52.11-2.4.11-3.34,0-.52,0-.56-.12-.67-.26.2-1.31,1.13-1.52,1.31a6,6,0,0,1-2.81,1.4Zm3.21-10c.11,0,.19,0,.3,0,.71,0,2.23.61,2.23,1.64a.53.53,0,0,1-.48.59c-.3,0-.39-.15-.84-.83a7.26,7.26,0,0,0-.8-1l-.41-.37Zm3,7.26a1.25,1.25,0,0,1,.32,0c.76,0,3.18.56,3.18,2,0,.36-.16.61-.44.61s-.27-.07-1-.81a16.44,16.44,0,0,0-2.09-1.75Z"/><path class="cls-1" d="M151.32,192.83h-.21l-1.43.18-.85.15-1.48.27a6.53,6.53,0,0,1-.76.2,1.42,1.42,0,0,1-1.16-1.1c0-.11,0-.29.16-.29s.8.17.93.17l.33,0,1.49-.19,2.19-.33a4.46,4.46,0,0,0,.89-.18,3.09,3.09,0,0,1,.47-.1c.28,0,1.15.49,1.15,1,0,.21-.07.27-.38.61s-1.17,1.8-1.36,2.09-1.1,1.54-1.19,1.73l0,0a22.59,22.59,0,0,1,3,2.54,1.91,1.91,0,0,1,.64,1.38c0,.4-.22.67-.47.67s-.34-.12-1.08-1.17a13.73,13.73,0,0,0-2.55-3c-2.47,2.94-4.49,3.59-4.9,3.59,0,0-.07,0-.07,0s.07-.1.19-.19a22.65,22.65,0,0,0,4.66-5,24.86,24.86,0,0,0,1.75-2.91Z"/><path class="cls-1" d="M156.12,193.75a4.57,4.57,0,0,1,1.39.41,1.56,1.56,0,0,1,1,1.47.44.44,0,0,1-.41.48c-.16,0-.21,0-.62-.55a8.75,8.75,0,0,0-1.49-1.4c-.25-.2-.27-.22-.23-.32A.53.53,0,0,1,156.12,193.75ZM159,199.8c-.06.18-.75,1.94-.89,2.3-.23.65-.24.68-.43.68a2,2,0,0,1-1.37-1.45.47.47,0,0,1,.14-.33c.13.12.2.18.56.18s.6-.27,2-3.36c.14-.3.37-.8.53-.83a.21.21,0,0,1,.11.21,3.58,3.58,0,0,1-.18.83Zm-1.69-9.05a3.42,3.42,0,0,1,1.52.43,1.22,1.22,0,0,1,.8,1.27c0,.27-.09.58-.38.58s-.2,0-.66-.59a11.22,11.22,0,0,0-1.24-1.26c-.24-.18-.28-.21-.35-.33A.6.6,0,0,1,157.28,190.75Zm6,3.18c0-.86,0-1-.24-1.15a10.91,10.91,0,0,1-2.61.61c-.19,0-.46-.11-.46-.2s.07-.12.76-.39a33.79,33.79,0,0,0,3.13-1.5c1-.57,1-1,1-1.11a1.71,1.71,0,0,0,0-.36.34.34,0,0,1,.3-.11c.56,0,1.1,1.07,1.1,1.31s-.09.3-.95.76l-1.26.62c.26.21.35.39.35.49s-.05.37-.05.44,0,.62,0,.72l0,.89,1-.15a4.08,4.08,0,0,0,.84-.18c.14,0,.56-.19.64-.19.23,0,1.33.3,1.33.9,0,.36-.45.38-.52.38l-.69,0-1.45.06-1.19.13-.06,2.46,1.09-.1a2.29,2.29,0,0,0,.66-.17,1.1,1.1,0,0,1,.37-.1c.2,0,1,.71,1,1.07,0,.09,0,.12-.18.4a2.53,2.53,0,0,0-.17.46l-.4,1.5a1.13,1.13,0,0,0-.05.24c.19.5.19.53.19.62,0,.27-.23.4-.48.4a5.17,5.17,0,0,0-.54,0l-1.17.06-2,.19-.15,0c-.42.4-.46.4-.57.4-.46,0-.5-.5-.6-1.48l-.13-1.44c-.1-1-.18-1.11-.63-1.55,0-.18.11-.39.42-.39a2.79,2.79,0,0,1,.72.15.49.49,0,0,0,.38.08l1.36-.2v-2l0-.5-1.39.2c-.21,0-1.1.25-1.29.25a1.63,1.63,0,0,1-1.13-1.28.4.4,0,0,1,.11-.32,1.76,1.76,0,0,0,1.42.46,10.34,10.34,0,0,0,1.08-.06l1.19-.16Zm-1.08,8c.13,0,.3,0,.44-.06l1.69-.16,1.22-.09c.08-.28.13-.56.18-.8l.18-1.18c0-.08.07-.38.07-.44s-.08-.06-.15-.06l-.78.05-1.36.13-1.72.26.12,1Z"/><path class="cls-1" d="M174.59,191.23l1.37-.18.82-.12a4,4,0,0,0,.84-.17,5.62,5.62,0,0,1,.73-.3c.26,0,1.11.65,1.11.9s-.19.9-.19,1l-.07,1.67v4.28l0,1.92a6.48,6.48,0,0,1-.14,2c0,.16-.31,1.08-.8,1.08-.2,0-.26-.1-.42-.4a1.45,1.45,0,0,0-.38-.48l-.72-.69c-.12-.12-.41-.41-.41-.55s0-.13.1-.13a2.8,2.8,0,0,1,.51.18,3.74,3.74,0,0,0,.91.22c.29,0,.3-.07.3-.69v-2.89l-.89,0-1.07.14-1,.13v2c0,1,0,1.09,0,1.3s-.22.9-.53.9c-.5,0-.48-1.17-.46-1.65v-2.34l-1.37.19c-.5.08-1,.15-1.48.2-.53,2-1.57,3.83-2.3,3.83-.11,0-.18-.06-.18-.12s.62-1.06.72-1.27a16.1,16.1,0,0,0,1.15-7.12c0-.52,0-2.32-.61-2.59a.31.31,0,0,1,.31-.35,2.38,2.38,0,0,1,.76.23,3,3,0,0,0,.42.18,1,1,0,0,0,.22,0Zm-2.33,6.48,1-.12c.16,0,.89-.13,1-.16v-2l-1.6.23c-.11,0-.55.1-.65.1a1.29,1.29,0,0,1-.29,0c0,.27-.06,1.23-.17,2.12Zm2-3.26v-1.32c0-1-.16-.95-.32-.92l-2,.3-.28.06c.05,1.07.06,1.45.06,2.19l.23,0a10.34,10.34,0,0,0,1.19-.15Zm3.58,2.48.31,0v-2.07l-1,.12-1.33.2-.64.11v.42l0,1.58Zm-2.62-2.59,1.35-.23,1.58-.21,0-1.21c0-.87,0-1.05-.65-1l-2.32.31c.09.06.12.11.12.18s-.08.81-.08.94Z"/><path class="cls-1" d="M190.42,192.59l.15-.17h-.08l-2.1.22-1.77.23-1.94.3-1.07.2c-.11,0-.54.13-.64.13a1.41,1.41,0,0,1-1.18-1c0-.29.11-.29.25-.29l.74.1a3,3,0,0,0,.48,0l4.3-.56,2.65-.28c.16,0,.84-.22,1-.22a2,2,0,0,1,1.31,1.3c0,.38-.21.45-.55.57l-1.05.59a8,8,0,0,1-3,1.12c-.07,0-.18,0-.18-.09s.11-.15.15-.18a15.14,15.14,0,0,0,1.48-1Zm-4,1c.36,0,1.18.18,1.18.7,0,.18-.11,1-.13,1.16a10.05,10.05,0,0,1-2,5.85,3.81,3.81,0,0,1-1.11.92s-.05-.05-.05-.08.32-.51.43-.69a15.24,15.24,0,0,0,1.56-6.62,1.47,1.47,0,0,0-.26-1.07A.43.43,0,0,1,186.41,193.64Z"/><path class="cls-1" d="M201.84,191.76c.11,0,1-.09,1.1-.11s.42-.1.49-.1c.24,0,1.09.54,1.09,1a4.93,4.93,0,0,1-.4.91c-.15.34-.67,1.9-.77,2.21a12.45,12.45,0,0,1-3.67,5.9,5.18,5.18,0,0,1-1.56.89s-.07,0-.07-.06a10.34,10.34,0,0,1,.95-1.09c2.83-3.21,3.93-8.31,3.93-8.38s-.14-.18-.42-.18a58.85,58.85,0,0,0-6.08.49c-.13,0-.17.07-.16.23l.17,2.84c0,.54.08,1.35-.42,1.35s-.71-.62-.71-1.07c0-.24,0-1.29,0-1.52l-.07-1.39a5.55,5.55,0,0,0-.18-1.16,4.31,4.31,0,0,1-.16-.59.41.41,0,0,1,.16,0,2.22,2.22,0,0,1,.86.26,1.4,1.4,0,0,0,.68,0Z"/><path class="cls-1" d="M217.06,196.16c0,.76-1.06.77-2.3.78-1.49,0-5,.08-6.68.29l-.76.09a1.48,1.48,0,0,1-1.2-1.19c0-.18.08-.36.18-.36l.57.17a4.3,4.3,0,0,0,.68.07c1.79,0,2.45,0,6.1-.23.39,0,2-.15,2.38-.15C216.63,195.63,217.06,195.84,217.06,196.16Z"/><path class="cls-1" d="M220.94,192.71c0-1.28-.18-1.51-.49-1.9.05-.15.34-.25.49-.25.47,0,1.18.58,1.18,1,0,.11-.1.74-.11.88a23,23,0,0,0-.08,2.35c0,.38,0,.39.15.42a9.86,9.86,0,0,1,2,.74c.66.3,1.59.75,1.59,1.69,0,.42-.29.5-.42.5s-.28-.08-1.11-.8a13.48,13.48,0,0,0-2.17-1.54c-.07,0-.07.13-.07.19v4c0,.28,0,1.49,0,1.73s0,1-.46,1-.68-1.06-.68-1.47.06-1.52.08-1.78c0-1,0-2.86,0-3.83Zm5,0c0,.39-.27.47-.39.47s-.25-.05-.52-.56a5.38,5.38,0,0,0-.64-1s-.23-.24-.23-.26,0,0,0,0C224.81,191.38,225.92,191.8,225.92,192.68Zm0-2s1.67.18,1.67,1.2c0,.27-.16.46-.34.46s-.35-.19-.45-.32a9.4,9.4,0,0,0-1-1.27C225.84,190.72,225.85,190.72,225.92,190.72Z"/><path class="cls-1" d="M.06,158v-18a.58.58,0,0,1,.19-.45.6.6,0,0,1,.44-.18H7.87a9.56,9.56,0,0,1,6.76,2.42A8.54,8.54,0,0,1,16.79,145a10.73,10.73,0,0,1,.73,4.07,10.87,10.87,0,0,1-.73,4.09,8.49,8.49,0,0,1-2.16,3.14,8.92,8.92,0,0,1-3,1.79,11.17,11.17,0,0,1-3.75.6H.69a.6.6,0,0,1-.44-.18A.58.58,0,0,1,.06,158Zm5.84-4.2h2a7,7,0,0,0,1.53-.19,3.48,3.48,0,0,0,1.42-.69,4,4,0,0,0,1-1.45,6.16,6.16,0,0,0,.4-2.43,6.25,6.25,0,0,0-.4-2.44,3.76,3.76,0,0,0-1.06-1.44,3.57,3.57,0,0,0-1.42-.7,6.62,6.62,0,0,0-1.51-.18h-2a.63.63,0,0,0-.45.18.61.61,0,0,0-.18.45v8.25a.61.61,0,0,0,.18.45A.64.64,0,0,0,5.9,153.83Z"/><path class="cls-1" d="M25.23,144.89V146a.63.63,0,0,0,.18.45.61.61,0,0,0,.45.18H33a.61.61,0,0,1,.45.18.64.64,0,0,1,.18.45v3.63a.62.62,0,0,1-.63.63H25.86a.58.58,0,0,0-.45.19.6.6,0,0,0-.18.44v1a.62.62,0,0,0,.63.63H34a.58.58,0,0,1,.45.19.61.61,0,0,1,.19.44V158a.62.62,0,0,1-.19.45.61.61,0,0,1-.45.18H20.65a.64.64,0,0,1-.45-.18A.61.61,0,0,1,20,158v-18a.61.61,0,0,1,.18-.45.64.64,0,0,1,.45-.18H34a.61.61,0,0,1,.45.18.62.62,0,0,1,.19.45v3.57a.65.65,0,0,1-.64.64H25.86a.62.62,0,0,0-.63.63Z"/><path class="cls-1" d="M42.82,144.89V146a.63.63,0,0,0,.18.45.61.61,0,0,0,.45.18h7.12a.61.61,0,0,1,.45.18.64.64,0,0,1,.18.45v3.63a.62.62,0,0,1-.63.63H43.45a.58.58,0,0,0-.45.19.6.6,0,0,0-.18.44v1a.62.62,0,0,0,.63.63h8.17a.58.58,0,0,1,.45.19.61.61,0,0,1,.19.44V158a.62.62,0,0,1-.19.45.61.61,0,0,1-.45.18H38.24a.64.64,0,0,1-.45-.18.61.61,0,0,1-.18-.45v-18a.61.61,0,0,1,.18-.45.64.64,0,0,1,.45-.18H51.62a.61.61,0,0,1,.45.18.62.62,0,0,1,.19.45v3.57a.65.65,0,0,1-.64.64H43.45a.62.62,0,0,0-.63.63Z"/><path class="cls-1" d="M63.33,153.48H61a.62.62,0,0,0-.45.19.6.6,0,0,0-.18.44V158a.62.62,0,0,1-.19.45.6.6,0,0,1-.44.18h-4a.63.63,0,0,1-.45-.18.61.61,0,0,1-.18-.45v-18a.61.61,0,0,1,.18-.45.64.64,0,0,1,.45-.18h8.05a7,7,0,0,1,2.77.55,7.08,7.08,0,0,1,2.26,1.52,7.56,7.56,0,0,1,1.53,2.27,6.88,6.88,0,0,1,.56,2.76,7.92,7.92,0,0,1-.47,2.74,5.89,5.89,0,0,1-1.44,2.21,6.87,6.87,0,0,1-2.4,1.48A9.71,9.71,0,0,1,63.33,153.48Zm.19-9.22H61a.61.61,0,0,0-.45.18.6.6,0,0,0-.18.44V148a.6.6,0,0,0,.18.44.61.61,0,0,0,.45.18h2.83a1.66,1.66,0,0,0,1.46-.64,2.42,2.42,0,0,0,.32-2.27,2.19,2.19,0,0,0-.43-.72,2.35,2.35,0,0,0-.72-.51A2.32,2.32,0,0,0,63.52,144.26Z"/><path class="cls-1" d="M96.93,154.46V158a.58.58,0,0,1-.19.45.6.6,0,0,1-.44.18H83.18a.59.59,0,0,1-.46-.18.6.6,0,0,1-.17-.45v-18a.6.6,0,0,1,.17-.45.59.59,0,0,1,.46-.18h3.94a.62.62,0,0,1,.63.63v13.14a.64.64,0,0,0,.17.45.63.63,0,0,0,.46.19H96.3a.6.6,0,0,1,.44.18A.58.58,0,0,1,96.93,154.46Z"/><path class="cls-1" d="M104.37,144.89V146a.62.62,0,0,0,.63.63h7.12a.61.61,0,0,1,.45.18.64.64,0,0,1,.18.45v3.63a.62.62,0,0,1-.63.63H105a.6.6,0,0,0-.45.19.6.6,0,0,0-.18.44v1a.61.61,0,0,0,.18.45.63.63,0,0,0,.45.18h8.17a.58.58,0,0,1,.45.19.61.61,0,0,1,.19.44V158a.62.62,0,0,1-.19.45.61.61,0,0,1-.45.18H99.79a.6.6,0,0,1-.44-.18.58.58,0,0,1-.19-.45v-18a.58.58,0,0,1,.19-.45.6.6,0,0,1,.44-.18h13.38a.61.61,0,0,1,.45.18.62.62,0,0,1,.19.45v3.57a.65.65,0,0,1-.64.64H105a.63.63,0,0,0-.45.18A.61.61,0,0,0,104.37,144.89Z"/><path class="cls-1" d="M123,140a1,1,0,0,1,.35-.41,1,1,0,0,1,.54-.17h3.68a1,1,0,0,1,.52.17,1,1,0,0,1,.35.41l7.68,17.88a.53.53,0,0,1,0,.5.58.58,0,0,1-.56.26H131a.91.91,0,0,1-.54-.17,1.14,1.14,0,0,1-.38-.41l-.71-1.57a1.24,1.24,0,0,0-.38-.41,1,1,0,0,0-.52-.17H123a1,1,0,0,0-.9.58l-.73,1.57a.94.94,0,0,1-.36.41.87.87,0,0,1-.51.17h-4.52a.72.72,0,0,1-.28,0,.56.56,0,0,1-.24-.16.52.52,0,0,1-.12-.26.78.78,0,0,1,.08-.37Zm1.55,11.44h2.34a.45.45,0,0,0,.38-.17.36.36,0,0,0,0-.41l-.63-1.54c-.25-.58-.47-1.13-.69-1.64-.07-.16-.15-.24-.23-.24s-.17.08-.24.24l-1.31,3.18a.42.42,0,0,0,0,.41A.42.42,0,0,0,124.56,151.46Z"/><path class="cls-1" d="M142.49,158.66h-3.94a.64.64,0,0,1-.45-.18.61.61,0,0,1-.18-.45v-18a.62.62,0,0,1,.63-.63h8.17a7.6,7.6,0,0,1,2.82.51,6.39,6.39,0,0,1,2.2,1.43,6.65,6.65,0,0,1,1.41,2.19,7.17,7.17,0,0,1,.52,2.78,7.26,7.26,0,0,1-.2,1.67,7.51,7.51,0,0,1-.56,1.57,6.86,6.86,0,0,1-.87,1.32,4.6,4.6,0,0,1-1.13,1,.73.73,0,0,0-.28.38.51.51,0,0,0,.09.44c.67.87,1.37,1.77,2.11,2.7s1.39,1.78,2,2.56a.48.48,0,0,1,.08.45.33.33,0,0,1-.34.25h-4.9a1.25,1.25,0,0,1-.56-.14,1.32,1.32,0,0,1-.46-.36c-.56-.73-1.11-1.48-1.66-2.23s-1.1-1.52-1.64-2.29a1.12,1.12,0,0,0-.44-.35,1.2,1.2,0,0,0-.55-.15h-.58a.65.65,0,0,0-.63.63V158a.61.61,0,0,1-.18.45A.63.63,0,0,1,142.49,158.66Zm1.26-10.36h2.77a2.28,2.28,0,0,0,.66-.11,2,2,0,0,0,.63-.37,2.12,2.12,0,0,0,.47-.62,1.93,1.93,0,0,0,.18-.87,2.64,2.64,0,0,0-.09-.62,2.43,2.43,0,0,0-.31-.68,1.81,1.81,0,0,0-.61-.55,1.78,1.78,0,0,0-.93-.22h-2.77a.6.6,0,0,0-.44.18.58.58,0,0,0-.19.45v2.78a.58.58,0,0,0,.19.45A.6.6,0,0,0,143.75,148.3Z"/><path class="cls-1" d="M174.47,140.05v18a.62.62,0,0,1-.19.45.6.6,0,0,1-.44.18H170a1.2,1.2,0,0,1-.55-.15,1.54,1.54,0,0,1-.45-.37l-6.84-9.65c-.11-.14-.22-.2-.33-.17s-.17.13-.17.3V158a.58.58,0,0,1-.19.45.61.61,0,0,1-.45.18H157a.61.61,0,0,1-.45-.18.58.58,0,0,1-.19-.45v-18a.58.58,0,0,1,.19-.45.6.6,0,0,1,.44-.18H161a1.35,1.35,0,0,1,.55.14,1.38,1.38,0,0,1,.45.36l6.83,9.65q.16.21.33.18c.12,0,.17-.11.17-.29v-9.41a.58.58,0,0,1,.19-.45.6.6,0,0,1,.44-.18h3.89a.61.61,0,0,1,.45.18A.62.62,0,0,1,174.47,140.05Z"/><path class="cls-1" d="M182.54,158.66h-3.95a.62.62,0,0,1-.46-.18A.64.64,0,0,1,178,158v-18a.64.64,0,0,1,.17-.44.59.59,0,0,1,.46-.19h3.95a.6.6,0,0,1,.45.19.6.6,0,0,1,.18.44v18a.61.61,0,0,1-.18.45A.63.63,0,0,1,182.54,158.66Z"/><path class="cls-1" d="M204.41,140.05v18a.62.62,0,0,1-.63.63H199.9a1.2,1.2,0,0,1-.55-.15,1.54,1.54,0,0,1-.45-.37l-6.85-9.65c-.1-.14-.21-.2-.32-.17s-.17.13-.17.3V158a.62.62,0,0,1-.19.45.61.61,0,0,1-.45.18H187a.64.64,0,0,1-.45-.18.61.61,0,0,1-.18-.45v-18a.61.61,0,0,1,.18-.45.64.64,0,0,1,.45-.18h4a1.35,1.35,0,0,1,.55.14,1.38,1.38,0,0,1,.45.36l6.83,9.65q.17.21.33.18c.11,0,.17-.11.17-.29v-9.41a.61.61,0,0,1,.18-.45.64.64,0,0,1,.45-.18h3.89a.62.62,0,0,1,.63.63Z"/><path class="cls-1" d="M217.32,159a10,10,0,0,1-3.95-.79,10.63,10.63,0,0,1-3.22-2.13,10,10,0,0,1-2.18-3.16,9.74,9.74,0,0,1,0-7.73,10.13,10.13,0,0,1,2.18-3.17,10.48,10.48,0,0,1,3.22-2.14,10,10,0,0,1,3.95-.79,10.25,10.25,0,0,1,5,1.19,9.57,9.57,0,0,1,3.49,3.26.65.65,0,0,1,.06.48.59.59,0,0,1-.28.41l-3.15,2a.7.7,0,0,1-.47.1.73.73,0,0,1-.45-.25,6.76,6.76,0,0,0-1.83-1.61,4.6,4.6,0,0,0-2.4-.6,4.41,4.41,0,0,0-1.88.4,5.31,5.31,0,0,0-1.54,1.09,5.08,5.08,0,0,0-1,1.6,4.87,4.87,0,0,0,0,3.77,4.79,4.79,0,0,0,1,1.56,5.09,5.09,0,0,0,1.54,1.08,4.41,4.41,0,0,0,1.88.41,5.46,5.46,0,0,0,2-.37,3.25,3.25,0,0,0,1.55-1.21.34.34,0,0,0,0-.38.41.41,0,0,0-.37-.17h-3a.6.6,0,0,1-.44-.18.6.6,0,0,1-.19-.45v-3.13a.6.6,0,0,1,.19-.45.6.6,0,0,1,.44-.18h9.05a.71.71,0,0,1,.46.17.67.67,0,0,1,.22.46,8.38,8.38,0,0,1,.06,1.09,12.31,12.31,0,0,1-.08,1.33,9,9,0,0,1-1,3.36,9.28,9.28,0,0,1-2.17,2.69,10.29,10.29,0,0,1-6.66,2.42Z"/><path class="cls-1" d="M9.39,173.62A3.69,3.69,0,0,1,10,174a2.81,2.81,0,0,1,.52.56,2.91,2.91,0,0,1,.38.77,3.13,3.13,0,0,1,.15,1,4.36,4.36,0,0,1-.36,1.89,3.09,3.09,0,0,1-1,1.19,3.77,3.77,0,0,1-1.41.63,7.56,7.56,0,0,1-1.67.19H1a.38.38,0,0,1-.3-.13.41.41,0,0,1-.12-.3v-12a.41.41,0,0,1,.12-.3.38.38,0,0,1,.3-.13H6.32a7.18,7.18,0,0,1,1.62.19,3.77,3.77,0,0,1,1.35.6,3.18,3.18,0,0,1,1,1.1,3.48,3.48,0,0,1,.36,1.66,2.36,2.36,0,0,1-.39,1.36,3.76,3.76,0,0,1-.85.91C9.14,173.37,9.16,173.5,9.39,173.62ZM4.5,172.27H6.13a.68.68,0,0,0,.56-.27,1,1,0,0,0,.21-.61.69.69,0,0,0-.25-.54.76.76,0,0,0-.49-.23H4.5a.41.41,0,0,0-.42.42v.8a.41.41,0,0,0,.12.3A.38.38,0,0,0,4.5,172.27Zm1.84,2.89H4.5a.41.41,0,0,0-.3.12.42.42,0,0,0-.12.3v1a.41.41,0,0,0,.42.42h2a.9.9,0,0,0,.6-.26.82.82,0,0,0,.28-.62,1,1,0,0,0-.27-.64A.93.93,0,0,0,6.34,175.16Z"/><path class="cls-1" d="M12.51,167.83a.44.44,0,0,1,.12-.3.41.41,0,0,1,.3-.12h2.63a.41.41,0,0,1,.3.12.44.44,0,0,1,.12.3v7.1a2.5,2.5,0,0,0,.22,1.13,2,2,0,0,0,.55.7,1.9,1.9,0,0,0,.69.36,2.1,2.1,0,0,0,1.34,0,2,2,0,0,0,.69-.36,1.93,1.93,0,0,0,.53-.7,2.5,2.5,0,0,0,.22-1.13v-7.1a.44.44,0,0,1,.12-.3.42.42,0,0,1,.3-.12h2.63a.41.41,0,0,1,.3.12.44.44,0,0,1,.12.3v7.1a6.27,6.27,0,0,1-.39,2.26,4.81,4.81,0,0,1-1.13,1.74A5,5,0,0,1,20.4,180a6.76,6.76,0,0,1-4.58,0,5,5,0,0,1-1.77-1.11,5,5,0,0,1-1.14-1.74,6.06,6.06,0,0,1-.4-2.26Z"/><path class="cls-1" d="M27.22,175.82a9.55,9.55,0,0,0,1.87,1,5,5,0,0,0,1.74.35,2.46,2.46,0,0,0,1.17-.22.71.71,0,0,0,.41-.66.43.43,0,0,0-.18-.36,1.51,1.51,0,0,0-.46-.21,5,5,0,0,0-.68-.15c-.26,0-.52-.08-.79-.13l-.9-.17a8.76,8.76,0,0,1-1.06-.28,7.21,7.21,0,0,1-1.08-.47,3.68,3.68,0,0,1-1-.71,3.43,3.43,0,0,1-.67-1.05,3.66,3.66,0,0,1-.25-1.43,3.82,3.82,0,0,1,.47-2,3.88,3.88,0,0,1,1.2-1.25,4.92,4.92,0,0,1,1.62-.65,8.87,8.87,0,0,1,1.74-.18,7.54,7.54,0,0,1,2.64.43,8.27,8.27,0,0,1,2.23,1.25.45.45,0,0,1,.16.3.42.42,0,0,1-.09.31l-1.37,2a.45.45,0,0,1-.28.18.38.38,0,0,1-.31-.07,7,7,0,0,0-1.67-.8,4.8,4.8,0,0,0-1.42-.24h-.44a2.41,2.41,0,0,0-.49.07.88.88,0,0,0-.37.2.51.51,0,0,0-.15.39c0,.16.12.31.36.44a5.2,5.2,0,0,0,.85.33,8.55,8.55,0,0,0,.91.22l.56.1a14,14,0,0,1,1.38.35,5.16,5.16,0,0,1,1.41.7,4.16,4.16,0,0,1,1.11,1.21,3.57,3.57,0,0,1,.45,1.87,4.25,4.25,0,0,1-.37,1.82,3.48,3.48,0,0,1-1,1.25,4.46,4.46,0,0,1-1.57.73,8.69,8.69,0,0,1-2,.23,9.19,9.19,0,0,1-1.7-.15,8.35,8.35,0,0,1-1.47-.41,7.13,7.13,0,0,1-1.27-.62,9.85,9.85,0,0,1-1.08-.76.41.41,0,0,1-.16-.29.49.49,0,0,1,.09-.33L26.62,176a.49.49,0,0,1,.28-.18A.5.5,0,0,1,27.22,175.82Z"/><path class="cls-1" d="M40.81,180.23H38.17a.35.35,0,0,1-.3-.13.41.41,0,0,1-.12-.3v-12a.44.44,0,0,1,.12-.3.38.38,0,0,1,.3-.12h2.64a.4.4,0,0,1,.29.12.44.44,0,0,1,.12.3v12a.41.41,0,0,1-.12.3A.37.37,0,0,1,40.81,180.23Z"/><path class="cls-1" d="M55.71,167.82v12a.41.41,0,0,1-.12.3.38.38,0,0,1-.3.13H52.7a.82.82,0,0,1-.37-.11,1,1,0,0,1-.29-.24l-4.57-6.44c-.07-.09-.14-.13-.22-.11s-.11.08-.11.2v6.27a.43.43,0,0,1-.42.43H44.09a.38.38,0,0,1-.3-.13.41.41,0,0,1-.12-.3v-12a.41.41,0,0,1,.12-.3.38.38,0,0,1,.3-.13h2.63a.93.93,0,0,1,.37.1.76.76,0,0,1,.29.24l4.56,6.43a.24.24,0,0,0,.22.12c.08,0,.11-.07.11-.19v-6.27a.44.44,0,0,1,.43-.43h2.59a.38.38,0,0,1,.3.13A.41.41,0,0,1,55.71,167.82Z"/><path class="cls-1" d="M61.74,171v.74a.41.41,0,0,0,.42.42h4.75a.41.41,0,0,1,.42.42V175a.4.4,0,0,1-.12.29.38.38,0,0,1-.3.13H62.16a.44.44,0,0,0-.3.12.41.41,0,0,0-.12.3v.66a.41.41,0,0,0,.12.3.44.44,0,0,0,.3.12h5.45a.42.42,0,0,1,.3.13.41.41,0,0,1,.12.3v2.41a.41.41,0,0,1-.12.3.38.38,0,0,1-.3.13H58.69a.43.43,0,0,1-.42-.43v-12a.43.43,0,0,1,.42-.43h8.92a.38.38,0,0,1,.3.13.41.41,0,0,1,.12.3v2.38a.41.41,0,0,1-.42.42H62.16a.44.44,0,0,0-.3.12A.41.41,0,0,0,61.74,171Z"/><path class="cls-1" d="M71.64,175.82a9.62,9.62,0,0,0,1.88,1,5,5,0,0,0,1.73.35,2.48,2.48,0,0,0,1.18-.22.7.7,0,0,0,.4-.66.45.45,0,0,0-.17-.36,1.58,1.58,0,0,0-.47-.21,4.81,4.81,0,0,0-.67-.15c-.26,0-.52-.08-.79-.13l-.91-.17a9.85,9.85,0,0,1-1.06-.28,6.7,6.7,0,0,1-1.07-.47,3.52,3.52,0,0,1-1-.71,3.43,3.43,0,0,1-.67-1.05,3.65,3.65,0,0,1-.26-1.43,3.92,3.92,0,0,1,.47-2,3.81,3.81,0,0,1,1.21-1.25,4.83,4.83,0,0,1,1.62-.65,8.69,8.69,0,0,1,1.73-.18,7.54,7.54,0,0,1,2.64.43,8.32,8.32,0,0,1,2.24,1.25.44.44,0,0,1,.15.3.42.42,0,0,1-.08.31l-1.37,2a.45.45,0,0,1-.28.18.41.41,0,0,1-.32-.07,6.92,6.92,0,0,0-1.66-.8,4.85,4.85,0,0,0-1.42-.24h-.45a2.41,2.41,0,0,0-.48.07.92.92,0,0,0-.38.2.51.51,0,0,0-.15.39c0,.16.13.31.37.44a5.45,5.45,0,0,0,.84.33,9.18,9.18,0,0,0,.91.22l.56.1a13.47,13.47,0,0,1,1.39.35,5.46,5.46,0,0,1,1.41.7,4,4,0,0,1,1.1,1.21,3.57,3.57,0,0,1,.45,1.87,4.11,4.11,0,0,1-.37,1.82,3.36,3.36,0,0,1-1,1.25,4.51,4.51,0,0,1-1.58.73,8.54,8.54,0,0,1-2,.23,9,9,0,0,1-1.7-.15,7.89,7.89,0,0,1-1.47-.41,7.58,7.58,0,0,1-1.28-.62,8.84,8.84,0,0,1-1.07-.76.37.37,0,0,1-.16-.29.49.49,0,0,1,.09-.33L71.05,176a.49.49,0,0,1,.28-.18A.47.47,0,0,1,71.64,175.82Z"/><path class="cls-1" d="M83.12,175.82a9.62,9.62,0,0,0,1.88,1,5,5,0,0,0,1.74.35,2.46,2.46,0,0,0,1.17-.22.7.7,0,0,0,.4-.66.45.45,0,0,0-.17-.36,1.47,1.47,0,0,0-.47-.21,4.81,4.81,0,0,0-.67-.15c-.26,0-.52-.08-.79-.13l-.9-.17a8.76,8.76,0,0,1-1.06-.28,6.42,6.42,0,0,1-1.08-.47,3.52,3.52,0,0,1-1-.71,3.43,3.43,0,0,1-.67-1.05,3.65,3.65,0,0,1-.26-1.43,3.82,3.82,0,0,1,.48-2,3.69,3.69,0,0,1,1.2-1.25,4.83,4.83,0,0,1,1.62-.65,8.69,8.69,0,0,1,1.73-.18,7.46,7.46,0,0,1,2.64.43,8.32,8.32,0,0,1,2.24,1.25.49.49,0,0,1,.16.3.42.42,0,0,1-.09.31l-1.37,2a.45.45,0,0,1-.28.18.41.41,0,0,1-.32-.07,6.92,6.92,0,0,0-1.66-.8,4.85,4.85,0,0,0-1.42-.24h-.45a2.41,2.41,0,0,0-.48.07.92.92,0,0,0-.38.2.51.51,0,0,0-.15.39c0,.16.13.31.37.44A5.45,5.45,0,0,0,86,172a8.71,8.71,0,0,0,.92.22l.56.1a14,14,0,0,1,1.38.35,5.46,5.46,0,0,1,1.41.7,4.16,4.16,0,0,1,1.11,1.21,3.67,3.67,0,0,1,.44,1.87,4.11,4.11,0,0,1-.37,1.82,3.36,3.36,0,0,1-1,1.25,4.43,4.43,0,0,1-1.58.73,8.54,8.54,0,0,1-2,.23,9.11,9.11,0,0,1-1.7-.15,7.89,7.89,0,0,1-1.47-.41,7.13,7.13,0,0,1-1.27-.62,9,9,0,0,1-1.08-.76.41.41,0,0,1-.16-.29.49.49,0,0,1,.09-.33L82.53,176a.49.49,0,0,1,.28-.18A.46.46,0,0,1,83.12,175.82Z"/><path class="cls-1" d="M100.92,167.8a.62.62,0,0,1,.24-.27.6.6,0,0,1,.36-.12H104a.56.56,0,0,1,.34.12.62.62,0,0,1,.24.27l5.12,11.92a.39.39,0,0,1,0,.33.39.39,0,0,1-.38.18h-3a.6.6,0,0,1-.36-.12.83.83,0,0,1-.26-.27l-.47-1.05a.72.72,0,0,0-.25-.27.62.62,0,0,0-.35-.12h-3.7a.59.59,0,0,0-.35.12.57.57,0,0,0-.24.27l-.49,1.05a.68.68,0,0,1-.24.27.56.56,0,0,1-.34.12h-3a.74.74,0,0,1-.18,0,.36.36,0,0,1-.16-.11.32.32,0,0,1,0-.41Zm1,7.62h1.56a.3.3,0,0,0,.26-.11.24.24,0,0,0,0-.27l-.42-1c-.16-.39-.32-.75-.46-1.09,0-.11-.1-.16-.15-.16s-.11.05-.16.16l-.88,2.12a.26.26,0,0,0,0,.27A.3.3,0,0,0,102,175.42Z"/><path class="cls-1" d="M107.38,167.9a.41.41,0,0,1,0-.36.27.27,0,0,1,.27-.15h2.86a.54.54,0,0,1,.33.12.56.56,0,0,1,.21.27l2,5.84c0,.11.1.17.18.17s.15-.06.19-.17l1.93-5.82a.5.5,0,0,1,.2-.29.6.6,0,0,1,.36-.12h2.33a.57.57,0,0,1,.35.12.56.56,0,0,1,.21.29l1.93,5.85q0,.18.18.18c.09,0,.15-.06.2-.18l2-5.87a.54.54,0,0,1,.23-.27.55.55,0,0,1,.35-.12h2.84a.26.26,0,0,1,.26.15.41.41,0,0,1,0,.31l-4.24,12a.66.66,0,0,1-.23.29.59.59,0,0,1-.35.12h-2.26a.6.6,0,0,1-.36-.12.56.56,0,0,1-.21-.29L117.24,174q0-.18-.18-.18t-.18.18L115,179.82a.51.51,0,0,1-.21.29.57.57,0,0,1-.35.12h-2.26a.52.52,0,0,1-.35-.14.51.51,0,0,1-.2-.27Z"/><path class="cls-1" d="M129.79,167.8a.62.62,0,0,1,.24-.27.6.6,0,0,1,.36-.12h2.45a.56.56,0,0,1,.34.12.62.62,0,0,1,.24.27l5.12,11.92a.33.33,0,0,1,0,.33.38.38,0,0,1-.37.18h-3a.6.6,0,0,1-.36-.12.83.83,0,0,1-.26-.27l-.47-1.05a.72.72,0,0,0-.25-.27.59.59,0,0,0-.34-.12h-3.7a.6.6,0,0,0-.36.12.62.62,0,0,0-.24.27l-.49,1.05a.68.68,0,0,1-.24.27.56.56,0,0,1-.34.12h-3a.72.72,0,0,1-.19,0,.42.42,0,0,1-.16-.11.38.38,0,0,1-.07-.17.37.37,0,0,1,0-.24Zm1,7.62h1.56a.3.3,0,0,0,.25-.11.24.24,0,0,0,0-.27c-.11-.3-.26-.64-.42-1l-.45-1.09c0-.11-.1-.16-.16-.16s-.11.05-.16.16l-.88,2.12a.32.32,0,0,0,0,.27A.31.31,0,0,0,130.83,175.42Z"/><path class="cls-1" d="M143.15,180.23h-2.63a.39.39,0,0,1-.3-.13.41.41,0,0,1-.12-.3v-12a.41.41,0,0,1,.12-.3.38.38,0,0,1,.3-.13H146a5,5,0,0,1,1.88.35,4.06,4.06,0,0,1,1.46.95,4.5,4.5,0,0,1,.95,1.45,4.92,4.92,0,0,1,.34,1.86,4.7,4.7,0,0,1-.13,1.12,5.39,5.39,0,0,1-.38,1,4.55,4.55,0,0,1-.58.89,3.08,3.08,0,0,1-.75.65.53.53,0,0,0-.19.26.35.35,0,0,0,.07.29c.44.58.91,1.18,1.4,1.8s.93,1.19,1.31,1.7a.35.35,0,0,1,.06.31.23.23,0,0,1-.23.17h-3.26a.94.94,0,0,1-.38-.1.7.7,0,0,1-.31-.24c-.37-.49-.74-1-1.1-1.49s-.73-1-1.09-1.52a.73.73,0,0,0-.3-.24.89.89,0,0,0-.37-.1H144a.42.42,0,0,0-.3.13.4.4,0,0,0-.12.29v2.84a.41.41,0,0,1-.12.3A.39.39,0,0,1,143.15,180.23Zm.84-6.91h1.85a1.35,1.35,0,0,0,.43-.08,1.14,1.14,0,0,0,.42-.25,1.19,1.19,0,0,0,.32-.41,1.28,1.28,0,0,0,.12-.58,1.76,1.76,0,0,0-.06-.41,1.32,1.32,0,0,0-.21-.45,1.29,1.29,0,0,0-.4-.37,1.21,1.21,0,0,0-.62-.15H144a.41.41,0,0,0-.42.42v1.86a.42.42,0,0,0,.12.3A.41.41,0,0,0,144,173.32Z"/><path class="cls-1" d="M152.81,179.8v-12a.41.41,0,0,1,.12-.3.38.38,0,0,1,.3-.13H158a6.38,6.38,0,0,1,4.51,1.62,5.81,5.81,0,0,1,1.44,2.08,7.32,7.32,0,0,1,.49,2.72,7.45,7.45,0,0,1-.49,2.73,5.76,5.76,0,0,1-1.44,2.09,5.92,5.92,0,0,1-2,1.19,7.32,7.32,0,0,1-2.5.41h-4.78a.38.38,0,0,1-.3-.13A.41.41,0,0,1,152.81,179.8Zm3.89-2.8H158a4.57,4.57,0,0,0,1-.12,2.29,2.29,0,0,0,.95-.47,2.53,2.53,0,0,0,.69-1,4.15,4.15,0,0,0,.27-1.62,4.08,4.08,0,0,0-.27-1.62,2.51,2.51,0,0,0-.7-1,2.33,2.33,0,0,0-.95-.46,4.42,4.42,0,0,0-1-.12H156.7a.41.41,0,0,0-.3.12.4.4,0,0,0-.12.29v5.51a.41.41,0,0,0,.42.42Z"/><path class="cls-1" d="M167.41,175.82a9.62,9.62,0,0,0,1.88,1,4.94,4.94,0,0,0,1.73.35,2.5,2.5,0,0,0,1.18-.22.72.72,0,0,0,.4-.66.43.43,0,0,0-.18-.36,1.41,1.41,0,0,0-.46-.21,4.65,4.65,0,0,0-.68-.15c-.25,0-.52-.08-.78-.13l-.91-.17a9.27,9.27,0,0,1-1.06-.28,7.21,7.21,0,0,1-1.08-.47,3.63,3.63,0,0,1-.95-.71,3.46,3.46,0,0,1-.68-1.05,3.66,3.66,0,0,1-.25-1.43,3.59,3.59,0,0,1,1.67-3.25,5,5,0,0,1,1.62-.65,8.87,8.87,0,0,1,1.74-.18,7.54,7.54,0,0,1,2.64.43,8.27,8.27,0,0,1,2.23,1.25.41.41,0,0,1,.16.3.42.42,0,0,1-.09.31l-1.36,2a.47.47,0,0,1-.29.18.38.38,0,0,1-.31-.07,7,7,0,0,0-1.67-.8,4.74,4.74,0,0,0-1.41-.24h-.45a2.63,2.63,0,0,0-.49.07.88.88,0,0,0-.37.2.51.51,0,0,0-.15.39c0,.16.12.31.37.44a4.75,4.75,0,0,0,.84.33,8.55,8.55,0,0,0,.91.22l.56.1c.42.08.88.2,1.39.35a5.46,5.46,0,0,1,1.41.7,4.13,4.13,0,0,1,1.1,1.21,3.57,3.57,0,0,1,.45,1.87,4.11,4.11,0,0,1-.37,1.82,3.45,3.45,0,0,1-1,1.25,4.51,4.51,0,0,1-1.58.73,8.69,8.69,0,0,1-2,.23,9,9,0,0,1-1.69-.15,8.22,8.22,0,0,1-1.48-.41,7.48,7.48,0,0,1-1.27-.62,9.85,9.85,0,0,1-1.08-.76.4.4,0,0,1-.15-.29.43.43,0,0,1,.08-.33l1.35-1.94a.53.53,0,0,1,.28-.18A.49.49,0,0,1,167.41,175.82Z"/><path class="cls-2" d="M128.27,127.63l-5.37-16.44H105.13l-3.43,11.2A17.77,17.77,0,0,1,111.91,119C122,119,128.27,127.63,128.27,127.63Z"/><rect class="cls-3" x="104.4" y="107.94" width="20.03" height="1.9"/><path class="cls-3" d="M128.78,112.58a30.43,30.43,0,0,1,7.67,2.26l.92-1.52a25.88,25.88,0,0,0-13-2.83l-.19,1.72s2-.64,7.71,5.77l1.24-1.18A16.05,16.05,0,0,0,128.78,112.58Z"/><path class="cls-4" d="M99,65.71a9.09,9.09,0,0,1,.31-2.08c.76-1.82,3.47-2,5.61-2s4.94-.73,5-2.66a17.81,17.81,0,0,0-.29-1.9c-.07-2.14,2.7-3.33,4.28-5a6.54,6.54,0,0,0,1.24-6.85,12.64,12.64,0,0,0-4.82-5.56c-5.14-3.56-7.09,1.46-11.6,3.29a16.63,16.63,0,0,1-3.09.65,11,11,0,0,0-6.82,4.26c-2.29,3.2-3,6.38-5.57,8.37A9.46,9.46,0,0,1,79.07,58a2.17,2.17,0,0,0-1.13.44c-.37.36-.35.91-.48,1.39-.41,1.54-2.42,2.35-3.1,3.81A5,5,0,0,0,74.49,67a15.5,15.5,0,0,0,2.4,5.45A6.34,6.34,0,0,0,82.43,75c3.51-.39,5.61-4.08,9-4.94C94.54,69.32,98.33,69.73,99,65.71ZM134.2,33.23A30.35,30.35,0,0,1,136,28.6c.63-1.59.82-3.48-.31-4.77a18,18,0,0,0-2.4-1.78c-1.51-1.21-2.15-3-3.11-4.63s-2.6-3.15-4.63-3c-1.11.08-2.15.65-3.25.7a8.59,8.59,0,0,1-2.69-.54c-3.07-.85-6.39-.65-9.63-.45-1.64.11-3.46.28-4.63,1.35-1,.93-1.31,2.33-2.29,3.28-1.88,1.82-5.77,1.65-6.73,4-.64,1.56.62,3.19,2.08,4.16s3.2,1.66,4.18,3A11.81,11.81,0,0,1,103.89,33a13.65,13.65,0,0,0,2,3.67c.12,0,.25-.05.38-.06a6.79,6.79,0,0,1,4.89,1.44l.68.49a10.59,10.59,0,0,1,.19-2.72,7.15,7.15,0,0,1,5.76-5.51,6.18,6.18,0,0,1,1-.05,10.05,10.05,0,0,1,3.34.82,6.5,6.5,0,0,0,2.64.63l.21,0h0c.23,0,.48-.09.73-.14l.92-.17a4.38,4.38,0,0,1,2,.13,4.63,4.63,0,0,1,2.16,1.75S133.44,36.82,134.2,33.23Zm-33.73-15a4.56,4.56,0,0,0,2.22-2.15,7.36,7.36,0,0,1,1.44-2A6.87,6.87,0,0,1,108,12.51c.57-.08,1.15-.12,1.68-.16a29.17,29.17,0,0,1,9.82.7c4,1.11,6.19-.47,6.19-.47,2.26-.15,4.4,1.16,5.87,3.61.27.45.51.92.75,1.37a9.1,9.1,0,0,0,2.08,2.94,8.21,8.21,0,0,0,.84.58,7.8,7.8,0,0,1,1.71,1.35c1.25,1.43,1.43,3.58.52,5.9-.26.65-.57,1.26-.86,1.86A12.34,12.34,0,0,0,139.18,29c1.36-.85,2.66-2,4.29-2.1a10.33,10.33,0,0,0,1.36-.07,3.68,3.68,0,0,0,1.57-.84c4-3.26,4.31-9.42.73-12.83a2.61,2.61,0,0,0-1.41-.81c-1.3-.19-2.8,1.07-3.83.35a1.63,1.63,0,0,1-.57-.85c-.43-1.14-.45-2.38-.79-3.54a3.59,3.59,0,0,0-2.43-2.64c-1.95-.45-4,1.26-5.95.76a9.14,9.14,0,0,1-1.94-1c-1.8-1-4.57-1.76-6.38-.69,0-1.89-2.2-2.46-3.37-2.33s-2.4.53-3.5.18c-1.41-.43-2.12-1.93-3.52-2.39-2.42-.8-4.74,1.87-7.33,2-1.63.06-3.19-.91-4.77-.54a5.51,5.51,0,0,0-2.67,2,11.76,11.76,0,0,1-4.31,2.56c-.79.07-1.67.49-2.3.07-.42-.27-.51-.81-.82-1.18-.79-1-2.56-.49-3.53.37s-1.67,2-2.89,2.55c-1.72.74-3.89-.07-5.56.75s-2,2.79-3,4.3c-1.63,2.69-5.52,4.55-5.35,7.57.13,2.35,2.76,3.88,3.64,6.08.81,2,0,4.35.47,6.47A7.33,7.33,0,0,0,79.73,38c.37-1.6,1.67-2.86,2.85-4,.49-.48,1-.93,1.34-1.38a16.62,16.62,0,0,0,1.62-2.53c1-1.74,2-3.54,4-4.64a7.77,7.77,0,0,1,2.71-.87,13.5,13.5,0,0,1,2.77,0A3.45,3.45,0,0,1,95,21.71c.76-1.83,2.66-2.49,4.34-3.07C99.7,18.5,100.1,18.36,100.47,18.21ZM84,53c.26-.41.66-1.13,1.21-2.18A30.67,30.67,0,0,1,87.39,47a12.31,12.31,0,0,1,7.69-4.8l1-.16a8,8,0,0,0,1.85-.42,14.42,14.42,0,0,0,3.39-2.15,15.24,15.24,0,0,1,3-1.94,14.46,14.46,0,0,1-2-3.71c-.1-.29-.19-.59-.28-.87a7,7,0,0,0-.84-2,8,8,0,0,0-2.52-1.91c-.45-.26-.91-.53-1.35-.82a7.34,7.34,0,0,1-1.59-1.42,9.28,9.28,0,0,0-5.64.64c-2.67,1.46-3.37,4.62-5.26,6.86-1.57,1.86-4.18,3.48-4,5.78-4.24-.57-6.91-3.23-7.53-6.11a12.81,12.81,0,0,1-.14-3.14,8,8,0,0,0-.27-3.17,8.53,8.53,0,0,0-1.54-2.21,7.33,7.33,0,0,1-2.17-4.2,4.55,4.55,0,0,1,.15-1.44c-.3.06-.63.14-1,.23-4,1-7.67,3.19-11.12,5.28a7.54,7.54,0,0,0-2.77,2.36c-1.15,2,0,4.39-.46,6.57-.71,3.12-4.73,5.3-4.66,8.47.06,3,3.72,4.82,4.52,7.69.58,2-.4,4.2-.43,6.32-.09,4.66,5.22,8.62,10.31,7.69a14.09,14.09,0,0,1,3-.48c2.46.1,4,2.28,5.83,3.72l.3.22-.33-1.09a6,6,0,0,1-.07-4.22,7.17,7.17,0,0,1,1.8-2.14A3.74,3.74,0,0,0,75.48,59c0-.08,0-.19.06-.31A2.71,2.71,0,0,1,76.29,57a3.46,3.46,0,0,1,1.85-.81,9.68,9.68,0,0,0,3.93-1.33A10.09,10.09,0,0,0,84,53Zm.15,23.3c20.06-1.12,19.12,6.81,23.83,9.84,3.54,2.27,11.65-1,12.6,3.13s1.5,8.19,3,7.38c2.7-1.49,6.83-11.59,7.73-17.13s6.46-13.17,6.46-13.17a5.09,5.09,0,0,1-2.33-.76,5,5,0,0,1-1.85-3c-.21-.66-.49-1.4-.8-2.19a28.12,28.12,0,0,1-1.41-4.36,9,9,0,0,1-.17-2.07l-.6.1h0a7.57,7.57,0,0,1-3-.16l-.54-.16a3.87,3.87,0,0,0-1.22-.24l-.08,0s-2.27,1.1-2.61,2.45c0,2.86,2.3,11.57-2,18.69-8.61,13.87-10,5-10,5,.64-5.35-8.83-.9-9.11-6.8a14.29,14.29,0,0,0-2-5.61c-.88,3.69-4.82,3.76-6.36,4a18.67,18.67,0,0,0-1.86.35,10.65,10.65,0,0,0-3.69,2.18A13.89,13.89,0,0,1,84.11,76.28Zm69.28-15.43s-.6,8.46,6.25,8.27A6.73,6.73,0,0,0,164.79,66c.75-1.58.25-4.7,1.3-6.15s3-.34,4.78-1.14c3.63-1.62,3.75-3.73,3.63-5.53-.18-2.73-4.06-4.57-3.51-7.27.21-1,1-1.95.65-2.89-.5-1.31-3.42-5.26-6.06-3.8.74-2.74,2.67-4.35,2.2-7.11a3.92,3.92,0,0,0-.88-2.24c-.79-.79-2.16-.94-3-1.73-1-1-.74-2.53-.68-3.9s-.47-3.05-2-3.2a8.48,8.48,0,0,0-1.13,0c-3.58.07-5.63-5.25-9-4.15h0a9.66,9.66,0,0,1,.39,3.36,10.12,10.12,0,0,1-3.64,7.21,5.07,5.07,0,0,1-2.2,1.13l-.22,0c-.34,0-.64,0-.9.05H144a6.82,6.82,0,0,0-2.6,1.3l-.87.57a13.89,13.89,0,0,1-4,1.71,8.23,8.23,0,0,0-.42,1.24,7.6,7.6,0,0,0-.16,1.11,5.86,5.86,0,0,1,.63-.12,6.11,6.11,0,0,1,2,.05,9.47,9.47,0,0,1,5.41,3.76l.06.08a3.34,3.34,0,0,0,.73.76,3.47,3.47,0,0,0,.79.26l.36.09c3.45,1,4.85,2.69,5.32,4.68a23.63,23.63,0,0,1-.21,6.29c-.09.49-.17,1-.24,1.5a7.48,7.48,0,0,0,.73,3.48c.49,1.34,2.1,3.76,2,5.31m3,9.73c-5.34-2.82-4.64-9.41-4.64-9.41,0-1.18-1.74-4.87-2.37-5.77s-.7-3.43-.7-3.43c.59-4.28,2.2-8.71-4-10.4a6.1,6.1,0,0,1-1.46-.48,4.06,4.06,0,0,1-1.15-1.15c-1.17-1.48-2.49-3.09-4.47-3.48-3.74-.76-4.8,2.2-4.87,2.72-.36,2.73,2.8,5,2.62,7.74-.13,2.4-2.3,4.11-2.59,6.49a7.1,7.1,0,0,0,.13,2.23,55.48,55.48,0,0,0,2,6.12A4.07,4.07,0,0,0,136.42,64a12.13,12.13,0,0,0,3.85,1.21C133.1,76.34,133,78.68,133,78.68,141.75,66.92,156.38,70.5,156.38,70.5ZM121.86,55.06a5.11,5.11,0,0,1,2.75-3.16c.88-.47,2.41,0,3.37.25a6.35,6.35,0,0,0,3.35-.07,10.69,10.69,0,0,1,1.45-2.86A6.3,6.3,0,0,0,134,46.4v0a6.2,6.2,0,0,0-1.17-3.16c-.79-1.35-2.08-2.13-1.84-3.9,0,0,.31-1.07.48-1.49.33-.84-1.41-2.22-2-2.72s-.28-1.35-1.33-1.61a11.19,11.19,0,0,0-3.39.21c-2.14.15-3.76-1.32-5.9-1.38a5,5,0,0,0-5,4.1,12.87,12.87,0,0,0-.07,4.17,9.49,9.49,0,0,1,2.69,4c.53,1.41,1.45,4.94-.4,7.16-1.73,1.83-4.4,4.19-4.4,4.19-.9,1.35,1.22,2.6-1.16,5.18s-7.9,1.45-9,2.11a3.49,3.49,0,0,0-1.18,2.4c1.67.71,2.87,3.47,3,6.55.17,3.41,5.8,1.88,7.69,3.1s.74,4.53,2.14,4.67c2.87.26,7.1-6.58,8.42-10.48C123.37,64.29,121.42,57.18,121.86,55.06Z"/><path class="cls-2" d="M104.4,106.5S85.13,85.81,81,78.21c20.33-1.14,22,5.82,23.25,7.45,3.09,4.1,8.33,3.86,11.25,3.37,2.46-.42,3.88.13,4,2.75,0,1.18,1,8.14,3.55,7.48,3.11-.82,8.78-12.05,9.7-16.91,0,0,6.29-11.58,17.82-9.2,0,0-17.58,23.58-27.45,33.35H105.34"/></svg>