<svg id="レイヤー_1" data-name="レイヤー 1" xmlns="http://www.w3.org/2000/svg" viewBox="0 0 302.54 451.75"><defs><style>.cls-1{fill:#d32f2f;}.cls-2{fill:#231815;}.cls-3{fill:#fff;}</style></defs><path class="cls-1" d="M269.7,404l-177.92-.07-4.43,8.5L83,403.92H32.84v47.83h213.1c13.76,0,23.76-9.94,23.76-23.87Z"/><path class="cls-2" d="M194.3,435.44l5.63-6.23c1.57-1.81,2.41-3.29,2.41-4.92s-.84-2.69-3.05-2.69a7.67,7.67,0,0,0-4.59,1.45l-.21-.09v-3.75a10,10,0,0,1,5.74-1.42c4.26,0,7,2.15,7,6,0,2.75-1.51,5-3.69,7.44l-3.47,3.69,3.29-.28h4.14v3.57H194.3Z"/><path class="cls-2" d="M210,428.1c0-6.59,3.63-10.31,8.77-10.31s8.7,3.72,8.73,10.31-3.57,10.48-8.73,10.48S210,434.68,210,428.1Zm12.39,0c0-4.42-1.21-6.62-3.62-6.62s-3.63,2.2-3.63,6.62,1.24,6.77,3.63,6.77S222.35,432.54,222.35,428.1Z"/><path class="cls-3" d="M38.13,409H62.05V416H47.54v8H60v6.84H47.54v8.93H62.26v7H38.13Z"/><path class="cls-3" d="M78,446.7H69.27v-.39L80.9,426.75,70.09,409.39V409H80.56l4.57,8.11,2.16,5.07,2.25-5.07L94.23,409h8.71v.39L92.24,427l11.85,19.34v.39H93.63L88.1,437l-2.25-5.4L83.53,437Z"/><path class="cls-3" d="M120.91,433.8v12.9h-9.42V409h13.56c9.19,0,15,4,15,12.57,0,8.32-5.79,12.23-14.54,12.23Zm0-17.85v11.24h4.14c4.28,0,6-1.87,6-5.74s-2-5.5-6.19-5.5Z"/><path class="cls-3" d="M145.71,427.74c0-11.18,7.88-19.51,19.78-19.51s19.8,8.33,19.8,19.51-7.83,19.73-19.8,19.73S145.71,438.88,145.71,427.74Zm29.82,0c0-7.55-3.86-12.29-10-12.29s-10,4.74-10,12.29,3.78,12.45,10,12.45S175.53,435.24,175.53,427.74Z"/><path class="cls-2" d="M228.31,435.44l5.62-6.23c1.57-1.81,2.42-3.29,2.42-4.92s-.85-2.69-3.06-2.69a7.67,7.67,0,0,0-4.59,1.45l-.21-.09v-3.75a10,10,0,0,1,5.74-1.42c4.26,0,7,2.15,7,6,0,2.75-1.51,5-3.69,7.44l-3.47,3.69,3.29-.28h4.14v3.57h-13.2Z"/><path class="cls-2" d="M244,428.1c0-6.59,3.63-10.31,8.77-10.31s8.7,3.72,8.73,10.31-3.56,10.48-8.73,10.48S244,434.68,244,428.1Zm12.39,0c0-4.42-1.21-6.62-3.62-6.62s-3.63,2.2-3.63,6.62,1.24,6.77,3.63,6.77S256.35,432.54,256.35,428.1Z"/><path class="cls-3" d="M7.61,384.1H1.54V356.82h7L17,369,20,374.17l-.24-6.54V356.82h6.06V384.1h-5.9l-9.73-14L7.29,365l.32,6.5Z"/><path class="cls-3" d="M32.69,356.82h6.94V384.1H32.69Z"/><path class="cls-3" d="M55.87,372.66l-2.48,3.07v8.37H46.45V356.82h6.94v11.33l9.22-11.33h6.94v.24l-8.74,10.65,9.26,16.11v.28H62.61Z"/><path class="cls-3" d="M83.91,372.66l-2.48,3.07v8.37H74.49V356.82h6.94v11.33l9.22-11.33h6.94v.24l-8.74,10.65,9.26,16.11v.28H90.65Z"/><path class="cls-3" d="M102.57,356.82h17.31v5H109.39v5.78h9v4.95h-9V379H120v5.06H102.57Z"/><path class="cls-3" d="M126.18,356.82h6.95V384.1h-6.95Z"/><path class="cls-1" d="M153.15,384.1h-5.87v-.32L154,373.33l-6.31-9.65v-.32h6.9l2.36,3.83,1.15,2.47,1.16-2.47,2.35-3.83h5.91v.28l-6.34,9.81,6.77,10.33v.32h-6.85l-2.68-4.34L157.1,377l-1.28,2.75Z"/><path class="cls-1" d="M185,362.24V384.1h-6.94V362.24h-7.23v-5.42h21.43v5.42Z"/><path class="cls-1" d="M206.51,374.29h-3.27v9.81h-6.82V356.82h10.33c7,0,10.65,3.11,10.65,8.54,0,3.67-1.71,6.14-4.67,7.34l6.35,11v.36h-7.14Zm-3.27-12.56v7.82h3c3.27,0,4.59-1.44,4.59-4s-1.44-3.79-4.71-3.79Z"/><path class="cls-1" d="M223.5,356.82h17.31v5H230.33v5.78h9v4.95h-9V379H241v5.06H223.5Z"/><path class="cls-1" d="M252.38,384.1h-6.06V356.82h7L261.8,369l2.94,5.18-.23-6.54V356.82h6.06V384.1h-5.9l-9.74-14L252.06,365l.32,6.5Z"/><path class="cls-1" d="M276.63,356.82H286c8.78,0,15.48,4,15.48,13.76S294.74,384.1,286,384.1h-9.33Zm6.86,5.15v17h2.08c5.26,0,8.85-2,8.85-8.38,0-6.22-3.59-8.61-8.85-8.61Z"/><path class="cls-1" d="M202.17,1,18.23,336H6.61L190.6,1h11.57m1.76-1H190L4.85,337h14L203.93,0Z"/><path class="cls-1" d="M225.65,1l-184,335H30L214,1h11.63m1.77-1h-14L28.26,337h14L227.42,0Z"/><path class="cls-1" d="M249.09,1l-184,335H53.44l184-335h11.61m1.76-1h-14L51.68,337h14L250.85,0Z"/><path class="cls-1" d="M272.51,1l-184,335H76.87L260.9,1h11.61m1.76-1h-14L75.11,337h14L274.27,0Z"/><path class="cls-1" d="M295.9,1l-184,335H100.3l184-335H295.9m1.76-1H283.73L98.53,337h14L297.66,0Z"/><path class="cls-1" d="M108.3,1,138.44,56,112.4,111l-15-27.29-.29-.54h-10L88,84.76l19.69,35.7-3,6.72-24-43.43-.3-.54h-10l.85,1.55L99.9,137l-3.55,7.57L63.93,83.76l-.3-.55h-9.9l.79,1.52,36.53,70.82-3,6.72L1.74,1H108.3m.61-1H0L88.08,164.62l4.13-9.1L55.45,84.25H63l33.4,62.66,4.66-9.94L72.14,84.25h7.61l25,45.25,4.12-9.09L88.88,84.25h7.57l16,29.08,27.14-57.41L108.91,0Z"/><path class="cls-1" d="M174.51,258.62,217.17,336H210.4l-39-70.95,3.13-6.43m0-2.26-4.25,8.71,39.58,72h9.15l-44.48-80.68Z"/><path class="cls-1" d="M167.07,274.45,201,336h-6.79L164,281.2l3-6.75m-.09-2.33-4.12,9.12L193.55,337h9.18L167,272.12Z"/><path class="cls-1" d="M182.34,242.22,233.87,336h-6.74l-47.86-87,3.07-6.76m-.09-2.32L178.1,249l48.41,88h9.12L182.25,239.9Z"/><path class="cls-1" d="M214.43,174.81,300.8,336H243.88L188.07,230.53l26.36-55.72m-.06-2.32-27.46,58.07L243.25,337h59.29L214.37,172.49Z"/></svg>