<svg id="レイヤー_1" data-name="レイヤー 1" xmlns="http://www.w3.org/2000/svg" viewBox="0 0 40.38 495.94"><defs><style>.cls-1{fill:#fff;}.cls-2{fill:#d32f2f;}.cls-3{fill:#231815;}</style></defs><polygon class="cls-1" points="31.32 121.03 0.74 121.03 0.74 110.34 31.32 110.34 31.32 100.2 39.59 100.2 39.59 131.16 31.32 131.16 31.32 121.03"/><path class="cls-1" d="M14.35,152.42v-4.36H.74V137.53H39.59v15.32c0,10.13-4.53,15.32-12.3,15.32-5.08,0-8.65-2.32-10.41-6.29l-15.6,8.58H.74v-10.9Zm17.77-4.36H21.61v3.84c0,4.47,1.94,6.19,5.41,6.19s5.1-1.88,5.1-6.35Z"/><polygon class="cls-1" points="39.59 176.27 39.59 201.62 31.92 201.62 31.92 186.81 24.43 186.81 24.43 199.47 16.82 199.47 16.82 186.81 8.39 186.81 8.39 201.9 0.74 201.9 0.74 176.27 39.59 176.27"/><polygon class="cls-1" points="0 238.32 22.09 219.02 0.42 219.02 0.42 209.94 39.59 209.94 39.59 216.27 17.75 235.34 39.2 235.34 39.2 244.43 0 244.43 0 238.32"/><path class="cls-1" d="M39.59,253v14c0,12.53-5.72,22.17-19.73,22.17S.52,279.46.52,266.93V253Zm-7.88,10.62H8.38v2.79c0,7.09,2.77,11.86,11.48,11.86,8.52,0,11.85-4.77,11.85-11.86Z"/><path class="cls-1" d="M9.43,19.59l-2.18.05V15.52H9.16V4.11H7.25V0c.61,0,1.41,0,2.18,0H30c.77,0,1.59,0,2.16,0V19.64c-.72,0-1.39-.05-2.16-.05ZM22.74,4.11V15.52h5.78V4.11ZM19.11,15.52V4.11H12.82V15.52Z"/><path class="cls-1" d="M8.49,33c-.43,0-.92,0-1.3,0V29.59a10.87,10.87,0,0,0,1.3.05H18.72c-.12-1.18-.19-2.25-.26-2.95,0-.34-.13-1-.21-1.36l3.32-.42c0,.38,0,1.12,0,1.76a4.92,4.92,0,0,0,0,.72c.6.52,1.27,1.07,2,1.62,1.48-1.27,2.92-2.66,4.13-3.93l2.74,1.79c-.25.26-.61.58-.95.89a20.61,20.61,0,0,0,4.54,2.52L32.34,33.2c-.1-.12-.34-.25-.44-.35a38.52,38.52,0,0,1-4.75-3c-.37.32-.75.63-1.12.92A29.23,29.23,0,0,0,31.48,34l-1.7,2.86a2.83,2.83,0,0,1-.48-.4,90.13,90.13,0,0,1-7.46-5.29c.08.93.17,1.85.26,2.63a19,19,0,0,0,2.17-.72l.66,2.54a38.49,38.49,0,0,1-6.23,1.85c-.27-.84-.6-1.93-.82-2.8.4-.05.86-.14,1.33-.23,0-.44-.1-.92-.13-1.44Zm8.79-6.82c-.15.92-.33,2-.47,2.77a5.69,5.69,0,0,1-.58-.09,30.19,30.19,0,0,1-7.65-1c.2-.49.72-1.85,1.06-2.77a25.5,25.5,0,0,0,7.64,1.07M11.07,50.3a20,20,0,0,0,.06,2H7.54c0-.55,0-1.22,0-2V38.05c0-.78,0-1.47,0-2h3.55l-.46-1.63a38.75,38.75,0,0,0,6.42-.78l.65,2.49a43.18,43.18,0,0,1-6.26,1.13,9.17,9.17,0,0,1-.31-1.1,18.88,18.88,0,0,0-.06,1.93v4.68h3.14V39.78c0-.7,0-1.24,0-1.76h3.34c0,.52,0,1.06,0,1.76v2.95h1.8c.25,0,.75,0,1,0,0,.83-.08,3.09-.14,3.89-.26,0-.63,0-.88,0h-1.8v3.12c0,.69,0,1.26,0,1.75H14.19c0-.49,0-1.06,0-1.75V46.52H11.07Zm13.28-8.52a13.17,13.17,0,0,1,4.83-2.92c0-.55,0-1.07,0-1.5h3.32c0,.47,0,1,0,1.58v9.43l.3.25a27.09,27.09,0,0,1-2.52,3,4.53,4.53,0,0,1-.23-.44,13.38,13.38,0,0,1-5.72-3.61,20.46,20.46,0,0,0-1.22,4.71c-1-.44-2.66-1.1-3.48-1.36a20.52,20.52,0,0,1,2.35-6.17,23.4,23.4,0,0,1-2.35-6.1c.85-.3,2.53-1.1,3.6-1.59a19,19,0,0,0,1.18,4.68m4.83,5.52V42.44A8.73,8.73,0,0,0,26,44.76a8.54,8.54,0,0,0,3.15,2.54"/><polygon class="cls-2" points="0.66 61.56 0.66 63.18 39.59 84.55 39.59 82.94 0.66 61.56"/><polygon class="cls-2" points="0.66 64.26 0.66 65.88 39.59 87.25 39.59 85.63 0.66 64.26"/><polygon class="cls-2" points="0.66 66.97 0.66 68.58 39.59 89.97 39.59 88.35 0.66 66.97"/><polygon class="cls-2" points="0.66 69.67 0.66 71.28 39.59 92.67 39.59 91.06 0.66 69.67"/><polygon class="cls-2" points="0.66 72.38 0.66 73.99 39.59 95.38 39.59 93.76 0.66 72.38"/><polygon class="cls-2" points="29.84 68.28 22.61 72.14 23.76 72.67 29.84 69.33 29.84 70.22 24.62 73.1 25.67 73.57 29.84 71.26 29.84 72.14 26.49 73.99 33.12 77.12 39.59 73.58 39.59 61 20.56 71.17 21.62 71.64 29.84 67.41 29.84 68.28"/><polygon class="cls-2" points="0.66 85.23 0.66 86.28 9.99 81.14 8.98 80.65 0.66 85.23"/><polygon class="cls-2" points="0.66 83.36 0.66 84.41 8.16 80.28 7.1 79.8 0.66 83.36"/><polygon class="cls-2" points="10.82 81.56 0.66 87.15 0.66 88.21 11.88 82.04 10.82 81.56"/><polygon class="cls-2" points="12.95 82.58 0.66 89.08 0.66 95.93 19.67 85.76 12.95 82.58"/><path class="cls-2" d="M40.33,495.94l.05-149-7.11-3.71,7.11-3.61v-42H.32V476c0,11.52,8.33,19.91,20,19.91Z"/><path class="cls-3" d="M14,432.78l5.22,4.71c1.51,1.31,2.75,2,4.12,2s2.26-.71,2.26-2.56a6.46,6.46,0,0,0-1.22-3.84l.08-.18h3.13a8.37,8.37,0,0,1,1.19,4.81c0,3.57-1.79,5.87-5,5.87-2.31,0-4.18-1.26-6.23-3.09l-3.09-2.91.23,2.76v3.47h-3V432.78Z"/><path class="cls-3" d="M20.13,445.89c5.52,0,8.63,3,8.63,7.34s-3.11,7.3-8.63,7.32-8.78-3-8.78-7.32S14.62,445.92,20.13,445.89Zm0,10.38q5.55,0,5.55-3c0-2-1.85-3-5.55-3s-5.67,1-5.67,3S16.41,456.27,20.13,456.27Z"/><path class="cls-1" d="M36.13,301.94V322H30.31V309.83h-6.7v10.44H17.89V309.83H10.41v12.33H4.54V301.94Z"/><path class="cls-1" d="M4.54,335.37V328h.34l16.38,9.75,14.54-9.06h.33v8.78l-6.79,3.82-4.25,1.81L29.34,345l6.79,3.93v7.3H35.8l-14.72-9-16.2,9.93H4.54v-8.77l8.17-4.63,4.53-1.89L12.71,340Z"/><path class="cls-1" d="M15.35,371.29H4.54v-7.88H36.13v11.35c0,7.7-3.32,12.55-10.53,12.55-7,0-10.25-4.85-10.25-12.18Zm15,0H20.9v3.47c0,3.59,1.56,5,4.8,5s4.61-1.67,4.61-5.19Z"/><path class="cls-1" d="M20.43,392.07c9.37,0,16.35,6.6,16.35,16.57s-7,16.59-16.35,16.59S3.9,418.66,3.9,408.64,11.1,392.07,20.43,392.07Zm0,25c6.33,0,10.29-3.23,10.29-8.41s-4-8.39-10.29-8.39S10,403.42,10,408.64,14.15,417.05,20.43,417.05Z"/><path class="cls-3" d="M14,462.27,19.21,467c1.52,1.32,2.76,2,4.13,2s2.25-.71,2.25-2.56a6.48,6.48,0,0,0-1.21-3.85l.08-.18h3.13a8.41,8.41,0,0,1,1.19,4.81c0,3.58-1.8,5.88-5,5.88-2.3,0-4.17-1.27-6.22-3.09l-3.1-2.91.24,2.76v3.47h-3V462.27Z"/><path class="cls-3" d="M20.15,475.39c5.52,0,8.63,3,8.63,7.34s-3.11,7.29-8.63,7.32-8.78-3-8.78-7.32S14.63,475.42,20.15,475.39Zm0,10.38c3.7,0,5.54-1,5.54-3s-1.84-3-5.54-3-5.67,1-5.67,3S16.43,485.77,20.15,485.77Z"/></svg>