<svg xmlns="http://www.w3.org/2000/svg" width="560.06" height="70"><defs><style>.cls-2{fill:#fff}</style></defs><g id="レイヤー_2" data-name="レイヤー 2"><g id="レイヤー_1-2" data-name="レイヤー 1"><rect x=".06" width="560" height="70" rx="5" fill="#00b4dc"/><path class="cls-2" d="M550.06 35l-5.4-6.56v13.12l5.4-6.56zm-420.38 2.45v3h-1.6v5.32h-4.74v-1h-5.89v2c0 1.63-.41 2.75-5.18 2.75-.64 0-1.28 0-1.7-.06a12 12 0 00-1.5-4 24.86 24.86 0 002.72.25c.93 0 .93-.32.93-1h-10v-3.2h10v-1.06h-12.19v-3h12.19v-1h-10v-2.84h10v-.9h-8.13v-6.49h8.13v-.9h-12.19V22h12.19v-1.8l5 .19a.44.44 0 01.48.42c0 .29-.19.35-.71.61V22h12.1v3.36h-12.1v.9h8v6.49h-8v.9h10.63v3.84zm-17-7.43v-1.24h-3.91V30zm4.73-1.24V30h3.88v-1.22zm5.89 8.67v-1h-5.89v1zm0 4.09v-1.09h-5.89v1.09zm26.44-17.02a23.8 23.8 0 002.75-4.52l4.8 1.21c.23.07.45.16.45.39s-.45.51-.93.45c-.83 1.31-1.15 1.85-1.6 2.46h7.33v4h-29.18v-4h7a15 15 0 00-1.82-2.72l4.31-1.95a21.09 21.09 0 012.6 4l-1.73.67zm-10.27 18.05v6.91H135v-19.9h12.74v16.76c0 2.63-1.38 3-5.6 3.14a9.28 9.28 0 00-1.63-4.55c.47 0 1.43.16 1.92.16s1-.06 1-1v-1.5zm3.91-8.13V33h-3.91v1.41zm0 4.77v-1.44h-3.91v1.44zm10.91-9.12c.28 0 .48.09.48.32s-.2.35-.48.54v12.74h-4.61V29.9zm6.75-.67c.29 0 .57.06.57.35s-.35.41-.76.64v15.26c0 1.18 0 2.21-1.38 3.1-1.15.77-2.53.74-5.18.71a12 12 0 00-1.06-4.8c.54.06 1.73.22 2.21.22.8 0 .8-.51.8-.89V29.19zm27.9.03l-3 17.66h-6.52l-5.8-25.21h5.72l3.59 18.72 3.13-18.72h5.76L195 40.62l3.58-18.72h5.73l-5.79 25.21H192zm39.94 13.15v4.51h-20.67V21.9h20.25v4.51H214v5.66h12.8v4.32H214v6.21zm4.45 4.51V21.9h13.56c4.93 0 7.94 2.68 7.94 6.46s-2.56 4.7-3.81 5.22a6.25 6.25 0 012.43 1.15 6.15 6.15 0 012.4 5.08c0 4.32-3.39 7.3-8.28 7.3zm5.76-14.72h6.52a3 3 0 003.08-3.2 2.74 2.74 0 00-3.08-2.91h-6.52zm0 10.34h6.49c2 0 4.1-.93 4.1-3.49 0-2.82-2.5-3.26-4.1-3.26h-6.49zm33.05-.29V35a18.24 18.24 0 01-2.59 1.76 15.91 15.91 0 00-3.17-3.55 22.42 22.42 0 004.07-2.78 22.89 22.89 0 00-2.63-2.05l3.07-3.14a21.37 21.37 0 012.88 2 9 9 0 001.92-2.66h-5.92v-3.8h11l1.44 1.53a25.78 25.78 0 01-3.07 5.44h6.56a20.86 20.86 0 01-3.77-6.3l4.07-1.54a18 18 0 001.38 2.66 16.61 16.61 0 001.95-2.43l3.36 2.11c.12.06.35.22.35.38 0 .39-.55.42-.87.42-1.05 1.34-1.91 2.33-2.3 2.72.35.41.61.67.86.93a40 40 0 002.92-3.46l3 2c.26.19.58.38.58.6 0 .42-.48.45-1 .48a24.66 24.66 0 01-2.75 2.88 21.71 21.71 0 004.51 3 15.91 15.91 0 00-2.91 3.8 35.51 35.51 0 01-2.94-2.11v8.54h-2.3a.47.47 0 01.35.45c0 .32-.32.51-.67.54a12.35 12.35 0 01-.68 1.76h7.84v3.87h-29.05v-3.86h8.16c-.13-.38-.61-1.63-.9-2.34l1.57-.41zm4.77-11.87c-.83.89-1.15 1.25-2.59 2.59h16.89a30.67 30.67 0 01-3.33-3v1.67h-11zm-.16 6.17v2h10.78v-2zm3 5.7c.29.7.51 1.25.89 2.43l-1.15.32h4.32a23.1 23.1 0 001-2.75zm32.01-10.59h-2.34v1.66h3.2v4.07h-3.2v4.35a19.5 19.5 0 001.12-3.81l3.65.73c.19 0 .48.1.48.42s-.48.45-.93.48c-.13.48-.19.64-.64 2a37.16 37.16 0 006.37-2.27v-5.27h-2.27a32.19 32.19 0 012.24 4.1 31.08 31.08 0 00-3.44 2.27 26.65 26.65 0 00-2.3-4.35l3.26-2h-3.65v-3.79h10.08v-1.28h-8.09v-3.42h8.09v-1.22h-9.63v-3.9H328v9.82h1.95v3.77h-3.81l3.55 1.73c.13.07.36.19.36.45s-.23.39-.84.48a28.66 28.66 0 01-2.59 3.81 24.13 24.13 0 004 3.23A15.45 15.45 0 00328 48a27.58 27.58 0 01-4.29-4.35v2.72c0 3.17-2.08 3.17-5.89 3.17a14.21 14.21 0 00-1.63-4.32c-.32.16-.41.19-.86.38 0 .61-.1 1.16-.64 1.16a.53.53 0 01-.39-.36l-1.15-4.6a15.91 15.91 0 01-.67 1.63 12.73 12.73 0 00-3-.74v1.47c2.34-.44 3-.6 3.62-.76a13.09 13.09 0 00-.42 4c-4.06.89-7.36 1.44-10.46 1.88-.07.48-.16.9-.61.9-.29 0-.35-.26-.38-.48l-.74-4.42c1.31-.06 3.55-.32 4.74-.44v-1.51a20.8 20.8 0 00-3.36 1.16 30 30 0 00-1.64-4.9l3.62-1.15a38.19 38.19 0 011.38 3.9v-4.76H301v-4.07h4.2v-1.66h-2.5v-1.22a11.64 11.64 0 00-3.36-3.17 14.61 14.61 0 006.14-7.13l4.55.89c.35.07.48.16.48.36 0 .35-.35.54-.74.57a24.15 24.15 0 004.64 4.45 13.29 13.29 0 00-2.62 2.08zm-1.89-3.75a15.23 15.23 0 01-2.4-2.88c-.74 1-1.25 1.67-2.27 2.88zm9.6 15.43c-.8.44-2 1.08-2.94 1.5.28 0 1.82.19 2 .19.93 0 .93-.64.93-1zm4.19-6.63c.06.1.16.29.22.42a17.12 17.12 0 001.7-3.11h-1.92zm18.05-14.2c.26.09.42.22.42.44 0 .39-.61.45-.9.48a44.22 44.22 0 00-1.92 12.32 23.71 23.71 0 00.22 3.2c.42-.61 1.09-1.63 1.51-2.27a13.27 13.27 0 002.3 3.17 14.14 14.14 0 00-2.65 7.84l-4.29.8a45.08 45.08 0 01-1.73-12.9 57.54 57.54 0 011.92-14.65zm15.2-.71c.16 0 .41.07.41.35s-.44.48-.73.52a32.73 32.73 0 00-.32 3.84 28.36 28.36 0 004.73-1.19v4.83c-.73.19-2.2.55-4.86 1a52.24 52.24 0 00.51 7.36 17.76 17.76 0 016.08 3.3c-.51.93-1.47 3-2.17 4.51a11.43 11.43 0 00-3.43-2.43c-.12 4.1-4.22 4.58-6.24 4.58-4.8 0-7.2-2.63-7.2-5.6 0-3.81 3.78-5.25 7.94-5.15-.26-3.65-.29-4.07-.35-5.92-1.83.16-3.14.16-3.68.16a21.77 21.77 0 01-2.37-.1v-5a33.65 33.65 0 006 .22v-6.24zm-6.62 19.84c-.71 0-2.24.22-2.24 1.22 0 .83 1.05 1.18 2.08 1.18.25 0 2.17 0 2.17-1.57a.89.89 0 00-.06-.41 4.55 4.55 0 00-1.95-.42zm26.49-4.77c-1.73 1.54-2.88 3.3-2.88 4a1.25 1.25 0 00.64 1c1.19.64 4.87.7 6.37.7a42.2 42.2 0 0012.35-1.6 36.52 36.52 0 00.93 5.31c-4.39 1.09-11.07 1.28-13.57 1.28-7.33 0-12-1.34-12-6.2 0-2.76 2.24-5.19 4.77-7.33zm15.3-11.16A30.7 30.7 0 00382 32.23c-.07-.06-.35-.38-2.85-3.2a12.68 12.68 0 002.27-1.92c-.8.07-2.78.19-5.69.19a38.28 38.28 0 01-4.32-.19l-.26-5.28a55.92 55.92 0 009.66.71 42 42 0 008.67-.71zm22.75-4.71c.26.07.61.19.61.51s-.16.42-.71.45c-.7 2.18-.76 2.4-.93 2.88a47.92 47.92 0 0010.44-2.53c.16 1.06.57 3.49.89 4.77A55.06 55.06 0 01412.05 30c-.77 2.11-1 2.75-1.67 4.32a18.93 18.93 0 018.32-2.17c8.54 0 9 6 9 7.61a7.88 7.88 0 01-3.42 6.46c-1.7 1.16-4.9 3.08-13.76 3.08-1.34 0-2.27-.1-3-.16a22 22 0 00-1.18-4.77c.93.09 2.82.29 4.77.29.73 0 6.21 0 9.5-2a3.24 3.24 0 001.73-3c0-1.86-1-3.43-3.91-3.43s-7.32 1.44-11.07 5.35l-4.6-2.31a44.62 44.62 0 004.25-9c-2.78 0-5-.09-6.21-.19l-.06-5.25a29.43 29.43 0 007.74.71 42.75 42.75 0 001.22-5.67zm29.6 6.27c.22.07.48.13.48.42s-.38.42-.74.45a21.9 21.9 0 00-2.11 5.53 17.73 17.73 0 019.34-3 7.76 7.76 0 018.2 7.87c0 6.11-5.76 10.3-16.35 10.3-.93 0-1.73 0-2.34-.06a18.13 18.13 0 00-1.5-5.38 17.76 17.76 0 004.73.48c7.26 0 10.14-2.72 10.14-5.4 0-.93-.44-3.27-3.74-3.27-4.57 0-7.9 2.94-10.21 5.25L435.76 39a76.36 76.36 0 013.36-13.24zM442.67 20a31.79 31.79 0 0110.75 3.55 40 40 0 00-2.88 4.67 28.57 28.57 0 00-9.54-3.96z"/><path fill="#282828" opacity=".8" d="M0 0h560.06v70H0z"/><path class="cls-2" d="M97.64 38.06v2.35h-1.25v4.15h-3.7v-.8h-4.6v1.6c0 1.28-.32 2.15-4 2.15h-1.32a9.39 9.39 0 00-1.18-3.12 19.87 19.87 0 002.13.2c.72 0 .72-.25.72-.78H76.6v-2.5h7.79v-.85h-9.52v-2.4h9.52v-.8H76.6v-2.2h7.79v-.69h-6.34v-5.08h6.34v-.7h-9.52V26h9.52v-1.41l3.88.15a.34.34 0 01.37.33c0 .22-.15.27-.55.47V26h9.45v2.62h-9.45v.7h6.25v5.08h-6.25v.69h8.3v3zm-13.25-5.79v-1h-3v1zm3.7-1v1h3v-1zm4.6 6.77v-.8h-4.6v.8zm0 3.2v-.85h-4.6v.85zM113.32 28a19.52 19.52 0 002.15-3.53l3.75.95c.17.05.35.13.35.3s-.35.4-.73.35c-.65 1-.9 1.45-1.25 1.93h5.73v3.12h-22.8V28H106a11 11 0 00-1.43-2.13l3.43-1.55a16.47 16.47 0 012 3.12l-1.35.53zm-8 14.09v5.4h-3.5V31.92h9.94V45c0 2.05-1.07 2.35-4.37 2.45a7.17 7.17 0 00-1.28-3.55c.38 0 1.13.13 1.5.13s.75 0 .75-.8v-1.17zm3-6.35v-1.12h-3v1.09zm0 3.73v-1.16h-3v1.13zm8.53-7.12c.22 0 .37.07.37.25s-.15.27-.37.42v9.95h-3.6v-10.8zm5.27-.53c.23 0 .45.05.45.28s-.27.32-.6.5v11.89a2.38 2.38 0 01-1.07 2.42c-.9.6-2 .58-4 .55a9.3 9.3 0 00-.83-3.75c.43 0 1.35.18 1.73.18.62 0 .62-.4.62-.7V31.62zm21.82 0l-2.35 13.79h-5.09L132 25.92h4.48l2.79 14.62 2.45-14.62h4.5l2.45 14.62 2.8-14.62h4.48l-4.53 19.69h-5.1zm31.2 10.27v3.52H159V25.92h15.82v3.52H163.5v4.43h10v3.37h-10v4.85zm3.48 3.52V25.92h10.6c3.85 0 6.2 2.1 6.2 5a4.06 4.06 0 01-3 4.07 4.87 4.87 0 011.9.9 4.8 4.8 0 011.88 4c0 3.38-2.65 5.7-6.48 5.7zm4.5-11.49h5.1a2.3 2.3 0 002.4-2.5 2.15 2.15 0 00-2.4-2.28h-5.1zm0 8.07h5.07c1.6 0 3.2-.73 3.2-2.73 0-2.2-1.95-2.55-3.2-2.55h-5.07zm25.82-.19v-5.86a13.58 13.58 0 01-2 1.37 12.23 12.23 0 00-2.47-2.77 17.61 17.61 0 003.17-2.17 16.66 16.66 0 00-2.05-1.6l2.4-2.45a17.07 17.07 0 012.25 1.57 7.33 7.33 0 001.5-2.07h-4.63V25h8.63l1.12 1.2a19.45 19.45 0 01-2.4 4.25h5.13a16.15 16.15 0 01-2.95-4.92l3.17-1.2a15 15 0 001.08 2.07 12.65 12.65 0 001.52-1.9l2.59 1.69c.1 0 .27.18.27.3 0 .3-.42.33-.67.33-.83 1.05-1.5 1.82-1.8 2.12a8.91 8.91 0 00.67.73 34.06 34.06 0 002.28-2.7l2.32 1.57c.2.15.45.3.45.48s-.37.35-.75.37a19 19 0 01-2.15 2.25 17 17 0 003.55 2.36 11.9 11.9 0 00-2.3 3 28.13 28.13 0 01-2.3-1.65V42h-1.8c.17.08.27.18.27.35s-.25.4-.52.43a9.56 9.56 0 01-.53 1.37h6.13v3h-22.7v-3h6.37c-.1-.3-.47-1.27-.7-1.82l1.23-.33zm3.73-9.27c-.65.7-.9 1-2 2h13.2a23.09 23.09 0 01-2.6-2.34v1.29h-8.57zm-.13 4.82v1.6H221v-1.6zm2.35 4.45c.23.55.4 1 .7 1.9l-.9.25h3.38a19.5 19.5 0 00.75-2.15zm25-8.31h-1.82V35h2.5v3.17h-2.5v3.4a14.91 14.91 0 00.87-3l2.85.57c.15 0 .38.08.38.33s-.38.35-.73.37c-.1.38-.15.5-.5 1.55a29.51 29.51 0 005-1.77v-4.1h-1.78a23.64 23.64 0 011.75 3.2 24.25 24.25 0 00-2.7 1.77 20.85 20.85 0 00-1.8-3.4l2.55-1.57h-2.85v-2.93H249v-1h-6.33v-2.67H249V28h-7.53v-3h11.1v7.67h1.53v2.95h-3l2.78 1.35a.41.41 0 01.27.35c0 .25-.17.3-.65.37a22.35 22.35 0 01-2 3 18.52 18.52 0 003.12 2.52 12.2 12.2 0 00-2.05 3.18 21.55 21.55 0 01-3.35-3.4V45c0 2.48-1.62 2.48-4.6 2.48a11.69 11.69 0 00-1.27-3.38c-.25.13-.33.15-.68.3 0 .48-.07.9-.5.9a.4.4 0 01-.3-.27l-.9-3.6a11.66 11.66 0 01-.52 1.27 9.77 9.77 0 00-2.35-.57v1.15c1.82-.35 2.35-.48 2.82-.6a10.13 10.13 0 00-.32 3.12c-3.18.7-5.75 1.13-8.17 1.48-.05.37-.13.7-.48.7s-.27-.2-.3-.38l-.57-3.45c1 0 2.77-.25 3.7-.35v-1.14a16.36 16.36 0 00-2.63.9 23.77 23.77 0 00-1.27-3.82l2.82-.9a31 31 0 011.08 3v-3.68h-3.28V35h3.28v-1.3h-1.98v-.95a8.93 8.93 0 00-2.63-2.47 11.5 11.5 0 004.8-5.58l3.55.7c.27.05.37.13.37.28s-.27.42-.57.45a18.77 18.77 0 003.62 3.47 10.25 10.25 0 00-2.05 1.63zm-1.47-2.92a12.33 12.33 0 01-1.88-2.25c-.57.77-1 1.3-1.77 2.25zm7.5 12c-.63.35-1.55.85-2.3 1.18.22 0 1.42.15 1.57.15.73 0 .73-.5.73-.8zm3.27-5.17a3 3 0 01.18.32 14.32 14.32 0 001.32-2.42h-1.5zm14.1-11.06c.2.08.33.18.33.35s-.48.35-.7.38a34.42 34.42 0 00-1.5 9.62 18.76 18.76 0 00.17 2.5c.33-.48.85-1.28 1.18-1.78a10.37 10.37 0 001.8 2.48 11.11 11.11 0 00-2.08 6.12l-3.34.63a35.29 35.29 0 01-1.35-10.08 44.75 44.75 0 011.5-11.44zm11.88-.54c.12 0 .32.05.32.28s-.35.37-.57.4a25.14 25.14 0 00-.25 3 22.47 22.47 0 003.7-.93v3.78c-.58.14-1.73.42-3.8.8a40.29 40.29 0 00.4 5.74 14.05 14.05 0 014.75 2.58c-.4.72-1.15 2.35-1.7 3.52a8.94 8.94 0 00-2.68-1.9c-.1 3.2-3.3 3.58-4.87 3.58-3.75 0-5.63-2.05-5.63-4.38 0-3 3-4.1 6.2-4-.2-2.85-.22-3.18-.27-4.62-1.43.12-2.45.12-2.88.12-.8 0-1.32 0-1.85-.07v-3.96a26.36 26.36 0 004.7.18v-4.88zM270 41.49c-.55 0-1.75.17-1.75.95s.83.92 1.63.92c.2 0 1.7 0 1.7-1.22a.7.7 0 00-.05-.33 3.65 3.65 0 00-1.53-.32zm28.62-16.1c.25.08.47.18.47.38s-.4.32-.82.27a2.87 2.87 0 01-.2.48h5.22l1 1.17a23 23 0 01-3.55 6.45 15.8 15.8 0 005.47 2.57 13.37 13.37 0 00-2.21 2.93 18.09 18.09 0 01-5.33-3.28 15.75 15.75 0 01-5.05 3.28 8.86 8.86 0 00-1.37-2.33c-.6.15-.73.18-1.73.48 0-.35-.05-.43-.12-.93-.28 0-.5.08-.93.13v10.5h-3.12v-8.2a.94.94 0 01-.23.1 28.8 28.8 0 01-1 5.9 12.22 12.22 0 00-3-.88 20.65 20.65 0 001.1-6.1l2.67.3a3.2 3.2 0 01.48.08v-1.38l-2.37.23c-.13.25-.25.47-.5.47s-.3-.32-.33-.47l-.27-2.83h1.6c.5-.6.67-.85 1.35-1.75a36.71 36.71 0 00-3.55-3.1l1.85-2.2c.2.13.35.23.72.5a29.42 29.42 0 001.73-3.85l2.67 1.05c.3.13.52.2.52.38s-.52.37-.77.4a41.13 41.13 0 01-2 3.82 5.79 5.79 0 01.55.5 21.12 21.12 0 001.9-3.72l3 1.22c.15 0 .35.15.35.33s-.35.32-.88.4c-.6.95-2.55 3.9-3.85 5.82.28 0 1.48-.08 1.73-.1-.13-.48-.2-.73-.38-1.3l2.35-.57a17.2 17.2 0 011.21 3.67 13.61 13.61 0 003.45-2.07 15.67 15.67 0 01-1.45-2.25 8.85 8.85 0 01-1.12 1.5 13.88 13.88 0 00-3-1.3 22.54 22.54 0 004.75-7.75zM292.29 38a20.72 20.72 0 00.85 5 13.22 13.22 0 00-2.75.93 29.2 29.2 0 01-.7-5.23zm2.45 3.9a37.35 37.35 0 019.6 3 16.74 16.74 0 00-1.65 3 29.44 29.44 0 00-9.3-2.9zm3.05-4.12a15.39 15.39 0 014.5 2.32 16.69 16.69 0 00-1.62 2.6 15.48 15.48 0 00-4.5-2.42zm-.65-8.27a18.39 18.39 0 001.65 2.6 13.37 13.37 0 001.4-2.6zm32.15-4.22l1.71 1.88a110.22 110.22 0 01-9.21 6.83v10.5c0 2.7-2.07 2.9-4.32 2.9a11.93 11.93 0 01-1.55-.08 10.12 10.12 0 00-1.25-4.05 19 19 0 002.7.33c.25 0 .55-.05.55-.65V30.69l2 .13a20.72 20.72 0 002.57-1.88h-13.84v-3.65zM340 27.07c.22.07.5.15.5.37s-.3.38-.53.4a22.58 22.58 0 00-1.39 7.53c0 3 .94 5.17 1.67 5.17s1.75-2.2 2.42-3.78a11.27 11.27 0 002.63 2.65c-2 4.85-4.28 6.55-5.5 6.55-1.4 0-5.1-3-5.1-10.7a44.26 44.26 0 011.23-9.34zm12.07.17a24.89 24.89 0 015 12.57c-1.47.58-3.25 1.43-4.07 1.85a22.76 22.76 0 00-4.2-12.37zm19.62-1.65c.23.05.5.15.5.4s-.35.33-.55.33c-.1.4-.52 2.17-.62 2.52a16 16 0 004.15-1.22l.42 3.92a32.28 32.28 0 01-5.65 1.18 60.6 60.6 0 01-6.55 14.62 25.41 25.41 0 00-3.77-1.9 40.72 40.72 0 006.17-12.12c-1.52.12-1.82.12-4.57.14l-.32-4.09c.75.05 1.62.1 2.9.1 1.12 0 1.87 0 3-.1.35-1.88.52-3.5.67-4.73zm1.88 15.05a2.43 2.43 0 00-.68 1.47.68.68 0 00.45.65 9.19 9.19 0 003.35.43 17.87 17.87 0 005.5-.83 11.53 11.53 0 00-.17 2 18.08 18.08 0 00.15 2.08 30.33 30.33 0 01-5.18.42c-3.27 0-7.62-.47-7.62-4a6.77 6.77 0 011-3.28zm-1.18-7.07a32 32 0 015.53-.45 18 18 0 013.67.27c-.15 1.85-.17 2.25-.2 3.92a14.75 14.75 0 00-3.75-.45 47.34 47.34 0 00-5.25.45zm22.03-7.98c.37.05.57.08.57.35s-.17.3-.47.43a54.8 54.8 0 00-.8 9.92c0 5.67.55 6.72 2.47 6.72 4.28 0 8.05-5.77 8.73-7.17a25 25 0 002.9 3.27c-2.85 4.63-7.1 8.1-12.15 8.1-5.55 0-6-4.7-6-11 0-1.44.25-7.77.25-9 0-.73 0-1.58-.05-2.3zm30.87-.2c.23.05.45.08.45.33s-.27.32-.45.35c-.1 1-.1 1.2-.12 1.47 1.15 0 5-.07 6.9.15v3.73a61.54 61.54 0 00-7-.23v2.75a32.67 32.67 0 006.35-1.17v3.72a46.67 46.67 0 01-6.25.82c0 1.08 0 1.18.05 2.23a24.6 24.6 0 018.35 3.3 37.92 37.92 0 00-2.8 3.16 20.37 20.37 0 00-5.35-3.15c.05 1.3.22 4.25-5.25 4.25-3.88 0-6.7-1.77-6.7-4.05 0-2.85 3.57-4.07 7.75-4v-1.47c-2.47.05-7 .12-7-2.35 0-.87.44-1.67 1.74-3l2.75.62c-.45.6-.52.67-.52.85s0 .7 2.92.57V31.4c-3.08.13-5.77.48-7.85.75v-4c1.23-.12 6.7-.37 7.82-.45 0-1 0-1.92-.1-3.07zm-5.17 16.5c-.13 0-2.53 0-2.53 1 0 .83 1.38.9 1.8.9 1.23 0 2-.45 1.83-1.82a5.47 5.47 0 00-1.1-.08zm25.8-16.3c.37.05.57.08.57.35s-.17.3-.47.43a54.8 54.8 0 00-.8 9.92c0 5.67.55 6.72 2.47 6.72 4.28 0 8.05-5.77 8.73-7.17a25 25 0 002.9 3.27c-2.85 4.63-7.1 8.1-12.15 8.1-5.55 0-6-4.7-6-11 0-1.44.25-7.77.25-9 0-.73 0-1.58-.05-2.3zm28.77 0c.23.05.5.15.5.4s-.35.33-.55.33c-.1.4-.52 2.17-.62 2.52a16 16 0 004.15-1.22l.42 3.92a32.28 32.28 0 01-5.65 1.18 60.6 60.6 0 01-6.55 14.62 25.41 25.41 0 00-3.77-1.9 40.72 40.72 0 006.17-12.12c-1.52.12-1.82.12-4.57.14l-.32-4.09c.75.05 1.62.1 2.9.1 1.12 0 1.87 0 3-.1.35-1.88.52-3.5.67-4.73zm1.88 15.05a2.43 2.43 0 00-.68 1.47.68.68 0 00.45.65 9.19 9.19 0 003.35.43 17.87 17.87 0 005.5-.83 11.53 11.53 0 00-.17 2 18.08 18.08 0 00.15 2.08 30.33 30.33 0 01-5.18.42c-3.27 0-7.62-.47-7.62-4a6.77 6.77 0 011-3.28zm-1.18-7.07a32 32 0 015.53-.45 18 18 0 013.67.27c-.15 1.85-.17 2.25-.2 3.92a14.75 14.75 0 00-3.75-.45 47.34 47.34 0 00-5.25.45z"/></g></g></svg>