<svg xmlns="http://www.w3.org/2000/svg" width="469.38" height="90"><path d="M0 0h10v90H0zm42 11.43c0-1.22 0-1.54-.08-2.37h-7.85V3.77h13.75c0 .93-.25 5.07-.25 5.9 0 10.94 5.83 18.57 13.21 23.11a14.39 14.39 0 00-4.72 3.92c-4.46-3.09-11-9.86-13-18.14-1.18 4-4 11.48-13.6 18.18a15.65 15.65 0 00-4.43-4c11-7.09 13-14.72 13.93-21.85zm35.92 14.94a25.31 25.31 0 01-4.25 4.36 8.92 8.92 0 00-3.38-2.41c.64-.51 1.18-.9 2-1.62-2.23 1-5 2-7.88 3 0 .44-.14.94-.54.94s-.5-.47-.58-.83l-1.22-5.07a31.34 31.34 0 004.08-.74v-8.21h-3.71v-4.68h3.71V3.62l5.32.29c.44 0 .76.07.76.4s-.22.43-.76.68v6.12h3.21v4.68h-3.21v6.55c.87-.36 1.41-.57 2.27-1h-.25v-3.61H95.3v3.64H81.37l-.68 1.15h14.36c0 3.64-.11 10.84-2.45 12.67-1.36 1.08-3.67 1.19-5.94 1.19a10.63 10.63 0 00-1-3.89A27.09 27.09 0 0181.41 37c-.94-1-1.51-1.29-3.82-2.3a25 25 0 007.6-8.32h-1.62a25.1 25.1 0 01-9.47 9.54A9.53 9.53 0 0070.93 33a21.84 21.84 0 008.39-6.66zm-3.28-5a15.78 15.78 0 00-.25 3.2 23.78 23.78 0 002.2-3.2zm18.14-4.82H76V3.87h16.78zm-4.86-7.71V7.62h-7.09v1.22zm-7.09 2.88V13h7.09v-1.28zm8.5 14.65a39.4 39.4 0 01-2.85 5c.44 0 .83.07 1.26.07.72 0 1.37-.07 1.62-.9a18.1 18.1 0 00.64-4.17zM107.8 6.21c.29.11.47.26.47.51 0 .43-.69.5-1 .54a49.65 49.65 0 00-2.16 13.86 25.23 25.23 0 00.25 3.6c.47-.69 1.22-1.84 1.69-2.56a15.13 15.13 0 002.59 3.56 16 16 0 00-3 8.82l-4.83.9a50.93 50.93 0 01-1.94-14.5A65.1 65.1 0 01102 4.45zm17.1-.79c.18 0 .46.08.46.4s-.5.54-.82.58a37.16 37.16 0 00-.36 4.31 32.28 32.28 0 005.32-1.33v5.44c-.82.21-2.48.61-5.47 1.15a57.41 57.41 0 00.58 8.28 19.92 19.92 0 016.84 3.75c-.58 1-1.66 3.38-2.45 5.07a12.66 12.66 0 00-3.85-2.73c-.15 4.6-4.75 5.14-7 5.14-5.4 0-8.1-2.95-8.1-6.3 0-4.28 4.25-5.9 8.93-5.79-.29-4.1-.33-4.57-.4-6.66-2 .18-3.53.18-4.14.18-1.15 0-1.91 0-2.66-.11v-5.69a38 38 0 006.77.25v-7zm-7.45 22.32c-.8 0-2.52.25-2.52 1.37 0 .93 1.18 1.33 2.34 1.33.28 0 2.44 0 2.44-1.76a1 1 0 00-.07-.47 5.08 5.08 0 00-2.19-.47zm50.03-4.93v3.38h-1.8v6h-5.32V31h-6.63v2.3c0 1.84-.46 3.09-5.83 3.09-.72 0-1.44 0-1.91-.07a13.48 13.48 0 00-1.69-4.5 27.09 27.09 0 003.06.29c1 0 1-.36 1-1.11h-11.18v-3.6h11.23v-1.21h-13.72v-3.38h13.72v-1.15h-11.23v-3.17h11.23v-1h-9.15v-7.32h9.15v-1h-13.72V5.39h13.72v-2l5.58.21a.5.5 0 01.54.47c0 .32-.22.4-.8.69v.61h13.61v3.8h-13.61v1h9v7.31h-9v1h12v4.32zm-19.07-8.35v-1.41H144v1.41zm5.32-1.41v1.41h4.36v-1.41zm6.63 9.76v-1.15h-6.63v1.15zm0 4.61v-1.23h-6.63v1.23zM189 8.27a27.7 27.7 0 003.09-5.08l5.4 1.37c.25.07.51.18.51.43s-.51.58-1 .51c-.93 1.47-1.29 2.08-1.8 2.77h8.25v4.5h-32.9v-4.5h7.92a17 17 0 00-2.05-3.06L181.27 3a24.06 24.06 0 012.92 4.5l-1.94.76zm-11.56 20.3v7.77h-5V14h14.33v18.82c0 3-1.55 3.38-6.3 3.52a10.32 10.32 0 00-1.84-5.11c.54 0 1.62.18 2.16.18.69 0 1.08-.07 1.08-1.15v-1.69zm4.39-9.14v-1.59h-4.39v1.59zm0 5.36v-1.62h-4.39v1.62zm12.28-10.26c.32 0 .54.11.54.36s-.22.4-.54.61v14.33h-5.18V14.31zm7.59-.76c.33 0 .65.08.65.4s-.39.47-.86.72v17.17c0 1.33 0 2.48-1.55 3.49-1.3.86-2.84.83-5.83.79a13.55 13.55 0 00-1.19-5.4c.61.08 1.94.26 2.48.26.9 0 .9-.58.9-1V13.52zm10 14.65V20a20.41 20.41 0 01-2.92 2 17.83 17.83 0 00-3.56-4 24.81 24.81 0 004.57-3.13 25.74 25.74 0 00-2.95-2.3l3.45-3.53a23.16 23.16 0 013.24 2.27 10.56 10.56 0 002.16-3H209V4.06h12.42l1.62 1.72a28.88 28.88 0 01-3.46 6.12H227a23.33 23.33 0 01-4.24-7.09l4.57-1.73a20.61 20.61 0 001.55 3 18.71 18.71 0 002.19-2.73l3.78 2.37c.14.07.4.25.4.43 0 .44-.62.47-1 .47-1.18 1.51-2.16 2.63-2.59 3.06.4.47.69.76 1 1a43.46 43.46 0 003.28-3.88l3.35 2.26c.29.22.65.44.65.69 0 .47-.54.5-1.08.54a27.51 27.51 0 01-3.1 3.24 24.83 24.83 0 005.08 3.35c-1.48 1.08-3.21 4.1-3.32 4.28a38.91 38.91 0 01-3.31-2.38v9.61h-2.61a.55.55 0 01.4.51c0 .36-.36.57-.76.61a13 13 0 01-.76 2h8.82v4.35h-32.68v-4.34h9.18c-.15-.43-.69-1.84-1-2.63l1.76-.47zm5.36-13.35c-.94 1-1.3 1.4-2.92 2.92h19a34.46 34.46 0 01-3.75-3.39v1.87h-12.33zm-.18 7v2.3H229V22zm3.38 6.4c.33.8.58 1.41 1 2.74l-1.3.36h4.86a25.44 25.44 0 001.08-3.1zm34.92-11.96h-2.63v1.87h3.6V23h-3.6v4.9a21.43 21.43 0 001.26-4.28l4.11.82c.21 0 .54.11.54.47s-.54.5-1 .54c-.14.54-.21.72-.72 2.23a42.79 42.79 0 007.17-2.55v-5.96h-2.61a35.43 35.43 0 012.52 4.61 33.69 33.69 0 00-3.89 2.56 29.67 29.67 0 00-2.59-4.9l3.66-2.27h-4.1v-4.24h11.34v-1.44h-9.11V9.63h9.11V8.27h-10.83v-4.4h16v11.06h2.19v4.24h-4.28l4 1.95a.58.58 0 01.4.5c0 .36-.25.43-.94.54a31.81 31.81 0 01-2.91 4.28 26.34 26.34 0 004.5 3.64 17.17 17.17 0 00-3 4.57 31 31 0 01-4.83-4.89v3.06c0 3.56-2.34 3.56-6.62 3.56a16.06 16.06 0 00-1.84-4.86c-.36.18-.46.22-1 .43 0 .69-.11 1.3-.72 1.3a.58.58 0 01-.43-.4l-1.3-5.18a16.58 16.58 0 01-.75 1.83 14.59 14.59 0 00-3.39-.82v1.65c2.63-.5 3.39-.68 4.07-.86a14.83 14.83 0 00-.47 4.5c-4.57 1-8.27 1.62-11.77 2.12-.07.54-.18 1-.68 1-.32 0-.4-.29-.43-.54l-.83-5c1.48-.07 4-.36 5.33-.5v-1.62a24 24 0 00-3.78 1.3 33.93 33.93 0 00-1.84-5.51l4.07-1.3a40.09 40.09 0 011.55 4.4V23h-4.72v-4.62h4.72v-1.87H245v-1.37a12.82 12.82 0 00-3.78-3.56 16.54 16.54 0 006.91-8l5.11 1c.4.07.54.18.54.4 0 .39-.39.61-.83.64a27.28 27.28 0 005.22 5 14.47 14.47 0 00-2.99 2.38zm-2.12-4.21a17.33 17.33 0 01-2.7-3.24c-.83 1.11-1.4 1.87-2.56 3.24zm10.8 17.35c-.9.5-2.23 1.22-3.31 1.69.32 0 2.05.22 2.26.22 1.05 0 1.05-.72 1.05-1.16zm4.71-7.45a4.77 4.77 0 01.25.46 19.42 19.42 0 001.91-3.49h-2.16zM295.07 5c.65.14.86.21.86.61s-.46.47-.93.5c-.18.72-1 3.74-1.19 4.54 6.37-.26 8.53 3.7 8.53 10.69 0 .57 0 8.28-3 12.06-.79 1-2.3 2.37-5.79 2.37a9.22 9.22 0 01-3.06-.43 16.89 16.89 0 00-.76-5.87 14.21 14.21 0 003.78.72c3 0 3.35-6.48 3.35-10.08 0-1.44-.11-4.06-3.38-4.06a9.79 9.79 0 00-1.08.07 75 75 0 01-8.21 19.47 17.71 17.71 0 00-5.19-2.92 64.29 64.29 0 007.59-15.33 28.78 28.78 0 00-5.11 1.94l-1.69-6.08c1.44-.15 3-.51 8.31-1.69a37.73 37.73 0 001.08-8zm9.25 4.35a44.14 44.14 0 015.83 7c1.33 2 1.73 3.24 1.73 4.5 0 2.7-3.13 3.85-5.29 4.68a37.15 37.15 0 00-2.74-4.79c1.37-.43 1.84-.58 1.84-1.37 0-1.73-3.53-6.26-5.08-7.92zm2-4.46a23.81 23.81 0 013 3.56c-.83.58-1 .72-2.63 1.91-.36-.47-2.16-2.85-3-3.67zm3.6-2.23a19.59 19.59 0 013 3.67c-.79.57-2.09 1.47-2.92 2.05a15.73 15.73 0 00-2.88-4zm12.65 11.26c.54.14 1.12.29 1.12.72s-.36.57-1.19.79c-.64 2.77-1.83 7.16-4.1 10.4a13.69 13.69 0 00-5-1.87 27.83 27.83 0 004.36-11.23zm22.32-7.45c.47.18.87.36.87.65 0 .5-.83.57-1.26.61-5.19 14.27-12.31 19.07-14.87 20.84v.93c0 1.44.36 1.77 2 1.77h3.78c1.87 0 2.41-.25 2.95-4.43a15.77 15.77 0 004.68 2.66c-1.23 6.37-3 6.52-6.84 6.52h-7.6c-4 0-4.39-2.66-4.53-4.28a56.64 56.64 0 01-6 2.41 11.49 11.49 0 00-3.75-4.9A35.37 35.37 0 00324 25.9V10.82l5.94.51c.33 0 .76.1.76.54s-.43.61-1.08.82v9.36c5.26-4.53 8.46-10.87 10.22-17.56zm-17.6-3.64a34.93 34.93 0 018.6 4.72 16.13 16.13 0 00-2.84 4.45 39.88 39.88 0 00-8.35-5.18zm15.3 14.65a39.82 39.82 0 015.9 8.64 18.67 18.67 0 00-4.5 3.17 26.28 26.28 0 00-5.33-8.68zm8.1 8.03V21.3h10c.33-.51.65-1 1.15-1.84h-8.53V9.71h7.56V8.27h-10.11v-4h32.51v4h-10.19v1.44h7.63v9.75h-12.38a.44.44 0 01.14.29c0 .5-.68.58-.9.61-.25.4-.36.58-.57.94h16.2v4.21h-5.58a.64.64 0 01.14.32c0 .43-.43.58-1.48.65a26 26 0 01-2.44 2.66 45.75 45.75 0 018.24 3.17 15.81 15.81 0 00-3.38 4.39 43.92 43.92 0 00-9.15-4.35c-5.36 2.91-11.48 3.78-16.27 4a9.34 9.34 0 00-2.41-4.64 39 39 0 0012.35-1.41c-.65-.18-1.3-.32-3-.72-.22.18-.51.51-.83.79a19.16 19.16 0 00-5.22-2.08 33.47 33.47 0 003.06-2.81zm10.15-12h-2.55v2.26h2.55zm3.1 12c-.29.32-.69.79-1.05 1.22 1.19.18 4.54.79 5.55 1a11.7 11.7 0 002.23-2.23zm4.32-17.24h-2.63v1.44h2.63zm-2.63 7.48h2.63v-2.26h-2.63zm7.45 0h2.63v-2.26h-2.63zM418.76 10c-8.89-.14-16.59 7.85-16.59 13.68 0 4.17 5.29 6.23 10.19 6.33a47.82 47.82 0 00-2.7 6.56c-2.92-.8-13.25-3.68-13.25-12.28 0-6.66 5.15-11.45 6.62-12.38a96.34 96.34 0 00-14.9 2.27l-.83-6.77a116.36 116.36 0 0016-.83A86.05 86.05 0 00417.76 4zm-6 5.11a22.72 22.72 0 013.38 3.89c-1 .72-1.52 1.12-2.78 2.16a28.13 28.13 0 00-3.2-4.06zm3.78-2.55a22.56 22.56 0 013.2 3.78c-.9.68-1.51 1.22-2.63 2.23a26.29 26.29 0 00-3.2-4.07zM442.81 4c.58.07.9.11.9.39s-.43.61-.71.61c-.07.64-.1 1.08-.18 2.52 10.18-.4 11.26-.44 11.94-.52 0 .75-.1 4.32 0 5.79-6.52-.32-9.25-.32-11.88-.29a29.71 29.71 0 000 4c2.12 2.57 2.12 6.42 2.12 6.92a17 17 0 01-8.35 13.9 23.71 23.71 0 00-5.25-3.71c1.08-.43 5.33-2.23 6.62-5.19a4 4 0 01-2.84.87 4.81 4.81 0 01-3.89-1.62 9 9 0 01-1.55-5.33c0-7.92 6.77-7.67 7.53-7.56v-2A96.79 96.79 0 00423 14.64l-.4-6.09c.83 0 2.2 0 14.62-.75a35.61 35.61 0 00-.51-4.57zm-8.31 18c0 2.37 1.19 3 1.83 3 1.12 0 1.77-1.66 1.77-3.46 0-.82-.18-2.23-1.62-2.23-1.19.04-1.98 1.23-1.98 2.69zm34.88 8.66a5.08 5.08 0 11-5.07-5.08 5.1 5.1 0 015.07 5.08zm-7.92 0a2.85 2.85 0 102.85-2.85 2.83 2.83 0 00-2.85 2.85zM41.09 53.57a21.66 21.66 0 000 28.87l-3.21 2.77a25.67 25.67 0 010-34.41zm31.14 21.77H46v-4.13h3.46v-4.43h-4.98v-4.14h4.93v-2.49c-.76.72-1.15 1.05-1.66 1.48a15.74 15.74 0 00-4.57-2.48 26.59 26.59 0 007.27-8.25l5.15 1.7c.18.07.36.18.36.39 0 .47-.58.58-.83.65s-.25.32-.36.47h21.17v4.46h-3.28v4.07h4.86v4.14h-4.86v4.43h3.74v4.13h-4.14A38.18 38.18 0 0178 82a35.17 35.17 0 00-4.5 2.88 29.38 29.38 0 00-5.15-6.77zm-18.76 2.24c.33.18.62.32.62.64s-.26.44-.9.54a35.56 35.56 0 01-4.68 6.41 11.72 11.72 0 00-4.43-2.88 19.15 19.15 0 005.36-6.73zm.18-14.94h2.09v-4.07h-2.09zm0 8.57h2.09v-4.43h-2.09zm5.19 5.14a23.88 23.88 0 012.3 7.06 33.28 33.28 0 00-5.25 1.4 29.09 29.09 0 00-1.7-7.23zM60 62.64h2v-4.07h-2zm0 8.57h2v-4.43h-2zm6.27 4.85a25.78 25.78 0 012.88 6.7 35 35 0 00-4.9 1.65 41.13 41.13 0 00-2.63-7zm0-17.49v4.07h2.09v-4.07zm0 8.21v4.43h2.09v-4.43zm25.22 17.56h-5v-7.81a22 22 0 01-2.81 3.6 14.13 14.13 0 00-4.25-3 22.14 22.14 0 006.63-10h-5.48v-4.64h5.91v-2.62a21.91 21.91 0 00-4.11 1.87 24 24 0 00-2.08-6.37l4-1.44a34.06 34.06 0 012.2 5.5v-8.2l4.89.29c.47 0 1 .07 1 .57s-.58.69-.9.79v9.61h4.93v4.65H92a21.44 21.44 0 004.65 5.11A11.55 11.55 0 0094 75.7a25.42 25.42 0 01-2.52-2.34zm6.37-29.51c.33.07.72.21.72.46s-.47.54-.79.72a47 47 0 01-2 5.62 10.71 10.71 0 00-4-1.4 56.83 56.83 0 001.84-6.52zm15.23 14.43l.86 4.39-3.6.94v9.68h-5.11V76l-8.6 2.3-.83-4.61 9.43-2.41V58.64a17 17 0 00-2.84 3 31.83 31.83 0 00-4.47-4.39l3-3.42a28 28 0 014.32 4.1v-6.59l5.08.43c.28 0 .79.07.79.47s-.4.54-.76.75V70zm-12.64-6.8a29.89 29.89 0 014.61 5c-.9.9-1.87 2-3.13 3.31a27.21 27.21 0 00-4.43-5zm19.66-11.66a25.67 25.67 0 010 34.41l-3.17-2.77a21.66 21.66 0 000-28.87z" fill="#00b4dc" data-name="レイヤー 2"/></svg>