<svg xmlns="http://www.w3.org/2000/svg" width="32" height="32" viewBox="0 0 32 32">
  <defs>
    <style>
      .cls-1 {
        fill: #06c755;
        fill-rule: evenodd;
      }
    </style>
  </defs>
  <g id="_icon_line.svg">
    <path id="長方形_3" data-name="長方形 3" class="cls-1" d="M698.786,1883H681.214a7.213,7.213,0,0,0-7.214,7.21v17.57a7.216,7.216,0,0,0,7.214,7.22h17.572a7.216,7.216,0,0,0,7.214-7.22v-17.57A7.213,7.213,0,0,0,698.786,1883Zm-0.407,19.82h0a34.609,34.609,0,0,1-8.382,6.19c-1.139.48-.971-0.3-0.925-0.57,0.028-.16.153-0.92,0.153-0.92a2.165,2.165,0,0,0-.035-0.96,1.329,1.329,0,0,0-.94-0.53c-5.127-.67-8.922-4.26-8.922-8.54,0-4.77,4.786-8.66,10.669-8.66s10.668,3.89,10.668,8.66A7.718,7.718,0,0,1,698.379,1902.82Zm-1.263-7.64h-3a0.211,0.211,0,0,0-.2.21h0v4.65h0a0.2,0.2,0,0,0,.2.21h3a0.2,0.2,0,0,0,.2-0.21v-0.75a0.211,0.211,0,0,0-.2-0.21h-2.037v-0.78h2.037a0.2,0.2,0,0,0,.2-0.21v-0.75a0.211,0.211,0,0,0-.2-0.21h-2.037v-0.78h2.037a0.2,0.2,0,0,0,.2-0.2v-0.76A0.211,0.211,0,0,0,697.116,1895.18Zm-11.087,3.9h-2.037v-3.69a0.211,0.211,0,0,0-.2-0.21h-0.757a0.211,0.211,0,0,0-.2.21v4.65h0a0.2,0.2,0,0,0,.2.21h3a0.2,0.2,0,0,0,.2-0.21v-0.75A0.211,0.211,0,0,0,686.029,1899.08Zm1.8-3.9h-0.756a0.211,0.211,0,0,0-.2.21v4.65a0.2,0.2,0,0,0,.2.21h0.756a0.2,0.2,0,0,0,.2-0.21v-4.65A0.211,0.211,0,0,0,687.833,1895.18Zm5.151,0h-0.757a0.211,0.211,0,0,0-.2.21v2.76l-2.131-2.87a0.031,0.031,0,0,0-.016-0.02v-0.01a0.011,0.011,0,0,1-.012-0.01h0c0-.01-0.008-0.01-0.011-0.01s0,0-.006-0.01h-0.011s0-.01-0.006-0.01h-0.011s-0.005,0-.007-0.01H689.79a0.147,0.147,0,0,0-.013-0.01h-0.05s0-.01-0.006-0.01h-0.753a0.211,0.211,0,0,0-.2.21v4.65a0.2,0.2,0,0,0,.2.21h0.757a0.2,0.2,0,0,0,.2-0.21v-2.76l2.133,2.88a0.167,0.167,0,0,0,.053.05h0a0.012,0.012,0,0,0,.013.01h0.006c0,0.01.007,0.01,0.01,0.01h0.01s0,0,.006.01h0.017a0.1,0.1,0,0,0,.053.01h0.753a0.2,0.2,0,0,0,.2-0.21v-4.65A0.211,0.211,0,0,0,692.984,1895.18Z" transform="translate(-674 -1883)"/>
  </g>
</svg>
