<svg xmlns="http://www.w3.org/2000/svg" width="630" height="315"><defs><style>.cls-2,.cls-6{fill:#fff}.cls-6{stroke:#00a63c;stroke-linejoin:round;stroke-width:2px}.cls-5{fill:#231815}.cls-7{fill:#00a63c}</style></defs><g id="レイヤー_2" data-name="レイヤー 2"><g id="object"><rect width="630" height="315" rx="10" fill="#e6e6e6"/><path class="cls-2" d="M625 55v250a5 5 0 01-5 5H10a5 5 0 01-5-5V55z"/><path d="M22.17 25.92a8.27 8.27 0 00-1.48.08v-1.47a7.69 7.69 0 001.48.09h1.14v-1.35h-.73a8.39 8.39 0 00-1.32.07V21.9a8.78 8.78 0 001.32.07h.73v-.34a9.93 9.93 0 00-.07-1.13h1.62a5.13 5.13 0 00-.08 1.13V22h.29a5.26 5.26 0 001-.07V23a9.65 9.65 0 00.93-1.94l1.25.74c0-.42 0-.55-.06-.9.38 0 .66.05 1.23.05h2.24a6.27 6.27 0 001.15-.07l.66 1a3.39 3.39 0 00-.22.56c-.09.2-.48 1.15-.63 1.53 0 .07-.17.38-.4.87-.08.19-.22.5-.39.91A6.84 6.84 0 0133 27.63a4.45 4.45 0 01.4 1.76 2 2 0 01-1.14 2.05 4.6 4.6 0 01-1.9.22 3.29 3.29 0 00-.36-1.55h.74c.8 0 1.12-.23 1.12-.77a4.61 4.61 0 00-.2-1.36 4.94 4.94 0 00-1.4-2.19 20.6 20.6 0 001.45-3.54h-2v9.27a16.85 16.85 0 00.09 1.91h-1.65a13.88 13.88 0 00.09-1.94V22a3.31 3.31 0 00-.24.42 17.25 17.25 0 01-1.43 2.21h.13a9.11 9.11 0 001.13-.07V26a12.22 12.22 0 00-1.36 0h-1c-.42.46-.66.7-1 1h1.65a8.14 8.14 0 001.15-.06v4.84a13.88 13.88 0 000 1.44h-1.5v-.52H23.4v.73h-1.51a9.9 9.9 0 00.11-1.56V29c-.34.25-.52.36-1 .66a3.84 3.84 0 00-.79-1.36 13.93 13.93 0 003.42-2.35zm1.22 3.29h2.38v-1.09h-2.38zm0 2.28h2.38v-1.15h-2.38zm1.51-6.87a11.78 11.78 0 001-1.32 4.93 4.93 0 00-.66 0h-.45v1.35zm12.49-2.27a7.85 7.85 0 00-.9-1.42l1.51-.32a13.19 13.19 0 011 1.74h1.29a12.41 12.41 0 00-.78-1.62l1.57-.25a18.49 18.49 0 01.92 1.87h1a10.23 10.23 0 001-1.88l1.62.36c-.24.44-.66 1.12-.92 1.52h.84a14.68 14.68 0 001.5-.06 8.89 8.89 0 00-.04 1.25v1.12a9 9 0 00.06 1.1h-1.53v-2.11h-9v2.11H35a9.51 9.51 0 000-1.09v-1.11c0-.49 0-.81-.06-1.27.46 0 .85.06 1.49.06zM38.45 28A13.26 13.26 0 0037 28a8.48 8.48 0 000-1.24v-1.33a6.16 6.16 0 000-1.07 8.05 8.05 0 001.07.06h6a7.57 7.57 0 001-.06 7.55 7.55 0 000 1.11v1.29A9.33 9.33 0 0045 28c-.46 0-.81-.06-1.47-.06h-2a10.16 10.16 0 01-.48 1h3.73a10.64 10.64 0 001.33-.06 10.79 10.79 0 00-.06 1.35v1.82a10 10 0 00.07 1.37h-1.53v-.55H37.4v.55h-1.55c0-.48.07-.91.07-1.39v-1.8a11.06 11.06 0 00-.07-1.33 10.87 10.87 0 001.3.06h2.31A5.31 5.31 0 0040 28zm-1.05 3.55h7.2v-1.36h-7.2zm1.1-4.76h5V25.6h-5zm15.3-4.64a1.41 1.41 0 00-.07.28v.24l-.07.4v.34c-.59 4-1.68 6.78-3.56 8.94a6.14 6.14 0 00-1.6-1.21 9.45 9.45 0 002-3 17 17 0 001.31-4.81 9.41 9.41 0 00.07-1.33v-.2zm4-.35a16.42 16.42 0 00.57 3.2 13.48 13.48 0 003.12 6.05A5.72 5.72 0 0060 32.36a18.55 18.55 0 01-3.71-9.22 6.34 6.34 0 00-.2-1zM59 21a8.53 8.53 0 011.16 2.25l-1.06.34a9.39 9.39 0 00-1.15-2.28zm1.93 2a9.33 9.33 0 00-1.12-2.21l1-.3A8.38 8.38 0 0162 22.65zm12.79 9.75a27 27 0 00-4.3-4.16 16.55 16.55 0 01-5.33 4.05A5.6 5.6 0 0063 31.09a11.59 11.59 0 002.8-1.54 13.5 13.5 0 004.71-5.71l.15-.36-4.66.08a12 12 0 00-1.53.12v-1.8a6 6 0 001.23.09h.3l4.93-.07a3 3 0 001.25-.16l.93 1a2.4 2.4 0 00-.45.75 18.6 18.6 0 01-2.19 3.87 22.33 22.33 0 012.59 2c.35.31.35.31 2 1.95z" fill="#3c3c3c"/><path d="M80.26 105.59H550.1M80.26 161.33H550.1M80.26 237.44H550.1" stroke="#00a63c" stroke-linejoin="round" stroke-width="2" fill="none"/><path class="cls-5" d="M98.49 122.7h-2v.43H95v-3.91l-.88.39-.53-1.17a12.13 12.13 0 002.8-1.47h-2.53v-1.2h2V115h-1.61v-1.18h1.58v-1.06h1.52v1.06h1.37v.62a11 11 0 00.62-1.3l1.32.42a8.85 8.85 0 01-1.16 2.21h1V117h-2.11a9.28 9.28 0 01-.82.71H100v5.44h-1.51zm0-3.06v-.84h-2v.84zm-2 1.93h2v-.88h-2zm.91-5.8h.49c.19-.26.37-.51.54-.77h-1zm7.57-2.31c-.07.24-.23.75-.5 1.52s-.45 1.28-.57 1.53a4.78 4.78 0 01.94 2.71 3.42 3.42 0 01-.13 1 1.63 1.63 0 01-.38.7 1.31 1.31 0 01-.61.38 4.42 4.42 0 01-1.06.1h-.1l-.36-1.4h.31a3.76 3.76 0 00.46 0 .32.32 0 00.18-.12.69.69 0 00.13-.31 1.91 1.91 0 000-.51 3.86 3.86 0 00-.75-2.27.47.47 0 01-.07-.22.53.53 0 010-.2 11.92 11.92 0 00.58-2.06h-1v8.8h-1.46v-10h3.89zm7.31 9.28a3.09 3.09 0 01-2.6-1.07 7.54 7.54 0 010-6.88 3.68 3.68 0 015.21 0 5.67 5.67 0 01.83 3.43 5.61 5.61 0 01-.83 3.45 3.07 3.07 0 01-2.61 1.07zm0-7.69a1.2 1.2 0 00-1.16.76 6.2 6.2 0 00-.35 2.42 6 6 0 00.36 2.42 1.25 1.25 0 002.31 0 6.11 6.11 0 00.36-2.42 6 6 0 00-.36-2.42 1.19 1.19 0 00-1.16-.76zm4.88 7.17v-1.64h.19a4.83 4.83 0 002.4.73c1.29 0 1.94-.52 1.94-1.56a1.13 1.13 0 00-.54-1 2.88 2.88 0 00-1.59-.36 8 8 0 00-1.83.26h-.22v-4.76h5.93v1.41h-4.13v1.78h1a3.83 3.83 0 012.49.71 2.39 2.39 0 01.86 2 2.76 2.76 0 01-1 2.21 4 4 0 01-2.66.84 7.34 7.34 0 01-2.84-.62zm12.04-2.76H125V118h4.22zm8.11 3.1h-6.57v-1.37a22.78 22.78 0 003.35-2.91 3 3 0 00.86-1.82 1.22 1.22 0 00-.41-1 1.74 1.74 0 00-1.14-.35 4.19 4.19 0 00-2.29.78H131v-1.65a7.6 7.6 0 012.74-.55 3.71 3.71 0 012.38.67 2.27 2.27 0 01.84 1.88 3.65 3.65 0 01-.68 2 15 15 0 01-3.17 2.93h4.24zm8.37-2.2a11.32 11.32 0 01-1.86 1.51 13.13 13.13 0 01-2 1.13l-.84-1.23a13.72 13.72 0 002.07-1.21 13.25 13.25 0 001.34-1.16zm1.95 2.87h-1.76v-4c-2.12.12-3.59.18-4.42.19l-.2-1.45h.27q.93 0 2.94-.06a27.71 27.71 0 00-2.39-2l1.05-1a7 7 0 01.89.67c.32-.32.62-.64.89-.95-1.28.07-2.25.11-2.92.11l-.21-1.34c2.17 0 4-.11 5.58-.25a20.35 20.35 0 003.28-.48l.78 1.25a34.51 34.51 0 01-4.47.57 19.72 19.72 0 01-1.84 2l.93.8a20.25 20.25 0 002.9-2.92l1.49.76a25.93 25.93 0 01-2.9 2.71l2.15-.13c-.21-.29-.44-.58-.68-.86l1.28-.71a25.3 25.3 0 012.33 3l-1.43.73-.6-.89q-1 .09-2.94.21zm4.87-1.61l-1 1.34a13.69 13.69 0 01-2.05-1.29 7.85 7.85 0 01-1.56-1.43l1.14-1a13.32 13.32 0 001.64 1.37 12.2 12.2 0 001.83 1.01zm2.16-2.45a13.15 13.15 0 01-.69 3.38l-1-.25a15.42 15.42 0 00.53-3.21zm1.6 4.07h-1.4v-4.58c-.74.07-1.31.11-1.72.13l-.14-1.14h.9c.27-.35.5-.67.7-.94-.57-.67-1.1-1.25-1.59-1.75l.81-.84.18.17a11.07 11.07 0 00.94-1.72l1.22.48a15.67 15.67 0 01-1.36 2.1l.49.55a13.62 13.62 0 001.11-1.89l1.22.55a26.09 26.09 0 01-2.25 3.22l1.14-.08a7.68 7.68 0 00-.29-.82l1.06-.3q.28.78.69 2.19l-1.08.28a2.48 2.48 0 00-.1-.4l-.53.07zm1.67-1.88l-1.11.21c-.19-1.13-.31-1.93-.35-2.39l1.08-.17zm2.41-2.17a4.63 4.63 0 01-.59 2.37 4.13 4.13 0 01-1.75 1.6l-.76-1a3.14 3.14 0 001.29-1.36 4 4 0 00.35-1.65v-.95h1.46zm2.13-1.53q-1.54.2-4.5.42l-.22-1.26h.84a16.38 16.38 0 00.65-1.53h-1.38v-1.2h2.25v-1.31h1.47v1.31H164v1.2h-3.24c-.19.43-.42.91-.7 1.44.68 0 1.28-.09 1.78-.14-.14-.24-.3-.49-.48-.76v-.09l1.19-.41a21.73 21.73 0 011.66 2.72l-1.39.51c-.06-.31-.19-.56-.35-.9zm1.85 4.21a1.41 1.41 0 01-.14.64.91.91 0 01-.41.39 1.33 1.33 0 01-.51.15h-.67a5.5 5.5 0 01-.86 0 1.33 1.33 0 01-.42-.18.7.7 0 01-.29-.36 1.33 1.33 0 01-.11-.56v-3.81h1.45v3.45c0 .13.06.2.17.2h.29a.29.29 0 00.17-.05.26.26 0 00.07-.15v-1.43l1.21.17zm7.15-3.87h-2v-2.1h2zm0 4.57h-2v-2.1h2zm-77.56 19.61l-.32-.71a10.35 10.35 0 001.79-.65 16.17 16.17 0 001.77-1 6.69 6.69 0 001.27-1h-3.31v-4.12h3.75v-.95h-4.81V133h4.81v-1h.9v1h4.92v.71h-4.92v.95h3.81v4.12h-3.5a12.11 12.11 0 002.44 1.6 13 13 0 002.61 1l-.45.77a13 13 0 01-2.62-1.09 13.48 13.48 0 01-2.3-1.53v3.09h-.88v-3.11a10.41 10.41 0 01-2.22 1.49 13.42 13.42 0 01-2.74 1.18zm2-5.76h2.91v-1.08H96zm2.91.61H96v1.14h2.91zm.88-.61h2.94v-1.08h-2.89zm2.94.61h-2.89v1.14h2.94zm3.41 4.97l-.5-.61a11.44 11.44 0 003-2.54l.75.46a9.53 9.53 0 01-1.53 1.51 11.06 11.06 0 01-1.72 1.18zm-.23-8.16v-.71h4.86v-1h.94v1h4.92v.71zm4.81 8.73h-1.51l-.08-.79h1.18c.33 0 .5-.14.5-.42v-3.13H107v-3.24h8.41v3.24h-3.75v3.5a.72.72 0 01-.31.6 1.11 1.11 0 01-.72.19zm3.87-6.9h-6.63v1.89h6.63zm1.79 6.24a11.36 11.36 0 01-1.67-1.13 11.78 11.78 0 01-1.59-1.42l.68-.51a11.67 11.67 0 001.59 1.38 8.68 8.68 0 001.56 1zm1.59.17l-.59-.25a10.64 10.64 0 00.47-2.67l.6.09a11.62 11.62 0 01-.16 1.45 7.11 7.11 0 01-.32 1.38zm3-4.34h1.6c0 1.23 0 2.18-.12 2.84a4 4 0 01-.27 1.29 1.19 1.19 0 01-.49.48 1.92 1.92 0 01-.92.18h-1l-.08-.71a8.55 8.55 0 001.15 0 .82.82 0 00.4-.21 1.12 1.12 0 00.27-.48 5.21 5.21 0 00.11-.91v-1.79h-2.83v.22h-.7v-6.07h4.57v.64h-1.69v1.13h1.36v.61h-1.36V136h1.39v.61h-1.39zm-2 3.53l-.13-2.11.48-.06.14 2.11zm-.12-8.09v1.13h1.33v-1.13zm0 1.74V136h1.33v-1.07zm0 1.68v1.14h1.33v-1.14zm1.21 4.21l-.29-1.8.43-.08.31 1.82zm.87-.54l-.29-1.42.38-.08.3 1.41zm7.45 2.23a7.6 7.6 0 01-1.76-2.42 10.36 10.36 0 01-.93-3.09h-1.21a13 13 0 01-.4 3.16 7.42 7.42 0 01-1 2.38l-.63-.45a6.24 6.24 0 00.82-2.24 17 17 0 00.29-3.23v-4.1h4.57V137h-1.64a8.52 8.52 0 00.81 2.64 7.09 7.09 0 001.62 2.23zm-1.11-9.33h-2.79v3.17h2.79zm6.19 5.76a7.3 7.3 0 01-3.51 3.65l-.47-.6a6.54 6.54 0 003.21-3.63c-.93-.7-1.63-1.19-2.12-1.49l.52-.61c.42.25 1 .67 1.85 1.26a11 11 0 00.25-2.49h-3.23v-.73h3.23v-2.11h.9v2.11h3.7v6.91a.45.45 0 00.1.31.44.44 0 00.25.15 4.32 4.32 0 00.64 0 2.1 2.1 0 00.52 0 .41.41 0 00.27-.18 1.13 1.13 0 00.17-.54 10.62 10.62 0 00.06-1.37l.8.1v1.71a1.07 1.07 0 01-.18.65 1 1 0 01-.51.36 4.61 4.61 0 01-1.11.1h-1a.94.94 0 01-.66-.31 1.18 1.18 0 01-.22-.77V135H134a12.59 12.59 0 01-.34 3.11c.91.68 1.54 1.16 1.88 1.46l-.64.66c-.33-.33-.84-.76-1.53-1.3zm12.68 3.15l-.2-.74a4.59 4.59 0 002.41-1.08 3.9 3.9 0 001-2.8 3.67 3.67 0 00-.94-2.42 2.91 2.91 0 00-2.27-.95 16.23 16.23 0 01-.7 5.17c-.46 1.38-1.15 2.08-2.05 2.08a1.54 1.54 0 01-1.43-.84 3.89 3.89 0 01-.49-2 5.39 5.39 0 011.32-3.55 4.17 4.17 0 013.36-1.57 3.87 3.87 0 012.85 1.14 3.93 3.93 0 011.15 2.9 4.58 4.58 0 01-1.15 3.33 4.47 4.47 0 01-2.86 1.33zm-.81-7.89a3.36 3.36 0 00-2.16 1.51 5.06 5.06 0 00-.87 2.82 3.73 3.73 0 00.3 1.43.84.84 0 00.78.56c.57 0 1-.58 1.37-1.77a17.89 17.89 0 00.58-4.55zm14.99 8.27h-1.75l-.14-.8H160a.66.66 0 00.41-.14.43.43 0 00.17-.35v-6.42h-3.61a5.35 5.35 0 001.07 2.5 6 6 0 002.14 1.91l-.56.68a7.43 7.43 0 01-1.91-1.68 6.88 6.88 0 01-1.18-2.09 6.5 6.5 0 01-3.33 3.79l-.45-.6a5.69 5.69 0 002.28-2 5.88 5.88 0 00.91-2.51h-3.55v7.79h-.87v-8.48h4.45v-2h.92v2h4.59v7.38a.91.91 0 01-.33.74 1.27 1.27 0 01-.92.28zm7.61-.03v-2.35h-2.68v-.67h2.68V138h-2.57v-.65h1.3l-.63-1.67h-1.53v6.87h-.87V135h4.28v-1.25h-4.94v-.71h4.94V132h.9v1.06h4.94v.71h-4.94V135H173v6.45a.92.92 0 01-.31.72 1.12 1.12 0 01-.76.27h-1.38l-.13-.8h1.24a.5.5 0 00.33-.12.39.39 0 00.14-.3v-5.56h-1.58l-.73 1.67h1.47v.67h-2.61v1.41h2.64v.67h-2.64v2.35zm1.83-6.75h-2.85l.58 1.67h1.6zm14.24 5.6h-7.58v.9h-.92V133h9.44v9.17h-.94zm-7.58-.76h7.58v-6.77h-7.58zm20.9 2.17h-1.14a8.13 8.13 0 010-10.73h1.14v.04a6.81 6.81 0 00-1.55 2.14 7.29 7.29 0 00-.7 3.16 7.46 7.46 0 00.7 3.19 6.88 6.88 0 001.55 2.13zm3.77-4.46h-1.26a11.38 11.38 0 01-1.05 4.3l-.59-.27a7 7 0 00.47-1.35 13.61 13.61 0 00.3-1.66 20.89 20.89 0 00.11-2.37v-4.41h2.85v9.26a.61.61 0 01-.27.5 1.09 1.09 0 01-.67.2h-1l-.1-.71h.79c.28 0 .42-.12.42-.35zm-1.23-.63H201v-2h-1.22v2zm0-2.64H201v-1.84h-1.22zm4.92 1.55a8.8 8.8 0 01-2.32 2.45l-.43-.49a8 8 0 001.87-2h-1.64v-.65h2a7.45 7.45 0 00.51-1.12h-2.23v-.64h1.05c-.15-.37-.38-.88-.67-1.52l.74-.24c.35.78.6 1.36.75 1.76h.56a10.3 10.3 0 00.3-2l.88.06a9.84 9.84 0 01-.33 2h1.05c.21-.45.46-1 .73-1.78l.82.18c-.26.58-.51 1.12-.77 1.6h1.34v.64h-2.08a6.36 6.36 0 00.48 1.12h1.88v.65h-1.48a8.3 8.3 0 001.94 1.88l-.54.61a9.71 9.71 0 01-2.29-2.49zm1 2.45a4.34 4.34 0 01-2.88 3.62l-.37-.57a3.94 3.94 0 001.78-1.43 3.32 3.32 0 00.59-1.62h-1.39v-.66h1.44v-1.17h.87v1.17h2.58v.7a13.61 13.61 0 01-.09 1.68 4.29 4.29 0 01-.22 1 1.18 1.18 0 01-.29.46 1.2 1.2 0 01-.4.22 2.64 2.64 0 01-.66.07h-1l-.1-.75h.68a1.82 1.82 0 00.54-.06.67.67 0 00.34-.25 2.07 2.07 0 00.23-.77 10.3 10.3 0 00.1-1.7zm-.11-4.22c-.1.26-.26.63-.48 1.12h1.47c-.21-.46-.37-.83-.48-1.12zm11.1 7.34a20.66 20.66 0 01-2.43.14q-.63 0-1.26-.06a5.09 5.09 0 01-1.15-.24 2.33 2.33 0 01-.88-.48 2 2 0 01-.51-.72 2.51 2.51 0 01-.17-1 4.18 4.18 0 011.93-3.07c-.1-1.32-.16-2.66-.18-4h.97v.52c0 .9 0 1.9.1 3a20 20 0 013.19-1.32l.15.82a13.7 13.7 0 00-2.18.8 7 7 0 00-1.83 1.13 4.67 4.67 0 00-.92 1 2.45 2.45 0 00-.3 1.07 1.65 1.65 0 00.08.56 1.3 1.3 0 00.28.46 1.71 1.71 0 00.63.38 3.37 3.37 0 001 .23 8.73 8.73 0 001 0 19.41 19.41 0 002.52-.15zm-.37-8.45l-.66.3a15 15 0 00-.84-1.62l.62-.28a11.34 11.34 0 01.88 1.6zm1.43-.23l-.66.27a12.51 12.51 0 00-.83-1.6l.61-.29a14 14 0 01.88 1.62zm7.06 5.6l-.64.64a6.07 6.07 0 00-1.35-.67 4.45 4.45 0 00-1.47-.25 3.36 3.36 0 00-1.83.39 1.23 1.23 0 00-.58 1.07 1 1 0 00.69.94 4.85 4.85 0 002.1.34 18 18 0 002.88-.24v.83a18.31 18.31 0 01-2.93.21 5.73 5.73 0 01-2.74-.53 1.69 1.69 0 01-.94-1.55 1.85 1.85 0 01.89-1.65 4.25 4.25 0 012.31-.57 5.13 5.13 0 012.23.5 11 11 0 01-1.06-1.66h-4.51v-.75H222a12.78 12.78 0 01-.5-1.37h-3.3V134h3.11a12.72 12.72 0 01-.24-1.44l.93-.08c.09.69.17 1.2.24 1.52h2.93v.75h-2.75a10 10 0 00.51 1.37h2.8v.75h-2.46a18.16 18.16 0 001.53 2.13zm2.13 3.08l-.6-.25a10.21 10.21 0 00.47-2.67l.61.09a11.62 11.62 0 01-.16 1.45 8 8 0 01-.32 1.38zm3-4.34h1.59c0 1.23-.05 2.18-.12 2.84a3.83 3.83 0 01-.26 1.29 1.28 1.28 0 01-.5.48 1.9 1.9 0 01-.92.18h-.95l-.08-.71a8.74 8.74 0 001.16 0 .75.75 0 00.39-.21 1.12 1.12 0 00.27-.48 4.27 4.27 0 00.12-.91v-1.79h-2.83v.22h-.77v-6.07h4.57v.64h-1.69v1.13h1.35v.61h-1.35V136h1.39v.61h-1.39zm-2 3.53l-.13-2.11.49-.06.13 2.11zm-.12-8.09v1.13h1.33v-1.13zm0 1.74V136h1.33v-1.07zm0 1.68v1.14h1.33v-1.14zm1.21 4.21l-.29-1.8.44-.08.3 1.82zm.88-.54l-.29-1.42.38-.08.29 1.41zm7.45 2.23a7.78 7.78 0 01-1.77-2.42 10.34 10.34 0 01-.92-3.09h-1.21a14.09 14.09 0 01-.4 3.16 7.41 7.41 0 01-1 2.38l-.63-.45a6.05 6.05 0 00.82-2.24 16.23 16.23 0 00.29-3.23v-4.1h4.58V137h-1.65a8.52 8.52 0 00.81 2.64 7.09 7.09 0 001.62 2.23zm-1.11-9.33h-2.79v3.17h2.79zm5.43.42c-.29-.55-.53-1-.73-1.31l.9-.21c.28.52.55 1 .8 1.52h2.64c.38-.76.63-1.27.74-1.55l1 .24c-.23.43-.5.86-.8 1.31h3.18v.69h-10.8v-.69zm1.23 6.21h-2.79v2.72h-.87v-7.24h4.56v6.37a.71.71 0 01-.29.59 1.16 1.16 0 01-.72.21h-1.14l-.13-.76h.91a.51.51 0 00.32-.1.33.33 0 00.15-.27zm0-2.57v-1.3h-2.79v1.3zm-2.79 1.92h2.79v-1.27h-2.79zm5.07 1.16v-4.74h.89v4.74zm2.37 2.17H246l-.1-.8h1.24a.55.55 0 00.33-.11.39.39 0 00.14-.3V135h.89v6.66a.75.75 0 01-.28.62 1.09 1.09 0 01-.67.2zm4.73.1v-4.91l-1.85.1-.11-.68h.59c.28-.33.62-.75 1-1.28-.18-.2-.72-.74-1.63-1.61l.5-.46.23.2a12.8 12.8 0 001.16-1.93l.79.29a15.67 15.67 0 01-1.46 2.09l.87.81a17.78 17.78 0 001.26-1.95l.77.31a34.13 34.13 0 01-2.63 3.51l1.94-.13a7.77 7.77 0 00-.3-.89l.74-.17c.17.46.37 1.08.62 1.87l-.75.19c0-.08-.06-.22-.12-.4l-.82.08v5zM251 141.5l-.73-.12a12.5 12.5 0 00.51-2.89l.83.09a11.14 11.14 0 01-.61 2.92zm3-.75c-.13-.71-.25-1.44-.34-2.2.12 0 .37 0 .76-.08.15 1.07.27 1.78.35 2.14zm.58 1.58v-.68h2.92v-2.32h-2.2v-.72h2.2v-1.32h.9v1.32h2.36v.72h-2.36v2.32h2.89v.68zm3.5-6.16a12.31 12.31 0 01-2.91 1.37l-.3-.59a10.54 10.54 0 002.54-1.26 10 10 0 01-1.87-2l.64-.32a9.41 9.41 0 001.88 1.84 5.77 5.77 0 001.81-2H255v-.67h5.74l.38.34a7.72 7.72 0 01-2.34 2.83 13 13 0 002.64 1.22l-.46.66a13.59 13.59 0 01-2.83-1.42zm13.57 5.63h-7.87v.61h-.91v-8.25h4.34v-1.91h.93v1.91h4.44v8.25h-.93zm-4.44-6.92h-3.43v2.65h3.43zm-3.43 6.24h3.43v-2.89h-3.43zm7.87-3.59v-2.65h-3.51v2.65zm-3.51 3.59h3.51v-2.89h-3.51zm9.3-3.8a8.11 8.11 0 01-2 5.36h-1.13a6.86 6.86 0 001.54-2.14 7.45 7.45 0 000-6.35 6.86 6.86 0 00-1.54-2.14V132h1.13a8.19 8.19 0 012 5.32zM98.48 179.63a12.58 12.58 0 01-4.33 2.16l-.62-1.28a14 14 0 003.94-1.94h-2.64v-4.31h3.64v-.57H94v-1.21h4.45v-.8h1.63v.8h4.6v1.21h-4.6v.57h3.75v4.31H101a13.88 13.88 0 004.26 1.87l-.78 1.4a12.64 12.64 0 01-4.34-2.2v2.5h-1.66zm-2.1-3.63h2.09v-.62h-2.09zm2.09.93h-2.09v.63h2.09zm1.63-.93h2.17v-.62h-2.17zm2.17.93h-2.17v.63h2.17zm13.02 4.59h-5.55v-1.27h1.87v-5h-1.87v-1.16a3.2 3.2 0 001.57-.31 1.21 1.21 0 00.54-.94h1.62v7.43h1.82zm7.71-8.71v1.49h-.17a2.93 2.93 0 00-1.32-.27 2.42 2.42 0 00-2.64 2.47 4.06 4.06 0 012.07-.68 2.91 2.91 0 012.07.73 2.66 2.66 0 01.78 2 2.87 2.87 0 01-.94 2.23 3.42 3.42 0 01-2.42.87 3.25 3.25 0 01-2.59-1 4.44 4.44 0 01-.9-3 5.23 5.23 0 011.19-3.7 4.45 4.45 0 013.45-1.29 6.1 6.1 0 011.42.15zm-4.14 4.62v.54q0 2.43 1.59 2.43a1.33 1.33 0 001-.44 1.87 1.87 0 00.39-1.27c0-1.05-.56-1.58-1.66-1.58a3.2 3.2 0 00-1.29.32zm13.25 1.89a10.71 10.71 0 01-1.85 1.5 11.68 11.68 0 01-2 1.13l-.83-1.22a14.82 14.82 0 002.07-1.21 13.26 13.26 0 001.33-1.17zm1.95 2.87h-1.75v-4c-2.12.12-3.6.19-4.43.2l-.19-1.45h.31q.95 0 2.94-.06a26 26 0 00-2.39-2l1.06-1a10 10 0 01.89.66 12.86 12.86 0 00.88-1c-1.27.08-2.25.11-2.92.11l-.2-1.33c2.16 0 4-.11 5.57-.25a22.73 22.73 0 003.28-.48l.78 1.25a34.3 34.3 0 01-4.46.57 21 21 0 01-1.85 2l.93.8a19.29 19.29 0 002.9-2.93l1.49.76a22.77 22.77 0 01-2.9 2.71l2.16-.12c-.22-.29-.45-.58-.69-.86l1.28-.71a25.84 25.84 0 012.33 3l-1.42.73-.61-.88q-1 .09-2.94.21zm4.87-1.61l-1 1.34a13.49 13.49 0 01-2.05-1.29 7.85 7.85 0 01-1.56-1.43l1.13-1a14.3 14.3 0 001.65 1.37 12 12 0 001.83 1.01zm2.16-2.46a13 13 0 01-.69 3.38l-1-.24a16.22 16.22 0 00.54-3.21zm1.6 4.08h-1.4v-4.58c-.74.07-1.31.11-1.72.12l-.14-1.13h.9c.27-.35.5-.66.7-.94q-.85-1-1.59-1.74l.81-.85.18.18a10.29 10.29 0 00.94-1.72l1.23.47a15.45 15.45 0 01-1.37 2.1l.5.56a13.37 13.37 0 001.1-1.89l1.22.55a25.33 25.33 0 01-2.25 3.21c.43 0 .81-.05 1.14-.08a5.6 5.6 0 00-.29-.81l1.06-.3c.19.51.42 1.25.7 2.19l-1.09.28a4.18 4.18 0 00-.09-.41l-.54.08zm1.67-1.88l-1.11.21c-.19-1.13-.3-1.93-.35-2.39l1.1-.14zm2.41-2.17a4.68 4.68 0 01-.59 2.37 4.07 4.07 0 01-1.75 1.6l-.76-1a3.13 3.13 0 001.3-1.37 4 4 0 00.34-1.65v-1h1.46zm2.13-1.53c-1 .13-2.52.27-4.49.42l-.23-1.26h.84c.22-.46.44-1 .66-1.53h-1.39V173h2.25v-1.3H148v1.3h2.45v1.2h-3.25c-.18.43-.42.91-.7 1.44.69 0 1.28-.09 1.79-.14l-.49-.76.05-.1 1.18-.4a20 20 0 011.67 2.76l-1.38.51q-.18-.44-.42-.89zm1.85 4.2a1.35 1.35 0 01-.14.64.88.88 0 01-.41.4 1.76 1.76 0 01-.5.15h-.7a4.28 4.28 0 01-.86-.05 1.2 1.2 0 01-.42-.17.86.86 0 01-.29-.36 1.34 1.34 0 01-.1-.56v-3.81h1.44v3.44c0 .14.06.21.17.21h.3a.21.21 0 00.16-.06.18.18 0 00.07-.15v-1.42l1.21.16zm7.15-3.88h-2v-2.09h2zm0 4.58h-2v-2.1h2zm-63.99 19.61l-.32-.7a9.62 9.62 0 001.79-.66 13.45 13.45 0 001.77-1 6.74 6.74 0 001.27-1h-3.31v-4.12h3.75v-1h-4.81V192h4.81v-1h.9v1h4.92v.71h-4.92v1h3.81v4.12h-3.5a11.66 11.66 0 002.44 1.59 13 13 0 002.61 1l-.45.76a12.34 12.34 0 01-2.62-1.08 12.92 12.92 0 01-2.3-1.54v3.1h-.88v-3.11a10.41 10.41 0 01-2.22 1.45 13.36 13.36 0 01-2.74 1.13zm2-5.75h2.91v-1.08H96zm2.91.61H96v1.14h2.91zm.88-.61h2.94v-1.08h-2.89zm2.94.61h-2.89v1.14h2.94zm3.41 4.91l-.5-.61a11.26 11.26 0 003-2.54l.75.47a9.11 9.11 0 01-1.53 1.5 9.86 9.86 0 01-1.72 1.18zm-.23-8.15V192h4.86v-1h.94v1h4.92v.71zm4.81 8.73h-1.51l-.08-.8h1.18c.33 0 .5-.14.5-.42v-3.12H107v-3.24h8.41v3.24h-3.75v3.5a.72.72 0 01-.31.6 1.11 1.11 0 01-.72.24zm3.87-6.9h-6.63v1.88h6.63zm1.79 6.24a11.36 11.36 0 01-1.67-1.13 11.78 11.78 0 01-1.59-1.42l.68-.52a11.67 11.67 0 001.59 1.39 9.3 9.3 0 001.56 1zm1.59.18l-.59-.25a10.64 10.64 0 00.47-2.67l.6.08a11.55 11.55 0 01-.16 1.46 7.11 7.11 0 01-.32 1.38zm3-4.34h1.6c0 1.23 0 2.18-.12 2.84a4.09 4.09 0 01-.27 1.29 1.33 1.33 0 01-.49.48 1.92 1.92 0 01-.92.18h-1l-.08-.71a10.87 10.87 0 001.15 0 .84.84 0 00.4-.22 1.12 1.12 0 00.27-.48 5 5 0 00.11-.91v-1.78h-2.83v.22h-.7v-6.07h4.57v.64h-1.69v1.12h1.36v.61h-1.36v1.07h1.39v.62h-1.39zm-2 3.52l-.13-2.1.48-.06.14 2.11zm-.12-8.08v1.12h1.33v-1.12zm0 1.73v1.07h1.33v-1.07zm0 1.69v1.14h1.33v-1.14zm1.21 4.21l-.29-1.8.43-.08.31 1.82zm.87-.54l-.29-1.42.38-.09.3 1.42zm7.45 2.23a7.71 7.71 0 01-1.76-2.42 10.44 10.44 0 01-.93-3.09h-1.21a13.09 13.09 0 01-.4 3.16 7.52 7.52 0 01-1 2.38l-.63-.45a6.24 6.24 0 00.82-2.24 17 17 0 00.29-3.23v-4.1h4.57V196h-1.64a8.68 8.68 0 00.81 2.64 7.21 7.21 0 001.62 2.23zm-1.11-9.33h-2.79v3.17h2.79zm2.62 9.27l-.55-.56a8.38 8.38 0 002.18-3.14 11.51 11.51 0 00.86-4.1l1 .05c-.29 3.39-1.39 6.01-3.49 7.75zm10.16 0a12.92 12.92 0 01-2.41-4 14.42 14.42 0 01-1.08-4.86h-4.74v-.7h5.66v.11a13.12 13.12 0 00.32 3 13.64 13.64 0 001.14 3 11.87 11.87 0 001.87 2.77zm1.32-.05v-.68h5v-.93H142v-.7h4.3v-.84h-3.84v-3.71h3.84v-.79h-4.88V193h4.88v-.82c-1.54.07-2.78.11-3.74.12l-.11-.65c1.2 0 2.61 0 4.24-.14s2.9-.21 3.8-.35l.37.66c-.64.11-1.87.21-3.68.31v.87h4.94v.66h-4.94v.79h4v3.71h-4v.84h4.43v.71h-4.43v.93h5v.68zm5-6.25h-3v.94h3zm0 1.5h-3v1h3zm4-1.5h-3.12v.94h3.12zm0 1.5h-3.12v1h3.12zm4.16-.34a18.93 18.93 0 00-1.27-1.6l.64-.49a18.39 18.39 0 011.28 1.57zm-.27 5l-.76-.48a9.26 9.26 0 00.79-1.7 18.06 18.06 0 00.64-2l.75.27c-.12.49-.32 1.14-.61 2a15.46 15.46 0 01-.81 1.92zm.78-7.83l-1.32-1.58.62-.5c.32.35.76.87 1.31 1.53zm1.21 3.48l-.73-.21a11.63 11.63 0 00.41-3l.76.06a11.75 11.75 0 01-.44 3.16zm.06 4.59l-.55-.5a7.21 7.21 0 001.17-2.54 12.08 12.08 0 00.43-3.25v-4h.82V195q0 4.23-1.87 6.47zm2.67-4.8c-.1-.7-.26-1.66-.48-2.9l.64-.13c.06.27.24 1.24.52 2.89zm1 4.65v-10h.82v10zm1.67-4.64c-.11-.7-.29-1.66-.53-2.88l.64-.16c.19.76.39 1.73.6 2.89zm1 4.83v-10.44h.86v10.45zm11.67-1.26h-7.58v.89h-.92V192h9.45v9.17h-1zm-7.58-.76h7.58v-6.78h-7.58zm20.9 2.17h-1.14a8.17 8.17 0 010-10.73h1.14v.08a6.7 6.7 0 00-1.54 2.13 7.45 7.45 0 000 6.35 6.75 6.75 0 001.54 2.14zm4.31-1.07l-.6-1.28h-1.13v-2.21h8.23v2.21h-1.25l-.75 1.28h3.37v.67h-10.95v-.67zm-3-4.21v-.64h10.74v.64zm3.64-4.67v-.57h.86v.57h1.71v-.57h.85v.57h2.79v3.3h-8.89v-3.3zm-1.81 1.37h1.81v-.8h-1.81zm1.81.51h-1.81v.84h1.81zm5 4.13H191v1h6.51zm-5.3 1.59l.55 1.28h2.75l.66-1.28zm1.19-6.23h1.71v-.8h-1.71zm1.71.51h-1.71v.84h1.71zm.85-.51h1.91v-.8h-1.91zm1.91.51h-1.91v.84h1.91zm3.99 2.64a18.56 18.56 0 00-1.26-1.6l.63-.49a19 19 0 011.29 1.57zm-.26 5l-.76-.48a9.26 9.26 0 00.79-1.7 16 16 0 00.63-2l.75.27a22.91 22.91 0 01-1.41 3.91zm.77-7.83c0-.06-.48-.58-1.32-1.58l.62-.5c.33.35.77.87 1.32 1.53zm1.21 3.48l-.73-.21a11.21 11.21 0 00.41-3l.77.06a11.65 11.65 0 01-.45 3.16zm.06 4.59l-.54-.5a7.59 7.59 0 001.17-2.54 12.48 12.48 0 00.42-3.25v-4h.83V195a9.83 9.83 0 01-1.88 6.47zm2.67-4.8c-.09-.7-.25-1.66-.47-2.9l.63-.13c.07.27.24 1.24.52 2.89zm1 4.65v-10h.82v10zm1.67-4.64c-.12-.7-.29-1.66-.53-2.88l.63-.16c.2.76.4 1.73.6 2.89zm1 4.83v-10.44h.86v10.45zm2.74-.5l-.59-.25a10.64 10.64 0 00.47-2.67l.6.08a11.55 11.55 0 01-.16 1.46 7.11 7.11 0 01-.32 1.38zm3-4.34h1.6c0 1.23 0 2.18-.12 2.84a4.09 4.09 0 01-.27 1.29 1.41 1.41 0 01-.49.48 1.92 1.92 0 01-.92.18h-1l-.08-.71a10.87 10.87 0 001.15 0 .84.84 0 00.4-.22 1.12 1.12 0 00.27-.48 5 5 0 00.11-.91v-1.78h-2.83v.22h-.77v-6.07h4.57v.64h-1.69v1.12H217v.61h-1.36v1.07h1.39v.62h-1.39zm-2 3.52l-.13-2.1.48-.06.14 2.11zm-.12-8.08v1.12H215v-1.12zm0 1.73v1.07H215v-1.07zm0 1.69v1.14H215v-1.14zm1.21 4.21l-.29-1.8.43-.08.31 1.82zm.87-.54l-.29-1.42.38-.09.3 1.42zm7.45 2.23a7.71 7.71 0 01-1.76-2.42 10.44 10.44 0 01-.93-3.09h-1.21a13.09 13.09 0 01-.4 3.16 7.52 7.52 0 01-1 2.38l-.63-.45a6.24 6.24 0 00.82-2.24 17 17 0 00.29-3.23v-4.1h4.7V196h-1.64a8.68 8.68 0 00.81 2.64 7.21 7.21 0 001.62 2.23zm-1.11-9.33h-2.79v3.17h2.79zm5.44.45c-.29-.54-.53-1-.72-1.3l.89-.21c.29.52.55 1 .81 1.51h2.63c.38-.75.63-1.27.75-1.55l1 .25c-.24.43-.5.86-.8 1.3h3.17v.7h-10.8v-.7zm1.24 6.22h-2.8v2.72H225v-7.24h4.56v6.36a.69.69 0 01-.28.59 1.12 1.12 0 01-.72.22h-1.15l-.12-.76h.91a.56.56 0 00.32-.11.31.31 0 00.15-.26zm0-2.57v-1.3h-2.8v1.3zm-2.8 1.92h2.8v-1.27h-2.8zm5.07 1.16v-4.74h.89v4.74zm2.38 2.16h-1.52l-.1-.79H233a.48.48 0 00.33-.12.34.34 0 00.15-.29v-6.31h.89v6.67a.77.77 0 01-.29.62 1.06 1.06 0 01-.74.22zm4.72.11v-4.91c-.42 0-1 .05-1.85.1l-.11-.69h.6c.27-.33.61-.76 1-1.29-.18-.2-.73-.73-1.63-1.6l.5-.46.22.2A12.39 12.39 0 00238 191l.79.3a15.4 15.4 0 01-1.46 2.09l.87.8a17.31 17.31 0 001.27-1.94l.77.31a35.65 35.65 0 01-2.64 3.5q.8 0 1.95-.12c-.14-.44-.24-.74-.3-.89l.74-.17c.16.46.37 1.08.61 1.86l-.74.19c0-.08-.07-.21-.13-.39l-.82.08v5zm-1.24-1.08l-.73-.12a12.5 12.5 0 00.51-2.89l.82.08a11.69 11.69 0 01-.6 2.93zm3-.75c-.14-.71-.25-1.44-.34-2.2l.75-.08c.15 1.07.27 1.78.36 2.14zm.58 1.58v-.69h2.92v-2.32h-2.21v-.71h2.21v-1.32h.9v1.32h2.36v.71h-2.36v2.32h2.89v.69zm3.49-6.16a12.83 12.83 0 01-2.9 1.37l-.3-.59a11.76 11.76 0 002.54-1.26 10 10 0 01-1.88-2l.65-.33a8.94 8.94 0 001.88 1.85 5.73 5.73 0 001.8-2h-4.92v-.68h5.74l.38.34a7.61 7.61 0 01-2.33 2.84 13.75 13.75 0 002.63 1.22l-.46.66a13.85 13.85 0 01-2.81-1.42zm13.54 5.63h-7.87v.61h-.91v-8.25H253v-1.91h.93v1.91h4.44v8.25h-.94zm-4.43-6.93h-3.44v2.66H253zm-3.44 6.24H253v-2.89h-3.44zm7.87-3.58v-2.66h-3.5v2.66zm-3.5 3.58h3.5v-2.89h-3.5zm9.29-3.8a8.15 8.15 0 01-2 5.37h-1.14a6.73 6.73 0 001.55-2.13 7.43 7.43 0 00.71-3.19 7.33 7.33 0 00-.71-3.16 6.77 6.77 0 00-1.55-2.14v-.06h1.14a8.19 8.19 0 012 5.31zm-164.36 53.2h-3v5.6H94.3v-10.26h4.56zm-1.48-2.79v-.79h-1.55v.79zm0 1.68v-.8h-1.55v.8zm7.06 5.52a1 1 0 01-.39.77 1.43 1.43 0 01-.92.32h-1.81l-.16-1.45h1.34a.37.37 0 00.25-.1.31.31 0 00.12-.24v-3.71h-3.1v-4.66h4.67zm-3.17-7.2h1.6v-.79h-1.6zm1.6.88h-1.6v.8h1.6zm12.42 6.85h-5.55v-1.27h1.87v-5h-1.87V247a3.09 3.09 0 001.57-.31 1.21 1.21 0 00.54-.94h1.62v7.43h1.82zm2.27.04V253h.18a3.32 3.32 0 001.33.25 2.42 2.42 0 002.64-2.48 4 4 0 01-2.06.69 2.88 2.88 0 01-2.06-.73 2.63 2.63 0 01-.79-2.05 2.87 2.87 0 01.94-2.23 3.46 3.46 0 012.44-.87 3.25 3.25 0 012.57 1 4.36 4.36 0 01.91 3 5.27 5.27 0 01-1.2 3.71 4.44 4.44 0 01-3.46 1.3 5.43 5.43 0 01-1.44-.14zm4.16-4.62v-.56c0-1.61-.52-2.42-1.57-2.42a1.32 1.32 0 00-1 .46 1.81 1.81 0 00-.4 1.25c0 1.05.56 1.58 1.68 1.58a3.09 3.09 0 001.29-.31zm10.39 2.39a11.73 11.73 0 01-1.85 1.5 13.18 13.18 0 01-2 1.13l-.83-1.23a14.82 14.82 0 002.07-1.21 13.15 13.15 0 001.33-1.16zm1.95 2.86h-1.75v-4c-2.12.12-3.6.18-4.43.19l-.19-1.45h.31q.95 0 2.94-.06a27.71 27.71 0 00-2.39-2l1.06-1a9 9 0 01.89.67c.32-.32.61-.64.88-.95-1.27.07-2.25.11-2.92.11l-.2-1.34c2.16 0 4-.1 5.57-.25a20.16 20.16 0 003.28-.48l.78 1.25a34.3 34.3 0 01-4.46.57 21 21 0 01-1.85 2l.93.8a19.28 19.28 0 002.9-2.92l1.49.76a23.51 23.51 0 01-2.9 2.71l2.16-.13c-.22-.29-.45-.58-.69-.86l1.28-.71a25.3 25.3 0 012.33 3l-1.42.73-.61-.89q-1 .09-2.94.21zm4.87-1.61l-1 1.34a13.36 13.36 0 01-2.05-1.28 7.84 7.84 0 01-1.56-1.44l1.13-1a13.33 13.33 0 001.65 1.37 12 12 0 001.83 1.01zm2.16-2.47a13.15 13.15 0 01-.69 3.38l-1-.25a16.22 16.22 0 00.54-3.21zm1.6 4.07h-1.4v-4.58c-.74.07-1.31.11-1.72.13l-.14-1.14h.9c.27-.35.5-.67.7-.94-.57-.67-1.1-1.25-1.59-1.75l.81-.84.18.18a10.76 10.76 0 00.94-1.73l1.23.48a16.8 16.8 0 01-1.37 2.1l.5.55a13.37 13.37 0 001.1-1.89l1.22.55a26.09 26.09 0 01-2.25 3.22l1.14-.08a5.89 5.89 0 00-.29-.82l1.06-.3c.19.52.42 1.25.7 2.19l-1.09.29a3.22 3.22 0 00-.09-.41l-.54.07zm1.67-1.88l-1.11.21c-.19-1.13-.3-1.93-.35-2.39l1.09-.17zm2.41-2.17a4.63 4.63 0 01-.59 2.37 4.07 4.07 0 01-1.75 1.6l-.76-1a3.11 3.11 0 001.3-1.36 4 4 0 00.34-1.65V250h1.46zm2.13-1.53c-1 .14-2.52.27-4.49.42l-.23-1.26h.84q.33-.67.66-1.53h-1.39v-1.2h2.25v-1.32H148v1.31h2.45v1.2h-3.25c-.18.43-.42.91-.7 1.44.69 0 1.28-.09 1.79-.13-.15-.25-.31-.5-.49-.76l.05-.1 1.18-.41a20.61 20.61 0 011.66 2.72l-1.38.51q-.17-.38-.41-.87zm1.85 4.21a1.41 1.41 0 01-.14.64.91.91 0 01-.41.39 1.29 1.29 0 01-.5.15h-.68a5.22 5.22 0 01-.86 0 1.22 1.22 0 01-.42-.18.75.75 0 01-.29-.36 1.32 1.32 0 01-.1-.55V250h1.44v3.45c0 .13.06.2.17.2h.3a.25.25 0 00.16-.05.21.21 0 00.07-.15v-1.43l1.21.17zm7.15-3.86h-2v-2.1h2zm0 4.57h-2v-2.1h2zm-62.53 14.27v5.7h-.88v-10h4.12v4.29zm2.35-3.63h-2.35v1.15h2.35zm-2.35 1.77V268h2.35v-1.17zm7.82 7.49h-1.68l-.1-.81h1.41a.54.54 0 00.33-.12.36.36 0 00.15-.29v-4.41H100v-4.29h4.18v9.09a.73.73 0 01-.3.59 1.07 1.07 0 01-.69.24zm-2.28-8.11h2.39v-1.15h-2.39zm2.39.62h-2.39V268h2.39zm5.62-1.38c-.29-.55-.53-1-.73-1.31l.89-.21c.29.52.56 1 .81 1.52h2.64c.38-.76.62-1.27.74-1.55l1 .24c-.24.43-.5.86-.8 1.31h3.17v.69h-10.8v-.69zm1.23 6.21h-2.8v2.72h-.87v-7.24h4.57v6.37a.71.71 0 01-.29.59 1.18 1.18 0 01-.72.21h-1.15l-.12-.76h.91a.53.53 0 00.32-.1.32.32 0 00.15-.27zm0-2.57v-1.29h-2.8v1.29zm-2.8 1.92h2.8v-1.27h-2.8zm5.07 1.16v-4.74h.89v4.74zm2.38 2.17h-1.52l-.1-.8h1.23a.58.58 0 00.34-.11.39.39 0 00.14-.3v-6.3h.89v6.67a.74.74 0 01-.28.61 1.09 1.09 0 01-.7.23zm4.3.12v-6.05a13.93 13.93 0 01-1.32 1.8l-.55-.46a18.23 18.23 0 001.79-2.89 12.7 12.7 0 001.09-2.94l.91.11a16.87 16.87 0 01-1.39 3.41h.37v7zm8.24-3.79h-2.18v3.75h-.89v-3.75h-2.14v.55h-.87v-5.54h3v-1.78h.89v1.78h3.05v5.54h-.87zm-5.21-.69h2.14v-3.62h-2.14zm3 0h2.18v-3.62h-2.18zm5.73 1.94v.8H130v-8.45h5.43v.53h4.91v.69h-1.6v7.94a.77.77 0 01-.3.64 1.1 1.1 0 01-.73.25h-1.81l-.09-.81h1.51a.64.64 0 00.38-.12.38.38 0 00.16-.31v-7.59h-2.43v6.43zm1.47-4.29v-2.71h-1.47v2.71zm0 3.61v-3h-1.47v3zm.84-6.32v2.71h1.46v-2.71zm0 3.34v3h1.46v-3zm18.83 6.29h-1.14a8.17 8.17 0 010-10.73H152v.06a6.93 6.93 0 00-1.55 2.14 7.29 7.29 0 00-.7 3.16 7.46 7.46 0 00.7 3.19 6.88 6.88 0 001.55 2.13zm4.3-1.07l-.61-1.27h-1.12V270h8.23v2.22h-1.25l-.75 1.27h3.37v.68h-10.95v-.68zm-3-4.21v-.63h10.74v.63zm3.7-4.66v-.6h.86v.58h1.71V264h.85v.58h2.79v3.28h-8.89v-3.26zm-1.86 1.4H157v-.81h-1.82zm1.82.5h-1.82v.84H157zm5 4.13h-6.51v1h6.51zm-5.3 1.6l.55 1.27h2.75l.66-1.27zm1.19-6.23h1.71v-.81h-1.71zm1.71.5h-1.71v.84h1.71zm.85-.5h1.91v-.81h-1.91zm1.91.5h-1.91v.84h1.91zm3.97 2.62a15.86 15.86 0 00-1.27-1.61l.64-.48a19.42 19.42 0 011.34 1.57zm-.26 5l-.76-.48a10.19 10.19 0 00.79-1.69 16.08 16.08 0 00.63-2l.75.27a18.74 18.74 0 01-.61 2 16.6 16.6 0 01-.83 1.9zm.77-7.83c0-.06-.48-.58-1.32-1.57l.62-.51c.33.36.77.87 1.31 1.54zm1.21 3.49l-.73-.22a11.63 11.63 0 00.41-3l.77.06a12.25 12.25 0 01-.46 3.16zm.06 4.58l-.55-.49a7.55 7.55 0 001.18-2.55 12.43 12.43 0 00.42-3.25v-4h.82v3.82c0 2.82-.62 4.98-1.87 6.47zm2.67-4.8c-.09-.69-.25-1.66-.47-2.9l.63-.13c.07.28.24 1.24.52 2.89zm1 4.66v-10h.82v10zm1.67-4.64c-.12-.71-.29-1.67-.53-2.88l.63-.17c.2.77.39 1.73.6 2.89zm1 4.83V264h.86v10.45zm2.74-.48l-.6-.25A10.2 10.2 0 00177 271l.6.08a11.62 11.62 0 01-.16 1.45 7.11 7.11 0 01-.29 1.4zm3-4.34h1.6c0 1.24 0 2.18-.12 2.84a4 4 0 01-.27 1.29 1.26 1.26 0 01-.49.48 2 2 0 01-.92.18h-1l-.08-.71a8.55 8.55 0 001.15 0 .82.82 0 00.4-.21 1 1 0 00.26-.48 4.27 4.27 0 00.12-.91v-1.79h-2.83v.22h-.77v-6.07h4.57v.57h-1.69v1.13h1.35v.61h-1.35v1.07h1.39v.61h-1.39zm-2 3.53l-.14-2.1.49-.07.13 2.11zm-.12-8.09v1.13h1.33V265zm0 1.74v1.07h1.33v-1.07zm0 1.68v1.14h1.33v-1.14zm1.21 4.21l-.29-1.8.43-.08.31 1.82zm.87-.54l-.29-1.42.38-.08.3 1.41zm7.45 2.23a7.6 7.6 0 01-1.76-2.42 10.07 10.07 0 01-.93-3.09h-1.21a13.69 13.69 0 01-.4 3.17 7.36 7.36 0 01-1 2.37l-.63-.45a6.06 6.06 0 00.81-2.24 16.13 16.13 0 00.3-3.23v-4.1h4.57v4.48h-1.64a8.52 8.52 0 00.81 2.64 7.09 7.09 0 001.62 2.23zM186.5 265h-2.79v3.17h2.79zm5.39.44c-.29-.55-.53-1-.72-1.31l.89-.21c.29.52.55 1 .8 1.52h2.64c.38-.76.63-1.27.74-1.55l1 .24c-.24.43-.51.86-.8 1.31h3.17v.69h-10.8v-.69zm1.23 6.21h-2.79v2.72h-.87v-7.24H194v6.37a.7.7 0 01-.28.59 1.19 1.19 0 01-.73.21h-1.14l-.12-.76h.91a.55.55 0 00.32-.1.31.31 0 00.14-.27zm0-2.57v-1.29h-2.79v1.29zm-2.79 1.92h2.79v-1.27h-2.79zm5.07 1.16v-4.74h.89v4.74zm2.38 2.17h-1.52l-.1-.8h1.23a.52.52 0 00.33-.11.37.37 0 00.15-.3v-6.3h.89v6.67a.75.75 0 01-.29.61 1.08 1.08 0 01-.69.23zm4.72.11v-4.92l-1.85.1-.11-.68h.6c.27-.33.61-.75 1-1.28-.18-.2-.73-.74-1.63-1.61l.49-.46.23.2a12.33 12.33 0 001.16-1.93l.79.29a15.67 15.67 0 01-1.46 2.09l.87.81a18.19 18.19 0 001.27-2l.77.31a35.77 35.77 0 01-2.64 3.51l1.95-.13c-.14-.44-.24-.74-.3-.89l.74-.17c.16.46.36 1.08.61 1.87l-.74.19c0-.08-.07-.22-.13-.4l-.82.08v5zm-1.24-1.09l-.73-.12a13.66 13.66 0 00.51-2.89l.82.09a11.69 11.69 0 01-.6 2.92zm3-.75c-.14-.71-.25-1.44-.34-2.2.11 0 .36 0 .75-.08.15 1.07.27 1.78.36 2.14zm.58 1.58v-.68h2.91v-2.32h-2.2v-.72h2.2v-1.32h.91v1.32H211v.72h-2.36v2.32h2.89v.68zm3.49-6.16a12.41 12.41 0 01-2.9 1.37l-.3-.59a10.91 10.91 0 002.54-1.26 9.75 9.75 0 01-1.88-2l.64-.32a9.48 9.48 0 001.89 1.84 5.83 5.83 0 001.8-2h-4.92v-.67h5.8l.38.34a7.68 7.68 0 01-2.33 2.83 12.91 12.91 0 002.63 1.22l-.46.66a12.9 12.9 0 01-2.87-1.44zm13.54 5.63H214v.61h-.91V266h4.34v-1.9h.94v1.9h4.44v8.25h-.94zm-4.44-6.92H214v2.65h3.43zM214 273h3.43v-2.89H214zm7.87-3.59v-2.65h-3.5v2.65zm-3.5 3.59h3.5v-2.89h-3.5zm9.29-3.83a8.15 8.15 0 01-2 5.36h-1.14a6.89 6.89 0 001.55-2.14 7.55 7.55 0 000-6.35 6.89 6.89 0 00-1.55-2.14v-.06h1.14a8.23 8.23 0 012 5.33zm184.83-64.76l-.4.38-4-4-4 4-.41-.38 4-4-4-4 .4-.38 4 4 4-4.09.4.38-4 4.07zm-8.78-4a.68.68 0 01.69-.69.66.66 0 01.48.2.67.67 0 010 1 .66.66 0 01-.48.2.68.68 0 01-.69-.68zm3.67-3.54a.63.63 0 01.21-.48.62.62 0 01.48-.2.68.68 0 01.49 1.16.7.7 0 01-.49.2.66.66 0 01-.48-.2.63.63 0 01-.21-.52zm0 7a.67.67 0 01.21-.49.66.66 0 01.48-.2.68.68 0 01.69.69.67.67 0 01-.2.48.7.7 0 01-.49.2.66.66 0 01-.48-.2.64.64 0 01-.21-.48zm3.67-3.5a.7.7 0 01.2-.49.68.68 0 01.49-.2.66.66 0 01.48.2.69.69 0 010 1 .66.66 0 01-.48.2.68.68 0 01-.49-.2.69.69 0 01-.2-.51zm6.57 3.96l-.6-1.28h-1.13v-2.21h8.23v2.21h-1.25l-.75 1.28h3.37v.67h-10.95v-.68zm-3-4.21v-.64h10.74v.64zm3.64-4.67v-.57h.86v.57h1.71v-.57h.85v.57h2.79v3.29h-8.87v-3.29zm-1.81 1.37h1.81V196h-1.81zm1.81.51h-1.81v.84h1.81zm5 4.13h-6.51v1h6.51zm-5.3 1.59l.55 1.28h2.75l.66-1.28zm1.19-6.23h1.71V196h-1.71zm1.71.51h-1.71v.84h1.71zm.85-.51h1.91V196h-1.92zm1.91.51h-1.92v.84h1.91zm3.99 2.67a18.56 18.56 0 00-1.26-1.6l.63-.49a17.24 17.24 0 011.29 1.58zm-.26 5l-.76-.48a9.44 9.44 0 00.79-1.69 16.08 16.08 0 00.63-2l.75.27a22.91 22.91 0 01-1.41 3.91zm.77-7.83c0-.06-.48-.58-1.32-1.57l.62-.51c.33.36.77.87 1.32 1.54zm1.21 3.49l-.73-.22a11.63 11.63 0 00.41-3l.77.06a12.25 12.25 0 01-.45 3.14zm.06 4.58l-.54-.5a7.59 7.59 0 001.17-2.54 12.43 12.43 0 00.42-3.25v-4h.83v3.82c0 2.8-.63 4.96-1.88 6.45zm2.67-4.8c-.09-.7-.25-1.66-.47-2.9l.63-.13c.07.28.24 1.24.52 2.89zm1 4.66v-10h.82v10zm1.67-4.65c-.12-.7-.29-1.66-.53-2.87l.63-.17c.2.77.4 1.73.6 2.89zm1 4.84v-10.47h.86v10.45zm2.74-.5l-.6-.25a10.2 10.2 0 00.48-2.67l.6.08a11.55 11.55 0 01-.16 1.46 7.11 7.11 0 01-.32 1.38zm3-4.34h1.6c0 1.23-.05 2.18-.12 2.84a4 4 0 01-.27 1.29 1.33 1.33 0 01-.49.48 1.92 1.92 0 01-.92.18h-.95l-.08-.71a8.55 8.55 0 001.15 0 .77.77 0 00.4-.22 1 1 0 00.27-.48 5 5 0 00.11-.91v-1.78h-2.83v.22h-.77v-6.07h4.57v.64h-1.69V197h1.36v.61h-1.36v1.08h1.39v.61h-1.39zm-2 3.53l-.13-2.11.48-.06.13 2.11zm-.12-8.09V197h1.33v-1.12zm0 1.73v1.08h1.33v-1.08zm0 1.69v1.14h1.33v-1.14zm1.21 4.21l-.29-1.8.43-.08.31 1.82zm.87-.54l-.29-1.42.38-.08.3 1.41zm7.45 2.23a7.71 7.71 0 01-1.76-2.42 10.07 10.07 0 01-.93-3.09H445a13.61 13.61 0 01-.41 3.16 7.42 7.42 0 01-1 2.38l-.63-.45a6.24 6.24 0 00.82-2.24 17 17 0 00.29-3.23v-4.1h4.57v4.48H447a8.6 8.6 0 00.81 2.64 7.21 7.21 0 001.62 2.23zm-1.11-9.33H445v3.17h2.78zm5.41.41c0 .34 0 .74-.06 1.18h1.32a1.64 1.64 0 011.35.59 2.45 2.45 0 01.47 1.53 13.08 13.08 0 01-.51 4.27c-.34.83-.78 1.22-1.34 1.17a4.62 4.62 0 01-1.64-.52l.29-.73c.2.09.4.18.59.25a4.76 4.76 0 00.65.16c.18 0 .36-.16.55-.53a4.17 4.17 0 00.39-1.48 20 20 0 00.1-2.2 2.13 2.13 0 00-.33-1.45 1.24 1.24 0 00-.85-.3h-1.09a15.44 15.44 0 01-.93 4.13 13.19 13.19 0 01-1.57 2.84l-.65-.47a13.63 13.63 0 001.43-2.72 12.7 12.7 0 00.78-3.76h-1.8v-.77h1.87v-2.22h.94zm5.8 4.65l-.9.24a11.25 11.25 0 00-2-4.49l.67-.46a9.52 9.52 0 011.43 2.32 11 11 0 01.82 2.39zm2.48 4.06l-.09-.79a7.82 7.82 0 003.64-.59 1.9 1.9 0 001-1.65 2.17 2.17 0 00-.54-1.44 1.92 1.92 0 00-1.49-.62 4.11 4.11 0 00-2.11.59 3.94 3.94 0 00-1.52 1.51l-.63-.43a14.19 14.19 0 00.84-4.68h.93a17.48 17.48 0 01-.45 3.25 5.59 5.59 0 011.42-.78 4.9 4.9 0 011.6-.23 2.81 2.81 0 012.08.82 2.55 2.55 0 01.7 1.91 2.67 2.67 0 01-1.18 2.29 7.31 7.31 0 01-4.06.82zm4.58-8.23l-.33.73c-.2-.12-.49-.26-.88-.44s-.82-.34-1.3-.5-1.19-.36-2.14-.58l.2-.73a20.09 20.09 0 012.8.81 12 12 0 011.61.72zm3.69 7.91l-.86.19a13.93 13.93 0 01-.59-4.11 19.14 19.14 0 01.79-5.22l.89.16a17 17 0 00-.8 5 14.15 14.15 0 00.57 3.98zm7.64-1.17l-.46.66c-.48-.38-1.09-.84-1.85-1.37v.35a1.68 1.68 0 01-.48 1.31 2.4 2.4 0 01-1.62.43 2.2 2.2 0 01-1.41-.45 1.49 1.49 0 01-.57-1.22 1.54 1.54 0 01.57-1.26 2 2 0 011.32-.48 5.75 5.75 0 011.34.19v-3.4H471v-.78h3.19v-2.11h.86v2.11H477v.78h-1.93V202a17.85 17.85 0 012.3 1.51zm-3.16-.36v-.68a2.53 2.53 0 00-1.22-.27 1.54 1.54 0 00-.79.23.9.9 0 00-.42.74 1 1 0 00.37.73 1.4 1.4 0 00.86.26c.8 0 1.2-.34 1.2-1.01zm4.56 1.11l-.76-.15a10.17 10.17 0 00.53-2.88l.84.06a12.27 12.27 0 01-.61 2.97zm1.34 1v-4.91l-1.94.11-.1-.73h.82c.32-.37.66-.78 1-1.23-.55-.57-1.13-1.14-1.75-1.7l.58-.52.21.19a11 11 0 001.16-1.77l.79.29a17.8 17.8 0 01-1.45 2l.94.93a16.24 16.24 0 001.32-2l.82.31a32.77 32.77 0 01-2.73 3.49l1.9-.1c-.12-.39-.22-.68-.29-.86l.69-.19a17.9 17.9 0 01.66 1.88l-.74.19c0-.08-.06-.22-.12-.4l-.88.09v5zm2.11-1.54l-.39-2.44.8-.09.39 2.41zm6.3-3.64a25.83 25.83 0 01-.12 2.72 7.76 7.76 0 01-.27 1.47 1.36 1.36 0 01-.54.61 1.57 1.57 0 01-.91.27h-1.58l-.12-.8h.9a4.78 4.78 0 00.8 0 .79.79 0 00.38-.22 1.25 1.25 0 00.29-.54 6.94 6.94 0 00.18-1.38c.05-.69.07-1.58.07-2.68v-2.61h-3.16a10.25 10.25 0 01-1.15 2.25l-.72-.35a11.07 11.07 0 001.6-4.06l.92.13a12 12 0 01-.41 1.36h3.84zm-3.17 1.65c-.58-1.51-1-2.47-1.18-2.88l.8-.3a27.75 27.75 0 011.22 2.87zm13.77 2.83h-5.84v-1.12c.62-.53 1.31-1.15 2.08-1.85a11.87 11.87 0 001.72-1.85 2.82 2.82 0 00.56-1.6 1.4 1.4 0 00-.47-1.11 1.94 1.94 0 00-1.28-.4 4.2 4.2 0 00-2.33.75h-.06v-1.12a5.56 5.56 0 012.42-.55 3.12 3.12 0 012.07.63 2.15 2.15 0 01.76 1.74 3.21 3.21 0 01-.19 1.12 3.38 3.38 0 01-.61 1 13 13 0 01-1 1.08c-.38.38-1.26 1.15-2.63 2.32h4.78zm4.37.18a2.53 2.53 0 01-2.27-1.09 8.43 8.43 0 010-6.84 2.85 2.85 0 014.51 0 8.33 8.33 0 010 6.82 2.48 2.48 0 01-2.24 1.11zm0-8.15a1.54 1.54 0 00-1.44.78 9.48 9.48 0 000 5.71 1.54 1.54 0 001.44.78 1.52 1.52 0 001.43-.78 9.42 9.42 0 000-5.69 1.51 1.51 0 00-1.43-.8zm7.38 3.22l-.5-.57a11.37 11.37 0 002.19-2 8.18 8.18 0 001.52-2.3l.92.23a12 12 0 01-4.13 4.64zm.35 5.48l-.35-.6a5.45 5.45 0 002.77-1.84 5.63 5.63 0 001-3.33h-2.28v-.7h7.37a11.58 11.58 0 01-2.74-3.69l.86-.26a11.28 11.28 0 003.81 4.35l-.68.66c-.43-.35-.84-.69-1.21-1v2.67a9.18 9.18 0 01-.15 1.82 3 3 0 01-.4 1.07 1.66 1.66 0 01-.59.5 2 2 0 01-.71.21H516l-.15-.8h1.52a1.26 1.26 0 001.06-.53 4.21 4.21 0 00.41-2.3v-2h-3.27a6.23 6.23 0 01-1.29 3.89 6 6 0 01-3.06 1.88z"/><path class="cls-6" d="M35 90.63c0-1.29 2.1-2.34 4.7-2.34h34.78c2.6 0 4.7 1 4.7 2.34v82c0 1.29-2.1 2.34-4.7 2.34H39.7c-2.6 0-4.7-1-4.7-2.34z"/><path class="cls-7" d="M63.27 111H58v.44h3.8v5.33h-2.3a8.93 8.93 0 003.83 2.29l-1.15 1.69a12.75 12.75 0 01-2.35-1.2 7 7 0 01-1.83-1.49v2.88h-2V118a6.75 6.75 0 01-1.8 1.69 7.39 7.39 0 01-2.14 1.14l-1.31-1.74a8.42 8.42 0 002.13-.92 5 5 0 001.59-1.37h-2.19v-5.33h3.77V111h-5.36v-1.74h5.36v-1h2v1h5.25zm-9 2.51h1.8v-.49h-1.8zm0 1.63h1.8v-.49h-1.8zm3.73-1.6h1.81v-.49H58zm0 1.63h1.81v-.49H58zM50.8 126v-1.74h5.25v-1.42h2v1.42h5.25V126zm3.2 5.18l1.58.87a6.92 6.92 0 01-3.44 3.37l-1.32-1.57a7 7 0 003.18-2.67zm1.36 4.3l-.71-1.8h1c.44.08.62-.12.55-.6v-2h-3.76v-4.46h9.19v4.46h-3.39V134c0 1-.46 1.53-1.37 1.53zm-1-6.21h5.37v-.92h-5.38zm5.64 2a11.3 11.3 0 003.34 2.4L62 135.32a18.66 18.66 0 01-1.92-1.53 13.08 13.08 0 01-1.48-1.58zm-9.42 17.79a21.64 21.64 0 00.49-3.32l1 .11c0 1.24-.13 2.49-.27 3.76zm.55-11.16H57v1.53h-1.55v.49h1.15v1.36h-1.15v.6h1.15v1.36h-1.15v.54h1.48v2.83a7.76 7.76 0 00.49-2.88v-5.66h5.64v5.77h-1.65a7.15 7.15 0 002.19 4.57l-1.09 1.85a8.78 8.78 0 01-2.08-2.94 14.09 14.09 0 01-.93-3.48h-.17a17.13 17.13 0 01-.49 3.43 7.53 7.53 0 01-1.53 3l-.77-1.14a1.3 1.3 0 01-1.42 1h-1l-.6-1.47-1.2.22v-2.84l.71-.1.38 2.39h1c.36 0 .56-.14.6-.43l.06-.71-.44.32-.49-1.79.65-.22.33.87v-1h-4zm1.8 2h.77v-.49h-.77zm0 2h.77v-.6h-.77zm0 1.9h.77v-.54h-.77zm.71 4.25l-.38-2.12.6-.17.6 2zm5.69-6h1.76v-2.23h-1.76z"/><path class="cls-6" d="M35 195.68c0-1.29 2.1-2.34 4.7-2.34h34.78c2.6 0 4.7 1 4.7 2.34v82c0 1.29-2.1 2.34-4.7 2.34H39.7c-2.6 0-4.7-1.05-4.7-2.34z"/><path class="cls-7" d="M51.13 209.4h5.58v5.6H53v6.64h-1.87zm1.87 2.18h1.7v-.65H53zm0 1.74h1.7v-.6H53zm6.46 8.28l-.55-2h1.59c.36 0 .53-.15.49-.55V215h-3.68v-5.6H63v10.89c0 .87-.41 1.31-1.21 1.31zm-.27-10H61v-.65h-1.8zm0 1.74H61v-.6h-1.8zM53.21 224l1.91-.55 1 1.85h1.59l.93-1.85 2 .55-.6 1.3h3.17v1.8H50.8v-1.8h3.06zm1.2 12.13l-.41-1.81h.71a.38.38 0 00.44-.43v-.76h-1.78v3h-1.92v-8.6h5.64v7.35c0 .87-.4 1.3-1.2 1.3zm-1-6.36h1.75v-.66h-1.79zm0 2h1.75v-.6h-1.79zm4.54-3.92h1.86v5.71h-1.9zm2.85 6v-6.37h1.86v7.46c0 .87-.46 1.31-1.37 1.31h-2l-.44-1.91h1.47a.44.44 0 00.44-.51zm-10.28 9.83a15.17 15.17 0 002.74-5.61l1.75.6a13 13 0 01-1 2.61v9.58h-1.9v-6a3.92 3.92 0 01-.82 1.31zm4-3.16h3.29v-2.29h1.86v2.29h3.39v6.69H61.2v-.59h-1.48v4.24h-1.86v-4.24h-1.37v.59h-1.92zm1.92 4.3h1.37v-2.61h-1.32zm3.23 0h1.53v-2.61h-1.48zm.59 20.67h-2.07l-.5-1.9h1.48c.36 0 .55-.15.55-.55v-6.85h-2.3v6.69h-4.54v.93h-1.81V253.3h6.35v1.14h6v1.75h-1.79v7.89a1.41 1.41 0 01-.38 1 1.32 1.32 0 01-.99.41zm-7.38-8.38h.49v-2h-.49zm0 1.85V261h.49v-2zm2.3-3.81v2h.49v-2zm0 5.88h.49V259h-.49z"/><path class="cls-2" d="M341.8 151.88c0-2 2.1-3.56 4.7-3.56h34.78c2.6 0 4.7 1.59 4.7 3.56v124.56c0 2-2.1 3.56-4.7 3.56H346.5c-2.6 0-4.7-1.59-4.7-3.56z"/><path d="M341.8 151.88c0-2 2.1-3.56 4.7-3.56h34.78c2.6 0 4.7 1.59 4.7 3.56v124.56c0 2-2.1 3.56-4.7 3.56H346.5c-2.6 0-4.7-1.59-4.7-3.56z" stroke-dasharray="3.02 3.02" stroke="#00a63c" stroke-linejoin="round" stroke-width="2" fill="none"/><path class="cls-7" d="M368.27 239.28l-.41.38-4-4-4 4-.41-.38 4-4-4-4 .4-.38 4 4 4-4.08.41.37-4 4.07zm-8.79-4a.69.69 0 111.18.48.68.68 0 01-1 0 .66.66 0 01-.18-.52zm3.68-3.53a.66.66 0 01.2-.49.69.69 0 011 0 .69.69 0 010 1 .67.67 0 01-.49.19.66.66 0 01-.48-.19.65.65 0 01-.23-.55zm0 7a.62.62 0 01.2-.48.63.63 0 01.48-.2.64.64 0 01.49.2.68.68 0 010 1 .67.67 0 01-1 0 .62.62 0 01-.17-.53zm3.66-3.5a.68.68 0 01.69-.68.62.62 0 01.48.2.68.68 0 010 1 .63.63 0 01-.48.21.67.67 0 01-.49-.21.66.66 0 01-.2-.53zm-9.22-43.97v-1.53h12.58v1.53zm0 3.86h3.29l-.17-.71h-1.64v-2.83h9.47v2.83H367l-.27.71h3.5v1.47h-12.58zm.77-5.77v-4.24h2.84v-.77h1.92v.77h1.31v-.77h1.92v.77h2.84v4.24zm1.91-2.67h.93v-.38h-.93zm0 1.42h.93v-.38h-.93zm.71 5.22h5.64v-.65H361zm1.7 1.09l.22.71h1.81l.16-.71zm.44-7.73h1.31v-.38h-1.31zm0 1.42h1.31v-.38h-1.31zm3.23-1.42h.93v-.38h-.93zm0 1.42h.93v-.38h-.93zm-5.92 15.99l-1 1.47a5.69 5.69 0 00-2-1.41l1-1.47a7.69 7.69 0 011 .6 3.29 3.29 0 011 .81zm-1.53 2l1.7.92a7.86 7.86 0 01-.5 2.34 7.62 7.62 0 01-.93 2.07l-1.69-1.09a8.45 8.45 0 001.42-4.22zm-.93-5.56l1.09-1.47a5.69 5.69 0 012 1.47L360 202.1a5 5 0 00-.82-.76 6.11 6.11 0 00-1.18-.77zm4.27 3.38v-4.9h2v3.54l.49-.27.33 1v-3.71h1.86v3l.49-.27.49 1V199h1.92v12.62h-1.92v-6l-.6.38-.38-1.42V211H365v-5.22l-.6.38-.28-1.15a13.51 13.51 0 01-.43 3.49 7.24 7.24 0 01-1.86 3.21l-1.59-1.53A6.22 6.22 0 00362 207a13.11 13.11 0 00.25-3zm-.11-1.42a16.93 16.93 0 01-.33 3.87l-1.37-.44a11.87 11.87 0 00.44-3.37zm-4.76 22.7a21.82 21.82 0 00.49-3.32l1 .11q-.06 1.84-.27 3.75zm.55-11.16h5.85v1.52h-1.53v.49h1.15v1.36h-1.15v.6h1.15v1.36h-1.15v.55h1.48v2.83a8.06 8.06 0 00.49-2.89v-5.66h5.63V220h-1.64a7.17 7.17 0 002.19 4.58l-1.09 1.85a8.78 8.78 0 01-2.08-2.94 14.29 14.29 0 01-.93-3.49h-.17a17 17 0 01-.49 3.43 7.57 7.57 0 01-1.53 3l-.77-1.15a1.29 1.29 0 01-1.42 1h-1l-.6-1.47-1.21.22.06-2.83.71-.11.38 2.4h1c.36 0 .56-.15.6-.44l.06-.71-.44.33-.49-1.8.65-.21.33.87v-1h-4zm1.8 2h.77v-.49h-.77zm0 2h.77v-.6h-.77zm0 1.91h.77v-.55h-.77zm.71 4.24l-.38-2.12.6-.16.6 2zm5.69-6h1.75V216h-1.75z"/><path d="M550.82 90.26a5 5 0 014.7-5.26h34.78a5 5 0 014.7 5.26v184.4a5 5 0 01-4.7 5.26h-34.78a5 5 0 01-4.7-5.26z" fill="#004da0" stroke="#004da0" stroke-miterlimit="10"/><path class="cls-2" d="M580.52 124.24h-6.47v.54h4.65v6.56h-2.83a11 11 0 004.72 2.82l-1.42 2.07a15.16 15.16 0 01-2.89-1.47 8.75 8.75 0 01-2.23-1.88v3.55h-2.42v-3.61a8.35 8.35 0 01-2.22 2.07 8.9 8.9 0 01-2.63 1.41l-1.62-2.14a10.59 10.59 0 002.63-1.14 6.19 6.19 0 002-1.68H567v-6.56h4.65v-.54H565v-2.14h6.6v-1.28h2.42v1.28h6.47zm-11.11 3.08h2.22v-.6h-2.22zm0 2h2.22v-.6h-2.22zm4.64-2h2.23v-.6h-2.23zm0 2h2.23v-.6h-2.23zm-8.89 12.49v-2.14h6.47v-1.74h2.49v1.74h6.47v2.14zm4 6.37l2 1.07a8.52 8.52 0 01-4.24 4.15l-1.62-1.94a8.53 8.53 0 003.84-3.28zm1.68 5.29l-.87-2.21h1.21c.54.09.76-.16.67-.74V148h-4.65v-5.49h11.3V148h-4.18v3.55c0 1.25-.56 1.88-1.68 1.88zm-1.28-7.64h6.6v-1.14h-6.6zm6.94 2.41a13.76 13.76 0 004.11 2.95l-1.61 2.08a21.75 21.75 0 01-2.36-1.88 17.38 17.38 0 01-1.82-1.94zm-6.5 6.69v5.22a24.37 24.37 0 007.07-2.81l1.82 1.74a29.63 29.63 0 01-8.89 3.55v2.48c0 .67.38 1 1.14 1 2.11 0 4.72 0 7.81-.06l-.33 2.41H570a2.68 2.68 0 01-2-.6 2.89 2.89 0 01-.54-2v-11zm6.87 1.6l1-.87 1.48 1.54-1 .94zm1.41-1.13l1-.88 1.35 1.48-1 .87zm-8.2 15.81l1.68-.67a22.81 22.81 0 011.28 3.08l-1.68.67c-.36-.98-.79-2.01-1.28-3.08zm1.55 7.63a11.21 11.21 0 004.78-3.08 13.81 13.81 0 002.29-5.49l2.16.74a15.1 15.1 0 01-2.63 5.89 12.79 12.79 0 01-5.32 3.82zm1.68-8.17l1.75-.67c.59 1.3 1 2.28 1.22 2.95l-1.75.6c-.41-1.07-.81-2.03-1.22-2.88zm-7.14 18.69a17.42 17.42 0 005.12-7l2.43.93-.61 1.41h4l.2-.27 2 1.21a18.75 18.75 0 01-9.16 11.39l-1.89-2q5.93-3 7.75-8.11h-4.25a21.32 21.32 0 01-3.57 4.09zm9-6.9l1.14-.8 1.55 1.74-1.21.8zm2.42-.06l1.08-.81 1.55 1.68-1.21.87zm-11.75 21.43v-2.27h2.89v-3.09h2.5v3.09h3.3v-3.22H577v3.22h2.83v2.27H577a10.5 10.5 0 01-1.21 5.3 9.24 9.24 0 01-4 3.48l-1.79-1.88a8.44 8.44 0 003.5-2.74 7.12 7.12 0 001.08-4.16h-3.3v3.69h-2.5v-3.69zm.33 17.42a26.91 26.91 0 0010.91-7.25l2.16 1.74a23.13 23.13 0 01-4.51 3.82v8.64h-2.63v-7a34.4 34.4 0 01-4.51 2.41zm3.24 8.45H572v5.69l1.21-1.47a54.35 54.35 0 015.66 3.88l-1.62 2a50.23 50.23 0 00-5.25-3.75v8.17h-2.56zM184.47 92.68h141.71v23.05H184.47z"/><path class="cls-7" d="M191.2 105.84a19.1 19.1 0 01-.32 2 10.75 10.75 0 01-.46 1.69l-1.19-.27a17.84 17.84 0 00.62-3.51zm1.87 4.43h-1.6v-4.92q-1.28.12-2 .15l-.13-1.3h1c.21-.26.48-.6.8-1a45.31 45.31 0 00-1.83-1.91l.93-1 .23.22a11.9 11.9 0 001.06-1.84l1.44.51a16.51 16.51 0 01-1.57 2.26l.57.61a15.55 15.55 0 001.26-2l1.39.6a40.73 40.73 0 01-2.6 3.51l1.34-.09c-.17-.5-.28-.81-.34-.94l1.21-.36c.24.59.52 1.42.86 2.47l-1.29.31a2.52 2.52 0 00-.1-.41l-.63.09zm1.93-1.76l-1.3.18a26.27 26.27 0 01-.43-2.76l1.28-.14zm1.87 1.61l-.21-1.54h1.63a.69.69 0 00.71-.58 7.48 7.48 0 00.19-2v-4.5h-2.59a11.3 11.3 0 01-.9 1.93l-1.33-.61c.37-.9.65-1.65.84-2.26a16 16 0 00.43-1.93l1.7.17a11.23 11.23 0 01-.32 1.42h3.81v1.46c0 2.62 0 4.29-.05 5a7.46 7.46 0 01-.27 2.15 1.79 1.79 0 01-.63.78 1.86 1.86 0 01-.83.37c-.14.12-.86.13-2.18.14zm1.31-3.67l-1.59.56a28.48 28.48 0 00-1.27-3.34l1.44-.55a22.65 22.65 0 011.42 3.33zm19.19 1.55h-1.81v3.17h-2.66V108h-6.12v-2.22l6-7.26h2.77v7.54h1.81zm-4.47-1.94v-5l-4.1 5zm10.86 5.38a4.51 4.51 0 01-3.8-1.56q-1.2-1.56-1.2-5a8.21 8.21 0 011.21-5 5.35 5.35 0 017.57 0 8.19 8.19 0 011.22 5q0 3.47-1.21 5a4.51 4.51 0 01-3.79 1.56zm0-11.19a1.74 1.74 0 00-1.69 1.1 9 9 0 00-.51 3.52 8.75 8.75 0 00.52 3.52 1.81 1.81 0 003.35 0 8.76 8.76 0 00.52-3.51 8.88 8.88 0 00-.51-3.51 1.74 1.74 0 00-1.68-1.12zm15.14 4.01a6.4 6.4 0 01-1.46 3.86 7.29 7.29 0 01-3.4 2.1l-.79-1.39c2.43-.85 3.69-2.37 3.8-4.57h-1.73v-.56a14.69 14.69 0 01-1.36 1.06l-1.07-1.15a12 12 0 002.55-2.44 9.79 9.79 0 001.56-2.49l1.79.42a13.15 13.15 0 01-2.47 3.7H242a11.4 11.4 0 01-2.28-3.71l1.65-.49a12 12 0 001.78 2.79 14.32 14.32 0 002.49 2.16l-1.36 1.36-.67-.58a28.56 28.56 0 01-.17 3.34 2.9 2.9 0 01-.76 1.9 2.2 2.2 0 01-1.54.53h-2.24l-.25-1.6h2a1 1 0 00.9-.56 10.17 10.17 0 00.27-3.14v-.54zm14 6.56h-2.74V100.5h2.74v.68H251v9h1.88zm13.76-2.18l-.55.65a8.68 8.68 0 01-2.57-2.25 11.72 11.72 0 01-1.68-2.87 7.91 7.91 0 01-1.72 3.07 7.43 7.43 0 01-3.06 2l-.3-.61a6.78 6.78 0 003-2.15 6.44 6.44 0 001.47-3.22H257v-.69h4.33V100h.88v2.63h4.33v.69h-4.24a9.13 9.13 0 001.63 3 8 8 0 002.73 2.32zm5.94-4.22a6 6 0 01-1.66 3 8.64 8.64 0 01-2.87 1.87l-.32-.59a7.05 7.05 0 003.21-2.54 5.86 5.86 0 001.07-3.23v-2.78h.88V103a6.68 6.68 0 00.92 2.38 7.13 7.13 0 001.87 2.07 9.67 9.67 0 001.84 1.12l-.52.69a9.73 9.73 0 01-2.88-2.13 6.59 6.59 0 01-1.54-2.71zm14.14 4.32h-5.31v-1q.84-.72 1.89-1.68a10.72 10.72 0 001.56-1.69 2.51 2.51 0 00.51-1.45 1.24 1.24 0 00-.43-1 1.73 1.73 0 00-1.16-.36 3.85 3.85 0 00-2.12.68h-.05v-1a5.16 5.16 0 012.2-.5 2.78 2.78 0 011.88.58 1.94 1.94 0 01.69 1.58 3 3 0 01-.17 1 3.25 3.25 0 01-.55.94 11 11 0 01-.9 1c-.34.35-1.14 1-2.39 2.11h4.35zm6.26 0h-4.22V108h1.65v-5.4h-1.65v-.6a2.74 2.74 0 001.38-.28 1.07 1.07 0 00.47-.85h.75V108H293zm4.4.16a2.3 2.3 0 01-2.06-1 5.86 5.86 0 01-.65-3.11 5.78 5.78 0 01.66-3.11 2.61 2.61 0 014.1 0 5.72 5.72 0 01.66 3.09 5.79 5.79 0 01-.66 3.12 2.29 2.29 0 01-2.05 1.01zm0-7.4a1.37 1.37 0 00-1.3.71 5.69 5.69 0 00-.41 2.59 5.75 5.75 0 00.41 2.59 1.55 1.55 0 002.6 0 5.77 5.77 0 00.41-2.6 5.89 5.89 0 00-.4-2.57 1.39 1.39 0 00-1.31-.72zm14.89 3.62h-7v4.25h-.81v-8.77h8.65v7.83a.77.77 0 01-.26.61 1 1 0 01-.69.23h-1.47l-.11-.74h1.26c.3 0 .45-.14.45-.43zm-7-.67h3v-3.19h-3zm3.84 0h3.18v-3.19h-3.18zm11.34 6.37h-2.74v-.68h1.88v-9h-1.88v-.68h2.74z"/><path class="cls-2" d="M184.47 151.1h141.71v23.05H184.47z"/><path class="cls-7" d="M191.2 164.26a18.7 18.7 0 01-.32 2 10.75 10.75 0 01-.46 1.69l-1.19-.27a17.84 17.84 0 00.62-3.51zm1.87 4.43h-1.6v-4.91c-.85.08-1.51.12-2 .14l-.13-1.3h1c.21-.26.48-.6.8-1a45.31 45.31 0 00-1.83-1.91l.93-1 .23.22a11.9 11.9 0 001.06-1.84l1.44.51a16.51 16.51 0 01-1.57 2.26l.57.61a15.55 15.55 0 001.26-2l1.39.6a40.73 40.73 0 01-2.6 3.51l1.34-.09c-.17-.5-.28-.81-.34-.94l1.21-.36c.24.59.52 1.42.86 2.47l-1.29.31a2.52 2.52 0 00-.1-.41l-.63.09zm1.93-1.75l-1.3.17a26.27 26.27 0 01-.43-2.76l1.28-.13zm1.87 1.6l-.21-1.54h1.63a.69.69 0 00.72-.54 7.48 7.48 0 00.19-2V160h-2.6a11 11 0 01-.9 1.93l-1.33-.6c.37-.9.65-1.66.84-2.27a15.61 15.61 0 00.43-1.93l1.7.17a11.8 11.8 0 01-.32 1.43h3.81v1.45c0 2.62 0 4.29-.05 5a7.43 7.43 0 01-.27 2.14 1.88 1.88 0 01-.63.79 2 2 0 01-.83.36c-.14.05-.86.07-2.18.07zm1.31-3.66l-1.59.55a29.2 29.2 0 00-1.27-3.34l1.44-.55a22.87 22.87 0 011.42 3.34zm19.19 1.57h-1.81v3.17h-2.66v-3.17h-6.12v-2.22l6-7.26h2.77v7.54h1.81zm-4.47-1.94v-4.95l-4.1 4.95zm10.86 5.35a4.51 4.51 0 01-3.8-1.56q-1.2-1.56-1.2-5t1.21-5a4.51 4.51 0 013.79-1.57 4.46 4.46 0 013.78 1.57 8.19 8.19 0 011.22 5q0 3.47-1.21 5a4.51 4.51 0 01-3.79 1.56zm0-11.19a1.74 1.74 0 00-1.69 1.1 9 9 0 00-.51 3.52 8.75 8.75 0 00.52 3.52 1.82 1.82 0 003.35 0 12.25 12.25 0 000-7 1.74 1.74 0 00-1.67-1.14zm15.14 4.01a6.38 6.38 0 01-1.46 3.86 7.29 7.29 0 01-3.4 2.1l-.79-1.38c2.43-.85 3.69-2.38 3.8-4.58h-1.73v-.56a14.69 14.69 0 01-1.36 1.06l-1.07-1.18a11.71 11.71 0 002.55-2.44 9.76 9.76 0 001.52-2.48l1.79.42a13 13 0 01-2.47 3.69H242a11.4 11.4 0 01-2.28-3.71l1.65-.49a11.76 11.76 0 001.78 2.79 14.32 14.32 0 002.49 2.16l-1.36 1.36-.67-.58a28.44 28.44 0 01-.17 3.34 2.88 2.88 0 01-.76 1.9 2.2 2.2 0 01-1.54.53h-2.24l-.25-1.6h2a1 1 0 00.9-.56 10.08 10.08 0 00.27-3.14v-.54zm14 6.56h-2.74v-10.32h2.74v.68H251v9h1.88zm13.76-2.18l-.55.66a8.86 8.86 0 01-2.57-2.26 11.54 11.54 0 01-1.68-2.87 7.91 7.91 0 01-1.72 3.07 7.43 7.43 0 01-3.06 2l-.3-.61a6.7 6.7 0 003-2.15 6.4 6.4 0 001.47-3.22H257V161h4.33v-2.63h.88V161h4.33v.69h-4.24a9.17 9.17 0 001.63 3 8.11 8.11 0 002.73 2.37zm5.94-4.22a6 6 0 01-1.66 3 8.48 8.48 0 01-2.87 1.87l-.32-.59a7.05 7.05 0 003.21-2.54 5.83 5.83 0 001.07-3.22v-2.79h.88v2.86a6.68 6.68 0 00.92 2.38 7.13 7.13 0 001.87 2.07 9.17 9.17 0 001.84 1.12l-.52.69a9.73 9.73 0 01-2.88-2.13 6.59 6.59 0 01-1.54-2.72zm14.14 4.32h-5.31v-1q.84-.72 1.89-1.68a11.18 11.18 0 001.56-1.68 2.54 2.54 0 00.51-1.46 1.22 1.22 0 00-.43-1 1.68 1.68 0 00-1.16-.37 3.85 3.85 0 00-2.12.68h-.05v-1a5.16 5.16 0 012.2-.5 2.78 2.78 0 011.88.58 2 2 0 01.69 1.58 3 3 0 01-.17 1 3.43 3.43 0 01-.55 1 12.63 12.63 0 01-.9 1c-.34.35-1.14 1-2.39 2.11h4.35zm6.26 0h-4.22v-.72h1.65V161h-1.65v-.64a2.74 2.74 0 001.38-.28 1.07 1.07 0 00.47-.85h.75v7.19H293zm4.4.16a2.3 2.3 0 01-2.06-1 5.82 5.82 0 01-.65-3.1 5.73 5.73 0 01.66-3.11 2.6 2.6 0 014.1 0 7.63 7.63 0 010 6.21 2.29 2.29 0 01-2.05 1zm0-7.4a1.37 1.37 0 00-1.3.71 8.39 8.39 0 000 5.18 1.55 1.55 0 002.6 0 5.72 5.72 0 00.41-2.59 5.94 5.94 0 00-.4-2.58 1.39 1.39 0 00-1.31-.72zm14.89 3.62h-7v4.25h-.81V159h8.65v7.83a.81.81 0 01-.26.62 1 1 0 01-.69.23h-1.47l-.11-.75h1.26c.3 0 .45-.14.45-.43zm-7-.67h3v-3.19h-3zm3.84 0h3.18v-3.19h-3.18zm11.34 6.37h-2.74v-.68h1.88v-9h-1.88v-.68h2.74z"/><path class="cls-2" d="M184.47 223.99h141.71v23.05H184.47z"/><path class="cls-7" d="M191.2 237.15a19.25 19.25 0 01-.32 2 10.89 10.89 0 01-.46 1.68l-1.19-.27a17.84 17.84 0 00.62-3.51zm1.87 4.44h-1.6v-4.92c-.85.08-1.51.13-2 .14l-.13-1.3h1c.21-.26.48-.6.8-1-.56-.62-1.17-1.25-1.83-1.9l.93-1 .23.22a11.46 11.46 0 001.06-1.84l1.44.52a17.84 17.84 0 01-1.57 2.26l.57.6a14.91 14.91 0 001.26-2l1.39.6a42.48 42.48 0 01-2.6 3.52l1.34-.1c-.17-.5-.28-.81-.34-.93l1.21-.36c.24.59.52 1.41.86 2.47l-1.29.3a2.25 2.25 0 00-.1-.4l-.63.08zm1.93-1.76l-1.3.17a26.27 26.27 0 01-.43-2.76l1.28-.13zm1.87 1.61l-.21-1.55h1.63a.69.69 0 00.72-.54 7.43 7.43 0 00.19-2v-4.5h-2.6a11 11 0 01-.9 1.93l-1.33-.6c.37-.9.65-1.66.84-2.27a15.61 15.61 0 00.43-1.93l1.7.17a11.8 11.8 0 01-.32 1.43h3.81v1.45c0 2.62 0 4.29-.05 5a7.43 7.43 0 01-.27 2.14 1.82 1.82 0 01-.63.79 2 2 0 01-.83.37c-.14.08-.86.1-2.18.11zm1.31-3.67l-1.59.55a28.92 28.92 0 00-1.27-3.33l1.44-.56a22.87 22.87 0 011.42 3.34zm9.13 4.23v-2.38h.27a7.34 7.34 0 003.61 1.1 3.52 3.52 0 002.08-.55 1.87 1.87 0 00.75-1.61 1.55 1.55 0 00-.59-1.29 4.35 4.35 0 00-2.42-.46h-.74v-1.9h.7c1.88 0 2.83-.57 2.83-1.71a1.23 1.23 0 00-.61-1.1 3.3 3.3 0 00-1.73-.37 7.86 7.86 0 00-3.53 1.07h-.25v-2.35a11.74 11.74 0 014.11-.8 6.08 6.08 0 013.54.86 2.65 2.65 0 011.2 2.27 2.77 2.77 0 01-.66 1.84 3.27 3.27 0 01-1.78 1.06v.12a3.61 3.61 0 012 1 2.67 2.67 0 01.74 2 3.56 3.56 0 01-1.41 3 6.1 6.1 0 01-3.83 1.1 11.26 11.26 0 01-4.28-.9zm11.87 0v-2.4h.28a6.94 6.94 0 003.48 1.08c1.89 0 2.83-.76 2.83-2.27a1.7 1.7 0 00-.78-1.49 4.32 4.32 0 00-2.32-.51 12.27 12.27 0 00-2.67.37h-.31v-6.92h8.62v2.06h-6v2.58c.64 0 1.12-.05 1.42-.05a5.58 5.58 0 013.62 1 3.49 3.49 0 011.25 2.84 4 4 0 01-1.43 3.22 5.82 5.82 0 01-3.88 1.22 10.81 10.81 0 01-4.11-.73zm19.72-6.43a6.36 6.36 0 01-1.46 3.86 7.31 7.31 0 01-3.4 2.11l-.79-1.39c2.43-.85 3.69-2.38 3.8-4.58h-1.73V235a16.49 16.49 0 01-1.36 1l-1.07-1.15a11.71 11.71 0 002.55-2.44A9.6 9.6 0 00237 230l1.79.42a13 13 0 01-2.47 3.69H242a11.36 11.36 0 01-2.28-3.7l1.65-.5a11.83 11.83 0 001.78 2.8 14.73 14.73 0 002.49 2.15l-1.36 1.36-.67-.57a28.25 28.25 0 01-.17 3.33 2.93 2.93 0 01-.76 1.91 2.25 2.25 0 01-1.54.53h-2.24l-.25-1.61h2a.94.94 0 00.9-.55 10.2 10.2 0 00.27-3.15v-.54zm14 6.56h-2.74v-10.31h2.74v.67H251v9h1.88zm13.76-2.13l-.55.66a8.86 8.86 0 01-2.57-2.26 11.67 11.67 0 01-1.68-2.86 7.87 7.87 0 01-1.72 3.06 7.43 7.43 0 01-3.06 2l-.3-.61a6.7 6.7 0 003-2.15 6.41 6.41 0 001.47-3.21H257v-.7h4.33v-2.63h.88v2.63h4.33v.7h-4.24a9.23 9.23 0 001.63 3 8 8 0 002.73 2.37zm5.94-4.26a6.06 6.06 0 01-1.66 3 8.46 8.46 0 01-2.87 1.86l-.32-.59a7 7 0 003.21-2.54 5.83 5.83 0 001.07-3.22v-2.79h.88v2.86a6.72 6.72 0 00.92 2.39 7.22 7.22 0 001.87 2.06 9.17 9.17 0 001.84 1.12l-.52.69a9.73 9.73 0 01-2.88-2.13 6.56 6.56 0 01-1.54-2.71zm14.14 4.31h-5.31v-1q.84-.72 1.89-1.68a10.72 10.72 0 001.56-1.68 2.54 2.54 0 00.51-1.46 1.22 1.22 0 00-.43-1 1.73 1.73 0 00-1.16-.36 3.77 3.77 0 00-2.12.68h-.05v-1a5 5 0 012.2-.51 2.84 2.84 0 011.88.58 2 2 0 01.69 1.58 2.88 2.88 0 01-.17 1 3.3 3.3 0 01-.55.95 12.64 12.64 0 01-.9 1c-.34.34-1.14 1-2.39 2.1h4.35zm6.26 0h-4.22v-.72h1.65v-5.42h-1.65v-.64a2.65 2.65 0 001.38-.27 1.08 1.08 0 00.47-.86h.75v7.19H293zm4.4.17a2.29 2.29 0 01-2.06-1 5.82 5.82 0 01-.65-3.1 5.75 5.75 0 01.66-3.11 2.6 2.6 0 014.1 0 7.63 7.63 0 010 6.21 2.29 2.29 0 01-2.05 1zm0-7.41a1.39 1.39 0 00-1.3.71 5.74 5.74 0 00-.41 2.6 5.67 5.67 0 00.41 2.58 1.53 1.53 0 002.6 0 5.72 5.72 0 00.41-2.59 5.89 5.89 0 00-.4-2.57 1.38 1.38 0 00-1.31-.73zm14.89 3.62h-7v4.26h-.81v-8.78h8.65v7.84a.8.8 0 01-.26.61 1 1 0 01-.69.23h-1.47l-.11-.74h1.26a.39.39 0 00.45-.44zm-7-.66h3v-3.2h-3zm3.84 0h3.18v-3.2h-3.18zm11.34 6.36h-2.74v-.67h1.88v-9h-1.88v-.67h2.74z"/><path class="cls-5" d="M98.49 122.7h-2v.43H95v-3.91l-.88.39-.53-1.17a12.13 12.13 0 002.8-1.47h-2.53v-1.2h2V115h-1.61v-1.18h1.58v-1.06h1.52v1.06h1.37v.62a11 11 0 00.62-1.3l1.32.42a8.85 8.85 0 01-1.16 2.21h1V117h-2.11a9.28 9.28 0 01-.82.71H100v5.44h-1.51zm0-3.06v-.84h-2v.84zm-2 1.93h2v-.88h-2zm.91-5.8h.49c.19-.26.37-.51.54-.77h-1zm7.57-2.31c-.07.24-.23.75-.5 1.52s-.45 1.28-.57 1.53a4.78 4.78 0 01.94 2.71 3.42 3.42 0 01-.13 1 1.63 1.63 0 01-.38.7 1.31 1.31 0 01-.61.38 4.42 4.42 0 01-1.06.1h-.1l-.36-1.4h.31a3.76 3.76 0 00.46 0 .32.32 0 00.18-.12.69.69 0 00.13-.31 1.91 1.91 0 000-.51 3.86 3.86 0 00-.75-2.27.47.47 0 01-.07-.22.53.53 0 010-.2 11.92 11.92 0 00.58-2.06h-1v8.8h-1.46v-10h3.89zm7.31 9.28a3.09 3.09 0 01-2.6-1.07 7.54 7.54 0 010-6.88 3.68 3.68 0 015.21 0 5.67 5.67 0 01.83 3.43 5.61 5.61 0 01-.83 3.45 3.07 3.07 0 01-2.61 1.07zm0-7.69a1.2 1.2 0 00-1.16.76 6.2 6.2 0 00-.35 2.42 6 6 0 00.36 2.42 1.25 1.25 0 002.31 0 6.11 6.11 0 00.36-2.42 6 6 0 00-.36-2.42 1.19 1.19 0 00-1.16-.76zm4.88 7.17v-1.64h.19a4.83 4.83 0 002.4.73c1.29 0 1.94-.52 1.94-1.56a1.13 1.13 0 00-.54-1 2.88 2.88 0 00-1.59-.36 8 8 0 00-1.83.26h-.22v-4.76h5.93v1.41h-4.13v1.78h1a3.83 3.83 0 012.49.71 2.39 2.39 0 01.86 2 2.76 2.76 0 01-1 2.21 4 4 0 01-2.66.84 7.34 7.34 0 01-2.84-.62zm12.04-2.76H125V118h4.22zm8.11 3.1h-6.57v-1.37a22.78 22.78 0 003.35-2.91 3 3 0 00.86-1.82 1.22 1.22 0 00-.41-1 1.74 1.74 0 00-1.14-.35 4.19 4.19 0 00-2.29.78H131v-1.65a7.6 7.6 0 012.74-.55 3.71 3.71 0 012.38.67 2.27 2.27 0 01.84 1.88 3.65 3.65 0 01-.68 2 15 15 0 01-3.17 2.93h4.24zm8.37-2.2a11.32 11.32 0 01-1.86 1.51 13.13 13.13 0 01-2 1.13l-.84-1.23a13.72 13.72 0 002.07-1.21 13.25 13.25 0 001.34-1.16zm1.95 2.87h-1.76v-4c-2.12.12-3.59.18-4.42.19l-.2-1.45h.27q.93 0 2.94-.06a27.71 27.71 0 00-2.39-2l1.05-1a7 7 0 01.89.67c.32-.32.62-.64.89-.95-1.28.07-2.25.11-2.92.11l-.21-1.34c2.17 0 4-.11 5.58-.25a20.35 20.35 0 003.28-.48l.78 1.25a34.51 34.51 0 01-4.47.57 19.72 19.72 0 01-1.84 2l.93.8a20.25 20.25 0 002.9-2.92l1.49.76a25.93 25.93 0 01-2.9 2.71l2.15-.13c-.21-.29-.44-.58-.68-.86l1.28-.71a25.3 25.3 0 012.33 3l-1.43.73-.6-.89q-1 .09-2.94.21zm4.87-1.61l-1 1.34a13.69 13.69 0 01-2.05-1.29 7.85 7.85 0 01-1.56-1.43l1.14-1a13.32 13.32 0 001.64 1.37 12.2 12.2 0 001.83 1.01zm2.16-2.45a13.15 13.15 0 01-.69 3.38l-1-.25a15.42 15.42 0 00.53-3.21zm1.6 4.07h-1.4v-4.58c-.74.07-1.31.11-1.72.13l-.14-1.14h.9c.27-.35.5-.67.7-.94-.57-.67-1.1-1.25-1.59-1.75l.81-.84.18.17a11.07 11.07 0 00.94-1.72l1.22.48a15.67 15.67 0 01-1.36 2.1l.49.55a13.62 13.62 0 001.11-1.89l1.22.55a26.09 26.09 0 01-2.25 3.22l1.14-.08a7.68 7.68 0 00-.29-.82l1.06-.3q.28.78.69 2.19l-1.08.28a2.48 2.48 0 00-.1-.4l-.53.07zm1.67-1.88l-1.11.21c-.19-1.13-.31-1.93-.35-2.39l1.08-.17zm2.41-2.17a4.63 4.63 0 01-.59 2.37 4.13 4.13 0 01-1.75 1.6l-.76-1a3.14 3.14 0 001.29-1.36 4 4 0 00.35-1.65v-.95h1.46zm2.13-1.53q-1.54.2-4.5.42l-.22-1.26h.84a16.38 16.38 0 00.65-1.53h-1.38v-1.2h2.25v-1.31h1.47v1.31H164v1.2h-3.24c-.19.43-.42.91-.7 1.44.68 0 1.28-.09 1.78-.14-.14-.24-.3-.49-.48-.76v-.09l1.19-.41a21.73 21.73 0 011.66 2.72l-1.39.51c-.06-.31-.19-.56-.35-.9zm1.85 4.21a1.41 1.41 0 01-.14.64.91.91 0 01-.41.39 1.33 1.33 0 01-.51.15h-.67a5.5 5.5 0 01-.86 0 1.33 1.33 0 01-.42-.18.7.7 0 01-.29-.36 1.33 1.33 0 01-.11-.56v-3.81h1.45v3.45c0 .13.06.2.17.2h.29a.29.29 0 00.17-.05.26.26 0 00.07-.15v-1.43l1.21.17zm7.15-3.87h-2v-2.1h2zm0 4.57h-2v-2.1h2zm-77.56 19.61l-.32-.71a10.35 10.35 0 001.79-.65 16.17 16.17 0 001.77-1 6.69 6.69 0 001.27-1h-3.31v-4.12h3.75v-.95h-4.81V133h4.81v-1h.9v1h4.92v.71h-4.92v.95h3.81v4.12h-3.5a12.11 12.11 0 002.44 1.6 13 13 0 002.61 1l-.45.77a13 13 0 01-2.62-1.09 13.48 13.48 0 01-2.3-1.53v3.09h-.88v-3.11a10.41 10.41 0 01-2.22 1.49 13.42 13.42 0 01-2.74 1.18zm2-5.76h2.91v-1.08H96zm2.91.61H96v1.14h2.91zm.88-.61h2.94v-1.08h-2.89zm2.94.61h-2.89v1.14h2.94zm3.41 4.97l-.5-.61a11.44 11.44 0 003-2.54l.75.46a9.53 9.53 0 01-1.53 1.51 11.06 11.06 0 01-1.72 1.18zm-.23-8.16v-.71h4.86v-1h.94v1h4.92v.71zm4.81 8.73h-1.51l-.08-.79h1.18c.33 0 .5-.14.5-.42v-3.13H107v-3.24h8.41v3.24h-3.75v3.5a.72.72 0 01-.31.6 1.11 1.11 0 01-.72.19zm3.87-6.9h-6.63v1.89h6.63zm1.79 6.24a11.36 11.36 0 01-1.67-1.13 11.78 11.78 0 01-1.59-1.42l.68-.51a11.67 11.67 0 001.59 1.38 8.68 8.68 0 001.56 1zm1.59.17l-.59-.25a10.64 10.64 0 00.47-2.67l.6.09a11.62 11.62 0 01-.16 1.45 7.11 7.11 0 01-.32 1.38zm3-4.34h1.6c0 1.23 0 2.18-.12 2.84a4 4 0 01-.27 1.29 1.19 1.19 0 01-.49.48 1.92 1.92 0 01-.92.18h-1l-.08-.71a8.55 8.55 0 001.15 0 .82.82 0 00.4-.21 1.12 1.12 0 00.27-.48 5.21 5.21 0 00.11-.91v-1.79h-2.83v.22h-.7v-6.07h4.57v.64h-1.69v1.13h1.36v.61h-1.36V136h1.39v.61h-1.39zm-2 3.53l-.13-2.11.48-.06.14 2.11zm-.12-8.09v1.13h1.33v-1.13zm0 1.74V136h1.33v-1.07zm0 1.68v1.14h1.33v-1.14zm1.21 4.21l-.29-1.8.43-.08.31 1.82zm.87-.54l-.29-1.42.38-.08.3 1.41zm7.45 2.23a7.6 7.6 0 01-1.76-2.42 10.36 10.36 0 01-.93-3.09h-1.21a13 13 0 01-.4 3.16 7.42 7.42 0 01-1 2.38l-.63-.45a6.24 6.24 0 00.82-2.24 17 17 0 00.29-3.23v-4.1h4.57V137h-1.64a8.52 8.52 0 00.81 2.64 7.09 7.09 0 001.62 2.23zm-1.11-9.33h-2.79v3.17h2.79zm6.19 5.76a7.3 7.3 0 01-3.51 3.65l-.47-.6a6.54 6.54 0 003.21-3.63c-.93-.7-1.63-1.19-2.12-1.49l.52-.61c.42.25 1 .67 1.85 1.26a11 11 0 00.25-2.49h-3.23v-.73h3.23v-2.11h.9v2.11h3.7v6.91a.45.45 0 00.1.31.44.44 0 00.25.15 4.32 4.32 0 00.64 0 2.1 2.1 0 00.52 0 .41.41 0 00.27-.18 1.13 1.13 0 00.17-.54 10.62 10.62 0 00.06-1.37l.8.1v1.71a1.07 1.07 0 01-.18.65 1 1 0 01-.51.36 4.61 4.61 0 01-1.11.1h-1a.94.94 0 01-.66-.31 1.18 1.18 0 01-.22-.77V135H134a12.59 12.59 0 01-.34 3.11c.91.68 1.54 1.16 1.88 1.46l-.64.66c-.33-.33-.84-.76-1.53-1.3zm12.68 3.15l-.2-.74a4.59 4.59 0 002.41-1.08 3.9 3.9 0 001-2.8 3.67 3.67 0 00-.94-2.42 2.91 2.91 0 00-2.27-.95 16.23 16.23 0 01-.7 5.17c-.46 1.38-1.15 2.08-2.05 2.08a1.54 1.54 0 01-1.43-.84 3.89 3.89 0 01-.49-2 5.39 5.39 0 011.32-3.55 4.17 4.17 0 013.36-1.57 3.87 3.87 0 012.85 1.14 3.93 3.93 0 011.15 2.9 4.58 4.58 0 01-1.15 3.33 4.47 4.47 0 01-2.86 1.33zm-.81-7.89a3.36 3.36 0 00-2.16 1.51 5.06 5.06 0 00-.87 2.82 3.73 3.73 0 00.3 1.43.84.84 0 00.78.56c.57 0 1-.58 1.37-1.77a17.89 17.89 0 00.58-4.55zm14.99 8.27h-1.75l-.14-.8H160a.66.66 0 00.41-.14.43.43 0 00.17-.35v-6.42h-3.61a5.35 5.35 0 001.07 2.5 6 6 0 002.14 1.91l-.56.68a7.43 7.43 0 01-1.91-1.68 6.88 6.88 0 01-1.18-2.09 6.5 6.5 0 01-3.33 3.79l-.45-.6a5.69 5.69 0 002.28-2 5.88 5.88 0 00.91-2.51h-3.55v7.79h-.87v-8.48h4.45v-2h.92v2h4.59v7.38a.91.91 0 01-.33.74 1.27 1.27 0 01-.92.28zm7.61-.03v-2.35h-2.68v-.67h2.68V138h-2.57v-.65h1.3l-.63-1.67h-1.53v6.87h-.87V135h4.28v-1.25h-4.94v-.71h4.94V132h.9v1.06h4.94v.71h-4.94V135H173v6.45a.92.92 0 01-.31.72 1.12 1.12 0 01-.76.27h-1.38l-.13-.8h1.24a.5.5 0 00.33-.12.39.39 0 00.14-.3v-5.56h-1.58l-.73 1.67h1.47v.67h-2.61v1.41h2.64v.67h-2.64v2.35zm1.83-6.75h-2.85l.58 1.67h1.6zm14.24 5.6h-7.58v.9h-.92V133h9.44v9.17h-.94zm-7.58-.76h7.58v-6.77h-7.58zm20.9 2.17h-1.14a8.13 8.13 0 010-10.73h1.14v.04a6.81 6.81 0 00-1.55 2.14 7.29 7.29 0 00-.7 3.16 7.46 7.46 0 00.7 3.19 6.88 6.88 0 001.55 2.13zm3.77-4.46h-1.26a11.38 11.38 0 01-1.05 4.3l-.59-.27a7 7 0 00.47-1.35 13.61 13.61 0 00.3-1.66 20.89 20.89 0 00.11-2.37v-4.41h2.85v9.26a.61.61 0 01-.27.5 1.09 1.09 0 01-.67.2h-1l-.1-.71h.79c.28 0 .42-.12.42-.35zm-1.23-.63H201v-2h-1.22v2zm0-2.64H201v-1.84h-1.22zm4.92 1.55a8.8 8.8 0 01-2.32 2.45l-.43-.49a8 8 0 001.87-2h-1.64v-.65h2a7.45 7.45 0 00.51-1.12h-2.23v-.64h1.05c-.15-.37-.38-.88-.67-1.52l.74-.24c.35.78.6 1.36.75 1.76h.56a10.3 10.3 0 00.3-2l.88.06a9.84 9.84 0 01-.33 2h1.05c.21-.45.46-1 .73-1.78l.82.18c-.26.58-.51 1.12-.77 1.6h1.34v.64h-2.08a6.36 6.36 0 00.48 1.12h1.88v.65h-1.48a8.3 8.3 0 001.94 1.88l-.54.61a9.71 9.71 0 01-2.29-2.49zm1 2.45a4.34 4.34 0 01-2.88 3.62l-.37-.57a3.94 3.94 0 001.78-1.43 3.32 3.32 0 00.59-1.62h-1.39v-.66h1.44v-1.17h.87v1.17h2.58v.7a13.61 13.61 0 01-.09 1.68 4.29 4.29 0 01-.22 1 1.18 1.18 0 01-.29.46 1.2 1.2 0 01-.4.22 2.64 2.64 0 01-.66.07h-1l-.1-.75h.68a1.82 1.82 0 00.54-.06.67.67 0 00.34-.25 2.07 2.07 0 00.23-.77 10.3 10.3 0 00.1-1.7zm-.11-4.22c-.1.26-.26.63-.48 1.12h1.47c-.21-.46-.37-.83-.48-1.12zm11.1 7.34a20.66 20.66 0 01-2.43.14q-.63 0-1.26-.06a5.09 5.09 0 01-1.15-.24 2.33 2.33 0 01-.88-.48 2 2 0 01-.51-.72 2.51 2.51 0 01-.17-1 4.18 4.18 0 011.93-3.07c-.1-1.32-.16-2.66-.18-4h.97v.52c0 .9 0 1.9.1 3a20 20 0 013.19-1.32l.15.82a13.7 13.7 0 00-2.18.8 7 7 0 00-1.83 1.13 4.67 4.67 0 00-.92 1 2.45 2.45 0 00-.3 1.07 1.65 1.65 0 00.08.56 1.3 1.3 0 00.28.46 1.71 1.71 0 00.63.38 3.37 3.37 0 001 .23 8.73 8.73 0 001 0 19.41 19.41 0 002.52-.15zm-.37-8.45l-.66.3a15 15 0 00-.84-1.62l.62-.28a11.34 11.34 0 01.88 1.6zm1.43-.23l-.66.27a12.51 12.51 0 00-.83-1.6l.61-.29a14 14 0 01.88 1.62zm7.06 5.6l-.64.64a6.07 6.07 0 00-1.35-.67 4.45 4.45 0 00-1.47-.25 3.36 3.36 0 00-1.83.39 1.23 1.23 0 00-.58 1.07 1 1 0 00.69.94 4.85 4.85 0 002.1.34 18 18 0 002.88-.24v.83a18.31 18.31 0 01-2.93.21 5.73 5.73 0 01-2.74-.53 1.69 1.69 0 01-.94-1.55 1.85 1.85 0 01.89-1.65 4.25 4.25 0 012.31-.57 5.13 5.13 0 012.23.5 11 11 0 01-1.06-1.66h-4.51v-.75H222a12.78 12.78 0 01-.5-1.37h-3.3V134h3.11a12.72 12.72 0 01-.24-1.44l.93-.08c.09.69.17 1.2.24 1.52h2.93v.75h-2.75a10 10 0 00.51 1.37h2.8v.75h-2.46a18.16 18.16 0 001.53 2.13zm2.13 3.08l-.6-.25a10.21 10.21 0 00.47-2.67l.61.09a11.62 11.62 0 01-.16 1.45 8 8 0 01-.32 1.38zm3-4.34h1.59c0 1.23-.05 2.18-.12 2.84a3.83 3.83 0 01-.26 1.29 1.28 1.28 0 01-.5.48 1.9 1.9 0 01-.92.18h-.95l-.08-.71a8.74 8.74 0 001.16 0 .75.75 0 00.39-.21 1.12 1.12 0 00.27-.48 4.27 4.27 0 00.12-.91v-1.79h-2.83v.22h-.77v-6.07h4.57v.64h-1.69v1.13h1.35v.61h-1.35V136h1.39v.61h-1.39zm-2 3.53l-.13-2.11.49-.06.13 2.11zm-.12-8.09v1.13h1.33v-1.13zm0 1.74V136h1.33v-1.07zm0 1.68v1.14h1.33v-1.14zm1.21 4.21l-.29-1.8.44-.08.3 1.82zm.88-.54l-.29-1.42.38-.08.29 1.41zm7.45 2.23a7.78 7.78 0 01-1.77-2.42 10.34 10.34 0 01-.92-3.09h-1.21a14.09 14.09 0 01-.4 3.16 7.41 7.41 0 01-1 2.38l-.63-.45a6.05 6.05 0 00.82-2.24 16.23 16.23 0 00.29-3.23v-4.1h4.58V137h-1.65a8.52 8.52 0 00.81 2.64 7.09 7.09 0 001.62 2.23zm-1.11-9.33h-2.79v3.17h2.79zm5.43.42c-.29-.55-.53-1-.73-1.31l.9-.21c.28.52.55 1 .8 1.52h2.64c.38-.76.63-1.27.74-1.55l1 .24c-.23.43-.5.86-.8 1.31h3.18v.69h-10.8v-.69zm1.23 6.21h-2.79v2.72h-.87v-7.24h4.56v6.37a.71.71 0 01-.29.59 1.16 1.16 0 01-.72.21h-1.14l-.13-.76h.91a.51.51 0 00.32-.1.33.33 0 00.15-.27zm0-2.57v-1.3h-2.79v1.3zm-2.79 1.92h2.79v-1.27h-2.79zm5.07 1.16v-4.74h.89v4.74zm2.37 2.17H246l-.1-.8h1.24a.55.55 0 00.33-.11.39.39 0 00.14-.3V135h.89v6.66a.75.75 0 01-.28.62 1.09 1.09 0 01-.67.2zm4.73.1v-4.91l-1.85.1-.11-.68h.59c.28-.33.62-.75 1-1.28-.18-.2-.72-.74-1.63-1.61l.5-.46.23.2a12.8 12.8 0 001.16-1.93l.79.29a15.67 15.67 0 01-1.46 2.09l.87.81a17.78 17.78 0 001.26-1.95l.77.31a34.13 34.13 0 01-2.63 3.51l1.94-.13a7.77 7.77 0 00-.3-.89l.74-.17c.17.46.37 1.08.62 1.87l-.75.19c0-.08-.06-.22-.12-.4l-.82.08v5zM251 141.5l-.73-.12a12.5 12.5 0 00.51-2.89l.83.09a11.14 11.14 0 01-.61 2.92zm3-.75c-.13-.71-.25-1.44-.34-2.2.12 0 .37 0 .76-.08.15 1.07.27 1.78.35 2.14zm.58 1.58v-.68h2.92v-2.32h-2.2v-.72h2.2v-1.32h.9v1.32h2.36v.72h-2.36v2.32h2.89v.68zm3.5-6.16a12.31 12.31 0 01-2.91 1.37l-.3-.59a10.54 10.54 0 002.54-1.26 10 10 0 01-1.87-2l.64-.32a9.41 9.41 0 001.88 1.84 5.77 5.77 0 001.81-2H255v-.67h5.74l.38.34a7.72 7.72 0 01-2.34 2.83 13 13 0 002.64 1.22l-.46.66a13.59 13.59 0 01-2.83-1.42zm13.57 5.63h-7.87v.61h-.91v-8.25h4.34v-1.91h.93v1.91h4.44v8.25h-.93zm-4.44-6.92h-3.43v2.65h3.43zm-3.43 6.24h3.43v-2.89h-3.43zm7.87-3.59v-2.65h-3.51v2.65zm-3.51 3.59h3.51v-2.89h-3.51zm9.3-3.8a8.11 8.11 0 01-2 5.36h-1.13a6.86 6.86 0 001.54-2.14 7.45 7.45 0 000-6.35 6.86 6.86 0 00-1.54-2.14V132h1.13a8.19 8.19 0 012 5.32z"/><path class="cls-5" d="M98.49 122.7h-2v.43H95v-3.91l-.88.39-.53-1.17a12.13 12.13 0 002.8-1.47h-2.53v-1.2h2V115h-1.61v-1.18h1.58v-1.06h1.52v1.06h1.37v.62a11 11 0 00.62-1.3l1.32.42a8.85 8.85 0 01-1.16 2.21h1V117h-2.11a9.28 9.28 0 01-.82.71H100v5.44h-1.51zm0-3.06v-.84h-2v.84zm-2 1.93h2v-.88h-2zm.91-5.8h.49c.19-.26.37-.51.54-.77h-1zm7.57-2.31c-.07.24-.23.75-.5 1.52s-.45 1.28-.57 1.53a4.78 4.78 0 01.94 2.71 3.42 3.42 0 01-.13 1 1.63 1.63 0 01-.38.7 1.31 1.31 0 01-.61.38 4.42 4.42 0 01-1.06.1h-.1l-.36-1.4h.31a3.76 3.76 0 00.46 0 .32.32 0 00.18-.12.69.69 0 00.13-.31 1.91 1.91 0 000-.51 3.86 3.86 0 00-.75-2.27.47.47 0 01-.07-.22.53.53 0 010-.2 11.92 11.92 0 00.58-2.06h-1v8.8h-1.46v-10h3.89zm7.31 9.28a3.09 3.09 0 01-2.6-1.07 7.54 7.54 0 010-6.88 3.68 3.68 0 015.21 0 5.67 5.67 0 01.83 3.43 5.61 5.61 0 01-.83 3.45 3.07 3.07 0 01-2.61 1.07zm0-7.69a1.2 1.2 0 00-1.16.76 6.2 6.2 0 00-.35 2.42 6 6 0 00.36 2.42 1.25 1.25 0 002.31 0 6.11 6.11 0 00.36-2.42 6 6 0 00-.36-2.42 1.19 1.19 0 00-1.16-.76zm4.88 7.17v-1.64h.19a4.83 4.83 0 002.4.73c1.29 0 1.94-.52 1.94-1.56a1.13 1.13 0 00-.54-1 2.88 2.88 0 00-1.59-.36 8 8 0 00-1.83.26h-.22v-4.76h5.93v1.41h-4.13v1.78h1a3.83 3.83 0 012.49.71 2.39 2.39 0 01.86 2 2.76 2.76 0 01-1 2.21 4 4 0 01-2.66.84 7.34 7.34 0 01-2.84-.62zm12.04-2.76H125V118h4.22zm8.11 3.1h-6.57v-1.37a22.78 22.78 0 003.35-2.91 3 3 0 00.86-1.82 1.22 1.22 0 00-.41-1 1.74 1.74 0 00-1.14-.35 4.19 4.19 0 00-2.29.78H131v-1.65a7.6 7.6 0 012.74-.55 3.71 3.71 0 012.38.67 2.27 2.27 0 01.84 1.88 3.65 3.65 0 01-.68 2 15 15 0 01-3.17 2.93h4.24zm8.37-2.2a11.32 11.32 0 01-1.86 1.51 13.13 13.13 0 01-2 1.13l-.84-1.23a13.72 13.72 0 002.07-1.21 13.25 13.25 0 001.34-1.16zm1.95 2.87h-1.76v-4c-2.12.12-3.59.18-4.42.19l-.2-1.45h.27q.93 0 2.94-.06a27.71 27.71 0 00-2.39-2l1.05-1a7 7 0 01.89.67c.32-.32.62-.64.89-.95-1.28.07-2.25.11-2.92.11l-.21-1.34c2.17 0 4-.11 5.58-.25a20.35 20.35 0 003.28-.48l.78 1.25a34.51 34.51 0 01-4.47.57 19.72 19.72 0 01-1.84 2l.93.8a20.25 20.25 0 002.9-2.92l1.49.76a25.93 25.93 0 01-2.9 2.71l2.15-.13c-.21-.29-.44-.58-.68-.86l1.28-.71a25.3 25.3 0 012.33 3l-1.43.73-.6-.89q-1 .09-2.94.21zm4.87-1.61l-1 1.34a13.69 13.69 0 01-2.05-1.29 7.85 7.85 0 01-1.56-1.43l1.14-1a13.32 13.32 0 001.64 1.37 12.2 12.2 0 001.83 1.01zm2.16-2.45a13.15 13.15 0 01-.69 3.38l-1-.25a15.42 15.42 0 00.53-3.21zm1.6 4.07h-1.4v-4.58c-.74.07-1.31.11-1.72.13l-.14-1.14h.9c.27-.35.5-.67.7-.94-.57-.67-1.1-1.25-1.59-1.75l.81-.84.18.17a11.07 11.07 0 00.94-1.72l1.22.48a15.67 15.67 0 01-1.36 2.1l.49.55a13.62 13.62 0 001.11-1.89l1.22.55a26.09 26.09 0 01-2.25 3.22l1.14-.08a7.68 7.68 0 00-.29-.82l1.06-.3q.28.78.69 2.19l-1.08.28a2.48 2.48 0 00-.1-.4l-.53.07zm1.67-1.88l-1.11.21c-.19-1.13-.31-1.93-.35-2.39l1.08-.17zm2.41-2.17a4.63 4.63 0 01-.59 2.37 4.13 4.13 0 01-1.75 1.6l-.76-1a3.14 3.14 0 001.29-1.36 4 4 0 00.35-1.65v-.95h1.46zm2.13-1.53q-1.54.2-4.5.42l-.22-1.26h.84a16.38 16.38 0 00.65-1.53h-1.38v-1.2h2.25v-1.31h1.47v1.31H164v1.2h-3.24c-.19.43-.42.91-.7 1.44.68 0 1.28-.09 1.78-.14-.14-.24-.3-.49-.48-.76v-.09l1.19-.41a21.73 21.73 0 011.66 2.72l-1.39.51c-.06-.31-.19-.56-.35-.9zm1.85 4.21a1.41 1.41 0 01-.14.64.91.91 0 01-.41.39 1.33 1.33 0 01-.51.15h-.67a5.5 5.5 0 01-.86 0 1.33 1.33 0 01-.42-.18.7.7 0 01-.29-.36 1.33 1.33 0 01-.11-.56v-3.81h1.45v3.45c0 .13.06.2.17.2h.29a.29.29 0 00.17-.05.26.26 0 00.07-.15v-1.43l1.21.17zm7.15-3.87h-2v-2.1h2zm0 4.57h-2v-2.1h2zm-77.56 19.61l-.32-.71a10.35 10.35 0 001.79-.65 16.17 16.17 0 001.77-1 6.69 6.69 0 001.27-1h-3.31v-4.12h3.75v-.95h-4.81V133h4.81v-1h.9v1h4.92v.71h-4.92v.95h3.81v4.12h-3.5a12.11 12.11 0 002.44 1.6 13 13 0 002.61 1l-.45.77a13 13 0 01-2.62-1.09 13.48 13.48 0 01-2.3-1.53v3.09h-.88v-3.11a10.41 10.41 0 01-2.22 1.49 13.42 13.42 0 01-2.74 1.18zm2-5.76h2.91v-1.08H96zm2.91.61H96v1.14h2.91zm.88-.61h2.94v-1.08h-2.89zm2.94.61h-2.89v1.14h2.94zm3.41 4.97l-.5-.61a11.44 11.44 0 003-2.54l.75.46a9.53 9.53 0 01-1.53 1.51 11.06 11.06 0 01-1.72 1.18zm-.23-8.16v-.71h4.86v-1h.94v1h4.92v.71zm4.81 8.73h-1.51l-.08-.79h1.18c.33 0 .5-.14.5-.42v-3.13H107v-3.24h8.41v3.24h-3.75v3.5a.72.72 0 01-.31.6 1.11 1.11 0 01-.72.19zm3.87-6.9h-6.63v1.89h6.63zm1.79 6.24a11.36 11.36 0 01-1.67-1.13 11.78 11.78 0 01-1.59-1.42l.68-.51a11.67 11.67 0 001.59 1.38 8.68 8.68 0 001.56 1zm1.59.17l-.59-.25a10.64 10.64 0 00.47-2.67l.6.09a11.62 11.62 0 01-.16 1.45 7.11 7.11 0 01-.32 1.38zm3-4.34h1.6c0 1.23 0 2.18-.12 2.84a4 4 0 01-.27 1.29 1.19 1.19 0 01-.49.48 1.92 1.92 0 01-.92.18h-1l-.08-.71a8.55 8.55 0 001.15 0 .82.82 0 00.4-.21 1.12 1.12 0 00.27-.48 5.21 5.21 0 00.11-.91v-1.79h-2.83v.22h-.7v-6.07h4.57v.64h-1.69v1.13h1.36v.61h-1.36V136h1.39v.61h-1.39zm-2 3.53l-.13-2.11.48-.06.14 2.11zm-.12-8.09v1.13h1.33v-1.13zm0 1.74V136h1.33v-1.07zm0 1.68v1.14h1.33v-1.14zm1.21 4.21l-.29-1.8.43-.08.31 1.82zm.87-.54l-.29-1.42.38-.08.3 1.41zm7.45 2.23a7.6 7.6 0 01-1.76-2.42 10.36 10.36 0 01-.93-3.09h-1.21a13 13 0 01-.4 3.16 7.42 7.42 0 01-1 2.38l-.63-.45a6.24 6.24 0 00.82-2.24 17 17 0 00.29-3.23v-4.1h4.57V137h-1.64a8.52 8.52 0 00.81 2.64 7.09 7.09 0 001.62 2.23zm-1.11-9.33h-2.79v3.17h2.79zm6.19 5.76a7.3 7.3 0 01-3.51 3.65l-.47-.6a6.54 6.54 0 003.21-3.63c-.93-.7-1.63-1.19-2.12-1.49l.52-.61c.42.25 1 .67 1.85 1.26a11 11 0 00.25-2.49h-3.23v-.73h3.23v-2.11h.9v2.11h3.7v6.91a.45.45 0 00.1.31.44.44 0 00.25.15 4.32 4.32 0 00.64 0 2.1 2.1 0 00.52 0 .41.41 0 00.27-.18 1.13 1.13 0 00.17-.54 10.62 10.62 0 00.06-1.37l.8.1v1.71a1.07 1.07 0 01-.18.65 1 1 0 01-.51.36 4.61 4.61 0 01-1.11.1h-1a.94.94 0 01-.66-.31 1.18 1.18 0 01-.22-.77V135H134a12.59 12.59 0 01-.34 3.11c.91.68 1.54 1.16 1.88 1.46l-.64.66c-.33-.33-.84-.76-1.53-1.3zm12.68 3.15l-.2-.74a4.59 4.59 0 002.41-1.08 3.9 3.9 0 001-2.8 3.67 3.67 0 00-.94-2.42 2.91 2.91 0 00-2.27-.95 16.23 16.23 0 01-.7 5.17c-.46 1.38-1.15 2.08-2.05 2.08a1.54 1.54 0 01-1.43-.84 3.89 3.89 0 01-.49-2 5.39 5.39 0 011.32-3.55 4.17 4.17 0 013.36-1.57 3.87 3.87 0 012.85 1.14 3.93 3.93 0 011.15 2.9 4.58 4.58 0 01-1.15 3.33 4.47 4.47 0 01-2.86 1.33zm-.81-7.89a3.36 3.36 0 00-2.16 1.51 5.06 5.06 0 00-.87 2.82 3.73 3.73 0 00.3 1.43.84.84 0 00.78.56c.57 0 1-.58 1.37-1.77a17.89 17.89 0 00.58-4.55zm14.99 8.27h-1.75l-.14-.8H160a.66.66 0 00.41-.14.43.43 0 00.17-.35v-6.42h-3.61a5.35 5.35 0 001.07 2.5 6 6 0 002.14 1.91l-.56.68a7.43 7.43 0 01-1.91-1.68 6.88 6.88 0 01-1.18-2.09 6.5 6.5 0 01-3.33 3.79l-.45-.6a5.69 5.69 0 002.28-2 5.88 5.88 0 00.91-2.51h-3.55v7.79h-.87v-8.48h4.45v-2h.92v2h4.59v7.38a.91.91 0 01-.33.74 1.27 1.27 0 01-.92.28zm7.61-.03v-2.35h-2.68v-.67h2.68V138h-2.57v-.65h1.3l-.63-1.67h-1.53v6.87h-.87V135h4.28v-1.25h-4.94v-.71h4.94V132h.9v1.06h4.94v.71h-4.94V135H173v6.45a.92.92 0 01-.31.72 1.12 1.12 0 01-.76.27h-1.38l-.13-.8h1.24a.5.5 0 00.33-.12.39.39 0 00.14-.3v-5.56h-1.58l-.73 1.67h1.47v.67h-2.61v1.41h2.64v.67h-2.64v2.35zm1.83-6.75h-2.85l.58 1.67h1.6zm14.24 5.6h-7.58v.9h-.92V133h9.44v9.17h-.94zm-7.58-.76h7.58v-6.77h-7.58zm20.9 2.17h-1.14a8.13 8.13 0 010-10.73h1.14v.04a6.81 6.81 0 00-1.55 2.14 7.29 7.29 0 00-.7 3.16 7.46 7.46 0 00.7 3.19 6.88 6.88 0 001.55 2.13zm3.77-4.46h-1.26a11.38 11.38 0 01-1.05 4.3l-.59-.27a7 7 0 00.47-1.35 13.61 13.61 0 00.3-1.66 20.89 20.89 0 00.11-2.37v-4.41h2.85v9.26a.61.61 0 01-.27.5 1.09 1.09 0 01-.67.2h-1l-.1-.71h.79c.28 0 .42-.12.42-.35zm-1.23-.63H201v-2h-1.22v2zm0-2.64H201v-1.84h-1.22zm4.92 1.55a8.8 8.8 0 01-2.32 2.45l-.43-.49a8 8 0 001.87-2h-1.64v-.65h2a7.45 7.45 0 00.51-1.12h-2.23v-.64h1.05c-.15-.37-.38-.88-.67-1.52l.74-.24c.35.78.6 1.36.75 1.76h.56a10.3 10.3 0 00.3-2l.88.06a9.84 9.84 0 01-.33 2h1.05c.21-.45.46-1 .73-1.78l.82.18c-.26.58-.51 1.12-.77 1.6h1.34v.64h-2.08a6.36 6.36 0 00.48 1.12h1.88v.65h-1.48a8.3 8.3 0 001.94 1.88l-.54.61a9.71 9.71 0 01-2.29-2.49zm1 2.45a4.34 4.34 0 01-2.88 3.62l-.37-.57a3.94 3.94 0 001.78-1.43 3.32 3.32 0 00.59-1.62h-1.39v-.66h1.44v-1.17h.87v1.17h2.58v.7a13.61 13.61 0 01-.09 1.68 4.29 4.29 0 01-.22 1 1.18 1.18 0 01-.29.46 1.2 1.2 0 01-.4.22 2.64 2.64 0 01-.66.07h-1l-.1-.75h.68a1.82 1.82 0 00.54-.06.67.67 0 00.34-.25 2.07 2.07 0 00.23-.77 10.3 10.3 0 00.1-1.7zm-.11-4.22c-.1.26-.26.63-.48 1.12h1.47c-.21-.46-.37-.83-.48-1.12zm11.1 7.34a20.66 20.66 0 01-2.43.14q-.63 0-1.26-.06a5.09 5.09 0 01-1.15-.24 2.33 2.33 0 01-.88-.48 2 2 0 01-.51-.72 2.51 2.51 0 01-.17-1 4.18 4.18 0 011.93-3.07c-.1-1.32-.16-2.66-.18-4h.97v.52c0 .9 0 1.9.1 3a20 20 0 013.19-1.32l.15.82a13.7 13.7 0 00-2.18.8 7 7 0 00-1.83 1.13 4.67 4.67 0 00-.92 1 2.45 2.45 0 00-.3 1.07 1.65 1.65 0 00.08.56 1.3 1.3 0 00.28.46 1.71 1.71 0 00.63.38 3.37 3.37 0 001 .23 8.73 8.73 0 001 0 19.41 19.41 0 002.52-.15zm-.37-8.45l-.66.3a15 15 0 00-.84-1.62l.62-.28a11.34 11.34 0 01.88 1.6zm1.43-.23l-.66.27a12.51 12.51 0 00-.83-1.6l.61-.29a14 14 0 01.88 1.62zm7.06 5.6l-.64.64a6.07 6.07 0 00-1.35-.67 4.45 4.45 0 00-1.47-.25 3.36 3.36 0 00-1.83.39 1.23 1.23 0 00-.58 1.07 1 1 0 00.69.94 4.85 4.85 0 002.1.34 18 18 0 002.88-.24v.83a18.31 18.31 0 01-2.93.21 5.73 5.73 0 01-2.74-.53 1.69 1.69 0 01-.94-1.55 1.85 1.85 0 01.89-1.65 4.25 4.25 0 012.31-.57 5.13 5.13 0 012.23.5 11 11 0 01-1.06-1.66h-4.51v-.75H222a12.78 12.78 0 01-.5-1.37h-3.3V134h3.11a12.72 12.72 0 01-.24-1.44l.93-.08c.09.69.17 1.2.24 1.52h2.93v.75h-2.75a10 10 0 00.51 1.37h2.8v.75h-2.46a18.16 18.16 0 001.53 2.13zm2.13 3.08l-.6-.25a10.21 10.21 0 00.47-2.67l.61.09a11.62 11.62 0 01-.16 1.45 8 8 0 01-.32 1.38zm3-4.34h1.59c0 1.23-.05 2.18-.12 2.84a3.83 3.83 0 01-.26 1.29 1.28 1.28 0 01-.5.48 1.9 1.9 0 01-.92.18h-.95l-.08-.71a8.74 8.74 0 001.16 0 .75.75 0 00.39-.21 1.12 1.12 0 00.27-.48 4.27 4.27 0 00.12-.91v-1.79h-2.83v.22h-.77v-6.07h4.57v.64h-1.69v1.13h1.35v.61h-1.35V136h1.39v.61h-1.39zm-2 3.53l-.13-2.11.49-.06.13 2.11zm-.12-8.09v1.13h1.33v-1.13zm0 1.74V136h1.33v-1.07zm0 1.68v1.14h1.33v-1.14zm1.21 4.21l-.29-1.8.44-.08.3 1.82zm.88-.54l-.29-1.42.38-.08.29 1.41zm7.45 2.23a7.78 7.78 0 01-1.77-2.42 10.34 10.34 0 01-.92-3.09h-1.21a14.09 14.09 0 01-.4 3.16 7.41 7.41 0 01-1 2.38l-.63-.45a6.05 6.05 0 00.82-2.24 16.23 16.23 0 00.29-3.23v-4.1h4.58V137h-1.65a8.52 8.52 0 00.81 2.64 7.09 7.09 0 001.62 2.23zm-1.11-9.33h-2.79v3.17h2.79zm5.43.42c-.29-.55-.53-1-.73-1.31l.9-.21c.28.52.55 1 .8 1.52h2.64c.38-.76.63-1.27.74-1.55l1 .24c-.23.43-.5.86-.8 1.31h3.18v.69h-10.8v-.69zm1.23 6.21h-2.79v2.72h-.87v-7.24h4.56v6.37a.71.71 0 01-.29.59 1.16 1.16 0 01-.72.21h-1.14l-.13-.76h.91a.51.51 0 00.32-.1.33.33 0 00.15-.27zm0-2.57v-1.3h-2.79v1.3zm-2.79 1.92h2.79v-1.27h-2.79zm5.07 1.16v-4.74h.89v4.74zm2.37 2.17H246l-.1-.8h1.24a.55.55 0 00.33-.11.39.39 0 00.14-.3V135h.89v6.66a.75.75 0 01-.28.62 1.09 1.09 0 01-.67.2zm4.73.1v-4.91l-1.85.1-.11-.68h.59c.28-.33.62-.75 1-1.28-.18-.2-.72-.74-1.63-1.61l.5-.46.23.2a12.8 12.8 0 001.16-1.93l.79.29a15.67 15.67 0 01-1.46 2.09l.87.81a17.78 17.78 0 001.26-1.95l.77.31a34.13 34.13 0 01-2.63 3.51l1.94-.13a7.77 7.77 0 00-.3-.89l.74-.17c.17.46.37 1.08.62 1.87l-.75.19c0-.08-.06-.22-.12-.4l-.82.08v5zM251 141.5l-.73-.12a12.5 12.5 0 00.51-2.89l.83.09a11.14 11.14 0 01-.61 2.92zm3-.75c-.13-.71-.25-1.44-.34-2.2.12 0 .37 0 .76-.08.15 1.07.27 1.78.35 2.14zm.58 1.58v-.68h2.92v-2.32h-2.2v-.72h2.2v-1.32h.9v1.32h2.36v.72h-2.36v2.32h2.89v.68zm3.5-6.16a12.31 12.31 0 01-2.91 1.37l-.3-.59a10.54 10.54 0 002.54-1.26 10 10 0 01-1.87-2l.64-.32a9.41 9.41 0 001.88 1.84 5.77 5.77 0 001.81-2H255v-.67h5.74l.38.34a7.72 7.72 0 01-2.34 2.83 13 13 0 002.64 1.22l-.46.66a13.59 13.59 0 01-2.83-1.42zm13.57 5.63h-7.87v.61h-.91v-8.25h4.34v-1.91h.93v1.91h4.44v8.25h-.93zm-4.44-6.92h-3.43v2.65h3.43zm-3.43 6.24h3.43v-2.89h-3.43zm7.87-3.59v-2.65h-3.51v2.65zm-3.51 3.59h3.51v-2.89h-3.51zm9.3-3.8a8.11 8.11 0 01-2 5.36h-1.13a6.86 6.86 0 001.54-2.14 7.45 7.45 0 000-6.35 6.86 6.86 0 00-1.54-2.14V132h1.13a8.19 8.19 0 012 5.32z"/></g></g></svg>