<svg id="レイヤー_1" data-name="レイヤー 1" xmlns="http://www.w3.org/2000/svg" viewBox="0 0 585.75 102.54"><defs><style>.cls-1{fill:#231815;}</style></defs><title>loadingText</title><path class="cls-1" d="M23,8.69V40.81H13.64V8.69H0V.25H36.6V8.69Z"/><path class="cls-1" d="M106.57.25h11.64L101.12,19.86l17.81,21H107.09L90.51,20.22V40.81H81.3V.25h9.21V19.5Z"/><path class="cls-1" d="M129.57.25l9.11,16.37L147.84.25H158.6L143.31,25V40.81h-9.26V25L118.76.25Z"/><path class="cls-1" d="M40,.14V40.93h38V.14ZM69.37,32H48.73v-23H69.37Z"/><path class="cls-1" d="M159.5.14V40.93h38V.14ZM188.83,32H168.19v-23h20.64Z"/><path class="cls-1" d="M309.64,41H299.25l-3-8.45H280.1l-3,8.45h-10.4L282.1.39h12ZM288.13,9.35l-5.56,15.18h11.12Z"/><path class="cls-1" d="M324.4.39l8.91,29.29L342.21.39h13.44V41H346.9V21.44c0-1.28.26-9.93.31-11.42L337.63,41H329L319.4,10c.06,1.28.32,10.14.32,11.42V41H311V.39Z"/><path class="cls-1" d="M391.35.39V8.83H368v7.52h22.45v8.08H368v8.08h23.93V41h-33.2V.39Z"/><path class="cls-1" d="M464.29.39V15.83h19.77V.39h9.26V41h-9.26V24.28H464.29V41h-9.22V.39Z"/><path class="cls-1" d="M545.75.39l4.53,31.35L554.81.39h12.26l4.53,31.35L576.13.39h9.62L577.93,41H565.47L560.94,10,556.4,41H544L536.13.39Z"/><path class="cls-1" d="M496.85.28v40.8h38V.28Zm29.33,31.88H505.55V9.2h20.63Z"/><polygon class="cls-1" points="265.5 14.5 265.5 0.28 227.49 0.28 227.49 41.08 265.5 41.08 265.5 26.9 265.5 18.09 256.81 18.09 246.43 18.09 246.43 26.9 256.81 26.9 256.81 32.16 236.18 32.16 236.18 9.2 256.81 9.2 256.81 14.5 265.5 14.5"/><polygon class="cls-1" points="451.44 8.4 451.44 0 418.26 0 418.26 3.85 418.26 8.4 418.26 16.23 418.26 22.05 418.26 24.64 443.04 24.64 443.04 32.48 418.26 32.48 418.26 40.88 443.04 40.88 451.44 40.88 451.44 32.48 451.44 24.64 451.44 22.68 451.44 16.23 426.66 16.23 426.66 8.4 451.44 8.4"/><path class="cls-1" d="M235.21,88.58c-2.68.31-4.32.77-4.32,3.81v1.29h27.26v8.45H221.66V94c0-3.92,0-12.37,10.05-13.55l13.19-1.55c3-.36,4.38-.87,4.38-4.33s-1.13-5-8.76-5c-8.6,0-8.91,1.09-9,6.14h-9.06c0-8.66.46-14.59,17.36-14.59,10.72,0,18.65.73,18.65,13,0,5.25-1.34,7.93-3.14,9.53a13.1,13.1,0,0,1-7.57,3.4Z"/><path class="cls-1" d="M280.82,61.11c16.49,0,18.75,3.82,18.75,21.08,0,16.59-3.09,20.35-17.62,20.35-15.56,0-19.27-1.85-19.27-20.71C262.68,65.13,265.62,61.11,280.82,61.11ZM272,82c0,12.06.62,12.16,9.74,12.16,7.73,0,8.61-.61,8.61-11.18,0-2.21-.1-9-.77-10.77-.88-2.42-3.76-2.63-8.4-2.63C272.57,69.56,272,69.82,272,82Z"/><path class="cls-1" d="M320.55,61.53v40.6h-9.33V70h-8.35V61.53Z"/><path class="cls-1" d="M336.37,90.23c-.16,2.52.67,4.07,7,4.07,7.78,0,9.79-.83,9.85-9.53-1.5,1.34-3.2,2.93-11.34,2.93-7.58,0-15.2-1.34-15.2-13,0-13.56,8.45-13.56,17.36-13.56,15.72,0,18.35,3.1,18.35,19.38,0,17.42-1.55,22.05-18.66,22.05-10.3,0-16.59-1.7-16.54-12.31Zm16.79-16c0-4.64-2.57-4.84-9.48-4.84-6.64,0-7.88.87-7.88,5.1s2,5.2,8.55,5.2C351.77,79.66,353.16,78.58,353.16,74.2Z"/></svg>