<svg id="text" xmlns="http://www.w3.org/2000/svg" width="369.34" height="116" viewBox="0 0 369.34 116">
  <defs>
    <style>
      .cls-1 {
        fill: #202020;
      }

      .cls-2 {
        fill: #fff;
      }

      .cls-2, .cls-3 {
        fill-rule: evenodd;
      }

      .cls-3 {
        fill: #231815;
      }
    </style>
  </defs>
  <rect id="タグ塗" class="cls-1" width="60" height="34"/>
  <path id="会期" class="cls-2" d="M2084.34,534.5v-1.121a17.64,17.64,0,0,0,2.52,1.485,7.441,7.441,0,0,1,.85-1.205,14.5,14.5,0,0,1-5.94-4.4,0.392,0.392,0,0,0,.33-0.238l-1.84-.1a14.534,14.534,0,0,1-5.88,4.958,5.728,5.728,0,0,1,.78,1.093,16.856,16.856,0,0,0,2.48-1.5V534.5h6.7Zm-6.4-1.233a13.41,13.41,0,0,0,3.02-3.026,14.555,14.555,0,0,0,3.22,3.026h-6.24Zm0.78,3.964a24.259,24.259,0,0,1-1.37,3.012c-0.77.028-1.47,0.028-2.06,0.042l0.47,1.5a0.269,0.269,0,0,0,.24-0.21c2.19-.1,5.63-0.253,8.91-0.435,0.25,0.336.46,0.673,0.63,0.953l1.22-.757a18.822,18.822,0,0,0-3.3-3.684l-1.15.617a19.309,19.309,0,0,1,1.73,1.793c-1.79.056-3.61,0.112-5.24,0.154a27.26,27.26,0,0,0,1.38-2.718,0.4,0.4,0,0,0,.38-0.168l-0.31-.1h6.66v-1.247h-11.72v1.247h3.53Zm21.1,0.238v-5.575h1v-1.162h-1v-1.317a0.276,0.276,0,0,0,.3-0.224l-1.54-.1v1.639h-2.22v-1.317a0.325,0.325,0,0,0,.32-0.224l-1.53-.1v1.639h-1.16v1.162h1.16v5.575h-1.33v1.163h7.07v-1.163h-1.07Zm-1.24-3.432v1.149h-2.22v-1.149h2.22Zm0-1.036h-2.22v-1.107h2.22V533Zm0,3.222v1.246h-2.22v-1.246h2.22Zm2.85-6.612v5.155a12.511,12.511,0,0,1-1.07,5.869,14.681,14.681,0,0,0-1.39-1.821l-1.02.56a12.536,12.536,0,0,1,1.49,2.157l0.59-.336-0.12.154a4.636,4.636,0,0,1,1.04.771,9.712,9.712,0,0,0,1.61-4.819h2.68v3.222c0,0.294-.07.294-0.73,0.294-0.32,0-.74,0-1.15-0.028a4.788,4.788,0,0,1,.39,1.275c2.27,0.028,2.77-.224,2.77-1.541V529.61h-5.09Zm3.81,3.236h-2.55v-2.031h2.55v2.031Zm-2.55,1.19h2.55v2.06h-2.58c0.01-.463.03-0.911,0.03-1.331v-0.729Zm-6.99,4.819a7.445,7.445,0,0,1-1.85,2.451,6.93,6.93,0,0,1,.99.757,9.548,9.548,0,0,0,1.99-2.592,0.275,0.275,0,0,0,.32-0.126Z" transform="translate(-2060 -518)"/>
  <path id="_2022年5月26日_木_5月27日_金_" data-name="2022年5月26日（木）～ 5月27日（金）" class="cls-3" d="M2143.17,539.062h-5.8l2.19-3.129a17.665,17.665,0,0,0,2.52-3.65,6.761,6.761,0,0,0,.7-2.924,4.842,4.842,0,0,0-1.26-3.58,4.786,4.786,0,0,0-3.54-1.26,5.007,5.007,0,0,0-2.67.721,4.936,4.936,0,0,0-1.83,2.021,6.382,6.382,0,0,0-.65,2.872h3.33a4.006,4.006,0,0,1,.47-2.11,1.468,1.468,0,0,1,1.29-.75,1.249,1.249,0,0,1,1.13.645,3.437,3.437,0,0,1,.39,1.781,4.39,4.39,0,0,1-.41,1.764,12.827,12.827,0,0,1-1.3,2.138l-4.62,5.871v2.344h10.06v-2.754Zm11.7-7.406a9.415,9.415,0,0,0-1.3-5.285,4.55,4.55,0,0,0-7.34.017,9.557,9.557,0,0,0-1.27,5.4v3.223a9.183,9.183,0,0,0,1.33,5.22,4.528,4.528,0,0,0,7.3-.053,9.6,9.6,0,0,0,1.28-5.414v-3.105Zm-3.33,3.809a8.163,8.163,0,0,1-.41,2.888,1.3,1.3,0,0,1-1.2.944,1.328,1.328,0,0,1-1.26-1.008,8.712,8.712,0,0,1-.41-3.071v-4.253c0.04-2.461.59-3.692,1.64-3.692a1.323,1.323,0,0,1,1.24,1.008,8.575,8.575,0,0,1,.4,3.023v4.161Zm15.61,3.6h-5.8l2.19-3.129a18.194,18.194,0,0,0,2.53-3.65,6.89,6.89,0,0,0,.69-2.924,4.879,4.879,0,0,0-1.25-3.58,4.811,4.811,0,0,0-3.55-1.26,5.031,5.031,0,0,0-2.67.721,4.847,4.847,0,0,0-1.82,2.021,6.253,6.253,0,0,0-.65,2.872h3.32a3.908,3.908,0,0,1,.48-2.11,1.441,1.441,0,0,1,1.28-.75,1.249,1.249,0,0,1,1.13.645,3.432,3.432,0,0,1,.4,1.781,4.249,4.249,0,0,1-.42,1.764,12.827,12.827,0,0,1-1.3,2.138l-4.61,5.871v2.344h10.05v-2.754Zm12.09,0h-5.8l2.19-3.129a18.194,18.194,0,0,0,2.53-3.65,6.89,6.89,0,0,0,.69-2.924,4.842,4.842,0,0,0-1.26-3.58,4.786,4.786,0,0,0-3.54-1.26,5.031,5.031,0,0,0-2.67.721,4.936,4.936,0,0,0-1.83,2.021,6.382,6.382,0,0,0-.65,2.872h3.33a3.908,3.908,0,0,1,.48-2.11,1.441,1.441,0,0,1,1.28-.75,1.249,1.249,0,0,1,1.13.645,3.437,3.437,0,0,1,.39,1.781,4.39,4.39,0,0,1-.41,1.764,12.827,12.827,0,0,1-1.3,2.138l-4.62,5.871v2.344h10.06v-2.754Zm13.44-2.987v-3.041h5.34v-2.24h-5.34v-2.441h5.78v-2.32h-11.42c0.18-.4.36-0.78,0.52-1.18a0.544,0.544,0,0,0,.56-0.24l-2.9-.9a16.778,16.778,0,0,1-4.31,6.8,14.756,14.756,0,0,1,1.93,1.64,18.244,18.244,0,0,0,2.96-3.8h4.4v2.441h-5.9v5.281h-3.21v2.341h9.11v4.24h2.48v-4.24h6.9v-2.341h-6.9Zm-5.98-3.041h3.5v3.041h-3.5v-3.041Zm17.5,1.071,0.22-.293a1.739,1.739,0,0,1,1.45-.644,1.715,1.715,0,0,1,1.49.75,3.8,3.8,0,0,1,.54,2.226,4.9,4.9,0,0,1-.45,2.362,1.4,1.4,0,0,1-1.27.791,1.369,1.369,0,0,1-1.14-.586,3.027,3.027,0,0,1-.53-1.653h-3.28a5.144,5.144,0,0,0,.67,2.578,4.735,4.735,0,0,0,1.81,1.776,5.071,5.071,0,0,0,2.5.638,4.57,4.57,0,0,0,3.63-1.57,6.079,6.079,0,0,0,1.36-4.137,6.888,6.888,0,0,0-1.14-4.242,3.848,3.848,0,0,0-3.25-1.5,3.507,3.507,0,0,0-1.98.645l0.3-3.656h5.54v-2.836h-8.26l-0.84,8.671Zm11.18-9.372v6.641c0,3.1-.28,6.962-3.66,9.542a10.2,10.2,0,0,1,1.82,1.781,10.688,10.688,0,0,0,3.76-6.2h8.44v3.1c0,0.58-.14.58-1.46,0.58-0.74,0-1.8,0-2.74-.06a10.037,10.037,0,0,1,1,2.52c4.48,0,5.74-.32,5.74-3v-14.9h-12.9Zm10.36,4.761h-7.9v-2.421h7.9v2.421Zm0,2.28v2.4h-8.04c0.08-.84.12-1.641,0.14-2.4h7.9Zm15.57,7.288h-5.81l2.2-3.129a18.073,18.073,0,0,0,2.52-3.65,6.761,6.761,0,0,0,.7-2.924,4.386,4.386,0,0,0-4.81-4.84,4.972,4.972,0,0,0-2.66.721,4.8,4.8,0,0,0-1.83,2.021,6.382,6.382,0,0,0-.65,2.872h3.33a4.006,4.006,0,0,1,.47-2.11,1.468,1.468,0,0,1,1.29-.75,1.26,1.26,0,0,1,1.13.645,3.437,3.437,0,0,1,.39,1.781,4.249,4.249,0,0,1-.42,1.764,12.686,12.686,0,0,1-1.29,2.138l-4.62,5.871v2.344h10.06v-2.754Zm8.61-14.484a6.778,6.778,0,0,0-3.89,1.154,7.146,7.146,0,0,0-2.56,3.264,12.771,12.771,0,0,0-.88,4.945v1.231a8.114,8.114,0,0,0,1.4,5.015,4.417,4.417,0,0,0,3.72,1.863,4.608,4.608,0,0,0,2.58-.744,5,5,0,0,0,1.78-2.091,7.059,7.059,0,0,0,.63-3.024,7.212,7.212,0,0,0-1.11-4.219,3.44,3.44,0,0,0-2.96-1.582,3.4,3.4,0,0,0-2.67,1.219,5.135,5.135,0,0,1,1.33-3.1,4.019,4.019,0,0,1,2.96-1.119h0.19v-2.812h-0.52Zm-1.02,9.406a4.463,4.463,0,0,1,.49,2.236,4.525,4.525,0,0,1-.48,2.214,1.358,1.358,0,0,1-2.54-.03,5.891,5.891,0,0,1-.48-2.7v-1.2a2.412,2.412,0,0,1,.64-0.986A1.492,1.492,0,0,1,2248.9,533.984Zm6.97,8.392h2.48v-1.32h8.6v1.3h2.58V524.973h-13.66v17.4Zm11.08-10.6h-8.6v-4.381h8.6v4.381Zm-8.6,2.381h8.6v4.481h-8.6v-4.481Zm21.78-7.976h-1.49a11.013,11.013,0,0,0,0,15.11h1.49v-0.08a10.4,10.4,0,0,1,0-14.95v-0.08Zm15.52,3.761h-6.05v-3.3c0.3-.048.43-0.144,0.44-0.32l-2.49-.128v3.745h-6.04v1.9h5.2a15.375,15.375,0,0,1-5.82,6.274,10.439,10.439,0,0,1,1.42,1.633,16.923,16.923,0,0,0,5.24-5.666v7.2h2.05v-7.3a18.156,18.156,0,0,0,5.21,5.666,8.978,8.978,0,0,1,1.48-1.7,16.219,16.219,0,0,1-5.93-6.114h5.29v-1.9Zm1.37,11.349h1.48a11.013,11.013,0,0,0,0-15.11h-1.48v0.08a10.4,10.4,0,0,1,0,14.95v0.08Zm24.61-9.895a3.908,3.908,0,0,1-3.18,2.4,3.66,3.66,0,0,1-2.98-1.441,6.051,6.051,0,0,0-4.72-2.2c-2.14,0-4.1,1.2-5.44,3.681l2.2,1.2a3.908,3.908,0,0,1,3.18-2.4,3.686,3.686,0,0,1,2.98,1.441,6.051,6.051,0,0,0,4.72,2.2c2.14,0,4.1-1.2,5.44-3.681Zm11.35,2.711,0.21-.293a1.912,1.912,0,0,1,2.95.106,3.881,3.881,0,0,1,.53,2.226,4.9,4.9,0,0,1-.45,2.362,1.409,1.409,0,0,1-2.41.205,3.11,3.11,0,0,1-.53-1.653H2330a5.144,5.144,0,0,0,.67,2.578,4.761,4.761,0,0,0,1.82,1.776,5.006,5.006,0,0,0,2.49.638,4.542,4.542,0,0,0,3.63-1.57,6.079,6.079,0,0,0,1.36-4.137,6.888,6.888,0,0,0-1.14-4.242,3.835,3.835,0,0,0-3.25-1.5,3.507,3.507,0,0,0-1.98.645l0.3-3.656h5.55v-2.836h-8.27l-0.84,8.671Zm11.17-9.372v6.641c0,3.1-.28,6.962-3.66,9.542a10.2,10.2,0,0,1,1.82,1.781,10.688,10.688,0,0,0,3.76-6.2h8.45v3.1c0,0.58-.14.58-1.46,0.58-0.75,0-1.81,0-2.75-.06a10.037,10.037,0,0,1,1,2.52c4.49,0,5.75-.32,5.75-3v-14.9h-12.91Zm10.37,4.761h-7.91v-2.421h7.91v2.421Zm0,2.28v2.4h-8.05c0.08-.84.12-1.641,0.14-2.4h7.91Zm15.56,7.288h-5.8l2.19-3.129a17.665,17.665,0,0,0,2.52-3.65,6.761,6.761,0,0,0,.7-2.924,4.842,4.842,0,0,0-1.26-3.58,4.786,4.786,0,0,0-3.54-1.26,5.007,5.007,0,0,0-2.67.721,4.936,4.936,0,0,0-1.83,2.021,6.382,6.382,0,0,0-.65,2.872h3.33a3.908,3.908,0,0,1,.48-2.11,1.441,1.441,0,0,1,1.28-.75,1.249,1.249,0,0,1,1.13.645,3.437,3.437,0,0,1,.39,1.781,4.39,4.39,0,0,1-.41,1.764,12.827,12.827,0,0,1-1.3,2.138l-4.62,5.871v2.344h10.06v-2.754Zm11.23-14.308h-10.33v2.754h6.85l-5.42,14.308h3.51l5.39-15.152v-1.91Zm2.4,17.622h2.48v-1.32h8.6v1.3h2.58V524.973h-13.66v17.4Zm11.08-10.6h-8.6v-4.381h8.6v4.381Zm-8.6,2.381h8.6v4.481h-8.6v-4.481Zm21.78-7.976h-1.49a11.013,11.013,0,0,0,0,15.11h1.49v-0.08a10.4,10.4,0,0,1,0-14.95v-0.08Zm14.35,9.8v-1.649h-4.98v-1.6h3.09v-0.832a21.181,21.181,0,0,0,2.45,1.537,9.428,9.428,0,0,1,1.28-1.713,17.335,17.335,0,0,1-6.69-5.154,0.442,0.442,0,0,0,.41-0.32l-2.56-.144a17.564,17.564,0,0,1-6.58,5.858,7.684,7.684,0,0,1,1.17,1.521,21.789,21.789,0,0,0,2.42-1.537v0.784h2.98v1.6h-4.92v1.649h2.45l-1.44.592a11.713,11.713,0,0,1,1.35,2.609h-3.16v1.649h13.66v-1.649h-3.65a22.82,22.82,0,0,0,1.55-2.209,0.488,0.488,0,0,0,.45-0.16l-1.94-.832h2.66Zm-7.01,3.2h-2.15l1.3-.56a11.04,11.04,0,0,0-1.47-2.641h2.32v3.2Zm3.68,0h-1.65v-3.2h2.22a15.14,15.14,0,0,1-1.55,2.737Zm-5.51-8.131a16.148,16.148,0,0,0,2.87-3.026,16.95,16.95,0,0,0,2.97,3.026h-5.84Zm11.38,10.244h1.48a11.013,11.013,0,0,0,0-15.11h-1.48v0.08a10.4,10.4,0,0,1,0,14.95v0.08Z" transform="translate(-2060 -518)"/>
  <rect id="タグ塗-2" data-name="タグ塗" class="cls-1" y="41" width="60" height="34"/>
  <path id="会場" class="cls-2" d="M2084.34,575.5v-1.121a17.64,17.64,0,0,0,2.52,1.485,7.441,7.441,0,0,1,.85-1.205,14.5,14.5,0,0,1-5.94-4.4,0.392,0.392,0,0,0,.33-0.238l-1.84-.1a14.534,14.534,0,0,1-5.88,4.958,5.728,5.728,0,0,1,.78,1.093,16.856,16.856,0,0,0,2.48-1.5V575.5h6.7Zm-6.4-1.233a13.41,13.41,0,0,0,3.02-3.026,14.555,14.555,0,0,0,3.22,3.026h-6.24Zm0.78,3.964a24.259,24.259,0,0,1-1.37,3.012c-0.77.028-1.47,0.028-2.06,0.042l0.47,1.5a0.269,0.269,0,0,0,.24-0.21c2.19-.1,5.63-0.253,8.91-0.435,0.25,0.336.46,0.673,0.63,0.953l1.22-.757a18.822,18.822,0,0,0-3.3-3.684l-1.15.617a19.309,19.309,0,0,1,1.73,1.793c-1.79.056-3.61,0.112-5.24,0.154a27.26,27.26,0,0,0,1.38-2.718,0.4,0.4,0,0,0,.38-0.168l-0.31-.1h6.66v-1.247h-11.72v1.247h3.53Zm20.79-7.9v4.678h6.6V570.33h-6.6Zm1.19,1.877v-0.925h4.18v0.925h-4.18Zm0,1.849v-0.939h4.18v0.939h-4.18Zm6.42,1.639h-8.99v1.134h1.86a7.96,7.96,0,0,1-1.37,1.779c-0.24-1.036-.24-1.092-0.27-1.148l-1.36.574V574.21h1.45v-1.261h-1.45V570.26c0.23-.028.31-0.1,0.32-0.21l-1.56-.1v3h-1.56v1.261h1.56v4.328c-0.7.294-1.33,0.547-1.84,0.729l0.58,1.457a0.272,0.272,0,0,0,.18-0.253c0.99-.448,2.5-1.162,3.93-1.863v0.014a6.171,6.171,0,0,1-1.31,1.009,7.962,7.962,0,0,1,.84.77,8.639,8.639,0,0,0,1.85-1.625h1.2a9.126,9.126,0,0,1-3.01,3.012,4.565,4.565,0,0,1,.9.8,11.278,11.278,0,0,0,3.29-3.811h1.13A8.034,8.034,0,0,1,2101,582.4a3.938,3.938,0,0,1,.95.771,9.894,9.894,0,0,0,2.62-4.4h0.93c-0.17,2.018-.35,2.844-0.59,3.082a0.473,0.473,0,0,1-.42.154c-0.2,0-.63-0.014-1.12-0.056a2.7,2.7,0,0,1,.29,1.079c1.5,0.042,1.89.014,2.3-.434,0.38-.407.6-1.541,0.82-4.455a2.136,2.136,0,0,0,.06-0.35l-0.71-.112-0.27.028h-5.07c0.19-.294.36-0.588,0.52-0.883h5.81V575.7Z" transform="translate(-2060 -518)"/>
  <path id="グランフロント大阪_コングレコンベンションセンター" data-name="グランフロント大阪 コングレコンベンションセンター" class="cls-3" d="M2140.85,561.753s-0.44.042-2.86,0.056a10.466,10.466,0,0,0,.83-1.667,4.744,4.744,0,0,0-1.77-.868,10.569,10.569,0,0,1-4.85,5.8,4.278,4.278,0,0,0,1.57,1.261,13.048,13.048,0,0,0,3.13-2.942l3.68-.056a8.378,8.378,0,0,1-2.14,3.838,10.6,10.6,0,0,1-5.49,2.956,5.1,5.1,0,0,0,1.61,1.6,12.765,12.765,0,0,0,5.84-3.993,14.57,14.57,0,0,0,2.49-5.126,4.617,4.617,0,0,0-1.08-.939,5.273,5.273,0,0,1-.96.1v-0.014Zm3.29-2.479a4.456,4.456,0,0,0-.91.35,9.5,9.5,0,0,1,.78,1.723,2.638,2.638,0,0,0,.94-0.35A8.384,8.384,0,0,0,2144.14,559.274Zm-2.54.812a8.361,8.361,0,0,1,.79,1.779,2.531,2.531,0,0,0,.94-0.364,9.978,9.978,0,0,0-.8-1.751A4.741,4.741,0,0,0,2141.6,560.086Zm5.35,0.084a13.315,13.315,0,0,0,.13,1.751c0.38-.014,1.04-0.028,1.25-0.028,0.94-.028,6.17-0.056,6.75-0.056a10.7,10.7,0,0,0-.11-1.751c-0.31.028-.68,0.07-1.15,0.084-0.72.028-4.82,0.084-5.67,0.056C2147.65,560.212,2147.42,560.2,2146.95,560.17Zm9.14,4.007a5.26,5.26,0,0,0-1.05-.687c-0.24.028-.48,0.056-0.79,0.07-1.05.07-5.98,0.126-6.96,0.084-0.52,0-.99-0.028-1.51-0.07a8.865,8.865,0,0,0,.18,1.863c1.16-.042,6.89-0.126,7.75-0.126a5.44,5.44,0,0,1-1.39,2.507,8.424,8.424,0,0,1-5.02,2.2,6.228,6.228,0,0,0,1.46,1.709,10.08,10.08,0,0,0,5.11-2.9A10.653,10.653,0,0,0,2156.09,564.177Zm2.78-3.825c-0.22.309-.78,1.247-1.01,1.7a21.9,21.9,0,0,1,3.74,2.242,7.535,7.535,0,0,0,1.1-1.779A20.662,20.662,0,0,0,2158.87,560.352Zm-0.74,9.231a5.2,5.2,0,0,0,1.23,1.891,18.053,18.053,0,0,0,4.14-1.722,14.8,14.8,0,0,0,5.53-5.744,5.563,5.563,0,0,0-1.44-1.6,12.078,12.078,0,0,1-5.12,5.673A12.769,12.769,0,0,1,2158.13,569.583Zm23.18-7.746a5.191,5.191,0,0,0-1.15-.882,7.3,7.3,0,0,1-.92.07c-0.87.014-5.96,0.07-6.78,0.07-0.49,0-1.15-.042-1.75-0.1a13.877,13.877,0,0,0,.18,1.961c1.22-.028,6.83-0.1,8.09-0.112a8.66,8.66,0,0,1-1.69,3.922,9.249,9.249,0,0,1-5.28,3.124,5.437,5.437,0,0,0,1.65,1.709,11.534,11.534,0,0,0,5.51-4.175A16.016,16.016,0,0,0,2181.31,561.837Zm10.78-.644c-1.96.042-6.48,0-7.11-.014v-0.014s-0.34.014-1.32-.014c0.02,0.826.02,1.177,0.02,1.177,0.02,1.708.05,5.392,0.01,7.339-0.01.351-.03,0.883-0.04,1.107,0.52,0.028,1.4.028,1.95,0l-0.02-1.008c1.6-.014,4.5-0.014,5.91,0v0.028c-0.01.8-.03,0.98-0.03,0.98,0.68,0.028,1.42.028,1.94,0,0-.154-0.02-0.7-0.03-0.98-0.01-1.611-.01-5.323,0-7.228,0,0,.01-0.337.03-1.415-1.01.028-1.31,0.028-1.31,0.028v0.014Zm-6.51,6.85v-5.127c1.32-.014,5.04,0,5.91,0v5.127h-5.91Zm11.19-7.691a16.258,16.258,0,0,0-1.01,1.7,22.3,22.3,0,0,1,3.74,2.242,7.188,7.188,0,0,0,1.09-1.779A20.908,20.908,0,0,0,2196.77,560.352Zm-0.75,9.231a5.23,5.23,0,0,0,1.24,1.891,18.183,18.183,0,0,0,4.13-1.722,14.8,14.8,0,0,0,5.53-5.744,5.563,5.563,0,0,0-1.44-1.6,12.078,12.078,0,0,1-5.12,5.673A12.7,12.7,0,0,1,2196.02,569.583Zm20.5-2.157a5.773,5.773,0,0,0,.78-1.863,42.29,42.29,0,0,0-4.98-1.919c0-1.737.02-3.292,0.05-3.8a14.54,14.54,0,0,0-2.09-.112,17.93,17.93,0,0,1,.1,1.863c0.02,1.107-.03,6.962-0.07,8.251-0.01.588-.05,1.33-0.1,1.779a11.178,11.178,0,0,0,2.16.07c-0.03-.589-0.05-1.387-0.05-1.793v-4.287A27.23,27.23,0,0,1,2216.52,567.426Zm14.91-4.748h-5.51c0.09-1.135.11-2.27,0.12-3.348a0.392,0.392,0,0,0,.39-0.294l-2.22-.14c-0.02,1.26,0,2.535-.1,3.782h-5.2v1.737h4.96a7.853,7.853,0,0,1-5.22,6.219,5.331,5.331,0,0,1,1.23,1.471,9.193,9.193,0,0,0,5.34-5.7,9.019,9.019,0,0,0,5.3,5.687,7.608,7.608,0,0,1,1.22-1.611c-2.88-.967-4.51-3.166-5.33-6.065h5.02v-1.737Zm4.71-3.18h-3.18v12.621h1.46V561h1.12c-0.22.966-.52,2.213-0.81,3.109a3.98,3.98,0,0,1,1.13,2.424c0,0.714-.18.994-0.64,0.994-0.17,0-.39,0-0.65-0.014a3.383,3.383,0,0,1,.35,1.387c1.21,0.056,2.45-.112,2.45-2.213a4.234,4.234,0,0,0-1.21-2.76c0.4-1.12.86-2.619,1.16-3.74a0.36,0.36,0,0,0,.12-0.21l-1.05-.532Zm3.45,1.681h5.85v-1.513h-7.43v4.118c0,2.185-.13,5.211-1.67,7.27a5.482,5.482,0,0,1,1.27,1.009,11.96,11.96,0,0,0,1.89-6.108h0.02a13.016,13.016,0,0,0,1.48,3.124,6.674,6.674,0,0,1-2.43,1.653,6.17,6.17,0,0,1,.96,1.387,9,9,0,0,0,2.54-1.751,8.009,8.009,0,0,0,2.57,1.751,6.413,6.413,0,0,1,1.08-1.4,7.266,7.266,0,0,1-2.6-1.611,12.823,12.823,0,0,0,1.88-5.253,0.9,0.9,0,0,0,.14-0.252c-0.96-.308-0.99-0.308-1-0.322l-0.28.056h-4.27v-2.157Zm-0.02,3.67h3.59a9.522,9.522,0,0,1-1.16,2.927,9.742,9.742,0,0,1-1.28-2.731l-1.17.266Zm-95.09,23.706c-3.24,0-9.22.02-11.16-.08a12.2,12.2,0,0,0,.22,2.8c0.8-.02,1.6-0.06,2.52-0.06h8.4l-0.02,1.22a22.721,22.721,0,0,0,2.86,0c-0.12-2,0-11.842.1-13.963-1.6.14-10.28,0.12-11.6,0.1-0.64,0-1.52-.06-2.2-0.1a9.78,9.78,0,0,0,.24,2.741c2.1-.06,9.46-0.12,10.7-0.1Zm7.78-11.4a25.811,25.811,0,0,0-1.44,2.42,31.769,31.769,0,0,1,5.34,3.2,10.329,10.329,0,0,0,1.56-2.54A29.359,29.359,0,0,0,2152.26,577.153Zm-1.06,13.183a7.408,7.408,0,0,0,1.76,2.7,25.715,25.715,0,0,0,5.9-2.46,21.124,21.124,0,0,0,7.91-8.2,7.916,7.916,0,0,0-2.06-2.28,17.224,17.224,0,0,1-7.31,8.1A18.243,18.243,0,0,1,2151.2,590.336Zm30-11.183s-0.62.06-4.08,0.08a15.453,15.453,0,0,0,1.18-2.38,6.76,6.76,0,0,0-2.52-1.24,15.089,15.089,0,0,1-6.93,8.281,6.067,6.067,0,0,0,2.24,1.8,18.34,18.34,0,0,0,4.47-4.2l5.26-.08a12,12,0,0,1-3.06,5.481,15.107,15.107,0,0,1-7.85,4.221,7.39,7.39,0,0,0,2.31,2.28,18.2,18.2,0,0,0,8.34-5.7,20.862,20.862,0,0,0,3.56-7.321,6.7,6.7,0,0,0-1.54-1.341,7.653,7.653,0,0,1-1.38.14v-0.02Zm4.7-3.54a6.629,6.629,0,0,0-1.3.5,13.779,13.779,0,0,1,1.12,2.46,3.9,3.9,0,0,0,1.34-.5A11.979,11.979,0,0,0,2185.9,575.613Zm-3.62,1.16a12.3,12.3,0,0,1,1.12,2.54,3.544,3.544,0,0,0,1.34-.52,13.258,13.258,0,0,0-1.14-2.5A6.642,6.642,0,0,0,2182.28,576.773Zm7.37,14.743a7.216,7.216,0,0,0,1.78,1.28c0.32-.14.5-0.18,0.82-0.3,5.6-1.78,9.76-4.581,12.02-7.521a8.689,8.689,0,0,0-1.48-2.621,18.9,18.9,0,0,1-10.32,7.142c0-1.881,0-10.323.14-11.983a23.528,23.528,0,0,0-2.9-.26c0.06,0.56.1,1.58,0.1,2.48,0,3.341,0,8.842-.06,10.543C2189.73,590.6,2189.71,591.076,2189.65,591.516Zm27.24-2.961c-3.24,0-9.22.02-11.16-.08a12.2,12.2,0,0,0,.22,2.8c0.8-.02,1.6-0.06,2.52-0.06h8.4l-0.02,1.22a22.721,22.721,0,0,0,2.86,0c-0.12-2,0-11.842.1-13.963-1.6.14-10.28,0.12-11.6,0.1-0.64,0-1.52-.06-2.2-0.1a9.78,9.78,0,0,0,.24,2.741c2.1-.06,9.46-0.12,10.7-0.1Zm7.78-11.4a25.811,25.811,0,0,0-1.44,2.42,31.769,31.769,0,0,1,5.34,3.2,10.329,10.329,0,0,0,1.56-2.54A29.359,29.359,0,0,0,2224.67,577.153Zm-1.06,13.183a7.408,7.408,0,0,0,1.76,2.7,25.715,25.715,0,0,0,5.9-2.46,21.124,21.124,0,0,0,7.91-8.2,7.916,7.916,0,0,0-2.06-2.28,17.224,17.224,0,0,1-7.31,8.1A18.243,18.243,0,0,1,2223.61,590.336Zm32.03-12.863a6.875,6.875,0,0,0-1.18,1.04,16.1,16.1,0,0,1,2.2,2.161,5.029,5.029,0,0,0,1.22-1.081A14.853,14.853,0,0,0,2255.64,577.473Zm-2.02,1.66a7.442,7.442,0,0,0-1.16,1.021,17.549,17.549,0,0,1,2.18,2.22,4.315,4.315,0,0,0,1.22-1.06A15.358,15.358,0,0,0,2253.62,579.133Zm-13.72,7.022a6.092,6.092,0,0,0,2.24,1.98,52.174,52.174,0,0,0,4.58-4.721,1.164,1.164,0,0,1,.8-0.48,1.258,1.258,0,0,1,.92.44c0.92,0.82,1.98,1.9,3.36,3.181,1.72,1.58,3.74,3.341,5.06,4.361a4.759,4.759,0,0,0,1.92-2.361,58.8,58.8,0,0,1-5.84-4.621c-1.28-1.14-2.34-2.16-3.38-3.06a2.927,2.927,0,0,0-2.14-.88,2.721,2.721,0,0,0-1.98,1.02c-1.06,1.12-2.34,2.46-3.58,3.581A20.343,20.343,0,0,1,2239.9,586.155Zm21.98-9a25.811,25.811,0,0,0-1.44,2.42,31.875,31.875,0,0,1,5.35,3.2,10.329,10.329,0,0,0,1.56-2.54A29.122,29.122,0,0,0,2261.88,577.153Zm-1.06,13.183a7.311,7.311,0,0,0,1.77,2.7,25.715,25.715,0,0,0,5.9-2.46,21.168,21.168,0,0,0,7.9-8.2,7.916,7.916,0,0,0-2.06-2.28,17.2,17.2,0,0,1-7.3,8.1A18.222,18.222,0,0,1,2260.82,590.336Zm21.85-13.923a19.773,19.773,0,0,0-1.26,2.26,38.792,38.792,0,0,1,4.56,2.561,9.946,9.946,0,0,0,1.34-2.221A35.975,35.975,0,0,0,2282.67,576.413Zm-2.76,14.123a8.113,8.113,0,0,0,1.84,2.6,24.38,24.38,0,0,0,5.84-2.5,22.339,22.339,0,0,0,7.86-7.842,7.411,7.411,0,0,0-1.98-2.24,18.312,18.312,0,0,1-7.26,7.841A18.5,18.5,0,0,1,2279.91,590.536Zm-0.1-9.262a16.434,16.434,0,0,0-1.18,2.3,43.885,43.885,0,0,1,4.64,2.381,9.886,9.886,0,0,0,1.24-2.261A34.7,34.7,0,0,0,2279.81,581.274Zm27.54,4.641c-1.42,0-3.76,0-5.44-.02-0.7-.02-1.78-0.06-2-0.08,0,0.46.04,1.66,0.1,2.16,0.44-.02,1.02-0.04,1.66-0.04l5.66-.02v2.361c-2.36,0-7.18,0-8.28-.08,0,0.4.06,1.62,0.14,2.22,0.3,0,1.06-.02,1.64-0.04,0.82,0,4.48-.02,6.48,0v0.9a15.747,15.747,0,0,0,2.38,0c-0.08-2.12-.04-10.162.02-11.6-1.28.06-7.42,0.04-8.3,0.04-0.5,0-1.68-.02-2.2-0.06,0,0.3.08,1.72,0.14,2.16,1.34-.02,7.12-0.06,8-0.06v2.161Zm7.78-8.762a25.811,25.811,0,0,0-1.44,2.42,31.875,31.875,0,0,1,5.35,3.2,10.329,10.329,0,0,0,1.56-2.54A29.122,29.122,0,0,0,2315.13,577.153Zm-1.06,13.183a7.311,7.311,0,0,0,1.77,2.7,25.715,25.715,0,0,0,5.9-2.46,21.168,21.168,0,0,0,7.9-8.2,7.916,7.916,0,0,0-2.06-2.28,17.2,17.2,0,0,1-7.3,8.1A18.222,18.222,0,0,1,2314.07,590.336Zm22.13-6.882c-0.02,1.541-.04,4.081-0.04,5.361,0,2.4.68,3.761,5.66,3.761a34.844,34.844,0,0,0,5.92-.46,11.137,11.137,0,0,0,.28-2.84,22.376,22.376,0,0,1-6.44.86c-2.42,0-2.84-.74-2.84-1.821,0-.98.04-3.14,0.06-5.3,2.72-.46,5.38-0.9,6.14-1a14.494,14.494,0,0,1-3.98,4.2,7.841,7.841,0,0,0,2.44,1.34,28.882,28.882,0,0,0,5.02-6.8,7.9,7.9,0,0,0-1.8-1.561,9.018,9.018,0,0,1-1.02.32c-1.14.26-4.16,0.741-6.8,1.121,0.02-1.761.06-3.2,0.06-4.081a16.226,16.226,0,0,0-2.96-.12c0.1,0.64.18,1.48,0.22,2.18,0.04,0.68.06,1.541,0.08,2.4-0.58.08-1.06,0.14-1.41,0.18-1.02.14-2.12,0.24-3.04,0.3a9.324,9.324,0,0,0,.86,2.58Zm16.23-6.3a25.811,25.811,0,0,0-1.44,2.42,31.769,31.769,0,0,1,5.34,3.2,10.329,10.329,0,0,0,1.56-2.54A29.359,29.359,0,0,0,2352.43,577.153Zm-1.06,13.183a7.408,7.408,0,0,0,1.76,2.7,25.715,25.715,0,0,0,5.9-2.46,21.168,21.168,0,0,0,7.9-8.2,7.916,7.916,0,0,0-2.06-2.28,17.2,17.2,0,0,1-7.3,8.1A18.243,18.243,0,0,1,2351.37,590.336Zm30.37-11.523s-0.6.06-4.27,0.08a16.975,16.975,0,0,0,1.1-2.16,6.4,6.4,0,0,0-2.5-1.16,15.077,15.077,0,0,1-7.02,8.341,5.719,5.719,0,0,0,2.22,1.761,18.913,18.913,0,0,0,4.74-4.6l5.53-.08a13.839,13.839,0,0,1-2.23,4.341,31.5,31.5,0,0,0-3.44-2.241,10.676,10.676,0,0,0-1.68,1.741,32.037,32.037,0,0,1,3.42,2.4,16.589,16.589,0,0,1-7.58,4.041,7.729,7.729,0,0,0,2.22,2.2,18.366,18.366,0,0,0,7.26-4.621c0.62,0.561,1.16,1.1,1.63,1.6a4.91,4.91,0,0,0,1.84-2.061,21.778,21.778,0,0,0-1.72-1.54,21.773,21.773,0,0,0,3.4-6.921,6.713,6.713,0,0,0-1.52-1.241,5.2,5.2,0,0,1-1.4.14v-0.02Zm5.21,4.461a19.88,19.88,0,0,0,.2,2.961c2.71,0.02,13.39-.14,16.41-0.02a17.608,17.608,0,0,0-.1-2.921c-2.3.04-8.8,0.12-13.28,0.12C2389.09,583.414,2387.61,583.334,2386.95,583.274Z" transform="translate(-2060 -518)"/>
  <rect id="タグ塗-3" data-name="タグ塗" class="cls-1" y="82" width="60" height="34"/>
  <path id="主催" class="cls-2" d="M2081.68,619.286h4.34v-1.274h-4.34v-2.774h4.98v-1.3h-4.1l0.97-1.12a24.864,24.864,0,0,0-4.47-1.961l-0.94,1.05a22.25,22.25,0,0,1,4.31,2.031h-7.07v1.3h4.9v2.774h-4.23v1.274h4.23v3h-5.57v1.3h12.66v-1.3h-5.67v-3Zm21.43,3.1v-1.065h2.67v-0.98h-2.67V619.3h2.67v-0.994h-2.67V617.3h3.13v-1.05h-3.18c0.2-.393.4-0.8,0.54-1.121a0.3,0.3,0,0,0,.33-0.154l-1.37-.406h3.42v-2.648a0.306,0.306,0,0,0,.31-0.238c-0.44-.014-1.15-0.07-1.59-0.084v1.835h-2.11v-2.059a0.3,0.3,0,0,0,.32-0.238l-1.64-.1v2.4h-2v-1.513a0.3,0.3,0,0,0,.32-0.238l-1.54-.084v2.97h1.08a10.719,10.719,0,0,1-2.72,3.992,6.342,6.342,0,0,1,.85.952,8.988,8.988,0,0,0,1.11-1.19v5.757h1.28v-0.631h6.8v-1.064h-3.34Zm-3.46-4.076V617.3h2.18v1.009h-2.18Zm0,2.031V619.3h2.18v1.037h-2.18Zm2.76-5.771a13.438,13.438,0,0,1-.61,1.681h-2.07a13.016,13.016,0,0,0,.57-1.191,0.342,0.342,0,0,0,.35-0.14l-1.09-.35h2.85Zm-0.58,6.751v1.065h-2.18v-1.065h2.18Zm-5.62-10.309a18.107,18.107,0,0,1-3.18,6.065,9.769,9.769,0,0,1,.62,1.317,14.509,14.509,0,0,0,1.36-1.863v7.564h1.29V614.65a0.319,0.319,0,0,0,.33-0.21l-0.4-.126a27,27,0,0,0,1.12-2.662,0.328,0.328,0,0,0,.36-0.14Z" transform="translate(-2060 -518)"/>
  <path id="日経BP" class="cls-3" d="M2132.3,626.376h2.48v-1.32h8.6v1.3h2.58V608.973H2132.3v17.4Zm11.08-10.6h-8.6v-4.381h8.6v4.381Zm-8.6,2.381h8.6v4.481h-8.6v-4.481Zm30.41-9.442h-8.3v2.14h2.58l-1.54.44a11.823,11.823,0,0,0,2.2,3.341,14.285,14.285,0,0,1-3.78,1.66,7.744,7.744,0,0,1,1.3,1.921,17.635,17.635,0,0,0,4.24-2.021,13.933,13.933,0,0,0,4.58,2.041,9.611,9.611,0,0,1,1.44-2,13.424,13.424,0,0,1-4.18-1.52,12.281,12.281,0,0,0,3.2-5.1,0.748,0.748,0,0,0,.26-0.3l-1.6-.7Zm-1.38,2.14a10.14,10.14,0,0,1-1.96,2.461,8.753,8.753,0,0,1-1.82-2.461h3.78Zm2.96,10.8V619.5h-3.6v-1.84a0.512,0.512,0,0,0,.52-0.4l-2.9-.16v2.4h-3.32v2.16h3.32V624h-4.34v2.14h11.26V624h-4.54v-2.341h3.6Zm-9.7,1.741a24.345,24.345,0,0,0-1.28-3.881l-1.78.58a24.3,24.3,0,0,1,1.2,3.961Zm0.08-4.841a16.967,16.967,0,0,0-1.88-4.281l-1.72.72a15.756,15.756,0,0,1,.76,1.54l-2.08.02a47.624,47.624,0,0,0,3.62-5.141,0.666,0.666,0,0,0,.56-0.22l-2.26-1.02c-0.48,1-1.14,2.16-1.84,3.3-0.2-.26-0.44-0.54-0.68-0.82a33.871,33.871,0,0,0,2.02-3.7,0.649,0.649,0,0,0,.54-0.2l-2.34-.961a27.463,27.463,0,0,1-1.52,3.521l-0.44-.4-1.16,1.64a16.711,16.711,0,0,1,2.36,2.741c-0.32.46-.66,0.9-0.98,1.3h-1.44l0.48,2.4a0.419,0.419,0,0,0,.36-0.3c0.66-.02,1.46-0.06,2.36-0.12v1.56l-2.28-.54a17.607,17.607,0,0,1-.98,4.7,16.448,16.448,0,0,1,1.68.84,18.014,18.014,0,0,0,1.16-4.781,0.426,0.426,0,0,0,.42-0.16v6.461h2.1v-8.2l1.06-.08a8.266,8.266,0,0,1,.26,1Zm19.58-2.041a3.517,3.517,0,0,0,2.46-3.32,3.4,3.4,0,0,0-1.5-2.9,7.1,7.1,0,0,0-4.24-.98,21.93,21.93,0,0,0-3.9.32v15.123a24.183,24.183,0,0,0,3.28.2c2.74,0,4.46-.5,5.5-1.44a4.23,4.23,0,0,0,1.4-3.161,3.794,3.794,0,0,0-3-3.761v-0.08Zm-4.24-.82v-4.081a6.092,6.092,0,0,1,1.3-.1c1.32,0,2.46.5,2.46,2.021,0,1.26-1,2.16-2.68,2.16h-1.08Zm0,2.161h1.1c1.52,0,3.04.64,3.04,2.42,0,1.741-1.36,2.461-2.96,2.461a6.136,6.136,0,0,1-1.18-.08v-4.8Zm9.35,6.961h2.94v-5.761a5.667,5.667,0,0,0,1.08.08c2.3,0,5.82-.94,5.82-5.161a4.456,4.456,0,0,0-1.48-3.441,6.579,6.579,0,0,0-4.38-1.22,21.9,21.9,0,0,0-3.98.32v15.183Zm2.94-13.083a5.814,5.814,0,0,1,1.28-.12,2.366,2.366,0,0,1,2.68,2.5,2.6,2.6,0,0,1-2.92,2.7,4.982,4.982,0,0,1-1.04-.08v-5Z" transform="translate(-2060 -518)"/>
</svg>
