<svg id="レイヤー_1" data-name="レイヤー 1" xmlns="http://www.w3.org/2000/svg" width="594.55" height="138" viewBox="0 0 594.55 138"><defs><style>.cls-1{fill:#004ea2;}.cls-2{fill:#fff;}.cls-3{fill:none;}</style></defs><rect class="cls-1" y="0.97" width="73.7" height="136.06"/><path class="cls-2" d="M49.31,41.08V54.31h-12V77.65H34V41.08Zm-3.19,2.53H37.27v2.86h8.85Zm0,5.15H37.27v3.06h8.85ZM59.67,75.65a17.54,17.54,0,0,1-8.36-7.42c-1.51,3.22-4.62,6.32-9.8,8l-1.67-2.78c5.47-1.43,7.71-4.24,8.61-5.92H39.88V65h9.51a12.49,12.49,0,0,0,.33-3.18H40.86V59.21h4.57c-.65-1.56-.94-2.21-1.51-3.35l3.14-.53a32.17,32.17,0,0,1,1.43,3.88H54.2a24.51,24.51,0,0,0,1.19-3.8l3.18.41a22,22,0,0,1-1.35,3.39H62v2.57H52.82A22.52,22.52,0,0,1,52.41,65H62.86v2.61h-9a14.42,14.42,0,0,0,7.3,5.31Zm9.06-34.57V74.59a2.75,2.75,0,0,1-2.85,3.06H61.51l-.86-3.22,3.76,0c.81,0,1.1-.29,1.1-1.35V54.31H53.43V41.08Zm-3.22,2.53h-8.9v2.86h8.9Zm0,5.15h-8.9v3.06h8.9Z" transform="translate(-14.54 -10.37)"/><path class="cls-2" d="M70.24,85.33H56.12v6.25H68.78v26.08H34.08V91.58H44V85.33H32.53V82.19H70.24ZM38.41,107.62c2.33-2.17,5.59-5.6,5.59-13H37.35v19.83H65.43V94.64H56.12v9.55c0,1.18.45,1.22,1.35,1.22h1.84c.77,0,1.18-.16,1.34-1.1a26.31,26.31,0,0,0,.29-4.08l2.9.65c-.29,5.8-.9,7.55-3.72,7.55H56.53c-1.67,0-3.55-.12-3.55-3.1V94.64H47.14c0,9-4.24,13.51-6.24,15.59ZM53,85.33h-5.8v6.25H53Z" transform="translate(-14.54 -10.37)"/><path d="M137.06,112.68V147a.85.85,0,0,1-.85.85h-9.53a.85.85,0,0,1-.85-.85V118.55a114.53,114.53,0,0,1-25.57,6.74.84.84,0,0,1-1-.84V116a.85.85,0,0,1,.7-.83c26.08-4.69,37.52-14.15,42.27-24.52a.83.83,0,0,1,.76-.49h10a.86.86,0,0,1,.82,1.11C150.87,100.71,144.73,107.58,137.06,112.68Z" transform="translate(-14.54 -10.37)"/><path d="M149.05,145.13v-8.8a.84.84,0,0,1,.61-.8c21-6,33.16-20.22,36.05-43.36a.82.82,0,0,1,.81-.73h10a.85.85,0,0,1,.84.94C193.71,122.24,176.88,140,150.07,146A.85.85,0,0,1,149.05,145.13Z" transform="translate(-14.54 -10.37)"/><path d="M234.78,118.23C228.59,105.72,227.7,105,222.91,105h-2.1l-6.44,15.24c-2.61,7-6.84,10.67-13.23,11.78a.86.86,0,0,1-1-.85v-8.82a.87.87,0,0,1,.46-.75c2.05-1.15,3.46-3.26,4.71-6.65l7.88-19.81a.87.87,0,0,1,.8-.54h8c11.23,0,14.29,1.66,21.69,16.71,5.22,10.69,10.38,20.53,17,23.27a.85.85,0,0,1,.53.78V144c0,1.16-.49,1.57-1,1.47C249.16,143.34,242.27,133.4,234.78,118.23Zm5.36-18.58V91.89a.84.84,0,0,1,.84-.84h5a.84.84,0,0,1,.84.84v7.76a.83.83,0,0,1-.84.84h-5A.83.83,0,0,1,240.14,99.65Zm8.93,0V91.89a.84.84,0,0,1,.84-.84h5a.84.84,0,0,1,.84.84v7.76a.83.83,0,0,1-.84.84h-5A.83.83,0,0,1,249.07,99.65Z" transform="translate(-14.54 -10.37)"/><path d="M260,119.73V111.3a.86.86,0,0,1,.85-.86h49.35a.86.86,0,0,1,.85.86v8.43a.85.85,0,0,1-.85.86H260.88A.85.85,0,0,1,260,119.73Z" transform="translate(-14.54 -10.37)"/><path d="M319.42,118.8v-8.17a.85.85,0,0,1,.88-.86c8.31.28,19,1.17,27.28,2.24a.85.85,0,0,1,.73.85v8.22a.85.85,0,0,1-.95.86c-8.66-1.07-19.35-2.06-27.12-2.29A.84.84,0,0,1,319.42,118.8Zm.64-18.43V92.26a.84.84,0,0,1,.87-.86c8.14.28,18.66,1.11,27.27,2.12a.84.84,0,0,1,.75.85v8.34a.85.85,0,0,1-.95.86c-8.35-1-19.35-2-27.13-2.35A.83.83,0,0,1,320.06,100.37Zm.76,44.92v-8.76a.86.86,0,0,1,.84-.85c26.07-.91,38.67-9.56,41.19-34.22a.86.86,0,0,1,.84-.78h9.52a.88.88,0,0,1,.87.95c-2.71,32.51-22.29,43.94-52.37,44.52A.87.87,0,0,1,320.82,145.29Z" transform="translate(-14.54 -10.37)"/><path d="M382.83,144.89v-7.71a.84.84,0,0,1,.83-.84h33.42v-9.82H384.49a.83.83,0,0,1-.83-.83V118.1a.83.83,0,0,1,.83-.83h32.59v-8.55H383.66a.83.83,0,0,1-.83-.83v-7.65a.83.83,0,0,1,.83-.83h43.12a.83.83,0,0,1,.83.83v44.65a.83.83,0,0,1-.83.83H383.66A.83.83,0,0,1,382.83,144.89Z" transform="translate(-14.54 -10.37)"/><path d="M437.9,101.86V93.12a.85.85,0,0,1,.9-.86,250.27,250.27,0,0,1,26.59,3.26.85.85,0,0,1,.7.84v9a.84.84,0,0,1-1,.84,239.49,239.49,0,0,0-26.4-3.51A.84.84,0,0,1,437.9,101.86Zm.89,43.22v-8.84a.86.86,0,0,1,.79-.85c22.84-1.73,37.21-8.45,39.77-33.29a.85.85,0,0,1,.84-.78h9.65a.86.86,0,0,1,.86.94c-2.56,30.52-20.49,42.6-51,43.69A.88.88,0,0,1,438.79,145.08Z" transform="translate(-14.54 -10.37)"/><rect class="cls-1" x="84.76" y="67.62" width="1.97" height="6.43"/><rect class="cls-1" x="88.97" y="66.72" width="1.97" height="7.32"/><rect class="cls-1" x="92.92" y="66.44" width="3.95" height="7.61"/><rect class="cls-1" x="98.84" y="65.92" width="3.95" height="8.12"/><rect class="cls-1" x="104.76" y="66.17" width="1.97" height="7.87"/><rect class="cls-1" x="108.71" y="67.44" width="1.97" height="6.6"/><rect class="cls-1" x="112.66" y="67.35" width="1.97" height="6.69"/><rect class="cls-1" x="116.6" y="67.45" width="3.95" height="6.59"/><rect class="cls-1" x="124.5" y="66.61" width="1.97" height="7.43"/><rect class="cls-1" x="128.45" y="66.55" width="3.95" height="7.49"/><rect class="cls-1" x="134.37" y="67.99" width="1.97" height="6.06"/><rect class="cls-1" x="138.31" y="66.73" width="3.95" height="7.31"/><rect class="cls-1" x="144.24" y="66.88" width="1.97" height="7.17"/><rect class="cls-1" x="150.16" y="67.36" width="3.95" height="6.68"/><rect class="cls-1" x="156.08" y="66.47" width="1.97" height="7.57"/><rect class="cls-1" x="160.03" y="66.51" width="1.97" height="7.53"/><rect class="cls-1" x="163.97" y="67.3" width="1.97" height="6.74"/><rect class="cls-1" x="167.92" y="66.38" width="1.97" height="7.67"/><rect class="cls-1" x="173.84" y="67.15" width="3.95" height="6.89"/><rect class="cls-1" x="179.76" y="66.08" width="3.95" height="7.96"/><rect class="cls-1" x="185.69" y="66.64" width="1.97" height="7.41"/><rect class="cls-1" x="189.63" y="67.07" width="3.95" height="6.97"/><rect class="cls-1" x="195.55" y="68.04" width="1.97" height="6"/><rect class="cls-1" x="201.48" y="68.06" width="3.95" height="5.99"/><rect class="cls-1" x="207.4" y="65.81" width="1.97" height="8.24"/><rect class="cls-1" x="211.34" y="65.68" width="1.97" height="8.37"/><rect class="cls-1" x="215.29" y="66.78" width="1.97" height="7.26"/><rect class="cls-1" x="219.24" y="66.07" width="3.95" height="7.97"/><rect class="cls-1" x="225.16" y="67.46" width="3.95" height="6.59"/><rect class="cls-1" x="233.06" y="66.15" width="1.97" height="7.9"/><rect class="cls-1" x="237" y="67.29" width="3.95" height="6.76"/><rect class="cls-1" x="242.92" y="67.52" width="1.97" height="6.52"/><rect class="cls-1" x="246.87" y="68.07" width="1.97" height="5.97"/><rect class="cls-1" x="252.79" y="68" width="1.97" height="6.05"/><rect class="cls-1" x="256.74" y="68.07" width="3.95" height="5.98"/><rect class="cls-1" x="262.66" y="66.17" width="1.97" height="7.88"/><rect class="cls-1" x="266.61" y="66.41" width="3.95" height="7.64"/><rect class="cls-1" x="272.53" y="66.22" width="1.97" height="7.82"/><rect class="cls-1" x="276.48" y="67.98" width="1.97" height="6.07"/><rect class="cls-1" x="282.4" y="67.12" width="3.95" height="6.92"/><rect class="cls-1" x="288.32" y="67.27" width="1.97" height="6.78"/><rect class="cls-1" x="294.24" y="65.7" width="3.95" height="8.35"/><rect class="cls-1" x="300.16" y="67.87" width="1.97" height="6.17"/><rect class="cls-1" x="304.11" y="66.36" width="3.95" height="7.69"/><rect class="cls-1" x="310.03" y="65.99" width="1.97" height="8.06"/><rect class="cls-1" x="313.98" y="67.68" width="1.97" height="6.37"/><rect class="cls-1" x="317.93" y="65.58" width="3.95" height="8.47"/><rect class="cls-1" x="323.85" y="66.77" width="1.97" height="7.28"/><rect class="cls-1" x="329.77" y="66.74" width="3.95" height="7.31"/><rect class="cls-1" x="335.69" y="66.45" width="1.97" height="7.6"/><rect class="cls-1" x="339.64" y="66.04" width="1.97" height="8"/><rect class="cls-1" x="343.59" y="66.17" width="1.97" height="7.87"/><rect class="cls-1" x="347.53" y="66.33" width="3.95" height="7.71"/><rect class="cls-1" x="353.46" y="67.32" width="1.97" height="6.73"/><rect class="cls-1" x="359.38" y="65.87" width="3.95" height="8.18"/><rect class="cls-1" x="365.3" y="66.08" width="1.97" height="7.96"/><rect class="cls-1" x="369.25" y="66.95" width="1.97" height="7.09"/><rect class="cls-1" x="373.19" y="67.14" width="3.95" height="6.9"/><rect class="cls-1" x="379.11" y="67.2" width="1.97" height="6.84"/><rect class="cls-1" x="385.04" y="65.3" width="3.95" height="8.75"/><rect class="cls-1" x="390.96" y="64.14" width="3.95" height="9.91"/><rect class="cls-1" x="396.88" y="64.5" width="1.97" height="9.55"/><rect class="cls-1" x="400.83" y="63.86" width="3.95" height="10.18"/><rect class="cls-1" x="406.75" y="64.71" width="1.97" height="9.33"/><rect class="cls-1" x="412.67" y="62.25" width="1.97" height="11.79"/><rect class="cls-1" x="416.62" y="53.7" width="1.97" height="20.35"/><rect class="cls-1" x="422.54" y="55.03" width="3.95" height="19.01"/><rect class="cls-1" x="428.46" y="48.51" width="1.97" height="25.53"/><rect class="cls-1" x="432.41" y="60.96" width="1.97" height="13.09"/><rect class="cls-1" x="436.35" y="57.34" width="3.95" height="16.7"/><rect class="cls-1" x="442.28" y="60.86" width="3.95" height="13.18"/><rect class="cls-1" x="448.2" y="63.62" width="1.97" height="10.43"/><rect class="cls-1" x="452.14" y="52.47" width="1.97" height="21.57"/><rect class="cls-1" x="458.07" y="54.12" width="1.97" height="19.92"/><rect class="cls-1" x="462.01" y="52.02" width="3.95" height="22.02"/><rect class="cls-1" x="467.93" y="54.5" width="1.97" height="19.54"/><rect class="cls-1" x="471.88" y="48.1" width="1.97" height="25.94"/><rect class="cls-1" x="475.83" y="56.07" width="3.95" height="17.97"/><rect class="cls-1" x="481.75" y="50.21" width="3.95" height="23.84"/><rect class="cls-1" x="489.65" y="45.3" width="1.97" height="28.75"/><rect class="cls-1" x="493.59" y="38.9" width="1.97" height="35.15"/><rect class="cls-1" x="497.54" y="43.37" width="3.95" height="30.67"/><rect class="cls-1" x="503.46" y="48.73" width="1.97" height="25.31"/><rect class="cls-1" x="509.38" y="47.79" width="3.95" height="26.26"/><rect class="cls-1" x="515.3" y="38.74" width="1.97" height="35.3"/><rect class="cls-1" x="519.25" y="30.4" width="3.95" height="43.64"/><rect class="cls-1" x="525.17" y="30.33" width="1.97" height="43.72"/><rect class="cls-1" x="529.12" y="40.79" width="3.95" height="33.26"/><rect class="cls-1" x="535.04" y="23.83" width="1.97" height="50.21"/><rect class="cls-1" x="540.96" y="34.11" width="1.97" height="39.94"/><rect class="cls-1" x="544.91" y="31.31" width="1.97" height="42.73"/><rect class="cls-1" x="548.86" y="24.54" width="1.97" height="49.51"/><rect class="cls-1" x="552.81" y="34.8" width="3.95" height="39.24"/><rect class="cls-1" x="558.73" y="14.52" width="1.97" height="59.52"/><rect class="cls-1" x="564.65" y="18.13" width="3.95" height="55.91"/><rect class="cls-1" x="570.57" y="8.95" width="1.97" height="65.1"/><rect class="cls-1" x="576.49" y="18.13" width="1.97" height="55.91"/><rect class="cls-1" x="580.44" y="7.44" width="3.95" height="66.61"/><rect class="cls-1" x="586.36" y="10.48" width="3.95" height="63.57"/><rect class="cls-1" x="592.28" y="3.18" width="1.97" height="70.87"/><path d="M137.63,42.07c-2.56,18.57-16,26.23-31.63,28.09a.87.87,0,0,1-1-.87V60.93a.86.86,0,0,1,.73-.85c12-1.81,18.62-8.32,20.06-18H100.16a.87.87,0,0,1-.87-.86v-8a.85.85,0,0,1,.85-.84h55.38a.87.87,0,0,1,.87.87v8a.87.87,0,0,1-.87.87Zm15.25-22.52v4.68a.87.87,0,0,1-.87.87h-48a.85.85,0,0,1-.86-.86v-8.1a.86.86,0,0,1,.86-.86h38.17v-4a.87.87,0,0,1,.87-.87h4.64a.87.87,0,0,1,.87.87v4h2.3v-4a.87.87,0,0,1,.87-.87h4.64a.87.87,0,0,1,.87.87v7.44a.86.86,0,0,1-.87.87Z" transform="translate(-14.54 -10.37)"/><path d="M163.28,42.29V34.06a.82.82,0,0,1,.84-.83c8.33.28,19.09,1.17,27.34,2.24a.83.83,0,0,1,.71.82v8.29a.82.82,0,0,1-.92.82c-8.67-1.07-19.4-2-27.18-2.29A.8.8,0,0,1,163.28,42.29Zm.63-18.43V15.69a.83.83,0,0,1,.85-.83c8.15.28,18.7,1.11,27.33,2.12a.82.82,0,0,1,.72.83v8.4a.82.82,0,0,1-.92.82c-8.36-1-19.4-2.05-27.19-2.35A.82.82,0,0,1,163.91,23.86Zm.77,44.88V60a.88.88,0,0,1,.85-.86c26.07-.91,38.66-9.57,41.18-34.23a.84.84,0,0,1,.83-.76h9.55a.86.86,0,0,1,.85.92c-2.7,32.52-22.28,44-52.36,44.54A.88.88,0,0,1,164.68,68.74ZM202.19,21V13.46a.86.86,0,0,1,.86-.86h4.59a.86.86,0,0,1,.86.86V21a.85.85,0,0,1-.86.86h-4.59A.85.85,0,0,1,202.19,21Zm8.61,0V13.46a.86.86,0,0,1,.86-.86h4.6a.86.86,0,0,1,.85.86V21a.85.85,0,0,1-.85.86h-4.6A.85.85,0,0,1,210.8,21Z" transform="translate(-14.54 -10.37)"/><path d="M282,70V59.65a.85.85,0,0,1,.26-.6c4.53-4.32,8-10.58,8-26.48v-17a.84.84,0,0,1,.84-.83h8.73a.83.83,0,0,1,.83.83V31.87c0,23.18-7,32.74-17.37,38.83A.84.84,0,0,1,282,70Zm25-.79V15.48a.84.84,0,0,1,.84-.84h8.72a.85.85,0,0,1,.84.84v41.2c8.34-2.68,12-13.37,12.71-23.85a.83.83,0,0,1,.82-.77h8.75a.85.85,0,0,1,.84.88c-1,22.43-11.49,35.63-32.62,37.08A.85.85,0,0,1,307,69.18Z" transform="translate(-14.54 -10.37)"/><path class="cls-3" d="M237.42,33.65a245.69,245.69,0,0,1,27.68,4.4,56,56,0,0,0,3.19-13.14H243.41A46.45,46.45,0,0,1,237.42,33.65Z" transform="translate(-14.54 -10.37)"/><path d="M279.05,15.09H237a.85.85,0,0,0-.8.57C233.66,23,229,29.35,223.58,32.77a.85.85,0,0,0-.39.71v9.27a.87.87,0,0,0,1.2.8A37.4,37.4,0,0,0,235.25,36v6.32a.84.84,0,0,0,.76.84A225.63,225.63,0,0,1,259.87,47c-5.88,7.14-15,11.57-28.14,13.3a.87.87,0,0,0-.76.86v8.12a.89.89,0,0,0,1,.87c36.67-3.12,47.27-25.69,48-54v-.17A.85.85,0,0,0,279.05,15.09Zm-13.95,23a245.69,245.69,0,0,0-27.68-4.4,46.45,46.45,0,0,0,6-8.74h24.88A56,56,0,0,1,265.1,38.05Z" transform="translate(-14.54 -10.37)"/><path class="cls-1" d="M499.21,147.89v-7.76l14.87-28a10.36,10.36,0,0,0,1.29-3.68,38.78,38.78,0,0,0,.16-3.92c0-.69,0-1.44,0-2.22a5.29,5.29,0,0,0-.44-2.06,3.79,3.79,0,0,0-1.21-1.49,3.83,3.83,0,0,0-2.35-.61,3.72,3.72,0,0,0-4,4.12v4.69h-8.25V102.4a12.23,12.23,0,0,1,1-4.84,12.57,12.57,0,0,1,2.67-4,12.25,12.25,0,0,1,3.88-2.71,11.8,11.8,0,0,1,4.85-1,12.1,12.1,0,0,1,5.53,1.17A11.21,11.21,0,0,1,521,94.24a14,14,0,0,1,2.14,4.61,21.62,21.62,0,0,1,.68,5.49c0,1.4,0,2.58-.08,3.52a20.78,20.78,0,0,1-.32,2.7,11.56,11.56,0,0,1-.81,2.59q-.57,1.29-1.53,3.15l-12.12,23.35h14.86v8.24Z" transform="translate(-14.54 -10.37)"/><path class="cls-1" d="M527.65,102.24a12.62,12.62,0,0,1,1-5.17,12.09,12.09,0,0,1,2.71-3.88,11.73,11.73,0,0,1,3.92-2.46,13.12,13.12,0,0,1,9.29,0,11.78,11.78,0,0,1,3.91,2.46,11.94,11.94,0,0,1,2.71,3.88,12.62,12.62,0,0,1,1,5.17V136a12.62,12.62,0,0,1-1,5.17,11.94,11.94,0,0,1-2.71,3.88,11.47,11.47,0,0,1-3.91,2.46,13.12,13.12,0,0,1-9.29,0,11.42,11.42,0,0,1-3.92-2.46,12.09,12.09,0,0,1-2.71-3.88,12.62,12.62,0,0,1-1-5.17ZM535.89,136a4.08,4.08,0,0,0,1.13,3,4.2,4.2,0,0,0,5.82,0,4.08,4.08,0,0,0,1.13-3V102.24a4.1,4.1,0,0,0-1.13-2.95,4.2,4.2,0,0,0-5.82,0,4.1,4.1,0,0,0-1.13,2.95Z" transform="translate(-14.54 -10.37)"/><path class="cls-1" d="M556.09,147.89v-7.76l14.86-28a10.21,10.21,0,0,0,1.3-3.68c.1-1,.16-2.35.16-3.92,0-.69,0-1.44,0-2.22a5.47,5.47,0,0,0-.45-2.06,3.48,3.48,0,0,0-3.55-2.1,3.72,3.72,0,0,0-4,4.12v4.69h-8.24V102.4a12.06,12.06,0,0,1,1-4.84,12.38,12.38,0,0,1,2.66-4,12.25,12.25,0,0,1,3.88-2.71,11.8,11.8,0,0,1,4.85-1A12.07,12.07,0,0,1,574,91.05a11,11,0,0,1,3.84,3.19A14,14,0,0,1,580,98.85a21.17,21.17,0,0,1,.69,5.49c0,1.4,0,2.58-.08,3.52a20.76,20.76,0,0,1-.33,2.7,12.07,12.07,0,0,1-.8,2.59c-.38.86-.89,1.91-1.54,3.15l-12.12,23.35h14.87v8.24Z" transform="translate(-14.54 -10.37)"/><path class="cls-1" d="M584.53,147.89v-7.76l14.86-28a10.36,10.36,0,0,0,1.29-3.68,38.78,38.78,0,0,0,.16-3.92c0-.69,0-1.44,0-2.22a5.29,5.29,0,0,0-.44-2.06,3.79,3.79,0,0,0-1.21-1.49,3.83,3.83,0,0,0-2.35-.61,3.72,3.72,0,0,0-4,4.12v4.69h-8.24V102.4a12.23,12.23,0,0,1,1-4.84,12.57,12.57,0,0,1,2.67-4A12.25,12.25,0,0,1,592,90.89a11.8,11.8,0,0,1,4.85-1,12.1,12.1,0,0,1,5.53,1.17,11.21,11.21,0,0,1,3.84,3.19,14,14,0,0,1,2.14,4.61,21.62,21.62,0,0,1,.68,5.49c0,1.4,0,2.58-.08,3.52a20.78,20.78,0,0,1-.32,2.7,11.56,11.56,0,0,1-.81,2.59c-.37.86-.89,1.91-1.53,3.15l-12.12,23.35h14.86v8.24Z" transform="translate(-14.54 -10.37)"/></svg>