<svg version="1.1" xmlns="http://www.w3.org/2000/svg" xmlns:xlink="http://www.w3.org/1999/xlink" x="0px" y="0px" width="335.125px" height="309.329px" viewBox="0 0 335.125 309.329" xml:space="preserve"><g><path fill="#FFEFC2" d="M323.441,207.419c2.583-2.059,4.065-5.066,4.065-8.248v-74.237l5.592-4.249 c1.288-0.979,2.027-2.434,2.027-3.993V72.579c0-0.782-0.435-1.466-1.164-1.829l-9.22-4.918L167.373,1.002 c-1.453-0.599-3.12-0.478-4.458,0.322L18.692,87.493c0,0-3.567,2.021-3.567,5.823s0,41.506,0,41.506 c0,1.868,1.087,3.573,2.838,4.451l7.205,3.911v86.998c0,2.813,1.666,5.336,4.347,6.585l153.395,71.447 c1.421,0.662,2.934,0.989,4.438,0.989c1.947,0,3.881-0.549,5.581-1.633c0.427-0.272,0.825-0.569,1.194-0.888 c0.166,0.112,0.344,0.213,0.531,0.303c1.491,0.718,3.21,0.532,4.486-0.485L323.441,207.419z"/></g><g><g><path fill="#191919" stroke="#191919" stroke-width="0.25" stroke-miterlimit="10" d="M172.348,309.204 c-1.504,0-3.017-0.328-4.438-0.989l-72.992-33.997c-0.041,0.028-0.083,0.056-0.125,0.084c-1.226,0.791-2.756,0.902-4.094,0.297 l-15.546-7.027c-1.814-0.82-3.108-2.396-3.534-4.207l-57.104-26.598c-2.681-1.249-4.347-3.772-4.347-6.585v-81.998h0.693v81.998 c0,2.541,1.512,4.823,3.947,5.957l56.68,26.4c-0.014-0.16-0.02-0.32-0.02-0.482v-88.416L2.963,139.273 c-1.751-0.878-2.838-2.584-2.838-4.451V93.316c0-0.713,0.374-1.373,1-1.766c0.682-0.429,1.525-0.475,2.255-0.124l69.911,33.668 c-0.339-1.476-1.369-2.787-2.861-3.499L3.801,89.818c-0.44-0.21-0.728-0.643-0.751-1.13c-0.023-0.487,0.223-0.945,0.642-1.195 l61.63-36.823c-0.472-0.214-0.834-0.613-0.985-1.127c-0.224-0.761,0.082-1.533,0.78-1.965l15.791-9.794 c1.711-1.061,3.759-1.433,5.767-1.047c0.457,0.088,0.951,0.185,1.48,0.291l59.761-35.705c1.339-0.8,3.005-0.92,4.458-0.322 l64.926,26.747c0.399-0.16,0.795-0.313,1.189-0.459c2.184-0.813,4.677-0.751,6.842,0.171l20.21,8.609 c0.772,0.329,1.271,1.032,1.301,1.833c0.025,0.661-0.274,1.278-0.799,1.686l63.699,26.242c1.68,0.692,2.765,2.255,2.765,3.982 v4.21l4.076-3.066c0.688-0.518,1.6-0.598,2.379-0.209c0.729,0.364,1.164,1.048,1.164,1.829v44.113 c0,1.558-0.739,3.014-2.027,3.992l-5.592,4.249v74.237c0,3.183-1.482,6.189-4.065,8.248l-39.918,31.819v0.809 c0,2.161-0.986,4.223-2.704,5.658l-13.629,11.38c-0.643,0.536-1.522,0.651-2.295,0.299c-0.715-0.326-1.17-0.996-1.185-1.75 l-0.012-0.594l-64.556,51.459c-1.276,1.017-2.995,1.203-4.486,0.485c-0.187-0.09-0.365-0.192-0.531-0.303 c-0.369,0.319-0.768,0.616-1.194,0.888C176.229,308.655,174.296,309.204,172.348,309.204z M95.503,273.725l72.7,33.861 c3.044,1.418,6.541,1.194,9.355-0.6c0.361-0.23,0.7-0.479,1.017-0.746c-0.724-0.698-1.133-1.636-1.133-2.669V226.85 c-0.234-0.145-0.477-0.28-0.728-0.406l-80.138-40.205v84.874C96.575,272.107,96.193,273.023,95.503,273.725z M179.648,306.196 c0.098,0.06,0.201,0.115,0.308,0.167c1.249,0.602,2.688,0.447,3.753-0.402l64.97-51.789l-1.647-79.485l-67.684,51.432 c-0.316,0.24-0.674,0.397-1.047,0.47c2.491,1.749,3.988,4.508,3.988,7.488v65.761C182.29,302.262,181.347,304.492,179.648,306.196 z M178.134,227.321v76.25c0,0.853,0.345,1.627,0.956,2.201c1.612-1.584,2.508-3.669,2.508-5.938v-65.761 C181.597,231.417,180.302,228.947,178.134,227.321z M72.455,263.755c0.489,1.372,1.555,2.54,2.984,3.186l15.546,7.027 c1.033,0.467,2.201,0.426,3.182-0.1L72.455,263.755z M72.229,262.885l22.599,10.526c0.676-0.594,1.055-1.408,1.055-2.298v-85.222 L72.16,173.989v88.069C72.16,262.337,72.183,262.614,72.229,262.885z M249.379,254.499l0.023,1.122 c0.01,0.492,0.302,0.916,0.78,1.133c0.414,0.189,1.043,0.235,1.564-0.2l13.629-11.38c1.561-1.303,2.456-3.172,2.456-5.127v-0.257 L249.379,254.499z M247.714,174.167l1.646,79.46l18.47-14.723v-72.544c0-2.563-0.047-5.015-0.145-7.369L247.714,174.167z M268.357,158.482c0.113,2.511,0.166,5.132,0.166,7.879v71.992l39.486-31.475c2.418-1.927,3.804-4.736,3.804-7.707V125.46 L268.357,158.482z M228.407,138.138l-47.234,35.523c-1.932,1.453-3.04,3.615-3.04,5.933v46.32 c0.284-0.049,0.556-0.166,0.795-0.347l68.086-51.737l-0.309-14.926l0.693-0.014l0.299,14.422l19.951-15.16 c-0.796-16.777-4.267-28.585-11.934-40.549l-17.034,12.811c0.094,6.805-1.747,13.995-5.518,21.498l-0.638-0.266 c0.01-0.03,0.99-3.06-0.319-7.132C231.619,142.689,230.502,140.468,228.407,138.138z M102.022,138.93l71.603,34.482 c1.499,0.722,2.43,2.156,2.43,3.742v47.156c0,0.609,0.346,1.144,0.925,1.431c0.149,0.074,0.304,0.127,0.46,0.16v-46.308 c0-2.537,1.209-4.901,3.316-6.486l47.177-35.48c-2.228-2.333-5.455-4.754-10.123-6.982c-1.165-0.556-2.382-1.132-3.641-1.729 c-16.64-7.886-40.566-19.225-53.516-33.935c-1.12-0.132-1.875-0.257-2.178-0.31c-2.03,1.46-29.065,20.883-45.953,32.055 C107.694,129.922,104.345,134.348,102.022,138.93z M96.575,185.464l78.913,39.59c-0.082-0.234-0.125-0.484-0.125-0.744v-47.156 c0-1.318-0.781-2.513-2.038-3.118l-71.611-34.486c-1.835,3.78-2.99,7.634-3.715,10.963c-1.79,8.219-1.429,15.111-1.425,15.179 l0.001,0.019V185.464z M72.16,173.214l23.723,11.902v-19.395c-0.016-0.31-0.338-7.18,1.437-15.338 c0.888-4.084,2.149-7.821,3.757-11.14l-26.971-12.989c-0.005,0.32-0.039,0.643-0.103,0.965c-0.84,4.22-1.842,11.057-1.842,19.668 V173.214z M2.362,91.885c-0.303,0-0.603,0.084-0.869,0.251c-0.429,0.27-0.675,0.7-0.675,1.18v41.506 c0,1.604,0.941,3.072,2.456,3.832l68.193,34.212v-25.98c0-8.667,1.009-15.553,1.855-19.803c0.078-0.389,0.104-0.78,0.085-1.166 L3.079,92.05C2.85,91.94,2.605,91.885,2.362,91.885z M256.27,117.184c7.686,11.973,11.202,23.778,12.047,40.459l43.497-33.052 V75.412L256.27,117.184z M228.962,137.72c2.161,2.418,3.313,4.728,3.917,6.627c0.647,2.033,0.757,3.803,0.689,5.114 c2.942-6.442,4.416-12.633,4.42-18.529L228.962,137.72z M74.061,125.464l27.322,13.158c0.22-0.436,0.447-0.864,0.679-1.285 c2.612-4.727,6.004-8.491,10.079-11.187c17.455-11.547,45.765-31.921,46.049-32.126l0.121-0.087l0.147,0.028 c0.017,0.003,0.558,0.105,1.52,0.234c-1.728-2.041-3.242-4.145-4.494-6.313c-3.857,0.98-8.795,1.19-14.677,0.625 c-1.026-0.099-2.16-0.201-3.385-0.306c-3.687,2.771-7,5.023-9.86,6.579c-3.423,1.862-7.671,4.22-12.168,6.716 c-8.067,4.477-17.21,9.552-24.394,13.318c-3.917,2.054-6.861,3.515-9,4.469c-3.563,1.589-4.102,1.417-4.373,1.077 c-0.319-0.4,0.085-0.954,0.522-1.443c2.875-3.215,5.783-5.284,11.355-8.236c-5.876,0.96-13.599,1.276-22.351,0.311 c-13.097-1.444-33.255-6.285-54.913-21.148l-1.787-1.226l2.08,0.608c10.509,3.073,20.459,4.116,23.734,4.394 c-8.455-6.953-9.875-16.382-9.889-16.48l-0.145-1.03l0.734,0.737c0.092,0.092,9.441,9.288,32.764,16.187 c11.623,3.438,26.443,3.314,36.829,2.604c4.45-0.304,8.486-0.738,11.746-1.154c-5.774,0.296-13.933,0.551-22.456,0.293 c-7.782-0.235-13.762-1.344-17.775-3.296c-3.793-1.845-5.857-4.44-6.133-7.713c-0.071-0.844-1.667-20.729,5.071-26.47 c2.744-2.338,8.909-2.976,18.324-1.894c8.007,0.919,18.306,3.094,29.783,6.289c24.805,6.905,29.223,8.862,29.4,8.942l1.457,0.662 h-1.6c-2.691,0-3.797,5.256-4.686,9.479c-0.293,1.39-0.569,2.703-0.881,3.756c-0.33,1.112-1.108,2.066-2.313,2.898 c0.243,0.02,0.482,0.04,0.719,0.06c5.546-4.181,11.944-9.53,18.917-15.432c-3.467-0.241-6.942-1.035-10.677-2.423 c-13.928-5.176-41.036-12.558-57.616-16.205c-9.039-1.989-16.957-2.641-21.453-2.592L4.047,88.088 c-0.202,0.121-0.316,0.333-0.305,0.568s0.144,0.436,0.357,0.537l66.629,31.777C72.59,121.858,73.816,123.575,74.061,125.464z M161.681,95.093c12.958,14.323,36.413,25.438,52.786,33.197c1.26,0.597,2.477,1.174,3.643,1.73 c4.785,2.283,8.095,4.778,10.381,7.188l9.488-7.136c-0.099-4.163-0.938-8.175-2.52-12.02 c-4.293-10.435-13.369-17.747-20.226-22.043c-7.443-4.662-13.941-6.874-14.006-6.895l0.177-0.668 c0.094,0.018,8.934,1.736,18.705,2.739c-5.056-2.544-10.434-5.121-15.942-7.68c-1.502,0.744-2.966,1.617-4.356,2.639 c-9.192,6.757-19.981,8.708-27.414,9.155C167.992,95.564,164.211,95.347,161.681,95.093z M204.762,89.762 c2.641,1.128,6.59,3,10.839,5.661c6.943,4.35,16.136,11.761,20.499,22.366c1.553,3.774,2.405,7.703,2.558,11.772l16.679-12.544 c-1.146-1.757-2.382-3.52-3.715-5.304c-4.054-5.428-15.498-12.378-29.777-19.65C215.084,91.446,208.6,90.426,204.762,89.762z M312.506,74.891v49.174l5.173-3.931c1.114-0.847,1.753-2.101,1.753-3.441V72.579c0-0.514-0.292-0.966-0.78-1.21 c-0.542-0.271-1.176-0.216-1.653,0.143L312.506,74.891z M91.844,110.249c-6.842,3.501-10.045,5.63-13.177,9.133 c-0.226,0.253-0.341,0.418-0.399,0.52c0.71-0.025,3.412-0.963,12.939-5.975c7.091-3.731,15.996-8.673,23.852-13.033 c4.499-2.497,8.748-4.855,12.174-6.718c2.668-1.451,5.742-3.521,9.152-6.058c-0.292-0.024-0.588-0.048-0.888-0.073 c-4.028,2.188-11.438,3.469-21.724,4.674c-6.326,0.741-16.791,0.564-27.311-0.461c-10.745-1.048-18.326-2.638-20.278-4.255 c-0.365-0.303-0.563-0.625-0.587-0.959c-0.011-0.155,0.025-0.388,0.257-0.615c1.498-1.461,12.09-1.875,31.481-1.23 c13.506,0.449,28.112,1.339,38.007,2.138c1.507-0.851,2.461-1.835,2.806-3c0.304-1.026,0.578-2.325,0.867-3.701 c0.86-4.084,1.819-8.64,4.188-9.766c-2.37-0.869-9.514-3.285-28.266-8.505c-11.443-3.186-21.705-5.353-29.676-6.269 c-9.216-1.058-15.204-0.475-17.796,1.734c-5.177,4.411-5.423,18.861-4.83,25.885c0.535,6.344,8.571,9.931,23.239,10.375 c15.896,0.48,30.538-0.829,30.684-0.842l0.096,0.685c-0.086,0.016-8.74,1.628-20.044,2.4c-10.442,0.713-25.35,0.836-37.073-2.631 c-12.279-3.632-20.604-7.879-25.425-10.803c-3.558-2.157-5.76-3.904-6.836-4.834c0.642,2.697,3.005,10.185,10.309,15.713 l0.91,0.689L37.354,94.4c-0.114-0.007-10.893-0.669-22.942-3.924c20.86,13.844,40.16,18.435,52.819,19.83 c9.845,1.085,18.357,0.546,24.355-0.704c1.904-0.973,4.085-2.051,6.618-3.292c0.499-0.244,0.956,0.005,1.151,0.378 c0.195,0.372,0.139,0.89-0.345,1.161C97.391,108.753,94.948,109.595,91.844,110.249z M223.693,92.223 c15.555,8.011,24.894,14.27,28.484,19.077c1.332,1.783,2.568,3.544,3.715,5.301l55.921-42.056v-4.731 c0-1.445-0.917-2.757-2.336-3.341l-64.196-26.446c-6.018,3.122-19.385,10.119-26.982,14.588 c5.444-0.234,24.852-0.656,31.235,4.815c6.114,5.241-0.04,22.666-1.131,24.962c-0.078,0.165-0.24,0.509-0.57,0.402 c-0.34-0.111-0.284-0.465-0.19-1.052c0.067-0.422,0.177-1.01,0.316-1.755c0.949-5.079,3.171-16.974-0.112-20.217 c-2.32-2.291-12.649-4.248-24.027-4.55c-13.962-0.372-26.774,1.666-35.15,5.591c-5.664,2.654-10.548,4.781-14.973,6.33 c9.934,4.326,20.42,8.933,30.47,13.596c7.79-3.757,16.499-4.176,21.516-4.027c8.785,0.261,16.859,2.512,20.093,5.601 c1.593,1.521,1.894,3.136,0.871,4.67C244.107,92.787,233.83,93.029,223.693,92.223z M98.6,106.909 c-0.027,0-0.057,0.007-0.091,0.024c-1.403,0.687-2.697,1.324-3.895,1.92c1.665-0.488,3.032-1.035,4.058-1.608 c0.123-0.069,0.106-0.165,0.069-0.234C98.715,106.959,98.671,106.909,98.6,106.909z M160.998,94.324 c2.466,0.28,6.539,0.575,11.377,0.283c7.334-0.443,17.976-2.368,27.025-9.02c1.272-0.935,2.602-1.747,3.967-2.452 c-10.212-4.731-20.833-9.393-30.641-13.663c-5.701,1.914-10.658,2.832-15.582,2.642c-6.941,5.878-13.326,11.23-18.895,15.466 c0.937,0.082,1.815,0.162,2.626,0.24c6.4,0.615,10.98,0.238,14.253-0.57c-3.607-6.544-3.024-9.836-1.897-11.444 c1.083-1.546,3.191-2.239,5.64-1.853c2.573,0.406,4.73,1.86,5.246,3.536c0.66,2.145,0.166,4.445-1.355,6.309 c-1.418,1.739-3.631,3.049-6.584,3.898C157.509,89.977,159.135,92.185,160.998,94.324z M82.169,85.601 c-12.781,0-15.362,0.866-15.832,1.323c-0.037,0.037-0.051,0.063-0.05,0.07c0.01,0.135,0.126,0.299,0.337,0.474 c1.823,1.509,9.449,3.08,19.904,4.099c10.474,1.021,20.883,1.199,27.163,0.463c9.252-1.084,16.315-2.255,20.451-4.095 c-9.845-0.774-23.845-1.613-36.83-2.045C91.114,85.685,86.147,85.601,82.169,85.601z M222.031,91.372 c13.683,1.248,21.995,0.288,24.04-2.778c0.824-1.235,0.563-2.508-0.773-3.785c-3.07-2.933-11.144-5.157-19.635-5.409 c-4.835-0.143-13.154,0.247-20.678,3.715c4.706,2.19,9.309,4.39,13.707,6.578C219.833,90.261,220.947,90.821,222.031,91.372z M157.566,74.541c-1.653,0-3.017,0.588-3.769,1.663c-1.017,1.452-1.501,4.498,1.966,10.765c0.019,0.033,0.037,0.066,0.055,0.1 c3.583-1.006,5.45-2.535,6.406-3.707c1.372-1.682,1.82-3.747,1.229-5.668c-0.434-1.41-2.407-2.696-4.691-3.056 C158.35,74.573,157.95,74.541,157.566,74.541z M220.591,56.483c1.075,0,2.158,0.014,3.248,0.043 c11.723,0.312,22.025,2.31,24.495,4.75c3.442,3.4,1.402,14.954,0.394,20.369c0.75-2.163,1.705-5.39,2.289-8.819 c0.761-4.464,1.043-10.32-1.934-12.871c-7.083-6.072-31.891-4.595-32.14-4.579l-1.413,0.088l1.213-0.731 c7.128-4.295,21.103-11.627,27.701-15.054l-27.147-11.184c-15.281,6.205-34.52,21.939-52.218,36.895 c0.851,0.37,1.711,0.744,2.58,1.121c1.677,0.729,3.378,1.468,5.096,2.216c4.588-1.555,9.67-3.757,15.622-6.546 C196.19,58.521,207.796,56.483,220.591,56.483z M157.946,71.434c4.377,0.061,8.811-0.758,13.822-2.379 c-1.484-0.646-2.946-1.281-4.386-1.907c-0.976-0.424-1.94-0.843-2.894-1.258c-1.458,1.233-2.907,2.461-4.34,3.677 C159.409,70.194,158.674,70.817,157.946,71.434z M67.546,50.149c4.665,0.063,12.084,0.767,20.446,2.606 c16.603,3.653,43.754,11.047,57.709,16.232c3.921,1.457,7.56,2.247,11.211,2.415c0.92-0.78,1.85-1.568,2.789-2.364 c1.348-1.143,2.71-2.297,4.08-3.456c-10.515-4.573-19.538-8.531-25.627-11.54C119.326,44.741,98.105,39.74,88.28,37.761 L67.546,50.149z M89.163,37.233c10.153,2.083,30.863,7.081,49.298,16.189c6.135,3.031,15.27,7.035,25.91,11.662 c17.56-14.844,36.671-30.509,52.018-36.961L152.109,1.642c-1.252-0.515-2.687-0.412-3.839,0.276L89.163,37.233z M85.15,37.286 c-1.368,0-2.729,0.375-3.878,1.087l-15.791,9.794c-0.516,0.32-0.586,0.82-0.48,1.181c0.111,0.377,0.488,0.812,1.155,0.801 c0.012,0,0.025,0,0.037-0.001l21.073-12.59c-0.25-0.049-0.491-0.096-0.723-0.141C86.084,37.33,85.617,37.286,85.15,37.286z M218.224,28.13l27.024,11.133c0.043-0.022,0.086-0.044,0.128-0.066c0.504-0.261,0.793-0.735,0.773-1.267 c-0.02-0.539-0.35-0.996-0.881-1.222l-20.21-8.609c-2.002-0.853-4.309-0.911-6.328-0.159 C218.562,28.001,218.394,28.065,218.224,28.13z"/></g></g></svg>