<svg version="1.1" xmlns="http://www.w3.org/2000/svg" xmlns:xlink="http://www.w3.org/1999/xlink" x="0px" y="0px" width="578px" height="532.414px" viewBox="0 0 578 532.414" xml:space="preserve"><path fill="#FCF2F8" d="M557.841,356.798c4.457-3.553,7.014-8.74,7.014-14.231V214.48l9.649-7.332	c2.222-1.689,3.497-4.2,3.497-6.889v-76.112c0-1.349-0.751-2.529-2.008-3.157l-15.908-8.485L288.565,0.65	c-2.507-1.033-5.382-0.825-7.692,0.555L32.035,149.88c0,0-6.154,3.487-6.154,10.047c0,6.56,0,71.613,0,71.613	c0,3.222,1.876,6.165,4.897,7.68l12.432,6.749v150.104c0,4.853,2.874,9.207,7.5,11.362l264.664,123.273	c2.451,1.142,5.061,1.707,7.657,1.707c3.36,0,6.696-0.947,9.63-2.817c0.736-0.469,1.424-0.981,2.06-1.532	c0.287,0.193,0.593,0.368,0.916,0.523c2.572,1.239,5.538,0.919,7.74-0.837L557.841,356.798z"/><g><path fill="#FCB1D0" d="M297.15,532.414c-2.596,0-5.206-0.565-7.657-1.707l-125.938-58.658c-0.071,0.049-0.143,0.097-0.216,0.144 c-2.115,1.365-4.755,1.557-7.063,0.513l-26.823-12.124c-3.129-1.414-5.362-4.133-6.098-7.258l-98.526-45.891 c-4.626-2.154-7.5-6.508-7.5-11.362V254.596h1.195v141.477c0,4.384,2.609,8.322,6.809,10.278l97.794,45.55 c-0.023-0.275-0.035-0.553-0.035-0.831V298.519L4.897,239.22C1.876,237.705,0,234.762,0,231.54v-71.613 c0-1.229,0.645-2.369,1.725-3.047c1.177-0.74,2.632-0.82,3.891-0.214l120.623,58.089c-0.585-2.547-2.362-4.809-4.936-6.037 L6.342,153.892c-0.76-0.362-1.256-1.109-1.295-1.95c-0.039-0.84,0.385-1.631,1.107-2.062L112.49,86.347 c-0.814-0.369-1.439-1.059-1.699-1.944c-0.386-1.314,0.142-2.645,1.345-3.391l27.245-16.898c2.952-1.831,6.486-2.473,9.95-1.806 c0.789,0.152,1.641,0.319,2.553,0.501L254.993,1.205c2.31-1.38,5.185-1.588,7.692-0.555l112.022,46.149 c0.689-0.276,1.372-0.54,2.052-0.793c3.768-1.403,8.07-1.295,11.804,0.295l34.869,14.854c1.332,0.568,2.193,1.78,2.245,3.163 c0.043,1.14-0.474,2.204-1.379,2.91l109.905,45.277c2.898,1.194,4.77,3.89,4.77,6.87v7.265l7.033-5.289 c1.188-0.893,2.761-1.032,4.105-0.361c1.257,0.628,2.008,1.808,2.008,3.156v76.112c0,2.689-1.275,5.2-3.497,6.889l-9.649,7.332 v128.087c0,5.491-2.556,10.678-7.014,14.231l-68.873,54.9v1.396c0,3.729-1.701,7.287-4.666,9.763l-23.516,19.635 c-1.109,0.925-2.626,1.123-3.96,0.516c-1.234-0.562-2.018-1.719-2.045-3.019l-0.021-1.024l-111.384,88.787 c-2.202,1.755-5.168,2.076-7.74,0.836c-0.323-0.156-0.629-0.331-0.916-0.523c-0.637,0.551-1.325,1.063-2.06,1.532 C303.846,531.467,300.509,532.414,297.15,532.414z M164.562,471.2l125.435,58.424c5.252,2.446,11.286,2.06,16.14-1.035 c0.623-0.397,1.208-0.827,1.755-1.287c-1.25-1.204-1.955-2.822-1.955-4.605V390.322c-0.404-0.25-0.823-0.483-1.255-0.701 l-138.268-69.369v146.44C166.413,468.408,165.753,469.988,164.562,471.2z M309.744,527.223c0.17,0.103,0.347,0.199,0.531,0.288 c2.155,1.038,4.637,0.772,6.476-0.694l112.098-89.355l-2.841-137.142l-116.781,88.739c-0.544,0.414-1.162,0.685-1.806,0.811 c4.298,3.018,6.882,7.778,6.882,12.919V516.25C314.302,520.436,312.675,524.284,309.744,527.223z M307.131,391.136v131.561 c0,1.471,0.595,2.808,1.649,3.798c2.781-2.733,4.327-6.33,4.327-10.244V402.788C313.107,398.202,310.873,393.941,307.131,391.136z M124.796,453.997c0.843,2.366,2.682,4.383,5.148,5.497l26.823,12.124c1.782,0.805,3.798,0.734,5.49-0.173L124.796,453.997z M124.406,452.497l38.991,18.161c1.167-1.025,1.821-2.43,1.821-3.965v-147.04l-40.931-20.535V451.07 C124.287,451.552,124.327,452.028,124.406,452.497z M430.055,438.028l0.04,1.937c0.017,0.849,0.52,1.58,1.345,1.956 c0.715,0.326,1.799,0.406,2.699-0.345l23.516-19.635c2.693-2.248,4.237-5.472,4.237-8.846v-0.443L430.055,438.028z M427.184,299.426l2.84,137.099l31.868-25.403V285.957c0-4.421-0.081-8.653-0.251-12.714L427.184,299.426z M462.8,272.362 c0.194,4.332,0.287,8.854,0.287,13.595v124.212l68.128-54.306c4.171-3.325,6.564-8.172,6.564-13.297V215.388L462.8,272.362z M393.872,237.261l-81.496,61.29c-3.333,2.507-5.245,6.238-5.245,10.236v79.919c0.489-0.085,0.96-0.286,1.372-0.599l117.473-89.265 l-0.534-25.754l1.195-0.024l0.516,24.884l34.423-26.157c-1.373-28.946-7.363-49.32-20.59-69.962l-29.39,22.103 c0.162,11.742-3.015,24.147-9.521,37.093l-1.1-0.459c0.017-0.051,1.708-5.279-0.551-12.305 C399.413,245.113,397.486,241.282,393.872,237.261z M175.811,238.628l123.542,59.495c2.586,1.246,4.193,3.72,4.193,6.456v81.361 c0,1.051,0.597,1.974,1.596,2.47c0.257,0.127,0.524,0.219,0.794,0.275v-79.898c0-4.377,2.086-8.456,5.722-11.191l81.397-61.216 c-3.844-4.026-9.413-8.203-17.466-12.046c-2.011-0.959-4.11-1.954-6.282-2.984c-28.71-13.606-69.991-33.17-92.334-58.551 c-1.932-0.228-3.235-0.443-3.759-0.534c-3.503,2.519-50.149,36.031-79.285,55.307C185.597,223.086,179.818,230.722,175.811,238.628 z M166.413,318.916l136.154,68.308c-0.141-0.404-0.215-0.835-0.215-1.284v-81.361c0-2.274-1.347-4.335-3.517-5.38L175.28,239.698 c-3.167,6.522-5.158,13.172-6.409,18.915c-3.089,14.181-2.465,26.072-2.458,26.19l0.001,0.034V318.916z M124.287,297.781 l40.931,20.535v-33.464c-0.027-0.536-0.584-12.387,2.479-26.464c1.533-7.046,3.708-13.494,6.482-19.221l-46.535-22.41 c-0.009,0.553-0.068,1.109-0.179,1.664c-1.449,7.28-3.177,19.077-3.177,33.934V297.781z M3.859,157.458 c-0.522,0-1.04,0.146-1.499,0.434c-0.741,0.465-1.165,1.207-1.165,2.035v71.613c0,2.767,1.624,5.301,4.238,6.612l117.659,59.029 v-44.826c0-14.954,1.74-26.834,3.2-34.167c0.134-0.672,0.18-1.346,0.146-2.011L5.097,157.742 C4.702,157.552,4.279,157.458,3.859,157.458z M441.945,201.107c13.261,20.658,19.328,41.025,20.785,69.806l75.048-57.027v-84.852 L441.945,201.107z M394.83,236.541c3.729,4.172,5.716,8.157,6.758,11.434c1.116,3.508,1.305,6.562,1.189,8.824 c5.075-11.114,7.619-21.797,7.626-31.97L394.83,236.541z M127.566,215.394l47.141,22.702c0.38-0.752,0.771-1.492,1.172-2.217 c4.507-8.156,10.359-14.65,17.391-19.303c30.116-19.924,78.962-55.076,79.452-55.429l0.209-0.151l0.253,0.049 c0.03,0.006,0.963,0.182,2.622,0.403c-2.981-3.521-5.593-7.152-7.754-10.893c-6.654,1.691-15.175,2.054-25.323,1.078 c-1.771-0.17-3.727-0.347-5.84-0.527c-6.362,4.78-12.077,8.667-17.012,11.35c-5.906,3.212-13.236,7.28-20.995,11.587 c-13.918,7.725-29.694,16.48-42.088,22.978c-6.758,3.543-11.838,6.065-15.528,7.711c-6.148,2.742-7.078,2.444-7.545,1.859 c-0.551-0.689,0.147-1.645,0.901-2.489c4.96-5.548,9.979-9.117,19.592-14.21c-10.138,1.656-23.464,2.201-38.563,0.536 c-22.597-2.491-57.378-10.844-94.746-36.488l-3.082-2.115l3.588,1.049c18.131,5.302,35.3,7.102,40.95,7.581 C47.774,148.459,45.323,132.19,45.3,132.021l-0.251-1.776l1.266,1.271c0.158,0.159,16.288,16.026,56.531,27.929 c20.054,5.932,45.624,5.717,63.543,4.493c7.678-0.525,14.642-1.274,20.267-1.99c-9.962,0.51-24.04,0.95-38.744,0.506 c-13.426-0.406-23.745-2.319-30.668-5.687c-6.545-3.184-10.105-7.661-10.582-13.308c-0.123-1.456-2.876-35.766,8.75-45.671 c4.735-4.034,15.371-5.134,31.616-3.269c13.815,1.586,31.584,5.339,51.387,10.851c42.798,11.914,50.421,15.29,50.725,15.427 l2.514,1.142h-2.761c-4.643,0-6.552,9.068-8.086,16.354c-0.505,2.399-0.982,4.664-1.52,6.48c-0.569,1.919-1.912,3.565-3.99,5 c0.42,0.035,0.832,0.069,1.241,0.104c9.57-7.214,20.607-16.443,32.639-26.626c-5.981-0.416-11.978-1.786-18.421-4.181 c-24.031-8.93-70.802-21.667-99.409-27.96c-15.596-3.431-29.257-4.556-37.014-4.473L6.767,150.906 c-0.349,0.208-0.545,0.575-0.526,0.98c0.019,0.406,0.249,0.752,0.616,0.927l114.961,54.827 C125.03,209.172,127.144,212.135,127.566,215.394z M278.745,162.993c22.358,24.712,62.826,43.89,91.075,57.278 c2.173,1.03,4.273,2.025,6.285,2.985c8.256,3.939,13.967,8.243,17.911,12.402l16.37-12.312c-0.171-7.182-1.619-14.105-4.348-20.738 c-7.407-18.005-23.066-30.62-34.898-38.032c-12.841-8.044-24.054-11.86-24.165-11.897l0.305-1.153 c0.162,0.032,15.415,2.996,32.274,4.726c-8.724-4.39-18.002-8.835-27.506-13.251c-2.592,1.284-5.118,2.79-7.516,4.553 c-15.859,11.658-34.475,15.024-47.299,15.796C289.633,163.806,283.109,163.43,278.745,162.993z M353.075,153.795 c4.557,1.946,11.371,5.176,18.701,9.768c11.98,7.505,27.841,20.292,35.369,38.59c2.679,6.511,4.149,13.29,4.414,20.311 l28.778-21.642c-1.977-3.032-4.111-6.074-6.409-9.151c-6.995-9.366-26.739-21.357-51.376-33.903 C370.885,156.7,359.697,154.94,353.075,153.795z M538.974,128.136v84.843l8.926-6.782c1.922-1.461,3.025-3.625,3.025-5.937v-76.112 c0-0.886-0.503-1.666-1.346-2.087c-0.936-0.467-2.029-0.373-2.853,0.247L538.974,128.136z M158.25,189.141 c-11.805,6.041-17.332,9.713-22.736,15.758c-0.39,0.436-0.588,0.722-0.689,0.897c1.224-0.043,5.887-1.661,22.325-10.309 c12.235-6.437,27.598-14.964,41.154-22.487c7.762-4.308,15.093-8.377,21.004-11.592c4.603-2.504,9.906-6.075,15.79-10.452 c-0.503-0.042-1.014-0.084-1.533-0.126c-6.949,3.776-19.735,5.986-37.482,8.065c-10.914,1.279-28.971,0.974-47.121-0.796 c-18.54-1.808-31.619-4.552-34.988-7.341c-0.631-0.522-0.971-1.079-1.012-1.654c-0.019-0.268,0.042-0.67,0.444-1.062 c2.584-2.521,20.86-3.235,54.317-2.122c23.303,0.775,48.503,2.311,65.576,3.689c2.6-1.468,4.247-3.167,4.842-5.175 c0.525-1.769,0.997-4.012,1.496-6.386c1.483-7.046,3.138-14.908,7.226-16.851c-4.089-1.499-16.416-5.668-48.77-14.675 c-19.744-5.496-37.449-9.236-51.202-10.816c-15.901-1.826-26.232-0.82-30.705,2.991c-8.932,7.61-9.357,32.541-8.334,44.661 c0.924,10.946,14.789,17.135,40.096,17.901c27.426,0.829,52.689-1.43,52.941-1.453l0.165,1.182 c-0.149,0.028-15.08,2.809-34.583,4.142c-18.017,1.231-43.739,1.443-63.964-4.539c-21.186-6.267-35.55-13.595-43.868-18.638 c-6.139-3.722-9.937-6.736-11.795-8.34c1.107,4.653,5.185,17.573,17.787,27.111l1.57,1.188l-1.965-0.115 c-0.196-0.012-18.794-1.155-39.584-6.771c35.992,23.886,69.29,31.807,91.132,34.215c16.986,1.873,31.673,0.941,42.022-1.214 c3.285-1.68,7.048-3.539,11.418-5.68c0.86-0.421,1.65,0.009,1.986,0.652c0.336,0.642,0.24,1.536-0.596,2.002 C167.82,186.561,163.605,188.013,158.25,189.141z M385.739,158.041c26.838,13.823,42.951,24.621,49.146,32.915 c2.298,3.076,4.431,6.115,6.41,9.145l96.484-72.562v-8.163c0-2.494-1.582-4.757-4.03-5.765l-110.761-45.63 c-10.384,5.386-33.446,17.46-46.555,25.17c9.392-0.404,42.878-1.132,53.892,8.308c10.549,9.042-0.068,39.108-1.952,43.069 c-0.135,0.285-0.415,0.878-0.983,0.693c-0.587-0.191-0.49-0.802-0.328-1.815c0.116-0.727,0.305-1.743,0.546-3.029 c1.637-8.764,5.471-29.286-0.194-34.882c-4.002-3.953-21.824-7.329-41.456-7.851c-24.089-0.641-46.195,2.875-60.647,9.647 c-9.772,4.579-18.2,8.249-25.835,10.921c17.139,7.463,35.232,15.413,52.573,23.458c13.44-6.482,28.467-7.206,37.123-6.949 c15.157,0.45,29.088,4.334,34.668,9.664c2.748,2.625,3.268,5.411,1.503,8.058C420.961,159.014,403.229,159.431,385.739,158.041z M169.906,183.379c-0.046,0-0.098,0.012-0.158,0.041c-2.42,1.185-4.653,2.284-6.72,3.313c2.873-0.842,5.231-1.786,7.002-2.775 c0.212-0.118,0.182-0.285,0.12-0.405C170.105,183.466,170.028,183.379,169.906,183.379z M277.566,161.666 c4.254,0.482,11.283,0.993,19.629,0.488c12.654-0.765,31.015-4.086,46.629-15.564c2.194-1.613,4.49-3.014,6.844-4.231 c-17.619-8.163-35.945-16.206-52.868-23.573c-9.837,3.302-18.39,4.886-26.885,4.559c-11.976,10.141-22.992,19.376-32.601,26.685 c1.617,0.141,3.131,0.28,4.531,0.414c11.042,1.061,18.945,0.41,24.591-0.983c-6.223-11.292-5.218-16.97-3.274-19.746 c1.868-2.668,5.506-3.863,9.732-3.197c4.439,0.7,8.161,3.209,9.051,6.102c1.138,3.702,0.286,7.669-2.337,10.886 c-2.447,3-6.265,5.26-11.36,6.726C271.546,154.165,274.351,157.976,277.566,161.666z M141.556,146.615 c-22.052,0-26.506,1.494-27.315,2.283c-0.065,0.063-0.087,0.108-0.086,0.122c0.016,0.234,0.218,0.517,0.582,0.818 c3.144,2.604,16.303,5.313,34.341,7.072c18.072,1.762,36.03,2.068,46.867,0.798c15.964-1.87,28.15-3.891,35.285-7.065 c-16.987-1.335-41.141-2.783-63.546-3.528C156.99,146.76,148.42,146.615,141.556,146.615z M382.871,156.573 c23.608,2.153,37.95,0.497,41.477-4.792c1.421-2.131,0.972-4.328-1.334-6.531c-5.297-5.06-19.228-8.898-33.878-9.333 c-8.342-0.247-22.695,0.425-35.677,6.409c8.119,3.778,16.061,7.575,23.65,11.349C379.079,154.655,381,155.622,382.871,156.573z M271.644,127.533c-2.852,0-5.205,1.014-6.503,2.869c-1.754,2.505-2.589,7.76,3.392,18.574c0.032,0.058,0.063,0.114,0.095,0.172 c6.181-1.735,9.404-4.374,11.053-6.397c2.367-2.901,3.139-6.466,2.121-9.779c-0.748-2.434-4.152-4.651-8.094-5.272 C272.998,127.588,272.307,127.533,271.644,127.533z M380.385,96.375c1.855,0,3.723,0.025,5.604,0.075 c20.227,0.538,38.001,3.985,42.263,8.195c5.939,5.867,2.419,25.801,0.68,35.145c1.294-3.732,2.942-9.299,3.95-15.216 c1.313-7.701,1.8-17.805-3.336-22.207c-12.222-10.476-55.023-7.927-55.454-7.9l-2.438,0.153l2.093-1.261 c12.299-7.41,36.41-20.062,47.794-25.974l-46.839-19.296c-26.366,10.707-59.56,37.854-90.095,63.658 c1.468,0.638,2.952,1.283,4.451,1.935c2.894,1.258,5.828,2.533,8.792,3.823c7.916-2.683,16.684-6.482,26.954-11.295 C338.285,99.892,358.31,96.375,380.385,96.375z M272.301,122.172c7.552,0.106,15.202-1.308,23.848-4.104 c-2.56-1.114-5.083-2.21-7.568-3.29c-1.684-0.732-3.348-1.455-4.993-2.17c-2.516,2.127-5.015,4.247-7.488,6.343 C274.825,120.033,273.557,121.108,272.301,122.172z M116.326,85.447c8.05,0.108,20.849,1.323,35.277,4.497 c28.647,6.302,75.491,19.06,99.569,28.007c6.766,2.514,13.044,3.876,19.344,4.168c1.588-1.345,3.192-2.705,4.812-4.079 c2.326-1.972,4.675-3.964,7.039-5.963c-18.142-7.891-33.711-14.72-44.216-19.91c-32.484-16.05-69.099-24.677-86.05-28.093 L116.326,85.447z M153.623,63.163c17.518,3.595,53.25,12.217,85.057,27.932c10.585,5.23,26.346,12.138,44.704,20.121 c30.298-25.612,63.271-52.639,89.751-63.772L262.23,1.755c-2.16-0.889-4.636-0.712-6.624,0.476L153.623,63.163z M146.7,63.255 c-2.361,0-4.708,0.646-6.69,1.876l-27.245,16.898c-0.89,0.552-1.012,1.415-0.829,2.038c0.191,0.65,0.841,1.401,1.993,1.383 c0.021,0,0.043-0.001,0.064-0.001l36.358-21.723c-0.432-0.085-0.848-0.166-1.248-0.243C148.311,63.33,147.505,63.255,146.7,63.255z M376.303,47.456l46.626,19.208c0.074-0.038,0.148-0.076,0.221-0.114c0.869-0.451,1.368-1.268,1.333-2.186 c-0.035-0.93-0.603-1.718-1.52-2.109l-34.869-14.855c-3.455-1.472-7.434-1.572-10.919-0.275 C376.885,47.234,376.595,47.344,376.303,47.456z"/></g></svg>