<svg id="レイヤー_1" data-name="レイヤー 1" xmlns="http://www.w3.org/2000/svg" viewBox="0 0 706.15 717.75"><defs><style>.cls-1,.cls-2{fill:none;}.cls-1{stroke:#fff;stroke-width:1.5px;}</style></defs><g id="mainh1EN"><g id="We_ll_always_have_games." data-name="We ll always have games."><path class="cls-1" d="M67.08,267.47,60.87,232c-1.7-8.36-2.49-28.37-2.49-28.37H58s-.79,19.89-2.49,28.37l-5.76,35.48H22.44L4.14,179.33H28.55l6,38.19c1,6.33,1.59,18.09,1.93,24.75h.45c.45-6.89.9-17.63,2.15-24.29L46,179.33H70.47l7.69,38c1.13,5.31,1.69,15.82,2.26,24.29h.45c.45-8.47,1-18.42,1.81-24l5.19-38.31h23.4L93.52,267.47Z"/><path class="cls-1" d="M139.17,243.4c1.36,4.75,6.78,7.35,13.34,7.35s13.1-2.49,17.29-7.35l11.07,13.22c-8,8.82-15.59,12.44-30.17,12.44-19.78,0-32.89-13-32.89-33.23,0-17.74,11.19-33,32.44-33,19.21,0,31.19,12.66,31.19,32.32a27.91,27.91,0,0,1-.12,3.17Zm20.57-16.72c-.79-3.51-4.18-5.76-9.72-5.76-6.1,0-10.06,3.27-11.07,8.47Z"/><path class="cls-1" d="M195,215.94l-1.69-36.61H217l-2.49,36.61Z"/><path class="cls-1" d="M232.17,267.47V179.33h24v88.14Z"/><path class="cls-1" d="M271.49,267.47V179.33h24v88.14Z"/><path class="cls-1" d="M58.73,413.15a25.46,25.46,0,0,1-5.43.68c-6,0-11.74-2.23-13.19-5.62-3.59,4.26-10.28,5.62-17.56,5.62-10.86,0-17.17-6-17.17-15.42,0-10.19,5.05-16.49,18.92-19.4,6.69-1.36,9.89-2.91,9.89-4.46,0-2-.77-2.14-4.94-2.14-3.69,0-11.35,3.11-14.85,7.37L6.74,365.72C12.47,360,19.84,357,31.09,357c16.78,0,24.06,6.6,24.06,18.72v18.14c0,2.52,2,3.39,5,3.39a23.74,23.74,0,0,0,2.52-.19Zm-24-25.22a14.63,14.63,0,0,1-5.34,2.43c-3.29,1-4.56,2.91-4.56,5.72,0,1.94,1.46,2.81,3.79,2.81A6.92,6.92,0,0,0,34.68,394Z"/><path class="cls-1" d="M69,412.47V336.81H89.58v75.66Z"/><path class="cls-1" d="M144.38,412.47l-4.27-25.41a103,103,0,0,1-1.06-14.36h-.39a93.37,93.37,0,0,1-1.26,14.46l-4.85,25.31h-24L95.11,358.35h20.46l4.85,26.58c.39,2.23.78,11.54.78,13.67h.39c0-2,.29-11.25.68-13.38l5.33-26.87h22.12l6,27.25c.58,2.72.68,10.58.68,13h.39c0-2.42.19-10.57.68-13l4.46-27.25h19.21L167,412.47Z"/><path class="cls-1" d="M237.7,413.15a25.55,25.55,0,0,1-5.44.68c-6,0-11.73-2.23-13.19-5.62-3.59,4.26-10.28,5.62-17.55,5.62-10.87,0-17.17-6-17.17-15.42,0-10.19,5-16.49,18.91-19.4,6.69-1.36,9.89-2.91,9.89-4.46,0-2-.77-2.14-4.94-2.14-3.69,0-11.35,3.11-14.84,7.37l-7.67-14.06c5.73-5.72,13.1-8.73,24.35-8.73,16.78,0,24.06,6.6,24.06,18.72v18.14c0,2.52,2,3.39,5,3.39a23.74,23.74,0,0,0,2.52-.19Zm-24.06-25.22a14.59,14.59,0,0,1-5.33,2.43c-3.3,1-4.56,2.91-4.56,5.72,0,1.94,1.45,2.81,3.78,2.81a6.91,6.91,0,0,0,6.11-4.85Z"/><path class="cls-1" d="M245.94,415.77c12.12,0,14.55-.58,17.27-7.56l-21-49.86h21.44L270,375.61c1.84,4.95,2.52,9.22,3.49,13.87h.19a123.12,123.12,0,0,1,2.72-13.58l4.36-17.55h19.5l-17.65,54.12c-4.76,14.55-15,19.79-31.82,19.79Z"/><path class="cls-1" d="M347.11,378.14a26,26,0,0,0-16.78-6.7c-3.3,0-3.88.78-3.88,2.14,0,1.74.78,2.23,7.95,3.59,15,2.91,21.34,9.31,21.34,19.3,0,11.25-9,17.36-25.12,17.36-9.51,0-20.08-3.1-26.09-9.8l8.05-13.67c5.24,4.85,14,8.34,18.72,8.34,2.71,0,3.68-.87,3.68-2.33,0-2.13-1.45-2.71-8.92-4.17-14.06-2.72-20-9.12-20-18.24,0-9.5,8.63-17,24.64-17,9.89,0,19.2,3,24,8.15Z"/><path class="cls-1" d="M433.53,412.47V379.78c0-4.36-2.23-6.79-5.82-6.79-4.07,0-7.56,2.33-8.53,6.21v33.27H399V336.81h20.18v25.13c2.91-3.3,6.5-4.95,14.65-4.95,11.93,0,19.88,7.47,19.88,18.24v37.24Z"/><path class="cls-1" d="M516.76,413.15a25.46,25.46,0,0,1-5.43.68c-6,0-11.74-2.23-13.19-5.62-3.59,4.26-10.29,5.62-17.56,5.62-10.87,0-17.17-6-17.17-15.42,0-10.19,5-16.49,18.91-19.4,6.7-1.36,9.9-2.91,9.9-4.46,0-2-.78-2.14-5-2.14-3.69,0-11.35,3.11-14.84,7.37l-7.66-14.06c5.72-5.72,13.09-8.73,24.34-8.73,16.79,0,24.06,6.6,24.06,18.72v18.14c0,2.52,2,3.39,5,3.39a23.73,23.73,0,0,0,2.53-.19ZM492.7,387.93a14.59,14.59,0,0,1-5.33,2.43c-3.3,1-4.56,2.91-4.56,5.72,0,1.94,1.45,2.81,3.78,2.81A6.91,6.91,0,0,0,492.7,394Z"/><path class="cls-1" d="M538.1,412.47l-19.21-54.12h21.63l6.31,21.14a72.22,72.22,0,0,1,3,14.84h.49A72.86,72.86,0,0,1,553,379.69l6-21.34h20.47l-19,54.12Z"/><path class="cls-1" d="M599.6,391.81c1.16,4.08,5.82,6.31,11.44,6.31a19.42,19.42,0,0,0,14.84-6.31l9.51,11.35c-6.89,7.57-13.39,10.67-25.9,10.67-17,0-28.23-11.15-28.23-28.52,0-15.23,9.61-28.32,27.84-28.32,16.49,0,26.77,10.86,26.77,27.74,0,.87,0,1.75-.09,2.72Zm17.65-14.35c-.68-3-3.59-4.95-8.34-4.95-5.24,0-8.64,2.81-9.51,7.27Z"/><path class="cls-1" d="M48.32,550.58c-3.5,2-8.7,3.16-14.35,3.16-16,0-28-10.28-28-29.72,0-19.66,12.1-31.19,27-31.19,9.16,0,15.15,2.26,17.74,6.67l3.17-5.08h17v59.32c0,18.09-9.27,26.79-37.41,26.79-7.23,0-15.14-.68-18.3-1L9.56,559.06a142.22,142.22,0,0,0,23,2.6c13.79,0,15.71-3.28,15.71-9.16Zm-.11-32.88a9.52,9.52,0,0,0-9.38-6.45c-6.1,0-9.83,4.3-9.83,12.89s3.73,13.33,10.06,13.33c5.08,0,9.15-3.28,9.15-8.59Z"/><path class="cls-1" d="M144.26,558.26a28.73,28.73,0,0,1-6.33.8c-7,0-13.67-2.6-15.37-6.56-4.18,5-12,6.56-20.45,6.56-12.66,0-20-7-20-18,0-11.87,5.87-19.21,22-22.6,7.8-1.59,11.53-3.39,11.53-5.2,0-2.37-.9-2.49-5.76-2.49-4.3,0-13.23,3.62-17.29,8.59L83.69,503c6.67-6.66,15.25-10.17,28.36-10.17,19.55,0,28,7.69,28,21.81v21.14c0,2.93,2.37,4,5.87,4a29.07,29.07,0,0,0,2.94-.22Zm-28-29.38c-1.35,1.13-3.16,1.92-6.21,2.83-3.84,1.13-5.31,3.39-5.31,6.67,0,2.26,1.69,3.27,4.4,3.27a8,8,0,0,0,7.12-5.65Z"/><path class="cls-1" d="M226.41,557.47V519.73c0-5.43-1.36-7.91-5.31-7.91-4.63,0-6.1,3.39-6.56,7.23v38.42H191.26V519.73c0-5.31-1.13-7.91-5.19-7.91s-5.77,3.16-6.67,7.23v38.42H155.89V494.42h21.25v6.66c2.71-5.08,8.47-8.25,18.42-8.25,7.46,0,13.56,4,15.93,8.93,2.83-6.1,10.4-8.93,19.44-8.93,10.85,0,19,8.93,19,21v43.62Z"/><path class="cls-1" d="M282.57,533.4c1.35,4.75,6.78,7.35,13.33,7.35s13.11-2.49,17.29-7.35l11.08,13.22c-8,8.82-15.6,12.44-30.18,12.44-19.77,0-32.88-13-32.88-33.23,0-17.74,11.19-33,32.43-33,19.21,0,31.19,12.66,31.19,32.32a30.43,30.43,0,0,1-.11,3.17Zm20.56-16.72c-.79-3.51-4.18-5.76-9.72-5.76-6.1,0-10.05,3.27-11.07,8.47Z"/><path class="cls-1" d="M382.12,517.47a30.37,30.37,0,0,0-19.55-7.8c-3.84,0-4.52.91-4.52,2.49,0,2,.9,2.6,9.27,4.18,17.51,3.39,24.86,10.85,24.86,22.49,0,13.11-10.51,20.23-29.27,20.23-11.08,0-23.39-3.62-30.4-11.42l9.38-15.93c6.1,5.65,16.27,9.72,21.81,9.72,3.16,0,4.29-1,4.29-2.72,0-2.48-1.69-3.16-10.39-4.85-16.39-3.17-23.28-10.63-23.28-21.25,0-11.07,10.06-19.78,28.7-19.78,11.53,0,22.38,3.51,28,9.5Z"/><path class="cls-1" d="M404.15,557.47V534.08h23.51v23.39Z"/></g></g><rect class="cls-2" x="1.03" y="36.88" width="706.27" height="650.59"/></svg>