<svg id="レイヤー_1" data-name="レイヤー 1" xmlns="http://www.w3.org/2000/svg" viewBox="0 0 403 416.57"><defs><style>.cls-1{fill:#fff;}.cls-2{fill:#ffa238;}</style></defs><g id="_2021._Sep.30_thu_" data-name=" 2021. Sep.30 thu "><path class="cls-1" d="M348.12,287.87c4-3.6,6.4-6.38,6.4-8.66a2.11,2.11,0,0,0-1.82-2.38,1.79,1.79,0,0,0-.4,0,3.83,3.83,0,0,0-2.72,1.52l-1.6-1.6a6,6,0,0,1,4.7-2.24,4.34,4.34,0,0,1,4.65,4,3.49,3.49,0,0,1,0,.56c0,2.68-2.22,5.56-4.92,8.2.74-.08,1.72-.16,2.4-.16H358v2.48h-9.92Z"/><path class="cls-1" d="M359.92,282.11c0-5.12,2-7.62,5-7.62s5,2.52,5,7.62-2,7.74-5,7.74S359.92,287.21,359.92,282.11Zm7.24,0c0-4.14-1-5.34-2.22-5.34s-2.24,1.2-2.24,5.34,1,5.44,2.24,5.44S367.16,286.27,367.16,282.11Z"/><path class="cls-1" d="M371.68,287.87c4-3.6,6.4-6.38,6.4-8.66a2.11,2.11,0,0,0-1.82-2.38,1.79,1.79,0,0,0-.4,0,3.83,3.83,0,0,0-2.72,1.52l-1.6-1.6a6,6,0,0,1,4.7-2.24,4.34,4.34,0,0,1,4.65,4,3.49,3.49,0,0,1,0,.56c0,2.68-2.22,5.56-4.92,8.2.74-.08,1.72-.16,2.4-.16h3.22v2.48h-9.92Z"/><path class="cls-1" d="M384.24,287.19h3.18v-9.36h-2.68V276a9.61,9.61,0,0,0,3.44-1.24h2.18v12.42h2.78v2.38h-8.9Z"/><path class="cls-1" d="M395.8,287.93a1.89,1.89,0,1,1,0,.06Z"/><path class="cls-1" d="M188.27,338.32l4.25-5.1a14.55,14.55,0,0,0,9.4,4.1c3.85,0,5.9-1.65,5.9-4.25s-2.25-3.6-5.55-5l-5-2.1c-3.75-1.55-7.5-4.55-7.5-10,0-6,5.3-10.7,12.8-10.7a16.42,16.42,0,0,1,11.6,4.75l-3.75,4.65a11.81,11.81,0,0,0-7.85-3.05c-3.25,0-5.35,1.45-5.35,3.9,0,2.65,2.65,3.6,5.8,4.85l4.85,2.05c4.5,1.85,7.45,4.7,7.45,10,0,6.05-5,11.2-13.6,11.2A19.7,19.7,0,0,1,188.27,338.32Z"/><path class="cls-1" d="M219.57,329.07c0-9.1,6.35-14.75,13.05-14.75,7.7,0,11.7,5.65,11.7,13.4a14,14,0,0,1-.35,3.35H226.72c.6,4.6,3.6,7,7.75,7a11.53,11.53,0,0,0,6.3-1.95l2.5,4.5a17.7,17.7,0,0,1-9.8,3.1C225.67,343.72,219.57,338.27,219.57,329.07ZM238,326.22c0-3.8-1.7-6.2-5.3-6.2-2.95,0-5.55,2.1-6.1,6.2Z"/><path class="cls-1" d="M250.37,315h6l.5,2.9h.2c2.35-2,5.25-3.6,8.25-3.6,6.9,0,11,5.65,11,14.25,0,9.6-5.75,15.15-11.9,15.15a10.4,10.4,0,0,1-6.95-3.05l.2,4.6v8.51h-7.3Zm18.4,13.65c0-5.35-1.7-8.3-5.55-8.3-1.9,0-3.6.95-5.55,2.9v12.3a7.81,7.81,0,0,0,5.1,2.1c3.4,0,6-2.88,6-9Z"/><path class="cls-1" d="M281.57,338.92a4.73,4.73,0,1,1,0,.15Z"/><path class="cls-1" d="M295.57,338.57l3.45-4.65a11.75,11.75,0,0,0,8.25,3.8c3.75,0,6.3-1.85,6.3-5.15,0-3.65-2.15-5.9-10.2-5.9v-5.3c6.8,0,9-2.35,9-5.65,0-2.9-1.8-4.6-4.95-4.65-2.65.05-4.8,1.3-7,3.3l-3.75-4.5a16.42,16.42,0,0,1,11.1-4.55c7.15,0,12,3.5,12,9.85,0,4-2.25,6.9-6.2,8.45v.25c4.2,1.15,7.4,4.25,7.4,9.1,0,6.8-6,10.75-13,10.75C302.12,343.72,298.17,341.52,295.57,338.57Z"/><path class="cls-1" d="M325.92,324.37c0-12.8,5-19.05,12.55-19.05s12.5,6.3,12.5,19.05-5,19.35-12.5,19.35S325.92,337.12,325.92,324.37Zm18.1,0c0-10.35-2.4-13.35-5.55-13.35s-5.6,3-5.6,13.35,2.4,13.6,5.6,13.6,5.53-3.2,5.53-13.6Z"/><path class="cls-1" d="M354.87,326.72h3.66V328h-1.9v13.09h1.9v1.28h-3.66Z"/><path class="cls-1" d="M370.56,327.73h2.34v3.2l-.1,1.68a4.1,4.1,0,0,1,2.82-1.32c1.94,0,2.77,1.35,2.77,3.61v5.58H376v-5.3c0-1.37-.39-1.87-1.27-1.87a2.59,2.59,0,0,0-1.87,1v6.16h-2.34Z"/><path class="cls-1" d="M380.71,337.14v-5.6h2.35v5.3c0,1.39.39,1.87,1.25,1.87a2.12,2.12,0,0,0,1.82-1.12v-6h2.36v9h-1.92l-.18-1.28h-.06a3.61,3.61,0,0,1-2.87,1.5C381.54,340.72,380.71,339.38,380.71,337.14Z"/><path class="cls-1" d="M390.5,341.06h1.9V328h-1.9v-1.25h3.67v15.62H390.5Z"/></g><g id="_Oct.3_sun_" data-name=" Oct.3 sun "><path class="cls-1" d="M204.55,389a2.93,2.93,0,0,0-2.38-1.15,3.1,3.1,0,0,0-2.55,1.92l-1.76-1a4.93,4.93,0,0,1,4.35-2.95,4.88,4.88,0,0,1,3.78,1.76,2.91,2.91,0,0,0,2.39,1.16,3.15,3.15,0,0,0,2.54-1.92l1.76,1a5,5,0,0,1-4.35,2.94A4.81,4.81,0,0,1,204.55,389Z"/><path class="cls-1" d="M220.11,385.37c0-12.05,6.75-19.05,16.55-19.05s16.55,7.05,16.55,19.05-6.75,19.35-16.55,19.35S220.11,397.37,220.11,385.37Zm25.55,0c0-7.95-3.5-12.7-9-12.7s-9,4.75-9,12.7,3.5,12.95,9,12.95S245.66,393.27,245.66,385.37Z"/><path class="cls-1" d="M258.11,390.07c0-9.35,6.7-14.75,14.3-14.75a12.23,12.23,0,0,1,8.15,3.1l-3.5,4.75a6.38,6.38,0,0,0-4.3-1.85c-4.25,0-7.15,3.45-7.15,8.75s2.9,8.65,6.95,8.65a8.7,8.7,0,0,0,5.45-2.25l2.9,4.85a13.92,13.92,0,0,1-9.15,3.4C264,404.72,258.11,399.32,258.11,390.07Z"/><path class="cls-1" d="M286.66,394.22v-12.4h-4v-5.45L287,376l.85-7.5H294V376h6.9v5.8H294v12.4c0,3.2,1.3,4.7,3.8,4.7a8.18,8.18,0,0,0,2.75-.6l1.2,5.35a18,18,0,0,1-5.9,1.05C289.21,404.72,286.66,400.52,286.66,394.22Z"/><path class="cls-1" d="M305.81,399.92a4.73,4.73,0,1,1,0,.15Z"/><path class="cls-1" d="M319.81,399.57l3.45-4.65a11.75,11.75,0,0,0,8.25,3.8c3.75,0,6.3-1.85,6.3-5.15,0-3.65-2.15-5.9-10.2-5.9v-5.3c6.8,0,9-2.35,9-5.65,0-2.9-1.8-4.6-4.95-4.65-2.65.05-4.8,1.3-7,3.3l-3.75-4.5a16.42,16.42,0,0,1,11.1-4.55c7.15,0,12,3.5,12,9.85,0,4-2.25,6.9-6.2,8.45v.25c4.2,1.15,7.4,4.25,7.4,9.1,0,6.8-5.95,10.75-13,10.75C326.36,404.72,322.41,402.52,319.81,399.57Z"/><path class="cls-1" d="M354.88,387.72h3.67V389h-1.91v13.09h1.91v1.28h-3.67Z"/><path class="cls-1" d="M371.68,397.21v-5.6H374v5.3c0,1.39.38,1.87,1.24,1.87a2.17,2.17,0,0,0,1.83-1.12v-6.05h2.35v9H377.5l-.18-1.28h-.06a3.6,3.6,0,0,1-2.86,1.5C372.51,400.79,371.68,399.45,371.68,397.21Z"/><path class="cls-1" d="M382,391.61h1.92l.16,1.18h.07a4.1,4.1,0,0,1,2.91-1.41c1.93,0,2.77,1.35,2.77,3.61v5.58h-2.36v-5.3c0-1.37-.38-1.87-1.26-1.87a2.56,2.56,0,0,0-1.87,1v6.16H382Z"/><path class="cls-1" d="M391.73,402.06h1.9V389h-1.9v-1.25h3.67v15.62h-3.67Z"/></g><g id="グループ_15" data-name="グループ 15"><path id="パス_31" data-name="パス 31" class="cls-1" d="M226.82,8H214.09V.1h34.15V8H235.51V38h-8.7Zm71.74,10.76L314,38h11.05l-16.6-19.6,16-18.3h-10.9l-15,18V.1H290V38h8.6ZM339.19,38h8.64V23.16L362.1.1h-10l-8.55,15.27L335,.1H324.92l14.27,23.06Zm-52.25.11H251.46V0h35.48Zm-8.12-29.8H259.57V29.75h19.25ZM398.42,0V38.07H363V0Zm-8.11,8.31H371.06V29.75h19.25Zm-264,50.1,14.46,37.87H131l-2.84-7.89h-15l-2.84,7.89h-9.71L115,58.41ZM125.85,81l-5.19-14.17L115.47,81Zm37,4.81-8.31-27.35H142V96.28h8.17V78.07c0-1.2-.24-9.46-.29-10.66l8.94,28.87h8.08l8.93-28.87c0,1.39-.28,9.46-.28,10.66V96.28h8.16V58.42H171.14Zm54.7,2.63H195.18V80.85h20.95V73.31H195.18v-7H217V58.42H186.54V96.28h31Zm67.55-7.68h18.45V96.28h8.65V58.42h-8.65V72.83H285.07V58.42h-8.6V96.28h8.6Zm100.14,7L381,58.42H369.55l-4.23,29.26-4.23-29.26h-9l7.35,37.86H371l4.23-28.87,4.23,28.87h11.62l7.3-37.86h-9ZM315.46,58.32h35.48V96.39H315.46Zm8.11,29.76h19.26V66.64H323.57ZM64.07,96.39H99.55V74.94H81.75v8.22h9.68v4.91H72.18V66.64H91.43v5h8.12V58.32H64.07Zm178-8v7.84h31v-23H250V65.89h23.12V58.06h-31v23h23.13v7.32Zm1,119.34c0,14.48-3.75,18.37-17,18.37-14.24,0-15.92-7.13-15.92-18.37,0-14.43,3.7-18.36,17-18.36C241.35,189.37,243.07,196.49,243.07,207.73Zm-4.66,0c0-11-1.2-14.43-12.36-14.43-10.87,0-11.26,5.3-11.26,14.43,0,11.06,1.16,14.44,12.36,14.44,10.87,0,11.26-5.3,11.26-14.44ZM277,221.46l-20-31.75h-7v36h4.61V194l19.86,31.75h7v-36H277Zm17-31.75h-4.61v36h25.2v-4H294Zm25.63,36h4.67v-36h-4.7Zm39.3-4.25L339,189.71h-7v36h4.62V194l19.86,31.75h7v-36H358.9Zm16.83-12.25H397v-3.88h-21.2V193.69h22.41v-4h-27v36h27.32v-4h-22.7ZM210.15,173.29H398.43v-2.21H210.15Z"/><g id="グループ_14" data-name="グループ 14"><path id="パス_32" data-name="パス 32" class="cls-1" d="M278.75,142.1c-2.48.29-4,.72-4,3.53v1.19H300v7.82H266.21v-7.48c0-3.63,0-11.45,9.3-12.54l12.2-1.43c2.77-.34,4.06-.81,4.06-4s-1-4.67-8.11-4.67c-8,0-8.25,1-8.34,5.67h-8.4c0-8,.43-13.49,16.07-13.49,9.92,0,17.26.67,17.26,12,0,4.87-1.24,7.35-2.9,8.82a12.17,12.17,0,0,1-7,3.15Z"/><path id="パス_33" data-name="パス 33" class="cls-1" d="M355.42,142.1c-2.47.29-4,.72-4,3.53v1.19h25.23v7.82H342.88v-7.48c0-3.63,0-11.45,9.3-12.54l12.21-1.43c2.76-.34,4.05-.81,4.05-4s-1.05-4.67-8.1-4.67c-8,0-8.25,1-8.34,5.67h-8.4c0-8,.43-13.49,16.07-13.49,9.92,0,17.26.67,17.26,12,0,4.87-1.24,7.35-2.9,8.82a12.17,12.17,0,0,1-7,3.15Z"/><path id="パス_34" data-name="パス 34" class="cls-1" d="M321,116.69c15.26,0,17.35,3.53,17.35,19.5,0,15.35-2.86,18.83-16.3,18.83-14.4,0-17.84-1.71-17.84-19.16,0-15.45,2.72-19.17,16.79-19.17M312.75,136c0,11.16.57,11.25,9,11.25,7.15,0,8-.57,8-10.35,0-2.05-.1-8.34-.72-10-.81-2.24-3.47-2.43-7.77-2.43-7.91,0-8.48.23-8.48,11.49"/><path id="パス_35" data-name="パス 35" class="cls-1" d="M398.43,117.64v37h-7.89v-30h-7.65v-7Z"/></g></g><circle id="楕円形_1" data-name="楕円形 1" class="cls-1" cx="79" cy="324.57" r="56"/><g id="Call_for_ONLINE_Exhibitor_begins" data-name="Call for ONLINE Exhibitor begins"><path class="cls-2" d="M50.63,296.7c0-3.91,2.51-6.2,5.5-6.2a4.86,4.86,0,0,1,3.48,1.5l-1.25,1.51a3,3,0,0,0-2.18-1c-1.79,0-3.14,1.53-3.14,4.08s1.22,4.13,3.09,4.13a3.3,3.3,0,0,0,2.45-1.17L59.83,301a4.76,4.76,0,0,1-3.78,1.74C53.06,302.79,50.63,300.65,50.63,296.7Z"/><path class="cls-2" d="M61.09,300.14c0-1.92,1.55-2.93,5.15-3.31a1.38,1.38,0,0,0-1.52-1.56,5,5,0,0,0-2.46.85l-.85-1.55a7.14,7.14,0,0,1,3.75-1.19c2.27,0,3.44,1.36,3.44,4v5.23H66.68l-.18-1h0a4.22,4.22,0,0,1-2.7,1.18,2.54,2.54,0,0,1-2.71-2.36Zm5.15-.07v-1.8c-2.17.28-2.91.88-2.91,1.68s.5,1,1.19,1A2.4,2.4,0,0,0,66.24,300.07Z"/><path class="cls-2" d="M71,300.06V289.8h2.34v10.37c0,.53.26.71.48.71a.86.86,0,0,0,.32,0l.29,1.75a3.36,3.36,0,0,1-1.22.2C71.57,302.79,71,301.72,71,300.06Z"/><path class="cls-2" d="M76,300.06V289.8h2.34v10.37c0,.53.26.71.48.71a.86.86,0,0,0,.32,0l.29,1.75a3.36,3.36,0,0,1-1.22.2C76.61,302.79,76,301.72,76,300.06Z"/><path class="cls-2" d="M89.49,291.62a3,3,0,0,0-.94-.19c-.71,0-1.09.42-1.09,1.41v.77h1.68v1.85H87.46v7.11H85.11v-7.11h-1.2v-1.74l1.2-.1v-.73c0-1.88.86-3.32,3.12-3.32a4.65,4.65,0,0,1,1.69.32Z"/><path class="cls-2" d="M89.9,298.11a4.32,4.32,0,1,1,4.31,4.68,4.38,4.38,0,0,1-4.32-4.44A1.93,1.93,0,0,1,89.9,298.11Zm6.22,0c0-1.7-.69-2.81-1.91-2.81s-1.9,1.11-1.9,2.81.68,2.77,1.9,2.77S96.12,299.79,96.12,298.11Z"/><path class="cls-2" d="M100.48,293.61h1.92l.16,1.58h.07a3.09,3.09,0,0,1,2.54-1.81,2.41,2.41,0,0,1,1.06.2l-.42,2a2.92,2.92,0,0,0-.93-.15c-.7,0-1.55.47-2.06,1.77v5.34h-2.34Z"/><path class="cls-2" d="M48.73,315.6c0-3.86,2.16-6.1,5.29-6.1s5.3,2.26,5.3,6.1-2.16,6.19-5.3,6.19S48.73,319.44,48.73,315.6Zm8.17,0c0-2.54-1.12-4.06-2.88-4.06s-2.88,1.52-2.88,4.06,1.12,4.15,2.88,4.15S56.9,318.13,56.9,315.6Z"/><path class="cls-2" d="M61.64,309.73h2.41L67.5,316l1.18,2.56h.08c-.13-1.23-.3-2.8-.3-4.14V309.7H70.7v11.84H68.3l-3.43-6.34-1.2-2.54h-.08c.11,1.28.29,2.77.29,4.13v4.75H61.64Z"/><path class="cls-2" d="M73.62,309.73H76v9.86h4.8v2H73.62Z"/><path class="cls-2" d="M82.85,309.73h2.37v11.84H82.85Z"/><path class="cls-2" d="M88.13,309.73h2.42L94,316l1.19,2.56h.08c-.13-1.23-.31-2.8-.31-4.14V309.7H97.2v11.84H94.8l-3.42-6.34-1.2-2.54H90.1c.11,1.28.28,2.77.28,4.13v4.75H88.13Z"/><path class="cls-2" d="M100.12,309.73h7.26v2h-4.89v2.73h4.16v2h-4.16v3.17h5.07v2h-7.44Z"/><path class="cls-2" d="M43.46,328.73h7.26v2H45.83v2.73H50v2H45.83v3.17H50.9v2H43.46Z"/><path class="cls-2" d="M54.16,335.9l-2.62-4.29h2.52l.9,1.6.8,1.5h.07c.2-.49.44-1,.65-1.5l.75-1.6h2.44L57,336.17l2.8,4.4H57.31l-1-1.63c-.29-.53-.57-1.07-.86-1.59h-.08c-.26.52-.5,1-.76,1.59l-.83,1.63H51.36Z"/><path class="cls-2" d="M61.36,327.8H63.7V331l-.1,1.68a4.06,4.06,0,0,1,2.82-1.32c1.93,0,2.77,1.35,2.77,3.61v5.58H66.83v-5.3c0-1.37-.38-1.87-1.26-1.87a2.56,2.56,0,0,0-1.87,1v6.16H61.36Z"/><path class="cls-2" d="M71.38,328.89a1.41,1.41,0,1,1,1.23,1.23A1.41,1.41,0,0,1,71.38,328.89Zm.22,2.72h2.34v9H71.6Z"/><path class="cls-2" d="M78.56,339.63h0l-.21.94H76.46V327.8H78.8v4.64a3.85,3.85,0,0,1,2.48-1.08c2.21,0,3.54,1.81,3.54,4.55,0,3.09-1.84,4.86-3.81,4.86A3.52,3.52,0,0,1,78.56,339.63ZM82.35,336c0-1.72-.54-2.66-1.77-2.66a2.49,2.49,0,0,0-1.78.93v3.94a2.51,2.51,0,0,0,1.63.67C81.52,338.86,82.35,337.93,82.35,336Z"/><path class="cls-2" d="M86.54,328.89a1.41,1.41,0,1,1,1.29,1.29A1.42,1.42,0,0,1,86.54,328.89Zm.23,2.72H89.1v9H86.77Z"/><path class="cls-2" d="M92,337.43v-4H90.7v-1.74l1.38-.11.27-2.4h2v2.4h2.21v1.85H94.32v4c0,1,.42,1.51,1.22,1.51a3,3,0,0,0,.88-.19l.38,1.71a5.83,5.83,0,0,1-1.89.33C92.78,340.79,92,339.45,92,337.43Z"/><path class="cls-2" d="M97.49,336.11a4.32,4.32,0,1,1,4.3,4.68,4.38,4.38,0,0,1-4.31-4.45A1.77,1.77,0,0,1,97.49,336.11Zm6.21,0c0-1.7-.69-2.81-1.91-2.81s-1.9,1.11-1.9,2.81.69,2.77,1.9,2.77S103.7,337.79,103.7,336.11Z"/><path class="cls-2" d="M108.06,331.61H110l.16,1.58h.07a3.09,3.09,0,0,1,2.54-1.81,2.41,2.41,0,0,1,1.06.2l-.42,2a2.91,2.91,0,0,0-.92-.15c-.71,0-1.56.47-2.07,1.77v5.34h-2.34Z"/><path class="cls-2" d="M56.06,358.63H56l-.21.94H54V346.8h2.3v4.64a3.85,3.85,0,0,1,2.48-1.08c2.21,0,3.54,1.81,3.54,4.55,0,3.09-1.84,4.86-3.81,4.86A3.52,3.52,0,0,1,56.06,358.63ZM59.85,355c0-1.72-.54-2.66-1.77-2.66a2.49,2.49,0,0,0-1.78.93v3.94a2.51,2.51,0,0,0,1.63.67C59,357.86,59.85,356.93,59.85,355Z"/><path class="cls-2" d="M63.71,355.11c0-2.92,2-4.73,4.17-4.73,2.47,0,3.75,1.81,3.75,4.29a4.36,4.36,0,0,1-.11,1.08H66A2.35,2.35,0,0,0,68.44,358h0a3.67,3.67,0,0,0,2-.63l.8,1.44a5.57,5.57,0,0,1-3.13,1,4.34,4.34,0,0,1-4.45-4.22A3.85,3.85,0,0,1,63.71,355.11Zm5.9-.92c0-1.21-.54-2-1.69-2a2,2,0,0,0-2,2Z"/><path class="cls-2" d="M72.78,361.16a2.16,2.16,0,0,1,1.28-1.86v-.08a1.72,1.72,0,0,1-.82-1.51,2.26,2.26,0,0,1,1-1.68v0a3,3,0,0,1-1.19-2.34c0-2.11,1.71-3.25,3.62-3.25a4.06,4.06,0,0,1,1.34.23h3.24v1.73H79.71a2.28,2.28,0,0,1,.42,1.36c0,2-1.54,3-3.46,3a3.77,3.77,0,0,1-1.15-.21.9.9,0,0,0-.39.77c0,.48.35.73,1.41.73h1.52c2.16,0,3.33.68,3.33,2.25,0,1.8-1.87,3.18-4.87,3.18C74.41,363.46,72.78,362.74,72.78,361.16Zm6.37-.48c0-.64-.53-.8-1.49-.8H76.57a5.26,5.26,0,0,1-1.25-.13,1.32,1.32,0,0,0-.59,1c0,.75.83,1.18,2.15,1.18S79.15,361.38,79.15,360.68Zm-1.09-7.05c0-1.05-.59-1.65-1.39-1.65a1.67,1.67,0,0,0-1.39,1.91,1.65,1.65,0,0,0,1.39,1.39C77.45,355.28,78.06,354.69,78.06,353.63Z"/><path class="cls-2" d="M82.7,347.89a1.41,1.41,0,1,1,1.23,1.23A1.41,1.41,0,0,1,82.7,347.89Zm.22,2.72h2.34v9H82.92Z"/><path class="cls-2" d="M87.79,350.61h1.92l.16,1.18h.06a4.12,4.12,0,0,1,2.92-1.41c1.93,0,2.76,1.35,2.76,3.61v5.58H93.26v-5.3c0-1.37-.38-1.87-1.26-1.87a2.58,2.58,0,0,0-1.88,1v6.16H87.79Z"/><path class="cls-2" d="M97.19,358.53l1.08-1.47a3.89,3.89,0,0,0,2.4,1c.89,0,1.29-.38,1.29-.94s-.92-1-1.87-1.34c-1.13-.44-2.45-1.13-2.45-2.61s1.32-2.76,3.33-2.76a5,5,0,0,1,3.06,1.11l-1,1.39a3.42,3.42,0,0,0-1.93-.77c-.8,0-1.19.36-1.19.87,0,.66.88.9,1.83,1.25,1.18.45,2.49,1,2.49,2.7s-1.23,2.83-3.57,2.83A5.59,5.59,0,0,1,97.19,358.53Z"/></g><path class="cls-2" d="M20.94,391.53c0-2.68,1.73-4.25,3.78-4.25a3.35,3.35,0,0,1,2.39,1l-.86,1a2.11,2.11,0,0,0-1.49-.69c-1.24,0-2.16,1.06-2.16,2.81s.84,2.84,2.12,2.84a2.26,2.26,0,0,0,1.69-.81l.85,1a3.32,3.32,0,0,1-2.59,1.2C22.61,395.73,20.94,394.25,20.94,391.53Z"/><path class="cls-2" d="M28.44,393.84v-7h1.61V394c0,.36.17.49.33.49a.81.81,0,0,0,.22,0l.19,1.2a2,2,0,0,1-.83.15C28.84,395.73,28.44,395,28.44,393.84Z"/><path class="cls-2" d="M31.52,392.5a3,3,0,1,1,0,.24A1.93,1.93,0,0,1,31.52,392.5Zm4.27,0c0-1.16-.47-1.92-1.31-1.92s-1.31.76-1.31,1.92.47,1.91,1.31,1.91S35.79,393.66,35.79,392.5Z"/><path class="cls-2" d="M38.15,394.86l.74-1a2.66,2.66,0,0,0,1.65.67c.62,0,.89-.26.89-.64s-.64-.67-1.29-.93-1.68-.77-1.68-1.79a2.06,2.06,0,0,1,2.29-1.89,3.42,3.42,0,0,1,2.1.76l-.73,1a2.33,2.33,0,0,0-1.33-.53c-.55,0-.81.24-.81.59s.6.62,1.25.86c.82.31,1.72.71,1.72,1.86s-.85,2-2.45,2A3.94,3.94,0,0,1,38.15,394.86Z"/><path class="cls-2" d="M44,387.54a1,1,0,1,1,.68.68A1,1,0,0,1,44,387.54Zm.15,1.87h1.61v6.16H44.18Z"/><path class="cls-2" d="M47.52,389.41h1.32l.12.81h0a2.87,2.87,0,0,1,2-1c1.33,0,1.9.92,1.9,2.47v3.84H51.29v-3.64c0-.95-.27-1.29-.87-1.29a1.75,1.75,0,0,0-1.29.7v4.23H47.52Z"/><path class="cls-2" d="M54.17,396.66a1.49,1.49,0,0,1,.88-1.28v-.05a1.16,1.16,0,0,1-.56-1,1.53,1.53,0,0,1,.68-1.15h0a2,2,0,0,1-.81-1.61,2.26,2.26,0,0,1,2.28-2.24h.2a2.92,2.92,0,0,1,.93.15H60v1.19H58.93a1.49,1.49,0,0,1,.29.93,2.11,2.11,0,0,1-2.09,2.11l-.29,0a2.35,2.35,0,0,1-.79-.14.61.61,0,0,0-.26.53c0,.33.24.5,1,.5h1c1.48,0,2.29.47,2.29,1.55,0,1.24-1.29,2.19-3.35,2.19C55.29,398.25,54.17,397.75,54.17,396.66Zm4.38-.33c0-.44-.37-.55-1-.55h-.74a3.11,3.11,0,0,1-.86-.09.92.92,0,0,0-.41.72c0,.51.57.81,1.47.81s1.54-.41,1.54-.89Zm-.75-4.84a1,1,0,1,0-1.14,1.12h.14a1,1,0,0,0,1-1.13Z"/><path class="cls-2" d="M63.77,387.43H66c2.49,0,4,1.29,4,4s-1.54,4.1-3.94,4.1H63.77Zm2.14,6.83c1.51,0,2.46-.81,2.46-2.79s-1-2.74-2.46-2.74H65.4v5.53Z"/><path class="cls-2" d="M71.19,393.9c0-1.32,1.06-2,3.54-2.28a1,1,0,0,0-.93-1.07h-.07a3.5,3.5,0,0,0-1.69.59l-.58-1.07a4.79,4.79,0,0,1,2.57-.81c1.56,0,2.36.93,2.36,2.71v3.6H75l-.12-.66h0a2.89,2.89,0,0,1-1.86.82,1.75,1.75,0,0,1-1.83-1.67Zm3.54,0v-1.25c-1.5.2-2,.61-2,1.16s.34.69.81.69a1.65,1.65,0,0,0,1.19-.64Z"/><path class="cls-2" d="M78,393.42v-2.73h-.87v-1.2l.94-.08.19-1.65h1.35v1.65h1.52v1.28h-1.5v2.73c0,.7.29,1,.84,1a2.15,2.15,0,0,0,.61-.13l.26,1.17a4.15,4.15,0,0,1-1.3.24C78.58,395.73,78,394.8,78,393.42Z"/><path class="cls-2" d="M81.81,392.5a3,3,0,0,1,2.75-3.23h.12c1.7,0,2.58,1.24,2.58,2.95a3,3,0,0,1-.08.73h-3.8a1.62,1.62,0,0,0,1.71,1.54,2.45,2.45,0,0,0,1.39-.43l.55,1a3.9,3.9,0,0,1-2.16.69,3,3,0,0,1-3.07-2.93C81.8,392.71,81.8,392.6,81.81,392.5Zm4.06-.62c0-.84-.37-1.37-1.17-1.37a1.39,1.39,0,0,0-1.34,1.37Z"/><path class="cls-2" d="M91.32,393.42v-2.73h-.87v-1.2l.94-.08.19-1.65h1.35v1.65h1.52v1.28H92.93v2.73c0,.7.29,1,.84,1a1.74,1.74,0,0,0,.6-.13l.27,1.17a4.15,4.15,0,0,1-1.3.24C91.88,395.73,91.32,394.8,91.32,393.42Z"/><path class="cls-2" d="M95.11,392.5a3,3,0,1,1,0,.24A1.93,1.93,0,0,1,95.11,392.5Zm4.27,0c0-1.16-.47-1.92-1.31-1.92s-1.31.76-1.31,1.92.47,1.91,1.31,1.91S99.38,393.66,99.38,392.5Z"/><path class="cls-2" d="M105,387.43h5v1.35h-3.36v1.89h2.86V392h-2.86v2.18h3.48v1.36H105Z"/><path class="cls-2" d="M112.37,392.36l-1.81-2.95h1.74l.62,1.1c.18.34.36.69.55,1h0l.45-1,.52-1.1h1.67l-1.8,3.14,1.92,3H114.5l-.69-1.12c-.19-.36-.39-.74-.59-1.09h0c-.18.35-.35.72-.52,1.09l-.57,1.12H110.4Z"/><path class="cls-2" d="M117.32,386.79h1.6V389l-.06,1.16a2.79,2.79,0,0,1,1.93-.9c1.34,0,1.91.92,1.91,2.47v3.84h-1.62v-3.64c0-.95-.26-1.29-.87-1.29a1.79,1.79,0,0,0-1.29.7v4.23h-1.6Z"/><path class="cls-2" d="M124.21,387.54a1,1,0,1,1,.68.68A1,1,0,0,1,124.21,387.54Zm.15,1.87H126v6.16h-1.6Z"/><path class="cls-2" d="M129.14,394.92h0l-.14.65h-1.3v-8.78h1.61V390a2.63,2.63,0,0,1,1.7-.73c1.52,0,2.43,1.24,2.43,3.12,0,2.12-1.26,3.35-2.62,3.35A2.42,2.42,0,0,1,129.14,394.92Zm2.61-2.51c0-1.17-.37-1.82-1.22-1.82a1.75,1.75,0,0,0-1.22.64v2.7a1.66,1.66,0,0,0,1.12.46C131.18,394.39,131.75,393.76,131.75,392.41Z"/><path class="cls-2" d="M134.63,387.54a1,1,0,0,1,.87-1.11,1,1,0,1,1,.24,2h-.11a.89.89,0,0,1-1-.79A.28.28,0,0,1,134.63,387.54Zm.16,1.87h1.6v6.16h-1.6Z"/><path class="cls-2" d="M138.36,393.42v-2.73h-.87v-1.2l.95-.08.19-1.65H140v1.65h1.52v1.28H140v2.73c0,.7.28,1,.84,1a2,2,0,0,0,.6-.13l.26,1.17a4,4,0,0,1-1.29.24C138.92,395.73,138.36,394.8,138.36,393.42Z"/><path class="cls-2" d="M7.47,410.14H4.83l-.57,2.09H2.61l2.61-8.15H7.13l2.62,8.15H8.05Zm-.35-1.27L6.88,408c-.25-.85-.47-1.78-.71-2.66h0c-.21.89-.45,1.81-.69,2.66l-.24.89Z"/><path class="cls-2" d="M10.58,406.06H11.9l.11.64h0a2.9,2.9,0,0,1,1.82-.79c1.51,0,2.42,1.24,2.42,3.14,0,2.11-1.27,3.33-2.62,3.33a2.27,2.27,0,0,1-1.53-.67v2.87H10.5Zm4,3c0-1.18-.37-1.83-1.22-1.83a1.75,1.75,0,0,0-1.22.64v2.71a1.73,1.73,0,0,0,1.12.46c.79,0,1.36-.63,1.36-2Z"/><path class="cls-2" d="M17.66,406.06H19l.11.64h0a2.9,2.9,0,0,1,1.82-.79c1.52,0,2.42,1.24,2.42,3.14,0,2.11-1.27,3.33-2.62,3.33a2.27,2.27,0,0,1-1.53-.67l.05,1v1.87H17.66Zm4.05,3c0-1.18-.38-1.83-1.22-1.83a1.72,1.72,0,0,0-1.22.64v2.71a1.71,1.71,0,0,0,1.12.46c.75,0,1.32-.63,1.32-2Z"/><path class="cls-2" d="M24.74,410.5v-7.05h1.61v7.13c0,.36.18.48.33.48h.22l.2,1.2a2.39,2.39,0,0,1-.84.14C25.14,412.38,24.74,411.64,24.74,410.5Z"/><path class="cls-2" d="M28.05,404.19a1,1,0,0,1,.87-1.11,1,1,0,1,1,.24,2h-.11a.89.89,0,0,1-1-.77A.41.41,0,0,1,28.05,404.19Zm.16,1.87h1.6v6.17h-1.6Z"/><path class="cls-2" d="M31.17,409.16a3.07,3.07,0,0,1,2.88-3.25h.26a2.72,2.72,0,0,1,1.8.68l-.77,1.05a1.41,1.41,0,0,0-1-.41c-.93,0-1.57.76-1.57,1.93s.64,1.9,1.53,1.9a1.91,1.91,0,0,0,1.2-.5l.63,1.07a3,3,0,0,1-2,.75,2.94,2.94,0,0,1-3-2.91C31.16,409.37,31.16,409.26,31.17,409.16Z"/><path class="cls-2" d="M36.91,410.55c0-1.32,1.07-2,3.54-2.27a.94.94,0,0,0-1-1.07,3.46,3.46,0,0,0-1.7.58l-.58-1.07a5,5,0,0,1,2.57-.81c1.57,0,2.37.94,2.37,2.72v3.6H40.75l-.12-.66h0a2.88,2.88,0,0,1-1.85.81,1.75,1.75,0,0,1-1.87-1.62Zm3.54,0v-1.24c-1.49.19-2,.6-2,1.15s.34.69.81.69a1.62,1.62,0,0,0,1.19-.64Z"/><path class="cls-2" d="M43.74,410.07v-2.73h-.87v-1.2l1-.08.18-1.65h1.36v1.65h1.52v1.28H45.36v2.73c0,.7.28,1,.83,1a1.8,1.8,0,0,0,.61-.13l.26,1.18a3.87,3.87,0,0,1-1.3.23C44.3,412.38,43.74,411.46,43.74,410.07Z"/><path class="cls-2" d="M48,404.19a1,1,0,1,1,.68.68A1,1,0,0,1,48,404.19Zm.15,1.87h1.61v6.17H48.13Z"/><path class="cls-2" d="M51.09,409.16a3,3,0,1,1,0,.23A1.77,1.77,0,0,1,51.09,409.16Zm4.27,0c0-1.17-.48-1.93-1.31-1.93s-1.31.76-1.31,1.93.47,1.9,1.31,1.9S55.36,410.31,55.36,409.16Z"/><path class="cls-2" d="M58.36,406.06h1.32l.11.82h0a2.85,2.85,0,0,1,2-1c1.33,0,1.9.92,1.9,2.48v3.84H62.12v-3.65c0-.94-.26-1.28-.87-1.28A1.75,1.75,0,0,0,60,408v4.24H58.36Z"/><path class="cls-2" d="M67.28,411l1.12-.83a1.36,1.36,0,0,0,1.21.85c.72,0,1.09-.38,1.09-1.51v-5.38h1.63v5.52c0,1.52-.77,2.78-2.52,2.78A2.69,2.69,0,0,1,67.28,411Z"/><path class="cls-2" d="M74.09,409.92v-3.86h1.62v3.65c0,1,.26,1.28.85,1.28a1.49,1.49,0,0,0,1.26-.77v-4.16h1.62v6.17H78.12l-.13-.88h0a2.49,2.49,0,0,1-2,1C74.66,412.38,74.09,411.46,74.09,409.92Z"/><path class="cls-2" d="M81.16,406.06h1.32l.11.82h0a2.78,2.78,0,0,1,2-1c1.33,0,1.9.92,1.9,2.48v3.84H84.92v-3.65c0-.94-.26-1.28-.86-1.28a1.74,1.74,0,0,0-1.29.69v4.24H81.16Z"/><path class="cls-2" d="M87.83,409.16a3,3,0,0,1,2.74-3.24h.13c1.69,0,2.57,1.24,2.57,2.95a3.64,3.64,0,0,1-.07.74H89.4a1.62,1.62,0,0,0,1.7,1.54h0a2.61,2.61,0,0,0,1.38-.43l.55,1a3.83,3.83,0,0,1-2.15.68,3,3,0,0,1-3.07-2.93C87.82,409.36,87.82,409.26,87.83,409.16Zm4.06-.63c0-.84-.38-1.36-1.17-1.36a1.38,1.38,0,0,0-1.34,1.36Z"/><path class="cls-2" d="M96.7,411.29c2.22-2,3.53-3.51,3.53-4.76a1.17,1.17,0,0,0-1-1.31H99a2.08,2.08,0,0,0-1.49.83l-.88-.88a3.32,3.32,0,0,1,2.58-1.23,2.39,2.39,0,0,1,2.57,2.2c0,.1,0,.21,0,.31,0,1.47-1.22,3.06-2.71,4.51.41,0,1-.09,1.32-.09h1.77v1.37H96.7Z"/><path class="cls-2" d="M103,411.27l.74-1a2.52,2.52,0,0,0,1.8.83,1.37,1.37,0,0,0,1.44-1.29.74.74,0,0,0,0-.21,1.32,1.32,0,0,0-1.16-1.46h-.22a2,2,0,0,0-1.22.43l-.73-.49.22-3.95h4.35v1.36h-3l-.15,1.73a2,2,0,0,1,1-.24,2.38,2.38,0,0,1,2.52,2.21c0,.13,0,.26,0,.38a2.76,2.76,0,0,1-2.66,2.86h-.19A3.7,3.7,0,0,1,103,411.27Z"/><path class="cls-2" d="M110,411.32a1,1,0,1,1,0,.06Z"/><path class="cls-2" d="M113.24,411.29c2.21-2,3.52-3.51,3.52-4.76a1.16,1.16,0,0,0-1-1.31h-.23a2.1,2.1,0,0,0-1.5.83l-.88-.88a3.29,3.29,0,0,1,2.59-1.23,2.39,2.39,0,0,1,2.56,2.21c0,.1,0,.2,0,.3,0,1.47-1.22,3.06-2.71,4.51.41,0,1-.09,1.32-.09h1.77v1.37h-5.45Z"/><path class="cls-2" d="M119.73,408.12c0-2.81,1.1-4.19,2.76-4.19s2.75,1.39,2.75,4.19-1.1,4.26-2.75,4.26S119.73,410.93,119.73,408.12Zm4,0c0-2.28-.53-2.94-1.22-2.94s-1.23.66-1.23,2.94.52,3,1.23,3,1.2-.71,1.2-3Z"/><path class="cls-2" d="M126.19,411.29c2.22-2,3.53-3.51,3.53-4.76a1.17,1.17,0,0,0-1-1.31h-.22A2.07,2.07,0,0,0,127,406l-.88-.88a3.32,3.32,0,0,1,2.58-1.23,2.39,2.39,0,0,1,2.57,2.2c0,.1,0,.21,0,.31,0,1.47-1.22,3.06-2.71,4.51.41,0,.95-.09,1.32-.09h1.77v1.37h-5.46Z"/><path class="cls-2" d="M133.1,410.92h1.75v-5.15h-1.47v-1a5.31,5.31,0,0,0,1.89-.69h1.2v6.84H138v1.31h-4.9Z"/><path class="cls-2" d="M139.61,408.75a10.53,10.53,0,0,1,1.64-5.69l1,.43a10.94,10.94,0,0,0,0,10.53l-1,.43A10.56,10.56,0,0,1,139.61,408.75Z"/><path class="cls-2" d="M143.84,404.08h5v1.36h-3.39v2.12h2.89v1.36h-2.89v3.31h-1.63Z"/><path class="cls-2" d="M149.89,406.06h1.32l.11,1.09h0a2.14,2.14,0,0,1,1.75-1.24,2,2,0,0,1,.73.13l-.29,1.4a2,2,0,0,0-.64-.1c-.48,0-1.06.32-1.41,1.21v3.68h-1.61Z"/><path class="cls-2" d="M154.53,404.19a1,1,0,0,1,.87-1.11,1,1,0,1,1,.24,2h-.11a.89.89,0,0,1-1-.77A.41.41,0,0,1,154.53,404.19Zm.15,1.87h1.61v6.17h-1.61Z"/><path class="cls-2" d="M157.73,414a11,11,0,0,0,0-10.53l1-.43a10.65,10.65,0,0,1,0,11.39Z"/><path class="cls-1" d="M363.51,340.41V330H360v-2h9.35v2h-3.48v10.38Z"/><path class="cls-1" d="M364.45,395.3c-1.87-.68-2.72-1.55-2.72-3.24,0-1.85,1.52-3.38,4-3.38,2.09,0,3.48.75,4.14,2.37l-1.67,1.19a2.41,2.41,0,0,0-2.4-1.68c-1.28,0-1.94.62-1.94,1.39s.44,1.07,1.51,1.42l1.84.6c1.88.64,3,1.68,3,3.51,0,2.33-1.58,3.7-4.39,3.7a4.51,4.51,0,0,1-4.63-3.1l1.71-1.15a3.24,3.24,0,0,0,2.92,2.31c1.34,0,2.08-.61,2.08-1.53s-.52-1.36-1.78-1.82Z"/></svg>