<?xml version="1.0" encoding="UTF-8"?><svg id="_レイヤー_2" xmlns="http://www.w3.org/2000/svg" width="253" height="117" viewBox="0 0 253 117"><g id="_レイヤー_3"><g><g><path d="m34.12,56.473c-.743.504-1.471.924-2.312,1.288-.154-.42-.448-.896-.7-1.148,2.423-.952,4.622-2.647,5.701-4.398h1.358c.994,1.611,3.53,3.46,5.953,4.328-.266.364-.574.953-.672,1.275-.827-.351-1.485-.729-2.466-1.359v1.106c-.294-.042-.63-.056-1.19-.056h-4.538c-.379,0-.883.028-1.135.056v-1.092Zm-.799,3.6c-.742,0-1.204.028-1.597.084v-1.358c.378.056.938.084,1.597.084h8.503c.687,0,1.219-.028,1.583-.084v1.358c-.406-.056-.854-.084-1.583-.084h-4.805c-.42,1.009-.995,2.073-1.555,2.913l1.639-.126c1.471-.111,1.793-.14,3.124-.308-.519-.574-.896-.98-1.485-1.555l1.051-.574c1.541,1.555,2.479,2.619,3.222,3.642l-1.093.756c-.392-.602-.603-.91-.868-1.26-1.934.266-3.586.434-6.934.714-1.022.07-1.64.141-1.989.21l-.183-1.415c.295.028.561.043.743.043.084,0,.168,0,1.303-.057.602-.896,1.246-2.115,1.582-2.983h-2.255Zm6.458-3.74c.434,0,.686-.014.966-.028-1.372-.924-2.465-1.933-3.222-2.983-.687.995-1.751,1.989-3.151,2.983.28.028.448.028.896.028h4.511Z" fill="#231815"/><path d="m54.039,60.366c-.561.547-1.079.938-1.737,1.303-.126-.224-.224-.336-.49-.645-.294.141-.364.183-.784.364l-.98.435c-.168.07-.351.154-.532.224-.309.126-.574.238-.812.337l-.252-1.359c.518-.098.63-.126,1.61-.462v-3.866h-.477c-.434,0-.784.028-1.106.07v-1.247c.267.042.7.07,1.121.07h.462v-1.779c-.014-.714-.028-1.162-.084-1.526h1.345c-.056.406-.07.756-.07,1.526v1.779h.28c.42,0,.826-.014,1.037-.056v1.218c-.364-.042-.589-.056-1.037-.056h-.28v3.39c.393-.168.574-.252.98-.448l-.014.841c.896-.574,1.499-1.148,1.905-1.835h-.532c-.574,0-1.022.028-1.247.07v-1.163c.238.042.658.07,1.261.07h5.953c.616,0,1.148-.028,1.401-.084v1.162c-.28-.027-.729-.056-1.401-.056h-4.188c-.153.28-.266.435-.504.756h4.454c.645,0,.967-.014,1.345-.056-.027.238-.042.267-.069.826-.112,1.877-.322,3.222-.617,3.754-.266.519-.672.673-1.681.673-.378,0-.784-.014-1.204-.042-.042-.435-.183-.841-.393-1.219.687.098,1.19.14,1.625.14.378,0,.588-.084.658-.252.196-.392.364-1.526.435-2.857h-.673c-.336.771-.812,1.541-1.316,2.129-.952,1.037-1.835,1.724-2.899,2.298-.294-.421-.435-.574-.841-.883,1.863-.854,3.151-2.031,3.88-3.544h-1.036c-.771,1.247-2.115,2.367-3.796,3.18-.168-.294-.421-.603-.757-.882,1.401-.547,2.647-1.415,3.292-2.298h-1.232Zm.392-3.46c-.658,0-1.008.015-1.246.057.027-.309.042-.729.056-1.289v-1.919c-.014-.645-.014-.854-.056-1.219.378.056.7.07,1.358.07h3.853c.714,0,1.092-.028,1.456-.07-.042.336-.056.687-.056,1.316v1.821c0,.561.014,1.022.056,1.274-.182-.027-.729-.042-1.246-.042h-4.175Zm-.014-2.577h4.188v-.742h-4.188v.742Zm0,1.653h4.188v-.757h-4.188v.757Z" fill="#231815"/></g><g><path d="m86.057,44.255c0-.614-.03-1.02-.09-1.425h1.515c-.061.375-.09.69-.09,1.396v2.31c.585,0,.765-.015,1.05-.06v1.364c-.271-.045-.555-.06-1.05-.06v6.765c0,.705.029,1.32.09,1.755h-1.515c.06-.39.09-1.005.09-1.74v-6.779h-.12c-.63,0-.945.015-1.29.06v-1.38c.33.061.645.075,1.29.075h.12v-2.28Zm10.77-.06c.495,0,.915-.03,1.2-.075v1.23c-.301-.045-.78-.061-1.471-.061h-2.88v.855h2.476c.585,0,.854-.016,1.229-.045-.03.239-.045.54-.045,1.02v2.685c0,.495.015.766.045,1.08-.33-.045-.495-.045-1.185-.045h-.15v.915h.765c.66,0,.96-.015,1.32-.075v1.275c-.314-.06-.675-.075-1.32-.075h-.765v2.085c0,.54-.149.9-.465,1.08-.285.15-.57.195-1.29.195-.39,0-.81-.016-1.29-.045-.045-.436-.18-.855-.42-1.29.63.074,1.14.12,1.65.12.435,0,.524-.061.524-.346v-1.8h-5.069c-.63,0-1.005.03-1.41.09v-1.29c.24.045.825.075,1.439.075h5.04v-.915h-4.529c-.676,0-.855.016-1.155.045.015-.404.03-.63.03-1.095v-2.685c0-.585,0-.69-.03-1.005.315.029.6.045,1.155.045h2.22v-.855h-2.505c-.63,0-1.17.03-1.485.061v-1.245c.375.06.855.09,1.516.09h2.475v-.195c0-.404-.03-.854-.09-1.17h1.409c-.06.285-.09.735-.09,1.17v.195h2.101c-.405-.285-.735-.479-1.41-.795l.75-.72c.705.33,1.109.555,1.649.944l-.569.57h.63Zm-5.145,11.489c-.66-.824-1.2-1.35-2.011-1.994l.931-.766c.915.705,1.409,1.141,2.069,1.845l-.989.915Zm-1.335-8.549v.84h2.1v-.84h-2.1Zm0,1.8v.915h2.1v-.915h-2.1Zm3.329-.96h2.4v-.84h-2.4v.84Zm0,1.875h2.4v-.915h-2.4v.915Z" fill="#231815"/><path d="m104.724,46.04c.6.36,1.215.78,1.74,1.186,1.185-.87,1.845-1.471,2.564-2.295h-3.675c-1.095,1.08-2.64,2.1-4.14,2.76-.18-.345-.465-.72-.81-1.021,2.234-.869,4.515-2.609,5.324-4.064l1.515.285c-.465.54-.734.854-.84.975h2.655c.57,0,1.064-.03,1.335-.075l.66.705c-.09.105-.165.181-.181.21l-.33.391c-2.505,2.939-5.729,5.01-9.464,6.074-.12-.375-.42-.87-.705-1.185,1.845-.436,3.614-1.155,5.055-2.07-.375-.345-1.05-.825-1.665-1.185l.96-.69Zm2.85,4.29c-1.335,1.14-2.88,1.979-5.024,2.745-.24-.525-.42-.795-.735-1.11,2.79-.779,5.43-2.444,6.48-4.125l1.319.436c-.404.479-.479.555-.885.99h2.34c.51,0,1.065-.03,1.32-.075l.734.75c-.18.225-.239.3-.404.54-2.311,3.21-5.61,5.084-10.665,6.044-.225-.585-.33-.765-.735-1.274,2.266-.225,4.53-.9,6.195-1.86-.48-.479-1.065-.899-1.785-1.305l1.08-.675c.72.465,1.155.78,1.8,1.305,1.005-.72,1.785-1.425,2.58-2.385h-3.615Z" fill="#231815"/><path d="m115.914,45.155c0-.645-.029-1.274-.09-1.785.45.061,1.005.075,1.725.075h9.075c.689,0,1.29-.03,1.74-.075-.046.45-.075,1.096-.075,1.785v9.255c.015,1.26.015,1.515.075,1.935h-1.41v-.854h-9.72v.854h-1.41c.061-.33.09-.99.09-1.935v-9.255Zm1.32,9.149h9.72v-9.675h-9.72v9.675Zm2.325-7.409c-.57,0-1.021.029-1.335.075v-1.275c.404.06.659.075,1.335.075h5.084c.676,0,1.051-.016,1.396-.075v1.275c-.345-.061-.72-.075-1.396-.075h-2.024v1.83h1.635c.63,0,.99-.016,1.29-.075v1.245c-.315-.061-.69-.075-1.29-.075h-1.635v2.205h2.205c.6,0,1.08-.03,1.41-.091v1.306c-.346-.045-.855-.075-1.41-.075h-5.445c-.614,0-1.02.03-1.395.075v-1.306c.314.061.81.091,1.395.091h1.965v-2.205h-1.395c-.6,0-.975.03-1.29.075v-1.245c.3.06.675.075,1.29.075h1.395v-1.83h-1.784Zm4.8,2.955c.435.449.84,1.005,1.17,1.619l-.915.54c-.405-.765-.721-1.245-1.125-1.694l.87-.465Z" fill="#231815"/><path d="m136.769,46.596c.39.3.42.329.914.795.21-.226.315-.36.525-.646-.33-.314-.6-.524-.99-.78l.646-.765c.3.21.6.436.899.705.21-.36.346-.675.556-1.215h-1.605c-.569.96-1.425,2.024-2.145,2.625-.135-.21-.51-.63-.675-.766-.24.57-.33.796-.601,1.41.87,1.065,1.215,1.905,1.215,3.016,0,1.484-.569,2.145-1.83,2.145-.104,0-.18,0-.39-.015,0-.721-.03-.9-.21-1.261.315.061.465.075.646.075.42,0,.63-.314.63-.96,0-.405-.09-.885-.226-1.305-.225-.615-.45-.975-1.064-1.635.555-1.08.96-2.205,1.26-3.51h-1.5v10.094c0,.721.03,1.471.06,1.726h-1.38c.045-.315.091-1.095.091-1.74v-9.975c0-.63-.016-1.035-.061-1.335.195.03.675.061,1.005.061h1.726c.42,0,.779-.016.975-.061l.615.72c-.091.181-.15.315-.21.495-.15.45-.48,1.38-.66,1.83,1.14-1.005,2.175-2.595,2.354-3.63l1.29.226c-.135.239-.255.465-.36.704h.886c.645,0,.989-.015,1.229-.029.061.645.75,2.04,1.38,2.805.45-.45.84-.945,1.275-1.665h-1.41c-.165,0-.375.015-.63.045v-1.215c.24.03.555.045.87.045h1.02c.66,0,.9-.015,1.035-.06l.615.84c-.195.27-.24.33-.495.75-.555.885-.96,1.425-1.561,2.055.75.75,1.485,1.274,2.505,1.755-.329.435-.524.795-.689,1.26-.75-.45-1.29-.854-1.95-1.455v.931c-.21-.03-.465-.045-.944-.045h-2.67c-.315,0-.615.015-.886.045v-.87c-.659.66-1.109,1.035-1.739,1.47-.15-.36-.375-.705-.675-1.005.6-.39.944-.66,1.529-1.186-.255-.27-.435-.435-.915-.795l.721-.704Zm1.335,6.225c-.75,1.335-1.381,2.114-2.565,3.119-.255-.375-.555-.689-.899-.96,1.154-.779,1.725-1.439,2.354-2.685l1.11.525Zm-.75-.99c-.721.015-1.2.03-1.32.075v-1.305c.165.045.854.074,1.365.074h5.52c.63,0,1.17-.029,1.395-.074v1.305c-.255-.03-.87-.075-1.395-.075h-2.28v3.104c0,.976-.33,1.245-1.515,1.245-.435,0-.78-.015-1.395-.045-.016-.42-.15-.99-.301-1.319.795.119,1.17.164,1.545.164.346,0,.42-.074.42-.359v-2.79h-2.039Zm4.064-3.3c.375,0,.45,0,.675-.015-.84-.795-1.53-1.801-2.055-2.955-.36.989-.975,1.935-1.905,2.955.21.015.315.015.66.015h2.625Zm1.2,3.765c.555,1.05,1.274,1.86,2.25,2.521-.33.374-.495.585-.766,1.079-1.26-1.079-1.725-1.649-2.55-3.09l1.065-.51Z" fill="#231815"/><path d="m159.303,52.295c-1.41,1.2-1.561,1.32-1.995,1.605.99.6,2.04.975,3.42,1.215-.36.39-.601.779-.795,1.26-1.905-.525-3.3-1.26-4.515-2.355v1.155c-1.065.285-2.311.54-5.205,1.08-.24.03-.285.045-.555.105l-.255-1.41q.194.015.21.015c.329,0,.885-.06,1.649-.165v-3.149h-1.725c-.285,2.085-.735,3.479-1.545,4.784-.42-.51-.75-.824-1.11-1.08.585-.899.915-1.725,1.17-2.939.315-1.5.48-3.854.48-6.81,0-1.186-.016-1.62-.075-2.28.42.045,1.02.075,1.859.075h7.86c.779,0,1.26-.015,1.635-.06-.03.3-.045.704-.045,1.229v1.095c0,.525.015.96.045,1.215-.51-.029-.855-.045-1.56-.045h-1.006v1.17h1.021c.81,0,1.08-.015,1.41-.06v1.245c-.33-.045-.915-.061-1.44-.061h-.99v1.396h1.455c.75,0,1.275-.03,1.636-.075v1.274c-.421-.045-1.021-.074-1.605-.074h-.479l1.05.645Zm-7.08-5.399v-.061h-2.415c-.015,1.605-.06,2.625-.149,3.69h2.564v-1.396h-.705c-.585,0-.885.016-1.274.061v-1.245c.314.045.645.06,1.29.06h.689v-1.109Zm6.27-1.125v-1.245h-8.669v1.245h8.669Zm-5.939,5.88v2.939c.405-.06.75-.12,1.185-.21.375-.075.931-.195,1.665-.36-.765-.72-1.29-1.454-1.665-2.369h-1.185Zm3.435-3.646v-1.17h-2.505v1.17h2.505Zm0,2.521v-1.396h-2.505v1.396h2.505Zm-.915,1.125c.255.585.63,1.034,1.275,1.59.675-.465,1.32-1.065,1.74-1.59h-3.016Z" fill="#231815"/><path d="m167.081,49.91c-.645,1.935-1.77,3.854-3.06,5.189-.495-.495-.75-.689-1.215-.93,1.29-1.11,2.444-3,2.91-4.74l1.364.48Zm-2.34-1.53c-.705,0-1.229.03-1.665.09v-1.484c.436.06.931.09,1.695.09h9.404c.66,0,1.29-.03,1.68-.09v1.484c-.479-.06-.854-.09-1.664-.09h-3.885v6.195c0,.66-.091.96-.36,1.185-.285.226-.66.3-1.635.3-.585,0-1.245-.029-1.771-.074-.06-.57-.135-.931-.345-1.381.75.12,1.38.181,1.935.181.676,0,.75-.045.75-.375v-6.03h-4.14Zm9.66-3.27c-.375-.045-1.08-.09-1.681-.09h-6.629c-.48,0-1.275.045-1.665.09v-1.485c.42.061.975.091,1.68.091h6.63c.675,0,1.29-.03,1.665-.091v1.485Zm-1.2,4.305c.72,1.771,1.845,3.45,3.09,4.59-.345.255-.78.646-1.125,1.05-1.44-1.604-2.28-2.97-3.195-5.145l1.23-.495Z" fill="#231815"/><path d="m184.508,51.68c-.601.585-1.155,1.005-1.86,1.396-.135-.24-.24-.36-.524-.69-.315.15-.391.195-.84.391l-1.051.465c-.18.075-.375.165-.569.24-.33.135-.615.255-.87.359l-.271-1.455c.556-.104.676-.135,1.726-.495v-4.14h-.51c-.466,0-.841.03-1.186.075v-1.335c.285.045.75.075,1.2.075h.495v-1.905c-.016-.765-.03-1.245-.09-1.635h1.439c-.06.435-.075.81-.075,1.635v1.905h.3c.45,0,.886-.016,1.11-.061v1.306c-.39-.045-.63-.061-1.11-.061h-.3v3.63c.42-.18.615-.27,1.05-.479l-.015.899c.96-.614,1.605-1.229,2.04-1.965h-.57c-.614,0-1.095.03-1.335.075v-1.245c.255.045.705.075,1.351.075h6.374c.66,0,1.23-.03,1.5-.09v1.245c-.3-.03-.779-.061-1.5-.061h-4.484c-.165.3-.285.465-.54.811h4.77c.69,0,1.035-.016,1.44-.061-.03.255-.045.285-.075.885-.12,2.011-.345,3.45-.66,4.021-.285.555-.72.72-1.8.72-.405,0-.84-.015-1.29-.045-.045-.465-.195-.9-.42-1.305.735.104,1.275.149,1.74.149.404,0,.63-.09.705-.27.21-.42.39-1.635.465-3.061h-.72c-.36.825-.87,1.65-1.41,2.28-1.021,1.11-1.965,1.845-3.105,2.46-.314-.45-.465-.615-.899-.945,1.995-.915,3.375-2.175,4.154-3.795h-1.109c-.825,1.335-2.266,2.535-4.065,3.405-.18-.315-.449-.645-.81-.945,1.5-.585,2.835-1.515,3.524-2.46h-1.319Zm.42-3.704c-.705,0-1.08.015-1.335.06.03-.33.045-.78.06-1.38v-2.055c-.015-.69-.015-.915-.06-1.305.405.06.75.074,1.455.074h4.125c.765,0,1.17-.029,1.56-.074-.045.359-.061.734-.061,1.409v1.95c0,.6.016,1.095.061,1.365-.195-.03-.78-.045-1.335-.045h-4.47Zm-.016-2.76h4.485v-.796h-4.485v.796Zm0,1.77h4.485v-.811h-4.485v.811Z" fill="#231815"/><path d="m203.455,55.295c-.33-.345-.676-.72-1.021-1.095-.899.84-2.13,1.274-3.734,1.274-2.205,0-3.57-1.29-3.57-3.045,0-1.515.75-2.399,2.445-3.539-.78-.915-1.215-1.62-1.215-2.551,0-1.664,1.274-2.579,2.715-2.579,1.56,0,2.58.899,2.58,2.22,0,1.425-.78,2.16-2.056,3,.811.885,1.8,1.89,2.73,2.909.314-.81.465-1.92.465-3.329h1.455c0,1.829-.285,3.3-.9,4.425.705.75,1.396,1.529,2.1,2.31h-1.994Zm-5.101-5.535c-1.124.825-1.604,1.44-1.604,2.415,0,1.26.945,1.995,2.31,1.995.915,0,1.785-.255,2.46-.975-1.109-1.186-2.324-2.521-3.165-3.436Zm1.815-3.614c0-.615-.36-1.141-1.155-1.141-.734,0-1.109.556-1.109,1.23,0,.495.074.9.93,1.859.63-.479,1.335-1.02,1.335-1.949Z" fill="#231815"/><path d="m86.146,67.175v-1.319h3.975c.016-.436.03-.885.03-1.351v-1.725h1.515v1.695c0,.465-.015.93-.03,1.38h4.215l.78.734c-.075,2.61-.24,4.65-.495,6.226-.27,1.664-1.064,2.31-2.399,2.31-.63,0-1.29-.061-1.845-.15l-.165-1.5c.704.136,1.244.195,1.875.195.585,0,.914-.21,1.064-1.11.255-1.439.39-3.284.42-5.385h-3.555c-.45,4.005-2.145,6.48-5.16,8.205l-.93-1.125c2.7-1.575,4.125-3.615,4.575-7.08h-3.87Z" fill="#231815"/><path d="m101.065,63.95c1.29.78,2.445,1.71,3.555,2.88l-1.14,1.2c-1.125-1.245-2.25-2.235-3.39-3.045l.975-1.035Zm-.705,9.479c4.65-1.05,7.98-3.555,9.585-7.8l1.365.811c-1.74,4.635-5.535,7.364-10.455,8.43l-.495-1.44Z" fill="#231815"/><path d="m125.225,65.165c-.824,5.22-3.795,8.445-8.204,10.08l-.84-1.335c4.05-1.47,6.63-4.32,7.319-8.175h-8.819v-1.41h9.675l.869.84Z" fill="#231815"/><path d="m139.207,66.681c-.66,1.604-1.755,2.939-3.135,3.84l-.855-.945c.99-.66,1.771-1.485,2.266-2.415h-8.28v-1.29h9.33l.675.811Zm-4.77,1.515v1.095c0,3.285-1.396,5.175-4.17,6.314l-.735-1.185c2.4-.96,3.45-2.354,3.45-5.189v-1.035h1.455Z" fill="#231815"/><path d="m145.17,63.71v9.405c2.625-.69,5.685-2.521,7.74-5.205l.944,1.215c-2.13,2.91-5.46,4.89-9.435,5.775l-.81-.915v-10.275h1.56Z" fill="#231815"/><path d="m156.603,63.95c1.29.78,2.445,1.71,3.555,2.88l-1.14,1.2c-1.125-1.245-2.25-2.235-3.39-3.045l.975-1.035Zm-.705,9.479c4.65-1.05,7.98-3.555,9.585-7.8l1.365.811c-1.74,4.635-5.535,7.364-10.455,8.43l-.495-1.44Z" fill="#231815"/><path d="m179.77,75.095c-1.185-1.62-2.654-3.225-4.095-4.455-1.62,1.86-3.6,3.255-5.864,4.335l-.961-1.199c4.021-1.755,6.976-4.875,8.295-8.43h-6.899v-1.41h7.89l.87,1.005c-.66,1.77-1.485,3.285-2.46,4.604,1.59,1.186,3.225,2.805,4.545,4.47l-1.32,1.08Z" fill="#231815"/><path d="m194.013,65.675l.765.87c-.705,1.846-1.875,3.51-3.27,4.605l-1.021-.915c1.065-.825,1.98-1.995,2.415-3.03l-5.58.885v4.186c0,.854.436,1.154,2.011,1.154,1.635,0,3.029-.12,4.454-.39l.136,1.485c-1.396.239-2.82.329-4.605.329-2.625,0-3.51-.765-3.51-2.22v-4.305l-3.255.525-.194-1.365,3.449-.54v-3.854h1.515v3.63l6.69-1.051Z" fill="#231815"/><path d="m198.687,63.95c1.29.78,2.445,1.71,3.555,2.88l-1.14,1.2c-1.125-1.245-2.25-2.235-3.39-3.045l.975-1.035Zm-.705,9.479c4.65-1.05,7.98-3.555,9.585-7.8l1.365.811c-1.74,4.635-5.535,7.364-10.455,8.43l-.495-1.44Z" fill="#231815"/><path d="m212.844,74.285c2.1-.795,3.81-1.875,5.16-3.255-.915-.9-1.92-1.68-2.851-2.265l.84-.976c.931.465,2.011,1.245,2.94,2.146.87-1.141,1.545-2.445,2.04-3.931h-4.845c-.976,1.365-2.101,2.535-3.24,3.36l-1.08-.9c1.935-1.425,3.66-3.689,4.604-5.97l1.485.465c-.27.601-.585,1.186-.915,1.756h4.8l.87.899c-1.604,5.325-4.455,8.145-8.85,9.96l-.96-1.29Z" fill="#231815"/><path d="m237.737,68.285v1.56h-11.984v-1.56h11.984Z" fill="#231815"/></g><g><path d="m53.894,100.996c-.868,0-1.261.014-1.583.07v-1.331c.351.056.91.084,1.569.084h8.012c.603,0,1.247-.028,1.583-.084v1.331c-.42-.057-.771-.07-1.568-.07h-3.418v2.605h2.801c.574,0,1.135-.028,1.415-.07v1.303c-.364-.056-.742-.07-1.387-.07h-2.829v3.152h3.922c.756,0,1.19-.028,1.681-.084v1.372c-.448-.069-.967-.098-1.652-.098h-8.938c-.7,0-1.274.028-1.723.098v-1.372c.393.056.938.084,1.681.084h3.698v-3.152h-2.563c-.658,0-1.148.028-1.484.07v-1.303c.322.056.672.07,1.4.07h2.647v-2.605h-3.264Zm2.521-3.979c1.246.448,2.017.799,3.432,1.569l-.826,1.036c-1.149-.729-2.479-1.358-3.517-1.667l.911-.938Z" fill="#231815"/><path d="m76.898,108.042h2.325c.589,0,.911-.015,1.19-.057v1.191c-.462-.057-.938-.084-1.456-.084h-5.632v.644h-1.246c.056-.35.084-.882.084-1.526v-3.698l.028-.49c-.238.406-.561.826-.98,1.261-.225-.49-.393-.742-.673-1.022v3.754c0,.742.014,1.247.07,1.695h-1.387c.056-.421.084-.938.084-1.653v-3.796c0-.561,0-.799.042-1.877-.477.841-.687,1.148-1.064,1.597-.042-.14-.084-.252-.099-.294,0-.014-.084-.21-.195-.477-.07-.196-.127-.322-.141-.35-.014-.042-.07-.141-.126-.238,1.261-1.317,2.396-3.727,2.647-5.575l1.274.42c-.098.225-.098.238-.224.645-.196.616-.561,1.541-.883,2.228v3.894c1.135-.966,2.073-2.297,2.577-3.642l1.191.322c-.183.364-.351.687-.589,1.064h2.115c.336-.435.673-1.036.771-1.387l1.204.252c-.195.351-.504.841-.728,1.135h1.975c.561,0,.938-.014,1.289-.07v1.177c-.351-.042-.715-.056-1.177-.056h-2.27v.966h1.695c.616,0,.896-.014,1.204-.056v1.121c-.364-.042-.729-.057-1.19-.057h-1.709v.967h1.695c.645,0,.882-.014,1.204-.056v1.12c-.336-.042-.729-.056-1.177-.056h-1.723v1.064Zm-1.625-9.777c0-.532-.027-.826-.084-1.064h1.317c-.057.266-.07.561-.07,1.064v1.135h2.297v-.687c0-.448-.014-.729-.042-.967h1.289c-.042.252-.07.603-.07,1.037v.826c0,.448.014.658.042.883-.462-.028-.645-.028-.994-.028h-6.065c-.477,0-.729.014-.967.028.028-.351.028-.519.028-.896v-.911c0-.364-.028-.7-.057-.938h1.247c-.028.309-.042.616-.042.98v.673h2.171v-1.135Zm.49,5.729v-.966h-2.438v.966h2.438Zm-2.438,1.976h2.438v-.967h-2.438v.967Zm0,2.073h2.438v-1.064h-2.438v1.064Z" fill="#231815"/></g><g><path d="m105.011,98.83c0-.569-.03-1.08-.075-1.515.435.045.945.075,1.604.075h6.915c.675,0,1.14-.016,1.56-.075-.06.51-.074.945-.074,1.439v9.465c0,.705.029,1.29.09,1.71h-1.485v-.915h-7.14v.915h-1.484c.06-.42.09-.99.09-1.694v-9.405Zm1.395,3.555h7.14v-3.704h-7.14v3.704Zm0,5.34h7.14v-4.064h-7.14v4.064Z" fill="#231815"/><path d="m118.414,102.896c.226.029.375.029.75.029h.466c.404-.524.51-.659.84-1.125-.601-.824-1.545-1.874-2.085-2.324l.675-1.021c.375.375.39.391.63.63.57-.915,1.14-2.159,1.215-2.595l1.26.51c-.135.226-.149.24-.54,1.021-.375.734-.75,1.35-1.14,1.92.21.255.45.524.69.825.885-1.365,1.229-1.995,1.439-2.596l1.125.646c-.075.104-.12.165-.21.3-.045.061-.27.42-.689,1.095-.69,1.035-1.381,2.01-1.905,2.67.585-.029,1.41-.104,1.905-.165-.136-.359-.24-.585-.525-1.215l.84-.42c.6,1.275.885,1.965,1.2,2.985l-.96.479c-.105-.435-.12-.54-.21-.81-.33.06-.585.09-1.141.149v4.71c0,.646.03,1.141.091,1.516h-1.396c.061-.391.09-.87.09-1.516v-4.604l-.645.06c-.075,0-.436.016-1.05.061-.24.015-.391.029-.556.075l-.165-1.29Zm1.801,2.085c-.061,1.529-.346,3.404-.615,4.334l-1.14-.479c.375-.975.614-2.43.659-4.064l1.096.21Zm3.284-.315c.195.54.375,1.545.585,3.12l-1.064.33c-.03-.976-.195-2.19-.45-3.165l.93-.285Zm6.225.21c.585,0,1.11-.03,1.396-.09v1.32c-.42-.046-.78-.061-1.396-.061h-1.484v2.31h2.01c.705,0,1.215-.029,1.53-.074v1.35c-.375-.06-.9-.09-1.545-.09h-4.98c-.6,0-1.185.03-1.545.09v-1.35c.33.045.825.074,1.396.074h1.89v-2.31h-1.125c-.57,0-1.005.015-1.425.061v-1.306c.285.045.735.075,1.425.075h1.125v-.39c0-.72-.03-1.17-.09-1.455h1.41c-.061.314-.075.72-.075,1.455v.39h1.484Zm1.471-6.915c-.21.315-.375.556-.495.735-.585.945-1.186,1.68-2.025,2.445,1.005.6,2.115,1.034,3.3,1.29-.3.465-.42.734-.6,1.319-1.365-.42-2.729-1.064-3.705-1.77-.915.66-1.755,1.109-2.97,1.604-.195-.51-.405-.899-.645-1.215,1.125-.375,1.8-.689,2.609-1.215-.84-.78-1.5-1.71-1.979-2.7-.36.016-.66.03-.9.075v-1.335c.255.045.825.075,1.545.075h3.96c.54,0,.945-.015,1.14-.061l.766.75Zm-5.19.495c.42.795.855,1.32,1.65,1.965.734-.63,1.245-1.215,1.71-1.965h-3.36Z" fill="#231815"/><path d="m138.409,97.766c2.16,0,3.375.899,3.375,2.67,0,1.335-.645,2.205-1.92,2.58,1.306.225,2.311,1.109,2.311,2.744,0,2.01-1.32,3.285-3.601,3.285h-3.734v-11.279h3.569Zm-.345,4.725c1.335,0,2.025-.645,2.025-1.725,0-1.096-.57-1.605-1.92-1.605h-1.71v3.33h1.604Zm.18,5.16c1.455,0,2.19-.705,2.19-1.98s-.9-1.845-2.37-1.845h-1.604v3.825h1.784Z" fill="#231815"/><path d="m145.397,109.045v-11.279h3.525c2.31,0,3.689,1.199,3.689,3.359,0,2.235-1.335,3.87-4.035,3.87h-1.529v4.05h-1.65Zm3.165-5.49c1.395,0,2.265-.72,2.265-2.265,0-1.29-.705-2.069-2.175-2.069h-1.604v4.334h1.515Z" fill="#231815"/></g><g><path d="m14.278,11.473c-.743.504-1.471.924-2.312,1.288-.154-.42-.448-.896-.7-1.148,2.423-.952,4.622-2.647,5.701-4.398h1.358c.994,1.611,3.53,3.46,5.953,4.328-.266.364-.574.953-.672,1.275-.827-.351-1.485-.729-2.466-1.359v1.106c-.294-.042-.63-.056-1.19-.056h-4.538c-.379,0-.883.028-1.135.056v-1.092Zm-.799,3.6c-.742,0-1.204.028-1.597.084v-1.358c.378.056.938.084,1.597.084h8.503c.687,0,1.219-.028,1.583-.084v1.358c-.406-.056-.854-.084-1.583-.084h-4.805c-.42,1.009-.995,2.073-1.555,2.913l1.639-.126c1.471-.111,1.793-.14,3.124-.308-.519-.574-.896-.98-1.485-1.555l1.051-.574c1.541,1.555,2.479,2.619,3.222,3.642l-1.093.756c-.392-.602-.603-.91-.868-1.26-1.934.266-3.586.434-6.934.714-1.022.07-1.64.141-1.989.21l-.183-1.415c.295.028.561.043.743.043.084,0,.168,0,1.303-.057.602-.896,1.246-2.115,1.582-2.983h-2.255Zm6.458-3.74c.434,0,.686-.014.966-.028-1.372-.924-2.465-1.933-3.222-2.983-.687.995-1.751,1.989-3.151,2.983.28.028.448.028.896.028h4.511Z" fill="#231815"/><path d="m29.553,8.517c0-.532-.028-.896-.07-1.219h1.274c-.042.225-.07.742-.07,1.232v.238h2.199v-.252c0-.616-.014-.91-.069-1.219h1.274c-.042.309-.07.687-.07,1.232v.238c.378,0,.868-.042,1.009-.069v1.176c-.183-.042-.504-.056-.938-.056h-.07v5.519c.364,0,.757-.027.925-.069v1.177c-.225-.028-.589-.042-1.19-.042h-4.427c-.561,0-.826.014-1.093.056v-1.19c.21.056.561.069,1.064.069h.253v-5.519c-.575,0-.896.014-1.135.056v-1.176c.182.042.616.069,1.135.069v-.252Zm1.736,8.741c-.687,1.148-1.135,1.666-2.115,2.451-.266-.393-.49-.616-.882-.911.966-.658,1.555-1.288,2.017-2.129l.98.589Zm1.597-6.317v-1.121h-2.199v1.121h2.199Zm0,2.129v-1.135h-2.199v1.135h2.199Zm0,2.269v-1.274h-2.199v1.274h2.199Zm.112,1.345c.435.673.631.896,1.303,1.443-.351.266-.561.462-.868.84-.505-.462-.925-.994-1.331-1.681l.896-.603Zm3.586-1.316c-.168,1.976-.63,3.306-1.541,4.412-.294-.392-.588-.672-.98-.924.729-.827,1.051-1.527,1.247-2.76.182-1.162.266-3.348.266-6.653,0-.827-.014-1.275-.069-1.681.378.042.798.056,1.442.056h1.933c.729,0,1.009-.014,1.415-.056-.042.321-.056.742-.056,1.442v9.161c0,.994-.379,1.288-1.611,1.288-.308,0-.561-.014-1.078-.042-.07-.546-.112-.756-.309-1.288.393.069.967.14,1.232.14.309,0,.379-.014.435-.042.112-.056.141-.126.141-.252v-2.802h-2.466Zm.141-3.264c-.015.952-.043,1.681-.07,2.157h2.396v-2.157h-2.325Zm2.325-3.166h-2.312v2.06h2.312v-2.06Z" fill="#231815"/></g><g><path d="m74.312,25.055h-9.637v-2.246l4.426-5.627c.561-.778.975-1.461,1.24-2.049s.398-1.151.398-1.69c0-.727-.125-1.295-.376-1.707s-.612-.618-1.083-.618c-.518,0-.927.24-1.23.719-.303.479-.455,1.153-.455,2.021h-3.189c0-1.003.208-1.92.624-2.751.415-.831.999-1.477,1.752-1.938.752-.46,1.604-.69,2.555-.69,1.46,0,2.593.402,3.397,1.207s1.207,1.949,1.207,3.432c0,.92-.223,1.854-.668,2.802s-1.252,2.113-2.42,3.498l-2.101,2.999h5.56v2.639Z" fill="#231815"/><path d="m85.536,18.294c0,2.261-.41,3.99-1.23,5.188-.819,1.198-1.989,1.797-3.51,1.797-1.504,0-2.667-.582-3.486-1.746-.82-1.164-1.245-2.832-1.275-5.004v-3.088c0-2.254.408-3.978,1.225-5.172s1.988-1.791,3.516-1.791,2.698.592,3.515,1.774,1.231,2.871,1.247,5.065v2.976Zm-3.189-3.313c0-1.287-.128-2.253-.383-2.896-.254-.645-.65-.967-1.189-.967-1.012,0-1.535,1.18-1.572,3.538v4.077c0,1.317.129,2.298.387,2.941.259.645.661.967,1.207.967.518,0,.9-.302,1.151-.904s.384-1.525.399-2.769v-3.987Z" fill="#231815"/><path d="m97.312,25.055h-9.637v-2.246l4.426-5.627c.561-.778.975-1.461,1.24-2.049s.398-1.151.398-1.69c0-.727-.125-1.295-.376-1.707s-.612-.618-1.083-.618c-.518,0-.927.24-1.23.719-.303.479-.455,1.153-.455,2.021h-3.189c0-1.003.208-1.92.624-2.751.415-.831.999-1.477,1.752-1.938.752-.46,1.604-.69,2.555-.69,1.46,0,2.593.402,3.397,1.207s1.207,1.949,1.207,3.432c0,.92-.223,1.854-.668,2.802s-1.252,2.113-2.42,3.498l-2.101,2.999h5.56v2.639Z" fill="#231815"/><path d="m102.171,15.43h1.539c.584,0,1.013-.203,1.286-.611s.409-.953.409-1.635c0-.65-.14-1.158-.421-1.521-.28-.363-.657-.545-1.128-.545-.442,0-.804.173-1.084.518-.281.344-.422.778-.422,1.303h-3.178c0-.854.196-1.619.59-2.297.393-.678.943-1.207,1.65-1.59.708-.381,1.492-.572,2.354-.572,1.504,0,2.684.416,3.537,1.246.854.832,1.28,1.97,1.28,3.414,0,.742-.192,1.429-.578,2.062s-.894,1.117-1.522,1.454c.771.329,1.347.823,1.725,1.482s.566,1.438.566,2.336c0,1.452-.462,2.617-1.387,3.492-.925.877-2.139,1.314-3.645,1.314-1.399,0-2.536-.433-3.408-1.297-.872-.865-1.309-2.001-1.309-3.408h3.179c0,.584.153,1.074.46,1.471.308.396.697.596,1.168.596.547,0,.979-.203,1.298-.607s.478-.943.478-1.617c0-1.609-.626-2.418-1.876-2.426h-1.562v-2.561Z" fill="#231815"/><path d="m110.857,23.438c0-.509.17-.929.511-1.258s.784-.494,1.331-.494c.531,0,.974.163,1.325.488.352.326.527.747.527,1.264,0,.524-.178.945-.533,1.264s-.795.477-1.319.477c-.531,0-.972-.16-1.319-.482-.349-.322-.522-.741-.522-1.258Z" fill="#231815"/><path d="m116.927,14.235l1.195-12.285h11.704v4.018h-7.853l-.432,5.18c.907-.608,1.843-.913,2.806-.913,1.992,0,3.528.708,4.606,2.125,1.08,1.417,1.619,3.42,1.619,6.01,0,2.424-.642,4.377-1.926,5.86s-2.999,2.225-5.146,2.225c-1.272,0-2.451-.302-3.536-.904-1.085-.604-1.939-1.442-2.565-2.516-.625-1.073-.943-2.291-.954-3.652h4.648c.077,1.007.326,1.787.747,2.341s.963.83,1.627.83c.774,0,1.372-.374,1.793-1.12.421-.748.631-1.862.631-3.346,0-1.395-.252-2.446-.756-3.154-.503-.708-1.209-1.062-2.116-1.062-.886,0-1.571.305-2.059.913l-.299.415-3.735-.963Z" fill="#231815"/><path d="m132.707,23.438c0-.509.17-.929.511-1.258s.784-.494,1.331-.494c.531,0,.974.163,1.325.488.352.326.527.747.527,1.264,0,.524-.178.945-.533,1.264s-.795.477-1.319.477c-.531,0-.972-.16-1.319-.482-.349-.322-.522-.741-.522-1.258Z" fill="#231815"/><path d="m146.57,26.122h-4.715V7.661l-4.599,1.776v-3.918l8.815-3.603h.498v24.205Z" fill="#231815"/><path d="m161.033,26.122h-4.715V7.661l-4.599,1.776v-3.918l8.815-3.603h.498v24.205Z" fill="#231815"/></g><g><path d="m212.832,26.122h-4.715V7.661l-4.599,1.776v-3.918l8.815-3.603h.498v24.205Z" fill="#231815"/><path d="m231.937,26.122h-14.244v-3.32l6.541-8.317c.83-1.151,1.441-2.161,1.835-3.03.393-.868.589-1.701.589-2.498,0-1.073-.186-1.915-.556-2.523-.371-.608-.905-.913-1.603-.913-.764,0-1.37.354-1.817,1.062-.449.708-.673,1.704-.673,2.988h-4.715c0-1.483.308-2.839.921-4.067.615-1.229,1.479-2.184,2.59-2.863,1.113-.682,2.372-1.021,3.777-1.021,2.158,0,3.832.595,5.021,1.785,1.19,1.189,1.785,2.88,1.785,5.071,0,1.361-.329,2.742-.988,4.142-.658,1.4-1.851,3.124-3.577,5.172l-3.104,4.433h8.218v3.901Z" fill="#231815"/></g><path d="m194.419,17.803c-1.122-.748-1.819-1.02-2.686-1.02-.986,0-2.108.663-2.941,1.785l-1.07-.715c1.206-1.75,2.601-2.635,4.097-2.635,1.189,0,2.039.272,3.28,1.055l.612.391c1.104.714,1.835,1.02,2.686,1.02,1.173,0,2.107-.629,2.924-1.784l1.088.696c-1.225,1.802-2.55,2.652-4.097,2.652-1.207,0-2.057-.238-3.298-1.054l-.595-.392Z" fill="#231815"/><polygon points="0 0 0 27 44 27 44 25 2 25 2 2 52 2 52 17 54 17 54 0 0 0" fill="#007cc2"/><polygon points="20 45 20 72 64 72 64 70 22 70 22 47 72 47 72 62 74 62 74 45 20 45" fill="#007cc2"/><polygon points="40 90 40 117 84 117 84 115 42 115 42 92 92 92 92 107 94 107 94 90 40 90" fill="#007cc2"/><rect x="165" y="8" width="17" height="17" rx="8.246" ry="8.246" fill="#231815"/><rect x="236" y="8" width="17" height="17" rx="8.246" ry="8.246" fill="#231815"/><path d="m174.007,14.563c.819,1.639,2.219,3.068,3.897,3.968-.31.319-.42.479-.64.869-1.659-1.089-2.878-2.448-3.628-4.018.04.39.061.81.061,1.159v2.988c0,.51.029.89.069,1.18h-1.079c.05-.31.07-.649.07-1.189v-2.969c0-.329.029-.849.05-1.129-.67,1.509-1.939,2.969-3.498,4.008-.16-.3-.43-.649-.63-.819,1.639-.96,3.038-2.469,3.768-4.048h-2.278c-.479,0-.77.02-1.14.06v-.979c.3.05.66.07,1.14.07h2.589v-.989c0-.37-.021-.63-.07-.899h1.079c-.05.249-.069.6-.069.899v.989h2.738c.51,0,.879-.021,1.149-.07v.979c-.33-.04-.72-.06-1.149-.06h-2.429Z" fill="#fff"/><path d="m242.908,15.283c-.44,0-.7.01-.939.05v-.58c-.6.38-1.189.7-1.77.93-.109-.28-.27-.55-.51-.84,1.789-.629,3.338-1.759,4.048-2.958h1.029c.76,1.189,2.529,2.419,4.188,2.929-.159.229-.379.64-.47.899-.739-.311-1.239-.57-1.938-1.02v.64c-.229-.04-.479-.05-.939-.05h-.93v1.109h2.579c.479,0,.81-.021,1.029-.061v.92c-.21-.04-.6-.061-1.029-.061h-2.579v2.359h2.749c.439,0,.859-.021,1.119-.061v.96c-.24-.04-.72-.07-1.14-.07h-6.177c-.489,0-.81.021-1.179.07v-.96c.249.04.719.061,1.179.061h2.539v-2.359h-2.398c-.4,0-.79.021-1.02.061v-.92c.239.04.56.061,1.02.061h2.398v-1.109h-.859Zm-.88,2.089c.31.51.58,1.059.819,1.688l-.81.32c-.18-.53-.539-1.289-.81-1.669l.8-.34Zm3.598-2.849c.26,0,.51-.01.63-.021-.85-.579-1.539-1.219-1.999-1.839-.46.66-1.06,1.22-1.938,1.85.21.01.33.01.56.01h2.748Zm1.689,3.198c-.08.149-.14.279-.17.33-.189.369-.31.609-.34.659-.11.19-.21.36-.439.729l-.77-.3c.26-.35.659-1.169.859-1.759l.859.34Z" fill="#fff"/></g></g></svg>