<?xml version="1.0" encoding="UTF-8"?><svg id="_レイヤー_2" xmlns="http://www.w3.org/2000/svg" width="544" height="169.665" viewBox="0 0 544 169.665"><g id="_レイヤー_3"><g id="_レイヤー_2-2"><g><g><g><g><g><path d="m162.066,14.322c0-.911-.75-1.666-1.667-1.666h-10.38c-.914,0-1.66-.755-1.66-1.671V2.885c0-.913.746-1.669,1.66-1.669h36.504c.913,0,1.666.756,1.666,1.669v8.101c0,.916-.753,1.671-1.666,1.671h-10.38c-.914,0-1.66.755-1.66,1.666v41.66c0,.914-.75,1.664-1.667,1.664h-9.088c-.913,0-1.66-.75-1.66-1.664V14.322Z" fill="#231815"/><path d="m198.162,2.885c0-.911.75-1.666,1.662-1.666h32.312c.914,0,1.667.755,1.667,1.666v7.719c0,.911-.753,1.666-1.667,1.666h-19.977c-.918,0-1.664.756-1.664,1.667v8.104c0,.911.746,1.667,1.664,1.667h15.736c.916,0,1.664.755,1.664,1.671v7.708c0,.911-.748,1.664-1.664,1.664h-15.736c-.918,0-1.664.75-1.664,1.667v8.522c0,.907.746,1.667,1.664,1.667h20.381c.913,0,1.664.746,1.664,1.66v7.712c0,.914-.751,1.664-1.664,1.664h-32.716c-.913,0-1.662-.75-1.662-1.664V2.885Z" fill="#231815"/><path d="m301.508,2.885c0-.911.748-1.666,1.66-1.666h9.088c.914,0,1.664.755,1.664,1.666v19.005c0,.911.753,1.667,1.664,1.667h13.333c.914,0,1.664-.755,1.664-1.667V2.885c0-.911.75-1.666,1.664-1.666h9.088c.914,0,1.666.755,1.666,1.666v53.097c0,.914-.751,1.664-1.666,1.664h-9.088c-.914,0-1.664-.75-1.664-1.664v-19.322c0-.918-.75-1.664-1.664-1.664h-13.333c-.911,0-1.664.746-1.664,1.664v19.322c0,.914-.75,1.664-1.664,1.664h-9.088c-.913,0-1.66-.75-1.66-1.664V2.885Z" fill="#231815"/><path d="m243.363,29.338v-.156c0-16.04,11.22-29.182,27.302-29.182,9.312,0,15.103,3.149,19.803,7.854.285.269.54,1.185.014,1.889l-.099.106-5.03,6.239s-.37.638-.987.826c-.68.213-1.267.05-1.483-.132-3.857-3.333-6.95-5.33-11.907-5.33-8.828,0-14.74,8.036-14.74,17.719v.156c0,9.674,5.764,17.587,14.74,17.587,5.751,0,8.482-2.172,12.52-5.954.16-.153.677-.281.965-.187.559.187.814.54.814.54l5.576,6.069s.359.342.344.914c-.014.477-.259.833-.406.982-5.358,5.767-10.738,9.081-20.572,9.081-15.405,0-26.852-12.816-26.852-29.024" fill="#231815"/></g><g><path d="m119.059,29.243L96.282,2.583c-.736-.862-1.62-1.568-3.236-1.568h-13.705c-.684,0-1.074.935-.553,1.568l22.763,26.642-22.747,26.665c-.474.536-.187,1.568.559,1.568h13.701c1.598,0,2.497-.708,3.234-1.568l22.759-26.647h.002Z" fill="#00629d"/><path d="m140.596,1.017h-13.699c-1.535,0-2.196.387-2.934,1.249l-10.556,12.318,8.748,10.231,18.998-22.23c.534-.713.22-1.567-.555-1.567" fill="#231815"/><path d="m141.135,55.891l-18.981-22.223-8.746,10.24,10.608,12.355c.736.861,1.818,1.195,2.859,1.195h13.703c.729,0,1.064-.975.555-1.568" fill="#231815"/></g><path d="m24.616,15.814v26.62l.073,2.575h-4.584v-2.613H4.677v2.613H.062c.047-.989.071-1.849.071-2.575V15.814c0-.755-.024-1.6-.071-2.54h24.626c-.05.586-.073,1.431-.073,2.54m-4.511,1.502H4.677v8.151h15.427v-8.151Zm-15.427,21.056h15.427v-8.913H4.677v8.913Z" fill="#00629d"/><path d="m42.037,29.724v13.72c0,.769.024,1.305.073,1.603h-3.843c.028-.298.038-.833.038-1.603v-13.351c-1.664.2-3.048.335-4.141.409l-1.641.26-.408-3.84c.645.054,1.353.064,2.125.042l.897-.042c.869-.996,1.664-1.992,2.387-2.993-1.568-1.839-3.284-3.65-5.148-5.437l2.049-2.967,1.308,1.32c.744-1.034,1.44-2.129,2.087-3.326.649-1.154,1.079-2.07,1.303-2.753l3.246,2.115c-.123.12-.259.297-.406.534-.847,1.598-2.131,3.607-3.846,6.076.498.562.972,1.098,1.419,1.648,2.19-3.246,3.569-5.588,4.138-7.115l3.246,2.073-.484.573c-.6,1.011-1.332,2.167-2.2,3.487-.873,1.298-1.725,2.528-2.556,3.645-.836,1.135-1.551,2.073-2.144,2.816,1.888-.149,3.21-.274,3.951-.366-.297-1.017-.644-1.948-1.044-2.792l2.911-.817c.42.843.876,1.983,1.357,3.446.489,1.447.88,2.844,1.176,4.192l-3.241,1.003-.337-1.863-2.271.302h-.002Zm-9.624,11.888c.42-1.234.762-2.667,1.024-4.287.26-1.617.418-3.359.468-5.219l3.279.597-.111.75c-.173,3.975-.684,7.231-1.529,9.77-1.22-.651-2.262-1.18-3.132-1.61m13.574-9.877c.274.874.559,2.07.854,3.598.302,1.535.538,3.054.708,4.565l-3.314.932c-.029-1.088-.16-2.425-.392-4.003-.238-1.579-.491-3.005-.765-4.27l2.911-.824-.002.002Zm18.682,8.878c1.171,0,1.992-.028,2.464-.078v4.029c-.448-.047-1.267-.075-2.464-.075h-15.885c-1.194,0-2.026.028-2.495.075v-4.029c.47.05,1.303.078,2.495.078h6.416v-4.697h-4.14c-1.022,0-1.742.014-2.164.036v-3.846c.422.024,1.142.038,2.164.038h4.14v-2.762l-.076-1.267c.547,0,1.301.017,2.254.054.961.042,1.638.085,2.035.132-.052.399-.073.76-.073,1.081v2.762h4.289c.992,0,1.716-.014,2.164-.038v3.846c-.448-.024-1.171-.036-2.164-.036h-4.289v4.697h5.33Zm-16.892-15.551c2.339-.383,4.487-.999,6.451-1.87-.595-.633-1.161-1.352-1.693-2.137-.538-.789-.987-1.57-1.364-2.346-.371-.772-.671-1.442-.895-2.07h-.22l-1.94.035v-3.682l1.94.036h12.155l.373-.432c1.267.918,2.439,1.882,3.506,2.934l-.522.252c-.222.68-.557,1.447-1.006,2.332-.446.883-1.018,1.777-1.716,2.687-.697.907-1.43,1.728-2.198,2.471,1.438.743,3.59,1.352,6.451,1.827-.6,1.44-1.095,2.727-1.492,3.84-1.666-.392-3.161-.833-4.492-1.301-1.331-.474-2.521-1.07-3.565-1.789-.77.515-1.764,1.038-2.982,1.542-1.218.519-2.908,1.055-5.073,1.624-.272-.746-.843-2.061-1.714-3.947m13.389-8.425h-6.902c.397.894.88,1.732,1.437,2.519.56.786,1.188,1.463,1.884,2.056.748-.593,1.43-1.277,2.052-2.073.618-.798,1.129-1.633,1.529-2.502" fill="#00629d"/></g><g><g><path d="m493.481,29.243l-22.778-26.66c-.736-.862-1.617-1.568-3.234-1.568h-13.705c-.682,0-1.072.935-.553,1.568l22.763,26.642-22.744,26.665c-.477.536-.187,1.568.553,1.568h13.705c1.6,0,2.498-.708,3.232-1.568l22.761-26.647h0Z" fill="#00629d"/><path d="m515.017,1.017h-13.699c-1.537,0-2.198.387-2.932,1.249l-10.556,12.318,8.748,10.231,18.998-22.23c.529-.713.215-1.567-.557-1.567" fill="#231815"/><path d="m515.552,55.891l-18.977-22.223-8.748,10.24,10.609,12.355c.732.861,1.817,1.195,2.858,1.195h13.705c.727,0,1.06-.975.55-1.568" fill="#231815"/></g><path d="m376.833,57.674c-.63,0-1.183-.234-1.65-.708-.47-.468-.708-1.044-.708-1.718V19.352c0-.684.238-1.239.708-1.718.468-.474,1.02-.715,1.65-.715h5.25c.677,0,1.282.226,1.818.684.541.448.854,1.005.946,1.686l.403,3.902c0,.092.057.139.168.139s.191-.024.238-.071c3.952-3.862,8.106-5.784,12.461-5.784,4.129,0,7.191,1.378,9.194,4.174,1.995,2.785,2.998,6.709,2.998,11.782v21.816c0,.675-.238,1.251-.708,1.718-.472.474-1.024.708-1.648.708h-7.545c-.628,0-1.178-.234-1.647-.708-.474-.468-.71-1.044-.71-1.718v-20.339c0-2.606-.359-4.409-1.079-5.418-.718-1.01-1.884-1.515-3.501-1.515-1.26,0-2.354.245-3.3.739-.942.491-2.044,1.345-3.3,2.563-.135.132-.201.291-.201.47v23.5c0,.675-.234,1.251-.706,1.718-.475.474-1.044.708-1.721.708h-7.405l-.003.002Z" fill="#231815"/><path d="m436.078,58.616c-5.79,0-10.559-1.839-14.31-5.521-3.751-3.68-5.621-8.689-5.621-15.018,0-3.1.526-5.961,1.582-8.586,1.05-2.627,2.443-4.811,4.171-6.544,1.732-1.725,3.708-3.057,5.928-4.034,2.221-.979,4.532-1.438,6.902-1.438,5.486,0,9.655,1.749,12.532,5.248,2.873,3.505,4.31,8.078,4.31,13.734,0,.942-.045,1.888-.135,2.83-.088.718-.406,1.294-.94,1.718-.538.43-1.149.64-1.818.64h-20.344c-.219,0-.311.111-.26.338,1.112,4.846,4.355,7.271,9.692,7.271,2.066,0,4.129-.448,6.196-1.345.585-.316,1.204-.373,1.851-.17.654.203,1.135.573,1.45,1.112l1.751,3.232c.314.583.392,1.202.239,1.853-.16.651-.533,1.152-1.112,1.515-3.822,2.111-7.837,3.161-12.06,3.161l-.002.003Zm-8.217-25.117c0,.132.09.2.274.2h12.724c.232,0,.342-.111.342-.335-.045-2.023-.571-3.616-1.589-4.785-1.006-1.169-2.549-1.749-4.605-1.749-1.752,0-3.286.555-4.587,1.685-1.704,1.478-2.559,3.142-2.559,4.985Z" fill="#231815"/><path d="m535.502,58.616c-4.757,0-8.262-1.352-10.507-4.07-2.245-2.717-3.369-6.524-3.369-11.416v-10.922c0-.179-.085-.267-.264-.267h-2.63c-.675,0-1.247-.238-1.714-.708-.47-.47-.711-1.044-.711-1.718v-4.303c0-.678.241-1.27.711-1.752.468-.508,1.041-.763,1.714-.807l3.3-.278c.227-.047.335-.167.335-.338l.028-3.715c.088-.684.394-1.26.911-1.686.515-.47,1.126-.685,1.848-.685h6.378c.671,0,1.247.224,1.714.715.47.46.708,1.015.708,1.655v3.715c0,.173.092.267.271.267h6.53c.675,0,1.247.246,1.718.701.474.491.706,1.05.706,1.718v4.792c0,.675-.234,1.247-.706,1.718-.47.472-1.043.708-1.718.708h-6.53c-.179,0-.271.088-.271.267v10.79c0,2.061.437,3.591,1.313,4.575.878.989,2.075,1.483,3.604,1.483.406,0,.831-.047,1.28-.135.625-.088,1.221.035,1.785.37.557.335.907.796,1.044,1.379l.94,4.178c.045.224.066.427.066.607,0,.451-.132.878-.401,1.277-.314.586-.807.942-1.48,1.077-2.157.541-4.358.807-6.603.807v.002Z" fill="#231815"/></g></g><path d="m152.648,70.411v15.575h-2.318v-1.142h-8.045v1.183h-2.226v-15.615h12.589v-.002Zm-10.363,6.065h8.045v-3.893h-8.045v3.893Zm8.045,2.137h-8.045v4.056h8.045v-4.056Z" fill="#231815"/><path d="m160.227,80.225c-.182,1.704-.559,3.513-1.088,4.672-.376-.234-1.176-.612-1.646-.776.527-1.07.815-2.687.963-4.206l1.773.309h-.002Zm13.927-9.508c-.651,1.921-1.666,3.46-2.951,4.69,1.084.616,2.337,1.081,3.713,1.376-.449.42-1.032,1.234-1.317,1.742-1.527-.42-2.884-1.013-4.042-1.813-1.232.821-2.627,1.43-4.131,1.905-.234-.494-.722-1.287-1.142-1.742.345.782.633,1.558.746,2.141l-1.525.68c-.052-.267-.121-.576-.234-.918l-.921.071v7.408h-1.867v-7.278l-2.628.163-.18-1.863,1.308-.054c.267-.349.559-.746.848-1.162-.524-.776-1.393-1.738-2.136-2.46l1.031-1.471c.128.108.272.238.416.363.507-.996,1.015-2.193,1.324-3.151l1.867.687c-.652,1.227-1.374,2.627-2.028,3.643.234.252.434.505.612.722.616-1.013,1.197-2.044,1.617-2.934l1.752.817c-.999,1.572-2.243,3.406-3.385,4.874l1.738-.071c-.2-.462-.416-.907-.633-1.305l1.43-.6c.291.508.583,1.084.833,1.667,1.305-.352,2.516-.854,3.604-1.497-.848-.857-1.556-1.837-2.136-2.955l1.159-.383h-2.068v-1.846h7.499l.383-.092,1.447.651-.002-.003Zm-10.247,9.055c.451,1.034.918,2.358,1.123,3.26l-1.596.583c-.163-.904-.632-2.301-1.05-3.371l1.525-.472h-.002Zm6.77,4.081h3.964v1.884h-10.233v-1.884h4.148v-2.125h-3.078v-1.902h3.078v-2.155h2.122v2.155h3.222v1.902h-3.222v2.125h-.002Zm-2.951-11.846c.437.796,1.031,1.525,1.738,2.158.708-.633,1.303-1.362,1.775-2.158h-3.513Z" fill="#231815"/><path d="m186.352,72.387c-.017.038-.036.05-.054.092h3.64c.559,0,1.161-.092,1.575-.22l1.844,1.135c-.193.349-.453.854-.595,1.308-.491,1.61-1.522,4.025-3.151,6.052-1.721,2.098-3.916,3.765-7.316,5.106l-2.139-1.922c3.713-1.105,5.725-2.684,7.299-4.469,1.232-1.423,2.281-3.588,2.573-4.948h-5.09c-1.216,1.575-2.788,3.172-4.566,4.384l-2.026-1.504c3.17-1.938,4.743-4.28,5.651-5.835.271-.455.652-1.28.814-1.905l2.644.878c-.416.626-.887,1.444-1.103,1.846" fill="#231815"/><path d="m201.195,71.859h9.959c.453,0,1.138,0,1.789-.038-.033.545-.033,1.213-.033,1.763v8.871c0,.704.033,2.443.033,2.514h-2.495c0-.035.021-.451.021-.975h-8.734c.019.505.019.921.019.975h-2.498c0-.088.057-1.667.057-2.531v-8.854c0-.512,0-1.254-.038-1.763.739.021,1.43.038,1.921.038m.54,9.813h8.749v-7.509h-8.749v7.509Z" fill="#231815"/><path d="m231.371,73.506c-.614,1.409-1.631,3.352-2.845,4.978,1.792,1.56,3.987,3.879,5.056,5.184l-2.063,1.789c-1.183-1.627-2.863-3.473-4.568-5.12-1.917,2.026-4.327,3.911-6.812,5.087l-1.86-1.959c2.915-1.081,5.72-3.296,7.42-5.191,1.199-1.358,2.302-3.158,2.701-4.442h-6.14c-.762,0-1.756.108-2.137.128v-2.571c.488.071,1.596.125,2.137.125h6.395c.777,0,1.501-.108,1.867-.238l1.482,1.112c-.144.196-.47.756-.633,1.119" fill="#231815"/><path d="m240.089,75.518h11.864c.38,0,1.178-.04,1.65-.111v2.354c-.453-.035-1.143-.054-1.65-.054h-4.365c-.108,1.863-.508,3.388-1.159,4.657-.633,1.251-2.028,2.66-3.64,3.477l-2.122-1.539c1.287-.488,2.556-1.539,3.284-2.592.739-1.123,1.044-2.478,1.119-4.003h-4.981c-.541,0-1.23.042-1.735.075v-2.375c.54.054,1.173.111,1.735.111m2.301-4.619h7.282c.612,0,1.341-.033,1.955-.128v2.339c-.614-.038-1.322-.075-1.955-.075h-7.263c-.633,0-1.397.036-1.957.075v-2.339c.6.095,1.341.128,1.938.128" fill="#231815"/><path d="m263.352,78.995l-2.207.831c-.311-.975-1.211-3.388-1.652-4.178l2.176-.786c.451.928,1.324,3.114,1.685,4.134m8.77-2.45c-.474,1.834-1.232,3.718-2.467,5.307-1.683,2.179-3.947,3.701-6.065,4.497l-1.902-1.935c1.992-.526,4.509-1.902,6.01-3.789,1.234-1.539,2.103-3.951,2.318-6.218l2.537.821c-.217.579-.326.963-.43,1.319m-4.764,1.329l-2.176.76c-.217-.885-1.015-3.078-1.468-4.029l2.157-.697c.344.776,1.232,3.135,1.485,3.968" fill="#231815"/><path d="m285.907,72.387c-.019.038-.035.05-.05.092h3.643c.56,0,1.157-.092,1.572-.22l1.843,1.135c-.196.349-.449.854-.597,1.308-.484,1.61-1.522,4.025-3.144,6.052-1.721,2.098-3.918,3.765-7.32,5.106l-2.139-1.922c3.716-1.105,5.729-2.684,7.297-4.469,1.234-1.423,2.283-3.588,2.571-4.948h-5.089c-1.213,1.575-2.786,3.172-4.563,4.384l-2.028-1.504c3.168-1.938,4.745-4.28,5.653-5.835.271-.455.651-1.28.819-1.905l2.639.878c-.411.626-.887,1.444-1.105,1.846" fill="#231815"/></g><g><g><path d="m191.144,161.776h2.538c.566,0,.946-.434,1.138-1.298.196-.866.345-2.655.451-5.377.035-.389.231-.67.583-.848.349-.173.704-.173,1.06,0,1.234.708,2.573,1.329,4.022,1.856.529.179.956.493,1.27.953.248.389.37.795.37,1.218,0,3.598-.81,6.494-2.432,8.685-1.199,1.622-3.073,2.434-5.611,2.434h-4.981c-2.998,0-5.083-.743-6.249-2.224-1.162-1.48-1.749-4.254-1.749-8.312v-19.064c0-.139-.071-.212-.206-.212h-7.889c-.142,0-.234.073-.267.212-.356,3.284-.867,6.251-1.535,8.897-.675,2.648-1.627,5.252-2.856,7.813-1.237,2.559-2.844,4.905-4.821,7.042-1.976,2.132-4.324,4.03-7.042,5.689-.285.179-.583.265-.902.265-.173,0-.335-.019-.477-.052-.526-.104-.935-.389-1.216-.848-.985-1.339-2.065-2.559-3.229-3.652-.281-.248-.423-.564-.423-.954,0-.529.213-.914.637-1.162,4.374-2.615,7.563-5.783,9.556-9.506,1.992-3.723,3.293-8.234,3.893-13.529,0-.139-.075-.212-.213-.212h-10.111c-.529,0-.973-.182-1.329-.553-.349-.373-.526-.821-.526-1.35v-4.183c0-.529.177-.98.526-1.35.356-.37.8-.555,1.329-.555h10.585c.142,0,.213-.071.213-.212.035-2.401.05-5.753.05-10.061,0-.493.189-.926.559-1.299.37-.37.821-.553,1.348-.553h4.924c.494,0,.932.184,1.301.553.37.373.555.807.555,1.299-.075,4.835-.142,8.191-.213,10.061,0,.141.085.212.264.212h13.923c.494,0,.928.187,1.301.555.37.371.552.822.552,1.35v25.364c0,1.306.071,2.115.213,2.432s.512.479,1.116.479l.003-.002Z" fill="#231815"/><path d="m207.236,133.709c.071-.493.312-.881.718-1.166.403-.279.836-.37,1.298-.262l3.175.793c.494.142.899.434,1.216.876.319.441.441.926.373,1.457-.708,5.715-1.607,10.042-2.701,12.971-.179.494-.512.841-1.01,1.034-.491.194-.982.186-1.478-.026l-3.338-1.326c-.458-.177-.776-.494-.953-.953-.108-.248-.16-.493-.16-.743,0-.246.035-.477.104-.689,1.273-3.246,2.19-7.235,2.752-11.966l.003-.002Zm38.02-12.443c0-.494.177-.925.533-1.296.349-.371.793-.557,1.322-.557h4.185c.491,0,.925.187,1.298.557.37.371.555.802.555,1.296v46.544c0,.493-.186.928-.555,1.298-.373.37-.807.557-1.298.557h-4.185c-.529,0-.973-.187-1.322-.557-.356-.37-.533-.805-.533-1.298v-20.703c0-.142-.068-.177-.21-.106l-2.911,1.641c-.427.213-.85.22-1.273.026-.423-.193-.689-.519-.793-.977-.533-2.084-1.308-4.448-2.332-7.094-.071,0-.104.016-.104.05v24.094c0,.527-.18.98-.533,1.348-.349.37-.789.557-1.322.557h-3.971c-.494,0-.925-.187-1.294-.557-.373-.37-.555-.822-.555-1.348v-16.999c0-.177-.071-.227-.213-.158l-3.494,1.695c-.427.213-.84.203-1.247-.028s-.644-.573-.715-1.032c-.319-1.836-.831-3.938-1.535-6.301,0-.033-.017-.033-.05,0-.104,2.611-.338,5.038-.691,7.28s-.909,4.563-1.667,6.962c-.76,2.403-1.827,4.688-3.203,6.858-1.379,2.17-3.057,4.14-5.031,5.902-.352.354-.779.494-1.272.425-.494-.071-.902-.317-1.216-.744-.989-1.199-2.066-2.346-3.229-3.44-.319-.35-.477-.756-.477-1.216,0-.493.177-.918.533-1.27,1.799-1.66,3.307-3.531,4.527-5.613,1.216-2.082,2.098-4.315,2.642-6.699.548-2.382.907-4.57,1.088-6.565.177-1.992.264-4.244.264-6.751v-15.62c0-.494.186-.926.559-1.298.37-.371.817-.555,1.348-.555h4.022c.533,0,.979.184,1.352.555s.552.803.552,1.298v13.024c0,.177.071.229.213.16l2.013-.953c.458-.213.935-.222,1.426-.028.498.194.829.54,1.01,1.032.914,2.224,1.725,4.52,2.436,6.884,0,.035.007.054.028.054.014,0,.028-.021.028-.054v-18.904c0-.531.182-.977.555-1.35.37-.371.8-.555,1.294-.555h3.971c.533,0,.973.184,1.322.555.352.373.533.821.533,1.35v11.649c0,.177.071.213.213.106l1.853-.953c.491-.246.985-.291,1.478-.13.498.156.85.467,1.064.926,1.095,2.259,2.065,4.462,2.911,6.617,0,.036.017.052.054.052.035,0,.05-.017.05-.052v-19.593h.003Z" fill="#231815"/><path d="m268.51,165.005c-.529,0-.975-.187-1.348-.555-.373-.371-.555-.822-.555-1.352v-1.747c0-1.235.455-2.276,1.376-3.125,5.155-4.73,9.017-8.77,11.597-12.124,2.578-3.355,3.867-6.334,3.867-8.947,0-1.839-.472-3.248-1.407-4.237-.932-.987-2.212-1.48-3.836-1.48-1.799,0-3.64.862-5.507,2.592-.39.354-.84.531-1.352.531s-.946-.177-1.298-.531l-2.596-2.54c-.39-.389-.579-.838-.579-1.35s.189-.944.579-1.299c1.803-1.692,3.64-2.937,5.507-3.732,1.874-.795,4.063-1.19,6.57-1.19,3.918,0,7.1,1.157,9.553,3.468,2.457,2.313,3.683,5.375,3.683,9.187,0,5.684-4.006,12.568-12.02,20.651,0,.035.007.071.028.106.017.036.043.05.078.05,2.575-.352,4.676-.529,6.303-.529h5.557c.533,0,.973.186,1.322.557.356.37.533.819.533,1.348v4.341c0,.531-.177.982-.533,1.352-.349.37-.789.555-1.322.555h-24.201Z" fill="#0086d1"/><path d="m324.243,160.265c-2.599,3.654-6.072,5.481-10.434,5.481s-7.832-1.827-10.403-5.481c-2.578-3.652-3.869-8.867-3.869-15.644s1.28-11.923,3.843-15.438c2.559-3.512,6.026-5.267,10.406-5.267s7.858,1.775,10.457,5.321c2.589,3.548,3.89,8.677,3.89,15.382,0,6.777-1.301,11.992-3.89,15.644v.002Zm-12.501-2.594c.586.406,1.263.611,2.044.611.769,0,1.45-.203,2.033-.611.583-.404,1.131-1.091,1.643-2.063.512-.972.902-2.373,1.162-4.211.264-1.834.399-4.095.399-6.777,0-2.648-.135-4.879-.399-6.699-.26-1.82-.651-3.185-1.162-4.103-.512-.916-1.06-1.563-1.643-1.931-.583-.371-1.263-.557-2.033-.557-.779,0-1.45.186-2.016.557-.562.368-1.095,1.015-1.589,1.931-.494.918-.871,2.283-1.138,4.103-.264,1.822-.396,4.051-.396,6.699,0,2.682.132,4.945.396,6.777.267,1.837.637,3.239,1.116,4.211.474.973,1.003,1.659,1.586,2.063h-.002Z" fill="#0086d1"/><path d="m334.483,165.005c-.526,0-.975-.187-1.345-.555-.373-.371-.559-.822-.559-1.352v-1.747c0-1.235.462-2.276,1.379-3.125,5.151-4.73,9.017-8.77,11.597-12.124,2.575-3.355,3.864-6.334,3.864-8.947,0-1.839-.468-3.248-1.4-4.237-.939-.987-2.216-1.48-3.843-1.48-1.799,0-3.633.862-5.507,2.592-.39.354-.838.531-1.348.531s-.946-.177-1.298-.531l-2.596-2.54c-.387-.389-.583-.838-.583-1.35s.196-.944.583-1.299c1.803-1.692,3.636-2.937,5.507-3.732,1.874-.795,4.056-1.19,6.567-1.19,3.918,0,7.106,1.157,9.56,3.468,2.45,2.313,3.68,5.375,3.68,9.187,0,5.684-4.008,12.568-12.023,20.651,0,.035.01.071.031.106.014.036.042.05.078.05,2.575-.352,4.676-.529,6.3-.529h5.564c.526,0,.966.186,1.322.557.349.37.529.819.529,1.348v4.341c0,.531-.179.982-.529,1.352-.356.37-.796.555-1.322.555h-24.208Z" fill="#0086d1"/><path d="m378.433,165.746c-5.222,0-9.407-1.43-12.547-4.289-.423-.389-.637-.881-.637-1.483,0-.531.163-.987.481-1.374l2.223-3.017c.281-.427.668-.656,1.166-.691.491-.035.932.09,1.322.373,2.294,1.799,4.625,2.701,6.987,2.701,1.908,0,3.416-.399,4.53-1.194,1.109-.795,1.664-1.933,1.664-3.416,0-1.728-.59-3.043-1.771-3.944-1.183-.9-3.395-1.421-6.641-1.563-.533-.035-.979-.227-1.352-.581-.37-.352-.559-.793-.559-1.324v-3.019c0-.529.189-.979.559-1.348.373-.37.821-.573,1.352-.609,2.571-.177,4.412-.706,5.507-1.589,1.091-.881,1.64-2.101,1.64-3.652,0-1.379-.39-2.436-1.166-3.18-.779-.741-1.924-1.109-3.442-1.109-1.87,0-3.775.722-5.717,2.17-.423.317-.892.449-1.404.394-.512-.05-.928-.271-1.244-.659l-2.491-3.019c-.352-.39-.501-.838-.451-1.35.054-.51.291-.926.715-1.246,3.498-2.543,7.185-3.812,11.071-3.812,4.233,0,7.594.965,10.084,2.887,2.488,1.922,3.73,4.665,3.73,8.232,0,4.129-2.134,7.077-6.404,8.845-.071.036-.104.097-.104.184,0,.09.033.149.104.184,2.325.706,4.192,1.888,5.585,3.546,1.393,1.662,2.091,3.725,2.091,6.196,0,2.438-.685,4.563-2.065,6.38-1.376,1.82-3.175,3.17-5.397,4.053-2.229.883-4.697,1.324-7.417,1.324l.002-.002Z" fill="#0086d1"/></g><rect y="100.786" width="544" height="4.919" fill="#0086d1"/></g></g></g></g></svg>