<svg xmlns="http://www.w3.org/2000/svg" width="84.591" height="13.148" viewBox="0 0 84.591 13.148">
  <defs>
    <style>
      .cls-1 {
        fill: #007cc2;
      }
    </style>
  </defs>
  <path id="パス_167" data-name="パス 167" class="cls-1" d="M10.037,13.753a5.969,5.969,0,0,1-1.217,4A4.208,4.208,0,0,1,5.44,19.176a4.256,4.256,0,0,1-3.384-1.411A5.882,5.882,0,0,1,.809,13.814V11.626A6.292,6.292,0,0,1,2.03,7.508,4.156,4.156,0,0,1,5.423,6.027,4.176,4.176,0,0,1,8.789,7.482a6.2,6.2,0,0,1,1.248,4.083ZM7.444,11.608a5.255,5.255,0,0,0-.492-2.575,1.647,1.647,0,0,0-1.529-.844A1.653,1.653,0,0,0,3.9,9a4.993,4.993,0,0,0-.51,2.474v2.276a4.759,4.759,0,0,0,.5,2.474,1.7,1.7,0,0,0,1.547.8,1.656,1.656,0,0,0,1.5-.778,4.667,4.667,0,0,0,.5-2.413ZM23.815,6.2v8.859a4.139,4.139,0,0,1-1.1,3.054,4.251,4.251,0,0,1-3.1,1.059A4.286,4.286,0,0,1,16.472,18.1,4.171,4.171,0,0,1,15.386,15V6.2h2.6V15.01a2.637,2.637,0,0,0,.352,1.556,1.507,1.507,0,0,0,1.274.466,1.488,1.488,0,0,0,1.266-.461,2.628,2.628,0,0,0,.352-1.516V6.2ZM37.663,8.356H34.5V19H31.906V8.356H28.795V6.2h8.868Zm7.669,8.5h4.535V19H42.748V6.2h2.584ZM57.66,19H55.076V6.2H57.66Zm14.718,0H69.794l-3.779-8.394V19H63.431V6.2h2.584l3.788,8.4V6.2h2.575Zm12.284-5.537H80.636v3.393H85.4V19H78.052V6.2h7.33V8.356H80.636V11.38h4.025Z" transform="translate(-0.809 -6.027)"/>
</svg>
