<svg xmlns="http://www.w3.org/2000/svg" xmlns:xlink="http://www.w3.org/1999/xlink" width="254" height="42" viewBox="0 0 254 42">
  <defs>
    <clipPath id="clip-path">
      <rect id="長方形_5" data-name="長方形 5" width="205" height="14" transform="translate(837 16)" fill="none" stroke="rgba(0,0,0,0)" stroke-width="1"/>
    </clipPath>
    <clipPath id="clip-path-2">
      <rect id="長方形_3" data-name="長方形 3" width="24" height="12" transform="translate(796 17)" fill="none" stroke="rgba(0,0,0,0)" stroke-width="1"/>
    </clipPath>
    <clipPath id="clip-path-3">
      <rect id="長方形_4" data-name="長方形 4" width="192" height="13" transform="translate(835 39)" fill="none" stroke="rgba(0,0,0,0)" stroke-width="1"/>
    </clipPath>
  </defs>
  <g id="グループ_674" data-name="グループ 674" transform="translate(-748 -13)">
    <g id="date" transform="translate(-40)">
      <g id="date_txt" clip-path="url(#clip-path)">
        <path id="パス_1470" data-name="パス 1470" d="M.844,5.707A3,3,0,0,1,1.911,3.745a2.765,2.765,0,0,1,1.752-.559,2.667,2.667,0,0,1,1.993.736A2.352,2.352,0,0,1,6.3,5.643a2.88,2.88,0,0,1-.451,1.574A8.3,8.3,0,0,1,4.342,8.842,9.691,9.691,0,0,0,1.847,11.87H6.316v.9H.768v-.806a11.107,11.107,0,0,1,2.78-3.688A7.436,7.436,0,0,0,4.913,6.722a2.153,2.153,0,0,0,.273-1.079,1.457,1.457,0,0,0-1.53-1.562q-1.492,0-1.746,1.873Zm10-2.52a2.314,2.314,0,0,1,2.19,1.289,7.654,7.654,0,0,1,.641,3.536q0,4.926-2.856,4.926a2.33,2.33,0,0,1-2.209-1.32,7.875,7.875,0,0,1-.641-3.58Q7.973,3.187,10.848,3.187Zm0,.9a1.425,1.425,0,0,0-1.377,1,8.149,8.149,0,0,0-.394,2.939,7.508,7.508,0,0,0,.5,3.225,1.333,1.333,0,0,0,1.25.793,1.421,1.421,0,0,0,1.371-1.047,8.622,8.622,0,0,0,.381-2.971,7.429,7.429,0,0,0-.482-3.187A1.327,1.327,0,0,0,10.848,4.082Zm4.431,1.625a3,3,0,0,1,1.066-1.961A2.765,2.765,0,0,1,18.1,3.187a2.667,2.667,0,0,1,1.993.736,2.352,2.352,0,0,1,.647,1.72,2.88,2.88,0,0,1-.451,1.574,8.3,8.3,0,0,1-1.511,1.625,9.691,9.691,0,0,0-2.495,3.028H20.75v.9H15.2v-.806a11.107,11.107,0,0,1,2.78-3.688,7.436,7.436,0,0,0,1.365-1.549,2.153,2.153,0,0,0,.273-1.079,1.457,1.457,0,0,0-1.53-1.562q-1.492,0-1.746,1.873Zm7.2-.622a2.639,2.639,0,0,1,1.124-1.473,2.927,2.927,0,0,1,1.587-.425,2.742,2.742,0,0,1,2,.73A2.113,2.113,0,0,1,27.847,5.5a2.129,2.129,0,0,1-.54,1.5,2.212,2.212,0,0,1-1.25.667v.121a2.491,2.491,0,0,1,1.536.908,2.4,2.4,0,0,1,.463,1.485,2.616,2.616,0,0,1-.9,2.095,2.884,2.884,0,0,1-1.949.66,2.8,2.8,0,0,1-2.9-1.885l1.041-.394a2.084,2.084,0,0,0,.768,1.117,1.954,1.954,0,0,0,1.092.279,1.607,1.607,0,0,0,1.308-.565,1.952,1.952,0,0,0,.419-1.295q0-1.942-2.133-1.942h-.724v-.92h.647A2.124,2.124,0,0,0,26.3,6.8a1.652,1.652,0,0,0,.438-1.212,1.453,1.453,0,0,0-.5-1.181A1.772,1.772,0,0,0,24.1,4.45a1.869,1.869,0,0,0-.578.984Zm18.51,5.668a.09.09,0,0,1-.1.1l-1.7-.025H36.264v.87l.025,2.146a.079.079,0,0,1-.089.089h-.654q-.114,0-.114-.089l.025-2.146v-.87H31.51l-1.708.025a.09.09,0,0,1-.1-.1v-.59a.09.09,0,0,1,.1-.1l1.708.025H31.9v-1.9l-.025-1.136a.09.09,0,0,1,.1-.1l1.822.025h1.663V4.824H32.494a13.243,13.243,0,0,1-1.65,2.019q-.121.14-.171.14t-.178-.159a1.325,1.325,0,0,0-.444-.349A10.481,10.481,0,0,0,32.6,3.053a3.631,3.631,0,0,0,.273-.857q.33.083.806.248a.184.184,0,0,1,.127.171.255.255,0,0,1-.114.178,1.339,1.339,0,0,0-.33.47q-.286.571-.438.844H38.4l1.809-.025a.09.09,0,0,1,.1.1v.565a.09.09,0,0,1-.1.1L38.4,4.824H36.264V6.97h1.574l1.8-.025q.1,0,.1.1v.565q0,.1-.1.1l-1.8-.025H36.264v2.4H39.19l1.7-.025a.09.09,0,0,1,.1.1Zm-5.535-.667v-2.4H32.69v2.4ZM46.389,7.738a3.831,3.831,0,0,1,1.638,1.206,2.454,2.454,0,0,1,.381,1.4,2.363,2.363,0,0,1-.914,1.987,3.236,3.236,0,0,1-2.025.6,3.082,3.082,0,0,1-2.215-.762,2.374,2.374,0,0,1-.711-1.79,2.124,2.124,0,0,1,.546-1.479,4.771,4.771,0,0,1,1.466-.99,3.433,3.433,0,0,1-1.409-1.124A2.246,2.246,0,0,1,42.8,5.529a2.148,2.148,0,0,1,.832-1.752,3.179,3.179,0,0,1,3.872.14,2.079,2.079,0,0,1,.667,1.568,2.037,2.037,0,0,1-.47,1.377A3.688,3.688,0,0,1,46.389,7.738Zm-.755-.368a2.813,2.813,0,0,0,1.238-.876,1.686,1.686,0,0,0,.273-.984,1.344,1.344,0,0,0-.527-1.117,1.794,1.794,0,0,0-1.149-.362,1.659,1.659,0,0,0-1.238.457,1.422,1.422,0,0,0-.4,1.041,1.379,1.379,0,0,0,.375.99,3.759,3.759,0,0,0,1.168.736Zm-.311.927a3.771,3.771,0,0,0-1.39.978,1.681,1.681,0,0,0-.349,1.06,1.643,1.643,0,0,0,.578,1.333,2.256,2.256,0,0,0,2.768-.1,1.631,1.631,0,0,0,.438-1.187,1.585,1.585,0,0,0-.432-1.143A4.02,4.02,0,0,0,45.6,8.411Zm13.755,4.266A1.059,1.059,0,0,1,58,13.768q-.286.025-1.155.025a.432.432,0,0,1-.241-.038.778.778,0,0,1-.083-.222,2.058,2.058,0,0,0-.235-.609q.762.063,1.365.063a.525.525,0,0,0,.59-.6V9.547H53.162a7.585,7.585,0,0,1-.736,2.5,7.4,7.4,0,0,1-1.282,1.708q-.121.14-.165.14a.664.664,0,0,1-.209-.127,1.708,1.708,0,0,0-.559-.3A6.422,6.422,0,0,0,52.146,10.5a16.875,16.875,0,0,0,.381-4.189V4.723L52.5,3.015a.09.09,0,0,1,.1-.1l1.7.025h2.964l1.7-.025q.108,0,.108.1l-.025,1.708v5.77Zm-.832-3.745V6.583H53.333q-.025,1.352-.1,2.234Zm0-2.964V3.682H53.333V5.853Zm4.672-.768a2.639,2.639,0,0,1,1.124-1.473,2.927,2.927,0,0,1,1.587-.425,2.742,2.742,0,0,1,2,.73A2.113,2.113,0,0,1,68.282,5.5a2.129,2.129,0,0,1-.54,1.5,2.212,2.212,0,0,1-1.25.667v.121a2.491,2.491,0,0,1,1.536.908,2.4,2.4,0,0,1,.463,1.485,2.616,2.616,0,0,1-.9,2.095,2.884,2.884,0,0,1-1.949.66,2.8,2.8,0,0,1-2.9-1.885l1.041-.394a2.084,2.084,0,0,0,.768,1.117,1.954,1.954,0,0,0,1.092.279,1.607,1.607,0,0,0,1.308-.565,1.952,1.952,0,0,0,.419-1.295q0-1.942-2.133-1.942h-.724v-.92h.647A2.124,2.124,0,0,0,66.739,6.8a1.652,1.652,0,0,0,.438-1.212,1.453,1.453,0,0,0-.5-1.181,1.772,1.772,0,0,0-2.146.038,1.869,1.869,0,0,0-.578.984Zm16.72,8.29a.09.09,0,0,1-.1.1h-.628a.09.09,0,0,1-.1-.1v-.793H72.789V13.4q0,.1-.089.1h-.641a.09.09,0,0,1-.1-.1l.025-4.456V6.437l-.025-3.275q0-.108.1-.108l1.809.025h3.859l1.809-.025q.1,0,.1.108l-.025,2.945V8.944Zm-.832-1.536V8.074H72.789v3.764Zm0-4.494V3.821H72.789V7.344Zm11.75-5.3a9.811,9.811,0,0,0-1.8,3.066,9.267,9.267,0,0,0-.438,2.952,8.967,8.967,0,0,0,.584,3.339,10.085,10.085,0,0,0,1.65,2.679l-.375.311a9.358,9.358,0,0,1-2.139-3.123,8.544,8.544,0,0,1-.578-3.206,8.426,8.426,0,0,1,.755-3.618,9.684,9.684,0,0,1,1.961-2.71Zm12.937,9.591a1.712,1.712,0,0,0-.413.521q-.1.2-.171.2a.443.443,0,0,1-.184-.089,13.747,13.747,0,0,1-5.04-5.58q0,2.336.051,5.135.013.508.025,1.422.013.5.013.578,0,.108-.1.108h-.679q-.114,0-.114-.108,0-.07.019-1.2.063-3.333.07-5.821a14.27,14.27,0,0,1-2.2,3.313,12.546,12.546,0,0,1-2.52,2.215.4.4,0,0,1-.184.089q-.057,0-.171-.171a1.712,1.712,0,0,0-.438-.489,11.633,11.633,0,0,0,3.085-2.533A13.041,13.041,0,0,0,96.58,6.2H93.8l-1.733.025a.1.1,0,0,1-.114-.114V5.548a.1.1,0,0,1,.114-.114l1.733.025h3.117v-1.6a9.119,9.119,0,0,0-.089-1.574q.514.025.9.083.159.019.159.1a.466.466,0,0,1-.032.152q-.038.1-.051.133a5.793,5.793,0,0,0-.063,1.092V5.459h3.409l1.739-.025q.1,0,.1.114v.565q0,.114-.1.114L101.144,6.2h-3.1A13.363,13.363,0,0,0,103.492,11.635Zm1.219-9.9a9.446,9.446,0,0,1,2.146,3.123,8.629,8.629,0,0,1,.571,3.206,8.426,8.426,0,0,1-.755,3.618,9.684,9.684,0,0,1-1.961,2.71l-.375-.311a9.811,9.811,0,0,0,1.8-3.066,9.23,9.23,0,0,0,.438-2.952,8.967,8.967,0,0,0-.584-3.339,10.085,10.085,0,0,0-1.65-2.679Zm9.052,12.333-.5-.457L124.433,2.057l.482.463Zm20.059-6.329a3.831,3.831,0,0,1,1.638,1.206,2.454,2.454,0,0,1,.381,1.4,2.363,2.363,0,0,1-.914,1.987,3.236,3.236,0,0,1-2.025.6,3.082,3.082,0,0,1-2.215-.762,2.375,2.375,0,0,1-.711-1.79,2.123,2.123,0,0,1,.546-1.479,4.771,4.771,0,0,1,1.466-.99,3.433,3.433,0,0,1-1.409-1.124,2.246,2.246,0,0,1-.343-1.263,2.148,2.148,0,0,1,.832-1.752,3.179,3.179,0,0,1,3.872.14,2.079,2.079,0,0,1,.667,1.568,2.037,2.037,0,0,1-.47,1.377A3.688,3.688,0,0,1,133.821,7.738Zm-.755-.368a2.813,2.813,0,0,0,1.238-.876,1.686,1.686,0,0,0,.273-.984,1.344,1.344,0,0,0-.527-1.117,1.794,1.794,0,0,0-1.149-.362,1.659,1.659,0,0,0-1.238.457,1.422,1.422,0,0,0-.4,1.041,1.379,1.379,0,0,0,.375.99,3.759,3.759,0,0,0,1.168.736Zm-.311.927a3.771,3.771,0,0,0-1.39.978,1.681,1.681,0,0,0-.349,1.06,1.643,1.643,0,0,0,.578,1.333,2.256,2.256,0,0,0,2.768-.1,1.631,1.631,0,0,0,.438-1.187,1.585,1.585,0,0,0-.432-1.143,4.02,4.02,0,0,0-1.339-.825Zm13.755,4.266a1.059,1.059,0,0,1-1.073,1.206q-.286.025-1.155.025a.432.432,0,0,1-.241-.038.778.778,0,0,1-.083-.222,2.058,2.058,0,0,0-.235-.609q.762.063,1.365.063a.525.525,0,0,0,.59-.6V9.547h-5.084a7.585,7.585,0,0,1-.736,2.5,7.4,7.4,0,0,1-1.282,1.708q-.121.14-.165.14a.664.664,0,0,1-.209-.127,1.708,1.708,0,0,0-.559-.3,6.422,6.422,0,0,0,1.936-2.971,16.875,16.875,0,0,0,.381-4.189V4.723l-.025-1.708a.09.09,0,0,1,.1-.1l1.7.025H144.7l1.7-.025q.108,0,.108.1l-.025,1.708v5.77Zm-.832-3.745V6.583h-4.913q-.025,1.352-.1,2.234Zm0-2.964V3.682h-4.913V5.853Zm5.884,5.313a1.267,1.267,0,0,0,1.206.9,1.64,1.64,0,0,0,1.555-1.016,7.411,7.411,0,0,0,.527-2.952,2.321,2.321,0,0,1-3.942.394,3.277,3.277,0,0,1-.635-2.069,3.444,3.444,0,0,1,.851-2.463,2.6,2.6,0,0,1,4.056.444,6.134,6.134,0,0,1,.7,3.212q0,5.319-3.11,5.319a2.244,2.244,0,0,1-2.247-1.289ZM154.8,7.122q-.044-3.066-1.8-3.066a1.391,1.391,0,0,0-1.257.717,3.086,3.086,0,0,0-.381,1.638,2.406,2.406,0,0,0,.508,1.631,1.368,1.368,0,0,0,1.079.489A2.075,2.075,0,0,0,154.8,7.122Zm12.27,6.252a.09.09,0,0,1-.1.1h-.628a.09.09,0,0,1-.1-.1v-.793h-6.018V13.4q0,.1-.089.1h-.641a.09.09,0,0,1-.1-.1l.025-4.456V6.437l-.025-3.275q0-.108.1-.108l1.809.025h3.859l1.809-.025q.1,0,.1.108l-.025,2.945V8.944Zm-.832-1.536V8.074h-6.018v3.764Zm0-4.494V3.821h-6.018V7.344Zm11.75-5.3a9.811,9.811,0,0,0-1.8,3.066,9.267,9.267,0,0,0-.438,2.952,8.966,8.966,0,0,0,.584,3.339,10.085,10.085,0,0,0,1.65,2.679l-.375.311a9.358,9.358,0,0,1-2.139-3.123,8.545,8.545,0,0,1-.578-3.206,8.426,8.426,0,0,1,.755-3.618,9.684,9.684,0,0,1,1.961-2.71Zm12.835,9.579a1.987,1.987,0,0,0-.451.508q-.114.165-.171.165a1.788,1.788,0,0,1-.2-.089,10.489,10.489,0,0,1-3.066-2.8,10.507,10.507,0,0,1-1.714-3.39q.1,6.037.1,6.557a.953.953,0,0,1-.47.92,3.613,3.613,0,0,1-1.612.222.432.432,0,0,1-.241-.038.673.673,0,0,1-.1-.222,1.774,1.774,0,0,0-.273-.6q.489.044,1.117.044a1.065,1.065,0,0,0,.6-.121.42.42,0,0,0,.146-.362V3.809a7.908,7.908,0,0,0-.089-1.428q.432.019.87.063.171.019.171.114s-.028.1-.083.273a3.7,3.7,0,0,0-.076.965v.609a10.411,10.411,0,0,0,1.244,3.11,14.944,14.944,0,0,0,2.057-2.12,2.477,2.477,0,0,0,.362-.622,5.2,5.2,0,0,1,.7.476.243.243,0,0,1,.114.184q0,.083-.159.171a3.169,3.169,0,0,0-.6.546,21.687,21.687,0,0,1-2.1,1.974A10.13,10.13,0,0,0,190.823,11.623ZM183.777,6.43a.224.224,0,0,1-.1.165.832.832,0,0,0-.235.394,11.125,11.125,0,0,1-3.72,5.211.455.455,0,0,1-.184.114q-.07,0-.178-.171a1.457,1.457,0,0,0-.432-.413,9.751,9.751,0,0,0,3.8-5.11h-1.86l-1.327.025a.09.09,0,0,1-.1-.1v-.59q0-.089.1-.089l1.327.025h1.923a.676.676,0,0,0,.248-.038.34.34,0,0,1,.133-.038q.133,0,.349.235Q183.777,6.31,183.777,6.43Zm8.366-4.7a9.445,9.445,0,0,1,2.146,3.123,8.629,8.629,0,0,1,.571,3.206,8.426,8.426,0,0,1-.755,3.618,9.684,9.684,0,0,1-1.961,2.71l-.375-.311a9.811,9.811,0,0,0,1.8-3.066A9.23,9.23,0,0,0,194,8.062a8.966,8.966,0,0,0-.584-3.339,10.085,10.085,0,0,0-1.65-2.679Z" transform="translate(837 15)" fill="#fff"/>
      </g>
      <g id="date_ttl">
        <g id="box" transform="translate(788 13)" fill="none" stroke="#fff" stroke-width="1">
          <rect width="40" height="20" stroke="none"/>
          <rect x="0.5" y="0.5" width="39" height="19" fill="none"/>
        </g>
        <g id="txt" clip-path="url(#clip-path-2)">
          <path id="パス_1472" data-name="パス 1472" d="M9.888,8.046a.076.076,0,0,1-.086.086L8.282,8.11H4.92q-.564,1.413-1.144,2.541,1.853-.124,4.066-.371Q7.391,9.7,6.811,9.066A.1.1,0,0,1,6.773,9q0-.038.1-.086L7.2,8.739a.247.247,0,0,1,.1-.032.093.093,0,0,1,.064.032,20.317,20.317,0,0,1,2.116,2.6.118.118,0,0,1,.027.064q0,.048-.086.1l-.338.231a.329.329,0,0,1-.124.054q-.038,0-.086-.064-.44-.671-.628-.924-2.75.36-6.059.6a.9.9,0,0,0-.419.1.2.2,0,0,1-.145.064q-.081,0-.118-.118a5.881,5.881,0,0,1-.167-.741q.269.016.548.016t.65-.016q.145,0,.473-.021A19.517,19.517,0,0,0,4.157,8.11H2.841l-1.509.021q-.1,0-.1-.086V7.557q0-.086.1-.086l1.509.021H8.282L9.8,7.471a.076.076,0,0,1,.086.086Zm.838-2.208a1.638,1.638,0,0,0-.317.44q-.1.177-.145.177a.456.456,0,0,1-.156-.064A10.784,10.784,0,0,1,5.489,2.739a11.341,11.341,0,0,1-4.42,3.674A.434.434,0,0,1,.9,6.478q-.054,0-.145-.167A1.209,1.209,0,0,0,.419,5.94a10.811,10.811,0,0,0,2.8-1.681A8.239,8.239,0,0,0,4.9,2.374a3.174,3.174,0,0,0,.285-.612,4.275,4.275,0,0,1,.688.14q.156.048.156.134a.124.124,0,0,1-.075.118l-.118.081A10.212,10.212,0,0,0,8.175,4.528,11.438,11.438,0,0,0,10.726,5.838ZM7.81,6.032a.076.076,0,0,1-.086.086L6.435,6.1H4.651l-1.284.021q-.091,0-.091-.086V5.554q0-.086.091-.086l1.284.021H6.435l1.289-.021a.076.076,0,0,1,.086.086Zm15.246,4.6a.925.925,0,0,1-.285.768,2.474,2.474,0,0,1-1.268.22.4.4,0,0,1-.209-.032.418.418,0,0,1-.075-.188,1.283,1.283,0,0,0-.209-.473q.5.032.935.032.451,0,.451-.473V8.008h-2.25a8.691,8.691,0,0,1-.44,2.2,6.212,6.212,0,0,1-.73,1.364q-.081.134-.129.134a.444.444,0,0,1-.145-.1,1.4,1.4,0,0,0-.43-.269A5.483,5.483,0,0,0,19.355,9.1a17.712,17.712,0,0,0,.226-3.325V4.114l-.021-1.74a.076.076,0,0,1,.086-.086l1.08.021H21.88l1.09-.021a.076.076,0,0,1,.086.086l-.021,1.74V9.152ZM22.4,7.423V5.446H20.22v.338q0,.994-.043,1.638Zm0-2.562V2.906H20.22V4.861ZM19.033,3.98a.076.076,0,0,1-.086.086l-.113-.005q-.328-.011-.725-.016V8.669l.827-.021a.076.076,0,0,1,.086.086v.43a.076.076,0,0,1-.086.086l-1.391-.021h-2.25l-1.4.021a.076.076,0,0,1-.086-.086v-.43a.076.076,0,0,1,.086-.086l1.069.021V4.044q-.392.005-.7.016l-.209.005q-.1,0-.1-.086V3.55q0-.086.1-.086l.913.021V3.233a7.055,7.055,0,0,0-.075-1.3,4.483,4.483,0,0,1,.682.054q.134.016.134.091a.67.67,0,0,1-.07.209,4.284,4.284,0,0,0-.054.935v.263H17.5V3.2a7.906,7.906,0,0,0-.075-1.3q.537.048.671.075.118.021.118.091a.578.578,0,0,1-.054.209,4.514,4.514,0,0,0-.054.945v.263l.838-.021a.076.076,0,0,1,.086.086ZM17.5,8.669V7.455H15.579V8.669Zm0-1.729V5.752H15.579V6.939Zm0-1.713V4.044H15.579V5.226ZM16,9.888q0,.059-.086.113a1.035,1.035,0,0,0-.231.252,7.8,7.8,0,0,1-1.45,1.4.375.375,0,0,1-.156.075q-.059,0-.156-.145a1.129,1.129,0,0,0-.306-.306,4.882,4.882,0,0,0,1.509-1.343,1.826,1.826,0,0,0,.242-.414,2.93,2.93,0,0,1,.537.252Q16,9.824,16,9.888Zm2.4.682a1.849,1.849,0,0,0-.344.306q-.091.113-.118.113a.387.387,0,0,1-.134-.086,5.3,5.3,0,0,1-.859-1.015.173.173,0,0,1-.038-.075q0-.038.1-.091l.274-.161a.211.211,0,0,1,.091-.043.087.087,0,0,1,.064.043A4.284,4.284,0,0,0,18.4,10.57Z" transform="translate(796 16)" fill="#fff"/>
        </g>
      </g>
    </g>
    <g id="organizer" transform="translate(-40)">
      <g id="organizer_txt" clip-path="url(#clip-path-3)">
        <path id="パス_1471" data-name="パス 1471" d="M10.334,13.375a.09.09,0,0,1-.1.1H9.6a.09.09,0,0,1-.1-.1v-.793H3.485V13.4q0,.1-.089.1H2.755a.09.09,0,0,1-.1-.1l.025-4.456V6.437L2.653,3.161q0-.108.1-.108l1.809.025H8.423l1.809-.025q.1,0,.1.108l-.025,2.945V8.944ZM9.5,11.838V8.074H3.485v3.764Zm0-4.494V3.821H3.485V7.344Zm15.856.336a1.532,1.532,0,0,0-.324.508q-.076.2-.171.2a.755.755,0,0,1-.2-.057,9.749,9.749,0,0,1-2.825-1.466,10.952,10.952,0,0,1-2.6,1.4.755.755,0,0,1-.209.063q-.089,0-.184-.209a1.624,1.624,0,0,0-.311-.413A9.326,9.326,0,0,0,21.29,6.392a7.641,7.641,0,0,1-1.765-2.78q-.355.006-.641.019l-.19.006q-.108,0-.108-.1V3.015q0-.1.108-.1l1.612.025h3.3a.641.641,0,0,0,.273-.051.3.3,0,0,1,.127-.038q.133,0,.381.248t.248.349q0,.089-.121.152a1.32,1.32,0,0,0-.324.47A7.9,7.9,0,0,1,22.42,6.379,9.549,9.549,0,0,0,25.359,7.681Zm-1.8-4.069H20.274a6.472,6.472,0,0,0,1.587,2.33A6.428,6.428,0,0,0,23.556,3.612ZM18.675,8.817a.15.15,0,0,1,.019.063q0,.051-.159.114l-.273.1a.487.487,0,0,1-.146.038q-.051,0-.076-.1l-.235-.711q-.375.051-1.13.127V12l.025,1.822q0,.089-.1.089h-.578q-.1,0-.1-.089L15.945,12V8.512q-.457.051-1.4.108a1.057,1.057,0,0,0-.5.114.258.258,0,0,1-.14.051q-.114,0-.133-.171Q13.7,8.2,13.66,7.9q.33.032.6.032.133,0,.235-.006h.178q.552-.717.978-1.339a20.51,20.51,0,0,0-1.923-2.025.139.139,0,0,1-.051-.083.371.371,0,0,1,.089-.152l.209-.273q.076-.1.114-.1t.076.051l.521.5a15.847,15.847,0,0,0,.939-1.625,3.719,3.719,0,0,0,.273-.717,4.3,4.3,0,0,1,.692.311q.14.07.14.159,0,.063-.121.152a.944.944,0,0,0-.216.273q-.635,1.066-1.238,1.923.438.457.908.99.565-.882.978-1.625a4.674,4.674,0,0,0,.406-.882,6.69,6.69,0,0,1,.692.349q.114.076.114.159a.209.209,0,0,1-.114.165,2.165,2.165,0,0,0-.457.584Q16.485,6.589,15.5,7.89q1.447-.083,2.095-.14a7.743,7.743,0,0,0-.438-.927.156.156,0,0,1-.025-.07q0-.038.152-.108l.222-.1a.439.439,0,0,1,.14-.044q.038,0,.083.07A13.024,13.024,0,0,1,18.675,8.817Zm6.8,4.526a.09.09,0,0,1-.1.1L23.6,13.419H20.052l-1.784.025a.09.09,0,0,1-.1-.1v-.552q0-.089.1-.089l1.784.025h1.327V10.518h-.692l-1.581.025q-.108,0-.108-.1V9.9q0-.1.108-.1l1.581.025h.692V9.306a7.511,7.511,0,0,0-.089-1.377,7.777,7.777,0,0,1,.819.083q.14.019.14.114a.686.686,0,0,1-.051.209,3.467,3.467,0,0,0-.076.933v.559h.946L24.654,9.8q.121,0,.121.1v.546q0,.1-.121.1l-1.587-.025h-.946v2.209H23.6l1.771-.025q.1,0,.1.089ZM15.209,9.737a.433.433,0,0,1-.051.159,1.212,1.212,0,0,0-.133.463,12.625,12.625,0,0,1-.559,2.406q-.051.184-.127.184a.367.367,0,0,1-.171-.076,1.755,1.755,0,0,0-.457-.2,10.675,10.675,0,0,0,.628-2.444,4.921,4.921,0,0,0,.044-.59q0-.089-.006-.178a4.1,4.1,0,0,1,.647.14Q15.209,9.661,15.209,9.737Zm3.339,1.987a.515.515,0,0,1,.006.063q0,.083-.165.121l-.3.063a.72.72,0,0,1-.133.025q-.051,0-.057-.089a14.881,14.881,0,0,0-.5-2.2.193.193,0,0,1-.019-.07q0-.057.146-.1l.273-.063a.779.779,0,0,1,.1-.013q.063,0,.1.089A11.045,11.045,0,0,1,18.548,11.724Zm8.817-8.538h3.174a3.771,3.771,0,0,1,2.552.7,2.117,2.117,0,0,1,.628,1.65,1.917,1.917,0,0,1-.635,1.485,2.665,2.665,0,0,1-1.441.622V7.75a2.86,2.86,0,0,1,1.834.838,2.149,2.149,0,0,1,.54,1.5,2.381,2.381,0,0,1-.984,2.057,3.885,3.885,0,0,1-2.317.622H27.365Zm1.1.908V7.268H30.2a2.908,2.908,0,0,0,1.854-.5,1.41,1.41,0,0,0,.527-1.149,1.313,1.313,0,0,0-.546-1.2,3.152,3.152,0,0,0-1.638-.324Zm0,4.082v3.682h2.107q2.272,0,2.272-1.822A1.593,1.593,0,0,0,32.1,8.614a3.287,3.287,0,0,0-1.822-.438Zm7.725-4.989h3.187q3.313,0,3.313,2.66a2.428,2.428,0,0,1-.99,2.088,4.041,4.041,0,0,1-2.418.641H37.312v4.189H36.194Zm1.117.908v3.6h1.923q2.292,0,2.292-1.834,0-1.765-2.215-1.765Z" transform="translate(835 37)" fill="#fff"/>
      </g>
      <g id="organizer_ttl" transform="translate(0 22)">
        <g id="box-2" data-name="box" transform="translate(788 13)" fill="none" stroke="#fff" stroke-width="1">
          <rect width="40" height="20" stroke="none"/>
          <rect x="0.5" y="0.5" width="39" height="19" fill="none"/>
        </g>
        <g id="txt-2" data-name="txt" clip-path="url(#clip-path-2)">
          <path id="パス_1473" data-name="パス 1473" d="M10.329,11.134q0,.086-.091.086L8.809,11.2H2.218L.79,11.22A.076.076,0,0,1,.7,11.134V10.6q0-.075.086-.075l1.429.021H5.081V7.8H3.54L1.987,7.82A.076.076,0,0,1,1.9,7.734V7.213q0-.075.086-.075L3.54,7.16H5.081V4.8H2.9l-1.525.021q-.091,0-.091-.086V4.211q0-.086.091-.086L2.9,4.146H8.019l1.525-.021q.091,0,.091.086v.521q0,.086-.091.086L8.019,4.8H5.785V7.16h1.67l1.552-.021q.086,0,.086.075v.521a.076.076,0,0,1-.086.086L7.455,7.8H5.785v2.75H8.809l1.429-.021q.091,0,.091.075ZM6.773,3.1q.043.027.043.059a.217.217,0,0,1-.064.113l-.306.354q-.075.086-.113.086a.137.137,0,0,1-.075-.043,8.486,8.486,0,0,0-2.1-1.354Q4.1,2.288,4.1,2.261a.273.273,0,0,1,.064-.118l.274-.3q.059-.07.1-.07a.163.163,0,0,1,.059.016A11.126,11.126,0,0,1,6.773,3.1Zm16.7,8q0,.086-.091.086l-1.45-.021H17.878v.526q0,.091-.086.091h-.467q-.086,0-.086-.091l.021-1.219V7.912q0-.575.011-.87A8.115,8.115,0,0,1,16.423,8a.334.334,0,0,1-.161.1q-.048,0-.113-.1a1.2,1.2,0,0,0-.3-.306A7.487,7.487,0,0,0,17.567,5.5a2.461,2.461,0,0,0,.3-.784,4.234,4.234,0,0,1,.6.209q.107.048.107.124,0,.054-.107.14a2.7,2.7,0,0,0-.354.521l-.167.3H19.93a4.873,4.873,0,0,0,.344-.682,2.907,2.907,0,0,0,.161-.575,5.144,5.144,0,0,1,.6.167q.124.054.124.113a.174.174,0,0,1-.075.14.5.5,0,0,0-.177.22A5.863,5.863,0,0,1,20.58,6h1.176l1.407-.021q.091,0,.091.086v.387q0,.086-.091.086l-1.407-.021H20.548V7.536h.87l1.375-.011q.086,0,.086.075v.376a.076.076,0,0,1-.086.086l-1.375-.021h-.87V9.056h.87L22.8,9.034a.076.076,0,0,1,.086.086V9.5a.076.076,0,0,1-.086.086l-1.386-.021h-.87v1.08h1.386l1.45-.021q.091,0,.091.086Zm-3.534-.462V9.561H17.878v1.08Zm0-3.1V6.521H17.878V7.536Zm0,1.52V8.041H17.878V9.056ZM16.573,2.213q0,.054-.1.15a1.338,1.338,0,0,0-.209.408q-.3.806-.693,1.638V9.953l.021,1.729q0,.086-.075.086H15a.076.076,0,0,1-.086-.086l.021-1.729V7.1q0-.483.021-1.574a12.061,12.061,0,0,1-1.021,1.386q-.107.124-.134.124t-.086-.113a1.493,1.493,0,0,0-.263-.44,11.075,11.075,0,0,0,2.186-3.894,3.681,3.681,0,0,0,.167-.736,4.454,4.454,0,0,1,.661.231Q16.573,2.127,16.573,2.213Zm6.558.435a.292.292,0,0,1-.043.145,1.212,1.212,0,0,0-.064.494v.387l.021.725a.076.076,0,0,1-.086.086L21.45,4.463H18.566l-1.52.021A.076.076,0,0,1,16.96,4.4l.021-.725v-.4a5.343,5.343,0,0,0-.043-.747,5.224,5.224,0,0,1,.661.064q.124.016.124.091a.468.468,0,0,1-.07.193,1.5,1.5,0,0,0-.043.462v.585h2.025v-.79a6.094,6.094,0,0,0-.064-1.123q.387.016.682.054.118.016.118.086a.751.751,0,0,1-.064.2,3.886,3.886,0,0,0-.043.784v.79h2.122V3.3a3.8,3.8,0,0,0-.064-.811,5.27,5.27,0,0,1,.693.064Q23.131,2.567,23.131,2.648Z" transform="translate(796 16)" fill="#fff"/>
        </g>
      </g>
    </g>
  </g>
</svg>
