<?xml version="1.0" encoding="UTF-8"?><svg id="_レイヤー_2" xmlns="http://www.w3.org/2000/svg" width="23" height="14" viewBox="0 0 23 14"><defs><style>.cls-1{fill:#00e5ff;}.cls-2{fill:#ffe5ff;}.cls-3{fill:#ff00f7;}</style></defs><g id="_レイヤー_1-2"><g><path class="cls-3" d="m9,7c0-2.152.973-4.074,2.5-5.359-1.217-1.023-2.786-1.641-4.5-1.641C3.134,0,0,3.134,0,7s3.134,7,7,7c1.714,0,3.283-.618,4.5-1.641-1.527-1.284-2.5-3.207-2.5-5.359Z"/><path class="cls-1" d="m16,0c-1.714,0-3.283.618-4.5,1.641,1.527,1.284,2.5,3.207,2.5,5.359s-.973,4.074-2.5,5.359c1.217,1.023,2.786,1.641,4.5,1.641,3.866,0,7-3.134,7-7S19.866,0,16,0Z"/><path class="cls-2" d="m14,7c0-2.152-.973-4.074-2.5-5.359-1.527,1.284-2.5,3.207-2.5,5.359s.973,4.074,2.5,5.359c1.527-1.284,2.5-3.207,2.5-5.359Z"/></g></g></svg>