<svg id="Q" xmlns="http://www.w3.org/2000/svg" width="12" height="20" viewBox="0 0 12 20">
  <path id="パス_19" data-name="パス 19" d="M11.932,9.92q0,4.159-2.214,6.048L12,18.041,9.9,20,6.858,17.178l-.874.058A5.365,5.365,0,0,1,1.6,15.306,8.235,8.235,0,0,1,0,9.965V7.339a8.331,8.331,0,0,1,1.578-5.4A5.336,5.336,0,0,1,5.96,0a5.383,5.383,0,0,1,4.325,1.866,8.069,8.069,0,0,1,1.646,5.242V9.919Zm-3.349-2.6a6.867,6.867,0,0,0-.647-3.387A2.14,2.14,0,0,0,5.961,2.834,2.129,2.129,0,0,0,4,3.9a6.623,6.623,0,0,0-.658,3.243V9.92a6.841,6.841,0,0,0,.653,3.4,2.163,2.163,0,0,0,1.992,1.094,2.114,2.114,0,0,0,1.947-1.088A6.8,6.8,0,0,0,8.584,10V7.316Z" fill="#25ebff"/>
</svg>
