<svg id="external_link" xmlns="http://www.w3.org/2000/svg" width="16" height="16" viewBox="0 0 16 16">
  <path id="パス_1470" data-name="パス 1470" d="M14.433,9.451a.754.754,0,0,1,1.509,0v4.322A2.234,2.234,0,0,1,13.709,16H2.233A2.234,2.234,0,0,1,0,13.772V2.239A2.234,2.234,0,0,1,2.233.011h4.3a.753.753,0,1,1,0,1.505h-4.3a.725.725,0,0,0-.51.212.717.717,0,0,0-.213.509V13.771a.725.725,0,0,0,.723.721H13.71a.725.725,0,0,0,.51-.212.715.715,0,0,0,.213-.509Zm.238-7.177-7.622,7.7A.752.752,0,0,1,5.974,8.921l7.329-7.4H10.252a.753.753,0,1,1,0-1.505H13.71c.668,0,1.529-.113,2.042.4.324.327.252,2.932.21,4.441-.01.391-.02.689-.02.9a.754.754,0,0,1-1.509,0c0-.04.01-.432.025-.943.021-.786.147-1.828.211-2.542" transform="translate(0 0)" fill="#0C141E"/>
</svg>
