<?xml version="1.0" encoding="UTF-8"?>
<svg id="b" data-name="レイヤー 2" xmlns="http://www.w3.org/2000/svg" xmlns:xlink="http://www.w3.org/1999/xlink" viewBox="0 0 196.55 35">
  <defs>
    <clipPath id="d">
      <rect y="1" width="45" height="34" fill="none" stroke-width="0"/>
    </clipPath>
  </defs>
  <g id="c" data-name="レイヤー 1">
    <g>
      <g isolation="isolate">
        <g isolation="isolate">
          <path d="m59.76,1.74v10.73h2.27v1.55h-6.58v-1.55h2.4V3.77c-.66.45-1.41.81-2.26,1.09l-.32-1.68c.97-.28,1.92-.76,2.84-1.44h1.64Z" fill="#fff" stroke-width="0"/>
          <path d="m68.93,1.74v10.73h2.27v1.55h-6.58v-1.55h2.4V3.77c-.66.45-1.41.81-2.26,1.09l-.32-1.68c.97-.28,1.92-.76,2.84-1.44h1.64Z" fill="#fff" stroke-width="0"/>
          <path d="m80.72,13.28c.56.05,1.17.08,1.82.08.38,0,.56-.19.56-.56v-2.8h-5.72c-.15,1.14-.43,2.11-.84,2.91-.33.64-.81,1.32-1.45,2.05-.17.18-.28.27-.34.27-.08,0-.2-.09-.38-.26-.31-.31-.69-.56-1.15-.75.74-.69,1.28-1.33,1.62-1.92.39-.66.65-1.47.8-2.42.15-.91.22-2.19.22-3.84v-2.36l-.03-2.17c0-.09.01-.15.03-.17.02-.02.07-.02.14-.02l2.13.03h4.45l2.11-.03c.09,0,.14.01.16.04.02.02.02.07.02.16l-.03,2.17v6.29l.05,3.2c0,.67-.17,1.16-.51,1.49-.22.2-.53.33-.93.38-.34.05-.92.08-1.73.08-.27,0-.43-.02-.48-.07s-.09-.19-.12-.42c-.07-.53-.21-.97-.41-1.34Zm-3.17-4.84h5.55v-2.02h-5.49c-.02.91-.04,1.59-.06,2.02Zm5.55-5.52h-5.49v1.94h5.49v-1.94Z" fill="#fff" stroke-width="0"/>
          <path d="m93.31,1.74v10.73h2.27v1.55h-6.58v-1.55h2.4V3.77c-.66.45-1.41.81-2.26,1.09l-.32-1.68c.97-.28,1.92-.76,2.84-1.44h1.64Z" fill="#fff" stroke-width="0"/>
          <path d="m104.56,1.82v1.6h-4.83l-.1,2.46c-.02.44-.05.83-.09,1.16.47-.7,1.17-1.05,2.09-1.05,1.09,0,1.96.41,2.6,1.23.56.73.84,1.65.84,2.77,0,1.37-.41,2.45-1.23,3.25-.71.68-1.6,1.02-2.68,1.02s-1.89-.25-2.54-.75c-.58-.45-.97-1.08-1.17-1.91l1.95-.59c.21,1.13.79,1.7,1.74,1.7.62,0,1.1-.27,1.43-.8.3-.47.45-1.1.45-1.88,0-.84-.18-1.48-.53-1.91-.31-.38-.72-.56-1.25-.56-.87,0-1.45.46-1.73,1.38l-1.66-.24.24-6.85h6.46Z" fill="#fff" stroke-width="0"/>
          <path d="m110.1,15.01h-1.43c-.08,0-.13,0-.14-.03-.02-.02-.03-.07-.03-.14l.03-5.7v-3.09l-.03-4.18c0-.09,0-.14.03-.16.02-.02.07-.02.15-.02l2.2.03h5.49l2.21-.03c.08,0,.13.01.15.04.02.02.02.07.02.15l-.03,3.7v3.55l.03,5.62c0,.09-.01.14-.03.16-.02.02-.07.02-.14.02h-1.42c-.09,0-.14-.01-.16-.03s-.02-.07-.02-.15v-.78h-6.71v.87c0,.08-.01.13-.03.15-.02.02-.07.02-.14.02Zm.17-11.71v3.65h6.71v-3.65h-6.71Zm0,9.09h6.71v-3.87h-6.71v3.87Z" fill="#fff" stroke-width="0"/>
          <path d="m127.45.45c-1.08,1.23-1.85,2.51-2.29,3.83-.37,1.08-.55,2.3-.55,3.65,0,1.55.24,2.93.73,4.14.45,1.13,1.15,2.24,2.11,3.33l-.48.45c-1.41-1.25-2.41-2.57-3.02-3.95-.53-1.19-.79-2.52-.79-3.98,0-1.65.35-3.14,1.04-4.48.62-1.19,1.54-2.33,2.77-3.44l.48.45Z" fill="#fff" stroke-width="0"/>
          <path d="m128.32,12.13c2.05-1.51,3.45-3.42,4.21-5.73h-1.8l-1.66.03c-.08,0-.13-.01-.15-.03s-.02-.07-.02-.14v-1.27c0-.09,0-.14.03-.16.02-.02.07-.02.14-.02l1.66.03h2.15c.17,0,.3-.02.38-.06l.11-.05s.06-.02.08-.02c.16,0,.38.16.67.48.34.34.52.59.52.73,0,.1-.05.21-.16.32-.12.12-.22.31-.31.57-.85,2.57-2.27,4.7-4.27,6.38-.18.15-.3.23-.35.23-.08,0-.19-.11-.32-.32-.25-.4-.55-.72-.9-.96Zm14.9-.24c-.35.31-.65.7-.9,1.16-.12.22-.22.34-.29.34-.06,0-.19-.07-.38-.2-1.21-.82-2.28-1.85-3.2-3.08-.83-1.09-1.45-2.24-1.87-3.43,0,.8.03,2.07.07,3.79.04,1.32.05,2.23.05,2.72,0,.71-.21,1.21-.64,1.48-.32.23-1.11.35-2.35.37-.26,0-.41-.02-.46-.07-.05-.04-.1-.18-.16-.41-.13-.54-.3-.95-.52-1.23.37.04.76.05,1.18.05.13,0,.27,0,.41,0,.53-.02.8-.18.8-.51V2.55c0-.8-.04-1.41-.11-1.83.84.03,1.42.06,1.76.09.18.02.27.08.27.18,0,.07-.02.15-.05.23-.04.1-.06.16-.06.18-.07.21-.1.58-.1,1.12v.73c.25,1.14.67,2.25,1.25,3.33.85-.75,1.59-1.52,2.23-2.32.21-.26.39-.54.54-.85.57.34,1.02.65,1.36.93.15.12.23.23.23.32,0,.1-.08.2-.23.27-.2.1-.48.34-.84.72-.59.66-1.41,1.41-2.45,2.26,1.25,1.78,2.75,3.1,4.48,3.97Z" fill="#fff" stroke-width="0"/>
          <path d="m144.59,0c1.4,1.25,2.4,2.58,3.01,3.96.53,1.2.79,2.52.79,3.96,0,1.66-.34,3.16-1.03,4.5-.62,1.18-1.54,2.32-2.77,3.42l-.49-.45c1.09-1.23,1.85-2.51,2.29-3.82.36-1.08.55-2.29.55-3.65,0-1.55-.24-2.93-.72-4.14-.45-1.14-1.16-2.25-2.12-3.34l.49-.45Z" fill="#fff" stroke-width="0"/>
          <path d="m155.26,5.05c.16-.58.32-1.25.48-2.02.11-.64.16-1.23.16-1.77.78.17,1.42.34,1.91.52.17.05.26.16.26.32,0,.09-.04.17-.11.24-.13.17-.24.37-.32.61-.08.24-.18.58-.3,1.02-.12.4-.21.7-.27.91.39-.05.81-.07,1.25-.07.81,0,1.41.29,1.8.86.35.5.52,1.2.52,2.1,0,1.04-.09,2.04-.26,3.02-.16.89-.36,1.59-.61,2.12-.45,1-1.17,1.5-2.16,1.5-.69,0-1.22-.06-1.59-.18-.19-.06-.29-.21-.29-.45-.06-.66-.16-1.15-.3-1.48.62.23,1.21.35,1.76.35.28,0,.5-.07.65-.2.13-.12.25-.34.38-.65.42-1.1.62-2.42.62-3.96,0-.61-.07-1.02-.22-1.22-.14-.18-.37-.27-.7-.27-.35,0-.8.04-1.34.11-1.05,3.05-2.12,5.55-3.22,7.52-.06.13-.14.2-.23.2-.05,0-.11-.02-.18-.05-.5-.24-.87-.47-1.11-.7-.08-.08-.12-.16-.12-.23,0-.06.02-.12.06-.18,1.27-2.19,2.24-4.28,2.93-6.27-.37.06-.89.15-1.56.27-.29.06-.58.14-.88.26-.07.03-.14.04-.2.04-.15,0-.26-.08-.32-.25-.15-.4-.32-.95-.49-1.65.59,0,1.29-.04,2.11-.11.58-.06,1.21-.14,1.89-.24Zm5.7-.12c.6-.41,1.03-.68,1.3-.82.04-.02.07-.03.11-.03.06,0,.12.04.2.11,1.21,1.14,2.1,2.44,2.66,3.89.03.06.04.1.04.14,0,.06-.03.12-.1.18-.3.29-.7.55-1.2.8-.06.03-.11.05-.16.05-.1,0-.17-.06-.2-.17-.66-1.73-1.54-3.11-2.62-4.14Z" fill="#fff" stroke-width="0"/>
          <path d="m168.16,4.45c.86.25,1.41.44,1.66.58.17.08.26.18.26.3,0,.07-.03.15-.08.24-.15.27-.26.55-.32.84-.19.96-.32,1.93-.39,2.91.82-.83,1.72-1.47,2.68-1.91.9-.41,1.79-.62,2.67-.62,1.23,0,2.19.35,2.86,1.06.58.6.87,1.39.87,2.36,0,1.58-.8,2.78-2.41,3.59-1.02.52-2.39.88-4.1,1.1-.11.02-.19.02-.25.02-.17,0-.3-.08-.39-.23-.34-.61-.7-1.06-1.09-1.36,1.86-.11,3.33-.41,4.4-.9,1.26-.54,1.89-1.35,1.89-2.41,0-.51-.17-.91-.51-1.21-.34-.29-.81-.44-1.41-.44-.75,0-1.55.25-2.42.73-.76.42-1.48.99-2.19,1.7-.27.27-.5.57-.69.88-.06.09-.12.14-.2.14-.04,0-.09-.01-.17-.03-.45-.15-.81-.29-1.09-.43-.15-.06-.23-.16-.23-.32.08-1.61.25-3.33.49-5.16.1-.72.15-1.21.15-1.45Zm1.12-2.22c.41-.61.72-1.03.95-1.25.07-.07.13-.1.2-.1.03,0,.06,0,.1.02,1.14.45,2.19,1.08,3.14,1.91.07.06.11.12.11.18,0,.04-.03.1-.08.19-.24.39-.51.77-.82,1.12-.07.08-.12.12-.17.12-.06,0-.12-.04-.2-.11-1-.88-2.08-1.57-3.23-2.08Z" fill="#fff" stroke-width="0"/>
        </g>
        <g isolation="isolate">
          <path d="m54.8,21.55c1.02.07,2.1.11,3.25.11h6.86c.58,0,.95-.03,1.11-.09.18-.08.28-.12.3-.12.11,0,.24.08.37.23.29.25.61.59.96,1.01.08.1.12.2.12.29,0,.12-.08.23-.23.34-.13.09-.27.25-.43.46-.8,1.2-1.73,2.23-2.81,3.09-.1.09-.21.14-.34.14-.14,0-.27-.05-.39-.16-.34-.28-.78-.5-1.33-.66.73-.55,1.3-1.02,1.7-1.41.42-.41.81-.87,1.16-1.38h-6.91c-.64,0-1.58.04-2.83.12-.16.01-.25-.07-.29-.24-.07-.25-.17-.82-.29-1.72Zm.96,11.14c.92-.48,1.64-.98,2.17-1.49.45-.44.84-.96,1.17-1.56.52-.98.78-2.24.78-3.78,0-.55-.05-1.05-.16-1.5.95.09,1.64.2,2.06.3.18.04.27.14.27.3,0,.08-.03.18-.08.28-.08.16-.13.38-.15.66-.06,1.83-.37,3.3-.95,4.41-.69,1.32-1.66,2.39-2.91,3.19-.16.1-.31.16-.45.16-.11,0-.22-.05-.32-.15-.36-.32-.85-.59-1.45-.81Z" fill="#fff" stroke-width="0"/>
          <path d="m69.82,26.18c.83.13,1.98.2,3.45.2h5.16c.5,0,1.16,0,1.95-.02,1.02-.02,1.59-.03,1.73-.03h.08c.14,0,.21.08.21.23.02.25.02.5.02.76s0,.5-.02.75c0,.16-.08.24-.23.24h-.06c-1.6-.02-2.79-.03-3.57-.03h-5.76l-2.35.2c-.2,0-.33-.11-.37-.34-.09-.42-.17-1.07-.24-1.95Z" fill="#fff" stroke-width="0"/>
          <path d="m89.29,23.89c.07-.77.11-1.48.12-2.16,0-.45-.04-.87-.12-1.27.89.08,1.58.2,2.08.34.18.06.27.17.27.34,0,.09-.03.2-.08.3-.11.18-.18.43-.21.75,0,.1-.03.37-.06.79-.02.31-.05.6-.08.89h2.43l2.23-.03c.22,0,.34.07.34.22,0,0-.02.57-.06,1.7-.08,2.39-.28,4.14-.59,5.26-.17.67-.42,1.17-.74,1.52-.29.31-.67.53-1.15.65-.44.11-.98.17-1.61.17-.19,0-.32-.11-.38-.32-.21-.58-.52-1.07-.93-1.45.28.01.51.02.71.02.64,0,1.13-.05,1.46-.16.23-.08.41-.21.53-.38.11-.16.22-.41.3-.74.28-1.17.43-2.77.48-4.8h-3.23c-.32,1.97-.8,3.45-1.42,4.43-.8,1.31-1.93,2.41-3.39,3.3-.14.08-.26.12-.37.12s-.21-.05-.3-.16c-.34-.38-.79-.68-1.34-.93,1.62-.82,2.88-1.91,3.76-3.27.53-.85.92-2,1.16-3.45h-1.45c-.7,0-1.47.03-2.3.09h-.04c-.12,0-.19-.09-.2-.27-.05-.26-.09-.78-.13-1.55.67.04,1.56.06,2.66.06h1.68Z" fill="#fff" stroke-width="0"/>
          <path d="m106.95,24.91v5.3c0,.94.02,2.05.05,3.33v.05c0,.15-.08.23-.24.23-.26.02-.53.02-.8.02s-.54,0-.8-.02c-.15,0-.23-.07-.23-.2v-.05c0-.25.02-.84.04-1.77.02-.61.02-1.11.02-1.51v-3.73c-1.61,1.35-3.08,2.38-4.4,3.07-.07.04-.15.06-.24.06-.11,0-.23-.05-.34-.16-.3-.3-.76-.62-1.38-.95,1.89-.97,3.57-2.07,5.04-3.28,1.3-1.07,2.44-2.18,3.41-3.34.47-.55.81-1.1,1.02-1.65.84.47,1.43.85,1.77,1.12.08.06.12.14.12.23,0,.14-.08.26-.23.35-.23.16-.55.45-.95.88-.55.66-1.18,1.33-1.88,2.02Z" fill="#fff" stroke-width="0"/>
          <path d="m112.73,22.25c.67.07,1.7.11,3.07.11h5.71c.4,0,.7-.05.88-.16.07-.04.15-.06.24-.06.07,0,.17.03.3.08.44.28.83.63,1.17,1.05.07.09.11.18.11.27,0,.14-.08.27-.23.4-.1.11-.23.32-.37.62-.86,2.07-1.89,3.81-3.1,5.2-1.44,1.64-2.96,2.91-4.54,3.81-.15.09-.29.14-.44.14s-.28-.06-.4-.17c-.33-.32-.83-.62-1.48-.88,1.23-.62,2.27-1.27,3.1-1.93.72-.57,1.43-1.26,2.12-2.07,1.2-1.37,2.11-2.89,2.71-4.56h-5.78c-.62,0-1.51.03-2.64.08-.17.02-.27-.09-.3-.32-.04-.27-.08-.8-.14-1.61Zm10.12-1.4l.77-.52s.06-.04.09-.04c.04,0,.09.02.14.07.55.42,1.05.99,1.52,1.71.03.04.05.08.05.12,0,.05-.03.09-.09.14l-.59.43s-.09.05-.12.05c-.05,0-.1-.03-.15-.1-.5-.75-1.03-1.37-1.62-1.85Zm1.4-.99l.69-.51s.07-.04.1-.04c.04,0,.08.02.13.07.61.46,1.12,1.01,1.52,1.65.03.05.05.09.05.12,0,.05-.03.11-.09.16l-.53.43s-.08.06-.12.06c-.06,0-.11-.04-.15-.11-.45-.71-.98-1.33-1.59-1.84Z" fill="#fff" stroke-width="0"/>
          <path d="m130.34,21.75l-1.95.03c-.1,0-.16-.06-.16-.17v-1.14c0-.11.05-.17.16-.17l1.95.03h3.2l1.96-.03c.08,0,.13.01.15.03s.02.07.02.14v1.14c0,.08-.01.13-.03.15-.02.02-.07.02-.14.02l-1.96-.03h-.12v1.54l1.63-.03c.12,0,.18.05.18.16l-.03,3.02v2.98l.03,4.48c0,.08-.01.13-.04.15-.02.02-.06.02-.14.02h-.98c-.09,0-.15-.01-.16-.03s-.02-.07-.02-.14v-.53h-3.8v.81c0,.12-.05.18-.16.18h-1.01c-.08,0-.13-.01-.15-.03s-.02-.07-.02-.15l.03-4.59v-2.72l-.03-3.45c0-.11.06-.16.17-.16l1.63.03v-1.54h-.2Zm1.26,4.59c-.1.95-.33,1.77-.66,2.44-.05.09-.11.14-.16.14-.07,0-.13-.07-.19-.21-.12-.28-.28-.51-.51-.7v1.51h3.8v-1.34h-.59c-.39,0-.65-.06-.79-.18-.16-.13-.23-.43-.23-.91v-2.53h-.59c0,.72-.02,1.32-.07,1.79Zm-1.52-1.79v3.28c.18-.28.31-.56.39-.84.07-.25.13-.6.18-1.06.02-.25.03-.71.03-1.38h-.6Zm0,7.45h3.8v-1.16h-3.8v1.16Zm1.59-8.71h.59v-1.54h-.59v1.54Zm2.21,1.27h-.59v1.66c0,.31.02.49.05.55.04.07.14.11.3.11h.24v-2.32Zm2.57-4.24l1.66.03h2.05l1.68-.03c.09,0,.15.01.16.03.02.02.03.07.03.15l-.03,1.71v3.6l.03,1.72c0,.08-.01.13-.03.14-.02.02-.08.03-.16.03h-1.28c-.08,0-.13-.01-.15-.03s-.02-.07-.02-.14v-.55h-2.49v4.64c0,.38.05.62.14.72.14.14.54.2,1.2.2.79,0,1.29-.11,1.49-.32.12-.14.21-.38.26-.73.04-.27.08-.73.11-1.37.32.2.68.35,1.09.45.22.06.35.11.4.16.05.04.08.12.08.23,0,.04,0,.12-.02.25-.07,1.12-.33,1.89-.78,2.3-.44.39-1.33.58-2.69.58s-2.19-.14-2.49-.41c-.27-.25-.4-.68-.4-1.28v-4.98l-.03-1.82c0-.09,0-.15.03-.17.02-.02.07-.02.16-.02l1.52.03h2.43v-3.54h-2.27l-1.66.03c-.12,0-.17-.05-.17-.16v-1.29c0-.08,0-.13.03-.15.02-.02.07-.02.14-.02Z" fill="#fff" stroke-width="0"/>
          <path d="m143.7,26.05c1.17-1.39,2.09-3.1,2.77-5.16.14-.41.23-.79.27-1.15.58.14,1.08.28,1.48.43.18.06.27.14.27.24,0,.07-.06.17-.18.29-.09.09-.2.31-.32.67-.23.67-.49,1.32-.77,1.95v8.52l.03,2.43c0,.08-.01.14-.03.16-.02.02-.07.02-.15.02h-1.33c-.1,0-.16-.06-.16-.18l.03-2.43v-5.63c-.23.36-.55.79-.95,1.27-.11.14-.21.21-.29.21-.07,0-.12-.09-.17-.27-.16-.62-.33-1.08-.52-1.37Zm6.77-1.88l-2.21.03c-.08,0-.13-.01-.15-.03-.02-.03-.02-.08-.02-.16v-1.12c0-.09,0-.14.03-.16.02-.02.07-.02.14-.02l2.21.03h5.76l2.2-.03c.09,0,.14.01.16.04.02.02.02.07.02.15v1.12c0,.09-.01.14-.03.16-.02.02-.07.02-.16.02l-2.2-.03h-5.76Zm.02,10.22h-1.3c-.08,0-.13-.01-.15-.03s-.02-.07-.02-.14l.03-2.13v-1.08l-.03-1.43c0-.1.06-.16.17-.16l2.1.03h3.82l2.06-.03c.12,0,.18.05.18.16l-.03,1.23v1.24l.03,2.11c0,.11-.06.16-.18.16h-1.33c-.12,0-.17-.05-.17-.16v-.48h-5.01v.53c0,.08-.01.13-.03.15-.02.02-.07.02-.15.02Zm4.48-12.54h-3.45l-2,.03c-.08,0-.14-.01-.16-.03-.02-.02-.02-.07-.02-.14v-1.08c0-.08.01-.13.04-.15.02-.02.06-.02.14-.02l2,.03h3.45l1.97-.03c.09,0,.15.01.17.03.02.02.02.07.02.14v1.08c0,.08-.01.13-.04.15-.02.02-.07.02-.16.02l-1.97-.03Zm-.12,4.52h-3.31l-1.98.03c-.12,0-.18-.05-.18-.16v-1.06c0-.08.01-.13.04-.15.02-.02.06-.02.14-.02l1.98.03h3.31l1.97-.03c.08,0,.13.01.15.03s.02.07.02.14v1.06c0,.1-.06.16-.17.16l-1.97-.03Zm0,2.2h-3.31l-1.98.03c-.08,0-.14-.01-.16-.03-.02-.02-.02-.07-.02-.14v-1.05c0-.08.01-.13.04-.15.02-.02.06-.02.14-.02l1.98.03h3.31l1.97-.03c.08,0,.13.01.15.03s.02.07.02.14v1.05c0,.08,0,.13-.03.14-.02.02-.07.03-.14.03l-1.97-.03Zm-4.17,2.24v1.52h5.01v-1.52h-5.01Z" fill="#fff" stroke-width="0"/>
          <path d="m161.19,24.13c.81.44,1.58,1,2.3,1.66.06.06.09.1.09.12,0,.03-.03.1-.09.2l-.72,1.02c-.05.07-.09.11-.12.11s-.09-.03-.15-.09c-.7-.69-1.46-1.28-2.27-1.77-.08-.05-.12-.09-.12-.12,0-.03.04-.09.11-.19l.66-.87c.07-.09.13-.13.18-.13.03,0,.08.02.14.05Zm-.96,9.21c.28-.38.55-.8.8-1.29.46-.95.95-2.2,1.45-3.75.25.28.55.54.9.8.22.17.34.3.34.41,0,.04-.03.15-.08.35-.48,1.38-.96,2.57-1.43,3.58-.12.28-.2.49-.23.64-.04.15-.1.23-.2.23-.08,0-.19-.04-.34-.12-.46-.28-.87-.56-1.22-.85Zm1.66-13.27c.73.41,1.52.98,2.34,1.71.06.05.09.09.09.14,0,.04-.03.1-.1.2l-.73,1.01c-.06.08-.1.12-.13.12-.03,0-.07-.02-.14-.07-.79-.77-1.58-1.4-2.37-1.88-.07-.04-.11-.08-.11-.11,0-.04.04-.11.11-.2l.73-.86c.07-.08.13-.12.17-.12.04,0,.08.02.13.05Zm4.5,8.28l-2.23.03c-.08,0-.14-.01-.16-.03-.02-.02-.02-.07-.02-.14v-1.19c0-.09.01-.14.04-.16.02-.02.06-.02.14-.02l2.23.03h1.23c.09-.72.15-1.64.16-2.75h-.73l-2.07.03c-.08,0-.13-.01-.15-.03s-.02-.07-.02-.14v-1.22c0-.09,0-.14.03-.16.02-.02.07-.02.14-.02l2.07.03h.77v-.92c0-.72-.04-1.34-.11-1.86.85.05,1.43.09,1.74.13.18.03.27.09.27.19,0,.06-.04.17-.12.34-.07.15-.11.47-.11.96v1.16h1.45l2.09-.03c.09,0,.14.01.16.03s.02.07.02.15l-.03,1.41v2.7l1.25-.03c.08,0,.13.01.15.04.02.02.02.07.02.15v1.19c0,.08,0,.13-.03.14-.02.02-.07.03-.14.03l-2.21-.03h-2.41c.84,2.01,2.45,3.51,4.83,4.5-.23.27-.47.66-.7,1.2-.1.25-.2.38-.29.38-.04,0-.17-.05-.38-.16-2.23-1.3-3.74-2.92-4.54-4.87-.67,2.03-2.03,3.66-4.1,4.91-.2.11-.33.17-.4.17-.07,0-.18-.12-.32-.37-.23-.42-.51-.75-.81-.99,1.3-.66,2.29-1.4,2.99-2.24.59-.72,1.02-1.57,1.28-2.54h-.98Zm2.92-1.48h2.23v-2.75h-2.08c-.02,1.05-.07,1.96-.15,2.75Z" fill="#fff" stroke-width="0"/>
          <path d="m181.12,26l-2.16.03c-.09,0-.15-.01-.17-.03-.02-.02-.02-.07-.02-.15v-1.17c0-.08.01-.13.04-.15.02-.02.07-.02.16-.02l2.16.03h4.52l2.16-.03c.08,0,.13.01.16.03.02.02.02.07.02.14v1.17c0,.08-.01.14-.03.16-.02.02-.07.02-.15.02l-2.16-.03h-1.36v2.12h1.95l1.84-.03c.09,0,.15.01.16.03.02.02.03.07.03.14v1.17c0,.07-.01.12-.03.13-.02.02-.08.02-.16.02l-1.84-.03h-1.95v2.73c.82.09,1.85.14,3.09.14.81,0,1.84-.05,3.1-.14-.15.36-.25.75-.3,1.15-.03.25-.08.41-.14.45-.05.04-.19.07-.43.09-.61.03-1.24.05-1.89.05-2.83-.01-4.82-.27-5.95-.78-.79-.35-1.51-1.02-2.16-2-.46,1-1.12,1.91-1.95,2.73-.17.18-.28.27-.35.27-.06,0-.16-.1-.32-.3-.26-.33-.57-.6-.93-.83,1.62-1.27,2.59-2.95,2.88-5.05.06-.5.09-.84.09-1.02.46.07.97.17,1.52.3.2.04.3.11.3.22,0,.08-.05.18-.15.3-.07.09-.14.25-.21.5-.07.43-.17.85-.29,1.26.34.66.68,1.15,1.02,1.48.37.35.83.62,1.38.81v-5.93h-1.48Zm6.69-4.55l2.11-.03c.12,0,.18.05.18.16l-.03.84v.69l.03,1.76c0,.08-.01.13-.04.15-.02.02-.06.02-.14.02h-1.31c-.08,0-.13-.01-.15-.03s-.02-.07-.02-.14v-1.94h-10.12v1.94c0,.08-.01.13-.04.15-.02.02-.07.02-.16.02h-1.3c-.08,0-.13-.01-.15-.03s-.02-.07-.02-.14l.03-1.76v-.55l-.03-.98c0-.1.06-.16.17-.16l2.13.03h3.42v-.14c0-.7-.04-1.21-.12-1.52.54,0,1.11.03,1.71.08.16.02.24.08.24.16,0,.05-.03.15-.09.3-.04.09-.06.41-.06.96v.16h3.76Z" fill="#fff" stroke-width="0"/>
          <path d="m196.55,20.53l-.43,9.52h-1.62l-.45-9.52h2.49Zm-2.4,11.08h2.27v2.16h-2.27v-2.16Z" fill="#fff" stroke-width="0"/>
        </g>
      </g>
      <g clip-path="url(#d)">
        <g>
          <path d="m6.47,35.21C2.91,35.2.03,32.33,0,28.78V7.95C.02,4.39,2.91,1.51,6.47,1.51h31.57c3.56,0,6.44,2.87,6.47,6.43v20.83c-.02,3.52-2.84,6.37-6.36,6.44H6.47Zm0-29.89c-1.46,0-2.65,1.17-2.66,2.63v20.82c.02,1.45,1.2,2.62,2.65,2.62h31.57c1.46,0,2.65-1.17,2.66-2.63V7.95c-.01-1.46-1.2-2.63-2.65-2.62H6.48Z" fill="#11add4" stroke-width="0"/>
          <path d="m19.13,12.67c-.71.03-1.28.58-1.32,1.29v8.44c-.02.46.22.89.62,1.11.41.27.93.29,1.36.06l8.1-4.21c.65-.36.88-1.17.53-1.81-.12-.22-.3-.4-.53-.53l-8.11-4.21c-.2-.1-.42-.15-.64-.15" fill="#11add4" stroke-width="0"/>
        </g>
      </g>
    </g>
  </g>
</svg>