<?xml version="1.0" encoding="UTF-8"?><svg id="_レイヤー_2" xmlns="http://www.w3.org/2000/svg" width="720" height="115" viewBox="0 0 720 115"><defs><style>.cls-1{fill:#fff;}.cls-2{fill:#11add4;}.cls-3{fill:none;}</style></defs><g id="_レイヤー_1-2"><g><rect class="cls-1" y="78.914" width="720" height="3.278"/><g><polygon class="cls-1" points="213.553 93.963 221.483 113.912 216.196 113.912 209.587 97.328 202.376 106.942 210.788 106.942 212.35 110.907 199.492 110.907 197.209 113.912 191.561 113.912 206.583 93.963 213.553 93.963"/><polygon class="cls-1" points="108.114 93.963 104.629 113.912 99.582 113.912 103.188 93.963 108.114 93.963"/><polygon class="cls-1" points="232.556 93.963 229.793 109.946 247.939 109.946 247.337 113.912 224.025 113.912 227.51 93.963 232.556 93.963"/><path class="cls-1" d="m133.53,93.963c.721,0,1.32.119,1.92.36.603.24,1.082.481,1.444.962.359.36.721.841.841,1.441.121.601.241,1.203,0,1.923l-.482,2.883c-.117.36-.238.723-.359,1.203-.241.36-.482.72-.72.96-.362.36-.603.602-.962.841-.362.241-.721.481-1.082.481.72.121,1.203.481,1.561,1.083.483.6.603,1.322.362,2.042l-.962,5.769h-4.926l.841-5.408c.117-.481,0-.841-.241-1.081-.241-.241-.483-.36-.962-.36h-9.855l-3.244-3.966h13.819c.362,0,.72-.121,1.082-.36.359-.241.6-.601.6-.962l.483-2.523c.121-.362,0-.722-.241-.962-.242-.241-.6-.36-.962-.36h-15.022l-2.882,15.982h-4.929l3.485-19.948h21.392Z"/><polygon class="cls-1" points="166.453 93.963 165.733 97.929 155.157 97.929 152.275 113.912 147.346 113.912 150.111 97.929 139.415 97.929 140.018 93.963 166.453 93.963"/><path class="cls-1" d="m195.029,93.963l-2.403,13.819c-.121.841-.482,1.682-.962,2.403-.362.722-.962,1.442-1.561,1.923-.721.601-1.444.962-2.285,1.322-.721.36-1.562.481-2.402.481h-14.299c-.841,0-1.565-.121-2.285-.481-.6-.36-1.2-.721-1.682-1.322-.479-.481-.841-1.202-.962-1.923-.238-.721-.238-1.562-.121-2.403l2.527-13.819h4.926l-2.523,14.18c0,.481.121.841.359,1.201.241.362.724.602,1.203.602h12.858c.482,0,.962-.24,1.323-.602.479-.36.721-.721.841-1.201l2.523-14.18h4.926Z"/><polygon class="cls-1" points="100.07 93.37 86.366 113.912 80.272 113.912 72.986 93.37 77.773 93.37 83.754 110.199 94.85 93.37 100.07 93.37"/><g><g><path class="cls-1" d="m432.793,93.963l-.721,3.966h-18.266c-.481,0-.842.119-1.322.481-.361.36-.601.841-.721,1.32l-1.562,8.413c0,.481,0,.841.361,1.201.24.362.721.602,1.201.602h18.146l-.721,3.966h-18.867c-.842,0-1.562-.121-2.163-.481-.721-.36-1.322-.721-1.803-1.322-.481-.481-.721-1.202-.961-1.923-.241-.721-.241-1.562-.121-2.403l1.443-7.69c.12-.841.36-1.682.841-2.404.48-.72,1.081-1.322,1.682-1.922.601-.601,1.322-.961,2.163-1.322.841-.362,1.562-.481,2.403-.481h18.987Z"/><path class="cls-1" d="m369.748,93.963c.841,0,1.562.119,2.283.481.721.36,1.202.721,1.682,1.322.481.6.841,1.202.962,1.922.241.723.241,1.563.121,2.404l-1.443,7.69c-.12.841-.36,1.682-.841,2.403-.481.722-.962,1.322-1.682,1.923-.601.481-1.322.962-2.163,1.322-.841.24-1.563.481-2.403.481h-10.816l-3.364-3.966h14.18c.48,0,.961-.24,1.322-.602.36-.36.601-.721.721-1.201l1.562-8.413c0-.479,0-.96-.36-1.32-.24-.362-.601-.481-1.201-.481h-14.661l-2.884,15.982h-5.047l3.606-19.948h20.429Z"/><path class="cls-1" d="m340.733,93.963c.841,0,1.565.119,2.285.481.6.36,1.2.721,1.682,1.322.479.6.721,1.202.962,1.922.241.723.241,1.563.121,2.404l-1.444,7.69c-.121.841-.359,1.682-.841,2.403-.479.722-1.079,1.442-1.682,1.923-.721.601-1.441.962-2.161,1.322-.841.36-1.682.481-2.406.481h-14.299c-.841,0-1.562-.121-2.282-.481-.724-.36-1.203-.721-1.685-1.322-.479-.481-.841-1.202-.959-1.923-.242-.721-.242-1.562-.121-2.403l1.32-7.69c.241-.841.483-1.682.962-2.404.483-.72.962-1.322,1.682-1.922.6-.601,1.323-.961,2.164-1.322.721-.362,1.562-.481,2.403-.481h14.298Zm.121,5.767c0-.479-.121-.96-.359-1.32-.241-.362-.72-.481-1.203-.481h-12.857c-.483,0-.962.119-1.324.481-.479.36-.721.841-.721,1.32l-1.561,8.413c0,.481,0,.841.362,1.201.238.362.6.602,1.079.602h12.978c.482,0,.962-.24,1.323-.602.362-.36.721-.721.721-1.201l1.562-8.413Z"/><path class="cls-1" d="m283.266,93.963c.6,0,1.32.119,1.803.36.6.24,1.082.721,1.441,1.081.483.481.721,1.083.841,1.682.241.601.241,1.324.121,2.044l-.721,3.725c-.121.722-.362,1.443-.72,2.042-.362.602-.841,1.203-1.444,1.684-.6.481-1.2.841-1.803,1.081-.721.241-1.32.36-2.041.36h-11.175l-3.247-4.085h13.819c.483,0,.844-.121,1.203-.36.241-.242.482-.602.482-1.082l.6-3.125c0-.481,0-.72-.121-1.081-.241-.241-.6-.36-1.083-.36h-15.019l-2.764,15.982h-5.05l3.485-19.948h21.392Z"/><polygon class="cls-1" points="621.921 93.963 607.14 107.423 605.937 113.912 600.891 113.912 602.093 107.302 591.997 93.963 597.768 93.963 605.096 103.817 615.792 93.963 621.921 93.963"/><path class="cls-1" d="m312.678,93.963c.721,0,1.32.119,1.92.36.603.24,1.082.481,1.444.962.359.36.721.841.841,1.441.121.601.241,1.203,0,1.923l-.482,2.883c-.117.36-.238.723-.359,1.203-.241.36-.482.72-.72.96-.362.36-.603.602-.962.841-.362.241-.721.481-1.082.481.72.121,1.203.481,1.561,1.083.483.6.603,1.322.362,2.042l-.962,5.769h-4.926l.841-5.408c.117-.481,0-.841-.241-1.081-.241-.241-.483-.36-.962-.36h-9.855l-3.244-3.966h13.819c.362,0,.72-.121,1.082-.36.359-.241.6-.601.6-.962l.483-2.523c.121-.362,0-.722-.241-.962-.242-.241-.6-.36-.962-.36h-15.022l-2.882,15.982h-4.929l3.485-19.948h21.392Z"/><path class="cls-1" d="m405.046,93.963l-2.403,13.819c-.121.841-.482,1.682-.962,2.403-.362.722-.962,1.442-1.561,1.923-.721.601-1.444.962-2.285,1.322-.721.36-1.562.481-2.402.481h-14.299c-.841,0-1.565-.121-2.285-.481-.6-.36-1.2-.721-1.682-1.322-.479-.481-.841-1.202-.962-1.923-.238-.721-.238-1.562-.121-2.403l2.527-13.819h4.926l-2.523,14.18c0,.481.121.841.359,1.201.241.362.724.602,1.203.602h12.858c.482,0,.962-.24,1.323-.602.479-.36.721-.721.841-1.201l2.523-14.18h4.926Z"/><polygon class="cls-1" points="461.634 93.963 460.914 97.929 450.338 97.929 447.456 113.912 442.527 113.912 445.292 97.929 434.595 97.929 435.198 93.963 461.634 93.963"/><polygon class="cls-1" points="468.545 93.963 465.06 113.912 460.012 113.912 463.618 93.963 468.545 93.963"/><path class="cls-1" d="m491.733,93.963c.841,0,1.565.119,2.285.481.6.36,1.2.721,1.682,1.322.479.6.721,1.202.962,1.922.241.723.241,1.563.121,2.404l-1.444,7.69c-.121.841-.359,1.682-.841,2.403-.479.722-1.079,1.442-1.682,1.923-.721.601-1.441.962-2.161,1.322-.841.36-1.682.481-2.406.481h-14.299c-.841,0-1.562-.121-2.282-.481-.724-.36-1.203-.721-1.685-1.322-.479-.481-.841-1.202-.959-1.923-.242-.721-.242-1.562-.121-2.403l1.32-7.69c.241-.841.483-1.682.962-2.404.483-.72.962-1.322,1.682-1.922.6-.601,1.323-.961,2.164-1.322.721-.362,1.562-.481,2.403-.481h14.298Zm.121,5.767c0-.479-.121-.96-.359-1.32-.241-.362-.72-.481-1.203-.481h-12.857c-.483,0-.962.119-1.324.481-.479.36-.721.841-.721,1.32l-1.561,8.413c0,.481,0,.841.362,1.201.238.362.6.602,1.079.602h12.978c.482,0,.962-.24,1.323-.602.362-.36.721-.721.721-1.201l1.562-8.413Z"/><polygon class="cls-1" points="527.3 93.963 523.815 113.912 517.086 113.912 504.708 98.048 501.945 113.912 496.897 113.912 500.382 93.963 507.112 93.963 519.489 109.825 522.254 93.963 527.3 93.963"/><path class="cls-1" d="m564.557,93.963c.841,0,1.562.119,2.283.481.721.36,1.202.721,1.682,1.322.481.6.841,1.202.962,1.922.241.723.241,1.563.121,2.404l-1.443,7.69c-.12.841-.36,1.682-.841,2.403-.481.722-.962,1.322-1.682,1.923-.601.481-1.322.962-2.163,1.322-.841.24-1.563.481-2.403.481h-10.816l-3.364-3.966h14.18c.48,0,.961-.24,1.322-.602.36-.36.601-.721.721-1.201l1.562-8.413c0-.479,0-.96-.36-1.32-.24-.362-.601-.481-1.201-.481h-14.661l-2.884,15.982h-5.047l3.606-19.948h20.429Z"/><polygon class="cls-1" points="588.69 93.963 596.62 113.912 591.334 113.912 584.724 97.328 577.514 106.942 585.925 106.942 587.488 110.907 574.629 110.907 572.346 113.912 566.698 113.912 581.72 93.963 588.69 93.963"/></g><path class="cls-1" d="m647.014,93.455l-.671,4.061h-18.684c-.408,0-.758.153-1.079.427-.32.305-.524.672-.612,1.069l-.204,1.13c-.058.397,0,.763.233,1.069.233.275.554.428.962.428h14.633c.904,0,1.632.122,2.215.397.584.244,1.049.611,1.37,1.038.32.458.524,1.007.612,1.649.088.641.058,1.374-.058,2.137l-.291,1.801c-.117.641-.321,1.282-.612,1.893-.321.641-.7,1.191-1.196,1.679-.495.519-1.079.916-1.748,1.221-.671.305-1.458.458-2.332.458h-20.521l.7-4.061h19.18c.408,0,.758-.153,1.079-.458.349-.275.524-.641.612-1.038l.175-1.16c.087-.397,0-.763-.204-1.069-.233-.275-.554-.427-.962-.427h-14.632c-.7,0-1.312-.122-1.895-.336-.584-.214-1.079-.519-1.457-.916-.38-.397-.671-.855-.817-1.404-.175-.55-.204-1.191-.087-1.862l.467-2.717c.116-.733.35-1.405.728-2.015.35-.611.816-1.13,1.341-1.588.524-.458,1.136-.794,1.778-1.038.641-.244,1.312-.366,2.012-.366h19.966Z"/></g></g><path class="cls-1" d="m37.242,1.315l27.885,42.224L93.01,1.315h15.308l-37.473,56.328c-1.934,2.923-3.842,4.385-5.718,4.385s-3.785-1.462-5.72-4.385L21.935,1.315h15.307Z"/><g><rect class="cls-1" x="204.274" y="1.83" width="12.569" height="60.198"/><path class="cls-1" d="m282.53,15.546c-.343-1.49-.853-2.909-1.526-4.256-.674-1.347-1.519-2.598-2.537-3.751-1.018-1.154-2.203-2.153-3.558-2.999-1.354-.846-2.87-1.509-4.547-1.989-1.677-.479-3.526-.72-5.547-.72h-40.26v11.503h40.066c.932,0,1.753.158,2.462.472.709.316,1.301.736,1.773,1.258.473.523.832,1.118,1.075,1.784.243.666.366,1.351.366,2.054v26.057c0,.688-.111,1.365-.333,2.031-.222.667-.567,1.262-1.032,1.785-.466.523-1.058.945-1.774,1.268-.717.322-1.563.484-2.537.484h-40.066v11.503h40.26c2.05,0,3.923-.237,5.622-.709,1.699-.473,3.226-1.126,4.58-1.957,1.354-.831,2.533-1.821,3.537-2.967,1.003-1.146,1.838-2.386,2.505-3.719.666-1.334,1.164-2.742,1.494-4.225.329-1.483.494-2.978.494-4.482v-23.908c0-1.519-.171-3.024-.515-4.515Z"/></g><path class="cls-1" d="m193.074,14.568c-.482-1.733-1.211-3.383-2.173-4.923-.949-1.54-2.159-2.888-3.603-4.043-1.43-1.169-3.108-2.077-5.034-2.751-1.925-.674-4.085-1.018-6.477-1.018h-40.336v11.511h40.102c.963,0,1.802.165,2.503.509.715.344,1.307.797,1.774,1.375.454.577.812,1.224,1.031,1.953.234.715.344,1.458.344,2.214-.014.77-.137,1.513-.371,2.228-.234.729-.591,1.375-1.059,1.953-.481.564-1.072,1.031-1.774,1.375-.701.344-1.513.509-2.448.509l-47.817.055V1.834h-12.57v60.195h12.57v-23.957l48.051-.055c2.407,0,4.58-.33,6.505-1.004,1.925-.674,3.617-1.595,5.061-2.751,1.43-1.169,2.64-2.517,3.589-4.057.963-1.54,1.678-3.177,2.159-4.923.467-1.747.701-3.52.701-5.35s-.234-3.617-.729-5.364Z"/><g><path class="cls-1" d="m465.955,7.446c1.886,0,3.772.315,5.028.942,1.571.632,2.828,1.258,3.772,2.515,1.255,1.257,1.886,2.515,2.2,4.086.628,1.571.628,3.143.313,5.028l-1.257,6.914c-.313,1.571-.942,3.141-1.884,4.715-.942,1.571-2.2,2.513-3.457,3.77-1.573.945-3.142,1.571-4.715,2.2-1.885.629-3.457.944-5.341.944h-32.998c-1.257,0-2.2.314-2.83,1.255-.942.628-1.571,1.571-1.884,2.515l-.942,6.914h49.024l-1.887,10.369h-62.224l3.142-18.227c.315-1.885.944-3.771,1.886-5.342.629-1.571,1.886-2.828,3.144-4.086,1.257-1.255,2.828-2.2,4.715-2.828,1.569-.629,3.77-.942,5.97-.942h33.311c.942,0,2.2-.316,2.829-.942.628-.944,1.257-1.886,1.571-2.83l.315-2.826c.315-1.258,0-1.886-.315-2.831-.627-.627-1.571-.942-2.513-.942h-43.999l1.886-10.371h47.14Z"/><path class="cls-1" d="m686.831,7.446c1.569,0,3.453.315,5.026.942,1.257.632,2.826,1.258,3.772,2.515.942,1.257,1.569,2.515,2.2,4.086.315,1.571.315,3.143,0,5.028l-.631,4.399c-.311.944-.626,1.886-1.257,2.83-.311.942-.942,1.884-1.569,2.826-.942.631-1.573,1.573-2.515,2.2-.942.63-2.2.944-3.141.944.942.313,1.884.942,2.515,1.571.626.628,1.253,1.257,1.884,2.2.315.944.627,1.886.627,2.828.315.944.315,1.886,0,2.828l-.627,4.715c-.315,1.571-.942,3.141-1.573,4.715-.942,1.257-1.884,2.828-3.142,3.77-1.257,1.257-2.83,1.886-4.715,2.829-1.884.628-3.768.942-6.283.942h-49.655l1.571-10.369h46.511c1.257,0,2.2-.629,2.831-1.258.942-.628,1.569-1.57,1.569-2.828l.63-2.828c.311-.944,0-1.886-.63-2.828-.311-.628-1.257-.942-2.511-.942h-36.144l1.573-10.371h36.455c1.257,0,2.2-.316,3.142-1.257.626-.629.942-1.571,1.257-2.515l.626-2.826c0-1.258,0-1.886-.626-2.831-.316-.627-1.257-.942-2.515-.942h-46.196l1.571-10.371h49.97Z"/><path class="cls-1" d="m540.993,7.446c2.199,0,4.398.315,5.976,1.257,1.885.629,3.453,1.886,4.399,3.457,1.253,1.257,2.2,3.141,2.822,5.028.315,1.886.315,4.086,0,6.285l-3.453,20.114c-.316,2.2-1.262,4.399-2.515,6.285-.947,1.884-2.516,3.457-4.399,5.028-1.569,1.571-3.462,2.513-5.661,3.457-1.883.629-4.083,1.255-6.283,1.255h-38.655c-2.2,0-4.083-.626-5.968-1.255-1.885-.944-3.146-1.886-4.399-3.457-1.261-1.571-2.2-3.143-2.515-5.028-.631-1.886-.631-4.086-.315-6.285l3.768-20.114c.316-2.2.947-4.399,2.2-6.285,1.262-1.887,2.515-3.77,4.399-5.028,1.577-1.571,3.462-2.828,5.662-3.457,2.199-.942,4.083-1.257,6.283-1.257h38.655Zm.315,14.771c.315-1.257,0-2.2-.632-3.141-.938-.943-1.883-1.258-3.137-1.258h-35.202c-1.253,0-2.515.315-3.453,1.258-.947.942-1.577,1.884-1.893,3.141l-3.769,22.314c-.315,1.257,0,2.2.632,3.143.63.942,1.568,1.571,3.137,1.571h34.886c1.262,0,2.515-.629,3.777-1.571.938-.944,1.568-1.886,1.883-3.143l3.769-22.314Z"/><path class="cls-1" d="m615.854,7.446c1.886,0,3.772.315,5.028.942,1.571.632,2.828,1.258,3.772,2.515,1.255,1.257,1.886,2.515,2.2,4.086.628,1.571.628,3.143.313,5.028l-1.257,6.914c-.313,1.571-.942,3.141-1.884,4.715-.942,1.571-2.2,2.513-3.457,3.77-1.573.945-3.142,1.571-4.715,2.2-1.885.629-3.457.944-5.341.944h-32.998c-1.257,0-2.2.314-2.83,1.255-.942.628-1.571,1.571-1.884,2.515l-.942,6.914h49.024l-1.887,10.369h-62.224l3.142-18.227c.315-1.885.944-3.771,1.886-5.342.629-1.571,1.886-2.828,3.144-4.086,1.257-1.255,2.828-2.2,4.715-2.828,1.569-.629,3.77-.942,5.97-.942h33.311c.942,0,2.2-.316,2.829-.942.628-.944,1.257-1.886,1.571-2.83l.315-2.826c.315-1.258,0-1.886-.315-2.831-.627-.627-1.571-.942-2.513-.942h-43.999l1.886-10.371h47.14Z"/></g><path class="cls-2" d="m332.359,42.71h-17.21v-12.705h21.355v12.705h0v4.235h16.94v1.892h0v19.553h-12.705v-17.21h-4.235v21.445h21.265v-25.68h25.68v-21.265h-21.445v4.235h17.21v12.705h-21.445v-16.94h-16.94V4.235h12.705v17.21h4.235V0h-21.265v25.68h-25.68v21.265h21.445v-4.235h.09Zm8.56-12.705h12.705v12.705h-12.705v-12.705Z"/></g><rect class="cls-3" width="720" height="115"/></g></svg>