<svg xmlns="http://www.w3.org/2000/svg" width="28.15" height="13.34"><g data-name="レイヤー 2"><path d="M2.45 13.34a1 1 0 01-.69-.26.94.94 0 01-.29-.71V5.13H1a.94.94 0 01-.68-.29 1 1 0 010-1.37A1 1 0 011 3.2h.5V1.09a.9.9 0 01.29-.7 1 1 0 01.66-.26 1 1 0 01.69.26.9.9 0 01.29.7V3.2h.39a1 1 0 01.69 1.64.94.94 0 01-.69.29h-.39v7.24a.94.94 0 01-.29.71 1 1 0 01-.69.26zm3.92-.18a1 1 0 01-.68-.16.73.73 0 01-.27-.58.2.2 0 010-.11v-.06c-.09.15-.19.32-.31.49a.93.93 0 01-.62.42.86.86 0 01-.72-.16.75.75 0 01-.33-.59 1 1 0 01.21-.65 4.27 4.27 0 00.65-1.14 7.05 7.05 0 00.38-1.33H4.4A.82.82 0 013.79 9a.82.82 0 010-1.2.82.82 0 01.61-.25h.43a1.7 1.7 0 000-.22v-.2a.47.47 0 010-.21 1.18 1.18 0 01.07-.2 1 1 0 01-.24-.22.89.89 0 01-.13-.73A.83.83 0 015 5.2a5.32 5.32 0 001.18-.88 3.3 3.3 0 00.68-1H5.63A.79.79 0 015 3.05a.83.83 0 01-.24-.6.77.77 0 01.24-.58.79.79 0 01.59-.24h1.62V.91A.89.89 0 017.62.2a1.07 1.07 0 01.72-.2.86.86 0 01.66.35 1.1 1.1 0 01.19.8v.25a1.81 1.81 0 010 .23h.72a4.62 4.62 0 011.45.18 1.15 1.15 0 01.71.65 3.18 3.18 0 01.13 1.37 3.47 3.47 0 01-.47 1.72 1.9 1.9 0 01-1.06.74.82.82 0 01.66.84 1.41 1.41 0 010 .2v.21a2.92 2.92 0 011.19.21 1.2 1.2 0 01.61.66 3.61 3.61 0 01.14 1.25q0 .35-.06.84c0 .33-.06.63-.08.91a2 2 0 01-.56 1.3 2.05 2.05 0 01-1.4.45 1 1 0 01-.68-.19.71.71 0 01-.28-.58.2.2 0 010-.11v-.06a4.64 4.64 0 01-.3.49.93.93 0 01-.62.42.89.89 0 01-.78-.13.77.77 0 01-.32-.59 1 1 0 01.21-.65 4.27 4.27 0 00.65-1.14 7 7 0 00.37-1.33h-.14a.85.85 0 010-1.7h.3v-.42a.83.83 0 01.09-.45.73.73 0 01.33-.33h-.31A1.16 1.16 0 019 6.18a.82.82 0 01-.33-.65.94.94 0 01.21-.68 1 1 0 01.72-.3.82.82 0 00.5-.16.83.83 0 00.2-.48.65.65 0 000-.49.6.6 0 00-.45-.13h-1a6.18 6.18 0 01-.93 1.87 5.64 5.64 0 01-1.59 1.37.87.87 0 01.22.6 1.41 1.41 0 010 .2v.21a3 3 0 011.19.21 1.15 1.15 0 01.6.66 3.38 3.38 0 01.14 1.25q0 .35-.06.84c0 .33-.05.63-.08.91a2 2 0 01-.55 1.3 2.1 2.1 0 01-1.42.45zm-.67-1.45a1 1 0 01.49-.2.77.77 0 00.35-.1.61.61 0 00.17-.41V9.82a.92.92 0 00-.06-.46.4.4 0 00-.33-.14 10.15 10.15 0 01-.26 1.29 8.18 8.18 0 01-.36 1.2zm4.74 0a1 1 0 01.49-.2.82.82 0 00.36-.1.61.61 0 00.16-.37c0-.12 0-.29.06-.52s0-.45 0-.66a.92.92 0 00-.06-.46.4.4 0 00-.33-.14 12.23 12.23 0 01-.27 1.29 6.32 6.32 0 01-.41 1.16zM24.23 13a1.35 1.35 0 01-1-.3 1.19 1.19 0 01-.35-.85 1 1 0 01.31-.86 1.28 1.28 0 01.92-.33 2.49 2.49 0 00.82-.11.8.8 0 00.44-.39 3.71 3.71 0 00.27-.85c.07-.37.13-.79.18-1.27S25.94 7 26 6.3a1.29 1.29 0 00-.27-1 1.29 1.29 0 00-.91-.26h-1.76a12.78 12.78 0 01-.72 3.36 7.36 7.36 0 01-1.6 2.6 9 9 0 01-2.68 1.84 1.36 1.36 0 01-1 .12 1 1 0 01-.64-.57 1 1 0 010-.82A1.05 1.05 0 0117 11a6.8 6.8 0 002.06-1.3 4.87 4.87 0 001.22-1.87 9.71 9.71 0 00.56-2.7h-3.21a1 1 0 01-.74-.3 1.06 1.06 0 010-1.41 1 1 0 01.74-.3h3.29V1.39a1.06 1.06 0 01.33-.81 1.08 1.08 0 01.75-.3 1.13 1.13 0 01.79.3 1.06 1.06 0 01.33.81v1.69h1.75a3.67 3.67 0 012.51.72 3.09 3.09 0 01.74 2.52c0 .79-.07 1.47-.13 2s-.12 1.08-.19 1.53a5.05 5.05 0 01-.6 1.91 2.16 2.16 0 01-1.13 1 5.13 5.13 0 01-1.84.24z" fill="#fff" data-name="レイヤー 1"/></g></svg>