<svg xmlns="http://www.w3.org/2000/svg" width="630" height="110.94"><defs><style>.cls-1{fill:#ff5064}.cls-2{fill:#fff}</style></defs><g id="レイヤー_2" data-name="レイヤー 2"><g id="レイヤー_1-2" data-name="レイヤー 1"><rect class="cls-1" width="630" height="110.94" rx="11.94"/><path class="cls-2" d="M22.15.03V46.8l23.38-23.38 23.39 21.04V.03H22.15zM246 20.36a5.41 5.41 0 01-.32 1.82 4.82 4.82 0 01-1 1.66 5.17 5.17 0 01-1.93 1.25 8 8 0 01-2.86.47h-3.31v6.29h-5.06V15.09h8.37a7.75 7.75 0 012.86.48 5.31 5.31 0 011.93 1.26 5 5 0 011 1.68 5.63 5.63 0 01.32 1.85zm-5.16 0a1.77 1.77 0 00-.7-1.64 5.11 5.11 0 00-2.54-.44h-1.06v4h1.09a9.3 9.3 0 001.93-.16 1.62 1.62 0 001-.58 2.09 2.09 0 00.31-1.15zm24.22 3.98a7.68 7.68 0 01-.81 3.67 6.36 6.36 0 01-2.13 2.4 9.12 9.12 0 01-2.85 1.27 12.33 12.33 0 01-3 .39 12.06 12.06 0 01-4.15-.73 7.3 7.3 0 01-3.36-2.46 7.15 7.15 0 01-1.36-4.54v-9.25h5.05v8a6.76 6.76 0 00.47 2.73 3.32 3.32 0 001.33 1.59 4 4 0 002 .5 3.87 3.87 0 002-.49 3.28 3.28 0 001.33-1.58 6.71 6.71 0 00.48-2.73v-8h5.06zm18.04 2.76a4.39 4.39 0 01-1.48 3.46 6.12 6.12 0 01-4.15 1.29h-9.68V15.09h8.1a11.09 11.09 0 012.74.3 5.46 5.46 0 011.88.83 3.28 3.28 0 011.06 1.24 3.43 3.43 0 01.35 1.56 4 4 0 01-.36 1.7 4 4 0 01-.9 1.28 3.35 3.35 0 01-1.08.71 6.63 6.63 0 012.62 1.71 3.93 3.93 0 01.9 2.68zm-5.9-7.18a1.62 1.62 0 00-.8-1.61 5.78 5.78 0 00-2.49-.4h-1.07v4h1.09a5.71 5.71 0 002.5-.4 1.63 1.63 0 00.77-1.59zm.82 7c0-1.43-1-2.15-3.12-2.15h-2.06V29h2.06c2.1 0 3.1-.68 3.1-2.11zm19.82 4.93H285.1V15.09h5.06v12.75h7.68zm6.78 0h-5.06V15.09h5.06zm18-1.26a11.53 11.53 0 01-2.13.88 14 14 0 01-2.19.46 19.07 19.07 0 01-2.3.14 12 12 0 01-3.92-.6 8.52 8.52 0 01-3-1.79 7.42 7.42 0 01-1.91-2.76 9 9 0 01-.64-3.46 9 9 0 01.75-3.79 7.32 7.32 0 012.1-2.71 9.25 9.25 0 013.07-1.59 12.76 12.76 0 013.64-.51 19.72 19.72 0 016.47 1.27v4.45a17.15 17.15 0 00-2.46-1.29 7.38 7.38 0 00-2.86-.51 6.48 6.48 0 00-2.74.58 5.05 5.05 0 00-2 1.66 4.14 4.14 0 00-.78 2.51 4.26 4.26 0 00.68 2.33 4.8 4.8 0 001.88 1.68 5.77 5.77 0 002.72.62 9.14 9.14 0 002.31-.29 11.2 11.2 0 001.83-.66 15 15 0 001.53-.86zm25.51-6.82a7.93 7.93 0 01-.94 4.14 8.82 8.82 0 01-2.19 2.53 8 8 0 01-5 1.41h-9.05V15.09h7a18.77 18.77 0 012.69.16 11.82 11.82 0 012 .46 8 8 0 011.52.67 7.42 7.42 0 011.12.79 7.49 7.49 0 011.51 1.66 8.2 8.2 0 011 2.21 9.53 9.53 0 01.34 2.73zm-5.13-.21a5.59 5.59 0 00-.78-3.19 3.85 3.85 0 00-1.88-1.53 6.59 6.59 0 00-2.23-.39H336v9.93h2.15a6.18 6.18 0 003.44-.94c.91-.63 1.41-1.93 1.41-3.88zm25.42 8.29h-5.18l-1.37-3.4h-7.28l-1.39 3.4H348l7.41-16.76H361zm-7.71-6.31l-2.45-6.12-2.48 6.12zm25.05-10.45l-6.57 9.08v7.68h-5.06v-7.58l-6.68-9.18h5.24l3.85 5.27 3.86-5.27zM398.49 27a4.6 4.6 0 01-.81 2.72 5 5 0 01-2.24 1.76 8.34 8.34 0 01-3.3.61c-.35 0-.77 0-1.28-.07a13 13 0 01-2-.37 16 16 0 01-2.6-.89v-4.13a18.07 18.07 0 002.49 1.3 6.65 6.65 0 002.64.52 2.26 2.26 0 001.67-.43 1.25 1.25 0 00.38-.8 1.38 1.38 0 00-.65-1.14 9.44 9.44 0 00-1.9-1 14.74 14.74 0 01-2.42-1.27 5.66 5.66 0 01-1.7-1.71 4.4 4.4 0 01-.66-2.43 4.58 4.58 0 01.67-2.45 4.64 4.64 0 012-1.75 7.77 7.77 0 013.34-.65 11.9 11.9 0 014.56.88 10 10 0 011.06.53v3.94a12.69 12.69 0 00-2.29-1.32 6.33 6.33 0 00-2.7-.58 2.1 2.1 0 00-1.37.36 1.13 1.13 0 00-.42.89 1.1 1.1 0 00.42.86 7.71 7.71 0 001.51.89 28.9 28.9 0 013.1 1.63 6.15 6.15 0 011.82 1.67 4.06 4.06 0 01.68 2.43zM115 41.59h400v1.67H115zm0 35.67h400v21.48H115z"/><path class="cls-1" d="M217.47 87.56v2.17H205.8v-2.17zm6.38 5.24a4.51 4.51 0 002-.93 7.62 7.62 0 01-1.11-1.56l.84-.59h-1.09V88h5l.6.67a9.73 9.73 0 01-1.78 3.23 6.12 6.12 0 002.21 1 9.42 9.42 0 00-.93 1.55 11.85 11.85 0 01-2.44-1.39 6.94 6.94 0 01-2.32 1.33 4.39 4.39 0 00-1-1.51v.41c0 1.07-.73 1.16-2.25 1.18a5.81 5.81 0 00-.58-1.75 3.36 3.36 0 00.89.13c.44 0 .44-.17.44-.54V89.2a3.39 3.39 0 01-.35 0v3.09h-1.07v-3a1.09 1.09 0 01-.26 0 15.88 15.88 0 01-.89 5 2.67 2.67 0 00-1.55-.75 12.2 12.2 0 00.93-4.07H219c-.09.17-.17.27-.27.27a.15.15 0 01-.13-.12l-.3-1.74h.8v-4.07h1.22c.09-.22.29-.75.46-1.29l1.91.18c.08 0 .13.06.13.11s-.23.26-.32.29c-.09.19-.22.52-.31.71h1.64v3a3.05 3.05 0 001-2.42v-1.45h4v2.82c0 .14 0 .25.14.25s.31-.74.35-1.14a3.34 3.34 0 001.48.67c-.24 1.67-.43 2-1.33 2h-1.3a1 1 0 01-1-1.06v-1.93h-.6a5.17 5.17 0 01-1.43 3.33 3.2 3.2 0 00-1.29-.77v.52h.47c0 .27 0 1.1-.07 1.42h-.4zm-3.18-7l1.24-.23a17.23 17.23 0 01.44 1.75v-1.95h-1.68zm0 2.1l1.68-.12v-.39a9.17 9.17 0 00-1.3.26 8.61 8.61 0 00-.38-1.57zm5.7 1.85a4.85 4.85 0 00.65 1 4.63 4.63 0 00.62-1zm10.21-5.41a.21.21 0 01.1.17c0 .1-.09.13-.15.15l-.24.07a13 13 0 01-3.53 4.59 4.15 4.15 0 00-1.59-1.32 9.59 9.59 0 003.58-4.57zm2.87 4.19a30.41 30.41 0 013.37 4.93 5.07 5.07 0 00-1.82 1.06 10.82 10.82 0 00-.56-1.13c-2.87.41-5.86.64-7.2.73 0 .09 0 .35-.23.35s-.18-.09-.22-.28l-.44-1.89h1.4a43 43 0 002.39-6l2 .68c.07 0 .18.06.18.19s-.26.19-.39.21c-.26.64-1.11 2.81-2.13 4.77.32 0 2.35-.19 3.71-.35-.74-1.1-1.15-1.63-1.6-2.2zm1-5.53c.36 2.31 1.46 3.47 3.37 4.8a3.42 3.42 0 00-1.33 1.39 9.24 9.24 0 01-3.66-4.53h-1.93V83zm12.13 8.4v2.77h-1.64V91.4H250a4.94 4.94 0 01-2 3 3.83 3.83 0 00-1.45-1v.93h-1.85V82.92h5.42v4.5h-3.57v6.06a3 3 0 001.78-2.08H247V90h1.5v-.76h-1.19v-1.4h6.26v1.36h-1v.8h1.3v1.4zm-4.18-7.2h-1.84v.48h1.84zm0 1.46h-1.84v.49h1.84zm2.54 3.54h-.8v.76h.82zm2.77 5.27a4.51 4.51 0 00-.69-1.89 4 4 0 00.75.11c.25 0 .52 0 .52-.45v-4.82h-3.59v-4.5h5.44V93c0 1.17-.74 1.49-2.43 1.47zm.58-10.27h-1.86v.48h1.86zm0 1.46h-1.86v.49h1.86zm9.21 6.61a4.12 4.12 0 003.63-4 3.06 3.06 0 00-3-3.16c-.4 4.73-2.35 8.25-3.72 8.25-1 0-2.88-1.7-2.88-4.09a6.35 6.35 0 016.33-6 5 5 0 015.3 5 6 6 0 01-1.52 4 7.18 7.18 0 01-2.81 1.88 8.4 8.4 0 00-1.33-1.88zm-4.05-3.19c0 1 .56 1.75.83 1.75s.56-.58.7-.92a11.38 11.38 0 001-4.45 4.4 4.4 0 00-2.53 3.62zm16.45-3.55v-.85H273v-1.9h5c0 .33-.09 1.82-.09 2.12a9.47 9.47 0 004.74 8.29 5.19 5.19 0 00-1.69 1.41 12.24 12.24 0 01-4.68-6.51 11.68 11.68 0 01-4.88 6.52 5.64 5.64 0 00-1.59-1.44 9.84 9.84 0 005-7.85zm12.88 5.36a9.32 9.32 0 01-1.53 1.57 3.12 3.12 0 00-1.21-.87c.23-.18.42-.32.72-.58-.8.35-1.78.72-2.83 1.07 0 .16-.05.34-.19.34s-.18-.17-.21-.3l-.44-1.82a10 10 0 001.46-.27v-2.94h-1.33v-1.68h1.33v-2.69l1.91.11c.16 0 .28 0 .28.14s-.08.16-.28.24v2.2h1.16v1.68h-1.16v2.35c.32-.12.51-.2.82-.34h-.09v-1.31H295v1.31h-5l-.25.41h5.16c0 1.3 0 3.89-.88 4.55a3.59 3.59 0 01-2.13.43 4 4 0 00-.35-1.4 10 10 0 01-1.55 1.62 3.12 3.12 0 00-1.37-.83 9.08 9.08 0 002.73-3h-.58a9 9 0 01-3.4 3.43 3.38 3.38 0 00-1.14-1 7.81 7.81 0 003-2.39zm-1.18-1.79a5.64 5.64 0 00-.09 1.15 8.43 8.43 0 00.79-1.15zm6.52-1.74h-6v-4.55h6zm-1.75-2.76v-.44h-2.54v.44zm-2.54 1v.44h2.54v-.44zm3.05 5.26a14.16 14.16 0 01-1 1.8h.46c.26 0 .49 0 .58-.32a6.64 6.64 0 00.23-1.5zm15.06-3.78v1.63h-1.46a5.52 5.52 0 001.79 1 5.33 5.33 0 00-1.07 1.38 5.55 5.55 0 01-1.42-.79c0 1-.16 3.13-.72 3.63a3.61 3.61 0 01-2.39.49 2.75 2.75 0 00-.52-1.78c.43 0 .67.07.84.07.52 0 .89 0 .94-1.59h-1.38a5.84 5.84 0 01-4.94 3.41 3.55 3.55 0 00-.86-1.62c1.56-.1 2.93-.45 3.78-1.79h-1.74v-.77a7.35 7.35 0 01-1.73 1 5.16 5.16 0 00-1.26-1.36 8.28 8.28 0 002.3-1.21h-1.9v-1.7h3.33c.12-.22.2-.38.3-.61h-2.7v-1.55h1.1a6.09 6.09 0 00-1.23-1.47l1.66-.83a8.6 8.6 0 011.5 1.81 7.69 7.69 0 00-1 .49h1.24a9.53 9.53 0 00.38-2.31l2 .15c.07 0 .2 0 .2.16s-.14.17-.34.24c-.08.49-.17 1-.35 1.76h2c-.33-.14-.71-.28-1-.39a6.93 6.93 0 001.05-2l1.87.71s.14.08.14.15-.1.16-.36.19a12.07 12.07 0 01-.78 1.3h1.87v1.55h-2.58a4.53 4.53 0 00.39.61zm-3.19 2.38c-.44-.4-.69-.69-.75-.75h-3.52c-.27.32-.46.54-.67.75zm-1.84-2.38a5.29 5.29 0 01-.28-.61h-.82a6.21 6.21 0 01-.28.61zm10.01-2.77a12.47 12.47 0 011.44 1.39 3.28 3.28 0 00-.93.85h2.68v-.43h-1.74v-1.06h1.74v-.42h-2.52v-1.23h2.52v-.83l1.93.12c.12 0 .25 0 .25.17s-.12.19-.25.26v.28h2.79v1.23H318v.42h2v1.06h-2v.43h3v1.2h-7.9v-1a4.56 4.56 0 00-.54-.71v8.38h-1.89v-9a.37.37 0 01-.2 0 16.24 16.24 0 01-.53 3.16 5.15 5.15 0 00-1.45-.61 11.29 11.29 0 00.53-3.14l1.48.19h.17v-2.39l2 .11c.07 0 .22 0 .22.17s-.16.23-.34.3v1.34zm2.84 8.17v2h-1.89v-6.26h6.65V93c0 .93 0 1.55-2.38 1.47a4.26 4.26 0 00-.66-1.64c.42.06.81.09.88.09.29 0 .29-.06.29-.48zm2.89-2.58v-.55h-2.89v.55zm0 1.56v-.54h-2.89v.54zm7.2-.76h1.77v1.52h-1.77v2.29h-1.73v-2.29h-1.78V90.7h1.78v-.62h-2v-1.53h.75a4.25 4.25 0 00-.37-1l1-.29h-1.6V85.8h2.22v-.61h-1.59v-1.44h1.59v-1.08l1.82.09a.16.16 0 01.18.15c0 .11-.13.2-.27.29v.55h1.67v1.44h-1.67v.61h2v1.51h-1.49l.87.18c.12 0 .23.05.23.18s-.1.18-.33.2c-.12.31-.24.58-.29.68h.92v1.53h-1.89zm-1.61-3.39a10.49 10.49 0 01.44 1.1l-.46.14h1a6.48 6.48 0 00.42-1.24zm5.71 7.2h-1.81V82.92h5.3a25.75 25.75 0 01-.08 3.29c-.15.86-.94 1.1-2.34 1.12a3.88 3.88 0 00-.68-1.79 3 3 0 00.81.09c.44 0 .49-.09.49-.58v-.5H330v3.06h3l.86.9A17.05 17.05 0 01332.6 92a7.63 7.63 0 001.52 1.43 6.16 6.16 0 00-1.43 1.17 13.8 13.8 0 01-1-1.06 5.62 5.62 0 01-.78.93 4.49 4.49 0 00-.93-.75zm1.11-5.23a6.15 6.15 0 00.4 1.17 6.3 6.3 0 00.39-1.24H330V90zM330 93a8.76 8.76 0 00.65-.89 7.29 7.29 0 01-.65-1.42zm8.25-9.35c.11 0 .17.1.17.18s-.24.19-.36.2a17.71 17.71 0 00-.78 5 10.86 10.86 0 00.09 1.3l.61-.92a5.67 5.67 0 00.93 1.28 5.74 5.74 0 00-1.07 3.17l-1.73.32a18.27 18.27 0 01-.7-5.21 23 23 0 01.78-5.92zm6.14-.28c.07 0 .17 0 .17.14s-.18.2-.3.21a14.19 14.19 0 00-.13 1.55 11.26 11.26 0 001.92-.48v1.95c-.3.08-.9.22-2 .42a20.35 20.35 0 00.21 3 7.31 7.31 0 012.45 1.33c-.2.38-.59 1.22-.87 1.82a4.55 4.55 0 00-1.39-1c-.05 1.66-1.7 1.85-2.52 1.85-1.94 0-2.91-1.06-2.91-2.26 0-1.54 1.53-2.12 3.21-2.08-.1-1.48-.12-1.64-.14-2.39-.74.06-1.27.06-1.49.06a8.62 8.62 0 01-1 0v-2a14.14 14.14 0 002.43.09v-2.52zm-2.67 8c-.29 0-.91.09-.91.49s.43.48.84.48c.11 0 .88 0 .88-.63a.31.31 0 000-.17 1.83 1.83 0 00-.81-.16zM352 89.46a3.4 3.4 0 00-1.16 1.63.49.49 0 00.26.41 8.22 8.22 0 002.57.28 17.18 17.18 0 005-.64 15.48 15.48 0 00.37 2.14 27.3 27.3 0 01-5.47.52c-3 0-4.86-.54-4.86-2.51 0-1.11.9-2.09 1.92-3zm6.2-4.46a12.34 12.34 0 00-4.07 2.56L353 86.21a5.22 5.22 0 00.92-.77c-.32 0-1.13.08-2.3.08s-1.44-.06-1.75-.08l-.1-2.13a22.82 22.82 0 003.9.28 18 18 0 003.51-.28zm8.8-1.95c.1 0 .24.08.24.2s-.06.17-.28.18c-.29.88-.31 1-.38 1.17a19.69 19.69 0 004.22-1c.06.42.23 1.41.36 1.92a22.23 22.23 0 01-5.29 1.1c-.31.85-.41 1.11-.67 1.75a7.6 7.6 0 013.36-.88c3.45 0 3.63 2.43 3.63 3.07a3.2 3.2 0 01-1.38 2.61c-.69.47-2 1.24-5.56 1.24a10.92 10.92 0 01-1.2-.06 9.4 9.4 0 00-.48-1.93 18.61 18.61 0 001.93.12 8.76 8.76 0 003.84-.79 1.31 1.31 0 00.69-1.21c0-.75-.38-1.39-1.57-1.39a6.65 6.65 0 00-4.46 2.14l-1.87-.93a17.47 17.47 0 001.72-3.63c-1.12 0-2 0-2.5-.08v-2.12a11.73 11.73 0 003.13.29 16.79 16.79 0 00.49-2.29zm11.56 2.53c.09 0 .19 0 .19.17s-.15.17-.29.18a8.45 8.45 0 00-.86 2.24 7.16 7.16 0 013.78-1.17 3.13 3.13 0 013.3 3.18c0 2.47-2.32 4.16-6.6 4.16h-.94a7.26 7.26 0 00-.61-2.17 7.47 7.47 0 001.91.19c2.94 0 4.1-1.1 4.1-2.18 0-.38-.18-1.32-1.51-1.32a6 6 0 00-4.13 2.12l-1.84-.67a30.65 30.65 0 011.35-5.35zm-.71-3a12.82 12.82 0 014.34 1.42 16.66 16.66 0 00-1.19 1.88 11.7 11.7 0 00-3.86-1.59zm14.96.76c.14 0 .26.08.26.2s-.28.21-.35.21c-.2.87-.27 1.21-.37 1.55 1.12 0 3 0 3 3.16a8.64 8.64 0 01-1.35 4.78 2.21 2.21 0 01-1.91.91 7 7 0 01-1.37-.14v-.48a9.09 9.09 0 00-.2-1.73 2.27 2.27 0 001.13.28 1 1 0 00.76-.24 5.68 5.68 0 00.85-3.44c0-1.33-.93-1.26-1.48-1.22a19.42 19.42 0 01-3.23 6.82 9 9 0 00-1.89-1 15.45 15.45 0 003.07-5.42 13.77 13.77 0 00-2.05.66l-.68-2.09c.53-.1 2.83-.58 3.3-.66a18.3 18.3 0 00.4-2.83zm3.49.68a9.06 9.06 0 012.32 4.77 1.33 1.33 0 01-.91 1.37 5.57 5.57 0 01-1.3.4 9.77 9.77 0 00-.75-1.74c.35-.07.83-.18.83-.59a5.08 5.08 0 00-.67-1.77 10 10 0 00-1.1-1.44zm8.09 1.56c.09 0 .2 0 .2.17s-.16.17-.3.18a8.46 8.46 0 00-.85 2.24 7.15 7.15 0 013.77-1.17 3.13 3.13 0 013.31 3.18c0 2.47-2.33 4.16-6.6 4.16h-.95a7.49 7.49 0 00-.6-2.17 7.41 7.41 0 001.91.19c2.93 0 4.1-1.1 4.1-2.18 0-.38-.19-1.32-1.52-1.32a6 6 0 00-4.12 2.12l-1.85-.67a30.61 30.61 0 011.36-5.35zm-.71-3A12.78 12.78 0 01408 84a15.46 15.46 0 00-1.17 1.89 11.56 11.56 0 00-3.83-1.6zm15.75.75v3l-.46 3.8h-1.24l-.48-3.8v-3zm-2.17 8h2.17v2.19h-2.17z"/><path class="cls-2" d="M199.87 56.72v3h-16.26v-3zm8.89 7.28a6.28 6.28 0 002.75-1.3 10.76 10.76 0 01-1.51-2.15l1.17-.82h-1.51v-2.4h7l.84.94a14.12 14.12 0 01-2.48 4.5 8.23 8.23 0 003.08 1.42 12.43 12.43 0 00-1.3 2.16 16.66 16.66 0 01-3.4-1.94 9.41 9.41 0 01-3.22 1.85 6.47 6.47 0 00-1.37-2.1v.57c0 1.5-1 1.62-3.14 1.64a8.19 8.19 0 00-.81-2.43 4.78 4.78 0 001.25.18c.61 0 .61-.24.61-.76V59c-.15 0-.33.05-.49.05v4.3h-1.49v-4.13a2.2 2.2 0 01-.36 0 22.11 22.11 0 01-1.25 6.95 3.74 3.74 0 00-2.16-1 17 17 0 001.3-5.67.71.71 0 01-.2 0c-.12.23-.23.38-.38.38a.22.22 0 01-.18-.18l-.41-2.42h1.12V51.5h1.69c.13-.31.41-1 .65-1.8l2.66.25c.11 0 .18.09.18.16s-.32.36-.45.4c-.12.27-.3.72-.43 1h2.29v4.16a4.32 4.32 0 001.37-3.39v-2h5.61v3.93c0 .19 0 .34.2.34.33 0 .43-1 .49-1.59a4.58 4.58 0 002.07.94c-.34 2.32-.61 2.77-1.86 2.77h-1.81a1.35 1.35 0 01-1.45-1.47v-2.68h-.84a7.22 7.22 0 01-2 4.65 4.76 4.76 0 00-1.8-1.08v.74c.23 0 .54-.06.65-.08 0 .38-.08 1.54-.09 2a4.87 4.87 0 00-.56 0zm-4.43-9.8l1.73-.32a24.67 24.67 0 01.61 2.43v-2.63h-2.34zm0 2.92c.59 0 1.73-.11 2.34-.16v-.54a11 11 0 00-1.82.36 12.13 12.13 0 00-.52-2.2zm7.94 2.58a6.94 6.94 0 00.9 1.4 6.76 6.76 0 00.86-1.4zm15.01-5.81V52.7h-3.98v-2.64h6.88c0 .47-.13 2.54-.13 2.95a13.2 13.2 0 006.61 11.56 7.13 7.13 0 00-2.36 2 17.06 17.06 0 01-6.52-9.07 16.27 16.27 0 01-6.8 9.09 7.8 7.8 0 00-2.22-2c5.53-3.54 6.49-7.36 7-10.93zm17.95 7.47a12.23 12.23 0 01-2.13 2.18 4.57 4.57 0 00-1.69-1.2c.32-.26.59-.45 1-.81-1.12.48-2.49 1-3.95 1.49 0 .22-.07.47-.27.47s-.25-.24-.28-.41l-.62-2.54a16.46 16.46 0 002-.38v-4.09h-1.86v-2.34h1.86V50l2.66.14c.22 0 .38 0 .38.2s-.11.21-.38.34v3.06h1.6v2.34H242v3.28c.43-.18.7-.29 1.14-.49H243V57h10.91v1.82h-7l-.34.58h7.19c0 1.82-.06 5.42-1.23 6.34a5 5 0 01-3 .59 5.43 5.43 0 00-.49-1.94 14.37 14.37 0 01-2.04 2.29 4.54 4.54 0 00-1.91-1.16 12.3 12.3 0 003.8-4.16h-.81a12.64 12.64 0 01-4.73 4.78 4.63 4.63 0 00-1.59-1.44 11.06 11.06 0 004.2-3.34zm-1.64-2.5a7.62 7.62 0 00-.13 1.6 11.58 11.58 0 001.1-1.6zm9.07-2.41h-8.41v-6.34h8.41zm-2.43-3.85V52h-3.55v.62zm-3.55 1.4v.61h3.55V54zm4.25 7.32a19 19 0 01-1.42 2.51h.63c.22 0 .69 0 .81-.45a9.22 9.22 0 00.33-2.09zm20.99-5.27v2.27h-2a7.67 7.67 0 002.5 1.35 7.34 7.34 0 00-1.49 1.93 7.71 7.71 0 01-2-1.1c-.06 1.35-.22 4.36-1 5.06s-2.22.7-3.33.68a3.87 3.87 0 00-.72-2.48c.59.05.93.09 1.17.09.72 0 1.24 0 1.31-2.22h-1.93a8.11 8.11 0 01-6.87 4.76 4.93 4.93 0 00-1.21-2.25c2.18-.15 4.09-.63 5.27-2.51h-2.43v-1.06a10.32 10.32 0 01-2.41 1.33A6.83 6.83 0 00255 60a11.51 11.51 0 003.21-1.69h-2.65v-2.26h4.63a6.65 6.65 0 00.43-.84h-3.76v-2.16h1.53a8.42 8.42 0 00-1.65-2.05l2.31-1.15a11.58 11.58 0 012.09 2.52 11.94 11.94 0 00-1.43.69h1.73a13.12 13.12 0 00.54-3.23l2.83.22c.09 0 .27 0 .27.21s-.2.24-.47.35c-.11.68-.23 1.42-.48 2.45h2.73c-.45-.2-1-.4-1.4-.54a9.37 9.37 0 001.46-2.74l2.61 1c.05 0 .2.11.2.22s-.15.21-.51.25a19 19 0 01-1.08 1.82h2.59v2.16h-3.6a7.91 7.91 0 00.54.84zm-4.45 3.32c-.61-.56-1-1-1-1h-4.9c-.38.45-.65.76-.93 1zm-2.55-3.32a7 7 0 01-.4-.84h-1.13a8.87 8.87 0 01-.4.84zm25.99 5.28l-.91 1.72L279.81 58 290 52.91l.87 1.72-6.7 3.37zm9.16-9.59c.16 0 .28 0 .28.17s-.08.14-.28.26c-.07.28-.12.45-.22.81h6.28v1.81h-7c-.28.58-.42.82-.52 1h5.9V63c0 .73 0 1.88-3.22 1.68a5.71 5.71 0 00-.62-2.07 4.23 4.23 0 001.12.26c.55 0 .55-.23.55-.5v-.62h-4.09v2.93h-2.14v-5.79a10.08 10.08 0 01-1.68 1.26 4.41 4.41 0 00-1.55-1.33 9.36 9.36 0 004-4h-3.76V53h4.48a10.52 10.52 0 00.3-1.53zm2.27 6.38v-.57h-4.09v.57zm-4.09 1.53v.61h4.09v-.61zm13.45 5h-2v-3.09a9.83 9.83 0 01-1.09 1.44 5.52 5.52 0 00-1.68-1.18 8.84 8.84 0 002.62-4h-2.17V56h2.34v-1a8.39 8.39 0 00-1.62.74 10 10 0 00-.83-2.52l1.58-.57a13.19 13.19 0 01.87 2.18v-3.29l1.94.11c.18 0 .4 0 .4.23s-.23.27-.36.31V56h1.95v1.84h-1.75a8.48 8.48 0 001.84 2 4.66 4.66 0 00-1 1.37 10.22 10.22 0 01-1-.93zM314.22 53c.13 0 .29.09.29.19s-.19.21-.31.28a18.12 18.12 0 01-.79 2.23 4 4 0 00-1.57-.56 19.4 19.4 0 00.73-2.58zm6 5.72l.35 1.74-1.43.37v3.83h-2v-3.33l-3.41.91-.33-1.82 3.74-1v-5a6.66 6.66 0 00-1.14 1.24 11.6 11.6 0 00-1.77-1.74l1.19-1.36a11.85 11.85 0 011.71 1.63v-2.61l2 .17c.11 0 .31 0 .31.19s-.16.21-.3.3V59zm-5-2.7a12.49 12.49 0 011.83 2c-.36.36-.75.78-1.25 1.32a10.8 10.8 0 00-1.75-2zm6.78 8.61l-.35-.35 12.55-12.56.36.36zm18.71-9.4c.09 0 .21.07.21.2s-.13.18-.48.25a16.55 16.55 0 01-2.93 6.06 7.3 7.3 0 00-2.13-1 12 12 0 002.31-3.62 11.81 11.81 0 00.82-2.6zm2.94-3.52c.13 0 .29 0 .29.17s-.07.19-.25.3v10.53a1.61 1.61 0 01-1.05 1.8 6.12 6.12 0 01-2.28.24 6.71 6.71 0 00-.9-2.24 7.36 7.36 0 001.46.16c.42 0 .52-.06.52-.51V51.59zm2.68 2.61a43.48 43.48 0 013 6.85 9 9 0 00-2.17 1 39.36 39.36 0 00-2.85-7zm11.44 7.12v1.86c0 1.46-1.08 1.51-3.59 1.46a4.91 4.91 0 00-.6-2h1.57c.53 0 .53-.07.53-.8v-.6h-5.47v-1.64h5.47v-.93l.67.07a5.82 5.82 0 00.72-.77h-4.2V56.4h6.86l.82 1a15.28 15.28 0 01-2.56 2.3h5.07v1.72zm-1.95-7.32a8.83 8.83 0 00-1.41-1.95l1.84-.8a9.86 9.86 0 011.45 2.06c-.2.12-1.14.59-1.32.69h2a14.41 14.41 0 001.45-2.41l2 .61c.07 0 .24.1.24.24s-.23.22-.48.26c-.37.64-.47.78-.81 1.3h2.16v3.75h-2v-2.16h-8.61v2.16h-2v-3.75h2a8.63 8.63 0 00-1.13-1.58l1.74-.86a7.25 7.25 0 011.38 1.94c-.61.33-.75.4-.91.5zm14.18.08v-2.61l2.14.06c.22 0 .33 0 .33.2s0 .11-.1.2a.89.89 0 01-.13.14v2h4.62v1.91h-4.62v2h3.29V60h-3.29v2.53h5.2v1.86h-13v-1.86H370V60h-3.23v-1.89H370v-2h-2.89a12.91 12.91 0 01-1.42 2.15 6.48 6.48 0 00-1.87-1 13.15 13.15 0 002.75-5.45l2 .59c.16 0 .31.11.31.27s-.21.21-.31.21c-.17.47-.5 1.26-.53 1.31zm8.35 7.06l1.38-.43v-9l2.4.19a.25.25 0 01.25.24c0 .2-.27.29-.35.32v7.52c.91-.3 2.73-1 3.54-1.31a6.66 6.66 0 00-.08 1 5.74 5.74 0 00.08 1c-2.48 1-5.44 2.11-5.84 2.26-.11.2-.2.34-.33.34s-.18-.13-.22-.22zM391 51.89a.21.21 0 01.23.22c0 .2-.2.27-.33.31 0 4.36-.56 6.54-1.23 7.88a11.94 11.94 0 012.27 2.58 16.39 16.39 0 00-1.64 1.58 11.83 11.83 0 00-1.84-2.38 8.11 8.11 0 01-4.46 2.61 5.5 5.5 0 00-1.32-1.78 6.79 6.79 0 004.19-2.25c.58-.69 1.81-2.11 1.81-6.86 0-.92-.06-1.56-.1-2zm-6.06.23a13.28 13.28 0 012.49 3.22 14.63 14.63 0 00-1.89 1.27 12.16 12.16 0 00-2.37-3.19zM400 55.07c.7.44 1.62 1 2 1.37a18.72 18.72 0 012.72 2.34 15.37 15.37 0 00-1.65 1.84 14.49 14.49 0 00-3.07-2.88v6.94h-2.28V54.16h-4.8v-2.08h13v2.08h-6zm18.08 6.02h-10.4v-1.64H409v-1.76h-2v-1.63h2v-1c-.3.29-.45.42-.65.59a6.31 6.31 0 00-1.81-1 10.61 10.61 0 002.88-3.26l2 .67c.07 0 .14.07.14.16s-.23.22-.33.25-.1.13-.14.19h8.38v1.77h-1.3v1.61h1.92v1.63h-1.92v1.76h1.48v1.64h-1.64a14.13 14.13 0 012.27 2.62 12.79 12.79 0 00-1.78 1.14 11.75 11.75 0 00-2-2.68zm-7.43.88c.13.07.25.13.25.26s-.1.17-.36.21a14.53 14.53 0 01-1.85 2.56 4.65 4.65 0 00-1.76-1.14 7.55 7.55 0 002.13-2.67zm.08-5.91h.82v-1.61h-.82zm0 3.39h.82v-1.76h-.82zm2 2a9.52 9.52 0 01.91 2.79 13.33 13.33 0 00-2.08.55 11.8 11.8 0 00-.67-2.86zm.44-5.43h.83v-1.57h-.83zm0 3.39h.83v-1.72h-.83zm2.48 1.92a10.2 10.2 0 011.19 2.67 13.9 13.9 0 00-1.94.66 17.06 17.06 0 00-1-2.8zm0-6.92v1.61h.83v-1.57zm0 3.24v1.76h.83v-1.72zm10.05 7h-2v-3.09a9.83 9.83 0 01-1.09 1.44 5.52 5.52 0 00-1.68-1.18 8.84 8.84 0 002.62-4h-2.17V56h2.34v-1a8.39 8.39 0 00-1.62.74 10 10 0 00-.83-2.52l1.58-.57a13.19 13.19 0 01.87 2.18v-3.29l1.94.11c.18 0 .4 0 .4.23s-.23.27-.36.31V56h1.95v1.84h-1.75a8.48 8.48 0 001.84 2 4.66 4.66 0 00-1 1.37 10.22 10.22 0 01-1-.93zM428.22 53c.13 0 .29.09.29.19s-.19.21-.31.28a18.12 18.12 0 01-.79 2.23 4 4 0 00-1.57-.56 19.4 19.4 0 00.73-2.58zm6 5.72l.35 1.74-1.43.37v3.83h-2v-3.33l-3.41.91-.33-1.82 3.74-1v-5a6.66 6.66 0 00-1.14 1.24 11.6 11.6 0 00-1.77-1.74l1.19-1.36a11.85 11.85 0 011.71 1.63v-2.61l2 .17c.11 0 .31 0 .31.19s-.16.21-.3.3V59zm-5-2.7a12.49 12.49 0 011.83 2c-.36.36-.75.78-1.25 1.32a10.8 10.8 0 00-1.75-2zm7.38-1.39l.87-1.72L447.71 58l-10.24 5.07-.87-1.72 6.74-3.35z"/></g></g></svg>