<svg xmlns="http://www.w3.org/2000/svg" width="239.7" height="40"><path d="M0 0h10v40H0zm38.14 22.74c-1 .86-2.81 2.73-2.81 3.92 0 2.59 4.93 2.59 6.44 2.59a50.06 50.06 0 0014.44-2.16 27.25 27.25 0 00.93 6.12 54.7 54.7 0 01-14.07 1.66c-5.62 0-7.85-.61-9.61-1.33-1.15-.47-4.57-2.16-4.57-5.8s3.74-7.09 5.22-8.42zm15.12-11.85c-3.35 1.34-7.09 3.57-9.07 5.87-1.3-1.11-2.67-2.27-3.78-3.09 1.33-1.23 1.65-1.48 2.7-2.34-2.24.18-8.28.5-11.34.43l-.29-6a72.51 72.51 0 009 .46 71 71 0 0010-.82zm1.58-5.61a26.27 26.27 0 013.28 3.78A14.66 14.66 0 0056 11.65a40.22 40.22 0 00-3.45-4zm2.77-3.06A37.54 37.54 0 0161 5.75a14.07 14.07 0 00-2.31 2.45 28.69 28.69 0 00-3.13-3.53zm23.98 34.19h-5.18V26.8A35.79 35.79 0 0165.86 36a12.57 12.57 0 00-4.61-3.56 30.94 30.94 0 0011.56-9.21H62.44v-4.7h6.73a29.08 29.08 0 00-2.88-5.33l2.59-1.44h-4.75V7.08h12.28V3.41l5.4.32c.43 0 .79.07.79.54s-.72.61-1 .69v2.12h12.2v4.68h-4.69l2.2.93c.25.11.36.26.36.44 0 .46-.43.54-.72.61a32.5 32.5 0 01-2.27 4.79h6.8v4.68H84.79A28.1 28.1 0 0096 31.92a17.06 17.06 0 00-3.82 3.88 28.22 28.22 0 01-10.58-9.21zm-5.18-17.88v-6.77h-4.65a20.16 20.16 0 013 5.54A17.8 17.8 0 0072 18.53zm5.18-6.77v6.77h4.17a25.06 25.06 0 00-2.48-1.3A28.17 28.17 0 0086 11.76zm32.33 14.61a25.31 25.31 0 01-4.25 4.36 8.92 8.92 0 00-3.38-2.41c.64-.51 1.18-.9 2-1.62-2.23 1-5 2-7.88 3 0 .44-.14.94-.54.94s-.5-.47-.58-.83l-1.22-5.07a31.34 31.34 0 004.07-.76v-8.19h-3.7v-4.68h3.71V3.62l5.32.29c.44 0 .76.07.76.4s-.22.43-.76.68v6.12h3.21v4.68h-3.21v6.55c.87-.36 1.41-.57 2.27-1h-.25v-3.61h21.81v3.64h-13.93l-.68 1.15h14.36c0 3.64-.11 10.84-2.45 12.67-1.36 1.08-3.67 1.19-5.94 1.19a10.63 10.63 0 00-1-3.89 27.09 27.09 0 01-4.28 4.5c-.94-1-1.51-1.29-3.82-2.3a25 25 0 007.6-8.32h-1.62a25.1 25.1 0 01-9.47 9.54 9.53 9.53 0 00-3.14-2.91 21.84 21.84 0 008.39-6.66zm-3.28-5a15.78 15.78 0 00-.25 3.2 23.78 23.78 0 002.2-3.2zm18.14-4.82H112V3.87h16.81zm-4.86-7.71V7.62h-7.09v1.22zm-7.09 2.88V13h7.09v-1.28zm8.5 14.65a39.4 39.4 0 01-2.85 5c.44 0 .83.07 1.26.07.72 0 1.37-.07 1.62-.9a18.1 18.1 0 00.65-4.18zm26.14 3.85c7.81-1.44 10.11-7.48 10.11-11.23a8.53 8.53 0 00-8.31-8.82c-1.12 13.18-6.56 23-10.37 23-2.81 0-8-4.76-8-11.41C134.87 14 141.93 5 152.51 5c7.88 0 14.76 5.36 14.76 14A16.8 16.8 0 01163 30.08c-2.2 2.56-4.75 3.89-7.81 5.22a23.54 23.54 0 00-3.72-5.08zm-11.27-8.89c0 2.77 1.55 4.86 2.3 4.86s1.55-1.62 1.95-2.55a31.75 31.75 0 002.77-12.39c-4.22 1.55-7.02 6.84-7.02 10.08zm31.36-9.68a33.85 33.85 0 016.94 3.67 37.94 37.94 0 00-2.34 4.57 64.69 64.69 0 00-6.84-3.63zM169.32 33a56.85 56.85 0 007.35-12 19.12 19.12 0 003.78 3.31 82 82 0 01-5.69 10.73c0 .32.11.61.11.79s-.15.47-.36.47a1 1 0 01-.54-.22zm5.94-29.88a53 53 0 015.91 3.67 45.38 45.38 0 00-2.7 4.43 50 50 0 00-5.91-3.85zm27.47 5.83v4.58h-8.68v5.36h6.81v4.9h-6.81v6.87h9.22v5h-23.62v-5h9.08v-6.91H182v-4.9h6.7v-5.36h-8.14V8.91h7.92a33.69 33.69 0 00-3.1-2.84l4.43-3.31a40.26 40.26 0 015.33 5 21.33 21.33 0 00-1.84 1.18zm11.99 20.81c.36.18.75.39.75.75s-.82.51-1.15.51a41.74 41.74 0 01-3.88 5.36 10.61 10.61 0 00-4.11-2.56 25 25 0 004.39-6.22zm22.82-24.48v3.81H233c0 .44-.57.51-1.08.54-.18.4-.25.58-.46 1h8.2v3.88h-33.08v-3.9h7.67c-.18-.29-.47-.72-.72-1.08l1.69-.44h-6.66V5.28h11.63V3.05l5.58.29c.22 0 .58.1.58.36s-.22.46-.58.68v.9zm-14.83 22h-11.16V15.79h22.93v11.45h-9a25.59 25.59 0 012 2.66c-.36.25-2.95 1.91-3.53 2.23a20.66 20.66 0 00-2.84-4zm-2.63 1c.61.07 1.08.14 1.08.47s-.25.36-.9.54v2.09c0 1.08.69 1.15 1.33 1.15h4.72c1.3 0 1.84-1.3 2.27-3.06a10.83 10.83 0 004.24 2.12c-.61 2.34-1.26 4.79-5.36 4.79h-8.21c-3 0-3.63-1.08-3.63-3.2v-5.33zm9.32-8.06v-1.51h-12.59v1.51zm-12.59 2.55v1.55h12.59v-1.55zM219 9.09l1 1.52h5.65a16 16 0 00.72-1.52zm16.23 18.22A29.13 29.13 0 01239.7 33a22 22 0 00-3.78 2.66 40.93 40.93 0 00-4.39-6.08z" fill="#ff5064" data-name="レイヤー 2"/></svg>