<svg xmlns="http://www.w3.org/2000/svg" width="526.19" height="40"><path d="M0 0h10v40H0zm35.8 6.21c.29.11.47.26.47.51 0 .43-.69.5-1 .54a49.65 49.65 0 00-2.17 13.86 25.23 25.23 0 00.25 3.6c.47-.69 1.22-1.84 1.69-2.56a15.13 15.13 0 002.59 3.56 16 16 0 00-3 8.82l-4.83.9a50.93 50.93 0 01-1.94-14.5A65.1 65.1 0 0130 4.45zm17.1-.79c.18 0 .46.08.46.4s-.5.54-.82.58a37.16 37.16 0 00-.36 4.31 32.28 32.28 0 005.32-1.33v5.44c-.82.18-2.5.61-5.5 1.18a57.41 57.41 0 00.58 8.28A19.92 19.92 0 0159.45 28c-.58 1-1.66 3.34-2.45 5a12.66 12.66 0 00-3.85-2.73c-.15 4.6-4.75 5.14-7 5.14-5.4 0-8.1-2.95-8.1-6.3 0-4.28 4.25-5.9 8.93-5.79-.29-4.1-.33-4.57-.4-6.66-2.05.18-3.53.18-4.14.18-1.15 0-1.91 0-2.66-.11v-5.62a38 38 0 006.77.25v-7zm-7.45 22.32c-.8 0-2.52.25-2.52 1.37 0 .93 1.18 1.33 2.34 1.33.28 0 2.44 0 2.44-1.76a1 1 0 00-.07-.47 5.08 5.08 0 00-2.19-.47zM75.83 4.45c.36 0 .72.15.72.58 0 .11 0 .5-.86.61a111 111 0 00-1.23 17.1c0 3.85 0 6.8 3.64 6.8 5.11 0 10.33-6.08 12.42-10.15a32.91 32.91 0 004.1 4.75c-1.94 3-8.39 11.45-17.31 11.45C69 35.59 69 28.86 69 22.3c0-2.41.25-13.1.25-15.26V3.52zm10 3A26.23 26.23 0 0190 11.58a17.48 17.48 0 00-2.66 2.52 28.23 28.23 0 00-4.1-4zm3.34-3.09a33 33 0 014.14 3.89c-.28.28-1.58 1.4-1.83 1.65a8.11 8.11 0 00-.61.65 51.76 51.76 0 00-4-4zm18.41 1.46a31 31 0 00.83 5.9 17.24 17.24 0 016.48-2.09 34.3 34.3 0 00.54-6.19l6.08 1.41c.43.11.69.25.69.54 0 .5-.58.47-.76.47 0 .18-.68 3.23-.79 3.77A11.68 11.68 0 01131 21.73c0 10.26-9.65 13.32-13.83 14A16.79 16.79 0 00114 31a16.48 16.48 0 006.69-2c3-1.66 4.68-3.74 4.68-7.45 0-5.76-4.43-6.59-5.94-6.84a34.63 34.63 0 01-4.61 10.62c.4.5.69.9 1.66 2a27.36 27.36 0 00-4.57 4.14c-.51-.72-.72-1-1-1.58-3.38 3.1-5.5 3.28-6.73 3.28-3.16 0-5.36-2.31-5.36-6.2a17.52 17.52 0 015.11-11.77 72.8 72.8 0 01-2.16-7.55zm-1.69 14.65a11.49 11.49 0 00-2.09 5.9c0 .25 0 1.26 1 1.26s2.41-1.44 3.31-2.37c-1.28-2.63-1.93-4.07-2.22-4.79zm4.11-3.89a31.67 31.67 0 001.73 3.78 21.48 21.48 0 002.16-5.47 13.72 13.72 0 00-3.89 1.69zm57.05-6.77c-10.29-.1-16.41 8.93-16.41 13.61 0 6 8.13 6.41 10 6.52a31.58 31.58 0 00-2.7 6.47c-6.3-1.47-13.25-4.82-13.25-12.56 0-6.62 5-10.76 6.38-11.91a120.86 120.86 0 00-14.87 2.12l-.76-6.77c.8 0 1.55.11 2.7.11 5.29 0 19.66-1 27.83-3.56zm15.09 12.93c-1 .86-2.81 2.73-2.81 3.92 0 2.59 4.93 2.59 6.44 2.59a50.06 50.06 0 0014.44-2.16 27.25 27.25 0 00.93 6.12 54.7 54.7 0 01-14.07 1.66c-5.62 0-7.85-.61-9.61-1.33-1.15-.47-4.57-2.16-4.57-5.8s3.74-7.09 5.22-8.42zm15.12-11.85c-3.35 1.34-7.09 3.57-9.07 5.87-1.3-1.11-2.67-2.27-3.78-3.09 1.33-1.23 1.65-1.48 2.7-2.34-2.24.18-8.28.5-11.34.43l-.29-6a72.51 72.51 0 009 .46 71 71 0 0010-.82zm1.58-5.61a26.27 26.27 0 013.28 3.78 14.66 14.66 0 00-2.12 2.59 40.22 40.22 0 00-3.45-4zm2.77-3.06A37.54 37.54 0 01205 5.75a14.07 14.07 0 00-2.31 2.45 28.69 28.69 0 00-3.13-3.53zm23.98 34.19h-5.18V26.8a35.79 35.79 0 01-10.55 9.2 12.57 12.57 0 00-4.61-3.56 30.94 30.94 0 0011.56-9.21h-10.37v-4.7h6.73a29.08 29.08 0 00-2.88-5.33l2.59-1.44h-4.75V7.08h12.28V3.41l5.4.32c.43 0 .79.07.79.54s-.72.61-1 .69v2.12h12.2v4.68h-4.68l2.2.93c.25.11.36.26.36.44 0 .46-.43.54-.72.61a32.5 32.5 0 01-2.27 4.79h6.8v4.68h-10.7A28.1 28.1 0 00240 31.92a17.06 17.06 0 00-3.82 3.88 28.22 28.22 0 01-10.58-9.21zm-5.18-17.88v-6.77h-4.65a20.16 20.16 0 013 5.54 17.8 17.8 0 00-2.76 1.23zm5.18-6.77v6.77h4.17a25.06 25.06 0 00-2.48-1.3 28.17 28.17 0 002.72-5.47zm32.33 14.61a25.31 25.31 0 01-4.25 4.36 8.92 8.92 0 00-3.38-2.41c.64-.51 1.18-.9 2-1.62-2.23 1-5 2-7.88 3 0 .44-.14.94-.54.94s-.5-.47-.58-.83l-1.22-5.07a31.34 31.34 0 004.07-.76v-8.19h-3.71v-4.68h3.71V3.62l5.32.29c.44 0 .76.07.76.4s-.22.43-.76.68v6.12h3.21v4.68h-3.21v6.55c.87-.36 1.41-.57 2.27-1h-.25v-3.61h21.82v3.64h-13.93l-.68 1.15h14.36c0 3.64-.11 10.84-2.45 12.67-1.36 1.08-3.67 1.19-5.94 1.19a10.63 10.63 0 00-1-3.89 27.09 27.09 0 01-4.28 4.5c-.94-1-1.51-1.29-3.82-2.3a25 25 0 007.6-8.32h-1.62a25.1 25.1 0 01-9.47 9.54 9.53 9.53 0 00-3.14-2.91 21.84 21.84 0 008.39-6.66zm-3.28-5a15.78 15.78 0 00-.25 3.2 23.78 23.78 0 002.2-3.2zm18.14-4.82H256V3.87h16.81zm-4.86-7.71V7.62h-7.09v1.22zm-7.09 2.88V13h7.09v-1.28zm8.5 14.65a39.4 39.4 0 01-2.85 5c.44 0 .83.07 1.26.07.72 0 1.37-.07 1.62-.9a18.1 18.1 0 00.65-4.18zM287 7c.32.11.72.22.72.54 0 .47-.43.54-.76.58a32.32 32.32 0 00-2 10.83c0 4.39 1.37 7.45 2.41 7.45s2.52-3.16 3.49-5.43a16.29 16.29 0 003.78 3.81c-2.88 7-6.15 9.43-7.92 9.43-2 0-7.34-4.28-7.34-15.4a64.3 64.3 0 011.72-13.49zm17.39.25a35.89 35.89 0 017.27 18.11c-2.13.83-4.68 2.05-5.87 2.66a32.75 32.75 0 00-6.05-17.82zm27.18-2.4c.33.07.72.21.72.57s-.5.47-.79.47c-.14.58-.75 3.13-.9 3.64a23.41 23.41 0 006-1.77l.61 5.65a46.76 46.76 0 01-8.14 1.7 87 87 0 01-9.43 21 37.4 37.4 0 00-5.43-2.73A58.54 58.54 0 00323.08 16c-2.2.18-2.63.18-6.59.22l-.49-5.94c1.08.07 2.34.15 4.18.15 1.62 0 2.7 0 4.28-.15.51-2.7.76-5 1-6.8zm2.7 21.67a3.5 3.5 0 00-1 2.12 1 1 0 00.65.94 13.25 13.25 0 004.82.61 25.89 25.89 0 007.95-1.19 15.45 15.45 0 00-.25 2.81 24.17 24.17 0 00.22 3 43.9 43.9 0 01-7.46.61c-4.71 0-11-.69-11-5.8a9.75 9.75 0 011.4-4.71zm-1.69-10.19a46 46 0 018-.65 25.16 25.16 0 015.29.4c-.22 2.66-.25 3.24-.29 5.65a20.85 20.85 0 00-5.4-.65 67.38 67.38 0 00-7.56.65zm35.25-11.45c.28.08.61.15.61.47s-.51.51-.72.54c-.18.58-.79 3.13-.9 3.64a26.21 26.21 0 005.94-1.84l.57 5.69a40.14 40.14 0 01-8.06 1.62 93.78 93.78 0 01-9.39 21 36 36 0 00-5.37-2.74 58.32 58.32 0 008.78-17.49l-6.47.21-.47-5.83a31.12 31.12 0 004.07.22c1.36 0 3 0 4.39-.15a44 44 0 00.9-6.91zm2.59 21.56a3.91 3.91 0 00-1 1.95c0 1.15 1 1.73 5.21 1.73a20.79 20.79 0 007.92-1.48c0 .68-.07 1.12-.07 2.09a25.2 25.2 0 00.25 4 33 33 0 01-6.51.61c-4.32 0-11.81-.21-11.81-5.83 0-1.33.4-2.41 1.33-4.71zm-1.69-10.15a38.89 38.89 0 017.41-.75 41.5 41.5 0 015.8.47 40.28 40.28 0 00-.36 5.68 19.53 19.53 0 00-5.55-.57 44.82 44.82 0 00-7.3.57zM377 6.43a32.56 32.56 0 013.42 4 12.91 12.91 0 00-2.74 1.94 33.4 33.4 0 00-3.17-4zm3.45-2.52a21.58 21.58 0 013.32 3.78 28.15 28.15 0 00-2.42 1.87A25.43 25.43 0 00378 5.75zm32.19 2.56c.22.18.36.32.36.54a.38.38 0 01-.43.39 2.2 2.2 0 01-.61-.14c-.72.68-6.59 5.25-7.81 6.3-1.66 1.4-3.67 3.13-5 4.32-1.16 1-1.26 1.19-1.26 1.47s.14.47 1.54 1.26c.11.08 3.42 2.27 6.66 4.75a37.81 37.81 0 017.45 7.06 22.88 22.88 0 00-4.14 4.86c-1.58-2.34-7.52-8.6-18.14-15.48a2.52 2.52 0 01-1.26-2.12c0-.94.14-1.37 3.78-4.25a95.3 95.3 0 0013.75-12.92zm42.81 1.83v5.15h-15.52c0 1.33-.14 2.27-.21 3h11.37c0 12.16-.68 15.48-3.24 18-1.83 1.84-5.76 2-7.09 2a9.14 9.14 0 00-2.66-5.65c1 .14 3.42.54 3.78.54a2.66 2.66 0 002.88-2.09 25 25 0 001-7.84h-7a24.32 24.32 0 01-13 15.11c-.87-1.36-2.67-3.34-4.43-3.88 6.41-2 13.1-7.24 13.1-19.19h-11.88V8.3h13.53v-5l5.76.32c.22 0 .65.11.65.5s-.4.54-.65.65V8.3zm1.69 13.79a38.3 38.3 0 008-8.39c2.92-4 3.89-5.25 6.08-5.25s3.78 1.55 6.12 4.46c3.09 3.85 8 9.93 14.79 14.65a36.12 36.12 0 00-4 5.47c-6.08-5.11-10.25-10.26-15.13-16.23-.29-.36-1.26-1.55-1.95-1.55s-1.26 1-1.76 1.69c-4.1 6-4.54 6.7-7.34 9.79zM502.18 20a3.19 3.19 0 11-3.18-3.2 3.19 3.19 0 013.18 3.2zm12 0a3.21 3.21 0 11-3.2-3.2 3.21 3.21 0 013.22 3.2zm12 0a3.22 3.22 0 01-3.18 3.21 3.21 3.21 0 113.19-3.21z" fill="#ff5064" data-name="レイヤー 2"/></svg>