<svg xmlns="http://www.w3.org/2000/svg" width="210.81" height="34.77"><path d="M9.25 20.52c-1 .86-2.81 2.73-2.81 3.92C6.44 27 11.37 27 12.89 27a50 50 0 0014.43-2.16 27.51 27.51 0 00.94 6.16 54.86 54.86 0 01-14.08 1.66c-5.61 0-7.85-.61-9.61-1.33C3.42 30.85 0 29.16 0 25.52s3.74-7.09 5.22-8.42zM24.37 8.67C21 10 17.28 12.24 15.3 14.54c-1.3-1.11-2.67-2.27-3.78-3.09 1.33-1.23 1.65-1.48 2.7-2.34-2.23.18-8.28.5-11.34.43l-.29-6a72.48 72.48 0 009 .47 70.92 70.92 0 0010.01-.84zM26 3.06a25.66 25.66 0 013.28 3.78 14.66 14.66 0 00-2.18 2.59 39 39 0 00-3.45-4zM28.72 0a37.54 37.54 0 013.39 3.53A14.07 14.07 0 0029.8 6a28.69 28.69 0 00-3.13-3.53zM52.7 34.2h-5.18v-9.62A35.64 35.64 0 0137 33.76a12.49 12.49 0 00-4.61-3.56A30.86 30.86 0 0043.92 21H33.55v-4.69h6.73A28.47 28.47 0 0037.4 11L40 9.54h-4.76V4.86h12.28V1.19l5.4.32c.43 0 .79.07.79.54s-.72.61-1 .69v2.12H64.9v4.68h-4.68l2.2.93c.25.11.36.26.36.44 0 .46-.43.54-.72.61a32.5 32.5 0 01-2.27 4.79h6.81V21H55.91a28.07 28.07 0 0011.19 8.7 17.06 17.06 0 00-3.82 3.88 28.3 28.3 0 01-10.58-9.21zm-5.18-17.89V9.54h-4.64a20.44 20.44 0 013 5.54 17.8 17.8 0 00-2.73 1.23zm5.18-6.77v6.77h4.18A23.69 23.69 0 0054.39 15a28.17 28.17 0 002.74-5.47zM85 24.15a25.31 25.31 0 01-4.25 4.36 8.92 8.92 0 00-3.35-2.41c.65-.51 1.19-.9 2-1.62-2.24 1-5 2-7.89 3 0 .44-.14.94-.54.94s-.5-.47-.57-.83l-1.21-5.09a29.16 29.16 0 004.07-.76v-8.17h-3.71V8.89h3.71V1.4l5.33.29c.43 0 .75.07.75.4s-.21.43-.75.68v6.12h3.2v4.68h-3.2v6.55c.86-.36 1.4-.57 2.26-1h-.25v-3.61h21.82v3.64H88.49l-.69 1.15h14.36c0 3.64-.1 10.84-2.44 12.67-1.37 1.08-3.68 1.19-5.94 1.19a10.84 10.84 0 00-1-3.89 27.59 27.59 0 01-4.29 4.5c-.93-1-1.51-1.29-3.81-2.3a25.07 25.07 0 007.59-8.32h-1.59a25 25 0 01-9.47 9.54 9.59 9.59 0 00-3.16-2.88 21.9 21.9 0 008.38-6.66zm-3.28-5a16.55 16.55 0 00-.25 3.2 23.78 23.78 0 002.2-3.2zm18.18-4.82H83.09V1.66H99.9zM95 6.62V5.4h-7v1.22zM88 9.5v1.23h7V9.5zm8.49 14.65a39.16 39.16 0 01-2.84 5c.43 0 .82.07 1.26.07.72 0 1.36-.07 1.62-.9a18.81 18.81 0 00.64-4.18zM122.58 28c7.81-1.44 10.11-7.48 10.11-11.23A8.52 8.52 0 00124.38 8c-1.12 13.17-6.55 23-10.37 23-2.81 0-8-4.75-8-11.41 0-7.74 7.06-16.78 17.64-16.78 7.88 0 14.76 5.36 14.76 14a16.74 16.74 0 01-4.25 11.12c-2.19 2.56-4.75 3.89-7.81 5.22a23.54 23.54 0 00-3.77-5.15zm-11.27-8.89c0 2.77 1.55 4.86 2.31 4.86s1.54-1.62 1.94-2.55A31.57 31.57 0 00118.33 9c-4.17 1.58-7.02 6.87-7.02 10.11zm31.36-9.68a33.88 33.88 0 017 3.67 36.42 36.42 0 00-2.34 4.57 64.69 64.69 0 00-6.89-3.67zm-2.23 21.31a57 57 0 007.34-11.95 18.78 18.78 0 003.78 3.31 80.84 80.84 0 01-5.69 10.73c0 .32.11.61.11.79s-.14.47-.36.47a1 1 0 01-.54-.22zM146.38.86a52.69 52.69 0 015.9 3.68 45.47 45.47 0 00-2.7 4.46 49.83 49.83 0 00-5.9-3.85zm27.46 5.84v4.57h-8.67v5.36H172v4.9h-6.8v6.87h9.21v5h-23.64v-5h9.07v-6.87h-6.7v-4.9h6.7v-5.36h-8.14V6.7h7.92a33.54 33.54 0 00-3.09-2.85L161 .54a40.26 40.26 0 015.33 5 19.16 19.16 0 00-1.83 1.19zm11.99 20.84c.36.18.76.39.76.75s-.83.51-1.15.51a43.21 43.21 0 01-3.89 5.36 10.54 10.54 0 00-4.11-2.56 25.29 25.29 0 004.4-6.22zm22.82-24.48v3.82h-4.53c0 .43-.58.5-1.08.54-.18.39-.25.57-.47 1h8.21v3.88H177.7V8.39h7.66c-.18-.29-.46-.72-.72-1.08l1.69-.43h-6.65V3.06h11.62V.83l5.58.29c.22 0 .58.1.58.36s-.22.46-.58.68v.9zM193.82 25h-11.16V13.57h22.93V25h-9a25.59 25.59 0 012.05 2.66c-.36.25-3 1.91-3.53 2.23a20.66 20.66 0 00-2.84-4zm-2.63 1c.62.07 1.08.15 1.08.47s-.25.36-.9.54v2.09c0 1.08.69 1.15 1.34 1.15h4.71c1.3 0 1.84-1.3 2.27-3.06a10.89 10.89 0 004.25 2.12c-.62 2.34-1.26 4.79-5.37 4.79h-8.2c-3 0-3.64-1.08-3.64-3.2v-5.27zm9.33-8v-1.51h-12.6V18zm-12.6 2.55v1.55h12.6v-1.55zm2.23-13.67c.4.61.72 1.11 1 1.51h5.65c.4-.8.47-.9.72-1.51zm16.23 18.21a28.76 28.76 0 014.43 5.69 22 22 0 00-3.81 2.66 40.21 40.21 0 00-4.39-6.08z" fill="#ff5064" data-name="レイヤー 2"/></svg>