<?xml version="1.0" encoding="utf-8"?>
<!-- Generator: Adobe Illustrator 22.1.0, SVG Export Plug-In . SVG Version: 6.00 Build 0)  -->
<svg version="1.1" id="レイヤー_1" xmlns="http://www.w3.org/2000/svg" xmlns:xlink="http://www.w3.org/1999/xlink" x="0px"
	 y="0px" viewBox="0 0 71 20" style="enable-background:new 0 0 71 20;" xml:space="preserve">
<style type="text/css">
	.st0{fill:#00498A;}
</style>
<title>nikkei</title>
<g>
	<path class="st0" d="M8.1,2.9v14.1H21V4.8l1.5-1.9C22.5,2.9,8.1,2.9,8.1,2.9z M18.2,8.9H11V5h7.2V8.9z M11,11h7.2v4.2H11V11z"/>
	<path class="st0" d="M47.4,10C49.3,9.5,50,8.6,50,7c0-2.4-1.6-3.9-4.3-3.9h-8.7L38.3,5v12.2h7.5c3.5,0,4.3-2.2,4.3-4.1
		C50,11.6,49.7,10.7,47.4,10 M44.5,5C46.4,5,47,5.7,47,6.9s-0.3,1.9-2.4,1.9h-3.4V5H44.5z M44.8,15h-3.7V11h4.2c1.6,0,1.9,1.1,1.9,2
		C47.2,14.2,47.1,15,44.8,15"/>
	<path class="st0" d="M29.2,11.5c-0.4-1.5-1-3.1-1.4-4.1h-1l2.4-3.1h-2.6l-1.5,2l-0.7-0.4L27,2.8h-2.6l-2.2,2.6v1.4l1.6,1.1L22.3,10
		v1.5h2.4v5.6h2.2v-5.6H29.2z M26.6,10h-1.8l1.4-1.8C26.3,8.8,26.5,9.3,26.6,10"/>
	<path class="st0" d="M31.8,5.7h-2.4c0.4,1,1,1.8,1.6,2.4c-0.5,0.3-1.2,0.4-1.9,0.5v1.8c1.5-0.1,2.6-0.5,3.7-1.1
		c1.1,0.5,2.4,1,4.1,1.1V8.5C36,8.4,35.2,8.2,34.5,8c1-1.1,1.6-2.3,2-3.7l-1-1.4h-6.1v1.9h4.2c-0.1,0.8-0.5,1.5-1,2
		C32.2,6.5,31.9,6.1,31.8,5.7"/>
	<path class="st0" d="M57.7,2.9h-8l1.4,1.9v2.6c0,1.5,0.8,2.2,2.6,2.6c-1.8,0.4-2.6,1.4-2.6,2.6v4.6h3v-5h3.7c3.5,0,5.2-2.2,5.2-4.5
		C62.9,4.3,60.4,2.9,57.7,2.9 M57,10h-3V5.1h3c1.9,0,2.9,1,2.9,2.4C59.9,8.8,59.3,10,57,10"/>
	<path class="st0" d="M22.1,17.1h1.6c0.3-1.4,0.4-3.1,0.4-4.8h-1.9C22.4,13.7,22.3,15.6,22.1,17.1z"/>
	<path class="st0" d="M34.1,15.3v-1.8h2.2v-1.8h-2.2v-1.6h-2.3v1.6h-2v1.8h2v1.8h-2.2c-0.1-1.1-0.3-2-0.4-3h-1.5
		c0.1,1.5,0.3,3.1,0.3,4.8h9.2v-1.8H34.1z"/>
</g>
</svg>
