<svg xmlns="http://www.w3.org/2000/svg" viewBox="0 0 560 59.75"><defs><style>.b5c54a4d-ad71-4a14-b5f8-125c229e9ecf{fill:#ff5064;}</style></defs><title>title_public</title><g id="f79cb9ee-e5f7-4e2a-9359-2e56c772bec8" data-name="レイヤー 2"><g id="a44ea0cd-3434-49aa-a0c6-3227b5d83d7f" data-name="object"><rect class="b5c54a4d-ad71-4a14-b5f8-125c229e9ecf" y="54.75" width="560" height="5"/><path class="b5c54a4d-ad71-4a14-b5f8-125c229e9ecf" d="M39.91,17.35v7.06H2V17.35Z"/><path class="b5c54a4d-ad71-4a14-b5f8-125c229e9ecf" d="M64.85,34.4c2.56-.16,5.59-2.43,6.43-3a25.33,25.33,0,0,1-3.61-5.08l2.73-1.94H66.87V18.78h16.3l2,2.18a32.49,32.49,0,0,1-5.8,10.5,19.42,19.42,0,0,0,7.19,3.32,28.81,28.81,0,0,0-3,5,39,39,0,0,1-7.94-4.53A22.29,22.29,0,0,1,68,39.61a14.8,14.8,0,0,0-3.19-4.91V36c0,3.49-2.39,3.78-7.31,3.82a19.62,19.62,0,0,0-1.89-5.67,10.93,10.93,0,0,0,2.9.42c1.43,0,1.43-.54,1.43-1.76V22.68a8.1,8.1,0,0,1-1.14.13v10H55.36V23.19a6,6,0,0,1-.84.08c-.13,4.83-1.05,11.76-2.9,16.22a8.76,8.76,0,0,0-5-2.44c1.8-3.53,2.69-9.24,3-13.23a1.85,1.85,0,0,1-.46.08c-.29.55-.55.88-.88.88a.47.47,0,0,1-.42-.42l-1-5.62c1,0,1.64,0,2.61-.09V5.17h3.94c.3-.72,1-2.44,1.52-4.2l6.21.58c.26.05.42.21.42.38,0,.38-.75.84-1,.93-.29.63-.71,1.68-1,2.31h5.33v9.7C66.45,13.48,68,11,68,7V2.35H81.15v9.16c0,.46,0,.8.46.8.76,0,1-2.4,1.14-3.7,2.14,1.39,2.81,1.81,4.83,2.19-.8,5.41-1.43,6.47-4.33,6.47H79a3.14,3.14,0,0,1-3.36-3.45V7.56h-2c-.46,4.37-1.89,8.36-4.62,10.84a10.93,10.93,0,0,0-4.2-2.52V17.6c.55-.08,1.26-.12,1.51-.17-.08.88-.16,3.57-.21,4.62-.75.05-1,.05-1.3.09ZM54.52,11.55l4-.75c.42,1.3,1.26,4.57,1.43,5.67V10.25H54.52Zm0,6.81c1.38-.09,4-.26,5.46-.38V16.72a26.33,26.33,0,0,0-4.24.84,28.78,28.78,0,0,0-1.22-5.13Zm18.52,6a15.15,15.15,0,0,0,2.1,3.28,14.66,14.66,0,0,0,2-3.28Z"/><path class="b5c54a4d-ad71-4a14-b5f8-125c229e9ecf" d="M110.42,6.89a.67.67,0,0,1,.34.55c0,.33-.3.42-.51.5s-.54.13-.75.21C107,14.2,100.8,21.21,98,23.06a14,14,0,0,0-5.17-4.28A31.41,31.41,0,0,0,104.5,4Zm9.33,13.61a97.4,97.4,0,0,1,11,16A15.8,15.8,0,0,0,124.83,40a37.88,37.88,0,0,0-1.81-3.7c-9.32,1.35-19.07,2.1-23.4,2.4,0,.29-.12,1.13-.75,1.13-.38,0-.59-.29-.72-.92l-1.42-6.13,4.53-.13A137.76,137.76,0,0,0,109,13.27l6.47,2.19c.21.08.59.21.59.63,0,.63-.84.63-1.26.67-.84,2.1-3.61,9.16-6.93,15.5,1-.08,7.65-.59,12.06-1.13-2.4-3.57-3.74-5.3-5.21-7.14Zm3.19-18c1.18,7.52,4.75,11.3,11,15.63a11,11,0,0,0-4.32,4.49,29.67,29.67,0,0,1-11.89-14.7h-6.22V2.52Z"/><path class="b5c54a4d-ad71-4a14-b5f8-125c229e9ecf" d="M166.66,29.83v9h-5.33v-9h-3.11a15.81,15.81,0,0,1-6.43,9.91,12.15,12.15,0,0,0-4.71-3.11v3h-6V2.27h17.6V16.89h-11.6v19.7c2.95-1.64,5-3.24,5.8-6.76h-4.32V25.16h4.87c0-.75,0-1.68,0-2.48h-3.86V18.27H170v4.41h-3.32v2.48h4.2v4.67ZM153.05,6.43h-6V8h6Zm0,4.74h-6v1.6h6Zm8.28,11.51h-2.61c0,.51,0,2.1-.08,2.48h2.69Zm9,17.14a14.71,14.71,0,0,0-2.23-6.13,12.87,12.87,0,0,0,2.44.34c.79,0,1.68,0,1.68-1.47V16.89H160.53V2.27h17.68V35C178.21,38.86,175.82,39.86,170.32,39.82Zm1.89-33.39h-6.05V8h6.05Zm0,4.74h-6.05v1.6h6.05Z"/><path class="b5c54a4d-ad71-4a14-b5f8-125c229e9ecf" d="M200.13,23.94c-1.17,1-3.27,3.2-3.27,4.58,0,3,5.75,3,7.52,3A58.57,58.57,0,0,0,221.22,29a32,32,0,0,0,1.09,7.14,64,64,0,0,1-16.42,1.93c-6.56,0-9.16-.71-11.22-1.55-1.34-.55-5.33-2.52-5.33-6.77s4.37-8.27,6.09-9.83Zm17.65-13.82c-3.91,1.56-8.28,4.16-10.59,6.85-1.51-1.3-3.11-2.65-4.41-3.61,1.55-1.43,1.93-1.72,3.15-2.73-2.61.21-9.66.59-13.23.5l-.34-7a84.64,84.64,0,0,0,10.46.54,82.37,82.37,0,0,0,11.72-1Zm1.84-6.55A30.4,30.4,0,0,1,223.45,8,17,17,0,0,0,221,11a48.81,48.81,0,0,0-4-4.67ZM222.86,0a44.85,44.85,0,0,1,3.95,4.12A16.38,16.38,0,0,0,224.12,7a34.45,34.45,0,0,0-3.66-4.11Z"/><path class="b5c54a4d-ad71-4a14-b5f8-125c229e9ecf" d="M255,39.91H249V28.69A41.69,41.69,0,0,1,236.67,39.4a14.58,14.58,0,0,0-5.38-4.16,36,36,0,0,0,13.49-10.75h-12.1V19h7.86a33.75,33.75,0,0,0-3.37-6.22l3-1.68h-5.55V5.67H249V1.39l6.3.37c.5.05.92.09.92.63s-.84.72-1.17.8V5.67h14.24v5.46h-5.46l2.56,1.09c.29.13.42.3.42.51,0,.54-.5.63-.84.71A36.61,36.61,0,0,1,263.3,19h7.94v5.46H258.77a32.77,32.77,0,0,0,13.06,10.17,19.82,19.82,0,0,0-4.45,4.53A33,33,0,0,1,255,28.44ZM249,19v-7.9h-5.42a23.67,23.67,0,0,1,3.49,6.47,21.72,21.72,0,0,0-3.2,1.43Zm6.05-7.9V19h4.87a26.7,26.7,0,0,0-2.9-1.51,33,33,0,0,0,3.19-6.39Z"/><path class="b5c54a4d-ad71-4a14-b5f8-125c229e9ecf" d="M296.94,28.19A29.59,29.59,0,0,1,292,33.27,10.62,10.62,0,0,0,288,30.46c.75-.59,1.38-1.05,2.35-1.9-2.6,1.14-5.8,2.36-9.2,3.49,0,.51-.17,1.09-.63,1.09s-.59-.54-.67-1l-1.43-5.93a32.64,32.64,0,0,0,4.75-.88V15.84h-4.33V10.38h4.33V1.64l6.21.33c.51.05.89.09.89.47s-.26.5-.89.79v7.15h3.74v5.46h-3.74v7.64c1-.42,1.64-.67,2.65-1.13h-.29V18.1h25.45v4.25H301l-.8,1.34h16.76c0,4.24-.13,12.65-2.86,14.79-1.59,1.26-4.28,1.38-6.93,1.38A12.46,12.46,0,0,0,306,35.33a32.47,32.47,0,0,1-5,5.25c-1.1-1.18-1.77-1.51-4.46-2.69a29.29,29.29,0,0,0,8.87-9.7h-1.89a29.35,29.35,0,0,1-11.05,11.13,11,11,0,0,0-3.7-3.36,25.64,25.64,0,0,0,9.79-7.77Zm-3.82-5.84a17.86,17.86,0,0,0-.29,3.74,28.29,28.29,0,0,0,2.56-3.74Zm21.17-5.63H294.67V1.93h19.62Zm-5.67-9V6.3h-8.27V7.73Zm-8.27,3.36v1.43h8.27V11.09Zm9.91,17.1A47.12,47.12,0,0,1,306.94,34c.5,0,1,.08,1.47.08.84,0,1.6-.08,1.89-1a21.83,21.83,0,0,0,.76-4.87Z"/><path class="b5c54a4d-ad71-4a14-b5f8-125c229e9ecf" d="M345,32.68c9.12-1.68,11.8-8.74,11.8-13.1,0-3.41-1.8-9.67-9.7-10.3-1.3,15.38-7.64,26.85-12.1,26.85-3.27,0-9.37-5.55-9.37-13.32,0-9,8.24-19.58,20.59-19.58,9.2,0,17.22,6.26,17.22,16.3a19.55,19.55,0,0,1-5,13c-2.56,3-5.54,4.54-9.11,6.09A27.54,27.54,0,0,0,345,32.68ZM331.8,22.31c0,3.23,1.81,5.67,2.69,5.67s1.81-1.89,2.27-3A36.61,36.61,0,0,0,340,10.54C335.12,12.35,331.8,18.52,331.8,22.31Z"/><path class="b5c54a4d-ad71-4a14-b5f8-125c229e9ecf" d="M391.4,18.9a5.17,5.17,0,0,1-.29-1.8v-16l6.38.51c.42,0,.72.17.72.46s-.34.59-1.1,1V7.18a43.63,43.63,0,0,0,7.61-4.07l4.37,4c.16.17.37.38.37.59a.59.59,0,0,1-.67.58,3.82,3.82,0,0,1-.88-.16,97.93,97.93,0,0,1-10.8,4.7v1.34c0,1.56,1.27,1.56,1.85,1.56h4.12c1.47,0,1.89-1.72,2.44-3.82a14.68,14.68,0,0,0,5,2.26c-1.21,7-4,7-6.3,7h-8.73a5.85,5.85,0,0,1-3.28-1c-.29.63-.84,1.72-1.13,2.4h14.28V39.78h-6.56V38.6H382.41v1.18H375.9V22.52h8.49a32.4,32.4,0,0,0,1.51-3.41c-6,1.1-6.55,1.18-12.52,2.31-.13.51-.29.89-.67.89s-.51-.42-.59-.8L370.69,16c1.56-.08,3.36-.25,4.71-.46V1.26l6.8.42a.57.57,0,0,1,.55.59c0,.38-.38.59-1,.88v3H390v5h-8.24v3.41c4.62-.72,6.68-1.18,8.24-1.47a30.21,30.21,0,0,0-.64,5.33c-.12,0-.21,0-.33.08Zm7.39,9.75V27.14H382.41v1.51Zm0,5.5V32.51H382.41v1.64Z"/><path class="b5c54a4d-ad71-4a14-b5f8-125c229e9ecf" d="M429.41,31.67A43.93,43.93,0,0,0,440.29,26V21.21h-4.37a34.82,34.82,0,0,1,3.24,4.2,30.75,30.75,0,0,0-3.87,3,55.24,55.24,0,0,0-3.82-4.79l3.28-2.4h-3.58a10.07,10.07,0,0,0,.89,1,9.57,9.57,0,0,0-2.57,4.5c-.79-1-1.26-1.68-1.89-2.69v16h-5.5V26.46a24.32,24.32,0,0,1-2.1,4.29,15.19,15.19,0,0,0-3.95-3.82,37.35,37.35,0,0,0,5.38-13.24h-4.2V8.61h4.58v-7l5.79.29c.47,0,1,.17,1,.63s-.59.63-1,.71V8.61h3.07v5.08H427.6V15a23.07,23.07,0,0,0,3.28,5.88V16.68h9.41V15.12h-7.1V11.17h7.1V9.62h-9V5.38h4.12a16.2,16.2,0,0,0-1.85-2.69L438.44.38a36,36,0,0,1,2.73,4.28l-1.38.72h4.62a30.5,30.5,0,0,0,2-4.67l5.38,1.6c.51.17.84.34.84.63,0,.55-.54.59-1.26.59-.29.54-.33.67-1,1.85h4.88V9.62h-9.12v1.55h7v3.95h-7v1.56h10v4.53h-3.11l3,2.44a.79.79,0,0,1,.42.63c0,.63-.71.55-1.17.55A24.5,24.5,0,0,1,451,29.41,21,21,0,0,0,457.3,33a11.29,11.29,0,0,0-3.19,4.37,27.86,27.86,0,0,1-7.94-6.56v3.28c0,4.62-1.47,6-8.06,6.22a14.44,14.44,0,0,0-2.32-5.88,17.78,17.78,0,0,0,2.65.21c1.81,0,1.85-.47,1.85-1.52V31.59c-.84.5-3.61,2.18-7.56,4.2,0,.25.12,1.34-.46,1.34s-.76-.54-1-1.13Zm16.76-8.06a14.76,14.76,0,0,0,1.72,2.6,27,27,0,0,0,3.87-5h-5.59Z"/><path class="b5c54a4d-ad71-4a14-b5f8-125c229e9ecf" d="M462.17,23.19a45.35,45.35,0,0,0,9.37-9.79c3.4-4.62,4.53-6.13,7.09-6.13S483,9,485.73,12.48C489.35,17,495,24.07,503,29.57A42.48,42.48,0,0,0,498.29,36c-7.05-6-11.93-12-17.6-18.95-.33-.42-1.47-1.8-2.27-1.8s-1.46,1.13-2.05,2c-4.79,7.06-5.3,7.81-8.57,11.43Z"/></g></g></svg>