<svg xmlns="http://www.w3.org/2000/svg" xmlns:xlink="http://www.w3.org/1999/xlink" viewBox="0 0 580 60"><defs><style>.b010c719-0b6d-47bc-ac7b-661430b6d62a{fill:url(#ab43122c-fb65-4e25-ad03-75c817efea65);}.b281f6d2-141c-448b-bdf1-060f5347d4aa{fill:#ff5064;}.fd0497e7-de4d-42c0-a016-c0d5577e44a9{fill:#fff;}</style><linearGradient id="ab43122c-fb65-4e25-ad03-75c817efea65" x1="290" y1="60" x2="290" gradientUnits="userSpaceOnUse"><stop offset="0" stop-opacity="0.15"/><stop offset="0.15" stop-opacity="0.08"/><stop offset="1" stop-opacity="0"/></linearGradient></defs><title>to_caution</title><g id="bd0b1641-e33b-459d-a6bb-e1eea4d58954" data-name="レイヤー 2"><g id="edc3507f-3b76-43aa-a2c5-c5afe37326bf" data-name="object"><rect class="b010c719-0b6d-47bc-ac7b-661430b6d62a" width="580" height="60" rx="6"/><rect class="b281f6d2-141c-448b-bdf1-060f5347d4aa" width="580" height="60" rx="6"/><path class="fd0497e7-de4d-42c0-a016-c0d5577e44a9" d="M220.61,30.68c-1.69,1.4-2.47,2.6-2.47,3.82s.75,2,2.21,2.55a16.77,16.77,0,0,0,4.75.52,24.57,24.57,0,0,0,7.8-1l.24,2.13a8.68,8.68,0,0,0-.89.13,42.38,42.38,0,0,1-7,.6,18.21,18.21,0,0,1-6-.81c-1.95-.8-3-2.13-3-3.92s1-3.33,3-5Zm-2.73-9.49a29.79,29.79,0,0,0,6.91.62,28.08,28.08,0,0,0,6.58-.55L231.5,23A39.35,39.35,0,0,0,225,26.93l-1.33-1.06a40.44,40.44,0,0,1,4.6-2.76,20.51,20.51,0,0,1-3.92.34,50.39,50.39,0,0,1-5.72-.34l-.86-.08Zm13,4.49a21.21,21.21,0,0,1,2.65,4l-1.3.78a20.75,20.75,0,0,0-2.65-4.13Zm2.83-1.53a20,20,0,0,1,2.71,4.06l-1.3.72a22.29,22.29,0,0,0-2.65-4.08Z"/><path class="fd0497e7-de4d-42c0-a016-c0d5577e44a9" d="M253.94,29.51a25.62,25.62,0,0,0,3.09-6l1.61.65a38.75,38.75,0,0,1-2.88,5.31h3.85a13.91,13.91,0,0,0,2.86-.19v1.85a22.74,22.74,0,0,0-2.92-.16h-7.22a26.49,26.49,0,0,0,3.43,3.62,24.16,24.16,0,0,0,7,4.39,7.32,7.32,0,0,0-1.12,1.61,27.73,27.73,0,0,1-6.55-4.42,23.42,23.42,0,0,1-3.67-4.36c.08,1.43.11,2.13.11,2.8v4.66a13.94,13.94,0,0,0,.18,2.52h-2a14.16,14.16,0,0,0,.18-2.52V34.65c0-.78,0-1.22.11-2.78a21,21,0,0,1-4.89,5.59,30,30,0,0,1-4.65,3.17,6.74,6.74,0,0,0-1.17-1.5,27,27,0,0,0,7.22-5.07A23.07,23.07,0,0,0,249.21,31h-6.79a27.41,27.41,0,0,0-2.86.16V29.32a17.74,17.74,0,0,0,2.83.19h7.54V22.69h-6.21a24.48,24.48,0,0,0-2.78.16V21a18.53,18.53,0,0,0,2.83.18h6.16v-.86a13.76,13.76,0,0,0-.15-2.15h1.92a9.73,9.73,0,0,0-.15,2.15v.86h6.63a14.63,14.63,0,0,0,2.88-.18v1.82a20.9,20.9,0,0,0-2.83-.16h-6.68v6.82Zm-9.47-6a32,32,0,0,1,2.58,4.81l-1.46.75a25,25,0,0,0-2.52-4.89Z"/><path class="fd0497e7-de4d-42c0-a016-c0d5577e44a9" d="M268.68,21.34a19.64,19.64,0,0,0-.16-2.86h1.93a17.7,17.7,0,0,0-.16,2.89V25h.63a14.76,14.76,0,0,0,2.15-.11v1.67a19.73,19.73,0,0,0-2.15-.11h-.63v6.68a22.39,22.39,0,0,0,2.21-1.32l.11,1.56a49.49,49.49,0,0,1-5.41,2.94c-.42.18-1.15.54-1.38.67l-.49-1.82a13.2,13.2,0,0,0,3.35-1.27V26.41h-1.12a18.4,18.4,0,0,0-2.21.13V24.83a15,15,0,0,0,2.26.13h1.07ZM276,33.22a16.58,16.58,0,0,1-4.37,3.46,4.46,4.46,0,0,0-1.07-1.17c3.07-1.56,5-3.3,6-5.48H275a13.2,13.2,0,0,0-2.34.15V28.49a12.15,12.15,0,0,0,2.39.16h11.1a14.21,14.21,0,0,0,2.58-.16v1.64a21.93,21.93,0,0,0-2.58-.1H278.2a13.21,13.21,0,0,1-1.2,1.89h8.61a20,20,0,0,0,2.54-.1,14.1,14.1,0,0,0-.13,1.53c-.2,3.07-.67,6-1.14,6.95s-1.12,1.19-2.89,1.19c-.59,0-1.45-.05-2.26-.1a4.49,4.49,0,0,0-.52-1.69,17.74,17.74,0,0,0,3.1.28c1,0,1.22-.2,1.56-1.76a32,32,0,0,0,.57-5H284.7a15.34,15.34,0,0,1-2.32,3.93,26.14,26.14,0,0,1-3.2,3.2,19.81,19.81,0,0,1-2.1,1.45,4.48,4.48,0,0,0-1.2-1.22,16.58,16.58,0,0,0,5.1-3.95,12.72,12.72,0,0,0,2.13-3.41h-2.57a18,18,0,0,1-7.15,6.5,4,4,0,0,0-1.12-1.22,14.83,14.83,0,0,0,6.58-5.28Zm.83-6.29a17.77,17.77,0,0,0-2.37.11,19.63,19.63,0,0,0,.11-2.34V21.32a16.91,16.91,0,0,0-.11-2.29,17.36,17.36,0,0,0,2.5.13h6.78a19.74,19.74,0,0,0,2.71-.13,18.72,18.72,0,0,0-.1,2.42V24.7a15.2,15.2,0,0,0,.1,2.31c-.57-.05-1.38-.08-2.39-.08Zm-.73-4.52h8.71v-1.9h-8.71Zm0,3.25h8.71v-2h-8.71Z"/><path class="fd0497e7-de4d-42c0-a016-c0d5577e44a9" d="M301.86,33c-1.51,3.44-3.05,5-4.92,5-2.47,0-4.31-2.71-4.31-6.35A10.56,10.56,0,0,1,303.75,21a10.07,10.07,0,0,1,7.15,2.57,8.72,8.72,0,0,1,2.53,6.35,9.48,9.48,0,0,1-6,9,20.49,20.49,0,0,1-4,1.19,4.13,4.13,0,0,0-.91-1.74A15.53,15.53,0,0,0,307,37.1a7.84,7.84,0,0,0,4.6-7.28,6.84,6.84,0,0,0-4.13-6.53,7.56,7.56,0,0,0-3-.65A38.91,38.91,0,0,1,301.86,33Zm-3.2-9.07a9,9,0,0,0-4.24,7.75c0,2.49,1.09,4.42,2.5,4.42,1.09,0,2.13-1.22,3.25-3.77a36.06,36.06,0,0,0,2.36-9.62A8.15,8.15,0,0,0,298.66,23.89Z"/><path class="fd0497e7-de4d-42c0-a016-c0d5577e44a9" d="M318.39,24.9a24.71,24.71,0,0,1,4.53,3.44l-1,1.45a19,19,0,0,0-4.53-3.66Zm4.81,8.38a45.25,45.25,0,0,1-3.51,7.17L319,41.6l-1.51-1.36c1.38-1.48,2.83-4.13,4.31-8Zm-3.43-14.57a25.24,25.24,0,0,1,4.37,3.52l-1.07,1.37a18.08,18.08,0,0,0-4.37-3.74ZM327,25.58a23.25,23.25,0,0,0-2.73.13V23.92a20.14,20.14,0,0,0,2.73.15h10.33a18.77,18.77,0,0,0,2.7-.15v1.79a26.24,26.24,0,0,0-2.7-.13h-4.68V31h3.9a19.34,19.34,0,0,0,2.68-.15v1.77a26.72,26.72,0,0,0-2.68-.13h-3.9v6.57h5.2a20.94,20.94,0,0,0,2.86-.15v1.82c-.76-.08-1.8-.13-2.86-.13H326.06c-1.12,0-2.05,0-2.86.13V38.92a21,21,0,0,0,2.84.15H331V32.5h-3.2c-1,0-1.93,0-2.71.13V30.86a19.34,19.34,0,0,0,2.68.15H331V25.58Zm2.24-7.23a31.73,31.73,0,0,1,5.43,3.43l-1.11,1.38a22.34,22.34,0,0,0-5.41-3.59Z"/><path class="fd0497e7-de4d-42c0-a016-c0d5577e44a9" d="M343.38,40.3a11.31,11.31,0,0,0,3.12-4.74l1.48.68a15.45,15.45,0,0,1-3.2,5.07ZM354,19.7a10.86,10.86,0,0,0-.16-1.76h2a10.2,10.2,0,0,0-.15,1.76v.5h6.39a15.84,15.84,0,0,0,2.68-.16v1.61c-.83-.07-1.53-.1-2.7-.1h-1.54a21.45,21.45,0,0,1-1.3,2.55h4.27a17.11,17.11,0,0,0,3-.16v1.67a20.61,20.61,0,0,0-3.07-.13h-16.8a20.61,20.61,0,0,0-3.06.13V23.94a20.91,20.91,0,0,0,3.12.16h3.9a26,26,0,0,0-1.07-2.55H348c-1.11,0-1.76,0-2.54.1V20a14.38,14.38,0,0,0,2.57.16h6Zm-4.37,14.88c-1.25,0-2,0-2.86.07a14.66,14.66,0,0,0,.1-2.13V29.25a17.51,17.51,0,0,0-.1-2.29,26.75,26.75,0,0,0,2.86.1h10.63a26.27,26.27,0,0,0,2.94-.1,15.85,15.85,0,0,0-.1,2.26v3.25a16.15,16.15,0,0,0,.1,2.18c-.65,0-1.85-.07-2.78-.07Zm-1.22-4.45h13.15V28.36H348.4Zm0,3.15h13.15v-1.9H348.4Zm2.93,6c0,.33.11.46.52.57a16,16,0,0,0,2.84.15c3.56,0,4.42-.07,4.83-.49a4.6,4.6,0,0,0,.37-2.44,2.23,2.23,0,0,0,0-.42,4,4,0,0,0,1.61.6c-.15,4.05-.36,4.18-6.26,4.18-4.79,0-5.49-.2-5.49-1.66V37.59a11.45,11.45,0,0,0-.15-2h1.92a8.34,8.34,0,0,0-.16,2ZM357.5,24.1a17.82,17.82,0,0,0,1.27-2.55h-7.54a25.52,25.52,0,0,1,1.07,2.55Zm-1.17,14.77a14.31,14.31,0,0,0-3.12-3.1l1.11-.8a17.08,17.08,0,0,1,3.31,2.93Zm9,2a25.89,25.89,0,0,0-3.8-4.73l1.33-.75a32.08,32.08,0,0,1,3.82,4.5Z"/><polygon class="fd0497e7-de4d-42c0-a016-c0d5577e44a9" points="16 26 32 26 24 34 16 26"/></g></g></svg>