<svg xmlns="http://www.w3.org/2000/svg" viewBox="0 0 239.7 40"><defs><style>.aa376773-9abf-4e29-a555-1e641e8d4234{fill:#ff5064;}</style></defs><title>ttl_attention</title><g id="a060d4ef-f4df-4076-8383-6644fb153fff" data-name="レイヤー 2"><g id="a937f46d-4d1e-4242-8149-18ea58afe5be" data-name="object"><rect class="aa376773-9abf-4e29-a555-1e641e8d4234" width="10" height="40"/><path class="aa376773-9abf-4e29-a555-1e641e8d4234" d="M38.14,22.74c-1,.86-2.81,2.73-2.81,3.92,0,2.59,4.93,2.59,6.44,2.59a50.06,50.06,0,0,0,14.44-2.16,27.25,27.25,0,0,0,.93,6.12,54.7,54.7,0,0,1-14.07,1.66c-5.62,0-7.85-.61-9.61-1.33-1.15-.47-4.57-2.16-4.57-5.8s3.74-7.09,5.22-8.42ZM53.26,10.89c-3.35,1.34-7.09,3.57-9.07,5.87-1.3-1.11-2.67-2.27-3.78-3.09,1.33-1.23,1.65-1.48,2.7-2.34-2.24.18-8.28.5-11.34.43l-.29-6a72.51,72.51,0,0,0,9,.46,71,71,0,0,0,10-.82Zm1.58-5.61a26.27,26.27,0,0,1,3.28,3.78A14.66,14.66,0,0,0,56,11.65a40.22,40.22,0,0,0-3.45-4Zm2.77-3.06A37.54,37.54,0,0,1,61,5.75,14.07,14.07,0,0,0,58.69,8.2a28.69,28.69,0,0,0-3.13-3.53Z"/><path class="aa376773-9abf-4e29-a555-1e641e8d4234" d="M81.59,36.42H76.41V26.8A35.79,35.79,0,0,1,65.86,36a12.57,12.57,0,0,0-4.61-3.56,30.94,30.94,0,0,0,11.56-9.21H62.44V18.53h6.73a29.08,29.08,0,0,0-2.88-5.33l2.59-1.44H64.13V7.08H76.41V3.41l5.4.32c.43,0,.79.07.79.54s-.72.61-1,.69V7.08h12.2v4.68H89.11l2.2.93c.25.11.36.26.36.44,0,.46-.43.54-.72.61a32.5,32.5,0,0,1-2.27,4.79h6.8v4.68H84.79A28.1,28.1,0,0,0,96,31.92a17.06,17.06,0,0,0-3.82,3.88,28.22,28.22,0,0,1-10.58-9.21ZM76.41,18.53V11.76H71.76a20.16,20.16,0,0,1,3,5.54A17.8,17.8,0,0,0,72,18.53Zm5.18-6.77v6.77h4.17a25.06,25.06,0,0,0-2.48-1.3A28.17,28.17,0,0,0,86,11.76Z"/><path class="aa376773-9abf-4e29-a555-1e641e8d4234" d="M113.92,26.37a25.31,25.31,0,0,1-4.25,4.36,8.92,8.92,0,0,0-3.38-2.41c.64-.51,1.18-.9,2-1.62-2.23,1-5,2-7.88,3,0,.44-.14.94-.54.94s-.5-.47-.58-.83l-1.22-5.07a31.34,31.34,0,0,0,4.07-.76V15.79H98.44V11.11h3.71V3.62l5.32.29c.44,0,.76.07.76.4s-.22.43-.76.68v6.12h3.21v4.68h-3.21v6.55c.87-.36,1.41-.57,2.27-1h-.25V17.73H131.3v3.64H117.37l-.68,1.15h14.36c0,3.64-.11,10.84-2.45,12.67-1.36,1.08-3.67,1.19-5.94,1.19a10.63,10.63,0,0,0-1-3.89,27.09,27.09,0,0,1-4.28,4.5c-.94-1-1.51-1.29-3.82-2.3a25,25,0,0,0,7.6-8.32h-1.62a25.1,25.1,0,0,1-9.47,9.54A9.53,9.53,0,0,0,106.93,33a21.84,21.84,0,0,0,8.39-6.66Zm-3.28-5a15.78,15.78,0,0,0-.25,3.2,23.78,23.78,0,0,0,2.2-3.2Zm18.14-4.82H112V3.88h16.81Zm-4.86-7.71V7.62h-7.09V8.84Zm-7.09,2.88V13h7.09V11.72Zm8.5,14.65a39.4,39.4,0,0,1-2.85,5c.44,0,.83.07,1.26.07.72,0,1.37-.07,1.62-.9a18.1,18.1,0,0,0,.65-4.18Z"/><path class="aa376773-9abf-4e29-a555-1e641e8d4234" d="M151.47,30.22c7.81-1.44,10.11-7.48,10.11-11.23a8.53,8.53,0,0,0-8.31-8.82c-1.12,13.18-6.56,23-10.37,23-2.81,0-8-4.76-8-11.41C134.87,14,141.93,5,152.51,5c7.88,0,14.76,5.36,14.76,14A16.8,16.8,0,0,1,163,30.08c-2.2,2.56-4.75,3.89-7.81,5.22A23.54,23.54,0,0,0,151.47,30.22ZM140.2,21.33c0,2.77,1.55,4.86,2.3,4.86s1.55-1.62,1.95-2.55a31.75,31.75,0,0,0,2.77-12.39C143,12.8,140.2,18.09,140.2,21.33Z"/><path class="aa376773-9abf-4e29-a555-1e641e8d4234" d="M171.56,11.65a33.85,33.85,0,0,1,6.94,3.67,37.94,37.94,0,0,0-2.34,4.57,64.69,64.69,0,0,0-6.84-3.63ZM169.32,33A56.85,56.85,0,0,0,176.67,21a19.12,19.12,0,0,0,3.78,3.31,82,82,0,0,1-5.69,10.73c0,.32.11.61.11.79s-.15.47-.36.47a1,1,0,0,1-.54-.22Zm5.94-29.88a53,53,0,0,1,5.91,3.67,45.38,45.38,0,0,0-2.7,4.43,50,50,0,0,0-5.91-3.85Zm27.47,5.84v4.57h-8.68v5.36h6.81v4.9h-6.81v6.87h9.22v5H179.65v-5h9.08V23.75H182v-4.9h6.7V13.49h-8.14V8.92h7.92a32.42,32.42,0,0,0-3.1-2.85l4.43-3.31a40.26,40.26,0,0,1,5.33,5,18.45,18.45,0,0,0-1.84,1.19Z"/><path class="aa376773-9abf-4e29-a555-1e641e8d4234" d="M214.72,29.76c.36.18.75.39.75.75s-.82.51-1.15.51a41.74,41.74,0,0,1-3.88,5.36,10.61,10.61,0,0,0-4.11-2.56,25,25,0,0,0,4.39-6.22ZM237.54,5.28V9.09H233c0,.44-.57.51-1.08.54-.18.4-.25.58-.46,1h8.2v3.88H206.58V10.61h7.67c-.18-.29-.47-.72-.72-1.08l1.69-.44h-6.66V5.28h11.63V3.05l5.58.29c.22,0,.58.1.58.36s-.22.46-.58.68v.9Zm-14.83,22H211.55V15.79h22.93V27.24h-9a25.59,25.59,0,0,1,2,2.66c-.36.25-2.95,1.91-3.53,2.23a20.66,20.66,0,0,0-2.84-4Zm-2.63,1c.61.07,1.08.14,1.08.47s-.25.36-.9.54v2.09c0,1.08.69,1.15,1.33,1.15h4.72c1.3,0,1.84-1.3,2.27-3.06a10.83,10.83,0,0,0,4.24,2.12c-.61,2.34-1.26,4.79-5.36,4.79h-8.21c-3,0-3.63-1.08-3.63-3.2V27.85Zm9.32-8.06V18.71H216.81v1.51Zm-12.59,2.55v1.55H229.4V22.77ZM219,9.09l1,1.52h5.65a16,16,0,0,0,.72-1.52Zm16.23,18.22A29.13,29.13,0,0,1,239.7,33a22,22,0,0,0-3.78,2.66,40.93,40.93,0,0,0-4.39-6.08Z"/></g></g></svg>