<svg id="レイヤー_1" data-name="レイヤー 1" xmlns="http://www.w3.org/2000/svg" viewBox="0 0 377.5 377.5"><defs><style>.cls-1{fill:#fff;}</style></defs><title>new_jp</title><polyline points="0.5 0 377.5 0 377.5 377"/><path class="cls-1" d="M155.87,75.68a47.12,47.12,0,0,0,19.63-5.06l5.2,11.44c-12.34,6.52-22.47,7.22-22.47,7.22Zm16.44-9.23,7.77-7.76L186,64.58,195.55,55l-8.74-8.74,7.63-7.63,8.74,8.74,3.88-3.89a16.55,16.55,0,0,1-5.82-.27l.9-13.39a54.72,54.72,0,0,0,28.09.9l7.56,10.89a35.14,35.14,0,0,1-7,.63l41.06,41.06-7.7,7.7-6-6-8.68,8.67,8.74,8.74-7.63,7.63-8.74-8.74-9.57,9.57,6.87,6.87-7.77,7.77Zm.83,37.32A174.35,174.35,0,0,0,184,86.57l10.41,6.52c-4.58,9.44-9.51,18-9.57,18Zm16.72,16.17a116.93,116.93,0,0,0,9-17.9l11,5.69a179.84,179.84,0,0,1-8.19,19Zm18.66-52-4.65-4.65-9.57,9.58L199,77.55Zm12.69,12.7-5-5-9.57,9.57,5,5Zm-13.87,57.57a167.53,167.53,0,0,0,6.8-20.67l11.58,4.09a152.19,152.19,0,0,1-5.34,20.74Zm17.48-86.57L220.17,47,211.5,55.7l4.65,4.65ZM233.56,93l-4.65-4.65L219.34,98,224,102.6Zm3.95-28.65-5-5-8.67,8.67,5,5Zm12.35,12.35-4.65-4.65-8.67,8.67,4.65,4.65Z"/><path class="cls-1" d="M275.18,206.37l19.29-19.29-22.41-15.46,6.73-9.65-10.34,2.85a93.35,93.35,0,0,1,6.31-16.3l-28.71,28.71-8.47-8.46,26.85-26.84c-7.49,4.71-18.24,9.78-24.14,11L244,137.21c8.32.69,18.59-1.25,28-5.2l-9.57-9.57,8.11-8.12,10.76,10.75,3.95-3.95-8.88-4.3c6.38-12.07,9.71-19.15,9.71-19.15l9.57,5a196.74,196.74,0,0,1-9.5,17.55l17-17,8.46,8.46L295,128.26a164.11,164.11,0,0,0,17.2-9.29l5.27,9.57s-13.52,7.56-19.9,9.78l-3.47-9.16-4.37,4.37,9.85,9.85-8.12,8.12-8.67-8.67a57.71,57.71,0,0,0-.48,18.1l-2.29.63,23.58,16.37,37.11-37.11,9,9L314.3,185.28l5.69,3.89-7.21,10.54-7.63-5.27L284.2,215.39ZM297.45,167c0-7.22-1.32-19.08-1.32-19.08l11.93-.41s.83,10.12,1.39,18.86Zm17.89-14.15c.21-6.73-1.18-18.94-1.18-18.94l11.94-.42s1,8.81,1.38,18.87Z"/></svg>