<svg xmlns="http://www.w3.org/2000/svg" width="200" height="193.99"><defs><style>.cls-1{fill:#231815}.cls-2{fill:#fbe3d5}.cls-3{fill:#e50012}</style></defs><g id="レイヤー_2" data-name="レイヤー 2"><g id="object"><path class="cls-1" d="M100.12 20.9c-30 0-30.22 43.27-20.67 69.51 3.41 9.36 6.25 15 9 18.45h23.34c2.74-3.45 5.59-9.09 9-18.45 9.55-26.24 9.36-69.51-20.67-69.51zm15.1 46.8a93.51 93.51 0 01-3.67 21.36 123.89 123.89 0 01-4.55 13.15H93.29a126.68 126.68 0 01-4.57-13.15c-5-16.81-5.27-36.92.24-47.55 1.63-3.16 4.41-7.51 11.17-7.51s9.54 4.38 11.18 7.54c3.23 6.19 4.47 15.84 3.91 26.16zm-43.84 41.16h7A100.62 100.62 0 0162 62.87 9.94 9.94 0 0171.52 67s-.35-3.46-.41-7c-.07-4 .11-6.15.11-6.15A16.45 16.45 0 0059.9 51.2c-20.64 2.43-17.82 39.73-5.62 57.66h6.93c-8.05-12.72-9.5-31.54-6.85-39a107.61 107.61 0 0017.02 39zm-6.64-65.27l5.71-4.04h-7.01L61.3 32.9l-2.12 6.65h-7.02l5.72 4.04-2.17 6.72 5.59-4.19 5.61 4.19-2.17-6.72zm38.84-31.32l5.69-4.05h-7l-2.14-6.64-2.14 6.64h-7.01l5.71 4.05-2.16 6.72 5.6-4.19 5.6 4.19-2.15-6.72zm38.8 31.32l5.7-4.04h-7.01l-2.14-6.65-2.14 6.65h-7.01l5.72 4.04-2.17 6.72 5.6-4.19 5.6 4.19-2.15-6.72z"/><path class="cls-1" d="M156.19 82.05c1.43-5.79 1.79-13.52-1.06-20.58-5.2-12.87-20.57-12.09-26.13-7.57a101.08 101.08 0 01-.29 13.1c6.49-9.36 21.58-5 18.7 7.09-2.34 9.89-16.94 9-19.56-.72a89.66 89.66 0 01-2.14 10.24c2.72 6.23 14.38 8.63 20.8 4.63a61.92 61.92 0 01-14.19 20.58h7S152.25 98 156.19 82.05z"/><path class="cls-2" d="M98.54 19.32c-30 0-30.23 43.26-20.68 69.5 3.41 9.37 6.26 15 9 18.45h23.34c2.74-3.45 5.58-9.08 9-18.45 9.56-26.24 9.36-69.5-20.66-69.5zm15.1 46.79A92.89 92.89 0 01110 87.47a121.64 121.64 0 01-4.58 13.15H91.7a127.14 127.14 0 01-4.56-13.15c-5-16.8-5.28-36.91.24-47.55 1.63-3.16 4.41-7.54 11.16-7.54s9.55 4.38 11.19 7.54c3.27 6.23 4.47 15.88 3.91 26.19zM69.8 107.27h7a100.83 100.83 0 01-16.42-46 10 10 0 019.56 4.18s-.36-3.46-.42-7c-.06-4 .11-6.15.11-6.15a16.32 16.32 0 00-11.31-2.7C37.68 52 40.5 89.34 52.7 107.27h6.92c-8-12.71-9.49-31.54-6.85-39a107.72 107.72 0 0017.03 39zm-6.64-65.26l5.71-4.05h-7.01l-2.14-6.64-2.13 6.64h-7.02l5.72 4.05-2.16 6.71 5.59-4.18 5.61 4.18-2.17-6.71zm38.83-31.32l5.7-4.06h-7.01L98.54 0l-2.13 6.63H89.4l5.71 4.06-2.17 6.71 5.6-4.19 5.6 4.19-2.15-6.71zm38.8 31.32l5.71-4.05h-7.01l-2.14-6.64-2.14 6.64h-7.01l5.71 4.05-2.16 6.71 5.6-4.18 5.6 4.18-2.16-6.71z"/><path class="cls-2" d="M154.61 80.46c1.43-5.79 1.78-13.52-1.07-20.58C148.34 47 133 47.8 127.41 52.32a101.08 101.08 0 01-.28 13.14c6.49-9.36 21.57-5 18.7 7.09-2.35 9.88-16.94 8.94-19.57-.73a87.26 87.26 0 01-2.14 10.24c2.72 6.23 14.38 8.63 20.81 4.63a61.92 61.92 0 01-14.19 20.58h7s12.93-10.84 16.87-26.81z"/><path class="cls-3" d="M99.33 20.11c-30 0-30.23 43.26-20.68 69.5 3.42 9.37 6.26 15 9 18.45H111c2.74-3.44 5.59-9.08 9-18.45 9.55-26.24 9.35-69.5-20.67-69.5zm15.1 46.8a93 93 0 01-3.68 21.36 124.81 124.81 0 01-4.57 13.14H92.5a124.81 124.81 0 01-4.57-13.14c-5-16.81-5.28-36.92.24-47.56 1.63-3.16 4.41-7.53 11.17-7.53s9.54 4.37 11.18 7.53c3.23 6.23 4.48 15.88 3.91 26.2zm-43.84 41.15h7a100.67 100.67 0 01-16.41-46 10 10 0 019.55 4.17s-.35-3.46-.41-7c-.07-4 .11-6.15.11-6.15a16.36 16.36 0 00-11.32-2.7c-20.64 2.42-17.82 39.73-5.62 57.65h6.93c-8.05-12.71-9.5-31.53-6.85-39a107.51 107.51 0 0017.02 39.03zM63.95 42.8l5.71-4.05h-7.01l-2.14-6.64-2.13 6.64h-7.02l5.72 4.05-2.16 6.72 5.59-4.19 5.61 4.19-2.17-6.72zm38.83-31.32l5.7-4.05h-7.01L99.34.79 97.2 7.43h-7.01l5.71 4.05-2.17 6.71 5.61-4.18 5.6 4.18-2.16-6.71zm38.81 31.32l5.7-4.05h-7.01l-2.14-6.64-2.14 6.64h-7.01l5.72 4.05-2.17 6.72 5.6-4.19 5.6 4.19-2.15-6.72z"/><path class="cls-3" d="M155.4 81.25c1.43-5.79 1.78-13.52-1.06-20.58-5.2-12.86-20.57-12.08-26.14-7.56a101.08 101.08 0 01-.28 13.14c6.49-9.36 21.57-5 18.7 7.09-2.34 9.89-16.94 8.94-19.57-.72a87.81 87.81 0 01-2.14 10.24c2.72 6.23 14.39 8.63 20.81 4.63a62 62 0 01-14.19 20.57h7s12.93-10.84 16.87-26.81z"/><path d="M21.86 128.5v-2.21a6.1 6.1 0 001.75 1.14 4.85 4.85 0 001.87.38 2.21 2.21 0 001.86-.7 4.54 4.54 0 00.53-2.59v-7.81h-3.55v-1.59h5.43v9.4a5.54 5.54 0 01-1 3.73 4.21 4.21 0 01-3.28 1.09 7.79 7.79 0 01-1.78-.21 10 10 0 01-1.83-.63zm13.92-13.38h2.28l4.26 13.95h-2l-1-3.63h-4.84l-1 3.63h-1.95zm1.14 1.66l-2 7.14h4zm7.58-1.66h4.06a5.19 5.19 0 013.52 1.06 4.63 4.63 0 010 6.23 5.22 5.22 0 01-3.53 1h-2.17v5.61H44.5zm1.88 1.55v5.24h2.18a2.85 2.85 0 002-.69 2.92 2.92 0 000-3.86 2.82 2.82 0 00-2-.69zm10.45-1.55h2.28l4.26 13.95h-1.95l-1-3.63h-4.89l-1 3.63h-1.95zm1.17 1.66l-2 7.14h4zm7.42-1.61H68l5.43 11.44v-11.44h2v13.9h-2.58l-5.43-11.44v11.44h-2zm18.75-.05h10.6v1.59h-4.34v12.36h-1.89v-12.36h-4.37zm21.43 6.99a10.22 10.22 0 01-1.15 5.44 4.32 4.32 0 01-7 0 10.15 10.15 0 01-1.15-5.44 10.33 10.33 0 011.15-5.45 4.32 4.32 0 017 0 10.24 10.24 0 011.15 5.45zm-2 0a11 11 0 00-.63-4.39 2.27 2.27 0 00-4.12 0 11.22 11.22 0 00-.62 4.39 11.19 11.19 0 00.62 4.38 2.27 2.27 0 004.12 0 11 11 0 00.67-4.38zm3.4-6.99h2l3.39 6.16 3.38-6.16h2l-4.46 7.69v6.26h-1.89v-6.26zm19.52 0h2.28l4.26 13.95h-1.95l-1-3.63h-4.87l-1 3.63h-2zm1.14 1.66l-2 7.14h4zm5.74-1.66h1.84l1.33 11.32 1.58-7.49h2l1.6 7.51 1.33-11.34h1.83l-2.07 13.95H141l-1.89-8.29-1.88 8.29h-1.78zm16.08 0h2.28l4.24 13.95h-2l-1-3.63h-4.87l-1 3.63h-1.94zm1.14 1.66l-2 7.14h4zm12.82 5.7a2.71 2.71 0 011.24.71 8.54 8.54 0 011.27 2.07l1.89 3.81h-2l-1.66-3.52a5.56 5.56 0 00-1.28-1.94 2.45 2.45 0 00-1.5-.43h-1.8v5.89h-1.89v-13.95h3.88a5.31 5.31 0 013.51 1 3.73 3.73 0 011.22 3 3.37 3.37 0 01-.75 2.25 3.26 3.26 0 01-2.13 1.11zm-3.86-5.81v5h2.06a2.91 2.91 0 002-.6 2.42 2.42 0 00.66-1.86 2.37 2.37 0 00-.7-1.85 2.92 2.92 0 00-2-.64zm12.36-1.55a6 6 0 014.69 1.7c1 1.14 1.51 2.9 1.51 5.29s-.51 4.13-1.51 5.26a6 6 0 01-4.69 1.7h-2.82v-13.95zm0 12.4a4 4 0 003.32-1.18c.62-.78.94-2.19.94-4.23s-.32-3.48-.94-4.26a4 4 0 00-3.32-1.18H171v10.85z" stroke="#e50012" stroke-miterlimit="10" stroke-width=".25" fill="#e50012"/><path class="cls-1" d="M143.07 155.45h-3l.81-1.65a.57.57 0 00-.27-.75l-2-1a.59.59 0 00-.76.26l-1 2a.57.57 0 00.26.75l.74.36h-3.25v-2.83a.58.58 0 00-.57-.57h-2.26a.57.57 0 00-.55.57v2.83h-2.91a.57.57 0 00-.57.56v2.26a.57.57 0 00.57.56h2.91v7.35a.56.56 0 00.55.56H134a.57.57 0 00.57-.56v-7.35h5.67v1.94h-2.84a.57.57 0 00-.57.56v2.26a.57.57 0 00.57.56h5.67a.56.56 0 00.56-.56V156a.57.57 0 00-.56-.55zM121 148.61a.56.56 0 00.56-.56v-2.26a.57.57 0 00-.56-.57h-8.71v-4.42a.57.57 0 00-.56-.57h-2.26a.57.57 0 00-.56.57v4.42h-4.83a.58.58 0 00-.57.57v2.26a.57.57 0 00.57.56H109v6.2a.57.57 0 00.56.57h8.68v8h-8.68a.58.58 0 00-.56.58v2.24a.57.57 0 00.56.56H121a.57.57 0 00.58-.56v-13.64a.58.58 0 00-.58-.56h-8.67v-3.38zM99.66 160.5a.57.57 0 00-.56-.56h-2.25a.56.56 0 00-.56.56v2.86h-8.06v-8h7.09a.57.57 0 00.56-.57v-2.25a.57.57 0 00-.56-.57h-7.09v-3.38h7.09a.57.57 0 00.56-.56v-2.26a.57.57 0 00-.56-.57h-7.09v-4.4a.57.57 0 00-.56-.57h-2.26a.58.58 0 00-.57.57v4.42h-4.75a.57.57 0 00-.56.57v2.26a.56.56 0 00.56.56h4.75V152h-4.75a.57.57 0 00-.56.57v2.25a.57.57 0 00.56.57h4.75v10.8a.57.57 0 00.57.56H99.1a.56.56 0 00.56-.56zM72 143.52l-3.61-3.29a.57.57 0 00-.79 0l-1.52 1.67a.57.57 0 000 .8l2.74 2.48h-5.2v-4.38a.58.58 0 00-.57-.57H60.8a.58.58 0 00-.57.57v4.42h-6.42a.57.57 0 00-.55.57v2.26a.56.56 0 00.55.56h6.42v4.82H53.8a.52.52 0 00-.21 0 .57.57 0 00-.35.52v12.19a.57.57 0 00.56.56h9.25a.57.57 0 00.57-.56v-9.37h6v6.55h-2a.56.56 0 00-.56.57v2.25a.55.55 0 00.56.56h4.87a.57.57 0 00.57-.56V154a.56.56 0 00-.57-.56h-8.87v-4.82h8.83a.56.56 0 00.56-.56v-2.26a.57.57 0 00-.56-.57h-1.24l.84-.91a.56.56 0 00-.05-.8zm-11.77 19.84h-3.61v-6.55h3.61zm-42.1-20.55a.57.57 0 00-.56-.56H.56a.56.56 0 00-.56.56v23.24a.56.56 0 00.56.56h17a.57.57 0 00.56-.56zm-3.39 9.7h-7.9a.57.57 0 00-.57.57v2.25a.56.56 0 00.57.56h7.9v7.32H3.4v-17.55h11.34zm166.65-9.35h2.26a.57.57 0 00.56-.57v-1.88a.56.56 0 00-.56-.56h-2.26a.56.56 0 00-.56.56v1.88a.57.57 0 00.56.57zm11.29 0h2.23a.58.58 0 00.58-.57v-1.88a.57.57 0 00-.57-.56h-2.24a.57.57 0 00-.58.56v1.88a.58.58 0 00.58.57zm2.25 8.29a.56.56 0 00.57-.56v-3.39a.57.57 0 00-.57-.56h-13.49a.57.57 0 00-.56.56v3.39a.55.55 0 00.56.56zm-11-2.92h8.5v1.33h-8.5zm15.51-4.6h-9.6v-3.22a.55.55 0 00-.56-.56H187a.56.56 0 00-.57.56v3.22h-9.54a.57.57 0 00-.57.56v4.91a.58.58 0 00.57.57h2.25a.58.58 0 00.57-.57V146h16.87v3.41a.57.57 0 00.57.57h2.25a.56.56 0 00.56-.57v-4.91a.55.55 0 00-.52-.57zm-3.14 8.5h-16.45a.56.56 0 00-.57.55v9.6a.58.58 0 00.57.57h2.63l-2.36 1.8a.57.57 0 00-.1.79l1.37 1.79a.56.56 0 00.79.1l2.68-2.06a.56.56 0 00.11-.79l-1.25-1.63h8.72l-1.25 1.63a.55.55 0 00.1.79l2.67 2.06a.58.58 0 00.81-.1l1.36-1.79a.58.58 0 00-.13-.74l-2.36-1.8h2.62a.57.57 0 00.57-.57V153a.55.55 0 00-.53-.57zm-2.58 9.06h-11.21v-1.34h11.21zm0-3h-11.21v-1.37h11.21zm0-3h-11.21v-1.39h11.21zm-160.96-2.64l-2-1a.59.59 0 00-.77.25l-2.1 4.2a3.94 3.94 0 01-.66.9l-3.57 3.5a.58.58 0 000 .8l1.56 1.62a.56.56 0 00.8 0l4-3.92a4.07 4.07 0 00.65-.89L33 153.6a.55.55 0 00-.24-.75zm7.07 7.64h-2.58v-11.88h9a.56.56 0 00.57-.56v-2.26a.57.57 0 00-.57-.57h-9v-4.4a.57.57 0 00-.57-.56h-2.25a.56.56 0 00-.56.56v4.4h-9a.57.57 0 00-.56.57v2.26a.56.56 0 00.56.56h9v11.88h-2.58a.56.56 0 00-.56.56v2.26a.56.56 0 00.56.56h2.58v3.35a.56.56 0 00.56.56h2.25a.57.57 0 00.57-.56v-3.35h2.58a.56.56 0 00.56-.56v-2.26a.56.56 0 00-.56-.56zm7.64.2l-3.57-3.5a3.9 3.9 0 01-.65-.9l-2.11-4.2a.58.58 0 00-.76-.25l-2 1a.55.55 0 00-.25.75l2.36 4.72a3.85 3.85 0 00.67.89l4 3.92a.56.56 0 00.8 0l1.57-1.62a.58.58 0 00-.06-.81zm123.77-15.47h-10v-4.49a.57.57 0 00-.57-.57h-2.25a.58.58 0 00-.57.57v4.49H148a.58.58 0 00-.57.57v2.26a.57.57 0 00.57.56h9.94v2.64a2 2 0 01-.32 1l-9.08 13.3a.57.57 0 00.14.79l1.85 1.29a.57.57 0 00.79-.15l8-11.72a.37.37 0 01.63 0l8 11.72a.59.59 0 00.8.15l1.84-1.29a.55.55 0 00.13-.79l-9.07-13.3a2.11 2.11 0 01-.32-1v-2.64h10a.56.56 0 00.56-.56v-2.26a.57.57 0 00-.65-.57zm-92.93 41.13a.41.41 0 00.43-.36v-9.16c0-.19-.21-.33-.43-.33H65c-.24 0-.45.14-.45.33v1.55a.44.44 0 00.45.36h11v5.42H65c-.24 0-.45.11-.45.32v9.15a.41.41 0 00.45.37h13.31a.4.4 0 00.43-.36v-1.46a.41.41 0 00-.43-.4h-11v-5.42zm38.04 0a.41.41 0 00.43-.36v-9.16c0-.19-.21-.33-.43-.33h-13.27c-.24 0-.45.14-.45.33v1.55a.44.44 0 00.45.36h11v5.42h-11c-.24 0-.45.11-.45.32v9.15a.41.41 0 00.45.36h13.27a.4.4 0 00.43-.36v-1.46a.41.41 0 00-.43-.4h-11v-5.42zm-19.21-9.85H83.91c-.25 0-.43.14-.43.33v16.8a.39.39 0 00.43.36h13.23c.27 0 .47-.15.47-.36v-16.8c0-.19-.2-.33-.47-.33m-2.26 15.27h-8.63v-13h8.63zm40.53-14.88a.39.39 0 00-.43-.35h-13.27a.45.45 0 00-.45.36v1.51c0 .2.22.34.45.34h11v5.42h-8.2a.45.45 0 00-.45.37V186c0 .19.22.34.45.34h8.2v5.41h-11a.45.45 0 00-.45.37v1.54c0 .19.22.34.45.34H135a.4.4 0 00.43-.34z"/></g></g></svg>