<svg id="レイヤー_1" data-name="レイヤー 1" xmlns="http://www.w3.org/2000/svg" viewBox="0 0 377.5 377.5"><defs><style>.cls-1{fill:#fff;}</style></defs><title>new_en</title><polyline points="0.5 0 377.5 0 377.5 377"/><path class="cls-1" d="M171.52,46.1,148.28,69.34l-7.86-8,55.49-55.5,35.51,35.52-9,9L194.83,22.8,180.19,37.43l25.25,25.25-8.67,8.67Z"/><path class="cls-1" d="M216.33,138.91C220.5,133,227.65,123.6,230.66,117c2.3-5.19,1.11-7.77-1.72-10.6L213.68,91.18l-22.54,22.54-7.88-7.88,56.32-56.32L265.16,75.1c10.94,10.93,7,19.75-2.51,29.26-3.74,3.74-12.69,12.69-21,8.68,2.12,6.42.19,9.9-17.18,34.16Zm38.16-42.16c4.65-4.64,6.58-8.13.42-14.29L238.65,66.2,222.49,82.37l15.87,15.87c4.33,4.33,7.74,6.35,15.16-.52Z"/><path class="cls-1" d="M232.59,153.51,288.08,98l35.46,35.46-9,9L287,115l-13.32,13.32L299,153.59l-9,9-25.31-25.3-15.33,15.33,28.42,28.41-8.88,8.88Z"/><path class="cls-1" d="M276.76,197.68l55.5-55.49,35.45,35.46-9,9-27.53-27.53-13.32,13.32,25.31,25.31-9,9-25.3-25.3-15.33,15.33,28.41,28.41L313,234.1Z"/></svg>