<svg xmlns="http://www.w3.org/2000/svg" width="193.25" height="18.219"><path fill-rule="evenodd" d="M2.234 6.357C3.26 4.582 4.393 3.752 5.725 3.752a1.825 1.825 0 0 1 1.869 1.944c0 1.661-1.619 3.908-7.612 10.609h11.231v-2.926H6.337c3.581-4.21 4.3-5.512 4.3-7.739A4.588 4.588 0 0 0 5.779.826a5.828 5.828 0 0 0-4.858 2.53zM18.888.826c-3.383 0-5.272 2.813-5.272 7.89a11.229 11.229 0 0 0 1.044 5.342 4.7 4.7 0 0 0 4.175 2.549c3.455 0 5.344-2.775 5.344-7.872a11.541 11.541 0 0 0-1.044-5.361A4.7 4.7 0 0 0 18.889.826zm0 2.926c1.511 0 2.249 1.623 2.249 4.964 0 3.3-.738 4.965-2.213 4.965-1.547 0-2.267-1.586-2.267-5.021 0-3.285.737-4.908 2.232-4.908zm8.237-.283l.378 2.926 2.555-1.85v11.76h3.041V1.128h-2.681zm11.909 12.76a7.123 7.123 0 0 0 2.321.378c4.265 0 6.928-3.36 6.928-8.7a8.067 8.067 0 0 0-1.511-5.267A5.109 5.109 0 0 0 42.795.828a5.2 5.2 0 0 0-5.236 5.418 4.746 4.746 0 0 0 4.715 5.021 4.069 4.069 0 0 0 2.627-.887c-.432 2.189-1.637 3.3-3.635 3.3a5.577 5.577 0 0 1-2.231-.472v3.02zm3.833-12.477a2.379 2.379 0 0 1-.054 4.757A2.18 2.18 0 0 1 40.6 6.225a2.3 2.3 0 0 1 2.267-2.473zm13.565-2.058a12.016 12.016 0 0 0 .414-1.3l-2.807-.4a11.291 11.291 0 0 1-3.653 5.568l1.745 2.492c.45-.4.684-.623.936-.887v4.209h-2.43v2.718h8.241v3.983h2.771v-3.983h6.028v-2.718H61.65V8.869h4.8V6.227h-4.8V4.415h5.38V1.696h-10.6zm2.447 2.719v1.812h-5a15.2 15.2 0 0 0 1.242-1.812h3.761zm0 4.454v2.511h-3.132V8.869h3.131zm13.19-5.4l.377 2.926 2.556-1.85v11.76h3.041V1.128h-2.682zm10.951 0l.378 2.926 2.555-1.85v11.76h3.041V1.128h-2.681zM108.412.824H95.167v7.909a12.671 12.671 0 0 1-1.979 7.381l2.429 2.057a13.376 13.376 0 0 0 2.069-5.851h7.918v2.189a.49.49 0 0 1-.54.567h-3.023l.45 2.982h4.21a1.7 1.7 0 0 0 1.71-1.85V.826zM97.903 3.656h7.7v1.642h-7.7V3.656zm0 4.266h7.7v1.755h-7.7V7.922zm29.535-.114a18.444 18.444 0 0 0 2.3 1.114l1.134-2.7c-.81-.321-1.295-.548-2.213-1a18.834 18.834 0 0 0 2.051-2.321l-1.961-1.246a20.526 20.526 0 0 1-2.124 2.435 6.03 6.03 0 0 1-.737-.529c.809-.83 1.673-1.774 2.123-2.322L126.05.069a15.92 15.92 0 0 1-1.8 1.925 14.405 14.405 0 0 1-1.061-1.378h-8.062v1.907l-1.295 1.321a18.908 18.908 0 0 1 1.655 1.473 13.482 13.482 0 0 1-2.3.925l1.169 2.737c.81-.378 1.422-.7 2.286-1.19v.85h1.691v1.453h-4.444v2.511h4.084c-.432 1.435-2.069 2.454-4.5 2.812l1.367 2.756c3.545-.962 5.453-2.737 5.956-5.568h2v3.794a1.427 1.427 0 0 0 1.475 1.454h4.391c1.421-.114 1.817-.944 1.979-4.172l-2.609-.472c-.072 1.85-.144 2.057-.72 2.057h-1.259c-.4 0-.5-.132-.5-.6v-2.057h4.66v-2.511h-4.66V8.643h1.889v-.831zm-8.367-1.642a14.881 14.881 0 0 0 2.969-2.945 17.567 17.567 0 0 0 2.987 2.945h-5.956zm.126-3.379a15.1 15.1 0 0 1-1.566 1.265 16.392 16.392 0 0 0-1.4-1.265h2.963zm3.6 5.852v1.453h-1.8V8.639h1.8zm11.769-7.362v2.592h7.054v.9h-6.156v2.322h15.313V4.769h-6.226v-.9h7.036v-2.59h-7.036V.203h-2.933v1.076h-7.054zm.324 6.55v4.153h2.804v-1.737h10.851v1.794h2.807v-4.21h-16.464zm4.175 3c-.09 2.982-1.062 3.945-4.643 4.586l1.134 2.813c4.517-.812 6.19-2.737 6.388-7.4h-2.879zm9.879 2.189c-.144 2.077-.162 2.133-.81 2.152h-1.224c-.323 0-.413-.113-.413-.491v-3.85h-2.79v5.266a1.6 1.6 0 0 0 1.71 1.85h4.247c1.475-.208 1.8-.887 2.051-4.361zm12.163-9.627l-1.673 1.265a22.87 22.87 0 0 1 3.149 2.265h-7.27v2.662h7.126v4.945c0 .585-.036.642-.684.661h-2.971l.648 2.926h3.815c1.4-.019 2.105-.642 2.069-1.907V9.581h3.509a12.048 12.048 0 0 1-2.735 2.6l2.051 2.17a23.205 23.205 0 0 0 4.211-4.775V6.914h-5.7l-.594-.585a21.014 21.014 0 0 0 5-2.907V.769h-14.464v2.624h4.516zm5.4 0a8.113 8.113 0 0 1-2.339 1.322 23.82 23.82 0 0 0-1.8-1.322h4.139zm12.343 5.456c-.342 3.114-1.4 5.511-3.095 6.984l1.854 2.3a9.477 9.477 0 0 0 2.357-3.4 7.157 7.157 0 0 0 6.352 2.982h6.352l.576-2.812h-6.424a8.017 8.017 0 0 1-.99-.038v-2.246h5.236v-2.586h-5.236V8.235h3.581V5.668h-9.771v2.567h3.527v6.06a4.8 4.8 0 0 1-2.321-2.039 18.194 18.194 0 0 0 .611-3.058zm4.3-8.646v1.34h-6.712v4.908h2.7v-2.4h10.776v2.4h2.68V1.539h-6.73V.199h-2.717z"/></svg>