<svg xmlns="http://www.w3.org/2000/svg" width="38.281" height="17.968"><path fill-rule="evenodd" d="M1.357 1.972v2.661h5.992v2.19H.259v2.661h5.812A15.512 15.512 0 0 1 .007 14.09l1.512 2.85a17.26 17.26 0 0 0 5.83-5.3v6.3h2.735v-6.361a17.988 17.988 0 0 0 5.83 5.36l1.6-2.85a14.712 14.712 0 0 1-6.046-4.606h5.74V6.822h-7.123v-2.19h6.082v-2.66h-6.082V.012H7.35v1.964H1.357zm22.514 6.72c-.342 3.114-1.4 5.511-3.095 6.984l1.853 2.3a9.467 9.467 0 0 0 2.357-3.4 7.158 7.158 0 0 0 6.352 2.982h6.352l.576-2.812h-6.423a8.01 8.01 0 0 1-.99-.038v-2.246h5.236V9.876h-5.236V8.082h3.584V5.515h-9.774v2.567h3.527v6.06a4.805 4.805 0 0 1-2.321-2.039 18.3 18.3 0 0 0 .612-3.058zm4.3-8.646v1.34H21.46v4.908h2.7v-2.4h10.777v2.4h2.681V1.386h-6.73V.046h-2.716z"/></svg>