<svg xmlns="http://www.w3.org/2000/svg" width="80.281" height="18.031"><path fill-rule="evenodd" d="M13.413 5.3c.522-.038.918-.094 1.493-.17l-.234-.434h2.231V.864h-6.8V.015H7.385v.849h-6.6v3.911h1.673l.252.811c.162 0 .378 0 .63.019A10.608 10.608 0 0 1 3.808 6.7H.349v2.152h3.977a9.962 9.962 0 0 1-4.319 1.774l1.26 2.492c.45-.17.684-.264 1.008-.415v4.964h13.1v-4.964a7.751 7.751 0 0 0 .99.415l1.332-2.4a13.252 13.252 0 0 1-4.391-1.869h4.031V6.697h-3.421a9.24 9.24 0 0 0 .54-1.133zm-1.547.095a7.843 7.843 0 0 1-.594 1.3H9.994v-1.22zm-4.319.151v1.151H6.341a9.331 9.331 0 0 0-.324-.831l-.072-.151-.054-.132zm0 3.3v1.642H5.855a10.545 10.545 0 0 0 1.529-1.642h.162zm2.447 1.642V8.846h.306a11.635 11.635 0 0 0 1.638 1.642H9.994zm4.265-6.531l-.378-.68a65.935 65.935 0 0 1-7.791.4H5.01l-1.637-.019v-.736h10.889V3.96zm-6.712 8.287v.931H4.829v-.925h2.717zm0 2.378v1H4.829v-1h2.717zm5.2-2.378v.931H9.994v-.925h2.753zm0 2.378v1H9.994v-1h2.753zM35.93 8.129a16.614 16.614 0 0 0 1.6.887l1.224-2.794a11.851 11.851 0 0 1-4.534-2.416h3.977V1.314h-6.981V.087h-2.627v1.227h-7.072v2.492h4.067a13.92 13.92 0 0 1-4.589 2.473l1.17 2.737c.666-.3 1.044-.491 1.584-.793v6.607h-2.412v2.548h17.041V14.83H35.93v-6.7zm-4.715-1.813V3.957a16.147 16.147 0 0 0 2.267 2.359h-2.266zm-2.627 0h-2.213a15.145 15.145 0 0 0 2.213-2.4v2.4zm4.787 2.171v.888h-7.036v-.887h7.036zm0 2.737v.888h-7.036v-.888h7.036zm0 2.719v.887h-7.036v-.887h7.036zM48.132 3.299l-1.67 1.265a22.876 22.876 0 0 1 3.149 2.265h-7.27v2.662h7.121v4.945c0 .585-.036.642-.684.661h-2.967l.648 2.926h3.815c1.4-.019 2.105-.642 2.069-1.907V9.491h3.509a12.051 12.051 0 0 1-2.735 2.6l2.051 2.17a23.209 23.209 0 0 0 4.211-4.775V6.824h-5.7l-.594-.585a21.03 21.03 0 0 0 5-2.907V.675h-14.47v2.624h4.517zm5.4 0a8.1 8.1 0 0 1-2.339 1.322 23.82 23.82 0 0 0-1.8-1.322h4.139zm12.343 5.456c-.342 3.114-1.4 5.511-3.095 6.984l1.853 2.3a9.467 9.467 0 0 0 2.357-3.4 7.157 7.157 0 0 0 6.352 2.982h6.352l.576-2.812h-6.424a8.017 8.017 0 0 1-.99-.038v-2.246h5.237V9.939h-5.237V8.145h3.581V5.578h-9.775v2.567h3.527v6.06a4.809 4.809 0 0 1-2.321-2.039 18.3 18.3 0 0 0 .612-3.058zm4.3-8.646v1.34h-6.713v4.908h2.7v-2.4H76.94v2.4h2.681V1.449h-6.73V.109h-2.717z"/></svg>