<svg xmlns="http://www.w3.org/2000/svg" width="96.313" height="18.156"><path fill-rule="evenodd" d="M14.24 7.747a18.387 18.387 0 0 0 2.3 1.114l1.134-2.7c-.81-.321-1.3-.548-2.213-1a18.768 18.768 0 0 0 2.051-2.321l-1.961-1.246a20.519 20.519 0 0 1-2.123 2.435 5.964 5.964 0 0 1-.738-.529c.81-.83 1.673-1.774 2.123-2.322L12.852.008a15.928 15.928 0 0 1-1.8 1.925A14.579 14.579 0 0 1 9.99.555H1.932v1.907l-1.3 1.321a18.79 18.79 0 0 1 1.656 1.473 13.488 13.488 0 0 1-2.3.925l1.17 2.737c.81-.378 1.422-.7 2.285-1.19v.85h1.691v1.453H.691v2.511h4.085c-.432 1.435-2.069 2.454-4.5 2.812l1.368 2.756c3.545-.962 5.452-2.737 5.956-5.568h2v3.794a1.428 1.428 0 0 0 1.475 1.454h4.387c1.422-.114 1.818-.944 1.979-4.172l-2.609-.472c-.072 1.85-.144 2.057-.72 2.057h-1.26c-.4 0-.5-.132-.5-.6v-2.057h4.66v-2.511h-4.66V8.582h1.889v-.831zM5.873 6.106a14.86 14.86 0 0 0 2.969-2.945 17.571 17.571 0 0 0 2.987 2.945H5.873zm.126-3.379a15.1 15.1 0 0 1-1.565 1.265 16.548 16.548 0 0 0-1.4-1.265h2.969zm3.6 5.852v1.453h-1.8V8.579h1.8zm11.77-7.362v2.589h7.054v.9h-6.156v2.322H37.58V4.706h-6.226v-.9h7.036v-2.59h-7.036V.14h-2.933v1.076h-7.053zm.324 6.55v4.153H24.5v-1.737h10.849v1.794h2.807v-4.21H21.691zm4.175 3c-.09 2.982-1.062 3.945-4.642 4.586l1.134 2.813c4.517-.812 6.19-2.737 6.388-7.4h-2.886zm9.879 2.189c-.144 2.077-.162 2.133-.81 2.152h-1.225c-.324 0-.414-.113-.414-.491v-3.85h-2.789v5.266a1.6 1.6 0 0 0 1.709 1.85h4.244c1.476-.208 1.8-.887 2.051-4.361zm12.591-6.739a2.845 2.845 0 1 0 2.663 2.832 2.769 2.769 0 0 0-2.665-2.831zm16.384 10.647l1.529 1.189a9.731 9.731 0 0 0 .9-1.944l1.079 1.887a9.678 9.678 0 0 0 2.9-2.246 11.945 11.945 0 0 0 2.808 2.284l1.367-2.548a9.365 9.365 0 0 1-2.573-1.888c1.4-2.492 1.835-4.493 1.8-8.4h-6.226V3.329h6.748V.668h-9.218V8.52a16.19 16.19 0 0 1-1.062 6.494l-.036-.076c-.27-.453-.378-.623-.918-1.434h1.08V.669h-6.3v12.837h.738a8.128 8.128 0 0 1-1.511 2.982l1.979 1.623a12.182 12.182 0 0 0 1.692-3.68l-1.961-.925h3.995l-1.6.887a18.223 18.223 0 0 1 1.584 3.152zm3.581-9.137h3.815a10.946 10.946 0 0 1-.954 3.625 10.775 10.775 0 0 1-.989-3.323l-1.872.472v-.774zm-.036 2.341a14 14 0 0 0 1.368 3.549 8.563 8.563 0 0 1-2.231 1.755 22.312 22.312 0 0 0 .858-5.303zm-5.686-6.909v1.227H61.05V3.159h1.529zm0 3.228v1.284H61.05V6.387h1.529zm0 3.36v1.284H61.05V9.747h1.529zm16.6-8.532v2.591h7.053v.9H80.08v2.322h15.313V4.706h-6.231v-.9h7.036v-2.59h-7.036V.14h-2.933v1.076h-7.053zm.324 6.55v4.153h2.807v-1.737h10.85v1.794h2.8v-4.21H79.501zm4.174 3c-.09 2.982-1.061 3.945-4.642 4.586l1.133 2.813c4.517-.812 6.19-2.737 6.388-7.4h-2.879zm9.879 2.189c-.144 2.077-.162 2.133-.81 2.152h-1.223c-.324 0-.414-.113-.414-.491v-3.85h-2.789v5.266a1.6 1.6 0 0 0 1.709 1.85h4.247c1.475-.208 1.8-.887 2.051-4.361z"/></svg>