<svg width="25" height="25" viewBox="0 0 25 25" fill="none" xmlns="http://www.w3.org/2000/svg">
<path d="M1.5625 12.5C1.5625 15.4008 2.71484 18.1828 4.76602 20.234C6.8172 22.2852 9.59919 23.4375 12.5 23.4375C15.4008 23.4375 18.1828 22.2852 20.234 20.234C22.2852 18.1828 23.4375 15.4008 23.4375 12.5C23.4375 9.59919 22.2852 6.8172 20.234 4.76602C18.1828 2.71484 15.4008 1.5625 12.5 1.5625C9.59919 1.5625 6.8172 2.71484 4.76602 4.76602C2.71484 6.8172 1.5625 9.59919 1.5625 12.5Z" stroke="black" stroke-width="1.7" stroke-linejoin="round"/>
<path d="M7.8125 12.5C7.8125 9.59919 8.30636 6.8172 9.18544 4.76602C10.0645 2.71484 11.2568 1.5625 12.5 1.5625C13.7432 1.5625 14.9355 2.71484 15.8146 4.76602C16.6936 6.8172 17.1875 9.59919 17.1875 12.5C17.1875 15.4008 16.6936 18.1828 15.8146 20.234C14.9355 22.2852 13.7432 23.4375 12.5 23.4375C11.2568 23.4375 10.0645 22.2852 9.18544 20.234C8.30636 18.1828 7.8125 15.4008 7.8125 12.5Z" stroke="black" stroke-width="1.7" stroke-linejoin="round"/>
<path d="M2.34375 16.1459H22.6562M2.34375 8.85425H22.6562" stroke="black" stroke-width="1.7" stroke-linecap="round"/>
</svg>
