<svg width="18" height="18" viewBox="0 0 18 18" fill="none" xmlns="http://www.w3.org/2000/svg">
<g clip-path="url(#clip0_40002002_614)">
<path d="M17.6416 4.63906C17.5398 4.25612 17.3393 3.90662 17.06 3.62555C16.7807 3.34448 16.4325 3.14168 16.0502 3.03747C14.6429 2.65906 9.01794 2.65906 9.01794 2.65906C9.01794 2.65906 3.39294 2.65906 1.98567 3.03747C1.60339 3.14168 1.25519 3.34448 0.97591 3.62555C0.696631 3.90662 0.496074 4.25612 0.394308 4.63906C0.0179444 6.05247 0.0179443 8.99997 0.0179443 8.99997C0.0179443 8.99997 0.0179444 11.9475 0.394308 13.3609C0.496074 13.7438 0.696631 14.0933 0.97591 14.3744C1.25519 14.6555 1.60339 14.8582 1.98567 14.9625C3.39294 15.3409 9.01794 15.3409 9.01794 15.3409C9.01794 15.3409 14.6429 15.3409 16.0502 14.9625C16.4325 14.8582 16.7807 14.6555 17.06 14.3744C17.3393 14.0933 17.5398 13.7438 17.6416 13.3609C18.0179 11.9475 18.0179 8.99997 18.0179 8.99997C18.0179 8.99997 18.0179 6.05247 17.6416 4.63906Z" fill="#FF0302"/>
<path d="M7.177 11.6766V6.32361L11.8815 9.00009L7.177 11.6766Z" fill="#FEFEFE"/>
</g>
<defs>
<clipPath id="clip0_40002002_614">
<rect width="18" height="18" fill="white"/>
</clipPath>
</defs>
</svg>
