<svg id="レイヤー_1" data-name="レイヤー 1" xmlns="http://www.w3.org/2000/svg" viewBox="0 0 1000 1000"><defs><style>.cls-1{fill:#fff;}</style></defs><title>アートボード 1</title><path class="cls-1" d="M320.71,31.88H276.83q-35.91,0-35.93,27.85v5c0,2,0,5,0,9q0,25.56,29.58,25.54h40.86c7.27,0,10.88,3.33,10.88,9.94,0,9.21-3.58,13.84-10.73,13.84H292.69c-3.83,0-10.35,0-19.48,0q-10.09,0-10.1-10v-5.39l-23.39,0v12.75q.08,23.92,25.28,23.94c11.41,0,20.66,0,27.73,0h27.55c16.91,0,25.41-8.76,25.37-26.21V101.34q0-26.57-30.92-26.59h-41c-6.26,0-9.38-3.32-9.38-10,0-7.62,3.41-11.45,10.35-11.45h35.46c7.07,0,10.69,4,10.78,12.08h23.39c0-12.45-1.86-21.2-5.52-26.21-3.58-4.8-9.57-7.24-18.08-7.24"/><polyline class="cls-1" points="503.2 31.8 405.05 31.84 405.14 144.38 428.53 144.38 505.81 144.33 505.81 122.96 428.49 122.96 428.49 98.77 496.64 98.77 496.64 77.36 428.49 77.4 428.49 53.21 503.2 53.17 503.2 31.8"/><polyline class="cls-1" points="669.79 31.76 646.52 31.76 646.57 111.61 589.82 31.76 563.86 31.8 563.9 144.33 587.17 144.29 587.12 63.77 646.06 144.29 669.83 144.25 669.79 31.76"/><path class="cls-1" d="M811.1,31.67c-11.65,0-21,0-27.85,0H767.39q-35.85,0-35.84,27.84v14q0,25.56,29.57,25.54h40.72c7.37,0,11,3.28,11,9.93,0,9.25-3.57,13.84-10.72,13.84H783.29c-3.83,0-10.35,0-19.47,0q-10.11,0-10.1-10v-5.39l-23.39,0v12.74q.06,23.92,25.28,23.94h27.72c7,0,16.16,0,27.56,0,16.91,0,25.41-8.75,25.37-26.21V101.17q0-26.57-30.92-26.59h-41c-6.27,0-9.38-3.32-9.38-10q-.06-11.43,10.34-11.44h35.47c7.07,0,10.68,4,10.77,12.07h23.39q0-18.67-5.51-26.21-5.43-7.26-18.3-7.28"/><polyline class="cls-1" points="993.8 31.63 895.66 31.67 895.74 144.21 919.13 144.16 996.41 144.16 996.41 122.8 919.09 122.8 919.09 98.6 987.24 98.6 987.24 77.19 919.09 77.23 919.09 53.04 993.8 53 993.8 31.63"/><path class="cls-1" d="M280.28,322.62q-20.26,0-20.45-20.95v-28q0-20.7,20.45-20.83h27.38c13.46,0,20.24,7,20.32,20.83,0,4.67,0,9.29,0,14v14q0,21-20.44,21h-27.3m36.56-91.16c-7.62,0-15.24,0-22.89,0H270.86q-34.46,0-34.42,33.61v22.6c0,7.35,0,14.84,0,22.46q0,33.82,34.42,33.86c7.61,0,15.31,0,23.14,0h22.84q34.39,0,34.53-33.91V287.66c0-7.53,0-15.06,0-22.59q0-33.63-34.53-33.61"/><polyline class="cls-1" points="501.26 231.41 401.89 231.46 401.94 343.99 425.33 343.95 425.33 298.39 491.63 298.35 491.59 276.97 425.33 277.02 425.29 252.83 501.26 252.78 501.26 231.41"/><polyline class="cls-1" points="362.9 437.93 338.71 437.97 327.06 526.7 308.97 437.97 283.56 437.97 265.34 526.7 253.73 438.01 229.54 438.01 247.89 550.51 279.86 550.51 296.22 469.99 312.67 550.51 344.64 550.47 362.9 437.93"/><path class="cls-1" d="M427.52,529.05c-13.46,0-20.24-7-20.32-20.95v-28q-.07-20.69,20.4-20.82h27.31c13.54,0,20.31,6.94,20.44,20.82v27.94q0,21-20.44,21H427.52m36.64-91.16c-7.62,0-15.23,0-22.84,0H418.18q-34.4,0-34.37,33.61V516.6q0,33.89,34.41,33.87c7.61-.05,15.35-.05,23.14-.05H464.2q34.46,0,34.54-33.91v-45q0-33.63-34.58-33.61"/><polyline class="cls-1" points="625.62 437.84 602.36 437.84 602.4 517.69 545.64 437.89 519.69 437.89 519.73 550.42 543 550.38 542.96 469.86 601.89 550.38 625.7 550.34 625.62 437.84"/><path class="cls-1" d="M664.7,528.55l0-69.5h42.23q22.73,0,22.72,19.18v31.22c0,12.7-7.53,19.1-22.67,19.1H664.7m48.79-90.75h-.16l-72.06,0,0,112.5H664.7l48.67,0q39.71,0,39.67-31c0-9.42,0-17.84,0-25.28V468.56q0-30.74-39.51-30.76"/><polyline class="cls-1" points="870.33 437.72 772.19 437.76 772.27 550.3 795.66 550.3 872.94 550.26 872.94 528.88 795.62 528.88 795.62 504.69 863.77 504.65 863.77 483.28 795.62 483.32 795.62 459.13 870.33 459.09 870.33 437.72"/><path class="cls-1" d="M914.46,487.86l0-28.77,40.34,0h9.42c6.28,0,9.39,4.79,9.43,14.39s-3.15,14.3-9.43,14.38h-9.42l-40.3,0m54.94-50.18H954.76l-63.73,0,0,112.54,23.39,0v-41l40.34,0a31.82,31.82,0,0,1,13.55,2.56c3.49,1.9,5.26,4.71,5.26,8.46v30H997v-30c0-6.27-2.69-12-8.08-17.08q8.08-7,8.08-22.59v-7.11c0-2.44,0-4.84,0-7.28q0-28.34-27.56-28.48"/><polyline class="cls-1" points="344.43 644.45 321.17 644.45 321.21 724.29 264.46 644.49 238.5 644.49 238.55 757.02 261.81 757.02 261.77 676.46 320.7 756.98 344.48 756.98 344.43 644.45"/><polyline class="cls-1" points="448.09 644.4 424.7 644.45 424.74 756.94 448.13 756.94 448.09 644.4"/><path class="cls-1" d="M601.51,644.36c-7.61,0-15.27,0-22.88,0h-23.1q-34.46,0-34.41,33.62v45.05q.06,33.88,34.45,33.87c7.62,0,15.32,0,23.14,0h23.1q34.83,0,35-26.89V712.13l0-19.77-58.05,0v19.73H615v9.26c0,9.42-7.27,14.13-21.91,14.13H578.67c-4.54,0-9.13.05-13.71.05q-20.26,0-20.41-21c0-4.67,0-9.29,0-14v-14q0-20.7,20.45-20.82h27.5q20.07,0,20.2,10.17v7l23.39,0V667.5q0-23.16-34.54-23.14"/><polyline class="cls-1" points="817.83 644.32 794.44 644.32 794.44 689.5 735.29 689.5 735.29 644.36 711.9 644.36 711.94 756.9 735.33 756.85 735.33 710.87 794.48 710.87 794.48 756.85 817.87 756.81 817.83 644.32"/><polyline class="cls-1" points="994.1 644.27 929.94 644.27 888.17 644.32 888.17 665.69 929.99 665.65 930.03 756.81 953.42 756.81 953.38 665.65 994.1 665.65 994.1 644.27"/><path class="cls-1" d="M163.66,762.16H21.39v206.3H163.66V762.16m14.39-732H7V416.1L32.58,705.61H153.27L178.05,416.1V30.16"/><path class="cls-1" d="M309.72,850.58h-37.1q-34.26,0-34.28,20.91v20h32V876.12q0-8.28,12.11-8.29h15.91q12.1,0,12.11,6.81v8.67c0,9.09-10,16.28-30.12,21.63q-42.91,11.53-43.16,42.15v17.25H343.8V947.09H269.13q0-19.32,31-28.27,42.22-12,42.24-35.51V868.92q0-18.36-32.69-18.34"/><path class="cls-1" d="M501.14,947.09q-12.63,0-12.62-7.2V875.7c0-5.22,4.12-7.87,12.37-7.87h16.82c8.41,0,12.58,2.65,12.58,7.87v64.19c0,4.71-4.17,7.11-12.58,7.2H501.14m28.23-96.51H489.69q-33.57,0-33.61,21.63V943.8q0,20.52,32.69,20.54h39.92q33.82,0,34.08-20.79V870.44q0-19.76-33.4-19.86"/><polyline class="cls-1" points="752.54 850.58 694.87 850.58 694.87 867.83 720.06 867.83 720.06 964.34 752.54 964.34 752.54 850.58"/><path class="cls-1" d="M928.37,901.84q-12.61,0-12.62-3.86V863.55c0-2.79,4.12-4.22,12.37-4.22H945c8.41,0,12.58,1.43,12.58,4.22V898c0,2.53-4.17,3.81-12.58,3.86H928.37m28.23-51.75H916.93c-22.38,0-33.61,3.85-33.61,11.59v38.4q0,11,32.68,11h39.93q33.81,0,34.07-11.15V860.73q0-10.59-33.4-10.64Z"/><path class="cls-1" d="M957.53,899v52.72c0,2.53-4.17,3.82-12.58,3.86H928.37q-12.61,0-12.62-3.86V937H883.32v16.82q0,11,32.68,11h39.93q33.83,0,34.07-11.14V899Z"/></svg>