<svg xmlns="http://www.w3.org/2000/svg" width="32" height="32" viewBox="0 0 32 32"><g><circle data-name="楕円形 41" cx="16" cy="16" r="16"/></g><g transform="translate(6.4 5.136)"><path data-name="パス 83" d="M127.475,240.544v-.869a6.583,6.583,0,0,0-4.664,11.918,6.585,6.585,0,0,1,4.664-11.05Z" transform="translate(-119.999 -231.967)" fill="#25f4ee"/><path data-name="パス 84" d="M219.8,114.46a3.043,3.043,0,0,0,3.022-2.914l.014-14.325h2.6l0-.022a4.983,4.983,0,0,1-.085-.908h-3.579l-.006,14.345a3,3,0,0,1-4.4,2.55,3.021,3.021,0,0,0,2.439,1.273Z" transform="translate(-212.168 -96.292)" fill="#25f4ee"/><path data-name="パス 85" d="M412.3,176.192v-.84a4.949,4.949,0,0,1-2.712-.806A5.047,5.047,0,0,0,412.3,176.192Z" transform="translate(-394.144 -170.372)" fill="#25f4ee"/><path data-name="パス 86" d="M370.541,116.589a4.957,4.957,0,0,1-1.225-3.265h-.975A5.011,5.011,0,0,0,370.541,116.589Z" transform="translate(-355.096 -112.416)" fill="#fe2c55"/><path data-name="パス 87" d="M189.771,259.286a3.018,3.018,0,0,0-1.4,5.7,3,3,0,0,1,3.327-4.625v-3.654a6.574,6.574,0,0,0-.888-.064c-.052,0-.1,0-.156,0h-.014l-.01,2.766a2.8,2.8,0,0,0-.864-.127Z" transform="translate(-183.182 -248.09)" fill="#fe2c55"/><path data-name="パス 88" d="M188.081,204.559l-.017,0v2.764a8.541,8.541,0,0,1-4.984-1.619v7.313a6.587,6.587,0,0,1-10.343,5.394,6.584,6.584,0,0,0,11.407-4.486v-7.274a8.513,8.513,0,0,0,4.98,1.6V204.67a4.978,4.978,0,0,1-1.043-.111Z" transform="translate(-169.924 -198.782)" fill="#fe2c55"/><path data-name="パス 89" d="M151.7,126.648v-7.274a8.513,8.513,0,0,0,4.98,1.6v-2.782a7.982,7.982,0,0,1-4.9-4.869h-2.621l-.006,14.345a3.564,3.564,0,1,1-4.047-4.031,2.964,2.964,0,0,1,.888.139v-2.806a6.148,6.148,0,1,0,5.7,5.676Z" transform="translate(-138.519 -112.416)" fill="#fff"/></g></svg>