<svg xmlns="http://www.w3.org/2000/svg" viewBox="0 0 135.93 32"><g><g><path d="M81.39 0h-28.26c-1.98 0-3.69.7-5.08 2.09-1.39 1.39-2.09 3.1-2.09 5.08V24.83c0 1.98.7 3.69 2.09 5.08 1.39 1.39 3.1 2.09 5.08 2.09h28.26c1.98 0 3.69-.7 5.08-2.09 1.39-1.39 2.09-3.1 2.09-5.08V14.72h-16.21v5.04h10.28c.53 0 .95.43.95.95v4.12c0 .6-.22 1.12-.65 1.54-.43.43-.95.65-1.54.65h-28.26c-.6 0-1.12-.22-1.54-.65-.43-.43-.65-.95-.65-1.54V7.17c0-.6.22-1.12.65-1.54.43-.43.95-.65 1.54-.65h28.26c.59 0 1.11.22 1.54.65.43.43.65.95.65 1.54v1.81h4.98v-1.81c0-1.98-.7-3.69-2.09-5.08-1.39-1.39-3.1-2.09-5.08-2.09ZM128.76 0h-28.26c-1.98 0-3.69.7-5.08 2.09-1.39 1.39-2.09 3.1-2.09 5.08v4.18c0 1.98.7 3.69 2.09 5.08 1.39 1.39 3.1 2.09 5.08 2.09h28.26c.6 0 1.12.21 1.55.62.43.41.64.92.64 1.51v4.18c0 .6-.22 1.12-.65 1.54-.43.43-.95.65-1.54.65h-28.26c-.6 0-1.12-.22-1.54-.65-.43-.43-.65-.95-.65-1.54v-1.75h-4.98v1.75c0 1.98.7 3.69 2.09 5.08 1.39 1.39 3.1 2.09 5.08 2.09h28.26c1.98 0 3.69-.7 5.08-2.09 1.39-1.39 2.09-3.1 2.09-5.08v-4.18c0-1.98-.7-3.69-2.09-5.08-1.39-1.39-3.1-2.09-5.08-2.09h-28.26c-.6 0-1.12-.21-1.55-.62-.43-.41-.64-.92-.64-1.51V7.17c0-.6.22-1.12.65-1.54.43-.43.95-.65 1.54-.65h28.26c.6 0 1.11.22 1.54.65.43.43.65.95.65 1.54v1.75h4.98v-1.75c0-1.98-.7-3.69-2.09-5.08-1.39-1.39-3.1-2.09-5.08-2.09ZM0 4.98H17.88c.53 0 .95.43.95.95v26.07h4.98V5.93c0-.53.43-.95.95-.95h17.82V0H0V4.98Z" fill="#fff"/></g></g></svg>