<!--?xml version="1.0" encoding="utf-8"?-->
<!-- Generator: Adobe Illustrator 15.1.0, SVG Export Plug-In . SVG Version: 6.00 Build 0)  -->

<svg version="1.1" id="_x32_" xmlns="http://www.w3.org/2000/svg" xmlns:xlink="http://www.w3.org/1999/xlink" x="0px" y="0px" width="512px" height="512px" viewBox="0 0 512 512" style="width: 256px; height: 256px; opacity: 1;" xml:space="preserve">
<style type="text/css">

	.st0{fill:#4B4B4B;}

</style>
<g>
	<path class="st0" d="M0,22.375v343h512v-343H0z M462.297,315.656H49.703V72.094h412.594V315.656z" style="fill: rgb(75, 75, 75);"></path>
	<path class="st0" d="M300.156,388.563h-88.313c0,0,0,60.031-54.734,60.031c0,23.938,0,41.031,0,41.031h197.781
		c0,0,0-17.094,0-41.031C300.156,448.594,300.156,388.563,300.156,388.563z" style="fill: rgb(75, 75, 75);"></path>
	<path class="st0" d="M217,256.844c0.625,0.375,1.406,0.344,2.031,0l86.719-51.75c0.594-0.375,0.969-1.031,0.969-1.75
		c0-0.734-0.375-1.406-0.969-1.75l-86.719-51.781c-0.625-0.344-1.406-0.375-2.031,0c-0.656,0.344-1.031,1.031-1.031,1.766v51.766
		v51.75C215.969,255.813,216.344,256.5,217,256.844z" style="fill: rgb(75, 75, 75);"></path>
</g>
</svg>
