<svg id="レイヤー_1" data-name="レイヤー 1" xmlns="http://www.w3.org/2000/svg" viewBox="0 0 120 152.35"><path d="M2.93,152.35H.52V141.53H3.29l3.37,4.82,1.17,2.06-.09-2.59v-4.29h2.4v10.82H7.8l-3.86-5.54L2.8,144.76l.13,2.57Z"/><path d="M12.88,141.53h2.75v10.82H12.88Z"/><path d="M22.07,147.81l-1,1.22v3.32H18.34V141.53h2.75V146l3.66-4.49H27.5v.09L24,145.85l3.67,6.39v.11H24.75Z"/><path d="M33.19,147.81l-1,1.22v3.32H29.46V141.53h2.75V146l3.66-4.49h2.75v.09l-3.47,4.23,3.68,6.39v.11h-3Z"/><path d="M40.6,141.53h6.86v2H43.3v2.3h3.58v2H43.3v2.56h4.23v2H40.6Z"/><path d="M50,141.53h2.76v10.82H50Z"/><path d="M60.66,152.35H58.33v-.13L61,148.08l-2.5-3.83v-.13h2.74l.93,1.52.46,1,.46-1,.94-1.52h2.34v.11l-2.52,3.9,2.69,4.09v.13H63.79l-1.06-1.73-.51-1.09-.5,1.09Z"/><path d="M73.3,143.68v8.67H70.54v-8.67H67.68v-2.15h8.5v2.15Z"/><path d="M81.82,148.46H80.53v3.89H77.82V141.53h4.1c2.77,0,4.22,1.23,4.22,3.38a2.89,2.89,0,0,1-1.85,2.91l2.52,4.39v.14H84Zm-1.29-5v3.1h1.18c1.3,0,1.82-.56,1.82-1.59s-.57-1.51-1.87-1.51Z"/><path d="M88.56,141.53h6.87v2H91.27v2.3h3.57v2H91.27v2.56h4.22v2H88.56Z"/><path d="M100,152.35H97.61V141.53h2.77l3.37,4.82,1.17,2.06-.09-2.59v-4.29h2.4v10.82h-2.34L101,146.81l-1.14-2.05.13,2.57Z"/><path d="M109.63,141.53h3.71c3.48,0,6.14,1.6,6.14,5.46s-2.66,5.36-6.14,5.36h-3.71Zm2.73,2v6.74h.82c2.09,0,3.51-.79,3.51-3.32s-1.42-3.42-3.51-3.42Z"/><polygon points="1.92 133.68 7.47 133.68 80.89 0 75.35 0 1.92 133.68"/><polygon points="11.21 133.68 16.76 133.68 90.2 0 84.64 0 11.21 133.68"/><polygon points="20.5 133.68 26.05 133.68 99.5 0 93.95 0 20.5 133.68"/><polygon points="29.79 133.68 35.34 133.68 108.79 0 103.24 0 29.79 133.68"/><polygon points="39.08 133.68 44.62 133.68 118.06 0 112.54 0 39.08 133.68"/><polygon points="24.99 33.42 38.24 58.27 40.09 54.33 28.61 33.42 31.63 33.42 41.53 51.37 43.16 47.76 35.25 33.42 38.26 33.42 44.61 44.95 55.38 22.18 43.2 0 0 0 34.93 65.3 36.57 61.68 21.99 33.42 24.99 33.42"/><polygon points="83.21 133.68 86.84 133.68 69.2 101.68 67.51 105.14 83.21 133.68"/><polygon points="76.77 133.68 80.41 133.68 66.23 107.93 64.6 111.55 76.77 133.68"/><polygon points="70.64 98.77 89.84 133.68 93.46 133.68 72.29 95.15 70.64 98.77"/><polygon points="74.14 91.45 96.48 133.68 120 133.68 85.03 68.42 74.14 91.45"/></svg>