<svg id="レイヤー_1" data-name="レイヤー 1" xmlns="http://www.w3.org/2000/svg" viewBox="0 0 357.5 127.85"><defs><style>.cls-1{fill:#d32f2f;}.cls-2{fill:#231815;}.cls-3{fill:#fff;}</style></defs><path class="cls-1" d="M355.46,64.28,68.17,64.5c-12.32,0-22.3,6.11-27.28,15.73V65.49H0v60H325.07c17.6,0,30.39-12.63,30.39-30.43Z"/><path class="cls-2" d="M262.87,104.61l7.2-8c2-2.32,3.09-4.22,3.09-6.31,0-1.93-1.08-3.44-3.91-3.44a9.81,9.81,0,0,0-5.87,1.86l-.27-.12V83.85A12.88,12.88,0,0,1,270.45,82c5.46,0,9,2.75,9,7.7,0,3.51-1.93,6.38-4.71,9.51L270.26,104l4.21-.35h5.3v4.56h-16.9Z"/><path class="cls-2" d="M282.91,95.22c0-8.43,4.64-13.19,11.21-13.19s11.14,4.76,11.18,13.19-4.56,13.41-11.18,13.41S283,103.65,282.91,95.22Zm15.85,0q0-8.48-4.64-8.47c-3.05,0-4.64,2.82-4.64,8.47s1.59,8.66,4.64,8.66S298.76,100.9,298.76,95.22Z"/><path class="cls-2" d="M309,104.61l7.19-8c2-2.32,3.1-4.22,3.1-6.31,0-1.93-1.08-3.44-3.91-3.44a9.81,9.81,0,0,0-5.87,1.86l-.28-.12V83.85A12.92,12.92,0,0,1,316.58,82c5.45,0,9,2.75,9,7.7,0,3.51-1.93,6.38-4.71,9.51L316.39,104l4.21-.35h5.3v4.56H309Z"/><path class="cls-2" d="M329,95.22C329,86.79,333.68,82,340.25,82s11.14,4.76,11.18,13.19-4.57,13.41-11.18,13.41S329.08,103.65,329,95.22Zm15.85,0q0-8.48-4.64-8.47c-3,0-4.64,2.82-4.64,8.47s1.59,8.66,4.64,8.66,4.68-3,4.68-8.66Z"/><path class="cls-3" d="M17.48,100.75v18.4h-12V70.91h30V79.8h-18V91.86h16v8.89Z"/><path class="cls-3" d="M43.3,94.88c0-14.31,10.09-25,25.32-25s25.31,10.65,25.31,25-10,25.25-25.31,25.25S43.3,109.14,43.3,94.88Zm38.15,0c0-9.65-4.94-15.71-12.83-15.71S55.78,85.23,55.78,94.88s4.86,15.94,12.84,15.94S81.45,104.48,81.45,94.88Z"/><path class="cls-3" d="M118.67,101.8h-5.78v17.35h-12V70.91H119.1c12.34,0,18.84,5.51,18.84,15.1,0,6.48-3,10.85-8.26,13l11.22,19.52v.64H128.27Zm-5.78-22.23V93.41h5.29c5.8,0,8.11-2.55,8.11-7.14s-2.53-6.7-8.31-6.7Z"/><path class="cls-3" d="M210.71,119.15h-9.87V70.91h14.25L223.68,94l2.33,8.47L228.42,94l8.82-23.13h14.51v48.24H240.47V99.63l.85-15.53-4.16,13.4-8.11,21.65h-7.13L214,97.5l-4.16-13.89.85,16Z"/><path class="cls-3" d="M147.89,100.25V70.8h12.32V100c0,6.73,3.26,10.13,9.13,10.13s9.28-3.4,9.28-10.13V70.8h11v29.45c0,12.33-7.36,19.83-20.67,19.83S147.89,113.15,147.89,100.25Z"/><polygon class="cls-3" points="149.66 10.23 149.66 48.04 136.44 48.04 136.44 10.23 123.9 10.23 123.9 0 162.19 0 162.19 10.23 149.66 10.23"/><path class="cls-3" d="M188.48,31.22h-5.39V48h-13V0H189c12.54,0,19,5.61,19,15.22,0,6.27-2.87,10.68-7.77,12.86l10.61,19.29V48H197.31Zm-5.39-22v13h4.75c5.53,0,7.65-2.39,7.65-6.68s-2.32-6.32-7.85-6.32Z"/><polygon class="cls-3" points="217.97 0 249.32 0 249.32 9.48 231 9.48 231 18.75 246.66 18.75 246.66 28.16 231 28.16 231 38.58 249.66 38.58 249.66 48.04 217.97 48.04 217.97 0"/><polygon class="cls-3" points="294.7 48.95 270.84 21.63 270.84 48.43 259.61 48.43 259.61 0 267.43 0 291.02 27.01 291.02 0.49 302.26 0.49 302.26 48.95 294.7 48.95"/><path class="cls-3" d="M312.83,0h17.26c15.48,0,27.41,7.07,27.41,24.4s-11.93,23.92-27.41,23.92H312.83ZM326,9.75V38.59h3.44c8.77,0,14.68-3.42,14.68-14.19,0-10.54-5.91-14.65-14.68-14.65Z"/><path class="cls-3" d="M24.22,37.3l.07,2.7h-5.1V37.63H5.09V40H0c0-.75.05-1.74.05-2.69V9.21H24.29c0,.89-.07,1.71-.07,2.67ZM5.09,20.84h14.1V13.69H5.09Zm14.1,4.48H5.09V33.1h14.1Z"/><path class="cls-3" d="M40.8,38.45v1.62H36.59a14.62,14.62,0,0,0,.06-1.62V25.8c-1.46.15-2.78.24-3.64.33a10.4,10.4,0,0,0-1.68.26l-.54-4.11H33a6.61,6.61,0,0,0,.89,0c.64-.75,1.32-1.58,2-2.47C34.3,18,32.58,16.16,31,14.67l2.22-3.4c.32.32.71.76,1.1,1.18a25,25,0,0,0,3.11-5.61L41.05,9a5.56,5.56,0,0,0-.42.54,48.43,48.43,0,0,1-3.72,5.87c.4.46.78.93,1.14,1.39A36.63,36.63,0,0,0,42,10l3.54,2.1a2.84,2.84,0,0,1-.5.59,109.77,109.77,0,0,1-6.54,9.22c1.15-.09,2.29-.2,3.26-.31a25.66,25.66,0,0,0-.89-2.69L44,18.09a49.57,49.57,0,0,1,2.29,7.72c-1,.33-2.4.74-3.46,1-.07-.49-.18-1.06-.29-1.63-.55,0-1.14.11-1.79.15ZM32.37,27.59c1.14.18,2.5.4,3.42.58a5.52,5.52,0,0,1-.1.71,37.78,37.78,0,0,1-1.21,9.47c-.61-.25-2.29-.9-3.43-1.32a31.09,31.09,0,0,0,1.32-9.44M62.2,35.27c1,0,1.82,0,2.49-.07v4.43c-.67-.07-1.5-.07-2.49-.07H47.05c-1,0-1.81,0-2.53.07V35.24l-2,.57a48.16,48.16,0,0,0-1-7.94l3.08-.81A53.83,53.83,0,0,1,46,34.81q-.66.22-1.35.39c.66.07,1.49.07,2.38.07h5.78V31.38H47v-4.1h5.81v-2.2a9,9,0,0,0-.06-1.26c1,0,3.83.09,4.82.17,0,.32-.07.78-.07,1.09V27.3h6v4.13h-6v3.89ZM51.66,18.84a16.1,16.1,0,0,1-3.61-6H46.2v-4H59.81l.31-.37a34.11,34.11,0,0,1,3.77,3.12c-.16.1-.39.17-.55.28a16.66,16.66,0,0,1-4.46,7.07,24.88,24.88,0,0,0,5.81,1.52c-.53,1.24-1.35,3.28-1.68,4.29a25.5,25.5,0,0,1-7.63-2.9,28.24,28.24,0,0,1-7.53,2.9c-.38-1-1.37-3.12-2-4.45a22.61,22.61,0,0,0,5.78-1.46m6.83-6h-6a10.72,10.72,0,0,0,2.87,3.89,10.61,10.61,0,0,0,3.14-3.89"/><polygon class="cls-1" points="76.12 48.14 78.13 48.14 104.55 0 102.56 0 76.12 48.14"/><polygon class="cls-1" points="79.46 48.14 81.47 48.14 107.89 0 105.89 0 79.46 48.14"/><polygon class="cls-1" points="82.81 48.14 84.81 48.14 111.25 0 109.25 0 82.81 48.14"/><polygon class="cls-1" points="86.15 48.14 88.15 48.14 114.6 0 112.61 0 86.15 48.14"/><polygon class="cls-1" points="89.51 48.14 91.5 48.14 117.94 0 115.94 0 89.51 48.14"/><polygon class="cls-1" points="84.43 12.05 89.2 20.99 89.86 19.57 85.74 12.05 86.83 12.05 90.39 18.51 90.97 17.21 88.12 12.05 89.21 12.05 91.49 16.2 95.37 8.01 90.99 0 75.43 0 88.01 23.53 88.59 22.22 83.36 12.05 84.43 12.05"/><polygon class="cls-1" points="105.39 48.14 106.69 48.14 100.34 36.6 99.73 37.86 105.39 48.14"/><polygon class="cls-1" points="103.08 48.14 104.37 48.14 99.28 38.86 98.68 40.18 103.08 48.14"/><polygon class="cls-1" points="100.86 35.57 107.77 48.14 109.08 48.14 101.45 34.27 100.86 35.57"/><polygon class="cls-1" points="102.12 32.94 110.16 48.14 118.63 48.14 106.05 24.64 102.12 32.94"/></svg>