<svg xmlns="http://www.w3.org/2000/svg" viewBox="0 0 398.39 32.88"><defs><style>.cls-1{fill:#d32f2f;}.cls-2{fill:#231815;}.cls-3{fill:#fff;}</style></defs><g id="レイヤー_2" data-name="レイヤー 2"><path class="cls-1" d="M398.39,0,244.05.12c-6.62,0-12,3.28-14.65,8.45V.65h-22V32.88H382.06c9.46,0,16.33-6.78,16.33-16.34Z"/><path class="cls-2" d="M348.65,21.67l3.86-4.28A5.3,5.3,0,0,0,354.18,14c0-1-.59-1.85-2.1-1.85a5.33,5.33,0,0,0-3.16,1l-.15-.06V10.51a7,7,0,0,1,4-1c2.93,0,4.82,1.47,4.82,4.13,0,1.89-1,3.43-2.53,5.11l-2.39,2.54,2.26-.19h2.85v2.45h-9.08Z"/><path class="cls-2" d="M359.41,16.62c0-4.53,2.49-7.08,6-7.08s6,2.55,6,7.08-2.45,7.21-6,7.21S359.43,21.15,359.41,16.62Zm8.52,0q0-4.55-2.49-4.55c-1.64,0-2.5,1.52-2.5,4.55s.86,4.65,2.5,4.65S367.93,19.67,367.93,16.62Z"/><path class="cls-2" d="M373.43,21.67l3.86-4.28A5.3,5.3,0,0,0,379,14c0-1-.59-1.85-2.1-1.85a5.33,5.33,0,0,0-3.16,1l-.15-.06V10.51a7,7,0,0,1,3.95-1c2.93,0,4.82,1.47,4.82,4.13,0,1.89-1,3.43-2.53,5.11l-2.39,2.54,2.26-.19h2.85v2.45h-9.08Z"/><path class="cls-2" d="M384.19,16.62c0-4.53,2.5-7.08,6-7.08s6,2.55,6,7.08-2.45,7.21-6,7.21S384.21,21.15,384.19,16.62Zm8.52,0q0-4.55-2.49-4.55c-1.64,0-2.5,1.52-2.5,4.55s.86,4.65,2.5,4.65S392.71,19.67,392.71,16.62Z"/><path class="cls-3" d="M216.82,19.59v9.89h-6.47V3.56h16.14V8.34h-9.67v6.48h8.61v4.77Z"/><path class="cls-3" d="M230.7,16.44C230.7,8.75,236.11,3,244.3,3s13.59,5.72,13.59,13.41S252.52,30,244.3,30,230.7,24.1,230.7,16.44Zm20.49,0c0-5.18-2.66-8.44-6.89-8.44s-6.9,3.26-6.9,8.44S240,25,244.3,25,251.19,21.6,251.19,16.44Z"/><path class="cls-3" d="M271.18,20.16h-3.1v9.32H261.6V3.56h9.82c6.62,0,10.11,3,10.11,8.11,0,3.49-1.63,5.83-4.43,7l6,10.48v.35h-6.79Zm-3.1-11.94v7.43h2.84c3.12,0,4.36-1.37,4.36-3.83s-1.36-3.6-4.47-3.6Z"/><path class="cls-3" d="M320.63,29.48h-5.31V3.56H323L327.6,16l1.25,4.55L330.14,16l4.74-12.43h7.79V29.48h-6.05V19l.45-8.34-2.23,7.2-4.36,11.63h-3.83l-4.24-11.63-2.24-7.46.46,8.6Z"/><path class="cls-3" d="M286.88,19.33V3.5h6.62V19.21c0,3.62,1.75,5.44,4.91,5.44s5-1.82,5-5.44V3.5h5.89V19.33c0,6.62-3.95,10.65-11.1,10.65S286.88,26.25,286.88,19.33Z"/><polygon class="cls-3" points="80.4 10.66 80.4 30.98 73.3 30.98 73.3 10.66 66.56 10.66 66.56 5.17 87.13 5.17 87.13 10.66 80.4 10.66"/><path class="cls-3" d="M101.25,21.94H98.36v9h-7V5.17h10.18c6.73,0,10.17,3,10.17,8.17,0,3.37-1.54,5.75-4.17,6.91l5.7,10.37V31H106ZM98.36,10.13v7h2.55c3,0,4.11-1.28,4.11-3.59s-1.25-3.39-4.22-3.39Z"/><polygon class="cls-3" points="117.1 5.17 133.93 5.17 133.93 10.26 124.1 10.26 124.1 15.24 132.51 15.24 132.51 20.3 124.1 20.3 124.1 25.89 134.12 25.89 134.12 30.98 117.1 30.98 117.1 5.17"/><polygon class="cls-3" points="158.32 31.47 145.5 16.79 145.5 31.19 139.46 31.19 139.46 5.17 143.66 5.17 156.34 19.68 156.34 5.43 162.38 5.43 162.38 31.47 158.32 31.47"/><path class="cls-3" d="M168.05,5.17h9.27c8.32,0,14.73,3.8,14.73,13.11s-6.41,12.85-14.73,12.85h-9.27Zm7,5.24V25.9H177c4.72,0,7.89-1.83,7.89-7.62s-3.17-7.87-7.89-7.87Z"/><path class="cls-3" d="M13,25.21l0,1.44H10.31V25.39H2.73v1.26H0c0-.4,0-.93,0-1.44V11.55C0,11,0,10.5,0,10.12H13.05c0,.47,0,.92,0,1.43ZM2.73,16.37h7.58V12.52H2.73Zm7.58,2.4H2.73V23h7.58Z"/><path class="cls-3" d="M21.92,25.83c0,.28,0,.61,0,.86H19.65a6,6,0,0,0,0-.86V19l-2,.18a7.59,7.59,0,0,0-.9.14l-.29-2.21h1.17a4.27,4.27,0,0,0,.48,0c.35-.4.71-.85,1.08-1.33-.84-1-1.77-1.94-2.61-2.74l1.19-1.82c.17.16.38.4.59.63a13.88,13.88,0,0,0,1.67-3L22.05,10a3.25,3.25,0,0,0-.23.29,24.8,24.8,0,0,1-2,3.15c.21.25.42.5.61.75a20.33,20.33,0,0,0,2.15-3.62l1.9,1.13a2.14,2.14,0,0,1-.27.31c-.84,1.37-2.22,3.3-3.51,5,.61-.05,1.23-.11,1.74-.17A13.07,13.07,0,0,0,22,15.34l1.68-.43a25.39,25.39,0,0,1,1.23,4.14c-.56.18-1.28.4-1.86.54,0-.26-.09-.57-.15-.88-.29,0-.61.06-1,.09ZM17.39,20l1.84.31a2.8,2.8,0,0,1-.06.38,20.17,20.17,0,0,1-.65,5.09l-1.84-.71A16.83,16.83,0,0,0,17.39,20m16,4.13a13,13,0,0,0,1.33,0v2.38a13,13,0,0,0-1.33,0H25.28c-.52,0-1,0-1.36,0V24.1l-1.08.31a26.81,26.81,0,0,0-.52-4.27L24,19.71a27.4,27.4,0,0,1,.75,4.16,6.62,6.62,0,0,1-.72.21,12.35,12.35,0,0,0,1.28,0h3.1V22H25.26V19.83h3.12v-1.2c0-.16,0-.5,0-.68.55,0,2,.05,2.59.1,0,.17,0,.42,0,.58v1.2h3.24V22H30.9v2.09Zm-5.67-8.83a9,9,0,0,1-1.94-3.2c-.36,0-.71,0-1,0V9.9c.31,0,.66,0,1.05,0h6.26l.17-.2a18.37,18.37,0,0,1,2,1.67c-.08.06-.2.1-.3.16a8.84,8.84,0,0,1-2.39,3.79,13.62,13.62,0,0,0,3.12.82c-.28.67-.73,1.77-.9,2.31a13.84,13.84,0,0,1-4.1-1.56,15.45,15.45,0,0,1-4.05,1.56c-.2-.57-.73-1.68-1.05-2.39a12.39,12.39,0,0,0,3.1-.79m3.67-3.2H28.19a5.9,5.9,0,0,0,1.54,2.09,5.63,5.63,0,0,0,1.69-2.09"/><polygon class="cls-1" points="40.89 31.03 41.97 31.03 56.16 5.17 55.09 5.17 40.89 31.03"/><polygon class="cls-1" points="42.69 31.03 43.77 31.03 57.96 5.17 56.89 5.17 42.69 31.03"/><polygon class="cls-1" points="44.48 31.03 45.56 31.03 59.77 5.17 58.69 5.17 44.48 31.03"/><polygon class="cls-1" points="46.28 31.03 47.35 31.03 61.56 5.17 60.49 5.17 46.28 31.03"/><polygon class="cls-1" points="48.08 31.03 49.15 31.03 63.36 5.17 62.28 5.17 48.08 31.03"/><polygon class="cls-1" points="45.35 11.65 47.92 16.45 48.27 15.69 46.06 11.65 46.64 11.65 48.56 15.11 48.87 14.42 47.34 11.65 47.92 11.65 49.15 13.87 51.23 9.47 48.88 5.17 40.52 5.17 47.28 17.81 47.59 17.11 44.78 11.65 45.35 11.65"/><polygon class="cls-1" points="56.62 31.03 57.31 31.03 53.9 24.83 53.58 25.51 56.62 31.03"/><polygon class="cls-1" points="55.37 31.03 56.07 31.03 53.33 26.05 53.01 26.75 55.37 31.03"/><polygon class="cls-1" points="54.18 24.28 57.9 31.03 58.59 31.03 54.5 23.58 54.18 24.28"/><polygon class="cls-1" points="54.86 22.86 59.18 31.03 63.73 31.03 56.97 18.41 54.86 22.86"/></g></svg>