<svg xmlns="http://www.w3.org/2000/svg" width="339.98" height="180" viewBox="0 0 339.98 180">
  <defs>
    <style>
      .cls-1 {
        opacity: 0.7;
      }

      .cls-2 {
        fill: #00b4dc;
      }

      .cls-3 {
        opacity: 0.2;
      }

      .cls-4 {
        fill: #fff;
      }

      .cls-5 {
        fill: #ff9600;
      }
    </style>
  </defs>
  <g id="レイヤー_2" data-name="レイヤー 2">
    <g id="開催結果">
      <g>
        <path class="cls-1" d="M331.36,115.43A90,90,0,0,0,167.5,44.29a89.95,89.95,0,1,0-44.29,129.38,33.24,33.24,0,0,0,6.85,3.86,32.52,32.52,0,0,0,35.42-7.05l10-10a32.48,32.48,0,0,0,5.49-7.31,90,90,0,0,0,97.24,20.5,33.24,33.24,0,0,0,6.85,3.86,32.52,32.52,0,0,0,35.42-7.05l10-10A32.55,32.55,0,0,0,331.36,115.43Z"/>
        <g>
          <path class="cls-2" d="M161.34,128.66l-10-10A12.5,12.5,0,0,0,130,127.5v20a12.5,12.5,0,0,0,21.34,8.84l10-10A12.51,12.51,0,0,0,161.34,128.66Z"/>
          <g>
            <circle class="cls-2" cx="90" cy="90" r="70"/>
            <g class="cls-3">
              <g>
                <g>
                  <path class="cls-4" d="M102.17,64.05,98.65,47.94a.76.76,0,0,0-.75-.6l-16.05.07a.77.77,0,0,0-.75.62l-2.68,13.7a.79.79,0,0,0,.12.58.76.76,0,0,0,.51.32,38.81,38.81,0,0,0,12.07.26c.7-.11,1.44-.28,2-.39.23,0,.67-.27.8-.06s-.08.39-.28.61a8,8,0,0,1-1.73,1.31A14,14,0,0,1,86.43,66a25.89,25.89,0,0,1-6.77-.06.81.81,0,0,0-.61.09.74.74,0,0,0-.34.5s-.08.39-.19.9-.32,1.52-.32,1.52a.57.57,0,0,1-.59.45L73.22,69,57.44,67.66a.77.77,0,0,0-.8.53l-4.7,14.63a.62.62,0,0,0,0,.23.76.76,0,0,0,.39.67l10.53,5.93,4.34,2.44a.56.56,0,0,1,.24.7l-1.84,4.36-7.83,18.51a.85.85,0,0,0-.06.31.75.75,0,0,0,.33.62l13.23,9.32a.76.76,0,0,0,1-.06l14.24-13.29,3.49-3.26a.57.57,0,0,1,.74,0l3.47,3.18,14.42,13.2a.77.77,0,0,0,1,0l13.14-9.44a.77.77,0,0,0,.32-.63.8.8,0,0,0-.06-.3l-8-18.45c-1.11-2.57-1.88-4.33-1.88-4.33a.58.58,0,0,1,.23-.71l5-2.86,9.82-5.65a.76.76,0,0,0,.38-.67,1,1,0,0,0,0-.24l-4.85-14.58a.77.77,0,0,0-.8-.52l-15.25,1.47-3.72.36a.56.56,0,0,1-.6-.44S102.76,66.78,102.17,64.05ZM79.62,69.68C79.76,69,80,68,80,68a.57.57,0,0,1,.6-.44,24.17,24.17,0,0,0,2.69.1,31,31,0,0,0,3.34-.17c5.75-.63,8.41-3.3,9.07-4.78a1.53,1.53,0,0,0-.14-1.55,1.6,1.6,0,0,0-1.73-.41,31.9,31.9,0,0,1-9.11.9c-1.79-.06-4.1-.37-4.1-.37a.47.47,0,0,1-.4-.55L81,56.84c.12-.63.25-1.3.38-2l1.07-5.44a.65.65,0,0,1,.59-.5l5.33,0h2.16l6.3,0a.65.65,0,0,1,.61.49s.37,1.68.91,4.17c1.38,6.3,3.64,16.69,3.64,16.69a.77.77,0,0,0,.83.6l9.42-.91,9.62-.93a.65.65,0,0,1,.65.42s.88,2.63,1.81,5.45c.19.57.38,1.14.56,1.7.92,2.75,1.77,5.31,1.77,5.31a.63.63,0,0,1-.27.72l-7.44,4.28-7.41,4.26a.78.78,0,0,0-.38.67.77.77,0,0,0,.06.3s3.59,8.29,6.5,15l3.41,7.86a.65.65,0,0,1-.2.75L114.93,120l-.74.53-4.65,3.34a.65.65,0,0,1-.77,0l-5.1-4.67L90.81,107.35a.76.76,0,0,0-1,0L78.06,118.28,72,124a.63.63,0,0,1-.77.05l-5.49-3.87-.48-.33L59.8,116a.66.66,0,0,1-.22-.75s1.74-4.09,3.7-8.74l6-14.19a.8.8,0,0,0,.06-.3.76.76,0,0,0-.39-.67l-7.3-4.11L54,82.93a.65.65,0,0,1-.29-.72s.92-2.83,1.86-5.76c.25-.79.51-1.58.75-2.35l1.41-4.38a.66.66,0,0,1,.65-.43l7.15.62C71.05,70.39,78.65,71,78.65,71a.68.68,0,0,0,.2,0L79,71l.09,0a.67.67,0,0,0,.14-.09l.06-.07a.76.76,0,0,0,.11-.14l0-.08a1.12,1.12,0,0,0,0-.13S79.54,70.1,79.62,69.68Z"/>
                  <path class="cls-4" d="M86,60.58a.44.44,0,0,1-.2,0,.66.66,0,0,1-.45-.84,36.85,36.85,0,0,0,1.53-8.9.67.67,0,0,1,1.34.08,38.61,38.61,0,0,1-1.58,9.22.66.66,0,0,1-.64.47Z"/>
                </g>
                <path class="cls-4" d="M94.35,56.11a1.07,1.07,0,1,1-1.06-1.24A1.16,1.16,0,0,1,94.35,56.11Z"/>
                <path class="cls-4" d="M83.19,53.15a.91.91,0,0,0,.83,1,.9.9,0,0,0,.82-1,.84.84,0,1,0-1.65,0Z"/>
                <g>
                  <path class="cls-4" d="M81.37,78.29v.91a3,3,0,0,1-2.52,1.16,3.12,3.12,0,0,1-2.18-.74,2.6,2.6,0,0,1-.84-2,2.56,2.56,0,0,1,.75-1.91,2.73,2.73,0,0,1,2-.75,3,3,0,0,1,1.14.21,2.37,2.37,0,0,1,.92.6,2.49,2.49,0,0,1,.57.93,4.36,4.36,0,0,1,.19,1.3H78.64a1.23,1.23,0,0,0,.5.62,1.4,1.4,0,0,0,.79.22A1.89,1.89,0,0,0,81.37,78.29Zm-2.9-1.18h1.26a1,1,0,0,0-.19-.6.57.57,0,0,0-.89,0A.94.94,0,0,0,78.47,77.11Z"/>
                  <path class="cls-4" d="M84.84,75.05v.65a2.19,2.19,0,0,1,1.61-.7,1.83,1.83,0,0,1,1.4.5,2.12,2.12,0,0,1,.5,1.5v3.23l-2.53,0v-3c0-.43-.16-.65-.49-.64a.85.85,0,0,0-.48.17l0,3.51H82.19l0-5.2Z"/>
                  <path class="cls-4" d="M93.46,75v1.47H92.35v1.12c0,.37.17.56.51.56a.78.78,0,0,0,.64-.38v2.07a2.73,2.73,0,0,1-1.54.42,2.39,2.39,0,0,1-1.62-.57,2,2,0,0,1-.67-1.58V76.48H88.59l3.75-3V75Z"/>
                  <path class="cls-4" d="M99.64,78.2v.91a3,3,0,0,1-2.52,1.16,3.07,3.07,0,0,1-2.18-.74,2.53,2.53,0,0,1-.84-2,2.6,2.6,0,0,1,.75-1.92,2.7,2.7,0,0,1,2-.74,2.85,2.85,0,0,1,1.14.2,2.45,2.45,0,0,1,.92.6,2.63,2.63,0,0,1,.57.93,4.12,4.12,0,0,1,.18,1.3H96.91a1.21,1.21,0,0,0,.49.62,1.35,1.35,0,0,0,.79.22A1.91,1.91,0,0,0,99.64,78.2ZM96.74,77H98a1.07,1.07,0,0,0-.19-.6.57.57,0,0,0-.46-.22.53.53,0,0,0-.43.22A.91.91,0,0,0,96.74,77Z"/>
                  <path class="cls-4" d="M103.12,76.1a1.64,1.64,0,0,1,1.48-1.19,1.21,1.21,0,0,1,.89.35,1.37,1.37,0,0,1,0,1.82,1.17,1.17,0,0,1-.89.36,1.49,1.49,0,0,1-1.09-.47,1.6,1.6,0,0,0-.39,1.25v1.94l-2.67,0,0-5.21h2.67Z"/>
                  <path class="cls-4" d="M75.79,88.85l0-4.21,8.44,0,0,4.21H82.12l0,5.28-4.21,0,0-5.28Z"/>
                  <path class="cls-4" d="M90.52,94.23a4.88,4.88,0,0,1-4.9-4.89A4.79,4.79,0,0,1,87,85.86a4.63,4.63,0,0,1,3.44-1.43,4.68,4.68,0,0,1,3.46,1.4,5,5,0,0,1,0,7A4.71,4.71,0,0,1,90.52,94.23Zm0-6.16a.86.86,0,0,0-.67.28,1.08,1.08,0,0,0,0,1.43.89.89,0,0,0,.67.28.91.91,0,0,0,.68-.29,1,1,0,0,0,.27-.71,1.05,1.05,0,0,0-.27-.71A.86.86,0,0,0,90.49,88.07Z"/>
                  <path class="cls-4" d="M103.07,94H98.86l0-4.14L95.2,84.55l4.25,0,1.48,2.14,1.45-2.16,4.26,0-3.59,5.37Z"/>
                  <path class="cls-4" d="M78.75,97.67v.65a2.11,2.11,0,0,1,1.6-.7,1.8,1.8,0,0,1,1.68.89,3.52,3.52,0,0,1,.89-.69,2.37,2.37,0,0,1,1-.22,1.79,1.79,0,0,1,1.34.51,2,2,0,0,1,.49,1.46l0,3.27H83.26V99.74a.61.61,0,0,0-.14-.42.43.43,0,0,0-.35-.16.87.87,0,0,0-.49.18v3.52H79.76l0-3.11a.65.65,0,0,0-.13-.43.46.46,0,0,0-.36-.15.85.85,0,0,0-.49.18l0,3.51H76.11l0-5.2Z"/>
                  <path class="cls-4" d="M92.44,100.83v.91a3,3,0,0,1-2.52,1.16,3.08,3.08,0,0,1-2.18-.75,2.78,2.78,0,0,1-.09-3.89,2.77,2.77,0,0,1,2-.75,3.35,3.35,0,0,1,1.15.2,2.56,2.56,0,0,1,.91.61,2.41,2.41,0,0,1,.57.93,4.06,4.06,0,0,1,.19,1.3H89.71a1.27,1.27,0,0,0,.5.62,1.4,1.4,0,0,0,.79.22A1.89,1.89,0,0,0,92.44,100.83Zm-2.89-1.19H90.8a1,1,0,0,0-.19-.61.57.57,0,0,0-.46-.21.54.54,0,0,0-.42.21A.87.87,0,0,0,89.55,99.64Z"/>
                  <path class="cls-4" d="M96.27,97.59v.65a2.18,2.18,0,0,1,1.61-.71,1.85,1.85,0,0,1,1.4.51,2.08,2.08,0,0,1,.49,1.5l0,3.23-2.53,0v-3c0-.43-.17-.65-.5-.65a1,1,0,0,0-.48.18l0,3.51H93.62l0-5.2Z"/>
                  <path class="cls-4" d="M105.24,97.54V99h-1.12v1.11q0,.57.51.57a.79.79,0,0,0,.64-.38v2.06a2.84,2.84,0,0,1-1.54.43,2.39,2.39,0,0,1-1.62-.57,2,2,0,0,1-.67-1.58V99h-1.09l3.75-3v1.49Z"/>
                </g>
              </g>
              <g>
                <path class="cls-4" d="M39.28,109.39l1.79,3.44,0,0-3.47-1.73-2.75,2.82,0,0,.57-3.89-3.52-1.74v0l3.89-.65.56-3.82,0,0,1.8,3.43,3.86-.65,0,0Z"/>
                <path class="cls-4" d="M142,107.28l1.76-3.44.05,0,.59,3.82,3.89.61v0l-3.51,1.78.6,3.88,0,0-2.77-2.8L139.13,113l0,0,1.76-3.45-2.75-2.77,0,0Z"/>
                <path class="cls-4" d="M87.86,140.72l.35-2.43-7-1,.12-.82-3.67-.54-.12.83-1-.14L76.17,139l1,.14-.11.72-1-.14-.36,2.44,1,.14-.07.5c-.45,3.11.71,4.95,3.72,5.39l1.71.24c2.45.36,4.73-.47,5.3-4.35l.39-2.7-3.61-.52-.39,2.7A1.41,1.41,0,0,1,81.91,145l-.27,0c-.9-.13-1.5-.47-1.35-1.55l.08-.5,2.7.4.35-2.45-2.7-.39.1-.71Z"/>
                <path class="cls-4" d="M97.51,141.47l-1.72.08,0-.71,5.45-.26-.14-3-5.45.27c0-.44,0-.72,0-.72l-3.7.18,0,.71-2,.11.15,3,2-.1.18,3.75,4.87-.24c.5,0,.66.16.68.44s-.18.44-.68.46l-6.08.3.17,3.45,6.08-.29c3.67-.18,4.78-1.47,4.65-4C101.77,141.64,99.93,141.35,97.51,141.47Z"/>
                <path class="cls-4" d="M69.5,138l-1-.48.31-.65,1.09.51,1.26-2.66-1.09-.52.31-.65-2.86-1.35c-.12.25-.11.25-.3.65l-2.93-1.39L63,134.12l2.95,1.4-.31.65-.31-.15c-1.5-.71-3.41-.39-4.52,2s-.41,3.89,1.61,4.85c2.59,1.23,3.61-.16,4.41-1.85l.34-.73,1.07.51c.41.2.63.37.47.72s-.33.34-.83.11l-.47-.22L66,144.49l.42.2c2,.95,4,1.21,5.32-1.67C72.78,140.72,71.5,138.93,69.5,138ZM64,139.67c-.17.35-.36.46-.54.38l-.11-.06c-.3-.14-.23-.5-.07-.84s.52-.5.84-.34l.23.1Zm8.33-5.81-1.27,2.68a.65.65,0,0,1,.37,1l-.37.78,2.7,1.27.5-1.06C75.27,136.38,74.84,134.93,72.34,133.86Z"/>
                <path class="cls-4" d="M120,134l.4,2a3.16,3.16,0,0,1-2,3.19L114.78,141l1.54,3.1,3.83-1.9c2.83-1.4,4.42-3.83,3.68-7-.33-1.43-.92-2.89-.13-3.28L122,128.54C119.32,129.88,119.41,131.47,120,134Zm-3.82-3-5.1,2.53,1.35,2.73,5.1-2.54Zm1.67,3.37-5.1,2.53,1.35,2.72,5.1-2.53Z"/>
                <rect class="cls-4" x="132.07" y="118.94" width="11.04" height="3.59" transform="translate(-41.74 157.44) rotate(-52.83)"/>
                <path class="cls-4" d="M127.83,125.81l-4,3.59,1.71,1.91,3.75-3.36c.36-.31.57,0,.78.27h0l-3.68,3.29,1.35,1.51,3.68-3.3.48.54-4,3.63,1.7,1.9,6.36-5.69-3.85-4.28A2.8,2.8,0,0,0,127.83,125.81Z"/>
                <path class="cls-4" d="M110.44,139.3a.89.89,0,0,1,.67-.47l-.55-2.06c-2,.55-2.69,1.56-2.81,2.58l-1.42.39-.32-.94-2.56.69.32.94-1,.26.72,2.64,1.14-.31,1.58,4.61,2.54-.69-1.57-4.6,1.14-.31c.67-.18,1-.08,1.14.38s-.11.79-1,1l.72,2.64c3-.81,3.64-2.22,3.12-4.14l-.16-.59A2.8,2.8,0,0,0,110.44,139.3Z"/>
                <path class="cls-4" d="M50.75,123.18l1.59-1.26-2.75-3.47.43-.35-1.94-2.45-.44.34-2.75-3.46-1.58,1.26,2.74,3.46-.56.45-2.62-3.3L38.32,118l1.76,2.23a4.05,4.05,0,0,1-2.75-1.76l-1.69,1.33c1.23,1.57,2.51,2.44,3.66,2.54l-1,.81,2.17,2.74,1-.81c-.17,1.14.39,2.59,1.62,4.13l1.69-1.34a3.7,3.7,0,0,1-1.08-3.07l1.79,2.26,4.56-3.61-2.62-3.31.57-.44ZM42,120.46l-.82-1,.56-.45.82,1ZM43.85,119,43,118l.57-.45.82,1Zm.91,5-.82-1,.56-.45.82,1ZM47.18,122l-.56.45-.82-1,.56-.45Z"/>
                <g>
                  <path class="cls-4" d="M38.1,101.06l-6.88,1.26-.49-2.64,6.88-1.26Z"/>
                  <path class="cls-4" d="M55.12,50.89l-4.49-5.36,2.08-1.74,4.49,5.36Z"/>
                  <path class="cls-4" d="M32.78,90.05l-2.72-.16.38-6.19,2.71.16L33,85.6l4.28.26-.17,2.71-4.27-.26Z"/>
                  <path class="cls-4" d="M46.83,52.86l-1.9-2,4.45-4.34,1.9,2L50,49.74l3,3.06-1.94,1.89-3-3.06Z"/>
                  <path class="cls-4" d="M90.28,33.53l.16-2.71,6.2.37-.16,2.71-1.75-.11-.25,4.28-2.71-.16L92,33.63Z"/>
                  <path class="cls-4" d="M129,49l2-1.88,4.29,4.48-1.95,1.88-1.21-1.26-3.1,3-1.87-2,3.09-3Z"/>
                  <path class="cls-4" d="M37,77.75l1.54.28-1,5.71-6.88-1.25,1-5.71,1.54.28-.56,3,1.23.22.41-2.23,1.35.25-.41,2.23,1.22.22Z"/>
                  <path class="cls-4" d="M32,75.08l1.5-4.31a2.72,2.72,0,0,1,1.18-1.57,1.84,1.84,0,0,1,2.78,1.26,6,6,0,0,1,3.67-.32l-1,2.85a5.4,5.4,0,0,0-2-.27c-.46,0-.83.47-1.1,1.24l2.45.85-.89,2.57ZM34.22,73l1.28.44.15-.44c.27-.77.13-1-.28-1.18a.77.77,0,0,0-.52,0,1.22,1.22,0,0,0-.44.65Z"/>
                  <path class="cls-4" d="M46.36,60.67l-1.64,2.15-4.1-6.16,2.67-3.51,7,2.3-1.64,2.16-1.19-.4-1.84,2.42Zm-1.67-2.49,1.15-1.52-2.76-.88Z"/>
                  <path class="cls-4" d="M73.71,40.38l-2.61.74.42-7.39,4.24-1.2L80,38.6l-2.61.74-.7-1-2.93.83Zm.15-3,1.84-.52L74,34.51Z"/>
                  <path class="cls-4" d="M60.12,47.1a3.43,3.43,0,0,1-2.74,0,3.53,3.53,0,0,1-1.92-2,3.58,3.58,0,1,1,6.65-2.66,3.51,3.51,0,0,1,0,2.77A3.45,3.45,0,0,1,60.12,47.1Zm-1.85-4.64a1.05,1.05,0,0,0-.62.62,1.29,1.29,0,0,0,.63,1.58,1.08,1.08,0,0,0,.88,0,1.1,1.1,0,0,0,.63-.62,1.2,1.2,0,0,0,0-.91,1.18,1.18,0,0,0-.61-.68A1.08,1.08,0,0,0,58.27,42.46Z"/>
                  <path class="cls-4" d="M99.66,39a3.46,3.46,0,0,1-2.2-1.64,3.5,3.5,0,0,1-.39-2.74,3.54,3.54,0,0,1,1.64-2.22,3.62,3.62,0,0,1,4.93,1.24,3.56,3.56,0,0,1,.38,2.73,3.52,3.52,0,0,1-1.63,2.23A3.47,3.47,0,0,1,99.66,39Zm1.22-4.85a1.09,1.09,0,0,0-.86.14,1.33,1.33,0,0,0-.42,1.65,1.05,1.05,0,0,0,.7.53,1,1,0,0,0,.86-.14,1.1,1.1,0,0,0,.53-.74,1.14,1.14,0,0,0-.11-.91A1.09,1.09,0,0,0,100.88,34.13Z"/>
                  <path class="cls-4" d="M120.43,47.66a3.46,3.46,0,0,1-1.71-2.15,3.55,3.55,0,0,1,.34-2.75A3.49,3.49,0,0,1,121.2,41a3.4,3.4,0,0,1,2.73.31,3.46,3.46,0,0,1,1.71,2.15,3.4,3.4,0,0,1-.33,2.73,3.57,3.57,0,0,1-4.88,1.43Zm2.42-4.37a1,1,0,0,0-.86-.09,1.21,1.21,0,0,0-.71.59,1.24,1.24,0,0,0-.12.9,1.08,1.08,0,0,0,.53.69,1.1,1.1,0,0,0,.88.1,1.31,1.31,0,0,0,.83-1.5A1.08,1.08,0,0,0,122.85,43.29Z"/>
                  <path class="cls-4" d="M132.79,59.92A3.61,3.61,0,1,1,139,57.45a3.61,3.61,0,0,1-6.19,2.47Zm3.59-3.48a1.1,1.1,0,0,0-.81-.35,1.2,1.2,0,0,0-.84.37,1.22,1.22,0,0,0-.39.82,1.06,1.06,0,0,0,.33.82,1.1,1.1,0,0,0,.8.35,1.27,1.27,0,0,0,.84-.36,1.29,1.29,0,0,0,.39-.83A1.09,1.09,0,0,0,136.38,56.44Z"/>
                  <path class="cls-4" d="M142.62,88.67a3.37,3.37,0,0,1,.62-2.67,3.62,3.62,0,0,1,5-.84,3.44,3.44,0,0,1,1.45,2.33,3.49,3.49,0,0,1-.61,2.68,3.66,3.66,0,0,1-5.05.84A3.43,3.43,0,0,1,142.62,88.67Zm4.92-.82a1,1,0,0,0-.47-.74,1.17,1.17,0,0,0-.89-.18,1.21,1.21,0,0,0-.79.46,1,1,0,0,0-.2.85,1.08,1.08,0,0,0,.47.75,1.22,1.22,0,0,0,.89.18,1.25,1.25,0,0,0,.79-.46A1.1,1.1,0,0,0,147.54,87.85Z"/>
                  <path class="cls-4" d="M80.57,38.43l-.89-6.93,2.7-.35L83,36.34,86.1,36l.22,1.75Z"/>
                  <path class="cls-4" d="M108.66,33.86l-.77,2.21A2.2,2.2,0,0,0,109.8,36a2.91,2.91,0,0,0,.92-1.43l2.8,1a5.6,5.6,0,0,1-1,1.88,3.79,3.79,0,0,1-1.67.88,4.69,4.69,0,0,1,.58,3.91l-3-1c.54-1.7.07-2.65-1.24-3.14l-.84,2.42-2.56-.89L106.1,33Z"/>
                  <path class="cls-4" d="M115.75,44.63l-2.39-1.28,1.44-2.69-.6-4.79,2.43,1.3.15,2.65,2.28-1.35,2.44,1.29-4.31,2.17Z"/>
                  <path class="cls-4" d="M136.83,66.38,135.52,64l2.67-1.48,2.1-4.34,1.33,2.41-1.31,2.31L143,63l1.34,2.41-4.8-.53Z"/>
                  <path class="cls-4" d="M147.13,74l-2,0a3.46,3.46,0,0,0,.19-2c-.06-.19-.12-.52-.46-.54s-.65.1-.57,1.4a4.62,4.62,0,0,1-.13,1.35,1.67,1.67,0,0,1-.41.83,1.74,1.74,0,0,1-.81.51,1.94,1.94,0,0,1-1.9-.23,4.37,4.37,0,0,1-1.38-2.16,9.26,9.26,0,0,1-.58-3.26h2.13c-.1.29-.2.89-.31,1.45s.12,1.05.39,1.11.68.05.68-1.26a7,7,0,0,1,.1-1,2,2,0,0,1,1.21-1.38,2,2,0,0,1,1.94.22,4.12,4.12,0,0,1,1.43,2.07A8.57,8.57,0,0,1,147.13,74Z"/>
                  <path class="cls-4" d="M142.52,95.63l.25-2.08L150,91.92l-.31,2.61-3.35.81L149.41,97l-.16,1.36-3.36.9,3.08,1.52-.31,2.62L142,100.19l.24-2.06,3.28-.93Z"/>
                  <path class="cls-4" d="M37,90.63,37.2,93,34.55,95.2,37.32,95l.16,2.48-7,.46-.14-2.14,2.8-2.37-2.94.19L30,91.09Z"/>
                  <path class="cls-4" d="M141.52,79.61,141,76.74l6.91-1.26.52,2.87-2.54.46.37,2,2.54-.46.48,2.69-6.92,1.25-.48-2.69,2.56-.46-.36-2Z"/>
                  <path class="cls-4" d="M44.52,63.41,43.44,65.5,40,66l2.46,1.27-1.13,2.21L35.09,66.3l1-1.91,3.63-.59-2.62-1.35,1.16-2.27Z"/>
                  <path class="cls-4" d="M70.53,41.36l-2.13,1-3-1.65,1.18,2.51L64.3,44.28l-3-6.37L63.23,37l3.24,1.73-1.26-2.67L67.52,35Z"/>
                </g>
                <g>
                  <path class="cls-4" d="M50.73,131.82,49,130.39a1.21,1.21,0,0,1-1.83-.11l-1.37,1.64C47.93,133.82,49.48,133.43,50.73,131.82Z"/>
                  <path class="cls-4" d="M48.48,129.07l3.08,2.55-2.49,3,2.72,2.26,2.49-3,3.09,2.57,3.29-3.95-8.91-7.39Zm4.11-.43L57,132.33l-.5.59-4.43-3.68Z"/>
                  <polygon class="cls-4" points="59.17 127.68 59.53 127.26 57.11 125.25 56.76 125.68 53.34 122.85 52.04 124.42 61.28 132.08 62.58 130.51 59.17 127.68"/>
                  <path class="cls-4" d="M56,136.17l-1.73-1.43c-1.35,1.52-1.44,3.12.81,4.85l1.37-1.65A1.2,1.2,0,0,1,56,136.17Z"/>
                </g>
              </g>
            </g>
          </g>
          <g>
            <path class="cls-4" d="M83.41,72.53h-7v.68H72.64V66a10.25,10.25,0,0,0-1.82-1.17v9.31H66.51V57.11h5.17a12.75,12.75,0,0,0-.75-1.48l1.64-.29H66.09V51.78h9.65V50.12l4.7.15c.16,0,.37.08.37.29s-.13.23-.55.55v.67h9.65v3.56H84.42l.6.06c.21,0,.6.07.6.36s-.42.34-.65.36a6.65,6.65,0,0,1-.5,1h5V70.68c0,3.44-1.69,3.49-5.22,3.59a7.51,7.51,0,0,0-.86-3.43ZM70.82,63.69a5.76,5.76,0,0,0,2.27-3H70.82Zm6.92-3H75.22l1.61.58c.16,0,.31.1.31.28s-.13.24-.57.44a8.56,8.56,0,0,1-2.11,3.64h9v4.68a7.91,7.91,0,0,0,1.19.16c.6,0,.71-.31.71-1V64.16a2.17,2.17,0,0,1-1.82.78H79.74a1.78,1.78,0,0,1-2-1.85Zm-2.39-5.33c.39.68.57,1,.93,1.77H79.9a11.49,11.49,0,0,0,.83-1.77Zm1,13.08v1.12h3.33V68.42Zm5-6.94c0,.39.06.49.5.49h.62c.26,0,.47-.1.6-1.09a9,9,0,0,0,2.24,1V60.67h-4Z"/>
            <path class="cls-4" d="M105.38,51.65c.13,0,.39.08.39.26s-.21.29-.57.39a17.84,17.84,0,0,1-1.2,4.6,8.62,8.62,0,0,0-3-.75v1.12H92v-3H101v.63a12.77,12.77,0,0,0,.73-3.64Zm10.19,12.07c.16.05.44.18.44.44,0,.47-.44.49-.8.52a13.17,13.17,0,0,1-1.54,3.43,9.33,9.33,0,0,0-3-1.51,11.8,11.8,0,0,0,5.62,4.19,10,10,0,0,0-2.71,3.35,11.41,11.41,0,0,1-5.33-4.5A10.37,10.37,0,0,1,103,74.22a10.87,10.87,0,0,0-2-2.5v2.11H97.58v-.75H96.25v1.06H92.56V65H101v1a9.06,9.06,0,0,0,1-3.25l3.51.71c.23,0,.47.13.47.33,0,.39-.44.45-.6.45a18.29,18.29,0,0,1-1.56,4.42,9.34,9.34,0,0,0-2.78-1v3c4.7-1.59,5.33-4.81,5.09-9.33l4.35.18c.15,0,.41,0,.41.34s-.28.36-.65.49a22.28,22.28,0,0,1-.1,3,6.41,6.41,0,0,0,.41.83,12.78,12.78,0,0,0,1.46-3.67ZM100.2,50.82V53.5H93.08V50.82Zm0,7.2v2.73H93.08V58Zm0,3.46v2.78H93.08V61.48Zm-2.62,8.37V68H96.25v1.82Zm18.2-17.52s.44.15.44.39c0,.41-.52.41-.83.36a12.68,12.68,0,0,1-1.9,3.51,8.55,8.55,0,0,0-1.77-1.06l-1.56-.71c1.15,2.53,4.34,4,6.17,4.47a11.22,11.22,0,0,0-2.4,3.41,11.3,11.3,0,0,1-5.82-4.29,11.92,11.92,0,0,1-5.38,4.29,10.9,10.9,0,0,0-2.47-3.35c3.58-1.07,5.64-2.11,5.64-7.47a15,15,0,0,0-.08-1.68l4.29.15c.26,0,.6,0,.6.36s-.11.32-.7.55a18,18,0,0,1-.13,2.84c.13.36.2.52.28.7a8.93,8.93,0,0,0,2-3.75Z"/>
            <path class="cls-4" d="M56.73,99.23c0,.67.31.88.86.88h1.69c.55,0,1-.13,1.46-3a8.31,8.31,0,0,0,3.69,2c-.57,3.69-1.67,4.73-3.82,4.73h-5.1a2.92,2.92,0,0,1-3.22-3.33V95.74H50l1.46.76c.18.1.29.18.29.41,0,.39-.55.39-.76.39a13.73,13.73,0,0,1-8.58,7.21,10.23,10.23,0,0,0-3-3.38c5.54-1,7.2-4.53,7.54-5.39H42.77V80.64H61.26v15.1H56.73ZM56.89,85v-.86H47.11V85Zm-9.78,2.76v.88h9.78v-.88Zm0,3.61v.88h9.78v-.88Z"/>
            <path class="cls-4" d="M83.93,100.37H80.24v3.8H75.76v-3.8H72.15v-3a27.07,27.07,0,0,1-3.56,3.54,7.88,7.88,0,0,0-3.38-3.17,21.8,21.8,0,0,0,8.45-9.63H66V84.2h9.72v-4l4.37.15c.24,0,.65.05.65.42s-.31.47-.54.6V84.2h9.67v3.92H82.16a26,26,0,0,0,8.42,9.44A13.12,13.12,0,0,0,87.49,101a28.28,28.28,0,0,1-3.56-3.51ZM75.76,92a25.91,25.91,0,0,1-2.93,4.52h2.93Zm7.41,4.52a24.81,24.81,0,0,1-2.93-4.42v4.42Z"/>
            <path class="cls-4" d="M106.91,86.85c0,.34-.36.47-.67.55v1h8V98.94c0,3.69-2.4,3.69-5.78,3.67a8.81,8.81,0,0,0-1.25-4.4,10.92,10.92,0,0,0,1.67.19c1,0,1-.32,1-.89v-5h-3.61v11.72h-4.53V92.47H98.25v10H93.76V88.36h7.95V86.85H92V82.74h9.72V80.2l4.76.2c.23,0,.44.13.44.34s-.36.47-.67.55v1.45H116v4.11Z"/>
            <path class="cls-4" d="M129.84,99.33c5.65-.88,7.31-4.89,7.31-7.67,0-.78,0-5.33-5.43-6-.39,7.74-4,16.27-7.52,16.27-2.18,0-6.06-3.2-6.06-8.55a12.34,12.34,0,0,1,12.69-12c6.22,0,11,3.92,11,10.19a11.54,11.54,0,0,1-3.93,8.81,13,13,0,0,1-5.43,3.07A31.11,31.11,0,0,0,129.84,99.33Zm-7.41-6c0,1.84.89,3.25,1.43,3.25.94,0,2.94-5.23,3.2-10.32C125.06,87,122.43,90.28,122.43,93.38Z"/>
            <path class="cls-4" d="M73.19,128.14a15.47,15.47,0,0,0,3.25-1.1,24.68,24.68,0,0,0-2-2.65L77,122.62H75.17A11.88,11.88,0,0,0,73.4,126a14.67,14.67,0,0,1-.91-1.38v9.52H68.56V126.5a9.66,9.66,0,0,1-1.22,2A13.37,13.37,0,0,0,65,125.3a18.84,18.84,0,0,0,3.22-7.36H66v-3.58h2.42v-4.11l4.24.18c.21,0,.49.08.49.36s-.26.39-.62.55v3H74.2v3.58H72.49v.63a17.63,17.63,0,0,0,1.87,3.12v-2.08H80v-.86H75.61v-2.5H80v-.85H74.62v-2.92H77A11,11,0,0,0,76,110.77l3.79-1.12a20.81,20.81,0,0,1,1.48,2.52l-.78.31h2.27a17.27,17.27,0,0,0,1.22-2.78l3.95.86c.18,0,.34.18.34.34,0,.34-.37.41-.68.49a12,12,0,0,1-.62,1.09h2.65v2.92H84.08v.85h4.4v2.5h-4.4v.86h5.83v3H88L90.17,124a.4.4,0,0,1,.18.36c0,.42-.47.42-.75.39a15.57,15.57,0,0,1-2.16,2.73,12.79,12.79,0,0,0,3.46,2.47,11.53,11.53,0,0,0-2.4,3.17,18.52,18.52,0,0,1-4.42-4.29v2.06c0,2-.39,3.14-5.3,3.35-.1-.52-.57-2.91-1.56-3.72-.47.24-.91.44-1.92.89-.06.23-.16.7-.55.7s-.44-.31-.49-.5Zm4.34-5.52a28.66,28.66,0,0,1,1.82,2.32,29.46,29.46,0,0,0-2.34,1.9c1.09-.47,1.85-.78,3-1.36v-2.86ZM80,129.18c-1,.52-2,1-2.75,1.32a10,10,0,0,0,1.87.21c.86,0,.88-.21.88-.81Zm4.08-6.06a10.32,10.32,0,0,0,1.1,1.82,13.35,13.35,0,0,0,1.56-2.32H84.08Z"/>
            <path class="cls-4" d="M116,119.84v4.08h-9.6v6.45c0,2.16-.44,4.08-7.1,3.8a16.76,16.76,0,0,0-1.35-4.42c1.48.15,2.47.18,2.86.18.89,0,.89-.36.89-1.4v-4.61H92v-4.08h9.68v-3.56l2.31.13a20.18,20.18,0,0,0,1.82-1.43H94.54v-4.06h17.18l2.29,2a73.32,73.32,0,0,1-7.62,6.77v.15Z"/>
          </g>
          <polygon class="cls-4" points="142.5 147.5 142.5 127.5 152.5 137.5 142.5 147.5"/>
        </g>
        <g>
          <path class="cls-5" d="M316.34,128.66l-10-10A12.5,12.5,0,0,0,285,127.5v20a12.5,12.5,0,0,0,21.34,8.84l10-10A12.51,12.51,0,0,0,316.34,128.66Z"/>
          <g>
            <circle class="cls-5" cx="245" cy="90" r="70"/>
            <g class="cls-3">
              <g>
                <g>
                  <path class="cls-4" d="M257.17,64.05l-3.52-16.11a.76.76,0,0,0-.75-.6l-16.05.07a.77.77,0,0,0-.75.62l-2.68,13.7a.79.79,0,0,0,.12.58.76.76,0,0,0,.51.32,38.81,38.81,0,0,0,12.07.26c.7-.11,1.44-.28,2-.39.23,0,.67-.27.8-.06s-.08.39-.28.61a8,8,0,0,1-1.73,1.31A14,14,0,0,1,241.43,66a25.89,25.89,0,0,1-6.77-.06.81.81,0,0,0-.61.09.74.74,0,0,0-.34.5s-.08.39-.19.9-.32,1.52-.32,1.52a.57.57,0,0,1-.59.45L228.22,69l-15.78-1.38a.77.77,0,0,0-.8.53l-4.7,14.63a.62.62,0,0,0,0,.23.76.76,0,0,0,.39.67l10.53,5.93,4.34,2.44a.56.56,0,0,1,.24.7l-1.84,4.36-7.83,18.51a.85.85,0,0,0-.06.31.75.75,0,0,0,.33.62l13.23,9.32a.76.76,0,0,0,1-.06l14.24-13.29,3.49-3.26a.57.57,0,0,1,.74,0l3.47,3.18,14.42,13.2a.77.77,0,0,0,1,0l13.14-9.44a.77.77,0,0,0,.32-.63.8.8,0,0,0-.06-.3l-8-18.45c-1.11-2.57-1.88-4.33-1.88-4.33a.58.58,0,0,1,.23-.71l5-2.86,9.82-5.65a.76.76,0,0,0,.38-.67,1,1,0,0,0,0-.24l-4.85-14.58a.77.77,0,0,0-.8-.52l-15.25,1.47-3.72.36a.56.56,0,0,1-.6-.44S257.76,66.78,257.17,64.05Zm-22.55,5.63C234.76,69,235,68,235,68a.57.57,0,0,1,.6-.44,24.17,24.17,0,0,0,2.69.1,31,31,0,0,0,3.34-.17c5.75-.63,8.41-3.3,9.07-4.78a1.53,1.53,0,0,0-.14-1.55,1.6,1.6,0,0,0-1.73-.41,31.9,31.9,0,0,1-9.11.9c-1.79-.06-4.1-.37-4.1-.37a.47.47,0,0,1-.4-.55l.77-3.92c.12-.63.25-1.3.38-2l1.07-5.44a.65.65,0,0,1,.59-.5l5.33,0h2.16l6.3,0a.65.65,0,0,1,.61.49s.37,1.68.91,4.17c1.38,6.3,3.64,16.69,3.64,16.69a.77.77,0,0,0,.83.6l9.42-.91,9.62-.93a.65.65,0,0,1,.65.42s.88,2.63,1.81,5.45c.19.57.38,1.14.56,1.7l1.77,5.31a.63.63,0,0,1-.27.72l-7.44,4.28-7.41,4.26a.78.78,0,0,0-.38.67.77.77,0,0,0,.06.3s3.59,8.29,6.5,15l3.41,7.86a.65.65,0,0,1-.2.75L269.93,120l-.74.53-4.65,3.34a.65.65,0,0,1-.77,0l-5.1-4.67-12.86-11.77a.76.76,0,0,0-1,0l-11.71,10.92L227,124a.63.63,0,0,1-.77.05l-5.49-3.87-.48-.33L214.8,116a.66.66,0,0,1-.22-.75s1.74-4.09,3.7-8.74l6-14.19a.8.8,0,0,0,.06-.3.76.76,0,0,0-.39-.67l-7.3-4.11L209,82.93a.65.65,0,0,1-.29-.72s.92-2.83,1.86-5.76c.25-.79.51-1.58.75-2.35l1.41-4.38a.66.66,0,0,1,.65-.43l7.15.62c5.49.48,13.09,1.11,13.09,1.11a.68.68,0,0,0,.2,0l.14,0,.09,0a.67.67,0,0,0,.14-.09l.06-.07a.76.76,0,0,0,.11-.14l0-.08a1.12,1.12,0,0,0,.05-.13S234.54,70.1,234.62,69.68Z"/>
                  <path class="cls-4" d="M241,60.58a.44.44,0,0,1-.2,0,.66.66,0,0,1-.45-.84,36.85,36.85,0,0,0,1.53-8.9.67.67,0,0,1,1.34.08,38.61,38.61,0,0,1-1.58,9.22.66.66,0,0,1-.64.47Z"/>
                </g>
                <path class="cls-4" d="M249.35,56.11a1.07,1.07,0,1,1-1.06-1.24A1.16,1.16,0,0,1,249.35,56.11Z"/>
                <path class="cls-4" d="M238.19,53.15a.91.91,0,0,0,.83,1,.9.9,0,0,0,.82-1,.84.84,0,1,0-1.65,0Z"/>
                <g>
                  <path class="cls-4" d="M236.37,78.29v.91a3,3,0,0,1-2.52,1.16,3.12,3.12,0,0,1-2.18-.74,2.6,2.6,0,0,1-.84-2,2.56,2.56,0,0,1,.75-1.91,2.73,2.73,0,0,1,2-.75,3,3,0,0,1,1.14.21,2.37,2.37,0,0,1,.92.6,2.49,2.49,0,0,1,.57.93,4.36,4.36,0,0,1,.19,1.3h-2.73a1.23,1.23,0,0,0,.5.62,1.4,1.4,0,0,0,.79.22A1.89,1.89,0,0,0,236.37,78.29Zm-2.9-1.18h1.26a1,1,0,0,0-.19-.6.57.57,0,0,0-.89,0A.94.94,0,0,0,233.47,77.11Z"/>
                  <path class="cls-4" d="M239.84,75.05v.65a2.19,2.19,0,0,1,1.61-.7,1.83,1.83,0,0,1,1.4.5,2.12,2.12,0,0,1,.5,1.5v3.23l-2.53,0v-3c0-.43-.16-.65-.49-.64a.85.85,0,0,0-.48.17l0,3.51h-2.68l0-5.2Z"/>
                  <path class="cls-4" d="M248.46,75v1.47h-1.12v1.12c0,.37.17.56.51.56a.78.78,0,0,0,.64-.38v2.07a2.73,2.73,0,0,1-1.54.42,2.39,2.39,0,0,1-1.62-.57,2,2,0,0,1-.67-1.58V76.48h-1.09l3.75-3V75Z"/>
                  <path class="cls-4" d="M254.64,78.2v.91a3,3,0,0,1-2.52,1.16,3.07,3.07,0,0,1-2.18-.74,2.53,2.53,0,0,1-.84-2,2.6,2.6,0,0,1,.75-1.92,2.7,2.7,0,0,1,2-.74,2.85,2.85,0,0,1,1.14.2,2.45,2.45,0,0,1,.92.6,2.63,2.63,0,0,1,.57.93,4.12,4.12,0,0,1,.18,1.3h-2.72a1.21,1.21,0,0,0,.49.62,1.35,1.35,0,0,0,.79.22A1.91,1.91,0,0,0,254.64,78.2ZM251.74,77H253a1.07,1.07,0,0,0-.19-.6.57.57,0,0,0-.46-.22.53.53,0,0,0-.43.22A.91.91,0,0,0,251.74,77Z"/>
                  <path class="cls-4" d="M258.12,76.1a1.64,1.64,0,0,1,1.48-1.19,1.21,1.21,0,0,1,.89.35,1.37,1.37,0,0,1,0,1.82,1.17,1.17,0,0,1-.89.36,1.49,1.49,0,0,1-1.09-.47,1.6,1.6,0,0,0-.39,1.25v1.94l-2.67,0,0-5.21h2.67Z"/>
                  <path class="cls-4" d="M230.79,88.85l0-4.21,8.44,0,0,4.21h-2.11l0,5.28-4.21,0,0-5.28Z"/>
                  <path class="cls-4" d="M245.52,94.23a4.88,4.88,0,0,1-4.9-4.89A4.79,4.79,0,0,1,242,85.86a4.63,4.63,0,0,1,3.44-1.43,4.68,4.68,0,0,1,3.46,1.4,5,5,0,0,1,0,7A4.71,4.71,0,0,1,245.52,94.23Zm0-6.16a.86.86,0,0,0-.67.28,1.08,1.08,0,0,0,0,1.43.89.89,0,0,0,.67.28.91.91,0,0,0,.68-.29,1,1,0,0,0,.27-.71,1.05,1.05,0,0,0-.27-.71A.86.86,0,0,0,245.49,88.07Z"/>
                  <path class="cls-4" d="M258.07,94h-4.21l0-4.14-3.64-5.33,4.25,0,1.48,2.14,1.45-2.16,4.26,0-3.59,5.37Z"/>
                  <path class="cls-4" d="M233.75,97.67v.65a2.11,2.11,0,0,1,1.6-.7,1.8,1.8,0,0,1,1.68.89,3.52,3.52,0,0,1,.89-.69,2.37,2.37,0,0,1,1-.22,1.79,1.79,0,0,1,1.34.51,2,2,0,0,1,.49,1.46l0,3.27h-2.53V99.74a.61.61,0,0,0-.14-.42.43.43,0,0,0-.35-.16.87.87,0,0,0-.49.18v3.52h-2.52l0-3.11a.65.65,0,0,0-.13-.43.46.46,0,0,0-.36-.15.85.85,0,0,0-.49.18l0,3.51h-2.67l0-5.2Z"/>
                  <path class="cls-4" d="M247.44,100.83v.91a3,3,0,0,1-2.52,1.16,3.08,3.08,0,0,1-2.18-.75,2.78,2.78,0,0,1-.09-3.89,2.77,2.77,0,0,1,2-.75,3.35,3.35,0,0,1,1.15.2,2.56,2.56,0,0,1,.91.61,2.41,2.41,0,0,1,.57.93,4.06,4.06,0,0,1,.19,1.3h-2.73a1.27,1.27,0,0,0,.5.62,1.4,1.4,0,0,0,.79.22A1.89,1.89,0,0,0,247.44,100.83Zm-2.89-1.19h1.25a1,1,0,0,0-.19-.61.57.57,0,0,0-.46-.21.54.54,0,0,0-.42.21A.87.87,0,0,0,244.55,99.64Z"/>
                  <path class="cls-4" d="M251.27,97.59v.65a2.18,2.18,0,0,1,1.61-.71,1.85,1.85,0,0,1,1.4.51,2.08,2.08,0,0,1,.49,1.5l0,3.23-2.53,0v-3c0-.43-.17-.65-.5-.65a1,1,0,0,0-.48.18l0,3.51h-2.67l0-5.2Z"/>
                  <path class="cls-4" d="M260.24,97.54V99h-1.12v1.11q0,.57.51.57a.79.79,0,0,0,.64-.38v2.06a2.84,2.84,0,0,1-1.54.43,2.39,2.39,0,0,1-1.62-.57,2,2,0,0,1-.67-1.58V99h-1.09l3.75-3v1.49Z"/>
                </g>
              </g>
              <g>
                <path class="cls-4" d="M194.28,109.39l1.79,3.44,0,0-3.47-1.73-2.75,2.82,0,0,.57-3.89-3.52-1.74v0l3.89-.65.56-3.82,0,0,1.8,3.43,3.86-.65,0,0Z"/>
                <path class="cls-4" d="M297,107.28l1.76-3.44.05,0,.59,3.82,3.89.61v0l-3.51,1.78.6,3.88,0,0-2.77-2.8L294.13,113l0,0,1.76-3.45-2.75-2.77,0,0Z"/>
                <path class="cls-4" d="M242.86,140.72l.35-2.43-7-1,.12-.82-3.67-.54-.12.83-1-.14-.35,2.43,1,.14-.11.72-1-.14-.36,2.44,1,.14-.07.5c-.45,3.11.71,4.95,3.72,5.39l1.71.24c2.45.36,4.73-.47,5.3-4.35l.39-2.7-3.61-.52-.39,2.7a1.41,1.41,0,0,1-1.83,1.36l-.27,0c-.9-.13-1.5-.47-1.35-1.55l.08-.5,2.7.4.35-2.45-2.7-.39.1-.71Z"/>
                <path class="cls-4" d="M252.51,141.47l-1.72.08,0-.71,5.45-.26-.14-3-5.45.27c0-.44,0-.72,0-.72l-3.7.18,0,.71-2,.11.15,3,2-.1.18,3.75,4.87-.24c.5,0,.66.16.68.44s-.18.44-.68.46l-6.08.3.17,3.45,6.08-.29c3.67-.18,4.78-1.47,4.65-4C256.77,141.64,254.93,141.35,252.51,141.47Z"/>
                <path class="cls-4" d="M224.5,138l-1-.48.31-.65,1.09.51,1.26-2.66-1.09-.52.31-.65-2.86-1.35c-.12.25-.11.25-.3.65l-2.93-1.39L218,134.12l2.95,1.4-.31.65-.31-.15c-1.5-.71-3.41-.39-4.52,2s-.41,3.89,1.61,4.85c2.59,1.23,3.61-.16,4.41-1.85l.34-.73,1.07.51c.41.2.63.37.47.72s-.33.34-.83.11l-.47-.22L221,144.49l.42.2c2,.95,4,1.21,5.32-1.67C227.78,140.72,226.5,138.93,224.5,138ZM219,139.67c-.17.35-.36.46-.54.38l-.11-.06c-.3-.14-.23-.5-.07-.84s.52-.5.84-.34l.23.1Zm8.33-5.81-1.27,2.68a.65.65,0,0,1,.37,1l-.37.78,2.7,1.27.5-1.06C230.27,136.38,229.84,134.93,227.34,133.86Z"/>
                <path class="cls-4" d="M275,134l.4,2a3.16,3.16,0,0,1-2,3.19L269.78,141l1.54,3.1,3.83-1.9c2.83-1.4,4.42-3.83,3.68-7-.33-1.43-.92-2.89-.13-3.28L277,128.54C274.32,129.88,274.41,131.47,275,134Zm-3.82-3-5.1,2.53,1.35,2.73,5.1-2.54Zm1.67,3.37-5.1,2.53,1.35,2.72,5.1-2.53Z"/>
                <rect class="cls-4" x="287.07" y="118.94" width="11.04" height="3.59" transform="translate(19.62 280.96) rotate(-52.83)"/>
                <path class="cls-4" d="M282.83,125.81l-4,3.59,1.71,1.91,3.75-3.36c.36-.31.57,0,.78.27h0l-3.68,3.29,1.35,1.51,3.68-3.3.48.54-4,3.63,1.7,1.9,6.36-5.69-3.85-4.28A2.8,2.8,0,0,0,282.83,125.81Z"/>
                <path class="cls-4" d="M265.44,139.3a.89.89,0,0,1,.67-.47l-.55-2.06c-2,.55-2.69,1.56-2.81,2.58l-1.42.39-.32-.94-2.56.69.32.94-1,.26.72,2.64,1.14-.31,1.58,4.61,2.54-.69-1.57-4.6,1.14-.31c.67-.18,1-.08,1.14.38s-.11.79-1,1l.72,2.64c3-.81,3.64-2.22,3.12-4.14l-.16-.59A2.8,2.8,0,0,0,265.44,139.3Z"/>
                <path class="cls-4" d="M205.75,123.18l1.59-1.26-2.75-3.47.43-.35-1.94-2.45-.44.34-2.75-3.46-1.58,1.26,2.74,3.46-.56.45-2.62-3.3L193.32,118l1.76,2.23a4.05,4.05,0,0,1-2.75-1.76l-1.69,1.33c1.23,1.57,2.51,2.44,3.66,2.54l-1,.81,2.17,2.74,1-.81c-.17,1.14.39,2.59,1.62,4.13l1.69-1.34a3.7,3.7,0,0,1-1.08-3.07l1.79,2.26,4.56-3.61-2.62-3.31.57-.44ZM197,120.46l-.82-1,.56-.45.82,1Zm1.85-1.47-.82-1,.57-.45.82,1Zm.91,5-.82-1,.56-.45.82,1Zm2.42-1.92-.56.45-.82-1,.56-.45Z"/>
                <g>
                  <path class="cls-4" d="M193.1,101.06l-6.88,1.26-.49-2.64,6.88-1.26Z"/>
                  <path class="cls-4" d="M210.12,50.89l-4.49-5.36,2.08-1.74,4.49,5.36Z"/>
                  <path class="cls-4" d="M187.78,90.05l-2.72-.16.38-6.19,2.71.16L188,85.6l4.28.26-.17,2.71-4.27-.26Z"/>
                  <path class="cls-4" d="M201.83,52.86l-1.9-2,4.45-4.34,1.9,2L205,49.74l3,3.06-1.94,1.89-3-3.06Z"/>
                  <path class="cls-4" d="M245.28,33.53l.16-2.71,6.2.37-.16,2.71-1.75-.11-.25,4.28-2.71-.16.26-4.28Z"/>
                  <path class="cls-4" d="M284,49l2-1.88,4.29,4.48-1.95,1.88-1.21-1.26-3.1,3-1.87-2,3.09-3Z"/>
                  <path class="cls-4" d="M192,77.75l1.54.28-1,5.71-6.88-1.25,1-5.71,1.54.28-.56,3,1.23.22.41-2.23,1.35.25-.41,2.23,1.22.22Z"/>
                  <path class="cls-4" d="M187,75.08l1.5-4.31a2.72,2.72,0,0,1,1.18-1.57,1.84,1.84,0,0,1,2.78,1.26,6,6,0,0,1,3.67-.32l-1,2.85a5.4,5.4,0,0,0-2-.27c-.46,0-.83.47-1.1,1.24l2.45.85-.89,2.57ZM189.22,73l1.28.44.15-.44c.27-.77.13-1-.28-1.18a.77.77,0,0,0-.52,0,1.22,1.22,0,0,0-.44.65Z"/>
                  <path class="cls-4" d="M201.36,60.67l-1.64,2.15-4.1-6.16,2.67-3.51,7,2.3-1.64,2.16-1.19-.4-1.84,2.42Zm-1.67-2.49,1.15-1.52-2.76-.88Z"/>
                  <path class="cls-4" d="M228.71,40.38l-2.61.74.42-7.39,4.24-1.2L235,38.6l-2.61.74-.7-1-2.93.83Zm.15-3,1.84-.52L229,34.51Z"/>
                  <path class="cls-4" d="M215.12,47.1a3.43,3.43,0,0,1-2.74,0,3.53,3.53,0,0,1-1.92-2,3.58,3.58,0,1,1,6.65-2.66,3.51,3.51,0,0,1,0,2.77A3.45,3.45,0,0,1,215.12,47.1Zm-1.85-4.64a1.05,1.05,0,0,0-.62.62,1.29,1.29,0,0,0,.63,1.58,1.08,1.08,0,0,0,.88,0,1.1,1.1,0,0,0,.63-.62,1.2,1.2,0,0,0,0-.91,1.18,1.18,0,0,0-.61-.68A1.08,1.08,0,0,0,213.27,42.46Z"/>
                  <path class="cls-4" d="M254.66,39a3.46,3.46,0,0,1-2.2-1.64,3.5,3.5,0,0,1-.39-2.74,3.54,3.54,0,0,1,1.64-2.22,3.62,3.62,0,0,1,4.93,1.24,3.56,3.56,0,0,1,.38,2.73,3.52,3.52,0,0,1-1.63,2.23A3.47,3.47,0,0,1,254.66,39Zm1.22-4.84a1,1,0,0,0-.86.13,1.33,1.33,0,0,0-.42,1.65,1.05,1.05,0,0,0,.7.53,1,1,0,0,0,.86-.14,1.1,1.1,0,0,0,.53-.74,1.14,1.14,0,0,0-.11-.91A1,1,0,0,0,255.88,34.14Z"/>
                  <path class="cls-4" d="M275.43,47.66a3.46,3.46,0,0,1-1.71-2.15,3.55,3.55,0,0,1,.34-2.75A3.49,3.49,0,0,1,276.2,41a3.4,3.4,0,0,1,2.73.31,3.46,3.46,0,0,1,1.71,2.15,3.4,3.4,0,0,1-.33,2.73,3.57,3.57,0,0,1-4.88,1.43Zm2.42-4.37a1,1,0,0,0-.86-.09,1.21,1.21,0,0,0-.71.59,1.24,1.24,0,0,0-.12.9,1.08,1.08,0,0,0,.53.69,1.1,1.1,0,0,0,.88.1,1.31,1.31,0,0,0,.83-1.5A1.08,1.08,0,0,0,277.85,43.29Z"/>
                  <path class="cls-4" d="M287.79,59.92A3.61,3.61,0,1,1,294,57.45a3.61,3.61,0,0,1-6.19,2.47Zm3.59-3.48a1.1,1.1,0,0,0-.81-.35,1.2,1.2,0,0,0-.84.37,1.22,1.22,0,0,0-.39.82,1.06,1.06,0,0,0,.33.82,1.1,1.1,0,0,0,.8.35,1.27,1.27,0,0,0,.84-.36,1.29,1.29,0,0,0,.39-.83A1.09,1.09,0,0,0,291.38,56.44Z"/>
                  <path class="cls-4" d="M297.62,88.67a3.37,3.37,0,0,1,.62-2.67,3.62,3.62,0,0,1,5-.84,3.44,3.44,0,0,1,1.45,2.33,3.49,3.49,0,0,1-.61,2.68,3.66,3.66,0,0,1-5.05.84A3.43,3.43,0,0,1,297.62,88.67Zm4.92-.82a1,1,0,0,0-.47-.74,1.17,1.17,0,0,0-.89-.18,1.21,1.21,0,0,0-.79.46,1,1,0,0,0-.2.85,1.08,1.08,0,0,0,.47.75,1.22,1.22,0,0,0,.89.18,1.25,1.25,0,0,0,.79-.46A1.1,1.1,0,0,0,302.54,87.85Z"/>
                  <path class="cls-4" d="M235.57,38.43l-.89-6.93,2.7-.35.66,5.19L241.1,36l.22,1.75Z"/>
                  <path class="cls-4" d="M263.66,33.86l-.77,2.21A2.2,2.2,0,0,0,264.8,36a2.91,2.91,0,0,0,.92-1.43l2.8,1a5.6,5.6,0,0,1-1,1.88,3.79,3.79,0,0,1-1.67.88,4.69,4.69,0,0,1,.58,3.91l-3-1c.54-1.7.07-2.65-1.24-3.14l-.84,2.42-2.56-.89L261.1,33Z"/>
                  <path class="cls-4" d="M270.75,44.63l-2.39-1.28,1.44-2.69-.6-4.79,2.43,1.3.15,2.65,2.28-1.35,2.44,1.29-4.31,2.17Z"/>
                  <path class="cls-4" d="M291.83,66.38,290.52,64l2.67-1.48,2.1-4.34,1.33,2.41-1.31,2.31L298,63l1.34,2.41-4.8-.53Z"/>
                  <path class="cls-4" d="M302.13,74l-2,0a3.46,3.46,0,0,0,.19-2c-.06-.19-.12-.52-.46-.54s-.65.1-.57,1.4a4.62,4.62,0,0,1-.13,1.35,1.67,1.67,0,0,1-.41.83,1.74,1.74,0,0,1-.81.51,1.94,1.94,0,0,1-1.9-.23,4.37,4.37,0,0,1-1.38-2.16,9.26,9.26,0,0,1-.58-3.26h2.13c-.1.29-.2.89-.31,1.45s.12,1.05.39,1.11.68.05.68-1.26a7,7,0,0,1,.1-1,2,2,0,0,1,1.21-1.38,2,2,0,0,1,1.94.22,4.12,4.12,0,0,1,1.43,2.07A8.57,8.57,0,0,1,302.13,74Z"/>
                  <path class="cls-4" d="M297.52,95.63l.25-2.08L305,91.92l-.31,2.61-3.35.81L304.41,97l-.16,1.36-3.36.9,3.08,1.52-.31,2.62L297,100.19l.24-2.06,3.28-.93Z"/>
                  <path class="cls-4" d="M192,90.63,192.2,93l-2.65,2.22,2.77-.18.16,2.48-7,.46-.14-2.14,2.8-2.37-2.94.19L185,91.09Z"/>
                  <path class="cls-4" d="M296.52,79.61,296,76.74l6.91-1.26.52,2.87-2.54.46.37,2,2.54-.46.48,2.69-6.92,1.25-.48-2.69,2.56-.46-.36-2Z"/>
                  <path class="cls-4" d="M199.52,63.41l-1.08,2.09L195,66l2.46,1.27-1.13,2.21-6.27-3.22,1-1.91,3.63-.59-2.62-1.35,1.16-2.27Z"/>
                  <path class="cls-4" d="M225.53,41.36l-2.13,1-3-1.65,1.18,2.51-2.25,1.06-3-6.37,1.93-.91,3.24,1.73-1.26-2.67L222.52,35Z"/>
                </g>
                <g>
                  <path class="cls-4" d="M205.73,131.82,204,130.39a1.21,1.21,0,0,1-1.83-.11l-1.37,1.64C202.93,133.82,204.48,133.43,205.73,131.82Z"/>
                  <path class="cls-4" d="M203.48,129.07l3.08,2.55-2.49,3,2.72,2.26,2.49-3,3.09,2.57,3.29-3.95-8.91-7.39Zm4.11-.43,4.44,3.69-.5.59-4.43-3.68Z"/>
                  <polygon class="cls-4" points="214.17 127.68 214.53 127.26 212.11 125.25 211.76 125.68 208.34 122.85 207.04 124.42 216.28 132.08 217.58 130.51 214.17 127.68"/>
                  <path class="cls-4" d="M211,136.17l-1.73-1.43c-1.35,1.52-1.44,3.12.81,4.85l1.37-1.65A1.2,1.2,0,0,1,211,136.17Z"/>
                </g>
              </g>
            </g>
          </g>
          <g>
            <path class="cls-4" d="M226.21,68.08v-3h2.42a12.8,12.8,0,0,0,0-1.37h-2V60.83h12.76v2.89H237.5v1.37h2.44v3H237.5v5.46h-3.69V68.08H232a9.09,9.09,0,0,1-3.28,6,8.28,8.28,0,0,0-3.17-2.15v2.21h-4.19V50.64h11.13V60h-6.94V71.8a5.82,5.82,0,0,0,2.75-3.72Zm2.4-13.8v-.86h-3.18v.86Zm-3.18,2.16v.91h3.18v-.91Zm8.38,7.28h-1.56v1.37h1.56Zm10.84-13.08V70.87c0,3-2.11,3.22-5.31,3.22A9.17,9.17,0,0,0,238.17,70a6.87,6.87,0,0,0,1.54.18c.39,0,.86,0,.86-.73V60h-7V50.64Zm-4.08,3.64v-.86h-3.15v.86Zm-3.15,2.16v.91h3.15v-.91Z"/>
            <path class="cls-4" d="M265.55,61.92v1h4.11v2.73h-4.11v1h4.11v2.73h-4.11v1h5.36v3.17H259.05v.55h-4V65.15c-.31.31-.33.36-.65.65A10.59,10.59,0,0,0,253.2,64V74.09H249V62.39c-.26.31-.39.44-.71.81a8,8,0,0,0-2.26-3.72,24.87,24.87,0,0,0,4.81-9.75L255,50.9v-.52l3.82.2c.36,0,.6.08.6.37s-.13.36-.55.6v2.13h1.59V50l4,.21c.39,0,.65.1.65.36s-.21.5-.63.57v2.5h1.82V50.46l4.16.2c.18,0,.57,0,.57.37s-.23.41-.64.57v5.23h-6.61l2.5.78c.23.07.44.2.44.39s-.42.36-.63.39l-.44.75h5v2.78Zm-12.35-.49a17.74,17.74,0,0,0,3.3-4.6H255v-5.1l-.21.05c-.24.52-1.33,3.1-1.59,3.67.34.08.65.26.65.49s-.31.44-.65.57Zm5.85.49v1h2.68v-1Zm0,3.72v1h2.68v-1Zm2.68,4.73v-1h-2.68v1Zm-.6-11.23a11.7,11.7,0,0,0,1.25-2.31h-3.22l1.4.52c.16,0,.39.23.39.41,0,.34-.39.42-.73.44-.08.16-.44.81-.52.94Z"/>
            <path class="cls-4" d="M218.31,84.82l.16.13v-1.9h4.81V80.22l4.31.16c.26,0,.52.15.52.36s-.28.42-.62.55v1.76h4.45v3.67h-4.45v1.82h4v3.54H219.3V88.54h4V86.72h-4.81V85.47a1.14,1.14,0,0,1-.71.08c-.8,1.17-2.13,2.89-2.67,3.54l2.44-.89a29.39,29.39,0,0,1,1.82,5.07,17.45,17.45,0,0,0-3,1.25c0-.18-.19-1-.24-1.12-.73.11-.8.11-1,.16v10.61h-3.88V96.06a.65.65,0,0,1-.39.2,33.8,33.8,0,0,1-.8,6.24,15.07,15.07,0,0,0-2.91-.78,26.56,26.56,0,0,0,1-6.65l2.65.44.41.1V94.08l-2.34.31c-.07.21-.2.52-.46.52s-.42-.34-.45-.49L207.49,91c.63,0,.76,0,1.9-.05.68-.73,1.35-1.54,1.46-1.64a24.1,24.1,0,0,0-3.51-2.86l2-3c.26.15.31.2.55.36a24.19,24.19,0,0,0,2-3.87l3.38,1.56c.26.12.41.2.41.41s-.31.34-.86.34c-.67,1.14-1.3,2.11-2.34,3.56.34.26.39.31.58.47.44-.6,1.06-1.59,2.08-3.33Zm-4.65,6c.26,0,1.48-.08,1.71-.08a11.9,11.9,0,0,0-.54-1.3C214.46,89.87,214.2,90.15,213.66,90.78Zm4.7,4a21.08,21.08,0,0,0,1,5.62,15.3,15.3,0,0,0-3,1.12,42.71,42.71,0,0,1-1-6Zm5.15,8.3v1.09h-4.06V93.35h12v10.82h-4.14v-1.09Zm3.77-3.54V96.91h-3.77v2.63Z"/>
            <path class="cls-4" d="M248.08,104.14h-4.16V98.4a27,27,0,0,1-7.31,5.38,7.6,7.6,0,0,0-3.12-3.25,22.49,22.49,0,0,0,7.41-4.29H234V92.75h9.88V91.61h-7.31V80.77h18.78V91.61h-7.31v1.14H258v3.49h-7.07a19.07,19.07,0,0,0,7.49,3.9,10.08,10.08,0,0,0-3,3.35,21.09,21.09,0,0,1-7.36-5.25Zm-4.16-19.29V83.68h-3.28v1.17Zm-3.28,2.55v1.22h3.28V87.4Zm10.74-2.55V83.68h-3.3v1.17Zm-3.3,2.55v1.22h3.3V87.4Z"/>
            <path class="cls-4" d="M266.93,82.22c.21.06.44.16.44.39s-.47.47-.8.55a32,32,0,0,0-1.41,9.46,19.48,19.48,0,0,0,.18,2.79c.32-.55.73-1.25,1.07-2a20.69,20.69,0,0,0,2,2.41,12.8,12.8,0,0,0-2.11,6.87l-4,.65a40.64,40.64,0,0,1-1.32-11,43.48,43.48,0,0,1,1.4-11.47Zm12.58-.78c.24,0,.52.08.52.37s-.36.49-.65.62a13.86,13.86,0,0,0-.23,2.65,16.66,16.66,0,0,0,3.51-1l.13,4.37a22.08,22.08,0,0,1-3.64.83c0,2.71.31,5.57.34,6A14.9,14.9,0,0,1,284.14,98,37.38,37.38,0,0,0,282,102a16.27,16.27,0,0,0-2.58-1.93c-.18.91-.7,3.44-5.17,3.44-5.44,0-5.93-3.49-5.93-4.61,0-3.56,3.85-4.47,5.85-4.47a4.1,4.1,0,0,1,.83,0c-.18-2.21-.18-2.44-.28-4.6-1.9.16-3.15.16-3.46.16a15.25,15.25,0,0,1-1.69-.08l.05-4.42a16.3,16.3,0,0,0,3.07.23c.88,0,1.48,0,1.87,0,0-.78-.05-4.24-.1-4.94ZM273.66,98c-.26,0-1.43.06-1.43.89s1.2.86,1.41.86,1.79,0,1.64-1.41A4,4,0,0,0,273.66,98Z"/>
            <path class="cls-4" d="M216.8,123.48c-.44.39-2.42,2.16-2.42,3.12a.94.94,0,0,0,.52.83c1.36.65,4.74.65,5.46.65a33.16,33.16,0,0,0,9.47-1.3,39.11,39.11,0,0,0,.65,4.89,48.8,48.8,0,0,1-10.06,1c-7.28,0-10.9-1.69-10.9-5.36,0-2.63,2.21-4.58,4.24-6.21Zm12.48-8.66a37.41,37.41,0,0,0-8.34,5.28c-1.64-1.87-1.82-2.08-2.55-2.83a15.32,15.32,0,0,0,2-1.41,49.94,49.94,0,0,1-5.2.24c-1.79,0-2.62-.06-3.43-.13l-.1-4.5a43.93,43.93,0,0,0,6.91.44,33,33,0,0,0,8.3-.75Z"/>
            <path class="cls-4" d="M246.75,111.16c.42.1.47.21.47.34,0,.33-.39.38-.6.41-.23.68-.46,1.46-.75,2.16,5.3-.75,7.15-1.4,8.37-1.87.08,1,.44,3.48.65,4.34-1,.34-3.69,1.25-10.45,1.92-.44,1.1-1.2,2.86-1.35,3.23a13.42,13.42,0,0,1,6.34-1.8c6.06,0,7.7,3.83,7.7,6.4,0,2.76-1.61,5-4.63,6.4-2.34,1.06-6.24,1.32-8.89,1.32a24.13,24.13,0,0,1-3-.15,20.36,20.36,0,0,0-.88-4.42,30.08,30.08,0,0,0,4,.31c.78,0,8.48,0,8.48-3.59,0-2.24-2.21-2.24-2.89-2.24a13.45,13.45,0,0,0-8.76,3.83l-4.24-2.06a34.6,34.6,0,0,0,3.36-7,39.6,39.6,0,0,1-4.6-.11l-.11-4.73a31.62,31.62,0,0,0,6.06.47,29.2,29.2,0,0,0,.91-4.24Z"/>
            <path class="cls-4" d="M269.84,116.1c.24.08.39.18.39.39s-.18.34-.62.47a18.35,18.35,0,0,0-1.64,4.23,13,13,0,0,1,7.49-2.41c3.74,0,6.89,2.54,6.89,6.55,0,2.81-1.61,8.37-13.08,8.37a19,19,0,0,1-2.5-.13,21.43,21.43,0,0,0-.91-4.65,13.85,13.85,0,0,0,4,.44c1.46,0,7.75,0,7.75-3.88,0-1.61-1.2-2.52-2.89-2.52-.65,0-4.44,0-8.21,4l-4-1.33a71.84,71.84,0,0,1,2.81-11ZM268.41,110a31.94,31.94,0,0,1,8.92,3.06c-.65,1-1.61,2.68-2.34,4a25.92,25.92,0,0,0-8.32-3.27Z"/>
          </g>
          <polygon class="cls-4" points="297.5 147.5 297.5 127.5 307.5 137.5 297.5 147.5"/>
        </g>
      </g>
    </g>
  </g>
</svg>
