<svg xmlns="http://www.w3.org/2000/svg" viewBox="0 0 980 119"><defs><style>.cls-1{fill:#231815;}.cls-2{fill:#0b308e;}.cls-3{fill:#fff;}</style></defs><g id="レイヤー_2" data-name="レイヤー 2"><g id="レイヤー_2-2" data-name="レイヤー 2"><path class="cls-1" d="M90.51,92.91H83.1V94h6.3v6.79h-5a16.22,16.22,0,0,0,6.35,3.58l-1.05,1.84a18.87,18.87,0,0,1-6.64-4.66v5H81.32v-5a16.39,16.39,0,0,1-6.49,4.68l-1.18-1.67a14.93,14.93,0,0,0,6.23-3.77H75.07V94h6.25V92.91H73.86V91.22h7.46V89.81H83.1v1.41h7.41ZM76.82,96.64h4.5V95.46h-4.5Zm0,2.64h4.5V98.05h-4.5Zm6.28-3.82v1.18h4.57V95.46Zm0,2.59v1.23h4.57V98.05Z"/><path class="cls-1" d="M94.06,104.79a14,14,0,0,0,4-3.9l1.59,1a18.49,18.49,0,0,1-4.24,4.37Zm16.86-11.7H94.26V91.27h7.31V89.75h1.93v1.52h7.42Zm-1.78,7.25H103.5v4.55a1.49,1.49,0,0,1-1.59,1.72H99l-.34-1.88h2.49c.39,0,.58,0,.58-.47v-3.92H96.06V94.42h13.08Zm-1.82-4.26H97.84v2.6h9.48Zm-.43,4.75a12.87,12.87,0,0,0,4.12,3.68l-1.25,1.6a13.16,13.16,0,0,1-4.47-4.31Z"/><path class="cls-1" d="M117.18,96.34a30.93,30.93,0,0,0,7.93-2.86l.93,1.85a42.38,42.38,0,0,1-8.86,3V102c0,1.15.25,1.29,2,1.29h4.6a26.48,26.48,0,0,0,4-.33l.13,2a27.8,27.8,0,0,1-3.69.23h-5.36c-2.34,0-3.72-.37-3.72-2.74V91.09h2Zm8.64-6.41a15.35,15.35,0,0,1,1.82,3.35l-1.28.74a14.45,14.45,0,0,0-1.73-3.42Zm2.66-.8a15.22,15.22,0,0,1,1.8,3.37l-1.28.71a15.48,15.48,0,0,0-1.71-3.43Z"/><path class="cls-1" d="M132.94,99.78a15.83,15.83,0,0,0-1.43-4.39l1.65-.44a19.46,19.46,0,0,1,1.53,4.42Zm-.14,4.57c5.78-1.22,8-3.64,9-9.91l1.94.44c-1.12,5.38-2.92,9.34-9.72,11Zm4.07-5.42a21.26,21.26,0,0,0-1.2-4.31l1.61-.35a19.84,19.84,0,0,1,1.3,4.27Z"/><path class="cls-1" d="M147.67,104.11c7-1.3,9.56-5.38,10.52-10.4h-5.8A14.89,14.89,0,0,1,148,98.26l-1.27-1.5a12.25,12.25,0,0,0,4.37-4.91h7.18l1.85,2.48c-1,4.65-3.25,9.93-11.62,11.64Zm11.77-14.3a16.21,16.21,0,0,1,2,3.24l-1.18.79a15.12,15.12,0,0,0-2-3.3Zm2.39-.68a15.64,15.64,0,0,1,2,3.29l-1.17.75a16,16,0,0,0-1.9-3.33Z"/><path class="cls-1" d="M181.38,93.84v1.9h-3v2c0,6.56-5.54,7.61-8.47,8l-.73-1.89c3.46-.4,7.19-1.37,7.19-6.12v-2h-5.66v4.59h-2V95.74h-2.87v-1.9h2.87v-3.2h2v3.2h5.66V90.57h2v3.27Z"/><path class="cls-1" d="M193.32,105.71H191.2v-7.9a29,29,0,0,1-6.62,3.24l-1-1.84a26.56,26.56,0,0,0,12.76-8.78l1.82,1.22a31,31,0,0,1-4.86,4.65Z"/><path class="cls-1" d="M211.92,100.78A36.75,36.75,0,0,0,204.39,97v8.75h-2.16V90.52h2.16v4.41A46,46,0,0,1,213,98.7Z"/><polygon class="cls-1" points="22.91 100.53 32.93 86.58 42.91 100.53 52.79 100.53 65.41 81.83 0.44 81.83 13.04 100.53 22.91 100.53"/><path class="cls-1" d="M25.77,99.06H40.06L39,97.58h-4.7l2.59-2.93-1.07-1.48H30l-1.06,1.48,2.6,2.93h-4.7Zm4.59-4.41H35.5l-2.57,2.93Z"/><rect class="cls-1" x="11.95" y="78.89" width="12.07" height="1.46"/><rect class="cls-1" x="22.91" y="75.94" width="19.99" height="1.45"/><rect class="cls-1" x="12.56" y="70.9" width="7.17" height="6.49"/><rect class="cls-1" x="41.82" y="78.89" width="12.05" height="1.46"/><rect class="cls-1" x="42.41" y="70.9" width="7.19" height="6.49"/><path class="cls-1" d="M59.08,112.09H52.79V108.3H41.45V102H38.86l-5.93,2.55L27.05,102H24.4v6.3H13.06v3.79H6.74v5.27H3.13v1.47H61.81v-1.47H59.08Zm-43.89,5.27H10.48v-3.83h4.71Zm10.39-14.85,6.06,2.58-6.06,2.6Zm-.37,14.85H20.77v-3.83h4.44Zm0-5.27H22.91v-2.32h2.34Zm11.65,5.27H29v-3.83h8Zm2.26-5.27H26.73V108.3l6.2-2.64,6.23,2.64Zm1.13-4.43-6-2.57,6-2.56Zm4.78,9.7H40.64v-3.83h4.43Zm-4.43-5.27v-2.32h2.27v2.32Zm14.73,5.27H50.65v-3.83h4.72Z"/><rect class="cls-1" x="13.06" y="102.01" width="9.86" height="4.78"/><rect class="cls-1" x="42.91" y="102.01" width="9.89" height="4.78"/><path class="cls-1" d="M25.25,99.05H39.5l-1.06-1.48H33.76l2.58-2.92-1.07-1.48h-5.8l-1.06,1.48L31,97.57H26.31Zm4.57-4.4H35l-2.56,2.92Z"/><polygon class="cls-2" points="518.57 50 0 50 0 0.95 550.15 0.95 518.57 50"/><rect class="cls-2" width="980" height="1.9"/><path class="cls-3" d="M209.51,19l-7.39,7.46,7.39,7.46-1.69,1.69-9-9.1v-.1l9-9.1Z"/><path class="cls-3" d="M229.21,33.09a47.45,47.45,0,0,0,5.18-.46c0,1,.07,2,.12,3a46.44,46.44,0,0,1-5,.31h-5.27c-4.11,0-6-1.69-6-5.44V16.89l3.73.16c-.05.28-.21.49-.73.54v7a66.25,66.25,0,0,0,10.2-4.32l2,2.79a1,1,0,0,1-.38.07,2.67,2.67,0,0,1-.4,0,81.64,81.64,0,0,1-11.42,4.26v3.17c0,1.95.87,2.6,3,2.6ZM231.55,16a18.89,18.89,0,0,1,2.65,3.26l-1.41,1A18.71,18.71,0,0,0,230.24,17Zm3.26-1.12a18.52,18.52,0,0,1,2.67,3.19l-1.38,1.05a24.36,24.36,0,0,0-2.58-3.23Z"/><path class="cls-3" d="M238.93,22.7a34.71,34.71,0,0,1,6,2.18l-1.26,2.56a34.87,34.87,0,0,0-6-2.3Zm.65,10.93c7.16-2.2,12.46-6.05,15.65-13a26.69,26.69,0,0,0,2.56,1.92A26.11,26.11,0,0,1,242.14,36a.58.58,0,0,1-.35.63Zm2.16-16.69a34.63,34.63,0,0,1,6,2.32l-1.45,2.48a32.27,32.27,0,0,0-5.91-2.48Zm10.67-.76a18.32,18.32,0,0,1,2.77,3.26l-1.43,1.08a21.42,21.42,0,0,0-2.67-3.33ZM256,14.87a22.88,22.88,0,0,1,2.77,3.21l-1.41,1.08a22,22,0,0,0-2.67-3.26Z"/><path class="cls-3" d="M274.75,20.24l2.11,1.6a.75.75,0,0,1-.61.35,41,41,0,0,1-5.51,5.51l.45.16a.7.7,0,0,1-.61.4v8.66h-3V29.76a42.76,42.76,0,0,1-7.13,3.8c-.11-.16-1.69-2.11-1.87-2.29,4.48-1.6,10.13-4.91,13-8.12H261.17V20.48H271.4a47.19,47.19,0,0,0-7-2.63l1.4-2.35a42.65,42.65,0,0,1,7.37,2.58l-1.48,2.4h2.7Zm2.94,13.18a42.52,42.52,0,0,0-6.15-4.24l1.92-2a42.42,42.42,0,0,1,6.41,4Z"/><path class="cls-3" d="M298,18.76a.69.69,0,0,1-.42.4,38.11,38.11,0,0,1-4.38,7.77,93.51,93.51,0,0,1,7.8,7.22l-2.6,2.3a73.73,73.73,0,0,0-7.16-7.2,39,39,0,0,1-8.3,7.18,15,15,0,0,0-2.18-2.26,30.31,30.31,0,0,0,12.71-13.69H282.9V17.66h12.27l.49-.16Z"/><path class="cls-3" d="M322.3,23.62h-6.45l.09,9.85c.05,3.33-2,3.33-6.61,3.33a15.65,15.65,0,0,0-.75-2.7h1.9c2.22,0,2.57,0,2.53-.71l-.07-7.57a32.09,32.09,0,0,1-8.87,7.83,10.29,10.29,0,0,0-2.07-2.2,29.79,29.79,0,0,0,9.25-7.83h-8.1V20.83h9.74l-.05-4.72,3.61.15c0,.25-.19.44-.65.49v4.08h6.48Z"/><path class="cls-3" d="M326.55,17.66a30.61,30.61,0,0,1,6.88,3.1l-1.55,2.67a33.91,33.91,0,0,0-6.71-3.21Zm-.79,15.88c7.9-2.44,13.34-7,16.06-13.49a17.47,17.47,0,0,0,2.75,1.74c-2.91,6.4-8.52,11.4-16.28,14.14a.83.83,0,0,1-.4.61Z"/><path class="cls-3" d="M349.29,29.27V17.73l3.69.19c0,.26-.24.42-.68.49V29.27ZM363.2,16.72c0,.24-.21.4-.68.47v7.34c0,5-1.64,9.6-8.23,12.32A13.14,13.14,0,0,0,352,34.67c6.21-2.37,7.43-6.27,7.43-10.16v-8Z"/><path class="cls-3" d="M367.72,24.63H387.3v2.95H368.7a1.11,1.11,0,0,1-.8.45Z"/><path class="cls-3" d="M394,19l1.69-1.69,9,9.1v.1l-9,9.1L394,33.94l7.39-7.46Z"/><path class="cls-3" d="M43.12,13.87v3.91H38c-.13.26-.43.38-1,.41-.3.57-.67,1.19-1.06,1.79h5.89V35c0,3.79-1.89,4.47-7.71,4.47a16,16,0,0,0-.83-2.62H25.76v1.64H21.53V29.16c-.37.11-.73.17-1.13.26a8.74,8.74,0,0,0-1.29-2.05V39.49H14.54V20h5.6a21.23,21.23,0,0,0-.9-2.15l.57-.08H13v-3.9H25.3V11.16l6,.3c0,.33-.3.54-1,.63v1.78Zm-24,9.83v2.68c2.65-.5,3.38-1.31,3.57-2.68ZM35,28.92v6.52h1.46c.53,0,.72-.15.72-.56v-7a6.48,6.48,0,0,1-1.39.12H33.28c-3.84,0-4-1.28-4-4.29H26.82c-.26,2.21-.89,4.06-4.43,5.19ZM24.27,17.78a16.5,16.5,0,0,1,1,2.23H30.6c.33-.72.63-1.49.89-2.23Zm6.4,15.87V32H25.76v1.61Zm4.53-8.73c.46,0,.6-.08.7-.35a8.23,8.23,0,0,0,1.25.56V23.7h-3.8c0,1.11,0,1.22.63,1.22Z"/><path class="cls-3" d="M60.64,17.81v1.66H47.83V16.11H60.64v1.43a10.13,10.13,0,0,0,2.22-4.74l3.91.69a10.94,10.94,0,0,1-2.55,5.65Zm-1,10.87V38H53.33v1h-4V28.68Zm-.07-8.32v3.22H49.42V20.36ZM49.42,27.69V24.48H59.58v3.21ZM59.52,12v3.21h-10V12ZM55.58,32H53.33v2.53h2.25Zm4.1-.95a10.56,10.56,0,0,0,2.79-5.27l4.17.74a12.6,12.6,0,0,1-3,6.29Zm12.65-2.47a4.9,4.9,0,0,0,.2,1.31,28,28,0,0,0,2-4.35l5.1,1.67c-.13.27-.49.36-1,.36a31.35,31.35,0,0,1-3,4.49l-2.72-1c.87,1.7,2.82,3.51,6.49,4.77a37.09,37.09,0,0,0-2.78,3.69,11.72,11.72,0,0,1-6.82-6.08c-.76,1.85-3.57,4.77-7.41,6.08A18.47,18.47,0,0,0,59.82,36c5.62-1.82,7.58-5.19,7.58-7.36V23.85l6,.21c0,.36-.4.6-1.06.71Zm.93-17.1c0,.33-.33.54-.89.62a31.85,31.85,0,0,1-.83,5.58,61.1,61.1,0,0,1,7.65,4.4L76,25.37a51.9,51.9,0,0,0-6.23-4.05c-1.35,1.76-3.47,3.22-6.88,4.29a11.4,11.4,0,0,0-2.65-3.4c7-2,7.25-5.36,7.48-11Zm6.22,2.71a1.09,1.09,0,0,1-1,.33,34,34,0,0,1-2.75,4.26l-3.47-1.34a27.27,27.27,0,0,0,2.22-4.89Z"/><path class="cls-3" d="M98.14,30.26c0,.3-.36.53-1,.59-.83,4-2,7.09-11.13,8.73a12.7,12.7,0,0,0-2.61-3.87c7.75-1,8.34-2.77,8.74-6ZM105.29,34c0,1,.17,1.16,1.26,1.16h2.65c1,0,1.23-.5,1.39-3.9A15,15,0,0,0,115,33c-.5,4.94-1.76,6.25-5.34,6.25h-3.84c-4.4,0-5.46-1.31-5.46-5.21V29.12H88.21V12h22.22V29.12h-5.14ZM92.84,15.54v1.19h12.68V15.54Zm0,4.41v1.22h12.68V20Zm0,4.47v1.22h12.68V24.42Z"/><path class="cls-3" d="M149.54,21.08h-9.37a27.52,27.52,0,0,0,11,10.13,20.18,20.18,0,0,0-3.74,3.93,27.84,27.84,0,0,1-5.07-3.84v3.43h-5v4.73h-5.13V34.73H127V31.66a27.23,27.23,0,0,1-4.8,3.6,25.41,25.41,0,0,0-3.51-3.6,26.72,26.72,0,0,0,10.76-10.58H120V16.67h12.15V11.16l6.16.3c0,.33-.33.54-1,.66v4.55h12.22Zm-17.35,4.2a35.32,35.32,0,0,1-3.87,5h3.87Zm5.13,5h4a34.81,34.81,0,0,1-4-5.13Z"/><path class="cls-3" d="M185.81,14.74V19h-12c0,.33-.33.54-1,.66v1.91h10.4v9.89c0,3.6-1.53,4.56-7.92,4.56a14.42,14.42,0,0,0-1.59-4.26c1.33.08,3.28.08,3.75.08s.72-.11.72-.47V25.79H172.8v13.7h-5V25.79H163V35.94h-4.9V21.56h9.67V19H155.08V14.74H167.7V11l6.23.3c0,.36-.34.57-1,.69V14.7Z"/><path class="cls-2" d="M669.5,54.26a25.47,25.47,0,0,1-5.92-15.95,25.46,25.46,0,0,1,5.92-15.94h3.73a25.12,25.12,0,0,0,0,31.89Z"/><path class="cls-2" d="M676.33,46.39a42.68,42.68,0,0,0,13.12-13.93H676.93V28.39h13.63V22.47h4.24v5.92h13.69v4.07H696c3.53,6.33,7.5,10,13.09,13.76l-2.73,4.14a35.44,35.44,0,0,1-11.57-13V54.16h-4.24V37.44a38.56,38.56,0,0,1-11.61,13Z"/><path class="cls-2" d="M712.19,54.26a25.08,25.08,0,0,0,0-31.89h3.7a25.51,25.51,0,0,1,6,15.94,25.7,25.7,0,0,1-5.92,15.95Z"/><path class="cls-2" d="M610.86,19.93h10.58V57.06h-7V26.57h-7.65Z"/><path class="cls-2" d="M644.23,19l6,3-6.5,12.61a10.81,10.81,0,0,1,8,3.38,11.55,11.55,0,0,1,3.31,8.41,11.64,11.64,0,0,1-20,8.09,11.26,11.26,0,0,1-3.34-8A12.34,12.34,0,0,1,632.3,43a35,35,0,0,1,2.39-5.34Zm-.88,22.31A4.32,4.32,0,0,0,640,42.74a5,5,0,0,0-1.34,3.56,5.05,5.05,0,0,0,1.4,3.62,4.41,4.41,0,0,0,3.27,1.46,4.57,4.57,0,0,0,3.38-1.44,5,5,0,0,0,1.42-3.64,4.9,4.9,0,0,0-1.38-3.56A4.57,4.57,0,0,0,643.35,41.31Z"/><path class="cls-2" d="M748.7,55.32l-5.09-2.52,5.51-10.73a9.21,9.21,0,0,1-6.82-2.86,9.81,9.81,0,0,1-2.81-7.13,9.88,9.88,0,0,1,16.93-6.88A9.59,9.59,0,0,1,759.26,32a10.24,10.24,0,0,1-.44,2.92,30.6,30.6,0,0,1-2,4.52Zm.75-18.93a3.7,3.7,0,0,0,2.81-1.21,4.58,4.58,0,0,0-.06-6.09,3.7,3.7,0,0,0-2.77-1.24,3.86,3.86,0,0,0-2.87,1.23,4.52,4.52,0,0,0,0,6.1A3.88,3.88,0,0,0,749.45,36.39Z"/><path class="cls-2" d="M770.57,30.64a3.35,3.35,0,0,1,0,6.7,3.27,3.27,0,0,1-2.38-1,3.16,3.16,0,0,1-1-2.36,3.35,3.35,0,0,1,3.36-3.36Zm0,17.79a3.25,3.25,0,0,1,2.37,1,3.18,3.18,0,0,1,1,2.36,3.36,3.36,0,1,1-6.72,0,3.17,3.17,0,0,1,1-2.36A3.27,3.27,0,0,1,770.57,48.43Z"/><path class="cls-2" d="M788,30.81h-5.76A9.4,9.4,0,0,1,792,22.24a9.1,9.1,0,0,1,6.5,2.47,7.71,7.71,0,0,1,2.62,5.84A6.81,6.81,0,0,1,800,34.38a8.17,8.17,0,0,1-3.33,2.81,8.46,8.46,0,0,1,4.49,3,8.1,8.1,0,0,1,1.61,5,9.5,9.5,0,0,1-3.12,7.18,11.18,11.18,0,0,1-8,2.94,10.31,10.31,0,0,1-7.47-2.77A10.84,10.84,0,0,1,781,45h5.93a6,6,0,0,0,1.7,3.63,5.21,5.21,0,0,0,6.81-.16,4.52,4.52,0,0,0-.48-6.91A8.64,8.64,0,0,0,789.58,40V34.9a9.71,9.71,0,0,0,3.23-.68,4,4,0,0,0,1.65-1.38,3.28,3.28,0,0,0,.59-1.86,2.82,2.82,0,0,0-.9-2.13,3.29,3.29,0,0,0-2.36-.85,3.78,3.78,0,0,0-2.33.78A4,4,0,0,0,788,30.81Z"/><path class="cls-2" d="M816.44,22.24a10.3,10.3,0,0,1,5.94,1.69,10.75,10.75,0,0,1,3.85,5.17,27.44,27.44,0,0,1,1.36,9.7,27.44,27.44,0,0,1-1.38,9.76,11.08,11.08,0,0,1-3.71,5.13,10,10,0,0,1-5.89,1.63,10.39,10.39,0,0,1-6-1.64,10.74,10.74,0,0,1-3.78-5c-.92-2.24-1.37-5.44-1.37-9.58q0-8.67,2.67-12.57A9.55,9.55,0,0,1,816.44,22.24Zm.14,5.7a4.08,4.08,0,0,0-2.69,1,6.27,6.27,0,0,0-1.8,3.35,29.66,29.66,0,0,0-.62,7q0,6,1.42,8.26a4.24,4.24,0,0,0,3.69,2.28A3.89,3.89,0,0,0,820,47.59q1.56-2.61,1.56-8.73c0-4.14-.47-7-1.4-8.57A4.13,4.13,0,0,0,816.58,27.94Z"/><path class="cls-2" d="M836,42.46V35.63A12.93,12.93,0,0,1,841.31,34a11.49,11.49,0,0,1,3,.46,29.66,29.66,0,0,1,4.36,1.77,16.08,16.08,0,0,0,2.33,1,5.11,5.11,0,0,0,1.48.22c1.58,0,3.42-.8,5.52-2.42V42a10.58,10.58,0,0,1-5.29,1.55,10.74,10.74,0,0,1-2.84-.39,35,35,0,0,1-4.67-1.82,23.8,23.8,0,0,0-2.75-1.08,5.68,5.68,0,0,0-1.41-.18,5.51,5.51,0,0,0-2.16.47A13.82,13.82,0,0,0,836,42.46Z"/><path class="cls-2" d="M867.72,23h9v31.5h-6V28.66h-6.49Z"/><path class="cls-2" d="M887.7,23h20.66v3.15L894.14,55.32l-5.06-2.45,11.83-24.21H887.7Z"/><path class="cls-2" d="M918.77,30.64A3.35,3.35,0,0,1,922.13,34a3.18,3.18,0,0,1-1,2.35,3.36,3.36,0,0,1-4.75,0,3.16,3.16,0,0,1-1-2.36,3.36,3.36,0,0,1,3.36-3.36Zm0,17.79a3.27,3.27,0,0,1,2.38,1,3.17,3.17,0,0,1,1,2.36,3.36,3.36,0,0,1-6.72,0,3.18,3.18,0,0,1,1-2.36A3.25,3.25,0,0,1,918.77,48.43Z"/><path class="cls-2" d="M936.23,30.81h-5.76A9.53,9.53,0,0,1,933,25.2a9.66,9.66,0,0,1,7.22-3,9.11,9.11,0,0,1,6.5,2.47,7.71,7.71,0,0,1,2.62,5.84,6.81,6.81,0,0,1-1.14,3.83,8.3,8.3,0,0,1-3.33,2.81,8.44,8.44,0,0,1,4.48,3,8,8,0,0,1,1.62,5,9.47,9.47,0,0,1-3.13,7.18,11.15,11.15,0,0,1-8,2.94,10.35,10.35,0,0,1-7.48-2.77A10.92,10.92,0,0,1,929.2,45h5.94a5.91,5.91,0,0,0,1.7,3.63,5.21,5.21,0,0,0,6.81-.16,4.52,4.52,0,0,0-.49-6.91A8.62,8.62,0,0,0,937.79,40V34.9a9.64,9.64,0,0,0,3.22-.68,3.88,3.88,0,0,0,1.65-1.38,3.28,3.28,0,0,0,.59-1.86,2.79,2.79,0,0,0-.9-2.13A3.26,3.26,0,0,0,940,28a3.83,3.83,0,0,0-2.34.78A3.9,3.9,0,0,0,936.23,30.81Z"/><path class="cls-2" d="M964.64,22.24a10.35,10.35,0,0,1,6,1.69,10.81,10.81,0,0,1,3.85,5.17,27.44,27.44,0,0,1,1.36,9.7,27.44,27.44,0,0,1-1.38,9.76,11,11,0,0,1-3.72,5.13,10,10,0,0,1-5.88,1.63,10.34,10.34,0,0,1-6-1.64,10.76,10.76,0,0,1-3.79-5,26.42,26.42,0,0,1-1.37-9.58q0-8.67,2.68-12.57A9.52,9.52,0,0,1,964.64,22.24Zm.14,5.7a4.08,4.08,0,0,0-2.69,1,6.33,6.33,0,0,0-1.79,3.35,29.13,29.13,0,0,0-.62,7q0,6,1.42,8.26a4.21,4.21,0,0,0,3.68,2.28,3.87,3.87,0,0,0,3.46-2.17q1.57-2.61,1.57-8.73c0-4.14-.47-7-1.4-8.57A4.14,4.14,0,0,0,964.78,27.94Z"/><path class="cls-2" d="M570.63,21.67l5.13,2.57L570.22,35a9.25,9.25,0,0,1,6.85,2.89,9.88,9.88,0,0,1,2.82,7.18,9.95,9.95,0,0,1-19.89.06,10.44,10.44,0,0,1,.44-3,30.16,30.16,0,0,1,2-4.57Zm-.76,19a3.72,3.72,0,0,0-2.82,1.22,4.59,4.59,0,0,0,.05,6.13,3.77,3.77,0,0,0,2.79,1.25,3.92,3.92,0,0,0,2.89-1.23A4.26,4.26,0,0,0,574,45a4.19,4.19,0,0,0-1.18-3.05A3.91,3.91,0,0,0,569.87,40.72Z"/><path class="cls-2" d="M586.26,55l11.07-29.75h3.27L589.52,55Z"/><path class="cls-2" d="M669.51,115.45a24.43,24.43,0,0,1,0-31.89h3.73a25.08,25.08,0,0,0,0,31.89Z"/><path class="cls-2" d="M682.93,94.25c-1.79.94-3.06,1.52-4.27,2.06l-2.19-4c5.31-1.88,10.09-4.34,14.2-8.64h4A40.29,40.29,0,0,0,709,92.4l-2.19,4.11c-.88-.4-1.82-.84-4.2-2.12v2.12h-7.81v3h12.48v3.8H694.77v7.2h2.52a50.17,50.17,0,0,0,2.33-6.66l4.27,1.1a44.18,44.18,0,0,1-2.26,5.56H708v3.83H677.45v-3.83h6a31.65,31.65,0,0,0-2.12-5.39l4.11-1.21a37.51,37.51,0,0,1,2.42,6.6h2.76v-7.2H678.15v-3.8h12.52v-3h-7.74Zm16.79-1.51a42.31,42.31,0,0,1-7.1-5.62,38.27,38.27,0,0,1-7,5.62Z"/><path class="cls-2" d="M712.2,115.45a25.08,25.08,0,0,0,0-31.89h3.7a24.39,24.39,0,0,1,0,31.89Z"/><path class="cls-2" d="M748.7,115.91l-5.09-2.53,5.51-10.72a9.22,9.22,0,0,1-6.82-2.87,9.77,9.77,0,0,1-2.81-7.12,9.89,9.89,0,0,1,19.77-.07,10.24,10.24,0,0,1-.44,2.92,30.14,30.14,0,0,1-2,4.53ZM749.45,97a3.7,3.7,0,0,0,2.81-1.21,4.58,4.58,0,0,0-.06-6.09,3.7,3.7,0,0,0-2.77-1.24,3.86,3.86,0,0,0-2.87,1.23,4.52,4.52,0,0,0,0,6.1A3.88,3.88,0,0,0,749.45,97Z"/><path class="cls-2" d="M770.57,91.22a3.35,3.35,0,1,1,0,6.7,3.26,3.26,0,0,1-2.38-1,3.36,3.36,0,0,1,0-4.74A3.24,3.24,0,0,1,770.57,91.22Zm0,17.8a3.24,3.24,0,0,1,2.37,1,3.2,3.2,0,0,1,1,2.37,3.36,3.36,0,1,1-6.72,0,3.19,3.19,0,0,1,1-2.37A3.26,3.26,0,0,1,770.57,109Z"/><path class="cls-2" d="M788,91.39h-5.76A9.38,9.38,0,0,1,792,82.83a9.13,9.13,0,0,1,6.5,2.46,7.75,7.75,0,0,1,2.62,5.85A6.83,6.83,0,0,1,800,95a8.17,8.17,0,0,1-3.33,2.81,8.5,8.5,0,0,1,4.49,3,8.13,8.13,0,0,1,1.61,5,9.5,9.5,0,0,1-3.12,7.18,11.18,11.18,0,0,1-8,2.94,10.31,10.31,0,0,1-7.47-2.77,10.88,10.88,0,0,1-3.17-7.55h5.93a6,6,0,0,0,1.7,3.63,5.21,5.21,0,0,0,6.81-.16,4.52,4.52,0,0,0-.48-6.91,8.57,8.57,0,0,0-5.38-1.52V95.49a9.71,9.71,0,0,0,3.23-.68,4.08,4.08,0,0,0,1.65-1.38,3.33,3.33,0,0,0,.59-1.87,2.82,2.82,0,0,0-.9-2.12,3.29,3.29,0,0,0-2.36-.85,3.78,3.78,0,0,0-2.33.78A4,4,0,0,0,788,91.39Z"/><path class="cls-2" d="M816.44,82.83a10.3,10.3,0,0,1,5.94,1.69,10.7,10.7,0,0,1,3.85,5.17,27.42,27.42,0,0,1,1.36,9.69,27.51,27.51,0,0,1-1.38,9.77,11,11,0,0,1-3.71,5.12,10,10,0,0,1-5.89,1.64,10.32,10.32,0,0,1-6-1.65,10.66,10.66,0,0,1-3.78-5,26.24,26.24,0,0,1-1.37-9.58q0-8.67,2.67-12.57A9.55,9.55,0,0,1,816.44,82.83Zm.14,5.7a4.08,4.08,0,0,0-2.69,1,6.27,6.27,0,0,0-1.8,3.35,29.66,29.66,0,0,0-.62,7q0,6,1.42,8.25a4.25,4.25,0,0,0,3.69,2.29,3.89,3.89,0,0,0,3.46-2.17q1.56-2.61,1.56-8.74c0-4.13-.47-7-1.4-8.56A4.13,4.13,0,0,0,816.58,88.53Z"/><path class="cls-2" d="M836,103.05V96.22a12.93,12.93,0,0,1,5.35-1.59,11.09,11.09,0,0,1,3,.46,28.57,28.57,0,0,1,4.36,1.77,17.37,17.37,0,0,0,2.33,1,5.11,5.11,0,0,0,1.48.22q2.37,0,5.52-2.42v6.89a10.57,10.57,0,0,1-5.29,1.54,10.72,10.72,0,0,1-2.84-.38,36.51,36.51,0,0,1-4.67-1.82,23.8,23.8,0,0,0-2.75-1.08,5.7,5.7,0,0,0-1.41-.19,5.35,5.35,0,0,0-2.16.48A13.82,13.82,0,0,0,836,103.05Z"/><path class="cls-2" d="M867.72,83.62h9v31.5h-6V89.25h-6.49Z"/><path class="cls-2" d="M887.7,83.62h20.66v3.15l-14.22,29.14-5.06-2.46,11.83-24.2H887.7Z"/><path class="cls-2" d="M918.77,91.22a3.36,3.36,0,0,1,3.36,3.37,3.18,3.18,0,0,1-1,2.35,3.38,3.38,0,0,1-4.75,0,3.36,3.36,0,0,1,2.37-5.73Zm0,17.8a3.26,3.26,0,0,1,2.38,1,3.19,3.19,0,0,1,1,2.37,3.23,3.23,0,0,1-1,2.38,3.37,3.37,0,0,1-5.74-2.38,3.2,3.2,0,0,1,1-2.37A3.24,3.24,0,0,1,918.77,109Z"/><path class="cls-2" d="M940.08,82.83A10.3,10.3,0,0,1,946,84.52a10.72,10.72,0,0,1,3.86,5.17,27.65,27.65,0,0,1,1.36,9.69,27.51,27.51,0,0,1-1.38,9.77,10.94,10.94,0,0,1-3.72,5.12,9.94,9.94,0,0,1-5.89,1.64,10.26,10.26,0,0,1-6-1.65,10.68,10.68,0,0,1-3.79-5,26.46,26.46,0,0,1-1.37-9.58q0-8.67,2.68-12.57A9.52,9.52,0,0,1,940.08,82.83Zm.14,5.7a4.08,4.08,0,0,0-2.69,1,6.41,6.41,0,0,0-1.8,3.35,29.66,29.66,0,0,0-.62,7c0,4,.48,6.73,1.42,8.25a4.25,4.25,0,0,0,3.69,2.29,3.88,3.88,0,0,0,3.46-2.17q1.56-2.61,1.56-8.74c0-4.13-.46-7-1.4-8.56A4.13,4.13,0,0,0,940.22,88.53Z"/><path class="cls-2" d="M964.64,82.83a10.35,10.35,0,0,1,6,1.69,10.77,10.77,0,0,1,3.85,5.17,27.42,27.42,0,0,1,1.36,9.69,27.51,27.51,0,0,1-1.38,9.77,10.94,10.94,0,0,1-3.72,5.12,9.91,9.91,0,0,1-5.88,1.64,10.27,10.27,0,0,1-6-1.65,10.68,10.68,0,0,1-3.79-5,26.46,26.46,0,0,1-1.37-9.58q0-8.67,2.68-12.57A9.52,9.52,0,0,1,964.64,82.83Zm.14,5.7a4.08,4.08,0,0,0-2.69,1,6.33,6.33,0,0,0-1.79,3.35,29.13,29.13,0,0,0-.62,7q0,6,1.42,8.25a4.22,4.22,0,0,0,3.68,2.29,3.87,3.87,0,0,0,3.46-2.17q1.57-2.61,1.57-8.74c0-4.13-.47-7-1.4-8.56A4.14,4.14,0,0,0,964.78,88.53Z"/><path class="cls-2" d="M610.87,80.94h10.57v37.13h-7V87.58h-7.65Z"/><path class="cls-2" d="M632.35,80.94H656.7v3.71L639.94,119l-6-2.9,13.95-28.52H632.35Z"/><path class="cls-2" d="M570.63,83l5.13,2.57L570.22,96.3a9.21,9.21,0,0,1,6.85,2.89,9.84,9.84,0,0,1,2.82,7.17,9.94,9.94,0,0,1-17,6.91,9.59,9.59,0,0,1-2.86-6.84,10.51,10.51,0,0,1,.44-3,30.16,30.16,0,0,1,2-4.57ZM569.87,102a3.74,3.74,0,0,0-2.82,1.21,4.59,4.59,0,0,0,.05,6.13,3.74,3.74,0,0,0,2.79,1.26,3.92,3.92,0,0,0,2.89-1.23,4.28,4.28,0,0,0,1.21-3.1,4.2,4.2,0,0,0-1.18-3.06A3.94,3.94,0,0,0,569.87,102Z"/><path class="cls-2" d="M586.26,116.33l11.07-29.76h3.27l-11.08,29.76Z"/></g></g></svg>