<svg xmlns="http://www.w3.org/2000/svg" width="78" height="40" viewBox="0 0 78 40"><g transform="translate(17001 13523)"><rect width="78" height="40" rx="4" transform="translate(-17001 -13523)" fill="#fff"/><g transform="translate(-16993 -13517)"><path data-name="パス 152" d="M120.1,74.016a2.882,2.882,0,0,0-2.32-1.114,2.671,2.671,0,0,0-2.707,2.8,2.62,2.62,0,0,0,2.747,2.746,3.039,3.039,0,0,0,2.281-1.073v3.152a7.325,7.325,0,0,1-2.329.477,5.7,5.7,0,0,1-3.807-1.485,4.909,4.909,0,0,1-1.641-3.827,5.255,5.255,0,0,1,1.5-3.7,5.5,5.5,0,0,1,3.867-1.639,6.225,6.225,0,0,1,2.411.513v3.15" transform="translate(-84.527 -53.008)" fill="#231815"/><path data-name="パス 153" d="M151.931,73.557v1.684h2.977v2.228h-2.977v1.744h3.133v2.22h-5.775V71.324h5.775v2.233h-3.133" transform="translate(-112.35 -53.739)" fill="#231815"/><path data-name="パス 154" d="M183.269,72.489a2.759,2.759,0,0,0-1.755-.679c-.466,0-1.126.285-1.126.853,0,.59.711.822,1.167.968l.678.2c1.416.409,2.509,1.126,2.509,2.759a3.388,3.388,0,0,1-1.06,2.716,4.41,4.41,0,0,1-2.877.955,6.282,6.282,0,0,1-3.562-1.15l1.128-2.118a3.559,3.559,0,0,0,2.347,1.045c.62,0,1.262-.3,1.262-1.016,0-.741-1.026-1-1.593-1.154-1.653-.47-2.744-.9-2.744-2.851a3.286,3.286,0,0,1,3.5-3.4,6.991,6.991,0,0,1,3.168.829l-1.047,2.041" transform="translate(-133.388 -52.455)" fill="#231815"/><path data-name="パス 155" d="M214.143,76.922h-2.188l1.089-3.218h.022l1.077,3.218Zm.718,2,.666,1.762h2.8l-3.815-10.112h-2.88l-3.906,10.112h2.8l.707-1.762h3.629" transform="translate(-156.328 -53.176)" fill="#231815"/><path data-name="パス 156" d="M15.968,15.926l-4.434-4.414L15.968,7.1,11.534,2.681,7.11,7.1,2.679,11.512,7.11,15.926l4.424,4.413Z" transform="translate(-2.016 -2.02)" fill="#0081c8"/><path data-name="パス 157" d="M9.518,18.979,0,9.492,9.518,0l5.1,5.079L10.181,9.492l4.433,4.414-5.1,5.073ZM1.326,9.492l8.193,8.166,3.77-3.752L8.855,9.492l4.434-4.413L9.519,1.322Z" fill="#231815"/><path data-name="パス 158" d="M47.326,11.512h0L51.757,7.1,47.326,2.681,42.9,7.1l-4.434,4.413,3.682,3.669.751.745-4.434,4.413,3.622,3.6,5.236,5.233,4.431-4.411-4.431-4.418,4.431-4.413Z" transform="translate(-28.95 -2.02)" fill="#fbdc00"/><path data-name="パス 159" d="M45.307,27.809,39.74,22.244l-3.954-3.925,4.433-4.412-.418-.414-4.015-4L45.308,0,50.4,5.08l-4.43,4.412L50.4,13.906l-4.431,4.413L50.4,22.737l-5.094,5.072Zm-8.194-9.491L40.4,21.583l4.906,4.9,3.767-3.75-4.431-4.418,4.43-4.412L44.645,9.492l4.431-4.413L45.308,1.322l-8.2,8.17,4.434,4.413-4.434,4.413Z" transform="translate(-26.931)" fill="#231815"/><path data-name="パス 160" d="M83.663,10.989l3.9-3.89L83.134,2.681,78.7,7.1l-4.431,4.413L78.7,15.926l-4.431,4.413L78.7,24.757l4.434-4.418.7-.7,3.728-3.713-4.427-4.414Z" transform="translate(-55.892 -2.02)" fill="#df3a38"/><path data-name="パス 161" d="M76.682,23.4l-5.093-5.079,4.43-4.412L71.589,9.492,81.117,0l5.088,5.079L81.781,9.493l4.425,4.412L76.682,23.4Zm-3.768-5.078,3.768,3.757,8.2-8.171L80.453,9.49l.863-.852,3.566-3.559L81.117,1.321l-8.2,8.17,4.431,4.414-4.431,4.413Z" transform="translate(-53.875)" fill="#231815"/><path data-name="パス 162" d="M123.381,7.1l-.991-.98-3.444-3.439L114.811,6.8l-4.716,4.708,4.427,4.414,4.424-4.414,4.435,4.414,4.428-4.414Z" transform="translate(-82.854 -2.02)" fill="#9cc551"/><path data-name="パス 163" d="M112.508,14.567l-5.089-5.074L116.932,0l9.525,9.492-5.09,5.074-4.435-4.414-4.425,4.414Zm4.424-5.735,4.435,4.414,3.765-3.753-8.2-8.17-8.188,8.17,3.764,3.753,4.424-4.413Z" transform="translate(-80.84)" fill="#231815"/></g></g></svg>