<svg xmlns="http://www.w3.org/2000/svg" width="54.297mm" height="48.071mm" viewBox="0 0 153.912 136.263">
  <defs>
    <style>
      .cls-1 {
        fill: #231815;
      }

      .cls-2 {
        fill: #fce4d6;
      }

      .cls-3, .cls-4 {
        fill: #e60012;
      }

      .cls-4 {
        stroke: #e60012;
        stroke-miterlimit: 10;
        stroke-width: 0.25px;
      }
    </style>
  </defs>
  <g id="レイヤー_2" data-name="レイヤー 2">
    <g id="レイヤー_1-2" data-name="レイヤー 1">
      <path class="cls-1" d="M62.528,130.4a.319.319,0,0,0,.343-.277v-7.046a.319.319,0,0,0-.343-.273H52.377a.318.318,0,0,0-.342.273v1.18a.343.343,0,0,0,.342.286h8.4V128.7h-8.4c-.182,0-.342.105-.342.262v7.044c0,.136.16.257.342.257H62.528c.183,0,.343-.121.343-.257v-1.141a.325.325,0,0,0-.343-.31H54.135V130.4Z"/>
      <path class="cls-1" d="M92.563,130.4a.319.319,0,0,0,.343-.277v-7.046a.32.32,0,0,0-.343-.273H82.412a.32.32,0,0,0-.343.273v1.18a.344.344,0,0,0,.343.286h8.4V128.7h-8.4c-.182,0-.343.105-.343.262v7.044c0,.136.161.257.343.257H92.563c.182,0,.343-.121.343-.257v-1.141a.326.326,0,0,0-.343-.31H84.17V130.4Z"/>
      <path class="cls-1" d="M77.439,122.8H67.309a.309.309,0,0,0-.343.273v12.93c0,.136.145.257.343.257h10.13c.2,0,.364-.121.364-.257v-12.93C77.8,122.926,77.642,122.8,77.439,122.8ZM75.7,124.542v10.013H69.077V124.542Z"/>
      <path class="cls-1" d="M96.883,122.8a.306.306,0,0,0-.332.264v1.211a.305.305,0,0,0,.332.264h2.884V136a.316.316,0,0,0,.343.264h1.436a.305.305,0,0,0,.332-.264v-12.93a.306.306,0,0,0-.332-.264Z"/>
      <path class="cls-1" d="M110.1,106.622h-2.315l.626-1.273a.441.441,0,0,0-.207-.575l-1.559-.766a.434.434,0,0,0-.579.2l-.762,1.563a.428.428,0,0,0,.2.575l.574.279h-2.506V104.44a.438.438,0,0,0-.439-.432h-1.734a.435.435,0,0,0-.43.432v2.182H98.729a.439.439,0,0,0-.441.433v1.738a.439.439,0,0,0,.441.432h2.234v5.656a.436.436,0,0,0,.43.432h1.734a.439.439,0,0,0,.439-.432v-5.656h4.368v1.49h-2.2a.431.431,0,0,0-.436.431v1.737a.434.434,0,0,0,.436.431h4.36a.431.431,0,0,0,.435-.431v-5.828A.434.434,0,0,0,110.1,106.622Z"/>
      <path class="cls-1" d="M93.147,101.359a.437.437,0,0,0,.432-.435V99.191a.438.438,0,0,0-.432-.439H86.441V95.345a.435.435,0,0,0-.426-.434H84.273a.435.435,0,0,0-.426.434v3.407H80.128a.437.437,0,0,0-.437.439v1.733a.436.436,0,0,0,.437.435h3.719v4.769a.434.434,0,0,0,.426.438h6.678V112.7H84.273a.435.435,0,0,0-.426.442v1.73a.432.432,0,0,0,.426.43l8.846.008a.439.439,0,0,0,.442-.432V104.4a.444.444,0,0,0-.442-.443H86.441v-2.6Z"/>
      <path class="cls-1" d="M76.7,110.51a.438.438,0,0,0-.433-.434h-1.73a.432.432,0,0,0-.434.434v2.2H67.9v-6.141h5.455a.435.435,0,0,0,.43-.438V104.4a.439.439,0,0,0-.43-.443H67.9v-2.6h5.455a.434.434,0,0,0,.43-.435V99.191a.435.435,0,0,0-.43-.439H67.9V95.345a.438.438,0,0,0-.43-.434H65.725a.438.438,0,0,0-.432.434v3.407H61.632a.438.438,0,0,0-.432.439v1.733a.437.437,0,0,0,.432.435h3.661v2.6H61.632a.442.442,0,0,0-.432.443v1.728a.438.438,0,0,0,.432.438h3.661v8.315a.437.437,0,0,0,.432.432H76.264a.438.438,0,0,0,.433-.432Z"/>
      <path class="cls-1" d="M55.413,97.437,52.64,94.911a.433.433,0,0,0-.61.03l-1.168,1.283a.439.439,0,0,0,.028.614L53,98.752H48.959V95.345a.44.44,0,0,0-.439-.434H46.787a.442.442,0,0,0-.435.434v3.407H41.413a.435.435,0,0,0-.427.439v1.733a.434.434,0,0,0,.427.435h4.939v3.7H41.4a.4.4,0,0,0-.16.032.436.436,0,0,0-.27.4v9.385a.436.436,0,0,0,.43.432H48.52a.438.438,0,0,0,.439-.432v-7.215h4.614v5.041H52a.431.431,0,0,0-.43.438v1.736a.43.43,0,0,0,.43.432h3.751a.441.441,0,0,0,.437-.432V105.5a.437.437,0,0,0-.268-.4.445.445,0,0,0-.169-.032H48.959v-3.7h6.8a.437.437,0,0,0,.43-.435V99.191a.438.438,0,0,0-.43-.439H54.8l.643-.7A.426.426,0,0,0,55.413,97.437Zm-9.061,15.27h-2.78v-5.041h2.78Z"/>
      <path class="cls-1" d="M13.95,96.894h-.006a.436.436,0,0,0-.432-.432H.428A.433.433,0,0,0,0,96.894v17.884a.43.43,0,0,0,.428.431l13.033-.006c.019,0,.033.006.051.006a.434.434,0,0,0,.432-.431v-.016h.006Zm-2.61,7.466H5.261a.434.434,0,0,0-.434.434v1.734h0a.427.427,0,0,0,.434.432H11.34v5.634H2.618V99.086H11.34Z"/>
      <path class="cls-1" d="M139.592,97.163h1.738a.432.432,0,0,0,.43-.438V95.278a.43.43,0,0,0-.43-.432h-1.738a.432.432,0,0,0-.434.432v1.447A.434.434,0,0,0,139.592,97.163Zm8.685,0H150a.44.44,0,0,0,.443-.438V95.278a.437.437,0,0,0-.438-.432h-1.726a.438.438,0,0,0-.443.432v1.447A.44.44,0,0,0,148.277,97.163Zm1.734,6.38a.43.43,0,0,0,.438-.43v-2.607a.438.438,0,0,0-.438-.434H139.63a.432.432,0,0,0-.432.434v2.607a.424.424,0,0,0,.432.43Zm-8.466-2.249h6.543v1.024h-6.543Zm11.937-3.539H146.1V95.278a.431.431,0,0,0-.431-.432h-1.73a.434.434,0,0,0-.438.432v2.477h-7.343a.443.443,0,0,0-.439.434v3.773a.444.444,0,0,0,.439.439h1.736a.439.439,0,0,0,.434-.439V99.344h12.989v2.618a.434.434,0,0,0,.434.439h1.734a.432.432,0,0,0,.43-.439V98.189A.43.43,0,0,0,153.482,97.755Zm-2.413,6.54H138.407a.432.432,0,0,0-.438.427v7.389a.437.437,0,0,0,.438.435h2.022l-1.815,1.387a.434.434,0,0,0-.076.61l1.052,1.374h0a.43.43,0,0,0,.607.08l2.066-1.585a.44.44,0,0,0,.085-.607l-.968-1.259h6.712l-.964,1.259a.43.43,0,0,0,.077.607L149.266,116a.445.445,0,0,0,.62-.08l1.052-1.374a.447.447,0,0,0-.074-.61l-1.813-1.387h2.018a.431.431,0,0,0,.434-.435v-7.389A.426.426,0,0,0,151.069,104.3Zm-1.988,6.976h-8.628v-1.034h8.628Zm0-2.322h-8.628V107.9h8.628Zm0-2.337h-8.628v-1.031h8.628Z"/>
      <path class="cls-1" d="M25.214,104.617l-1.553-.772a.442.442,0,0,0-.588.191l-1.621,3.234a3.167,3.167,0,0,1-.506.694L18.2,110.651a.448.448,0,0,0-.006.62l1.2,1.248a.425.425,0,0,0,.611.01l3.069-3.013a3.121,3.121,0,0,0,.5-.687l1.826-3.633A.434.434,0,0,0,25.214,104.617Zm5.438,5.885H28.667v-9.143H35.58a.434.434,0,0,0,.436-.435V99.191a.435.435,0,0,0-.436-.439H28.667V95.363a.439.439,0,0,0-.437-.432H26.5a.437.437,0,0,0-.437.432v3.389H19.15a.439.439,0,0,0-.437.439v1.733a.438.438,0,0,0,.437.435h6.912V110.5H24.083a.432.432,0,0,0-.434.431v1.737a.429.429,0,0,0,.434.431h1.979v2.578a.436.436,0,0,0,.437.431H28.23a.438.438,0,0,0,.437-.431V113.1h1.985a.431.431,0,0,0,.432-.431v-1.737A.434.434,0,0,0,30.652,110.5Zm5.877.149-2.741-2.687a3.046,3.046,0,0,1-.507-.694l-1.619-3.234a.442.442,0,0,0-.587-.191l-1.553.772a.43.43,0,0,0-.2.579l1.821,3.633a3.011,3.011,0,0,0,.513.687l3.059,3.013a.428.428,0,0,0,.613-.01l1.207-1.248A.446.446,0,0,0,36.529,110.651Z"/>
      <path class="cls-1" d="M131.78,98.752h-7.659V95.3a.437.437,0,0,0-.438-.439h-1.73a.445.445,0,0,0-.438.439v3.457h-7.652a.439.439,0,0,0-.438.439v1.733a.439.439,0,0,0,.438.435h7.652v2.027a1.6,1.6,0,0,1-.244.789l-6.993,10.237a.438.438,0,0,0,.113.6l1.423.991a.433.433,0,0,0,.6-.112l6.154-9.017a.282.282,0,0,1,.489,0l6.157,9.017a.442.442,0,0,0,.611.112l1.42-.991a.43.43,0,0,0,.1-.6l-6.986-10.237a1.672,1.672,0,0,1-.245-.789v-2.027h7.659a.438.438,0,0,0,.433-.435V99.191A.439.439,0,0,0,131.78,98.752Z"/>
      <path class="cls-1" d="M75.372,14.271c-20.5,0-20.636,29.539-14.116,47.452,2.329,6.4,4.273,10.243,6.149,12.6H83.338c1.874-2.355,3.818-6.2,6.14-12.6C96,43.81,95.87,14.271,75.372,14.271ZM85.682,46.22A63.77,63.77,0,0,1,83.172,60.8a84.106,84.106,0,0,1-3.126,8.975h-9.34A85.983,85.983,0,0,1,67.591,60.8c-3.415-11.475-3.6-25.2.161-32.467,1.111-2.156,3.013-5.147,7.626-5.147s6.514,2.991,7.633,5.147C85.215,32.589,86.065,39.177,85.682,46.22Z"/>
      <path class="cls-1" d="M55.75,74.321h4.782a68.762,68.762,0,0,1-11.208-31.4,6.788,6.788,0,0,1,6.522,2.847S55.6,43.41,55.564,41c-.045-2.722.075-4.2.075-4.2a11.17,11.17,0,0,0-7.725-1.846c-14.092,1.656-12.17,27.124-3.839,39.365h4.731c-5.495-8.681-6.483-21.531-4.677-26.654A73.44,73.44,0,0,0,55.75,74.321Z"/>
      <polygon class="cls-1" points="51.216 29.761 55.116 26.999 50.331 26.999 48.87 22.464 47.418 26.999 42.625 26.999 46.53 29.761 45.053 34.347 48.87 31.489 52.7 34.347 51.216 29.761"/>
      <polygon class="cls-1" points="77.73 8.379 81.619 5.614 76.836 5.614 75.378 1.082 73.917 5.614 69.133 5.614 73.03 8.379 71.552 12.963 75.378 10.102 79.198 12.963 77.73 8.379"/>
      <polygon class="cls-1" points="104.222 29.761 108.114 26.999 103.332 26.999 101.867 22.464 100.41 26.999 95.624 26.999 99.524 29.761 98.046 34.347 101.867 31.489 105.693 34.347 104.222 29.761"/>
      <path class="cls-1" d="M113.654,56.015a23.468,23.468,0,0,0-.727-14.05c-3.55-8.782-14.042-8.251-17.843-5.163a68.573,68.573,0,0,1-.2,8.969c4.432-6.389,14.731-3.384,12.771,4.842-1.6,6.748-11.566,6.106-13.359-.493a61.168,61.168,0,0,1-1.461,6.992c1.857,4.252,9.82,5.889,14.2,3.158a42.329,42.329,0,0,1-9.686,14.051h4.785S110.963,66.915,113.654,56.015Z"/>
      <path class="cls-2" d="M74.291,13.189c-20.5,0-20.635,29.537-14.117,47.452,2.33,6.394,4.274,10.243,6.151,12.6H82.258c1.872-2.353,3.814-6.2,6.138-12.6C94.924,42.726,94.79,13.189,74.291,13.189ZM84.6,45.136a63.545,63.545,0,0,1-2.511,14.585A83.328,83.328,0,0,1,78.965,68.7H69.624a86.064,86.064,0,0,1-3.114-8.976c-3.417-11.474-3.606-25.2.16-32.466,1.113-2.157,3.015-5.147,7.624-5.147s6.516,2.99,7.635,5.147C84.135,31.505,84.985,38.094,84.6,45.136Z"/>
      <path class="cls-2" d="M54.669,73.237h4.783a68.725,68.725,0,0,1-11.21-31.4,6.791,6.791,0,0,1,6.523,2.848s-.243-2.361-.283-4.773c-.045-2.724.075-4.2.075-4.2a11.156,11.156,0,0,0-7.725-1.846C32.742,35.53,34.663,61,42.994,73.237h4.728c-5.492-8.68-6.48-21.531-4.677-26.652A73.445,73.445,0,0,0,54.669,73.237Z"/>
      <polygon class="cls-2" points="50.134 28.679 54.036 25.917 49.249 25.917 47.789 21.382 46.335 25.917 41.543 25.917 45.446 28.679 43.972 33.263 47.789 30.407 51.618 33.263 50.134 28.679"/>
      <polygon class="cls-2" points="76.647 7.297 80.538 4.53 75.755 4.53 74.294 0 72.837 4.53 68.051 4.53 71.948 7.297 70.468 11.88 74.294 9.02 78.118 11.88 76.647 7.297"/>
      <polygon class="cls-2" points="103.14 28.679 107.034 25.917 102.248 25.917 100.787 21.382 99.329 25.917 94.543 25.917 98.442 28.679 96.964 33.263 100.787 30.407 104.61 33.263 103.14 28.679"/>
      <path class="cls-2" d="M112.574,54.932a23.488,23.488,0,0,0-.729-14.051C108.3,32.1,97.8,32.632,94,35.72a68.573,68.573,0,0,1-.195,8.969c4.431-6.389,14.73-3.384,12.77,4.84-1.6,6.75-11.565,6.106-13.36-.492a60.692,60.692,0,0,1-1.461,6.991c1.858,4.252,9.82,5.89,14.2,3.159a42.3,42.3,0,0,1-9.688,14.05h4.787S109.881,65.833,112.574,54.932Z"/>
      <path class="cls-3" d="M74.832,13.73c-20.5,0-20.636,29.538-14.118,47.452,2.331,6.395,4.274,10.242,6.151,12.6H82.8c1.874-2.355,3.816-6.2,6.14-12.6C95.464,43.268,95.33,13.73,74.832,13.73Zm10.31,31.948A63.672,63.672,0,0,1,82.63,60.264a83.6,83.6,0,0,1-3.125,8.974H70.166a85.88,85.88,0,0,1-3.115-8.974c-3.416-11.477-3.605-25.206.159-32.467,1.113-2.158,3.015-5.147,7.626-5.147s6.514,2.989,7.633,5.147C84.675,32.047,85.525,38.636,85.142,45.678Z"/>
      <path class="cls-3" d="M55.209,73.779h4.783a68.718,68.718,0,0,1-11.208-31.4,6.791,6.791,0,0,1,6.521,2.847s-.241-2.359-.283-4.773c-.044-2.722.075-4.194.075-4.194a11.152,11.152,0,0,0-7.723-1.848C33.282,36.07,35.2,61.54,43.534,73.779h4.73C42.77,65.1,41.783,52.248,43.587,47.125A73.411,73.411,0,0,0,55.209,73.779Z"/>
      <polygon class="cls-3" points="50.675 29.219 54.576 26.457 49.791 26.457 48.33 21.924 46.877 26.457 42.083 26.457 45.988 29.219 44.513 33.805 48.33 30.949 52.158 33.805 50.675 29.219"/>
      <polygon class="cls-3" points="77.188 7.839 81.078 5.073 76.296 5.073 74.836 0.54 73.377 5.073 68.593 5.073 72.488 7.839 71.01 12.421 74.836 9.562 78.658 12.421 77.188 7.839"/>
      <polygon class="cls-3" points="103.68 29.219 107.574 26.457 102.79 26.457 101.327 21.924 99.869 26.457 95.084 26.457 98.984 29.219 97.504 33.805 101.327 30.949 105.152 33.805 103.68 29.219"/>
      <path class="cls-3" d="M113.114,55.475a23.493,23.493,0,0,0-.727-14.053c-3.55-8.781-14.042-8.248-17.844-5.16a68.352,68.352,0,0,1-.2,8.967c4.431-6.387,14.73-3.382,12.772,4.842-1.6,6.75-11.566,6.106-13.361-.493A61.011,61.011,0,0,1,92.3,56.572c1.857,4.251,9.821,5.888,14.2,3.157a42.343,42.343,0,0,1-9.688,14.05H101.6S110.421,66.373,113.114,55.475Z"/>
      <path class="cls-4" d="M21.941,87.73V86.224a4.247,4.247,0,0,0,1.2.775,3.257,3.257,0,0,0,1.277.259,1.494,1.494,0,0,0,1.268-.476,3.1,3.1,0,0,0,.361-1.77V79.681H23.619V78.6h3.707v6.415a3.793,3.793,0,0,1-.672,2.545,2.883,2.883,0,0,1-2.241.747,5.392,5.392,0,0,1-1.214-.14A7.081,7.081,0,0,1,21.941,87.73Z"/>
      <path class="cls-4" d="M31.445,78.6H33l2.906,9.522H34.579l-.7-2.481H30.555l-.686,2.481H28.54Zm.775,1.135L30.866,84.6h2.708Z"/>
      <path class="cls-4" d="M37.4,78.6h2.771a3.537,3.537,0,0,1,2.409.724,3.169,3.169,0,0,1,0,4.251,3.552,3.552,0,0,1-2.412.721H38.679v3.826H37.4Zm1.284,1.058v3.578h1.487a1.947,1.947,0,0,0,1.389-.471,2,2,0,0,0,0-2.638,1.949,1.949,0,0,0-1.393-.469Z"/>
      <path class="cls-4" d="M45.816,78.6h1.557l2.906,9.522H48.95l-.7-2.481H44.926l-.686,2.481H42.911Zm.775,1.135L45.237,84.6h2.708Z"/>
      <path class="cls-4" d="M51.677,78.628h1.754l3.713,7.813V78.628H58.51v9.491H56.755l-3.712-7.813v7.813H51.677Z"/>
      <path class="cls-4" d="M64.482,78.6h7.239v1.084H68.752v8.438H67.463V79.681H64.482Z"/>
      <path class="cls-4" d="M79.114,83.367a6.993,6.993,0,0,1-.786,3.713,2.951,2.951,0,0,1-4.782,0,6.992,6.992,0,0,1-.782-3.718,7.01,7.01,0,0,1,.785-3.719,2.944,2.944,0,0,1,4.779,0A7.009,7.009,0,0,1,79.114,83.367Zm-1.342,0a7.528,7.528,0,0,0-.429-3,1.547,1.547,0,0,0-2.809,0,7.546,7.546,0,0,0-.429,3,7.525,7.525,0,0,0,.429,2.992,1.548,1.548,0,0,0,2.809,0A7.5,7.5,0,0,0,77.772,83.367Z"/>
      <path class="cls-4" d="M80.092,78.6H81.46l2.312,4.2,2.308-4.2h1.38l-3.046,5.248v4.274H83.125V83.845Z"/>
      <path class="cls-4" d="M93.4,78.6h1.557l2.906,9.522H96.53l-.7-2.481H92.507l-.686,2.481H90.492Zm.775,1.135L92.818,84.6h2.708Z"/>
      <path class="cls-4" d="M98.094,78.6h1.253l.908,7.73,1.081-5.115h1.342l1.093,5.128.908-7.743h1.252l-1.417,9.522H103.3l-1.291-5.658-1.284,5.658H99.511Z"/>
      <path class="cls-4" d="M109.072,78.6h1.556l2.906,9.522h-1.329l-.7-2.481h-3.324l-.686,2.481h-1.329Zm.775,1.135L108.493,84.6H111.2Z"/>
      <path class="cls-4" d="M118.6,83.623a1.792,1.792,0,0,1,.846.481,5.91,5.91,0,0,1,.87,1.413l1.291,2.6h-1.379l-1.132-2.4a3.778,3.778,0,0,0-.88-1.324,1.641,1.641,0,0,0-1.021-.3h-1.226v4.024h-1.29V78.6h2.644a3.6,3.6,0,0,1,2.4.708,2.535,2.535,0,0,1,.833,2.047,2.282,2.282,0,0,1-.513,1.54A2.234,2.234,0,0,1,118.6,83.623Zm-2.631-3.968v3.38h1.4a1.974,1.974,0,0,0,1.374-.415,1.641,1.641,0,0,0,.451-1.268,1.619,1.619,0,0,0-.479-1.259,2,2,0,0,0-1.4-.438Z"/>
      <path class="cls-4" d="M124.4,78.6a4.068,4.068,0,0,1,3.2,1.16,5.338,5.338,0,0,1,1.03,3.61,5.3,5.3,0,0,1-1.03,3.594,4.078,4.078,0,0,1-3.2,1.158h-1.926V78.6Zm-.026,8.463a2.754,2.754,0,0,0,2.263-.8,4.793,4.793,0,0,0,.642-2.892,4.839,4.839,0,0,0-.64-2.911,2.753,2.753,0,0,0-2.265-.8h-.611V87.06Z"/>
    </g>
  </g>
</svg>
