<svg xmlns="http://www.w3.org/2000/svg" width="628.747" height="30" viewBox="0 0 628.747 30">
  <defs>
    <style>
      .cls-1 {
        fill: #fff;
      }
    </style>
  </defs>
  <g id="レイヤー_2" data-name="レイヤー 2">
    <g id="object">
      <path class="cls-1" d="M26.579,23.019V24.23H23.124V6.275H38.9V24.23H35.446V23.019Zm8.867-10.011V9.334H26.579v3.674Zm0,6.865v-3.9H26.579v3.9Z"/>
      <path class="cls-1" d="M42.968,11.512V8.607h8.361v-3.7l3.169.2c.55.044.616.2.616.308,0,.132-.088.242-.462.484V8.607h8.383v2.905H55.95a20.765,20.765,0,0,0,7.7,8.494,7.444,7.444,0,0,0-2.4,2.53,25.873,25.873,0,0,1-3.345-3.125v2.6H54.652v3.1H51.329v-3.1H48.051V19.389a26.451,26.451,0,0,1-3.367,3.147,7.263,7.263,0,0,0-2.4-2.53,20.321,20.321,0,0,0,7.7-8.494Zm8.361,3.344a24.966,24.966,0,0,1-2.97,4.181h2.97ZM57.6,19.037A24.391,24.391,0,0,1,54.652,14.9v4.137Z"/>
      <path class="cls-1" d="M74.165,5.483c.286.044.462.088.462.286,0,.242-.241.308-.374.352-.066.66-.11,1.43-.154,2.333a15.924,15.924,0,0,0,3.455-1.1c-.022.815-.044,1.826-.044,2.332a9.415,9.415,0,0,0,.044,1.189,16.269,16.269,0,0,1-3.609.99c0,.242-.044,1.3-.044,1.5a11.083,11.083,0,0,1,3.741-.66,5.836,5.836,0,0,1,6.095,5.963,5.1,5.1,0,0,1-5.215,5.478c-3.322,0-3.432-2.948-3.455-3.872.463-.154,2.443-.814,2.729-.924,0,.44,0,1.474,1.034,1.474.836,0,1.386-.836,1.386-1.936a2.766,2.766,0,0,0-2.926-2.9,10.3,10.3,0,0,0-3.411.771,65.373,65.373,0,0,0,.286,6.623l-3.014,1.364A29.9,29.9,0,0,0,67.3,21.59c-.55.593-.814.9-1.122,1.276l-1.584-3.785c1.012-.55,5.017-3.586,5.9-4.137,0-.77,0-.945-.022-2.64-1.3.066-2.839.088-4.093.088v-3.5a9.19,9.19,0,0,0,1.739.133c.857,0,2.09-.089,2.354-.089,0-1.649-.022-1.891-.088-4.092ZM69.237,19.675a2.382,2.382,0,0,0,.99.572c.33,0,.308-.77.285-1.606C70.249,18.861,69.786,19.191,69.237,19.675ZM80.722,7.969a18.737,18.737,0,0,1,4.8,3.521,15.517,15.517,0,0,0-2.134,2.662A12.806,12.806,0,0,0,78.72,10.7Z"/>
      <path class="cls-1" d="M99.158,5.945c.242.088.374.154.374.353,0,.307-.374.374-.638.395-.242.374-.507.815-1.3,2.311,1.166.11,2.288.154,2.75.154s.77-.023,1.078-.044a16.134,16.134,0,0,0-.968,3.477,27.155,27.155,0,0,1-4.159-.2c-.264.594-.572,1.386-.792,1.937a33.944,33.944,0,0,0,4.885.33c-.418,1.187-.77,2.574-.946,3.256-1.343-.088-2.861-.22-4.929-.529a7.21,7.21,0,0,0-.242,1.783c0,2.684,2.487,2.684,3.565,2.684.945,0,4.268,0,4.268-3.19a8.4,8.4,0,0,0-1.122-3.433,10.566,10.566,0,0,0,3.322-1.187,11.529,11.529,0,0,1,1.519,4.994c0,4.841-5.105,5.963-7.987,5.963-4.423,0-6.866-2.288-6.866-5.523a10.8,10.8,0,0,1,.331-2.662A18.524,18.524,0,0,1,88.442,16l.748-3.257a20.668,20.668,0,0,0,2.971.946c.088-.286.242-.769.66-1.958a19.268,19.268,0,0,1-3.279-1.1l.66-3.411A27.674,27.674,0,0,0,94.1,8.431c.22-.593,1.276-3.278,1.5-3.828Z"/>
      <path class="cls-1" d="M119.552,5.637c.175.044.418.132.418.352,0,.132-.11.286-.484.309-.485,1.5-.529,1.649-.639,1.979a33.451,33.451,0,0,0,7.173-1.738c.111.726.4,2.4.617,3.279a38.191,38.191,0,0,1-9,1.87c-.528,1.452-.7,1.892-1.144,2.971a13.008,13.008,0,0,1,5.721-1.5c5.875,0,6.183,4.137,6.183,5.237a5.431,5.431,0,0,1-2.355,4.444c-1.166.792-3.366,2.113-9.461,2.113a19.843,19.843,0,0,1-2.046-.111,15.567,15.567,0,0,0-.814-3.278,32.362,32.362,0,0,0,3.278.2c.506,0,4.269,0,6.535-1.341a2.239,2.239,0,0,0,1.188-2.069c0-1.276-.66-2.354-2.684-2.354a11.283,11.283,0,0,0-7.613,3.674l-3.169-1.584a30.812,30.812,0,0,0,2.927-6.183c-1.915.022-3.433-.066-4.269-.132l-.044-3.608a20.291,20.291,0,0,0,5.325.483,29.406,29.406,0,0,0,.836-3.894Z"/>
      <path class="cls-1" d="M140.782,8.542c.263.307,1.363,1.672,1.584,1.936a9.626,9.626,0,0,1,2.42-.374,4.183,4.183,0,0,1,4.378,4.29c0,4.114-4.466,4.489-6.711,4.665a14.951,14.951,0,0,0-1.012-2.948c.375.022.638.022,1.012.022.749,0,3.565,0,3.565-1.937,0-.374-.11-1.231-1.408-1.231-.2,0-.374.021-.484.021.4.639.616,1.057.814,1.387-.814.33-2.091.857-2.883,1.21a13.463,13.463,0,0,0-.814-1.7c-.814.374-1.3.638-1.606.815a43.436,43.436,0,0,1,3.081,8.493,29.063,29.063,0,0,0-3.125,1.518,37.541,37.541,0,0,0-2.574-8.45c-.638.462-.814.617-2.486,2.047l-1.981-3.1a28.525,28.525,0,0,0,3.125-1.563,16.78,16.78,0,0,0-1.981-2.883l2.993-1.231a1.224,1.224,0,0,1,.462-.132.237.237,0,0,1,.264.241.643.643,0,0,1-.2.353c.33.594.858,1.584,1.188,2.178.792-.4.99-.484,1.254-.616-.352-.484-.462-.638-1.386-1.8Z"/>
      <path class="cls-1" d="M152.99,13.3V10.126h8.339V4.691l3.454.176c.133,0,.419.022.419.286,0,.176-.22.286-.419.352v4.621h8.186V13.3h-8.12a15.963,15.963,0,0,0,8.538,9.5,8.553,8.553,0,0,0-2.552,2.619,18.473,18.473,0,0,1-7.723-8.1,16.911,16.911,0,0,1-8.582,8.185A7.826,7.826,0,0,0,152.2,22.58c1.848-.727,7.349-2.817,8.8-9.285Z"/>
      <path class="cls-1" d="M187.62,21.655h-4.643l1.342,1.32a.422.422,0,0,1,.11.221c0,.176-.132.241-.308.241a1.142,1.142,0,0,1-.55-.153,20.043,20.043,0,0,1-6.689,2.265,10.311,10.311,0,0,0-2.068-2.816,16.707,16.707,0,0,0,5.655-1.078h-3.411V13.91h15.931v7.745h-3.565a20.17,20.17,0,0,0,5.655,1.188,11.146,11.146,0,0,0-1.915,2.663,21.444,21.444,0,0,1-7.26-2.531ZM183.373,6.847V4.691L187,4.8a.244.244,0,0,1,.264.22c0,.2-.176.286-.572.484V6.847h2.068a6.069,6.069,0,0,0-.66-.242,7.731,7.731,0,0,0,1.012-2l3.344,1.232c.111.045.22.11.22.242,0,.308-.461.308-.616.308a2.819,2.819,0,0,1-.219.462h3.212v5.3h-3.212V9.114H178.18V12.26h-3.124V6.847h3.278a7.224,7.224,0,0,0-.7-1.034l3.037-1.232a10.285,10.285,0,0,1,1.32,1.892,11.768,11.768,0,0,0-1.144.374Zm8.009,2.882v3.654h-12.74V9.729Zm-1.65,6.47v-.572h-9.373V16.2Zm-9.373,1.276v.572h9.373v-.572Zm0,1.848v.594h9.373v-.594Zm1.5-8.141v.726h6.4v-.726Z"/>
      <path class="cls-1" d="M214,23.46H199.212c.286-3.851,2.443-5.435,7.107-8.6,3.543-2.42,3.543-2.926,3.543-3.85,0-1.651-1.761-2.069-2.905-2.069-2.97,0-3.278,2.112-3.366,3.543H199.52A6.62,6.62,0,0,1,200.885,8.1a7.465,7.465,0,0,1,6.094-2.464c5.039,0,6.865,2.773,6.865,5.3a5.206,5.206,0,0,1-.968,3.014c-1.122,1.562-5.567,4.4-5.787,4.554a12.194,12.194,0,0,0-2.244,1.7H214Z"/>
      <path class="cls-1" d="M230.586,15.077c0,2.112-.506,8.867-7.327,8.867a6.659,6.659,0,0,1-5.809-2.839c-1.144-1.672-1.54-4.686-1.54-6.6,0-2.113.506-8.868,7.349-8.868C229.684,5.637,230.586,11.49,230.586,15.077ZM220,14.791c0,.725,0,5.83,3.256,5.83,3.234,0,3.234-5.082,3.234-5.83,0-.815,0-5.831-3.234-5.831C220,8.96,220,14,220,14.791Z"/>
      <path class="cls-1" d="M246.294,23.46H231.508c.286-3.851,2.442-5.435,7.107-8.6,3.542-2.42,3.542-2.926,3.542-3.85,0-1.651-1.76-2.069-2.9-2.069-2.971,0-3.279,2.112-3.367,3.543h-4.07A6.624,6.624,0,0,1,233.18,8.1a7.466,7.466,0,0,1,6.095-2.464c5.038,0,6.864,2.773,6.864,5.3a5.207,5.207,0,0,1-.967,3.014c-1.122,1.562-5.567,4.4-5.787,4.554a12.212,12.212,0,0,0-2.245,1.7h9.154Z"/>
      <path class="cls-1" d="M254.454,23.46V12.194h-3.762V9.311c2.222-.065,3.806-.439,4.62-3.19h3.235V23.46Z"/>
      <path class="cls-1" d="M276.629,20.115c-.044.221-.154.639-.2.814a28.759,28.759,0,0,0-3.212-.33,30.736,30.736,0,0,0,1.166-6.667l2.993.308H280.7v-.792h-7.173V10.83h.242a9.953,9.953,0,0,0-2.377-.859,15.11,15.11,0,0,0,3.059-5.258l2.993.572c.131.022.33.066.33.286,0,.286-.264.33-.529.374-.087.22-.153.374-.22.506h4.841V7.9a12.331,12.331,0,0,0,1.826-3.256l2.927.616c.22.044.462.11.462.33,0,.242-.374.352-.638.44-.088.177-.132.242-.22.418h5.809V8.872h-3.015c.242.572.33.836.462,1.187a15.547,15.547,0,0,0-3.19.683,12.46,12.46,0,0,0-.528-1.87h-.968a16.693,16.693,0,0,1-1.386,1.958h7.349v5.852h-6.975v.771h8.229c-.088,1.3-.44,4.972-1.343,6.117-.33.418-.924,1.012-4.136.857a8.638,8.638,0,0,0-1.034-3.08,12.14,12.14,0,0,0,1.98.264c.594,0,.748-.308.968-1.5h-4.664v5.06H280.7V21.414a15.557,15.557,0,0,1-6.755,3.894,4.818,4.818,0,0,0-2.288-2.333,13.634,13.634,0,0,0,6.358-2.86Zm2.9-11.243c.11.176.616,1.143.7,1.364-.924.109-2.663.527-3.015.572a18.075,18.075,0,0,0-.792-1.936h-.638c-.506.836-.814,1.32-1.276,1.958h8.3a12.74,12.74,0,0,0-2.64-1.1,7.824,7.824,0,0,0,.88-.857Zm1.166,7.81h-3.477c-.022.221-.087.639-.109.771H280.7Zm3.081-2.442h3.828v-.792h-3.828Z"/>
      <path class="cls-1" d="M311.215,23.46H296.429c.286-3.851,2.442-5.435,7.106-8.6,3.543-2.42,3.543-2.926,3.543-3.85,0-1.651-1.76-2.069-2.9-2.069-2.971,0-3.279,2.112-3.367,3.543h-4.07A6.619,6.619,0,0,1,298.1,8.1a7.466,7.466,0,0,1,6.1-2.464c5.038,0,6.864,2.773,6.864,5.3a5.207,5.207,0,0,1-.967,3.014c-1.122,1.562-5.567,4.4-5.788,4.554a12.231,12.231,0,0,0-2.244,1.7h9.154Z"/>
      <path class="cls-1" d="M314.776,22.25A24.909,24.909,0,0,0,319.265,14a7.8,7.8,0,0,0,2.178,1.958,28.9,28.9,0,0,1-3.542,7.591,2.156,2.156,0,0,1,.044.374c0,.219-.132.286-.242.286a.666.666,0,0,1-.419-.176Zm2.465-16.481a23.444,23.444,0,0,1,3.52,3.3,10.013,10.013,0,0,0-2.266,2.266,36.05,36.05,0,0,0-3.455-3.389Zm11.639,5.875c.55.044.7.176.7.4s-.308.33-.506.418a16.1,16.1,0,0,1-.153,1.76c.44,1.739,1.826,5.479,6.842,8.251a8.085,8.085,0,0,0-2.09,2.6,18.624,18.624,0,0,1-5.941-6.381,13.158,13.158,0,0,1-6.6,6.513,6,6,0,0,0-2.222-2.509C326.152,20.38,326.042,13.47,326,11.4Zm-1.694-6.183c.264.066.506.132.506.374,0,.264-.22.308-.594.375-.242.659-.418,1.1-.66,1.737h8.075l1.232,1.167a21.933,21.933,0,0,1-2.816,6.4,10.826,10.826,0,0,0-2.971-1.055,16.531,16.531,0,0,0,1.717-3.477H325.1a15.525,15.525,0,0,1-1.871,3.036,6.915,6.915,0,0,0-3.058-1.276,18.073,18.073,0,0,0,3.961-8.031Z"/>
      <path class="cls-1" d="M354.643,10.83c.11.044.264.132.264.263,0,.2-.176.265-.7.419-.154.264-.242.4-.462.748h3.652v2.4h-4.554a15.272,15.272,0,0,0,4.884,2.178,7.026,7.026,0,0,0-1.738,2.421c-.352-.133-.594-.221-1.166-.485v6.315h-3.1v-.462h-8.56v.462h-3.234V19.059c-.44.242-.661.33-.946.462a8.806,8.806,0,0,0-2.2-2.179,16.369,16.369,0,0,0,5.259-2.683H337.3v-2.4h3.609a13.891,13.891,0,0,0-1.056-.99l1.76-.925a14.66,14.66,0,0,0-.792-1.275,18.759,18.759,0,0,0,2.464.153,26.246,26.246,0,0,0,6.469-.792h-9.043v1.981H337.5V6.077h8.141V4.757l3.565.11c.132,0,.4.088.4.33,0,.176-.088.242-.528.418v.462h8.053v4.335h-3.124V8.431h-1.848l1.21,1.277a.432.432,0,0,1,.132.263c0,.243-.264.221-.352.221ZM343.157,19.9h2.772V18.839h-2.772Zm0,2.75h2.772v-1.1h-2.772Zm2.772-11.331c-1.166.088-1.826.132-2.53.153.2.221.286.309.462.529l-.638.264h2.706Zm5.436,5.391a23.022,23.022,0,0,1-2.4-2.046h-.022v1.672h-3.015V14.659h-.087a19.951,19.951,0,0,1-2.355,2.046Zm-.573-4.863a6.314,6.314,0,0,0,.881-1.518c-.925.242-1.541.374-2.729.594V12.26h2.926Zm.925,7h-2.773V19.9h2.773Zm0,2.707h-2.773v1.1h2.773Z"/>
      <path class="cls-1" d="M372.88,9.07a19.771,19.771,0,0,0,7.13,4.048,8.283,8.283,0,0,0-2,2.4,15.067,15.067,0,0,1-2.222-1.011V22.25h3.674v2.464H359.194V22.25h3.719V14.526c-.946.507-1.474.727-1.981.946a8.458,8.458,0,0,0-2.112-2.354,15.32,15.32,0,0,0,6.711-4.048h-6.292V6.584h8.471V4.691l3.256.154c.2,0,.44.044.44.264,0,.176-.2.33-.44.418V6.584h8.449V9.07Zm-1.914,4.092H367.71V11.006a18.875,18.875,0,0,1-3.257,2.6h9.726a16.677,16.677,0,0,1-3.213-2.442Zm1.562,3.564v-.792h-6.381v.792Zm0,2.751v-.836h-6.381v.836Zm0,2.773v-.859h-6.381v.859Z"/>
      <path class="cls-1" d="M386.849,12.744V20.2c.22,1.255.572,1.782,6.865,1.782a75.534,75.534,0,0,0,8.163-.374,9.574,9.574,0,0,0-.726,3.125h-9.087c-3.454,0-5.281-.176-6.6-1.761A29.776,29.776,0,0,1,383,24.736c-.044.374-.089.572-.4.572-.175,0-.241-.11-.307-.264l-1.452-2.817a16.887,16.887,0,0,0,2.9-1.561V15.648h-2.508v-2.9Zm-3.587-7.987a16.425,16.425,0,0,1,3.455,3.058,24.886,24.886,0,0,0-2.244,2.355,17.379,17.379,0,0,0-3.389-3.212Zm13.775,6.579H400.4V13.6h-3.366v1.145H400.4v2.244h-3.366v1.187h4.268V20.8h-9.439V21.3h-3.1V11.644c-.461.572-.638.748-.857.99a10.185,10.185,0,0,0-2.883-1.562,17.126,17.126,0,0,0,4.62-6.447l2.905,1.188c.154.067.242.176.242.242,0,.286-.2.308-.528.374-.242.44-.4.726-.638,1.21h2a15.948,15.948,0,0,0,1.188-2.992l3.279.616c.2.044.352.066.352.242,0,.286-.44.4-.638.44-.286.616-.484,1.078-.815,1.694h3.983v2.575h-3.938Zm-2.949-1.122h-2.222v1.122h2.222Zm0,3.388h-2.222v1.145h2.222Zm0,3.389h-2.222v1.187h2.222Z"/>
      <path class="cls-1" d="M419.455,20.819v-5.1l3.322.2c.308.021.616.044.616.286s-.286.308-.55.395v8.56h-3.388V24.009H407.177v1.145H403.81V15.715l3.257.175c.352.023.66.044.66.286,0,.265-.374.353-.55.4v4.246H411.6V14.966h-7V6.1l3.543.2c.132,0,.44.021.44.286,0,.2-.242.285-.528.374v4.906H411.6V4.911l3.323.242c.374.022.66.044.66.286,0,.176-.2.308-.572.462v5.963h3.5V6.1l3.63.2c.176,0,.418.021.418.263s-.286.308-.55.4v8.008h-7v5.853Z"/>
      <path class="cls-1" d="M439.739,8.981l1.144.177c.5.088.7.109.7.351s-.286.287-.528.309c-.088.22-.242.527-.506,1.056h4.268V22.1c0,2.179-.506,3.1-4.07,3.1.022-.286.022-.418.022-.572a3.843,3.843,0,0,0-.793-2.355v1.32H433.6v.529h-2.882V18.993a2.044,2.044,0,0,1-.22.11,4.255,4.255,0,0,0-1.54-1.452v7.568h-3.191V10.874h4.6a8.439,8.439,0,0,0-.858-1.607l1.562-.286h-5.743V6.341h8.317V4.779l3.323.154c.22,0,.418.066.418.286,0,.176-.22.308-.418.4v.726h8.383v2.64ZM428.957,13.69v3.1a4.846,4.846,0,0,0,2.332-3.1Zm12.806,2.4a2.075,2.075,0,0,1-2.024,1.253h-2.817c-1.3,0-1.716-.461-1.716-1.5V13.69h-2.244l1.166.374c.154.044.462.154.462.353,0,.088,0,.242-.594.374a7.917,7.917,0,0,1-2,3.234h7.987v4.093c.441.044.815.109,1.057.109.682,0,.726-.219.726-.725Zm-8.8-7.108a11.457,11.457,0,0,1,.967,1.694l-.792.2h3.851a13.429,13.429,0,0,0,.88-1.893Zm4.114,11.311H433.6v1.033h3.477Zm.9-6.6v.7c0,.286.022.485.44.485h.66c.418,0,.484-.374.661-1.189Zm3.785,0h-2a6.325,6.325,0,0,0,2,1.057Z"/>
      <path class="cls-1" d="M450.869,23.944v1.21h-3.19V14.923h8.867V24.78h-3.125v-.836Zm2.552-2.663V17.8h-2.552v3.477Zm9.88-15.8v8.186H451.463V5.483Zm-8.516,2.75v2.751H460V8.233Zm6.36,15.711v1.21h-3.191V14.923h9.11V25.154h-3.125v-1.21Zm2.794-2.663V17.8h-2.794v3.477Z"/>
      <path class="cls-1" d="M479.36,5.9c.4.088.528.132.528.374,0,.286-.286.286-.572.309-.11.439-.616,2.288-.726,2.771,3.9-.153,5.215,2.267,5.215,6.535,0,.353,0,5.061-1.826,7.371a4.075,4.075,0,0,1-3.543,1.453,5.726,5.726,0,0,1-1.87-.264,10.347,10.347,0,0,0-.462-3.587,8.593,8.593,0,0,0,2.31.44c1.8,0,2.046-3.961,2.046-6.161,0-.88-.066-2.486-2.068-2.486-.22,0-.441.022-.66.044a45.753,45.753,0,0,1-5.017,11.9,10.849,10.849,0,0,0-3.168-1.761,39.236,39.236,0,0,0,4.643-9.373,17.429,17.429,0,0,0-3.125,1.189l-1.034-3.719a50.543,50.543,0,0,0,5.083-1.034A23.523,23.523,0,0,0,475.774,5Zm5.655,2.662a27.24,27.24,0,0,1,3.564,4.247,4.872,4.872,0,0,1,1.057,2.75c0,1.651-1.915,2.355-3.235,2.861a23.452,23.452,0,0,0-1.672-2.926c.836-.265,1.122-.353,1.122-.836,0-1.057-2.156-3.829-3.1-4.841Zm1.232-2.728a14.284,14.284,0,0,1,1.8,2.178c-.506.353-.616.441-1.6,1.166-.221-.286-1.321-1.738-1.805-2.244Zm2.2-1.364A12.164,12.164,0,0,1,490.3,6.716c-.483.351-1.275.9-1.782,1.253a9.755,9.755,0,0,0-1.76-2.42Z"/>
      <path class="cls-1" d="M492.361,10.236a22.428,22.428,0,0,1,3.455,2.53,20.333,20.333,0,0,0-1.871,2.355,27.48,27.48,0,0,0-3.3-2.487Zm4.115,6.732V14.087h5.148c.022-.287.022-.4.022-.947V11.16H497.4V8.41h4.246V4.779l3.19.154c.441.022.572.022.572.264s-.219.352-.572.506V8.41h5.457v5.677h1.21v2.881h-6.116a12.834,12.834,0,0,0,6.271,5.545,6.945,6.945,0,0,0-1.827,2.751,16.6,16.6,0,0,1-6.4-5.545,11.916,11.916,0,0,1-6.688,5.633,6.14,6.14,0,0,0-2-2.465c-.309.639-.507,1.013-.969,1.827A.392.392,0,0,1,493.9,25a.293.293,0,0,1-.308.33.542.542,0,0,1-.352-.132L490.689,23.5a22.657,22.657,0,0,0,3.454-6.887,7.119,7.119,0,0,0,2.486,1.738,24.489,24.489,0,0,1-1.826,4.378,8.492,8.492,0,0,0,6.425-5.765ZM493.483,4.581A18.8,18.8,0,0,1,497,6.913a19.62,19.62,0,0,0-1.8,2.531,23.217,23.217,0,0,0-3.368-2.531Zm13.6,9.506V11.16h-2.245v2.927Z"/>
      <path class="cls-1" d="M525.076,15.671h5.788v2.882h-5.788v3.279c.55.021,1.189.044,2.047.044A64.058,64.058,0,0,0,533.9,21.5a7.343,7.343,0,0,0-.792,3.432h-8.6a7.546,7.546,0,0,1-6.491-3.081,16.556,16.556,0,0,1-2.068,3.477,6.507,6.507,0,0,0-3.147-1.364,15.315,15.315,0,0,0,3.741-9.11l3.389.6c.2.044.439.088.439.351,0,.22-.131.265-.616.441-.109.55-.219,1.1-.506,2.156a4.764,4.764,0,0,0,2.465,2.86V13.646h-5.7V11.974h-2.75V6.869H521.6V4.8l3.366.22c.309.022.6.044.6.264,0,.176-.111.264-.6.484v1.1h8.449v5.017h-2.551v1.76h-5.788Zm5.083-4.863V9.532H516.451v1.276Z"/>
      <path class="cls-1" d="M543.006,5.835c.33.045.506.066.506.308,0,.2-.154.264-.418.374a48.272,48.272,0,0,0-.7,8.736c0,4.994.484,5.919,2.179,5.919,3.761,0,7.085-5.083,7.678-6.316a22.6,22.6,0,0,0,2.553,2.883c-2.509,4.07-6.249,7.129-10.694,7.129-4.885,0-5.281-4.137-5.281-9.638,0-1.276.22-6.843.22-7.965,0-.637,0-1.385-.044-2.024Z"/>
      <path class="cls-1" d="M569.517,5.659c.2.044.395.066.395.286,0,.242-.242.286-.395.309-.088.857-.088,1.055-.11,1.3,1.012,0,4.422-.066,6.073.132v3.279a53.56,53.56,0,0,0-6.184-.2v2.421a28.884,28.884,0,0,0,5.589-1.034v3.278a41.638,41.638,0,0,1-5.5.727c0,.945,0,1.034.044,1.958a21.831,21.831,0,0,1,7.349,2.9,35.527,35.527,0,0,0-2.443,2.75A17.751,17.751,0,0,0,569.626,21c.044,1.144.2,3.741-4.62,3.741-3.41,0-5.9-1.562-5.9-3.564,0-2.509,3.146-3.587,6.821-3.521,0-.506,0-.506-.022-1.3-2.178.044-6.161.111-6.161-2.068,0-.77.4-1.474,1.54-2.662l2.42.55c-.395.528-.462.594-.462.749,0,.241,0,.615,2.576.505,0-.4-.023-2.178-.023-2.53-2.706.11-5.083.418-6.909.66V8.08c1.078-.111,5.9-.33,6.887-.4,0-.836,0-1.694-.088-2.706Zm-4.555,14.522c-.11,0-2.222,0-2.222.9,0,.725,1.21.792,1.584.792,1.078,0,1.738-.4,1.606-1.607A4.817,4.817,0,0,0,564.962,20.181Z"/>
      <path class="cls-1" d="M587.006,5.835c.33.045.506.066.506.308,0,.2-.154.264-.418.374a48.272,48.272,0,0,0-.7,8.736c0,4.994.484,5.919,2.179,5.919,3.761,0,7.085-5.083,7.678-6.316a22.6,22.6,0,0,0,2.553,2.883c-2.509,4.07-6.249,7.129-10.694,7.129-4.885,0-5.281-4.137-5.281-9.638,0-1.276.22-6.843.22-7.965,0-.637,0-1.385-.044-2.024Z"/>
      <path class="cls-1" d="M611.668,5.835c.2.045.441.132.441.352,0,.264-.309.286-.485.286-.088.352-.462,1.914-.549,2.223a14.052,14.052,0,0,0,3.652-1.078l.374,3.454a28.739,28.739,0,0,1-4.973,1.034,53.163,53.163,0,0,1-5.764,12.872,22.842,22.842,0,0,0-3.323-1.673,35.709,35.709,0,0,0,5.435-10.671c-1.343.11-1.607.11-4.026.132l-.287-3.608c.661.044,1.43.088,2.552.088.99,0,1.651-.023,2.618-.088.309-1.65.463-3.081.6-4.159Zm1.651,13.246a2.155,2.155,0,0,0-.594,1.3.594.594,0,0,0,.395.571,8.058,8.058,0,0,0,2.949.374,15.884,15.884,0,0,0,4.84-.726,9.649,9.649,0,0,0-.153,1.716,15.779,15.779,0,0,0,.132,1.826,26.593,26.593,0,0,1-4.555.375c-2.883,0-6.711-.419-6.711-3.543a5.98,5.98,0,0,1,.858-2.882Zm-1.035-6.227a28.19,28.19,0,0,1,4.863-.4,15.728,15.728,0,0,1,3.234.242c-.132,1.629-.153,1.98-.176,3.455a12.78,12.78,0,0,0-3.3-.4,40.591,40.591,0,0,0-4.622.4Z"/>
      <path class="cls-1" d="M628.747,6.225v5.639l-.871,7.115h-2.323l-.895-7.115V6.225Zm-4.065,14.981h4.065V25.3h-4.065Z"/>
      <rect class="cls-1" width="10" height="30"/>
    </g>
  </g>
</svg>
