<svg xmlns="http://www.w3.org/2000/svg" width="304.44" height="60.1" viewBox="0 0 304.44 60.1"><defs><style>.cls-1{isolation:isolate;}.cls-2{fill:#a9cd36;}.cls-3{fill:#00a85f;}.cls-4{mix-blend-mode:multiply;}.cls-5,.cls-8{fill:#fff;stroke:#888;stroke-miterlimit:10;}.cls-5{stroke-width:0.88px;}.cls-6{fill:#1f1411;}.cls-7{fill:#0068b6;}.cls-8{stroke-width:1.1px;}</style></defs><g class="cls-1"><g id="レイヤー_1" data-name="レイヤー 1"><path class="cls-2" d="M130.74,525.88q-4.34,5.73-15,5.88v-3.91a19.08,19.08,0,0,0,8.42-2,9,9,0,0,0,4.37-5H113v-3.8h20.46a14.2,14.2,0,0,1-2.7,8.82" transform="translate(-112.98 -473.02)"/><rect class="cls-2" x="2.17" y="37.62" width="16.8" height="3.94"/><rect class="cls-2" x="22.41" y="46.02" width="18.22" height="4.04"/><rect class="cls-2" x="40.4" y="53.73" width="20.95" height="4.11"/><rect class="cls-2" x="43.25" y="38.55" width="16.08" height="4.06"/><polygon class="cls-2" points="103.09 36.27 103.09 37.2 103.09 37.75 103.09 39.99 105.31 39.99 105.59 39.99 105.59 36.27 103.09 36.27"/><path class="cls-2" d="M214.84,514.29v-3.53H202.39a11.08,11.08,0,0,1-4.69,7.46v4.25a11.79,11.79,0,0,0,4.67-3,14,14,0,0,0,3.07-4.77H214q-1.2,12-13.08,13.26v3.86q10.26-.64,14.53-7.85a22.7,22.7,0,0,0,2.74-9.65h-3.37Z" transform="translate(-112.98 -473.02)"/><rect class="cls-2" x="106.52" y="36.27" width="2.5" height="3.73"/><rect class="cls-2" x="106.52" y="36.27" width="2.5" height="3.73"/><path class="cls-2" d="M196,514.29q-.58,8.9-5.47,13.1-4.62,3.93-13.57,4.16v-4.16c4.7-.37,8.13-1.39,10.33-3.08q3.89-3,4.46-10Z" transform="translate(-112.98 -473.02)"/><polygon class="cls-2" points="63.67 37.72 63.67 37.74 63.67 41.93 72.37 43.1 72.37 38.9 63.67 37.72"/><rect class="cls-2" x="157.12" y="36.39" width="2.51" height="3.73"/><rect class="cls-3" x="157.12" y="36.39" width="2.51" height="3.73"/><path class="cls-3" d="M239.81,510a15,15,0,0,1-6.25,8.72v13.57h-4.22V521a41.46,41.46,0,0,1-9.67,2.61v-4q12.81-2.36,15.75-9.6Z" transform="translate(-112.98 -473.02)"/><path class="cls-3" d="M254.62,510.45q-.92,8.87-5.55,14.27a21.69,21.69,0,0,1-12.24,6.91v-4.14q11.91-3.5,13.39-17Z" transform="translate(-112.98 -473.02)"/><rect class="cls-3" x="164.12" y="46.02" width="18.22" height="4.04"/><path class="cls-3" d="M318.2,514q-.61,9.35-5.84,13.64-4.73,3.89-13.69,4v-4.15q7.53-.21,11-3.13,3.68-3.11,4.32-10.33Z" transform="translate(-112.98 -473.02)"/><polygon class="cls-3" points="219.55 59.1 207.26 59.1 207.26 56.02 216.26 56.02 216.26 53.71 207.47 53.71 207.47 50.69 216.26 50.69 216.26 48.7 207.28 48.7 207.28 45.66 219.55 45.66 219.55 59.1"/><path class="cls-3" d="M354.68,514.29q-.58,8.9-5.47,13.1-4.6,3.93-13.56,4.16v-4.16q7-.55,10.33-3.08,3.87-3,4.46-10Z" transform="translate(-112.98 -473.02)"/><polygon class="cls-3" points="153.68 36.39 153.68 37.33 153.68 37.88 153.68 40.12 155.92 40.12 156.19 40.12 156.19 36.39 153.68 36.39"/><rect class="cls-3" x="157.12" y="36.39" width="2.51" height="3.73"/><rect class="cls-3" x="157.12" y="36.39" width="2.51" height="3.73"/><rect class="cls-2" x="157.12" y="36.39" width="2.51" height="3.73"/><rect class="cls-3" x="157.12" y="36.39" width="2.51" height="3.73"/><path class="cls-3" d="M273.75,523.89a50.12,50.12,0,0,1-3-5.72,29.42,29.42,0,0,0-2.1-3.88h-3.12v-2.35a11.71,11.71,0,0,0-2.7-.27H259.6l-3,8.08a3.67,3.67,0,0,1-1.81,2.3v4.22q3.73-.46,5.32-4.53l2.31-6h.76a2.43,2.43,0,0,1,2,.77,26.32,26.32,0,0,1,2.34,4.35,33.48,33.48,0,0,0,4.28,7.3,8.68,8.68,0,0,0,5.42,3.24v-4.32a7.34,7.34,0,0,1-3.41-3.24" transform="translate(-112.98 -473.02)"/><polygon class="cls-3" points="185.13 37.36 185.12 37.37 185.12 41.23 193.83 42.41 193.83 38.53 185.13 37.36"/><polygon class="cls-3" points="185.13 43.05 185.12 43.08 185.12 46.93 193.83 48.11 193.83 44.23 185.13 43.05"/><polygon class="cls-3" points="222.34 37.72 222.34 37.74 222.34 41.93 231.04 43.1 231.04 38.9 222.34 37.72"/><g class="cls-4"><path class="cls-5" d="M358.91,532.48v-3.69L367.4,519a3.84,3.84,0,0,0,1.18-2.71,2.76,2.76,0,1,0-5.52.06h-4.15c0-4.11,3-6.57,6.92-6.57s6.89,2.5,6.89,6.54c0,2.18-.86,3.34-2.42,5.14l-6.35,7.3h8.77v3.69Z" transform="translate(-112.98 -473.02)"/><path class="cls-5" d="M382.1,532.67c-3.7,0-6.92-2.4-6.92-6.69v-9.47c0-4.3,3.22-6.7,6.92-6.7s6.89,2.4,6.89,6.7V526C389,530.27,385.8,532.67,382.1,532.67Zm2.74-16.1c0-1.9-1.11-3.06-2.74-3.06a2.75,2.75,0,0,0-2.77,3.06V526a2.77,2.77,0,1,0,5.51,0Z" transform="translate(-112.98 -473.02)"/><path class="cls-5" d="M391.51,532.48v-3.69L400,519a3.84,3.84,0,0,0,1.18-2.71,2.76,2.76,0,1,0-5.52.06h-4.15c0-4.11,3-6.57,6.93-6.57s6.89,2.5,6.89,6.54c0,2.18-.86,3.34-2.43,5.14l-6.35,7.3h8.78v3.69Z" transform="translate(-112.98 -473.02)"/><path class="cls-5" d="M412.83,532.48V514.42l-4.62,4V514l4.62-4H417v22.48Z" transform="translate(-112.98 -473.02)"/></g><polygon class="cls-6" points="12.59 24.18 12.59 14.31 4.61 14.31 4.61 24.18 0 24.18 0 0.6 4.61 0.6 4.61 10.37 12.59 10.37 12.59 0.6 17.2 0.6 17.2 24.18 12.59 24.18"/><path class="cls-6" d="M137.25,497.19a5.51,5.51,0,0,1-4.07-1.32,6.36,6.36,0,0,1-1.76-4.9V479.74h4.31v10.63c0,2.36,1.49,3.1,2.84,3.1h2.89V479.74h4.3V497.2h-8.51" transform="translate(-112.98 -473.02)"/><path class="cls-6" d="M167.08,497.2V486.51c0-2.36-1.49-3.15-2.85-3.15a2.78,2.78,0,0,0-2.88,3.05V497.2h-4.3V486.76c0-2.35-1.5-3.39-2.86-3.39h-2.88V497.2H147V479.74h8.51a5.32,5.32,0,0,1,4.57,2.19,6.58,6.58,0,0,1,5.17-2.19,6,6,0,0,1,4.24,1.52,6.54,6.54,0,0,1,1.89,4.91v11Z" transform="translate(-112.98 -473.02)"/><path class="cls-6" d="M198.25,497.2V486.5c0-2.36-1.49-3.15-2.84-3.15h-2.89V497.2h-4.3V479.74h8.51a5.56,5.56,0,0,1,4.07,1.53,6.36,6.36,0,0,1,1.76,4.9v11Z" transform="translate(-112.98 -473.02)"/><path class="cls-6" d="M178.47,497.19c-2,0-3.38-.32-4.41-1.35a5.52,5.52,0,0,1-1.43-3.88c0-2.74,1.89-5,5.9-5h4.08v-.86c0-1.89-.93-2.72-3.22-2.72h-6.73c0-.5,0-.48,0-3.65h6.89c4.83,0,7.35,2.05,7.35,6.1v11.35Zm4.14-7.28h-3.42c-1.55,0-2.42.73-2.42,1.95s.8,1.66,2.49,1.66h3.34Z" transform="translate(-112.98 -473.02)"/><path class="cls-6" d="M231.27,497.19c-2,0-3.38-.32-4.41-1.35a5.51,5.51,0,0,1-1.42-3.88c0-2.74,1.88-5,5.89-5h4.08v-.86c0-1.89-.93-2.72-3.22-2.72h-6.73c0-.5,0-.48,0-3.65h6.9c4.84,0,7.36,2.05,7.36,6.1v11.35Zm4.14-7.28H232c-1.55,0-2.41.73-2.41,1.95s.79,1.66,2.48,1.66h3.34Z" transform="translate(-112.98 -473.02)"/><path class="cls-6" d="M278.55,497.19c-1.95,0-3.38-.32-4.41-1.35a5.55,5.55,0,0,1-1.42-3.87c0-2.75,1.89-5,5.9-5h4.07v-.86c0-1.89-.93-2.72-3.21-2.72h-6.73c0-.5,0-.48,0-3.65h6.9c4.84,0,7.36,2.05,7.36,6.1v11.35Zm4.14-7.28h-3.41c-1.56,0-2.42.73-2.42,2s.79,1.65,2.49,1.65h3.33Z" transform="translate(-112.98 -473.02)"/><path class="cls-7" d="M253.65,495.84a5.92,5.92,0,0,1-4.21,1.35h-4.17v5.09H241V479.74h8.48a6,6,0,0,1,4.21,1.56c1.72,1.72,1.75,4.67,1.75,7.25s0,5.57-1.75,7.29m-5.47-12.48h-2.9v10.17h2.91c2.59,0,2.92-2.15,2.92-5s-.33-5.19-2.92-5.19" transform="translate(-112.98 -473.02)"/><path class="cls-6" d="M256.65,473.56h4.4v4.71h-4.4Zm.06,6.18H261V497.2h-4.31Z" transform="translate(-112.98 -473.02)"/><path class="cls-6" d="M269.12,497.2a4.68,4.68,0,0,1-5-4.94v-8.91H262.3v-3.61h1.82v-4.4h4.31v4.4h3v3.61h-3V492c0,1,.46,1.56,1.49,1.56h1.55v3.64Z" transform="translate(-112.98 -473.02)"/><rect class="cls-6" x="175.26" y="0.6" width="4.3" height="23.58"/><path class="cls-6" d="M215.72,493.22a3.81,3.81,0,0,1-2.95-1.22c-.83-.92-1.12-3-1.16-6.73s.33-5.61,1.16-6.53a3.81,3.81,0,0,1,2.95-1.22h8.55v-4h-8.6a8.58,8.58,0,0,0-6.36,2.44c-2.19,2.19-2.31,5.66-2.31,9.24v.06c0,3.59.12,7.26,2.31,9.45a8.58,8.58,0,0,0,6.36,2.44h8.6v-4h-8.55" transform="translate(-112.98 -473.02)"/><g class="cls-4"><path class="cls-8" d="M298.53,496.8V493l8.61-10a4,4,0,0,0,1.2-2.78,2.8,2.8,0,1,0-5.6.07h-4.21c0-4.21,3.08-6.73,7-6.73s7,2.55,7,6.69c0,2.24-.87,3.43-2.46,5.28L303.65,493h8.89v3.79Z" transform="translate(-112.98 -473.02)"/><path class="cls-8" d="M321.91,497c-3.75,0-7-2.46-7-6.86v-9.7c0-4.4,3.27-6.86,7-6.86s7,2.46,7,6.86v9.7C328.9,494.53,325.66,497,321.91,497Zm2.78-16.5c0-1.94-1.13-3.14-2.78-3.14a2.82,2.82,0,0,0-2.82,3.14v9.61a2.79,2.79,0,0,0,2.82,3.1c1.65,0,2.78-1.16,2.78-3.1Z" transform="translate(-112.98 -473.02)"/><path class="cls-8" d="M331.31,496.8V493l8.61-10a4,4,0,0,0,1.2-2.78,2.8,2.8,0,1,0-5.6.07h-4.21c0-4.21,3.08-6.73,7-6.73s7,2.55,7,6.69c0,2.24-.87,3.43-2.46,5.28L336.42,493h8.9v3.79Z" transform="translate(-112.98 -473.02)"/><path class="cls-8" d="M352.77,496.8V478.29l-4.69,4.08v-4.53l4.69-4.08H357v23Z" transform="translate(-112.98 -473.02)"/></g></g></g></svg>