<svg xmlns="http://www.w3.org/2000/svg" viewBox="0 0 27.64 34.02"><defs><style>.cls-1{fill:#fff;}.cls-2{fill:#231815;}.cls-3{fill:none;stroke:#231815;stroke-width:0.75px;}</style></defs><title>ceroKT_s</title><g id="レイヤー_2" data-name="レイヤー 2"><g id="レイヤー_1-2" data-name="レイヤー 1"><rect class="cls-1" width="27.64" height="34.02" rx="1.91"/><path class="cls-2" d="M25.7,3.89a2.12,2.12,0,0,0-2.12-2.13H4.45A2.13,2.13,0,0,0,2.32,3.89V25.18H25.7Z"/><path class="cls-1" d="M2.32,25.18V29.4a2.13,2.13,0,0,0,2.13,2.13H23.58A2.13,2.13,0,0,0,25.7,29.4V25.18Z"/><rect class="cls-3" x="2.32" y="1.76" width="23.38" height="29.76" rx="2.13"/><path class="cls-1" d="M11,4.42a3.89,3.89,0,0,0-2.17-.67c-1.78,0-2.29,1.42-2.29,3,0,1.8.87,3.25,2.81,3.25a6,6,0,0,0,2.8-.84L11.51,11a9.75,9.75,0,0,1-2.58.31,4.93,4.93,0,0,1-3.48-1.11A4.39,4.39,0,0,1,3.91,6.85,4.46,4.46,0,0,1,5.33,3.58,5.6,5.6,0,0,1,9,2.43l2,.17Z"/><path class="cls-1" d="M15.4,11.94a3.54,3.54,0,0,0,1.37.2,2.24,2.24,0,0,0,1.89-.72h.07l-.52,2H12.45v0c.64-.4.55-1.13.55-1.8V6.68c0-.67.09-1.41-.55-1.8v0H17a1.39,1.39,0,0,0,.55-.07h0V6.66h0c-.36-.62-1.1-.55-1.73-.55H15.4v2.1h1.21a1.37,1.37,0,0,0,.48-.06h.07V10h-.07c-.18-.52-.78-.47-1.26-.47H15.4Z"/><path class="cls-1" d="M10,14.15a1.33,1.33,0,0,1,.75.18,1.36,1.36,0,0,1,.52,1.11,1.67,1.67,0,0,1-1.4,1.64V14.15H10m-.13,3.62,1.5,2.83a1.5,1.5,0,0,0,1.74.88l1.8-.12a5.92,5.92,0,0,1-1.25-1.56l-1.55-2.58a2.3,2.3,0,0,0,1.55-2.06,2.12,2.12,0,0,0-1.16-2,3.35,3.35,0,0,0-1.74-.3H6.94v0c.64.4.55,1.14.55,1.82v4.83c0,.67.09,1.42-.55,1.81v0h3.49v0c-.64-.39-.54-1.14-.54-1.81Z"/><path class="cls-1" d="M17,19.23c0-1.33.67-2.8,2.21-2.8,1.78,0,2.36,2.11,2.36,3.6a3,3,0,0,1-.48,1.81,2.17,2.17,0,0,1-1.73.91,2.09,2.09,0,0,1-1.75-1.12,5.47,5.47,0,0,1-.61-2.4m-2.52.35a4.41,4.41,0,0,0,4.73,4.47c2.63,0,4.88-1.65,4.88-4.48s-2-4.44-4.73-4.44S14.47,16.82,14.47,19.58Z"/><path class="cls-2" d="M5.9,29.43l-.29.43a4.87,4.87,0,0,0-.75-.69A2.41,2.41,0,0,1,4,30.58l-.3-.37a2.35,2.35,0,0,0,.86-2H3.77v-.39h.8v-.73H3.91v-.39h.66v-.82H5c.11,0,.11.05,0,.12v.7H5.7v.39H5v.73H5.8v.39H5c0,.22,0,.39,0,.52a4.23,4.23,0,0,1,1,.67M7.19,29H6.82v.21c0,.85-.48,1.35-1.45,1.49l-.13-.43c.78-.09,1.17-.46,1.17-1.1V29H6V26.11H8.16V29H7.6v1c0,.11.05.16.15.16H8c.07,0,.11-.07.12-.2l0-.35.41.12-.07.47a.34.34,0,0,1-.39.35H7.56c-.24,0-.37-.11-.37-.35V29m-.78-2.05H7.75V26.5H6.41v.43m0,.82H7.75v-.43H6.41v.43m1.34.39H6.41v.45H7.75Z"/><path class="cls-2" d="M9.08,30.25a2.07,2.07,0,0,0,1-2l.47.08s0,.08,0,.12l-.1.74a2.57,2.57,0,0,0,.8.63v-2H9.79v-.38h3.1v.38H11.6v.76H13V29H11.6v1a2.55,2.55,0,0,0,.61.08h1.36l-.08.39H12.21a2.47,2.47,0,0,1-1.94-.86,2.31,2.31,0,0,1-.87,1l-.32-.39m2.5-3.75h1.88v1.09h-.41v-.7H9.65v.74H9.24V26.5h1.87v-.59h.45c.14,0,.14.08,0,.16Z"/><path class="cls-2" d="M18.92,30.07l-.06.39H16.23a1.32,1.32,0,0,1-1.1-.55,2.07,2.07,0,0,1-.62.63l-.27-.45a3.53,3.53,0,0,0,.66-.41V28.41h-.63V28h1.1v1.7a1,1,0,0,0,.84.41h2.71m-3.53-3.38-.41.39a3.07,3.07,0,0,0-.59-.78l.37-.33a3.78,3.78,0,0,1,.63.72m2.9,2.66V27.57h-.91v.3h.68v.33h-.68v.31h.54v1H16.85v.21H16.5V28.51H17V28.2h-.69v-.33H17v-.3h-.92v2.25H15.7V27.24h.76l-.29-.55h-.61V26.3h1.37v-.43h.45c.14,0,.15.08,0,.16v.27h1.46v.39h-.64l-.41.55h.89V29.5a.29.29,0,0,1-.33.32H18l0-.39h.22c.06,0,.09,0,.09-.08m-.56-2.66H16.64l.25.55h.51l.33-.55m-.88,2.07v.47h.72v-.47Z"/><path class="cls-2" d="M24.13,27.59l-.21.47a4.52,4.52,0,0,1-2.19-1.62,3,3,0,0,1-1,1.21H23V28h-2.3v-.37a3.8,3.8,0,0,1-.86.53l-.28-.39a3.59,3.59,0,0,0,2-1.86l.54.1c.09,0,.09.06,0,.12a4.19,4.19,0,0,0,2.11,1.42m-3.41,3h-.41v-2h3.06v2H23v-.23H20.72v.29m0-.68H23v-1H20.72Z"/></g></g></svg>