<svg id="レイヤー_1" data-name="レイヤー 1" xmlns="http://www.w3.org/2000/svg" xmlns:xlink="http://www.w3.org/1999/xlink" viewBox="0 0 358.28 166.11"><defs><style>.cls-1{opacity:0.66;}.cls-2{fill:url(#名称未設定グラデーション_25);}.cls-3{fill:url(#名称未設定グラデーション_25-2);}.cls-4{fill:url(#名称未設定グラデーション_25-3);}.cls-5{fill:url(#名称未設定グラデーション_25-4);}.cls-6{fill:url(#名称未設定グラデーション_25-5);}.cls-7{fill:url(#名称未設定グラデーション_25-6);}.cls-8{fill:url(#名称未設定グラデーション_25-7);}.cls-9{fill:url(#名称未設定グラデーション_25-8);}.cls-10{fill:url(#名称未設定グラデーション_25-9);}.cls-11{fill:url(#名称未設定グラデーション_25-10);}.cls-12{fill:url(#名称未設定グラデーション_25-11);}.cls-13{fill:url(#名称未設定グラデーション_25-12);}.cls-14{fill:url(#名称未設定グラデーション_25-13);}.cls-15{fill:url(#名称未設定グラデーション_25-14);}.cls-16{fill:url(#名称未設定グラデーション_25-15);}.cls-17{fill:url(#名称未設定グラデーション_25-16);}.cls-18{fill:url(#名称未設定グラデーション_25-17);}.cls-19{fill:#fff;}</style><linearGradient id="名称未設定グラデーション_25" x1="-27.81" y1="-8.53" x2="210.19" y2="121.47" gradientUnits="userSpaceOnUse"><stop offset="0" stop-color="#56ad03"/><stop offset="0.37" stop-color="#5dbc03"/><stop offset="1" stop-color="#d5ff00"/></linearGradient><linearGradient id="名称未設定グラデーション_25-2" x1="-10.66" y1="-39.93" x2="227.34" y2="90.07" xlink:href="#名称未設定グラデーション_25"/><linearGradient id="名称未設定グラデーション_25-3" x1="0.04" y1="-59.52" x2="238.04" y2="70.48" xlink:href="#名称未設定グラデーション_25"/><linearGradient id="名称未設定グラデーション_25-4" x1="-20.02" y1="-22.8" x2="217.98" y2="107.2" xlink:href="#名称未設定グラデーション_25"/><linearGradient id="名称未設定グラデーション_25-5" x1="7.43" y1="-73.06" x2="245.43" y2="56.94" xlink:href="#名称未設定グラデーション_25"/><linearGradient id="名称未設定グラデーション_25-6" x1="-47.71" y1="27.91" x2="190.29" y2="157.91" xlink:href="#名称未設定グラデーション_25"/><linearGradient id="名称未設定グラデーション_25-7" x1="-35.56" y1="5.65" x2="202.44" y2="135.65" xlink:href="#名称未設定グラデーション_25"/><linearGradient id="名称未設定グラデーション_25-8" x1="-25.97" y1="-11.9" x2="212.03" y2="118.1" xlink:href="#名称未設定グラデーション_25"/><linearGradient id="名称未設定グラデーション_25-9" x1="-3.18" y1="-53.62" x2="234.82" y2="76.38" xlink:href="#名称未設定グラデーション_25"/><linearGradient id="名称未設定グラデーション_25-10" x1="17.66" y1="-91.77" x2="255.66" y2="38.23" xlink:href="#名称未設定グラデーション_25"/><linearGradient id="名称未設定グラデーション_25-11" x1="6.39" y1="-71.14" x2="244.39" y2="58.86" xlink:href="#名称未設定グラデーション_25"/><linearGradient id="名称未設定グラデーション_25-12" x1="-55.51" y1="42.18" x2="182.49" y2="172.18" xlink:href="#名称未設定グラデーション_25"/><linearGradient id="名称未設定グラデーション_25-13" x1="-12.13" y1="-37.25" x2="225.87" y2="92.75" xlink:href="#名称未設定グラデーション_25"/><linearGradient id="名称未設定グラデーション_25-14" x1="-82.87" y1="92.27" x2="155.13" y2="222.27" xlink:href="#名称未設定グラデーション_25"/><linearGradient id="名称未設定グラデーション_25-15" x1="-72.54" y1="73.36" x2="165.46" y2="203.36" xlink:href="#名称未設定グラデーション_25"/><linearGradient id="名称未設定グラデーション_25-16" x1="-64.52" y1="58.68" x2="173.48" y2="188.68" xlink:href="#名称未設定グラデーション_25"/><linearGradient id="名称未設定グラデーション_25-17" x1="-57.95" y1="46.66" x2="180.05" y2="176.66" xlink:href="#名称未設定グラデーション_25"/></defs><title>top_h1</title><rect class="cls-1" x="183.28" y="125.11" width="175" height="41"/><path class="cls-2" d="M23,8.55V40.67H13.65V8.55H0V.1h36.6V8.55Z"/><path class="cls-3" d="M106.58.1h11.64L101.13,19.72l17.81,21H107.1L90.52,20.08V40.67H81.31V.1h9.21V19.36Z"/><path class="cls-4" d="M129.58.1l9.11,16.37L147.85.1h10.76L143.32,24.82V40.67h-9.26V24.82L118.77.1Z"/><path class="cls-5" d="M40.05,0V40.79h38V0ZM69.38,31.88H48.74v-23H69.38Z"/><path class="cls-6" d="M159.51,0V40.79h38V0Zm29.33,31.88H168.2v-23h20.64Z"/><path class="cls-7" d="M82.17,103.17H71.77l-3-8.45H52.62l-3,8.45H39.18L54.63,62.6h12ZM60.65,71.56,55.09,86.74H66.21Z"/><path class="cls-8" d="M96.93,62.6l8.9,29.29,8.91-29.29h13.44v40.57h-8.76V83.65c0-1.28.26-9.93.31-11.42l-9.57,30.94h-8.65L91.93,72.23c0,1.28.31,10.14.31,11.42v19.52H83.49V62.6Z"/><path class="cls-9" d="M163.87,62.6V71H140.5v7.52H163v8.08H140.5v8.08h23.94v8.45h-33.2V62.6Z"/><path class="cls-10" d="M236.81,62.6V78h19.77V62.6h9.27v40.57h-9.27V86.49H236.81v16.68h-9.22V62.6Z"/><path class="cls-11" d="M318.28,62.6,322.81,94l4.53-31.35h12.25L344.12,94l4.53-31.35h9.63l-7.83,40.57H338l-4.53-30.94-4.53,30.94h-12.4L308.65,62.6Z"/><path class="cls-12" d="M269.38,62.49v40.79h38V62.49ZM298.7,94.37H278.07v-23H298.7Z"/><polygon class="cls-13" points="38.03 76.71 38.03 62.49 0.01 62.49 0.01 103.28 38.03 103.28 38.03 89.11 38.03 80.3 29.34 80.3 18.96 80.3 18.96 89.11 29.34 89.11 29.34 94.37 8.7 94.37 8.7 71.41 29.34 71.41 29.34 76.71 38.03 76.71"/><polygon class="cls-14" points="223.96 70.61 223.96 62.21 190.78 62.21 190.78 66.06 190.78 70.61 190.78 78.44 190.78 84.26 190.78 86.85 215.56 86.85 215.56 94.69 190.78 94.69 190.78 103.08 215.56 103.08 223.96 103.08 223.96 94.69 223.96 86.85 223.96 84.89 223.96 78.44 199.18 78.44 199.18 70.61 223.96 70.61"/><path class="cls-15" d="M13.55,152.14c-2.68.31-4.33.77-4.33,3.82v1.28H36.48v8.45H0V157.6c0-3.91,0-12.36,10.05-13.55l13.19-1.54c3-.37,4.38-.88,4.38-4.33,0-3.61-1.13-5.05-8.76-5.05-8.61,0-8.91,1.08-9,6.13H.77c0-8.66.47-14.58,17.37-14.58,10.72,0,18.65.72,18.65,13,0,5.26-1.34,7.94-3.14,9.53a13.21,13.21,0,0,1-7.58,3.41Z"/><path class="cls-16" d="M59.16,124.68c16.48,0,18.75,3.81,18.75,21.07,0,16.59-3.09,20.36-17.62,20.36-15.56,0-19.27-1.86-19.27-20.72C41,128.7,44,124.68,59.16,124.68Zm-8.87,20.87c0,12,.62,12.16,9.74,12.16,7.73,0,8.61-.62,8.61-11.19,0-2.21-.11-9-.78-10.76-.87-2.43-3.76-2.63-8.4-2.63C50.91,133.13,50.29,133.39,50.29,145.55Z"/><path class="cls-17" d="M98.88,125.09v40.6H89.56V133.54H81.21v-8.45Z"/><path class="cls-18" d="M114.7,153.79c-.15,2.53.67,4.07,7,4.07,7.78,0,9.79-.82,9.84-9.53-1.49,1.34-3.19,2.94-11.33,2.94-7.58,0-15.2-1.34-15.2-13,0-13.55,8.45-13.55,17.36-13.55,15.72,0,18.34,3.09,18.34,19.37,0,17.42-1.54,22.06-18.65,22.06-10.3,0-16.59-1.7-16.54-12.32Zm16.8-16c0-4.64-2.57-4.85-9.48-4.85-6.65,0-7.88.88-7.88,5.1s2,5.21,8.55,5.21C130.11,143.23,131.5,142.14,131.5,137.77Z"/><path class="cls-19" d="M208.63,157.75v-1.19H194.8v1.19h-4.7V146.4h4.7v5.73h4.56v-7.44h-8.49V134.43h4.7v5.83h3.79v-7.41h4.71v7.41h3.73v-5.83h4.7v10.26h-8.43v7.44h4.56V146.4h4.7v11.35Z"/><path class="cls-19" d="M239.34,157.75a16.06,16.06,0,0,1-7.47-3.38v2.21c-4.84.81-9.68,1.25-9.68,1.25l-.55-2.68a13.81,13.81,0,0,1-1,2.6l-3.68-3.3c1.72-2.9,1.72-8.46,1.72-13.36v-7.44h21.52v7.94h-2.88v1.22h2.85V146h-2.85v1.22h3.88v3.59h-2.24l2.13,1a7.89,7.89,0,0,1-1.91,1.58,18.16,18.16,0,0,0,2.6.58Zm-15.6-6.95h-1.22a28.78,28.78,0,0,1-.53,2.88c.42,0,1-.06,1.75-.11Zm1.77-4.81H223c0,.3-.05.91-.05,1.22h2.6Zm0-4.4h-2.46v1.22h2.46Zm10.23-4.34H223.07v.94h12.67Zm-5.31,15.52a8.43,8.43,0,0,1-1.44-2h-.83v2.3Zm2.44-11.18h-2.93v1.22h2.93Zm0,4.4h-2.93v1.22h2.93Zm1.1,4.81a9.07,9.07,0,0,0,1.41,1,6.06,6.06,0,0,0,1.5-1Z"/><path class="cls-19" d="M248.33,157.77v-8.54a13.69,13.69,0,0,1-2.46,1.41l-1.3-4.65a15.07,15.07,0,0,0,6.81-5.73h-6.06v-4.15h3v-3.26h4.43v3.26h3.43v4a19.05,19.05,0,0,1-2.49,4.12c.69.78,1.72,1.52,4.23,2.68l-2.27,3.88a9.45,9.45,0,0,1-2.9-2.47v9.49Zm7.11-.58v-4.42h5.34v-8.41h-4.23v-4.43h4.23v-7.08h4.43v7.08h3.9v4.43h-3.9v8.41h4.29v4.42Z"/><path class="cls-19" d="M295.25,153.6a29.64,29.64,0,0,1-2.71-1.22c-.33,5-1.41,5.12-6.89,5.12h-.52l-1.08-2.22c-1.66,1.58-4.23,2.36-8.52,2.47L273.7,154c.45,0,.89,0,1.36,0,2.41,0,5.06-.22,6.14-.91h-3.79v-.8a19.92,19.92,0,0,1-3.1,1.38l-2-3.51a31,31,0,0,0,5.09-1.47h-5.12v-3.13h8a4.56,4.56,0,0,0,.36-.69H274.4v-7h3.09v-.7h-4.64v-3.09h4.64v-1.22h4.43v1.22h5.42v-1.22h4.43v1.22h4.65v3.09h-4.65v.7h3.37v7h-9.68a6.65,6.65,0,0,1-.28.69h12v3.13h-4.62a27.29,27.29,0,0,0,4.65,1.52Zm-4.84-13.72H279.13v.69h11.28Zm0,2.26H279.13v.72h11.28Zm-1.33,8.14a9.36,9.36,0,0,1-2-1.58H283a8.58,8.58,0,0,1-2.1,1.58h1.6a7.08,7.08,0,0,0,.19-.92h4.43c-.08.34-.17.67-.25.92Zm-1.74-13.12h-5.42v.7h5.42Zm-1.77,15.94a5.65,5.65,0,0,1-.5.94c3.05,0,3.21-.08,3.21-.94Z"/><path class="cls-19" d="M322.81,157.61a18.51,18.51,0,0,1-8.27-5v5.15h-4.43V152.6a18.2,18.2,0,0,1-8.16,5l-2-4.26a30.39,30.39,0,0,0,6.47-1.72h-5.81v-3.46h9.52v-.94h-7.63v-5.39a6.72,6.72,0,0,1-1.39,1.08L299.93,138a9.7,9.7,0,0,0,4.76-5.09l4.54.55a7.77,7.77,0,0,1-.53,1.22h3.43a9.12,9.12,0,0,0,1-1.69l4.51.39a9,9,0,0,1-.72,1.3h6.69v3.18h-7.33v.69h6.56v2.21h-6.56v.69h6.56v2.22h-6.56v.69H324v2.9h-9.43v.94h9.62v3.46h-5.92a31.82,31.82,0,0,0,6.59,1.72Zm-11-19.78h-5v.69h5Zm0,2.9h-5v.69h5Zm0,2.91h-5v.69h5Z"/><path class="cls-19" d="M346.77,152.41v-1.28h-4.46v6.62h-4.62v-6.62h-4.42v1.28H328.7V136.72h9v-3.87h4.62v3.87h9v15.69Zm-9.08-11.32h-4.42v5.67h4.42Zm9.08,0h-4.46v5.67h4.46Z"/></svg>