<svg id="レイヤー_1" data-name="レイヤー 1" xmlns="http://www.w3.org/2000/svg" viewBox="0 0 34.66 34.66"><defs><style>.cls-1{fill:#f94a19;}.cls-2{fill:#fff;}</style></defs><title>Icon_new</title><path class="cls-1" d="M29.51,19.15c1.49-.62,3.19-1.21,5.15-1.82-1.7-.53-3.19-1-4.53-1.57,1.17-.84,2.49-1.7,4-2.62-1.77-.11-3.34-.24-4.77-.43.93-1.1,2-2.25,3.26-3.52-2,.38-3.79.66-5.4.81.62-1.49,1.4-3.11,2.35-4.92-1.57.82-3,1.51-4.31,2.09.23-1.43.56-3,1-4.7-1.32,1.19-2.53,2.2-3.68,3.08-.11-1.44-.17-3-.18-4.79-1.15,1.69-2.21,3.14-3.24,4.38C18.53,3.65,17.94,2,17.33,0c-.53,1.7-1,3.19-1.57,4.53-.84-1.17-1.7-2.5-2.62-4-.11,1.78-.24,3.35-.43,4.78-1.1-.94-2.25-2-3.52-3.26.39,2,.66,3.79.81,5.39C8.51,6.81,6.89,6,5.08,5.08c.82,1.57,1.51,3,2.09,4.31-1.42-.24-3-.57-4.69-1,1.18,1.33,2.19,2.54,3.07,3.68-1.44.12-3,.17-4.79.18,1.69,1.16,3.14,2.22,4.38,3.25C3.65,16.13,2,16.72,0,17.33c1.7.53,3.19,1,4.53,1.57-1.17.84-2.5,1.7-4,2.62,1.78.1,3.35.24,4.78.43-.94,1.1-2,2.25-3.26,3.51,2-.38,3.79-.65,5.4-.8-.62,1.49-1.4,3.1-2.35,4.92,1.57-.82,3-1.52,4.31-2.09-.24,1.42-.57,3-1,4.69C9.73,31,10.94,30,12.08,29.11c.12,1.43.17,3,.18,4.79,1.16-1.7,2.22-3.14,3.25-4.39.62,1.49,1.21,3.19,1.82,5.15.53-1.7,1-3.19,1.57-4.53.84,1.17,1.7,2.49,2.62,4,.1-1.77.24-3.34.43-4.77,1.1.93,2.25,2,3.51,3.26-.38-2-.65-3.79-.8-5.4,1.49.62,3.1,1.4,4.92,2.35-.82-1.57-1.52-3-2.09-4.31,1.42.23,3,.56,4.69,1C31,24.93,30,23.72,29.11,22.57c1.43-.11,3-.17,4.79-.18C32.2,21.24,30.76,20.18,29.51,19.15Z"/><path class="cls-2" d="M13.73,21.63H12.12L10.87,19a22.36,22.36,0,0,1-1-2.35h0c0,.83.08,1.91.08,3.19v1.75H8.47V14.5H10.2l1.21,2.56a22.27,22.27,0,0,1,1,2.26h0c-.08-.83-.14-1.94-.14-3.12V14.5h1.46Z"/><path class="cls-2" d="M18.82,21.43a4.58,4.58,0,0,1-1.71.29,2.35,2.35,0,0,1-2.55-2.6A2.51,2.51,0,0,1,17,16.34c1.23,0,2.11.83,2.11,2.59a4.52,4.52,0,0,1,0,.68H16.1c0,.62.59.9,1.27.9a3.93,3.93,0,0,0,1.24-.2ZM17.6,18.49c0-.46-.15-1-.71-1s-.77.61-.8,1Z"/><path class="cls-2" d="M26.67,16.44l-1.46,5.19H23.73l-.39-1.7a14.06,14.06,0,0,1-.29-1.62h0a11.8,11.8,0,0,1-.3,1.62l-.44,1.7H20.8l-1.4-5.19h1.69l.32,2.1c.07.54.17,1.1.22,1.65h0c.08-.55.22-1.12.32-1.63l.47-2.12h1.27l.44,2c.13.59.24,1.15.32,1.7h0c0-.54.13-1.12.23-1.7l.34-2Z"/></svg>