<svg xmlns="http://www.w3.org/2000/svg" width="338.66" height="95.52"><defs><style>.cls-1{fill:none}</style></defs><g id="レイヤー_2" data-name="レイヤー 2"><g id="object"><path d="M4.12 6.23a13 13 0 01-2.63 1.3L0 4.46C4.52 2.79 6.25 1.22 7.17 0h3.58c.7.79 2.5 2.79 7.08 4.41l-1.55 3a20.32 20.32 0 01-2.56-1.28v1.14h-9.6zm10.23 11.22c-.23-.45-.43-.81-.7-1.26-6.84.52-7.62.59-12.3.79l-.49-3.1h2.65a19.28 19.28 0 001.06-2.74H.79V8.26h16.26v2.88h-3.37A38.63 38.63 0 0117.25 16zM11.43 4.64A18.75 18.75 0 019 2.41a14.07 14.07 0 01-2.52 2.23zm1.28 6.5H7.85c-.16.44-.65 1.61-1.21 2.72.42 0 4.61-.12 5.33-.14-.66-.9-1-1.26-1.29-1.66zm15.08 4.29l-1.45 1.26A18.91 18.91 0 0024.39 14l1.69-1.11H22.2l1.81 1a9.43 9.43 0 01-2.61 3.41l-2-1.89a8 8 0 002.31-2.55h-2.09v-2.54h1.05V3.75h-.87V1.22h.87v-1h2.77v1h2v-1h2.75v1h1.08V.45h6.94v15c0 1.61-.89 1.71-1.81 1.71h-2.48l-.49-2.79h1.44c.51 0 .51-.39.51-.7v-2h-1.7a11.38 11.38 0 01-1.87 5.53zM23.44 3.75v.75h2v-.75zm0 2.86v.83h2v-.83zm0 2.81v.9h2v-.9zm3.17 3.44a15.26 15.26 0 011.33 1.56 8.75 8.75 0 00.7-1.56zm2.64-9.11h-1.08v6.57h1c.05-.51.12-1.5.12-2.43zm2.56-.35V5h1.57V3.4zm0 4.16v1.57h1.57V7.56zm12.35-4.18v3.3h-3.28v-3.3zm0 7.3V14h-3.28v-3.32zm26.63-1.25v7.76h-2.86V4.61h3.17a6 6 0 00-.25-1.06h-3.57V1h7V.13h3.05V1h7v2.55H80.9a7.72 7.72 0 01-.35 1.06h3.14v10.91c0 .52 0 1.67-1.66 1.67h-2.86l-.29-1.35h-7.22V10.5h8.28v3.63h.42c.46 0 .46-.23.46-.54v-3.8c-.16.11-.28.18-1 .18h-2.71c-.61 0-1.27-.19-1.27-1.08v-2h-.69c-.16 1.75-1.26 2.7-3.76 3.64zm0-2.5v1.3a2.49 2.49 0 001.86-1.3zM74 3.55c0 .18.19.63.28 1.06h3.12a7.5 7.5 0 00.27-1.06zm.3 9v1h3.1v-1zm6.57-5v-.6h-2.64v.85c0 .34.2.36.36.36.85 0 1 0 1.08-.88zm5.68-4.33h6.66v2.15h-6.66zm6.24 3.23V8H87V6h5.81v.4A5.19 5.19 0 0096.34 4l-2.43.68a11 11 0 00-.63-3.38l2.3-.67a15.15 15.15 0 01.85 3.21A4.8 4.8 0 0097 1.15v-1h2.7v1a4.86 4.86 0 00.39 2.29A22 22 0 00101 .58l2.5.73a16 16 0 01-1.26 3.41l-1.87-.8a6.09 6.09 0 003.53 2.45l-1.35 2.74a7.24 7.24 0 01-4.11-4 8.49 8.49 0 01-4.34 4zM87 .5h5.81v2.09H87zm5.81 14.75v1.35H89.5v.65H87V11.4h5.81v3.2a5.93 5.93 0 003.53-2.3l-2.23.7a30.16 30.16 0 00-.9-3.46l2.3-.63a18.91 18.91 0 011 3.17A5 5 0 0097 9.16V7.94h2.68v1.19a5.46 5.46 0 00.45 2.74 18.75 18.75 0 00.9-3l2.54.65a19 19 0 01-1.13 3.48l-2-.65a6.83 6.83 0 003.51 2.31l-1.32 2.72c-3-1.37-3.7-2.81-4.23-3.93a8.15 8.15 0 01-4.53 3.93zM87 8.68h5.81v2.09H87zm2.52 4.73v1.12h1.22v-1.12zM115 11.76h-1.55c-.16 1.28-.72 4.46-6.39 5.62l-1.21-3c2.34-.21 4.29-1.13 4.75-2.66h-2.95V.63h13.9v11.13H118v2.05c0 .45.11.5.47.5h1.31c.17 0 .45-.09.49-.28a9.09 9.09 0 000-1.75l2.94.74c-.06 1.94-.11 4-1.68 4h-4.73a1.6 1.6 0 01-1.8-1.49zM110.63 3v.8h8V3zm0 2.84v.81h8v-.8zm0 2.81v.83h8v-.82zm18.75 4.17a16.44 16.44 0 01-2.55 2.3l-1.73-3a16.7 16.7 0 006.07-6.72h-5.75V2.5h7V.05h3V2.5h7.06v2.88h-5.85a16.59 16.59 0 006.18 6.7l-1.77 3a14.33 14.33 0 01-2.63-2.28v1.6h-3.06v2.9h-2.93v-2.86h-3.05zm3.05-1.15V8.48a16.45 16.45 0 01-2.07 3.19zm5 0a21.16 21.16 0 01-2.07-3.19v3.19zM151.62.07h3.19v1.41h7v2.88h-7.08v1.13h5.92v8.64A1.73 1.73 0 01159 16h-3l-.63-3.13h1.81c.35 0 .35-.09.35-.42V8.32h-2.83v9h-3.08v-9H149V16h-3.1V5.49h5.76V4.36h-7V1.48h6.94zm28.61 5.42c0-.86-.24-1.42-2.47-1.42-2.72 0-3.4.29-3.44 3.33.52-.47 1.14-1 4-1 2.67 0 5.33.47 5.33 4.56 0 4.73-3 4.73-6.1 4.73-5.47 0-6.37-1.09-6.37-6.77 0-6.1.54-7.7 6.51-7.7 3.6 0 5.78.59 5.78 4.3zm-5.89 5.6c0 1.62.9 1.69 3.31 1.69s2.78-.3 2.78-1.78-.71-1.82-3-1.82c-2.6 0-3.09.38-3.09 1.91zm19.45-9.76l-5.68 14.19h-2.61l5.67-14.19zm1.9 3.91c0-3.26 2-4.05 6-4.05s6.5.45 6.5 4a2.82 2.82 0 01-1.71 3 2.1 2.1 0 011.08.62 4.46 4.46 0 01.86 2.79c0 3.74-3 4.08-6.23 4.08s-6.77-.07-6.77-4.05a4.5 4.5 0 01.88-2.82 2.13 2.13 0 011.06-.62 2.8 2.8 0 01-1.67-2.95zm3 6c0 1.37.63 1.6 3.31 1.6 2.84 0 3.33-.27 3.33-1.71s-.9-1.6-3.33-1.6c-2.71-.04-3.35.12-3.35 1.67zm.23-5.69c0 1.24.54 1.42 3.3 1.42 2.57 0 2.86-.34 2.86-1.51S204.71 4 202 4s-3.12.41-3.12 1.51zM218.63.14a10.88 10.88 0 00-3.92 8.54 10.86 10.86 0 003.92 8.53h-3.46a11.83 11.83 0 01-3.45-8.53 11.83 11.83 0 013.45-8.54zm1.67 12.44a21 21 0 006.54-6.75h-6.27V3h7V.14h3.07V3h7v2.83h-6.16a18.76 18.76 0 006.45 6.67L236 15.43a19.51 19.51 0 01-5.37-5.82v7.6h-3.07V9.56a20.91 20.91 0 01-5.37 5.83zm19.28 4.63a10.86 10.86 0 003.92-8.53 10.88 10.88 0 00-3.92-8.54H243a11.83 11.83 0 013.45 8.54 11.83 11.83 0 01-3.45 8.53zm16.67-8.53a2.85 2.85 0 11-2.84-2.85 2.83 2.83 0 012.84 2.85zm7.04 2.68c-.06.88.23 1.42 2.44 1.42 2.72 0 3.43-.28 3.44-3.33-.52.47-1.11 1-4 1-2.65 0-5.31-.47-5.31-4.56 0-4.73 3-4.73 6.07-4.73 5.49 0 6.41 1.08 6.41 6.77 0 6.08-.54 7.7-6.52 7.7-3.6 0-5.8-.59-5.78-4.3zm5.87-5.6c0-1.62-.91-1.69-3.32-1.69s-2.75.31-2.75 1.78.7 1.82 3 1.82c2.58 0 3.07-.38 3.07-1.91zM282.8.14a10.88 10.88 0 00-3.92 8.54 10.86 10.86 0 003.92 8.53h-3.46a11.83 11.83 0 01-3.45-8.53 11.83 11.83 0 013.45-8.54zm17.95 7.04c-.8-.36-1.57-.7-2.29-1.1v1.1h-3.71v1h6.43V11h-4.41l3 .81c-.13.36-.33.89-.88 2.16h2.71v2.83H285V14h2.68a20.87 20.87 0 00-.83-2.14l2.9-.83h-4.3V8.16h6.41v-1h-3.64V6.07c-1.19.57-1.69.77-2.27 1l-1.39-3a16.75 16.75 0 007.2-4.07H295a18.9 18.9 0 007.2 4.05zM291.82 11h-2.09a18.17 18.17 0 011 3h1.05zm1.53-8.64a13.82 13.82 0 01-2.45 2.14h5a18.71 18.71 0 01-2.55-2.16zm1.4 8.64v3h1a24 24 0 00.92-3zm9 6.21a10.86 10.86 0 003.92-8.53 10.88 10.88 0 00-3.92-8.54h3.46a11.83 11.83 0 013.45 8.54 11.83 11.83 0 01-3.45 8.53z"/><path class="cls-1" d="M4.12 33.23a13 13 0 01-2.63 1.3L0 31.46c4.52-1.67 6.25-3.24 7.17-4.46h3.58c.7.79 2.5 2.79 7.08 4.41l-1.55 3a20.32 20.32 0 01-2.56-1.28v1.11h-9.6zm10.23 11.22c-.23-.45-.43-.81-.7-1.26-6.84.52-7.62.59-12.3.79l-.49-3.1h2.65a19.28 19.28 0 001.06-2.74H.79v-2.88h16.26v2.88h-3.37A38.63 38.63 0 0117.25 43zm-2.92-12.81A18.75 18.75 0 019 29.41a14.07 14.07 0 01-2.47 2.23zm1.28 6.5H7.85c-.16.44-.65 1.61-1.21 2.72.42 0 4.61-.12 5.33-.14-.66-.9-1-1.26-1.29-1.66zm15.08 4.29l-1.45 1.26A18.91 18.91 0 0024.39 41l1.69-1.11H22.2l1.81 1a9.43 9.43 0 01-2.61 3.41l-2-1.89a8 8 0 002.31-2.55h-2.09v-2.54h1.05v-6.57h-.87v-2.53h.87v-1h2.77v1h2v-1h2.75v1h1.08v-.77h6.94v15c0 1.61-.89 1.71-1.81 1.71h-2.48l-.49-2.79h1.44c.51 0 .51-.39.51-.7v-2h-1.7a11.38 11.38 0 01-1.87 5.53zm-4.35-11.68v.75h2v-.75zm0 2.86v.83h2v-.83zm0 2.81v.9h2v-.9zm3.17 3.44a15.26 15.26 0 011.33 1.56 8.75 8.75 0 00.7-1.56zm2.64-9.11h-1.08v6.57h1c.05-.51.12-1.5.12-2.43zm2.56-.35V32h1.57v-1.6zm0 4.16v1.57h1.57v-1.57zm12.35-4.18v3.3h-3.28v-3.3zm0 7.3V41h-3.28v-3.32z"/><path d="M67.43 33.91h16.78v3.23H67.43zm29.64 3.37h-1.79v-2.7h7.66v2.7a13.46 13.46 0 01-1.79 3 10.82 10.82 0 002.85 1l-1 3a13.42 13.42 0 01-3.87-1.91 12.87 12.87 0 01-3.37 1.92l-1.16-2.13v.45a1.49 1.49 0 01-1.6 1.62h-2.4l-.47-2.79H92c.3 0 .37 0 .37-.43v-4.18l-.64.07v3.91h-1.6v-3.76c-.1 0-.36.05-.52.05 0 .47-.07 1.28-.16 2.09a15.33 15.33 0 01-1.24 5.08l-1.89-2.34a11.5 11.5 0 001.08-4.65h-.67l-.14-2.66h.84v-6.1h2a9.25 9.25 0 00.29-1.52l3 .2a12.51 12.51 0 01-.52 1.35h2.4v3.64a5.31 5.31 0 001-3.35v-1.28h5.69v3.22c0 .38.05.38.39.38s.29 0 .34-1.64l2 .68c-.33 3.05-.4 3.61-1.82 3.61H100c-1.12 0-1.12-.83-1.12-1.23v-2.45H98a8.19 8.19 0 01-1.64 4.4l-1.76-2.18v1.71a2.82 2.82 0 00.47-.07v2.43c-.07 0-.4.09-.47.09v5.16a9.18 9.18 0 002.4-1.22A10 10 0 0195.45 38zm-7.46-2.77c1.69-.09 1.86-.11 2.77-.2V31.1h-2.77zm.67-.4a12.13 12.13 0 00-.38-2.37l1.68-.31a16 16 0 01.52 2.32zM98 37.28a6.44 6.44 0 001 1.44 7.46 7.46 0 001-1.44zm15.56-9.56a17.84 17.84 0 01-5.75 8.3l-2.07-2.86a14.39 14.39 0 004.85-6.16zM120 44.3c-.16-.38-.32-.75-.66-1.46-3.15.45-7.53.62-12.3.81l-.41-3.11h2.28a65.41 65.41 0 003.09-8.1l3.23.59a59.16 59.16 0 01-3.14 7.46c2.76-.08 3.07-.09 5.71-.31a16.82 16.82 0 00-2.16-3l2.86-1.59a30.58 30.58 0 014.7 7.26zm1.55-8.3a18.63 18.63 0 01-5.72-8.19l3-.83a15.5 15.5 0 004.87 6.37zm4.37-8.37h7.49v6.45h-4.8v10.19h-2.69zm2.7 1.93v.72h2.2v-.72zm0 2.12v.72h2.2v-.72zm2.13 6.32v-1h-1.37v-2.38h9.13V37h-1.19v1h1.4v2.39h-1.4V44h-2.65v-3.66h-1.38a5.33 5.33 0 01-2.24 3.84L129 42.25a3.2 3.2 0 001.6-1.91h-1.42V38zm3.92 0v-1h-1.24v1zm-.25-10.32H142v14.7c0 .64-.18 1.89-1.6 1.89h-2.21l-.65-2.85h1.22c.43 0 .51-.05.51-.47v-6.87h-4.83zm2.72 1.93v.72h2.11v-.72zm0 2.12v.72h2.11v-.72zm42.7.76c0-.86-.24-1.42-2.47-1.42-2.72 0-3.4.29-3.44 3.33.52-.47 1.13-1 4-1 2.67 0 5.33.47 5.33 4.56 0 4.73-2.95 4.73-6.1 4.73-5.48 0-6.38-1.09-6.38-6.77 0-6.1.54-7.7 6.52-7.7 3.6 0 5.78.59 5.78 4.3zm-5.84 5.6c0 1.62.9 1.69 3.31 1.69S180 39.48 180 38s-.7-1.82-3-1.82c-2.57 0-3 .38-3 1.91zm19.39-9.76l-5.67 14.19h-2.61l5.67-14.19zm9.75 0v14.19h-3.26V31.29H197v-3zm11.16-.14c5.76 0 6.55 1.33 6.55 7.36 0 5.8-1.08 7.11-6.15 7.11-5.44 0-6.74-.64-6.74-7.23.04-5.84 1.04-7.24 6.34-7.24zm-3.1 7.29c0 4.21.22 4.25 3.41 4.25 2.7 0 3-.22 3-3.91a18.92 18.92 0 00-.27-3.76c-.3-.85-1.31-.92-2.93-.92-2.99 0-3.21.09-3.21 4.34zm19.88-8.34a11.23 11.23 0 000 17.07h-3.46a12.26 12.26 0 010-17.07zm8.92 0h3.18v4.27h6v3h-6v6.34h6.88v3h-17v-3H240v-6.33h-5.93v-3H240zm12 17.07a11.25 11.25 0 000-17.07h3.45a11.79 11.79 0 013.46 8.54 11.78 11.78 0 01-3.46 8.53zm16.7-8.53a2.85 2.85 0 11-2.85-2.85 2.83 2.83 0 012.85 2.85zm12.13-7.35v14.19h-3.26V31.29h-2.92v-3zm12.09 0v14.19h-3.26V31.29h-2.92v-3zm14.41-1.19a11.25 11.25 0 000 17.07h-3.45a11.78 11.78 0 01-3.46-8.53 11.79 11.79 0 013.46-8.54zm14.37 16.32h-7.85v.64h-3.12V27.76h14.15V44.1h-3.18zM313.85 34h7.85v-3.29h-7.85zm7.85 2.86h-7.85v3.59h7.85zm6.58 7.35a11.23 11.23 0 000-17.07h3.46a12.26 12.26 0 010 17.07z"/><path class="cls-1" d="M4.12 57.23a13 13 0 01-2.63 1.3L0 55.46c4.52-1.67 6.25-3.24 7.17-4.46h3.58c.7.79 2.5 2.79 7.08 4.41l-1.55 3a20.32 20.32 0 01-2.56-1.28v1.11h-9.6zm10.23 11.22c-.23-.45-.43-.81-.7-1.26-6.84.52-7.62.59-12.3.79l-.49-3.1h2.65a19.28 19.28 0 001.06-2.74H.79v-2.88h16.26v2.88h-3.37A38.63 38.63 0 0117.25 67zm-2.92-12.81A18.75 18.75 0 019 53.41a14.07 14.07 0 01-2.47 2.23zm1.28 6.5H7.85c-.16.44-.65 1.61-1.21 2.72.42 0 4.61-.12 5.33-.14-.66-.9-1-1.26-1.29-1.66zm15.08 4.29l-1.45 1.26A18.91 18.91 0 0024.39 65l1.69-1.11H22.2l1.81 1a9.43 9.43 0 01-2.61 3.41l-2-1.89a8 8 0 002.31-2.55h-2.09v-2.54h1.05v-6.57h-.87v-2.53h.87v-1h2.77v1h2v-1h2.75v1h1.08v-.77h6.94v15c0 1.61-.89 1.71-1.81 1.71h-2.48l-.49-2.79h1.44c.51 0 .51-.39.51-.7v-2h-1.7a11.38 11.38 0 01-1.87 5.53zm-4.35-11.68v.75h2v-.75zm0 2.86v.83h2v-.83zm0 2.81v.9h2v-.9zm3.17 3.44a15.26 15.26 0 011.33 1.56 8.75 8.75 0 00.7-1.56zm2.64-9.11h-1.08v6.57h1c.05-.51.12-1.5.12-2.43zm2.56-.35V56h1.57v-1.6zm0 4.16v1.57h1.57v-1.57zm12.35-4.18v3.3h-3.28v-3.3zm0 7.3V65h-3.28v-3.32z"/><path d="M68.93 64l-.39-.38 3.9-3.89-3.9-3.88.39-.39 3.88 3.9 3.89-3.9.38.39-3.9 3.88 3.9 3.89-.38.38-3.89-3.9zm1.61-4.27a1 1 0 01-1 1 1 1 0 110-2 1 1 0 011 .95zm3.27-3.26a1 1 0 11-1-1 1 1 0 011 .95zm0 6.52a1 1 0 11-2 0 1 1 0 012 0zm3.27-3.26a1 1 0 11-2 0 1 1 0 012 0zm2.35-1.22h11.18v2.14H79.43zm19.77 2.24H98V59h5.09v1.8a8.9 8.9 0 01-1.18 2 7 7 0 001.89.68l-.68 2a9.09 9.09 0 01-2.58-1.28 8.55 8.55 0 01-2.24 1.29L97.56 64v.3a1 1 0 01-1.09 1.08H94.9l-.31-1.86h1.24c.21 0 .26 0 .26-.29v-2.78h-.44v2.6h-1.06v-2.46a1.69 1.69 0 01-.35 0c0 .31 0 .85-.11 1.39a9.87 9.87 0 01-.83 3.38L92 63.84a7.32 7.32 0 00.72-3.09h-.44L92.22 59h.57v-4.08h1.32a6.48 6.48 0 00.2-1l2 .13a5.85 5.85 0 01-.35.9h1.61v2.42a3.5 3.5 0 00.69-2.23v-.84H102v2.15c0 .25 0 .25.26.25s.19 0 .23-1.09l1.35.46c-.21 2-.26 2.4-1.21 2.4h-1.49c-.74 0-.74-.56-.74-.82V56h-.65a5.5 5.5 0 01-1.09 2.93l-1.14-1.46v1.13a1.12 1.12 0 00.31-.05v1.62a1.55 1.55 0 01-.31.06v3.45a6.41 6.41 0 001.62-.82 7 7 0 01-1.06-1.67zm-5-1.85c1.13-.06 1.23-.07 1.85-.13v-2.13h-1.81zm.44-.26a8 8 0 00-.25-1.58l1.12-.21a9.21 9.21 0 01.34 1.55zm5.12 2.11a4.43 4.43 0 00.69 1 5.36 5.36 0 00.67-1zm10.46-6.37a11.91 11.91 0 01-3.83 5.53L105 58a9.49 9.49 0 003.22-4.13zm4.28 11.05c-.11-.25-.21-.51-.44-1-2.1.3-5 .4-8.19.54l-.28-2.08h1.52a41.26 41.26 0 002.1-5.41l2.15.4a38.55 38.55 0 01-2.09 5c1.84 0 2-.05 3.81-.2a11.3 11.3 0 00-1.44-2l1.9-1.05a19.87 19.87 0 013.13 4.83zm1-5.57a12.56 12.56 0 01-3.81-5.45l2-.56A10.26 10.26 0 00117 58.1zm2.99-5.54h5v4.3h-3.2v6.78h-1.79zm1.8 1.28v.48h1.46v-.48zm0 1.42v.48h1.46V57zm1.41 4.17v-.64h-.91V59h6.08v1.58h-.79v.64h.92v1.6h-.94v2.43h-1.76v-2.46h-.93a3.56 3.56 0 01-1.48 2.55l-1.41-1.28a2.1 2.1 0 001.07-1.27h-.95v-1.6zm2.62 0v-.64h-.83v.64zm-.17-6.87h5v9.82c0 .44-.12 1.26-1.07 1.26h-1.48l-.43-1.89h.83c.29 0 .33 0 .33-.31v-4.58h-3.21zM126 55.6v.48h1.4v-.48zm0 1.4v.48h1.4V57zm7.79-2.42a24.08 24.08 0 00-.49 5.31 23.46 23.46 0 00.4 4.82l-2.11.23a33.18 33.18 0 01-.34-5 29.38 29.38 0 01.43-5.46zm3.72 1.73v-1.77h2.13v1.77h2v2h-2v2.52a8.45 8.45 0 012.36 1.58l-1.29 1.83a4.68 4.68 0 00-.5-.53l-.65-.56c-.06.47-.23 1.82-2.57 1.82-2.07 0-2.91-1.21-2.91-2.41s.89-2.35 2.85-2.35a2.25 2.25 0 01.68.06v-2h-3.21v-2zm.09 5.77a1.93 1.93 0 00-.75-.16c-.68 0-1 .3-1 .69s.34.66.94.66c.83 0 .83-.35.83-.66zm15.63-6.82v9H144v-2.07h7v-4.88h-6.85v-2.05zm12.37-.17v9.33h-9.67v-9.33zm-2.2 2h-5.32v5.37h5.32zm13.81-1.83v9H168v-2.07h7v-4.88h-6.85v-2.05zm12.37-.17v9.33h-9.67v-9.33zm-2.2 2h-5.32v5.37h5.32zm6.78 6.77a4.62 4.62 0 00.73-.38c0-.15 0-.36-.06-.49a26.08 26.08 0 01-3 1.06l-.39-2.11.67-.12v-.25a26.1 26.1 0 00.25-2.65h-.74v-1.84h4.1v1.84H194c-.11.83-.2 1.34-.42 2.57.4-.09.55-.14.85-.22-.17-.62-.27-.89-.37-1.17l1.37-.44a17.77 17.77 0 01.81 2.35 3.47 3.47 0 00.36-1.55h-.6v-5.54h2.18a5.54 5.54 0 00.34-1l2.32.08a9.14 9.14 0 01-.55.89h2.36v5.54h-2.23v1.65h.24a7.16 7.16 0 00.27-1.39l1 .1a11.48 11.48 0 01-.35 1.22A3.39 3.39 0 00202 62a4.68 4.68 0 01-.11-.48l.82-.19a15.5 15.5 0 01.39 1.75l-.91.1a1 1 0 010-.22c-.91.16-1.2.21-1.81.29 0 .32 0 .43.31.43h.63c.29 0 .32-.19.36-.47l1.41.18c-.15 1.3-.22 1.91-1.33 1.91h-2a.87.87 0 01-1-1v-3.84h-.42c-.23 3-1.2 4-2.92 4.9zm-2.4-9.47h3.76v1.8h-3.76zm6 2v.66h.84v-.66zm0 1.92V59h.84v-.68zm2.36-1.92v.66h.88v-.66zm0 1.92V59h.88v-.68zm14.32-3.22c-.11 3.38-.86 8.49-8.05 9.89l-.94-2c5.37-1 6.15-3.53 6.55-5.82h-7.31v-2.07zM225 57v1.82h-3v3.89h3.39v1.84h-8.65v-1.87h3.33v-3.89h-3V57zm2.72 6.24a11.33 11.33 0 006.42-6.35h-5.68v-2h8.47a12 12 0 01-2.09 5.19 27.83 27.83 0 013.86 3.27l-1.79 1.74a41.74 41.74 0 00-3.37-3.44A12.91 12.91 0 01228.9 65zm22.87-5.51v1.94h-3.7v.2c-.4 3.43-2.26 4.62-5.25 5.19l-.85-1.89a5.94 5.94 0 003.21-1.26 3.62 3.62 0 00.71-2v-.22h-4.31v-1.96zm-.94-3v1.93h-8.28v-1.97zm8.79 10.37h-2v-3.89a16.53 16.53 0 01-3.21 1.41l-.84-1.69a14.14 14.14 0 003.88-1.8 13.77 13.77 0 003.35-3l1.58 1.22a16.15 16.15 0 01-2.8 2.59zm4.01-1.84c.57-.76 2.07-2.71 2.28-8.52l2.08.28c-.41 5.68-1.32 8.12-2.61 9.83zm8.07-8.46a13.28 13.28 0 01.41 1.75l.25-.06c.47 2.95.94 4.67 2.5 6.74l-1.93 1.53c-1.48-2.19-2.4-4.9-2.75-9.74zm.75 1.39a13.52 13.52 0 00-.54-1.94l.95-.23a9.64 9.64 0 01.62 1.88zm1.59-.15a14.09 14.09 0 00-.61-1.93l1-.18a8.63 8.63 0 01.61 1.88zm6.05 1.53c0 3.46-.49 6-2.14 7.53l-1.6-1.64a5.14 5.14 0 001.36-2.66 11.22 11.22 0 00.27-3v-2.93h2.11zm3.39 4.64c.61-.3 1.93-1 2.4-3.89l2 .85c-.5 1.84-1.54 5.56-6.5 5.68V54.57h2.1zm10.7-7.79v1.57c0 1.22 0 1.45.18 1.68l.07.06a19 19 0 013.81-.79l.26 2.21c-3 .27-6.63 1.14-6.63 2.66 0 1 1.42 1.06 2.84 1.06a38.76 38.76 0 004.15-.21v2.16c-.71.06-1.73.13-3.26.13-3.1 0-4-.31-4.75-.77a2.53 2.53 0 01-1.32-2.18 3.29 3.29 0 011.38-2.63 5.93 5.93 0 011.52-.94c-.44-.57-.54-1.32-.53-4zm7.28 5.84c-.29.32-.4.42-.58.6l-.43-2.86a8.14 8.14 0 001.66-4l2 .11a14.15 14.15 0 01-.69 2.9v8.43h-1.92zm3.93-2.26H303v-1.87h1.51a8.63 8.63 0 00-.85-1.7l1.7-.53a8.3 8.3 0 011 1.86l-1.25.37h2.33a14.37 14.37 0 00.8-2.22l2 .33a17 17 0 01-.87 1.89h1.26V58h-1.13v1.59h1.4v1.87h-1.4v3.92h-2v-3.92H306a6.58 6.58 0 01-2 4l-1.56-1.5a4.56 4.56 0 001.56-2.5h-1.34v-1.87h1.53zm1.93 1.59h1.36V58h-1.36zm9.05.41v5.43h-2v-5a6.86 6.86 0 01-.54.54l-.54-2.74a7.75 7.75 0 001.78-4.23l2 .12a14.13 14.13 0 01-.66 2.89v2.46a7.24 7.24 0 001.77-2.34h-1v-2.72h1.81v1h1V54h1.84v1.47h.94v-1h1.76v2.72h-1.57c-.17.42-.29.65-.41.89h2.24v1.45h-2.41v.45h2.07v1.32h-2.07v.48h2.07V63h-2.07v.49h2.48v1.63h-5.53v.3h-1.94v-4.31l-.54.47zm3-.49v.45h1.21v-.45zm0 1.77v.48h1.21v-.48zm0 1.73v.49h1.21V63zm.62-5.84a9 9 0 01-.33.89h1a7.42 7.42 0 00.35-.89zM4.12 84.23a13 13 0 01-2.63 1.3L0 82.46c4.52-1.67 6.25-3.24 7.17-4.46h3.58c.7.79 2.5 2.79 7.08 4.41l-1.55 3a20.32 20.32 0 01-2.56-1.28v1.11h-9.6zm10.23 11.22c-.23-.45-.43-.81-.7-1.26-6.84.52-7.62.59-12.3.79l-.49-3.1h2.65a19.28 19.28 0 001.06-2.74H.79v-2.88h16.26v2.88h-3.37A38.63 38.63 0 0117.25 94zm-2.92-12.81A18.75 18.75 0 019 80.41a14.07 14.07 0 01-2.47 2.23zm1.28 6.5H7.85c-.16.44-.65 1.61-1.21 2.72.42 0 4.61-.12 5.33-.14-.66-.9-1-1.26-1.29-1.66zm14.44.94a11 11 0 01-1.84 1l-.39-.61v.59a38.39 38.39 0 01-5 1.79l-.3-3.1c.41-.07.72-.15 1.58-.38v-4.44h-1.36v-2.84h1.33v-4H24v4h.9v2.84H24v3.6c.25-.09.4-.14.9-.34v.7a6.94 6.94 0 002.22-1.62h-2.33V85H37v2.23h-7.2c-.2.34-.27.43-.38.6h7.2c-.12 6.15-.36 7.32-2.28 7.32h-2.82l-.34-1.62a9.28 9.28 0 01-2.86 2l-1.67-1.59c3.24-1.4 4.08-3.07 4.48-3.85h-.69c-1 1.78-3 3.3-6 4.16l-1-1.82a10.14 10.14 0 004.52-2.34zm-1.69-11.47H36v5.87H25.46zm2.79 1.69v.7h4.9v-.7zm0 2v.68h4.9v-.68zm4.63 10.6c.61 0 .88-.16 1-2.77h-.45a11.42 11.42 0 01-1.61 2.77zm11.57-11.52v3.3h-3.28v-3.3zm0 7.3V92h-3.28v-3.32zm40.18-6.85h-7v.6h6v7.22h-3.76a11.62 11.62 0 005 2.54l-1.79 3A14.64 14.64 0 0177.59 91v4.23h-3v-4.07a16 16 0 01-5.67 4l-1.73-3a11.58 11.58 0 005.09-2.59h-3.62v-7.14h5.94v-.6h-7v-2.57h7v-1.21h3v1.21h7zm-13.15 3.34h3.12v-.76h-3.12zm0 2.5h3.12v-.74h-3.12zm6.11-3.26v.76h3.2v-.76zm0 2.52v.74h3.2v-.74zm15.01 3.75a6.81 6.81 0 01-.95 1.44h1.78a.43.43 0 00.49-.45v-2.56h-5.41V82.7h14.1v6.41H97v4.14c0 .58 0 2-1.79 2h-3.08l-.61-3A17 17 0 0188.84 95l-2-2.33a12.76 12.76 0 003.28-3.49zm1.23-12.57H97v1.11h7.13V82H87v-2.78h6.81zm-2.2 7.07v1.39h7.79v-1.39zM102.11 95a15.75 15.75 0 01-4.27-4.3l2.56-1.53a11.62 11.62 0 003.87 3.29zm8.43-15.78v4.67a29.23 29.23 0 007.09-2.76c0 .15.22.76.27.87l1.08-.29 1.34 1.85a46 46 0 01-9.78 3.44v3c0 .8.13.94 1.12.94h4.93c.12 0 1.84-.11 2.63-.2.39 0 .9-.16 1.44-.23l.18 3.28a23.65 23.65 0 01-3.49.27H111c-2.57 0-3.71-.92-3.71-3V79.22zm7.72 2.24a18 18 0 00-.9-2.83l1.61-.31a15.78 15.78 0 01.93 2.68zm2.6-.31a16.8 16.8 0 00-.94-2.81l1.53-.32a10.54 10.54 0 011 2.75zm4.93 6.91a20.17 20.17 0 00-1.44-4.64l2.47-.67a19.48 19.48 0 011.6 4.68zm.13 4.36c6-1.51 7.74-3.31 9.11-10.15l3.08.73c-1 4.07-2.36 9.93-10.69 11.91zm4.08-5.09a21.88 21.88 0 00-1.29-4.61l2.46-.49a16.43 16.43 0 011.37 4.52zm11.08-2.11a11.68 11.68 0 005.78-6.73l3.35.36a14.33 14.33 0 01-.9 2H153a5.5 5.5 0 01.15.81l3.4-.49c-.79 5.3-2.75 8-4.19 9.6-2.11 2.23-5 3.28-8.86 3.94l-1.3-2.95c4.3-.54 8.79-1.69 10.5-8h-5.3a14.15 14.15 0 01-4.32 3.76zm12.61-4.09c-.11-.61-.38-1.83-.65-2.75l1.64-.22a21.6 21.6 0 01.73 2.72zm2.53-.3a15 15 0 00-.7-2.6l1.66-.23a15.28 15.28 0 01.74 2.56zM170 78.77h3.26v3H176v3h-2.74v1.73c0 3.89-1.29 7-9 8.21l-1.26-2.9a11.31 11.31 0 005.62-1.81c.94-.68 1.33-1.76 1.33-3.54v-1.67h-4.43V89h-3.13v-4.21h-2.59v-3h2.59v-3h3.13v3H170zm18.31 15.78h-3.37v-7.24a26.77 26.77 0 01-5.72 2.5L177.63 87a27.22 27.22 0 007.8-3.73 29.27 29.27 0 005.42-4.88l2.79 2a32 32 0 01-5.33 4.7zM202 78.74v4.19a42.37 42.37 0 018.55 3.73L208.84 90a35 35 0 00-6.84-3.74v8.32h-3.42V78.74zm17.58-.15h17.07v2.81H231v1.43h5v12.4h-2.86v-.77h-10.1v.77h-2.85v-12.4h4.36V81.4h-5zm3.48 10.77v2.36h10.1v-1.48a1.57 1.57 0 01-1 .34h-2.51a1.28 1.28 0 01-1.29-1.36v-3.69h-1.28a7.86 7.86 0 01-2.45 5.7zm0-3.83v3.31a4.89 4.89 0 001.51-3.31zm4.1-4.13v1.43h1.23V81.4zm6 5.39v-1.26H231v2.07c0 .36 0 .54.31.54.57 0 .68 0 .75-1.57zm13.31-7.46v14.19h-3.26V82.29h-2.91v-3zm21.24 7.26a6.59 6.59 0 01-5 2.45 5.92 5.92 0 01-3.4-1 6.43 6.43 0 00-3.46-1.24 3.75 3.75 0 00-3.06 1.56L251 86.73a6.66 6.66 0 015-2.41 6.92 6.92 0 013.61 1.08 6.92 6.92 0 003.14 1.21 4 4 0 003.18-1.61zm13.45-7.26v8.59h2.16v3h-2.16v2.65h-3.22v-2.7h-8.23v-3.13l6.93-8.41zm-3.22 2.54l-4.92 6h4.92zm7.44 10.01a9 9 0 002.54-5.88l2.88.29a12.31 12.31 0 01-3 7.74zm9.89-13v2.59h5.87v3h-5.87v10.04H292V84.43h-5.8v-3h5.8v-2.55zm4 7c.56 3 .95 4.07 2.59 6.21l-2.54 2c-1-1.17-2.3-2.9-2.9-7.76zm20.5-.88v3.28h-15.88V85zm7.23-1.49c0 5.18-.74 9-3.21 11.31l-2.41-2.47a7.66 7.66 0 002.05-4 16.77 16.77 0 00.4-4.55v-4.34H327zm5.09 7C333 90 335 89 335.66 84.63l3 1.27c-.75 2.78-2.32 8.36-9.76 8.54V79h3.15z"/></g></g></svg>