<svg xmlns="http://www.w3.org/2000/svg" width="844.26" height="113.13"><defs><style>.cls-2{fill:#231815}</style></defs><g id="レイヤー_2" data-name="レイヤー 2"><g id="object"><path d="M38.69 32.86L8 30.08l-6.87 21 22.83 13L9.19 98.51l19 13.51L55.1 87.15 82 112l19-13.51-14.75-34.4 22.84-13-6.88-21-29 2.66-6.76-31.64H43.36l-4 19.69c3.8.69 12.44 1.86 21.31-.4.43-.11 1.07-.15 1.35.2a1.14 1.14 0 010 1.11c-.92 2-4.61 5.36-12.19 6.16a37.24 37.24 0 01-10.15-.16l-1.09 5.14" fill="#e6222e"/><path class="cls-2" d="M72.49 24.1C70.54 15 67.53.88 67.53.88A1.11 1.11 0 0066.45 0H43.36a1.11 1.11 0 00-1.09.89l-3.94 19.69a1.07 1.07 0 00.17.85 1.08 1.08 0 00.71.46 56.35 56.35 0 0017.38.45c1-.14 2.07-.39 2.84-.55.33-.07 1-.37 1.15-.07s-.12.56-.41.87a11.28 11.28 0 01-2.5 1.87 19.91 19.91 0 01-7.86 2.31 38 38 0 01-9.74-.12 1.08 1.08 0 00-.86.12 1.11 1.11 0 00-.51.71l-.28 1.3C38.22 29.72 38 31 38 31a.82.82 0 01-.86.63s-3.51-.28-6.32-.53L8.09 29a1.1 1.1 0 00-1.16.76l-6.87 21a1.07 1.07 0 00-.06.34 1.09 1.09 0 00.56 1l15.12 8.6 6.23 3.55a.82.82 0 01.34 1l-2.68 6.26-11.4 26.56a1.41 1.41 0 00-.08.44 1.12 1.12 0 00.46.91l19 13.5a1.1 1.1 0 001.4-.09l20.58-19 5.06-4.67a.8.8 0 011 0l5 4.6 20.67 19.09a1.09 1.09 0 001.39.09l19-13.5a1.13 1.13 0 00.47-.91 1.19 1.19 0 00-.09-.44L90.61 71.47c-1.58-3.71-2.67-6.25-2.67-6.25a.83.83 0 01.34-1l7.19-4.09 14.16-8.06a1.11 1.11 0 00.56-1 1.07 1.07 0 00-.06-.35l-6.87-21a1.09 1.09 0 00-1.15-.76L80.17 31l-5.38.5a.84.84 0 01-.86-.64s-.6-2.86-1.44-6.76zM40 32l.5-2.37a.83.83 0 01.86-.64 36.91 36.91 0 003.87.17 45.61 45.61 0 004.82-.16c8.26-.87 12.11-4.68 13.08-6.8a2.24 2.24 0 00-.19-2.25 2.29 2.29 0 00-2.49-.59 46.18 46.18 0 01-13.13 1.23c-2.56-.1-5.89-.56-5.89-.56a.66.66 0 01-.57-.8s.53-2.63 1.13-5.63c.18-.92.37-1.87.56-2.82.8-3.94 1.57-7.83 1.57-7.83a.92.92 0 01.86-.7h19.85a.94.94 0 01.88.7s.51 2.43 1.27 6c2 9.08 5.14 24 5.14 24a1.12 1.12 0 001.19.87l13.56-1.22 13.85-1.27a.93.93 0 01.93.61s1.25 3.8 2.57 7.86l.81 2.44 2.5 7.66a.92.92 0 01-.4 1l-10.74 6.15-10.69 6.08a1.1 1.1 0 00-.55 1 1.06 1.06 0 00.08.43l9.26 21.61c2.64 6.16 4.85 11.34 4.85 11.34a.91.91 0 01-.3 1.07l-8.57 6.11-1.07.76-6.71 4.77a.92.92 0 01-1.11-.07l-7.31-6.75-18.42-17a1.09 1.09 0 00-1.5 0L37.41 102l-8.8 8.13a.92.92 0 01-1.11.07l-7.88-5.6c-.22-.17-.45-.33-.68-.49l-7.79-5.55a.92.92 0 01-.3-1.07l5.37-12.56C20.26 75.5 25 64.52 25 64.52a1.06 1.06 0 00.08-.43 1.1 1.1 0 00-.55-1L14 57.16 3.06 50.93a.92.92 0 01-.4-1s1.34-4.09 2.71-8.3c.37-1.14.75-2.28 1.11-3.38l2.06-6.31a.94.94 0 01.94-.61l10.28.94C27.65 33 38.59 34 38.59 34a.89.89 0 00.28 0 .65.65 0 00.2 0 .91.91 0 00.14-.07.86.86 0 00.2-.13l.09-.1a.75.75 0 00.15-.2.31.31 0 00.05-.12 1.08 1.08 0 00.08-.19z"/><path class="cls-2" d="M49.18 19.26a1.19 1.19 0 01-.37-.06 1.24 1.24 0 01-.81-1.55 53.19 53.19 0 002.25-12.73 1.23 1.23 0 012.46.14 56.12 56.12 0 01-2.36 13.33 1.23 1.23 0 01-1.17.87zm12.1-6.65a1.54 1.54 0 11-3 0 1.54 1.54 0 113 0zM45.25 8.27a1.21 1.21 0 102.38 0 1.21 1.21 0 10-2.38 0z"/><path d="M42.45 44.44v1.31a4.31 4.31 0 01-3.63 1.66 4.47 4.47 0 01-3.14-1.09 4 4 0 01-.1-5.61 3.88 3.88 0 012.83-1.06 4.4 4.4 0 011.65.3 3.57 3.57 0 012.13 2.21 6 6 0 01.26 1.84h-3.92a1.76 1.76 0 00.7.89 2 2 0 001.14.32 2.75 2.75 0 002.08-.77zm-4.16-1.72h1.82a1.54 1.54 0 00-.28-.88.83.83 0 00-.66-.3.77.77 0 00-.61.29 1.3 1.3 0 00-.27.89zm9.18-2.92v.94a3.11 3.11 0 012.32-1 2.66 2.66 0 012 .73 3.06 3.06 0 01.69 2.17v4.65h-3.61v-4.37c0-.62-.24-.93-.71-.93a1.2 1.2 0 00-.69.24v5.06h-3.85V39.8zm12.41-.01v2.11h-1.61v1.6c0 .55.24.82.73.82a1.1 1.1 0 00.92-.54v3a3.9 3.9 0 01-2.21.6 3.43 3.43 0 01-2.33-.83 2.84 2.84 0 01-1-2.28V41.9h-1.52l5.41-4.24v2.13zm8.86 4.65v1.31a4.3 4.3 0 01-3.63 1.66A4.49 4.49 0 0162 46.32a4 4 0 01-.1-5.61 3.89 3.89 0 012.84-1.06 4.39 4.39 0 011.64.3 3.64 3.64 0 012.13 2.21 6 6 0 01.23 1.84h-3.92a1.78 1.78 0 00.71.89 2 2 0 001.13.32 2.75 2.75 0 002.08-.77zm-4.15-1.72h1.81a1.54 1.54 0 00-.28-.88.82.82 0 00-.65-.3.78.78 0 00-.62.29 1.3 1.3 0 00-.26.89zm9.18-1.28c.5-1.13 1.2-1.7 2.13-1.7a1.75 1.75 0 011.29.51 1.78 1.78 0 01.5 1.29 1.86 1.86 0 01-.49 1.33 1.74 1.74 0 01-1.3.51 2.05 2.05 0 01-1.55-.69 2.3 2.3 0 00-.58 1.81v2.79h-3.84V39.8h3.84zM34.35 59.6v-6.06H46.5v6.06h-3v7.61h-6.1V59.6zm21.16 7.84a6.74 6.74 0 01-5-2 7.16 7.16 0 010-10 7.09 7.09 0 0110 0 7.18 7.18 0 010 10 6.76 6.76 0 01-5 2zm0-8.86a1.28 1.28 0 00-1 .4 1.57 1.57 0 000 2.05 1.26 1.26 0 001 .41 1.24 1.24 0 001-.41 1.54 1.54 0 000-2.05 1.27 1.27 0 00-1-.4zm18.06 8.63h-6v-6l-5.21-7.71h6.12l2.11 3.1 2.11-3.1h6.13l-5.21 7.71zm-35.01 5.11v.94a3 3 0 012.3-1 2.64 2.64 0 012.42 1.3 4.41 4.41 0 011.29-1 3.25 3.25 0 011.43-.31 2.51 2.51 0 011.92.75 3 3 0 01.71 2.11v4.7H45v-4.48a1 1 0 00-.19-.62.69.69 0 00-.52-.22 1.25 1.25 0 00-.7.25v5.07H40v-4.48a1 1 0 00-.19-.61.65.65 0 00-.52-.23 1.19 1.19 0 00-.7.26v5.06h-3.88v-7.49zM58.23 77v1.31a4.29 4.29 0 01-3.63 1.65 4.49 4.49 0 01-3.14-1.08A3.71 3.71 0 0150.27 76a3.67 3.67 0 011.09-2.75 3.89 3.89 0 012.83-1.07 4.61 4.61 0 011.65.3 3.61 3.61 0 011.31.88 3.65 3.65 0 01.85 1.32 5.74 5.74 0 01.26 1.87h-3.95a1.79 1.79 0 00.7.9 2.1 2.1 0 001.14.32 2.75 2.75 0 002.08-.77zm-4.15-1.72h1.8a1.41 1.41 0 00-.27-.87.79.79 0 00-.66-.32.77.77 0 00-.61.31 1.25 1.25 0 00-.26.84zm9.68-2.96v.94a3.12 3.12 0 012.32-1 2.63 2.63 0 012 .74 3 3 0 01.7 2.16v4.66h-3.62v-4.38c0-.62-.24-.93-.71-.93a1.2 1.2 0 00-.69.24v5.06h-3.85v-7.49zm12.92-.01v2.11h-1.6V76c0 .55.24.81.72.81a1.13 1.13 0 00.93-.53v3a4 4 0 01-2.22.6 3.43 3.43 0 01-2.33-.88 2.87 2.87 0 01-1-2.28v-2.3h-1.52l5.42-4.24v2.13z" fill="#fff"/><path class="cls-2" d="M120 14.32h9.51v24.5H120zm208.78 0h9.5v24.5h-9.5zM159.06 39.01h-7.97l-7.13-9.8v9.61h-8.68v-24.5h7.49l7.61 10.32V14.32h8.68v24.69zm107.34 0h-7.96l-7.14-9.8v9.61h-8.7v-24.5h7.5l7.6 10.32V14.32h8.7v24.69zm129.33 0h-7.96l-7.14-9.8v9.61h-8.69v-24.5h7.48l7.62 10.32V14.32h8.69v24.69zM162.94 23.86v-9.54h21.78v9.54h-6.14v14.96h-9.51V23.86h-6.13zm139.69 0v-9.54h21.76v9.54h-6.12v14.96h-9.52V23.86h-6.12zm165.95 0v-9.54h21.78v9.54h-6.13v14.96h-9.51V23.86h-6.14zm154.24 0v-9.54h21.75v9.54h-6.13v14.96h-9.5V23.86h-6.12zm-414.1 9.52v5.44h-20.35v-24.5h20.35v5.52h-10.86v4.35h7.96v4.78h-7.96v4.41h10.86zm3.96-19.06h16a9.43 9.43 0 016.55 2.13 6.72 6.72 0 012.35 5.21c0 2.34-1.46 4.1-3.33 5.45a21.13 21.13 0 015.28 11.71H229a19.4 19.4 0 00-1.44-6.82c-.72-1.45-2.53-2.18-5.38-2.18v9h-9.5zm9.5 5.1v4.69h1.64c2.86 0 3.58-.75 3.58-2.33a2.57 2.57 0 00-.58-1.66 4.41 4.41 0 00-2.66-.7zm57.16 19.4h-9.5l8.51-24.5h15.46l8.5 24.5h-9.5l-1.41-4.13h-10.63zm3.4-9.94h6.68L286 19.39zm125.93 9.94h-9.5l8.51-24.5h15.45l8.52 24.5h-9.5l-1.42-4.13h-10.64zm3.39-9.94h6.7l-3.4-9.49zm-56.3 10.32a12 12 0 01-8.9-3.67 12 12 0 01-3.66-8.93 12.28 12.28 0 013.66-9 12.66 12.66 0 0117.81 0 12.26 12.26 0 013.64 9 12 12 0 01-3.64 8.93 12 12 0 01-8.91 3.67m0-17.5a3.57 3.57 0 00-2.83 1.3 4.05 4.05 0 00-1.13 2.93 4 4 0 001.13 3 3.84 3.84 0 005.67 0 4 4 0 001.14-3A4.06 4.06 0 00358.6 23a3.61 3.61 0 00-2.84-1.25M505.64 39.2a12 12 0 01-8.9-3.67 12.1 12.1 0 01-3.64-8.93 12.34 12.34 0 013.64-9 12.66 12.66 0 0117.81 0 12.32 12.32 0 013.66 9 12.08 12.08 0 01-3.66 8.93 12 12 0 01-8.91 3.67m0-17.5a3.59 3.59 0 00-2.83 1.3 4 4 0 00-1.12 2.93 4 4 0 001.12 3 3.84 3.84 0 005.67 0 4 4 0 001.13-3 4 4 0 00-1.13-2.93 3.59 3.59 0 00-2.84-1.25M593 39.2a12 12 0 01-8.89-3.67 12.08 12.08 0 01-3.66-8.93 12.32 12.32 0 013.66-9 12.66 12.66 0 0117.81 0 12.32 12.32 0 013.66 9 12.08 12.08 0 01-3.66 8.93A12 12 0 01593 39.2m0-17.5a3.58 3.58 0 00-2.8 1.3 4 4 0 00-1.11 2.93 4 4 0 001.11 3 3.84 3.84 0 005.67 0 4 4 0 001.14-3 4 4 0 00-1.14-2.93 3.57 3.57 0 00-2.87-1.3m67.27 17.5a11.92 11.92 0 01-8.88-3.67 12.1 12.1 0 01-3.69-8.93 12.34 12.34 0 013.69-9 11.91 11.91 0 018.88-3.6 12 12 0 018.93 3.66 12.39 12.39 0 013.65 9 12.14 12.14 0 01-3.65 8.93 12 12 0 01-8.93 3.67m0-17.5a3.57 3.57 0 00-2.82 1.24 4.05 4.05 0 00-1.13 2.93 4 4 0 001.13 3 3.84 3.84 0 005.67 0 4 4 0 001.13-3 4.05 4.05 0 00-1.13-2.93 3.6 3.6 0 00-2.85-1.25m124.2 17.45a12 12 0 01-8.9-3.67 12 12 0 01-3.66-8.93 12.28 12.28 0 013.66-9 12.68 12.68 0 0117.82 0 12.36 12.36 0 013.66 9 12.11 12.11 0 01-3.66 8.93 12 12 0 01-8.92 3.67m0-17.5a3.57 3.57 0 00-2.82 1.3 4 4 0 00-1.13 2.93 4 4 0 001.13 3 3.83 3.83 0 005.66 0 4 4 0 001.14-3 4 4 0 00-1.14-2.93 3.59 3.59 0 00-2.84-1.25M434.81 38.82v-24.5h9.5v18.35h10.84v6.15h-20.34zm96.84-24.5v8.17c3.19-.14 5.27-.9 6.23-2.3a10.39 10.39 0 001.45-5.87h10.37a19.43 19.43 0 01-1.17 7.38c-.78 2-2.87 3.59-4.55 4.9a16.18 16.18 0 016.42 12.22h-11c-.17-6.24-2.86-8.78-7.72-8.89v8.89h-9.49v-24.5zm39.85 24.5H562V28.13l-9.75-13.81h9.63l4.87 7.94 4.84-7.94h9.64l-9.73 13.81v10.69zm119.28 0h-9.51V28.13l-9.74-13.81h9.63l4.87 7.94 4.84-7.94h9.65l-9.74 13.81v10.69zM737 15.56l-2.26 6.5c-1.77-1.33-4-2.82-6.31-2.95-.73 0-1.86-.18-2.35 1-.43.92-.43 2.2 4 3.49a16.38 16.38 0 014.32 2 6.57 6.57 0 012.27 2.34 7 7 0 01.75 3.29 6.89 6.89 0 01-3 6c-2 1.35-4.92 2-8.77 2a32.88 32.88 0 01-11.45-1.84l2.51-7c.83.66 2.68 1.63 4.42 2.72 2.15 1.27 3.59.79 4.11 0s.93-2.23-3.38-3.77a18.42 18.42 0 01-3.24-1.51 6.83 6.83 0 01-3.17-5.63 6.81 6.81 0 013-6.09c2-1.43 4.65-2.32 8.5-2.32A30.82 30.82 0 01737 15.56m14.3 23.26h-9.5v-24.5h9.5v9.01h7.13v-9.01h9.52v24.5h-9.52v-9.06h-7.13v9.06zm63.32 0h-7.33l-8.65-24.5h9.24l4.19 11.32 4.32-11.32h4.86l4.47 11.32 4.02-11.32h9.25l-8.25 24.5h-7.33l-4.53-11.02-4.26 11.02zM352 69.9V59h-31.08v-3.73h-16.21V59h-4.33v10.9h4.33v3.19h-4.33V84h4.33v2.21c0 13.94 6.17 21.23 19.46 21.23h7.54c10.82 0 20.18-5.06 20.18-22.44V73H336v12c0 4.08-1.57 7.1-7.08 7.1h-1.21c-4 0-6.79-1.08-6.79-5.89V84h11.94V73.09h-11.94V69.9zm40.57 4.78h-7.51v-3.12h23.85V58.45h-23.85v-3.18h-16.2v3.18h-8.94v13.11h8.94v16.56h21.31c2.21 0 2.88.9 2.88 2.16 0 1.09-.86 1.83-3.08 1.83h-26.61v15.34H390c16.09 0 21.18-5.46 21.18-16.8-.03-14.28-8.01-15.97-18.61-15.97zm-119.88 0h-4.9v-3.19h5.27v-13h-5.27v-3.22H254v3.18h-14.16v13h14.29v3.19h-1.52c-7.25 0-14.2 5-14.2 16.43 0 10.8 5.68 16.34 15.46 16.34 12.51 0 13.92-7.47 13.92-15.77v-3.52H273c2 0 3.15.3 3.15 2 0 1.34-.64 2-3.06 2h-2.24v15.31h2c9.7 0 17.89-2.72 17.89-16.76.03-11.21-8.39-15.99-18.05-15.99zm-18.56 17.15c0 1.72-.55 2.55-1.41 2.55h-.53c-1.45 0-1.82-1.61-1.82-3.27 0-2.08 1.07-3 2.65-3h1.11zm22.06-39V66c2.87 0 3.25 1.77 3.25 3.18V73h13v-5.2c.03-10.47-4.37-15.43-16.25-14.95zm222.48 21.85l-2.29 8.69c-1.75 6.09-8.25 8.74-13.92 8.74h-17.84v15.34h18.72c13.82 0 24.74-6.48 28-20.53 1.48-6.34 2-13.27 5.88-13.27V57c-13.22 0-15.95 6.44-18.55 17.68zm-9.14-19.41h-24.91v13.45h24.91zm0 16.64h-24.91v13.46h24.91zm77.87 2.03h48.27v15.89H567.4zm-20.7-4.46h-23.53V80.8h22c2.1 0 1.78 1.81 1.78 3.18h-21.6v9h21.57v3.2h-23.75v11.32h37.27V82c0-5.79-3.63-12.52-13.74-12.52zm-95.3 7.26c.69-.89 1.7-1.28 3.35-1.28V66c-9.23 0-13.12 3.57-14.76 7.81h-6.47l-.27-4.36h-11.58l.28 4.36h-4.35V86h5.15l1.39 21.5h11.54L434.31 86h5.15c3 0 4.35.87 4.35 2.9 0 2.2-1.33 3.29-5.18 3.29v12.1c13.68 0 17.91-5.31 17.91-14.09v-2.72c.02-4.11-1.42-8.19-5.14-10.74zM180.11 90.22h17.49v17.24h15.47V90.22h17.55V67.47h-50.51zm12.66-13.09H218v3.44h-25.23zm19.45-21.86v-2.42h-13.71v2.42h-19.4v9h52.44v-9zm-26.63 38c-.15 3.5-3.16 5-6.48 4.73v9.49c12.42.49 16.56-5.23 16.24-14.22zM171.5 64.24v-9h-19.34v-2.39h-13.69v2.42h-19.29v9h19.29v3.2h-18.41v25.71h12.45C130.56 96 124.68 98 119 97.88v9.52c8.64 0 15.13-2 18.56-5.74v5.8h15.29v-5.8c3.45 3.72 10 5.79 18.54 5.74v-9.52c-5.39.1-11.06-1.19-13.45-4.7h12.61V67.44h-18.39v-3.2zm-33 22.91h-5.8V84h5.77zm0-10.47h-5.8v-3.19h5.77zm19.45 10.47h-5.76V84h5.76zm0-13.66v3.19h-5.76v-3.19z"/><path class="cls-2" d="M225.11 93.24c.12 3.5 3.17 5 6.44 4.73v9.49c-12.39.49-16.51-5.23-16.22-14.22zm398.71-37.06v14.48h29.82c1.92 0 3.26.5 3.26 2.35 0 1.56-1.14 2.29-3.26 2.29h-27.11v32.28h44.64V92.46h-27.91v-3.91h9.08c18.83.4 22.13-7.36 22.13-15.8 0-12.49-7-16.57-20.54-16.57zm112.69 0v14.48h29.82c1.92 0 3.26.5 3.26 2.35 0 1.56-1.14 2.29-3.26 2.29h-27.11v32.28h44.64V92.46H756v-3.91h9c18.83.4 22.13-7.36 22.13-15.8 0-12.49-7-16.57-20.54-16.57zm-38.13 0c-9.65 0-20.08 7.85-20.08 17.52v16.42c0 9.66 10.43 17.46 20.08 17.46h10.31c9.7 0 20.07-7.8 20.07-17.46V73.7c0-9.67-10.37-17.52-20.07-17.52zm-3 31.85V75.72c0-2.1 2-5.06 4.38-5.06h7.61c2.36 0 4.39 3 4.39 5.06V88c0 2.33-2.14 5.14-4.39 5.14h-7.61c-2.49 0-4.38-2.76-4.38-5.14m146.56-6.21a16.29 16.29 0 002.2-9c0-12.49-7-16.57-20.54-16.57h-30.11v14.44h29.82c1.93 0 3.26.5 3.26 2.35 0 1.48-1 2.2-2.94 2.28h-17.22l.09 13.16h17.27c1.89.07 2.89.8 2.92 2.28 0 1.84-1.33 2.35-3.25 2.35h-30v14.47h30.24c13.51 0 20.5-4.07 20.53-16.57 0-3.34-.52-6.57-2.32-9.22"/></g></g></svg>