<svg xmlns="http://www.w3.org/2000/svg" width="600" height="136.5"><defs><style>.cls-2{opacity:.1}.cls-3{fill:none;stroke:#231815}</style></defs><g id="レイヤー_2" data-name="レイヤー 2"><g id="レイヤー_2-2" data-name="レイヤー 2"><rect width="600" height="136.5" rx="20.67" fill="#0b308e"/><g class="cls-2"><path class="cls-3" d="M37 79.19V57.31l13.13 10.94L37 79.19z"/></g><path d="M37 79.19V57.31l13.13 10.94L37 79.19zm98.78-28.81l8.55-25h8l-12.81 33.9h-7.44L119.22 25.4h8zM167 31.46h-7V25.4h7zm0 27.82h-7V34.56h7zm24.55-17.93c-.09-2.23-2-3-4.39-3-1.16 0-4 .22-4 2.32 0 1.85 2.11 2.37 2.63 2.5 9.54 2.36 13.5 3.35 13.5 8.77 0 5-4.47 8.3-11.91 8.3a16.48 16.48 0 01-8-1.81c-3.4-2-3.83-4.17-4.21-6.79h7.22c.3 3.35 2.62 3.87 5.37 3.87 3.62 0 4.3-1.76 4.3-2.71 0-1.94-1.93-2.37-3.61-2.8-8.6-2.1-12.42-3-12.42-8.51 0-7.83 9.67-7.83 11.22-7.83 1.29 0 6.06.05 9.2 2.84 1.5 1.29 1.89 2.58 2.19 4.86zm23-9.89h-7.05V25.4h7.05zm0 27.82h-7.05V34.56h7.05zm19.31-20.47v13c0 2.45 1.46 2.8 3.44 2.8h2.06V60c-1.46.13-2.71.22-4 .22-5.2 0-8.52-2.37-8.52-7.23V38.81h-4.55v-4.25h4.55v-6.93h7.06v6.93h5.5v4.25zm11.26 8.13c0-9.37 6.58-13.29 13.42-13.29s13.37 3.92 13.37 13.29-6.58 13.29-13.37 13.29-13.42-3.96-13.42-13.29zm13.42-8c-3.61 0-6.19 2.88-6.19 8.13 0 4 1.89 7.83 6.19 7.83 4 0 6.15-3.44 6.15-8s-2.15-7.96-6.15-7.96zm26.7-4.38l.13 4.51c.69-1.55 2.41-5.42 9.46-5.42h2.49v7.14h-2.79c-3.36 0-8.69 1.38-8.69 7.44v11.05h-6.92V34.56zm34.19 6.79c-.09-2.23-2-3-4.39-3-1.16 0-4 .22-4 2.32 0 1.85 2.11 2.37 2.63 2.5 9.54 2.36 13.5 3.35 13.5 8.77 0 5-4.47 8.3-11.91 8.3a16.48 16.48 0 01-8-1.81c-3.4-2-3.83-4.17-4.21-6.79h7.22c.3 3.35 2.62 3.87 5.37 3.87 3.62 0 4.31-1.76 4.31-2.71 0-1.94-1.94-2.37-3.62-2.8-8.6-2.1-12.42-3-12.42-8.51 0-7.83 9.67-7.83 11.22-7.83 1.29 0 6.06.05 9.2 2.84 1.51 1.29 1.89 2.58 2.19 4.86zM368 34.56v4.25h-5.46v20.47h-7.04V38.81h-4.6v-4.25h4.6v-2.24c0-6.79 4.95-7.87 8.95-7.87H368v4.69h-2.66c-1.94 0-2.8.77-2.8 3.14v2.28zm13 0l.13 4.51c.69-1.55 2.41-5.42 9.46-5.42h2.49v7.14h-2.79c-3.36 0-8.69 1.38-8.69 7.44v11.05h-6.92V34.56zm17.72 12.38c0-9.37 6.58-13.29 13.41-13.29s13.37 3.92 13.37 13.29-6.57 13.29-13.37 13.29-13.41-3.96-13.41-13.29zm13.41-8c-3.61 0-6.19 2.88-6.19 8.13 0 4 1.89 7.83 6.19 7.83 4 0 6.15-3.44 6.15-8s-2.15-7.96-6.15-7.96zM439 34.56l.13 3.57a8 8 0 017.4-4.48c4.77 0 6.06 3.1 6.62 4.43a7.84 7.84 0 017.44-4.43c4.69 0 7.95 3.1 7.95 9v16.63h-6.92V43.72c0-.82-.17-4.17-3.52-4.17s-4 3.48-4 4.85v14.88h-6.93V43.59c0-3-1.46-4-3.48-4-3.57 0-4 3.61-4 5.07v14.62h-7V34.56zM181.27 96.94c0-9.37 6.58-13.29 13.41-13.29s13.38 3.92 13.38 13.29-6.58 13.29-13.38 13.29-13.41-3.96-13.41-13.29zm13.41-8c-3.61 0-6.19 2.88-6.19 8.13 0 4 1.89 7.83 6.19 7.83 4 0 6.15-3.44 6.15-8s-2.15-7.96-6.15-7.96zm36.68 20.34h-7.78l-10.06-24.72H221l6.58 16.17 6.54-16.17h7.48zm22.71-10.88c.17 4.13 2.28 6.67 6.49 6.67s5.25-2.19 5.72-3.18h7.05a9.4 9.4 0 01-2.28 4.17 13.83 13.83 0 01-10.49 4.17c-7.83 0-13.5-4.69-13.5-13.29 0-9.46 6.75-13.29 13.16-13.29A12.94 12.94 0 01271 88.73c2.53 3.35 2.75 7.39 2.88 9.67zm12.72-4.4c-1.63-5.21-5.54-5.21-6.45-5.21-4.51 0-5.67 3.57-6.19 5.21zm20.39-9.44l.13 4.51c.68-1.55 2.4-5.42 9.46-5.42h2.49v7.14h-2.8c-3.35 0-8.68 1.38-8.68 7.44v11h-6.92V84.56zm34.18 6.79c-.08-2.23-2-3-4.38-3-1.16 0-4 .22-4 2.32 0 1.85 2.11 2.37 2.62 2.5 9.55 2.36 13.5 3.35 13.5 8.77 0 5-4.47 8.3-11.91 8.3a16.44 16.44 0 01-8-1.81c-3.4-2-3.83-4.17-4.22-6.79h7.23c.3 3.35 2.62 3.87 5.37 3.87 3.61 0 4.3-1.76 4.3-2.71 0-1.94-1.93-2.37-3.61-2.8-8.6-2.1-12.43-3-12.43-8.51 0-7.83 9.68-7.83 11.23-7.83 1.29 0 6.06 0 9.2 2.84 1.5 1.29 1.89 2.58 2.19 4.86zm21.07 7.05c.17 4.13 2.28 6.67 6.49 6.67s5.25-2.19 5.72-3.18h7.06a9.5 9.5 0 01-2.28 4.17 13.84 13.84 0 01-10.5 4.17c-7.82 0-13.5-4.69-13.5-13.29 0-9.46 6.75-13.29 13.16-13.29a12.94 12.94 0 0110.75 5.08c2.54 3.35 2.75 7.39 2.88 9.67zm12.73-4.4c-1.63-5.21-5.55-5.21-6.45-5.21-4.51 0-5.68 3.57-6.19 5.21zm32.89 15.28a6.16 6.16 0 01-.73-2.92c-1.07 1.25-3.39 3.87-9.41 3.87-3 0-9.59-.47-9.59-7.83 0-6.15 5.29-6.88 11.56-7.74 6-.86 7.44-1 7.44-3.09 0-2.8-2.75-2.93-4.51-2.93-6.41 0-6.45 2.11-6.45 3.31h-6.79a7.61 7.61 0 013.18-6c2.58-1.81 7.52-2.33 9.93-2.33 3.7 0 11.57 1 11.57 8v14.24a4 4 0 001.2 2.83v.56zm-.73-11.82c-1.24.64-1.89.77-4.9 1.24-4.51.69-6.84 1-6.84 3.49 0 2.79 4.65 2.79 4.91 2.79 5.16 0 6.83-4.17 6.83-5.07zm30.36-6.11c-.08-2.23-2-3-4.38-3-1.17 0-4 .22-4 2.32 0 1.85 2.11 2.37 2.62 2.5 9.55 2.36 13.5 3.35 13.5 8.77 0 5-4.47 8.3-11.91 8.3a16.44 16.44 0 01-8-1.81c-3.4-2-3.83-4.17-4.22-6.79h7.23c.3 3.35 2.62 3.87 5.37 3.87 3.61 0 4.3-1.76 4.3-2.71 0-1.94-1.93-2.37-3.61-2.8-8.6-2.1-12.43-3-12.43-8.51 0-7.83 9.68-7.83 11.22-7.83 1.29 0 6.07 0 9.21 2.84 1.5 1.29 1.89 2.58 2.19 4.86z" fill="#fff"/><g class="cls-2"><path class="cls-3" d="M135.78 50.38l8.55-25h8l-12.81 33.9h-7.44L119.22 25.4h8zM167 31.46h-7V25.4h7zm0 27.82h-7V34.56h7zm24.55-17.93c-.09-2.23-2-3-4.39-3-1.16 0-4 .22-4 2.32 0 1.85 2.11 2.37 2.63 2.5 9.54 2.36 13.5 3.35 13.5 8.77 0 5-4.47 8.3-11.91 8.3a16.48 16.48 0 01-8-1.81c-3.4-2-3.83-4.17-4.21-6.79h7.22c.3 3.35 2.62 3.87 5.37 3.87 3.62 0 4.3-1.76 4.3-2.71 0-1.94-1.93-2.37-3.61-2.8-8.6-2.1-12.42-3-12.42-8.51 0-7.83 9.67-7.83 11.22-7.83 1.29 0 6.06.05 9.2 2.84 1.5 1.29 1.89 2.58 2.19 4.86zm23-9.89h-7.05V25.4h7.05zm0 27.82h-7.05V34.56h7.05zm19.31-20.47v13c0 2.45 1.46 2.8 3.44 2.8h2.06V60c-1.46.13-2.71.22-4 .22-5.2 0-8.52-2.37-8.52-7.23V38.81h-4.55v-4.25h4.55v-6.93h7.06v6.93h5.5v4.25zm11.26 8.13c0-9.37 6.58-13.29 13.42-13.29s13.37 3.92 13.37 13.29-6.58 13.29-13.37 13.29-13.42-3.96-13.42-13.29zm13.42-8c-3.61 0-6.19 2.88-6.19 8.13 0 4 1.89 7.83 6.19 7.83 4 0 6.15-3.44 6.15-8s-2.15-7.96-6.15-7.96zm26.7-4.38l.13 4.51c.69-1.55 2.41-5.42 9.46-5.42h2.49v7.14h-2.79c-3.36 0-8.69 1.38-8.69 7.44v11.05h-6.92V34.56zm34.19 6.79c-.09-2.23-2-3-4.39-3-1.16 0-4 .22-4 2.32 0 1.85 2.11 2.37 2.63 2.5 9.54 2.36 13.5 3.35 13.5 8.77 0 5-4.47 8.3-11.91 8.3a16.48 16.48 0 01-8-1.81c-3.4-2-3.83-4.17-4.21-6.79h7.22c.3 3.35 2.62 3.87 5.37 3.87 3.62 0 4.31-1.76 4.31-2.71 0-1.94-1.94-2.37-3.62-2.8-8.6-2.1-12.42-3-12.42-8.51 0-7.83 9.67-7.83 11.22-7.83 1.29 0 6.06.05 9.2 2.84 1.51 1.29 1.89 2.58 2.19 4.86zM368 34.56v4.25h-5.46v20.47h-7.04V38.81h-4.6v-4.25h4.6v-2.24c0-6.79 4.95-7.87 8.95-7.87H368v4.69h-2.66c-1.94 0-2.8.77-2.8 3.14v2.28zm13 0l.13 4.51c.69-1.55 2.41-5.42 9.46-5.42h2.49v7.14h-2.79c-3.36 0-8.69 1.38-8.69 7.44v11.05h-6.92V34.56zm17.72 12.38c0-9.37 6.58-13.29 13.41-13.29s13.37 3.92 13.37 13.29-6.57 13.29-13.37 13.29-13.41-3.96-13.41-13.29zm13.41-8c-3.61 0-6.19 2.88-6.19 8.13 0 4 1.89 7.83 6.19 7.83 4 0 6.15-3.44 6.15-8s-2.15-7.96-6.15-7.96zM439 34.56l.13 3.57a8 8 0 017.4-4.48c4.77 0 6.06 3.1 6.62 4.43a7.84 7.84 0 017.44-4.43c4.69 0 7.95 3.1 7.95 9v16.63h-6.92V43.72c0-.82-.17-4.17-3.52-4.17s-4 3.48-4 4.85v14.88h-6.93V43.59c0-3-1.46-4-3.48-4-3.57 0-4 3.61-4 5.07v14.62h-7V34.56zM181.27 96.94c0-9.37 6.58-13.29 13.41-13.29s13.38 3.92 13.38 13.29-6.58 13.29-13.38 13.29-13.41-3.96-13.41-13.29zm13.41-8c-3.61 0-6.19 2.88-6.19 8.13 0 4 1.89 7.83 6.19 7.83 4 0 6.15-3.44 6.15-8s-2.15-7.96-6.15-7.96zm36.68 20.34h-7.78l-10.06-24.72H221l6.58 16.17 6.54-16.17h7.48zm22.71-10.88c.17 4.13 2.28 6.67 6.49 6.67s5.25-2.19 5.72-3.18h7.05a9.4 9.4 0 01-2.28 4.17 13.83 13.83 0 01-10.49 4.17c-7.83 0-13.5-4.69-13.5-13.29 0-9.46 6.75-13.29 13.16-13.29A12.94 12.94 0 01271 88.73c2.53 3.35 2.75 7.39 2.88 9.67zm12.72-4.4c-1.63-5.21-5.54-5.21-6.45-5.21-4.51 0-5.67 3.57-6.19 5.21zm20.39-9.44l.13 4.51c.68-1.55 2.4-5.42 9.46-5.42h2.49v7.14h-2.8c-3.35 0-8.68 1.38-8.68 7.44v11h-6.92V84.56zm34.18 6.79c-.08-2.23-2-3-4.38-3-1.16 0-4 .22-4 2.32 0 1.85 2.11 2.37 2.62 2.5 9.55 2.36 13.5 3.35 13.5 8.77 0 5-4.47 8.3-11.91 8.3a16.44 16.44 0 01-8-1.81c-3.4-2-3.83-4.17-4.22-6.79h7.23c.3 3.35 2.62 3.87 5.37 3.87 3.61 0 4.3-1.76 4.3-2.71 0-1.94-1.93-2.37-3.61-2.8-8.6-2.1-12.43-3-12.43-8.51 0-7.83 9.68-7.83 11.23-7.83 1.29 0 6.06 0 9.2 2.84 1.5 1.29 1.89 2.58 2.19 4.86zm21.07 7.05c.17 4.13 2.28 6.67 6.49 6.67s5.25-2.19 5.72-3.18h7.06a9.5 9.5 0 01-2.28 4.17 13.84 13.84 0 01-10.5 4.17c-7.82 0-13.5-4.69-13.5-13.29 0-9.46 6.75-13.29 13.16-13.29a12.94 12.94 0 0110.75 5.08c2.54 3.35 2.75 7.39 2.88 9.67zm12.73-4.4c-1.63-5.21-5.55-5.21-6.45-5.21-4.51 0-5.68 3.57-6.19 5.21zm32.89 15.28a6.16 6.16 0 01-.73-2.92c-1.07 1.25-3.39 3.87-9.41 3.87-3 0-9.59-.47-9.59-7.83 0-6.15 5.29-6.88 11.56-7.74 6-.86 7.44-1 7.44-3.09 0-2.8-2.75-2.93-4.51-2.93-6.41 0-6.45 2.11-6.45 3.31h-6.79a7.61 7.61 0 013.18-6c2.58-1.81 7.52-2.33 9.93-2.33 3.7 0 11.57 1 11.57 8v14.24a4 4 0 001.2 2.83v.56zm-.73-11.82c-1.24.64-1.89.77-4.9 1.24-4.51.69-6.84 1-6.84 3.49 0 2.79 4.65 2.79 4.91 2.79 5.16 0 6.83-4.17 6.83-5.07zm30.36-6.11c-.08-2.23-2-3-4.38-3-1.17 0-4 .22-4 2.32 0 1.85 2.11 2.37 2.62 2.5 9.55 2.36 13.5 3.35 13.5 8.77 0 5-4.47 8.3-11.91 8.3a16.44 16.44 0 01-8-1.81c-3.4-2-3.83-4.17-4.22-6.79h7.23c.3 3.35 2.62 3.87 5.37 3.87 3.61 0 4.3-1.76 4.3-2.71 0-1.94-1.93-2.37-3.61-2.8-8.6-2.1-12.43-3-12.43-8.51 0-7.83 9.68-7.83 11.22-7.83 1.29 0 6.07 0 9.21 2.84 1.5 1.29 1.89 2.58 2.19 4.86z"/></g></g></g></svg>