<svg xmlns="http://www.w3.org/2000/svg" width="280" height="40"><g data-name="レイヤー 2"><rect width="280" height="40" rx="5" fill="#ff5064"/><path d="M75 19.05v2.86H56v-2.86zm12.09-7.7h6.21v4.74c0 .3.08.42.4.42.5 0 .67-.4.8-2a4 4 0 002 .94c-.39 2.82-.9 3.13-2.2 3.13h-1.63A1.52 1.52 0 0191 17v-3.47h-1.54c-.23 2.77-1 4.66-2.42 5.84a5.36 5.36 0 00-1.86-1.07v.82c.29-.05.46-.05.79-.09a12.49 12.49 0 00-.19 2l-.6.06v7.12c0 1.68-1.06 1.87-3.49 1.89a8.24 8.24 0 00-.78-2.42 6.46 6.46 0 001.45.17c.72 0 .72-.25.72-.88v-5.63a6.18 6.18 0 00-.78.09v5.12h-1.7v-5l-.61.07a23.19 23.19 0 01-1.55 8.42 3.93 3.93 0 00-2.17-1 16.89 16.89 0 001.64-7.16l-.5.06c-.11.23-.21.42-.4.42s-.21-.13-.23-.25l-.4-2.4h1.47v-6.87h2a15.5 15.5 0 00.74-2.21l2.62.28c.13 0 .25.1.25.23s-.29.31-.54.42c-.09.19-.44 1.09-.51 1.28h2.76V18a5.35 5.35 0 001.91-4.32zM80 19.54l3.09-.21V15H80zm2-4.06a23.42 23.42 0 01.8 3 16.3 16.3 0 00-1.85.39 13 13 0 00-.82-3zM86.27 22v-2.34h8l.9 1a14.89 14.89 0 01-3 5.39 11.15 11.15 0 003.84 1.89A11.84 11.84 0 0094.75 30a19 19 0 01-4.14-2.39 11.56 11.56 0 01-3.9 2.39 6.64 6.64 0 00-1.49-2.2 8 8 0 003.59-1.8 12.08 12.08 0 01-2.08-3l1.45-1zm2.58 0a8.56 8.56 0 001.6 2.44A8.52 8.52 0 0091.94 22zm16.84-8.55a.3.3 0 01.21.29c0 .17-.27.23-.65.32a21.65 21.65 0 01-5.86 7.49 8.28 8.28 0 00-2.16-1.8 16.92 16.92 0 006-7.56zm4.75 7a53.83 53.83 0 015.52 8.1A12.32 12.32 0 00113.5 30a21.78 21.78 0 00-1.09-2.14c-2.87.34-5.79.7-8.69 1-1.55.17-2.39.25-3.23.38-.11.19-.26.44-.42.44s-.28-.17-.34-.42l-.59-2.5 2.42-.17a76.46 76.46 0 004-9.8l2.71.92c.16.06.29.15.29.29s-.23.3-.63.34c-.44 1.26-1.7 4.2-3.57 8 3.36-.29 3.69-.34 6.76-.63-.65-1-.86-1.28-2.77-3.82zm1.53-8.9c.4 4.24 4.28 7 5.63 7.91a12.86 12.86 0 00-1.83 1.91 15.27 15.27 0 01-6-7.53h-3.3v-2.28zm15.83-.2v6.91H122V30h-2.52V11.35zm-2.37 2.71v-.89H122v.89zM122 15.53v.9h3.46v-.9zm9.82 7.22h2.29v2h-2.29v4.67h-2.26v-4.66h-1.91a7.58 7.58 0 01-3.26 5.06 3.92 3.92 0 00-2-1.38 5.25 5.25 0 003-3.68H123v-2h2.58v-1.55h-2.06V19.3h10.14v1.9h-1.87zm-2.26-1.55h-1.7v1.55h1.73zm8.06-9.85v16.1c0 2.44-1.6 2.63-3.8 2.6a6.57 6.57 0 00-1-2.6 8.2 8.2 0 001.28.15c.51 0 1-.09 1-.84v-8.48h-5.9v-6.93zm-2.5 2.73v-.91h-3.51v.91zm-3.51 1.45v.92h3.51v-.92zm18.1 11.29c4.95-.94 6.23-4.64 6.23-6.84a5.34 5.34 0 00-5.35-5.48c-.71 7.83-3.74 13.46-5.9 13.46-1.62 0-4.45-2.65-4.45-6.41a10.09 10.09 0 0110-9.61c4.47 0 8.48 3 8.48 8a9.26 9.26 0 01-2.48 6.36 11.45 11.45 0 01-4.72 3 13.37 13.37 0 00-1.81-2.48zm-6.8-5.46c0 1.79.94 3.19 1.59 3.19s1.2-1.42 1.53-2.26a19.91 19.91 0 001.58-7.29 7.29 7.29 0 00-4.7 6.36zm22.76 8.72h-2.33v-7.69a17.42 17.42 0 01-1.41 3.05 6.74 6.74 0 00-1.74-1.64 19.41 19.41 0 003.13-7h-2.56v-2.16h2.47v-3.88l2.44.15s.42.06.42.29-.06.19-.42.36v3.08h1.78v2.15h-1.78v.65a13.55 13.55 0 002.43 4.09 4.69 4.69 0 00-1.1 1.89 13.28 13.28 0 01-1.28-2.1zm1.3-3.89a24.25 24.25 0 005.5-2.79v-2.81h-2.54a14.6 14.6 0 011.72 2.29c-.25.2-1.38 1.09-1.59 1.28a24.27 24.27 0 00-2-2.42l1.73-1.15h-2.27v-1.94h4.91v-1h-3.61v-1.79h3.61V15h-4.72v-1.89h2.56a11.27 11.27 0 00-1.16-1.68l2.08-.94a23.22 23.22 0 011.47 2.33l-.69.29h2.35a16.2 16.2 0 001.26-2.58l2.25.69a.37.37 0 01.23.32c0 .12-.13.17-.44.25-.17.29-.51.88-.78 1.32h2.9V15h-4.85v.9h3.59v1.76h-3.59v1h5.25v1.94h-1.77l1.43 1c.11.09.21.15.21.34s-.29.27-.54.25a13.42 13.42 0 01-2.15 2.48 12.53 12.53 0 003.41 2.24 5.67 5.67 0 00-1.5 2 13.88 13.88 0 01-4.3-3.91v2.27c0 2.61-1 2.79-3.63 3a5.62 5.62 0 00-1.14-2.43h1.24c.78 0 1.07-.09 1.07-.8v-1.39a43.58 43.58 0 01-3.86 2.35c-.07.27-.11.5-.32.5s-.33-.25-.42-.4zm8-4.39a10.72 10.72 0 001.03 1.47 17.34 17.34 0 002-2.68h-3.06zm26.19-2.87v2.39H193v5.86c0 1.78-.53 3.06-4.92 2.92a12.73 12.73 0 00-.84-2.73 13.71 13.71 0 001.58.14c1.49 0 1.49-.21 1.49-1.49v-4.7h-8.51v-2.39h8.48v-3.11l1.47.19a12.78 12.78 0 002.44-2h-10.33v-2.39h13.75l1.49 1.28a52 52 0 01-6.1 5.33v.7zM255 25V15l5 5-5 5z" fill="#fff"/></g></svg>