<svg id="レイヤー_1" data-name="レイヤー 1" xmlns="http://www.w3.org/2000/svg" viewBox="0 0 30.8 37.85"><g id="icon_pdf_b" data-name="icon pdf b"><path id="パス_51" data-name="パス 51" d="M24.45,0H10.9l-.69.69L.69,10.21,0,10.9V31.5a6.35,6.35,0,0,0,6.35,6.35h18.1A6.37,6.37,0,0,0,30.8,31.5V6.35A6.37,6.37,0,0,0,24.45,0Zm4,31.5a4,4,0,0,1-4,4H6.35a4,4,0,0,1-4-4V11.87H8.54a3.34,3.34,0,0,0,3.34-3.33h0V2.35H24.45a4,4,0,0,1,4,4Z"/><path id="パス_52" data-name="パス 52" d="M9.19,18.69H7.08a.59.59,0,0,0-.64.55.17.17,0,0,0,0,.1v5.45a.74.74,0,1,0,1.47.1V23.13a.07.07,0,0,1,0-.06H9.19a2.2,2.2,0,1,0,.32-4.38,1.71,1.71,0,0,0-.32,0ZM9.1,21.8H8a.06.06,0,0,1-.06-.05h0V20A.06.06,0,0,1,8,20H9.1a.92.92,0,1,1,.16,1.84Z"/><path id="パス_53" data-name="パス 53" d="M15,18.69H13.36a.59.59,0,0,0-.64.55.34.34,0,0,0,0,.1v5.53a.59.59,0,0,0,.55.64H15c1.45,0,2.36-.46,2.72-1.57a8.46,8.46,0,0,0,0-3.68C17.33,19.15,16.43,18.69,15,18.69Zm1.3,4.74c-.17.54-.66.77-1.34.77h-.68a.08.08,0,0,1-.07-.05h0V20.06a.06.06,0,0,1,.05-.06h.7c.68,0,1.17.23,1.34.78A7.38,7.38,0,0,1,16.28,23.43Z"/><path id="パス_54" data-name="パス 54" d="M23.18,18.69H19.87a.6.6,0,0,0-.65.55v5.55a.74.74,0,1,0,1.48.08v-2s0-.05,0-.06h2a.63.63,0,0,0,.08-1.26h-2a.06.06,0,0,1-.06-.05h0V20s0-.05,0-.06h2.44a.63.63,0,0,0,.68-.59.64.64,0,0,0-.59-.68.14.14,0,0,0-.09,0Z"/></g></svg>