<?xml version="1.0" encoding="utf-8"?>
<!-- Generator: Adobe Illustrator 23.0.6, SVG Export Plug-In . SVG Version: 6.00 Build 0)  -->
<svg version="1.1" id="レイヤー_1" xmlns="http://www.w3.org/2000/svg" xmlns:xlink="http://www.w3.org/1999/xlink" x="0px"
	 y="0px" width="16.6px" height="18px" viewBox="0 0 16.6 18" style="enable-background:new 0 0 16.6 18;" xml:space="preserve">
<style type="text/css">
	.st0{fill-rule:evenodd;clip-rule:evenodd;fill:#00629D;}
</style>
<title>01_atom/icon/share</title>
<desc>Created with Sketch.</desc>
<path class="st0" d="M11.6,14.5l-6.8-3.7c-0.5,0.6-1.2,1-2.1,1.1C1.2,11.9,0,10.8,0,9.3s1.1-2.7,2.6-2.7c0.8,0,1.6,0.4,2.1,1l6.6-4
	c-0.1-0.3-0.2-0.6-0.2-1c0-1.4,1.1-2.7,2.6-2.7s2.7,1.1,2.7,2.6s-1.1,2.7-2.6,2.7c-0.8,0-1.6-0.4-2.1-1L5,8.2c0.1,0.3,0.2,0.6,0.2,1
	c0,0.3,0,0.7-0.2,1l6.8,3.7c0.5-0.6,1.2-1,2.1-1.1c1.4,0,2.7,1.1,2.7,2.6S15.5,18,14.1,18s-2.7-1.1-2.7-2.6
	C11.4,15.1,11.4,14.8,11.6,14.5z"/>
</svg>
