<svg xmlns="http://www.w3.org/2000/svg" width="18" height="18" viewBox="0 0 18 18">
  <defs>
    <style>
      .cls-1 {
        fill: #797979;
        fill-rule: evenodd;
      }
    </style>
  </defs>
  <g id="_icon_urlcopy.svg">
    <path id="長方形_7" data-name="長方形 7" class="cls-1" d="M688.248,2034.75a1.509,1.509,0,0,1,0,1.5,1.49,1.49,0,0,1-1.286.75H686v1h0.962a2.5,2.5,0,0,0,2.486-2.73,2.624,2.624,0,0,0-2.669-2.27H686v1h0.962A1.469,1.469,0,0,1,688.248,2034.75ZM690,2026v-1H674v15h1v-14h15Zm-7,10h3v-1h-3v1Zm-0.78,2H683v-1h-0.962a1.493,1.493,0,0,1-1.287-.75,1.514,1.514,0,0,1,0-1.5,1.472,1.472,0,0,1,1.287-.75H683v-1h-0.962a2.5,2.5,0,0,0-2.486,2.73A2.622,2.622,0,0,0,682.22,2038Zm9.78-10H677v15h15v-15Zm-14,14v-13h13v13H678Z" transform="translate(-674 -2025)"/>
  </g>
</svg>
