<svg xmlns="http://www.w3.org/2000/svg" width="32" height="32" viewBox="0 0 32 32">
  <defs>
    <style>
      .cls-1 {
        fill: #797979;
        fill-rule: evenodd;
      }
    </style>
  </defs>
  <g id="_icon_twitter.svg">
    <path id="長方形_11" data-name="長方形 11" class="cls-1" d="M690,1960a16,16,0,1,0,16,16A16,16,0,0,0,690,1960Zm8.036,12.97c0.007,0.16.011,0.33,0.011,0.49a10.973,10.973,0,0,1-16.887,9.25c0.3,0.03.609,0.05,0.92,0.05a7.765,7.765,0,0,0,4.79-1.65,3.864,3.864,0,0,1-3.6-2.68,4.314,4.314,0,0,0,.725.07,3.8,3.8,0,0,0,1.017-.14,3.852,3.852,0,0,1-3.094-3.78v-0.05a3.835,3.835,0,0,0,1.747.49,3.881,3.881,0,0,1-1.716-3.22,3.835,3.835,0,0,1,.522-1.93,11,11,0,0,0,7.951,4.03,3.859,3.859,0,0,1,6.573-3.52,7.718,7.718,0,0,0,2.449-.94,3.9,3.9,0,0,1-1.7,2.14,7.824,7.824,0,0,0,2.215-.61A8.019,8.019,0,0,1,698.036,1972.97Z" transform="translate(-674 -1960)"/>
  </g>
</svg>
