<svg xmlns="http://www.w3.org/2000/svg" width="80" height="80" viewBox="0 0 80 80"><path opacity=".5" fill="#FFF" d="M39 62c0 .6-.4 1-1 1H24c-1.7 0-3-1.3-3-3V25c0-.3.1-.5.3-.7l7-7c.2-.2.4-.3.7-.3h27c1.7 0 3 1.3 3 3v23c0 .6-.4 1-1 1s-1-.4-1-1V20c0-.6-.4-1-1-1H29.4L23 25.4V60c0 .6.4 1 1 1h14c.6 0 1 .4 1 1zm-7-39v5h-5c-.6 0-1 .4-1 1s.4 1 1 1h6c.6 0 1-.4 1-1v-6c0-.6-.4-1-1-1s-1 .4-1 1zm30 33c0 6.1-4.9 11-11 11s-11-4.9-11-11 4.9-11 11-11 11 4.9 11 11zm-6 4H46v2h10v-2zm0-6h-3.5v-5h-3v5H46l5 5 5-5z"/></svg>