<svg xmlns="http://www.w3.org/2000/svg" width="60" height="60" viewBox="0 0 60 60"><path d="M41 53H14a3 3 0 01-3-3V10a3 3 0 013-3h32a3 3 0 013 3v35a1 1 0 01-.29.71l-7 7A1 1 0 0141 53zM14 9a1 1 0 00-1 1v40a1 1 0 001 1h26.59L47 44.59V10a1 1 0 00-1-1zm34 36zm-10 3v-5h5a1 1 0 000-2h-6a1 1 0 00-1 1v6a1 1 0 002 0zm-9-23.5v-9a.5.5 0 00-.5-.5h-11a.5.5 0 00-.5.5v9a.5.5 0 00.5.5h11a.5.5 0 00.5-.5zM43 16a1 1 0 00-1-1H32a1 1 0 000 2h10a1 1 0 001-1zm0 4a1 1 0 00-1-1H32a1 1 0 000 2h10a1 1 0 001-1zm0 4a1 1 0 00-1-1H32a1 1 0 000 2h10a1 1 0 001-1zm0 6a1 1 0 00-1-1H18a1 1 0 000 2h24a1 1 0 001-1zm0 4a1 1 0 00-1-1H18a1 1 0 000 2h24a1 1 0 001-1zm-11 4a1 1 0 00-1-1H18a1 1 0 000 2h13a1 1 0 001-1z" fill="#fff" opacity=".5" data-name="レイヤー 4"/></svg>