<?xml version="1.0" encoding="utf-8"?>
<!-- Generator: Adobe Illustrator 26.1.0, SVG Export Plug-In . SVG Version: 6.00 Build 0)  -->
<svg version="1.1" id="レイヤー_2" xmlns="http://www.w3.org/2000/svg" xmlns:xlink="http://www.w3.org/1999/xlink" x="0px"
	 y="0px" width="1181.8px" height="198.9px" viewBox="0 0 1181.8 198.9" enable-background="new 0 0 1181.8 198.9"
	 xml:space="preserve">
<g>
	<g>
		<path fill="#FFFFFF" d="M307.8,84.5c0,6.5-2.1,11.8-6.4,16.1c-4.5,4.5-10.5,6.8-17.9,6.8h-14.1v27.7H255V61.6h28.5
			c7.4,0,13.3,2.3,17.9,6.8C305.6,72.7,307.8,78,307.8,84.5z M293.4,84.5c0-3-1-5.5-2.9-7.3c-1.9-1.9-4.5-2.8-7.7-2.8h-13.4v20.1
			h13.4c3.2,0,5.8-0.9,7.7-2.7C292.5,90,293.4,87.5,293.4,84.5z"/>
		<path fill="#FFFFFF" d="M365.5,135.1h-47.7V61.6h14.3v60.7h33.3V135.1z"/>
		<path fill="#FFFFFF" d="M431.8,135.1h-15l-4.3-13h-26.1l-4.4,13h-15l26.7-73.5H405L431.8,135.1z M408.7,110l-9-26.7l-9.3,26.7
			H408.7z"/>
		<path fill="#FFFFFF" d="M486.9,61.6l-22.1,43.3v30.1h-14.2v-30.1l-22.1-43.3h15.6l13.7,29.6l13.5-29.6H486.9z"/>
		<path fill="#FFFFFF" d="M547,113.9c0,6.7-2.1,11.9-6.2,15.6c-4.1,3.7-9.6,5.6-16.3,5.6h-30.7V61.6h29.5c7.1,0,12.6,1.9,16.7,5.6
			c4,3.7,6,8.7,6,15.1c0,3.7-1,7.1-3.1,10c-1.7,2.3-3.7,4.1-6,5.2C543.6,100.6,547,106.1,547,113.9z M531.6,82.8
			c0-2.5-0.8-4.6-2.5-6.1c-1.7-1.5-4-2.3-7-2.3h-14v16.9h14c3,0,5.4-0.8,7-2.3S531.6,85.4,531.6,82.8z M532.6,113.2
			c0-2.6-0.8-4.8-2.5-6.4c-1.7-1.7-4-2.5-7.1-2.5h-15v18.1h15c3.1,0,5.5-0.9,7.1-2.6C531.8,118,532.6,115.8,532.6,113.2z"/>
		<path fill="#FFFFFF" d="M616.3,135.1h-15l-4.3-13h-26.1l-4.4,13h-15l26.7-73.5h11.2L616.3,135.1z M593.2,110l-9-26.7l-9.3,26.7
			H593.2z"/>
		<path fill="#FFFFFF" d="M674.9,112.5c-1.2,7.5-4.4,13.3-9.4,17.3c-4.7,3.9-10.6,5.9-17.6,5.9c-7.8,0-14.4-2.7-19.8-8
			c-3.3-3.3-5.4-7.5-6.4-12.7c-0.6-3-0.8-8.6-0.8-16.6c0-8,0.3-13.6,0.8-16.6c1-5.2,3.1-9.4,6.4-12.7c5.4-5.4,12-8,19.8-8
			c7.1,0,13.1,2,17.9,6c4.9,4,7.9,9.7,9.1,17.2h-14.5c-1.7-6.9-5.8-10.4-12.4-10.4c-4.3,0-7.7,1.6-10,4.8c-1.9,2.6-2.8,9.2-2.8,19.7
			c0,5.7,0.1,9.3,0.2,10.7c0.5,4.6,1.6,7.9,3.4,10c2.3,2.5,5.3,3.8,9.2,3.8c6.5,0,10.7-3.5,12.4-10.4H674.9z"/>
		<path fill="#FFFFFF" d="M744.7,135.1h-16.7l-18.9-33.4l-9.5,11.4v22.1h-14.3V61.6h14.3v32l25.9-32h17.4l-24.4,29.2L744.7,135.1z"
			/>
		<path fill="#FFFFFF" d="M825.4,113.4c0,6.9-2.6,12.4-7.7,16.4c-5.1,4-11.6,5.9-19.6,5.9c-11.5,0-20.4-3.2-26.8-9.7l9.3-9.3
			c4.1,4.1,10,6.2,17.7,6.2c8.7,0,13-3,13-9.1c0-2.8-0.7-4.8-2.2-6.1c-1.4-1.3-3.6-2.2-6.6-2.6l-8.9-1.2c-13-1.8-19.5-8.6-19.5-20.5
			c0-6.7,2.3-12.1,6.9-16.1c4.6-4.1,10.8-6.1,18.7-6.1c9.9,0,17.8,2.9,23.7,8.6l-9.1,9c-3.5-3.4-8.5-5.1-15.1-5.1
			c-3.6,0-6.4,0.9-8.4,2.6c-2,1.8-2.9,4-2.9,6.7c0,2.1,0.8,3.9,2.3,5.4c1.5,1.4,3.8,2.4,6.7,2.8l8.7,1.2c6.3,0.9,10.9,2.8,14,5.7
			C823.5,101.4,825.4,106.6,825.4,113.4z"/>
		<path fill="#FFFFFF" d="M881.9,74.4h-19.2v60.7h-14.3V74.4h-19.2V61.6h52.7V74.4z"/>
		<path fill="#FFFFFF" d="M944.4,109.9c0,7.6-2.6,13.8-7.7,18.6c-5.2,4.8-11.6,7.2-19.3,7.2c-7.7,0-14.1-2.4-19.3-7.2
			c-5.2-4.8-7.7-11-7.7-18.6V61.6h14.3v47.8c0,4.2,1.1,7.5,3.4,9.9c2.3,2.4,5.4,3.6,9.3,3.6c3.9,0,7-1.2,9.3-3.6
			c2.3-2.4,3.5-5.7,3.5-9.9V61.6h14.2V109.9z"/>
		<path fill="#FFFFFF" d="M1011.7,98c0,8.2-0.2,13.6-0.6,16.1c-0.9,5.6-3.2,10.3-6.8,13.9c-4.7,4.7-11.1,7-19.4,7h-26.5V61.6h26.5
			c8.3,0,14.7,2.3,19.4,7c3.6,3.6,5.9,8.2,6.8,13.6C1011.5,84.7,1011.7,90,1011.7,98z M997.4,98c0-5.9-0.2-10.1-0.5-12.5
			c-0.4-2.8-1.3-5-2.6-6.6c-2.5-3-6.1-4.5-10.7-4.5h-10.8v47.9h10.8c4.7,0,8.3-1.5,10.7-4.5c1.3-1.6,2.2-3.9,2.6-6.9
			C997.2,108.3,997.4,104,997.4,98z"/>
		<path fill="#FFFFFF" d="M1038.6,135.1h-14.3V61.6h14.3V135.1z"/>
		<path fill="#FFFFFF" d="M1105.5,98.3c0,8-0.3,13.5-0.9,16.6c-0.9,5.1-3,9.3-6.4,12.7c-5.4,5.4-12,8-19.8,8c-7.9,0-14.5-2.7-19.9-8
			c-3.3-3.3-5.4-7.5-6.4-12.7c-0.6-3-0.8-8.6-0.8-16.6c0-8,0.3-13.6,0.8-16.6c1-5.2,3.1-9.4,6.4-12.7c5.4-5.4,12-8,19.9-8
			c7.8,0,14.4,2.7,19.8,8c3.4,3.4,5.5,7.6,6.4,12.7C1105.2,84.8,1105.5,90.3,1105.5,98.3z M1091.2,98.3c0-5.6-0.1-9.2-0.2-10.7
			c-0.4-4.5-1.5-7.8-3.4-9.9c-2.3-2.6-5.4-3.9-9.2-3.9c-3.9,0-6.9,1.3-9.3,3.9c-1.8,2.1-2.9,5.4-3.3,9.9c-0.1,1.2-0.2,4.8-0.2,10.7
			c0,5.9,0.1,9.5,0.2,10.7c0.4,4.5,1.5,7.8,3.3,9.9c2.3,2.6,5.4,3.9,9.3,3.9c4.3,0,7.6-1.7,10-5
			C1090.2,115.4,1091.2,108.9,1091.2,98.3z"/>
	</g>
	<path fill="#FFFFFF" d="M1099,14.7H184.4c3.6,3.6,6.9,7.4,10,11.3H1099c39.4,0,71.5,32.1,71.5,71.5c0,39.4-32.1,71.5-71.5,71.5
		H197.2c-2.8,4-5.9,7.8-9.2,11.3H1099c45.7,0,82.8-37.2,82.8-82.8C1181.8,51.9,1144.7,14.7,1099,14.7z"/>
	<g>
		<g>
			<path fill="#FFFFFF" d="M99.5,198.9C44.6,198.9,0,154.3,0,99.5C0,44.6,44.6,0,99.5,0c54.8,0,99.5,44.6,99.5,99.5
				C198.9,154.3,154.3,198.9,99.5,198.9z M99.5,16.7c-45.7,0-82.8,37.1-82.8,82.8c0,45.7,37.1,82.8,82.8,82.8
				c45.7,0,82.8-37.1,82.8-82.8C182.3,53.8,145.1,16.7,99.5,16.7z"/>
		</g>
		<polygon fill="#FFFFFF" points="68.9,51.8 68.9,147.1 144.7,99.5 		"/>
	</g>
</g>
</svg>
