<svg xmlns="http://www.w3.org/2000/svg" xmlns:xlink="http://www.w3.org/1999/xlink" viewBox="0 0 1625.6 382.83"><defs><clipPath id="clip-path"><rect x="224.88" y="183.9" width="1181.84" height="198.93" style="fill:none"/></clipPath><clipPath id="clip-path-2"><rect width="1625.6" height="127.72" style="fill:none"/></clipPath></defs><g id="レイヤー_2" data-name="レイヤー 2"><g id="レイヤー_1-2" data-name="レイヤー 1"><g style="clip-path:url(#clip-path)"><path d="M532.66,268.4a21.83,21.83,0,0,1-6.4,16.09q-6.81,6.83-17.85,6.82H494.27V319H479.93V245.49h28.48q11,0,17.85,6.81a21.86,21.86,0,0,1,6.4,16.1m-14.35,0a9.71,9.71,0,0,0-2.89-7.33,10.65,10.65,0,0,0-7.74-2.78H494.27v20.12h13.41a10.75,10.75,0,0,0,7.74-2.74,9.51,9.51,0,0,0,2.89-7.27" style="fill:#004ea2"/><polygon points="590.34 318.96 542.66 318.96 542.66 245.49 557.01 245.49 557.01 306.17 590.34 306.17 590.34 318.96" style="fill:#004ea2"/><path d="M656.68,319h-15l-4.33-13H611.28l-4.43,13h-15l26.73-73.47h11.25Zm-23.11-25.07-9-26.73-9.28,26.73Z" style="fill:#004ea2"/><polygon points="711.78 245.49 689.7 288.83 689.7 318.96 675.46 318.96 675.46 288.83 653.38 245.49 668.96 245.49 682.69 275.1 696.2 245.49 711.78 245.49" style="fill:#004ea2"/><path d="M771.84,297.81q0,10-6.19,15.58T749.34,319H718.59V245.49h29.52q10.62,0,16.66,5.57t6,15.07a17.13,17.13,0,0,1-3.1,10,16.24,16.24,0,0,1-6,5.16q10.11,4.74,10.11,16.51m-15.38-31.06a8,8,0,0,0-2.47-6.14q-2.47-2.33-7-2.32h-14v16.92h14c3,0,5.37-.78,7-2.32a8,8,0,0,0,2.47-6.14m1,30.33a8.86,8.86,0,0,0-2.48-6.45q-2.47-2.52-7.12-2.52h-15v18.05h15c3.1,0,5.47-.85,7.12-2.58a9,9,0,0,0,2.48-6.5" style="fill:#004ea2"/><path d="M841.18,319h-15l-4.34-13h-26.1l-4.44,13h-15l26.72-73.47h11.25Zm-23.11-25.07-9-26.73-9.29,26.73Z" style="fill:#004ea2"/><path d="M899.79,296.36q-1.86,11.25-9.39,17.34-7.12,5.88-17.65,5.88a27,27,0,0,1-19.81-8.05,23.6,23.6,0,0,1-6.4-12.69q-.82-4.54-.82-16.62t.82-16.61a23.6,23.6,0,0,1,6.4-12.69,26.92,26.92,0,0,1,19.81-8q10.63,0,17.91,6t9.13,17.23H885.24q-2.58-10.43-12.38-10.42a11.58,11.58,0,0,0-10,4.85q-2.79,3.92-2.79,19.7c0,5.72.07,9.29.21,10.74q.72,6.9,3.4,10a11.7,11.7,0,0,0,9.19,3.81q9.79,0,12.38-10.42Z" style="fill:#004ea2"/><polygon points="969.54 318.96 952.83 318.96 933.94 285.53 924.45 296.88 924.45 318.96 910.11 318.96 910.11 245.49 924.45 245.49 924.45 277.48 950.35 245.49 967.79 245.49 943.44 274.69 969.54 318.96" style="fill:#004ea2"/><path d="M1050.23,297.29q0,10.43-7.68,16.35T1023,319.58q-17.24,0-26.83-9.7l9.29-9.29q6.19,6.2,17.75,6.19,13,0,13-9.08,0-4.12-2.17-6.14a12,12,0,0,0-6.6-2.63l-8.88-1.24q-19.5-2.69-19.5-20.53,0-10,6.91-16.15t18.68-6.14q14.86,0,23.74,8.57l-9.09,9q-5.25-5.06-15.06-5.05c-3.65,0-6.45.87-8.41,2.63a8.53,8.53,0,0,0-2.94,6.65,7,7,0,0,0,2.32,5.37,12,12,0,0,0,6.66,2.78l8.66,1.24q9.39,1.35,14,5.68,5.67,5.37,5.67,15.58" style="fill:#004ea2"/><polygon points="1106.78 258.29 1087.58 258.29 1087.58 318.96 1073.24 318.96 1073.24 258.29 1054.05 258.29 1054.05 245.49 1106.78 245.49 1106.78 258.29" style="fill:#004ea2"/><path d="M1169.31,293.78q0,11.46-7.74,18.63t-19.3,7.17q-11.55,0-19.29-7.17t-7.74-18.63V245.49h14.34v47.78q0,6.28,3.41,9.9t9.28,3.61a12.29,12.29,0,0,0,9.34-3.61q3.47-3.62,3.46-9.9V245.49h14.24Z" style="fill:#004ea2"/><path d="M1236.59,281.92q0,12.27-.62,16.09a24.6,24.6,0,0,1-6.81,13.93q-7,7-19.4,7h-26.52V245.49h26.52q12.38,0,19.4,7a24.34,24.34,0,0,1,6.81,13.62q.62,3.71.62,15.79m-14.35,0a103.22,103.22,0,0,0-.51-12.49,13.22,13.22,0,0,0-2.58-6.6q-3.72-4.54-10.73-4.54h-10.84v47.88h10.84q7,0,10.73-4.55a13.63,13.63,0,0,0,2.58-6.91,110,110,0,0,0,.51-12.79" style="fill:#004ea2"/><rect x="1249.18" y="245.49" width="14.34" height="73.47" style="fill:#004ea2"/><path d="M1330.38,282.22c0,8-.31,13.52-.93,16.62a23.07,23.07,0,0,1-6.39,12.69,28.54,28.54,0,0,1-39.73,0,23.53,23.53,0,0,1-6.4-12.69q-.83-4.54-.82-16.62t.82-16.61a23.53,23.53,0,0,1,6.4-12.69,28.54,28.54,0,0,1,39.73,0,23.07,23.07,0,0,1,6.39,12.69q.93,4.65.93,16.61m-14.34,0c0-5.64-.07-9.21-.21-10.73q-.61-6.81-3.4-9.9a12.84,12.84,0,0,0-18.47,0q-2.68,3.09-3.3,9.9-.21,1.86-.21,10.73t.21,10.74q.61,6.81,3.3,9.9a11.83,11.83,0,0,0,9.28,3.92,11.7,11.7,0,0,0,10-4.95Q1316,298,1316,282.22" style="fill:#004ea2"/><path d="M1323.9,198.64H409.33a121.86,121.86,0,0,1,10,11.34H1323.9a71.48,71.48,0,1,1,0,143H422.12A117.7,117.7,0,0,1,413,364.28h911a82.82,82.82,0,0,0,0-165.64" style="fill:#004ea2"/><path d="M324.35,382.83a99.47,99.47,0,1,1,99.46-99.47,99.58,99.58,0,0,1-99.46,99.47m0-182.27a82.81,82.81,0,1,0,82.81,82.8,82.89,82.89,0,0,0-82.81-82.8" style="fill:#004ea2"/><polygon points="293.75 235.72 293.75 331.01 369.55 283.36 293.75 235.72" style="fill:#004ea2"/></g><rect width="235.01" height="127.72" style="fill:#0086d1"/><g style="clip-path:url(#clip-path-2)"><path d="M82.89,34.2c-.06,2.81-.06,5.81-.25,11.17h20.82V85.48c0,1.09.06,1.72,1.66,1.72h3.13c1.78,0,2.17-.44,2.49-1.34.51-1.34.76-8.81.76-12.13l5.62,2.3c-.7,14.37-1.28,16.34-7.79,16.34h-5.68c-4,0-5.56-2.1-5.56-5.23V50.68H82.32c-.77,12.19-1.85,31-22.22,42.21L56.39,88.1A33,33,0,0,0,75.17,64.73a103.27,103.27,0,0,0,1.66-14.05H57.73V45.37H77.08c.19-5,.19-7.72.19-11.17Z" style="fill:#fff"/><path d="M121,69.32c3.26-7.41,3.7-16.79,3.7-22.22l5.18.06c0,7.28-1,18.59-4.22,25.61Zm18-34.48v21a73.33,73.33,0,0,1-3.45,22.6A34.86,34.86,0,0,1,126,93.52l-4.15-4a28.44,28.44,0,0,0,8.75-13.48c.64-2.17,3.26-11.49,3.26-20.24v-21Zm6.32,35.5a90.83,90.83,0,0,0-5.81-20.62l4.66-1.6c2.36,4.66,5.81,14.82,6.64,20.44Zm11.56,20.57H151.8V35.6h5.11Zm9.77-21.33a81.26,81.26,0,0,0-9-20.31l5-1.92c1.15,1.86,6.9,11.12,9.26,19.93ZM178.62,93.4h-5.3V34.2h5.3Z" style="fill:#fff"/><path d="M329.66,66.05c-4.62,33.46-28.78,47.26-57,50.62a1.57,1.57,0,0,1-1.74-1.56V100a1.54,1.54,0,0,1,1.33-1.52c21.58-3.27,33.56-15,36.15-32.46H262.12a1.56,1.56,0,0,1-1.56-1.57V50.1a1.53,1.53,0,0,1,1.53-1.53h99.8a1.57,1.57,0,0,1,1.57,1.57V64.48a1.57,1.57,0,0,1-1.57,1.57Zm27.48-40.59V33.9a1.58,1.58,0,0,1-1.57,1.57H269.13a1.56,1.56,0,0,1-1.56-1.56V19.32a1.56,1.56,0,0,1,1.56-1.56h68.8V10.47a1.57,1.57,0,0,1,1.57-1.56h8.36a1.56,1.56,0,0,1,1.57,1.56v7.29h4.14V10.47a1.56,1.56,0,0,1,1.57-1.56h8.36a1.56,1.56,0,0,1,1.57,1.56V23.89a1.57,1.57,0,0,1-1.57,1.57Z"/><path d="M375.88,66.44V51.61a1.49,1.49,0,0,1,1.53-1.5c15,.51,34.4,2.11,49.27,4A1.48,1.48,0,0,1,428,55.63V70.57a1.47,1.47,0,0,1-1.65,1.48c-15.64-1.93-35-3.71-49-4.13a1.47,1.47,0,0,1-1.43-1.48M377,33.22V18.5a1.49,1.49,0,0,1,1.53-1.5c14.69.51,33.69,2,49.25,3.82a1.48,1.48,0,0,1,1.3,1.49V37.46a1.47,1.47,0,0,1-1.65,1.48c-15.08-1.83-35-3.71-49-4.23A1.48,1.48,0,0,1,377,33.22m1.38,80.89V98.37a1.57,1.57,0,0,1,1.52-1.56c47-1.65,69.69-17.24,74.23-61.69a1.52,1.52,0,0,1,1.5-1.38h17.21a1.55,1.55,0,0,1,1.53,1.67C469.53,94,434.24,114.63,380,115.69a1.59,1.59,0,0,1-1.62-1.58M446,28.05V14.48a1.55,1.55,0,0,1,1.55-1.55h8.28a1.54,1.54,0,0,1,1.55,1.55V28.05a1.54,1.54,0,0,1-1.55,1.55h-8.28A1.55,1.55,0,0,1,446,28.05m15.52,0V14.48a1.55,1.55,0,0,1,1.55-1.55h8.29a1.54,1.54,0,0,1,1.54,1.55V28.05a1.54,1.54,0,0,1-1.54,1.55h-8.29a1.55,1.55,0,0,1-1.55-1.55"/><path d="M499.26,98.87C523,95.75,539.37,87.76,550,74.9A406.78,406.78,0,0,0,507,68a1.51,1.51,0,0,1-1.36-1.51V55.12A67.3,67.3,0,0,1,486,68.7a1.56,1.56,0,0,1-2.16-1.44V50.56a1.51,1.51,0,0,1,.7-1.28c9.69-6.17,18.16-17.67,22.74-30.83a1.54,1.54,0,0,1,1.45-1h75.78c.85,0,1.53.42,1.53.93v.91c-1.25,51.07-20.36,91.74-86.46,97.36a1.59,1.59,0,0,1-1.72-1.57V100.41a1.57,1.57,0,0,1,1.37-1.54m21-63.75A83.66,83.66,0,0,1,509.5,50.87a442.22,442.22,0,0,1,49.9,7.93,100.54,100.54,0,0,0,5.75-23.68Z"/><path d="M589.89,116.33V97.73a1.47,1.47,0,0,1,.46-1.08c8.17-7.8,14.37-19.07,14.37-47.73V18.23a1.5,1.5,0,0,1,1.5-1.5H622a1.5,1.5,0,0,1,1.51,1.5V47.65c0,41.79-12.65,59-31.31,70a1.51,1.51,0,0,1-2.26-1.32M635,114.9V18.11a1.5,1.5,0,0,1,1.5-1.5h15.73a1.51,1.51,0,0,1,1.51,1.5V92.37c15-4.82,21.63-24.1,22.91-43a1.48,1.48,0,0,1,1.48-1.4h15.76a1.53,1.53,0,0,1,1.52,1.59c-1.79,40.42-20.72,64.22-58.79,66.83A1.52,1.52,0,0,1,635,114.9"/><path d="M774.22,55.35v61.94a1.52,1.52,0,0,1-1.52,1.53H755.51a1.52,1.52,0,0,1-1.52-1.53V65.93c-15.14,6.19-31.56,9.94-46.09,12.16a1.53,1.53,0,0,1-1.74-1.52V61.34a1.53,1.53,0,0,1,1.26-1.5c47-8.45,67.61-25.5,76.18-44.19a1.48,1.48,0,0,1,1.36-.88h18.11a1.54,1.54,0,0,1,1.47,2c-5.42,17-16.48,29.41-30.32,38.59"/><path d="M795.84,113.84V98a1.49,1.49,0,0,1,1.09-1.43c37.79-10.76,59.77-36.46,65-78.16a1.5,1.5,0,0,1,1.48-1.32h18a1.53,1.53,0,0,1,1.5,1.71c-6.57,53.81-36.91,85.88-85.22,96.54a1.52,1.52,0,0,1-1.84-1.48"/><path d="M950.35,65.36C939.2,42.82,937.59,41.44,929,41.44h-3.8L913.56,68.92c-4.7,12.58-12.32,19.23-23.84,21.23a1.56,1.56,0,0,1-1.8-1.54V72.72a1.56,1.56,0,0,1,.83-1.35c3.69-2.07,6.24-5.89,8.49-12l14.21-35.7a1.54,1.54,0,0,1,1.44-1h14.47c20.23,0,25.75,3,39.09,30.13,9.4,19.25,18.7,37,30.65,41.93a1.51,1.51,0,0,1,1,1.4v15.67c0,2.09-.88,2.84-1.83,2.65-20-3.87-32.38-21.78-45.88-49.12M960,31.88v-14a1.52,1.52,0,0,1,1.51-1.51h8.93A1.52,1.52,0,0,1,972,17.89v14a1.52,1.52,0,0,1-1.52,1.52h-8.93A1.52,1.52,0,0,1,960,31.88m16.1,0v-14a1.51,1.51,0,0,1,1.51-1.51h8.93a1.51,1.51,0,0,1,1.51,1.51v14a1.51,1.51,0,0,1-1.51,1.52h-8.93a1.51,1.51,0,0,1-1.51-1.52"/><path d="M995.85,68.07V52.87a1.54,1.54,0,0,1,1.54-1.54h88.94a1.54,1.54,0,0,1,1.54,1.54v15.2a1.54,1.54,0,0,1-1.54,1.54H997.39a1.54,1.54,0,0,1-1.54-1.54"/><path d="M1102.9,66.39V51.67a1.53,1.53,0,0,1,1.58-1.55c15,.51,34.33,2.1,49.17,4a1.54,1.54,0,0,1,1.33,1.54V70.51a1.52,1.52,0,0,1-1.71,1.53c-15.61-1.92-34.89-3.7-48.89-4.11a1.53,1.53,0,0,1-1.48-1.54m1.15-33.22V18.55a1.54,1.54,0,0,1,1.58-1.55c14.67.51,33.62,2,49.15,3.82a1.53,1.53,0,0,1,1.35,1.54v15a1.52,1.52,0,0,1-1.71,1.53c-15.05-1.82-34.88-3.69-48.9-4.22a1.53,1.53,0,0,1-1.47-1.54m1.38,81V98.35a1.55,1.55,0,0,1,1.5-1.54c47-1.64,69.7-17.23,74.24-61.67a1.56,1.56,0,0,1,1.53-1.4h17.16a1.56,1.56,0,0,1,1.55,1.7c-4.87,58.59-40.17,79.19-94.38,80.25a1.58,1.58,0,0,1-1.6-1.56"/><path d="M1217.19,113.41V99.51a1.5,1.5,0,0,1,1.5-1.5h60.24V80.3h-58.74a1.51,1.51,0,0,1-1.51-1.5V65.13a1.51,1.51,0,0,1,1.51-1.5h58.74V48.23h-60.24a1.51,1.51,0,0,1-1.5-1.51V32.94a1.5,1.5,0,0,1,1.5-1.5h77.7a1.51,1.51,0,0,1,1.51,1.5v80.47a1.51,1.51,0,0,1-1.51,1.5h-77.7a1.5,1.5,0,0,1-1.5-1.5"/><path d="M1316.44,35.86V20.1a1.53,1.53,0,0,1,1.62-1.55A453.86,453.86,0,0,1,1366,24.43a1.54,1.54,0,0,1,1.26,1.52V42.21a1.52,1.52,0,0,1-1.82,1.51,427.73,427.73,0,0,0-47.59-6.32,1.52,1.52,0,0,1-1.41-1.54m1.61,77.9V97.82a1.55,1.55,0,0,1,1.43-1.53c41.17-3.13,67.06-15.23,71.67-60a1.54,1.54,0,0,1,1.52-1.4h17.39a1.58,1.58,0,0,1,1.56,1.7c-4.63,55-36.94,76.76-91.95,78.73a1.57,1.57,0,0,1-1.62-1.56"/><path d="M1427.58,116.42v-14l26.79-50.53a18.52,18.52,0,0,0,2.33-6.62c.19-1.9.29-4.25.29-7.07,0-1.26,0-2.59-.07-4a9.83,9.83,0,0,0-.8-3.71,6.26,6.26,0,0,0-6.41-3.79,7.38,7.38,0,0,0-5.32,1.89,7.36,7.36,0,0,0-2,5.54V42.6h-14.85V34.45a22,22,0,0,1,1.74-8.74,22.59,22.59,0,0,1,4.81-7.13,21.7,21.7,0,0,1,7-4.88,21.24,21.24,0,0,1,8.73-1.82,21.76,21.76,0,0,1,10,2.11,20,20,0,0,1,6.91,5.75,25,25,0,0,1,3.86,8.3,38.25,38.25,0,0,1,1.24,9.9q0,3.8-.14,6.34a38.84,38.84,0,0,1-.59,4.87,21.22,21.22,0,0,1-1.45,4.66q-1,2.34-2.77,5.68l-21.84,42.08h26.79v14.85Z" style="fill:#0086d1"/><path d="M1478.83,34.16a22.69,22.69,0,0,1,1.82-9.32,21.7,21.7,0,0,1,4.88-7,20.92,20.92,0,0,1,7.06-4.44,23.66,23.66,0,0,1,16.74,0,21.06,21.06,0,0,1,7.07,4.44,21.83,21.83,0,0,1,4.87,7,22.69,22.69,0,0,1,1.82,9.32V95a22.69,22.69,0,0,1-1.82,9.32,21.83,21.83,0,0,1-4.87,7,21.06,21.06,0,0,1-7.07,4.44,23.66,23.66,0,0,1-16.74,0,20.92,20.92,0,0,1-7.06-4.44,21.7,21.7,0,0,1-4.88-7,22.69,22.69,0,0,1-1.82-9.32ZM1493.68,95a7.35,7.35,0,0,0,2,5.32,7.56,7.56,0,0,0,10.48,0,7.35,7.35,0,0,0,2-5.32V34.16a7.35,7.35,0,0,0-2-5.32,7.56,7.56,0,0,0-10.48,0,7.35,7.35,0,0,0-2,5.32Z" style="fill:#0086d1"/><path d="M1530.08,116.42v-14l26.79-50.53a18.32,18.32,0,0,0,2.33-6.62,69.65,69.65,0,0,0,.29-7.07c0-1.26,0-2.59-.07-4a9.64,9.64,0,0,0-.8-3.71,7,7,0,0,0-2.18-2.7,7,7,0,0,0-4.23-1.09,7.34,7.34,0,0,0-5.31,1.89,7.36,7.36,0,0,0-2,5.54V42.6h-14.86V34.45a22,22,0,0,1,1.75-8.74,22.43,22.43,0,0,1,4.81-7.13,21.77,21.77,0,0,1,7-4.88,21.25,21.25,0,0,1,8.74-1.82,21.79,21.79,0,0,1,10,2.11,20,20,0,0,1,6.91,5.75,25.21,25.21,0,0,1,3.86,8.3,38.69,38.69,0,0,1,1.24,9.9q0,3.8-.15,6.34a38.87,38.87,0,0,1-.58,4.87,21.77,21.77,0,0,1-1.45,4.66q-1,2.34-2.77,5.68l-21.84,42.08h26.79v14.85Z" style="fill:#0086d1"/><path d="M1581.34,116.42v-14l26.79-50.53a18.52,18.52,0,0,0,2.33-6.62c.19-1.9.29-4.25.29-7.07,0-1.26,0-2.59-.08-4a9.46,9.46,0,0,0-.8-3.71,6.86,6.86,0,0,0-2.18-2.7,7,7,0,0,0-4.22-1.09,7.35,7.35,0,0,0-5.32,1.89,7.36,7.36,0,0,0-2,5.54V42.6h-14.85V34.45a22,22,0,0,1,1.74-8.74,22.59,22.59,0,0,1,4.81-7.13,21.7,21.7,0,0,1,7-4.88,21.24,21.24,0,0,1,8.73-1.82,21.76,21.76,0,0,1,10,2.11,20,20,0,0,1,6.91,5.75,25,25,0,0,1,3.86,8.3,38.25,38.25,0,0,1,1.24,9.9q0,3.8-.14,6.34a38.84,38.84,0,0,1-.59,4.87,21.22,21.22,0,0,1-1.45,4.66q-1,2.34-2.77,5.68l-21.84,42.08h26.79v14.85Z" style="fill:#0086d1"/></g></g></g></svg>