<svg xmlns="http://www.w3.org/2000/svg" width="901.936" height="70.866" viewBox="0 0 901.936 70.866"><path fill="#0086D1" d="M0 0h130.394v70.866H0z"/><path d="M45.992 18.976c-.036 1.56-.036 3.225-.142 6.2H57.4v22.251c0 .603.036.957.921.957h1.736c.992 0 1.205-.248 1.382-.744.284-.744.425-4.89.425-6.732l3.118 1.275c-.39 7.973-.709 9.07-4.323 9.07h-3.153c-2.232 0-3.083-1.169-3.083-2.905v-20.23h-8.751c-.425 6.767-1.027 17.219-12.33 23.42l-2.055-2.657c5.846-2.658 9.354-7.76 10.417-12.968.531-2.587.779-5.386.921-7.795H32.032v-2.941h10.736c.106-2.764.106-4.287.106-6.2h3.118zm21.154 19.487c1.807-4.11 2.055-9.318 2.055-12.33l2.87.035c0 4.039-.566 10.311-2.338 14.208l-2.587-1.913zm9.992-19.133v11.657c0 4.251-.603 8.503-1.913 12.542-1.559 4.818-4.323 7.405-5.315 8.361l-2.303-2.196c1.062-.992 3.685-3.33 4.854-7.476.354-1.205 1.807-6.378 1.807-11.231V19.33h2.87zm3.508 19.699c-.461-3.685-2.091-8.822-3.225-11.443l2.586-.886c1.311 2.586 3.225 8.22 3.685 11.338l-3.046.991zm6.412-19.274v30.684h-2.834V19.755h2.834zm5.421 18.849c-1.062-3.969-3.118-8.256-4.996-11.267l2.799-1.063c.638 1.027 3.826 6.165 5.137 11.055l-2.94 1.275zm6.626-19.628V51.82h-2.941V18.976h2.941zm83.8 17.669c-2.562 18.564-15.967 26.225-31.628 28.086a.87.87 0 01-.968-.865v-8.367a.86.86 0 01.738-.844c11.973-1.817 18.619-8.321 20.057-18.011h-25.67a.867.867 0 01-.867-.867v-7.981c0-.468.38-.848.848-.848h55.375c.48 0 .87.389.87.87v7.956a.87.87 0 01-.87.87h-17.885zm15.246-22.517v4.68a.87.87 0 01-.87.87h-47.958a.864.864 0 01-.864-.864v-8.096c0-.477.387-.864.864-.864h38.174V5.812c0-.48.389-.87.87-.87h4.64c.48 0 .87.389.87.87v4.042h2.297V5.812c0-.48.389-.87.87-.87h4.64c.48 0 .87.389.87.87v7.446a.87.87 0 01-.87.87h-3.533zm10.4 22.733v-8.225c0-.469.378-.847.847-.831 8.33.282 19.087 1.17 27.335 2.239a.821.821 0 01.713.823v8.285a.82.82 0 01-.918.823c-8.678-1.069-19.406-2.057-27.186-2.289a.815.815 0 01-.791-.825zm.638-18.429v-8.166c0-.469.379-.847.848-.831 8.153.279 18.694 1.109 27.325 2.119a.823.823 0 01.724.825v8.404a.819.819 0 01-.917.823c-8.364-1.016-19.4-2.057-27.192-2.348a.817.817 0 01-.788-.826zm.766 44.88v-8.734a.87.87 0 01.845-.863c26.074-.915 38.663-9.568 41.182-34.23a.844.844 0 01.832-.764h9.548c.495 0 .889.433.848.926-2.698 32.518-22.279 43.952-52.359 44.541a.882.882 0 01-.896-.876zm37.507-47.748v-7.53c0-.475.385-.859.859-.859h4.596c.475 0 .859.385.859.859v7.53a.859.859 0 01-.859.859h-4.596a.858.858 0 01-.859-.859zm8.612 0v-7.53c0-.475.385-.859.859-.859h4.596c.475 0 .859.385.859.859v7.53a.859.859 0 01-.859.859h-4.596a.858.858 0 01-.859-.859zm20.934 39.293c13.175-1.731 22.252-6.164 28.137-13.3-8.521-1.791-16.263-3.043-23.865-3.816a.84.84 0 01-.757-.839v-6.317c-3.138 3.079-6.804 5.734-10.854 7.533-.564.251-1.203-.183-1.203-.8v-9.266c0-.29.147-.553.392-.709 5.374-3.424 10.074-9.805 12.617-17.107a.85.85 0 01.802-.575h42.048c.47 0 .85.229.85.51v.51c-.696 28.334-11.298 50.899-47.974 54.017a.881.881 0 01-.952-.871V55.71a.866.866 0 01.759-.853zm11.679-35.371c-1.532 2.934-3.573 5.932-5.997 8.739 8.994.957 18.69 2.361 27.684 4.402 1.532-3.891 2.552-8.292 3.19-13.14h-24.877zm38.602 45.06V54.222c0-.226.093-.439.256-.595 4.531-4.327 7.973-10.582 7.973-26.486V10.114c0-.461.374-.835.835-.835h8.728c.461 0 .835.374.835.835v16.325c0 23.187-7.02 32.748-17.372 38.836-.554.325-1.255-.087-1.255-.729zm25.006-.793V10.051c0-.461.374-.835.835-.835h8.728c.461 0 .835.374.835.835v41.202c8.341-2.677 12.005-13.372 12.71-23.846a.827.827 0 01.826-.776h8.742a.85.85 0 01.842.884c-.993 22.426-11.493 35.63-32.616 37.08a.85.85 0 01-.902-.842zm77.269-33.041v34.366a.846.846 0 01-.846.846h-9.535a.846.846 0 01-.846-.846V36.581c-8.401 3.435-17.511 5.513-25.57 6.745a.844.844 0 01-.967-.842v-8.451c0-.408.3-.757.702-.829 26.072-4.692 37.511-14.15 42.264-24.518a.83.83 0 01.758-.49h10.047c.571 0 .99.563.817 1.107-3.008 9.441-9.148 16.313-16.824 21.409zm11.994 32.449v-8.798c0-.37.25-.692.605-.793 20.967-5.973 33.165-20.229 36.05-43.368a.83.83 0 01.818-.732h9.997c.502 0 .896.448.835.947-3.645 29.858-20.478 47.654-47.283 53.566a.845.845 0 01-1.022-.822zm85.728-26.898c-6.188-12.504-7.081-13.269-11.865-13.269h-2.105l-6.442 15.246c-2.609 6.977-6.834 10.666-13.226 11.778-.521.091-.999-.327-.999-.856v-8.813c0-.317.182-.596.458-.751 2.046-1.149 3.461-3.264 4.71-6.653l7.885-19.806a.86.86 0 01.799-.542h8.028c11.227 0 14.288 1.658 21.688 16.712 5.219 10.685 10.376 20.524 17.005 23.269a.833.833 0 01.536.773v8.697c0 1.159-.491 1.572-1.018 1.47-11.071-2.146-17.962-12.086-25.454-27.255zm5.359-18.574v-7.76a.84.84 0 01.84-.84h4.954a.84.84 0 01.84.84v7.761a.84.84 0 01-.84.84h-4.954a.841.841 0 01-.84-.841zm8.931 0v-7.76a.84.84 0 01.84-.84h4.954a.84.84 0 01.84.84v7.761a.84.84 0 01-.84.84h-4.954a.841.841 0 01-.84-.841zm10.957 20.081v-8.437c0-.471.382-.853.853-.853h49.347c.471 0 .853.382.853.853v8.437a.853.853 0 01-.853.853h-49.347a.853.853 0 01-.853-.853zm59.394-.936v-8.168c0-.485.392-.877.877-.86 8.318.283 19.046 1.168 27.28 2.235a.85.85 0 01.738.852v8.227a.847.847 0 01-.95.851c-8.662-1.065-19.358-2.051-27.126-2.283a.844.844 0 01-.819-.854zm.637-18.43v-8.11c0-.485.392-.877.877-.86 8.141.281 18.654 1.108 27.27 2.117.433.051.75.418.75.853v8.345a.848.848 0 01-.95.852c-8.35-1.013-19.352-2.051-27.132-2.343a.844.844 0 01-.815-.854zm.766 44.919v-8.757a.86.86 0 01.834-.852c26.077-.912 38.669-9.561 41.191-34.217a.86.86 0 01.846-.777h9.52c.503 0 .904.44.862.942-2.703 32.511-22.287 43.94-52.369 44.526a.87.87 0 01-.884-.865zm62.005-.401v-7.71c0-.46.373-.833.833-.833h33.422v-9.823h-32.592a.833.833 0 01-.833-.833v-7.584c0-.46.373-.833.833-.833h32.592v-8.547h-33.422a.833.833 0 01-.833-.833v-7.647c0-.46.373-.833.833-.833h43.114c.46 0 .833.373.833.833v44.645c0 .46-.373.833-.833.833h-43.114a.836.836 0 01-.833-.835zm55.068-43.024V11.15a.85.85 0 01.902-.858c8.282.532 18.345 1.777 26.597 3.262a.85.85 0 01.697.844v9.022c0 .539-.48.943-1.008.84-7.838-1.533-18.51-2.975-26.402-3.511a.843.843 0 01-.786-.851zm.894 43.222v-8.844c0-.446.35-.815.796-.849 22.839-1.736 37.209-8.45 39.763-33.293a.857.857 0 01.844-.775h9.651c.503 0 .903.441.861.942-2.566 30.516-20.493 42.592-51.016 43.682a.87.87 0 01-.899-.863z" fill="#FFF"/><path d="M792.067 64.596V56.84l14.864-28.033c.754-1.399 1.185-2.625 1.293-3.676.107-1.05.161-2.355.161-3.918 0-.699-.014-1.44-.04-2.222-.027-.78-.176-1.467-.444-2.061a3.847 3.847 0 00-1.212-1.494c-.539-.404-1.32-.605-2.343-.605-1.239 0-2.222.351-2.948 1.05-.728.7-1.091 1.725-1.091 3.07v4.686h-8.24v-4.524c0-1.723.323-3.339.969-4.847a12.505 12.505 0 012.666-3.959c1.077-1.131 2.37-2.032 3.878-2.706 1.508-.673 3.123-1.01 4.848-1.01 2.153 0 3.999.391 5.534 1.171a11.07 11.07 0 013.837 3.191c.97 1.347 1.683 2.882 2.141 4.604.457 1.725.687 3.555.687 5.494 0 1.4-.027 2.572-.08 3.514a21.524 21.524 0 01-.323 2.706 11.996 11.996 0 01-.808 2.586 53.211 53.211 0 01-1.535 3.15l-12.118 23.348h14.864v8.24h-24.56zm28.437-45.644c0-1.939.336-3.662 1.01-5.171.673-1.507 1.575-2.8 2.706-3.878 1.131-1.076 2.437-1.898 3.918-2.464s3.03-.848 4.646-.848 3.163.282 4.646.848a11.663 11.663 0 013.918 2.464c1.131 1.078 2.032 2.371 2.706 3.878.673 1.509 1.01 3.231 1.01 5.171V52.72c0 1.939-.337 3.663-1.01 5.171-.674 1.508-1.575 2.801-2.706 3.878s-2.438 1.898-3.918 2.464a12.926 12.926 0 01-4.646.848c-1.615 0-3.164-.282-4.646-.848-1.481-.565-2.787-1.387-3.918-2.464s-2.033-2.37-2.706-3.878c-.674-1.508-1.01-3.231-1.01-5.171V18.952zm8.24 33.768c0 1.186.376 2.169 1.131 2.949.754.781 1.723 1.171 2.908 1.171 1.185 0 2.153-.39 2.908-1.171.754-.78 1.131-1.764 1.131-2.949V18.952c0-1.185-.377-2.168-1.131-2.949-.755-.78-1.724-1.171-2.908-1.171-1.186 0-2.154.391-2.908 1.171-.755.781-1.131 1.765-1.131 2.949V52.72zm20.197 11.876V56.84l14.864-28.033c.754-1.399 1.185-2.625 1.293-3.676.107-1.05.161-2.355.161-3.918 0-.699-.014-1.44-.04-2.222-.027-.78-.176-1.467-.444-2.061a3.847 3.847 0 00-1.212-1.494c-.539-.404-1.32-.605-2.343-.605-1.239 0-2.222.351-2.948 1.05-.728.7-1.091 1.725-1.091 3.07v4.686h-8.24v-4.524c0-1.723.323-3.339.969-4.847a12.505 12.505 0 012.666-3.959c1.077-1.131 2.37-2.032 3.878-2.706 1.508-.673 3.123-1.01 4.848-1.01 2.153 0 3.999.391 5.534 1.171a11.07 11.07 0 013.837 3.191c.97 1.347 1.683 2.882 2.141 4.604.457 1.725.687 3.555.687 5.494 0 1.4-.027 2.572-.08 3.514a21.524 21.524 0 01-.323 2.706 11.996 11.996 0 01-.808 2.586 53.211 53.211 0 01-1.535 3.15l-12.118 23.348H873.5v8.24h-24.559zm28.437 0V56.84l14.864-28.033c.754-1.399 1.185-2.625 1.293-3.676.107-1.05.161-2.355.161-3.918 0-.699-.014-1.44-.04-2.222-.027-.78-.176-1.467-.444-2.061A3.847 3.847 0 00892 15.436c-.539-.404-1.32-.605-2.343-.605-1.239 0-2.222.351-2.948 1.05-.728.7-1.091 1.725-1.091 3.07v4.686h-8.24v-4.524c0-1.723.323-3.339.969-4.847a12.505 12.505 0 012.666-3.959c1.077-1.131 2.37-2.032 3.878-2.706 1.508-.673 3.123-1.01 4.848-1.01 2.153 0 3.999.391 5.534 1.171a11.07 11.07 0 013.837 3.191c.97 1.347 1.683 2.882 2.141 4.604.457 1.725.687 3.555.687 5.494 0 1.4-.027 2.572-.08 3.514a21.524 21.524 0 01-.323 2.706 11.996 11.996 0 01-.808 2.586 53.211 53.211 0 01-1.535 3.15l-12.118 23.348h14.864v8.24h-24.56z" fill="#0086D1"/></svg>