<svg height="18.85" viewBox="0 0 179.344 18.85" width="179.344" xmlns="http://www.w3.org/2000/svg"><path d="m405.64 2807.89c1.026-1.78 2.159-2.61 3.491-2.61a1.83 1.83 0 0 1 1.871 1.95c0 1.66-1.619 3.9-7.611 10.61h11.228v-2.93h-4.876c3.581-4.21 4.3-5.51 4.3-7.74a4.585 4.585 0 0 0 -4.858-4.81 5.827 5.827 0 0 0 -4.858 2.53zm16.655-5.53c-3.383 0-5.273 2.81-5.273 7.89a11.221 11.221 0 0 0 1.044 5.34 4.713 4.713 0 0 0 4.175 2.55c3.454 0 5.344-2.78 5.344-7.87a11.5 11.5 0 0 0 -1.044-5.36 4.685 4.685 0 0 0 -4.241-2.55zm0 2.92c1.511 0 2.249 1.63 2.249 4.97 0 3.3-.738 4.96-2.213 4.96-1.548 0-2.268-1.58-2.268-5.02 0-3.28.737-4.91 2.237-4.91zm8.236-.28.378 2.93 2.555-1.85v11.76h3.041v-15.18h-2.681zm11.909 12.76a7.228 7.228 0 0 0 2.321.38c4.265 0 6.928-3.36 6.928-8.7a8.067 8.067 0 0 0 -1.512-5.27 5.109 5.109 0 0 0 -3.976-1.81 5.193 5.193 0 0 0 -5.237 5.41 4.753 4.753 0 0 0 4.715 5.03 4.074 4.074 0 0 0 2.627-.89c-.432 2.19-1.638 3.3-3.635 3.3a5.586 5.586 0 0 1 -2.231-.47zm3.832-12.48a2.38 2.38 0 0 1 -.054 4.76 2.177 2.177 0 0 1 -2.213-2.28 2.3 2.3 0 0 1 2.267-2.48zm13.565-2.05a12.6 12.6 0 0 0 .414-1.31l-2.807-.39a11.324 11.324 0 0 1 -3.653 5.57l1.746 2.49c.449-.4.683-.63.935-.89v4.21h-2.429v2.72h8.241v3.98h2.772v-3.98h6.028v-2.72h-6.028v-2.51h4.8v-2.64h-4.8v-1.82h5.38v-2.71h-10.6zm2.447 2.71v1.82h-5a14.983 14.983 0 0 0 1.242-1.82h3.76zm0 4.46v2.51h-3.131v-2.51zm13.19-5.4.377 2.93 2.556-1.85v11.76h3.041v-15.18h-2.682zm10.951 0 .378 2.93 2.555-1.85v11.76h3.042v-15.18h-2.681zm25.392-2.64h-13.244v7.91a12.7 12.7 0 0 1 -1.979 7.38l2.429 2.05a13.344 13.344 0 0 0 2.069-5.85h7.918v2.19a.492.492 0 0 1 -.54.57h-3.023l.45 2.98h4.21a1.7 1.7 0 0 0 1.71-1.85zm-10.509 2.83h7.7v1.64h-7.7zm0 4.26h7.7v1.76h-7.7zm16.16-4.45.378 2.93 2.555-1.85v11.76h3.041v-15.18h-2.681zm11.432-2.57v16.59h14.5v-16.59zm2.825 6.8v-3.98h8.8v3.98zm0 2.75h8.8v4.23h-8.8zm20.084-9.32a14.151 14.151 0 0 0 0 17.71h2.34a14.346 14.346 0 0 1 0-17.71zm8.5 6.47h3.779v1.29h-6.46v2.66h6.46v3.47h-1.169a19.637 19.637 0 0 0 -1.116-3.34l-2.645.79a19.25 19.25 0 0 1 .936 2.55h-2.916v2.68h16.522v-2.68h-2.951c.432-1.07.756-1.89.99-2.6l-2.753-.78a32.877 32.877 0 0 1 -1.026 3.38h-1.134v-3.47h6.5v-2.66h-6.5v-1.29h3.851v-1.17a24.581 24.581 0 0 0 2.267 1.17l1.3-2.9a20.522 20.522 0 0 1 -7.36-4.53h-2.807a16.716 16.716 0 0 1 -7.359 4.49l1.313 2.83c.828-.36 1.458-.68 2.285-1.11v1.22zm2.232-2.56a14.932 14.932 0 0 0 2.915-2.61 21.963 21.963 0 0 0 3 2.61h-5.92zm14.774-3.91a14.346 14.346 0 0 1 0 17.71h2.34a14.151 14.151 0 0 0 0-17.71z" fill-rule="evenodd" transform="translate(-403.406 -2801.53)"/></svg>