<svg xmlns="http://www.w3.org/2000/svg" width="420.781" height="18.531"><path fill-rule="evenodd" d="M1.928 10.161a32.356 32.356 0 0 1 7.18 7.305l2.537-2.19a36.083 36.083 0 0 0-2.321-2.624L9 12.313c3.887-2.907 5.722-5.588 6.5-9.382H.006v2.888h11.261a13.051 13.051 0 0 1-4.3 4.568 44.154 44.154 0 0 0-2.825-2.246zm22.24-8.174h-3v10.08h3V1.987zm8.439-.283h-3.041v8.06c-.072 3.341-1.871 4.531-7.558 4.946l1.1 2.907c6.784-.718 9.339-2.869 9.5-8.1V1.702zm13.088 5.55a22.5 22.5 0 0 1-7.7 6.267l1.709 2.34a21.747 21.747 0 0 0 7-5.984l.018 4.21c0 .472-.234.642-.828.642-.288 0-.936-.038-2.141-.132l.414 2.925c1.728.057 1.835.057 2.321.057a3.073 3.073 0 0 0 2.231-.566 2.743 2.743 0 0 0 .846-2.1l-.036-7.663h3.887V4.399h-3.888v-2.85h-2.843v2.85h-7.879V7.25h6.892zm21.735 9.457h3.545l-2.556-3.1a13.33 13.33 0 0 0 1.872-3.568l-2.25-1.755a14.935 14.935 0 0 1-1.439 3.133l-2.537-3.077c1.907-1.151 2.573-2.095 2.573-3.624 0-2.038-1.512-3.435-3.779-3.492-2.393.057-3.923 1.416-3.923 3.511a4.808 4.808 0 0 0 1.242 3.039c-2.033 1.227-2.9 2.53-2.9 4.342a4.842 4.842 0 0 0 5.056 4.889 6.951 6.951 0 0 0 4.175-1.435zm-2.645-3.266a3.89 3.89 0 0 1-2.321.831 2.189 2.189 0 0 1-2.339-2.19 2.761 2.761 0 0 1 1.638-2.36zm-2.3-7.022a2.958 2.958 0 0 1-.936-1.7 1.134 1.134 0 0 1 1.278-1.095 1.084 1.084 0 0 1 1.17 1.114c0 .623-.234.906-1.3 1.548zM74.091 3.95a21.514 21.514 0 0 1 3.275 5.229l2.7-1.737a22.045 22.045 0 0 0-3.526-4.964zm11.643-1.774c-1.152 7.72-3.869 11.024-10.491 12.8l1.853 2.643c6.91-1.945 10.149-5.984 11.859-14.762zm8.879 1.057v2.982h12.47V3.233H94.606zm-1.3 9.665v2.963h15.079v-2.963H93.313zm20.023-6.437a20.116 20.116 0 0 1 1.422 4.757l2.429-.6a19.518 19.518 0 0 0-1.583-4.8zm4.175-.868a22.144 22.144 0 0 1 1.26 4.7l2.357-.548a19.041 19.041 0 0 0-1.35-4.643zm6.118-.435c-1.17 6.758-3.113 8.967-9.069 10.4l1.817 2.265c5.866-1.6 8.638-4.889 10.059-11.967zm12.5-2.982a11.2 11.2 0 0 1-4.427 5.266l1.836 2.228A14.4 14.4 0 0 0 138 4.951h5.165c-.81 5.493-4.5 9.023-10.509 10.061l1.17 2.794c7.791-1.529 12.182-6.947 12.65-15.63h-10.349zm33.509 11.231l1.044 3.3h3.347L168.775 1.53h-3.8l-5.255 15.177h3.347l1.062-3.3h5.506zm-.863-2.7h-3.8l1.907-6zm13.808-6.248h4.373V1.533h-11.789v2.926h4.373V16.71h3.041V4.46zm31.308-.113V1.875h-7.144V.554h-2.681v1.321h-7.16v2.473h7.162v.736h-6.032v7.456h3.941a12.676 12.676 0 0 1-5.416 3.039l1.565 2.832a16.218 16.218 0 0 0 5.938-4.455v4.549h2.681v-4.644a14.694 14.694 0 0 0 5.812 4.493l1.62-2.85a12.782 12.782 0 0 1-5.4-2.964h4.03V5.084h-6.064v-.736h7.144zm-13.3 2.7h3.473v.906h-3.473v-.906zm0 2.662h3.473v.887h-3.473v-.887zm9.7-2.662v.906h-3.545v-.906h3.545zm0 2.662v.887h-3.545v-.887h3.545zm24.672-7.853h-7.217V.575h-2.84v1.284h-6.946v2.616h17v-2.62zm-1.566 3.568h-13.856v6.852h5.47v2.793a.426.426 0 0 1-.5.491h-2.105l.594 2.964h3.023c1.241-.076 1.745-.661 1.727-2.039v-4.209h5.65V5.423zm-2.843 2.4v2.02h-8.241v-2.02h8.241zm-9.393 4.511a13.073 13.073 0 0 1-3.383 3.662l1.818 2.209a17.14 17.14 0 0 0 3.868-4.474zm13.946 3.417a12.255 12.255 0 0 1-3.851-3.454l-2.357 1.4a15.412 15.412 0 0 0 4.264 4.474zm5.64-8.985c1.026-1.775 2.16-2.605 3.491-2.605a1.825 1.825 0 0 1 1.872 1.944c0 1.661-1.62 3.908-7.612 10.609h11.228v-2.929h-4.877c3.581-4.21 4.3-5.512 4.3-7.739a4.589 4.589 0 0 0-4.859-4.814 5.827 5.827 0 0 0-4.858 2.53zm16.659-5.534c-3.383 0-5.273 2.813-5.273 7.89a11.227 11.227 0 0 0 1.044 5.342 4.7 4.7 0 0 0 4.175 2.549c3.455 0 5.344-2.775 5.344-7.872a11.537 11.537 0 0 0-1.044-5.361 4.7 4.7 0 0 0-4.246-2.548zm0 2.926c1.511 0 2.249 1.623 2.249 4.964 0 3.3-.738 4.965-2.213 4.965-1.548 0-2.267-1.586-2.267-5.021-.005-3.285.731-4.908 2.231-4.908zm8.884 2.605c1.026-1.775 2.159-2.605 3.491-2.605a1.824 1.824 0 0 1 1.871 1.944c0 1.661-1.619 3.908-7.611 10.609h11.228v-2.926h-4.876c3.581-4.21 4.3-5.512 4.3-7.739a4.588 4.588 0 0 0-4.858-4.814 5.83 5.83 0 0 0-4.859 2.53zm16.654-5.531c-3.383 0-5.272 2.813-5.272 7.89a11.227 11.227 0 0 0 1.044 5.342 4.7 4.7 0 0 0 4.174 2.549c3.455 0 5.345-2.775 5.345-7.872a11.537 11.537 0 0 0-1.044-5.361 4.7 4.7 0 0 0-4.252-2.548zm0 2.926c1.512 0 2.25 1.623 2.25 4.964 0 3.3-.738 4.965-2.214 4.965-1.547 0-2.267-1.586-2.267-5.021-.007-3.285.733-4.908 2.226-4.908zm15.359 3.1a22.49 22.49 0 0 1-7.7 6.267l1.71 2.34a21.754 21.754 0 0 0 7-5.984l.018 4.21c0 .472-.234.642-.828.642-.288 0-.936-.038-2.141-.132l.413 2.925c1.728.057 1.836.057 2.322.057a3.073 3.073 0 0 0 2.231-.566 2.742 2.742 0 0 0 .846-2.1l-.036-7.663h3.886V4.403h-3.886v-2.85h-2.843v2.85h-7.889v2.851h6.892zm16.714-5.267h-3v10.08h3V1.991zm8.439-.283h-3.05v8.06c-.072 3.341-1.871 4.531-7.557 4.946l1.1 2.907c6.784-.718 9.339-2.869 9.5-8.1V1.706zm6.132 3.167a22.823 22.823 0 0 1 5.614 2.869l1.512-2.737a22.836 22.836 0 0 0-5.848-2.7zm.99 12.534c7.863-1 12-4.606 14.287-12.458l-2.519-1.831c-1.943 7.418-5.29 10.382-12.416 11.042zm22.594-15.441h-2.951v12.024c.036 2.152 1.152 3.058 3.671 3.04h6.172a20.244 20.244 0 0 0 3.257-.265l-.18-3.095a15.818 15.818 0 0 1-3.977.434h-4.7c-1.134 0-1.3-.132-1.3-1.02V9.915a42.831 42.831 0 0 0 8.512-3.058l-1.386-2.812a29.339 29.339 0 0 1-7.126 2.907V1.968zM363.231.005a2.573 2.573 0 1 0 2.393 2.567 2.5 2.5 0 0 0-2.393-2.567zm-.072 1.284a1.287 1.287 0 1 1-1.188 1.283 1.243 1.243 0 0 1 1.188-1.283zm5.815 5.172a20.115 20.115 0 0 1 1.421 4.757l2.43-.6a19.471 19.471 0 0 0-1.584-4.8zm4.174-.868a22.144 22.144 0 0 1 1.26 4.7l2.357-.548a19.042 19.042 0 0 0-1.349-4.643zm6.119-.435c-1.17 6.758-3.113 8.967-9.07 10.4l1.818 2.265c5.866-1.6 8.637-4.889 10.059-11.967zm12.5-2.982a11.2 11.2 0 0 1-4.426 5.266l1.835 2.228a14.4 14.4 0 0 0 4.463-4.719h5.164c-.81 5.493-4.5 9.023-10.508 10.061l1.169 2.794c7.792-1.529 12.182-6.947 12.65-15.63h-10.35zm18.428 1.4h2V1.537h-6.1v2.038h2v5.512h2.106V3.575zm2.951-2.039l-.918 7.551h2.015l.432-3.908 1.1 3.908h1.475l1.1-3.908.432 3.908h2.015l-.917-7.551h-2.232l-1.133 4.059-1.134-4.059h-2.231z"/></svg>