<svg xmlns="http://www.w3.org/2000/svg" width="94.531" height="18.031"><path fill-rule="evenodd" d="M11.63 16.588l.306 1.453h2.771a1.4 1.4 0 0 0 1.547-1.661V4.98h-3.235a9.785 9.785 0 0 0 .432-1.359h3.563V1.186H9.903V.204H7.132v.982H-.012v2.435h3.653a5.5 5.5 0 0 1 .324 1.359H.69v13.062h2.609V9.769l.666 1.3c2.5-.982 3.491-2 3.779-3.87h.81v2.1a1.122 1.122 0 0 0 1.365 1.17h2.609a1.191 1.191 0 0 0 1.116-.34v4.474c0 .415-.108.547-.486.566h-.592v-4.134H4.378v5.55h7.252zm2.015-8.627l-1.224-.321c-.054.831-.216 1.039-.81 1h-.413a.323.323 0 0 1-.378-.378V7.205h2.825v.755zm-8.223-.755a2.77 2.77 0 0 1-2.123 1.605V7.206h2.12zm5.11-3.586a7.649 7.649 0 0 1-.36 1.359H6.79a11.029 11.029 0 0 0-.342-1.359h4.085zm-.36 9.457v1.359H6.754v-1.359h3.419zM42.497.732v7.037h12.615V.728H42.498zm2.627 2.473h7.4v2.17h-7.4v-2.17zm-4.318 5.664v8.816h7.288V8.869h-7.288zm2.537 2.549h2.2v3.7h-2.2v-3.7zm5.848-2.549v8.816h7.576V8.869h-7.575zm2.519 2.549h2.5v3.7h-2.5v-3.7zm27.3 2.114c.918-.264 1.476-.453 3.113-1.076v5.229h12.416V9.379h-6.532a18.044 18.044 0 0 0 5.4-5.474V1.449h-6.585c.305-.453.449-.68.719-1.151L84.32.014a11.5 11.5 0 0 1-6.172 4.72l1.44 2.661a18.941 18.941 0 0 0 2.105-1.114 21.171 21.171 0 0 1 2.429 2.247 25.318 25.318 0 0 1-6.334 2.095zm10.923-9.627a18.457 18.457 0 0 1-3.257 3.115 23.691 23.691 0 0 0-2.772-2.341c.306-.264.522-.453.846-.774h5.183zm1.871 8.117v2.947H84.84v-2.944h6.964z"/></svg>