<svg xmlns="http://www.w3.org/2000/svg" width="94.031" height="17.719"><path fill-rule="evenodd" d="M1.408 3.965a24.4 24.4 0 0 1 5.416 2.151l1.152-2.642A22.825 22.825 0 0 0 2.434 1.53zM10.441.718a16.236 16.236 0 0 1 1.6 3.7l1.475-.755A15.33 15.33 0 0 0 11.825.038zM-.014 8.363a21.8 21.8 0 0 1 5.254 2.3l1.1-2.662A18.589 18.589 0 0 0 .996 5.887zm13.3-7.7a15.563 15.563 0 0 1 1.511 3.738l1.494-.718a15.71 15.71 0 0 0-1.6-3.68zM1.678 17.253c7.27-.943 10.85-3.888 13.3-10.853l-2.465-1.888c-2.033 6.626-4.786 8.91-11.462 9.5zm31.761-7.777l3.473-.528a5.65 5.65 0 0 1-2.447 3.077l1.979 1.85c2.339-1.718 3.509-4.38 3.509-7.891l-6.874.944-.414-2.903-2.627.264.4 3-3.282.451.36 2.661 3.275-.509 1.065 7.833 2.7-.339zm18.654-4.851a22.826 22.826 0 0 1 5.614 2.869l1.512-2.737a22.821 22.821 0 0 0-5.848-2.7zm.99 12.534c7.864-1 12-4.606 14.287-12.458L64.851 2.87c-1.943 7.418-5.29 10.382-12.416 11.042zm29.6-15.214h-2.862v4.492c.036 4.229-.683 6.739-2.519 8.759l2.178 2.322c2.213-2.209 3.185-5.682 3.2-11.345V1.945zm4.876-.472H84.68v15.652c5.2-.264 8.061-2.925 9.357-8.7l-2.735-1.227c-.558 3.436-1.638 5.191-3.743 6.154V1.473z"/></svg>