<svg xmlns="http://www.w3.org/2000/svg" width="630" height="200"><defs><style>.cls-2{fill:#fff}.cls-3{fill:#282828}.cls-4{fill:#ff9600}</style></defs><g id="レイヤー_2" data-name="レイヤー 2"><g id="object"><rect width="630" height="200" rx="10" fill="#dcdcdc"/><path class="cls-2" d="M625 35v155a5 5 0 01-5 5H10a5 5 0 01-5-5V35z"/><path class="cls-3" d="M32.2 13.23a2 2 0 00-.24.63 13.18 13.18 0 01-2.87 5.87 13.63 13.63 0 01-5.21 3.57 5.12 5.12 0 00-1.23-1.67 11 11 0 003.06-1.43A9.7 9.7 0 0030 14.1h-6.71a11.13 11.13 0 00-1.76.08v-1.82a10.15 10.15 0 001.79.1h6.43a8.5 8.5 0 001.25-.07A7.49 7.49 0 0030 11l1.07-.45a8.49 8.49 0 011.22 1.91l-.63.28zm.66-.93a9.4 9.4 0 00-1.19-1.86l1-.45a8 8 0 011.21 1.82zM35 16a14.68 14.68 0 002.27.09h7.47A14.6 14.6 0 0047 16v1.94a15.4 15.4 0 00-2.28-.07h-7.44a15.49 15.49 0 00-2.29.07zm24.72 6.75a27 27 0 00-4.3-4.16 16.55 16.55 0 01-5.33 4.05A5.6 5.6 0 0049 21.09a11.59 11.59 0 002.8-1.54 13.5 13.5 0 004.71-5.71l.15-.36-4.66.08a12 12 0 00-1.53.12l-.05-1.8a6 6 0 001.23.09H52l4.94-.07a3 3 0 001.24-.16l.93 1a2.4 2.4 0 00-.45.75 18.6 18.6 0 01-2.19 3.87 22.33 22.33 0 012.59 2c.35.31.35.31 2 1.95zM73.64 14a9.64 9.64 0 001.53-.09v1.45a11.46 11.46 0 00-1.53-.09h-2.41a10.57 10.57 0 004.44 2.26 5.73 5.73 0 00-.81 1.47c-.59-.26-.81-.38-1.28-.63V22a8.74 8.74 0 00.09 1.47h-1.54v-.65h-6.22v.65h-1.53c0-.42.07-.95.07-1.47v-3.65c-.38.22-.56.31-1.16.62a3.77 3.77 0 00-.81-1.39 9.52 9.52 0 004.16-2.31h-2.3a11.3 11.3 0 00-1.54.09v-1.45a10.05 10.05 0 001.54.09h1.16a9.82 9.82 0 00-.63-1.11l1-.33h-1.88a4.2 4.2 0 00-.6-1.33h1.34a43.68 43.68 0 004.92-.23 20.07 20.07 0 003.65-.6l1 1.28-.42.06-.36.06c-.77.11-1.62.22-3.92.47V14h1.26a8.72 8.72 0 00.88-1.82l1.47.36a12.54 12.54 0 01-.79 1.46zm-7.73 5.46h2.32v-.88h-2.32zm0 2.1h2.32v-.87h-2.32zm6-4.2a10 10 0 01-2.31-2v.21a1.12 1.12 0 010 .27v.37a4.9 4.9 0 000 .9h-1.46a5.75 5.75 0 00.07-.88v-.86a9.42 9.42 0 01-2.18 2zm-3.71-4.92c-.58.05-.58.05-2 .1A13.25 13.25 0 0167 14h1.25zm1.42 9.14h2.48v-.89h-2.47zm0-2.1h2.48v-.89h-2.45zm8.61-2.29a11.81 11.81 0 00-1.63.09v-1.52a11.38 11.38 0 001.64.09h9.53a11.74 11.74 0 001.65-.09v1.52a11.83 11.83 0 00-1.65-.09h-6.31c-.21.49-.28.66-.46 1h5.28a12.63 12.63 0 001.44-.05c0 .08 0 .29-.11.9-.24 2-.5 3.11-.88 3.57s-1 .68-2.44.68c-.73 0-1.26 0-2.11-.08a3.68 3.68 0 00-.38-1.5c1 .11 2 .2 2.48.2.68 0 1-.09 1.16-.3A5.11 5.11 0 0086 19.5h-5.67c-.2.35-.31.54-.65 1.05l-1.68-.3a13.79 13.79 0 001.78-3.06zm.15-5.14a10.33 10.33 0 000-1.16 12.38 12.38 0 001.58.07h6.18a10.45 10.45 0 001.59-.07 9.7 9.7 0 00-.05 1.16v1.82a10.25 10.25 0 00.05 1.19 13.53 13.53 0 00-1.49-.06h-6.47a13.76 13.76 0 00-1.44.05 10.67 10.67 0 000-1.19zm1.5.23v1.44h6.21v-1.44zM96.64 19c-.8 1.8-1.7 2.63-2.84 2.63-1.6 0-2.75-1.62-2.75-3.88a6.06 6.06 0 011.54-4.08 6.32 6.32 0 014.82-2c3.36 0 5.55 2 5.55 5.2a5.4 5.4 0 01-3.41 5.23 9.27 9.27 0 01-2.2.58 4.35 4.35 0 00-.85-1.64 7.28 7.28 0 002.79-.77 3.91 3.91 0 001.94-3.5 3.47 3.47 0 00-1.72-3.11 3.12 3.12 0 00-1.41-.42A20.5 20.5 0 0196.64 19zm-2.06-5a4.68 4.68 0 00-1.9 3.78c0 1.15.49 2.06 1.1 2.06.46 0 .94-.58 1.44-1.79a18.21 18.21 0 001.17-4.73 3.57 3.57 0 00-1.81.68zm13.26 5.32h-1.51a11.78 11.78 0 00.07-1.48v-5.07c0-.77 0-1.39-.07-1.76a10.06 10.06 0 001.47.07h6.45a10.28 10.28 0 001.49-.07 17.53 17.53 0 00-.07 1.76v5.11a9.82 9.82 0 00.07 1.48h-2.69v2.16c0 .39.12.43 1.22.43s1.36-.05 1.52-.29a4.56 4.56 0 00.26-1.79 6 6 0 001.44.58c-.14 1.56-.28 2.08-.63 2.41s-1 .48-2.58.48c-2.32 0-2.74-.2-2.74-1.25v-2.77h-1.26a4.28 4.28 0 01-1.34 2.59 7.06 7.06 0 01-3.55 1.68 4.46 4.46 0 00-.82-1.37 7.18 7.18 0 002.74-.92 2.84 2.84 0 001.33-2zm0-5.92h6.31v-.91h-6.31zm0 2.25h6.31v-.94h-6.31zm0 2.31h6.31V17h-6.31zm16.25-6.25a5.69 5.69 0 00-.09-1.16h1.8a7 7 0 00-.08 1.16v.86h3.85a11.66 11.66 0 001.76-.1v1.7a11.48 11.48 0 00-1.7-.09h-5.13c-.07 1.05-.07 1.09-.11 1.52h3.88a9.49 9.49 0 001.44-.07.49.49 0 010 .14c0 .21 0 .37-.06 1a27.75 27.75 0 01-.48 4.91c-.32 1.33-.78 1.68-2.18 1.68-.49 0-.81 0-1.89-.09a4.6 4.6 0 00-.41-1.63 12.84 12.84 0 002.1.18c.62 0 .76-.15.94-1.12a20.62 20.62 0 00.31-3.51h-3.87a9.17 9.17 0 01-4.49 6.34 3.9 3.9 0 00-1.14-1.33A9 9 0 00121 20c1.2-1.44 1.68-3.07 1.75-5.93h-2.3a14.26 14.26 0 00-1.75.09v-1.7a12.53 12.53 0 001.75.1h3.6z"/><rect class="cls-4" x="365" y="55" width="240" height="60" rx="10"/><path class="cls-4" d="M215 61a4.05 4.05 0 014 4v40a4.05 4.05 0 01-4 4H35a4.05 4.05 0 01-4-4V65a4.05 4.05 0 014-4h180m0-6H35a10 10 0 00-10 10v40a10 10 0 0010 10h180a10 10 0 0010-10V65a10 10 0 00-10-10z"/><rect class="cls-4" x="25" y="55" width="130" height="60" rx="10"/><path class="cls-2" d="M45.62 86.22c.17.1.27.21.27.33s-.27.23-.54.21A26.51 26.51 0 0141 92.24a15.2 15.2 0 00-2.41-1.78 16 16 0 004.6-5.67zm1.32-9.91l2.8.1c.27 0 .46.06.46.25s-.17.23-.36.32v3.82h7.06v2.56h-7.06v7.94c0 1.45 0 3.17-3.38 3.17-.38 0-1 0-1.43-.09a8 8 0 00-.9-2.81 15.07 15.07 0 001.91.19c.9 0 .9-.32.9-1.64v-6.76h-7.07V80.8h7.07zm6.56 8.35A28.56 28.56 0 0157.82 90c-.71.54-1.72 1.49-2.16 1.91a28.56 28.56 0 00-4.26-5.63zM78.57 84v3H60.45v-3zm9.51-6.52c.21 0 .49 0 .49.27s-.21.34-.38.4v5.15c0 5.33-2.37 7.72-5.23 10a9.17 9.17 0 00-2.37-2c4-2.54 4.55-4.92 4.55-7.81v-6.16zm5.21-.19c.23 0 .4 0 .4.23s-.21.3-.4.4v11a22 22 0 006-5.85 7.94 7.94 0 001.4 2.6 31.36 31.36 0 01-6 5.9C93 92.83 92.77 93 92.22 93.44l-1.93-1.26c0-.57.08-1.09.08-1.66V77.15zM118.05 95h-2.5v-.77h-8.08V95H105v-7c-.67.42-1.32.78-2 1.14a6.84 6.84 0 00-1.78-2 21.16 21.16 0 006.53-4.07h-5.85v-1.98h4.31a11.13 11.13 0 00-1.21-1.61l1.14-.55c-.36 0-2 .06-2.29.06a7.21 7.21 0 00-.68-2.16c.55 0 3.7.06 3.93.06a43.11 43.11 0 006.72-.56 17.25 17.25 0 003.34-.84l1.49 1.8c.17.21.23.3.23.46s-.13.19-.25.19a2.58 2.58 0 01-.76-.27 16.83 16.83 0 01-1.82.42l2.35.82c.14.06.19.13.19.21s-.24.23-.61.31a16.54 16.54 0 01-1.14 1.66h4.33v2.06H115a19.9 19.9 0 006.74 3.91c-1.28 1.23-1.47 1.65-1.61 2-1.1-.48-1.6-.76-2-1zm-2.25-8.35a16.4 16.4 0 01-3.08-2.65v2.25h-2.48v-2.18a24.36 24.36 0 01-3.13 2.61zm-5.56 3v-1h-2.77v1zm0 2.69v-1h-2.77v1zm0-13.55c-.61 0-1.83.11-2.58.13a11.34 11.34 0 011.19 1.74l-1.15.44h2.54zm4 1.77a9.36 9.36 0 001.45-2.38 27.32 27.32 0 01-3 .4v2.52h3.06zm1.3 9.09v-1h-2.83v1zm-2.83 1.64v1h2.83v-1zm26.67-3.96a20.06 20.06 0 01-1.4 6.09c-.67 1.21-1.62 1.72-4.31 1.72h-1.07a6 6 0 00-.63-2.5 11 11 0 002.06.21c1.22 0 1.91-.17 2.31-3.34h-7.58a14.24 14.24 0 01-1 2 7.29 7.29 0 00-2.52-.77 25.26 25.26 0 002.33-4.83h-4.68v-2.13h19.21v2.08h-11.87c-.4 1-.44 1.15-.57 1.47zm-.14-11v6.11h-13.48v-6.07zm-10.9 2.08v1.89h8.29v-1.85z"/><path class="cls-3" d="M191.6 98.16h-4.8v-17h-5.38v-3.54c2.69-.13 5.25-.45 6.37-4.67h3.81z"/><path class="cls-4" d="M595 61a4.05 4.05 0 014 4v40a4.05 4.05 0 01-4 4H285a4.05 4.05 0 01-4-4V65a4.05 4.05 0 014-4h310m0-6H285a10 10 0 00-10 10v40a10 10 0 0010 10h310a10 10 0 0010-10V65a10 10 0 00-10-10z"/><path class="cls-2" d="M387.12 86.22c.17.1.27.21.27.33s-.27.23-.54.21a26.51 26.51 0 01-4.35 5.48 15.2 15.2 0 00-2.41-1.78 16 16 0 004.6-5.67zm1.32-9.91l2.8.1c.27 0 .46.06.46.25s-.17.23-.36.32v3.82h7.06v2.56h-7.06v7.94c0 1.45 0 3.17-3.38 3.17-.38 0-1 0-1.43-.09a8 8 0 00-.9-2.81 15.07 15.07 0 001.91.19c.9 0 .9-.32.9-1.64v-6.76h-7.07V80.8h7.07zm6.56 8.35a28.56 28.56 0 014.32 5.34c-.71.54-1.72 1.49-2.16 1.91a28.56 28.56 0 00-4.26-5.63zm25.07-.66v3H402v-3zm9.51-6.52c.21 0 .49 0 .49.27s-.21.34-.38.4v5.15c0 5.33-2.37 7.72-5.23 10a9.17 9.17 0 00-2.37-2c4-2.54 4.55-4.92 4.55-7.81v-6.16zm5.21-.19c.23 0 .4 0 .4.23s-.21.3-.4.4v11a21.78 21.78 0 006-5.85 8.14 8.14 0 001.41 2.6 31.36 31.36 0 01-6 5.9c-1.75 1.26-1.93 1.41-2.48 1.87l-1.93-1.26c0-.57.08-1.09.08-1.66V77.15zm27.05 1.89v13.57c0 1 0 2.35-2.84 2.35h-1.55a5.79 5.79 0 00-.95-2.81 13 13 0 001.92.23c.33 0 .77 0 .77-.88V88.9a6.64 6.64 0 00-1.61 1.81 9.61 9.61 0 01-4.5-4.89 13.74 13.74 0 01-4.7 5.35 5.81 5.81 0 00-1.53-2V95h-2.67V79.18h7.47v-3.4l2.8.15c.1 0 .46 0 .46.27s-.23.34-.55.42v2.56zm-15 9.7a8.62 8.62 0 004.74-7.2h-4.74zm7.51-7.2a7 7 0 001.26 3.88 10.38 10.38 0 003.57 3v-6.88zm28.93-2.35c-5.25 0-9.91 4.28-9.91 8.13 0 2.45 1.72 4.05 6.17 4.38a15.58 15.58 0 00-1.32 3.16c-3.19-.71-7.67-2.54-7.67-7.3 0-2.82 1.6-5.23 4.41-7.39a88.61 88.61 0 00-9.57 1.32l-.4-3.38a13.12 13.12 0 001.37.06 82.79 82.79 0 0016.37-2zm-3.51 3.38A26.79 26.79 0 01481.6 85a15.4 15.4 0 00-1.41 1.22 18.28 18.28 0 00-1.78-2.34zm2-1.55a14.29 14.29 0 011.91 2.22 11.11 11.11 0 00-1.37 1.2 16.89 16.89 0 00-1.84-2.37zm13.44 10.66c5-.94 6.23-4.64 6.23-6.84a5.34 5.34 0 00-5.35-5.48c-.71 7.83-3.74 13.46-5.9 13.46-1.62 0-4.45-2.65-4.45-6.41a10.09 10.09 0 0110-9.61c4.48 0 8.49 3 8.49 8a9.26 9.26 0 01-2.48 6.36 11.45 11.45 0 01-4.72 3 13.37 13.37 0 00-1.82-2.48zm-6.8-5.46c0 1.79.94 3.19 1.59 3.19s1.2-1.42 1.53-2.26a19.91 19.91 0 001.58-7.29 7.29 7.29 0 00-4.7 6.36zM511.25 84v5.86c.15 1.59.44 2.64 3.51 2.64 7.58 0 8.52 0 11.21-.48a5.31 5.31 0 00-.88 2.56h-9.76c-3 0-4.18-.46-5.21-1.93-.44.4-1.37 1.2-2.29 1.91a1.62 1.62 0 010 .3c0 .16-.06.33-.23.33s-.25-.15-.34-.29L506 92.49a16.44 16.44 0 002.67-1.49v-4.68h-2.14V84zM508 75.91a19.68 19.68 0 013.69 3.1c-.54.51-.86.87-1.82 1.89a27.34 27.34 0 00-3.43-3.19zm9.3 12.66h-2.14v3.19h-2.36v-10.9h3.49c-1-.71-1.51-1.07-2-1.36l1.15-1.2h-2.56v-2h9.57l.93 1.1a28 28 0 01-4 3.5h4.77v8.8c0 1.57-.93 2.14-3.34 2.18a5.88 5.88 0 00-.72-2.2 10.18 10.18 0 001.12.08c.58 0 .58-.25.58-.5v-.65h-2.22v2.79h-2.35zm0-5.84h-2.14V84h2.14zm0 2.92h-2.14v1.22h2.14zM516 78.3c.61.46 1.55 1.13 1.87 1.37a13.77 13.77 0 001.74-1.37zm3.61 5.7h2.22v-1.27h-2.22zm0 2.92h2.22v-1.27h-2.22zm14.89-10.28c.33 0 .48.07.48.3s-.29.31-.46.35a64.1 64.1 0 00-.61 9.43c0 3.61.34 5 2.29 5 3.57 0 6.74-4.26 7.6-6.11a13.92 13.92 0 002.12 2.39c-3.42 5.5-7.52 6.72-10 6.72-4.77 0-4.92-4.54-4.92-8.74 0-1.32.24-7.16.24-8.35V76.2zM564.55 95h-2.5v-.77H554V95h-2.46v-7c-.67.42-1.32.78-2 1.14a6.84 6.84 0 00-1.78-2 21.16 21.16 0 006.53-4.07h-5.89v-1.98h4.31a11.13 11.13 0 00-1.18-1.61l1.14-.55c-.36 0-2 .06-2.29.06a7.21 7.21 0 00-.68-2.16c.55 0 3.7.06 3.93.06a43.11 43.11 0 006.72-.56 17.25 17.25 0 003.34-.84l1.49 1.8c.17.21.23.3.23.46s-.13.19-.25.19a2.58 2.58 0 01-.76-.27 16.83 16.83 0 01-1.82.42l2.35.82c.14.06.19.13.19.21s-.24.23-.61.31a16.54 16.54 0 01-1.14 1.66h4.33v2.06h-6.24a19.9 19.9 0 006.74 3.91 5.89 5.89 0 00-1.62 2c-1.09-.48-1.59-.76-2-1zm-2.25-8.35a16.4 16.4 0 01-3.08-2.65v2.25h-2.48v-2.18a24.36 24.36 0 01-3.13 2.61zm-5.56 3v-1H554v1zm0 2.69v-1H554v1zm0-13.55c-.61 0-1.83.11-2.58.13a11.34 11.34 0 011.19 1.74l-1.15.44h2.54zm4 1.77a9.36 9.36 0 001.45-2.38 27.32 27.32 0 01-3 .4v2.52h3.06zm1.3 9.09v-1h-2.83v1zm-2.83 1.64v1h2.83v-1zm26.67-3.96a20.06 20.06 0 01-1.4 6.09c-.67 1.21-1.62 1.72-4.31 1.72h-1.07a6 6 0 00-.63-2.5 11 11 0 002.06.21c1.22 0 1.91-.17 2.31-3.34h-7.58a14.24 14.24 0 01-1 2 7.29 7.29 0 00-2.52-.77 25.26 25.26 0 002.33-4.83h-4.68v-2.13h19.21v2.08h-11.87c-.4 1-.44 1.15-.57 1.47zm-.14-11v6.11h-13.48v-6.07zm-10.9 2.08v1.89h8.29v-1.85z"/><path class="cls-3" d="M323.49 85.55c0 4.51-1.18 13.31-10.62 13.31s-10.62-8.76-10.62-13.31c0-4.35 1.09-13.31 10.62-13.31s10.62 8.76 10.62 13.31zm-16.31 0c0 1.38 0 9.28 5.69 9.28s5.67-7.9 5.67-9.28 0-9.28-5.67-9.28-5.69 7.78-5.69 9.28zm33.56 12.61h-4.8v-17h-5.37v-3.54c2.68-.13 5.25-.45 6.36-4.67h3.81z"/><path d="M254.64 82v4h-9.28v-4z" fill="#3c3c3c"/><path class="cls-3" d="M37 136.5l.44.47-5 5 5 5-.44.46-5-4.93-5 4.93-.46-.46 5-5-5-5 .46-.47 5 5zm-7.94 5.5a1.06 1.06 0 01-1.06 1 1.09 1.09 0 01-1.08-1 1.07 1.07 0 011.08-1.11 1.06 1.06 0 011.06 1.11zm4 4.09a1.09 1.09 0 01-1.06 1.03 1.08 1.08 0 01-.09-2.15H32a1.06 1.06 0 011.07 1.03zm0-8.13A1.06 1.06 0 0132 139a1.07 1.07 0 110-2.14 1.06 1.06 0 011.08 1.05zm4 4.06A1.06 1.06 0 1136 140.9a1.05 1.05 0 011.07 1.1zm10.58-2.43a3.19 3.19 0 00-.66-1.24 3.08 3.08 0 00-2.42-1c-2.27 0-3.7 1.73-3.7 4.52s1.45 4.54 3.7 4.54a2.95 2.95 0 003.18-2.58l1.16.28a4.5 4.5 0 01-.75 1.67 4.35 4.35 0 01-3.63 1.62 4.47 4.47 0 01-3.28-1.23 6.74 6.74 0 01.09-8.61 4.38 4.38 0 013.2-1.19 4.12 4.12 0 014.23 2.89zm10.87 7.71a10 10 0 00-1.64-.09h-6.85v-1a9.58 9.58 0 001-1.19l5.31-7 .52-.6h-4.67a10.41 10.41 0 00-1.63.1v-1.18a10.32 10.32 0 001.63.1h6.09v1a9.19 9.19 0 00-1 1.19l-5.17 6.78c-.19.25-.38.46-.67.79h5.45a11.45 11.45 0 001.64-.1zm8.13-7.73h-1.39v-1.38h1.39zm-1.39 6.18v-1.39h1.39v1.39zm11.5.53a12.47 12.47 0 00-1.5.06v-1.11a6.44 6.44 0 001.52.1h6.67v-6.77h-6.37a12.74 12.74 0 00-1.61.07v-1.12a7.23 7.23 0 001.61.1h7.45v8.27a9.61 9.61 0 00.07 1.27h-1.15v-.84zm12.73-2.13a42.8 42.8 0 019 2.34l-.4 1a23.13 23.13 0 00-4.79-1.49 41.31 41.31 0 00-4.23-.86zm1.1-3.93a43.49 43.49 0 016.9 1.64l-.36 1a33.2 33.2 0 00-7-1.7zm.25-3.83a44.19 44.19 0 017.06 1.54l-.36 1a35.55 35.55 0 00-7.11-1.63zm20.5 10.07a5.81 5.81 0 001.26-.08v1a8.47 8.47 0 00-1.27-.07h-6.87a8.13 8.13 0 00-1.27.07v-1a5.92 5.92 0 001.26.08h4.26c.32-1.49.64-3.55.77-4.81h-3.74a7.13 7.13 0 00-1.24 0v-1a6.9 6.9 0 001.25.09h3.75a1.45 1.45 0 00.66-.1l.46.41a2.66 2.66 0 00-.22 1c-.32 2.22-.43 2.92-.73 4.39zm5.02-1.77a10.1 10.1 0 001.63.08h7.94a10 10 0 001.62-.08v1.17a13.72 13.72 0 00-1.61-.07h-8a13.94 13.94 0 00-1.61.07zm1.42-6.66a8.56 8.56 0 001.49.09h5.35a8.61 8.61 0 001.5-.09v1.14a11.8 11.8 0 00-1.48-.06h-5.38a11.8 11.8 0 00-1.48.06zm18.93 3.18a13.38 13.38 0 01-.16 1.49 5.47 5.47 0 01-1.89 3.69 8.14 8.14 0 01-2.46 1.39 2.53 2.53 0 00-.66-.91 5.3 5.3 0 003.54-2.76 8.12 8.12 0 00.56-2.9h-3.79a14.25 14.25 0 00-1.62.07v-1a10.24 10.24 0 001.63.08H140a10.24 10.24 0 001.63-.08v1a14.06 14.06 0 00-1.61-.07zm-5.06-4.44a7.28 7.28 0 001.61.1h5.45a7.28 7.28 0 001.61-.1v1.07a10.68 10.68 0 00-1.6-.07h-5.47a10.68 10.68 0 00-1.6.07zm22.36 2.48a1.64 1.64 0 00-.33.32 23.13 23.13 0 01-2.82 2.47v4.73a7.14 7.14 0 00.07 1.24h-1.09a8.66 8.66 0 000-1.22v-4.16a16.11 16.11 0 01-4.3 1.93 2.6 2.6 0 00-.49-.84 14.16 14.16 0 003.25-1.23 15.59 15.59 0 004-2.92 4.41 4.41 0 00.78-.91zm6-2.09a17.16 17.16 0 011.88 4.3l-1 .44a15.54 15.54 0 00-1.83-4.34zm8.46 1.38a4.58 4.58 0 00-.25.82 17.46 17.46 0 01-.88 2.47 11.85 11.85 0 01-5.9 6 2.32 2.32 0 00-.74-.85 10.47 10.47 0 003.68-2.54 11 11 0 002.36-3.93 7.37 7.37 0 00.54-2.3zm-.89-2.9a10.89 10.89 0 011.31 2l-.75.32a9.88 9.88 0 00-1.31-2zM169 135a11.62 11.62 0 011.34 2l-.76.32a9.93 9.93 0 00-1.32-2zm3.17 6.34a10 10 0 001.74.08H182a10.63 10.63 0 001.7-.07v1.14a13.88 13.88 0 00-1.71-.06h-8.12a13.27 13.27 0 00-1.74.06zm14.75 4.73A11.93 11.93 0 00191 145a10.6 10.6 0 005.72-6.23 2.91 2.91 0 00.85.83 12.34 12.34 0 01-4.27 5.35 14.1 14.1 0 01-5.23 2.08c-.37.09-.49.12-.84.23zm.9-8.68a18.38 18.38 0 013.38 2.61l-.73.87a15.83 15.83 0 00-3.34-2.75zM37 160.5l.44.47-5 5 5 5-.44.46-5-4.93-5 4.93-.46-.46 5-5-5-5 .46-.47 5 5zm-7.94 5.5a1.06 1.06 0 01-1.06 1 1.09 1.09 0 01-1.08-1 1.07 1.07 0 011.08-1.11 1.06 1.06 0 011.06 1.11zm4 4.09a1.09 1.09 0 01-1.06 1.03 1.08 1.08 0 01-.09-2.15H32a1.06 1.06 0 011.07 1.03zm0-8.13A1.06 1.06 0 0132 163a1.07 1.07 0 110-2.14 1.06 1.06 0 011.08 1.05zm4 4.06A1.06 1.06 0 1136 164.9a1.05 1.05 0 011.07 1.1zm10.29 3.66a12.55 12.55 0 001.32 1.53H47a8.27 8.27 0 00-.83-1.21l-3.3-4.26-1.64 1.61v2.29a8.67 8.67 0 00.11 1.57h-1.3a8.82 8.82 0 00.11-1.57v-7.51a9.35 9.35 0 00-.11-1.57h1.3a8.46 8.46 0 00-.11 1.57V166l4.26-4.29a5 5 0 001-1.16h1.66l-.37.35c-.22.23-.43.42-.61.62s-.42.43-.47.47l-3 3zm9.24-6.11H55.2v-1.38h1.39zm-1.39 6.18v-1.39h1.39v1.39zm13.37-8.38a5 5 0 00-.31-1.19l1.11-.18a6.88 6.88 0 00.15 1.19l.28 1.54 3.17-.49a6.76 6.76 0 001.23-.24l.2 1c-.38 0-.38 0-1.25.18l-3.18.49.53 2.83 3.48-.56a7.94 7.94 0 001.38-.32l.2 1a3.1 3.1 0 00-.62.07 3 3 0 00-.43.07h-.32l-3.52.56.58 3.1a7.08 7.08 0 00.3 1.33l-1.12.21a11.82 11.82 0 00-.16-1.35l-.58-3.13-3.75.6a8 8 0 00-1.35.28l-.18-1.07a7.25 7.25 0 001.39-.12l3.72-.6-.52-2.77-2.89.45a11 11 0 00-1.4.3l-.19-1.06a11.1 11.1 0 001.45-.14l2.86-.45zm11.83 2.23a15.7 15.7 0 011.39 3.11l-1 .32a11.4 11.4 0 00-1.31-3.14zm7.9-.08a9.63 9.63 0 00-.31 1.13 12.66 12.66 0 01-1.23 3.14 10.19 10.19 0 01-4.64 4.05 3 3 0 00-.64-.79 9 9 0 004.44-3.65 10.75 10.75 0 001.19-3 5.66 5.66 0 00.15-1v-.14zm-5-.48a14.46 14.46 0 011.36 3l-.93.32a12 12 0 00-1.29-3.06zm19.31 8.48a27 27 0 00-4.48-4.33 14.67 14.67 0 01-2.68 2.5 18 18 0 01-2.74 1.7 3 3 0 00-.69-.93 11.13 11.13 0 002.84-1.62 15 15 0 005-6.32l.07-.17a.15.15 0 000-.09h-.33l-4.68.07a8.88 8.88 0 00-1.44.11v-1.13a5.35 5.35 0 001.11.08H95l5-.07a2.42 2.42 0 00.9-.11l.59.62a2.32 2.32 0 00-.4.67 16.56 16.56 0 01-2.31 3.93 35.66 35.66 0 014.67 4.19zm-.74-11.76a11.21 11.21 0 011.33 1.92l-.75.37a9.16 9.16 0 00-1.33-2zm1.42-.6a10 10 0 011.34 1.92l-.75.36a9 9 0 00-1.33-2zm3.54 4.78a10.24 10.24 0 001.64.08h7.19a2.27 2.27 0 00.91-.1l.51.61a4.24 4.24 0 00-.39.88c-1.19 3.26-3.12 5.05-6.75 6.27a3.16 3.16 0 00-.6-1 9.75 9.75 0 004.16-2.13 8.75 8.75 0 002.27-3.67h-7.31a12.23 12.23 0 00-1.63.07zm1.21-3.25a6.57 6.57 0 001.47.1h4.68a6.68 6.68 0 001.47-.1v1.08a8.93 8.93 0 00-1.46-.07h-4.71a8.72 8.72 0 00-1.45.07zm22.79.17a3.33 3.33 0 00-.61.58 25.21 25.21 0 01-3.28 2.82v6a8.85 8.85 0 00.07 1.48h-1.22a7.4 7.4 0 00.08-1.46v-5.32a22 22 0 01-5.4 2.45 3.33 3.33 0 00-.55-.94 19.72 19.72 0 007.27-3.62 12 12 0 002.68-2.65zM145 162c-.1.16-.1.16-.3.87a11.93 11.93 0 01-3.51 6.08 12.82 12.82 0 01-4.4 2.63 2.66 2.66 0 00-.69-1 10.45 10.45 0 003.17-1.48 10.34 10.34 0 004.41-6.67h-7.13a9.92 9.92 0 00-1.57.08v-1.13a8.89 8.89 0 001.59.1h6.89a2 2 0 00.89-.11zm4.91-.84a17.16 17.16 0 011.88 4.3l-1 .44a15.54 15.54 0 00-1.83-4.34zm8.46 1.38a4.58 4.58 0 00-.25.82 17.46 17.46 0 01-.88 2.47 11.85 11.85 0 01-5.9 6 2.32 2.32 0 00-.74-.85 10.47 10.47 0 003.68-2.54 10.83 10.83 0 002.35-3.93 7.15 7.15 0 00.55-2.3zm-.9-2.9a10.44 10.44 0 011.32 2l-.79.36a9.43 9.43 0 00-1.3-2zm1.43-.61a11.05 11.05 0 011.33 2l-.75.32a9.93 9.93 0 00-1.32-2zm3.22 6.31a9.92 9.92 0 001.73.08H172a10.63 10.63 0 001.7-.07v1.14a13.88 13.88 0 00-1.71-.06h-8.13a13.18 13.18 0 00-1.73.06zm14.75 4.73A11.93 11.93 0 00181 169a10.55 10.55 0 005.71-6.23 3.06 3.06 0 00.86.83 12.34 12.34 0 01-4.27 5.35A14.17 14.17 0 01178 171c-.38.09-.49.12-.84.23zm.9-8.68a18.38 18.38 0 013.38 2.63l-.73.87a15.83 15.83 0 00-3.34-2.75z"/></g></g></svg>