<svg xmlns="http://www.w3.org/2000/svg" viewBox="0 0 150 30"><g data-name="レイヤー 2"><g data-name="object"><path d="M150 15a15 15 0 01-15 15H15A15 15 0 010 15 15 15 0 0115 0h120a15 15 0 0115 15z" fill="#ff5064"/><path d="M36.84 18.85v-3.42l1.72.1c.21 0 .43 0 .43.2s-.22.21-.36.25v5.35h-1.79v-.8h-8.33v.8h-1.8v-5.91l1.77.1c.14 0 .38 0 .38.18s-.17.19-.35.25v2.9h3.23v-4.12h-4.47V9.32l1.91.12c.07 0 .27 0 .27.18s-.17.19-.34.24v3.22h2.63V8.55l1.77.13c.19 0 .42 0 .42.2s-.2.22-.38.28v3.92h2.65V9.32l1.9.12c.09 0 .28 0 .28.16s-.19.21-.33.26v4.87h-4.5v4.12zm5.79.91c.31 0 .73-.07 1.85-.25v-2.36H42.8a11.35 11.35 0 01-1.3 4.1 4.81 4.81 0 00-1.5-.71c.82-1.35 1.31-2.71 1.31-6.34V8.93h11.16v3.38H43v2.27c0 .39 0 .92-.06 1.15h1.93v-1h-1.54v-1.29h1.54v-1l1.56.09c.34 0 .48.12.48.23s-.28.21-.44.22v.42h2.13v-1l1.58.11c.24 0 .45.05.45.21s-.21.21-.45.25v.39h2.16v1.28h-2.16v1h2.75v1.42H52l.37.31a.32.32 0 01.12.2c0 .13-.11.17-.36.15a13.61 13.61 0 01-1.29 1.12A7 7 0 0053.2 20a3.64 3.64 0 00-1 1.39 9 9 0 01-3.73-2.65 6.4 6.4 0 00-.22 1.5c-.71.15-3.12.67-4.76.91-.06.15-.16.25-.28.25s-.17-.08-.21-.22zm.37-9.58V11h7.79v-.84zm3.14 9.05c.63-.11 1.77-.32 2.32-.48a7.57 7.57 0 01-1.09-1.6h-1.23zm.33-3.5h2.13v-1h-2.13zm2.62 1.42a5 5 0 00.62.79c.29-.24.61-.56.84-.79zM58 21.34h-1.74v-4c-.58.52-1 .87-1.39 1.13A3.81 3.81 0 0053.76 17a11 11 0 004-4.08h-3.44v-1.61h1.94v-2.7l1.74.06c.19 0 .26.12.26.19s-.09.14-.26.24v2.21h1.45l.77.73a13 13 0 01-1.55 2.65 11.12 11.12 0 002.15 1.76 5.14 5.14 0 00-1.09 1.31A10.13 10.13 0 0158 16.24zm2-6.94v-1.7h2.46V8.58l1.89.09c.12 0 .21.05.21.15s-.09.17-.29.22v3.66h2.48v1.7h-2.51v4.87H67v1.61h-8v-1.61h3.35V14.4zm16 6.72h-2v-6.66a24.81 24.81 0 01-4.28 2.15 6.18 6.18 0 00-1.43-1.68A19.57 19.57 0 0078 8.39l1.68 1.28c.08.07.13.13.13.2s-.14.18-.26.18a.73.73 0 01-.25 0 21.64 21.64 0 01-3.3 3.01zm5.41-5.6A17.18 17.18 0 0084 12.9c1.63-2 2.19-2.4 3-2.4s1.29.41 2.88 2.38a32.2 32.2 0 004.81 4.91 12.83 12.83 0 00-1.26 1.72 57.84 57.84 0 01-5-5.52c-1.07-1.33-1.15-1.43-1.53-1.43s-.59.25-1.28 1.08-2 2.39-2.49 3.16c0 .16 0 .33-.18.33s-.11-.06-.2-.14zm10.26-5.73a7.06 7.06 0 011.49 1.5c-.16.16-.56.61-.84.92a11.63 11.63 0 00-1.48-1.53zm1.41-1.31a14.06 14.06 0 011.46 1.43 8.85 8.85 0 00-.83.91 12.16 12.16 0 00-1.46-1.5zm6.65.61a15.41 15.41 0 013.67 2.41 11.52 11.52 0 00-1.17 1.62 14 14 0 00-3.68-2.38zm-1 9.84a16.56 16.56 0 0010.52-7.6 8.13 8.13 0 001.22 1.67c-.91 1.4-3.54 5.36-10.16 7.74 0 .14 0 .31-.23.31s-.19-.11-.26-.24zm18.89-6.45a20.91 20.91 0 015.06 3.39c-.55.57-.75.81-1.35 1.52a19.49 19.49 0 00-4.42-3.14v6.84h-2V8.81l2 .11c.14 0 .26 0 .26.15s-.18.2-.26.21v4.2z" fill="#fff"/></g></g></svg>