<svg xmlns="http://www.w3.org/2000/svg" width="560" height="57.2"><path d="M0 52.2h560v5H0zm30.21-22.77v6.5H4.06V.47h25.79v6.6H13v7.18h16.07v6.65H13v8.53zM76.13.47L62.24 17.58l15.4 18.35H66.2l-9.62-11.7-9.47 11.7H35.83l15-18.35L36.66.47H48.1l8.48 10.45L64.9.47zm43.73 0v35.46H111V21.58H93.39v14.35h-8.94V.47h8.94v14.25H111V.47zm19.71 0v35.46h-8.95V.47zm10.71 0h13.52a26.61 26.61 0 016.91.67 9.74 9.74 0 014.89 3.15 7.67 7.67 0 011.87 5q0 4.78-4.78 7.12 7.49 2.34 7.49 9.21a9.71 9.71 0 01-1.82 5.87 10.28 10.28 0 01-5.15 3.64 21.21 21.21 0 01-6.66.83h-16.27zm9 6.34v7.75h3.33a8.9 8.9 0 004.6-.88 3.31 3.31 0 001.38-3c0-2.56-1.94-3.85-5.82-3.85zm0 14.15v8.52h4.37c2.77 0 4.71-.31 5.8-.93a3.52 3.52 0 001.64-3.33 3.46 3.46 0 00-1.69-3.35q-1.7-.87-6.17-.87zM198.38.47v35.46h-8.95V.47zm42.74 0v6.65h-12.79v28.81h-9V7.12h-12.84V.47zm47.11 17.78a16.58 16.58 0 01-5.9 12.92 21.18 21.18 0 01-14.59 5.23 20.66 20.66 0 01-14.32-5.25 16.66 16.66 0 01-5.85-12.9 16.78 16.78 0 015.85-13 22.52 22.52 0 0128.94 0 16.78 16.78 0 015.87 13zm-9.15.21a10.6 10.6 0 00-3-8 11.26 11.26 0 00-8.19-3 11.11 11.11 0 00-8.11 2.94 10.57 10.57 0 00-3 7.93 10.39 10.39 0 003.09 7.82 11.21 11.21 0 008.14 3 11 11 0 008-3 10.27 10.27 0 003.07-7.69zM297.18.47h13.62a35 35 0 015.77.34 9.35 9.35 0 013.54 1.43 9.71 9.71 0 013.38 3.64 9.86 9.86 0 011.25 4.78 8.67 8.67 0 01-3 6.81 13.57 13.57 0 01-3.07 1.87c1.74.87 3.43 3.09 5.1 6.66l4.63 9.93h-9.73l-.21-.36-.67-1.46-.68-1.61-2.39-5.3q-2.13-4.78-4.73-5.52a11.26 11.26 0 00-2.55-.2h-1.3v14.45h-8.94zm8.94 6.45V15h4.37l1.09-.06a4.31 4.31 0 002.86-1.17 3.69 3.69 0 001.09-2.77c0-2.7-1.64-4.05-4.94-4.05zm52.68-4.16V10l-.63-.32q-6.24-3.08-10.81-3.08a8.15 8.15 0 00-3.85.78 2.35 2.35 0 00-1.46 2.08c0 1.39 1.93 2.79 5.77 4.22l2.81 1a18 18 0 017.44 4.52 9.7 9.7 0 012.34 6.66 9.09 9.09 0 01-3.82 7.61q-3.82 2.9-10.07 2.89a26.17 26.17 0 01-9.36-1.92A19.15 19.15 0 01334 33v-7.68a41 41 0 005.72 3.07 17.65 17.65 0 006.55 1.35q5.36 0 5.36-3.22a2.76 2.76 0 00-1-2.18 12.24 12.24 0 00-3.74-1.82l-1.93-.68a35.57 35.57 0 01-5.96-2.55 11.34 11.34 0 01-3.33-2.6 9.62 9.62 0 01-2.34-6.6A8.71 8.71 0 01337 2.76Q340.71 0 346.78 0a29.93 29.93 0 0112.02 2.76zm54.28 26.57v6.6H386V.47h9v28.86zM429.83.47v35.46h-8.95V.47zm34.52 2.29V10l-.62-.32q-6.24-3.08-10.82-3.08a8.13 8.13 0 00-3.84.78 2.33 2.33 0 00-1.46 2.08c0 1.39 1.92 2.79 5.77 4.22l2.81 1a18 18 0 017.44 4.52 9.7 9.7 0 012.37 6.7 9.08 9.08 0 01-3.83 7.61q-3.81 2.9-10.06 2.89a26.17 26.17 0 01-9.36-1.92 18.75 18.75 0 01-3.2-1.48v-7.68a40.47 40.47 0 005.72 3.07 17.61 17.61 0 006.55 1.35q5.35 0 5.36-3.22a2.76 2.76 0 00-1-2.18 12.33 12.33 0 00-3.75-1.82l-1.92-.68a36.08 36.08 0 01-5.88-2.55 11.43 11.43 0 01-3.32-2.6 9.62 9.62 0 01-2.34-6.6 8.71 8.71 0 013.66-7.33Q446.27 0 452.34 0a29.89 29.89 0 0112.01 2.76zM506.58.47v6.65h-12.79v28.81h-9V7.12h-12.85V.47z" fill="#ffa000" data-name="レイヤー 2"/></svg>