<svg xmlns="http://www.w3.org/2000/svg" width="630" height="53.25"><path d="M0 48.25h630v5H0zm26.14-22.78v5.63H3.51V.41h22.32v5.71H11.25v6.21h13.9v5.76h-13.9v7.38zM65.88.41l-12 14.8 13.3 15.89h-9.9L49 21l-8.23 10.1H31l13-15.89L31.72.41h9.9l7.34 9 7.2-9zm37.84 0V31.1H96V18.68H80.82V31.1h-7.74V.41h7.74v12.33H96V.41zm17.06 0V31.1H113V.41zm9.27 0h11.7a23 23 0 016 .58A8.44 8.44 0 01152 3.71a6.68 6.68 0 011.62 4.35q0 4.14-4.14 6.16 6.48 2 6.48 8a8.38 8.38 0 01-1.57 5.08 8.93 8.93 0 01-4.46 3.15 18.47 18.47 0 01-5.76.72h-14.08zm7.78 5.49v6.7h2.88a7.76 7.76 0 004-.76 2.87 2.87 0 001.19-2.61q0-3.33-5-3.33zm0 12.24v7.38h3.78a11 11 0 005-.81 3 3 0 001.42-2.88 3 3 0 00-1.46-2.91q-1.47-.78-5.34-.78zM171.67.41V31.1h-7.74V.41zm36.99 0v5.76h-11.07V31.1h-7.78V6.17h-11.12V.41zm40.77 15.39a14.36 14.36 0 01-5.1 11.2 18.4 18.4 0 01-12.63 4.5 17.86 17.86 0 01-12.39-4.5 14.41 14.41 0 01-5.07-11.16 14.51 14.51 0 015.07-11.25 19.47 19.47 0 0125 0 14.5 14.5 0 015.12 11.21zm-7.92.18a9.16 9.16 0 00-2.63-6.89 9.72 9.72 0 00-7.09-2.56 9.61 9.61 0 00-7 2.54 9.13 9.13 0 00-2.61 6.86 9 9 0 002.68 6.77 9.67 9.67 0 007 2.59 9.55 9.55 0 006.91-2.63 8.88 8.88 0 002.74-6.66zM257.17.41H269a30.38 30.38 0 015 .29 8.11 8.11 0 013 1.24 8.44 8.44 0 012.92 3.15A8.53 8.53 0 01281 9.23a7.48 7.48 0 01-2.61 5.89 12 12 0 01-2.65 1.62q2.25 1.13 4.41 5.76l4 8.6h-8.41l-.18-.32-.56-1.26-.58-1.4-2.07-4.58q-1.84-4.14-4.1-4.77a9.12 9.12 0 00-2.2-.18h-1.13V31.1h-7.74zM264.91 6v7h4.73a3.69 3.69 0 002.47-1 3.19 3.19 0 00.95-2.4q0-3.51-4.28-3.51zm45.59-3.61v6.3l-.5-.27a21.64 21.64 0 00-9.36-2.7 7.06 7.06 0 00-3.33.67 2 2 0 00-1.31 1.8q0 1.8 5 3.65l2.43.9a15.68 15.68 0 016.44 3.91 8.38 8.38 0 012 5.76 7.84 7.84 0 01-3.29 6.59 14 14 0 01-8.7 2.5 22.58 22.58 0 01-8.1-1.66 16 16 0 01-2.78-1.31v-6.61a35.22 35.22 0 005 2.65 15.22 15.22 0 005.67 1.17q4.64 0 4.64-2.79a2.39 2.39 0 00-.9-1.89 10.74 10.74 0 00-3.24-1.57l-1.67-.59a30.58 30.58 0 01-5.08-2.2 10 10 0 01-2.88-2.25 8.34 8.34 0 01-2-5.72 7.55 7.55 0 013.17-6.34A13.72 13.72 0 01300.1 0a25.94 25.94 0 0110.4 2.39zm46.98 22.99v5.72h-23.4V.41h7.74v25zM372 .41V31.1h-7.74V.41zm29.85 1.98v6.3l-.54-.27a21.64 21.64 0 00-9.31-2.7 7.06 7.06 0 00-3.33.67 2 2 0 00-1.26 1.8q0 1.8 5 3.65l2.43.9a15.68 15.68 0 016.44 3.91 8.38 8.38 0 012 5.76 7.84 7.84 0 01-3.35 6.59 14 14 0 01-8.7 2.5 22.58 22.58 0 01-8.1-1.66 16 16 0 01-2.75-1.31v-6.61a35.22 35.22 0 004.95 2.65 15.22 15.22 0 005.67 1.17q4.63 0 4.64-2.79a2.39 2.39 0 00-.9-1.89 10.74 10.74 0 00-3.24-1.57l-1.67-.59a30.58 30.58 0 01-5.08-2.2 10 10 0 01-2.88-2.25 8.34 8.34 0 01-2-5.72A7.55 7.55 0 01383 2.39 13.72 13.72 0 01391.45 0a25.94 25.94 0 0110.4 2.39zM438.39.41v5.76h-11.07V31.1h-7.79V6.17h-11.11V.41z" fill="#ffa000" data-name="レイヤー 2"/></svg>