<svg xmlns="http://www.w3.org/2000/svg" viewBox="0 0 631.15 53.95"><g data-name="レイヤー 2"><path d="M1.15 48.95h630v5h-630zm24.44-22.64V18l5.44.33c.5 0 1 .07 1 .46s-.47.51-.9.65v14h-5.54v-1.91H5.51v1.87H0V18l5.33.29c.57 0 1.08.07 1.08.47s-.61.57-.9.65v6.94h7.23v-9.61H1.3V2.23l5.79.33c.22 0 .72 0 .72.46s-.39.47-.86.62v8h5.79V.29l5.44.39c.61 0 1.08.08 1.08.47s-.33.51-.94.76v9.75H24V2.23l6 .33c.29 0 .69 0 .69.43s-.47.5-.9.65v13.1H18.32v9.57zm45.18-2.59c.25.18.33.32.33.51 0 .39-.36.43-.87.43a30.9 30.9 0 01-3.06 2.73 16.37 16.37 0 004.75 1.91 12.16 12.16 0 00-3 4.21 22.33 22.33 0 01-9-6.12 17.84 17.84 0 00-.43 3.46c-2.85.57-9.4 1.83-12.35 2.23-.14.29-.33.58-.65.58s-.47-.22-.54-.58l-1-4.32c.72-.07 3.92-.58 4.57-.65V23h-3.76c-.22 1.44-1.26 6.91-3.21 9.93a12.84 12.84 0 00-4.61-2 22 22 0 002.67-7.34 55.51 55.51 0 00.57-8.61V1.26h29.16v9.07h-24v5.54c0 .36-.07 2.09-.15 2.78h4v-2.2h-3v-3.82h3v-2.16l4.65.26c.32 0 1.36.18 1.36.64 0 .18-.18.54-1.11.65v.61h4.64v-2.16l4.72.29c.21 0 1.33.15 1.33.58 0 .21-.29.54-1.19.68v.61h5.76v3.82h-5.77v2.2h6.7V23h-1.44zM46.37 4.93v1.59h18.82V4.93zm8.2 22.39c1-.18 3.75-.68 4.5-.86A23.09 23.09 0 0156.66 23h-2.09zm.51-8.67h4.64v-2.2h-4.64zM62.21 23a10.07 10.07 0 001.44 1.69c1-.76 1.69-1.41 2-1.69zM99 10.73V.47l5.87.25a.4.4 0 01.43.36c0 .32-.36.47-.72.58v9.07h5.8V16h-5.8v11.8h6.84v5H90.61v-5H99V16h-6v-4.48A24.36 24.36 0 0190.32 16a31.57 31.57 0 005 4.39 16.24 16.24 0 00-3.31 3.93 20.28 20.28 0 01-3.7-3.32v12.44H83v-9.57c-1.51 1.22-2 1.65-2.92 2.26a10.33 10.33 0 00-3.24-4.46c3.82-2.2 8.36-6.59 9.62-9.5h-7.94v-5H83V.47l5.33.14c.21 0 .57.07.57.47 0 .18-.14.36-.57.65v5.43h3.45l2.29 2.24c-.11.21-.58 1.15-.65 1.33zM150.55 14v6.05H118V14zm27.54 19.22c-1 0-3.46 0-3.46-2.3v-3.13h-4.89l1.94.83c.29.14.83.36.83.75s-.72.58-1.4.61a19.44 19.44 0 01-11.74 3.68 13.07 13.07 0 00-1.83-4.4 7.42 7.42 0 001.33.15c1 0 5.43-.33 7.41-1.62h-4.82V14.94h25.2v10.44a10.38 10.38 0 004.28 1.9c-.22 1.77-.76 5.94-3.92 5.94zm-4.93-28.61V6.8a21 21 0 003-6.8l4.93 1.15c.25.07.43.18.43.36 0 .43-.54.65-1 .69-.07.28-.21.64-.29.9h10.12v4.17h-12.08c-.22.33-.47.76-1.19 1.77h11v4.39h-11.32v-4c-.18.29-.65.86-.87 1.19a11.82 11.82 0 00-2.73-2v1.62h-4.5v1.3h5.58v2.66H158V.65h15.87v2.7h-5.18v1.26zm-8.75 0V3.35h-2.09v1.26zm-2.09 2.16V8H169V6.77zm0 3.45v1.3h2.09v-1.3zm19.33 8.61v-1.16h-15.19v1.16zm-15.19 1.87v1.22h15.19V20.7zm0 3.09V25h15.19v-1.21zm18.4 5.65c.57 0 .86-.39 1.11-1.65h-6.19v.83c0 .46.18.82.87.82z" fill="#ffa000" data-name="object"/></g></svg>