<?xml version="1.0" encoding="utf-8"?>
<!-- Generator: Adobe Illustrator 21.0.0, SVG Export Plug-In . SVG Version: 6.00 Build 0)  -->
<svg version="1.1" id="レイヤー_1" xmlns="http://www.w3.org/2000/svg" xmlns:xlink="http://www.w3.org/1999/xlink" x="0px"
	 y="0px" viewBox="0 0 137.1 65.2" style="enable-background:new 0 0 137.1 65.2;" xml:space="preserve">
<style type="text/css">
	.st0{fill:#FFFFFF;}
</style>
<g>
	<g>
		<g>
			<g>
				<path class="st0" d="M9.6,4.9v12H6.1v-12H1V1.7h13.7v3.2H9.6z"/>
				<path class="st0" d="M40.8,1.7h4.3l-6.4,7.3l6.7,7.8H41l-6.2-7.7v7.7h-3.4V1.7h3.4v7.2L40.8,1.7z"/>
				<path class="st0" d="M49.4,1.7l3.4,6.1l3.4-6.1h4L54.6,11v5.9h-3.5V11l-5.7-9.2H49.4z"/>
				<path class="st0" d="M16,1.7v15.2h14.2V1.7H16z M26.9,13.6h-7.7V5h7.7V13.6z"/>
				<path class="st0" d="M60.6,1.7v15.2h14.2V1.7H60.6z M71.6,13.6h-7.7V5h7.7V13.6z"/>
			</g>
			<g>
				<path class="st0" d="M31.7,40.2h-3.9l-1.1-3.2h-6l-1.1,3.2h-3.9l5.8-15.2h4.5L31.7,40.2z M23.7,28.4l-2.1,5.7h4.2L23.7,28.4z"/>
				<path class="st0" d="M37.2,25.1L40.6,36l3.3-10.9h5v15.2h-3.3V33c0-0.5,0.1-3.7,0.1-4.3l-3.6,11.6h-3.2l-3.6-11.6
					c0,0.5,0.1,3.8,0.1,4.3v7.3h-3.3V25.1H37.2z"/>
				<path class="st0" d="M62.2,25.1v3.2h-8.7V31h8.4v3h-8.4v3h8.9v3.2H50.1V25.1H62.2z"/>
				<path class="st0" d="M89.5,25.1v5.8h7.4v-5.8h3.5v15.2h-3.5V34h-7.4v6.2h-3.4V25.1H89.5z"/>
				<path class="st0" d="M119.9,25.1l1.7,11.7l1.7-11.7h4.6l1.7,11.7l1.7-11.7h3.6L132,40.2h-4.7l-1.7-11.6l-1.7,11.6h-4.6
					l-2.9-15.2H119.9z"/>
				<path class="st0" d="M101.7,25v15.2h14.2V25H101.7z M112.6,37h-7.7v-8.6h7.7V37z"/>
				<g>
					<polygon class="st0" points="15.2,30.4 15.2,25 1,25 1,40.3 15.2,40.3 15.2,35 15.2,31.7 12,31.7 8.1,31.7 8.1,35 12,35 12,37 
						4.3,37 4.3,28.4 12,28.4 12,30.4 					"/>
				</g>
				<polygon class="st0" points="84.7,28.1 84.7,24.9 72.3,24.9 72.3,26.4 72.3,28.1 72.3,31 72.3,33.2 72.3,34.1 81.6,34.1 
					81.6,37.1 72.3,37.1 72.3,40.2 81.6,40.2 84.7,40.2 84.7,37.1 84.7,34.1 84.7,33.4 84.7,31 75.4,31 75.4,28.1 				"/>
			</g>
		</g>
	</g>
	<g>
		<path class="st0" d="M6.1,58.5c-1,0.1-1.6,0.3-1.6,1.4v0.5h10.2v3.2H1v-3c0-1.5,0-4.6,3.8-5.1l4.9-0.6c1.1-0.1,1.6-0.3,1.6-1.6
			c0-1.3-0.4-1.9-3.3-1.9c-3.2,0-3.3,0.4-3.4,2.3H1.3c0-3.2,0.2-5.4,6.5-5.4c4,0,7,0.3,7,4.9c0,2-0.5,3-1.2,3.6
			c-1.2,1.1-2.3,1.2-2.8,1.3L6.1,58.5z"/>
		<path class="st0" d="M23.1,48.3c6.2,0,7,1.4,7,7.9c0,6.2-1.2,7.6-6.6,7.6c-5.8,0-7.2-0.7-7.2-7.7C16.3,49.8,17.4,48.3,23.1,48.3z
			 M19.8,56.1c0,4.5,0.2,4.5,3.6,4.5c2.9,0,3.2-0.2,3.2-4.2c0-0.8,0-3.4-0.3-4c-0.3-0.9-1.4-1-3.1-1C20,51.4,19.8,51.5,19.8,56.1z"
			/>
		<path class="st0" d="M38,48.4v15.2h-3.5v-12h-3.1v-3.2H38z"/>
		<path class="st0" d="M54.1,48.4v3.2l-6.9,12h-4.1l7.3-12h-9.8v-3.2H54.1z"/>
	</g>
</g>
</svg>
