<svg xmlns="http://www.w3.org/2000/svg" width="32.656" height="35.87" viewBox="0 0 32.656 35.87">
  <defs>
    <style>
      .cls-1 {
        fill: #e84610;
        fill-rule: evenodd;
      }
    </style>
  </defs>
  <path id="Q" class="cls-1" d="M70.724,1225.99a6.967,6.967,0,0,1-5.377,2.52c-1.89,0-3.655-.84-5.629-2.94A14.593,14.593,0,0,0,71.27,1211c0-8.66-6.637-15.04-15.585-15.04-9.032,0-15.669,6.43-15.669,15.04,0,8.27,6.133,14.53,14.577,14.99,4.117,4.25,7.015,5.84,10.712,5.84a9.486,9.486,0,0,0,7.393-3.44ZM44.217,1211a11.085,11.085,0,0,1,11.468-11.3,11.3,11.3,0,1,1,0,22.6A11.085,11.085,0,0,1,44.217,1211Z" transform="translate(-40.031 -1195.97)"/>
</svg>
