<?xml version="1.0" encoding="UTF-8"?><svg xmlns="http://www.w3.org/2000/svg" viewBox="0 0 3185.9 1967.63" width="3185.9" height="1967.63"><defs><style>.d{fill:#fff;}.e{fill:#e84610;}</style></defs><g id="a"/><g id="b"><g id="c"><g><path class="e" d="M1172.11,553.66c19.57-1.42,38.78-7.91,55.66-18.73,25.38-16.3,43.26-40.78,50.44-68.96,6.96-27.49,2.74-55.13-11.87-77.87-30.6-47.59-97.71-59.2-149.57-25.85-16.88,10.82-30.76,25.64-40.15,42.84-.74,1.37-1.58,2.69-2.48,3.9l-79.09,153.48,172.47-8.18c1.53-.32,3.06-.53,4.59-.63Z"/><path class="e" d="M3131.23,0H945.77V489.61l62.42-121.14h.05c1.11-2.16,2.43-4.22,3.9-6.12,15.46-26.06,37.14-48.49,62.89-65.05,42.21-27.12,91.96-37.04,140.18-28.02,48.75,9.13,90.01,36.51,116.07,77.08,47.54,73.97,31.13,171.79-34.35,232.3h1888.96V54.67c0-30.19-24.48-54.67-54.67-54.67Z"/><path class="e" d="M609.32,534.93c8.44,5.38,17.46,9.71,26.85,12.87,9.34,3.17,19.05,5.17,28.86,5.86,1.53,.11,3.01,.32,4.54,.63l172.47,8.18-79.09-153.48c-.9-1.27-1.74-2.53-2.48-3.9-9.39-17.2-23.27-32.03-40.15-42.84-51.86-33.34-118.97-21.79-149.57,25.85-14.61,22.74-18.84,50.39-11.87,77.87,7.18,28.17,25.06,52.66,50.44,68.96Z"/><path class="e" d="M0,54.67V578.67H540.15c-65.47-60.52-81.88-158.33-34.35-232.3,26.12-40.57,67.32-67.95,116.07-77.08,48.22-9.02,97.98,.9,140.18,28.02,25.75,16.57,47.43,38.99,62.89,65.05,1.48,1.9,2.8,3.96,3.96,6.12l40.2,78.03V0H54.67C24.48,0,0,24.48,0,54.67Z"/><path class="e" d="M2853.16,1686.84c10.91,0,20.14-4.44,27.75-13.35,7.64-8.91,11.45-22.48,11.45-40.75,0-20.14-3.9-34.88-11.64-44.3-7.74-9.42-17.31-14.11-28.63-14.11s-20.33,4.5-27.75,13.57c-7.45,9.04-11.16,23.27-11.16,42.74s3.96,32.88,11.92,42.2c7.93,9.32,17.28,13.98,28.06,13.98Z"/><path class="e" d="M1291.68,942.88l-132.5-81.3-28.26,146.49-163.01-340.17h-22.13V1967.63H3131.21c30.22,0,54.67-24.49,54.67-54.67V667.9H1168.8l122.87,274.98Zm1503.24,647.85c4.88-11.96,12.22-21.09,21.99-27.46,9.77-6.37,20.71-9.53,32.79-9.53,8.87,0,16.75,1.86,23.69,5.57,6.91,3.75,12.53,8.64,16.87,14.63v-72.81h24.77v202.88h-23.12v-18.54c-9.3,14.58-23.03,21.87-41.1,21.87-11.7,0-22.48-3.23-32.3-9.67-9.84-6.46-17.46-15.5-22.84-27.09-5.4-11.56-8.09-24.89-8.09-39.92s2.45-27.96,7.34-39.92Zm-92.98-33.71h22.39v22.3c5.73-10.43,10.99-17.27,15.85-20.6,4.86-3.33,10.17-4.98,15.97-4.98,8.4,0,16.94,2.67,25.62,8.02l-8.59,23.12c-6.09-3.63-12.17-5.43-18.26-5.43-5.45,0-10.33,1.65-14.67,4.91-4.32,3.3-7.43,7.83-9.27,13.64-2.76,8.87-4.15,18.54-4.15,29.07v76.94h-24.89v-146.99Zm-70.45,25.76c-6.37-5.62-15.83-8.45-28.36-8.45-11.73,0-20.38,2.08-25.98,6.16-5.57,4.13-9.7,11.4-12.36,21.82l-24.35-3.33c2.19-10.45,5.83-18.85,10.9-25.29,5.07-6.39,12.43-11.3,22.01-14.77,9.6-3.49,20.71-5.19,33.36-5.19s22.74,1.46,30.58,4.41c7.86,2.97,13.64,6.68,17.32,11.16,3.66,4.46,6.28,10.1,7.72,16.92,.87,4.25,1.27,11.94,1.27,23v33.2c0,23.15,.52,37.8,1.58,43.95,1.06,6.11,3.14,12.01,6.3,17.62h-26.02c-2.55-5.17-4.25-11.21-4.98-18.14-9.22,7.86-18.1,13.38-26.64,16.61-8.52,3.23-17.67,4.86-27.44,4.86-16.18,0-28.57-3.94-37.23-11.82-8.71-7.9-13.05-17.98-13.05-30.25,0-7.22,1.65-13.78,4.93-19.72,3.28-5.95,7.57-10.73,12.86-14.32,5.31-3.61,11.3-6.32,17.93-8.16,4.88-1.3,12.27-2.55,22.13-3.75,20.12-2.38,34.94-5.26,44.43-8.56,.09-3.42,.14-5.57,.14-6.49,0-10.15-2.34-17.32-7.05-21.47Zm-228.34,6.65c5.26-11.91,13.28-20.83,24.02-26.8,10.73-5.92,22.44-8.89,35.08-8.89,15.95,0,29.02,4.01,39.17,12.1,10.14,8.05,16.63,19.54,19.49,34.38l-24.18,3.75c-2.31-9.86-6.42-17.32-12.27-22.3-5.87-4.98-12.95-7.46-21.26-7.46-12.53,0-22.74,4.51-30.55,13.47-7.83,9.01-11.77,23.24-11.77,42.68s3.77,34.12,11.35,43.06c7.55,8.94,17.44,13.42,29.61,13.42,9.77,0,17.95-3.02,24.49-9.01,6.56-5.99,10.71-15.22,12.46-27.65l24.49,3.19c-2.67,16.87-9.53,30.08-20.55,39.64-11.02,9.53-24.56,14.32-40.63,14.32-20.1,0-36.26-6.56-48.48-19.72-12.25-13.17-18.33-31.99-18.33-56.53,0-15.85,2.64-29.75,7.88-41.64Zm-153.19-68.77l24.8-14.96v51.32h25.01v19.42h-25.01v85.93c0,7.1,.4,11.68,1.3,13.71,.87,2.03,2.31,3.63,4.27,4.81,2.01,1.2,4.84,1.82,8.54,1.82,2.76,0,6.39-.33,10.9-.99l3.61,22.01c-7.01,1.49-13.28,2.22-18.83,2.22-9.04,0-16.04-1.44-21.02-4.29-4.98-2.83-8.49-6.61-10.52-11.28-2.03-4.67-3.04-14.46-3.04-29.4v-84.53h-18.26v-19.42h18.26v-36.36Zm-99.35,36.36h22.01v-15.62c0-9.86,.85-17.2,2.62-21.99,2.38-6.46,6.61-11.68,12.67-15.71,6.04-3.99,14.51-6.02,25.39-6.02,7.01,0,14.75,.8,23.24,2.5l-3.73,21.71c-5.17-.92-10.05-1.39-14.65-1.39-7.6,0-12.95,1.63-16.09,4.86-3.14,3.23-4.69,9.25-4.69,18.14v13.52h28.64v19.42h-28.64v127.57h-24.75v-127.57h-22.01v-19.42Zm-46.79-55.89h24.91v28.67h-24.91v-28.67Zm0,55.92h24.91v146.96h-24.91v-146.96Zm-211.8-8.78c8.26-17.13,20.15-29.82,35.65-38.13,15.5-8.3,33.34-12.46,53.56-12.46,14.65,0,27.91,2.38,39.78,7.12,11.84,4.74,21.14,11.37,27.89,19.87,6.72,8.49,11.84,19.56,15.36,33.2l-24.23,6.65c-3.04-10.33-6.82-18.45-11.35-24.35-4.51-5.92-10.97-10.64-19.37-14.2-8.4-3.54-17.69-5.31-27.96-5.31-12.27,0-22.86,1.86-31.83,5.59-8.94,3.73-16.16,8.66-21.66,14.75-5.47,6.09-9.74,12.76-12.79,20.05-5.17,12.55-7.74,26.17-7.74,40.84,0,18.07,3.11,33.2,9.32,45.39,6.23,12.17,15.29,21.21,27.2,27.11,11.89,5.9,24.54,8.85,37.91,8.85,11.63,0,22.98-2.22,34.05-6.7,11.06-4.48,19.46-9.25,25.17-14.32v-37.77h-59.64v-23.81l85.95-.14v75.29c-13.19,10.5-26.8,18.43-40.82,23.73-14.04,5.28-28.43,7.95-43.18,7.95-19.94,0-38.03-4.27-54.34-12.81-16.28-8.52-28.57-20.86-36.88-37.02-8.3-16.14-12.46-34.16-12.46-54.1s4.13-38.17,12.39-55.28Z"/><path class="e" d="M2576,1644.64c-4.25,1.84-7.53,4.53-9.84,8.09-2.29,3.54-3.44,7.5-3.44,11.82,0,6.65,2.5,12.17,7.53,16.61,5.05,4.44,12.41,6.65,22.08,6.65s18.14-2.12,25.57-6.3c7.5-4.18,12.98-9.93,16.49-17.22,2.67-5.64,4.01-13.92,4.01-24.91v-9.13c-9.04,3.68-22.58,6.84-40.7,9.41-10.24,1.46-17.46,3.14-21.71,4.98Z"/><path class="e" d="M677.91,861.57l-132.48,81.3,122.88-274.98H0V1912.96c0,30.19,24.48,54.67,54.67,54.67H869.11V667.99l-162.92,340.09-28.28-146.51Z"/></g><rect class="e" x="1763.12" y="1363.11" width="1276.74" height="436.59"/><rect class="d" x="1903.88" y="1504.45" width="1012" height="45"/><rect class="d" x="1903.88" y="1661.5" width="1012" height="45"/></g></g></svg>