<svg xmlns="http://www.w3.org/2000/svg" width="39.532" height="15.75" viewBox="0 0 39.532 15.75">
  <defs>
    <style>
      .cls-1 {
        fill: #e84610;
        fill-rule: evenodd;
      }
    </style>
  </defs>
  <path id="FAQ" class="cls-1" d="M183.994,331.942v-1.6h-9.1v12.9h1.843v-5.215H183.2v-1.585h-6.468v-4.5h7.26Zm12.564,11.3h1.935l-5.86-12.9h-1.824l-5.842,12.9h1.9l1.419-3.225h6.855Zm-7.629-4.7,2.783-6.321,2.782,6.321h-5.565Zm24.633,4.828a3.056,3.056,0,0,1-2.359,1.106,3.342,3.342,0,0,1-2.469-1.29,6.408,6.408,0,0,0,5.068-6.395,6.86,6.86,0,1,0-7.316,6.579c1.806,1.861,3.077,2.561,4.7,2.561a4.152,4.152,0,0,0,3.243-1.511Zm-11.628-6.579a5.013,5.013,0,1,1,5.031,4.957A4.864,4.864,0,0,1,201.934,336.788Z" transform="translate(-174.906 -330.188)"/>
</svg>
