<svg xmlns="http://www.w3.org/2000/svg" width="97.187" height="13.75" viewBox="0 0 97.187 13.75">
  <defs>
    <style>
      .cls-1 {
        fill: #e84610;
        fill-rule: evenodd;
      }
    </style>
  </defs>
  <path id="Exhibition" class="cls-1" d="M176.691,4254.73v-4.07h6.32v-1.53h-6.32v-3.87h7.094v-1.56h-8.894v12.6h9.146v-1.57h-7.346Zm18.74,1.57-3.8-4.88,3.6-4.66h-1.891l-2.611,3.44-2.628-3.44h-1.927l3.583,4.66L186,4256.3h1.927l2.79-3.66,2.755,3.66h1.963Zm7.883-9.63a4.133,4.133,0,0,0-3.367,1.44v-5.17h-1.729v13.36h1.729v-4.92a2.827,2.827,0,0,1,3.025-3.16c1.638,0,2.575.91,2.575,2.79v5.29h1.728v-5.49C207.275,4248,205.637,4246.67,203.314,4246.67Zm8.927-1.75a1.126,1.126,0,1,0-1.171-1.12A1.128,1.128,0,0,0,212.241,4244.92Zm-0.865,11.38h1.729v-9.54h-1.729v9.54Zm10.982-9.63a4.05,4.05,0,0,0-3.331,1.53v-5.26H217.3v13.36h1.657v-1.51a4.032,4.032,0,0,0,3.4,1.62A4.87,4.87,0,0,0,222.358,4246.67Zm-0.144,8.23a3.363,3.363,0,1,1,3.223-3.37A3.161,3.161,0,0,1,222.214,4254.9Zm9.125-9.98a1.126,1.126,0,1,0-1.171-1.12A1.128,1.128,0,0,0,231.339,4244.92Zm-0.865,11.38H232.2v-9.54h-1.729v9.54Zm10.748-1.8a2.164,2.164,0,0,1-1.35.45,1.407,1.407,0,0,1-1.5-1.6v-5.17h2.737v-1.42h-2.737v-2.09h-1.728v2.09h-1.621v1.42h1.621v5.24a2.722,2.722,0,0,0,3.024,2.99,3.263,3.263,0,0,0,2.089-.67Zm4.391-9.58a1.126,1.126,0,1,0-1.171-1.12A1.128,1.128,0,0,0,245.613,4244.92Zm-0.865,11.38h1.729v-9.54h-1.729v9.54Zm10.01,0.11a4.871,4.871,0,1,0-4.97-4.88A4.751,4.751,0,0,0,254.758,4256.41Zm0-1.51a3.363,3.363,0,0,1,0-6.72A3.364,3.364,0,0,1,254.758,4254.9Zm13.338-8.23a4.1,4.1,0,0,0-3.439,1.53v-1.44H263v9.54h1.729v-4.92a2.827,2.827,0,0,1,3.025-3.16c1.638,0,2.575.91,2.575,2.79v5.29h1.728v-5.49C272.057,4248,270.419,4246.67,268.1,4246.67Z" transform="translate(-174.875 -4242.66)"/>
</svg>
