<svg xmlns="http://www.w3.org/2000/svg" width="73.656" height="12.72" viewBox="0 0 73.656 12.72">
  <defs>
    <style>
      .cls-1 {
        fill: #e84610;
        fill-rule: evenodd;
      }
    </style>
  </defs>
  <path id="Present" class="cls-1" d="M179.806,5264.7h-4.915v12.6h1.8v-3.82h3.115c3.277,0,5.258-1.65,5.258-4.39S183.083,5264.7,179.806,5264.7Zm-0.054,7.22h-3.061v-5.66h3.061c2.3,0,3.511,1.03,3.511,2.83S182.057,5271.92,179.752,5271.92Zm10.1-2.56v-1.6h-1.657v9.54h1.729v-4.75c0-2.09,1.152-3.23,3.007-3.23a2.749,2.749,0,0,1,.4.02v-1.67A3.635,3.635,0,0,0,189.849,5269.36Zm15.032,3.22a4.6,4.6,0,0,0-4.717-4.91,4.671,4.671,0,0,0-4.79,4.86,5.2,5.2,0,0,0,8.9,3.33l-0.954-1.12a3.552,3.552,0,0,1-2.755,1.16,3.235,3.235,0,0,1-3.457-2.8h7.742C204.863,5272.94,204.881,5272.73,204.881,5272.58Zm-4.717-3.45a2.972,2.972,0,0,1,3.061,2.73H197.1A2.969,2.969,0,0,1,200.164,5269.13Zm10.745,8.28c2.539,0,4.124-1.1,4.124-2.83,0-3.71-6.05-1.87-6.05-4.12,0-.76.738-1.32,2.25-1.32a4.971,4.971,0,0,1,2.755.76l0.738-1.37a6.942,6.942,0,0,0-3.475-.86c-2.448,0-3.979,1.15-3.979,2.86,0,3.8,6.032,1.94,6.032,4.09,0,0.81-.666,1.29-2.269,1.29a6.1,6.1,0,0,1-3.349-.99l-0.72,1.37A6.888,6.888,0,0,0,210.909,5277.41Zm15.806-4.83a4.6,4.6,0,0,0-4.717-4.91,4.671,4.671,0,0,0-4.79,4.86,5.2,5.2,0,0,0,8.9,3.33l-0.954-1.12a3.552,3.552,0,0,1-2.755,1.16,3.235,3.235,0,0,1-3.457-2.8h7.742C226.7,5272.94,226.715,5272.73,226.715,5272.58ZM222,5269.13a2.972,2.972,0,0,1,3.061,2.73h-6.122A2.969,2.969,0,0,1,222,5269.13Zm13.1-1.46a4.1,4.1,0,0,0-3.439,1.53v-1.44h-1.657v9.54h1.729v-4.92a2.827,2.827,0,0,1,3.025-3.16c1.638,0,2.575.91,2.575,2.79v5.29h1.728v-5.49C239.063,5269,237.425,5267.67,235.1,5267.67Zm12.888,7.83a2.164,2.164,0,0,1-1.35.45,1.407,1.407,0,0,1-1.495-1.6v-5.17h2.737v-1.42h-2.737v-2.09h-1.728v2.09H241.8v1.42h1.621v5.24a2.722,2.722,0,0,0,3.024,2.99,3.263,3.263,0,0,0,2.089-.67Z" transform="translate(-174.875 -5264.69)"/>
</svg>
