<svg xmlns="http://www.w3.org/2000/svg" width="61.532" height="17.12" viewBox="0 0 61.532 17.12">
  <defs>
    <style>
      .cls-1 {
        fill: #e84610;
        fill-rule: evenodd;
      }
    </style>
  </defs>
  <path id="Topics" class="cls-1" d="M177.393,2186.3h1.783v-11.04H183.5v-1.56H173.072v1.56h4.321v11.04Zm11.809,0.11a4.871,4.871,0,1,0-4.97-4.88A4.751,4.751,0,0,0,189.2,2186.41Zm0-1.51a3.363,3.363,0,0,1,0-6.72A3.364,3.364,0,0,1,189.2,2184.9Zm13.3-8.23a4.069,4.069,0,0,0-3.4,1.6v-1.51h-1.657v13.03h1.729v-4.93a4.067,4.067,0,0,0,3.331,1.55A4.87,4.87,0,0,0,202.5,2176.67Zm-0.144,8.23a3.363,3.363,0,1,1,3.223-3.37A3.161,3.161,0,0,1,202.36,2184.9Zm9.125-9.98a1.126,1.126,0,1,0-1.171-1.12A1.128,1.128,0,0,0,211.485,2174.92Zm-0.865,11.38h1.729v-9.54H210.62v9.54Zm10.082,0.11a4.272,4.272,0,0,0,3.889-2.05l-1.315-.83a2.989,2.989,0,0,1-2.592,1.37,3.361,3.361,0,0,1,0-6.72,2.967,2.967,0,0,1,2.592,1.37l1.315-.85a4.257,4.257,0,0,0-3.889-2.03A4.873,4.873,0,1,0,220.7,2186.41Zm9.755,0c2.539,0,4.124-1.1,4.124-2.83,0-3.71-6.05-1.87-6.05-4.12,0-.76.738-1.32,2.25-1.32a4.971,4.971,0,0,1,2.755.76l0.738-1.37a6.942,6.942,0,0,0-3.475-.86c-2.448,0-3.979,1.15-3.979,2.86,0,3.8,6.032,1.94,6.032,4.09,0,0.81-.666,1.29-2.269,1.29a6.1,6.1,0,0,1-3.349-.99l-0.72,1.37A6.888,6.888,0,0,0,230.457,2186.41Z" transform="translate(-173.062 -2172.66)"/>
</svg>
