<svg xmlns="http://www.w3.org/2000/svg" width="109.93" height="12.75" viewBox="0 0 109.93 12.75">
  <defs>
    <style>
      .cls-1 {
        fill: #e84610;
        fill-rule: evenodd;
      }
    </style>
  </defs>
  <path id="How_to_Use" data-name="How to Use" class="cls-1" d="M2949.93,2431.7v5.42h-7.24v-5.42h-1.8v12.6h1.8v-5.62h7.24v5.62h1.8v-12.6h-1.8Zm10.31,12.71a4.871,4.871,0,1,0-4.97-4.88A4.752,4.752,0,0,0,2960.24,2444.41Zm0-1.51a3.363,3.363,0,0,1,0-6.72A3.364,3.364,0,0,1,2960.24,2442.9Zm20.87-8.14-2.85,7.63-2.83-7.63h-1.45l-2.88,7.6-2.78-7.6h-1.64l3.55,9.54h1.66l2.79-7.24,2.75,7.24h1.66l3.56-9.54h-1.54Zm14.75,7.74a2.152,2.152,0,0,1-1.35.45,1.406,1.406,0,0,1-1.49-1.6v-5.17h2.74v-1.42h-2.74v-2.09h-1.73v2.09h-1.62v1.42h1.62v5.24a2.725,2.725,0,0,0,3.03,2.99,3.243,3.243,0,0,0,2.08-.67Zm7.29,1.91a4.871,4.871,0,1,0-4.97-4.88A4.754,4.754,0,0,0,3003.15,2444.41Zm0-1.51a3.363,3.363,0,0,1,0-6.72A3.364,3.364,0,0,1,3003.15,2442.9Zm19.46,1.54c3.33,0,5.33-1.92,5.33-5.58v-7.16h-1.74v7.09c0,2.79-1.3,4.05-3.57,4.05s-3.55-1.26-3.55-4.05v-7.09h-1.8v7.16C3017.28,2442.52,3019.3,2444.44,3022.61,2444.44Zm12.4-.03c2.54,0,4.13-1.1,4.13-2.83,0-3.71-6.05-1.87-6.05-4.12,0-.76.73-1.32,2.25-1.32a4.962,4.962,0,0,1,2.75.76l0.74-1.37a6.937,6.937,0,0,0-3.47-.86c-2.45,0-3.98,1.15-3.98,2.86,0,3.8,6.03,1.94,6.03,4.09,0,0.81-.67,1.29-2.27,1.29a6.109,6.109,0,0,1-3.35-.99l-0.72,1.37A6.883,6.883,0,0,0,3035.01,2444.41Zm15.81-4.83a4.6,4.6,0,0,0-4.72-4.91,4.674,4.674,0,0,0-4.79,4.86,5.2,5.2,0,0,0,8.9,3.33l-0.96-1.12a3.545,3.545,0,0,1-2.75,1.16,3.241,3.241,0,0,1-3.46-2.8h7.74A4.731,4.731,0,0,0,3050.82,2439.58Zm-4.72-3.45a2.968,2.968,0,0,1,3.06,2.73h-6.12A2.973,2.973,0,0,1,3046.1,2436.13Z" transform="translate(-2940.88 -2431.69)"/>
</svg>
