<?xml version="1.0" encoding="UTF-8"?><svg xmlns="http://www.w3.org/2000/svg" viewBox="0 0 800 61.28" width="800" height="61.28"><defs><style>.d{fill:#fff;}.e{fill:#00a85f;}.f{fill:#a9cd36;}.g{fill:none;stroke:#727171;stroke-width:1.18px;}</style></defs><g id="a"/><g id="b"><g id="c"><path class="f" d="M46.01,43.07c-7.5,9.9-20.43,14.98-38.77,15.25v-10.14c8.9-.41,16.17-2.16,21.8-5.28s9.4-7.4,11.31-12.86H0v-9.87H53c0,9.09-2.33,16.72-6.98,22.9"/><rect class="f" x="5.63" y="3.51" width="43.51" height="10.21"/><rect class="f" x="58.05" y="25.3" width="47.19" height="10.48"/><rect class="f" x="104.65" y="45.3" width="54.27" height="10.67"/><rect class="f" x="112.04" y="5.94" width="41.65" height="10.54"/><polygon class="f" points="267.03 0 267.03 2.42 267.03 3.85 267.03 9.67 272.8 9.67 273.51 9.67 273.51 0 267.03 0"/><path class="f" d="M263.86,13.01V3.85h-32.26c-1.65,8.56-5.69,15.01-12.14,19.35v11.01c4.6-1.61,8.74-4.31,12.08-7.86,3.47-3.53,6.17-7.74,7.95-12.36h22.24c-2.07,20.73-13.36,32.2-33.87,34.39v10.01c17.71-1.12,30.26-7.9,37.62-20.35,3.9-6.61,6.26-14.97,7.1-25.03h-8.72Z"/><rect class="f" x="275.92" width="6.48" height="9.67"/><rect class="f" x="275.92" width="6.48" height="9.67"/><path class="f" d="M214.99,12.99c-1.02,15.4-5.74,26.73-14.17,33.98-7.96,6.8-19.68,10.41-35.14,10.82v-10.82c12.16-.94,21.08-3.61,26.76-7.99,6.7-5.24,10.55-13.9,11.57-25.99h10.99Z"/><polygon class="f" points="164.91 3.78 164.91 3.83 164.91 14.7 187.46 17.74 187.46 6.83 164.91 3.78"/><rect class="f" x="406.99" y=".33" width="6.49" height="9.67"/><rect class="e" x="406.99" y=".33" width="6.49" height="9.67"/><path class="e" d="M328.54,1.84c-2.38,9.23-7.77,16.77-16.19,22.64V59.66h-10.93V30.46c-8.04,3.27-16.46,5.55-25.05,6.77v-10.48c22.13-4.07,35.73-12.37,40.8-24.91h11.37Z"/><path class="e" d="M366.88,3.05c-1.58,15.31-6.37,27.65-14.37,37.01-7.8,9.04-18.36,15.01-31.7,17.92v-10.74c20.58-6.05,32.14-20.78,34.69-44.19h11.38Z"/><rect class="e" x="425.12" y="25.3" width="47.19" height="10.48"/><path class="e" d="M531.58,12.25c-1.05,16.16-6.09,27.96-15.12,35.39-8.17,6.72-19.99,10.14-35.46,10.28v-10.75c13-.36,22.52-3.07,28.53-8.13,6.36-5.36,10.09-14.29,11.19-26.79h10.86Z"/><polygon class="e" points="568.68 59.24 536.85 59.24 536.85 51.24 560.17 51.24 560.17 45.26 537.41 45.26 537.41 37.41 560.17 37.41 560.17 32.27 536.9 32.27 536.9 24.37 568.68 24.37 568.68 59.24"/><path class="e" d="M626.08,12.99c-1.01,15.4-5.74,26.73-14.17,33.98-7.97,6.8-19.69,10.41-35.14,10.82v-10.82c12.15-.94,21.07-3.61,26.75-7.99,6.69-5.24,10.54-13.9,11.56-25.99h10.99Z"/><polygon class="e" points="398.08 .33 398.08 2.76 398.08 4.19 398.08 10 403.87 10 404.58 10 404.58 .33 398.08 .33"/><rect class="e" x="406.99" y=".33" width="6.49" height="9.67"/><rect class="e" x="406.99" y=".33" width="6.49" height="9.67"/><rect class="f" x="406.99" y=".33" width="6.49" height="9.67"/><rect class="e" x="406.99" y=".33" width="6.49" height="9.67"/><path class="e" d="M416.44,37.9c-2.88-4.77-5.45-9.73-7.7-14.83-1.55-3.49-3.37-6.85-5.44-10.06h-8.08V6.89c-2.29-.49-4.64-.72-6.98-.68h-8.45l-7.83,20.96c-1.17,3.17-2.75,5.16-4.69,5.97v10.94c6.44-.79,11.04-4.71,13.78-11.75l5.97-15.44h1.97c1.91-.14,3.79,.6,5.09,2.01,1.14,1.35,3.16,5.11,6.06,11.28,4.03,8.65,7.72,14.96,11.08,18.94,4.13,4.84,8.8,7.63,14.05,8.39v-11.21c-2.92-.98-5.87-3.78-8.83-8.4"/><polygon class="e" points="479.53 2.83 479.52 2.88 479.52 12.88 502.08 15.93 502.08 5.88 479.53 2.83"/><polygon class="e" points="479.53 17.61 479.52 17.67 479.52 27.66 502.08 30.73 502.08 20.66 479.53 17.61"/><polygon class="e" points="575.91 3.78 575.91 3.83 575.91 14.7 598.46 17.74 598.46 6.83 575.91 3.78"/><path class="d" d="M637.03,60.19v-9.59l21.98-25.32c2.15-2.54,3.06-4.34,3.06-7.05,0-4.34-2.56-7.29-7.11-7.29-3.55,0-7.19,1.8-7.19,7.46h-10.74c0-10.65,7.85-17.04,17.93-17.04s17.85,6.47,17.85,16.96c0,5.65-2.23,8.68-6.28,13.35l-16.44,18.93h22.72v9.59h-35.78Z"/><path class="d" d="M697.07,60.68c-9.58,0-17.93-6.23-17.93-17.37V18.73c0-11.14,8.35-17.37,17.93-17.37s17.85,6.23,17.85,17.37v24.58c0,11.15-8.26,17.37-17.85,17.37Zm7.1-41.79c0-4.92-2.89-7.95-7.1-7.95s-7.19,3.03-7.19,7.95v24.34c0,4.92,2.97,7.87,7.19,7.87s7.1-2.95,7.1-7.87V18.89Z"/><path class="d" d="M721.43,60.19v-9.59l21.98-25.32c2.15-2.54,3.06-4.34,3.06-7.05,0-4.34-2.56-7.29-7.11-7.29-3.55,0-7.19,1.8-7.19,7.46h-10.74c0-10.65,7.85-17.04,17.93-17.04s17.85,6.47,17.85,16.96c0,5.65-2.23,8.68-6.28,13.35l-16.44,18.93h22.72v9.59h-35.78Z"/><path class="d" d="M763.63,60.19v-9.59l21.98-25.32c2.15-2.54,3.06-4.34,3.06-7.05,0-4.34-2.56-7.29-7.11-7.29-3.55,0-7.19,1.8-7.19,7.46h-10.74c0-10.65,7.85-17.04,17.93-17.04s17.85,6.47,17.85,16.96c0,5.65-2.23,8.68-6.28,13.35l-16.44,18.93h22.72v9.59h-35.78Z"/><path class="g" d="M637.03,60.19v-9.59l21.98-25.32c2.15-2.54,3.06-4.34,3.06-7.05,0-4.34-2.56-7.29-7.11-7.29-3.55,0-7.19,1.8-7.19,7.46h-10.74c0-10.65,7.85-17.04,17.93-17.04s17.85,6.47,17.85,16.96c0,5.65-2.23,8.68-6.28,13.35l-16.44,18.93h22.72v9.59h-35.78Z"/><path class="g" d="M697.07,60.68c-9.58,0-17.93-6.23-17.93-17.37V18.73c0-11.14,8.35-17.37,17.93-17.37s17.85,6.23,17.85,17.37v24.58c0,11.15-8.26,17.37-17.85,17.37Zm7.1-41.79c0-4.92-2.89-7.95-7.1-7.95s-7.19,3.03-7.19,7.95v24.34c0,4.92,2.97,7.87,7.19,7.87s7.1-2.95,7.1-7.87V18.89Z"/><path class="g" d="M721.43,60.19v-9.59l21.98-25.32c2.15-2.54,3.06-4.34,3.06-7.05,0-4.34-2.56-7.29-7.11-7.29-3.55,0-7.19,1.8-7.19,7.46h-10.74c0-10.65,7.85-17.04,17.93-17.04s17.85,6.47,17.85,16.96c0,5.65-2.23,8.68-6.28,13.35l-16.44,18.93h22.72v9.59h-35.78Z"/><path class="g" d="M763.63,60.19v-9.59l21.98-25.32c2.15-2.54,3.06-4.34,3.06-7.05,0-4.34-2.56-7.29-7.11-7.29-3.55,0-7.19,1.8-7.19,7.46h-10.74c0-10.65,7.85-17.04,17.93-17.04s17.85,6.47,17.85,16.96c0,5.65-2.23,8.68-6.28,13.35l-16.44,18.93h22.72v9.59h-35.78Z"/></g></g></svg>