<svg xmlns="http://www.w3.org/2000/svg" width="31.33" height="31.33" viewBox="0 0 31.33 31.33">
  <defs>
    <style>
      .cls-1 {
        fill: #e60000;
      }

      .cls-2 {
        fill: #fff;
      }
    </style>
  </defs>
  <title>numberdticket_10</title>
  <g id="レイヤー_1" data-name="レイヤー 1">
    <circle class="cls-1" cx="15.67" cy="15.67" r="15.67" transform="translate(-6.45 17.03) rotate(-48.53)"/>
  </g>
  <g id="_2のコピー_8" data-name="2のコピー 8">
    <g>
      <path class="cls-2" d="M8,5.11h3.1V24.88H7.54v-16L4,11.38,3.51,8.14Z"/>
      <path class="cls-2" d="M13.61,15c0-3.49.62-5.79,1.66-7.4a6.3,6.3,0,0,1,5.42-2.87c7.08,0,7.08,8.47,7.08,10.27s0,10.28-7.08,10.28S13.61,16.8,13.61,15Zm10.67,0c0-4.25-1-7.08-3.59-7.08-2.8,0-3.59,3.17-3.59,7.08,0,4.29,1,7.09,3.59,7.09S24.28,19.06,24.28,15Z"/>
    </g>
  </g>
</svg>
