<svg id="レイヤー_1" data-name="レイヤー 1" xmlns="http://www.w3.org/2000/svg" width="278.29" height="129.02" viewBox="0 0 278.29 129.02">
  <title>tgs_logo_l_bl</title>
  <g>
    <g>
      <g>
        <path d="M17.84,6.64v25H10.6v-25H0V.08H28.44V6.64Z"/>
        <path d="M82.79.08h9L78.55,15.32,92.39,31.59h-9.2l-12.88-16v16H63.16V.08h7.15V15Z"/>
        <path d="M100.65.08l7.08,12.72L114.85.08h8.35l-11.87,19.2V31.59h-7.2V19.28L92.25.08Z"/>
        <path d="M31.11,0V31.68H60.64V0ZM53.89,24.76h-16V6.92h16Z"/>
        <path d="M123.9,0V31.68h29.53V0Zm22.78,24.76h-16V6.92h16Z"/>
      </g>
      <g>
        <path d="M63.82,80.14H55.75l-2.36-6.57H40.87l-2.36,6.57H30.44l12-31.52H51.8ZM47.11,55.58l-4.32,11.8h8.64Z"/>
        <path d="M75.29,48.62l6.92,22.76,6.91-22.76H99.56V80.14h-6.8V65c0-1,.2-7.72.24-8.88l-7.44,24H78.84l-7.43-24c0,1,.24,7.88.24,8.88V80.14h-6.8V48.62Z"/>
        <path d="M127.29,48.62v6.56H109.14V61h17.43v6.3H109.14v6.27h18.59v6.57H101.94V48.62Z"/>
        <path d="M183.94,48.62v12H199.3v-12h7.2V80.14h-7.2v-13H183.94v13h-7.16V48.62Z"/>
        <path d="M247.22,48.62,250.74,73l3.52-24.36h9.52L267.3,73l3.51-24.36h7.48l-6.08,31.52h-9.67L259,56.1l-3.52,24h-9.64l-6.12-31.52Z"/>
        <path d="M209.24,48.54V80.23h29.53V48.54ZM232,73.3H216V55.47h16Z"/>
        <polygon points="29.54 59.58 29.54 48.54 0.01 48.54 0.01 80.23 29.54 80.23 29.54 69.22 29.54 62.37 22.79 62.37 14.73 62.37 14.73 69.22 22.79 69.22 22.79 73.3 6.76 73.3 6.76 55.47 22.79 55.47 22.79 59.58 29.54 59.58"/>
        <polygon points="173.96 54.84 173.96 48.32 148.19 48.32 148.19 51.31 148.19 54.84 148.19 60.93 148.19 65.45 148.19 67.46 167.44 67.46 167.44 73.55 148.19 73.55 148.19 80.07 167.44 80.07 173.96 80.07 173.96 73.55 173.96 67.46 173.96 65.93 173.96 60.93 154.72 60.93 154.72 54.84 173.96 54.84"/>
      </g>
    </g>
    <g>
      <path d="M10.53,118.18c-2.09.24-3.37.6-3.37,3v1H28.34v6.56H0v-6.28c0-3,0-9.61,7.8-10.53l10.25-1.2c2.32-.28,3.4-.68,3.4-3.36s-.88-3.92-6.8-3.92c-6.69,0-6.93.84-7,4.76H.6c0-6.72.36-11.33,13.49-11.33,8.32,0,14.49.56,14.49,10.09,0,4.08-1,6.16-2.44,7.4A10.22,10.22,0,0,1,20.25,117Z"/>
      <path d="M46,96.84c12.81,0,14.57,3,14.57,16.37,0,12.89-2.4,15.81-13.69,15.81-12.09,0-15-1.44-15-16.09C31.86,100,34.14,96.84,46,96.84Zm-6.89,16.21c0,9.37.49,9.45,7.57,9.45,6,0,6.68-.48,6.68-8.69,0-1.72-.08-7-.6-8.36-.68-1.88-2.92-2-6.52-2-6.69,0-7.18.16-7.18,9.6Z"/>
      <path d="M76.81,97.16V128.7H69.56v-25H63.08V97.16Z"/>
      <path d="M82.29,105.85c0-7.25,4.48-9,13.41-9s14.45,1,14.45,9c0,2.84-.76,5.28-3.8,6.56a4.6,4.6,0,0,1,2.4,1.36c1.88,2.09,1.92,5.49,1.92,6.21,0,8.32-6.73,9.08-13.85,9.08s-15-.16-15-9c0-.8.08-4.28,2-6.29a4.71,4.71,0,0,1,2.36-1.36C83.33,111.21,82.29,109,82.29,105.85Zm6.57,13.25c0,3,1.4,3.56,7.36,3.56,6.32,0,7.4-.6,7.4-3.8,0-3.36-2-3.57-7.4-3.57C90.3,115.29,88.86,115.66,88.86,119.1Zm.52-12.65c0,2.76,1.2,3.16,7.32,3.16,5.72,0,6.36-.76,6.36-3.36,0-2.32-.72-3.12-6.84-3.12C89.82,103.13,89.38,104,89.38,106.45Z"/>
    </g>
  </g>
</svg>
