<svg xmlns="http://www.w3.org/2000/svg" width="727.588" height="87.511" viewBox="0 0 727.588 87.511">
  <g id="txt_caption04" transform="translate(-174.696 -6579.311)">
    <g id="グループ_1442" data-name="グループ 1442" transform="translate(-101 13.665)">
      <path id="パス_4061" data-name="パス 4061" d="M0,0H727.588L682.639,87.508H0Z" transform="translate(275.696 6565.648)"/>
      <path id="パス_4062" data-name="パス 4062" d="M-2523.746-11489.492l-21.877-21.877,21.877-21.879-21.877-21.875,21.877-21.879H-2567.5v87.51Z" transform="translate(2843.196 18142.648)" fill="#0078ff"/>
    </g>
    <path id="パス_4338" data-name="パス 4338" d="M-142.8-21.448q-.616,19.6-18.172,22.512V-2.772q6.636-1.484,9.968-5.572,3.7-4.536,4-13.1Zm-14.5,11.116h-4.368a87.41,87.41,0,0,0-3.976-11h4.312A95.817,95.817,0,0,1-157.3-10.332Zm40.74-6.216h-19.068v-3.864h19.068Zm2.38,16.436h-23.632V-3.976h23.632Zm18.76-8.68h-3.864a74.361,74.361,0,0,0-2.072-9.772h3.668A69.267,69.267,0,0,1-95.424-8.792ZM-88.032-18q0,8.848-4.116,13.58-3.864,4.48-11.7,5.684V-2.352Q-97.328-3.7-94.584-7.56q2.52-3.556,2.52-10.472v-.392h4.032Zm-14.28,9.436h-3.836a64.982,64.982,0,0,0-2.212-9.772h3.668A68.755,68.755,0,0,1-102.312-8.568Zm39.676,2.184Q-67.592.224-77.98,1.036V-2.632q13.8-1.54,15.12-15.064H-73.3a15.274,15.274,0,0,1-3.416,5.18,13.829,13.829,0,0,1-5.152,3.36v-4.088a12.592,12.592,0,0,0,5.516-8.148h17.864Q-58.492-11.928-62.636-6.384Zm32.48,7.616a17.826,17.826,0,0,1-9.52-8.2A25.277,25.277,0,0,1-53.228.952V-2.912a21.938,21.938,0,0,0,8.96-5.068,19.874,19.874,0,0,0,5.88-9.548h-13.5v-3.78H-33.46a24.765,24.765,0,0,1-3.528,10.752,15.329,15.329,0,0,0,6.832,7.532ZM-2.548-9.884h-22.9V-13.72h22.9ZM27.3-20.608a2.828,2.828,0,0,1-.868,2.072,2.828,2.828,0,0,1-2.072.868,2.828,2.828,0,0,1-2.072-.868,2.828,2.828,0,0,1-.868-2.072,2.828,2.828,0,0,1,.868-2.072,2.828,2.828,0,0,1,2.072-.868,2.828,2.828,0,0,1,2.072.868A2.828,2.828,0,0,1,27.3-20.608ZM25.76,1.26Q16.38-3.752,16.38-20.1v-1.708h4.144v1.792q0,11.7,5.236,16.772ZM11.508-20.132q0,16.408-9.38,21.42V-3.22q5.264-5.1,5.264-16.828v-1.764h4.116Zm14.168-.476a1.264,1.264,0,0,0-.392-.924,1.264,1.264,0,0,0-.924-.392,1.219,1.219,0,0,0-.91.392,1.287,1.287,0,0,0-.378.924,1.287,1.287,0,0,0,.378.924,1.219,1.219,0,0,0,.91.392,1.264,1.264,0,0,0,.924-.392A1.264,1.264,0,0,0,25.676-20.608ZM53.452-9.884h-22.9V-13.72h22.9ZM81.844,1.232a17.826,17.826,0,0,1-9.52-8.2A25.277,25.277,0,0,1,58.772.952V-2.912a21.938,21.938,0,0,0,8.96-5.068,19.874,19.874,0,0,0,5.88-9.548h-13.5v-3.78H78.54a24.765,24.765,0,0,1-3.528,10.752,15.329,15.329,0,0,0,6.832,7.532Zm27.664-22.848q0,8.288-3.388,13.776-4.76,7.7-16.856,8.932V-2.6Q97.832-3.752,101.7-8.652a86.482,86.482,0,0,0-10.668-1.792v-2.94a15.664,15.664,0,0,1-5.04,3.5V-14a11.665,11.665,0,0,0,3.29-3.136,16.792,16.792,0,0,0,2.338-4.48Zm-4.424,3.7H94.3a18.594,18.594,0,0,1-2.688,3.892,95.68,95.68,0,0,1,12.04,2.016A21.257,21.257,0,0,0,105.084-17.92Zm32.368,8.036h-22.9V-13.72h22.9Zm29.82-9.464H165v-4.144h2.268Zm-1.624,20.58a17.681,17.681,0,0,1-9.492-8.2A25.277,25.277,0,0,1,142.6.952V-2.912a21.938,21.938,0,0,0,8.96-5.068,19.874,19.874,0,0,0,5.88-9.548H143.92v-3.78h17.7v-2.184h2.3v4.144h-1.82a24.648,24.648,0,0,1-3.276,8.792,15.329,15.329,0,0,0,6.832,7.532Zm-337.6,22.516H-192v-8.6h20.048Zm-3.444-5.152v-.924h-13.16V18.6Zm0,2.856v-.9h-13.16v.9Zm-.42,12.012a9.95,9.95,0,0,0,1.82-2.3h-3.444A7.957,7.957,0,0,0-175.812,33.464Zm-12.964,1.652q2.044-.14,3.3-.28V33.8h-3.3Zm3.3,2.492q-3.948.644-8.372.952l-.9-3.192q1.316-.028,2.464-.056v-7.84h-2.24V24.56h24.948v2.912h-12.32V36.88a16.71,16.71,0,0,0,3.668-1.624,13.908,13.908,0,0,1-2.408-4.088h-.84V28.536h11.032V31a19.007,19.007,0,0,1-2.856,4.144,27.57,27.57,0,0,0,4.34,1.344l-2.1,3.22a17.07,17.07,0,0,1-4.76-2.3,18.958,18.958,0,0,1-4.06,2.352l-2.016-2.464v2.688h-3.584Zm0-9.1V27.472h-3.3v1.036Zm0,3.164V30.636h-3.3v1.036Zm40.6,6.412a98.515,98.515,0,0,1-11.536,1.568l-1.2-3.528q3-.084,6.216-.42V32.148h-5.32V23.972h5.32V22.348q-2.52.224-5.1.364l-1.036-3.332h2.212a31.749,31.749,0,0,0,2.016-4.508l3.752.56a36.148,36.148,0,0,1-1.9,3.808q2.38-.14,4.284-.364-.7-1.064-1.372-1.988l3.108-1.12a30.209,30.209,0,0,1,4.116,5.8l-3.472,1.372q-.336-.644-.672-1.26-.112.028-2.324.28v2.016h5.544v8.176h-5.684v3.136q.644-.084,1.82-.308-.392-.9-.7-1.512l2.94-.812a34.361,34.361,0,0,1,3.108,6.216l-3.528,1.176Q-144.592,38.924-144.872,38.084Zm-.728-8.792V26.8h-2.212v2.492Zm-5.712,0V26.8h-2.212v2.492Zm-6.5,4.508q0,3.668-.784,4.76-.9,1.26-3.864,1.26h-2.1l-1.092-3.5h2.408q1.232,0,1.6-.644a5.36,5.36,0,0,0,.28-2.184V31.14h-4.872l.868-8.988h3.976V18.876h-4.7V15.544h8.26V25.12h-4.312l-.308,2.912h4.648Zm41.86-10.052H-136v-8.6h20.048Zm-3.444-5.152v-.924h-13.16V18.6Zm0,2.856v-.9h-13.16v.9Zm-.42,12.012a9.95,9.95,0,0,0,1.82-2.3h-3.444A7.957,7.957,0,0,0-119.812,33.464Zm-12.964,1.652q2.044-.14,3.3-.28V33.8h-3.3Zm3.3,2.492q-3.948.644-8.372.952l-.9-3.192q1.316-.028,2.464-.056v-7.84h-2.24V24.56h24.948v2.912h-12.32V36.88a16.71,16.71,0,0,0,3.668-1.624,13.908,13.908,0,0,1-2.408-4.088h-.84V28.536h11.032V31a19.007,19.007,0,0,1-2.856,4.144,27.571,27.571,0,0,0,4.34,1.344l-2.1,3.22a17.07,17.07,0,0,1-4.76-2.3,18.958,18.958,0,0,1-4.06,2.352l-2.016-2.464v2.688h-3.584Zm0-9.1V27.472h-3.3v1.036Zm0,3.164V30.636h-3.3v1.036Zm26.18-12.012-2.688,2.548a30.57,30.57,0,0,0-4.256-4.256l2.6-2.52A27.01,27.01,0,0,1-103.292,19.66Zm7.308,10.976a28.362,28.362,0,0,1-5.124,4.564l-2.268-2.492a27.841,27.841,0,0,0,5.712-4.424h-4.424V21.116h6.076V19.828h-7V16.692h7V15.04h3.388v1.652h7.056v3.136h-7.056v1.288h6.272v7.168h-4.592a29.161,29.161,0,0,0,5.824,4.424L-87.388,35.2a28.465,28.465,0,0,1-5.264-4.592V35.4h-3.332ZM-89.6,25.6V23.8h-3.052V25.6Zm-6.356,0V23.8H-98.9V25.6Zm-9.884,11.7a47.317,47.317,0,0,1-3.836,2.968l-1.092-4a34.9,34.9,0,0,0,3.668-2.492V28.48h-3.36v-3.5h6.832v9.044q.616,2.128,4.032,2.128H-85.12l-.84,3.3h-14.224a10.7,10.7,0,0,1-3.3-.42A5.122,5.122,0,0,1-105.84,37.3Zm43.2-5.684q-4.956,6.608-15.344,7.42V35.368q13.8-1.54,15.12-15.064H-73.3a15.274,15.274,0,0,1-3.416,5.18,13.829,13.829,0,0,1-5.152,3.36V24.756a12.592,12.592,0,0,0,5.516-8.148h17.864Q-58.492,26.072-62.636,31.616Zm30.856-6.972q0,7.476-4.368,10.892-4.144,3.22-13.132,3.444V35.256q6.944-.364,9.856-2.38,3.444-2.38,3.444-8.2V16.16h4.2Zm-15.96,5.4h-4.144V16.16h4.144ZM-2.268,37.86H-25.732v-3.7h9.408V21.032h-7.868v-3.7H-3.808v3.7H-12.18V34.164h9.912Zm27.1-22.092A17.952,17.952,0,0,1,17.668,24.9V39.624h-4.2V27.22a43.192,43.192,0,0,1-11.2,3.08V26.464q14.252-2.576,18.088-10.7Zm28.672.616q0,8.288-3.388,13.776-4.76,7.7-16.856,8.932V35.4q8.568-1.148,12.432-6.048a86.482,86.482,0,0,0-10.668-1.792v-2.94a15.664,15.664,0,0,1-5.04,3.5V24a11.665,11.665,0,0,0,3.29-3.136,16.792,16.792,0,0,0,2.338-4.48Zm-4.424,3.7H38.3a18.594,18.594,0,0,1-2.688,3.892,95.681,95.681,0,0,1,12.04,2.016A21.257,21.257,0,0,0,49.084,20.08Zm32.368,8.036h-22.9V24.28h22.9Zm29.82-9.464H109V14.508h2.268Zm-1.624,20.58a17.681,17.681,0,0,1-9.492-8.2A25.277,25.277,0,0,1,86.6,38.952V35.088a21.938,21.938,0,0,0,8.96-5.068,19.874,19.874,0,0,0,5.88-9.548H87.92v-3.78h17.7V14.508h2.3v4.144h-1.82a24.648,24.648,0,0,1-3.276,8.792,15.329,15.329,0,0,0,6.832,7.532Zm27.076-6.692q0,3.248-1.456,4.746t-4.648,1.5h-5.04V35.06h4.144a2.981,2.981,0,0,0,2.184-.658,3.031,3.031,0,0,0,.644-2.17v-8.82h-7.2a18.581,18.581,0,0,1-3.528,10.332,15.186,15.186,0,0,1-7.336,5.32v-4q6.58-3.7,6.8-11.648h-6.8v-3.64h6.8V15.516h4.088v4.256h11.34Zm19.852-3.332h-3.864a74.363,74.363,0,0,0-2.072-9.772h3.668A69.269,69.269,0,0,1,156.576,29.208ZM163.968,20q0,8.848-4.116,13.58-3.864,4.48-11.7,5.684V35.648q6.524-1.344,9.268-5.208,2.52-3.556,2.52-10.472v-.392h4.032Zm-14.28,9.436h-3.836a64.98,64.98,0,0,0-2.212-9.772h3.668A68.753,68.753,0,0,1,149.688,29.432Zm46-12.8a2.964,2.964,0,0,1-2.94,2.94,2.973,2.973,0,0,1-.42-.028q-.616,8.876-5.908,13.944a20.625,20.625,0,0,1-12.488,5.46v-3.7a17.527,17.527,0,0,0,9.87-4.97,15.973,15.973,0,0,0,4.186-9.842H170.8v-3.78h19.012v-.028a2.851,2.851,0,0,1,.854-2.072,2.947,2.947,0,0,1,5.026,2.072Zm-1.652,0a1.287,1.287,0,0,0-.378-.924,1.219,1.219,0,0,0-.91-.392,1.339,1.339,0,0,0-1.316,1.316,1.219,1.219,0,0,0,.392.91,1.287,1.287,0,0,0,.924.378,1.291,1.291,0,0,0,1.288-1.288Z" transform="translate(539.123 6614.566)" fill="#fce01d"/>
    <path id="パス_4339" data-name="パス 4339" d="M-142.8-21.448q-.616,19.6-18.172,22.512V-2.772q6.636-1.484,9.968-5.572,3.7-4.536,4-13.1Zm-14.5,11.116h-4.368a87.41,87.41,0,0,0-3.976-11h4.312A95.817,95.817,0,0,1-157.3-10.332Zm40.74-6.216h-19.068v-3.864h19.068Zm2.38,16.436h-23.632V-3.976h23.632Zm18.76-8.68h-3.864a74.361,74.361,0,0,0-2.072-9.772h3.668A69.267,69.267,0,0,1-95.424-8.792ZM-88.032-18q0,8.848-4.116,13.58-3.864,4.48-11.7,5.684V-2.352Q-97.328-3.7-94.584-7.56q2.52-3.556,2.52-10.472v-.392h4.032Zm-14.28,9.436h-3.836a64.982,64.982,0,0,0-2.212-9.772h3.668A68.755,68.755,0,0,1-102.312-8.568Zm39.676,2.184Q-67.592.224-77.98,1.036V-2.632q13.8-1.54,15.12-15.064H-73.3a15.274,15.274,0,0,1-3.416,5.18,13.829,13.829,0,0,1-5.152,3.36v-4.088a12.592,12.592,0,0,0,5.516-8.148h17.864Q-58.492-11.928-62.636-6.384Zm32.48,7.616a17.826,17.826,0,0,1-9.52-8.2A25.277,25.277,0,0,1-53.228.952V-2.912a21.938,21.938,0,0,0,8.96-5.068,19.874,19.874,0,0,0,5.88-9.548h-13.5v-3.78H-33.46a24.765,24.765,0,0,1-3.528,10.752,15.329,15.329,0,0,0,6.832,7.532ZM-2.548-9.884h-22.9V-13.72h22.9ZM27.3-20.608a2.828,2.828,0,0,1-.868,2.072,2.828,2.828,0,0,1-2.072.868,2.828,2.828,0,0,1-2.072-.868,2.828,2.828,0,0,1-.868-2.072,2.828,2.828,0,0,1,.868-2.072,2.828,2.828,0,0,1,2.072-.868,2.828,2.828,0,0,1,2.072.868A2.828,2.828,0,0,1,27.3-20.608ZM25.76,1.26Q16.38-3.752,16.38-20.1v-1.708h4.144v1.792q0,11.7,5.236,16.772ZM11.508-20.132q0,16.408-9.38,21.42V-3.22q5.264-5.1,5.264-16.828v-1.764h4.116Zm14.168-.476a1.264,1.264,0,0,0-.392-.924,1.264,1.264,0,0,0-.924-.392,1.219,1.219,0,0,0-.91.392,1.287,1.287,0,0,0-.378.924,1.287,1.287,0,0,0,.378.924,1.219,1.219,0,0,0,.91.392,1.264,1.264,0,0,0,.924-.392A1.264,1.264,0,0,0,25.676-20.608ZM53.452-9.884h-22.9V-13.72h22.9ZM81.844,1.232a17.826,17.826,0,0,1-9.52-8.2A25.277,25.277,0,0,1,58.772.952V-2.912a21.938,21.938,0,0,0,8.96-5.068,19.874,19.874,0,0,0,5.88-9.548h-13.5v-3.78H78.54a24.765,24.765,0,0,1-3.528,10.752,15.329,15.329,0,0,0,6.832,7.532Zm27.664-22.848q0,8.288-3.388,13.776-4.76,7.7-16.856,8.932V-2.6Q97.832-3.752,101.7-8.652a86.482,86.482,0,0,0-10.668-1.792v-2.94a15.664,15.664,0,0,1-5.04,3.5V-14a11.665,11.665,0,0,0,3.29-3.136,16.792,16.792,0,0,0,2.338-4.48Zm-4.424,3.7H94.3a18.594,18.594,0,0,1-2.688,3.892,95.68,95.68,0,0,1,12.04,2.016A21.257,21.257,0,0,0,105.084-17.92Zm32.368,8.036h-22.9V-13.72h22.9Zm29.82-9.464H165v-4.144h2.268Zm-1.624,20.58a17.681,17.681,0,0,1-9.492-8.2A25.277,25.277,0,0,1,142.6.952V-2.912a21.938,21.938,0,0,0,8.96-5.068,19.874,19.874,0,0,0,5.88-9.548H143.92v-3.78h17.7v-2.184h2.3v4.144h-1.82a24.648,24.648,0,0,1-3.276,8.792,15.329,15.329,0,0,0,6.832,7.532Zm-337.6,22.516H-192v-8.6h20.048Zm-3.444-5.152v-.924h-13.16V18.6Zm0,2.856v-.9h-13.16v.9Zm-.42,12.012a9.95,9.95,0,0,0,1.82-2.3h-3.444A7.957,7.957,0,0,0-175.812,33.464Zm-12.964,1.652q2.044-.14,3.3-.28V33.8h-3.3Zm3.3,2.492q-3.948.644-8.372.952l-.9-3.192q1.316-.028,2.464-.056v-7.84h-2.24V24.56h24.948v2.912h-12.32V36.88a16.71,16.71,0,0,0,3.668-1.624,13.908,13.908,0,0,1-2.408-4.088h-.84V28.536h11.032V31a19.007,19.007,0,0,1-2.856,4.144,27.57,27.57,0,0,0,4.34,1.344l-2.1,3.22a17.07,17.07,0,0,1-4.76-2.3,18.958,18.958,0,0,1-4.06,2.352l-2.016-2.464v2.688h-3.584Zm0-9.1V27.472h-3.3v1.036Zm0,3.164V30.636h-3.3v1.036Zm40.6,6.412a98.515,98.515,0,0,1-11.536,1.568l-1.2-3.528q3-.084,6.216-.42V32.148h-5.32V23.972h5.32V22.348q-2.52.224-5.1.364l-1.036-3.332h2.212a31.749,31.749,0,0,0,2.016-4.508l3.752.56a36.148,36.148,0,0,1-1.9,3.808q2.38-.14,4.284-.364-.7-1.064-1.372-1.988l3.108-1.12a30.209,30.209,0,0,1,4.116,5.8l-3.472,1.372q-.336-.644-.672-1.26-.112.028-2.324.28v2.016h5.544v8.176h-5.684v3.136q.644-.084,1.82-.308-.392-.9-.7-1.512l2.94-.812a34.361,34.361,0,0,1,3.108,6.216l-3.528,1.176Q-144.592,38.924-144.872,38.084Zm-.728-8.792V26.8h-2.212v2.492Zm-5.712,0V26.8h-2.212v2.492Zm-6.5,4.508q0,3.668-.784,4.76-.9,1.26-3.864,1.26h-2.1l-1.092-3.5h2.408q1.232,0,1.6-.644a5.36,5.36,0,0,0,.28-2.184V31.14h-4.872l.868-8.988h3.976V18.876h-4.7V15.544h8.26V25.12h-4.312l-.308,2.912h4.648Zm41.86-10.052H-136v-8.6h20.048Zm-3.444-5.152v-.924h-13.16V18.6Zm0,2.856v-.9h-13.16v.9Zm-.42,12.012a9.95,9.95,0,0,0,1.82-2.3h-3.444A7.957,7.957,0,0,0-119.812,33.464Zm-12.964,1.652q2.044-.14,3.3-.28V33.8h-3.3Zm3.3,2.492q-3.948.644-8.372.952l-.9-3.192q1.316-.028,2.464-.056v-7.84h-2.24V24.56h24.948v2.912h-12.32V36.88a16.71,16.71,0,0,0,3.668-1.624,13.908,13.908,0,0,1-2.408-4.088h-.84V28.536h11.032V31a19.007,19.007,0,0,1-2.856,4.144,27.571,27.571,0,0,0,4.34,1.344l-2.1,3.22a17.07,17.07,0,0,1-4.76-2.3,18.958,18.958,0,0,1-4.06,2.352l-2.016-2.464v2.688h-3.584Zm0-9.1V27.472h-3.3v1.036Zm0,3.164V30.636h-3.3v1.036Zm26.18-12.012-2.688,2.548a30.57,30.57,0,0,0-4.256-4.256l2.6-2.52A27.01,27.01,0,0,1-103.292,19.66Zm7.308,10.976a28.362,28.362,0,0,1-5.124,4.564l-2.268-2.492a27.841,27.841,0,0,0,5.712-4.424h-4.424V21.116h6.076V19.828h-7V16.692h7V15.04h3.388v1.652h7.056v3.136h-7.056v1.288h6.272v7.168h-4.592a29.161,29.161,0,0,0,5.824,4.424L-87.388,35.2a28.465,28.465,0,0,1-5.264-4.592V35.4h-3.332ZM-89.6,25.6V23.8h-3.052V25.6Zm-6.356,0V23.8H-98.9V25.6Zm-9.884,11.7a47.317,47.317,0,0,1-3.836,2.968l-1.092-4a34.9,34.9,0,0,0,3.668-2.492V28.48h-3.36v-3.5h6.832v9.044q.616,2.128,4.032,2.128H-85.12l-.84,3.3h-14.224a10.7,10.7,0,0,1-3.3-.42A5.122,5.122,0,0,1-105.84,37.3Zm43.2-5.684q-4.956,6.608-15.344,7.42V35.368q13.8-1.54,15.12-15.064H-73.3a15.274,15.274,0,0,1-3.416,5.18,13.829,13.829,0,0,1-5.152,3.36V24.756a12.592,12.592,0,0,0,5.516-8.148h17.864Q-58.492,26.072-62.636,31.616Zm30.856-6.972q0,7.476-4.368,10.892-4.144,3.22-13.132,3.444V35.256q6.944-.364,9.856-2.38,3.444-2.38,3.444-8.2V16.16h4.2Zm-15.96,5.4h-4.144V16.16h4.144ZM-2.268,37.86H-25.732v-3.7h9.408V21.032h-7.868v-3.7H-3.808v3.7H-12.18V34.164h9.912Zm27.1-22.092A17.952,17.952,0,0,1,17.668,24.9V39.624h-4.2V27.22a43.192,43.192,0,0,1-11.2,3.08V26.464q14.252-2.576,18.088-10.7Zm28.672.616q0,8.288-3.388,13.776-4.76,7.7-16.856,8.932V35.4q8.568-1.148,12.432-6.048a86.482,86.482,0,0,0-10.668-1.792v-2.94a15.664,15.664,0,0,1-5.04,3.5V24a11.665,11.665,0,0,0,3.29-3.136,16.792,16.792,0,0,0,2.338-4.48Zm-4.424,3.7H38.3a18.594,18.594,0,0,1-2.688,3.892,95.681,95.681,0,0,1,12.04,2.016A21.257,21.257,0,0,0,49.084,20.08Zm32.368,8.036h-22.9V24.28h22.9Zm29.82-9.464H109V14.508h2.268Zm-1.624,20.58a17.681,17.681,0,0,1-9.492-8.2A25.277,25.277,0,0,1,86.6,38.952V35.088a21.938,21.938,0,0,0,8.96-5.068,19.874,19.874,0,0,0,5.88-9.548H87.92v-3.78h17.7V14.508h2.3v4.144h-1.82a24.648,24.648,0,0,1-3.276,8.792,15.329,15.329,0,0,0,6.832,7.532Zm27.076-6.692q0,3.248-1.456,4.746t-4.648,1.5h-5.04V35.06h4.144a2.981,2.981,0,0,0,2.184-.658,3.031,3.031,0,0,0,.644-2.17v-8.82h-7.2a18.581,18.581,0,0,1-3.528,10.332,15.186,15.186,0,0,1-7.336,5.32v-4q6.58-3.7,6.8-11.648h-6.8v-3.64h6.8V15.516h4.088v4.256h11.34Zm19.852-3.332h-3.864a74.363,74.363,0,0,0-2.072-9.772h3.668A69.269,69.269,0,0,1,156.576,29.208ZM163.968,20q0,8.848-4.116,13.58-3.864,4.48-11.7,5.684V35.648q6.524-1.344,9.268-5.208,2.52-3.556,2.52-10.472v-.392h4.032Zm-14.28,9.436h-3.836a64.98,64.98,0,0,0-2.212-9.772h3.668A68.753,68.753,0,0,1,149.688,29.432Zm46-12.8a2.964,2.964,0,0,1-2.94,2.94,2.973,2.973,0,0,1-.42-.028q-.616,8.876-5.908,13.944a20.625,20.625,0,0,1-12.488,5.46v-3.7a17.527,17.527,0,0,0,9.87-4.97,15.973,15.973,0,0,0,4.186-9.842H170.8v-3.78h19.012v-.028a2.851,2.851,0,0,1,.854-2.072,2.947,2.947,0,0,1,5.026,2.072Zm-1.652,0a1.287,1.287,0,0,0-.378-.924,1.219,1.219,0,0,0-.91-.392,1.339,1.339,0,0,0-1.316,1.316,1.219,1.219,0,0,0,.392.91,1.287,1.287,0,0,0,.924.378,1.291,1.291,0,0,0,1.288-1.288Z" transform="translate(539.123 6615.566)" fill="#fdfdfd"/>
  </g>
</svg>
