<svg xmlns="http://www.w3.org/2000/svg" xmlns:xlink="http://www.w3.org/1999/xlink" width="750" height="268" viewBox="0 0 750 268"><defs><clipPath id="a"><rect width="750" height="268" transform="translate(0 10570)" fill="#fff" stroke="#707070" stroke-width="1"/></clipPath></defs><g transform="translate(0 -10570)" clip-path="url(#a)"><g transform="translate(0 -625)"><path d="M9495.813,16114.938l-12.594,10.666-12.587-10.666-12.591,10.666-12.591-10.663-12.59,10.663-12.59-10.666-12.59,10.666-12.591-10.666-12.59,10.666-12.591-10.666-12.591,10.666-12.587-10.666-12.594,10.666-12.586-10.666-12.591,10.666-12.59-10.663-12.591,10.663-12.591-10.666-12.59,10.666-12.591-10.666-12.586,10.666-12.594-10.666-12.59,10.666-12.588-10.666-12.594,10.666-12.587-10.666-12.591,10.666-12.59-10.663-12.59,10.663-12.59-10.666-12.591,10.666-12.59-10.666-12.591,10.666-12.591-10.666-12.587,10.666-12.594-10.666-12.59,10.666-12.587-10.666-12.59,10.666-12.591-10.663-12.591,10.663-12.59-10.663-12.591,10.663-12.59-10.663-12.59,10.663-12.59-10.663-12.591,10.663-12.587-10.666L8878.9,16125.6l-12.588-10.666-12.59,10.666-12.59-10.663-12.59,10.663-12.591-10.663-12.591,10.663-12.59-10.663-12.591,10.663-12.59-10.663L8753,16125.6l-12.586-10.666-12.594,10.666-12.587-10.666-12.591,10.666-12.591-10.666-12.59,10.666-12.591-10.666-12.59,10.666-12.59-10.666L8627.1,16125.6l-12.587-10.666-12.594,10.666-12.587-10.666-12.594,10.666-12.587-10.666-12.594,10.666-12.586-10.666-12.591,10.666-12.591-10.666-12.59,10.666-12.591-10.666-12.59,10.666-12.591-10.666-12.59,10.666-12.587-10.666-12.594,10.666-12.587-10.666-12.591,10.666-12.59-10.666L8375.3,16125.6l-12.59-10.666-12.59,10.666-12.591-10.666-12.59,10.666-12.591-10.666-12.587,10.666-12.591-10.666-12.594,10.666-12.586-10.666L8249.4,16125.6l-12.5-10.586-12.5,10.586-.09-.077-.092.077-12.5-10.588-12.5,10.588-.091-.077-.092.077-12.5-10.588-12.5,10.588-.093-.078-.092.078-12.5-10.586-12.5,10.586-.091-.077-.091.077-12.5-10.588-12.5,10.588-.093-.078-.092.078-12.5-10.588-12.5,10.588-.09-.077-.091.077-12.5-10.588-12.5,10.588-.091-.077-.091.077-12.5-10.588-12.5,10.588-.091-.077-.091.077-12.5-10.588-12.5,10.588-.09-.077-.091.077-12.494-10.587-12.5,10.587-.092-.078-.093.078-12.5-10.588-12.5,10.588-12.591-10.666-12.59,10.666-12.591-10.666-12.59,10.666-12.587-10.666-12.594,10.666-12.586-10.666-12.594,10.666-12.587-10.663-12.59,10.663-12.59-10.666-12.59,10.666-12.59-10.666-12.59,10.666-12.59-10.666-12.59,10.666-12.59-10.666-12.59,10.666-12.587-10.666-12.59,10.666-12.59-10.663-12.59,10.663-12.59-10.663-12.59,10.663-12.59-10.663-12.59,10.663-12.59-10.663-12.59,10.663-12.591-10.666-12.59,10.666-12.587-10.666-12.59,10.666-12.59-10.663-12.59,10.663-12.59-10.663-12.59,10.663-12.591-10.663-12.59,10.663-12.59-10.663L7469,16125.6l-12.59-10.666-12.59,10.666-12.587-10.666-12.594,10.666-12.587-10.666-12.59,10.666-12.59-10.666-12.59,10.666-12.59-10.666-12.59,10.666-12.59-10.666-12.591,10.666-12.586-10.666-12.594,10.666-12.587-10.666-12.593,10.666-12.587-10.666-12.59,10.666-12.59-10.666L7217.2,16125.6l-12.59-10.666-12.59,10.666-12.59-10.666-12.59,10.666-12.587-10.666-12.594,10.666-12.587-10.666-12.594,10.666-12.587-10.666-12.59,10.666-12.59-10.666-12.59,10.666-12.59-10.666-12.591,10.666-12.59-10.666-12.59,10.666-12.59-10.666-12.59,10.666-12.587-10.666L6965.4,16125.6l-12.587-10.666-12.591,10.666-12.59-10.666-12.59,10.666-12.59-10.666-12.59,10.666-12.59-10.666-12.59,10.666-12.59-10.666-12.59,10.666-12.587-10.666-12.593,10.666-12.587-10.666-12.59,10.666-12.59-10.666-12.591,10.666-12.59-10.666-12.59,10.666-12.59-10.666-12.59,10.666-12.6-10.672v-176.261l12.6-10.669,12.587,10.662,12.59-10.662,12.59,10.662,12.59-10.662,12.591,10.662,12.59-10.662,12.59,10.662,12.587-10.662,12.59,10.662L6839.5,15928l12.59,10.662,12.594-10.662,12.587,10.662,12.59-10.662,12.59,10.662,12.59-10.662,12.59,10.662,12.59-10.662,12.591,10.662L6965.4,15928l12.594,10.662,12.587-10.662,12.59,10.662,12.59-10.662,12.59,10.662,12.59-10.662,12.591,10.662,12.59-10.662,12.59,10.662L7091.3,15928l12.59,10.662,12.587-10.662,12.594,10.662,12.587-10.662,12.59,10.662,12.59-10.662,12.59,10.662,12.59-10.662,12.59,10.662L7217.2,15928l12.591,10.662,12.59-10.662,12.59,10.662,12.587-10.662,12.59,10.662,12.59-10.662,12.59,10.662,12.59-10.662,12.591,10.662L7343.1,15928l12.59,10.662,12.59-10.662,12.59,10.662,12.59-10.662,12.587,10.662,12.59-10.662,12.594,10.662,12.587-10.662,12.59,10.662L7469,15928l12.59,10.662,12.59-10.662,12.59,10.662,12.591-10.662,12.59,10.662,12.59-10.662,12.59,10.662,12.587-10.662,12.59,10.662L7594.9,15928l12.59,10.662L7620.08,15928l12.59,10.662,12.59-10.662,12.59,10.662,12.59-10.662,12.59,10.662,12.59-10.662,12.59,10.662L7720.8,15928l12.59,10.662,12.587-10.662,12.59,10.662,12.59-10.662,12.59,10.662,12.59-10.662,12.59,10.662,12.59-10.662,12.59,10.662L7846.7,15928l12.59,10.662,12.591-10.662,12.59,10.662L7897.06,15928l12.591,10.662,12.59-10.662,12.59,10.662,12.591-10.662,12.59,10.662L7972.6,15928l12.5,10.584,12.5-10.584.092.076.09-.076,12.5,10.583,12.5-10.583.09.075.089-.075,12.5,10.583,12.5-10.583.091.076.091-.076,12.5,10.585,12.5-10.585.091.076.091-.076,12.5,10.585,12.5-10.585.091.076.09-.076,12.5,10.585,12.5-10.585.09.076.091-.076,12.5,10.583,12.5-10.583.091.076.091-.076,12.5,10.585,12.5-10.585.092.078.093-.078,12.5,10.585,12.5-10.585.092.076.091-.076,12.5,10.585,12.5-10.585.092.076.09-.076,12.5,10.584,12.5-10.584,12.591,10.662,12.586-10.662,12.591,10.662,12.594-10.662,12.587,10.662,12.594-10.662,12.587,10.662,12.591-10.662,12.59,10.662L8375.3,15928l12.591,10.662,12.59-10.662,12.591,10.662,12.587-10.662,12.594,10.662,12.587-10.662,12.59,10.662,12.594-10.662,12.587,10.662L8501.2,15928l12.59,10.662L8526.38,15928l12.591,10.662,12.586-10.662,12.594,10.662,12.587-10.662,12.594,10.662,12.587-10.662,12.591,10.662L8627.1,15928l12.587,10.662,12.59-10.662,12.59,10.662L8677.46,15928l12.59,10.662,12.591-10.662,12.591,10.662,12.59-10.662,12.591,10.662L8753,15928l12.591,10.662,12.593-10.662,12.588,10.662,12.59-10.662,12.591,10.662,12.591-10.662,12.59,10.662,12.59-10.662,12.59,10.662L8878.9,15928l12.587,10.662,12.591-10.662,12.591,10.662,12.593-10.662,12.587,10.662,12.59-10.662,12.591,10.662,12.59-10.662,12.591,10.662L9004.8,15928l12.59,10.662,12.591-10.662,12.586,10.662,12.594-10.662,12.587,10.662L9080.34,15928l12.591,10.662,12.59-10.662,12.591,10.662L9130.7,15928l12.59,10.662,12.59-10.662,12.591,10.662,12.591-10.662,12.587,10.662L9206.24,15928l12.59,10.662,12.594-10.662,12.586,10.662L9256.6,15928l12.59,10.662,12.591-10.662,12.591,10.662,12.59-10.662,12.591,10.662,12.59-10.662,12.59,10.662,12.587-10.662,12.591,10.662L9382.5,15928l12.587,10.662,12.591-10.662,12.59,10.662,12.59-10.662,12.59,10.662,12.591-10.662,12.591,10.662L9483.22,15928l12.591,10.662L9508.4,15928l12.6,10.669v176.264l-12.6,10.669Z" transform="matrix(0.996, -0.087, 0.087, 0.996, -9853.452, -3862.342)"/><path d="M8224.4,16126.26l-.091-.077-.091.075-.321-.272-12.176-10.314-12.5,10.588-.092-.078-.093.077-.321-.272-12.174-10.314-12.5,10.587-.093-.078-.094.079-.324-.273-12.173-10.312-12.5,10.586-.091-.077-.091.077-.323-.273-12.176-10.314-12.5,10.587-.093-.078-.093.079-12.5-10.588-12.5,10.589-.09-.076-.089.075-.324-.273-12.177-10.314-12.5,10.588-.091-.076-.09.076-.323-.273-12.177-10.314-12.5,10.588-.092-.077-.091.076-.322-.272-12.174-10.314-12.5,10.589-.09-.077-.09.076-.323-.273-12.171-10.313-12.5,10.587-.093-.079-.093.079-12.5-10.588-12.5,10.588-.323-.273-12.268-10.393-12.59,10.666-.323-.273-12.268-10.393-12.59,10.666-.323-.273-12.264-10.393-12.594,10.666-.323-.273-12.264-10.393-12.593,10.666-.323-.273-12.264-10.39-12.59,10.663-.323-.273-12.267-10.393-12.59,10.666-.323-.273-12.267-10.393-12.59,10.666-.323-.273-12.267-10.393-12.59,10.666-.323-.273-12.267-10.393-12.59,10.666-.323-.273-12.264-10.393-12.59,10.666-.323-.273-12.267-10.39-12.59,10.663-.323-.273-12.267-10.39-12.59,10.663-.323-.273-12.267-10.39-12.59,10.663-.323-.273-12.267-10.39-12.59,10.663-.323-.273-12.268-10.393-12.59,10.666-.323-.273-12.264-10.393-12.59,10.666-.323-.273-12.267-10.39-12.59,10.663-.323-.273-12.267-10.39-12.59,10.663-.323-.273-12.268-10.39-12.59,10.663-.323-.273-12.267-10.39-12.59,10.663-.323-.273-12.267-10.393-12.59,10.666-.323-.273-12.264-10.393-12.594,10.666-.323-.273-12.264-10.393-12.59,10.666-.323-.273-12.267-10.393-12.59,10.666-.323-.273-12.267-10.393-12.59,10.666-.323-.273-12.267-10.393-12.591,10.666-.323-.273-12.263-10.393-12.594,10.666-.323-.273-12.264-10.393-12.593,10.666-.323-.273-12.264-10.393-12.59,10.666-.323-.273-12.267-10.393-12.591,10.666-.323-.273-12.267-10.393-12.59,10.666-.323-.273-12.267-10.393-12.59,10.666-.323-.273-12.264-10.393-12.594,10.666-.323-.273-12.264-10.393-12.594,10.666-.323-.273-12.264-10.393-12.59,10.666-.323-.273-12.267-10.393-12.59,10.666-.323-.273-12.267-10.393-12.591,10.666-.323-.273-12.267-10.393-12.59,10.666-.323-.273-12.267-10.393-12.59,10.666-12.587-10.666-12.594,10.666-.323-.273-12.264-10.393-12.591,10.666-.323-.273-12.267-10.393-12.59,10.666-12.59-10.666-12.59,10.666-.323-.273-12.267-10.393-12.59,10.666-.323-.273-12.267-10.393-12.59,10.666-.323-.273-12.264-10.393-12.593,10.666-.323-.273-12.264-10.393-12.59,10.666-.323-.273-12.267-10.393-12.591,10.666-.323-.273-12.267-10.393-12.59,10.666-.323-.273-12.267-10.393-12.59,10.666-.323-.273-12.774-10.822v-176.724l.177-.15,12.923-10.942.323.273,12.264,10.389,12.59-10.662.323.273,12.267,10.389,12.59-10.662.323.273,12.268,10.389,12.59-10.662.323.273,12.267,10.389,12.587-10.662.323.273,12.267,10.389,12.59-10.662.323.273,12.267,10.389,12.594-10.662.323.273,12.264,10.389,12.59-10.662.323.273,12.267,10.389,12.59-10.662.323.273,12.267,10.389,12.59-10.662.323.273,12.268,10.389,12.587-10.662.323.273,12.271,10.389,12.587-10.662.323.273,12.267,10.389,12.59-10.662.323.273,12.267,10.389,12.59-10.662.323.273,12.268,10.389,12.59-10.662.323.273,12.267,10.389,12.59-10.662.323.273,12.267,10.389,12.587-10.662.323.273,12.271,10.389,12.587-10.662.323.273,12.267,10.389,12.59-10.662.323.273,12.267,10.389,12.59-10.662.323.273,12.267,10.389,12.59-10.662.323.273,12.268,10.389,12.59-10.662.323.273,12.267,10.389,12.587-10.662.323.273,12.267,10.389,12.59-10.662.323.273,12.267,10.389,12.59-10.662.323.273,12.268,10.389,12.59-10.662.323.273,12.267,10.389,12.59-10.662.323.273,12.267,10.389,12.59-10.662.323.273,12.264,10.389,12.59-10.662.323.273,12.271,10.389,12.587-10.662.323.273,12.267,10.389,12.59-10.662.323.273,12.267,10.389,12.59-10.662.323.273,12.267,10.389,12.591-10.662.323.273,12.267,10.389,12.59-10.662.323.273,12.267,10.389,12.587-10.662.323.273,12.267,10.389,12.59-10.662.323.273,12.267,10.389,12.591-10.662.323.273,12.267,10.389,12.59-10.662.323.273,12.267,10.389,12.59-10.662.323.273,12.267,10.389,12.59-10.662.323.273,12.267,10.389,12.59-10.662.323.273,12.267,10.389,12.587-10.662.323.273,12.267,10.389,12.59-10.662.323.273,12.267,10.389,12.59-10.662.323.273,12.267,10.389,12.59-10.662.323.273,12.267,10.389,12.59-10.662.323.273,12.267,10.389,12.591-10.662.323.273,12.267,10.389,12.586-10.662.323.273,12.268,10.389,12.59-10.662.323.273,12.267,10.389,12.591-10.662.323.273,12.267,10.389,12.591-10.662.323.273,12.175,10.311,12.5-10.581.093.077.094-.079.322.272,12.174,10.31,12.5-10.581.09.075.091-.076.323.272,12.178,10.31,12.495-10.58.093.077.094-.079,12.5,10.584,12.5-10.583.093.077.093-.078,12.5,10.584,12.5-10.584.092.077.092-.077.322.272,12.177,10.312,12.5-10.584.093.078.092-.076.32.271,12.175,10.31,12.5-10.581.093.078.093-.078.321.271,12.173,10.312,12.5-10.585.094.079.093-.078.322.272,12.173,10.312,12.495-10.582.095.078.094-.079.321.271,12.176,10.312,12.5-10.582.093.076.093-.079.323.273,12.178,10.311,12.5-10.584.323.273,12.268,10.389,12.586-10.662.323.273,12.268,10.389,12.594-10.662.323.273,12.264,10.389,12.594-10.662.323.273,12.264,10.389,12.591-10.662.323.273,12.267,10.389,12.59-10.662.323.273,12.268,10.389,12.59-10.662.323.273,12.268,10.389,12.587-10.662.323.273,12.271,10.389,12.587-10.662.323.273,12.267,10.389,12.594-10.662.323.273,12.264,10.389,12.591-10.662.323.273,12.267,10.389,12.591-10.662.323.273,12.268,10.389,12.586-10.662.323.273,12.271,10.389,12.587-10.662.323.273,12.271,10.389,12.587-10.662.323.273,12.268,10.389,12.594-10.662.323.273,12.264,10.389,12.59-10.662.323.273,12.267,10.389,12.591-10.662.323.273,12.267,10.389,12.591-10.662.323.273,12.268,10.389,12.59-10.662.323.273,12.268,10.389,12.586-10.662.323.273,12.268,10.389,12.593-10.662.323.273,12.265,10.389,12.59-10.662.323.273,12.268,10.389,12.591-10.662.323.273,12.267,10.389,12.59-10.662.323.273,12.267,10.389,12.591-10.662.323.273,12.264,10.389,12.591-10.662.323.273,12.268,10.389,12.593-10.662.323.273,12.264,10.389,12.59-10.662.323.273,12.268,10.389,12.59-10.662.323.273,12.268,10.389,12.591-10.662.323.273,12.267,10.389,12.591-10.662.323.273,12.263,10.389,12.594-10.662.323.273,12.264,10.389,12.591-10.662.323.273,12.268,10.389,12.59-10.662.323.273,12.268,10.389,12.59-10.662.323.273,12.267,10.389,12.59-10.662.323.273,12.268,10.389,12.591-10.662.323.273,12.264,10.389,12.591-10.662.323.273,12.267,10.389,12.594-10.662.323.273,12.263,10.389,12.591-10.662.323.273,12.267,10.389,12.591-10.662.323.273,12.268,10.389,12.59-10.662.323.273,12.268,10.389,12.59-10.662.323.273,12.267,10.389,12.587-10.662.323.273,12.268,10.389,12.594-10.662.323.273,12.264,10.389,12.591-10.662.323.273,12.267,10.389,12.59-10.662.323.273,12.267,10.389,12.591-10.662.323.273,12.268,10.389,12.587-10.662.323.273,12.268,10.389,12.59-10.662.323.273,12.776,10.819v176.724l-.177.153-12.923,10.942-.323-.273-12.264-10.393-12.594,10.666-.323-.273-12.264-10.393-12.591,10.666-.323-.273-12.268-10.39-12.59,10.663-.323-.273-12.267-10.393-12.59,10.666-.323-.273-12.268-10.393-12.59,10.666-.323-.273-12.268-10.393-12.591,10.666-.323-.273-12.264-10.393-12.594,10.666-.323-.273-12.263-10.393-12.591,10.666-.323-.273-12.267-10.39-12.591,10.663-.323-.273-12.268-10.393-12.59,10.666-.323-.273-12.268-10.393-12.586,10.666-.323-.273-12.271-10.393-12.59,10.666-.323-.273-12.265-10.393-12.594,10.666-.323-.273-12.264-10.393-12.591,10.666-.323-.273-12.267-10.39-12.59,10.663-.323-.273-12.267-10.393-12.591,10.666-.323-.273-12.267-10.393-12.591,10.666-.323-.273-12.268-10.393-12.587,10.666-.323-.273-12.271-10.393-12.59,10.666-.323-.273-12.264-10.393-12.59,10.666-.323-.273-12.268-10.39-12.591,10.663-.323-.273-12.267-10.39-12.591,10.663-.323-.273-12.267-10.39-12.59,10.663-.323-.273-12.267-10.39-12.591,10.663-.323-.273-12.264-10.393-12.594,10.666-.323-.273-12.265-10.393-12.59,10.666-.323-.273-12.267-10.39-12.59,10.663-.323-.273-12.268-10.39-12.591,10.663-.323-.273-12.267-10.39-12.591,10.663-.323-.273-12.267-10.39L8753,16126.259l-.323-.273-12.263-10.393-12.594,10.666-.323-.273-12.264-10.393-12.591,10.666-.323-.273-12.268-10.393-12.59,10.666-.323-.273-12.268-10.393-12.59,10.666-.323-.273-12.267-10.393-12.591,10.666-.323-.273-12.264-10.393-12.594,10.666-.323-.273-12.264-10.393-12.594,10.666-.323-.273-12.264-10.393-12.594,10.666-.323-.273-12.263-10.393-12.591,10.666-.323-.273-12.268-10.393-12.59,10.666-.323-.273-12.268-10.393-12.59,10.666-.323-.273-12.268-10.393-12.59,10.666-.323-.273-12.264-10.393-12.594,10.666-.323-.273-12.264-10.393-12.591,10.666-.323-.273-12.267-10.393-12.591,10.666-.323-.273-12.267-10.393-12.59,10.666-.323-.273-12.268-10.393-12.59,10.666-.323-.273-12.268-10.393-12.587,10.666-.323-.273-12.268-10.393-12.594,10.666-.323-.273-12.263-10.393-12.591,10.666-.323-.273-12.173-10.312Zm-50.45-1.389.094.078,12.5-10.589.323.273,12.175,10.315.092-.077.09.076,12.5-10.588.323.273,12.177,10.315.094-.079.089.076,12.5-10.584.323.274,12.173,10.312,12.591-10.666.323.273,12.263,10.393,12.594-10.666.323.273,12.268,10.393,12.587-10.666.323.273,12.268,10.393,12.59-10.666.323.273,12.268,10.393,12.59-10.666.323.273,12.267,10.393,12.591-10.666.323.273,12.267,10.393,12.591-10.666.323.273,12.264,10.393,12.594-10.666.323.273,12.264,10.393,12.59-10.666.323.273,12.268,10.393,12.59-10.666.323.273,12.268,10.393,12.59-10.666.323.273,12.268,10.393,12.591-10.666.323.273,12.263,10.393,12.594-10.666.323.273,12.264,10.393,12.594-10.666.323.273,12.264,10.393,12.594-10.666.323.273,12.264,10.393,12.591-10.666.323.273,12.267,10.393,12.59-10.666.323.273,12.268,10.393,12.59-10.666.323.273,12.268,10.393,12.591-10.666.323.273,12.264,10.393,12.594-10.666.323.273,12.263,10.393,12.591-10.663.323.274,12.267,10.389,12.591-10.663.323.274,12.267,10.389,12.591-10.663.323.274,12.268,10.389,12.59-10.663.323.274,12.267,10.389,12.59-10.666.323.273,12.265,10.393,12.594-10.666.323.273,12.264,10.393,12.591-10.663.323.274,12.267,10.389,12.59-10.663.323.274,12.267,10.389,12.591-10.663.323.274,12.267,10.389,12.591-10.663.323.274,12.268,10.389,12.59-10.666.323.273,12.264,10.393,12.59-10.666.323.273,12.271,10.393,12.587-10.666.323.273,12.268,10.393,12.591-10.666.323.273,12.267,10.393,12.591-10.666.323.273,12.267,10.393,12.59-10.663.323.274,12.267,10.389,12.591-10.666.323.273,12.264,10.393,12.594-10.666.323.273,12.265,10.393,12.59-10.666.323.273,12.271,10.393,12.586-10.666.323.273,12.268,10.393,12.59-10.666.323.273,12.268,10.393,12.591-10.663.323.274,12.267,10.389,12.591-10.666.323.273,12.263,10.393,12.594-10.666.323.273,12.264,10.393,12.591-10.666.323.273,12.268,10.393,12.59-10.666.323.273,12.268,10.393,12.59-10.666.323.273,12.267,10.393,12.59-10.663.323.274,12.268,10.389,12.591-10.666.323.273,12.264,10.393,12.594-10.666.323.273,12.264,10.393,12.1-10.245v-175.8l-12.1-10.245-12.59,10.662-.323-.273-12.268-10.389-12.587,10.662-.323-.273-12.268-10.389-12.591,10.662-.323-.273-12.267-10.389-12.59,10.662-.323-.273-12.267-10.389-12.591,10.662-.323-.273-12.264-10.389-12.594,10.662-.323-.273-12.268-10.389-12.587,10.662-.323-.273-12.267-10.389-12.59,10.662-.323-.273-12.268-10.389-12.59,10.662-.323-.273-12.268-10.389-12.591,10.662-.323-.273-12.267-10.389-12.591,10.662-.323-.273-12.263-10.389-12.594,10.662-.323-.273-12.267-10.389-12.591,10.662-.323-.273-12.264-10.389-12.591,10.662-.323-.273-12.268-10.389-12.59,10.662-.323-.273-12.267-10.389-12.59,10.662-.323-.273-12.268-10.389-12.59,10.662-.323-.273-12.268-10.389-12.591,10.662-.323-.273-12.264-10.389-12.594,10.662-.323-.273-12.263-10.389-12.591,10.662-.323-.273-12.267-10.389-12.591,10.662-.323-.273-12.268-10.389-12.59,10.662-.323-.273-12.268-10.389-12.59,10.662-.323-.273-12.264-10.389-12.593,10.662-.323-.273-12.268-10.389-12.591,10.662-.323-.273-12.264-10.389-12.591,10.662-.323-.273-12.267-10.389-12.59,10.662-.323-.273-12.267-10.389-12.591,10.662-.323-.273-12.268-10.389-12.59,10.662-.323-.273-12.265-10.389-12.593,10.662-.323-.273L8753,15928.657l-12.586,10.662-.323-.273-12.268-10.389-12.59,10.662-.323-.273-12.268-10.389-12.591,10.662-.323-.273-12.267-10.389-12.591,10.662-.323-.273-12.267-10.389-12.59,10.662-.323-.273-12.264-10.389-12.594,10.662-.323-.273-12.268-10.389-12.587,10.662-.323-.273-12.271-10.389-12.587,10.662-.323-.273-12.271-10.389-12.586,10.662-.323-.273-12.268-10.389-12.591,10.662-.323-.273-12.267-10.389-12.591,10.662-.323-.273-12.264-10.389-12.594,10.662-.323-.273-12.267-10.389-12.587,10.662-.323-.273-12.271-10.389-12.587,10.662-.323-.273-12.268-10.389-12.59,10.662-.323-.273-12.268-10.389-12.59,10.662-.323-.273-12.267-10.389-12.591,10.662-.323-.273-12.264-10.389-12.594,10.662-.323-.273-12.264-10.389-12.594,10.662-.323-.273-12.268-10.389-12.586,10.662-.323-.273-12.268-10.389-12.5,10.584-.323-.273-12.178-10.311-.087.073-.092-.076-12.5,10.588-.323-.273-12.178-10.313-.088.073-.09-.074-12.5,10.588-.323-.273-12.174-10.312-.094.078-.091-.077-12.5,10.585-.323-.273-12.175-10.313-.089.074-.089-.074-12.5,10.585-.323-.274-12.177-10.311-.091.075-.087-.074-12.5,10.586-.323-.273-12.178-10.312-.089.075-.09-.075-12.5,10.586-.323-.273-12.177-10.312-.088.074-.09-.075-12.5,10.587-.323-.273-12.177-10.312-.088.073-.09-.075-12.5,10.586-.323-.273-12.179-10.31-.086.072-.089-.074-12.5,10.585-.323-.274-12.175-10.31-.087.073-.091-.075-12.5,10.587-.323-.273-12.175-10.311-12.591,10.662-.323-.273-12.267-10.389-12.591,10.662-.323-.273-12.267-10.389-12.59,10.662-.323-.273-12.268-10.389-12.586,10.662-.323-.273-12.267-10.389-12.591,10.662-.323-.273-12.267-10.389-12.59,10.662-.323-.273-12.267-10.389-12.59,10.662-.323-.273-12.267-10.389-12.59,10.662-.323-.273-12.267-10.389-12.59,10.662-.323-.273-12.267-10.389-12.587,10.662-.323-.273-12.267-10.389-12.59,10.662-.323-.273-12.267-10.389-12.59,10.662-.323-.273-12.267-10.389-12.59,10.662-.323-.273-12.267-10.389-12.59,10.662-.323-.273-12.267-10.389-12.591,10.662-.323-.273-12.267-10.389-12.59,10.662-.323-.273-12.267-10.389-12.587,10.662-.323-.273-12.267-10.389-12.59,10.662-.323-.273-12.267-10.389-12.591,10.662-.323-.273-12.267-10.389-12.59,10.662-.323-.273L7469,15928.657l-12.59,10.662-.323-.273-12.267-10.389-12.587,10.662-.323-.273-12.271-10.389-12.59,10.662-.323-.273-12.264-10.389-12.59,10.662-.323-.273-12.267-10.389-12.59,10.662-.323-.273-12.267-10.389-12.59,10.662-.323-.273-12.268-10.389-12.59,10.662-.323-.273-12.267-10.389-12.59,10.662-.323-.273-12.267-10.389-12.587,10.662-.323-.273-12.267-10.389-12.59,10.662-.323-.273-12.268-10.389-12.59,10.662-.323-.273-12.267-10.389-12.59,10.662-.323-.273-12.268-10.389-12.59,10.662-.323-.273-12.267-10.389-12.587,10.662-.323-.273-12.271-10.389-12.587,10.662-.323-.273-12.268-10.389-12.59,10.662-.323-.273-12.267-10.389-12.59,10.662-.323-.273-12.268-10.389-12.59,10.662-.323-.273-12.267-10.389-12.59,10.662-.323-.273-12.267-10.389-12.587,10.662-.323-.273-12.27-10.389-12.587,10.662-.323-.273-12.268-10.389-12.59,10.662-.323-.273-12.267-10.389-12.59,10.662-.323-.273-12.267-10.389-12.59,10.662-.323-.273-12.264-10.389-12.594,10.662-.323-.273-12.267-10.389-12.59,10.662-.323-.273-12.267-10.389-12.587,10.662-.323-.273-12.267-10.389-12.59,10.662-.323-.273-12.268-10.389-12.59,10.662-.323-.273-12.267-10.389-12.59,10.662-.323-.273-12.264-10.389-12.1,10.245v175.8l12.1,10.248,12.59-10.666.323.273,12.267,10.393,12.59-10.666.323.273,12.267,10.393,12.591-10.666.323.273,12.267,10.393,12.59-10.666.323.273,12.264,10.393,12.593-10.666.323.273,12.264,10.393,12.59-10.666.323.273,12.267,10.393,12.59-10.666.323.273,12.267,10.393,12.59-10.666.323.273,12.267,10.393,12.59-10.666.323.273,12.267,10.393,12.591-10.666.323.273,12.264,10.393,12.593-10.666.323.273,12.264,10.393,12.59-10.666.323.273,12.267,10.393,12.59-10.666.323.273,12.267,10.393,12.591-10.666.323.273,12.267,10.393,12.59-10.666.323.273,12.267,10.393,12.59-10.666.323.273,12.264,10.393,12.594-10.666.323.273,12.264,10.393,12.594-10.666.323.273,12.264,10.393,12.59-10.666.323.273,12.267,10.393,12.59-10.666.323.273,12.267,10.393,12.591-10.666.323.273,12.267,10.393,12.59-10.666.323.273,12.264,10.393,12.593-10.666.323.273,12.264,10.393,12.594-10.666.323.273,12.263,10.393,12.591-10.666.323.273,12.267,10.393,12.59-10.666.323.273,12.267,10.393,12.59-10.666.323.273,12.267,10.393,12.59-10.666.323.273,12.264,10.393,12.593-10.666.323.273,12.264,10.393,12.59-10.666.323.273,12.267,10.393,12.59-10.663.323.274,12.267,10.389,12.59-10.663.323.274,12.268,10.389,12.59-10.663.323.274,12.267,10.389,12.59-10.663.323.274,12.267,10.389,12.59-10.666.323.273,12.264,10.393,12.59-10.666.323.273,12.268,10.393,12.59-10.663.323.274,12.267,10.389,12.59-10.663.323.274,12.267,10.389,12.59-10.663.323.274,12.267,10.389,12.59-10.663.323.274,12.267,10.389,12.59-10.666.323.273,12.264,10.393,12.59-10.666.323.273,12.267,10.393,12.59-10.666.323.273,12.267,10.393,12.59-10.666.323.273,12.267,10.393,12.59-10.666.323.273,12.267,10.393,12.59-10.663.323.274,12.264,10.389,12.594-10.666.323.273,12.263,10.393,12.594-10.666.323.273,12.264,10.393,12.59-10.666.323.273,12.268,10.393,12.59-10.666.323.273,12.268,10.393,12.5-10.588.323.273,12.174,10.314.092-.078.092.078,12.5-10.587.323.273,12.171,10.313.093-.078.09.077,12.5-10.587.323.273,12.175,10.315.092-.078.09.076,12.5-10.587.323.273,12.177,10.314.092-.078.09.077,12.5-10.587.323.273,12.176,10.313.092-.078.091.078,12.5-10.587.323.273,12.173,10.314.092-.077.092.078,12.5-10.589.323.273,12.176,10.314.091-.077.091.077,12.5-10.586.323.274,12.172,10.312Z" transform="matrix(0.996, -0.087, 0.087, 0.996, -9853.452, -3862.342)" fill="rgba(0,0,0,0)"/><g transform="translate(8641.482 15230.464)"><g transform="translate(270.279 -160)"><g transform="translate(-8873.157 -3793.047)"><path d="M9.67,4.885H4.91v8.549H0V0H9.67ZM8.225,3.439V1.446H1.446V12.013H3.489V3.439ZM32.151,1.894Q31.6,19.341,15.976,21.933V18.518q5.907-1.321,8.873-4.96,3.29-4.038,3.564-11.664Zm-12.91,9.895H15.353a77.808,77.808,0,0,0-3.539-9.795h3.838A85.3,85.3,0,0,1,19.241,11.789ZM54.259,6.256H37.286V2.816H54.259Zm2.118,14.63H35.342V17.447H56.377ZM71.83,13.16H68.39a66.191,66.191,0,0,0-1.844-8.7h3.265A61.661,61.661,0,0,1,71.83,13.16Zm6.58-8.2q0,7.876-3.664,12.088-3.439,3.988-10.418,5.059V18.892q5.807-1.2,8.25-4.636,2.243-3.165,2.243-9.321V4.586H78.41ZM65.7,13.359H62.284a57.844,57.844,0,0,0-1.969-8.7H63.58A61.2,61.2,0,0,1,65.7,13.359ZM99.769,15.3q-4.411,5.882-13.658,6.6V18.643Q98.4,17.272,99.57,5.234h-9.3a13.6,13.6,0,0,1-3.041,4.611,12.309,12.309,0,0,1-4.586,2.991V9.2a11.209,11.209,0,0,0,4.91-7.253h15.9Q103.458,10.368,99.769,15.3Zm27.665,6.779a15.867,15.867,0,0,1-8.474-7.3A22.5,22.5,0,0,1,106.9,21.833V18.394a19.528,19.528,0,0,0,7.976-4.511,17.691,17.691,0,0,0,5.234-8.5H108.094V2.019h16.4a22.044,22.044,0,0,1-3.14,9.571,13.645,13.645,0,0,0,6.081,6.7Zm23.328-9.895H130.375V8.773h20.387Zm25.322-9.546a2.517,2.517,0,0,1-.773,1.844,2.588,2.588,0,0,1-3.689,0,2.518,2.518,0,0,1-.773-1.844A2.518,2.518,0,0,1,171.624.8a2.588,2.588,0,0,1,3.689,0A2.517,2.517,0,0,1,176.085,2.642Zm-1.371,19.465q-8.349-4.461-8.349-19.017V1.57h3.689v1.6q0,10.418,4.661,14.929ZM162.028,3.066q0,14.605-8.349,19.067V18.119q4.686-4.536,4.686-14.979V1.57h3.664Zm12.611-.424a1.125,1.125,0,0,0-.349-.822,1.125,1.125,0,0,0-.822-.349,1.085,1.085,0,0,0-.81.349,1.173,1.173,0,0,0,0,1.645,1.085,1.085,0,0,0,.81.349,1.125,1.125,0,0,0,.822-.349A1.125,1.125,0,0,0,174.64,2.642Zm23.478,9.546H177.73V8.773h20.387Zm24.026,9.895a15.867,15.867,0,0,1-8.474-7.3,22.5,22.5,0,0,1-12.063,7.053V18.394a19.527,19.527,0,0,0,7.976-4.511,17.69,17.69,0,0,0,5.234-8.5H202.8V2.019h16.4a22.043,22.043,0,0,1-3.14,9.571,13.645,13.645,0,0,0,6.081,6.7ZM245.522,1.745a22.969,22.969,0,0,1-3.016,12.262q-4.237,6.854-15,7.951v-3.29q7.627-1.022,11.066-5.383a76.98,76.98,0,0,0-9.5-1.6V9.072a13.943,13.943,0,0,1-4.486,3.115V8.524a10.383,10.383,0,0,0,2.929-2.791A14.947,14.947,0,0,0,229.6,1.745Zm-3.938,3.29h-9.6A16.551,16.551,0,0,1,229.6,8.5a85.168,85.168,0,0,1,10.717,1.794A18.922,18.922,0,0,0,241.584,5.035Zm27.565,7.153H248.762V8.773H269.15Zm25.3-8.424h-2.019V.075h2.019ZM293,22.082a15.739,15.739,0,0,1-8.449-7.3,22.5,22.5,0,0,1-12.063,7.053V18.394a19.527,19.527,0,0,0,7.976-4.511,17.691,17.691,0,0,0,5.234-8.5H273.661V2.019h15.752V.075h2.044V3.763h-1.62a21.939,21.939,0,0,1-2.916,7.826,13.645,13.645,0,0,0,6.081,6.7Zm11.814.947h-9.67v-4.91h4.76V9.571h4.91Zm-1.446-1.446V11.016h-2.019V19.59h-4.76v1.994ZM325.2,8.648l1.994-.8q.9,1.77,1.944,4.287V6.081h4.237V5.01h-5.01V4.586Q327.247,6.106,325.2,8.648Zm-1.72,2.143q.922-.075,2.268-.274-.349-.8-.748-1.6Q324.829,9.122,323.483,10.792Zm1.969,12.063h-2.966v-9.3q-1.819.174-3.589.274l-.424-2.816,1.5-.025,1.62-1.944q-1.5-1.745-3.19-3.39l1.62-2.841.922,1q1.122-1.745,2.193-3.788l2.642,1.221q-1.446,2.343-3.066,4.561.249.3.723.872,1.421-1.919,2.767-4.038l2.168,1.1V2.193h5.01V.5h3.041V2.193H341.6V5.01h-5.184V6.081h4.411v8.673h-3.365a23.2,23.2,0,0,0,4.511,4.91l-2.019,2.193a23.316,23.316,0,0,1-3.589-4.187v5.084h-2.941V17.87a23.75,23.75,0,0,1-3.489,4.063l-1.77-1.919-1.346.523a51.941,51.941,0,0,1-1-5.982l2.218-.623a41.96,41.96,0,0,0,.922,4.885,22.321,22.321,0,0,0,3.464-4.063h-3.29V13.11l-2.069.773q-.1-.3-.324-.9-.125.025-1.3.2ZM338.163,9.346V8.324h-1.919V9.346Zm0,3.14V11.44h-1.919v1.047Zm-4.586-3.14V8.324h-1.794V9.346Zm0,3.14V11.44h-1.794v1.047ZM322.112,14.73a38.344,38.344,0,0,1-1.346,6.68l-2.418-1.446a25.969,25.969,0,0,0,1.346-5.732Zm35.466-5.159q-1.371.523-2.767,1l-.872-2.492a34.494,34.494,0,0,0,3.564-1.1,18.264,18.264,0,0,0-3.19-1.919l1.446-1.371h-1.894V1.072h10.293V9.047a2.753,2.753,0,0,1-.474,1.869,3.272,3.272,0,0,1-2.268.573h-3.29Zm2.916-1.2q-.773.374-1.794.773H360q.872,0,.972-.449a2.042,2.042,0,0,0,.05-.523V3.689H357.18a27.167,27.167,0,0,1,2.492,1.421l-1.894,1.77q1.321-.5,2.368-.972Zm-10.917.075q-.748.324-1.67.7h1.171q.8,0,.947-.4a2.511,2.511,0,0,0,.05-.573V3.689h-3.838a20.956,20.956,0,0,1,2.542,1.446l-1.869,1.72q1.122-.4,2.318-.9Zm9.571,7.253V14.58H348.257V15.7Zm0,3.415V17.945H348.257v1.171Zm-4.013-8a9.979,9.979,0,0,1-.449,1.072h7.876V22.73h-3.414v-.972H348.257v.972h-3.415V12.188H351q.174-.4.324-.748a7.9,7.9,0,0,1-.872.05h-3.24l-.548-1.869q-1.57.573-3.041,1.1L342.7,8.1q1.819-.449,3.863-1.146A17.14,17.14,0,0,0,343.4,5.059l1.421-1.371H342.8V1.072h10.418V9.2a2.468,2.468,0,0,1-.449,1.695Zm17.746-4.262H381.7a33.906,33.906,0,0,1-4.486-3.763A35.248,35.248,0,0,1,372.882,6.854ZM383.35,9.77H371.212V8.025a34.818,34.818,0,0,1-3.813,2.193L365.18,7.7A29.366,29.366,0,0,0,375.4.4h3.639a30.48,30.48,0,0,0,10.518,7.128l-2.193,2.617a31.318,31.318,0,0,1-4.013-2.193Zm-.174,11.166a143.247,143.247,0,0,1-15.228,1.67l-1.072-3.19q1.869-.05,3.564-.125,1.57-2.517,2.717-4.81h-6.505V11.465H388.06v3.016H376.82q-.947,1.869-2.542,4.586,3.215-.224,6.829-.623-1.246-1.421-2.318-2.517l3.041-1.122a66.124,66.124,0,0,1,5.907,6.555l-3.24,1.346Q383.748,21.659,383.175,20.936Zm30.257-1.52q-1.57,3.34-3.315,3.34-2.094,0-2.941-3.963a46.426,46.426,0,0,1-.673-9.172V3.938H394.839v6.405A29.951,29.951,0,0,1,392.472,23l-3.215-1.5a19.829,19.829,0,0,0,2.069-6.056,41.285,41.285,0,0,0,.449-6.854V.972h17.845v9a58.511,58.511,0,0,0,.274,6.106q.274,2.443.6,2.443.174,0,.723-1.221a13.62,13.62,0,0,0,.7-1.794Zm-8.923,1.446a56.329,56.329,0,0,1-9.072,1.5l-1.047-3.14q2.318-.075,4.91-.374V15.851h-3.439v-7.4H399.3v-1.1q-1.5.125-2.742.174l-1.246-2.393a37.045,37.045,0,0,0,8.9-1.122l1.67,2.343q-1.6.374-3.689.673V8.449h3.315v7.4h-3.29v2.592l1.4-.274q-.224-.573-.5-1.2l2.143-.7a27.825,27.825,0,0,1,2.293,5.309l-2.592.972Q404.784,21.783,404.51,20.861Zm-1.321-7.5V10.941h-1.147v2.418Zm-3.714,0V10.941H398.3v2.418Zm36.413-2.293H413.557V8.524h9.321V7.7H415.4V.723h18.568V7.7h-7.552v.822h9.471Zm-5.209-7.6V2.692H418.691v.773Zm0,2.443V5.134H418.691v.773ZM420.012,19.939a27.53,27.53,0,0,1-4.461,2.318l-2.418-2.293a24.8,24.8,0,0,0,5.757-2.717H415.85V11.864H433.5v5.383H430.53a25.937,25.937,0,0,0,5.932,2.667l-2.517,2.418a24.127,24.127,0,0,1-6.38-3.589l2.094-1.5h-3.24v2.891a2.917,2.917,0,0,1-.5,2.069,4.636,4.636,0,0,1-2.692.5h-2.268Zm1.67-1.2a17.2,17.2,0,0,1-1.52,1.1h1.944q.673,0,.8-.3a1.524,1.524,0,0,0,.1-.673v-1.62h-3.34Zm8.549-3.664V13.957H419.165v1.122Zm28.637-1.969a10.054,10.054,0,0,1-2.343,6.206,8.948,8.948,0,0,1-7.078,2.791,8.021,8.021,0,0,1-5.234-1.52,6.015,6.015,0,0,1-1.994-5.209q.025-.8.1-3.066h-4.137V9.222h4.237l.075-2.393h-4.312V3.714h4.411l.1-2.791h3.489l-.125,2.791H457.5V6.829H445.933l-.1,2.393H457.5v3.091H445.733q-.075,2.343-.075,3.091.025,3.464,3.963,3.464,5.084,0,5.782-5.757ZM477.735,15.8a9.085,9.085,0,0,1-2.717,4.362,8.166,8.166,0,0,1-5.209,1.52,7.817,7.817,0,0,1-6.356-2.654q-2.218-2.654-2.218-7.49a10.948,10.948,0,0,1,2.355-7.365,7.863,7.863,0,0,1,6.293-2.754,8.078,8.078,0,0,1,5.01,1.421,8.208,8.208,0,0,1,2.642,4.112L474.022,8.2a5.466,5.466,0,0,0-1.558-2.7,3.93,3.93,0,0,0-2.58-.81,4.14,4.14,0,0,0-3.415,1.6,8.272,8.272,0,0,0-1.421,5.259,8.541,8.541,0,0,0,1.371,5.284,4.106,4.106,0,0,0,3.439,1.57,4.009,4.009,0,0,0,2.654-.822,5.753,5.753,0,0,0,1.583-2.816Zm17.77,5.633h-3.763V12.686h-7.976v8.748h-3.788V1.645h3.788V9.3h7.976V1.645h3.763Zm17.272,0H499V1.645h13.783v3.34h-9.994V9.471h8.8v3.365h-8.8V18.07h9.994ZM531.246,15.8a9.085,9.085,0,0,1-2.717,4.362,8.166,8.166,0,0,1-5.209,1.52,7.817,7.817,0,0,1-6.356-2.654q-2.218-2.654-2.218-7.49A10.948,10.948,0,0,1,517.1,4.175,7.863,7.863,0,0,1,523.4,1.421a8.078,8.078,0,0,1,5.01,1.421,8.208,8.208,0,0,1,2.642,4.112L527.533,8.2a5.466,5.466,0,0,0-1.558-2.7,3.93,3.93,0,0,0-2.58-.81,4.14,4.14,0,0,0-3.414,1.6,8.272,8.272,0,0,0-1.421,5.259,8.541,8.541,0,0,0,1.371,5.284,4.106,4.106,0,0,0,3.439,1.57,4.009,4.009,0,0,0,2.654-.822,5.753,5.753,0,0,0,1.583-2.816Zm6.031,5.633h-3.788V1.645h3.788v9.022L545.6,1.645h4.81l-7.876,8.3,7.926,11.49h-4.611l-5.832-8.823L537.278,15.5Zm31-19.989L562.077,16.3h-3.34l5.284-14.854ZM561.9,17.8l-1.47,3.913h-4.088l1.5-3.913Z" transform="matrix(0.996, -0.087, 0.087, 0.996, 58.59, 88.528)" fill="#ea91bb"/><path d="M9.67,4.885H4.91v8.549H0V0H9.67ZM8.225,3.439V1.446H1.446V12.013H3.489V3.439ZM32.151,1.894Q31.6,19.341,15.976,21.933V18.518q5.907-1.321,8.873-4.96,3.29-4.038,3.564-11.664Zm-12.91,9.895H15.353a77.808,77.808,0,0,0-3.539-9.795h3.838A85.3,85.3,0,0,1,19.241,11.789ZM54.259,6.256H37.286V2.816H54.259Zm2.118,14.63H35.342V17.447H56.377ZM71.83,13.16H68.39a66.191,66.191,0,0,0-1.844-8.7h3.265A61.661,61.661,0,0,1,71.83,13.16Zm6.58-8.2q0,7.876-3.664,12.088-3.439,3.988-10.418,5.059V18.892q5.807-1.2,8.25-4.636,2.243-3.165,2.243-9.321V4.586H78.41ZM65.7,13.359H62.284a57.844,57.844,0,0,0-1.969-8.7H63.58A61.2,61.2,0,0,1,65.7,13.359ZM99.769,15.3q-4.411,5.882-13.658,6.6V18.643Q98.4,17.272,99.57,5.234h-9.3a13.6,13.6,0,0,1-3.041,4.611,12.309,12.309,0,0,1-4.586,2.991V9.2a11.209,11.209,0,0,0,4.91-7.253h15.9Q103.458,10.368,99.769,15.3Zm27.665,6.779a15.867,15.867,0,0,1-8.474-7.3A22.5,22.5,0,0,1,106.9,21.833V18.394a19.528,19.528,0,0,0,7.976-4.511,17.691,17.691,0,0,0,5.234-8.5H108.094V2.019h16.4a22.044,22.044,0,0,1-3.14,9.571,13.645,13.645,0,0,0,6.081,6.7Zm23.328-9.895H130.375V8.773h20.387Zm25.322-9.546a2.517,2.517,0,0,1-.773,1.844,2.588,2.588,0,0,1-3.689,0,2.518,2.518,0,0,1-.773-1.844A2.518,2.518,0,0,1,171.624.8a2.588,2.588,0,0,1,3.689,0A2.517,2.517,0,0,1,176.085,2.642Zm-1.371,19.465q-8.349-4.461-8.349-19.017V1.57h3.689v1.6q0,10.418,4.661,14.929ZM162.028,3.066q0,14.605-8.349,19.067V18.119q4.686-4.536,4.686-14.979V1.57h3.664Zm12.611-.424a1.125,1.125,0,0,0-.349-.822,1.125,1.125,0,0,0-.822-.349,1.085,1.085,0,0,0-.81.349,1.173,1.173,0,0,0,0,1.645,1.085,1.085,0,0,0,.81.349,1.125,1.125,0,0,0,.822-.349A1.125,1.125,0,0,0,174.64,2.642Zm23.478,9.546H177.73V8.773h20.387Zm24.026,9.895a15.867,15.867,0,0,1-8.474-7.3,22.5,22.5,0,0,1-12.063,7.053V18.394a19.527,19.527,0,0,0,7.976-4.511,17.69,17.69,0,0,0,5.234-8.5H202.8V2.019h16.4a22.043,22.043,0,0,1-3.14,9.571,13.645,13.645,0,0,0,6.081,6.7ZM245.522,1.745a22.969,22.969,0,0,1-3.016,12.262q-4.237,6.854-15,7.951v-3.29q7.627-1.022,11.066-5.383a76.98,76.98,0,0,0-9.5-1.6V9.072a13.943,13.943,0,0,1-4.486,3.115V8.524a10.383,10.383,0,0,0,2.929-2.791A14.947,14.947,0,0,0,229.6,1.745Zm-3.938,3.29h-9.6A16.551,16.551,0,0,1,229.6,8.5a85.168,85.168,0,0,1,10.717,1.794A18.922,18.922,0,0,0,241.584,5.035Zm27.565,7.153H248.762V8.773H269.15Zm25.3-8.424h-2.019V.075h2.019ZM293,22.082a15.739,15.739,0,0,1-8.449-7.3,22.5,22.5,0,0,1-12.063,7.053V18.394a19.527,19.527,0,0,0,7.976-4.511,17.691,17.691,0,0,0,5.234-8.5H273.661V2.019h15.752V.075h2.044V3.763h-1.62a21.939,21.939,0,0,1-2.916,7.826,13.645,13.645,0,0,0,6.081,6.7Zm11.814.947h-9.67v-4.91h4.76V9.571h4.91Zm-1.446-1.446V11.016h-2.019V19.59h-4.76v1.994ZM325.2,8.648l1.994-.8q.9,1.77,1.944,4.287V6.081h4.237V5.01h-5.01V4.586Q327.247,6.106,325.2,8.648Zm-1.72,2.143q.922-.075,2.268-.274-.349-.8-.748-1.6Q324.829,9.122,323.483,10.792Zm1.969,12.063h-2.966v-9.3q-1.819.174-3.589.274l-.424-2.816,1.5-.025,1.62-1.944q-1.5-1.745-3.19-3.39l1.62-2.841.922,1q1.122-1.745,2.193-3.788l2.642,1.221q-1.446,2.343-3.066,4.561.249.3.723.872,1.421-1.919,2.767-4.038l2.168,1.1V2.193h5.01V.5h3.041V2.193H341.6V5.01h-5.184V6.081h4.411v8.673h-3.365a23.2,23.2,0,0,0,4.511,4.91l-2.019,2.193a23.316,23.316,0,0,1-3.589-4.187v5.084h-2.941V17.87a23.75,23.75,0,0,1-3.489,4.063l-1.77-1.919-1.346.523a51.941,51.941,0,0,1-1-5.982l2.218-.623a41.96,41.96,0,0,0,.922,4.885,22.321,22.321,0,0,0,3.464-4.063h-3.29V13.11l-2.069.773q-.1-.3-.324-.9-.125.025-1.3.2ZM338.163,9.346V8.324h-1.919V9.346Zm0,3.14V11.44h-1.919v1.047Zm-4.586-3.14V8.324h-1.794V9.346Zm0,3.14V11.44h-1.794v1.047ZM322.112,14.73a38.344,38.344,0,0,1-1.346,6.68l-2.418-1.446a25.969,25.969,0,0,0,1.346-5.732Zm35.466-5.159q-1.371.523-2.767,1l-.872-2.492a34.494,34.494,0,0,0,3.564-1.1,18.264,18.264,0,0,0-3.19-1.919l1.446-1.371h-1.894V1.072h10.293V9.047a2.753,2.753,0,0,1-.474,1.869,3.272,3.272,0,0,1-2.268.573h-3.29Zm2.916-1.2q-.773.374-1.794.773H360q.872,0,.972-.449a2.042,2.042,0,0,0,.05-.523V3.689H357.18a27.167,27.167,0,0,1,2.492,1.421l-1.894,1.77q1.321-.5,2.368-.972Zm-10.917.075q-.748.324-1.67.7h1.171q.8,0,.947-.4a2.511,2.511,0,0,0,.05-.573V3.689h-3.838a20.956,20.956,0,0,1,2.542,1.446l-1.869,1.72q1.122-.4,2.318-.9Zm9.571,7.253V14.58H348.257V15.7Zm0,3.415V17.945H348.257v1.171Zm-4.013-8a9.979,9.979,0,0,1-.449,1.072h7.876V22.73h-3.414v-.972H348.257v.972h-3.415V12.188H351q.174-.4.324-.748a7.9,7.9,0,0,1-.872.05h-3.24l-.548-1.869q-1.57.573-3.041,1.1L342.7,8.1q1.819-.449,3.863-1.146A17.14,17.14,0,0,0,343.4,5.059l1.421-1.371H342.8V1.072h10.418V9.2a2.468,2.468,0,0,1-.449,1.695Zm17.746-4.262H381.7a33.906,33.906,0,0,1-4.486-3.763A35.248,35.248,0,0,1,372.882,6.854ZM383.35,9.77H371.212V8.025a34.818,34.818,0,0,1-3.813,2.193L365.18,7.7A29.366,29.366,0,0,0,375.4.4h3.639a30.48,30.48,0,0,0,10.518,7.128l-2.193,2.617a31.318,31.318,0,0,1-4.013-2.193Zm-.174,11.166a143.247,143.247,0,0,1-15.228,1.67l-1.072-3.19q1.869-.05,3.564-.125,1.57-2.517,2.717-4.81h-6.505V11.465H388.06v3.016H376.82q-.947,1.869-2.542,4.586,3.215-.224,6.829-.623-1.246-1.421-2.318-2.517l3.041-1.122a66.124,66.124,0,0,1,5.907,6.555l-3.24,1.346Q383.748,21.659,383.175,20.936Zm30.257-1.52q-1.57,3.34-3.315,3.34-2.094,0-2.941-3.963a46.426,46.426,0,0,1-.673-9.172V3.938H394.839v6.405A29.951,29.951,0,0,1,392.472,23l-3.215-1.5a19.829,19.829,0,0,0,2.069-6.056,41.285,41.285,0,0,0,.449-6.854V.972h17.845v9a58.511,58.511,0,0,0,.274,6.106q.274,2.443.6,2.443.174,0,.723-1.221a13.62,13.62,0,0,0,.7-1.794Zm-8.923,1.446a56.329,56.329,0,0,1-9.072,1.5l-1.047-3.14q2.318-.075,4.91-.374V15.851h-3.439v-7.4H399.3v-1.1q-1.5.125-2.742.174l-1.246-2.393a37.045,37.045,0,0,0,8.9-1.122l1.67,2.343q-1.6.374-3.689.673V8.449h3.315v7.4h-3.29v2.592l1.4-.274q-.224-.573-.5-1.2l2.143-.7a27.825,27.825,0,0,1,2.293,5.309l-2.592.972Q404.784,21.783,404.51,20.861Zm-1.321-7.5V10.941h-1.147v2.418Zm-3.714,0V10.941H398.3v2.418Zm36.413-2.293H413.557V8.524h9.321V7.7H415.4V.723h18.568V7.7h-7.552v.822h9.471Zm-5.209-7.6V2.692H418.691v.773Zm0,2.443V5.134H418.691v.773ZM420.012,19.939a27.53,27.53,0,0,1-4.461,2.318l-2.418-2.293a24.8,24.8,0,0,0,5.757-2.717H415.85V11.864H433.5v5.383H430.53a25.937,25.937,0,0,0,5.932,2.667l-2.517,2.418a24.127,24.127,0,0,1-6.38-3.589l2.094-1.5h-3.24v2.891a2.917,2.917,0,0,1-.5,2.069,4.636,4.636,0,0,1-2.692.5h-2.268Zm1.67-1.2a17.2,17.2,0,0,1-1.52,1.1h1.944q.673,0,.8-.3a1.524,1.524,0,0,0,.1-.673v-1.62h-3.34Zm8.549-3.664V13.957H419.165v1.122Zm28.637-1.969a10.054,10.054,0,0,1-2.343,6.206,8.948,8.948,0,0,1-7.078,2.791,8.021,8.021,0,0,1-5.234-1.52,6.015,6.015,0,0,1-1.994-5.209q.025-.8.1-3.066h-4.137V9.222h4.237l.075-2.393h-4.312V3.714h4.411l.1-2.791h3.489l-.125,2.791H457.5V6.829H445.933l-.1,2.393H457.5v3.091H445.733q-.075,2.343-.075,3.091.025,3.464,3.963,3.464,5.084,0,5.782-5.757ZM477.735,15.8a9.085,9.085,0,0,1-2.717,4.362,8.166,8.166,0,0,1-5.209,1.52,7.817,7.817,0,0,1-6.356-2.654q-2.218-2.654-2.218-7.49a10.948,10.948,0,0,1,2.355-7.365,7.863,7.863,0,0,1,6.293-2.754,8.078,8.078,0,0,1,5.01,1.421,8.208,8.208,0,0,1,2.642,4.112L474.022,8.2a5.466,5.466,0,0,0-1.558-2.7,3.93,3.93,0,0,0-2.58-.81,4.14,4.14,0,0,0-3.415,1.6,8.272,8.272,0,0,0-1.421,5.259,8.541,8.541,0,0,0,1.371,5.284,4.106,4.106,0,0,0,3.439,1.57,4.009,4.009,0,0,0,2.654-.822,5.753,5.753,0,0,0,1.583-2.816Zm17.77,5.633h-3.763V12.686h-7.976v8.748h-3.788V1.645h3.788V9.3h7.976V1.645h3.763Zm17.272,0H499V1.645h13.783v3.34h-9.994V9.471h8.8v3.365h-8.8V18.07h9.994ZM531.246,15.8a9.085,9.085,0,0,1-2.717,4.362,8.166,8.166,0,0,1-5.209,1.52,7.817,7.817,0,0,1-6.356-2.654q-2.218-2.654-2.218-7.49A10.948,10.948,0,0,1,517.1,4.175,7.863,7.863,0,0,1,523.4,1.421a8.078,8.078,0,0,1,5.01,1.421,8.208,8.208,0,0,1,2.642,4.112L527.533,8.2a5.466,5.466,0,0,0-1.558-2.7,3.93,3.93,0,0,0-2.58-.81,4.14,4.14,0,0,0-3.414,1.6,8.272,8.272,0,0,0-1.421,5.259,8.541,8.541,0,0,0,1.371,5.284,4.106,4.106,0,0,0,3.439,1.57,4.009,4.009,0,0,0,2.654-.822,5.753,5.753,0,0,0,1.583-2.816Zm6.031,5.633h-3.788V1.645h3.788v9.022L545.6,1.645h4.81l-7.876,8.3,7.926,11.49h-4.611l-5.832-8.823L537.278,15.5Zm31-19.989L562.077,16.3h-3.34l5.284-14.854ZM561.9,17.8l-1.47,3.913h-4.088l1.5-3.913Z" transform="matrix(0.996, -0.087, 0.087, 0.996, 56.928, 87.42)" fill="#fdfdfd"/><path d="M322.912-.629,326.5,1.029l-.3.48c-.9,1.455-1.858,2.892-2.858,4.278l.066.08c.806-1.113,1.6-2.285,2.368-3.492l.243-.383,1.847.934V1.693h5.01V0h4.041V1.693H342.1V5.51h-5.184v.072h4.411v9.673h-2.9a23.19,23.19,0,0,0,3.861,4.024l.408.336-2.717,2.952-.368-.342a24.777,24.777,0,0,1-2.749-3v4.029h-3.941V19.411a25.538,25.538,0,0,1-2.647,2.886l-.368.346-1.881-2.04-1.563.608-.133-.559q-.2-.855-.384-1.824v4.526h-3.966V18.641q-.317,1.494-.741,2.912l-.184.616-3.327-1.989.146-.39a25.388,25.388,0,0,0,1.3-5.472l-.254.015-.455.026-.576-3.832,1.837-.031,1.2-1.442c-.9-1.037-1.873-2.057-2.883-3.037l-.278-.27,2.15-3.771L320.866,3c.619-1,1.232-2.071,1.825-3.2Zm2.14,2.091-1.7-.785c-.649,1.212-1.318,2.356-1.993,3.406l-.349.543-.9-.97L319.024,5.57c1.035,1.019,2.024,2.078,2.944,3.152l.275.321-2.037,2.445-1.153.019.271,1.8c1.025-.063,2.07-.146,3.115-.246l.548-.053v9.347h1.966v-9.6l.426-.064c1.009-.15,1.23-.187,1.272-.2l.417-.083.149.4c.059.158.112.3.158.426l2.267-.847v1.865h3.721l-.515.776a22.921,22.921,0,0,1-3.542,4.153l-.616.57-.208-.813a41.728,41.728,0,0,1-.855-4.372l-1.255.352c.224,1.855.5,3.512.809,4.94l1.124-.437,1.655,1.8a23.019,23.019,0,0,0,3.052-3.628l.915-1.365v6.028h1.941V16.012l.917,1.383a22.672,22.672,0,0,0,3.148,3.752l1.321-1.435a23.624,23.624,0,0,1-4.2-4.676l-.527-.78h3.806V6.581h-4.411V4.51H341.1V2.693h-5.184V1h-2.041V2.693h-5.01V4.51h5.01V6.581h-4.237v5.556l-.962.192c-.611-1.47-1.19-2.76-1.724-3.844l-1.344.538c.21.431.41.864.6,1.294l.262.6-.647.1c-.9.134-1.678.227-2.3.278l-1.16.094.73-.906.533-.661-.008,0,1.194-1.485c1.352-1.682,2.413-3.043,3.153-4.046l.1-.141-1.692-.856c-.824,1.28-1.678,2.518-2.542,3.685l-.38.514L323.048,7q-.473-.572-.721-.871l-.25-.3.23-.315C323.263,4.2,324.186,2.842,325.052,1.462Zm7.825,4.047H328.3q-.65.858-1.53,1.973l.664-.265.207.408c.317.626.651,1.326,1,2.1V5.581h4.237Zm-7.855,4.607q-.063-.137-.128-.274l-.264.326Zm1.506,3.723q-.046-.13-.106-.295l-.47.071V14Zm2.112.751v-.76l-.1.038Q328.588,14.232,328.641,14.59Zm-7.079.537-1.444-.3a26.585,26.585,0,0,1-1.158,4.917l1.507.9A38.18,38.18,0,0,0,321.562,15.127Zm9.913.128h-2.731c.146.9.315,1.773.5,2.6A21.947,21.947,0,0,0,331.474,15.255ZM-.5-.5H10.17V5.385H5.41v8.549H-.5ZM9.17.5H.5V12.934H4.41V4.385H9.17Zm164.3-.975a3.012,3.012,0,0,1,2.2.919,3.012,3.012,0,0,1,.919,2.2,3.012,3.012,0,0,1-.919,2.2,3.088,3.088,0,0,1-4.4,0,3.12,3.12,0,0,1-.713-1.07,29.1,29.1,0,0,0,1.138,8.187,13.489,13.489,0,0,0,3.366,5.778l.152.147v5.059l-.736-.393a14.532,14.532,0,0,1-6.484-7.225,30.683,30.683,0,0,1-2.13-12.233V1.07h4.689v.454a3.115,3.115,0,0,1,.717-1.08A3.012,3.012,0,0,1,173.468-.475Zm0,5.234a2.019,2.019,0,0,0,1.491-.626,2.018,2.018,0,0,0,.626-1.491,2.018,2.018,0,0,0-.626-1.491,2.088,2.088,0,0,0-2.982,0,2.019,2.019,0,0,0-.626,1.491,2.019,2.019,0,0,0,.626,1.491A2.019,2.019,0,0,0,173.468,4.759ZM169.554,2.07h-2.689v1.02a29.712,29.712,0,0,0,2.045,11.831,13.712,13.712,0,0,0,5.3,6.32V18.3a14.593,14.593,0,0,1-3.473-6.048,30.838,30.838,0,0,1-1.188-9.09Zm119.359-2.5h6.035V4.263h-4.693a22.512,22.512,0,0,1-2.775,7.368,13.288,13.288,0,0,0,5.774,6.231l.249.145V22.8l-.671-.244a16.166,16.166,0,0,1-8.366-6.94A23.068,23.068,0,0,1,272.6,22.321l-.61.138V18.016l.363-.1a19.121,19.121,0,0,0,7.774-4.4,17.346,17.346,0,0,0,4.907-7.631H273.161V1.519h15.752Zm2.044,1h-1.044V2.519H274.161V4.883h12.191l-.171.631A18.261,18.261,0,0,1,280.8,14.25a20.134,20.134,0,0,1-7.815,4.518V21.2a22.5,22.5,0,0,0,5.852-2.371,22.4,22.4,0,0,0,5.339-4.383l.463-.515.343.6a16.563,16.563,0,0,0,3.525,4.362,14.768,14.768,0,0,0,3.99,2.457V18.579a14.1,14.1,0,0,1-6.045-6.8l-.094-.233.131-.215a21.543,21.543,0,0,0,2.85-7.649l.071-.416h1.542Zm2.991,0h-1.019V3.263h1.019ZM375.174-.1h4.081l.148.158a30.125,30.125,0,0,0,10.348,7.01l.622.264-2.87,3.425-.345-.155a30.768,30.768,0,0,1-3.308-1.75v1.42H370.712V8.942c-1,.627-2.04,1.206-3.092,1.725l-.343.17-2.618-2.971V9.047a3.156,3.156,0,0,1-.611,2.214l-.009.009a2.2,2.2,0,0,1-.975.531V23.23h-4.414v-.972h-9.892v.972h-4.414V11.688h2.4l-.415-1.415c-.868.316-1.722.623-2.543.915l-.472.168-1.272-3.61.535-.132c.915-.226,1.885-.5,2.893-.827a18.293,18.293,0,0,0-2.289-1.277l-.654-.309,1.05-1.013H342.3V.572h22.359V7.387l.318-.142A29.006,29.006,0,0,0,375.025.067Zm3.649,1h-3.2A29.813,29.813,0,0,1,366,7.876L367.519,9.6a34.529,34.529,0,0,0,3.417-1.991l.776-.514h0l.873-.643a34.914,34.914,0,0,0,4.275-3.71l.356-.365.358.363a33.574,33.574,0,0,0,4.42,3.707l.855.608V7.038l.769.491a31.586,31.586,0,0,0,3.605,2l1.518-1.812A30.914,30.914,0,0,1,378.823.9Zm-26.106.673H343.3V3.189h2.757l-1.8,1.737A17.23,17.23,0,0,1,346.663,6.4l1.3-1.2c-.558-.345-1.211-.7-1.95-1.065l.221-.949h4.338V8.175a2.949,2.949,0,0,1-.065.694l-.007.028-.01.027c-.18.48-.656.723-1.415.723h-1.171l-.188-.963c.47-.191.909-.373,1.31-.543l-.207-1.477c-.6.239-1.18.461-1.744.662l-.01-.016-.345.118c-1.172.4-2.3.744-3.371,1.023l.574,1.628c.832-.3,1.692-.608,2.564-.927l.5-.183.593,2.022h2.866a7.435,7.435,0,0,0,.817-.047l.853-.095h0l.285-.3c.116-.123.312-.462.312-1.351Zm10.941,0h-9.293V3.189h2.648l-1.835,1.74A18.865,18.865,0,0,1,357.56,6.4l1.3-1.211c-.57-.346-1.207-.7-1.9-1.053l.227-.946h4.338V8.175a2.492,2.492,0,0,1-.065.648c-.091.38-.418.824-1.456.824h-1.3l-.182-.966c.525-.205,1-.407,1.43-.6l-.2-1.449q-.571.244-1.211.495l.01.007-.569.207-.019.007h0l-.279.1c-1.052.384-2.087.711-3.083.976l.528,1.509c.764-.265,1.529-.543,2.28-.83l.509-.194.595,2.081h2.913c1.281,0,1.746-.262,1.91-.422.126-.136.332-.513.332-1.521Zm16.529,4.782A33.386,33.386,0,0,1,377.221,3.8a35.6,35.6,0,0,1-2.867,2.556ZM349.577,4.189h-1.353q.454.27.839.533l.514.351Zm4.929,0h-.788v.748Zm6.013,0h-1.382q.427.253.809.5l.535.348-.349.326.387-.175Zm-4.093,2.638A17.858,17.858,0,0,0,354.1,5.512l-.384-.181V7.615l.1-.025C354.661,7.383,355.534,7.127,356.425,6.827Zm26.424.527H371.712V9.27H382.85Zm-28.58,3.178-.553-1.579V9.2a4.369,4.369,0,0,1-.159,1.267Zm3.394,1.156-.416-1.457c-.48.18-.965.355-1.45.526l-.19.529q-.075.21-.152.4Zm-3.234-.136-2.509-.238-.139.323q-.15.35-.326.751l-.131.3h-5.983V22.23h2.414v-.972h11.892v.972h2.414V12.688h-8.185l.362-.724Q354.334,11.776,354.43,11.551ZM414.9.223h19.568v7.8h1.919v3.542H434v6.181h-1.567a28.708,28.708,0,0,0,4.186,1.691l.8.256-3.351,3.219-.3-.115a24.737,24.737,0,0,1-6.512-3.664l-.335-.267v1.272a3.225,3.225,0,0,1-.664,2.44l-.006.006c-.488.424-1.447.621-3.02.621H420.6l-.858-2.507a28.562,28.562,0,0,1-4,2.021l-.3.124-2.165-2.053c-.974,1.658-2.012,2.466-3.16,2.466a2.658,2.658,0,0,1-2.231-1.264l-3.29,1.234-.126-.559c-.084-.373-.188-.778-.309-1.209a56.053,56.053,0,0,1-8.69,1.4l-.386.027-.964-2.891a22.286,22.286,0,0,1-1.2,3.225l-.211.453-4.146-1.928.247-.465a19.423,19.423,0,0,0,2.017-5.9,41.014,41.014,0,0,0,.442-6.772V.472h18.845v9.5a58.309,58.309,0,0,0,.271,6.053c.073.654.143,1.11.2,1.427.049-.1.1-.221.165-.358a13.239,13.239,0,0,0,.673-1.727l.409-1.429,2.033,5.234a26.344,26.344,0,0,0,3.2-1.423H415.35V11.566h-2.293V8.024H414.9Zm18.568,1H415.9V7.2h7.477V9.024h-9.321v1.542h21.332V9.024h-9.471V7.2h7.552Zm-24.35.249H392.274V8.6a41.953,41.953,0,0,1-.456,6.941,20.317,20.317,0,0,1-1.878,5.736l2.284,1.062a30.237,30.237,0,0,0,2.116-11.994V3.438h10.026l.04-.013.009.013H407V9.62a46.2,46.2,0,0,0,.661,9.066c.507,2.369,1.332,3.569,2.452,3.569.8,0,1.606-.731,2.413-2.174l-.342-.324.625-.213.074-.149-.962-2.476q-.117.278-.257.585c-.54,1.2-.782,1.514-1.178,1.514-.554,0-.718-.67-.8-.992a15.99,15.99,0,0,1-.3-1.895,59.281,59.281,0,0,1-.277-6.162ZM398.574,4.438h-3.235v.195Q397.1,4.561,398.574,4.438Zm7.43,0h-.876L406,5.667Zm-.969,1.593L404.012,4.6a37.83,37.83,0,0,1-7.893,1l.737,1.415c.737-.034,1.544-.088,2.4-.159l.542-.045v2.14h-3.439v6.4H399.8v3.936l-.443.051c-1.487.172-2.924.289-4.282.351l.713,2.139a57.329,57.329,0,0,0,8.6-1.454l.461-.11.135.454c.122.41.23.8.323,1.17l1.612-.6a27.525,27.525,0,0,0-1.9-4.407l-1.233.4c.1.242.2.479.288.708l.218.558-.588.115-1.393.274-.6.12v-3.7h3.29v-6.4h-3.315V6.595l.429-.061C403.187,6.381,404.164,6.213,405.035,6.031Zm-8.82,1.919-.876-1.682v4.076a36.612,36.612,0,0,1-.883,8.37c1.368-.046,2.827-.153,4.345-.319V16.351h-3.439v-8.4Zm9.788,0V6.84l-.009,0c-.962.225-2.071.433-3.3.618v.489Zm.423,9.464a54.729,54.729,0,0,1-.42-6.991v5.929h-.132Q406.158,16.861,406.427,17.413ZM433,12.364H416.35v4.384H423.5v2.12a1.949,1.949,0,0,1-.15.893c-.176.384-.595.579-1.247.579h-1.428l.639,1.866h1.911c1.729,0,2.226-.259,2.361-.373.082-.076.33-.415.33-1.694V16.747H433Zm-29.588,3.988h-.691v.225Zm-.486,1.443q-.1-.238-.205-.482v.523Zm32.6,2.331a25.528,25.528,0,0,1-5.256-2.456l-.178-.113-1.682,1.2a24,24,0,0,0,5.427,2.991Zm-14.664-1.374-1.573-1.165-.114.076a24.329,24.329,0,0,1-5.1,2.5l1.589,1.507a27.2,27.2,0,0,0,3.8-1.974l.427-.276C420.233,19.2,420.555,18.975,420.855,18.752Zm1.648-1h-1.325l1.318.977-.5.406q-.128.1-.263.209h.371a1.079,1.079,0,0,0,.36-.043,1.584,1.584,0,0,0,.037-.429Zm5.594,0h-1.18v.843ZM442.21.422H446.7l-.125,2.791H458V7.329H446.412l-.058,1.393H458V12.61h1.4l-.035.532a10.583,10.583,0,0,1-2.467,6.5,9.462,9.462,0,0,1-7.453,2.96,8.533,8.533,0,0,1-5.552-1.634,6.51,6.51,0,0,1-2.176-5.613q.022-.7.083-2.548h-4.121V8.722h4.252l.044-1.393h-4.3V3.214h4.429Zm3.449,1h-2.484l-.1,2.791h-4.394V6.329h4.328L442.9,9.722h-4.222v2.091h4.154l-.017.517q-.075,2.267-.1,3.065a5.5,5.5,0,0,0,1.809,4.805,7.584,7.584,0,0,0,4.919,1.409,10.608,10.608,0,0,0,3.891-.663,7.273,7.273,0,0,0,2.812-1.96,9.362,9.362,0,0,0,2.174-5.375h-2.485a7.328,7.328,0,0,1-1.877,4.172,5.905,5.905,0,0,1-4.34,1.585c-3.665,0-4.45-2.154-4.463-3.961,0-.506.025-1.552.075-3.11l.015-.484H457V9.722H445.312l.141-3.393H457V4.214H445.535Zm9.277,11.39h-8.718c-.039,1.281-.059,2.151-.059,2.591.014,2.021,1.115,2.964,3.463,2.964,3.123,0,4.852-1.739,5.286-5.317ZM469.884.921A8.6,8.6,0,0,1,475.2,2.443,8.73,8.73,0,0,1,478.012,6.8l.15.463-4.467,1.584-.152-.5a5.025,5.025,0,0,0-1.4-2.463,3.466,3.466,0,0,0-2.262-.7,3.634,3.634,0,0,0-3.024,1.407,7.844,7.844,0,0,0-1.312,4.947,8.116,8.116,0,0,0,1.266,4.978,3.6,3.6,0,0,0,3.044,1.376,3.548,3.548,0,0,0,2.334-.706,5.318,5.318,0,0,0,1.424-2.576l.142-.474,4.615,1.328-.165.495a9.606,9.606,0,0,1-2.879,4.594,8.683,8.683,0,0,1-5.521,1.629,8.327,8.327,0,0,1-6.739-2.834c-1.549-1.854-2.335-4.481-2.335-7.81a11.478,11.478,0,0,1,2.475-7.69A8.376,8.376,0,0,1,469.884.921ZM476.9,6.648a7.434,7.434,0,0,0-2.313-3.411,7.634,7.634,0,0,0-4.7-1.316A7.324,7.324,0,0,0,463.971,4.5a10.515,10.515,0,0,0-2.235,7.04c0,3.088.707,5.5,2.1,7.169a6.505,6.505,0,0,0,2.507,1.85,8.976,8.976,0,0,0,3.465.625,7.724,7.724,0,0,0,4.9-1.412,8.2,8.2,0,0,0,2.379-3.636l-2.664-.766a5.684,5.684,0,0,1-1.59,2.586,4.508,4.508,0,0,1-2.975.939,4.6,4.6,0,0,1-3.834-1.763,9.048,9.048,0,0,1-1.476-5.591,8.778,8.778,0,0,1,1.531-5.572,4.635,4.635,0,0,1,3.8-1.782,4.431,4.431,0,0,1,2.9.924,5.5,5.5,0,0,1,1.555,2.448ZM523.4.921a8.6,8.6,0,0,1,5.312,1.523A8.73,8.73,0,0,1,531.522,6.8l.15.463-4.467,1.584-.152-.5a5.025,5.025,0,0,0-1.4-2.463,3.466,3.466,0,0,0-2.262-.7,3.633,3.633,0,0,0-3.023,1.407,7.843,7.843,0,0,0-1.312,4.947,8.116,8.116,0,0,0,1.266,4.978,3.6,3.6,0,0,0,3.044,1.376,3.548,3.548,0,0,0,2.334-.706,5.318,5.318,0,0,0,1.424-2.576l.142-.474,4.615,1.328-.165.495a9.606,9.606,0,0,1-2.879,4.594,8.683,8.683,0,0,1-5.521,1.629,8.327,8.327,0,0,1-6.739-2.834c-1.549-1.854-2.335-4.481-2.335-7.81a11.478,11.478,0,0,1,2.475-7.69A8.376,8.376,0,0,1,523.4.921Zm7.017,5.728A7.434,7.434,0,0,0,528.1,3.237a7.634,7.634,0,0,0-4.7-1.316A7.324,7.324,0,0,0,517.482,4.5a10.516,10.516,0,0,0-2.235,7.04c0,3.088.707,5.5,2.1,7.169a7.282,7.282,0,0,0,5.972,2.475,7.724,7.724,0,0,0,4.9-1.412,8.2,8.2,0,0,0,2.379-3.636l-2.664-.766a5.683,5.683,0,0,1-1.589,2.586,4.508,4.508,0,0,1-2.975.939,4.6,4.6,0,0,1-3.834-1.763,9.047,9.047,0,0,1-1.476-5.591,8.778,8.778,0,0,1,1.531-5.572,4.634,4.634,0,0,1,3.8-1.782,4.431,4.431,0,0,1,2.9.924,5.5,5.5,0,0,1,1.555,2.448ZM.946.946H8.725V3.939H3.989v8.574H.946Zm6.779,1H1.946v9.568H2.989V2.939H7.725Zm555.943-1h5.366L562.41,16.8h-4.381Zm3.864,1h-3.158L559.445,15.8h2.3ZM173.468.97a1.635,1.635,0,0,1,1.176.5,1.644,1.644,0,0,1,0,2.352,1.635,1.635,0,0,1-1.176.5,1.593,1.593,0,0,1-1.17-.5,1.636,1.636,0,0,1-.477-1.17,1.636,1.636,0,0,1,.477-1.17A1.593,1.593,0,0,1,173.468.97Zm0,2.343a.63.63,0,0,0,.469-.2.644.644,0,0,0,0-.938.63.63,0,0,0-.469-.2.584.584,0,0,0-.45.2.674.674,0,0,0,0,.951A.584.584,0,0,0,173.468,3.313Zm-15.6-2.243h4.664v2a30.849,30.849,0,0,1-2.129,12.27,14.526,14.526,0,0,1-6.484,7.238l-.736.393V17.908l.152-.147a13.568,13.568,0,0,0,3.385-5.8,29.884,29.884,0,0,0,1.149-8.817Zm3.664,1h-2.664V3.14a30.865,30.865,0,0,1-1.194,9.116,14.671,14.671,0,0,1-3.491,6.073v2.938a13.71,13.71,0,0,0,5.3-6.332,29.878,29.878,0,0,0,2.045-11.869Zm317.95-.925h4.788V8.8h6.976V1.145h4.763V21.934h-4.763V13.186h-6.976v8.748h-4.788Zm3.788,1h-2.788V20.934h2.788V12.186h8.976v8.748h2.763V2.145h-2.763V9.8h-8.976Zm15.228-1h14.783v4.34h-9.994V8.971h8.8v4.365h-8.8V17.57h9.994v4.365H498.5Zm13.783,1H499.5V20.934h12.783V18.57h-9.994V12.336h8.8V9.971h-8.8V4.485h9.994Zm20.712-1h4.788V9.388l7.606-8.243h6.193l-8.4,8.849,8.236,11.94h-5.832l-5.633-8.522-2.172,2.29v6.232h-4.788Zm3.788,1h-2.788V20.934h2.788V15.3l3.312-3.492,6.031,9.124h3.39l-7.615-11.04,7.354-7.75h-3.427l-9.044,9.8Zm-307.538-.9h16.783v.5a23.559,23.559,0,0,1-3.09,12.525,15.557,15.557,0,0,1-6.061,5.594,25.381,25.381,0,0,1-9.318,2.592l-.551.056V18.23l.434-.058a21.155,21.155,0,0,0,6.427-1.811,12.5,12.5,0,0,0,3.791-2.773,77.467,77.467,0,0,0-8.634-1.4l-.447-.047V10.232a14.02,14.02,0,0,1-3.792,2.417l-.695.294v-4.7l.24-.146a9.939,9.939,0,0,0,2.785-2.66,14.517,14.517,0,0,0,2.012-3.855Zm15.779,1h-15.07a15.487,15.487,0,0,1-2.03,3.783A11.142,11.142,0,0,1,225.086,8.8v2.607a13.881,13.881,0,0,0,3.631-2.686l.113-.114.393-.44a16.13,16.13,0,0,0,2.321-3.36l.139-.272h10.458l-.06.554a19.5,19.5,0,0,1-1.307,5.4l-.165.4-.416-.1A84.974,84.974,0,0,0,229.573,9v2.241a77.556,77.556,0,0,1,9.11,1.557l.765.18-.486.617a13.2,13.2,0,0,1-4.66,3.667A21.74,21.74,0,0,1,228,19.1v2.3a23.916,23.916,0,0,0,8.4-2.42,14.571,14.571,0,0,0,5.678-5.236A22.261,22.261,0,0,0,245.019,2.245Zm-4,3.29h-8.73a16.971,16.971,0,0,1-1.71,2.575,85.147,85.147,0,0,1,9.429,1.6A18.488,18.488,0,0,0,241.021,5.535ZM27.93,1.394h4.737l-.016.516a29.667,29.667,0,0,1-1.239,7.929,18.459,18.459,0,0,1-3.189,6.1,16.514,16.514,0,0,1-5.141,4.209,22.931,22.931,0,0,1-7.024,2.276l-.582.1v-4.4l.391-.087c3.807-.851,6.7-2.462,8.594-4.788,2.113-2.593,3.274-6.417,3.452-11.366Zm3.7,1h-2.74c-.244,4.94-1.473,8.8-3.656,11.48a15.635,15.635,0,0,1-8.76,5.041v2.421a21.508,21.508,0,0,0,6.136-2.07,15.523,15.523,0,0,0,4.832-3.954,17.468,17.468,0,0,0,3.013-5.774A28.168,28.168,0,0,0,31.632,2.394Zm55.525-.95h16.8v.5a29.031,29.031,0,0,1-.94,7.685A17.843,17.843,0,0,1,100.17,15.6a15.719,15.719,0,0,1-5.8,4.743,22.956,22.956,0,0,1-8.217,2.061l-.539.042V18.2l.445-.05c3.961-.442,7.06-1.752,9.211-3.895a14.057,14.057,0,0,0,3.746-8.517h-8.4A14.148,14.148,0,0,1,87.586,10.2a12.856,12.856,0,0,1-4.769,3.107l-.671.243V8.925l.228-.148a10.5,10.5,0,0,0,3-2.92,11.726,11.726,0,0,0,1.69-4.023Zm15.8,1h-15a11.674,11.674,0,0,1-4.8,7.021V12.1a12.051,12.051,0,0,0,3.73-2.6,13.163,13.163,0,0,0,2.932-4.445l.126-.314h10.186l-.053.548c-.789,8.109-5.316,12.751-13.456,13.8v2.276a21.555,21.555,0,0,0,7.32-1.917A14.728,14.728,0,0,0,99.369,15a16.847,16.847,0,0,0,2.685-5.64A27.538,27.538,0,0,0,102.954,2.444Zm-91.909-.95h4.931l.132.3a86.2,86.2,0,0,1,3.61,9.853l.2.646H14.978l-.1-.361A77.663,77.663,0,0,0,11.357,2.2Zm4.281,1H12.577a79.176,79.176,0,0,1,3.15,8.795h2.836A84.676,84.676,0,0,0,15.326,2.494Zm92.267-.975h17.449l-.052.547a22.67,22.67,0,0,1-3.079,9.565,13.289,13.289,0,0,0,5.774,6.23l.249.145V22.8l-.672-.247a16.309,16.309,0,0,1-8.389-6.941,23.067,23.067,0,0,1-11.866,6.71l-.61.138V18.016l.363-.1a19.122,19.122,0,0,0,7.774-4.4,17.346,17.346,0,0,0,4.907-7.631H107.594Zm16.344,1H108.594V4.883H120.76l-.171.631a18.262,18.262,0,0,1-5.377,8.736,20.135,20.135,0,0,1-7.815,4.518V21.2a22.5,22.5,0,0,0,5.852-2.371,22.393,22.393,0,0,0,5.339-4.383l.462-.514.344.6a16.573,16.573,0,0,0,3.531,4.35,14.993,14.993,0,0,0,4.009,2.468v-2.77a14.1,14.1,0,0,1-6.045-6.8l-.094-.234.132-.215A21.552,21.552,0,0,0,123.937,2.519Zm78.366-1h17.449l-.052.547a22.671,22.671,0,0,1-3.079,9.565,13.289,13.289,0,0,0,5.774,6.23l.249.145V22.8l-.672-.247a16.309,16.309,0,0,1-8.389-6.941,23.067,23.067,0,0,1-11.866,6.71l-.61.138V18.016l.363-.1a19.121,19.121,0,0,0,7.774-4.4,17.345,17.345,0,0,0,4.907-7.631H202.3Zm16.344,1H203.3V4.883H215.47l-.171.631a18.261,18.261,0,0,1-5.377,8.736,20.133,20.133,0,0,1-7.815,4.518V21.2a22.5,22.5,0,0,0,5.852-2.371,22.394,22.394,0,0,0,5.339-4.383l.462-.514.344.6a16.572,16.572,0,0,0,3.531,4.35,14.994,14.994,0,0,0,4.009,2.468v-2.77a14.1,14.1,0,0,1-6.045-6.8l-.094-.234.132-.215A21.554,21.554,0,0,0,218.647,2.519Zm199.544-.327H431.18V3.964H418.191ZM36.786,2.316H54.759v4.44H36.786Zm16.973,1H37.786v2.44H53.759Zm12.127.645h4.287l.113.344a62.435,62.435,0,0,1,2.037,8.771l.09.528c1.266-2.009,1.908-4.922,1.908-8.669V4.086H78.91V4.96a24.641,24.641,0,0,1-.937,7.105,14.348,14.348,0,0,1-2.849,5.311c-2.361,2.737-5.968,4.5-10.719,5.226l-.576.088V18.485l.4-.082c3.725-.767,6.4-2.26,7.943-4.436q.106-.15.207-.307H67.956l-.06-.431A66.007,66.007,0,0,0,66.065,4.6Zm3.561,1H67.2a66.9,66.9,0,0,1,1.621,7.7h2.413A61.425,61.425,0,0,0,69.447,4.961Zm8.463.125H75.32c-.019,4.118-.8,7.3-2.335,9.459-1.639,2.309-4.383,3.906-8.158,4.751v2.222c4.224-.741,7.432-2.354,9.539-4.8a13.36,13.36,0,0,0,2.648-4.946A23.519,23.519,0,0,0,77.909,5.086ZM59.639,4.161h4.3l.113.344a61.976,61.976,0,0,1,2.136,8.769l.1.585H61.851l-.062-.429a57.615,57.615,0,0,0-1.952-8.623Zm3.578,1H60.988a58.555,58.555,0,0,1,1.728,7.7H65.1A60.77,60.77,0,0,0,63.217,5.161Zm354.975-.526H431.18V6.407H418.191Zm-86.909,3.19h2.794V9.846h-2.794Zm1.794,1h-.794v.022h.794Zm2.667-1h2.919V9.846h-2.919Zm1.919,1h-.919v.022h.919ZM129.875,8.273h21.388v4.415H129.875Zm20.388,1H130.875v2.415h19.388Zm26.967-1h21.388v4.415H177.23Zm20.388,1H178.23v2.415h19.388Zm50.645-1H269.65v4.415H248.262Zm20.388,1H249.262v2.415H268.65Zm30.756-.2h5.91V23.529h-10.67v-5.91h4.76Zm4.91,1h-3.91v8.549h-4.76v3.91h8.67Zm93.488.371h2.171v3.418H397.8Zm1.171,1H398.8v1.418h.171Zm2.567-1h2.147v3.418h-2.147Zm1.147,1h-.147v1.418h.147Zm-101.838-.925h3.019V22.084h-7.779V19.09h4.76Zm2.019,1h-1.019V20.09h-4.76v.994h5.779Zm28.413-.576h2.794v2.047h-2.794Zm1.794,1h-.794v.047h.794Zm2.667-1h2.919v2.047h-2.919Zm1.919,1h-.919v.047h.919Zm28.488-.975H388.56v4.016h-5.832a68.981,68.981,0,0,1,5.4,6.067l.414.519-4.22,1.753L384.089,23c-.415-.58-.792-1.09-1.125-1.519A144.669,144.669,0,0,1,367.975,23.1l-.381.022-1.409-4.193.676-.018c1.14-.03,2.246-.068,3.292-.113.814-1.316,1.547-2.6,2.185-3.822h-6.188Zm21.409,1H367.151v2.016h6.814l-.362.724c-.768,1.536-1.69,3.168-2.74,4.851l-.139.223-.263.012c-.923.041-1.895.076-2.9.106l.735,2.188a143.179,143.179,0,0,0,14.794-1.642l.29-.048.183.231c.325.41.7.9,1.1,1.466l2.258-.938a65.431,65.431,0,0,0-5.221-5.771l-2.029.748c.568.6,1.172,1.264,1.8,1.983l.633.721-.954.105c-2.4.265-4.708.475-6.849.625l-.946.066.48-.818c1.053-1.793,1.9-3.327,2.527-4.559l.139-.274H387.56Zm-7.653,3.016h-2.782c-.515,1-1.165,2.18-1.939,3.518,1.563-.119,3.2-.27,4.9-.448-.584-.649-1.139-1.244-1.658-1.775l-.539-.552Zm38.757-1.523h12.066v2.122H418.665Zm11.066,1H419.665v.122h10.066Zm-81.974-.377h11.892V16.2H347.757Zm10.892,1h-9.892V15.2h9.892ZM34.842,16.946H56.877v4.439H34.842Zm21.036,1H35.842v2.439H55.877ZM557.5,17.3h5.129l-1.846,4.913h-5.16Zm3.685,1h-3l-1.113,2.913h3.015Zm-213.423-.85h11.892v2.171H347.757Zm10.892,1h-9.892v.171h9.892Z" transform="matrix(0.996, -0.087, 0.087, 0.996, 56.928, 87.42)" fill="#f095c0"/><path d="M15.527,21.659H11.764V12.91H3.788v8.748H0V1.869H3.788V9.521h7.976V1.869h3.763Zm12.287,0H18.294v-3.19H21.16V5.059H18.369V1.869h9.4v3.19H24.924V18.468h2.891Zm6.53,0H30.556V1.869h3.788v9.022l8.324-9.022h4.81l-7.876,8.3,7.926,11.49H42.918l-5.832-8.823-2.742,2.891Zm19.391-7.577h5.558L56.452,5.633Zm6.63,3.24H52.688l-1.4,4.337H47.43l6.63-19.789H58.77l6.979,19.789H61.835Zm10.917,4.337H67.493V1.869h3.788v9.022l8.324-9.022h4.81l-7.876,8.3,7.926,11.49H79.855l-5.832-8.823-2.742,2.891Zm23.628,0H85.388v-3.19h2.866V5.059H85.463V1.869h9.4v3.19H92.018V18.468h2.891Zm18.443,0h-3.739l-8.275-13.21v13.21H97.651V1.869h3.739l8.25,13.384V1.869h3.714ZM137.6,7.627h-5.558q1.52,3.415,3.614,7.5h-3.838a10.241,10.241,0,0,0-6.43-1.919,6.225,6.225,0,0,0-3.253.735,2.234,2.234,0,0,0-1.209,1.981q0,2.866,6.38,2.866a45.742,45.742,0,0,0,8.125-.723v3.34a54.651,54.651,0,0,1-8.1.648q-4.76,0-7.278-1.5A4.981,4.981,0,0,1,117.44,16a4.976,4.976,0,0,1,2.044-4.125,8.638,8.638,0,0,1,5.433-1.583,17.213,17.213,0,0,1,5.284.822q-.748-1.321-1.72-3.315H116.966V4.611h10.019q-.822-1.819-1.371-3.265h3.863q.648,1.77,1.221,3.14h6.9ZM161.43,9.72a20.693,20.693,0,0,1-1.645,8.5q-1.894,3.913-5.683,3.913a4.665,4.665,0,0,1-3.19-1.009,3.758,3.758,0,0,1-1.146-2.978V14.381q0-1.47-.847-1.47a3.239,3.239,0,0,0-2.168,1.3,7.862,7.862,0,0,0-1.632,2.5,52.027,52.027,0,0,0-1.483,5.2h-3.714q3.564-13.185,6.356-20.437h3.888q-1.695,3.763-3.639,9.621a4.732,4.732,0,0,1,3.439-1.57q3.165,0,3.165,3.813v4.013a1.069,1.069,0,0,0,1.221,1.2q1.62,0,2.567-2.492a19.111,19.111,0,0,0,.947-6.331Zm9.546,10.966-3.016,2.542a24.607,24.607,0,0,0-5.059-5.109l2.941-2.467A30.67,30.67,0,0,1,170.976,20.687Zm31.4-4.91a5.39,5.39,0,0,1-2.567,4.885,8.452,8.452,0,0,1-4.661,1.246,10.4,10.4,0,0,1-4.935-1A7.612,7.612,0,0,1,186.7,16.4l3.589-1.146a5.166,5.166,0,0,0,2.143,2.791,5.458,5.458,0,0,0,2.717.573,3.8,3.8,0,0,0,2.343-.673,2.23,2.23,0,0,0,.9-1.894,2.089,2.089,0,0,0-1.171-1.894,11.48,11.48,0,0,0-2.841-.947,18.838,18.838,0,0,1-4.81-1.545,4.736,4.736,0,0,1-2.393-4.411,4.914,4.914,0,0,1,1.981-4.05,8.208,8.208,0,0,1,5.221-1.558q5.683,0,7.876,4.536L198.84,7.452A4.636,4.636,0,0,0,196.8,5.383a5.9,5.9,0,0,0-2.567-.474,3.781,3.781,0,0,0-2.492.748,1.91,1.91,0,0,0-.748,1.52,1.877,1.877,0,0,0,1,1.695,9.822,9.822,0,0,0,2.443.8q2.891.648,3.514.847a7.576,7.576,0,0,1,3.115,1.72A4.835,4.835,0,0,1,202.379,15.777Zm16.1,5.882H204.7V1.869H218.48v3.34h-9.994V9.7h8.8V13.06h-8.8v5.234h9.994Zm11.49,0h-9.521v-3.19h2.866V5.059h-2.791V1.869h9.4v3.19h-2.841V18.468h2.891Zm6.53,0h-3.788V1.869H236.5v9.022l8.324-9.022h4.81l-7.876,8.3,7.926,11.49h-4.611l-5.832-8.823L236.5,15.727Zm23.628,0h-9.521v-3.19h2.866V5.059h-2.791V1.869h9.4v3.19h-2.841V18.468h2.891Zm18.443,0h-3.739l-8.275-13.21v13.21h-3.689V1.869h3.739l8.25,13.384V1.869h3.714ZM302.822,7.627h-5.558q1.52,3.415,3.614,7.5h-3.838a10.241,10.241,0,0,0-6.43-1.919,6.225,6.225,0,0,0-3.253.735,2.234,2.234,0,0,0-1.209,1.981q0,2.866,6.38,2.866a45.743,45.743,0,0,0,8.125-.723v3.34a54.651,54.651,0,0,1-8.1.648q-4.76,0-7.278-1.5A4.981,4.981,0,0,1,282.658,16a4.976,4.976,0,0,1,2.044-4.125,8.638,8.638,0,0,1,5.433-1.583,17.213,17.213,0,0,1,5.284.822q-.748-1.321-1.72-3.315H282.185V4.611H292.2q-.823-1.819-1.371-3.265H294.7q.648,1.77,1.221,3.14h6.9ZM326.648,9.72a20.693,20.693,0,0,1-1.645,8.5q-1.894,3.913-5.683,3.913a4.666,4.666,0,0,1-3.19-1.009,3.758,3.758,0,0,1-1.146-2.978V14.381q0-1.47-.847-1.47a3.239,3.239,0,0,0-2.168,1.3,7.862,7.862,0,0,0-1.632,2.5,52.024,52.024,0,0,0-1.483,5.2h-3.714Q308.7,8.723,311.495,1.47h3.888q-1.695,3.763-3.639,9.621a4.732,4.732,0,0,1,3.439-1.57q3.165,0,3.165,3.813v4.013a1.069,1.069,0,0,0,1.221,1.2q1.62,0,2.567-2.492a19.111,19.111,0,0,0,.947-6.331Zm9.546,10.966-3.016,2.542a24.606,24.606,0,0,0-5.059-5.109l2.941-2.467A30.671,30.671,0,0,1,336.194,20.687Zm36.837.972h-3.739l-.4-12.91-4.536,10.767h-3.215L356.781,8.848l-.249,12.811h-3.689l.7-19.789h3.689l5.558,13.384,5.583-13.384h3.838Zm11.689-1.271a6.782,6.782,0,0,1-4.511,1.57,5.794,5.794,0,0,1-3.34-.872,3.546,3.546,0,0,1-1.52-3.165q0-5.209,9.371-5.408-.025-2.343-2.841-2.343a9.57,9.57,0,0,0-5.035,1.67L375.3,9.3a14.794,14.794,0,0,1,6.879-1.869q6.106,0,6.106,4.536v9.7H384.72Zm0-5.458a18.563,18.563,0,0,0-3.838.5q-2.044.6-2.044,2.119,0,1.645,1.894,1.645a5.984,5.984,0,0,0,3.988-1.77Zm18.593,2.393a3.947,3.947,0,0,1-1.77,3.489,8.117,8.117,0,0,1-4.611,1.122q-4.96,0-6.68-3.589l3.215-1.545a3.567,3.567,0,0,0,3.464,2.393q2.791,0,2.791-1.545,0-1.022-2.393-1.421a32.806,32.806,0,0,1-4.461-.922,3.344,3.344,0,0,1-2.393-3.29A3.953,3.953,0,0,1,392.123,8.7a7.981,7.981,0,0,1,4.785-1.271q4.611,0,6.306,3.215l-3.066,1.421a3.5,3.5,0,0,0-3.439-1.894q-2.617,0-2.617,1.346,0,1.022,2.393,1.371a24.922,24.922,0,0,1,4.436.922A3.543,3.543,0,0,1,403.313,17.322Zm14.605,4.337h-3.564V19.964a5.928,5.928,0,0,1-4.337,1.944,4.587,4.587,0,0,1-3.452-1.271,5.125,5.125,0,0,1-1.234-3.714V7.676H408.9v8.275a4,4,0,0,0,.324,1.869,1.73,1.73,0,0,0,1.67.822,3.372,3.372,0,0,0,2.193-.947,3.775,3.775,0,0,0,1.271-1.819v-8.2h3.564Zm15.6-7a7.549,7.549,0,0,1-1.782,5.4,7.158,7.158,0,0,1-9.633.037,7.465,7.465,0,0,1-1.869-5.433,7.376,7.376,0,0,1,1.869-5.408,6.4,6.4,0,0,1,4.81-1.819A6.317,6.317,0,0,1,431.7,9.247,7.5,7.5,0,0,1,433.521,14.655Zm-3.539,0q0-4.137-3.066-4.137-3.091,0-3.09,4.137,0,4.162,3.09,4.162Q429.982,18.817,429.982,14.655Zm26.893-7.028h-5.558q1.52,3.415,3.614,7.5h-3.838a10.241,10.241,0,0,0-6.43-1.919,6.225,6.225,0,0,0-3.253.735,2.234,2.234,0,0,0-1.209,1.981q0,2.866,6.38,2.866a45.742,45.742,0,0,0,8.125-.723v3.34a54.651,54.651,0,0,1-8.1.648q-4.76,0-7.278-1.5A4.981,4.981,0,0,1,436.711,16a4.976,4.976,0,0,1,2.044-4.125,8.638,8.638,0,0,1,5.433-1.583,17.213,17.213,0,0,1,5.284.822q-.748-1.321-1.72-3.315H436.237V4.611h10.019q-.822-1.819-1.371-3.265h3.863q.648,1.77,1.221,3.14h6.9ZM480.7,9.72a20.693,20.693,0,0,1-1.645,8.5q-1.894,3.913-5.683,3.913a4.665,4.665,0,0,1-3.19-1.009,3.758,3.758,0,0,1-1.146-2.978V14.381q0-1.47-.847-1.47a3.239,3.239,0,0,0-2.168,1.3,7.862,7.862,0,0,0-1.632,2.5,52.041,52.041,0,0,0-1.483,5.2h-3.714q3.564-13.185,6.355-20.437h3.888q-1.695,3.763-3.639,9.621a4.732,4.732,0,0,1,3.439-1.57q3.165,0,3.165,3.813v4.013a1.069,1.069,0,0,0,1.221,1.2q1.62,0,2.567-2.492a19.112,19.112,0,0,0,.947-6.331Zm9.546,10.966-3.016,2.542a24.607,24.607,0,0,0-5.06-5.109l2.941-2.467A30.67,30.67,0,0,1,490.247,20.687ZM528.255,3.564h-1.894v1.77H508.217V2.044h14.73V0h2.168V2.044h.972V0h2.168Zm-.523,8h-7.078a11.183,11.183,0,0,1-3.963,7.6,14.835,14.835,0,0,1-7.8,2.991V18.792a9.859,9.859,0,0,0,5.446-2.393,7.859,7.859,0,0,0,2.38-4.835h-9.994V8.349h21.011Zm22.73,4.785a5.885,5.885,0,0,1-1.3,4.225,5.563,5.563,0,0,1-4.137,1.333h-4.486V18.593h3.689a2.653,2.653,0,0,0,1.944-.586,2.7,2.7,0,0,0,.573-1.932V8.225h-6.405a16.54,16.54,0,0,1-3.14,9.2,13.518,13.518,0,0,1-6.53,4.735V18.593q5.857-3.29,6.056-10.368h-6.056V4.985h6.056V1.2h3.639V4.985h10.094Zm25.123-.374h-8.773l.6,6.53h-3.639l-.573-6.53h-9.521v-3.29h9.2L562.5,8.075h-8V4.81h7.7l-.349-3.763h3.639l.3,3.763h8.773V8.075h-8.449l.4,4.611h9.072ZM589.243,7.2A72.076,72.076,0,0,0,579,5.757V2.193a76.387,76.387,0,0,1,10.244,1.371Zm9.022-1.645q-.723,8.349-5.633,12.312-4.586,3.689-13.359,3.988V18.369q7.053-.523,10.443-3.041,4.063-2.991,4.785-9.77Zm24.35,2.069h-5.558q1.52,3.415,3.614,7.5h-3.838a10.241,10.241,0,0,0-6.43-1.919,6.225,6.225,0,0,0-3.253.735,2.234,2.234,0,0,0-1.209,1.981q0,2.866,6.38,2.866a45.743,45.743,0,0,0,8.125-.723v3.34a54.652,54.652,0,0,1-8.1.648q-4.76,0-7.278-1.5A4.981,4.981,0,0,1,602.453,16a4.976,4.976,0,0,1,2.044-4.125,8.638,8.638,0,0,1,5.433-1.583,17.213,17.213,0,0,1,5.284.822q-.748-1.321-1.72-3.315H601.979V4.611H612q-.822-1.819-1.371-3.265h3.863q.648,1.77,1.221,3.14h6.9ZM646.443,9.72a20.692,20.692,0,0,1-1.645,8.5q-1.894,3.913-5.683,3.913a4.666,4.666,0,0,1-3.19-1.009,3.758,3.758,0,0,1-1.146-2.978V14.381q0-1.47-.847-1.47a3.239,3.239,0,0,0-2.168,1.3,7.863,7.863,0,0,0-1.632,2.5,52.024,52.024,0,0,0-1.483,5.2h-3.714Q628.5,8.723,631.289,1.47h3.888q-1.695,3.763-3.639,9.621a4.732,4.732,0,0,1,3.44-1.57q3.165,0,3.165,3.813v4.013a1.069,1.069,0,0,0,1.221,1.2q1.62,0,2.567-2.492a19.113,19.113,0,0,0,.947-6.331Zm23.578,1.745q0,5.134-3.19,7.926a11.184,11.184,0,0,1-7.153,2.592v-3.29a8.079,8.079,0,0,0,4.711-1.969,7.016,7.016,0,0,0,2.094-5.408,5.946,5.946,0,0,0-1.221-3.763A6.078,6.078,0,0,0,661.6,5.334q-1.221,9.222-3.639,13.185a4.4,4.4,0,0,1-3.863,2.418,4.58,4.58,0,0,1-3.639-2.044,8.974,8.974,0,0,1-1.77-5.732A10.826,10.826,0,0,1,659.9,1.994a10.285,10.285,0,0,1,7.452,2.667A9.06,9.06,0,0,1,670.021,11.465ZM658.207,5.234a6.889,6.889,0,0,0-4.636,2.791,8.475,8.475,0,0,0-1.62,5.134,6.112,6.112,0,0,0,.773,3.14q.673,1.146,1.321,1.146.822,0,1.844-2.318A37.9,37.9,0,0,0,658.207,5.234Z" transform="matrix(0.996, -0.087, 0.087, 0.996, 1.662, 59.504)" fill="#ea91bb"/><path d="M15.527,21.659H11.764V12.91H3.788v8.748H0V1.869H3.788V9.521h7.976V1.869h3.763Zm12.287,0H18.294v-3.19H21.16V5.059H18.369V1.869h9.4v3.19H24.924V18.468h2.891Zm6.53,0H30.556V1.869h3.788v9.022l8.324-9.022h4.81l-7.876,8.3,7.926,11.49H42.918l-5.832-8.823-2.742,2.891Zm19.391-7.577h5.558L56.452,5.633Zm6.63,3.24H52.688l-1.4,4.337H47.43l6.63-19.789H58.77l6.979,19.789H61.835Zm10.917,4.337H67.493V1.869h3.788v9.022l8.324-9.022h4.81l-7.876,8.3,7.926,11.49H79.855l-5.832-8.823-2.742,2.891Zm23.628,0H85.388v-3.19h2.866V5.059H85.463V1.869h9.4v3.19H92.018V18.468h2.891Zm18.443,0h-3.739l-8.275-13.21v13.21H97.651V1.869h3.739l8.25,13.384V1.869h3.714ZM137.6,7.627h-5.558q1.52,3.415,3.614,7.5h-3.838a10.241,10.241,0,0,0-6.43-1.919,6.225,6.225,0,0,0-3.253.735,2.234,2.234,0,0,0-1.209,1.981q0,2.866,6.38,2.866a45.742,45.742,0,0,0,8.125-.723v3.34a54.651,54.651,0,0,1-8.1.648q-4.76,0-7.278-1.5A4.981,4.981,0,0,1,117.44,16a4.976,4.976,0,0,1,2.044-4.125,8.638,8.638,0,0,1,5.433-1.583,17.213,17.213,0,0,1,5.284.822q-.748-1.321-1.72-3.315H116.966V4.611h10.019q-.822-1.819-1.371-3.265h3.863q.648,1.77,1.221,3.14h6.9ZM161.43,9.72a20.693,20.693,0,0,1-1.645,8.5q-1.894,3.913-5.683,3.913a4.665,4.665,0,0,1-3.19-1.009,3.758,3.758,0,0,1-1.146-2.978V14.381q0-1.47-.847-1.47a3.239,3.239,0,0,0-2.168,1.3,7.862,7.862,0,0,0-1.632,2.5,52.027,52.027,0,0,0-1.483,5.2h-3.714q3.564-13.185,6.356-20.437h3.888q-1.695,3.763-3.639,9.621a4.732,4.732,0,0,1,3.439-1.57q3.165,0,3.165,3.813v4.013a1.069,1.069,0,0,0,1.221,1.2q1.62,0,2.567-2.492a19.111,19.111,0,0,0,.947-6.331Zm9.546,10.966-3.016,2.542a24.607,24.607,0,0,0-5.059-5.109l2.941-2.467A30.67,30.67,0,0,1,170.976,20.687Zm31.4-4.91a5.39,5.39,0,0,1-2.567,4.885,8.452,8.452,0,0,1-4.661,1.246,10.4,10.4,0,0,1-4.935-1A7.612,7.612,0,0,1,186.7,16.4l3.589-1.146a5.166,5.166,0,0,0,2.143,2.791,5.458,5.458,0,0,0,2.717.573,3.8,3.8,0,0,0,2.343-.673,2.23,2.23,0,0,0,.9-1.894,2.089,2.089,0,0,0-1.171-1.894,11.48,11.48,0,0,0-2.841-.947,18.838,18.838,0,0,1-4.81-1.545,4.736,4.736,0,0,1-2.393-4.411,4.914,4.914,0,0,1,1.981-4.05,8.208,8.208,0,0,1,5.221-1.558q5.683,0,7.876,4.536L198.84,7.452A4.636,4.636,0,0,0,196.8,5.383a5.9,5.9,0,0,0-2.567-.474,3.781,3.781,0,0,0-2.492.748,1.91,1.91,0,0,0-.748,1.52,1.877,1.877,0,0,0,1,1.695,9.822,9.822,0,0,0,2.443.8q2.891.648,3.514.847a7.576,7.576,0,0,1,3.115,1.72A4.835,4.835,0,0,1,202.379,15.777Zm16.1,5.882H204.7V1.869H218.48v3.34h-9.994V9.7h8.8V13.06h-8.8v5.234h9.994Zm11.49,0h-9.521v-3.19h2.866V5.059h-2.791V1.869h9.4v3.19h-2.841V18.468h2.891Zm6.53,0h-3.788V1.869H236.5v9.022l8.324-9.022h4.81l-7.876,8.3,7.926,11.49h-4.611l-5.832-8.823L236.5,15.727Zm23.628,0h-9.521v-3.19h2.866V5.059h-2.791V1.869h9.4v3.19h-2.841V18.468h2.891Zm18.443,0h-3.739l-8.275-13.21v13.21h-3.689V1.869h3.739l8.25,13.384V1.869h3.714ZM302.822,7.627h-5.558q1.52,3.415,3.614,7.5h-3.838a10.241,10.241,0,0,0-6.43-1.919,6.225,6.225,0,0,0-3.253.735,2.234,2.234,0,0,0-1.209,1.981q0,2.866,6.38,2.866a45.743,45.743,0,0,0,8.125-.723v3.34a54.651,54.651,0,0,1-8.1.648q-4.76,0-7.278-1.5A4.981,4.981,0,0,1,282.658,16a4.976,4.976,0,0,1,2.044-4.125,8.638,8.638,0,0,1,5.433-1.583,17.213,17.213,0,0,1,5.284.822q-.748-1.321-1.72-3.315H282.185V4.611H292.2q-.823-1.819-1.371-3.265H294.7q.648,1.77,1.221,3.14h6.9ZM326.648,9.72a20.693,20.693,0,0,1-1.645,8.5q-1.894,3.913-5.683,3.913a4.666,4.666,0,0,1-3.19-1.009,3.758,3.758,0,0,1-1.146-2.978V14.381q0-1.47-.847-1.47a3.239,3.239,0,0,0-2.168,1.3,7.862,7.862,0,0,0-1.632,2.5,52.024,52.024,0,0,0-1.483,5.2h-3.714Q308.7,8.723,311.495,1.47h3.888q-1.695,3.763-3.639,9.621a4.732,4.732,0,0,1,3.439-1.57q3.165,0,3.165,3.813v4.013a1.069,1.069,0,0,0,1.221,1.2q1.62,0,2.567-2.492a19.111,19.111,0,0,0,.947-6.331Zm9.546,10.966-3.016,2.542a24.606,24.606,0,0,0-5.059-5.109l2.941-2.467A30.671,30.671,0,0,1,336.194,20.687Zm36.837.972h-3.739l-.4-12.91-4.536,10.767h-3.215L356.781,8.848l-.249,12.811h-3.689l.7-19.789h3.689l5.558,13.384,5.583-13.384h3.838Zm11.689-1.271a6.782,6.782,0,0,1-4.511,1.57,5.794,5.794,0,0,1-3.34-.872,3.546,3.546,0,0,1-1.52-3.165q0-5.209,9.371-5.408-.025-2.343-2.841-2.343a9.57,9.57,0,0,0-5.035,1.67L375.3,9.3a14.794,14.794,0,0,1,6.879-1.869q6.106,0,6.106,4.536v9.7H384.72Zm0-5.458a18.563,18.563,0,0,0-3.838.5q-2.044.6-2.044,2.119,0,1.645,1.894,1.645a5.984,5.984,0,0,0,3.988-1.77Zm18.593,2.393a3.947,3.947,0,0,1-1.77,3.489,8.117,8.117,0,0,1-4.611,1.122q-4.96,0-6.68-3.589l3.215-1.545a3.567,3.567,0,0,0,3.464,2.393q2.791,0,2.791-1.545,0-1.022-2.393-1.421a32.806,32.806,0,0,1-4.461-.922,3.344,3.344,0,0,1-2.393-3.29A3.953,3.953,0,0,1,392.123,8.7a7.981,7.981,0,0,1,4.785-1.271q4.611,0,6.306,3.215l-3.066,1.421a3.5,3.5,0,0,0-3.439-1.894q-2.617,0-2.617,1.346,0,1.022,2.393,1.371a24.922,24.922,0,0,1,4.436.922A3.543,3.543,0,0,1,403.313,17.322Zm14.605,4.337h-3.564V19.964a5.928,5.928,0,0,1-4.337,1.944,4.587,4.587,0,0,1-3.452-1.271,5.125,5.125,0,0,1-1.234-3.714V7.676H408.9v8.275a4,4,0,0,0,.324,1.869,1.73,1.73,0,0,0,1.67.822,3.372,3.372,0,0,0,2.193-.947,3.775,3.775,0,0,0,1.271-1.819v-8.2h3.564Zm15.6-7a7.549,7.549,0,0,1-1.782,5.4,7.158,7.158,0,0,1-9.633.037,7.465,7.465,0,0,1-1.869-5.433,7.376,7.376,0,0,1,1.869-5.408,6.4,6.4,0,0,1,4.81-1.819A6.317,6.317,0,0,1,431.7,9.247,7.5,7.5,0,0,1,433.521,14.655Zm-3.539,0q0-4.137-3.066-4.137-3.091,0-3.09,4.137,0,4.162,3.09,4.162Q429.982,18.817,429.982,14.655Zm26.893-7.028h-5.558q1.52,3.415,3.614,7.5h-3.838a10.241,10.241,0,0,0-6.43-1.919,6.225,6.225,0,0,0-3.253.735,2.234,2.234,0,0,0-1.209,1.981q0,2.866,6.38,2.866a45.742,45.742,0,0,0,8.125-.723v3.34a54.651,54.651,0,0,1-8.1.648q-4.76,0-7.278-1.5A4.981,4.981,0,0,1,436.711,16a4.976,4.976,0,0,1,2.044-4.125,8.638,8.638,0,0,1,5.433-1.583,17.213,17.213,0,0,1,5.284.822q-.748-1.321-1.72-3.315H436.237V4.611h10.019q-.822-1.819-1.371-3.265h3.863q.648,1.77,1.221,3.14h6.9ZM480.7,9.72a20.693,20.693,0,0,1-1.645,8.5q-1.894,3.913-5.683,3.913a4.665,4.665,0,0,1-3.19-1.009,3.758,3.758,0,0,1-1.146-2.978V14.381q0-1.47-.847-1.47a3.239,3.239,0,0,0-2.168,1.3,7.862,7.862,0,0,0-1.632,2.5,52.041,52.041,0,0,0-1.483,5.2h-3.714q3.564-13.185,6.355-20.437h3.888q-1.695,3.763-3.639,9.621a4.732,4.732,0,0,1,3.439-1.57q3.165,0,3.165,3.813v4.013a1.069,1.069,0,0,0,1.221,1.2q1.62,0,2.567-2.492a19.112,19.112,0,0,0,.947-6.331Zm9.546,10.966-3.016,2.542a24.607,24.607,0,0,0-5.06-5.109l2.941-2.467A30.67,30.67,0,0,1,490.247,20.687ZM528.255,3.564h-1.894v1.77H508.217V2.044h14.73V0h2.168V2.044h.972V0h2.168Zm-.523,8h-7.078a11.183,11.183,0,0,1-3.963,7.6,14.835,14.835,0,0,1-7.8,2.991V18.792a9.859,9.859,0,0,0,5.446-2.393,7.859,7.859,0,0,0,2.38-4.835h-9.994V8.349h21.011Zm22.73,4.785a5.885,5.885,0,0,1-1.3,4.225,5.563,5.563,0,0,1-4.137,1.333h-4.486V18.593h3.689a2.653,2.653,0,0,0,1.944-.586,2.7,2.7,0,0,0,.573-1.932V8.225h-6.405a16.54,16.54,0,0,1-3.14,9.2,13.518,13.518,0,0,1-6.53,4.735V18.593q5.857-3.29,6.056-10.368h-6.056V4.985h6.056V1.2h3.639V4.985h10.094Zm25.123-.374h-8.773l.6,6.53h-3.639l-.573-6.53h-9.521v-3.29h9.2L562.5,8.075h-8V4.81h7.7l-.349-3.763h3.639l.3,3.763h8.773V8.075h-8.449l.4,4.611h9.072ZM589.243,7.2A72.076,72.076,0,0,0,579,5.757V2.193a76.387,76.387,0,0,1,10.244,1.371Zm9.022-1.645q-.723,8.349-5.633,12.312-4.586,3.689-13.359,3.988V18.369q7.053-.523,10.443-3.041,4.063-2.991,4.785-9.77Zm24.35,2.069h-5.558q1.52,3.415,3.614,7.5h-3.838a10.241,10.241,0,0,0-6.43-1.919,6.225,6.225,0,0,0-3.253.735,2.234,2.234,0,0,0-1.209,1.981q0,2.866,6.38,2.866a45.743,45.743,0,0,0,8.125-.723v3.34a54.652,54.652,0,0,1-8.1.648q-4.76,0-7.278-1.5A4.981,4.981,0,0,1,602.453,16a4.976,4.976,0,0,1,2.044-4.125,8.638,8.638,0,0,1,5.433-1.583,17.213,17.213,0,0,1,5.284.822q-.748-1.321-1.72-3.315H601.979V4.611H612q-.822-1.819-1.371-3.265h3.863q.648,1.77,1.221,3.14h6.9ZM646.443,9.72a20.692,20.692,0,0,1-1.645,8.5q-1.894,3.913-5.683,3.913a4.666,4.666,0,0,1-3.19-1.009,3.758,3.758,0,0,1-1.146-2.978V14.381q0-1.47-.847-1.47a3.239,3.239,0,0,0-2.168,1.3,7.863,7.863,0,0,0-1.632,2.5,52.024,52.024,0,0,0-1.483,5.2h-3.714Q628.5,8.723,631.289,1.47h3.888q-1.695,3.763-3.639,9.621a4.732,4.732,0,0,1,3.44-1.57q3.165,0,3.165,3.813v4.013a1.069,1.069,0,0,0,1.221,1.2q1.62,0,2.567-2.492a19.113,19.113,0,0,0,.947-6.331Zm23.578,1.745q0,5.134-3.19,7.926a11.184,11.184,0,0,1-7.153,2.592v-3.29a8.079,8.079,0,0,0,4.711-1.969,7.016,7.016,0,0,0,2.094-5.408,5.946,5.946,0,0,0-1.221-3.763A6.078,6.078,0,0,0,661.6,5.334q-1.221,9.222-3.639,13.185a4.4,4.4,0,0,1-3.863,2.418,4.58,4.58,0,0,1-3.639-2.044,8.974,8.974,0,0,1-1.77-5.732A10.826,10.826,0,0,1,659.9,1.994a10.285,10.285,0,0,1,7.452,2.667A9.06,9.06,0,0,1,670.021,11.465ZM658.207,5.234a6.889,6.889,0,0,0-4.636,2.791,8.475,8.475,0,0,0-1.62,5.134,6.112,6.112,0,0,0,.773,3.14q.673,1.146,1.321,1.146.822,0,1.844-2.318A37.9,37.9,0,0,0,658.207,5.234Z" transform="matrix(0.996, -0.087, 0.087, 0.996, 0, 58.396)" fill="#fdfdfd"/><path d="M487.149,23.952l-.318-.423a24.218,24.218,0,0,0-4.956-5.007l-.512-.377L485.1,15.01l.319.247a31.309,31.309,0,0,1,5.218,5.116l.307.381ZM482.973,18.1a25.333,25.333,0,0,1,4.338,4.408l2.238-1.886a30.323,30.323,0,0,0-4.425-4.326ZM333.1,23.952l-.318-.423a24.22,24.22,0,0,0-4.956-5.007l-.512-.377,3.737-3.135.319.247a31.316,31.316,0,0,1,5.218,5.116l.307.381ZM328.92,18.1a25.33,25.33,0,0,1,4.337,4.408l2.238-1.886A30.329,30.329,0,0,0,331.07,16.3ZM167.878,23.952l-.318-.423a24.221,24.221,0,0,0-4.956-5.007l-.512-.377,3.737-3.135.319.247a31.315,31.315,0,0,1,5.218,5.116l.307.381ZM163.7,18.1a25.33,25.33,0,0,1,4.337,4.408l2.238-1.886a30.327,30.327,0,0,0-4.425-4.326Zm404.257,4.906h-4.645l-.573-6.53h-9.563v-4.29h9.155l-.293-3.611H554V4.31h7.653L561.3.547h4.649l.3,3.763h8.811V8.575h-8.4l.312,3.611h9.114v4.29H567.36Zm-3.729-1h2.633l-.6-6.53h8.821v-2.29h-9.031l-.485-5.611h8.494V5.31h-8.735l-.3-3.763H562.4l.349,3.763H555V7.575h7.962l.455,5.611h-9.239v2.29h9.479Zm-34.057.852V18.3l.255-.143a11.1,11.1,0,0,0,4.256-4.053,11.977,11.977,0,0,0,1.523-5.379h-6.034V4.485h6.056V.7h4.639V4.485h10.094V16.35a6.375,6.375,0,0,1-1.437,4.573,6.052,6.052,0,0,1-4.5,1.485h-4.986V18.093h4.189a2.224,2.224,0,0,0,1.587-.435,2.264,2.264,0,0,0,.431-1.582V8.725H540.81a16.912,16.912,0,0,1-3.207,9,14.07,14.07,0,0,1-6.767,4.907Zm1-3.975v2.555A13.058,13.058,0,0,0,536.8,17.12a16.125,16.125,0,0,0,3.04-8.925l.028-.47h7.377v8.351a3.128,3.128,0,0,1-.716,2.281,3.081,3.081,0,0,1-2.3.736h-3.189v2.315h3.986a5.128,5.128,0,0,0,3.779-1.182,5.452,5.452,0,0,0,1.155-3.876V5.485H539.868V1.7h-2.639V5.485h-6.056v2.24h6.071l-.014.514A11.961,11.961,0,0,1,531.173,18.882ZM508.39,22.72V18.362l.425-.064a9.42,9.42,0,0,0,5.177-2.262,7.26,7.26,0,0,0,2.134-3.972h-9.905V7.849h22.011v4.215h-7.144a11.581,11.581,0,0,1-4.082,7.49,15.389,15.389,0,0,1-8.058,3.1Zm1-3.5v2.37a14.067,14.067,0,0,0,6.985-2.808,10.748,10.748,0,0,0,3.783-7.277l.056-.437h7.018V8.849H507.221v2.215h10.066l-.076.567a8.381,8.381,0,0,1-2.533,5.132A10.144,10.144,0,0,1,509.39,19.217Zm129.726,3.416a5.165,5.165,0,0,1-3.521-1.134,4.249,4.249,0,0,1-1.316-3.354V14.381a1.766,1.766,0,0,0-.145-.853.2.2,0,0,0-.2-.117,2.87,2.87,0,0,0-1.8,1.135,7.409,7.409,0,0,0-1.534,2.347,51.986,51.986,0,0,0-1.464,5.136l-.095.379h-4.757l.17-.631c2.37-8.765,4.513-15.658,6.372-20.486l.123-.32h5l-.318.705c-.962,2.137-2,4.822-3.089,8a4.84,4.84,0,0,1,2.434-.654c1.672,0,3.665.748,3.665,4.313v4.013c0,.521.182.7.721.7.846,0,1.552-.73,2.1-2.17a18.725,18.725,0,0,0,.914-6.159l.006-.494h4.567l-.01.509a21.27,21.27,0,0,1-1.694,8.706C643.9,21.221,641.837,22.632,639.115,22.632ZM633.931,12.41c.5,0,1.347.256,1.347,1.971v3.764a3.259,3.259,0,0,0,.977,2.6,4.211,4.211,0,0,0,2.86.885c2.338,0,4.05-1.188,5.232-3.631a19.7,19.7,0,0,0,1.582-7.781h-2.561a18.936,18.936,0,0,1-.969,6.006c-.711,1.87-1.732,2.817-3.035,2.817a1.556,1.556,0,0,1-1.721-1.7V13.334c0-2.97-1.521-3.313-2.665-3.313a4.217,4.217,0,0,0-3.083,1.421l-.831-.508c1.177-3.547,2.3-6.557,3.346-8.963h-2.776c-1.773,4.661-3.8,11.195-6.046,19.437h2.67a48.387,48.387,0,0,1,1.407-4.878,8.394,8.394,0,0,1,1.734-2.665A3.644,3.644,0,0,1,633.931,12.41ZM473.374,22.632a5.165,5.165,0,0,1-3.521-1.134,4.249,4.249,0,0,1-1.316-3.354V14.381a1.766,1.766,0,0,0-.145-.853.2.2,0,0,0-.2-.117,2.87,2.87,0,0,0-1.8,1.135,7.408,7.408,0,0,0-1.534,2.347,51.98,51.98,0,0,0-1.464,5.136l-.095.379h-4.757l.17-.631c2.369-8.765,4.513-15.658,6.371-20.486L465.2.97h5l-.318.705c-.963,2.138-2,4.823-3.089,8a4.84,4.84,0,0,1,2.434-.653c1.672,0,3.665.748,3.665,4.313v4.013c0,.521.182.7.721.7.846,0,1.553-.73,2.1-2.17a18.727,18.727,0,0,0,.915-6.159l.006-.494h4.567l-.01.509a21.271,21.271,0,0,1-1.694,8.706C478.159,21.221,476.1,22.632,473.374,22.632ZM468.19,12.41c.5,0,1.347.256,1.347,1.971v3.764a3.259,3.259,0,0,0,.977,2.6,4.21,4.21,0,0,0,2.86.885c2.338,0,4.05-1.188,5.233-3.631a19.7,19.7,0,0,0,1.582-7.781h-2.561a18.938,18.938,0,0,1-.969,6.006c-.71,1.87-1.731,2.817-3.035,2.817a1.556,1.556,0,0,1-1.721-1.7V13.334c0-2.97-1.521-3.313-2.665-3.313a4.217,4.217,0,0,0-3.083,1.421l-.831-.508c1.177-3.547,2.3-6.557,3.346-8.963h-2.776c-1.773,4.661-3.805,11.195-6.046,19.437h2.67a48.387,48.387,0,0,1,1.407-4.878,8.394,8.394,0,0,1,1.733-2.665A3.644,3.644,0,0,1,468.19,12.41ZM319.321,22.632A5.165,5.165,0,0,1,315.8,21.5a4.248,4.248,0,0,1-1.316-3.354V14.381a1.766,1.766,0,0,0-.145-.853.2.2,0,0,0-.2-.117,2.87,2.87,0,0,0-1.8,1.135,7.411,7.411,0,0,0-1.534,2.347,52,52,0,0,0-1.464,5.136l-.095.379h-4.757l.17-.631c2.37-8.766,4.513-15.658,6.372-20.486l.123-.32h5l-.318.705c-.962,2.137-2,4.822-3.089,8a4.84,4.84,0,0,1,2.434-.654c1.672,0,3.665.748,3.665,4.313v4.013c0,.521.182.7.721.7.846,0,1.553-.73,2.1-2.17a18.721,18.721,0,0,0,.915-6.159l.006-.494h4.567l-.01.509a21.271,21.271,0,0,1-1.694,8.706C324.106,21.221,322.043,22.632,319.321,22.632ZM314.137,12.41c.5,0,1.347.256,1.347,1.97v3.764a3.259,3.259,0,0,0,.977,2.6,4.21,4.21,0,0,0,2.86.885c2.338,0,4.05-1.188,5.233-3.631a19.7,19.7,0,0,0,1.582-7.781h-2.561a18.932,18.932,0,0,1-.969,6.006c-.71,1.87-1.731,2.817-3.035,2.817a1.556,1.556,0,0,1-1.721-1.7V13.334c0-2.97-1.521-3.313-2.665-3.313a4.217,4.217,0,0,0-3.083,1.421l-.831-.508c1.177-3.547,2.3-6.557,3.346-8.963h-2.776c-1.773,4.661-3.805,11.195-6.046,19.437h2.67a48.392,48.392,0,0,1,1.407-4.878,8.4,8.4,0,0,1,1.733-2.665A3.644,3.644,0,0,1,314.137,12.41ZM154.1,22.632a5.165,5.165,0,0,1-3.521-1.134,4.249,4.249,0,0,1-1.316-3.354V14.381a1.765,1.765,0,0,0-.145-.853.2.2,0,0,0-.2-.117,2.87,2.87,0,0,0-1.8,1.135,7.409,7.409,0,0,0-1.534,2.347,51.973,51.973,0,0,0-1.464,5.136l-.095.379h-4.757l.17-.631c2.369-8.765,4.513-15.658,6.372-20.486l.123-.32h5l-.318.705c-.962,2.137-2,4.822-3.089,8a4.839,4.839,0,0,1,2.434-.654c1.672,0,3.665.748,3.665,4.313v4.013c0,.521.182.7.721.7.846,0,1.553-.73,2.1-2.17a18.722,18.722,0,0,0,.915-6.159l.006-.494h4.567l-.01.509a21.271,21.271,0,0,1-1.694,8.706C158.888,21.221,156.824,22.632,154.1,22.632ZM148.918,12.41c.5,0,1.347.256,1.347,1.971v3.764a3.259,3.259,0,0,0,.977,2.6,4.21,4.21,0,0,0,2.86.885c2.338,0,4.05-1.188,5.233-3.631a19.7,19.7,0,0,0,1.582-7.781h-2.561a18.932,18.932,0,0,1-.969,6.006c-.71,1.87-1.731,2.817-3.035,2.817a1.556,1.556,0,0,1-1.721-1.7V13.334c0-2.97-1.521-3.313-2.665-3.313a4.217,4.217,0,0,0-3.083,1.421l-.831-.508c1.177-3.547,2.3-6.557,3.346-8.963h-2.776c-1.773,4.661-3.805,11.195-6.046,19.437h2.67a48.394,48.394,0,0,1,1.407-4.878,8.394,8.394,0,0,1,1.733-2.665A3.644,3.644,0,0,1,148.918,12.41ZM612.348,22.557a14.951,14.951,0,0,1-7.533-1.566A5.472,5.472,0,0,1,601.953,16a5.475,5.475,0,0,1,2.237-4.52,9.159,9.159,0,0,1,5.74-1.687,17.836,17.836,0,0,1,4.274.517c-.317-.6-.659-1.27-1.022-2.01h-11.7V4.111h9.749c-.414-.941-.772-1.809-1.068-2.588L609.9.846h4.937l.12.328c.38,1.036.744,1.98,1.086,2.812h7.07v4.14h-5.285c.94,2.073,2.044,4.348,3.286,6.774l.373.728h-4.826l-.135-.1a9.8,9.8,0,0,0-6.125-1.815,5.776,5.776,0,0,0-2.993.662,1.732,1.732,0,0,0-.969,1.554c0,1.57,1.978,2.366,5.88,2.366a45.447,45.447,0,0,0,8.036-.715l.589-.106V21.84l-.426.064A55.412,55.412,0,0,1,612.348,22.557ZM609.93,10.793a8.2,8.2,0,0,0-5.127,1.478,4.463,4.463,0,0,0-1.85,3.73,4.476,4.476,0,0,0,2.371,4.13,14.017,14.017,0,0,0,7.023,1.426,53.863,53.863,0,0,0,7.6-.58V18.664a46.509,46.509,0,0,1-7.625.629,12.56,12.56,0,0,1-4.99-.76,2.777,2.777,0,0,1-1.89-2.606,2.714,2.714,0,0,1,1.449-2.409,6.732,6.732,0,0,1,3.512-.808,10.856,10.856,0,0,1,6.6,1.919h2.855c-1.239-2.444-2.333-4.728-3.255-6.8l-.313-.7h5.828V4.986h-6.737l-.128-.307c-.348-.832-.72-1.784-1.109-2.833h-2.783c.312.78.678,1.638,1.095,2.559l.319.706H602.479V7.3h11.327l.137.281c.64,1.313,1.214,2.419,1.706,3.288l.63,1.112-1.217-.39A16.793,16.793,0,0,0,609.93,10.793ZM446.606,22.557a14.951,14.951,0,0,1-7.533-1.566A5.472,5.472,0,0,1,436.211,16a5.475,5.475,0,0,1,2.238-4.52,9.159,9.159,0,0,1,5.74-1.687,17.835,17.835,0,0,1,4.274.517c-.317-.6-.659-1.27-1.022-2.01h-11.7V4.111h9.749c-.415-.943-.773-1.81-1.068-2.588l-.257-.677H449.1l.12.328c.38,1.037.744,1.982,1.086,2.812h7.07v4.14h-5.285c.94,2.073,2.043,4.348,3.286,6.774l.373.728h-4.826l-.135-.1a9.8,9.8,0,0,0-6.125-1.815,5.777,5.777,0,0,0-2.993.662,1.732,1.732,0,0,0-.969,1.554c0,1.57,1.979,2.366,5.88,2.366a45.447,45.447,0,0,0,8.036-.715l.589-.106V21.84l-.426.064A55.409,55.409,0,0,1,446.606,22.557Zm-2.418-11.764a8.2,8.2,0,0,0-5.127,1.478,4.463,4.463,0,0,0-1.85,3.73,4.476,4.476,0,0,0,2.371,4.13,14.017,14.017,0,0,0,7.023,1.426,53.86,53.86,0,0,0,7.6-.58V18.664a46.508,46.508,0,0,1-7.625.629,12.56,12.56,0,0,1-4.99-.76,2.777,2.777,0,0,1-1.89-2.606,2.714,2.714,0,0,1,1.449-2.409,6.733,6.733,0,0,1,3.512-.808,10.857,10.857,0,0,1,6.6,1.919h2.855c-1.239-2.445-2.333-4.728-3.255-6.8l-.313-.7h5.828V4.986h-6.737l-.128-.307c-.347-.83-.72-1.782-1.109-2.833h-2.783c.311.779.678,1.636,1.095,2.559l.319.706H436.737V7.3h11.327l.137.281c.641,1.314,1.214,2.42,1.705,3.288l.63,1.113-1.217-.39A16.791,16.791,0,0,0,444.188,10.793ZM292.553,22.557a14.951,14.951,0,0,1-7.533-1.566A5.472,5.472,0,0,1,282.158,16a5.475,5.475,0,0,1,2.238-4.52,9.159,9.159,0,0,1,5.74-1.687,17.836,17.836,0,0,1,4.274.517c-.317-.6-.659-1.27-1.022-2.01h-11.7V4.111h9.749c-.414-.942-.773-1.809-1.068-2.588l-.257-.677h4.937l.12.328c.38,1.037.744,1.982,1.086,2.812h7.07v4.14h-5.285c.94,2.073,2.043,4.347,3.286,6.774l.373.728h-4.826l-.135-.1a9.8,9.8,0,0,0-6.125-1.815,5.776,5.776,0,0,0-2.993.662,1.732,1.732,0,0,0-.969,1.554c0,1.57,1.978,2.366,5.88,2.366a45.446,45.446,0,0,0,8.036-.715l.589-.106V21.84l-.426.064A55.41,55.41,0,0,1,292.553,22.557Zm-2.418-11.764a8.2,8.2,0,0,0-5.127,1.478,4.463,4.463,0,0,0-1.85,3.73,4.476,4.476,0,0,0,2.371,4.13,14.017,14.017,0,0,0,7.023,1.426,53.862,53.862,0,0,0,7.6-.58V18.664a46.507,46.507,0,0,1-7.625.629,12.56,12.56,0,0,1-4.99-.76,2.777,2.777,0,0,1-1.89-2.606,2.714,2.714,0,0,1,1.449-2.409,6.733,6.733,0,0,1,3.512-.808,10.857,10.857,0,0,1,6.6,1.919h2.855c-1.24-2.445-2.333-4.729-3.255-6.8l-.313-.7h5.828V4.986h-6.737l-.128-.307c-.347-.83-.72-1.782-1.109-2.833h-2.783c.311.779.678,1.637,1.095,2.559l.319.706H282.685V7.3h11.327l.137.281c.641,1.314,1.214,2.42,1.705,3.288l.63,1.112-1.217-.39A16.792,16.792,0,0,0,290.135,10.793Zm-162.8,11.764a14.952,14.952,0,0,1-7.533-1.566A5.472,5.472,0,0,1,116.94,16a5.475,5.475,0,0,1,2.238-4.52,9.159,9.159,0,0,1,5.74-1.687,17.836,17.836,0,0,1,4.274.517c-.317-.6-.659-1.27-1.022-2.01h-11.7V4.111h9.749c-.414-.942-.773-1.81-1.068-2.588L124.89.846h4.937l.12.328c.38,1.037.744,1.982,1.086,2.812h7.07v4.14h-5.285c.94,2.072,2.043,4.347,3.286,6.774l.373.728h-4.826l-.135-.1a9.8,9.8,0,0,0-6.125-1.815,5.776,5.776,0,0,0-2.993.662,1.732,1.732,0,0,0-.969,1.554c0,1.57,1.979,2.366,5.881,2.366a45.446,45.446,0,0,0,8.036-.715l.589-.106V21.84l-.426.064A55.411,55.411,0,0,1,127.335,22.557Zm-2.417-11.764a8.2,8.2,0,0,0-5.127,1.478A4.463,4.463,0,0,0,117.94,16a4.476,4.476,0,0,0,2.371,4.131,14.018,14.018,0,0,0,7.023,1.426,53.862,53.862,0,0,0,7.6-.58V18.664a46.508,46.508,0,0,1-7.625.629,12.56,12.56,0,0,1-4.99-.76,2.777,2.777,0,0,1-1.89-2.606,2.714,2.714,0,0,1,1.449-2.409,6.732,6.732,0,0,1,3.512-.808,10.857,10.857,0,0,1,6.6,1.919h2.855c-1.24-2.445-2.333-4.729-3.255-6.8l-.313-.7H137.1V4.986h-6.737l-.128-.307c-.347-.83-.72-1.782-1.109-2.833h-2.783c.311.779.678,1.637,1.095,2.559l.319.706H117.466V7.3h11.327l.137.281c.641,1.314,1.214,2.42,1.705,3.288l.63,1.112-1.217-.39A16.792,16.792,0,0,0,124.917,10.793ZM659.177,22.5V18.245l.445-.049a7.63,7.63,0,0,0,4.428-1.841,6.484,6.484,0,0,0,1.931-5.04,5.364,5.364,0,0,0-3.965-5.357c-.82,5.9-2.041,10.212-3.632,12.82a4.884,4.884,0,0,1-4.29,2.657,5.072,5.072,0,0,1-4.033-2.236,9.5,9.5,0,0,1-1.875-6.04A11.326,11.326,0,0,1,659.9,1.494,10.81,10.81,0,0,1,667.7,4.3a9.581,9.581,0,0,1,2.82,7.164c0,3.557-1.131,6.351-3.361,8.3a11.719,11.719,0,0,1-7.463,2.715Zm1-3.371v2.322a10.528,10.528,0,0,0,6.324-2.44,8.326,8.326,0,0,0,2.258-3.187,11.67,11.67,0,0,0,.761-4.362,8.618,8.618,0,0,0-2.515-6.446,9.848,9.848,0,0,0-7.1-2.525,11.64,11.64,0,0,0-4.344.78,9.926,9.926,0,0,0-3.447,2.333,10.262,10.262,0,0,0-2.192,3.4,11.431,11.431,0,0,0-.732,4.15,8.53,8.53,0,0,0,1.662,5.423,4.079,4.079,0,0,0,3.246,1.853,3.9,3.9,0,0,0,3.436-2.177c1.568-2.57,2.769-6.941,3.57-12.99l.071-.54.532.118a6.591,6.591,0,0,1,3.953,2.4,6.458,6.458,0,0,1,1.324,4.067,7.525,7.525,0,0,1-2.253,5.775A8.414,8.414,0,0,1,660.177,19.132ZM380.209,22.458a6.3,6.3,0,0,1-3.623-.96,4.031,4.031,0,0,1-1.737-3.578,4.8,4.8,0,0,1,2.593-4.39,14.907,14.907,0,0,1,6.735-1.5c-.131-.706-.626-1.359-2.3-1.359a9.13,9.13,0,0,0-4.769,1.594l-.429.269L374.6,9.1l.472-.247a15.354,15.354,0,0,1,7.111-1.926,8.149,8.149,0,0,1,4.878,1.233,4.456,4.456,0,0,1,1.728,3.8v10.2H384.22v-.791A7.446,7.446,0,0,1,380.209,22.458Zm1.67-12.789a3.756,3.756,0,0,1,2.437.7,2.662,2.662,0,0,1,.9,2.138l.005.495-.495.011a14.674,14.674,0,0,0-6.789,1.385,3.816,3.816,0,0,0-2.093,3.524,3.052,3.052,0,0,0,1.3,2.75,5.34,5.34,0,0,0,3.061.787A6.325,6.325,0,0,0,384.4,20l.822-.69v1.844h2.564v-9.2a3.466,3.466,0,0,0-1.325-3,7.221,7.221,0,0,0-4.281-1.035A14.054,14.054,0,0,0,376.007,9.5l1.006,1.655A9.76,9.76,0,0,1,381.879,9.669Zm45.037,12.764a6.86,6.86,0,0,1-5.171-2,7.973,7.973,0,0,1-2.009-5.78A7.884,7.884,0,0,1,421.75,8.9a6.906,6.906,0,0,1,5.166-1.968A6.824,6.824,0,0,1,432.062,8.9a8.007,8.007,0,0,1,1.958,5.755,8.058,8.058,0,0,1-1.919,5.74A6.833,6.833,0,0,1,426.916,22.433Zm0-14.505A5.872,5.872,0,0,0,422.464,9.6a6.934,6.934,0,0,0-1.728,5.06,7.022,7.022,0,0,0,1.727,5.084,6.663,6.663,0,0,0,8.912-.032,7.108,7.108,0,0,0,1.645-5.052,7.056,7.056,0,0,0-1.68-5.062A5.79,5.79,0,0,0,426.916,7.927ZM396.933,22.433c-3.5,0-5.9-1.3-7.13-3.873l-.216-.45,4.132-1.986.208.475a3.082,3.082,0,0,0,3.006,2.093c2.291,0,2.291-.787,2.291-1.045,0-.375-.738-.721-1.975-.927a32.3,32.3,0,0,1-4.565-.951,4.437,4.437,0,0,1-2.013-1.466,3.8,3.8,0,0,1-.694-2.288A4.447,4.447,0,0,1,391.821,8.3l.007-.006a8.5,8.5,0,0,1,5.08-1.367c3.26,0,5.53,1.171,6.748,3.482l.245.466-3.983,1.846-.217-.434a3.012,3.012,0,0,0-2.992-1.618,4.015,4.015,0,0,0-1.734.281.582.582,0,0,0-.383.565c0,.369.734.7,1.965.876a24.8,24.8,0,0,1,4.561.957h0a4.02,4.02,0,0,1,2.7,3.974,4.438,4.438,0,0,1-1.99,3.9A8.63,8.63,0,0,1,396.933,22.433Zm-6-3.863c1.117,1.925,3.084,2.863,6,2.863a7.682,7.682,0,0,0,4.329-1.035,3.448,3.448,0,0,0,1.551-3.076,3.059,3.059,0,0,0-2.085-3.053l0,0a23.189,23.189,0,0,0-4.315-.888,5.665,5.665,0,0,1-1.967-.577,1.459,1.459,0,0,1-.85-1.288,1.57,1.57,0,0,1,.926-1.454,4.857,4.857,0,0,1,2.191-.392,4.039,4.039,0,0,1,3.645,1.748l2.15-1c-1.091-1.676-2.928-2.493-5.6-2.493A7.545,7.545,0,0,0,392.421,9.1a3.449,3.449,0,0,0-1.443,2.913,2.862,2.862,0,0,0,2.077,2.825,30.4,30.4,0,0,0,4.36.894,5.765,5.765,0,0,1,1.967.618,1.485,1.485,0,0,1,.843,1.3c0,.933-.571,2.045-3.291,2.045a3.953,3.953,0,0,1-3.7-2.227Zm19.08,3.838a5.086,5.086,0,0,1-3.811-1.423,5.621,5.621,0,0,1-1.375-4.062V7.176H409.4v8.775a3.461,3.461,0,0,0,.259,1.623l0,.007c.132.241.4.562,1.231.562a2.909,2.909,0,0,0,1.866-.826,3.372,3.372,0,0,0,1.1-1.514V7.176h4.564V22.159h-4.564V21.1a7.009,7.009,0,0,1-1.071.657l-.007,0A6.339,6.339,0,0,1,410.018,22.408ZM405.832,8.176v8.747a4.676,4.676,0,0,0,1.092,3.365,4.077,4.077,0,0,0,3.093,1.119,5.43,5.43,0,0,0,3.96-1.773l.876-1v2.525h2.564V8.176h-2.564v7.769l-.019.067a4.278,4.278,0,0,1-1.428,2.065,3.863,3.863,0,0,1-2.517,1.066,2.2,2.2,0,0,1-2.107-1.08,4.414,4.414,0,0,1-.386-2.111V8.176ZM195.152,22.408a10.931,10.931,0,0,1-5.173-1.057,8.126,8.126,0,0,1-3.75-4.79l-.165-.483,4.522-1.444.171.437a4.717,4.717,0,0,0,1.921,2.536l.006,0a5.009,5.009,0,0,0,2.467.507,3.34,3.34,0,0,0,2.043-.573,1.741,1.741,0,0,0,.7-1.494,1.59,1.59,0,0,0-.921-1.461,11.125,11.125,0,0,0-2.706-.894,19.046,19.046,0,0,1-4.949-1.6,5.225,5.225,0,0,1-2.64-4.843,5.413,5.413,0,0,1,2.172-4.443,8.728,8.728,0,0,1,5.531-1.665c3.979,0,6.78,1.621,8.326,4.818l.239.495L198.61,8.071l-.208-.378a4.174,4.174,0,0,0-1.818-1.857l-.007,0a5.451,5.451,0,0,0-2.348-.423,3.323,3.323,0,0,0-2.172.632,1.422,1.422,0,0,0-.568,1.136,1.378,1.378,0,0,0,.748,1.262,9.5,9.5,0,0,0,2.3.743c1.958.439,3.122.72,3.555.858a8.094,8.094,0,0,1,3.317,1.842,5.341,5.341,0,0,1,1.467,3.893,5.884,5.884,0,0,1-2.8,5.308A8.977,8.977,0,0,1,195.152,22.408Zm-7.8-5.691a6.931,6.931,0,0,0,3.1,3.753,9.974,9.974,0,0,0,4.7.938,8,8,0,0,0,4.391-1.167,4.882,4.882,0,0,0,2.337-4.464,4.318,4.318,0,0,0-1.178-3.189,7.129,7.129,0,0,0-2.91-1.593c-.4-.128-1.568-.409-3.472-.836a10.151,10.151,0,0,1-2.581-.851l-.009-.005a2.43,2.43,0,0,1-.312-4.028,4.277,4.277,0,0,1,2.812-.864,6.411,6.411,0,0,1,2.786.524h0a4.932,4.932,0,0,1,2.043,1.9l2.491-.927a7,7,0,0,0-2.61-2.7,9.052,9.052,0,0,0-4.561-1.067A7.763,7.763,0,0,0,189.467,3.6a4.4,4.4,0,0,0-1.79,3.657,4.234,4.234,0,0,0,2.145,3.98l.007,0a18.6,18.6,0,0,0,4.663,1.486,11.8,11.8,0,0,1,2.98,1,2.6,2.6,0,0,1,1.422,2.328,2.716,2.716,0,0,1-1.1,2.294,4.305,4.305,0,0,1-2.643.773,5.969,5.969,0,0,1-2.96-.637,5.364,5.364,0,0,1-2.184-2.612Zm391.423,5.658V17.9l.463-.034c4.584-.34,8.01-1.331,10.182-2.944A10.11,10.11,0,0,0,592.5,11.17a17,17,0,0,0,1.51-5.665l.048-.447h4.758l-.047.543a22.519,22.519,0,0,1-1.813,7.418,14.27,14.27,0,0,1-4,5.241,16.9,16.9,0,0,1-5.8,2.931,31.417,31.417,0,0,1-7.852,1.167Zm1-3.545v2.507c5.46-.254,9.679-1.551,12.546-3.857a13.278,13.278,0,0,0,3.722-4.878,21.05,21.05,0,0,0,1.674-6.545h-2.768c-.553,4.416-2.212,7.668-4.934,9.673C587.764,17.4,584.32,18.443,579.774,18.831ZM373.553,22.159h-4.745l-.343-11.1-3.775,8.961h-3.883l-3.573-8.738-.212,10.882h-4.7l.733-20.789h4.505l5.225,12.583,5.249-12.583h4.651Zm-3.775-1h2.733l-.781-18.789H368.7l-5.917,14.185L356.9,2.369h-2.872l-.663,18.789h2.68l.24-12.32.963-.18,4.235,10.356h2.548l4.407-10.461.961.179Zm-90.707,1h-4.515l-7.5-11.969V22.159h-4.689V1.369h4.518l7.471,12.12V1.369h4.714Zm-3.962-1h2.962V2.369h-2.714V17.017L266.328,2.369h-2.959V21.159h2.689V6.709Zm-14.482,1H244.8l-5.633-8.522L237,15.926v6.232h-4.788V1.369H237V9.612l7.605-8.243h15.972v4.19h-2.841V17.968h2.891ZM242.4,10.219l7.706,11.171V17.968h2.866V5.559h-2.791V2.019Zm8.706,10.94h8.521v-2.19h-2.891V4.559h2.841V2.369h-8.4v2.19h2.791V18.968h-2.866Zm-5.764,0h3.39l-7.615-11.04,7.354-7.749h-3.427L236,12.171v-9.8h-2.788V21.159H236V15.527l3.312-3.492Zm-14.873,1H219.949v-4.19h2.866V5.559h-2.791V1.369h10.4v4.19h-2.841V17.968h2.891Zm-9.521-1h8.521v-2.19h-2.891V4.559h2.841V2.369h-8.4v2.19h2.791V18.968h-2.866Zm-1.969,1H204.2V1.369H218.98v4.34h-9.994V9.2h8.8V13.56h-8.8v4.234h9.994Zm-13.783-1H217.98V18.794h-9.994V12.56h8.8V10.2h-8.8V4.709h9.994V2.369H205.2Zm-91.345,1h-4.515l-7.5-11.969V22.159H97.151V1.369h4.518l7.471,12.12V1.369h4.714Zm-3.962-1h2.962V2.369h-2.714V17.017L101.11,2.369H98.151V21.159h2.689V6.709Zm-14.482,1H79.586l-5.633-8.522-2.172,2.29v6.232H66.993V1.369h4.788V9.612l7.605-8.243H95.359v4.19H92.518V17.968h2.891ZM77.182,10.219,84.888,21.39V17.968h2.866V5.559H84.963V2.019Zm8.706,10.94h8.521v-2.19H91.518V4.559h2.841V2.369h-8.4v2.19h2.791V18.968H85.888Zm-5.764,0h3.39L75.9,10.119l7.354-7.749H79.825l-9.044,9.8v-9.8H67.993V21.159h2.788V15.527l3.312-3.492Zm-13.669,1H61.477l-1.47-4.337H53.053l-1.4,4.337H42.65l-5.633-8.522-2.171,2.29v6.232H30.056V1.369h4.788V9.612L42.45,1.369h6.193l-8.4,8.849,7.06,10.235L53.7,1.369h5.424Zm-4.261-1h2.848L58.416,2.369h-4L48.124,21.159h2.8l1.4-4.337h8.4Zm-19.007,0h3.39l-7.615-11.04,7.354-7.749H42.888l-9.043,9.8v-9.8H31.056V21.159h2.788V15.527l3.312-3.492Zm-14.873,1H17.794v-4.19H20.66V5.559H17.869V1.369h10.4v4.19H25.424V17.968h2.891Zm-9.521-1h8.521v-2.19H24.424V4.559h2.841V2.369h-8.4v2.19H21.66V18.968H18.794Zm-2.767,1H11.264V13.41H4.288v8.748H-.5V1.369H4.288V9.021h6.976V1.369h4.763Zm-3.763-1h2.763V2.369H12.264v7.652H3.288V2.369H.5V21.159H3.288V12.41h8.976Zm368.469-1.467c-2.083,0-2.394-1.344-2.394-2.145,0-.865.417-2.017,2.4-2.6a18.79,18.79,0,0,1,3.951-.518l.528-.03v3.244l-.166.149A6.489,6.489,0,0,1,380.733,19.691Zm3.488-4.23a16.2,16.2,0,0,0-3.2.446c-1.512.443-1.686,1.148-1.686,1.639,0,.595.169,1.145,1.394,1.145a5.4,5.4,0,0,0,3.488-1.5Zm42.7,3.856c-1.638,0-3.591-.809-3.591-4.662,0-3.833,1.953-4.637,3.591-4.637s3.566.8,3.566,4.637C430.482,18.508,428.543,19.317,426.916,19.317Zm0-8.3c-1.112,0-2.591.377-2.591,3.637,0,3.283,1.478,3.662,2.591,3.662s2.566-.38,2.566-3.662C429.482,11.395,428.017,11.018,426.916,11.018Zm227.129,6.929c-.629,0-1.2-.456-1.752-1.393a6.631,6.631,0,0,1-.841-3.394,9,9,0,0,1,1.716-5.429A7.406,7.406,0,0,1,658.13,4.74l.657-.1L658.7,5.3a38.555,38.555,0,0,1-2.355,10.031C655.549,17.14,654.839,17.946,654.045,17.946ZM657.62,5.861a6.3,6.3,0,0,0-3.648,2.463,8.02,8.02,0,0,0-1.521,4.836,5.649,5.649,0,0,0,.7,2.888c.49.834.8.9.889.9.02,0,.507-.023,1.387-2.02A36,36,0,0,0,657.62,5.861ZM59.989,14.582h-6.94L56.441,4.032Zm-5.568-1H58.6L56.463,7.233ZM589.743,7.823l-.606-.132a71.927,71.927,0,0,0-10.173-1.435l-.465-.033V1.66l.532.034a77.24,77.24,0,0,1,10.311,1.38l.4.081ZM579.5,5.293a73.068,73.068,0,0,1,9.244,1.293V3.974A76.373,76.373,0,0,0,579.5,2.728Zm-52.639.541H507.717V1.544h14.73V-.5h6.309V4.064h-1.894Zm-18.144-1h17.144V3.064h1.894V.5h-1.168V2.544h-1.972V.5h-1.168V2.544h-14.73Z" transform="matrix(0.996, -0.087, 0.087, 0.996, 0, 58.396)" fill="#f095c0"/></g></g></g></g></g></svg>