<svg xmlns="http://www.w3.org/2000/svg" width="515.5" height="908.129" viewBox="0 0 515.5 908.129">
  <g id="txt_apply01_sp" transform="translate(-117.25 -14498.034)">
    <g id="step1" transform="translate(-33.5 407.163)">
      <g id="グループ_691" data-name="グループ 691" transform="translate(0 -1)">
        <path id="パス_1337" data-name="パス 1337" d="M-59.89-8.72A8.65,8.65,0,0,1-64.01-.88a13.565,13.565,0,0,1-7.48,2,16.7,16.7,0,0,1-7.92-1.6,12.217,12.217,0,0,1-5.64-7.24l5.76-1.84a8.29,8.29,0,0,0,3.44,4.48,8.759,8.759,0,0,0,4.36.92,6.106,6.106,0,0,0,3.76-1.08,3.579,3.579,0,0,0,1.44-3.04,3.353,3.353,0,0,0-1.88-3.04,18.425,18.425,0,0,0-4.56-1.52q-5.8-1.32-7.72-2.48a7.6,7.6,0,0,1-3.84-7.08,7.886,7.886,0,0,1,3.18-6.5,13.173,13.173,0,0,1,8.38-2.5q9.12,0,12.64,7.28l-5.48,2.04a7.44,7.44,0,0,0-3.28-3.32,9.471,9.471,0,0,0-4.12-.76,6.069,6.069,0,0,0-4,1.2,3.066,3.066,0,0,0-1.2,2.44,3.012,3.012,0,0,0,1.6,2.72,15.763,15.763,0,0,0,3.92,1.28q4.64,1.04,5.64,1.36a12.159,12.159,0,0,1,5,2.76A7.76,7.76,0,0,1-59.89-8.72Zm28.52-16.96h-9.68V.72h-6.2v-26.4h-9.52v-5.36h25.4ZM-4.25.72H-26.37V-31.04H-4.25v5.36H-20.29v7.2H-6.17v5.4H-20.29v8.4H-4.25ZM26.67-21.16a9.585,9.585,0,0,1-3.16,7.68A11.521,11.521,0,0,1,15.79-11H8.15V.72H2.07V-31.04H15.79a11.958,11.958,0,0,1,7.64,2.28Q26.67-26.16,26.67-21.16Zm-6.28.12a4.409,4.409,0,0,0-1.28-3.32,6.073,6.073,0,0,0-4.4-1.44H8.15v9.6h6.56a6.038,6.038,0,0,0,4.32-1.44A4.449,4.449,0,0,0,20.39-21.04ZM80.85,1.08H51.03V-6.6H62.01V-35.64l-7.86,6-4.44-6.3L63.03-46.02h7.92V-6.6h9.9Z" transform="translate(251 14301)" fill="#2081e2"/>
        <path id="パス_1336" data-name="パス 1336" d="M-59.89-8.72A8.65,8.65,0,0,1-64.01-.88a13.565,13.565,0,0,1-7.48,2,16.7,16.7,0,0,1-7.92-1.6,12.217,12.217,0,0,1-5.64-7.24l5.76-1.84a8.29,8.29,0,0,0,3.44,4.48,8.759,8.759,0,0,0,4.36.92,6.106,6.106,0,0,0,3.76-1.08,3.579,3.579,0,0,0,1.44-3.04,3.353,3.353,0,0,0-1.88-3.04,18.425,18.425,0,0,0-4.56-1.52q-5.8-1.32-7.72-2.48a7.6,7.6,0,0,1-3.84-7.08,7.886,7.886,0,0,1,3.18-6.5,13.173,13.173,0,0,1,8.38-2.5q9.12,0,12.64,7.28l-5.48,2.04a7.44,7.44,0,0,0-3.28-3.32,9.471,9.471,0,0,0-4.12-.76,6.069,6.069,0,0,0-4,1.2,3.066,3.066,0,0,0-1.2,2.44,3.012,3.012,0,0,0,1.6,2.72,15.763,15.763,0,0,0,3.92,1.28q4.64,1.04,5.64,1.36a12.159,12.159,0,0,1,5,2.76A7.76,7.76,0,0,1-59.89-8.72Zm28.52-16.96h-9.68V.72h-6.2v-26.4h-9.52v-5.36h25.4ZM-4.25.72H-26.37V-31.04H-4.25v5.36H-20.29v7.2H-6.17v5.4H-20.29v8.4H-4.25ZM26.67-21.16a9.585,9.585,0,0,1-3.16,7.68A11.521,11.521,0,0,1,15.79-11H8.15V.72H2.07V-31.04H15.79a11.958,11.958,0,0,1,7.64,2.28Q26.67-26.16,26.67-21.16Zm-6.28.12a4.409,4.409,0,0,0-1.28-3.32,6.073,6.073,0,0,0-4.4-1.44H8.15v9.6h6.56a6.038,6.038,0,0,0,4.32-1.44A4.449,4.449,0,0,0,20.39-21.04ZM80.85,1.08H51.03V-6.6H62.01V-35.64l-7.86,6-4.44-6.3L63.03-46.02h7.92V-6.6h9.9Z" transform="translate(247 14301)"/>
      </g>
      <g id="グループ_692" data-name="グループ 692" transform="translate(-3)">
        <path id="長方形_2739" data-name="長方形 2739" d="M4,4V154H493V4H4M0,0H497V158H0Z" transform="translate(163 14307)" fill="#2081e2"/>
        <rect id="長方形_2740" data-name="長方形 2740" width="473" height="133" transform="translate(174 14319)"/>
      </g>
      <path id="パス_2807" data-name="パス 2807" d="M3.3,0H.492L6.656-8.824.879-17.215H3.8l4.395,6.586,4.359-6.586h2.777L9.551-8.824,15.609,0H12.715L8.074-7.078ZM39.1,1.944a15.176,15.176,0,0,1-3.648-4.968,14.553,14.553,0,0,1-1.3-6.1,14.553,14.553,0,0,1,1.3-6.1A15.176,15.176,0,0,1,39.1-20.184H36.96a16.154,16.154,0,0,0-3.336,5.16,15.051,15.051,0,0,0-1.152,5.9,15.051,15.051,0,0,0,1.152,5.9,16.154,16.154,0,0,0,3.336,5.16Zm3.768-21.36a16.337,16.337,0,0,1,.168,2.448v15.7A17.31,17.31,0,0,1,42.864,1.3h1.92a19.973,19.973,0,0,1-.144-2.544v-15.72a18.674,18.674,0,0,1,.144-2.448ZM48.6-1.656A18.632,18.632,0,0,1,48.456.96h1.728V-.624h9.264V.936h1.776a19.973,19.973,0,0,1-.144-2.544V-16.536a19.841,19.841,0,0,1,.1-2.232,19.54,19.54,0,0,1-2.328.1H50.856a21.064,21.064,0,0,1-2.352-.1,21.818,21.818,0,0,1,.1,2.376Zm1.608-15.552h9.24v6.48h-9.24Zm0,7.944h9.24v7.176h-9.24Zm28.155-7.951v2.051h-5.8V0H70.2V-15.164h-5.8v-2.051Zm1.512,4.664L82.289-2.66l2.449-9.891h2.367l2.461,9.832,2.566-9.832h2.109L90.6,0H88.406L85.852-9.715,83.379,0H81.188L77.566-12.551Zm16.359.059h2.145V0H96.234Zm0-4.723h2.145v2.391H96.234Zm5.754,1.16h2.133v3.5h2v1.723h-2v8.191a.886.886,0,0,0,.445.879,1.893,1.893,0,0,0,.82.129q.152,0,.328-.006t.41-.029V0a4.709,4.709,0,0,1-.756.152,7.186,7.186,0,0,1-.85.047,2.29,2.29,0,0,1-2-.756,3.359,3.359,0,0,1-.527-1.963v-8.309h-1.7v-1.723h1.7Zm6.668,0h2.133v3.5h2v1.723h-2v8.191a.886.886,0,0,0,.445.879,1.893,1.893,0,0,0,.82.129q.152,0,.328-.006t.41-.029V0a4.709,4.709,0,0,1-.756.152,7.186,7.186,0,0,1-.85.047,2.29,2.29,0,0,1-2-.756,3.359,3.359,0,0,1-.527-1.963v-8.309h-1.7v-1.723h1.7Zm11.473,3.223a5.725,5.725,0,0,1,2.59.627,4.776,4.776,0,0,1,1.91,1.623,5.6,5.6,0,0,1,.844,2.215A14.491,14.491,0,0,1,125.66-5.6h-9.2a5.368,5.368,0,0,0,.9,3.064,3.021,3.021,0,0,0,2.613,1.154,3.378,3.378,0,0,0,2.637-1.09,3.674,3.674,0,0,0,.8-1.465h2.074a4.369,4.369,0,0,1-.545,1.541A5.481,5.481,0,0,1,123.9-1.008,4.916,4.916,0,0,1,121.523.258,7.227,7.227,0,0,1,119.8.445a5.286,5.286,0,0,1-3.973-1.705A6.634,6.634,0,0,1,114.2-6.035a7.214,7.214,0,0,1,1.641-4.91A5.412,5.412,0,0,1,120.129-12.832Zm3.363,5.555a5.465,5.465,0,0,0-.6-2.191A3.063,3.063,0,0,0,120-10.992a3.209,3.209,0,0,0-2.437,1.049,3.962,3.962,0,0,0-1.043,2.666Zm4.816-5.273h2v2.168a4.79,4.79,0,0,1,1.207-1.541,3.13,3.13,0,0,1,2.215-.908q.059,0,.2.012t.48.047v2.227a3.151,3.151,0,0,0-.346-.047q-.158-.012-.346-.012a3.01,3.01,0,0,0-2.449,1.025,3.579,3.579,0,0,0-.855,2.361V0h-2.109Zm9.435,14.495a16.154,16.154,0,0,0,3.336-5.16,15.051,15.051,0,0,0,1.152-5.9,15.051,15.051,0,0,0-1.152-5.9,16.154,16.154,0,0,0-3.336-5.16h-2.136a14.934,14.934,0,0,1,3.648,4.968,14.553,14.553,0,0,1,1.3,6.1,14.553,14.553,0,0,1-1.3,6.1,14.934,14.934,0,0,1-3.648,4.968Zm24.5-18.624a26.826,26.826,0,0,1,3.144,7.44l1.776-.744a28.994,28.994,0,0,0-3.216-7.368Zm14.64-.792a11.363,11.363,0,0,1-.288,1.992c-1.032,4.584-2.664,7.992-5.16,10.632A17.725,17.725,0,0,1,165.127-.5,4.072,4.072,0,0,1,166.4.96,21.007,21.007,0,0,0,172.807-3.7a23.8,23.8,0,0,0,5.472-10.968,12.48,12.48,0,0,1,.624-2.28Zm10.632,3.552a23.82,23.82,0,0,1,2.544-.1h9.216a23.821,23.821,0,0,1,2.544.1v-1.944a14.941,14.941,0,0,1-2.568.144h-9.168a14.94,14.94,0,0,1-2.568-.144ZM185.1-2.448a21.677,21.677,0,0,1,2.76-.12h13.656a21.448,21.448,0,0,1,2.76.12V-4.464a17.115,17.115,0,0,1-2.784.144H187.879a17.115,17.115,0,0,1-2.784-.144Zm26.088-10.224A19.8,19.8,0,0,1,213.439-7.3l1.632-.552a26.354,26.354,0,0,0-2.376-5.328Zm4.944-1.008a21.055,21.055,0,0,1,2.208,5.256l1.584-.552a24.067,24.067,0,0,0-2.328-5.16Zm8.328-.024v.24a10.087,10.087,0,0,1-.264,1.632,18.108,18.108,0,0,1-2.04,5.16c-1.656,2.76-3.912,4.608-7.608,6.264a4.855,4.855,0,0,1,1.1,1.344A17.4,17.4,0,0,0,223.591-6a21.608,21.608,0,0,0,2.112-5.376,14.163,14.163,0,0,1,.528-1.944ZM240.9-19.56a10.883,10.883,0,0,1-1.512,3.5,17.781,17.781,0,0,1-6.024,6.576A3.569,3.569,0,0,1,234.7-8.232a23.137,23.137,0,0,0,5.736-6.24l8.088-.144a22.052,22.052,0,0,1-4.128,8.04A20.414,20.414,0,0,1,235.927-.5a3.619,3.619,0,0,1,1.2,1.416,23.5,23.5,0,0,0,8.352-6,25.391,25.391,0,0,0,4.8-9.024c.264-.864.264-.888.48-1.176L249.727-16.3a2.358,2.358,0,0,1-1.248.168c-6.936.12-6.936.12-7.248.192a22.952,22.952,0,0,0,1.1-2.136,4.585,4.585,0,0,1,.528-.984ZM276.007.624a59.382,59.382,0,0,0-5.9-8.712l-1.32.816a44.131,44.131,0,0,1,3.624,4.92,101.651,101.651,0,0,1-10.608.984,89.082,89.082,0,0,0,4.7-9.984c.192-.528.288-.768.384-.984a.525.525,0,0,0,.072-.12l-1.848-.552a24.713,24.713,0,0,1-1.392,4.128,52.034,52.034,0,0,1-3.7,7.584c-.792.024-1.056.024-1.56.024-.432,0-1.008-.024-1.608-.048l.384,1.872a17.678,17.678,0,0,1,2.736-.264c4.68-.264,9.048-.7,13.2-1.344.528.936.792,1.392,1.392,2.616Zm-12.936-19.8a9.107,9.107,0,0,1-1.3,3.048,20.372,20.372,0,0,1-6.288,6.48A4.816,4.816,0,0,1,256.639-8.3a26.023,26.023,0,0,0,3.576-3.168,25.973,25.973,0,0,0,4.032-5.832,8.419,8.419,0,0,1,.672-1.224Zm5.328.648a4.79,4.79,0,0,1,.36.672,24.544,24.544,0,0,0,8.112,9.6A5.442,5.442,0,0,1,278-9.72a21.535,21.535,0,0,1-5.28-4.752,16.2,16.2,0,0,1-2.712-4.752Zm26.04,3.24c-.048-1.08-.048-1.56-.048-2.064a13.045,13.045,0,0,1,.144-2.232h-1.848a10.993,10.993,0,0,1,.144,1.872c.024,1.68.024,1.68.048,2.424H282.9a17.093,17.093,0,0,1-2.472-.144V-13.7a19.327,19.327,0,0,1,2.472-.144h10.032a44.729,44.729,0,0,0,.5,5.088,21.318,21.318,0,0,0,2.712,7.9c.936,1.368,1.992,2.184,2.88,2.184A1.8,1.8,0,0,0,300.559.312a11.88,11.88,0,0,0,1.176-3.744,4.162,4.162,0,0,1-1.416-.936c-.384,2.64-.816,3.936-1.344,3.936a1.579,1.579,0,0,1-.768-.456A8.683,8.683,0,0,1,296.215-4.3a23.308,23.308,0,0,1-1.2-4.512,34.778,34.778,0,0,1-.5-5.04h4.3a17.8,17.8,0,0,1,2.472.144v-1.728a14.552,14.552,0,0,1-2.328.144Zm-8.616,6.48V-2.04a27.107,27.107,0,0,1-5.256.744l.36,1.7c.288-.072.744-.168,1.08-.24,3.984-.72,7.2-1.416,10.752-2.352V-3.648c-2.592.7-3.624.96-5.4,1.32v-6.48h2.448a13.326,13.326,0,0,1,2.136.12V-10.3a12.759,12.759,0,0,1-2.16.12h-6.216a12.9,12.9,0,0,1-2.184-.12v1.608a13.652,13.652,0,0,1,2.16-.12ZM299.7-16.776a19.79,19.79,0,0,0-3.048-2.592l-1.1.816a15.446,15.446,0,0,1,3.024,2.688Zm23.928-.936c-.432.168-.432.168-2.04.168H308.7a17.59,17.59,0,0,1-2.856-.168v1.848a23.173,23.173,0,0,1,2.832-.12H322.3a12.733,12.733,0,0,1-2.688,3.576,10.391,10.391,0,0,1-3.792,2.28A4.715,4.715,0,0,1,317-8.76a14.365,14.365,0,0,0,7.008-6.84,4.307,4.307,0,0,1,.576-.96Zm-10.464,4.176a6.336,6.336,0,0,1,.1,1.3c0,4.68-.936,7.128-3.48,9.168a11.278,11.278,0,0,1-4.392,2.208,4.693,4.693,0,0,1,1.1,1.608,13.074,13.074,0,0,0,6.144-4.152c1.632-2.064,2.3-4.44,2.376-8.448a8.706,8.706,0,0,1,.1-1.68Zm19.344-.936a13.221,13.221,0,0,1-2.592-.168l.024,1.824a14.468,14.468,0,0,1,2.544-.12l4.368-.024a15.616,15.616,0,0,1-1.488,5.712,14.038,14.038,0,0,1-6.24,6.312A4.973,4.973,0,0,1,330.343.48a17.332,17.332,0,0,0,6.288-6.36,18.1,18.1,0,0,0,1.92-7.08l6.72-.024a52.845,52.845,0,0,1-.6,8.52c-.456,2.376-.84,2.952-2.016,2.952a10.134,10.134,0,0,1-3.1-.624,3.946,3.946,0,0,1,.264,1.512v.288A13.66,13.66,0,0,0,342.8.072c2.16,0,2.88-.864,3.48-4.152a65.471,65.471,0,0,0,.672-8.4,3.594,3.594,0,0,1,.192-1.44l-.888-.768a3.834,3.834,0,0,1-1.584.168l-6,.024c.072-.672.072-.96.12-1.7a20.035,20.035,0,0,1,.192-3.1l-1.944-.048a6.434,6.434,0,0,1,.1,1.248c0,1.056-.048,2.376-.144,3.6Zm30.96-.84V-17.76a9.422,9.422,0,0,1,.12-1.512h-2.016a7.531,7.531,0,0,1,.12,1.536v2.424H356.6a20.5,20.5,0,0,1-2.208-.1,15.7,15.7,0,0,1,.1,1.944v3.24c0,.624-.048,1.392-.1,1.8h1.968a17.093,17.093,0,0,1-.072-1.776v-3.6h13.1c-.456,4.872-2.208,8.16-5.568,10.488a15.847,15.847,0,0,1-5.3,2.328,4.915,4.915,0,0,1,1.1,1.632,18.815,18.815,0,0,0,7.032-3.984A14.955,14.955,0,0,0,371-12.1c.312-2.04.312-2.04.528-2.424l-.984-.936a5.345,5.345,0,0,1-2.016.144Zm14.976-.36a26.5,26.5,0,0,1,5.712,4.7l1.248-1.488a31.265,31.265,0,0,0-5.784-4.512Zm.168,15.6a12.611,12.611,0,0,1,1.44-.384A24.2,24.2,0,0,0,389-4.032a21.05,21.05,0,0,0,7.32-9.168,4.807,4.807,0,0,1-1.464-1.416,18.135,18.135,0,0,1-9.792,10.68,20.89,20.89,0,0,1-6.984,1.848Zm29.256.816a16.322,16.322,0,0,1-.12-2.544V-9.024a8.383,8.383,0,0,0-.1-1.416l.048-.024a2.648,2.648,0,0,0,.744.408A48.932,48.932,0,0,1,417.391-5.3l1.032-1.776a59.521,59.521,0,0,0-10.68-5.064v-4.488a15.064,15.064,0,0,1,.12-2.5H405.8a14.23,14.23,0,0,1,.144,2.448v14.9A15.436,15.436,0,0,1,405.8.744ZM14.637,30.535a1.981,1.981,0,0,0-.486-1.307,1.657,1.657,0,0,0-1.342-.58,2.77,2.77,0,0,0-2.314,1.576,5.909,5.909,0,0,0-.979,3.135,2.669,2.669,0,0,0,.5,1.752,1.581,1.581,0,0,0,1.266.6,2.724,2.724,0,0,0,2.467-1.846A7.835,7.835,0,0,0,14.637,30.535ZM12.3,41.5a9.443,9.443,0,0,1-7.547-3.059,8.388,8.388,0,0,1-2.121-5.66,9,9,0,0,1,2.578-6.492,10.147,10.147,0,0,1,7.676-2.977,9.574,9.574,0,0,1,6.563,2.109,6.6,6.6,0,0,1,2.238,5.168,6.836,6.836,0,0,1-1.6,4.564,4.642,4.642,0,0,1-3.58,1.893,2.318,2.318,0,0,1-1.711-.557,1.839,1.839,0,0,1-.551-1.342,1.64,1.64,0,0,1,.023-.27q.023-.141.059-.293a4.1,4.1,0,0,1-1.57,1.9,3.821,3.821,0,0,1-1.957.557,2.936,2.936,0,0,1-2.338-1.043,3.971,3.971,0,0,1-.9-2.684A6.127,6.127,0,0,1,9.1,29.211a4.354,4.354,0,0,1,3.287-1.781,2.865,2.865,0,0,1,1.975.691,2.306,2.306,0,0,1,.826,1.664l.586-1.969H17.5l-1.559,5.133q-.176.6-.258.961a2.966,2.966,0,0,0-.082.645.894.894,0,0,0,.322.768,1.194,1.194,0,0,0,.732.24,3.011,3.011,0,0,0,2.4-1.395,5.861,5.861,0,0,0,1.061-3.645,5.219,5.219,0,0,0-1.9-4.271A7.829,7.829,0,0,0,13.1,24.7q-4.453,0-6.809,2.6a7.956,7.956,0,0,0-2.016,5.566A6.815,6.815,0,0,0,6.2,37.789a8.446,8.446,0,0,0,6.41,2.355,10.427,10.427,0,0,0,3.621-.615,12,12,0,0,0,3.07-1.658l.773,1.055a10.6,10.6,0,0,1-3.152,1.758A12.574,12.574,0,0,1,12.3,41.5Zm15.41-6.059a4.7,4.7,0,0,0,.691,2.379q1.16,1.711,4.09,1.711a7.239,7.239,0,0,0,2.391-.375,2.656,2.656,0,0,0,2.086-2.6,2.246,2.246,0,0,0-.879-2,8.875,8.875,0,0,0-2.789-1.02l-2.332-.527a10.56,10.56,0,0,1-3.234-1.137A3.6,3.6,0,0,1,26.1,28.648,4.962,4.962,0,0,1,27.7,24.84a6.441,6.441,0,0,1,4.547-1.488,7.9,7.9,0,0,1,4.6,1.307,4.716,4.716,0,0,1,1.893,4.178H36.551a4.313,4.313,0,0,0-.75-2.121,4.357,4.357,0,0,0-3.621-1.348,4.189,4.189,0,0,0-2.965.867,2.714,2.714,0,0,0-.9,2.016A1.968,1.968,0,0,0,29.367,30.1a15.477,15.477,0,0,0,3.129.938l2.414.551a7.4,7.4,0,0,1,2.7,1.09,4.081,4.081,0,0,1,1.641,3.5,4.374,4.374,0,0,1-2.08,4.09,9.316,9.316,0,0,1-4.834,1.23A7.229,7.229,0,0,1,27.3,39.863a5.536,5.536,0,0,1-1.781-4.418Zm19.184,4.2a2.909,2.909,0,0,0,2.877-1.588,7.911,7.911,0,0,0,.779-3.533,6.291,6.291,0,0,0-.562-2.859,3.164,3.164,0,0,0-3.07-1.734A3.028,3.028,0,0,0,44.109,31.4a6.844,6.844,0,0,0-.879,3.563,5.953,5.953,0,0,0,.879,3.34A3.1,3.1,0,0,0,46.9,39.641Zm.082-11.555a5.683,5.683,0,0,1,4.1,1.617,6.315,6.315,0,0,1,1.676,4.758,8.163,8.163,0,0,1-1.477,5.016,5.341,5.341,0,0,1-4.582,1.98,5.173,5.173,0,0,1-4.113-1.752A6.92,6.92,0,0,1,41.063,35a7.487,7.487,0,0,1,1.605-5.039A5.388,5.388,0,0,1,46.98,28.086Zm8.285.363h2V30.23a5.621,5.621,0,0,1,1.887-1.582,5.031,5.031,0,0,1,2.215-.48,3.652,3.652,0,0,1,3.609,1.863,6.616,6.616,0,0,1,.516,2.918V41H63.352V33.09a4.283,4.283,0,0,0-.34-1.852,2.06,2.06,0,0,0-2.039-1.172,4.152,4.152,0,0,0-1.23.152,3.169,3.169,0,0,0-1.523,1.031,3.1,3.1,0,0,0-.686,1.283,8.637,8.637,0,0,0-.158,1.893V41H55.266Zm13.348.059h2.145V41H68.613Zm0-4.723h2.145v2.391H68.613Zm10.172,4.3a5.472,5.472,0,0,1,3.451,1.031,4.94,4.94,0,0,1,1.6,3.551H81.785a3.786,3.786,0,0,0-.855-1.928,2.7,2.7,0,0,0-2.145-.768A2.963,2.963,0,0,0,75.9,31.941a7.821,7.821,0,0,0-.562,3.152,5.932,5.932,0,0,0,.8,3.176,3.089,3.089,0,0,0,4.588.486,4.414,4.414,0,0,0,1.061-2.2h2.051a4.96,4.96,0,0,1-5.355,4.8,4.8,4.8,0,0,1-3.926-1.8A6.885,6.885,0,0,1,73.09,35.07,7.571,7.571,0,0,1,74.7,29.926,5.188,5.188,0,0,1,78.785,28.086Zm14.871-4.77q4.559,0,6.75,2.93a9.494,9.494,0,0,1,1.711,5.848,10.233,10.233,0,0,1-1.957,6.41,8.7,8.7,0,0,1-12.8.375,9.912,9.912,0,0,1-2.027-6.4A10.177,10.177,0,0,1,87.07,26.5,7.514,7.514,0,0,1,93.656,23.316Zm.234,16.1a4.855,4.855,0,0,0,4.459-2.209,9.4,9.4,0,0,0,1.377-5.08,7.246,7.246,0,0,0-1.588-4.887A5.42,5.42,0,0,0,93.8,25.391a5.654,5.654,0,0,0-4.359,1.834,7.73,7.73,0,0,0-1.687,5.408A7.9,7.9,0,0,0,89.2,37.455Q90.645,39.418,93.891,39.418Zm11.25-12.879a3.761,3.761,0,0,1,.457-1.922,3.23,3.23,0,0,1,2.848-1.078q.2,0,.41.012t.48.035v1.922q-.328-.023-.475-.029t-.275-.006q-.961,0-1.148.5a9.847,9.847,0,0,0-.187,2.537h2.086v1.664h-2.109V41h-2.086V30.172h-1.746V28.508h1.746Zm6.668,0a3.761,3.761,0,0,1,.457-1.922,3.23,3.23,0,0,1,2.848-1.078q.2,0,.41.012t.48.035v1.922q-.328-.023-.475-.029t-.275-.006q-.961,0-1.148.5a9.847,9.847,0,0,0-.187,2.537H116v1.664h-2.109V41h-2.086V30.172h-1.746V28.508h1.746Zm6.223-.363V23.785h2.109v2.391Zm0,2.332h2.109V41h-2.109Zm10.09-.422a5.472,5.472,0,0,1,3.451,1.031,4.94,4.94,0,0,1,1.6,3.551h-2.051a3.786,3.786,0,0,0-.855-1.928,2.7,2.7,0,0,0-2.145-.768,2.963,2.963,0,0,0-2.883,1.969,7.821,7.821,0,0,0-.562,3.152,5.932,5.932,0,0,0,.8,3.176,3.089,3.089,0,0,0,4.588.486,4.414,4.414,0,0,0,1.061-2.2h2.051a4.96,4.96,0,0,1-5.355,4.8,4.8,4.8,0,0,1-3.926-1.8,6.885,6.885,0,0,1-1.465-4.494,7.571,7.571,0,0,1,1.605-5.145A5.188,5.188,0,0,1,128.121,28.086Zm7.16.422h2.145V41h-2.145Zm0-4.723h2.145v2.391h-2.145ZM142.23,37.66A1.737,1.737,0,0,0,142.9,39.1a2.477,2.477,0,0,0,1.582.527,4.81,4.81,0,0,0,2.156-.516,2.9,2.9,0,0,0,1.758-2.8v-1.7a3.609,3.609,0,0,1-1,.41,8.488,8.488,0,0,1-1.2.234l-1.277.164a4.885,4.885,0,0,0-1.723.48A1.872,1.872,0,0,0,142.23,37.66Zm5.109-4.266a1.146,1.146,0,0,0,.973-.609,1.854,1.854,0,0,0,.141-.809,1.713,1.713,0,0,0-.768-1.564,4.118,4.118,0,0,0-2.2-.486,2.792,2.792,0,0,0-2.344.891,2.93,2.93,0,0,0-.5,1.465h-1.969a3.624,3.624,0,0,1,1.506-3.229,6.183,6.183,0,0,1,3.357-.908,6.831,6.831,0,0,1,3.6.844,2.862,2.862,0,0,1,1.371,2.625v7.23a.926.926,0,0,0,.135.527.65.65,0,0,0,.568.2q.141,0,.316-.018t.375-.053v1.559a5.875,5.875,0,0,1-.75.176,5.481,5.481,0,0,1-.7.035,1.735,1.735,0,0,1-1.582-.773,2.985,2.985,0,0,1-.363-1.16,5.367,5.367,0,0,1-1.852,1.465,5.727,5.727,0,0,1-2.66.621,3.956,3.956,0,0,1-2.854-1.061,3.523,3.523,0,0,1-1.107-2.654A3.419,3.419,0,0,1,141.117,35a5.185,5.185,0,0,1,2.859-1.184Zm6.68-9.609h2.109V41H154.02Zm14.672,12.082a7.289,7.289,0,0,1-.645,3.387q-1.2,2.2-4.547,2.2a5.279,5.279,0,0,1-3.3-1.049q-1.371-1.049-1.371-3.732v-1.23h2.191v1.23a3.11,3.11,0,0,0,.627,2.115,2.474,2.474,0,0,0,1.951.709,2.387,2.387,0,0,0,2.438-1.277,8.314,8.314,0,0,0,.352-2.965V23.785h2.309Zm3.773-12.082h7.746a5.251,5.251,0,0,1,3.7,1.295,4.7,4.7,0,0,1,1.406,3.639,5.29,5.29,0,0,1-1.254,3.51,4.751,4.751,0,0,1-3.855,1.494H174.8V41h-2.332Zm10.5,4.945a2.59,2.59,0,0,0-1.406-2.578,5.077,5.077,0,0,0-2.121-.363H174.8v5.965h4.641a4.435,4.435,0,0,0,2.549-.668A2.647,2.647,0,0,0,182.965,28.73Zm11.785-3.882a33.581,33.581,0,0,1-5.136-.264l-.024,1.656a4.256,4.256,0,0,1,.528-.024h.384c.888.024,3.144.072,3.528.072a2.658,2.658,0,0,0,.456-.048l-.216.36a23.882,23.882,0,0,1-5.376,6.864l1.344,1.344a7.941,7.941,0,0,1,1.848-1.992c1.944-1.656,3.84-2.544,5.352-2.544,1.128,0,1.7.576,1.9,1.9a18.631,18.631,0,0,0-3.576,1.92c-1.632,1.224-2.448,2.472-2.448,3.792,0,2.472,2.088,3.7,6.384,3.7a37.233,37.233,0,0,0,5.832-.48,9.443,9.443,0,0,1,.96-.12l-.216-1.848a20.109,20.109,0,0,1-6.408.936c-3.384,0-4.872-.7-4.872-2.28,0-1.44,1.248-2.568,4.512-4.1a6.306,6.306,0,0,1,.024.72,34.518,34.518,0,0,1-.144,3.456l1.632-.024a5.218,5.218,0,0,1-.048-.864c0-.216,0-.552.024-1.08.024-.48.024-1.008.024-1.32,0-.6,0-.84-.048-1.464a39.847,39.847,0,0,1,6.408-2.112l-.768-1.68a5.281,5.281,0,0,1-1.632.7c-1.056.384-2.424.888-4.176,1.584a2.913,2.913,0,0,0-3.168-2.664,6.387,6.387,0,0,0-3.624,1.176c-.24.168-.24.168-1.1.84a.184.184,0,0,1-.048-.072v-.024a.023.023,0,0,0,.024-.024c.024-.024.144-.12.312-.24.1-.072.576-.624.816-.912a17.7,17.7,0,0,0,2.16-3.408,77.493,77.493,0,0,0,7.92-.624,7.482,7.482,0,0,1,.96-.12l-.144-1.632a33.778,33.778,0,0,1-7.56.912,4.085,4.085,0,0,0-.5.024c.12-.216.432-.864.744-1.632a5.1,5.1,0,0,1,.624-1.3l-1.92-.336a10.186,10.186,0,0,1-1.152,3.288Zm35.232-.888a3.225,3.225,0,0,1-1.536.192H216.638a14.423,14.423,0,0,1-2.712-.168v1.944a16.689,16.689,0,0,1,2.688-.144H228.83c-1.368,5.376-3.624,8.808-7.56,11.424a17.832,17.832,0,0,1-5.424,2.544,4.542,4.542,0,0,1,1.176,1.68,22.041,22.041,0,0,0,7.536-4.512A20.449,20.449,0,0,0,230.582,26.5c.336-1.224.336-1.224.5-1.488Zm17.232,7.032a17.762,17.762,0,0,1-3.72,4.344,21.591,21.591,0,0,1-5.5,3.552,4.27,4.27,0,0,1,1.08,1.3c4.3-2.3,7.7-5.376,9-8.088a1.541,1.541,0,0,0,.12-.264c-.048.7-.1,1.3-.1,1.344l.048,7.152v.1a12.963,12.963,0,0,1-.072,1.776H249.9a8.549,8.549,0,0,1-.12-1.872l-.12-9.336h2.3a13.11,13.11,0,0,1,2.16.12V29.456a12.249,12.249,0,0,1-2.16.12h-2.328l-.024-1.776v-.384a7.237,7.237,0,0,1,.1-1.32h-1.728a8.888,8.888,0,0,1,.12,1.8l.024,1.68H241.07a9.676,9.676,0,0,1-2.136-.144v1.68a12.587,12.587,0,0,1,2.16-.12Zm29.64,8.04v1.7h1.824c-.048-.5-.072-1.128-.072-1.848V25.9a13.013,13.013,0,0,1,.072-1.872,12.488,12.488,0,0,1-1.872.072H264.014a17.287,17.287,0,0,1-1.872-.072,12.31,12.31,0,0,1,.1,1.872V38.936a12.47,12.47,0,0,1-.1,1.8h1.848v-1.7Zm0-1.56H263.99V25.688h12.864Zm7.656-4.7a26.218,26.218,0,0,1,2.976-.1h13.92a27.455,27.455,0,0,1,2.928.1V30.824a18.929,18.929,0,0,1-2.9.12H287.486a16.977,16.977,0,0,1-2.976-.144Z" transform="translate(197.042 14375.384)" fill="#fff"/>
    </g>
    <g id="step2" transform="translate(-33.5 674.163)">
      <g id="グループ_691-2" data-name="グループ 691" transform="translate(0 -1)">
        <path id="パス_1339" data-name="パス 1339" d="M-59.89-8.72A8.65,8.65,0,0,1-64.01-.88a13.565,13.565,0,0,1-7.48,2,16.7,16.7,0,0,1-7.92-1.6,12.217,12.217,0,0,1-5.64-7.24l5.76-1.84a8.29,8.29,0,0,0,3.44,4.48,8.759,8.759,0,0,0,4.36.92,6.106,6.106,0,0,0,3.76-1.08,3.579,3.579,0,0,0,1.44-3.04,3.353,3.353,0,0,0-1.88-3.04,18.425,18.425,0,0,0-4.56-1.52q-5.8-1.32-7.72-2.48a7.6,7.6,0,0,1-3.84-7.08,7.886,7.886,0,0,1,3.18-6.5,13.173,13.173,0,0,1,8.38-2.5q9.12,0,12.64,7.28l-5.48,2.04a7.44,7.44,0,0,0-3.28-3.32,9.471,9.471,0,0,0-4.12-.76,6.069,6.069,0,0,0-4,1.2,3.066,3.066,0,0,0-1.2,2.44,3.012,3.012,0,0,0,1.6,2.72,15.763,15.763,0,0,0,3.92,1.28q4.64,1.04,5.64,1.36a12.159,12.159,0,0,1,5,2.76A7.76,7.76,0,0,1-59.89-8.72Zm28.52-16.96h-9.68V.72h-6.2v-26.4h-9.52v-5.36h25.4ZM-4.25.72H-26.37V-31.04H-4.25v5.36H-20.29v7.2H-6.17v5.4H-20.29v8.4H-4.25ZM26.67-21.16a9.585,9.585,0,0,1-3.16,7.68A11.521,11.521,0,0,1,15.79-11H8.15V.72H2.07V-31.04H15.79a11.958,11.958,0,0,1,7.64,2.28Q26.67-26.16,26.67-21.16Zm-6.28.12a4.409,4.409,0,0,0-1.28-3.32,6.073,6.073,0,0,0-4.4-1.44H8.15v9.6h6.56a6.038,6.038,0,0,0,4.32-1.44A4.449,4.449,0,0,0,20.39-21.04ZM82.71,1.08H48.21v-4.5A29.916,29.916,0,0,1,56.73-16.5q5.16-4.14,10.2-8.34t5.04-8.4a4.616,4.616,0,0,0-1.71-3.75,7.192,7.192,0,0,0-4.71-1.41q-6.9,0-10.32,6.72L47.07-34.8q5.16-11.64,18.9-11.64,7.26,0,11.4,3.6a11.764,11.764,0,0,1,3.96,9.3,15.592,15.592,0,0,1-4.14,10.62q-1.98,2.22-9.06,7.44a40.737,40.737,0,0,0-9,8.52H82.71Z" transform="translate(251 14301)" fill="#2081e2"/>
        <path id="パス_1338" data-name="パス 1338" d="M-59.89-8.72A8.65,8.65,0,0,1-64.01-.88a13.565,13.565,0,0,1-7.48,2,16.7,16.7,0,0,1-7.92-1.6,12.217,12.217,0,0,1-5.64-7.24l5.76-1.84a8.29,8.29,0,0,0,3.44,4.48,8.759,8.759,0,0,0,4.36.92,6.106,6.106,0,0,0,3.76-1.08,3.579,3.579,0,0,0,1.44-3.04,3.353,3.353,0,0,0-1.88-3.04,18.425,18.425,0,0,0-4.56-1.52q-5.8-1.32-7.72-2.48a7.6,7.6,0,0,1-3.84-7.08,7.886,7.886,0,0,1,3.18-6.5,13.173,13.173,0,0,1,8.38-2.5q9.12,0,12.64,7.28l-5.48,2.04a7.44,7.44,0,0,0-3.28-3.32,9.471,9.471,0,0,0-4.12-.76,6.069,6.069,0,0,0-4,1.2,3.066,3.066,0,0,0-1.2,2.44,3.012,3.012,0,0,0,1.6,2.72,15.763,15.763,0,0,0,3.92,1.28q4.64,1.04,5.64,1.36a12.159,12.159,0,0,1,5,2.76A7.76,7.76,0,0,1-59.89-8.72Zm28.52-16.96h-9.68V.72h-6.2v-26.4h-9.52v-5.36h25.4ZM-4.25.72H-26.37V-31.04H-4.25v5.36H-20.29v7.2H-6.17v5.4H-20.29v8.4H-4.25ZM26.67-21.16a9.585,9.585,0,0,1-3.16,7.68A11.521,11.521,0,0,1,15.79-11H8.15V.72H2.07V-31.04H15.79a11.958,11.958,0,0,1,7.64,2.28Q26.67-26.16,26.67-21.16Zm-6.28.12a4.409,4.409,0,0,0-1.28-3.32,6.073,6.073,0,0,0-4.4-1.44H8.15v9.6h6.56a6.038,6.038,0,0,0,4.32-1.44A4.449,4.449,0,0,0,20.39-21.04ZM82.71,1.08H48.21v-4.5A29.916,29.916,0,0,1,56.73-16.5q5.16-4.14,10.2-8.34t5.04-8.4a4.616,4.616,0,0,0-1.71-3.75,7.192,7.192,0,0,0-4.71-1.41q-6.9,0-10.32,6.72L47.07-34.8q5.16-11.64,18.9-11.64,7.26,0,11.4,3.6a11.764,11.764,0,0,1,3.96,9.3,15.592,15.592,0,0,1-4.14,10.62q-1.98,2.22-9.06,7.44a40.737,40.737,0,0,0-9,8.52H82.71Z" transform="translate(247 14301)"/>
      </g>
      <g id="グループ_692-2" data-name="グループ 692" transform="translate(-3)">
        <path id="長方形_2739-2" data-name="長方形 2739" d="M4,4V154H493V4H4M0,0H497V158H0Z" transform="translate(163 14307)" fill="#2081e2"/>
        <rect id="長方形_2740-2" data-name="長方形 2740" width="473" height="133" transform="translate(174 14319)"/>
      </g>
      <path id="パス_2810" data-name="パス 2810" d="M301.548-16.152a33.582,33.582,0,0,1-5.136-.264l-.024,1.656a4.256,4.256,0,0,1,.528-.024h.384c.888.024,3.144.072,3.528.072a2.658,2.658,0,0,0,.456-.048l-.216.36a23.882,23.882,0,0,1-5.376,6.864l1.344,1.344a7.941,7.941,0,0,1,1.848-1.992c1.944-1.656,3.84-2.544,5.352-2.544,1.128,0,1.7.576,1.9,1.9a18.631,18.631,0,0,0-3.576,1.92c-1.632,1.224-2.448,2.472-2.448,3.792,0,2.472,2.088,3.7,6.384,3.7A37.233,37.233,0,0,0,312.324.1a9.445,9.445,0,0,1,.96-.12l-.216-1.848a20.109,20.109,0,0,1-6.408.936c-3.384,0-4.872-.7-4.872-2.28,0-1.44,1.248-2.568,4.512-4.1a6.3,6.3,0,0,1,.024.72,34.507,34.507,0,0,1-.144,3.456l1.632-.024a5.217,5.217,0,0,1-.048-.864c0-.216,0-.552.024-1.08.024-.48.024-1.008.024-1.32,0-.6,0-.84-.048-1.464a39.848,39.848,0,0,1,6.408-2.112l-.768-1.68a5.28,5.28,0,0,1-1.632.7c-1.056.384-2.424.888-4.176,1.584a2.913,2.913,0,0,0-3.168-2.664A6.387,6.387,0,0,0,300.8-10.9c-.24.168-.24.168-1.1.84a.184.184,0,0,1-.048-.072v-.024a.023.023,0,0,0,.024-.024c.024-.024.144-.12.312-.24.1-.072.576-.624.816-.912a17.7,17.7,0,0,0,2.16-3.408,77.493,77.493,0,0,0,7.92-.624,7.481,7.481,0,0,1,.96-.12l-.144-1.632a33.779,33.779,0,0,1-7.56.912,4.086,4.086,0,0,0-.5.024c.12-.216.432-.864.744-1.632A5.1,5.1,0,0,1,305-19.1l-1.92-.336a10.186,10.186,0,0,1-1.152,3.288Zm34.92,3.336h1.176c.768,0,1.536.024,2.28.1v-1.632a14.72,14.72,0,0,1-2.28.144h-1.176v-2.76a22.866,22.866,0,0,1,.144-2.808h-1.848a17.915,17.915,0,0,1,.168,2.808v2.76h-7.608a17.694,17.694,0,0,1-2.5-.144v1.68a18.585,18.585,0,0,1,2.568-.144h7.536V-.96c0,.5-.216.624-1.2.624a19.65,19.65,0,0,1-3.288-.288,5.316,5.316,0,0,1,.456,1.632c1.056.1,1.968.144,2.9.144,2.16,0,2.664-.384,2.664-1.968ZM323.484-14.3c.72-1.368,1.488-3.024,1.824-3.864a9.838,9.838,0,0,1,.6-1.368l-1.728-.552a13.211,13.211,0,0,1-1.056,3.072A23.685,23.685,0,0,1,318.3-9.7a3.693,3.693,0,0,1,.888,1.056l.168.264a20.073,20.073,0,0,0,2.688-3.7c-.072,1.1-.1,1.848-.1,2.9v8.016a24.319,24.319,0,0,1-.144,2.9h1.8c-.072-.84-.12-1.752-.12-2.856Zm2.928,4.488a24.53,24.53,0,0,1,3.96,5.592l1.344-1.032a30.437,30.437,0,0,0-4.056-5.424Zm23.784-2.16a2.373,2.373,0,0,1,.36-.024,3.45,3.45,0,0,1,.432.024c.864.048,2.232.1,2.9.1,1.056,0,2.448-.048,3.5-.144.048.7.048,1.224.048,1.9,0,3.84-.384,5.592-1.608,7.152a9.839,9.839,0,0,1-3.672,2.76,5.536,5.536,0,0,1,1.3,1.3,11.6,11.6,0,0,0,3.768-3.1c1.416-1.92,1.848-3.888,1.848-8.448,0-.7,0-1.08-.024-1.728a22.891,22.891,0,0,0,2.616-.48,12.134,12.134,0,0,1,1.272-.288l-.12-1.728A12.666,12.666,0,0,1,359-13.68c-.12-3.336-.12-3.336-.144-3.888-.024-.432-.024-.552-.024-.72a5.644,5.644,0,0,1,.072-.816l-1.848.024a46.282,46.282,0,0,1,.288,5.592c-1.2.1-2.088.144-3.048.144a19.424,19.424,0,0,1-4.08-.312Zm-4.32-6.816a12.2,12.2,0,0,1-.216,1.656,49.323,49.323,0,0,0-.96,9.24,27.308,27.308,0,0,0,.888,7.1,6.383,6.383,0,0,1,.192.84L347.436-.1a9.368,9.368,0,0,1,.672-3.048,45.52,45.52,0,0,1,1.776-4.2L348.66-7.92a26.229,26.229,0,0,0-2.016,5.088,8.356,8.356,0,0,0-.144-1.3c-.1-.816-.192-2.592-.192-3.912A41.5,41.5,0,0,1,347.772-18.5Zm21.816,4.848a70.494,70.494,0,0,1,8.28-.792,46.509,46.509,0,0,0,5.28-.528,15.709,15.709,0,0,0-2.28,1.272c-2.856,1.92-4.488,4.584-4.488,7.368a5.842,5.842,0,0,0,2.664,4.9A12.106,12.106,0,0,0,382.332.12c.384.072.48.1.744.144l.312-1.944h-.24a12.3,12.3,0,0,1-3.6-.768,4.706,4.706,0,0,1-3.36-4.44,7.336,7.336,0,0,1,2.952-5.544,12.187,12.187,0,0,1,4.608-2.424,11.131,11.131,0,0,1,2.688-.312l-.144-1.8a16.111,16.111,0,0,1-2.856.264c-3.1.144-10.776.576-13.632.792-.744.048-1.032.072-1.368.072h-.864ZM17.832,29.224H6.024a17.015,17.015,0,0,1-2.712-.144V31A17.72,17.72,0,0,1,6,30.856H18.216a19.449,19.449,0,0,1-4.2,8.544,19.272,19.272,0,0,1-8.784,5.448A4.749,4.749,0,0,1,6.408,46.5a22.271,22.271,0,0,0,8.736-5.688c2.184-2.28,3.72-5.28,4.9-9.552l.048-.144a2.829,2.829,0,0,0,.84.12,2.724,2.724,0,1,0-2.712-2.712,2.543,2.543,0,0,0,.1.7Zm3.12-2.424a1.716,1.716,0,1,1-1.728,1.7A1.711,1.711,0,0,1,20.952,26.8Zm8.52.768a12.405,12.405,0,0,1,.072,1.3v.888L29.5,43.5a4.606,4.606,0,0,1-.168,1.56l.96,1.2a6.03,6.03,0,0,1,1.392-.36c6.408-1.248,9.936-3.48,13.224-8.376a6.112,6.112,0,0,1-1.32-1.512,14.528,14.528,0,0,1-5.4,5.76,18.12,18.12,0,0,1-6.864,2.4L31.392,29.7a14.786,14.786,0,0,1,.12-2.136Zm37.32-.624a20.146,20.146,0,0,1-4.584,4.536A33.794,33.794,0,0,1,49.752,37.7a5.556,5.556,0,0,1,.936,1.608,37.518,37.518,0,0,0,9.264-4.2v9.12a12.509,12.509,0,0,1-.144,2.5H61.9a15.944,15.944,0,0,1-.12-2.544V33.952a42.269,42.269,0,0,0,5.616-4.824,5.433,5.433,0,0,1,1.056-1.008ZM78.744,30.4H75.5a13.6,13.6,0,0,1-2.184-.144v1.488a13.11,13.11,0,0,1,2.16-.12h3.264v1.488H76.512c-1.008,0-1.656-.024-2.28-.072a15.993,15.993,0,0,1,.072,2.112V37.96c0,1.2-.024,1.728-.072,2.256.576-.048,1.224-.072,2.232-.072h2.28v1.608H76.1a13.223,13.223,0,0,1-2.208-.12V43.12A20.663,20.663,0,0,1,76.08,43h2.664v1.872c-2.448.24-3.816.336-4.56.336-.216,0-.624-.024-1.008-.048l.312,1.656a11.21,11.21,0,0,1,1.272-.192c4.08-.408,6.48-.72,9.84-1.3V44.056c-2.112.36-2.928.48-4.464.672V43h2.64a11.966,11.966,0,0,1,1.968.1v-1.44a14.477,14.477,0,0,1-2.184.1H80.136V40.144h2.4c1.008,0,1.632.024,2.208.072a16.282,16.282,0,0,1-.1-2.28V35.152a12.754,12.754,0,0,1,.1-2.112c-.576.048-1.176.072-2.112.072h-2.5V31.624h3.072a10.554,10.554,0,0,1,1.92.1V30.28a11,11,0,0,1-2.112.12h-2.88V28.5a32.549,32.549,0,0,0,3.432-.744c.864-.216.864-.216,1.2-.288l-1.056-1.224c-1.632.816-6.144,1.584-10.008,1.656a3.244,3.244,0,0,1,.6,1.272c1.824-.144,2.712-.216,4.44-.456Zm0,3.864v1.752H75.672V34.264Zm1.392,0H83.3v1.752H80.136ZM78.744,37.12v1.872H75.672V37.12Zm1.392,0H83.3v1.872H80.136Zm9.672-5.592c.024-.816.024-1.632.048-3.336A7.189,7.189,0,0,1,90,26.368H88.224a13.421,13.421,0,0,1,.144,2.76c0,.888,0,1.584-.024,2.4h-.792a12.617,12.617,0,0,1-2.136-.12V33.04a14.654,14.654,0,0,1,2.232-.12h.624c-.216,4.656-.744,7.488-1.848,9.84a12.415,12.415,0,0,1-2.784,3.888,5.36,5.36,0,0,1,1.368,1.032,16.6,16.6,0,0,0,3.768-7.056,36.031,36.031,0,0,0,.984-7.7h2.952a61.055,61.055,0,0,1-.864,12.048c-.168.72-.432.888-1.32.888a13.29,13.29,0,0,1-2.592-.336,6.427,6.427,0,0,1,.264,1.608,23.6,23.6,0,0,0,2.544.192c1.32,0,1.968-.312,2.3-1.176.648-1.56.96-4.944,1.128-12.192.048-1.512.072-1.992.12-2.52a17.542,17.542,0,0,1-2.136.1Zm18.816-.384V28.216h7.488a19.845,19.845,0,0,1,2.52.144V26.7a19.057,19.057,0,0,1-2.52.144H99.936a18.068,18.068,0,0,1-2.52-.144V28.36a20.394,20.394,0,0,1,2.52-.144h7.248v2.928h-3.216a16.019,16.019,0,0,1-1.992-.1,12.329,12.329,0,0,1,.1,1.7V41.3a12.194,12.194,0,0,1-.1,1.68,17.277,17.277,0,0,1,2.064-.1h7.872a17.276,17.276,0,0,1,2.064.1,12.2,12.2,0,0,1-.1-1.68V32.752a12.33,12.33,0,0,1,.1-1.7,15.774,15.774,0,0,1-1.992.1Zm-1.44,1.3v3.648h-3.72V32.44Zm1.44,0h3.864v3.648h-3.864Zm-1.44,4.92v4.248h-3.72V37.36Zm1.44,0h3.864v4.248h-3.864Zm7.752-5.664a14.719,14.719,0,0,1,.144,2.28v11.16H99.576V34a13.817,13.817,0,0,1,.144-2.3h-1.8a18.042,18.042,0,0,1,.144,2.472v10.8a21.685,21.685,0,0,1-.144,2.9H99.6V46.5h16.9v1.368h1.68a21.278,21.278,0,0,1-.144-2.88V34.168a18.542,18.542,0,0,1,.144-2.472Zm10.151,12.945a2.909,2.909,0,0,0,2.877-1.588,7.911,7.911,0,0,0,.779-3.533,6.291,6.291,0,0,0-.562-2.859,3.164,3.164,0,0,0-3.07-1.734,3.028,3.028,0,0,0-2.812,1.477,6.844,6.844,0,0,0-.879,3.563,5.953,5.953,0,0,0,.879,3.34A3.1,3.1,0,0,0,126.527,44.641Zm.082-11.555a5.683,5.683,0,0,1,4.1,1.617,6.315,6.315,0,0,1,1.676,4.758,8.163,8.163,0,0,1-1.477,5.016,5.341,5.341,0,0,1-4.582,1.98,5.173,5.173,0,0,1-4.113-1.752A6.92,6.92,0,0,1,120.691,40a7.487,7.487,0,0,1,1.605-5.039A5.388,5.388,0,0,1,126.609,33.086Zm8.344.363h2v2.168a4.79,4.79,0,0,1,1.207-1.541,3.13,3.13,0,0,1,2.215-.908q.059,0,.2.012t.48.047v2.227a3.151,3.151,0,0,0-.346-.047q-.158-.012-.346-.012a3.01,3.01,0,0,0-2.449,1.025,3.579,3.579,0,0,0-.855,2.361V46h-2.109Zm25.659-2.329a13.667,13.667,0,0,1-2.112,4.344,19.2,19.2,0,0,1-1.344-5.736h3.912a19.8,19.8,0,0,1,2.688.12v-1.56a14.2,14.2,0,0,1-2.712.144l.888-.84a19.239,19.239,0,0,0-2.832-1.8l-.984.816a14.327,14.327,0,0,1,2.784,1.824h-3.888c-.048-.672-.072-1.008-.072-1.368a8.106,8.106,0,0,1,.072-1.128h-1.7a4.654,4.654,0,0,1,.144.96l.144,1.536H147.22c-1.152,0-2.064-.048-2.832-.12a22.083,22.083,0,0,1,.12,2.328c0,5.712-.384,7.632-1.92,9.84a3.512,3.512,0,0,1,1.344.96c1.608-2.472,2.016-4.776,2.04-11.712h9.768a19.958,19.958,0,0,0,1.8,6.936,13.939,13.939,0,0,1-3.744,3.1,4.669,4.669,0,0,1,1.056,1.008,16.6,16.6,0,0,0,3.384-2.9c1.152,1.8,2.568,2.9,3.7,2.9s1.728-.912,2.232-3.408a4.153,4.153,0,0,1-1.2-.96c-.264,2.016-.6,2.928-1.056,2.928-.7,0-1.8-1.032-2.76-2.592a17.543,17.543,0,0,0,2.232-3.768l.648-1.3ZM155,31.336a13.2,13.2,0,0,1-1.848.1h-4.584a13.358,13.358,0,0,1-1.872-.1v1.416a14.5,14.5,0,0,1,1.872-.1h4.584a13.424,13.424,0,0,1,1.848.1Zm-7.68,6.408a10.021,10.021,0,0,1-.072,1.344,13.121,13.121,0,0,1,1.608-.072h3.912a14.754,14.754,0,0,1,1.608.048c-.048-.7-.048-.816-.048-1.368V35.512a10.126,10.126,0,0,1,.072-1.32,15.518,15.518,0,0,1-1.656.072h-3.864a15.029,15.029,0,0,1-1.632-.072,11.075,11.075,0,0,1,.072,1.344Zm1.32-2.3H153v2.4h-4.368Zm-3.144,5.832a10.087,10.087,0,0,1-2.784,4.9l1.3.912a13.587,13.587,0,0,0,2.808-5.16ZM150,42.88a8.536,8.536,0,0,1,.12-1.632H148.4a9.3,9.3,0,0,1,.144,1.776V45.76c0,1.416.648,1.656,4.416,1.656,5.592,0,5.9-.168,6.24-3.36a4.6,4.6,0,0,1-1.464-.6,3.9,3.9,0,0,1-.384,2.064c-.336.408-1.272.552-3.864.552-3.144,0-3.48-.072-3.48-.624Zm9.264-.84a21.408,21.408,0,0,1,3.216,4.7l1.3-.768a25.993,25.993,0,0,0-3.264-4.512ZM156.1,43.168a19.653,19.653,0,0,0-3.936-2.688l-.936.888a17.7,17.7,0,0,1,3.888,2.832Zm18.648-12.5a12.694,12.694,0,0,1,1.728.1V29.248a11.757,11.757,0,0,1-1.752.1h-1.968V27.976a8.176,8.176,0,0,1,.12-1.824H171.2a10.07,10.07,0,0,1,.144,1.992v1.2h-2.52a12.309,12.309,0,0,1-1.872-.1V30.76a12.563,12.563,0,0,1,1.848-.1h2.136a17.572,17.572,0,0,1-4.728,6,4.3,4.3,0,0,1,.984,1.272,19.6,19.6,0,0,0,4.272-5.952c-.072,1.392-.12,2.352-.12,2.88v2.184a13.088,13.088,0,0,1-.144,2.52h1.68a13.088,13.088,0,0,1-.144-2.52V34.84c0-.96-.048-1.68-.144-2.928A12.557,12.557,0,0,0,176.02,35.9a5.212,5.212,0,0,1,.816-1.3,11.954,11.954,0,0,1-3.888-3.936Zm4.968-3.624a23.871,23.871,0,0,1-2.448-.1,20.06,20.06,0,0,1,.1,2.328V36.88c0,.864-.048,1.632-.12,2.376.816-.048,1.608-.072,2.5-.072h4.392c.792,0,1.824.048,2.52.1a22.149,22.149,0,0,1-.12-2.4V29.272a18.537,18.537,0,0,1,.1-2.328,24.681,24.681,0,0,1-2.472.1Zm-.936,1.272h6.312V30.64H178.78Zm0,3.576h6.312v2.376H178.78Zm0,3.624h6.312v2.4H178.78ZM168.052,46.72a15.991,15.991,0,0,0,2.856-5.712l-1.392-.576a12.09,12.09,0,0,1-2.784,5.352Zm6.216-4.32a10.838,10.838,0,0,1,.144-2.208h-1.8a15.749,15.749,0,0,1,.144,2.208v2.688c0,1.008.216,1.44.84,1.728a9.9,9.9,0,0,0,3.816.408c3.336,0,4.416-.144,5.064-.648.576-.456.744-1.08,1.008-3.336a4.224,4.224,0,0,1-1.512-.576c-.048,1.584-.216,2.424-.528,2.688-.384.384-1.3.48-3.936.48-2.88,0-3.24-.12-3.24-1.032Zm5.952.432a22.77,22.77,0,0,0-3.528-3.36l-1.056.792a19.885,19.885,0,0,1,3.456,3.6Zm7.92,2.688a31.1,31.1,0,0,0-3.6-5.184l-1.3.72a22.665,22.665,0,0,1,3.5,5.448Zm9.528-15.672a33.581,33.581,0,0,1-5.136-.264l-.024,1.656a4.256,4.256,0,0,1,.528-.024h.384c.888.024,3.144.072,3.528.072a2.658,2.658,0,0,0,.456-.048l-.216.36a23.882,23.882,0,0,1-5.376,6.864l1.344,1.344A7.941,7.941,0,0,1,195,37.816c1.944-1.656,3.84-2.544,5.352-2.544,1.128,0,1.7.576,1.9,1.9a18.631,18.631,0,0,0-3.576,1.92c-1.632,1.224-2.448,2.472-2.448,3.792,0,2.472,2.088,3.7,6.384,3.7a37.233,37.233,0,0,0,5.832-.48,9.443,9.443,0,0,1,.96-.12l-.216-1.848a20.109,20.109,0,0,1-6.408.936c-3.384,0-4.872-.7-4.872-2.28,0-1.44,1.248-2.568,4.512-4.1a6.306,6.306,0,0,1,.024.72,34.518,34.518,0,0,1-.144,3.456l1.632-.024a5.218,5.218,0,0,1-.048-.864c0-.216,0-.552.024-1.08.024-.48.024-1.008.024-1.32,0-.6,0-.84-.048-1.464a39.847,39.847,0,0,1,6.408-2.112l-.768-1.68a5.281,5.281,0,0,1-1.632.7c-1.056.384-2.424.888-4.176,1.584a2.913,2.913,0,0,0-3.168-2.664,6.387,6.387,0,0,0-3.624,1.176c-.24.168-.24.168-1.1.84a.184.184,0,0,1-.048-.072v-.024a.023.023,0,0,0,.024-.024c.024-.024.144-.12.312-.24.1-.072.576-.624.816-.912a17.7,17.7,0,0,0,2.16-3.408A77.493,77.493,0,0,0,207,30.64a7.482,7.482,0,0,1,.96-.12l-.144-1.632a33.778,33.778,0,0,1-7.56.912,4.085,4.085,0,0,0-.5.024c.12-.216.432-.864.744-1.632a5.1,5.1,0,0,1,.624-1.3l-1.92-.336a10.186,10.186,0,0,1-1.152,3.288Zm20.16.816H216.34a9.132,9.132,0,0,1-1.728-.12V32.1a13.16,13.16,0,0,1,1.728-.1h1.488V37.36a15.255,15.255,0,0,1-3.432,1.056l.456,1.608c.768-.336,1.752-.72,2.976-1.2V45.5c0,.432-.192.576-.768.576a15,15,0,0,1-2.088-.168,4.419,4.419,0,0,1,.336,1.512c.5.024.936.048,1.248.048,2.208,0,2.808-.36,2.808-1.656V38.2c.936-.384,1.3-.552,2.376-1.08l-.024-1.44c-1.08.528-1.44.7-2.352,1.08V32.008h1.344a9.3,9.3,0,0,1,1.488.1v-1.56a6.269,6.269,0,0,1-1.392.12h-1.44v-2.28a14.172,14.172,0,0,1,.168-2.376H217.66a14.391,14.391,0,0,1,.168,2.424Zm15.312,5.4a5.064,5.064,0,0,1-1.44.12h-7.32a10.906,10.906,0,0,1-1.944-.144v1.584a13.183,13.183,0,0,1,1.56-.1,14.537,14.537,0,0,0,3.384,5.3,19.452,19.452,0,0,1-7.032,3.312,4.128,4.128,0,0,1,.912,1.392,20.387,20.387,0,0,0,7.224-3.672,19.385,19.385,0,0,0,6.84,3.624,6.191,6.191,0,0,1,.912-1.512,17.98,17.98,0,0,1-6.552-3.12,20.006,20.006,0,0,0,3.72-4.7,9.622,9.622,0,0,1,.672-1.056Zm-1.08,1.464a15.587,15.587,0,0,1-3.528,4.368,12.733,12.733,0,0,1-3.1-4.368Zm-1.968-9.384v4.608c0,1.1.5,1.344,2.76,1.344,2.736,0,2.976-.24,3.24-3.528a4.767,4.767,0,0,1-1.416-.744c-.024,1.872-.12,2.544-.384,2.712a3.844,3.844,0,0,1-1.536.192c-1.008,0-1.176-.072-1.176-.5V28.336a12.58,12.58,0,0,1,.072-1.7,13.393,13.393,0,0,1-1.608.072H226.06a13.3,13.3,0,0,1-1.632-.072,5.214,5.214,0,0,1,.072,1.08,9.794,9.794,0,0,1-.6,4.056,5.036,5.036,0,0,1-2.5,2.592,3.642,3.642,0,0,1,1.1,1.08,6.494,6.494,0,0,0,2.4-2.28,9.537,9.537,0,0,0,1.1-5.016Zm11.784,4.2h-1.584a10,10,0,0,1-1.776-.12V33.76a10.22,10.22,0,0,1,1.752-.12h1.416a17.585,17.585,0,0,1-3.7,7.44,3.409,3.409,0,0,1,.912,1.272,15.469,15.469,0,0,0,2.04-3.48,15.091,15.091,0,0,0,1.032-3.048c-.072,1.44-.1,2.592-.1,3.7v5.5a15.313,15.313,0,0,1-.144,2.712h1.7a14.975,14.975,0,0,1-.144-2.736v-5.88c0-.96-.048-2.232-.1-3.552a10.784,10.784,0,0,0,1.8,3.6,4.476,4.476,0,0,1,.816-1.272,10.091,10.091,0,0,1-2.5-4.248h.936a15.754,15.754,0,0,1,1.824.1V32.248a11.26,11.26,0,0,1-1.8.1h-.984V28.432a16.017,16.017,0,0,0,2.76-1.1L245.044,26.1c-1.08.84-3.576,1.632-6.576,2.064a4.946,4.946,0,0,1,.7,1.32c1.272-.264,1.728-.36,2.712-.624Zm10.176-4.416h-3.5a17.6,17.6,0,0,1-2.52-.144V29.32a23.268,23.268,0,0,1,2.472-.12h9.048a23.967,23.967,0,0,1,2.472.12V27.784a17.228,17.228,0,0,1-2.5.144H253.54V27.52a6.929,6.929,0,0,1,.12-1.584h-1.728a10.059,10.059,0,0,1,.12,1.56Zm3.984,7.512a15.7,15.7,0,0,1,1.68.072,12.663,12.663,0,0,1-.072-1.464V32.08a12.959,12.959,0,0,1,.072-1.464,17.816,17.816,0,0,1-1.824.072h-6a16.777,16.777,0,0,1-1.776-.072,13.3,13.3,0,0,1,.072,1.416V34.12a12.846,12.846,0,0,1-.072,1.392,17.416,17.416,0,0,1,1.776-.072Zm-6.456-3.552h6.648V34.24H249.58Zm-3.36,13.224a20.549,20.549,0,0,1-.12,2.64h1.656a18.981,18.981,0,0,1-.12-2.664V38.2H258v7.368c0,.408-.144.5-.7.5a15.381,15.381,0,0,1-2.28-.192,4.822,4.822,0,0,1,.312,1.488c.744.024,1.416.048,1.992.048,1.536,0,2.088-.432,2.088-1.656V38.944a18.143,18.143,0,0,1,.1-2.112,14.655,14.655,0,0,1-2.208.1H248.38c-.816,0-1.728-.048-2.232-.1.048.672.072,1.416.072,2.184Zm9.768-4.032a12.086,12.086,0,0,1,.072-1.368,15.284,15.284,0,0,1-1.776.072H251.26a16.336,16.336,0,0,1-1.68-.072,14.05,14.05,0,0,1,.072,1.488v2.832a10.536,10.536,0,0,1-.1,1.68H250.9V44.344h3.456c.408,0,.936.024,1.7.072a9.484,9.484,0,0,1-.072-1.3Zm-5.088-.12h3.864v2.184H250.9Z" transform="translate(199.177 14374.245)" fill="#fff"/>
      <path id="パス_2815" data-name="パス 2815" d="M.439-8.218H3.853l1.377-5.039h-3.4l.454-1.7h3.4l1.743-6.562H9.609L7.837-14.956h3.237l1.8-6.562h2.153l-1.772,6.563h3.4l-.454,1.7H12.8L11.411-8.218h3.413l-.454,1.7H11L9.2,0H7.046L8.818-6.519H5.552L3.809,0H1.626L3.4-6.519H0Zm8.789,0,1.392-5.039H7.383L6.035-8.218ZM29.46-20.85a33.532,33.532,0,0,1,3.93,9.3l2.22-.93a36.243,36.243,0,0,0-4.02-9.21Zm18.3-.99a14.2,14.2,0,0,1-.36,2.49c-1.29,5.73-3.33,9.99-6.45,13.29A22.156,22.156,0,0,1,33.06-.63,5.09,5.09,0,0,1,34.65,1.2a26.258,26.258,0,0,0,8.01-5.82A29.753,29.753,0,0,0,49.5-18.33a15.6,15.6,0,0,1,.78-2.85ZM61.05-17.4a29.776,29.776,0,0,1,3.18-.12H75.75a29.776,29.776,0,0,1,3.18.12v-2.43a18.676,18.676,0,0,1-3.21.18H64.26a18.676,18.676,0,0,1-3.21-.18ZM58.02-3.06a27.1,27.1,0,0,1,3.45-.15H78.54a26.81,26.81,0,0,1,3.45.15V-5.58a21.394,21.394,0,0,1-3.48.18H61.5a21.394,21.394,0,0,1-3.48-.18Zm36.3-20.49a10.036,10.036,0,0,1,.51,1.89,61.111,61.111,0,0,0,2.19,8.4,18.681,18.681,0,0,0-3.93,2.43,6.49,6.49,0,0,0-2.67,5.1c0,2.37,1.26,4.02,3.72,4.92A20.409,20.409,0,0,0,100.8,0a60.181,60.181,0,0,0,6.63-.39,15.549,15.549,0,0,1,2.22-.18l-.24-2.49a29.786,29.786,0,0,1-8.58,1.02c-5.88,0-8.19-1.05-8.19-3.78,0-2.49,2.22-4.47,7.35-6.51a69,69,0,0,1,9.03-2.91l-.9-2.28a16.222,16.222,0,0,1-1.92.78c-4.65,1.62-5.49,1.95-7.26,2.67A52.179,52.179,0,0,1,96.69-24Zm24.45,13.5a3.127,3.127,0,0,1,.93.18,31.623,31.623,0,0,0,4.53.75c-.03.27-.03.27-.06.72a15.863,15.863,0,0,0-.12,1.98,8.135,8.135,0,0,0,.93,4.14c1.17,1.92,3.57,3,6.72,3,5.25,0,8.79-2.85,8.79-7.08,0-2.19-.69-3.66-2.82-5.97a5.937,5.937,0,0,1-2.19.6c1.92,1.65,2.85,3.33,2.85,5.22,0,3.18-2.61,5.25-6.63,5.25a6.307,6.307,0,0,1-4.23-1.29,4.428,4.428,0,0,1-1.38-3.6c0-.51.06-1.5.12-2.22a5.447,5.447,0,0,0,.03-.6c1.35.06,1.83.06,2.58.06a34.618,34.618,0,0,0,4.23-.24c.42-.03.51-.03.81-.06l.06-2.01a26.231,26.231,0,0,1-5.52.48c-.42,0-.84,0-1.98-.03.18-1.68.21-1.98.69-5.43,1.65.06,2.16.06,2.64.06.87,0,1.77-.03,2.7-.12,1.5-.12,1.5-.12,2.1-.18l.09-2.07a24.344,24.344,0,0,1-5.49.51c-.48,0-.9,0-1.74-.03.15-.84.21-1.14.3-1.8.27-1.65.27-1.65.3-1.92a15.428,15.428,0,0,1,.48-2.01l-2.4-.27v.24a47.209,47.209,0,0,1-.72,5.64,19.361,19.361,0,0,1-5.4-1.17l-.27,1.98c.42.09.54.12.93.21a39.862,39.862,0,0,0,4.47.81c-.24,1.59-.54,3.93-.69,5.4a19.949,19.949,0,0,1-5.37-1.2ZM167.94-23.7a12.533,12.533,0,0,1-3.42,1.44,48.2,48.2,0,0,1-12.6,1.89c-.45,0-.9,0-1.74-.06a7.825,7.825,0,0,1,.72,2.01,56.9,56.9,0,0,0,8.88-.84c0,2.64-.03,4.32-.09,5.64h-8.61a14.237,14.237,0,0,1-3.15-.21v2.28a23.231,23.231,0,0,1,3.15-.15h8.43a11.282,11.282,0,0,1-1.83,5.88,14.024,14.024,0,0,1-7.02,5.16,5.682,5.682,0,0,1,1.62,1.86c3.66-1.77,5.91-3.66,7.47-6.27a14.285,14.285,0,0,0,1.95-6.63h7.35a23.231,23.231,0,0,1,3.15.15v-2.28a14.237,14.237,0,0,1-3.15.21h-7.2c.03-1.17.06-3.12.09-6a46.487,46.487,0,0,0,6.6-1.86,6.2,6.2,0,0,1,.93-.3Zm17.28,9.99-2.88.48a14.468,14.468,0,0,1-2.79.27l.42,2.13a12.09,12.09,0,0,1,2.61-.6l2.97-.51,2.1,11.37a11.216,11.216,0,0,1,.27,2.4l2.31-.42a9.733,9.733,0,0,1-.57-2.37L187.5-12.24l8.94-1.47a7.827,7.827,0,0,0,.78-.18,1.894,1.894,0,0,0-.12.27,12.3,12.3,0,0,1-5.43,5.76,5.312,5.312,0,0,1,1.62,1.29,15.363,15.363,0,0,0,5.82-7.05,5.741,5.741,0,0,1,.69-1.32l-1.26-1.11a4.245,4.245,0,0,1-1.29.36l-10.08,1.65-.48-2.58a9.806,9.806,0,0,1-.33-2.25l-2.19.33a8.309,8.309,0,0,1,.57,2.19Zm26.64-9.33a15.507,15.507,0,0,1,.09,1.62v1.11l-.06,17.19a5.757,5.757,0,0,1-.21,1.95l1.2,1.5a7.537,7.537,0,0,1,1.74-.45c8.01-1.56,12.42-4.35,16.53-10.47a7.64,7.64,0,0,1-1.65-1.89,18.16,18.16,0,0,1-6.75,7.2,22.65,22.65,0,0,1-8.58,3l.09-18.09a18.483,18.483,0,0,1,.15-2.67Zm26.04,3.45a33.127,33.127,0,0,1,7.14,5.88l1.56-1.86a39.081,39.081,0,0,0-7.23-5.64Zm.21,19.5a15.762,15.762,0,0,1,1.8-.48c5.01-1.14,8.1-2.37,11.19-4.47,3.96-2.73,6.75-6.24,9.15-11.46a6.009,6.009,0,0,1-1.83-1.77c-2.43,6.36-6.45,10.77-12.24,13.35a26.112,26.112,0,0,1-8.73,2.31ZM269.7-21.15a32.384,32.384,0,0,1,7.38,3.99l1.23-2.01a46.731,46.731,0,0,0-7.44-3.78Zm-2.37,7.2a33.121,33.121,0,0,1,7.65,4.11l1.17-2.04a47.993,47.993,0,0,0-7.62-3.9ZM268.35.39a9.185,9.185,0,0,1,1.17-.3c10.8-2.04,16.98-6.75,20.76-15.84a9.233,9.233,0,0,1-1.86-1.62,21.444,21.444,0,0,1-12.6,13.44,27.239,27.239,0,0,1-7.89,1.86h-.18Zm16.74-23.94a24.257,24.257,0,0,1,3.06,4.77l1.5-.9a23.913,23.913,0,0,0-3.06-4.65Zm3.39-1.59a23.093,23.093,0,0,1,3.09,4.71l1.5-.87a22.93,22.93,0,0,0-3.12-4.65Z" transform="translate(199.177 14374.245)" fill="#fce01d"/>
    </g>
    <g id="step3" transform="translate(-33.5 941.163)">
      <g id="グループ_691-3" data-name="グループ 691" transform="translate(0 -1)">
        <path id="パス_1341" data-name="パス 1341" d="M-59.89-8.72A8.65,8.65,0,0,1-64.01-.88a13.565,13.565,0,0,1-7.48,2,16.7,16.7,0,0,1-7.92-1.6,12.217,12.217,0,0,1-5.64-7.24l5.76-1.84a8.29,8.29,0,0,0,3.44,4.48,8.759,8.759,0,0,0,4.36.92,6.106,6.106,0,0,0,3.76-1.08,3.579,3.579,0,0,0,1.44-3.04,3.353,3.353,0,0,0-1.88-3.04,18.425,18.425,0,0,0-4.56-1.52q-5.8-1.32-7.72-2.48a7.6,7.6,0,0,1-3.84-7.08,7.886,7.886,0,0,1,3.18-6.5,13.173,13.173,0,0,1,8.38-2.5q9.12,0,12.64,7.28l-5.48,2.04a7.44,7.44,0,0,0-3.28-3.32,9.471,9.471,0,0,0-4.12-.76,6.069,6.069,0,0,0-4,1.2,3.066,3.066,0,0,0-1.2,2.44,3.012,3.012,0,0,0,1.6,2.72,15.763,15.763,0,0,0,3.92,1.28q4.64,1.04,5.64,1.36a12.159,12.159,0,0,1,5,2.76A7.76,7.76,0,0,1-59.89-8.72Zm28.52-16.96h-9.68V.72h-6.2v-26.4h-9.52v-5.36h25.4ZM-4.25.72H-26.37V-31.04H-4.25v5.36H-20.29v7.2H-6.17v5.4H-20.29v8.4H-4.25ZM26.67-21.16a9.585,9.585,0,0,1-3.16,7.68A11.521,11.521,0,0,1,15.79-11H8.15V.72H2.07V-31.04H15.79a11.958,11.958,0,0,1,7.64,2.28Q26.67-26.16,26.67-21.16Zm-6.28.12a4.409,4.409,0,0,0-1.28-3.32,6.073,6.073,0,0,0-4.4-1.44H8.15v9.6h6.56a6.038,6.038,0,0,0,4.32-1.44A4.449,4.449,0,0,0,20.39-21.04Zm62.62,8.2q0,7.38-5.16,11.04Q73.17,1.56,65.01,1.56A25.419,25.419,0,0,1,54.15-.48a18.172,18.172,0,0,1-8.28-8.1l8.34-4.2q4.02,6.66,10.26,6.66,4.86,0,7.32-2.1a6.173,6.173,0,0,0,2.16-4.92,5.405,5.405,0,0,0-2.64-4.74q-2.64-1.74-7.44-1.74H56.19v-7.5h7.44q4.38,0,6.72-1.8a5.234,5.234,0,0,0,2.16-4.32,4.945,4.945,0,0,0-1.92-4.02,8.886,8.886,0,0,0-5.7-1.56q-6.66,0-10.92,5.82l-7.5-3.66q5.76-9.78,18.72-9.78,7.68,0,12.06,3.42a9.949,9.949,0,0,1,4.02,8.16,12.739,12.739,0,0,1-1.89,6.99,9.233,9.233,0,0,1-5.01,3.99,11.439,11.439,0,0,1,5.94,3.54A10.933,10.933,0,0,1,83.01-12.84Z" transform="translate(251 14301)" fill="#2081e2"/>
        <path id="パス_1340" data-name="パス 1340" d="M-59.89-8.72A8.65,8.65,0,0,1-64.01-.88a13.565,13.565,0,0,1-7.48,2,16.7,16.7,0,0,1-7.92-1.6,12.217,12.217,0,0,1-5.64-7.24l5.76-1.84a8.29,8.29,0,0,0,3.44,4.48,8.759,8.759,0,0,0,4.36.92,6.106,6.106,0,0,0,3.76-1.08,3.579,3.579,0,0,0,1.44-3.04,3.353,3.353,0,0,0-1.88-3.04,18.425,18.425,0,0,0-4.56-1.52q-5.8-1.32-7.72-2.48a7.6,7.6,0,0,1-3.84-7.08,7.886,7.886,0,0,1,3.18-6.5,13.173,13.173,0,0,1,8.38-2.5q9.12,0,12.64,7.28l-5.48,2.04a7.44,7.44,0,0,0-3.28-3.32,9.471,9.471,0,0,0-4.12-.76,6.069,6.069,0,0,0-4,1.2,3.066,3.066,0,0,0-1.2,2.44,3.012,3.012,0,0,0,1.6,2.72,15.763,15.763,0,0,0,3.92,1.28q4.64,1.04,5.64,1.36a12.159,12.159,0,0,1,5,2.76A7.76,7.76,0,0,1-59.89-8.72Zm28.52-16.96h-9.68V.72h-6.2v-26.4h-9.52v-5.36h25.4ZM-4.25.72H-26.37V-31.04H-4.25v5.36H-20.29v7.2H-6.17v5.4H-20.29v8.4H-4.25ZM26.67-21.16a9.585,9.585,0,0,1-3.16,7.68A11.521,11.521,0,0,1,15.79-11H8.15V.72H2.07V-31.04H15.79a11.958,11.958,0,0,1,7.64,2.28Q26.67-26.16,26.67-21.16Zm-6.28.12a4.409,4.409,0,0,0-1.28-3.32,6.073,6.073,0,0,0-4.4-1.44H8.15v9.6h6.56a6.038,6.038,0,0,0,4.32-1.44A4.449,4.449,0,0,0,20.39-21.04Zm62.62,8.2q0,7.38-5.16,11.04Q73.17,1.56,65.01,1.56A25.419,25.419,0,0,1,54.15-.48a18.172,18.172,0,0,1-8.28-8.1l8.34-4.2q4.02,6.66,10.26,6.66,4.86,0,7.32-2.1a6.173,6.173,0,0,0,2.16-4.92,5.405,5.405,0,0,0-2.64-4.74q-2.64-1.74-7.44-1.74H56.19v-7.5h7.44q4.38,0,6.72-1.8a5.234,5.234,0,0,0,2.16-4.32,4.945,4.945,0,0,0-1.92-4.02,8.886,8.886,0,0,0-5.7-1.56q-6.66,0-10.92,5.82l-7.5-3.66q5.76-9.78,18.72-9.78,7.68,0,12.06,3.42a9.949,9.949,0,0,1,4.02,8.16,12.739,12.739,0,0,1-1.89,6.99,9.233,9.233,0,0,1-5.01,3.99,11.439,11.439,0,0,1,5.94,3.54A10.933,10.933,0,0,1,83.01-12.84Z" transform="translate(247 14301)"/>
      </g>
      <g id="グループ_692-3" data-name="グループ 692" transform="translate(-3)">
        <path id="長方形_2739-3" data-name="長方形 2739" d="M4,4V154H493V4H4M0,0H497V158H0Z" transform="translate(163 14307)" fill="#2081e2"/>
        <rect id="長方形_2740-3" data-name="長方形 2740" width="473" height="133" transform="translate(174 14319)"/>
      </g>
      <path id="パス_2811" data-name="パス 2811" d="M11.712-17.424H5.376a18.366,18.366,0,0,1-2.424-.12,25.854,25.854,0,0,1,.12,3.24C3.072-5.64,2.64-2.856.84.216a6.316,6.316,0,0,1,1.344,1.1A15.245,15.245,0,0,0,4.056-4.128c.432-2.544.576-5.256.576-11.9H20.088a18.459,18.459,0,0,1,2.592.12v-1.656a16.485,16.485,0,0,1-2.592.144H13.272v-1.248a5.352,5.352,0,0,1,.144-1.536H11.568a7.7,7.7,0,0,1,.144,1.512ZM6.288-.816A23.838,23.838,0,0,0,8.4-9.12L6.888-9.528c-.336,3.672-.864,5.736-2.04,7.848Zm3.864-10.8a11.749,11.749,0,0,1,.144,2.16V-.288c0,1.416.576,1.656,3.96,1.656,2.328,0,3.264-.168,3.768-.744.528-.576.816-2.064.984-5.064a5.543,5.543,0,0,1-1.536-.6v.6a13.757,13.757,0,0,1-.408,3.72c-.24.5-.84.648-2.9.648a7.9,7.9,0,0,1-1.944-.144c-.312-.12-.384-.24-.384-.624V-9.432a11.871,11.871,0,0,1,.144-2.184Zm7.176.264A30.348,30.348,0,0,0,11.5-15.144l-1.008,1.056a21.078,21.078,0,0,1,5.784,3.96Zm5.568,9.5A34.7,34.7,0,0,0,19.968-9.72l-1.392.6a25.529,25.529,0,0,1,2.76,7.944ZM29.784-3.12a13.969,13.969,0,0,1,2.328-.12h2.016a6.617,6.617,0,0,1-2.28,2.088A13.145,13.145,0,0,1,26.856.408a4.344,4.344,0,0,1,.864,1.344A13.588,13.588,0,0,0,32.952-.264a8.021,8.021,0,0,0,2.76-2.976H41.04a10.892,10.892,0,0,1-.456,2.712c-.216.624-.5.792-1.512.792a15.08,15.08,0,0,1-2.664-.312,4.353,4.353,0,0,1,.36,1.464c.96.1,1.8.144,2.5.144,1.392,0,2.088-.288,2.448-.984a12.4,12.4,0,0,0,.792-3.96c.024-.36.048-.48.072-.7A20.642,20.642,0,0,0,46.368-2.5a4.7,4.7,0,0,1,.864-1.344A14.169,14.169,0,0,1,40.7-6.768h3.672a16.6,16.6,0,0,1,2.424.144V-8.16a16.729,16.729,0,0,1-2.448.144H34.536a8.18,8.18,0,0,0,.96-1.368h6.216c.72,0,1.344.024,1.92.072-.048-.576-.072-1.056-.072-1.632v-3c0-.6.024-1.1.072-1.656a16.605,16.605,0,0,1-1.9.072H30.456a16.605,16.605,0,0,1-1.9-.072c.048.6.072,1.1.072,1.656v3c0,.552-.024,1.008-.072,1.632.576-.048,1.176-.072,1.9-.072h3.528a8.179,8.179,0,0,1-1.032,1.368H27.72a16.958,16.958,0,0,1-2.448-.144v1.536A17.3,17.3,0,0,1,27.7-6.768h3.936A17.241,17.241,0,0,1,28.7-4.992a18.449,18.449,0,0,1-3.48,1.272,3.9,3.9,0,0,1,.936,1.272,27.136,27.136,0,0,0,3.624-1.7ZM38.9-6.768A15.844,15.844,0,0,0,41.952-4.44c-.48.024-.48.024-1.728.024H36.216l.168-.5.36-1.2-1.7-.12A4.989,4.989,0,0,1,34.7-4.416H31.992c-.84,0-.984,0-1.656-.048a15.12,15.12,0,0,0,3.072-2.3ZM30.024-14.4H42.168v1.392H30.024Zm0,2.448H42.168v1.464H30.024Zm1.68-6.432h-3.84a17.427,17.427,0,0,1-2.448-.144v1.56a13.578,13.578,0,0,1,2.424-.192H31.7a7.964,7.964,0,0,1-.1,1.152H33.24a5.012,5.012,0,0,1-.072-1.152h5.52a5.358,5.358,0,0,1-.072,1.176h1.632a6.309,6.309,0,0,1-.1-1.176H44.16a13.578,13.578,0,0,1,2.424.192v-1.56a17.427,17.427,0,0,1-2.448.144H40.152v-.24a8.2,8.2,0,0,1,.1-1.416H38.592a8.567,8.567,0,0,1,.1,1.416v.24h-5.52v-.24a8.141,8.141,0,0,1,.072-1.416H31.608a8.269,8.269,0,0,1,.1,1.392Zm27.288,1.1H52.464a22.786,22.786,0,0,1-2.424-.1,10.651,10.651,0,0,1,.1,1.632v1.584a11.54,11.54,0,0,1-.1,1.68h1.584v-3.432h16.92v3.432H70.1a10.924,10.924,0,0,1-.1-1.68v-1.584a10.067,10.067,0,0,1,.1-1.632,22.3,22.3,0,0,1-2.4.1H60.552v-.864a7.992,7.992,0,0,1,.168-1.9h-1.9a8.54,8.54,0,0,1,.168,1.9ZM56.256-7.824a16.838,16.838,0,0,1-.168,1.7,7.134,7.134,0,0,1-2.664,4.392A11.588,11.588,0,0,1,49.3.216,5.352,5.352,0,0,1,50.28,1.7,25.407,25.407,0,0,0,53.424.216,8.9,8.9,0,0,0,56.9-3.552a9.688,9.688,0,0,0,.96-4.272H61.32V-.7c0,1.44.672,1.728,4.176,1.728,4.728,0,5.088-.288,5.208-4.128a5.1,5.1,0,0,1-1.488-.6,12.064,12.064,0,0,1-.144,2.352c-.168.792-.72.96-3.432.96-2.424,0-2.76-.1-2.76-.768V-7.824h4.944a16.238,16.238,0,0,1,2.4.144V-9.336a15.794,15.794,0,0,1-2.4.144H52.248a15.794,15.794,0,0,1-2.4-.144V-7.68a16.465,16.465,0,0,1,2.4-.144Zm-3.1-3.96a12.826,12.826,0,0,1,2.112-.12h9.36a12.826,12.826,0,0,1,2.112.12v-1.608a12.65,12.65,0,0,1-2.112.12h-9.36a12.65,12.65,0,0,1-2.112-.12Zm37.632-5.4a24.819,24.819,0,0,1-6.144,4.392H83.232a16.973,16.973,0,0,1,.12,2.376V-.672c0,.408-.216.528-.984.528a21.178,21.178,0,0,1-3.84-.384,6.954,6.954,0,0,1,.336,1.68c1.44.144,2.52.216,3.336.216a6.077,6.077,0,0,0,2.088-.24A1.628,1.628,0,0,0,85.032-.48V-11.328A29.214,29.214,0,0,0,91.488-15.7c.6-.552.912-.84,1.968-1.92l-.936-1.1a16.247,16.247,0,0,1-2.3.1H77.688a21.418,21.418,0,0,1-2.928-.168v1.776a22.638,22.638,0,0,1,2.928-.168Zm18.1,12.7c-.048-.6-.072-1.032-.072-1.464,0-.1,0-.1.024-1.1l.192-8.544c.024-1.008.072-1.728.144-2.64H106.8c.1.912.12,1.632.144,2.64l.216,8.544v.864c0,.792,0,.96-.048,1.7ZM109.176,0V-2.256h-2.328V0Zm22.056-10.752H124.9a14.425,14.425,0,0,1-2.256-.12v1.7a14.361,14.361,0,0,1,2.184-.12h14.4v3.312H125.616a12.7,12.7,0,0,1-2.208-.12v1.7a12.967,12.967,0,0,1,2.136-.12h13.68V-.84H124.632a13.578,13.578,0,0,1-2.208-.12V.768a15.378,15.378,0,0,1,2.232-.144h14.568V1.9h1.68a18.819,18.819,0,0,1-.144-2.424V-9a15.387,15.387,0,0,1,.1-1.9,9.651,9.651,0,0,1-1.9.144h-6.168v-7.1a11.747,11.747,0,0,1,.144-2.16h-1.848a11.928,11.928,0,0,1,.144,2.16Zm-8.16-7.032a23.767,23.767,0,0,1,3.672,5.9l1.416-.816a26.025,26.025,0,0,0-3.744-5.832Zm16.392-.888a19.517,19.517,0,0,1-3.84,6.384l1.32.816a24.233,24.233,0,0,0,4.008-6.48ZM155.16-8.4v2.28h-1.992a11.919,11.919,0,0,1-2.16-.12v1.416a12.225,12.225,0,0,1,2.184-.12H164.16a14.3,14.3,0,0,1,2.352.12V-6.24a14.122,14.122,0,0,1-2.352.12h-2.232V-8.4h1.512a13.7,13.7,0,0,1,2.256.12V-9.672a12.536,12.536,0,0,1-2.208.12h-1.56c.024-.72.048-1.032.1-1.536h-1.632a11.391,11.391,0,0,1,.12,1.536h-3.96a11.77,11.77,0,0,1,.1-1.536h-1.632a12.118,12.118,0,0,1,.12,1.536H154.2a12.2,12.2,0,0,1-2.208-.12V-8.28a13.021,13.021,0,0,1,2.232-.12Zm1.392,0h3.984v2.28h-3.984Zm1.248-9.576a10.261,10.261,0,0,1,.048-1.3,13.75,13.75,0,0,1-2.112.1h-2.544a10.606,10.606,0,0,1-1.9-.12v1.44a10.445,10.445,0,0,1,1.9-.12h3.264v1.8h-3.5a11.383,11.383,0,0,1-1.512-.072,9.627,9.627,0,0,1,.072,1.32v1.8c0,1.248.384,1.416,3.192,1.416,1.944,0,2.592-.1,2.928-.408.408-.36.552-.816.7-2.016a3.853,3.853,0,0,1-1.248-.576,3.952,3.952,0,0,1-.24,1.464c-.168.288-.552.36-2.28.36-1.584,0-1.728-.072-1.728-.672V-15.1h3.528a13.115,13.115,0,0,1,1.488.072A9.113,9.113,0,0,1,157.8-16.3Zm7.944,0a9.878,9.878,0,0,1,.048-1.3,13.749,13.749,0,0,1-2.112.1h-2.544a10.606,10.606,0,0,1-1.9-.12v1.44a10.445,10.445,0,0,1,1.9-.12H164.4v1.8h-3.528a11.806,11.806,0,0,1-1.536-.072,9.3,9.3,0,0,1,.1,1.344v1.752c0,1.272.36,1.44,3.24,1.44,3.384,0,3.552-.1,3.84-2.424a4.885,4.885,0,0,1-1.272-.576,3.2,3.2,0,0,1-.336,1.584c-.192.192-.768.264-2.424.264a5.51,5.51,0,0,1-1.416-.12c-.24-.1-.288-.192-.288-.576V-15.1H164.3a13.114,13.114,0,0,1,1.488.072,9.3,9.3,0,0,1-.048-1.272Zm-9.7,13.224A12.235,12.235,0,0,1,151.7-2.16a3.4,3.4,0,0,1,1.1,1.08,14.982,14.982,0,0,0,4.416-2.9Zm3.864.84A17.2,17.2,0,0,0,165.048-.96a5.954,5.954,0,0,1,1.032-1.224,15.726,15.726,0,0,1-5.04-2.5Zm-14.16-14.376a21.92,21.92,0,0,1,3.432,4.08l1.224-1.08a31.4,31.4,0,0,0-3.552-3.984Zm-.408,9.408A9.247,9.247,0,0,1,147.1-9h1.464v5.808a13.414,13.414,0,0,1-3.7,2.856l.792,1.584c.336-.312.336-.312.768-.672.84-.7.84-.7,1.128-.936.552-.48.96-.888,1.68-1.632a6.307,6.307,0,0,0,2.5,2.3c1.44.672,2.688.816,6.888.816,2.9,0,5.592-.048,8.064-.168a6.314,6.314,0,0,1,.552-1.728,70.845,70.845,0,0,1-9.672.48c-2.832,0-4.248-.192-5.448-.72a3.791,3.791,0,0,1-2.064-2.184V-7.92a18.4,18.4,0,0,1,.1-2.52,10.74,10.74,0,0,1-1.824.12h-1.128a9.726,9.726,0,0,1-1.848-.12Zm26.28-3.816a5.3,5.3,0,0,1,.936-.072,70.667,70.667,0,0,0,8.544-.624c.144.24.144.288.408.792a29.266,29.266,0,0,0,2.88,4.7,11.984,11.984,0,0,0-4.968-.864,10.2,10.2,0,0,0-4.656.888,4.486,4.486,0,0,0-2.712,3.912,3.871,3.871,0,0,0,1.08,2.64c1.1,1.152,3.312,1.8,6.24,1.8a19.9,19.9,0,0,0,7.056-1.3l-.264-1.848a15.823,15.823,0,0,1-6.816,1.536,8.129,8.129,0,0,1-4.68-1.1A2.4,2.4,0,0,1,173.76-4.1a2.726,2.726,0,0,1,1.3-2.232,8.508,8.508,0,0,1,4.56-1.008,13.005,13.005,0,0,1,4.2.624,4.8,4.8,0,0,1,1.656.984l1.608-.912a44.444,44.444,0,0,1-4.32-6.984c.24-.048.24-.048.816-.168,1.512-.288,1.8-.36,3.24-.744.72-.192.912-.24,1.416-.336l-.24-1.7a28.088,28.088,0,0,1-5.808,1.512,19.741,19.741,0,0,1-.864-2.112,7.65,7.65,0,0,1-.7-2.16l-1.9.264c.216.432.36.768.624,1.392.432,1.08.816,2.04,1.176,2.856a56.019,56.019,0,0,1-7.152.5,10.522,10.522,0,0,1-1.848-.12Zm23.016,9.72a5.087,5.087,0,0,1,.624-.768c.408-.456.744-.84,1.008-1.128.816-.912.816-.912,1.176-1.32a2.666,2.666,0,0,0,.432-.576h.048c-.072,1.08-.072,1.08-.072,3.888a20.521,20.521,0,0,1-.168,3.96h1.872a37.217,37.217,0,0,1-.072-3.984V-8.088a38.917,38.917,0,0,1,4.632-4.08,6.832,6.832,0,0,1,3.624-1.632,1.216,1.216,0,0,1,1.32,1.3,17.99,17.99,0,0,1-.6,3.6c-.864,4.1-.912,4.368-.912,5.592A2.988,2.988,0,0,0,208.68-.576a2.959,2.959,0,0,0,1.68.5A4.132,4.132,0,0,0,213.672-1.8a11.846,11.846,0,0,0,1.488-2.376,7.9,7.9,0,0,1-1.1-1.632,9.876,9.876,0,0,1-1.368,2.76,2.894,2.894,0,0,1-2.04,1.32c-.936,0-1.44-.6-1.44-1.7,0-.984.144-1.824,1.032-5.688a16.031,16.031,0,0,0,.552-3.5,2.609,2.609,0,0,0-2.808-2.808c-1.44,0-3.24.888-5.424,2.64a17.132,17.132,0,0,0-3.048,2.808l-.048-.024c0-.144.024-.192.024-.384a1.226,1.226,0,0,0,.024-.216c.024-1.128.024-1.128.048-1.608a4.09,4.09,0,0,0,.024-.6,8.271,8.271,0,0,1,1.224-1.488l-.624-.744a1.567,1.567,0,0,1-.48.12,27.935,27.935,0,0,1,.288-4.272l-1.9-.024a9.768,9.768,0,0,1,.072,1.2c0,.312-.024,1.392-.1,3.216-2.016.12-3.072.192-3.144.192a4.856,4.856,0,0,1-.744-.048l.1,1.656a24.456,24.456,0,0,1,3.768-.336c-.072,2.112-.12,3.624-.144,4.584A36.853,36.853,0,0,1,193.68-4.7Zm24.024-10.416a3.574,3.574,0,0,1,.408-.024h.1c.936.048,1.152.048,1.992.048.888,0,1.176,0,1.656-.024A48.268,48.268,0,0,1,218.3-.12l1.752.744a63.239,63.239,0,0,0,2.76-7.32c.648-2.184,1.32-4.9,1.68-6.792a35.08,35.08,0,0,0,4.056-.576c.48-.1.48-.1.672-.12l-.12-1.656a19.789,19.789,0,0,1-4.32.816c.12-.72.192-1.056.312-1.824a22.693,22.693,0,0,1,.432-2.28l-1.9-.192A23.469,23.469,0,0,1,223.1-14.9c-.7.048-.96.048-1.44.048a16.552,16.552,0,0,1-3-.216Zm18.12,1.176c-1.8-.072-2.16-.072-2.616-.072a27.191,27.191,0,0,0-6.36.792l.168,1.632a20.889,20.889,0,0,1,6-.816,24.1,24.1,0,0,1,2.832.168Zm-8.736,5.184c-1.272,1.632-1.608,2.376-1.608,3.456,0,2.376,2.04,3.6,5.976,3.6a24.049,24.049,0,0,0,4.272-.408c.792-.12.792-.12,1.056-.168l-.168-1.8a17.831,17.831,0,0,1-5.3.816c-2.736,0-4.2-.768-4.2-2.208a2.888,2.888,0,0,1,.6-1.7,8.043,8.043,0,0,1,.72-.912Zm22.944-8.9h-6.84a16.152,16.152,0,0,1-2.664-.168v1.8a18.611,18.611,0,0,1,2.688-.144h5.04c-.192,5.04-1.128,8.3-3.1,10.848A12.437,12.437,0,0,1,241.248.288a4.644,4.644,0,0,1,1.176,1.344A14.358,14.358,0,0,0,245.04-.12a15.31,15.31,0,0,0,2.976-3.312,16.125,16.125,0,0,0,2.28-6.144h7.536a46.025,46.025,0,0,1-.744,7.272c-.36,1.776-.6,2.064-1.632,2.064a19.426,19.426,0,0,1-3.624-.384,5.227,5.227,0,0,1,.384,1.7c1.3.144,2.568.216,3.336.216,1.92,0,2.5-.5,3-2.568a50.217,50.217,0,0,0,.912-8.184c.048-.936.072-1.2.12-1.68a15.27,15.27,0,0,1-2.472.12H250.56a33.267,33.267,0,0,0,.336-3.432h9.1a14.989,14.989,0,0,1,2.712.144v-1.8a16.86,16.86,0,0,1-2.76.168H252.6v-1.8a11.688,11.688,0,0,1,.144-2.112h-1.92a13.212,13.212,0,0,1,.168,2.112Zm17.664-2.784a13.366,13.366,0,0,1-.336,1.92,39.7,39.7,0,0,0-1.08,9.5A34.4,34.4,0,0,0,267.864-.5c.072.456.1.576.144.96l1.728-.144v-.36a20.921,20.921,0,0,1,1.944-6.6L270.528-7.2a22.3,22.3,0,0,0-1.56,4.68c-.1-1.272-.144-2.688-.144-4.56a35.48,35.48,0,0,1,.72-7.512,34.1,34.1,0,0,1,1.008-3.84Zm4.944,4.536a31.967,31.967,0,0,0,3.84.24,40.516,40.516,0,0,0,5.16-.312q1.584-.216,1.656-.216l-.12-1.7a25.752,25.752,0,0,1-6.432.648,16.3,16.3,0,0,1-4.08-.36Zm1.752,4.68c-1.488,1.7-2.088,3-2.088,4.464a3.392,3.392,0,0,0,.72,2.208c1.032,1.248,2.76,1.824,5.5,1.824a24.76,24.76,0,0,0,4.92-.48c.48-.072.528-.1.84-.12L285-3.456a15.8,15.8,0,0,1-5.52.84c-3.1,0-4.608-.864-4.608-2.64a5.575,5.575,0,0,1,1.8-3.528Zm21.456-2.88h.1a1.1,1.1,0,0,1,.24.024,3.574,3.574,0,0,1,.408.024,6.294,6.294,0,0,1,.768.048c.84.048,1.728.072,2.712.072.912,0,1.656-.024,2.736-.072.072,3.5.168,5.76.24,6.264a6.78,6.78,0,0,0-2.664-.48c-2.664,0-4.56,1.416-4.56,3.408,0,2.088,1.752,3.408,4.536,3.408,1.968,0,3.432-.744,4.008-2.016a4.137,4.137,0,0,0,.288-1.632,3.443,3.443,0,0,0-.048-.624,1.685,1.685,0,0,1,.216.144,1.542,1.542,0,0,0,.24.144,12.969,12.969,0,0,1,3.408,2.5l.744-1.68c-.264-.168-.312-.216-.6-.408a17.372,17.372,0,0,0-4.008-2.352c-.192-3.192-.24-4.416-.264-6.792a22.943,22.943,0,0,0,2.544-.384c1.632-.336,1.632-.336,1.68-.336l-.072-1.632a16.357,16.357,0,0,1-4.152.888c-.024-.528-.024-.912-.024-1.176a24.556,24.556,0,0,1,.168-3.768h-1.8a5.326,5.326,0,0,1,.072.984c0,1.824,0,1.824.024,4.08-.984.048-1.632.072-2.568.072a16.614,16.614,0,0,1-4.32-.384Zm7.224,7.824s.024.552.024.72a2.8,2.8,0,0,1-.456,1.872,3.308,3.308,0,0,1-2.448.84c-1.68,0-2.784-.768-2.784-1.944,0-1.2,1.224-1.992,3.1-1.992A6.2,6.2,0,0,1,304.032-4.56ZM292.56-18.84a11.052,11.052,0,0,1-.264,1.512,40.665,40.665,0,0,0-1.248,9.864,38.2,38.2,0,0,0,.672,7.128c.1.552.12.672.144.888l1.7-.168a2.614,2.614,0,0,1-.048-.48,20.725,20.725,0,0,1,2.064-6.816l-1.176-.552a3.309,3.309,0,0,1-.192.48A21.3,21.3,0,0,0,292.8-2.76l-.1-.024V-3.24c-.024-.432-.024-.48-.024-.672-.048-1.1-.1-2.52-.1-3.36a34.2,34.2,0,0,1,1.848-11.256Zm-279,39.752A15.229,15.229,0,0,1,10.7,24.92c-.384-.288-.672-.528-1.584-1.224L8.088,24.8a37,37,0,0,1,4.8,3.936c-.432.432-.432.432-1.728,1.656-2.136.072-2.136.072-2.568.072a11.012,11.012,0,0,1-1.728-.1l.264,1.608a8.055,8.055,0,0,1,1.152-.12c2.352-.12,3.6-.192,3.768-.192a12.966,12.966,0,0,1-5.64,5.328,5.994,5.994,0,0,1,1.08,1.152,16.314,16.314,0,0,0,3.288-2.64,15.013,15.013,0,0,0,2.76,3,20.207,20.207,0,0,1-7.368,2.76,4.46,4.46,0,0,1,.912,1.392,21.326,21.326,0,0,0,7.632-3.264,14.166,14.166,0,0,0,2.112,1.224,21.658,21.658,0,0,0,5.4,1.968,8.546,8.546,0,0,1,.792-1.512A20.357,20.357,0,0,1,15.96,38.5a18.04,18.04,0,0,0,3.48-3.576,5.156,5.156,0,0,1,.552-.72l-.984-.912a12.421,12.421,0,0,1-1.968.12H12.48a13.5,13.5,0,0,0,1.152-1.872c2.64-.168,2.64-.168,6.744-.624.48.672.672.96,1.32,1.92l1.248-.864a47.2,47.2,0,0,0-4.152-4.992l-1.128.768a25.137,25.137,0,0,1,1.872,2.064c-3.072.288-3.072.288-6.408.48a51.016,51.016,0,0,0,5.16-5.448c.576-.7.72-.864.96-1.128l-1.512-.888A23.875,23.875,0,0,1,13.9,27.7c-.816-.768-1.176-1.1-2.16-1.944A29.749,29.749,0,0,0,14.4,22.52c.336-.528.408-.6.6-.864ZM17.784,34.64a12.24,12.24,0,0,1-3.048,3.048A13.8,13.8,0,0,1,11.76,34.64ZM6.024,20.816A12.869,12.869,0,0,1,1.08,25.952a3.619,3.619,0,0,1,.96,1.176,18.921,18.921,0,0,0,4.776-4.7c.36-.48.36-.48.552-.72ZM3.84,39.9A20.16,20.16,0,0,1,3.7,42.68H5.448a28.415,28.415,0,0,1-.12-2.856V29.912a17.563,17.563,0,0,0,1.584-2.184,8.043,8.043,0,0,1,.7-1.056l-1.368-.84A11.029,11.029,0,0,1,4.824,28.28a16.632,16.632,0,0,1-4.2,4.2,4,4,0,0,1,.888,1.32,11.7,11.7,0,0,0,2.376-2.376c-.024,1.344-.024,1.344-.024,1.512,0,.336,0,.888-.024,1.7Zm24.36.024a18.446,18.446,0,0,1-.144,2.544h1.752V40.9H42.192v1.56h1.752A18.346,18.346,0,0,1,43.8,39.9V24.512a15.093,15.093,0,0,1,.12-2.208,17.411,17.411,0,0,1-2.472.12h-10.8a19.581,19.581,0,0,1-2.568-.12,16.817,16.817,0,0,1,.12,2.352Zm1.608-16.032H42.192v6.72H29.808Zm0,8.184H42.192V39.44H29.808Zm26.629,6.936a6.445,6.445,0,0,0,1.945-.246A4.279,4.279,0,0,0,60.609,37a7.2,7.2,0,0,0,1-2.672,10.191,10.191,0,0,0,.176-1.8,8.4,8.4,0,0,0-1.271-4.969,4.7,4.7,0,0,0-4.1-1.77H52.277V39.008Zm-6.5-15.223h6.973a6.572,6.572,0,0,1,5.508,2.52,9.289,9.289,0,0,1,1.746,5.824,11.6,11.6,0,0,1-1.031,4.957A6.363,6.363,0,0,1,56.883,41H49.934Zm17.168,0h3.34L75.387,38.34,80.3,23.785h3.3V41H81.387V30.84q0-.527.023-1.746t.023-2.613L76.523,41H74.215L69.27,26.48v.527q0,.633.029,1.928t.029,1.9V41H67.1ZM89.98,22.28a13.363,13.363,0,0,1-.336,1.92,39.7,39.7,0,0,0-1.08,9.5,34.4,34.4,0,0,0,.624,6.792c.072.456.1.576.144.96l1.728-.144v-.36A20.92,20.92,0,0,1,93,34.352L91.852,33.8a22.3,22.3,0,0,0-1.56,4.68c-.1-1.272-.144-2.688-.144-4.56a35.48,35.48,0,0,1,.72-7.512,34.1,34.1,0,0,1,1.008-3.84Zm4.944,4.536a31.967,31.967,0,0,0,3.84.24,40.515,40.515,0,0,0,5.16-.312q1.584-.216,1.656-.216l-.12-1.7a25.753,25.753,0,0,1-6.432.648,16.3,16.3,0,0,1-4.08-.36Zm1.752,4.68c-1.488,1.7-2.088,3-2.088,4.464a3.392,3.392,0,0,0,.72,2.208c1.032,1.248,2.76,1.824,5.5,1.824a24.761,24.761,0,0,0,4.92-.48c.48-.072.528-.1.84-.12l-.24-1.848a15.8,15.8,0,0,1-5.52.84c-3.1,0-4.608-.864-4.608-2.64A5.576,5.576,0,0,1,98,32.216Zm15.12-4.44a70.493,70.493,0,0,1,8.28-.792,46.509,46.509,0,0,0,5.28-.528,15.711,15.711,0,0,0-2.28,1.272c-2.856,1.92-4.488,4.584-4.488,7.368a5.842,5.842,0,0,0,2.664,4.9,12.106,12.106,0,0,0,5.184,1.848c.384.072.48.1.744.144l.312-1.944h-.24a12.3,12.3,0,0,1-3.6-.768,4.706,4.706,0,0,1-3.36-4.44,7.336,7.336,0,0,1,2.952-5.544,12.187,12.187,0,0,1,4.608-2.424,11.131,11.131,0,0,1,2.688-.312l-.144-1.8a16.111,16.111,0,0,1-2.856.264c-3.1.144-10.776.576-13.632.792-.744.048-1.032.072-1.368.072h-.864Zm28.248,4.536c-1.848,1.56-2.76,3.072-2.76,4.632a3.823,3.823,0,0,0,2.736,3.624,16.932,16.932,0,0,0,5.52.744,39.149,39.149,0,0,0,6.48-.552,7.458,7.458,0,0,1,.816-.12l-.216-1.968a22.767,22.767,0,0,1-7.2.912,15.283,15.283,0,0,1-4.392-.48c-1.344-.456-2.04-1.248-2.04-2.352,0-1.128.72-2.232,2.28-3.528Zm-1.44-6.144c.336.024.336.024.792.072a46.947,46.947,0,0,0,5.28.312,18.97,18.97,0,0,0,3.624-.312,37.324,37.324,0,0,0-4.248,2.544l1.224.984a36.6,36.6,0,0,1,6.048-3.648l-.12-1.584a26.247,26.247,0,0,1-6.072.5,27.439,27.439,0,0,1-6.384-.576Zm10.92,3.072a18.715,18.715,0,0,1,2.448,3.816l1.2-.72a19.13,19.13,0,0,0-2.448-3.72Zm2.664-1.392a20.128,20.128,0,0,1,2.448,3.768l1.2-.672a18.5,18.5,0,0,0-2.5-3.744Zm19.1-2.616v1.9h-3.648a14.031,14.031,0,0,1-1.872-.1,11.235,11.235,0,0,1,.1,1.584v4.848a10.676,10.676,0,0,1-.1,1.56,15.643,15.643,0,0,1,1.9-.1h3.624v1.968h-4.224a14.254,14.254,0,0,1-2.4-.12v1.488a19.364,19.364,0,0,1,2.4-.12h4.224v.456a12.8,12.8,0,0,1-.168,2.184h1.68a12.8,12.8,0,0,1-.168-2.184v-.456h4.824a14.794,14.794,0,0,1,2.4.12V36.056a13.923,13.923,0,0,1-2.376.12h-4.848V34.208h4.008a14.741,14.741,0,0,1,1.872.1,10.259,10.259,0,0,1-.1-1.56v-4.8a11.27,11.27,0,0,1,.1-1.632,14.5,14.5,0,0,1-1.872.1h-4.008v-1.9h4.752a14.612,14.612,0,0,1,2.4.12V23.144a19.744,19.744,0,0,1-2.5.12h-4.656a11.961,11.961,0,0,1,.168-2.16h-1.68a12.141,12.141,0,0,1,.168,2.16h-4.2a19.468,19.468,0,0,1-2.5-.12v1.488a12.492,12.492,0,0,1,2.256-.12Zm0,3.1v2.04H167.26v-2.04Zm1.344,0h4.392v2.04h-4.392ZM171.292,30.8v2.208H167.26V30.8Zm1.344,0h4.392v2.208h-4.392Zm-13.7-8.328a22.382,22.382,0,0,1,3.744,4.368l1.224-1.1a31.973,31.973,0,0,0-3.864-4.224Zm-.336,9.7a9.519,9.519,0,0,1,1.776-.12h1.584v5.808a15.336,15.336,0,0,1-3.864,2.88l.792,1.584a9.62,9.62,0,0,1,.936-.792,24.565,24.565,0,0,0,2.832-2.472,5.755,5.755,0,0,0,1.992,1.968c1.536.888,2.976,1.128,6.96,1.128,2.832,0,6.216-.072,8.352-.168a5.894,5.894,0,0,1,.552-1.752,67.642,67.642,0,0,1-9.648.456c-3.408,0-4.848-.288-6.24-1.32a3.449,3.449,0,0,1-1.176-1.536v-4.7a17.909,17.909,0,0,1,.12-2.544,11.21,11.21,0,0,1-1.848.12h-1.248a10,10,0,0,1-1.872-.12Zm24.144.816c1.248-.144,1.248-.144,3.168-.312.288-.024.336-.024.72-.048V40.4a16.6,16.6,0,0,1-.144,2.424h1.7a16.239,16.239,0,0,1-.144-2.4V32.48c.984-.12,1.368-.168,2.064-.288.168.528.24.792.456,1.512l.816-.36a4.183,4.183,0,0,1,.552.912,23.175,23.175,0,0,0,5.9-3.72,20.3,20.3,0,0,0,6.36,3.648,4.858,4.858,0,0,1,.768-1.536,18.271,18.271,0,0,1-6.1-3.1,21.518,21.518,0,0,0,3.5-4.536,10.106,10.106,0,0,1,.576-.864l-.864-.936a11.682,11.682,0,0,1-2.256.12H196.3c.264-.456.312-.552.624-1.152.168-.336.264-.5.408-.744l-1.512-.552a10.308,10.308,0,0,1-1.7,3.384,16.11,16.11,0,0,1-3.5,3.6,3.558,3.558,0,0,1,1.056,1.008,20.359,20.359,0,0,0,2.568-2.616A15.684,15.684,0,0,0,196.8,29.6a20.222,20.222,0,0,1-5.16,3.144,22.347,22.347,0,0,0-1.776-4.1l-1.1.48a14.591,14.591,0,0,1,.888,1.872c-1.368.192-2.088.264-3.624.384,1.032-1.32,2.592-3.576,3.36-4.848.816-1.344,1.272-2.088,1.368-2.208l-1.44-.768a24.017,24.017,0,0,1-2.52,4.656c-.624-.864-.744-1.032-1.416-1.848a30.219,30.219,0,0,0,1.848-3.264,9.792,9.792,0,0,1,.888-1.608l-1.536-.624a15.79,15.79,0,0,1-2.04,4.488c-.384-.456-.552-.648-1.08-1.224l-.912,1.1A26.335,26.335,0,0,1,186,29.384c-.744,1.056-1.224,1.752-1.488,2.088-.432,0-.912.024-1.128.024a5.22,5.22,0,0,1-.888-.048Zm18.168-8.376a16.727,16.727,0,0,1-3.072,4.056,11.781,11.781,0,0,1-2.712-3.552c.12-.192.192-.264.36-.5Zm-17.016,9.528a19.135,19.135,0,0,1-1.416,6.5l1.32.624A24.628,24.628,0,0,0,185.26,34.5Zm5.16.288a22.766,22.766,0,0,1,1.08,5.5l1.32-.36a30.74,30.74,0,0,0-1.176-5.472Zm5.544,7.1h6.528V42.8h1.56a15.111,15.111,0,0,1-.12-2.448v-4.44a19.916,19.916,0,0,1,.072-2.088c-.48.024-.96.048-1.968.048h-5.616c-1.032,0-1.392,0-1.944-.048a15.777,15.777,0,0,1,.072,2.088v4.464a14.768,14.768,0,0,1-.12,2.424H194.6Zm0-6.312h6.528v4.992H194.6Zm16.3-12.936a7.382,7.382,0,0,1,.1,1.272c0,.384,0,.84-.024,1.56-.192,7.56-.216,8.16-.216,9.768,0,2.52.336,3.792,1.32,4.92a5.692,5.692,0,0,0,4.512,1.68,8.4,8.4,0,0,0,6.768-3,14.6,14.6,0,0,0,2.664-5.448,6.789,6.789,0,0,1-1.728-1.152,14.258,14.258,0,0,1-1.176,3.768,6.893,6.893,0,0,1-6.432,4.176,4.53,4.53,0,0,1-3-.936,3.778,3.778,0,0,1-1.128-2.88c-.024-.552-.048-1.152-.048-1.44,0-1.08.072-4.344.168-7.224a37,37,0,0,1,.312-5.064Zm39.432,16.8a8.2,8.2,0,0,1-.816-.552,21.008,21.008,0,0,0-6.7-3.5c-.1-2.328-.1-2.328-.144-3.672,1.776-.12,3.672-.312,5.328-.576.84-.12,1.08-.144,1.392-.168l-.1-1.656a28.968,28.968,0,0,1-6.648.984c-.024-1.272-.024-1.272-.048-3.24a49.857,49.857,0,0,0,5.568-.576c1.248-.168,1.248-.168,1.656-.192L249.7,24.3a33.832,33.832,0,0,1-7.1.984,26.784,26.784,0,0,1,.168-3.384h-1.848a18.792,18.792,0,0,1,.12,3.456c-.792,0-1.608.024-2.088.024a29.815,29.815,0,0,1-6.144-.48l-.024,1.632a1.961,1.961,0,0,1,.336-.024,2.912,2.912,0,0,1,.432.024c2.16.168,4.1.24,5.856.24.552,0,.936,0,1.632-.024l.048,3.288c-.672.024-1.512.024-2.136.024a29.455,29.455,0,0,1-5.5-.384l-.024,1.584h.192c.144,0,.336,0,.6.024,1.488.12,2.616.168,4.056.168.768,0,1.968-.024,2.832-.048.024.624.024,1.08.048,1.392.024.7.024,1.2.048,1.416a1.913,1.913,0,0,0,.024.264c0,.216,0,.216.024.288a10.674,10.674,0,0,0-2.16-.192,10.454,10.454,0,0,0-2.5.24c-2.112.48-3.36,1.728-3.36,3.312a3.139,3.139,0,0,0,1.3,2.52,6.252,6.252,0,0,0,3.72.96c1.9,0,3.36-.528,4.056-1.512a4.168,4.168,0,0,0,.6-2.616,6.9,6.9,0,0,0-.048-.864c.648.264,1.2.5,1.608.72a19.312,19.312,0,0,1,4.9,3.432Zm-9.048-1.944a3.144,3.144,0,0,1-.48,2.16,3.467,3.467,0,0,1-2.64.792c-2.088,0-3.288-.72-3.288-1.992s1.56-2.136,3.936-2.136a8.81,8.81,0,0,1,2.448.264Zm25.32-12.12c-1.632.048-3.5.1-5.808.192-3.864.144-3.864.144-4.56.144-.36,0-.528,0-.96-.024l.072,1.752c1.608-.264,6.456-.5,11.28-.6v1.248c0,.288.024.528.024.624,0,.888,0,.984.024,1.32a3.685,3.685,0,0,0-2.784-1.08,3.993,3.993,0,0,0-4.248,3.96,4.012,4.012,0,0,0,6.96,2.5,3.362,3.362,0,0,0,.648-1.176,6.216,6.216,0,0,1-2.688,5.064,12.3,12.3,0,0,1-3.888,1.8,5.269,5.269,0,0,1,1.056,1.512,15.265,15.265,0,0,0,3.792-1.944,7.724,7.724,0,0,0,3.216-6.264,6.877,6.877,0,0,0-.576-2.832V26.456c1.944-.048,2.208-.048,2.568-.048a42.656,42.656,0,0,1,4.584.12v-1.7c-.792.1-2.64.144-7.176.168v-.264a19.867,19.867,0,0,1,.12-3h-1.8a8.085,8.085,0,0,1,.1,1.392Zm-.072,7.008a2.69,2.69,0,0,1-2.808,2.832,2.32,2.32,0,0,1-2.472-2.376,2.54,2.54,0,0,1,2.664-2.52,3.07,3.07,0,0,1,1.608.384A1.737,1.737,0,0,1,266.524,32.024Z" transform="translate(195.177 14373.245)" fill="#fff"/>
    </g>
    <g id="title" transform="translate(-395.045 372.229)">
      <g id="グループ_1153" data-name="グループ 1153" transform="translate(3598.295 15154.806)">
        <path id="パス_2522" data-name="パス 2522" d="M-72,0H443.5L399,88H-72Z" transform="translate(-3014 -1029)"/>
        <path id="パス_2523" data-name="パス 2523" d="M-3086-1053.5h44l-21.269-21.382,21.269-22.886-21.269-22.62L-3042-1141.5h-44Z" transform="translate(0 112.5)" fill="#0078ff"/>
      </g>
      <path id="パス_1334" data-name="パス 1334" d="M-72.371-12.325l-3.53,1.537A34.218,34.218,0,0,0-79.46-20.04l3.3-1.338A33.045,33.045,0,0,1-72.371-12.325Zm-6.007-11.217-1.993,2.989A30.446,30.446,0,0,0-88.342-23.8l2.078-2.79A33.123,33.123,0,0,1-78.378-23.542Zm5.039-3.245h-19.5v3.616a58.122,58.122,0,0,1-.427,7.886,30.765,30.765,0,0,1-2.05,7.373L-99.16-9.649a20.353,20.353,0,0,0,2.135-6.69,52.481,52.481,0,0,0,.427-7.6v-6.405h9.338v-2.932h4.1v2.932h9.822Zm-3.587,12.953q-.142,3.786-.911,4.726t-3.445.939h-2.79a4.369,4.369,0,0,1-2.306-.4A2.624,2.624,0,0,1-87-10.674V-21.065h3.7v8.683a1.283,1.283,0,0,0,.114.669q.114.157.6.157h.683q1,0,1.224-.541A15.044,15.044,0,0,0-80.4-15Zm-10.847-5.551a39.809,39.809,0,0,1-2.078,9.509l-3.53-1.366a31.812,31.812,0,0,0,2.363-8.968Zm28.7,9.025a15.008,15.008,0,0,1-7.146,2.79l-2.818-2.761a34.713,34.713,0,0,0,4.242-.74,9.272,9.272,0,0,0,3.616-1.651h-4.384v-1.167q-1.423.655-2.9,1.2l-2.334-2.619a27.93,27.93,0,0,0,5.95-2.078h-5.067v-2.676h8.768q.2-.2.74-.8h-6.8v-7.516h3.9v-.854h-6.206v-2.847h6.206v-1.338h3.786v1.338h5.01v-1.338h3.758v1.338h6.206v2.847h-6.206v.854h4.156v7.516h-9.509l-.683.8h12.64v2.676h-5.324a35.819,35.819,0,0,0,6.235,2.078L-45.439-12.7q-1.423-.512-2.875-1.139v2.05q0,2.619-1.025,3.3-.854.569-4.156.569h-4.726ZM-57-12.724a9.423,9.423,0,0,1-1.651,1.993h4.583a4.756,4.756,0,0,0,1.48-.142q.6-.256.6-1.253v-.6Zm1.537-4.071a11.97,11.97,0,0,1-.342,1.367h4.27a35.755,35.755,0,0,1-3.018-1.964H-59.7a31,31,0,0,1-2.9,1.964h3.331a7.31,7.31,0,0,0,.37-1.367Zm.939-11.587v-.854h-5.01v.854Zm4.156,2.875v-.826h-13.1v.826Zm0,2.7v-.883h-13.1v.883Zm19.985-3.188q0,1.623-.057,2.619h11.7v7.459q0,4.954-1.452,6.405-1.253,1.253-5.466,1.253h-2.9l-1.253-3.672h3.587q2.334,0,2.89-.7t.555-3.459v-3.644H-30.75a18.619,18.619,0,0,1-2.107,6.861,14.024,14.024,0,0,1-4.868,5.039l-3.331-2.7a12.124,12.124,0,0,0,5.694-6.263q.968-2.733.968-9.2h-6.662V-29.72h10.448v-3.53h4.014v3.53H-15.86v3.729ZM-5.27-30.147l-2.192,2.989a27.981,27.981,0,0,0-5.011-2.989l2.107-2.989A29.947,29.947,0,0,1-5.27-30.147Zm-.683,7.032-2.164,2.989a27.358,27.358,0,0,0-5.153-3.018l2.021-2.989A29.6,29.6,0,0,1-5.953-23.115ZM8.082-10.133Q2.53-8.966-4.786-8.112l-1.48-3.616q1.281-.085,2.676-.2A66.367,66.367,0,0,0-.174-19.471H-5.925v-3.416H1.306v-3.929H-4.843v-3.359H1.306v-3.132H5.121v3.132h6.548v3.359H5.121v3.929h7.516v3.416H3.7Q2.3-15.884.566-12.354q2.875-.37,5.637-.883Q5.064-15,3.925-16.539l3.245-1.253a54.88,54.88,0,0,1,5.438,8.028L9.164-8.112Q8.566-9.279,8.082-10.133ZM-6.153-16.852A37.933,37.933,0,0,1-10-8.283l-3.445-1.594a34.22,34.22,0,0,0,4.156-8.768Zm48.169-3.872a13.168,13.168,0,0,1-4,9.665,13.168,13.168,0,0,1-9.665,4,13.168,13.168,0,0,1-9.665-4,13.168,13.168,0,0,1-4-9.665,13.135,13.135,0,0,1,4-9.637,13.168,13.168,0,0,1,9.665-4,13.168,13.168,0,0,1,9.665,4A13.135,13.135,0,0,1,42.017-20.723Zm-1.253,0a11.907,11.907,0,0,0-3.644-8.754,11.977,11.977,0,0,0-8.768-3.63,11.93,11.93,0,0,0-8.754,3.63,11.93,11.93,0,0,0-3.63,8.754,11.916,11.916,0,0,0,3.63,8.768A11.954,11.954,0,0,0,28.352-8.34a12,12,0,0,0,8.768-3.616A11.893,11.893,0,0,0,40.764-20.723Zm-6.69,8.939H22.515v-3.189h4.156V-25.649l-2.9,2.221-1.822-2.591,5.153-3.9h3.274v14.946h3.7Z" transform="translate(665.926 14174.994)" fill="#fdfdfd"/>
      <path id="パス_1335" data-name="パス 1335" d="M15.768-7.114H11.946L8.124-13.263,4.238-7.114H.48l5.637-8.541-5.4-8.413h3.63l3.8,6,3.8-6h3.63l-5.423,8.242ZM36.2-5.94l-2.968.726a15.579,15.579,0,0,1-3.395-4.911,13.487,13.487,0,0,1-1.2-5.487,13.606,13.606,0,0,1,1.206-5.519,15.537,15.537,0,0,1,3.384-4.879l2.968.726q-4.334,4.676-4.334,9.672T36.2-5.94Zm20.583-.384H53.795V-7.754H48.457v1.431H45.489V-24.345H56.784ZM53.795-17.512v-4.121H48.457v4.121Zm0,7.025v-4.42H48.457v4.42ZM42.671-6.26H39.746v-18.3h2.925ZM73.011-21.206H67.844V-7.114H64.535V-21.206H59.453v-2.861H73.011Zm17.466,2.114L87.466-7.114H84.584l-2.2-7.9-2.263,7.9h-2.9L74.271-19.092H77.3l1.708,7.836,2.007-7.836h2.669l2.028,7.857,1.772-7.857ZM97.2-20.779H93.808v-3.608H97.2ZM97.01-7.114H93.957v-9.352H91.48v-2.626h5.53Zm11.4-9.352h-3.459v5.4a1.666,1.666,0,0,0,.235,1.089,1.575,1.575,0,0,0,1.046.235h2.114v2.626h-3.16a3.767,3.767,0,0,1-2.584-.673,3.442,3.442,0,0,1-.7-2.509v-6.171H99.252v-2.626H101.9v-3.331h3.053v3.331h3.459Zm10.4,0h-3.459v5.4a1.666,1.666,0,0,0,.235,1.089,1.575,1.575,0,0,0,1.046.235h2.114v2.626h-3.16A3.767,3.767,0,0,1,113-7.786a3.442,3.442,0,0,1-.7-2.509v-6.171h-2.648v-2.626H112.3v-3.331h3.053v3.331h3.459ZM124-14.48h5.573a2.474,2.474,0,0,0-2.818-2.391A2.7,2.7,0,0,0,124-14.48Zm8.669,2.221h-8.775a3.355,3.355,0,0,0,1.025,2.114,2.765,2.765,0,0,0,1.943.7,3.147,3.147,0,0,0,2.9-1.644l2.776,1.046q-1.452,3.16-5.658,3.16a5.844,5.844,0,0,1-4.292-1.58,6.292,6.292,0,0,1-1.665-4.655,6.246,6.246,0,0,1,1.687-4.655,5.832,5.832,0,0,1,4.249-1.537,5.441,5.441,0,0,1,4.313,1.7,7.263,7.263,0,0,1,1.495,4.943Zm11.551-6.534-.961,2.925a3.018,3.018,0,0,0-1.836-.6,2.579,2.579,0,0,0-1.815.833,3.776,3.776,0,0,0-1,1.665v6.854h-3.011V-19.092H138.6V-17.6a4.1,4.1,0,0,1,3.48-1.687A4.305,4.305,0,0,1,144.219-18.793ZM145.692-5.94q4.334-4.676,4.334-9.672t-4.334-9.672l2.968-.726a15.537,15.537,0,0,1,3.384,4.879,13.606,13.606,0,0,1,1.206,5.519,13.487,13.487,0,0,1-1.2,5.487,15.579,15.579,0,0,1-3.395,4.911Zm38.924-14.135H173.663v-2.882h10.953ZM185.043-7.8a25.525,25.525,0,0,1-4.932.491q-7.324,0-7.324-4.74a7.521,7.521,0,0,1,1.879-4.7h3.416q-2.37,2.5-2.37,4.356,0,2.178,4.4,2.178a22.881,22.881,0,0,0,4.932-.6Zm-12.96-16.612q-.619,6.213-.619,11.274,0,3.374.149,6.363h-2.947q-.128-2.947-.128-6.32,0-5.423.555-11.316Zm23.06,15.224q2.263-.149,3.886-.32a22.2,22.2,0,0,0,1.858-9.01h-1.858v-.939h-3.886v.683h3.566v6.107h-3.566v.7h3.779V-10h-3.779Zm3.117,1.879q-3.865.512-9.715.811l-.555-2.413q2.285-.064,4.527-.149V-10h-4.1v-1.964h4.1v-.7h-3.694v-6.107h3.694v-.683H188.31V-21.5h4.206v-.726q-1.644.107-3.288.128l-1-2.092a49.469,49.469,0,0,0,9.352-.811L199.028-23q-2.114.363-3.886.555v.939h3.971v.342h1.836v-3.779h2.626v3.779h3.566v9.672q0,3.352-.641,4.356-.577.918-2.519.918H202.4L201.654-8.8h1.409q1.046,0,1.281-.6a11.461,11.461,0,0,0,.214-2.968v-6.149h-1.217a37.083,37.083,0,0,1-.747,6.619,20.493,20.493,0,0,1-2.349,5.85Zm-1.836-9.138v-.683h-1.388v.683Zm0,2.135v-.683h-1.388v.683Zm-3.8-2.135v-.683h-1.452v.683Zm0,2.135v-.683h-1.452v.683ZM228.6-21.782h-7.964v1.238h3.694v9.993H214.145v-9.993h3.715v-1.238H209.9V-24.43h18.7Zm-6.64,5.06v-1.559h-1.516v1.559Zm0,3.758V-14.63h-1.516v1.665Zm-3.929-3.758v-1.559h-1.516v1.559Zm0,3.758V-14.63h-1.516v1.665ZM228.28-5.94h-2.861v-.9h-12.3v.9h-2.882V-20.523h2.818v11.1h12.405v-11.1h2.818Zm14.22-7.174a6.467,6.467,0,0,1-1.527,4.623,5.419,5.419,0,0,1-4.132,1.612,5.442,5.442,0,0,1-4.121-1.58,6.4,6.4,0,0,1-1.6-4.655,6.318,6.318,0,0,1,1.6-4.633,5.483,5.483,0,0,1,4.121-1.559,5.411,5.411,0,0,1,4.1,1.559A6.423,6.423,0,0,1,242.5-13.114Zm-3.032,0q0-3.544-2.626-3.544-2.648,0-2.648,3.544,0,3.566,2.648,3.566Q239.468-9.548,239.468-13.114Zm14.647-5.68-.961,2.925a3.018,3.018,0,0,0-1.836-.6,2.579,2.579,0,0,0-1.815.833,3.776,3.776,0,0,0-1,1.665v6.854h-3.011V-19.092H248.5V-17.6a4.1,4.1,0,0,1,3.48-1.687A4.305,4.305,0,0,1,254.115-18.793Zm12.491.683h-6.277v-1.879h6.277Zm-.427,5.53h-.384a17.752,17.752,0,0,1,1.943,2.2v-.363l2.69.79a5.2,5.2,0,0,1-.673,3.1q-.63.7-2.744.7H263.04a3.884,3.884,0,0,1-2.007-.331q-.448-.331-.448-1.527v-3.672h2.69v2.327q0,.448.171.555a1.263,1.263,0,0,0,.619.107h2.349q.918,0,1.153-.384a3.025,3.025,0,0,0,.171-1.217L265.3-9.27a19.189,19.189,0,0,0-2.092-2.562l1.9-.747h-4.932v-4.8h6.427v3.737a13.2,13.2,0,0,0,1.665-1.409,18.543,18.543,0,0,1-1.345-5.615h-7.3v1.644a12.952,12.952,0,0,1-1.516,6.811l1.9.79A16.464,16.464,0,0,1,257.6-6.3l-2.477-1.281a13.315,13.315,0,0,0,2.285-4.185l-2.391-1.174a8.424,8.424,0,0,0,1.6-3.374,16.662,16.662,0,0,0,.342-3.715v-3.16h9.779q-.064-1.174-.064-1.943h2.669q0,1.324.021,1.943h1.388a13.615,13.615,0,0,0-1.132-1.089l1.836-1.11a15.761,15.761,0,0,1,1.836,1.879l-.534.32h1.089v2.519h-4.313a20.711,20.711,0,0,0,.534,3.2,11.46,11.46,0,0,0,1-2.882l2.263.769a18.9,18.9,0,0,1-2.092,4.548,1.213,1.213,0,0,0,.833.384q.278,0,.769-.683a7.648,7.648,0,0,0,.769-1.324l1.324,2.5a4.584,4.584,0,0,1-2.434,2.071A23.284,23.284,0,0,1,275.061-7.8l-2.6,1.2a20.125,20.125,0,0,0-2.733-4.8l1.665-.641a3.368,3.368,0,0,1-1.751-.961,17.376,17.376,0,0,1-1.794,1.644Zm-1.836-1.794v-1.2h-1.879v1.2Zm32.113,6.448-2.584,1.2a19.866,19.866,0,0,0-2.8-4.89l2.541-.982A25.61,25.61,0,0,1,296.455-7.925Zm-4.633-2.157a5.271,5.271,0,0,1-.662,3.107q-.619.694-2.733.694h-4.078a3.945,3.945,0,0,1-2.028-.331q-.448-.331-.448-1.505v-3.843h2.712v2.477q0,.534.3.619a1.866,1.866,0,0,0,.47.043h2.477q.854,0,1.068-.267a3.149,3.149,0,0,0,.235-1.505l-2.263.961a17.2,17.2,0,0,0-2.156-2.626l2.135-.811H286.7V-24.558h8.37v11.487h-7.836a17.756,17.756,0,0,1,2.007,2.242Zm.6-11.146v-1.068h-3.053v1.068Zm0,2.968v-1.025h-3.053v1.025Zm0,2.947v-1.025h-3.053v1.025Zm-11.167,3.737A16.589,16.589,0,0,1,278.9-6.345l-2.5-1.26a14.161,14.161,0,0,0,2.434-4.932Zm-.747-5.252a21.72,21.72,0,0,1-2.754,2.818l-1.324-2.242a19.173,19.173,0,0,0,4.078-4.014v-.064H277.26v-2.413h3.2v-2.178h2.8v2.178h2.648v2.413h-2.69v.448a22.9,22.9,0,0,0,3.075,2.6l-1.324,2.092q-1.046-.875-1.751-1.559v3.971h-2.712Zm35.913,1.516a32.31,32.31,0,0,0-4.42.662,32.417,32.417,0,0,1,.214,4.164h-2.754q0-2.114-.128-3.374-3.416,1.281-3.416,2.8,0,1.815,4.591,1.815a34.559,34.559,0,0,0,5.231-.47V-6.9a43.088,43.088,0,0,1-5.253.342,12.977,12.977,0,0,1-5.359-.854,3.613,3.613,0,0,1-2.221-3.523q0-3.16,5.615-5.4a1.265,1.265,0,0,0-.9-.363,6.879,6.879,0,0,0-4.569,2.135q-1.2,1.153-4.057,3.758v-3.566a24.121,24.121,0,0,0,4.911-5.7h-4.334v-2.584h5.722a20.357,20.357,0,0,0,.769-1.964h3.1q-.47,1.3-.769,1.964h7.366v2.584h-8.669q-.491.833-1.132,1.729A4.476,4.476,0,0,1,308.2-18.9a3.2,3.2,0,0,1,3.075,1.665,27.158,27.158,0,0,1,5.146-.854Zm15.992,3.459a8.821,8.821,0,0,0,1.9-2.413h-3.779A8.828,8.828,0,0,0,332.411-11.854Zm-5.765-2.071q-.939.384-1.964.7v4.612a2.8,2.8,0,0,1-.6,2.05,2.392,2.392,0,0,1-1.73.512h-1.6l-.726-2.626H321.1a1.078,1.078,0,0,0,.715-.171,1.067,1.067,0,0,0,.181-.747v-2.925q-1,.214-2.178.406l-.555-2.754q1.345-.171,2.733-.47v-3.309h-2.306v-2.669h2.306v-3.737h2.69v3.737h1.986v2.562a5.439,5.439,0,0,0,1.516-2.519,14.711,14.711,0,0,0,.278-3.374h6.854v4.292q0,.406.363.406h.256q.534,0,.641-1.11.021-.107.021-1.537l2.413.875a13.926,13.926,0,0,1-.32,2.947,1.829,1.829,0,0,1-1.943,1.238H334.4a2.761,2.761,0,0,1-1.345-.214q-.406-.3-.406-1.345v-3.032h-1.58a9.373,9.373,0,0,1-.8,3.235,6.855,6.855,0,0,1-1.868,2.253h8.84v2.157a13.6,13.6,0,0,1-2.733,4.1,19.261,19.261,0,0,0,4.633,1.687l-1.367,2.669a18.816,18.816,0,0,1-5.423-2.5A19.167,19.167,0,0,1,327.2-5.94l-1.559-2.5A18.163,18.163,0,0,0,330.3-10.3a14.526,14.526,0,0,1-2.413-3.587l1.559-.384h-2.285v-2.37h.662l-1.943-1.431q.427-.342.683-.576h-1.879V-16q1.089-.32,1.964-.641Zm32.027-2.6H348.98v-4.42h9.694Zm-2.626-1.751v-.9h-4.441v.9Zm-1.473,7.964v-1.025h-1.345v1.025Zm-11.188-2.754a28.849,28.849,0,0,1-2.028,3.48l-.961-2.882a30.526,30.526,0,0,0,2.925-5.188h-2.541V-20.1h2.6V-21.91q-.939.149-2.05.256l-.833-2.327a24.973,24.973,0,0,0,6.427-1.26l.7,1.366h4.8v-1.281h2.882v1.281h4.74v2.306H347.528v-1.345q-.747.256-1.73.512V-20.1h2.263v2.434H345.8v.214a25.152,25.152,0,0,0,2.092,3.16v-1.665h11.914v7.494a2.811,2.811,0,0,1-.448,1.89,2.513,2.513,0,0,1-1.772.459h-2.114l-.512-2.263h-1.516v.854h-2.157v-5.637h5.188v4.761h.021a.988.988,0,0,0,.587-.117q.139-.117.139-.587v-4.719h-6.747v7.772h-2.584V-13.22l-.747,1.708q-.726-.982-1.345-1.986v7.452h-2.413Zm33.607-11.167-5.317,12.726h-2.861l4.527-12.726Zm-5.466,14.007-1.26,3.352h-3.5l1.281-3.352Z" transform="translate(566.286 14204.614)" fill="#fdfdfd"/>
    </g>
  </g>
</svg>
