<svg xmlns="http://www.w3.org/2000/svg" width="727.588" height="87.511" viewBox="0 0 727.588 87.511">
  <g id="txt_caption03" transform="translate(-174.696 -6579.311)">
    <g id="グループ_1442" data-name="グループ 1442" transform="translate(-101 13.665)">
      <path id="パス_4061" data-name="パス 4061" d="M0,0H727.588L682.639,87.508H0Z" transform="translate(275.696 6565.648)"/>
      <path id="パス_4062" data-name="パス 4062" d="M-2523.746-11489.492l-21.877-21.877,21.877-21.879-21.877-21.875,21.877-21.879H-2567.5v87.51Z" transform="translate(2843.196 18142.648)" fill="#0078ff"/>
    </g>
    <path id="パス_4336" data-name="パス 4336" d="M-73.276-5.46q0,3.248-1.456,4.746T-79.38.784h-5.04V-2.94h4.144A2.981,2.981,0,0,0-78.092-3.6a3.031,3.031,0,0,0,.644-2.17v-8.82h-7.2A18.581,18.581,0,0,1-88.172-4.256a15.186,15.186,0,0,1-7.336,5.32v-4q6.58-3.7,6.8-11.648h-6.8v-3.64h6.8v-4.256h4.088v4.256h11.34Zm27.384-12.292H-65.94V-21.5h20.048Zm1.484,3.584q-.5,7.812-6.328,11.676Q-55.692.812-64.064.98v-3.7q12.208-.588,14.784-8.4h-18.2v-3.612h23.072Zm27.16-6.692q0,9.968-5.4,15.708Q-27.5,0-35.756.924v-3.7a17.527,17.527,0,0,0,9.87-4.97A15.973,15.973,0,0,0-21.7-17.584H-38.892v-3.78h21.644ZM12.6-14.672Q11.9.056-1.148,1.008V-21.784H2.744V-3.976A7.351,7.351,0,0,0,7.028-7.924,17.157,17.157,0,0,0,8.68-14.672Zm-16.66.112q0,6.972-2.128,11a13.43,13.43,0,0,1-5.32,5.348V-2.772A10.249,10.249,0,0,0-9.044-6.524a23.311,23.311,0,0,0,1.036-7.728v-7.532H-4.06Zm43.288-6.384a2.759,2.759,0,0,1-.854,2.044,2.829,2.829,0,0,1-2.058.84,2.782,2.782,0,0,1-2.044-.84,2.782,2.782,0,0,1-.84-2.044A2.829,2.829,0,0,1,34.272-23a2.759,2.759,0,0,1,2.044-.854A2.805,2.805,0,0,1,38.374-23,2.805,2.805,0,0,1,39.228-20.944ZM39,.672H24.584q-3.444,0-4.956-1.316-1.6-1.372-1.6-4.564V-22.064h4.06v4.816H38.584v3.7H22.092v7.588a2.732,2.732,0,0,0,.84,2.3,4.138,4.138,0,0,0,2.576.616H39ZM37.632-20.944a1.264,1.264,0,0,0-.392-.924,1.264,1.264,0,0,0-.924-.392,1.219,1.219,0,0,0-.91.392,1.287,1.287,0,0,0-.378.924,1.24,1.24,0,0,0,.378.91,1.241,1.241,0,0,0,.91.378,1.287,1.287,0,0,0,.924-.378A1.219,1.219,0,0,0,37.632-20.944Zm29.82,11.06h-22.9V-13.72h22.9Zm28.532-.168H87.64a11.318,11.318,0,0,1-4.508,8.316,16,16,0,0,1-8.456,2.912v-3.64q7.756-1.008,8.764-7.588H71.988v-3.612h11.62v-3.724H74.06v-3.556H84.952q3.668,0,4.984-1.12h4.788q-1.12,4-7,4.592v3.808h8.26Zm-278.39,50.1L-186.3,41a20.43,20.43,0,0,1-4.452-6.44,17.687,17.687,0,0,1-1.568-7.2,17.843,17.843,0,0,1,1.582-7.238,20.376,20.376,0,0,1,4.438-6.4l3.892.952q-5.684,6.132-5.684,12.684T-182.406,40.044Zm27.692-12.992q0,5.768-3.584,8.9a12.565,12.565,0,0,1-8.036,2.912v-3.7a9.077,9.077,0,0,0,5.292-2.212,7.882,7.882,0,0,0,2.352-6.076,6.681,6.681,0,0,0-1.372-4.228,6.828,6.828,0,0,0-4.116-2.492q-1.372,10.36-4.088,14.812a4.94,4.94,0,0,1-4.34,2.716,5.146,5.146,0,0,1-4.088-2.3,10.082,10.082,0,0,1-1.988-6.44,12.313,12.313,0,0,1,3.444-8.876,12.192,12.192,0,0,1,9.156-3.668,11.554,11.554,0,0,1,8.372,3A10.179,10.179,0,0,1-154.714,27.052Zm-13.272-7a7.74,7.74,0,0,0-5.208,3.136,9.522,9.522,0,0,0-1.82,5.768,6.866,6.866,0,0,0,.868,3.528q.756,1.288,1.484,1.288.924,0,2.072-2.6A42.582,42.582,0,0,0-167.986,20.052Zm40.992,10.556q0,8.4-11.172,8.876V35.9q7.392-.5,7.392-5.376a4.234,4.234,0,0,0-2.772-4.032A27.653,27.653,0,0,1-138.7,35.34a8.864,8.864,0,0,1-6.524,3.248,4.823,4.823,0,0,1-3.64-1.456,6.5,6.5,0,0,1-1.6-4.7,8.622,8.622,0,0,1,1.624-5.04,10.441,10.441,0,0,1,5.124-3.808l-.028-2.184h-5.88V17.9h5.88v-2.52h3.668V17.9h12.292V21.34h-12.376v1.4a20.4,20.4,0,0,1,2.464-.14q5.432,0,8.232,2.408A6.988,6.988,0,0,1-126.994,30.608Zm-9.828-4.9q-.728-.056-1.036-.056a13.458,13.458,0,0,0-2.268.2,51.562,51.562,0,0,0,.364,5.768A27.634,27.634,0,0,0-136.822,25.708Zm-5.852,8.372a30.785,30.785,0,0,1-.952-7.028,5.92,5.92,0,0,0-3.332,5.376,2.868,2.868,0,0,0,.588,1.9,1.885,1.885,0,0,0,1.512.7A3.67,3.67,0,0,0-142.674,34.08Zm34.636-19.012-11.424,24.5h-4.172l11.452-24.5Zm26.068,12.46H-95.214V24.14H-81.97Zm-1.764-5.488H-96.67a159.578,159.578,0,0,1-3.892,16.576h-4.088a110.008,110.008,0,0,0,4.172-16.548h-3.892V18.54h4.452q.2-1.456.392-3h3.92l-.448,3h12.32Zm2.352,16.24a45.25,45.25,0,0,1-7.56.616,10.594,10.594,0,0,1-5.908-1.372,4.1,4.1,0,0,1-1.932-3.612,7.478,7.478,0,0,1,1.792-4.536h4.2q-2.184,2.352-2.184,3.836,0,2.1,4.368,2.1a31.786,31.786,0,0,0,7.224-.868ZM-54.53,28.2a7.751,7.751,0,0,1-3.724,6.916q-4.032,2.6-11.956,2.408V34.108q11.816,0,11.816-5.712a3.406,3.406,0,0,0-1.344-2.856,7.019,7.019,0,0,0-4.256-1.092A37.416,37.416,0,0,0-75.25,26.576V22.964a40.992,40.992,0,0,1,11.34-2.016q4.788,0,7.2,2.1A6.486,6.486,0,0,1-54.53,28.2Zm29.484-1.848a8.879,8.879,0,0,1-4.228,7.924q-4.536,2.968-13.58,2.744V33.38q6.412,0,9.912-1.624,3.752-1.708,3.752-5.124a4.1,4.1,0,0,0-1.6-3.444,8.087,8.087,0,0,0-5.068-1.344,42.445,42.445,0,0,0-12.88,2.436V20.388a47.761,47.761,0,0,1,13.076-2.24q5.46,0,8.176,2.38A7.332,7.332,0,0,1-25.046,26.352Zm28.28-1.26A23.247,23.247,0,0,1,1.386,34.64q-2.128,4.4-6.384,4.4A5.241,5.241,0,0,1-8.582,37.9,4.222,4.222,0,0,1-9.87,34.556V30.328q0-1.652-.952-1.652a3.639,3.639,0,0,0-2.436,1.456,8.833,8.833,0,0,0-1.834,2.814,58.452,58.452,0,0,0-1.666,5.838H-20.93q4-14.812,7.14-22.96h4.368q-1.9,4.228-4.088,10.808a5.316,5.316,0,0,1,3.864-1.764q3.556,0,3.556,4.284V33.66A1.2,1.2,0,0,0-4.718,35q1.82,0,2.884-2.8A21.47,21.47,0,0,0-.77,25.092ZM21.8,15.068l-11.424,24.5H6.2l11.452-24.5Zm22.68,5.376q-5.068-.476-15.932-.476v-3.64q11.144,0,15.932.308Zm3.5,8.344q0,9.884-18.592,10.164v-3.7a31.093,31.093,0,0,0,10.108-1.512q4.34-1.652,4.34-4.844,0-3.388-5.908-3.388a48.487,48.487,0,0,0-12.208,1.82V23.5a56.814,56.814,0,0,1,12.74-1.624,12.1,12.1,0,0,1,6.916,1.68A5.911,5.911,0,0,1,47.978,28.788Zm27.188-2.744q0,6.552-3.556,9.716Q67.8,39.176,59.626,39.176V35.508q5.8-.252,8.4-2.128,3-2.184,3-7.224a9.026,9.026,0,0,0-.9-4.228,3.7,3.7,0,0,0-3.472-2.212q-2.744,0-4.844,3.556a22.8,22.8,0,0,0-2.632,8.456H55.594q.084-8.316.336-15.344h3.836q-.056.476-.336,5.068a10.928,10.928,0,0,1,2.184-3.08,7.77,7.77,0,0,1,5.572-2.3,6.961,6.961,0,0,1,6.048,3.08A11.6,11.6,0,0,1,75.166,26.044ZM95.634,15.068,84.21,39.568H80.038l11.452-24.5ZM121.758,19.6h-2.436V15.572h2.436Zm-3.528,0h-2.436V15.572h2.436Zm3.5,18.648a58.366,58.366,0,0,1-9.548.812q-6.552,0-9.744-2.212a6.121,6.121,0,0,1-2.8-5.32q0-5.936,8.232-8.6-.224-1.848-.84-7.084h4.06l.672,6.1a61.913,61.913,0,0,1,9.688-1.036v3.808a42.785,42.785,0,0,0-12.516,1.736q-5.18,1.764-5.18,4.76,0,4.116,8.6,4.116a54.284,54.284,0,0,0,9.38-.98Zm29.6-.168q-.7-.644-2.1-1.876a6.107,6.107,0,0,1-5.824,3.164,5.9,5.9,0,0,1-3.906-1.2,4.251,4.251,0,0,1-1.358-4.032q-2.464,4.34-6.1,4.34a4.512,4.512,0,0,1-3.724-1.82,8.575,8.575,0,0,1-1.568-5.488,11.667,11.667,0,0,1,4.172-9.184q-.336-2.436-.5-5.516h3.556q.056,1.652.2,3.444a13.99,13.99,0,0,1,4.676-1.148q.14-1.288.252-3.052h3.892q-.14,1.624-.364,3.164,7.98,1.2,7.98,10.136a23.669,23.669,0,0,1-.252,3.612,7.515,7.515,0,0,1,.98.784ZM146.9,28.928q0-5.516-4.844-6.58a45.468,45.468,0,0,1-3,9.94,5.478,5.478,0,0,1,4.452-1.876,11.089,11.089,0,0,1,3.3.532Q146.9,29.992,146.9,28.928Zm-8.512-6.776a9.084,9.084,0,0,0-3.836,1.2A21.839,21.839,0,0,0,136.4,29.74,36.188,36.188,0,0,0,138.39,22.152Zm7.644,12.04a7,7,0,0,0-2.884-.7,2.482,2.482,0,0,0-1.358.364,1.113,1.113,0,0,0-.574.98,1.018,1.018,0,0,0,.588.938,2.694,2.694,0,0,0,1.316.322A3.053,3.053,0,0,0,146.034,34.192Zm-11.536-.98A21.259,21.259,0,0,1,131.67,26.1a8.783,8.783,0,0,0-1.484,4.956,5.188,5.188,0,0,0,.672,2.884,1.543,1.543,0,0,0,1.316.84A3.213,3.213,0,0,0,134.5,33.212ZM177.254,39.2h-6.132a147.792,147.792,0,0,0-11.956-8.932,22.674,22.674,0,0,1-2.24-1.652,3.143,3.143,0,0,1-1.12-2.3q0-2.072,3.556-3.752,6.86-3.22,16.94-6.832V19.8q-9.38,3.416-14.756,5.88-.84.392-.84.672,0,.364.756.868A159.436,159.436,0,0,1,177.254,39.2Zm5.124.84q5.684-6.132,5.684-12.684t-5.684-12.684l3.892-.952a20.376,20.376,0,0,1,4.438,6.4,17.323,17.323,0,0,1,.014,14.434A20.43,20.43,0,0,1,186.27,41Z" transform="translate(539.123 6614.566)" fill="#fce01d"/>
    <path id="パス_4337" data-name="パス 4337" d="M-73.276-5.46q0,3.248-1.456,4.746T-79.38.784h-5.04V-2.94h4.144A2.981,2.981,0,0,0-78.092-3.6a3.031,3.031,0,0,0,.644-2.17v-8.82h-7.2A18.581,18.581,0,0,1-88.172-4.256a15.186,15.186,0,0,1-7.336,5.32v-4q6.58-3.7,6.8-11.648h-6.8v-3.64h6.8v-4.256h4.088v4.256h11.34Zm27.384-12.292H-65.94V-21.5h20.048Zm1.484,3.584q-.5,7.812-6.328,11.676Q-55.692.812-64.064.98v-3.7q12.208-.588,14.784-8.4h-18.2v-3.612h23.072Zm27.16-6.692q0,9.968-5.4,15.708Q-27.5,0-35.756.924v-3.7a17.527,17.527,0,0,0,9.87-4.97A15.973,15.973,0,0,0-21.7-17.584H-38.892v-3.78h21.644ZM12.6-14.672Q11.9.056-1.148,1.008V-21.784H2.744V-3.976A7.351,7.351,0,0,0,7.028-7.924,17.157,17.157,0,0,0,8.68-14.672Zm-16.66.112q0,6.972-2.128,11a13.43,13.43,0,0,1-5.32,5.348V-2.772A10.249,10.249,0,0,0-9.044-6.524a23.311,23.311,0,0,0,1.036-7.728v-7.532H-4.06Zm43.288-6.384a2.759,2.759,0,0,1-.854,2.044,2.829,2.829,0,0,1-2.058.84,2.782,2.782,0,0,1-2.044-.84,2.782,2.782,0,0,1-.84-2.044A2.829,2.829,0,0,1,34.272-23a2.759,2.759,0,0,1,2.044-.854A2.805,2.805,0,0,1,38.374-23,2.805,2.805,0,0,1,39.228-20.944ZM39,.672H24.584q-3.444,0-4.956-1.316-1.6-1.372-1.6-4.564V-22.064h4.06v4.816H38.584v3.7H22.092v7.588a2.732,2.732,0,0,0,.84,2.3,4.138,4.138,0,0,0,2.576.616H39ZM37.632-20.944a1.264,1.264,0,0,0-.392-.924,1.264,1.264,0,0,0-.924-.392,1.219,1.219,0,0,0-.91.392,1.287,1.287,0,0,0-.378.924,1.24,1.24,0,0,0,.378.91,1.241,1.241,0,0,0,.91.378,1.287,1.287,0,0,0,.924-.378A1.219,1.219,0,0,0,37.632-20.944Zm29.82,11.06h-22.9V-13.72h22.9Zm28.532-.168H87.64a11.318,11.318,0,0,1-4.508,8.316,16,16,0,0,1-8.456,2.912v-3.64q7.756-1.008,8.764-7.588H71.988v-3.612h11.62v-3.724H74.06v-3.556H84.952q3.668,0,4.984-1.12h4.788q-1.12,4-7,4.592v3.808h8.26Zm-278.39,50.1L-186.3,41a20.43,20.43,0,0,1-4.452-6.44,17.687,17.687,0,0,1-1.568-7.2,17.843,17.843,0,0,1,1.582-7.238,20.376,20.376,0,0,1,4.438-6.4l3.892.952q-5.684,6.132-5.684,12.684T-182.406,40.044Zm27.692-12.992q0,5.768-3.584,8.9a12.565,12.565,0,0,1-8.036,2.912v-3.7a9.077,9.077,0,0,0,5.292-2.212,7.882,7.882,0,0,0,2.352-6.076,6.681,6.681,0,0,0-1.372-4.228,6.828,6.828,0,0,0-4.116-2.492q-1.372,10.36-4.088,14.812a4.94,4.94,0,0,1-4.34,2.716,5.146,5.146,0,0,1-4.088-2.3,10.082,10.082,0,0,1-1.988-6.44,12.313,12.313,0,0,1,3.444-8.876,12.192,12.192,0,0,1,9.156-3.668,11.554,11.554,0,0,1,8.372,3A10.179,10.179,0,0,1-154.714,27.052Zm-13.272-7a7.74,7.74,0,0,0-5.208,3.136,9.522,9.522,0,0,0-1.82,5.768,6.866,6.866,0,0,0,.868,3.528q.756,1.288,1.484,1.288.924,0,2.072-2.6A42.582,42.582,0,0,0-167.986,20.052Zm40.992,10.556q0,8.4-11.172,8.876V35.9q7.392-.5,7.392-5.376a4.234,4.234,0,0,0-2.772-4.032A27.653,27.653,0,0,1-138.7,35.34a8.864,8.864,0,0,1-6.524,3.248,4.823,4.823,0,0,1-3.64-1.456,6.5,6.5,0,0,1-1.6-4.7,8.622,8.622,0,0,1,1.624-5.04,10.441,10.441,0,0,1,5.124-3.808l-.028-2.184h-5.88V17.9h5.88v-2.52h3.668V17.9h12.292V21.34h-12.376v1.4a20.4,20.4,0,0,1,2.464-.14q5.432,0,8.232,2.408A6.988,6.988,0,0,1-126.994,30.608Zm-9.828-4.9q-.728-.056-1.036-.056a13.458,13.458,0,0,0-2.268.2,51.562,51.562,0,0,0,.364,5.768A27.634,27.634,0,0,0-136.822,25.708Zm-5.852,8.372a30.785,30.785,0,0,1-.952-7.028,5.92,5.92,0,0,0-3.332,5.376,2.868,2.868,0,0,0,.588,1.9,1.885,1.885,0,0,0,1.512.7A3.67,3.67,0,0,0-142.674,34.08Zm34.636-19.012-11.424,24.5h-4.172l11.452-24.5Zm26.068,12.46H-95.214V24.14H-81.97Zm-1.764-5.488H-96.67a159.578,159.578,0,0,1-3.892,16.576h-4.088a110.008,110.008,0,0,0,4.172-16.548h-3.892V18.54h4.452q.2-1.456.392-3h3.92l-.448,3h12.32Zm2.352,16.24a45.25,45.25,0,0,1-7.56.616,10.594,10.594,0,0,1-5.908-1.372,4.1,4.1,0,0,1-1.932-3.612,7.478,7.478,0,0,1,1.792-4.536h4.2q-2.184,2.352-2.184,3.836,0,2.1,4.368,2.1a31.786,31.786,0,0,0,7.224-.868ZM-54.53,28.2a7.751,7.751,0,0,1-3.724,6.916q-4.032,2.6-11.956,2.408V34.108q11.816,0,11.816-5.712a3.406,3.406,0,0,0-1.344-2.856,7.019,7.019,0,0,0-4.256-1.092A37.416,37.416,0,0,0-75.25,26.576V22.964a40.992,40.992,0,0,1,11.34-2.016q4.788,0,7.2,2.1A6.486,6.486,0,0,1-54.53,28.2Zm29.484-1.848a8.879,8.879,0,0,1-4.228,7.924q-4.536,2.968-13.58,2.744V33.38q6.412,0,9.912-1.624,3.752-1.708,3.752-5.124a4.1,4.1,0,0,0-1.6-3.444,8.087,8.087,0,0,0-5.068-1.344,42.445,42.445,0,0,0-12.88,2.436V20.388a47.761,47.761,0,0,1,13.076-2.24q5.46,0,8.176,2.38A7.332,7.332,0,0,1-25.046,26.352Zm28.28-1.26A23.247,23.247,0,0,1,1.386,34.64q-2.128,4.4-6.384,4.4A5.241,5.241,0,0,1-8.582,37.9,4.222,4.222,0,0,1-9.87,34.556V30.328q0-1.652-.952-1.652a3.639,3.639,0,0,0-2.436,1.456,8.833,8.833,0,0,0-1.834,2.814,58.452,58.452,0,0,0-1.666,5.838H-20.93q4-14.812,7.14-22.96h4.368q-1.9,4.228-4.088,10.808a5.316,5.316,0,0,1,3.864-1.764q3.556,0,3.556,4.284V33.66A1.2,1.2,0,0,0-4.718,35q1.82,0,2.884-2.8A21.47,21.47,0,0,0-.77,25.092ZM21.8,15.068l-11.424,24.5H6.2l11.452-24.5Zm22.68,5.376q-5.068-.476-15.932-.476v-3.64q11.144,0,15.932.308Zm3.5,8.344q0,9.884-18.592,10.164v-3.7a31.093,31.093,0,0,0,10.108-1.512q4.34-1.652,4.34-4.844,0-3.388-5.908-3.388a48.487,48.487,0,0,0-12.208,1.82V23.5a56.814,56.814,0,0,1,12.74-1.624,12.1,12.1,0,0,1,6.916,1.68A5.911,5.911,0,0,1,47.978,28.788Zm27.188-2.744q0,6.552-3.556,9.716Q67.8,39.176,59.626,39.176V35.508q5.8-.252,8.4-2.128,3-2.184,3-7.224a9.026,9.026,0,0,0-.9-4.228,3.7,3.7,0,0,0-3.472-2.212q-2.744,0-4.844,3.556a22.8,22.8,0,0,0-2.632,8.456H55.594q.084-8.316.336-15.344h3.836q-.056.476-.336,5.068a10.928,10.928,0,0,1,2.184-3.08,7.77,7.77,0,0,1,5.572-2.3,6.961,6.961,0,0,1,6.048,3.08A11.6,11.6,0,0,1,75.166,26.044ZM95.634,15.068,84.21,39.568H80.038l11.452-24.5ZM121.758,19.6h-2.436V15.572h2.436Zm-3.528,0h-2.436V15.572h2.436Zm3.5,18.648a58.366,58.366,0,0,1-9.548.812q-6.552,0-9.744-2.212a6.121,6.121,0,0,1-2.8-5.32q0-5.936,8.232-8.6-.224-1.848-.84-7.084h4.06l.672,6.1a61.913,61.913,0,0,1,9.688-1.036v3.808a42.785,42.785,0,0,0-12.516,1.736q-5.18,1.764-5.18,4.76,0,4.116,8.6,4.116a54.284,54.284,0,0,0,9.38-.98Zm29.6-.168q-.7-.644-2.1-1.876a6.107,6.107,0,0,1-5.824,3.164,5.9,5.9,0,0,1-3.906-1.2,4.251,4.251,0,0,1-1.358-4.032q-2.464,4.34-6.1,4.34a4.512,4.512,0,0,1-3.724-1.82,8.575,8.575,0,0,1-1.568-5.488,11.667,11.667,0,0,1,4.172-9.184q-.336-2.436-.5-5.516h3.556q.056,1.652.2,3.444a13.99,13.99,0,0,1,4.676-1.148q.14-1.288.252-3.052h3.892q-.14,1.624-.364,3.164,7.98,1.2,7.98,10.136a23.669,23.669,0,0,1-.252,3.612,7.515,7.515,0,0,1,.98.784ZM146.9,28.928q0-5.516-4.844-6.58a45.468,45.468,0,0,1-3,9.94,5.478,5.478,0,0,1,4.452-1.876,11.089,11.089,0,0,1,3.3.532Q146.9,29.992,146.9,28.928Zm-8.512-6.776a9.084,9.084,0,0,0-3.836,1.2A21.839,21.839,0,0,0,136.4,29.74,36.188,36.188,0,0,0,138.39,22.152Zm7.644,12.04a7,7,0,0,0-2.884-.7,2.482,2.482,0,0,0-1.358.364,1.113,1.113,0,0,0-.574.98,1.018,1.018,0,0,0,.588.938,2.694,2.694,0,0,0,1.316.322A3.053,3.053,0,0,0,146.034,34.192Zm-11.536-.98A21.259,21.259,0,0,1,131.67,26.1a8.783,8.783,0,0,0-1.484,4.956,5.188,5.188,0,0,0,.672,2.884,1.543,1.543,0,0,0,1.316.84A3.213,3.213,0,0,0,134.5,33.212ZM177.254,39.2h-6.132a147.792,147.792,0,0,0-11.956-8.932,22.674,22.674,0,0,1-2.24-1.652,3.143,3.143,0,0,1-1.12-2.3q0-2.072,3.556-3.752,6.86-3.22,16.94-6.832V19.8q-9.38,3.416-14.756,5.88-.84.392-.84.672,0,.364.756.868A159.436,159.436,0,0,1,177.254,39.2Zm5.124.84q5.684-6.132,5.684-12.684t-5.684-12.684l3.892-.952a20.376,20.376,0,0,1,4.438,6.4,17.323,17.323,0,0,1,.014,14.434A20.43,20.43,0,0,1,186.27,41Z" transform="translate(539.123 6615.566)" fill="#fdfdfd"/>
  </g>
</svg>
