<svg xmlns="http://www.w3.org/2000/svg" xmlns:xlink="http://www.w3.org/1999/xlink" width="750" height="268" viewBox="0 0 750 268">
  <defs>
    <clipPath id="clip-path">
      <rect id="長方形_4531" data-name="長方形 4531" width="750" height="268" transform="translate(0 10570)" fill="#fff" stroke="#707070" stroke-width="1"/>
    </clipPath>
  </defs>
  <g id="txt_hikakin01_sp" transform="translate(0 -10570)" clip-path="url(#clip-path)">
    <g id="hikakin_title" data-name="hikakin title" transform="translate(0 -625)">
      <path id="hikakin_obi" data-name="hikakin obi" d="M9495.813,16114.938l-12.594,10.666-12.587-10.666-12.591,10.666-12.591-10.663-12.59,10.663-12.59-10.666-12.59,10.666-12.591-10.666-12.59,10.666-12.591-10.666-12.591,10.666-12.587-10.666-12.594,10.666-12.586-10.666-12.591,10.666-12.59-10.663-12.591,10.663-12.591-10.666-12.59,10.666-12.591-10.666-12.586,10.666-12.594-10.666-12.59,10.666-12.588-10.666-12.594,10.666-12.587-10.666-12.591,10.666-12.59-10.663-12.59,10.663-12.59-10.666-12.591,10.666-12.59-10.666-12.591,10.666-12.591-10.666-12.587,10.666-12.594-10.666-12.59,10.666-12.587-10.666-12.59,10.666-12.591-10.663-12.591,10.663-12.59-10.663-12.591,10.663-12.59-10.663-12.59,10.663-12.59-10.663-12.591,10.663-12.587-10.666L8878.9,16125.6l-12.588-10.666-12.59,10.666-12.59-10.663-12.59,10.663-12.591-10.663-12.591,10.663-12.59-10.663-12.591,10.663-12.59-10.663L8753,16125.6l-12.586-10.666-12.594,10.666-12.587-10.666-12.591,10.666-12.591-10.666-12.59,10.666-12.591-10.666-12.59,10.666-12.59-10.666L8627.1,16125.6l-12.587-10.666-12.594,10.666-12.587-10.666-12.594,10.666-12.587-10.666-12.594,10.666-12.586-10.666-12.591,10.666-12.591-10.666-12.59,10.666-12.591-10.666-12.59,10.666-12.591-10.666-12.59,10.666-12.587-10.666-12.594,10.666-12.587-10.666-12.591,10.666-12.59-10.666L8375.3,16125.6l-12.59-10.666-12.59,10.666-12.591-10.666-12.59,10.666-12.591-10.666-12.587,10.666-12.591-10.666-12.594,10.666-12.586-10.666L8249.4,16125.6l-12.5-10.586-12.5,10.586-.09-.077-.092.077-12.5-10.588-12.5,10.588-.091-.077-.092.077-12.5-10.588-12.5,10.588-.093-.078-.092.078-12.5-10.586-12.5,10.586-.091-.077-.091.077-12.5-10.588-12.5,10.588-.093-.078-.092.078-12.5-10.588-12.5,10.588-.09-.077-.091.077-12.5-10.588-12.5,10.588-.091-.077-.091.077-12.5-10.588-12.5,10.588-.091-.077-.091.077-12.5-10.588-12.5,10.588-.09-.077-.091.077-12.494-10.587-12.5,10.587-.092-.078-.093.078-12.5-10.588-12.5,10.588-12.591-10.666-12.59,10.666-12.591-10.666-12.59,10.666-12.587-10.666-12.594,10.666-12.586-10.666-12.594,10.666-12.587-10.663-12.59,10.663-12.59-10.666-12.59,10.666-12.59-10.666-12.59,10.666-12.59-10.666-12.59,10.666-12.59-10.666-12.59,10.666-12.587-10.666-12.59,10.666-12.59-10.663-12.59,10.663-12.59-10.663-12.59,10.663-12.59-10.663-12.59,10.663-12.59-10.663-12.59,10.663-12.591-10.666-12.59,10.666-12.587-10.666-12.59,10.666-12.59-10.663-12.59,10.663-12.59-10.663-12.59,10.663-12.591-10.663-12.59,10.663-12.59-10.663L7469,16125.6l-12.59-10.666-12.59,10.666-12.587-10.666-12.594,10.666-12.587-10.666-12.59,10.666-12.59-10.666-12.59,10.666-12.59-10.666-12.59,10.666-12.59-10.666-12.591,10.666-12.586-10.666-12.594,10.666-12.587-10.666-12.593,10.666-12.587-10.666-12.59,10.666-12.59-10.666L7217.2,16125.6l-12.59-10.666-12.59,10.666-12.59-10.666-12.59,10.666-12.587-10.666-12.594,10.666-12.587-10.666-12.594,10.666-12.587-10.666-12.59,10.666-12.59-10.666-12.59,10.666-12.59-10.666-12.591,10.666-12.59-10.666-12.59,10.666-12.59-10.666-12.59,10.666-12.587-10.666L6965.4,16125.6l-12.587-10.666-12.591,10.666-12.59-10.666-12.59,10.666-12.59-10.666-12.59,10.666-12.59-10.666-12.59,10.666-12.59-10.666-12.59,10.666-12.587-10.666-12.593,10.666-12.587-10.666-12.59,10.666-12.59-10.666-12.591,10.666-12.59-10.666-12.59,10.666-12.59-10.666-12.59,10.666-12.6-10.672v-176.261l12.6-10.669,12.587,10.662,12.59-10.662,12.59,10.662,12.59-10.662,12.591,10.662,12.59-10.662,12.59,10.662,12.587-10.662,12.59,10.662L6839.5,15928l12.59,10.662,12.594-10.662,12.587,10.662,12.59-10.662,12.59,10.662,12.59-10.662,12.59,10.662,12.59-10.662,12.591,10.662L6965.4,15928l12.594,10.662,12.587-10.662,12.59,10.662,12.59-10.662,12.59,10.662,12.59-10.662,12.591,10.662,12.59-10.662,12.59,10.662L7091.3,15928l12.59,10.662,12.587-10.662,12.594,10.662,12.587-10.662,12.59,10.662,12.59-10.662,12.59,10.662,12.59-10.662,12.59,10.662L7217.2,15928l12.591,10.662,12.59-10.662,12.59,10.662,12.587-10.662,12.59,10.662,12.59-10.662,12.59,10.662,12.59-10.662,12.591,10.662L7343.1,15928l12.59,10.662,12.59-10.662,12.59,10.662,12.59-10.662,12.587,10.662,12.59-10.662,12.594,10.662,12.587-10.662,12.59,10.662L7469,15928l12.59,10.662,12.59-10.662,12.59,10.662,12.591-10.662,12.59,10.662,12.59-10.662,12.59,10.662,12.587-10.662,12.59,10.662L7594.9,15928l12.59,10.662L7620.08,15928l12.59,10.662,12.59-10.662,12.59,10.662,12.59-10.662,12.59,10.662,12.59-10.662,12.59,10.662L7720.8,15928l12.59,10.662,12.587-10.662,12.59,10.662,12.59-10.662,12.59,10.662,12.59-10.662,12.59,10.662,12.59-10.662,12.59,10.662L7846.7,15928l12.59,10.662,12.591-10.662,12.59,10.662L7897.06,15928l12.591,10.662,12.59-10.662,12.59,10.662,12.591-10.662,12.59,10.662L7972.6,15928l12.5,10.584,12.5-10.584.092.076.09-.076,12.5,10.583,12.5-10.583.09.075.089-.075,12.5,10.583,12.5-10.583.091.076.091-.076,12.5,10.585,12.5-10.585.091.076.091-.076,12.5,10.585,12.5-10.585.091.076.09-.076,12.5,10.585,12.5-10.585.09.076.091-.076,12.5,10.583,12.5-10.583.091.076.091-.076,12.5,10.585,12.5-10.585.092.078.093-.078,12.5,10.585,12.5-10.585.092.076.091-.076,12.5,10.585,12.5-10.585.092.076.09-.076,12.5,10.584,12.5-10.584,12.591,10.662,12.586-10.662,12.591,10.662,12.594-10.662,12.587,10.662,12.594-10.662,12.587,10.662,12.591-10.662,12.59,10.662L8375.3,15928l12.591,10.662,12.59-10.662,12.591,10.662,12.587-10.662,12.594,10.662,12.587-10.662,12.59,10.662,12.594-10.662,12.587,10.662L8501.2,15928l12.59,10.662L8526.38,15928l12.591,10.662,12.586-10.662,12.594,10.662,12.587-10.662,12.594,10.662,12.587-10.662,12.591,10.662L8627.1,15928l12.587,10.662,12.59-10.662,12.59,10.662L8677.46,15928l12.59,10.662,12.591-10.662,12.591,10.662,12.59-10.662,12.591,10.662L8753,15928l12.591,10.662,12.593-10.662,12.588,10.662,12.59-10.662,12.591,10.662,12.591-10.662,12.59,10.662,12.59-10.662,12.59,10.662L8878.9,15928l12.587,10.662,12.591-10.662,12.591,10.662,12.593-10.662,12.587,10.662,12.59-10.662,12.591,10.662,12.59-10.662,12.591,10.662L9004.8,15928l12.59,10.662,12.591-10.662,12.586,10.662,12.594-10.662,12.587,10.662L9080.34,15928l12.591,10.662,12.59-10.662,12.591,10.662L9130.7,15928l12.59,10.662,12.59-10.662,12.591,10.662,12.591-10.662,12.587,10.662L9206.24,15928l12.59,10.662,12.594-10.662,12.586,10.662L9256.6,15928l12.59,10.662,12.591-10.662,12.591,10.662,12.59-10.662,12.591,10.662,12.59-10.662,12.59,10.662,12.587-10.662,12.591,10.662L9382.5,15928l12.587,10.662,12.591-10.662,12.59,10.662,12.59-10.662,12.59,10.662,12.591-10.662,12.591,10.662L9483.22,15928l12.591,10.662L9508.4,15928l12.6,10.669v176.264l-12.6,10.669Z" transform="matrix(0.996, -0.087, 0.087, 0.996, -9853.452, -3862.342)"/>
      <path id="hikakin_obi_-_アウトライン" data-name="hikakin obi - アウトライン" d="M8224.4,16126.26l-.091-.077-.091.075-.321-.272-12.176-10.314-12.5,10.588-.092-.078-.093.077-.321-.272-12.174-10.314-12.5,10.587-.093-.078-.094.079-.324-.273-12.173-10.312-12.5,10.586-.091-.077-.091.077-.323-.273-12.176-10.314-12.5,10.587-.093-.078-.093.079-12.5-10.588-12.5,10.589-.09-.076-.089.075-.324-.273-12.177-10.314-12.5,10.588-.091-.076-.09.076-.323-.273-12.177-10.314-12.5,10.588-.092-.077-.091.076-.322-.272-12.174-10.314-12.5,10.589-.09-.077-.09.076-.323-.273-12.171-10.313-12.5,10.587-.093-.079-.093.079-12.5-10.588-12.5,10.588-.323-.273-12.268-10.393-12.59,10.666-.323-.273-12.268-10.393-12.59,10.666-.323-.273-12.264-10.393-12.594,10.666-.323-.273-12.264-10.393-12.593,10.666-.323-.273-12.264-10.39-12.59,10.663-.323-.273-12.267-10.393-12.59,10.666-.323-.273-12.267-10.393-12.59,10.666-.323-.273-12.267-10.393-12.59,10.666-.323-.273-12.267-10.393-12.59,10.666-.323-.273-12.264-10.393-12.59,10.666-.323-.273-12.267-10.39-12.59,10.663-.323-.273-12.267-10.39-12.59,10.663-.323-.273-12.267-10.39-12.59,10.663-.323-.273-12.267-10.39-12.59,10.663-.323-.273-12.268-10.393-12.59,10.666-.323-.273-12.264-10.393-12.59,10.666-.323-.273-12.267-10.39-12.59,10.663-.323-.273-12.267-10.39-12.59,10.663-.323-.273-12.268-10.39-12.59,10.663-.323-.273-12.267-10.39-12.59,10.663-.323-.273-12.267-10.393-12.59,10.666-.323-.273-12.264-10.393-12.594,10.666-.323-.273-12.264-10.393-12.59,10.666-.323-.273-12.267-10.393-12.59,10.666-.323-.273-12.267-10.393-12.59,10.666-.323-.273-12.267-10.393-12.591,10.666-.323-.273-12.263-10.393-12.594,10.666-.323-.273-12.264-10.393-12.593,10.666-.323-.273-12.264-10.393-12.59,10.666-.323-.273-12.267-10.393-12.591,10.666-.323-.273-12.267-10.393-12.59,10.666-.323-.273-12.267-10.393-12.59,10.666-.323-.273-12.264-10.393-12.594,10.666-.323-.273-12.264-10.393-12.594,10.666-.323-.273-12.264-10.393-12.59,10.666-.323-.273-12.267-10.393-12.59,10.666-.323-.273-12.267-10.393-12.591,10.666-.323-.273-12.267-10.393-12.59,10.666-.323-.273-12.267-10.393-12.59,10.666-12.587-10.666-12.594,10.666-.323-.273-12.264-10.393-12.591,10.666-.323-.273-12.267-10.393-12.59,10.666-12.59-10.666-12.59,10.666-.323-.273-12.267-10.393-12.59,10.666-.323-.273-12.267-10.393-12.59,10.666-.323-.273-12.264-10.393-12.593,10.666-.323-.273-12.264-10.393-12.59,10.666-.323-.273-12.267-10.393-12.591,10.666-.323-.273-12.267-10.393-12.59,10.666-.323-.273-12.267-10.393-12.59,10.666-.323-.273-12.774-10.822v-176.724l.177-.15,12.923-10.942.323.273,12.264,10.389,12.59-10.662.323.273,12.267,10.389,12.59-10.662.323.273,12.268,10.389,12.59-10.662.323.273,12.267,10.389,12.587-10.662.323.273,12.267,10.389,12.59-10.662.323.273,12.267,10.389,12.594-10.662.323.273,12.264,10.389,12.59-10.662.323.273,12.267,10.389,12.59-10.662.323.273,12.267,10.389,12.59-10.662.323.273,12.268,10.389,12.587-10.662.323.273,12.271,10.389,12.587-10.662.323.273,12.267,10.389,12.59-10.662.323.273,12.267,10.389,12.59-10.662.323.273,12.268,10.389,12.59-10.662.323.273,12.267,10.389,12.59-10.662.323.273,12.267,10.389,12.587-10.662.323.273,12.271,10.389,12.587-10.662.323.273,12.267,10.389,12.59-10.662.323.273,12.267,10.389,12.59-10.662.323.273,12.267,10.389,12.59-10.662.323.273,12.268,10.389,12.59-10.662.323.273,12.267,10.389,12.587-10.662.323.273,12.267,10.389,12.59-10.662.323.273,12.267,10.389,12.59-10.662.323.273,12.268,10.389,12.59-10.662.323.273,12.267,10.389,12.59-10.662.323.273,12.267,10.389,12.59-10.662.323.273,12.264,10.389,12.59-10.662.323.273,12.271,10.389,12.587-10.662.323.273,12.267,10.389,12.59-10.662.323.273,12.267,10.389,12.59-10.662.323.273,12.267,10.389,12.591-10.662.323.273,12.267,10.389,12.59-10.662.323.273,12.267,10.389,12.587-10.662.323.273,12.267,10.389,12.59-10.662.323.273,12.267,10.389,12.591-10.662.323.273,12.267,10.389,12.59-10.662.323.273,12.267,10.389,12.59-10.662.323.273,12.267,10.389,12.59-10.662.323.273,12.267,10.389,12.59-10.662.323.273,12.267,10.389,12.587-10.662.323.273,12.267,10.389,12.59-10.662.323.273,12.267,10.389,12.59-10.662.323.273,12.267,10.389,12.59-10.662.323.273,12.267,10.389,12.59-10.662.323.273,12.267,10.389,12.591-10.662.323.273,12.267,10.389,12.586-10.662.323.273,12.268,10.389,12.59-10.662.323.273,12.267,10.389,12.591-10.662.323.273,12.267,10.389,12.591-10.662.323.273,12.175,10.311,12.5-10.581.093.077.094-.079.322.272,12.174,10.31,12.5-10.581.09.075.091-.076.323.272,12.178,10.31,12.495-10.58.093.077.094-.079,12.5,10.584,12.5-10.583.093.077.093-.078,12.5,10.584,12.5-10.584.092.077.092-.077.322.272,12.177,10.312,12.5-10.584.093.078.092-.076.32.271,12.175,10.31,12.5-10.581.093.078.093-.078.321.271,12.173,10.312,12.5-10.585.094.079.093-.078.322.272,12.173,10.312,12.495-10.582.095.078.094-.079.321.271,12.176,10.312,12.5-10.582.093.076.093-.079.323.273,12.178,10.311,12.5-10.584.323.273,12.268,10.389,12.586-10.662.323.273,12.268,10.389,12.594-10.662.323.273,12.264,10.389,12.594-10.662.323.273,12.264,10.389,12.591-10.662.323.273,12.267,10.389,12.59-10.662.323.273,12.268,10.389,12.59-10.662.323.273,12.268,10.389,12.587-10.662.323.273,12.271,10.389,12.587-10.662.323.273,12.267,10.389,12.594-10.662.323.273,12.264,10.389,12.591-10.662.323.273,12.267,10.389,12.591-10.662.323.273,12.268,10.389,12.586-10.662.323.273,12.271,10.389,12.587-10.662.323.273,12.271,10.389,12.587-10.662.323.273,12.268,10.389,12.594-10.662.323.273,12.264,10.389,12.59-10.662.323.273,12.267,10.389,12.591-10.662.323.273,12.267,10.389,12.591-10.662.323.273,12.268,10.389,12.59-10.662.323.273,12.268,10.389,12.586-10.662.323.273,12.268,10.389,12.593-10.662.323.273,12.265,10.389,12.59-10.662.323.273,12.268,10.389,12.591-10.662.323.273,12.267,10.389,12.59-10.662.323.273,12.267,10.389,12.591-10.662.323.273,12.264,10.389,12.591-10.662.323.273,12.268,10.389,12.593-10.662.323.273,12.264,10.389,12.59-10.662.323.273,12.268,10.389,12.59-10.662.323.273,12.268,10.389,12.591-10.662.323.273,12.267,10.389,12.591-10.662.323.273,12.263,10.389,12.594-10.662.323.273,12.264,10.389,12.591-10.662.323.273,12.268,10.389,12.59-10.662.323.273,12.268,10.389,12.59-10.662.323.273,12.267,10.389,12.59-10.662.323.273,12.268,10.389,12.591-10.662.323.273,12.264,10.389,12.591-10.662.323.273,12.267,10.389,12.594-10.662.323.273,12.263,10.389,12.591-10.662.323.273,12.267,10.389,12.591-10.662.323.273,12.268,10.389,12.59-10.662.323.273,12.268,10.389,12.59-10.662.323.273,12.267,10.389,12.587-10.662.323.273,12.268,10.389,12.594-10.662.323.273,12.264,10.389,12.591-10.662.323.273,12.267,10.389,12.59-10.662.323.273,12.267,10.389,12.591-10.662.323.273,12.268,10.389,12.587-10.662.323.273,12.268,10.389,12.59-10.662.323.273,12.776,10.819v176.724l-.177.153-12.923,10.942-.323-.273-12.264-10.393-12.594,10.666-.323-.273-12.264-10.393-12.591,10.666-.323-.273-12.268-10.39-12.59,10.663-.323-.273-12.267-10.393-12.59,10.666-.323-.273-12.268-10.393-12.59,10.666-.323-.273-12.268-10.393-12.591,10.666-.323-.273-12.264-10.393-12.594,10.666-.323-.273-12.263-10.393-12.591,10.666-.323-.273-12.267-10.39-12.591,10.663-.323-.273-12.268-10.393-12.59,10.666-.323-.273-12.268-10.393-12.586,10.666-.323-.273-12.271-10.393-12.59,10.666-.323-.273-12.265-10.393-12.594,10.666-.323-.273-12.264-10.393-12.591,10.666-.323-.273-12.267-10.39-12.59,10.663-.323-.273-12.267-10.393-12.591,10.666-.323-.273-12.267-10.393-12.591,10.666-.323-.273-12.268-10.393-12.587,10.666-.323-.273-12.271-10.393-12.59,10.666-.323-.273-12.264-10.393-12.59,10.666-.323-.273-12.268-10.39-12.591,10.663-.323-.273-12.267-10.39-12.591,10.663-.323-.273-12.267-10.39-12.59,10.663-.323-.273-12.267-10.39-12.591,10.663-.323-.273-12.264-10.393-12.594,10.666-.323-.273-12.265-10.393-12.59,10.666-.323-.273-12.267-10.39-12.59,10.663-.323-.273-12.268-10.39-12.591,10.663-.323-.273-12.267-10.39-12.591,10.663-.323-.273-12.267-10.39L8753,16126.259l-.323-.273-12.263-10.393-12.594,10.666-.323-.273-12.264-10.393-12.591,10.666-.323-.273-12.268-10.393-12.59,10.666-.323-.273-12.268-10.393-12.59,10.666-.323-.273-12.267-10.393-12.591,10.666-.323-.273-12.264-10.393-12.594,10.666-.323-.273-12.264-10.393-12.594,10.666-.323-.273-12.264-10.393-12.594,10.666-.323-.273-12.263-10.393-12.591,10.666-.323-.273-12.268-10.393-12.59,10.666-.323-.273-12.268-10.393-12.59,10.666-.323-.273-12.268-10.393-12.59,10.666-.323-.273-12.264-10.393-12.594,10.666-.323-.273-12.264-10.393-12.591,10.666-.323-.273-12.267-10.393-12.591,10.666-.323-.273-12.267-10.393-12.59,10.666-.323-.273-12.268-10.393-12.59,10.666-.323-.273-12.268-10.393-12.587,10.666-.323-.273-12.268-10.393-12.594,10.666-.323-.273-12.263-10.393-12.591,10.666-.323-.273-12.173-10.312Zm-50.45-1.389.094.078,12.5-10.589.323.273,12.175,10.315.092-.077.09.076,12.5-10.588.323.273,12.177,10.315.094-.079.089.076,12.5-10.584.323.274,12.173,10.312,12.591-10.666.323.273,12.263,10.393,12.594-10.666.323.273,12.268,10.393,12.587-10.666.323.273,12.268,10.393,12.59-10.666.323.273,12.268,10.393,12.59-10.666.323.273,12.267,10.393,12.591-10.666.323.273,12.267,10.393,12.591-10.666.323.273,12.264,10.393,12.594-10.666.323.273,12.264,10.393,12.59-10.666.323.273,12.268,10.393,12.59-10.666.323.273,12.268,10.393,12.59-10.666.323.273,12.268,10.393,12.591-10.666.323.273,12.263,10.393,12.594-10.666.323.273,12.264,10.393,12.594-10.666.323.273,12.264,10.393,12.594-10.666.323.273,12.264,10.393,12.591-10.666.323.273,12.267,10.393,12.59-10.666.323.273,12.268,10.393,12.59-10.666.323.273,12.268,10.393,12.591-10.666.323.273,12.264,10.393,12.594-10.666.323.273,12.263,10.393,12.591-10.663.323.274,12.267,10.389,12.591-10.663.323.274,12.267,10.389,12.591-10.663.323.274,12.268,10.389,12.59-10.663.323.274,12.267,10.389,12.59-10.666.323.273,12.265,10.393,12.594-10.666.323.273,12.264,10.393,12.591-10.663.323.274,12.267,10.389,12.59-10.663.323.274,12.267,10.389,12.591-10.663.323.274,12.267,10.389,12.591-10.663.323.274,12.268,10.389,12.59-10.666.323.273,12.264,10.393,12.59-10.666.323.273,12.271,10.393,12.587-10.666.323.273,12.268,10.393,12.591-10.666.323.273,12.267,10.393,12.591-10.666.323.273,12.267,10.393,12.59-10.663.323.274,12.267,10.389,12.591-10.666.323.273,12.264,10.393,12.594-10.666.323.273,12.265,10.393,12.59-10.666.323.273,12.271,10.393,12.586-10.666.323.273,12.268,10.393,12.59-10.666.323.273,12.268,10.393,12.591-10.663.323.274,12.267,10.389,12.591-10.666.323.273,12.263,10.393,12.594-10.666.323.273,12.264,10.393,12.591-10.666.323.273,12.268,10.393,12.59-10.666.323.273,12.268,10.393,12.59-10.666.323.273,12.267,10.393,12.59-10.663.323.274,12.268,10.389,12.591-10.666.323.273,12.264,10.393,12.594-10.666.323.273,12.264,10.393,12.1-10.245v-175.8l-12.1-10.245-12.59,10.662-.323-.273-12.268-10.389-12.587,10.662-.323-.273-12.268-10.389-12.591,10.662-.323-.273-12.267-10.389-12.59,10.662-.323-.273-12.267-10.389-12.591,10.662-.323-.273-12.264-10.389-12.594,10.662-.323-.273-12.268-10.389-12.587,10.662-.323-.273-12.267-10.389-12.59,10.662-.323-.273-12.268-10.389-12.59,10.662-.323-.273-12.268-10.389-12.591,10.662-.323-.273-12.267-10.389-12.591,10.662-.323-.273-12.263-10.389-12.594,10.662-.323-.273-12.267-10.389-12.591,10.662-.323-.273-12.264-10.389-12.591,10.662-.323-.273-12.268-10.389-12.59,10.662-.323-.273-12.267-10.389-12.59,10.662-.323-.273-12.268-10.389-12.59,10.662-.323-.273-12.268-10.389-12.591,10.662-.323-.273-12.264-10.389-12.594,10.662-.323-.273-12.263-10.389-12.591,10.662-.323-.273-12.267-10.389-12.591,10.662-.323-.273-12.268-10.389-12.59,10.662-.323-.273-12.268-10.389-12.59,10.662-.323-.273-12.264-10.389-12.593,10.662-.323-.273-12.268-10.389-12.591,10.662-.323-.273-12.264-10.389-12.591,10.662-.323-.273-12.267-10.389-12.59,10.662-.323-.273-12.267-10.389-12.591,10.662-.323-.273-12.268-10.389-12.59,10.662-.323-.273-12.265-10.389-12.593,10.662-.323-.273L8753,15928.657l-12.586,10.662-.323-.273-12.268-10.389-12.59,10.662-.323-.273-12.268-10.389-12.591,10.662-.323-.273-12.267-10.389-12.591,10.662-.323-.273-12.267-10.389-12.59,10.662-.323-.273-12.264-10.389-12.594,10.662-.323-.273-12.268-10.389-12.587,10.662-.323-.273-12.271-10.389-12.587,10.662-.323-.273-12.271-10.389-12.586,10.662-.323-.273-12.268-10.389-12.591,10.662-.323-.273-12.267-10.389-12.591,10.662-.323-.273-12.264-10.389-12.594,10.662-.323-.273-12.267-10.389-12.587,10.662-.323-.273-12.271-10.389-12.587,10.662-.323-.273-12.268-10.389-12.59,10.662-.323-.273-12.268-10.389-12.59,10.662-.323-.273-12.267-10.389-12.591,10.662-.323-.273-12.264-10.389-12.594,10.662-.323-.273-12.264-10.389-12.594,10.662-.323-.273-12.268-10.389-12.586,10.662-.323-.273-12.268-10.389-12.5,10.584-.323-.273-12.178-10.311-.087.073-.092-.076-12.5,10.588-.323-.273-12.178-10.313-.088.073-.09-.074-12.5,10.588-.323-.273-12.174-10.312-.094.078-.091-.077-12.5,10.585-.323-.273-12.175-10.313-.089.074-.089-.074-12.5,10.585-.323-.274-12.177-10.311-.091.075-.087-.074-12.5,10.586-.323-.273-12.178-10.312-.089.075-.09-.075-12.5,10.586-.323-.273-12.177-10.312-.088.074-.09-.075-12.5,10.587-.323-.273-12.177-10.312-.088.073-.09-.075-12.5,10.586-.323-.273-12.179-10.31-.086.072-.089-.074-12.5,10.585-.323-.274-12.175-10.31-.087.073-.091-.075-12.5,10.587-.323-.273-12.175-10.311-12.591,10.662-.323-.273-12.267-10.389-12.591,10.662-.323-.273-12.267-10.389-12.59,10.662-.323-.273-12.268-10.389-12.586,10.662-.323-.273-12.267-10.389-12.591,10.662-.323-.273-12.267-10.389-12.59,10.662-.323-.273-12.267-10.389-12.59,10.662-.323-.273-12.267-10.389-12.59,10.662-.323-.273-12.267-10.389-12.59,10.662-.323-.273-12.267-10.389-12.587,10.662-.323-.273-12.267-10.389-12.59,10.662-.323-.273-12.267-10.389-12.59,10.662-.323-.273-12.267-10.389-12.59,10.662-.323-.273-12.267-10.389-12.59,10.662-.323-.273-12.267-10.389-12.591,10.662-.323-.273-12.267-10.389-12.59,10.662-.323-.273-12.267-10.389-12.587,10.662-.323-.273-12.267-10.389-12.59,10.662-.323-.273-12.267-10.389-12.591,10.662-.323-.273-12.267-10.389-12.59,10.662-.323-.273L7469,15928.657l-12.59,10.662-.323-.273-12.267-10.389-12.587,10.662-.323-.273-12.271-10.389-12.59,10.662-.323-.273-12.264-10.389-12.59,10.662-.323-.273-12.267-10.389-12.59,10.662-.323-.273-12.267-10.389-12.59,10.662-.323-.273-12.268-10.389-12.59,10.662-.323-.273-12.267-10.389-12.59,10.662-.323-.273-12.267-10.389-12.587,10.662-.323-.273-12.267-10.389-12.59,10.662-.323-.273-12.268-10.389-12.59,10.662-.323-.273-12.267-10.389-12.59,10.662-.323-.273-12.268-10.389-12.59,10.662-.323-.273-12.267-10.389-12.587,10.662-.323-.273-12.271-10.389-12.587,10.662-.323-.273-12.268-10.389-12.59,10.662-.323-.273-12.267-10.389-12.59,10.662-.323-.273-12.268-10.389-12.59,10.662-.323-.273-12.267-10.389-12.59,10.662-.323-.273-12.267-10.389-12.587,10.662-.323-.273-12.27-10.389-12.587,10.662-.323-.273-12.268-10.389-12.59,10.662-.323-.273-12.267-10.389-12.59,10.662-.323-.273-12.267-10.389-12.59,10.662-.323-.273-12.264-10.389-12.594,10.662-.323-.273-12.267-10.389-12.59,10.662-.323-.273-12.267-10.389-12.587,10.662-.323-.273-12.267-10.389-12.59,10.662-.323-.273-12.268-10.389-12.59,10.662-.323-.273-12.267-10.389-12.59,10.662-.323-.273-12.264-10.389-12.1,10.245v175.8l12.1,10.248,12.59-10.666.323.273,12.267,10.393,12.59-10.666.323.273,12.267,10.393,12.591-10.666.323.273,12.267,10.393,12.59-10.666.323.273,12.264,10.393,12.593-10.666.323.273,12.264,10.393,12.59-10.666.323.273,12.267,10.393,12.59-10.666.323.273,12.267,10.393,12.59-10.666.323.273,12.267,10.393,12.59-10.666.323.273,12.267,10.393,12.591-10.666.323.273,12.264,10.393,12.593-10.666.323.273,12.264,10.393,12.59-10.666.323.273,12.267,10.393,12.59-10.666.323.273,12.267,10.393,12.591-10.666.323.273,12.267,10.393,12.59-10.666.323.273,12.267,10.393,12.59-10.666.323.273,12.264,10.393,12.594-10.666.323.273,12.264,10.393,12.594-10.666.323.273,12.264,10.393,12.59-10.666.323.273,12.267,10.393,12.59-10.666.323.273,12.267,10.393,12.591-10.666.323.273,12.267,10.393,12.59-10.666.323.273,12.264,10.393,12.593-10.666.323.273,12.264,10.393,12.594-10.666.323.273,12.263,10.393,12.591-10.666.323.273,12.267,10.393,12.59-10.666.323.273,12.267,10.393,12.59-10.666.323.273,12.267,10.393,12.59-10.666.323.273,12.264,10.393,12.593-10.666.323.273,12.264,10.393,12.59-10.666.323.273,12.267,10.393,12.59-10.663.323.274,12.267,10.389,12.59-10.663.323.274,12.268,10.389,12.59-10.663.323.274,12.267,10.389,12.59-10.663.323.274,12.267,10.389,12.59-10.666.323.273,12.264,10.393,12.59-10.666.323.273,12.268,10.393,12.59-10.663.323.274,12.267,10.389,12.59-10.663.323.274,12.267,10.389,12.59-10.663.323.274,12.267,10.389,12.59-10.663.323.274,12.267,10.389,12.59-10.666.323.273,12.264,10.393,12.59-10.666.323.273,12.267,10.393,12.59-10.666.323.273,12.267,10.393,12.59-10.666.323.273,12.267,10.393,12.59-10.666.323.273,12.267,10.393,12.59-10.663.323.274,12.264,10.389,12.594-10.666.323.273,12.263,10.393,12.594-10.666.323.273,12.264,10.393,12.59-10.666.323.273,12.268,10.393,12.59-10.666.323.273,12.268,10.393,12.5-10.588.323.273,12.174,10.314.092-.078.092.078,12.5-10.587.323.273,12.171,10.313.093-.078.09.077,12.5-10.587.323.273,12.175,10.315.092-.078.09.076,12.5-10.587.323.273,12.177,10.314.092-.078.09.077,12.5-10.587.323.273,12.176,10.313.092-.078.091.078,12.5-10.587.323.273,12.173,10.314.092-.077.092.078,12.5-10.589.323.273,12.176,10.314.091-.077.091.077,12.5-10.586.323.274,12.172,10.312Z" transform="matrix(0.996, -0.087, 0.087, 0.996, -9853.452, -3862.342)" fill="rgba(0,0,0,0)"/>
      <g id="グループ_1483" data-name="グループ 1483" transform="matrix(0.996, -0.087, 0.087, 0.996, 29.333, 11373.054)">
        <path id="パス_4347" data-name="パス 4347" d="M12.241,6.183H6.215V17H0V0H12.241Zm-1.83-1.83V1.83H1.83V15.206H4.417V4.354ZM40.7,2.4Q40,24.481,20.222,27.762V23.44q7.477-1.672,11.231-6.278Q35.618,12.051,35.965,2.4ZM24.355,14.922H19.434a98.482,98.482,0,0,0-4.48-12.4h4.858A107.956,107.956,0,0,1,24.355,14.922Zm44.325-7H47.2V3.565H68.68Zm2.682,18.519H44.735V22.084H71.361Zm19.56-9.78H86.567a83.779,83.779,0,0,0-2.335-11.01h4.133A78.045,78.045,0,0,1,90.921,16.657ZM99.25,6.278q0,9.969-4.638,15.3-4.354,5.048-13.187,6.4v-4.07q7.351-1.514,10.442-5.868,2.839-4.007,2.839-11.8V5.8H99.25ZM83.16,16.91H78.838A73.217,73.217,0,0,0,76.346,5.9h4.133A77.465,77.465,0,0,1,83.16,16.91Zm43.126,2.461Q120.7,26.816,109,27.731V23.6q15.553-1.735,17.036-16.973H114.267a17.21,17.21,0,0,1-3.849,5.836,15.581,15.581,0,0,1-5.8,3.786V11.641a14.188,14.188,0,0,0,6.215-9.18h20.128Q130.955,13.124,126.286,19.37ZM161.3,27.951a20.085,20.085,0,0,1-10.726-9.244,28.48,28.48,0,0,1-15.269,8.928V23.282a24.717,24.717,0,0,0,10.1-5.71,22.392,22.392,0,0,0,6.625-10.758H136.823V2.555h20.759a27.9,27.9,0,0,1-3.975,12.114,17.271,17.271,0,0,0,7.7,8.486Zm29.529-12.525H165.027V11.1h25.806ZM222.886,3.344a3.187,3.187,0,0,1-.978,2.335,3.275,3.275,0,0,1-4.669,0,3.187,3.187,0,0,1-.978-2.335,3.187,3.187,0,0,1,.978-2.335,3.275,3.275,0,0,1,4.669,0A3.187,3.187,0,0,1,222.886,3.344Zm-1.735,24.639q-10.569-5.647-10.569-24.071V1.988h4.669V4.007q0,13.187,5.9,18.9ZM205.093,3.88q0,18.487-10.569,24.134V22.935q5.931-5.742,5.931-18.96V1.988h4.638Zm15.963-.536a1.424,1.424,0,0,0-.442-1.041,1.424,1.424,0,0,0-1.041-.442,1.373,1.373,0,0,0-1.025.442,1.485,1.485,0,0,0,0,2.082,1.373,1.373,0,0,0,1.025.442,1.424,1.424,0,0,0,1.041-.442A1.424,1.424,0,0,0,221.056,3.344Zm29.718,12.083H224.968V11.1h25.806Zm30.412,12.525a20.085,20.085,0,0,1-10.726-9.244,28.48,28.48,0,0,1-15.269,8.928V23.282a24.717,24.717,0,0,0,10.1-5.71,22.392,22.392,0,0,0,6.625-10.758H256.705V2.555h20.759a27.9,27.9,0,0,1-3.975,12.114,17.271,17.271,0,0,0,7.7,8.486ZM310.779,2.208q0,9.338-3.817,15.522-5.363,8.676-18.992,10.064V23.629q9.654-1.293,14.007-6.814a97.441,97.441,0,0,0-12.02-2.019V11.483a17.649,17.649,0,0,1-5.679,3.943V10.789a13.143,13.143,0,0,0,3.707-3.533,18.919,18.919,0,0,0,2.634-5.048Zm-4.985,4.164H293.648a20.951,20.951,0,0,1-3.029,4.385,107.8,107.8,0,0,1,13.566,2.271A23.951,23.951,0,0,0,305.794,6.373Zm34.892,9.054H314.88V11.1h25.806ZM372.707,4.764h-2.555V.095h2.555Zm-1.83,23.188a19.922,19.922,0,0,1-10.695-9.244,28.48,28.48,0,0,1-15.269,8.928V23.282a24.718,24.718,0,0,0,10.1-5.71,22.393,22.393,0,0,0,6.625-10.758H346.4V2.555h19.938V.095h2.587V4.764h-2.051a27.77,27.77,0,0,1-3.691,9.906,17.271,17.271,0,0,0,7.7,8.486Zm14.954,1.2H373.591V22.935h6.026V12.114h6.215ZM384,27.32V13.944h-2.555V24.8H375.42v2.524Zm27.636-16.373,2.524-1.01q1.136,2.24,2.461,5.426V7.7h5.363V6.341h-6.341V5.8Q414.224,7.729,411.637,10.947Zm-2.177,2.713q1.167-.095,2.871-.347-.442-1.01-.946-2.019Q411.164,11.547,409.461,13.66Zm2.492,15.269H408.2V17.162q-2.3.221-4.543.347l-.536-3.565,1.893-.032,2.051-2.461q-1.893-2.208-4.038-4.291l2.051-3.6,1.167,1.262q1.42-2.208,2.776-4.8l3.344,1.546q-1.83,2.966-3.88,5.773.315.379.915,1.1,1.8-2.429,3.5-5.111l2.745,1.388V2.776h6.341V.631h3.849V2.776H432.4V6.341h-6.562V7.7h5.584V18.676h-4.259a29.368,29.368,0,0,0,5.71,6.215l-2.555,2.776a29.515,29.515,0,0,1-4.543-5.3V28.8h-3.723V22.62a30.063,30.063,0,0,1-4.417,5.142l-2.24-2.429-1.7.663a65.737,65.737,0,0,1-1.262-7.572l2.808-.789a53.115,53.115,0,0,0,1.167,6.183,28.252,28.252,0,0,0,4.385-5.142h-4.164V16.594L414,17.572q-.126-.379-.41-1.136-.158.032-1.64.252Zm16.089-17.1V10.537h-2.429V11.83Zm0,3.975V14.48h-2.429v1.325Zm-5.8-3.975V10.537h-2.271V11.83Zm0,3.975V14.48h-2.271v1.325Zm-14.512,2.839a48.537,48.537,0,0,1-1.7,8.455l-3.06-1.83a32.872,32.872,0,0,0,1.7-7.256Zm44.893-6.53q-1.735.663-3.5,1.262l-1.1-3.155a43.665,43.665,0,0,0,4.511-1.388A23.121,23.121,0,0,0,448.485,6.4l1.83-1.735h-2.4V1.357h13.029v10.1a3.485,3.485,0,0,1-.6,2.366,4.142,4.142,0,0,1-2.871.726h-4.164Zm3.691-1.514q-.978.473-2.271.978h1.64q1.1,0,1.23-.568a2.588,2.588,0,0,0,.063-.663V4.669h-4.858a34.386,34.386,0,0,1,3.155,1.8l-2.4,2.24q1.672-.631,3-1.23Zm-13.818.095q-.946.41-2.114.883h1.483q1.01,0,1.2-.5a3.172,3.172,0,0,0,.063-.726V4.669h-4.858a26.52,26.52,0,0,1,3.218,1.83l-2.366,2.177q1.42-.5,2.934-1.136Zm12.114,9.18v-1.42H440.819v1.42Zm0,4.322V22.714H440.819V24.2ZM449.526,14.07a12.626,12.626,0,0,1-.568,1.357h9.969V28.772h-4.322v-1.23H440.819v1.23H436.5V15.427h7.792q.221-.5.41-.946a10,10,0,0,1-1.1.063h-4.1l-.694-2.366q-1.988.726-3.849,1.388l-1.167-3.313q2.3-.568,4.89-1.451a21.7,21.7,0,0,0-4.007-2.4l1.8-1.735H433.91V1.357H447.1V11.641a3.124,3.124,0,0,1-.568,2.145Zm43.82,10.505q-1.988,4.227-4.2,4.227-2.65,0-3.723-5.016a58.76,58.76,0,0,1-.852-11.61V4.985H469.812v8.108q0,9.591-3,16.026l-4.07-1.893a25.1,25.1,0,0,0,2.618-7.666,52.257,52.257,0,0,0,.568-8.676V1.23H488.52V12.619a74.062,74.062,0,0,0,.347,7.729q.347,3.092.757,3.092.221,0,.915-1.546a17.23,17.23,0,0,0,.883-2.271Zm-11.294,1.83A71.3,71.3,0,0,1,470.569,28.3l-1.325-3.975q2.934-.095,6.215-.473V20.064h-4.354v-9.37h4.354V9.307q-1.893.158-3.47.221L470.411,6.5q7.824-.315,11.263-1.42l2.114,2.966q-2.019.473-4.669.852v1.8h4.2v9.37H479.15v3.281q.473-.095,1.767-.347-.284-.726-.631-1.514L483,20.6a35.218,35.218,0,0,1,2.9,6.72l-3.281,1.23Q482.4,27.573,482.052,26.406Zm-1.672-9.5V13.85h-1.451v3.06Zm-4.7,0V13.85H474.2v3.06Zm46.092-2.9H493.5V10.789h11.8V9.748h-9.464V.915h23.5V9.748h-9.559v1.041h11.988Zm-6.594-9.622V3.407H500v.978Zm0,3.092V6.5H500v.978Zm-13.5,17.761a34.844,34.844,0,0,1-5.647,2.934l-3.06-2.9a31.394,31.394,0,0,0,7.288-3.439h-3.849V15.017h22.336v6.814h-3.754a32.831,32.831,0,0,0,7.508,3.376l-3.186,3.06a30.538,30.538,0,0,1-8.076-4.543l2.65-1.893h-4.1v3.66q0,2.051-.631,2.618-.726.631-3.407.631h-2.871Zm2.114-1.514a21.776,21.776,0,0,1-1.924,1.388h2.461q.852,0,1.009-.379a1.929,1.929,0,0,0,.126-.852V21.831h-4.227Zm10.821-4.638v-1.42H500.6v1.42Zm36.249-2.492a12.727,12.727,0,0,1-2.966,7.855q-3.123,3.533-8.96,3.533a10.152,10.152,0,0,1-6.625-1.924q-2.682-2.177-2.524-6.594.032-1.01.126-3.88h-5.237V11.673h5.363l.095-3.029h-5.458V4.7h5.584l.126-3.533H534.8L534.643,4.7h14.48V8.644H534.485l-.126,3.029h14.764v3.912H534.233q-.095,2.966-.095,3.912.032,4.385,5.016,4.385,6.436,0,7.319-7.288ZM574.74,20a11.5,11.5,0,0,1-3.439,5.521,10.336,10.336,0,0,1-6.594,1.924q-5.237,0-8.045-3.36t-2.808-9.48q0-5.836,2.981-9.322A9.953,9.953,0,0,1,564.8,1.8a10.225,10.225,0,0,1,6.341,1.8A10.39,10.39,0,0,1,574.488,8.8l-4.448,1.577a6.919,6.919,0,0,0-1.972-3.423A4.974,4.974,0,0,0,564.8,5.931,5.24,5.24,0,0,0,560.48,7.95q-1.8,2.24-1.8,6.657,0,4.448,1.735,6.688a5.2,5.2,0,0,0,4.354,1.988,5.075,5.075,0,0,0,3.36-1.041,7.283,7.283,0,0,0,2-3.565Zm22.494,7.13H592.47V16.058h-10.1V27.131h-4.8V2.082h4.8v9.685h10.1V2.082h4.764Zm21.863,0H601.651V2.082H619.1V6.31H606.446v5.679h11.136v4.259H606.446v6.625H619.1ZM642.474,20a11.5,11.5,0,0,1-3.439,5.521,10.337,10.337,0,0,1-6.594,1.924q-5.237,0-8.045-3.36t-2.808-9.48q0-5.836,2.981-9.322A9.953,9.953,0,0,1,632.536,1.8a10.225,10.225,0,0,1,6.341,1.8A10.39,10.39,0,0,1,642.221,8.8l-4.448,1.577A6.919,6.919,0,0,0,635.8,6.956a4.974,4.974,0,0,0-3.265-1.025,5.241,5.241,0,0,0-4.322,2.019q-1.8,2.24-1.8,6.657,0,4.448,1.735,6.688a5.2,5.2,0,0,0,4.354,1.988,5.075,5.075,0,0,0,3.36-1.041,7.282,7.282,0,0,0,2-3.565Zm7.635,7.13h-4.8V2.082h4.8V13.5l10.537-11.42h6.089l-9.969,10.505L666.8,27.131h-5.836l-7.382-11.168-3.47,3.66Zm39.246-25.3-7.855,18.8h-4.227l6.688-18.8Zm-8.076,20.7-1.861,4.953h-5.174l1.893-4.953Z" transform="translate(1.974 1.58)" fill="#ea91bb"/>
        <path id="パス_4346" data-name="パス 4346" d="M12.241,6.183H6.215V17H0V0H12.241Zm-1.83-1.83V1.83H1.83V15.206H4.417V4.354ZM40.7,2.4Q40,24.481,20.222,27.762V23.44q7.477-1.672,11.231-6.278Q35.618,12.051,35.965,2.4ZM24.355,14.922H19.434a98.482,98.482,0,0,0-4.48-12.4h4.858A107.956,107.956,0,0,1,24.355,14.922Zm44.325-7H47.2V3.565H68.68Zm2.682,18.519H44.735V22.084H71.361Zm19.56-9.78H86.567a83.779,83.779,0,0,0-2.335-11.01h4.133A78.045,78.045,0,0,1,90.921,16.657ZM99.25,6.278q0,9.969-4.638,15.3-4.354,5.048-13.187,6.4v-4.07q7.351-1.514,10.442-5.868,2.839-4.007,2.839-11.8V5.8H99.25ZM83.16,16.91H78.838A73.217,73.217,0,0,0,76.346,5.9h4.133A77.465,77.465,0,0,1,83.16,16.91Zm43.126,2.461Q120.7,26.816,109,27.731V23.6q15.553-1.735,17.036-16.973H114.267a17.21,17.21,0,0,1-3.849,5.836,15.581,15.581,0,0,1-5.8,3.786V11.641a14.188,14.188,0,0,0,6.215-9.18h20.128Q130.955,13.124,126.286,19.37ZM161.3,27.951a20.085,20.085,0,0,1-10.726-9.244,28.48,28.48,0,0,1-15.269,8.928V23.282a24.717,24.717,0,0,0,10.1-5.71,22.392,22.392,0,0,0,6.625-10.758H136.823V2.555h20.759a27.9,27.9,0,0,1-3.975,12.114,17.271,17.271,0,0,0,7.7,8.486Zm29.529-12.525H165.027V11.1h25.806ZM222.886,3.344a3.187,3.187,0,0,1-.978,2.335,3.275,3.275,0,0,1-4.669,0,3.187,3.187,0,0,1-.978-2.335,3.187,3.187,0,0,1,.978-2.335,3.275,3.275,0,0,1,4.669,0A3.187,3.187,0,0,1,222.886,3.344Zm-1.735,24.639q-10.569-5.647-10.569-24.071V1.988h4.669V4.007q0,13.187,5.9,18.9ZM205.093,3.88q0,18.487-10.569,24.134V22.935q5.931-5.742,5.931-18.96V1.988h4.638Zm15.963-.536a1.424,1.424,0,0,0-.442-1.041,1.424,1.424,0,0,0-1.041-.442,1.373,1.373,0,0,0-1.025.442,1.485,1.485,0,0,0,0,2.082,1.373,1.373,0,0,0,1.025.442,1.424,1.424,0,0,0,1.041-.442A1.424,1.424,0,0,0,221.056,3.344Zm29.718,12.083H224.968V11.1h25.806Zm30.412,12.525a20.085,20.085,0,0,1-10.726-9.244,28.48,28.48,0,0,1-15.269,8.928V23.282a24.717,24.717,0,0,0,10.1-5.71,22.392,22.392,0,0,0,6.625-10.758H256.705V2.555h20.759a27.9,27.9,0,0,1-3.975,12.114,17.271,17.271,0,0,0,7.7,8.486ZM310.779,2.208q0,9.338-3.817,15.522-5.363,8.676-18.992,10.064V23.629q9.654-1.293,14.007-6.814a97.441,97.441,0,0,0-12.02-2.019V11.483a17.649,17.649,0,0,1-5.679,3.943V10.789a13.143,13.143,0,0,0,3.707-3.533,18.919,18.919,0,0,0,2.634-5.048Zm-4.985,4.164H293.648a20.951,20.951,0,0,1-3.029,4.385,107.8,107.8,0,0,1,13.566,2.271A23.951,23.951,0,0,0,305.794,6.373Zm34.892,9.054H314.88V11.1h25.806ZM372.707,4.764h-2.555V.095h2.555Zm-1.83,23.188a19.922,19.922,0,0,1-10.695-9.244,28.48,28.48,0,0,1-15.269,8.928V23.282a24.718,24.718,0,0,0,10.1-5.71,22.393,22.393,0,0,0,6.625-10.758H346.4V2.555h19.938V.095h2.587V4.764h-2.051a27.77,27.77,0,0,1-3.691,9.906,17.271,17.271,0,0,0,7.7,8.486Zm14.954,1.2H373.591V22.935h6.026V12.114h6.215ZM384,27.32V13.944h-2.555V24.8H375.42v2.524Zm27.636-16.373,2.524-1.01q1.136,2.24,2.461,5.426V7.7h5.363V6.341h-6.341V5.8Q414.224,7.729,411.637,10.947Zm-2.177,2.713q1.167-.095,2.871-.347-.442-1.01-.946-2.019Q411.164,11.547,409.461,13.66Zm2.492,15.269H408.2V17.162q-2.3.221-4.543.347l-.536-3.565,1.893-.032,2.051-2.461q-1.893-2.208-4.038-4.291l2.051-3.6,1.167,1.262q1.42-2.208,2.776-4.8l3.344,1.546q-1.83,2.966-3.88,5.773.315.379.915,1.1,1.8-2.429,3.5-5.111l2.745,1.388V2.776h6.341V.631h3.849V2.776H432.4V6.341h-6.562V7.7h5.584V18.676h-4.259a29.368,29.368,0,0,0,5.71,6.215l-2.555,2.776a29.515,29.515,0,0,1-4.543-5.3V28.8h-3.723V22.62a30.063,30.063,0,0,1-4.417,5.142l-2.24-2.429-1.7.663a65.737,65.737,0,0,1-1.262-7.572l2.808-.789a53.115,53.115,0,0,0,1.167,6.183,28.252,28.252,0,0,0,4.385-5.142h-4.164V16.594L414,17.572q-.126-.379-.41-1.136-.158.032-1.64.252Zm16.089-17.1V10.537h-2.429V11.83Zm0,3.975V14.48h-2.429v1.325Zm-5.8-3.975V10.537h-2.271V11.83Zm0,3.975V14.48h-2.271v1.325Zm-14.512,2.839a48.537,48.537,0,0,1-1.7,8.455l-3.06-1.83a32.872,32.872,0,0,0,1.7-7.256Zm44.893-6.53q-1.735.663-3.5,1.262l-1.1-3.155a43.665,43.665,0,0,0,4.511-1.388A23.121,23.121,0,0,0,448.485,6.4l1.83-1.735h-2.4V1.357h13.029v10.1a3.485,3.485,0,0,1-.6,2.366,4.142,4.142,0,0,1-2.871.726h-4.164Zm3.691-1.514q-.978.473-2.271.978h1.64q1.1,0,1.23-.568a2.588,2.588,0,0,0,.063-.663V4.669h-4.858a34.386,34.386,0,0,1,3.155,1.8l-2.4,2.24q1.672-.631,3-1.23Zm-13.818.095q-.946.41-2.114.883h1.483q1.01,0,1.2-.5a3.172,3.172,0,0,0,.063-.726V4.669h-4.858a26.52,26.52,0,0,1,3.218,1.83l-2.366,2.177q1.42-.5,2.934-1.136Zm12.114,9.18v-1.42H440.819v1.42Zm0,4.322V22.714H440.819V24.2ZM449.526,14.07a12.626,12.626,0,0,1-.568,1.357h9.969V28.772h-4.322v-1.23H440.819v1.23H436.5V15.427h7.792q.221-.5.41-.946a10,10,0,0,1-1.1.063h-4.1l-.694-2.366q-1.988.726-3.849,1.388l-1.167-3.313q2.3-.568,4.89-1.451a21.7,21.7,0,0,0-4.007-2.4l1.8-1.735H433.91V1.357H447.1V11.641a3.124,3.124,0,0,1-.568,2.145Zm43.82,10.505q-1.988,4.227-4.2,4.227-2.65,0-3.723-5.016a58.76,58.76,0,0,1-.852-11.61V4.985H469.812v8.108q0,9.591-3,16.026l-4.07-1.893a25.1,25.1,0,0,0,2.618-7.666,52.257,52.257,0,0,0,.568-8.676V1.23H488.52V12.619a74.062,74.062,0,0,0,.347,7.729q.347,3.092.757,3.092.221,0,.915-1.546a17.23,17.23,0,0,0,.883-2.271Zm-11.294,1.83A71.3,71.3,0,0,1,470.569,28.3l-1.325-3.975q2.934-.095,6.215-.473V20.064h-4.354v-9.37h4.354V9.307q-1.893.158-3.47.221L470.411,6.5q7.824-.315,11.263-1.42l2.114,2.966q-2.019.473-4.669.852v1.8h4.2v9.37H479.15v3.281q.473-.095,1.767-.347-.284-.726-.631-1.514L483,20.6a35.218,35.218,0,0,1,2.9,6.72l-3.281,1.23Q482.4,27.573,482.052,26.406Zm-1.672-9.5V13.85h-1.451v3.06Zm-4.7,0V13.85H474.2v3.06Zm46.092-2.9H493.5V10.789h11.8V9.748h-9.464V.915h23.5V9.748h-9.559v1.041h11.988Zm-6.594-9.622V3.407H500v.978Zm0,3.092V6.5H500v.978Zm-13.5,17.761a34.844,34.844,0,0,1-5.647,2.934l-3.06-2.9a31.394,31.394,0,0,0,7.288-3.439h-3.849V15.017h22.336v6.814h-3.754a32.831,32.831,0,0,0,7.508,3.376l-3.186,3.06a30.538,30.538,0,0,1-8.076-4.543l2.65-1.893h-4.1v3.66q0,2.051-.631,2.618-.726.631-3.407.631h-2.871Zm2.114-1.514a21.776,21.776,0,0,1-1.924,1.388h2.461q.852,0,1.009-.379a1.929,1.929,0,0,0,.126-.852V21.831h-4.227Zm10.821-4.638v-1.42H500.6v1.42Zm36.249-2.492a12.727,12.727,0,0,1-2.966,7.855q-3.123,3.533-8.96,3.533a10.152,10.152,0,0,1-6.625-1.924q-2.682-2.177-2.524-6.594.032-1.01.126-3.88h-5.237V11.673h5.363l.095-3.029h-5.458V4.7h5.584l.126-3.533H534.8L534.643,4.7h14.48V8.644H534.485l-.126,3.029h14.764v3.912H534.233q-.095,2.966-.095,3.912.032,4.385,5.016,4.385,6.436,0,7.319-7.288ZM574.74,20a11.5,11.5,0,0,1-3.439,5.521,10.336,10.336,0,0,1-6.594,1.924q-5.237,0-8.045-3.36t-2.808-9.48q0-5.836,2.981-9.322A9.953,9.953,0,0,1,564.8,1.8a10.225,10.225,0,0,1,6.341,1.8A10.39,10.39,0,0,1,574.488,8.8l-4.448,1.577a6.919,6.919,0,0,0-1.972-3.423A4.974,4.974,0,0,0,564.8,5.931,5.24,5.24,0,0,0,560.48,7.95q-1.8,2.24-1.8,6.657,0,4.448,1.735,6.688a5.2,5.2,0,0,0,4.354,1.988,5.075,5.075,0,0,0,3.36-1.041,7.283,7.283,0,0,0,2-3.565Zm22.494,7.13H592.47V16.058h-10.1V27.131h-4.8V2.082h4.8v9.685h10.1V2.082h4.764Zm21.863,0H601.651V2.082H619.1V6.31H606.446v5.679h11.136v4.259H606.446v6.625H619.1ZM642.474,20a11.5,11.5,0,0,1-3.439,5.521,10.337,10.337,0,0,1-6.594,1.924q-5.237,0-8.045-3.36t-2.808-9.48q0-5.836,2.981-9.322A9.953,9.953,0,0,1,632.536,1.8a10.225,10.225,0,0,1,6.341,1.8A10.39,10.39,0,0,1,642.221,8.8l-4.448,1.577A6.919,6.919,0,0,0,635.8,6.956a4.974,4.974,0,0,0-3.265-1.025,5.241,5.241,0,0,0-4.322,2.019q-1.8,2.24-1.8,6.657,0,4.448,1.735,6.688a5.2,5.2,0,0,0,4.354,1.988,5.075,5.075,0,0,0,3.36-1.041,7.282,7.282,0,0,0,2-3.565Zm7.635,7.13h-4.8V2.082h4.8V13.5l10.537-11.42h6.089l-9.969,10.505L666.8,27.131h-5.836l-7.382-11.168-3.47,3.66Zm39.246-25.3-7.855,18.8h-4.227l6.688-18.8Zm-8.076,20.7-1.861,4.953h-5.174l1.893-4.953Z" transform="translate(0 0)" fill="#fdfdfd"/>
        <path id="パス_4346_-_アウトライン" data-name="パス 4346 - アウトライン" d="M408.8-.622l4.288,1.982-.3.48c-1.153,1.868-2.387,3.713-3.673,5.49l.258.312c1.057-1.452,2.1-2.985,3.1-4.566l.243-.383,2.424,1.226V2.276h6.341V.131h4.849V2.276H432.9V6.841h-6.562V7.2h5.584V19.176h-3.8a29.377,29.377,0,0,0,5.066,5.329l.408.336-3.253,3.534-.368-.342a31.026,31.026,0,0,1-3.7-4.092V29.3h-4.723V24.18a31.887,31.887,0,0,1-3.574,3.947l-.368.346-2.351-2.55-1.921.747-.133-.559c-.273-1.149-.523-2.424-.749-3.814v7.132H407.7V22.238a47.264,47.264,0,0,1-1.2,5l-.184.616-3.969-2.373.146-.39a32.489,32.489,0,0,0,1.672-7.115l-.482.028-.455.026-.689-4.58,2.235-.037,1.632-1.959c-1.168-1.344-2.422-2.667-3.731-3.938l-.278-.27,2.58-4.526,1.189,1.286c.816-1.3,1.625-2.718,2.408-4.211Zm2.843,2.416-2.4-1.11c-.838,1.574-1.7,3.056-2.576,4.413l-.349.543-1.142-1.235L403.65,7.073c1.334,1.31,2.608,2.672,3.792,4.053l.275.321-2.468,2.961-1.551.026.383,2.549c1.336-.081,2.7-.188,4.069-.319l.548-.053V28.429h2.754V16.258l.426-.064c1.281-.191,1.562-.237,1.616-.248l.417-.083.149.4c.1.254.177.475.245.664l2.815-1.051v2.3h4.6l-.515.776a28.883,28.883,0,0,1-4.462,5.233l-.616.57-.208-.813a52.966,52.966,0,0,1-1.1-5.671l-1.844.518c.295,2.464.655,4.656,1.073,6.53l1.483-.577,2.126,2.306a29.363,29.363,0,0,0,3.979-4.708l.915-1.365V28.3h2.723V20.708l.917,1.383a28.9,28.9,0,0,0,4.1,4.865l1.858-2.018a29.817,29.817,0,0,1-5.4-5.982l-.527-.78h4.7V8.2h-5.584V5.841H431.9V3.276h-6.562V1.131h-2.849V3.276h-6.341V5.841h6.341V8.2h-5.363v7.166l-.962.192c-.8-1.912-1.548-3.586-2.24-4.983l-1.948.779c.287.585.562,1.176.818,1.761l.262.6-.647.1c-1.141.169-2.118.287-2.9.351l-1.16.094.73-.906q.587-.728,1-1.233l-.013.005,1.194-1.485c1.713-2.131,3.057-3.855,3.994-5.126l.225-.305-2.389-1.208c-1.062,1.653-2.163,3.252-3.278,4.758l-.38.514-.407-.493q-.6-.724-.914-1.1l-.25-.3.23-.315C409.321,5.354,410.518,3.587,411.64,1.794Zm9.845,5.047h-5.991c-.63.834-1.394,1.817-2.284,2.938L414.4,9.3l.207.408c.478.942.984,2.019,1.515,3.216V7.2h5.363ZM411.6,12.912q-.16-.351-.328-.7-.268.329-.674.831Q411.074,12.986,411.6,12.912Zm1.883,4.694c-.056-.162-.129-.366-.219-.611l-.815.124V17.9Zm6.348,1.57h-3.713V17.315l-.406.152.014.1c.248,1.876.567,3.652.952,5.291A27.9,27.9,0,0,0,419.835,19.176ZM407.7,18.129v-.418q-.718.066-1.434.122Zm-.524.913-2.086-.43a33.519,33.519,0,0,1-1.516,6.441l2.15,1.286A48.42,48.42,0,0,0,407.175,19.042ZM-.5-.5H12.741V6.683H6.715V17.5H-.5ZM11.741.5H.5v16H5.715V5.683h6.026ZM219.574-.468A3.684,3.684,0,0,1,222.262.656a3.684,3.684,0,0,1,1.124,2.688,3.684,3.684,0,0,1-1.124,2.688,3.775,3.775,0,0,1-5.376,0,3.684,3.684,0,0,1-1.124-2.688A3.684,3.684,0,0,1,216.885.656,3.684,3.684,0,0,1,219.574-.468Zm0,6.625a2.682,2.682,0,0,0,1.981-.832,2.682,2.682,0,0,0,.832-1.981,2.682,2.682,0,0,0-.832-1.981,2.775,2.775,0,0,0-3.962,0,2.682,2.682,0,0,0-.832,1.981,2.682,2.682,0,0,0,.832,1.981A2.682,2.682,0,0,0,219.574,6.157ZM365.835-.405h3.587V5.264H367.29a28.369,28.369,0,0,1-3.551,9.449,15.407,15.407,0,0,0,2.793,4.361,19.222,19.222,0,0,0,4.6,3.65l.249.145v5.8l-.671-.244a19.95,19.95,0,0,1-6.253-3.648,21.824,21.824,0,0,1-4.36-5.229,29.327,29.327,0,0,1-6.568,5.267,29.8,29.8,0,0,1-8.5,3.313l-.61.138V22.9l.363-.1a24.334,24.334,0,0,0,9.893-5.6,22.067,22.067,0,0,0,6.3-9.89H345.9V2.055h19.938Zm2.587,1h-1.587V3.055H346.9V6.314h15.391l-.171.631a22.986,22.986,0,0,1-6.768,10.995,25.351,25.351,0,0,1-9.935,5.717V27a28.648,28.648,0,0,0,7.608-3.057,28.481,28.481,0,0,0,6.79-5.573l.463-.515.343.6a21.1,21.1,0,0,0,4.491,5.556,18.855,18.855,0,0,0,5.27,3.207V23.442a17.738,17.738,0,0,1-7.661-8.585l-.094-.233.131-.215a27.4,27.4,0,0,0,3.625-9.729l.071-.416h1.973Zm1.23-1h3.555V5.264h-3.555Zm2.555,1h-1.555V4.264h1.555ZM495.339.415h24.5v9.833h-9.559v.041h11.988v4.218H493V10.289h11.8v-.041h-9.464Zm23.5,1h-22.5V9.248H505.8v2.041H494v2.218h27.267V11.289H509.283V9.248h9.559ZM529.9.667h5.422L535.166,4.2h14.458V9.144H534.965l-.085,2.029h14.743v4.912H534.717c-.053,1.694-.079,2.841-.079,3.412a3.675,3.675,0,0,0,1.1,2.912,5.111,5.111,0,0,0,3.417.973c4.033,0,6.264-2.24,6.823-6.848l.053-.44h5.362l-.035.532a13.268,13.268,0,0,1-3.09,8.154c-2.171,2.457-5.312,3.7-9.334,3.7a10.673,10.673,0,0,1-6.943-2.039c-1.9-1.546-2.816-3.9-2.706-7q.029-.913.109-3.363h-5.22V11.173h5.379l.063-2.029h-5.442V4.2h5.6Zm4.376,1h-3.411L530.74,5.2h-5.566V8.144h5.474l-.126,4.029h-5.348v2.912h5.254l-.017.516q-.095,2.87-.126,3.88a9.329,9.329,0,0,0,.519,3.662,5.947,5.947,0,0,0,1.82,2.527,9.725,9.725,0,0,0,6.31,1.813,13.56,13.56,0,0,0,4.975-.848,9.34,9.34,0,0,0,3.61-2.516,12.049,12.049,0,0,0,2.8-7.024H546.91a9.224,9.224,0,0,1-2.356,5.32,7.348,7.348,0,0,1-5.4,1.968,6.048,6.048,0,0,1-4.075-1.22,4.67,4.67,0,0,1-1.441-3.662c0-.638.032-1.959.095-3.932l.015-.484h14.875V12.173H533.837l.168-4.029h14.618V5.2h-14.5ZM465.431.73H489.02V12.619a73.9,73.9,0,0,0,.344,7.676,20.115,20.115,0,0,0,.337,2.2c.1-.192.224-.451.382-.8a16.841,16.841,0,0,0,.859-2.2l.408-1.429,2.478,6.379a32.739,32.739,0,0,0,4.648-2.1h-2.569V14.517h23.336v7.814h-2.395a35.575,35.575,0,0,0,5.8,2.4l.8.256-4.02,3.861-.3-.115a31.18,31.18,0,0,1-8.207-4.618L510.4,23.7l1.919-1.371h-2.041v3.16c0,1.551-.253,2.5-.8,2.99l-.006.006c-.591.514-1.778.754-3.735.754h-3.228L501.407,26a35.908,35.908,0,0,1-5.188,2.635l-.3.124-2.8-2.656a9.109,9.109,0,0,1-1.665,2.192,3.409,3.409,0,0,1-2.3,1.009,3.227,3.227,0,0,1-2.657-1.456q-.061-.083-.121-.17l-4.114,1.543-.126-.559c-.115-.511-.259-1.068-.427-1.66a71.1,71.1,0,0,1-11.1,1.8l-.386.027-1.324-3.972a28.418,28.418,0,0,1-1.625,4.478l-.211.453-5-2.326.247-.465a24.718,24.718,0,0,0,2.567-7.514,52.046,52.046,0,0,0,.561-8.593Zm22.588,1H466.431v9.154a52.982,52.982,0,0,1-.576,8.763,25.615,25.615,0,0,1-2.427,7.346l3.139,1.46a38.231,38.231,0,0,0,2.744-15.36V4.485h15.764v7.693a58.6,58.6,0,0,0,.84,11.5,9.436,9.436,0,0,0,1.38,3.57,2.251,2.251,0,0,0,1.854,1.052c1.074,0,2.157-.979,3.221-2.91l-.348-.33.635-.216q.072-.143.144-.291l-1.359-3.5q-.2.484-.45,1.043c-.648,1.443-.943,1.839-1.37,1.839-.6,0-.781-.751-.88-1.154a20.125,20.125,0,0,1-.374-2.382,74.9,74.9,0,0,1-.35-7.785ZM477.112,5.485h-6.8V6l.079,0C472.995,5.894,475.24,5.722,477.112,5.485Zm6.964,0h-1.5l1.5,2.1Zm-1.133,2.237-1.467-2.059a47.773,47.773,0,0,1-10.258,1.3l1.068,2.05c.956-.043,2.008-.112,3.132-.206l.542-.045v2.432h-4.354v8.37h4.354V24.3l-.443.051c-1.944.224-3.819.376-5.587.451l.991,2.973a72.35,72.35,0,0,0,11.016-1.852l.461-.11.135.454c.169.57.318,1.112.444,1.62l2.3-.862a34.962,34.962,0,0,0-2.51-5.818l-1.8.587c.15.353.291.7.42,1.027l.218.558-.588.115c-.873.17-1.45.284-1.764.347l-.6.12V19.565h4.164v-8.37h-4.2V8.463l.429-.061C480.48,8.2,481.787,7.969,482.943,7.721ZM471.692,10.04l-1.38-2.649v5.7a45.98,45.98,0,0,1-1.155,10.734l.071,0c1.8-.058,3.727-.2,5.731-.42V20.565h-4.354V10.195h4.354V9.849c-1.059.083-2.049.142-2.95.178Zm13.062,12.9a66.6,66.6,0,0,1-.678-10.762V8.491l-.175.041c-1.244.292-2.683.559-4.283.8v.866h4.2v10.37h-.26Q484.18,21.672,484.754,22.94Zm33.489-7.423H496.907v5.814h9.054v2.551a2.337,2.337,0,0,1-.177,1.073c-.2.436-.689.658-1.458.658h-1.994l.9,2.628h2.514c2.156,0,2.851-.314,3.075-.5.141-.128.464-.6.464-2.245v-4.16h8.96ZM481.5,20.565H479.65v.6Zm-1.268,2.059c-.125-.3-.259-.618-.4-.938l-.178-.4v1.456Zm41.325,2.8a32.455,32.455,0,0,1-6.831-3.167l-.3-.191-2.349,1.678a30.439,30.439,0,0,0,7.124,3.944Zm-18.588-1.685L500.755,22.1l-.222.148a30.938,30.938,0,0,1-6.627,3.224l2.23,2.115a34.59,34.59,0,0,0,4.92-2.545l.537-.348C502.084,24.374,502.543,24.054,502.964,23.736Zm2-1.4h-2.212l1.855,1.374-.5.406q-.306.249-.642.5h.863a1.1,1.1,0,0,0,.555-.088l0-.012.015-.027a1.706,1.706,0,0,0,.06-.6ZM433.41.857h28.037v10.6a3.879,3.879,0,0,1-.737,2.71l-.009.009a3.081,3.081,0,0,1-1.689.755h.416V29.272h-5.322v-1.23H441.319v1.23H436V14.927h3.089l-.615-2.1c-1.148.418-2.273.823-3.351,1.207l-.473.168L433.129,9.9l.535-.132c1.24-.306,2.558-.686,3.93-1.133a22.842,22.842,0,0,0-3.141-1.779l-.654-.309,1.428-1.378H433.41Zm13.187,1H434.41V4.169H437.7l-2.175,2.1a21.741,21.741,0,0,1,3.282,2.009l1.861-1.712a28.833,28.833,0,0,0-2.628-1.448l.221-.949h5.358v6.179a3.6,3.6,0,0,1-.078.847l-.007.027-.01.026c-.206.55-.767.829-1.667.829h-1.483l-.188-.963c.629-.255,1.217-.5,1.754-.728l-.3-2.139c-.806.327-1.6.628-2.361.9l-.012-.02-.435.149c-1.532.523-3.009.969-4.4,1.329l.818,2.322c1.089-.389,2.221-.8,3.373-1.218l.5-.183.739,2.519H443.6a9.54,9.54,0,0,0,1.049-.06l.853-.095-.338.789c-.124.289-.262.609-.412.95l-.131.3H437V28.272h3.322v-1.23h14.786v1.23h3.322V15.927H448.15l.362-.724c.1-.207.208-.44.313-.7l-3.364-.319.706-.745a2.615,2.615,0,0,0,.431-1.8Zm13.85,0H448.417V4.169h3.152l-2.217,2.1a23.732,23.732,0,0,1,3.253,2l1.849-1.728c-.761-.469-1.622-.948-2.567-1.429l.227-.946h5.358v6.179a3.078,3.078,0,0,1-.078.785c-.1.435-.484.945-1.715.945h-1.64l-.182-.966c.7-.275,1.344-.546,1.906-.806l-.3-2.1c-.591.256-1.231.517-1.911.78l.008.006-.483.176-.031.012h0l-.352.128c-1.377.5-2.73.928-4.03,1.268l.76,2.171c1.01-.349,2.023-.716,3.016-1.1l.509-.194.74,2.591h3.787c1.591,0,2.245-.311,2.512-.574a2.986,2.986,0,0,0,.458-2.018ZM442.622,5.169h-2.338q.82.467,1.48.917l.52.355-.91.837.483-.2.6-.249.167,1.194Zm6.439,0H447.6v4.64l.3-.073c1.147-.283,2.341-.636,3.562-1.055a22.752,22.752,0,0,0-3.182-1.825l-.662-.312Zm7.411,0H454.1q.776.444,1.445.879l.535.348-.9.839q.248-.108.484-.215l.608-.275.2,1.432Zm-7.848,8.314L447.6,10.55v1.092a5.072,5.072,0,0,1-.247,1.721Zm4.278,1.444-.615-2.152c-.765.287-1.539.567-2.313.836l.241.023L450,14.24q-.131.364-.264.687ZM564.8,1.3a10.751,10.751,0,0,1,6.644,1.9,10.923,10.923,0,0,1,3.517,5.449l.15.463-5.4,1.915-.152-.5a6.483,6.483,0,0,0-1.811-3.182,4.514,4.514,0,0,0-2.947-.911,4.725,4.725,0,0,0-3.931,1.831c-1.121,1.4-1.689,3.531-1.689,6.345,0,2.838.549,4.985,1.63,6.382a4.684,4.684,0,0,0,3.958,1.794,4.618,4.618,0,0,0,3.039-.925,6.852,6.852,0,0,0,1.845-3.325l.142-.474,5.582,1.606-.165.494a12.03,12.03,0,0,1-3.6,5.754,10.862,10.862,0,0,1-6.905,2.033c-3.63,0-6.466-1.191-8.428-3.539-1.94-2.322-2.924-5.619-2.924-9.8,0-4,1.043-7.241,3.1-9.647A10.475,10.475,0,0,1,564.8,1.3Zm9.052,7.2a9.628,9.628,0,0,0-3.017-4.5A9.79,9.79,0,0,0,564.8,2.3a10.631,10.631,0,0,0-4.283.83,9.173,9.173,0,0,0-3.3,2.481c-1.9,2.22-2.861,5.247-2.861,9,0,3.941.906,7.022,2.691,9.16a8.364,8.364,0,0,0,3.224,2.379,11.493,11.493,0,0,0,4.437.8,9.9,9.9,0,0,0,6.283-1.816,10.626,10.626,0,0,0,3.1-4.794l-3.631-1.045a7.188,7.188,0,0,1-2.012,3.334,5.578,5.578,0,0,1-3.68,1.157,5.7,5.7,0,0,1-4.748-2.18c-1.222-1.577-1.841-3.93-1.841-7,0-3.047.642-5.392,1.908-6.97A5.74,5.74,0,0,1,564.8,5.431a5.479,5.479,0,0,1,3.583,1.139,6.954,6.954,0,0,1,1.971,3.166Zm58.681-7.2a10.752,10.752,0,0,1,6.644,1.9A10.922,10.922,0,0,1,642.7,8.648l.15.463-5.4,1.915-.152-.5a6.483,6.483,0,0,0-1.811-3.182,4.514,4.514,0,0,0-2.948-.911A4.725,4.725,0,0,0,628.6,8.262c-1.121,1.4-1.689,3.531-1.689,6.345,0,2.838.549,4.985,1.63,6.382a4.683,4.683,0,0,0,3.958,1.794,4.618,4.618,0,0,0,3.039-.925,6.852,6.852,0,0,0,1.845-3.325l.142-.474,5.582,1.606-.165.494a12.03,12.03,0,0,1-3.6,5.754,10.862,10.862,0,0,1-6.905,2.033c-3.63,0-6.466-1.191-8.428-3.539-1.94-2.322-2.924-5.619-2.924-9.8,0-4,1.043-7.241,3.1-9.647A10.475,10.475,0,0,1,632.536,1.3Zm9.052,7.2a9.628,9.628,0,0,0-3.017-4.5A9.791,9.791,0,0,0,632.536,2.3a10.631,10.631,0,0,0-4.283.83,9.174,9.174,0,0,0-3.3,2.481c-1.9,2.22-2.861,5.247-2.861,9,0,3.941.906,7.023,2.691,9.16A8.364,8.364,0,0,0,628,26.145a11.492,11.492,0,0,0,4.437.8,9.9,9.9,0,0,0,6.283-1.816,10.626,10.626,0,0,0,3.1-4.794L638.2,19.291a7.3,7.3,0,0,1-2.012,3.334,5.578,5.578,0,0,1-3.68,1.157,5.7,5.7,0,0,1-4.748-2.18c-1.221-1.577-1.84-3.93-1.84-7,0-3.047.642-5.392,1.908-6.97a5.74,5.74,0,0,1,4.712-2.206,5.479,5.479,0,0,1,3.583,1.139,6.954,6.954,0,0,1,1.971,3.166ZM1.33,1.33h9.581V4.854H4.917V15.706H1.33Zm8.581,1H2.33V14.706H3.917V3.854H9.911Zm673.7-1h6.5l-8.273,19.8h-5.269Zm5,1h-4.291l-6.332,17.8h3.186ZM219.574,1.361a1.914,1.914,0,0,1,1.395.588,1.947,1.947,0,0,1,0,2.789,1.914,1.914,0,0,1-1.395.588,1.862,1.862,0,0,1-1.385-.595,1.941,1.941,0,0,1-.566-1.388,1.941,1.941,0,0,1,.566-1.388A1.862,1.862,0,0,1,219.574,1.361Zm0,2.966a.923.923,0,0,0,.688-.3.948.948,0,0,0,0-1.375.923.923,0,0,0-.688-.3.874.874,0,0,0-.665.289.986.986,0,0,0,0,1.388A.873.873,0,0,0,219.574,4.327ZM199.956,1.488h5.638V3.88c0,6.2-.9,11.41-2.684,15.478a18.258,18.258,0,0,1-8.149,9.1l-.736.393V22.723l.152-.147a17.3,17.3,0,0,0,4.319-7.4,37.953,37.953,0,0,0,1.46-11.2Zm4.638,1h-3.638V3.975a38.939,38.939,0,0,1-1.506,11.5,18.405,18.405,0,0,1-4.426,7.671v4.011a16.285,16.285,0,0,0,3.751-3.1,19.089,19.089,0,0,0,3.217-5.1c1.725-3.94,2.6-9.012,2.6-15.077Zm5.489-1h5.669V4.007A37.925,37.925,0,0,0,217.2,15.175a17.2,17.2,0,0,0,4.3,7.369l.152.147v6.125l-.736-.393a18.265,18.265,0,0,1-8.149-9.081c-1.781-4.057-2.684-9.248-2.684-15.431Zm4.669,1h-3.669V3.912c0,6.043.875,11.1,2.6,15.029a19.06,19.06,0,0,0,3.217,5.086,16.318,16.318,0,0,0,3.751,3.1V23.113a18.309,18.309,0,0,1-4.4-7.64,38.907,38.907,0,0,1-1.5-11.467Zm362.328-.905h5.8v9.685h9.1V1.582h5.764V27.631H591.97V16.558h-9.1V27.631h-5.8Zm4.8,1h-3.8V26.631h3.8V15.558h11.1V26.631h3.764V2.582H592.97v9.685h-11.1Zm19.276-1H619.6V6.81H606.946v4.679h11.136v5.259H606.946v5.625H619.6v5.259H601.151Zm17.446,1H602.151V26.631H618.6V23.372H605.946V15.747h11.136V12.488H605.946V5.81H618.6Zm26.216-1h5.8V12.223l9.818-10.641H667.9L657.407,12.638l10.343,14.994h-7.058l-7.183-10.867-2.9,3.058v7.809h-5.8Zm4.8,1h-3.8V26.631h3.8V19.423l4.041-4.261,7.581,11.469h4.615l-9.722-14.094,9.447-9.955h-4.706l-11.256,12.2ZM290.263,1.708h21.016v.5a36.456,36.456,0,0,1-.969,8.669,24.764,24.764,0,0,1-2.923,7.115,19.561,19.561,0,0,1-7.621,7.033,32,32,0,0,1-11.746,3.266l-.551.056V23.192l.434-.058a26.911,26.911,0,0,0,8.176-2.3,15.872,15.872,0,0,0,4.991-3.71A98.054,98.054,0,0,0,289.9,15.293l-.447-.047V12.654a17.733,17.733,0,0,1-4.984,3.233l-.695.294V10.509l.24-.146a12.71,12.71,0,0,0,3.564-3.4,18.5,18.5,0,0,0,2.565-4.915Zm20.013,1h-19.3a19.476,19.476,0,0,1-2.584,4.843,13.914,13.914,0,0,1-3.61,3.514v3.586a17.6,17.6,0,0,0,4.823-3.52l.146-.148.5-.559A20.545,20.545,0,0,0,293.2,6.144l.139-.272h13.008l-.06.554a24.56,24.56,0,0,1-1.645,6.8l-.165.4-.416-.1a107.8,107.8,0,0,0-13.5-2.26l-.107-.012v3.1a98.12,98.12,0,0,1,11.634,1.981l.765.18-.486.617a16.577,16.577,0,0,1-5.852,4.6,27.491,27.491,0,0,1-8.047,2.336v3.172A30.533,30.533,0,0,0,299.3,24.142a18.575,18.575,0,0,0,7.238-6.675,23.771,23.771,0,0,0,2.8-6.829A35.013,35.013,0,0,0,310.276,2.708Zm-5.044,4.164H293.951a21.388,21.388,0,0,1-2.34,3.5,107.835,107.835,0,0,1,12.272,2.074A23.543,23.543,0,0,0,305.232,6.873ZM40.7,1.9h.516l-.016.516a37.413,37.413,0,0,1-1.563,10,23.234,23.234,0,0,1-4.014,7.68,20.773,20.773,0,0,1-6.466,5.293,28.9,28.9,0,0,1-8.85,2.867l-.582.1V23.04l.391-.087A23.789,23.789,0,0,0,26.524,20.6a15.663,15.663,0,0,0,4.541-3.752,17.76,17.76,0,0,0,3.119-6.077,33,33,0,0,0,1.28-8.39l.017-.482ZM20.722,27.167a27.475,27.475,0,0,0,7.963-2.662,19.781,19.781,0,0,0,6.157-5.039,22.241,22.241,0,0,0,3.838-7.352,35.927,35.927,0,0,0,1.5-9.217H36.444a33.432,33.432,0,0,1-1.3,8.164,18.749,18.749,0,0,1-3.3,6.416c-2.5,3.064-6.237,5.2-11.119,6.36ZM130.955,1.961h.5v.5a36.613,36.613,0,0,1-1.185,9.692,22.452,22.452,0,0,1-3.583,7.517,19.763,19.763,0,0,1-7.3,5.963,28.923,28.923,0,0,1-10.353,2.6l-.539.042V23.151l.445-.05a24.189,24.189,0,0,0,6.757-1.675,15.68,15.68,0,0,0,4.981-3.293,15.269,15.269,0,0,0,3.272-4.927,22.326,22.326,0,0,0,1.525-6.081H114.6a17.78,17.78,0,0,1-3.83,5.69,16.145,16.145,0,0,1-5.988,3.9l-.671.243V11.37l.228-.148a13.425,13.425,0,0,0,3.841-3.733,14.975,14.975,0,0,0,2.158-5.137l.088-.39ZM109.5,27.186a27.527,27.527,0,0,0,9.457-2.453,18.773,18.773,0,0,0,6.932-5.663,21.46,21.46,0,0,0,3.42-7.184,35.121,35.121,0,0,0,1.147-8.926H111.224a14.668,14.668,0,0,1-6.111,8.949v3.6a15.335,15.335,0,0,0,4.949-3.4,16.8,16.8,0,0,0,3.74-5.671l.126-.314h12.657l-.053.548c-.5,5.174-2.235,9.268-5.145,12.168a16.673,16.673,0,0,1-5.3,3.505,24.806,24.806,0,0,1-6.593,1.7ZM14.186,2.024h5.951l.132.3a108.967,108.967,0,0,1,4.564,12.456l.2.646H19.058l-.1-.361A98.462,98.462,0,0,0,14.5,2.726Zm5.3,1H15.718a99.954,99.954,0,0,1,4.09,11.4h3.87A107.454,107.454,0,0,0,19.487,3.024Zm116.837-.968h21.808l-.052.547a28.556,28.556,0,0,1-3.914,12.11,15.407,15.407,0,0,0,2.793,4.361,19.222,19.222,0,0,0,4.6,3.65l.249.145v5.8l-.672-.247a20.252,20.252,0,0,1-6.274-3.663,21.85,21.85,0,0,1-4.367-5.215,29.331,29.331,0,0,1-6.569,5.268,29.806,29.806,0,0,1-8.5,3.313l-.61.138V22.9l.363-.1a24.334,24.334,0,0,0,9.893-5.6,22.066,22.066,0,0,0,6.3-9.89H136.323Zm20.7,1h-19.7V6.314h15.359l-.171.631a22.985,22.985,0,0,1-6.768,10.995,25.35,25.35,0,0,1-9.935,5.717V27a28.646,28.646,0,0,0,7.608-3.057,28.479,28.479,0,0,0,6.79-5.573l.462-.514.344.6a21.108,21.108,0,0,0,4.5,5.54,19.143,19.143,0,0,0,5.294,3.222v-3.78a17.739,17.739,0,0,1-7.661-8.585l-.094-.234.132-.215A27.439,27.439,0,0,0,157.027,3.055Zm99.178-1h21.808l-.052.547a28.552,28.552,0,0,1-3.914,12.11,15.406,15.406,0,0,0,2.793,4.361,19.222,19.222,0,0,0,4.6,3.65l.249.145v5.8l-.672-.247a20.252,20.252,0,0,1-6.274-3.663,21.85,21.85,0,0,1-4.367-5.215A29.33,29.33,0,0,1,263.8,24.81a29.805,29.805,0,0,1-8.5,3.313l-.61.138V22.9l.363-.1a24.335,24.335,0,0,0,9.893-5.6,22.065,22.065,0,0,0,6.3-9.89H256.205Zm20.7,1h-19.7V6.314h15.359l-.171.631a22.985,22.985,0,0,1-6.768,10.995,25.348,25.348,0,0,1-9.935,5.717V27a28.649,28.649,0,0,0,7.608-3.057,28.482,28.482,0,0,0,6.79-5.573l.462-.514.344.6a21.111,21.111,0,0,0,4.5,5.54,19.142,19.142,0,0,0,5.294,3.222v-3.78a17.737,17.737,0,0,1-7.661-8.585l-.094-.234.132-.215A27.441,27.441,0,0,0,276.909,3.055ZM499.5,2.907h16.174V4.885H499.5ZM46.7,3.065H69.18V8.419H46.7Zm21.484,1H47.7V7.419H68.18ZM83.573,5.147h5.155l.113.344a78.885,78.885,0,0,1,2.573,11.083l.1.584h-5.38l-.06-.431A83.667,83.667,0,0,0,83.752,5.782Zm4.429,1H84.89A84.592,84.592,0,0,1,87,16.157h3.327A77.869,77.869,0,0,0,88,6.147Zm6.2-.842H99.75v.973a31.055,31.055,0,0,1-1.181,8.955,18.032,18.032,0,0,1-3.579,6.674,17.386,17.386,0,0,1-5.632,4.246A27.6,27.6,0,0,1,81.5,28.477l-.576.088v-5.06l.4-.082a21.367,21.367,0,0,0,6.142-2.17,12.069,12.069,0,0,0,3.994-3.5c1.823-2.572,2.747-6.444,2.747-11.509Zm4.543,1H95.207a30.008,30.008,0,0,1-.724,6.9,14.811,14.811,0,0,1-2.208,5.125,13.059,13.059,0,0,1-4.319,3.791,21.964,21.964,0,0,1-6.031,2.193V27.4a26.08,26.08,0,0,0,6.995-2.142,16.4,16.4,0,0,0,5.313-4,17.042,17.042,0,0,0,3.378-6.309A30.038,30.038,0,0,0,98.75,6.3ZM75.67,5.4h5.171l.113.344a78.313,78.313,0,0,1,2.7,11.081l.1.585H78.405l-.062-.428A73.075,73.075,0,0,0,75.868,6.046Zm4.446,1h-3.1a73.991,73.991,0,0,1,2.25,10.01h3.295A77.121,77.121,0,0,0,80.116,6.4ZM499.5,6h16.174V7.977H499.5Zm-80.037,4.038h3.271v2.294h-3.271Zm2.271,1h-1.271v.294h1.271Zm3.376-1h3.429v2.294h-3.429Zm2.429,1h-1.429v.294h1.429ZM164.527,10.6h26.806v5.322H164.527Zm25.806,1H165.527v3.322h24.806Zm34.135-1h26.806v5.322H224.468Zm25.806,1H225.468v3.322h24.806Zm64.105-1h26.806v5.322H314.38Zm25.806,1H315.38v3.322h24.806Zm38.93.01h7.215V29.65H373.091V22.435h6.026Zm6.215,1h-5.215V23.435h-6.026V28.65h11.241Zm88.366.735h2.483v4.06H473.7Zm1.483,1H474.7v2.06h.483Zm3.249-1h2.451v4.06h-2.451Zm1.451,1h-.451v2.06h.451Zm-98.934-.905H384.5V27.821H374.92V24.3h6.026Zm2.555,1h-1.555V25.3H375.92v1.524H383.5Zm35.965-.464h3.271v2.325h-3.271Zm2.271,1h-1.271v.325h1.271Zm3.376-1h3.429v2.325h-3.429Zm2.429,1h-1.429v.325h1.429Zm72.56,2.186H515.11v2.42H500.1Zm14.007,1H501.1v.42H514.11Zm-73.791-.211h14.786v2.42H440.319Zm13.786,1H441.319v.42h12.786ZM44.235,21.584H71.861v5.354H44.235Zm26.626,1H45.235v3.354H70.861Zm604.93-.558H682l-2.237,5.953h-6.246Zm4.764,1h-4.076l-1.511,3.953h4.1Zm-240.236-.811h14.786V24.7H440.319Zm13.786,1H441.319V23.7h12.786Z" transform="translate(0 0)" fill="#f095c0"/>
      </g>
      <g id="グループ_1484" data-name="グループ 1484" transform="matrix(0.996, -0.087, 0.087, 0.996, 155.963, 11319.313)">
        <path id="パス_4345" data-name="パス 4345" d="M14.544,16.847A26.059,26.059,0,0,1,3,28.614L0,25.365a25.8,25.8,0,0,0,8.108-6.183,16.032,16.032,0,0,0,3.817-7.792H.726v-4.1H12.114V.694h4.259V7.288H28.33v4.1H16.878q2.145,8.423,12.272,14.133l-3.218,3.123Q17.73,23.629,14.544,16.847Zm44.893,8.707L56.187,28.9A26.556,26.556,0,0,1,44.7,14.8q-2.871,8.013-11.515,14.133l-3.6-3.092Q42.148,18.172,42.148,5.9V.789H46.88V5.3a22.286,22.286,0,0,0,3.186,11.263A22.4,22.4,0,0,0,59.436,25.554ZM71.551.41q-.6,1.136-1.073,1.924H88.24V5.963H67.954q-.442.568-.915,1.1H86.252v2.9H66.913V7.193a25.4,25.4,0,0,1-3.66,3.47L59.468,8.455A24.614,24.614,0,0,0,67.071,0Zm5.71,15.4a22.554,22.554,0,0,1-2.9,4.89q2.745,1.893,4.8,3.565L75.81,26.973Q74.075,25.4,71.677,23.6a28.569,28.569,0,0,1-7.351,4.764l-3.817-2.808a23.887,23.887,0,0,0,7.761-4.322q-2.682-1.735-5.048-2.966L66.408,15.9a51.424,51.424,0,0,1,4.511,2.524,17.132,17.132,0,0,0,2.145-3.754H61.96v-3.5H83.917q.095,12.525,1.64,12.525.347,0,1.041-1.262a13.518,13.518,0,0,0,1.167-2.555L89.785,24.8q-2.177,3.849-4.89,3.849-4.7,0-5.016-13.976H73.538Zm23.125,8.171q3.344-.221,5.742-.473,2.429-4.827,2.745-13.313h-2.745V8.8h-5.742v1.01h5.269v9.023h-5.268v1.041h5.584v2.9h-5.584Zm4.606,2.776q-5.71.757-14.354,1.2l-.82-3.565q3.376-.095,6.688-.221V22.778H90.448v-2.9h6.057V18.834H91.047V9.811h5.458V8.8H90.29V5.773h6.215V4.7q-2.429.158-4.858.189L90.164,1.8A73.092,73.092,0,0,0,103.982.6l2.145,2.966q-3.123.536-5.742.82V5.773h5.868v.5h2.713V.694h3.88V6.278h5.269V20.569q0,4.953-.946,6.436-.852,1.357-3.723,1.357h-2.335l-1.1-3.817h2.082q1.546,0,1.893-.883a16.935,16.935,0,0,0,.315-4.385V10.19h-1.8a54.791,54.791,0,0,1-1.1,9.78,30.28,30.28,0,0,1-3.47,8.644Zm-2.713-13.5v-1.01h-2.051v1.01Zm0,3.155V15.4h-2.051V16.4ZM96.663,13.25v-1.01H94.518v1.01Zm0,3.155V15.4H94.518V16.4ZM148.244,5.363H136.476v1.83h5.458V21.957H126.886V7.193h5.489V5.363H120.608V1.451h27.636Zm-9.811,7.477v-2.3h-2.24v2.3Zm0,5.552V15.932h-2.24v2.461Zm-5.8-5.552v-2.3h-2.24v2.3Zm0,5.552V15.932h-2.24v2.461ZM147.77,28.772h-4.227V27.447H125.371v1.325h-4.259V7.224h4.164v16.4h18.329V7.224h4.164Zm24.828-9.5q-5.584,7.445-17.288,8.36V23.5q15.553-1.735,17.036-16.973H160.579a17.21,17.21,0,0,1-3.849,5.836,15.581,15.581,0,0,1-5.8,3.786V11.547a14.188,14.188,0,0,0,6.215-9.18h20.128Q177.268,13.029,172.6,19.276Zm33.188-7.855q0,8.423-4.921,12.272-4.669,3.628-14.8,3.88v-4.2q7.824-.41,11.1-2.682,3.88-2.682,3.88-9.244V1.861h4.732ZM187.8,17.509h-4.669V1.861H187.8Zm49.656,8.8H211.024V22.147h10.6V7.351h-8.865V3.186h22.967V7.351h-9.433v14.8h11.168ZM266.422,1.42A20.227,20.227,0,0,1,258.346,11.7V28.3h-4.732V14.323a48.665,48.665,0,0,1-12.619,3.47V13.471q16.058-2.9,20.38-12.051Zm30.728.694q0,9.338-3.817,15.522-5.363,8.676-18.992,10.064V23.535q9.654-1.293,14.007-6.814a97.443,97.443,0,0,0-12.02-2.019V11.389a17.649,17.649,0,0,1-5.679,3.943V10.695a13.144,13.144,0,0,0,3.707-3.533,18.92,18.92,0,0,0,2.634-5.048Zm-4.985,4.164H280.019a20.951,20.951,0,0,1-3.029,4.385,107.8,107.8,0,0,1,13.566,2.271A23.952,23.952,0,0,0,292.165,6.278Zm34.892,9.054H301.251V11.01h25.806Zm29.087-7.445H339.96V3.628h16.184Zm.631,18.14a37.715,37.715,0,0,1-7.288.726q-10.821,0-10.821-7a11.113,11.113,0,0,1,2.776-6.941h5.048q-3.5,3.691-3.5,6.436,0,3.218,6.5,3.218a33.808,33.808,0,0,0,7.288-.883ZM337.626,1.483q-.915,9.18-.915,16.657,0,4.985.221,9.4h-4.354q-.189-4.354-.189-9.338,0-8.013.82-16.72Zm50.035,23.724a44.878,44.878,0,0,0-9.906-5.237,7.653,7.653,0,0,1-2.271,6.01,9.371,9.371,0,0,1-6.467,2.035,9.638,9.638,0,0,1-6.12-1.83,5.961,5.961,0,0,1-2.335-4.953,5.959,5.959,0,0,1,2.382-4.969,10.216,10.216,0,0,1,6.42-1.846,25.1,25.1,0,0,1,4.133.347V1.2h4.259V5.868h9.654V9.78h-9.654v6.026a54.5,54.5,0,0,1,9.906,4.511ZM373.5,19.213v-.5a19.989,19.989,0,0,0-4.259-.5,6.3,6.3,0,0,0-3.3.741,2.357,2.357,0,0,0-1.215,2.129,2.5,2.5,0,0,0,1.262,2.24,5.6,5.6,0,0,0,3,.726,4.724,4.724,0,0,0,3.313-.978A5.143,5.143,0,0,0,373.5,19.213Zm43.6-.694a8.212,8.212,0,0,1-3.376,6.909q-3.376,2.555-9.023,2.555a15.2,15.2,0,0,1-7.351-1.546q-2.965-1.609-2.966-4.385a4,4,0,0,1,1.483-3.123,6.822,6.822,0,0,1,4.638-1.483,12.416,12.416,0,0,1,5.142,1.136A9.574,9.574,0,0,1,407.978,20v3.691q4.638-1.293,4.638-5.048A3.8,3.8,0,0,0,410.8,15.38a8.791,8.791,0,0,0-5.032-1.246,21.23,21.23,0,0,0-6.53.883A30.779,30.779,0,0,0,391.1,19.4V14.764l14.1-8.77H394.034V2.051h19.213V5.489l-8.676,5.426a12.574,12.574,0,0,1,2.966-.315,10.677,10.677,0,0,1,6.925,2.129A7.048,7.048,0,0,1,417.1,18.519Zm-10,5.363q-3.754-2.934-6.688-2.934-1.924,0-1.924.978,0,1.041,1.956,1.672a11.71,11.71,0,0,0,3.723.568A15.244,15.244,0,0,0,407.094,23.882Z" transform="translate(1.974 1.58)" fill="#ea91bb"/>
        <path id="パス_4344" data-name="パス 4344" d="M14.544,16.847A26.059,26.059,0,0,1,3,28.614L0,25.365a25.8,25.8,0,0,0,8.108-6.183,16.032,16.032,0,0,0,3.817-7.792H.726v-4.1H12.114V.694h4.259V7.288H28.33v4.1H16.878q2.145,8.423,12.272,14.133l-3.218,3.123Q17.73,23.629,14.544,16.847Zm44.893,8.707L56.187,28.9A26.556,26.556,0,0,1,44.7,14.8q-2.871,8.013-11.515,14.133l-3.6-3.092Q42.148,18.172,42.148,5.9V.789H46.88V5.3a22.286,22.286,0,0,0,3.186,11.263A22.4,22.4,0,0,0,59.436,25.554ZM71.551.41q-.6,1.136-1.073,1.924H88.24V5.963H67.954q-.442.568-.915,1.1H86.252v2.9H66.913V7.193a25.4,25.4,0,0,1-3.66,3.47L59.468,8.455A24.614,24.614,0,0,0,67.071,0Zm5.71,15.4a22.554,22.554,0,0,1-2.9,4.89q2.745,1.893,4.8,3.565L75.81,26.973Q74.075,25.4,71.677,23.6a28.569,28.569,0,0,1-7.351,4.764l-3.817-2.808a23.887,23.887,0,0,0,7.761-4.322q-2.682-1.735-5.048-2.966L66.408,15.9a51.424,51.424,0,0,1,4.511,2.524,17.132,17.132,0,0,0,2.145-3.754H61.96v-3.5H83.917q.095,12.525,1.64,12.525.347,0,1.041-1.262a13.518,13.518,0,0,0,1.167-2.555L89.785,24.8q-2.177,3.849-4.89,3.849-4.7,0-5.016-13.976H73.538Zm23.125,8.171q3.344-.221,5.742-.473,2.429-4.827,2.745-13.313h-2.745V8.8h-5.742v1.01h5.269v9.023h-5.268v1.041h5.584v2.9h-5.584Zm4.606,2.776q-5.71.757-14.354,1.2l-.82-3.565q3.376-.095,6.688-.221V22.778H90.448v-2.9h6.057V18.834H91.047V9.811h5.458V8.8H90.29V5.773h6.215V4.7q-2.429.158-4.858.189L90.164,1.8A73.092,73.092,0,0,0,103.982.6l2.145,2.966q-3.123.536-5.742.82V5.773h5.868v.5h2.713V.694h3.88V6.278h5.269V20.569q0,4.953-.946,6.436-.852,1.357-3.723,1.357h-2.335l-1.1-3.817h2.082q1.546,0,1.893-.883a16.935,16.935,0,0,0,.315-4.385V10.19h-1.8a54.791,54.791,0,0,1-1.1,9.78,30.28,30.28,0,0,1-3.47,8.644Zm-2.713-13.5v-1.01h-2.051v1.01Zm0,3.155V15.4h-2.051V16.4ZM96.663,13.25v-1.01H94.518v1.01Zm0,3.155V15.4H94.518V16.4ZM148.244,5.363H136.476v1.83h5.458V21.957H126.886V7.193h5.489V5.363H120.608V1.451h27.636Zm-9.811,7.477v-2.3h-2.24v2.3Zm0,5.552V15.932h-2.24v2.461Zm-5.8-5.552v-2.3h-2.24v2.3Zm0,5.552V15.932h-2.24v2.461ZM147.77,28.772h-4.227V27.447H125.371v1.325h-4.259V7.224h4.164v16.4h18.329V7.224h4.164Zm24.828-9.5q-5.584,7.445-17.288,8.36V23.5q15.553-1.735,17.036-16.973H160.579a17.21,17.21,0,0,1-3.849,5.836,15.581,15.581,0,0,1-5.8,3.786V11.547a14.188,14.188,0,0,0,6.215-9.18h20.128Q177.268,13.029,172.6,19.276Zm33.188-7.855q0,8.423-4.921,12.272-4.669,3.628-14.8,3.88v-4.2q7.824-.41,11.1-2.682,3.88-2.682,3.88-9.244V1.861h4.732ZM187.8,17.509h-4.669V1.861H187.8Zm49.656,8.8H211.024V22.147h10.6V7.351h-8.865V3.186h22.967V7.351h-9.433v14.8h11.168ZM266.422,1.42A20.227,20.227,0,0,1,258.346,11.7V28.3h-4.732V14.323a48.665,48.665,0,0,1-12.619,3.47V13.471q16.058-2.9,20.38-12.051Zm30.728.694q0,9.338-3.817,15.522-5.363,8.676-18.992,10.064V23.535q9.654-1.293,14.007-6.814a97.443,97.443,0,0,0-12.02-2.019V11.389a17.649,17.649,0,0,1-5.679,3.943V10.695a13.144,13.144,0,0,0,3.707-3.533,18.92,18.92,0,0,0,2.634-5.048Zm-4.985,4.164H280.019a20.951,20.951,0,0,1-3.029,4.385,107.8,107.8,0,0,1,13.566,2.271A23.952,23.952,0,0,0,292.165,6.278Zm34.892,9.054H301.251V11.01h25.806Zm29.087-7.445H339.96V3.628h16.184Zm.631,18.14a37.715,37.715,0,0,1-7.288.726q-10.821,0-10.821-7a11.113,11.113,0,0,1,2.776-6.941h5.048q-3.5,3.691-3.5,6.436,0,3.218,6.5,3.218a33.808,33.808,0,0,0,7.288-.883ZM337.626,1.483q-.915,9.18-.915,16.657,0,4.985.221,9.4h-4.354q-.189-4.354-.189-9.338,0-8.013.82-16.72Zm50.035,23.724a44.878,44.878,0,0,0-9.906-5.237,7.653,7.653,0,0,1-2.271,6.01,9.371,9.371,0,0,1-6.467,2.035,9.638,9.638,0,0,1-6.12-1.83,5.961,5.961,0,0,1-2.335-4.953,5.959,5.959,0,0,1,2.382-4.969,10.216,10.216,0,0,1,6.42-1.846,25.1,25.1,0,0,1,4.133.347V1.2h4.259V5.868h9.654V9.78h-9.654v6.026a54.5,54.5,0,0,1,9.906,4.511ZM373.5,19.213v-.5a19.989,19.989,0,0,0-4.259-.5,6.3,6.3,0,0,0-3.3.741,2.357,2.357,0,0,0-1.215,2.129,2.5,2.5,0,0,0,1.262,2.24,5.6,5.6,0,0,0,3,.726,4.724,4.724,0,0,0,3.313-.978A5.143,5.143,0,0,0,373.5,19.213Zm43.6-.694a8.212,8.212,0,0,1-3.376,6.909q-3.376,2.555-9.023,2.555a15.2,15.2,0,0,1-7.351-1.546q-2.965-1.609-2.966-4.385a4,4,0,0,1,1.483-3.123,6.822,6.822,0,0,1,4.638-1.483,12.416,12.416,0,0,1,5.142,1.136A9.574,9.574,0,0,1,407.978,20v3.691q4.638-1.293,4.638-5.048A3.8,3.8,0,0,0,410.8,15.38a8.791,8.791,0,0,0-5.032-1.246,21.23,21.23,0,0,0-6.53.883A30.779,30.779,0,0,0,391.1,19.4V14.764l14.1-8.77H394.034V2.051h19.213V5.489l-8.676,5.426a12.574,12.574,0,0,1,2.966-.315,10.677,10.677,0,0,1,6.925,2.129A7.048,7.048,0,0,1,417.1,18.519Zm-10,5.363q-3.754-2.934-6.688-2.934-1.924,0-1.924.978,0,1.041,1.956,1.672a11.71,11.71,0,0,0,3.723.568A15.244,15.244,0,0,0,407.094,23.882Z" transform="translate(0 0)" fill="#fdfdfd"/>
        <path id="パス_4344_-_アウトライン" data-name="パス 4344 - アウトライン" d="M33.159,29.563l-3.953-3.4L26,29.274l-.331-.2a35.534,35.534,0,0,1-7.047-5.537,24.583,24.583,0,0,1-4.078-5.564,24.366,24.366,0,0,1-4.236,5.812,30.4,30.4,0,0,1-7.072,5.27l-.343.189L-.816,25.217l.59-.3a25.428,25.428,0,0,0,7.953-6.062,15.847,15.847,0,0,0,3.593-6.968H.226v-5.1H11.614V.194h5.259V6.788H28.83v5.1h-11.3A18.538,18.538,0,0,0,21.4,18.806a30.05,30.05,0,0,0,8,6.281l.241.136a27.54,27.54,0,0,0,8.949-8.469A20.04,20.04,0,0,0,41.648,5.9V.289H47.38V5.3A21.9,21.9,0,0,0,50.5,16.313a22.005,22.005,0,0,0,9.162,8.795l.248.125.436-.151a23.881,23.881,0,0,0,7.077-3.8c-1.556-.988-3.044-1.852-4.431-2.573l-.709-.369,4.073-3.025.274.135c1.371.676,2.768,1.45,4.16,2.3A16.77,16.77,0,0,0,72.3,15.17H61.46v-4.5h.809L58.56,8.5l.611-.451A24.239,24.239,0,0,0,66.625-.226l.153-.3,5.564.509-.35.663c-.228.432-.445.83-.647,1.191H88.74V6.463H68.2l-.083.1H86.752v3.9H66.413V8.48a25.454,25.454,0,0,1-2.357,2.188H84.414l0,.5c.029,3.845.163,6.834.4,8.884.258,2.245.582,2.9.725,3.087a4.88,4.88,0,0,0,.621-.946l.008-.015a13.077,13.077,0,0,0,1.124-2.461l.43-1.261,2.228,5.43c2.025-.057,4.058-.124,6.054-.2v-.407H89.948v-3.9h6.057v-.041H90.547V9.311h5.458V9.3H89.79V5.273h1.486l-1.9-3.966.785-.009A72.971,72.971,0,0,0,103.878.11L104.2.043,107,3.922l-.791.136c-1.907.327-3.7.588-5.326.775v.441h5.868v.5h1.713V.194h4.88V5.778h5.268V20.569c0,3.431-.335,5.624-1.025,6.7-.661,1.052-2.056,1.588-4.144,1.588h-2.71l-.846-2.925a30.763,30.763,0,0,1-1.534,2.933l-.263.443-3.216-2.04c-3.775.493-8.556.89-14.214,1.179l-.419.021-.58-2.52c-1.41,2.12-3.01,3.194-4.769,3.194-1.793,0-3.164-1.287-4.075-3.825A34.86,34.86,0,0,1,79.392,15.17h-2.5l1.052.321L77.72,16a23.139,23.139,0,0,1-2.647,4.578c1.657,1.155,3.134,2.261,4.4,3.291l.476.388-4.155,3.371-.318-.289c-1.061-.964-2.327-2.006-3.77-3.1a29.447,29.447,0,0,1-7.169,4.572l-.268.123-4.329-3.184-3.674,3.782-.342-.215a29.35,29.35,0,0,1-7.22-6.283A26.148,26.148,0,0,1,44.692,16.2a26.56,26.56,0,0,1-3.915,6.45,36.786,36.786,0,0,1-7.3,6.686ZM30.434,25.9l2.783,2.392A35.488,35.488,0,0,0,40,22.02a25.159,25.159,0,0,0,4.231-7.393l.48-1.34.463,1.346a25.293,25.293,0,0,0,4.3,7.773,28.184,28.184,0,0,0,6.635,5.851l2.5-2.572a23.064,23.064,0,0,1-8.977-8.872A22.882,22.882,0,0,1,46.38,5.3V1.289H42.648V5.9a21.025,21.025,0,0,1-3.216,11.387A28.314,28.314,0,0,1,30.434,25.9ZM73.812,14.17h6.556l.011.489a35.058,35.058,0,0,0,1.382,10.324c.764,2.128,1.789,3.163,3.134,3.163,1.559,0,3.017-1.139,4.334-3.386l-1.451-3.537a13.421,13.421,0,0,1-.746,1.457c-.6,1.089-1.013,1.513-1.475,1.513-.486,0-.873-.372-1.15-1.106a11.536,11.536,0,0,1-.529-2.46,81.369,81.369,0,0,1-.457-8.958H62.46v2.5Zm-59.27,1.5.454.966a23.16,23.16,0,0,0,4.348,6.206,34.2,34.2,0,0,0,6.52,5.175l2.462-2.39a30.47,30.47,0,0,1-7.685-6.164,19.38,19.38,0,0,1-4.248-7.949l-.159-.623h11.6v-3.1H15.873V1.194H12.614V7.788H1.226v3.1h11.29l-.1.583a16.6,16.6,0,0,1-3.93,8.034,26.065,26.065,0,0,1-7.677,6L3.1,27.985a29.172,29.172,0,0,0,6.5-4.9,23.266,23.266,0,0,0,4.494-6.447Zm90.563,10.565,2.649,1.68a29.782,29.782,0,0,0,1.7-3.486l-.111-.383h.264a30.13,30.13,0,0,0,1.3-4.188A54.57,54.57,0,0,0,112,10.171l.018-.481h2.78v9.586c0,3.31-.2,4.194-.351,4.571-.312.794-1.105,1.2-2.357,1.2h-1.417l.815,2.817h1.959c1.722,0,2.832-.378,3.3-1.122.4-.623.87-2.2.87-6.17V6.778h-5.268V1.194h-2.88V6.778h-3.713v-.5H99.885V3.936l.446-.048c1.5-.163,3.155-.392,4.918-.683l-1.484-2.051A73.278,73.278,0,0,1,90.953,2.287l1.006,2.1c1.5-.025,3.016-.086,4.513-.184l.532-.035V6.273H90.79V8.3h6.215v2.01H91.547v8.023h5.458v2.041H90.948v1.9h6.057v2.369l-.481.018c-2,.076-4.045.145-6.083.2l.589,2.561c5.539-.29,10.212-.685,13.9-1.173Zm-43.55-.53,2.828,2.08a28.043,28.043,0,0,0,6.957-4.556l.306-.278.33.248c1.459,1.094,2.752,2.142,3.85,3.118l2.532-2.054c-1.245-.992-2.683-2.051-4.284-3.155l-.436-.3.325-.418a22.194,22.194,0,0,0,2.609-4.27L73.4,15.152a17.766,17.766,0,0,1-2.084,3.572l-.276.367-.389-.243c-1.4-.876-2.811-1.67-4.194-2.364l-2.3,1.711c1.384.748,2.855,1.626,4.386,2.616l.564.365-.511.436A24.033,24.033,0,0,1,61.556,25.7Zm49.122-1.659h1.411c.8,0,1.28-.19,1.428-.566a15.481,15.481,0,0,0,.281-4.2V10.69h-.818a54.311,54.311,0,0,1-1.1,9.39A31.179,31.179,0,0,1,110.678,24.044ZM60.369,8.4l2.845,1.66a25.455,25.455,0,0,0,3.323-3.2l.643-.733q.193-.235.38-.475l.15-.193H87.74V2.835H69.6l.454-.757c.214-.356.449-.771.7-1.238L67.36.529A24.96,24.96,0,0,1,60.369,8.4Zm7.044,1.068H85.752v-1.9H67.413Zm27.857-4.2h.735V5.233Zm53,24h-5.227V27.947H125.871v1.325h-5.259V6.724h5.164v16.4h17.329V6.724h5.164Zm-4.227-1h3.227V7.724h-3.164v16.4H124.777V7.724h-3.164V28.272h3.259V26.947h19.172Zm114.8.527h-5.732V15.083a50.417,50.417,0,0,1-12.046,3.2l-.573.085v-5.32l.411-.074a39.388,39.388,0,0,0,12.958-4.4,17.183,17.183,0,0,0,7.058-7.37l.135-.286h6.065l-.227.662a20.742,20.742,0,0,1-8.049,10.385Zm-4.732-1h3.732V11.44l.219-.149a21.644,21.644,0,0,0,4.873-4.486,18.856,18.856,0,0,0,2.771-4.886h-4.021a18.279,18.279,0,0,1-7.315,7.518,39.881,39.881,0,0,1-12.878,4.45v3.323a47.78,47.78,0,0,0,11.916-3.345l.7-.312Zm114.9.716a10.164,10.164,0,0,1-6.429-1.936,6.463,6.463,0,0,1-2.526-5.347,6.462,6.462,0,0,1,2.576-5.364,10.743,10.743,0,0,1,6.726-1.95,25.586,25.586,0,0,1,3.633.263V.7h5.259V5.368h9.654V10.28h-9.654v5.162a56.362,56.362,0,0,1,9.651,4.439l.255.143v6.139l-.785-.546a44.832,44.832,0,0,0-9.14-4.927,7.835,7.835,0,0,1-2.419,5.662A9.888,9.888,0,0,1,369.016,28.515Zm.347-13.6a9.783,9.783,0,0,0-6.114,1.741,5.438,5.438,0,0,0-2.188,4.574,5.44,5.44,0,0,0,2.143,4.56,9.2,9.2,0,0,0,5.812,1.723,8.938,8.938,0,0,0,6.134-1.907,7.213,7.213,0,0,0,2.105-5.637v-.721l.675.253a45.29,45.29,0,0,1,9.231,4.76V20.61a53.66,53.66,0,0,0-9.558-4.328l-.348-.111V9.28h9.654V6.368h-9.654V1.7H374V15.355l-.582-.1A24.722,24.722,0,0,0,369.363,14.917ZM404.7,28.483a15.75,15.75,0,0,1-7.592-1.608c-2.139-1.16-3.224-2.784-3.224-4.823a4.5,4.5,0,0,1,1.654-3.5,7.333,7.333,0,0,1,4.966-1.606,12.97,12.97,0,0,1,5.347,1.18,10.11,10.11,0,0,1,2.461,1.5l.169.149v3.238c2.446-.839,3.638-2.273,3.638-4.37a3.3,3.3,0,0,0-1.6-2.853,8.356,8.356,0,0,0-4.749-1.158,20.843,20.843,0,0,0-6.376.859,30.445,30.445,0,0,0-8,4.317l-.79.561V14.487l12.851-7.992h-9.917V1.551h20.213V5.766l-6.955,4.35q.364-.016.745-.016a11.207,11.207,0,0,1,7.239,2.241,7.556,7.556,0,0,1,2.82,6.178,8.723,8.723,0,0,1-3.574,7.308C411.693,27.589,408.555,28.483,404.7,28.483Zm-4.2-10.537a6.374,6.374,0,0,0-4.309,1.36,3.5,3.5,0,0,0-1.311,2.746c0,1.668.884,2.958,2.7,3.946a14.788,14.788,0,0,0,7.112,1.485c3.636,0,6.57-.826,8.721-2.454A7.912,7.912,0,0,0,415.8,22.2a8.324,8.324,0,0,0,.793-3.685,6.517,6.517,0,0,0-2.449-5.4,10.243,10.243,0,0,0-6.61-2.018,12.14,12.14,0,0,0-2.847.3l-.384-.91,8.441-5.279V2.551H394.534V5.494h12.419L391.6,15.042v3.4a29.86,29.86,0,0,1,7.488-3.9,21.822,21.822,0,0,1,6.682-.907,9.308,9.308,0,0,1,5.315,1.334,4.29,4.29,0,0,1,2.031,3.677,4.969,4.969,0,0,1-1.291,3.477,7.67,7.67,0,0,1-3.589,2.017l.03.023-.37.072-.417.116v-.035l-.287.056a15.819,15.819,0,0,1-3.03.293,12.261,12.261,0,0,1-3.881-.594c-1.523-.491-2.3-1.214-2.3-2.146a1.284,1.284,0,0,1,.755-1.179,3.728,3.728,0,0,1,1.67-.3c2.061,0,4.415,1.023,7,3.04l.075.059V20.234a9.821,9.821,0,0,0-2.043-1.2A11.973,11.973,0,0,0,400.5,17.946Zm-.095,3.5a2.779,2.779,0,0,0-1.217.19c-.192.1-.208.192-.208.288,0,.56.875.959,1.609,1.2a11.273,11.273,0,0,0,3.569.544,14.827,14.827,0,0,0,1.674-.1A9.887,9.887,0,0,0,400.406,21.448Zm-126.565,6.8V23.1l.434-.058a26.911,26.911,0,0,0,8.176-2.3,15.872,15.872,0,0,0,4.991-3.71A98.034,98.034,0,0,0,276.276,15.2l-.447-.047V12.56a17.733,17.733,0,0,1-4.984,3.233l-.695.294V10.414l.24-.146a12.709,12.709,0,0,0,3.564-3.4,18.508,18.508,0,0,0,2.565-4.915l.116-.337H297.65v.5a36.459,36.459,0,0,1-.969,8.669,24.765,24.765,0,0,1-2.923,7.115,19.561,19.561,0,0,1-7.621,7.033A32,32,0,0,1,274.391,28.2Zm1-4.283v3.172a30.534,30.534,0,0,0,10.828-3.095,18.575,18.575,0,0,0,7.238-6.675,23.768,23.768,0,0,0,2.8-6.829,35.015,35.015,0,0,0,.937-7.93h-19.3a19.478,19.478,0,0,1-2.584,4.843,13.915,13.915,0,0,1-3.61,3.514v3.586a17.594,17.594,0,0,0,4.823-3.52l.147-.149.5-.558a20.546,20.546,0,0,0,2.957-4.281l.139-.272h13.008l-.06.554a24.558,24.558,0,0,1-1.645,6.8l-.165.4-.416-.1a107.839,107.839,0,0,0-13.5-2.26l-.107-.012v3.1a98.122,98.122,0,0,1,11.634,1.981l.765.18-.486.617a16.577,16.577,0,0,1-5.853,4.6A27.489,27.489,0,0,1,274.841,23.97Zm3.141-13.7a107.842,107.842,0,0,1,12.272,2.074A23.54,23.54,0,0,0,291.6,6.778H280.322A21.388,21.388,0,0,1,277.982,10.273ZM154.81,28.177V23.056l.445-.05a24.191,24.191,0,0,0,6.757-1.675,15.681,15.681,0,0,0,4.981-3.293,15.27,15.27,0,0,0,3.272-4.927A22.327,22.327,0,0,0,171.79,7.03H160.914a17.778,17.778,0,0,1-3.83,5.69,16.145,16.145,0,0,1-5.988,3.9l-.67.243V11.275l.228-.148a13.422,13.422,0,0,0,3.841-3.733,14.974,14.974,0,0,0,2.158-5.137l.088-.39h21.028v.5a36.613,36.613,0,0,1-1.185,9.692A22.452,22.452,0,0,1,173,19.575a19.765,19.765,0,0,1-7.3,5.963,28.925,28.925,0,0,1-10.353,2.6Zm1-4.229v3.144a27.527,27.527,0,0,0,9.457-2.453,18.773,18.773,0,0,0,6.932-5.663,21.459,21.459,0,0,0,3.42-7.184,35.123,35.123,0,0,0,1.147-8.926H157.536a14.667,14.667,0,0,1-6.111,8.949v3.6a15.333,15.333,0,0,0,4.949-3.4,16.794,16.794,0,0,0,3.74-5.671l.126-.314H172.9l-.053.548c-.5,5.174-2.235,9.268-5.145,12.168a16.673,16.673,0,0,1-5.3,3.505A24.809,24.809,0,0,1,155.81,23.947Zm29.759,4.138V22.9l.474-.025c5.1-.267,8.747-1.14,10.846-2.593a7.711,7.711,0,0,0,2.734-3.434,14.007,14.007,0,0,0,.931-5.4V1.361h5.732V11.42a20.1,20.1,0,0,1-1.266,7.466,12.3,12.3,0,0,1-3.847,5.2,17.165,17.165,0,0,1-6.215,2.874,39.338,39.338,0,0,1-8.877,1.112Zm1-4.236v3.208c6.351-.216,11.055-1.481,13.989-3.76a11.312,11.312,0,0,0,3.534-4.784,19.115,19.115,0,0,0,1.194-7.094V2.361h-3.732v9.091c0,4.528-1.378,7.777-4.1,9.655a13.773,13.773,0,0,1-4.584,1.881A36.849,36.849,0,0,1,186.57,23.849Zm150.888,4.192H332.1l-.021-.478c-.126-2.9-.19-6.045-.19-9.36,0-5.332.277-10.974.822-16.767l.043-.453h5.424l-.055.55c-.605,6.076-.912,11.663-.912,16.608,0,3.3.074,6.454.22,9.376Zm-4.4-1h3.349c-.13-2.79-.2-5.782-.2-8.9,0-4.828.29-10.261.863-16.157h-3.41c-.515,5.6-.776,11.059-.776,16.22C332.889,21.322,332.946,24.292,333.058,27.041Zm16.43.211c-3.688,0-6.51-.616-8.387-1.831a6.337,6.337,0,0,1-2.934-5.672,11.644,11.644,0,0,1,2.886-7.253l.15-.188h6.452l-.8.844c-2.233,2.353-3.365,4.4-3.365,6.092a2.073,2.073,0,0,0,1.347,1.965,11.014,11.014,0,0,0,4.652.753,33.473,33.473,0,0,0,7.179-.871l.608-.135v5.483l-.4.079A38.392,38.392,0,0,1,349.488,27.253Zm-7.8-13.944a10.547,10.547,0,0,0-2.519,6.441,5.327,5.327,0,0,0,2.477,4.833c1.713,1.109,4.352,1.671,7.844,1.671a37.255,37.255,0,0,0,6.788-.639V22.2a33.691,33.691,0,0,1-6.788.764,11.757,11.757,0,0,1-5.1-.856,3.089,3.089,0,0,1-1.9-2.861c0-1.762.941-3.711,2.872-5.936Zm-103.724,13.5H210.524V21.647h10.6V7.851h-8.865V2.686h23.967V7.851h-9.433v13.8h11.168Zm-26.437-1h25.437V22.647H225.793V6.851h9.433V3.686H213.259V6.851h8.865v15.8h-10.6ZM368.985,24.54a6.108,6.108,0,0,1-3.261-.8,2.981,2.981,0,0,1-1.5-2.665,2.838,2.838,0,0,1,1.454-2.556,6.81,6.81,0,0,1,3.557-.815,20.58,20.58,0,0,1,4.366.516l.393.086v.907a5.622,5.622,0,0,1-1.355,4.212A5.208,5.208,0,0,1,368.985,24.54Zm.252-5.836a5.855,5.855,0,0,0-3.036.668,1.85,1.85,0,0,0-.975,1.7,2.011,2.011,0,0,0,1.027,1.816,5.14,5.14,0,0,0,2.732.65,4.289,4.289,0,0,0,2.97-.842A4.718,4.718,0,0,0,373,19.213v-.1A19.1,19.1,0,0,0,369.237,18.7ZM99.886,24.511V22.278h5.584v-1.9H99.885V18.334h5.269V10.311H99.886V8.3h6.742V9.69h2.764l-.019.519c-.212,5.7-1.153,10.252-2.8,13.519l-.123.244L106.18,24c-1.6.168-3.536.328-5.761.475Zm1-1.233v.164q1.166-.08,2.218-.164Zm0-3.9h5.584v2.081a36.128,36.128,0,0,0,1.881-10.766h-2.2v8.644h-5.269Zm0-10.064h4.742V9.3h-4.742Zm41.549,13.146H126.386V6.693h5.489v-.83H120.108V.951h28.636V5.863H136.976v.83h5.458Zm-15.048-1h14.048V7.693h-5.458V4.863h11.767V1.951H121.108V4.863h11.767v2.83h-5.489Zm11.547-2.565h-3.24V15.432h3.24Zm-2.24-1h1.24V16.432h-1.24Zm-3.565,1h-3.24V15.432h3.24Zm-2.24-1h1.24V16.432h-1.24Zm57.417.117h-5.669V1.361H188.3Zm-4.669-1H187.3V2.361h-3.669Zm-80.857-.1H99.728V14.9h3.051Zm-2.051-1h1.051V15.9h-1.051Zm-3.565,1H94.018V14.9h3.145Zm-2.145-1h1.145V15.9H95.018Zm232.54-.073H300.751V10.51h26.806Zm-25.806-1h24.806V11.51H301.751ZM102.778,13.75H99.728v-2.01h3.051Zm-2.051-1h1.051v-.01h-1.051Zm-3.565,1H94.018v-2.01h3.145Zm-2.145-1h1.145v-.01H95.018Zm43.915.59h-3.24v-3.3h3.24Zm-2.24-1h1.24v-1.3h-1.24Zm-3.565,1h-3.24v-3.3h3.24Zm-2.24-1h1.24v-1.3h-1.24ZM356.645,8.387H339.46V3.128h17.184Zm-16.184-1h15.184V4.128H340.46Z" transform="translate(0 0)" fill="#f095c0"/>
      </g>
    </g>
  </g>
</svg>
