<svg xmlns="http://www.w3.org/2000/svg" width="727.588" height="87.51" viewBox="0 0 727.588 87.51">
  <g id="txt_caption01" transform="translate(-174.696 -6579.312)">
    <g id="グループ_1442" data-name="グループ 1442" transform="translate(-101 13.665)">
      <path id="パス_4061" data-name="パス 4061" d="M0,0H727.588L682.639,87.508H0Z" transform="translate(275.696 6565.648)"/>
      <path id="パス_4062" data-name="パス 4062" d="M-2523.746-11489.492l-21.877-21.877,21.877-21.879-21.877-21.875,21.877-21.879H-2567.5v87.51Z" transform="translate(2843.196 18142.648)" fill="#0078ff"/>
    </g>
    <g id="グループ_1462" data-name="グループ 1462">
      <g id="グループ_1461" data-name="グループ 1461" transform="translate(127.021 6596.566)">
        <path id="パス_4333" data-name="パス 4333" d="M-240.422.5h-4.228V-9.324h-8.96V.5h-4.256V-21.728h4.256v8.6h8.96v-8.6h4.228Zm15.2,0h-10.7V-3.08h3.22V-18.144h-3.136v-3.584h10.556v3.584h-3.192V-3.08h3.248Zm8.736,0h-4.256V-21.728h4.256v10.136l9.352-10.136h5.4l-8.848,9.324L-201.67.5h-5.18L-213.4-9.408l-3.08,3.248ZM-193.3-8.008h6.244l-3.192-9.492Zm7.448,3.64h-8.624L-196.042.5h-4.34l7.448-22.232h5.292L-179.8.5h-4.4ZM-172.186.5h-4.256V-21.728h4.256v10.136l9.352-10.136h5.4l-8.848,9.324L-157.374.5h-5.18l-6.552-9.912-3.08,3.248Zm27.944,0h-10.7V-3.08h3.22V-18.144h-3.136v-3.584H-144.3v3.584h-3.192V-3.08h3.248Zm22.12,0h-4.2l-9.3-14.84V.5h-4.144V-21.728h4.2l9.268,15.036V-21.728h4.172Zm19.376-23.436-11.424,24.5h-4.172l11.452-24.5ZM-82.67-6.1A6.055,6.055,0,0,1-85.554-.616,9.5,9.5,0,0,1-90.79.784a11.688,11.688,0,0,1-5.544-1.12A8.552,8.552,0,0,1-100.282-5.4l4.032-1.288a5.8,5.8,0,0,0,2.408,3.136,6.131,6.131,0,0,0,3.052.644,4.274,4.274,0,0,0,2.632-.756A2.505,2.505,0,0,0-87.15-5.8a2.347,2.347,0,0,0-1.316-2.128,12.9,12.9,0,0,0-3.192-1.064,21.163,21.163,0,0,1-5.4-1.736A5.32,5.32,0,0,1-99.75-15.68a5.52,5.52,0,0,1,2.226-4.55,9.221,9.221,0,0,1,5.866-1.75q6.384,0,8.848,5.1l-3.836,1.428a5.208,5.208,0,0,0-2.3-2.324,6.63,6.63,0,0,0-2.884-.532,4.248,4.248,0,0,0-2.8.84,2.146,2.146,0,0,0-.84,1.708,2.108,2.108,0,0,0,1.12,1.9,11.034,11.034,0,0,0,2.744.9q3.248.728,3.948.952a8.512,8.512,0,0,1,3.5,1.932A5.432,5.432,0,0,1-82.67-6.1ZM-63.182.5H-78.666V-21.728h15.484v3.752H-74.41v5.04h9.884v3.78H-74.41v5.88h11.228Zm14.308,0h-10.7V-3.08h3.22V-18.144h-3.136v-3.584H-48.93v3.584h-3.192V-3.08h3.248Zm8.736,0h-4.256V-21.728h4.256v10.136l9.352-10.136h5.4L-34.23-12.4-25.326.5h-5.18l-6.552-9.912-3.08,3.248Zm27.944,0h-10.7V-3.08h3.22V-18.144h-3.136v-3.584H-12.25v3.584h-3.192V-3.08h3.248ZM9.926.5h-4.2l-9.3-14.84V.5H-7.714V-21.728h4.2L5.754-6.692V-21.728H9.926ZM29.3-22.932,17.878,1.568H13.706l11.452-24.5ZM55.482.5h-4.2L50.834-14l-5.1,12.1H42.126l-4.9-11.984L36.946.5H32.8l.784-22.232H37.73L43.974-6.692l6.272-15.036h4.312ZM70.014-.924A7.619,7.619,0,0,1,64.946.84a6.509,6.509,0,0,1-3.752-.98A3.984,3.984,0,0,1,59.486-3.7q0-5.852,10.528-6.076Q69.986-12.4,66.822-12.4a10.751,10.751,0,0,0-5.656,1.876L59.43-13.384a16.62,16.62,0,0,1,7.728-2.1q6.86,0,6.86,5.1V.5h-4Zm0-6.132A20.854,20.854,0,0,0,65.7-6.5q-2.3.672-2.3,2.38,0,1.848,2.128,1.848a6.722,6.722,0,0,0,4.48-1.988ZM92.3-4.368a4.435,4.435,0,0,1-1.988,3.92,9.119,9.119,0,0,1-5.18,1.26q-5.572,0-7.5-4.032l3.612-1.736a4.007,4.007,0,0,0,3.892,2.688Q88.27-2.268,88.27-4q0-1.148-2.688-1.6A36.856,36.856,0,0,1,80.57-6.636a3.757,3.757,0,0,1-2.688-3.7,4.441,4.441,0,0,1,1.848-3.724,8.966,8.966,0,0,1,5.376-1.428q5.18,0,7.084,3.612l-3.444,1.6A3.93,3.93,0,0,0,84.882-12.4q-2.94,0-2.94,1.512,0,1.148,2.688,1.54a28,28,0,0,1,4.984,1.036A3.981,3.981,0,0,1,92.3-4.368ZM110.11.5h-4V-1.4A6.5,6.5,0,0,1,104.09.112a6.535,6.535,0,0,1-2.856.672A5.154,5.154,0,0,1,97.356-.644,5.757,5.757,0,0,1,95.97-4.816V-15.2h4v9.3a4.5,4.5,0,0,0,.364,2.1,1.943,1.943,0,0,0,1.876.924,3.788,3.788,0,0,0,2.464-1.064,4.242,4.242,0,0,0,1.428-2.044V-15.2h4Zm18.928-7.868a8.481,8.481,0,0,1-2,6.062A7.107,7.107,0,0,1,121.618.812a7.137,7.137,0,0,1-5.4-2.072,8.386,8.386,0,0,1-2.1-6.1,8.286,8.286,0,0,1,2.1-6.076,7.19,7.19,0,0,1,5.4-2.044,7.1,7.1,0,0,1,5.376,2.044A8.423,8.423,0,0,1,129.038-7.364Zm-3.976,0q0-4.648-3.444-4.648-3.472,0-3.472,4.648,0,4.676,3.472,4.676Q125.062-2.688,125.062-7.364Zm22.344-15.568-11.424,24.5H131.81l11.452-24.5Zm27.5,3.108h-2.128v1.988H152.39v-3.7h16.548v-2.3h2.436v2.3h1.092v-2.3H174.9Zm-.588,8.988h-7.952A12.563,12.563,0,0,1,161.91-2.3a16.666,16.666,0,0,1-8.764,3.36v-3.78A11.076,11.076,0,0,0,159.264-5.4a8.829,8.829,0,0,0,2.674-5.432H150.71v-3.612h23.6ZM201.25-5.46q0,3.248-1.456,4.746t-4.648,1.5h-5.04V-2.94h4.144a2.981,2.981,0,0,0,2.184-.658,3.031,3.031,0,0,0,.644-2.17v-8.82h-7.2a18.581,18.581,0,0,1-3.528,10.332,15.186,15.186,0,0,1-7.336,5.32v-4q6.58-3.7,6.8-11.648h-6.8v-3.64h6.8v-4.256h4.088v4.256h11.34Zm29.624-.42h-9.856l.672,7.336H217.6l-.644-7.336h-10.7v-3.7h10.332l-.42-5.18h-8.988v-3.668h8.652l-.392-4.228h4.088l.336,4.228h9.856v3.668h-9.492l.448,5.18h10.192Zm16.744-9.856A80.972,80.972,0,0,0,236.11-17.36v-4a85.814,85.814,0,0,1,11.508,1.54Zm10.136-1.848q-.812,9.38-6.328,13.832Q246.274.392,236.418.728v-3.92q7.924-.588,11.732-3.416,4.564-3.36,5.376-10.976Z" transform="translate(412.103 37)" fill="#fce01d"/>
        <path id="パス_4332" data-name="パス 4332" d="M-240.422.5h-4.228V-9.324h-8.96V.5h-4.256V-21.728h4.256v8.6h8.96v-8.6h4.228Zm15.2,0h-10.7V-3.08h3.22V-18.144h-3.136v-3.584h10.556v3.584h-3.192V-3.08h3.248Zm8.736,0h-4.256V-21.728h4.256v10.136l9.352-10.136h5.4l-8.848,9.324L-201.67.5h-5.18L-213.4-9.408l-3.08,3.248ZM-193.3-8.008h6.244l-3.192-9.492Zm7.448,3.64h-8.624L-196.042.5h-4.34l7.448-22.232h5.292L-179.8.5h-4.4ZM-172.186.5h-4.256V-21.728h4.256v10.136l9.352-10.136h5.4l-8.848,9.324L-157.374.5h-5.18l-6.552-9.912-3.08,3.248Zm27.944,0h-10.7V-3.08h3.22V-18.144h-3.136v-3.584H-144.3v3.584h-3.192V-3.08h3.248Zm22.12,0h-4.2l-9.3-14.84V.5h-4.144V-21.728h4.2l9.268,15.036V-21.728h4.172Zm19.376-23.436-11.424,24.5h-4.172l11.452-24.5ZM-82.67-6.1A6.055,6.055,0,0,1-85.554-.616,9.5,9.5,0,0,1-90.79.784a11.688,11.688,0,0,1-5.544-1.12A8.552,8.552,0,0,1-100.282-5.4l4.032-1.288a5.8,5.8,0,0,0,2.408,3.136,6.131,6.131,0,0,0,3.052.644,4.274,4.274,0,0,0,2.632-.756A2.505,2.505,0,0,0-87.15-5.8a2.347,2.347,0,0,0-1.316-2.128,12.9,12.9,0,0,0-3.192-1.064,21.163,21.163,0,0,1-5.4-1.736A5.32,5.32,0,0,1-99.75-15.68a5.52,5.52,0,0,1,2.226-4.55,9.221,9.221,0,0,1,5.866-1.75q6.384,0,8.848,5.1l-3.836,1.428a5.208,5.208,0,0,0-2.3-2.324,6.63,6.63,0,0,0-2.884-.532,4.248,4.248,0,0,0-2.8.84,2.146,2.146,0,0,0-.84,1.708,2.108,2.108,0,0,0,1.12,1.9,11.034,11.034,0,0,0,2.744.9q3.248.728,3.948.952a8.512,8.512,0,0,1,3.5,1.932A5.432,5.432,0,0,1-82.67-6.1ZM-63.182.5H-78.666V-21.728h15.484v3.752H-74.41v5.04h9.884v3.78H-74.41v5.88h11.228Zm14.308,0h-10.7V-3.08h3.22V-18.144h-3.136v-3.584H-48.93v3.584h-3.192V-3.08h3.248Zm8.736,0h-4.256V-21.728h4.256v10.136l9.352-10.136h5.4L-34.23-12.4-25.326.5h-5.18l-6.552-9.912-3.08,3.248Zm27.944,0h-10.7V-3.08h3.22V-18.144h-3.136v-3.584H-12.25v3.584h-3.192V-3.08h3.248ZM9.926.5h-4.2l-9.3-14.84V.5H-7.714V-21.728h4.2L5.754-6.692V-21.728H9.926ZM29.3-22.932,17.878,1.568H13.706l11.452-24.5ZM55.482.5h-4.2L50.834-14l-5.1,12.1H42.126l-4.9-11.984L36.946.5H32.8l.784-22.232H37.73L43.974-6.692l6.272-15.036h4.312ZM70.014-.924A7.619,7.619,0,0,1,64.946.84a6.509,6.509,0,0,1-3.752-.98A3.984,3.984,0,0,1,59.486-3.7q0-5.852,10.528-6.076Q69.986-12.4,66.822-12.4a10.751,10.751,0,0,0-5.656,1.876L59.43-13.384a16.62,16.62,0,0,1,7.728-2.1q6.86,0,6.86,5.1V.5h-4Zm0-6.132A20.854,20.854,0,0,0,65.7-6.5q-2.3.672-2.3,2.38,0,1.848,2.128,1.848a6.722,6.722,0,0,0,4.48-1.988ZM92.3-4.368a4.435,4.435,0,0,1-1.988,3.92,9.119,9.119,0,0,1-5.18,1.26q-5.572,0-7.5-4.032l3.612-1.736a4.007,4.007,0,0,0,3.892,2.688Q88.27-2.268,88.27-4q0-1.148-2.688-1.6A36.856,36.856,0,0,1,80.57-6.636a3.757,3.757,0,0,1-2.688-3.7,4.441,4.441,0,0,1,1.848-3.724,8.966,8.966,0,0,1,5.376-1.428q5.18,0,7.084,3.612l-3.444,1.6A3.93,3.93,0,0,0,84.882-12.4q-2.94,0-2.94,1.512,0,1.148,2.688,1.54a28,28,0,0,1,4.984,1.036A3.981,3.981,0,0,1,92.3-4.368ZM110.11.5h-4V-1.4A6.5,6.5,0,0,1,104.09.112a6.535,6.535,0,0,1-2.856.672A5.154,5.154,0,0,1,97.356-.644,5.757,5.757,0,0,1,95.97-4.816V-15.2h4v9.3a4.5,4.5,0,0,0,.364,2.1,1.943,1.943,0,0,0,1.876.924,3.788,3.788,0,0,0,2.464-1.064,4.242,4.242,0,0,0,1.428-2.044V-15.2h4Zm18.928-7.868a8.481,8.481,0,0,1-2,6.062A7.107,7.107,0,0,1,121.618.812a7.137,7.137,0,0,1-5.4-2.072,8.386,8.386,0,0,1-2.1-6.1,8.286,8.286,0,0,1,2.1-6.076,7.19,7.19,0,0,1,5.4-2.044,7.1,7.1,0,0,1,5.376,2.044A8.423,8.423,0,0,1,129.038-7.364Zm-3.976,0q0-4.648-3.444-4.648-3.472,0-3.472,4.648,0,4.676,3.472,4.676Q125.062-2.688,125.062-7.364Zm22.344-15.568-11.424,24.5H131.81l11.452-24.5Zm27.5,3.108h-2.128v1.988H152.39v-3.7h16.548v-2.3h2.436v2.3h1.092v-2.3H174.9Zm-.588,8.988h-7.952A12.563,12.563,0,0,1,161.91-2.3a16.666,16.666,0,0,1-8.764,3.36v-3.78A11.076,11.076,0,0,0,159.264-5.4a8.829,8.829,0,0,0,2.674-5.432H150.71v-3.612h23.6ZM201.25-5.46q0,3.248-1.456,4.746t-4.648,1.5h-5.04V-2.94h4.144a2.981,2.981,0,0,0,2.184-.658,3.031,3.031,0,0,0,.644-2.17v-8.82h-7.2a18.581,18.581,0,0,1-3.528,10.332,15.186,15.186,0,0,1-7.336,5.32v-4q6.58-3.7,6.8-11.648h-6.8v-3.64h6.8v-4.256h4.088v4.256h11.34Zm29.624-.42h-9.856l.672,7.336H217.6l-.644-7.336h-10.7v-3.7h10.332l-.42-5.18h-8.988v-3.668h8.652l-.392-4.228h4.088l.336,4.228h9.856v3.668h-9.492l.448,5.18h10.192Zm16.744-9.856A80.972,80.972,0,0,0,236.11-17.36v-4a85.814,85.814,0,0,1,11.508,1.54Zm10.136-1.848q-.812,9.38-6.328,13.832Q246.274.392,236.418.728v-3.92q7.924-.588,11.732-3.416,4.564-3.36,5.376-10.976Z" transform="translate(412.103 38)" fill="#fdfdfd"/>
      </g>
    </g>
  </g>
</svg>
