<svg xmlns="http://www.w3.org/2000/svg" width="425.158" height="128.282" viewBox="0 0 425.158 128.282">
  <g id="txt_present02_sp" transform="translate(-573.006 -12570.509)">
    <path id="パス_1332" data-name="パス 1332" d="M-337.366-36.455a28.977,28.977,0,0,0-4.278,1.11q-2.354.785-3.863,1.465T-356.7-28.461l-3.641-5.211q1.125-.474,6.868-3.2-8.763.089-26.319.711l-.237-7.342q8.408-.3,32.033-.3,5.447,0,7.875.03Zm2.191,37.6a178.743,178.743,0,0,1-21.2,1.421q-15.72,0-21.671-3.138t-5.951-9.266q0-7.727,8.2-13.944l5.891,4.411q-5.625,5.359-5.625,8.793a4.584,4.584,0,0,0,.355,1.85,4.106,4.106,0,0,0,1.732,1.643,14.868,14.868,0,0,0,5.018,1.362,68.273,68.273,0,0,0,9.237.563h2.161a139.765,139.765,0,0,0,20.546-1.6Zm34.431,2.1-2.191-7.4q11.753-1.3,17.674-5.418t5.921-12.286q0-6.839-4.263-10.969t-11.812-4.84q-.622,16.579-6.2,26.867T-315.665-.514q-5.507,0-8.911-5.2a21.2,21.2,0,0,1-3.4-11.887v-.74q0-10.243,8.245-18.133t20.8-8.482h1.214q11.99,0,19.7,6.084t7.712,16.535q0,11.457-7.771,17.941T-300.744,3.246Zm-2.99-40.056a21.007,21.007,0,0,0-11.324,6.987,17.92,17.92,0,0,0-4.663,11.961,16.365,16.365,0,0,0,1.155,6.217Q-317.412-8.8-315.34-8.8q4.174,0,7.579-8.112T-303.734-36.81ZM-231.912-21a21.956,21.956,0,0,1-6.38,16q-6.38,6.5-18.252,8.926l-2.99-7.342q8.556-1.717,13.692-6.084A14.275,14.275,0,0,0-240.734-21h-24.839v-7.638h24.839v-7.993q-7.52.74-18.622.977L-260.866-43q26.556-.651,40.944-5.951l5.329,6.306a81.323,81.323,0,0,1-17.349,4.766v9.237h21.582V-21Zm53.378,24.572-7.372.829-5.743-28.747L-201.8-22.925l-1.036-6.691,9.888-1.3-2.013-10.1,7.224-.77,2.013,9.918,27.207-3.612,3.582,2.842a47.517,47.517,0,0,1-15.572,22.115l-5.033-4.589a42.67,42.67,0,0,0,10.658-12.967l-19.51,2.724Zm65.753-38.1-5.418,7.342q-4.382-2.812-7.771-4.737t-15.321-7.934l4.678-6.78A193.049,193.049,0,0,1-112.78-34.531Zm24.01,7.224Q-96.29-13.422-108.4-6.139T-139.04,2.95l-2.013-8.289a80.015,80.015,0,0,0,16.875-3.079,44.576,44.576,0,0,0,11.827-5.669,59.681,59.681,0,0,0,8.645-7.135,57.693,57.693,0,0,0,7.831-10.821ZM-27.547-2.5l-6.661,6.365q-5.24-5.714-20.25-18.622a90.2,90.2,0,0,1-27.711,18.8l-4.322-6.987A82.663,82.663,0,0,0-64.45-17.211,61.714,61.714,0,0,0-48.6-37.935l-29.99-.03v-7.757h38.9l2.428,2.339a57.1,57.1,0,0,1-4.84,12.36,73.821,73.821,0,0,1-6.854,9.962Q-36.162-10.669-27.547-2.5ZM34.091-6.021,29.3.759a56.168,56.168,0,0,0-8.556-6.632A8.873,8.873,0,0,1,17.616.789q-2.827,2.28-10.5,2.28A15.744,15.744,0,0,1-2.2.389,8.447,8.447,0,0,1-5.994-6.879a8.959,8.959,0,0,1,3.819-7.475,14.55,14.55,0,0,1,9.03-2.887,50.1,50.1,0,0,1,5.477.355V-30.119H-6.882v-7.342H12.332V-48.208H20.8v10.747H31.841v7.342H20.8v15.78A57.294,57.294,0,0,1,34.091-6.021ZM12.332-7.708V-9.781A14.948,14.948,0,0,0,6.855-10.7a6.326,6.326,0,0,0-3.449.962,2.872,2.872,0,0,0-1.525,2.5A2.672,2.672,0,0,0,3.45-4.822a7.427,7.427,0,0,0,3.671.873Q12.332-3.948,12.332-7.708Zm-22.2-38.812Q-13.514-33.346-13.514-23.7a92.823,92.823,0,0,0,3.4,24.9l-8.319,1.687a97.067,97.067,0,0,1-3.257-24.484,107.013,107.013,0,0,1,3.464-26.082ZM-319.293,54.4a18.138,18.138,0,0,1-7.7,12.2,30.779,30.779,0,0,1-15.365,5.329l-2.072-6.543A28.754,28.754,0,0,0-333.223,61.7a11.031,11.031,0,0,0,5.521-7.3h-9.888V19.289h44.467V54.4H-305.2v8.023a1.562,1.562,0,0,0,.444,1.155,3.805,3.805,0,0,0,2.161.577q1.717.133,2.487.133.8,0,2.516-.133a12.694,12.694,0,0,0,2.235-.3,2.273,2.273,0,0,0,.933-.577,4.745,4.745,0,0,0,.637-2.354,42.765,42.765,0,0,0,.222-4.752l6.928,1.066v7.283a5.946,5.946,0,0,1-1.984,4.574,7.943,7.943,0,0,1-5.359,1.91q-.8,0-3.434.118-1.984.089-3.345.089-1.007,0-3.079-.118l-3.434-.207A6.653,6.653,0,0,1-309.7,70.3a5.885,5.885,0,0,1-1.85-1.362,5.7,5.7,0,0,1-1.184-2.028,8.068,8.068,0,0,1-.4-2.62V54.4Zm17.97-24.72V25.417h-28.066V29.68Zm-28.066,9.326h28.066V34.891h-28.066Zm28.066,5.211h-28.066v4.174h28.066Zm75.553-.059-4.5,5.27q-4.145-3.345-9.5-6.987V54.519a1.223,1.223,0,0,0,.518,1.125,7.025,7.025,0,0,0,2.827.326q.711,0,1.554-.074a2.087,2.087,0,0,0,1.273-.474,1.3,1.3,0,0,0,.459-.873q.03-.474.148-2.709t.118-2.294l6.069.918v6.424a4.665,4.665,0,0,1-.977,2.946,6.107,6.107,0,0,1-2.709,1.924q-1.732.666-6.854.666A33.3,33.3,0,0,1-242.7,62.1a5.292,5.292,0,0,1-3.168-1.836,5.769,5.769,0,0,1-1.3-3.908V18.4h7.4V28.614a54.232,54.232,0,0,0,7.52-7.9l5.684,4.352a56.363,56.363,0,0,1-10.776,9.888l-2.428-2.605v5.714l1.747-2.132Q-233.734,38.621-225.77,44.157ZM-268.4,31.131l-7.579,2.842q-.74-1.836-3.123-6.276t-3.656-6.395l7.076-2.664A111.324,111.324,0,0,1-268.4,31.131Zm10.391,16.283q-4.263,2.013-8.7,3.612l-2.043-6.365a76.4,76.4,0,0,0,11.339-4V36.726l-5.891,1.984a143.187,143.187,0,0,0-4.678-13.826l6.572-2.072a82,82,0,0,1,4,11.22V18.756h7.164v23.27q0,7.786-3.035,12.863t-11.117,8.482l-3.582-5.447a23.739,23.739,0,0,0,6.484-4.411A13.779,13.779,0,0,0-258.011,47.414Zm32.773,16.993-1.332,6.188q-.474-.03-1.243-.03l-18.5.178q-13.145,0-18.859-1.3a13.033,13.033,0,0,1-6.868-4.678,39.822,39.822,0,0,1-9.5,6.868l-2.724-7.105a24.689,24.689,0,0,0,7.253-4.234V44.779h-5.8V38.473h13.441V58.456a4.492,4.492,0,0,0,1.51,3.493,7.892,7.892,0,0,0,3.36,1.836,35.385,35.385,0,0,0,5.965.725q4.115.252,17.141.252Q-229.027,64.762-225.238,64.407Zm53.053,6.365q-9.089.326-15.6.326a99.52,99.52,0,0,1-15.617-.844,12.765,12.765,0,0,1-7.416-3.863q-2.753-3.02-2.753-8.911V39.894h-8.674V32.67h8.674V21.006h8.793V32.67h20.339q-.089-5.625-.592-11.931l8.674-.533q.5,5.655.5,12.464h9.5v7.224H-176q-.533,9.533-1.288,12.183a8.243,8.243,0,0,1-2.65,4.219,7.833,7.833,0,0,1-5.151,1.569,15.335,15.335,0,0,1-6.794-1.954,32.538,32.538,0,0,1-7.15-4.974l3.641-6.069a28.677,28.677,0,0,0,5.329,3.3,11.366,11.366,0,0,0,3.434,1.229,1.408,1.408,0,0,0,.992-.34,1.469,1.469,0,0,0,.459-.859q.089-.518.34-3.094t.34-5.211h-20.28V57.687q0,5.24,6.78,5.625l.918.03q4.589.237,10.1.237,8.171,0,14.8-.622Zm30.878-50.921q-.207,4.737-.681,8.674h12.908V35.6h-13.974a67.857,67.857,0,0,1-13.411,30.138l-6.484-4.678q8.053-9.888,11.457-25.461h-9.118V28.525h10.362a83.977,83.977,0,0,0,.681-8.941Zm36.918,18-6.484,4.914a88.5,88.5,0,0,0-8.556-8.586,65.2,65.2,0,0,0-9.03-7.076l4.974-5.507a59.218,59.218,0,0,1,9.785,7.09A84.082,84.082,0,0,1-104.389,37.851Zm-.414,24.6-4.382,6.572a70.321,70.321,0,0,0-9.888-7.135q0,5.122-3.2,7.609t-10.539,2.487a17.354,17.354,0,0,1-9.829-2.605,8.223,8.223,0,0,1-3.908-7.224,9.063,9.063,0,0,1,4.145-7.831,17.277,17.277,0,0,1,10.125-2.887,36.147,36.147,0,0,1,5.033.326V36.4h8.171V53.986Q-113.389,56.3-104.8,62.453Zm-22.441-4.145a24.176,24.176,0,0,0-5.033-.5,10.069,10.069,0,0,0-4.692,1.021,3.122,3.122,0,0,0-1.969,2.827q0,3.73,6.9,3.73,4.8,0,4.8-3.464Zm57.671-6.75a79.48,79.48,0,0,1-3.863,9.192,35.326,35.326,0,0,1-4.574,7.49,6.606,6.606,0,0,1-5.181,2.413q-6.395,0-10.984-7.89a35.4,35.4,0,0,1-4.589-18.133q0-3.345.651-9.918.622-6.6.622-9.888h9.059q-.089,2.99-.888,9.8a86.593,86.593,0,0,0-.77,9.829A29.157,29.157,0,0,0-87.8,56.414q2.294,5.151,3.893,5.151,2.309,0,7.283-13.53Zm24.424,10.954-8.911.563a56.7,56.7,0,0,0-3.2-18.474,50.154,50.154,0,0,0-8.7-15.957l7.164-3.582Q-45.149,40.249-45.149,62.512ZM-6.81,23.907-7.994,55.555h-8.319l-1.214-31.648Zm-.237,44.615H-17.261v-7.7H-7.047Z" transform="translate(960 12622.998)" fill="#0272be"/>
    <path id="パス_1332_-_アウトライン" data-name="パス 1332 - アウトライン" d="M-218.987-52.49l9.305,11.011-3.732,1.595a79.416,79.416,0,0,1-15.527,4.5v3.748h21.582V-18h-21.7a24.607,24.607,0,0,1-7.089,15.1c-4.659,4.746-11.318,8.031-19.791,9.763l-2.44.5-5.3-13.008,3.556-.714c5.172-1.038,9.324-2.864,12.34-5.428A10.923,10.923,0,0,0-244.025-18h-23.56a24.1,24.1,0,0,1-8.575,15.912C-281.8,2.62-290,5.422-300.512,6.237l-2.42.188-2.306-7.791a15.87,15.87,0,0,1-10.427,3.853c-4.663,0-8.612-2.265-11.42-6.552a24.242,24.242,0,0,1-3.9-13.531,27.833,27.833,0,0,1,9.171-21.041c6.009-5.75,13.657-8.883,22.73-9.311l.141,0h1.214c8.647,0,15.9,2.264,21.56,6.729a22.353,22.353,0,0,1,7.591,10.631v-1.047h24.839V-33.36c-4.434.341-9.649.578-15.558.7l-2.5.053-2.736-13.306,3.588-.088c17.292-.424,30.743-2.364,39.981-5.767Zm-.641,8.537-1.255-1.485c-9.025,2.968-21.219,4.757-36.326,5.328l.287,1.394c6.214-.172,11.552-.475,15.894-.9l3.294-.324v14.3h-24.839V-24h24.826l.012,2.988a17.212,17.212,0,0,1-6.164,13.8,30.581,30.581,0,0,1-11.543,5.893l.714,1.753c6.119-1.567,10.92-4.1,14.295-7.533A18.9,18.9,0,0,0-234.912-21v-3h21.553v-1.638h-21.582V-40.388l2.473-.441A93.27,93.27,0,0,0-219.628-43.953ZM-298.569.026C-290.5-.889-284.258-3.146-280-6.7c4.5-3.757,6.693-8.872,6.693-15.637,0-6.054-2.149-10.692-6.57-14.179-4.575-3.609-10.579-5.439-17.844-5.439h-1.142c-7.66.375-13.808,2.877-18.8,7.649-4.925,4.713-7.319,9.935-7.319,15.966,0,4.64.953,7.99,2.914,10.982,1.717,2.62,3.751,3.84,6.4,3.84,4.5,0,8.228-2.852,11.411-8.718,3.481-6.417,5.446-15.013,5.841-25.549l.119-3.172,3.16.3c5.706.537,10.288,2.445,13.619,5.672,3.434,3.327,5.176,7.742,5.176,13.124,0,6.463-2.425,11.425-7.209,14.75-3.763,2.615-8.861,4.414-15.515,5.464Zm-1.454-7.6c5.7-.9,10.077-2.4,13.05-4.466,3.118-2.167,4.633-5.38,4.633-9.823,0-3.747-1.1-6.63-3.35-8.814a14.333,14.333,0,0,0-6.908-3.518c-.705,9.967-2.848,18.3-6.382,24.82Q-299.489-8.434-300.022-7.571ZM9.332-51.208H23.8v10.747H34.841v13.342H23.8v10.851A63.334,63.334,0,0,1,35.98-8.351l2.183,1.769-8.4,11.867L27.257,2.96Q24.913.79,22.622-.941A10.789,10.789,0,0,1,19.5,3.124C17.042,5.105,12.993,6.068,7.121,6.068A18.743,18.743,0,0,1-3.937,2.838a11.94,11.94,0,0,1-3.749-4.19q.225.878.467,1.753l.859,3.1L-20.617,6.4l-.715-2.75a100.519,100.519,0,0,1-3.353-25.239A110.5,110.5,0,0,1-21.13-48.407l.656-2.608,14.406,1.992-.913,3.3q-.747,2.7-1.338,5.26H9.332Zm8.467,6H15.332v10.747H-3.882v1.342H15.332v19.589L12-13.9a47.124,47.124,0,0,0-5.143-.337,11.528,11.528,0,0,0-7.221,2.28A5.985,5.985,0,0,0-2.994-6.879,5.493,5.493,0,0,0-.473-2.061,12.723,12.723,0,0,0,7.121.068c5.75,0,7.864-1.012,8.612-1.615a5.976,5.976,0,0,0,2.013-4.528l.335-4.963,4.233,2.612A54.935,54.935,0,0,1,28.776-3.7l1.213-1.714a51.248,51.248,0,0,0-10.372-6.166L17.8-12.362V-33.119H28.841v-1.342H17.8Zm-31.434,1.2-2.3-.319a102.309,102.309,0,0,0-2.745,22.738A93.221,93.221,0,0,0-16.2-.622l2.395-.486A96.066,96.066,0,0,1-16.514-23.7,85.454,85.454,0,0,1-13.635-44.012ZM9.332-27.119H-9.882v-5a61.577,61.577,0,0,0-.632,8.425A89.766,89.766,0,0,0-8.989-7.252a12,12,0,0,1,5.005-9.5A17.548,17.548,0,0,1,6.855-20.241q1.14,0,2.477.08ZM-137.724-50.311l2.221.884a196.813,196.813,0,0,1,24.225,12.3l2.9,1.679-9.078,12.3-2.365-1.518q-4.3-2.762-7.632-4.653-3.361-1.908-15.189-7.864l-3.075-1.549Zm20.529,16.71a194.719,194.719,0,0,0-18.325-9.339l-1.347,1.953q9.42,4.771,12.379,6.453,2.5,1.42,5.536,3.316Zm35.609-15.121h43.111l4.593,4.425-.488,1.729A60.306,60.306,0,0,1-39.484-29.55a72.892,72.892,0,0,1-5.3,8.021c7.564,6.211,14.049,11.873,19.3,16.855L-23.2-2.506-34.349,8.152-36.419,5.9c-3.157-3.443-9.19-9.025-17.949-16.61A92.088,92.088,0,0,1-81.01,6.812l-2.362.989L-90.878-4.331l3.21-1.37A80.062,80.062,0,0,0-66.432-19.464,61.814,61.814,0,0,0-53.5-34.94l-28.083-.028Zm40.691,6H-75.586v1.76l31.645.031-1.923,4.236a64.968,64.968,0,0,1-16.6,21.736A88.638,88.638,0,0,1-82.149-1.626l1.16,1.875A89.326,89.326,0,0,0-56.543-16.912l1.967-1.9,2.074,1.783C-44.05-9.76-37.994-4.274-34.116-.37l2.2-2.1c-5.254-4.851-11.607-10.308-18.93-16.257l-2.317-1.883,1.872-2.326a71.189,71.189,0,0,0,6.577-9.554,50.942,50.942,0,0,0,4.064-9.989Zm-307.1-4.076,9.96.055,4.758,12.638-3.59.608a26,26,0,0,0-3.83,1q-2.179.726-3.579,1.354-1.5.676-11.106,5.378l-2.307,1.129-6.3-9.02q-6.686.178-15.694.5l-3.008.106-.43-13.34,2.989-.105Q-371.7-46.8-347.994-46.8Zm5.8,6.022-5.8-.022q-19.866,0-28.937.209l.043,1.326q15.366-.526,23.387-.607l1.316,5.71q-2.13,1.01-3.635,1.715l.111.159q7.638-3.73,8.969-4.33,1.622-.731,4.148-1.577.625-.208,1.222-.386Zm156.854-4.281,2,9.848,25.692-3.411,6.222,4.936-.659,1.99A50.682,50.682,0,0,1-168.613-8.2l-2.006,1.638-8.473-7.725,4.149,20.471-13.365,1.5-5.729-28.672-10.28,1.439-1.958-12.645,9.754-1.285-2.029-10.175Zm-2.766,16.533-2.027-9.988-1.242.132,2,10.016-10.023,1.32.114.737,10.03-1.4L-183.5,1.111l1.379-.155-5.845-28.839,28.543-3.985-2.82,5.218a46.3,46.3,0,0,1-8.8,11.578l.6.547a44.483,44.483,0,0,0,11.962-17.1l-.9-.715Zm8.7,12.689,1.969-1.6a38.977,38.977,0,0,0,6.515-6.768l-9.9,1.382ZM-300.528-40.648l-.211,4c-.431,8.165-1.863,15.2-4.256,20.9-1.033,2.461-4.176,9.951-10.345,9.951-1.528,0-4.34-.612-6.006-4.713a19.422,19.422,0,0,1-1.375-7.346,20.917,20.917,0,0,1,5.389-13.918,24.041,24.041,0,0,1,12.91-7.95Zm-14.715,28.84c1.066-.1,2.833-1.782,4.716-6.268a51.738,51.738,0,0,0,3.433-14.344,18.627,18.627,0,0,0-5.691,4.554,14.886,14.886,0,0,0-3.937,10,13.461,13.461,0,0,0,.934,5.088A3.182,3.182,0,0,0-315.243-11.808Zm218.4-24.487,12.015,8.01-1.3,2.407c-5.249,9.691-12.22,17.2-20.72,22.31-8.42,5.064-19.152,8.262-31.9,9.5l-2.592.253-3.449-14.2,3.466-.314a77.475,77.475,0,0,0,16.231-2.948,41.8,41.8,0,0,0,11.037-5.28,56.979,56.979,0,0,0,8.211-6.771,55.144,55.144,0,0,0,7.388-10.246Zm4.083,9.933-2.184-1.456a52.528,52.528,0,0,1-6.622,8.7,62.948,62.948,0,0,1-9.078,7.5,47.772,47.772,0,0,1-12.618,6.058,76.366,76.366,0,0,1-14.065,2.849l.581,2.393c10.709-1.31,19.716-4.128,26.8-8.39A50.337,50.337,0,0,0-92.761-26.361ZM-375.8-27.54l10.541,7.892-2.569,2.447c-4.356,4.149-4.694,6.117-4.694,6.621l.635.923a12.059,12.059,0,0,0,3.9.963,65.313,65.313,0,0,0,8.818.531h2.145a137.418,137.418,0,0,0,20.1-1.566l2.921-.435,2.292,13.91-3.11.375a182.572,182.572,0,0,1-21.557,1.443c-11.078,0-18.624-1.14-23.07-3.485-4.94-2.605-7.551-6.727-7.551-11.92,0-6.116,3.159-11.612,9.388-16.335Zm1.377,8.527-1.285-.962c-3.55,3.158-5.282,6.489-5.282,10.136,0,2.946,1.382,5.048,4.35,6.613,2.415,1.274,7.892,2.792,20.272,2.792A168.483,168.483,0,0,0-338.648-1.48l-.314-1.905a140.608,140.608,0,0,1-18.062,1.223h-2.161a71.583,71.583,0,0,1-9.671-.594,16.994,16.994,0,0,1-6.131-1.76,6.842,6.842,0,0,1-2.934-3.013,7.58,7.58,0,0,1-.606-3.05C-378.527-13.138-377.212-15.864-374.427-19.013ZM6.855-13.7a17.98,17.98,0,0,1,6.573,1.125l1.9.747v4.118c0,1.586-.592,6.76-8.21,6.76A10.416,10.416,0,0,1,1.991-2.2a5.63,5.63,0,0,1-3.11-5.034A5.857,5.857,0,0,1,1.8-12.273,9.309,9.309,0,0,1,6.855-13.7ZM9.3-7.509A14.817,14.817,0,0,0,6.855-7.7a3.358,3.358,0,0,0-1.848.5,11.079,11.079,0,0,0,2.114.251,3.92,3.92,0,0,0,2.174-.39ZM-274.587,15.018l1.341,1.872c1.021,1.425,2.162,3.221,3.442,5.421l9.386-2.959v-3.6h10.243V15.4h13.4v6.072q1.162-1.3,2.128-2.574l1.821-2.4,10.6,8.115-2.069,2.407a63.133,63.133,0,0,1-8.8,8.527q3.282,2.167,7.844,5.325V29.67h8.674V18.006h14.793V29.67h14.262q-.144-4.168-.506-8.692l-.243-3.046,14.637-.9.259,2.907q.4,4.506.49,9.73h9.272V25.525h10.686q.28-2.9.358-6.016l.076-3.02,14.313.462-.133,3.032q-.128,2.919-.355,5.543h7.59l6.946-7.691,2.075,1.126a61.5,61.5,0,0,1,10.307,7.451,87.45,87.45,0,0,1,9.644,9.5l.778.916q.1-1.146.226-2.408.6-6.392.607-9.592v-3h15.15l-.092,3.089q-.091,3.069-.907,10.06a83.8,83.8,0,0,0-.749,9.479,26.334,26.334,0,0,0,2.035,10.74c.44.988.813,1.716,1.116,2.249A70.644,70.644,0,0,0-79.435,47l1.157-3.148,12.383,6.192-.837,2.476a82.466,82.466,0,0,1-4.008,9.545,37.75,37.75,0,0,1-5.009,8.147,9.641,9.641,0,0,1-7.443,3.442c-5.388,0-9.956-3.156-13.577-9.382a38.518,38.518,0,0,1-5-19.641q0-2.018.227-5.177l-9.8,7.429-1.835-2.191q-1.226-1.464-2.9-3.179V52.027a85.69,85.69,0,0,1,13.018,7.988l2.356,1.69-7.838,11.757-2.564-2.128q-3.17-2.631-5.752-4.459a10.686,10.686,0,0,1-3.576,4.992c-2.7,2.1-6.748,3.119-12.381,3.119A20.354,20.354,0,0,1-144.3,71.877a11.24,11.24,0,0,1-5.244-9.72q0-.59.048-1.163a67.659,67.659,0,0,1-4.613,6.606l-1.781,2.252-11.391-8.218,2.009-2.466c4.409-5.415,7.755-12.32,9.968-20.566h-8.046v4.293h-9.829c-.444,6.621-.9,8.877-1.225,10a11.223,11.223,0,0,1-3.621,5.707,9.525,9.525,0,0,1-3.907,1.908c3.393-.089,6.563-.271,9.47-.544l3.28-.308v14l-2.893.1q-9.151.328-15.709.328c-7.552,0-12.835-.292-16.151-.892a15.747,15.747,0,0,1-9.1-4.794c-2.347-2.574-3.536-6.252-3.536-10.932V42.894h-5.759l.994.691-3.532,4.137,1.063.161v9a7.628,7.628,0,0,1-1.4,4.5l3.761-.353L-224.18,73.75l-3.633-.185-18.474.178c-9.1,0-15.488-.451-19.554-1.378a18.866,18.866,0,0,1-6.394-3.4,40.48,40.48,0,0,1-7.97,5.35l-2.959,1.479-2.229-5.814a9.421,9.421,0,0,1-1.2,1.33,10.875,10.875,0,0,1-7.308,2.7c-.591,0-1.691.041-3.378.117q-2.064.092-3.48.092-1.063,0-3.25-.123l-3.444-.208a9.685,9.685,0,0,1-3.528-.874,8.9,8.9,0,0,1-2.784-2.051,8.7,8.7,0,0,1-1.808-3.081,11.089,11.089,0,0,1-.561-3.59V57.4h-.763a21.038,21.038,0,0,1-8.358,11.645,33.87,33.87,0,0,1-16.833,5.869l-2.4.214-3.878-12.242,3.538-.476a25.936,25.936,0,0,0,10.048-3.276,10.934,10.934,0,0,0,2.215-1.734h-8.024V16.289h50.467V53.671l6.484,1V61a21.648,21.648,0,0,0,3.622-2.155V47.779h-5.8V35.473h7.209l-.152-.378q-.706-1.75-2.984-5.98-2.3-4.287-3.526-6.176l-2.039-3.129Zm31.813,6.382h-1.4V56.354A2.711,2.711,0,0,0-243.6,58.3a2.3,2.3,0,0,0,1.412.84,30.4,30.4,0,0,0,4.843.281c4.235,0,5.492-.357,5.777-.466a3.159,3.159,0,0,0,1.416-.964,1.665,1.665,0,0,0,.346-1.106V53.5l-.077.091-.193-.156-.146,2.491-1.334,1.688a5,5,0,0,1-3.055,1.267q-.986.087-1.817.085c-2.314,0-3.513-.213-4.424-.786a4.206,4.206,0,0,1-1.922-3.665Zm-10.48.355h-1.164V42.4l1.1-.52-1.808,6.355a16.8,16.8,0,0,1-4.257,7.4A23.742,23.742,0,0,1-263.7,58.99l.38.578c3.551-1.791,6.053-3.877,7.452-6.218,1.732-2.9,2.61-6.707,2.61-11.324Zm-19.4,7.764c-1.583-2.932-2.986-5.353-4.2-7.24l-1.5.565q.84,1.485,1.886,3.433,1.225,2.282,2.032,3.909Zm-23.472-7.231H-334.59V51.4h10.562l-.734,3.6a13.958,13.958,0,0,1-6.9,9.262,29.566,29.566,0,0,1-8.873,3.471l.29.914a26.941,26.941,0,0,0,11.523-4.5A15.118,15.118,0,0,0-322.251,53.9l.424-2.5h11.691V64.289a5.137,5.137,0,0,0,.238,1.65,2.709,2.709,0,0,0,.56.975,2.888,2.888,0,0,0,.917.673,3.721,3.721,0,0,0,1.342.311l3.42.206c1.3.074,2.264.113,2.9.113q1.307,0,3.211-.086,2.737-.123,3.568-.121a4.964,4.964,0,0,0,3.33-1.12,2.968,2.968,0,0,0,1.012-2.364V59.816l-1.028-.158q-.056.866-.141,1.612c-.2,1.788-.538,3.175-1.5,4.134a5.253,5.253,0,0,1-2.155,1.318,12.912,12.912,0,0,1-2.9.425c-1.25.1-2.166.142-2.748.142-.561,0-1.467-.045-2.719-.142-1.978-.153-3.19-.586-4.05-1.447a4.527,4.527,0,0,1-1.323-3.276V51.4h12.079Zm151.653.462-2.221-.072q-.184,3.236-.583,6.242l-.346,2.6h-9.99V32.6h9.845l-.8,3.641c-2.083,9.528-5.488,17.647-10.138,24.187l1.607,1.159A65.771,65.771,0,0,0-146,35.05l.458-2.449h13.465V31.525H-145.37l.4-3.358Q-144.661,25.629-144.47,22.751Zm-24.883,12.92h-9.5v-3q0-4.956-.272-9.288l-2.694.165q.311,4.737.379,9.075l.048,3.047H-207.78V24.006h-2.793V35.67h-8.674v1.224h8.674V57.479c0,3.138.663,5.456,1.97,6.89A9.773,9.773,0,0,0-202.87,67.3a97.631,97.631,0,0,0,15.083.8q5.407,0,12.6-.226V66.207c-3.635.247-7.59.371-11.8.371q-5.591,0-10.25-.241c-9.606-.523-10.543-6.223-10.543-8.651V36.894H-181.4l-.1,3.1q-.092,2.731-.353,5.4c-.18,1.837-.306,2.94-.369,3.309l-.173,1.008-1.212,1.551a4.359,4.359,0,0,1-3.023,1.133c-.879,0-2.015-.257-4.7-1.51a28.762,28.762,0,0,1-3.142-1.722l-.674,1.124a29.075,29.075,0,0,0,4.625,2.947,12.548,12.548,0,0,0,5.432,1.627,5.026,5.026,0,0,0,3.238-.88,5.275,5.275,0,0,0,1.678-2.73c.248-.87.73-3.524,1.178-11.528l.158-2.833h9.488Zm-61.62-10.2-.792-.606a61.816,61.816,0,0,1-5.62,5.645l.419.45A53.553,53.553,0,0,0-230.973,25.469ZM-108.8,37.43a91.7,91.7,0,0,0-6.854-6.465,67.7,67.7,0,0,0-7.251-5.533l-1.018,1.127c1.893,1.4,4.044,3.185,6.5,5.389,2.745,2.465,5.074,4.725,6.954,6.748Zm-151.586-2.87a80.431,80.431,0,0,0-2.734-8.065l-.921.291c.953,2.573,1.865,5.278,2.725,8.088Zm168.76-6.735h-2.953q-.148,2.915-.547,7.169-.634,6.4-.638,9.637a32.609,32.609,0,0,0,4.182,16.625c2.5,4.305,5.248,6.4,8.39,6.4a3.615,3.615,0,0,0,2.919-1.383,32.744,32.744,0,0,0,4.139-6.833q1.667-3.424,2.826-6.393l-1.68-.84c-4.039,10.356-6.244,12.36-8.914,12.36-3.117,0-5.03-3.331-6.634-6.931A32.254,32.254,0,0,1-93.09,44.453,89.511,89.511,0,0,1-92.3,34.261Q-91.847,30.42-91.626,27.825Zm-33.3,5.576q-.6-.49-1.158-.935V33.4Zm-142.491,2.072q-.214-.678-.431-1.348l-3.593,1.348ZM-130.244,38.6H-140.6a74.618,74.618,0,0,1-4.536,14.042q.485-.406,1.021-.779a20.286,20.286,0,0,1,11.839-3.425q1.045,0,2.033.045Zm-135.62,2.09-.331-1.158q-.092-.321-.184-.641v1.965ZM-122.073,39.4h-2.171V55.218l-3.419-.482a33.151,33.151,0,0,0-4.614-.3,14.238,14.238,0,0,0-8.41,2.348,6.1,6.1,0,0,0-2.859,5.369,5.221,5.221,0,0,0,2.572,4.727,14.522,14.522,0,0,0,8.165,2.1c5.218,0,7.61-1.009,8.7-1.855,1.372-1.067,2.039-2.781,2.039-5.241V56.773l4.465,2.5a61.535,61.535,0,0,1,7.752,5.35l.931-1.4a63.511,63.511,0,0,0-11.278-6.46l-1.871-.76Zm-108.136,5.334q-4.211-2.9-7.19-4.841l-.281.343q3.8,2.6,7,5.051Zm-42.17-3.262h-7.441v.306h5.8v19.9l-1.058.9a27.012,27.012,0,0,1-5.372,3.539l.449,1.17a41.042,41.042,0,0,0,5.889-4.7l2.027-1.925a8.1,8.1,0,0,1-.3-2.206V43.193l-.212-.662.212-.053Zm74.669,1.421h-4.07v6.784Zm10.046,0h-5.366A25.1,25.1,0,0,0-188.8,45.45c.333.155.623.286.875.4.025-.3.059-.647.1-1.032Q-187.734,43.857-187.664,42.894ZM-264.823,47.1q2.8-1.113,5.531-2.4l.23-.108q-3.116,1.24-5.89,2.107Zm28.971,1.8q-.455-.338-.921-.68v4.747c.211,0,.457,0,.714,0Zm48.025,11.677a21.538,21.538,0,0,1-5.422-1.993,35.691,35.691,0,0,1-7.807-5.428l-.723-.659v5.191c0,1.015,0,2.406,3.95,2.63C-194.221,60.486-191.122,60.565-187.827,60.577Zm-60.7,1.162a8.845,8.845,0,0,1-1.645-5.385V55.47q-.258.489-.538.958a19.424,19.424,0,0,1-4.681,5.207Q-252.707,61.708-248.53,61.739ZM-296.578,57.4H-302.2v3.992a13.03,13.03,0,0,1,2.092-.1c.484,0,1.245-.044,2.284-.124.39-.03.721-.058.992-.087.021-.138.042-.3.064-.49Q-296.613,59.226-296.578,57.4ZM-20.644,20.907H-3.7L-5.077,57.825h1.03v13.7H-20.261v-13.7h1.032Zm10.72,6H-14.41l.984,25.648h2.542Zm-.123,36.918h-4.214v1.7h4.214ZM-58.093,21.356l1.528,1.7C-47,33.7-42.149,46.976-42.149,62.512v2.817l-14.911.941v-3.2a53.968,53.968,0,0,0-3.035-17.5A47.407,47.407,0,0,0-68.269,30.56l-2.415-2.909ZM-48.208,59.7c-.511-11.981-4.317-22.358-11.339-30.909l-1.832.916a55.486,55.486,0,0,1,6.96,13.921,61.015,61.015,0,0,1,3.267,16.257ZM-332.389,22.417h34.066V51.391h-34.066ZM-132.277,54.8a27.286,27.286,0,0,1,5.656.569l2.376.505V61.92c0,1.516-.562,6.464-7.8,6.464-8.612,0-9.9-4.217-9.9-6.73a6.032,6.032,0,0,1,3.587-5.49A13.068,13.068,0,0,1-132.277,54.8Zm2.065,6.09c-.67-.06-1.36-.09-2.065-.09a7.181,7.181,0,0,0-3.311.684c-.375.207.34.895,3.548.895a3.529,3.529,0,0,0,1.842-.3Z" transform="translate(960 12622.998)" fill="#0272be"/>
    <path id="パス_1331" data-name="パス 1331" d="M-337.366-36.455a28.977,28.977,0,0,0-4.278,1.11q-2.354.785-3.863,1.465T-356.7-28.461l-3.641-5.211q1.125-.474,6.868-3.2-8.763.089-26.319.711l-.237-7.342q8.408-.3,32.033-.3,5.447,0,7.875.03Zm2.191,37.6a178.743,178.743,0,0,1-21.2,1.421q-15.72,0-21.671-3.138t-5.951-9.266q0-7.727,8.2-13.944l5.891,4.411q-5.625,5.359-5.625,8.793a4.584,4.584,0,0,0,.355,1.85,4.106,4.106,0,0,0,1.732,1.643,14.868,14.868,0,0,0,5.018,1.362,68.273,68.273,0,0,0,9.237.563h2.161a139.765,139.765,0,0,0,20.546-1.6Zm34.431,2.1-2.191-7.4q11.753-1.3,17.674-5.418t5.921-12.286q0-6.839-4.263-10.969t-11.812-4.84q-.622,16.579-6.2,26.867T-315.665-.514q-5.507,0-8.911-5.2a21.2,21.2,0,0,1-3.4-11.887v-.74q0-10.243,8.245-18.133t20.8-8.482h1.214q11.99,0,19.7,6.084t7.712,16.535q0,11.457-7.771,17.941T-300.744,3.246Zm-2.99-40.056a21.007,21.007,0,0,0-11.324,6.987,17.92,17.92,0,0,0-4.663,11.961,16.365,16.365,0,0,0,1.155,6.217Q-317.412-8.8-315.34-8.8q4.174,0,7.579-8.112T-303.734-36.81ZM-231.912-21a21.956,21.956,0,0,1-6.38,16q-6.38,6.5-18.252,8.926l-2.99-7.342q8.556-1.717,13.692-6.084A14.275,14.275,0,0,0-240.734-21h-24.839v-7.638h24.839v-7.993q-7.52.74-18.622.977L-260.866-43q26.556-.651,40.944-5.951l5.329,6.306a81.323,81.323,0,0,1-17.349,4.766v9.237h21.582V-21Zm53.378,24.572-7.372.829-5.743-28.747L-201.8-22.925l-1.036-6.691,9.888-1.3-2.013-10.1,7.224-.77,2.013,9.918,27.207-3.612,3.582,2.842a47.517,47.517,0,0,1-15.572,22.115l-5.033-4.589a42.67,42.67,0,0,0,10.658-12.967l-19.51,2.724Zm65.753-38.1-5.418,7.342q-4.382-2.812-7.771-4.737t-15.321-7.934l4.678-6.78A193.049,193.049,0,0,1-112.78-34.531Zm24.01,7.224Q-96.29-13.422-108.4-6.139T-139.04,2.95l-2.013-8.289a80.015,80.015,0,0,0,16.875-3.079,44.576,44.576,0,0,0,11.827-5.669,59.681,59.681,0,0,0,8.645-7.135,57.693,57.693,0,0,0,7.831-10.821ZM-27.547-2.5l-6.661,6.365q-5.24-5.714-20.25-18.622a90.2,90.2,0,0,1-27.711,18.8l-4.322-6.987A82.663,82.663,0,0,0-64.45-17.211,61.714,61.714,0,0,0-48.6-37.935l-29.99-.03v-7.757h38.9l2.428,2.339a57.1,57.1,0,0,1-4.84,12.36,73.821,73.821,0,0,1-6.854,9.962Q-36.162-10.669-27.547-2.5ZM34.091-6.021,29.3.759a56.168,56.168,0,0,0-8.556-6.632A8.873,8.873,0,0,1,17.616.789q-2.827,2.28-10.5,2.28A15.744,15.744,0,0,1-2.2.389,8.447,8.447,0,0,1-5.994-6.879a8.959,8.959,0,0,1,3.819-7.475,14.55,14.55,0,0,1,9.03-2.887,50.1,50.1,0,0,1,5.477.355V-30.119H-6.882v-7.342H12.332V-48.208H20.8v10.747H31.841v7.342H20.8v15.78A57.294,57.294,0,0,1,34.091-6.021ZM12.332-7.708V-9.781A14.948,14.948,0,0,0,6.855-10.7a6.326,6.326,0,0,0-3.449.962,2.872,2.872,0,0,0-1.525,2.5A2.672,2.672,0,0,0,3.45-4.822a7.427,7.427,0,0,0,3.671.873Q12.332-3.948,12.332-7.708Zm-22.2-38.812Q-13.514-33.346-13.514-23.7a92.823,92.823,0,0,0,3.4,24.9l-8.319,1.687a97.067,97.067,0,0,1-3.257-24.484,107.013,107.013,0,0,1,3.464-26.082ZM-319.293,54.4a18.138,18.138,0,0,1-7.7,12.2,30.779,30.779,0,0,1-15.365,5.329l-2.072-6.543A28.754,28.754,0,0,0-333.223,61.7a11.031,11.031,0,0,0,5.521-7.3h-9.888V19.289h44.467V54.4H-305.2v8.023a1.562,1.562,0,0,0,.444,1.155,3.805,3.805,0,0,0,2.161.577q1.717.133,2.487.133.8,0,2.516-.133a12.7,12.7,0,0,0,2.235-.3,2.273,2.273,0,0,0,.933-.577,4.745,4.745,0,0,0,.637-2.354,42.765,42.765,0,0,0,.222-4.752l6.928,1.066v7.283a5.946,5.946,0,0,1-1.984,4.574,7.943,7.943,0,0,1-5.359,1.91q-.8,0-3.434.118-1.984.089-3.345.089-1.007,0-3.079-.118l-3.434-.207A6.653,6.653,0,0,1-309.7,70.3a5.885,5.885,0,0,1-1.85-1.362,5.7,5.7,0,0,1-1.184-2.028,8.068,8.068,0,0,1-.4-2.62V54.4Zm17.97-24.72V25.417h-28.066V29.68Zm-28.066,9.326h28.066V34.891h-28.066Zm28.066,5.211h-28.066v4.174h28.066Zm75.553-.059-4.5,5.27q-4.145-3.345-9.5-6.987V54.519a1.223,1.223,0,0,0,.518,1.125,7.025,7.025,0,0,0,2.827.326q.71,0,1.554-.074a2.087,2.087,0,0,0,1.273-.474,1.3,1.3,0,0,0,.459-.873q.03-.474.148-2.709t.118-2.294l6.069.918v6.424a4.665,4.665,0,0,1-.977,2.946,6.106,6.106,0,0,1-2.709,1.924q-1.732.666-6.854.666A33.3,33.3,0,0,1-242.7,62.1a5.291,5.291,0,0,1-3.168-1.836,5.769,5.769,0,0,1-1.3-3.908V18.4h7.4V28.614a54.233,54.233,0,0,0,7.52-7.9l5.684,4.352a56.362,56.362,0,0,1-10.776,9.888l-2.428-2.605v5.714l1.747-2.132Q-233.734,38.621-225.77,44.157ZM-268.4,31.131l-7.579,2.842q-.74-1.836-3.123-6.276t-3.656-6.395l7.076-2.664A111.325,111.325,0,0,1-268.4,31.131Zm10.391,16.283q-4.263,2.013-8.7,3.612l-2.043-6.365a76.4,76.4,0,0,0,11.339-4V36.726l-5.891,1.984a143.186,143.186,0,0,0-4.678-13.826l6.572-2.072a82,82,0,0,1,4,11.22V18.756h7.164v23.27q0,7.786-3.035,12.863t-11.117,8.482l-3.582-5.447a23.739,23.739,0,0,0,6.484-4.411A13.779,13.779,0,0,0-258.011,47.414Zm32.773,16.993-1.332,6.188q-.474-.03-1.243-.03l-18.5.178q-13.145,0-18.859-1.3a13.033,13.033,0,0,1-6.868-4.678,39.822,39.822,0,0,1-9.5,6.868l-2.724-7.105a24.689,24.689,0,0,0,7.253-4.234V44.779h-5.8V38.473h13.441V58.456a4.492,4.492,0,0,0,1.51,3.493,7.892,7.892,0,0,0,3.36,1.836,35.386,35.386,0,0,0,5.965.725q4.115.252,17.141.252Q-229.027,64.762-225.238,64.407Zm53.053,6.365q-9.089.326-15.6.326a99.52,99.52,0,0,1-15.617-.844,12.765,12.765,0,0,1-7.416-3.863q-2.753-3.02-2.753-8.911V39.894h-8.674V32.67h8.674V21.006h8.793V32.67h20.339q-.089-5.625-.592-11.931l8.674-.533q.5,5.655.5,12.464h9.5v7.224H-176q-.533,9.533-1.288,12.183a8.243,8.243,0,0,1-2.65,4.219,7.833,7.833,0,0,1-5.151,1.569,15.335,15.335,0,0,1-6.794-1.954,32.538,32.538,0,0,1-7.15-4.974l3.641-6.069a28.676,28.676,0,0,0,5.329,3.3,11.367,11.367,0,0,0,3.434,1.229,1.408,1.408,0,0,0,.992-.34,1.469,1.469,0,0,0,.459-.859q.089-.518.34-3.094t.34-5.211h-20.28V57.687q0,5.24,6.78,5.625l.918.03q4.589.237,10.1.237,8.171,0,14.8-.622Zm30.878-50.921q-.207,4.737-.681,8.674h12.908V35.6h-13.974a67.857,67.857,0,0,1-13.411,30.138l-6.484-4.678q8.053-9.888,11.457-25.461h-9.118V28.525h10.362a83.969,83.969,0,0,0,.681-8.941Zm36.918,18-6.484,4.914a88.5,88.5,0,0,0-8.556-8.586,65.2,65.2,0,0,0-9.03-7.076l4.974-5.507a59.218,59.218,0,0,1,9.785,7.09A84.082,84.082,0,0,1-104.389,37.851Zm-.414,24.6-4.382,6.572a70.321,70.321,0,0,0-9.888-7.135q0,5.122-3.2,7.609t-10.539,2.487a17.354,17.354,0,0,1-9.829-2.605,8.223,8.223,0,0,1-3.908-7.224,9.063,9.063,0,0,1,4.145-7.831,17.277,17.277,0,0,1,10.125-2.887,36.147,36.147,0,0,1,5.033.326V36.4h8.171V53.986Q-113.389,56.3-104.8,62.453Zm-22.441-4.145a24.176,24.176,0,0,0-5.033-.5,10.069,10.069,0,0,0-4.692,1.021,3.122,3.122,0,0,0-1.969,2.827q0,3.73,6.9,3.73,4.8,0,4.8-3.464Zm57.671-6.75a79.479,79.479,0,0,1-3.863,9.192,35.326,35.326,0,0,1-4.574,7.49,6.606,6.606,0,0,1-5.181,2.413q-6.395,0-10.984-7.89a35.4,35.4,0,0,1-4.589-18.133q0-3.345.651-9.918.622-6.6.622-9.888h9.059q-.089,2.99-.888,9.8a86.593,86.593,0,0,0-.77,9.829A29.157,29.157,0,0,0-87.8,56.414q2.294,5.151,3.893,5.151,2.309,0,7.283-13.53Zm24.424,10.954-8.911.563a56.7,56.7,0,0,0-3.2-18.474,50.154,50.154,0,0,0-8.7-15.957l7.164-3.582Q-45.149,40.249-45.149,62.512ZM-6.81,23.907-7.994,55.555h-8.319l-1.214-31.648Zm-.237,44.615H-17.261v-7.7H-7.047Z" transform="translate(960 12622.998)" fill="#fff"/>
    <path id="パス_1331_-_アウトライン" data-name="パス 1331 - アウトライン" d="M-219.766-49.539l5.992,7.09-.622.266a81.312,81.312,0,0,1-17.045,4.725v8.319h21.582V-20.5h-21.557a23.838,23.838,0,0,1-1.626,8.437,22.431,22.431,0,0,1-4.893,7.415,28.57,28.57,0,0,1-7.89,5.58,44.548,44.548,0,0,1-10.618,3.486l-.407.083-3.375-8.286.593-.119c5.593-1.123,10.124-3.133,13.467-5.975a13.7,13.7,0,0,0,3.712-4.881,14.9,14.9,0,0,0,1.214-5.74h-24.834v-8.638h24.839v-6.943c-4.91.463-11,.775-18.111.926l-.417.009-1.714-8.336.6-.015a199.549,199.549,0,0,0,23.454-1.808,87.19,87.19,0,0,0,17.329-4.112Zm4.351,6.7-4.663-5.518a89.1,89.1,0,0,1-17.2,4.043,198.933,198.933,0,0,1-22.976,1.8l1.306,6.349c7.174-.16,13.284-.485,18.167-.966l.549-.054v9.045h-24.839V-21.5h24.837l0,.5a14.814,14.814,0,0,1-5.283,11.885,30.008,30.008,0,0,1-13.327,6.07l2.606,6.4a43.158,43.158,0,0,0,9.973-3.32,27.575,27.575,0,0,0,7.616-5.382,21.436,21.436,0,0,0,4.677-7.084A23.035,23.035,0,0,0-232.412-21v-.5h21.553v-6.638h-21.582V-38.295l.412-.074A83.547,83.547,0,0,0-215.415-42.841ZM11.832-48.708H21.3v10.747H32.341v8.342H21.3v14.951A58.547,58.547,0,0,1,34.406-6.409l.364.295-5.4,7.627-.418-.387a57.357,57.357,0,0,0-7.8-6.143A9.1,9.1,0,0,1,17.93,1.178c-1.995,1.608-5.53,2.39-10.809,2.39A16.3,16.3,0,0,1-2.493.8a8.958,8.958,0,0,1-4-7.676,9.473,9.473,0,0,1,4.018-7.874,15.1,15.1,0,0,1,9.331-2.988,48.8,48.8,0,0,1,4.977.3V-29.619H-7.382v-8.342H11.832Zm8.467,1H12.832v10.747H-6.382v6.342H12.832v14.293l-.556-.062a49.842,49.842,0,0,0-5.421-.352,14.125,14.125,0,0,0-8.728,2.785,9.246,9.246,0,0,0-2.721,3.141,8.563,8.563,0,0,0-.9,3.936A8.305,8.305,0,0,0-4.6-3,8.48,8.48,0,0,0-1.916-.019,15.327,15.327,0,0,0,7.121,2.568c4.971,0,8.4-.73,10.181-2.169a8.433,8.433,0,0,0,2.938-6.306l.056-.827L21-6.3a56.168,56.168,0,0,1,8.213,6.3l4.2-5.932A56.534,56.534,0,0,0,20.6-13.88l-.3-.13V-30.619H31.341v-6.342H20.3Zm-38.9-.524,9.358,1.294-.152.55c-2.4,8.7-3.623,16.333-3.623,22.692A92.754,92.754,0,0,0-9.627,1.069l.143.517-9.309,1.888-.119-.458a98.02,98.02,0,0,1-3.273-24.609,108.011,108.011,0,0,1,3.479-26.2Zm8.091,2.129-7.34-1.015a106.652,106.652,0,0,0-3.34,25.525,96.812,96.812,0,0,0,3.122,23.9l7.33-1.487a93.718,93.718,0,0,1-3.281-24.514A87.529,87.529,0,0,1-10.505-46.1ZM-136.8-47.251l.37.147a194.446,194.446,0,0,1,23.9,12.14l.484.28-6.028,8.169-.394-.253c-2.9-1.862-5.507-3.451-7.748-4.723s-7.389-3.938-15.3-7.923l-.512-.258Zm23.283,12.874a194.234,194.234,0,0,0-22.913-11.649l-4.125,5.979c7.635,3.849,12.623,6.435,14.83,7.688,2.154,1.223,4.642,2.735,7.4,4.5Zm34.429-11.844h39.6l2.789,2.686-.081.288a57.866,57.866,0,0,1-4.886,12.47,73.948,73.948,0,0,1-6.589,9.642C-39.922-14.356-32.842-8.209-27.2-2.86l.381.361-7.41,7.081-.345-.376C-38,.472-44.682-5.678-54.439-14.078A102.092,102.092,0,0,1-67.677-3.29a81.964,81.964,0,0,1-14.3,7.8l-.394.165-4.853-7.844.535-.228A82.55,82.55,0,0,0-64.78-17.587a69.254,69.254,0,0,0,9.263-9.831,55.728,55.728,0,0,0,6.139-10.018l-29.708-.029Zm39.2,1h-38.2v6.757l30.266.03-.321.706a56.439,56.439,0,0,1-6.582,10.918,70.259,70.259,0,0,1-9.4,9.975A83.992,83.992,0,0,1-85.761-2.712l3.792,6.13a81.17,81.17,0,0,0,13.73-7.536,101.419,101.419,0,0,0,13.433-11l.328-.317.346.3c9.654,8.3,16.36,14.451,19.946,18.288L-28.272-2.5c-5.645-5.329-12.705-11.442-20.994-18.176l-.386-.314.312-.388a73.68,73.68,0,0,0,6.808-9.894A56.322,56.322,0,0,0-37.82-43.231Zm-259.063-.23h1.226a37.575,37.575,0,0,1,11.068,1.543,27.422,27.422,0,0,1,8.944,4.648,20.279,20.279,0,0,1,5.928,7.357,22.483,22.483,0,0,1,1.975,9.57,26.082,26.082,0,0,1-1.984,10.413,21.242,21.242,0,0,1-5.967,7.912,30.016,30.016,0,0,1-9.712,5.241,55.06,55.06,0,0,1-13.233,2.512l-.4.031-2.475-8.362.594-.066c7.715-.855,13.584-2.649,17.444-5.331a12.7,12.7,0,0,0,4.276-4.936,15.892,15.892,0,0,0,1.431-6.94,16.475,16.475,0,0,0-1.032-5.98,12.923,12.923,0,0,0-3.079-4.629,15.437,15.437,0,0,0-4.926-3.172,22.679,22.679,0,0,0-6.06-1.476,80.47,80.47,0,0,1-1.852,14.567,47.638,47.638,0,0,1-4.389,11.987,23.438,23.438,0,0,1-6.446,7.881,13.361,13.361,0,0,1-8.041,2.669c-3.833,0-6.972-1.824-9.329-5.422A21.785,21.785,0,0,1-328.481-17.6v-.74a23.655,23.655,0,0,1,2.106-9.862,28.207,28.207,0,0,1,6.293-8.632A30.117,30.117,0,0,1-310.6-43a35.14,35.14,0,0,1,11.641-2.453Zm-1.43,48.166A53.579,53.579,0,0,0-287.792.285,29.025,29.025,0,0,0-278.4-4.776a20.249,20.249,0,0,0,5.69-7.542,25.092,25.092,0,0,0,1.9-10.015,21.493,21.493,0,0,0-1.881-9.148,19.288,19.288,0,0,0-5.641-6.994,26.425,26.425,0,0,0-8.619-4.478,36.58,36.58,0,0,0-10.773-1.5h-1.2a34.139,34.139,0,0,0-11.3,2.379,29.121,29.121,0,0,0-9.165,5.964,27.213,27.213,0,0,0-6.074,8.324,22.662,22.662,0,0,0-2.016,9.448v.74a20.8,20.8,0,0,0,3.323,11.612,11.547,11.547,0,0,0,3.764,3.739,9.256,9.256,0,0,0,4.729,1.231,12.381,12.381,0,0,0,7.45-2.475,22.463,22.463,0,0,0,6.158-7.551,46.639,46.639,0,0,0,4.293-11.735,80.172,80.172,0,0,0,1.849-14.912l.02-.529.527.05c5.125.482,9.2,2.158,12.114,4.979A15.116,15.116,0,0,1-278.84-21.86a16.877,16.877,0,0,1-1.53,7.374,13.682,13.682,0,0,1-4.606,5.323,27.1,27.1,0,0,1-7.518,3.479,56.414,56.414,0,0,1-9.793,1.957ZM-347.994-44.3c3.615,0,6.267.01,7.881.03l.341,0,3.088,8.2-.6.1a28.619,28.619,0,0,0-4.2,1.092c-1.546.515-2.829,1-3.816,1.447s-4.759,2.271-11.177,5.411l-.384.188-4.241-6.068.57-.24c.594-.25,2.2-.991,4.773-2.206-5.748.091-13.807.319-24.012.68l-.5.018-.269-8.342.5-.018C-374.46-44.2-363.676-44.3-347.994-44.3Zm7.527,1.026c-1.632-.017-4.161-.026-7.527-.026-15.216,0-25.813.094-31.517.279l.2,6.342c11.406-.4,20.1-.635,25.83-.693l.219.952c-3.168,1.5-5.252,2.478-6.324,2.959l3.047,4.36c6.194-3.03,9.833-4.791,10.82-5.236,1.018-.459,2.333-.958,3.911-1.484a31.244,31.244,0,0,1,3.757-1.019Zm153.125.942,2.011,9.906L-158.376-36l4.022,3.191-.11.332a46.232,46.232,0,0,1-6.091,12.1,51.862,51.862,0,0,1-9.64,10.247l-.334.273-5.781-5.271.45-.366a42.207,42.207,0,0,0,10.05-11.946L-183.8-24.931l5.865,28.938-8.371.941-5.741-28.734-10.175,1.424-1.19-7.683,9.866-1.3-2.016-10.109Zm1.217,11.02-2.016-9.929-6.227.664,2.01,10.082-9.911,1.306.882,5.7,10.134-1.418L-185.5,3.852l6.373-.717-5.859-28.91,21.015-2.934-.47.87a43.436,43.436,0,0,1-10.335,12.748l4.287,3.909a50.684,50.684,0,0,0,9.122-9.774,45.223,45.223,0,0,0,5.848-11.506l-3.141-2.492ZM-303.2-37.45l-.035.666c-.416,7.876-1.783,14.626-4.065,20.062a21.3,21.3,0,0,1-3.693,6.232A5.971,5.971,0,0,1-315.34-8.3c-1.6,0-2.84-1.061-3.69-3.154a16.938,16.938,0,0,1-1.191-6.405,18.485,18.485,0,0,1,4.784-12.287A21.591,21.591,0,0,1-303.849-37.3ZM-315.34-9.3c2.549,0,4.944-2.626,7.118-7.805a58.737,58.737,0,0,0,3.95-19.05,20.183,20.183,0,0,0-5.361,2.306,21.772,21.772,0,0,0-5.046,4.356,19.321,19.321,0,0,0-3.41,5.554,16.668,16.668,0,0,0-1.132,6.08,15.945,15.945,0,0,0,1.118,6.029C-317.412-10.131-316.508-9.3-315.34-9.3Zm219.3-23.449,7.924,5.282-.217.4a60.449,60.449,0,0,1-8.74,12.336,50.868,50.868,0,0,1-11.07,9.022A59.862,59.862,0,0,1-121.971.254a91.317,91.317,0,0,1-17.021,3.193l-.432.042-2.252-9.275.578-.052a79.905,79.905,0,0,0,16.768-3.057,44.286,44.286,0,0,0,11.7-5.6,59.461,59.461,0,0,0,8.572-7.074A57.494,57.494,0,0,0-96.306-32.3Zm6.608,5.607-6.287-4.191a57.152,57.152,0,0,1-7.634,10.464,60.46,60.46,0,0,1-8.717,7.2,45.281,45.281,0,0,1-11.959,5.734A79.694,79.694,0,0,1-140.431-4.9l1.774,7.3A89.844,89.844,0,0,0-122.256-.7a58.865,58.865,0,0,0,13.6-5.863A49.869,49.869,0,0,0-97.8-15.412,59.214,59.214,0,0,0-89.429-27.145ZM-375.8-24.41l6.666,4.991-.428.408c-3.63,3.458-5.47,6.294-5.47,8.431a4.11,4.11,0,0,0,.314,1.65,3.739,3.739,0,0,0,1.532,1.415,14.546,14.546,0,0,0,4.833,1.3,68.118,68.118,0,0,0,9.167.557h2.159a139.917,139.917,0,0,0,20.472-1.593l.487-.072,1.468,8.906-.518.063a180.085,180.085,0,0,1-21.257,1.425,95.689,95.689,0,0,1-13.35-.79,27.229,27.229,0,0,1-8.555-2.406c-4.126-2.176-6.217-5.442-6.217-9.709a14.836,14.836,0,0,1,2.119-7.6,23.875,23.875,0,0,1,6.279-6.74Zm5.123,5.085-5.118-3.832a22.569,22.569,0,0,0-5.723,6.221,13.849,13.849,0,0,0-1.981,7.1,9.291,9.291,0,0,0,1.408,5.111,11.089,11.089,0,0,0,4.275,3.714c3.876,2.044,11.089,3.08,21.438,3.08A177.766,177.766,0,0,0-335.753.709l-1.138-6.9a140.452,140.452,0,0,1-20.133,1.532h-2.161a69.1,69.1,0,0,1-9.309-.568,15.121,15.121,0,0,1-5.2-1.428A4.515,4.515,0,0,1-375.63-8.53a5.1,5.1,0,0,1-.4-2.05C-376.027-12.944-374.274-15.808-370.672-19.325ZM6.855-11.2a15.509,15.509,0,0,1,5.66.952l.317.125v2.413a3.737,3.737,0,0,1-1.51,3.225,7.17,7.17,0,0,1-4.2,1.035,7.953,7.953,0,0,1-3.914-.936,3.15,3.15,0,0,1-1.826-2.85,3.355,3.355,0,0,1,1.758-2.924A6.847,6.847,0,0,1,6.855-11.2Zm4.977,1.765A14.882,14.882,0,0,0,6.855-10.2a5.863,5.863,0,0,0-3.182.885A2.385,2.385,0,0,0,2.381-7.235,2.189,2.189,0,0,0,3.693-5.259a6.969,6.969,0,0,0,3.428.81,6.244,6.244,0,0,0,3.615-.845,2.756,2.756,0,0,0,1.1-2.414ZM-247.675,17.9h8.4v9.6a52.424,52.424,0,0,0,6.621-7.092l.3-.4,6.5,4.979-.345.4a57.124,57.124,0,0,1-10.873,9.975l-.355.243-1.855-1.991v3.045l1.139-1.39.373.234c2.855,1.792,6.985,4.565,12.276,8.243l.453.315-4.662,5.459,3.387.512v6.854a5.174,5.174,0,0,1-1.082,3.252,6.625,6.625,0,0,1-2.924,2.084c-1.224.471-3.524.7-7.033.7a33.912,33.912,0,0,1-5.445-.333,5.8,5.8,0,0,1-3.46-2,6.278,6.278,0,0,1-1.424-4.235Zm7.4,1h-6.4V56.354a5.312,5.312,0,0,0,1.181,3.581,4.764,4.764,0,0,0,2.875,1.67,33,33,0,0,0,5.273.318c3.337,0,5.583-.213,6.674-.633a5.643,5.643,0,0,0,2.493-1.764,4.142,4.142,0,0,0,.872-2.639V50.893l-5.1-.771c-.017.337-.046.876-.092,1.744-.08,1.507-.128,2.4-.148,2.714a1.785,1.785,0,0,1-.617,1.208,2.574,2.574,0,0,1-1.57.606c-.574.05-1.112.076-1.6.076-2.174,0-2.8-.215-3.093-.4a1.7,1.7,0,0,1-.752-1.548V41.5l.781.531c3.4,2.314,6.483,4.568,9.157,6.707l3.826-4.481c-4.837-3.358-8.671-5.934-11.411-7.667l-2.354,2.872V31.074l3,3.218a56.137,56.137,0,0,0,9.98-9.157l-4.866-3.726a55.9,55.9,0,0,1-7.283,7.58l-.83.727Zm9.027,30.385c-2.379-1.889-5.073-3.869-8.027-5.9V54.519c0,.469.162.625.284.7a6.367,6.367,0,0,0,2.561.249c.457,0,.966-.024,1.511-.072a1.628,1.628,0,0,0,.976-.342.816.816,0,0,0,.3-.539c.019-.311.069-1.221.148-2.7.093-1.755.116-2.209.118-2.273v-.576ZM-275.5,18.034l.224.312a112.321,112.321,0,0,1,7.32,12.554l.261.5-8.565,3.212-.182-.452c-.484-1.2-1.527-3.3-3.1-6.227s-2.8-5.074-3.635-6.358l-.34-.522Zm6.4,12.827a112.915,112.915,0,0,0-6.763-11.62l-6.138,2.311c.83,1.331,1.952,3.314,3.344,5.907,1.411,2.63,2.4,4.6,2.957,5.876Zm11.188-12.605h8.164v23.77c0,5.258-1.045,9.672-3.105,13.12a17.276,17.276,0,0,1-4.422,4.8,30.813,30.813,0,0,1-6.163,3.554,45.718,45.718,0,0,0,4.932.512c2.721.166,8.478.251,17.111.251,8.2,0,13.619-.119,16.118-.353l.679-.064-1.566,7.275-.429-.027c-.3-.019-.711-.029-1.212-.029l-18.5.178c-8.764,0-15.147-.442-18.974-1.315l-.047-.013a13.962,13.962,0,0,1-6.778-4.4,40.01,40.01,0,0,1-9.212,6.566l-.493.247-3.1-8.088.468-.178a24.374,24.374,0,0,0,6.931-4V45.279h-5.8V37.973h14.441v6.2a75.445,75.445,0,0,0,10.961-3.841V37.422l-5.728,1.929-.144-.5a143.361,143.361,0,0,0-4.661-13.777l-.2-.5,7.513-2.369.181.409a81.6,81.6,0,0,1,3.039,8.009Zm7.164,1h-6.164V34.032l-.982.134a82.106,82.106,0,0,0-3.793-10.742l-5.631,1.776c1.563,3.96,3.025,8.285,4.35,12.87l6.055-2.039v4.963l-.3.13a79.168,79.168,0,0,1-10.9,3.889l1.722,5.366c2.767-1.013,5.514-2.161,8.173-3.417l1-.47-.3,1.059a14.335,14.335,0,0,1-3.621,6.315,23.78,23.78,0,0,1-6.109,4.255l3.042,4.626c5.058-2.19,8.589-4.919,10.5-8.114,1.967-3.29,2.964-7.532,2.964-12.607Zm-19.125,19.717H-282.32v5.306h5.8V60.523l-.176.15a25.156,25.156,0,0,1-6.932,4.137l2.347,6.122a40.127,40.127,0,0,0,8.891-6.532l.422-.4.332.478a12.594,12.594,0,0,0,6.593,4.481c3.758.853,10.057,1.285,18.724,1.285l18.5-.178c.319,0,.6,0,.848.011l1.1-5.116c-2.761.2-7.978.3-15.534.3-8.653,0-14.431-.085-17.172-.253a35.459,35.459,0,0,1-6.059-.74,8.423,8.423,0,0,1-3.571-1.949,4.993,4.993,0,0,1-1.675-3.865Zm2.847,12.7-1.847-5.754V58.456a3.98,3.98,0,0,0,1.345,3.122,7.625,7.625,0,0,0,2.3,1.448l-3.488-5.3.512-.249a23.358,23.358,0,0,0,6.348-4.315,13.041,13.041,0,0,0,3.018-4.808c-2.518,1.153-5.1,2.209-7.706,3.146ZM-338.09,18.789h45.467V54.9H-304.7v7.523a1.073,1.073,0,0,0,.3.8c.073.074.424.322,1.846.432,1.127.087,1.951.132,2.448.132.517,0,1.351-.044,2.478-.132a11.741,11.741,0,0,0,2.124-.275,1.764,1.764,0,0,0,.729-.454c.049-.049.3-.376.493-2.057a42.486,42.486,0,0,0,.219-4.695v-.583l7.928,1.22v7.712a6.454,6.454,0,0,1-2.145,4.942,8.46,8.46,0,0,1-5.684,2.041h-.013c-.523,0-1.671.04-3.412.118-1.324.059-2.457.089-3.368.089-.677,0-1.723-.04-3.107-.119l-3.436-.207a7.183,7.183,0,0,1-2.611-.639,6.408,6.408,0,0,1-2.006-1.477,6.219,6.219,0,0,1-1.288-2.2,8.6,8.6,0,0,1-.427-2.782V54.9h-5.24a19.042,19.042,0,0,1-2.571,6.65,19.4,19.4,0,0,1-5.256,5.455,31.411,31.411,0,0,1-15.61,5.419l-.4.036-2.373-7.493.59-.079a28.394,28.394,0,0,0,11.013-3.618,12.572,12.572,0,0,0,3.543-3.1,9.5,9.5,0,0,0,1.606-3.273h-9.756Zm44.467,1H-337.09V53.9h10l-.122.6a11.557,11.557,0,0,1-5.752,7.625,28.96,28.96,0,0,1-10.81,3.671l1.772,5.6a34.164,34.164,0,0,0,7.808-1.669,27.577,27.577,0,0,0,6.914-3.533,18.406,18.406,0,0,0,4.988-5.173,18.171,18.171,0,0,0,2.506-6.7l.071-.416h7.08V64.289a7.609,7.609,0,0,0,.373,2.458,5.227,5.227,0,0,0,1.08,1.852,5.413,5.413,0,0,0,1.695,1.247,6.188,6.188,0,0,0,2.247.545l3.432.207c1.364.078,2.39.118,3.049.118.9,0,2.014-.03,3.323-.088,1.772-.08,2.9-.119,3.449-.119a7.494,7.494,0,0,0,5.028-1.778,5.42,5.42,0,0,0,1.822-4.206V57.671l-5.93-.912a41.17,41.17,0,0,1-.223,4.226c-.214,1.872-.529,2.4-.78,2.65a2.779,2.779,0,0,1-1.136.7,12.641,12.641,0,0,1-2.346.318c-1.169.091-2,.135-2.555.135-.531,0-1.357-.044-2.526-.135a4.052,4.052,0,0,1-2.476-.722,2.051,2.051,0,0,1-.59-1.508V53.9h12.079Zm143.569-.72,9.269.3-.022.505c-.128,2.933-.336,5.673-.618,8.152h12.846V36.1h-14.06a72.962,72.962,0,0,1-4.924,15.868,65.919,65.919,0,0,1-8.509,14.081l-.3.375-7.3-5.268.335-.411a50.566,50.566,0,0,0,6.822-11.2,71.086,71.086,0,0,0,4.4-13.446h-8.995V28.025h10.423a84.522,84.522,0,0,0,.62-8.453Zm8.225,1.266-7.252-.234a84.233,84.233,0,0,1-.671,8.491l-.058.434h-10.3V35.1h9.24l-.133.607a72.632,72.632,0,0,1-4.6,14.25,51.854,51.854,0,0,1-6.627,11.007l5.667,4.088a64.926,64.926,0,0,0,8.085-13.491,72.122,72.122,0,0,0,4.932-16.053l.076-.408h13.889V29.025h-12.972l.067-.56C-142.188,26.006-141.968,23.273-141.829,20.334Zm-34.075-.657.043.485c.323,3.628.492,7.665.5,12.008h9.5v8.224h-9.679c-.355,6.177-.774,10.045-1.279,11.82a8.77,8.77,0,0,1-2.812,4.467,8.348,8.348,0,0,1-5.47,1.684,15.887,15.887,0,0,1-7.021-2.009,33.191,33.191,0,0,1-7.259-5.049l-.3-.276,4.141-6.9.445.342a28.312,28.312,0,0,0,5.235,3.244,10.382,10.382,0,0,0,3.223,1.182.923.923,0,0,0,.653-.208.975.975,0,0,0,.3-.575c.057-.332.17-1.361.336-3.058.149-1.53.257-3.1.319-4.662H-204.28V57.687a4.425,4.425,0,0,0,1.514,3.642,8.189,8.189,0,0,0,4.788,1.484l.921.03c3.036.157,6.424.236,10.07.236,5.406,0,10.371-.208,14.756-.62l.547-.051v8.847l-.482.017c-6.037.216-11.293.326-15.62.326a100.431,100.431,0,0,1-15.706-.852,13.309,13.309,0,0,1-7.7-4.019c-1.914-2.1-2.884-5.21-2.884-9.248V40.394h-8.674V32.17h8.674V20.506h9.793V32.17h19.33c-.068-3.577-.264-7.407-.582-11.391l-.041-.508Zm9.052,13.493h-9.5v-.5c0-4.31-.154-8.322-.459-11.935l-7.68.472c.311,4.012.5,7.863.554,11.455l.008.508H-205.28V21.506h-7.793V33.17h-8.674v6.224h8.674V57.479c0,3.781.882,6.665,2.623,8.574a12.335,12.335,0,0,0,7.136,3.708,99.628,99.628,0,0,0,15.528.836c4.2,0,9.278-.1,15.1-.308V63.5c-4.28.381-9.088.574-14.3.574-3.66,0-7.063-.08-10.115-.237l-.926-.03A9.131,9.131,0,0,1-203.4,62.1a5.433,5.433,0,0,1-1.876-4.411V39.394h21.3l-.017.517c-.059,1.759-.175,3.523-.343,5.242-.17,1.745-.283,2.769-.345,3.13a1.965,1.965,0,0,1-.613,1.142,1.9,1.9,0,0,1-1.33.472c-.391,0-1.194-.132-3.646-1.275a28.773,28.773,0,0,1-4.975-3.019L-198.4,50.84a32.094,32.094,0,0,0,6.736,4.624,14.925,14.925,0,0,0,6.567,1.9,7.389,7.389,0,0,0,4.832-1.454,7.791,7.791,0,0,0,2.488-3.971c.491-1.723.918-5.785,1.269-12.073l.026-.472h9.624Zm43.261-12.2.346.188a59.977,59.977,0,0,1,9.872,7.15,84.974,84.974,0,0,1,9.366,9.219l.342.4-7.284,5.521-.306-.365a88.443,88.443,0,0,0-8.507-8.534,65.06,65.06,0,0,0-8.954-7.02l-.518-.314Zm18.477,16.8a85.654,85.654,0,0,0-8.911-8.706,60.8,60.8,0,0,0-9.353-6.841L-127.686,27a70.309,70.309,0,0,1,8.591,6.813,92.463,92.463,0,0,1,8.3,8.273Zm87.068-14.366H-6.291L-7.513,56.055h-9.282l-.018-.481Zm10.718,1h-9.679l1.175,30.648h7.356Zm-90.662-.082h10.074l-.015.515c-.059,2-.359,5.31-.891,9.843a86.575,86.575,0,0,0-.766,9.771A28.8,28.8,0,0,0-87.338,56.21c1.952,4.382,3.053,4.855,3.436,4.855.2,0,.977-.225,2.535-3.119a83.8,83.8,0,0,0,4.278-10.083l.193-.525,7.936,3.968-.139.413a80.345,80.345,0,0,1-3.888,9.251,35.961,35.961,0,0,1-4.647,7.6,7.115,7.115,0,0,1-5.558,2.584,10.518,10.518,0,0,1-6.235-2.066,19.283,19.283,0,0,1-5.181-6.072A33.408,33.408,0,0,1-98.1,54.408a39.922,39.922,0,0,1-1.162-9.778c0-2.236.22-5.589.654-9.967.411-4.363.619-7.674.619-9.839Zm9.04,1h-8.043c-.028,2.19-.237,5.36-.621,9.435-.431,4.348-.649,7.668-.649,9.871a38.922,38.922,0,0,0,1.132,9.532,32.407,32.407,0,0,0,3.389,8.349,18.309,18.309,0,0,0,4.9,5.763,9.538,9.538,0,0,0,5.652,1.879,6.077,6.077,0,0,0,4.8-2.241,35.038,35.038,0,0,0,4.5-7.381,80.988,80.988,0,0,0,3.7-8.722l-6.156-3.078c-4.379,11.8-6.339,13.333-7.559,13.333-1.312,0-2.694-1.731-4.35-5.448A29.785,29.785,0,0,1-90.59,44.453a87.475,87.475,0,0,1,.773-9.89C-89.331,30.434-89.041,27.33-88.951,25.325Zm30.271-.881.255.283A52.359,52.359,0,0,1-48.091,41.847a60.214,60.214,0,0,1,3.442,20.665v.469l-9.911.626v-.533a56.459,56.459,0,0,0-3.17-18.312,49.89,49.89,0,0,0-8.616-15.8l-.4-.485Zm13.029,37.6a59,59,0,0,0-3.38-19.854A51.318,51.318,0,0,0-58.915,25.68l-6.263,3.132a51.247,51.247,0,0,1,8.394,15.628,57.634,57.634,0,0,1,3.222,18.1ZM-329.889,24.917h29.066V30.18h-29.066Zm28.066,1h-27.066V29.18h27.066Zm-28.066,8.474h29.066v5.115h-29.066Zm28.066,1h-27.066v3.115h27.066Zm174.079.51h9.171V53.651a76.676,76.676,0,0,1,14.061,8.4l.393.282-4.958,7.436-.427-.355a75.53,75.53,0,0,0-9.092-6.666,9.212,9.212,0,0,1-3.368,7.15,11.448,11.448,0,0,1-4.426,1.957,28.421,28.421,0,0,1-6.421.635A17.918,17.918,0,0,1-142.916,69.8a8.731,8.731,0,0,1-4.131-7.64,9.575,9.575,0,0,1,4.359-8.241,17.843,17.843,0,0,1,10.411-2.976,37.88,37.88,0,0,1,4.533.256Zm8.171,1h-7.171V52.341l-.57-.08a35.814,35.814,0,0,0-4.963-.321,16.867,16.867,0,0,0-9.839,2.8,9.225,9.225,0,0,0-2.952,3.224,8.871,8.871,0,0,0-.978,4.2,8.055,8.055,0,0,0,.917,3.877,8.31,8.31,0,0,0,2.769,2.93,16.946,16.946,0,0,0,9.552,2.521c4.758,0,8.2-.8,10.233-2.382a7.228,7.228,0,0,0,2.244-2.945,11.023,11.023,0,0,0,.76-4.269v-.853l.744.417a69.247,69.247,0,0,1,9.535,6.833l3.806-5.709a72.689,72.689,0,0,0-13.773-8.129l-.312-.127Zm-210.316,6.816h29.066V48.89h-29.066Zm28.066,1h-27.066V47.89h27.066ZM-132.277,57.3a24.79,24.79,0,0,1,5.137.514l.4.084V61.92a3.482,3.482,0,0,1-1.406,3,6.543,6.543,0,0,1-3.89.961,11.56,11.56,0,0,1-5.411-.993,3.484,3.484,0,0,1-1.987-3.238,3.6,3.6,0,0,1,2.238-3.271A10.607,10.607,0,0,1-132.277,57.3Zm4.533,1.412a24.1,24.1,0,0,0-4.533-.412,9.624,9.624,0,0,0-4.462.965,2.64,2.64,0,0,0-1.7,2.383,2.516,2.516,0,0,0,1.462,2.358,10.81,10.81,0,0,0,4.936.872,5.707,5.707,0,0,0,3.3-.771,2.5,2.5,0,0,0,.992-2.193Zm109.984,1.607H-6.547v8.7H-17.761Zm10.214,1h-9.214v6.7h9.214Z" transform="translate(960 12622.998)" fill="#fff"/>
  </g>
</svg>
