<svg xmlns="http://www.w3.org/2000/svg" width="727.588" height="87.51" viewBox="0 0 727.588 87.51">
  <g id="txt_caption02" transform="translate(-174.696 -6579.312)">
    <g id="グループ_1442" data-name="グループ 1442" transform="translate(-101 13.665)">
      <path id="パス_4061" data-name="パス 4061" d="M0,0H727.588L682.639,87.508H0Z" transform="translate(275.696 6565.648)"/>
      <path id="パス_4062" data-name="パス 4062" d="M-2523.746-11489.492l-21.877-21.877,21.877-21.879-21.877-21.875,21.877-21.879H-2567.5v87.51Z" transform="translate(2843.196 18142.648)" fill="#0078ff"/>
    </g>
    <g id="グループ_1485" data-name="グループ 1485" transform="translate(0 18.948)">
      <path id="パス_4334" data-name="パス 4334" d="M-73.248-20.86q0,9.968-5.4,15.708Q-83.5,0-91.756.924v-3.7a17.527,17.527,0,0,0,9.87-4.97A15.973,15.973,0,0,0-77.7-17.584H-94.892v-3.78h21.644Zm26.8,1.624A15.353,15.353,0,0,1-52.7-11.2V1.6h-3.948V-9.044a41.228,41.228,0,0,1-9.632,2.716V-9.94q12.376-2.38,15.6-9.3ZM-25.424-8.792h-3.864a74.361,74.361,0,0,0-2.072-9.772h3.668A69.267,69.267,0,0,1-25.424-8.792ZM-18.032-18q0,8.848-4.116,13.58-3.864,4.48-11.7,5.684V-2.352Q-27.328-3.7-24.584-7.56q2.52-3.556,2.52-10.472v-.392h4.032Zm-14.28,9.436h-3.836A64.983,64.983,0,0,0-38.36-18.34h3.668A68.754,68.754,0,0,1-32.312-8.568ZM1.26-16.94q-7.2-.952-11.816-1.092v-3.7q5.88.2,11.816.98Zm10.472-.868q-.756,9.8-6.608,14.364Q-.168.7-10.192.84V-3.08q8.624-.28,12.684-3.528Q6.748-10,7.532-17.808ZM.98-9.52a111.314,111.314,0,0,0-11.788-1.008v-3.724a108.634,108.634,0,0,1,11.788.98Zm38-7a14.08,14.08,0,0,1-3.164,8.4,13.158,13.158,0,0,1-6.776,4.06V-7.728a8.15,8.15,0,0,0,5.376-5.236l-8.848.308L27.916,1.4H24.024L21.756-12.516l-4.48.14V-15.9l3.92-.112-.56-3.444h3.78l.56,3.36ZM67.452-9.884h-22.9V-13.72h22.9Zm29.82-9.464H95v-4.144h2.268ZM95.648,1.232a17.681,17.681,0,0,1-9.492-8.2A25.277,25.277,0,0,1,72.6.952V-2.912a21.938,21.938,0,0,0,8.96-5.068,19.874,19.874,0,0,0,5.88-9.548H73.92v-3.78h17.7v-2.184h2.3v4.144h-1.82a24.648,24.648,0,0,1-3.276,8.792,15.329,15.329,0,0,0,6.832,7.532Z" transform="translate(539.123 6614.566)" fill="#fce01d"/>
      <path id="パス_4335" data-name="パス 4335" d="M-73.248-20.86q0,9.968-5.4,15.708Q-83.5,0-91.756.924v-3.7a17.527,17.527,0,0,0,9.87-4.97A15.973,15.973,0,0,0-77.7-17.584H-94.892v-3.78h21.644Zm26.8,1.624A15.353,15.353,0,0,1-52.7-11.2V1.6h-3.948V-9.044a41.228,41.228,0,0,1-9.632,2.716V-9.94q12.376-2.38,15.6-9.3ZM-25.424-8.792h-3.864a74.361,74.361,0,0,0-2.072-9.772h3.668A69.267,69.267,0,0,1-25.424-8.792ZM-18.032-18q0,8.848-4.116,13.58-3.864,4.48-11.7,5.684V-2.352Q-27.328-3.7-24.584-7.56q2.52-3.556,2.52-10.472v-.392h4.032Zm-14.28,9.436h-3.836A64.983,64.983,0,0,0-38.36-18.34h3.668A68.754,68.754,0,0,1-32.312-8.568ZM1.26-16.94q-7.2-.952-11.816-1.092v-3.7q5.88.2,11.816.98Zm10.472-.868q-.756,9.8-6.608,14.364Q-.168.7-10.192.84V-3.08q8.624-.28,12.684-3.528Q6.748-10,7.532-17.808ZM.98-9.52a111.314,111.314,0,0,0-11.788-1.008v-3.724a108.634,108.634,0,0,1,11.788.98Zm38-7a14.08,14.08,0,0,1-3.164,8.4,13.158,13.158,0,0,1-6.776,4.06V-7.728a8.15,8.15,0,0,0,5.376-5.236l-8.848.308L27.916,1.4H24.024L21.756-12.516l-4.48.14V-15.9l3.92-.112-.56-3.444h3.78l.56,3.36ZM67.452-9.884h-22.9V-13.72h22.9Zm29.82-9.464H95v-4.144h2.268ZM95.648,1.232a17.681,17.681,0,0,1-9.492-8.2A25.277,25.277,0,0,1,72.6.952V-2.912a21.938,21.938,0,0,0,8.96-5.068,19.874,19.874,0,0,0,5.88-9.548H73.92v-3.78h17.7v-2.184h2.3v4.144h-1.82a24.648,24.648,0,0,1-3.276,8.792,15.329,15.329,0,0,0,6.832,7.532Z" transform="translate(537.473 6615.566)" fill="#fdfdfd"/>
    </g>
  </g>
</svg>
