<svg xmlns="http://www.w3.org/2000/svg" width="121.187" height="18.69" viewBox="0 0 121.187 18.69">
  <defs>
    <style>
      .cls-1 {
        fill-rule: evenodd;
      }
    </style>
  </defs>
  <path id="発売_販売_株式会社セガ" data-name="発売・販売：株式会社セガ" class="cls-1" d="M656.078,3687.13c0.144-.7.234-1.15,0.36-1.79l-2.429-.23a12.067,12.067,0,0,1-1.152,3.91v-1.15h-1.709v-3.12h-2.484v3.12h-2.195v2.6h2a13.861,13.861,0,0,1-2.339,5.17l0.846,3.7a13.054,13.054,0,0,0,1.691-3.87v7.14h2.484v-7.85a9.464,9.464,0,0,0,1.025,2.64l1.548-2.15a6.617,6.617,0,0,1-.81-0.95h3.149a11.977,11.977,0,0,1-4.031,4.61l1.6,2.66a15.93,15.93,0,0,0,3.383-4.85v5.89h2.555v-5.46a11.159,11.159,0,0,0,3.2,4.38l1.044-3.19a11.508,11.508,0,0,1-3.509-4.04h3.185v-2.69h-3.923v-1.8h3.653v-2.68h-3.653v-2.38h-2.555v2.38h-0.936Zm-1.889,4.48h-1.332v2.64a14.749,14.749,0,0,1-1.709-2.95v-0.83h1.565Zm0.216,0a12.911,12.911,0,0,0,.9-1.8h1.71v1.8h-2.609Zm28.394-4.27,1.152-.53a8.645,8.645,0,0,0-1.746-2.21l-2.321.98a9.449,9.449,0,0,1,1.332,1.76h-1.782v-2.62h-2.861c0,0.49,0,.51.036,1.51,0,0.15.018,0.6,0.036,1.11H667.54v2.74h9.2l0.036,0.77a23.309,23.309,0,0,0,1.53,8.57c0.935,2.11,2.159,3.23,3.544,3.23,1.206,0,2.25-1.13,2.952-3.21l-1.134-3c-0.432,1.28-1.386,2.56-1.89,2.56-0.395,0-.863-0.81-1.277-2.15a24.764,24.764,0,0,1-.99-6.7v-0.07h5v-2.74H682.8Zm-12.056,11.65c-0.666.05-1.278,0.09-1.475,0.11-0.756.07-1.278,0.11-1.476,0.11a2.194,2.194,0,0,1-.414.02l0.288,2.96,0.432-.03c6.514-.74,6.64-0.76,8.835-1.23l-0.018-2.66c-0.99.19-1.871,0.3-3.437,0.47v-4.28h2.807v-2.74h-8.421v2.74h2.879v4.53Zm34.469,2.39a33.3,33.3,0,0,0-3.724-5.23l-0.036-.03h3.724v-2.72h-16.23v2.72h4.012a24.973,24.973,0,0,1-1.259,3.26h-2c-0.072,0-.287,0-0.611-0.02l0.413,2.93c6.173-.23,11.031-0.55,12.416-0.81,0.306,0.53.468,0.83,0.72,1.32Zm-10.67-2,0.036-.07,0.54-1.19c0.108-.23.216-0.46,0.306-0.68,0.2-.49.305-0.74,0.539-1.32h5.057l-2.124,1.05c0.5,0.65.936,1.21,1.494,2a48.475,48.475,0,0,1-5.29.19Zm-2.249-7.3h9.573v-1.15a18.83,18.83,0,0,0,2.681,1.45l1.4-2.85a17.122,17.122,0,0,1-7.233-4.93h-3.2c-1.206,1.83-3.563,3.42-7.324,4.97l1.367,2.88a15.047,15.047,0,0,0,2.736-1.47v1.1Zm2.051-2.53a15.675,15.675,0,0,0,2.753-2.66,20.277,20.277,0,0,0,2.807,2.66h-5.56Zm20.308,6.06a10.612,10.612,0,0,0,1.529,1.83l1.35-2.7a9.347,9.347,0,0,1-2.465-2.02,14.783,14.783,0,0,0,1.439-2.74v-2.64h-1.853v-2.59h-2.735v2.59H709.65v2.64h3.94a12.569,12.569,0,0,1-4.264,4.51l0.683,3.36a18.89,18.89,0,0,0,1.908-1.51v6.29h2.735v-7.02Zm5.362-10.86v4.68h-3.239v2.91h3.239v6.91h-4.139v2.87h10.707v-2.87h-3.761v-6.91h3.491v-2.91h-3.491v-4.68h-2.807Zm14.328,7.72v5.14c-0.054,2.58,1.08,3.7,3.8,3.77h4.733a22.625,22.625,0,0,0,2.663-.15v-3a16.637,16.637,0,0,1-2.753.25h-4.049c-1.332,0-1.475-.14-1.475-1.17v-5.16l5.218-.54a5.74,5.74,0,0,1-3.491,3.24l1.727,2.3c3.509-1.86,5.075-4.39,5.345-8.7l-8.8.81v-3.66h-2.916v3.93l-3.526.32,0.2,2.96Zm28.114-.94v0.98a38.928,38.928,0,0,1-.324,4.89c-0.18,1.04-.432,1.25-1.529,1.25a12.078,12.078,0,0,1-2.322-.25l0.162,3.02a16.739,16.739,0,0,0,2.555.19c2.232,0,3.221-.66,3.725-2.49a36.261,36.261,0,0,0,.594-7.4v-3.02h-6.244c0.09-1.23.126-1.93,0.162-3.1l-2.969-.04c0,1.42-.018,2.12-0.108,3.14h-4.8v2.83h4.516a10.408,10.408,0,0,1-5.326,7.91l1.961,2.3c3.545-2.36,5.506-5.57,6.244-10.21h3.707Zm-0.666-6.76a14.768,14.768,0,0,1,1.26,3.59l1.547-.61a15.181,15.181,0,0,0-1.367-3.58Zm2.771-.07a15.249,15.249,0,0,1,1.206,3.62l1.547-.57a15.034,15.034,0,0,0-1.313-3.62Z" transform="translate(-646.125 -3684.12)"/>
</svg>
