<svg xmlns="http://www.w3.org/2000/svg" width="305.875" height="53.75" viewBox="0 0 305.875 53.75">
  <defs>
    <style>
      .cls-1 {
        fill-rule: evenodd;
      }
    </style>
  </defs>
  <path id="パッケージ版_6_589円_税込_ダウンロード版_3_980円_税込_" data-name="パッケージ版　6,589円（税込） ダウンロード版　3,980円（税込）   " class="cls-1" d="M421.187,3330.51a1.747,1.747,0,1,0-1.745,1.83A1.778,1.778,0,0,0,421.187,3330.51Zm-0.342,11.1a51.741,51.741,0,0,0-5.038-11.48l-2.9,1.17a40.289,40.289,0,0,1,4.822,11.97Zm-14.305,1.96a29.88,29.88,0,0,0,5.182-12.57l-3.257-.64a18.369,18.369,0,0,1-5.074,11.42Zm13.6-13.06a0.7,0.7,0,1,1-.7-0.74A0.716,0.716,0,0,1,420.144,3330.51Zm13.324,5.91a30.08,30.08,0,0,0-1.17-4.36l-2.465.49a20.944,20.944,0,0,1,1.079,4.57Zm-3.725.3a22.65,22.65,0,0,0-1.62-4.34l-2.357.75a21.889,21.889,0,0,1,1.547,4.55Zm-0.4,8.49c6.442-2.11,8.475-6.41,9.051-12.7l-2.609-.4c-0.378,5.74-1.836,9.39-8.368,10.84Zm19.271-.03c4.876-1.99,6.532-5.35,7.144-9.97,2.087,0.02,3.4.04,4.12,0.07v-3.03c-1.3.05-4.03,0.09-6.6,0.09-0.935,0-1.853,0-2.663-.02a22.267,22.267,0,0,0,1.17-3.15l-2.915-.72a15.094,15.094,0,0,1-5.308,8.16l2.555,1.96a23.769,23.769,0,0,0,2.861-3.38c1.008-.02,2.429-0.02,3.833-0.02-0.648,4.31-2.969,6.59-6.8,7.51Zm31.473-10.2c-2.033.04-5.182,0.06-8.223,0.06-2.645,0-5.2-.02-6.892-0.06v3.16c1.638-.02,4.1-0.04,6.658-0.04,3.113,0,6.37.02,8.457,0.04v-3.16Zm20.981-5.17a18.369,18.369,0,0,0-1.836-1.77l-1.2,1.02c0.648,0.6,1.277,1.28,1.817,1.86Zm-1.566,1.42a24.61,24.61,0,0,0-1.835-1.91l-1.206,1.04a22.308,22.308,0,0,1,1.8,1.98Zm-5.74.09a26.392,26.392,0,0,0-4.732-2.34l-1.62,2.47a22.423,22.423,0,0,1,4.661,2.38Zm-1.8,3.83a27.894,27.894,0,0,0-4.733-2.32l-1.619,2.51a22.164,22.164,0,0,1,4.714,2.47Zm7.233-2.72c-2.051,5.31-6.513,8.69-13.189,8.93l1.457,3.31c7.9-1.46,11.121-4.74,13.73-9.46Zm22.365,10.1a8.251,8.251,0,0,1-1.817-1.75,19.139,19.139,0,0,0,1.421-7.85h-5.128v-1.31h5.488v-2.83h-8.277v6.87a16.963,16.963,0,0,1-.738,5.68v-4.7h-3.761v-1.07h4.139v-3.02H512.3v-4.29h-2.717v4.29h-0.828v-3.72h-2.771v4.96c0,5.19-.144,7.27-0.666,9.82l2.627,1.64a18.2,18.2,0,0,0,.738-5.59H509.8v5.59h2.717v-2.4l1.35,2.02a7.823,7.823,0,0,0,.935-1.71l1.224,2.03a6.654,6.654,0,0,0,2.105-2.03,10.12,10.12,0,0,0,1.764,2.07Zm-3.005-6.96a13.093,13.093,0,0,1-.4,2.81,15.536,15.536,0,0,1-.558-2.81h0.954Zm-2,5.23a5.787,5.787,0,0,1-1.4,1.19,18.663,18.663,0,0,0,.558-4.21A10.271,10.271,0,0,0,516.563,3340.8Zm40.05-9.18c-0.882-2-2.465-2.9-4.948-2.9-3.491,0-5.812,2.32-5.812,7.96,0,5.23,2.321,7.55,5.7,7.55,3.4,0,5.254-2.06,5.254-5.26,0-3.42-2.411-4.89-5.056-4.89a3.478,3.478,0,0,0-2.825,1.47c0-2.85,1.115-4.13,2.7-4.13a2.512,2.512,0,0,1,2.591,1.71Zm-7.467,6.91a2.294,2.294,0,0,1,2.339-1.77,2.4,2.4,0,0,1,0,4.79C550.243,3341.55,549.235,3340.44,549.146,3338.53Zm12.159,8.25a3.475,3.475,0,0,0,1.6-3.13v-3.31h-3.239v3.5h1.782a2.043,2.043,0,0,1-1.26,1.92ZM578.046,3332v-2.89h-8.961l-0.594,8.06,3,0.64a2.424,2.424,0,0,1,2.088-1.37,2.177,2.177,0,0,1,2.2,2.49,2.224,2.224,0,0,1-2.2,2.45,2.4,2.4,0,0,1-2.394-1.92l-3.023.96c0.648,2.36,2.519,3.81,5.4,3.81,3.2,0,5.416-1.94,5.416-5.3,0-3.53-2.195-5.08-4.823-5.08a3.253,3.253,0,0,0-2.483,1l-0.054-.02,0.288-2.83h6.136Zm11.92,3.79a3.208,3.208,0,0,0,1.764-3.24c0-2.38-2.052-3.83-4.895-3.83-2.789,0-4.876,1.49-4.876,3.83a3.284,3.284,0,0,0,1.781,3.26,3.726,3.726,0,0,0-2.447,3.82c0,2.7,2.2,4.6,5.542,4.6,3.4,0,5.542-2.04,5.542-4.6A3.737,3.737,0,0,0,589.966,3335.79Zm-1.241-2.98a1.9,1.9,0,0,1-3.761,0,1.653,1.653,0,0,1,1.871-1.62A1.671,1.671,0,0,1,588.725,3332.81Zm0.377,6.61a2.078,2.078,0,0,1-2.249,2.13,2.119,2.119,0,0,1-2.285-2.13A2.3,2.3,0,0,1,589.1,3339.42Zm5.462,1.85c0.864,1.98,2.484,2.96,5,2.96,3.563,0,5.812-2.28,5.812-7.98,0-5.23-2.321-7.53-5.7-7.53-3.4,0-5.255,2.05-5.255,5.26,0,3.4,2.412,4.89,5.057,4.89a3.4,3.4,0,0,0,2.825-1.49c0,2.85-1.044,4.15-2.7,4.15a2.588,2.588,0,0,1-2.627-1.77Zm7.522-6.87a2.3,2.3,0,0,1-2.357,1.77,2.392,2.392,0,0,1,.018-4.77C600.988,3331.4,602,3332.49,602.086,3334.4Zm16.586,10.83c3.887,0,4.768-.22,4.768-3.38v-13.04H608.469v16.44h2.951v-6.61h9.069v2.78c0,0.75-.018.81-1.835,0.81h-1.1Zm1.817-9.61H617.43v-3.79h3.059v3.79Zm-6.01,0H611.42v-3.79h3.059v3.79Zm25.57,8.82a10.8,10.8,0,0,1,0-15.35l-1.35-1.36a11.778,11.778,0,0,0,0,18.05Zm18.251,0.49c1.35,0,2.177-.4,2.177-2.43v-2.21l-2.177-.87v2.21c0,0.32-.108.32-0.27,0.32-0.216,0-.27,0-0.27-0.21v-3h2.159V3332h-1.4a12.879,12.879,0,0,0,1.385-3.06l-3-.6a22.821,22.821,0,0,1-1.259,3.66H653.55l1.781-.7a19.9,19.9,0,0,0-1.278-3l-2.753.93a22.31,22.31,0,0,1,1.242,2.77h-1.458v6.08a11.168,11.168,0,0,1-1.565-2.15h1.205v-2.85h-1.367v-1.42a10.644,10.644,0,0,0,2.069-.58l-1.367-2.8s-1.026.72-5.633,0.91l0.54,2.9c0.54,0,1.062-.03,1.512-0.05v1.04h-1.89v2.83h1.656a13.4,13.4,0,0,1-2.015,3.64l1.115,3.91a10.539,10.539,0,0,0,1.134-3.72v5.51h2.879v-5.98a11.764,11.764,0,0,0,.774,2.26l1.187-2.79h0.7c-0.126,1.94-.612,3.15-2.339,3.91l1.943,2.62c2.339-1.26,2.915-3.51,3.023-6.53h0.378v4.89c0,1.26,1.026,1.3,1.961,1.3H658.3Zm-1.26-8.83h-3.077v-1.44h3.077v1.44Zm12.661-4.84a30.573,30.573,0,0,0-2.286-2.96l-2.321,1.83a34.516,34.516,0,0,1,2.178,2.95Zm11.012,13.44,0.63-3.11-8.907.09H672.2c-1.152,0-1.943-.15-2.393-0.98v-1.41l1.817,2.36a12.219,12.219,0,0,0,3.815-6.23,13.493,13.493,0,0,0,3.419,6.17l2.141-2.47c-3.977-3.82-4.175-9.37-4.175-10.39v-0.17H670.78v3.02h3.167a11.711,11.711,0,0,1-4.138,7.37v-4.21h-4.517v2.83h1.638v3.68a7.242,7.242,0,0,1-1.818,1.36l1.836,2.62a7.023,7.023,0,0,0,1.925-1.56,5.3,5.3,0,0,0,3.563,1.03h8.277Zm6.328,1.08a11.777,11.777,0,0,0,0-18.05l-1.367,1.36a10.8,10.8,0,0,1,0,15.35Zm-265.422,17.88a19.667,19.667,0,0,0-1.835-1.77l-1.206,1.02c0.648,0.6,1.278,1.28,1.817,1.87Zm-2.285.7a24.661,24.661,0,0,0-1.836-1.9l-1.2,1.03a23.923,23.923,0,0,1,1.8,1.99Zm-12.362,15.46c7.665-2.32,10.634-6.23,12.992-13.04l-1.35-1.3c-1.314.09-2.7,0.13-3.995,0.13-0.647,0-1.277-.02-1.853-0.02,0.324-.57.612-1.13,0.882-1.72l-3.1-.83a15.365,15.365,0,0,1-6.154,7.63l2.465,2.09a26.071,26.071,0,0,0,4.12-4.34c1.584-.06,3.167-0.09,5.219-0.09a14.045,14.045,0,0,1-1.728,3.22,35.051,35.051,0,0,0-3.365-2.2l-2.087,2.09a25.572,25.572,0,0,1,3.365,2.32,18.664,18.664,0,0,1-7.72,3.48Zm22.26-.34c7.107-1.47,9.5-5.81,10.238-12.36l-1.745-1.23c-0.594.06-2.015,0.08-3.689,0.1,0-.55-0.018-1.14-0.018-1.68s0.018-1.04.036-1.4l-3.077-.08c0.054,0.74.054,2.04,0.054,3.16-2.267-.02-4.426-0.06-5.488-0.14,0.036,1.06.054,2.14,0.054,3.23,0,1.32-.036,2.66-0.09,3.95h3.023c-0.036-1.02-.054-1.89-0.054-2.74,0-.45,0-0.91.018-1.38,0.72-.02,1.494-0.02,2.3-0.02,1.62,0,3.419.02,5.4,0.02-0.468,4.15-2.808,6.99-9,7.57Zm22.382-12.72a39.045,39.045,0,0,0-4.607-3.04l-2.051,2.19a39.788,39.788,0,0,1,4.589,3.32Zm-5.524,12.35a18.359,18.359,0,0,0,14.251-10.69l-2.411-2.02c-2.339,5.38-6.37,8.93-13.082,9.42Zm32.5-.46c-0.09-2-.126-5.17-0.126-8.13,0-2.23.018-4.33,0.072-5.74-1.691.04-4.678,0.07-7.467,0.07-2.16,0-4.193-.02-5.417-0.07,0.018,1.04.018,2.58,0.018,4.3,0,3.46-.018,7.57-0.071,9.72l2.9-.03v-0.93c1.313-.02,2.753-0.04,4.174-0.04,1.044,0,2.07,0,3,.04v0.81h2.915Zm-2.933-11c0.036,1.11.054,2.43,0.054,3.79,0,1.19-.018,2.42-0.054,3.55h-7.143c-0.018-1.4-.054-3-0.054-4.49,0-1.04.018-2,.054-2.85h7.143Zm24.278,2.02c-2.034.03-5.183,0.05-8.224,0.05-2.645,0-5.2-.02-6.892-0.05v3.15c1.638-.02,4.1-0.04,6.658-0.04,3.113,0,6.37.02,8.458,0.04v-3.15Zm18.612-4.68a18.885,18.885,0,0,0-1.872-1.78l-1.187,1.02a25.646,25.646,0,0,1,1.835,1.87Zm-1.6,1.37a19.143,19.143,0,0,0-1.853-1.88l-1.206,1.03a19.1,19.1,0,0,1,1.818,1.99Zm-5.9,13.46c-0.054-1.94-.072-5.75-0.072-9.17a36.535,36.535,0,0,1,5.992,3.7l1.71-2.74a53.519,53.519,0,0,0-6.244-3.53l-1.458,1.59c0.018-2.93.054-5.51,0.09-6.61l-3.131-.04c0.036,1.17.054,3.87,0.054,6.84,0,3.73-.036,7.92-0.108,9.98Zm28.587-2.6a8.291,8.291,0,0,1-1.817-1.76,19.085,19.085,0,0,0,1.421-7.85h-5.128v-1.3h5.488v-2.83h-8.277v6.87a16.963,16.963,0,0,1-.738,5.68v-4.7h-3.761v-1.08h4.139v-3.02h-0.594v-4.28h-2.717v4.28h-0.828v-3.72h-2.771v4.97c0,5.19-.144,7.27-0.666,9.81l2.627,1.65a18.2,18.2,0,0,0,.738-5.59h1.116v5.59h2.717v-2.4l1.349,2.02a7.858,7.858,0,0,0,.936-1.72l1.224,2.04a6.805,6.805,0,0,0,2.105-2.04,10.436,10.436,0,0,0,1.764,2.08Zm-3-6.97a13.006,13.006,0,0,1-.4,2.81,15.2,15.2,0,0,1-.558-2.81h0.954Zm-2,5.23a5.376,5.376,0,0,1-1.4,1.19,18.663,18.663,0,0,0,.558-4.21A10.183,10.183,0,0,0,534.628,3375.48Zm34.238-3.21c1.583,0,2.375.7,2.375,2a2.121,2.121,0,0,1-2.357,1.83,2.4,2.4,0,0,1-2.375-1.96l-2.789,1.25c0.611,2.15,2.321,3.53,5.218,3.53,3.761,0,5.542-1.7,5.542-4.51a3.57,3.57,0,0,0-2.915-3.82,3.18,3.18,0,0,0,2.465-3.34c0-2.25-1.781-3.85-4.786-3.85-3.077,0-4.571,1.6-4.967,3.49l2.772,0.98a1.947,1.947,0,0,1,2.069-1.71,1.52,1.52,0,0,1,1.655,1.56c0,1.06-.989,1.66-2.2,1.66h-1.512v2.89h1.8Zm10.419,9.19a3.465,3.465,0,0,0,1.6-3.13v-3.3h-3.239v3.49h1.781a2.067,2.067,0,0,1-1.259,1.93Zm6.864-5.51c0.864,1.98,2.484,2.97,5,2.97,3.563,0,5.812-2.29,5.812-7.99,0-5.23-2.321-7.53-5.7-7.53-3.4,0-5.255,2.06-5.255,5.27,0,3.39,2.412,4.89,5.057,4.89a3.4,3.4,0,0,0,2.825-1.5c0,2.85-1.044,4.16-2.7,4.16a2.6,2.6,0,0,1-2.627-1.78Zm7.522-6.87a2.3,2.3,0,0,1-2.357,1.78,2.4,2.4,0,0,1,.018-4.78C592.573,3366.08,593.581,3367.18,593.671,3369.08Zm14.225,1.4a3.222,3.222,0,0,0,1.764-3.25c0-2.38-2.052-3.83-4.895-3.83-2.789,0-4.876,1.49-4.876,3.83a3.3,3.3,0,0,0,1.781,3.27,3.706,3.706,0,0,0-2.447,3.81c0,2.7,2.2,4.61,5.542,4.61,3.4,0,5.542-2.04,5.542-4.61A3.725,3.725,0,0,0,607.9,3370.48Zm-1.241-2.98a1.9,1.9,0,0,1-3.761,0,1.66,1.66,0,0,1,1.871-1.63A1.678,1.678,0,0,1,606.655,3367.5Zm0.377,6.6a2.086,2.086,0,0,1-2.249,2.14,2.127,2.127,0,0,1-2.285-2.14A2.3,2.3,0,0,1,607.032,3374.1Zm10.979,4.82c3.8,0,5.471-3.02,5.471-7.78,0-4.53-1.674-7.74-5.471-7.74-3.814,0-5.452,3.28-5.452,7.74C612.559,3376.14,614.2,3378.92,618.011,3378.92Zm0-2.89c-1.457,0-2.177-1.68-2.177-4.89,0-3.04.7-4.83,2.177-4.83s2.178,1.85,2.178,4.83C620.189,3374.35,619.451,3376.03,618.011,3376.03Zm18.7,3.89c3.887,0,4.769-.23,4.769-3.38v-13.05H626.513v16.45h2.951v-6.61h9.069v2.77c0,0.76-.018.82-1.836,0.82h-1.1Zm1.818-9.61h-3.059v-3.8h3.059v3.8Zm-6.01,0h-3.059v-3.8h3.059v3.8Zm25.569,8.81a11.676,11.676,0,0,1-3.2-7.68,11.517,11.517,0,0,1,3.2-7.66l-1.349-1.36a11.766,11.766,0,0,0,0,18.04Zm18.251,0.49c1.35,0,2.178-.39,2.178-2.43v-2.21l-2.178-.87v2.21c0,0.32-.108.32-0.27,0.32-0.216,0-.27,0-0.27-0.21v-3h2.16v-6.74h-1.4a12.728,12.728,0,0,0,1.386-3.05l-3-.61a22.878,22.878,0,0,1-1.26,3.66h-2.087l1.781-.69a20.353,20.353,0,0,0-1.277-3.01l-2.753.93a22.418,22.418,0,0,1,1.241,2.77h-1.457v6.08a10.859,10.859,0,0,1-1.566-2.15h1.206v-2.85H667.4v-1.42a10.643,10.643,0,0,0,2.07-.58l-1.368-2.79s-1.026.71-5.632,0.9l0.54,2.91c0.539,0,1.061-.04,1.511-0.06v1.04h-1.889v2.83h1.655a13.567,13.567,0,0,1-2.015,3.65l1.115,3.9a10.469,10.469,0,0,0,1.134-3.72v5.52H667.4v-5.99a11.713,11.713,0,0,0,.774,2.27l1.188-2.8h0.7c-0.126,1.95-.611,3.16-2.339,3.91l1.943,2.62c2.34-1.26,2.916-3.51,3.023-6.53h0.378v4.89c0,1.27,1.026,1.3,1.962,1.3h1.313Zm-1.259-8.83h-3.077v-1.43h3.077v1.43Zm12.66-4.83a31.53,31.53,0,0,0-2.285-2.97l-2.321,1.84a35.333,35.333,0,0,1,2.177,2.94Zm11.013,13.44,0.629-3.12-8.907.1h-0.234c-1.151,0-1.943-.15-2.393-0.98v-1.42l1.817,2.36a12.172,12.172,0,0,0,3.815-6.23,13.453,13.453,0,0,0,3.419,6.17l2.141-2.47c-3.976-3.81-4.174-9.36-4.174-10.38v-0.17h-6.046v3.02h3.167a11.7,11.7,0,0,1-4.139,7.36v-4.21h-4.517v2.83h1.638v3.68a7.246,7.246,0,0,1-1.817,1.36l1.835,2.63a7.018,7.018,0,0,0,1.925-1.57,5.3,5.3,0,0,0,3.563,1.04h8.278Zm6.328,1.07a11.768,11.768,0,0,0,0-18.04l-1.368,1.36a10.785,10.785,0,0,1,0,15.34Z" transform="translate(-403.406 -3327.72)"/>
</svg>
