<svg xmlns="http://www.w3.org/2000/svg" width="172.313" height="17.688"><path fill-rule="evenodd" d="M1.057 2.15v2.851h8.457a17.281 17.281 0 0 1-9.519 9.985l1.62 2.511a21.116 21.116 0 0 0 6.838-5.21 55.174 55.174 0 0 1 5.02 5.323l2.429-2.454a39.352 39.352 0 0 0-4.553-4.172c-.4-.32-.774-.622-1.134-.943A19.851 19.851 0 0 0 13.31 2.15H1.057zm34.4 2.87a2.544 2.544 0 1 0-3.113-2.473 2.692 2.692 0 0 0 .594 1.7H29.81V1.415h-2.933v2.832h-5.776V7.05h5.776v10.344h2.933V7.05h5.65V5.012zm-.684-3.738a1.285 1.285 0 1 1-1.206 1.284 1.254 1.254 0 0 1 1.209-1.289zM22.63 16.812a13.234 13.234 0 0 0 2.951-7.966l-2.627-.283a9.677 9.677 0 0 1-2.537 6.173zm13.6-1.831a12.426 12.426 0 0 1-2.573-6.493l-2.591.358c.5 3.964 1.242 6.022 2.861 7.985zm4.043-7.135v3.115h15.4V7.85h-15.4zm19.823-4.172a27.317 27.317 0 0 1 1.746 5.644l2.645-.774a26.954 26.954 0 0 0-1.871-5.568zm4.88-.924a27.57 27.57 0 0 1 1.511 5.663l2.663-.66a20.519 20.519 0 0 0-1.656-5.626zm7.252-.377c-1.1 7.985-3.707 11.042-10.761 12.571l1.853 2.492a14.423 14.423 0 0 0 8.367-4.886c1.619-2.02 2.825-5.266 3.545-9.495zm16.09 6.342l1.745 1.888c3.329-2.058 4.714-4.342 5.308-8.759H80.04v2.888h11.732a6.515 6.515 0 0 1-3.4 3.549c.072-.774.09-1.321.126-2.152l-2.97-.019c0 5.135-1.295 7.3-5.488 9.1l1.89 2.416c3.922-1.926 5.92-4.644 6.352-8.664l.018-.095zm15.569-6.665a11.2 11.2 0 0 1-4.426 5.266l1.835 2.228a14.4 14.4 0 0 0 4.463-4.719h5.164c-.81 5.493-4.5 9.023-10.509 10.061l1.17 2.794c7.792-1.529 12.182-6.947 12.65-15.63h-10.347zM120.4 4.07a24.159 24.159 0 0 1 5.4 2.189l1.17-2.642a21.536 21.536 0 0 0-5.525-1.963zm-1.44 4.4a21.059 21.059 0 0 1 5.237 2.322l1.115-2.662a18.53 18.53 0 0 0-5.326-2.133zm1.71 8.891c7.575-1.02 11.084-4.04 13.549-11.628l-2.483-1.907c-2.051 7.268-4.768 9.646-11.7 10.269zm27.417-5.229v2.265h-8.08v2.605h10.8V4.977h-10.64v2.548h7.92v2.133h-7.63v2.473h7.63zm8.936-7.382a22.823 22.823 0 0 1 5.614 2.869l1.512-2.737a22.836 22.836 0 0 0-5.848-2.7zm.99 12.534c7.863-1 12-4.606 14.287-12.458l-2.519-1.831c-1.943 7.418-5.29 10.382-12.416 11.042z"/></svg>