<svg xmlns="http://www.w3.org/2000/svg" width="96.313" height="18.031"><path fill-rule="evenodd" d="M3.984 4.809A25.292 25.292 0 0 0 4.938.222L2.293.034a13.834 13.834 0 0 1-2.3 6.682l.684 4.115c.378-.415.486-.529.756-.868v8.06h2.555V4.809zM17.336.638H4.919v2.661H8.14v2.076h-3.2v12.156h11.874V5.375h-3.221V3.298h3.743V.637zm-5.992 2.661v2.076h-.972V3.298h.972zM8.249 7.943v6.965h-.987V7.943h.99zm3.095 0v6.965h-.972V7.943h.972zm3.131 0v6.965h-.99V7.943h.99zm76.212-6.607a9.1 9.1 0 0 0 .486-1.038L88.455.015a8.3 8.3 0 0 1-3.293 3.511v-.3h-1.385V.075h-2.5v3.153h-2.322v2.6h2.16a12.358 12.358 0 0 1-2.519 5.115l.809 3.738a19.949 19.949 0 0 0 1.872-3.851v7.154h2.5v-7.041a13.408 13.408 0 0 0 1.062 1.737l.9-2.284.144.453.2-.076.126-.037v6.852h8.781v-7.153l.072.018.162.057 1.08-2.737a15.029 15.029 0 0 1-3.329-1.019A14.984 14.984 0 0 0 95.26 3.79V1.336h-4.57zm1.727 2.454a7.7 7.7 0 0 1-1.583 1.756 8.568 8.568 0 0 1-1.818-1.756h3.4zm-5.128 6.531a19.889 19.889 0 0 0 3.545-1.85 16.024 16.024 0 0 0 3.8 1.85H87.29zm-1.8-.679a12.36 12.36 0 0 1-1.709-2.624V5.829h1.385V4.092l1.116 1.907c.468-.321.7-.491 1.062-.755a10.3 10.3 0 0 0 1.4 1.623 13.1 13.1 0 0 1-3.76 1.246zm6.928 3.114v2.341h-3.635v-2.341h3.635z"/></svg>