<svg xmlns="http://www.w3.org/2000/svg" width="96.031" height="18.063"><path fill-rule="evenodd" d="M.354 8.132a23.109 23.109 0 0 1 3.277 3.133 16.063 16.063 0 0 1-3.635 4.04l1.781 2.435a20 20 0 0 0 3.635-4.191c.684 1.057 1.1 1.737 1.566 2.586l2.213-1.906a19.924 19.924 0 0 0-2.429-3.436 24.472 24.472 0 0 0 1.314-5.474h.792V2.544H6.004V.053H3.341v2.491H.282v2.775H5.41a20.851 20.851 0 0 1-.612 3.3c-1.3-1.264-1.943-1.849-2.609-2.435zM16.045.053h-2.789V3.28H9.297v2.888h3.959v8.419c.018.453-.108.548-.612.567h-2.573l.522 2.774h3.6a1.649 1.649 0 0 0 1.853-1.755v-10h1.3V3.285h-1.3V.058zM8.308 8.434a21.009 21.009 0 0 1 1.979 4.87l2.5-1.246a20.954 20.954 0 0 0-2.141-4.832zm26.21-4.229l-1.314 1.831a13.94 13.94 0 0 1 4.463 2.662l1.673-2.152a19.442 19.442 0 0 0-3.977-2.341h7.828v-2.7h-6.713V.052h-2.735v1.453h-6.406v8.57a14.449 14.449 0 0 1-1.3 5.776l2.141 2.19c1.116-1.869 1.727-4.625 1.817-8.287v-5.55h4.517zm-2.687 12.57a22.778 22.778 0 0 0 1.332-7.437l-2.213-.4a17.762 17.762 0 0 1-1.4 6.777zm1.853-8.4v8.022a1.353 1.353 0 0 0 1.44 1.492h3.095c1.476-.151 1.8-.906 2.015-4.87l-2.213-.51c-.09 2.624-.108 2.737-.468 2.737h-.81a.41.41 0 0 1-.412-.471v-6.4h-2.642zm5.29.623a20.846 20.846 0 0 1 1.835 7.664l2.681-.585a30.579 30.579 0 0 0-2-7.891zm23.682 4.1a7.6 7.6 0 0 0-2.375-.944c0-.132 0-.17.018-.453v-.377h2.285a25.006 25.006 0 0 0 .846 3.246 8.527 8.527 0 0 1-3.023 1.246l.954 2.209a11.9 11.9 0 0 0 3.095-1.491 3.039 3.039 0 0 0 2.5 1.529c1.188 0 2-.661 2.861-2.36l-1.206-2.284c-.539 1.227-1.205 2.058-1.6 2.058a.859.859 0 0 1-.648-.454 11.314 11.314 0 0 0 2.213-2.831l-1.907-.868h2.915v-2.4h-1.583a10.948 10.948 0 0 0-.648-1.4h.078l.7-.114h.072c.018.057.054.265.126.623l1.457-.415a16.453 16.453 0 0 0-.864-3.1l-1.349.378a7.485 7.485 0 0 1 .288.906c-.63.056-1.044.094-1.422.113a25.513 25.513 0 0 0 2.771-3.737l-1.565-.661a12.4 12.4 0 0 1-.99 1.548l-.036-.057-.342-.415-.054-.057A20.722 20.722 0 0 0 67.555.422l-1.728-.434a6.863 6.863 0 0 1-.738 1.321l-.054-.056-.216-.208-.684 1.076v-.6c0-.491.018-.887.036-1.435h-2.427v.718c0 .868 0 .868.018 1.3l-1.1-.547a16.555 16.555 0 0 1-.936 1.453 4.294 4.294 0 0 0-.432-.528 14.574 14.574 0 0 0 1.3-2.02L58.867.047a8.855 8.855 0 0 1-.756 1.359l-.056-.031-.09-.076-.162-.132-1.026 1.718c.162.132.216.17.306.245a1.047 1.047 0 0 0 .144.133h-.828V.091h-2.321v3.172h-1.547V5.83h1.458a15.74 15.74 0 0 1-1.71 4.7l.792 4.039a13.416 13.416 0 0 0 1.008-2.661v6.078H56.4v-7.079a6.809 6.809 0 0 0 .666 1.227l.432-1.906v1.095h.45c-.054 2.6-.342 3.813-1.134 5.021l1.925 1.718a7.781 7.781 0 0 0 1.386-3.776 5.487 5.487 0 0 1 1.781.982zm2.015-4.172a88.49 88.49 0 0 1-.108-1.151c.414-.019.648-.038.936-.076a.641.641 0 0 0 .108.17l.126.283c.2.416.324.68.378.774h-1.44zm-.288-2.925c-.126-1.284-.2-2.209-.216-2.87a15.057 15.057 0 0 1 1.35 1.492c-.252.358-.576.755-1.08 1.378h-.048zm-2.267 2.133c.018.17.036.3.09.792h-4.675a14.458 14.458 0 0 1-1.134-1.623V5.831h1.008v-2.4c.342.321.864.888 1.152 1.227a27.194 27.194 0 0 1-1.278 1.68l-.234-.019.234 1.813c1.062-.095 2.2-.208 3.419-.321a4.582 4.582 0 0 1 .09.642zM59.093 6.34a31.478 31.478 0 0 0 2.681-3.454c.126 2.416.18 3.417.216 3.983a12.868 12.868 0 0 0-.558-1.907l-1.35.3a5.381 5.381 0 0 1 .288 1.02zm7.522 4.984l-.031.051a7.358 7.358 0 0 1-1.17 1.567c-.108-.359-.18-.717-.36-1.623h1.566zm18.916-.795v1.661h3.725v.7h-4.085v1.831h4.085v.737h-4.769v2.117H96.04v-2.114h-4.355v-.737h3.959v-1.831h-3.959v-.7h3.8V6.02h-3.8v-.66h4.3V3.265h-4.3v-.718c2.447-.189 3.4-.264 4.031-.377L95.122.093a49.976 49.976 0 0 1-8.745.623c-.09 0-.5 0-.9-.019l.306 1.963c1.008 0 1.583-.018 3.473-.037v.642h-4.229v1.547H83.57V2.925a10.8 10.8 0 0 0 1.655-.378l-.7-2.51a22.665 22.665 0 0 1-5.506.774l.288 2.529c.63-.019 1.116-.038 1.817-.113v1.585h-2.1v2.605h1.872a13.483 13.483 0 0 1-2.25 4.191l.972 3.681a20.413 20.413 0 0 0 1.511-3.473v6.21h2.448V10.74a10.668 10.668 0 0 0 1.043 1.868zm0-.321a13.977 13.977 0 0 1-1.943-2.794h1.457V5.357h4.211v.66h-3.725v4.191zm3.725-2.511v.812H87.87v-.812h1.386zm0 2.039v.831H87.87v-.831h1.386zm3.815-2.039v.812h-1.386v-.812h1.386zm0 2.039v.831h-1.386v-.831h1.386z"/></svg>