<svg id="レイヤー_1" data-name="レイヤー 1" xmlns="http://www.w3.org/2000/svg" viewBox="0 0 640 200"><defs><style>.cls-1{fill:#e6e6e6;}.cls-2{fill:#fff;}.cls-3{fill:#3c3c3c;}.cls-4{fill:#ff9600;}</style></defs><title>アートボード 7</title><rect class="cls-1" width="640" height="200" rx="10"/><path class="cls-2" d="M635,35V190a5,5,0,0,1-5,5H10a5,5,0,0,1-5-5V35Z"/><path class="cls-3" d="M31,13.08a1.28,1.28,0,0,1,0,.19,13.28,13.28,0,0,1-.82,3.88,7.27,7.27,0,0,1-3.17,4A13.47,13.47,0,0,1,21.08,23l-.55-1.81a12.23,12.23,0,0,0,4.69-1.34,6.43,6.43,0,0,0,2.67-2.56,9.61,9.61,0,0,0,.93-3.82l-8.46,0V11.67h10Zm1.25-.87-1,.38a11,11,0,0,0-.94-2.13l.94-.35A22.22,22.22,0,0,1,32.24,12.21ZM34,12l-.95.36c-.36-.89-.67-1.59-.93-2.11l.9-.33C33.34,10.55,33.67,11.24,34,12Z"/><path class="cls-3" d="M47.31,18H34.75V16.21H47.31Z"/><path class="cls-3" d="M61.71,21.59l-1.54,1.47q-1.22-1.32-4.68-4.3a20.46,20.46,0,0,1-6.4,4.34l-1-1.61a19,19,0,0,0,5.08-3.29,14.24,14.24,0,0,0,3.67-4.79H49.92V11.61h9l.56.54A13,13,0,0,1,58.35,15a17.74,17.74,0,0,1-1.59,2.3Q59.72,19.71,61.71,21.59Z"/><path class="cls-3" d="M72.26,22.52H65.57V23H63.63V18.05l-.78.31-.77-1.44a14.56,14.56,0,0,0,3.67-1.86H62.59V13.62h2.22l-.38-.8,1.25-.3-2.24,0-.18-1.37c2.62,0,4.93-.08,6.91-.23a28.92,28.92,0,0,0,3.61-.39l.7,1.42c-.47.08-1,.15-1.68.2l1.17.27a12.91,12.91,0,0,1-.78,1.17h2v1.44H72a17.9,17.9,0,0,0,3.91,1.69l-1,1.57-.72-.27V23H72.26ZM65.2,17.31h7.4a14.41,14.41,0,0,1-2.75-1.89v1.63H67.93V15.4A13.22,13.22,0,0,1,65.2,17.31ZM68,18.6H65.57v.74H68Zm-2.38,2.63H68v-.77H65.57Zm.59-8.73c.14.23.33.61.58,1.12h1.19V12.43Zm6.1,6.84V18.6H69.81v.74Zm-2.45,1.89h2.45v-.77H69.81Zm0-8.89v1.28h1.36c.32-.51.59-1,.82-1.38Z"/><path class="cls-3" d="M88.07,18.19a17.62,17.62,0,0,1-.16,2.57,3.75,3.75,0,0,1-.4,1.36,2,2,0,0,1-.66.62,2.41,2.41,0,0,1-.77.28c-.25,0-.88,0-1.9,0h-1L83,21.38h2a.89.89,0,0,0,.76-.31A3,3,0,0,0,86,19.55H79.85l-.17.66H77.76l.68-3h-2V15.84H89.4v1.41h-9l-.22.94ZM88,15h-10V11.18H88Zm-1.86-1.29v-1.2H79.79v1.2Z"/><path class="cls-3" d="M96.62,22.92l-.5-1.71A9,9,0,0,0,100.2,20a3.23,3.23,0,0,0,1.37-2.84,3.36,3.36,0,0,0-1-2.53,4.38,4.38,0,0,0-2.73-1.12,14.09,14.09,0,0,1-1.43,6.21q-1.29,2.37-3.24,2.37a2.37,2.37,0,0,1-2.06-1.2,4.92,4.92,0,0,1-.79-2.74v-.17a5.64,5.64,0,0,1,1.91-4.19,7.2,7.2,0,0,1,4.8-2h.28a7.1,7.1,0,0,1,4.55,1.41A4.58,4.58,0,0,1,103.65,17a5.13,5.13,0,0,1-1.79,4.15A9.22,9.22,0,0,1,96.62,22.92Zm-.69-9.25a4.88,4.88,0,0,0-2.61,1.61,4.16,4.16,0,0,0-1.08,2.77,3.72,3.72,0,0,0,.27,1.43c.18.44.42.66.74.66.65,0,1.23-.63,1.75-1.88A13.46,13.46,0,0,0,95.93,13.67Z"/><path class="cls-3" d="M110.08,19a4.21,4.21,0,0,1-1.77,2.82,7.28,7.28,0,0,1-3.55,1.23l-.48-1.51a6.54,6.54,0,0,0,2.59-.86A2.51,2.51,0,0,0,108.14,19h-2.28V10.92h10.27V19h-2.79v1.85a.36.36,0,0,0,.1.27.89.89,0,0,0,.5.13l.57,0,.58,0a2.42,2.42,0,0,0,.52-.07.56.56,0,0,0,.22-.13,1.08,1.08,0,0,0,.14-.54,8.75,8.75,0,0,0,0-1.1l1.6.25v1.68a1.38,1.38,0,0,1-.45,1.05,1.84,1.84,0,0,1-1.24.45l-.79,0c-.31,0-.57,0-.78,0l-.71,0-.79-.05a1.59,1.59,0,0,1-.56-.14,1.35,1.35,0,0,1-.43-.31,1.37,1.37,0,0,1-.27-.47,1.91,1.91,0,0,1-.09-.61V19Zm4.15-5.71v-1h-6.48v1Zm-6.48,2.16h6.48v-1h-6.48Zm6.48,1.2h-6.48v1h6.48Z"/><path class="cls-3" d="M124.19,14.22c0,.51,0,.93-.07,1.26h5.79c0,1.59,0,2.87-.13,3.84a7.77,7.77,0,0,1-.37,2.06,2.07,2.07,0,0,1-.9,1,3,3,0,0,1-1.56.39h-2.16L124.51,21h2.12c.62,0,1-.35,1.12-1A16,16,0,0,0,128,17h-4a8.42,8.42,0,0,1-1.66,3.58A8.79,8.79,0,0,1,119.2,23l-1-1.4a7.4,7.4,0,0,0,3-2.69,8.45,8.45,0,0,0,1-4.33v-.31h-3.49V12.56h5.13V10.72h1.94v1.84h5.47v1.66Z"/><rect class="cls-4" x="375" y="55" width="240" height="60" rx="10"/><path class="cls-4" d="M225,61a4.05,4.05,0,0,1,4,4v40a4.05,4.05,0,0,1-4,4H35a4.05,4.05,0,0,1-4-4V65a4.05,4.05,0,0,1,4-4H225m0-6H35A10,10,0,0,0,25,65v40a10,10,0,0,0,10,10H225a10,10,0,0,0,10-10V65a10,10,0,0,0-10-10Z"/><rect class="cls-4" x="25" y="55" width="140" height="60" rx="10"/><path class="cls-2" d="M50.62,86.22c.17.1.27.21.27.33s-.27.23-.54.21A26.51,26.51,0,0,1,46,92.24a15.2,15.2,0,0,0-2.41-1.78,16,16,0,0,0,4.6-5.67Zm1.32-9.91,2.8.1c.27,0,.46.06.46.25s-.17.23-.36.32V80.8H61.9v2.56H54.84V91.3c0,1.45,0,3.17-3.38,3.17-.38,0-1,0-1.43-.09a8,8,0,0,0-.9-2.81,15.07,15.07,0,0,0,1.91.19c.9,0,.9-.32.9-1.64V83.36H44.87V80.8h7.07Zm6.55,8.35A28.27,28.27,0,0,1,62.82,90c-.71.54-1.72,1.49-2.16,1.91a28.56,28.56,0,0,0-4.26-5.63Z"/><path class="cls-2" d="M83.57,84v3H65.45V84Z"/><path class="cls-2" d="M93.08,77.48c.21,0,.49,0,.49.27s-.21.34-.38.4V83.3c0,5.33-2.37,7.72-5.23,10a9.17,9.17,0,0,0-2.37-2c4-2.54,4.55-4.92,4.55-7.81V77.33Zm5.21-.19c.23,0,.4,0,.4.23s-.21.3-.4.4v11a22,22,0,0,0,6-5.85,7.94,7.94,0,0,0,1.4,2.6,31.36,31.36,0,0,1-6,5.9C98,92.83,97.77,93,97.22,93.44l-1.93-1.26c0-.57.08-1.09.08-1.66V77.15Z"/><path class="cls-2" d="M123.05,95h-2.5v-.77h-8.08V95H110V88c-.67.42-1.32.78-2,1.14a6.84,6.84,0,0,0-1.78-2,21.16,21.16,0,0,0,6.53-4.07H106.9V81.09h4.31A11.13,11.13,0,0,0,110,79.48l1.13-.55c-.35,0-2,.06-2.28.06a7.21,7.21,0,0,0-.68-2.16c.55,0,3.7.06,3.93.06a43.11,43.11,0,0,0,6.72-.56,17.25,17.25,0,0,0,3.34-.84l1.49,1.8c.17.21.23.3.23.46s-.13.19-.25.19a2.58,2.58,0,0,1-.76-.27,16.36,16.36,0,0,1-1.83.42l2.36.82c.14.06.19.13.19.21s-.24.23-.61.31a15.44,15.44,0,0,1-1.14,1.66h4.33v2.06H120a19.9,19.9,0,0,0,6.74,3.91c-1.28,1.24-1.47,1.65-1.61,2a22.47,22.47,0,0,1-2-1Zm-2.25-8.35A16.4,16.4,0,0,1,117.72,84v2.25h-2.48V84.07a24.36,24.36,0,0,1-3.13,2.61Zm-5.56,3v-1h-2.77v1Zm0,2.69v-1h-2.77v1Zm0-13.55c-.61,0-1.83.11-2.58.13a11.34,11.34,0,0,1,1.19,1.74l-1.15.44h2.54Zm4,1.77a9.36,9.36,0,0,0,1.45-2.38,27.32,27.32,0,0,1-3,.4v2.52h3.06Zm1.3,9.09v-1h-2.83v1Zm-2.83,1.64v1h2.83v-1Z"/><path class="cls-2" d="M144.38,87.33a20.06,20.06,0,0,1-1.4,6.09c-.67,1.21-1.62,1.72-4.31,1.72-.46,0-.75,0-1.07,0a6,6,0,0,0-.63-2.5,11,11,0,0,0,2.06.21c1.22,0,1.91-.17,2.31-3.34h-7.58a14.24,14.24,0,0,1-1,2,7.29,7.29,0,0,0-2.52-.77,25.26,25.26,0,0,0,2.33-4.83h-4.68V83.78h19.21v2.08H135.23c-.4,1-.44,1.15-.57,1.47Zm-.14-11v6.11H130.76V76.37Zm-10.9,2.08v1.89h8.29V78.45Z"/><path class="cls-3" d="M203.6,98.16h-4.8v-17h-5.38V77.62c2.69-.13,5.25-.45,6.37-4.67h3.81Z"/><path class="cls-4" d="M605,61a4.05,4.05,0,0,1,4,4v40a4.05,4.05,0,0,1-4,4H295a4.05,4.05,0,0,1-4-4V65a4.05,4.05,0,0,1,4-4H605m0-6H295a10,10,0,0,0-10,10v40a10,10,0,0,0,10,10H605a10,10,0,0,0,10-10V65a10,10,0,0,0-10-10Z"/><path class="cls-2" d="M397.12,86.22c.17.1.27.21.27.33s-.27.23-.54.21a26.51,26.51,0,0,1-4.35,5.48,15.2,15.2,0,0,0-2.41-1.78,16,16,0,0,0,4.6-5.67Zm1.32-9.91,2.8.1c.27,0,.46.06.46.25s-.17.23-.36.32V80.8h7.06v2.56h-7.06V91.3c0,1.45,0,3.17-3.38,3.17-.38,0-1,0-1.43-.09a8,8,0,0,0-.9-2.81,15.07,15.07,0,0,0,1.91.19c.9,0,.9-.32.9-1.64V83.36h-7.07V80.8h7.07ZM405,84.66A28.27,28.27,0,0,1,409.32,90c-.71.54-1.72,1.49-2.16,1.91a28.56,28.56,0,0,0-4.26-5.63Z"/><path class="cls-2" d="M430.07,84v3H412V84Z"/><path class="cls-2" d="M439.58,77.48c.21,0,.49,0,.49.27s-.21.34-.38.4V83.3c0,5.33-2.37,7.72-5.23,10a9.17,9.17,0,0,0-2.37-2c4-2.54,4.55-4.92,4.55-7.81V77.33Zm5.21-.19c.23,0,.4,0,.4.23s-.21.3-.4.4v11a22,22,0,0,0,6-5.85,7.94,7.94,0,0,0,1.4,2.6,31.36,31.36,0,0,1-6,5.9c-1.75,1.26-1.93,1.41-2.48,1.87l-1.93-1.26c0-.57.08-1.09.08-1.66V77.15Z"/><path class="cls-2" d="M471.84,79.18V92.75c0,1,0,2.35-2.84,2.35l-1.55,0a5.79,5.79,0,0,0-.95-2.81,13.06,13.06,0,0,0,1.91.23c.34,0,.78,0,.78-.88V88.9a6.62,6.62,0,0,0-1.62,1.81,9.62,9.62,0,0,1-4.49-4.89,13.74,13.74,0,0,1-4.7,5.35,5.81,5.81,0,0,0-1.53-2v5.83h-2.67V79.18h7.47v-3.4l2.8.15c.1,0,.46,0,.46.27s-.23.34-.55.42v2.31c0,.06,0,.19,0,.25Zm-15,9.7a8.6,8.6,0,0,0,4.74-7.2h-4.74Zm7.51-7.2a7,7,0,0,0,1.26,3.88,10.38,10.38,0,0,0,3.57,3V81.68Z"/><path class="cls-2" d="M493.28,79.33c-5.25,0-9.91,4.28-9.91,8.13,0,2.45,1.72,4.05,6.17,4.38A15.58,15.58,0,0,0,488.22,95c-3.19-.71-7.67-2.54-7.67-7.3,0-2.82,1.6-5.23,4.41-7.39a88.61,88.61,0,0,0-9.57,1.32l-.4-3.38a13.12,13.12,0,0,0,1.37.06,82.79,82.79,0,0,0,16.37-2Zm-3.51,3.38A28.51,28.51,0,0,1,491.6,85a15.4,15.4,0,0,0-1.41,1.22,18.28,18.28,0,0,0-1.78-2.34Zm2-1.55a14.29,14.29,0,0,1,1.91,2.22,11.11,11.11,0,0,0-1.37,1.2,16.89,16.89,0,0,0-1.84-2.37Z"/><path class="cls-2" d="M505.21,91.82c5-.94,6.23-4.64,6.23-6.84a5.34,5.34,0,0,0-5.35-5.48c-.71,7.83-3.74,13.46-5.9,13.46-1.62,0-4.45-2.65-4.45-6.41a10.09,10.09,0,0,1,10-9.61c4.47,0,8.48,3,8.48,8a9.26,9.26,0,0,1-2.48,6.36,11.45,11.45,0,0,1-4.72,3A13.37,13.37,0,0,0,505.21,91.82Zm-6.8-5.46c0,1.79.94,3.19,1.59,3.19s1.2-1.42,1.53-2.26A19.91,19.91,0,0,0,503.11,80,7.29,7.29,0,0,0,498.41,86.36Z"/><path class="cls-2" d="M521.25,84v5.86c.15,1.59.44,2.64,3.51,2.64,7.58,0,8.52,0,11.21-.48a5.31,5.31,0,0,0-.88,2.56h-9.76c-3,0-4.18-.46-5.21-1.93-.44.4-1.37,1.2-2.29,1.91a1.62,1.62,0,0,1,0,.3c0,.16-.06.33-.23.33s-.25-.15-.34-.29L516,92.49A16.44,16.44,0,0,0,518.67,91V86.32h-2.14V84ZM518,75.91a20,20,0,0,1,3.69,3.1c-.54.51-.86.87-1.83,1.89a26.58,26.58,0,0,0-3.42-3.19Zm9.3,12.66h-2.14v3.19h-2.36V80.86h3.49c-.94-.71-1.51-1.07-2-1.36l1.15-1.2h-2.56v-2h9.57l.93,1.1a28,28,0,0,1-4,3.5h4.77v8.8c0,1.57-.93,2.14-3.34,2.18a5.88,5.88,0,0,0-.72-2.2,10.18,10.18,0,0,0,1.12.08c.58,0,.58-.25.58-.5v-.65h-2.22V91.4h-2.35Zm0-5.84h-2.14V84h2.14Zm0,2.92h-2.14v1.22h2.14ZM526,78.3c.61.46,1.55,1.13,1.87,1.37a13.77,13.77,0,0,0,1.74-1.37ZM529.61,84h2.22V82.73h-2.22Zm0,2.92h2.22V85.65h-2.22Z"/><path class="cls-2" d="M544.5,76.64c.34,0,.48.07.48.3s-.29.31-.46.35a64.1,64.1,0,0,0-.61,9.43c0,3.61.34,5,2.29,5,3.57,0,6.74-4.26,7.6-6.11A13.92,13.92,0,0,0,555.92,88c-3.42,5.5-7.51,6.72-10,6.72-4.77,0-4.92-4.54-4.92-8.74,0-1.32.23-7.16.23-8.35,0-.86,0-1,0-1.43Z"/><path class="cls-2" d="M574.55,95h-2.5v-.77H564V95h-2.46V88c-.67.42-1.32.78-2,1.14a6.84,6.84,0,0,0-1.78-2,21.16,21.16,0,0,0,6.53-4.07H558.4V81.09h4.31a11.13,11.13,0,0,0-1.18-1.61l1.13-.55c-.35,0-2,.06-2.28.06a7.21,7.21,0,0,0-.68-2.16c.55,0,3.7.06,3.93.06a43.11,43.11,0,0,0,6.72-.56,17.25,17.25,0,0,0,3.34-.84l1.49,1.8c.17.21.23.3.23.46s-.13.19-.25.19a2.58,2.58,0,0,1-.76-.27,16.36,16.36,0,0,1-1.83.42l2.36.82c.14.06.19.13.19.21s-.24.23-.61.31a15.44,15.44,0,0,1-1.14,1.66h4.33v2.06h-6.24a19.9,19.9,0,0,0,6.74,3.91c-1.28,1.24-1.47,1.65-1.61,2a22.47,22.47,0,0,1-2-1Zm-2.25-8.35A16.4,16.4,0,0,1,569.22,84v2.25h-2.48V84.07a24.36,24.36,0,0,1-3.13,2.61Zm-5.56,3v-1H564v1Zm0,2.69v-1H564v1Zm0-13.55c-.61,0-1.83.11-2.58.13a11.34,11.34,0,0,1,1.19,1.74l-1.15.44h2.54Zm4,1.77a9.36,9.36,0,0,0,1.45-2.38,27.32,27.32,0,0,1-3,.4v2.52h3.06Zm1.3,9.09v-1h-2.83v1Zm-2.83,1.64v1h2.83v-1Z"/><path class="cls-2" d="M595.88,87.33a20.06,20.06,0,0,1-1.4,6.09c-.67,1.21-1.62,1.72-4.31,1.72-.46,0-.75,0-1.07,0a6,6,0,0,0-.63-2.5,11,11,0,0,0,2.06.21c1.22,0,1.91-.17,2.31-3.34h-7.58a14.24,14.24,0,0,1-1,2,7.29,7.29,0,0,0-2.52-.77,25.26,25.26,0,0,0,2.33-4.83h-4.68V83.78h19.21v2.08H586.73c-.4,1-.44,1.15-.57,1.47Zm-.14-11v6.11H582.26V76.37Zm-10.9,2.08v1.89h8.29V78.45Z"/><path class="cls-3" d="M333.49,85.55c0,4.51-1.18,13.31-10.62,13.31s-10.62-8.76-10.62-13.31c0-4.35,1.09-13.31,10.62-13.31S333.49,81,333.49,85.55Zm-16.31,0c0,1.38,0,9.28,5.69,9.28s5.66-7.9,5.66-9.28,0-9.28-5.66-9.28S317.18,84.05,317.18,85.55Z"/><path class="cls-3" d="M350.74,98.16h-4.8v-17h-5.37V77.62c2.69-.13,5.25-.45,6.37-4.67h3.8Z"/><path class="cls-3" d="M264.64,82v4h-9.28V82Z"/><path class="cls-3" d="M37.17,147.11l-.48.45L32,142.84l-4.69,4.73-.48-.45,4.68-4.78-4.72-4.78.48-.45L32,141.9l4.69-4.84.48.44-4.72,4.84Zm-10.38-4.8a.82.82,0,1,1,.24.57A.78.78,0,0,1,26.79,142.31Zm4.34-4.2a.82.82,0,1,1,.24.57A.78.78,0,0,1,31.13,138.11Zm0,8.35a.82.82,0,1,1,.24.58A.78.78,0,0,1,31.13,146.46Zm4.33-4.15a.82.82,0,0,1,.81-.82.75.75,0,0,1,.57.24.81.81,0,0,1,0,1.15.75.75,0,0,1-.57.24.82.82,0,0,1-.81-.81Z"/><path class="cls-3" d="M44.56,147.48a4.74,4.74,0,0,1-3.62-1.4,6.52,6.52,0,0,1,0-7.85,4.67,4.67,0,0,1,3.6-1.43,7.34,7.34,0,0,1,3.41.93v1.49h-.1a5.23,5.23,0,0,0-3.39-1.34A3.18,3.18,0,0,0,41.91,139a4.75,4.75,0,0,0-.95,3.14,4.61,4.61,0,0,0,1,3.12,3.22,3.22,0,0,0,2.57,1.13,5.12,5.12,0,0,0,1.66-.28A5.85,5.85,0,0,0,47.88,145H48v1.5a11.05,11.05,0,0,1-2,.78A6.79,6.79,0,0,1,44.56,147.48Z"/><path class="cls-3" d="M57,147.29H49v-1.15l6.33-8H49.27V137h7.56v1.11l-6.39,8.08H57Z"/><path class="cls-3" d="M65.3,141.43H63.75v-1.86H65.3Zm0,5.86H63.75v-1.87H65.3Z"/><path class="cls-3" d="M83.55,147.32H72.81v-1h9.56v-8H72.94v-.95H83.55Z"/><path class="cls-3" d="M98.39,146.93l-.49,1A51.59,51.59,0,0,0,87,146l.2-1c.83,0,1.91.13,3.24.29s2.56.36,3.68.58S96.66,146.49,98.39,146.93Zm-.27-8.81-.41,1a55.14,55.14,0,0,0-9.5-1.63l.23-.95c1.46.12,2.9.29,4.32.5S96,137.62,98.12,138.12ZM96.84,142l-.31,1a37.68,37.68,0,0,0-3.82-.89q-1.8-.32-4.26-.51l.19-.95A48.29,48.29,0,0,1,96.84,142Z"/><path class="cls-3" d="M111.79,147.52h-11.2v-.9h6.78l.82-6.27h-6v-.87h7.25l-1,7.14h3.34Z"/><path class="cls-3" d="M126.88,147H114.1v-1.09h12.78Zm-.85-8.06H115.09v-1H126Z"/><path class="cls-3" d="M135.55,142.11a6.05,6.05,0,0,1-.57,2.81,4.79,4.79,0,0,1-1.8,1.84,9.79,9.79,0,0,1-3.15,1.15l-.37-1a7.69,7.69,0,0,0,3.41-1.51,3.79,3.79,0,0,0,1.26-3.07v-.71h-6.2v-1h12.79v1h-5.37Zm4.53-4.2H128.93V137h11.15Z"/><path class="cls-3" d="M149.52,148.13H148.4v-5.52a21.71,21.71,0,0,1-5.15,1.94l-.35-.88a17.68,17.68,0,0,0,5.46-2.23,11.62,11.62,0,0,0,3.37-3.09l1.08.4a9.71,9.71,0,0,1-1.66,1.88,17.92,17.92,0,0,1-1.63,1.25Z"/><path class="cls-3" d="M160.2,141.57l-1.12.48a32.32,32.32,0,0,0-2.59-4.75l1-.51A45.82,45.82,0,0,1,160.2,141.57Zm7.59-3.88A10.43,10.43,0,0,1,158,148l-.34-1c3-.51,5.2-1.6,6.59-3.26a10.42,10.42,0,0,0,2.31-6.12Zm-.6-.49-.79.35a14.09,14.09,0,0,0-1-1.92l.74-.34A14.23,14.23,0,0,1,167.19,137.2Zm2-.27-.78.33a13.37,13.37,0,0,0-1-1.9l.71-.32A15.75,15.75,0,0,1,169.16,136.93Z"/><path class="cls-3" d="M182.12,142.77H170.81v-1h11.31Z"/><path class="cls-3" d="M196.78,141.1a12.22,12.22,0,0,1-3,3.47,13.56,13.56,0,0,1-3.81,2.17,19.81,19.81,0,0,1-4.66,1l-.24-1.05a17.9,17.9,0,0,0,4-.82,11.72,11.72,0,0,0,3-1.43,14.41,14.41,0,0,0,2.07-1.66,11.14,11.14,0,0,0,1.7-2.26Zm-6-1.73-.77.89a37.15,37.15,0,0,0-4.87-2.53l.59-.86A28.88,28.88,0,0,1,190.82,139.37Z"/><path class="cls-3" d="M210.66,148.28h-1.35a9.7,9.7,0,0,1,0-12.73h1.35v.07a8,8,0,0,0-1.83,2.53,9,9,0,0,0,0,7.54,8.07,8.07,0,0,0,1.83,2.54Z"/><path class="cls-3" d="M218.83,147.29h-5.49v-.94h2.15v-7.08h-2.15v-.84a3.37,3.37,0,0,0,1.8-.36,1.39,1.39,0,0,0,.61-1.11h1v9.39h2.11Z"/><path class="cls-3" d="M227.71,140.16c0,.06.2.31.47.78a5.41,5.41,0,0,1,.54,1.26,4.52,4.52,0,0,1,.14,1v.06a4.69,4.69,0,0,1-.09.94,3,3,0,0,1-.27.74,1.62,1.62,0,0,1-.43.5,1.46,1.46,0,0,1-.55.26,4.6,4.6,0,0,1-.87.06h-.32l-.16-.89c.41,0,.69,0,.87,0a.74.74,0,0,0,.44-.16,1,1,0,0,0,.28-.51,3.64,3.64,0,0,0,.1-.89,4.4,4.4,0,0,0-.33-1.6,4.93,4.93,0,0,0-.73-1.38v0s0-.05,0-.11a.29.29,0,0,1,0-.11q.25-.6.6-1.71a7.53,7.53,0,0,0,.35-1.38h-1.93V148.2h-1V136.13h4l.2.27c-.11.49-.31,1.18-.59,2.07A9.64,9.64,0,0,1,227.71,140.16Zm1.21,1-.18-.77.79-.13V135.8h1v1.41h1.79V138h-1.79v2.1l1.92-.41,0,.73C231.91,140.56,230.72,140.82,228.92,141.16Zm6.41,6.41h-4.84v.49h-1v-5.93h2.4l.43-1.11c.13,0,.47.08,1,.15-.14.34-.29.66-.44,1h3.5V148h-1Zm0-3.21v-1.47h-4.84v1.47Zm-4.84,2.38h4.84v-1.63h-4.84Zm2.61-11h1v1.68a13.72,13.72,0,0,0,2.45-1l.54.71a16.9,16.9,0,0,1-3,1v1.52a.43.43,0,0,0,.1.31.39.39,0,0,0,.26.14c.11,0,.41,0,.9,0,.32,0,.52,0,.6,0a.71.71,0,0,0,.28-.12c.1-.06.18-.24.22-.54a5.65,5.65,0,0,0,.07-.95l.78.11v1.29a.9.9,0,0,1-.39.81,4,4,0,0,1-1.82.25,7.74,7.74,0,0,1-1-.06,1.14,1.14,0,0,1-.73-.3.85.85,0,0,1-.25-.63Z"/><path class="cls-3" d="M254.16,147.18h-9.39v.74h-1v-8.31h3.37v-2.37H243v-.84h12.82v.84H251v2.37h4.17v8.31h-1Zm-9.39-.83h9.39v-5.94H251V143a.49.49,0,0,0,.1.34.35.35,0,0,0,.27.13l.56,0h.15a.5.5,0,0,0,.44-.22,3.36,3.36,0,0,0,.16-1.43l.79.07v1.36a1,1,0,0,1-.18.61.86.86,0,0,1-.49.33,3.82,3.82,0,0,1-1.05.1c-.84,0-1.34-.11-1.51-.32a1.21,1.21,0,0,1-.26-.79v-2.76H248.1A6.54,6.54,0,0,1,246,145l-.61-.55a5.92,5.92,0,0,0,1.76-4h-2.33Zm3.36-6.74H250v-2.37h-1.85v2.37Z"/><path class="cls-3" d="M267.87,147.29H261V146c.73-.63,1.54-1.36,2.45-2.2a13.65,13.65,0,0,0,2-2.2,3.29,3.29,0,0,0,.66-1.9,1.62,1.62,0,0,0-.55-1.31,2.3,2.3,0,0,0-1.52-.47,4.9,4.9,0,0,0-2.75.89h-.07v-1.34a6.68,6.68,0,0,1,2.86-.65,3.7,3.7,0,0,1,2.45.75,2.56,2.56,0,0,1,.9,2.06,4,4,0,0,1-.23,1.34,4.34,4.34,0,0,1-.72,1.23,14.29,14.29,0,0,1-1.16,1.28c-.45.45-1.49,1.37-3.11,2.75h5.65Z"/><path class="cls-3" d="M276.71,141.17A12,12,0,0,1,273.1,147l-.83-.66a11.24,11.24,0,0,0,2.16-2.76A10.92,10.92,0,0,0,275.5,141Zm3.08,6.72h-1.2v-8.4h-5.72v-1h5.72v-2.29h1.2v2.29h5.58v1h-5.58Zm6.26-1.66-.93.74a10.9,10.9,0,0,1-2.06-2.76,15.34,15.34,0,0,1-1.36-3.08l1.11-.24A14.07,14.07,0,0,0,286.05,146.23Z"/><path class="cls-3" d="M298.77,142.77H287.46v-1h11.31Z"/><path class="cls-3" d="M304.43,140.13a20.68,20.68,0,0,1-.14,2.63,6.14,6.14,0,0,1-.65,2,7.75,7.75,0,0,1-1.29,1.79,6.39,6.39,0,0,1-1.66,1.27l-.5-.87a6.58,6.58,0,0,0,1.58-1.39,6.08,6.08,0,0,0,1.11-2,12.24,12.24,0,0,0,.39-3.6V137h1.16Zm9.73,2.43a8.66,8.66,0,0,1-2.7,3.25,10.94,10.94,0,0,1-3.62,1.88l-.5-.47V136.58h1.15v9.65a7.31,7.31,0,0,0,2.45-1.39,9.78,9.78,0,0,0,2.37-2.88Z"/><path class="cls-3" d="M318.68,141.9a9.71,9.71,0,0,1-2.38,6.38H315v-.06a7.89,7.89,0,0,0,1.82-2.54,8.88,8.88,0,0,0,0-7.54,8,8,0,0,0-1.82-2.53v-.08h1.34A9.76,9.76,0,0,1,318.68,141.9Z"/><path class="cls-3" d="M37.17,171.11l-.48.45L32,166.84l-4.69,4.73-.48-.45,4.68-4.78-4.72-4.78.48-.45L32,165.9l4.69-4.84.48.44-4.72,4.84Zm-10.38-4.8a.82.82,0,1,1,.24.57A.78.78,0,0,1,26.79,166.31Zm4.34-4.2a.82.82,0,1,1,.24.57A.78.78,0,0,1,31.13,162.11Zm0,8.35a.82.82,0,1,1,.24.58A.78.78,0,0,1,31.13,170.46Zm4.33-4.15a.82.82,0,0,1,.81-.82.75.75,0,0,1,.57.24.81.81,0,0,1,0,1.15.75.75,0,0,1-.57.24.82.82,0,0,1-.81-.81Z"/><path class="cls-3" d="M48.21,171.29H46.53l-4-4.61-1,1v3.64H40.26V161h1.28v5.34l4.9-5.34H48l-4.56,4.86Z"/><path class="cls-3" d="M56,165.43H54.47v-1.86H56Zm0,5.86H54.47v-1.87H56Z"/><path class="cls-3" d="M75.82,167.26l-5.77.56.37,4.18-1.17.1-.38-4.17-6.07.59-.1-1,6.08-.59-.3-3.41-5.19.42-.06-1,5.16-.42-.21-2.31,1.16-.14.22,2.36,5-.4.07,1-5,.4.31,3.4,5.78-.57Z"/><path class="cls-3" d="M80.75,167.4l-1.07.35a22.06,22.06,0,0,0-1.65-3.9l1-.36c.39.68.67,1.21.83,1.57S80.29,166.2,80.75,167.4Zm7.19-4.14q-.51,4.26-2.55,6.29a9.44,9.44,0,0,1-5.6,2.51l-.31-.91c2.6-.37,4.43-1.27,5.5-2.68a9.93,9.93,0,0,0,1.84-5.31Zm-3.86,3.49-1.08.36a21,21,0,0,0-1.66-3.91l1-.38c.51,1,.83,1.6,1,1.93S83.66,165.74,84.08,166.75Z"/><path class="cls-3" d="M103.42,171.15l-1,.76a67.88,67.88,0,0,0-5-4.64,21,21,0,0,1-6.65,4.58l-.46-.89a18.61,18.61,0,0,0,5.49-3.63,14.15,14.15,0,0,0,3.85-5.4H91.89v-1h9l.25.23a10,10,0,0,1-1.1,2.67,16,16,0,0,1-1.89,2.64C99.13,167.3,100.9,168.85,103.42,171.15Zm-1.16-9.85-.79.35a14.14,14.14,0,0,0-1-1.92l.75-.34A14.5,14.5,0,0,1,102.26,161.3Zm1.87-.43-.79.33a13.78,13.78,0,0,0-1-1.89l.71-.34A18,18,0,0,1,104.13,160.87Z"/><path class="cls-3" d="M116.83,164.25a13.14,13.14,0,0,1-.22,1.91,8.9,8.9,0,0,1-.73,1.89,5.42,5.42,0,0,1-1.71,2,8.18,8.18,0,0,1-2.77,1.29,16.23,16.23,0,0,1-3.92.53l-.2-1a11,11,0,0,0,5.92-1.48,5.73,5.73,0,0,0,2.39-4.23h-9.93v-1Zm-.47-2.42H106.21v-1h10.15Z"/><path class="cls-3" d="M127,172h-1.22v-6.81a26.15,26.15,0,0,1-6.4,2.38l-.36-.93a22.78,22.78,0,0,0,7-2.87,14.28,14.28,0,0,0,3.85-3.56l1.12.44a14.88,14.88,0,0,1-4,3.75Z"/><path class="cls-3" d="M144.78,161a14.87,14.87,0,0,1-.85,4.93,7.63,7.63,0,0,1-3.27,4,13.52,13.52,0,0,1-6.1,1.93l-.28-1a12.78,12.78,0,0,0,6.3-2.23q2.67-1.89,3-6.59H134v-1Z"/><path class="cls-3" d="M150.92,165.57l-1.12.48a31.4,31.4,0,0,0-2.59-4.75l1-.51A44.23,44.23,0,0,1,150.92,165.57Zm7.59-3.88A10.41,10.41,0,0,1,148.76,172l-.34-1q4.5-.76,6.58-3.26a10.42,10.42,0,0,0,2.31-6.12Zm-.6-.49-.79.35a14.09,14.09,0,0,0-1-1.92l.74-.34A14.23,14.23,0,0,1,157.91,161.2Zm2-.27-.79.33a13.37,13.37,0,0,0-1-1.9l.71-.32A17.33,17.33,0,0,1,159.89,160.93Z"/><path class="cls-3" d="M172.84,166.77H161.53v-1h11.31Z"/><path class="cls-3" d="M187.5,165.1a12.06,12.06,0,0,1-3,3.47,13.56,13.56,0,0,1-3.81,2.17,19.81,19.81,0,0,1-4.66,1l-.24-1.05a18.11,18.11,0,0,0,4-.82,12.05,12.05,0,0,0,3-1.43,14.86,14.86,0,0,0,2.06-1.66,11.14,11.14,0,0,0,1.71-2.26Zm-6-1.73-.77.89a37.15,37.15,0,0,0-4.87-2.53l.59-.86A28.54,28.54,0,0,1,181.54,163.37Z"/><path class="cls-3" d="M201.38,172.28H200a9.73,9.73,0,0,1,0-12.73h1.35v.07a7.85,7.85,0,0,0-1.82,2.53,8.88,8.88,0,0,0,0,7.54,7.89,7.89,0,0,0,1.82,2.54Z"/><path class="cls-3" d="M210.37,168.32h-1.51v3h-1.23v-3h-5v-1.43l5-5.9h1.18v6.32h1.51Zm-2.74-1v-4.82l-4.1,4.82Z"/><path class="cls-3" d="M218.44,164.16c0,.06.2.31.46.78a4.67,4.67,0,0,1,.54,1.26,4,4,0,0,1,.14,1v.06a4.69,4.69,0,0,1-.09.94,2.38,2.38,0,0,1-.27.74,1.48,1.48,0,0,1-.42.5,1.62,1.62,0,0,1-.55.26,4.75,4.75,0,0,1-.87.06h-.32l-.16-.89c.4,0,.69,0,.86,0a.74.74,0,0,0,.44-.16,1,1,0,0,0,.28-.51,3.21,3.21,0,0,0,.1-.89,4.6,4.6,0,0,0-.32-1.6,5.51,5.51,0,0,0-.73-1.38v0a.62.62,0,0,0,0-.11.45.45,0,0,1,0-.11c.16-.4.36-1,.59-1.71a7.53,7.53,0,0,0,.35-1.38h-1.93V172.2h-1V160.13h4l.2.27c-.12.49-.31,1.18-.59,2.07A10.57,10.57,0,0,1,218.44,164.16Zm1.2,1-.17-.77.78-.13V159.8h1v1.41H223V162h-1.8v2.1l1.93-.41,0,.73C222.64,164.56,221.45,164.82,219.64,165.16Zm6.41,6.41h-4.84v.49h-1v-5.93h2.4L223,165c.14,0,.47.08,1,.15-.14.34-.28.66-.44,1h3.5V172h-1Zm0-3.21v-1.47h-4.84v1.47Zm-4.84,2.38h4.84v-1.63h-4.84Zm2.61-11h1v1.68a13.55,13.55,0,0,0,2.46-1l.53.71a16.63,16.63,0,0,1-3,1v1.52a.48.48,0,0,0,.1.31.39.39,0,0,0,.26.14c.11,0,.41,0,.9,0a5.77,5.77,0,0,0,.6,0,.71.71,0,0,0,.28-.12c.11-.06.18-.24.23-.54a7,7,0,0,0,.06-.95l.79.11v1.29a.88.88,0,0,1-.4.81,4,4,0,0,1-1.82.25,7.86,7.86,0,0,1-1-.06,1.11,1.11,0,0,1-.72-.3.86.86,0,0,1-.26-.63Z"/><path class="cls-3" d="M244.88,171.18h-9.39v.74h-1v-8.31h3.37v-2.37h-4.08v-.84h12.83v.84h-4.86v2.37h4.17v8.31h-1Zm-9.39-.83h9.39v-5.94h-3.15V167a.49.49,0,0,0,.1.34.37.37,0,0,0,.28.13l.55,0h.15a.52.52,0,0,0,.45-.22,3.63,3.63,0,0,0,.15-1.43l.79.07v1.36a1,1,0,0,1-.17.61.89.89,0,0,1-.5.33,3.69,3.69,0,0,1-1,.1c-.84,0-1.35-.11-1.52-.32a1.21,1.21,0,0,1-.26-.79v-2.76h-1.89a6.5,6.5,0,0,1-2.15,4.57l-.61-.55a5.87,5.87,0,0,0,1.76-4h-2.33Zm3.37-6.74h1.85v-2.37h-1.85v2.37Z"/><path class="cls-3" d="M251.74,170.86v-1.37h.11a5.15,5.15,0,0,0,2.87.91,2.54,2.54,0,0,0,1.75-.59,2.13,2.13,0,0,0,.66-1.66,1.77,1.77,0,0,0-.57-1.45,3,3,0,0,0-1.86-.46h-.6v-1.05h.46a2.81,2.81,0,0,0,1.74-.48,1.54,1.54,0,0,0,.63-1.32,1.29,1.29,0,0,0-.55-1.12,2.59,2.59,0,0,0-1.52-.39,5,5,0,0,0-2.75.89H252v-1.34a6.61,6.61,0,0,1,2.87-.65,4,4,0,0,1,2.46.66,2.25,2.25,0,0,1,.29,3.3,2.59,2.59,0,0,1-1.45.83v.11a2.41,2.41,0,0,1,2.25,2.59,3,3,0,0,1-1,2.32,3.83,3.83,0,0,1-2.65.91A7.42,7.42,0,0,1,251.74,170.86Z"/><path class="cls-3" d="M267.44,165.17a12,12,0,0,1-3.62,5.79l-.83-.66a11.24,11.24,0,0,0,2.16-2.76,11,11,0,0,0,1.08-2.58Zm3.07,6.72h-1.2v-8.4h-5.72v-1h5.72v-2.29h1.2v2.29h5.59v1h-5.59Zm6.26-1.66-.93.74a11.4,11.4,0,0,1-2.06-2.76,15.34,15.34,0,0,1-1.36-3.08l1.11-.24A14.07,14.07,0,0,0,276.77,170.23Z"/><path class="cls-3" d="M289.49,166.77H278.18v-1h11.31Z"/><path class="cls-3" d="M295.16,164.13a18.75,18.75,0,0,1-.15,2.63,5.91,5.91,0,0,1-.65,2,8,8,0,0,1-1.28,1.79,6.74,6.74,0,0,1-1.66,1.27l-.51-.87a6.4,6.4,0,0,0,1.58-1.39,6.08,6.08,0,0,0,1.11-2,12.24,12.24,0,0,0,.39-3.6V161h1.17Zm9.72,2.43a8.66,8.66,0,0,1-2.7,3.25,10.9,10.9,0,0,1-3.61,1.88l-.5-.47V160.58h1.15v9.65a7.31,7.31,0,0,0,2.45-1.39A9.76,9.76,0,0,0,304,166Z"/><path class="cls-3" d="M309.4,165.9a9.71,9.71,0,0,1-2.38,6.38h-1.34v-.06a8.07,8.07,0,0,0,1.83-2.54,9,9,0,0,0,0-7.54,8.14,8.14,0,0,0-1.83-2.53v-.08H307A9.76,9.76,0,0,1,309.4,165.9Z"/></svg>