<svg xmlns="http://www.w3.org/2000/svg" viewBox="0 0 155 30"><defs><style>.a18733f9-a54b-402c-9568-fc4f17dd7264{fill:#00b4dc;}</style></defs><title>link_campaign</title><g id="eb5246fb-48be-44f3-bfd2-ce917d474858" data-name="レイヤー 2"><g id="fd9d1cdd-7c7e-4aca-8382-1a18bf77bf3c" data-name="コンテンツ"><path class="a18733f9-a54b-402c-9568-fc4f17dd7264" d="M150,1a4,4,0,0,1,4,4V25a4,4,0,0,1-4,4H5a4,4,0,0,1-4-4V5A4,4,0,0,1,5,1H150m0-1H5A5,5,0,0,0,0,5V25a5,5,0,0,0,5,5H150a5,5,0,0,0,5-5V5a5,5,0,0,0-5-5Z"/><path class="a18733f9-a54b-402c-9568-fc4f17dd7264" d="M34.16,17.21a3.6,3.6,0,0,1-.36.22,2.63,2.63,0,0,0-1-.89v4.83H31.06V12.45h3.11a5.89,5.89,0,0,0-.75-1.23l.94-.23H30.64V9.58h5.48V8.48l1.77.09c.11,0,.25,0,.25.15a.27.27,0,0,1-.07.14L37.89,9v.58h5.5V11H40l.58.07c.21,0,.38.06.38.21s-.21.21-.38.23c-.18.36-.35.7-.49.95h2.86v7.09A1.75,1.75,0,0,1,42.51,21c-.45.47-.93.48-2,.51a2.67,2.67,0,0,0-.51-1.7,6.34,6.34,0,0,0,.82.07c.27,0,.49,0,.49-.51v-4c-.25.54-.47,1-1.4,1h-1.6c-.64,0-1.13-.16-1.13-1V14H35.45l.73.22c.21.07.26.14.26.21s-.21.2-.33.21a4.92,4.92,0,0,1-1.49,2.27h5.24v3.36H35.73v.41H34.16Zm-1.39-.94A3.3,3.3,0,0,0,34.67,14h-1.9ZM35.25,11A9.84,9.84,0,0,1,36,12.25l-.71.2h2.82A8.81,8.81,0,0,0,38.85,11Zm.48,7.12V19h2.56v-.88ZM41.26,14H38.63v.7c0,.26,0,.36.36.36h.55c.27,0,.39-.11.49-.81a4,4,0,0,0,1.23.62Z"/><path class="a18733f9-a54b-402c-9568-fc4f17dd7264" d="M49.34,10.89V12.1H44.63V10.89ZM54,14.51c.12,0,.22.07.22.16s-.14.16-.36.23v1.2a4.7,4.7,0,0,0,1.66,2.67A8.75,8.75,0,0,0,57.38,20a3.57,3.57,0,0,0-1.05,1.35,7.16,7.16,0,0,1-3-2.84,5.94,5.94,0,0,1-3.17,2.91,3.82,3.82,0,0,0-1-1.25V21.2H47.74v-.56H46.52v.72H45V16.51h4.12V20a5.36,5.36,0,0,0,2.21-1.34c.94-1,.92-2.48.91-4.25ZM48.85,9.06v1.17H45.3V9.06Zm0,3.71V14H45.3V12.77Zm0,1.88v1.17H45.3V14.65Zm-1.09,4.63V17.81H46.52v1.47Zm6.19-10.7c.16,0,.27,0,.27.16S54,9,53.82,9c0,.24-.07,1.24-.07,1.46a4,4,0,0,0,.8,1.66A7,7,0,0,0,57.48,14a3.83,3.83,0,0,0-1.07,1.3,7.68,7.68,0,0,1-3.24-2.52,6,6,0,0,1-3.1,2.46,4.12,4.12,0,0,0-1-1.28c2.62-.85,3.11-2.16,3.11-4.33,0-.44,0-.66,0-1.05ZM51.8,15.67c.17,0,.25.1.25.18s-.21.25-.4.25a8.29,8.29,0,0,1-.72,2.31A3.66,3.66,0,0,0,49.37,18a7.88,7.88,0,0,0,.91-2.62Zm-.08-6.15c.1,0,.22,0,.22.15s-.11.17-.35.24a12,12,0,0,1-.53,2.26,3.85,3.85,0,0,0-1.51-.32,8.83,8.83,0,0,0,.57-2.58ZM57,9.83a.21.21,0,0,1,.14.19c0,.06,0,.17-.21.17a.83.83,0,0,1-.24,0,10.69,10.69,0,0,1-1.24,1.74A5.13,5.13,0,0,0,54.16,11,7.2,7.2,0,0,0,55.5,9Zm-.17,6c.1,0,.2.1.2.22s-.21.23-.39.23a9.06,9.06,0,0,1-1,1.59,4,4,0,0,0-1.26-.81,8.58,8.58,0,0,0,1-1.89Z"/><path class="a18733f9-a54b-402c-9568-fc4f17dd7264" d="M63.18,9l1.91-.25c.07,0,.28,0,.28.13s-.09.19-.21.29l.28,1.91,3.35-.42L69,12.36l-3.29.44L66,14.65,70.78,14,71,15.8l-4.75.61.66,4.51L65,21.26l-.67-4.6-5.06.66L59,15.53l5-.63-.26-1.85-3.59.48L60,11.73l3.53-.43Z"/><path class="a18733f9-a54b-402c-9568-fc4f17dd7264" d="M75.91,11.22l1.65-.2c.13,0,.3,0,.3.14s-.1.17-.2.25l.41,2.1,3.62-.71a1.3,1.3,0,0,0,.68-.37l1.17.89c-.47.57-2.18,3.41-2.55,4a14.31,14.31,0,0,0-1.55-.75c.14-.18.45-.62.78-1.09s.49-.73.61-.93l-2.46.53,1.11,5.65-1.61.38-1.13-5.66-3,.64-.45-1.61,3.1-.62Z"/><path class="a18733f9-a54b-402c-9568-fc4f17dd7264" d="M87.28,9.09A15.41,15.41,0,0,1,91,11.5a11.52,11.52,0,0,0-1.17,1.62,14,14,0,0,0-3.68-2.38Zm-1,9.84a16.56,16.56,0,0,0,10.52-7.6A8.53,8.53,0,0,0,98,13c-.91,1.4-3.54,5.36-10.16,7.74,0,.14,0,.31-.23.31s-.19-.11-.26-.24Z"/><path class="a18733f9-a54b-402c-9568-fc4f17dd7264" d="M99.06,15.33a16.72,16.72,0,0,0,2.59-2.62c1.64-2,2.19-2.39,3-2.39s1.29.41,2.89,2.37a31.29,31.29,0,0,0,4.8,4.91,17.85,17.85,0,0,0-1.26,1.71,55.38,55.38,0,0,1-5-5.52c-1.07-1.31-1.15-1.43-1.53-1.43s-.59.27-1.28,1.08-2,2.4-2.49,3.17c0,.15,0,.32-.18.32s-.11,0-.2-.14Zm12.19-5.45A1.31,1.31,0,1,1,110,8.6,1.28,1.28,0,0,1,111.25,9.88Zm-2,0a.65.65,0,1,0,1.3,0,.64.64,0,0,0-.64-.64A.66.66,0,0,0,109.29,9.88Z"/><path class="a18733f9-a54b-402c-9568-fc4f17dd7264" d="M127.06,14v2H115V14Z"/><path class="a18733f9-a54b-402c-9568-fc4f17dd7264" d="M130.68,9.09a15.41,15.41,0,0,1,3.67,2.41,11.52,11.52,0,0,0-1.17,1.62,14,14,0,0,0-3.68-2.38Zm-1,9.84a16.56,16.56,0,0,0,10.52-7.6A8.53,8.53,0,0,0,141.42,13c-.91,1.4-3.54,5.36-10.16,7.74,0,.14,0,.31-.23.31s-.19-.11-.26-.24Z"/><polygon class="a18733f9-a54b-402c-9568-fc4f17dd7264" points="15 20 15 10 20 15 15 20"/></g></g></svg>