<svg id="レイヤー_1" data-name="レイヤー 1" xmlns="http://www.w3.org/2000/svg" viewBox="0 0 270 50"><defs><style>.cls-1{fill:#ff5064;}</style></defs><title>アートボード 13</title><path class="cls-1" d="M260,2a8,8,0,0,1,8,8V40a8,8,0,0,1-8,8H10a8,8,0,0,1-8-8V10a8,8,0,0,1,8-8H260m0-2H10A10,10,0,0,0,0,10V40A10,10,0,0,0,10,50H260a10,10,0,0,0,10-10V10A10,10,0,0,0,260,0Z"/><path class="cls-1" d="M84.18,31.6V25.74l2.95.17c.36,0,.72.05.72.34s-.36.36-.6.43v9.17H84.18V34.48H69.9v1.37H66.82V25.72l3,.17c.24,0,.65.05.65.31s-.29.34-.6.43v5h5.54V24.54H67.78V15.28l3.27.19c.12,0,.46,0,.46.31s-.29.34-.58.41v5.52h4.51V14l3,.21c.33,0,.72.05.72.34s-.34.38-.65.48v6.72h4.53V15.28l3.27.19c.14,0,.48,0,.48.29s-.34.36-.58.43v8.35h-7.7V31.6Z"/><path class="cls-1" d="M94.11,33.16c.53,0,1.25-.12,3.17-.43v-4H94.4a19.54,19.54,0,0,1-2.23,7,8.5,8.5,0,0,0-2.59-1.2c1.41-2.32,2.25-4.65,2.25-10.87v-9H111v5.78H94.74v3.89c0,.67-.08,1.58-.1,2H98V24.52H95.31V22.33H98V20.68l2.67.17c.57,0,.81.19.81.38s-.48.36-.74.38v.72h3.65V20.68l2.71.19c.41,0,.77.1.77.36s-.36.36-.77.43v.67h3.7v2.19h-3.7v1.73h4.7V28.7h-1.58l.62.52a.54.54,0,0,1,.22.34c0,.22-.19.29-.62.26a23.56,23.56,0,0,1-2.21,1.92,12,12,0,0,0,4,1.9,6.26,6.26,0,0,0-1.7,2.38,15.4,15.4,0,0,1-6.39-4.54,10.31,10.31,0,0,0-.38,2.57c-1.23.26-5.35,1.15-8.16,1.56-.1.26-.27.43-.48.43s-.29-.14-.36-.38Zm.63-16.42v1.44h13.34V16.74Zm5.37,15.51c1.08-.19,3-.55,4-.82a12.57,12.57,0,0,1-1.87-2.73h-2.12Zm.58-6h3.65V24.52h-3.65Zm4.49,2.45a8.8,8.8,0,0,0,1,1.34,19.34,19.34,0,0,0,1.44-1.34Z"/><path class="cls-1" d="M120.44,35.87h-3V29c-1,.89-1.78,1.49-2.38,1.94a6.54,6.54,0,0,0-1.9-2.47c2.57-1.51,5.81-4.61,6.84-7h-5.88V18.69h3.32V14.05l3,.1c.33,0,.45.22.45.34s-.12.24-.43.4v3.8h2.47l1.32,1.25a22.24,22.24,0,0,1-2.64,4.53,18.68,18.68,0,0,0,3.68,3,8.87,8.87,0,0,0-1.88,2.23,18.18,18.18,0,0,1-3-2.59ZM123.83,24V21.06h4.22V14l3.24.14c.19,0,.36.1.36.26s-.17.29-.5.39v6.26h4.24V24h-4.24v8.35h4.77v2.76H122.31V32.32h5.74V24Z"/><path class="cls-1" d="M151.26,35.49H147.8V24.09a42,42,0,0,1-7.34,3.67A10.79,10.79,0,0,0,138,24.88a33.51,33.51,0,0,0,16.66-11.21l2.88,2.21c.14.12.21.21.21.33s-.24.32-.43.32a1.31,1.31,0,0,1-.43-.08,39.45,39.45,0,0,1-5.64,5.24Z"/><path class="cls-1" d="M160.59,25.89A29.36,29.36,0,0,0,165,21.4c2.79-3.36,3.75-4.11,5.19-4.11s2.21.7,4.94,4.08a54.19,54.19,0,0,0,8.23,8.41,25.3,25.3,0,0,0-2.16,2.95,98.4,98.4,0,0,1-8.52-9.46c-1.82-2.28-2-2.45-2.61-2.45s-1,.43-2.19,1.85c-1,1.23-3.38,4.11-4.27,5.43,0,.26,0,.55-.31.55-.12,0-.19-.1-.34-.24Zm17.57-9.82a12.27,12.27,0,0,1,2.57,2.57c-.29.29-1,1.06-1.44,1.58a18.78,18.78,0,0,0-2.54-2.61Zm2.43-2.23a21.32,21.32,0,0,1,2.49,2.45,12.49,12.49,0,0,0-1.41,1.56,21,21,0,0,0-2.5-2.57Z"/><path class="cls-1" d="M192,14.87A26.3,26.3,0,0,1,198.27,19a22,22,0,0,0-2,2.78A24.24,24.24,0,0,0,190,17.7Zm-1.7,16.87a28.4,28.4,0,0,0,18-13,14.44,14.44,0,0,0,2.08,2.81c-1.56,2.4-6.07,9.19-17.4,13.27,0,.24-.07.53-.4.53-.17,0-.32-.19-.44-.41Z"/><path class="cls-1" d="M222.66,20.68a35.64,35.64,0,0,1,8.66,5.81c-.93,1-1.27,1.39-2.3,2.61a33.25,33.25,0,0,0-7.59-5.37V35.44H218v-21l3.41.19c.24,0,.46.05.46.27s-.31.33-.46.36v7.2Z"/><polygon class="cls-1" points="45 35 45 15 55 25 45 35"/></svg>