<?xml version="1.0" encoding="utf-8"?>
<!-- Generator: Adobe Illustrator 23.0.1, SVG Export Plug-In . SVG Version: 6.00 Build 0)  -->
<svg version="1.1" id="レイヤー_1" xmlns="http://www.w3.org/2000/svg" xmlns:xlink="http://www.w3.org/1999/xlink" x="0px"
	 y="0px" width="273.911px" height="19.97px" viewBox="0 0 273.911 19.97" style="enable-background:new 0 0 273.911 19.97;"
	 xml:space="preserve">
<style type="text/css">
	.st0{fill:#FFFFFF;}
</style>
<g>
	<path class="st0" d="M15.505,16.057v3.385H0V0.527h15.193v3.385H4.32V8.16h9.601v3.24H4.32v4.657H15.505z"/>
	<path class="st0" d="M32.569,0.527h4.944l-6.36,9.169l6.769,9.746h-4.944l-4.32-6.192l-4.296,6.192h-4.945l6.769-9.746L19.8,0.527
		h4.968l3.889,5.593L32.569,0.527z"/>
	<path class="st0" d="M55.873,11.521h-9.145v7.921h-4.32V0.527h4.32v7.153h9.145V0.527h4.296v18.915h-4.296V11.521z"/>
	<path class="st0" d="M70.8,19.442h-4.464V0.527H70.8V19.442z"/>
	<path class="st0" d="M77.04,19.442V0.527h10.177c3.696,0,5.953,2.017,5.953,4.849c0,2.761-1.92,3.528-2.856,3.912
		c0.864,0.265,1.272,0.433,1.824,0.864c1.08,0.816,1.8,2.112,1.8,3.817c0,3.24-2.544,5.473-6.217,5.473H77.04z M81.36,8.4h4.896
		c1.776,0,2.304-1.368,2.304-2.4c0-0.815-0.36-2.184-2.304-2.184H81.36V8.4z M81.36,16.154h4.872c1.536,0,3.072-0.696,3.072-2.616
		c0-2.113-1.872-2.449-3.072-2.449H81.36V16.154z"/>
	<path class="st0" d="M104.039,19.442h-4.464V0.527h4.464V19.442z"/>
	<path class="st0" d="M119.927,19.442h-4.344V4.056h-6.384V0.527h17.113v3.528h-6.385V19.442z"/>
	<path class="st0" d="M139.703,19.97c-4.873,0-9.505-3.288-9.505-9.986c0-6.696,4.632-9.984,9.505-9.984
		c4.824,0,9.505,3.24,9.505,9.984C149.208,16.73,144.527,19.97,139.703,19.97z M134.639,9.984c0,5.33,3.168,6.385,5.064,6.385
		c1.68,0,5.064-0.84,5.064-6.385c0-5.473-3.312-6.385-5.064-6.385C137.975,3.6,134.639,4.512,134.639,9.984z"/>
	<path class="st0" d="M170.88,16.585c0,2.064,0.384,2.28,0.744,2.473v0.384h-4.561c-0.192-0.504-0.48-1.176-0.48-2.424v-1.944
		c0-2.833-2.424-2.833-3.096-2.833h-4.992v7.201h-4.32V0.527h10.2c4.824,0,6.696,2.473,6.696,5.137c0,1.296-0.504,2.473-1.224,3.337
		c-0.744,0.863-1.632,1.199-2.593,1.536c0.984,0.144,1.465,0.216,2.017,0.624c1.248,0.888,1.608,2.184,1.608,3.36V16.585z
		 M158.496,9.024h5.4c1.32,0,2.88-0.816,2.88-2.592c0-1.585-1.248-2.521-2.761-2.521h-5.52V9.024z"/>
	<path class="st0" d="M180.046,13.658c0.217,2.16,1.896,2.616,3.912,2.616c0.648,0,3.217,0,3.217-1.921
		c0-1.031-0.84-1.464-3.961-2.52c-4.344-1.488-7.08-2.4-7.08-6.097c0-1.488,0.672-5.736,7.488-5.736c6.601,0,7.32,4.32,7.585,5.929
		h-4.44c-0.048-0.721-0.504-1.297-0.624-1.44c-0.265-0.336-0.72-0.912-2.64-0.912c-2.16,0-2.904,0.816-2.904,1.68
		c0,1.345,1.08,1.729,3.72,2.616c5.448,1.872,7.296,3.097,7.296,6.001c0,1.944-1.319,6.097-7.704,6.097
		c-3.024,0-7.944-1.128-8.305-6.313H180.046z"/>
	<path class="st0" d="M207.093,19.442V0.527h4.32v15.386h9.697v3.528H207.093z"/>
	<path class="st0" d="M231.021,19.442h-4.464V0.527h4.464V19.442z"/>
	<path class="st0" d="M241.173,13.658c0.217,2.16,1.896,2.616,3.913,2.616c0.647,0,3.216,0,3.216-1.921
		c0-1.031-0.84-1.464-3.96-2.52c-4.345-1.488-7.081-2.4-7.081-6.097c0-1.488,0.672-5.736,7.488-5.736
		c6.602,0,7.321,4.32,7.586,5.929h-4.441c-0.047-0.721-0.504-1.297-0.623-1.44c-0.265-0.336-0.721-0.912-2.641-0.912
		c-2.16,0-2.904,0.816-2.904,1.68c0,1.345,1.08,1.729,3.721,2.616c5.447,1.872,7.296,3.097,7.296,6.001
		c0,1.944-1.319,6.097-7.704,6.097c-3.024,0-7.945-1.128-8.305-6.313H241.173z"/>
	<path class="st0" d="M267.526,19.442h-4.345V4.056h-6.384V0.527h17.113v3.528h-6.385V19.442z"/>
</g>
</svg>
