<svg id="レイヤー_1" data-name="レイヤー 1" xmlns="http://www.w3.org/2000/svg" viewBox="0 0 127.3 22.44"><defs><style>.cls-1{fill:#fff;}</style></defs><title>アートボード 8</title><path class="cls-1" d="M17.07,17.55V12l3.62.21c.34,0,.67.05.67.31s-.31.34-.6.44v9.33H17.07V21H3.67v1.24H0V12l3.55.19c.39,0,.72.05.72.31s-.41.39-.6.43v4.64H8.5V11.16H.86V1.49l3.87.21c.14,0,.48,0,.48.32s-.27.31-.58.4V7.78H8.5V.19l3.62.27c.41,0,.72,0,.72.31s-.21.33-.62.5V7.78H16V1.49l4,.21c.2,0,.46,0,.46.29s-.31.34-.6.43v8.74H12.22v6.39Z"/><path class="cls-1" d="M47.19,15.82c.16.12.21.21.21.33,0,.27-.24.29-.57.29a23,23,0,0,1-2,1.83A11,11,0,0,0,48,19.54a7.91,7.91,0,0,0-2,2.81,15,15,0,0,1-6-4.08,12.56,12.56,0,0,0-.29,2.3c-1.89.38-6.26,1.22-8.23,1.49-.1.19-.22.38-.43.38s-.31-.14-.36-.38L30,19.18c.48-.05,2.62-.39,3.05-.43V15.31H30.5a20.68,20.68,0,0,1-2.13,6.63,8.66,8.66,0,0,0-3.07-1.37,14.67,14.67,0,0,0,1.77-4.9,36.33,36.33,0,0,0,.39-5.73V.84H46.9V6.89h-16v3.69c0,.25-.05,1.4-.09,1.85h2.64V11h-2V8.42h2V7l3.09.17c.22,0,.91.12.91.43,0,.13-.12.36-.74.44v.4h3.1V7l3.14.2c.15,0,.89.09.89.38s-.19.36-.79.46v.4H46.9V11H43.06v1.46h4.46v2.88h-1ZM30.91,3.29v1H43.47v-1Zm5.47,14.93c.68-.12,2.5-.46,3-.58a14.74,14.74,0,0,1-1.6-2.33h-1.4Zm.34-5.79h3.1V11h-3.1Zm4.75,2.88a6.93,6.93,0,0,0,1,1.13,14.93,14.93,0,0,0,1.32-1.13Z"/><path class="cls-1" d="M66,7.15V.31l3.91.17c.12,0,.29.07.29.24s-.24.31-.48.38V7.15h3.86v3.48H69.7v7.88h4.56v3.31H60.41V18.51H66V10.63H62v-3a16.82,16.82,0,0,1-1.8,3,19.88,19.88,0,0,0,3.36,2.92,10.66,10.66,0,0,0-2.21,2.62A13.58,13.58,0,0,1,58.87,14V22.3H55.32V15.91c-1,.82-1.37,1.11-1.94,1.52a7,7,0,0,0-2.16-3c2.54-1.46,5.56-4.39,6.4-6.34H52.34V4.78h3V.31l3.55.1c.15,0,.39.05.39.31s-.1.24-.39.43V4.78h2.31l1.53,1.48c-.07.15-.38.77-.43.89Z"/><path class="cls-1" d="M100.37,9.36v4H78.7v-4Z"/><path class="cls-1" d="M118.73,22.15c-.67,0-2.31,0-2.31-1.53V18.53h-3.26l1.3.55c.19.1.55.24.55.51s-.48.38-.94.4a12.84,12.84,0,0,1-7.82,2.45A8.77,8.77,0,0,0,105,19.51a5.51,5.51,0,0,0,.89.1c.7,0,3.63-.22,5-1.08h-3.22V10h16.8v7a6.84,6.84,0,0,0,2.86,1.27c-.15,1.18-.51,4-2.62,4ZM115.44,3.07V4.54a13.74,13.74,0,0,0,2-4.54l3.29.77c.16,0,.28.12.28.24,0,.29-.36.43-.69.45,0,.2-.15.44-.19.6h6.74V4.85h-8c-.14.21-.31.5-.79,1.17h7.34V9h-7.56V6.29c-.12.19-.43.57-.57.79a7.89,7.89,0,0,0-1.83-1.34V6.82h-3v.86h3.72V9.46H105.31v-9H115.9v1.8h-3.46v.84Zm-5.83,0V2.23h-1.39v.84Zm-1.39,1.44v.84h4.41V4.51Zm0,2.31v.86h1.39V6.82Zm12.89,5.73v-.76H111v.76ZM111,13.8v.82h10.13V13.8Zm0,2.07v.81h10.13v-.81Zm12.26,3.76c.39,0,.58-.26.75-1.1h-4.13v.55c0,.31.12.55.57.55Z"/></svg>