<svg xmlns="http://www.w3.org/2000/svg" viewBox="0 0 50 49.422"><defs><style>.a{fill-rule:evenodd;}</style></defs><title>SOCB_Facebook</title><path class="a" d="M47.24,0.135H2.76A2.743,2.743,0,0,0,0,2.863V46.83a2.744,2.744,0,0,0,2.76,2.728H26.706V30.418H20.19V22.96h6.516v-5.5c0-6.384,3.944-9.86,9.706-9.86a54.026,54.026,0,0,1,5.823.294v6.671l-4,0c-3.133,0-3.74,1.471-3.74,3.631V22.96h7.473L41,30.418H34.5V49.558H47.24A2.744,2.744,0,0,0,50,46.83V2.863A2.744,2.744,0,0,0,47.24.135Z" transform="translate(0 -0.135)"/></svg>
