<svg xmlns="http://www.w3.org/2000/svg" viewBox="0 0 50 50"><title>instagram</title><path d="M49.85,14.693a18.35,18.35,0,0,0-1.162-6.069A12.255,12.255,0,0,0,45.8,4.2a12.255,12.255,0,0,0-4.428-2.884A18.35,18.35,0,0,0,35.307.15C32.641,0.029,31.79,0,25,0S17.359,0.029,14.693.15A18.35,18.35,0,0,0,8.624,1.312,12.255,12.255,0,0,0,4.2,4.2,12.255,12.255,0,0,0,1.312,8.624,18.35,18.35,0,0,0,.15,14.693C0.029,17.359,0,18.21,0,25s0.029,7.641.15,10.307a18.35,18.35,0,0,0,1.162,6.069A12.255,12.255,0,0,0,4.2,45.8a12.255,12.255,0,0,0,4.428,2.884,18.349,18.349,0,0,0,6.069,1.162C17.359,49.971,18.21,50,25,50s7.641-.029,10.307-0.15a18.349,18.349,0,0,0,6.069-1.162,12.783,12.783,0,0,0,7.312-7.312,18.35,18.35,0,0,0,1.162-6.069C49.971,32.641,50,31.79,50,25S49.971,17.359,49.85,14.693ZM45.35,35.1a13.833,13.833,0,0,1-.861,4.642,8.279,8.279,0,0,1-4.745,4.745,13.833,13.833,0,0,1-4.642.861C32.466,45.47,31.676,45.5,25,45.5s-7.466-.025-10.1-0.146a13.833,13.833,0,0,1-4.642-.861,7.746,7.746,0,0,1-2.875-1.87,7.746,7.746,0,0,1-1.87-2.875A13.833,13.833,0,0,1,4.65,35.1C4.53,32.466,4.5,31.675,4.5,25s0.025-7.466.146-10.1a13.833,13.833,0,0,1,.861-4.642,7.746,7.746,0,0,1,1.87-2.875,7.746,7.746,0,0,1,2.875-1.87A13.833,13.833,0,0,1,14.9,4.65C17.534,4.53,18.325,4.5,25,4.5s7.466,0.025,10.1.146a13.833,13.833,0,0,1,4.642.861,7.746,7.746,0,0,1,2.875,1.87,7.746,7.746,0,0,1,1.87,2.875A13.833,13.833,0,0,1,45.35,14.9c0.12,2.636.146,3.427,0.146,10.1S45.47,32.466,45.35,35.1ZM25,12.162A12.838,12.838,0,1,0,37.838,25,12.838,12.838,0,0,0,25,12.162Zm0,21.171A8.333,8.333,0,1,1,33.333,25,8.333,8.333,0,0,1,25,33.333ZM41.345,11.655a3,3,0,1,1-3-3A3,3,0,0,1,41.345,11.655Z" transform="translate(0)"/></svg>
