<svg xmlns="http://www.w3.org/2000/svg" viewBox="0 0 60.708 50.004"><defs><style>.a{fill-rule:evenodd;}</style></defs><title>SOCB_Twitter</title><path class="a" d="M60.708,6.251a24.638,24.638,0,0,1-7.153,1.988,12.634,12.634,0,0,0,5.476-6.984,24.725,24.725,0,0,1-7.909,3.063A12.364,12.364,0,0,0,42.031.332,12.54,12.54,0,0,0,29.576,12.955a12.839,12.839,0,0,0,.322,2.877A35.205,35.205,0,0,1,4.226,2.642,12.75,12.75,0,0,0,8.081,19.5,12.279,12.279,0,0,1,2.44,17.917c0,0.053,0,.105,0,0.158a12.59,12.59,0,0,0,9.991,12.378A12.324,12.324,0,0,1,6.8,30.67,12.491,12.491,0,0,0,18.44,39.436a24.778,24.778,0,0,1-15.469,5.4A24.848,24.848,0,0,1,0,44.663a34.908,34.908,0,0,0,19.092,5.672C42,50.335,54.53,31.1,54.53,14.418q0-.82-0.036-1.633A25.488,25.488,0,0,0,60.708,6.251Z" transform="translate(0 -0.332)"/></svg>