<svg xmlns="http://www.w3.org/2000/svg" width="497" height="1054.55" viewBox="0 0 497 1054.55">
  <g id="txt_apply01_sp" transform="translate(-126.5 -16061.13)">
    <g id="step1" transform="translate(-33.5 1807.149)">
      <g id="グループ_691" data-name="グループ 691" transform="translate(0 -1)">
        <path id="パス_1337" data-name="パス 1337" d="M-59.89-8.72A8.65,8.65,0,0,1-64.01-.88a13.565,13.565,0,0,1-7.48,2,16.7,16.7,0,0,1-7.92-1.6,12.217,12.217,0,0,1-5.64-7.24l5.76-1.84a8.29,8.29,0,0,0,3.44,4.48,8.759,8.759,0,0,0,4.36.92,6.106,6.106,0,0,0,3.76-1.08,3.579,3.579,0,0,0,1.44-3.04,3.353,3.353,0,0,0-1.88-3.04,18.425,18.425,0,0,0-4.56-1.52q-5.8-1.32-7.72-2.48a7.6,7.6,0,0,1-3.84-7.08,7.886,7.886,0,0,1,3.18-6.5,13.173,13.173,0,0,1,8.38-2.5q9.12,0,12.64,7.28l-5.48,2.04a7.44,7.44,0,0,0-3.28-3.32,9.471,9.471,0,0,0-4.12-.76,6.069,6.069,0,0,0-4,1.2,3.066,3.066,0,0,0-1.2,2.44,3.012,3.012,0,0,0,1.6,2.72,15.763,15.763,0,0,0,3.92,1.28q4.64,1.04,5.64,1.36a12.159,12.159,0,0,1,5,2.76A7.76,7.76,0,0,1-59.89-8.72Zm28.52-16.96h-9.68V.72h-6.2v-26.4h-9.52v-5.36h25.4ZM-4.25.72H-26.37V-31.04H-4.25v5.36H-20.29v7.2H-6.17v5.4H-20.29v8.4H-4.25ZM26.67-21.16a9.585,9.585,0,0,1-3.16,7.68A11.521,11.521,0,0,1,15.79-11H8.15V.72H2.07V-31.04H15.79a11.958,11.958,0,0,1,7.64,2.28Q26.67-26.16,26.67-21.16Zm-6.28.12a4.409,4.409,0,0,0-1.28-3.32,6.073,6.073,0,0,0-4.4-1.44H8.15v9.6h6.56a6.038,6.038,0,0,0,4.32-1.44A4.449,4.449,0,0,0,20.39-21.04ZM80.85,1.08H51.03V-6.6H62.01V-35.64l-7.86,6-4.44-6.3L63.03-46.02h7.92V-6.6h9.9Z" transform="translate(251 14301)" fill="#fa6a18"/>
        <path id="パス_1336" data-name="パス 1336" d="M-59.89-8.72A8.65,8.65,0,0,1-64.01-.88a13.565,13.565,0,0,1-7.48,2,16.7,16.7,0,0,1-7.92-1.6,12.217,12.217,0,0,1-5.64-7.24l5.76-1.84a8.29,8.29,0,0,0,3.44,4.48,8.759,8.759,0,0,0,4.36.92,6.106,6.106,0,0,0,3.76-1.08,3.579,3.579,0,0,0,1.44-3.04,3.353,3.353,0,0,0-1.88-3.04,18.425,18.425,0,0,0-4.56-1.52q-5.8-1.32-7.72-2.48a7.6,7.6,0,0,1-3.84-7.08,7.886,7.886,0,0,1,3.18-6.5,13.173,13.173,0,0,1,8.38-2.5q9.12,0,12.64,7.28l-5.48,2.04a7.44,7.44,0,0,0-3.28-3.32,9.471,9.471,0,0,0-4.12-.76,6.069,6.069,0,0,0-4,1.2,3.066,3.066,0,0,0-1.2,2.44,3.012,3.012,0,0,0,1.6,2.72,15.763,15.763,0,0,0,3.92,1.28q4.64,1.04,5.64,1.36a12.159,12.159,0,0,1,5,2.76A7.76,7.76,0,0,1-59.89-8.72Zm28.52-16.96h-9.68V.72h-6.2v-26.4h-9.52v-5.36h25.4ZM-4.25.72H-26.37V-31.04H-4.25v5.36H-20.29v7.2H-6.17v5.4H-20.29v8.4H-4.25ZM26.67-21.16a9.585,9.585,0,0,1-3.16,7.68A11.521,11.521,0,0,1,15.79-11H8.15V.72H2.07V-31.04H15.79a11.958,11.958,0,0,1,7.64,2.28Q26.67-26.16,26.67-21.16Zm-6.28.12a4.409,4.409,0,0,0-1.28-3.32,6.073,6.073,0,0,0-4.4-1.44H8.15v9.6h6.56a6.038,6.038,0,0,0,4.32-1.44A4.449,4.449,0,0,0,20.39-21.04ZM80.85,1.08H51.03V-6.6H62.01V-35.64l-7.86,6-4.44-6.3L63.03-46.02h7.92V-6.6h9.9Z" transform="translate(247 14301)"/>
      </g>
      <g id="グループ_1360" data-name="グループ 1360" transform="translate(-3)">
        <path id="長方形_2739" data-name="長方形 2739" d="M4,4V154H493V4H4M0,0H497V158H0Z" transform="translate(163 14307)" fill="#fa6a18"/>
        <rect id="長方形_2740" data-name="長方形 2740" width="473" height="133" transform="translate(174 14319)"/>
      </g>
      <path id="パス_3809" data-name="パス 3809" d="M10.2-14.376l-4.9.768a17.979,17.979,0,0,1-2.5.24l.336,1.824a19.768,19.768,0,0,1,2.4-.528l4.944-.768.864,4.848L4.968-6.96a12.63,12.63,0,0,1-2.376.216L2.9-4.92a12.709,12.709,0,0,1,2.3-.48L11.64-6.432l.984,5.376a19.129,19.129,0,0,1,.288,2.3l1.92-.36a13.022,13.022,0,0,1-.528-2.28L13.32-6.7l6.024-.96c.168-.024.288-.048.552-.1.408-.072.648-.12.744-.12a7.093,7.093,0,0,1,1.056-.12L21.36-9.768a14.748,14.748,0,0,1-2.376.552l-5.952.96L12.12-13.1l5.448-.84c1.488-.24,1.488-.24,2.136-.312l-.336-1.728a11.273,11.273,0,0,1-2.112.48l-5.424.84-.48-2.64a12.368,12.368,0,0,1-.264-2.04l-1.9.312a8.184,8.184,0,0,1,.528,2.04Zm21.96,3.408-2.3.384a11.574,11.574,0,0,1-2.232.216l.336,1.7a9.672,9.672,0,0,1,2.088-.48l2.376-.408,1.68,9.1a8.973,8.973,0,0,1,.216,1.92l1.848-.336a7.786,7.786,0,0,1-.456-1.9L33.984-9.792l7.152-1.176a6.262,6.262,0,0,0,.624-.144,1.515,1.515,0,0,0-.1.216A9.843,9.843,0,0,1,37.32-6.288a4.25,4.25,0,0,1,1.3,1.032,12.29,12.29,0,0,0,4.656-5.64,4.593,4.593,0,0,1,.552-1.056l-1.008-.888a3.4,3.4,0,0,1-1.032.288l-8.064,1.32L33.336-13.3a7.845,7.845,0,0,1-.264-1.8l-1.752.264a6.647,6.647,0,0,1,.456,1.752Zm18.624-4.7a26.5,26.5,0,0,1,5.712,4.7l1.248-1.488a31.265,31.265,0,0,0-5.784-4.512Zm.168,15.6a12.61,12.61,0,0,1,1.44-.384,24.2,24.2,0,0,0,8.952-3.576,21.05,21.05,0,0,0,7.32-9.168A4.807,4.807,0,0,1,67.2-14.616a18.135,18.135,0,0,1-9.792,10.68,20.89,20.89,0,0,1-6.984,1.848ZM72.6-5.448c.288-.384.36-.456.72-.888.96-1.08,3.384-4.056,4.3-5.28,1.056-1.416,1.2-1.536,1.656-1.536.48,0,.576.1,2.16,1.776a92.069,92.069,0,0,0,8.136,7.944c.936.816,1.56,1.344,1.68,1.44a5.181,5.181,0,0,0,.456.408l.912-1.968c-1.848-1.008-6.84-5.544-10.2-9.264-1.728-1.92-2.136-2.208-3.1-2.208-1.08,0-1.7.456-3.048,2.28-2.712,3.456-4.32,5.28-4.9,5.5ZM88.776-17.664a2.73,2.73,0,0,0-2.736,2.712,2.735,2.735,0,0,0,2.736,2.736,2.73,2.73,0,0,0,2.712-2.736A2.694,2.694,0,0,0,88.776-17.664Zm0,1.008a1.711,1.711,0,0,1,1.7,1.7,1.716,1.716,0,0,1-1.7,1.728,1.721,1.721,0,0,1-1.728-1.728A1.716,1.716,0,0,1,88.776-16.656Zm6.672,8.424a26.218,26.218,0,0,1,2.976-.1h13.92a27.455,27.455,0,0,1,2.928.1v-1.944a18.929,18.929,0,0,1-2.9.12H98.424a16.977,16.977,0,0,1-2.976-.144Zm23.5-7.44a26.5,26.5,0,0,1,5.712,4.7l1.248-1.488a31.265,31.265,0,0,0-5.784-4.512Zm.168,15.6a12.61,12.61,0,0,1,1.44-.384A24.2,24.2,0,0,0,129.5-4.032a21.05,21.05,0,0,0,7.32-9.168,4.807,4.807,0,0,1-1.464-1.416,18.135,18.135,0,0,1-9.792,10.68,20.89,20.89,0,0,1-6.984,1.848ZM140.76-5.448c.288-.384.36-.456.72-.888.96-1.08,3.384-4.056,4.3-5.28,1.056-1.416,1.2-1.536,1.656-1.536.48,0,.576.1,2.16,1.776a92.069,92.069,0,0,0,8.136,7.944c.936.816,1.56,1.344,1.68,1.44a5.18,5.18,0,0,0,.456.408l.912-1.968c-1.848-1.008-6.84-5.544-10.2-9.264-1.728-1.92-2.136-2.208-3.1-2.208-1.08,0-1.7.456-3.048,2.28-2.712,3.456-4.32,5.28-4.9,5.5Zm16.176-12.216a2.73,2.73,0,0,0-2.736,2.712,2.735,2.735,0,0,0,2.736,2.736,2.73,2.73,0,0,0,2.712-2.736A2.694,2.694,0,0,0,156.936-17.664Zm0,1.008a1.711,1.711,0,0,1,1.7,1.7,1.716,1.716,0,0,1-1.7,1.728,1.721,1.721,0,0,1-1.728-1.728A1.716,1.716,0,0,1,156.936-16.656Zm6.672,8.424a26.218,26.218,0,0,1,2.976-.1H180.5a27.455,27.455,0,0,1,2.928.1v-1.944a18.929,18.929,0,0,1-2.9.12H166.584a16.977,16.977,0,0,1-2.976-.144Zm27.1-8.688a25.907,25.907,0,0,1,5.9,3.192l.984-1.608a37.386,37.386,0,0,0-5.952-3.024Zm-1.9,5.76a26.5,26.5,0,0,1,6.12,3.288l.936-1.632a38.4,38.4,0,0,0-6.1-3.12ZM189.624.312a7.348,7.348,0,0,1,.936-.24c8.64-1.632,13.584-5.4,16.608-12.672a7.386,7.386,0,0,1-1.488-1.3A17.155,17.155,0,0,1,195.6-3.144a21.791,21.791,0,0,1-6.312,1.488h-.144ZM203.016-18.84a19.406,19.406,0,0,1,2.448,3.816l1.2-.72a19.131,19.131,0,0,0-2.448-3.72Zm2.712-1.272a18.474,18.474,0,0,1,2.472,3.768l1.2-.7a18.343,18.343,0,0,0-2.5-3.72Zm8.448,1.392a13.366,13.366,0,0,1-.336,1.92,39.7,39.7,0,0,0-1.08,9.5A34.4,34.4,0,0,0,213.384-.5c.072.456.1.576.144.96l1.728-.144v-.36a20.921,20.921,0,0,1,1.944-6.6L216.048-7.2a22.3,22.3,0,0,0-1.56,4.68c-.1-1.272-.144-2.688-.144-4.56a35.479,35.479,0,0,1,.72-7.512,34.1,34.1,0,0,1,1.008-3.84Zm4.944,4.536a31.967,31.967,0,0,0,3.84.24,40.516,40.516,0,0,0,5.16-.312q1.584-.216,1.656-.216l-.12-1.7a25.753,25.753,0,0,1-6.432.648,16.3,16.3,0,0,1-4.08-.36Zm1.752,4.68c-1.488,1.7-2.088,3-2.088,4.464a3.392,3.392,0,0,0,.72,2.208c1.032,1.248,2.76,1.824,5.5,1.824a24.761,24.761,0,0,0,4.92-.48c.48-.072.528-.1.84-.12l-.24-1.848a15.8,15.8,0,0,1-5.52.84c-3.1,0-4.608-.864-4.608-2.64a5.576,5.576,0,0,1,1.8-3.528Zm33.576-8.208c-.432.168-.432.168-2.04.168H239.52a17.59,17.59,0,0,1-2.856-.168v1.848a23.173,23.173,0,0,1,2.832-.12h13.632a12.733,12.733,0,0,1-2.688,3.576,10.39,10.39,0,0,1-3.792,2.28,4.715,4.715,0,0,1,1.176,1.368,14.365,14.365,0,0,0,7.008-6.84,4.307,4.307,0,0,1,.576-.96Zm-10.464,4.176a6.338,6.338,0,0,1,.1,1.3c0,4.68-.936,7.128-3.48,9.168a11.278,11.278,0,0,1-4.392,2.208,4.694,4.694,0,0,1,1.1,1.608,13.074,13.074,0,0,0,6.144-4.152c1.632-2.064,2.3-4.44,2.376-8.448a8.7,8.7,0,0,1,.1-1.68Zm22.3-6.024a10.884,10.884,0,0,1-1.512,3.5,17.78,17.78,0,0,1-6.024,6.576,3.569,3.569,0,0,1,1.344,1.248,23.137,23.137,0,0,0,5.736-6.24l8.088-.144a22.052,22.052,0,0,1-4.128,8.04A20.415,20.415,0,0,1,261.312-.5a3.619,3.619,0,0,1,1.2,1.416,23.5,23.5,0,0,0,8.352-6,25.391,25.391,0,0,0,4.8-9.024c.264-.864.264-.888.48-1.176L275.112-16.3a2.358,2.358,0,0,1-1.248.168c-6.936.12-6.936.12-7.248.192a22.968,22.968,0,0,0,1.1-2.136,4.584,4.584,0,0,1,.528-.984Zm21.168,6.84-3.048.408c-.816.1-1.656.168-2.064.168h-.36l.216,1.8a15.368,15.368,0,0,1,2.352-.408l2.9-.408v5.784c0,2.448.168,3.192.888,3.96.768.792,2.16,1.128,4.9,1.128A42.747,42.747,0,0,0,298.92-.72c.648-.072.792-.1,1.44-.12l-.12-1.944a27.288,27.288,0,0,1-6.984.84c-1.968,0-2.976-.168-3.48-.6s-.6-.936-.6-3.168v-5.664c2.736-.384,5.808-.816,9.168-1.272.144-.024.192-.024.288-.048.24-.048.336-.072.552-.12a13.281,13.281,0,0,1-5.448,5.568,4.082,4.082,0,0,1,1.44,1.152,18.4,18.4,0,0,0,4.08-3.744,16.171,16.171,0,0,0,1.824-3.072,7.392,7.392,0,0,1,.384-.672l-1.176-.984a2.676,2.676,0,0,1-1.368.336l-9.744,1.3v-3.5a13.759,13.759,0,0,1,.12-2.208h-1.944a13.762,13.762,0,0,1,.1,2.208ZM325.7-1.3a59.685,59.685,0,0,0-7.992-7.2,29.023,29.023,0,0,0,3.96-6.72,4.478,4.478,0,0,1,.672-1.176l-1.008-1.032a4.475,4.475,0,0,1-1.536.192l-8.568.1h-.624a11.279,11.279,0,0,1-1.9-.12l.048,1.944a16.149,16.149,0,0,1,2.472-.192l8.016-.12a4.077,4.077,0,0,0,.576-.024.508.508,0,0,1-.072.168c-.048.12-.072.144-.12.288a26.013,26.013,0,0,1-8.568,10.824,19.32,19.32,0,0,1-4.872,2.76,5.341,5.341,0,0,1,1.176,1.584,30.906,30.906,0,0,0,4.7-2.88,26.052,26.052,0,0,0,4.584-4.3,44.638,44.638,0,0,1,7.68,7.416Z" transform="translate(195.677 14393.001)" fill="#fff"/>
    </g>
    <g id="step2" transform="translate(-33.5 2074.398)">
      <g id="グループ_691-2" data-name="グループ 691" transform="translate(0 -1)">
        <path id="パス_1339" data-name="パス 1339" d="M-59.89-8.72A8.65,8.65,0,0,1-64.01-.88a13.565,13.565,0,0,1-7.48,2,16.7,16.7,0,0,1-7.92-1.6,12.217,12.217,0,0,1-5.64-7.24l5.76-1.84a8.29,8.29,0,0,0,3.44,4.48,8.759,8.759,0,0,0,4.36.92,6.106,6.106,0,0,0,3.76-1.08,3.579,3.579,0,0,0,1.44-3.04,3.353,3.353,0,0,0-1.88-3.04,18.425,18.425,0,0,0-4.56-1.52q-5.8-1.32-7.72-2.48a7.6,7.6,0,0,1-3.84-7.08,7.886,7.886,0,0,1,3.18-6.5,13.173,13.173,0,0,1,8.38-2.5q9.12,0,12.64,7.28l-5.48,2.04a7.44,7.44,0,0,0-3.28-3.32,9.471,9.471,0,0,0-4.12-.76,6.069,6.069,0,0,0-4,1.2,3.066,3.066,0,0,0-1.2,2.44,3.012,3.012,0,0,0,1.6,2.72,15.763,15.763,0,0,0,3.92,1.28q4.64,1.04,5.64,1.36a12.159,12.159,0,0,1,5,2.76A7.76,7.76,0,0,1-59.89-8.72Zm28.52-16.96h-9.68V.72h-6.2v-26.4h-9.52v-5.36h25.4ZM-4.25.72H-26.37V-31.04H-4.25v5.36H-20.29v7.2H-6.17v5.4H-20.29v8.4H-4.25ZM26.67-21.16a9.585,9.585,0,0,1-3.16,7.68A11.521,11.521,0,0,1,15.79-11H8.15V.72H2.07V-31.04H15.79a11.958,11.958,0,0,1,7.64,2.28Q26.67-26.16,26.67-21.16Zm-6.28.12a4.409,4.409,0,0,0-1.28-3.32,6.073,6.073,0,0,0-4.4-1.44H8.15v9.6h6.56a6.038,6.038,0,0,0,4.32-1.44A4.449,4.449,0,0,0,20.39-21.04ZM82.71,1.08H48.21v-4.5A29.916,29.916,0,0,1,56.73-16.5q5.16-4.14,10.2-8.34t5.04-8.4a4.616,4.616,0,0,0-1.71-3.75,7.192,7.192,0,0,0-4.71-1.41q-6.9,0-10.32,6.72L47.07-34.8q5.16-11.64,18.9-11.64,7.26,0,11.4,3.6a11.764,11.764,0,0,1,3.96,9.3,15.592,15.592,0,0,1-4.14,10.62q-1.98,2.22-9.06,7.44a40.737,40.737,0,0,0-9,8.52H82.71Z" transform="translate(251 14301)" fill="#fa6a18"/>
        <path id="パス_1338" data-name="パス 1338" d="M-59.89-8.72A8.65,8.65,0,0,1-64.01-.88a13.565,13.565,0,0,1-7.48,2,16.7,16.7,0,0,1-7.92-1.6,12.217,12.217,0,0,1-5.64-7.24l5.76-1.84a8.29,8.29,0,0,0,3.44,4.48,8.759,8.759,0,0,0,4.36.92,6.106,6.106,0,0,0,3.76-1.08,3.579,3.579,0,0,0,1.44-3.04,3.353,3.353,0,0,0-1.88-3.04,18.425,18.425,0,0,0-4.56-1.52q-5.8-1.32-7.72-2.48a7.6,7.6,0,0,1-3.84-7.08,7.886,7.886,0,0,1,3.18-6.5,13.173,13.173,0,0,1,8.38-2.5q9.12,0,12.64,7.28l-5.48,2.04a7.44,7.44,0,0,0-3.28-3.32,9.471,9.471,0,0,0-4.12-.76,6.069,6.069,0,0,0-4,1.2,3.066,3.066,0,0,0-1.2,2.44,3.012,3.012,0,0,0,1.6,2.72,15.763,15.763,0,0,0,3.92,1.28q4.64,1.04,5.64,1.36a12.159,12.159,0,0,1,5,2.76A7.76,7.76,0,0,1-59.89-8.72Zm28.52-16.96h-9.68V.72h-6.2v-26.4h-9.52v-5.36h25.4ZM-4.25.72H-26.37V-31.04H-4.25v5.36H-20.29v7.2H-6.17v5.4H-20.29v8.4H-4.25ZM26.67-21.16a9.585,9.585,0,0,1-3.16,7.68A11.521,11.521,0,0,1,15.79-11H8.15V.72H2.07V-31.04H15.79a11.958,11.958,0,0,1,7.64,2.28Q26.67-26.16,26.67-21.16Zm-6.28.12a4.409,4.409,0,0,0-1.28-3.32,6.073,6.073,0,0,0-4.4-1.44H8.15v9.6h6.56a6.038,6.038,0,0,0,4.32-1.44A4.449,4.449,0,0,0,20.39-21.04ZM82.71,1.08H48.21v-4.5A29.916,29.916,0,0,1,56.73-16.5q5.16-4.14,10.2-8.34t5.04-8.4a4.616,4.616,0,0,0-1.71-3.75,7.192,7.192,0,0,0-4.71-1.41q-6.9,0-10.32,6.72L47.07-34.8q5.16-11.64,18.9-11.64,7.26,0,11.4,3.6a11.764,11.764,0,0,1,3.96,9.3,15.592,15.592,0,0,1-4.14,10.62q-1.98,2.22-9.06,7.44a40.737,40.737,0,0,0-9,8.52H82.71Z" transform="translate(247 14301)"/>
      </g>
      <g id="グループ_692" data-name="グループ 692" transform="translate(-3)">
        <path id="長方形_2739-2" data-name="長方形 2739" d="M4,4V154H493V4H4M0,0H497V158H0Z" transform="translate(163 14307)" fill="#fa6a18"/>
        <rect id="長方形_2740-2" data-name="長方形 2740" width="473" height="133" transform="translate(174 14319)"/>
      </g>
      <path id="パス_3808" data-name="パス 3808" d="M11.712-17.424H5.376a18.366,18.366,0,0,1-2.424-.12,25.854,25.854,0,0,1,.12,3.24C3.072-5.64,2.64-2.856.84.216a6.316,6.316,0,0,1,1.344,1.1A15.245,15.245,0,0,0,4.056-4.128c.432-2.544.576-5.256.576-11.9H20.088a18.459,18.459,0,0,1,2.592.12v-1.656a16.485,16.485,0,0,1-2.592.144H13.272v-1.248a5.352,5.352,0,0,1,.144-1.536H11.568a7.7,7.7,0,0,1,.144,1.512ZM6.288-.816A23.838,23.838,0,0,0,8.4-9.12L6.888-9.528c-.336,3.672-.864,5.736-2.04,7.848Zm3.864-10.8a11.749,11.749,0,0,1,.144,2.16V-.288c0,1.416.576,1.656,3.96,1.656,2.328,0,3.264-.168,3.768-.744.528-.576.816-2.064.984-5.064a5.543,5.543,0,0,1-1.536-.6v.6a13.757,13.757,0,0,1-.408,3.72c-.24.5-.84.648-2.9.648a7.9,7.9,0,0,1-1.944-.144c-.312-.12-.384-.24-.384-.624V-9.432a11.871,11.871,0,0,1,.144-2.184Zm7.176.264A30.348,30.348,0,0,0,11.5-15.144l-1.008,1.056a21.078,21.078,0,0,1,5.784,3.96Zm5.568,9.5A34.7,34.7,0,0,0,19.968-9.72l-1.392.6a25.529,25.529,0,0,1,2.76,7.944ZM29.784-3.12a13.969,13.969,0,0,1,2.328-.12h2.016a6.617,6.617,0,0,1-2.28,2.088A13.145,13.145,0,0,1,26.856.408a4.344,4.344,0,0,1,.864,1.344A13.588,13.588,0,0,0,32.952-.264a8.021,8.021,0,0,0,2.76-2.976H41.04a10.892,10.892,0,0,1-.456,2.712c-.216.624-.5.792-1.512.792a15.08,15.08,0,0,1-2.664-.312,4.353,4.353,0,0,1,.36,1.464c.96.1,1.8.144,2.5.144,1.392,0,2.088-.288,2.448-.984a12.4,12.4,0,0,0,.792-3.96c.024-.36.048-.48.072-.7A20.642,20.642,0,0,0,46.368-2.5a4.7,4.7,0,0,1,.864-1.344A14.169,14.169,0,0,1,40.7-6.768h3.672a16.6,16.6,0,0,1,2.424.144V-8.16a16.729,16.729,0,0,1-2.448.144H34.536a8.18,8.18,0,0,0,.96-1.368h6.216c.72,0,1.344.024,1.92.072-.048-.576-.072-1.056-.072-1.632v-3c0-.6.024-1.1.072-1.656a16.605,16.605,0,0,1-1.9.072H30.456a16.605,16.605,0,0,1-1.9-.072c.048.6.072,1.1.072,1.656v3c0,.552-.024,1.008-.072,1.632.576-.048,1.176-.072,1.9-.072h3.528a8.179,8.179,0,0,1-1.032,1.368H27.72a16.958,16.958,0,0,1-2.448-.144v1.536A17.3,17.3,0,0,1,27.7-6.768h3.936A17.241,17.241,0,0,1,28.7-4.992a18.449,18.449,0,0,1-3.48,1.272,3.9,3.9,0,0,1,.936,1.272,27.136,27.136,0,0,0,3.624-1.7ZM38.9-6.768A15.844,15.844,0,0,0,41.952-4.44c-.48.024-.48.024-1.728.024H36.216l.168-.5.36-1.2-1.7-.12A4.989,4.989,0,0,1,34.7-4.416H31.992c-.84,0-.984,0-1.656-.048a15.12,15.12,0,0,0,3.072-2.3ZM30.024-14.4H42.168v1.392H30.024Zm0,2.448H42.168v1.464H30.024Zm1.68-6.432h-3.84a17.427,17.427,0,0,1-2.448-.144v1.56a13.578,13.578,0,0,1,2.424-.192H31.7a7.964,7.964,0,0,1-.1,1.152H33.24a5.012,5.012,0,0,1-.072-1.152h5.52a5.358,5.358,0,0,1-.072,1.176h1.632a6.309,6.309,0,0,1-.1-1.176H44.16a13.578,13.578,0,0,1,2.424.192v-1.56a17.427,17.427,0,0,1-2.448.144H40.152v-.24a8.2,8.2,0,0,1,.1-1.416H38.592a8.567,8.567,0,0,1,.1,1.416v.24h-5.52v-.24a8.141,8.141,0,0,1,.072-1.416H31.608a8.269,8.269,0,0,1,.1,1.392ZM67.56-17.04a3.225,3.225,0,0,1-1.536.192H54.216a14.423,14.423,0,0,1-2.712-.168v1.944a16.689,16.689,0,0,1,2.688-.144H66.408C65.04-9.84,62.784-6.408,58.848-3.792a17.832,17.832,0,0,1-5.424,2.544A4.543,4.543,0,0,1,54.6.432,22.04,22.04,0,0,0,62.136-4.08,20.449,20.449,0,0,0,68.16-14.5c.336-1.224.336-1.224.5-1.488Zm17.232,7.032a17.762,17.762,0,0,1-3.72,4.344,21.591,21.591,0,0,1-5.5,3.552,4.27,4.27,0,0,1,1.08,1.3c4.3-2.3,7.7-5.376,9-8.088a1.54,1.54,0,0,0,.12-.264c-.048.7-.1,1.3-.1,1.344l.048,7.152v.1A12.962,12.962,0,0,1,85.656,1.2H87.48a8.549,8.549,0,0,1-.12-1.872l-.12-9.336h2.3a13.11,13.11,0,0,1,2.16.12v-1.656a12.249,12.249,0,0,1-2.16.12H87.216L87.192-13.2v-.384a7.237,7.237,0,0,1,.1-1.32H85.56a8.888,8.888,0,0,1,.12,1.8l.024,1.68H78.648a9.676,9.676,0,0,1-2.136-.144v1.68a12.587,12.587,0,0,1,2.16-.12Zm13.3,1.776a26.218,26.218,0,0,1,2.976-.1h13.92a27.455,27.455,0,0,1,2.928.1v-1.944a18.929,18.929,0,0,1-2.9.12H101.064a16.977,16.977,0,0,1-2.976-.144ZM128.88-19.08a45.54,45.54,0,0,1-1.9,6.912,91.529,91.529,0,0,1-3.624,9.5c-.552.048-1.872.12-2.04.12-.12,0-.12,0-.672-.024l.24,1.992a16.689,16.689,0,0,1,2.04-.264,148.255,148.255,0,0,0,14.76-1.992A32.576,32.576,0,0,1,139.1.408l1.68-.912a62.166,62.166,0,0,0-5.976-10.848l-1.488.816a46.687,46.687,0,0,1,3.7,6.216c-2.832.552-8.472,1.3-11.664,1.512a130.028,130.028,0,0,0,4.992-14.04,9.487,9.487,0,0,1,.648-1.728Zm18.576.36a13.366,13.366,0,0,1-.336,1.92,39.7,39.7,0,0,0-1.08,9.5A34.4,34.4,0,0,0,146.664-.5c.072.456.1.576.144.96l1.728-.144v-.36a20.921,20.921,0,0,1,1.944-6.6L149.328-7.2a22.3,22.3,0,0,0-1.56,4.68c-.1-1.272-.144-2.688-.144-4.56a35.479,35.479,0,0,1,.72-7.512,34.1,34.1,0,0,1,1.008-3.84Zm4.944,4.536a31.967,31.967,0,0,0,3.84.24,40.516,40.516,0,0,0,5.16-.312q1.584-.216,1.656-.216l-.12-1.7a25.753,25.753,0,0,1-6.432.648,16.3,16.3,0,0,1-4.08-.36Zm1.752,4.68c-1.488,1.7-2.088,3-2.088,4.464a3.392,3.392,0,0,0,.72,2.208c1.032,1.248,2.76,1.824,5.5,1.824a24.761,24.761,0,0,0,4.92-.48c.48-.072.528-.1.84-.12l-.24-1.848a15.8,15.8,0,0,1-5.52.84c-3.1,0-4.608-.864-4.608-2.64a5.576,5.576,0,0,1,1.8-3.528Zm21.432,6.168a25.78,25.78,0,0,0,3.336-3.12,36.546,36.546,0,0,0,6.528-9.552c.456-.96.528-1.1.792-1.584l-1.728-.72a23.972,23.972,0,0,1-4.128,7.776,31.009,31.009,0,0,1-4.8,5.3v-7.344a12.717,12.717,0,0,1,.168-2.256H173.88a16.713,16.713,0,0,1,.168,2.28V-4.08a28.147,28.147,0,0,1-6.24,3.744,4.178,4.178,0,0,1,1.176,1.344,33.829,33.829,0,0,0,5.064-3.216V-.816c0,1.68.936,2.064,5.016,2.064,2.616,0,3.912-.144,4.608-.552.936-.528,1.32-1.872,1.632-5.64a4.97,4.97,0,0,1-1.584-.6,20.061,20.061,0,0,1-.264,3.312c-.216,1.272-.432,1.608-1.056,1.8a12.91,12.91,0,0,1-3.144.264c-3,0-3.672-.192-3.672-1.008Zm-1.632-15.576a27.06,27.06,0,0,1,7.1,3.888l.984-1.368a33.361,33.361,0,0,0-7.152-3.72Zm-3.552,6.5a24.486,24.486,0,0,1-1.1,4.776,17.8,17.8,0,0,1-1.608,3.72l1.464.864a32.494,32.494,0,0,0,2.808-8.928Zm14.28.936a20.668,20.668,0,0,1,1.968,3.6A33.969,33.969,0,0,1,188.5-2.688l1.512-.888a38.516,38.516,0,0,0-3.984-8.64ZM195.168-7.3A17.569,17.569,0,0,1,192.5-7.44v1.584a20.5,20.5,0,0,1,2.664-.12h3.288a23.906,23.906,0,0,1-2.64,2.736c2.4.5,4.1.912,5.976,1.464A21.388,21.388,0,0,1,192.36.216a5.512,5.512,0,0,1,.7,1.488C197.9,1.3,200.9.456,203.616-1.224a57.715,57.715,0,0,1,7.92,3.216l1.08-1.32a79.854,79.854,0,0,0-7.68-2.856,10.352,10.352,0,0,0,2.88-3.792h2.64a21.133,21.133,0,0,1,2.688.12V-7.44a17.5,17.5,0,0,1-2.688.144h-9.288c.528-.792.672-.984,1.344-2.16H208.7a24.4,24.4,0,0,1,2.76.1,15.461,15.461,0,0,1-.1-2.112v-1.7a17.651,17.651,0,0,1,.1-2.184,23.905,23.905,0,0,1-2.616.12h-2.856v-2.328h4.488a19.191,19.191,0,0,1,2.664.12v-1.584a18.025,18.025,0,0,1-2.736.144H195.264a17.872,17.872,0,0,1-2.712-.144v1.584a18.771,18.771,0,0,1,2.664-.12h4.2v2.328H196.68a24.4,24.4,0,0,1-2.592-.12,18.41,18.41,0,0,1,.1,2.184v1.728a16.449,16.449,0,0,1-.1,2.088,25.239,25.239,0,0,1,2.76-.1h3.984a12.649,12.649,0,0,1-1.344,2.16Zm10.944,1.32a7.74,7.74,0,0,1-2.832,3.312c-1.824-.552-2.664-.768-4.9-1.272a21.278,21.278,0,0,0,1.824-2.04Zm-5.328-11.592h3.84v2.328h-3.84Zm-1.368,3.552v3.336h-3.768v-3.336Zm1.368,0h3.84v3.336h-3.84Zm5.208,0H209.9v3.336h-3.912ZM225.864-6.6h-7.2a15.614,15.614,0,0,1-2.616-.144v1.512a17.411,17.411,0,0,1,2.616-.12h7.2v1.728h-5.832a14.358,14.358,0,0,1-2.3-.12v1.488a16,16,0,0,1,2.352-.12h5.784V-.408c0,.528-.216.648-1.08.648A20.758,20.758,0,0,1,221.808,0a3.957,3.957,0,0,1,.408,1.512c1.344.072,1.776.1,2.28.1,2.328,0,2.808-.336,2.808-1.992V-2.376h6.432v.984h1.56a14.151,14.151,0,0,1-.144-2.4v-1.56a16.322,16.322,0,0,1,2.544.12V-6.744a12.2,12.2,0,0,1-2.544.144V-7.608a19,19,0,0,1,.072-1.992,23.455,23.455,0,0,1-2.688.1H227.3v-1.56h5.544a14.969,14.969,0,0,1,1.944.1,11.359,11.359,0,0,1-.1-1.608v-1.056a11.708,11.708,0,0,1,.1-1.632,15.369,15.369,0,0,1-1.968.1H227.3v-1.584H234.7a21.469,21.469,0,0,1,2.712.144v-1.584a18.18,18.18,0,0,1-2.76.144H227.3a7.826,7.826,0,0,1,.168-2.16H225.72a9.663,9.663,0,0,1,.144,2.16h-6.912a17.809,17.809,0,0,1-2.736-.144v1.584a20.542,20.542,0,0,1,2.688-.144h6.96v1.584h-4.992a16.019,16.019,0,0,1-1.992-.1,11.938,11.938,0,0,1,.1,1.632v1.056a11.361,11.361,0,0,1-.1,1.608,15.131,15.131,0,0,1,1.968-.1h5.016V-9.5h-5.592a14,14,0,0,1-2.3-.12v1.488a15.191,15.191,0,0,1,2.256-.12h5.64Zm1.44,0V-8.256h6.432V-6.6Zm0,1.248h6.432v1.728H227.3Zm-1.44-8.64v1.776h-5.448v-1.776Zm1.44,0h5.952v1.776H227.3Zm15.624-2.3V-4.824a14.562,14.562,0,0,1-3.12.912l.48,1.656c.264-.12.384-.168.48-.216a45.027,45.027,0,0,0,6.384-2.64V-6.648A28.438,28.438,0,0,1,244.44-5.4V-16.3h.792a11.194,11.194,0,0,1,1.656.1v-1.56a10.629,10.629,0,0,1-1.728.1h-3.192a11.157,11.157,0,0,1-1.752-.1v1.56a11.488,11.488,0,0,1,1.632-.1Zm10.392-1.1a12.96,12.96,0,0,1-.96,2.3h-1.824a18.065,18.065,0,0,1-2.04-.072,16.563,16.563,0,0,1,.1,2.136v7.848c0,.888-.024,1.776-.072,2.3.432-.048,1.176-.072,2.064-.072h7.128l1.224.024h.36a2.788,2.788,0,0,1,.312.024c.048,0,.144.024.24.024-.048-.48-.072-1.32-.072-2.328V-12.96c0-.888.024-1.8.072-2.208a14.377,14.377,0,0,1-1.488.072h-4.416c.288-.6.648-1.392.984-2.3h4.032a17.448,17.448,0,0,1,2.232.12v-1.632a11.225,11.225,0,0,1-2.256.144h-9.072a16.443,16.443,0,0,1-2.352-.144V-17.3a22.108,22.108,0,0,1,2.3-.1Zm-3.264,3.576h8.256v2.352h-8.256Zm0,3.6h8.256V-7.9h-8.256Zm0,3.576h8.256v2.424h-8.256Zm5.232,5.136A21.787,21.787,0,0,0,261.1,1.7,5.917,5.917,0,0,1,262.1.36a16.487,16.487,0,0,1-5.616-2.832ZM250.872-2.4A14.446,14.446,0,0,1,245.256.408a6.039,6.039,0,0,1,1.008,1.3,19.71,19.71,0,0,0,5.88-3.192Zm20.256-13.752a33.582,33.582,0,0,1-5.136-.264l-.024,1.656a4.256,4.256,0,0,1,.528-.024h.384c.888.024,3.144.072,3.528.072a2.658,2.658,0,0,0,.456-.048l-.216.36a23.882,23.882,0,0,1-5.376,6.864l1.344,1.344a7.941,7.941,0,0,1,1.848-1.992c1.944-1.656,3.84-2.544,5.352-2.544,1.128,0,1.7.576,1.9,1.9a18.631,18.631,0,0,0-3.576,1.92c-1.632,1.224-2.448,2.472-2.448,3.792,0,2.472,2.088,3.7,6.384,3.7A37.233,37.233,0,0,0,281.9.1a9.445,9.445,0,0,1,.96-.12l-.216-1.848a20.109,20.109,0,0,1-6.408.936c-3.384,0-4.872-.7-4.872-2.28,0-1.44,1.248-2.568,4.512-4.1a6.3,6.3,0,0,1,.024.72,34.507,34.507,0,0,1-.144,3.456l1.632-.024a5.217,5.217,0,0,1-.048-.864c0-.216,0-.552.024-1.08.024-.48.024-1.008.024-1.32,0-.6,0-.84-.048-1.464a39.848,39.848,0,0,1,6.408-2.112l-.768-1.68a5.28,5.28,0,0,1-1.632.7c-1.056.384-2.424.888-4.176,1.584a2.913,2.913,0,0,0-3.168-2.664,6.387,6.387,0,0,0-3.624,1.176c-.24.168-.24.168-1.1.84a.184.184,0,0,1-.048-.072v-.024a.023.023,0,0,0,.024-.024c.024-.024.144-.12.312-.24.1-.072.576-.624.816-.912a17.7,17.7,0,0,0,2.16-3.408,77.493,77.493,0,0,0,7.92-.624,7.481,7.481,0,0,1,.96-.12l-.144-1.632a33.779,33.779,0,0,1-7.56.912,4.086,4.086,0,0,0-.5.024c.12-.216.432-.864.744-1.632a5.1,5.1,0,0,1,.624-1.3l-1.92-.336a10.186,10.186,0,0,1-1.152,3.288Zm17.952-1.44a13.5,13.5,0,0,1,1.824-.1h3.768a13.051,13.051,0,0,1,1.824.1V-19.1a9.758,9.758,0,0,1-1.824.12H290.9a9.6,9.6,0,0,1-1.824-.12Zm-.84,3.384a14.343,14.343,0,0,1,1.92-.1H295.7a10.774,10.774,0,0,1,1.752.1v-1.56a9.5,9.5,0,0,1-1.92.12H290.16a10.256,10.256,0,0,1-1.92-.12Zm.936,3.36a11.208,11.208,0,0,1,1.728-.1h3.984a11.678,11.678,0,0,1,1.7.1v-1.488a10.3,10.3,0,0,1-1.7.1H290.9a10.819,10.819,0,0,1-1.728-.1Zm0,3.288a11.408,11.408,0,0,1,1.728-.1h3.984a12.33,12.33,0,0,1,1.7.1V-9.048a10.3,10.3,0,0,1-1.7.1H290.9a10.819,10.819,0,0,1-1.728-.1Zm1.68,9.456V.384h4.32v1.2h1.488a15.43,15.43,0,0,1-.12-1.9V-3.768a18.551,18.551,0,0,1,.072-1.872,9.62,9.62,0,0,1-1.728.072H291.24a15.8,15.8,0,0,1-1.92-.1,12.322,12.322,0,0,1,.12,1.992v3.24A15.853,15.853,0,0,1,289.3,1.9Zm-.024-6.24h4.344v3.48h-4.344Zm9.312-5.544h5.9a22.194,22.194,0,0,1,2.352.1,19.3,19.3,0,0,1-.1-2.232v-4.56c0-1.32.024-1.728.072-2.352a20.213,20.213,0,0,1-2.28.1h-5.808a15.265,15.265,0,0,1-2.208-.144v1.68a14.128,14.128,0,0,1,2.208-.12h6.5v6.168h-6.024a21.427,21.427,0,0,1-2.328-.1,14.545,14.545,0,0,1,.12,2.3V-.984c0,1.08.264,1.488,1.008,1.728a16.852,16.852,0,0,0,3.936.288c3.336,0,4.512-.216,5.088-.984.5-.648.792-1.872,1.056-4.2a6.661,6.661,0,0,1-1.608-.72c-.12,2.28-.36,3.5-.72,3.888-.456.432-1.248.552-3.744.552a17.024,17.024,0,0,1-2.808-.144c-.5-.12-.624-.264-.624-.744Zm21.936-7.1a20.866,20.866,0,0,1-.768,5.232,19.419,19.419,0,0,1-3.7,6.984,20.131,20.131,0,0,1-5.568,4.728,4.3,4.3,0,0,1,1.3,1.416,22.708,22.708,0,0,0,3.024-2.352,22.8,22.8,0,0,0,3.24-3.648,20.674,20.674,0,0,0,3.36-7.776,18.911,18.911,0,0,0,1.512,4.44,22.079,22.079,0,0,0,3.432,5.184,22.493,22.493,0,0,0,4.656,4.1,5.3,5.3,0,0,1,1.344-1.536,19.535,19.535,0,0,1-4.488-3.48,21.45,21.45,0,0,1-3.6-4.968,17.5,17.5,0,0,1-2.04-8.376,12.432,12.432,0,0,1,.1-1.584,11.424,11.424,0,0,1-2.232.144H318.48a9.009,9.009,0,0,1-1.824-.12v1.728c.792-.072,1.368-.12,1.824-.12Z" transform="translate(195.677 14392.999)" fill="#fff"/>
    </g>
    <g id="step3" transform="translate(-33.5 2342.12)">
      <g id="グループ_691-3" data-name="グループ 691" transform="translate(0 -1)">
        <path id="パス_1341" data-name="パス 1341" d="M-59.89-8.72A8.65,8.65,0,0,1-64.01-.88a13.565,13.565,0,0,1-7.48,2,16.7,16.7,0,0,1-7.92-1.6,12.217,12.217,0,0,1-5.64-7.24l5.76-1.84a8.29,8.29,0,0,0,3.44,4.48,8.759,8.759,0,0,0,4.36.92,6.106,6.106,0,0,0,3.76-1.08,3.579,3.579,0,0,0,1.44-3.04,3.353,3.353,0,0,0-1.88-3.04,18.425,18.425,0,0,0-4.56-1.52q-5.8-1.32-7.72-2.48a7.6,7.6,0,0,1-3.84-7.08,7.886,7.886,0,0,1,3.18-6.5,13.173,13.173,0,0,1,8.38-2.5q9.12,0,12.64,7.28l-5.48,2.04a7.44,7.44,0,0,0-3.28-3.32,9.471,9.471,0,0,0-4.12-.76,6.069,6.069,0,0,0-4,1.2,3.066,3.066,0,0,0-1.2,2.44,3.012,3.012,0,0,0,1.6,2.72,15.763,15.763,0,0,0,3.92,1.28q4.64,1.04,5.64,1.36a12.159,12.159,0,0,1,5,2.76A7.76,7.76,0,0,1-59.89-8.72Zm28.52-16.96h-9.68V.72h-6.2v-26.4h-9.52v-5.36h25.4ZM-4.25.72H-26.37V-31.04H-4.25v5.36H-20.29v7.2H-6.17v5.4H-20.29v8.4H-4.25ZM26.67-21.16a9.585,9.585,0,0,1-3.16,7.68A11.521,11.521,0,0,1,15.79-11H8.15V.72H2.07V-31.04H15.79a11.958,11.958,0,0,1,7.64,2.28Q26.67-26.16,26.67-21.16Zm-6.28.12a4.409,4.409,0,0,0-1.28-3.32,6.073,6.073,0,0,0-4.4-1.44H8.15v9.6h6.56a6.038,6.038,0,0,0,4.32-1.44A4.449,4.449,0,0,0,20.39-21.04Zm62.62,8.2q0,7.38-5.16,11.04Q73.17,1.56,65.01,1.56A25.419,25.419,0,0,1,54.15-.48a18.172,18.172,0,0,1-8.28-8.1l8.34-4.2q4.02,6.66,10.26,6.66,4.86,0,7.32-2.1a6.173,6.173,0,0,0,2.16-4.92,5.405,5.405,0,0,0-2.64-4.74q-2.64-1.74-7.44-1.74H56.19v-7.5h7.44q4.38,0,6.72-1.8a5.234,5.234,0,0,0,2.16-4.32,4.945,4.945,0,0,0-1.92-4.02,8.886,8.886,0,0,0-5.7-1.56q-6.66,0-10.92,5.82l-7.5-3.66q5.76-9.78,18.72-9.78,7.68,0,12.06,3.42a9.949,9.949,0,0,1,4.02,8.16,12.739,12.739,0,0,1-1.89,6.99,9.233,9.233,0,0,1-5.01,3.99,11.439,11.439,0,0,1,5.94,3.54A10.933,10.933,0,0,1,83.01-12.84Z" transform="translate(251 14301)" fill="#fa6a18"/>
        <path id="パス_1340" data-name="パス 1340" d="M-59.89-8.72A8.65,8.65,0,0,1-64.01-.88a13.565,13.565,0,0,1-7.48,2,16.7,16.7,0,0,1-7.92-1.6,12.217,12.217,0,0,1-5.64-7.24l5.76-1.84a8.29,8.29,0,0,0,3.44,4.48,8.759,8.759,0,0,0,4.36.92,6.106,6.106,0,0,0,3.76-1.08,3.579,3.579,0,0,0,1.44-3.04,3.353,3.353,0,0,0-1.88-3.04,18.425,18.425,0,0,0-4.56-1.52q-5.8-1.32-7.72-2.48a7.6,7.6,0,0,1-3.84-7.08,7.886,7.886,0,0,1,3.18-6.5,13.173,13.173,0,0,1,8.38-2.5q9.12,0,12.64,7.28l-5.48,2.04a7.44,7.44,0,0,0-3.28-3.32,9.471,9.471,0,0,0-4.12-.76,6.069,6.069,0,0,0-4,1.2,3.066,3.066,0,0,0-1.2,2.44,3.012,3.012,0,0,0,1.6,2.72,15.763,15.763,0,0,0,3.92,1.28q4.64,1.04,5.64,1.36a12.159,12.159,0,0,1,5,2.76A7.76,7.76,0,0,1-59.89-8.72Zm28.52-16.96h-9.68V.72h-6.2v-26.4h-9.52v-5.36h25.4ZM-4.25.72H-26.37V-31.04H-4.25v5.36H-20.29v7.2H-6.17v5.4H-20.29v8.4H-4.25ZM26.67-21.16a9.585,9.585,0,0,1-3.16,7.68A11.521,11.521,0,0,1,15.79-11H8.15V.72H2.07V-31.04H15.79a11.958,11.958,0,0,1,7.64,2.28Q26.67-26.16,26.67-21.16Zm-6.28.12a4.409,4.409,0,0,0-1.28-3.32,6.073,6.073,0,0,0-4.4-1.44H8.15v9.6h6.56a6.038,6.038,0,0,0,4.32-1.44A4.449,4.449,0,0,0,20.39-21.04Zm62.62,8.2q0,7.38-5.16,11.04Q73.17,1.56,65.01,1.56A25.419,25.419,0,0,1,54.15-.48a18.172,18.172,0,0,1-8.28-8.1l8.34-4.2q4.02,6.66,10.26,6.66,4.86,0,7.32-2.1a6.173,6.173,0,0,0,2.16-4.92,5.405,5.405,0,0,0-2.64-4.74q-2.64-1.74-7.44-1.74H56.19v-7.5h7.44q4.38,0,6.72-1.8a5.234,5.234,0,0,0,2.16-4.32,4.945,4.945,0,0,0-1.92-4.02,8.886,8.886,0,0,0-5.7-1.56q-6.66,0-10.92,5.82l-7.5-3.66q5.76-9.78,18.72-9.78,7.68,0,12.06,3.42a9.949,9.949,0,0,1,4.02,8.16,12.739,12.739,0,0,1-1.89,6.99,9.233,9.233,0,0,1-5.01,3.99,11.439,11.439,0,0,1,5.94,3.54A10.933,10.933,0,0,1,83.01-12.84Z" transform="translate(247 14301)"/>
      </g>
      <g id="グループ_692-2" data-name="グループ 692" transform="translate(-3)">
        <path id="長方形_2739-3" data-name="長方形 2739" d="M4,4V194.838H493V4H4M0,0H497V198.838H0Z" transform="translate(163 14307)" fill="#fa6a18"/>
        <rect id="長方形_2740-3" data-name="長方形 2740" width="473" height="173.838" transform="translate(174 14319)"/>
      </g>
      <path id="パス_3807" data-name="パス 3807" d="M18.816-6.408V-16.92h4.056v-3.648H15.048v14.16ZM17.52-7.68H16.344V-19.344h5.232v1.2H17.52Zm10.032-9A26.826,26.826,0,0,1,30.7-9.24l1.776-.744a28.994,28.994,0,0,0-3.216-7.368Zm14.64-.792A11.365,11.365,0,0,1,41.9-15.48C40.872-10.9,39.24-7.488,36.744-4.848A17.725,17.725,0,0,1,30.432-.5,4.072,4.072,0,0,1,31.7.96,21.007,21.007,0,0,0,38.112-3.7a23.8,23.8,0,0,0,5.472-10.968,12.481,12.481,0,0,1,.624-2.28ZM52.824-13.92a23.82,23.82,0,0,1,2.544-.1h9.216a23.82,23.82,0,0,1,2.544.1v-1.944a14.941,14.941,0,0,1-2.568.144H55.392a14.941,14.941,0,0,1-2.568-.144ZM50.4-2.448a21.677,21.677,0,0,1,2.76-.12H66.816a21.448,21.448,0,0,1,2.76.12V-4.464a17.115,17.115,0,0,1-2.784.144H53.184A17.115,17.115,0,0,1,50.4-4.464ZM76.488-12.672A19.8,19.8,0,0,1,78.744-7.3l1.632-.552A26.355,26.355,0,0,0,78-13.176Zm4.944-1.008A21.055,21.055,0,0,1,83.64-8.424l1.584-.552a24.067,24.067,0,0,0-2.328-5.16ZM89.76-13.7v.24a10.087,10.087,0,0,1-.264,1.632,18.108,18.108,0,0,1-2.04,5.16C85.8-3.912,83.544-2.064,79.848-.408a4.855,4.855,0,0,1,1.1,1.344A17.4,17.4,0,0,0,88.9-6a21.608,21.608,0,0,0,2.112-5.376,14.163,14.163,0,0,1,.528-1.944ZM106.2-19.56a10.883,10.883,0,0,1-1.512,3.5A17.781,17.781,0,0,1,98.664-9.48a3.569,3.569,0,0,1,1.344,1.248,23.137,23.137,0,0,0,5.736-6.24l8.088-.144a22.052,22.052,0,0,1-4.128,8.04A20.415,20.415,0,0,1,101.232-.5a3.619,3.619,0,0,1,1.2,1.416,23.5,23.5,0,0,0,8.352-6,25.391,25.391,0,0,0,4.8-9.024c.264-.864.264-.888.48-1.176L115.032-16.3a2.358,2.358,0,0,1-1.248.168c-6.936.12-6.936.12-7.248.192a22.957,22.957,0,0,0,1.1-2.136,4.585,4.585,0,0,1,.528-.984ZM141.624-1.3a59.686,59.686,0,0,0-7.992-7.2,29.022,29.022,0,0,0,3.96-6.72,4.479,4.479,0,0,1,.672-1.176l-1.008-1.032a4.475,4.475,0,0,1-1.536.192l-8.568.1h-.624a11.279,11.279,0,0,1-1.9-.12l.048,1.944a16.149,16.149,0,0,1,2.472-.192l8.016-.12a4.077,4.077,0,0,0,.576-.024.508.508,0,0,1-.072.168c-.048.12-.072.144-.12.288a26.013,26.013,0,0,1-8.568,10.824,19.319,19.319,0,0,1-4.872,2.76,5.341,5.341,0,0,1,1.176,1.584,30.906,30.906,0,0,0,4.7-2.88,26.053,26.053,0,0,0,4.584-4.3,44.639,44.639,0,0,1,7.68,7.416Zm2.544-6.936a26.218,26.218,0,0,1,2.976-.1h13.92a27.455,27.455,0,0,1,2.928.1v-1.944a18.929,18.929,0,0,1-2.9.12H147.144a16.977,16.977,0,0,1-2.976-.144Zm28.272-9.216a2.653,2.653,0,0,1,.024.384,19.036,19.036,0,0,1-.24,2.256,27.794,27.794,0,0,1-2.472,8.328,15.428,15.428,0,0,1-3.48,4.752A5.254,5.254,0,0,1,167.808-.48c3.384-3.528,5.328-8.136,6.336-14.976a8.715,8.715,0,0,1,.312-1.632Zm6.888.36a10.435,10.435,0,0,1,.312,1.584c.936,6.144,3.336,11.688,6.528,15.072a5.19,5.19,0,0,1,1.488-1.344,21.181,21.181,0,0,1-5.448-9.912,29,29,0,0,1-1.1-5.76Zm6.456-2.208a2.73,2.73,0,0,0-2.736,2.712,2.73,2.73,0,0,0,2.736,2.712,2.725,2.725,0,0,0,2.712-2.712A2.694,2.694,0,0,0,185.784-19.3Zm0,1.008a1.711,1.711,0,0,1,1.7,1.7,1.711,1.711,0,0,1-1.7,1.7,1.716,1.716,0,0,1-1.728-1.7A1.716,1.716,0,0,1,185.784-18.288Zm4.7,10.056a26.218,26.218,0,0,1,2.976-.1h13.92a27.455,27.455,0,0,1,2.928.1v-1.944a18.929,18.929,0,0,1-2.9.12H193.464a16.977,16.977,0,0,1-2.976-.144Zm40.9,6.936a59.687,59.687,0,0,0-7.992-7.2,29.022,29.022,0,0,0,3.96-6.72,4.48,4.48,0,0,1,.672-1.176l-1.008-1.032a4.475,4.475,0,0,1-1.536.192l-8.568.1h-.624a11.279,11.279,0,0,1-1.9-.12l.048,1.944a16.149,16.149,0,0,1,2.472-.192l8.016-.12a4.077,4.077,0,0,0,.576-.024.508.508,0,0,1-.072.168c-.048.12-.072.144-.12.288a26.013,26.013,0,0,1-8.568,10.824,19.319,19.319,0,0,1-4.872,2.76,5.341,5.341,0,0,1,1.176,1.584,30.906,30.906,0,0,0,4.7-2.88,26.053,26.053,0,0,0,4.584-4.3,44.639,44.639,0,0,1,7.68,7.416Zm12.552-18.528a13.107,13.107,0,0,1-1.416,3.288A20.884,20.884,0,0,1,236.4-9.7a4.4,4.4,0,0,1,1.392,1.152,23.838,23.838,0,0,0,5.712-6.384l8.4-.12a28.666,28.666,0,0,1-3.336,6.96,34.285,34.285,0,0,0-5.3-3.72l-1.1,1.224A30.187,30.187,0,0,1,247.536-6.7,16.838,16.838,0,0,1,243.384-2.9a21.635,21.635,0,0,1-4.968,2.616A4.265,4.265,0,0,1,239.592,1.2a26.768,26.768,0,0,0,7.584-4.944,27.309,27.309,0,0,0,6.264-10.32,5.386,5.386,0,0,1,.7-1.584l-1.08-1.08a4.158,4.158,0,0,1-1.392.24c-7.08.072-7.08.072-7.416.12a12.208,12.208,0,0,0,.744-1.32,7.938,7.938,0,0,1,.84-1.584ZM259.848-8.232a26.218,26.218,0,0,1,2.976-.1h13.92a27.454,27.454,0,0,1,2.928.1v-1.944a18.929,18.929,0,0,1-2.9.12H262.824a16.977,16.977,0,0,1-2.976-.144Zm40.464,7.1A58.742,58.742,0,0,0,292.32-8.3a29,29,0,0,0,3.936-6.7,8.078,8.078,0,0,1,.456-.912l-1.056-1.248a5.519,5.519,0,0,1-1.3.12l-8.52.1h-.624a11.279,11.279,0,0,1-1.9-.12l.048,1.92a15.926,15.926,0,0,1,2.472-.168l8.016-.12c.288-.024.36-.024.576-.048-.12.264-.12.312-.192.48a25.988,25.988,0,0,1-5.472,8.136A24.005,24.005,0,0,1,280.8-1.416,4.794,4.794,0,0,1,281.976.168a28.813,28.813,0,0,0,9.288-7.2,48.524,48.524,0,0,1,7.68,7.416Zm-3.96-17.9a16.878,16.878,0,0,1,2.448,3.816l1.224-.72a18.219,18.219,0,0,0-2.472-3.72Zm2.736-1.3a18.993,18.993,0,0,1,2.448,3.768l1.2-.672a19.449,19.449,0,0,0-2.472-3.744Zm8.976,8.52V-1.32h-4.056V2.328h7.824V-11.808Zm1.3,1.272h1.176V1.1H305.3V-.1h4.056Zm25.848-5.616a33.582,33.582,0,0,1-5.136-.264l-.024,1.656a4.256,4.256,0,0,1,.528-.024h.384c.888.024,3.144.072,3.528.072a2.658,2.658,0,0,0,.456-.048l-.216.36a23.882,23.882,0,0,1-5.376,6.864L330.7-6.192a7.941,7.941,0,0,1,1.848-1.992c1.944-1.656,3.84-2.544,5.352-2.544,1.128,0,1.7.576,1.9,1.9a18.631,18.631,0,0,0-3.576,1.92c-1.632,1.224-2.448,2.472-2.448,3.792,0,2.472,2.088,3.7,6.384,3.7A37.233,37.233,0,0,0,345.984.1a9.445,9.445,0,0,1,.96-.12l-.216-1.848a20.109,20.109,0,0,1-6.408.936c-3.384,0-4.872-.7-4.872-2.28,0-1.44,1.248-2.568,4.512-4.1a6.3,6.3,0,0,1,.024.72,34.507,34.507,0,0,1-.144,3.456l1.632-.024a5.217,5.217,0,0,1-.048-.864c0-.216,0-.552.024-1.08.024-.48.024-1.008.024-1.32,0-.6,0-.84-.048-1.464a39.848,39.848,0,0,1,6.408-2.112l-.768-1.68a5.28,5.28,0,0,1-1.632.7c-1.056.384-2.424.888-4.176,1.584a2.913,2.913,0,0,0-3.168-2.664,6.387,6.387,0,0,0-3.624,1.176c-.24.168-.24.168-1.1.84a.184.184,0,0,1-.048-.072v-.024a.023.023,0,0,0,.024-.024c.024-.024.144-.12.312-.24.1-.072.576-.624.816-.912a17.7,17.7,0,0,0,2.16-3.408,77.493,77.493,0,0,0,7.92-.624,7.481,7.481,0,0,1,.96-.12l-.144-1.632a33.779,33.779,0,0,1-7.56.912,4.086,4.086,0,0,0-.5.024c.12-.216.432-.864.744-1.632a5.1,5.1,0,0,1,.624-1.3l-1.92-.336a10.186,10.186,0,0,1-1.152,3.288ZM12.528,29.624a31.025,31.025,0,0,1-.672,7.2c-.144.552-.312.672-.912.672a6.507,6.507,0,0,1-1.488-.216,4.955,4.955,0,0,1,.24,1.488,10.809,10.809,0,0,0,1.3.072c1.344,0,1.8-.288,2.112-1.3a30.282,30.282,0,0,0,.768-7.536,13.137,13.137,0,0,1,.1-1.776,13.782,13.782,0,0,1-1.968.1H10.272c.048-.936.048-.936.072-2.856H12.48c.768,0,1.464.024,1.9.072V24.032a13.415,13.415,0,0,1-2.088.12H11.5v-.984A10.413,10.413,0,0,1,11.64,21.1H9.912a12.826,12.826,0,0,1,.144,2.064v.984H9a13.689,13.689,0,0,1-2.28-.144v1.584a12.183,12.183,0,0,1,2.232-.12,44.628,44.628,0,0,1-.264,5.52A12.16,12.16,0,0,1,6.5,37.352a3.316,3.316,0,0,1,1.1,1.128,12.224,12.224,0,0,0,1.944-4.512,24.86,24.86,0,0,0,.624-4.344Zm8.256-4.176a15,15,0,0,1,2.016.1V24.008a13.01,13.01,0,0,1-2.016.12H16.656c.24-.6.24-.6,1.1-2.832l-1.632-.312a5.493,5.493,0,0,1-.24,1.32,12.854,12.854,0,0,1-2.64,4.944,3.577,3.577,0,0,1,1.224.744,15.88,15.88,0,0,0,1.608-2.544Zm-3,7.824v3.816c0,.432-.144.552-.624.552a12.99,12.99,0,0,1-2.088-.192,3.947,3.947,0,0,1,.288,1.44c.456.048,1.1.072,1.464.072a5.7,5.7,0,0,0,1.728-.216c.408-.192.624-.672.624-1.392v-4.08h1.848a14.341,14.341,0,0,1,1.848.12V31.856a12.309,12.309,0,0,1-1.92.12H19.176V30.968a16.856,16.856,0,0,0,2.688-2.376c.168-.168.312-.336.528-.528l-.744-.84a8.474,8.474,0,0,1-1.656.1h-2.3a13.161,13.161,0,0,1-2.136-.144v1.488a13.469,13.469,0,0,1,2.112-.144H20.3A10.917,10.917,0,0,1,18.288,30.3h-.6a9.443,9.443,0,0,1,.1,1.68h-1.2a12.757,12.757,0,0,1-2.136-.144v1.584a13.16,13.16,0,0,1,2.136-.144ZM1.776,22.568a22.717,22.717,0,0,1,3.552,4.44l1.248-1.032A28.2,28.2,0,0,0,2.9,21.632Zm-.48,9.5a9.247,9.247,0,0,1,1.752-.12H4.392v5.832a12.645,12.645,0,0,1-3.6,2.832l.816,1.56c.336-.312.576-.48.84-.72a17.234,17.234,0,0,0,2.64-2.448A5.775,5.775,0,0,0,7.1,41.024c1.44.864,3.072,1.128,6.72,1.128,2.952,0,6.312-.072,9.1-.168a5.174,5.174,0,0,1,.552-1.776,85.526,85.526,0,0,1-10.344.48c-2.64,0-4.248-.264-5.328-.84a4.043,4.043,0,0,1-1.92-2.064V33.032A17.95,17.95,0,0,1,6,30.512a11.39,11.39,0,0,1-1.848.12H3.144a9.726,9.726,0,0,1-1.848-.12Zm31.8-10.3c-.144.72-.672,2.232-3.288,9.168-3.456,9.216-3.456,9.216-3.768,9.888l1.848.576a24.565,24.565,0,0,1,2.208-5.52c1.344-2.28,2.9-3.552,4.3-3.552a1.284,1.284,0,0,1,1.368.888,5.178,5.178,0,0,1,.192,1.824v1.368a9.894,9.894,0,0,0,.216,2.592,3.376,3.376,0,0,0,3.5,2.16,5.588,5.588,0,0,0,4.776-2.616,12.964,12.964,0,0,0,1.7-4.224A6.85,6.85,0,0,1,44.568,33.1a10.51,10.51,0,0,1-.912,3.408c-.888,2.016-2.136,3-3.84,3a2.236,2.236,0,0,1-1.824-.744,4.08,4.08,0,0,1-.384-2.28V34.856a6.054,6.054,0,0,0-.408-2.712,2.663,2.663,0,0,0-2.4-1.416c-1.7,0-2.928.864-4.512,3.144l-.12-.048a3.611,3.611,0,0,1,.216-.432l.264-.528a40.681,40.681,0,0,0,1.728-3.96c2.352-6.024,2.352-6.024,2.664-6.6Zm17.352,5.832a3.574,3.574,0,0,1,.408-.024h.1c.936.048,1.152.048,1.992.048.888,0,1.176,0,1.656-.024A48.845,48.845,0,0,1,50.088,40.88l1.752.744a64.171,64.171,0,0,0,4.44-14.112,32.022,32.022,0,0,0,4.056-.576l.432-.1.24-.024-.12-1.656a19.514,19.514,0,0,1-4.32.816c.12-.648.168-.984.312-1.824.144-.816.216-1.3.24-1.44.072-.336.1-.456.192-.84l-1.9-.192v.168a29.6,29.6,0,0,1-.528,4.248c-.7.048-.96.048-1.44.048a16.552,16.552,0,0,1-3-.216Zm18.12,1.176c-1.8-.072-2.16-.072-2.616-.072a27.191,27.191,0,0,0-6.36.792l.168,1.632a20.889,20.889,0,0,1,6-.816,24.1,24.1,0,0,1,2.832.168Zm-8.736,5.184c-1.272,1.632-1.608,2.376-1.608,3.456,0,2.376,2.04,3.6,5.976,3.6a26.276,26.276,0,0,0,4.272-.384l.744-.144.312-.048-.168-1.8a17.831,17.831,0,0,1-5.3.816c-2.736,0-4.2-.768-4.2-2.208a2.888,2.888,0,0,1,.6-1.7,8.042,8.042,0,0,1,.72-.912Zm3.96-11.256A17.569,17.569,0,0,1,66.264,26.5l1.2-.72a18.22,18.22,0,0,0-2.472-3.72Zm2.736-1.3a17.978,17.978,0,0,1,2.448,3.768l1.2-.7a19.276,19.276,0,0,0-2.472-3.72ZM86.16,25.664v2.064H83.448a11.556,11.556,0,0,1-2.04-.12v1.56a12,12,0,0,1,2.088-.12H86.16v2.16H82.44a16.211,16.211,0,0,1-2.088-.1V32.6a12.027,12.027,0,0,1,2.064-.12H86.16v3.456A25.127,25.127,0,0,1,79.3,39.584l.7,1.584a9.18,9.18,0,0,1,1.08-.648,32.722,32.722,0,0,0,5.088-3.1v3.384c0,.432-.144.528-.84.528a15.017,15.017,0,0,1-2.376-.216,3.826,3.826,0,0,1,.432,1.512,18.3,18.3,0,0,0,1.968.1c1.8,0,2.256-.336,2.256-1.632V36.584a20.064,20.064,0,0,0-.192-2.376,15.147,15.147,0,0,0,3.168,4.9,17,17,0,0,0,3.528,2.76,6.3,6.3,0,0,1,1.008-1.392,13.507,13.507,0,0,1-4.56-3.36,19.131,19.131,0,0,0,3-3.264l-1.224-.864a12.932,12.932,0,0,1-2.616,3.1,13.187,13.187,0,0,1-1.968-3.6h4.584a14.351,14.351,0,0,1,2.16.144v-1.56a14.241,14.241,0,0,1-2.184.144H87.6v-2.16h3.648a13.469,13.469,0,0,1,2.16.12V27.584a13,13,0,0,1-2.184.144H87.6V25.664h4.368a14.024,14.024,0,0,1,2.184.144v-1.56a14.241,14.241,0,0,1-2.184.144H89.856c.36-.576,1.152-1.968,1.536-2.736l-1.416-.5a15.2,15.2,0,0,1-1.632,3.24H85.56A15.492,15.492,0,0,0,83.832,21.2l-1.272.552a11.617,11.617,0,0,1,1.56,2.64H82.848a12.476,12.476,0,0,1-2.112-.12v1.512a12.165,12.165,0,0,1,2.088-.12Zm-9.6.144H75.072a9.8,9.8,0,0,1-1.68-.1V27.2a10.344,10.344,0,0,1,1.68-.1H76.32a24.147,24.147,0,0,1-1.344,4.128,14.036,14.036,0,0,1-2.256,3.792,5.929,5.929,0,0,1,.912,1.488,19.281,19.281,0,0,0,3.12-7.344c-.024.408-.048.7-.048.888-.024.6-.048,1.032-.072,1.176-.072,1.152-.072,1.152-.072,2.112v6.792a20.4,20.4,0,0,1-.144,2.784h1.728A19.457,19.457,0,0,1,78,40.136V32.864c0-.84-.024-1.9-.1-3.912a16.488,16.488,0,0,0,1.56,3.36,10.99,10.99,0,0,1,.84-1.3A13.273,13.273,0,0,1,78.072,27.1h.864a14.2,14.2,0,0,1,1.512.072V25.712a8.686,8.686,0,0,1-1.512.1H78V23.456a15.831,15.831,0,0,1,.12-2.472H76.44a14.35,14.35,0,0,1,.12,2.5Zm4.3,7.968a14.817,14.817,0,0,1,2.256,2.952l1.1-.792a22.07,22.07,0,0,0-2.28-2.9Zm26.568-3.024h-7.1a25.235,25.235,0,0,1-3-.144v1.776a26.375,26.375,0,0,1,2.952-.144h7.152v7.8c0,.576-.216.7-1.152.7a23.1,23.1,0,0,1-3.456-.312,5.946,5.946,0,0,1,.408,1.68c1.536.12,2.28.168,3.048.168,2.184,0,2.76-.408,2.76-2.016V32.24h6.744a23.76,23.76,0,0,1,2.9.144V30.608a22.439,22.439,0,0,1-2.9.144h-6.744V28.808a28.783,28.783,0,0,0,6.672-4.824c.336-.312.36-.336.864-.768l-.984-1.1a11.151,11.151,0,0,1-1.872.1H102.336a17.668,17.668,0,0,1-2.448-.144v1.728a16.826,16.826,0,0,1,2.424-.144h11.616a23.938,23.938,0,0,1-5.472,3.936h-1.1a15.655,15.655,0,0,1,.072,1.584Zm30.048-8.592a18.4,18.4,0,0,1,2.472,3.816l1.2-.72a18.22,18.22,0,0,0-2.472-3.72Zm-15.456,7.392a31.242,31.242,0,0,1,4.824-.864c-1.08,4.536-3.144,9.336-5.136,11.952l1.632.96a46.613,46.613,0,0,0,5.184-13.056,13.78,13.78,0,0,1,1.728-.12c2.232,0,2.952.816,2.952,3.36a18.578,18.578,0,0,1-1.008,6.672q-.468,1.152-1.368,1.152a8.971,8.971,0,0,1-3.576-1.1,4.429,4.429,0,0,1,.072.936,5.363,5.363,0,0,1-.048.864,9.029,9.029,0,0,0,3.624.936,2.507,2.507,0,0,0,2.352-1.128c.984-1.392,1.608-4.584,1.608-8.256,0-1.968-.336-3.072-1.176-3.864-.744-.72-1.752-1.008-3.456-1.008a13.987,13.987,0,0,0-1.416.072c.192-1.032.408-2.136.5-2.736a14.752,14.752,0,0,1,.456-2.3l-1.92-.216v.312a29.644,29.644,0,0,1-.72,5.088,49.233,49.233,0,0,1-5.3.624Zm18.192-8.664a17.382,17.382,0,0,1,2.448,3.768l1.2-.7a19.277,19.277,0,0,0-2.472-3.72Zm-4.032,5.472a20.267,20.267,0,0,1,4.9,8.616l1.536-.864a21.977,21.977,0,0,0-5.016-8.5Zm10.608,11.016a20.46,20.46,0,0,1,2.16-2.28,6.753,6.753,0,0,0,1.248-1.32h.048c-.048.576-.048.768-.072,3.7a25.623,25.623,0,0,1-.12,4.536h1.9c-.12-1.1-.144-2.3-.144-9.528,3.144-2.832,5.3-3.96,7.656-3.96a4.4,4.4,0,0,1,4.584,4.7,6.066,6.066,0,0,1-.672,2.88,5.343,5.343,0,0,1-4.8,2.712,10.511,10.511,0,0,1-4.248-.936,5.9,5.9,0,0,1,.192,1.392,3.135,3.135,0,0,1-.024.408,12.106,12.106,0,0,0,4.08.72,6.821,6.821,0,0,0,7.248-7.224,6.069,6.069,0,0,0-6.456-6.24,9.344,9.344,0,0,0-6.072,2.376,13.145,13.145,0,0,0-1.392,1.224l-.072.072h-.048c0-.048.048-.864.12-2.424a7.1,7.1,0,0,1,1.272-1.56l-.624-.792a1.4,1.4,0,0,1-.552.144c.024-.552.024-.552.048-1.368a15.044,15.044,0,0,1,.24-2.784h-1.9a4.319,4.319,0,0,1,.072.936c0,.936-.024,1.848-.1,3.336-1.968.144-2.976.192-3.336.192-.192,0-.336,0-.672-.024l.12,1.656a20.963,20.963,0,0,1,2.64-.288c.888-.048.888-.048,1.224-.072-.072,2.04-.072,2.256-.12,4.248-.312.264-.312.264-.7.624-.816.744-.816.744-1.632,1.512a17.761,17.761,0,0,1-2.064,1.776Zm23.544-7.92a13.733,13.733,0,0,1,1.392-.312c.216-.048,1.368-.24,3.432-.552a39.621,39.621,0,0,1-2.64,7.608,23.016,23.016,0,0,1-2.5,4.344l1.632.96c.744-1.344,1.248-2.3,1.56-2.88a45.279,45.279,0,0,0,3.624-10.176,13.78,13.78,0,0,1,1.728-.12c2.232,0,2.952.816,2.952,3.36A18.578,18.578,0,0,1,180.5,38.36q-.468,1.152-1.368,1.152a8.971,8.971,0,0,1-3.576-1.1,4.647,4.647,0,0,1,.072.96,5.22,5.22,0,0,1-.048.84,9.029,9.029,0,0,0,3.624.936,2.507,2.507,0,0,0,2.352-1.128c.984-1.392,1.608-4.584,1.608-8.256,0-1.968-.336-3.072-1.176-3.864-.744-.72-1.752-1.008-3.456-1.008a13.986,13.986,0,0,0-1.416.072c.216-1.152.384-2.04.5-2.736a14.754,14.754,0,0,1,.456-2.3l-1.92-.216v.312a29.335,29.335,0,0,1-.72,5.088c-1.944.312-4.44.6-5.3.624Zm14.16-3.168a19.646,19.646,0,0,1,4.9,8.616l1.536-.888a21.7,21.7,0,0,0-5.016-8.5Zm13.3-1.368a11.823,11.823,0,0,1,1.3-.12c3.648-.12,6.528-.288,7.3-.432a.928.928,0,0,1,.216-.024l.048.048-.1.1-.1.1-.336.336c-1.656,1.632-5.448,4.968-8.016,7.008a26.735,26.735,0,0,1-3.36,2.448l1.08,1.536a15.4,15.4,0,0,1,10.1-4.1c3.24,0,5.16,1.368,5.16,3.672,0,2.04-1.32,3.5-3.84,4.2a6.87,6.87,0,0,0-1.1-2.3,4.834,4.834,0,0,0-3.96-1.968c-1.992,0-3.48,1.2-3.48,2.808,0,2.208,1.944,3.456,5.328,3.456,5.328,0,8.808-2.472,8.808-6.216,0-3.072-2.568-5.04-6.576-5.04a12.16,12.16,0,0,0-5.88,1.488l-.048-.072a61.583,61.583,0,0,0,7.9-6.816,4.43,4.43,0,0,1,1.224-1.008l-1.008-1.32a2.454,2.454,0,0,1-1.152.264c-2.16.168-5.352.312-7.344.312a11.083,11.083,0,0,1-2.256-.144Zm7.872,15.192a8.642,8.642,0,0,1-1.752.168,6.132,6.132,0,0,1-2.688-.552,1.638,1.638,0,0,1-.96-1.464c0-.912.744-1.488,1.944-1.488C203.928,36.776,205.128,37.928,205.656,40.112Zm22.968-13.968V23.216h7.488a19.845,19.845,0,0,1,2.52.144V21.7a19.057,19.057,0,0,1-2.52.144H219.936a18.068,18.068,0,0,1-2.52-.144V23.36a20.394,20.394,0,0,1,2.52-.144h7.248v2.928h-3.216a16.02,16.02,0,0,1-1.992-.1,12.329,12.329,0,0,1,.1,1.7V36.3a12.194,12.194,0,0,1-.1,1.68,17.277,17.277,0,0,1,2.064-.1h7.872a17.276,17.276,0,0,1,2.064.1,12.194,12.194,0,0,1-.1-1.68V27.752a12.329,12.329,0,0,1,.1-1.7,15.774,15.774,0,0,1-1.992.1Zm-1.44,1.3v3.648h-3.72V27.44Zm1.44,0h3.864v3.648h-3.864Zm-1.44,4.92v4.248h-3.72V32.36Zm1.44,0h3.864v4.248h-3.864Zm7.752-5.664a14.72,14.72,0,0,1,.144,2.28v11.16H219.576V29a13.816,13.816,0,0,1,.144-2.3h-1.8a18.041,18.041,0,0,1,.144,2.472v10.8a21.684,21.684,0,0,1-.144,2.9h1.68V41.5h16.9v1.368h1.68a21.279,21.279,0,0,1-.144-2.88V29.168a18.544,18.544,0,0,1,.144-2.472Zm11.664,2.616c0,.624-.024,1.224-.072,1.728q.9-.072,1.872-.072H252.7a16.838,16.838,0,0,1-6.7,2.88,4.741,4.741,0,0,1,.72,1.176,20.607,20.607,0,0,0,5.616-2.424,7.8,7.8,0,0,1,1.128,1.248,23.2,23.2,0,0,1-7.56,3.432,5.676,5.676,0,0,1,.768,1.2,27.558,27.558,0,0,0,7.44-3.648,8.042,8.042,0,0,1,.672,1.536,26.162,26.162,0,0,1-8.856,4.44,3.846,3.846,0,0,1,.792,1.272,27.233,27.233,0,0,0,8.328-4.488,10.826,10.826,0,0,1,.12,1.68c0,1.608-.288,1.968-1.608,1.968a11.87,11.87,0,0,1-2.208-.216,6.467,6.467,0,0,1,.408,1.416,16.612,16.612,0,0,0,1.752.1,3.329,3.329,0,0,0,2.28-.5,3.4,3.4,0,0,0,.792-2.616,10.767,10.767,0,0,0-1.248-4.92A9.349,9.349,0,0,0,253.32,31.9c.408-.312.552-.432,1.152-.936h1.1a19.069,19.069,0,0,0,2.016,5.064,16.007,16.007,0,0,0,4.992,5.376,11.916,11.916,0,0,1,.888-1.392,12.643,12.643,0,0,1-4.872-4.8,23.385,23.385,0,0,0,4.1-2.976l-1.224-1.008A12.257,12.257,0,0,1,258,34.088a15.891,15.891,0,0,1-1.152-3.12h3.192a18.346,18.346,0,0,1,1.848.072,16.1,16.1,0,0,1-.048-1.8V27.752a16.784,16.784,0,0,1,.072-1.776,17.908,17.908,0,0,1-1.872.072h-3.816a19.284,19.284,0,0,0,1.7-1.9,6.291,6.291,0,0,1,.648-.792l-.84-.72a18.227,18.227,0,0,1-1.872.072h-3.456a2.433,2.433,0,0,0,.24-.384c.408-.672.408-.672.672-1.056l-1.656-.36a8.974,8.974,0,0,1-1.68,2.808,17.264,17.264,0,0,1-4.152,3.7,3.693,3.693,0,0,1,.936,1.008l1.272-1.032Zm1.56-3.264a23.931,23.931,0,0,0,1.944-2.16h4.848a11.416,11.416,0,0,1-1.848,2.16Zm-.192,1.128H253.9V29.84h-4.488Zm5.856,0h5.16V29.84h-5.16ZM243.552,39.824a24.082,24.082,0,0,1-.144,2.952h1.7c-.072-.768-.1-1.56-.1-2.976V27.056a37.765,37.765,0,0,0,1.8-4.368c.24-.7.336-.96.48-1.32l-1.68-.432a13.943,13.943,0,0,1-.864,3.12,22.5,22.5,0,0,1-4.176,7.1,1.909,1.909,0,0,1,.528.648,6.72,6.72,0,0,0,.408.7,18.1,18.1,0,0,0,2.136-3.312c-.072,1.44-.1,2.352-.1,3.528Zm28.776-14.976a33.582,33.582,0,0,1-5.136-.264l-.024,1.656a4.256,4.256,0,0,1,.528-.024h.384c.888.024,3.144.072,3.528.072a2.658,2.658,0,0,0,.456-.048l-.216.36a23.882,23.882,0,0,1-5.376,6.864l1.344,1.344a7.941,7.941,0,0,1,1.848-1.992c1.944-1.656,3.84-2.544,5.352-2.544,1.128,0,1.7.576,1.9,1.9a18.631,18.631,0,0,0-3.576,1.92c-1.632,1.224-2.448,2.472-2.448,3.792,0,2.472,2.088,3.7,6.384,3.7a37.233,37.233,0,0,0,5.832-.48,9.443,9.443,0,0,1,.96-.12l-.216-1.848a20.109,20.109,0,0,1-6.408.936c-3.384,0-4.872-.7-4.872-2.28,0-1.44,1.248-2.568,4.512-4.1a6.3,6.3,0,0,1,.024.72,34.507,34.507,0,0,1-.144,3.456l1.632-.024a5.217,5.217,0,0,1-.048-.864c0-.216,0-.552.024-1.08.024-.48.024-1.008.024-1.32,0-.6,0-.84-.048-1.464a39.848,39.848,0,0,1,6.408-2.112l-.768-1.68a5.28,5.28,0,0,1-1.632.7c-1.056.384-2.424.888-4.176,1.584a2.913,2.913,0,0,0-3.168-2.664,6.387,6.387,0,0,0-3.624,1.176c-.24.168-.24.168-1.1.84a.184.184,0,0,1-.048-.072v-.024a.023.023,0,0,0,.024-.024c.024-.024.144-.12.312-.24.1-.072.576-.624.816-.912a17.7,17.7,0,0,0,2.16-3.408,77.492,77.492,0,0,0,7.92-.624,7.482,7.482,0,0,1,.96-.12l-.144-1.632a33.779,33.779,0,0,1-7.56.912,4.086,4.086,0,0,0-.5.024c.12-.216.432-.864.744-1.632a5.1,5.1,0,0,1,.624-1.3l-1.92-.336a10.186,10.186,0,0,1-1.152,3.288Zm36.6-1.56c-.432.168-.432.168-2.04.168H294a17.59,17.59,0,0,1-2.856-.168v1.848a23.173,23.173,0,0,1,2.832-.12h13.632a12.733,12.733,0,0,1-2.688,3.576,10.391,10.391,0,0,1-3.792,2.28A4.715,4.715,0,0,1,302.3,32.24a14.365,14.365,0,0,0,7.008-6.84,4.307,4.307,0,0,1,.576-.96Zm-10.464,4.176a6.336,6.336,0,0,1,.1,1.3c0,4.68-.936,7.128-3.48,9.168a11.278,11.278,0,0,1-4.392,2.208,4.693,4.693,0,0,1,1.1,1.608,13.074,13.074,0,0,0,6.144-4.152c1.632-2.064,2.3-4.44,2.376-8.448a8.706,8.706,0,0,1,.1-1.68Zm18.024.864a19.8,19.8,0,0,1,2.256,5.376l1.632-.552A26.355,26.355,0,0,0,318,27.824Zm4.944-1.008a21.056,21.056,0,0,1,2.208,5.256l1.584-.552a24.067,24.067,0,0,0-2.328-5.16Zm8.328-.024v.24a10.087,10.087,0,0,1-.264,1.632,18.107,18.107,0,0,1-2.04,5.16c-1.656,2.76-3.912,4.608-7.608,6.264a4.855,4.855,0,0,1,1.1,1.344A17.4,17.4,0,0,0,328.9,35a21.608,21.608,0,0,0,2.112-5.376,14.159,14.159,0,0,1,.528-1.944Zm22.632-3.072H340.584a17.014,17.014,0,0,1-2.712-.144V26a17.72,17.72,0,0,1,2.688-.144h12.216a19.449,19.449,0,0,1-4.2,8.544,19.272,19.272,0,0,1-8.784,5.448,4.749,4.749,0,0,1,1.176,1.656,22.271,22.271,0,0,0,8.736-5.688c2.184-2.28,3.72-5.28,4.9-9.552l.048-.144a2.829,2.829,0,0,0,.84.12,2.724,2.724,0,1,0-2.712-2.712,2.542,2.542,0,0,0,.1.7Zm3.12-2.424a1.716,1.716,0,1,1-1.728,1.7A1.711,1.711,0,0,1,355.512,21.8Zm15.936,14.712c-.048-.6-.072-1.032-.072-1.464,0-.1,0-.1.024-1.1l.192-8.544c.024-1.008.072-1.728.144-2.64H369.36c.1.912.12,1.632.144,2.64l.216,8.544v.864c0,.792,0,.96-.048,1.7ZM371.736,41V38.744h-2.328V41ZM13.468,74.134a8.853,8.853,0,0,1-2.128-2.9,8.741,8.741,0,0,1,0-7.112,8.853,8.853,0,0,1,2.128-2.9H12.222a9.423,9.423,0,0,0-1.946,3.01,9.161,9.161,0,0,0,0,6.888,9.423,9.423,0,0,0,1.946,3.01Zm8.19-8.4a11.142,11.142,0,0,1-.714,2.94,17.83,17.83,0,0,0-1.442-1.4l-.448.686a11.209,11.209,0,0,1,1.526,1.526,9.248,9.248,0,0,1-3.318,3.738,3.146,3.146,0,0,1,.658.7,10.866,10.866,0,0,0,2.688-2.814,11.835,11.835,0,0,0,1.834-5l.126-.938.028-.252a6.6,6.6,0,0,1-1.106.056H19.908a16.44,16.44,0,0,0,.392-1.932h1.386a8.182,8.182,0,0,1,1.26.07v-.91a8.7,8.7,0,0,1-1.344.07H19.236a9.848,9.848,0,0,1-1.274-.07v.91a7.138,7.138,0,0,1,1.19-.07h.308a9.231,9.231,0,0,1-2.352,5.446,3.081,3.081,0,0,1,.588.714,10.431,10.431,0,0,0,1.974-3.472ZM16.73,64.726a16,16,0,0,0,.966-2.478c.084-.266.154-.448.224-.616l-.91-.294a12.916,12.916,0,0,1-1.05,3.108,11.965,11.965,0,0,1-1.806,2.814,2.629,2.629,0,0,1,.56.784,10.259,10.259,0,0,0,1.218-1.988c-.042.714-.056,1.26-.056,2.044v4.06a14.047,14.047,0,0,1-.084,1.722h.994c-.042-.49-.056-.9-.056-1.736Zm7.714,5.866a9.235,9.235,0,0,1-.07-1.442V63.7a7.664,7.664,0,0,1,.084-1.428H23.45a10.061,10.061,0,0,1,.07,1.428V69.15a9.325,9.325,0,0,1-.084,1.442Zm2.324-7.42a11.034,11.034,0,0,1,.084-1.6H25.816a10.223,10.223,0,0,1,.084,1.6v9.436c0,.294-.1.35-.672.35a15.559,15.559,0,0,1-1.82-.14,3.357,3.357,0,0,1,.238.9c.658.042,1.176.056,1.568.056,1.246,0,1.554-.21,1.554-1.064Zm3.01,10.962a9.423,9.423,0,0,0,1.946-3.01,9.161,9.161,0,0,0,0-6.888,9.423,9.423,0,0,0-1.946-3.01H28.532a8.712,8.712,0,0,1,2.128,2.9,8.741,8.741,0,0,1,0,7.112,8.712,8.712,0,0,1-2.128,2.9Zm23.24-8.694c1.092.014,1.162.014,1.316.014.056,0,.224.014.42.028V64.46a11.043,11.043,0,0,1-1.722.084H46.816a2.383,2.383,0,0,1-.294.014,10.525,10.525,0,0,0,.728-1.526,6.542,6.542,0,0,1,.35-.77l-1.064-.336a7.262,7.262,0,0,1-.714,1.96,10.715,10.715,0,0,1-3,3.864,2,2,0,0,1,.826.658,13.034,13.034,0,0,0,2.436-2.968h3.864a10.374,10.374,0,0,1-.658,3.486A7.3,7.3,0,0,1,45,72.664a2.085,2.085,0,0,1,.686.9c3.752-1.792,5.11-3.878,5.306-8.12Zm-.9-3.654a10.917,10.917,0,0,1,1.428,2.226l.7-.42a10.628,10.628,0,0,0-1.442-2.17Zm1.666-.616a9.814,9.814,0,0,1,1.428,2.2l.714-.406a12.619,12.619,0,0,0-1.456-2.184Zm2.87,7.028a15.294,15.294,0,0,1,1.736-.056h8.12a16.015,16.015,0,0,1,1.708.056V67.064a11.042,11.042,0,0,1-1.694.07H58.394a9.9,9.9,0,0,1-1.736-.084ZM74.62,61.87A26.565,26.565,0,0,1,73.514,65.9,53.394,53.394,0,0,1,71.4,71.446c-.322.028-1.092.07-1.19.07-.07,0-.07,0-.392-.014l.14,1.162a9.735,9.735,0,0,1,1.19-.154,86.482,86.482,0,0,0,8.61-1.162,19,19,0,0,1,.826,1.89l.98-.532a36.264,36.264,0,0,0-3.486-6.328l-.868.476a27.233,27.233,0,0,1,2.156,3.626c-1.652.322-4.942.756-6.8.882a75.85,75.85,0,0,0,2.912-8.19,5.535,5.535,0,0,1,.378-1.008ZM90.5,63.718a4.029,4.029,0,0,1,1.624.35,3.691,3.691,0,0,1,2.226,3.514,4.226,4.226,0,0,1-2.478,3.92,8.392,8.392,0,0,1-2.338.658,2.225,2.225,0,0,1,.49.938,10.83,10.83,0,0,0,2.128-.644,5.1,5.1,0,0,0,3.206-4.83A4.686,4.686,0,0,0,94,64.208a5.42,5.42,0,0,0-3.85-1.386,5.686,5.686,0,0,0-5.992,5.726c0,1.96.994,3.416,2.324,3.416,1.008,0,1.834-.84,2.646-2.688A20.987,20.987,0,0,0,90.5,63.718Zm-1.008.014a19.229,19.229,0,0,1-1.274,5.18c-.6,1.372-1.162,2.03-1.75,2.03-.756,0-1.344-1.036-1.344-2.38A4.841,4.841,0,0,1,87.4,64.39,4.421,4.421,0,0,1,89.488,63.732Zm19.866,8.512a34.817,34.817,0,0,0-4.662-4.2,16.93,16.93,0,0,0,2.31-3.92,2.613,2.613,0,0,1,.392-.686l-.588-.6a2.611,2.611,0,0,1-.9.112l-5,.056h-.364a6.579,6.579,0,0,1-1.106-.07l.028,1.134a9.42,9.42,0,0,1,1.442-.112l4.676-.07a2.378,2.378,0,0,0,.336-.014.3.3,0,0,1-.042.1c-.028.07-.042.084-.07.168a15.174,15.174,0,0,1-5,6.314,11.27,11.27,0,0,1-2.842,1.61,3.116,3.116,0,0,1,.686.924,18.029,18.029,0,0,0,2.744-1.68,15.2,15.2,0,0,0,2.674-2.506,26.039,26.039,0,0,1,4.48,4.326ZM116.69,61.59a6.349,6.349,0,0,1-.882,2.044,10.372,10.372,0,0,1-3.514,3.836,2.082,2.082,0,0,1,.784.728,13.5,13.5,0,0,0,3.346-3.64l4.718-.084a12.864,12.864,0,0,1-2.408,4.69,11.908,11.908,0,0,1-4.942,3.542,2.111,2.111,0,0,1,.7.826,13.709,13.709,0,0,0,4.872-3.5,14.811,14.811,0,0,0,2.8-5.264c.154-.5.154-.518.28-.686l-.6-.588a1.375,1.375,0,0,1-.728.1c-4.046.07-4.046.07-4.228.112a13.391,13.391,0,0,0,.644-1.246,2.675,2.675,0,0,1,.308-.574Zm11.34.6a8.235,8.235,0,0,1,.056,1.176v3.738a8.489,8.489,0,0,1-.056,1.176h1.162a7.413,7.413,0,0,1-.056-1.162V63.354a7.648,7.648,0,0,1,.056-1.162Zm6.188,0a7.785,7.785,0,0,1,.056,1.232v1.582a17.408,17.408,0,0,1-.2,3.57,4.176,4.176,0,0,1-2.24,2.954,8.151,8.151,0,0,1-2.66.952,2.677,2.677,0,0,1,.588.966,11.022,11.022,0,0,0,2.548-1.008,5.32,5.32,0,0,0,2.66-3.108,15.778,15.778,0,0,0,.35-4.27V63.41a6.249,6.249,0,0,1,.07-1.218Zm5.74,6.006a15.294,15.294,0,0,1,1.736-.056h8.12a16.015,16.015,0,0,1,1.708.056V67.064a11.042,11.042,0,0,1-1.694.07h-8.134a9.9,9.9,0,0,1-1.736-.084Zm13.706-4.34A15.46,15.46,0,0,1,157,66.6l.728-.868A18.238,18.238,0,0,0,154.35,63.1Zm.1,9.1a7.356,7.356,0,0,1,.84-.224,14.115,14.115,0,0,0,5.222-2.086,12.279,12.279,0,0,0,4.27-5.348,2.8,2.8,0,0,1-.854-.826,10.578,10.578,0,0,1-5.712,6.23,12.186,12.186,0,0,1-4.074,1.078Zm14.84-9.87a14.722,14.722,0,0,1,3.444,1.848L172.62,64a20.7,20.7,0,0,0-3.472-1.764ZM167.5,66.434a15.545,15.545,0,0,1,3.57,1.918l.546-.938a21.356,21.356,0,0,0-3.556-1.834Zm.476,6.706a3.286,3.286,0,0,1,.546-.154c.28-.056.532-.112.756-.154a15.991,15.991,0,0,0,3.542-1.2,10.974,10.974,0,0,0,5.39-6.034,4.221,4.221,0,0,1-.868-.742,10.425,10.425,0,0,1-1.68,3.136,9.221,9.221,0,0,1-4.2,3.122,12.107,12.107,0,0,1-3.766.868Zm21.112-.084v.7h.966a4.416,4.416,0,0,1-.056-.868V66.56c0-.49,0-.714.014-1.078-.252.014-.5.028-.952.028h-5.208a6.967,6.967,0,0,1-1.218-.084v.966a6.334,6.334,0,0,1,1.218-.056h5.236v2.436H184.17a6.967,6.967,0,0,1-1.218-.084v.952a6.164,6.164,0,0,1,1.2-.056h4.928v2.632h-5.376a7.192,7.192,0,0,1-1.218-.084v.98a6.252,6.252,0,0,1,1.218-.056Zm7.014-7.448a11.549,11.549,0,0,1,1.316,3.136l.952-.322a15.374,15.374,0,0,0-1.386-3.108Zm2.884-.588a12.282,12.282,0,0,1,1.288,3.066l.924-.322a14.039,14.039,0,0,0-1.358-3.01Zm4.858-.014v.14a5.883,5.883,0,0,1-.154.952,10.563,10.563,0,0,1-1.19,3.01,8.986,8.986,0,0,1-4.438,3.654,2.832,2.832,0,0,1,.644.784,10.149,10.149,0,0,0,4.634-4.046,12.6,12.6,0,0,0,1.232-3.136,8.261,8.261,0,0,1,.308-1.134Zm8.988,8.428a9.521,9.521,0,0,1-.07-1.484V67.736a4.89,4.89,0,0,0-.056-.826l.028-.014a1.545,1.545,0,0,0,.434.238,28.545,28.545,0,0,1,5.222,2.772l.6-1.036a34.72,34.72,0,0,0-6.23-2.954V63.3a8.788,8.788,0,0,1,.07-1.456h-1.2a8.3,8.3,0,0,1,.084,1.428v8.694a9,9,0,0,1-.084,1.47Zm9.3-2.562a13.972,13.972,0,0,1,2.758,3.052l.784-.742a14.266,14.266,0,0,0-2.814-2.968ZM10.4,87.214H3.514a9.925,9.925,0,0,1-1.582-.084v1.12A10.337,10.337,0,0,1,3.5,88.166h7.126a11.345,11.345,0,0,1-2.45,4.984,11.242,11.242,0,0,1-5.124,3.178,2.77,2.77,0,0,1,.686.966,12.991,12.991,0,0,0,5.1-3.318A12.5,12.5,0,0,0,11.69,88.4l.028-.084a1.65,1.65,0,0,0,.49.07,1.589,1.589,0,1,0-1.582-1.582,1.484,1.484,0,0,0,.056.406Zm1.82-1.414a1,1,0,1,1-1.008.994A1,1,0,0,1,12.222,85.8Zm4.97.448a7.236,7.236,0,0,1,.042.756v.518l-.028,8.022a2.687,2.687,0,0,1-.1.91l.56.7a3.517,3.517,0,0,1,.812-.21c3.738-.728,5.8-2.03,7.714-4.886a3.565,3.565,0,0,1-.77-.882,8.475,8.475,0,0,1-3.15,3.36,10.57,10.57,0,0,1-4,1.4l.042-8.442a8.625,8.625,0,0,1,.07-1.246Zm21.77-.364a11.752,11.752,0,0,1-2.674,2.646,19.713,19.713,0,0,1-7.266,3.626,3.241,3.241,0,0,1,.546.938,21.886,21.886,0,0,0,5.4-2.45v5.32a7.3,7.3,0,0,1-.084,1.456h1.218a9.3,9.3,0,0,1-.07-1.484V89.972a24.656,24.656,0,0,0,3.276-2.814,3.169,3.169,0,0,1,.616-.588Zm6.286.2a4.306,4.306,0,0,1,.056.742c0,.224,0,.49-.014.91-.112,4.41-.126,4.76-.126,5.7a3.9,3.9,0,0,0,.77,2.87,3.32,3.32,0,0,0,2.632.98,4.9,4.9,0,0,0,3.948-1.75,8.517,8.517,0,0,0,1.554-3.178,3.96,3.96,0,0,1-1.008-.672,8.317,8.317,0,0,1-.686,2.2,4.021,4.021,0,0,1-3.752,2.436,2.642,2.642,0,0,1-1.75-.546,2.2,2.2,0,0,1-.658-1.68c-.014-.322-.028-.672-.028-.84,0-.63.042-2.534.1-4.214a21.585,21.585,0,0,1,.182-2.954ZM56.6,88.866a41.121,41.121,0,0,1,4.83-.462,27.13,27.13,0,0,0,3.08-.308,9.164,9.164,0,0,0-1.33.742,5.307,5.307,0,0,0-2.618,4.3,3.408,3.408,0,0,0,1.554,2.856,7.062,7.062,0,0,0,3.024,1.078c.224.042.28.056.434.084l.182-1.134h-.14a7.175,7.175,0,0,1-2.1-.448,2.745,2.745,0,0,1-1.96-2.59,4.279,4.279,0,0,1,1.722-3.234,7.109,7.109,0,0,1,2.688-1.414,6.493,6.493,0,0,1,1.568-.182l-.084-1.05a9.4,9.4,0,0,1-1.666.154c-1.806.084-6.286.336-7.952.462-.434.028-.6.042-.8.042h-.5Zm14.462-1.792a7.574,7.574,0,0,1,.042.826c.07,3.444.266,5.236.756,6.566s1.2,2.128,1.988,2.128c.994,0,1.638-.938,2.324-3.388a4.475,4.475,0,0,1-.826-.8A10.073,10.073,0,0,1,74.62,94.8c-.21.462-.448.7-.7.7-.532,0-1.106-.966-1.414-2.394a23.975,23.975,0,0,1-.364-4.354,10.148,10.148,0,0,1,.1-1.666Zm7.084,1.19a12.364,12.364,0,0,1,2.912,6.9l.994-.406A13.405,13.405,0,0,0,81,91.022a12.152,12.152,0,0,0-2-3.192Zm8.386-.644a6.9,6.9,0,0,1,.756-.07c2.128-.07,3.808-.168,4.256-.252a.542.542,0,0,1,.126-.014l.028.028-.056.056-.056.056-.2.2c-.966.952-3.178,2.9-4.676,4.088a15.6,15.6,0,0,1-1.96,1.428l.63.9a8.984,8.984,0,0,1,5.894-2.394c1.89,0,3.01.8,3.01,2.142,0,1.19-.77,2.044-2.24,2.45a4.008,4.008,0,0,0-.644-1.344,2.82,2.82,0,0,0-2.31-1.148,1.819,1.819,0,0,0-2.03,1.638c0,1.288,1.134,2.016,3.108,2.016,3.108,0,5.138-1.442,5.138-3.626,0-1.792-1.5-2.94-3.836-2.94a7.094,7.094,0,0,0-3.43.868l-.028-.042a35.924,35.924,0,0,0,4.606-3.976,2.584,2.584,0,0,1,.714-.588l-.588-.77a1.432,1.432,0,0,1-.672.154c-1.26.1-3.122.182-4.284.182a6.465,6.465,0,0,1-1.316-.084Zm4.592,8.862a5.041,5.041,0,0,1-1.022.1,3.577,3.577,0,0,1-1.568-.322.955.955,0,0,1-.56-.854c0-.532.434-.868,1.134-.868C90.118,94.536,90.818,95.208,91.126,96.482Zm13.4-8.148V86.626h4.368a11.576,11.576,0,0,1,1.47.084v-.966a11.117,11.117,0,0,1-1.47.084H99.456a10.54,10.54,0,0,1-1.47-.084v.966a11.9,11.9,0,0,1,1.47-.084h4.228v1.708h-1.876a9.344,9.344,0,0,1-1.162-.056,7.193,7.193,0,0,1,.056.994v4.984a7.114,7.114,0,0,1-.056.98,10.078,10.078,0,0,1,1.2-.056h4.592a10.078,10.078,0,0,1,1.2.056,7.114,7.114,0,0,1-.056-.98V89.272a7.193,7.193,0,0,1,.056-.994,9.2,9.2,0,0,1-1.162.056Zm-.84.756v2.128h-2.17V89.09Zm.84,0h2.254v2.128h-2.254Zm-.84,2.87v2.478h-2.17V91.96Zm.84,0h2.254v2.478h-2.254Zm4.522-3.3a8.586,8.586,0,0,1,.084,1.33V96.5H99.246V90a8.06,8.06,0,0,1,.084-1.344H98.28a10.525,10.525,0,0,1,.084,1.442v6.3a12.65,12.65,0,0,1-.084,1.694h.98v-.8h9.856v.8h.98a12.411,12.411,0,0,1-.084-1.68V90.1a10.815,10.815,0,0,1,.084-1.442Zm8.638.042a9.637,9.637,0,0,0,.8-2h4.382a10.9,10.9,0,0,1,1.484.084V85.8a11.2,11.2,0,0,1-1.484.084H113.47A10.681,10.681,0,0,1,112,85.8v.98a11.2,11.2,0,0,1,1.484-.084h4.046a8.15,8.15,0,0,1-.826,2h-2.618a13.269,13.269,0,0,1-1.638-.07,16.564,16.564,0,0,1,.084,1.764v6.034a10.738,10.738,0,0,1-.084,1.708h.98v-.8h9.478v.8h.98a12.131,12.131,0,0,1-.084-1.68V90.392a15.147,15.147,0,0,1,.084-1.764,13.628,13.628,0,0,1-1.666.07Zm-1.106,3.346h3.094v1.792h-3.094Zm3.094-.756h-3.094v-1.82h3.094Zm-3.094,3.3h3.094v1.96h-3.094Zm-.854-5.124v7.084h-2.3V89.468Zm4.8,0h2.38v7.084h-2.38Zm9.492-1.89a19.588,19.588,0,0,1-3-.154l-.014.966a2.483,2.483,0,0,1,.308-.014h.224c.518.014,1.834.042,2.058.042a1.551,1.551,0,0,0,.266-.028l-.126.21a13.931,13.931,0,0,1-3.136,4l.784.784a4.633,4.633,0,0,1,1.078-1.162,5.259,5.259,0,0,1,3.122-1.484c.658,0,.994.336,1.106,1.106a10.867,10.867,0,0,0-2.086,1.12,2.9,2.9,0,0,0-1.428,2.212c0,1.442,1.218,2.156,3.724,2.156a21.719,21.719,0,0,0,3.4-.28,5.51,5.51,0,0,1,.56-.07l-.126-1.078a11.73,11.73,0,0,1-3.738.546c-1.974,0-2.842-.406-2.842-1.33,0-.84.728-1.5,2.632-2.394a3.681,3.681,0,0,1,.014.42,20.131,20.131,0,0,1-.084,2.016l.952-.014a3.043,3.043,0,0,1-.028-.5c0-.126,0-.322.014-.63.014-.28.014-.588.014-.77,0-.35,0-.49-.028-.854a23.244,23.244,0,0,1,3.738-1.232l-.448-.98a3.08,3.08,0,0,1-.952.406c-.616.224-1.414.518-2.436.924a1.7,1.7,0,0,0-1.848-1.554,3.726,3.726,0,0,0-2.114.686c-.14.1-.14.1-.644.49a.108.108,0,0,1-.028-.042v-.014a.014.014,0,0,0,.014-.014,2.3,2.3,0,0,1,.182-.14c.056-.042.336-.364.476-.532a10.323,10.323,0,0,0,1.26-1.988,45.2,45.2,0,0,0,4.62-.364,4.364,4.364,0,0,1,.56-.07l-.084-.952a19.7,19.7,0,0,1-4.41.532,2.384,2.384,0,0,0-.294.014c.07-.126.252-.5.434-.952a2.974,2.974,0,0,1,.364-.756l-1.12-.2a5.941,5.941,0,0,1-.672,1.918Zm21.756,8.666a34.817,34.817,0,0,0-4.662-4.2,16.929,16.929,0,0,0,2.31-3.92,2.614,2.614,0,0,1,.392-.686l-.588-.6a2.61,2.61,0,0,1-.9.112l-5,.056h-.364a6.58,6.58,0,0,1-1.106-.07l.028,1.134a9.42,9.42,0,0,1,1.442-.112l4.676-.07a2.378,2.378,0,0,0,.336-.014.3.3,0,0,1-.042.1c-.028.07-.042.084-.07.168a15.174,15.174,0,0,1-5,6.314,11.27,11.27,0,0,1-2.842,1.61,3.116,3.116,0,0,1,.686.924,18.029,18.029,0,0,0,2.744-1.68A15.2,15.2,0,0,0,146.5,92.8a26.038,26.038,0,0,1,4.48,4.326Zm4.634-5.138a26.424,26.424,0,0,1,5.46,6.02l.854-.714c-.938-1.246-1.512-1.974-2.044-2.548a21.408,21.408,0,0,0,4.62-5.25,4,4,0,0,1,.56-.742l-.588-.7a1.709,1.709,0,0,1-.784.1h-8.162a10.177,10.177,0,0,1-1.638-.084v1.106c.476-.042.868-.056,1.624-.056,7.8-.014,7.8-.014,7.994-.028-.056.084-.07.1-.112.168a20.437,20.437,0,0,1-2.31,3.038,24.416,24.416,0,0,1-1.862,1.722,30.254,30.254,0,0,0-2.842-2.646Zm17.206-2.94H170.2a10.087,10.087,0,0,1-1.624-.084v1.064a12.645,12.645,0,0,1,1.61-.07h3.43v6.986a7.722,7.722,0,0,1-.084,1.47h1.148a9.41,9.41,0,0,1-.07-1.484V89.076h3.556a12.645,12.645,0,0,1,1.61.07V88.082a10.176,10.176,0,0,1-1.638.084h-3.528v-.91a8.682,8.682,0,0,1,.07-1.456H173.53a7.227,7.227,0,0,1,.084,1.428Zm-3.024,2.212a10.391,10.391,0,0,1-1.218,3.528,6.764,6.764,0,0,1-1.33,1.82,2.855,2.855,0,0,1,.924.6,12.585,12.585,0,0,0,2.45-4.844c.182-.658.182-.672.238-.826Zm5.978.28a8.532,8.532,0,0,1,.35.91,22.891,22.891,0,0,0,.98,2.408,13.521,13.521,0,0,0,1.456,2.394,3.3,3.3,0,0,1,.882-.658,11.925,11.925,0,0,1-2.17-3.752,9.392,9.392,0,0,1-.518-1.568Zm5.922-1.82a46.607,46.607,0,0,1,4.83-.462,28.652,28.652,0,0,0,3.08-.308,9.164,9.164,0,0,0-1.33.742,5.327,5.327,0,0,0-2.618,4.3,3.39,3.39,0,0,0,1.554,2.856,7.062,7.062,0,0,0,3.024,1.078c.252.042.28.056.434.084l.182-1.134h-.14a7.175,7.175,0,0,1-2.1-.448,2.745,2.745,0,0,1-1.96-2.59,4.279,4.279,0,0,1,1.722-3.234,6.886,6.886,0,0,1,2.688-1.4,5.872,5.872,0,0,1,1.568-.2l-.084-1.036a9.455,9.455,0,0,1-1.666.154l-.8.028c-.462.014-.644.028-2.366.126l-2.2.14c-1.722.1-1.806.112-2.59.168-.434.028-.6.042-.8.042-.1,0-.238,0-.5-.014Zm8.6,1.344a9.845,9.845,0,0,1,1.428,2.226l.714-.42a10.629,10.629,0,0,0-1.442-2.17Zm1.6-.756a11.079,11.079,0,0,1,1.428,2.2l.7-.392a11.345,11.345,0,0,0-1.442-2.184Zm4.858-.448V92.24a9,9,0,0,1-1.708.434l.224.924a13.841,13.841,0,0,1,1.484-.518v3.766c0,.252-.07.308-.364.308a7.218,7.218,0,0,1-1.162-.1,3.339,3.339,0,0,1,.182.854c.364.028.686.042.938.042,1.022,0,1.274-.2,1.274-.966V92.772c.406-.14.546-.2,1.05-.406v-.8c-.476.2-.616.252-1.05.406v-3h.49a4.821,4.821,0,0,1,.854.056v-.9a4.821,4.821,0,0,1-.854.056h-.49v-1.33a7.857,7.857,0,0,1,.084-1.414h-1.036a9.627,9.627,0,0,1,.084,1.428v1.316H196.9a4.6,4.6,0,0,1-.924-.07v.924a4.857,4.857,0,0,1,.924-.07ZM200,96.118a5.151,5.151,0,0,1-.994.1l.168.854c.2-.056.5-.14.742-.182,1.33-.252,2.016-.406,2.856-.63V96.8a11.915,11.915,0,0,1-.084,1.344h.924a9.689,9.689,0,0,1-.07-1.372v-5.46H207.1a9.311,9.311,0,0,1,1.386.07V90.56a9.031,9.031,0,0,1-1.428.07h-6.538a8.6,8.6,0,0,1-1.274-.07v.812c.21-.028.42-.042.756-.056Zm.756-4.8H202.8v1.036H200.76Zm0,1.666H202.8v1.05H200.76Zm0,1.68H202.8v.91c-.8.182-.882.21-2.044.42Zm6.972-2.464a7.3,7.3,0,0,1-.952.042h-1.932a6.092,6.092,0,0,1-1.008-.056v.826a3.18,3.18,0,0,1,.476-.056,7.214,7.214,0,0,0,1.3,2.716,7.436,7.436,0,0,1-1.96,1.61,2.947,2.947,0,0,1,.546.63,8.459,8.459,0,0,0,1.9-1.652,9.247,9.247,0,0,0,2.128,1.708,2.973,2.973,0,0,1,.518-.742,7.49,7.49,0,0,1-2.17-1.554,9.692,9.692,0,0,0,1.288-2.394,4.348,4.348,0,0,1,.252-.6Zm-.574.756A7,7,0,0,1,206.08,95.1a6.5,6.5,0,0,1-1.022-2.142Zm-1.05-3.108a10.549,10.549,0,0,1,1.288.056,11.589,11.589,0,0,1-.056-1.26v-1.6a10.484,10.484,0,0,1,.056-1.218,10.336,10.336,0,0,1-1.316.056h-4.326a10.058,10.058,0,0,1-1.316-.056,9.978,9.978,0,0,1,.056,1.19v1.61a12.2,12.2,0,0,1-.056,1.274,10.4,10.4,0,0,1,1.288-.056ZM201.32,86.57h5.194v.966H201.32Zm0,1.624h5.194v.98H201.32ZM213.3,89.566v.924H211.26a7.688,7.688,0,0,1-1.358-.084v.91a8.021,8.021,0,0,1,1.358-.084h4.872a8.007,8.007,0,0,1,1.3.07V90.42a7.783,7.783,0,0,1-1.316.07h-1.974v-.924h1.4a11.987,11.987,0,0,1,1.274.042c-.028-.35-.042-.7-.042-1.218V87.032a9.24,9.24,0,0,1,.042-1.274,11.025,11.025,0,0,1-1.33.056h-3.444a11.174,11.174,0,0,1-1.33-.056A10.234,10.234,0,0,1,210.77,87V88.39a11.821,11.821,0,0,1-.056,1.218A12.129,12.129,0,0,1,212,89.566Zm-1.722-3.08h4.382v.868h-4.382Zm0,1.526h4.382v.882h-4.382Zm1.75,6.51v2.394c0,.238-.042.28-.336.28a4.25,4.25,0,0,1-1.092-.14,4.605,4.605,0,0,1,.168.854,8.888,8.888,0,0,0,.952.056c.616,0,.812-.042.952-.182a1,1,0,0,0,.2-.742v-2.52h1.33a7.4,7.4,0,0,1,1.05.056c-.028-.308-.042-.588-.042-.9v-.8c0-.308.014-.6.042-.91a6.825,6.825,0,0,1-1.036.056h-3.542a6.944,6.944,0,0,1-1.036-.056,6.354,6.354,0,0,1,.056.91v.8a5.912,5.912,0,0,1-.056.9,7.187,7.187,0,0,1,1.036-.056Zm-1.526-1.792H215.7v1.134h-3.892Zm-.28,2.212a5.142,5.142,0,0,1-1.68,2.212,3.1,3.1,0,0,1,.63.56,7.229,7.229,0,0,0,1.778-2.45Zm5.306,1.988a13.6,13.6,0,0,0-1.232-1.89l-.658.294a9.124,9.124,0,0,1,1.162,1.988Zm4.214-11.466a6.657,6.657,0,0,1-.812.938,8.963,8.963,0,0,1-3.024,2.044,2.84,2.84,0,0,1,.56.8,13.369,13.369,0,0,0,3.388-2.548c.49-.476.49-.476.7-.658Zm.462,3.556a6.549,6.549,0,0,1-1.19,1.316,10.584,10.584,0,0,1-3.136,2.114,3.444,3.444,0,0,1,.546.812,16.026,16.026,0,0,0,3.99-3.08,5.167,5.167,0,0,1,.574-.532Zm.35,3.892a7.2,7.2,0,0,1-1.148,1.4,11.846,11.846,0,0,1-3.99,2.772,3.644,3.644,0,0,1,.546.826,13.964,13.964,0,0,0,2.282-1.4,16.2,16.2,0,0,0,1.988-1.778,13.438,13.438,0,0,1,1.106-1.148Zm1.946,1.96a13.972,13.972,0,0,1,2.758,3.052l.784-.742a14.266,14.266,0,0,0-2.814-2.968Zm17.22-7.658a9.13,9.13,0,0,1,.77,1.708l.812-.294a8.586,8.586,0,0,0-.742-1.414h.882a11.306,11.306,0,0,1,1.288.056v-.9a8.642,8.642,0,0,1-1.386.084H240.52c.2-.364.266-.49.476-.882l-.9-.266a6.689,6.689,0,0,1-2.3,3.15,2.368,2.368,0,0,1,.672.574,9.016,9.016,0,0,0,1.568-1.82Zm5.418-.014a9.376,9.376,0,0,1,.854,1.666l.8-.322a11.827,11.827,0,0,0-.77-1.344h1.554a11.355,11.355,0,0,1,1.47.07v-.9a10.213,10.213,0,0,1-1.484.084h-3.01c.294-.546.378-.686.5-.952l-.84-.266A6.406,6.406,0,0,1,243.656,88a1.863,1.863,0,0,1,.686.5,8.337,8.337,0,0,0,1.064-1.3Zm-5.712,2.184a9.291,9.291,0,0,1-1.414-.084v.924a9.681,9.681,0,0,1,1.414-.084h2.814v1.386h-4.018a9.45,9.45,0,0,1-1.442-.084v.924a10.746,10.746,0,0,1,1.456-.084h6.818v1.372h-6.8a10.243,10.243,0,0,1-1.442-.084v.924a10.6,10.6,0,0,1,1.456-.084h6.79v2.352c0,.294-.112.364-.644.364a12.969,12.969,0,0,1-1.82-.112,3.252,3.252,0,0,1,.252.882c.49.028.98.042,1.372.042,1.386,0,1.722-.2,1.722-1.022V94.41h1.624a10.525,10.525,0,0,1,1.442.084V93.57a10.243,10.243,0,0,1-1.442.084H247.24V92.282h1.666a10.243,10.243,0,0,1,1.442.084v-.924a9.45,9.45,0,0,1-1.442.084h-4.522V90.14h3.36a9.739,9.739,0,0,1,1.4.084V89.3a9.165,9.165,0,0,1-1.414.084h-3.346a4.3,4.3,0,0,1,.084-.868H243.46a4.413,4.413,0,0,1,.084.868Zm-.1,5.852a9.369,9.369,0,0,1,2.114,1.988l.7-.644a13.266,13.266,0,0,0-2.184-1.932Z" transform="translate(195.677 14374.417)" fill="#fff"/>
    </g>
    <g id="step4" transform="translate(-33.5 2650.68)">
      <g id="グループ_692-3" data-name="グループ 692" transform="translate(-3)">
        <path id="長方形_2739-4" data-name="長方形 2739" d="M4,4V154H493V4H4M0,0H497V158H0Z" transform="translate(163 14307)" fill="#fa6a18"/>
        <rect id="長方形_2740-4" data-name="長方形 2740" width="473" height="133" transform="translate(174 14319)"/>
      </g>
      <g id="グループ_972" data-name="グループ 972" transform="translate(-1.05 -1.421)">
        <path id="パス_1351" data-name="パス 1351" d="M-59.89-8.72A8.65,8.65,0,0,1-64.01-.88a13.565,13.565,0,0,1-7.48,2,16.7,16.7,0,0,1-7.92-1.6,12.217,12.217,0,0,1-5.64-7.24l5.76-1.84a8.29,8.29,0,0,0,3.44,4.48,8.759,8.759,0,0,0,4.36.92,6.106,6.106,0,0,0,3.76-1.08,3.579,3.579,0,0,0,1.44-3.04,3.353,3.353,0,0,0-1.88-3.04,18.425,18.425,0,0,0-4.56-1.52q-5.8-1.32-7.72-2.48a7.6,7.6,0,0,1-3.84-7.08,7.886,7.886,0,0,1,3.18-6.5,13.173,13.173,0,0,1,8.38-2.5q9.12,0,12.64,7.28l-5.48,2.04a7.44,7.44,0,0,0-3.28-3.32,9.471,9.471,0,0,0-4.12-.76,6.069,6.069,0,0,0-4,1.2,3.066,3.066,0,0,0-1.2,2.44,3.012,3.012,0,0,0,1.6,2.72,15.763,15.763,0,0,0,3.92,1.28q4.64,1.04,5.64,1.36a12.159,12.159,0,0,1,5,2.76A7.76,7.76,0,0,1-59.89-8.72Zm28.52-16.96h-9.68V.72h-6.2v-26.4h-9.52v-5.36h25.4ZM-4.25.72H-26.37V-31.04H-4.25v5.36H-20.29v7.2H-6.17v5.4H-20.29v8.4H-4.25ZM26.67-21.16a9.585,9.585,0,0,1-3.16,7.68A11.521,11.521,0,0,1,15.79-11H8.15V.72H2.07V-31.04H15.79a11.958,11.958,0,0,1,7.64,2.28Q26.67-26.16,26.67-21.16Zm-6.28.12a4.409,4.409,0,0,0-1.28-3.32,6.073,6.073,0,0,0-4.4-1.44H8.15v9.6h6.56a6.038,6.038,0,0,0,4.32-1.44A4.449,4.449,0,0,0,20.39-21.04Zm48.46,5.2V-35.16L55.59-15.84ZM85.11-8.16h-7.5V1.08H68.85V-8.16H46.29V-15.6L67.53-46.02H77.61v30.18h7.5Z" transform="translate(251 14301)" fill="#fa6a18"/>
        <path id="パス_1350" data-name="パス 1350" d="M-59.89-8.72A8.65,8.65,0,0,1-64.01-.88a13.565,13.565,0,0,1-7.48,2,16.7,16.7,0,0,1-7.92-1.6,12.217,12.217,0,0,1-5.64-7.24l5.76-1.84a8.29,8.29,0,0,0,3.44,4.48,8.759,8.759,0,0,0,4.36.92,6.106,6.106,0,0,0,3.76-1.08,3.579,3.579,0,0,0,1.44-3.04,3.353,3.353,0,0,0-1.88-3.04,18.425,18.425,0,0,0-4.56-1.52q-5.8-1.32-7.72-2.48a7.6,7.6,0,0,1-3.84-7.08,7.886,7.886,0,0,1,3.18-6.5,13.173,13.173,0,0,1,8.38-2.5q9.12,0,12.64,7.28l-5.48,2.04a7.44,7.44,0,0,0-3.28-3.32,9.471,9.471,0,0,0-4.12-.76,6.069,6.069,0,0,0-4,1.2,3.066,3.066,0,0,0-1.2,2.44,3.012,3.012,0,0,0,1.6,2.72,15.763,15.763,0,0,0,3.92,1.28q4.64,1.04,5.64,1.36a12.159,12.159,0,0,1,5,2.76A7.76,7.76,0,0,1-59.89-8.72Zm28.52-16.96h-9.68V.72h-6.2v-26.4h-9.52v-5.36h25.4ZM-4.25.72H-26.37V-31.04H-4.25v5.36H-20.29v7.2H-6.17v5.4H-20.29v8.4H-4.25ZM26.67-21.16a9.585,9.585,0,0,1-3.16,7.68A11.521,11.521,0,0,1,15.79-11H8.15V.72H2.07V-31.04H15.79a11.958,11.958,0,0,1,7.64,2.28Q26.67-26.16,26.67-21.16Zm-6.28.12a4.409,4.409,0,0,0-1.28-3.32,6.073,6.073,0,0,0-4.4-1.44H8.15v9.6h6.56a6.038,6.038,0,0,0,4.32-1.44A4.449,4.449,0,0,0,20.39-21.04Zm48.46,5.2V-35.16L55.59-15.84ZM85.11-8.16h-7.5V1.08H68.85V-8.16H46.29V-15.6L67.53-46.02H77.61v30.18h7.5Z" transform="translate(247 14301)"/>
      </g>
      <path id="パス_3806" data-name="パス 3806" d="M11.712-17.424H5.376a18.366,18.366,0,0,1-2.424-.12,25.854,25.854,0,0,1,.12,3.24C3.072-5.64,2.64-2.856.84.216a6.316,6.316,0,0,1,1.344,1.1A15.245,15.245,0,0,0,4.056-4.128c.432-2.544.576-5.256.576-11.9H20.088a18.459,18.459,0,0,1,2.592.12v-1.656a16.485,16.485,0,0,1-2.592.144H13.272v-1.248a5.352,5.352,0,0,1,.144-1.536H11.568a7.7,7.7,0,0,1,.144,1.512ZM6.288-.816A23.838,23.838,0,0,0,8.4-9.12L6.888-9.528c-.336,3.672-.864,5.736-2.04,7.848Zm3.864-10.8a11.749,11.749,0,0,1,.144,2.16V-.288c0,1.416.576,1.656,3.96,1.656,2.328,0,3.264-.168,3.768-.744.528-.576.816-2.064.984-5.064a5.543,5.543,0,0,1-1.536-.6v.6a13.757,13.757,0,0,1-.408,3.72c-.24.5-.84.648-2.9.648a7.9,7.9,0,0,1-1.944-.144c-.312-.12-.384-.24-.384-.624V-9.432a11.871,11.871,0,0,1,.144-2.184Zm7.176.264A30.348,30.348,0,0,0,11.5-15.144l-1.008,1.056a21.078,21.078,0,0,1,5.784,3.96Zm5.568,9.5A34.7,34.7,0,0,0,19.968-9.72l-1.392.6a25.529,25.529,0,0,1,2.76,7.944ZM29.784-3.12a13.969,13.969,0,0,1,2.328-.12h2.016a6.617,6.617,0,0,1-2.28,2.088A13.145,13.145,0,0,1,26.856.408a4.344,4.344,0,0,1,.864,1.344A13.588,13.588,0,0,0,32.952-.264a8.021,8.021,0,0,0,2.76-2.976H41.04a10.892,10.892,0,0,1-.456,2.712c-.216.624-.5.792-1.512.792a15.08,15.08,0,0,1-2.664-.312,4.353,4.353,0,0,1,.36,1.464c.96.1,1.8.144,2.5.144,1.392,0,2.088-.288,2.448-.984a12.4,12.4,0,0,0,.792-3.96c.024-.36.048-.48.072-.7A20.642,20.642,0,0,0,46.368-2.5a4.7,4.7,0,0,1,.864-1.344A14.169,14.169,0,0,1,40.7-6.768h3.672a16.6,16.6,0,0,1,2.424.144V-8.16a16.729,16.729,0,0,1-2.448.144H34.536a8.18,8.18,0,0,0,.96-1.368h6.216c.72,0,1.344.024,1.92.072-.048-.576-.072-1.056-.072-1.632v-3c0-.6.024-1.1.072-1.656a16.605,16.605,0,0,1-1.9.072H30.456a16.605,16.605,0,0,1-1.9-.072c.048.6.072,1.1.072,1.656v3c0,.552-.024,1.008-.072,1.632.576-.048,1.176-.072,1.9-.072h3.528a8.179,8.179,0,0,1-1.032,1.368H27.72a16.958,16.958,0,0,1-2.448-.144v1.536A17.3,17.3,0,0,1,27.7-6.768h3.936A17.241,17.241,0,0,1,28.7-4.992a18.449,18.449,0,0,1-3.48,1.272,3.9,3.9,0,0,1,.936,1.272,27.136,27.136,0,0,0,3.624-1.7ZM38.9-6.768A15.844,15.844,0,0,0,41.952-4.44c-.48.024-.48.024-1.728.024H36.216l.168-.5.36-1.2-1.7-.12A4.989,4.989,0,0,1,34.7-4.416H31.992c-.84,0-.984,0-1.656-.048a15.12,15.12,0,0,0,3.072-2.3ZM30.024-14.4H42.168v1.392H30.024Zm0,2.448H42.168v1.464H30.024Zm1.68-6.432h-3.84a17.427,17.427,0,0,1-2.448-.144v1.56a13.578,13.578,0,0,1,2.424-.192H31.7a7.964,7.964,0,0,1-.1,1.152H33.24a5.012,5.012,0,0,1-.072-1.152h5.52a5.358,5.358,0,0,1-.072,1.176h1.632a6.309,6.309,0,0,1-.1-1.176H44.16a13.578,13.578,0,0,1,2.424.192v-1.56a17.427,17.427,0,0,1-2.448.144H40.152v-.24a8.2,8.2,0,0,1,.1-1.416H38.592a8.567,8.567,0,0,1,.1,1.416v.24h-5.52v-.24a8.141,8.141,0,0,1,.072-1.416H31.608a8.269,8.269,0,0,1,.1,1.392Zm27.288,1.1H52.464a22.786,22.786,0,0,1-2.424-.1,10.651,10.651,0,0,1,.1,1.632v1.584a11.54,11.54,0,0,1-.1,1.68h1.584v-3.432h16.92v3.432H70.1a10.924,10.924,0,0,1-.1-1.68v-1.584a10.067,10.067,0,0,1,.1-1.632,22.3,22.3,0,0,1-2.4.1H60.552v-.864a7.992,7.992,0,0,1,.168-1.9h-1.9a8.54,8.54,0,0,1,.168,1.9ZM56.256-7.824a16.838,16.838,0,0,1-.168,1.7,7.134,7.134,0,0,1-2.664,4.392A11.588,11.588,0,0,1,49.3.216,5.352,5.352,0,0,1,50.28,1.7,25.407,25.407,0,0,0,53.424.216,8.9,8.9,0,0,0,56.9-3.552a9.688,9.688,0,0,0,.96-4.272H61.32V-.7c0,1.44.672,1.728,4.176,1.728,4.728,0,5.088-.288,5.208-4.128a5.1,5.1,0,0,1-1.488-.6,12.064,12.064,0,0,1-.144,2.352c-.168.792-.72.96-3.432.96-2.424,0-2.76-.1-2.76-.768V-7.824h4.944a16.238,16.238,0,0,1,2.4.144V-9.336a15.794,15.794,0,0,1-2.4.144H52.248a15.794,15.794,0,0,1-2.4-.144V-7.68a16.465,16.465,0,0,1,2.4-.144Zm-3.1-3.96a12.826,12.826,0,0,1,2.112-.12h9.36a12.826,12.826,0,0,1,2.112.12v-1.608a12.65,12.65,0,0,1-2.112.12h-9.36a12.65,12.65,0,0,1-2.112-.12Zm37.632-5.4a24.819,24.819,0,0,1-6.144,4.392H83.232a16.973,16.973,0,0,1,.12,2.376V-.672c0,.408-.216.528-.984.528a21.178,21.178,0,0,1-3.84-.384,6.954,6.954,0,0,1,.336,1.68c1.44.144,2.52.216,3.336.216a6.077,6.077,0,0,0,2.088-.24A1.628,1.628,0,0,0,85.032-.48V-11.328A29.214,29.214,0,0,0,91.488-15.7c.6-.552.912-.84,1.968-1.92l-.936-1.1a16.247,16.247,0,0,1-2.3.1H77.688a21.418,21.418,0,0,1-2.928-.168v1.776a22.638,22.638,0,0,1,2.928-.168Zm18.1,12.7c-.048-.6-.072-1.032-.072-1.464,0-.1,0-.1.024-1.1l.192-8.544c.024-1.008.072-1.728.144-2.64H106.8c.1.912.12,1.632.144,2.64l.216,8.544v.864c0,.792,0,.96-.048,1.7ZM109.176,0V-2.256h-2.328V0ZM6.679,24.884l.807.807L4.895,28.281l2.591,2.6-.807.827-2.6-2.6-2.591,2.6-.827-.827,2.591-2.6L.663,25.69l.827-.807,2.591,2.591Zm1.483,2.652v1.429H6.672V27.536Zm-6.419,0v1.429H.253V27.536Zm1.586-3.1H4.758v1.49H3.329Zm0,6.419H4.758v1.49H3.329Zm11.4-5.124h-3.7a8.415,8.415,0,0,1-1.316-.07v.994a8.377,8.377,0,0,1,1.274-.07h8.4v1.932H11.452a7.411,7.411,0,0,1-1.288-.07v.994a7.564,7.564,0,0,1,1.246-.07h7.98V31.51H10.878a7.921,7.921,0,0,1-1.288-.07v1.008a8.97,8.97,0,0,1,1.3-.084h8.5v.742h.98a10.977,10.977,0,0,1-.084-1.414V26.75a8.977,8.977,0,0,1,.056-1.106,5.63,5.63,0,0,1-1.106.084h-3.6V21.584a6.853,6.853,0,0,1,.084-1.26H14.644a6.958,6.958,0,0,1,.084,1.26Zm-4.76-4.1A13.864,13.864,0,0,1,12.11,25.07l.826-.476a15.181,15.181,0,0,0-2.184-3.4Zm9.562-.518a11.385,11.385,0,0,1-2.24,3.724l.77.476a14.136,14.136,0,0,0,2.338-3.78ZM28.686,27.1v1.33H27.524a6.953,6.953,0,0,1-1.26-.07v.826a7.131,7.131,0,0,1,1.274-.07h6.4a8.343,8.343,0,0,1,1.372.07V28.36a8.238,8.238,0,0,1-1.372.07h-1.3V27.1h.882a7.989,7.989,0,0,1,1.316.07v-.812a7.312,7.312,0,0,1-1.288.07h-.91c.014-.42.028-.6.056-.9h-.952a6.646,6.646,0,0,1,.07.9H29.5a6.864,6.864,0,0,1,.056-.9H28.6a7.067,7.067,0,0,1,.07.9h-.546a7.118,7.118,0,0,1-1.288-.07v.812a7.6,7.6,0,0,1,1.3-.07Zm.812,0h2.324v1.33H29.5Zm.728-5.586a5.986,5.986,0,0,1,.028-.756,8.02,8.02,0,0,1-1.232.056H27.538a6.187,6.187,0,0,1-1.106-.07v.84a6.093,6.093,0,0,1,1.106-.07h1.9v1.05H27.4a6.64,6.64,0,0,1-.882-.042,5.616,5.616,0,0,1,.042.77v1.05c0,.728.224.826,1.862.826,1.134,0,1.512-.056,1.708-.238.238-.21.322-.476.406-1.176a2.247,2.247,0,0,1-.728-.336,2.305,2.305,0,0,1-.14.854c-.1.168-.322.21-1.33.21-.924,0-1.008-.042-1.008-.392v-.9h2.058a7.65,7.65,0,0,1,.868.042,5.316,5.316,0,0,1-.028-.742Zm4.634,0a5.761,5.761,0,0,1,.028-.756,8.02,8.02,0,0,1-1.232.056H32.172a6.187,6.187,0,0,1-1.106-.07v.84a6.093,6.093,0,0,1,1.106-.07h1.9v1.05H32.018a6.887,6.887,0,0,1-.9-.042,5.423,5.423,0,0,1,.056.784v1.022c0,.742.21.84,1.89.84,1.974,0,2.072-.056,2.24-1.414a2.85,2.85,0,0,1-.742-.336,1.866,1.866,0,0,1-.2.924c-.112.112-.448.154-1.414.154a3.214,3.214,0,0,1-.826-.07c-.14-.056-.168-.112-.168-.336v-.9H34.02a7.65,7.65,0,0,1,.868.042,5.424,5.424,0,0,1-.028-.742ZM29.2,29.228A7.137,7.137,0,0,1,26.67,30.74a1.982,1.982,0,0,1,.644.63,8.739,8.739,0,0,0,2.576-1.694Zm2.254.49a10.034,10.034,0,0,0,3,1.722,3.473,3.473,0,0,1,.6-.714,9.173,9.173,0,0,1-2.94-1.456ZM23.2,21.332a12.787,12.787,0,0,1,2,2.38l.714-.63a18.319,18.319,0,0,0-2.072-2.324ZM22.96,26.82a5.394,5.394,0,0,1,1.022-.07h.854v3.388A7.825,7.825,0,0,1,22.68,31.8l.462.924c.2-.182.2-.182.448-.392l.658-.546c.322-.28.56-.518.98-.952a3.679,3.679,0,0,0,1.456,1.344c.84.392,1.568.476,4.018.476,1.694,0,3.262-.028,4.7-.1a3.683,3.683,0,0,1,.322-1.008,41.326,41.326,0,0,1-5.642.28,7.7,7.7,0,0,1-3.178-.42,2.211,2.211,0,0,1-1.2-1.274V27.38a10.731,10.731,0,0,1,.056-1.47,6.265,6.265,0,0,1-1.064.07h-.658a5.673,5.673,0,0,1-1.078-.07Zm15.33-2.226a3.093,3.093,0,0,1,.546-.042,41.223,41.223,0,0,0,4.984-.364c.084.14.084.168.238.462a17.072,17.072,0,0,0,1.68,2.744,6.991,6.991,0,0,0-2.9-.5,5.951,5.951,0,0,0-2.716.518,2.617,2.617,0,0,0-1.582,2.282,2.258,2.258,0,0,0,.63,1.54,5.133,5.133,0,0,0,3.64,1.05,11.606,11.606,0,0,0,4.116-.756l-.154-1.078a9.23,9.23,0,0,1-3.976.9,4.742,4.742,0,0,1-2.73-.644,1.4,1.4,0,0,1-.532-1.092,1.59,1.59,0,0,1,.756-1.3,4.963,4.963,0,0,1,2.66-.588,7.586,7.586,0,0,1,2.45.364,2.8,2.8,0,0,1,.966.574l.938-.532a25.926,25.926,0,0,1-2.52-4.074l.476-.1c.882-.168,1.05-.21,1.89-.434.42-.112.532-.14.826-.2l-.14-.994a16.385,16.385,0,0,1-3.388.882,11.517,11.517,0,0,1-.5-1.232,4.462,4.462,0,0,1-.406-1.26l-1.106.154c.126.252.21.448.364.812.252.63.476,1.19.686,1.666a32.677,32.677,0,0,1-4.172.294,6.138,6.138,0,0,1-1.078-.07Zm13.426,5.67a2.967,2.967,0,0,1,.364-.448c.238-.266.434-.49.588-.658.476-.532.476-.532.686-.77a1.555,1.555,0,0,0,.252-.336h.028c-.042.63-.042.63-.042,2.268a11.971,11.971,0,0,1-.1,2.31h1.092a21.708,21.708,0,0,1-.042-2.324V27.282a22.7,22.7,0,0,1,2.7-2.38,3.985,3.985,0,0,1,2.114-.952.71.71,0,0,1,.77.756,10.494,10.494,0,0,1-.35,2.1,13.6,13.6,0,0,0-.532,3.262,1.611,1.611,0,0,0,1.638,1.89,2.41,2.41,0,0,0,1.932-1.008,6.91,6.91,0,0,0,.868-1.386,4.608,4.608,0,0,1-.644-.952,5.761,5.761,0,0,1-.8,1.61,1.688,1.688,0,0,1-1.19.77c-.546,0-.84-.35-.84-.994a15.4,15.4,0,0,1,.6-3.318,9.351,9.351,0,0,0,.322-2.044A1.522,1.522,0,0,0,59.5,23a5.627,5.627,0,0,0-3.164,1.54,9.994,9.994,0,0,0-1.778,1.638l-.028-.014c0-.084.014-.112.014-.224a.715.715,0,0,0,.014-.126c.014-.658.014-.658.028-.938a2.386,2.386,0,0,0,.014-.35,4.825,4.825,0,0,1,.714-.868l-.364-.434a.914.914,0,0,1-.28.07,16.3,16.3,0,0,1,.168-2.492l-1.106-.014a5.7,5.7,0,0,1,.042.7c0,.182-.014.812-.056,1.876-1.176.07-1.792.112-1.834.112a2.833,2.833,0,0,1-.434-.028l.056.966a14.265,14.265,0,0,1,2.2-.2c-.042,1.232-.07,2.114-.084,2.674a21.5,21.5,0,0,1-2.464,2.366ZM65.73,24.188a2.085,2.085,0,0,1,.238-.014h.056c.546.028.672.028,1.162.028.518,0,.686,0,.966-.014A28.157,28.157,0,0,1,65.52,31.93l1.022.434a36.889,36.889,0,0,0,1.61-4.27c.378-1.274.77-2.856.98-3.962A20.463,20.463,0,0,0,71.5,23.8c.28-.056.28-.056.392-.07l-.07-.966a11.543,11.543,0,0,1-2.52.476c.07-.42.112-.616.182-1.064a13.237,13.237,0,0,1,.252-1.33l-1.106-.112a13.689,13.689,0,0,1-.308,2.576c-.406.028-.56.028-.84.028a9.655,9.655,0,0,1-1.75-.126Zm10.57.686c-1.05-.042-1.26-.042-1.526-.042a15.861,15.861,0,0,0-3.71.462l.1.952a12.185,12.185,0,0,1,3.5-.476,14.056,14.056,0,0,1,1.652.1ZM71.2,27.9c-.742.952-.938,1.386-.938,2.016,0,1.386,1.19,2.1,3.486,2.1a14.029,14.029,0,0,0,2.492-.238c.462-.07.462-.07.616-.1l-.1-1.05a10.4,10.4,0,0,1-3.094.476c-1.6,0-2.45-.448-2.45-1.288a1.685,1.685,0,0,1,.35-.994,4.691,4.691,0,0,1,.42-.532ZM84.588,22.7H80.6a9.422,9.422,0,0,1-1.554-.1v1.05a10.856,10.856,0,0,1,1.568-.084h2.94c-.112,2.94-.658,4.844-1.806,6.328A7.255,7.255,0,0,1,78.9,32.168a2.709,2.709,0,0,1,.686.784,8.376,8.376,0,0,0,1.526-1.022A8.931,8.931,0,0,0,82.852,30a9.406,9.406,0,0,0,1.33-3.584h4.4a26.846,26.846,0,0,1-.434,4.242c-.21,1.036-.35,1.2-.952,1.2a11.332,11.332,0,0,1-2.114-.224,3.049,3.049,0,0,1,.224.994c.756.084,1.5.126,1.946.126,1.12,0,1.456-.294,1.75-1.5a29.3,29.3,0,0,0,.532-4.774c.028-.546.042-.7.07-.98a8.908,8.908,0,0,1-1.442.07H84.336a19.407,19.407,0,0,0,.2-2h5.306a8.744,8.744,0,0,1,1.582.084v-1.05a9.835,9.835,0,0,1-1.61.1H85.526v-1.05a6.819,6.819,0,0,1,.084-1.232H84.49a7.707,7.707,0,0,1,.1,1.232Zm10.3-1.624a7.8,7.8,0,0,1-.2,1.12,23.161,23.161,0,0,0-.63,5.544,20.066,20.066,0,0,0,.364,3.962c.042.266.056.336.084.56l1.008-.084v-.21a12.2,12.2,0,0,1,1.134-3.85l-.672-.322a13.007,13.007,0,0,0-.91,2.73c-.056-.742-.084-1.568-.084-2.66a20.7,20.7,0,0,1,.42-4.382A19.893,19.893,0,0,1,96,21.248Zm2.884,2.646a18.647,18.647,0,0,0,2.24.14,23.634,23.634,0,0,0,3.01-.182q.924-.126.966-.126l-.07-.994a15.022,15.022,0,0,1-3.752.378,9.509,9.509,0,0,1-2.38-.21Zm1.022,2.73a3.867,3.867,0,0,0-1.218,2.6A1.979,1.979,0,0,0,98,30.348c.6.728,1.61,1.064,3.206,1.064a14.444,14.444,0,0,0,2.87-.28c.28-.042.308-.056.49-.07l-.14-1.078a9.214,9.214,0,0,1-3.22.49c-1.806,0-2.688-.5-2.688-1.54a3.252,3.252,0,0,1,1.05-2.058Zm12.516-1.68h.056a.643.643,0,0,1,.14.014,2.085,2.085,0,0,1,.238.014,3.671,3.671,0,0,1,.448.028c.49.028,1.008.042,1.582.042.532,0,.966-.014,1.6-.042.042,2.044.1,3.36.14,3.654a3.955,3.955,0,0,0-1.554-.28c-1.554,0-2.66.826-2.66,1.988,0,1.218,1.022,1.988,2.646,1.988a2.391,2.391,0,0,0,2.338-1.176,2.413,2.413,0,0,0,.168-.952,2.009,2.009,0,0,0-.028-.364.983.983,0,0,1,.126.084.9.9,0,0,0,.14.084,7.565,7.565,0,0,1,1.988,1.456l.434-.98c-.154-.1-.182-.126-.35-.238a10.134,10.134,0,0,0-2.338-1.372c-.112-1.862-.14-2.576-.154-3.962a13.384,13.384,0,0,0,1.484-.224c.952-.2.952-.2.98-.2l-.042-.952a9.542,9.542,0,0,1-2.422.518c-.014-.308-.014-.532-.014-.686a14.324,14.324,0,0,1,.1-2.2H115.3a3.106,3.106,0,0,1,.042.574c0,1.064,0,1.064.014,2.38-.574.028-.952.042-1.5.042a9.691,9.691,0,0,1-2.52-.224Zm4.214,4.564s.014.322.014.42a1.635,1.635,0,0,1-.266,1.092,1.929,1.929,0,0,1-1.428.49c-.98,0-1.624-.448-1.624-1.134s.714-1.162,1.806-1.162A3.616,3.616,0,0,1,115.528,29.34Zm-6.692-8.33a6.449,6.449,0,0,1-.154.882,23.721,23.721,0,0,0-.728,5.754,22.286,22.286,0,0,0,.392,4.158c.056.322.07.392.084.518l.994-.1a1.525,1.525,0,0,1-.028-.28,12.089,12.089,0,0,1,1.2-3.976l-.686-.322a1.93,1.93,0,0,1-.112.28,12.428,12.428,0,0,0-.826,2.464l-.056-.014V30.11c-.014-.252-.014-.28-.014-.392-.028-.644-.056-1.47-.056-1.96a19.949,19.949,0,0,1,1.078-6.566Zm19.25-.728a8.884,8.884,0,0,1-1.666,2.338c-.224-.168-.392-.308-.924-.714l-.6.644a21.584,21.584,0,0,1,2.8,2.3c-.252.252-.252.252-1.008.966-1.246.042-1.246.042-1.5.042a6.424,6.424,0,0,1-1.008-.056l.154.938a4.7,4.7,0,0,1,.672-.07c1.372-.07,2.1-.112,2.2-.112a7.564,7.564,0,0,1-3.29,3.108,3.5,3.5,0,0,1,.63.672,9.517,9.517,0,0,0,1.918-1.54,8.758,8.758,0,0,0,1.61,1.75,11.787,11.787,0,0,1-4.3,1.61,2.6,2.6,0,0,1,.532.812,12.44,12.44,0,0,0,4.452-1.9,8.264,8.264,0,0,0,1.232.714,12.634,12.634,0,0,0,3.15,1.148,4.984,4.984,0,0,1,.462-.882,11.875,11.875,0,0,1-4.116-1.5,10.523,10.523,0,0,0,2.03-2.086,3.007,3.007,0,0,1,.322-.42l-.574-.532a7.246,7.246,0,0,1-1.148.07h-2.66a7.875,7.875,0,0,0,.672-1.092c1.54-.1,1.54-.1,3.934-.364.28.392.392.56.77,1.12l.728-.5a27.53,27.53,0,0,0-2.422-2.912l-.658.448a14.662,14.662,0,0,1,1.092,1.2c-1.792.168-1.792.168-3.738.28a29.76,29.76,0,0,0,3.01-3.178c.336-.406.42-.5.56-.658l-.882-.518a13.927,13.927,0,0,1-2.24,2.842c-.476-.448-.686-.644-1.26-1.134a17.354,17.354,0,0,0,1.554-1.89c.2-.308.238-.35.35-.5Zm2.464,8.008a7.14,7.14,0,0,1-1.778,1.778,8.053,8.053,0,0,1-1.736-1.778Zm-6.86-8.064a7.507,7.507,0,0,1-2.884,3,2.111,2.111,0,0,1,.56.686,11.037,11.037,0,0,0,2.786-2.744c.21-.28.21-.28.322-.42Zm-1.274,11.13a11.76,11.76,0,0,1-.084,1.624h1.022a16.575,16.575,0,0,1-.07-1.666V25.532a10.245,10.245,0,0,0,.924-1.274,4.691,4.691,0,0,1,.406-.616l-.8-.49a6.433,6.433,0,0,1-.826,1.428,9.7,9.7,0,0,1-2.45,2.45,2.335,2.335,0,0,1,.518.77,6.828,6.828,0,0,0,1.386-1.386c-.014.784-.014.784-.014.882,0,.2,0,.518-.014.994Zm14.21.014a10.76,10.76,0,0,1-.084,1.484h1.022v-.91h7.224v.91h1.022a10.7,10.7,0,0,1-.084-1.5V22.382a8.8,8.8,0,0,1,.07-1.288,10.156,10.156,0,0,1-1.442.07h-6.3a11.422,11.422,0,0,1-1.5-.07,9.81,9.81,0,0,1,.07,1.372Zm.938-9.352h7.224v3.92h-7.224Zm0,4.774h7.224v4.3h-7.224ZM154.63,28.15h-4.2a9.108,9.108,0,0,1-1.526-.084v.882a10.156,10.156,0,0,1,1.526-.07h4.2v1.008h-3.4a8.376,8.376,0,0,1-1.344-.07v.868a9.335,9.335,0,0,1,1.372-.07h3.374v1.148c0,.308-.126.378-.63.378a12.109,12.109,0,0,1-1.736-.14,2.308,2.308,0,0,1,.238.882c.784.042,1.036.056,1.33.056,1.358,0,1.638-.2,1.638-1.162V30.614h3.752v.574h.91a8.254,8.254,0,0,1-.084-1.4v-.91a9.522,9.522,0,0,1,1.484.07v-.882a7.115,7.115,0,0,1-1.484.084v-.588a11.08,11.08,0,0,1,.042-1.162,13.682,13.682,0,0,1-1.568.056H155.47v-.91H158.7a8.732,8.732,0,0,1,1.134.056,6.625,6.625,0,0,1-.056-.938v-.616a6.829,6.829,0,0,1,.056-.952,8.965,8.965,0,0,1-1.148.056h-3.22v-.924h4.312a12.523,12.523,0,0,1,1.582.084v-.924a10.605,10.605,0,0,1-1.61.084H155.47a4.565,4.565,0,0,1,.1-1.26h-1.022a5.636,5.636,0,0,1,.084,1.26H150.6a10.389,10.389,0,0,1-1.6-.084v.924a11.982,11.982,0,0,1,1.568-.084h4.06v.924h-2.912a9.344,9.344,0,0,1-1.162-.056,6.964,6.964,0,0,1,.056.952v.616a6.628,6.628,0,0,1-.056.938,8.826,8.826,0,0,1,1.148-.056h2.926v.91h-3.262a8.164,8.164,0,0,1-1.344-.07v.868a8.861,8.861,0,0,1,1.316-.07h3.29Zm.84,0v-.966h3.752v.966Zm0,.728h3.752v1.008H155.47Zm-.84-5.04v1.036h-3.178V23.838Zm.84,0h3.472v1.036H155.47ZM175.49,21.7a11.111,11.111,0,0,1-1.372.07h-3.4c.126-.28.266-.6.434-.98.084-.182.084-.182.14-.308l-.854-.224a5.958,5.958,0,0,1-.812,1.876,7.261,7.261,0,0,1-1.6,1.876,2.381,2.381,0,0,1,.616.546,8.951,8.951,0,0,0,1.218-1.4,7.224,7.224,0,0,0,1.568,1.876,10.158,10.158,0,0,1-3.052,1.456,2.33,2.33,0,0,1,.476.728,11.5,11.5,0,0,0,3.206-1.694,10.794,10.794,0,0,0,3.346,1.6,2.76,2.76,0,0,1,.406-.84A10.068,10.068,0,0,1,172.648,25a7.422,7.422,0,0,0,1.638-2.478,8.816,8.816,0,0,1,1.2.056Zm-2.086.826a5.121,5.121,0,0,1-1.386,2.016,6.47,6.47,0,0,1-1.68-2.016Zm-7.8,3.052a10.281,10.281,0,0,1-2.954,4.452,2.469,2.469,0,0,1,.56.77,11.187,11.187,0,0,0,2.492-3.78V31.8c0,.238-.112.322-.406.322a8.185,8.185,0,0,1-1.484-.154,2.357,2.357,0,0,1,.2.826,10.745,10.745,0,0,0,1.4.084c.84,0,1.134-.238,1.12-.924l-.07-6.384h1.4a7.173,7.173,0,0,1-.882,1.834,2.648,2.648,0,0,1,.672.392,9.294,9.294,0,0,0,.784-1.68c.266-.686.266-.686.364-.9l-.378-.462a8.573,8.573,0,0,1-.994.042h-.966l.35-.364c-.182-.21-.238-.266-.392-.448a12.343,12.343,0,0,0,1.834-2.058,3.731,3.731,0,0,1,.42-.5l-.476-.518a6.608,6.608,0,0,1-1.134.042H164.57a8.076,8.076,0,0,1-1.33-.07v.91a7.065,7.065,0,0,1,1.26-.084h2.968a8.039,8.039,0,0,1-1.554,1.764,17.236,17.236,0,0,0-1.344-1.162l-.56.5A10.9,10.9,0,0,1,166.1,24.8h-1.9a7.714,7.714,0,0,1-1.288-.07v.924a6.783,6.783,0,0,1,1.246-.084Zm6.062,2.506c.042-.238.07-.406.126-.742.056-.364.084-.518.126-.784l-.994-.042a1.2,1.2,0,0,1,.028.308,6.284,6.284,0,0,1-.14,1.26H169.19a7.668,7.668,0,0,1-1.33-.07v.91a7.6,7.6,0,0,1,1.3-.07h1.47a4.173,4.173,0,0,1-1.176,1.974,7.354,7.354,0,0,1-2.394,1.414,2.13,2.13,0,0,1,.532.728,6,6,0,0,0,3.892-4.116h2.548a14.712,14.712,0,0,1-.252,2.03c-.182.91-.308,1.092-.8,1.092a7.528,7.528,0,0,1-1.708-.252,3,3,0,0,1,.182.9,9.859,9.859,0,0,0,1.652.154,1.193,1.193,0,0,0,1.022-.378,7.3,7.3,0,0,0,.714-3.094c.084-.994.084-.994.126-1.274a7.319,7.319,0,0,1-1.148.056Zm16.31-1.806a19.391,19.391,0,0,1-.588,5.348c-.168.448-.322.546-.812.546a11.455,11.455,0,0,1-2-.21,2.863,2.863,0,0,1,.2.924,16.944,16.944,0,0,0,1.694.084,2.273,2.273,0,0,0,1.12-.168,1.56,1.56,0,0,0,.7-1.064,27.7,27.7,0,0,0,.63-5.824c.014-.224.014-.294.042-.5a9.154,9.154,0,0,1-1.344.07h-8.5c.028-.7.028-.7.042-1.344h7.7c.574,0,.952.014,1.386.042a7.565,7.565,0,0,1-.028-.952V21.906a9.216,9.216,0,0,1,.028-1.008,11,11,0,0,1-1.456.07h-6.846a13.965,13.965,0,0,1-1.708-.07,8.109,8.109,0,0,1,.07,1.4,33.821,33.821,0,0,1-.546,7.21,8.113,8.113,0,0,1-1.232,2.814,3.257,3.257,0,0,1,.728.728c1.176-1.932,1.624-3.612,1.82-6.776Zm-8.806-2.926v-1.6h8.176v1.6Zm2.016,8.568v-.952h3.4a11.991,11.991,0,0,1,1.218.042,7.756,7.756,0,0,1-.056-1.106V28.514a7.418,7.418,0,0,1,.056-1.092,9.286,9.286,0,0,1-1.232.056h-3.01a10.512,10.512,0,0,1-1.3-.056,8.274,8.274,0,0,1,.056,1.106v2.058c0,.434-.028.868-.07,1.33Zm0-3.682h3.71v1.974h-3.71Zm15.26-7.518a6.435,6.435,0,0,1,.07,1.134c.014,2,.112,4.7.224,6.314v.084a.387.387,0,0,1,.014.126c-.042-.028-.042-.028-.07-.028-.056,0-.056-.014-.126-.028a6.035,6.035,0,0,0-1.218-.126c-1.988,0-3.29.868-3.29,2.212,0,1.288,1.106,2.072,2.912,2.072a2.959,2.959,0,0,0,2.492-.966,2.508,2.508,0,0,0,.35-1.414,4,4,0,0,0-.056-.6,2.718,2.718,0,0,0,.336.154,14.083,14.083,0,0,1,1.89,1.078,6.2,6.2,0,0,1,1.456,1.218l.658-.98a6.415,6.415,0,0,1-.644-.434,12.1,12.1,0,0,0-3.738-1.988c-.07-.9-.14-2.254-.182-3.612a24.171,24.171,0,0,0,3.374-.308,7.787,7.787,0,0,1,.84-.1l-.126-1.036a13.936,13.936,0,0,1-4.1.532c-.028-.994-.028-1.148-.028-1.456a10.047,10.047,0,0,1,.084-1.848Zm.322,8.554a7.479,7.479,0,0,1,.042.77,1.3,1.3,0,0,1-.336,1.05,2.365,2.365,0,0,1-1.554.462,2.26,2.26,0,0,1-1.68-.56.95.95,0,0,1-.21-.6c0-.812.868-1.316,2.3-1.316A4.768,4.768,0,0,1,196.77,29.27Zm11.13-8.61a2.806,2.806,0,0,1-.042.448,35.388,35.388,0,0,0-.476,5.166V26.6l.028,1.456.014.252v.154l1.008-.042c-.014-.21-.014-.28-.014-.336a7.306,7.306,0,0,1,.756-3.122c.8-1.638,1.694-2.436,2.758-2.436,1.344,0,2.128,1.3,2.128,3.556a4.821,4.821,0,0,1-2.408,4.648,7.4,7.4,0,0,1-2.842.882,2.889,2.889,0,0,1,.56.952,10.6,10.6,0,0,0,2.492-.826,5.776,5.776,0,0,0,3.234-5.5,5.751,5.751,0,0,0-.84-3.4,2.635,2.635,0,0,0-2.24-1.246,3.339,3.339,0,0,0-2.8,1.806,6.247,6.247,0,0,0-.854,2.086c-.07.294-.07.294-.1.406l-.056-.014c.042-.714.238-2.24.462-3.654a7.936,7.936,0,0,1,.322-1.442Zm19.964.462a6.124,6.124,0,0,1-.49,1.484,19.238,19.238,0,0,1-1.652,3.262,40.215,40.215,0,0,0-3.64-2.436l-.7.742a26.513,26.513,0,0,1,3.766,2.534,14.913,14.913,0,0,1-5.572,4.676,2.5,2.5,0,0,1,.728.84,16.717,16.717,0,0,0,5.628-4.872,20.044,20.044,0,0,1,3.052,3.038l.784-.868a35.989,35.989,0,0,0-3.22-3.01,22.9,22.9,0,0,0,2.058-4.088,3.943,3.943,0,0,1,.434-.854Zm5.53,6.076a15.294,15.294,0,0,1,1.736-.056h8.12a16.015,16.015,0,0,1,1.708.056V26.064a11.042,11.042,0,0,1-1.694.07H235.13a9.9,9.9,0,0,1-1.736-.084Zm15.988-5.866a6.228,6.228,0,0,1,.056.994,19.1,19.1,0,0,1-.63,6.006,6.926,6.926,0,0,1-2.366,3.22,2.586,2.586,0,0,1,.84.756A8.558,8.558,0,0,0,249.7,28.85c.532-1.414.644-2.45.756-6.244a6.974,6.974,0,0,1,.084-1.2Zm3.486-.1a5.617,5.617,0,0,1,.056,1.246l-.084,8.19a2.359,2.359,0,0,1-.1.952l.56.644a2.332,2.332,0,0,1,.322-.154c.2-.07.2-.07.448-.168a9.229,9.229,0,0,0,2-1.022,7.955,7.955,0,0,0,2.814-3.6,3.915,3.915,0,0,1-.784-.812,6.923,6.923,0,0,1-1.652,2.8,6.47,6.47,0,0,1-2.6,1.624l.084-8.456a5.428,5.428,0,0,1,.084-1.232Zm9.464-.154a7.8,7.8,0,0,1-.2,1.12,23.162,23.162,0,0,0-.63,5.544,20.066,20.066,0,0,0,.364,3.962c.042.266.056.336.084.56l1.008-.084v-.21a12.2,12.2,0,0,1,1.134-3.85l-.672-.322a13,13,0,0,0-.91,2.73c-.056-.742-.084-1.568-.084-2.66a20.7,20.7,0,0,1,.42-4.382,19.894,19.894,0,0,1,.588-2.24Zm2.884,2.646a18.647,18.647,0,0,0,2.24.14,23.634,23.634,0,0,0,3.01-.182q.924-.126.966-.126l-.07-.994a15.022,15.022,0,0,1-3.752.378,9.508,9.508,0,0,1-2.38-.21Zm1.022,2.73a3.867,3.867,0,0,0-1.218,2.6,1.979,1.979,0,0,0,.42,1.288c.6.728,1.61,1.064,3.206,1.064a14.443,14.443,0,0,0,2.87-.28c.28-.042.308-.056.49-.07l-.14-1.078a9.214,9.214,0,0,1-3.22.49c-1.806,0-2.688-.5-2.688-1.54a3.252,3.252,0,0,1,1.05-2.058Zm8.82-2.59a41.121,41.121,0,0,1,4.83-.462,27.13,27.13,0,0,0,3.08-.308,9.165,9.165,0,0,0-1.33.742,5.307,5.307,0,0,0-2.618,4.3,3.408,3.408,0,0,0,1.554,2.856A7.062,7.062,0,0,0,283.6,32.07c.224.042.28.056.434.084l.182-1.134h-.14a7.175,7.175,0,0,1-2.1-.448,2.745,2.745,0,0,1-1.96-2.59,4.279,4.279,0,0,1,1.722-3.234,7.109,7.109,0,0,1,2.688-1.414,6.493,6.493,0,0,1,1.568-.182l-.084-1.05a9.4,9.4,0,0,1-1.666.154c-1.806.084-6.286.336-7.952.462-.434.028-.6.042-.8.042h-.5Zm16.478,2.646a3.679,3.679,0,0,0-1.61,2.7,2.23,2.23,0,0,0,1.6,2.114,9.877,9.877,0,0,0,3.22.434,22.838,22.838,0,0,0,3.78-.322,4.351,4.351,0,0,1,.476-.07l-.126-1.148a13.281,13.281,0,0,1-4.2.532,8.915,8.915,0,0,1-2.562-.28c-.784-.266-1.19-.728-1.19-1.372s.42-1.3,1.33-2.058Zm-.84-3.584c.2.014.2.014.462.042a27.386,27.386,0,0,0,3.08.182,11.066,11.066,0,0,0,2.114-.182,21.773,21.773,0,0,0-2.478,1.484l.714.574a21.353,21.353,0,0,1,3.528-2.128l-.07-.924a15.31,15.31,0,0,1-3.542.294,16.006,16.006,0,0,1-3.724-.336Zm6.37,1.792a10.917,10.917,0,0,1,1.428,2.226l.7-.42a11.16,11.16,0,0,0-1.428-2.17Zm1.554-.812a11.741,11.741,0,0,1,1.428,2.2l.7-.392a10.792,10.792,0,0,0-1.456-2.184Zm11.144-1.526v1.106h-2.128a8.184,8.184,0,0,1-1.092-.056,6.555,6.555,0,0,1,.056.924v2.828a6.229,6.229,0,0,1-.056.91,9.125,9.125,0,0,1,1.106-.056h2.114v1.148H307.3a8.315,8.315,0,0,1-1.4-.07v.868a11.3,11.3,0,0,1,1.4-.07h2.464v.266a7.463,7.463,0,0,1-.1,1.274h.98a7.463,7.463,0,0,1-.1-1.274v-.266h2.814a8.629,8.629,0,0,1,1.4.07v-.868a8.121,8.121,0,0,1-1.386.07h-2.828V28.038h2.338a8.6,8.6,0,0,1,1.092.056,5.986,5.986,0,0,1-.056-.91v-2.8a6.576,6.576,0,0,1,.056-.952,8.459,8.459,0,0,1-1.092.056h-2.338V22.382h2.772a8.524,8.524,0,0,1,1.4.07v-.868a11.517,11.517,0,0,1-1.456.07h-2.716a6.976,6.976,0,0,1,.1-1.26h-.98a7.081,7.081,0,0,1,.1,1.26h-2.45a11.356,11.356,0,0,1-1.456-.07v.868a7.287,7.287,0,0,1,1.316-.07Zm0,1.806v1.19h-2.352v-1.19Zm.784,0h2.562v1.19h-2.562Zm-.784,1.862v1.288h-2.352V26.05Zm.784,0h2.562v1.288h-2.562Zm-7.994-4.858a13.056,13.056,0,0,1,2.184,2.548l.714-.644a18.65,18.65,0,0,0-2.254-2.464Zm-.2,5.656a5.553,5.553,0,0,1,1.036-.07h.924v3.388a8.946,8.946,0,0,1-2.254,1.68l.462.924a5.611,5.611,0,0,1,.546-.462,14.33,14.33,0,0,0,1.652-1.442,3.357,3.357,0,0,0,1.162,1.148c.9.518,1.736.658,4.06.658,1.652,0,3.626-.042,4.872-.1a3.439,3.439,0,0,1,.322-1.022,39.458,39.458,0,0,1-5.628.266c-1.988,0-2.828-.168-3.64-.77a2.012,2.012,0,0,1-.686-.9V27.408a10.448,10.448,0,0,1,.07-1.484,6.539,6.539,0,0,1-1.078.07h-.728a5.836,5.836,0,0,1-1.092-.07Zm14.084.476c.728-.084.728-.084,1.848-.182.168-.014.2-.014.42-.028V31.65a9.681,9.681,0,0,1-.084,1.414h.994a9.472,9.472,0,0,1-.084-1.4V27.03c.574-.07.8-.1,1.2-.168.1.308.14.462.266.882l.476-.21a2.44,2.44,0,0,1,.322.532,13.519,13.519,0,0,0,3.444-2.17,11.841,11.841,0,0,0,3.71,2.128,2.833,2.833,0,0,1,.448-.9,10.658,10.658,0,0,1-3.556-1.806,12.553,12.553,0,0,0,2.044-2.646,5.885,5.885,0,0,1,.336-.5l-.5-.546a6.814,6.814,0,0,1-1.316.07h-2.058c.154-.266.182-.322.364-.672.1-.2.154-.294.238-.434l-.882-.322a6.013,6.013,0,0,1-.994,1.974,9.4,9.4,0,0,1-2.044,2.1,2.075,2.075,0,0,1,.616.588,11.876,11.876,0,0,0,1.5-1.526,9.148,9.148,0,0,0,1.5,1.946,11.8,11.8,0,0,1-3.01,1.834A13.034,13.034,0,0,0,320.6,24.79l-.644.28a8.51,8.51,0,0,1,.518,1.092c-.8.112-1.218.154-2.114.224.6-.77,1.512-2.086,1.96-2.828.476-.784.742-1.218.8-1.288l-.84-.448a14.009,14.009,0,0,1-1.47,2.716c-.364-.5-.434-.6-.826-1.078a17.628,17.628,0,0,0,1.078-1.9,5.709,5.709,0,0,1,.518-.938l-.9-.364a9.212,9.212,0,0,1-1.19,2.618c-.224-.266-.322-.378-.63-.714l-.532.644a15.362,15.362,0,0,1,2.016,2.422c-.434.616-.714,1.022-.868,1.218-.252,0-.532.014-.658.014a3.045,3.045,0,0,1-.518-.028Zm10.6-4.886a9.757,9.757,0,0,1-1.792,2.366,6.873,6.873,0,0,1-1.582-2.072c.07-.112.112-.154.21-.294ZM317.114,28a11.162,11.162,0,0,1-.826,3.794l.77.364a14.365,14.365,0,0,0,.854-3.948Zm3.01.168a13.28,13.28,0,0,1,.63,3.206l.77-.21a17.928,17.928,0,0,0-.686-3.192Zm3.234,4.144h3.808v.742h.91a8.815,8.815,0,0,1-.07-1.428v-2.59a11.612,11.612,0,0,1,.042-1.218c-.28.014-.56.028-1.148.028h-3.276c-.6,0-.812,0-1.134-.028a9.206,9.206,0,0,1,.042,1.218v2.6a8.616,8.616,0,0,1-.07,1.414h.9Zm0-3.682h3.808v2.912h-3.808Z" transform="translate(195.677 14382.499)" fill="#fff"/>
    </g>
  </g>
</svg>
