<svg xmlns="http://www.w3.org/2000/svg" width="498" height="96" viewBox="0 0 498 96">
  <g id="txt_head02" transform="translate(-671.755 -3335.755)">
    <g id="グループ_343" data-name="グループ 343" transform="translate(672 3336)">
      <rect id="長方形_2501" data-name="長方形 2501" width="498" height="96" rx="48" transform="translate(-0.245 -0.245)" fill="#0f1721"/>
      <path id="長方形_2502" data-name="長方形 2502" d="M40,3A37.011,37.011,0,0,0,25.6,74.094,36.766,36.766,0,0,0,40,77H439A37.011,37.011,0,0,0,453.4,5.906,36.765,36.765,0,0,0,439,3H40m0-3H439a40,40,0,0,1,0,80H40A40,40,0,0,1,40,0Z" transform="translate(9.755 7.755)" fill="#fdfdfd"/>
    </g>
    <path id="パス_3795" data-name="パス 3795" d="M-162.36-8.4h-14.08l.96,10.48h-5.84l-.92-10.48h-15.28v-5.28h14.76l-.6-7.4H-196.2v-5.24h12.36l-.56-6.04h5.84l.48,6.04H-164v5.24h-13.56l.64,7.4h14.56Zm38.04-15.2a20.114,20.114,0,0,1-4.52,12,18.8,18.8,0,0,1-9.68,5.8v-5.24a11.642,11.642,0,0,0,7.68-7.48l-12.64.44L-140.12,2h-5.56l-3.24-19.88-6.4.2v-5.04l5.6-.16-.8-4.92h5.4l.8,4.8Zm25.88,1.12a115.674,115.674,0,0,0-16.44-2.32v-5.72a122.593,122.593,0,0,1,16.44,2.2Zm14.48-2.64Q-85.12-11.72-93-5.36q-7.36,5.92-21.44,6.4v-5.6q11.32-.84,16.76-4.88,6.52-4.8,7.68-15.68Zm39.24-2.68A4.246,4.246,0,0,1-46-24.68a4.246,4.246,0,0,1-3.12,1.28,4.312,4.312,0,0,1-3.14-1.28,4.213,4.213,0,0,1-1.3-3.12,4.278,4.278,0,0,1,1.3-3.14,4.278,4.278,0,0,1,3.14-1.3A4.213,4.213,0,0,1-46-30.94,4.312,4.312,0,0,1-44.72-27.8Zm3,28.6a15.57,15.57,0,0,1-8.56-5.4,57.174,57.174,0,0,1-7-11.2q-2.68-5.32-3.84-6.52a4.63,4.63,0,0,0-3.48-1.2h-1.28l-4.2,9.8a9.8,9.8,0,0,1-7.8,6.36v-5.96q1.84-.72,3-3.56l5-12.24h4.6q4.96,0,7.12,1.52,2.4,1.72,5.6,8.08a73.953,73.953,0,0,0,5.12,9.04q2.88,4.16,5.72,5.32Zm-5.44-28.6a1.951,1.951,0,0,0-.58-1.4,1.854,1.854,0,0,0-1.38-.6,1.854,1.854,0,0,0-1.38.6,1.951,1.951,0,0,0-.58,1.4,1.885,1.885,0,0,0,.58,1.38,1.885,1.885,0,0,0,1.38.58,1.885,1.885,0,0,0,1.38-.58A1.885,1.885,0,0,0-47.16-27.8ZM-3.64-14.12H-36.36V-19.6H-3.64Zm25.2-8.36A115.674,115.674,0,0,0,5.12-24.8v-5.72a122.593,122.593,0,0,1,16.44,2.2Zm14.48-2.64Q34.88-11.72,27-5.36,19.64.56,5.56,1.04v-5.6Q16.88-5.4,22.32-9.44q6.52-4.8,7.68-15.68ZM78.48-3.4,73.52-1.24a48.078,48.078,0,0,0-5-13l4.64-1.88A46.429,46.429,0,0,1,78.48-3.4ZM70.04-19.16l-2.8,4.2a42.778,42.778,0,0,0-11.2-4.56l2.92-3.92A46.54,46.54,0,0,1,70.04-19.16Zm7.08-4.56H49.72v5.08a81.663,81.663,0,0,1-.6,11.08A43.226,43.226,0,0,1,46.24,2.8L40.84.36a28.6,28.6,0,0,0,3-9.4,73.736,73.736,0,0,0,.6-10.68v-9H57.56v-4.12h5.76v4.12h13.8ZM72.08-5.52Q71.88-.2,70.8,1.12T65.96,2.44H62.04a6.139,6.139,0,0,1-3.24-.56q-.88-.68-.88-2.96v-14.6h5.2v12.2a1.8,1.8,0,0,0,.16.94q.16.22.84.22h.96q1.4,0,1.72-.76a21.138,21.138,0,0,0,.4-4.08Zm-15.24-7.8A55.933,55.933,0,0,1,53.92.04L48.96-1.88a44.7,44.7,0,0,0,3.32-12.6ZM97.16-.64Q93.6,2.24,87.12,3.28L83.16-.6a48.773,48.773,0,0,0,5.96-1.04A13.028,13.028,0,0,0,94.2-3.96H88.04V-5.6q-2,.92-4.08,1.68L80.68-7.6a39.242,39.242,0,0,0,8.36-2.92H81.92v-3.76H94.24q.28-.28,1.04-1.12H85.72V-25.96H91.2v-1.2H82.48v-4H91.2v-1.88h5.32v1.88h7.04v-1.88h5.28v1.88h8.72v4h-8.72v1.2h5.84V-15.4H101.32l-.96,1.12h17.76v3.76h-7.48A50.327,50.327,0,0,0,119.4-7.6l-3.08,3.68q-2-.72-4.04-1.6v2.88q0,3.68-1.44,4.64-1.2.8-5.84.8H98.36Zm2.92-3.32a13.24,13.24,0,0,1-2.32,2.8h6.44a6.682,6.682,0,0,0,2.08-.2q.84-.36.84-1.76v-.84Zm2.16-5.72a16.816,16.816,0,0,1-.48,1.92h6a50.236,50.236,0,0,1-4.24-2.76H96.28A43.549,43.549,0,0,1,92.2-7.76h4.68a10.271,10.271,0,0,0,.52-1.92Zm1.32-16.28v-1.2H96.52v1.2Zm5.84,4.04v-1.16H91v1.16Zm0,3.8v-1.24H91v1.24Zm38.68-4.6h4.16v-4.6h-4.16Zm0,9.24h4.16v-4.68h-4.16Zm4.16,4.6h-4.32a34.335,34.335,0,0,1-2.88,12.2L140.28.72l.08-.16-1.96,2.2a29.6,29.6,0,0,1-6.36-5.88L134.8-5.8h-6.16l2.88,2.68a30.767,30.767,0,0,1-6.84,6.36L120.96-.48A23.328,23.328,0,0,0,127.4-5.8h-5.56v-4.56h3.6V-24.8h-3.2v-4.68h3.2V-32.8h4.8v3.32h4.36V-32.8h4.64v3.32h2.68v4.68h-2.68v14.44h2.96V-5.8h-6.12a20.321,20.321,0,0,0,5.16,4.48q2.12-5.16,2.12-14.64V-32.24h13.72V-2.2q0,3.08-1,4.12a4.575,4.575,0,0,1-3.24.88H149.8l-1.44-5.2h2.24a2.366,2.366,0,0,0,1.16-.2q.48-.28.48-1.56ZM134.6-22.68v-2.28h-4.36v2.28Zm0,6.04v-2.2h-4.36v2.2Zm0,6.2V-12.8h-4.36v2.36Zm44.04-7.2H168.32V2.56H163V-32.08h15.64Zm-4.84-8.8v-1.6h-5.48v1.6Zm0,5.04v-1.68h-5.48v1.68Zm17.88-5.04v-1.6h-5.64v1.6Zm0,5.04v-1.68h-5.64v1.68ZM186-1.32h-9.2V.56h-4.96V-15.92h16.24V-2.28h1.68a3.825,3.825,0,0,0,1.12-.12q.8-.24.8-1.8V-17.64H181.2V-32.08H197V-3.04q0,3.36-.96,4.44t-4.08,1.08h-5Zm-2.6-9v-1.84h-6.88v1.84Zm0,5.08V-7.16h-6.88v1.92Z" transform="translate(920.755 3400.756)" fill="#fdfdfd"/>
  </g>
</svg>
