<svg width="16" height="25" viewBox="0 0 16 25" fill="none" xmlns="http://www.w3.org/2000/svg">
<path d="M7.88 0.76C9.4 0.76 10.74 1.07 11.9 1.69C13.06 2.31 13.96 3.19 14.6 4.33C15.24 5.47 15.56 6.79 15.56 8.29V15.01C15.56 16.79 15.08 18.3 14.12 19.54C13.16 20.76 11.84 21.57 10.16 21.97C10.08 21.99 10.04 22.04 10.04 22.12V24.58C10.04 24.68 10 24.76 9.92 24.82C9.86 24.9 9.78 24.94 9.68 24.94H6.17C6.07 24.94 5.98 24.9 5.9 24.82C5.84 24.76 5.81 24.68 5.81 24.58V22.15C5.81 22.07 5.77 22.02 5.69 22C4.01 21.6 2.68 20.78 1.7 19.54C0.72 18.3 0.23 16.79 0.23 15.01V8.29C0.23 6.79 0.55 5.48 1.19 4.36C1.83 3.22 2.73 2.34 3.89 1.72C5.05 1.08 6.38 0.76 7.88 0.76ZM11.33 8.08C11.33 6.98 11.01 6.09 10.37 5.41C9.75 4.73 8.92 4.39 7.88 4.39C6.86 4.39 6.03 4.73 5.39 5.41C4.77 6.09 4.46 6.98 4.46 8.08V14.92C4.46 16.02 4.77 16.91 5.39 17.59C6.03 18.27 6.86 18.61 7.88 18.61C8.92 18.61 9.75 18.27 10.37 17.59C11.01 16.91 11.33 16.02 11.33 14.92V8.08Z" fill="#57E4EF"/>
</svg>
