<svg xmlns="http://www.w3.org/2000/svg" width="15.48" height="25.43" viewBox="0 0 15.48 25.43"><path fill="#004896" d="M15.39 12.62c0 3.52-1 6.09-2.85 7.69l2.94 2.63-2.71 2.49-3.92-3.58-1.13.07a7 7 0 01-5.66-2.45A10.326 10.326 0 010 12.68V9.34a10.559 10.559 0 012-6.87 7.73 7.73 0 0111.24-.09 10.072 10.072 0 012.12 6.66l.03 3.58zm-4.32-3.31A8.708 8.708 0 0010.24 5a3 3 0 00-5.09 0 8.341 8.341 0 00-.84 4.13v3.53a8.616 8.616 0 00.84 4.32 2.8 2.8 0 002.57 1.39 2.731 2.731 0 002.51-1.38 8.619 8.619 0 00.84-4.23V9.31z"/></svg>