<svg xmlns="http://www.w3.org/2000/svg" width="663.168" height="144.427" viewBox="0 0 663.168 144.427"><path d="M409.834 142.692v-1.979c.077-21.252 10.143-38.32 27.446-63.986 11.431-16.825 14.367-23.696 14.367-39.45 0-17.507-2.842-25.373-13.373-25.373-10.147 0-13.87 7.993-13.87 20.516v6.33h-12.952v-6.84c0-15.22 4.581-31.909 27.486-31.909 21.78 0 26.772 16.147 26.772 36.599 0 21.993-5.77 30.351-16.856 46.321-13.729 20.051-22.594 35.317-23.679 47.637h43.697l-1.992 12.135h-57.046zM532.423 35.429v73.221c0 24.663-9.84 35.777-29.312 35.777-17.863 0-28.417-10.757-28.417-35.42V36.183C474.695 9.107 487.611 0 503.992 0c15.948 0 28.431 8.954 28.431 35.429zm-43.959-.321v74.553c0 14.864 4.64 21.826 15.234 21.826 9.411 0 14.878-5.231 14.878-22.336V35.018c0-16.364-6.027-22.08-15.018-22.08-8.977 0-15.094 4.925-15.094 22.17zm50.828 107.584v-1.979c.077-21.252 10.143-38.32 27.446-63.986 11.431-16.825 14.367-23.696 14.367-39.45 0-17.507-2.842-25.373-13.373-25.373-10.147 0-13.87 7.993-13.87 20.516v6.33H540.91v-6.84c0-15.221 4.581-31.91 27.487-31.91 21.78 0 26.772 16.147 26.772 36.599 0 21.993-5.77 30.351-16.856 46.321-13.729 20.051-22.594 35.317-23.679 47.637h43.697l-1.992 12.135h-57.047zm64.837 0v-1.979c.077-21.252 10.143-38.32 27.446-63.986 11.431-16.825 14.367-23.696 14.367-39.45 0-17.507-2.842-25.373-13.373-25.373-10.147 0-13.87 7.993-13.87 20.516v6.33h-12.952v-6.84c0-15.22 4.581-31.909 27.486-31.909 21.78 0 26.772 16.147 26.772 36.599 0 21.993-5.77 30.351-16.856 46.321-13.729 20.051-22.594 35.317-23.679 47.637h43.697l-1.992 12.135h-57.046z" fill="#00629D"/><path fill="none" stroke="#000" stroke-width=".85" stroke-miterlimit="10" d="M3.969 97.228h387.496"/><path d="M21.125 107.471c5.01 0 8.631 1.588 12.005 4.614.446.396.446.992.049 1.389l-3.025 3.125c-.348.396-.844.396-1.24 0-2.084-1.835-4.861-2.927-7.64-2.927-6.35 0-11.063 5.308-11.063 11.558 0 6.201 4.763 11.46 11.112 11.46 2.977 0 5.506-1.142 7.59-2.828.396-.347.942-.298 1.24 0l3.075 3.175c.397.348.298.992-.05 1.34-3.373 3.273-7.639 4.812-12.054 4.812-9.922 0-17.908-7.888-17.908-17.809s7.987-17.909 17.909-17.909zm40.974 0c9.922 0 17.858 7.987 17.858 17.908s-7.937 17.809-17.858 17.809S44.29 135.3 44.29 125.379s7.888-17.908 17.809-17.908zm0 29.268c6.251 0 11.409-5.109 11.409-11.359s-5.158-11.46-11.409-11.46c-6.25 0-11.359 5.209-11.359 11.459s5.109 11.36 11.359 11.36zm31.203-28.374c0-.496.446-.894.942-.894h.744c.347 0 .595.1.843.348l20.239 21.578h.1v-20.486c0-.496.396-.943.942-.943h4.564c.496 0 .942.447.942.943v33.385c0 .496-.446.893-.942.893h-.695c-.347 0-.595-.1-.843-.348L99.8 120.418h-.099v21.331a.942.942 0 01-.943.942h-4.514c-.496 0-.942-.446-.942-.942v-33.384zm44.695.546c0-.496.396-.943.942-.943h20.189c.546 0 .942.447.942.943v4.067a.94.94 0 01-.942.942h-14.684v9.326h12.253c.496 0 .942.446.942.942v4.067c0 .496-.446.942-.942.942h-12.253v12.551c0 .496-.446.942-.942.942h-4.563a.94.94 0 01-.942-.942v-32.837zm34.574 0c0-.496.396-.943.942-.943h20.189c.546 0 .942.447.942.943v4.067a.94.94 0 01-.942.942h-14.684v8.136h12.253c.496 0 .942.446.942.942v4.117a.94.94 0 01-.942.942h-12.253v8.681h14.684c.546 0 .942.447.942.943v4.067a.94.94 0 01-.942.942h-20.189a.94.94 0 01-.942-.942v-32.837zm35.518 0c0-.496.396-.943.942-.943h14.188c5.952 0 10.814 4.763 10.814 10.666 0 4.563-3.026 8.284-7.342 10.02l6.796 12.601c.347.645 0 1.438-.844 1.438h-5.208c-.447 0-.695-.248-.794-.446l-6.598-13.146h-5.507v12.649c0 .496-.446.942-.942.942h-4.563a.94.94 0 01-.942-.942v-32.839zm14.584 14.881c2.629 0 4.911-2.282 4.911-5.061 0-2.629-2.282-4.812-4.911-4.812h-8.086v9.872h8.086zm25.099-14.881c0-.496.396-.943.942-.943h20.189c.546 0 .942.447.942.943v4.067a.94.94 0 01-.942.942H254.22v8.136h12.253c.496 0 .942.446.942.942v4.117a.94.94 0 01-.942.942H254.22v8.681h14.684c.546 0 .942.447.942.943v4.067a.94.94 0 01-.942.942h-20.189a.94.94 0 01-.942-.942v-32.837zm35.518-.546c0-.496.446-.894.942-.894h.744c.347 0 .595.1.843.348l20.239 21.578h.1v-20.486c0-.496.396-.943.942-.943h4.564c.496 0 .942.447.942.943v33.385c0 .496-.446.893-.942.893h-.695c-.347 0-.595-.1-.843-.348l-20.339-22.422h-.099v21.331a.942.942 0 01-.943.942h-4.514c-.496 0-.942-.446-.942-.942v-33.385zm60.568-.894c5.01 0 8.631 1.588 12.006 4.614.445.396.445.992.049 1.389l-3.025 3.125c-.348.396-.844.396-1.24 0-2.084-1.835-4.861-2.927-7.641-2.927-6.35 0-11.062 5.308-11.062 11.558 0 6.201 4.763 11.46 11.113 11.46 2.977 0 5.506-1.142 7.59-2.828.396-.347.941-.298 1.24 0l3.074 3.175c.398.348.299.992-.049 1.34-3.373 3.273-7.639 4.812-12.055 4.812-9.921 0-17.908-7.888-17.908-17.809s7.986-17.909 17.908-17.909zm25.201 1.44c0-.496.396-.943.941-.943h20.189c.547 0 .943.447.943.943v4.067a.941.941 0 01-.943.942h-14.684v8.136h12.254c.496 0 .941.446.941.942v4.117a.94.94 0 01-.941.942h-12.254v8.681h14.684c.547 0 .943.447.943.943v4.067a.941.941 0 01-.943.942H370a.94.94 0 01-.941-.942v-32.837z" fill="#00629D"/><path d="M249.685 56.108h-31.748v-5.224h22.546a2.268 2.268 0 002.268-2.268V44.08a2.268 2.268 0 00-2.268-2.268h-22.546v-5.224h27.496a2.268 2.268 0 002.268-2.268v-4.535a2.268 2.268 0 00-2.268-2.268h-14.798l4.204-7.281h10.594a2.268 2.268 0 002.268-2.268v-4.535a2.268 2.268 0 00-2.268-2.268h-5.357l2.908-5.037a2.268 2.268 0 00-.83-3.098L237.49.337a2.268 2.268 0 00-3.098.83l-5.772 9.998h-4.077V2.709a2.268 2.268 0 00-2.268-2.268h-5.386a2.268 2.268 0 00-2.268 2.268v8.456h-4.708v-8.29a2.268 2.268 0 00-2.268-2.268h-5.386a2.268 2.268 0 00-2.268 2.268v8.29h-4.163l-5.686-9.848a2.268 2.268 0 00-3.098-.83L182.38 3.18a2.268 2.268 0 00-.83 3.098l2.822 4.888h-5.271a2.268 2.268 0 00-2.268 2.268v4.535a2.268 2.268 0 002.268 2.268h10.508l4.204 7.281h-14.712a2.268 2.268 0 00-2.268 2.268v4.535a2.268 2.268 0 002.268 2.268h27.496v5.224h-23.309a2.268 2.268 0 00-2.268 2.268v4.535a2.268 2.268 0 002.268 2.268h23.309v5.224H174.85a2.268 2.268 0 00-2.268 2.268v4.535a2.268 2.268 0 002.268 2.268h19.305l-16.74 9.665a2.268 2.268 0 00-.83 3.098l2.693 4.664a2.268 2.268 0 003.098.83l24.223-13.985v13.904a2.268 2.268 0 002.268 2.268h6.803a2.268 2.268 0 002.268-2.268V69.798l24.223 13.985a2.268 2.268 0 003.098-.83l2.693-4.664a2.268 2.268 0 00-.83-3.098l-17.343-10.013h19.907a2.268 2.268 0 002.268-2.268v-4.535a2.27 2.27 0 00-2.269-2.267zm-44.415-28.59l-4.204-7.281h22.316l-4.204 7.281H205.27zM61.746 29.365H56.36a2.268 2.268 0 01-2.268-2.268V4.872a2.268 2.268 0 012.268-2.268h5.386a2.268 2.268 0 012.268 2.268v22.225a2.27 2.27 0 01-2.268 2.268z"/><path d="M77.783.915h-5.386a2.268 2.268 0 00-2.268 2.268v31.039H59.273a2.268 2.268 0 00-2.268 2.268v5.386a2.268 2.268 0 002.268 2.268h18.509a2.268 2.268 0 002.268-2.268V3.183A2.267 2.267 0 0077.783.915zM46.744 15.577a2.126 2.126 0 002.126-2.126v-2.835a2.126 2.126 0 00-2.126-2.126H32.638V3.183A2.268 2.268 0 0030.37.915h-6.803a2.268 2.268 0 00-2.268 2.268v5.308h-7.155V5.154a2.268 2.268 0 00-2.268-2.268H6.492a2.268 2.268 0 00-2.268 2.268v8.298c0 1.174.952 2.126 2.126 2.126H21.3v3.331H6.492a2.268 2.268 0 00-2.268 2.268v2.551a2.268 2.268 0 002.268 2.268H21.3v3.331H6.492a2.268 2.268 0 00-2.268 2.268v9.573a2.268 2.268 0 002.268 2.268h3.969a2.268 2.268 0 002.268-2.268v-4.754H21.3v5.463a2.268 2.268 0 002.268 2.268h6.803a2.268 2.268 0 002.268-2.268v-5.463h7.16v4.58a2.268 2.268 0 002.268 2.268h4.535a2.268 2.268 0 002.268-2.268v-9.399a2.268 2.268 0 00-2.268-2.268H32.638v-3.331h13.964a2.268 2.268 0 002.268-2.268v-2.551a2.268 2.268 0 00-2.268-2.268H32.638v-3.331h14.106zM81.326 48.89H49.578v-1.36a2.268 2.268 0 00-2.268-2.268h-5.386a2.268 2.268 0 00-2.268 2.268v1.36H6.492a2.268 2.268 0 00-2.268 2.268v4.535a2.268 2.268 0 002.268 2.268h16.221L1.134 70.419a2.268 2.268 0 00-.83 3.098l2.268 3.928a2.268 2.268 0 003.098.83l13.246-7.648v6.371l-3.9.688a2.269 2.269 0 00-1.84 2.627l.788 4.467a2.267 2.267 0 002.627 1.839l29.254-5.158a2.269 2.269 0 001.84-2.627l-.788-4.467a2.267 2.267 0 00-2.627-1.839l-14.015 2.471v-10.63c0-.094-.017-.182-.028-.273l10.319-5.958c.09-.052.167-.116.247-.178h28.165l-11.361 6.56-7.728-4.462a2.268 2.268 0 00-3.098.83l-2.693 4.664a2.268 2.268 0 00.83 3.098l31.668 18.283a2.268 2.268 0 003.098-.83l2.693-4.664a2.268 2.268 0 00-.83-3.098l-14.018-8.094 11.35-6.553a2.268 2.268 0 00.83-3.098l-1.522-2.636h3.15a2.268 2.268 0 002.268-2.268v-4.535a2.269 2.269 0 00-2.269-2.267zM107.7 24.946l-5.892 3.402a2.268 2.268 0 01-3.098-.83l-9.07-15.711a2.268 2.268 0 01.83-3.098l5.892-3.402a2.268 2.268 0 013.098.83l9.071 15.711a2.269 2.269 0 01-.831 3.098zm57.957 2.147H146.31v-9.47h14.723a2.268 2.268 0 002.268-2.268V9.969a2.268 2.268 0 00-2.268-2.268H146.31V2.85a2.268 2.268 0 00-2.268-2.268h-6.803a2.268 2.268 0 00-2.268 2.268v4.851h-9.936l.649-3.682a2.268 2.268 0 00-1.84-2.627L118.54.457a2.268 2.268 0 00-2.627 1.839l-3.067 17.392a2.268 2.268 0 001.839 2.627l5.304.935a2.267 2.267 0 002.627-1.839l.668-3.788h11.685v9.47H114.63a2.268 2.268 0 00-2.268 2.268v5.386a2.268 2.268 0 002.268 2.268h51.024a2.268 2.268 0 002.268-2.268V29.36a2.263 2.263 0 00-2.265-2.267zm-5.978 15.159h-38.771a2.268 2.268 0 00-2.268 2.268v21.34a2.268 2.268 0 002.268 2.268h38.771a2.268 2.268 0 002.268-2.268V44.52a2.267 2.267 0 00-2.268-2.268zm-9.07 15.954H129.98v-6.033h20.629v6.033z"/><path d="M167.925 73.433h-52.669l-5.458-6.504v-26.1a2.268 2.268 0 00-2.268-2.268H91.032a2.268 2.268 0 00-2.268 2.268v5.386a2.268 2.268 0 002.268 2.268h7.428v22.482l-9.345 5.395a2.268 2.268 0 00-.83 3.098l3.402 5.892a2.268 2.268 0 003.098.83l11.025-6.365 2.462 2.935a5.664 5.664 0 004.338 2.023h55.316c.783 0 1.417-.846 1.417-1.89v-7.559c-.001-1.045-.636-1.891-1.418-1.891z"/><linearGradient id="a" gradientUnits="userSpaceOnUse" x1="273.623" y1="23.169" x2="293.465" y2="23.169"><stop offset="0" stop-color="#ef8200"/><stop offset="1" stop-color="#e95504"/></linearGradient><path fill="url(#a)" d="M273.622 18.917h19.843v8.504h-19.843z"/><linearGradient id="b" gradientUnits="userSpaceOnUse" x1="273.623" y1="36.775" x2="307.638" y2="36.775"><stop offset="0" stop-color="#ef8200"/><stop offset="1" stop-color="#e95504"/></linearGradient><path fill="url(#b)" d="M273.622 32.523h34.016v8.504h-34.016z"/><linearGradient id="c" gradientUnits="userSpaceOnUse" x1="273.623" y1="50.382" x2="299.134" y2="50.382"><stop offset="0" stop-color="#ef8200"/><stop offset="1" stop-color="#e95504"/></linearGradient><path fill="url(#c)" d="M273.622 46.13h25.512v8.504h-25.512z"/><linearGradient id="d" gradientUnits="userSpaceOnUse" x1="273.623" y1="63.988" x2="287.796" y2="63.988"><stop offset="0" stop-color="#ef8200"/><stop offset="1" stop-color="#e95504"/></linearGradient><path fill="url(#d)" d="M273.622 59.736h14.173v8.504h-14.173z"/><path d="M261.767 5.108c0-1.163.931-2.208 2.093-2.208h26.731c22.432 0 40.796 18.248 40.796 40.563 0 22.548-18.364 40.796-40.796 40.796H263.86c-1.162 0-2.093-1.046-2.093-2.208V5.108zm27.546 68.109c17.085 0 29.173-12.553 29.173-29.755 0-17.085-12.088-29.521-29.173-29.521h-15.69v59.276h15.69z"/><path d="M352.769 42.532L329.756 6.154c-.931-1.511 0-3.254 1.976-3.254h9.879c.813 0 1.627.465 1.976 1.046l16.156 27.778h.349l16.62-27.778c.232-.465.93-1.046 1.859-1.046h9.879c1.977 0 2.906 1.744 1.977 3.254l-23.013 36.379 23.826 38.472c.93 1.627 0 3.254-1.976 3.254h-8.95c-.93 0-1.743-.581-1.976-1.046l-18.131-29.754h-.465l-17.899 29.754c-.349.465-1.046 1.046-1.976 1.046h-8.95c-2.093 0-3.022-1.743-2.093-3.254l23.945-38.473z"/></svg>