<svg xmlns="http://www.w3.org/2000/svg" viewBox="0 0 560 59.04"><g data-name="レイヤー 2"><path d="M0 54.04h560v5H0zM19.41 1.68c.54.08.88.17.88.55s-.46.58-.71.67c-.13 1.26-.22 2.73-.3 4.45a29.77 29.77 0 006.6-2.1c-.05 1.56-.09 3.49-.09 4.45a16.75 16.75 0 00.09 2.3A31.13 31.13 0 0119 13.86c0 .46-.09 2.48-.09 2.86A21.17 21.17 0 0126 15.46c6.35 0 11.64 4.41 11.64 11.38 0 7.82-5.8 10.46-10 10.46-6.34 0-6.55-5.63-6.59-7.39.88-.29 4.66-1.56 5.21-1.76 0 .84 0 2.81 2 2.81 1.6 0 2.65-1.6 2.65-3.7a5.28 5.28 0 00-5.59-5.54 19.54 19.54 0 00-6.51 1.47c.17 8.4.21 9.37.55 12.64l-5.76 2.61a56.61 56.61 0 00-7.35-6c-1 1.13-1.55 1.72-2.14 2.44l-3-7.23c1.94-1.05 9.58-6.85 11.26-7.9v-5c-2.48.13-5.42.17-7.81.17V8.19a17.4 17.4 0 003.31.25c1.64 0 4-.16 4.5-.16 0-3.15 0-3.62-.17-7.82zM10 28.78a4.54 4.54 0 001.89 1.09c.63 0 .59-1.47.54-3.07-.5.42-1.38 1.05-2.43 1.98zM31.93 6.43a35.71 35.71 0 019.15 6.72A29.6 29.6 0 0037 18.23a24.49 24.49 0 00-8.91-6.59zm39.39-3.87c.46.17.71.3.71.67 0 .59-.71.72-1.21.76-.47.72-1 1.55-2.48 4.41 2.22.21 4.37.3 5.25.3s1.47 0 2.06-.09a31.07 31.07 0 00-1.85 6.64 52.14 52.14 0 01-7.94-.38c-.51 1.13-1.09 2.65-1.51 3.7a63.86 63.86 0 009.32.63c-.8 2.27-1.47 4.91-1.8 6.21-2.57-.16-5.46-.42-9.41-1a13.34 13.34 0 00-.47 3.4c0 5.12 4.75 5.12 6.81 5.12 1.81 0 8.15 0 8.15-6.09 0-2.69-1.93-6.26-2.14-6.55A20.3 20.3 0 0081.15 18c1 1.85 2.9 5.84 2.9 9.54 0 9.24-9.75 11.38-15.25 11.38-8.44 0-13.11-4.37-13.11-10.54a20.85 20.85 0 01.63-5.09 34.65 34.65 0 01-5.46-1.55l1.43-6.22A39.22 39.22 0 0058 17.35c.17-.55.46-1.47 1.26-3.74a36.56 36.56 0 01-6.26-2.1L54.22 5a53.79 53.79 0 007.44 2.31c.42-1.13 2.43-6.26 2.86-7.31zM114.45 2c.34.09.8.26.8.68 0 .25-.21.54-.92.58-.93 2.86-1 3.16-1.22 3.79A64.37 64.37 0 00126.8 3.7c.21 1.38.76 4.58 1.18 6.26a73 73 0 01-17.18 3.57c-1 2.77-1.35 3.61-2.19 5.67a24.9 24.9 0 0110.93-2.86c11.21 0 11.8 7.9 11.8 10a10.38 10.38 0 01-4.49 8.48c-2.23 1.52-6.43 4-18.07 4-1.76 0-3-.13-3.9-.21a29.73 29.73 0 00-1.56-6.26c1.22.12 3.7.38 6.26.38 1 0 8.15 0 12.48-2.57a4.28 4.28 0 002.27-3.95c0-2.43-1.27-4.49-5.13-4.49-3.7 0-9.62 1.89-14.53 7l-6-3A58.9 58.9 0 00104.2 14c-3.65 0-6.55-.13-8.15-.26L96 6.81a38.76 38.76 0 0010.17.92 55.72 55.72 0 001.56-7.44zm44.73 5.52c.51.59 2.61 3.19 3 3.7a18.26 18.26 0 014.62-.72 8 8 0 018.36 8.19c0 7.86-8.53 8.57-12.81 8.91a28.22 28.22 0 00-1.91-5.6h1.94c1.42 0 6.8 0 6.8-3.69 0-.72-.21-2.36-2.69-2.36h-.92c.75 1.22 1.17 2 1.55 2.65-1.55.63-4 1.64-5.5 2.31a26.75 26.75 0 00-1.55-3.23c-1.56.71-2.48 1.22-3.07 1.55a83.24 83.24 0 015.88 16.22 52.83 52.83 0 00-6 2.9c-.76-5.93-3.79-13.45-4.92-16.14-1.22.89-1.55 1.18-4.75 3.91l-3.78-5.92a56.67 56.67 0 006-3 32.45 32.45 0 00-3.78-5.51l5.71-2.35a2.25 2.25 0 01.88-.25.46.46 0 01.51.46 1.22 1.22 0 01-.38.67c.63 1.14 1.64 3 2.27 4.16 1.51-.76 1.89-.92 2.39-1.18-.67-.92-.88-1.21-2.65-3.44zm33.68 2.1a42.76 42.76 0 019.83 5.76 41.23 41.23 0 00-4.07 5.62 35.73 35.73 0 00-9.54-5.71zm-1.34 22.6c13.19-4.54 24.07-14 29.57-22.26a22.08 22.08 0 004.33 5.67c-5.29 7.89-17.73 18.23-28.94 22.39 0 .25-.09 1-.72 1-.29 0-.54-.42-.63-.54zM197.11.29a64.56 64.56 0 0110.54 5c-.88 1-3.4 4.58-4 5.46a44.37 44.37 0 00-10.21-5.29zM239 35.92v-5.38h18.78v-4.29h-17.71v-5.5h17.69v-4h-18.23v-5.5h24.11v26h-5.88v-1.33zm77.48-19.41v7.14H280v-7.14zm44.01-1.18c-3 .21-6.51.51-14.11 4-7.39 3.36-10.34 7-10.34 9 0 3 4.5 3.62 9.83 3.62 4.67 0 11.05-1 14.37-2.4a28.27 28.27 0 00-.46 7.39 87.93 87.93 0 01-14.2 1.27c-7.31 0-10.17-1.1-12.27-2.23a8.13 8.13 0 01-4.57-7.23c0-5.71 4.78-9.28 8.94-11.88-2.1-2.36-2.39-4.58-3.11-9.92a17.1 17.1 0 00-1.13-4.49l8.23-1.79c-.16 2.14-.25 3.07-.25 4.41a19.82 19.82 0 001.85 9 133.37 133.37 0 0114.66-6zM382.2 4c.34.12.55.29.55.59 0 .5-.8.59-1.18.63a58 58 0 00-2.52 16.17 28.9 28.9 0 00.3 4.2c.54-.8 1.42-2.14 2-3a18 18 0 003 4.16A18.66 18.66 0 00380.86 37l-5.63 1.05A59.19 59.19 0 01373 21.13a75.63 75.63 0 012.52-19.24zm20-.93c.21 0 .54.09.54.47s-.59.63-1 .67a43.74 43.74 0 00-.42 5 38.71 38.71 0 006.21-1.55V14c-1 .25-2.9.71-6.38 1.34a68.14 68.14 0 00.67 9.66 23.61 23.61 0 018 4.33c-.67 1.22-1.93 4-2.86 5.92a14.92 14.92 0 00-4.49-3.19c-.17 5.38-5.55 6-8.19 6-6.3 0-9.45-3.45-9.45-7.35 0-5 4.95-6.89 10.41-6.77-.33-4.78-.37-5.33-.46-7.77-2.39.21-4.11.21-4.83.21-1.34 0-2.22 0-3.11-.12v-6.6a45 45 0 007.9.3v-8.2zm-8.7 26.05c-.92 0-2.94.29-2.94 1.6 0 1.09 1.39 1.55 2.73 1.55.34 0 2.86 0 2.86-2.06a1 1 0 00-.09-.54 5.92 5.92 0 00-2.6-.6zm39.4-3.92v-2.47c0-2.36.8-4.12 3.4-6.18 3.28-2.56 4.91-3.86 4.91-5.63 0-2.48-3.19-2.64-4.24-2.64-4.28 0-4.45 3-4.54 4.32h-7.89a10.34 10.34 0 011.89-5.88C429.49 2.56 434.66 2 437.31 2c7.52 0 11.76 4.21 11.76 8.83 0 2.94-1.43 4.78-5.34 7.77-3 2.31-4 3.27-4 5.79v.84zm-.13 3.7h7.06V36h-7.06z" fill="#ffa000" data-name="object"/></g></svg>