<svg id="レイヤー_1" data-name="レイヤー 1" xmlns="http://www.w3.org/2000/svg" width="71" height="20" viewBox="0 0 71 20">
  <defs>
    <style>
      .cls-1 {
        fill: #17538f;
      }
    </style>
  </defs>
  <title>nikkei</title>
  <g>
    <path class="cls-1" d="M37.92,5.43a2.92,2.92,0,0,0,2.34-2.56c0-1.52-.76-2.29-2.67-2.57A13.89,13.89,0,0,0,35.72.22c-1.54,0-2.48.05-3.91,0L31.7.33a14.79,14.79,0,0,1,.23,3.05c0,1.31,0,2.35,0,3.6a32.12,32.12,0,0,1-.21,4.51l.14.13.72,0c.61,0,2.08,0,3.43,0,2.73,0,4.77-1,4.88-3.24C41,6.77,40.16,5.76,37.92,5.43ZM36.76,1.37a1.73,1.73,0,0,1,1.45,1.79,1.92,1.92,0,0,1-1.75,2,20,20,0,0,1-2.69,0V1.28c.53,0,1.11,0,1.77,0A5.77,5.77,0,0,1,36.76,1.37Zm-1.08,9.31a6.63,6.63,0,0,1-1.15-.08c-.54-.13-.73-.44-.76-1.1V6.26c.72,0,1,0,1.42,0,2.7,0,3.5.86,3.52,2.09C38.74,10.09,37.6,10.71,35.68,10.67Z"/>
    <path class="cls-1" d="M9.63,11.52c.55,0,1.1,0,1.45,0l.15-.17c-.11-2.59-.09-8.11,0-10.85L11.11.38C8.89.46,2.73.45.19.35L0,.53c.1,1.19.12,3.2.11,5.37S.1,10,0,11.37l.11.15H1.46C3.12,11.48,7.77,11.47,9.63,11.52ZM9.21,1.59c0,.9,0,2.28,0,3.68-1,0-2.31,0-3.69,0S3,5.29,2,5.26C2,3.83,2,2.41,2,1.59ZM2,10.33c0-1,0-2.67,0-3.88,1.17,0,2.59,0,3.58,0s2.49,0,3.62,0c0,1.17,0,2.77,0,3.88Z"/>
    <path class="cls-1" d="M60.55,8.31a7.81,7.81,0,0,0,1.2-1.06,13.38,13.38,0,0,0-2.22-1.72,8.71,8.71,0,0,0,1.35-2.06c0-.12,0-.95,0-1.08l-1.75,0c0-.57,0-1.68.06-2.24L59.14.09c-.28,0-1.4,0-1.73,0l-.08.08c0,.52.07,1.84.05,2.26-.62,0-1.65,0-2.25,0,0,.34,0,.9,0,1.24,1,0,3-.05,3.83-.05a10.88,10.88,0,0,1-4.06,4.65c0,.25.06,1,.07,1.23a12.44,12.44,0,0,0,2.49-1.76c0,.87,0,2.73-.12,4.07.57,0,1.21,0,1.87,0-.06-1.26-.08-3.87-.07-5.12A10.16,10.16,0,0,1,60.55,8.31Zm8.94,2c-1,0-2.28,0-3.38,0,0-1.79,0-4.48,0-6.69,1.13,0,2.09,0,2.94,0,0-.35,0-.92,0-1.26-.84,0-2.22,0-2.94,0,0-1,0-1.62.09-2.37l0-.06c-.44,0-1.65,0-2,0l-.1.09c.05.71.07,1.38.09,2.34-1,0-1.8,0-2.62,0,0,.35,0,.92,0,1.25.82,0,1.64,0,2.64,0,0,2.14,0,4.8-.06,6.69-1.09,0-2.73,0-3.62,0,0,.4,0,1,0,1.41a82.66,82.66,0,0,1,9,0C69.45,11.27,69.46,10.68,69.48,10.29Z"/>
    <path class="cls-1" d="M45.79,6c0-1,0-3.9,0-4.66.68-.05,1.19-.08,1.8-.07a6.52,6.52,0,0,1,1.34.12A2.11,2.11,0,0,1,50.69,3.5C50.79,4.93,50,6,48.09,6.15a6.74,6.74,0,0,1-1.28,0l-.08,1.05a9.58,9.58,0,0,0,1.71,0A4.83,4.83,0,0,0,52,5.73a3.53,3.53,0,0,0,.8-2.44c0-1.65-1-2.75-3.35-3-.47,0-1.3,0-1.9,0s-1.66,0-2.68,0c-.45,0-.93,0-1.16,0a1.53,1.53,0,0,0-.08.13,5.64,5.64,0,0,1,.28,2.06c0,.57,0,2,0,3.52,0,1.82,0,3.73-.08,4.32a6.29,6.29,0,0,1-.18,1.22l0,.06c.84,0,1.59,0,2.38,0l0-.06a3.57,3.57,0,0,1-.23-1.33c0-.62-.1-2.06-.09-3.09Z"/>
    <g>
      <path class="cls-1" d="M14.75,7.76a32.51,32.51,0,0,1-.27,3.37c.26,0,.87,0,1.19,0,.14-.77.37-2.67.4-3.37Z"/>
      <path class="cls-1" d="M20.12,9.91C20,9.05,19.85,8,19.79,7.75h-1.1c0,.34.12,1.58.12,2.17C19.17,9.92,19.86,9.93,20.12,9.91Z"/>
      <path class="cls-1" d="M28.36,10.24c-.74.09-2.38.08-3.77.08,0-.54,0-1.24,0-2,1.05,0,2.32,0,2.9,0,0-.26,0-1,0-1.27-.75,0-1.89.07-2.92.08,0-.59,0-1.07,0-1.5l-.08-.09c-.55,0-1.23,0-1.74,0,0,.46.06,1,.06,1.61-.89,0-1.7,0-2.31,0a16.66,16.66,0,0,0-.86-2.7H18.45l-.06.06a9.09,9.09,0,0,1,.33,1.12c-.55,0-1.51.07-2.29.09a15.08,15.08,0,0,0,3.66-3.59h0L20,2c-.39,0-1.34,0-1.64,0A10.47,10.47,0,0,1,17,3.61c-.21-.2-.51-.55-.81-.81A22.33,22.33,0,0,0,18.94.1L18.87,0c-.53,0-1.4,0-2,0A11.77,11.77,0,0,1,14.58,2.5a.27.27,0,0,1-.13,0v.62a8.45,8.45,0,0,1,1.65,1.38,12.24,12.24,0,0,1-1.45,1.15h-.12a12,12,0,0,0,0,1.34c.64,0,1.39-.06,2.05-.12a47.63,47.63,0,0,1-.08,4.87,15.72,15.72,0,0,0,1.63,0c-.05-1-.1-3.89-.1-5L19,6.68c0,.17.13.51.16.68h1.26c0,.26,0,.71,0,1,.51,0,1.39,0,2.46,0,0,.67,0,1.35-.05,2-1.43,0-2.87,0-3.47,0,0,.27,0,.9,0,1.35,2-.12,6.47-.14,9,0A13,13,0,0,1,28.36,10.24Z"/>
      <path class="cls-1" d="M20,1.45c.77,0,2.4,0,3.7,0h1.7a12.73,12.73,0,0,1-1.68,1.65A11.6,11.6,0,0,1,22.09,2H20.8l-.06.12a16.31,16.31,0,0,0,2,1.75,11.46,11.46,0,0,1-2.26,1.29c.1.27.28.8.37,1.08a15.77,15.77,0,0,0,2.9-1.61,27,27,0,0,0,3.95,2A8.26,8.26,0,0,1,28.33,5a20.86,20.86,0,0,1-3.39-1.31,17,17,0,0,0,2.63-2.49l.09,0c0-.34,0-.74,0-1-1.2,0-2.6,0-3.89,0S20.88.22,20,.16C20,.41,20,1.13,20,1.45Z"/>
    </g>
  </g>
  <g>
    <g>
      <path class="cls-1" d="M2.67,18.3H2.23c-.58-.7-1.16-1.39-1.73-2.17h0V18.3H0v-3H.45C1,16,1.6,16.65,2.17,17.43h0V15.27h.49Z"/>
      <path class="cls-1" d="M3.42,15.29a.36.36,0,0,1,.35-.35.37.37,0,0,1,.37.35.36.36,0,0,1-.36.38A.37.37,0,0,1,3.42,15.29Zm.65.85V18.3H3.49V16.13Z"/>
      <path class="cls-1" d="M10.07,17.27a.65.65,0,0,0,.63.71,1.11,1.11,0,0,0,.58-.17l.17.3a1.68,1.68,0,0,1-.85.24,1.11,1.11,0,0,1-1.14-1.18,1.05,1.05,0,0,1,1.1-1.09c.68,0,1,.54.92,1.18Zm.86-.31c0-.33-.1-.55-.39-.55a.48.48,0,0,0-.47.55Z"/>
      <path class="cls-1" d="M12,15.29a.36.36,0,0,1,.35-.35.37.37,0,1,1-.35.35Zm.65.85V18.3h-.57V16.13Z"/>
      <path class="cls-1" d="M15,18.3v-3h1.1c.51,0,.87.23.87.64a.77.77,0,0,1-.61.74h0a.79.79,0,0,1,.8.74c0,.53-.43.89-1.15.89Zm.61-1.77h.19a.54.54,0,0,0,.59-.51c0-.27-.2-.38-.47-.38h-.32Zm0,1.4h.32a.52.52,0,0,0,.59-.52c0-.36-.26-.51-.59-.51h-.31Z"/>
      <path class="cls-1" d="M19.18,18a1,1,0,0,1-.69.32c-.46,0-.73-.28-.73-.82V16.13h.57v1.31c0,.31.14.5.41.5s.43-.17.43-.56V16.13h.58V18.3h-.57Z"/>
      <path class="cls-1" d="M21.67,16.54a.68.68,0,0,0-.37-.14.24.24,0,0,0-.26.22c0,.17.21.27.45.45a.81.81,0,0,1,.39.65.74.74,0,0,1-.81.63,1.22,1.22,0,0,1-.72-.25l.18-.3A.87.87,0,0,0,21,18a.28.28,0,0,0,.31-.27c0-.2-.23-.32-.43-.46s-.42-.34-.42-.6a.67.67,0,0,1,.75-.6.94.94,0,0,1,.63.2Z"/>
      <path class="cls-1" d="M22.43,15.29a.36.36,0,0,1,.35-.35.37.37,0,1,1-.35.35Zm.65.85V18.3H22.5V16.13Z"/>
      <path class="cls-1" d="M24.4,16.39a1,1,0,0,1,.74-.3c.51,0,.78.27.78.82v1.4h-.57V17c0-.3-.14-.5-.43-.5a.49.49,0,0,0-.5.54V18.3h-.57V16.13h.57Z"/>
      <path class="cls-1" d="M27.17,17.27a.65.65,0,0,0,.63.71,1.15,1.15,0,0,0,.58-.17l.16.3a1.67,1.67,0,0,1-.85.24,1.11,1.11,0,0,1-1.14-1.18,1.05,1.05,0,0,1,1.1-1.09c.68,0,1,.54.91,1.18ZM28,17c0-.33-.1-.55-.39-.55s-.47.27-.46.55Z"/>
      <path class="cls-1" d="M30.38,16.54A.69.69,0,0,0,30,16.4a.23.23,0,0,0-.26.22c0,.17.2.27.45.45a.82.82,0,0,1,.4.65.74.74,0,0,1-.81.63,1.23,1.23,0,0,1-.73-.25l.18-.3a.89.89,0,0,0,.48.21.28.28,0,0,0,.31-.27c0-.2-.22-.32-.43-.46s-.42-.34-.42-.6a.68.68,0,0,1,.75-.6,1,1,0,0,1,.63.2Z"/>
      <path class="cls-1" d="M32.38,16.54A.68.68,0,0,0,32,16.4a.23.23,0,0,0-.25.22c0,.17.21.27.45.45a.83.83,0,0,1,.4.65.75.75,0,0,1-.81.63,1.21,1.21,0,0,1-.72-.25l.19-.3a.84.84,0,0,0,.47.21.27.27,0,0,0,.31-.27c0-.2-.22-.32-.43-.46s-.42-.34-.42-.6a.68.68,0,0,1,.75-.6,1,1,0,0,1,.63.2Z"/>
      <path class="cls-1" d="M35.22,18.3H34.6v-3h1c.69,0,1.1.28,1.1.88a1.08,1.08,0,0,1-1.17,1h-.14v-.37h.13a.57.57,0,0,0,.57-.6c0-.31-.21-.49-.57-.49h-.27Z"/>
      <path class="cls-1" d="M38.67,18a1,1,0,0,1-.69.32c-.46,0-.73-.28-.73-.82V16.13h.58v1.31c0,.31.14.5.41.5s.43-.17.43-.56V16.13h.58V18.3h-.57Z"/>
      <path class="cls-1" d="M40,15.12h.58v1.32h0a.86.86,0,0,1,.69-.35,1,1,0,0,1,1,1.09,1.09,1.09,0,0,1-1,1.18.85.85,0,0,1-.65-.32v.26H40Zm.58,2.13c0,.39.16.76.55.76s.5-.45.5-.83-.16-.74-.49-.74S40.57,16.74,40.57,17.24Z"/>
      <path class="cls-1" d="M42.85,18.3V15.12h.58V18.3Z"/>
      <path class="cls-1" d="M44.11,15.29a.36.36,0,0,1,.35-.35.37.37,0,1,1-.35.35Zm.65.85V18.3h-.58V16.13Z"/>
      <path class="cls-1" d="M47.2,18.18a1.25,1.25,0,0,1-.61.17,1.12,1.12,0,0,1-1.2-1.12,1.21,1.21,0,0,1,1.78-1l-.14.33-.19-.06-.19,0a.65.65,0,0,0-.65.72.68.68,0,0,0,.66.77.87.87,0,0,0,.42-.11Z"/>
      <path class="cls-1" d="M48.81,18.09a1,1,0,0,1-.56.26.62.62,0,0,1-.62-.66c0-.41.3-.64.8-.79l.51-.15a.38.38,0,0,0-.39-.32.84.84,0,0,0-.58.21l-.19-.27a1.24,1.24,0,0,1,.83-.29c.4,0,.89.13.89.8v.89a1.31,1.31,0,0,0,.09.53H49a.62.62,0,0,1-.06-.32Zm-.19-.95a.51.51,0,0,0-.42.5.29.29,0,0,0,.25.32c.23,0,.53-.29.49-.92Z"/>
      <path class="cls-1" d="M50.91,16.13h.57v.3h-.57v1.06c0,.35.11.51.3.51a.58.58,0,0,0,.28-.07l.1.28a1.25,1.25,0,0,1-.57.14.61.61,0,0,1-.68-.69V16.43H50v-.3h.3v-.52l.58-.13Z"/>
      <path class="cls-1" d="M52,15.29a.35.35,0,0,1,.35-.35.37.37,0,0,1,.37.35.36.36,0,1,1-.72,0Zm.64.85V18.3h-.58V16.13Z"/>
      <path class="cls-1" d="M53.29,17.19a1.14,1.14,0,0,1,2.27,0,1.14,1.14,0,1,1-2.27,0Zm1.66,0c0-.36-.12-.79-.52-.79s-.53.43-.53.79.11.85.53.85S54.95,17.57,54.95,17.19Z"/>
      <path class="cls-1" d="M56.76,16.39a1,1,0,0,1,.74-.3c.5,0,.78.27.78.82v1.4H57.7V17c0-.3-.13-.5-.43-.5a.49.49,0,0,0-.5.54V18.3h-.57V16.13h.57Z"/>
      <path class="cls-1" d="M60.2,16.54a.67.67,0,0,0-.37-.14.23.23,0,0,0-.26.22c0,.17.21.27.45.45a.82.82,0,0,1,.4.65.75.75,0,0,1-.81.63,1.2,1.2,0,0,1-.72-.25l.18-.3a.88.88,0,0,0,.47.21.28.28,0,0,0,.31-.27c0-.2-.22-.32-.43-.46s-.41-.34-.41-.6a.67.67,0,0,1,.75-.6,1,1,0,0,1,.63.2Z"/>
      <path class="cls-1" d="M60.7,19l.29-.8c.13-.34.18-.45.37-.45s.35.17.15.5l-.54.87Z"/>
      <path class="cls-1" d="M63.51,18.3v-3h.61v3Z"/>
      <path class="cls-1" d="M65.51,16.39a1,1,0,0,1,.75-.3c.51,0,.78.27.78.82v1.4h-.58V17c0-.3-.14-.5-.44-.5a.49.49,0,0,0-.5.54V18.3h-.57V16.13h.57Z"/>
      <path class="cls-1" d="M69.46,18.18a1.23,1.23,0,0,1-.61.17,1.11,1.11,0,0,1-1.19-1.12,1.14,1.14,0,0,1,1.22-1.14,1.16,1.16,0,0,1,.56.14l-.14.33-.19-.06-.2,0a.65.65,0,0,0-.65.72.68.68,0,0,0,.66.77.85.85,0,0,0,.43-.11Z"/>
      <path class="cls-1" d="M70.39,17.68A.34.34,0,1,1,70,18,.35.35,0,0,1,70.39,17.68Z"/>
    </g>
    <polygon class="cls-1" points="5.95 17.05 6.71 16.13 6.12 16.13 5.46 16.99 5.4 16.99 5.4 15.12 4.82 15.12 4.82 18.3 5.4 18.3 5.4 17.15 5.4 17.15 6.13 18.31 6.85 18.31 5.95 17.05"/>
    <polygon class="cls-1" points="8.32 17.05 9.09 16.13 8.51 16.13 7.84 16.99 7.77 16.99 7.77 15.12 7.2 15.12 7.2 18.3 7.77 18.3 7.77 17.15 7.78 17.15 8.51 18.31 9.23 18.31 8.32 17.05"/>
  </g>
</svg>
