<svg id="レイヤー_1" data-name="レイヤー 1" xmlns="http://www.w3.org/2000/svg" width="25" height="24" viewBox="0 0 25 24">
  <defs>
    <style>
      .cls-1 {
        fill: #fff;
      }
    </style>
  </defs>
  <title>sns_fb</title>
  <path class="cls-1" d="M19.74,8.29c0,.16,0,.32,0,.48A10.62,10.62,0,0,1,3.4,17.72a7.87,7.87,0,0,0,.89.05,7.49,7.49,0,0,0,4.64-1.6,3.74,3.74,0,0,1-3.49-2.59,3.71,3.71,0,0,0,1.68-.06,3.74,3.74,0,0,1-3-3.66v0a3.71,3.71,0,0,0,1.69.47,3.74,3.74,0,0,1-1.16-5,10.6,10.6,0,0,0,7.69,3.9,3.74,3.74,0,0,1,6.36-3.41,7.48,7.48,0,0,0,2.37-.91,3.75,3.75,0,0,1-1.64,2.07,7.44,7.44,0,0,0,2.14-.59A7.57,7.57,0,0,1,19.74,8.29Z"/>
</svg>
