<svg id="レイヤー_1" data-name="レイヤー 1" xmlns="http://www.w3.org/2000/svg" width="422" height="307" viewBox="0 0 422 307">
  <defs>
    <style>
      .cls-1 {
        fill: #fff;
      }
    </style>
  </defs>
  <title>logo</title>
  <g>
    <g>
      <path class="cls-1" d="M147.85,178.39h34.37l6.48,18h22.19l-33.06-86.55H152.13l-33,86.55h22.19ZM165,129l11.87,32.4H153.12Z"/>
      <path class="cls-1" d="M290.37,196.42H309V109.87H280.37l-19,62.49-19-62.49H213.7v86.55h18.67V154.79c0-2.74-.55-21.63-.67-24.37l20.43,66h18.45l20.43-66c-.11,3.18-.65,21.63-.65,24.37Z"/>
      <polygon class="cls-1" points="385.19 127.89 385.19 109.87 315.56 109.87 315.56 196.42 386.4 196.42 386.4 178.39 335.33 178.39 335.33 161.16 383.22 161.16 383.22 143.92 335.33 143.92 335.33 127.89 385.19 127.89"/>
      <polygon class="cls-1" points="116.71 139.97 116.71 109.64 35.6 109.64 35.6 196.66 116.71 196.66 116.71 147.63 76.03 147.63 76.03 166.43 98.17 166.43 98.17 177.65 54.15 177.65 54.15 128.67 98.17 128.67 98.17 139.97 116.71 139.97"/>
    </g>
    <g>
      <polygon class="cls-1" points="130.53 271.08 172.71 271.08 172.71 306.68 192.47 306.68 192.47 220.12 172.71 220.12 172.71 253.06 130.53 253.06 130.53 220.12 110.86 220.12 110.86 306.68 130.53 306.68 130.53 271.08"/>
      <polygon class="cls-1" points="359.46 287.01 349.8 220.12 323.67 220.12 314 287.01 304.33 220.12 283.79 220.12 300.6 306.68 327.06 306.68 336.74 240.66 346.4 306.68 372.97 306.68 389.67 220.12 369.13 220.12 359.46 287.01"/>
      <path class="cls-1" d="M281.11,219.89H200v87h81.11Zm-18.54,68h-44v-49h44Z"/>
      <polygon class="cls-1" points="103.12 253.93 50.25 253.93 50.25 237.21 103.12 237.21 103.12 219.29 32.33 219.29 32.33 271.85 85.2 271.85 85.2 288.58 32.33 288.58 32.33 306.5 103.12 306.5 103.12 253.93"/>
    </g>
    <g>
      <polygon class="cls-1" points="29.4 86.76 49.28 86.76 49.28 18.23 78.39 18.23 78.39 0.22 0.3 0.22 0.3 18.23 29.4 18.23 29.4 86.76"/>
      <polygon class="cls-1" points="193.4 42.84 228.77 86.76 254.03 86.76 216.03 42.07 252.49 0.22 227.67 0.22 193.4 41.3 193.4 0.22 173.74 0.22 173.74 86.76 193.4 86.76 193.4 42.84"/>
      <polygon class="cls-1" points="286.28 86.76 306.05 86.76 306.05 52.94 338.67 0.22 315.71 0.22 296.17 35.14 276.73 0.22 253.66 0.22 286.28 52.94 286.28 86.76"/>
      <path class="cls-1" d="M166.84,0H85.73V87h81.11ZM148.29,68h-44V19h44Z"/>
      <path class="cls-1" d="M340.59,0V87H421.7V0Zm62.56,68h-44V19h44Z"/>
    </g>
  </g>
</svg>
