<svg xmlns="http://www.w3.org/2000/svg" width="260" height="157.5" viewBox="0 0 260 157.5"><defs><style>.cls-1{fill:#0b308e;}.cls-2,.cls-5{fill:none;stroke:#231815;stroke-linecap:round;stroke-linejoin:round;}.cls-2,.cls-4{opacity:0.1;}.cls-3{fill:#fff;}.cls-5{stroke-width:2px;}</style></defs><g id="レイヤー_2" data-name="レイヤー 2"><g id="レイヤー_2-2" data-name="レイヤー 2"><rect class="cls-1" width="260" height="157.5" rx="7.31"/><polygon class="cls-2" points="232 93.75 232 73.75 244 83.75 232 93.75"/><polygon class="cls-3" points="232 93.75 232 73.75 244 83.75 232 93.75"/><g class="cls-4"><path class="cls-5" d="M51.56,42.54l7.16-20.91h6.73L54.69,50H48.46L37.7,21.63h6.73Z"/><path class="cls-5" d="M77.73,26.7h-5.9V21.63h5.9Zm0,23.29h-5.9V29.3h5.9Z"/><path class="cls-5" d="M98.25,35c-.07-1.87-1.69-2.52-3.67-2.52-1,0-3.31.18-3.31,1.95,0,1.54,1.76,2,2.19,2.08,8,2,11.31,2.81,11.31,7.35,0,4.17-3.75,6.95-10,6.95a13.77,13.77,0,0,1-6.69-1.52c-2.84-1.69-3.2-3.49-3.53-5.68h6.05c.25,2.8,2.2,3.24,4.5,3.24,3,0,3.6-1.48,3.6-2.27,0-1.62-1.62-2-3-2.34-7.2-1.77-10.41-2.52-10.41-7.13,0-6.55,8.1-6.55,9.4-6.55,1.08,0,5.07,0,7.7,2.38C103.65,32,104,33.08,104.23,35Z"/><path class="cls-5" d="M117.51,26.7h-5.9V21.63h5.9Zm0,23.29h-5.9V29.3h5.9Z"/><path class="cls-5" d="M133.67,32.86V43.73c0,2.05,1.23,2.34,2.88,2.34h1.73V50.6c-1.22.11-2.27.19-3.38.19-4.36,0-7.13-2-7.13-6V32.86H124V29.3h3.81V23.5h5.9v5.8h4.61v3.56Z"/><path class="cls-5" d="M143.11,39.66c0-7.84,5.51-11.12,11.23-11.12s11.19,3.28,11.19,11.12S160,50.79,154.34,50.79,143.11,47.47,143.11,39.66ZM154.34,33c-3,0-5.18,2.41-5.18,6.8,0,3.31,1.58,6.55,5.18,6.55,3.35,0,5.15-2.88,5.15-6.66S157.69,33,154.34,33Z"/><path class="cls-5" d="M176.7,29.3l.1,3.78c.58-1.3,2-4.54,7.92-4.54h2.09v6h-2.34c-2.81,0-7.27,1.15-7.27,6.22V50h-5.8V29.3Z"/><path class="cls-5" d="M205.31,35c-.07-1.87-1.69-2.52-3.67-2.52-1,0-3.31.18-3.31,1.95,0,1.54,1.76,2,2.2,2.08,8,2,11.3,2.81,11.3,7.35,0,4.17-3.74,6.95-10,6.95a13.83,13.83,0,0,1-6.7-1.52c-2.84-1.69-3.2-3.49-3.52-5.68h6c.26,2.8,2.2,3.24,4.5,3.24,3,0,3.6-1.48,3.6-2.27,0-1.62-1.62-2-3-2.34-7.2-1.77-10.4-2.52-10.4-7.13,0-6.55,8.09-6.55,9.39-6.55,1.08,0,5.08,0,7.7,2.38C210.71,32,211,33.08,211.29,35Z"/><path class="cls-5" d="M89.52,72.3v3.56H85V93h-5.9V75.86H75.19V72.3h3.86V70.42c0-5.68,4.14-6.58,7.48-6.58h3v3.92H87.29c-1.62,0-2.34.65-2.34,2.63V72.3Z"/><path class="cls-5" d="M100.39,72.3l.11,3.78c.58-1.3,2-4.54,7.92-4.54h2.09v6h-2.34c-2.81,0-7.27,1.15-7.27,6.22V93H95.1V72.3Z"/><path class="cls-5" d="M115.23,82.66c0-7.84,5.5-11.12,11.23-11.12s11.19,3.28,11.19,11.12-5.51,11.13-11.19,11.13S115.23,90.47,115.23,82.66ZM126.46,76c-3,0-5.19,2.41-5.19,6.8,0,3.31,1.59,6.55,5.19,6.55,3.34,0,5.14-2.88,5.14-6.66S129.8,76,126.46,76Z"/><path class="cls-5" d="M148.92,72.3l.11,3a6.66,6.66,0,0,1,6.19-3.74,5.4,5.4,0,0,1,5.54,3.71A6.56,6.56,0,0,1,167,71.54c3.92,0,6.66,2.59,6.66,7.49V93h-5.8V80c0-.68-.14-3.49-2.95-3.49s-3.35,2.92-3.35,4.07V93h-5.79V79.85c0-2.48-1.22-3.38-2.92-3.38-3,0-3.38,3-3.38,4.25V93h-5.83V72.3Z"/><path class="cls-5" d="M22.71,125.66c0-7.84,5.5-11.12,11.23-11.12s11.19,3.28,11.19,11.12-5.51,11.13-11.19,11.13S22.71,133.47,22.71,125.66ZM33.94,119c-3,0-5.19,2.41-5.19,6.8,0,3.31,1.59,6.55,5.19,6.55,3.34,0,5.14-2.88,5.14-6.66S37.28,119,33.94,119Z"/><path class="cls-5" d="M64.64,136H58.13L49.71,115.3H56l5.51,13.53L67,115.3h6.26Z"/><path class="cls-5" d="M83.65,126.89c.15,3.45,1.91,5.58,5.44,5.58s4.39-1.84,4.79-2.67h5.9a7.82,7.82,0,0,1-1.91,3.49,11.54,11.54,0,0,1-8.78,3.5c-6.55,0-11.3-3.93-11.3-11.13,0-7.92,5.65-11.12,11-11.12a10.8,10.8,0,0,1,9,4.25c2.12,2.81,2.3,6.19,2.41,8.1Zm10.66-3.68c-1.37-4.35-4.65-4.35-5.4-4.35-3.78,0-4.75,3-5.18,4.35Z"/><path class="cls-5" d="M111.37,115.3l.11,3.78c.58-1.3,2-4.54,7.92-4.54h2.09v6h-2.34c-2.81,0-7.27,1.15-7.27,6.22V136h-5.8V115.3Z"/><path class="cls-5" d="M140,121c-.07-1.87-1.69-2.52-3.67-2.52-1,0-3.31.18-3.31,2,0,1.54,1.76,2,2.19,2.08,8,2,11.31,2.81,11.31,7.35,0,4.17-3.75,6.95-10,6.95a13.83,13.83,0,0,1-6.7-1.52c-2.84-1.69-3.2-3.49-3.53-5.68h6.05c.25,2.8,2.2,3.24,4.5,3.24,3,0,3.6-1.48,3.6-2.27,0-1.62-1.62-2-3-2.34-7.2-1.77-10.41-2.52-10.41-7.13,0-6.55,8.1-6.55,9.4-6.55,1.08,0,5.07,0,7.7,2.38,1.26,1.08,1.59,2.16,1.84,4.06Z"/><path class="cls-5" d="M157.63,126.89c.15,3.45,1.91,5.58,5.44,5.58s4.39-1.84,4.79-2.67h5.9a7.82,7.82,0,0,1-1.91,3.49,11.54,11.54,0,0,1-8.78,3.5c-6.55,0-11.3-3.93-11.3-11.13,0-7.92,5.65-11.12,11-11.12a10.8,10.8,0,0,1,9,4.25c2.12,2.81,2.3,6.19,2.41,8.1Zm10.66-3.68c-1.37-4.35-4.64-4.35-5.4-4.35-3.78,0-4.75,3-5.18,4.35Z"/><path class="cls-5" d="M195.83,136a4.94,4.94,0,0,1-.61-2.44c-.9,1-2.85,3.24-7.89,3.24-2.48,0-8-.4-8-6.56,0-5.14,4.42-5.76,9.68-6.48,5-.72,6.23-.86,6.23-2.59,0-2.34-2.31-2.44-3.78-2.44-5.37,0-5.4,1.76-5.4,2.77h-5.69a6.41,6.41,0,0,1,2.66-5c2.16-1.51,6.3-1.94,8.32-1.94,3.1,0,9.68.83,9.68,6.69v11.92a3.4,3.4,0,0,0,1,2.38V136Zm-.61-9.9c-1.05.54-1.59.65-4.11,1-3.78.57-5.72.86-5.72,2.91,0,2.34,3.89,2.34,4.1,2.34a5.51,5.51,0,0,0,5.73-4.24Z"/><path class="cls-5" d="M220.63,121c-.07-1.87-1.69-2.52-3.67-2.52-1,0-3.31.18-3.31,2,0,1.54,1.76,2,2.2,2.08,8,2,11.3,2.81,11.3,7.35,0,4.17-3.74,6.95-10,6.95a13.83,13.83,0,0,1-6.7-1.52c-2.84-1.69-3.2-3.49-3.53-5.68H213c.25,2.8,2.2,3.24,4.5,3.24,3,0,3.6-1.48,3.6-2.27,0-1.62-1.62-2-3-2.34-7.2-1.77-10.41-2.52-10.41-7.13,0-6.55,8.1-6.55,9.4-6.55,1.08,0,5.08,0,7.7,2.38,1.26,1.08,1.59,2.16,1.84,4.06Z"/></g><path class="cls-3" d="M51.56,42.54l7.16-20.91h6.73L54.69,50H48.46L37.7,21.63h6.73Z"/><path class="cls-3" d="M77.73,26.7h-5.9V21.63h5.9Zm0,23.29h-5.9V29.3h5.9Z"/><path class="cls-3" d="M98.25,35c-.07-1.87-1.69-2.52-3.67-2.52-1,0-3.31.18-3.31,1.95,0,1.54,1.76,2,2.19,2.08,8,2,11.31,2.81,11.31,7.35,0,4.17-3.75,6.95-10,6.95a13.77,13.77,0,0,1-6.69-1.52c-2.84-1.69-3.2-3.49-3.53-5.68h6.05c.25,2.8,2.2,3.24,4.5,3.24,3,0,3.6-1.48,3.6-2.27,0-1.62-1.62-2-3-2.34-7.2-1.77-10.41-2.52-10.41-7.13,0-6.55,8.1-6.55,9.4-6.55,1.08,0,5.07,0,7.7,2.38C103.65,32,104,33.08,104.23,35Z"/><path class="cls-3" d="M117.51,26.7h-5.9V21.63h5.9Zm0,23.29h-5.9V29.3h5.9Z"/><path class="cls-3" d="M133.67,32.86V43.73c0,2.05,1.23,2.34,2.88,2.34h1.73V50.6c-1.22.11-2.27.19-3.38.19-4.36,0-7.13-2-7.13-6V32.86H124V29.3h3.81V23.5h5.9v5.8h4.61v3.56Z"/><path class="cls-3" d="M143.11,39.66c0-7.84,5.51-11.12,11.23-11.12s11.19,3.28,11.19,11.12S160,50.79,154.34,50.79,143.11,47.47,143.11,39.66ZM154.34,33c-3,0-5.18,2.41-5.18,6.8,0,3.31,1.58,6.55,5.18,6.55,3.35,0,5.15-2.88,5.15-6.66S157.69,33,154.34,33Z"/><path class="cls-3" d="M176.7,29.3l.1,3.78c.58-1.3,2-4.54,7.92-4.54h2.09v6h-2.34c-2.81,0-7.27,1.15-7.27,6.22V50h-5.8V29.3Z"/><path class="cls-3" d="M205.31,35c-.07-1.87-1.69-2.52-3.67-2.52-1,0-3.31.18-3.31,1.95,0,1.54,1.76,2,2.2,2.08,8,2,11.3,2.81,11.3,7.35,0,4.17-3.74,6.95-10,6.95a13.83,13.83,0,0,1-6.7-1.52c-2.84-1.69-3.2-3.49-3.52-5.68h6c.26,2.8,2.2,3.24,4.5,3.24,3,0,3.6-1.48,3.6-2.27,0-1.62-1.62-2-3-2.34-7.2-1.77-10.4-2.52-10.4-7.13,0-6.55,8.09-6.55,9.39-6.55,1.08,0,5.08,0,7.7,2.38C210.71,32,211,33.08,211.29,35Z"/><path class="cls-3" d="M89.52,72.3v3.56H85V93h-5.9V75.86H75.19V72.3h3.86V70.42c0-5.68,4.14-6.58,7.48-6.58h3v3.92H87.29c-1.62,0-2.34.65-2.34,2.63V72.3Z"/><path class="cls-3" d="M100.39,72.3l.11,3.78c.58-1.3,2-4.54,7.92-4.54h2.09v6h-2.34c-2.81,0-7.27,1.15-7.27,6.22V93H95.1V72.3Z"/><path class="cls-3" d="M115.23,82.66c0-7.84,5.5-11.12,11.23-11.12s11.19,3.28,11.19,11.12-5.51,11.13-11.19,11.13S115.23,90.47,115.23,82.66ZM126.46,76c-3,0-5.19,2.41-5.19,6.8,0,3.31,1.59,6.55,5.19,6.55,3.34,0,5.14-2.88,5.14-6.66S129.8,76,126.46,76Z"/><path class="cls-3" d="M148.92,72.3l.11,3a6.66,6.66,0,0,1,6.19-3.74,5.4,5.4,0,0,1,5.54,3.71A6.56,6.56,0,0,1,167,71.54c3.92,0,6.66,2.59,6.66,7.49V93h-5.8V80c0-.68-.14-3.49-2.95-3.49s-3.35,2.92-3.35,4.07V93h-5.79V79.85c0-2.48-1.22-3.38-2.92-3.38-3,0-3.38,3-3.38,4.25V93h-5.83V72.3Z"/><path class="cls-3" d="M22.71,125.66c0-7.84,5.5-11.12,11.23-11.12s11.19,3.28,11.19,11.12-5.51,11.13-11.19,11.13S22.71,133.47,22.71,125.66ZM33.94,119c-3,0-5.19,2.41-5.19,6.8,0,3.31,1.59,6.55,5.19,6.55,3.34,0,5.14-2.88,5.14-6.66S37.28,119,33.94,119Z"/><path class="cls-3" d="M64.64,136H58.13L49.71,115.3H56l5.51,13.53L67,115.3h6.26Z"/><path class="cls-3" d="M83.65,126.89c.15,3.45,1.91,5.58,5.44,5.58s4.39-1.84,4.79-2.67h5.9a7.82,7.82,0,0,1-1.91,3.49,11.54,11.54,0,0,1-8.78,3.5c-6.55,0-11.3-3.93-11.3-11.13,0-7.92,5.65-11.12,11-11.12a10.8,10.8,0,0,1,9,4.25c2.12,2.81,2.3,6.19,2.41,8.1Zm10.66-3.68c-1.37-4.35-4.65-4.35-5.4-4.35-3.78,0-4.75,3-5.18,4.35Z"/><path class="cls-3" d="M111.37,115.3l.11,3.78c.58-1.3,2-4.54,7.92-4.54h2.09v6h-2.34c-2.81,0-7.27,1.15-7.27,6.22V136h-5.8V115.3Z"/><path class="cls-3" d="M140,121c-.07-1.87-1.69-2.52-3.67-2.52-1,0-3.31.18-3.31,2,0,1.54,1.76,2,2.19,2.08,8,2,11.31,2.81,11.31,7.35,0,4.17-3.75,6.95-10,6.95a13.83,13.83,0,0,1-6.7-1.52c-2.84-1.69-3.2-3.49-3.53-5.68h6.05c.25,2.8,2.2,3.24,4.5,3.24,3,0,3.6-1.48,3.6-2.27,0-1.62-1.62-2-3-2.34-7.2-1.77-10.41-2.52-10.41-7.13,0-6.55,8.1-6.55,9.4-6.55,1.08,0,5.07,0,7.7,2.38,1.26,1.08,1.59,2.16,1.84,4.06Z"/><path class="cls-3" d="M157.63,126.89c.15,3.45,1.91,5.58,5.44,5.58s4.39-1.84,4.79-2.67h5.9a7.82,7.82,0,0,1-1.91,3.49,11.54,11.54,0,0,1-8.78,3.5c-6.55,0-11.3-3.93-11.3-11.13,0-7.92,5.65-11.12,11-11.12a10.8,10.8,0,0,1,9,4.25c2.12,2.81,2.3,6.19,2.41,8.1Zm10.66-3.68c-1.37-4.35-4.64-4.35-5.4-4.35-3.78,0-4.75,3-5.18,4.35Z"/><path class="cls-3" d="M195.83,136a4.94,4.94,0,0,1-.61-2.44c-.9,1-2.85,3.24-7.89,3.24-2.48,0-8-.4-8-6.56,0-5.14,4.42-5.76,9.68-6.48,5-.72,6.23-.86,6.23-2.59,0-2.34-2.31-2.44-3.78-2.44-5.37,0-5.4,1.76-5.4,2.77h-5.69a6.41,6.41,0,0,1,2.66-5c2.16-1.51,6.3-1.94,8.32-1.94,3.1,0,9.68.83,9.68,6.69v11.92a3.4,3.4,0,0,0,1,2.38V136Zm-.61-9.9c-1.05.54-1.59.65-4.11,1-3.78.57-5.72.86-5.72,2.91,0,2.34,3.89,2.34,4.1,2.34a5.51,5.51,0,0,0,5.73-4.24Z"/><path class="cls-3" d="M220.63,121c-.07-1.87-1.69-2.52-3.67-2.52-1,0-3.31.18-3.31,2,0,1.54,1.76,2,2.2,2.08,8,2,11.3,2.81,11.3,7.35,0,4.17-3.74,6.95-10,6.95a13.83,13.83,0,0,1-6.7-1.52c-2.84-1.69-3.2-3.49-3.53-5.68H213c.25,2.8,2.2,3.24,4.5,3.24,3,0,3.6-1.48,3.6-2.27,0-1.62-1.62-2-3-2.34-7.2-1.77-10.41-2.52-10.41-7.13,0-6.55,8.1-6.55,9.4-6.55,1.08,0,5.08,0,7.7,2.38,1.26,1.08,1.59,2.16,1.84,4.06Z"/></g></g></svg>