<?xml version="1.0" encoding="utf-8"?>
<!-- Generator: Adobe Illustrator 23.0.2, SVG Export Plug-In . SVG Version: 6.00 Build 0)  -->
<svg version="1.1" id="レイヤー_1" xmlns="http://www.w3.org/2000/svg" xmlns:xlink="http://www.w3.org/1999/xlink" x="0px"
	 y="0px" width="326px" height="134px" viewBox="0 0 326 134" style="enable-background:new 0 0 326 134;" xml:space="preserve">
<style type="text/css">
	.st0{fill:#FFFFFF;}
</style>
<g>
	<g>
		<g>
			<path class="st0" d="M36.418,56.719c-1.477,0-2.733-1.074-2.963-2.533l-0.217-1.377c-1.84,1.868-4.587,2.909-8.014,2.909
				c-8.953,0-13.03-6.618-13.03-12.768c0-8.742,6.876-13.157,10.836-15.146v-0.151h-6.806c-1.657,0-3-1.343-3-3v-6.957
				c0-1.657,1.343-3,3-3h6.806V12.98c0-1.657,1.343-3,3-3h6.806c1.657,0,3,1.343,3,3v1.717h2.52c0.225-0.337,0.519-0.63,0.868-0.855
				l5.462-3.525c0.498-0.321,1.063-0.479,1.626-0.479c0.69,0,1.378,0.238,1.933,0.706c5.021,4.23,7.794,9.563,9.442,13.208
				c0.611,1.352,0.143,2.947-1.102,3.754l-4.295,2.784c2.341,2.76,3.649,6.414,3.649,10.327c0,2.419-0.659,10.603-9.137,14.325
				C44.103,56.151,40.796,56.719,36.418,56.719z M35.836,44.18c6.537-0.181,6.538-2.211,6.538-3.565c0-0.826,0-3.337-4.567-3.337
				c-0.627,0-1.32,0.046-1.97,0.108V44.18z"/>
			<path class="st0" d="M46.314,12.837c4.299,3.621,6.896,8.29,8.642,12.15L49,28.846c-1.97-4.145-4.209-8.1-6.537-10.816v6.623
				h-9.627v3.526c0.985-0.19,2.373-0.429,4.701-0.429c4.657,0,8.687,1.049,11.239,3.241c2.821,2.43,4.164,6.051,4.164,9.624
				c0,2.859-0.94,8.767-7.343,11.578c-2.552,1.144-5.687,1.526-9.179,1.526l-1.03-6.529c7.254-0.095,9.985-2.334,9.985-6.575
				c0-5.05-4.254-6.337-7.568-6.337c-1.836,0-4.119,0.334-4.97,0.477v11.054c0,5.909-4.523,6.909-7.613,6.909
				c-7.522,0-10.03-5.575-10.03-9.767c0-8.338,7.792-11.865,10.836-13.246v-5.05h-9.806v-6.956h9.806V12.98h6.806v4.717h9.314
				c-0.448-0.524-0.761-0.81-1.299-1.334L46.314,12.837 M24.731,45.475c1.388,0,1.388-0.81,1.388-1.668v-7.052
				c-0.94,0.524-4.299,2.288-4.299,5.717C21.821,44.665,23.567,45.475,24.731,45.475 M46.313,6.837
				c-1.127,0-2.258,0.317-3.253,0.959l-4.637,2.993c-0.875-2.23-3.047-3.808-5.587-3.808H26.03c-2.873,0-5.275,2.02-5.863,4.717
				h-3.944c-3.314,0-6,2.686-6,6v6.956c0,2.652,1.721,4.902,4.107,5.695c-3.367,3.512-5.137,7.839-5.137,12.602
				c0,7.835,5.506,15.767,16.03,15.767c2.441,0,4.628-0.442,6.497-1.266c1.107,1.392,2.813,2.267,4.698,2.267
				c4.817,0,8.513-0.652,11.634-2.051c6.802-2.986,10.889-9.368,10.889-17.053c0-3.422-0.855-6.685-2.43-9.487l1.708-1.107
				c2.49-1.614,3.426-4.805,2.203-7.508c-1.769-3.91-4.755-9.642-10.243-14.265C49.069,7.313,47.694,6.837,46.313,6.837
				L46.313,6.837z M38.836,40.83v-0.466c0.225,0.04,0.405,0.09,0.535,0.136c0.001,0.034,0.002,0.073,0.002,0.116
				c0,0.018,0,0.036,0,0.052C39.243,40.716,39.068,40.772,38.836,40.83L38.836,40.83z"/>
		</g>
		<g>
			<path class="st0" d="M83.888,56.719c-5.663,0-9.832-0.646-13.114-3.859c-3.27-3.211-3.984-7.042-4.081-11.866h-4.343
				c-1.657,0-3-1.343-3-3v-6.956c0-1.657,1.343-3,3-3h4.499l0.001-0.052h-4.187c-1.657,0-3-1.343-3-3V18.03c0-1.657,1.343-3,3-3
				h4.438l0.04-2.339c0.028-1.638,1.364-2.949,2.999-2.949c0.006,0,7.631,0.047,7.631,0.047c0.81,0.005,1.584,0.337,2.145,0.922
				c0.562,0.584,0.862,1.371,0.834,2.181l-0.073,2.139h8.582c1.657,0,3,1.343,3,3v6.957c0,0.752-0.276,1.439-0.733,1.965
				l4.814-1.413c0.281-0.083,0.565-0.122,0.845-0.122c1.116,0,2.171,0.625,2.688,1.668c0.956,1.926,3.402,6.856,3.402,13.483
				C103.277,56.719,90.182,56.719,83.888,56.719z M80.145,42.966c0.289,0.149,1.207,0.367,4.102,0.367
				c4.996,0,5.596-0.514,5.639-3.318c-1.963,0.591-5.165,0.903-9.988,0.967C79.926,41.868,79.994,42.643,80.145,42.966z
				 M80.218,28.026c0.568-0.007,1.174-0.02,1.792-0.04h-1.791L80.218,28.026z"/>
			<path class="st0" d="M70.142,12.741l7.612,0.047l-0.179,5.241h11.686v6.956H77.306l-0.179,6.052h0.761
				c4.119,0,8.463-0.096,10.791-0.81l0.358,6.909c-1.881,0.572-5.597,0.857-11.105,0.857h-1.03
				c-0.134,7.242,0.135,8.338,7.343,8.338c5.015,0,8.642-0.524,8.642-6.718c0-3.335-1.075-6.576-2.194-9.291l6.493-1.906
				c0.851,1.715,3.09,6.146,3.09,12.15c0,12.578-9,13.151-16.389,13.151c-5.866,0-8.776-0.81-11.015-3.002
				c-2.911-2.859-3.269-6.385-3.179-12.722h-7.343v-6.956h7.433l0.134-6.052h-7.253V18.03h7.388L70.142,12.741 M70.141,6.741
				c-3.066,0-5.605,2.303-5.957,5.289h-1.519c-3.314,0-6,2.686-6,6v6.956c0,0.994,0.242,1.932,0.67,2.758
				c-0.622,0.945-0.984,2.077-0.984,3.293v6.956c0,3.314,2.686,6,6,6h1.499c0.383,4.162,1.554,7.795,4.819,11.003
				c4.003,3.92,8.978,4.722,15.219,4.722c4.376,0,9.413-0.199,13.818-2.58c3.91-2.113,8.571-6.704,8.571-16.571
				c0-7.331-2.674-12.719-3.68-14.748l-0.034-0.069c-1.034-2.084-3.144-3.335-5.375-3.335c-0.561,0-1.129,0.079-1.691,0.244
				l-0.236,0.069V18.03c0-3.314-2.686-6-6-6h-5.556c-0.162-1.269-0.727-2.463-1.624-3.398c-1.122-1.169-2.67-1.834-4.29-1.844
				l-7.612-0.047C70.167,6.741,70.154,6.741,70.141,6.741L70.141,6.741z"/>
		</g>
		<g>
			<path class="st0" d="M118.909,56.671c-2.189,0-3.476-0.041-4.839-0.083l-0.447-0.014c-1.379-0.042-2.551-1.02-2.841-2.368
				l-1.567-7.29c-0.204-0.947,0.063-1.934,0.714-2.65c0.572-0.628,1.379-0.98,2.218-0.98c0.118,0,0.235,0.007,0.353,0.021
				c0.796,0.094,2.015,0.238,4.005,0.328l-7.306-2.141c-0.824-0.241-1.505-0.824-1.871-1.601s-0.381-1.673-0.042-2.462
				c1.45-3.376,2.43-6.974,3.059-9.825h-4.601c-1.657,0-3-1.343-3-3v-7.1c0-1.657,1.343-3,3-3h6.224
				c0.017-0.499,0.031-1.082,0.045-1.822c0.032-1.636,1.367-2.942,2.999-2.942c0.013,0,7.785,0.096,7.785,0.096
				c0.836,0.011,1.63,0.37,2.19,0.99c0.56,0.621,0.835,1.447,0.76,2.28c-0.045,0.501-0.089,0.968-0.13,1.398H143
				c1.657,0,3,1.343,3,3v7.1c0,1.657-1.343,3-3,3h-3.663c3.995,2.888,5.856,7.581,5.856,12.247c0,6.051-2.918,11.326-7.617,13.766
				C133.238,55.925,128.696,56.671,118.909,56.671z M118.336,43.693c0.637,0.013,1.334,0.021,2.096,0.021
				c9.425,0,11.149-1.236,11.149-3.67c0-0.874,0-2.337-3.089-2.337c-2.28,0-5.442,0.533-7.779,3.021
				c-0.103,0.236-0.18,0.471-0.313,0.925C120.098,42.679,119.295,43.422,118.336,43.693z"/>
			<path class="st0" d="M115.014,12.741l7.747,0.096c-0.224,2.477-0.403,4.097-0.448,4.669H143v7.099h-21.583
				c-0.447,2.812-0.671,3.765-1.254,5.576c2.149-1.049,5.015-2.43,9.404-2.43c8.731,0,12.627,5.718,12.627,12.102
				c0,4.956-2.328,9.197-6,11.103c-3.582,1.905-7.478,2.715-17.284,2.715c-2.373,0-3.627-0.047-5.194-0.096l-1.567-7.29
				c1.209,0.143,3.582,0.429,8.284,0.429c7.343,0,14.149-0.429,14.149-6.671c0-4.765-4.164-5.337-6.09-5.337
				c-2.956,0-7.209,0.763-10.299,4.337c-0.313,0.619-0.447,1-0.671,1.762l-7.477-2.191c2.149-5.004,3.358-10.53,3.94-14.009h-8.239
				v-7.099h9.044C114.925,15.934,114.969,15.076,115.014,12.741 M115.013,6.741c-2.881,0-5.3,2.036-5.871,4.764h-3.396
				c-3.314,0-6,2.686-6,6v7.099c0,3.314,2.686,6,6,6h0.757c-0.521,1.834-1.17,3.777-1.971,5.641
				c-0.678,1.578-0.647,3.37,0.085,4.924c0.48,1.02,1.232,1.873,2.159,2.475c-0.591,1.195-0.779,2.568-0.492,3.901l1.567,7.29
				c0.58,2.697,2.924,4.651,5.681,4.736l0.447,0.014c1.386,0.043,2.696,0.085,4.932,0.085c10.206,0,15.279-0.86,20.076-3.405
				c5.68-2.963,9.208-9.249,9.208-16.414c0-3.728-0.937-7.063-2.625-9.823C147.597,29.067,149,27,149,24.605v-7.099
				c0-3.314-2.686-6-6-6h-14.389c-0.225-0.991-0.701-1.919-1.396-2.688c-1.12-1.242-2.708-1.959-4.381-1.98l-7.747-0.096
				C115.063,6.742,115.038,6.741,115.013,6.741L115.013,6.741z"/>
		</g>
		<g>
			<path class="st0" d="M160.961,57.814c-0.617,0-1.223-0.19-1.733-0.552c-0.65-0.46-1.09-1.159-1.224-1.944
				c-1.165-6.837-2.115-11.163-2.997-14.817c-1.114,0.483-2.162,0.94-2.523,1.111c-0.406,0.192-0.845,0.289-1.284,0.289
				c-0.421,0-0.843-0.089-1.236-0.267c-0.802-0.363-1.405-1.06-1.647-1.907l-1.926-6.719c-0.441-1.541,0.405-3.156,1.923-3.669
				c0.49-0.166,1.791-0.631,3.065-1.087c0.075-0.027,0.149-0.053,0.224-0.08c-0.5-1.57-0.95-2.873-1.551-4.456
				c-0.302-0.796-0.252-1.684,0.139-2.441c0.391-0.757,1.085-1.312,1.91-1.527l6.403-1.667c0.252-0.066,0.507-0.097,0.757-0.097
				c0.905,0,1.761,0.412,2.326,1.106c0.054-0.026,0.11-0.051,0.166-0.074l5.373-2.192c0.368-0.15,0.753-0.223,1.132-0.223
				c1.004,0,1.973,0.505,2.537,1.397c1.022,1.618,1.739,2.919,2.24,3.901c0.179-0.005,0.363-0.008,0.553-0.008
				c8.413,0,12.179,6.413,12.179,12.768c0,6.333-3.646,13.101-13.88,13.101c-0.814,0-1.473-0.042-2.144-0.115
				c0.376,1.732,0.741,3.518,1.104,5.414c0.151,0.791-0.021,1.61-0.48,2.272c-0.458,0.663-1.164,1.113-1.959,1.249l-6.94,1.19
				C161.3,57.799,161.13,57.814,160.961,57.814z M168.074,35.145c0.095,0.007,0.189,0.019,0.283,0.034l0.116,0.02
				c1.856,0.315,2.187,0.367,2.965,0.367c2.284,0,2.284-0.687,2.284-1.097c0-0.321-0.059-0.479-0.08-0.509
				c-0.021-0.019-0.202-0.113-0.548-0.113C172.053,33.847,170.089,34.439,168.074,35.145z"/>
			<path class="st0" d="M168.26,19.602c1.836,2.907,2.598,4.67,2.956,5.433c0.537-0.048,1.388-0.143,2.373-0.143
				c7.164,0,9.179,5.622,9.179,9.767c0,4.05-1.925,10.101-10.88,10.101c-1.388,0-2.239-0.143-3.895-0.381l-0.135-6.242
				c1.97,0.334,2.508,0.429,3.582,0.429c1.612,0,5.284-0.333,5.284-4.097c0-2.669-1.881-3.622-3.627-3.622
				c-2.283,0-6.403,1.573-9.895,2.907c1.791,6.623,3.268,12.389,4.701,19.87l-6.94,1.191c-1.567-9.196-2.776-14.008-3.895-18.487
				c-0.941,0.429-5.06,2.192-5.866,2.573l-1.926-6.719c0.986-0.333,5.194-1.858,6.045-2.144c-0.94-3.098-1.522-4.908-2.463-7.386
				l6.403-1.668c0.716,2.096,1.03,3.049,2.239,6.813c0.582-0.238,1.746-0.619,3.851-1.286c-0.806-1.763-1.164-2.478-2.463-4.717
				L168.26,19.602 M168.257,13.601c-0.758,0-1.526,0.144-2.264,0.445l-3.962,1.616c-0.844-0.44-1.792-0.68-2.769-0.68
				c-0.501,0-1.009,0.063-1.515,0.195l-6.403,1.668c-1.649,0.429-3.037,1.54-3.819,3.054s-0.883,3.289-0.278,4.882
				c0.206,0.544,0.395,1.054,0.573,1.555c-0.193,0.068-0.353,0.123-0.467,0.162c-3.036,1.026-4.729,4.257-3.846,7.337l1.926,6.719
				c0.485,1.693,1.69,3.088,3.295,3.814c0.786,0.356,1.63,0.533,2.473,0.533c0.57,0,1.139-0.081,1.691-0.243
				c0.648,2.921,1.35,6.434,2.156,11.165c0.267,1.57,1.148,2.969,2.448,3.889c1.02,0.722,2.233,1.103,3.467,1.103
				c0.338,0,0.677-0.029,1.015-0.086l6.94-1.191c1.588-0.272,3-1.172,3.918-2.497c0.918-1.325,1.264-2.963,0.961-4.545
				c-0.116-0.605-0.232-1.199-0.348-1.784c10.568-0.689,15.321-8.403,15.321-16.051c0-7.281-4.368-15.095-13.92-15.726
				c-0.417-0.743-0.917-1.588-1.515-2.535C172.205,14.613,170.266,13.601,168.257,13.601L168.257,13.601z M172.14,32.502
				L172.14,32.502L172.14,32.502L172.14,32.502z"/>
		</g>
		<g>
			<path class="st0" d="M219.508,56.432c-5.79-0.052-10.271-0.192-15.222-1.534c-11.737-3.137-13.006-12.333-13.006-16.141
				c0-4.332,1.511-8.527,4.357-12.291c-3.631,0.354-7.213,0.729-8.911,0.967c-0.139,0.019-0.278,0.029-0.416,0.029
				c-0.694,0-1.371-0.241-1.913-0.689c-0.648-0.537-1.042-1.322-1.083-2.164l-0.403-8.195c-0.04-0.812,0.251-1.605,0.807-2.198
				s1.328-0.936,2.141-0.949c2.786-0.045,4-0.129,9.276-0.516c9.786-0.684,18.991-0.98,28.735-1.293
				c0.032-0.001,0.064-0.001,0.097-0.001c0.763,0,1.498,0.291,2.055,0.814c0.581,0.546,0.921,1.3,0.944,2.097l0.225,7.624
				c0.024,0.846-0.309,1.663-0.919,2.25c-0.2,0.193-0.425,0.355-0.665,0.484c1.288,2.012,2.387,4.143,3.532,6.547
				c0.674,1.416,0.145,3.112-1.216,3.892l-3.984,2.287c-0.459,0.264-0.975,0.398-1.493,0.398c-0.073,0-0.146-0.002-0.22-0.008
				c-0.158,0.157-0.337,0.298-0.534,0.419l-3.939,2.43c-0.479,0.295-1.025,0.447-1.575,0.447c-0.314,0-0.63-0.049-0.935-0.149
				c-0.84-0.275-1.515-0.906-1.847-1.725c-1.456-3.598-2.555-5.669-4.524-8.523c-0.099-0.144-0.184-0.294-0.256-0.45
				c-2.312,2.402-3.946,5.297-3.946,7.99c0,1.331,0,4.099,11.82,4.099c1.61,0,2.554-0.059,3.312-0.105l0.557-0.033
				c0.055-0.003,0.108-0.004,0.162-0.004c0.827,0,1.621,0.342,2.189,0.95c0.606,0.647,0.895,1.528,0.789,2.408l-0.985,8.195
				c-0.182,1.509-1.462,2.642-2.979,2.642C219.526,56.432,219.517,56.432,219.508,56.432z"/>
			<path class="st0" d="M223.967,14.456l0.224,7.624c-1.388-0.095-2.642-0.143-3.627-0.143c-1.477,0-3.761,0.096-5.373,0.62
				c-6.358,2.001-13.522,9.005-13.522,15.723c0,4.479,3.358,7.099,14.821,7.099c2.104,0,3.134-0.095,4.03-0.143l-0.985,8.195
				c-5.328-0.047-9.717-0.143-14.463-1.429c-9.448-2.525-10.791-9.577-10.791-13.246c0-6.48,3.94-12.008,9.582-16.057
				c-3.985,0.333-14.149,1.286-17.552,1.762l-0.403-8.195c2.91-0.047,4.254-0.143,9.448-0.523
				C204.893,15.076,213.579,14.79,223.967,14.456 M221.236,23.748c2.105,2.669,3.582,5.432,5.194,8.815l-3.985,2.287
				c-1.657-3.764-2.642-5.717-5.015-9.005L221.236,23.748 M215.102,26.797c2.015,2.621,3.403,5.289,5.015,8.911l-3.94,2.43
				c-1.523-3.764-2.732-6.052-4.836-9.101L215.102,26.797 M220.52,45.237h0.005 M223.967,8.456c-0.064,0-0.129,0.001-0.193,0.003
				c-9.779,0.315-19.017,0.612-28.838,1.299c-5.234,0.383-6.432,0.466-9.126,0.51c-1.625,0.026-3.17,0.711-4.281,1.897
				c-1.111,1.186-1.694,2.773-1.614,4.396l0.403,8.195c0.083,1.683,0.869,3.254,2.167,4.328c1.082,0.896,2.438,1.378,3.825,1.378
				c0.277,0,0.554-0.019,0.831-0.058c0.698-0.098,1.724-0.219,2.944-0.353c-1.189,2.785-1.805,5.712-1.805,8.706
				c0,9.373,5.698,16.491,15.242,19.042c5.277,1.43,9.944,1.579,15.959,1.632c0.018,0,0.036,0,0.054,0
				c3.034,0,5.594-2.266,5.956-5.284l0.962-7.999c0.045-0.297,0.069-0.602,0.069-0.912c0-1.89-0.873-3.576-2.238-4.676
				c0.396-0.127,0.781-0.297,1.148-0.507l3.985-2.287c2.72-1.561,3.779-4.953,2.431-7.785c-0.824-1.729-1.626-3.326-2.491-4.847
				c0.572-0.967,0.867-2.086,0.833-3.231l-0.224-7.624c-0.047-1.593-0.726-3.103-1.887-4.195
				C226.963,9.037,225.492,8.456,223.967,8.456L223.967,8.456z M207.669,38.253c0.006-0.804,0.272-1.7,0.735-2.62
				c0.561,1.011,1.067,2.058,1.602,3.296C208.682,38.693,207.993,38.418,207.669,38.253L207.669,38.253z"/>
		</g>
		<g>
			<path class="st0" d="M18.194,122.497c-1.657,0-3-1.343-3-3V95.575H13c-1.657,0-3-1.343-3-3v-6.861c0-1.657,1.343-3,3-3h2.194
				V76.09c0-1.657,1.343-3,3-3h6.716c1.657,0,3,1.343,3,3v6.624h0.045V75.66c0-1.657,1.343-3,3-3h6.672c1.657,0,3,1.343,3,3l0,0
				c0-1.657,1.343-3,3-3h6.671c1.657,0,3,1.343,3,3v7.054h2.239c1.657,0,3,1.343,3,3v6.861c0,1.657-1.343,3-3,3h-2.239v12.771
				c0,0.461-0.104,0.897-0.29,1.288h1.365c1.657,0,3,1.343,3,3v6.862c0,1.657-1.343,3-3,3H18.194z M28.245,109.634
				c-0.186-0.391-0.29-0.827-0.29-1.288V95.575H27.91v14.06H28.245z"/>
			<path class="st0" d="M50.299,75.66v10.054h5.239v6.861h-5.239v15.772H30.955V92.575h-6.045v20.06h29.463v6.862h-36.18V92.575H13
				v-6.861h5.194v-9.624h6.716v9.624h6.045V75.66h6.672v10.054h6V75.66H50.299 M37.627,101.723h6v-9.148h-6V101.723 M50.299,69.66
				h-6.671c-1.093,0-2.117,0.292-3,0.803c-0.883-0.511-1.907-0.803-3-0.803h-6.672c-1.257,0-2.425,0.387-3.389,1.048
				c-0.801-0.396-1.702-0.618-2.656-0.618h-6.716c-3.314,0-6,2.686-6,6v3.678C9.261,80.161,7,82.673,7,85.714v6.861
				c0,3.04,2.261,5.553,5.194,5.946v20.975c0,3.314,2.686,6,6,6h36.18c3.314,0,6-2.686,6-6v-6.862c0-2.64-1.705-4.882-4.075-5.685
				v-8.423c2.955-0.374,5.239-2.896,5.239-5.952v-6.861c0-3.056-2.285-5.578-5.239-5.952V75.66
				C56.299,72.346,53.612,69.66,50.299,69.66L50.299,69.66z"/>
		</g>
		<g>
			<path class="st0" d="M66.157,124.212c-0.948,0-1.87-0.45-2.447-1.263l-4.433-6.242c-0.55-0.775-0.701-1.765-0.406-2.669
				c0.295-0.903,1.001-1.613,1.902-1.914c0.058-0.02,0.115-0.038,0.171-0.058c-0.514-0.307-0.94-0.77-1.201-1.356l-3.135-7.053
				c-0.357-0.805-0.344-1.725,0.037-2.518c0.381-0.794,1.091-1.379,1.942-1.603c0.598-0.157,1.156-0.314,1.677-0.472
				c-0.268-0.449-0.422-0.975-0.422-1.535V76.899c0-1.657,1.343-3,3-3H99.47c1.657,0,3,1.343,3,3V97.53
				c0,0.62-0.188,1.196-0.511,1.675c0.598,0.175,1.18,0.322,1.752,0.461c0.859,0.207,1.583,0.782,1.979,1.572
				c0.396,0.789,0.423,1.713,0.076,2.525l-3,7.004c-0.485,1.132-1.589,1.819-2.758,1.819c-0.333,0-0.671-0.057-1.002-0.174
				c-0.988-0.35-2.355-0.835-4.101-1.651v10.117c0,1.657-1.343,3-3,3h-6.896c-1.657,0-3-1.343-3-3v-18.965
				c0-0.323,0.051-0.636,0.146-0.928c-0.114-0.154-0.224-0.307-0.329-0.456h-1.22c-0.088,0.119-0.179,0.238-0.273,0.358
				c0.137,0.357,0.206,0.741,0.198,1.132c-0.196,10.118-2.47,17.318-13.184,21.945C66.961,124.132,66.557,124.212,66.157,124.212z"
				/>
			<path class="st0" d="M99.47,76.899V97.53h-7.074c3.985,3.145,7.253,4.241,10.612,5.051l-3,7.004
				c-1.746-0.619-4.388-1.572-8.104-3.86v15.153h-6.896v-18.964h1.97c-1.925-1.859-2.821-3.241-3.537-4.384h-4.389
				c-0.94,1.382-1.836,2.621-3.85,4.431h2.328c-0.179,9.244-2.105,15.247-11.374,19.25l-4.433-6.242
				c7.568-2.525,8.328-6.052,8.687-9.482c-3.538,2.191-5.955,3.192-7.925,4.003l-3.135-7.052c6.896-1.811,9.134-3.812,10.344-4.908
				h-6.851V76.899H99.47 M84.291,85.047h8.597v-2.43h-8.597V85.047 M69.56,85.047h8.553v-2.43H69.56V85.047 M84.291,92.146h8.597
				v-2.572h-8.597V92.146 M69.56,92.146h8.553v-2.572H69.56V92.146 M77.53,101.962h0.005 M99.47,70.899H62.844c-3.314,0-6,2.686-6,6
				v20.089c-1.26,0.579-2.291,1.583-2.901,2.853c-0.762,1.586-0.789,3.427-0.074,5.036l2.951,6.638
				c-0.34,0.483-0.611,1.018-0.798,1.593c-0.59,1.807-0.289,3.787,0.812,5.336l4.433,6.242c1.154,1.625,2.997,2.526,4.894,2.526
				c0.798,0,1.606-0.16,2.376-0.492c4.914-2.122,8.235-4.83,10.473-7.896v2.055c0,3.314,2.686,6,6,6h6.896c3.314,0,6-2.686,6-6
				v-5.673c0.034,0.012,0.067,0.024,0.1,0.035c0.661,0.234,1.338,0.346,2.004,0.346c2.338,0,4.546-1.375,5.516-3.639l3-7.004
				c0.696-1.624,0.64-3.472-0.151-5.051c-0.623-1.244-1.653-2.221-2.901-2.783V76.899C105.47,73.585,102.784,70.899,99.47,70.899
				L99.47,70.899z"/>
		</g>
		<g>
			<path class="st0" d="M135.254,121.495c-5.819,0-19.275,0-19.861-11.057c-0.509,0.37-1.127,0.575-1.766,0.575
				c-0.005,0-0.009,0-0.014,0c-0.833-0.004-1.627-0.354-2.192-0.966l-4.791-5.194c-1.062-1.151-1.06-2.924,0.004-4.072
				c2.356-2.544,4.967-5.589,7.195-10.209h-3.203c-1.657,0-3-1.343-3-3v-6.385c0-1.657,1.343-3,3-3h7.018
				c0.091-0.529,0.173-1.065,0.263-1.735c0.201-1.496,1.479-2.601,2.971-2.601c0.059,0,0.117,0.002,0.176,0.005l7.388,0.429
				c0.869,0.051,1.673,0.476,2.204,1.166s0.735,1.576,0.562,2.43c-0.021,0.105-0.042,0.208-0.063,0.307h12.571c1.657,0,3,1.343,3,3
				v6.385c0,0.118-0.007,0.235-0.02,0.35c0.345,0.072,0.679,0.204,0.984,0.396c0.713,0.446,1.207,1.172,1.359,2l1.299,7.052
				c0.292,1.585-0.721,3.118-2.295,3.471c-2.762,0.618-4.756,1.123-7.747,2.097c0.047,1.604,0.037,3.492-0.03,5.646
				c0,0.002,0,0.003,0,0.005c1.425-0.089,2.875-0.217,4.204-0.4c0.137-0.019,0.274-0.028,0.411-0.028
				c0.72,0,1.421,0.259,1.971,0.738c0.654,0.569,1.029,1.395,1.029,2.262v7.146c0,1.623-1.292,2.952-2.915,2.999
				C138.252,121.495,136.863,121.495,135.254,121.495z M137.177,90.74c0.141-0.055,0.286-0.111,0.434-0.168h-0.563
				C137.09,90.628,137.134,90.683,137.177,90.74z"/>
			<path class="st0" d="M120.881,76.851l7.388,0.429c-0.448,2.192-0.582,2.811-0.896,3.907h16.343v6.385h-18.313
				c-0.537,1.43-0.94,2.24-1.881,4.145c1.881-0.953,3.313-1.668,5.507-1.668c4.209,0,5.866,2.145,6.851,4.431
				c1.433-0.572,6.09-2.478,10.209-3.621l1.299,7.052c-3.403,0.762-5.776,1.382-10.209,2.907c0.089,1.048,0.224,3.335,0.089,7.671
				h-6.716c0.224-2.668,0.179-4.383,0.134-4.955c-2.015,1.048-4.97,2.62-4.97,5.193c0,2.907,3.268,3.049,7.925,3.049
				c3.448,0,7.791-0.143,11.239-0.619v7.147c-6.672,0.19-8.06,0.19-9.627,0.19c-6.717,0-16.881-0.238-16.881-8.814
				c0-6.385,6.94-10.101,11.284-12.388c-0.582-1.096-1.702-1.43-2.821-1.43c-2.597,0-6.134,2.288-8.06,5.146
				c-3.493,5.241-4.522,6.337-5.15,7.005l-4.791-5.194c3-3.24,6.761-7.624,9.493-15.247h-7.702v-6.385h9.493
				C120.477,79.425,120.657,78.519,120.881,76.851 M120.876,70.851c-2.688,0-5.029,1.792-5.761,4.336h-4.489c-3.314,0-6,2.686-6,6
				v6.385c0,2.687,1.766,4.961,4.2,5.725c-1.455,2.185-2.974,3.912-4.394,5.445c-2.127,2.297-2.13,5.843-0.008,8.144l4.791,5.194
				c0.992,1.076,2.338,1.746,3.779,1.899c1.294,4.21,4.562,7.396,9.395,9.014c4.138,1.385,8.81,1.501,12.863,1.501
				c1.632,0,3.041,0,9.798-0.193c3.246-0.093,5.829-2.75,5.829-5.998v-7.147c0-1.734-0.751-3.384-2.058-4.523
				c-1.099-0.958-2.502-1.477-3.942-1.477c-0.273,0-0.547,0.019-0.821,0.056c-0.241,0.033-0.486,0.065-0.735,0.094
				c0-0.058,0-0.117,0-0.174c1.844-0.547,3.408-0.927,5.374-1.368c3.147-0.705,5.174-3.77,4.59-6.942l-1.299-7.052
				c-0.272-1.478-1.087-2.793-2.274-3.693v-4.893c0-3.314-2.686-6-6-6h-9.825c-0.207-0.556-0.498-1.084-0.867-1.565
				c-1.061-1.38-2.67-2.231-4.408-2.332l-7.388-0.429C121.111,70.855,120.993,70.851,120.876,70.851L120.876,70.851z"/>
		</g>
		<g>
			<path class="st0" d="M158.545,123.925c-1.063,0-2.073-0.566-2.615-1.529l-3.806-6.767c-0.479-0.851-0.513-1.881-0.093-2.763
				c0.42-0.881,1.243-1.502,2.206-1.666c1.454-0.246,2.752-0.556,3.908-0.902h-3.048c-1.657,0-3-1.343-3-3v-6.671
				c0-1.657,1.343-3,3-3h0.469l-1.247-5.59c-0.182-0.813-0.016-1.66,0.448-2.343l-2.732-3.802c-0.94-1.309-0.679-3.127,0.592-4.117
				c2.095-1.633,5.003-4.992,6.048-7.575c0.463-1.145,1.572-1.874,2.779-1.874c0.139,0,0.279,0.01,0.42,0.029l6.761,0.953
				c0.872,0.123,1.646,0.623,2.117,1.368c0.166,0.263,0.289,0.547,0.366,0.842h4.352c0.366,0,0.718,0.065,1.043,0.187
				c0.181-0.437,0.349-0.884,0.505-1.342c0.417-1.23,1.569-2.037,2.839-2.037c0.134,0,0.27,0.009,0.405,0.027l6.672,0.905
				c0.854,0.116,1.618,0.594,2.096,1.313c0.194,0.293,0.333,0.613,0.415,0.947h7.787c1.657,0,3,1.343,3,3v6.337c0,1.657-1.343,3-3,3
				h-2.204c0.018,0.213,0.012,0.428-0.017,0.64l2.442,5.36c0.365,0.801,0.36,1.721-0.013,2.518
				c-0.244,0.519-0.628,0.951-1.101,1.254h0.937c1.657,0,3,1.343,3,3v6.671c0,1.657-1.343,3-3,3h-2.775
				c1.589,0.479,2.9,0.7,3.583,0.793c0.971,0.133,1.815,0.73,2.264,1.602c0.447,0.872,0.441,1.907-0.017,2.772l-3.626,6.861
				c-0.527,0.999-1.558,1.599-2.651,1.599c-0.221,0-0.443-0.024-0.665-0.074c-9.021-2.047-14.321-6.746-17.288-10.635
				c-3.766,4.951-9.374,8.506-16.737,10.595C159.092,123.888,158.816,123.925,158.545,123.925z"/>
			<path class="st0" d="M179.858,75.327l6.672,0.906c-0.179,0.666-0.269,1.048-0.716,2.287h11.418v6.337h-6.672
				c0.493,1.096,1.165,2.478,1.478,3.24l-6.896,1.572c-0.269-0.858-1.075-3.144-1.926-4.812h-0.582
				c-1.881,2.954-2.955,4.05-4.164,5.289l-5.105-4.86l0.493-0.429h-3.448c0.582,1.286,1.164,2.621,1.657,3.954l-6.762,1.335
				c-0.045-0.239-0.851-3.574-1.567-5.289h-0.313c-2.328,3.001-3.538,3.954-4.881,4.956l-4.074-5.67
				c2.508-1.953,5.731-5.718,6.985-8.815l6.761,0.953c-0.224,0.715-0.358,1.143-0.896,2.239h8.149v4.527
				C177.44,80.711,178.873,78.233,179.858,75.327 M191.813,88.716l2.911,6.385c-1.746,0.476-5.642,1.572-15.986,2.239
				c-0.224,2.049-0.358,2.764-0.447,3.288h18.985v6.671h-13.523c4.926,5.336,12.179,6.528,13.926,6.765l-3.627,6.862
				c-10.075-2.287-15.627-8.434-17.956-13.437c-1.164,2.43-4.791,9.816-17.552,13.437l-3.806-6.766
				c9.538-1.619,13.254-5.765,14.105-6.861h-13.747v-6.671h16.612c0.135-0.715,0.269-1.382,0.403-2.907
				c-4.657,0.143-7.702,0.238-13.388,0.286l-1.478-6.623c2.253,0.046,4.448,0.07,6.579,0.07
				C175.079,91.455,184.585,90.759,191.813,88.716 M179.854,69.326c-2.222,0-4.264,1.236-5.299,3.193h-1.666
				c-0.95-1.181-2.318-1.967-3.835-2.181l-6.761-0.953c-0.282-0.04-0.563-0.059-0.841-0.059c-2.414,0-4.632,1.46-5.558,3.749
				c-0.741,1.83-3.129,4.79-5.111,6.334c-2.543,1.981-3.066,5.617-1.185,8.234l1.782,2.48c-0.18,0.836-0.181,1.711,0.01,2.568
				l0.622,2.79c-1.747,1.049-2.916,2.962-2.916,5.148v6.671c0,1.166,0.332,2.254,0.908,3.175c-0.264,0.339-0.493,0.708-0.681,1.103
				c-0.841,1.762-0.771,3.823,0.186,5.525l3.806,6.766c1.083,1.925,3.104,3.059,5.229,3.059c0.544,0,1.095-0.074,1.638-0.228
				c6.603-1.874,11.928-4.856,15.921-8.905c3.498,3.578,8.793,7.207,16.621,8.984c0.443,0.101,0.889,0.149,1.329,0.149
				c2.187,0,4.248-1.2,5.303-3.197l3.627-6.862c0.916-1.733,0.928-3.803,0.032-5.546c-0.171-0.332-0.37-0.644-0.595-0.934
				c0.543-0.902,0.855-1.959,0.855-3.089v-6.671c0-2.044-1.022-3.849-2.582-4.932c0.104-1.044-0.066-2.108-0.511-3.084l-0.955-2.096
				c2.332-0.823,4.003-3.046,4.003-5.66v-6.337c0-3.314-2.686-6-6-6h-5.989c-0.959-1.217-2.358-2.022-3.906-2.232l-6.672-0.906
				C180.394,69.344,180.123,69.326,179.854,69.326L179.854,69.326z"/>
		</g>
		<g>
			<path class="st0" d="M211.926,124.258c-0.816,0-1.604-0.334-2.173-0.931c-0.505,0.508-1.183,0.824-1.912,0.876
				c-0.071,0.005-0.143,0.008-0.214,0.008c-0.879,0-1.718-0.386-2.29-1.062l-4.881-5.766c-0.829-0.979-0.943-2.377-0.284-3.479
				c0.596-0.997,1.992-3.331,1.992-11.658V89.763c0-0.861,0.363-1.638,0.944-2.185c-1.222-0.38-2.108-1.519-2.108-2.865v-6.052
				c0-1.657,1.343-3,3-3h4.299v-0.097c0-1.657,1.343-3,3-3h6.358c1.657,0,3,1.343,3,3v0.097h1.789
				c0.471-1.04,1.518-1.763,2.733-1.763h20.865c1.657,0,3,1.343,3,3v6.146c0,1.005-0.494,1.895-1.253,2.439v25.625
				c0,0.47-0.108,0.914-0.301,1.31c0.241,0.121,0.461,0.227,0.66,0.322c0.729,0.351,1.286,0.981,1.544,1.749
				s0.194,1.606-0.176,2.327l-2.866,5.575c-0.365,0.711-1,1.246-1.763,1.488c-0.295,0.094-0.601,0.14-0.905,0.14
				c-0.48,0-0.958-0.115-1.392-0.343c-2.618-1.371-5.018-3.092-7.296-5.236c-2.697,2.37-4.757,3.455-8.375,5.359l-0.122,0.064
				c-0.445,0.234-0.923,0.346-1.396,0.346c-1.029,0.001-2.028-0.53-2.586-1.477l-1.651-2.8c-2.993,1.984-5.971,3.389-8.286,4.167
				C212.567,124.208,212.244,124.258,211.926,124.258z"/>
			<path class="st0" d="M217.657,75.565v3.097h6.806v6.052h-2.104c-0.135,1.048-0.314,2.287-0.896,5.05h3.358v6.099h-4.388
				l2.508,2.145c-5.06,4.526-7.612,5.86-10.03,6.813l-1.612-2.859v1.62c0,0.762,0,1.858-0.135,4.05
				c3.179-1.048,7.03-2.954,10.791-6.766l3.045,2.955c-3.09,3.811-8.508,7.29-11.911,8.671l-1.97-3.764
				c-0.224,2.573-0.627,5.05-1.209,7.242c3.493-1,9-3.383,13.209-8.148l3.089,2.669V85.428h5.284
				c0.134-0.429,0.224-0.667,0.537-2.382h-6.851v-6.147h20.866v6.147h-7.657c-0.358,1.239-0.447,1.572-0.716,2.382h7.12v25.682
				h-4.254c2.598,2.525,4.926,3.669,6.314,4.336l-2.866,5.576c-2.911-1.525-5.418-3.478-7.702-5.813l3.358-4.098h-8.507l3.403,3.955
				c-3.135,3.001-4.97,3.954-9.134,6.146l-3.09-5.241c4.433-2.001,5.149-2.335,8.328-4.86h-3.985
				c-4.702,5.717-11.329,9.005-14.732,10.149l-2.373-4.145c-0.761,2.288-1.388,3.241-1.925,4.098l-4.881-5.766
				c0.941-1.572,2.418-4.431,2.418-13.198V89.764h2.328c-0.224-2.096-0.851-4.526-0.986-5.05H204v-6.052h7.299v-3.097H217.657
				 M216.538,84.713h-4.119c0.314,1.334,0.537,2.525,0.851,5.05h2.642C216.09,88.668,216.404,86.714,216.538,84.713 M232.523,92.766
				h5.956v-2.288h-5.956V92.766 M218.463,95.863h-7.164v4.145C214.567,98.865,216.628,97.483,218.463,95.863 M232.523,99.341h5.956
				v-2.382h-5.956V99.341 M232.523,105.821h5.956v-2.335h-5.956V105.821 M217.657,69.565h-6.358c-2.261,0-4.229,1.25-5.252,3.097
				H204c-3.314,0-6,2.686-6,6v6.052c0,1.414,0.489,2.714,1.308,3.74c-0.094,0.422-0.143,0.86-0.143,1.31v12.484
				c0,7.498-1.139,9.401-1.567,10.118c-1.318,2.202-1.089,4.998,0.569,6.957l4.881,5.766c1.144,1.352,2.822,2.123,4.579,2.123
				c0.142,0,0.285-0.005,0.428-0.015c0.574-0.041,1.133-0.164,1.66-0.36c0.699,0.277,1.449,0.423,2.212,0.423
				c0.636,0,1.28-0.101,1.91-0.313c0.821-0.276,3.255-1.159,6.297-2.86l0.102,0.172c1.115,1.891,3.114,2.954,5.173,2.954
				c0.944,0,1.9-0.223,2.79-0.692l0.12-0.063c2.824-1.487,4.814-2.534,6.902-4.089c1.888,1.549,3.868,2.861,5.981,3.968
				c0.867,0.454,1.823,0.685,2.784,0.685c0.609,0,1.22-0.093,1.812-0.28c1.525-0.483,2.793-1.555,3.525-2.977l2.866-5.576
				c0.74-1.44,0.867-3.119,0.351-4.654c-0.343-1.02-0.95-1.919-1.747-2.614V86.717c0.786-1.015,1.254-2.288,1.254-3.671v-6.147
				c0-3.314-2.686-6-6-6H225.18c-1.074,0-2.082,0.282-2.954,0.776C221.125,70.384,219.487,69.565,217.657,69.565L217.657,69.565z"/>
		</g>
		<g>
			<path class="st0" d="M255.05,121.4c-1.46,0-2.722-1.059-2.959-2.52c-0.333-2.051-1.113-6.854-1.113-16.681
				c0-8.719,0.522-16.649,1.597-24.244c0.211-1.489,1.487-2.58,2.968-2.58c0.076,0,0.153,0.003,0.23,0.009l7.522,0.572
				c0.846,0.064,1.625,0.483,2.144,1.154c0.391,0.503,0.607,1.113,0.627,1.739c0.358-0.15,0.753-0.234,1.166-0.234h22.433
				c1.657,0,3,1.343,3,3v7.434c0,1.657-1.343,3-3,3h-22.433c-1.084,0-2.034-0.575-2.562-1.437c-0.196,2.761-0.311,5.633-0.341,8.606
				c0.365-0.901,0.802-1.807,1.311-2.72c0.539-0.97,1.554-1.541,2.621-1.541c0.272,0,0.549,0.037,0.821,0.114l6.358,1.811
				c0.932,0.266,1.678,0.964,2.004,1.876s0.191,1.926-0.361,2.721c-1.276,1.838-1.613,3.207-1.613,3.674c0,0.005,0,0.011,0,0.016
				c0.337,0.179,1.332,0.463,4.254,0.463c1.52,0,6.672-0.101,10.288-0.55c0.123-0.015,0.246-0.022,0.369-0.022
				c0.719,0,1.418,0.259,1.967,0.734c0.643,0.559,1.018,1.363,1.033,2.214l0.134,7.72c0.025,1.516-1.083,2.813-2.584,3.022
				c-2.424,0.34-5.24,0.505-8.609,0.505c-4.766,0-13.422,0-17.37-5.566c0.15,1.304,0.327,2.523,0.531,3.656
				c0.15,0.838-0.063,1.701-0.586,2.373s-1.308,1.09-2.157,1.149l-7.478,0.524C255.191,121.398,255.12,121.4,255.05,121.4z"/>
			<path class="st0" d="M255.545,78.376l7.522,0.572c-0.493,2.764-1.747,10.197-1.747,21.918c0,9.53,0.806,14.771,1.209,17.01
				l-7.478,0.524c-0.403-2.478-1.075-7.052-1.075-16.2C253.977,94.195,254.426,86.286,255.545,78.376 M289.665,81.616v7.433h-22.433
				v-7.433H289.665 M268.261,97.959l6.358,1.811c-1.522,2.192-2.149,4.145-2.149,5.384c0,3.098,3.313,3.478,7.254,3.478
				c1.388,0,6.806-0.095,10.657-0.572l0.134,7.719c-1.701,0.239-4.209,0.476-8.194,0.476c-9.493,0-16.433-1.429-16.433-9.91
				C265.888,104.678,266.112,101.819,268.261,97.959 M255.539,72.376c-2.962,0-5.514,2.181-5.936,5.16
				c-1.095,7.735-1.627,15.803-1.627,24.665c0,8.928,0.616,13.862,1.152,17.163c0.475,2.921,3,5.038,5.918,5.038
				c0.141,0,0.282-0.005,0.424-0.015l7.478-0.524c1.7-0.119,3.268-0.955,4.315-2.3c0.376-0.483,0.672-1.015,0.883-1.577
				c4.278,1.998,9.558,2.271,14.174,2.271c3.511,0,6.464-0.175,9.027-0.534c3.002-0.421,5.219-3.015,5.166-6.046l-0.134-7.719
				c-0.03-1.701-0.78-3.31-2.065-4.426c-1.098-0.953-2.497-1.47-3.934-1.47c-0.245,0-0.492,0.015-0.738,0.046
				c-3.381,0.419-8.294,0.518-9.75,0.526c0.809-1.49,0.954-3.265,0.377-4.881c-0.386-1.081-1.068-2.012-1.946-2.702h11.341
				c3.314,0,6-2.686,6-6v-7.433c0-3.314-2.686-6-6-6h-21.608c-0.078-0.117-0.16-0.231-0.247-0.343
				c-1.039-1.341-2.597-2.179-4.288-2.308l-7.522-0.572C255.845,72.382,255.692,72.376,255.539,72.376L255.539,72.376z"/>
		</g>
		<g>
			<path class="st0" d="M305.486,122.02c-5.708,0-10.352-4.895-10.352-10.91s4.681-10.909,10.434-10.909S316,105.094,316,111.11
				s-4.68,10.909-10.433,10.909L305.486,122.02z M305.568,109.345c-0.814,0-1.478,0.792-1.478,1.765c0,0.915,0.69,1.717,1.478,1.717
				c0.776,0,1.433-0.786,1.433-1.717C307,110.137,306.358,109.345,305.568,109.345z"/>
			<path class="st0" d="M305.568,103.2c4.074,0,7.432,3.478,7.432,7.909c0,4.336-3.358,7.909-7.432,7.909c-0.027,0-0.054,0-0.081,0
				c-4.082,0-7.352-3.603-7.352-7.91C298.134,106.679,301.493,103.2,305.568,103.2 M305.568,115.827
				c2.462,0,4.433-2.144,4.433-4.717c0-2.668-2.015-4.764-4.433-4.764c-2.463,0-4.478,2.096-4.478,4.764
				C301.09,113.683,303.105,115.827,305.568,115.827 M305.568,97.2c-7.407,0-13.433,6.24-13.433,13.909
				c0,7.67,5.99,13.91,13.352,13.91l0.083,0c7.406-0.001,13.431-6.24,13.431-13.909C319,103.44,312.974,97.2,305.568,97.2
				L305.568,97.2z"/>
		</g>
	</g>
	<g>
		<path d="M42.463,24.653h-9.627v3.526c0.985-0.19,2.373-0.429,4.701-0.429c4.657,0,8.687,1.049,11.239,3.241
			c2.821,2.43,4.164,6.051,4.164,9.624c0,2.859-0.94,8.767-7.343,11.578c-2.552,1.144-5.687,1.526-9.179,1.526l-1.03-6.529
			c7.254-0.095,9.985-2.334,9.985-6.575c0-5.05-4.254-6.337-7.567-6.337c-1.836,0-4.119,0.334-4.97,0.477v11.054
			c0,5.909-4.523,6.909-7.612,6.909c-7.522,0-10.03-5.575-10.03-9.767c0-8.338,7.792-11.865,10.836-13.246v-5.05h-9.806v-6.956
			h9.806V12.98h6.806v4.717h9.314c-0.448-0.524-0.761-0.81-1.299-1.334l5.463-3.526c4.299,3.621,6.896,8.29,8.642,12.15L49,28.846
			c-1.97-4.145-4.209-8.1-6.537-10.816V24.653z M26.119,36.756c-0.94,0.524-4.299,2.288-4.299,5.717
			c0,2.192,1.747,3.002,2.911,3.002c1.388,0,1.388-0.81,1.388-1.668V36.756z"/>
		<path d="M89.261,18.03v6.956H77.306l-0.179,6.052h0.761c4.119,0,8.463-0.096,10.791-0.81l0.358,6.909
			c-1.881,0.572-5.597,0.857-11.105,0.857h-1.03c-0.134,7.242,0.135,8.338,7.343,8.338c5.015,0,8.642-0.524,8.642-6.718
			c0-3.335-1.075-6.576-2.194-9.291l6.493-1.906c0.851,1.715,3.09,6.146,3.09,12.15c0,12.578-9,13.151-16.389,13.151
			c-5.866,0-8.776-0.81-11.015-3.002c-2.911-2.859-3.269-6.385-3.179-12.722h-7.343v-6.956h7.433l0.134-6.052h-7.253V18.03h7.388
			l0.09-5.289l7.612,0.047l-0.179,5.241H89.261z"/>
		<path d="M143,17.506v7.099h-21.583c-0.447,2.812-0.671,3.765-1.254,5.576c2.149-1.049,5.015-2.43,9.404-2.43
			c8.731,0,12.627,5.717,12.627,12.102c0,4.956-2.328,9.197-6,11.103c-3.582,1.905-7.478,2.715-17.284,2.715
			c-2.373,0-3.627-0.047-5.194-0.096l-1.567-7.29c1.209,0.143,3.582,0.429,8.284,0.429c7.343,0,14.149-0.429,14.149-6.671
			c0-4.765-4.164-5.337-6.09-5.337c-2.956,0-7.209,0.763-10.299,4.337c-0.313,0.619-0.447,1-0.671,1.762l-7.477-2.191
			c2.149-5.004,3.358-10.53,3.94-14.009h-8.239v-7.099h9.044c0.135-1.572,0.179-2.43,0.224-4.764l7.747,0.096
			c-0.224,2.477-0.403,4.097-0.448,4.669H143z"/>
		<path d="M160.961,54.814c-1.567-9.196-2.776-14.008-3.895-18.487c-0.941,0.429-5.06,2.192-5.866,2.573l-1.926-6.719
			c0.986-0.333,5.194-1.858,6.045-2.144c-0.94-3.098-1.522-4.908-2.463-7.386l6.403-1.668c0.716,2.096,1.03,3.049,2.239,6.813
			c0.582-0.238,1.746-0.619,3.851-1.286c-0.806-1.763-1.164-2.478-2.463-4.717l5.373-2.192c1.836,2.907,2.598,4.67,2.956,5.433
			c0.537-0.048,1.388-0.143,2.373-0.143c7.164,0,9.179,5.622,9.179,9.767c0,4.05-1.925,10.101-10.881,10.101
			c-1.388,0-2.239-0.143-3.895-0.381l-0.135-6.242c1.97,0.334,2.507,0.429,3.582,0.429c1.612,0,5.284-0.333,5.284-4.097
			c0-2.669-1.881-3.622-3.627-3.622c-2.283,0-6.403,1.573-9.895,2.907c1.791,6.623,3.268,12.389,4.701,19.87L160.961,54.814z"/>
		<path d="M224.191,22.08c-1.388-0.095-2.642-0.143-3.627-0.143c-1.477,0-3.761,0.096-5.373,0.62
			c-6.358,2.001-13.522,9.005-13.522,15.723c0,4.479,3.358,7.099,14.821,7.099c2.104,0,3.134-0.095,4.03-0.143l-0.985,8.195
			c-5.328-0.047-9.717-0.143-14.463-1.429c-9.448-2.525-10.791-9.577-10.791-13.246c0-6.48,3.94-12.008,9.582-16.057
			c-3.985,0.333-14.149,1.286-17.552,1.762l-0.403-8.195c2.91-0.047,4.254-0.143,9.448-0.523c9.538-0.667,18.224-0.953,28.612-1.287
			L224.191,22.08z M215.102,26.797c2.015,2.621,3.403,5.289,5.015,8.911l-3.94,2.43c-1.523-3.764-2.732-6.052-4.836-9.101
			L215.102,26.797z M221.236,23.748c2.105,2.669,3.582,5.432,5.194,8.815l-3.985,2.287c-1.657-3.764-2.642-5.717-5.015-9.005
			L221.236,23.748z"/>
		<path d="M50.299,75.66v10.054h5.239v6.861h-5.239v15.772H30.955V92.575h-6.045v20.06h29.463v6.862h-36.18V92.575H13v-6.861h5.194
			v-9.624h6.717v9.624h6.045V75.66h6.672v10.054h6V75.66H50.299z M37.627,92.575v9.148h6v-9.148H37.627z"/>
		<path d="M61.724,114.97c7.567-2.525,8.328-6.052,8.687-9.482c-3.538,2.191-5.955,3.192-7.925,4.003l-3.135-7.052
			c6.896-1.811,9.134-3.812,10.344-4.908h-6.851V76.899H99.47V97.53h-7.074c3.985,3.145,7.253,4.241,10.612,5.051l-3,7.004
			c-1.746-0.619-4.388-1.572-8.104-3.86v15.153h-6.896v-18.964h1.97c-1.925-1.859-2.821-3.241-3.537-4.384h-4.389
			c-0.94,1.382-1.836,2.621-3.85,4.431h2.328c-0.179,9.244-2.105,15.247-11.374,19.25L61.724,114.97z M69.56,82.617v2.43h8.553
			v-2.43H69.56z M69.56,89.573v2.572h8.553v-2.572H69.56z M84.291,82.617v2.43h8.597v-2.43H84.291z M84.291,89.573v2.572h8.597
			v-2.572H84.291z"/>
		<path d="M143.716,81.187v6.385h-18.313c-0.537,1.43-0.94,2.24-1.881,4.145c1.881-0.953,3.313-1.668,5.507-1.668
			c4.209,0,5.866,2.145,6.851,4.431c1.433-0.572,6.09-2.478,10.209-3.621l1.299,7.052c-3.403,0.762-5.776,1.382-10.209,2.907
			c0.089,1.048,0.224,3.335,0.089,7.671h-6.716c0.224-2.668,0.179-4.383,0.134-4.955c-2.015,1.048-4.97,2.62-4.97,5.193
			c0,2.907,3.268,3.049,7.925,3.049c3.448,0,7.791-0.143,11.239-0.619v7.147c-6.672,0.19-8.06,0.19-9.627,0.19
			c-6.716,0-16.881-0.238-16.881-8.814c0-6.385,6.94-10.101,11.284-12.388c-0.582-1.096-1.702-1.43-2.821-1.43
			c-2.597,0-6.134,2.288-8.06,5.146c-3.493,5.241-4.522,6.337-5.15,7.005l-4.791-5.194c3-3.24,6.761-7.624,9.493-15.247h-7.702
			v-6.385h9.493c0.358-1.762,0.537-2.668,0.761-4.336l7.388,0.429c-0.448,2.192-0.582,2.811-0.896,3.907H143.716z"/>
		<path d="M163.425,84.856c-2.328,3.001-3.538,3.954-4.881,4.956l-4.074-5.67c2.507-1.953,5.731-5.718,6.985-8.815l6.761,0.953
			c-0.224,0.715-0.358,1.143-0.896,2.239h8.149v4.527c1.97-2.335,3.403-4.813,4.388-7.719l6.672,0.906
			c-0.179,0.666-0.269,1.048-0.716,2.287h11.418v6.337h-6.672c0.493,1.096,1.165,2.478,1.478,3.24l-6.896,1.572
			c-0.269-0.857-1.075-3.144-1.926-4.812h-0.582c-1.881,2.954-2.955,4.05-4.164,5.289l-5.105-4.86l0.493-0.429h-3.448
			c0.582,1.286,1.164,2.621,1.656,3.954l-6.762,1.334c-0.045-0.239-0.851-3.574-1.567-5.289H163.425z M194.724,95.101
			c-1.746,0.476-5.642,1.572-15.986,2.239c-0.224,2.049-0.358,2.764-0.447,3.288h18.985v6.671h-13.523
			c4.926,5.336,12.179,6.528,13.926,6.765l-3.627,6.862c-10.075-2.287-15.627-8.434-17.956-13.437
			c-1.164,2.43-4.791,9.816-17.552,13.437l-3.806-6.766c9.538-1.619,13.254-5.765,14.105-6.861h-13.747v-6.671h16.612
			c0.135-0.715,0.269-1.382,0.403-2.907c-4.657,0.143-7.702,0.238-13.388,0.286l-1.478-6.623c14.149,0.286,25.97-0.239,34.568-2.668
			L194.724,95.101z"/>
		<path d="M222.314,115.97c4.433-2.001,5.149-2.335,8.328-4.86h-3.985c-4.702,5.717-11.329,9.005-14.732,10.149l-2.373-4.145
			c-0.761,2.288-1.388,3.241-1.925,4.098l-4.881-5.766c0.941-1.572,2.418-4.431,2.418-13.198V89.764h2.328
			c-0.224-2.096-0.851-4.526-0.986-5.05H204v-6.052h7.299v-3.097h6.358v3.097h6.806v6.052h-2.104
			c-0.135,1.048-0.314,2.287-0.896,5.05h3.358v6.099h-4.388l2.507,2.145c-5.06,4.526-7.612,5.86-10.03,6.813l-1.612-2.859v1.62
			c0,0.762,0,1.858-0.135,4.05c3.179-1.048,7.03-2.954,10.791-6.766l3.045,2.955c-3.09,3.811-8.508,7.29-11.911,8.671l-1.97-3.764
			c-0.224,2.573-0.627,5.05-1.209,7.242c3.493-1,9-3.383,13.209-8.148l3.089,2.669V85.428h5.284
			c0.134-0.429,0.224-0.667,0.537-2.382h-6.851v-6.147h20.866v6.147h-7.657c-0.358,1.239-0.447,1.572-0.716,2.382h7.12v25.682
			h-4.254c2.598,2.525,4.926,3.669,6.314,4.336l-2.866,5.576c-2.911-1.525-5.418-3.478-7.702-5.813l3.358-4.098h-8.507l3.403,3.955
			c-3.135,3.001-4.97,3.954-9.134,6.146L222.314,115.97z M211.299,95.863v4.145c3.268-1.143,5.329-2.525,7.164-4.145H211.299z
			 M212.418,84.713c0.314,1.334,0.537,2.525,0.851,5.05h2.642c0.179-1.096,0.492-3.049,0.626-5.05H212.418z M232.523,90.478v2.288
			h5.956v-2.288H232.523z M232.523,96.959v2.382h5.956v-2.382H232.523z M232.523,103.486v2.335h5.956v-2.335H232.523z"/>
		<path d="M263.067,78.948c-0.493,2.764-1.747,10.197-1.747,21.918c0,9.53,0.806,14.771,1.209,17.01l-7.478,0.524
			c-0.403-2.478-1.075-7.052-1.075-16.2c0-8.005,0.448-15.915,1.567-23.824L263.067,78.948z M274.62,99.77
			c-1.522,2.192-2.149,4.145-2.149,5.384c0,3.098,3.313,3.478,7.254,3.478c1.388,0,6.806-0.095,10.657-0.572l0.134,7.719
			c-1.701,0.238-4.209,0.476-8.194,0.476c-9.493,0-16.433-1.429-16.433-9.91c0-1.668,0.224-4.527,2.373-8.386L274.62,99.77z
			 M289.665,81.616v7.433h-22.433v-7.433H289.665z"/>
		<path d="M313,111.11c0,4.336-3.358,7.909-7.432,7.909c-4.119,0.048-7.433-3.574-7.433-7.909c0-4.431,3.358-7.909,7.433-7.909
			C309.642,103.2,313,106.679,313,111.11z M301.09,111.11c0,2.573,2.015,4.717,4.478,4.717c2.462,0,4.433-2.144,4.433-4.717
			c0-2.668-2.015-4.764-4.433-4.764C303.105,106.345,301.09,108.442,301.09,111.11z"/>
	</g>
</g>
</svg>
