<svg xmlns="http://www.w3.org/2000/svg" xmlns:xlink="http://www.w3.org/1999/xlink" viewBox="0 0 269.34 201.62"><defs><style>.cls-1{fill:none;}.cls-2{fill:#fa69b3;}.cls-3{fill:#fa46a1;}.cls-4{fill:#fa99c9;}.cls-5{clip-path:url(#clip-path);}.cls-6{fill:#29b900;}.cls-7{fill:#6ad000;}.cls-8{fill:#aae700;}</style><clipPath id="clip-path"><rect class="cls-1" x="2.12" y="2.23" width="265.1" height="197.16"/></clipPath></defs><g id="レイヤー_5" data-name="レイヤー 5"><polygon class="cls-2" points="192.88 55.05 118.77 55.05 81.94 107.54 229.71 107.54 192.88 55.05"/><polygon class="cls-3" points="155.83 2.23 119.67 53.77 191.98 53.77 155.83 2.23"/><polygon class="cls-4" points="81.04 108.82 44.43 161 267.22 161 230.61 108.82 81.04 108.82"/><g class="cls-5"><path class="cls-6" d="M120.62,20.8l-2.06,3.36a23.78,23.78,0,0,0-8.91-1.81c-9.08-.05-15.8,5.21-17.83,12.48,3.22-4,8.42-6.63,14.78-6.59a23.67,23.67,0,0,1,8.46,1.64l-1.49,2.44,9-3.2Z"/><path class="cls-7" d="M91.65,43.65a18.18,18.18,0,0,1,.17-8.82,17,17,0,0,0-3.09,14.52A23.33,23.33,0,0,0,101.45,64.8l3.29-5.39c-6.41-3-11.56-8.79-13.09-15.76"/><path class="cls-7" d="M83.48,83.53l-2,3.37a23.78,23.78,0,0,0-8.91-1.81c-9.08,0-15.8,5.21-17.83,12.48,3.22-4,8.42-6.63,14.78-6.59a23.46,23.46,0,0,1,8.46,1.64l-1.49,2.44,9-3.2Z"/><path class="cls-8" d="M54.52,106.39a18.18,18.18,0,0,1,.17-8.82,17,17,0,0,0-3.09,14.52c1.51,6.78,6.49,12.41,12.72,15.45l3.29-5.39c-6.41-3-11.56-8.79-13.09-15.76"/><polygon class="cls-6" points="176.63 166.12 155.83 153.31 135.02 166.12 145.58 166.12 145.58 178.28 166.07 178.28 166.07 166.12 176.63 166.12"/></g><path d="M138.1,16.62a3.46,3.46,0,0,1,1.39,1.08,3.65,3.65,0,0,1,.53,2.2h-1.41a1.92,1.92,0,0,0-.85-1.84,3.72,3.72,0,0,0-1.78-.39,4.39,4.39,0,0,0-2.18.46,1.47,1.47,0,0,0-.75,1.29c0,.54.42,1,1.29,1.29,1.4.5,2.58,1,3.55,1.33A5.45,5.45,0,0,1,140,23.28a2.34,2.34,0,0,1,.51,1.52,3.06,3.06,0,0,1-.6,1.72,3.46,3.46,0,0,1-1.5,1.18,5.68,5.68,0,0,1-2.45.42,7,7,0,0,1-2.68-.42,3.23,3.23,0,0,1-1.49-1.19,4.4,4.4,0,0,1-.57-2.44h1.41c0,1.09.31,1.79.95,2.11a5.3,5.3,0,0,0,2.38.55,4,4,0,0,0,2.44-.66,1.45,1.45,0,0,0,.7-1.27c0-.57-.52-1.06-1.55-1.45l-3.47-1.27a5.94,5.94,0,0,1-1.92-1,2.22,2.22,0,0,1-.54-1.63,2.65,2.65,0,0,1,.57-1.66,3.54,3.54,0,0,1,1.45-1.11,6.2,6.2,0,0,1,2.32-.39A5.12,5.12,0,0,1,138.1,16.62Z"/><path d="M144.79,17.12a5.8,5.8,0,0,1,3.21-.86,5.9,5.9,0,0,1,2.84.66,5,5,0,0,1,1.92,1.84,7.16,7.16,0,0,1,.88,3.55,6.24,6.24,0,0,1-.75,3.08,5.16,5.16,0,0,1-1.81,1.95,5.85,5.85,0,0,1-3.08.78,6,6,0,0,1-3.15-.76,4.77,4.77,0,0,1-1.8-1.9,6.8,6.8,0,0,1-.7-3.15,6.81,6.81,0,0,1,.72-3.27A5.05,5.05,0,0,1,144.79,17.12Zm-1,5.19a5.27,5.27,0,0,0,.54,2.43,3.52,3.52,0,0,0,1.44,1.42,4.27,4.27,0,0,0,2.27.57,4.58,4.58,0,0,0,2.36-.57,3.25,3.25,0,0,0,1.32-1.4,5,5,0,0,0,.55-2.45,6.32,6.32,0,0,0-.48-2.44,4.15,4.15,0,0,0-1.55-1.68,4.37,4.37,0,0,0-2.2-.52,4.74,4.74,0,0,0-2.32.54,3.46,3.46,0,0,0-1.39,1.45A5.73,5.73,0,0,0,143.75,22.31Z"/><path d="M156,16.37l2.27,9.15,2.69-9.15h1.48l2.65,9.27,2.62-9.27H169L165.75,28h-1.33l-2.77-9.56L158.87,28h-1.33l-2.92-11.65Z"/><path d="M170.89,16.37h1.4l5.43,9.55V16.4h1.41V28h-1.6L172,18.31V28h-1.4V16.37Z"/><path d="M119.82,43.71a10.89,10.89,0,0,0,.7-2.64l1.36.21a15.37,15.37,0,0,1-.79,3,14.44,14.44,0,0,1-1.26,2.47c-.48-.17-1-.38-1.45-.56A12.69,12.69,0,0,0,119.82,43.71Zm.67-5.05a22.76,22.76,0,0,0-1.84-3.93c.41-.18.81-.39,1.2-.6a20.37,20.37,0,0,1,1.88,4ZM132,41.2H127.4a7,7,0,0,0,1.52,2.9,7.08,7.08,0,0,0,3.28,1.77c-.25.45-.55.91-.82,1.34A8.13,8.13,0,0,1,127.89,45a7.05,7.05,0,0,1-1.31-2.33,9.84,9.84,0,0,1-.69,1.54,7.45,7.45,0,0,1-3.43,2.94c-.37-.39-.76-.79-1.13-1.19a6.72,6.72,0,0,0,3.33-2.48,6.48,6.48,0,0,0,.9-2.31h-3.41V39.87h3.54c0-.06,0-.12,0-.16V36.88H123V35.55h2.74V33.46H127v2.09h3.62v4.32H132Zm-2.65-1.33v-3H127v3Z"/><path d="M142.77,42.4h-5v2.33h-1.31V42.46a6.59,6.59,0,0,1-2.41.79c-.1-.49-.22-1-.34-1.48a4.36,4.36,0,0,0,2.36-.67,5.13,5.13,0,0,0,.81-.65h-2.83V39.32h3.74v-.5H135.4v-1h2.39V37.3h-2v-1h2v-.5h1.33v.5h2.18v-.5h1.33v.5h2v1h-2v.51h2.43v1h-2.43v.5h3.77v1.13h-2.87a4.29,4.29,0,0,0,.94.58,6,6,0,0,0,2.38.47c-.12.48-.24,1-.33,1.45a7.89,7.89,0,0,1-2.44-.63v2.42h-1.31Zm2.39-6.84h-9.84v1.35H134V34.29h5.5c-.06-.25-.15-.49-.21-.67.43-.12.88-.22,1.32-.33a7.75,7.75,0,0,1,.28,1h5.59v2.62h-1.33Zm-5.55,8.12V43.1h1.32v.58a2.63,2.63,0,0,1-1.71,2.49,14.48,14.48,0,0,1-4.87,1c-.09-.49-.19-1-.28-1.48a16.59,16.59,0,0,0,4.29-.61C139.18,44.81,139.61,44.33,139.61,43.68Zm2.14-3.24h-3.11c-.21.24-.4.48-.61.68h4.39C142.2,40.93,142,40.68,141.75,40.44Zm-2.63-2.63h2.18V37.3h-2.18Zm2.18,1h-2.18v.5h2.18Zm4.95,8.56A26.81,26.81,0,0,0,141.11,46c.06-.44.13-.87.19-1.32a26.37,26.37,0,0,1,5.4,1.42C146.55,46.54,146.4,47,146.25,47.38Z"/><path d="M152.63,42.85a16.47,16.47,0,0,0,2.2-4.7c-.28-1.21-.54-2.56-.74-4,.44-.09.89-.21,1.33-.31a24,24,0,0,0,2.21,8.1A9.39,9.39,0,0,0,162,46c-.38.39-.75.76-1.14,1.14a11.32,11.32,0,0,1-4.44-4.58,16.62,16.62,0,0,1-1-2.27,15.72,15.72,0,0,1-1.73,3.32,11,11,0,0,1-4.13,3.45c-.3-.44-.6-.89-.87-1.33A9.27,9.27,0,0,0,152.63,42.85Z"/><path d="M176.15,33.92V47.21h-1.33v-1H165.4v1h-1.3V33.92ZM165.4,35.25V44.9h9.42V35.25ZM174,37.79H170.7v.63h2.91v1.21H170.7v.57h3.49V42c0,.79-.17,1.32-.49,1.51a2.11,2.11,0,0,1-1.19.34h-1c-.11-.44-.21-.92-.32-1.36a7.78,7.78,0,0,0,1.17.09.5.5,0,0,0,.36-.16,1.63,1.63,0,0,0,.16-.94v0H170.7v3.16h-1.28V41.47h-3.23V40.2h3.23v-.57h-2.84V38.42h2.84v-.63h-3.3V36.52h3.3v-.85h1.28v.85H174Z"/><path d="M189.88,40.05v7.16h-1.33v-1h-5.81v1h-1.3V41.38a17.88,17.88,0,0,1-2.84.5c-.1-.51-.22-1-.33-1.56a12.88,12.88,0,0,0,6.08-1.57h-5.61V37.42H184V36.15h-3.32V34.88H184V33.44h1.33v1.44h2.9v.63c.52-.56,1.07-1.2,1.61-1.87.33.28.69.56,1,.85a29.48,29.48,0,0,1-2.67,2.93h3.26v1.33H186.6c-.4.31-.82.63-1.21.9-.24.12-.46.27-.69.4Zm-7.14,2.39h5.81V41.38h-5.81Zm5.81,1.33h-5.81V44.9h5.81Zm-1-7.62h-2.28v1.27h.89C186.66,37.05,187.13,36.6,187.6,36.15Z"/><path d="M100.62,130.36v7.07h0a1.35,1.35,0,0,0,.52,1,3.34,3.34,0,0,0,1.51.82,10,10,0,0,0,2.77.22c2.67,0,5-.12,7-.22-.08.56-.2,1.15-.3,1.71l-7.51,0a9.14,9.14,0,0,1-3-.49,3.8,3.8,0,0,1-1.54-.95,3.44,3.44,0,0,1-1,1,4.52,4.52,0,0,1-1.48.78c-.22-.46-.46-.95-.68-1.43a4,4,0,0,0,1.75-1,2.6,2.6,0,0,0,.47-1.25v-5.71H97.28v-1.51Zm-.73-1.22a16,16,0,0,0-2.13-2.58l1.17-1a17.73,17.73,0,0,1,2.18,2.68C100.71,128.51,100.3,128.85,99.89,129.14Zm7.61,2h4.34v1.5H109v3.47a.58.58,0,0,0,.65.66h.66a.39.39,0,0,0,.25-.12c.09-.06.15-.28.15-.59s0-.59,0-.73l1.51.65c0,.25-.09.62-.16,1a1.58,1.58,0,0,1-.39,1,1,1,0,0,1-.76.28h-2a1.22,1.22,0,0,1-1.39-1.39v-4.23h-1.68v.64a6.6,6.6,0,0,1-.76,3.19,5,5,0,0,1-2.22,2.08l-1.32-1.32a4,4,0,0,0,2.79-4v-.64h-2.57v-1.5H106v-2.23h-2a7.34,7.34,0,0,1-.93,1.68c-.48-.29-1-.62-1.41-.9a5.07,5.07,0,0,0,1-1.85,11,11,0,0,0,.44-2.14l1.48.29a12.28,12.28,0,0,1-.22,1.48H106v-2h1.49v2h3.23v1.44H107.5Z"/><path d="M117.18,134.68v5a1.23,1.23,0,0,1-1.39,1.39h-1.3c-.12-.49-.26-1-.38-1.49h1a.51.51,0,0,0,.56-.58v-3.88l-1.54.53c-.07-.49-.17-1-.24-1.51.6-.19,1.19-.39,1.78-.56v-3.56h-1.79v-1.51h1.79v-3.08h1.51v3.08h1.56v1.51h-1.56v3.09c.49-.17,1-.34,1.56-.5v1.51Zm11.95-4.61h-6.22c0,.39-.1.81-.17,1.2h4.53l.76.75a13.49,13.49,0,0,1-2.29,5.86.1.1,0,0,0,0,.07,9.58,9.58,0,0,0,3.77,1.61c-.26.53-.55,1.07-.8,1.6a11.19,11.19,0,0,1-4.15-2.07,11.89,11.89,0,0,1-3.9,2.1c-.29-.56-.58-1.14-.85-1.69a11.23,11.23,0,0,0,3.63-1.62,10.07,10.07,0,0,1-1.48-3.18,10.16,10.16,0,0,1-2.47,4l-1.6-1a8.55,8.55,0,0,0,2.83-4.29,18.69,18.69,0,0,0,.7-3.32h-1.8v-1.51h2c0-.54,0-1.12,0-1.69v-1.39h1.49v1.39c0,.57,0,1.15,0,1.69h6.12Zm-2.78,2.71h-3.9c-.1.43-.2.83-.3,1.22-.05.12-.1.26-.14.39l1.33-.32a7.71,7.71,0,0,0,1.22,2.71A11.12,11.12,0,0,0,126.35,132.78Zm.36-4.51a13.72,13.72,0,0,0-2-1.76c.32-.37.65-.78,1-1.17a13.08,13.08,0,0,1,2.1,1.8C127.42,127.51,127.07,127.9,126.71,128.27Z"/><path d="M141.22,137.22a15.49,15.49,0,0,0,2.56-1.35c.25.42.51.9.74,1.34a16.68,16.68,0,0,1-2.23,1.22,7.84,7.84,0,0,0,3.68,1.18c-.29.5-.58,1-.85,1.48a7.58,7.58,0,0,1-4.27-2,8.12,8.12,0,0,1-1.8-3.49h-2v3.75c.66-.22,1.32-.44,2-.68.07.49.14,1,.21,1.51l-3.24,1-.88-1.1a2.45,2.45,0,0,0,.42-1.36v-3.1h-1.95a17.57,17.57,0,0,1-.22,2.29A9.24,9.24,0,0,1,132.2,141c-.49-.31-1-.65-1.49-.93a7.89,7.89,0,0,0,1.13-2.6,12.29,12.29,0,0,0,.26-2.51v-9h12.63v4.09H133.59v4.05h3.2v-1.24h-2.5v-1.44h2.5v-.95h1.51v.95h2.46v-.95h1.51v.95H145v1.44h-2.68v1.24h3.54v1.51h-5.35A6.51,6.51,0,0,0,141.22,137.22Zm2-9.73h-9.63v1.07h9.63Zm-2.46,5.39H138.3v1.24h2.46Z"/><path d="M149,131.27a48.81,48.81,0,0,0,5.14-5.76c.47.22,1,.46,1.44.66-1.39,1.78-2.83,3.44-4.26,5,2.56-.17,5.12-.34,7.68-.49a18.21,18.21,0,0,0-1.22-1.49c.41-.29.82-.63,1.22-.92a25.21,25.21,0,0,1,3.12,4.36l-1.25.85c-.31-.48-.59-.94-.87-1.36-3.51.24-7,.49-10.49.71C149.37,132.29,149.18,131.78,149,131.27Zm1,2.53h10.4v7.37H159V139.7h-7.37v1.47h-1.54Zm8.91,1.51h-7.37v2.9H159Z"/><path d="M166.56,138V127.9h5.14v-2.44h1.49v2.44h5.3V138H177v-1.14h-3.79V141H171.7v-4.16H168V138Zm5.14-6.22v-2.39H168v2.41Zm0,3.58v-2.07H168v2.08Zm1.49-6v2.39l3.79,0v-2.41Zm0,3.9v2.07H177v-2.08Z"/><path d="M185.37,130.15v8.07c.43-.18.85-.39,1.26-.59.07.51.13,1,.2,1.51l-2.49,1.14c-.31-.38-.61-.75-.88-1.12a2.39,2.39,0,0,0,.41-1.36v-6.14H182.1v-1.51Zm-.28-1.11a16.75,16.75,0,0,0-2.24-2.51l1.12-1a16.8,16.8,0,0,1,2.29,2.56C185.87,128.36,185.46,128.7,185.09,129Zm2.1-2.63h4.24v-1h1.5v1h3.87v1.44h-3.87v.68h3.21V130h-3.21v.68h4.26v1.44H187v-1.44h4.45V130h-3.51v-1.44h3.51v-.68h-4.24Zm9.19,6.29v7a1.23,1.23,0,0,1-1.39,1.39h-1.72c-.11-.49-.25-1-.35-1.49h1.39a.52.52,0,0,0,.56-.58v-.67h-5.46V141h-1.49V132.7h8.46Zm-1.51,1.44h-5.46v.68h5.46Zm0,2.12h-5.46v.68h5.46Z"/><path d="M211.73,133v8.12h-1.51V140h-6.57v1.12h-1.48v-6.61a20.4,20.4,0,0,1-3.22.56c-.12-.58-.25-1.17-.37-1.76a14.59,14.59,0,0,0,6.88-1.78H199.1V130h6v-1.44h-3.76v-1.44h3.76v-1.63h1.51v1.63h3.29v.71c.59-.63,1.22-1.36,1.83-2.12.38.32.78.64,1.14,1a35.38,35.38,0,0,1-3,3.32h3.7v1.51H208c-.46.35-.93.71-1.37,1-.27.14-.53.31-.78.46Zm-8.08,2.71h6.57v-1.2h-6.57Zm6.57,1.51h-6.57v1.28h6.57Zm-1.06-8.64h-2.6V130h1C208.09,129.6,208.61,129.09,209.16,128.58Z"/><path d="M114.07,71.53V78.7l1.58-.68c.06.43.12.88.18,1.33l-2.68,1.1c-.27-.32-.52-.65-.77-1a2.16,2.16,0,0,0,.37-1.2V72.86h-1.69V71.53Zm-.29-1a14.76,14.76,0,0,0-1.88-2.28l1-.88a14.57,14.57,0,0,1,1.93,2.34C114.5,70,114.13,70.32,113.78,70.58Zm10.48,5.55H120.5v5.06h-1.34V76.13h-3.61V74.8h3.61V69.42h-3.43V68.09h8v1.33H120.5V74.8h3.76Zm-7.1-1.78a19.82,19.82,0,0,0-1.24-3.56c.42-.13.85-.31,1.26-.47a18,18,0,0,1,1.27,3.61C118,74.07,117.59,74.22,117.16,74.35Zm4-.36a20.05,20.05,0,0,0,1.27-3.69c.42.14.87.28,1.29.4a17.78,17.78,0,0,1-1.3,3.76Z"/><path d="M129.2,71.83v6.23h0a1.2,1.2,0,0,0,.46.85,2.94,2.94,0,0,0,1.33.72,8.25,8.25,0,0,0,2.44.2c2.36,0,4.41-.11,6.16-.2-.07.5-.18,1-.27,1.51h-6.62a8.09,8.09,0,0,1-2.65-.44,3.48,3.48,0,0,1-1.36-.83,3,3,0,0,1-.9.91,3.83,3.83,0,0,1-1.3.69c-.19-.41-.4-.84-.59-1.26a3.61,3.61,0,0,0,1.54-.9,2.53,2.53,0,0,0,.41-1.1v-5h-1.61V71.83Zm-.65-1.08a14.14,14.14,0,0,0-1.88-2.27l1-.9a15.89,15.89,0,0,1,1.93,2.36C129.27,70.2,128.91,70.5,128.55,70.75Zm6.72,1.78h3.82v1.31h-2.54v3.07a.51.51,0,0,0,.57.58h.58a.34.34,0,0,0,.23-.1.8.8,0,0,0,.13-.52c0-.3,0-.53,0-.65l1.33.57c0,.23-.07.55-.13.93a1.43,1.43,0,0,1-.35.84.93.93,0,0,1-.67.25h-1.81a1.08,1.08,0,0,1-1.22-1.23V73.84h-1.48v.57a5.7,5.7,0,0,1-.68,2.81,4.33,4.33,0,0,1-2,1.84L130,77.9a3.83,3.83,0,0,0,1.87-1.39,3.75,3.75,0,0,0,.6-2.1v-.57h-2.28V72.53H134v-2h-1.79a6.62,6.62,0,0,1-.83,1.48c-.42-.26-.83-.54-1.24-.8a4.33,4.33,0,0,0,.93-1.63,9.21,9.21,0,0,0,.39-1.88c.42.07.85.16,1.3.25a9,9,0,0,1-.2,1.3H134V67.5h1.32v1.78h2.84v1.28h-2.84Z"/><path d="M144.15,71.83v6.23h0a1.2,1.2,0,0,0,.46.85,2.94,2.94,0,0,0,1.33.72,8.25,8.25,0,0,0,2.44.2c2.37,0,4.41-.11,6.16-.2-.07.5-.18,1-.27,1.51h-6.62a8.09,8.09,0,0,1-2.65-.44,3.48,3.48,0,0,1-1.36-.83,3,3,0,0,1-.9.91,3.83,3.83,0,0,1-1.3.69c-.19-.41-.4-.84-.59-1.26a3.61,3.61,0,0,0,1.54-.9,2.41,2.41,0,0,0,.41-1.1v-5H141.2V71.83Zm-.65-1.08a14.14,14.14,0,0,0-1.88-2.27l1-.9a15.89,15.89,0,0,1,1.93,2.36C144.22,70.2,143.86,70.5,143.5,70.75Zm6.72,1.78H154v1.31H151.5v3.07a.51.51,0,0,0,.57.58h.58a.34.34,0,0,0,.23-.1.8.8,0,0,0,.13-.52c0-.3,0-.53,0-.65l1.33.57c0,.23-.07.55-.13.93a1.49,1.49,0,0,1-.34.84,1,1,0,0,1-.68.25h-1.81a1.08,1.08,0,0,1-1.22-1.23V73.84h-1.48v.57a5.7,5.7,0,0,1-.68,2.81,4.33,4.33,0,0,1-2,1.84l-1.16-1.16a3.83,3.83,0,0,0,1.87-1.39,3.75,3.75,0,0,0,.6-2.1v-.57H145.1V72.53h3.8v-2h-1.79a6.62,6.62,0,0,1-.83,1.48l-1.24-.8a4.2,4.2,0,0,0,.93-1.63,9.21,9.21,0,0,0,.39-1.88c.42.07.85.16,1.3.25a9,9,0,0,1-.19,1.3h1.43V67.5h1.32v1.78h2.84v1.28h-2.84Z"/><path d="M158.75,75.64V80.1a1.08,1.08,0,0,1-1.22,1.22h-1.16c-.1-.43-.22-.88-.32-1.31h.88a.45.45,0,0,0,.49-.51V76.07l-1.36.47c-.06-.44-.15-.89-.21-1.33.52-.17,1.05-.35,1.57-.5V71.57h-1.58V70.24h1.58V67.52h1.33v2.72h1.38v1.33h-1.38v2.72c.44-.15.9-.3,1.38-.43v1.33Zm10.54-4.07h-5.48c0,.35-.09.72-.15,1.06h4l.67.66a12,12,0,0,1-2,5.18.07.07,0,0,0,0,.06A8.62,8.62,0,0,0,169.58,80c-.23.46-.48.94-.7,1.4a10,10,0,0,1-3.67-1.82,10.64,10.64,0,0,1-3.44,1.85c-.25-.49-.51-1-.74-1.49a10.13,10.13,0,0,0,3.2-1.42,9,9,0,0,1-1.31-2.82,8.91,8.91,0,0,1-2.18,3.5l-1.4-.86a7.64,7.64,0,0,0,2.49-3.79,16.45,16.45,0,0,0,.62-2.93h-1.59V70.24h1.72c0-.48,0-1,0-1.49V67.52h1.31v1.23c0,.5,0,1,0,1.49h5.39ZM166.84,74H163.4q-.14.57-.27,1.08a3.59,3.59,0,0,0-.12.35l1.17-.29a6.77,6.77,0,0,0,1.08,2.39A9.92,9.92,0,0,0,166.84,74Zm.32-4a12,12,0,0,0-1.78-1.56c.28-.33.56-.69.85-1A11.16,11.16,0,0,1,168.08,69C167.78,69.31,167.47,69.66,167.16,70Z"/><path d="M180,77.88a13.48,13.48,0,0,0,2.26-1.19c.23.37.45.79.66,1.18a13.64,13.64,0,0,1-2,1.07,6.85,6.85,0,0,0,3.24,1c-.25.43-.51.87-.75,1.3a6.71,6.71,0,0,1-3.77-1.73A7.3,7.3,0,0,1,178,76.48h-1.77v3.3c.59-.19,1.17-.39,1.75-.6l.18,1.33c-.94.29-1.9.59-2.85.87-.26-.31-.53-.66-.78-1a2.13,2.13,0,0,0,.37-1.2V76.48h-1.72a15.17,15.17,0,0,1-.19,2,8,8,0,0,1-1,2.75c-.44-.27-.88-.57-1.32-.83a6.67,6.67,0,0,0,1-2.28,10.93,10.93,0,0,0,.23-2.22V68h11.14v3.6h-9.83v3.58h2.83v-1.1h-2.21V72.78h2.21V72h1.33v.83h2.17V72h1.33v.83h2.36v1.27h-2.36v1.1H184v1.33h-4.73A6.06,6.06,0,0,0,180,77.88Zm1.77-8.58h-8.5v.94h8.5Zm-2.17,4.75h-2.17v1.1h2.17Z"/><path d="M186.84,72.63a42.34,42.34,0,0,0,4.53-5.08c.42.19.86.4,1.28.58-1.23,1.57-2.5,3-3.76,4.37,2.26-.15,4.52-.3,6.78-.43-.39-.51-.75-1-1.08-1.32.36-.25.72-.55,1.08-.81a22.41,22.41,0,0,1,2.75,3.85c-.36.23-.75.5-1.11.74l-.76-1.19c-3.1.21-6.19.43-9.26.62C187.14,73.53,187,73.08,186.84,72.63Zm.92,2.23h9.18v6.51h-1.32v-1.3h-6.5v1.3h-1.36Zm7.86,1.33h-6.5v2.56h6.5Z"/><path d="M137.63,91.74a11.9,11.9,0,0,1,.79,4.58,2.79,2.79,0,0,1-.76,2.18,3.62,3.62,0,0,1-2.28.72l-.5.09c-.11-.5-.23-1-.32-1.48H135a2.84,2.84,0,0,0,1.53-.36,1.24,1.24,0,0,0,.59-1.15c0-.48,0-.93-.06-1.33-.24.19-.47.38-.7.55a7.73,7.73,0,0,1-1.82,1c-.29-.41-.57-.86-.87-1.26a7.18,7.18,0,0,0,3.15-1.75,8.69,8.69,0,0,0-.38-1.21,1.65,1.65,0,0,1-.09-.21,11.37,11.37,0,0,1-1.87,1.11c-.33-.38-.65-.8-1-1.19a9.5,9.5,0,0,0,2.13-1.09A11.45,11.45,0,0,0,134,89.12c.45-.18.9-.39,1.33-.56A7.72,7.72,0,0,1,136.69,90a11.6,11.6,0,0,0,.95-1l.93.84a10.75,10.75,0,0,1-1.21,1.3Zm-4.1-5.37h3.74v-.93h1.33v.93h3.23v-.93h1.33v.93h3.65V87.7h-3.65v.8h-1.33v-.8H138.6v.74h-1.33V87.7h-3.74Zm9.85,5.15h3.31v1.33h-3.17a9.44,9.44,0,0,0,1.17,3.33,5.06,5.06,0,0,0,2.46,1.93c-.34.4-.7.81-1.06,1.18a6.06,6.06,0,0,1-2.53-2.3,8.27,8.27,0,0,1-.74-1.66,8.7,8.7,0,0,1-.38,1,6.84,6.84,0,0,1-2.82,2.94c-.41-.34-.83-.72-1.24-1.07a5.9,5.9,0,0,0,2.81-2.55,7.82,7.82,0,0,0,.82-2.76h-3V91.52h3.1V89h1.31Zm1.77-.56a11.33,11.33,0,0,0-1.26-1.73c.35-.27.72-.57,1.08-.82a10,10,0,0,1,1.3,1.79Z"/><path d="M153.09,85.44v7h-1.33V90.32c-.33.25-.66.54-1,.79a17.28,17.28,0,0,1-1.61.94c-.3-.37-.63-.79-.91-1.16a18.15,18.15,0,0,0,1.88-1c.36-.27.72-.58,1-.87.19.21.39.44.6.65V85.44Zm-4.43,8.17h5.85v-.79h1.31v.79h5.76v1.33h-5.37a4.53,4.53,0,0,0,1.66,1.62,12.45,12.45,0,0,0,3.92,1.09l-.42,1.54a13,13,0,0,1-4.4-1.57A6,6,0,0,1,155.3,96a3.8,3.8,0,0,1-1.21,1.45,10.56,10.56,0,0,1-5,1.65c-.19-.48-.43-1-.64-1.45a10.69,10.69,0,0,0,4.67-1.24,3.3,3.3,0,0,0,1.12-1.47h-5.61Zm1.62-4.8a15.17,15.17,0,0,0-1.65-2l1-.88a12.38,12.38,0,0,1,1.7,2C151,88.26,150.63,88.56,150.28,88.81Zm11.11-2.18a10.27,10.27,0,0,1-2.53,3.87,10.42,10.42,0,0,1-3.76,2c-.26-.41-.55-.81-.82-1.21a9.5,9.5,0,0,0,2.78-1.2,7.94,7.94,0,0,0-1.09-.82l.84-1.06a12.37,12.37,0,0,1,1.35,1,8.34,8.34,0,0,0,1.52-2H157c-.16.22-.34.46-.49.64a5.88,5.88,0,0,1-1.75,1.38c-.33-.39-.69-.79-1-1.2A4.27,4.27,0,0,0,155.51,87a6.61,6.61,0,0,0,1.17-1.79c.4.15.82.28,1.22.41-.06.14-.13.27-.19.38h3.06C161,86.19,161.18,86.42,161.39,86.63Z"/><path d="M174.87,92.1v7.16h-1.33v-1h-5.8v1h-1.3V93.43a19.56,19.56,0,0,1-2.84.49c-.11-.5-.23-1-.33-1.55a13,13,0,0,0,6.07-1.57h-5.61V89.47H169V88.2h-3.32V86.93H169V85.49h1.33v1.44h2.9v.62c.52-.55,1.08-1.19,1.62-1.87.32.29.68.57,1,.86a30.81,30.81,0,0,1-2.68,2.93h3.26V90.8H171.6c-.41.31-.83.63-1.22.9-.23.12-.46.26-.68.4Zm-7.13,2.39h5.8V93.43h-5.8Zm5.8,1.33h-5.8v1.12h5.8Zm-.94-7.62h-2.29v1.27h.9C171.66,89.09,172.12,88.65,172.6,88.2Z"/><g class="cls-5"><path d="M89.2,193.74V184h4.93v-2.34h1.43V184h5.09v9.71H99.2v-1.09H95.56v4H94.13v-4H90.61v1.09Zm4.93-6v-2.29H90.61v2.31Zm0,3.43v-2H90.61v2Zm1.43-5.72v2.29l3.64,0v-2.31Zm0,3.74v2l3.64,0v-2Z"/><path d="M107.26,186.19v7.75c.41-.18.81-.38,1.2-.57.07.48.13,1,.2,1.44l-2.39,1.09c-.3-.36-.59-.71-.85-1.07a2.26,2.26,0,0,0,.39-1.3v-5.89h-1.69v-1.45Zm-.28-1.07a16.4,16.4,0,0,0-2.14-2.41l1.07-1a15,15,0,0,1,2.19,2.46C107.73,184.47,107.34,184.79,107,185.12Zm2-2.52h4.07v-.91h1.44v.91h3.71V184h-3.71v.65h3.08V186h-3.08v.65h4.09v1.39h-9.8v-1.39h4.27V186H109.7v-1.38h3.37V184H109Zm8.82,6v6.75a1.19,1.19,0,0,1-1.34,1.34h-1.64c-.11-.48-.24-1-.34-1.44h1.33a.49.49,0,0,0,.54-.55v-.65h-5.24v2.55H109.7v-8h8.12ZM116.37,190h-5.24v.66h5.24Zm0,2h-5.24v.65h5.24Z"/><path d="M124.86,181.69v14.94h-1.44V190c-.22.48-.49,1-.75,1.44a19.56,19.56,0,0,1-1.38,2c-.48-.23-1-.49-1.44-.73a26.29,26.29,0,0,0,1.63-2.13c.29-.54.57-1.09.8-1.63l1.14.46v-7.66Zm-3.22,5.61a18.41,18.41,0,0,0-1.36-3.45c.44-.18.89-.39,1.33-.59a18,18,0,0,1,1.42,3.55C122.59,187,122.1,187.15,121.64,187.3Zm3.94,2.32h6.16v-2h1.45v2h1.43v1.45h-1.43v4.25a1.19,1.19,0,0,1-1.33,1.35H130.1c-.11-.49-.24-1-.36-1.45h1.47a.49.49,0,0,0,.53-.55v-3.6h-6.16Zm5.79-2.32a12.21,12.21,0,0,1-4.25,2.15l-.89-1.39a11.32,11.32,0,0,0,3.07-1.22,12.3,12.3,0,0,0-1.17-.88l.91-1.15a14.46,14.46,0,0,1,1.5,1.15,8.5,8.5,0,0,0,1.74-2.14h-3a5.79,5.79,0,0,1-.57.76,6.7,6.7,0,0,1-2,1.58c-.37-.44-.78-.93-1.17-1.37a5.18,5.18,0,0,0,2-1.25,8.13,8.13,0,0,0,1.3-2l1.4.47c-.07.15-.15.3-.2.43h3.43a9.39,9.39,0,0,1,.7.71A10.65,10.65,0,0,1,131.37,187.3Zm-2.91,7.3a12.58,12.58,0,0,0-1.4-2.1c.39-.29.81-.58,1.2-.84a10.35,10.35,0,0,1,1.45,2.16C129.3,194.06,128.87,194.34,128.46,194.6Z"/><path d="M136.71,187.66h6.41v-3.58h-5.21v-1.45h11.52v1.45h-4.86v3.58h5.93v1.44h-5.93v6a1.18,1.18,0,0,1-1.34,1.34H141c-.1-.47-.23-1-.34-1.45h1.9a.49.49,0,0,0,.54-.54V189.1h-6.41Z"/><path d="M166.17,182.7v13.89h-1.44v-1.42h-9.55v1.42h-1.47V182.7Zm-5.06,6.89v-5.45h-2.18v3a7.8,7.8,0,0,1-.65,3.61,3.1,3.1,0,0,1-1.85,1.51c-.42-.37-.85-.76-1.25-1.1v2.53h9.55V192a18,18,0,0,1-2.09.07,1.66,1.66,0,0,1-.83-.25,1.34,1.34,0,0,1-.52-.75A4.84,4.84,0,0,1,161.11,189.59Zm-3.62-2.42v-3h-2.31v7a2.66,2.66,0,0,0,1.77-1.19A5.76,5.76,0,0,0,157.49,187.17Zm5.07-3v5.5a1.63,1.63,0,0,0,.2.8.88.88,0,0,0,.7.31l1.27-.13v-6.48Z"/><path d="M181.18,182.32V195.2a1.19,1.19,0,0,1-1.34,1.34h-1.69c-.11-.49-.24-1-.36-1.45h1.4a.49.49,0,0,0,.54-.54v-2.91H173a8.06,8.06,0,0,1-.54,3,4.77,4.77,0,0,1-1.65,2.07l-1.42-1.13a3.53,3.53,0,0,0,1.66-1.62,5.47,5.47,0,0,0,.52-2.51v-9.09h9.65Zm-1.45,1.45H173v2.49h6.75Zm0,3.94H173v2.48h6.75Z"/><path d="M186.47,182.7h12v1.44h-2.7v4.15h3.58v1.45h-3.58v6.89h-1.45v-6.89H190.7a9.07,9.07,0,0,1-1,4.11,7.09,7.09,0,0,1-3,2.87c-.43-.41-.88-.82-1.3-1.24a6.09,6.09,0,0,0,2.92-2.39,6.77,6.77,0,0,0,.9-3.35h-3.73v-1.45h3.74v-4.15h-2.79Zm7.82,5.59v-4.15h-3.58v4.15Z"/><path d="M201.47,191.17a25.77,25.77,0,0,0,1.33-4.51c0-.21.1-.45.13-.68h-1.38v-1.45h1.63c.13-1,.22-1.93.26-2.86.48.08,1,.2,1.44.29-.06.9-.16,1.78-.24,2.57h1.87c.21.23.47.49.7.72a22.09,22.09,0,0,1-1.28,6.29c-.17.38-.36.77-.56,1.13l1.86,1.33c-.26.49-.52,1-.78,1.45l-1.81-1.55a19.27,19.27,0,0,1-2.31,2.6c-.36-.45-.7-.89-1.06-1.33a15.33,15.33,0,0,0,2.25-2.23Zm2.78-4.26A21.34,21.34,0,0,1,203,191c.39.29.82.58,1.22.88a6.49,6.49,0,0,0,.46-.91,19,19,0,0,0,1.06-5h-1.32Q204.33,186.45,204.25,186.91Zm3.24.29a44.3,44.3,0,0,0,3.35-5.46l1.38.63c-.88,1.68-1.81,3.24-2.73,4.67,1.41-.12,2.86-.25,4.29-.34a12.26,12.26,0,0,0-.93-1.7c.44-.22.88-.47,1.32-.68a21.51,21.51,0,0,1,2,4.15c-.46.18-.91.41-1.35.6-.13-.32-.28-.65-.41-.94-2.13.16-4.29.36-6.41.52C207.83,188.18,207.65,187.69,207.49,187.2Zm7.63,2.49v7.08h-1.45v-1.42h-3.95v1.42h-1.48v-7.08Zm-1.45,1.45h-3.95v2.78h3.95Z"/></g><path d="M26.27,38.17H38.66v1.21H32.49v4.11l.74-.06c0,.41.09.87.12,1.28-.27,0-.57,0-.86.06v1.3H31.24v-1.2l-4.9.4c-.07-.41-.15-.84-.21-1.25.44-.05.91-.09,1.37-.12V39.38H26.27Zm3.23-5h7.17v4.5H28.23v-4.5H29.5Zm1.74,6.24H28.77v.74h2.47Zm0,1.82H28.77v.7h2.47Zm0,1.79H28.77v.8c.8-.07,1.64-.15,2.47-.2ZM29.5,34.94h5.92v-.71H29.5Zm5.92,1H29.5v.64h5.92ZM33.31,40h4.4c.2.15.43.35.65.54a6.27,6.27,0,0,1-1.54,3.38s-.1.09-.13.11a7.14,7.14,0,0,0,2.09.77c-.2.45-.4.92-.6,1.36A7.75,7.75,0,0,1,35.7,45a9,9,0,0,1-1.77,1.15c-.31-.4-.65-.81-1-1.21A11.35,11.35,0,0,0,34.76,44a14.15,14.15,0,0,1-1.13-1.67c.33-.19.69-.39,1-.56a12.51,12.51,0,0,0,1.06,1.51A4.57,4.57,0,0,0,37,41.22H33.31Z"/><path d="M45.34,36.18a36.12,36.12,0,0,1-2.66,4.57l2.13-.39c0,.42-.1.86-.16,1.27l-3.52.73c-.09-.43-.17-.86-.24-1.27.58-.81,1.15-1.64,1.69-2.48-.67,0-1.35.1-2,.13-.08-.42-.17-.86-.24-1.27a32.66,32.66,0,0,0,2.3-4.14c.37.14.72.3,1.09.46a31.76,31.76,0,0,1-1.82,3.59c.47,0,1-.06,1.45-.07.32-.51.62-1.06.9-1.58ZM40.8,44.91c-.11-.41-.23-.82-.34-1.22l4.75-.9c.07.41.16.84.24,1.25C43.9,44.31,42.34,44.63,40.8,44.91ZM48.63,34.1H52l.64.61a8.15,8.15,0,0,1-2.19,3.87,9.37,9.37,0,0,0,3,1.46c-.21.44-.45.88-.68,1.31a10.88,10.88,0,0,1-3.33-1.9,13.81,13.81,0,0,1-3.18,1.75c-.27-.44-.55-.88-.83-1.32a12.14,12.14,0,0,0,3.14-1.4,13.6,13.6,0,0,1-1.15-1.77,8.23,8.23,0,0,1-1.11,1.34l-1-.95a6,6,0,0,0,1.5-1.87,11.15,11.15,0,0,0,.87-2.31c.38.12.8.28,1.18.42C48.79,33.6,48.7,33.86,48.63,34.1Zm3.58,12.06A28.73,28.73,0,0,0,46.72,44c.13-.39.29-.81.43-1.21A27.6,27.6,0,0,1,52.71,45C52.56,45.36,52.38,45.77,52.21,46.16Zm-.61-2.84a19.13,19.13,0,0,0-3.67-1.47c.13-.4.3-.82.45-1.22a18.24,18.24,0,0,1,3.73,1.49C52,42.52,51.77,42.93,51.6,43.32Zm-.4-8h-3a.5.5,0,0,1,0,.13,11.4,11.4,0,0,0,1.47,2.31A5.74,5.74,0,0,0,51.2,35.31Z"/><path d="M57.28,34.1h3.28v1.21H59.07a9.37,9.37,0,0,1,.2.93l-1.22.29a8,8,0,0,0-.28-1.22h-.92a8.23,8.23,0,0,1-1.07,1.74c-.44-.2-.88-.4-1.31-.58a7.81,7.81,0,0,0,1.2-1.67,7.08,7.08,0,0,0,.68-1.91l1.16.31C57.45,33.5,57.37,33.8,57.28,34.1Zm.4,7.62V36.81h1.21v4.91a4.73,4.73,0,0,1-.74,2.67A4.6,4.6,0,0,1,56,46.14c-.33-.38-.69-.8-1-1.2A4.15,4.15,0,0,0,57,43.67,3.12,3.12,0,0,0,57.68,41.72Zm-2.22.83V37.79h1.21v4.76ZM66.81,39v4.9a1,1,0,0,1-1.17,1.17h-.8c-.1-.4-.21-.82-.3-1.22h.59a.42.42,0,0,0,.47-.47V40.21H64v5.86H62.79V40.21H61.35v4.63H60.14V39h2.65V37.92H59.72V36.71h7.36v1.21H64V39h2.77ZM63,34h4.29V35.2H65.2c.11.26.26.58.39.93l-1.15.47c-.2-.56-.41-1-.58-1.4H62.67a8.19,8.19,0,0,1-.55,1.11c-.47-.14-.94-.31-1.39-.46a6.51,6.51,0,0,0,.83-1.37A7.09,7.09,0,0,0,62,32.94c.38.06.79.15,1.18.2C63.13,33.43,63.07,33.7,63,34Z"/><path d="M71.91,37.08v6h0a1.16,1.16,0,0,0,.45.81,2.69,2.69,0,0,0,1.27.69,7.83,7.83,0,0,0,2.32.18c2.26,0,4.21-.1,5.88-.18-.07.47-.17,1-.26,1.44H75.26a7.6,7.6,0,0,1-2.52-.42,3.19,3.19,0,0,1-1.3-.8,2.78,2.78,0,0,1-.86.87,3.49,3.49,0,0,1-1.24.66c-.18-.39-.38-.8-.57-1.2a3.62,3.62,0,0,0,1.47-.85,2.4,2.4,0,0,0,.4-1.06V38.35H69.1V37.08Zm-.61-1a14.1,14.1,0,0,0-1.8-2.16l1-.86a14.34,14.34,0,0,1,1.84,2.25C72,35.53,71.64,35.81,71.3,36.05Zm6.4,1.7h3.65V39H78.93v2.92a.49.49,0,0,0,.54.56H80a.32.32,0,0,0,.21-.1.73.73,0,0,0,.13-.5c0-.29,0-.5,0-.61l1.27.54c0,.21-.07.53-.13.88a1.32,1.32,0,0,1-.33.8.88.88,0,0,1-.64.24H78.84a1,1,0,0,1-1.17-1.17V39H76.26v.54a5.53,5.53,0,0,1-.64,2.68A4.2,4.2,0,0,1,73.75,44l-1.11-1.12a3.62,3.62,0,0,0,1.78-1.32,3.58,3.58,0,0,0,.57-2V39H72.82V37.75h3.63V35.87H74.73A5.77,5.77,0,0,1,74,37.28c-.4-.24-.8-.51-1.18-.75A4.29,4.29,0,0,0,73.65,35a9.26,9.26,0,0,0,.37-1.8c.4.07.81.16,1.24.25a10.29,10.29,0,0,1-.18,1.24h1.37V33H77.7v1.7h2.71v1.21H77.7Z"/><g class="cls-5"><path d="M11.42,88.3h3.26v1.27H13.39c.08.28.18.59.27.92l-1.24.4A9,9,0,0,0,12,89.57H10.92v0a7.72,7.72,0,0,1-1.1,1.64c-.46-.21-.91-.47-1.36-.7a6.4,6.4,0,0,0,1.2-1.47,7.09,7.09,0,0,0,.74-1.75c.39.12.8.25,1.2.4C11.55,87.9,11.47,88.1,11.42,88.3Zm-1.19,2.76H20.29v3.39H15.94v1h5v2a1.7,1.7,0,0,1-1.75,1.94l-1,.07c-.09-.44-.2-.88-.3-1.32h.78c.64,0,1-.4,1-1.19v-.31H15.94v3.89H14.67V97.66A13.41,13.41,0,0,1,12.76,99a13.63,13.63,0,0,1-3.25,1.3l-.76-1.33A12.66,12.66,0,0,0,12,97.88a13.16,13.16,0,0,0,2-1.2H9.78c.13-1.14.25-2.3.38-3.44h4.51v-1H10.23Zm.93,4.41h3.51v-1H11.29C11.25,94.78,11.19,95.14,11.16,95.47Zm6.06-7.17h4.5v1.27H19.78c.11.25.24.52.36.83-.39.17-.78.37-1.17.54a12.75,12.75,0,0,0-.66-1.37H16.85a7.07,7.07,0,0,1-.58,1.13l-1.44-.53a6.1,6.1,0,0,0,.85-1.31,6.41,6.41,0,0,0,.45-1.48l1.22.25A5,5,0,0,1,17.22,88.3Zm1.8,4H15.94v1H19Z"/><path d="M23.15,94.14V92.87H35.82v1.27Z"/><path d="M38.89,97.08a11.77,11.77,0,0,0,1-2.57l1.27.31A14.22,14.22,0,0,1,40,97.69,16,16,0,0,1,38.52,100l-1.31-.66A16.13,16.13,0,0,0,38.89,97.08Zm.64-5a19.89,19.89,0,0,0-2-3.38l1.08-.67a18.35,18.35,0,0,1,2,3.42C40.29,91.66,39.9,91.89,39.53,92.1Zm4.11,4.78a7.3,7.3,0,0,0,1-3.94V91.33h1.27v1.61c0,.12,0,.26,0,.39a9.88,9.88,0,0,0,1.46,4,6.16,6.16,0,0,0,3,2.06c-.32.38-.65.78-1,1.18a7.35,7.35,0,0,1-3.08-2.44,8,8,0,0,1-.91-1.83,13.55,13.55,0,0,1-.59,1.27,7.49,7.49,0,0,1-3.34,3c-.35-.36-.74-.74-1.11-1.11A6.69,6.69,0,0,0,43.64,96.88Zm.1-7.46H49.3L50,90a9.91,9.91,0,0,1-1.09,3.72c-.4-.19-.83-.37-1.22-.56a8.52,8.52,0,0,0,.92-2.49H43.47s0,.08,0,.11a9.22,9.22,0,0,1-1.37,2.78l-1.2-.75a6.89,6.89,0,0,0,1.34-2.51,12.65,12.65,0,0,0,.47-2.89c.42,0,.83.13,1.25.2C43.9,88.25,43.81,88.85,43.74,89.42Z"/><path d="M11.52,105.69H14.8v1.21H13.3a7.19,7.19,0,0,1,.2.93c-.4.08-.81.2-1.21.28A8,8,0,0,0,12,106.9h-.91A9,9,0,0,1,10,108.64l-1.31-.59a8.22,8.22,0,0,0,1.2-1.66,7.28,7.28,0,0,0,.68-1.92c.39.12.77.22,1.16.32C11.69,105.09,11.6,105.39,11.52,105.69Zm.4,7.61v-4.9h1.21v4.9a4.78,4.78,0,0,1-.74,2.67,4.62,4.62,0,0,1-2.18,1.76c-.33-.39-.69-.8-1-1.2a4.22,4.22,0,0,0,2.07-1.27A3.07,3.07,0,0,0,11.92,113.3Zm-2.23.83v-4.75H10.9v4.75Zm11.36-3.55v4.89a1,1,0,0,1-1.17,1.17h-.8c-.1-.4-.21-.81-.3-1.21h.58a.43.43,0,0,0,.48-.47v-3.17H18.28v5.87H17v-5.87H15.58v4.64H14.37v-5.85H17v-1.07H14V108.3h7.36v1.21h-3v1.07h2.77Zm-3.8-5h4.3v1.21H19.44c.11.26.25.59.38.93-.38.16-.77.33-1.14.47-.2-.55-.41-1-.59-1.4H16.91a9,9,0,0,1-.56,1.12L15,107.44a6.77,6.77,0,0,0,.83-1.37,7.08,7.08,0,0,0,.41-1.54l1.19.2A7.76,7.76,0,0,1,17.25,105.57Z"/><path d="M26.15,108.67v6h0a1.14,1.14,0,0,0,.44.81,2.93,2.93,0,0,0,1.27.69,8.3,8.3,0,0,0,2.33.18c2.25,0,4.21-.1,5.88-.18-.08.47-.18,1-.26,1.44l-6.32,0a7.75,7.75,0,0,1-2.53-.41,3.45,3.45,0,0,1-1.3-.8,2.73,2.73,0,0,1-.85.87,3.76,3.76,0,0,1-1.24.66c-.19-.39-.39-.8-.57-1.2a3.58,3.58,0,0,0,1.47-.86,2.36,2.36,0,0,0,.4-1v-4.81H23.33v-1.27Zm-.62-1a13.7,13.7,0,0,0-1.8-2.17l1-.85a14.93,14.93,0,0,1,1.84,2.25C26.22,107.11,25.87,107.4,25.53,107.64Zm6.41,1.7h3.65v1.25H33.16v2.93a.49.49,0,0,0,.55.56h.55a.4.4,0,0,0,.22-.1.75.75,0,0,0,.13-.5c0-.29,0-.5,0-.62l1.27.54c0,.22-.07.53-.12.89a1.45,1.45,0,0,1-.33.8.88.88,0,0,1-.64.24H33.08a1,1,0,0,1-1.17-1.17v-3.57H30.5v.55a5.48,5.48,0,0,1-.65,2.68A4.21,4.21,0,0,1,28,115.57l-1.12-1.11a3.35,3.35,0,0,0,2.36-3.32v-.55H27.06v-1.25h3.62v-1.88H29a6.53,6.53,0,0,1-.78,1.41c-.4-.24-.8-.52-1.19-.76a4.14,4.14,0,0,0,.89-1.55,9.26,9.26,0,0,0,.37-1.8l1.24.24a8.43,8.43,0,0,1-.19,1.24h1.37v-1.7h1.26v1.7h2.71v1.22H31.94Z"/></g></g></svg>