<?xml version="1.0" encoding="UTF-8"?><svg id="_イヤー_2" xmlns="http://www.w3.org/2000/svg" width="64" height="64" viewBox="0 0 64 64"><defs><style>.cls-1{fill:#fff;}.cls-2{fill:#1d9bf0;}</style></defs><g id="Dark_Blue"><circle class="cls-2" cx="32" cy="32" r="32"/></g><g id="Logo___FIXED"><path class="cls-1" d="M26.145,48.879c14.189,0,21.949-11.755,21.949-21.949,0-.334-.007-.667-.022-.997,1.506-1.089,2.815-2.447,3.848-3.994-1.382,.614-2.87,1.028-4.43,1.214,1.593-.955,2.815-2.466,3.392-4.267-1.491,.884-3.141,1.526-4.898,1.872-1.408-1.499-3.412-2.437-5.631-2.437-4.261,0-7.715,3.455-7.715,7.714,0,.605,.068,1.194,.2,1.759-6.411-.322-12.096-3.392-15.901-8.06-.663,1.14-1.045,2.464-1.045,3.877,0,2.676,1.362,5.039,3.433,6.421-1.265-.039-2.454-.387-3.494-.965-.002,.032-.002,.064-.002,.098,0,3.736,2.659,6.855,6.189,7.563-.648,.176-1.33,.271-2.034,.271-.497,0-.98-.049-1.45-.139,.982,3.065,3.83,5.295,7.207,5.358-2.641,2.069-5.967,3.302-9.581,3.302-.622,0-1.236-.036-1.84-.107,3.414,2.188,7.468,3.465,11.825,3.465"/></g></svg>