<?xml version="1.0" encoding="UTF-8"?><svg id="_レイヤー_2" xmlns="http://www.w3.org/2000/svg" width="300" height="26.449" viewBox="0 0 300 26.449"><defs><style>.cls-1{fill:#231815;}.cls-2{fill:#0062b0;}</style></defs><g id="_レイヤー_1-2"><g><g><g><path class="cls-1" d="M185.903,3.432c0,.049,.02,.074,.059,.074h1.53c.333,0,.735-.024,1.206-.074,.137-.019,.257,.017,.36,.11,.103,.093,.155,.209,.155,.346v1.354c0,.137-.052,.257-.155,.36-.103,.103-.228,.15-.375,.14-.452-.01-.804-.015-1.06-.015h-1.604c-.039,0-.058,.025-.058,.074,.088,4.247,.132,6.409,.132,6.488,0,.53-.152,.937-.456,1.221-.315,.294-.785,.441-1.413,.441-.756,0-1.491-.02-2.207-.059-.147-.01-.275-.066-.382-.169-.108-.103-.172-.228-.192-.375l-.117-1.324c-.01-.137,.034-.25,.133-.338,.098-.088,.211-.127,.338-.118,.549,.069,1.025,.103,1.426,.103,.333,0,.5-.211,.5-.632,0-1.334-.005-2.413-.015-3.237,0-.01-.005-.017-.015-.022-.01-.005-.02-.002-.029,.007-.628,.795-1.43,1.596-2.406,2.406s-1.974,1.503-2.994,2.082c-.138,.079-.279,.103-.427,.073-.147-.029-.275-.103-.383-.221l-.971-1.103c-.069-.078-.103-.167-.103-.265v-.088c.029-.127,.103-.221,.221-.279,1.275-.637,2.435-1.366,3.479-2.185,1.045-.819,1.861-1.625,2.45-2.42,.02-.039,.009-.059-.029-.059h-3.531c-.373,0-.828,.015-1.368,.044-.137,0-.257-.049-.36-.147-.103-.098-.155-.216-.155-.353v-1.368c0-.137,.052-.252,.155-.346,.103-.093,.223-.135,.36-.125,.49,.049,.922,.074,1.295,.074h4.634c.049,0,.074-.024,.074-.074l-.045-.809c-.029-.451-.063-.838-.103-1.162-.009-.137,.029-.257,.117-.36,.089-.103,.201-.154,.338-.154h1.53c.138,0,.253,.052,.347,.154,.092,.103,.134,.223,.125,.36-.029,.304-.044,.598-.044,.883,0,.098,.004,.191,.015,.279l.015,.809Z"/><path class="cls-1" d="M192.655,13.803c-.049,.01-.098,.015-.147,.015-.108,0-.211-.024-.309-.073-.147-.059-.26-.157-.338-.294l-.986-1.53c-.039-.059-.059-.118-.059-.176,0-.049,.01-.098,.03-.147,.049-.108,.137-.171,.265-.191,1.942-.324,3.643-.912,5.105-1.765,1.216-.696,2.3-1.535,3.251-2.516,.951-.981,1.706-1.996,2.265-3.045,.059-.088,.142-.137,.25-.147h.015c.098,0,.177,.049,.236,.147l.912,1.662c.078,.147,.118,.294,.118,.441,0,.157-.044,.309-.132,.456-.628,1-1.427,1.957-2.398,2.869-.971,.912-2.04,1.712-3.207,2.398-1.569,.922-3.192,1.554-4.87,1.898Zm-1.147-10.166c-.117-.078-.182-.186-.191-.324-.01-.137,.03-.26,.118-.368l1.03-1.089c.098-.108,.221-.172,.368-.191h.073c.118,0,.23,.039,.338,.118,1.216,.883,2.256,1.736,3.119,2.56,.107,.108,.161,.233,.161,.375s-.054,.267-.161,.375l-1.133,1.162c-.098,.108-.219,.16-.36,.155-.143-.005-.263-.056-.361-.155-.922-.912-1.922-1.785-3.001-2.619Z"/><path class="cls-1" d="M214.708,5.153c.108-.019,.206-.029,.294-.029,.255,0,.475,.059,.662,.176l.721,.456c.128,.079,.211,.186,.25,.324,.01,.059,.015,.118,.015,.176,0,.079-.02,.157-.059,.235-.039,.108-.069,.196-.088,.265-.598,1.726-1.348,3.094-2.251,4.104-1.294,1.461-2.923,2.52-4.884,3.178-.098,.029-.186,.044-.265,.044-.216,0-.407-.093-.574-.279l-1.132-1.28c-.079-.088-.101-.189-.066-.302,.034-.113,.111-.184,.228-.213,1.972-.49,3.531-1.309,4.679-2.457,.608-.608,1.064-1.314,1.368-2.118,.019-.039,.005-.059-.044-.059h-6.782c-.461,0-.927,.01-1.398,.029-.138,.01-.257-.032-.36-.125-.103-.093-.155-.213-.155-.36v-1.295c0-.147,.051-.267,.155-.36,.103-.093,.223-.135,.36-.125,.579,.039,1.045,.059,1.398,.059h7.165c.284,0,.539-.015,.765-.044Zm-7.9-1.412c-.147,0-.272-.046-.375-.14-.103-.093-.155-.208-.155-.346V1.946c0-.137,.052-.252,.155-.346,.103-.093,.228-.135,.375-.125,.373,.02,.76,.03,1.162,.03h5.708c.412,0,.834-.01,1.265-.03,.01-.01,.02-.015,.03-.015,.127,0,.236,.044,.324,.133,.107,.098,.162,.216,.162,.353v1.309c0,.138-.055,.255-.162,.353-.088,.088-.201,.132-.338,.132h-.03c-.471-.019-.897-.03-1.28-.03h-5.679c-.422,0-.809,.01-1.162,.03Z"/><path class="cls-1" d="M226.948,5.727c-.039,.02-.059,.054-.059,.103v5.943c0,.687,.024,1.241,.074,1.662,.01,.137-.027,.258-.11,.36-.084,.103-.194,.155-.331,.155h-1.854c-.138,0-.253-.052-.346-.155-.093-.103-.13-.223-.111-.36,.039-.588,.059-1.142,.059-1.662V7.301c0-.039-.02-.054-.059-.044-1.491,.736-2.947,1.315-4.369,1.736-.147,.039-.292,.032-.434-.022-.142-.054-.253-.149-.331-.287l-.765-1.309c-.039-.069-.059-.132-.059-.191,0-.049,.015-.103,.044-.162,.049-.118,.137-.191,.265-.221,1.197-.275,2.354-.645,3.472-1.111s2.094-.959,2.928-1.479c.677-.422,1.336-.902,1.979-1.442,.642-.539,1.184-1.069,1.625-1.589,.098-.108,.215-.167,.353-.176h.044c.118,0,.226,.039,.324,.118l1.177,1.059c.107,.098,.161,.221,.161,.368,0,.137-.049,.255-.147,.353-1.197,1.128-2.374,2.069-3.531,2.825Z"/><path class="cls-1" d="M234.082,13.803c-.049,.01-.098,.015-.147,.015-.108,0-.211-.024-.309-.073-.147-.059-.26-.157-.338-.294l-.986-1.53c-.039-.059-.059-.118-.059-.176,0-.049,.01-.098,.03-.147,.049-.108,.137-.171,.265-.191,1.942-.324,3.643-.912,5.105-1.765,1.216-.696,2.3-1.535,3.251-2.516,.951-.981,1.706-1.996,2.265-3.045,.059-.088,.142-.137,.25-.147h.015c.098,0,.177,.049,.236,.147l.912,1.662c.078,.147,.118,.294,.118,.441,0,.157-.044,.309-.132,.456-.628,1-1.427,1.957-2.398,2.869-.971,.912-2.04,1.712-3.207,2.398-1.569,.922-3.192,1.554-4.87,1.898Zm-1.147-10.166c-.117-.078-.182-.186-.191-.324-.01-.137,.03-.26,.118-.368l1.03-1.089c.098-.108,.221-.172,.368-.191h.073c.118,0,.23,.039,.338,.118,1.216,.883,2.256,1.736,3.119,2.56,.107,.108,.161,.233,.161,.375s-.054,.267-.161,.375l-1.133,1.162c-.098,.108-.218,.16-.36,.155-.143-.005-.263-.056-.361-.155-.922-.912-1.922-1.785-3.001-2.619Z"/><path class="cls-1" d="M247.399,13.171c-.147,0-.272-.051-.375-.154-.103-.103-.155-.228-.155-.375v-.486c0-.343,.127-.633,.382-.868,1.432-1.314,2.506-2.437,3.222-3.369,.716-.932,1.074-1.76,1.074-2.486,0-.51-.13-.902-.39-1.177-.26-.275-.616-.412-1.067-.412-.5,0-1.01,.24-1.53,.721-.108,.098-.233,.147-.375,.147s-.263-.049-.361-.147l-.721-.706c-.108-.108-.161-.233-.161-.375s.053-.262,.161-.36c.5-.471,1.01-.817,1.53-1.037,.52-.221,1.128-.331,1.824-.331,1.089,0,1.974,.322,2.656,.964,.681,.643,1.022,1.493,1.022,2.552,0,1.579-1.113,3.492-3.34,5.737,0,.01,.003,.02,.008,.03,.005,.01,.012,.015,.022,.015,.716-.098,1.3-.147,1.751-.147h1.545c.147,0,.269,.052,.367,.155,.098,.103,.147,.228,.147,.375v1.206c0,.147-.049,.272-.147,.375-.098,.103-.221,.154-.367,.154h-6.724Z"/><path class="cls-1" d="M262.883,11.854c-.721,1.015-1.687,1.523-2.898,1.523s-2.175-.508-2.891-1.523c-.716-1.015-1.074-2.464-1.074-4.347s.355-3.312,1.067-4.288c.711-.976,1.674-1.464,2.891-1.464s2.184,.493,2.905,1.479c.721,.986,1.082,2.41,1.082,4.274,0,1.883-.361,3.332-1.082,4.347Zm-3.472-.721c.162,.113,.351,.169,.567,.169s.404-.056,.566-.169c.162-.113,.314-.304,.456-.574,.142-.27,.25-.659,.323-1.17,.074-.51,.111-1.138,.111-1.883,0-.735-.037-1.356-.111-1.861-.073-.505-.181-.885-.323-1.14s-.294-.434-.456-.537c-.162-.103-.351-.155-.566-.155s-.402,.052-.559,.155c-.157,.103-.304,.282-.442,.537-.137,.255-.243,.635-.316,1.14-.074,.505-.111,1.125-.111,1.861,0,.746,.037,1.373,.111,1.883,.073,.51,.176,.9,.309,1.17,.132,.27,.28,.461,.441,.574Z"/><path class="cls-1" d="M265.73,13.171c-.147,0-.272-.051-.375-.154-.103-.103-.155-.228-.155-.375v-.486c0-.343,.127-.633,.382-.868,1.432-1.314,2.506-2.437,3.222-3.369,.716-.932,1.074-1.76,1.074-2.486,0-.51-.13-.902-.39-1.177-.26-.275-.616-.412-1.067-.412-.5,0-1.01,.24-1.53,.721-.108,.098-.233,.147-.375,.147s-.263-.049-.361-.147l-.721-.706c-.108-.108-.161-.233-.161-.375s.053-.262,.161-.36c.5-.471,1.01-.817,1.53-1.037,.52-.221,1.128-.331,1.824-.331,1.089,0,1.974,.322,2.656,.964,.681,.643,1.022,1.493,1.022,2.552,0,1.579-1.113,3.492-3.34,5.737,0,.01,.003,.02,.008,.03,.005,.01,.012,.015,.022,.015,.716-.098,1.3-.147,1.751-.147h1.545c.147,0,.269,.052,.367,.155,.098,.103,.147,.228,.147,.375v1.206c0,.147-.049,.272-.147,.375-.098,.103-.221,.154-.367,.154h-6.724Z"/><path class="cls-1" d="M277.94,13.377c-1.452,0-2.614-.397-3.487-1.192-.118-.108-.176-.245-.176-.412,0-.147,.044-.275,.132-.382l.618-.838c.079-.118,.186-.181,.324-.191,.138-.01,.26,.024,.368,.103,.637,.5,1.285,.75,1.942,.75,.529,0,.949-.11,1.258-.331,.309-.221,.463-.537,.463-.949,0-.481-.165-.846-.493-1.096-.328-.25-.944-.395-1.846-.434-.147-.01-.272-.064-.375-.162-.103-.098-.155-.221-.155-.368v-.839c0-.147,.052-.272,.155-.375,.103-.103,.228-.159,.375-.169,.716-.049,1.226-.196,1.53-.441s.456-.584,.456-1.015c0-.383-.108-.677-.324-.883-.216-.206-.535-.309-.956-.309-.52,0-1.05,.201-1.589,.603-.118,.088-.248,.125-.39,.11-.142-.015-.257-.076-.346-.184l-.691-.839c-.099-.108-.14-.233-.125-.375,.015-.142,.081-.257,.198-.346,.971-.706,1.996-1.059,3.075-1.059,1.177,0,2.111,.268,2.803,.802,.691,.535,1.037,1.297,1.037,2.288,0,1.147-.593,1.966-1.78,2.457-.02,.01-.029,.027-.029,.051,0,.025,.009,.042,.029,.051,.647,.196,1.165,.525,1.552,.986,.387,.461,.581,1.035,.581,1.721,0,.677-.191,1.268-.573,1.773-.382,.505-.883,.88-1.5,1.125-.618,.245-1.305,.368-2.06,.368Z"/><path class="cls-1" d="M299.62,6.918c0,.147-.052,.272-.155,.375-.103,.103-.223,.154-.361,.154h-1.868c-.02,0-.032,.005-.036,.015-.005,.01-.003,.02,.007,.03,.716,.686,1.51,1.236,2.383,1.648,.137,.059,.206,.167,.206,.324,0,.088-.035,.172-.103,.25-.284,.304-.559,.643-.824,1.015-.079,.118-.189,.199-.331,.243-.142,.044-.277,.032-.404-.037-.432-.235-.849-.5-1.251-.795-.03-.029-.044-.019-.044,.03v3.854c0,.137-.051,.257-.155,.36-.103,.103-.228,.154-.375,.154h-1.427c-.088,0-.164-.032-.228-.096-.064-.064-.096-.14-.096-.228,0-.02-.015-.029-.044-.029h-3.795c-.03,0-.044,.015-.044,.044,0,.098-.037,.184-.111,.257-.073,.073-.164,.11-.272,.11h-1.251c-.147,0-.272-.051-.375-.154-.103-.103-.155-.223-.155-.36v-3.59c0-.039-.015-.049-.044-.029-.402,.314-.819,.598-1.25,.853-.118,.069-.245,.083-.383,.044-.137-.039-.245-.118-.323-.235-.226-.363-.481-.692-.765-.986-.079-.069-.118-.157-.118-.265,0-.147,.064-.255,.192-.324,1.03-.559,1.903-1.246,2.618-2.06,.01-.01,.012-.02,.007-.03-.005-.01-.012-.015-.022-.015h-2.133c-.138,0-.257-.051-.361-.154-.103-.103-.154-.228-.154-.375v-.706c0-.147,.051-.272,.154-.375,.103-.103,.223-.155,.361-.155h3.354c.039,0,.069-.019,.088-.059,.019-.039,.051-.101,.096-.184,.044-.083,.076-.149,.095-.198,.02-.039,.005-.059-.044-.059h-2.251c-.147,0-.272-.052-.375-.155-.103-.103-.154-.223-.154-.36v-.662c0-.147,.051-.27,.154-.368,.103-.098,.228-.147,.375-.147h2.854c.049,0,.078-.024,.088-.073,.01-.049,.045-.181,.103-.397,.01-.039-.01-.059-.059-.059h-3.502c-.147,0-.272-.051-.375-.154-.103-.103-.154-.228-.154-.375v-.677c0-.137,.051-.257,.154-.36,.103-.103,.228-.154,.375-.154h3.795c.039,0,.064-.024,.074-.073,.01-.147,.02-.265,.03-.353,.009-.147,.069-.265,.176-.353,.098-.088,.211-.132,.338-.132h.044l1.206,.088c.138,.01,.253,.071,.346,.184,.093,.113,.134,.238,.125,.375-.01,.079-.02,.147-.03,.206,0,.039,.02,.059,.059,.059h5.002c.147,0,.272,.051,.375,.154,.103,.103,.155,.223,.155,.36v.677c0,.147-.052,.272-.155,.375-.103,.103-.228,.154-.375,.154h-5.281c-.049,0-.079,.02-.088,.059-.01,.049-.025,.118-.044,.206-.02,.088-.035,.152-.044,.191-.01,.049,.009,.073,.059,.073h4.884c.147,0,.272,.049,.375,.147,.103,.098,.154,.221,.154,.368v.662c0,.138-.051,.258-.154,.36-.103,.103-.228,.155-.375,.155h-2.236c-.049,0-.059,.02-.029,.059,.088,.167,.161,.294,.221,.382,.019,.039,.049,.059,.088,.059h3.295c.138,0,.258,.052,.361,.155,.103,.103,.155,.228,.155,.375v.706Zm-5.134,3.354c.049,0,.073-.019,.073-.059v-.5c0-.049-.024-.073-.073-.073h-3.752c-.039,0-.059,.024-.059,.073v.5c0,.039,.02,.059,.059,.059h3.752Zm-3.81,2.163c0,.049,.02,.074,.059,.074h3.752c.049,0,.073-.024,.073-.074v-.574c0-.039-.024-.059-.073-.059h-3.752c-.039,0-.059,.02-.059,.059v.574Zm3.766-4.928c-.02-.039-.054-.059-.103-.059h-3.074c-.039,0-.074,.02-.103,.059-.01,.01-.049,.069-.117,.177-.069,.108-.118,.186-.147,.235-.03,.039-.02,.059,.03,.059h3.795c.039,0,.049-.019,.03-.059-.079-.098-.182-.235-.309-.412Zm-1.207-2.251c-.01-.049-.039-.073-.088-.073h-.779c-.049,0-.081,.022-.096,.066-.015,.044-.039,.108-.074,.191-.035,.083-.059,.145-.074,.184-.015,.039,.002,.059,.051,.059h1.192c.039,0,.049-.019,.03-.059-.069-.157-.122-.28-.162-.368Z"/></g><rect class="cls-1" x="176.12" y="16.384" width="123.88" height="1.281"/></g><g><g><g><g><path class="cls-1" d="M49.624,4.387c0-.279-.229-.51-.511-.51h-3.179c-.28,0-.509-.231-.509-.511V.884c0-.28,.229-.511,.509-.511h11.182c.28,0,.51,.231,.51,.511V3.365c0,.28-.23,.511-.51,.511h-3.18c-.28,0-.509,.231-.509,.51v12.761c0,.28-.229,.509-.511,.509h-2.784c-.279,0-.509-.229-.509-.509V4.387Z"/><path class="cls-1" d="M60.68,.884c0-.279,.23-.51,.51-.51h9.898c.28,0,.51,.231,.51,.51V3.248c0,.279-.23,.51-.51,.51h-6.119c-.281,0-.51,.232-.51,.511v2.483c0,.279,.228,.511,.51,.511h4.82c.281,0,.509,.231,.509,.511v2.362c0,.279-.228,.509-.509,.509h-4.82c-.281,0-.51,.229-.51,.511v2.611c0,.278,.228,.51,.51,.51h6.243c.28,0,.51,.229,.51,.509v2.362c0,.28-.23,.509-.51,.509h-10.022c-.28,0-.51-.229-.51-.509V.884Z"/><path class="cls-1" d="M92.337,.884c0-.279,.229-.51,.509-.51h2.783c.28,0,.51,.231,.51,.51V6.705c0,.279,.23,.51,.51,.51h4.084c.28,0,.51-.231,.51-.51V.884c0-.279,.229-.51,.509-.51h2.784c.28,0,.511,.231,.511,.51V17.148c0,.28-.23,.509-.511,.509h-2.784c-.28,0-.509-.229-.509-.509v-5.918c0-.281-.23-.509-.51-.509h-4.084c-.279,0-.51,.228-.51,.509v5.918c0,.28-.229,.509-.51,.509h-2.783c-.28,0-.509-.229-.509-.509V.884Z"/><path class="cls-1" d="M74.526,8.987v-.049c0-4.913,3.437-8.938,8.363-8.938,2.853,0,4.626,.965,6.066,2.406,.087,.083,.165,.363,.004,.579l-.031,.033-1.54,1.911s-.113,.196-.302,.253c-.209,.065-.388,.015-.455-.041-1.181-1.021-2.128-1.633-3.647-1.633-2.703,0-4.515,2.462-4.515,5.428v.049c0,2.963,1.766,5.387,4.515,5.387,1.761,0,2.598-.666,3.835-1.824,.049-.047,.207-.086,.295-.057,.171,.057,.249,.165,.249,.165l1.708,1.859s.11,.105,.105,.28c-.004,.146-.079,.255-.125,.301-1.641,1.766-3.289,2.781-6.301,2.781-4.719,0-8.225-3.925-8.225-8.89"/></g><g><path class="cls-2" d="M36.451,8.958L29.473,.791c-.225-.264-.496-.48-.991-.48h-4.197c-.21,0-.33,.286-.17,.48l6.972,8.161-6.967,8.168c-.146,.164-.058,.48,.171,.48h4.198c.489,0,.765-.217,.991-.48l6.972-8.162Z"/><path class="cls-1" d="M43.047,.311h-4.197c-.47,0-.672,.118-.898,.382l-3.233,3.773,2.68,3.134L43.217,.791c.164-.218,.068-.48-.17-.48"/><path class="cls-1" d="M43.212,17.12l-5.814-6.807-2.679,3.137,3.249,3.784c.225,.263,.557,.366,.876,.366h4.198c.224,0,.326-.299,.17-.48"/></g><path class="cls-2" d="M7.521,4.844V12.998l.023,.789h-1.404v-.801H1.414v.801H0c.015-.303,.022-.567,.022-.789V4.844c0-.231-.008-.49-.022-.778H7.544c-.016,.18-.023,.439-.023,.778m-1.382,.46H1.414v2.497H6.14v-2.497ZM1.414,11.754H6.14v-2.73H1.414v2.73Z"/><path class="cls-2" d="M12.857,9.104v4.203c0,.236,.007,.4,.023,.491h-1.177c.008-.091,.011-.255,.011-.491v-4.089c-.51,.061-.933,.103-1.268,.126l-.502,.08-.126-1.176c.198,.016,.415,.019,.651,.012l.275-.012c.266-.305,.51-.611,.731-.917-.481-.563-1.006-1.118-1.577-1.665l.628-.909,.401,.404c.228-.317,.441-.653,.639-1.019,.198-.354,.331-.634,.399-.843l.994,.647c-.037,.037-.079,.091-.125,.164-.26,.489-.652,1.105-1.178,1.861,.153,.172,.298,.336,.435,.505,.671-.994,1.093-1.712,1.268-2.18l.994,.635-.148,.175c-.183,.31-.408,.664-.674,1.068-.267,.397-.528,.774-.783,1.116-.256,.348-.474,.636-.657,.863,.579-.046,.983-.084,1.211-.113-.091-.311-.198-.597-.32-.855l.892-.251c.129,.259,.269,.607,.416,1.056,.15,.444,.269,.871,.36,1.284l-.993,.308-.103-.571-.696,.092Zm-2.947,3.642c.129-.378,.233-.817,.313-1.314,.08-.495,.128-1.028,.144-1.598l1.004,.182-.034,.229c-.053,1.218-.209,2.216-.468,2.993-.374-.199-.693-.361-.959-.493m4.158-3.025c.084,.267,.171,.634,.261,1.102,.093,.47,.165,.935,.217,1.398l-1.016,.286c-.008-.334-.048-.743-.12-1.226-.073-.484-.151-.921-.234-1.308l.892-.252Zm5.722,2.719c.359,0,.61-.008,.755-.023v1.234c-.138-.015-.388-.023-.755-.023h-4.866c-.366,0-.621,.008-.764,.023v-1.234c.143,.015,.399,.023,.764,.023h1.965v-1.439h-1.268c-.312,0-.534,.004-.662,.012v-1.178c.129,.007,.35,.011,.662,.011h1.268v-.845l-.024-.389c.168,0,.399,.006,.691,.017,.294,.012,.502,.025,.623,.04-.016,.122-.023,.232-.023,.331v.845h1.314c.304,0,.525-.004,.662-.011v1.178c-.137-.008-.358-.012-.662-.012h-1.314v1.439h1.633Zm-5.175-4.763c.716-.117,1.375-.306,1.976-.573-.183-.193-.355-.413-.519-.655-.165-.242-.303-.481-.418-.718-.114-.237-.206-.442-.275-.634h-.067l-.594,.011v-1.128l.594,.011h3.723l.115-.132c.388,.281,.747,.577,1.074,.899l-.16,.077c-.069,.208-.171,.443-.308,.714-.137,.27-.312,.544-.526,.823-.213,.278-.438,.53-.673,.757,.44,.227,1.1,.414,1.975,.559-.183,.441-.335,.835-.457,1.175-.511-.12-.968-.255-1.376-.398-.407-.145-.772-.328-1.092-.548-.236,.158-.54,.318-.913,.473-.373,.159-.891,.322-1.553,.497-.084-.229-.259-.631-.526-1.21m4.102-2.58h-2.114c.122,.274,.269,.53,.44,.772,.171,.241,.363,.448,.577,.63,.228-.182,.438-.391,.628-.635,.19-.244,.347-.5,.469-.766"/></g><g><g><path class="cls-2" d="M151.14,8.958l-6.977-8.167c-.226-.264-.496-.48-.991-.48h-4.199c-.208,0-.328,.286-.169,.48l6.972,8.161-6.967,8.168c-.146,.164-.057,.48,.17,.48h4.198c.489,0,.764-.217,.99-.48l6.973-8.162Z"/><path class="cls-1" d="M157.737,.311h-4.197c-.471,0-.674,.118-.899,.382l-3.233,3.773,2.68,3.134,5.819-6.809c.162-.218,.066-.48-.17-.48"/><path class="cls-1" d="M157.901,17.12l-5.813-6.807-2.68,3.137,3.249,3.784c.224,.263,.556,.366,.876,.366h4.198c.223,0,.325-.299,.169-.48"/></g><path class="cls-1" d="M115.41,17.666c-.193,0-.362-.071-.505-.216-.144-.143-.217-.32-.217-.526V5.928c0-.209,.073-.379,.217-.526,.144-.145,.313-.219,.505-.219h1.609c.207,0,.392,.069,.557,.209,.166,.137,.261,.307,.289,.516l.124,1.195c0,.029,.018,.043,.052,.043,.033,0,.059-.007,.073-.022,1.21-1.183,2.483-1.772,3.817-1.772,1.264,0,2.203,.422,2.816,1.279,.611,.852,.918,2.054,.918,3.609v6.683c0,.206-.072,.383-.217,.526-.144,.145-.313,.216-.504,.216h-2.312c-.192,0-.36-.071-.504-.216-.145-.143-.217-.32-.217-.526v-6.23c0-.798-.11-1.351-.331-1.66-.22-.31-.578-.463-1.073-.463-.385,0-.721,.074-1.01,.226-.289,.151-.626,.412-1.012,.784-.041,.04-.061,.09-.061,.144v7.199c0,.206-.072,.383-.217,.526-.145,.145-.32,.216-.527,.216h-2.269Z"/><path class="cls-1" d="M133.557,17.955c-1.773,0-3.234-.564-4.383-1.691-1.149-1.128-1.722-2.662-1.722-4.601,0-.949,.161-1.826,.485-2.63,.322-.804,.748-1.474,1.278-2.004,.53-.529,1.136-.937,1.816-1.236,.68-.3,1.388-.441,2.114-.441,1.68,0,2.958,.536,3.838,1.608,.88,1.073,1.32,2.475,1.32,4.207,0,.288-.013,.578-.042,.867-.026,.22-.124,.396-.288,.526-.165,.131-.352,.195-.557,.195h-6.232c-.066,0-.094,.034-.08,.104,.341,1.484,1.334,2.227,2.969,2.227,.633,0,1.265-.137,1.898-.412,.179-.096,.369-.114,.567-.052,.2,.062,.348,.176,.444,.341l.536,.991c.096,.178,.12,.368,.073,.567-.048,.199-.162,.353-.34,.464-1.171,.646-2.4,.969-3.695,.969Zm-2.517-7.694c0,.041,.027,.062,.084,.062h3.898c.072,0,.105-.034,.105-.103-.013-.62-.174-1.108-.487-1.466-.308-.358-.781-.536-1.41-.536-.537,0-1.007,.171-1.405,.516-.523,.453-.784,.963-.784,1.527Z"/><path class="cls-1" d="M164.012,17.955c-1.458,0-2.531-.414-3.218-1.247-.688-.832-1.032-1.998-1.032-3.496v-3.346c0-.054-.026-.082-.081-.082h-.805c-.206,0-.382-.072-.525-.216-.144-.145-.217-.32-.217-.526v-1.319c0-.207,.073-.388,.217-.536,.143-.156,.319-.234,.525-.247l1.011-.085c.07-.015,.103-.051,.103-.104l.008-1.138c.027-.209,.12-.386,.279-.516,.158-.144,.345-.21,.566-.21h1.953c.206,0,.382,.069,.525,.219,.144,.14,.217,.311,.217,.507v1.138c0,.053,.027,.082,.082,.082h2.001c.207,0,.381,.076,.526,.215,.145,.15,.216,.322,.216,.527v1.467c0,.207-.072,.382-.216,.526-.145,.144-.32,.216-.526,.216h-2.001c-.055,0-.082,.028-.082,.082v3.305c0,.631,.133,1.1,.402,1.401,.269,.303,.635,.455,1.103,.455,.125,0,.254-.014,.392-.042,.192-.027,.375,.011,.547,.114,.171,.103,.278,.244,.32,.422l.289,1.279c.014,.068,.02,.131,.02,.186,0,.137-.041,.268-.123,.391-.097,.18-.247,.288-.454,.33-.661,.166-1.335,.247-2.023,.247Z"/></g></g><path class="cls-1" d="M46.739,21.567v4.771h-.71v-.35h-2.464v.361h-.682v-4.783h3.856Zm-3.174,1.858h2.464v-1.192h-2.464v1.192Zm2.464,.655h-2.464v1.242h2.464v-1.242Z"/><path class="cls-1" d="M49.06,24.574c-.055,.522-.171,1.076-.333,1.431-.116-.071-.36-.187-.505-.237,.162-.328,.25-.823,.295-1.288l.543,.095Zm4.267-2.912c-.2,.588-.51,1.06-.905,1.437,.332,.189,.716,.331,1.138,.421-.138,.129-.316,.378-.403,.534-.468-.129-.884-.31-1.239-.555-.377,.251-.804,.438-1.265,.583-.072-.151-.222-.394-.35-.533,.105,.24,.194,.477,.228,.655l-.467,.209c-.016-.082-.037-.177-.071-.281l-.283,.022v2.27h-.572v-2.23l-.804,.05-.056-.572,.4-.016c.082-.107,.171-.229,.261-.357-.16-.238-.427-.532-.654-.753l.315-.45c.039,.033,.084,.072,.128,.111,.155-.305,.311-.671,.405-.965l.572,.211c-.2,.376-.421,.804-.622,1.115,.072,.078,.133,.155,.188,.222,.189-.311,.366-.627,.495-.899l.537,.25c-.306,.482-.688,1.043-1.037,1.492l.533-.022c-.061-.141-.128-.278-.194-.4l.439-.184c.089,.156,.178,.332,.255,.511,.399-.107,.771-.261,1.104-.459-.261-.262-.477-.562-.655-.905l.356-.117h-.633v-.565h2.296l.118-.028,.443,.2Zm-3.139,2.773c.138,.317,.282,.722,.344,.999l-.488,.178c-.05-.277-.194-.705-.322-1.033l.467-.145Zm2.074,1.25h1.214v.577h-3.135v-.577h1.27v-.651h-.943v-.583h.943v-.659h.65v.659h.987v.583h-.987v.651Zm-.905-3.63c.134,.244,.316,.467,.532,.661,.217-.194,.4-.417,.544-.661h-1.076Z"/><path class="cls-1" d="M57.063,22.173c-.005,.011-.011,.016-.016,.028h1.114c.172,0,.356-.028,.483-.067l.566,.347c-.059,.106-.139,.262-.183,.4-.15,.494-.466,1.234-.965,1.854-.528,.643-1.199,1.153-2.242,1.565l-.655-.589c1.137-.339,1.753-.822,2.236-1.37,.377-.435,.699-1.099,.788-1.515h-1.559c-.372,.483-.854,.972-1.398,1.344l-.621-.461c.971-.594,1.453-1.311,1.73-1.787,.083-.139,.2-.393,.249-.584l.811,.268c-.128,.192-.272,.442-.338,.566"/><path class="cls-1" d="M61.609,22.011h3.051c.139,0,.349,0,.549-.011-.01,.166-.01,.371-.01,.539v2.717c0,.216,.01,.748,.01,.77h-.764c0-.011,.006-.139,.006-.299h-2.676c.006,.155,.006,.282,.006,.299h-.766c0-.028,.018-.51,.018-.776v-2.712c0-.157,0-.384-.011-.539,.226,.006,.438,.011,.589,.011m.165,3.007h2.68v-2.301h-2.68v2.301Z"/><path class="cls-1" d="M70.853,22.516c-.189,.432-.5,1.027-.871,1.525,.549,.477,1.221,1.188,1.548,1.587l-.632,.549c-.362-.498-.877-1.064-1.399-1.568-.587,.62-1.325,1.198-2.086,1.557l-.57-.599c.893-.332,1.753-1.01,2.273-1.591,.367-.416,.706-.967,.828-1.36h-1.881c-.233,0-.537,.033-.654,.039v-.788c.149,.022,.488,.038,.654,.038h1.959c.239,0,.46-.033,.572-.072l.455,.34c-.045,.061-.144,.232-.194,.343"/><path class="cls-1" d="M73.524,23.132h3.634c.116,0,.361-.012,.505-.033v.721c-.138-.011-.35-.017-.505-.017h-1.337c-.033,.57-.156,1.037-.355,1.426-.194,.383-.621,.815-1.115,1.065l-.65-.471c.394-.15,.783-.471,1.006-.795,.227-.344,.32-.758,.343-1.226h-1.526c-.166,0-.377,.012-.532,.023v-.727c.166,.017,.359,.033,.532,.033m.705-1.414h2.23c.188,0,.411-.011,.599-.039v.716c-.188-.012-.405-.023-.599-.023h-2.224c-.194,0-.428,.011-.6,.023v-.716c.184,.029,.411,.039,.594,.039"/><path class="cls-1" d="M80.649,24.197l-.676,.254c-.095-.299-.372-1.038-.506-1.28l.666-.241c.138,.285,.405,.954,.515,1.267m2.686-.75c-.145,.562-.377,1.138-.755,1.625-.515,.667-1.21,1.133-1.858,1.377l-.582-.592c.61-.161,1.382-.582,1.841-1.16,.378-.472,.644-1.211,.71-1.905l.777,.25c-.066,.178-.1,.295-.132,.404m-1.459,.407l-.666,.233c-.067-.271-.311-.943-.45-1.234l.661-.214c.105,.238,.377,.96,.455,1.215"/><path class="cls-1" d="M87.558,22.173c-.005,.011-.01,.016-.016,.028h1.116c.172,0,.355-.028,.482-.067l.565,.347c-.061,.106-.138,.262-.183,.4-.148,.494-.466,1.234-.963,1.854-.527,.643-1.199,1.153-2.242,1.565l-.655-.589c1.138-.339,1.754-.822,2.235-1.37,.378-.435,.7-1.099,.788-1.515h-1.559c-.372,.483-.854,.972-1.398,1.344l-.622-.461c.97-.594,1.454-1.311,1.732-1.787,.083-.139,.199-.393,.251-.584l.808,.268c-.126,.192-.271,.442-.338,.566"/></g></g></g></svg>