<svg id="レイヤー_1" data-name="レイヤー 1" xmlns="http://www.w3.org/2000/svg" xmlns:xlink="http://www.w3.org/1999/xlink" viewBox="0 0 664 2566"><defs><style>.cls-1,.cls-10,.cls-11,.cls-12,.cls-4{fill:none;}.cls-2{clip-path:url(#clip-path);}.cls-3{fill:#696969;}.cls-4{stroke:#f94a19;}.cls-10,.cls-11,.cls-12,.cls-4{stroke-miterlimit:10;}.cls-5{fill:#eaeaea;}.cls-6{clip-path:url(#clip-path-2);}.cls-7{fill:#ddd;}.cls-8{fill:#e3e3e3;}.cls-9{fill:#efefef;}.cls-10{stroke:#ff0;}.cls-11{stroke:#4affcf;}.cls-12{stroke:#fa46a1;}</style><clipPath id="clip-path"><rect class="cls-1" width="664" height="2566" rx="10" ry="10"/></clipPath><clipPath id="clip-path-2"><rect class="cls-1" width="664" height="2566"/></clipPath></defs><title>section_bgA</title><g class="cls-2"><path class="cls-3" d="M576.62,360.47a14.6,14.6,0,0,1-13,9.53h-25c-5.5,0-8.64-4.29-7-9.53L676.38-93.47a14.6,14.6,0,0,1,13-9.53h25c5.5,0,8.64,4.29,7,9.53Z"/><line class="cls-4" x1="581.09" y1="152.17" x2="731.91" y2="-320.83"/></g><rect class="cls-5" width="664" height="2566"/><g class="cls-6"><polygon class="cls-7" points="558.59 363 529.59 363 680.41 -110 709.41 -110 558.59 363"/><polygon class="cls-8" points="39.59 2409.96 10.59 2409.96 161.41 1936.96 190.41 1936.96 39.59 2409.96"/><polygon class="cls-9" points="484.58 1929.96 368.59 1929.96 519.41 1456.96 635.41 1456.96 484.58 1929.96"/><polygon class="cls-9" points="141.58 227.96 124.58 227.96 275.41 -245.04 292.41 -245.04 141.58 227.96"/><line class="cls-10" x1="26.59" y1="583.17" x2="102" y2="346.67"/><polygon class="cls-7" points="-38.41 996 -89.41 996 61.41 523 112.41 523 -38.41 996"/><line class="cls-11" x1="569.55" y1="1554.13" x2="720.38" y2="1081.13"/><line class="cls-12" x1="633.09" y1="207.17" x2="783.91" y2="-265.83"/></g></svg>