<svg xmlns="http://www.w3.org/2000/svg" width="560.06" height="70"><defs><style>.cls-2{fill:#fff}</style></defs><g id="レイヤー_2" data-name="レイヤー 2"><g id="レイヤー_1-2" data-name="レイヤー 1"><rect x=".03" width="560" height="70" rx="5" fill="#00b4dc"/><path class="cls-2" d="M550.03 35l-5.4-6.56v13.12l5.4-6.56zm-449.4-5.13l-1.13 3.48H95l6.84-18.91h4.82l6.84 18.91h-4.46L108 29.87zm6.34-3l-2.69-8.35-2.69 8.35zm19.17-12.43H130v18.91h-3.48l-.08-1.92a4.69 4.69 0 01-4.44 2.45c-4.8 0-6.46-3.82-6.46-7.44 0-4.16 2-7.4 6.2-7.4 3 0 4 1.49 4.41 2.19zm-6.45 12c0 2.09.72 4.25 3.19 4.25s3.21-2.16 3.21-4.25-.74-4.22-3.21-4.22-3.19 2.1-3.19 4.19zm22.6 6.91H138l-5.62-13.8h4.18l3.67 9 3.65-9H148zm18.58 0a3.46 3.46 0 01-.41-1.63c-.6.69-1.89 2.16-5.25 2.16-1.66 0-5.36-.27-5.36-4.37 0-3.43 3-3.84 6.46-4.32 3.36-.48 4.15-.58 4.15-1.73 0-1.56-1.54-1.63-2.52-1.63-3.57 0-3.6 1.17-3.6 1.85h-3.79a4.29 4.29 0 011.77-3.34c1.44-1 4.21-1.3 5.55-1.3 2.06 0 6.46.56 6.46 4.47v7.94A2.29 2.29 0 00165 33v.31zm-.41-6.6a7.37 7.37 0 01-2.73.69c-2.52.39-3.82.58-3.82 1.95 0 1.56 2.59 1.56 2.74 1.56a3.66 3.66 0 003.81-2.83zm10.82-7.2l.08 1.58A5.57 5.57 0 01176 19a5.32 5.32 0 015.47 5.6v8.71h-3.86v-8.1a2.93 2.93 0 00-3.14-3 2.89 2.89 0 00-3.12 3v8.14h-3.87v-13.8zM195 24.47c-.29-2.47-2.77-2.47-3.17-2.47-3.15 0-3.63 2.71-3.63 4.39 0 1.87.67 4.51 3.6 4.51s3.1-1.78 3.27-2.71h4.05c-.48 3.86-3.62 5.69-7.27 5.69-4.32 0-7.68-2.5-7.68-7.35s3.7-7.53 7.73-7.53c3.7 0 6.43 1.76 7.06 5.43zm10.24 2.81c.1 2.3 1.28 3.72 3.63 3.72s2.93-1.23 3.19-1.78H216a5.26 5.26 0 01-1.28 2.33 7.72 7.72 0 01-5.85 2.33c-4.37 0-7.54-2.62-7.54-7.42 0-5.28 3.77-7.42 7.35-7.42a7.22 7.22 0 016 2.84 9.53 9.53 0 011.6 5.4zm7.11-2.45c-.91-2.91-3.1-2.91-3.6-2.91a3.51 3.51 0 00-3.46 2.91zm26.11-4.73l-2.26 13.25h-4.89L227 14.44h4.3l2.69 14 2.35-14h4.32l2.35 14 2.69-14h4.3l-4.35 18.91h-4.9zm17.37 7.18c.1 2.3 1.28 3.72 3.63 3.72s2.93-1.23 3.19-1.78h3.94a5.33 5.33 0 01-1.27 2.33 7.75 7.75 0 01-5.86 2.33c-4.37 0-7.54-2.62-7.54-7.42 0-5.28 3.77-7.42 7.35-7.42a7.21 7.21 0 016 2.84 9.63 9.63 0 011.61 5.4zm7.11-2.45c-.91-2.91-3.1-2.91-3.6-2.91a3.51 3.51 0 00-3.46 2.91zm10.49-3.6c.43-.7 1.36-2.19 4.41-2.19 4.15 0 6.19 3.24 6.19 7.4 0 3.62-1.65 7.44-6.45 7.44a4.64 4.64 0 01-4.44-2.45l-.07 1.92h-3.51V14.44h3.87zm0 5.18c0 2.09.72 4.25 3.22 4.25s3.19-2.16 3.19-4.25-.72-4.22-3.19-4.22-3.18 2.09-3.18 4.22zm39.12 4.08c0 2.07.38 2.28.74 2.48v.38h-4.56a5.94 5.94 0 01-.48-2.42V29c0-2.83-2.42-2.83-3.1-2.83h-5v7.2h-4.32V14.44H306c4.83 0 6.7 2.47 6.7 5.13a5.27 5.27 0 01-1.23 3.34 5.41 5.41 0 01-2.59 1.53 3.68 3.68 0 013.63 4zm-12.39-7.56h5.4a2.68 2.68 0 002.88-2.59 2.54 2.54 0 00-2.76-2.52h-5.52zm18.99 4.35c.09 2.3 1.27 3.72 3.62 3.72s2.93-1.23 3.19-1.78h3.94a5.33 5.33 0 01-1.27 2.33 7.75 7.75 0 01-5.86 2.33c-4.37 0-7.54-2.62-7.54-7.42 0-5.28 3.77-7.42 7.35-7.42a7.21 7.21 0 016 2.84 9.63 9.63 0 011.61 5.4zm7.1-2.45c-.91-2.91-3.1-2.91-3.6-2.91a3.51 3.51 0 00-3.46 2.91zm21.29-2.33a3.08 3.08 0 00-1.25-.34c-.14 0-.26 0-.58.05.05 1.3.2 4.73-6 4.73a13.54 13.54 0 01-2.88-.26.5.5 0 00-.33.48c0 .28.29.41.41.45a56.74 56.74 0 006.19.65c.65.07 4.25.46 4.25 3.87a4 4 0 01-2.19 3.5c-1.29.77-4.53.94-5.73.94-1.92 0-7-.27-7-4.09a3.17 3.17 0 011.9-3 1.83 1.83 0 01-1.15-1.68c0-1.2 1.08-1.68 1.65-2a3.37 3.37 0 01-1.39-2.81c0-4 5-4 6.15-4a8.53 8.53 0 014.51.89 3.92 3.92 0 012.49-.89 6.3 6.3 0 011 .08zm-11.11 9.58c0 1.87 3 1.87 3.74 1.87 1.06 0 3.14-.12 3.14-1.71 0-.91-.74-1.24-1.34-1.36a35.84 35.84 0 00-4.54-.27 1.75 1.75 0 00-1 1.47zm.91-9c0 1 .93 1.63 2.21 1.63s2.25-.72 2.25-1.7-.91-1.61-2.21-1.61c-1.72-.05-2.25.84-2.25 1.6zm17.2-5.26h-3.93v-3.38h3.93zm0 15.53h-3.93v-13.8h3.93zM367 23.34c0-1.25-1.12-1.68-2.44-1.68-.65 0-2.21.12-2.21 1.3 0 1 1.17 1.32 1.46 1.39 5.33 1.32 7.54 1.87 7.54 4.89 0 2.79-2.5 4.64-6.65 4.64a9.16 9.16 0 01-4.46-1 4.41 4.41 0 01-2.36-3.79h4c.16 1.87 1.46 2.16 3 2.16 2 0 2.4-1 2.4-1.51 0-1.08-1.08-1.33-2-1.57-4.8-1.17-6.94-1.68-6.94-4.75 0-4.37 5.4-4.37 6.27-4.37a8 8 0 015.13 1.59 3.67 3.67 0 011.26 2.7zm13-1.42v7.25c0 1.37.82 1.56 1.92 1.56H383v3c-.81.07-1.51.12-2.25.12-2.91 0-4.76-1.32-4.76-4v-7.93h-2.54v-2.37H376v-3.87h4v3.87h3v2.37zm9.08-2.37l.07 2.52c.39-.87 1.35-3 5.28-3h1.39v4h-1.56c-1.87 0-4.84.77-4.84 4.15v6.17h-3.87V19.55zm19.7 13.8a3.33 3.33 0 01-.4-1.63c-.6.69-1.9 2.16-5.26 2.16-1.66 0-5.35-.27-5.35-4.37 0-3.43 3-3.84 6.45-4.32s4.16-.58 4.16-1.73c0-1.56-1.54-1.63-2.52-1.63-3.58 0-3.6 1.17-3.6 1.85h-3.8a4.28 4.28 0 011.78-3.34c1.44-1 4.2-1.3 5.54-1.3 2.07 0 6.46.56 6.46 4.47v7.94a2.29 2.29 0 00.67 1.59v.31zm-.4-6.6a7.51 7.51 0 01-2.74.69c-2.52.39-3.82.58-3.82 1.95 0 1.56 2.6 1.56 2.74 1.56a3.68 3.68 0 003.82-2.83zm12.84-4.83v7.25c0 1.37.81 1.56 1.92 1.56h1.15v3c-.82.07-1.51.12-2.26.12-2.9 0-4.75-1.32-4.75-4v-7.93h-2.54v-2.37h2.54v-3.87h3.94v3.87h3.07v2.37zm10.08-4.1h-3.94v-3.38h3.94zm0 15.53h-3.94v-13.8h3.94zm3.28-6.89c0-5.23 3.67-7.42 7.49-7.42s7.47 2.19 7.47 7.42-3.68 7.42-7.47 7.42-7.49-2.21-7.49-7.42zm7.49-4.46c-2 0-3.46 1.6-3.46 4.53 0 2.21 1.06 4.37 3.46 4.37 2.23 0 3.43-1.92 3.43-4.44S444.3 22 442.07 22zM456 19.55l.08 1.58a5.57 5.57 0 014.66-2.13 5.33 5.33 0 015.48 5.6v8.71h-3.87v-8.1a2.93 2.93 0 00-3.14-3 2.89 2.89 0 00-3.12 3v8.14h-3.87v-13.8zM160.8 46.88a4 4 0 00-4.38-3.88 4.37 4.37 0 00-3.83 1.62 8.11 8.11 0 00-1.44 5c0 1.45.31 4.1 2.12 5.5a5 5 0 003 .84c2.35 0 4.24-.92 4.53-4.17h2.69c-.52 3.36-2.29 6.44-7 6.44-4 0-5.42-1.66-6-2.29a9.47 9.47 0 01-2.1-6.32c0-3.08 1.15-8.86 8-8.86 3.56 0 6.36 1.77 7 6.18zm9.01-5.72v16.55h-2.39V41.16zm7.5 2.65h-2.58v-2.65h2.58zm-.11 13.9h-2.39V45.64h2.39zm16.47-4.47c-.26 3-2.29 4.93-6.2 4.93-6 0-6.55-4.53-6.55-6.4 0-3.38 1.76-6.57 6.49-6.57 1.32 0 5.69.29 6.15 4.78H191c-.13-2.29-2.1-2.85-3.51-2.85-3.61 0-4.11 2.89-4.11 4.51s.5 4.6 4 4.6c1.43 0 3.48-.4 3.67-3zM199 41.16v10.08l6.41-5.6h3.13l-4.73 4.15 5.27 7.92h-2.94l-4-6.4L199 54v3.7h-2.39V41.16zm23 6.11a5.05 5.05 0 014.33-2.07 4.66 4.66 0 014.93 4.64v7.87h-2.39v-7.62a3 3 0 00-3.21-3 3.44 3.44 0 00-3.66 3.27v7.35h-2.39V41.16H222zM246.73 54c-.92 3.87-4.74 4.16-6.21 4.16-4.18 0-6.34-2.66-6.34-6.49 0-5 3.42-6.48 6.3-6.48a6.23 6.23 0 015.12 2.33 6.91 6.91 0 011.32 4.68h-10.29c.13 2.79 1.6 4 4 4a4.54 4.54 0 002.88-.92 2.17 2.17 0 00.73-1.31zm-2.29-3.5a3.74 3.74 0 00-3.92-3.38c-1.28 0-3.3.42-3.87 3.38zm7.82-4.86v1.68c.9-1.66 2.62-2.12 4.35-2.12h1.84v2.37h-1.95a5.4 5.4 0 00-2.81.69 3.49 3.49 0 00-1.43 2.81v6.64h-2.4V45.64zM273.17 54c-.92 3.87-4.74 4.16-6.21 4.16-4.18 0-6.34-2.66-6.34-6.49 0-5 3.42-6.48 6.29-6.48a6.23 6.23 0 015.09 2.34 6.91 6.91 0 011.32 4.68h-10.25c.13 2.79 1.6 4 4 4a4.55 4.55 0 002.88-.92 2.17 2.17 0 00.73-1.31zm-2.29-3.5a3.74 3.74 0 00-3.88-3.37c-1.28 0-3.3.42-3.87 3.38zm17.41-8.22v3.36h3.11v1.76h-3.11v7.41c0 1.35.88 1.35 2.19 1.35h.92v2c-.32 0-.71.06-1.55.06-1.33 0-4 0-4-3.19V47.4h-2.52v-1.76h2.52v-3.36zm18.1 9.4c0 4.79-3.34 6.49-6.36 6.49s-6.38-1.7-6.38-6.49S297 45.2 300 45.2s6.39 1.72 6.39 6.48zm-10.24 0c0 2.17 1.21 4.56 3.88 4.56s3.86-2.44 3.86-4.56-1.17-4.55-3.86-4.55-3.88 2.41-3.88 4.55zm23.35-6.04v1.68c.9-1.66 2.62-2.12 4.35-2.12h1.84v2.37h-2a5.42 5.42 0 00-2.81.69 3.52 3.52 0 00-1.43 2.81v6.64h-2.39V45.64zM340.41 54c-.92 3.87-4.74 4.16-6.21 4.16-4.18 0-6.34-2.66-6.34-6.49 0-5 3.42-6.48 6.29-6.48a6.23 6.23 0 015.13 2.33 6.91 6.91 0 011.32 4.68h-10.29c.13 2.79 1.6 4 4 4a4.54 4.54 0 002.88-.92 2.17 2.17 0 00.73-1.31zm-2.29-3.5a3.74 3.74 0 00-3.92-3.38c-1.28 0-3.3.42-3.87 3.38zM356 47.32a2 2 0 00-.78-.17 1.41 1.41 0 00-1.09.36 2.93 2.93 0 01.16 1c0 3.42-4.05 3.42-5.06 3.42a15.1 15.1 0 01-2.66-.23c-.34.15-.72.38-.72.74 0 .54.68.73 3.47.9 3.08.19 4.37.38 5.23 1a3 3 0 011.23 2.46c0 3.69-5.14 3.73-6.31 3.73-5 0-6.51-1.3-6.51-3.44a2.84 2.84 0 011.87-2.77c-.51-.28-1.22-.65-1.22-1.54 0-.56.31-1.11 1.57-1.65a2.88 2.88 0 01-1.41-2.54c0-3.38 4.2-3.38 5.3-3.38 2.58 0 3.48.56 4.05.92a2.54 2.54 0 012.16-1 2.94 2.94 0 01.72.09zm-10.55 9.45c0 1.53 1.45 2 4 2 1.68 0 3.8-.17 3.8-1.89a1.61 1.61 0 00-1.54-1.55 40.52 40.52 0 00-4.66-.38c-.63.26-1.56.62-1.56 1.82zm.82-8.21c0 1.55 1.81 1.74 2.78 1.74s2.75-.25 2.75-1.77c0-1.67-2-1.74-2.73-1.74s-2.76 0-2.76 1.77zM362 43.81h-2.58v-2.65H362zm-.11 13.9h-2.39V45.64h2.39zm6.24-3.71c.07 1.2.68 2.21 3.28 2.21 1.53 0 3.17-.31 3.17-1.68 0-1.2-.8-1.49-3.65-2.06-3.6-.73-5-1.57-5-3.67 0-3.4 4.18-3.63 5.38-3.63 4.89 0 5.31 2.77 5.47 3.78h-2.47c0-1.41-1.2-1.85-2.88-1.85s-3 .23-3 1.47c0 1 .44 1.28 3.8 2 3.15.72 4.79 1.43 4.79 3.68 0 3-3.09 3.86-5.63 3.86-5.16 0-5.63-2.94-5.82-4.14zm16.19-11.72v3.36h3.11v1.76h-3.11v7.41c0 1.35.88 1.35 2.19 1.35h.92v2c-.32 0-.71.06-1.55.06-1.33 0-3.95 0-3.95-3.19V47.4h-2.52v-1.76h2.52v-3.36zM402.23 54c-.92 3.87-4.74 4.16-6.21 4.16-4.18 0-6.34-2.66-6.34-6.49 0-5 3.42-6.48 6.3-6.48a6.23 6.23 0 015.12 2.33 6.91 6.91 0 011.32 4.68h-10.29c.13 2.79 1.6 4 4 4a4.52 4.52 0 002.88-.92 2.17 2.17 0 00.73-1.31zm-2.29-3.5a3.74 3.74 0 00-3.94-3.37c-1.28 0-3.3.42-3.87 3.38zm7.82-4.86v1.68c.9-1.66 2.62-2.12 4.35-2.12H414v2.37h-2a5.42 5.42 0 00-2.81.69 3.52 3.52 0 00-1.43 2.81v6.64h-2.39V45.64z"/><path fill="#282828" opacity=".8" d="M0 0h560.06v70H0z"/><path class="cls-2" d="M49.47 27.56h10.27c3.82 0 7.32 2.2 7.32 6.6 0 3.47-2.42 6.42-7.32 6.42H54v6.67h-4.5zM54 37h5.27c1.68 0 3.2-.9 3.2-3a2.88 2.88 0 00-3.2-2.92H54zm19.87-4.12l.07 2.62c.4-.89 1.4-3.14 5.5-3.14h1.45v4.14h-1.62c-2 0-5 .8-5 4.33v6.42h-4V32.88zM87 40.93c.1 2.4 1.33 3.87 3.78 3.87s3-1.27 3.32-1.85h4.1a5.47 5.47 0 01-1.32 2.43 8 8 0 01-6.1 2.42c-4.55 0-7.85-2.72-7.85-7.72 0-5.5 3.92-7.72 7.65-7.72a7.56 7.56 0 016.25 2.94 9.93 9.93 0 011.67 5.63zm7.4-2.55c-1-3-3.22-3-3.75-3a3.65 3.65 0 00-3.6 3zM108.29 42H101v-3.8h7.3zm15.5-9.12l2.9 9.57 2.07-9.57h4.33l-4.23 14.37h-4l-3-9.62-3 9.62h-4l-4.43-14.37h4.35l2.35 9.57 2.8-9.57zm15.43 8.05c.1 2.4 1.32 3.87 3.77 3.87s3-1.27 3.33-1.85h4.09a5.47 5.47 0 01-1.32 2.43A8 8 0 01143 47.8c-4.55 0-7.85-2.72-7.85-7.72 0-5.5 3.93-7.72 7.65-7.72a7.52 7.52 0 016.2 2.94 9.93 9.93 0 011.67 5.63zm7.4-2.55c-1-3-3.23-3-3.75-3a3.64 3.64 0 00-3.6 3zm10.92-3.75c.45-.72 1.43-2.27 4.6-2.27 4.33 0 6.45 3.37 6.45 7.69 0 3.78-1.73 7.75-6.72 7.75a4.85 4.85 0 01-4.63-2.55l-.07 2h-3.65V27.56h4zm.05 5.4c0 2.17.75 4.42 3.35 4.42s3.33-2.25 3.33-4.42-.75-4.4-3.33-4.4-3.35 2.17-3.35 4.37zm26.58-7.15l.07 2.62c.4-.89 1.4-3.14 5.5-3.14h1.45v4.14h-1.62c-1.95 0-5 .8-5 4.33v6.42h-4V32.88zm13.12 8.05c.1 2.4 1.33 3.87 3.78 3.87s3.05-1.27 3.32-1.85h4.1a5.47 5.47 0 01-1.32 2.43 8 8 0 01-6.1 2.42c-4.55 0-7.85-2.72-7.85-7.72 0-5.5 3.92-7.72 7.65-7.72a7.56 7.56 0 016.25 2.94 9.93 9.93 0 011.67 5.63zm7.4-2.55c-.95-3-3.22-3-3.75-3a3.65 3.65 0 00-3.6 3zM226.86 36a3 3 0 00-1.3-.36h-.59c0 1.35.2 4.93-6.25 4.93a13.36 13.36 0 01-3-.28.53.53 0 00-.35.5c0 .3.3.43.42.48a59.32 59.32 0 006.45.67c.68.08 4.42.48 4.42 4a4.16 4.16 0 01-2.27 3.65c-1.35.8-4.72 1-6 1-2 0-7.33-.27-7.33-4.25a3.3 3.3 0 012-3.1 1.89 1.89 0 01-1.2-1.75c0-1.25 1.12-1.75 1.72-2a3.5 3.5 0 01-1.45-2.92c0-4.17 5.15-4.17 6.4-4.17a8.88 8.88 0 014.7.92 4.11 4.11 0 012.6-.92 6.72 6.72 0 011 .07zm-11.57 10c0 2 3.18 2 3.9 2 1.1 0 3.28-.13 3.28-1.78a1.48 1.48 0 00-1.4-1.42 35.05 35.05 0 00-4.73-.28 1.83 1.83 0 00-1.05 1.41zm1-9.43c0 1.08 1 1.7 2.3 1.7s2.35-.75 2.35-1.77-.95-1.68-2.3-1.68c-1.85-.07-2.4.86-2.4 1.68zm17.88-5.49h-4.1v-3.52h4.1zm0 16.17h-4.1V32.88h4.1zm13-10.42c0-1.3-1.18-1.75-2.55-1.75-.68 0-2.3.13-2.3 1.35s1.22 1.37 1.52 1.45c5.55 1.37 7.85 1.95 7.85 5.1 0 2.9-2.6 4.82-6.92 4.82a9.56 9.56 0 01-4.65-1 4.55 4.55 0 01-2.45-4h4.2c.17 2 1.52 2.25 3.12 2.25 2.1 0 2.5-1 2.5-1.57 0-1.13-1.12-1.38-2.1-1.63-5-1.22-7.22-1.75-7.22-5 0-4.54 5.62-4.54 6.52-4.54.75 0 3.53 0 5.35 1.64a3.78 3.78 0 011.27 2.83zm13.47-1.48v7.55c0 1.43.85 1.63 2 1.63h1.2v3.15c-.85.07-1.57.12-2.35.12-3 0-4.95-1.37-4.95-4.2v-8.25h-2.65v-2.47h2.65v-4h4.1v4h3.2v2.47zm9.5-2.47l.08 2.62c.4-.89 1.4-3.14 5.5-3.14h1.45v4.14h-1.63c-2 0-5.05.8-5.05 4.33v6.42h-4V32.88zm20.53 14.37a3.39 3.39 0 01-.43-1.7c-.62.73-2 2.25-5.47 2.25-1.73 0-5.58-.27-5.58-4.55 0-3.57 3.08-4 6.73-4.5 3.5-.5 4.32-.6 4.32-1.8 0-1.62-1.6-1.7-2.62-1.7-3.73 0-3.75 1.23-3.75 1.93h-3.95a4.42 4.42 0 011.85-3.47c1.5-1.05 4.37-1.35 5.77-1.35 2.15 0 6.72.57 6.72 4.64v8.28a2.37 2.37 0 00.7 1.65v.32zm-.43-6.87a7.81 7.81 0 01-2.85.72c-2.62.4-4 .6-4 2 0 1.62 2.7 1.62 2.85 1.62a3.81 3.81 0 004-3zm13.38-5.03v7.55c0 1.43.85 1.63 2 1.63h1.2v3.15c-.85.07-1.58.12-2.35.12-3 0-5-1.37-5-4.2v-8.25h-2.65v-2.47h2.65v-4h4.1v4h3.2v2.47zm10.5-4.27H310v-3.52h4.1zm0 16.17H310V32.88h4.1zm3.42-7.17c0-5.45 3.83-7.72 7.8-7.72s7.77 2.27 7.77 7.72-3.82 7.72-7.77 7.72-7.8-2.3-7.8-7.72zm7.8-4.65c-2.1 0-3.6 1.67-3.6 4.72 0 2.3 1.1 4.55 3.6 4.55 2.33 0 3.58-2 3.58-4.62s-1.25-4.65-3.58-4.65zm14.53-2.55l.07 1.65a5.82 5.82 0 014.85-2.17 5.55 5.55 0 015.7 5.82v9.07h-4v-8.47a3.07 3.07 0 00-3.28-3.15 3 3 0 00-3.25 3.15v8.47h-4V32.88zm27.02-5.32v7a5.82 5.82 0 014.85-2.17 5.54 5.54 0 015.7 5.82v9.07h-4v-8.5a3.06 3.06 0 00-3.28-3.15 3 3 0 00-3.25 3.15v8.47h-4V27.56zm24.83 19.69a3.39 3.39 0 01-.43-1.7c-.62.73-2 2.25-5.47 2.25-1.73 0-5.58-.27-5.58-4.55 0-3.57 3.08-4 6.73-4.5 3.5-.5 4.32-.6 4.32-1.8 0-1.62-1.6-1.7-2.62-1.7-3.73 0-3.75 1.23-3.75 1.93H381a4.42 4.42 0 011.85-3.47c1.5-1.05 4.37-1.35 5.77-1.35 2.15 0 6.72.57 6.72 4.64v8.28a2.37 2.37 0 00.7 1.65v.32zm-.43-6.87a7.81 7.81 0 01-2.85.72c-2.62.4-4 .6-4 2 0 1.62 2.7 1.62 2.85 1.62a3.81 3.81 0 004-3zm16.4-3.55c-.05-1.3-1.17-1.75-2.55-1.75-.67 0-2.3.13-2.3 1.35s1.23 1.37 1.53 1.45c5.55 1.37 7.84 1.95 7.84 5.1 0 2.9-2.59 4.82-6.92 4.82a9.59 9.59 0 01-4.65-1 4.59 4.59 0 01-2.45-4h4.2c.18 2 1.53 2.25 3.13 2.25 2.1 0 2.5-1 2.5-1.57 0-1.13-1.13-1.38-2.1-1.63-5-1.22-7.23-1.75-7.23-5 0-4.54 5.63-4.54 6.53-4.54.75 0 3.52 0 5.34 1.64a3.82 3.82 0 011.28 2.83zm20.08 4.1c.1 2.4 1.32 3.87 3.77 3.87s3-1.27 3.33-1.85H439a5.47 5.47 0 01-1.32 2.43 8 8 0 01-6.1 2.42c-4.55 0-7.85-2.72-7.85-7.72 0-5.5 3.93-7.72 7.65-7.72a7.54 7.54 0 016.25 2.94 9.93 9.93 0 011.67 5.63zm7.4-2.55c-.95-3-3.23-3-3.75-3a3.64 3.64 0 00-3.6 3zm10.83-5.5l.07 1.65a5.82 5.82 0 014.85-2.17 5.54 5.54 0 015.7 5.82v9.07h-4v-8.47a3.06 3.06 0 00-3.28-3.15 3 3 0 00-3.25 3.15v8.47h-4V32.88zm24.49-5.32h4v19.69h-3.62l-.07-2a4.9 4.9 0 01-4.65 2.55c-5 0-6.73-4-6.73-7.75 0-4.32 2.13-7.69 6.45-7.69 3.18 0 4.15 1.55 4.6 2.27zM463.77 40c0 2.17.75 4.42 3.32 4.42s3.35-2.25 3.35-4.42-.77-4.4-3.35-4.4-3.32 2.25-3.32 4.4zm17.62.93c.1 2.4 1.33 3.87 3.78 3.87s3.05-1.27 3.32-1.85h4.1a5.49 5.49 0 01-1.33 2.43 8 8 0 01-6.09 2.42c-4.55 0-7.85-2.72-7.85-7.72 0-5.5 3.92-7.72 7.65-7.72a7.56 7.56 0 016.25 2.94 10 10 0 011.67 5.63zm7.4-2.55c-1-3-3.22-3-3.75-3a3.65 3.65 0 00-3.6 3zm17.45-10.82h4v19.69h-3.62l-.07-2a4.9 4.9 0 01-4.65 2.55c-5 0-6.73-4-6.73-7.75 0-4.32 2.13-7.69 6.45-7.69 3.18 0 4.15 1.55 4.6 2.27zM499.52 40c0 2.17.75 4.42 3.32 4.42s3.35-2.25 3.35-4.42-.77-4.4-3.35-4.4-3.32 2.25-3.32 4.4z"/></g></g></svg>