<svg width="31" height="51" viewBox="0 0 31 51" fill="none" xmlns="http://www.w3.org/2000/svg">
<path d="M25.3895 0.152344H5.61049C3.00145 0.152344 0.886719 2.29111 0.886719 4.92981V45.732C0.886719 48.3706 3.00145 50.5094 5.61049 50.5094H25.3895C27.9985 50.5094 30.1133 48.3706 30.1133 45.732V4.92981C30.1133 2.29111 27.9985 0.152344 25.3895 0.152344ZM26.8397 45.732C26.8397 46.5398 26.1882 47.1986 25.3895 47.1986H5.61049C4.81174 47.1986 4.1603 46.5398 4.1603 45.732V4.92981C4.1603 4.12198 4.81174 3.46313 5.61049 3.46313H11.9416V3.62536C11.9416 4.59873 12.7207 5.3867 13.6832 5.3867H17.3135C18.276 5.3867 19.0551 4.59873 19.0551 3.62536V3.46313H25.3862C26.185 3.46313 26.8364 4.12198 26.8364 4.92981V45.732H26.8397Z" fill="white"/>
<path d="M19.6607 41.5074H11.3425C10.6551 41.5074 10.0953 42.0768 10.0953 42.7688C10.0953 43.4608 10.6583 44.0302 11.3425 44.0302H19.6607C20.3482 44.0302 20.9079 43.4608 20.9079 42.7688C20.9079 42.0768 20.3449 41.5074 19.6607 41.5074Z" fill="white"/>
</svg>
