<svg width="44" height="63" viewBox="0 0 44 63" fill="none" xmlns="http://www.w3.org/2000/svg">
<circle cx="22" cy="22" r="21" fill="black" fill-opacity="0.8"/>
<circle cx="22" cy="22" r="21" fill="url(#paint0_linear_733_6341)" fill-opacity="0.3"/>
<circle cx="22" cy="22" r="21" stroke="url(#paint1_linear_733_6341)" stroke-width="2"/>
<circle cx="22" cy="22" r="21" stroke="#57E4EF" stroke-width="2"/>
<path d="M8.93471 54.86H6.92471C6.72971 53.885 6.15971 53.285 5.13971 53.285C3.92471 53.285 3.27971 54.11 3.27971 56.09V57.56C3.27971 59.48 3.92471 60.365 5.13971 60.365C6.18971 60.365 6.69971 59.84 6.92471 58.79H8.91971C8.57471 61.115 7.26971 62.135 5.13971 62.135C2.81471 62.135 1.17971 60.725 1.17971 57.56V56.09C1.17971 52.895 2.81471 51.515 5.13971 51.515C7.19471 51.515 8.58971 52.595 8.93471 54.86ZM12.801 51.65V60.23H17.151V62H10.701V51.65H12.801ZM25.784 57.56C25.784 60.725 24.149 62.135 21.809 62.135C19.484 62.135 17.849 60.725 17.849 57.56V56.09C17.849 52.895 19.484 51.515 21.809 51.515C24.149 51.515 25.784 52.895 25.784 56.09V57.56ZM19.949 56.09V57.56C19.949 59.54 20.594 60.365 21.809 60.365C23.024 60.365 23.684 59.54 23.684 57.56V56.09C23.684 54.11 23.024 53.285 21.809 53.285C20.594 53.285 19.949 54.11 19.949 56.09ZM34.6672 53.21L33.0922 54.335C32.6422 53.63 32.1022 53.285 31.0522 53.285C30.1072 53.285 29.5972 53.72 29.5972 54.425C29.5972 55.235 30.2572 55.595 31.6372 55.94C33.7972 56.48 34.7722 57.29 34.7722 59.12C34.7722 60.815 33.6322 62.135 31.2022 62.135C29.3872 62.135 28.1272 61.64 27.2122 60.44L28.8172 59.33C29.3722 60.02 30.0022 60.365 31.0672 60.365C32.2672 60.365 32.6722 59.84 32.6722 59.21C32.6722 58.49 32.2372 58.085 30.5572 57.65C28.5172 57.11 27.4972 56.135 27.4972 54.425C27.4972 52.79 28.5772 51.515 31.0372 51.515C32.6872 51.515 33.9322 52.07 34.6672 53.21ZM36.6351 51.65H43.0851V53.435H38.7351V55.76H42.6351V57.53H38.7351V60.23H43.0851V62H36.6351V51.65Z" fill="#57E4EF"/>
<path d="M28.11 28.22L22 22.11L28.11 16M16 16L22.11 22.11L16 28.22" stroke="#57E4EF" stroke-width="2" stroke-miterlimit="10"/>
<path d="M28.11 28.22L22 22.11L28.11 16M16 16L22.11 22.11L16 28.22" stroke="url(#paint2_linear_733_6341)" stroke-width="2" stroke-miterlimit="10"/>
<path d="M28.11 28.22L22 22.11L28.11 16M16 16L22.11 22.11L16 28.22" stroke="#57E4EF" stroke-width="2" stroke-miterlimit="10"/>
<defs>
<linearGradient id="paint0_linear_733_6341" x1="22" y1="0" x2="22" y2="44" gradientUnits="userSpaceOnUse">
<stop stop-opacity="0"/>
<stop offset="1" stop-color="#57E4EF"/>
</linearGradient>
<linearGradient id="paint1_linear_733_6341" x1="1.1" y1="3.08772" x2="43.8781" y2="4.13737" gradientUnits="userSpaceOnUse">
<stop stop-color="#FFC346"/>
<stop offset="1" stop-color="#E04D09"/>
</linearGradient>
<linearGradient id="paint2_linear_733_6341" x1="8.65555" y1="16.8575" x2="22.0701" y2="17.2293" gradientUnits="userSpaceOnUse">
<stop stop-color="#FFC346"/>
<stop offset="1" stop-color="#E04D09"/>
</linearGradient>
</defs>
</svg>
