<svg xmlns="http://www.w3.org/2000/svg" viewBox="0 0 587.61 23.45"><defs><style>.b4e3e0b8-dda0-4735-a487-d685b3ed4100{fill:#fff;}</style></defs><title>place_aomi</title><g id="fb0cd794-cd9f-43b5-a8a3-7bb23da61e9b" data-name="レイヤー 2"><g id="a045e2e4-f285-4056-ac3b-3e0ac5f37b03" data-name="編集モード"><path class="b4e3e0b8-dda0-4735-a487-d685b3ed4100" d="M16,2.71c-.86-1.49-2.27-1.49-3.13,0L1.56,22.29C.7,23.78,1.41,25,3.13,25H25.74c1.72,0,2.42-1.22,1.56-2.71ZM13.45,8.6a1.39,1.39,0,0,1,1.05-.43,1.07,1.07,0,0,1,1.05.55,3.63,3.63,0,0,1,.27,1.57v.4c0,.46-.16,1.84-.26,3.08s-.26,2.69-.34,3.21l-.14.29a.72.72,0,0,1-.69.43.7.7,0,0,1-.69-.42L13.57,17c-.08-.54-.21-2-.29-3.18s-.18-2.85-.23-3.66V9.79A1.65,1.65,0,0,1,13.45,8.6Zm2,13.07a1.41,1.41,0,0,1-1,.37,1.45,1.45,0,0,1-1-.37,1.25,1.25,0,0,1-.42-1,1.28,1.28,0,0,1,.4-1,1.31,1.31,0,0,1,1-.4,1.34,1.34,0,0,1,1,.4,1.28,1.28,0,0,1,.41,1A1.26,1.26,0,0,1,15.4,21.67Z" transform="translate(-1.2 -1.59)"/><path class="b4e3e0b8-dda0-4735-a487-d685b3ed4100" d="M577.13,2.71c-.86-1.49-2.27-1.49-3.13,0L562.7,22.29c-.86,1.49-.16,2.71,1.56,2.71h22.62c1.71,0,2.42-1.22,1.56-2.71ZM574.58,8.6a1.4,1.4,0,0,1,1-.43,1,1,0,0,1,1,.55,3.63,3.63,0,0,1,.27,1.57v.4c0,.46-.15,1.84-.26,3.08s-.26,2.69-.33,3.21l-.14.29a.74.74,0,0,1-.7.43.7.7,0,0,1-.69-.42l-.12-.28c-.08-.54-.22-2-.3-3.18s-.18-2.85-.23-3.66V9.79A1.69,1.69,0,0,1,574.58,8.6Zm2,13.07a1.46,1.46,0,0,1-1.94,0,1.25,1.25,0,0,1-.42-1,1.37,1.37,0,0,1,1.38-1.36,1.34,1.34,0,0,1,1,.4,1.39,1.39,0,0,1,0,2Z" transform="translate(-1.2 -1.59)"/><path class="b4e3e0b8-dda0-4735-a487-d685b3ed4100" d="M133.15,12.25H121.41V10.4A26.67,26.67,0,0,1,118,12.32c-.22-.43-.6-1.2-2.71-2.54,2.21-.94,7.08-3,10.17-7.75l3.77.52c.22,0,.46.12.46.41s-.19.29-.36.39c1.32,2,6.46,4.53,9.36,5.08a8.84,8.84,0,0,0-2,3.12,20.31,20.31,0,0,1-3.55-1.48Zm-14.62,5V14H134l1.51,1.36a41.44,41.44,0,0,1-5.8,9.53,9.43,9.43,0,0,0-3.61-1.75,22.5,22.5,0,0,0,4.33-5.83Zm12.72-8.21A17.06,17.06,0,0,1,127,5.67a37.2,37.2,0,0,1-3.74,3.39Z" transform="translate(-1.2 -1.59)"/><path class="b4e3e0b8-dda0-4735-a487-d685b3ed4100" d="M144.06,23.39v1.1h-3.5V3h20.88V24.49H158v-1.1Zm13.9-3V6.06h-13.9V20.39Zm-8.78-2.47v.88H145.6V7.88h10.8V18.8h-3.55v-.88Zm3.67-3.1V11h-3.67v3.79Z" transform="translate(-1.2 -1.59)"/><path class="b4e3e0b8-dda0-4735-a487-d685b3ed4100" d="M170.2,4.31c.19.07.31.16.31.33s-.45.34-.67.36a33.17,33.17,0,0,0-1.44,9.24,17.14,17.14,0,0,0,.17,2.4c.31-.45.81-1.22,1.13-1.7a10.26,10.26,0,0,0,1.72,2.38,10.65,10.65,0,0,0-2,5.88l-3.21.6a33.73,33.73,0,0,1-1.3-9.68,43,43,0,0,1,1.44-11Zm11.4-.53c.12,0,.31.05.31.26s-.33.36-.55.39a26.32,26.32,0,0,0-.24,2.88,21.76,21.76,0,0,0,3.55-.89V10c-.55.15-1.65.41-3.64.77a39.45,39.45,0,0,0,.38,5.52A13.57,13.57,0,0,1,186,18.8c-.38.7-1.1,2.26-1.63,3.39a8.54,8.54,0,0,0-2.57-1.83c-.1,3.08-3.17,3.44-4.68,3.44-3.6,0-5.4-2-5.4-4.2,0-2.86,2.83-3.94,5.95-3.87-.19-2.73-.21-3.05-.26-4.44-1.37.12-2.36.12-2.76.12a17.25,17.25,0,0,1-1.78-.07V7.57a25.61,25.61,0,0,0,4.51.17c0-1,0-3.12,0-4.68Zm-5,14.88c-.53,0-1.68.17-1.68.91s.8.89,1.56.89c.2,0,1.64,0,1.64-1.18a.63.63,0,0,0-.05-.31A3.43,3.43,0,0,0,176.63,18.66Z" transform="translate(-1.2 -1.59)"/><path class="b4e3e0b8-dda0-4735-a487-d685b3ed4100" d="M208.77,3.66V6.15h-7.92v.77h6.29V9.25h-6.29V10H210v2.54H188.1V10h9V9.25h-6.31V6.92h6.31V6.15h-8V3.66h8V2.31l3.68.12a.34.34,0,0,1,.38.32,1.13,1.13,0,0,1-.31.45v.46ZM194.46,21v3.48H191V13.33h16V22.4c0,.8,0,2.12-3.31,2.12a7.71,7.71,0,0,1-1.18-.08,6.42,6.42,0,0,0-.86-2.73,10.56,10.56,0,0,0,1.56.19c.38,0,.41-.17.38-.86Zm9.1-4.83v-.79h-9.1v.79Zm0,2.83V18.2h-9.1V19Z" transform="translate(-1.2 -1.59)"/><path class="b4e3e0b8-dda0-4735-a487-d685b3ed4100" d="M213,9.2a24.15,24.15,0,0,1,3.79,2.86,10.15,10.15,0,0,0-1.87,2.47,24.94,24.94,0,0,0-3.81-2.86Zm-1.77,13.47a27.42,27.42,0,0,0,3.84-7,17.8,17.8,0,0,0,2.52,1.9,42.37,42.37,0,0,1-3,6.14,1.41,1.41,0,0,1,.12.48c0,.15-.09.41-.31.41a.94.94,0,0,1-.48-.17Zm2.61-20.26a14.44,14.44,0,0,1,3.43,2.69,14.63,14.63,0,0,0-1.8,2.54,13.23,13.23,0,0,0-3.33-2.57ZM234,13v2.76h-1.35c0,.34,0,1.8-.07,2.09h1.27v2.85h-1.48c-.48,3.36-2.28,3.65-5.07,4a7,7,0,0,0-1.53-2.83c2.68,0,3,0,3.31-1.18H222c-.14.58-.26,1-.43,1.52a13.48,13.48,0,0,0-1.75-.46c-1.23-.17-1.37-.19-1.61-.24a19.93,19.93,0,0,0,1.37-5.76h-1.73V13h1.87V8.82c-.31.34-.48.5-.72.74A16.22,16.22,0,0,0,216.16,8a16,16,0,0,0,4.1-6l3.05.72c.24,0,.44.17.44.36s-.34.43-.6.46a4.53,4.53,0,0,1-.22.45h10.94V6.83h-12.6c-.48.67-.69.93-.93,1.25h12.33V13Zm-9.92,4.85a16.51,16.51,0,0,0,.32-2.09h-1.68c-.07.91-.1,1.15-.22,2.09Zm.51-4.85c0-.53.07-1,.1-1.92h-1.83v1.2c0,.22,0,.5,0,.72Zm4.78,4.85c0-.17,0-1.83,0-2.09h-1.87c-.07,1.2-.17,1.94-.19,2.09Zm0-4.85V11.1h-1.68c0,1.37,0,1.54,0,1.92Z" transform="translate(-1.2 -1.59)"/><path class="b4e3e0b8-dda0-4735-a487-d685b3ed4100" d="M257.42,18a.39.39,0,0,1,.21.34c0,.26-.24.29-.57.29a20.6,20.6,0,0,1-2,1.82,10.68,10.68,0,0,0,3.17,1.27,7.91,7.91,0,0,0-2,2.81,14.93,14.93,0,0,1-6-4.08,12,12,0,0,0-.28,2.3c-1.9.39-6.27,1.23-8.24,1.49-.09.19-.21.39-.43.39s-.31-.15-.36-.39l-.7-2.88c.48-.05,2.62-.38,3-.43V17.51h-2.49a20.63,20.63,0,0,1-2.14,6.62,9,9,0,0,0-3.07-1.37,14.58,14.58,0,0,0,1.77-4.89,36.55,36.55,0,0,0,.39-5.74V3h19.44V9.08h-16v3.7c0,.24,0,1.39-.09,1.85h2.64V13.16h-2V10.62h2V9.18l3.1.17c.21,0,.91.12.91.43,0,.12-.12.36-.75.43v.41h3.1V9.18l3.14.19c.15,0,.89.1.89.38s-.19.37-.79.46v.41h3.84v2.54h-3.84v1.47h4.46v2.88h-1ZM241.14,5.48V6.54H253.7V5.48Zm5.48,14.93c.67-.12,2.49-.45,3-.57A14.52,14.52,0,0,1,248,17.51h-1.39Zm.33-5.78h3.1V13.16H247Zm4.76,2.88a6.82,6.82,0,0,0,1,1.13c.64-.51,1.12-.94,1.32-1.13Z" transform="translate(-1.2 -1.59)"/><path class="b4e3e0b8-dda0-4735-a487-d685b3ed4100" d="M267.88,14.48a.43.43,0,0,1,.34.39c0,.31-.34.38-.7.45A29.63,29.63,0,0,1,263,22.84a9.85,9.85,0,0,0-3.36-1.78,23.19,23.19,0,0,0,4.85-7.56ZM273,21.42c0,1.82,0,3.34-5.72,3.12a6.9,6.9,0,0,0-1.24-3.82c.55.08,1.89.22,2.32.22s.87-.22.87-1.22v-7.4h-9.12V9H281.9v3.36H273ZM279.67,3V6.49H262.31V3Zm-3.05,10.18a32.58,32.58,0,0,1,5.66,7.37,11.9,11.9,0,0,0-3.19,2.18,29.92,29.92,0,0,0-5.33-7.61Z" transform="translate(-1.2 -1.59)"/><path class="b4e3e0b8-dda0-4735-a487-d685b3ed4100" d="M293.15,16.81V15.49a28.67,28.67,0,0,0-2.28,2.19,15.8,15.8,0,0,1-.62-1.52v8.19h-3.34V18.76a11.85,11.85,0,0,1-.86,1.56,15.65,15.65,0,0,0-2.76-2.07,23.4,23.4,0,0,0,3.33-8.33H284V6.85h2.93V2.51l3.34.16c.19,0,.5,0,.5.32s-.17.33-.5.52V6.85h2.13V4.62h5.19V2.46l3.26.19c.2,0,.41,0,.41.24s-.19.36-.53.55V4.62h5.16V7.47h-5.16v1h4.66v8.3H302a16,16,0,0,0,4.9,4.51,10,10,0,0,0-2.31,2.62,16.34,16.34,0,0,1-3.72-3.67v4.08h-3.26V19.74A21.29,21.29,0,0,1,293,23.87a18.47,18.47,0,0,0-2.47-2.45,17.16,17.16,0,0,0,5.61-4.61ZM290.22,10a25.09,25.09,0,0,0,2.93,5V8.51h4.42v-1h-5V9.92h-2.38Zm7.45,1.7V10.64h-1.49V11.7Zm-1.49,1.82v1.06h1.49V13.52Zm6.05-1.82V10.64h-1.52V11.7Zm-1.52,1.82v1.06h1.52V13.52Z" transform="translate(-1.2 -1.59)"/><path class="b4e3e0b8-dda0-4735-a487-d685b3ed4100" d="M329.51,6.85c-5.92-.1-11.06,5.23-11.06,9.12,0,2.79,3.53,4.15,6.79,4.23a31.82,31.82,0,0,0-1.8,4.36c-1.94-.52-8.83-2.44-8.83-8.18A11,11,0,0,1,319,8.12a67.37,67.37,0,0,0-9.93,1.51l-.55-4.51a78.07,78.07,0,0,0,10.68-.55,57.12,57.12,0,0,0,9.62-1.75Zm-4,3.41a14.53,14.53,0,0,1,2.23,2.57c-.67.48-1,.74-1.85,1.44a20.22,20.22,0,0,0-2.13-2.72Zm2.52-1.71a15.59,15.59,0,0,1,2.14,2.53c-.6.45-1,.81-1.76,1.48a17.48,17.48,0,0,0-2.13-2.71Z" transform="translate(-1.2 -1.59)"/><path class="b4e3e0b8-dda0-4735-a487-d685b3ed4100" d="M347,18.68v5.16h-3V18.68h-1.78a9.06,9.06,0,0,1-3.67,5.67,7,7,0,0,0-2.69-1.78V24.3h-3.43V2.94h10.05v8.35h-6.62V22.55c1.68-.94,2.83-1.85,3.31-3.87h-2.47V16h2.78c0-.43,0-1,0-1.42h-2.21V12.08h11.64V14.6H347V16h2.4v2.66ZM339.26,5.31h-3.41V6.2h3.41Zm0,2.72h-3.41v.91h3.41ZM344,14.6H342.5c0,.29,0,1.2-.05,1.42H344Zm5.13,9.8a8.26,8.26,0,0,0-1.27-3.51,6.7,6.7,0,0,0,1.39.19c.46,0,1,0,1-.84V11.29h-6.67V2.94h10.1V21.61C353.63,23.84,352.27,24.42,349.12,24.4ZM350.2,5.31h-3.45V6.2h3.45Zm0,2.72h-3.45v.91h3.45Z" transform="translate(-1.2 -1.59)"/><path class="b4e3e0b8-dda0-4735-a487-d685b3ed4100" d="M373,13.55v1h3.72V17H373v1h3.72v2.42H373v1h4.85V24h-11v.39h-3.39V16l-.64.65a8.66,8.66,0,0,0-1.16-1.7V24.4h-3.5V12.88l-.65.79A5.72,5.72,0,0,0,355,11.2a25.3,25.3,0,0,0,5-9.13l3.36,1.13V2.82l3.41.12c.27,0,.36.14.36.33s-.19.36-.52.58v2.3h1.8v-4l3.57.22c.24,0,.36.14.36.31s-.36.41-.57.46v3h2V2.94l3.55.21c.29,0,.44.1.44.27s-.29.41-.6.55v4.8h-5.55l1.68.91a.47.47,0,0,1,.27.39c0,.26-.34.36-.7.43-.1.17-.24.38-.38.6h5.13v2.45Zm-11.36-.43a22.25,22.25,0,0,0,3.27-4.35h-1.47V3.92l-.21.1c-.41.89-.65,1.39-1.49,3,.36.19.46.24.46.41s-.39.43-.56.51Zm5.19.43v1h2.78v-1Zm0,3.43v1h2.78V17Zm2.78,4.42v-1h-2.78v1Zm-.86-10.3a22.87,22.87,0,0,0,1.34-2.33h-3l1.1.55c.19.1.34.19.34.39s-.27.36-.7.41c-.26.43-.36.57-.6,1Z" transform="translate(-1.2 -1.59)"/><path class="b4e3e0b8-dda0-4735-a487-d685b3ed4100" d="M391.63,2.55a15.93,15.93,0,0,0,1.1,3.72,19.41,19.41,0,0,0,5.16-2.78c.74,1,1.75,2.14,2.4,2.86a34.43,34.43,0,0,1-6,3.09,28.1,28.1,0,0,0,5.35,6.6l-2.47,2.14a11.72,11.72,0,0,0-6.39-1.82c-1.87,0-4,.48-4,2,0,.63.62,2.45,5,2.45a13.38,13.38,0,0,0,5.64-1.2,16.73,16.73,0,0,0,.72,3.77,21.65,21.65,0,0,1-6.19.84c-5.84,0-9.27-2.4-9.27-5.52,0-2.07,1.75-5.35,7.2-5.35a9.06,9.06,0,0,1,2.6.28c-.46-.69-.84-1.32-1.73-2.93a43.42,43.42,0,0,1-8.33,1.54l-1.25-3.72a33.91,33.91,0,0,0,8.07-1.08c-.29-.62-1.54-3.46-1.81-4Z" transform="translate(-1.2 -1.59)"/><path class="b4e3e0b8-dda0-4735-a487-d685b3ed4100" d="M414.38,8.72a7.91,7.91,0,0,1,4.92-2.45c.69,0,3.05.51,3.05,3.75a34.38,34.38,0,0,1-.6,4.92,20.67,20.67,0,0,0-.2,2.74c0,.31,0,1.12.63,1.12.29,0,1.29-.16,3-2.06a16.16,16.16,0,0,0,1.3,3.72c-2.16,2.09-4,2.54-5.09,2.54-1.34,0-3.62-.86-3.62-4.34,0-1.2.64-6.82.64-7.51a.7.7,0,0,0-.74-.79c-1.46,0-3.53,2.44-5.06,4.24a76.53,76.53,0,0,0,.45,9.46l-4.2.19a33.31,33.31,0,0,0,.22-4.13v-1c-.34.48-1.71,2.64-2,3l-2.93-2.95a51.79,51.79,0,0,0,5-6.14c0-.24,0-.6,0-.91a19.65,19.65,0,0,1-3.81.86L404.58,9a16.35,16.35,0,0,0,4.71-.72c0-1.63.07-4.82,0-5.66l3.51.29c.26,0,.67.07.67.4s-.31.32-.48.36c-.19,1.9-.24,2.86-.27,3.56Z" transform="translate(-1.2 -1.59)"/><path class="b4e3e0b8-dda0-4735-a487-d685b3ed4100" d="M441.4,3.2c.22,0,.43.07.43.31s-.26.32-.43.34c-.1.94-.1,1.15-.12,1.42,1.1,0,4.83-.08,6.63.14V9a57.56,57.56,0,0,0-6.75-.22v2.64a31.5,31.5,0,0,0,6.1-1.13v3.58a46.47,46.47,0,0,1-6,.79c0,1,0,1.13,0,2.14a23.62,23.62,0,0,1,8,3.17,36.25,36.25,0,0,0-2.66,3,19.38,19.38,0,0,0-5.14-3c.05,1.25.22,4.08-5,4.08-3.72,0-6.43-1.7-6.43-3.89,0-2.73,3.43-3.91,7.44-3.84,0-.55,0-.55,0-1.41-2.37.05-6.72.12-6.72-2.26,0-.84.44-1.61,1.68-2.9l2.64.6c-.43.57-.5.65-.5.81s0,.67,2.81.55c0-.43,0-2.37,0-2.75-2.95.12-5.54.45-7.53.71V5.84c1.17-.12,6.43-.36,7.51-.43,0-.91,0-1.85-.09-2.95Zm-5,15.84c-.12,0-2.42,0-2.42,1,0,.79,1.32.86,1.73.86,1.17,0,1.89-.43,1.75-1.75A5.1,5.1,0,0,0,436.43,19Z" transform="translate(-1.2 -1.59)"/><path class="b4e3e0b8-dda0-4735-a487-d685b3ed4100" d="M465.54,2.84c.39.05.61.07.61.27s-.29.36-.48.4c-.05.44-.08.72-.13,1.68,6.77-.28,7.52-.31,8-.36,0,.51-.07,2.88,0,3.87-4.35-.22-6.17-.22-7.92-.19a19,19,0,0,0,0,2.66A7.88,7.88,0,0,1,467,15.78,11.33,11.33,0,0,1,461.46,25a16.18,16.18,0,0,0-3.5-2.47c.72-.29,3.55-1.49,4.42-3.45a2.71,2.71,0,0,1-1.9.57,3.21,3.21,0,0,1-2.59-1.08,6,6,0,0,1-1-3.55c0-5.28,4.51-5.11,5-5,0-.77,0-1,0-1.35a66,66,0,0,0-9.58,1.25l-.26-4c.55,0,1.46,0,9.74-.51a25.26,25.26,0,0,0-.34-3.05Zm-5.54,12c0,1.59.79,2,1.22,2,.75,0,1.18-1.1,1.18-2.3,0-.56-.12-1.49-1.08-1.49C460.53,13.07,460,13.86,460,14.84Z" transform="translate(-1.2 -1.59)"/></g></g></svg>