<svg xmlns="http://www.w3.org/2000/svg" width="340" height="75" viewBox="0 0 340 75">
  <defs>
    <style>
      .cls-1 {
        opacity: 0.7;
      }

      .cls-2 {
        fill: #fff;
      }
    </style>
  </defs>
  <g id="レイヤー_2" data-name="レイヤー 2">
    <g id="レイヤー_3" data-name="レイヤー 3">
      <g>
        <g class="cls-1">
          <rect width="340" height="75" rx="10.51"/>
        </g>
        <g>
          <path class="cls-2" d="M26.53,32.19H24.75V28.57a15.11,15.11,0,0,1-4.61,3.56,4.22,4.22,0,0,0-1.56-1.35,12.23,12.23,0,0,0,4.93-3H20.39V22.2h4.36v-.78H18.83V19.9h5.92V18.49l1.92.11c.1,0,.33,0,.33.19s-.23.26-.47.3v.81h5.93v1.52H26.53v.78H31v5.56H27.88a15.46,15.46,0,0,0,4.76,2.84c-1,.88-1.18,1.12-1.35,1.45a16,16,0,0,1-4.76-3.49Zm-1.78-8.64H22.24v.81h2.51Zm0,2H22.24v.83h2.51Zm1.78-1.15h2.58v-.81H26.53Zm0,2h2.58v-.83H26.53Z"/>
          <path class="cls-2" d="M39.88,18.45l1.91.1c.08,0,.3,0,.3.17s-.17.21-.37.25v.86H47.6v1.62H34V19.83h5.91Zm-1,9.55c.12.08.22.14.22.26s-.25.16-.4.15a13.52,13.52,0,0,1-2.95,3.43,6.12,6.12,0,0,0-1.65-1.06,11.86,11.86,0,0,0,3.16-3.68Zm2.85,2.51c0,1.24-.27,1.77-2.88,1.68a5.21,5.21,0,0,0-.69-1.91,7.66,7.66,0,0,0,1.13.11c.49,0,.6-.17.6-.51V26.82H35.75V22.26H45.81v4.56H41.72ZM37.6,23.77V25.3H44V23.77Zm6.58,3.42a15.52,15.52,0,0,1,3,3.42,12.26,12.26,0,0,0-1.65,1.2,14.34,14.34,0,0,0-2.85-3.66Z"/>
          <path class="cls-2" d="M55.16,18.81c.2,0,.31,0,.31.21s-.16.19-.26.22c-.09,1-.11,1.5-.12,1.8a10.21,10.21,0,0,0,2.56-.78,13.42,13.42,0,0,0,0,2.06A16.41,16.41,0,0,1,55,23c0,.24,0,1.27,0,1.5A7.41,7.41,0,0,1,57.67,24a3.8,3.8,0,0,1,4.09,3.85,3.34,3.34,0,0,1-3.38,3.59A2.32,2.32,0,0,1,56,28.81c.29-.09,1.26-.4,1.63-.54,0,.41,0,1.23.89,1.23.75,0,1.22-.72,1.22-1.6a2.09,2.09,0,0,0-2.24-2.15,6.53,6.53,0,0,0-2.56.66c.06,3.12.07,3.47.19,4.71l-1.71.78a20.24,20.24,0,0,0-2.79-2.31c-.31.32-.47.5-.77.84L49,28.26c.69-.38,3.42-2.45,4-2.81,0-.73,0-1.47,0-2.2-1,.07-2.12.09-2.93.09v-2a6.12,6.12,0,0,0,1.15.08c.66,0,1.56-.06,1.79-.08,0-.69,0-2.13-.05-2.88Zm-3.33,9.67a5.86,5.86,0,0,0,1.09.72c.11,0,.12-.18.12-.33V27.54A12.05,12.05,0,0,0,51.83,28.48Zm8-7.87A12.77,12.77,0,0,1,63.06,23a9.74,9.74,0,0,0-1.26,1.55,8.89,8.89,0,0,0-3.17-2.37Z"/>
          <path class="cls-2" d="M72.23,19.08c.14,0,.27.12.27.25s-.27.21-.45.23c-.3.52-.3.52-.9,1.74,1,.1,1.85.12,2.1.12s.57,0,.79,0a11.23,11.23,0,0,0-.55,2,22.27,22.27,0,0,1-3.06-.18c-.25.64-.55,1.45-.63,1.66a23.42,23.42,0,0,0,3.59.23c-.27.79-.5,1.71-.54,1.9-1.61-.07-2.79-.22-3.6-.33a5.11,5.11,0,0,0-.18,1.35c0,1.65,1.09,2.13,2.64,2.13.58,0,3.13,0,3.13-2.4A6,6,0,0,0,74,25.33a6.57,6.57,0,0,0,1.9-.72A7.61,7.61,0,0,1,77,28c0,3.3-3.41,4-5.28,4-3.35,0-4.58-1.9-4.58-3.78a7.64,7.64,0,0,1,.24-1.86,17.59,17.59,0,0,1-2.19-.57l.45-1.89a18,18,0,0,0,2.25.65c.08-.27.23-.77.54-1.67A19,19,0,0,1,66,22.17l.39-2a20.42,20.42,0,0,0,2.79.81c.15-.44.89-2.33,1-2.72Z"/>
          <path class="cls-2" d="M86.44,18.9c.19,0,.3.1.3.22s-.18.2-.35.21c-.07.24-.42,1.32-.49,1.53A24.47,24.47,0,0,0,91,19.65a5.2,5.2,0,0,0,.39,1.89,26.46,26.46,0,0,1-6.18,1.29c-.08.21-.35.94-1,2.52a8.68,8.68,0,0,1,4.2-1.19c3.84,0,4.08,2.76,4.08,3.45,0,4.16-5.94,4.38-7.77,4.38a14.5,14.5,0,0,1-1.58-.07A8.1,8.1,0,0,0,82.7,30a20.63,20.63,0,0,0,2.27.14c1.93,0,5.44-.35,5.44-2.6,0-1.23-.9-1.72-2.08-1.72a8,8,0,0,0-5.45,2.62l-1.8-.91A19.28,19.28,0,0,0,83.21,23a27.2,27.2,0,0,1-3.12-.08V20.79a18.51,18.51,0,0,0,3.7.28,18.4,18.4,0,0,0,.59-2.71Z"/>
          <path class="cls-2" d="M101.15,21c.5.59.71.84,1.14,1.38a5.84,5.84,0,0,1,1.65-.27,2.74,2.74,0,0,1,3,2.79c0,2.52-2.65,3-4.51,3.06a4.24,4.24,0,0,0-.6-1.66c.87,0,3.36.12,3.36-1.52,0-.22-.06-1.08-1.24-1.08a5.14,5.14,0,0,0-.65.06c.34.57.53.9.71,1.26-.72.29-1.07.42-1.62.69a13.51,13.51,0,0,0-.69-1.42,15.13,15.13,0,0,0-1.46.73,35.61,35.61,0,0,1,2.18,6,13.46,13.46,0,0,0-1.76.87,26.63,26.63,0,0,0-1.87-6,18.47,18.47,0,0,0-1.89,1.44l-1.1-1.73A19.43,19.43,0,0,0,98,24.37a13.22,13.22,0,0,0-1.35-2.05l1.66-.69a1.1,1.1,0,0,1,.27-.09c.11,0,.12.07.12.12s0,.1-.1.21c.09.16.58,1.05.9,1.66.84-.43.85-.43,1.26-.61-.33-.48-.81-1.05-1-1.28Z"/>
          <path class="cls-2" d="M111.77,21.84a18.76,18.76,0,0,1,3.65,2,11.36,11.36,0,0,0-1.26,1.71,13.68,13.68,0,0,0-3.54-2.06ZM111.49,30a21.45,21.45,0,0,0,10.72-8.13,7,7,0,0,0,1.32,1.71A24.08,24.08,0,0,1,113,31.72c0,.15-.07.36-.25.36s-.15-.07-.22-.21Zm1.8-11.51a21.82,21.82,0,0,1,3.87,1.83c-.3.33-1,1.31-1.22,1.67a15.78,15.78,0,0,0-3.76-1.94Z"/>
          <path class="cls-2" d="M127.13,31V29.32H134V27.43h-6.45V25.77H134V24h-6.64V22.29h8.42v9.15H134V31Z"/>
          <path class="cls-2" d="M153.34,24.31v2.13h-13V24.31Z"/>
          <path class="cls-2" d="M168.91,29.32v1.74h-10c.17-2.55,1.35-3.34,5.06-5.8,2.2-1.47,2.51-1.88,2.51-2.78,0-1.26-1.22-1.66-2.32-1.66-2.25,0-2.67,1.35-2.74,2.71h-2.31c.06-1,.28-4.62,5.05-4.62,3.06,0,4.62,1.61,4.62,3.56,0,1.68-.93,2.64-3.12,4A13.4,13.4,0,0,0,162,29.32Z"/>
          <path class="cls-2" d="M180.47,25.15c0,2.12-.55,6.24-5,6.24s-5-4.11-5-6.24.51-6.24,5-6.24S180.47,23,180.47,25.15Zm-7.65,0c0,.65,0,4.35,2.67,4.35s2.65-3.7,2.65-4.35,0-4.35-2.65-4.35S172.82,24.45,172.82,25.15Z"/>
          <path class="cls-2" d="M192,29.32v1.74H182c.17-2.55,1.35-3.34,5.05-5.8,2.21-1.47,2.52-1.88,2.52-2.78,0-1.26-1.23-1.66-2.32-1.66-2.25,0-2.67,1.35-2.75,2.71h-2.3c.05-1,.28-4.62,5.05-4.62,3.06,0,4.62,1.61,4.62,3.56,0,1.68-.93,2.64-3.12,4a13.23,13.23,0,0,0-3.66,2.83Z"/>
          <path class="cls-2" d="M203.51,29.32v1.74h-10c.17-2.55,1.35-3.34,5.06-5.8,2.2-1.47,2.52-1.88,2.52-2.78,0-1.26-1.23-1.66-2.33-1.66-2.25,0-2.67,1.35-2.74,2.71h-2.31c.06-1,.28-4.62,5.05-4.62,3.06,0,4.62,1.61,4.62,3.56,0,1.68-.93,2.64-3.12,4a13.4,13.4,0,0,0-3.66,2.83Z"/>
          <path class="cls-2" d="M212.43,19.59c.12,0,.18.1.18.21s-.22.21-.42.24a21.77,21.77,0,0,0-.85,5.95,12,12,0,0,0,.1,1.77c.14-.24.69-1.3.81-1.51a6.06,6.06,0,0,0,1,1.27,7.53,7.53,0,0,0-1.24,3.9l-1.71.33a20.77,20.77,0,0,1-.78-5.92,28.2,28.2,0,0,1,.87-6.9Zm7.19-.33c.16,0,.21.1.21.19s-.21.2-.36.21a15.28,15.28,0,0,0-.15,2,14.31,14.31,0,0,0,2.35-.59V23c-1.21.3-2,.42-2.4.49a29.63,29.63,0,0,0,.23,3.77,9.32,9.32,0,0,1,3,1.62c-.22.39-.78,1.54-.88,1.78a6.17,6.17,0,0,0-1.91-1.29c0,2.06-2.31,2.19-3,2.19-2.17,0-2.94-1.33-2.94-2.35,0-1.5,1.47-2.33,3.09-2.33a4.87,4.87,0,0,1,.63.05c0-.59-.15-1.86-.16-3.18-.92.07-1.68.1-2.13.1s-.72,0-1,0v-2a15.35,15.35,0,0,0,1.86.11c.62,0,1,0,1.29,0,0-.13,0-2.62,0-3Zm-2.94,9.18c-.93,0-1.22.42-1.22.75s.44.72,1,.72c.11,0,1.26,0,1.26-.95a2,2,0,0,0,0-.33A2.43,2.43,0,0,0,216.68,28.44Z"/>
          <path class="cls-2" d="M233.33,18.84c.12,0,.28.09.28.22s-.25.21-.48.18a4.3,4.3,0,0,1-.19.45h3.28l.56.63a13.78,13.78,0,0,1-2.19,3.89A11,11,0,0,0,238,25.93a6.09,6.09,0,0,0-1.14,1.5,13.93,13.93,0,0,1-3.32-2.08,11.78,11.78,0,0,1-3.06,2,4.62,4.62,0,0,0-.9-1.38,7.65,7.65,0,0,0-.9.27c-.07-.48-.1-.62-.13-.8l-.71.11v6.63H226.2V26.91c-.06.15-.21.19-.36.22a17.85,17.85,0,0,1-.63,3.56,7,7,0,0,0-1.53-.47,13.57,13.57,0,0,0,.7-3.72l1.42.18c.22,0,.33.05.4.2V25.8c-.27,0-1.39.15-1.61.16-.07.12-.14.29-.31.29s-.18-.17-.19-.3l-.15-1.44c.36,0,.65,0,1.2,0,.54-.74.6-.83.75-1.05a20.62,20.62,0,0,0-2.14-2l1-1.14.53.45a18.29,18.29,0,0,0,1.13-2.47l1.39.54c.17.06.29.12.29.22s-.29.21-.46.23a21.29,21.29,0,0,1-1.3,2.47,2.79,2.79,0,0,1,.45.47A13.74,13.74,0,0,0,228,19.75l1.47.59c.15.06.32.12.32.22s-.23.23-.54.24c-.48.84-1.77,2.85-2.27,3.53.18,0,.48,0,1.2-.12,0-.15-.18-.65-.22-.77l1.24-.3a14.13,14.13,0,0,1,.75,2.55,9.07,9.07,0,0,0,2.37-1.48,8.69,8.69,0,0,1-1.06-1.61,11.28,11.28,0,0,1-.81,1.1A6,6,0,0,0,229,23a13.87,13.87,0,0,0,2.85-4.71Zm-3.89,7.54a12.16,12.16,0,0,0,.54,3c-.19.06-1,.29-1.41.47a14.49,14.49,0,0,1-.45-3.14Zm1.62,2.55a24.65,24.65,0,0,1,5.82,1.89,7.45,7.45,0,0,0-.85,1.53,19,19,0,0,0-5.64-1.86Zm1.82-2.49a12.34,12.34,0,0,1,2.8,1.46,6.76,6.76,0,0,0-.84,1.33,10.69,10.69,0,0,0-2.8-1.5Zm-.62-5.23a10.53,10.53,0,0,0,1.28,2,8.57,8.57,0,0,0,1.12-2Z"/>
          <path class="cls-2" d="M251.52,19.08l.81,1A45.4,45.4,0,0,1,247,24v6.43c0,1.53-1,1.74-2.55,1.74-.36,0-.58,0-.81,0a5.09,5.09,0,0,0-.64-2.05,8.69,8.69,0,0,0,1.57.15c.23,0,.48,0,.48-.45V22.26l1.13.09a11.78,11.78,0,0,0,2.05-1.46h-8.94V19.08Z"/>
          <path class="cls-2" d="M259.31,19c.24,0,.34,0,.34.21s-.21.23-.33.26a45.65,45.65,0,0,0-.43,6.73c0,2.58.24,3.59,1.63,3.59,2.55,0,4.82-3.05,5.43-4.37a9.73,9.73,0,0,0,1.52,1.68c-2.45,3.93-5.37,4.8-7.14,4.8-3.41,0-3.51-3.24-3.51-6.24,0-.94.16-5.11.16-6,0-.61,0-.72,0-1Z"/>
          <path class="cls-2" d="M277.52,18.87c.15,0,.3.06.3.21s-.17.22-.27.25c0,.35-.05.6-.08,1,.39,0,1,0,2.06,0,.85,0,1.38,0,2.25.09v1.91a35.77,35.77,0,0,0-4.37-.11v1.95a20.27,20.27,0,0,0,4-.69v1.94a31.49,31.49,0,0,1-3.93.48c0,.25,0,1.38,0,1.6a14.17,14.17,0,0,1,5,2,20.38,20.38,0,0,0-1.4,1.62,10.58,10.58,0,0,0-3.49-2c.06.93.09,2.69-3.08,2.69-2.61,0-3.73-1.28-3.73-2.37,0-1.88,2.62-2.31,3.84-2.31l.84,0c0-.08,0-1.07,0-1.2-1.75,0-4.3.09-4.3-1.31,0-.51.27-1,1.06-1.75l1.44.37c-.16.18-.42.47-.42.57,0,.39.56.41,1.31.41.34,0,.57,0,.87,0,0-.31,0-1.71,0-2-2.11.07-3.63.27-4.86.42v-2c.77-.08,4.16-.21,4.85-.26a17.14,17.14,0,0,0-.08-1.92Zm-2.88,9.79c-.48,0-1.79.09-1.79.81s1.14.68,1.37.68c.91,0,1.38-.36,1.27-1.4A3.67,3.67,0,0,0,274.64,28.66Z"/>
          <path class="cls-2" d="M289.61,19c.24,0,.34,0,.34.21s-.21.23-.32.26a44.6,44.6,0,0,0-.44,6.73c0,2.58.24,3.59,1.63,3.59,2.55,0,4.82-3.05,5.43-4.37a9.73,9.73,0,0,0,1.52,1.68c-2.45,3.93-5.37,4.8-7.14,4.8-3.41,0-3.51-3.24-3.51-6.24,0-.94.16-5.11.16-6,0-.61,0-.72,0-1Z"/>
          <path class="cls-2" d="M306.54,19c.21.05.29.11.29.21s0,.2-.3.23c-.08.27-.36,1.47-.42,1.71a10.48,10.48,0,0,0,2.76-.77l.24,2a21.4,21.4,0,0,1-3.53.73,33.78,33.78,0,0,1-4,8.93,12.65,12.65,0,0,0-1.92-1,23.42,23.42,0,0,0,3.81-7.65c-.91.09-1.56.09-3,.12l-.16-2.1c.37,0,.84.06,1.47.06.28,0,1.12,0,2.14-.09a28.4,28.4,0,0,0,.39-2.91Zm1.22,9a1.79,1.79,0,0,0-.51,1.11c0,.8,1.83.8,2.52.8a10.91,10.91,0,0,0,3.25-.5,6.67,6.67,0,0,0-.07,1,5.21,5.21,0,0,0,.09,1.05,18.56,18.56,0,0,1-3.14.27c-1.41,0-4.47-.12-4.47-2.35a4,4,0,0,1,.66-2Zm-.65-4a19.79,19.79,0,0,1,3.36-.27,11.34,11.34,0,0,1,2.22.16,16.61,16.61,0,0,0-.13,2,9.23,9.23,0,0,0-2.21-.24,29.89,29.89,0,0,0-3.24.26Z"/>
          <path class="cls-2" d="M319.28,29.83a2,2,0,1,1-2-2A2,2,0,0,1,319.28,29.83Zm-3.24,0a1.2,1.2,0,0,0,1.2,1.2,1.19,1.19,0,0,0,1.18-1.2,1.19,1.19,0,1,0-2.38,0Z"/>
          <path class="cls-2" d="M65.55,49.37c-.22.19-1.55,1.35-1.55,2.1a.72.72,0,0,0,.37.67,8.93,8.93,0,0,0,3.2.44,19.25,19.25,0,0,0,5.71-.75,13.13,13.13,0,0,0,.42,2.11,30.86,30.86,0,0,1-6.16.6c-3.38,0-5.63-.63-5.63-2.85,0-.67.22-1.72,2.25-3.45Zm6.21-5.12a14.57,14.57,0,0,0-4,2.88c-.59-.69-.66-.76-1.23-1.35.52-.42,1.17-.91,1.78-1.36a39.72,39.72,0,0,1-5.32.22l-.12-2.13a26.16,26.16,0,0,0,3.55.18,20.71,20.71,0,0,0,4.34-.34Zm.75-2a11.26,11.26,0,0,1,1.38,1.56,7.34,7.34,0,0,0-.8.93,14.43,14.43,0,0,0-1.45-1.63ZM73.64,41a17,17,0,0,1,1.44,1.5,4.47,4.47,0,0,0-.89.9c-.37-.47-1-1.22-1.33-1.55Z"/>
          <path class="cls-2" d="M83.67,55.19H81.88V50.75A16.5,16.5,0,0,1,77.08,55a4.65,4.65,0,0,0-1.59-1.27,14.41,14.41,0,0,0,5.32-4.16H75.89V47.9H79.1a13.79,13.79,0,0,0-1.34-2.46l1.2-.65H76.58V43.16h5.3V41.52l1.85.12c.12,0,.26,0,.26.2a.17.17,0,0,1-.09.13.76.76,0,0,1-.23.17v1H89v1.63H86.54l1.14.5a.23.23,0,0,1,.16.19c0,.17-.13.18-.33.23a15,15,0,0,1-1.06,2.19h3.18v1.63H84.77a14.11,14.11,0,0,0,5.13,3.86,4.69,4.69,0,0,0-1.4,1.44,13,13,0,0,1-4.83-4.17ZM81.88,47.9V44.79H79.54A11.87,11.87,0,0,1,81,47.39a8.18,8.18,0,0,0-1,.51Zm1.79-3.11V47.9h2c-.22-.12-.6-.35-1-.5a14.84,14.84,0,0,0,1.2-2.61Z"/>
          <path class="cls-2" d="M97.58,50.79a12.77,12.77,0,0,1-2,2,3.14,3.14,0,0,0-1.22-.88,9.9,9.9,0,0,0,1.29-1c-1.88.81-3.58,1.36-3.82,1.45,0,.2,0,.39-.24.39s-.18-.19-.23-.34l-.45-1.76a12.55,12.55,0,0,0,1.83-.4V46.4H91.09V44.75h1.67V41.54l1.85.1c.18,0,.33,0,.33.18s-.07.18-.33.27v2.66h1.55V46.4H94.61v3.16a10.48,10.48,0,0,0,1.64-.69,4.51,4.51,0,0,0-.16,1.49,10.42,10.42,0,0,0,1.13-1.55H95.69v-1.3h9.06v1.3H98.9c-.09.2-.17.3-.31.56h5.93c0,.87,0,3.82-.78,5a2.35,2.35,0,0,1-2,.78c-.2,0-.33,0-.56,0a5.09,5.09,0,0,0-.54-1.65,12,12,0,0,1-1.84,1.86,3.47,3.47,0,0,0-1.33-.86,11,11,0,0,0,3.31-3.72h-.63A13.11,13.11,0,0,1,98.4,53a9.05,9.05,0,0,1-2.57,2,3.73,3.73,0,0,0-1.15-1,9,9,0,0,0,3.63-3.09Zm6-3.79H96.8V41.79h6.75Zm-1.65-3.17v-.69H98.57v.69ZM98.57,45v.73h3.33V45Zm3.69,5.83a14.32,14.32,0,0,1-1.56,2.58,8.63,8.63,0,0,0,1,.09c.4,0,.6-.09.73-.57a8.21,8.21,0,0,0,.33-2.1Z"/>
          <path class="cls-2" d="M108,43.88a9.86,9.86,0,0,0,2.08.18c.1,0,.53,0,1,0a23.33,23.33,0,0,1,.69-2.6l2,.63c.12,0,.26.09.26.2s-.2.19-.35.22a12,12,0,0,0-.51,1.34,14.57,14.57,0,0,0,4-1.07l.33,1.79a24.31,24.31,0,0,1-4.79,1c0,.15-.15.84-.17,1a9,9,0,0,1,1.78-.19c2.56,0,5.2,1.32,5.2,4.11,0,2.64-2.23,4.12-5.19,4.75a6,6,0,0,0-1.11-1.54c1.89-.35,4.23-1.22,4.23-3.24a2.14,2.14,0,0,0-1.68-2.1,15.33,15.33,0,0,1-2.82,4c.12.38.2.57.29.8l-1.66,1a3.38,3.38,0,0,1-.23-.57,5.11,5.11,0,0,1-2.63.92,1.92,1.92,0,0,1-2-2.19,5.89,5.89,0,0,1,3.88-5.15,13.78,13.78,0,0,1,.15-1.44c-.25,0-1.06.05-1.26.05a10.63,10.63,0,0,1-1.59-.11ZM110.57,49c-.45.31-2,1.56-2,3,0,.3.09.69.55.69a3.48,3.48,0,0,0,1.73-.81A17.56,17.56,0,0,1,110.57,49Zm1.89,1.23a11.8,11.8,0,0,0,1.35-2.19,6.84,6.84,0,0,0-1.47.21A14.14,14.14,0,0,0,112.46,50.27Z"/>
          <path class="cls-2" d="M125.88,42.12c.25.06.41.09.41.26s-.2.22-.34.25a12.38,12.38,0,0,0-.65,3.89,7.86,7.86,0,0,0,.16,1.62,20,20,0,0,1,1-2,7.61,7.61,0,0,0,1.31,1.08,9.82,9.82,0,0,0-1.58,3.93l-1.8.21a14.89,14.89,0,0,1-1-5.37,16.53,16.53,0,0,1,.48-3.76,3.67,3.67,0,0,0,.11-.59Zm6.93-.51c.23,0,.36,0,.36.21s-.15.2-.25.23c0,.49.17,2.65.2,3.1s0,1.1,0,1.85a8.57,8.57,0,0,1-4.6,8.29,5.29,5.29,0,0,0-1.63-1.5c2.9-1.33,4.12-3.49,4.12-6.87a29.14,29.14,0,0,0-.54-5.38Z"/>
          <path class="cls-2" d="M143.38,42.14c.16,0,.28.09.28.21s-.07.22-.39.25c-.14.65-.28,1.4-.43,2,1.72-.11,3.59.33,3.59,4.12a9.45,9.45,0,0,1-.93,4.14,2.9,2.9,0,0,1-2.87,1.86,6.13,6.13,0,0,1-1.37-.16,7,7,0,0,0-.18-2.19,3.22,3.22,0,0,0,1.37.31c.64,0,1.09,0,1.57-1.18a8.33,8.33,0,0,0,.49-2.93c0-.63,0-2.16-1.43-2.16a6.53,6.53,0,0,0-.74.08,23.06,23.06,0,0,1-3.8,8.1,8.9,8.9,0,0,0-1.88-1,17.59,17.59,0,0,0,3.61-6.73,16.16,16.16,0,0,0-2.6.81L137,45.6c.6-.09,3.19-.64,3.73-.72a27.79,27.79,0,0,0,.47-3.4Zm3.71,1.71c1,1,3.12,3.24,3.12,4.83,0,1.18-1.29,1.62-2.29,2a12.37,12.37,0,0,0-1-1.7c.83-.22,1.1-.3,1.1-.76,0-.78-1.25-2.42-2.36-3.51Zm.89-1.76a11.69,11.69,0,0,1,1.29,1.52,7.71,7.71,0,0,0-1,.72A11.45,11.45,0,0,0,147,42.77Zm1.44-.91a9.53,9.53,0,0,1,1.32,1.54l-1.08.77a7,7,0,0,0-1.24-1.65Z"/>
          <path class="cls-2" d="M164.18,46.4A15.78,15.78,0,0,0,158.81,48c-.73.31-3.6,1.53-3.6,3.34,0,1.1,1.18,1.52,3.9,1.52a15.28,15.28,0,0,0,5-.8,6.62,6.62,0,0,0-.19,2.27,29.54,29.54,0,0,1-5,.45,8.69,8.69,0,0,1-4.37-.78A2.88,2.88,0,0,1,153,51.44c0-1.8,1.37-3.09,3.26-4.19-.8-.82-.92-1.81-1.15-3.75a6,6,0,0,0-.35-1.47l2.53-.54c0,.72-.08,1.07-.08,1.53a6.94,6.94,0,0,0,.71,3.38c2.08-1,2.79-1.23,5.46-2.24Z"/>
          <path class="cls-2" d="M167.86,46.59a9.74,9.74,0,0,0,2.89-.93,12.42,12.42,0,0,1,4.34-1,3.85,3.85,0,0,1,4,4.08c0,4.29-4.5,6.24-7.15,6.72a6.63,6.63,0,0,0-1.31-1.74c5.66-1,6.42-3.69,6.42-4.86a2.15,2.15,0,0,0-2.18-2.34,11.43,11.43,0,0,0-6.06,2.67ZM171,41.18a13.88,13.88,0,0,0,4.57.73,9.59,9.59,0,0,0,1-.06,16.83,16.83,0,0,0-.27,2.12,18.92,18.92,0,0,1-5.62-.77Z"/>
          <path class="cls-2" d="M186.75,49.37c-.22.19-1.55,1.35-1.55,2.1a.72.72,0,0,0,.37.67,8.93,8.93,0,0,0,3.2.44,19.19,19.19,0,0,0,5.71-.75,13.13,13.13,0,0,0,.42,2.11,30.86,30.86,0,0,1-6.16.6c-3.38,0-5.63-.63-5.63-2.85,0-.67.23-1.72,2.25-3.45ZM193,44.25a14.73,14.73,0,0,0-4,2.88c-.58-.69-.66-.76-1.23-1.35.52-.42,1.17-.91,1.78-1.36a39.72,39.72,0,0,1-5.32.22l-.12-2.13a26.23,26.23,0,0,0,3.56.18,20.67,20.67,0,0,0,4.33-.34Zm.75-2a11.26,11.26,0,0,1,1.38,1.56,7.34,7.34,0,0,0-.8.93,13.51,13.51,0,0,0-1.45-1.63ZM194.84,41a17,17,0,0,1,1.44,1.5,4.47,4.47,0,0,0-.89.9c-.37-.47-1-1.22-1.33-1.55Z"/>
          <path class="cls-2" d="M204.23,41.54A10.7,10.7,0,0,0,205,44a10.25,10.25,0,0,0,2.14-1.1,12.08,12.08,0,0,0,1.15,1.61,19.89,19.89,0,0,1-2.47,1.18A17,17,0,0,0,209.27,50L208,51.14A8,8,0,0,0,203.75,50c-.39,0-2.76,0-2.76,1.57,0,1.26,1.64,1.61,3.48,1.61a8.57,8.57,0,0,0,3.58-.74,7.79,7.79,0,0,0,.42,2,14,14,0,0,1-3.91.52c-3.69,0-5.68-1.5-5.68-3.37,0-1.67,1.65-3.24,4.45-3.24a8,8,0,0,1,2,.25A19.05,19.05,0,0,1,204,46.35a26.24,26.24,0,0,1-5.42,1l-.64-2a20.89,20.89,0,0,0,5.24-.72c-.61-1.41-.88-2.06-1.1-2.63Zm4.47.52a8.66,8.66,0,0,1,1.29,1.5l-.89.77a10.62,10.62,0,0,0-1.3-1.58Zm1.18-.93a8.24,8.24,0,0,1,1.35,1.49,5.06,5.06,0,0,0-.84.69,8,8,0,0,0-1.33-1.5Z"/>
          <path class="cls-2" d="M215.5,43c.24.07.31.1.31.24s-.21.21-.31.22a13.17,13.17,0,0,0-.8,4.52c0,2.11.75,3.63,1.29,3.63s1.25-1.67,1.6-2.51A6.12,6.12,0,0,0,219,50.42c-1.11,2.73-2.34,3.85-3.16,3.85-1,0-3.07-2-3.07-6.46a26.67,26.67,0,0,1,.7-5.43Zm7.45.19a14.89,14.89,0,0,1,3,7.61,16.09,16.09,0,0,0-2.08.93,13.49,13.49,0,0,0-2.58-7.49Z"/>
          <path class="cls-2" d="M235.55,41.87c.15,0,.3.06.3.21s-.17.22-.27.25c0,.35,0,.6-.08,1,.39,0,1.05,0,2.06,0,.86,0,1.38,0,2.25.09v1.91a35.67,35.67,0,0,0-4.37-.11v1.95a20.15,20.15,0,0,0,4-.69v1.94a31.49,31.49,0,0,1-3.93.48c0,.25,0,1.38,0,1.6a14.19,14.19,0,0,1,5,2,20.38,20.38,0,0,0-1.4,1.62,10.58,10.58,0,0,0-3.49-2c.06.93.09,2.69-3.08,2.69-2.6,0-3.73-1.28-3.73-2.37,0-1.88,2.63-2.31,3.84-2.31l.84,0c0-.08,0-1.07,0-1.2-1.76,0-4.31.09-4.31-1.31,0-.51.27-1,1.06-1.75l1.45.37c-.17.18-.42.47-.42.57,0,.39.55.41,1.3.41.34,0,.57,0,.87,0,0-.31,0-1.71,0-2-2.11.07-3.63.27-4.85.42v-2c.76-.08,4.15-.21,4.84-.26a17.14,17.14,0,0,0-.08-1.92Zm-2.88,9.79c-.48,0-1.79.09-1.79.81s1.15.68,1.37.68c.92,0,1.38-.36,1.27-1.4A3.67,3.67,0,0,0,232.67,51.66Z"/>
          <path class="cls-2" d="M247.64,42c.24,0,.34,0,.34.21s-.21.23-.32.26a44.6,44.6,0,0,0-.44,6.73c0,2.58.24,3.59,1.63,3.59,2.55,0,4.82-3,5.43-4.37a9.73,9.73,0,0,0,1.52,1.68c-2.45,3.93-5.37,4.8-7.14,4.8-3.41,0-3.51-3.24-3.51-6.24,0-.94.16-5.11.16-6,0-.61,0-.72,0-1Z"/>
          <path class="cls-2" d="M264.58,42c.21,0,.28.11.28.21s0,.2-.3.23c-.07.27-.36,1.47-.42,1.71a10.23,10.23,0,0,0,2.76-.77l.24,2a21.45,21.45,0,0,1-3.52.73,34.49,34.49,0,0,1-4,8.93,13.16,13.16,0,0,0-1.92-1,23.63,23.63,0,0,0,3.81-7.65c-.92.09-1.56.09-3,.12l-.16-2.1c.38,0,.84.06,1.47.06.29,0,1.13,0,2.15-.09a25.3,25.3,0,0,0,.38-2.91Zm1.21,9a1.79,1.79,0,0,0-.51,1.11c0,.8,1.83.8,2.52.8a10.91,10.91,0,0,0,3.25-.5,6.67,6.67,0,0,0-.07,1,5.21,5.21,0,0,0,.09,1.05,18.56,18.56,0,0,1-3.14.27c-1.4,0-4.47-.12-4.47-2.35a4,4,0,0,1,.67-2Zm-.64-4a19.64,19.64,0,0,1,3.35-.27,11.34,11.34,0,0,1,2.22.16,16.61,16.61,0,0,0-.13,2,9.16,9.16,0,0,0-2.21-.24,29.65,29.65,0,0,0-3.23.26Z"/>
          <path class="cls-2" d="M277.31,52.83a2,2,0,1,1-2-2A2,2,0,0,1,277.31,52.83Zm-3.24,0a1.2,1.2,0,1,0,1.2-1.2A1.2,1.2,0,0,0,274.07,52.83Z"/>
        </g>
      </g>
    </g>
  </g>
</svg>
