<svg xmlns="http://www.w3.org/2000/svg" viewBox="0 0 37.11 45.64"><defs><style>.cls-1,.cls-2,.cls-5{fill:#fff;}.cls-2,.cls-4,.cls-5{stroke:#231815;}.cls-2,.cls-4{stroke-width:0.75px;}.cls-3,.cls-4{fill:#231815;}.cls-5{stroke-width:0.76px;}</style></defs><title>cero0</title><g id="レイヤー_2" data-name="レイヤー 2"><g id="レイヤー_1-2" data-name="レイヤー 1"><path class="cls-1" d="M37.11,42.38a3.32,3.32,0,0,1-3.38,3.26H3.37A3.32,3.32,0,0,1,0,42.38V3.26A3.32,3.32,0,0,1,3.37,0H33.73a3.32,3.32,0,0,1,3.38,3.26Z"/><path class="cls-2" d="M34.5,5.78A2.83,2.83,0,0,0,31.67,3H6.15A2.83,2.83,0,0,0,3.32,5.78V13.2H34.5Z"/><path class="cls-3" d="M11.1,5.74a3.49,3.49,0,0,0-1.93-.6c-1.58,0-2,1.27-2,2.66,0,1.6.78,2.89,2.5,2.89a5.21,5.21,0,0,0,2.49-.75l-.58,1.69a8.86,8.86,0,0,1-2.29.27,4.37,4.37,0,0,1-3.1-1,3.91,3.91,0,0,1-1.36-3A4,4,0,0,1,6.05,5,5,5,0,0,1,9.27,4L11,4.12Z"/><path class="cls-3" d="M15,10.47a3.34,3.34,0,0,0,1.22.17A2,2,0,0,0,17.86,10h.06l-.46,1.74H12.34v0c.57-.36.49-1,.49-1.6V5.79c0-.59.08-1.25-.49-1.6v0h4a1.27,1.27,0,0,0,.49-.06h0V5.77h0c-.32-.54-1-.48-1.54-.48H15V7.16H16a1,1,0,0,0,.42-.06h.06V8.72h-.06c-.16-.47-.69-.42-1.12-.42H15Z"/><path class="cls-3" d="M20.85,5.28a1.13,1.13,0,0,1,.67.16,1.2,1.2,0,0,1,.46,1,1.48,1.48,0,0,1-1.24,1.46V5.28ZM20.74,8.5,22.07,11a1.35,1.35,0,0,0,1.55.78l1.59-.1a5.32,5.32,0,0,1-1.1-1.39L22.73,8a2,2,0,0,0,1.38-1.82,1.89,1.89,0,0,0-1-1.76,3,3,0,0,0-1.55-.26H18.11v0c.57.36.49,1,.49,1.62V10.1c0,.6.08,1.26-.49,1.62v0h3.11v0c-.57-.36-.48-1-.48-1.62Z"/><path class="cls-3" d="M26.84,7.62c0-1.19.59-2.49,2-2.49,1.58,0,2.1,1.88,2.1,3.2a2.61,2.61,0,0,1-.43,1.61,1.91,1.91,0,0,1-1.53.81,1.87,1.87,0,0,1-1.56-1A4.74,4.74,0,0,1,26.84,7.62Zm-2.25.31a3.92,3.92,0,0,0,4.21,4c2.34,0,4.34-1.46,4.34-4S31.36,4,28.94,4,24.59,5.47,24.59,7.93Z"/><rect class="cls-4" x="3.32" y="14.81" width="31.18" height="17.52"/><path class="cls-5" d="M3.25,33.82V39.6a2.87,2.87,0,0,0,2.84,2.91H31.66A2.87,2.87,0,0,0,34.5,39.6V33.82Z"/><path class="cls-3" d="M9.42,37.6a6.94,6.94,0,0,1-1.27,1.6A12.56,12.56,0,0,1,5.5,41l-.1.08c-.05.05-.09.08-.11.08s-.09-.05-.16-.13l-.55-.72a.71.71,0,0,1-.1-.17.58.58,0,0,1,0-.13.93.93,0,0,0,0-.25l0-3.84a5.07,5.07,0,0,0-.07-.79l1.08.16c.13,0,.19.06.19.13a.58.58,0,0,1,0,.13.41.41,0,0,0-.06.23c0,.2,0,.77,0,1.73s0,1.44,0,1.45c0,.19.05.29.14.29A1.38,1.38,0,0,0,6.29,39a7.85,7.85,0,0,0,.86-.6A5.55,5.55,0,0,0,8,37.56a6.39,6.39,0,0,0,.59-.87Z"/><path class="cls-3" d="M13.29,39.5h-4l-.19,0V38.42h4.19Z"/><path class="cls-3" d="M18.11,36.29l-3.77.11V35.28l3.74-.09ZM18.92,38l-2.05,0c0,.25,0,.42,0,.5a2.59,2.59,0,0,1-.71,1.89,5.53,5.53,0,0,1-1.5,1l-.83-1.09a2.92,2.92,0,0,0,1.32-.69,2.14,2.14,0,0,0,.53-1.62l-2.11.13,0-1.18,5.31-.18Z"/><path class="cls-3" d="M22.56,37.35s0,.07-.11.09a.43.43,0,0,0-.17.09,9.89,9.89,0,0,1-1,.91v3H20.4V39.06a8.59,8.59,0,0,1-1.46.79l-.52-.79a10.23,10.23,0,0,0,1.74-.89,5.93,5.93,0,0,0,1.71-1.53l.58.57C22.52,37.28,22.56,37.33,22.56,37.35Z"/><path class="cls-3" d="M24.94,36.53l-.56,1a7.92,7.92,0,0,0-.88-.71q-.57-.41-1-.63l.52-1A16.9,16.9,0,0,1,24.94,36.53Zm2.91.94a14.45,14.45,0,0,1-2.28,2.28,8.76,8.76,0,0,1-2.24,1.32.58.58,0,0,0-.1.13c0,.08-.07.12-.11.12s-.1,0-.14-.16L22.49,40a5.05,5.05,0,0,0,2.35-1.16,13.06,13.06,0,0,0,2.34-2.4Z"/><path class="cls-3" d="M33.85,35.4l-.33.31a9,9,0,0,0-.56-.85l.33-.28C33.4,34.72,33.59,35,33.85,35.4Zm-.45.9a.13.13,0,0,1-.07.1.28.28,0,0,0-.08.12,16.55,16.55,0,0,1-1.67,2.87,14.37,14.37,0,0,1-2,2.22l-.9-.81a13,13,0,0,0,2-2,8.11,8.11,0,0,0,1.22-2L30.33,37a9.7,9.7,0,0,1-1.79,2.16l-.78-.8A7.15,7.15,0,0,0,28.91,37a9,9,0,0,0,1.22-2.22l1,.41c.08,0,.12.07.12.14s0,.07-.11.11a.82.82,0,0,0-.22.32l1.25-.14s.08,0,.13-.08a.2.2,0,0,1,.11-.07.44.44,0,0,1,.24.14l.09.07c-.11-.14-.21-.3-.32-.45l.33-.28a8.86,8.86,0,0,1,.57.81l-.23.22.13.12C33.36,36.21,33.4,36.26,33.4,36.3Z"/><path class="cls-1" d="M5.41,21.23H9.62a23.85,23.85,0,0,1-4.21.18Zm4.72.51-.36-.51h.54V22h.84V20.51H8.3v-.27a.34.34,0,0,0,.12-.12Q8.48,20,8.18,20H7.39v.54H4.57V22h.84v-.48l.12.57h.63l-.39.18.21.33H4.48v.73h2a4.66,4.66,0,0,1-1.74,1,4.42,4.42,0,0,1-.48.15l.3.81a7,7,0,0,0,.87-.42v2.25h.84v-.3H9.47V27h.84V24.9a4.91,4.91,0,0,0,.93.33l.27-.84a5.1,5.1,0,0,1-2.31-1h2.07v-.73H9.65a1.17,1.17,0,0,1,.15-.27.12.12,0,0,0,.09,0q.15-.09-.09-.21L9.41,22l.48-.09q.18.09.24,0T10.13,21.74ZM9.08,22a1.27,1.27,0,0,1-.12.36l-.15.27H8.27V22Zm-1.66.06v.57H6.88a2.61,2.61,0,0,0-.33-.54Q7.06,22.1,7.42,22.07Zm0,1.45v.6h.85v-.58c.22.21.48.43.78.67H6.58A5.67,5.67,0,0,0,7.42,23.52Zm.06,1.41v.24H6.28v-.24Zm2,0v.24H8.27v-.24Zm-2,1v.24H6.28v-.24Zm2,0v.24H8.27v-.24Z"/><path class="cls-1" d="M15.73,22.13a9.92,9.92,0,0,0,1.35,1.05H13.71a8.1,8.1,0,0,0,1.17-1v.87h.85ZM15.61,20h-.73v.72H12.12v.78h2.46a7.6,7.6,0,0,1-2.88,1.74l.36.79a4.94,4.94,0,0,0,1.26-.64v2.74H12v.72h6.76v-.72H17.29V23.27a8.2,8.2,0,0,0,1.35.64l.31-.85a7.92,7.92,0,0,1-2.17-1,4.78,4.78,0,0,1-.66-.54h2.37v-.78H15.73v-.48Q16,20.06,15.61,20Zm.84,3.88v.24H14.16v-.24Zm0,1v.24H14.16v-.24Zm0,1v.33H14.16v-.33Z"/><path class="cls-1" d="M25,20.73q.24.27-.12.24l-1.69,1.12.37.24-.37.24h1.87l.18-.18.54.54q.15.18.12.24a.06.06,0,0,1-.09,0q-.93.93-2,1.86l-.64-.54c.63-.5,1.09-.89,1.39-1.17H23V26.3a1,1,0,0,1,0,.24.53.53,0,0,1-.57.39h-.87l-.09-.84H22q.12,0,.15-.06a.33.33,0,0,0,0-.15V23.35H19.3v-.78h3.07q-.69-.42-1.47-.84l.57-.61,1,.55.94-.63H19.88v-.79h4.39l.15-.15Z"/><path class="cls-1" d="M30.08,20.14a.34.34,0,0,1-.12.12v.6h2.77v1.72h-.84v-.93H27.13v1h-.84V20.86h2.77V20h.78Q30.14,20,30.08,20.14Zm1.66,2.95H30V24H32.1v.78H30V26l.45.06h2.47l-.12.84H30.38a2.62,2.62,0,0,1-.57-.06A3.31,3.31,0,0,1,28,25.74a3.49,3.49,0,0,1-1.39,1.44l-.57-.72a2.57,2.57,0,0,0,1.2-1.14,5,5,0,0,0,.39-1.84l.79.24a.38.38,0,0,1,.15.09.23.23,0,0,1,0,.09.32.32,0,0,1-.15.12l-.18,1a1.25,1.25,0,0,0,.15.19,2.74,2.74,0,0,0,.72.51V23.09H27.28v-.78h4.46Z"/></g></g></svg>