<svg xmlns="http://www.w3.org/2000/svg" width="412.821" height="135" viewBox="0 0 412.821 135">
  <defs>
    <style>
      .cls-1 {
        fill: #fff;
      }
    </style>
  </defs>
  <g id="レイヤー_2" data-name="レイヤー 2">
    <g id="object">
      <g>
        <g>
          <path class="cls-1" d="M35.507,14.843c0-1.4-.072-2.664-.18-3.852a31.584,31.584,0,0,0,4,.18H56.744a28.8,28.8,0,0,0,3.888-.18,32.528,32.528,0,0,0-.18,3.672V37.916a36.679,36.679,0,0,0,.215,4.355H56.312v-2.16H39.574v2.16H35.291a37.742,37.742,0,0,0,.216-4.355Zm4.067,8.5H56.312V14.986H39.574Zm0,12.994H56.312V27.117H39.574Z"/>
          <path class="cls-1" d="M72.443,19.271a41.112,41.112,0,0,0-4.284.215V15.1a31.347,31.347,0,0,0,4.284.252h9.25V12.791a22.4,22.4,0,0,0-.215-3.348h4.5a17.973,17.973,0,0,0-.252,3.312v2.592H95.48a29.683,29.683,0,0,0,4.355-.252v4.391a42.52,42.52,0,0,0-4.355-.215h-7.7a35.705,35.705,0,0,0,5.4,7.558,30.839,30.839,0,0,0,7.847,6.048A14.684,14.684,0,0,0,98.575,36.8a40.178,40.178,0,0,1-6.047-5v4.1a26.129,26.129,0,0,0-3.6-.215h-3.2v2.447a32.54,32.54,0,0,0,.252,4.464H81.441a33.086,33.086,0,0,0,.252-4.464V35.685H78.85a25.77,25.77,0,0,0-3.6.215V31.833a34.408,34.408,0,0,1-5.831,5.039,12.4,12.4,0,0,0-2.448-3.779A33.854,33.854,0,0,0,79.5,19.271Zm9.25,6.875a35.467,35.467,0,0,1,.288-4.032,35.664,35.664,0,0,1-6.551,9.538,22.6,22.6,0,0,0,3.2.145h3.059ZM89.217,31.8a22.31,22.31,0,0,0,3.167-.145A38.977,38.977,0,0,1,85.4,22.114a29.078,29.078,0,0,1,.324,4V31.8Z"/>
          <path class="cls-1" d="M116.9,35.756a10.707,10.707,0,0,1-.288,3.059A3.163,3.163,0,0,1,113.3,40.9a11.21,11.21,0,0,1-6.8-2.555,5.288,5.288,0,0,1-1.98-4.068c0-1.691,1.116-3.6,3.1-5.327a19.242,19.242,0,0,1,5.255-3.059l-.036-5.543c-.288,0-.288,0-1.476.071-.54.036-1.044.036-1.943.036-.54,0-1.548-.036-1.98-.036-.468-.036-.792-.036-.9-.036a6.749,6.749,0,0,0-.756.036l-.036-4.031a22.157,22.157,0,0,0,4.356.324c.359,0,.755,0,1.259-.036.864-.036,1.044-.036,1.44-.036V14.267a24.666,24.666,0,0,0-.216-4.14h4.5a22.1,22.1,0,0,0-.216,3.924v2.3a40.061,40.061,0,0,0,6.947-1.368l.144,4.033c-.648.107-1.332.215-3.816.647-1.187.216-1.908.324-3.275.468v4.679a24.983,24.983,0,0,1,7.342-1.007c6.012,0,10.295,3.672,10.295,8.783a8,8,0,0,1-8.17,8.207,5.812,5.812,0,0,1-5.9-4,12.024,12.024,0,0,1-.612-4.608,15.153,15.153,0,0,0,4-1.584,12.5,12.5,0,0,0-.072,1.584,6.934,6.934,0,0,0,.5,3.168,2.488,2.488,0,0,0,2.267,1.224,3.7,3.7,0,0,0,3.636-4c0-3.1-2.52-5.111-6.371-5.111a23.028,23.028,0,0,0-6.911,1.187Zm-4.068-5.8c-2.7,1.439-4.283,3.023-4.283,4.319,0,.613.36,1.153,1.188,1.657a4.33,4.33,0,0,0,2.3.792c.612,0,.792-.325.792-1.513Zm19.942-7.272a30.765,30.765,0,0,0-7.2-7.774l3.383-2.268a30.525,30.525,0,0,1,7.127,7.379Z"/>
          <path class="cls-1" d="M142.139,23.985c1.656.649,2.664.865,6.335,1.369.144-1.3.468-3.708.648-5.04a47.2,47.2,0,0,1-5.147-.9c-.5-.107-.684-.143-1.224-.252l.36-3.959a27.406,27.406,0,0,0,6.515,1.3,42.357,42.357,0,0,0,.72-5.976,1.5,1.5,0,0,0-.036-.36l4.787.433c-.4,1.115-.5,1.655-1.152,6.083a35.8,35.8,0,0,0,8.207-.756l-.144,4.211c-.467.036-.648.072-1.439.144-2.592.216-3.744.288-5.04.288-.36,0-.684,0-2.232-.036-.36,2.628-.467,3.348-.683,5.075,1.079.037,1.367.037,1.763.037a28.766,28.766,0,0,0,6.875-.72l-.107,4.139a4.627,4.627,0,0,0-1.08.108,52.428,52.428,0,0,1-5.4.324c-.577,0-.9,0-2.3-.072a25.53,25.53,0,0,0-.18,2.556,4.5,4.5,0,0,0,1.332,3.708,6.552,6.552,0,0,0,4.463,1.331c4.571,0,7.2-2.016,7.2-5.543,0-2.088-1.08-4.1-3.239-6.083a13.3,13.3,0,0,0,4.463-.9,13.835,13.835,0,0,1,1.692,2.268,11.2,11.2,0,0,1,1.548,5.292,8.565,8.565,0,0,1-3.456,6.731,12.937,12.937,0,0,1-8.135,2.375c-6.551,0-10.115-3.132-10.115-8.926a24.587,24.587,0,0,1,.18-3.06c-2.159-.288-3.563-.5-5-.828a6.1,6.1,0,0,0-1.368-.216Z"/>
          <path class="cls-1" d="M177.743,15.238a33.04,33.04,0,0,0,7.775.613,30.886,30.886,0,0,0,1.008-5.94l4.823.4a19.962,19.962,0,0,0-.576,2.088c-.648,2.7-.648,2.7-.863,3.382,2.735-.071,6.8-.359,9.178-.647A24.559,24.559,0,0,0,203.7,14.3l.216,4.355c-.828.036-1.152.072-2.088.18-5.22.576-8.387.828-12.887.936a47.759,47.759,0,0,1-2.843,7.307v.072a16.74,16.74,0,0,1,9.071-2.34c6.335,0,10.115,2.736,10.115,7.308,0,5.327-5.148,8.782-13.031,8.782a32.88,32.88,0,0,1-9.179-1.259,20.49,20.49,0,0,0-.36-4.572A27.367,27.367,0,0,0,192,36.8c5.22,0,8.6-1.836,8.6-4.715,0-2.232-2.16-3.456-6.047-3.456a18.2,18.2,0,0,0-7.739,1.764,6.111,6.111,0,0,0-2.628,2.087l-4.355-1.511a24.27,24.27,0,0,0,1.691-3.24,81.506,81.506,0,0,0,3.024-7.991c-1.908-.036-3.527-.108-5.435-.252-.5-.036-.864-.036-1.152-.036h-.288Z"/>
          <path class="cls-1" d="M222.058,17.29a48.2,48.2,0,0,0,1.584,5.4,52.037,52.037,0,0,1,5.075-1.3,41.941,41.941,0,0,0-.18-5h4.032a29.043,29.043,0,0,0-.216,4.5c1.116-.072,1.332-.072,1.943-.072,3.888,0,6.588,2.556,6.588,6.263a6.092,6.092,0,0,1-2.484,5.148,9.012,9.012,0,0,1-5.255,1.62,14.277,14.277,0,0,1-4.716-.865,15.207,15.207,0,0,0-.648-4.1,10.5,10.5,0,0,0,5,1.26c2.555,0,4.1-1.152,4.1-3.1,0-1.728-1.224-2.735-3.347-2.735a26.071,26.071,0,0,0-5.724.828c-.828.216-.863.216-2.591.756a2.212,2.212,0,0,1-.576.179c.18.72.18.72,1.008,3.6.575,2.052,1.548,5.975,2.231,8.963a14.888,14.888,0,0,0,.828,2.987l-4.247.9a42.878,42.878,0,0,0-1.152-6.3c-.612-2.809-1.8-7.6-2.268-9.072a38.088,38.088,0,0,0-5.111,1.908l-1.26-3.78a7.767,7.767,0,0,0,1.62-.431c.144-.037.935-.288,2.015-.613.252-.071.252-.071,1.692-.54a35,35,0,0,0-1.98-5.291Z"/>
          <path class="cls-1" d="M266.049,21.97a24.75,24.75,0,0,0,15.118,16.27,14.808,14.808,0,0,0-2.627,4.139,29.232,29.232,0,0,1-8.892-6.587,27.019,27.019,0,0,1-5.435-8.711,21.76,21.76,0,0,1-5.867,9.648,26.676,26.676,0,0,1-8.6,5.65,14.143,14.143,0,0,0-2.52-3.779,25.838,25.838,0,0,0,5.832-3.06c4.823-3.419,7.235-7.451,8.1-13.57h-8.5a27.358,27.358,0,0,0-4.5.252V17.65a28.452,28.452,0,0,0,4.536.252h8.819c.071-1.8.108-2.376.108-4.247a24.039,24.039,0,0,0-.252-3.6h4.751a26.792,26.792,0,0,0-.252,4.211c0,1.476-.036,2.3-.072,3.635h9.539a29.963,29.963,0,0,0,4.535-.252v4.572a32.022,32.022,0,0,0-4.5-.252Z"/>
          <path class="cls-1" d="M291.4,37.7c-1.584,0-2.592.036-3.852.108a32.285,32.285,0,0,0,.144-3.707V28.413a33.575,33.575,0,0,0-.144-3.563c1.08.072,1.764.108,4,.108h16.738c2.052,0,2.952-.036,4-.108a33,33,0,0,0-.143,3.563V34.1a27.294,27.294,0,0,0,.143,3.707c-1.115-.072-2.159-.108-3.527-.108h-1.98c2.664,1.188,5.184,1.764,9.683,2.2a16,16,0,0,0-1.836,3.275,31.423,31.423,0,0,1-6.227-1.3,28.006,28.006,0,0,1-5.723-2.375l1.872-1.8h-9.791l2.088,1.8A35.532,35.532,0,0,1,285.2,42.812a12.476,12.476,0,0,0-2.123-3.42,32.2,32.2,0,0,0,9.682-1.692ZM297.8,11.855a13.987,13.987,0,0,0-.18-2.555h4.247a13.749,13.749,0,0,0-.18,2.555v1.3H305.5a18.049,18.049,0,0,0,2.3-3.672l3.564,1.333a25.415,25.415,0,0,1-1.764,2.339h2.484a28.9,28.9,0,0,0,3.491-.144,30.049,30.049,0,0,0-.144,3.275v1.872a16.007,16.007,0,0,0,.144,2.34h-3.707V16.1H288.011v4.391H284.3a19.344,19.344,0,0,0,.144-2.447V16.066a27.69,27.69,0,0,0-.144-3.059,34.053,34.053,0,0,0,3.672.144h2.195a12.329,12.329,0,0,0-1.943-2.268L291.754,9.7a21.794,21.794,0,0,1,2.412,3.456H297.8Zm11.986,9.719c0,.864.036,1.44.072,2.34a27.439,27.439,0,0,0-3.276-.108H293.266c-1.188,0-2.088.036-3.275.143a21.774,21.774,0,0,0,.108-2.3V19.414a18.039,18.039,0,0,0-.108-2.268c1.115.073,2.051.109,3.491.109H306.4c1.4,0,2.448-.036,3.492-.109a22.525,22.525,0,0,0-.108,2.3ZM291.43,28.485h16.954V27.333H291.43Zm0,3.348h16.954V30.645H291.43Zm0,3.419h16.954v-1.26H291.43Zm2.232-15.55v1.656h12.526V19.7Z"/>
          <path class="cls-1" d="M328.187,40.111a32.964,32.964,0,0,0-4.644.181,18.376,18.376,0,0,1,.936-4.607,17.767,17.767,0,0,1,4.932-7.056,49.677,49.677,0,0,1,5.939-4.356c3.312-2.267,4.319-3.455,4.319-5.291,0-2.448-1.907-3.96-4.967-3.96a5.089,5.089,0,0,0-4.572,2.124,6.861,6.861,0,0,0-1.115,3.312l-5.148-.612a10.8,10.8,0,0,1,2.484-5.759c1.8-2.088,4.644-3.2,8.243-3.2,6.3,0,10.187,3.024,10.187,7.955a7.309,7.309,0,0,1-2.556,5.76c-1.008.935-1.368,1.223-6.047,4.427a31.346,31.346,0,0,0-4.283,3.6,8.642,8.642,0,0,0-2.052,3.239h10.078a37.825,37.825,0,0,0,5.256-.288v4.751c-1.692-.143-3.132-.216-5.436-.216Z"/>
          <path class="cls-1" d="M352.451,37.771a10.07,10.07,0,0,1-2.376-3.634,24.093,24.093,0,0,1-1.4-8.28c0-3.815.864-7.775,2.2-9.97a10.235,10.235,0,0,1,9.179-5,10.46,10.46,0,0,1,7.6,2.916,10.086,10.086,0,0,1,2.376,3.636,24.2,24.2,0,0,1,1.4,8.35c0,4.428-.971,8.316-2.663,10.655a10.218,10.218,0,0,1-8.747,4.248A10.364,10.364,0,0,1,352.451,37.771ZM363.933,35c1.62-1.691,2.52-5.039,2.52-9.251,0-4.175-.9-7.45-2.52-9.215a5.206,5.206,0,0,0-3.923-1.512,4.841,4.841,0,0,0-4.031,1.836c-1.584,1.872-2.376,4.824-2.376,8.747,0,3.78.684,6.912,1.835,8.568a5.728,5.728,0,0,0,8.5.827Z"/>
          <path class="cls-1" d="M377.65,40.111a32.947,32.947,0,0,0-4.643.181,18.376,18.376,0,0,1,.936-4.607,17.765,17.765,0,0,1,4.931-7.056,49.856,49.856,0,0,1,5.939-4.356c3.312-2.267,4.32-3.455,4.32-5.291,0-2.448-1.908-3.96-4.967-3.96a5.089,5.089,0,0,0-4.572,2.124,6.85,6.85,0,0,0-1.116,3.312l-5.147-.612a10.791,10.791,0,0,1,2.483-5.759c1.8-2.088,4.644-3.2,8.243-3.2,6.3,0,10.187,3.024,10.187,7.955a7.309,7.309,0,0,1-2.556,5.76c-1.007.935-1.367,1.223-6.047,4.427a31.407,31.407,0,0,0-4.283,3.6,8.667,8.667,0,0,0-2.052,3.239h10.079a37.819,37.819,0,0,0,5.255-.288v4.751c-1.692-.143-3.132-.216-5.435-.216Z"/>
          <path class="cls-1" d="M407.385,40.111a29.733,29.733,0,0,0,.288-4.678V15.6h-1.727a32.238,32.238,0,0,0-3.708.215V11.243a20.006,20.006,0,0,0,3.6.216h3.311a26.181,26.181,0,0,0,3.672-.18,54.244,54.244,0,0,0-.288,5.94V35.433a30.15,30.15,0,0,0,.288,4.678Z"/>
          <path class="cls-1" d="M46.125,74.748a29.98,29.98,0,0,1-12.49,7.523,18.036,18.036,0,0,0-2.34-3.419A27.569,27.569,0,0,0,43.57,72.769H37.343c-.18.612-.288.935-.54,1.8L32.591,74.5a31.432,31.432,0,0,0,2.052-6.659,37.254,37.254,0,0,0,.54-3.923c.648.071,1.656.107,3.42.107h7.378l-.036-2.339H37.882a28.669,28.669,0,0,0-3.311.144V58.334c-.4.4-.576.54-1.08,1.008a12.974,12.974,0,0,0-2.34-2.915c3.06-2.34,4.824-4.608,5.652-7.308l3.851.721c-.5.935-.648,1.223-1.08,1.943h4.608a17.365,17.365,0,0,0,3.527-.216v2.915a13.888,13.888,0,0,0,2.916-5.363l3.815.685a18.107,18.107,0,0,1-.9,2.015H60.38a23.423,23.423,0,0,0,3.959-.215v3.707a28.187,28.187,0,0,0-3.779-.18H57.752c.684,1.008,1.008,1.548,1.584,2.483l-2.952.865h1.728a25.164,25.164,0,0,0,3.347-.145,15.784,15.784,0,0,0-.144,2.592v3.708a16.574,16.574,0,0,0,.144,2.628c-.9-.073-1.907-.109-3.347-.109H49.8l.036,2.412H60.092a24.05,24.05,0,0,0,3.095-.144c-.072.5-.107.72-.144,1.116-.107,1.367-.251,2.52-.324,3.419-.36,3.492-.612,4.428-1.331,5.256-.684.792-1.764,1.08-4.212,1.08-1.08,0-1.8-.036-3.347-.145a15.41,15.41,0,0,0-.9-3.527c1.367.18,3.095.36,3.887.36,1.98,0,2.088-.18,2.34-4.211H49.869l.072,6.011a26.133,26.133,0,0,0,.288,4H45.981A15.534,15.534,0,0,0,46.2,79.68v-.936ZM41.014,58.479A20.527,20.527,0,0,0,39.4,55.1h-1.98a21.514,21.514,0,0,1-2.808,3.239,23.948,23.948,0,0,0,3.275.145Zm5,8.674h-7.38c-.143.9-.18,1.117-.468,2.412h7.884Zm2.051-8.674a11.306,11.306,0,0,0-2.3-2.161c.611-.5.792-.683,1.3-1.151-.577-.036-1.26-.072-2.017-.072H43.066c.432.683.648,1.044,1.44,2.447l-2.988.937Zm7.631,0a24.738,24.738,0,0,0-1.835-3.348h-2.2a17.556,17.556,0,0,1-2.916,3.348Zm-5.939,5.542h7.811V61.682H49.725Z"/>
          <path class="cls-1" d="M76.187,80.111a32.964,32.964,0,0,0-4.644.181,18.376,18.376,0,0,1,.936-4.607,17.767,17.767,0,0,1,4.932-7.056,49.677,49.677,0,0,1,5.939-4.356c3.312-2.267,4.319-3.455,4.319-5.291,0-2.448-1.907-3.96-4.967-3.96a5.089,5.089,0,0,0-4.572,2.124,6.861,6.861,0,0,0-1.115,3.312l-5.148-.612a10.8,10.8,0,0,1,2.484-5.759c1.8-2.088,4.644-3.2,8.243-3.2,6.3,0,10.187,3.024,10.187,7.955a7.309,7.309,0,0,1-2.556,5.76c-1.008.935-1.368,1.223-6.047,4.427a31.346,31.346,0,0,0-4.283,3.6,8.642,8.642,0,0,0-2.052,3.239H87.921a37.825,37.825,0,0,0,5.256-.288v4.751c-1.692-.143-3.132-.216-5.436-.216Z"/>
          <path class="cls-1" d="M111.286,68.881a62.014,62.014,0,0,1-7.415,7.991c-.72.648-.864.792-1.188,1.116l-2.7-3.78a16.757,16.757,0,0,0,3.132-2.375,34.149,34.149,0,0,0,5.687-6.084Zm-7.451-17.854a42.881,42.881,0,0,1,6.191,5.759L106.931,59.7a32.045,32.045,0,0,0-6.192-6.083Zm17.674,8.855a6.543,6.543,0,0,0-.144,1.512,22.333,22.333,0,0,0,1.115,7.235,16.086,16.086,0,0,0,5.04,6.623,22.159,22.159,0,0,0,6.047,3.384,18.274,18.274,0,0,0-2.3,3.815,29.356,29.356,0,0,1-7.236-5.111,18.178,18.178,0,0,1-4.571-7.415,19.337,19.337,0,0,1-3.707,7.091,22.754,22.754,0,0,1-7.74,5.507,11.716,11.716,0,0,0-2.267-3.419,18.682,18.682,0,0,0,6.875-4.463c3.095-3.132,4.823-7.848,4.823-13.139a8.988,8.988,0,0,0-.144-1.62Zm5.687-5.111a20.03,20.03,0,0,0,3.491-.216l2.16,2.088c-.252.612-.36.864-.792,1.872a32.492,32.492,0,0,1-5.111,8.711,16.578,16.578,0,0,0-3.312-2.268,18.985,18.985,0,0,0,4.464-6.731h-11.95a30.411,30.411,0,0,1-5.328,7.558,12.106,12.106,0,0,0-2.987-2.915,23.359,23.359,0,0,0,7.307-13.391l4.319.756c-.288.684-.36.9-1.08,2.808-.216.576-.36,1.008-.648,1.728Z"/>
          <path class="cls-1" d="M140.483,65.174a30.774,30.774,0,0,0-3.924.216V61.862a30.171,30.171,0,0,0,3.924.216H144.3a6.8,6.8,0,0,0-1.259-1.836l2.735-.864c-1.836.036-1.836.036-3.347.036a13.4,13.4,0,0,0-1.3-2.411V58.73h-3.888a19.139,19.139,0,0,0,.18-2.7V54.015a18.779,18.779,0,0,0-.144-2.663,39.135,39.135,0,0,0,3.96.143h9.395a10.788,10.788,0,0,0-.18-2.376h4.355a11.6,11.6,0,0,0-.18,2.376H164.6c1.728,0,2.879-.036,4-.143a16.934,16.934,0,0,0-.144,2.663V56.03a18.8,18.8,0,0,0,.144,2.664h-3.887v-.828c-1.836.288-2.7.4-4.572.576l2.844,1.008c-1.224,1.872-1.3,1.98-1.764,2.628h4.068a29.6,29.6,0,0,0,3.959-.216V65.39a31.361,31.361,0,0,0-3.959-.216h-6.263A26.023,26.023,0,0,0,170,70.717a10.443,10.443,0,0,0-1.692,3.6,26.384,26.384,0,0,1-3.527-1.62v6.012a30.4,30.4,0,0,0,.18,3.852h-3.924V81.228H144.694v1.3H140.7a30.553,30.553,0,0,0,.216-3.851V72.66c-1.08.576-1.62.828-3.06,1.477a10.223,10.223,0,0,0-1.908-3.384,27.388,27.388,0,0,0,10.511-5.579Zm.648-8.6c1.368.036,1.583.036,2.3.036,8.134,0,14.578-.54,19.041-1.62l2.232,2.449V54.807H141.131ZM144.694,73.7h6.192V71.8h-6.192Zm0,4.608h6.192V76.368h-6.192Zm6.227-19.15c-1.547.072-3.059.145-4.463.18a26.025,26.025,0,0,1,1.62,2.736h2.843Zm-.144,6.012a27.288,27.288,0,0,1-4.139,3.815h12.419a35.426,35.426,0,0,1-4.284-3.815h-.18c0,.252.036.792.036,1.079v.5a6.413,6.413,0,0,0,.144,1.476h-4a6.679,6.679,0,0,0,.144-1.511v-.5c0-.217,0-.721.037-1.044Zm3.78,8.53h6.479V71.8h-6.479Zm0,4.608h6.479V76.368h-6.479Zm.072-16.234h2.88a14.6,14.6,0,0,0,2.123-3.6c-.683.072-1.259.143-1.583.179-1.908.18-1.908.18-3.42.288Z"/>
          <path class="cls-1" d="M186.669,52.215a12.367,12.367,0,0,0-.215-2.772H190.7a13.891,13.891,0,0,0-.216,2.772v.468h10.151a31.389,31.389,0,0,0,4.067-.216v3.887a34.057,34.057,0,0,0-4.067-.215h-6.731a25.451,25.451,0,0,0,11.986,6.515,21.182,21.182,0,0,0-2.2,3.78,27.849,27.849,0,0,1-4.5-2.161c-.036,1.189-.036,1.189-.036,2.268V77.952h1.98a28.506,28.506,0,0,0,3.959-.216v3.923a33.512,33.512,0,0,0-4.247-.216H176.843a34.553,34.553,0,0,0-4.284.216V77.736a30.432,30.432,0,0,0,4.032.216h1.836V66.218c0-1.044,0-1.26-.036-1.981a29.469,29.469,0,0,1-4.32,2.124,15.148,15.148,0,0,0-2.232-3.455,27.861,27.861,0,0,0,11.411-6.767h-6.227a33.019,33.019,0,0,0-4.032.215V52.467a32.658,32.658,0,0,0,4.32.216h9.358Zm0,6.731s0-.612.037-1.763a25.159,25.159,0,0,1-6.012,5.615h16.055a22.435,22.435,0,0,1-6.336-5.8c.036,1.044.072,1.691.072,1.943v.792a10.471,10.471,0,0,0,.18,2.3H186.49a13.138,13.138,0,0,0,.179-2.34Zm-4.427,9.035h13.1V66h-13.1Zm0,5h13.1V70.969h-13.1Zm0,4.968h13.1v-1.98h-13.1Z"/>
          <path class="cls-1" d="M208.487,63.086a16.194,16.194,0,0,0,2.88.18h2.7a15.954,15.954,0,0,0,2.736-.18,36.272,36.272,0,0,0-.144,3.924v7.522a4.984,4.984,0,0,0,2.592,2.628c1.62.756,3.815,1.044,7.919,1.044a104.965,104.965,0,0,0,14.974-.792,18.881,18.881,0,0,0-1.08,4.247c-3.2.145-7.883.216-12.13.216-5.364,0-7.847-.216-9.647-.791a8.424,8.424,0,0,1-4.463-3.313,33.424,33.424,0,0,1-4.176,3.493,13.47,13.47,0,0,0-1.188.935L207.7,78.1a21.519,21.519,0,0,0,5.184-3.564V66.793H210.9a12.56,12.56,0,0,0-2.412.181Zm3.132-13.139a43.722,43.722,0,0,1,6.263,6.516L214.9,59.378a36.339,36.339,0,0,0-6.12-6.731Zm21.309,22.245h4.32a23.12,23.12,0,0,0,3.635-.179V75.72a24.753,24.753,0,0,0-3.6-.18H223.173a25.876,25.876,0,0,0-3.275.145,32.1,32.1,0,0,0,.144-3.636V62.906c0-.757,0-1.26.072-2.124a14.931,14.931,0,0,1-2.2,2.628,11.734,11.734,0,0,0-2.268-3.168,24.984,24.984,0,0,0,6.8-9.359,7.475,7.475,0,0,0,.54-1.583l4.1.683c-.576,1.117-.576,1.117-1.116,2.3-.036.072-.4.756-1.08,1.98h4.5a21.7,21.7,0,0,0,2.3-4.824l3.923.684c-.252.433-.36.648-.864,1.584a24.211,24.211,0,0,1-1.476,2.556h3.744a24.355,24.355,0,0,0,3.563-.18v3.636a23.577,23.577,0,0,0-3.059-.145h-4.608v2.7h2.916a27.515,27.515,0,0,0,3.635-.144v3.347c-1.007-.071-1.655-.107-3.635-.107h-2.916v2.663h2.916a27.752,27.752,0,0,0,3.635-.143v3.347c-1.007-.072-1.655-.108-3.635-.108h-2.916Zm-3.671-14.614h-5.471v2.7h5.471Zm0,5.8h-5.471v2.663h5.471Zm-5.471,5.759v3.059h5.471V69.133Z"/>
          <path class="cls-1" d="M258.562,53.188a21.628,21.628,0,0,0-.216-3.565h4.5a23.174,23.174,0,0,0-.216,3.565V61.07h7.7V55.2a21.626,21.626,0,0,0-.144-2.844h4.319a20.829,20.829,0,0,0-.179,3.131v7.164a19.724,19.724,0,0,0,.108,2.3c-.792-.072-1.656-.108-2.52-.108h-9.287V76.656h8.891V70.681a19.158,19.158,0,0,0-.18-3.06H275.7a28.812,28.812,0,0,0-.179,3.42v7.774a22.747,22.747,0,0,0,.215,3.6H271.52V80.544H250.1v1.871h-4.212a26.1,26.1,0,0,0,.216-3.6v-7.63a29.921,29.921,0,0,0-.18-3.456h4.356a17.788,17.788,0,0,0-.18,3.1v5.831h8.459V64.85h-8.639c-.972,0-1.728.036-2.592.108.072-.792.108-1.477.108-2.3V55.526a20.039,20.039,0,0,0-.18-3.167h4.32a21.007,21.007,0,0,0-.144,2.879V61.07h7.127Z"/>
          <path class="cls-1" d="M289.45,71.4a12.746,12.746,0,0,0-.072-1.727c-.612.324-.936.468-1.836.864a12.553,12.553,0,0,0-1.763-2.484V78.24A29.974,29.974,0,0,0,286,82.631h-4.248a36.882,36.882,0,0,0,.216-4.356V61.79a29.246,29.246,0,0,0-.144-3.1c.576.073,2.412.144,3.564.144h4.247a12.433,12.433,0,0,0-1.368-3.2h-3.779a29.953,29.953,0,0,0-4,.179V51.963a36.648,36.648,0,0,0,4.248.216h9.9v-.936a14.725,14.725,0,0,0-.18-2.231h4.391l-.036.359a11.232,11.232,0,0,0-.144,1.872v.936h10.4a33.7,33.7,0,0,0,4.247-.216v3.851a29.608,29.608,0,0,0-4-.179H305.4a17.454,17.454,0,0,1-1.584,3.2h4.644a23.963,23.963,0,0,0,3.383-.144,23.01,23.01,0,0,0-.144,3.1V78.384c0,3.059-1.115,4-4.823,4q-.648,0-4-.108a11.443,11.443,0,0,0-.863-3.6h-8.927v1.584h-3.78a18.4,18.4,0,0,0,.144-2.7Zm-3.671-9.142v5.147c3.635-1.116,5.183-2.555,5.507-5.147Zm9.25,0c-.467,3.168-1.763,5.039-4.787,6.947,1.044.036,1.26.036,2.088.036h8.927a26.634,26.634,0,0,0,2.987-.108c-.072.936-.108,1.8-.108,2.628v4.247a20.025,20.025,0,0,0,.144,2.7q1.458.108,2.376.107c.972,0,1.224-.179,1.224-.971V66.434c-.648,1.332-1.584,1.619-5.148,1.619-2.339,0-3.311-.144-3.959-.539a1.83,1.83,0,0,1-.9-1.765V62.258Zm4.644-3.42a15.179,15.179,0,0,0,1.476-3.2h-8.711a15.567,15.567,0,0,1,1.332,3.2Zm-6.551,16.7h7.559V72.373h-7.559ZM307.88,62.258h-6.335v2.088c0,.612.252.719,1.943.719,1.261,0,1.764-.107,1.944-.431a3.305,3.305,0,0,0,.252-1.62c.972.431,1.476.648,2.2.9Z"/>
          <path class="cls-1" d="M317.351,69.493a33.611,33.611,0,0,0-.144-3.456,32.281,32.281,0,0,0,3.492.145h7.883c1.043,0,1.835-.036,2.7-.109a21.09,21.09,0,0,0-.108,3.132v9.61a24.769,24.769,0,0,0,.144,3.241H327.43v-1.3h-6.263v1.871h-4a27.052,27.052,0,0,0,.18-3.887Zm3.78,7.775h6.3V69.673h-6.3Zm1.008-23.649a27.484,27.484,0,0,0-.144-3.2,29.429,29.429,0,0,0,4.067.181h13.57a28.148,28.148,0,0,0,4.1-.181,25.673,25.673,0,0,0-.144,3.168v6.659a28.557,28.557,0,0,0,.144,3.348,32.724,32.724,0,0,0-3.744-.145H325.738A32.7,32.7,0,0,0,322,63.59a29.9,29.9,0,0,0,.144-3.312Zm3.851,6.335h13.715V54.2H325.99Zm19.294,6.228a24.969,24.969,0,0,0,3.2-.145,31.028,31.028,0,0,0-.144,3.456V78.78a25.3,25.3,0,0,0,.18,3.851h-4.031V80.76h-6.839v1.871H333.8c.072-1.008.108-1.728.108-3.2v-10.4c0-1.62,0-2.2-.072-2.952.828.073,1.584.109,2.664.109Zm-7.631,11.086h6.875V69.673h-6.875Z"/>
          <path class="cls-1" d="M365.842,52.431c-.18,1.044-.432,2.52-.792,4.464-.108.612-.108.612-.216,1.08,1.08-.037,1.583-.073,2.231-.073a6.974,6.974,0,0,1,5.328,1.909c1.224,1.367,1.691,3.095,1.691,6.371,0,6.191-1.043,11.122-2.771,13.1a4.559,4.559,0,0,1-4,1.619,16.689,16.689,0,0,1-5.543-1.08c.036-.683.072-1.223.072-1.583a13.508,13.508,0,0,0-.36-3.059,15.087,15.087,0,0,0,5.256,1.439c1.044,0,1.619-.683,2.159-2.447a31.985,31.985,0,0,0,.936-8.207c0-3.312-.828-4.284-3.6-4.284-.756,0-1.332.036-2.16.108a77.305,77.305,0,0,1-7.343,19.581l-4.176-2.3c2.772-3.779,5.544-10.258,7.235-16.953-.54.072-.54.072-1.691.288l-3.276.539a15.056,15.056,0,0,0-1.476.361l-.432-4.247a74.2,74.2,0,0,0,7.667-.756,50.639,50.639,0,0,0,.936-7.272v-.648l4.68.469a8.4,8.4,0,0,0-.288,1.115Zm10.942-1.476a23.33,23.33,0,0,1,3.78,5.292l-2.52,1.331a24.311,24.311,0,0,0-3.779-5.363Zm3.348,7.127a33.484,33.484,0,0,1,5.4,11.447l-4.1,2.052a33.667,33.667,0,0,0-4.932-11.7Zm2.232-2.771a26.517,26.517,0,0,0-3.672-5.219l2.412-1.26a20.791,20.791,0,0,1,3.743,5.075Z"/>
          <path class="cls-1" d="M33.491,98.586a35.408,35.408,0,0,1,6.479,4.536l-2.3,3.348a35.052,35.052,0,0,0-6.48-4.932Zm6.371,12.239a55.043,55.043,0,0,1-3.959,9.5c-.252.469-1.008,1.8-1.116,2.017l-3.42-2.989c2.016-2.447,3.456-5.363,5.328-10.8ZM35.039,89.7a30.413,30.413,0,0,1,6.3,4.787l-2.52,3.241a27.515,27.515,0,0,0-6.3-5.148Zm18.682,18.79c2.159,4.679,5.651,7.847,11.014,10.007a13.176,13.176,0,0,0-2.124,4.1c-5.363-2.773-9.43-6.8-11.266-11.267-1.764,5.111-4.86,8.53-10.475,11.519a12.116,12.116,0,0,0-2.484-3.636c5.688-2.412,8.639-5.615,9.827-10.727H44.758a30.812,30.812,0,0,0-4.032.216v-4.283a31.376,31.376,0,0,0,4,.216h4.031c.18-2.052.252-4.14.288-6.155H46.054a35.908,35.908,0,0,0-3.816.179V94.591c1.116.108,2.3.18,3.816.18h2.951V92.827a16.577,16.577,0,0,0-.252-3.384h4.392a14.181,14.181,0,0,0-.252,3.348v1.98H58.4a25.069,25.069,0,0,0,3.348-.144,19.243,19.243,0,0,0-.144,2.88v7.127a21.728,21.728,0,0,0,3.023-.216V108.7a31.769,31.769,0,0,0-3.995-.216Zm4.1-3.851V98.479H52.856c-.035,2.879-.107,4.283-.287,6.155Z"/>
          <path class="cls-1" d="M82.449,103.338H77.158a25.628,25.628,0,0,0-3.636.18V99.7a24.127,24.127,0,0,0,3.636.18H90.944a25.2,25.2,0,0,0,3.708-.18v3.816a25.809,25.809,0,0,0-3.708-.18H86.229v4.607h6.8a18.466,18.466,0,0,0,3.528-.216v3.852a24.283,24.283,0,0,0-3.528-.181h-6.8v6.192a42.079,42.079,0,0,0,5.867.36c2.088,0,4.536-.108,8.207-.432a14,14,0,0,0-1.008,4.1c-2.951.072-4.823.108-7.667.108-8.422,0-13.138-1.835-16.09-6.191a25.512,25.512,0,0,1-4.931,7.056,9.8,9.8,0,0,0-3.1-2.952A21.317,21.317,0,0,0,73.7,109.457a22.3,22.3,0,0,0,.719-3.888l4,.756c-.18.613-.18.649-.5,2.124-.18.72-.4,1.548-.936,3.239a10.433,10.433,0,0,0,5.471,5Zm-.612-11.555a11.653,11.653,0,0,0-.215-2.3h4.427a10.937,10.937,0,0,0-.18,2.268v1.368h9.719c1.44,0,2.663-.036,4-.144a19.807,19.807,0,0,0-.144,2.664v2.807a23.244,23.244,0,0,0,.144,2.808H95.7v-4.5H72.443v4.5h-4a15.91,15.91,0,0,0,.18-2.844V95.635c0-.936-.072-1.836-.144-2.664,1.3.108,2.52.144,3.96.144h9.394Z"/>
          <path class="cls-1" d="M114.382,90.991a32.908,32.908,0,0,0-.432,4.86c-.144,3.347-.36,10.654-.36,13.21,0,3.419.216,4.715.936,5.795.828,1.188,2.556,1.873,4.823,1.873,3.888,0,7.02-2.2,8.711-6.156a24.122,24.122,0,0,0,1.656-6.048,15.558,15.558,0,0,0,4.355,2.772c-1.439,4.859-2.519,7.2-4.283,9.18a13.626,13.626,0,0,1-10.8,4.571,11.736,11.736,0,0,1-6.3-1.584c-2.483-1.656-3.527-4.428-3.527-9.251,0-1.872.071-5.472.288-14.506.036-1.08.036-1.836.036-2.34a17.9,17.9,0,0,0-.144-2.448Z"/>
          <path class="cls-1" d="M167.912,120.075a24.307,24.307,0,0,0-6.66-4.93,15.858,15.858,0,0,0-1.943-.9v.4c0,2.267-.648,3.815-2.016,4.859a9.583,9.583,0,0,1-5.939,1.548c-5.255,0-8.279-2.052-8.279-5.615,0-3.924,3.563-6.228,9.611-6.228a18.794,18.794,0,0,1,2.411.144,7.134,7.134,0,0,0-.035-.864v-.792c-.037-.5-.037-.5-.073-1.944-1.727.036-2.843.072-3.6.072-2.2,0-3.528-.036-6.515-.252-.468-.036-.828-.036-1.368-.036l.072-3.887a46.4,46.4,0,0,0,8.387.612c.72,0,1.944-.036,2.951-.072,0-.324,0-1.548-.036-3.6-1.152.036-1.727.036-2.267.036-1.764,0-6.407-.18-8.819-.359-.4-.036-.684-.036-.792-.036h-.576l.036-4a47.254,47.254,0,0,0,9.683.756c.576,0,1.8-.035,2.7-.071a25.637,25.637,0,0,0-.179-4.536h4.571a22.327,22.327,0,0,0-.252,4.392A48.769,48.769,0,0,0,169.352,93.4l.18,3.995a22.823,22.823,0,0,0-2.844.325c-3.167.431-4.571.54-7.739.719.036.9.036,1.332.072,3.564,1.8-.109,1.8-.109,5.111-.468a26.643,26.643,0,0,0,4.464-.792l.108,3.959c-.612.036-1.512.145-2.34.253-.54.071-2.16.252-4.86.5-.5.035-1.044.071-2.447.143.108,3.492.108,3.492.144,4.356a32.176,32.176,0,0,1,9.862,5.075c.612.4.792.54,1.3.828Zm-15.73-7.306c-2.916,0-4.68.935-4.68,2.483,0,1.332,1.548,2.16,4.1,2.16a3.736,3.736,0,0,0,3.131-1.152,4.564,4.564,0,0,0,.432-2.3v-.863A12.627,12.627,0,0,0,152.182,112.769Z"/>
          <path class="cls-1" d="M186.382,90.991a32.908,32.908,0,0,0-.432,4.86c-.144,3.347-.36,10.654-.36,13.21,0,3.419.216,4.715.936,5.795.828,1.188,2.556,1.873,4.823,1.873,3.888,0,7.02-2.2,8.711-6.156a24.122,24.122,0,0,0,1.656-6.048,15.558,15.558,0,0,0,4.355,2.772c-1.439,4.859-2.519,7.2-4.283,9.18a13.626,13.626,0,0,1-10.8,4.571,11.736,11.736,0,0,1-6.3-1.584c-2.483-1.656-3.527-4.428-3.527-9.251,0-1.872.071-5.472.288-14.506.036-1.08.036-1.836.036-2.34a17.9,17.9,0,0,0-.144-2.448Z"/>
          <path class="cls-1" d="M213.419,95.778a28.521,28.521,0,0,0,4.824.325c.431,0,.827,0,1.655-.037a43.67,43.67,0,0,0,.684-5.506,4.891,4.891,0,0,0-.036-.649l4.751.433a20.347,20.347,0,0,0-.683,3.455c-.18,1.008-.216,1.223-.36,2.052a29.88,29.88,0,0,0,6.155-1.08l.18,4.139c-.288.036-.288.036-1.152.18a48.86,48.86,0,0,1-5.9.756c-.4,2.232-1.3,6.048-2.232,9.323a122.352,122.352,0,0,1-4.031,11.915l-4.536-1.765c2.484-4.571,5.256-12.958,6.443-19.365a3.048,3.048,0,0,1-.468.036h-2.087c-.18,0-.54,0-1.152-.036-.648-.036-1.152-.036-1.44-.036a5.375,5.375,0,0,0-.684.036Zm17.854,13.967c-1.44,1.8-1.872,2.7-1.872,3.959,0,1.836,1.8,2.773,5.4,2.773a27.571,27.571,0,0,0,8.171-1.332l.324,4.426c-.648.073-.936.109-1.763.252a41.777,41.777,0,0,1-6.7.576c-3.2,0-5.507-.467-7.235-1.439a5.2,5.2,0,0,1-2.556-4.428c0-1.907.684-3.527,2.664-6.227Zm10.69-4.716a37.653,37.653,0,0,0-4.535-.252,38.849,38.849,0,0,0-9.5,1.044l-.324-3.959a46.192,46.192,0,0,1,10.727-1.152c.972,0,1.3,0,3.564.036Z"/>
          <path class="cls-1" d="M254.709,112.444c.036-.756.072-1.115.072-1.548,0-.395,0-.395-.108-2.555l-.5-12.238c-.072-1.584-.18-3.384-.324-4.392h5.9c-.108.972-.252,2.844-.324,4.392l-.5,12.238c-.072,2.088-.072,2.088-.072,2.592a12.842,12.842,0,0,0,.072,1.511Zm-.5,7.883V115.4h5.219v4.931Z"/>
        </g>
        <rect class="cls-1" width="15" height="135"/>
      </g>
    </g>
  </g>
</svg>
