<svg xmlns="http://www.w3.org/2000/svg" viewBox="0 0 560 59.08"><defs><style>.f8eab42a-3358-4e18-b36c-974701151e43{fill:#ffa000;}</style></defs><title>ttl_award</title><g id="f109f6ee-f066-4e3f-b299-99eadb786dc3" data-name="レイヤー 2"><g id="f4b5a068-2b23-458e-9470-e6277e7d1a40" data-name="編集モード"><rect class="f8eab42a-3358-4e18-b36c-974701151e43" y="54.08" width="560" height="5"/><path class="f8eab42a-3358-4e18-b36c-974701151e43" d="M23.61,1.72c.54.09.88.17.88.55s-.46.59-.71.67c-.13,1.26-.22,2.73-.3,4.45a29.77,29.77,0,0,0,6.6-2.1C30,6.85,30,8.78,30,9.75A16.67,16.67,0,0,0,30.08,12a31.13,31.13,0,0,1-6.89,1.89c0,.47-.09,2.48-.09,2.86a21.17,21.17,0,0,1,7.14-1.26c6.35,0,11.64,4.41,11.64,11.38,0,7.82-5.8,10.46-10,10.46-6.34,0-6.55-5.62-6.59-7.39.88-.29,4.66-1.55,5.21-1.76,0,.84,0,2.81,2,2.81,1.6,0,2.65-1.59,2.65-3.7a5.28,5.28,0,0,0-5.59-5.54,19.79,19.79,0,0,0-6.51,1.47c.17,8.4.21,9.37.55,12.64l-5.76,2.61a56.61,56.61,0,0,0-7.35-6C9.45,33.61,9,34.19,8.36,34.91l-3-7.23c1.94-1.05,9.58-6.84,11.26-7.89,0-1.47,0-1.81,0-5-2.48.13-5.42.17-7.81.17V8.23a17.21,17.21,0,0,0,3.32.26c1.63,0,4-.17,4.49-.17,0-3.15,0-3.61-.17-7.82ZM14.2,28.82a4.54,4.54,0,0,0,1.89,1.09c.63,0,.59-1.47.54-3.07C16.13,27.26,15.25,27.89,14.2,28.82ZM36.13,6.47a35.71,35.71,0,0,1,9.15,6.72,29.6,29.6,0,0,0-4.07,5.08,24.49,24.49,0,0,0-8.91-6.59Z"/><path class="f8eab42a-3358-4e18-b36c-974701151e43" d="M75.52,2.6c.46.17.71.3.71.68,0,.58-.71.71-1.21.75-.47.72-1,1.56-2.48,4.41,2.22.21,4.37.3,5.25.3s1.47,0,2.06-.09A31.07,31.07,0,0,0,78,15.29a50.81,50.81,0,0,1-7.94-.38c-.5,1.14-1.09,2.65-1.51,3.7a63.86,63.86,0,0,0,9.32.63c-.8,2.27-1.47,4.91-1.8,6.22-2.57-.17-5.46-.42-9.41-1a13.42,13.42,0,0,0-.47,3.4C66.19,33,70.94,33,73,33c1.81,0,8.15,0,8.15-6.1,0-2.68-1.93-6.25-2.14-6.55a19.81,19.81,0,0,0,6.34-2.27c1,1.85,2.9,5.84,2.9,9.54C88.25,36.84,78.5,39,73,39c-8.44,0-13.11-4.37-13.11-10.54a20.68,20.68,0,0,1,.63-5.08,35.79,35.79,0,0,1-5.46-1.56l1.43-6.22a39.22,39.22,0,0,0,5.67,1.81c.17-.54.46-1.47,1.26-3.74a35.72,35.72,0,0,1-6.26-2.1L58.42,5a51.14,51.14,0,0,0,7.44,2.31c.42-1.13,2.43-6.26,2.86-7.31Z"/><path class="f8eab42a-3358-4e18-b36c-974701151e43" d="M118.65,2c.34.08.8.25.8.67,0,.25-.21.54-.92.59-.93,2.85-1,3.15-1.22,3.78A64.37,64.37,0,0,0,131,3.74c.21,1.39.76,4.58,1.18,6.26A73,73,0,0,1,115,13.57c-1,2.77-1.35,3.61-2.19,5.67a24.9,24.9,0,0,1,10.93-2.86c11.21,0,11.8,7.9,11.8,10a10.41,10.41,0,0,1-4.49,8.49c-2.23,1.51-6.43,4-18.07,4-1.76,0-3-.13-3.9-.21a29.73,29.73,0,0,0-1.56-6.26,60.62,60.62,0,0,0,6.26.38c1,0,8.15,0,12.48-2.56a4.3,4.3,0,0,0,2.27-3.95c0-2.44-1.26-4.5-5.13-4.5-3.7,0-9.62,1.89-14.53,7l-6.05-3A58.65,58.65,0,0,0,108.4,14c-3.65,0-6.55-.13-8.15-.25l-.08-6.89a38.76,38.76,0,0,0,10.17.92A55.92,55.92,0,0,0,111.93.34Z"/><path class="f8eab42a-3358-4e18-b36c-974701151e43" d="M163.38,7.56c.51.59,2.61,3.19,3,3.7a18.26,18.26,0,0,1,4.62-.72,8,8,0,0,1,8.36,8.2c0,7.85-8.53,8.56-12.81,8.9A28.7,28.7,0,0,0,164.64,22c.72,0,1.22,0,1.94,0,1.42,0,6.8,0,6.8-3.69,0-.72-.21-2.36-2.69-2.36-.38,0-.71.05-.92.05.75,1.22,1.17,2,1.55,2.64-1.55.63-4,1.64-5.5,2.31a26.75,26.75,0,0,0-1.55-3.23c-1.56.71-2.48,1.22-3.07,1.55a83.24,83.24,0,0,1,5.88,16.22,52.83,52.83,0,0,0-6,2.9c-.76-5.93-3.79-13.45-4.92-16.13-1.22.88-1.55,1.17-4.75,3.9l-3.78-5.92a54.57,54.57,0,0,0,6-3,32.45,32.45,0,0,0-3.78-5.51l5.71-2.35a2.44,2.44,0,0,1,.88-.25.46.46,0,0,1,.51.46,1.22,1.22,0,0,1-.38.67c.63,1.14,1.64,3,2.27,4.16,1.51-.75,1.89-.92,2.39-1.17-.67-.93-.88-1.22-2.65-3.45Z"/><path class="f8eab42a-3358-4e18-b36c-974701151e43" d="M190.89,16.64V10.59h15.92V.21l6.6.34c.25,0,.79,0,.79.54,0,.34-.42.55-.79.67v8.83H229v6.05h-15.5a30.51,30.51,0,0,0,16.3,18.14c-3.53,2.73-4.33,4.08-4.87,5-4.24-1.89-10.92-7.73-14.75-15.46A32.27,32.27,0,0,1,193.83,40a15,15,0,0,0-4.45-5.59c3.53-1.38,14-5.37,16.8-17.72Z"/><path class="f8eab42a-3358-4e18-b36c-974701151e43" d="M261.2,32.6h-8.86l2.56,2.52a.73.73,0,0,1,.21.42c0,.33-.25.46-.59.46a2.29,2.29,0,0,1-1.05-.29A38.33,38.33,0,0,1,240.7,40a19.63,19.63,0,0,0-3.95-5.37,32.2,32.2,0,0,0,10.8-2.06H241V17.81h30.41V32.6h-6.8a38.6,38.6,0,0,0,10.79,2.27A21,21,0,0,0,271.79,40a41,41,0,0,1-13.86-4.83ZM253.09,4.33V.21L260,.42a.46.46,0,0,1,.5.42c0,.38-.34.55-1.09.92V4.33h3.95a10.62,10.62,0,0,0-1.26-.47A15,15,0,0,0,264.06,0l6.38,2.35c.21.09.42.21.42.47,0,.58-.88.58-1.17.58a6,6,0,0,1-.42.89h6.13V14.45h-6.13V8.65H243.18v6h-6V4.33h6.26a14.48,14.48,0,0,0-1.35-2L247.93,0a19.72,19.72,0,0,1,2.52,3.61,22.86,22.86,0,0,0-2.19.72Zm15.3,5.5v7H244.06v-7Zm-3.15,12.35V21.09h-17.9v1.09Zm-17.9,2.44v1.09h17.9V24.62Zm0,3.53v1.13h17.9V28.15ZM250.2,12.6V14h12.22V12.6Z"/><path class="f8eab42a-3358-4e18-b36c-974701151e43" d="M294,4c.8.29,1.14.42,1.14.71s-.84.47-1.14.51a48.77,48.77,0,0,0-2.73,17.35,14.6,14.6,0,0,0,.3,3.36c.25-.47,1.26-2.31,1.76-3.15a12.16,12.16,0,0,0,3.24,3.44c-1.05,2-3,6.85-2.78,10l-6,1.6a44.27,44.27,0,0,1-3-16.81c0-7.6,1.17-12.81,2.68-19.49Zm11.09,19.74a11.53,11.53,0,0,0-.63,3c0,1.85,1,2.15,5.84,2.15a42.65,42.65,0,0,0,10.38-1.14,27.73,27.73,0,0,0-.63,6.85,89.24,89.24,0,0,1-10.63.55c-6.26,0-11.09-1.1-11.09-6.22a15.55,15.55,0,0,1,1.39-6.18ZM300.05,5.75c1.26.09,2.94.22,5.46.22a48.49,48.49,0,0,0,12.35-1.35,62.4,62.4,0,0,0,.59,6.39,63,63,0,0,1-12.94,1.26c-2.48,0-4.12-.13-5.46-.21Z"/><path class="f8eab42a-3358-4e18-b36c-974701151e43" d="M328.69,9A33.56,33.56,0,0,0,334,8c11.85-3.1,14.71-3.82,19.33-3.82,10.08,0,14.49,6.68,14.49,14.07,0,15.84-19.11,17-25.88,17.35a27.75,27.75,0,0,0-2.14-6.72c7.56,0,20.92-.21,20.92-10.54,0-2.19-.75-8-8.19-8-6.26,0-16.63,4.25-21.17,6.81Z"/><path class="f8eab42a-3358-4e18-b36c-974701151e43" d="M385.43,4.87c.38.13.85.26.85.63,0,.55-.51.63-.89.68A37.62,37.62,0,0,0,383,18.82c0,5.12,1.6,8.7,2.81,8.7s2.95-3.7,4.08-6.35a19,19,0,0,0,4.41,4.45c-3.36,8.15-7.18,11-9.24,11-2.35,0-8.57-5-8.57-18a74.58,74.58,0,0,1,2.06-15.71Zm20.29.3a41.76,41.76,0,0,1,8.49,21.13c-2.48,1-5.46,2.39-6.85,3.11a38.31,38.31,0,0,0-7.05-20.8Z"/><path class="f8eab42a-3358-4e18-b36c-974701151e43" d="M459.74,8.19c-12-.12-19.16,10.42-19.16,15.88,0,7,9.5,7.48,11.72,7.6a37.44,37.44,0,0,0-3.15,7.56c-7.35-1.72-15.46-5.62-15.46-14.66,0-7.72,5.8-12.56,7.44-13.9a142,142,0,0,0-17.35,2.48l-.88-7.9c.92,0,1.8.13,3.15.13,6.17,0,22.93-1.18,32.47-4.16Z"/></g></g></svg>