<svg xmlns="http://www.w3.org/2000/svg" width="560" height="59.04"><path d="M0 54.04h560v5H0zM32.72 31v-9.79l6.35.38c.58 0 1.17.09 1.17.55s-.54.59-1.05.75v16.34h-6.47v-2.18H9.28v2.18H2.86v-18l6.21.34c.68 0 1.26.08 1.26.55s-.71.67-1.05.75V31h8.45V19.79H4.37V2.86l6.76.37c.25 0 .84 0 .84.55s-.46.55-1 .72v9.36h6.77V.59l6.34.46c.71 0 1.26.08 1.26.55s-.38.58-1.09.88v11.38h6.68v-11l6.93.37c.33 0 .8 0 .8.51s-.55.59-1 .76v15.29H24.24V31zm52.71-3.06c.3.21.38.37.38.58 0 .47-.42.51-1 .51a35.94 35.94 0 01-3.57 3.19 19.15 19.15 0 005.55 2.23 14 14 0 00-3.45 4.91 26.16 26.16 0 01-10.54-7.14 20.38 20.38 0 00-.5 4c-3.32.67-11 2.15-14.41 2.61-.17.33-.38.67-.76.67s-.54-.25-.63-.67l-1.22-5c.84-.09 4.58-.68 5.34-.76v-6h-4.38c-.25 1.68-1.47 8.07-3.74 11.6a15.16 15.16 0 00-5.38-2.4 25.37 25.37 0 003.11-8.57 63.57 63.57 0 00.67-10V1.72h34v10.59H57v6.47c0 .42-.08 2.43-.16 3.23h4.62v-2.56H58V15h3.45v-2.52l5.42.29c.37 0 1.59.21 1.59.76 0 .21-.21.63-1.3.75V15h5.42v-2.52l5.5.33c.25 0 1.56.17 1.56.67 0 .26-.34.63-1.39.8V15h6.72v4.45h-6.76V22H86v5h-1.66zM57 6v1.86h22V6zm9.58 26.13c1.18-.21 4.37-.8 5.25-1A25.43 25.43 0 0169 27.05h-2.47zM67.12 22h5.42v-2.55h-5.42zm8.32 5a11.65 11.65 0 001.68 2 28 28 0 002.31-2zm42.88-14.23V.8l6.85.29a.46.46 0 01.5.42c0 .38-.42.55-.84.67v10.59h6.76v6.09h-6.76v13.78h8v5.8h-24.26v-5.8h9.75V18.86h-6.93v-5.17a29.4 29.4 0 01-3.15 5.21 36.41 36.41 0 005.88 5.1 18.49 18.49 0 00-3.87 4.58 23.89 23.89 0 01-4.37-3.87v14.57h-6.21V28.1c-1.77 1.43-2.4 1.94-3.41 2.65a12.11 12.11 0 00-3.78-5.21c4.46-2.56 9.75-7.69 11.22-11.09h-9.24V8.61h5.21V.8l6.21.17c.26 0 .68.08.68.54 0 .21-.17.42-.68.76v6.34h4l2.68 2.61c-.12.25-.67 1.34-.75 1.55zM160.15 32c9.12-1.68 11.8-8.74 11.8-13.11 0-3.4-1.8-9.66-9.7-10.29-1.3 15.37-7.65 26.84-12.1 26.84-3.27 0-9.37-5.54-9.37-13.31 0-9 8.24-19.58 20.59-19.58 9.2 0 17.22 6.26 17.22 16.3a19.57 19.57 0 01-5 13c-2.56 3-5.54 4.54-9.11 6.09a27.06 27.06 0 00-4.33-5.94zM147 21.59c0 3.24 1.81 5.67 2.69 5.67s1.81-1.89 2.27-3a36.82 36.82 0 003.23-14.45c-4.87 1.83-8.19 8-8.19 11.78zm63.34 16.81h-7.23V19.28a76 76 0 01-11.63 6 20.69 20.69 0 00-5-6c16-4.54 26-16 28.6-19.24l5.59 4.41a1 1 0 01.51.8c0 .38-.34.54-.68.54a2.77 2.77 0 01-.84-.12c-3 3.57-9 8.4-9.28 8.61zm22.05-17.52c3-2.31 3.52-2.94 10.37-11 3.36-4 5.55-4.12 6.55-4.12 2.06 0 3.62 1.1 5.63 3.45 8.83 10.42 11.39 13.44 17.73 18.57a35 35 0 00-4.41 6.09c-2.27-2.19-4.62-4.41-15.46-17.18a26.47 26.47 0 00-2.8-3.16 1.29 1.29 0 00-.89-.34c-1 0-2.31 1.6-3.4 2.86-1.22 1.43-6.3 8.06-7.35 9.41a1.23 1.23 0 01.25.75.47.47 0 01-.5.46c-.3 0-.46-.12-.8-.5zm31-16.51a30.28 30.28 0 014.41 4.49 24.89 24.89 0 00-3.11 2.94 49.88 49.88 0 00-4.37-4.66zM267.76.5a42.88 42.88 0 014.16 4.5 36.5 36.5 0 00-2.95 3 39.92 39.92 0 00-4.28-4.87zM285.64 2c7.06 3.61 9.24 5.71 10.5 6.89-1 1.21-1.3 1.68-4.07 5.71a42.77 42.77 0 00-10.59-6.7zm-3.44 29c12-2.48 23.77-10.58 31.25-22.6a27 27 0 004.33 5.72 55.74 55.74 0 01-13.07 14 69.93 69.93 0 01-17.3 9.36c0 .46-.21.93-.59.93s-.42-.13-.67-.59zm63.88-18.69c6.22 3.15 11.56 6.76 14.67 9.87-1.9 2.73-2.11 3-3.95 5.88a62.13 62.13 0 00-13.11-9.32v19.7h-7.1V1.34l7.1.34c.29 0 .8 0 .8.46s-.46.59-.8.67v12.86z" fill="#ff5064" data-name="レイヤー 2"/></svg>