<svg xmlns="http://www.w3.org/2000/svg" width="105.58" height="30.34" viewBox="0 0 105.58 30.34">
  <defs>
    <style>
      .cls-1 {
        fill: #fff;
      }

      .cls-2 {
        fill: none;
        stroke: #fff;
        stroke-miterlimit: 10;
        stroke-width: 0.84px;
      }
    </style>
  </defs>
  <title>btn_close</title>
  <g id="レイヤー_2" data-name="レイヤー 2">
    <g id="レイヤー_1-2" data-name="レイヤー 1">
      <g>
        <path class="cls-1" d="M53.51,8.73l-1.56,1.82A4.4,4.4,0,0,0,49,9.4c-2.18,0-3.89,1.61-3.89,5.91s1.66,5.89,3.93,5.89a5.18,5.18,0,0,0,3.22-1.33L53.7,21.7a6.68,6.68,0,0,1-4.78,1.93c-4.12,0-7-2.92-7-8.32s3-8.25,6.9-8.25A6.64,6.64,0,0,1,53.51,8.73Z"/>
        <path class="cls-1" d="M65.26,20.81l-.34,2.48H55.86V7.4h3V20.81Z"/>
        <path class="cls-1" d="M80.53,15.33c0,5.24-2.69,8.3-6.94,8.3s-7-3-7-8.28,2.71-8.3,7-8.3S80.53,10,80.53,15.33Zm-10.72,0c0,4.28,1.45,6,3.77,6s3.75-1.68,3.75-6-1.36-6-3.75-6S69.82,11.08,69.82,15.35Z"/>
        <path class="cls-1" d="M93.2,9l-1.54,1.75a5.06,5.06,0,0,0-3.52-1.38c-1.43,0-2.46.64-2.46,1.89s.62,1.66,3.27,2.48,4.71,2,4.71,5-2.23,4.88-6,4.88a7.9,7.9,0,0,1-5.73-2.18l1.61-1.79a5.66,5.66,0,0,0,4,1.63c1.7,0,2.92-.83,2.92-2.37,0-1.33-.67-1.93-3.15-2.69-3.33-1-4.78-2.37-4.78-4.78,0-2.64,2.28-4.39,5.4-4.39A7.15,7.15,0,0,1,93.2,9Z"/>
        <path class="cls-1" d="M99.3,9.65v4.44h5.11v2.25H99.3V21h6.28v2.28H96.26V7.4h9.22l-.32,2.25Z"/>
      </g>
      <g>
        <rect x="3.79" y="13.91" width="23.69" height="2.37" transform="translate(15.25 -6.64) rotate(45)"/>
        <rect class="cls-1" x="3.79" y="13.91" width="23.69" height="2.37" transform="translate(15.25 -6.64) rotate(45)"/>
        <rect class="cls-1" x="3.79" y="13.91" width="23.69" height="2.37" transform="translate(-6.09 15.48) rotate(-45)"/>
        <rect class="cls-2" x="0.42" y="0.42" width="29.5" height="29.5"/>
      </g>
    </g>
  </g>
</svg>
