<?xml version="1.0" encoding="utf-8"?>
<!-- Generator: Adobe Illustrator 23.0.1, SVG Export Plug-In . SVG Version: 6.00 Build 0)  -->
<svg version="1.1" id="レイヤー_1" xmlns="http://www.w3.org/2000/svg" xmlns:xlink="http://www.w3.org/1999/xlink" x="0px"
	 y="0px" width="318.218px" height="23.042px" viewBox="0 0 318.218 23.042" style="enable-background:new 0 0 318.218 23.042;"
	 xml:space="preserve">
<style type="text/css">
	.st0{fill:#00B4DC;}
</style>
<g>
	<path class="st0" d="M4.322,11.198c1.651,0,2.446,1.128,2.446,2.423c0,1.392-0.867,1.823-1.203,1.991
		c0.367,0.144,1.519,0.564,1.519,2.339c0,1.379-0.815,2.698-2.579,2.698H0v-9.452H4.322z M1.519,12.59v2.566h2.467
		c1.07,0,1.223-0.899,1.223-1.319c0-1.175-0.958-1.247-1.223-1.247H1.519z M1.519,16.44v2.818h2.518
		c0.652,0,1.488-0.323,1.488-1.438c0-1.116-0.826-1.38-1.499-1.38H1.519z"/>
	<path class="st0" d="M9.801,11.198v5.986c0,1.379,0.825,2.206,2.161,2.206c1.254,0,2.232-0.671,2.232-2.219v-5.973h1.519v5.83
		c0,2.723-1.56,3.886-3.68,3.886c-2.252,0-3.761-1.163-3.761-3.97v-5.746H9.801z"/>
	<path class="st0" d="M18.42,11.198l2.161,4.054l2.171-4.054h1.753l-3.16,5.757v3.694h-1.519v-3.694l-3.16-5.757H18.42z"/>
	<path class="st0" d="M31.921,11.198v1.392H27.06v2.53h4.312v1.392H27.06v2.746h4.974v1.392H25.53v-9.452H31.921z"/>
	<path class="st0" d="M37.614,11.198c2.263,0,2.711,1.571,2.711,2.543c0,1.799-1.172,2.267-1.59,2.447
		c0.459,0.108,0.785,0.204,1.122,0.72c0.295,0.456,0.346,1.044,0.346,1.283v0.899c0,1.104,0.184,1.248,0.357,1.392v0.168h-1.662
		c-0.132-0.359-0.214-0.576-0.214-1.331v-0.912c0-1.475-1.091-1.511-1.437-1.511H34.76v3.754h-1.519v-9.452H37.614z M34.76,12.59
		v2.914h2.691c0.713,0,1.315-0.539,1.315-1.487c0-0.995-0.622-1.427-1.315-1.427H34.76z"/>
	<path class="st0" d="M42.818,10.479v1.858c0,1.331-0.999,1.439-1.549,1.476v-0.648c0.642-0.071,0.744-0.348,0.754-0.803h-0.754
		v-1.883H42.818z"/>
	<path class="st0" d="M48.834,13.885c-0.021-0.3-0.092-0.563-0.275-0.887c-0.193-0.336-0.561-0.54-1.284-0.54
		c-0.357,0-1.621,0-1.621,1.056c0,0.827,0.479,1.02,2.558,1.835c1.213,0.479,2.375,0.936,2.375,2.615c0,1.02-0.591,2.95-3.2,2.95
		c-1.55,0-3.425-0.647-3.537-3.143h1.59c0.041,1.056,0.632,1.619,1.906,1.619c0.347,0,0.907-0.06,1.274-0.348
		c0.225-0.18,0.408-0.539,0.408-0.887c0-0.744-0.54-0.972-1.845-1.439c-1.875-0.672-3.099-1.2-3.099-3
		c0-1.019,0.52-2.782,3.078-2.782c1.886,0,2.956,0.756,3.241,2.95H48.834z"/>
	<path class="st0" d="M58.403,11.198c0.989,0,3.924,0.288,3.924,4.773c0,1.883-0.581,3.395-1.631,4.067
		c-0.836,0.539-2.018,0.611-2.293,0.611h-3.16v-9.452H58.403z M56.762,12.59v6.668h1.733c1.029,0,2.273-0.755,2.273-3.334
		c0-2.303-0.999-3.334-2.273-3.334H56.762z"/>
	<path class="st0" d="M67.306,11.198l3.048,9.452h-1.59l-0.561-1.895h-3.537l-0.571,1.895h-1.58l3.038-9.452H67.306z M66.43,12.89
		l-1.376,4.57h2.752L66.43,12.89z"/>
	<path class="st0" d="M71.063,11.198l2.161,4.054l2.171-4.054h1.753l-3.16,5.757v3.694h-1.519v-3.694l-3.16-5.757H71.063z"/>
	<path class="st0" d="M82.872,13.885c-0.021-0.3-0.092-0.563-0.275-0.887c-0.193-0.336-0.561-0.54-1.284-0.54
		c-0.357,0-1.621,0-1.621,1.056c0,0.827,0.479,1.02,2.558,1.835c1.213,0.479,2.375,0.936,2.375,2.615c0,1.02-0.591,2.95-3.2,2.95
		c-1.55,0-3.425-0.647-3.537-3.143h1.59c0.041,1.056,0.632,1.619,1.906,1.619c0.347,0,0.907-0.06,1.274-0.348
		c0.225-0.18,0.408-0.539,0.408-0.887c0-0.744-0.54-0.972-1.845-1.439c-1.875-0.672-3.099-1.2-3.099-3
		c0-1.019,0.52-2.782,3.078-2.782c1.886,0,2.956,0.756,3.241,2.95H82.872z"/>
	<path class="st0" d="M99.239,6.165v9.813c0,2.539-1.316,5.348-5.204,5.348c-2.434,0-5.112-1.261-5.112-5.186v-1.603h3.26v1.188
		c0,1.873,1.347,2.125,1.791,2.125c0.704,0,1.791-0.576,1.791-1.927V6.165H99.239z"/>
	<path class="st0" d="M107.041,20.93l-0.046-1.314c-0.444,0.63-1.178,1.711-2.954,1.711c-0.398,0-3.352,0-3.352-4.214v-6.951h3.092
		v6.033c0,1.927,0.979,2.017,1.5,2.017c0.734,0,1.714-0.45,1.714-2.089v-5.96h3.091V20.93H107.041z"/>
	<path class="st0" d="M114.2,10.162l0.062,1.314c0.428-0.63,1.163-1.71,2.938-1.71c0.398,0,3.367,0,3.367,4.213v6.951h-3.091v-6.014
		c0-1.944-0.979-2.017-1.515-2.017c-0.735,0-1.699,0.45-1.699,2.07v5.96h-3.092V10.162H114.2z"/>
	<path class="st0" d="M124.497,16.375c0.031,2.161,1.362,2.377,1.944,2.377c1.01,0,1.316-0.612,1.546-1.063h3.122
		c-0.214,0.612-0.398,1.171-0.918,1.818c-0.474,0.612-1.622,1.819-3.78,1.819c-2.647,0-5.05-1.927-5.05-5.726
		c0-3.403,1.974-5.834,4.943-5.834c4.545,0,4.897,4.735,5.02,6.608H124.497z M128.185,14.052c-0.107-0.414-0.459-1.711-1.836-1.711
		s-1.714,1.297-1.836,1.711H128.185z"/>
	<path class="st0" d="M137.292,20.21V8.257h-2.938V4.225c2.346-0.528,3.162-1.248,3.896-3.696h3.835V20.21H137.292z"/>
	<path class="st0" d="M151.49,11.785V8.113h0.551c0.979,0,2.835-0.336,2.835-1.992c0-0.792-0.653-1.465-1.917-1.465
		c-1.795,0-1.877,1.177-1.897,1.801h-4.814c0.041-0.984,0.082-2.137,0.795-3.433C148.287,0.721,150.633,0,153.122,0
		c2.142,0,6.263,0.889,6.263,5.425c0,2.88-1.387,3.648-2.224,4.128c0.857,0.48,2.591,1.488,2.591,4.561
		c0,2.761-1.591,6.649-7.202,6.649c-0.958,0-4.305-0.168-5.834-3.024c-0.796-1.512-0.877-2.905-0.918-4.369h4.814
		c0.102,1.057,0.286,2.737,2.183,2.737c0.245,0,2.183-0.048,2.183-2.113c0-2.088-2.305-2.208-2.938-2.208H151.49z"/>
	<path class="st0" d="M167.932,8.833v6.288c0,1.273,0.531,1.681,1.367,1.681h1v3.769c-0.408,0.023-2.448,0.168-2.918,0.168
		c-3.202,0-3.672-1.969-3.672-3.769V8.833h-1.897V5.856h1.897v-4.08h4.223v4.08h2.367v2.977H167.932z"/>
	<path class="st0" d="M175.438,0.528v7.08c0.571-0.84,1.551-2.279,3.917-2.279c0.53,0,4.488,0,4.488,5.616v9.265h-4.121v-8.017
		c0-2.593-1.306-2.688-2.02-2.688c-0.979,0-2.265,0.601-2.265,2.761v7.945h-4.121V0.528H175.438z"/>
	<path class="st0" d="M187.358,22.055c-1.775-3.224-1.913-7.833-1.913-8.446c0-0.594,0.138-5.203,1.913-8.444h2.632
		c-1.5,3.8-1.592,7.202-1.592,8.444c0,1.261,0.092,4.665,1.592,8.446H187.358z"/>
	<path class="st0" d="M195.314,12.396v4.717c0,0.954,0.398,1.261,1.025,1.261h0.75v2.827c-0.306,0.018-1.836,0.126-2.188,0.126
		c-2.402,0-2.755-1.477-2.755-2.827v-6.104h-1.423v-2.233h1.423V7.102h3.168v3.061h1.775v2.233H195.314z"/>
	<path class="st0" d="M201.71,6.165v5.312c0.428-0.63,1.163-1.71,2.938-1.71c0.397,0,3.366,0,3.366,4.213v6.951h-3.091v-6.014
		c0-1.944-0.979-2.017-1.516-2.017c-0.734,0-1.698,0.45-1.698,2.07v5.96h-3.092V6.165H201.71z"/>
	<path class="st0" d="M215.45,20.93l-0.046-1.314c-0.444,0.63-1.179,1.711-2.954,1.711c-0.397,0-3.352,0-3.352-4.214v-6.951h3.092
		v6.033c0,1.927,0.979,2.017,1.499,2.017c0.735,0,1.715-0.45,1.715-2.089v-5.96h3.091V20.93H215.45z"/>
	<path class="st0" d="M222.165,5.165c1.775,3.241,1.913,7.851,1.913,8.444c0,0.612-0.138,5.222-1.913,8.446h-2.616
		c1.499-3.781,1.591-7.185,1.591-8.446c0-1.242-0.092-4.645-1.591-8.444H222.165z"/>
	<path class="st0" d="M226.041,19.947v-4.826h4.304v4.49c0,3.24-2.692,3.408-4.304,3.432v-1.656c1.428-0.048,1.876-0.456,2.02-1.439
		H226.041z"/>
	<path class="st0" d="M237.118,20.21V8.257h-2.938V4.225c2.347-0.528,3.162-1.248,3.896-3.696h3.836V20.21H237.118z"/>
	<path class="st0" d="M252.969,0.528h4.61v11.257h2.122v4.657h-2.122v3.769h-4.61v-3.769h-7.487v-4.657L252.969,0.528z
		 M252.969,11.785V6.528l-3.509,5.257H252.969z"/>
	<path class="st0" d="M267.758,8.833v6.288c0,1.273,0.531,1.681,1.367,1.681h1v3.769c-0.408,0.023-2.448,0.168-2.918,0.168
		c-3.202,0-3.672-1.969-3.672-3.769V8.833h-1.897V5.856h1.897v-4.08h4.223v4.08h2.367v2.977H267.758z"/>
	<path class="st0" d="M275.265,0.528v7.08c0.571-0.84,1.551-2.279,3.917-2.279c0.53,0,4.488,0,4.488,5.616v9.265h-4.121v-8.017
		c0-2.593-1.306-2.688-2.02-2.688c-0.979,0-2.265,0.601-2.265,2.761v7.945h-4.121V0.528H275.265z"/>
	<path class="st0" d="M289.225,22.055c-1.775-3.224-1.913-7.833-1.913-8.446c0-0.594,0.138-5.203,1.913-8.444h2.632
		c-1.5,3.8-1.592,7.202-1.592,8.444c0,1.261,0.092,4.665,1.592,8.446H289.225z"/>
	<path class="st0" d="M297.166,10.162h1.79v2.233h-1.79v8.535h-3.138v-8.535h-1.438v-2.233h1.438V9.406
		c0-2.719,1.147-3.637,3.03-3.637h1.897v2.448h-1.01c-0.475,0-0.78,0.198-0.78,1.332V10.162z"/>
	<path class="st0" d="M303.438,10.162l0.046,2.071c0.214-0.864,0.611-2.467,3.045-2.467h0.888v3.871h-1.04
		c-0.873,0-2.648,0.054-2.648,3.08v4.213h-3.076V10.162H303.438z"/>
	<path class="st0" d="M311.563,9.172h-3.152V6.165h3.152V9.172z M311.563,20.93h-3.152V10.162h3.152V20.93z"/>
	<path class="st0" d="M316.305,5.165c1.775,3.241,1.913,7.851,1.913,8.444c0,0.612-0.138,5.222-1.913,8.446h-2.617
		c1.5-3.781,1.592-7.185,1.592-8.446c0-1.242-0.092-4.645-1.592-8.444H316.305z"/>
</g>
</svg>
