<svg id="レイヤー_1" data-name="レイヤー 1" xmlns="http://www.w3.org/2000/svg" viewBox="0 0 245.02 263.71"><defs><style>.cls-1{fill:#e6222e;}.cls-2{fill:#231815;}.cls-3{fill:#fff;}</style></defs><title>アートボード 13</title><path class="cls-1" d="M99.48,80.52,55.89,76.79l-9.6,29.86,32.47,18.28L58.07,173.85l27,19,38-35.47,38.36,35.1,26.84-19.28-21.15-48.73,32.3-18.59-9.89-29.77-41.13,4-9.8-44.84-32.76.16-5.46,28c5.39,1,17.66,2.55,30.23-.71.61-.16,1.51-.23,1.91.27a1.64,1.64,0,0,1,.08,1.58c-1.29,2.85-6.51,7.64-17.26,8.83A54.11,54.11,0,0,1,101,73.22l-1.51,7.29"/><path class="cls-2" d="M147.37,67.86,140.18,35a1.56,1.56,0,0,0-1.54-1.23l-32.76.15a1.55,1.55,0,0,0-1.53,1.27l-5.47,28a1.53,1.53,0,0,0,.24,1.19,1.6,1.6,0,0,0,1,.66,79.61,79.61,0,0,0,24.64.52c1.43-.21,2.95-.57,4-.8.47-.1,1.38-.54,1.63-.12s-.17.81-.57,1.24a16.27,16.27,0,0,1-3.53,2.69,28.66,28.66,0,0,1-11.14,3.32,53.58,53.58,0,0,1-13.81-.11,1.57,1.57,0,0,0-2,1.2s-.16.79-.38,1.83l-.65,3.11a1.17,1.17,0,0,1-1.21.91s-5-.37-9-.72L56,75.22A1.56,1.56,0,0,0,54.4,76.3l-9.61,29.87a1.54,1.54,0,0,0,.72,1.84L67,120.12l8.87,5a1.15,1.15,0,0,1,.49,1.43l-3.76,8.9-16,37.8a1.75,1.75,0,0,0-.12.62,1.56,1.56,0,0,0,.67,1.28l27,19a1.57,1.57,0,0,0,2-.13l29.08-27.13,7.14-6.66a1.12,1.12,0,0,1,1.49,0l7.09,6.48,29.45,27a1.56,1.56,0,0,0,2,.11l26.85-19.28a1.6,1.6,0,0,0,.65-1.29,1.77,1.77,0,0,0-.13-.62s-10.31-23.74-16.35-37.67l-3.84-8.84a1.17,1.17,0,0,1,.47-1.44l10.17-5.85,20.05-11.53a1.56,1.56,0,0,0,.78-1.37,1.31,1.31,0,0,0-.08-.48l-9.89-29.77a1.56,1.56,0,0,0-1.64-1.07l-31.13,3-7.6.73a1.17,1.17,0,0,1-1.23-.89S148.58,73.42,147.37,67.86Zm-46,11.49C101.6,78,102,76,102,76a1.16,1.16,0,0,1,1.22-.9,51.33,51.33,0,0,0,5.49.21,67.62,67.62,0,0,0,6.83-.35c11.72-1.3,17.15-6.74,18.51-9.76a3.13,3.13,0,0,0-.28-3.18,3.28,3.28,0,0,0-3.54-.82A65.46,65.46,0,0,1,111.65,63c-3.65-.14-8.38-.77-8.38-.77a.93.93,0,0,1-.81-1.12s.74-3.74,1.57-8c.25-1.31.52-2.66.78-4L107,38a1.3,1.3,0,0,1,1.22-1l10.89,0,4.41,0,12.86-.07a1.31,1.31,0,0,1,1.23,1s.76,3.44,1.87,8.52c2.81,12.88,7.44,34.07,7.44,34.07a1.57,1.57,0,0,0,1.69,1.23l19.24-1.86,19.63-1.9a1.32,1.32,0,0,1,1.33.87s1.79,5.37,3.7,11.13l1.15,3.46c1.87,5.63,3.61,10.84,3.61,10.84a1.33,1.33,0,0,1-.56,1.48s-7.76,4.45-15.2,8.74l-15.11,8.69a1.55,1.55,0,0,0-.79,1.38,1.66,1.66,0,0,0,.12.61L179,155.71l7,16.06a1.32,1.32,0,0,1-.42,1.52L173.42,182l-1.52,1.08-9.49,6.83a1.31,1.31,0,0,1-1.58-.1l-10.41-9.53-26.25-24a1.56,1.56,0,0,0-2.13,0L98.12,178.59,85.7,190.18a1.31,1.31,0,0,1-1.58.1l-11.21-7.89-1-.68-11.1-7.83a1.31,1.31,0,0,1-.43-1.52L68,154.52c5.66-13.39,12.24-29,12.24-29a1.53,1.53,0,0,0,.13-.62,1.56,1.56,0,0,0-.8-1.37l-14.91-8.39L49.06,106.4a1.29,1.29,0,0,1-.58-1.46l3.79-11.76c.51-1.61,1-3.24,1.54-4.8l2.88-8.95A1.32,1.32,0,0,1,58,78.55l14.6,1.27c11.21,1,26.72,2.27,26.72,2.27a1.84,1.84,0,0,0,.41,0A2.33,2.33,0,0,0,100,82l.2-.11a1.06,1.06,0,0,0,.27-.18,1.92,1.92,0,0,0,.14-.15,1,1,0,0,0,.21-.29.56.56,0,0,0,.07-.16,1.28,1.28,0,0,0,.11-.27Z"/><path class="cls-2" d="M114.26,60.77a1.17,1.17,0,0,1-.41-.06,1.37,1.37,0,0,1-.91-1.71,75.86,75.86,0,0,0,3.12-18.18,1.37,1.37,0,0,1,2.74.16,79.3,79.3,0,0,1-3.23,18.83,1.38,1.38,0,0,1-1.31,1Z"/><path class="cls-2" d="M131.4,51.64a2.18,2.18,0,1,1-2.17-2.53A2.38,2.38,0,0,1,131.4,51.64Z"/><path class="cls-2" d="M108.61,45.6a1.71,1.71,0,1,0,1.68-2A1.86,1.86,0,0,0,108.61,45.6Z"/><path class="cls-3" d="M104.89,96.92v1.86a6.1,6.1,0,0,1-5.15,2.37,6.31,6.31,0,0,1-4.46-1.52,5.68,5.68,0,0,1-.17-7.95,5.51,5.51,0,0,1,4-1.53,6.16,6.16,0,0,1,2.34.42,5.12,5.12,0,0,1,1.87,1.23,5.24,5.24,0,0,1,1.16,1.9,8.38,8.38,0,0,1,.39,2.65l-5.57,0a2.46,2.46,0,0,0,1,1.27,2.94,2.94,0,0,0,1.61.46A4,4,0,0,0,104.89,96.92ZM99,94.51h2.56a2.07,2.07,0,0,0-.39-1.23,1.14,1.14,0,0,0-.93-.45,1.1,1.1,0,0,0-.88.44A1.88,1.88,0,0,0,99,94.51Z"/><path class="cls-3" d="M112,90.3v1.34a4.4,4.4,0,0,1,3.29-1.43,3.84,3.84,0,0,1,2.86,1,4.32,4.32,0,0,1,1,3.08l0,6.6-5.16,0,0-6.2c0-.88-.34-1.31-1-1.31a1.73,1.73,0,0,0-1,.35l0,7.17-5.46,0,0-10.63Z"/><path class="cls-3" d="M129.58,90.22v3h-2.27v2.28c0,.77.35,1.15,1,1.15a1.59,1.59,0,0,0,1.3-.77l0,4.22a5.61,5.61,0,0,1-3.13.86,4.84,4.84,0,0,1-3.32-1.16,4.09,4.09,0,0,1-1.36-3.22V93.24h-2.23l7.65-6.06v3Z"/><path class="cls-3" d="M142.19,96.74V98.6a6.09,6.09,0,0,1-5.15,2.37,6.3,6.3,0,0,1-4.46-1.51,5.68,5.68,0,0,1-.17-7.95,5.47,5.47,0,0,1,4-1.53,6.2,6.2,0,0,1,2.34.41,5.21,5.21,0,0,1,1.86,1.23,5,5,0,0,1,1.17,1.91,8.1,8.1,0,0,1,.38,2.64l-5.57,0a2.53,2.53,0,0,0,1,1.26,3,3,0,0,0,1.62.46A3.91,3.91,0,0,0,142.19,96.74Zm-5.91-2.41h2.57a2.12,2.12,0,0,0-.4-1.23,1.16,1.16,0,0,0-.93-.45,1.13,1.13,0,0,0-.87.44A1.85,1.85,0,0,0,136.28,94.33Z"/><path class="cls-3" d="M149.3,92.46c.69-1.61,1.7-2.42,3-2.43a2.47,2.47,0,0,1,1.83.71,2.54,2.54,0,0,1,.72,1.83,2.57,2.57,0,0,1-.7,1.89,2.45,2.45,0,0,1-1.82.73,2.91,2.91,0,0,1-2.21-1,3.22,3.22,0,0,0-.8,2.56v4l-5.45,0,0-10.63,5.45,0Z"/><path class="cls-3" d="M93.5,118.48l0-8.59,17.24-.08,0,8.59-4.33,0,.06,10.8-8.6,0-.05-10.8Z"/><path class="cls-3" d="M123.56,129.47a9.58,9.58,0,0,1-7.06-2.88,9.79,9.79,0,0,1-2.92-7.1,9.68,9.68,0,0,1,2.86-7.1,10,10,0,0,1,14.1-.07,10,10,0,0,1-7,17.15Zm0-12.58a1.79,1.79,0,0,0-1.37.58,2,2,0,0,0-.54,1.46,2,2,0,0,0,.55,1.46,1.77,1.77,0,0,0,1.37.56,1.83,1.83,0,0,0,1.39-.58,2,2,0,0,0,.54-1.46,2.11,2.11,0,0,0-.56-1.45A1.78,1.78,0,0,0,123.51,116.89Z"/><path class="cls-3" d="M149.19,129l-8.59,0,0-8.46-7.44-10.89,8.69,0,3,4.39,3-4.41,8.7,0-7.34,11Z"/><path class="cls-3" d="M99.55,136.5v1.33a4.33,4.33,0,0,1,3.27-1.44,3.72,3.72,0,0,1,3.44,1.82,6.69,6.69,0,0,1,1.82-1.4,4.73,4.73,0,0,1,2.06-.46,3.6,3.6,0,0,1,2.73,1.05,4.21,4.21,0,0,1,1,3l0,6.67-5.15,0,0-6.34a1.29,1.29,0,0,0-.28-.88.93.93,0,0,0-.73-.31,1.67,1.67,0,0,0-1,.35l0,7.19-5.15,0,0-6.34a1.34,1.34,0,0,0-.27-.88.92.92,0,0,0-.74-.31,1.74,1.74,0,0,0-1,.37l0,7.17-5.45,0-.06-10.63Z"/><path class="cls-3" d="M127.49,142.94v1.87a6.09,6.09,0,0,1-5.14,2.37,6.29,6.29,0,0,1-4.46-1.52,5.69,5.69,0,0,1-.18-7.95,5.54,5.54,0,0,1,4-1.53,6.25,6.25,0,0,1,2.35.41,5.21,5.21,0,0,1,1.86,1.23,4.94,4.94,0,0,1,1.16,1.91,7.86,7.86,0,0,1,.39,2.64l-5.57,0a2.48,2.48,0,0,0,1,1.26,2.89,2.89,0,0,0,1.62.45A3.83,3.83,0,0,0,127.49,142.94Zm-5.91-2.41h2.57a2.08,2.08,0,0,0-.39-1.24,1.15,1.15,0,0,0-.94-.43,1.12,1.12,0,0,0-.87.43A1.83,1.83,0,0,0,121.58,140.53Z"/><path class="cls-3" d="M135.31,136.33v1.33a4.46,4.46,0,0,1,3.28-1.44,3.84,3.84,0,0,1,2.87,1,4.37,4.37,0,0,1,1,3.08l0,6.6-5.15,0,0-6.19c0-.88-.34-1.32-1-1.32a1.73,1.73,0,0,0-1,.35l0,7.17-5.46,0-.06-10.63Z"/><path class="cls-3" d="M153.63,136.24v3h-2.27v2.28c0,.76.35,1.15,1,1.15a1.58,1.58,0,0,0,1.3-.77l0,4.21a5.62,5.62,0,0,1-3.13.87,4.94,4.94,0,0,1-3.32-1.16,4.09,4.09,0,0,1-1.36-3.23v-3.33l-2.23,0,7.65-6.05,0,3Z"/><path class="cls-2" d="M18.94,160.43l3.67,7-.08,0L15.46,164l-5.62,5.76-.05,0L11,161.74l-7.18-3.56v-.07l7.93-1.33L12.85,149l.08,0,3.66,7,7.89-1.33,0,.09Z"/><path class="cls-2" d="M228.66,156.13l3.61-7,.09,0,1.2,7.81,7.95,1.25v.07l-7.15,3.63,1.22,7.93,0,0-5.65-5.71-7.05,3.58-.07,0,3.6-7.05L220.72,155l0-.08Z"/><path class="cls-2" d="M118.15,224.41l.71-5-14.37-2.08.24-1.7-7.5-1.08L97,216.28,95,216l-.71,5,2,.29-.21,1.47-2-.3-.72,5,2,.29-.16,1c-.92,6.37,1.47,10.12,7.62,11l3.47.5c5,.73,9.67-1,10.83-8.88l.8-5.52-7.36-1.06-.8,5.51c-.27,1.86-1.19,3.14-3.74,2.77l-.55-.08c-1.84-.27-3.08-1-2.76-3.16l.15-1,5.52.8.72-5-5.52-.8.21-1.46Z"/><path class="cls-2" d="M137.85,225.93l-3.51.17-.06-1.45,11.12-.54-.29-6-11.12.54c-.05-.89-.08-1.46-.08-1.46l-7.56.37.07,1.46-4.17.2.29,6,4.18-.19.37,7.64,9.94-.48c1-.05,1.35.33,1.39.9s-.36.89-1.39.94l-12.42.6.35,7.06,12.41-.6c7.51-.37,9.76-3,9.5-8.24C146.55,226.28,142.79,225.68,137.85,225.93Z"/><path class="cls-2" d="M80.66,218.82l-2.07-1,.63-1.32,2.23,1L84,212.12l-2.22-1.05.63-1.32L76.6,207c-.25.5-.24.5-.63,1.31l-6-2.82-2.58,5.44,6,2.86-.63,1.33-.64-.31c-3.06-1.45-7-.79-9.24,4-2.13,4.5-.83,7.94,3.3,9.9,5.28,2.5,7.36-.33,9-3.79l.7-1.47,2.18,1c.84.4,1.28.76.95,1.46s-.67.71-1.68.23l-1-.45-3,6.39.85.4c4.1,1.94,8.09,2.46,10.87-3.41C87.35,224.41,84.73,220.75,80.66,218.82Zm-11.22,3.44c-.34.7-.74.94-1.1.76l-.23-.1c-.61-.3-.45-1-.13-1.72a1.18,1.18,0,0,1,1.72-.71l.47.22Zm17-11.86-2.6,5.47a1.33,1.33,0,0,1,.75,2l-.75,1.57L89.37,222l1-2.16C92.44,215.53,91.56,212.57,86.46,210.4Z"/><path class="cls-2" d="M183.77,210.71l.82,4c.52,2.88-1.65,5.33-4,6.51l-7.46,3.7,3.14,6.34,7.83-3.89c5.78-2.86,9-7.81,7.51-14.31-.67-2.92-1.88-5.91-.27-6.7l-3.41-6.87C182.38,202.28,182.55,205.5,183.77,210.71Zm-7.8-6.13-10.41,5.17,2.75,5.56,10.42-5.17Zm3.4,6.87L169,216.62l2.77,5.56L182.14,217Z"/><rect class="cls-2" x="208.42" y="179.92" width="22.54" height="7.33" transform="translate(-59.33 247.75) rotate(-52.83)"/><path class="cls-2" d="M199.76,194l-8.19,7.33,3.5,3.9,7.64-6.85c.75-.63,1.18.07,1.61.54h0l-7.52,6.72,2.76,3.08,7.51-6.72,1,1.1-8.26,7.4,3.48,3.89,13-11.62L208.4,194C206.62,192,203.28,190.8,199.76,194Z"/><path class="cls-2" d="M164.25,221.5a1.81,1.81,0,0,1,1.37-1l-1.13-4.21c-4.17,1.13-5.49,3.19-5.73,5.28l-2.91.78-.65-1.91L150,221.89l.66,1.91-2,.53,1.46,5.4,2.33-.63,3.21,9.41,5.21-1.4-3.21-9.41,2.32-.63c1.37-.37,2.06-.15,2.32.78s-.21,1.62-2,2.08l1.46,5.4c6.17-1.67,7.44-4.54,6.38-8.47l-.32-1.2A5.78,5.78,0,0,0,164.25,221.5Z"/><path class="cls-2" d="M42.36,188.59,45.61,186,40,178.93l.89-.71-4-5-.89.7-5.61-7.07-3.24,2.57,5.61,7.07-1.16.92-5.34-6.74L17,178l3.6,4.54c-1.58.09-4-1.47-5.61-3.59l-3.45,2.72c2.5,3.19,5.12,5,7.46,5.18l-2.08,1.65,4.44,5.6,2.08-1.65c-.34,2.32.8,5.29,3.31,8.42l3.44-2.73c-1.61-1.93-2.77-4.4-2.2-6.26l3.65,4.61,9.31-7.38-5.34-6.74,1.16-.91ZM24.5,183l-1.67-2.12L24,180l1.67,2.12Zm3.79-3-1.68-2.12,1.16-.91,1.68,2.11Zm1.85,10.12-1.68-2.11,1.15-.9,1.68,2.11Zm5-3.91-1.15.91-1.68-2.11,1.15-.91Z"/><path class="cls-2" d="M16.54,143.41,2.49,146l-1-5.39,14-2.59Z"/><path class="cls-2" d="M51.29,41,42.12,30l4.25-3.55,9.17,11Z"/><path class="cls-2" d="M5.67,121l-5.54-.33L.89,108l5.54.33-.22,3.55,8.73.53-.34,5.54-8.72-.53Z"/><path class="cls-2" d="M34.37,45l-3.88-4,9.09-8.87,3.87,4-2.55,2.5L47,44.88l-4,3.87-6.1-6.25Z"/><path class="cls-2" d="M123.08,5.54,123.41,0l12.67.75-.33,5.53-3.58-.21-.52,8.73-5.52-.33.52-8.73Z"/><path class="cls-2" d="M202.15,37.15l4-3.84,8.76,9.14-4,3.85-2.47-2.58-6.32,6.05-3.83-4,6.31-6.05Z"/><path class="cls-2" d="M14.27,95.83l3.15.58L15.3,108.06l-14-2.56L3.37,93.85l3.13.57-1.13,6.2,2.51.46.83-4.55,2.76.49-.83,4.56,2.5.46Z"/><path class="cls-2" d="M4,90.37l3.06-8.8a5.57,5.57,0,0,1,2.4-3.2,4,4,0,0,1,3.35-.31,3.93,3.93,0,0,1,2.33,2.88,12.3,12.3,0,0,1,7.49-.66l-2,5.83a11.24,11.24,0,0,0-4-.56c-1,.12-1.71,1-2.25,2.54l5,1.74-1.81,5.23Zm4.59-4.26,2.61.9.31-.91c.54-1.57.26-2.12-.58-2.41a1.58,1.58,0,0,0-1.05,0c-.34.12-.73.8-.91,1.32Z"/><path class="cls-2" d="M33.41,60.94l-3.36,4.41L21.69,52.76l5.45-7.16L41.5,50.29,38.16,54.7l-2.44-.81L32,58.82ZM30,55.87l2.36-3.1L26.71,51Z"/><path class="cls-2" d="M89.24,19.53,83.92,21,84.78,6,93.44,3.5l8.68,12.38-5.33,1.51-1.44-2.11-6,1.69Zm.32-6.11,3.75-1.06L89.89,7.54Z"/><path class="cls-2" d="M61.51,33.24a7,7,0,0,1-5.61-.07A7.47,7.47,0,0,1,52,23.48a7.32,7.32,0,0,1,13.54.19,7.15,7.15,0,0,1,0,5.65A7,7,0,0,1,61.51,33.24Zm-3.79-9.46A2.12,2.12,0,0,0,56.45,25a2.45,2.45,0,0,0,0,1.86,2.42,2.42,0,0,0,1.25,1.37,2.19,2.19,0,0,0,1.79,0A2.21,2.21,0,0,0,60.82,27a2.68,2.68,0,0,0-1.29-3.23A2.2,2.2,0,0,0,57.72,23.78Z"/><path class="cls-2" d="M142.25,16.66a7,7,0,0,1-4.51-3.35A7.13,7.13,0,0,1,137,7.72a7.1,7.1,0,0,1,3.34-4.53,7.37,7.37,0,0,1,10.07,2.53,7.15,7.15,0,0,1,.78,5.56,7.21,7.21,0,0,1-3.33,4.56A7,7,0,0,1,142.25,16.66Zm2.49-9.89A2.19,2.19,0,0,0,143,7a2.42,2.42,0,0,0-1.05,1.54,2.42,2.42,0,0,0,.2,1.84,2.17,2.17,0,0,0,1.43,1.08,2.14,2.14,0,0,0,1.76-.28,2.36,2.36,0,0,0,1.08-1.52,2.39,2.39,0,0,0-.23-1.86A2.19,2.19,0,0,0,144.74,6.77Z"/><path class="cls-2" d="M184.65,34.38A7,7,0,0,1,181.16,30a7.51,7.51,0,0,1,5.06-9.13,7.35,7.35,0,0,1,9.07,5,7,7,0,0,1-.68,5.57A7.08,7.08,0,0,1,190.22,35,7,7,0,0,1,184.65,34.38Zm4.94-8.92a2.18,2.18,0,0,0-1.76-.19,2.61,2.61,0,0,0-1.7,3.05A2.31,2.31,0,0,0,189,29.93a2.39,2.39,0,0,0,1.41-1.21,2.34,2.34,0,0,0,.28-1.84A2.2,2.2,0,0,0,189.59,25.46Z"/><path class="cls-2" d="M209.88,59.41a7,7,0,0,1-2.06-5.23,7.35,7.35,0,0,1,12.65-5,7.37,7.37,0,0,1-10.59,10.24Zm7.33-7.09a2.17,2.17,0,0,0-1.65-.72A2.67,2.67,0,0,0,213.05,54a2.22,2.22,0,0,0,.66,1.68,2.26,2.26,0,0,0,1.64.7,2.56,2.56,0,0,0,1.72-.73,2.5,2.5,0,0,0,.79-1.7A2.18,2.18,0,0,0,217.21,52.32Z"/><path class="cls-2" d="M229.94,118.13a7,7,0,0,1,1.28-5.46A7.43,7.43,0,0,1,241.51,111a7,7,0,0,1,3,4.76,7.16,7.16,0,0,1-1.25,5.48,7.48,7.48,0,0,1-10.31,1.71A7.09,7.09,0,0,1,229.94,118.13ZM240,116.45a2.1,2.1,0,0,0-1-1.52,2.41,2.41,0,0,0-1.82-.35,2.49,2.49,0,0,0-1.62.92,2.35,2.35,0,0,0,.56,3.28,2.63,2.63,0,0,0,3.43-.58A2.18,2.18,0,0,0,240,116.45Z"/><path class="cls-2" d="M103.26,15.55,101.45,1.38l5.49-.7,1.36,10.6,6.25-.8.46,3.57Z"/><path class="cls-2" d="M160.61,6.21l-1.56,4.51c1.78.54,3.06.48,3.89-.12a6,6,0,0,0,1.89-2.93l5.7,2a11.12,11.12,0,0,1-2.06,3.84,7.69,7.69,0,0,1-3.42,1.81,9.43,9.43,0,0,1,1.19,8l-6.08-2.11c1.11-3.48.14-5.4-2.52-6.4l-1.71,4.93-5.23-1.81,4.68-13.5Z"/><path class="cls-2" d="M175.09,28.2l-4.88-2.61,2.94-5.5-1.23-9.77,5,2.64.31,5.43,4.67-2.77,5,2.65L178,22.69Z"/><path class="cls-2" d="M218.13,72.61l-2.68-4.85,5.46-3,4.29-8.85,2.72,4.92-2.69,4.71,5.42.23,2.73,4.92-9.79-1.08Z"/><path class="cls-2" d="M239.17,88.1l-4,0a7.14,7.14,0,0,0,.38-4c-.12-.38-.25-1-.94-1.1s-1.33.2-1.15,2.85a9.82,9.82,0,0,1-.28,2.76,3.41,3.41,0,0,1-.83,1.7,3.68,3.68,0,0,1-1.66,1,4,4,0,0,1-3.87-.47A8.94,8.94,0,0,1,224,86.46a19.08,19.08,0,0,1-1.18-6.67h4.34c-.2.6-.39,1.81-.62,3-.3,1.43.25,2.13.8,2.27s1.39.09,1.37-2.57a13.16,13.16,0,0,1,.22-2.09,4,4,0,0,1,2.46-2.82,4.06,4.06,0,0,1,4,.44,8.2,8.2,0,0,1,2.91,4.23A17.5,17.5,0,0,1,239.17,88.1Z"/><path class="cls-2" d="M229.75,132.33l.5-4.25L245,124.77l-.62,5.31-6.85,1.66,6.27,3.29-.33,2.78-6.86,1.84,6.29,3.09-.64,5.37-13.62-6.47.49-4.21,6.71-1.88Z"/><path class="cls-2" d="M14.38,122.12l.32,4.8-5.41,4.53,5.65-.37.33,5.07-14.35.94-.29-4.36,5.72-4.86-6,.39L0,123.07Z"/><path class="cls-2" d="M227.72,99.62l-1.06-5.86,14.12-2.56,1.06,5.86-5.18.94.75,4.1,5.17-.94,1,5.48-14.13,2.56-1-5.49,5.24-.94-.75-4.1Z"/><path class="cls-2" d="M29.65,66.54l-2.2,4.27-7,1.1,5,2.59L23.19,79,10.4,72.44l2-3.89,7.41-1.22-5.36-2.75,2.38-4.64Z"/><path class="cls-2" d="M82.77,21.52l-4.36,2.05L72.22,20.2l2.42,5.12L70,27.48l-6.13-13,4-1.86,6.61,3.54L71.9,10.71l4.71-2.23Z"/><path class="cls-2" d="M42.33,206.22l-3.52-2.91c-1.09,1.21-2.62.86-3.73-.23l-2.79,3.36C36.61,210.32,39.78,209.53,42.33,206.22Z"/><path class="cls-2" d="M37.73,200.61,44,205.83,38.94,212l5.56,4.62,5.08-6.13,6.31,5.24,6.7-8.07L44.42,192.54Zm8.4-.87,9.07,7.52-1,1.22L45.12,201Z"/><polygon class="cls-2" points="59.56 197.78 60.29 196.91 55.35 192.82 54.63 193.7 47.66 187.91 45 191.11 63.86 206.75 66.52 203.56 59.56 197.78"/><path class="cls-2" d="M53,215.11l-3.53-2.93c-2.75,3.12-3,6.39,1.64,9.91l2.8-3.37C52.68,217.84,52,216.39,53,215.11Z"/><path class="cls-2" d="M90.34,247.33v4.61h9.5c.61,0,1,.16,1,.75s-.36.73-1,.73H91.21v10.27h14.2v-4.81H96.53v-1.25h2.89c6,.13,7-2.34,7-5,0-4-2.24-5.28-6.54-5.28Z"/><path class="cls-2" d="M126.4,247.33v4.61h3.21a1.47,1.47,0,0,1,1.66,1.5v10.25H137V253.44c0-5.22-2.81-6.11-6.29-6.11Z"/><path class="cls-2" d="M114.83,247.33c-3.07,0-6.39,2.5-6.39,5.58v5.22c0,3.08,3.32,5.56,6.39,5.56h3.28c3.09,0,6.39-2.48,6.39-5.56v-5.22c0-3.08-3.3-5.58-6.39-5.58Zm-1,10.14v-3.92a1.68,1.68,0,0,1,1.4-1.61h2.42c.75,0,1.4.94,1.4,1.61v3.92a1.69,1.69,0,0,1-1.4,1.63h-2.42A1.6,1.6,0,0,1,113.87,257.47Z"/><path class="cls-2" d="M146.81,257.79h3.64v.61a.73.73,0,0,1-.73.73h-8.84v4.58h8.55c4.3,0,6.52-1.26,6.55-5.22h0v-6c0-3.58-2.4-5.12-6.49-5.13h-3.11c-4.31,0-6.54,1.37-6.55,5.36C139.83,255.38,140.81,257.92,146.81,257.79Zm-.42-5.85h3c.6,0,1,.24,1,.82h0v.81h-4.05c-.68,0-1-.31-1-.8S145.77,251.94,146.39,251.94Z"/></svg>