<svg version="1.1" id="レイヤー_1" xmlns="http://www.w3.org/2000/svg" x="0" y="0" width="1008" height="134.5" viewBox="0 0 1008 134.5" xml:space="preserve"><style>.st0{fill:#a5a5a5}.st5{enable-background:new}.st6{fill:#fff}.st7{fill:#e60012}.st8{fill:#004ea2}.st9{fill:#f18d1e}.st10{fill:#0086d1}</style><path class="st0" d="M192 12H12l30 27.5L12 67h180l30-27.5L192 12z"/><path d="M768 12H586l30 27.5L586 67h182l30-27.5L768 12z" fill="#d4181a"/><path d="M576 12H394l30 27.5L394 67h182l30-27.5L576 12z" fill="#d4330f"/><path d="M384 12H202l30 27.5L202 67h182l30-27.5L384 12z" fill="#ce4f17"/><path d="M960 12H778l30 27.5L778 67h182l30-27.5L960 12z" fill="#d40023"/><g class="st5"><path class="st6" d="M300.4 42.2h3.4v3h-3.4v4.6h-3.9v-4.6h-10.2v-3l10.2-12.9h3.9v12.9zm-3.9 0v-8.5l-6.8 8.5h6.8z"/></g><g class="st5"><path class="st6" d="M314.8 41.6c-.8 4.8-3.7 7.2-4.8 8.1-.5-.7-1.6-1.7-2.5-2.2 4.5-3.2 4.5-7.4 4.5-10.3v-8.9h14.5V46c0 2.2-.2 3.6-5.2 3.5-.1-1-.6-2.5-1-3.3.6.1 1.4.2 2 .2.9 0 1-.4 1-1.5v-3.3h-8.5zm8.6-2.8v-2.4H315v2.4h8.4zm0-5.2v-2.4H315v2.4h8.4z"/></g><g class="st5"><path class="st6" d="M99.2 43c.1 1.3.4 4.1 4.4 4.1.6 0 4.7 0 4.7-3.4 0-2.7-2.5-3.4-4.2-3.4h-1.8v-2.7h1.5c1.9 0 4-.9 4-2.9 0-2.7-3.1-2.7-3.9-2.7-2.7 0-4 .8-4.2 3.3h-4.1c.1-.9.3-2.3 1.4-3.8 1.8-2.5 5.1-2.9 7-2.9 4.3 0 7.7 1.9 7.7 5.5 0 3.2-2.4 4.1-3.5 4.4 1 .3 4 1.3 4 5 0 4.1-3.2 6.7-8.6 6.7-4.5 0-8.2-1.9-8.6-7.4h4.2v.2z"/></g><g class="st5"><path class="st6" d="M124 41.6c-.8 4.8-3.7 7.2-4.8 8.1-.5-.7-1.6-1.7-2.5-2.2 4.5-3.2 4.5-7.4 4.5-10.3v-8.9h14.5V46c0 2.2-.2 3.6-5.2 3.5-.1-1-.6-2.5-1-3.3.6.1 1.4.2 2 .2.9 0 1-.4 1-1.5v-3.3H124zm8.6-2.8v-2.4h-8.4v2.4h8.4zm0-5.2v-2.4h-8.4v2.4h8.4z"/></g><g class="st5"><path class="st7" d="M313.9 126.8H312v-5.1c-2.3 2.5-4.6 3.9-6.6 4.9-.6-.7-.9-1.1-1.7-1.6 2.6-.8 5-2.3 7-4.3h-4.6v-7.3h5.9v-1.2h-8.1v-1.7h8.1v-2.1l2.1.1c.2 0 .5.1.5.3 0 .3-.4.3-.6.4v1.3h8.2v1.7H314v1.2h6v7.3h-4.7c1 .8 3.5 2.8 7 4.1-.8.7-1.2 1.1-1.5 1.7-1.6-.7-4.2-2.2-6.9-4.9v5.2zm-1.9-11.7h-3.8v1.3h3.8v-1.3zm0 2.6h-3.8v1.4h3.8v-1.4zm1.9-1.3h3.9v-1.3h-3.9v1.3zm0 2.7h3.9v-1.4h-3.9v1.4zm18-10.6l2.2.1c.1 0 .4 0 .4.2s-.2.3-.5.4v1.3h8v1.8h-18.2v-1.8h8.1v-2zm-1.6 12.6c.1.1.2.2.2.3 0 .2-.2.2-.6.2-.4.6-1.7 2.8-4 4.6-.8-.6-1.1-.9-1.9-1.2 1.8-1.5 3.1-2.9 4.3-4.9l2 1zm3.7 3.4c0 1.6-.3 2.4-3.7 2.2 0-.5-.2-1.4-.8-2.2.5.1 1 .1 1.5.1.7 0 .9-.2.9-.7v-4.4h-5.6v-6h13.2v6H334v5zm-5.5-9.2v2.5h9v-2.5h-9zm8.9 4.9c1.3 1.2 3.1 3.2 4 4.6-.8.5-1 .6-1.9 1.3-.9-1.6-2.4-3.6-3.9-4.9l1.8-1z"/></g><g class="st5"><path class="st8" d="M543.1 109v6h-5.5v11.8h-2V109h7.5zm-1.9 2.4v-.9h-3.6v.9h3.6zm-3.6 1.2v1h3.6v-1h-3.6zm1.3 9.1v-1.5h4c0-.7.1-1 .1-1.3h-3.5v-1.5h1.9c-.1-.1-.4-.7-1-1.3l1.7-.7c.5.6 1.1 1.6 1.2 1.8l-.8.3h2.6c.1-.2.6-1.1 1-2.1l1.6.5c.1 0 .3.1.3.3 0 .2-.2.2-.5.3-.1.3-.2.5-.5 1h1.8v1.5H545v1.3h4.4v1.5h-4c1.2 1.7 2.5 2.5 3.5 2.9l-.2.2c.3.1.8.1 1.2.1.7 0 .8-.2.8-.8v-9H545v-6h7.5v15.7c0 1.9-1.3 2.1-3.4 2.1-.1-1.1-.5-1.9-.6-2-.4.4-.7.9-1 1.3-.5-.3-2.3-1.2-3.5-3.2-.8 1.4-2.1 2.6-4.2 3.5-.2-.4-.6-1-1.2-1.5 2.2-.7 3.4-1.8 4-3.2h-3.7v-.2zm11.6-10.3v-.9h-3.6v.9h3.6zm-3.6 1.2v1h3.6v-1h-3.6zm19.8 1.2h5.5v12.8h-2.1v-1.1h-12.3v1.1h-2v-12.8h5.1v-2.7h-6v-1.8h18.2v1.8h-6.4v2.7zm3.4 9.8v-4c-.5 1.4-1.1 1.6-2.2 1.6h-1.3c-.8 0-1.8-.2-1.8-1.9v-3.6H563c-.1 1.6-.4 4.6-3.3 6.7-.2-.3-.7-.9-1.5-1.3 2.1-1.5 2.7-3.1 2.7-5.4h-3.1v7.9h12.3zm-5.4-12.5H563v2.7h1.7v-2.7zm2 7.5c0 .7.1.7.9.7.4 0 .9 0 1.1-1.8.7.5 1 .7 1.4.8v-2.5h-3.4v2.8z"/></g><g class="st5"><path class="st9" d="M632.8 121.1c-.6.4-2.7 1.6-4.9 2.2-.3-.7-1-1.4-1.5-1.8 2.2-.5 5.3-1.8 8.1-4-1.1-1.3-2.4-2.4-2.7-2.7-.8.8-1.5 1.5-3 2.5-.3-.4-.7-.9-1.6-1.5 2.9-1.6 5.9-5.2 7-7.8l2 .6c.2.1.3.2.3.3 0 .1-.1.2-.2.3-.1 0-.2.1-.3.1-.2.3-.3.6-.6 1h5.4l1.1.9c-1.2 2.3-2.8 4.8-5.3 7.1h7.8v8.4h-2.1v-1h-7.2v1H633v-5.6h-.2zm1.3-8.9c-.2.3-.4.6-.9 1.1.8.6 1.8 1.6 2.9 2.7 1.5-1.6 2.3-2.8 2.8-3.8h-4.8zm8 11.7v-3.6h-7.2v3.6h7.2zm23-11.9v2h-8v3.4h5.4v9.2h-2.3v-1.2h-8.5v1.2h-2.3v-9.2h5.4V114h-8.1v-2h8.1v-3.6l2.3.1c.2 0 .6 0 .6.3 0 .2-.2.3-.5.4v2.8h7.9zm-13.4 11.6h8.5v-4.2h-8.5v4.2zm32.4-14.4v4.5h-13.8c-.1 5.6-.1 9.7-1.9 13.3-.3-.2-.8-.4-2-.7 1.7-2.9 2-5.9 2-12.7v-4.4h15.7zm-13.8 1.5v1.4h11.8v-1.4h-11.8zm7.9 10.6h4.7v1.6h-4.7v1.6h6.6v1.6h-14.5v-1.6h5.7v-1.6h-4.9v-1.6h4.9v-1.6c-.7 0-3.7.2-4.3.3-.1.2-.2.3-.4.3s-.3-.2-.3-.4l-.3-1.7h2.4c.5-.8 1.1-1.8 1.2-2h-3.7v-1.5h13.9v1.5h-3.4c1.1 1 2.2 2.1 3.2 3.2-.6.3-1.2 1-1.5 1.4-.3-.4-.4-.5-1.3-1.6-1.2.2-2.9.3-3.6.3.4 0 .8 0 .8.3 0 .2-.4.3-.6.4l.1 1.1zm1.2-5H677c0 .2-.2.2-.7.3-.5.8-.8 1.3-1 1.6 1.3-.1 3.1-.1 4.9-.3-.5-.5-.6-.6-1.4-1.2l.6-.4z"/></g><g class="st5"><path class="st10" d="M758.9 108.6c.3 0 .5 0 .5.2s-.2.2-.5.4v3.9l5.7-.1c-.1.9-.8 10.1-.8 10.5 0 .7.1.8 1 .8.8 0 1.2-.1 1.3-.6.3-.8.4-1.9.5-2.4.5.6 1.2 1 2 1.1-.6 3.5-1.3 3.8-3.2 3.8h-1.2c-1.6 0-2.5-.2-2.5-1.8 0-1.1.3-5.9.7-9.4h-3.6c-.3 3.4-.9 9.1-7.5 11.8-.7-1-1.3-1.3-1.7-1.5 6.6-2.1 7.1-8 7.3-10.2l-6.3.1-.1-2 6.4-.1v-4.7l2 .2zm14.6-.1l2.1.1c.3 0 .5.2.5.3 0 .2-.1.2-.5.4v6.3c0 3.2-.1 4.7-.8 6.5-.4 1.1-1.3 3.3-2.9 4.8-.6-.7-.8-.8-1.7-1.3 3-3 3.3-5.7 3.3-9.2v-2.3c-.1.1-.2.1-.4.1-.1 1.4-.3 3-1.2 5.3-.7-.3-1.6-.5-1.9-.6.6-1.5 1.1-3 1.2-5.7l1.9.3c.2 0 .3.1.4.1v-5.1zm5.5.5l2.1.1c.1 0 .4 0 .4.3 0 .1-.1.2-.4.3v16.1H779v-7.1c-.7.2-1.2.4-1.8.7-.2-.8-.7-2.8-1.6-4.9l1.8-.7c.8 1.6 1.5 3.9 1.6 4.2v-9zm5.9-.5l2.1.1c.2 0 .5 0 .5.3 0 .1-.1.2-.5.3v17.5h-2.1v-8.1c-.5.1-1 .3-1.9.7-.4-2.1-1.3-4-1.7-4.6l1.8-.8c.9 1.7 1.6 4 1.7 4.4v-9.8h.1z"/></g><g class="st5"><path class="st6" d="M494.4 29.3v3h-9.8l-1 5.3c1.3-1 3-1.4 4.6-1.4 4.3 0 7.4 2.6 7.4 6.8 0 1.6-.6 7.4-8.6 7.4-7.5 0-8.3-4.8-8.6-6.2h4.1c.5 2.8 3.6 2.8 4.5 2.8 3.1 0 4.6-1.8 4.6-4 0-1.6-.9-3.8-4.4-3.8-2.4 0-3.5.8-4 1.3h-4.1l2.2-11.3h13.1v.1z"/></g><g class="st5"><path class="st6" d="M506.8 41.6c-.8 4.8-3.7 7.2-4.8 8.1-.5-.7-1.6-1.7-2.5-2.2 4.5-3.2 4.5-7.4 4.5-10.3v-8.9h14.5V46c0 2.2-.2 3.6-5.2 3.5-.1-1-.6-2.5-1-3.3.6.1 1.4.2 2 .2.9 0 1-.4 1-1.5v-3.3h-8.5zm8.6-2.8v-2.4H507v2.4h8.4zm0-5.2v-2.4H507v2.4h8.4z"/></g><g class="st5"><path class="st6" d="M683.3 34.4c-.5-1.8-2.1-2.4-3.8-2.4-4 0-5 2.8-5.3 6.5.7-.6 2.2-2.1 5.9-2.1 5.1 0 7.5 3 7.5 6.8 0 4.4-3.4 7.2-8.3 7.2-4.7 0-9-2.8-9-10.6 0-9.8 6.4-11 9.1-11 .8 0 6.9.2 7.9 5.7h-4v-.1zm-8.7 8.7c0 2 1.5 4 4.7 4 3.4 0 4.4-2.2 4.4-4 0-2.2-1.8-3.7-4.4-3.7-4.1 0-4.7 2.7-4.7 3.7z"/></g><g class="st5"><path class="st6" d="M698.8 41.6c-.8 4.8-3.7 7.2-4.8 8.1-.5-.7-1.6-1.7-2.5-2.2 4.5-3.2 4.5-7.4 4.5-10.3v-8.9h14.5V46c0 2.2-.2 3.6-5.2 3.5-.1-1-.6-2.5-1-3.3.6.1 1.4.2 2 .2.9 0 1-.4 1-1.5v-3.3h-8.5zm8.6-2.8v-2.4H699v2.4h8.4zm0-5.2v-2.4H699v2.4h8.4z"/></g><g class="st5"><path class="st6" d="M879.3 29.3v3c-2.8 2-5 6.3-5.6 7.6-1.7 3.8-2 7.2-2.1 9.9h-4.1c.3-10.2 6.8-16.7 7.6-17.5h-12.6v-3h16.8z"/></g><g class="st5"><path class="st6" d="M890.8 41.6c-.8 4.8-3.7 7.2-4.8 8.1-.5-.7-1.6-1.7-2.5-2.2 4.5-3.2 4.5-7.4 4.5-10.3v-8.9h14.5V46c0 2.2-.2 3.6-5.2 3.5-.1-1-.6-2.5-1-3.3.6.1 1.4.2 2 .2.9 0 1-.4 1-1.5v-3.3h-8.5zm8.6-2.8v-2.4H891v2.4h8.4zm0-5.2v-2.4H891v2.4h8.4z"/></g><circle class="st7" cx="293" cy="93" r="5"/><circle class="st0" cx="107.2" cy="93" r="5"/><circle class="st8" cx="524" cy="93" r="5"/><circle class="st9" cx="616" cy="93" r="5"/><circle class="st10" cx="739" cy="93" r="5"/><path d="M23.9 115.4c-.6 4.5-3.9 6.4-7.7 6.9-.1 0-.2-.1-.2-.2v-2c0-.1.1-.2.2-.2 2.9-.4 4.6-2 4.9-4.4h-6.3c-.1 0-.2-.1-.2-.2v-2c0-.1.1-.2.2-.2h13.5c.1 0 .2.1.2.2v1.9c0 .1-.1.2-.2.2h-4.4zm3.7-5.5v1.1c0 .1-.1.2-.2.2H15.6c-.1 0-.2-.1-.2-.2v-2c0-.1.1-.2.2-.2H25v-1c0-.1.1-.2.2-.2h1.1c.1 0 .2.1.2.2v1h.6v-1c0-.1.1-.2.2-.2h1.1c.1 0 .2.1.2.2v1.8c0 .1-.1.2-.2.2l-.8.1zm2.5 5.6v-2c0-.1.1-.2.2-.2 2 .1 4.7.3 6.7.5.1 0 .2.1.2.2v2c0 .1-.1.2-.2.2-2.1-.3-4.7-.5-6.7-.6-.1.1-.2 0-.2-.1zm.2-4.5v-2c0-.1.1-.2.2-.2 2 .1 4.6.3 6.7.5.1 0 .2.1.2.2v2.1c0 .1-.1.2-.2.2-2-.2-4.7-.5-6.7-.6-.1 0-.2-.1-.2-.2zm.2 11v-2.1c0-.1.1-.2.2-.2 6.4-.2 9.5-2.3 10.1-8.4 0-.1.1-.2.2-.2h2.3c.1 0 .2.1.2.2-.7 8-5.5 10.8-12.8 10.9-.1 0-.2-.1-.2-.2zm9.2-11.7v-1.8c0-.1.1-.2.2-.2H41c.1 0 .2.1.2.2v1.8c0 .1-.1.2-.2.2h-1.1c-.2 0-.2-.1-.2-.2zm2.1 0v-1.8c0-.1.1-.2.2-.2h1.1c.1 0 .2.1.2.2v1.8c0 .1-.1.2-.2.2H42c-.1 0-.2-.1-.2-.2zm5.1 9.6c3.2-.4 5.4-1.5 6.9-3.3-2.1-.4-4-.7-5.8-.9-.1 0-.2-.1-.2-.2V114c-.8.8-1.7 1.4-2.7 1.8-.1.1-.3 0-.3-.2v-2.3c0-.1 0-.1.1-.2 1.3-.8 2.5-2.4 3.1-4.2 0-.1.1-.1.2-.1h10.3c.1 0 .2.1.2.1v.1c-.2 6.9-2.8 12.5-11.7 13.2-.1 0-.2-.1-.2-.2v-2c-.1 0 0-.1.1-.1zm2.8-8.7c-.4.7-.9 1.5-1.5 2.1 2.2.2 4.6.6 6.8 1.1.4-1 .6-2 .8-3.2h-6.1zm9.5 11.1v-2.5c0-.1 0-.1.1-.1 1.1-1.1 2-2.6 2-6.5V109c0-.1.1-.2.2-.2h2.1c.1 0 .2.1.2.2v4c0 5.7-1.7 8-4.2 9.5-.2 0-.4-.1-.4-.2zm6.1-.2V109c0-.1.1-.2.2-.2h2.1c.1 0 .2.1.2.2v10c2-.7 2.9-3.3 3.1-5.8 0-.1.1-.2.2-.2h2.1c.1 0 .2.1.2.2-.2 5.5-2.8 8.7-8 9.1 0 0-.1-.1-.1-.2zm18.9-8.1v8.4c0 .1-.1.2-.2.2h-2.3c-.1 0-.2-.1-.2-.2v-7c-2.1.8-4.3 1.3-6.3 1.7-.1 0-.2-.1-.2-.2v-2.1c0-.1.1-.2.2-.2 6.4-1.1 9.2-3.5 10.3-6 0-.1.1-.1.2-.1h2.5c.1 0 .2.1.2.3-.8 2.3-2.3 3.9-4.2 5.2zm2.9 7.9v-2.2c0-.1.1-.2.1-.2 5.1-1.5 8.1-4.9 8.8-10.6 0-.1.1-.2.2-.2h2.4c.1 0 .2.1.2.2-.9 7.3-5 11.7-11.6 13.1.1.1-.1.1-.1-.1zm21-6.6c-1.5-3.1-1.7-3.2-2.9-3.2h-.5l-1.6 3.7c-.6 1.7-1.7 2.6-3.2 2.9-.1 0-.2-.1-.2-.2v-2.2c0-.1 0-.1.1-.2.5-.3.8-.8 1.2-1.6l1.9-4.8c0-.1.1-.1.2-.1h2c2.7 0 3.5.4 5.3 4.1 1.3 2.6 2.5 5 4.2 5.7.1 0 .1.1.1.2v2.1c0 .3-.1.4-.2.4-2.9-.6-4.6-3-6.4-6.8zm1.3-4.5v-1.9c0-.1.1-.2.2-.2h1.2c.1 0 .2.1.2.2v1.9c0 .1-.1.2-.2.2h-1.2c-.1 0-.2-.1-.2-.2zm2.2 0v-1.9c0-.1.1-.2.2-.2h1.2c.1 0 .2.1.2.2v1.9c0 .1-.1.2-.2.2h-1.2c-.1 0-.2-.1-.2-.2zm2.7 4.9v-2.1c0-.1.1-.2.2-.2h12.1c.1 0 .2.1.2.2v2.1c0 .1-.1.2-.2.2h-12.1c-.1 0-.2-.1-.2-.2zm14.5-.2v-2c0-.1.1-.2.2-.2 2 .1 4.7.3 6.7.5.1 0 .2.1.2.2v2c0 .1-.1.2-.2.2-2.1-.3-4.7-.5-6.6-.6-.2.1-.3 0-.3-.1zm.2-4.5v-2c0-.1.1-.2.2-.2 2 .1 4.6.3 6.7.5.1 0 .2.1.2.2v2c0 .1-.1.2-.2.2-2-.2-4.7-.5-6.6-.6-.2.1-.3 0-.3-.1zm.2 11v-2.1c0-.1.1-.2.2-.2 6.4-.2 9.5-2.3 10.1-8.4 0-.1.1-.2.2-.2h2.3c.1 0 .2.1.2.2-.7 8-5.5 10.8-12.8 10.9-.1 0-.2-.1-.2-.2zm15.1-.1V120c0-.1.1-.2.2-.2h8.2v-2.4h-8c-.1 0-.2-.1-.2-.2v-1.9c0-.1.1-.2.2-.2h8V113h-8.2c-.1 0-.2-.1-.2-.2v-1.9c0-.1.1-.2.2-.2H155c.1 0 .2.1.2.2v10.9c0 .1-.1.2-.2.2h-10.5c-.1.1-.2 0-.2-.1zm13.5-10.6v-2.1c0-.1.1-.2.2-.2 2 .1 4.5.4 6.5.8.1 0 .2.1.2.2v2.2c0 .1-.1.2-.2.2-1.9-.4-4.5-.7-6.5-.9-.1 0-.2-.1-.2-.2zm.2 10.6v-2.2c0-.1.1-.2.2-.2 5.6-.4 9.1-2.1 9.7-8.1 0-.1.1-.2.2-.2h2.4c.1 0 .2.1.2.2-.6 7.5-5 10.4-12.5 10.7-.1 0-.2-.1-.2-.2z"/><path d="M82.8 133.5l-1.1-1.4c1.7-.8 3.2-1.9 4.5-3.4h-4V127h4.6v-1.6h1.8v1.6h2.3v1.7h-2.3v4.2c0 .4-.1.9-.5 1.2-.4.4-.9.4-1.6.4h-1.3l-.4-1.8c.5 0 1 .1 1.4.1.3 0 .5-.1.5-.4v-2.2c-1 1.5-2.3 2.4-3.9 3.3zm14-6.2l-1 1.7c-1-.7-2.1-1.2-3.3-1.6l.8-1.5c1.2.3 2.4.8 3.5 1.4zm-4.1 5.2c2-.2 3.5-.6 4.7-1.5s2-2.4 2.6-4.5l1.7.9c-.5 1.9-1.4 3.7-2.9 5-1.5 1.3-3.4 1.8-5.4 2.1l-.7-2zm18.7-4.3c-.2 2.4-1 3.9-2.3 4.9-1.2.8-2.7 1.2-4.7 1.4l-.5-1.7c1.3 0 3-.2 4-.9.7-.5 1.2-1.1 1.4-2h-6.4v-1.7h8.5zm-.6-2.5v1.7h-7.2v-1.7h7.2zm8.1 8.8H117v-4.2c-1 .6-2.1 1.1-3.3 1.4l-.9-1.6c1.6-.4 3.1-1.2 4.5-2.1 1.2-.8 2.1-1.7 3.1-2.8l1.6 1.1c-.9 1-1.9 1.9-3.1 2.7v5.5zm8.9-7.2l-1 1.7c-1-.7-2.1-1.2-3.3-1.6l.8-1.5c1.2.3 2.4.8 3.5 1.4zm-4.1 5.2c2-.2 3.5-.6 4.7-1.5s2-2.4 2.6-4.5l1.7.9c-.5 1.9-1.4 3.7-2.9 5-1.5 1.3-3.4 1.8-5.4 2.1l-.7-2z" fill="#135675"/><linearGradient id="SVGID_1_" gradientUnits="userSpaceOnUse" x1="136.3" y1="18.2" x2="199.9" y2="18.2" gradientTransform="translate(0 112)"><stop offset="0" stop-color="#135675"/><stop offset=".25" stop-color="#269c8a"/><stop offset=".5" stop-color="#0e2297"/><stop offset=".75" stop-color="#f2c4e9"/><stop offset="1" stop-color="#f2c4e9" stop-opacity="0"/></linearGradient><path d="M136.3 128h63.6v4.4h-63.6V128z" fill="url(#SVGID_1_)"/><linearGradient id="SVGID_00000016042918033221082000000011329797901438838717_" gradientUnits="userSpaceOnUse" x1="3653.84" y1="18.2" x2="3717.44" y2="18.2" gradientTransform="matrix(-1 0 0 1 3731.94 112)"><stop offset="0" stop-color="#135675"/><stop offset=".25" stop-color="#269c8a"/><stop offset=".5" stop-color="#0e2297"/><stop offset=".75" stop-color="#f2c4e9"/><stop offset="1" stop-color="#f2c4e9" stop-opacity="0"/></linearGradient><path d="M14.5 132.4h63.6V128H14.5v4.4z" fill="url(#SVGID_00000016042918033221082000000011329797901438838717_)"/><path d="M172.9 122.3v-1.9l3.6-6.9c.2-.3.3-.6.3-.9v-1.5c0-.2 0-.4-.1-.5s-.2-.3-.3-.4-.3-.1-.6-.1-.5.1-.7.3c-.2.2-.3.4-.3.8v1.1h-2v-1.1c0-.4.1-.8.2-1.2.2-.4.4-.7.7-1s.6-.5.9-.7.8-.2 1.2-.2c.5 0 1 .1 1.4.3.4.2.7.5.9.8s.4.7.5 1.1.2.9.2 1.3v.9c0 .3 0 .5-.1.7 0 .2-.1.4-.2.6-.1.2-.2.5-.4.8l-3 5.7h3.6v2h-5.8zm6.9-11.2c0-.5.1-.9.2-1.3.2-.4.4-.7.7-.9.3-.3.6-.5 1-.6s.7-.2 1.1-.2c.4 0 .8.1 1.1.2.4.1.7.3 1 .6.3.3.5.6.7.9.2.4.2.8.2 1.3v8.3c0 .5-.1.9-.2 1.3-.2.4-.4.7-.7.9-.3.3-.6.5-1 .6s-.7.2-1.1.2c-.4 0-.8-.1-1.1-.2-.4-.1-.7-.3-1-.6s-.5-.6-.7-.9c-.2-.4-.2-.8-.2-1.3v-8.3zm2.1 8.3c0 .3.1.5.3.7s.4.3.7.3.5-.1.7-.3.3-.4.3-.7v-8.3c0-.3-.1-.5-.3-.7s-.4-.3-.7-.3-.5.1-.7.3c-.2.2-.3.4-.3.7v8.3zm4.9 2.9v-1.9l3.6-6.9c.2-.3.3-.6.3-.9v-1.5c0-.2 0-.4-.1-.5s-.2-.3-.3-.4-.3-.1-.6-.1-.5.1-.7.3c-.2.2-.3.4-.3.8v1.1h-2v-1.1c0-.4.1-.8.2-1.2.2-.4.4-.7.7-1s.6-.5.9-.7.8-.2 1.2-.2c.5 0 1 .1 1.4.3.4.2.7.5.9.8s.4.7.5 1.1.2.9.2 1.3v.9c0 .3 0 .5-.1.7 0 .2-.1.4-.2.6-.1.2-.2.5-.4.8l-3 5.7h3.6v2h-5.8zm7 0v-1.9l3.6-6.9c.2-.3.3-.6.3-.9v-1.5c0-.2 0-.4-.1-.5s-.2-.3-.3-.4-.3-.1-.6-.1-.5.1-.7.3c-.2.2-.3.4-.3.8v1.1h-2v-1.1c0-.4.1-.8.2-1.2.2-.4.4-.7.7-1s.6-.5.9-.7.8-.2 1.2-.2c.5 0 1 .1 1.4.3.4.2.7.5.9.8s.4.7.5 1.1.2.9.2 1.3v.9c0 .3 0 .5-.1.7 0 .2-.1.4-.2.6-.1.2-.2.5-.4.8l-3 5.7h3.6v2h-5.8z"/><path d="M107 93h35" fill="none" stroke="#a5a5a5" stroke-width="3" stroke-miterlimit="10"/><path class="st0" d="M141.2 87.2v11.6L147 93l-5.8-5.8z"/><path d="M293 93.5h35" fill="none" stroke="#e60012" stroke-width="3" stroke-miterlimit="10"/><path class="st7" d="M327.2 87.7v11.6l5.8-5.8-5.8-5.8z"/><path d="M524 93.5h35" fill="none" stroke="#004ea2" stroke-width="3" stroke-miterlimit="10"/><path class="st8" d="M558.2 87.7v11.6l5.8-5.8-5.8-5.8z"/><path d="M616 93.5h35" fill="none" stroke="#f18d1e" stroke-width="3" stroke-miterlimit="10"/><path class="st9" d="M650.2 87.7v11.6l5.8-5.8-5.8-5.8z"/><path d="M739 93.5h35" fill="none" stroke="#0086d1" stroke-width="3" stroke-miterlimit="10"/><path class="st10" d="M773.2 87.7v11.6l5.8-5.8-5.8-5.8z"/></svg>