<svg xmlns="http://www.w3.org/2000/svg" width="1181.8" height="198.9" viewBox="0 0 1181.8 198.9"><path d="M307.8 84.5c0 6.5-2.1 11.8-6.4 16.1-4.5 4.5-10.5 6.8-17.9 6.8h-14.1v27.7H255V61.6h28.5c7.4 0 13.3 2.3 17.9 6.8 4.2 4.3 6.4 9.6 6.4 16.1zm-14.4 0c0-3-1-5.5-2.9-7.3-1.9-1.9-4.5-2.8-7.7-2.8h-13.4v20.1h13.4c3.2 0 5.8-.9 7.7-2.7 2-1.8 2.9-4.3 2.9-7.3zm72.1 50.6h-47.7V61.6h14.3v60.7h33.3v12.8zm66.3 0h-15l-4.3-13h-26.1l-4.4 13h-15l26.7-73.5H405l26.8 73.5zM408.7 110l-9-26.7-9.3 26.7h18.3zm78.2-48.4l-22.1 43.3V135h-14.2v-30.1l-22.1-43.3h15.6l13.7 29.6 13.5-29.6h15.6zm60.1 52.3c0 6.7-2.1 11.9-6.2 15.6-4.1 3.7-9.6 5.6-16.3 5.6h-30.7V61.6h29.5c7.1 0 12.6 1.9 16.7 5.6 4 3.7 6 8.7 6 15.1 0 3.7-1 7.1-3.1 10-1.7 2.3-3.7 4.1-6 5.2 6.7 3.1 10.1 8.6 10.1 16.4zm-15.4-31.1c0-2.5-.8-4.6-2.5-6.1s-4-2.3-7-2.3h-14v16.9h14c3 0 5.4-.8 7-2.3s2.5-3.6 2.5-6.2zm1 30.4c0-2.6-.8-4.8-2.5-6.4-1.7-1.7-4-2.5-7.1-2.5h-15v18.1h15c3.1 0 5.5-.9 7.1-2.6 1.7-1.8 2.5-4 2.5-6.6zm83.7 21.9h-15l-4.3-13h-26.1l-4.4 13h-15l26.7-73.5h11.2l26.9 73.5zM593.2 110l-9-26.7-9.3 26.7h18.3zm81.7 2.5c-1.2 7.5-4.4 13.3-9.4 17.3-4.7 3.9-10.6 5.9-17.6 5.9-7.8 0-14.4-2.7-19.8-8-3.3-3.3-5.4-7.5-6.4-12.7-.6-3-.8-8.6-.8-16.6 0-8 .3-13.6.8-16.6 1-5.2 3.1-9.4 6.4-12.7 5.4-5.4 12-8 19.8-8 7.1 0 13.1 2 17.9 6 4.9 4 7.9 9.7 9.1 17.2h-14.5c-1.7-6.9-5.8-10.4-12.4-10.4-4.3 0-7.7 1.6-10 4.8-1.9 2.6-2.8 9.2-2.8 19.7 0 5.7.1 9.3.2 10.7.5 4.6 1.6 7.9 3.4 10 2.3 2.5 5.3 3.8 9.2 3.8 6.5 0 10.7-3.5 12.4-10.4h14.5zm69.8 22.6H728l-18.9-33.4-9.5 11.4v22.1h-14.3V61.6h14.3v32l25.9-32h17.4l-24.4 29.2 26.2 44.3zm80.7-21.7c0 6.9-2.6 12.4-7.7 16.4-5.1 4-11.6 5.9-19.6 5.9-11.5 0-20.4-3.2-26.8-9.7l9.3-9.3c4.1 4.1 10 6.2 17.7 6.2 8.7 0 13-3 13-9.1 0-2.8-.7-4.8-2.2-6.1-1.4-1.3-3.6-2.2-6.6-2.6l-8.9-1.2c-13-1.8-19.5-8.6-19.5-20.5 0-6.7 2.3-12.1 6.9-16.1 4.6-4.1 10.8-6.1 18.7-6.1 9.9 0 17.8 2.9 23.7 8.6l-9.1 9c-3.5-3.4-8.5-5.1-15.1-5.1-3.6 0-6.4.9-8.4 2.6-2 1.8-2.9 4-2.9 6.7 0 2.1.8 3.9 2.3 5.4 1.5 1.4 3.8 2.4 6.7 2.8l8.7 1.2c6.3.9 10.9 2.8 14 5.7 3.9 3.3 5.8 8.5 5.8 15.3zm56.5-39h-19.2v60.7h-14.3V74.4h-19.2V61.6h52.7v12.8zm62.5 35.5c0 7.6-2.6 13.8-7.7 18.6-5.2 4.8-11.6 7.2-19.3 7.2-7.7 0-14.1-2.4-19.3-7.2-5.2-4.8-7.7-11-7.7-18.6V61.6h14.3v47.8c0 4.2 1.1 7.5 3.4 9.9 2.3 2.4 5.4 3.6 9.3 3.6 3.9 0 7-1.2 9.3-3.6 2.3-2.4 3.5-5.7 3.5-9.9V61.6h14.2v48.3zm67.3-11.9c0 8.2-.2 13.6-.6 16.1-.9 5.6-3.2 10.3-6.8 13.9-4.7 4.7-11.1 7-19.4 7h-26.5V61.6h26.5c8.3 0 14.7 2.3 19.4 7 3.6 3.6 5.9 8.2 6.8 13.6.4 2.5.6 7.8.6 15.8zm-14.3 0c0-5.9-.2-10.1-.5-12.5-.4-2.8-1.3-5-2.6-6.6-2.5-3-6.1-4.5-10.7-4.5h-10.8v47.9h10.8c4.7 0 8.3-1.5 10.7-4.5 1.3-1.6 2.2-3.9 2.6-6.9.3-2.6.5-6.9.5-12.9zm41.2 37.1h-14.3V61.6h14.3v73.5zm66.9-36.8c0 8-.3 13.5-.9 16.6-.9 5.1-3 9.3-6.4 12.7-5.4 5.4-12 8-19.8 8-7.9 0-14.5-2.7-19.9-8-3.3-3.3-5.4-7.5-6.4-12.7-.6-3-.8-8.6-.8-16.6 0-8 .3-13.6.8-16.6 1-5.2 3.1-9.4 6.4-12.7 5.4-5.4 12-8 19.9-8 7.8 0 14.4 2.7 19.8 8 3.4 3.4 5.5 7.6 6.4 12.7.6 3.1.9 8.6.9 16.6zm-14.3 0c0-5.6-.1-9.2-.2-10.7-.4-4.5-1.5-7.8-3.4-9.9-2.3-2.6-5.4-3.9-9.2-3.9-3.9 0-6.9 1.3-9.3 3.9-1.8 2.1-2.9 5.4-3.3 9.9-.1 1.2-.2 4.8-.2 10.7 0 5.9.1 9.5.2 10.7.4 4.5 1.5 7.8 3.3 9.9 2.3 2.6 5.4 3.9 9.3 3.9 4.3 0 7.6-1.7 10-5 1.8-2.4 2.8-8.9 2.8-19.5z" fill="#004EA2"/><path fill="#004EA2" d="M1099 14.7H184.4c3.6 3.6 6.9 7.4 10 11.3H1099c39.4 0 71.5 32.1 71.5 71.5S1138.4 169 1099 169H197.2c-2.8 4-5.9 7.8-9.2 11.3h911c45.7 0 82.8-37.2 82.8-82.8 0-45.6-37.1-82.8-82.8-82.8z"/><path fill="#004EA2" d="M99.5 198.9C44.6 198.9 0 154.3 0 99.5 0 44.6 44.6 0 99.5 0 154.3 0 199 44.6 199 99.5c-.1 54.8-44.7 99.4-99.5 99.4zm0-182.2c-45.7 0-82.8 37.1-82.8 82.8 0 45.7 37.1 82.8 82.8 82.8 45.7 0 82.8-37.1 82.8-82.8 0-45.7-37.2-82.8-82.8-82.8z"/><path fill="#004EA2" d="M68.9 51.8v95.3l75.8-47.6z"/></svg>