<svg xmlns="http://www.w3.org/2000/svg" width="509.792" height="138.004" viewBox="0 0 509.792 138.004"><path d="M37.764 102.308v34.366a.846.846 0 01-.846.846h-9.535a.846.846 0 01-.846-.846v-28.498c-8.401 3.435-17.511 5.513-25.57 6.745a.845.845 0 01-.967-.842v-8.451c0-.408.3-.757.702-.829 26.071-4.692 37.511-14.15 42.264-24.518a.83.83 0 01.758-.49h10.047c.571 0 .99.563.817 1.107-3.009 9.442-9.148 16.313-16.824 21.41zm11.994 32.449v-8.798c0-.37.25-.692.605-.793 20.967-5.973 33.165-20.229 36.05-43.368a.83.83 0 01.818-.732h9.997c.502 0 .896.448.835.947-3.645 29.858-20.478 47.654-47.283 53.566a.845.845 0 01-1.022-.822zm85.728-26.898c-6.188-12.504-7.081-13.269-11.865-13.269h-2.105l-6.442 15.246c-2.609 6.977-6.834 10.666-13.226 11.778-.521.091-.999-.327-.999-.856v-8.813c0-.317.182-.596.458-.751 2.046-1.149 3.461-3.264 4.71-6.653l7.885-19.806a.86.86 0 01.8-.542h8.028c11.227 0 14.288 1.658 21.688 16.712 5.219 10.685 10.376 20.524 17.005 23.269a.833.833 0 01.536.773v8.697c0 1.159-.491 1.572-1.018 1.47-11.072-2.146-17.963-12.086-25.455-27.255zm5.359-18.574v-7.761a.84.84 0 01.84-.84h4.954a.84.84 0 01.84.84v7.761a.84.84 0 01-.84.84h-4.954a.84.84 0 01-.84-.84zm8.931 0v-7.761a.84.84 0 01.84-.84h4.954a.84.84 0 01.84.84v7.761a.84.84 0 01-.84.84h-4.954a.84.84 0 01-.84-.84zm10.957 20.081v-8.437c0-.471.382-.853.853-.853h49.347c.471 0 .853.382.853.853v8.437a.853.853 0 01-.853.853h-49.347a.854.854 0 01-.853-.853zm59.393-.936v-8.168c0-.485.392-.877.877-.86 8.318.283 19.046 1.168 27.28 2.235a.85.85 0 01.738.852v8.227a.847.847 0 01-.95.851c-8.662-1.065-19.358-2.051-27.126-2.283a.845.845 0 01-.819-.854zm.638-18.43v-8.11c0-.485.392-.877.877-.86 8.141.281 18.654 1.108 27.27 2.117.433.051.75.418.75.853v8.345a.848.848 0 01-.95.852c-8.35-1.013-19.352-2.051-27.132-2.343a.844.844 0 01-.815-.854zm.766 44.919v-8.757a.86.86 0 01.834-.852c26.077-.912 38.669-9.561 41.191-34.217a.86.86 0 01.846-.777h9.52c.503 0 .904.44.862.942-2.703 32.511-22.287 43.94-52.369 44.526a.87.87 0 01-.884-.865zm62.005-.401v-7.71c0-.46.373-.833.833-.833h33.422v-9.823h-32.592a.833.833 0 01-.833-.833v-7.584c0-.46.373-.833.833-.833h32.592v-8.547h-33.422a.833.833 0 01-.833-.833v-7.647c0-.46.373-.833.833-.833h43.114c.46 0 .833.373.833.833v44.645c0 .46-.373.833-.833.833h-43.114a.836.836 0 01-.833-.835zm55.068-43.024v-8.748a.85.85 0 01.902-.858c8.282.532 18.345 1.777 26.597 3.262a.85.85 0 01.697.844v9.022c0 .539-.48.943-1.009.84-7.838-1.533-18.51-2.975-26.402-3.511a.843.843 0 01-.785-.851zm.893 43.222v-8.844c0-.446.35-.815.796-.849 22.839-1.736 37.209-8.45 39.762-33.293a.857.857 0 01.844-.775h9.651c.503 0 .903.441.861.942-2.566 30.516-20.493 42.592-51.016 43.682a.871.871 0 01-.898-.863zM0 67.617h1.974v6.429H0zm4.216-.895H6.19v7.324H4.216zm3.947-.285h3.948v7.608H8.163zm5.922-.512h3.948v8.12h-3.948zm5.921.248h1.974v7.872h-1.974zm3.947 1.268h1.974v6.605h-1.974zm3.948-.088h1.974v6.692h-1.974zm3.947.1h3.948v6.592h-3.948zm7.896-.841h1.974v7.433h-1.974zm3.947-.059h3.948v7.492h-3.948zm5.921 1.437h1.974v6.055h-1.974zm3.948-1.256h3.948v7.311H53.56zm5.921.144h1.974v7.168h-1.974zm5.921.483h3.948v6.684h-3.948zm5.922-.887h1.974v7.572h-1.974zm3.947.037h1.974v7.535h-1.974zm3.948.794h1.974v6.74h-1.974zm3.947-.929h1.974v7.669h-1.974zm5.922.775h3.948v6.895h-3.948zm5.921-1.067h3.948v7.961h-3.948zm5.921.552h1.974v7.409h-1.974zm3.948.436h3.948v6.974h-3.948zm5.921.969h1.974v6.004h-1.974zm5.921.018h3.948v5.987h-3.948zm5.922-2.252h1.974v8.239h-1.974zm3.947-.131h1.974v8.37h-1.974zm3.948 1.107h1.974v7.263h-1.974zm3.947-.71h3.948v7.972h-3.948zm5.922 1.384h3.948v6.588h-3.948zm7.895-1.308h1.974v7.896h-1.974zm3.947 1.141h3.948v6.756h-3.948zm5.922.231h1.974v6.524h-1.974zm3.947.551h1.974v5.974h-1.974zm5.921-.073h1.974v6.046h-1.974zm3.948.067h3.948v5.979h-3.948zm5.921-1.9h1.974v7.879h-1.974zm3.948.242h3.948v7.637h-3.948zm5.921-.185h1.974v7.822h-1.974zm3.948 1.755h1.974v6.067h-1.974zm5.921-.856h3.948v6.924h-3.948zm5.921.144h1.974v6.779h-1.974zm5.922-1.568h3.948v8.347h-3.948zm5.921 2.176h1.974v6.171h-1.974zm3.947-1.519h3.948v7.69h-3.948zm5.922-.365h1.974v8.055h-1.974zm3.947 1.69h1.974v6.365h-1.974zm3.948-2.1h3.948v8.465h-3.948zm5.921 1.186h1.974v7.279h-1.974zm5.921-.028h3.948v7.308h-3.948zm5.922-.291h1.974v7.598h-1.974zm3.947-.406h1.974v8.004h-1.974zm3.948.132h1.974v7.873h-1.974zm3.947.162h3.948v7.711h-3.948zm5.922.984h1.974v6.727h-1.974zm5.921-1.453h3.948v8.18h-3.948zm5.921.218h1.974v7.962h-1.974zm3.948.868h1.974v7.093h-1.974zm3.947.192h3.948v6.901h-3.948zm5.922.059h1.974v6.843h-1.974zm5.921-1.904h3.948v8.746h-3.948zm5.921-1.16h3.948v9.907h-3.948zm5.922.36h1.974v9.546h-1.974zm3.947-.637h3.948v10.183h-3.948zm5.921.851h1.974v9.332h-1.974zm5.922-2.462h1.974v11.794h-1.974zm3.947-8.553h1.974v20.348h-1.974zm5.922 1.332h3.948v19.015h-3.948zm5.921-6.516h1.974v25.532h-1.974zm3.947 12.443h1.974v13.088h-1.974zm3.948-3.614h3.948v16.702h-3.948zm5.921 3.522h3.948v13.181h-3.948zm5.922 2.753h1.974v10.428h-1.974zm3.947-11.147h1.974v21.574h-1.974zm5.921 1.65h1.974v19.924h-1.974zm3.948-2.096h3.948v22.021h-3.948zm5.921 2.479h1.974v19.542h-1.974zm3.948-6.404h1.974v25.945h-1.974zm3.947 7.975h3.948v17.971h-3.948zm5.922-5.87h3.948v23.84h-3.948zm7.895-4.908h1.974v28.749h-1.974zm3.947-6.399h1.974v35.147h-1.974zm3.948 4.473h3.948v30.674h-3.948zm5.921 5.362h1.974v25.313h-1.974zm5.921-.945h3.948v26.257h-3.948zm5.922-9.045h1.974v35.302h-1.974zm3.947-8.341h3.948v43.644h-3.948zm5.922-.072h1.974v43.716h-1.974zm3.947 10.46h3.948v33.256h-3.948zm5.921-16.957h1.974v50.212h-1.974zm5.922 10.275h1.974v39.938h-1.974zm3.947-2.795h1.974v42.732h-1.974zm3.948-6.777h1.974v49.509h-1.974zm3.947 10.266h3.948v39.244h-3.948zm5.922-20.277h1.974v59.521h-1.974zm5.921 3.609h3.948v55.911h-3.948zm5.921-9.187h1.974v65.099h-1.974zm5.922 9.187h1.974v55.911h-1.974zm3.947-10.694h3.948v66.606h-3.948zm5.921 3.038h3.948v63.567h-3.948zm5.922-7.299h1.974v70.866h-1.974zM38.338 31.704C35.776 50.268 22.371 57.929 6.71 59.79a.87.87 0 01-.968-.865v-8.367a.86.86 0 01.738-.844c11.973-1.817 18.619-8.321 20.057-18.011H.867A.866.866 0 010 30.836v-7.981c0-.468.38-.848.848-.848h55.375c.48 0 .87.389.87.87v7.956a.87.87 0 01-.87.87H38.338zM53.584 9.186v4.68a.87.87 0 01-.87.87H4.756a.864.864 0 01-.864-.864V5.776c0-.477.387-.864.864-.864H42.93V.87c0-.481.39-.87.87-.87h4.64c.48 0 .87.389.87.87v4.042h2.297V.87c0-.48.389-.87.87-.87h4.64c.48 0 .87.389.87.87v7.446a.87.87 0 01-.87.87h-3.533zm10.4 22.734v-8.225c0-.469.378-.847.847-.831 8.33.282 19.087 1.17 27.335 2.239a.821.821 0 01.713.823v8.285a.82.82 0 01-.918.823c-8.678-1.069-19.406-2.057-27.186-2.289a.815.815 0 01-.791-.825zm.638-18.43V5.324c0-.469.379-.847.848-.831 8.153.279 18.694 1.109 27.325 2.119a.823.823 0 01.724.825v8.404a.819.819 0 01-.917.823c-8.364-1.016-19.4-2.057-27.192-2.348a.817.817 0 01-.788-.826zm.766 44.88v-8.734a.87.87 0 01.845-.863c26.074-.915 38.663-9.568 41.182-34.23a.844.844 0 01.832-.764h9.548c.495 0 .889.433.848.926-2.698 32.518-22.279 43.952-52.359 44.541a.883.883 0 01-.896-.876zm37.507-47.747v-7.53c0-.475.385-.859.859-.859h4.596c.475 0 .859.385.859.859v7.53a.859.859 0 01-.859.859h-4.596a.86.86 0 01-.859-.859zm8.612 0v-7.53c0-.475.385-.859.859-.859h4.596c.475 0 .859.385.859.859v7.53a.859.859 0 01-.859.859h-4.596a.86.86 0 01-.859-.859zm71.215 48.981V49.28c0-.226.093-.439.256-.595 4.531-4.327 7.973-10.582 7.973-26.486V5.173c0-.461.374-.835.835-.835h8.728c.461 0 .835.374.835.835v16.325c0 23.187-7.02 32.748-17.372 38.836-.553.324-1.255-.088-1.255-.73zm25.006-.793V5.109c0-.461.374-.835.835-.835h8.728c.461 0 .835.374.835.835v41.202c8.341-2.677 12.005-13.372 12.71-23.846a.827.827 0 01.825-.776h8.742a.85.85 0 01.842.884c-.993 22.426-11.493 35.63-32.616 37.08a.85.85 0 01-.901-.842zM179.756 4.72h-42.047a.85.85 0 00-.802.575c-2.543 7.302-7.244 13.682-12.617 17.107a.836.836 0 00-.392.709v9.266c0 .617.639 1.051 1.203.8 4.051-1.799 7.717-4.454 10.854-7.533v6.317c0 .434.326.795.757.839 7.602.773 15.345 2.025 23.865 3.816-5.885 7.136-14.962 11.569-28.137 13.3a.868.868 0 00-.76.853v8.119a.88.88 0 00.952.871c36.676-3.118 47.278-25.683 47.974-54.017v-.171a.85.85 0 00-.85-.851zm-13.949 22.965c-8.994-2.041-18.69-3.445-27.684-4.402 2.424-2.807 4.465-5.804 5.997-8.739h24.877c-.638 4.848-1.658 9.249-3.19 13.141zM399.923 137.52v-7.756l14.864-28.033c.754-1.399 1.185-2.625 1.293-3.676.107-1.05.161-2.355.161-3.918 0-.699-.014-1.44-.04-2.222-.027-.78-.176-1.467-.444-2.061a3.847 3.847 0 00-1.212-1.494c-.539-.404-1.32-.605-2.343-.605-1.239 0-2.222.351-2.948 1.05-.728.7-1.091 1.725-1.091 3.07v4.686h-8.24v-4.524c0-1.723.323-3.339.969-4.847a12.505 12.505 0 012.666-3.959c1.077-1.131 2.37-2.032 3.878-2.706 1.508-.673 3.123-1.01 4.848-1.01 2.153 0 3.999.391 5.534 1.171a11.07 11.07 0 013.837 3.191c.97 1.347 1.683 2.882 2.141 4.604.457 1.725.687 3.555.687 5.494 0 1.4-.027 2.572-.08 3.514a21.524 21.524 0 01-.323 2.706 11.996 11.996 0 01-.808 2.586 53.211 53.211 0 01-1.535 3.15l-12.118 23.348h14.864v8.24h-24.56zm28.436-45.644c0-1.939.336-3.662 1.01-5.171.673-1.507 1.575-2.8 2.706-3.878 1.131-1.076 2.437-1.898 3.918-2.464s3.03-.848 4.646-.848 3.163.282 4.646.848a11.663 11.663 0 013.918 2.464c1.131 1.078 2.032 2.371 2.706 3.878.673 1.509 1.01 3.231 1.01 5.171v33.769c0 1.939-.337 3.663-1.01 5.171-.674 1.508-1.575 2.801-2.706 3.878s-2.438 1.898-3.918 2.464a12.926 12.926 0 01-4.646.848c-1.615 0-3.164-.282-4.646-.848s-2.787-1.387-3.918-2.464-2.033-2.37-2.706-3.878c-.674-1.508-1.01-3.231-1.01-5.171V91.876zm8.24 33.768c0 1.186.376 2.169 1.131 2.949.754.781 1.723 1.171 2.908 1.171 1.185 0 2.153-.39 2.908-1.171.754-.78 1.131-1.764 1.131-2.949V91.876c0-1.185-.377-2.168-1.131-2.949-.755-.78-1.724-1.171-2.908-1.171-1.186 0-2.154.391-2.908 1.171-.755.781-1.131 1.765-1.131 2.949v33.768zm20.198 11.876v-7.756l14.864-28.033c.754-1.399 1.185-2.625 1.293-3.676.107-1.05.161-2.355.161-3.918 0-.699-.014-1.44-.04-2.222-.027-.78-.176-1.467-.444-2.061a3.847 3.847 0 00-1.212-1.494c-.539-.404-1.32-.605-2.343-.605-1.239 0-2.222.351-2.948 1.05-.728.7-1.091 1.725-1.091 3.07v4.686h-8.24v-4.524c0-1.723.323-3.339.969-4.847a12.505 12.505 0 012.666-3.959c1.077-1.131 2.37-2.032 3.878-2.706 1.508-.673 3.123-1.01 4.848-1.01 2.153 0 3.999.391 5.534 1.171a11.07 11.07 0 013.837 3.191c.97 1.347 1.683 2.882 2.141 4.604.457 1.725.687 3.555.687 5.494 0 1.4-.027 2.572-.08 3.514a21.524 21.524 0 01-.323 2.706 11.996 11.996 0 01-.808 2.586 53.211 53.211 0 01-1.535 3.15l-12.118 23.348h14.864v8.24h-24.56zm28.436 0v-7.756l14.864-28.033c.754-1.399 1.185-2.625 1.293-3.676.107-1.05.161-2.355.161-3.918 0-.699-.014-1.44-.04-2.222-.027-.78-.176-1.467-.444-2.061a3.847 3.847 0 00-1.212-1.494c-.539-.404-1.32-.605-2.343-.605-1.239 0-2.222.351-2.948 1.05-.728.7-1.091 1.725-1.091 3.07v4.686h-8.24v-4.524c0-1.723.323-3.339.969-4.847a12.505 12.505 0 012.666-3.959c1.077-1.131 2.37-2.032 3.878-2.706 1.508-.673 3.123-1.01 4.848-1.01 2.153 0 3.999.391 5.534 1.171a11.07 11.07 0 013.837 3.191c.97 1.347 1.683 2.882 2.141 4.604.457 1.725.687 3.555.687 5.494 0 1.4-.027 2.572-.08 3.514a21.524 21.524 0 01-.323 2.706 11.996 11.996 0 01-.808 2.586 53.211 53.211 0 01-1.535 3.15l-12.118 23.348h14.864v8.24h-24.56z" fill="#FFF"/></svg>