<svg xmlns="http://www.w3.org/2000/svg" width="484.665" height="65" viewBox="0 0 484.665 65">
  <defs>
    <style>
      .cls-1 {
        fill: #00b4dc;
      }
    </style>
  </defs>
  <g id="レイヤー_2" data-name="レイヤー 2">
    <g id="object">
      <path class="cls-1" d="M28.689,16.1h3.24v3h-2.52a10.586,10.586,0,0,0,2.424,2.424,5.317,5.317,0,0,0-1.944,2.425,7.3,7.3,0,0,1-1.2-1.345v4.417H25.353V22.768A15.488,15.488,0,0,1,23.288,25.5a9.12,9.12,0,0,0-2.88-1.68A18.728,18.728,0,0,0,24.152,19.1H21.44v-3h3.913V14.944H21.128V12.183h2.544a13.34,13.34,0,0,0-.576-1.944l1.224-.456H21.872V7.07h3.745V4.91l3.456.241c.312.024.48.072.48.288,0,.168-.12.24-.48.48V7.07h2.856V9.783H30.3l.816.192c.24.048.336.12.336.288,0,.192-.144.24-.5.384a14.9,14.9,0,0,1-.672,1.536h2.232v2.761h-3.1a1.045,1.045,0,0,1-.72.36ZM26.048,9.783a12.237,12.237,0,0,1,.6,2.112l-1.1.288H27.3a11.659,11.659,0,0,0,.911-2.4Zm6.889-3.312,1.68.191A24.245,24.245,0,0,0,41.29,5.175l1.9,2.5a.611.611,0,0,1,.12.336.363.363,0,0,1-.384.384,1.571,1.571,0,0,1-.648-.264,22.561,22.561,0,0,1-5.929,1.08v2.737h6.529v3.192H41V27.017H37.618V15.136H36.345c0,6.672-2.16,10.416-3.408,11.952a11.792,11.792,0,0,0-3.312-1.344c3-3.192,3.312-6.552,3.312-10.921Z"/>
      <path class="cls-1" d="M55.089,10.215h1.848v2.929H55.089V17.3l2.784.1c.168,0,.408.048.408.288,0,.168-.048.216-.552.552v.816h6.217v2.9H57.729v1.44h9.025v3.024H45.2V23.392h9.1v-1.44H47.96v-2.9H54.3V17.9h-2.52V13.144H50.433a11.469,11.469,0,0,1-2.545,5.592,12.121,12.121,0,0,0-3.216-1.584c1.68-1.752,2.16-2.712,2.448-4.008H45.248V10.215h2.136V8.583H45.872V5.727H56.385V8.583h-1.3ZM51.777,8.583h-1.2v1.632h1.2ZM62.842,5.055l3.5.216c.168,0,.312.048.312.215,0,.145-.072.241-.432.5v10.2c0,1.656-.288,2.52-4.369,2.5a9.662,9.662,0,0,0-1.031-3.409H58.017V6.662l3.384.193c.217.024.432.024.432.24,0,.288-.288.408-.552.5v7.512c.072,0,.72.048.888.048.673,0,.673-.288.673-1.128Z"/>
      <path class="cls-1" d="M70.832,23.752V20.031H84.921V11.9H70.832V8.175H89.05V24.76H84.921V23.752Z"/>
      <path class="cls-1" d="M98.816,23.777V25H94.784V7.887h18.434V25h-3.985V23.777Zm10.417-3.553V11.463H98.816v8.761Z"/>
      <path class="cls-1" d="M126.921,5.343l4.057.143c.215,0,.5.025.5.289s-.384.408-.5.456V10.5h7.536v3.576h-7.561c-.24,4.057-1.728,9.337-8.425,12.721a13.77,13.77,0,0,0-3.048-2.9c7.009-3.049,7.249-7.2,7.417-9.818h-9.241V10.5h9.265Z"/>
      <path class="cls-1" d="M158.242,8.9a4.3,4.3,0,0,0,1.776-.241l2.376,1.753c-.144.576-.792,3.144-.936,3.672-1.224,4.2-2.616,7.345-5.688,10.249a13.188,13.188,0,0,1-4.273,2.857,12.374,12.374,0,0,0-3.048-2.809,14.569,14.569,0,0,0,6.529-4.9,19.386,19.386,0,0,0,2.9-7.177H146.409V17.44h-3.937V8.9h7.513V5.246l4.1.168c.192,0,.528.025.528.24,0,.265-.36.409-.528.457V8.9Z"/>
      <path class="cls-1" d="M178.593,26.488h-4.128V15.568a43.469,43.469,0,0,1-6.649,3.408,11.739,11.739,0,0,0-2.88-3.433A33.513,33.513,0,0,0,181.281,4.551l3.193,2.519a.559.559,0,0,1,.288.457c0,.215-.192.312-.384.312a1.5,1.5,0,0,1-.48-.072,47.258,47.258,0,0,1-5.305,4.921Z"/>
      <path class="cls-1" d="M197.577,6.759c.264.023.552.023.552.336,0,.288-.312.408-.408.456v5.856c0,6.313-3.073,8.977-5.952,11.45a12.206,12.206,0,0,0-3.241-2.617,12.8,12.8,0,0,0,3.888-3.7,8.521,8.521,0,0,0,1.176-4.921V6.567Zm6.12-.192c.264.024.456.024.456.263,0,.217-.239.337-.456.433V18.951a25.706,25.706,0,0,0,6.217-6.288,11.184,11.184,0,0,0,1.848,3.6,41.249,41.249,0,0,1-6.744,6.648c-.96.7-1.9,1.441-2.833,2.16l-2.544-1.631c.048-.649.1-1.249.1-1.921V6.351Z"/>
      <path class="cls-1" d="M215.672,10.239v-3.6h12.265a6.592,6.592,0,0,0,1.657-.193l1.872,2.04a7.343,7.343,0,0,0-.912,1.537,41.237,41.237,0,0,1-3.049,5.88,63.345,63.345,0,0,1,7.2,6.577c-.792.912-2.088,2.352-2.88,3.264a33,33,0,0,0-6.457-6.841,27.812,27.812,0,0,1-9.217,7.177,10.745,10.745,0,0,0-2.736-3.288,20.171,20.171,0,0,0,7.8-4.8,19.033,19.033,0,0,0,4.8-7.752Z"/>
      <path class="cls-1" d="M248.361,18.832a15.232,15.232,0,0,1,2.472,3.12c-.36.216-1.968,1.2-2.448,1.56a14.15,14.15,0,0,0-1.7-2.808c-.048.24-.288.288-.5.336v1.92c0,.937.384,1.08,1.392,1.08h2.04c.576,0,1.44,0,1.993-2.64a5.507,5.507,0,0,0,2.855,1.753c-.551,1.847-.72,2.5-1.56,3.1a2.744,2.744,0,0,1-1.848.408h-5.5c-2.352,0-2.64-1.007-2.64-2.472v-2.3c-.168.168-.6.12-.816.1a21.27,21.27,0,0,1-2.641,4.9,9.508,9.508,0,0,0-2.712-1.847,13.287,13.287,0,0,0,2.616-4.9,9.648,9.648,0,0,0-2.784-1.345c1.872-3.36,1.872-5.544,1.872-8.4V7.1h10.177c-.1-1.152-.1-1.729-.12-2.328l3.456.263c.192.025.409.048.409.264,0,.265-.265.408-.649.576.024.385.024.673.072,1.225h1.92a8.448,8.448,0,0,0-1.128-1.248l2.232-1.561a17.429,17.429,0,0,1,2.209,2.473c-.288.168-.384.24-.528.336h2.472v2.928h-4.777l3.313,1.32a.352.352,0,0,1,.216.312c0,.312-.288.36-.72.409a29.786,29.786,0,0,1-2.256,3.887,1.915,1.915,0,0,0,1.008.6c.552,0,.768-1.105.864-1.849a5.952,5.952,0,0,0,2.592,1.849,5.5,5.5,0,0,1-1.464,3.384,2.057,2.057,0,0,1-1.3.384,19.373,19.373,0,0,1,2.9,4.2,8.745,8.745,0,0,0-1.464.767c-1.176.792-1.32.865-1.56,1.032a16.813,16.813,0,0,0-2.9-4.68L255.8,20.2a5.855,5.855,0,0,1-2.905-1.9,19.781,19.781,0,0,1-2.256,2.136,8,8,0,0,0-2.664-2.136l.048-.025H244.5v.745h-2.785V13.407h6.937v4.441a19.811,19.811,0,0,0,2.3-2.185,17.889,17.889,0,0,1-1.944-5.64h-7.441c.049,1.824-.071,6.312-1.92,9.84l2.953,1.369a.986.986,0,0,1,.312.192V20.08l3.264.312c.1,0,.192.024.288.024a1.044,1.044,0,0,0-.144-.168Zm.48-8.209v2.136h-6.912V10.623ZM244.5,15.352v.935h1.68v-.935Zm7.656-5.329a18.4,18.4,0,0,0,.792,2.88,13.36,13.36,0,0,0,1.153-2.88Z"/>
      <path class="cls-1" d="M270.153,22.912a24.812,24.812,0,0,1-6.889,3.96,9.293,9.293,0,0,0-2.472-2.664,20.564,20.564,0,0,0,6.865-3.528h-6.5V17.728H262.9c-.048-.048-.1-.145-.12-.168l-1.776-2.593a49.61,49.61,0,0,0,6.337-4.176,10.015,10.015,0,0,0,1.224,2.472c-1.32,1.1-2.833,2.328-5.065,3.889a1.113,1.113,0,0,1-.024.576h6.673v-.912a12.988,12.988,0,0,1-1.392.671,8.869,8.869,0,0,0-2.257-2.28c2.449-1.08,4.513-2.232,4.993-4.968l-3.456.048-.048-3.217,3.744-.047a19.444,19.444,0,0,0-.024-1.968l3.408.216c.481.023.624.048.624.24,0,.264-.408.408-.624.479-.024.145-.048.792-.048.985l4.321-.048-.192,6.385c-.024.407.144.431.384.431.576,0,.792-.12.984-2.208a7.038,7.038,0,0,0,3,1.2c-.36,4.127-1.656,4.127-3.072,4.127h-2.353c-1.7,0-2.3-.816-2.256-2.4l.144-4.272h-1.2a8.643,8.643,0,0,1-3.216,5.665l2.28.12c.192,0,.624.023.624.311,0,.216-.168.313-.624.576v.865h9V20.68h-6.145a24.6,24.6,0,0,0,6.481,3.312,11.642,11.642,0,0,0-2.136,2.88,24.749,24.749,0,0,1-7.2-4.488v4.488h-3.744ZM262.592,8.03a21.307,21.307,0,0,1,3.576,1.753,23.947,23.947,0,0,0-1.656,2.5,15.091,15.091,0,0,0-3.5-1.728Zm1.824-3.551a19,19,0,0,1,3.5,1.824c-.937,1.344-1.056,1.488-1.68,2.519a14.5,14.5,0,0,0-3.433-1.872Z"/>
      <path class="cls-1" d="M306.9,7.047v3H291.225v3.864a28.03,28.03,0,0,1-.6,7.081,15.06,15.06,0,0,1-2.616,5.928,9.414,9.414,0,0,0-3-1.584,13.945,13.945,0,0,0,2.808-7.2l-1.56.935c-.048.145-.168.409-.432.409-.24,0-.336-.288-.384-.409l-.888-2.927a34.6,34.6,0,0,0,3.456-1.416V12.951a9.2,9.2,0,0,0-1.632.936,12.493,12.493,0,0,0-1.824-3.432L287.1,8.919c.36.552.576.888.912,1.464V7.047h7.2V4.862l3.816.121c.216,0,.36.1.36.215,0,.216-.216.384-.5.552v1.3Zm0,16.273v3.1H290.145v-3.1h2.016v-7.8l3.048.143c.12,0,.552.025.552.288,0,.168-.12.241-.288.336V23.32h1.536V14.415h-5.257V11.343H306.2v3.072h-5.737v2.376h4.945v3.217h-4.945V23.32Z"/>
      <path class="cls-1" d="M327.346,16.48a27.372,27.372,0,0,1,4.176,8.881,18.038,18.038,0,0,0-3.384,1.416,11.727,11.727,0,0,0-.6-2.424c-1.537.359-6.193,1.3-7.369,1.511-.12.312-.264.649-.5.649s-.36-.217-.408-.433l-.672-2.784a13.423,13.423,0,0,1-1.848,3.408,19.493,19.493,0,0,0-2.136-1.511c-.385,1.032-1.369,1.992-4.657,1.776a9.718,9.718,0,0,0-.912-3.457,9.74,9.74,0,0,0,1.7.192c.48,0,.792-.048.792-.84V18.951c-1.08.409-1.32.481-1.776.624-.1.217-.24.433-.408.433-.24,0-.288-.313-.312-.433l-.552-3.095c.624-.1,2.28-.577,3.048-.792V11.727h-2.5V8.679h2.5V4.862l3.481.1a.342.342,0,0,1,.384.336c0,.192-.312.36-.577.481v2.9h1.345v3.048h-1.345v2.881c.385-.121.889-.313,1.345-.5-.048.479-.144,2.639-.168,3.072-.384.168-.865.384-1.177.5v5.473c2.065-3.769,2.065-6.746,2.065-10.73V7.839h4.9V4.958l3.841.145c.239,0,.407.1.407.288,0,.263-.215.359-.744.6V7.839h5.329v3.216H320.265c0,2.713,0,7.608-1.416,11.521.192-.024.984-.144,1.128-.168a93.353,93.353,0,0,0,2.544-10.8l3.624.815c.217.048.385.145.385.313,0,.191-.217.288-.768.5-.865,3.672-1.513,5.929-2.353,8.641.7-.12,2.328-.384,2.953-.48a29.636,29.636,0,0,0-1.8-3.312Z"/>
      <path class="cls-1" d="M333.08,14.031V10.575h9.1V4.647l3.768.191c.144,0,.456.024.456.313,0,.192-.24.312-.456.383v5.041h8.929v3.456h-8.857A17.418,17.418,0,0,0,355.33,24.4a9.337,9.337,0,0,0-2.784,2.855c-2.424-1.08-6.241-4.416-8.425-8.832a18.447,18.447,0,0,1-9.361,8.929,8.533,8.533,0,0,0-2.544-3.193c2.016-.792,8.017-3.072,9.6-10.129Z"/>
      <path class="cls-1" d="M369.321,8.007V4.815l3.673.072c.095,0,.5.023.5.359,0,.288-.336.433-.5.5V8.007h6.048v3.216h-7.513v1.969h6.529c-.048,1.128-.048,6.12-.12,7.128-.216,3.432-.528,4.488-1.752,5.424a5.7,5.7,0,0,1-3.721,1.128c-.528,0-.863-.048-1.2-.072a5.819,5.819,0,0,0-1.128-3.576,22.691,22.691,0,0,0,2.4.217,1.522,1.522,0,0,0,1.607-1.3,24.58,24.58,0,0,0,.457-5.689h-3.193c-.648,6.6-4.032,9.673-5.664,10.705a10.39,10.39,0,0,0-2.976-2.04C368.1,21.688,368.1,16,368.1,12.975c0-.816-.024-1.367-.048-1.752h-3V10.1c-.744,1.849-.96,2.352-1.3,3.072.721,1.057,2.233,3.481,2.233,5.689,0,3.528-3.649,3.744-4.561,3.792a9.265,9.265,0,0,0-.672-2.064v6.361h-3.264V5.511H365.1l1.3,1.008a14.28,14.28,0,0,1-.528,1.488Zm-8.569.5v3.816a26.8,26.8,0,0,0,1.489-3.816Zm0,10.585c1.1.048,1.776-.1,1.776-.792a7.082,7.082,0,0,0-1.776-4.08Z"/>
      <path class="cls-1" d="M401.89,12.015v3.5h-7.465v7.272h8.665V26.32H380.984V22.792h3.144V9.183l3.865.216c.215.024.527.072.527.36,0,.264-.479.456-.671.5V22.792h2.88V5.03l3.816.168c.12,0,.528.025.528.336,0,.288-.408.529-.648.624v5.857Z"/>
      <path class="cls-1" d="M416.313,22.816c5.208-.96,6.745-4.993,6.745-7.489a5.689,5.689,0,0,0-5.545-5.881c-.744,8.786-4.368,15.338-6.912,15.338-1.873,0-5.353-3.168-5.353-7.608A11.783,11.783,0,0,1,417.009,5.99c5.257,0,9.841,3.577,9.841,9.314a11.18,11.18,0,0,1-2.832,7.416,13.27,13.27,0,0,1-5.209,3.48A15.562,15.562,0,0,0,416.313,22.816ZM408.8,16.888c0,1.848,1.032,3.24,1.536,3.24.577,0,1.033-1.08,1.3-1.7a21,21,0,0,0,1.848-8.257A8.159,8.159,0,0,0,408.8,16.888Z"/>
      <path class="cls-1" d="M440.385,5.9c.216.048.48.143.48.383,0,.289-.336.313-.528.313-.1.384-.5,2.088-.6,2.424a15.272,15.272,0,0,0,3.984-1.176l.408,3.769a31.539,31.539,0,0,1-5.424,1.128,57.979,57.979,0,0,1-6.289,14.041,24.85,24.85,0,0,0-3.624-1.825,38.96,38.96,0,0,0,5.929-11.64c-1.465.119-1.753.119-4.393.143l-.312-3.936c.72.048,1.56.1,2.784.1,1.08,0,1.8-.024,2.857-.1.336-1.8.5-3.361.648-4.536Zm1.8,14.449a2.349,2.349,0,0,0-.648,1.416.649.649,0,0,0,.432.624,8.811,8.811,0,0,0,3.217.408,17.34,17.34,0,0,0,5.28-.792,10.4,10.4,0,0,0-.168,1.872,17.253,17.253,0,0,0,.144,1.992,29.007,29.007,0,0,1-4.968.409c-3.145,0-7.321-.456-7.321-3.865a6.511,6.511,0,0,1,.936-3.144Zm-1.128-6.793a30.745,30.745,0,0,1,5.305-.432,17.176,17.176,0,0,1,3.528.264c-.144,1.776-.168,2.16-.192,3.769a13.949,13.949,0,0,0-3.6-.432,44.246,44.246,0,0,0-5.041.432Z"/>
      <path class="cls-1" d="M459.057,6.543a20.766,20.766,0,0,0,.552,3.936,11.456,11.456,0,0,1,4.321-1.392,23.1,23.1,0,0,0,.359-4.129l4.057.937c.288.072.456.168.456.36,0,.336-.384.312-.5.312-.025.12-.456,2.16-.528,2.52a7.784,7.784,0,0,1,6.913,8.065c0,6.84-6.433,8.88-9.217,9.312a11.27,11.27,0,0,0-2.113-3.144A11.027,11.027,0,0,0,467.817,22a5.167,5.167,0,0,0,3.12-4.969,4.243,4.243,0,0,0-3.959-4.56,23.091,23.091,0,0,1-3.073,7.081c.264.336.456.6,1.105,1.344a18.152,18.152,0,0,0-3.049,2.76c-.336-.48-.48-.7-.7-1.056-2.256,2.064-3.673,2.184-4.489,2.184-2.112,0-3.576-1.536-3.576-4.129a11.662,11.662,0,0,1,3.408-7.848,48.3,48.3,0,0,1-1.44-5.04Zm-1.128,9.769a7.667,7.667,0,0,0-1.392,3.936c0,.168,0,.84.7.84.721,0,1.609-.96,2.208-1.584C458.553,17.752,458.121,16.791,457.929,16.312Zm2.712-2.593a21.576,21.576,0,0,0,1.152,2.52,14.258,14.258,0,0,0,1.44-3.648A9.221,9.221,0,0,0,460.641,13.719Z"/>
      <path class="cls-1" d="M481.953,26.513a19.353,19.353,0,0,0-4.873-4.129l2.328-2.568a31.221,31.221,0,0,1,5.257,4.032Z"/>
      <path class="cls-1" d="M28.761,53.823c-.672.577-1.872,1.825-1.872,2.617,0,1.728,3.288,1.728,4.3,1.728a33.521,33.521,0,0,0,9.625-1.44,18.189,18.189,0,0,0,.624,4.08,36.5,36.5,0,0,1-9.385,1.1c-3.744,0-5.233-.408-6.408-.887-.768-.313-3.049-1.441-3.049-3.865,0-2.5,2.5-4.728,3.481-5.617Zm10.081-7.9a16.8,16.8,0,0,0-6.049,3.912c-.864-.744-1.776-1.512-2.52-2.063.888-.817,1.1-.985,1.8-1.561-1.488.12-5.52.336-7.561.288l-.192-4.009a48.153,48.153,0,0,0,5.977.313,46.7,46.7,0,0,0,6.7-.552ZM39.9,42.183a17.061,17.061,0,0,1,2.184,2.52,9.722,9.722,0,0,0-1.416,1.728,26.532,26.532,0,0,0-2.3-2.664Zm1.848-2.04A25.764,25.764,0,0,1,44,42.494a9.624,9.624,0,0,0-1.536,1.633,20.118,20.118,0,0,0-2.088-2.352Z"/>
      <path class="cls-1" d="M57.729,62.945H54.273V56.536a23.8,23.8,0,0,1-7.033,6.12,8.315,8.315,0,0,0-3.072-2.376,20.58,20.58,0,0,0,7.7-6.144H44.96v-3.12h4.488a19.4,19.4,0,0,0-1.92-3.553l1.728-.96H46.088v-3.12h8.185V40.935l3.6.216c.288.024.528.047.528.36,0,.336-.48.408-.672.456v1.416h8.137V46.5h-3.12l1.464.624c.168.072.24.168.24.288,0,.312-.288.361-.48.408a21.428,21.428,0,0,1-1.513,3.193h4.537v3.12H59.865a18.7,18.7,0,0,0,7.465,5.809,11.249,11.249,0,0,0-2.544,2.591,18.826,18.826,0,0,1-7.057-6.144ZM54.273,51.016V46.5h-3.1a13.472,13.472,0,0,1,1.992,3.7,12.21,12.21,0,0,0-1.824.817ZM57.729,46.5v4.513h2.785a16.851,16.851,0,0,0-1.657-.864A18.843,18.843,0,0,0,60.682,46.5Z"/>
      <path class="cls-1" d="M79.281,56.248a16.783,16.783,0,0,1-2.832,2.905,6.026,6.026,0,0,0-2.257-1.609c.432-.336.792-.6,1.345-1.08-1.489.647-3.312,1.344-5.257,1.992,0,.288-.1.624-.36.624-.24,0-.336-.312-.384-.552l-.816-3.384a19.506,19.506,0,0,0,2.712-.5V49.192H68.96V46.071h2.472V41.078l3.552.193c.288.023.505.048.505.263,0,.168-.144.288-.505.456v4.081h2.137v3.121H74.984V53.56c.577-.24.937-.384,1.513-.649h-.168V50.487H90.874v2.424H81.585l-.456.769h9.577c0,2.424-.072,7.224-1.632,8.448-.912.721-2.449.792-3.961.792a7.178,7.178,0,0,0-.648-2.592,18.322,18.322,0,0,1-2.856,3,6.1,6.1,0,0,0-2.544-1.536,16.7,16.7,0,0,0,5.064-5.544h-1.08a16.75,16.75,0,0,1-6.312,6.361,6.289,6.289,0,0,0-2.113-1.92,14.67,14.67,0,0,0,5.593-4.441ZM77.1,52.911a10.486,10.486,0,0,0-.168,2.137,15.527,15.527,0,0,0,1.464-2.137Zm12.1-3.216H77.985V41.246H89.194Zm-3.24-5.136v-.817H81.225v.817Zm-4.729,1.92V47.3h4.729v-.816Zm5.665,9.769a26.143,26.143,0,0,1-1.9,3.336c.287.025.551.048.839.048.48,0,.913-.048,1.081-.6a12.239,12.239,0,0,0,.432-2.784Z"/>
      <path class="cls-1" d="M104.313,58.816c5.208-.96,6.745-4.993,6.745-7.489a5.689,5.689,0,0,0-5.545-5.881c-.744,8.786-4.368,15.338-6.912,15.338-1.873,0-5.353-3.168-5.353-7.608A11.783,11.783,0,0,1,105.009,41.99c5.257,0,9.841,3.577,9.841,9.314a11.18,11.18,0,0,1-2.832,7.416,13.27,13.27,0,0,1-5.209,3.48A15.562,15.562,0,0,0,104.313,58.816ZM96.8,52.888c0,1.848,1.032,3.24,1.536,3.24.577,0,1.033-1.08,1.3-1.7a21,21,0,0,0,1.848-8.257A8.159,8.159,0,0,0,96.8,52.888Z"/>
      <path class="cls-1" d="M135.1,52.071h-7.728V50.919a11.782,11.782,0,0,1-1.848,1.729c-.336-.288-.864-.7-1.224-.985a5.824,5.824,0,0,1,.432,2.425c0,3.6-1.968,3.672-3.841,3.768a7.741,7.741,0,0,0-.624-2.113V62.9h-2.856V41.534h6.241l1.1,1.033a16.661,16.661,0,0,1-.5,1.919,15.081,15.081,0,0,0,1.992-3.912l2.88.96c.168.048.24.145.24.241,0,.288-.36.36-.624.431H130.4c-.024-.168-.072-.479-.1-.72l2.857-.648a9.906,9.906,0,0,0,.671,3.241V42.206h4.2l1.608,1.681a37.784,37.784,0,0,1-2.9,4.057,12.342,12.342,0,0,0,2.784,1.872,16.074,16.074,0,0,0-2.088,2.519,8.581,8.581,0,0,1-2.329-1.7Zm-14.833-7.608v4.248a24.785,24.785,0,0,0,1.152-4.248Zm0,10.177c.216,0,.552.048.72.048.552,0,.84-.241.84-1.008a5.53,5.53,0,0,0-1.56-3.576Zm4.7-6.529a3.972,3.972,0,0,1-.432.457c-.624-.553-.84-.721-1.2-1.009-.312.96-.336,1.08-.5,1.512a4.4,4.4,0,0,1,.84,1.3,10.754,10.754,0,0,0,1.992-1.656C125.505,48.568,125.241,48.327,124.977,48.111Zm10.8,7.92a23.477,23.477,0,0,1,3.864,3.841,11.621,11.621,0,0,0-2.712,2.113,21.951,21.951,0,0,0-3.721-3.913v2.617c0,.863,0,2.5-4.464,2.208a9.916,9.916,0,0,0-1.056-3.409,15.282,15.282,0,0,1-1.992,2.76,15.715,15.715,0,0,0-2.856-1.632,15.714,15.714,0,0,0,3.168-4.585H125.1v-2.9h13.345v2.9Zm-8.449-9.312c-.216-.168-.48-.36-.768-.552-.24.312-.336.456-.48.624.216.168.408.336.744.624C127.161,46.959,127.233,46.863,127.329,46.719Zm1.632,10.609c.144.072.264.144.264.288,0,.264-.24.312-.552.336-.312.528-.6.96-.96,1.512.672.1,1.368.168,1.584.168.6,0,.6-.24.6-.816V56.031h-3.648Zm-1.2-13.033c-.12.191-.168.264-.288.456.264.192.7.5.792.576a8.7,8.7,0,0,0,.576-1.032Zm6.049,4.92a15.76,15.76,0,0,1-2.377-3.984,27.887,27.887,0,0,1-2.616,3.984Zm1.848,6.816h-2.449v1.945ZM133.93,44.319a8.626,8.626,0,0,0,.792,1.44,8.174,8.174,0,0,0,1.032-1.44Z"/>
      <path class="cls-1" d="M147.2,42.807c.192.072.312.168.312.336,0,.288-.456.336-.672.36a33.108,33.108,0,0,0-1.441,9.24,17.169,17.169,0,0,0,.168,2.4c.312-.456.817-1.224,1.129-1.7a10.029,10.029,0,0,0,1.728,2.376,10.651,10.651,0,0,0-1.992,5.88l-3.217.6a33.857,33.857,0,0,1-1.3-9.673,43.245,43.245,0,0,1,1.44-10.992Zm11.4-.529c.12.025.312.048.312.265,0,.287-.336.36-.552.384a26.239,26.239,0,0,0-.24,2.88,21.691,21.691,0,0,0,3.552-.888v3.624c-.552.145-1.656.408-3.649.769a38.744,38.744,0,0,0,.385,5.52,13.394,13.394,0,0,1,4.56,2.472c-.384.7-1.1,2.256-1.632,3.385a8.485,8.485,0,0,0-2.568-1.825c-.1,3.073-3.168,3.432-4.681,3.432-3.6,0-5.4-1.968-5.4-4.2,0-2.857,2.832-3.937,5.952-3.864-.192-2.737-.216-3.048-.264-4.441-1.368.12-2.352.12-2.76.12a17.747,17.747,0,0,1-1.776-.072V46.071a25.438,25.438,0,0,0,4.512.168c0-1.008,0-3.121.024-4.68ZM153.633,57.16c-.528,0-1.68.168-1.68.912,0,.624.792.888,1.56.888.192,0,1.632,0,1.632-1.176a.659.659,0,0,0-.048-.312A3.4,3.4,0,0,0,153.633,57.16Z"/>
      <path class="cls-1" d="M177.057,46.767c1.176.744,2.736,1.752,3.432,2.3,3.5,2.808,3.864,3.1,4.585,3.937a28.739,28.739,0,0,0-2.784,3.1,24.4,24.4,0,0,0-5.233-4.849v11.69h-3.84V45.231h-8.089v-3.5H187.09v3.5H177.057Z"/>
      <path class="cls-1" d="M199.209,44.751v2.664H188.648V44.751Zm-.84,9.985v7.9h-3.36v-.7h-2.136v1.1h-3.385v-8.3Zm-.432-13.3v2.544H189.8V41.439Zm0,6.744V50.7H189.8v-2.52Zm0,3.289v2.5H189.8v-2.5Zm-5.064,6.1V59.1h2.136V57.568Zm10.7-4.825v5.641c0,.816.072,1.128,1.176,1.128h2.257c1.128,0,1.608,0,1.656-2.88a10.5,10.5,0,0,0,3,1.272c-.192,2.832-.528,4.9-3.192,4.9h-5.617c-2.712,0-2.976-1.655-2.976-2.855V49.407h7.129v-4.9h-7.225V41.439h10.9V53.608H207.01v-.865Z"/>
      <path class="cls-1" d="M224.313,58.816c5.208-.96,6.745-4.993,6.745-7.489a5.689,5.689,0,0,0-5.545-5.881c-.744,8.786-4.368,15.338-6.912,15.338-1.873,0-5.353-3.168-5.353-7.608A11.783,11.783,0,0,1,225.009,41.99c5.257,0,9.841,3.577,9.841,9.314a11.18,11.18,0,0,1-2.832,7.416,13.27,13.27,0,0,1-5.209,3.48A15.562,15.562,0,0,0,224.313,58.816ZM216.8,52.888c0,1.848,1.032,3.24,1.536,3.24.577,0,1.033-1.08,1.3-1.7a21,21,0,0,0,1.848-8.257A8.159,8.159,0,0,0,216.8,52.888Z"/>
      <path class="cls-1" d="M242.457,57.592c.191.072.6.264.6.576,0,.36-.577.408-.816.408a21.384,21.384,0,0,1-2.761,4.752,12.641,12.641,0,0,0-3.1-2.088,14.619,14.619,0,0,0,2.976-5.016ZM257.794,42.83v3h-8.5v1.176h7.273v8.929H239.36V47.007h6.169V40.815l3.984.192c.1,0,.384,0,.384.312,0,.288-.312.36-.6.456V42.83Zm-14.641,7.3v2.784h9.673V50.127Zm3.312,6.528a19.183,19.183,0,0,1,1.344,5.473,10.752,10.752,0,0,0-3.48.817,22.63,22.63,0,0,0-1.176-5.593Zm4.92-.311a23.749,23.749,0,0,1,2.016,5.593,10.144,10.144,0,0,0-3.6.935,20.307,20.307,0,0,0-1.7-5.64Zm4.729-.313c2.784,3.529,3.1,4.249,3.456,5.041a12.082,12.082,0,0,0-3,1.873,32.884,32.884,0,0,0-3.24-5.425Z"/>
      <path class="cls-1" d="M267.225,42.782c.456.168.648.241.648.409,0,.215-.48.263-.648.288a27.854,27.854,0,0,0-1.56,9.913,8.359,8.359,0,0,0,.167,1.92c.145-.264.721-1.321,1.009-1.8a7.035,7.035,0,0,0,1.848,1.968,13.541,13.541,0,0,0-1.585,5.736l-3.408.912a25.3,25.3,0,0,1-1.7-9.6,45.532,45.532,0,0,1,1.536-11.137Zm6.336,11.282a6.518,6.518,0,0,0-.36,1.7c0,1.056.576,1.224,3.337,1.224a24.445,24.445,0,0,0,5.928-.648,15.951,15.951,0,0,0-.36,3.912,50.948,50.948,0,0,1-6.073.313c-3.576,0-6.336-.624-6.336-3.553a8.9,8.9,0,0,1,.792-3.529Zm-2.9-10.249c.72.047,1.68.12,3.12.12a27.861,27.861,0,0,0,7.057-.768,36.121,36.121,0,0,0,.336,3.648,35.741,35.741,0,0,1-7.393.72c-1.416,0-2.352-.072-3.12-.12Z"/>
      <path class="cls-1" d="M292.761,53.823c-.672.577-1.872,1.825-1.872,2.617,0,1.728,3.288,1.728,4.3,1.728a33.521,33.521,0,0,0,9.625-1.44,18.189,18.189,0,0,0,.624,4.08,36.5,36.5,0,0,1-9.385,1.1c-3.744,0-5.233-.408-6.408-.887-.768-.313-3.049-1.441-3.049-3.865,0-2.5,2.5-4.728,3.481-5.617Zm10.081-7.9a16.8,16.8,0,0,0-6.049,3.912c-.864-.744-1.776-1.512-2.52-2.063.888-.817,1.1-.985,1.8-1.561-1.488.12-5.52.336-7.561.288l-.192-4.009a48.153,48.153,0,0,0,5.977.313,46.7,46.7,0,0,0,6.7-.552Zm1.056-3.744a17.061,17.061,0,0,1,2.184,2.52,9.722,9.722,0,0,0-1.416,1.728,26.532,26.532,0,0,0-2.3-2.664Zm1.848-2.04A25.764,25.764,0,0,1,308,42.494a9.624,9.624,0,0,0-1.536,1.633,20.118,20.118,0,0,0-2.088-2.352Z"/>
      <path class="cls-1" d="M320.841,52.119a19.108,19.108,0,0,0-1.776-1.632c-1.44.48-2.232.817-2.592.96a13.84,13.84,0,0,0-.48-1.416,49.712,49.712,0,0,1-5.5,1.993c-.048.192-.144.719-.528.719-.144,0-.336-.095-.408-.408l-.72-3.191c.36-.073.456-.073,1.2-.265l-.48-7.32,2.04.36a12.475,12.475,0,0,0,6.193-1.368l1.992,2.712a.951.951,0,0,1,.12.216V41.727H330.3c-.192,9.648-.936,10.176-5.592,10.176a10.4,10.4,0,0,0-.889-3.12,9.121,9.121,0,0,1-2.952,3.336h7.969v10.8h-3.6V62.2H314.7v.72H311.12v-10.8Zm-.936-7.44V43.671a.333.333,0,0,1-.336.191c-.216,0-.312-.047-.72-.288a21.851,21.851,0,0,1-5.688,1.105l.263,3.265c.217-.073.529-.168,1.417-.481a10,10,0,0,0-.744-1.32l2.856-1.321a30.339,30.339,0,0,1,2.352,4.417,5.692,5.692,0,0,0,2.28-4.56Zm-1.656,11.329V54.832H314.7v1.176Zm0,3.576V58.336H314.7v1.248Zm6.984-3.576V54.832h-3.6v1.176Zm-3.6,2.328v1.248h3.6V58.336Zm3.193-13.657a10.712,10.712,0,0,1-.841,3.721,5.756,5.756,0,0,0,1.321.239c.792,0,1.151,0,1.392-3.96Z"/>
      <path class="cls-1" d="M338.48,58.5c.241.12.5.264.5.5,0,.312-.551.336-.768.336a28.016,28.016,0,0,1-2.592,3.576,7.013,7.013,0,0,0-2.736-1.7,16.86,16.86,0,0,0,2.928-4.152ZM353.7,42.183v2.544h-3.024c.024.288-.384.336-.72.36-.121.264-.168.384-.312.648h5.472v2.592H333.056V45.735h5.112c-.12-.192-.312-.48-.48-.72l1.128-.288h-4.44V42.183h7.753V40.7l3.72.192c.144,0,.384.071.384.239,0,.193-.144.313-.384.456v.6Zm-9.889,14.641h-7.441V49.192h15.29v7.632h-5.977a17.354,17.354,0,0,1,1.368,1.776c-.24.168-1.968,1.272-2.352,1.488a13.783,13.783,0,0,0-1.9-2.664Zm-1.752.7c.408.048.72.1.72.312s-.168.24-.6.36v1.392c0,.72.456.769.888.769h3.144c.864,0,1.224-.865,1.512-2.041a7.312,7.312,0,0,0,2.833,1.416c-.409,1.56-.841,3.192-3.576,3.192h-5.473c-2.016,0-2.424-.72-2.424-2.136V57.232Zm6.216-5.376V51.136h-8.4v1.008Zm-8.4,1.7V54.88h8.4V53.848Zm1.488-9.121q.4.612.648,1.008h3.768c.264-.528.312-.6.48-1.008Zm10.825,12.145a19.424,19.424,0,0,1,2.952,3.792,14.775,14.775,0,0,0-2.52,1.777,26.96,26.96,0,0,0-2.929-4.057Z"/>
      <path class="cls-1" d="M374.434,42.975c.144.12.24.216.24.36a.256.256,0,0,1-.288.264,1.423,1.423,0,0,1-.408-.1c-.48.456-4.393,3.5-5.209,4.2-1.1.936-2.448,2.088-3.336,2.88-.768.7-.84.792-.84.985,0,.24.1.311,1.032.839.072.048,2.28,1.513,4.44,3.168a25.31,25.31,0,0,1,4.969,4.7,15.185,15.185,0,0,0-2.761,3.241c-1.056-1.561-5.016-5.737-12.1-10.322a1.674,1.674,0,0,1-.816-1.416c0-.624.1-.912,2.52-2.832a63.327,63.327,0,0,0,9.145-8.617Z"/>
      <path class="cls-1" d="M392.553,41.919c.192.048.408.1.408.312,0,.263-.336.336-.48.36-.12.384-.528,2.088-.6,2.424a17.37,17.37,0,0,0,3.96-1.224l.385,3.792a27.03,27.03,0,0,1-5.377,1.105A62.214,62.214,0,0,1,384.584,62.7a24.055,24.055,0,0,0-3.576-1.824,38.91,38.91,0,0,0,5.857-11.665c-.673.024-3.721.12-4.321.145l-.312-3.889a20.758,20.758,0,0,0,2.712.144c.912,0,2.016-.024,2.929-.1a28.283,28.283,0,0,0,.6-4.609ZM394.281,56.3a2.627,2.627,0,0,0-.648,1.3c0,.769.7,1.152,3.48,1.152a13.9,13.9,0,0,0,5.281-.984c-.024.456-.048.744-.048,1.393a16.06,16.06,0,0,0,.168,2.687,22.057,22.057,0,0,1-4.345.408c-2.879,0-7.872-.143-7.872-3.887a8.19,8.19,0,0,1,.888-3.145Zm-1.128-6.768a25.875,25.875,0,0,1,4.945-.5,27.88,27.88,0,0,1,3.864.311,27.725,27.725,0,0,0-.24,3.792,12.938,12.938,0,0,0-3.7-.384,29.623,29.623,0,0,0-4.872.384Zm5.5-6.578a21.4,21.4,0,0,1,2.281,2.641,8.484,8.484,0,0,0-1.825,1.3,23.22,23.22,0,0,0-2.111-2.664Zm2.305-1.679a14.047,14.047,0,0,1,2.208,2.52,18.216,18.216,0,0,0-1.608,1.248,17.28,17.28,0,0,0-2.232-2.545Z"/>
      <path class="cls-1" d="M416.625,41.055a16.605,16.605,0,0,0,1.1,3.72,19.568,19.568,0,0,0,5.161-2.785c.744,1.009,1.752,2.137,2.4,2.857a33.953,33.953,0,0,1-6.025,3.1,28.578,28.578,0,0,0,5.353,6.6l-2.473,2.136a11.685,11.685,0,0,0-6.384-1.824c-1.872,0-3.984.48-3.984,2.016,0,.624.624,2.448,4.992,2.448a13.41,13.41,0,0,0,5.641-1.2,16.96,16.96,0,0,0,.72,3.768,21.666,21.666,0,0,1-6.193.841c-5.833,0-9.265-2.4-9.265-5.521,0-2.064,1.752-5.352,7.2-5.352a8.705,8.705,0,0,1,2.592.288c-.456-.7-.84-1.321-1.728-2.929a43.619,43.619,0,0,1-8.329,1.536l-1.248-3.72a34.157,34.157,0,0,0,8.065-1.08c-.288-.624-1.536-3.457-1.8-4.032Z"/>
      <path class="cls-1" d="M434.648,43.311c.217.072.48.143.48.36,0,.312-.287.359-.5.384a21.5,21.5,0,0,0-1.344,7.224c0,2.929.912,4.969,1.609,4.969.768,0,1.68-2.112,2.328-3.625a10.925,10.925,0,0,0,2.52,2.545c-1.92,4.656-4.1,6.288-5.28,6.288-1.345,0-4.9-2.856-4.9-10.272a42.859,42.859,0,0,1,1.176-8.978Zm11.594.168a23.934,23.934,0,0,1,4.848,12.073c-1.416.552-3.12,1.368-3.912,1.776a21.867,21.867,0,0,0-4.033-11.882Z"/>
      <rect class="cls-1" width="10" height="65"/>
    </g>
  </g>
</svg>
