<?xml version="1.0" encoding="UTF-8"?><svg id="_イヤー_2" xmlns="http://www.w3.org/2000/svg" width="108.11mm" height="108.08mm" viewBox="0 0 306.46 306.38"><defs><style>.cls-1{fill:#fff;}.cls-2{fill:#e7242e;}.cls-3{fill:#e50067;}.cls-4{fill:#231815;}</style></defs><g id="_イヤー_1-2"><g><path class="cls-3" d="M306.46,153.19c0,84.6-68.61,153.19-153.23,153.19S0,237.79,0,153.19,68.6,0,153.23,0s153.23,68.59,153.23,153.19"/><path class="cls-1" d="M20.77,188.75c-.12-1.72-.59-4.32-1.41-7.8-.12-.5-.05-.77,.2-.83,.19-.05,.46,.05,.81,.29,.39,.29,.86,.36,1.41,.23l.7-.17-3.78-15.9c1.02-.12,2.01-.3,2.98-.53,.99-.24,1.97-.53,2.94-.87l1.81,7.62,3.98,1.11-1.84-7.74c.91-.1,1.81-.25,2.69-.46l17.72-4.21c2.76-.66,4.76,.27,6,2.77,.68,1.53,1.23,2.99,1.65,4.38,.27,.66,.55,1.34,.83,2.03-.86,.32-1.65,.67-2.38,1.04l3.71,15.61c-.88-.02-1.74,.06-2.56,.26l-6.71,1.59c.33,.39,.63,.8,.9,1.23-.63,.53-1.21,1.19-1.72,1.98l13.5-3.2c.13,1.05,.32,2.09,.57,3.14,.25,1.05,.55,2.08,.91,3.11l-24.02,5.7c-1.02,.24-1.89,.51-2.61,.79l-1.78-7.49-3.2,2.2,1.81,7.62c-1.01,.15-2.02,.35-3.01,.58-.97,.23-1.94,.5-2.91,.82l-3.8-16.02c-1.1,.29-2.23,.66-3.41,1.12Zm12.87-3.28l-1.65-6.96-3.97-1.07,2.43,10.23,3.2-2.2Zm2.79-11.82l2.44-.58c.36-.08,.43-.58,.21-1.49-.09-.39-.24-.77-.45-1.16-.27-.14-.92-.19-1.96-.15,.13-.44,.23-.86,.31-1.25l-1.57,.37,1.01,4.26Zm8.01,8.86l-1.1-4.64c-.18,.1-.38,.18-.6,.23l-4.97,1.18,.35,1.49c1.96-.11,3.73,.25,5.33,1.1,.34,.21,.67,.42,.98,.64Zm1.13,8.61c-1.15-1.65-2.18-2.81-3.1-3.46-1.08-.76-2.08-1.15-2.99-1.17l1.37,5.76,4.72-1.12Zm-1.5-20.68c.05-.01,.11-.03,.17-.04l6-1.42c-.09-.74-.22-1.46-.39-2.18-.13-.53-.46-.72-1.02-.59l-5.88,1.39c.42,.66,.79,1.61,1.11,2.84Zm7.02,4.5l-2.98,.71,1.3,5.46,2.98-.71-1.3-5.46Z"/><path class="cls-1" d="M16.03,149.06l2.13-12.76c.77,.24,1.55,.43,2.37,.57,.75,.13,1.55,.2,2.38,.23l-2.14,12.76c-.79-.25-1.57-.44-2.32-.56-.81-.14-1.62-.21-2.42-.23Zm6.34,2.31l2.29-13.68c-2.07-1.9-4.4-3.35-7-4.36,1.16-1.24,2.23-2.81,3.2-4.68,.13-.44,.32-.64,.57-.6,.39,.07,.59,.43,.59,1.09,.07,.27,.22,.48,.45,.64,2.23,1.29,4.37,2.8,6.41,4.52-.63,.84-1.22,1.74-1.79,2.68,.03,0,.06,0,.08,.01,.84,.14,1.7,.23,2.59,.26l-2.5,14.94c-.85-.26-1.69-.46-2.53-.6-.76-.12-1.55-.2-2.38-.22Zm6.96-.09l2.19-13.09c.35,.12,.72,.22,1.11,.32-.31-1.6-.84-3.2-1.61-4.8-1-1.95-2.02-3.3-3.08-4.05-1.29-.9-2.73-1.55-4.34-1.93l-2.23-.37c-.79-.07-1.8-.13-3.04-.16,.3-1.13,.72-3.27,1.25-6.44,.09-.5,.18-.75,.29-.73,.25,.04,.43,.19,.53,.43,.13,.28,.36,.45,.69,.5l3.69,.62c.91,.07,1.78,.01,2.62-.17-1.99-2.06-4.21-3.62-6.68-4.7,1.16-1.27,2.24-2.88,3.22-4.81,.16-.43,.38-.63,.66-.58,.33,.06,.5,.47,.48,1.25,.07,.3,.2,.52,.41,.67,2.13,1.39,4.15,3.04,6.08,4.94-.57,.8-1.12,1.61-1.66,2.44,1.27-.56,2.55-1.47,3.82-2.73,1.31-1.3,2.43-2.91,3.36-4.83,1.14,1.6,2.59,3.16,4.35,4.7-1.05,1.64-2.24,3.08-3.57,4.32-1.53,1.38-3.43,2.7-5.71,3.96,1.45,1.16,2.65,2.56,3.61,4.19,.86,1.38,1.64,3.08,2.34,5.09,.87-1.06,1.68-2.31,2.44-3.73,.13-.44,.32-.64,.58-.59,.33,.06,.51,.45,.54,1.17,.04,.29,.16,.5,.37,.62,1.99,1.34,3.87,2.89,5.65,4.66-.71,1-1.35,2.05-1.91,3.13l5.29,.88c-.25-1.45-.62-2.91-1.12-4.37-.81-2.03-1.67-3.44-2.57-4.23-1.11-.96-2.36-1.62-3.77-1.97l-4.24-.71c-.79-.08-1.8-.13-3.04-.16,.3-1.13,.72-3.27,1.25-6.43,.08-.5,.18-.75,.29-.73,.25,.04,.43,.19,.53,.43,.13,.25,.36,.41,.7,.46l5.71,.96c.66,.02,1.3-.01,1.92-.11-1.75-2.08-3.75-3.65-5.99-4.71,1.22-1.29,2.37-2.92,3.45-4.9,.14-.47,.34-.68,.62-.63,.28,.05,.4,.43,.37,1.14,.03,.32,.14,.55,.32,.7,1.77,1.3,3.42,2.84,4.96,4.63-.75,1.05-1.44,2.15-2.06,3.28,.06-.02,.11-.02,.13-.02,1.39-.57,2.8-1.66,4.22-3.26,1.18-1.36,2.19-3,3.03-4.93,1.28,1.8,2.94,3.56,4.99,5.28-1.02,1.61-2.14,3.01-3.37,4.18-1.46,1.34-3.26,2.62-5.39,3.84,1.33,1.17,2.43,2.59,3.3,4.26,.88,1.59,1.69,3.59,2.4,6.01-1.68,.55-3.29,1.32-4.83,2.3l.92,.15c.76,.13,1.49,.21,2.2,.24l-2.24,13.39c-.68-.23-1.4-.41-2.16-.53l-8.02-1.34c-.7-.12-1.38-.17-2.04-.17l2.16-12.93c-1.82-1.83-3.86-3.23-6.11-4.21-1.45,.56-2.87,1.33-4.27,2.3,.11,.02,.22,.04,.34,.06,.78,.13,1.56,.21,2.34,.22l-2.19,13.09c-.74-.24-1.5-.42-2.28-.55-.75-.13-1.49-.19-2.21-.2Zm6.14,1.2l2.19-13.09c.74,.24,1.45,.42,2.15,.53,.78,.13,1.59,.21,2.42,.23l-2.19,13.1c-.79-.25-1.58-.44-2.37-.57-.7-.12-1.44-.18-2.21-.2Zm15.47-5.52l-3.86-.65-.39,2.35,3.86,.65,.39-2.35Z"/><path class="cls-1" d="M66.59,80.68l-6.42,12.9c3.85,1.88,7.71,3.71,11.58,5.49l-3.41,7.2c-3.49-1.85-7.32-3.81-11.48-5.88l-6.31,12.72-6.43-3.37,6.29-12.68-4.79-2.45-4.86,9.91-6.47-3.3,4.88-9.8c-2.68-1.28-4.56-2.15-5.64-2.63l3.75-6.79c.35-.62,.7-.82,1.03-.61,.07,.05,.2,.31,.37,.78,.2,.43,.45,.72,.76,.88l3.17,1.59,5.08-10.03,6.28,3.13-4.98,10.19,4.74,2.46,6.55-12.87,6.31,3.15Z"/><path class="cls-1" d="M86.15,50.84c.09,.11,.07,.38-.05,.81-.12,.39-.19,.62-.21,.68,.29,1.46,.91,5.91,1.89,13.35l-6.29,1.01-1.06-7.08-4.94,6.85,14.83,12.7-4.56,5.38-14.75-12.82-5.15,6.53-5.45-4.44,5.48-6.47-5.61-4.91,4.66-4.85c.47-.46,.81-.56,1.03-.3,.09,.11,.16,.33,.21,.66,.02,.39,.1,.65,.23,.81,.09,.11,1.44,1.24,4.03,3.4l7.97-10.19c.11-.13,.2-.38,.25-.76,.1-.37,.19-.6,.28-.67,.24-.2,.57-.29,.99-.27l5.32,.29c.44,0,.75,.1,.91,.3Z"/><path class="cls-1" d="M102.57,36.11l-1.3,7.11c-1.85-.67-4.33-1.3-7.44-1.9-2.87-.54-5.42-.9-7.66-1.08l1.12-7.09c3.29,.28,8.38,1.26,15.28,2.95Zm21.04-2.13c-2.31,6.26-5.17,12.1-8.61,17.52-3.83,6.25-7.98,11.26-12.44,15.02-.11,.1-.22,.44-.33,1-.11,.56-.26,.88-.44,.96-.37,.15-.81-.03-1.31-.53l-5.93-5.7c4.7-2.48,9.24-7.29,13.63-14.44,3.44-5.55,6.33-11.64,8.67-18.28l6.76,4.46Z"/><path class="cls-1" d="M170.36,45.48c-2.36,2.63-4.04,5.1-5.04,7.42-3.45-3.37-8.9-9.93-16.36-19.68-1.19-1.54-2-2.3-2.43-2.29-.34,0-.82,.36-1.43,1.05l-7.73,9.26c-.19,.32-.35,.84-.48,1.58-.07,.54-.28,.81-.62,.82-.23,0-.54-.22-.95-.66l-5.38-5.09c5.72-6.3,9.98-11.08,12.79-14.34,1.11-1.24,2.19-1.88,3.24-1.9,1.39-.03,3.16,1.16,5.31,3.56l9.05,9.91c2.93,3.18,6.28,6.63,10.04,10.36Zm-4.89-21.52c.02,1.25-.41,2.33-1.3,3.26-.86,.9-1.92,1.36-3.16,1.38-1.22,.02-2.29-.41-3.22-1.3-.9-.89-1.36-1.94-1.38-3.16-.03-1.3,.38-2.41,1.21-3.3,.86-.9,1.93-1.36,3.21-1.38,1.3-.03,2.39,.38,3.26,1.21,.89,.86,1.36,1.96,1.38,3.29Zm-2.26,.04c-.01-.71-.24-1.29-.67-1.73-.41-.42-.96-.62-1.67-.61-.65,.01-1.21,.25-1.69,.71-.42,.46-.62,1.03-.6,1.71,.01,.65,.24,1.19,.67,1.6,.52,.47,1.09,.7,1.72,.69,.65-.01,1.17-.26,1.56-.75,.47-.44,.7-.98,.69-1.63Z"/><path class="cls-1" d="M204.01,50.6c-.31-.14-.65-.28-1.03-.41l-30.05-10.65c-.56-.2-1.06-.36-1.5-.49l2.26-6.38c.41,.21,.89,.41,1.45,.61l30.05,10.65c.37,.13,.73,.24,1.06,.33l-2.25,6.34Z"/><path class="cls-1" d="M242.88,69.17c-6.59,1.04-13.09,1.38-19.5,1.02-7.33-.3-13.73-1.48-19.18-3.54-.15-.05-.49,.02-1.04,.2-.55,.18-.9,.2-1.05,.08-.31-.25-.37-.72-.17-1.4l2.09-7.96c4.45,2.89,10.87,4.52,19.25,4.87,6.53,.3,13.26-.14,20.19-1.34l-.59,8.08Zm-12.12-17.33l-6.84,2.33c-.32-1.94-.98-4.42-1.97-7.42-.93-2.77-1.86-5.17-2.79-7.21l6.74-2.47c1.36,3.01,2.98,7.93,4.87,14.78Z"/><path class="cls-1" d="M271.48,84.02c.59,1.55,1.71,3.83,3.35,6.85,.22,.4,.24,.65,.07,.74-.17,.09-.46,.09-.84-.03-.45-.17-.92-.12-1.42,.15l-.63,.35,7.57,13.85c-.9,.36-1.76,.77-2.58,1.22l-7.21,3.94c-.45-1.05-.93-2.06-1.46-3.03-.07-.13-.12-.22-.16-.3-.55,.3-1.08,.64-1.58,1.01l-5.86-10.72-1.79,.98,5.86,10.72-3.7,2.02-5.86-10.72-1.79,.98,7.92,14.49c-.83,.32-1.61,.69-2.36,1.09-.72,.39-1.44,.85-2.16,1.38l-6.96-12.73c-.1,.77-.11,1.66-.03,2.69,.29,3.49,1.36,7.84,3.2,13.04-2.25-.45-4.69-.66-7.32-.61-1.03-5.13-1.5-11.21-1.43-18.23-4.71-2.47-9.5-5.93-14.36-10.39,1.52-2.31,2.64-4.48,3.38-6.5,3.38,4.17,6.5,7.21,9.36,9.14,.65,.36,1.24,.67,1.77,.92l-6.41-11.72c.83-.32,1.6-.68,2.32-1.07,.75-.41,1.48-.87,2.2-1.4l7.61,13.93,1.79-.98-5.82-10.64,3.7-2.02,5.82,10.64,1.79-.98-5.9-10.79c.51-.18,.99-.38,1.43-.58-.46-.85-.97-1.65-1.52-2.42l7.51-4.1c1-.54,1.77-1.11,2.32-1.7l7.35,13.44c.92-.57,1.87-1.2,2.84-1.89Zm-13.83-1.61l4.02,7.36,1.91-1.04-4.02-7.36-1.91,1.04Zm9.19,12.29l-1.91,1.04,4.33,7.92,1.9-1.04-4.33-7.92Z"/><path class="cls-1" d="M288.16,125.85c-.07,1.63,.06,4.07,.37,7.32,.05,.48-.03,.73-.23,.75-.2,.02-.44-.11-.72-.4-.32-.37-.74-.53-1.24-.48l-2.75,.27,.52,5.29c-1.08,0-2.16,.04-3.24,.14-.17,.02-.34,.03-.51,.05,.64,.39,1.29,.76,1.95,1.09,2.41,1.27,4.95,2.12,7.65,2.55-.17,1.73-.31,3.82-.41,6.28-.05,.4-.2,.62-.45,.64-.25,.03-.54-.16-.87-.56-.7-.19-1.35-.4-1.94-.62l1.19,12.15c-1.06,0-2.09,.03-3.11,.13-1.07,.1-2.14,.27-3.2,.48l-1.48-15.16c-.24-.09-.46-.2-.67-.32-1.11-.52-2.19-1.11-3.25-1.78,.03,.62,.08,1.28,.15,1.95,.05,.48-.04,.74-.26,.8-.17,.02-.33-.07-.49-.25-.25-.23-.56-.33-.93-.29l-.89,.09,.62,1.99,.85-.08c1.04-.1,2.17-.27,3.37-.5-.08,1.26,.01,3.18,.26,5.75,.03,.37-.03,.56-.2,.57-.14,.01-.32-.1-.54-.33-.26-.29-.61-.41-1.06-.37l-1.02,.1,2.28,7.13c-1.54,0-2.92,.07-4.13,.19l-9.15,.89c-.99,.1-1.78-.3-2.38-1.18-.44-.98-.71-1.87-.82-2.66-.41,1.66-.71,3.53-.91,5.6-.9-.11-1.87-.19-2.93-.23-2.35-.17-4-.88-4.95-2.12-.96-1.42-1.69-4.62-2.18-9.62-.23-3.57,.12-5.94,1.06-7.11,.68-.87,1.93-1.39,3.74-1.56l9.91-.97-.74-2.28c-8.82,.52-13.61-.11-14.38-1.89-.53-.75-.89-1.54-1.09-2.37-.27-.97-.49-1.78-.66-2.42,2.05-.34,4.05-1,6.01-1.95-2.57-.61-4.81-1.37-6.72-2.29,1.63-1.1,3.17-2.89,4.61-5.37,3.9,1.44,7.78,2.35,11.64,2.71,4.19,.33,8.38,.28,12.56-.16l-.41-4.23c1.08,0,2.15-.04,3.19-.14,1.07-.1,2.14-.26,3.2-.48l.58,5.93,.89-.09c1.36-.13,2.8-.33,4.35-.6Zm-32.96,4.92c-.04,1-.03,1.86,.04,2.56,.04,.42,.3,.71,.77,.87,.5,.15,4.01,0,10.52-.43l-.16-1.65c-1.8-.08-3.47-.2-5-.37-2.22-.21-4.27-.54-6.17-.98Zm11.55,15.85l-8.98,.88c-.62,.06-.97,.45-1.04,1.17-.13,1.04-.11,2.43,.07,4.18,.18,1.81,.56,2.97,1.15,3.48,.3,.43,1.39,.56,3.29,.4-.1-.42-.17-.77-.23-1.05l.75-.2c1.08-.33,2.05-.77,2.91-1.31l-5.46,.53c.02-.91,0-1.83-.1-2.73-.08-.88-.22-1.72-.42-2.52l8.68-.85-.62-1.99Zm2.24,7.14l-3.22,.31c.01,.14,.03,.25,.03,.34,.14,1.47,.45,2.18,.94,2.13l3.01-.29-.75-2.49Zm1.99-15.07l.51,1.7c.69-.55,1.3-1.1,1.85-1.63-.78-.1-1.57-.12-2.36-.07Zm2.51-.12c1.07-1.02,1.99-2.06,2.77-3.13,.38,.36,.77,.74,1.18,1.13l-.47-4.83c-1.42,.11-2.79,.2-4.12,.27l.64,6.56Z"/><path class="cls-1" d="M283.29,173.33l-4.57,14.67,1.79,.56c1.54,.48,3.2,.88,4.98,1.2-.82,1.68-1.8,4.34-2.94,8-.17,.54-.37,.78-.62,.7-.22-.07-.42-.32-.61-.77-.2-.51-.58-.85-1.15-1.03l-3.78-1.18-4.55,14.58c-.97-.42-1.97-.79-3-1.11l-14.83-4.62c-1.08-.34-2.18-.62-3.3-.85l4.55-14.58-11.17-3.48c.5-1.33,.97-2.67,1.39-4.03,.36-1.14,.67-2.29,.94-3.45l11.17,3.48,4.57-14.67c1.02,.55,2.07,1,3.15,1.34l14.83,4.62c1.03,.32,2.08,.53,3.15,.62Zm-24.13,25.33l8.49,2.65,2.43-7.8-8.49-2.64-2.43,7.8Zm4.76-15.27l8.49,2.65,2.39-7.68-8.49-2.65-2.39,7.68Z"/><path class="cls-1" d="M89.72,248.76c-.54,.75-1.21,1.17-2.01,1.26s-1.58-.14-2.35-.69l-4.67-3.37c.09-.11,.17-.21,.24-.3l6.29-8.73c.06-.08,.12-.19,.2-.33l3.83,2.76c.85,.62,1.45,1.3,1.79,2.04,.41,.92,.34,1.77-.23,2.56-.37,.52-.82,.86-1.32,1.02-.44,.13-1,.16-1.7,.09,.72,1.41,.7,2.63-.05,3.68Zm-1.85-1.99c.23-.32,.29-.67,.19-1.06-.11-.39-.33-.71-.67-.95l-1.73-1.26-1.61,2.23,1.74,1.25c.34,.24,.71,.36,1.11,.35,.4-.03,.72-.21,.96-.55Zm2.36-4.04c.22-.3,.25-.64,.11-1-.13-.31-.35-.59-.67-.82l-1.41-1.02-1.33,1.85,1.42,1.03c.31,.22,.64,.35,.97,.37,.4,.01,.7-.12,.91-.41Z"/><path class="cls-1" d="M101.52,249.53c-.11,.14-.18,.24-.22,.32l-3.81,6.5c-.06,.1-.13,.22-.2,.37l-2.27-1.33,.6-.87c-1.29,.29-2.37,.19-3.22-.31-.72-.42-1.16-1.01-1.33-1.76-.18-.74-.06-1.48,.36-2.19l2.69-4.6c.05-.09,.11-.21,.18-.34l2.26,1.32c-.08,.11-.15,.22-.21,.32l-2.33,3.98c-.48,.82-.35,1.44,.38,1.87,.67,.39,1.42,.34,2.26-.16l2.4-4.1c.05-.08,.1-.2,.17-.35l2.29,1.34Z"/><path class="cls-1" d="M106.77,258.92c-.37,.77-1.05,1.17-2.05,1.21-.79,.03-1.61-.15-2.44-.55-.9-.43-1.54-1.04-1.93-1.81-.39-.81-.43-1.68-.13-2.61l2.52,1.21c-.09,.21-.08,.42,.03,.63,.1,.21,.25,.37,.46,.47,.46,.22,.76,.18,.9-.11,.11-.23,0-.55-.35-.96-.17-.19-.42-.47-.76-.86-1.12-1.28-1.49-2.33-1.1-3.14,.35-.73,.95-1.16,1.81-1.29,.77-.11,1.54,.01,2.3,.38,1.99,.95,2.7,2.37,2.15,4.27l-2.39-1.14c.18-.48,.04-.83-.43-1.06-.5-.24-.81-.16-.94,.22-.06,.18,.1,.5,.48,.96,.18,.19,.45,.48,.81,.87,.52,.56,.88,1.06,1.08,1.52,.26,.63,.26,1.24-.02,1.81Z"/><path class="cls-1" d="M109.87,262.56l-2.57-1.05c.06-.11,.11-.23,.16-.35l2.58-6.29c.04-.11,.09-.25,.13-.41l2.58,1.06c-.06,.12-.12,.25-.18,.39l-2.58,6.29c-.04,.11-.09,.23-.13,.36Zm3.58-8.53l-.51,.22-1.99-.82-.22-.52,.72-1.76,.51-.19,1.99,.82,.22,.49-.72,1.76Z"/><path class="cls-1" d="M119.88,266.04l-2.56-.85c.05-.13,.1-.25,.14-.36l1.43-4.28c.33-.99,.08-1.62-.76-1.9-.53-.18-1.27,.05-2.24,.67l-1.5,4.5c-.04,.11-.07,.23-.11,.37l-2.48-.83c.06-.12,.11-.24,.15-.35l2.39-7.16c.04-.11,.07-.24,.1-.39l2.5,.83-.38,.88c1.09-.52,2.18-.6,3.26-.24,.88,.29,1.46,.86,1.76,1.69,.27,.75,.25,1.58-.05,2.49l-1.52,4.57c-.04,.11-.07,.23-.11,.37Z"/><path class="cls-1" d="M130.81,264.53c-.05,.21-.12,.44-.21,.7l-5.24-1.22c-.09,1.01,.2,1.6,.9,1.77,.58,.13,.97,0,1.16-.42l2.94,.69c-1.06,1.72-2.59,2.35-4.59,1.88-1.25-.29-2.15-.94-2.69-1.95-.53-.96-.65-2.07-.35-3.33,.29-1.26,.89-2.22,1.78-2.86,.94-.66,2.04-.85,3.28-.56,1.23,.29,2.12,.94,2.68,1.95,.53,.97,.64,2.09,.35,3.36Zm-2.59-1.64c-.09-.89-.39-1.4-.92-1.53-.55-.13-1.06,.19-1.53,.95l2.46,.57Z"/><path class="cls-1" d="M139.91,267.82c-.12,.84-.66,1.43-1.6,1.77-.75,.27-1.58,.33-2.5,.2-.99-.15-1.78-.53-2.38-1.16-.61-.66-.91-1.48-.9-2.45l2.76,.4c-.02,.22,.05,.42,.22,.6,.16,.17,.35,.28,.58,.31,.5,.08,.78-.05,.83-.38,.04-.25-.17-.52-.62-.82-.22-.13-.54-.33-.98-.6-1.45-.89-2.11-1.78-1.98-2.68,.12-.8,.56-1.39,1.34-1.77,.71-.34,1.47-.45,2.31-.32,2.18,.32,3.28,1.47,3.32,3.44l-2.62-.38c.03-.51-.21-.81-.72-.88-.55-.08-.82,.08-.83,.49,0,.19,.24,.45,.74,.77,.23,.13,.57,.33,1.03,.59,.66,.38,1.16,.76,1.48,1.14,.44,.53,.61,1.11,.52,1.74Z"/><path class="cls-1" d="M148.51,268.58c-.06,.85-.55,1.47-1.46,1.88-.73,.32-1.55,.45-2.48,.38-1-.07-1.82-.4-2.46-.98-.66-.61-1.02-1.41-1.08-2.38l2.79,.2c0,.22,.08,.42,.26,.58,.17,.16,.37,.25,.61,.27,.51,.04,.78-.11,.8-.44,.02-.25-.21-.51-.68-.77-.23-.11-.57-.29-1.02-.52-1.51-.78-2.23-1.62-2.17-2.52,.06-.81,.46-1.43,1.21-1.86,.68-.39,1.44-.55,2.28-.49,2.2,.16,3.38,1.22,3.56,3.18l-2.64-.19c0-.51-.27-.79-.79-.82-.55-.04-.82,.14-.79,.55,0,.19,.27,.43,.8,.71,.24,.11,.59,.28,1.07,.51,.69,.33,1.21,.67,1.56,1.02,.48,.49,.69,1.06,.65,1.7Z"/><path class="cls-1" d="M163.35,267.65c-.33,2.05-1.57,3.14-3.72,3.26-1.27,.07-2.32-.31-3.13-1.12-.78-.79-1.2-1.83-1.27-3.11-.07-1.32,.23-2.4,.9-3.24,.71-.89,1.71-1.37,3.01-1.44,.99-.05,1.83,.17,2.51,.66,.7,.49,1.17,1.21,1.43,2.16l-2.77,.15c-.2-.52-.54-.77-1.03-.74-.88,.05-1.28,.82-1.2,2.3,.08,1.55,.56,2.3,1.43,2.26,.58-.03,.92-.35,1-.97l2.85-.16Z"/><path class="cls-1" d="M174.09,269.07c-.87,.11-1.48,.17-1.83,.16-.78,0-1.34-.18-1.68-.5-.84,.84-1.78,1.33-2.83,1.48-.69,.1-1.3-.05-1.84-.43-.55-.37-.87-.9-.97-1.59-.26-1.85,1.33-3.22,4.77-4.11-.34-.82-.84-1.19-1.48-1.1-.47,.07-.75,.34-.82,.81l-2.77,.39c.31-1.75,1.45-2.77,3.42-3.05,1.28-.18,2.31,.02,3.07,.6,.57,.45,.9,1.01,1,1.7l.4,2.84c.08,.53,.31,.76,.71,.7,.2-.03,.38-.07,.53-.14l.32,2.23Zm-4.03-2.28l-.12-.77c-1.66,.35-2.44,.87-2.34,1.54,.02,.16,.1,.28,.23,.37,.12,.09,.25,.12,.4,.1,.48-.07,1.1-.48,1.84-1.24Z"/><path class="cls-1" d="M188.8,265.43l-2.52,.66c-.02-.12-.05-.24-.08-.37l-1.11-4.21c-.25-.93-.72-1.31-1.4-1.13-.7,.18-1.08,.77-1.14,1.77l1.22,4.61-2.49,.66-1.24-4.72c-.24-.92-.66-1.3-1.24-1.14-.54,.14-.9,.71-1.08,1.72l1.16,4.38c.03,.13,.07,.26,.11,.37l-2.52,.66c-.02-.13-.05-.25-.08-.38l-1.92-7.28c-.04-.13-.08-.26-.14-.39l2.56-.67c.02,.19,.09,.54,.22,1.03,.62-1.11,1.4-1.79,2.35-2.04,.79-.21,1.61,.1,2.44,.93,.39-1.14,1.19-1.87,2.39-2.18,.71-.19,1.35-.07,1.91,.34,.52,.38,.87,.93,1.06,1.65l1.42,5.38c.03,.11,.07,.24,.11,.37Z"/><path class="cls-1" d="M198.97,257.05c.44,1.11,.49,2.2,.16,3.27-.37,1.15-1.09,1.94-2.17,2.37-.68,.27-1.54,.3-2.56,.07l.75,1.9c.04,.1,.08,.2,.14,.31l-2.43,.97c-.03-.11-.07-.22-.11-.32l-3.47-8.74c-.05-.12-.11-.24-.18-.36l2.43-.96,.17,.57c.31-.77,.97-1.34,1.96-1.74,1.08-.43,2.14-.36,3.19,.21,.97,.55,1.68,1.37,2.11,2.46Zm-2.67,.94c-.21-.54-.56-.96-1.03-1.26-.53-.33-1.06-.39-1.58-.18-.64,.25-1.01,.81-1.09,1.65l.87,2.2c.63,.55,1.27,.7,1.92,.44,.52-.21,.87-.61,1.03-1.21,.14-.54,.1-1.08-.12-1.63Z"/><path class="cls-1" d="M210.56,256.02c-.78,.39-1.34,.64-1.68,.75-.73,.24-1.32,.27-1.75,.07-.52,1.07-1.25,1.84-2.2,2.33-.62,.32-1.24,.38-1.88,.19-.64-.18-1.12-.57-1.43-1.19-.85-1.67,.2-3.48,3.16-5.44-.59-.67-1.18-.85-1.75-.55-.43,.22-.6,.56-.51,1.03l-2.49,1.27c-.28-1.76,.47-3.09,2.24-4,1.16-.59,2.19-.74,3.09-.44,.68,.24,1.18,.66,1.5,1.28l1.31,2.56c.24,.47,.54,.62,.9,.44,.18-.09,.33-.19,.45-.3l1.03,2Zm-4.56-.84l-.37-.69c-1.45,.88-2.02,1.62-1.71,2.22,.07,.14,.19,.23,.34,.28,.14,.05,.28,.04,.41-.03,.44-.22,.88-.81,1.33-1.78Z"/><path class="cls-1" d="M209.91,245.58l-.12,.54-1.85,1.11-.55-.14-.98-1.63,.15-.52,1.85-1.11,.52,.12,.98,1.63Zm4.69,7.98l-2.38,1.43c-.06-.12-.12-.23-.18-.33l-3.49-5.83c-.06-.1-.14-.22-.25-.35l2.4-1.43c.06,.12,.13,.25,.21,.38l3.49,5.83c.06,.1,.13,.21,.21,.32Z"/><path class="cls-1" d="M223.98,247.13c.52,.72,.41,1.57-.33,2.56-.5,.66-1.2,1.3-2.1,1.92-.91,.63-1.82,1.08-2.71,1.35-1.3,.4-2.21,.23-2.71-.49-.36-.52-.33-1.12,.08-1.82-.45-.13-.72-.26-.81-.39-.33-.47-.27-1.09,.18-1.85-.97-.15-1.64-.49-1.99-.99-.5-.73-.53-1.56-.08-2.5,.37-.8,.93-1.46,1.7-2,.79-.54,1.65-.85,2.58-.93,.12-.7,.53-1.29,1.23-1.75l1.12,1.61c-.17,.08-.43,.25-.76,.5,.31,.25,.51,.46,.62,.62,.5,.72,.52,1.54,.06,2.46-.39,.79-.97,1.45-1.74,1.98-.13,.09-.34,.21-.63,.34-.28,.13-.5,.25-.63,.34-.28,.19-.36,.38-.23,.57,.21,.3,.65,.23,1.34-.19,.46-.31,1.27-.84,2.43-1.59,1.48-.91,2.61-.83,3.39,.24Zm-6.08-2.7c-.16-.24-.42-.33-.78-.29-.29,.04-.57,.16-.83,.34-.25,.18-.45,.39-.6,.65-.18,.32-.19,.6-.02,.85,.16,.24,.43,.33,.79,.27,.29-.05,.56-.16,.82-.33,.25-.18,.46-.4,.61-.66,.17-.31,.18-.59,.01-.82Zm3.68,4.25c-.18-.26-.46-.26-.85,0-1.11,.77-2,1.3-2.66,1.59-.18,.08-.29,.15-.33,.19-.17,.18-.17,.39-.01,.63,.12,.17,.55,.09,1.31-.24,.58-.27,1.03-.52,1.35-.74,.46-.31,.76-.54,.91-.67,.34-.29,.44-.54,.29-.76Z"/><path class="cls-1" d="M231.74,240.8l-2.07,1.73c-.08-.11-.16-.21-.23-.3l-2.9-3.47c-.67-.8-1.34-.92-2.02-.35-.43,.35-.63,1.11-.61,2.25l3.04,3.64c.08,.09,.16,.18,.26,.28l-2.01,1.68c-.07-.12-.15-.22-.22-.31l-4.84-5.79c-.08-.09-.17-.18-.28-.29l2.02-1.69,.55,.78c.13-1.2,.63-2.17,1.51-2.9,.71-.59,1.5-.79,2.37-.6,.78,.17,1.47,.62,2.09,1.35l3.09,3.7c.08,.09,.16,.18,.26,.28Z"/><path class="cls-1" d="M104.94,283.08l-2.72-1.04c.06-.12,.11-.24,.16-.37l2.55-6.66c.04-.11,.09-.26,.13-.43l2.74,1.05c-.06,.13-.12,.27-.18,.42l-2.55,6.66c-.04,.11-.09,.24-.13,.38Zm3.55-9.03l-.53,.25-2.11-.81-.24-.54,.71-1.86,.53-.21,2.11,.81,.24,.5-.71,1.86Z"/><path class="cls-1" d="M115.47,286.62l-2.7-.85c.05-.13,.1-.26,.14-.38l1.43-4.51c.33-1.04,.05-1.7-.83-1.98-.55-.17-1.33,.07-2.34,.73l-1.5,4.74c-.04,.12-.07,.25-.1,.39l-2.62-.83c.07-.13,.12-.26,.15-.37l2.39-7.54c.04-.12,.07-.25,.1-.41l2.63,.83-.38,.93c1.14-.56,2.28-.67,3.41-.31,.93,.29,1.55,.88,1.87,1.75,.29,.78,.28,1.65-.02,2.61l-1.53,4.82c-.04,.12-.07,.25-.1,.39Z"/><path class="cls-1" d="M133.74,285.92c-.22,1.23-.78,2.23-1.66,3-.96,.83-2.04,1.13-3.24,.92-.76-.14-1.53-.59-2.32-1.35l-.38,2.11c-.02,.11-.04,.22-.05,.35l-2.7-.48c.03-.12,.06-.23,.08-.34l1.74-9.7c.02-.13,.04-.27,.04-.42l2.7,.49-.16,.6c.7-.51,1.6-.66,2.7-.47,1.2,.21,2.11,.87,2.73,1.95,.56,1.03,.74,2.15,.52,3.36Zm-2.9-.64c.11-.6,.03-1.17-.22-1.69-.29-.58-.73-.93-1.31-1.03-.71-.13-1.34,.16-1.89,.87l-.44,2.44c.26,.84,.75,1.32,1.47,1.46,.58,.1,1.11-.07,1.59-.52,.42-.4,.69-.91,.8-1.52Z"/><path class="cls-1" d="M142.86,285.6c-.34-.11-.66-.19-.97-.22-1.22-.13-2.28,.24-3.17,1.12l-.43,3.98c-.01,.13-.02,.27-.03,.4l-2.73-.3c.03-.14,.05-.28,.06-.41l.85-7.87c.01-.12,.02-.26,.03-.4l2.73,.3c-.03,.15-.05,.29-.06,.41l-.14,1.33c1.31-1.08,2.7-1.51,4.18-1.3l-.32,2.96Z"/><path class="cls-1" d="M151.56,287.33c-.05,1.37-.5,2.47-1.33,3.3-.85,.86-1.95,1.26-3.31,1.21-1.36-.05-2.44-.54-3.23-1.45-.78-.91-1.14-2.05-1.09-3.41,.05-1.37,.5-2.48,1.35-3.33,.85-.84,1.95-1.23,3.31-1.18,1.37,.05,2.44,.54,3.21,1.45,.78,.9,1.14,2.04,1.09,3.41Zm-3.08-.12c.06-1.59-.37-2.41-1.3-2.45-.94-.04-1.43,.74-1.5,2.34-.06,1.58,.37,2.39,1.3,2.43,.94,.04,1.44-.74,1.5-2.32Z"/><path class="cls-1" d="M164.35,291.12c.06,.92-.51,1.62-1.72,2.09-.81,.3-1.79,.48-2.94,.53-1.16,.05-2.21-.05-3.16-.31-1.38-.38-2.09-1.03-2.13-1.95-.03-.66,.33-1.18,1.09-1.57-.33-.37-.5-.63-.5-.8-.03-.6,.37-1.12,1.19-1.54-.78-.68-1.18-1.34-1.21-1.99-.04-.93,.4-1.68,1.33-2.27,.77-.5,1.65-.77,2.63-.82,1-.04,1.94,.16,2.81,.61,.5-.56,1.19-.84,2.07-.86l.09,2.06c-.2-.03-.52-.02-.95,.02,.13,.4,.2,.7,.21,.9,.04,.91-.4,1.65-1.33,2.22-.78,.48-1.66,.74-2.65,.78-.17,0-.42,0-.76-.05-.33-.04-.58-.06-.76-.05-.36,.02-.53,.14-.52,.38,.02,.38,.45,.57,1.3,.58,.58-.02,1.6-.04,3.05-.05,1.82,.02,2.78,.72,2.87,2.1Zm-3,.03c-.01-.33-.27-.49-.76-.47-1.42,.06-2.5,.04-3.25-.08-.2-.02-.34-.03-.4-.02-.25,.07-.37,.25-.36,.55,0,.21,.44,.38,1.29,.51,.66,.08,1.2,.12,1.61,.1,.58-.03,.97-.05,1.19-.09,.47-.07,.69-.24,.68-.52Zm-.89-5.82c-.01-.3-.19-.53-.53-.7-.28-.12-.59-.17-.93-.16-.32,.01-.62,.09-.89,.24-.34,.18-.5,.43-.49,.74,.01,.3,.19,.53,.55,.68,.28,.12,.59,.17,.91,.16,.32-.01,.63-.09,.91-.24,.33-.18,.48-.42,.47-.72Z"/><path class="cls-1" d="M171.94,284.73c-.35-.04-.68-.04-.99,0-1.22,.13-2.17,.73-2.85,1.78l.44,3.97c.02,.13,.04,.27,.06,.4l-2.73,.3c0-.14-.01-.29-.03-.42l-.87-7.87c-.01-.12-.03-.25-.06-.4l2.73-.3c0,.15,.02,.29,.03,.42l.15,1.33c1.04-1.34,2.31-2.06,3.8-2.17l.32,2.96Z"/><path class="cls-1" d="M180.55,284.59c.04,.22,.07,.47,.09,.77l-5.55,.99c.33,1.02,.86,1.46,1.6,1.33,.62-.11,.93-.41,.95-.88l3.11-.55c-.31,2.09-1.52,3.33-3.64,3.71-1.33,.24-2.46-.02-3.4-.77-.91-.71-1.48-1.73-1.72-3.06-.24-1.34-.06-2.51,.53-3.49,.63-1.03,1.61-1.66,2.93-1.9,1.31-.23,2.44,.03,3.38,.78,.91,.72,1.49,1.75,1.72,3.09Zm-3.17-.51c-.45-.83-.96-1.19-1.52-1.09-.58,.11-.94,.62-1.08,1.55l2.6-.46Z"/><path class="cls-1" d="M190.83,284.17c.22,.87-.06,1.65-.83,2.35-.62,.56-1.4,.96-2.34,1.2-1.02,.26-1.94,.21-2.77-.16-.86-.39-1.48-1.06-1.86-2.01l2.84-.72c.07,.22,.22,.39,.45,.49,.22,.1,.45,.13,.69,.07,.52-.13,.74-.37,.65-.7-.07-.26-.38-.44-.93-.54-.26-.04-.66-.1-1.19-.18-1.76-.28-2.76-.87-3-1.79-.21-.82-.02-1.57,.58-2.25,.55-.61,1.25-1.03,2.1-1.25,2.24-.57,3.77,.09,4.6,1.98l-2.69,.69c-.18-.51-.53-.69-1.06-.56-.56,.14-.76,.41-.61,.81,.07,.19,.41,.34,1.03,.45,.27,.03,.68,.08,1.23,.15,.8,.1,1.43,.26,1.89,.5,.64,.33,1.04,.82,1.21,1.47Z"/><path class="cls-1" d="M199.23,281.42c.28,.85,.05,1.65-.67,2.4-.58,.6-1.33,1.05-2.25,1.35-1,.33-1.92,.33-2.77,.03-.88-.33-1.55-.96-1.99-1.88l2.79-.91c.08,.22,.24,.37,.48,.46,.23,.09,.46,.1,.69,.02,.51-.17,.71-.41,.6-.74-.08-.25-.41-.41-.97-.48-.26-.02-.66-.05-1.2-.1-1.78-.16-2.81-.69-3.11-1.59-.26-.81-.12-1.57,.43-2.29,.5-.65,1.17-1.11,2.01-1.38,2.2-.72,3.77-.16,4.72,1.68l-2.64,.86c-.21-.49-.57-.66-1.09-.49-.55,.18-.73,.46-.55,.85,.08,.18,.44,.31,1.06,.38,.28,.02,.69,.04,1.24,.07,.8,.04,1.44,.17,1.92,.38,.66,.29,1.09,.75,1.3,1.39Z"/><g><path class="cls-1" d="M241.58,153.19c0,48.78-39.56,88.33-88.35,88.33s-88.35-39.55-88.35-88.33,39.56-88.33,88.35-88.33,88.35,39.55,88.35,88.33"/><path class="cls-2" d="M138.72,127.8l-27.45-2.35-6.05,18.8,20.45,11.51-13.03,30.8,17.02,11.98,23.94-22.33,24.16,22.1,16.9-12.14-13.32-30.68,20.34-11.71-6.23-18.74-25.9,2.5-6.17-28.23-20.63,.1-3.44,17.61c3.39,.6,11.13,1.6,19.04-.45,.39-.1,.95-.15,1.2,.17,.16,.2,.23,.6,.05,.99-.81,1.8-4.1,4.81-10.87,5.56-4.52,.49-8.33,.1-9.06-.1l-.95,4.59"/><path class="cls-4" d="M168.88,119.83c-1.78-8.13-4.53-20.72-4.53-20.72-.1-.45-.51-.78-.97-.77l-20.63,.09c-.47,0-.88,.34-.97,.8l-3.45,17.61c-.05,.26,0,.53,.15,.75,.15,.21,.38,.37,.65,.41,3.26,.57,9.16,1.26,15.52,.33,.9-.13,1.86-.36,2.54-.5,.3-.06,.87-.34,1.02-.07,.17,.29-.1,.51-.36,.78-.42,.45-1.22,1.11-2.22,1.69-1.61,.92-3.9,1.75-7.01,2.09-4.43,.49-8.15,.08-8.7-.07-.26-.07-.55-.03-.78,.11-.23,.14-.39,.38-.45,.64,0,0-.1,.49-.24,1.16-.18,.84-.41,1.95-.41,1.95-.07,.35-.41,.6-.77,.58,0,0-3.13-.23-5.64-.45-7.31-.64-20.29-1.77-20.29-1.77-.46-.04-.89,.24-1.03,.68l-6.05,18.8c-.03,.1-.05,.2-.05,.3,0,.35,.19,.68,.5,.86,0,0,7.74,4.36,13.54,7.62,3.1,1.75,5.58,3.14,5.58,3.14,.31,.17,.44,.58,.31,.9,0,0-.96,2.27-2.37,5.6-3.72,8.81-10.06,23.8-10.06,23.8-.05,.13-.08,.26-.08,.39,0,.31,.15,.61,.42,.8l17.02,11.98c.38,.27,.9,.24,1.24-.08,0,0,11.45-10.68,18.31-17.08,2.65-2.47,4.49-4.19,4.49-4.19,.26-.24,.68-.24,.94,0,0,0,1.83,1.67,4.46,4.09,6.91,6.32,18.55,16.97,18.55,16.97,.35,.32,.86,.35,1.24,.07l16.91-12.14c.26-.19,.41-.5,.41-.81,0-.13-.03-.26-.08-.39,0,0-6.49-14.95-10.29-23.72-1.44-3.3-2.42-5.56-2.42-5.56-.14-.33,0-.74,.3-.91,0,0,2.95-1.69,6.4-3.68,5.64-3.25,12.63-7.26,12.63-7.26,.31-.18,.49-.51,.49-.86,0-.1-.01-.21-.05-.31l-6.23-18.75c-.14-.44-.58-.71-1.04-.67,0,0-12.2,1.18-19.6,1.89-2.84,.27-4.79,.46-4.79,.46-.35,.04-.7-.22-.77-.56,0,0-.56-2.53-1.32-6.03m-29,7.23c.17-.83,.44-2.12,.44-2.12,.07-.34,.42-.6,.77-.57,0,0,1.18,.14,3.46,.13,1.41,0,2.9-.07,4.3-.22,7.39-.81,10.81-4.24,11.66-6.14,.3-.67,.23-1.47-.18-2-.45-.58-1.26-.77-2.23-.52-4.11,1.06-8.22,1.29-11.72,1.16-2.3-.08-5.27-.48-5.27-.48-.34-.04-.58-.36-.51-.71,0,0,.46-2.35,.99-5.03,.16-.82,.33-1.68,.49-2.52,.69-3.52,1.37-7,1.37-7,.07-.35,.41-.63,.76-.63,0,0,3.21-.01,6.86-.03,.92,0,1.86,0,2.78-.01,4.13-.02,8.1-.04,8.1-.04,.36,0,.7,.28,.78,.62,0,0,.47,2.17,1.17,5.37,1.77,8.1,4.69,21.45,4.69,21.45,.11,.49,.56,.82,1.06,.78,0,0,5.98-.58,12.12-1.17,6.06-.59,12.36-1.2,12.36-1.2,.35-.04,.73,.21,.84,.55,0,0,1.13,3.38,2.33,7,.24,.73,.48,1.46,.72,2.18,1.18,3.55,2.27,6.83,2.27,6.83,.11,.33-.04,.75-.35,.93,0,0-4.88,2.81-9.57,5.5-4.82,2.77-9.52,5.47-9.52,5.47-.32,.18-.5,.51-.49,.87,0,.13,.02,.26,.08,.39,0,0,4.62,10.65,8.36,19.26,2.39,5.5,4.39,10.11,4.39,10.11,.14,.33,.02,.76-.27,.96,0,0-3.91,2.81-7.63,5.49-.32,.23-.64,.46-.95,.68-3.13,2.25-5.98,4.3-5.98,4.3-.29,.21-.73,.18-1-.06,0,0-2.87-2.63-6.55-6-6.95-6.37-16.53-15.13-16.53-15.13-.38-.35-.97-.35-1.34,0,0,0-8.34,7.78-15.07,14.05-4.25,3.97-7.83,7.3-7.83,7.3-.25,.24-.7,.27-.99,.07-5.35-3.76-5.25-3.69-7.06-4.97-.2-.14-.41-.29-.61-.43-3.52-2.48-6.99-4.93-6.99-4.93-.29-.2-.41-.63-.27-.96,0,0,2.23-5.26,4.75-11.24,3.56-8.43,7.71-18.25,7.71-18.25,.06-.12,.08-.26,.08-.39,0-.35-.18-.68-.5-.86,0,0-4.62-2.6-9.39-5.28-4.77-2.69-9.8-5.51-9.8-5.51-.3-.17-.47-.59-.36-.92,0,0,1.17-3.64,2.38-7.41,.33-1.01,.66-2.04,.97-3.02,.99-3.07,1.81-5.64,1.81-5.64,.11-.34,.48-.59,.83-.55,0,0,4.29,.37,9.19,.8,7.06,.62,16.83,1.43,16.83,1.43,.09,0,.17-.01,.26-.03,.06-.01,.12-.01,.18-.03,.04-.02,.08-.05,.12-.07,.06-.03,.12-.06,.17-.11,.03-.03,.06-.06,.08-.09,.05-.06,.1-.11,.14-.18,.02-.03,.03-.07,.04-.11,.02-.05,.05-.1,.06-.16,0,0,.08-.39,.2-.94"/><path class="cls-4" d="M148.03,115.37c-.09,0-.18,0-.26-.04-.46-.14-.71-.63-.57-1.08,1.08-3.5,1.74-7.35,1.96-11.44,.03-.48,.43-.84,.91-.81,.48,.02,.85,.43,.82,.91-.23,4.23-.92,8.22-2.04,11.86-.12,.37-.45,.61-.82,.61"/><path class="cls-4" d="M158.83,109.62c0,.88-.6,1.6-1.35,1.61-.75,0-1.36-.71-1.37-1.6,0-.89,.6-1.6,1.35-1.61,.75,0,1.36,.71,1.37,1.59"/><path class="cls-4" d="M144.48,105.82c0,.69,.48,1.25,1.07,1.25,.59,0,1.06-.56,1.05-1.25,0-.7-.48-1.26-1.07-1.25-.59,0-1.06,.57-1.05,1.26"/><path class="cls-1" d="M142.13,138.13v1.17c-.74,.99-1.82,1.48-3.24,1.49-1.16,0-2.1-.31-2.81-.96-.71-.64-1.07-1.49-1.08-2.55,0-1,.32-1.82,.97-2.46,.65-.64,1.49-.96,2.53-.96,.53,0,1.02,.08,1.47,.26,.45,.17,.84,.43,1.17,.77,.33,.35,.58,.74,.74,1.2,.16,.45,.24,1.01,.24,1.67h-3.51c.13,.36,.34,.62,.64,.81,.29,.19,.63,.29,1.01,.29,.77,0,1.39-.25,1.86-.74m-3.72-1.52h1.62c-.02-.34-.1-.6-.25-.79-.15-.19-.35-.28-.58-.28-.21,0-.4,.09-.55,.27-.15,.18-.23,.44-.23,.79"/><path class="cls-1" d="M146.59,133.96v.84c.58-.6,1.27-.9,2.07-.9,.78,0,1.38,.21,1.8,.64,.42,.44,.63,1.08,.63,1.93l.02,4.16h-3.25l-.02-3.89c0-.55-.21-.83-.64-.83-.2,0-.41,.07-.62,.22l.02,4.52-3.44,.02-.03-6.69h3.44Z"/><path class="cls-1" d="M157.68,133.91v1.88h-1.43v1.44c0,.48,.23,.73,.66,.73,.32,0,.59-.16,.82-.48v2.65c-.53,.36-1.18,.54-1.96,.54-.82,0-1.52-.24-2.09-.73-.57-.49-.85-1.17-.86-2.03v-2.1h-1.41l4.82-3.81v1.91h1.45Z"/><path class="cls-1" d="M165.62,138.02v1.17c-.75,.99-1.83,1.49-3.24,1.49-1.16,0-2.1-.31-2.81-.95-.71-.64-1.07-1.49-1.07-2.55,0-1,.32-1.82,.97-2.46,.65-.64,1.49-.96,2.53-.96,.53,0,1.02,.08,1.47,.26,.45,.17,.84,.43,1.18,.77,.33,.34,.57,.75,.73,1.2,.16,.45,.24,1.01,.24,1.66l-3.51,.02c.13,.34,.34,.61,.64,.8,.3,.19,.64,.29,1.02,.29,.78,0,1.39-.25,1.86-.74m-3.72-1.52h1.62c-.02-.34-.1-.6-.25-.79-.16-.19-.35-.28-.59-.28-.21,0-.39,.09-.55,.27-.15,.18-.23,.44-.23,.79"/><path class="cls-1" d="M170.1,135.32c.43-1.02,1.06-1.52,1.9-1.53,.46,0,.85,.14,1.15,.44,.3,.3,.46,.69,.46,1.15,0,.49-.14,.89-.44,1.19-.29,.3-.67,.46-1.15,.46-.54,0-1.01-.2-1.4-.6-.34,.29-.51,.83-.5,1.61v2.5l-3.42,.02-.03-6.69,3.43-.02v1.47Z"/><polygon class="cls-1" points="134.96 151.71 134.93 146.3 145.79 146.25 145.81 151.66 143.09 151.67 143.12 158.47 137.71 158.49 137.68 151.69 134.96 151.71"/><path class="cls-1" d="M153.89,158.62c-1.74,0-3.23-.6-4.45-1.81-1.22-1.22-1.83-2.71-1.84-4.47,0-1.76,.59-3.24,1.8-4.47,1.21-1.22,2.69-1.84,4.43-1.85,1.74,0,3.23,.59,4.45,1.81,1.22,1.21,1.84,2.7,1.84,4.45,0,1.76-.59,3.25-1.8,4.49-1.21,1.23-2.69,1.85-4.44,1.85m-.03-7.92c-.35,0-.64,.12-.86,.37-.23,.25-.34,.55-.34,.92,0,.37,.12,.68,.35,.92,.23,.24,.52,.36,.87,.36,.35,0,.64-.12,.87-.36,.23-.24,.34-.55,.34-.92,0-.37-.12-.67-.35-.91-.23-.24-.52-.36-.87-.36"/><polygon class="cls-1" points="170.03 158.34 164.62 158.36 164.6 153.04 159.91 146.18 165.38 146.15 167.28 148.91 169.15 146.14 174.63 146.11 170.01 153.01 170.03 158.34"/><path class="cls-1" d="M138.77,163.05v.84c.56-.6,1.24-.9,2.06-.91,.97,0,1.7,.38,2.17,1.15,.38-.4,.76-.7,1.15-.88,.38-.19,.81-.28,1.3-.29,.72,0,1.3,.22,1.72,.66,.42,.45,.63,1.07,.64,1.88l.02,4.2-3.25,.02-.02-3.99c0-.24-.06-.42-.18-.55-.12-.13-.27-.2-.46-.2-.21,0-.42,.07-.63,.22l.02,4.53-3.25,.02-.02-3.99c0-.24-.06-.42-.17-.55-.12-.13-.27-.19-.46-.19-.21,0-.41,.08-.63,.23l.02,4.52-3.43,.02-.03-6.69,3.43-.02Z"/><path class="cls-1" d="M156.37,167.11v1.17c-.75,.99-1.82,1.48-3.24,1.49-1.16,0-2.1-.31-2.81-.96-.71-.64-1.07-1.49-1.08-2.55,0-1,.32-1.82,.96-2.46,.65-.64,1.49-.96,2.53-.97,.53,0,1.02,.08,1.47,.26,.45,.18,.85,.44,1.18,.78,.33,.34,.58,.74,.73,1.2,.16,.45,.24,1.01,.24,1.67l-3.51,.02c.13,.34,.34,.6,.64,.79,.3,.19,.64,.29,1.02,.28,.77,0,1.39-.25,1.86-.74m-3.72-1.52h1.62c-.02-.34-.1-.6-.25-.79-.15-.19-.35-.28-.59-.27-.21,0-.39,.09-.55,.27-.16,.18-.23,.44-.23,.79"/><path class="cls-1" d="M161.29,162.94v.84c.58-.6,1.27-.9,2.07-.9,.79,0,1.39,.21,1.8,.64,.42,.43,.63,1.08,.64,1.94l.02,4.16-3.25,.02-.02-3.9c0-.55-.22-.83-.64-.83-.2,0-.41,.08-.61,.22l.02,4.52-3.44,.02-.03-6.69,3.44-.02Z"/><path class="cls-1" d="M172.83,162.88v1.88h-1.43v1.44c0,.48,.23,.73,.66,.72,.31,0,.59-.16,.82-.48v2.65c-.53,.36-1.19,.54-1.96,.54-.83,0-1.52-.24-2.09-.73-.57-.49-.85-1.17-.86-2.03v-2.1h-1.41l4.82-3.8v1.91h1.45Z"/><polygon class="cls-4" points="88 178.11 90.31 182.53 90.26 182.56 85.81 180.34 82.27 183.97 82.24 183.94 82.97 178.94 78.46 176.7 78.45 176.66 83.44 175.82 84.16 170.9 84.21 170.87 86.52 175.29 91.49 174.46 91.52 174.51 88 178.11"/><polygon class="cls-4" points="220.08 175.41 222.35 170.98 222.41 171 223.17 175.92 228.17 176.71 228.17 176.75 223.67 179.04 224.43 184.03 224.4 184.06 220.84 180.46 216.41 182.71 216.35 182.69 218.62 178.25 215.08 174.68 215.11 174.63 220.08 175.41"/><path class="cls-4" d="M150.48,218.4l.45-3.12-9.05-1.31,.15-1.07-4.72-.68-.15,1.07-1.26-.18-.45,3.13,1.25,.18-.13,.92-1.26-.19-.45,3.14,1.26,.18-.09,.64c-.58,4.01,.92,6.37,4.79,6.93l2.19,.31c3.16,.46,6.09-.6,6.82-5.59l.5-3.47-4.64-.67-.5,3.47c-.17,1.17-.75,1.98-2.36,1.75l-.35-.05c-1.16-.17-1.94-.61-1.74-1.99l.1-.64,3.48,.51,.46-3.14-3.48-.5,.13-.92,9.05,1.31Z"/><path class="cls-4" d="M162.89,219.36s-1.38,.06-2.21,.1l-.04-.91,7.01-.34-.18-3.8-7,.34c-.03-.56-.05-.92-.05-.92l-4.77,.23,.05,.92-2.63,.13,.19,3.8,2.62-.12,.24,4.81,6.26-.31c.65-.03,.85,.21,.88,.57,0,.33-.23,.56-.88,.59l-7.82,.38,.22,4.44,7.82-.38c4.73-.23,6.15-1.88,5.98-5.19-.2-4.13-2.57-4.51-5.68-4.35"/><path class="cls-4" d="M126.87,214.88s-.55-.27-1.3-.62l.39-.83,1.4,.66,1.62-3.43-1.4-.66c.24-.51,.39-.83,.39-.83l-3.67-1.74c-.15,.31-.15,.31-.39,.83l-3.76-1.78-1.63,3.43,3.8,1.8-.4,.83c-.07-.03-.41-.19-.41-.19-1.93-.91-4.38-.5-5.81,2.52-1.35,2.83-.52,5,2.08,6.23,3.33,1.58,4.64-.21,5.67-2.38,0,0,.33-.7,.44-.93,.74,.35,1.38,.65,1.38,.65,.53,.25,.8,.48,.6,.92-.18,.37-.42,.44-1.06,.14-.31-.14-.6-.28-.6-.28l-1.91,4.02s.3,.14,.54,.25c2.58,1.22,5.09,1.55,6.84-2.15,1.4-2.95-.25-5.26-2.82-6.47m-7.06,2.16c-.21,.45-.46,.59-.69,.48-.07-.03-.12-.06-.14-.07-.38-.19-.29-.65-.08-1.09,.26-.55,.66-.65,1.08-.44,.15,.07,.28,.13,.29,.14-.1,.22-.46,.97-.46,.97m10.72-7.46l-1.64,3.45c.76,.37,.64,.89,.47,1.25l-.47,.99,3.47,1.64,.64-1.36c1.3-2.73,.74-4.6-2.48-5.97"/><path class="cls-4" d="M191.81,209.77l.51,2.55c.33,1.82-1.04,3.36-2.53,4.1l-4.7,2.33,1.98,3.99,4.93-2.44c3.64-1.81,5.68-4.92,4.74-9.01-.43-1.84-1.19-3.72-.17-4.22l-2.15-4.32c-3.48,1.72-3.37,3.76-2.61,7.03m-4.91-3.86l-6.56,3.26,1.73,3.5,6.56-3.25-1.73-3.5Zm2.14,4.33l-6.56,3.26,1.74,3.5,6.56-3.25-1.74-3.5Z"/><rect class="cls-4" x="207.34" y="190.39" width="14.19" height="4.62" transform="translate(-68.65 247.25) rotate(-52.85)"/><path class="cls-4" d="M201.88,199.22l-5.16,4.62,2.2,2.45,4.81-4.31c.47-.4,.74,.04,1.01,.34,0,0,0,0,0,0l-4.73,4.23,1.74,1.94,4.73-4.23,.62,.69-5.2,4.66,2.19,2.45,8.17-7.31-4.94-5.51c-1.13-1.25-3.23-2-5.44-.01"/><path class="cls-4" d="M179.52,216.57c.12-.3,.39-.48,.86-.61l-.71-2.65c-2.62,.71-3.46,2.01-3.61,3.32l-1.84,.5-.41-1.21-3.29,.89,.41,1.2-1.24,.34,.92,3.4,1.47-.4,2.02,5.92,3.28-.88-2.02-5.92,1.46-.4c.86-.23,1.3-.1,1.46,.49,.17,.62-.13,1.02-1.22,1.31l.92,3.4c3.89-1.05,4.68-2.86,4.02-5.33l-.2-.76c-.31-1.15-1.03-2.18-2.28-2.62"/><path class="cls-4" d="M102.75,195.85l2.04-1.62-3.54-4.47,.56-.44-2.5-3.16-.56,.44-3.53-4.45-2.04,1.62,3.53,4.45-.73,.58-3.36-4.25-5.86,4.65,2.27,2.86c-1,.05-2.52-.93-3.54-2.27l-2.17,1.72c1.57,2.01,3.22,3.13,4.7,3.26l-1.31,1.04,2.8,3.53,1.31-1.04c-.21,1.46,.5,3.33,2.09,5.3l2.17-1.72c-1.01-1.22-1.75-2.77-1.39-3.95l2.3,2.91,5.87-4.64-3.37-4.25,.73-.58,3.54,4.47Zm-11.25-3.5l-1.05-1.33,.72-.57,1.05,1.34-.72,.57Zm2.39-1.89l-1.06-1.33,.73-.58,1.06,1.33-.73,.58Zm1.17,6.37l-1.06-1.33,.72-.57,1.06,1.33-.72,.57Zm3.11-2.46l-.72,.58-1.06-1.33,.72-.58,1.06,1.33Z"/><rect class="cls-4" x="77.25" y="164.8" width="9" height="3.45" transform="translate(-28.83 17.57) rotate(-10.44)"/><rect class="cls-4" x="105.08" y="93.85" width="3.49" height="8.99" transform="translate(-38.22 91.57) rotate(-39.96)"/><polygon class="cls-4" points="79.64 153.26 76.15 153.05 76.63 145.09 80.12 145.29 79.99 147.53 85.48 147.87 85.27 151.35 79.78 151.02 79.64 153.26"/><polygon class="cls-4" points="97.72 105.44 95.28 102.94 101 97.36 103.44 99.86 101.83 101.43 105.67 105.37 103.17 107.8 99.33 103.86 97.72 105.44"/><polygon class="cls-4" points="153.59 80.59 153.79 77.11 161.77 77.58 161.57 81.06 159.31 80.93 158.99 86.42 155.51 86.22 155.84 80.72 153.59 80.59"/><polygon class="cls-4" points="203.38 100.5 205.9 98.08 211.42 103.84 208.91 106.26 207.35 104.63 203.37 108.44 200.96 105.92 204.93 102.11 203.38 100.5"/><polygon class="cls-4" points="85.06 137.44 87.04 137.81 85.71 145.14 76.86 143.53 78.19 136.19 80.17 136.55 79.46 140.46 81.04 140.75 81.56 137.88 83.29 138.2 82.77 141.06 84.35 141.35 85.06 137.44"/><path class="cls-4" d="M78.61,134.01l1.93-5.54c.33-.96,.84-1.63,1.51-2.01,.67-.38,1.38-.45,2.11-.2,.79,.28,1.24,1.01,1.46,1.81,1.37-.55,2.98-.82,4.72-.42l-1.27,3.67c-1.1-.31-1.95-.42-2.55-.35-.6,.07-1.07,.6-1.42,1.6l3.15,1.09-1.14,3.29-8.5-2.95Zm2.89-2.68l1.64,.57,.2-.57c.34-.99,.17-1.33-.37-1.52-.22-.08-.44-.07-.66,0-.21,.08-.46,.5-.57,.83l-.24,.69Z"/><path class="cls-4" d="M97.11,115.48l-2.11,2.77-5.26-7.93,3.43-4.51,9.05,2.96-2.11,2.77-1.53-.51-2.36,3.11,.9,1.33Zm-2.15-3.19l1.48-1.95-3.55-1.13,2.07,3.09Z"/><path class="cls-4" d="M132.28,89.4l-3.35,.95,.55-9.5,5.45-1.54,5.46,7.8-3.35,.95-.91-1.33-3.76,1.07-.08,1.61Zm.2-3.85l2.36-.67-2.15-3.04-.21,3.7Z"/><path class="cls-4" d="M114.81,98.04c-1.19,.48-2.37,.46-3.53-.05-1.16-.51-1.99-1.35-2.47-2.56-.48-1.19-.47-2.38,.03-3.54,.5-1.17,1.33-1.98,2.53-2.46,1.2-.48,2.37-.46,3.53,.03,1.17,.5,1.99,1.35,2.47,2.54,.49,1.21,.47,2.39-.02,3.56-.5,1.17-1.33,1.99-2.53,2.47m-2.38-5.96c-.38,.15-.66,.41-.8,.79-.15,.37-.14,.76,.03,1.17,.16,.41,.43,.7,.79,.86,.36,.17,.74,.18,1.13,.02,.39-.16,.66-.42,.81-.8,.14-.37,.13-.76-.03-1.16-.16-.41-.43-.7-.78-.87-.37-.17-.74-.17-1.14-.01"/><path class="cls-4" d="M165.66,87.6c-1.25-.32-2.19-1.02-2.84-2.11-.64-1.09-.82-2.27-.5-3.52,.31-1.25,1.02-2.2,2.1-2.85,1.08-.65,2.25-.82,3.5-.5,1.25,.32,2.2,1.02,2.84,2.1,.64,1.08,.81,2.26,.49,3.5-.32,1.26-1.01,2.21-2.09,2.87-1.08,.66-2.25,.83-3.51,.51m1.57-6.23c-.41-.1-.77-.04-1.12,.17-.34,.21-.55,.54-.66,.97-.11,.43-.07,.81,.13,1.16,.2,.35,.49,.58,.9,.68,.4,.1,.77,.04,1.11-.17,.35-.21,.58-.53,.68-.96,.11-.43,.06-.82-.15-1.17-.19-.35-.49-.57-.89-.68"/><path class="cls-4" d="M192.36,98.75c-1.13-.62-1.86-1.55-2.2-2.76-.34-1.22-.2-2.39,.43-3.53,.62-1.13,1.54-1.87,2.75-2.22,1.21-.35,2.38-.22,3.5,.4,1.12,.62,1.87,1.55,2.2,2.76,.35,1.22,.2,2.39-.42,3.51-.63,1.14-1.54,1.88-2.76,2.24-1.21,.36-2.39,.22-3.51-.4m3.11-5.61c-.36-.2-.73-.24-1.11-.12-.38,.12-.69,.37-.91,.76-.21,.38-.25,.77-.16,1.16,.1,.39,.33,.69,.69,.88,.38,.21,.75,.25,1.13,.13,.39-.12,.67-.38,.89-.76,.22-.39,.29-.77,.18-1.16-.1-.39-.33-.68-.7-.89"/><path class="cls-4" d="M208.25,114.51c-.89-.92-1.33-2.02-1.3-3.29,.02-1.27,.5-2.36,1.43-3.26,.92-.9,2.02-1.33,3.29-1.31,1.26,.02,2.35,.5,3.24,1.42,.88,.91,1.32,2.01,1.29,3.27-.02,1.27-.5,2.34-1.43,3.24-.94,.91-2.02,1.36-3.3,1.33-1.26-.02-2.35-.49-3.23-1.4m4.62-4.46c-.3-.31-.63-.45-1.04-.45-.4,0-.76,.16-1.08,.47-.31,.3-.49,.66-.5,1.06-.02,.4,.12,.75,.41,1.06,.28,.29,.63,.44,1.03,.44,.4-.01,.76-.16,1.08-.46,.32-.31,.48-.67,.5-1.07,.01-.41-.12-.75-.41-1.05"/><path class="cls-4" d="M220.89,151.49c-.21-1.27,.05-2.42,.8-3.44,.74-1.03,1.75-1.66,3.03-1.87,1.27-.21,2.42,.06,3.46,.79,1.03,.73,1.65,1.72,1.87,2.99,.21,1.27-.06,2.41-.79,3.45-.74,1.01-1.75,1.65-3.01,1.86-1.29,.21-2.44-.06-3.48-.78-1.04-.74-1.66-1.73-1.87-3m6.33-1.06c-.07-.43-.27-.74-.6-.96-.33-.22-.71-.29-1.15-.22-.43,.07-.77,.26-1.01,.58-.24,.32-.33,.67-.25,1.1,.06,.41,.27,.73,.6,.96,.33,.22,.72,.3,1.15,.23,.44-.07,.78-.27,1.01-.59,.25-.33,.33-.69,.26-1.1"/><polygon class="cls-4" points="141.11 86.9 139.96 77.98 143.42 77.53 144.28 84.21 148.21 83.7 148.5 85.95 141.11 86.9"/><path class="cls-4" d="M177.22,81.01l-.98,2.84c1.12,.34,1.93,.3,2.45-.07,.5-.38,.9-.99,1.19-1.84l3.59,1.25c-.36,1.04-.78,1.84-1.29,2.42-.5,.58-1.43,.9-2.15,1.14,.86,1.29,1.3,3.01,.75,5.02l-3.83-1.33c.7-2.19,.09-3.4-1.58-4.03l-1.08,3.11-3.3-1.14,2.95-8.5,3.29,1.14Z"/><polygon class="cls-4" points="186.34 94.86 183.27 93.22 185.12 89.76 184.34 83.6 187.47 85.27 187.66 88.68 190.6 86.94 193.73 88.61 188.19 91.39 186.34 94.86"/><polygon class="cls-4" points="213.45 122.83 211.76 119.77 215.2 117.87 217.9 112.3 219.61 115.39 217.92 118.36 221.33 118.5 223.05 121.6 216.89 120.92 213.45 122.83"/><path class="cls-4" d="M226.7,132.57l-2.52,.02c.26-.78,.49-1.75,.24-2.55-.08-.24-.16-.66-.6-.69-.39-.03-.83,.12-.72,1.79,.05,.73-.09,1.32-.17,1.74-.09,.43-.26,.79-.53,1.07-.26,.31-.62,.51-1.04,.66-.91,.32-1.72,.22-2.44-.3-.71-.53-1.31-1.44-1.78-2.78-.53-1.51-.78-2.95-.74-4.2h2.74c-.13,.38-.25,1.15-.39,1.87-.18,.9,.16,1.34,.5,1.43,.31,.07,.88,.06,.87-1.62,0-.5,.07-.94,.13-1.32,.07-.35,.45-1.38,1.55-1.77,.95-.34,1.78-.24,2.5,.28,.71,.51,1.36,1.32,1.83,2.66,.43,1.22,.59,2.54,.58,3.7"/><polygon class="cls-4" points="220.77 160.42 221.08 157.75 230.38 155.66 229.99 159.01 225.68 160.06 229.63 162.13 229.42 163.88 225.09 165.03 229.06 166.98 228.66 170.36 220.08 166.29 220.39 163.64 224.62 162.45 220.77 160.42"/><polygon class="cls-4" points="85.13 154 85.33 157.02 81.92 159.87 85.48 159.64 85.69 162.83 76.65 163.42 76.47 160.67 80.08 157.62 76.29 157.86 76.07 154.59 85.13 154"/><polygon class="cls-4" points="219.49 139.83 218.82 136.14 227.71 134.53 228.38 138.22 225.12 138.81 225.59 141.39 228.85 140.8 229.47 144.25 220.58 145.86 219.95 142.41 223.25 141.81 222.78 139.23 219.49 139.83"/><polygon class="cls-4" points="94.74 119 93.36 121.69 88.97 122.38 92.14 124.02 90.68 126.86 82.62 122.72 83.88 120.27 88.55 119.5 85.17 117.77 86.67 114.85 94.74 119"/><polygon class="cls-4" points="128.2 90.66 125.46 91.95 121.55 89.82 123.08 93.05 120.18 94.41 116.32 86.23 118.81 85.05 122.97 87.28 121.36 83.85 124.32 82.45 128.2 90.66"/><path class="cls-4" d="M102.73,206.95l-2.22-1.84c-.69,.77-1.65,.54-2.35-.15l-1.76,2.12c2.72,2.45,4.72,1.94,6.32-.13"/><path class="cls-4" d="M99.83,203.41l3.96,3.29-3.2,3.85,3.5,2.91,3.2-3.86,3.98,3.29,4.22-5.08-11.45-9.49-4.21,5.08Zm5.29-.55l5.71,4.74-.64,.77-5.7-4.74,.64-.77Z"/><polygon class="cls-4" points="113.58 201.64 114.04 201.09 110.93 198.51 110.48 199.06 106.09 195.42 104.41 197.44 116.29 207.28 117.97 205.27 113.58 201.64"/><path class="cls-4" d="M109.47,212.54l-2.22-1.84c-1.74,1.96-1.86,4.02,1.03,6.24l1.76-2.12c-.8-.55-1.2-1.46-.58-2.27"/></g></g></g></svg>