<svg xmlns="http://www.w3.org/2000/svg" width="530" height="60" viewBox="0 0 530 60">
  <defs>
    <style>
      .cls-1 {
        fill: #fff;
      }

      .cls-2 {
        fill: #00b4dc;
      }
    </style>
  </defs>
  <g id="レイヤー_2" data-name="レイヤー 2">
    <g id="object">
      <g>
        <rect class="cls-1" width="530" height="60" rx="10"/>
        <path class="cls-2" d="M520,6a4.054,4.054,0,0,1,4,4V50a4.054,4.054,0,0,1-4,4H10a4.054,4.054,0,0,1-4-4V10a4.054,4.054,0,0,1,4-4H520m0-6H10A10.029,10.029,0,0,0,0,10V50A10.029,10.029,0,0,0,10,60H520a10.029,10.029,0,0,0,10-10V10A10.029,10.029,0,0,0,520,0Z"/>
        <rect class="cls-2" width="270" height="60" rx="10"/>
        <g>
          <path class="cls-1" d="M69.686,21.935l2.6,13.144,2.478-13.144h3.359L80.6,35.079l2.6-13.144h3.275L82.577,38.48H78.861L76.446,25.861,74.032,38.48H70.315L66.41,21.935Z"/>
          <path class="cls-1" d="M101.729,21.935v2.436H91.714V28.8H100.6v2.436H91.714v4.809H101.96V38.48H88.565V21.935Z"/>
          <path class="cls-1" d="M113.343,21.935c3.4,0,5.039,1.974,5.039,4.241a3.563,3.563,0,0,1-2.477,3.486,4.022,4.022,0,0,1,3.128,4.094c0,2.415-1.679,4.724-5.312,4.724h-9.28V21.935Zm-5.774,2.436v4.493h5.081a2.261,2.261,0,1,0,0-4.493Zm0,6.74v4.934h5.186c1.344,0,3.066-.567,3.066-2.52s-1.7-2.414-3.087-2.414Z"/>
          <path class="cls-1" d="M141.187,32.307v1.722h-1.344v3.485h-2.6V36.8h-4.346v1.428c0,1.428-.756,1.848-3.255,1.848-.462,0-.735-.022-1.029-.042a7.3,7.3,0,0,0-.84-2.288,12.838,12.838,0,0,0,1.827.168c.357,0,.714-.043.714-.61v-.525h-6.824V34.911h6.824v-.882h-8.293V32.307h8.293v-.819h-6.824V29.767h6.824v-.735h-5.438V24.769h5.438v-.734h-8.272v-1.89h8.272v-1.3l2.751.126c.1,0,.314.063.314.272,0,.168-.252.295-.482.379v.524h8.23v1.89h-8.23v.734h5.4v4.263h-5.4v.735h6.949v2.54Zm-10.876-5v-.882h-3.023v.882Zm2.583-.882v.882h3.023v-.882Zm4.346,5.879v-.819h-4.346v.819Zm0,2.6v-.882h-4.346v.882Z"/>
          <path class="cls-1" d="M153.873,23.825a18.707,18.707,0,0,0,1.868-3.107l2.709.735c.126.041.231.1.231.23,0,.336-.5.294-.609.294-.4.652-.777,1.26-1.2,1.848h5.249V26.05H142.913V23.825h5.1a12.283,12.283,0,0,0-1.428-2.1l2.393-1.071a15.513,15.513,0,0,1,1.785,2.73l-1.113.441Zm-7.181,11.569v4.6h-2.457V26.953h8.021v10.9c0,1.68-.63,2.1-3.486,2.142a5.449,5.449,0,0,0-.9-2.541,11.808,11.808,0,0,0,1.217.1c.483,0,.756-.021.756-.818V35.394Zm3.149-5.144v-1.3h-3.149v1.3Zm0,3.254V32.139h-3.149V33.5Zm6.551-6.34c.126,0,.357.062.357.23,0,.106-.21.252-.357.358v8.482h-2.561V27.058Zm4.472-.463c.147,0,.378.043.378.252,0,.147-.042.168-.483.379V37.494c0,2.267-1.176,2.54-4.052,2.5a6.223,6.223,0,0,0-.63-2.688c.315.042,1.134.126,1.449.126.336,0,.693,0,.693-.756V26.554Z"/>
          <path class="cls-1" d="M167.1,35.289V30.06a13.426,13.426,0,0,1-2.058,1.449,8.554,8.554,0,0,0-1.784-1.953,18.537,18.537,0,0,0,3.569-2.54,11.046,11.046,0,0,0-2.1-1.659l1.68-1.721a13.7,13.7,0,0,1,2.142,1.637,7.628,7.628,0,0,0,1.364-1.868H165.4v-2.12h7.244l.861.9a18.522,18.522,0,0,1-2.436,3.969h5.333a15.013,15.013,0,0,1-2.918-4.6l2.246-.86a11.194,11.194,0,0,0,1.239,2.225,15.234,15.234,0,0,0,1.659-1.994l1.848,1.175c.209.126.251.19.251.274,0,.23-.314.252-.566.252a23.4,23.4,0,0,1-1.785,2.015c.105.125.21.231.651.693a22.571,22.571,0,0,0,2.183-2.54l1.68,1.132c.231.148.336.252.336.379,0,.252-.21.273-.609.273a15.378,15.378,0,0,1-2.058,2.141,14.222,14.222,0,0,0,3.276,2.2,8.673,8.673,0,0,0-1.617,2.1,19.053,19.053,0,0,1-2.288-1.512v5.774h-1.827l.4.062c.105.022.294.211.294.316,0,.231-.378.294-.546.315-.231.608-.5,1.133-.672,1.49h5.5v2.162H163.976V37.472h5.753c-.252-.672-.651-1.49-.819-1.826l1.238-.357Zm2.918-7.9c-.44.442-1.049,1.092-2.12,2.016h11.905a24.033,24.033,0,0,1-2.5-2.289v1.3h-7.286Zm-.377,4.01v1.848h7.768V31.4Zm1.91,3.885a13.852,13.852,0,0,1,.84,1.973c-.294.064-.588.1-.987.21h3.381a13.682,13.682,0,0,0,.923-2.183Z"/>
          <path class="cls-1" d="M192.324,28.276H190.54v1.512h2.309v2.225H190.54v3.612a13.5,13.5,0,0,0,.986-3.024l2.142.42c.084.022.231.042.231.231,0,.231-.294.273-.567.295a19.015,19.015,0,0,1-.945,2.56,8.918,8.918,0,0,0-1.847-.356v1.007c1.637-.293,2.078-.4,2.561-.524a7.9,7.9,0,0,0-.252,2.2c-2.9.714-5.438,1.112-6.866,1.344-.168.5-.189.546-.4.546-.189,0-.23-.19-.251-.294l-.441-2.456c.566-.043,1.385-.106,3.3-.42V32.013h-2.981V29.788h2.981V28.276H186.34v-.944l-.189.168a6.8,6.8,0,0,0-1.868-1.743,10.453,10.453,0,0,0,4.136-4.892l2.456.524c.147.042.252.064.252.21,0,.042,0,.252-.294.336a14.005,14.005,0,0,0,3,3.15,7.576,7.576,0,0,0-1.512,1.491Zm-5.291,4.577a17.862,17.862,0,0,1,1.092,3.254,9.457,9.457,0,0,0-2.037.693,20.307,20.307,0,0,0-1.07-3.3Zm4.556-6.656a11.254,11.254,0,0,1-2.1-2.5,21.081,21.081,0,0,1-1.974,2.5Zm1.6,9.07a26.83,26.83,0,0,0,4.409-1.511V30h-4.283V27.836H200.2v-1.2h-5.585V24.56H200.2V23.447H193.71V21.221h9.007v6.615h1.512V30H199.9v2.141a5.965,5.965,0,0,0,.4.609,9.893,9.893,0,0,0,1.469-2.5l2.205,1.029c.1.041.252.1.252.293,0,.315-.336.3-.546.3a23.679,23.679,0,0,1-1.827,2.728,15.446,15.446,0,0,0,2.814,2.227,7.625,7.625,0,0,0-1.47,2.184,19.919,19.919,0,0,1-3.3-3.339v2.477c0,2.016-1.26,2.016-3.633,2.016a7.579,7.579,0,0,0-1.007-2.478c.462.064,1.385.148,1.679.148.63,0,.651-.4.651-.694V35.9a24.818,24.818,0,0,1-3.044,1.512c-.042.356-.063.672-.378.672-.126,0-.231-.127-.273-.252Zm2.352-4.975a20.285,20.285,0,0,1,1.553,2.687,8.588,8.588,0,0,0-1.91,1.239,16.223,16.223,0,0,0-1.554-2.771Z"/>
        </g>
        <g>
          <path class="cls-2" d="M331.052,35.289V30.06A13.433,13.433,0,0,1,329,31.509a8.574,8.574,0,0,0-1.785-1.953,18.476,18.476,0,0,0,3.569-2.54,11.041,11.041,0,0,0-2.1-1.659l1.679-1.721a13.7,13.7,0,0,1,2.142,1.637,7.648,7.648,0,0,0,1.365-1.868h-4.514v-2.12H336.6l.861.9a18.522,18.522,0,0,1-2.436,3.969h5.334a15,15,0,0,1-2.919-4.6l2.247-.86a11.229,11.229,0,0,0,1.238,2.225,15.234,15.234,0,0,0,1.659-1.994l1.848,1.175c.21.126.252.19.252.274,0,.23-.315.252-.567.252a23.4,23.4,0,0,1-1.785,2.015c.105.125.21.231.651.693a22.592,22.592,0,0,0,2.184-2.54l1.679,1.132c.231.148.336.252.336.379,0,.252-.21.273-.609.273a15.315,15.315,0,0,1-2.057,2.141,14.2,14.2,0,0,0,3.275,2.2,8.673,8.673,0,0,0-1.617,2.1,19.146,19.146,0,0,1-2.288-1.512v5.774h-1.827l.4.062c.105.022.294.211.294.316,0,.231-.378.294-.546.315-.231.608-.5,1.133-.672,1.49h5.5v2.162H327.924V37.472h5.753c-.252-.672-.651-1.49-.819-1.826l1.239-.357Zm2.919-7.9c-.441.442-1.05,1.092-2.121,2.016h11.9a24.033,24.033,0,0,1-2.5-2.289v1.3h-7.285Zm-.378,4.01v1.848h7.768V31.4Zm1.91,3.885a13.852,13.852,0,0,1,.84,1.973c-.294.064-.588.1-.987.21h3.381a13.593,13.593,0,0,0,.924-2.183Z"/>
          <path class="cls-2" d="M356.272,28.276h-1.784v1.512H356.8v2.225h-2.309v3.612a13.45,13.45,0,0,0,.987-3.024l2.141.42c.084.022.231.042.231.231,0,.231-.294.273-.567.295a19.015,19.015,0,0,1-.945,2.56,8.891,8.891,0,0,0-1.847-.356v1.007c1.637-.293,2.078-.4,2.561-.524a7.9,7.9,0,0,0-.252,2.2c-2.9.714-5.438,1.112-6.865,1.344-.168.5-.189.546-.4.546-.189,0-.231-.19-.252-.294l-.441-2.456c.567-.043,1.386-.106,3.3-.42V32.013h-2.981V29.788h2.981V28.276h-1.847v-.944l-.189.168a6.807,6.807,0,0,0-1.869-1.743,10.448,10.448,0,0,0,4.136-4.892l2.457.524c.147.042.252.064.252.21,0,.042,0,.252-.294.336a14.008,14.008,0,0,0,3,3.15,7.576,7.576,0,0,0-1.512,1.491Zm-5.291,4.577a17.862,17.862,0,0,1,1.092,3.254,9.432,9.432,0,0,0-2.036.693,20.212,20.212,0,0,0-1.071-3.3Zm4.557-6.656a11.232,11.232,0,0,1-2.1-2.5,21.081,21.081,0,0,1-1.974,2.5Zm1.595,9.07a26.83,26.83,0,0,0,4.409-1.511V30h-4.283V27.836h6.887v-1.2h-5.585V24.56h5.585V23.447h-6.488V21.221h9.008v6.615h1.511V30h-4.325v2.141a5.965,5.965,0,0,0,.4.609,9.925,9.925,0,0,0,1.47-2.5l2.2,1.029c.1.041.252.1.252.293,0,.315-.336.3-.546.3a23.677,23.677,0,0,1-1.826,2.728,15.435,15.435,0,0,0,2.813,2.227,7.625,7.625,0,0,0-1.47,2.184,19.961,19.961,0,0,1-3.3-3.339v2.477c0,2.016-1.26,2.016-3.632,2.016a7.6,7.6,0,0,0-1.008-2.478c.462.064,1.386.148,1.68.148.629,0,.65-.4.65-.694V35.9A24.747,24.747,0,0,1,358.5,37.41c-.042.356-.063.672-.378.672-.126,0-.231-.127-.273-.252Zm2.352-4.975a20.262,20.262,0,0,1,1.554,2.687,8.6,8.6,0,0,0-1.911,1.239,16.223,16.223,0,0,0-1.554-2.771Z"/>
          <path class="cls-2" d="M375.005,22.418c.168.063.252.147.252.3,0,.23-.315.293-.588.336a30.285,30.285,0,0,0-1.2,8.334,16.574,16.574,0,0,0,.147,2.478c.189-.336.966-1.826,1.134-2.121a7.587,7.587,0,0,0,1.344,1.785,10.4,10.4,0,0,0-1.743,5.459l-2.394.462a29.194,29.194,0,0,1-1.091-8.294,39.894,39.894,0,0,1,1.217-9.658Zm10.057-.461c.231.041.294.146.294.272,0,.21-.294.273-.5.294a24.4,24.4,0,0,0-.21,2.75,20.214,20.214,0,0,0,3.3-.818v2.709c-1.7.42-2.75.588-3.359.692a41.725,41.725,0,0,0,.315,5.271,13.067,13.067,0,0,1,4.178,2.267c-.315.545-1.092,2.162-1.239,2.5a8.542,8.542,0,0,0-2.666-1.8c0,2.876-3.233,3.065-4.157,3.065-3.045,0-4.115-1.869-4.115-3.3,0-2.1,2.057-3.254,4.325-3.254a8.619,8.619,0,0,1,.882.063c-.063-.819-.21-2.6-.231-4.451-1.281.105-2.352.147-2.982.147-.609,0-1.008-.02-1.449-.042V25.505a23.3,23.3,0,0,0,2.6.147c.861,0,1.428-.043,1.806-.063,0-.189.021-3.675.021-4.158Zm-4.115,12.849c-1.3,0-1.7.588-1.7,1.049,0,.588.609,1.008,1.47,1.008.147,0,1.763-.021,1.763-1.322a3.772,3.772,0,0,0-.042-.462A3.407,3.407,0,0,0,380.947,34.806Z"/>
          <path class="cls-2" d="M397.6,31.908c-.315.273-2.184,1.891-2.184,2.939a1.025,1.025,0,0,0,.525.946,12.606,12.606,0,0,0,4.472.609,26.63,26.63,0,0,0,8-1.051A18.69,18.69,0,0,0,409,38.312a43.158,43.158,0,0,1-8.629.84c-4.724,0-7.873-.882-7.873-3.989,0-.945.314-2.415,3.149-4.829Zm9.994-7.537a25.4,25.4,0,0,0-6.719,4.325c-.252-.294-1.386-1.575-1.617-1.827.168-.105,1.785-1.344,2.226-1.764-1.113.084-2.667.168-4.535.168-1.554,0-2.2-.062-2.73-.1l-.168-2.94a40.7,40.7,0,0,0,5.984.378,33,33,0,0,0,6.11-.462Z"/>
          <path class="cls-2" d="M421.75,21.453c.272.062.42.146.42.314,0,.21-.252.274-.483.294-.105.336-.588,1.848-.693,2.142a34.235,34.235,0,0,0,7.181-1.7,7.7,7.7,0,0,0,.546,2.646,36.641,36.641,0,0,1-8.651,1.8c-.105.3-.483,1.323-1.385,3.527a12.148,12.148,0,0,1,5.878-1.658c5.375,0,5.711,3.863,5.711,4.829,0,5.815-8.314,6.131-10.876,6.131a18.181,18.181,0,0,1-2.205-.1,11.3,11.3,0,0,0-.672-2.667,30.778,30.778,0,0,0,3.171.189c2.708,0,7.621-.483,7.621-3.632,0-1.722-1.259-2.415-2.918-2.415a11.124,11.124,0,0,0-7.622,3.675l-2.519-1.28a26.9,26.9,0,0,0,2.981-6.426,38.022,38.022,0,0,1-4.367-.105l-.02-2.919a25.3,25.3,0,0,0,5.185.4,26.073,26.073,0,0,0,.82-3.8Z"/>
          <path class="cls-2" d="M440.314,25.4c.147.041.357.125.357.315,0,.273-.294.293-.441.293a19.666,19.666,0,0,0-1.449,4.388A10.415,10.415,0,0,1,445.27,28a4.95,4.95,0,0,1,5.311,5.017c0,4.094-4.052,6.593-10.728,6.593-.652,0-1.176-.021-1.576-.042a8.1,8.1,0,0,0-.818-2.982,15.983,15.983,0,0,0,2.9.252c1.323,0,7.286-.188,7.286-3.8a2.452,2.452,0,0,0-2.772-2.52c-3.632,0-6.215,2.876-6.991,3.736l-2.562-.923a51.039,51.039,0,0,1,2.12-8.839Zm-.839-4.64a21.6,21.6,0,0,1,7.222,2.414,22.482,22.482,0,0,0-1.6,2.6,19.494,19.494,0,0,0-6.573-2.624Z"/>
        </g>
        <polygon class="cls-2" points="505 35 505 25 510 30 505 35"/>
      </g>
    </g>
  </g>
</svg>
