<?xml version="1.0" encoding="UTF-8"?><svg id="_イヤー_2" xmlns="http://www.w3.org/2000/svg" width="310" height="50" xmlns:xlink="http://www.w3.org/1999/xlink" viewBox="0 0 310 50"><defs><style>.cls-1{fill:#fff;}.cls-2{fill:#00b4dc;}.cls-3{fill:url(#_称未設定グラデーション_2);}</style><linearGradient id="_称未設定グラデーション_2" x1="155" y1="931.36" x2="155" y2="981.36" gradientTransform="translate(0 981.36) scale(1 -1)" gradientUnits="userSpaceOnUse"><stop offset="0" stop-color="#000" stop-opacity=".15"/><stop offset=".15" stop-color="#000" stop-opacity=".08"/><stop offset="1" stop-color="#000" stop-opacity="0"/></linearGradient></defs><g id="_イヤー_3"><g><rect class="cls-2" x=".31" width="309.69" height="50" rx="7.66" ry="7.66"/><path class="cls-3" d="M7.05,0H302.95c3.89,0,7.05,2.24,7.05,5V45c0,2.76-3.15,5-7.05,5H7.05c-3.89,0-7.05-2.24-7.05-5V5C0,2.24,3.15,0,7.05,0Z"/></g><g><g><path class="cls-1" d="M54.56,13.78l.95,.14c.1,.02,.37,.07,.37,.24,0,.22-.36,.25-.54,.29-.31,.65-.75,1.36-.88,1.6h3.81v8.35c0,2.23-.92,2.24-2.67,2.28-.08-.63-.22-.99-.54-1.5,.32,.05,.76,.1,1.09,.1,.73,0,.75-.32,.75-.8v-7.21h-3.64v1.38c0,.53,.19,.54,.59,.54h.92c.32,0,.63,.02,.75-1.12,.39,.29,.82,.51,1.21,.61-.36,1.51-.97,1.68-1.77,1.68h-1.53c-.88,0-1.48-.15-1.48-1.34v-1.75h-2.55l.83,.26c.24,.07,.32,.12,.32,.22,0,.19-.22,.22-.37,.24-.24,.92-1,2.5-2.97,3.6-.39-.49-.68-.7-1.12-.9,1.5-.66,2.72-1.79,2.94-3.42h-3.14v9.37h-1.39v-10.59h4.13c-.19-.39-.73-1.33-1.26-1.96l.99-.31h-4.64v-1.19h6.99v-1.51l1.45,.08c.17,.02,.39,.05,.39,.2s-.22,.26-.39,.31v.92h7.05v1.19h-4.62Zm-5.08,11.18v.63h-1.34v-4.45h6.51v3.82h-5.17Zm-.73-11.18c.42,.51,.9,1.31,1.24,1.96l-1,.31h3.89c.42-.63,.87-1.43,1.19-2.26h-5.32Zm4.57,8.45h-3.84v1.65h3.84v-1.65Z"/><path class="cls-1" d="M61.52,15.15v-1.09h5.71v1.09h-5.71Zm4.13,11.24v-.83h-2.31v1.12h-1.26v-5.71h4.79v5.42h-1.22Zm-3.33-13.55v-1.07h4.32v1.07h-4.32Zm0,4.59v-1.07h4.28v1.07h-4.28Zm0,2.33v-1.05h4.28v1.05h-4.28Zm3.33,2.33h-2.31v2.31h2.31v-2.31Zm10.54-2.97c-.99-.46-3.33-1.6-4.28-3.69-.36,.95-1.46,2.55-4.06,3.57-.36-.68-.66-.95-.83-1.11,3.72-1.21,4.03-3.18,4.03-5.58,0-.53-.02-.83-.05-1.31l1.51,.07c.19,0,.32,.03,.32,.19s-.12,.19-.46,.31c0,.7-.02,1.24-.08,1.96,.85,2.96,3.57,4.01,4.83,4.45-.19,.15-.54,.46-.92,1.14Zm-.07,7.51c-1.39-.73-3.13-2.07-4.13-4.13-.75,2.23-2.75,3.54-4.04,4.16-.22-.42-.49-.76-.94-1.16,4.1-1.75,4.08-3.86,4.03-7.31l1.43,.08c.08,0,.31,.02,.31,.19,0,.14-.14,.19-.39,.27,0,.25-.03,1.48-.03,1.63,0,.42,.54,1.6,.99,2.21,.77,1.05,2.24,2.19,3.66,2.86-.42,.39-.6,.66-.87,1.19Zm-6.22-6.61c-.32,1.65-.65,2.4-.83,2.8-.29-.15-.76-.34-1.29-.37,.53-1.05,.85-2.18,.99-3.18l1.33,.27c.19,.03,.29,.1,.29,.19,0,.25-.31,.27-.48,.29Zm.03-7.28c-.14,.77-.41,1.77-.76,2.63-.41-.2-.8-.32-1.24-.36,.56-1.22,.76-2.43,.85-3.06l1.31,.29c.14,.03,.29,.07,.29,.25,0,.17-.14,.19-.44,.24Zm6.17,.14c-.07,0-.19,0-.26-.03-.25,.48-.9,1.51-1.46,2.19-.36-.34-.56-.49-1.05-.78,.61-.66,1.04-1.34,1.62-2.5l1.27,.7c.1,.05,.17,.12,.17,.22,0,.15-.14,.2-.29,.2Zm-.29,7.38c-.32,.7-.77,1.44-1.22,2.06-.32-.24-.61-.42-1.1-.61,.24-.32,.8-1.09,1.38-2.5l1.17,.58c.08,.05,.25,.14,.25,.29,0,.22-.32,.2-.48,.19Z"/><path class="cls-1" d="M92.51,26.19h-2.43c-1.56,0-2.07-.61-2.07-1.9v-3.64h-2.5c.24,.05,.51,.17,.51,.34,0,.2-.24,.22-.49,.24-.36,1.09-1.17,3.69-5.01,5.46-.29-.42-.78-.9-1.19-1.19,1.65-.51,4.23-1.79,4.84-4.84h-2.57V11.62h10.9v9.03h-3.04v3.33c0,.76,.2,.87,1.04,.87h1.99c.41,0,.87,0,1.17-2.21,.49,.41,.73,.54,1.31,.68-.56,2.72-1.24,2.87-2.45,2.87Zm-1.46-13.31h-7.96v1.38h7.96v-1.38Zm0,2.5h-7.96v1.36h7.96v-1.36Zm0,2.52h-7.96v1.5h7.96v-1.5Z"/><path class="cls-1" d="M105.65,22.4h2.94v1.31h-2.94v2.94h-1.41v-2.94h-2.89v-1.31h2.89v-5.58c-.71,1.48-2.74,5.24-6.17,7.99-.22-.27-.42-.53-1.24-1,3.23-2.19,5.8-5.86,6.82-8.04h-6.48v-1.22h7.07v-3.52l1.38,.1c.25,.02,.44,.1,.44,.24,0,.1-.17,.19-.41,.29v2.89h7.12v1.22h-6.51c1.5,3.08,4.44,6.32,6.76,7.82-.58,.39-.82,.61-1.16,1.1-1.75-1.36-4.27-3.79-6.22-7.77v5.47Z"/><path class="cls-1" d="M122.78,14.51l.73,.12c.14,.02,.42,.08,.42,.24,0,.19-.24,.24-.42,.29v1.6h5.3v6.17c0,1.9-.34,2.41-3.13,2.4-.12-.73-.31-1.12-.51-1.5,.2,.02,.59,.08,1.17,.08,.87,0,1.02-.19,1.02-1.16v-4.67h-3.86v8.58h-1.45v-8.58h-3.84v7.21h-1.45v-8.53h5.29v-2.24h-7.07v-1.31h7.07v-2.07l1.46,.07c.2,.02,.41,.1,.41,.24,0,.19-.25,.24-.42,.27v1.5h7.07v1.31h-7.8Z"/><path class="cls-1" d="M140.79,25.68c-3.91,0-6.32-.8-6.32-3.09,0-1.02,.61-2.24,2.62-3.93l1.07,.88c-.34,.27-2.21,1.75-2.21,2.96,0,.65,.37,.93,.58,1.05,1.21,.7,3.55,.71,4.1,.71,3.52,0,5.56-.56,6.34-.78,.15,.71,.25,1.14,.37,1.53-2.65,.65-6.36,.66-6.54,.66Zm-.39-8.55c-.12-.14-.65-.63-.97-.95,1.84-1.5,2.18-1.75,2.82-2.23-.7,.07-1.92,.19-4.13,.19-1.36,0-1.89-.03-2.55-.07l-.12-1.58c1.16,.22,2.82,.25,4.03,.25,.49,0,2.87,0,4.86-.34l.8,1.31c-1.38,.68-3.69,2.4-4.74,3.42Zm6.58-2.57c-.49-.66-1.02-1.26-1.65-1.84l.76-.68c.37,.34,1.12,1.09,1.63,1.78-.37,.29-.48,.37-.75,.73Zm1.19-1.28c-.56-.82-.92-1.24-1.58-1.85l.73-.65c.61,.53,1.24,1.24,1.67,1.77-.44,.29-.65,.51-.82,.73Z"/><path class="cls-1" d="M159.18,26.66h-1.34v-6.12c-2.11,2.99-4.49,4.73-6.24,5.69-.15-.2-.53-.66-1.19-1.05,2.6-1.24,5.03-3.25,6.58-5.3h-6.27v-1.21h7.12v-4.11h-6.36v-1.26h6.36v-2.19l1.38,.12c.1,.02,.37,.03,.37,.22,0,.15-.22,.24-.41,.29v1.56h6.34v1.26h-6.34v4.11h7.07v1.21h-6.32c1.31,1.87,3.94,3.98,6.34,5.12-.44,.34-.66,.59-.99,1.09-1.72-.88-4.45-2.84-6.1-5.41v5.98Zm-4.71-11.9c.61,.8,1.36,2.35,1.68,3.14-.44,.19-.76,.36-1.26,.66-.17-.44-.77-1.96-1.63-3.18l1.21-.63Zm9.25,.54c.08,.03,.24,.1,.24,.22,0,.19-.24,.22-.44,.24-.34,.93-1.16,2.41-1.43,2.8-.41-.29-.95-.54-1.21-.66,.54-.9,1.24-2.24,1.53-3.21l1.31,.61Z"/><path class="cls-1" d="M174.28,21.15c-.8,.32-2.96,1.22-4.83,1.87-.02,.17-.03,.44-.27,.44-.1,0-.19-.08-.27-.37l-.36-1.29c.8-.19,1.9-.53,2.33-.66v-4.9h-2.19v-1.29h2.19v-3.82l1.39,.1c.17,.02,.36,.03,.36,.2s-.19,.22-.37,.31v3.21h2.16v1.29h-2.16v4.44c.31-.1,1.39-.51,2.16-.87-.14,.44-.17,.95-.14,1.34Zm3.14-1.94c-.22,.39-.41,.66-.63,1.04h6.85c-.03,1.48-.24,4.84-1.11,5.83-.24,.27-.71,.63-2.5,.53-.03-.34-.09-.71-.48-1.46,.51,.1,1.07,.14,1.28,.14,.41,0,.82,0,1.05-1.05,.32-1.48,.36-2.33,.39-2.84h-1.07c-1.39,3.01-3.38,4.71-4.1,5.34-.17-.17-.37-.37-1.07-.73,1.07-.75,2.53-2.06,3.93-4.61h-1.29c-.7,1.16-2.12,3.13-4.83,4.74-.29-.39-.53-.6-.97-.83,2.48-1.24,3.91-3.09,4.45-3.91h-1.39c-.61,.75-1.45,1.51-2.4,2.24-.32-.34-.61-.58-1.02-.76,.83-.56,2.28-1.55,3.62-3.66h-2.19v-1.09h10.2v1.09h-6.73Zm-2.06-1.94v-5.71h7.22v5.71h-7.22Zm5.95-4.64h-4.62v1.24h4.62v-1.24Zm0,2.26h-4.62v1.33h4.62v-1.33Z"/><path class="cls-1" d="M199.35,23.55c-1.36,1.43-3.25,2.04-4.06,2.31-.49-.8-.73-1.05-.97-1.31,5.07-1.07,5.59-4.61,5.59-5.98,0-2.82-2.11-5.05-5.17-5-.22,2.5-.65,5.01-1.85,7.84-.93,2.21-1.75,3.11-2.69,3.11-1.26,0-3.2-1.97-3.2-4.76,0-3.54,3.14-7.53,7.72-7.53,3.64,0,6.65,2.43,6.65,6.31,0,1.75-.65,3.57-2.02,5.01Zm-10.95-3.88c0,1.84,1,3.18,1.73,3.18s1.34-1.62,1.75-2.69c1.19-3.21,1.29-5.51,1.33-6.37-2.87,.63-4.81,3.48-4.81,5.88Z"/><path class="cls-1" d="M211.62,17.5c-.53,.1-2.79,.59-3.25,.68-1.41,.27-1.6,.31-3.38,.61-.05,.2-.12,.41-.32,.41-.14,0-.2-.14-.27-.37l-.32-1.26c.39-.03,.8-.08,2.16-.29v-6.27l1.46,.1c.22,.02,.36,.1,.36,.22,0,.14-.12,.19-.41,.27v1.87h4.2v1.22h-4.2v2.35c1.9-.32,3.65-.71,4.2-.83-.14,.41-.2,.85-.22,1.29Zm4.71,9.13v-.88h-8.58v.88h-1.44v-6.97h3.77c.07-.17,.44-.95,.7-1.9l1.45,.24c.19,.03,.32,.1,.32,.22,0,.19-.34,.24-.46,.24-.08,.19-.44,1.04-.53,1.21h6.22v6.97h-1.45Zm0-5.85h-8.58v1.36h8.58v-1.36Zm0,2.4h-8.58v1.46h8.58v-1.46Zm1.14-4.64h-3.01c-1.43,0-1.77-.58-1.77-1.77v-5.81l1.51,.12c.07,0,.32,.03,.32,.2,0,.15-.19,.2-.48,.29v2.4c.53-.17,2.69-.95,4.3-1.94l.93,.99c.07,.07,.12,.19,.12,.27,0,.15-.08,.19-.2,.19-.07,0-.19-.05-.42-.15-1.36,.7-3.4,1.51-4.73,1.9v1.09c0,.71,.12,.95,.99,.95h2.48c.46,0,.82-.15,1.14-1.68,.24,.17,.54,.39,1.22,.58-.58,2.38-1.36,2.38-2.41,2.38Z"/><path class="cls-1" d="M225.63,26.63h-1.21v-8.16c-.51,1.89-1.16,3.26-1.73,4.25-.34-.42-.58-.63-1.02-.9,1.48-2.04,2.35-4.57,2.72-6.24h-2.29v-1.16h2.28v-3.37l1.28,.1c.08,0,.39,.07,.39,.22s-.08,.17-.41,.29v2.75h1.82v1.16h-1.82v.77c.41,.87,1.33,2.5,2.24,3.48-.49,.39-.78,.88-.92,1.1-.46-.83-.82-1.63-1.33-2.94v8.63Zm7.53-11.35h3.28v1.07h-3.28v1.26h4.61v1.12h-4.61v1.31c.37,.59,.78,1.09,1.09,1.41,1.11-1.09,1.73-1.83,2.09-2.48l.97,.7c.19,.14,.2,.24,.2,.29,0,.19-.27,.17-.48,.17-.66,.87-1.72,1.8-2.04,2.09,.94,.88,1.9,1.58,3.03,2.07-.53,.53-.71,.94-.83,1.17-2.04-1.09-3.45-2.79-4.03-3.59v2.52c0,2.01-.51,2.31-2.67,2.33-.17-.61-.36-1.07-.66-1.46,.27,.05,.58,.08,1.1,.08,.83,0,.88-.17,.88-.76v-1.97c-1.44,.92-1.97,1.26-3.48,2.07,0,.17,.02,.48-.22,.48-.14,0-.22-.12-.32-.31l-.59-1.05c.99-.42,2.84-1.26,4.62-2.48v-2.58h-4.27v-1.12h4.27v-1.26h-3.25v-1.07h3.25v-1.12h-4.13v-1.09h2.65c-.39-.7-.82-1.22-1.19-1.68l1.14-.51c.58,.73,1,1.41,1.27,1.87l-.82,.32h2.5c.1-.15,.78-1.26,1.17-2.23l1.26,.44c.09,.03,.24,.14,.24,.24,0,.14-.19,.17-.44,.19-.15,.29-.36,.65-.83,1.36h2.84v1.09h-4.32v1.12Zm-3.74,3.71c.82,.88,1.24,1.5,1.55,1.97-.51,.37-.61,.44-.92,.73-.53-.8-1.36-1.68-1.65-1.99l1.02-.71Z"/><path class="cls-1" d="M254.77,24.33c-2.91-2.31-5.2-5.07-7.28-7.55-.77-.92-1-1.12-1.39-1.12-.51,0-.82,.36-1.55,1.33-2.4,3.2-2.62,3.47-3.76,4.62l-1.24-1.21c1.6-1.21,2.94-2.94,4.73-5.25,.71-.92,1.29-1.12,1.8-1.12,1.07,0,1.62,.68,2.67,1.99,1.78,2.21,4.64,5.27,7.05,6.95-.46,.56-.53,.66-1.04,1.36Z"/></g><polygon class="cls-1" points="144.58 36.5 154.58 36.5 149.58 41.5 144.58 36.5"/></g></g></svg>