<?xml version="1.0" encoding="UTF-8"?><svg id="_イヤー_2" xmlns="http://www.w3.org/2000/svg" width="310" height="50" xmlns:xlink="http://www.w3.org/1999/xlink" viewBox="0 0 310 50"><defs><style>.cls-1{fill:#fff;}.cls-2{fill:#00b4dc;}.cls-3{fill:url(#_称未設定グラデーション_2);}</style><linearGradient id="_称未設定グラデーション_2" x1="155" y1="931.36" x2="155" y2="981.36" gradientTransform="translate(0 981.36) scale(1 -1)" gradientUnits="userSpaceOnUse"><stop offset="0" stop-color="#000" stop-opacity=".15"/><stop offset=".15" stop-color="#000" stop-opacity=".08"/><stop offset="1" stop-color="#000" stop-opacity="0"/></linearGradient></defs><g id="_イヤー_3"><g><rect class="cls-2" width="310" height="50" rx="7.75" ry="7.75"/><path class="cls-3" d="M7.05,0H302.95c3.89,0,7.05,2.24,7.05,5V45c0,2.76-3.15,5-7.05,5H7.05c-3.89,0-7.05-2.24-7.05-5V5C0,2.24,3.15,0,7.05,0Z"/></g><g><polygon class="cls-1" points="154.57 36.5 164.57 36.5 159.57 41.5 154.57 36.5"/><g><path class="cls-1" d="M64.56,13.78l.95,.14c.1,.02,.37,.07,.37,.24,0,.22-.36,.25-.54,.29-.31,.65-.75,1.36-.88,1.6h3.81v8.35c0,2.23-.92,2.24-2.67,2.28-.08-.63-.22-.99-.54-1.5,.32,.05,.77,.1,1.09,.1,.73,0,.75-.32,.75-.8v-7.21h-3.64v1.38c0,.53,.19,.54,.59,.54h.92c.32,0,.63,.02,.75-1.12,.39,.29,.82,.51,1.21,.61-.36,1.51-.97,1.68-1.77,1.68h-1.53c-.88,0-1.48-.15-1.48-1.34v-1.75h-2.55l.83,.26c.24,.07,.32,.12,.32,.22,0,.19-.22,.22-.37,.24-.24,.92-1,2.5-2.97,3.6-.39-.49-.68-.7-1.12-.9,1.5-.66,2.72-1.79,2.94-3.42h-3.14v9.37h-1.39v-10.59h4.13c-.19-.39-.73-1.33-1.26-1.96l.99-.31h-4.64v-1.19h6.99v-1.51l1.44,.08c.17,.02,.39,.05,.39,.2s-.22,.26-.39,.31v.92h7.05v1.19h-4.62Zm-5.08,11.18v.63h-1.34v-4.45h6.51v3.82h-5.17Zm-.73-11.18c.42,.51,.9,1.31,1.24,1.96l-1,.31h3.89c.42-.63,.87-1.43,1.19-2.26h-5.32Zm4.57,8.45h-3.84v1.65h3.84v-1.65Z"/><path class="cls-1" d="M71.52,15.15v-1.09h5.71v1.09h-5.71Zm4.13,11.24v-.83h-2.31v1.12h-1.26v-5.71h4.79v5.42h-1.22Zm-3.33-13.55v-1.07h4.32v1.07h-4.32Zm0,4.59v-1.07h4.28v1.07h-4.28Zm0,2.33v-1.05h4.28v1.05h-4.28Zm3.33,2.33h-2.31v2.31h2.31v-2.31Zm10.54-2.97c-.99-.46-3.33-1.6-4.28-3.69-.36,.95-1.46,2.55-4.06,3.57-.36-.68-.66-.95-.83-1.11,3.72-1.21,4.03-3.18,4.03-5.58,0-.53-.02-.83-.05-1.31l1.51,.07c.19,0,.32,.03,.32,.19s-.12,.19-.46,.31c0,.7-.02,1.24-.08,1.96,.85,2.96,3.57,4.01,4.83,4.45-.19,.15-.54,.46-.92,1.14Zm-.07,7.51c-1.39-.73-3.13-2.07-4.13-4.13-.75,2.23-2.75,3.54-4.05,4.16-.22-.42-.49-.76-.93-1.16,4.1-1.75,4.08-3.86,4.03-7.31l1.43,.08c.08,0,.31,.02,.31,.19,0,.14-.14,.19-.39,.27,0,.25-.03,1.48-.03,1.63,0,.42,.54,1.6,.99,2.21,.76,1.05,2.24,2.19,3.65,2.86-.42,.39-.59,.66-.87,1.19Zm-6.22-6.61c-.32,1.65-.65,2.4-.83,2.8-.29-.15-.76-.34-1.29-.37,.53-1.05,.85-2.18,.99-3.18l1.33,.27c.19,.03,.29,.1,.29,.19,0,.25-.31,.27-.48,.29Zm.03-7.28c-.14,.77-.41,1.77-.77,2.63-.41-.2-.8-.32-1.24-.36,.56-1.22,.76-2.43,.85-3.06l1.31,.29c.14,.03,.29,.07,.29,.25,0,.17-.14,.19-.44,.24Zm6.17,.14c-.07,0-.19,0-.25-.03-.25,.48-.9,1.51-1.46,2.19-.36-.34-.56-.49-1.05-.78,.61-.66,1.04-1.34,1.61-2.5l1.28,.7c.1,.05,.17,.12,.17,.22,0,.15-.14,.2-.29,.2Zm-.29,7.38c-.32,.7-.76,1.44-1.22,2.06-.32-.24-.61-.42-1.1-.61,.24-.32,.8-1.09,1.38-2.5l1.17,.58c.09,.05,.26,.14,.26,.29,0,.22-.32,.2-.48,.19Z"/><path class="cls-1" d="M98.12,20.36l.82,5.73-1.46,.25-.85-5.8-6.48,.83-.19-1.39,6.46-.83-.48-3.18-4.74,.61-.15-1.39,4.71-.59-.44-3.04,1.5-.17c.1-.02,.36-.05,.36,.17,0,.14-.07,.19-.27,.34l.36,2.52,4.52-.58,.15,1.38-4.47,.58,.46,3.18,6.17-.78,.17,1.39-6.14,.78Z"/><path class="cls-1" d="M120.35,17.86c-.83,1.34-1.77,2.62-2.77,3.84-.51-.34-1.04-.54-1.21-.63,1.05-1.09,2.07-2.31,2.63-3.47l-4.47,.92,1.48,7.36-1.27,.29-1.48-7.38-3.94,.82-.34-1.24,4.05-.78-.68-3.35,1.31-.1c.15-.02,.34-.03,.34,.17,0,.1-.07,.19-.24,.31l.56,2.74,4.96-.97c.14-.03,.63-.12,.92-.42l.97,.78c-.24,.27-.58,.75-.82,1.12Z"/><path class="cls-1" d="M131.13,16.4c-2.38-2.11-4.15-2.92-4.83-3.25l.88-1.26c1.28,.65,3.01,1.6,4.86,3.21-.49,.59-.78,1.05-.92,1.29Zm-3.32,9.18c-.02,.29-.05,.39-.24,.39-.12,0-.22-.12-.27-.2l-.92-1.53c5.42-1.17,10.11-4.56,12.99-9.33,.34,.56,.58,.9,.93,1.33-3.81,6.15-9.72,8.36-12.49,9.35Z"/><path class="cls-1" d="M157.81,23.67c-1.04-.95-3.01-2.79-5.8-6.21-1.75-2.16-1.94-2.4-2.55-2.4-.53,0-.93,.44-1.82,1.46-.92,1.07-2.89,3.42-3.31,3.96,.02,.17,.02,.39-.2,.39-.08,0-.15-.07-.25-.17l-1.07-1.12c1.09-.8,1.94-1.77,3.06-3.11,1.99-2.36,2.58-2.92,3.64-2.92,1.12,0,1.72,.7,3.49,2.92,1.72,2.16,3.67,4.1,5.78,5.86-.27,.31-.68,.83-.95,1.33Zm-2.04-9.45c-.83,0-1.51-.68-1.51-1.53s.68-1.51,1.51-1.51,1.53,.66,1.53,1.51-.68,1.53-1.53,1.53Zm0-2.4c-.48,0-.87,.39-.87,.87,0,.51,.41,.88,.87,.88,.49,0,.88-.39,.88-.88,0-.46-.37-.87-.88-.87Z"/><path class="cls-1" d="M161.29,19.61v-1.5h14.47v1.5h-14.47Z"/><path class="cls-1" d="M184.68,16.4c-2.38-2.11-4.15-2.92-4.83-3.25l.88-1.26c1.27,.65,3.01,1.6,4.86,3.21-.49,.59-.78,1.05-.92,1.29Zm-3.31,9.18c-.02,.29-.05,.39-.24,.39-.12,0-.22-.12-.27-.2l-.92-1.53c5.42-1.17,10.11-4.56,12.99-9.33,.34,.56,.58,.9,.93,1.33-3.81,6.15-9.72,8.36-12.49,9.35Z"/><path class="cls-1" d="M199.95,25.52l-1.34,.41c-.41-1.14-1-2.92-1-6.15,0-2.98,.41-5,1.07-8.23l1.53,.58c.27,.1,.36,.17,.36,.25,0,.19-.2,.2-.39,.24-.78,2.41-1.16,4.93-1.16,7.46,0,1.31,.1,1.96,.2,2.62,.24-.76,.76-2.12,1.09-2.74,.22,.34,.41,.58,.83,.87-.34,.73-1.28,2.82-1.19,4.69Zm11.39-1.17c-1.14,.19-2.77,.25-3.94,.25-2.11,0-4.78-.2-4.78-2.4,0-1.05,.42-1.99,.7-2.53l1.33,.27c-.22,.37-.65,1.1-.65,1.92,0,1.09,1.24,1.36,3.3,1.36,1.61,0,2.92-.17,4.15-.48-.08,.61-.1,.97-.1,1.6Zm-6.38-9.32c-.78,0-1.29-.03-1.7-.05v-1.43c.44,.05,.92,.08,1.72,.08,1.27,0,3.45-.05,5.37-.54,.02,.14,.14,1.02,.19,1.46-2.41,.48-5.05,.48-5.58,.48Z"/><path class="cls-1" d="M219.14,24.79c-.19-.76-.27-1.04-.56-1.56,2.06-.02,9.25-.08,9.25-4.93,0-.7-.19-3.93-4.27-3.93-1.73,0-5.44,.9-8.62,2.52l-.75-1.92c.48-.07,1.1-.15,2.18-.44,4.96-1.38,5.51-1.51,7.39-1.51,3.96,0,5.61,2.62,5.61,5.25,0,4.15-4.15,6.27-10.23,6.53Z"/><path class="cls-1" d="M236.43,25.59c-1.56,0-3.5-2.82-3.5-7.48,0-1.97,.34-3.89,.7-5.73l1.56,.48c.22,.07,.36,.1,.36,.27,0,.22-.24,.24-.37,.24-.78,2.23-.78,4.71-.78,5.08,0,2.97,1.19,5.32,2.07,5.32,.83,0,1.67-2.16,2.14-3.35,.42,.48,.61,.66,1.05,.95-.37,.95-1.68,4.21-3.23,4.21Zm9.4-2.91c-.12-2.19-.65-5.64-3.06-8.63l1.27-.78c2.41,3.25,3.14,6.46,3.37,8.75-.08,.03-1.41,.59-1.58,.66Z"/><path class="cls-1" d="M260.38,15.05c-.9,.61-3.6,2.65-3.6,5.49,0,2.18,1.65,3.93,5.27,4.3-.31,.59-.46,.99-.65,1.6-3.11-.63-6.12-2.33-6.12-5.88,0-2.23,1.31-4.61,4.64-6.59-.42,.02-7.8,.82-9.18,1.16l-.24-1.84c.32,.02,.54,.03,.87,.03,.99,0,8.8-.49,13.39-1.5l.34,1.68c-.73,0-2.43-.02-4.73,1.55Z"/></g></g></g></svg>