<svg id="レイヤー_1" data-name="レイヤー 1" xmlns="http://www.w3.org/2000/svg" viewBox="0 0 403.57 30"><defs><style>.cls-1{fill:#00b4dc;}</style></defs><title>アートボード 22</title><path class="cls-1" d="M33.92,21.5v3.12c0,2.47-1.82,2.54-6.05,2.47a8.46,8.46,0,0,0-1-3.31c.36,0,2.24.07,2.64.07.89,0,.89-.12.89-1.35v-1H21.18V18.59h9.21V17l1.13.12a10.88,10.88,0,0,0,1.22-1.29H25.66V13H37.21l1.39,1.73a24.85,24.85,0,0,1-4.32,3.86h8.55V21.5ZM30.63,9.16a15.56,15.56,0,0,0-2.37-3.29l3.09-1.34A16.19,16.19,0,0,1,33.8,8c-.33.19-1.92,1-2.23,1.15H34.9A22.37,22.37,0,0,0,37.35,5.1l3.39,1c.12,0,.41.16.41.4s-.39.36-.82.43A25.17,25.17,0,0,1,39,9.16h3.65v6.31H39.23V11.85H24.73v3.62H21.42V9.16h3.33a15.37,15.37,0,0,0-1.89-2.67l2.92-1.43a12.25,12.25,0,0,1,2.33,3.26c-1,.55-1.27.67-1.53.84Z"/><path class="cls-1" d="M54.49,9.3V4.91l3.6.1c.36,0,.55.07.55.33a.56.56,0,0,1-.17.34l-.21.24V9.3H66v3.22H58.26v3.36H63.8v3.19H58.26v4.25H67v3.14h-22V23.32h9.43V19.07H49V15.88h5.45V12.52H49.62a21.81,21.81,0,0,1-2.4,3.62,10.9,10.9,0,0,0-3.15-1.68A21.93,21.93,0,0,0,48.7,5.29l3.34,1c.26.07.53.19.53.45s-.36.37-.53.37c-.29.79-.84,2.11-.89,2.2Z"/><path class="cls-1" d="M74,26.51a19.42,19.42,0,0,0-4.87-4.13l2.33-2.56a30.58,30.58,0,0,1,5.25,4Z"/><path class="cls-1" d="M103.09,5.51c.31,0,.5.1.5.31s-.26.34-.4.39c-.08.72-.12,1.56-.17,2.54a17.4,17.4,0,0,0,3.76-1.2c0,.89,0,2,0,2.55a12.26,12.26,0,0,0,0,1.29,17.53,17.53,0,0,1-3.93,1.08c0,.27,0,1.42,0,1.63a12.23,12.23,0,0,1,4.08-.72,6.37,6.37,0,0,1,6.65,6.51,5.56,5.56,0,0,1-5.69,6c-3.62,0-3.74-3.21-3.77-4.22.51-.17,2.67-.89,3-1,0,.48,0,1.61,1.13,1.61.91,0,1.51-.91,1.51-2.11A3,3,0,0,0,106.5,17a11.13,11.13,0,0,0-3.72.84,70.12,70.12,0,0,0,.31,7.22L99.8,26.51a32.22,32.22,0,0,0-4.2-3.43c-.6.65-.89,1-1.22,1.39l-1.73-4.13c1.1-.6,5.47-3.91,6.43-4.51,0-.84,0-1,0-2.88-1.42.07-3.1.1-4.47.1V9.23a10.24,10.24,0,0,0,1.9.15c.93,0,2.28-.1,2.57-.1,0-1.8,0-2.06-.1-4.47ZM97.71,21a2.58,2.58,0,0,0,1.08.63c.36,0,.34-.84.31-1.76C98.82,20.1,98.31,20.46,97.71,21ZM110.24,8.22a20.46,20.46,0,0,1,5.23,3.84A16.72,16.72,0,0,0,113.15,15a13.94,13.94,0,0,0-5.09-3.77Z"/><path class="cls-1" d="M139.09,13.86v3.27H130v6.62c0,1.54-.15,3.36-5.84,3.22A7.36,7.36,0,0,0,123,23.32c.77.05,1.23.1,1.68.1,1.63,0,1.63-.2,1.63-1.56V17.13h-9.43V13.86h9.43V10.31l1.85.19a8.69,8.69,0,0,0,2-1.73H119.31V5.58H135l1.73,1.78A26.31,26.31,0,0,1,130,13.53v.33Z"/><path class="cls-1" d="M147.78,22.24A25.39,25.39,0,0,0,154,19V16.26H151.5a20.43,20.43,0,0,1,1.85,2.4,16.3,16.3,0,0,0-2.21,1.71A33.67,33.67,0,0,0,149,17.63l1.87-1.37h-2a6.62,6.62,0,0,0,.51.58,5.48,5.48,0,0,0-1.47,2.57c-.45-.6-.72-1-1.08-1.54V27H143.6V19.26a14.76,14.76,0,0,1-1.2,2.45,8.79,8.79,0,0,0-2.26-2.18A21.19,21.19,0,0,0,143.22,12h-2.4V9.06h2.61v-4l3.31.16c.27,0,.56.1.56.36s-.34.36-.56.41V9.06h1.76V12h-1.76v.77a13.23,13.23,0,0,0,1.88,3.36V13.67H154v-.89h-4.05V10.53H154V9.64h-5.16V7.22h2.36a10,10,0,0,0-1.06-1.54l2.81-1.32a23.31,23.31,0,0,1,1.56,2.45l-.8.41h2.65a18,18,0,0,0,1.17-2.67l3.07.91c.29.1.48.19.48.36s-.31.34-.72.34c-.16.31-.19.38-.57,1.06h2.78V9.64h-5.21v.89h4v2.25h-4v.89h5.72v2.59h-1.78l1.7,1.4a.46.46,0,0,1,.24.36c0,.36-.4.31-.67.31a13.44,13.44,0,0,1-2.45,2.61,11.76,11.76,0,0,0,3.6,2.07,6.36,6.36,0,0,0-1.82,2.49,15.66,15.66,0,0,1-4.54-3.74v1.87c0,2.64-.84,3.41-4.61,3.55a8.25,8.25,0,0,0-1.32-3.36,9.63,9.63,0,0,0,1.52.12c1,0,1.05-.26,1.05-.86v-.89c-.48.29-2.06,1.25-4.32,2.4,0,.15.07.77-.26.77s-.43-.31-.58-.65Zm9.57-4.61a8.35,8.35,0,0,0,1,1.49,15.49,15.49,0,0,0,2.21-2.86h-3.2Z"/><path class="cls-1" d="M176.31,22.82c5.21-1,6.75-5,6.75-7.49a5.68,5.68,0,0,0-5.55-5.88c-.74,8.78-4.36,15.33-6.91,15.33-1.87,0-5.35-3.16-5.35-7.6A11.78,11.78,0,0,1,177,6c5.26,0,9.84,3.58,9.84,9.31A11.21,11.21,0,0,1,184,22.72a13.4,13.4,0,0,1-5.21,3.48A15.37,15.37,0,0,0,176.31,22.82Zm-7.51-5.93c0,1.85,1,3.24,1.54,3.24s1-1.08,1.29-1.71a20.9,20.9,0,0,0,1.85-8.25C170.7,11.2,168.8,14.73,168.8,16.89Z"/><path class="cls-1" d="M196.76,17.82c-.67.58-1.87,1.83-1.87,2.62,0,1.73,3.29,1.73,4.3,1.73a33.71,33.71,0,0,0,9.62-1.44,18,18,0,0,0,.62,4.08,36.36,36.36,0,0,1-9.38,1.1c-3.75,0-5.23-.41-6.41-.89-.77-.31-3-1.44-3-3.86s2.5-4.73,3.48-5.62Zm10.08-7.89a16.67,16.67,0,0,0-6.05,3.91c-.86-.74-1.77-1.51-2.52-2.06.89-.82,1.11-1,1.8-1.56-1.49.12-5.52.33-7.56.28l-.19-4a48.3,48.3,0,0,0,6,.32A47.29,47.29,0,0,0,205,6.26Zm1.06-3.75a17.25,17.25,0,0,1,2.18,2.52,9.65,9.65,0,0,0-1.41,1.73,27.32,27.32,0,0,0-2.31-2.66Zm1.85-2A26.76,26.76,0,0,1,212,6.49a9.56,9.56,0,0,0-1.53,1.64,21.26,21.26,0,0,0-2.09-2.36Z"/><path class="cls-1" d="M223.35,10.29c0-.82,0-1,0-1.59h-5.26V5.18h9.17c0,.62-.17,3.38-.17,3.93a17.58,17.58,0,0,0,8.81,15.41,9.51,9.51,0,0,0-3.15,2.62c-3-2.07-7.32-6.58-8.68-12.1-.8,2.69-2.67,7.66-9.08,12.12A10.21,10.21,0,0,0,212,24.47c7.37-4.73,8.64-9.81,9.29-14.57Z"/><path class="cls-1" d="M247.28,20.25a16.5,16.5,0,0,1-2.83,2.9,6.18,6.18,0,0,0-2.26-1.61c.43-.33.79-.6,1.35-1.08-1.49.65-3.32,1.35-5.26,2,0,.28-.1.62-.36.62s-.34-.31-.38-.55l-.82-3.39a17.74,17.74,0,0,0,2.71-.5V13.19H237V10.07h2.47v-5l3.55.19c.29,0,.51.05.51.26s-.15.29-.51.46v4.08h2.14v3.12H243v4.37c.58-.24.94-.38,1.52-.65h-.17V14.49h14.54v2.42h-9.29l-.45.77h9.58c0,2.42-.08,7.22-1.64,8.45-.91.72-2.44.79-4,.79a7,7,0,0,0-.64-2.59,19,19,0,0,1-2.86,3,6.09,6.09,0,0,0-2.54-1.54,16.76,16.76,0,0,0,5.06-5.54h-1.08a16.84,16.84,0,0,1-6.31,6.36,6.18,6.18,0,0,0-2.12-1.92,14.73,14.73,0,0,0,5.6-4.44Zm-2.18-3.34a9.74,9.74,0,0,0-.17,2.14,15.17,15.17,0,0,0,1.46-2.14Zm12.09-3.21H246V5.25h11.2ZM254,8.56V7.74h-4.72v.82Zm-4.72,1.92v.82H254v-.82Zm5.66,9.77a26.2,26.2,0,0,1-1.9,3.33,8,8,0,0,0,.84.05c.48,0,.92-.05,1.08-.6a11.81,11.81,0,0,0,.44-2.78Z"/><path class="cls-1" d="M267.2,6.81c.19.07.31.16.31.33s-.45.34-.67.36a33.17,33.17,0,0,0-1.44,9.24,17.14,17.14,0,0,0,.17,2.4c.31-.45.81-1.22,1.13-1.7a10.26,10.26,0,0,0,1.72,2.38,10.65,10.65,0,0,0-2,5.88l-3.21.6a33.73,33.73,0,0,1-1.3-9.68,43.07,43.07,0,0,1,1.44-11Zm11.4-.53c.12,0,.31,0,.31.26s-.33.36-.55.39a26.32,26.32,0,0,0-.24,2.88,21.76,21.76,0,0,0,3.55-.89v3.62c-.55.15-1.65.41-3.64.77a39.45,39.45,0,0,0,.38,5.52A13.57,13.57,0,0,1,283,21.3c-.38.7-1.1,2.26-1.63,3.39a8.54,8.54,0,0,0-2.57-1.83c-.1,3.08-3.17,3.44-4.68,3.44-3.6,0-5.4-2-5.4-4.2,0-2.86,2.83-3.94,5.95-3.87-.19-2.73-.21-3.05-.26-4.44-1.37.12-2.35.12-2.76.12a17.25,17.25,0,0,1-1.78-.07V10.07a24.56,24.56,0,0,0,4.51.17c0-1,0-3.12,0-4.68Zm-5,14.88c-.52,0-1.68.17-1.68.91s.79.89,1.56.89c.19,0,1.64,0,1.64-1.18a.63.63,0,0,0,0-.31A3.43,3.43,0,0,0,273.63,21.16Z"/><path class="cls-1" d="M306.51,9.35c-5.92-.09-11.06,5.23-11.06,9.12,0,2.79,3.53,4.15,6.79,4.23a31.82,31.82,0,0,0-1.8,4.36c-1.94-.52-8.83-2.44-8.83-8.18A10.92,10.92,0,0,1,296,10.62a65.71,65.71,0,0,0-9.94,1.52l-.55-4.52a78.07,78.07,0,0,0,10.68-.55,57.12,57.12,0,0,0,9.62-1.75Zm-4,3.41a14.53,14.53,0,0,1,2.23,2.57c-.67.48-1,.74-1.85,1.44a19.49,19.49,0,0,0-2.13-2.71Zm2.52-1.7a15.11,15.11,0,0,1,2.14,2.52c-.6.45-1,.81-1.76,1.48a17.48,17.48,0,0,0-2.13-2.71Z"/><path class="cls-1" d="M321,5a14,14,0,0,0,.41,2.59,17.26,17.26,0,0,0,4.17-1.78,30.77,30.77,0,0,0,1.32,2.93,17.58,17.58,0,0,1-4.46,2c.31.74.36.82.45,1A20.38,20.38,0,0,0,328,9.14c.26.52,1.6,2.66,1.87,3.09a21.64,21.64,0,0,1-5.26,2.67,23.22,23.22,0,0,0,3.63,4.58L326,21.86a13,13,0,0,0-6.84-2c-1,0-3.14.34-3.14,1.73,0,1.15,1.29,2,4.18,2a17.35,17.35,0,0,0,6.28-1,11,11,0,0,0-.26,2.57,5.23,5.23,0,0,0,.07,1,20.31,20.31,0,0,1-6,.77c-6.17,0-8.16-3-8.16-5.26,0-2.56,2.35-4.56,6.38-4.56a25.15,25.15,0,0,1,3.34.27,11.59,11.59,0,0,1-.84-1.44,43.23,43.23,0,0,1-8,.84,15.13,15.13,0,0,1-1.54-.07l-.4-3.56c1.46.08,2.4.1,2.92.1a29.12,29.12,0,0,0,5.52-.55c-.11-.27-.19-.48-.45-1.06a45.42,45.42,0,0,1-6,.58l-.77-3.36a29.64,29.64,0,0,0,5.5-.39c-.55-1.44-.72-2-1-2.81Z"/><path class="cls-1" d="M346.4,5.7c.22,0,.43.07.43.31s-.26.32-.43.34c-.09.94-.09,1.15-.12,1.42,1.11,0,4.83-.08,6.63.14v3.58a57.56,57.56,0,0,0-6.75-.22v2.64a31.5,31.5,0,0,0,6.1-1.13v3.58a46.47,46.47,0,0,1-6,.79c0,1,0,1.13.05,2.14a23.64,23.64,0,0,1,8,3.17,36.25,36.25,0,0,0-2.66,3,19.38,19.38,0,0,0-5.14-3c.05,1.25.22,4.08-5,4.08-3.72,0-6.43-1.7-6.43-3.89,0-2.73,3.43-3.91,7.44-3.84,0-.55,0-.55,0-1.41-2.37.05-6.72.12-6.72-2.26,0-.84.44-1.61,1.68-2.9l2.64.6c-.43.57-.5.65-.5.81s0,.68,2.81.56c0-.44,0-2.38,0-2.76-2.95.12-5.54.45-7.53.72V8.34c1.17-.12,6.43-.36,7.51-.43,0-.91,0-1.85-.09-2.95Zm-5,15.84c-.12,0-2.42,0-2.42,1,0,.79,1.32.86,1.73.86,1.17,0,1.89-.43,1.75-1.75A5.1,5.1,0,0,0,341.43,21.54Z"/><path class="cls-1" d="M374.05,5.77c.34.05.55.08.55.34s-.29.34-.48.38c0,.12.07,3.53.1,3.87,3-.43,3.77-.51,4.61-.58v4c-.39,0-.8-.07-1.4-.07a30.75,30.75,0,0,0-3.19.22c0,6.43-1.05,6.67-5.59,6.67a21.4,21.4,0,0,0-.94-3.55,7.72,7.72,0,0,0,1.35.12c1.34,0,1.44-.34,1.58-2.74-.77.12-4.13.7-4.82.82,0,.74-.05,1.46-.05,2.18,0,3.82.19,4.06.65,4.49s1.24.67,2.9.67a35.78,35.78,0,0,0,8.07-1,18.55,18.55,0,0,0-.46,3.91,65.35,65.35,0,0,1-8.28.65c-1.39,0-5.14,0-6-3.31-.36-1.37-.33-3.27-.28-6.82-2.88.72-3.72.94-4.66,1.2l-.29-4.2a28.51,28.51,0,0,0,4.83-.65,50.69,50.69,0,0,0-.32-5.52l4.16.46c.36,0,.64.07.64.38s-.26.34-.43.36c0,.6-.21,3.15-.26,3.68.72-.12,3-.48,4.54-.75A29.75,29.75,0,0,0,370,5.22Z"/><path class="cls-1" d="M393.75,6.4c.22.09.39.21.39.43s-.36.29-.58.24c-.89,1.56-2,3.74-3.29,6.27a10.2,10.2,0,0,1-.53.91,9.61,9.61,0,0,1,2.24-.31c1.49,0,3.5.57,3.5,3.07a10.68,10.68,0,0,1-.21,2,10.87,10.87,0,0,0-.29,2.36c0,.62.17,1.2.91,1.2s3.46-1.52,5.16-3.94a26.4,26.4,0,0,0,2.52,3.05,18,18,0,0,1-4.08,3.48,9.48,9.48,0,0,1-4.59,1.41c-2.23,0-3.83-1.27-3.83-3.64,0-.72.4-3.89.4-4.54,0-.86-.48-1.15-1-1.15-2.59,0-5.47,7.41-5.86,8.85l-3.91-1.63c1.54-2.57,5-9.77,5.76-11.35,1.51-3.27,2.47-5.64,3.6-8.55Z"/><rect class="cls-1" width="10" height="30"/></svg>