<svg xmlns="http://www.w3.org/2000/svg" width="59.4" height="30.5" viewBox="0 0 59.4 30.5">
  <title>CTA logo</title>
    <path d="M0,3.8A3.622,3.622,0,0,1,3.8,0a4.228,4.228,0,0,1,2,.5V1.9a2.792,2.792,0,0,0-2-.8A2.472,2.472,0,0,0,1.3,3.8,2.528,2.528,0,0,0,3.8,6.5a2.782,2.782,0,0,0,2.1-.8V7.1a3.845,3.845,0,0,1-2.1.5A3.622,3.622,0,0,1,0,3.8Zm12.5.9A2.783,2.783,0,0,1,9.6,7.6,2.759,2.759,0,0,1,6.8,4.7,2.759,2.759,0,0,1,9.6,1.8,2.783,2.783,0,0,1,12.5,4.7Zm-1.2,0a1.611,1.611,0,1,0-3.2,0,1.611,1.611,0,1,0,3.2,0Zm7.1,2.8V4c0-1.6-.9-2.1-2.3-2.1a6.963,6.963,0,0,0-2.5.5V7.6h1.2V3.2A4.3,4.3,0,0,1,16,3c.7,0,1.2.3,1.2,1.1V7.5Zm3.1-3.3c-.6-.2-.9-.4-.9-.7,0-.4.3-.6.8-.6a2.035,2.035,0,0,1,1.5.6V2.4A2.934,2.934,0,0,0,21.3,2c-1.1,0-2,.5-2,1.7,0,1,.5,1.4,1.6,1.7.7.2,1,.3,1,.8,0,.4-.4.6-.9.6a2.716,2.716,0,0,1-1.7-.6V7.4a3.064,3.064,0,0,0,1.7.4c1.2,0,2.1-.5,2.1-1.7C23.3,4.9,22.7,4.4,21.5,4.2Zm6.3,2.3c-.3,0-.7.1-.9.1-.8,0-1.3-.3-1.3-1.1V2H24.4V5.6c0,1.5,1,2.1,2.6,2.1a14.919,14.919,0,0,0,2.1-.2V2.1H27.9V6.5Zm9.3-2.6V7.4h1.2V3.8a1.855,1.855,0,0,0-2.1-2.1,5.33,5.33,0,0,0-1.9.4,2.076,2.076,0,0,0-1.5-.4,6.874,6.874,0,0,0-2.4.5V7.4h1.2V3a3.6,3.6,0,0,1,1.1-.2.9.9,0,0,1,1,1V7.3h1.2V3.7c0-.3-.1-.5-.1-.7A4.3,4.3,0,0,1,36,2.8C36.7,2.9,37.1,3.2,37.1,3.9Zm2.3.9a2.63,2.63,0,0,1,2.7-2.9,2.237,2.237,0,0,1,2.4,2.5V5H40.7a1.669,1.669,0,0,0,1.8,1.5A3.83,3.83,0,0,0,44.4,6V7.1a3.83,3.83,0,0,1-1.9.5C40.6,7.6,39.4,6.5,39.4,4.8Zm1.2-.6h2.6c0-.9-.4-1.3-1.2-1.3A1.482,1.482,0,0,0,40.6,4.2Zm6.2-1a2,2,0,0,1,.9-.2,2.344,2.344,0,0,1,1.1.2V2a4.1,4.1,0,0,0-1.1-.1,5.091,5.091,0,0,0-2.2.5V7.5h1.2V3.2ZM6,11.5H.1v1.1H2.4v6.3H3.7V12.6H6Zm4.8,4.3v.6H7a1.669,1.669,0,0,0,1.8,1.5,3.83,3.83,0,0,0,1.9-.5v1.1a3.83,3.83,0,0,1-1.9.5,2.7,2.7,0,0,1-2.9-2.8,2.63,2.63,0,0,1,2.7-2.9C10.1,13.3,10.8,14.3,10.8,15.8Zm-1.1-.2c0-.9-.4-1.3-1.2-1.3a1.482,1.482,0,0,0-1.4,1.3Zm3.3.6a1.679,1.679,0,0,1,1.8-1.8,2.26,2.26,0,0,1,1.5.5V13.7a2.934,2.934,0,0,0-1.6-.4,2.782,2.782,0,0,0-2.9,2.9,2.729,2.729,0,0,0,2.9,2.9,2.934,2.934,0,0,0,1.6-.4V17.5a2.456,2.456,0,0,1-1.5.5A1.793,1.793,0,0,1,13,16.2Zm7.2-2.9a2.649,2.649,0,0,0-1.4.3V10.5H17.6V19h1.2V14.7a4.3,4.3,0,0,1,1.2-.2c.7,0,1.2.3,1.2,1.1V19h1.2V15.4A1.962,1.962,0,0,0,20.2,13.3Zm6,0a6.963,6.963,0,0,0-2.5.5V19h1.2V14.6a4.3,4.3,0,0,1,1.2-.2c.7,0,1.2.3,1.2,1.1v3.4h1.2V15.3C28.5,13.8,27.6,13.3,26.2,13.3Zm9.1,2.9a2.85,2.85,0,1,1-5.7,0,2.759,2.759,0,0,1,2.8-2.9A2.729,2.729,0,0,1,35.3,16.2Zm-1.2,0a1.611,1.611,0,1,0-3.2,0,1.611,1.611,0,1,0,3.2,0Zm10.8,0a2.85,2.85,0,1,1-5.7,0A2.759,2.759,0,0,1,42,13.3,2.729,2.729,0,0,1,44.9,16.2Zm-1.2,0a1.611,1.611,0,1,0-3.2,0,1.611,1.611,0,1,0,3.2,0Zm5.2-2.9a6.537,6.537,0,0,1,2.1.4v5.2c0,1.8-1.4,2.4-2.7,2.4a3.425,3.425,0,0,1-1.8-.4V19.8a4.075,4.075,0,0,0,1.8.5,1.338,1.338,0,0,0,1.5-1.4v-.2a2.937,2.937,0,0,1-4-2.6C45.7,14.3,46.9,13.3,48.9,13.3Zm.8,1.2a2.22,2.22,0,0,0-.9-.1,1.664,1.664,0,0,0-1.9,1.8A1.68,1.68,0,0,0,48.7,18a2.959,2.959,0,0,0,1-.2V14.5Zm6.4-1.1-1.5,4.3L53,13.4H51.7L54,19.2l-.8,2h1.2l3-7.8ZM37.7,17.3V10.4H36.5v7A1.424,1.424,0,0,0,38.1,19a1.268,1.268,0,0,0,.6-.1V17.8c-.1,0-.3.1-.4.1C37.9,17.9,37.7,17.8,37.7,17.3Z" style="fill: #00a0db"/>
    <path d="M2.9,22.9,0,30.3H1.4L2,28.6H5.3l.6,1.7H7.3L4.4,22.9Zm-.5,4.6,1.3-3.4L5,27.5Zm9.4,1.2c0,1.2-.9,1.7-2.1,1.7A4.256,4.256,0,0,1,8,30V28.8a2.715,2.715,0,0,0,1.7.6c.5,0,.9-.2.9-.6s-.3-.6-1-.8C8.5,27.7,8,27.3,8,26.3c0-1.1.8-1.7,2-1.7a2.934,2.934,0,0,1,1.6.4v1.1a3.168,3.168,0,0,0-1.5-.6c-.5,0-.8.3-.8.6s.2.5.9.7C11.2,27.2,11.8,27.7,11.8,28.7Zm4.7,0c0,1.2-.9,1.7-2.1,1.7a4.256,4.256,0,0,1-1.7-.4V28.8a2.715,2.715,0,0,0,1.7.6c.5,0,.9-.2.9-.6s-.3-.6-1-.8c-1.1-.3-1.6-.7-1.6-1.7,0-1.1.8-1.7,2-1.7a2.934,2.934,0,0,1,1.6.4v1.1a3.168,3.168,0,0,0-1.5-.6c-.5,0-.8.3-.8.6,0,.4.2.5.9.7C16,27.2,16.5,27.7,16.5,28.7Zm3.6-4.1a2.759,2.759,0,0,0-2.8,2.9,2.85,2.85,0,1,0,2.8-2.9Zm0,4.7a1.636,1.636,0,0,1-1.6-1.8,1.611,1.611,0,1,1,3.2,0A1.583,1.583,0,0,1,20.1,29.3Zm6.7,0a2.976,2.976,0,0,0,1.5-.5V30a2.934,2.934,0,0,1-1.6.4,2.729,2.729,0,0,1-2.9-2.9,2.782,2.782,0,0,1,2.9-2.9,2.934,2.934,0,0,1,1.6.4v1.2a2.1,2.1,0,0,0-1.5-.5A1.679,1.679,0,0,0,25,27.5,1.733,1.733,0,0,0,26.8,29.3Zm2.6-4.6h1.2v5.5H29.4Zm1.3-1.6a.86.86,0,0,1-.8.8.789.789,0,0,1-.8-.8.86.86,0,0,1,.8-.8A.736.736,0,0,1,30.7,23.1Zm3.2,1.5a4.776,4.776,0,0,0-1.8.4v1.1a2.934,2.934,0,0,1,1.6-.4c.6,0,1.1.3,1.1.9v.5h-.6c-1.6,0-2.6.5-2.6,1.7s1,1.7,2.5,1.7a11.076,11.076,0,0,0,1.9-.2V26.7A1.852,1.852,0,0,0,33.9,24.6Zm.9,4.8c-.2,0-.5.1-.7.1-.7,0-1.3-.2-1.3-.8s.6-.8,1.4-.8h.5v1.5Zm4.7-.1a1.689,1.689,0,0,0,1-.3v1.1a2.768,2.768,0,0,1-1.3.3,1.524,1.524,0,0,1-1.7-1.7V25.8h-.8v-1h.8V23.5h1.2v1.2h1.6v1H38.7v2.6C38.8,29.1,39.1,29.3,39.5,29.3ZM43,23.1a.86.86,0,0,1-.8.8.789.789,0,0,1-.8-.8.86.86,0,0,1,.8-.8A.789.789,0,0,1,43,23.1Zm-1.4,1.6h1.2v5.5H41.6Zm5.1-.1a2.759,2.759,0,0,0-2.8,2.9,2.85,2.85,0,1,0,2.8-2.9Zm0,4.7a1.636,1.636,0,0,1-1.6-1.8,1.611,1.611,0,1,1,3.2,0A1.636,1.636,0,0,1,46.7,29.3Zm8.7-2.6v3.6H54.2V26.9c0-.8-.5-1.1-1.2-1.1a4.3,4.3,0,0,0-1.2.2v4.4H50.6V25.2a7.418,7.418,0,0,1,2.5-.5C54.5,24.6,55.4,25.2,55.4,26.7Zm.8-2h1.2v.1h-.5v1.5h-.2V24.8h-.5Zm3.2,1.6h-.2L59,24.9l-.4,1.4h-.2L58,24.9l-.2,1.4h-.2l.3-1.6h.2l.4,1.4.4-1.4h.2Z" style="fill: #44c8f5"/>
</svg>
