<svg xmlns="http://www.w3.org/2000/svg" viewBox="0 0 560 60"><g data-name="レイヤー 2"><g data-name="編集モード"><path d="M560 30a30.09 30.09 0 01-30 30H30A30.09 30.09 0 010 30 30.09 30.09 0 0130 0h500a30.09 30.09 0 0130 30z" fill="#ffa000"/><path d="M148.37 37.7v-6.83l3.45.19c.42 0 .84.06.84.4s-.42.42-.7.5v10.7h-3.59v-1.6h-16.66v1.6h-3.58V30.84l3.53.2c.28 0 .75.05.75.36s-.33.39-.7.5v5.8h6.47v-8.23h-8.93V18.66l3.81.22c.14 0 .53 0 .53.37s-.34.39-.67.47v6.45h5.26v-9l3.53.25c.39 0 .84.06.84.39s-.39.45-.76.57v7.84h5.29v-7.56l3.81.22c.17 0 .56 0 .56.34s-.39.42-.67.5v9.75h-9v8.23zM160 39.52c.62-.06 1.46-.14 3.7-.5v-4.71h-3.4c-.25 1.54-.84 5.41-2.6 8.18a9.56 9.56 0 00-3-1.4c1.65-2.72 2.63-5.43 2.63-12.69V17.88h22.32v6.74h-18.96v4.54c0 .78-.08 1.85-.11 2.3h3.86v-2h-3.08v-2.57h3.08V25l3.11.2c.67.05.95.22.95.44s-.56.42-.86.45v.84h4.25V25l3.17.22c.47 0 .89.12.89.42s-.42.42-.89.51v.78h4.31v2.55h-4.31v2h5.48v2.85h-1.84l.72.62a.57.57 0 01.26.39c0 .25-.23.34-.73.31a27.42 27.42 0 01-2.58 2.24 14.14 14.14 0 004.71 2.21 7.3 7.3 0 00-2 2.77 18 18 0 01-7.45-5.29 12.45 12.45 0 00-.45 3c-1.43.3-6.24 1.34-9.52 1.82-.11.3-.31.5-.56.5s-.33-.17-.42-.45zm.73-19.15v1.68h15.57v-1.68zM167 38.46c1.26-.23 3.56-.65 4.65-1a14.74 14.74 0 01-2.18-3.19H167zm.68-7h4.25v-2h-4.25zm5.23 2.85a10.42 10.42 0 001.23 1.57 21.87 21.87 0 001.68-1.57zm17.77 8.37h-3.47v-8.06c-1.15 1-2.07 1.74-2.77 2.27a7.59 7.59 0 00-2.22-2.89c3-1.76 6.78-5.37 8-8.14h-6.86v-3.22h3.87v-5.41l3.44.11c.39 0 .53.26.53.4s-.14.28-.5.47v4.43h2.88l1.54 1.45a25.57 25.57 0 01-3.12 5.29 22 22 0 004.29 3.53 10.48 10.48 0 00-2.19 2.61 20.47 20.47 0 01-3.44-3zm3.95-13.88v-3.39h4.93v-8.23l3.78.16c.22 0 .42.12.42.31s-.2.34-.59.45v7.31h5v3.39h-5v9.74h5.57v3.22h-15.88v-3.22h6.7V28.8zm41.97-.73v3.81h-25.28v-3.81zm19.6 11.17c0 .59.17.78.78.78h3.73c1 0 1.26-1.59 1.37-3.41a7.52 7.52 0 003.08 1.39c-.42 2.77-1.2 4.5-3.19 4.5h-6.44c-1.12 0-2.66 0-2.66-1.9v-2.34h-4.23l1.46.62c.22.08.58.25.58.53s-.33.36-1 .42a15 15 0 01-9.1 3.13 8.44 8.44 0 00-1.23-2.91c.39 0 .61.06 1 .06s4.59-.11 6.49-1.85h-4.31v-9.72h19.21v9.72h-5.54zm-5-18.7v2.29a15.79 15.79 0 002.85-5.93l3.31.75a.31.31 0 01.25.31c0 .37-.42.45-.79.5-.16.45-.19.59-.36 1.07h8.29v2.74h-9.58a22.6 22.6 0 01-2 2.8 7.85 7.85 0 00-2-1.48v1.23h-3.64v1.23h4.62v1.79h-12.44v-10.3h12.21v1.82h-4.32v1.18zm-6.42 0v-1.18h-2.21v1.18zm-2.21 1.51v1.2h5.88v-1.2zm0 2.77v1.23h2.19v-1.23zm15.79 6.69v-.92h-12.63v.92zm-12.65 1.4v.93h12.65v-.93zm0 2.3v1h12.65v-1zM263 27.09h-8.82v-2.88H263zm11-7.87c.22.08.33.2.33.39s-.42.39-.78.45A40.24 40.24 0 00272 31.18a22.22 22.22 0 00.2 3.3c.25-.45 1.29-2.44 1.51-2.83a10.33 10.33 0 001.75 2.35 14 14 0 00-2.32 7.28l-3.19.62a38.94 38.94 0 01-1.46-11.06A53 53 0 01270.12 18zm13.41-.62c.31.06.39.2.39.37s-.39.36-.67.39a32.45 32.45 0 00-.28 3.67 27.42 27.42 0 004.4-1.09v3.61c-2.27.56-3.67.78-4.48.92a55.13 55.13 0 00.42 7 17.69 17.69 0 015.57 3c-.42.73-1.46 2.89-1.65 3.34a11.37 11.37 0 00-3.56-2.41c0 3.83-4.31 4.09-5.54 4.09-4.06 0-5.49-2.5-5.49-4.4 0-2.8 2.74-4.34 5.77-4.34.5 0 .84.06 1.17.08-.08-1.09-.28-3.47-.31-5.93-1.7.14-3.13.19-4 .19s-1.35 0-1.93-.05v-3.7a32.13 32.13 0 003.47.19c1.15 0 1.9-.05 2.41-.08V17.9zm-5.49 17.14c-1.73 0-2.27.78-2.27 1.4 0 .78.82 1.34 2 1.34.2 0 2.36 0 2.36-1.76a4.79 4.79 0 00-.06-.62 4.68 4.68 0 00-2.02-.36zm22.22-3.86c-.42.36-2.92 2.52-2.92 3.92a1.39 1.39 0 00.7 1.26c1.38.7 4.37.81 6 .81a35.62 35.62 0 0010.67-1.4 24.54 24.54 0 00.78 4 57.78 57.78 0 01-11.51 1.12c-6.3 0-10.5-1.18-10.5-5.32 0-1.26.42-3.22 4.2-6.44zm13.32-10.06a34.24 34.24 0 00-9 5.77c-.33-.39-1.84-2.1-2.15-2.43.22-.14 2.38-1.8 3-2.36-1.49.12-3.56.23-6.05.23-2.07 0-2.94-.09-3.64-.14L299.4 19a54.72 54.72 0 008 .5 44.35 44.35 0 008.15-.61zm18.88-3.89c.36.09.56.2.56.42s-.34.37-.65.4c-.14.44-.78 2.46-.92 2.85a45.1 45.1 0 009.57-2.27 10.41 10.41 0 00.73 3.53 49.07 49.07 0 01-11.53 2.41c-.14.39-.65 1.76-1.85 4.7a16.24 16.24 0 017.84-2.21c7.17 0 7.61 5.15 7.61 6.44 0 7.76-11.08 8.18-14.5 8.18a25.11 25.11 0 01-2.94-.14 14.77 14.77 0 00-.9-3.56c.9.08 2.38.25 4.23.25 3.61 0 10.17-.64 10.17-4.84 0-2.3-1.68-3.22-3.9-3.22-3.24 0-7.22 1.76-10.16 4.9l-3.36-1.71a35.78 35.78 0 004-8.57 49.5 49.5 0 01-5.83-.14v-3.89a33.91 33.91 0 006.92.53 34.54 34.54 0 001.09-5.07zm24.75 5.27c.19.05.47.16.47.42s-.39.39-.58.39a26.25 26.25 0 00-1.98 5.85 13.91 13.91 0 018.66-3.19c4.67 0 7.08 3.27 7.08 6.69 0 5.46-5.4 8.79-14.31 8.79h-2.1a10.87 10.87 0 00-1.09-4 21.28 21.28 0 003.86.34c1.77 0 9.72-.25 9.72-5.07 0-1.49-.84-3.36-3.7-3.36-4.84 0-8.28 3.83-9.32 5l-3.42-1.23A69.07 69.07 0 01357.25 22zM360 17a28.9 28.9 0 019.63 3.22 30.28 30.28 0 00-2.13 3.47 26.11 26.11 0 00-8.76-3.5zm32.22 1.46c.28.09.56.17.56.42s-.16.42-.75.48c-.48 2.21-.7 3.08-.84 3.64 2-.08 6.61-.28 6.61 6.83 0 4.2-1.4 8.29-2.75 10.08a4.77 4.77 0 01-4.17 2 14.68 14.68 0 01-2.86-.33 6.85 6.85 0 00.06-.87 19.83 19.83 0 00-.36-3.22 5.3 5.3 0 002.6.61 2.33 2.33 0 002-.84c.84-.95 1.84-4 1.84-7.39 0-3.11-1.59-3.39-2.71-3.39-.34 0-.87.06-1.21.09A43.59 43.59 0 01383 41.62a17.53 17.53 0 00-3.52-1.88 33.39 33.39 0 006.92-12.54 33.25 33.25 0 00-5 1.54l-1.32-3.84c1.15-.22 6.25-1.31 7.28-1.48a40.54 40.54 0 00.9-6.21zm7.78 1.71c3.11 3.42 5.07 8 5.07 10.25a2.85 2.85 0 01-2 2.94 10.41 10.41 0 01-2.8.87 17.6 17.6 0 00-1.44-3.23c1-.2 2.33-.48 2.33-1.54 0-.31-.37-3.33-4.09-7.48zm17.09 3.03c.19.05.47.16.47.42s-.39.39-.58.39a26.25 26.25 0 00-1.98 5.85 13.91 13.91 0 018.66-3.19c4.67 0 7.08 3.27 7.08 6.69 0 5.46-5.4 8.79-14.31 8.79h-2.1a10.87 10.87 0 00-1.09-4 21.28 21.28 0 003.86.34c1.77 0 9.72-.25 9.72-5.07 0-1.49-.84-3.36-3.7-3.36-4.84 0-8.28 3.83-9.32 5l-3.42-1.23A69.07 69.07 0 01413.25 22zM416 17a28.9 28.9 0 019.63 3.22 30.28 30.28 0 00-2.13 3.47 26.11 26.11 0 00-8.76-3.5z" fill="#fff"/></g></g></svg>