<svg xmlns="http://www.w3.org/2000/svg" viewBox="0 0 630 54.85"><defs><style>.fea141d8-eeba-4157-9d02-1ef1f5040594{fill:#ffa000;}</style></defs><title>ttl</title><g id="bbb07d7e-c1b3-46e8-8ea6-69835d6b1073" data-name="レイヤー 2"><g id="f2f6e932-8bad-4d5b-b754-bd63dd726ba8" data-name="編集モード"><rect class="fea141d8-eeba-4157-9d02-1ef1f5040594" y="49.85" width="630" height="5"/><path class="fea141d8-eeba-4157-9d02-1ef1f5040594" d="M21.13,1.91l6.08.32c.29,0,.54.11.54.36a.74.74,0,0,1-.54.65V9.11h6.27v5.61h-6.3c-.18,5.44-.8,7.2-1.12,8.14a19.53,19.53,0,0,1-10.62,11.3A16.82,16.82,0,0,0,11,29.7c6.3-2.24,8.39-6.48,8.82-7.42,1.05-2.34,1.16-4.64,1.3-7.56H14.9v8H9.07v-8H2.23V9.11H9.07v-7l5.65.33c.33,0,.76,0,.76.43s-.29.4-.58.58V9.11h6.23Z"/><path class="fea141d8-eeba-4157-9d02-1ef1f5040594" d="M61.49,33.58h-6.2V17.21a65.54,65.54,0,0,1-10,5.11A17.53,17.53,0,0,0,41,17.17C54.72,13.28,63.32,3.49,65.52.68L70.3,4.46a.84.84,0,0,1,.44.69c0,.32-.29.47-.58.47a2.22,2.22,0,0,1-.72-.11,71.76,71.76,0,0,1-7.95,7.38Z"/><path class="fea141d8-eeba-4157-9d02-1ef1f5040594" d="M98.64,11.23a52.25,52.25,0,0,1,12.56,8.46c-1.62,2.34-1.8,2.59-3.38,5a53.29,53.29,0,0,0-11.23-8V33.62H90.5V1.84l6.09.28c.25,0,.68,0,.68.4s-.4.5-.68.58v11Z"/><path class="fea141d8-eeba-4157-9d02-1ef1f5040594" d="M131.33,15.26a59,59,0,0,1,5,4.07,49.72,49.72,0,0,0,7-7.6H121.57V6.37H147a8.32,8.32,0,0,0,2.52-.47l3.5,4.25a10.83,10.83,0,0,0-1.77,1.76,123.31,123.31,0,0,1-11,11.67,27,27,0,0,1,3.24,4.24c-1.3,1.16-3.38,3-4.68,4.22-1.29-2.42-3.56-6.52-11.34-12.64Z"/><path class="fea141d8-eeba-4157-9d02-1ef1f5040594" d="M168.23,10.19a58.75,58.75,0,0,1,3.31,6.58A23.78,23.78,0,0,0,167,19a75.69,75.69,0,0,0-3.39-6.88Zm20.37.57c.4.11.68.22.68.54s-.5.4-.68.4c-3,12.78-8.82,17.82-17.17,21.42A14.48,14.48,0,0,0,168,29.05c9.22-3.57,13.82-8.46,15.37-19.91Zm-13-2.23a26.37,26.37,0,0,1,3,6.77A35.92,35.92,0,0,0,174,17.17a56.42,56.42,0,0,0-3.14-6.73Z"/><path class="fea141d8-eeba-4157-9d02-1ef1f5040594" d="M224.64,5.83a2.14,2.14,0,0,0,1.72-.5L230,7.92a20.39,20.39,0,0,0-2.31,4.79c-2.81,7.23-5,11.34-9,14.86a40.79,40.79,0,0,1-9.79,6.34,15.67,15.67,0,0,0-4.1-4.75A31.28,31.28,0,0,0,216.21,22,27.64,27.64,0,0,0,222,11H201.13V5.83Zm9.14-2.45A3.39,3.39,0,1,1,230.4,0,3.38,3.38,0,0,1,233.78,3.38Zm-5,0A1.58,1.58,0,0,0,230.4,5,1.6,1.6,0,0,0,232,3.38a1.59,1.59,0,0,0-3.17,0Z"/></g></g></svg>