<svg xmlns="http://www.w3.org/2000/svg" width="519.79" height="123.9" viewBox="0 0 519.79 123.9"><path d="M96.67 116.01c-1.9-1.33-3.57-3.9-5-7.7L54.09 11.59h-5.24L13.13 103.84c-1.95 4.93-4 8.42-6.16 10.47-2.16 2.05-4.31 3.34-6.47 3.85v3.08c1.54-.21 3.26-.33 5.16-.38 1.9-.05 4.08-.08 6.54-.08 2.77 0 5.72.03 8.85.08 3.13.05 6.24.18 9.32.38v-3.08c-3.18-.1-5.85-.51-8.01-1.23-2.16-.72-3.67-1.95-4.54-3.7-.87-1.74-1.13-4.16-.77-7.24.36-3.08 1.46-6.93 3.31-11.55l5.54-14.48h35.93l9.35 25.26c2.05 5.24 2.39 8.65 1 10.24-1.39 1.59-4.7 2.49-9.93 2.7v3.08c2.26-.21 5.24-.33 8.93-.38 3.7-.05 7.7-.08 12.01-.08 3.39 0 6.75.03 10.09.08 3.33.05 6.24.18 8.7.38v-3.08c-1.64-.1-3.42-.82-5.31-2.16ZM27.08 76.89l17.08-44.64 16.54 44.64H27.08ZM158.1 39.62c2.98 0 5.52.62 7.62 1.85 2.1 1.23 3.7 2.8 4.77 4.7 1.08 1.9 1.62 4.03 1.62 6.39 0 2.98-.9 5.52-2.69 7.62-1.8 2.11-4.18 3.16-7.16 3.16-2.57 0-4.75-.77-6.54-2.31-1.8-1.54-2.7-3.64-2.7-6.31 0-2.26.59-4.18 1.77-5.78 1.18-1.59 2.54-2.85 4.08-3.77-1.03-.82-2.26-1.18-3.7-1.08-2.77.1-5.34 1-7.7 2.7-2.36 1.69-4.37 3.85-6.01 6.47-1.64 2.62-2.93 5.42-3.85 8.39-.92 2.98-1.39 5.75-1.39 8.32v35.42c0 5.03 1.39 8.39 4.16 10.09 2.77 1.69 6.62 2.54 11.55 2.54v3.23c-2.36-.1-5.72-.23-10.09-.38-4.37-.15-8.96-.23-13.78-.23-3.7 0-7.39.08-11.09.23s-6.52.28-8.47.38v-3.23c4 0 6.85-.77 8.55-2.31s2.54-4.47 2.54-8.78v-48.36c0-4.62-.77-8.03-2.31-10.24-1.54-2.21-4.47-3.31-8.78-3.31v-3.23c3.28.31 6.47.46 9.55.46 3.49 0 6.75-.18 9.78-.54 3.03-.36 5.83-.9 8.39-1.62v17.71c1.23-2.98 2.87-5.85 4.93-8.62 2.05-2.77 4.52-5.05 7.39-6.85 2.87-1.8 6.06-2.7 9.55-2.7ZM213.9 39.62c3.49 0 6.83.44 10.01 1.31 3.18.87 5.95 2.08 8.32 3.62 2.46 1.54 4.34 3.39 5.62 5.54 1.28 2.16 1.93 4.52 1.93 7.08 0 3.08-.87 5.49-2.62 7.24s-4 2.62-6.78 2.62-5.08-.77-6.93-2.31c-1.85-1.54-2.77-3.75-2.77-6.62 0-2.67.77-4.85 2.31-6.54 1.54-1.69 3.33-2.79 5.39-3.31-.92-1.54-2.54-2.85-4.85-3.93-2.31-1.08-4.8-1.62-7.47-1.62s-5.42.72-7.93 2.16c-2.52 1.44-4.75 3.65-6.7 6.62-1.95 2.98-3.52 6.83-4.7 11.55-1.18 4.72-1.77 10.42-1.77 17.09 0 8.62 1 15.48 3 20.56s4.64 8.7 7.93 10.86c3.29 2.16 6.83 3.23 10.63 3.23 2.46 0 5.01-.46 7.62-1.39 2.62-.92 5.13-2.46 7.55-4.62 2.41-2.16 4.54-5.08 6.39-8.78l2.93 1.08c-1.13 3.39-2.9 6.83-5.31 10.32-2.41 3.49-5.57 6.37-9.47 8.62-3.9 2.26-8.68 3.39-14.32 3.39-6.47 0-12.32-1.59-17.56-4.77-5.24-3.18-9.39-7.83-12.47-13.94-3.08-6.11-4.62-13.58-4.62-22.41s1.56-16.14 4.7-22.56c3.13-6.41 7.47-11.37 13.01-14.86 5.54-3.49 11.86-5.24 18.94-5.24ZM272.71.66v56.06c2.57-6.37 6.18-10.8 10.86-13.32 4.67-2.51 9.62-3.77 14.86-3.77 4.11 0 7.47.54 10.09 1.62 2.62 1.08 4.8 2.54 6.54 4.39 1.85 1.95 3.18 4.46 4 7.54.82 3.08 1.23 7.24 1.23 12.47v41.27c0 4.31.85 7.24 2.54 8.78 1.69 1.54 4.54 2.31 8.55 2.31v3.23c-1.85-.1-4.62-.23-8.32-.38-3.7-.15-7.29-.23-10.78-.23s-7.11.08-10.55.23c-3.44.15-5.98.28-7.62.38v-3.23c3.49 0 5.95-.77 7.39-2.31 1.44-1.54 2.16-4.47 2.16-8.78v-45.58c0-2.98-.26-5.67-.77-8.08-.52-2.41-1.62-4.36-3.31-5.85-1.69-1.49-4.18-2.23-7.47-2.23-3.7 0-7.01 1.05-9.93 3.16-2.93 2.11-5.24 5-6.93 8.7-1.69 3.7-2.54 7.91-2.54 12.63v37.27c0 4.31.72 7.24 2.16 8.78 1.44 1.54 3.9 2.31 7.39 2.31v3.23c-1.75-.1-4.29-.23-7.62-.38-3.34-.15-6.75-.23-10.24-.23s-7.26.08-11.01.23c-3.75.15-6.54.28-8.39.38v-3.23c4 0 6.85-.77 8.55-2.31s2.54-4.47 2.54-8.78V19.14c0-4.62-.8-8.03-2.39-10.24-1.59-2.21-4.49-3.31-8.7-3.31v-3.23c3.28.31 6.47.46 9.55.46 3.39 0 6.62-.18 9.7-.54 3.08-.36 5.9-.9 8.47-1.62ZM366.56 40.08v66.84c0 4.31.85 7.24 2.54 8.78s4.54 2.31 8.55 2.31v3.23c-1.75-.1-4.44-.23-8.08-.38-3.65-.15-7.37-.23-11.17-.23s-7.42.08-11.17.23c-3.75.15-6.54.28-8.39.38v-3.23c4 0 6.85-.77 8.55-2.31s2.54-4.47 2.54-8.78v-48.36c0-4.62-.77-8.03-2.31-10.24-1.54-2.21-4.47-3.31-8.78-3.31v-3.23c3.28.31 6.47.46 9.55.46 3.49 0 6.75-.18 9.78-.54 3.03-.36 5.83-.9 8.39-1.62Zm-9.24-37.11c3.18 0 5.85 1 8.01 3 2.16 2 3.23 4.49 3.23 7.47s-1.08 5.47-3.23 7.47c-2.16 2-4.83 3-8.01 3s-5.85-1-8.01-3-3.23-4.49-3.23-7.47 1.08-5.47 3.23-7.47 4.82-3 8.01-3ZM453.63 41.78v3.08c-1.95.31-3.77 1.31-5.47 3-1.69 1.69-3.26 4.6-4.7 8.7l-24.33 65.3h-5.08l-28.03-68.22c-1.64-4-3.26-6.44-4.85-7.32-1.59-.87-2.95-1.31-4.08-1.31v-3.23c2.46.21 5 .38 7.62.54 2.62.15 5.52.23 8.7.23s6.54-.08 10.09-.23c3.54-.15 6.85-.33 9.93-.54v3.23c-2.46 0-4.65.15-6.54.46-1.9.31-3.13 1.21-3.7 2.69-.57 1.49-.23 4.03 1 7.62l18.94 47.74-1.23 1.23 15.86-42.04c1.54-4.11 2.16-7.42 1.85-9.93-.31-2.51-1.39-4.41-3.23-5.7-1.85-1.28-4.52-2.03-8.01-2.23v-3.08c1.74.1 3.36.18 4.85.23 1.49.05 2.93.1 4.31.15 1.39.05 2.85.08 4.39.08 2.26 0 4.39-.05 6.39-.15 2-.1 3.77-.2 5.31-.31ZM516.08 100.45c-1.85 3.7-3.95 6.6-6.31 8.7-2.36 2.11-4.85 3.59-7.47 4.47-2.62.87-5.31 1.31-8.08 1.31-3.59 0-7.14-1.21-10.63-3.62-3.49-2.41-6.31-6.03-8.47-10.86-2.16-4.83-3.23-10.78-3.23-17.86 0-1.64.05-3.31.15-5 .08-1.4.17-2.7.25-3.93h46.56c0-11.8-2.57-20.43-7.7-25.87-5.13-5.44-12.22-8.16-21.25-8.16-7.08 0-13.32 1.72-18.71 5.16-5.39 3.44-9.57 8.39-12.55 14.86-2.98 6.47-4.47 14.27-4.47 23.41 0 8.32 1.44 15.5 4.31 21.56 2.87 6.06 6.98 10.7 12.32 13.94 5.34 3.23 11.6 4.85 18.79 4.85 5.34 0 10.01-1.05 14.01-3.16s7.29-4.85 9.86-8.24c2.57-3.39 4.47-6.83 5.7-10.32l-3.08-1.23Zm-26.8-57.75c3.18 0 5.75 1.29 7.7 3.85 1.95 2.57 3.39 5.98 4.31 10.24.92 4.26 1.33 8.91 1.23 13.94h-30.54c.79-9.55 2.73-16.56 5.82-21.02 3.23-4.67 7.06-7.01 11.47-7.01Z" fill="#fff" stroke="#f2e5af" stroke-miterlimit="10"/></svg>