<svg id="txt_onsale.svg" xmlns="http://www.w3.org/2000/svg" width="1198.872" height="163.843" viewBox="0 0 1198.872 163.843">
  <defs>
    <style>
      .cls-1 {
        fill: #c71528;
        fill-rule: evenodd;
      }
    </style>
  </defs>
  <path id="NOW_ON_SALE" data-name="NOW ON SALE" class="cls-1" d="M40.68,956.614H73.323V855.053l39.9,101.561h35.888V795.158H116.274v81.128L85.349,795.158H40.68V956.614ZM224.736,793.956c-27.871,0-54.023,15.224-54.023,50.079v65.1c0,34.856,26.534,48.677,53.26,48.677,27.679,0,53.641-15.224,53.641-50.079v-65.1C277.614,807.778,251.461,793.956,224.736,793.956Zm-0.763,34.054c12.98,0,18.9,6.611,18.9,21.234v52.282c0,14.624-5.154,22.636-18.135,22.636-13.172,0-19.089-8.012-19.089-22.636V849.244C205.647,834.821,211.183,828.01,223.973,828.01Zm167.577,128.6h37.224L453.4,795.158H419.23l-12.6,97.554-21.38-97.554H360.625l-21.19,97.154-12.79-97.154H291.33l24.816,161.456h37.225l19.089-86.738ZM564.134,793.956c-27.87,0-54.023,15.224-54.023,50.079v65.1c0,34.856,26.535,48.677,53.26,48.677,27.68,0,53.641-15.224,53.641-50.079v-65.1C617.012,807.778,590.86,793.956,564.134,793.956Zm-0.763,34.054c12.981,0,18.9,6.611,18.9,21.234v52.282c0,14.624-5.154,22.636-18.135,22.636-13.171,0-19.089-8.012-19.089-22.636V849.244C545.045,834.821,550.581,828.01,563.371,828.01Zm71.749,128.6h32.643V855.053l39.9,101.561h35.889V795.158H710.715v81.128L679.79,795.158H635.12V956.614Zm211.791-119.99c0-6.611,1.909-12.62,13.363-12.62,12.026,0,12.981,9.415,13.744,19.831H908.38c-1.146-29.647-11.454-49.879-47.724-49.879-29.016,0-48.678,12.22-48.678,42.868,0,46.674,63.949,55.888,63.949,77.322,0,8.814-3.818,13.822-16.417,13.822-13.553,0-16.035-8.213-16.226-23.036H808.541c1.146,29.446,11.263,52.883,51.733,52.883,29.016,0,50.587-12.82,50.587-44.27C910.861,867.272,846.911,859.86,846.911,836.624Zm152.818,119.99h34.551L997.056,795.158H953.723L916.5,956.614h33.406l5.727-27.043H994Zm-37.988-55.488,13.172-61.3,12.98,61.3H961.741ZM1136,923.962h-53.83v-128.8h-34.74V956.614H1136V923.962Zm15,32.652h88.57V923.962h-53.83V886.3h49.06V855.654h-49.06V827.609h53.83V795.158H1151V956.614Z" transform="translate(-40.688 -793.969)"/>
</svg>
