<?xml version="1.0" encoding="utf-8"?>
<!-- Generator: Adobe Illustrator 23.0.2, SVG Export Plug-In . SVG Version: 6.00 Build 0)  -->
<svg version="1.1" id="レイヤー_1" xmlns="http://www.w3.org/2000/svg" xmlns:xlink="http://www.w3.org/1999/xlink" x="0px"
	 y="0px" width="101.109px" height="8.338px" viewBox="0 0 101.109 8.338" style="enable-background:new 0 0 101.109 8.338;"
	 xml:space="preserve">
<style type="text/css">
	.st0{fill:#FFFFFF;}
</style>
<g>
	<g>
		<path class="st0" d="M9.217,4.166c0,0.758-0.175,1.455-0.524,2.092C8.343,6.895,7.822,7.4,7.131,7.775S5.598,8.338,4.605,8.338
			c-1.004,0-1.854-0.195-2.549-0.586s-1.212-0.904-1.55-1.541S0,4.893,0,4.166c0-0.73,0.168-1.413,0.504-2.048
			s0.853-1.146,1.55-1.535S3.602,0,4.605,0c0.75,0,1.419,0.111,2.007,0.334s1.071,0.524,1.45,0.905s0.666,0.824,0.861,1.33
			S9.217,3.607,9.217,4.166z M6.721,4.166c0-0.305-0.045-0.583-0.135-0.835S6.36,2.86,6.179,2.675s-0.403-0.33-0.665-0.434
			S4.949,2.086,4.605,2.086c-0.656,0-1.172,0.191-1.547,0.574S2.496,3.545,2.496,4.166S2.685,5.29,3.062,5.675
			s0.892,0.577,1.544,0.577c0.449,0,0.832-0.089,1.148-0.267C6.07,5.808,6.311,5.562,6.475,5.247S6.721,4.572,6.721,4.166z"/>
		<path class="st0" d="M18.358,4.945h-3.369v3.287H12.54V0.111h5.818V1.74h-3.369v1.57h3.369V4.945z"/>
		<path class="st0" d="M27.623,4.945h-3.369v3.287h-2.449V0.111h5.818V1.74h-3.369v1.57h3.369V4.945z"/>
		<path class="st0" d="M33.53,8.232h-2.449V0.111h2.449V8.232z"/>
		<path class="st0" d="M44.653,7.623c-0.336,0.176-0.68,0.316-1.031,0.422s-0.706,0.181-1.063,0.226s-0.728,0.067-1.11,0.067
			c-0.707,0-1.341-0.098-1.901-0.293S38.5,7.562,38.088,7.181s-0.721-0.826-0.926-1.336s-0.308-1.069-0.308-1.679
			c0-0.699,0.121-1.312,0.363-1.837s0.581-0.962,1.017-1.31s0.932-0.604,1.488-0.771S40.866,0,41.483,0
			c0.922,0,1.967,0.205,3.135,0.615v2.156c-0.402-0.25-0.8-0.458-1.192-0.624s-0.854-0.249-1.386-0.249
			c-0.473,0-0.914,0.094-1.324,0.281s-0.74,0.455-0.99,0.803s-0.375,0.754-0.375,1.219c0,0.41,0.109,0.786,0.328,1.128
			s0.522,0.613,0.911,0.814s0.827,0.302,1.315,0.302c0.395,0,0.768-0.048,1.119-0.144s0.647-0.202,0.888-0.319
			s0.487-0.256,0.741-0.416V7.623z"/>
		<path class="st0" d="M50.561,8.232h-2.449V0.111h2.449V8.232z"/>
		<path class="st0" d="M63.329,8.232h-2.508l-0.662-1.646h-3.527l-0.674,1.646H53.45l3.592-8.121h2.707L63.329,8.232z M59.597,5.174
			l-1.189-2.965l-1.201,2.965H59.597z"/>
		<path class="st0" d="M72.377,8.232h-6.17V0.111h2.449v6.176h3.721V8.232z"/>
		<path class="st0" d="M89.882,8.232h-2.508l-0.662-1.646h-3.527l-0.674,1.646h-2.508l3.592-8.121h2.707L89.882,8.232z
			 M86.149,5.174L84.96,2.209l-1.201,2.965H86.149z"/>
		<path class="st0" d="M101.109,4.318c0,0.832-0.151,1.5-0.454,2.004s-0.659,0.912-1.069,1.225
			c-0.582,0.457-1.396,0.686-2.443,0.686H92.76V0.111h3.375c0.508,0,0.942,0.026,1.304,0.079s0.687,0.127,0.976,0.223
			c0.289,0.096,0.535,0.203,0.738,0.322s0.385,0.247,0.545,0.384c0.277,0.227,0.521,0.494,0.729,0.803s0.375,0.666,0.498,1.072
			S101.109,3.842,101.109,4.318z M98.619,4.213c0-0.66-0.126-1.175-0.378-1.544c-0.252-0.369-0.555-0.616-0.908-0.741
			S96.619,1.74,96.252,1.74h-1.043v4.811h1.043c0.641,0,1.195-0.152,1.664-0.457S98.619,5.162,98.619,4.213z"/>
	</g>
</g>
</svg>
