<?xml version="1.0" encoding="utf-8"?>
<!-- Generator: Adobe Illustrator 21.0.0, SVG Export Plug-In . SVG Version: 6.00 Build 0)  -->
<svg version="1.1" id="Layer_1" xmlns="http://www.w3.org/2000/svg" xmlns:xlink="http://www.w3.org/1999/xlink" x="0px" y="0px"
	 viewBox="0 0 153.2 106" style="enable-background:new 0 0 153.2 106;" xml:space="preserve">
<style type="text/css">
	.st0{fill:#44C8F5;}
	.st1{fill:#00A0DB;}
	.st2{fill:#E1E000;}
	.st3{fill:#0080BE;}
	.st4{fill:#48BD9C;}
	.st5{fill:#FFFFFF;}
</style>
<title>CES_CTA_Logo_Combo_RGB</title>
<polygon id="_Path_" class="st0" points="82.3,20.8 84.6,32.1 57.4,35.5 54.9,12.4 "/>
<polygon class="st1" points="61.7,81.9 61.7,81.9 61.7,81.9 57.4,35.5 0,42.7 32.9,99.9 106.5,89.6 106.5,89.6 "/>
<polygon id="_Path_2" class="st2" points="153.2,11.7 144.4,84.3 133.4,82.7 135.6,37 82.3,20.8 81.6,17.1 "/>
<polygon class="st3" points="93.6,76.1 84.6,32.1 57.4,35.5 61.7,81.9 106.5,89.6 105.1,78 "/>
<polygon class="st0" points="105.1,78 106.5,89.6 132.8,94.1 133.4,82.7 "/>
<polygon id="_Path_3" class="st4" points="82.3,20.8 93.6,76.1 133.4,82.7 135.6,37 "/>
<path class="st5" d="M122.3,40.5c-0.7-0.8-2-0.8-2.8,0c0,0,0,0,0,0c-0.4,0.4-0.6,0.9-0.6,1.4c0,0.5,0.2,1.1,0.6,1.4
	c0.7,0.8,2,0.8,2.7,0.1c0,0,0,0,0.1-0.1c0.4-0.4,0.6-0.9,0.6-1.4C122.9,41.4,122.7,40.9,122.3,40.5z M122.1,43.2
	c-0.6,0.7-1.7,0.7-2.4,0c0,0,0,0,0,0c-0.7-0.7-0.7-1.8,0-2.5c0.6-0.7,1.7-0.7,2.4,0c0,0,0,0,0,0c0.3,0.3,0.5,0.8,0.5,1.2
	C122.6,42.4,122.5,42.8,122.1,43.2L122.1,43.2z M121.8,41.5c0-0.2-0.1-0.5-0.3-0.6c-0.2-0.1-0.4-0.1-0.6-0.1h-0.8V43h0.4v-0.9h0.3
	c0.1,0,0.3,0,0.4,0.1c0.2,0.1,0.2,0.3,0.2,0.5v0.2l0,0.1l0,0h0.4l0,0l0-0.1v-0.2v-0.2c0-0.1,0-0.2-0.1-0.3c-0.1-0.1-0.2-0.2-0.4-0.2
	c0.1,0,0.2,0,0.3-0.1C121.8,41.8,121.8,41.6,121.8,41.5z M121.2,41.8c-0.1,0-0.2,0.1-0.4,0.1h-0.3v-0.8h0.3c0.2,0,0.3,0,0.5,0.1
	c0.2,0.1,0.2,0.4,0.1,0.6C121.3,41.8,121.3,41.8,121.2,41.8L121.2,41.8z M45.1,75.7c4.3,0.1,8.5-1.4,11.8-4.3v9.3
	c-3.7,2.2-7.9,3.2-12.2,3.1C31.6,83.7,23,74.8,23,62.1c0-12.9,8.9-21.7,21.7-21.7c4-0.1,8,0.9,11.4,2.8v9.6
	c-3.1-2.9-7.2-4.5-11.4-4.4c-7.6,0-12.5,5.6-12.5,13.6C32.2,70.3,37.6,75.7,45.1,75.7z M70.4,75.2h18.4V83H61.6v-42h26.8v7.8H70.4
	v9.2h16.5v7.7H70.4V75.2z M119.7,71.1c0,8.8-6.9,12.6-15.5,12.6c-4,0.1-7.9-1-11.4-3v-8.9c3.2,2.4,6.7,4.3,11.4,4.3
	c3.6,0,6.8-1.3,6.8-4.7c0-3.2-2.6-4.4-7-5.7C95.5,63.4,92,59.9,92,52.8c0-8,6.2-12.4,14-12.4c3.9-0.1,7.8,1,11.2,3.1v8.8
	c-3.3-2.7-6.7-4.3-10.9-4.3c-3.6,0-5.6,1.8-5.6,4.4c0,3,2.4,4.2,7.3,5.5C116.4,60.3,119.7,64,119.7,71.1z"/>
</svg>
