<svg id="Layer_1" data-name="Layer 1" xmlns="http://www.w3.org/2000/svg" viewBox="0 0 71.09 50"><title>Social and EHO Icon Library_K-MASTER</title><path id="Triangle" d="M28.2,34.179l19.209-9.952L28.2,14.2Z" fill="#fff"/><g id="Lozenge"><path d="M70.38,10.745s-.695-4.9-2.826-7.056A10.167,10.167,0,0,0,60.431.677C50.483-.042,35.56-.042,35.56-.042h-.031s-14.922,0-24.87.719A10.168,10.168,0,0,0,3.536,3.688C1.4,5.846.711,10.745.711,10.745A107.521,107.521,0,0,0,0,22.25v5.393A107.517,107.517,0,0,0,.711,39.149s.694,4.9,2.825,7.056c2.7,2.832,6.256,2.742,7.839,3.039,5.687.545,24.17.714,24.17.714s14.938-.022,24.886-.742a10.168,10.168,0,0,0,7.123-3.011c2.131-2.157,2.826-7.056,2.826-7.056a107.663,107.663,0,0,0,.71-11.505V22.25A107.667,107.667,0,0,0,70.38,10.745ZM28.206,34.179l0-19.974L47.411,24.227Z"/></g></svg>