<svg xmlns="http://www.w3.org/2000/svg" width="120" height="25" viewBox="0 0 120 25"><defs><style>.cls-1 { fill: #fff; fill-rule: evenodd; }</style></defs><path id="極上体験_" class="cls-1" d="M11.263 20.182h3c1.632 0 2.31-.576 2.6-2.208l1.209-6.865a16.888 16.888 0 0 0 .719 4.368 14.872 14.872 0 0 1-1.7 1.776l1.228 2.568c.436-.432.755-.744 1.629-1.752a14.387 14.387 0 0 0 1.428 2.112l2.346-2.688a9.4 9.4 0 0 1-1.859-2.256 31.894 31.894 0 0 0 3.168-8.857h-5.531l-.53 3.02h2.88a15.747 15.747 0 0 1-1.158 3.168 10.385 10.385 0 0 1-.451-2.616l-2.133.936.824-4.68h-2.185c.119-.264.384-.816.47-1.032h8.3l.566-3.216h-15.14l-.566 3.22h3.432a22.385 22.385 0 0 1-1.94 3.792h3.888l-1.331 7.561a1.289 1.289 0 0 1-.21.648.928.928 0 0 1-.649.144l1.34-7.609h-5.161l-.495 2.809a12.026 12.026 0 0 1-1.416-3l.123-.7h1.776l.592-3.36h-1.776l.7-3.984h-3.263l-.7 3.984h-2.3l-.598 3.364h2.017a18.079 18.079 0 0 1-3.606 6.312l.366 4.872a17 17 0 0 0 2.234-3.864l-1.42 8.089h3.264l1.776-10.081a10.834 10.834 0 0 0 .759 1.824l1.329-2.64-.824 4.68h3.072zm1.158-7.8l-.511 2.9h-1.057l.511-2.9h1.056zm-5.354 8.184l-.549 3.12h15.889l.55-3.12h-15.89zm30.655-19.13l-3.212 18.242h-8.881l-.659 3.744h22.754l.659-3.744h-10.009l1.454-8.257h8.785l.664-3.768h-8.785l1.095-6.217h-3.865zm20.219 19.01a33.885 33.885 0 0 0 2.744-2.5l-.465 2.644h3.024l-.634 3.6h3.552l.634-3.6h3.024l.461-2.616a18.214 18.214 0 0 0 1.67 2.376l2.571-3.7a19.831 19.831 0 0 1-4.528-8.089h5.544l.63-3.576h-6.624l.63-3.576h-3.553l-.63 3.576h-6.168l-.63 3.576h5.28a33.277 33.277 0 0 1-7.761 8.089l1.623-9.217a26.55 26.55 0 0 0 2.459-5.784l-3.473-.309a19.6 19.6 0 0 1-5.161 8.593l.053 5.016a9.616 9.616 0 0 0 1.548-1.3l-1.856 10.541h3.48l1.268-7.2zm3.418-3.192a29.063 29.063 0 0 0 3.229-4.3l-.757 4.3h-2.472zm6.777-4.272a20.415 20.415 0 0 0 1.744 4.272h-2.5zm30.15-4.945c.651.528.973.744 1.359 1.008l2.026-3.192a9.789 9.789 0 0 1-4.395-4.344h-3.72a15.445 15.445 0 0 1-5.594 4.368h-1.993l.2-1.152h2.52l.465-2.64h-9.354l-2.358 13.368h6.7a48.484 48.484 0 0 1-1.293 5.161 1.362 1.362 0 0 1-1.383.768h-1.876l.1 2.832h2.28c1.56 0 2.3-.384 3.1-2.76l1.218 2.76a12.969 12.969 0 0 0 5.989-4.7 8.346 8.346 0 0 0 4.483 4.8l2.222-3.216a7.015 7.015 0 0 1-3.874-3.216h3.336l1.331-7.561h-4.339l.19-1.08h2.448zm-7.964 1.2h2.208l-.19 1.08h-4.033l-1.331 7.561h2.976a10.638 10.638 0 0 1-4.788 3.336 68.754 68.754 0 0 0 1.986-8.281h-2.424l.207-1.176h1.992l.435-2.472h-1.991l.207-1.176h1.992l.266-1.509.852 2.52a17.991 17.991 0 0 0 1.851-1.1zm-7.074-1.128l-.208 1.176h-1.56l.207-1.176h1.56zm.6-3.384l-.2 1.152h-1.56l.2-1.152h1.56zm-1.238 7.033l-.21 1.175h-1.56l.207-1.176h1.56zm10.09-5.377a19.586 19.586 0 0 0 2.35-2.3 14.663 14.663 0 0 0 1.562 2.3h-3.912zm1.717 8.785a15.4 15.4 0 0 0 .468-2.112h1.56l-.375 2.111h-1.656zm-4.32 0l.372-2.112h1.461a11.2 11.2 0 0 1-.492 2.112h-1.344zm-13.177 1.343a16.918 16.918 0 0 1-1.838 5.256l1.22 1.248a25.34 25.34 0 0 0 1.998-6.408zm1.951.1c-.046.264-.07.672-.1.864a30.955 30.955 0 0 1-.952 3.768l1.474-.192c.068-.384.31-1.488.433-2.184.1-.576.258-1.872.3-2.256h-1.155zm1.7-.1a21.73 21.73 0 0 1-.462 3.984l1.218-.24a26.469 26.469 0 0 0 .3-3.888zm1.65-.24a17.531 17.531 0 0 1-.164 3.384l1.074-.24a17.468 17.468 0 0 0 0-3.264zm28.004-15.974l-.794 4.5h4.8l-3.378 19.139h4.979l4.173-23.639h-9.78z"/></svg>