<svg xmlns="http://www.w3.org/2000/svg" width="375" height="22" viewBox="0 0 375 22"><defs><style>.cls-1 { fill: #fff; fill-rule: evenodd; }</style></defs><path id="応募締切_:_2020年3月31日_火_" class="cls-1" d="M8.157 10.463a23.4 23.4 0 0 1-3.108 7.9l2.577 1.232c1.525-2.288 2.725-6.6 3.155-8.669zm1.792 8.691a1.348 1.348 0 0 0 1.476 1.738h3.785a2.383 2.383 0 0 0 1.976-1.1 20.534 20.534 0 0 0 1.51-4.577l-2.606-.572c-.123.572-.5 2.354-.694 2.816a.426.426 0 0 1-.458.352h-.99a.411.411 0 0 1-.409-.55l1.313-7.461h-3.252zm1.551-12.054c3.082 1.364 4.021 2.156 4.914 3.08l2.486-2.512a20.09 20.09 0 0 0-4.379-2.728h9.549l.554-3.146h-8.185l.3-1.694h-3.368l-.3 1.694h-7.831l-1.764 10.006a18.464 18.464 0 0 1-2.748 6.738l2.172 2.53a14.941 14.941 0 0 0 2.617-4.863 44.09 44.09 0 0 0 1.307-4.8l1.14-6.465h5.523zm6.458 3.433a21.418 21.418 0 0 1 .671 8.933l3.421-.682a32.729 32.729 0 0 0-.844-9.2zm10.888 6.117h3.388c-1.012.748-2.94 1.452-6.063 1.694l.714 2.816c3.047-.308 6.673-1.408 8.914-4.511h3.081c-.3 1.562-.691 1.672-1.2 1.672h-2.6l-.018 2.728h3.762c1.562 0 2.534-1.144 3.356-4.313a11.146 11.146 0 0 0 2.42 1.186l1.95-2.949c-2.5-.682-3.2-1.078-4.144-1.958h4.071l.419-2.376h-10.852a6.187 6.187 0 0 0 .413-.594h8.537l1.062-6.029h-2.6l.12-.682h4.6l.424-2.421h-4.6l.139-.792h-3.316l-.139.792h-4.621l.14-.792h-3.257l-.139.792h-5.017l-.426 2.42h5.016l-.12.682h-2.992l-1.062 6.029h4.819c-.26.352-.345.462-.457.594h-6.491l-.419 2.376h3.872a13.845 13.845 0 0 1-4.5 1.694l.853 2.9a19.594 19.594 0 0 0 3-1.166zm13.663-10.984l-.12.682h-10.276l.12-.682h10.276zm-6.992-1.65l.12-.682h4.621l-.12.682h-4.622zm6.624 3.741l-.128.726h-10.276l.128-.726h10.276zm-9.858 6.623a19.112 19.112 0 0 0 1.627-1.364h4.313a5.35 5.35 0 0 0 1.014 1.364h-2.157l.331-.88-3.011-.155a7.586 7.586 0 0 1-.4 1.034h-1.717zm18.654 6.62h2.552l1.643-9.329.965-.11-.031.924 2.45-.792-.056-.682h.42l-1.508 8.559h2.662l1.159-6.579h1.144l-1.411 8.009h2.75l1.411-8.009h1.144l-.547 3.1a.377.377 0 0 1-.448.418h-.724l.073 3.08h1.43c1.606 0 1.91-.726 2.108-1.848l1.186-6.733h.991l.9-5.127h-1.8a10.42 10.42 0 0 0 .691-1.672h1.628l.481-2.724h-4.887l.236-1.342h-3.212l-.237 1.342h-4.73l-.283 1.607-2.1-.792c-.55.748-1.185 1.606-2.454 3.19-.36-.484-.415-.55-.533-.726a26.459 26.459 0 0 0 2.964-4.115l-2.606-.572a22.373 22.373 0 0 1-1.818 2.948l-.451-.44-1.774 2.839a9.969 9.969 0 0 1 2.076 2.576c-.378.4-.845.924-1.248 1.342-.4.022-.976.044-1.262.044l-.335 2.9c.76-.066 1.607-.132 2.977-.286zm9.941-10.715l.295-1.672h1.936l-.295 1.672h-1.936zm4.981-1.672h1.98l-.295 1.672h-1.98zm1.105-4.4a8.839 8.839 0 0 1-.735 1.672h-2.529a13.35 13.35 0 0 0-.145-1.672h3.41zm-11.244 3.499c.084.4.165.814.25 1.452l-2.066.11a68.645 68.645 0 0 0 5.059-5.474l-.074.418h1.54c.023.242.148 1.408.19 1.672h-1.87l-.555 3.142a17.235 17.235 0 0 0-.417-2zm-6.02 5.215a24.079 24.079 0 0 1-1.731 5.457l1.912 1.386a34.684 34.684 0 0 0 1.9-6.535zm5.663.33a29.322 29.322 0 0 1-.543 5.083l2.24-.352a26.372 26.372 0 0 0 .312-5.017zm23.383 8.009c7.447-4.181 9.026-9.021 10.584-17.118h2.134c-.292 1.782-1.8 10.474-2.9 12.7a1.192 1.192 0 0 1-1.358.836h-2.771l.057 3.3h3.895a3.314 3.314 0 0 0 2.49-1.144c1.567-2.024 2.613-7.965 4.551-18.967h-12.279l-.577 3.275h3.428c-1.446 7.833-2.785 9.813-5.166 11.838a20.892 20.892 0 0 0 1.549-4.423l-2.452-.572c-.609 2.706-.788 3.1-1.163 3.1h-.61c-.4 0-.373-.132-.326-.4l.868-4.901 4.022-.726.423-3.278-3.861.682.934-5.3h-3.281l-1.043 5.916-1.749.308-.493 3.3 1.66-.308-1.019 5.787c-.263 1.5.493 2.2 1.571 2.2h2.464a3.087 3.087 0 0 0 .837-.132 16.074 16.074 0 0 1-2.319 1.3zm29.088-15.292l-.655 3.719h3.721l.655-3.719h-3.719zm-1.627 9.241l-.655 3.719h3.718l.655-3.719h-3.718zm28.705-2.838a8.064 8.064 0 0 0 3.678-1.518c1.282-1.034 1.746-3.168 1.885-3.961.927-5.259-2.819-5.479-6.824-5.479-7.085 0-7.954 2.31-8.676 6.161h3.564c.475-2.442.9-2.86 4.883-2.86 3.344 0 3.715.77 3.428 2.4-.256 1.452-.847 1.936-2.506 2.112l-5.746.638c-4.375.484-5.067 4.159-5.388 5.985l-.543 3.08h15.578l.582-3.3h-11.97l.1-.55c.29-1.65 1.191-1.892 2.429-2.046zm24.55-2.112c1.352-7.679.084-8.845-6.429-8.845-6.447 0-8.056 1.386-9.369 8.845-1.353 7.679-.062 8.845 6.429 8.845 6.469 0 8.055-1.386 9.369-8.845zm-6.923-5.545c2.157 0 3.435.11 3.67 1.276a22.285 22.285 0 0 1-.44 4.621c-.845 4.8-1.354 5.193-4.919 5.193-4.159 0-4.509-.132-3.564-5.5.95-5.392 1.359-5.59 5.253-5.59zm21.532 7.657a8.056 8.056 0 0 0 3.677-1.518c1.283-1.034 1.747-3.168 1.886-3.961.927-5.259-2.819-5.479-6.824-5.479-7.085 0-7.954 2.31-8.676 6.161h3.566c.475-2.442.9-2.86 4.883-2.86 3.344 0 3.715.77 3.428 2.4-.256 1.452-.847 1.936-2.506 2.112l-5.746.638c-4.375.484-5.067 4.159-5.388 5.985l-.543 3.08h15.572l.582-3.3h-11.97l.1-.55c.29-1.65 1.191-1.892 2.429-2.046zm24.55-2.112c1.352-7.679.084-8.845-6.429-8.845-6.447 0-8.056 1.386-9.37 8.845-1.352 7.679-.061 8.845 6.43 8.845 6.469 0 8.055-1.386 9.369-8.845zm-6.921-5.545c2.157 0 3.435.11 3.67 1.276a22.285 22.285 0 0 1-.44 4.621c-.845 4.8-1.355 5.193-4.919 5.193-4.159 0-4.509-.132-3.564-5.5.953-5.392 1.353-5.59 5.253-5.59zm12.7 8.471h-3.02l-.558 3.168h10.078l-.818 4.641h3.388l.818-4.643h7.437l.558-3.168h-7.437l.516-2.926h5.938l.542-3.08h-5.942l.373-2.112h6.644l.563-3.171h-13.026a12.036 12.036 0 0 0 .777-1.54l-3.331-.437a16.556 16.556 0 0 1-5.632 6.491l1.645 2.9a16.094 16.094 0 0 0 1.36-1.1zm2-6.007a19.052 19.052 0 0 0 1.868-2.112h4.621l-.372 2.112h-6.117zm5.574 3.08l-.515 2.926h-3.759l.516-2.926h3.762zm13.626 2.553c-.857 4.863.035 6.293 7.12 6.293 3.763 0 7.657-.374 8.506-5.193.543-3.08-1.137-3.785-1.751-4.049a4.292 4.292 0 0 0 2.78-3.543c.861-4.885-3.514-4.907-6.814-4.907-5.655 0-7.6 1.166-8.513 5.853h3.609c.3-1.716.552-2.508 4.138-2.508 2.685 0 4.261.044 3.916 2-.321 1.826-1.686 1.826-2.676 1.826h-3.608l-.507 2.911h3.609c1.1 0 2.61.044 2.246 2.112-.337 1.914-2.012 2.178-4.146 2.178-4.6 0-4.763-.44-4.274-2.97h-3.635zm33.608 4.049a.727.727 0 0 1-.732.66h-3.719l-.057 3.474h5.127a2.55 2.55 0 0 0 2.466-2.134l3.163-17.955h-15.89l-1.627 9.241a15.7 15.7 0 0 1-4.218 8.581l2.636 2.4a21.538 21.538 0 0 0 4.043-6.843h9.264zm-6.767-12.784h9.021l-.349 1.98h-9.021zm-.88 4.995h9.021l-.38 2.156h-9.021zm17.27 3.741c-.857 4.863.035 6.293 7.12 6.293 3.763 0 7.657-.374 8.506-5.193.543-3.08-1.138-3.785-1.751-4.049a4.292 4.292 0 0 0 2.78-3.543c.861-4.885-3.514-4.907-6.815-4.907-5.654 0-7.6 1.166-8.512 5.853h3.609c.3-1.716.552-2.508 4.138-2.508 2.685 0 4.261.044 3.916 2-.322 1.826-1.686 1.826-2.676 1.826h-3.608l-.512 2.9h3.608c1.1 0 2.611.044 2.247 2.112-.337 1.914-2.012 2.178-4.146 2.178-4.6 0-4.764-.44-4.274-2.97h-3.63zm22.26-11.218l-.581 3.3h3.52l-2.472 14.038h3.63l3.054-17.338h-7.151zm14.3 19.253h3.521l.155-.88h9.945l-.155.88h3.521l3.5-19.869h-16.991zm15.609-12.195h-9.945l.771-4.379h9.945zm-1.414 8.031h-9.946l.853-4.841h9.945zm18.622-16.546a17.631 17.631 0 0 0-6.15 10.43c-1.058 6.027 1.609 9.351 2.476 10.427h3.85c-1.911-1.892-3.9-5.193-2.981-10.429a16.37 16.37 0 0 1 6.655-10.428h-3.85zm11.644 9.571a27.408 27.408 0 0 0-1.91-7.019l-3.43 1.232a27.725 27.725 0 0 1 1.682 7.063zm10.607 1.364a30.938 30.938 0 0 0 4.552-7.478l-3.44-1.078a31.247 31.247 0 0 1-4.08 7.173zm-7.981-4.907c-1.31 7.437-6.376 9.967-10.69 11.6l1.554 3.168c7.037-2.97 9.065-6.865 9.8-8.273a11.216 11.216 0 0 0 7.256 8.273l2.66-3.235c-3.858-1.584-6-3.3-6.787-6.689a12.207 12.207 0 0 1-.18-4.973l1.035-5.875h-3.587zm16.548 14.829a17.63 17.63 0 0 0 6.15-10.429c1.062-6.029-1.609-9.351-2.475-10.43h-3.851c1.911 1.892 3.9 5.193 2.982 10.43a16.37 16.37 0 0 1-6.656 10.429h3.85z"/></svg>