<svg xmlns="http://www.w3.org/2000/svg" width="60" height="60" viewBox="0 0 60 60"><defs><style>.cls-1{fill:#f6f7fc;opacity:0;}.cls-2{fill:#fff;opacity:0.5;}</style></defs><g id="最終形"><rect class="cls-1" width="60" height="60"/></g><g id="レイヤー_4" data-name="レイヤー 4"><path class="cls-2" d="M309,985a1,1,0,0,1-1,1H294a3,3,0,0,1-3-3V948a1,1,0,0,1,.29-.71l7-7A1,1,0,0,1,299,940h27a3,3,0,0,1,3,3v23a1,1,0,0,1-2,0V943a1,1,0,0,0-1-1H299.41L293,948.41V983a1,1,0,0,0,1,1h14A1,1,0,0,1,309,985Zm-7-39v5h-5a1,1,0,0,0,0,2h6a1,1,0,0,0,1-1v-6a1,1,0,0,0-2,0Zm30,33a11,11,0,1,1-11-11A11,11,0,0,1,332,979Zm-6,4H316v2h10Zm0-6h-3.5v-5h-3v5H316l5,5Z" transform="translate(-280 -933)"/></g></svg>