<svg id="レイヤー_2" data-name="レイヤー 2" xmlns="http://www.w3.org/2000/svg" xmlns:xlink="http://www.w3.org/1999/xlink" width="641.87" height="42.64" viewBox="0 0 641.87 42.64"><defs><style>.cls-1{fill:#00873c;}.cls-2{fill:url(#新規グラデーションスウォッチ_1);}.cls-3{fill:#231815;}</style><linearGradient id="新規グラデーションスウォッチ_1" x1="174.01" y1="162.47" x2="174.01" y2="107.99" gradientUnits="userSpaceOnUse"><stop offset="0" stop-color="#00561f"/><stop offset="0.08" stop-color="#007028"/><stop offset="0.17" stop-color="#008831"/><stop offset="0.26" stop-color="#009a37"/><stop offset="0.36" stop-color="#00a43b"/><stop offset="0.49" stop-color="#00a73c"/><stop offset="0.54" stop-color="#19ab38"/><stop offset="0.62" stop-color="#38b134"/><stop offset="0.7" stop-color="#50b530"/><stop offset="0.79" stop-color="#62b82e"/><stop offset="0.89" stop-color="#6cb92c"/><stop offset="1" stop-color="#6fba2c"/></linearGradient></defs><path class="cls-1" d="M483.54,117.43v2.63H462.07v16.65H479.5v2.63H462.07v16.18h21.47v2.65h-28.3V117.43Z" transform="translate(-93.06 -116.49)"/><path class="cls-1" d="M490.82,158.17h-3.59l17.16-20.1-15.64-20.64h8.13l11.82,15.64L522,117.43h3.63l-15.29,17.88,17.35,22.86h-8.17l-13.48-17.85Z" transform="translate(-93.06 -116.49)"/><path class="cls-1" d="M532.9,117.43h12.91a22.09,22.09,0,0,1,6,.77,14.94,14.94,0,0,1,4.86,2.27,11.15,11.15,0,0,1,3.26,3.65,10,10,0,0,1,1.21,4.95,9.9,9.9,0,0,1-1.16,4.84,10.87,10.87,0,0,1-3,3.42,13.38,13.38,0,0,1-4.3,2,18.54,18.54,0,0,1-4.9.66c-.71,0-1.45,0-2.23-.06s-1.54-.09-2.25-.16l-2-.21a11.77,11.77,0,0,1-1.47-.28v18.88H532.9ZM539.75,137c.76.21,1.58.42,2.47.61a12.33,12.33,0,0,0,2.7.29,10.71,10.71,0,0,0,3.89-.65,7.56,7.56,0,0,0,2.74-1.82,7.44,7.44,0,0,0,1.63-2.68,9.68,9.68,0,0,0,.54-3.3,9.21,9.21,0,0,0-.71-3.72,8.17,8.17,0,0,0-2-2.85,8.61,8.61,0,0,0-2.89-1.82,10,10,0,0,0-3.56-.64h-4.86Z" transform="translate(-93.06 -116.49)"/><path class="cls-1" d="M587.79,159.13a23.41,23.41,0,0,1-6-.77,22.44,22.44,0,0,1-5.38-2.2,21.66,21.66,0,0,1-4.54-3.37,21.17,21.17,0,0,1-3.48-4.37,21.62,21.62,0,0,1-2.23-5.14,21,21,0,0,1-.79-5.73,20.08,20.08,0,0,1,.79-5.62,20.51,20.51,0,0,1,5.71-9.28,22.68,22.68,0,0,1,9.92-5.41,24.78,24.78,0,0,1,12.1,0,22.92,22.92,0,0,1,5.39,2.12,22.65,22.65,0,0,1,4.52,3.29,19.87,19.87,0,0,1,3.48,4.25,20.27,20.27,0,0,1,2.22,5,19.73,19.73,0,0,1,.8,5.62,20.56,20.56,0,0,1-.8,5.71,21,21,0,0,1-2.22,5.16,20.52,20.52,0,0,1-3.48,4.37,21.54,21.54,0,0,1-4.52,3.37,22.68,22.68,0,0,1-5.39,2.2A23.51,23.51,0,0,1,587.79,159.13Zm0-2.06a12.57,12.57,0,0,0,6.18-1.46,13,13,0,0,0,4.52-4.06,19.64,19.64,0,0,0,2.78-6.19,30.51,30.51,0,0,0,.94-7.81,29.38,29.38,0,0,0-.94-7.68,18.57,18.57,0,0,0-2.78-6,12.84,12.84,0,0,0-4.52-3.94,13.24,13.24,0,0,0-6.18-1.4,13.46,13.46,0,0,0-6.26,1.4,12.59,12.59,0,0,0-4.52,3.94,18.12,18.12,0,0,0-2.74,6,30.28,30.28,0,0,0-.92,7.68,31.45,31.45,0,0,0,.92,7.81,19.15,19.15,0,0,0,2.74,6.19,12.57,12.57,0,0,0,10.78,5.52Z" transform="translate(-93.06 -116.49)"/><path class="cls-2" d="M186.26,140a3,3,0,0,1,0-3.86l14.66-16.34c1-1.06.57-1.93-.86-1.93H187.62a6.65,6.65,0,0,0-4.32,1.93L174,130.12l5.38,6a3,3,0,0,1,0,3.86L174,146l9.29,10.37a6.73,6.73,0,0,0,4.32,1.91h12.44c1.43,0,1.81-.87.86-1.91Zm-17.62-3.86,5.37-6-9.28-10.34a6.68,6.68,0,0,0-4.33-1.93H148c-1.42,0-1.81.87-.86,1.93l14.66,16.34a3,3,0,0,1,0,3.86L147.1,156.34c-.95,1-.56,1.91.86,1.91H160.4a6.76,6.76,0,0,0,4.33-1.91L174,146l-5.37-6A3,3,0,0,1,168.64,136.12Z" transform="translate(-93.06 -116.49)"/><polygon class="cls-3" points="156.78 41.7 187.2 41.7 187.2 37.51 166.76 37.51 166.76 22.26 183.74 22.26 183.74 18.77 166.76 18.77 166.76 4.41 187.2 4.41 187.2 0.95 156.78 0.95 156.78 41.7"/><path class="cls-3" d="M307.78,116.54h-4.31l-19.89,41.64h7.2l3.8-8.18h18l3.58,8.18h10.75Zm-11.58,30,7.64-16.43L311,146.51Z" transform="translate(-93.06 -116.49)"/><polygon class="cls-3" points="140.38 19.71 123.98 19.71 123.98 0.95 114 0.95 114 41.7 123.98 41.7 123.98 23.21 140.38 23.21 140.38 41.7 150.28 41.7 150.28 0.95 140.38 0.95 140.38 19.71"/><polygon class="cls-3" points="248.38 0.95 238.38 0.95 238.38 41.7 269.18 41.7 269.18 37.51 248.38 37.51 248.38 0.95"/><polygon class="cls-3" points="334.24 0.95 334.24 19.71 317.84 19.71 317.84 0.95 307.86 0.95 307.86 41.7 317.84 41.7 317.84 23.21 334.24 23.21 334.24 41.7 344.14 41.7 344.14 0.95 334.24 0.95"/><polygon class="cls-3" points="263.64 4.41 277.74 4.41 277.74 41.7 287.73 41.7 287.73 4.41 301.83 4.41 301.83 0.95 263.64 0.95 263.64 4.41"/><path class="cls-3" d="M110.69,128.55v19.56l0,1.75h-3v-2H96.08v2h-3c0-.69.06-1.27.06-1.75V128.55c0-.51,0-1.09-.06-1.75h17.68Zm-3,.87H96.08v6.33h11.66ZM96.08,145.27h11.66v-6.9H96.08Z" transform="translate(-93.06 -116.49)"/><path class="cls-3" d="M121.14,138.65v10.12a9.17,9.17,0,0,0,0,1.12h-2.57a7.47,7.47,0,0,0,0-1.12v-9.85c-1.21.12-2.28.23-3.19.3l-1.15.19-.25-2.63a11.72,11.72,0,0,0,1.48,0l.71,0c.54-.65,1.16-1.43,1.86-2.32a45.2,45.2,0,0,0-3.86-4.06l1.39-2,1,1c.41-.59.81-1.2,1.2-1.85s.69-1.22.91-1.66a7.62,7.62,0,0,0,.44-1.06l2.13,1.49-.27.4a47.42,47.42,0,0,1-2.77,4.46l1.13,1.26c.33-.48.69-1,1.09-1.69s.79-1.3,1.15-2a13.84,13.84,0,0,0,.8-1.61l2.16,1.48-.33.41c-.62,1.08-1.39,2.3-2.33,3.67s-1.86,2.63-2.79,3.77c1.12-.07,2.16-.17,3.15-.3a14.66,14.66,0,0,0-.82-2.06l2-.59a24,24,0,0,1,.94,2.26c.32.88.56,1.59.7,2.13s.24.9.27,1.08l-2.21.72-.3-1.43Zm-6.84,8.59a22.62,22.62,0,0,0,1.14-6.82l2.28.47-.08.52a25.36,25.36,0,0,1-1.21,7.11Zm9.71-7a27,27,0,0,1,.65,2.67c.22,1.15.4,2.27.53,3.34l-2.27.66a23.59,23.59,0,0,0-.3-3c-.19-1.16-.39-2.2-.61-3.14Zm13.85,6.64c.82,0,1.4,0,1.75,0v2.67c-.32,0-.91,0-1.75,0H126.17c-.84,0-1.43,0-1.77,0v-2.67c.34,0,.93,0,1.77,0h4.9v-3.74h-3.2l-1.53,0v-2.57c.3,0,.82,0,1.53,0h3.2V138.4a7.38,7.38,0,0,0,0-.9c.33,0,.81,0,1.44,0l1.35.06a6,6,0,0,0-.06.8v2.22H137q1.06,0,1.53,0v2.57l-1.53,0h-3.26v3.74ZM125.55,135.5a19,19,0,0,0,4.92-1.57,11.91,11.91,0,0,1-1.69-2.2,12.57,12.57,0,0,1-1.29-2.69h-.3l-1.4,0v-2.46l1.4,0h8.92l.28-.3q.44.3,1.11.87a15.51,15.51,0,0,1,1.26,1.1l-.35.19a11.48,11.48,0,0,1-1.07,2.25,16,16,0,0,1-1.39,1.94c-.48.55-.9,1-1.26,1.34a9.49,9.49,0,0,0,1.73.74,23.66,23.66,0,0,0,3.16.71c-.36.89-.69,1.76-1,2.57a32,32,0,0,1-3.37-1,12.18,12.18,0,0,1-2.57-1.31,14.06,14.06,0,0,1-2.63,1.34,31.93,31.93,0,0,1-3.36,1.07,5.48,5.48,0,0,0-.22-.57c-.11-.25-.28-.61-.49-1.12s-.36-.81-.41-.94m9.91-6.46h-5.32a11.21,11.21,0,0,0,1.13,2,8.79,8.79,0,0,0,1.44,1.61,9.1,9.1,0,0,0,1.55-1.6,10.35,10.35,0,0,0,1.2-2" transform="translate(-93.06 -116.49)"/><path class="cls-1" d="M621.88,158.17v-1.1q4.53-4.29,7.85-7.57c2.22-2.18,4.09-4.11,5.63-5.8s2.79-3.17,3.76-4.42a26.59,26.59,0,0,0,2.25-3.38,11.29,11.29,0,0,0,1.1-2.73,10.6,10.6,0,0,0,.29-2.5,11.45,11.45,0,0,0-.56-3.5,9.42,9.42,0,0,0-1.69-3,8.29,8.29,0,0,0-2.76-2.11,9,9,0,0,0-3.85-.79,9.92,9.92,0,0,0-3.34.59,11.7,11.7,0,0,0-3,1.58,9.75,9.75,0,0,0-2.24,2.34,7.26,7.26,0,0,0-1.17,2.86H623a11.72,11.72,0,0,1,1.3-4.72,14.06,14.06,0,0,1,2.91-3.86,13.56,13.56,0,0,1,4.06-2.6,12.4,12.4,0,0,1,4.79-1,15.54,15.54,0,0,1,5.56.91,11.35,11.35,0,0,1,4,2.44,10.23,10.23,0,0,1,2.42,3.57,11.41,11.41,0,0,1,.82,4.29,12.07,12.07,0,0,1-1.05,4.77,25.13,25.13,0,0,1-3.38,5.4,82.57,82.57,0,0,1-6.08,6.78q-3.73,3.81-9.15,8.89h21.78l-3,4.63Z" transform="translate(-93.06 -116.49)"/><path class="cls-1" d="M669.21,159.13a12.3,12.3,0,0,1-6.15-1.59,14.7,14.7,0,0,1-4.74-4.47,22.32,22.32,0,0,1-3.06-6.83,32.93,32.93,0,0,1-1.08-8.69,30,30,0,0,1,1.08-8.17,22.6,22.6,0,0,1,3.06-6.69,15.23,15.23,0,0,1,4.74-4.53,12.18,12.18,0,0,1,12.31,0,15.45,15.45,0,0,1,4.74,4.53,22.58,22.58,0,0,1,3,6.69,29.65,29.65,0,0,1,1.09,8.17,32.51,32.51,0,0,1-1.09,8.69,22.31,22.31,0,0,1-3,6.83,14.9,14.9,0,0,1-4.74,4.47A12.37,12.37,0,0,1,669.21,159.13Zm0-2.06a4.56,4.56,0,0,0,2.51-.71,7.74,7.74,0,0,0,2.07-2.05,13.37,13.37,0,0,0,1.59-3.14,27.22,27.22,0,0,0,1.12-4,38.61,38.61,0,0,0,.68-4.61c.16-1.64.22-3.32.22-5a50.21,50.21,0,0,0-.5-7.32,26.68,26.68,0,0,0-1.52-6.06,11.56,11.56,0,0,0-2.55-4.13,5,5,0,0,0-3.62-1.53A4.89,4.89,0,0,0,665.6,120a11.41,11.41,0,0,0-2.54,4.13,27.77,27.77,0,0,0-1.52,6.06,53.22,53.22,0,0,0-.49,7.32c0,1.71.08,3.39.22,5a40.76,40.76,0,0,0,.68,4.61,27.2,27.2,0,0,0,1.13,4,13.74,13.74,0,0,0,1.57,3.14,7.83,7.83,0,0,0,2.05,2.05A4.58,4.58,0,0,0,669.21,157.07Z" transform="translate(-93.06 -116.49)"/><path class="cls-1" d="M687.3,158.17v-1.1c3-2.86,5.64-5.38,7.86-7.57s4.08-4.11,5.62-5.8,2.79-3.17,3.76-4.42a24.6,24.6,0,0,0,2.25-3.38,10.9,10.9,0,0,0,1.1-2.73,11.15,11.15,0,0,0,.29-2.5,10.61,10.61,0,0,0-.57-3.5,9.21,9.21,0,0,0-1.68-3,8.19,8.19,0,0,0-2.76-2.11,9,9,0,0,0-3.85-.79,9.87,9.87,0,0,0-3.33.59,11.7,11.7,0,0,0-3,1.58,9.79,9.79,0,0,0-2.25,2.34,7.57,7.57,0,0,0-1.17,2.86h-1.19a12.06,12.06,0,0,1,1.31-4.72,14.06,14.06,0,0,1,2.91-3.86,13.63,13.63,0,0,1,4-2.6,12.42,12.42,0,0,1,4.8-1,15.49,15.49,0,0,1,5.55.91,11.35,11.35,0,0,1,4,2.44,10.23,10.23,0,0,1,2.42,3.57,11.41,11.41,0,0,1,.81,4.29,12,12,0,0,1-1,4.77,25.54,25.54,0,0,1-3.38,5.4,84.46,84.46,0,0,1-6.08,6.78q-3.75,3.81-9.16,8.89h21.79l-3,4.63Z" transform="translate(-93.06 -116.49)"/><path class="cls-1" d="M729.13,158.17V123.68h-6.84V122a11.29,11.29,0,0,0,6-1.44,9.31,9.31,0,0,0,3.46-4h3.2v41.68Z" transform="translate(-93.06 -116.49)"/></svg>