<svg xmlns="http://www.w3.org/2000/svg" viewBox="0 0 27.64 34.02"><defs><style>.cls-1{fill:#fff;}.cls-2{fill:#231815;}.cls-3,.cls-4,.cls-5{fill:none;}.cls-3,.cls-5{stroke:#231815;}.cls-3{stroke-width:0.56px;}.cls-4{stroke:#fff;stroke-width:3.05px;}.cls-5{stroke-width:1.52px;}</style></defs><title>ceroZ_s</title><g id="レイヤー_2" data-name="レイヤー 2"><g id="レイヤー_1-2" data-name="レイヤー 1"><rect class="cls-1" width="27.64" height="34.02" rx="1.91"/><path class="cls-2" d="M25.51,4.25a2.12,2.12,0,0,0-2.12-2.12H4.25A2.12,2.12,0,0,0,2.13,4.25V26.9H25.51Z"/><path class="cls-3" d="M4.25,2.13H23.39a2.13,2.13,0,0,1,2.13,2.13V29.76a2.13,2.13,0,0,1-2.13,2.13H4.25a2.12,2.12,0,0,1-2.12-2.12V4.25A2.13,2.13,0,0,1,4.25,2.13Z"/><path class="cls-1" d="M8,4.22a2.67,2.67,0,0,0-1.45-.45c-1.18,0-1.52.95-1.52,2C5,7,5.57,7.94,6.86,7.94a4,4,0,0,0,1.87-.57L8.29,8.64a6.63,6.63,0,0,1-1.72.2A3.26,3.26,0,0,1,4.25,8.1a2.9,2.9,0,0,1-1-2.26,3,3,0,0,1,.94-2.17A3.69,3.69,0,0,1,6.59,2.9L7.9,3Z"/><path class="cls-1" d="M10.86,7.77a2.31,2.31,0,0,0,.91.13A1.5,1.5,0,0,0,13,7.42h.05l-.35,1.31H8.89v0c.43-.26.37-.75.37-1.2V4.26c0-.45.06-.94-.37-1.2V3h3a.88.88,0,0,0,.37,0h0V4.25h0c-.24-.41-.73-.37-1.15-.37h-.28V5.29h.8a.72.72,0,0,0,.32,0h0V6.45h0c-.12-.34-.52-.31-.84-.31h-.28Z"/><path class="cls-1" d="M15.19,6.29l1,1.89a1,1,0,0,0,1.16.58l1.2-.08a3.88,3.88,0,0,1-.84-1l-1-1.72a1.53,1.53,0,0,0,1-1.37,1.41,1.41,0,0,0-.77-1.32A2.28,2.28,0,0,0,15.79,3H13.22v0c.43.27.37.76.37,1.21V7.49c0,.45.06.95-.37,1.21v0h2.33v0c-.42-.26-.36-.76-.36-1.21Zm.08-2.42a.83.83,0,0,1,.51.13.88.88,0,0,1,.34.73,1.12,1.12,0,0,1-.93,1.1v-2h.08"/><path class="cls-1" d="M18.08,5.87a2.94,2.94,0,0,0,3.15,3,3,3,0,0,0,3.26-3,2.86,2.86,0,0,0-3.15-3A3,3,0,0,0,18.08,5.87Zm1.68-.24c0-.89.45-1.87,1.47-1.87,1.19,0,1.58,1.41,1.58,2.4a2,2,0,0,1-.32,1.21,1.33,1.33,0,0,1-2.32-.14,3.69,3.69,0,0,1-.41-1.6"/><path class="cls-4" d="M13.07,21.34H20v2.95H7.79V21.34l6.69-7H8.05V11.42h11.7v2.95Z"/><path class="cls-5" d="M13.07,21.34H20v2.95H7.79V21.34l6.69-7H8.05V11.42h11.7v2.95Z"/><path class="cls-2" d="M13.07,21.34H20v2.95H7.79V21.34l6.69-7H8.05V11.42h11.7v2.95Z"/><path class="cls-1" d="M12.82,21.34h6.94v2.95H7.53V21.34l6.7-7H7.79V11.42H19.5v2.95Z"/><path class="cls-2" d="M4.11,27.73v3.14h-.3V28.16H3.42v-.43Z"/><path class="cls-2" d="M5.77,28.11c.33,0,.49.1.49.44s-.1.5-.48.5-.5,0-.5-.47S5.35,28.11,5.77,28.11Zm-.52,1.12a.37.37,0,0,0-.21.22,1.65,1.65,0,0,0-.1.56c0,.78.42.89.83.89s.82-.16.82-.9a1.43,1.43,0,0,0-.1-.55.36.36,0,0,0-.21-.22c.24-.14.27-.53.27-.68,0-.83-.52-.85-.78-.85s-.78,0-.78.84C5,28.69,5,29.09,5.25,29.23Zm.51.2c.31,0,.54.06.54.51s-.1.54-.54.54-.53-.16-.53-.52S5.35,29.43,5.76,29.43Z"/><path class="cls-2" d="M6.81,30.12A3.25,3.25,0,0,0,8,29.49v-.93H6.81v-.41H8v-.66h.27v.66h.86v.41H8.29v.68a2,2,0,0,0,.39-.55L8.9,29a2.75,2.75,0,0,1-.61.76v1.19c0,.2-.08.32-.23.32h-.5l0-.42h.42c.08,0,.08,0,.08-.12v-.75a4.38,4.38,0,0,1-1.11.58Z"/><path class="cls-2" d="M11.47,27.59h-.28v.68c0,1-.08,2.16-1.1,2.55l.14.41a1.77,1.77,0,0,0,.87-.88,5.38,5.38,0,0,1,.38.86l.22-.36a5.67,5.67,0,0,0-.46-.85,5.92,5.92,0,0,0,.23-1.7ZM9.37,30.9a8.92,8.92,0,0,0,1.18-.73l-.05-.38c-.27.19-.67.42-.67.42V27.56H9.55v2.8a2,2,0,0,1-.23.11ZM10.09,28A6.66,6.66,0,0,1,10.57,29l.24-.26a5,5,0,0,0-.52-1.06Z"/><path class="cls-2" d="M12.81,27.49v3.18h-1v.42h2.38v-.42H13.08V29.12H14v-.43h-.95v-1.2Z"/><path class="cls-2" d="M15.4,28.24a8,8,0,0,1-.21,1.68c0,.09-.1.37-.25.37s-.23-.24-.23-.66S14.8,28.4,15.4,28.24Zm.11,2.8c.26,0,1.15-.1,1.15-1.68,0-.66-.22-1.56-1.05-1.56s-1.17.81-1.17,1.77c0,.56.16,1.15.49,1.15.61,0,.71-1.75.76-2.5.53.05.66.63.66,1.1,0,1.23-.61,1.28-.91,1.3Z"/><path class="cls-2" d="M18.7,28.34c0,.2,0,.46-.06.85A2,2,0,0,0,18.1,29c0-.15,0-.4.06-.64,0-.53,0-.59.05-.66H17.13v.42h.77c0,.37,0,.55-.07.87A1,1,0,0,0,17,30.08c0,.29.11.72.41.72s.6-.88.67-1.38a2.11,2.11,0,0,1,.53.19,1.29,1.29,0,0,1-.62,1.1l.17.34a1.7,1.7,0,0,0,.71-1.28c.13.09.19.15.29.23l.1-.44a1.78,1.78,0,0,0-.32-.23c0-.34.06-.59.08-.94Zm-.92,1c0,.28-.15,1-.39,1-.08,0-.15-.09-.15-.3S17.28,29.43,17.78,29.38Z"/><path class="cls-2" d="M20.58,29.18a6.87,6.87,0,0,1,.31,1.06l.26-.2A5.58,5.58,0,0,0,20.81,29Zm-1.11-.11a4.85,4.85,0,0,1,.47.69,3.12,3.12,0,0,1-.56,1l.18.37a3.48,3.48,0,0,0,.56-1c.14.28.22.5.28.63l.21-.26a4.4,4.4,0,0,0-.36-.78,9.64,9.64,0,0,0,.2-1.2h.15v-.41h-.44v-.61h-.27v.61h-.47v.41h.76a5,5,0,0,1-.13.87c-.2-.32-.32-.49-.39-.58Zm1.81-1.59v.74h-.61v.43h.61v2.07c0,.08,0,.09-.09.09H20.8l.07.41h.38c.2,0,.3,0,.3-.36V28.65h.21v-.43h-.21v-.74Z"/><path class="cls-2" d="M22.38,28.27a1.75,1.75,0,0,0,.24-.25h.72a1,1,0,0,1-.16.25ZM22,30.6a2.45,2.45,0,0,0,1-.53.74.74,0,0,1,0,.14,2.78,2.78,0,0,1-1.11.57l.08.35a3.13,3.13,0,0,0,1.06-.6c0,.24,0,.3-.15.3h-.22l.06.4H23c.14,0,.34,0,.34-.59a2.4,2.4,0,0,0-.18-.92l-.1-.18a3.25,3.25,0,0,0,.3-.26c.12,1.22.48,1.58.83,1.85l.16-.37a2,2,0,0,1-.48-.51,2.87,2.87,0,0,0,.4-.46L24,29.5a2.48,2.48,0,0,1-.34.43,3.62,3.62,0,0,1-.12-.65h.56v-1h-.58A1.89,1.89,0,0,0,23.7,28V27.7h-.87l.08-.15-.27-.09a1.45,1.45,0,0,1-.75.74l.1.35a1,1,0,0,0,.12-.07v.8h.83a2.83,2.83,0,0,1-1,.41l.08.32a2.36,2.36,0,0,0,.74-.31l.07.11a2,2,0,0,1-.93.44Zm.95-2V29h-.63v-.37Zm.9,0V29h-.66v-.37Z"/></g></g></svg>