<?xml version="1.0" encoding="utf-8"?>
<!-- Generator: Adobe Illustrator 21.1.0, SVG Export Plug-In . SVG Version: 6.00 Build 0)  -->
<svg version="1.1" id="レイヤー_1" xmlns="http://www.w3.org/2000/svg" xmlns:xlink="http://www.w3.org/1999/xlink" x="0px"
	 y="0px" width="268.3px" height="317.1px" viewBox="0 0 268.3 317.1" style="enable-background:new 0 0 268.3 317.1;"
	 xml:space="preserve">
<style type="text/css">
	.st0{fill:#00557F;stroke:#00557F;stroke-width:10;stroke-linecap:round;stroke-linejoin:round;}
</style>
<g>
	<path class="st0" d="M90.5,222.7h149.8c8.3,0,15-6.7,15-15l0,0V49.4c0-8.3-6.7-15-15-15H90.5c-8.3,0-15,6.7-15,15v158.3
		C75.5,216,82.2,222.7,90.5,222.7z M93.7,65.5c0-6.6,5.4-11.9,11.9-11.9H225c6.6,0,11.9,5.4,11.9,11.9v126.2
		c0,6.6-5.3,11.9-11.9,11.9c0,0,0,0,0,0H105.7c-6.6,0-11.9-5.3-11.9-11.9V65.5z"/>
	<path class="st0" d="M28.1,94.6h28.1v19.1H43.3c-6.6,0-11.9,5.4-11.9,11.9v126.2c0,6.6,5.3,11.9,11.9,11.9h119.4
		c6.6,0,11.9-5.3,11.9-11.9c0,0,0,0,0,0v-12.9h18.2v29c0,8.3-6.7,15-15,15l0,0H28.1c-8.3,0-15-6.7-15-15l0,0V109.6
		C13.1,101.3,19.8,94.6,28.1,94.6z"/>
</g>
</svg>
