<svg id="レイヤー_1" data-name="レイヤー 1" xmlns="http://www.w3.org/2000/svg" viewBox="0 0 560 210"><defs><style>.cls-1{fill:#e6e6e6;}.cls-2{fill:#fff;}.cls-3{fill:#3c3c3c;}.cls-4{fill:#ff9600;}</style></defs><title>アートボード 9</title><rect class="cls-1" width="560" height="210" rx="10"/><path class="cls-2" d="M555,65V200a5,5,0,0,1-5,5H10a5,5,0,0,1-5-5V65Z"/><path class="cls-3" d="M41.94,26.65c-.18.26-.18.26-.54,1.62A26.21,26.21,0,0,1,38,35.78a22.35,22.35,0,0,1-6.4,5.95,23.43,23.43,0,0,1-4.78,2.32,5,5,0,0,0-1.28-1.79,20.06,20.06,0,0,0,5.88-2.76c4.26-2.86,6.73-6.58,8.19-12.4H26.4a18.28,18.28,0,0,0-2.92.15V25.17a18.6,18.6,0,0,0,2.94.16h12.3a3.71,3.71,0,0,0,1.69-.21Zm-1.09-5.48a19.12,19.12,0,0,1,2.34,3.53l-1.32.6a17.08,17.08,0,0,0-2.32-3.59Zm2.47-1a20.45,20.45,0,0,1,2.37,3.54l-1.33.6A18,18,0,0,0,42,20.7Z"/><path class="cls-3" d="M48.26,31.83a18.69,18.69,0,0,0,3.23.15h15.1a19.77,19.77,0,0,0,3.15-.13V34a29.46,29.46,0,0,0-3.17-.1H51.49a28.35,28.35,0,0,0-3.23.1Z"/><path class="cls-3" d="M93.94,43.11a48.2,48.2,0,0,0-8.32-8,28.31,28.31,0,0,1-5,4.65,33.36,33.36,0,0,1-5.1,3.12,5.65,5.65,0,0,0-1.27-1.71,21.3,21.3,0,0,0,5.28-3,28.22,28.22,0,0,0,9.28-11.73,3.24,3.24,0,0,1,.13-.31.91.91,0,0,0,.08-.18,5.93,5.93,0,0,1-.63,0l-8.68.13a18,18,0,0,0-2.68.21l0-2.11a11.58,11.58,0,0,0,2,.13h.68l9.28-.1A4.8,4.8,0,0,0,90.69,24l1.1,1.12a4.62,4.62,0,0,0-.73,1.27,31.79,31.79,0,0,1-4.29,7.29,65.07,65.07,0,0,1,8.66,7.79Z"/><path class="cls-3" d="M110,24.16c-2.57.18-5.22.31-7.85.34a4.81,4.81,0,0,0-.7-1.51c1,0,1.58,0,2.13,0,6,0,12.12-.72,15.26-1.79L120,22.7l-.49.08-.55.1c-1.9.39-5.28.89-7.41,1.12v3.93h3.12A18.31,18.31,0,0,0,116.77,24l1.59.6a26.21,26.21,0,0,1-2,3.33h3.12a14.15,14.15,0,0,0,2.62-.16v1.69a18.89,18.89,0,0,0-2.62-.15h-6.4a24.61,24.61,0,0,0,10,5,5.84,5.84,0,0,0-.91,1.56C120,35,119.87,35,118.9,34.51c0,.59,0,.8,0,1.45v6.48a16.17,16.17,0,0,0,.15,2.44h-1.69v-1.4H104.66v1.4H103a17,17,0,0,0,.15-2.42V36c0-.52,0-1.07,0-1.46a31.34,31.34,0,0,1-3,1.3,4.24,4.24,0,0,0-.93-1.45,23.25,23.25,0,0,0,9.28-5.07h-6.09a18.89,18.89,0,0,0-2.62.15V27.77a16.16,16.16,0,0,0,2.62.16h2.94a16,16,0,0,0-1.61-2.6l1.38-.6a20.7,20.7,0,0,1,1.87,3.2h3Zm6.76,9.75h.89a21.68,21.68,0,0,1-6.19-4.47c0,.15,0,.23,0,.41,0,.37,0,.47,0,.6v.94a15.51,15.51,0,0,0,.08,1.76h-1.74a11.86,11.86,0,0,0,.1-1.76v-.91a7.18,7.18,0,0,1,.11-1,19.86,19.86,0,0,1-5.78,4.45h12.43Zm-12.11,4H110V35.26h-5.38Zm0,4.19H110V39.24h-5.38Zm6.89-4.19h5.79V35.26h-5.79Zm0,4.19h5.75V39.24h-5.75Z"/><path class="cls-3" d="M128.11,32.82a19.54,19.54,0,0,0-2.68.15V31.13a18.75,18.75,0,0,0,2.68.15h17.78a19.22,19.22,0,0,0,2.71-.15V33a20,20,0,0,0-2.71-.15h-12a29.55,29.55,0,0,1-1.28,2.7h9.49a26.67,26.67,0,0,0,2.91-.1,2.42,2.42,0,0,0-.07.47c-.11.91-.11.91-.19,1.35-.49,3.69-1,5.64-1.71,6.44-.52.63-1.35.86-3,.86-1.2,0-2.81-.1-4.34-.26a5.71,5.71,0,0,0-.39-1.74A35.08,35.08,0,0,0,140,43c1.17,0,1.56-.13,1.85-.65A18.31,18.31,0,0,0,143.08,37H131.85c-.49.83-.73,1.19-1.45,2.26l-1.85-.39a24.36,24.36,0,0,0,3.51-6Zm.83-8.82a16.57,16.57,0,0,0-.1-1.95,25.14,25.14,0,0,0,2.91.13h10.42a19.41,19.41,0,0,0,2.94-.13A14.66,14.66,0,0,0,145,24v3.38a14.35,14.35,0,0,0,.1,1.93,25.38,25.38,0,0,0-2.73-.11H131.59a26.41,26.41,0,0,0-2.75.11,17.18,17.18,0,0,0,.1-1.93Zm1.64-.36v4.13h12.76V23.64Z"/><path class="cls-3" d="M161.86,36c-1.51,3.43-3.05,5-4.92,5-2.47,0-4.31-2.71-4.31-6.35A10.55,10.55,0,0,1,163.75,24a10.07,10.07,0,0,1,7.15,2.57,8.71,8.71,0,0,1,2.53,6.34,9.48,9.48,0,0,1-6,9,20.49,20.49,0,0,1-3.95,1.19,4.13,4.13,0,0,0-.91-1.74A15.53,15.53,0,0,0,167,40.1a7.85,7.85,0,0,0,4.6-7.28,6.84,6.84,0,0,0-4.13-6.53,7.4,7.4,0,0,0-3-.65A39,39,0,0,1,161.86,36Zm-3.2-9.07a9,9,0,0,0-4.24,7.75c0,2.49,1.09,4.42,2.5,4.42,1.09,0,2.13-1.22,3.25-3.77a36.15,36.15,0,0,0,2.36-9.62A8.15,8.15,0,0,0,158.66,26.89Z"/><path class="cls-3" d="M183.72,37.24c-1.45,0-2.13,0-2.94.07a19,19,0,0,0,.13-2.72V25.77a33.27,33.27,0,0,0-.13-3.46,21.24,21.24,0,0,0,2.79.13h10.86a27.39,27.39,0,0,0,2.79-.13,33.69,33.69,0,0,0-.13,3.46v8.82a18.56,18.56,0,0,0,.13,2.72c-.73-.05-1.51-.07-2.92-.07H192v4.7c0,.81.26.89,2.91.89,2.47,0,3.07-.11,3.44-.65a9,9,0,0,0,.62-3.41,7.58,7.58,0,0,0,1.64.7c-.6,4.66-.89,4.89-5.83,4.89-2.13,0-3.3-.13-3.82-.44s-.62-.62-.62-1.46V37.24h-3.17A7.7,7.7,0,0,1,184.92,42c-1.54,1.48-3.43,2.37-6.66,3.07a5.19,5.19,0,0,0-.91-1.56,15.88,15.88,0,0,0,4-1.09A6.52,6.52,0,0,0,184.94,39a5.9,5.9,0,0,0,.47-1.79Zm-1.19-10.43h12.94V24H182.53Zm0,4.45h12.94v-3H182.53Zm0,4.55h12.94v-3.1H182.53Z"/><path class="cls-3" d="M213.91,23.66a14.64,14.64,0,0,0-.18-2.28h2.08a12,12,0,0,0-.16,2.28v1.95h8a18.38,18.38,0,0,0,3-.18v1.95a16.41,16.41,0,0,0-2.94-.15H213.8a34.35,34.35,0,0,1-.36,3.71h7.1a15.88,15.88,0,0,0,2.68-.13c-.05.52-.08.81-.13,1.83a55.28,55.28,0,0,1-1,8.86c-.55,2.24-1.17,2.78-3.25,2.78a35.18,35.18,0,0,1-3.62-.23,5.52,5.52,0,0,0-.41-1.85,20.74,20.74,0,0,0,3.92.42c1.12,0,1.38-.31,1.77-2.24a50.45,50.45,0,0,0,.81-7.87h-8.17a17.35,17.35,0,0,1-2.47,6.65,16.57,16.57,0,0,1-3.22,3.59,15.74,15.74,0,0,1-2.83,1.9,5.06,5.06,0,0,0-1.28-1.46A13.43,13.43,0,0,0,208.63,39c2.13-2.76,3.15-6.29,3.35-11.75h-5.46a21,21,0,0,0-2.91.15V25.43a17.52,17.52,0,0,0,2.89.18h7.41Z"/><path class="cls-4" d="M200,86a4.05,4.05,0,0,1,4,4v40a4.05,4.05,0,0,1-4,4H29a4.05,4.05,0,0,1-4-4V90a4.05,4.05,0,0,1,4-4H200m0-6H29A10,10,0,0,0,19,90v40a10,10,0,0,0,10,10H200a10,10,0,0,0,10-10V90a10,10,0,0,0-10-10Z"/><rect class="cls-4" x="19" y="80" width="131" height="60" rx="10"/><path class="cls-2" d="M39.62,111.22c.17.1.27.21.27.33s-.27.23-.54.21A26.51,26.51,0,0,1,35,117.24a15.2,15.2,0,0,0-2.41-1.78,16,16,0,0,0,4.6-5.67Zm1.32-9.91,2.8.1c.27,0,.46.06.46.25s-.17.23-.36.32v3.82H50.9v2.56H43.84v7.94c0,1.45,0,3.17-3.38,3.17-.38,0-1,0-1.43-.09a8,8,0,0,0-.9-2.81,15.07,15.07,0,0,0,1.91.19c.9,0,.9-.32.9-1.64v-6.76H33.87V105.8h7.07Zm6.56,8.35A28.56,28.56,0,0,1,51.82,115c-.71.54-1.72,1.49-2.16,1.91a28.56,28.56,0,0,0-4.26-5.63Z"/><path class="cls-2" d="M72.57,109v3H54.45v-3Z"/><path class="cls-2" d="M82.08,102.48c.21,0,.49,0,.49.27s-.21.34-.38.4v5.15c0,5.33-2.37,7.72-5.23,10a9.17,9.17,0,0,0-2.37-2c4-2.54,4.55-4.92,4.55-7.81v-6.16Zm5.21-.19c.23,0,.4,0,.4.23s-.21.3-.4.4v11a22,22,0,0,0,6-5.85,7.94,7.94,0,0,0,1.4,2.6,31.36,31.36,0,0,1-6,5.9c-1.75,1.26-1.93,1.41-2.48,1.87l-1.93-1.26c0-.57.08-1.09.08-1.66V102.15Z"/><path class="cls-2" d="M112.05,120h-2.5v-.77h-8.08V120H99v-7c-.67.42-1.32.78-2,1.14a6.84,6.84,0,0,0-1.78-2,21.16,21.16,0,0,0,6.53-4.07H95.9v-2.06h4.31A11.13,11.13,0,0,0,99,104.48l1.14-.55c-.36,0-2,.06-2.29.06a7.21,7.21,0,0,0-.68-2.16c.55,0,3.7.06,3.93.06a43.11,43.11,0,0,0,6.72-.56,17.25,17.25,0,0,0,3.34-.84l1.49,1.8c.17.21.23.3.23.46s-.13.19-.25.19a2.58,2.58,0,0,1-.76-.27,16.83,16.83,0,0,1-1.82.42l2.35.82c.14.06.19.13.19.21s-.24.23-.61.31a15.44,15.44,0,0,1-1.14,1.66h4.33v2.06H109a19.9,19.9,0,0,0,6.74,3.91,5.83,5.83,0,0,0-1.61,2,22.47,22.47,0,0,1-2-1Zm-2.25-8.35a16.4,16.4,0,0,1-3.08-2.71v2.25h-2.48v-2.15a24.36,24.36,0,0,1-3.13,2.61Zm-5.56,3v-1h-2.77v1Zm0,2.69v-1h-2.77v1Zm0-13.55c-.61,0-1.83.11-2.58.13a11.34,11.34,0,0,1,1.19,1.74l-1.15.44h2.54Zm4,1.77a9.36,9.36,0,0,0,1.45-2.38,27.32,27.32,0,0,1-3,.4v2.52h3.06Zm1.3,9.09v-1h-2.83v1Zm-2.83,1.64v1h2.83v-1Z"/><path class="cls-2" d="M133.38,112.33a20.06,20.06,0,0,1-1.4,6.09c-.67,1.22-1.62,1.72-4.31,1.72-.46,0-.75,0-1.07,0a6,6,0,0,0-.63-2.5,11,11,0,0,0,2.06.21c1.22,0,1.91-.17,2.31-3.34h-7.58a14.66,14.66,0,0,1-1,2,7.11,7.11,0,0,0-2.52-.78,25.26,25.26,0,0,0,2.33-4.83h-4.68v-2.08h19.21v2.08H124.23c-.4,1-.44,1.15-.57,1.47Zm-.14-11v6.11H119.76v-6.11Zm-10.9,2.08v1.89h8.29v-1.89Z"/><path class="cls-3" d="M183.6,123.16h-4.8v-17h-5.38v-3.52c2.69-.13,5.25-.45,6.37-4.67h3.81Z"/><path class="cls-4" d="M529,86a4.05,4.05,0,0,1,4,4v40a4.05,4.05,0,0,1-4,4H248a4.05,4.05,0,0,1-4-4V90a4.05,4.05,0,0,1,4-4H529m0-6H248a10,10,0,0,0-10,10v40a10,10,0,0,0,10,10H529a10,10,0,0,0,10-10V90a10,10,0,0,0-10-10Z"/><rect class="cls-4" x="308" y="80" width="231" height="60" rx="10"/><path class="cls-2" d="M326.12,111.22c.17.1.27.21.27.33s-.27.23-.54.21a26.51,26.51,0,0,1-4.35,5.48,15.2,15.2,0,0,0-2.41-1.78,16,16,0,0,0,4.6-5.67Zm1.32-9.91,2.8.1c.27,0,.46.06.46.25s-.17.23-.36.32v3.82h7.06v2.56h-7.06v7.94c0,1.45,0,3.17-3.38,3.17-.38,0-1,0-1.43-.09a8,8,0,0,0-.9-2.81,15.07,15.07,0,0,0,1.91.19c.9,0,.9-.32.9-1.64v-6.76h-7.07V105.8h7.07Zm6.56,8.35a28.56,28.56,0,0,1,4.32,5.38c-.71.54-1.72,1.49-2.16,1.91a28.56,28.56,0,0,0-4.26-5.63Z"/><path class="cls-2" d="M359.07,109v3H341v-3Z"/><path class="cls-2" d="M368.58,102.48c.21,0,.49,0,.49.27s-.21.34-.38.4v5.15c0,5.33-2.37,7.72-5.23,10a9.17,9.17,0,0,0-2.37-2c4-2.54,4.55-4.92,4.55-7.81v-6.16Zm5.21-.19c.23,0,.4,0,.4.23s-.21.3-.4.4v11a22,22,0,0,0,6-5.85,7.94,7.94,0,0,0,1.4,2.6,31.36,31.36,0,0,1-6,5.9c-1.75,1.26-1.93,1.41-2.48,1.87l-1.93-1.26c0-.57.08-1.09.08-1.66V102.15Z"/><path class="cls-2" d="M400.84,104.18v13.57c0,1,0,2.35-2.84,2.35l-1.55,0a5.79,5.79,0,0,0-.95-2.81,13,13,0,0,0,1.92.23c.33,0,.77,0,.77-.88V113.9a6.8,6.8,0,0,0-1.61,1.81,9.61,9.61,0,0,1-4.5-4.89,13.74,13.74,0,0,1-4.7,5.35,5.81,5.81,0,0,0-1.53-2v5.83h-2.67V104.18h7.47v-3.4l2.8.15c.1,0,.46,0,.46.27s-.23.34-.55.42v2.31c0,.06,0,.19,0,.25Zm-15,9.7a8.6,8.6,0,0,0,4.74-7.2h-4.74Zm7.51-7.2a7,7,0,0,0,1.26,3.88,10.38,10.38,0,0,0,3.57,3v-6.93Z"/><path class="cls-2" d="M422.28,104.33c-5.25,0-9.91,4.28-9.91,8.13,0,2.45,1.72,4.05,6.17,4.38a15.58,15.58,0,0,0-1.32,3.17c-3.19-.71-7.67-2.54-7.67-7.3,0-2.82,1.6-5.23,4.41-7.39a88.61,88.61,0,0,0-9.57,1.32l-.4-3.38a13.12,13.12,0,0,0,1.37.06,82,82,0,0,0,16.37-2Zm-3.51,3.38A28.51,28.51,0,0,1,420.6,110a15.4,15.4,0,0,0-1.41,1.22,18.28,18.28,0,0,0-1.78-2.34Zm2-1.55a14.29,14.29,0,0,1,1.91,2.22,11.11,11.11,0,0,0-1.37,1.2,16.89,16.89,0,0,0-1.84-2.37Z"/><path class="cls-2" d="M434.21,116.82c5-.94,6.23-4.64,6.23-6.84a5.34,5.34,0,0,0-5.35-5.48c-.71,7.83-3.74,13.46-5.9,13.46-1.62,0-4.45-2.65-4.45-6.41a10.09,10.09,0,0,1,10-9.61c4.48,0,8.49,3,8.49,8a9.26,9.26,0,0,1-2.48,6.36,11.45,11.45,0,0,1-4.72,3A13.37,13.37,0,0,0,434.21,116.82Zm-6.8-5.46c0,1.79.94,3.19,1.59,3.19s1.2-1.42,1.53-2.26a19.91,19.91,0,0,0,1.58-7.29A7.29,7.29,0,0,0,427.41,111.36Z"/><path class="cls-2" d="M450.25,109v5.86c.15,1.59.44,2.64,3.51,2.64,7.58,0,8.52,0,11.21-.48a5.31,5.31,0,0,0-.88,2.56h-9.76c-3,0-4.18-.46-5.21-1.93-.44.4-1.37,1.2-2.29,1.91a1.62,1.62,0,0,1,0,.3c0,.16-.06.33-.23.33s-.25-.15-.34-.29l-1.32-2.4a16.44,16.44,0,0,0,2.71-1.53v-4.64h-2.14V109ZM447,100.91a19.68,19.68,0,0,1,3.69,3.1c-.54.51-.86.87-1.82,1.89a27.34,27.34,0,0,0-3.43-3.19Zm9.3,12.66h-2.14v3.19h-2.36v-10.9h3.49c-.94-.71-1.51-1.07-2-1.36l1.15-1.2h-2.56v-2h9.57l.93,1.1a28,28,0,0,1-3.95,3.5h4.77v8.8c0,1.57-.93,2.14-3.34,2.18a5.88,5.88,0,0,0-.72-2.2,10.18,10.18,0,0,0,1.12.08c.58,0,.58-.25.58-.5v-.65h-2.22v2.83h-2.35Zm0-5.84h-2.14V109h2.14Zm0,2.92h-2.14v1.22h2.14ZM455,103.3c.61.46,1.55,1.13,1.87,1.37a13.77,13.77,0,0,0,1.74-1.37Zm3.63,5.65h2.22v-1.22h-2.22Zm0,2.92h2.22v-1.22h-2.22Z"/><path class="cls-2" d="M473.5,101.64c.33,0,.48.07.48.3s-.29.31-.46.35a64.1,64.1,0,0,0-.61,9.43c0,3.61.34,5,2.29,5,3.57,0,6.74-4.26,7.6-6.11a13.92,13.92,0,0,0,2.12,2.35c-3.42,5.5-7.51,6.72-10,6.72-4.77,0-4.92-4.54-4.92-8.74,0-1.32.24-7.16.24-8.35,0-.86,0-1-.05-1.43Z"/><path class="cls-2" d="M503.55,120h-2.5v-.77H493V120h-2.46v-7c-.67.42-1.32.78-2,1.14a7,7,0,0,0-1.79-2,21.16,21.16,0,0,0,6.53-4.07H487.4v-2.06h4.31a11.13,11.13,0,0,0-1.18-1.61l1.14-.55c-.36,0-2,.06-2.29.06a7.21,7.21,0,0,0-.68-2.16c.55,0,3.7.06,3.93.06a43.11,43.11,0,0,0,6.72-.56,17.25,17.25,0,0,0,3.34-.84l1.49,1.8c.17.21.23.3.23.46s-.13.19-.25.19a2.58,2.58,0,0,1-.76-.27,16.83,16.83,0,0,1-1.82.42l2.35.82c.14.06.19.13.19.21s-.24.23-.61.31a15.44,15.44,0,0,1-1.14,1.66h4.33v2.06h-6.24a19.9,19.9,0,0,0,6.74,3.91,6.1,6.1,0,0,0-1.62,2c-1.09-.48-1.59-.75-2-1Zm-2.25-8.35a16.4,16.4,0,0,1-3.08-2.71v2.25h-2.48v-2.15a24.36,24.36,0,0,1-3.13,2.61Zm-5.56,3v-1H493v1Zm0,2.69v-1H493v1Zm0-13.55c-.61,0-1.83.11-2.58.13a11.34,11.34,0,0,1,1.19,1.74l-1.15.44h2.54Zm4,1.77a9.36,9.36,0,0,0,1.45-2.38,27,27,0,0,1-3,.4v2.52h3.06Zm1.3,9.09v-1h-2.83v1Zm-2.83,1.64v1h2.83v-1Z"/><path class="cls-2" d="M524.88,112.33a20.06,20.06,0,0,1-1.4,6.09c-.67,1.22-1.62,1.72-4.31,1.72-.46,0-.75,0-1.07,0a6,6,0,0,0-.63-2.5,11,11,0,0,0,2.06.21c1.22,0,1.91-.17,2.31-3.34h-7.58a14.66,14.66,0,0,1-1,2,7.11,7.11,0,0,0-2.52-.78,25.26,25.26,0,0,0,2.33-4.83h-4.68v-2.08h19.21v2.08H515.73c-.4,1-.44,1.15-.57,1.47Zm-.14-11v6.11H511.26v-6.11Zm-10.9,2.08v1.89h8.29v-1.89Z"/><path class="cls-3" d="M276.5,110.55c0,4.51-1.19,13.31-10.63,13.31s-10.62-8.76-10.62-13.31c0-4.35,1.09-13.31,10.62-13.31S276.5,106,276.5,110.55Zm-16.32,0c0,1.38,0,9.28,5.69,9.28s5.67-7.9,5.67-9.28,0-9.28-5.67-9.28S260.18,109.05,260.18,110.55Z"/><path class="cls-3" d="M293.74,123.16h-4.8v-17h-5.37v-3.52c2.68-.13,5.25-.45,6.36-4.67h3.81Z"/><path class="cls-3" d="M228.64,112v4h-9.28v-4Z"/><path class="cls-3" d="M22.7,168,22,167.3l6.83-6.8L22,153.7l.68-.67,6.8,6.82L36.3,153l.67.67-6.82,6.8L37,167.3l-.67.68-6.8-6.83Zm2.83-7.48a1.76,1.76,0,1,1-1.74-1.74A1.75,1.75,0,0,1,25.53,160.5Zm5.71-5.71A1.74,1.74,0,1,1,29.5,153,1.75,1.75,0,0,1,31.24,154.79Zm0,11.42a1.74,1.74,0,1,1-1.74-1.74A1.74,1.74,0,0,1,31.24,166.21ZM37,160.5a1.75,1.75,0,1,1-1.76-1.74A1.75,1.75,0,0,1,37,160.5Z"/><path class="cls-3" d="M52.62,157.67c-.3-3.42-2.65-4.37-4.33-4.37-3.4,0-5,3.46-5,7.08,0,4.66,2.4,6.74,5,6.74,1.2,0,4-.47,4.37-4.6h2.14c-.21,1.3-1,6.42-6.4,6.42-5.08,0-7.23-4.18-7.23-8.56s2.13-8.91,7.08-8.91c.69,0,5.63,0,6.45,6.2Z"/><path class="cls-3" d="M69.06,151.94v1.8l-9.45,12.94h9.77v1.8H56.88v-1.8l9.45-12.94h-9v-1.8Z"/><path class="cls-3" d="M79.73,156.81v-2.33h2.18v2.33Zm0,9.72V164.2h2.18v2.33Z"/><path class="cls-3" d="M94.31,166.91v-1.75h13v-9.28h-13v-1.74h14.88v13.79h-1.91v-1Z"/><path class="cls-3" d="M116.54,163.4A40.11,40.11,0,0,1,129.69,168a17.81,17.81,0,0,0-.61,1.83,36.72,36.72,0,0,0-13-4.75Zm.8-12.14a35.9,35.9,0,0,1,11.23,3,8.23,8.23,0,0,0-.39,1.87c-2.73-1.56-7-2.63-11.11-3.19Zm1,6.13a28.15,28.15,0,0,1,9.2,2.94,6.43,6.43,0,0,0-.44,1.83,23.71,23.71,0,0,0-9.16-3.09Z"/><path class="cls-3" d="M136.62,168v-1.49h8.23l1.41-7.77h-7.18v-1.55h9.17l-1.72,9.32H151V168Z"/><path class="cls-3" d="M155.84,166.8V165h18v1.76Zm2.58-10.9v-1.74H171.2v1.74Z"/><path class="cls-3" d="M187.14,159.64c0,2.27-.16,7.75-7.2,10a6.61,6.61,0,0,0-1.34-1.49c5.94-1.66,6.72-5.23,6.72-8.55H177V158H194.6v1.68ZM179.92,154v-1.68h11.82V154Z"/><path class="cls-3" d="M212.2,155.93a30.56,30.56,0,0,1-4.31,3.9v9.64h-1.66V161a31.43,31.43,0,0,1-5.92,2.86,5.56,5.56,0,0,0-1.17-1.36,23.27,23.27,0,0,0,12.05-8.11l1.38,1a.48.48,0,0,1,.24.34C212.81,156,212.6,156,212.2,155.93Z"/><path class="cls-3" d="M221.06,153.36a22.25,22.25,0,0,1,3.19,5.29,6.15,6.15,0,0,0-1.57,1,24.31,24.31,0,0,0-3.15-5.27Zm14.32,1.37c.21.06.38.12.38.27s-.19.3-.46.27c-1.87,7-4.16,11.09-12,14.2a6.43,6.43,0,0,0-1.33-1.56c5-1.74,7.29-4,8.49-5.69a19.63,19.63,0,0,0,3.08-8.14Zm-2.29-4.54A11.29,11.29,0,0,1,235,152.4a3.58,3.58,0,0,0-1.13.8,15,15,0,0,0-1.89-2.27Zm3-.08a15.88,15.88,0,0,1,2,2.25,4.51,4.51,0,0,0-1.16.81,11.31,11.31,0,0,0-1.91-2.39Z"/><path class="cls-3" d="M239.92,161.43v-1.85h17.87v1.85Z"/><path class="cls-3" d="M267.76,157.46a23.47,23.47,0,0,0-6-4l1.09-1.56a28.38,28.38,0,0,1,6,4A11.82,11.82,0,0,0,267.76,157.46Zm-4.09,11.34c0,.35-.06.48-.29.48A.47.47,0,0,1,263,169l-1.13-1.89a24.91,24.91,0,0,0,16-11.53,12.35,12.35,0,0,0,1.15,1.64C274.4,164.85,267.09,167.58,263.67,168.8Z"/><path class="cls-3" d="M300.17,151.52a11.78,11.78,0,0,0,0,18l-1.05,1a13.21,13.21,0,0,1,0-20.07Z"/><path class="cls-3" d="M310.16,168.48h-2.05V156.62H304.7V155c1.77-.08,3.26-.5,3.8-3.1h1.66Z"/><path class="cls-3" d="M326.54,157.94a8,8,0,0,1,2,4.85c0,1.76-.74,3.36-3.44,3.4a5.16,5.16,0,0,0-.76-1.85,5.65,5.65,0,0,0,1,.13,1.42,1.42,0,0,0,1.57-1.62,6.43,6.43,0,0,0-2.31-4.7,22.57,22.57,0,0,0,2.29-4.93h-2.81v16.92h-1.58V151.68h5.61l.92.74A37.38,37.38,0,0,1,326.54,157.94Zm7.69.78c-1.58.56-2.75.9-4.89,1.49,0,.21,0,.52-.3.52s-.21-.17-.23-.23l-.57-1.55c.44-.09.72-.15,1.54-.36v-7.72l1.7,0c.14,0,.44,0,.44.23s-.34.38-.53.46v2h3V155h-3v3.13c1.54-.44,2.19-.65,3-.9A4.86,4.86,0,0,0,334.23,158.72Zm3.92,11.38v-.86h-6.82v.86h-1.59v-8.8h2.7a10,10,0,0,0,.8-2.06l1.47.36c.34.08.57.19.57.38s-.11.19-.55.25c-.21.42-.33.71-.52,1.07h5.6v8.8Zm0-7.41h-6.82v1.91h6.82Zm0,3.25h-6.82v1.93h6.82Zm2.88-12.6a3,3,0,0,1-.4-.06,25.05,25.05,0,0,1-4,2.88v1.38c0,.72,0,.86,1,.86h.84c.63,0,1.07,0,1.18-2.1a3.64,3.64,0,0,0,1.51.57c-.25,3.07-1.09,3.07-2.54,3.07h-1.81c-1.49,0-1.78-.59-1.78-2v-7.18l1.72.11c.21,0,.36.08.36.23s-.19.31-.49.44v2.83a13.65,13.65,0,0,0,3-2.56l1.3,1c.12.08.27.21.27.35S341.16,153.34,341,153.34Z"/><path class="cls-3" d="M362.14,153.36v3.24H368V170h-1.72v-1.34H352.67V170H351V156.6h5.5v-3.24h-6.53v-1.55h19.13v1.55Zm4.11,8c-.67,2.5-1.19,2.8-2.62,2.8h-1.3c-1.26,0-1.85-.36-1.85-1.89v-4.08h-2.37a8.53,8.53,0,0,1-3.47,7.27,4.87,4.87,0,0,0-1.28-1.12c2.92-2.12,3-4.22,3.09-6.15h-3.78V167h13.58Zm-5.77-8h-2.33v3.24h2.33Zm5.77,4.83h-4.11v3.51c0,.71.1.8.9.8s1,0,1.2-.28a4.94,4.94,0,0,0,.52-1.86,3.69,3.69,0,0,0,1.49.77Z"/><path class="cls-3" d="M388.6,166.68v1.8H376.25c.15-3.38,2-4.83,5.1-6.89,4.12-2.79,5-3.4,5-5.33,0-2.16-1.91-3-3.67-3-3.89,0-4.05,3.4-4.12,4.56h-2.12c.11-4.08,2.44-6.39,6.28-6.39,3.28,0,5.73,1.77,5.73,4.88,0,2.14-.92,3.52-4.34,5.69-3.87,2.43-4.62,3.27-5.13,4.64Z"/><path class="cls-3" d="M401.83,161.15a24.64,24.64,0,0,1-4.68,5.92,14.61,14.61,0,0,0-1.58-1.13,16.58,16.58,0,0,0,4.91-6.24l1.62.91a.42.42,0,0,1,.25.33C402.35,161.13,402.14,161.17,401.83,161.15Zm4.39-3.36v8.59c0,1.7,0,3-3.26,3-.46,0-.92,0-1.43-.08a7.29,7.29,0,0,0-.52-1.87,12.48,12.48,0,0,0,2.2.21c1.16,0,1.16-.4,1.16-1.79v-8h-7.54v-1.65h7.54v-4.71l1.76.11c.19,0,.46,0,.46.23s-.23.29-.37.33v4h7.41v1.65Zm6.92,9a28.85,28.85,0,0,0-4.61-6.11l1.34-1.07a31.12,31.12,0,0,1,4.68,6A6.67,6.67,0,0,0,413.14,166.8Z"/><path class="cls-3" d="M417.43,161.43v-1.85H435.3v1.85Z"/><path class="cls-3" d="M444.39,153.28v5.16c0,3.47-.6,6.79-5.24,9.83a5,5,0,0,0-1.49-1.32c4.61-2.58,4.82-5.69,4.82-8.32v-6.15l1.85.13c.21,0,.48,0,.48.27S444.6,153.2,444.39,153.28Zm5.46,14.23a5.46,5.46,0,0,0-1.17,1l-1.35-1c0-.41.07-1,.07-1.63V152.31l1.87.09c.23,0,.42,0,.42.23s-.19.27-.42.38v12.57a22,22,0,0,0,7.09-6.59,8.21,8.21,0,0,0,1,1.6A29.16,29.16,0,0,1,449.85,167.51Z"/><path class="cls-3" d="M460,170.54l-1.05-1a11.78,11.78,0,0,0,0-18l1.05-1.05a13.21,13.21,0,0,1,0,20.07Z"/><path class="cls-3" d="M22.7,192,22,191.3l6.83-6.8L22,177.7l.68-.67,6.8,6.82L36.3,177l.67.67-6.82,6.8L37,191.3l-.67.68-6.8-6.83Zm2.83-7.48a1.76,1.76,0,1,1-1.74-1.74A1.75,1.75,0,0,1,25.53,184.5Zm5.71-5.71A1.74,1.74,0,1,1,29.5,177,1.75,1.75,0,0,1,31.24,178.79Zm0,11.42a1.74,1.74,0,1,1-1.74-1.74A1.74,1.74,0,0,1,31.24,190.21ZM37,184.5a1.75,1.75,0,1,1-1.76-1.74A1.75,1.75,0,0,1,37,184.5Z"/><path class="cls-3" d="M43.82,175.94v7.72l9-7.72h3l-7.35,6.38,7.79,10.16H53.48l-6.64-8.82-3,2.46v6.36H41.76V175.94Z"/><path class="cls-3" d="M66.52,180.81v-2.33H68.7v2.33Zm0,9.72V188.2H68.7v2.33Z"/><path class="cls-3" d="M89.87,186.35l1,7.08-1.81.31-1-7.16-8,1-.24-1.72,8-1-.58-3.93-5.86.76L81.14,180l5.81-.74-.54-3.76,1.85-.21c.12,0,.44-.06.44.21s-.09.24-.34.42L88.8,179l5.59-.71.19,1.7-5.53.71.57,3.93,7.62-1,.21,1.72Z"/><path class="cls-3" d="M104.34,185.43a19.46,19.46,0,0,0-2.08-4.33l1.47-.63a19.15,19.15,0,0,1,2.1,4.28A8,8,0,0,0,104.34,185.43Zm12.14-4.62c-1.56,6.32-4.45,10-10.52,12.38a11.55,11.55,0,0,0-1-1.36c2.56-.88,8.69-3.23,10-12.16l1.62.51c.27.08.38.17.38.31S116.71,180.76,116.48,180.81Zm-7.64,3.52a18.18,18.18,0,0,0-2-4.34l1.49-.61a17.38,17.38,0,0,1,2,4.34A7.16,7.16,0,0,0,108.84,184.33Z"/><path class="cls-3" d="M138.38,192.86a27.56,27.56,0,0,0-6.59-6.82,23.38,23.38,0,0,1-9,7.09,4.53,4.53,0,0,0-1.18-1.62c1.94-.69,9-3.56,12.1-13.08H123.39v-1.72H134a6.93,6.93,0,0,0,1.43-.14l1,1a6.84,6.84,0,0,0-.78,1.39,31.94,31.94,0,0,1-2.9,5.75,36.67,36.67,0,0,1,7.12,6.7A9.87,9.87,0,0,0,138.38,192.86Zm0-14.38a9.74,9.74,0,0,0-2-2.29l1-.76a16.49,16.49,0,0,1,2,2.19A4,4,0,0,0,138.4,178.48Zm1.56-1.07a10.7,10.7,0,0,0-2-2.31l1-.74a17.62,17.62,0,0,1,2,2.16A4.37,4.37,0,0,0,140,177.41Z"/><path class="cls-3" d="M157.32,181.29a6.13,6.13,0,0,0,1.77-.21l1.19.86c-.27.46-1.26,2.56-1.47,3-2.24,4.5-4.47,7-10.49,9.05a17.5,17.5,0,0,0-1.31-1.51c5.11-1.39,8.57-3.78,10.61-9.49H143.3v-1.68Zm.51-5.06v1.68H145.78v-1.68Z"/><path class="cls-3" d="M179.79,176.65a1.94,1.94,0,0,1-.42,0,34.11,34.11,0,0,1-5.35,4.93v12.1h-1.91V182.86a38.91,38.91,0,0,1-7.6,3.7,8.57,8.57,0,0,0-1.37-1.6,28.81,28.81,0,0,0,15.08-10.12L180,176.1a.34.34,0,0,1,.17.3C180.13,176.57,180,176.65,179.79,176.65Z"/><path class="cls-3" d="M201.57,178.75c-2.31,6.42-4.47,10.88-12.53,14.7a5.22,5.22,0,0,0-1.37-1.45c6.24-2.61,9.53-5.9,12.05-13.75h-14v-1.7h13.66a3.21,3.21,0,0,0,1.47-.22l1.35,1.2A5.66,5.66,0,0,0,201.57,178.75Z"/><path class="cls-3" d="M207.85,177.36a22.25,22.25,0,0,1,3.19,5.29,6.15,6.15,0,0,0-1.57,1,23.92,23.92,0,0,0-3.15-5.27Zm14.32,1.37c.21.06.38.12.38.27s-.19.3-.46.27c-1.87,7-4.16,11.09-12,14.2a6.43,6.43,0,0,0-1.33-1.56c5-1.74,7.29-4,8.49-5.69a19.63,19.63,0,0,0,3.08-8.14Zm-2.29-4.54a11.29,11.29,0,0,1,1.93,2.21,3.58,3.58,0,0,0-1.13.8,15,15,0,0,0-1.89-2.27Zm3-.08a15.88,15.88,0,0,1,2,2.25,4.51,4.51,0,0,0-1.16.81,11.31,11.31,0,0,0-1.91-2.39Z"/><path class="cls-3" d="M226.71,185.43v-1.85h17.87v1.85Z"/><path class="cls-3" d="M254.56,181.46a23.63,23.63,0,0,0-6-4l1.09-1.56a28.38,28.38,0,0,1,6,4A10.64,10.64,0,0,0,254.56,181.46Zm-4.1,11.34c0,.35-.06.48-.29.48a.47.47,0,0,1-.34-.25l-1.13-1.89a24.88,24.88,0,0,0,16-11.53,12.35,12.35,0,0,0,1.15,1.64C261.19,188.85,253.88,191.58,250.46,192.8Z"/><path class="cls-3" d="M287,175.52a11.78,11.78,0,0,0,0,18l-1,1a13.21,13.21,0,0,1,0-20.07Z"/><path class="cls-3" d="M299,186.77h2.61v1.81H299v3.9H297v-3.9h-8v-1.94l7.93-10.7H299Zm-2.06,0v-8.1l-6,8.1Z"/><path class="cls-3" d="M313.33,181.94a8,8,0,0,1,2,4.85c0,1.76-.73,3.36-3.44,3.4a5.16,5.16,0,0,0-.76-1.85,5.65,5.65,0,0,0,1,.13,1.42,1.42,0,0,0,1.57-1.62,6.43,6.43,0,0,0-2.31-4.7,21.67,21.67,0,0,0,2.29-4.93h-2.81v16.92h-1.58V175.68H315l.93.74A38.65,38.65,0,0,1,313.33,181.94Zm7.69.78c-1.58.56-2.75.9-4.89,1.49,0,.21,0,.52-.3.52s-.21-.17-.23-.23L315,183c.44-.09.71-.15,1.53-.36v-7.72l1.7,0c.15,0,.44,0,.44.23s-.34.38-.53.46v2h3V179h-3v3.13c1.54-.44,2.19-.65,3-.9A4.86,4.86,0,0,0,321,182.72ZM325,194.1v-.86h-6.83v.86h-1.59v-8.8h2.7a10,10,0,0,0,.8-2.06l1.47.36c.34.08.57.19.57.38s-.11.19-.55.25c-.21.42-.33.71-.52,1.07h5.6v8.8Zm0-7.41h-6.83v1.91H325Zm0,3.25h-6.83v1.93H325Zm2.87-12.6a3,3,0,0,1-.4-.06,24.61,24.61,0,0,1-4,2.88v1.38c0,.72,0,.86,1,.86h.84c.63,0,1.07,0,1.18-2.1a3.64,3.64,0,0,0,1.51.57c-.25,3.07-1.09,3.07-2.54,3.07h-1.81c-1.49,0-1.78-.59-1.78-2v-7.18l1.72.11c.21,0,.36.08.36.23s-.19.31-.49.44v2.83a13.65,13.65,0,0,0,3-2.56l1.3,1c.13.08.27.21.27.35S328,177.34,327.82,177.34Z"/><path class="cls-3" d="M348.93,177.36v3.24h5.83V194H353v-1.34H339.46V194h-1.7V180.6h5.5v-3.24h-6.53v-1.55h19.13v1.55Zm4.11,8c-.67,2.5-1.19,2.8-2.62,2.8h-1.3c-1.26,0-1.85-.36-1.85-1.89v-4.08H344.9a8.5,8.5,0,0,1-3.47,7.27,4.87,4.87,0,0,0-1.28-1.12c2.92-2.12,3-4.22,3.09-6.15h-3.78V191H353Zm-5.77-8h-2.33v3.24h2.33Zm5.77,4.83h-4.11v3.51c0,.71.1.8.9.8s1,0,1.2-.28a4.94,4.94,0,0,0,.52-1.86,3.69,3.69,0,0,0,1.49.77Z"/><path class="cls-3" d="M365.2,187c.09,1.28.36,4.08,3.95,4.08,3.05,0,4.12-1.7,4.12-3.4,0-2.74-2.35-3.24-3.64-3.24H368v-1.59h1.42c2.31,0,3.55-1.2,3.55-2.84s-1.49-2.75-3.5-2.75c-3.47,0-3.74,2.5-3.85,3.57h-2.14c.11-1.05.55-5.4,6.09-5.4,3.19,0,5.48,1.7,5.48,4.37a3.65,3.65,0,0,1-3,3.72,4,4,0,0,1,3.28,4.09c0,2.25-1.24,5.29-6.05,5.29-1.95,0-5.92-.29-6.26-5.9Z"/><path class="cls-3" d="M388.62,185.15a24.64,24.64,0,0,1-4.68,5.92,14.61,14.61,0,0,0-1.58-1.13,16.58,16.58,0,0,0,4.91-6.24l1.62.91a.42.42,0,0,1,.25.33C389.14,185.13,388.93,185.17,388.62,185.15Zm4.39-3.36v8.59c0,1.7,0,3-3.26,3-.46,0-.92,0-1.42-.08a7.92,7.92,0,0,0-.53-1.87,12.48,12.48,0,0,0,2.2.21c1.16,0,1.16-.4,1.16-1.79v-8h-7.54v-1.65h7.54v-4.71l1.76.11c.19,0,.46,0,.46.23s-.23.29-.37.33v4h7.41v1.65Zm6.93,9a29.26,29.26,0,0,0-4.62-6.11l1.34-1.07a31.12,31.12,0,0,1,4.68,6A6.29,6.29,0,0,0,399.94,190.8Z"/><path class="cls-3" d="M404.22,185.43v-1.85h17.87v1.85Z"/><path class="cls-3" d="M431.19,177.28v5.16c0,3.47-.61,6.79-5.25,9.83a5,5,0,0,0-1.49-1.32c4.62-2.58,4.82-5.69,4.82-8.32v-6.15l1.85.13c.21,0,.49,0,.49.27S431.4,177.2,431.19,177.28Zm5.45,14.23a5.46,5.46,0,0,0-1.17,1l-1.34-1c0-.41.06-1,.06-1.63V176.31l1.87.09c.23,0,.42,0,.42.23s-.19.27-.42.38v12.57a22,22,0,0,0,7.09-6.59,8.21,8.21,0,0,0,1,1.6A29.16,29.16,0,0,1,436.64,191.51Z"/><path class="cls-3" d="M446.83,194.54l-1.05-1a11.78,11.78,0,0,0,0-18l1.05-1.05a13.21,13.21,0,0,1,0,20.07Z"/></svg>