<svg id="レイヤー_1" data-name="レイヤー 1" xmlns="http://www.w3.org/2000/svg" width="451" height="26" viewBox="0 0 449.73 19.97"><defs><style>.cls-1{fill:#ff9600;}</style></defs><title>アートボード 5</title><path class="cls-1" d="M10.73,19.44H6.38V4.06H0V.53H17.11V4.06H10.73Z"/><path class="cls-1" d="M18.41,12.55c0-5.23,3.67-7.41,7.49-7.41s7.46,2.18,7.46,7.41S29.69,20,25.9,20,18.41,17.76,18.41,12.55ZM25.9,8.09c-2,0-3.46,1.61-3.46,4.54,0,2.2,1.06,4.36,3.46,4.36,2.23,0,3.43-1.92,3.43-4.44S28.13,8.09,25.9,8.09Z"/><path class="cls-1" d="M43.73,19.44V.53H53.9c3.7,0,6,2,6,4.85A3.9,3.9,0,0,1,57,9.29a4.75,4.75,0,0,1,1.82.86A4.63,4.63,0,0,1,60.63,14c0,3.24-2.55,5.47-6.22,5.47Zm4.32-11h4.89A2.21,2.21,0,0,0,55.25,6a2.06,2.06,0,0,0-2.31-2.18H48.05Zm0,7.75h4.87c1.54,0,3.07-.69,3.07-2.61,0-2.12-1.87-2.45-3.07-2.45H48.05Z"/><path class="cls-1" d="M73.08,19.44,73,17.88A5.65,5.65,0,0,1,68.35,20a5.34,5.34,0,0,1-5.47-5.62V5.64h3.86v8.14a3,3,0,0,0,3.17,3,2.91,2.91,0,0,0,3.1-3V5.64h3.86v13.8Z"/><path class="cls-1" d="M88,9.43c0-1.25-1.13-1.68-2.45-1.68-.64,0-2.2.12-2.2,1.3,0,1,1.17,1.32,1.46,1.39,5.33,1.32,7.54,1.87,7.54,4.9,0,2.78-2.5,4.63-6.65,4.63a9.22,9.22,0,0,1-4.47-1,4.42,4.42,0,0,1-2.35-3.79h4c.17,1.87,1.47,2.16,3,2.16,2,0,2.4-1,2.4-1.51,0-1.08-1.08-1.32-2-1.56-4.8-1.18-6.94-1.68-6.94-4.76,0-4.36,5.4-4.36,6.27-4.36a8,8,0,0,1,5.13,1.58A3.67,3.67,0,0,1,92,9.43Z"/><path class="cls-1" d="M99,3.91H95V.53H99Zm0,15.53H95V5.64H99Z"/><path class="cls-1" d="M105.79,5.64l.07,1.58a5.59,5.59,0,0,1,4.66-2.08A5.32,5.32,0,0,1,116,10.73v8.71h-3.86V11.3a2.94,2.94,0,0,0-3.15-3,2.9,2.9,0,0,0-3.12,3v8.14H102V5.64Z"/><path class="cls-1" d="M121.87,13.37c.1,2.3,1.27,3.72,3.62,3.72s2.93-1.22,3.2-1.78h3.93a5.18,5.18,0,0,1-1.27,2.33A7.71,7.71,0,0,1,125.49,20c-4.36,0-7.53-2.62-7.53-7.42,0-5.28,3.77-7.41,7.34-7.41a7.19,7.19,0,0,1,6,2.83,9.49,9.49,0,0,1,1.61,5.4ZM129,10.92c-.92-2.9-3.1-2.9-3.61-2.9a3.49,3.49,0,0,0-3.45,2.9Z"/><path class="cls-1" d="M143.59,9.43c-.05-1.25-1.13-1.68-2.45-1.68-.65,0-2.21.12-2.21,1.3,0,1,1.18,1.32,1.47,1.39,5.33,1.32,7.54,1.87,7.54,4.9,0,2.78-2.5,4.63-6.65,4.63a9.22,9.22,0,0,1-4.47-1,4.42,4.42,0,0,1-2.35-3.79h4c.17,1.87,1.47,2.16,3,2.16,2,0,2.4-1,2.4-1.51,0-1.08-1.08-1.32-2-1.56-4.8-1.18-6.94-1.68-6.94-4.76,0-4.36,5.4-4.36,6.26-4.36a8,8,0,0,1,5.14,1.58,3.67,3.67,0,0,1,1.23,2.71Z"/><path class="cls-1" d="M158.71,9.43c-.05-1.25-1.13-1.68-2.45-1.68-.65,0-2.21.12-2.21,1.3,0,1,1.18,1.32,1.47,1.39,5.33,1.32,7.53,1.87,7.53,4.9,0,2.78-2.49,4.63-6.64,4.63a9.22,9.22,0,0,1-4.47-1,4.42,4.42,0,0,1-2.35-3.79h4c.17,1.87,1.47,2.16,3,2.16,2,0,2.4-1,2.4-1.51,0-1.08-1.08-1.32-2-1.56-4.8-1.18-6.94-1.68-6.94-4.76,0-4.36,5.4-4.36,6.26-4.36a8,8,0,0,1,5.14,1.58,3.63,3.63,0,0,1,1.22,2.71Z"/><path class="cls-1" d="M181.65,14.47,186.43.53h4.49l-7.18,18.91h-4.15L172.41.53h4.49Z"/><path class="cls-1" d="M197.18,3.91h-3.94V.53h3.94Zm0,15.53h-3.94V5.64h3.94Z"/><path class="cls-1" d="M208.94,9.43c-.05-1.25-1.13-1.68-2.45-1.68-.65,0-2.21.12-2.21,1.3,0,1,1.18,1.32,1.47,1.39,5.33,1.32,7.54,1.87,7.54,4.9,0,2.78-2.5,4.63-6.65,4.63a9.22,9.22,0,0,1-4.47-1,4.42,4.42,0,0,1-2.35-3.79h4c.17,1.87,1.47,2.16,3,2.16,2,0,2.4-1,2.4-1.51,0-1.08-1.08-1.32-2-1.56-4.8-1.18-6.94-1.68-6.94-4.76,0-4.36,5.4-4.36,6.26-4.36a8,8,0,0,1,5.14,1.58,3.67,3.67,0,0,1,1.23,2.71Z"/><path class="cls-1" d="M219.86,3.91h-3.94V.53h3.94Zm0,15.53h-3.94V5.64h3.94Z"/><path class="cls-1" d="M228.72,8v7.24c0,1.37.81,1.57,1.92,1.57h1.15v3c-.82.07-1.51.12-2.26.12-2.9,0-4.75-1.32-4.75-4V8h-2.54V5.64h2.54V1.78h3.94V5.64h3.07V8Z"/><path class="cls-1" d="M233.08,12.55c0-5.23,3.68-7.41,7.49-7.41S248,7.32,248,12.55,244.36,20,240.57,20,233.08,17.76,233.08,12.55Zm7.49-4.46c-2,0-3.45,1.61-3.45,4.54,0,2.2,1,4.36,3.45,4.36,2.23,0,3.43-1.92,3.43-4.44S242.8,8.09,240.57,8.09Z"/><path class="cls-1" d="M253.56,5.64l.07,2.52c.38-.86,1.34-3,5.28-3h1.39v4h-1.56c-1.87,0-4.85.77-4.85,4.15v6.17H250V5.64Z"/><path class="cls-1" d="M270.72,9.43c-.05-1.25-1.13-1.68-2.45-1.68-.65,0-2.21.12-2.21,1.3,0,1,1.18,1.32,1.46,1.39,5.33,1.32,7.54,1.87,7.54,4.9,0,2.78-2.5,4.63-6.65,4.63A9.16,9.16,0,0,1,264,19a4.41,4.41,0,0,1-2.36-3.79h4c.17,1.87,1.46,2.16,3,2.16,2,0,2.4-1,2.4-1.51,0-1.08-1.08-1.32-2-1.56-4.8-1.18-6.94-1.68-6.94-4.76,0-4.36,5.41-4.36,6.27-4.36a8,8,0,0,1,5.14,1.58,3.67,3.67,0,0,1,1.22,2.71Z"/><path class="cls-1" d="M294,5.64V8H291V19.44H287V8h-2.57V5.64H287V4.39C287,.6,289.77,0,292,0h2V2.62h-1.49c-1.08,0-1.56.43-1.56,1.75V5.64Z"/><path class="cls-1" d="M299.32,5.64l.07,2.52c.39-.86,1.35-3,5.29-3h1.39v4h-1.56c-1.88,0-4.85.77-4.85,4.15v6.17h-3.87V5.64Z"/><path class="cls-1" d="M307.29,12.55c0-5.23,3.67-7.41,7.49-7.41s7.46,2.18,7.46,7.41S318.57,20,314.78,20,307.29,17.76,307.29,12.55Zm7.49-4.46c-2,0-3.46,1.61-3.46,4.54,0,2.2,1.06,4.36,3.46,4.36,2.23,0,3.43-1.92,3.43-4.44S317,8.09,314.78,8.09Z"/><path class="cls-1" d="M327.83,5.64l.08,2A4.43,4.43,0,0,1,332,5.14a3.59,3.59,0,0,1,3.7,2.47,4.37,4.37,0,0,1,4.15-2.47c2.62,0,4.44,1.72,4.44,5v9.31h-3.86V10.75c0-.45-.1-2.33-2-2.33s-2.23,1.95-2.23,2.72v8.3h-3.87V10.68c0-1.66-.81-2.26-1.94-2.26-2,0-2.26,2-2.26,2.84v8.18h-3.88V5.64Z"/><path class="cls-1" d="M359.75,16l-1.12,3.48h-4.47L361,.53h4.83l6.84,18.91H368.2L367.07,16Zm6.34-3L363.4,4.61,360.71,13Z"/><path class="cls-1" d="M378.28,7.32c.43-.7,1.37-2.18,4.42-2.18,4.15,0,6.19,3.24,6.19,7.39,0,3.62-1.66,7.44-6.46,7.44A4.66,4.66,0,0,1,378,17.52l-.07,1.92h-3.5V.53h3.86Zm.05,5.18c0,2.09.72,4.25,3.22,4.25s3.19-2.16,3.19-4.25-.72-4.22-3.19-4.22S378.33,10.37,378.33,12.5Z"/><path class="cls-1" d="M394.41,5.64l.07,2.52c.38-.86,1.35-3,5.28-3h1.39v4h-1.56c-1.87,0-4.84.77-4.84,4.15v6.17h-3.87V5.64Z"/><path class="cls-1" d="M402.38,12.55c0-5.23,3.67-7.41,7.49-7.41s7.46,2.18,7.46,7.41S413.66,20,409.87,20,402.38,17.76,402.38,12.55Zm7.49-4.46c-2,0-3.46,1.61-3.46,4.54,0,2.2,1.06,4.36,3.46,4.36,2.23,0,3.43-1.92,3.43-4.44S412.1,8.09,409.87,8.09Z"/><path class="cls-1" d="M429.83,19.44a3.33,3.33,0,0,1-.4-1.63c-.6.69-1.9,2.16-5.26,2.16-1.66,0-5.35-.26-5.35-4.37,0-3.43,2.95-3.84,6.45-4.32s4.16-.57,4.16-1.73c0-1.56-1.54-1.63-2.52-1.63-3.58,0-3.6,1.18-3.6,1.85h-3.8a4.28,4.28,0,0,1,1.78-3.34c1.44-1,4.2-1.29,5.54-1.29,2.07,0,6.46.55,6.46,4.46v7.94a2.27,2.27,0,0,0,.67,1.59v.31Zm-.4-6.6a7.66,7.66,0,0,1-2.74.7c-2.52.38-3.82.57-3.82,1.94,0,1.56,2.6,1.56,2.74,1.56a3.68,3.68,0,0,0,3.82-2.83Z"/><path class="cls-1" d="M445.87.53h3.86V19.44h-3.48l-.07-1.92A4.7,4.7,0,0,1,441.71,20c-4.8,0-6.45-3.82-6.45-7.44,0-4.15,2-7.39,6.19-7.39,3.05,0,4,1.48,4.42,2.18Zm-6.46,12c0,2.09.72,4.25,3.19,4.25s3.22-2.16,3.22-4.25-.75-4.22-3.22-4.22S439.41,10.42,439.41,12.5Z"/></svg>