<svg id="レイヤー_1" data-name="レイヤー 1" xmlns="http://www.w3.org/2000/svg" width="373" height="19" viewBox="0 0 373.87 19.97"><defs><style>.cls-1{fill:#ff9600;}</style></defs><title>アートボード 6</title><path class="cls-1" d="M16.71,16.58c0,2.07.38,2.29.74,2.48v.38H12.89A5.9,5.9,0,0,1,12.41,17V15.07a2.69,2.69,0,0,0-3.1-2.83h-5v7.2H0V.53H10.2C15,.53,16.9,3,16.9,5.66A5.25,5.25,0,0,1,15.67,9a5.51,5.51,0,0,1-2.59,1.54,3.92,3.92,0,0,1,2,.62,3.92,3.92,0,0,1,1.61,3.36ZM4.32,9h5.4A2.68,2.68,0,0,0,12.6,6.43,2.54,2.54,0,0,0,9.84,3.91H4.32Z"/><path class="cls-1" d="M22.58,13.37c.1,2.3,1.28,3.72,3.63,3.72s2.93-1.22,3.19-1.78h3.94a5.21,5.21,0,0,1-1.28,2.33A7.68,7.68,0,0,1,26.21,20c-4.37,0-7.54-2.62-7.54-7.42,0-5.28,3.77-7.41,7.35-7.41A7.22,7.22,0,0,1,32,8a9.55,9.55,0,0,1,1.6,5.4Zm7.11-2.45C28.78,8,26.59,8,26.09,8a3.5,3.5,0,0,0-3.46,2.9Z"/><path class="cls-1" d="M45.91,10.56c-.26-2.47-2.73-2.47-3.14-2.47-3.15,0-3.63,2.71-3.63,4.39,0,1.87.68,4.51,3.6,4.51s3.1-1.77,3.27-2.71h4.05C49.58,18.15,46.44,20,42.79,20c-4.32,0-7.68-2.5-7.68-7.34,0-5,3.7-7.49,7.73-7.49,3.7,0,6.43,1.75,7.06,5.42Z"/><path class="cls-1" d="M51.55,12.55c0-5.23,3.67-7.41,7.49-7.41s7.46,2.18,7.46,7.41S62.83,20,59,20,51.55,17.76,51.55,12.55ZM59,8.09c-2,0-3.46,1.61-3.46,4.54,0,2.2,1.06,4.36,3.46,4.36,2.23,0,3.43-1.92,3.43-4.44S61.27,8.09,59,8.09Z"/><path class="cls-1" d="M72.1,5.64l.07,2A4.44,4.44,0,0,1,76.3,5.14,3.58,3.58,0,0,1,80,7.61a4.37,4.37,0,0,1,4.15-2.47c2.62,0,4.44,1.72,4.44,5v9.31H84.72V10.75c0-.45-.1-2.33-2-2.33s-2.23,1.95-2.23,2.72v8.3H76.66V10.68c0-1.66-.82-2.26-2-2.26-2,0-2.25,2-2.25,2.84v8.18H68.57V5.64Z"/><path class="cls-1" d="M94.75,5.64l.07,2A4.45,4.45,0,0,1,99,5.14a3.59,3.59,0,0,1,3.7,2.47,4.37,4.37,0,0,1,4.15-2.47c2.62,0,4.44,1.72,4.44,5v9.31h-3.86V10.75c0-.45-.1-2.33-2-2.33s-2.23,1.95-2.23,2.72v8.3H99.31V10.68c0-1.66-.81-2.26-1.94-2.26-2,0-2.26,2-2.26,2.84v8.18H91.22V5.64Z"/><path class="cls-1" d="M117.21,13.37c.1,2.3,1.28,3.72,3.63,3.72s2.93-1.22,3.19-1.78H128a5.28,5.28,0,0,1-1.27,2.33A7.71,7.71,0,0,1,120.84,20c-4.37,0-7.54-2.62-7.54-7.42,0-5.28,3.77-7.41,7.35-7.41a7.21,7.21,0,0,1,6,2.83,9.65,9.65,0,0,1,1.61,5.4Zm7.11-2.45c-.91-2.9-3.1-2.9-3.6-2.9a3.5,3.5,0,0,0-3.46,2.9Z"/><path class="cls-1" d="M134,5.64l.07,1.58a5.57,5.57,0,0,1,4.65-2.08,5.32,5.32,0,0,1,5.48,5.59v8.71h-3.87V11.3a2.93,2.93,0,0,0-3.14-3,2.89,2.89,0,0,0-3.12,3v8.14h-3.87V5.64Z"/><path class="cls-1" d="M156.79.53h3.87V19.44h-3.48l-.08-1.92A4.69,4.69,0,0,1,152.64,20c-4.8,0-6.46-3.82-6.46-7.44,0-4.15,2-7.39,6.2-7.39,3,0,4,1.48,4.41,2.18Zm-6.46,12c0,2.09.73,4.25,3.2,4.25s3.21-2.16,3.21-4.25-.74-4.22-3.21-4.22S150.33,10.42,150.33,12.5Z"/><path class="cls-1" d="M173.64,19.44a3.46,3.46,0,0,1-.41-1.63c-.6.69-1.89,2.16-5.25,2.16-1.66,0-5.36-.26-5.36-4.37,0-3.43,2.95-3.84,6.46-4.32,3.36-.48,4.15-.57,4.15-1.73,0-1.56-1.53-1.63-2.52-1.63-3.58,0-3.6,1.18-3.6,1.85h-3.79a4.29,4.29,0,0,1,1.77-3.34c1.44-1,4.2-1.29,5.55-1.29,2.06,0,6.46.55,6.46,4.46v7.94a2.27,2.27,0,0,0,.67,1.59v.31Zm-.41-6.6a7.53,7.53,0,0,1-2.73.7c-2.52.38-3.82.57-3.82,1.94,0,1.56,2.59,1.56,2.74,1.56a3.66,3.66,0,0,0,3.81-2.83Z"/><path class="cls-1" d="M185.35,8v7.24c0,1.37.82,1.57,1.92,1.57h1.15v3c-.81.07-1.51.12-2.25.12-2.91,0-4.76-1.32-4.76-4V8h-2.54V5.64h2.54V1.78h3.94V5.64h3.07V8Z"/><path class="cls-1" d="M194.71,3.91h-3.94V.53h3.94Zm0,15.53h-3.94V5.64h3.94Z"/><path class="cls-1" d="M197.28,12.55c0-5.23,3.67-7.41,7.49-7.41s7.46,2.18,7.46,7.41S208.56,20,204.77,20,197.28,17.76,197.28,12.55Zm7.49-4.46c-2,0-3.46,1.61-3.46,4.54,0,2.2,1.06,4.36,3.46,4.36,2.23,0,3.43-1.92,3.43-4.44S207,8.09,204.77,8.09Z"/><path class="cls-1" d="M218,5.64l.07,1.58a5.59,5.59,0,0,1,4.66-2.08,5.32,5.32,0,0,1,5.47,5.59v8.71h-3.86V11.3a2.94,2.94,0,0,0-3.15-3,2.9,2.9,0,0,0-3.12,3v8.14H214.2V5.64Z"/><path class="cls-1" d="M239.35,9.43c0-1.25-1.13-1.68-2.45-1.68-.65,0-2.21.12-2.21,1.3,0,1,1.18,1.32,1.47,1.39,5.33,1.32,7.53,1.87,7.53,4.9,0,2.78-2.49,4.63-6.64,4.63a9.22,9.22,0,0,1-4.47-1,4.42,4.42,0,0,1-2.35-3.79h4c.17,1.87,1.47,2.16,3,2.16,2,0,2.4-1,2.4-1.51,0-1.08-1.08-1.32-2-1.56-4.8-1.18-6.94-1.68-6.94-4.76,0-4.36,5.4-4.36,6.26-4.36a8,8,0,0,1,5.14,1.58,3.63,3.63,0,0,1,1.22,2.71Z"/><path class="cls-1" d="M253.27,12.55c0-5.23,3.67-7.41,7.49-7.41s7.46,2.18,7.46,7.41S264.55,20,260.76,20,253.27,17.76,253.27,12.55Zm7.49-4.46c-2,0-3.46,1.61-3.46,4.54,0,2.2,1.06,4.36,3.46,4.36,2.23,0,3.43-1.92,3.43-4.44S263,8.09,260.76,8.09Z"/><path class="cls-1" d="M279.07,5.64V8H276V19.44h-3.94V8h-2.56V5.64h2.56V4.39c0-3.79,2.77-4.39,5-4.39h2V2.62h-1.49c-1.08,0-1.56.43-1.56,1.75V5.64Z"/><path class="cls-1" d="M302.64,11.52h-9.15v7.92h-4.32V.53h4.32V7.68h9.15V.53h4.29V19.44h-4.29Z"/><path class="cls-1" d="M309.24,12.55c0-5.23,3.67-7.41,7.48-7.41s7.47,2.18,7.47,7.41S320.52,20,316.72,20,309.24,17.76,309.24,12.55Zm7.48-4.46c-2,0-3.45,1.61-3.45,4.54,0,2.2,1.05,4.36,3.45,4.36,2.24,0,3.44-1.92,3.44-4.44S319,8.09,316.72,8.09Z"/><path class="cls-1" d="M332,8v7.24c0,1.37.82,1.57,1.92,1.57H335v3c-.82.07-1.51.12-2.26.12-2.9,0-4.75-1.32-4.75-4V8h-2.55V5.64H328V1.78H332V5.64H335V8Z"/><path class="cls-1" d="M340.24,13.37c.1,2.3,1.28,3.72,3.63,3.72s2.93-1.22,3.19-1.78H351a5.21,5.21,0,0,1-1.28,2.33A7.68,7.68,0,0,1,343.87,20c-4.37,0-7.54-2.62-7.54-7.42,0-5.28,3.77-7.41,7.35-7.41a7.22,7.22,0,0,1,6,2.83,9.65,9.65,0,0,1,1.61,5.4Zm7.11-2.45c-.91-2.9-3.1-2.9-3.6-2.9a3.5,3.5,0,0,0-3.46,2.9Z"/><path class="cls-1" d="M357.76.53V19.44h-3.93V.53Z"/><path class="cls-1" d="M369.52,9.43c0-1.25-1.12-1.68-2.44-1.68-.65,0-2.21.12-2.21,1.3,0,1,1.17,1.32,1.46,1.39,5.33,1.32,7.54,1.87,7.54,4.9,0,2.78-2.5,4.63-6.65,4.63a9.16,9.16,0,0,1-4.46-1,4.41,4.41,0,0,1-2.36-3.79h4c.16,1.87,1.46,2.16,3,2.16,2,0,2.4-1,2.4-1.51,0-1.08-1.08-1.32-2-1.56-4.8-1.18-6.94-1.68-6.94-4.76,0-4.36,5.4-4.36,6.27-4.36a8,8,0,0,1,5.14,1.58,3.67,3.67,0,0,1,1.22,2.71Z"/></svg>