<svg id="レイヤー_1" data-name="レイヤー 1" xmlns="http://www.w3.org/2000/svg" width="17.1" height="17.15" viewBox="0 0 17.1 17.15">
  <defs>
    <style>
      .cls-1 {
        fill: #00dbff;
      }
    </style>
  </defs>
  <title>nav_link_b</title>
  <path class="cls-1" d="M6.66,16A3.89,3.89,0,0,1,0,13.29a4.08,4.08,0,0,1,1.17-2.88L5.06,6.52A3.94,3.94,0,0,1,7.83,5.38a4,4,0,0,1,.69.06,3.76,3.76,0,0,1,.73.2A3.76,3.76,0,0,1,9.86,6a3.74,3.74,0,0,1,.74.57,5,5,0,0,1,.54.67.24.24,0,0,1,0,.26L10,8.51a.2.2,0,0,1-.14.06.22.22,0,0,1-.19-.12,1.85,1.85,0,0,0-.42-.61,1.89,1.89,0,0,0-.74-.48,2.18,2.18,0,0,0-.72-.13,2.06,2.06,0,0,0-1.46.61l-3.9,3.93a2.08,2.08,0,0,0,0,2.89,2,2,0,0,0,1.47.62,2.13,2.13,0,0,0,1.5-.63L7.53,12.5H7.6a5,5,0,0,0,1.67.29h.6Zm9.27-9.27L12,10.62a3.89,3.89,0,0,1-2.77,1.15,3.23,3.23,0,0,1-.69-.07,3.49,3.49,0,0,1-.72-.2,3.54,3.54,0,0,1-.62-.3A3.62,3.62,0,0,1,6,10a.2.2,0,0,1,0-.28l0,0L7.06,8.63a.25.25,0,0,1,.14-.06.21.21,0,0,1,.19.12A2,2,0,0,0,8.55,9.78a2,2,0,0,0,.72.13,2,2,0,0,0,1.46-.6l3.94-3.94a2.08,2.08,0,0,0,0-2.89,2,2,0,0,0-1.46-.61,2.13,2.13,0,0,0-1.51.62L9.57,4.64H9.5a5,5,0,0,0-1.67-.29h-.6l3.21-3.2a3.91,3.91,0,0,1,5.49,0A3.81,3.81,0,0,1,17.1,3.86,4,4,0,0,1,15.93,6.73Z"/>
</svg>
