<svg version="1.1" xmlns="http://www.w3.org/2000/svg" xmlns:xlink="http://www.w3.org/1999/xlink" x="0px" y="0px" width="750px" height="1250px" viewBox="0 0 750 1250" xml:space="preserve"><path fill="#FBF8F2" d="M0 0H750V1120H0z"/><g><path fill="#FFF" d="M0 500H250V750H0z"/><path fill="#FBF8F2" d="M0 750c69 0 125-56 125-125S69 500 0 500V750zM250 750c69 0 125-56 125-125s-56-125-125-125V750z"/><path fill="#F7F2E6" d="M500,750c-69,0-125-56-125-125 s56-125,125-125V750z"/><path fill="#FBF8F2" d="M500 500H750V750H500z"/><path fill="#F7F2E6" d="M750,750c0-69-56-125-125-125 s-125,56-125,125H750z"/><path fill="#FFF" d="M750 500c0 69-56 125-125 125s-125-56-125-125H750zM250 500c0-69-56-125-125-125S0 431 0 500H250zM250 250c0 69-56 125-125 125S0 319 0 250H250zM250 250H500V500H250z"/><path fill="#F7F2E6" d="M250 250c0 69 56 125 125 125s125-56 125-125H250zM250 500c0-69 56-125 125-125s125 56 125 125H250zM500 500c69 0 125-56 125-125s-56-125-125-125V500z"/><path fill="#FFF" d="M750,500c-69,0-125-56-125-125 s56-125,125-125V500z"/><path fill="#FBF8F2" d="M0 0H250V250H0z"/><path fill="#FFF" d="M0,250c69,0,125-56,125-125S69,0,0,0V250z"/><path fill="#FBF8F2" d="M250 250c-69 0-125-56-125-125S181 0 250 0V250zM500 250c0-69-56-125-125-125s-125 56-125 125H500zM500 0c0 69-56 125-125 125S250 69 250 0H500zM500 0H750V250H500z"/><path fill="#F7F2E6" d="M500,250c69,0,125-56,125-125S569,0,500,0 V250z"/><path fill="#FFF" d="M750,250c-69,0-125-56-125-125 S681,0,750,0V250z"/></g><g><path fill="#FBF8F2" d="M0 750H250V1000H0z"/><path fill="#FBF8F2" d="M0 750c0 69 56 125 125 125s125-56 125-125H0zM0 1000c0 69 56 125 125 125s125-56 125-125H0z"/><path fill="#F7F2E6" d="M0,1250c0-69,56-125,125-125 s125,56,125,125H0z"/><path fill="#FFF" d="M250 1000c69 0 125-56 125-125s-56-125-125-125V1000zM500 1000c-69 0-125-56-125-125s56-125 125-125V1000zM250 1000H500V1250H250z"/><path fill="#F7F2E6" d="M500 1000c-69 0-125 56-125 125s56 125 125 125V1000zM250 1000c69 0 125 56 125 125s-56 125-125 125V1000z"/><path fill="#FBF8F2" d="M500 750H750V1000H500z"/><path fill="#FFF" d="M500,750c0,69,56,125,125,125 s125-56,125-125H500z"/><path fill="#FBF8F2" d="M500 1000c0-69 56-125 125-125s125 56 125 125H500zM500 1250c69 0 125-56 125-125s-56-125-125-125V1250zM750 1250c-69 0-125-56-125-125s56-125 125-125V1250z"/></g></svg>