<svg version="1.1" xmlns="http://www.w3.org/2000/svg" xmlns:xlink="http://www.w3.org/1999/xlink" x="0px" y="0px" width="298.8px" height="334px" viewBox="0 0 298.8 334" xml:space="preserve"><g><g><path fill="#FFF" d="M165.7 148.9c5.3 1.7 10.6-1 13.2-2.1 14.9-6.3 36.7-11.7 56.6-9.9 12.7 1.1 27.9 5.2 39.6 10.5 13.7 6.2 21.5 13.7 22 20.9.1 1.6-9.3 2.8-15.5 3.6-13.4 1.7-28.5 3.5-28 11.2.3 3.9 3.1 10 5.6 15.4 1.3 2.9 2.9 6.3 3.3 8-1.2-.9-3.5-2.8-5.9-4.8-13.4-11.3-41.2-34.9-67-36.6-6.5-.4-11.7-1.3-15.8-2.3-.6-.7-1.5-1.4-2.3-2.2-4.2-3.8-6-6.3-7-7.6-1.7-2.2-3.3-4.2-2.7-4.9C162.2 147.4 164.1 148.4 165.7 148.9zM141 77.5c2.3 5.7 4.7 11.7 4.8 13.5-3.4-2.5-18.8-25.6-20.8-40.1-1.5-10.5-.3-18.1 3.6-22.9C126.7 41.8 135 62.6 141 77.5zM151.3 28.5c-5.4-7.5-10.1-9.5-16.7-7-1.2.5-2.3 1-3.3 1.6.5-1.3 1.2-2.4 2-3.4 2.2-2.7 4-3 8.7-4 4.9-1 13-2.7 27.7-8.3 10.8-4.2 18.8-5 24.4-2.4 2.5 1.1 9.9 7.3 15.9 16.7 3.1 4.8 6.2 11.2 7.2 18.2-15.2 2.3-29.8 11.8-40.7 22.8-.5.5-1 1-1.5 1.6-7.2 7.5-12.2 15.9-15.7 23.2C160.7 65.7 161 42 151.3 28.5zM156.7 98.4c-.7 8.7-1.3 16.2-1.2 21.9-2.2 1.2-2.7 1-2.8 1-1-1.1-.9-9 3-20.9.3-.9.6-1.9 1-2.9C156.8 97.8 156.7 98.1 156.7 98.4z"/><path fill="#FFF" d="M158.4,98.6c0.2-2.1,0.3-4.2,0.5-6.4c3.4-7.9,8.9-18.1,17.3-26.8c10.9-11.4,25.7-21.4,41.2-23.8 c0.4,3.8,0.1,7.9-1.2,11.9c-3.3,10.2-7.3,16.5-10,20c-4.5,5.6-17,18.4-28.6,29c-10.7,9.9-16.9,14.6-20.4,16.9 C157.2,113.7,157.8,106.4,158.4,98.6z"/><path fill="#FFF" d="M182.4 106.1c-6.7 8.2-11.9 14.7-15.8 18.8-5 5.4-6.4 5.5-6.8 5.2-1.7-1-2.4-4.2-2.6-9 12.7-7.7 43.6-38.4 50.2-46.8 2.9-3.6 7-10.1 10.3-20.5 1.4-4.2 1.7-8.5 1.3-12.6 6.1-.7 12.2-.2 18.2 1.8C213.1 68.6 195 90.8 182.4 106.1zM266.5 104.7c2.7 1.3 4.8 3.1 5.8 5.3 1.6 3.9-6.2 20-11.1 24.4-1.1 1-1.6 1.1-1.8 1-.9-.5.2-4 1.6-8.1C262.8 121.7 265.3 114.2 266.5 104.7zM70.4 202c-9.6 1.4-21.5 3-38.5 6.6-1.1.2-2.3.5-3.6.7-8.1 1.6-17.3 3.4-19.6 7.5C8 218 8 219.3 8.5 220.6c3.8 10.3 15.7 9.2 25.3 8.3 1.4-.1 2.8-.3 4.2-.4-5.8 1.3-16 2.8-24.1 1-4.9-1.1-8.3-3.2-10.2-6.3-3.6-6-1.9-10.5.6-16.9 2.2-5.7 5-12.9 4.1-23.2-.5-5.3-1.3-9.7-2-13.1-1.1-5.7-1.9-9.5-.4-13.4.1-.3.3-.7.4-1 2.2-5.9 4.1-11 45.4-10.5 38.2.5 59.5 2.9 79.2 13.9-.2 3.4-1.2 6.8-2.9 10.3-9.6 4.9-26.1 16.9-41.2 30.1C82.3 200.3 77 201 70.4 202z"/><path fill="#FFF" d="M126.5,171.9c-5.2,8.2-14.8,16.2-27.9,23.1c-2.6,1.4-5.2,2.4-8,3.3C103.7,187.1,117.5,177,126.5,171.9z"/><path fill="#FFF" d="M72.6 261c-4.7-3-10.1-6.1-16.6-9.3-2.8-1.4-4-3.5-3.8-6.7.5-6.9 8.3-18 21.7-31.4 4-4 8.6-8.3 13.6-12.7.1-.1.1-.1.2-.2 4.2-1 7.9-2.3 11.7-4.3 14.6-7.7 24.9-16.7 29.9-26.1 1.5-.7 2.8-1.3 3.8-1.6 1.3-.4 1.9-.3 2.1-.3 0 3.4-16.8 34-50.7 77.5C80.9 250.8 76.9 255.8 72.6 261zM173.7 166.6c-.3 1.1-1.4 1.8-2.3 2.2-3.9 1.9-10.8 1.7-16.1-.5-8.3-3.3-11.8-11-12.8-13.3-2.8-7.1-2-14.9-.3-17.8.2-.3.4-.5.5-.7.2-.2.4-.3.6-.4.9-.1 2.2 2.4 3.5 5.1 2.2 4.5 5.3 10.7 11.2 15.8 1.6 1.4 5.5 4.7 14.9 7.2C173.6 165.1 173.9 165.8 173.7 166.6z"/><path fill="#FFF" d="M148.8 171.4c6.3 5.2 23.7 22.7 37.5 43.2 16.1 23.9 18.6 57.5 12.3 61.9-.7.5-1.3.6-2 .5-2.1-.4-4.4-4-6.8-7.7-3.6-5.6-7.6-12-13.8-13-3.5-.6-6.4.7-8.9 3.2-6.9 6.9-10.3 23.1-12.9 34.9-1.1 5.3-2.4 11.3-3.3 12.2 0 0 0 0 0 0-.8-.5-3.3-4.9-6.2-19.7-2.7-13.9-4.4-30.7-4.9-47.3-.5-18.5 1-36.9 2.1-50.3 1.3-15.7 1.4-19.5-.1-20.3-.2-.1-.8-.3-1.5.2-11.9 9.2-28.6 73.2-27.8 98.4.1 3.3 1.5 5.8 3.5 6.2 1.6.3 4.1-.5 7.2-5.8-1 5-3.6 13.9-8.2 17.5-2.1 1.7-4.4 2-6.8.9-6.7-3-11.7-7.2-17.6-12-4.5-3.7-9.7-7.9-16.6-12.5 38.7-47.3 62-86.7 62.9-93 .1-.4.1-.9-.3-1.3-1-1.3-3.3-.6-4-.3-.7.2-1.4.5-2.2.8 1.2-2.7 1.9-5.5 2.2-8.2C138 163 143.3 166.8 148.8 171.4zM259.9 65.4c-3.4-9.2-8.9-15.6-16.9-19.8-1.3-.7-2.7-1.3-4-1.8-24.4 25.6-42.6 48-55.2 63.5-16 19.6-21.6 26.3-24.8 24.5 0 0-5.2-2.3-4.1 1.1s7.1 17.7 7.3 18c3.3 4.1 3.5-1.8 3.5-1.8-2.5-5.1 14.4-15.9 40.5-31.7 20.2-12.3 29.6-15.3 39.9-16.7 6.3-.8 13.4-.2 18.9 1.7C266 92 265.1 79.6 259.9 65.4z"/></g></g><g><path fill="#FFEFC2" d="M200.5,94.7c0.7,3.8,2.4,7.5,5.4,9.9c1.5,1.2,3.2,2.1,4.9,2.9c5.7,2.9,11.5,5.5,17.2,8.1 c4.2,1.9,9,10.9-2.6,10.9c-12.7,0-21.1,11.9-16.8,13.4c10.7,3.9,11.2,15.5,6.1,15.4c-19.7-0.5-28.7-5-48.4-5.8 c-2.3-0.1-4.8-0.2-6.9,0.8c-2.4,1.1-4.1,3.4-4.9,5.9c-1.2,3.3-1.5,6.6-2.7,9.9c-1.7,4.3-2.7,9.3-2.9,13.9 c-0.3,6.2,3.3,12.4,4.9,18.3c3,10.7-2.2,14.9-15.1-0.1c-1.2-1.4-6.7-4-9.2-0.7c-7,9-16.7,22.8-29.3,15.6 c-4.9-2.8-2.1-20.4-8.2-20.6c-16.5-0.5-16.5,4.9-32.2-0.8c-4.3-1.6-23.4-21.3-14-27.2c4.7-3,31.7-3.5,37.4-2.4 c8.8,1.6,37.5,1.4,44.9-1c8.1-2.6,15.6-7.8,20.4-14.9c3.5-5.3,6.2-11.6,9.4-17.1c7.2-12.5,14.4-25,21.5-37.6 c2.6-4.5,5.1-8.9,7.7-13.4c2.7-4.7,12.3-6.8,13.1-2.6L200.5,94.7z"/></g><g><path fill="#191919" d="M275.8,145.9c-11.8-5.4-27.2-9.5-40.1-10.6c-23.5-2.1-44.7,5.5-57.3,10c-3.5,1.3-6.3,2.3-8.4,2.8 c-2.5,0.6-2.8,0.2-2.8,0.2c-0.4-0.8,0-3.4,11.4-11.5c7.8-5.5,18.3-11.9,28.4-18.1c20-12.1,29.2-15.1,39.3-16.5 c6.2-0.8,13.2-0.2,18.5,1.8c-1.1,9.6-3.7,17.2-5.5,22.7c-2,5.8-3,8.9-0.8,10.1c1,0.5,2.3,0.1,3.7-1.2c5.1-4.6,13.6-21.4,11.5-26.3 c-1.1-2.7-3.7-4.9-7.1-6.4c1-10.6,0.2-23.4-5.2-38.1c-3.5-9.6-9.3-16.3-17.6-20.7c-1.2-0.6-2.4-1.2-3.6-1.7 c12.5-13.1,26.6-27,42.4-41.2c0,0,0.4-1.2-0.6-1.2c-1,0-1.9,1.2-1.9,1.2c-15.5,14-29.3,27.7-41.6,40.6c-6.5-2.4-13.1-2.9-19.7-2.1 c-2.6-18.1-18.8-33.9-24-36.2c-6-2.7-14.4-1.9-25.7,2.4c-14.6,5.6-22.6,7.3-27.4,8.3c-4.8,1-7,1.5-9.7,4.6 c-1.5,1.7-2.5,3.8-3.1,6.2c-5.7,5-7.6,13.6-5.8,26.2c2.1,14.6,17.6,39,21.9,41.5c0.5,0.3,1,0.4,1.4,0.2c0.3-0.1,0.6-0.4,0.7-0.7 c0.7-1.6-0.9-5.8-4.7-15.2c-5.9-14.6-15.1-37.7-12-51c1.4-1.1,3-2,4.8-2.7c4.9-1.9,9.1-1.4,14.7,6.4c10,14,9,39.8,7.3,62.3 c-1.3,3.1-2.3,5.9-3.1,8.1c-3.5,10.7-4.7,20.4-2.7,22.6c0.2,0.3,0.7,0.6,1.5,0.5c0.6,0,1.5-0.3,2.6-0.9c0.3,5,1.2,8.3,3.3,9.5 c3.1,1.8,8.8-4.9,24.8-24.5c12.6-15.5,30.8-37.8,55.2-63.5c1.4,0.5,2.7,1.1,4,1.8c8,4.2,13.5,10.6,16.9,19.8 c5.2,14.2,6.1,26.6,5.2,36.9c-5.5-2-12.5-2.6-18.9-1.7c-10.3,1.3-19.7,4.4-39.9,16.7c-26.1,15.8-43,26.6-40.5,31.7 c1.1,2.2,5.1,0.8,13.2-2.1c12.5-4.5,33.5-12,56.6-9.9c12.7,1.1,27.9,5.2,39.6,10.5c13.7,6.2,21.5,13.7,22,20.9 c0.1,1.6-9.3,2.8-15.5,3.6c-13.4,1.7-28.5,3.5-28,11.2c0.3,3.9,3.1,10,5.6,15.4c1.3,2.9,2.9,6.3,3.3,8c-1.2-0.9-3.5-2.8-5.9-4.8 c-13.4-11.3-41.2-34.9-67-36.6c-6.5-0.4-11.7-1.3-15.8-2.3c-0.6-0.7-1.5-1.4-2.3-2.2c-2.9-2.6-6.8-6.1-9.7-12.5 c-0.8-1.8-1.5-3.7-2.3-5.8c-1.7-4.7-3.7-10.1-7.9-15.4c-0.8-0.9-2-2.5-4.1-2.9c-5.8-1.1-11.1,7.3-12.1,9c-3,5.1-4.1,19.6-4.3,24.1 c-6.7-3.7-13.6-6.4-21.2-8.3c-15.7-4.1-34.6-5.1-58-5.4c-42.5-0.5-44.6,5.1-47,11.6c-0.1,0.3-0.2,0.7-0.4,1 c-1.7,4.3-0.9,8.5,0.3,14.3c0.7,3.6,1.5,7.7,2,13c0.9,9.9-1.7,16.6-4,22.5C0.3,212-1.8,217.4,2.3,224c7.9,13,35,6.8,40.1,5 c0.8-0.3,1.7-0.6,1.6-1.4c0-0.1-0.1-0.7-0.9-0.8c-2.7-0.2-6,0.1-9.4,0.4c-9.5,0.9-20.2,1.9-23.6-7.2c-0.3-0.9-0.3-1.7,0.1-2.4 c1.9-3.4,11.1-5.2,18.5-6.7c1.2-0.2,2.5-0.5,3.6-0.7c17-3.5,28.9-5.2,38.4-6.6c5.3-0.8,9.7-1.4,13.7-2.2 c-11.2,10.1-32.8,30.9-33.8,43.4c-0.3,3.8,1.3,6.6,4.7,8.3c6.4,3.1,11.7,6.2,16.3,9.1C54,283.6,31.9,308.2,6,332.4 c0,0-0.6,0.6-0.3,1.1c0.4,0.6,0.9,0.6,1.2,0.3c25-23.4,47.3-47.9,66-70.6c6.9,4.5,12.1,8.8,16.6,12.5c6,4.9,11.1,9.2,18,12.2 c5.3,2.4,10.2-0.7,13.9-8.7c1.8-3.9,2.8-7.9,3.2-9.9c1.2-5.4,0.5-5.7,0.1-5.9c-0.3-0.1-0.9-0.3-1.4,0.8c-3.8,7.9-6.2,8-6.9,7.9 c-1.2-0.2-2.1-2.1-2.1-4.6c-0.8-24,15.6-87,26.9-96.8c0.5,2-0.1,10-0.8,18.4c-1.1,13.5-2.6,31.9-2.1,50.5c0.6,22.9,3.4,40.1,5,48.3 c1.5,7.6,4.5,20.4,7.7,20.4c1.9,0,2.8-3.5,4.9-13.6c3.3-15.4,8.3-38.7,19.8-36.7c5.4,0.9,9.3,7,12.6,12.3c2.7,4.2,5,7.9,7.9,8.5 c1.1,0.2,2.2,0,3.3-0.8c0.2-0.2,0.5-0.4,0.7-0.6c3.3-3.3,4.2-12.6,2.3-24.7c-2.2-14-7.6-28.2-14.8-38.9 c-13.9-20.7-31.5-38.2-37.8-43.5c-5.9-4.9-11.5-8.9-17.2-12.2c0.2-4,1.2-19.3,4.1-24.1c0.6-0.9,5.6-9.1,10.4-8.2 c1.4,0.3,2.4,1.5,3.1,2.3c4.1,5,5.9,10.1,7.6,14.9c0.7,2.1,1.5,4,2.3,5.9c3.1,6.7,7.1,10.4,10.1,13.1c0,0,0,0,0,0 c-6.9-2.2-9.9-4.8-11.2-6c-5.7-4.9-8.6-10.9-10.8-15.3c-1.9-3.8-3.1-6.3-5.2-6c-0.6,0.1-1.5,0.5-2.4,1.9 c-2.1,3.7-2.7,12.1,0.2,19.3c1,2.4,4.8,10.6,13.7,14.2c5.7,2.3,13.1,2.5,17.4,0.4c1.7-0.8,2.8-1.9,3.2-3.2c0.3-0.8,0.2-1.6-0.1-2.3 c3.9,0.9,8.6,1.6,14.3,1.9c25.3,1.7,52.8,25,66,36.2c6.1,5.2,7.1,6,8,5.7c0.3-0.1,0.6-0.3,0.7-0.7c0.4-1.5-0.9-4.5-3.5-10.2 c-2.3-5-5.2-11.2-5.4-14.8c-0.4-6.1,15.2-8.1,26.5-9.5c11.3-1.4,17.1-2.3,16.9-5.3C298.1,158.1,285.9,150.5,275.8,145.9z M141,77.5 c2.3,5.7,4.7,11.7,4.8,13.5c-3.4-2.5-18.8-25.6-20.8-40.1c-1.5-10.5-0.3-18.1,3.6-22.9C126.7,41.8,135,62.6,141,77.5z M151.3,28.5 c-5.4-7.5-10.1-9.5-16.7-7c-1.2,0.5-2.3,1-3.3,1.6c0.5-1.3,1.2-2.4,2-3.4c2.2-2.7,4-3,8.7-4c4.9-1,13-2.7,27.7-8.3 c10.8-4.2,18.8-5,24.4-2.4c2.5,1.1,9.9,7.3,15.9,16.7c3.1,4.8,6.2,11.2,7.2,18.2c-15.2,2.3-29.8,11.8-40.7,22.8 c-0.5,0.5-1,1-1.5,1.6c-7.2,7.5-12.2,15.9-15.7,23.2C160.7,65.7,161,42,151.3,28.5z M156.7,98.4c-0.7,8.7-1.3,16.2-1.2,21.9 c-2.2,1.2-2.7,1-2.8,1c-1-1.1-0.9-9,3-20.9c0.3-0.9,0.6-1.9,1-2.9C156.8,97.8,156.7,98.1,156.7,98.4z M158.4,98.6 c0.2-2.1,0.3-4.2,0.5-6.4c3.4-7.9,8.9-18.1,17.3-26.8c10.9-11.4,25.7-21.4,41.2-23.8c0.4,3.8,0.1,7.9-1.2,11.9 c-3.3,10.2-7.3,16.5-10,20c-4.5,5.6-17,18.4-28.6,29c-10.7,9.9-16.9,14.6-20.4,16.9C157.2,113.7,157.8,106.4,158.4,98.6z M182.4,106.1c-6.7,8.2-11.9,14.7-15.8,18.8c-5,5.4-6.4,5.5-6.8,5.2c-1.7-1-2.4-4.2-2.6-9c12.7-7.7,43.6-38.4,50.2-46.8 c2.9-3.6,7-10.1,10.3-20.5c1.4-4.2,1.7-8.5,1.3-12.6c6.1-0.7,12.2-0.2,18.2,1.8C213.1,68.6,195,90.8,182.4,106.1z M266.5,104.7 c2.7,1.3,4.8,3.1,5.8,5.3c1.6,3.9-6.2,20-11.1,24.4c-1.1,1-1.6,1.1-1.8,1c-0.9-0.5,0.2-4,1.6-8.1 C262.8,121.7,265.3,114.2,266.5,104.7z M70.4,202c-9.6,1.4-21.5,3-38.5,6.6c-1.1,0.2-2.3,0.5-3.6,0.7c-8.1,1.6-17.3,3.4-19.6,7.5 C8,218,8,219.3,8.5,220.6c3.8,10.3,15.7,9.2,25.3,8.3c1.4-0.1,2.8-0.3,4.2-0.4c-5.8,1.3-16,2.8-24.1,1c-4.9-1.1-8.3-3.2-10.2-6.3 c-3.6-6-1.9-10.5,0.6-16.9c2.2-5.7,5-12.9,4.1-23.2c-0.5-5.3-1.3-9.7-2-13.1c-1.1-5.7-1.9-9.5-0.4-13.4c0.1-0.3,0.3-0.7,0.4-1 c2.2-5.9,4.1-11,45.4-10.5c38.2,0.5,59.5,2.9,79.2,13.9c-0.2,3.4-1.2,6.8-2.9,10.3c-9.6,4.9-26.1,16.9-41.2,30.1 C82.3,200.3,77,201,70.4,202z M126.5,171.9c-5.2,8.2-14.8,16.2-27.9,23.1c-2.6,1.4-5.2,2.4-8,3.3 C103.7,187.1,117.5,177,126.5,171.9z M72.6,261c-4.7-3-10.1-6.1-16.6-9.3c-2.8-1.4-4-3.5-3.8-6.7c0.5-6.9,8.3-18,21.7-31.4 c4-4,8.6-8.3,13.6-12.7c0.1-0.1,0.1-0.1,0.2-0.2c4.2-1,7.9-2.3,11.7-4.3c14.6-7.7,24.9-16.7,29.9-26.1c1.5-0.7,2.8-1.3,3.8-1.6 c1.3-0.4,1.9-0.3,2.1-0.3c0,3.4-16.8,34-50.7,77.5C80.9,250.8,76.9,255.8,72.6,261z M148.8,171.4c6.3,5.2,23.7,22.7,37.5,43.2 c16.1,23.9,18.6,57.5,12.3,61.9c-0.7,0.5-1.3,0.6-2,0.5c-2.1-0.4-4.4-4-6.8-7.7c-3.6-5.6-7.6-12-13.8-13c-3.5-0.6-6.4,0.7-8.9,3.2 c-6.9,6.9-10.3,23.1-12.9,34.9c-1.1,5.3-2.4,11.3-3.3,12.2c0,0,0,0,0,0c-0.8-0.5-3.3-4.9-6.2-19.7c-2.7-13.9-4.4-30.7-4.9-47.3 c-0.5-18.5,1-36.9,2.1-50.3c1.3-15.7,1.4-19.5-0.1-20.3c-0.2-0.1-0.8-0.3-1.5,0.2c-11.9,9.2-28.6,73.2-27.8,98.4 c0.1,3.3,1.5,5.8,3.5,6.2c1.6,0.3,4.1-0.5,7.2-5.8c-1,5-3.6,13.9-8.2,17.5c-2.1,1.7-4.4,2-6.8,0.9c-6.7-3-11.7-7.2-17.6-12 c-4.5-3.7-9.7-7.9-16.6-12.5c38.7-47.3,62-86.7,62.9-93c0.1-0.4,0.1-0.9-0.3-1.3c-1-1.3-3.3-0.6-4-0.3c-0.7,0.2-1.4,0.5-2.2,0.8 c1.2-2.7,1.9-5.5,2.2-8.2C138,163,143.3,166.8,148.8,171.4z M173.7,166.6c-0.3,1.1-1.4,1.8-2.3,2.2c-3.9,1.9-10.8,1.7-16.1-0.5 c-8.3-3.3-11.8-11-12.8-13.3c-2.8-7.1-2-14.9-0.3-17.8c0.2-0.3,0.4-0.5,0.5-0.7c0.2-0.2,0.4-0.3,0.6-0.4c0.9-0.1,2.2,2.4,3.5,5.1 c2.2,4.5,5.3,10.7,11.2,15.8c1.6,1.4,5.5,4.7,14.9,7.2C173.6,165.1,173.9,165.8,173.7,166.6z"/></g></svg>