<svg version="1.1" xmlns="http://www.w3.org/2000/svg" xmlns:xlink="http://www.w3.org/1999/xlink" x="0px" y="0px" width="96.052px" height="96.284px" viewBox="0 0 96.052 96.284" xml:space="preserve"><path fill="#FFF" d="M0 .642H95.642V96.28399999999999H0z"/><g><path d="m22.858 30.201 7.736-6.508c.236-.195.34-.508.268-.807s-.307-.531-.605-.6l-8.176-1.869c-.248-.055-.508.006-.699.168C21.28 20.669 21.2 20.78 21.153 20.9c-.045.107-.066.226-.061.348l.438 8.375c.016.307.203.578.484.701C22.295 30.447 22.623 30.399 22.858 30.201M30.754 72.496l-7.231-7.061c-.221-.213-.543-.283-.83-.185-.291.101-.5.357-.539.66l-1.057 8.322c-.031.252.057.502.238.68.092.092.209.16.332.195.113.035.234.043.352.025l8.293-1.258c.305-.045.555-.26.646-.551C31.057 73.031 30.977 72.711 30.754 72.496M73.187 30.201l-7.738-6.508c-.234-.195-.338-.508-.266-.807.074-.299.307-.531.607-.6l8.176-1.869c.246-.055.506.006.701.168.1.084.176.195.225.315.047.107.066.226.06.348l-.439 8.375c-.014.307-.199.578-.482.701C73.749 30.447 73.423 30.399 73.187 30.201M65.288 72.496l7.234-7.061c.221-.213.543-.283.83-.185.291.101.496.357.535.66l1.059 8.322c.033.252-.055.502-.236.68-.094.092-.207.16-.334.195-.113.035-.23.043-.352.025l-8.295-1.258c-.301-.045-.553-.26-.648-.551C64.988 73.031 65.07 72.711 65.288 72.496M60.064 24.17 48.992 9.582c-.584-.766-1.379-.773-1.977-.016L35.7 23.963c-.457.576-.725 1.512-.725 2.502 0 .994.271 1.918.726 2.475l11.081 13.574c.281.344.607.518.936.52.328.004.656-.162.947-.504l11.307-13.383c.467-.551.75-1.467.773-2.459C60.761 25.695 60.505 24.754 60.064 24.17M60.064 65.633 48.992 51.045c-.584-.766-1.379-.773-1.977-.018L35.7 65.422c-.457.578-.725 1.514-.725 2.506s.271 1.916.726 2.471l11.081 13.576c.281.346.607.518.936.52.328.006.656-.164.947-.504l11.307-13.379c.467-.551.75-1.471.773-2.461C60.761 67.158 60.505 66.217 60.064 65.633M70.099 59.043l14.588-11.07c.768-.584.773-1.377.016-1.976L70.308 34.68c-.576-.455-1.512-.723-2.502-.723-.994 0-1.92.271-2.477.725l-13.572 11.08c-.346.281-.518.609-.521.936-.002.33.164.658.508.949l13.379 11.307c.549.465 1.467.75 2.461.77C68.577 59.742 69.519 59.488 70.099 59.043M28.637 59.043l14.589-11.07c.766-.584.773-1.377.014-1.976L28.846 34.68c-.576-.455-1.512-.723-2.504-.723s-1.916.271-2.473.725l-13.572 11.08c-.348.281-.52.609-.522.936-.006.33.166.658.504.949L23.66 58.953c.551.465 1.469.75 2.459.77C27.114 59.742 28.055 59.488 28.637 59.043" fill="#ee93ab"/><path d="M43.21 90.922 35.853 79.24c-.386-.613-1.124-.914-1.833-.738l-13.402 3.295c-.537.131-.975.518-1.174 1.031-.197.52-.131 1.102.178 1.557l7.566 11.158c.193.285.463.494.767.617.305.123.645.158.979.088l13.192-2.773c.541-.109.992-.48 1.209-.992C43.55 91.975 43.505 91.389 43.21 90.922M53.71 93.184l13.463 3.057c.709.162 1.441-.15 1.82-.77l7.15-11.812c.285-.469.32-1.053.096-1.559-.227-.508-.684-.867-1.227-.975l-13.238-2.539c-.338-.066-.676-.021-.981.107-.301.127-.566.342-.75.633l-7.371 11.285c-.305.461-.359 1.045-.152 1.559C52.728 92.682 53.173 93.061 53.71 93.184M76.126 12.473 68.769.791c-.387-.617-1.125-.916-1.834-.742L53.533 3.344c-.535.133-.975.522-1.174 1.035-.199.518-.129 1.098.178 1.557l7.568 11.156c.193.283.459.492.766.617.305.123.647.158.98.088l13.191-2.771c.543-.113.992-.488 1.211-.994C76.468 13.524 76.421 12.94 76.126 12.473M20.647 14.967l13.461 3.059c.709.162 1.441-.152 1.819-.775l7.148-11.807c.287-.475.322-1.059.098-1.561-.221-.506-.682-.869-1.229-.973L28.711.369c-.34-.064-.68-.023-.982.106-.303.127-.566.348-.75.633l-7.371 11.285c-.303.465-.361 1.047-.152 1.559C19.664 14.465 20.108 14.846 20.647 14.967M90.687 51.488l-11.678 7.354c-.617.391-.914 1.127-.74 1.834l3.295 13.406c.131.535.518.973 1.033 1.172.518.199 1.098.131 1.555-.18l11.157-7.566c.283-.191.498-.461.617-.768.125-.301.162-.643.088-.98l-2.772-13.191c-.111-.539-.483-.99-.993-1.207C91.738 51.149 91.158 51.192 90.687 51.488M92.846 40.986l3.058-13.461c.158-.711-.15-1.443-.771-1.818l-11.812-7.15c-.473-.287-1.057-.322-1.559-.098-.508.226-.873.684-.973 1.225l-2.543 13.24c-.062.338-.021.676.105.979.131.301.344.566.631.754l11.289 7.371c.463.301 1.047.357 1.555.148C92.343 41.971 92.722 41.524 92.846 40.986M12.469 18.574l-11.68 7.354c-.617.389-.914 1.129-.74 1.834l3.295 13.404c.133.537.52.975 1.035 1.172.516.201 1.096.135 1.553-.178l11.158-7.566c.285-.193.494-.461.619-.764.121-.307.156-.649.086-.983l-2.772-13.191c-.113-.541-.484-.992-.994-1.211C13.522 18.233 12.938 18.279 12.469 18.574M14.959 74.049l3.064-13.461c.16-.705-.154-1.441-.775-1.82L5.442 51.623c-.473-.289-1.061-.324-1.562-.098-.506.223-.871.678-.977 1.221L.366 65.988c-.062.336-.021.676.104.977.131.307.344.57.635.756l11.287 7.369c.461.305 1.043.359 1.559.154C14.459 75.035 14.84 74.59 14.959 74.049" fill="#d52e61"/></g></svg>