<svg xmlns="http://www.w3.org/2000/svg" width="36.986" height="45.423"><g stroke="#333" stroke-miterlimit="10"><path fill="#FFF" stroke-width="2" d="M33.3 18.941a2.65 2.65 0 00-1.69.617v2.551a.313.313 0 11-.624 0v-3.894a2.677 2.677 0 00-2.376-1.445c-.506 0-.973.143-1.374.385v4.34a.313.313 0 11-.624 0v-3.818c-.02.022-.041.042-.06.065a2.681 2.681 0 00-2.63-2.123c-.56 0-1.182.283-1.685.651v4.706a.313.313 0 11-.624 0v-4.131c-.015.019-.035.037-.049.055V9.833c0-1.47-1.125-2.91-2.608-2.91s-2.509 1.185-2.509 2.655v16.16c0 1.026.231 3.24-1.478 2.023L11.39 23.55a3.08 3.08 0 00-4.312-.367 3.017 3.017 0 00-.372 4.275l6.662 7.966c1.429 1.751 1.92 3.528 3.295 5.004 2.465 2.649 5.256 3.995 9.145 3.995 5.622 0 10.18-4.517 10.18-10.089v-12.73a2.678 2.678 0 00-2.688-2.663z"/><path d="M10.561.75h3.536v3.536m-9.811 9.811H.75v-3.536m.884 2.652L13.655 1.192" fill="none" stroke-width="1.5"/></g></svg>