<svg version="1.1" xmlns="http://www.w3.org/2000/svg" xmlns:xlink="http://www.w3.org/1999/xlink" x="0px" y="0px" width="58px" height="58px" viewBox="0 0 58 58" xml:space="preserve"><g><g><path fill="none" stroke="#803c2d" stroke-width="1.5" stroke-linecap="round" stroke-linejoin="round" stroke-miterlimit="10" d="M23.8,39H4.1C4,39,4,39,4,38.9V8.1C4,8,4,8,4.1,8h49.9C54,8,54,8,54,8.1v30.9c0,0,0,0.1-0.1,0.1h-5.8"/><path fill="none" stroke="#803c2d" stroke-width="1.5" stroke-linecap="round" stroke-linejoin="round" stroke-miterlimit="10" d="M41.5 31h4.5c0 0 0 0 0 0 0 0 0 0 0 0L42.9 52c0 0 0 0-.1 0H29.2c0 0 0 0-.1 0L26 31.1c0 0 0 0 0 0 0 0 0 0 0 0h4.5M41.4 28.9 30.5 28.9"/><path fill="none" stroke="#803c2d" stroke-width="1.5" stroke-linecap="round" stroke-linejoin="round" stroke-miterlimit="10" d="m32.5 44.6-2.1-15.6c0 0 0 0 0 0 0 0 0 0 0 0h11c0 0 0 0 0 0 0 0 0 0 0 0l-2.1 15.6M36 19c-1.7 0-3-1.3-3-3s1.3-3 3-3c1.7 0 3 1.3 3 3S37.7 19 36 19zM27.6 28.9 23 27.2c-.8-.3-1.2-1.1-.9-1.9.1-.4.4-.7.8-.9.2-.1.4-.1.7-.1.2 0 .4 0 .5.1l4.5 1.6 2.4-2.6c.9-.9 2.1-1.4 3.4-1.4h3.3c1.3 0 2.5.5 3.4 1.4l2.4 2.6 4.5-1.6c.2-.1.3-.1.5-.1.2 0 .5 0 .7.1.4.2.7.5.8.9.3.8-.1 1.6-.9 1.9l-4.6 1.7M32.6 29 32.6 26M39.3 26 39.3 29M10.1 15 24 15M10.1 19 24 19M10.1 23 16 23"/></g></g></svg>