<svg version="1.1" xmlns="http://www.w3.org/2000/svg" xmlns:xlink="http://www.w3.org/1999/xlink" x="0px" y="0px" width="58px" height="58px" viewBox="0 0 58 58" xml:space="preserve"><g><g><circle fill="none" stroke="#803c2d" stroke-width="1.5" stroke-linecap="round" stroke-linejoin="round" stroke-miterlimit="10" cx="25.5" cy="8.5" r="4.5"/><path fill="none" stroke="#803c2d" stroke-width="1.5" stroke-linecap="round" stroke-linejoin="round" stroke-miterlimit="10" d="M29.9,24.2v-2.6c0-2.5-1.8-4.8-4.3-5.1c-2.9-0.3-5.3,2-5.3,4.8v14.4c0,2.1,1.7,3.9,3.9,3.9h15.4L44,49c0.4,1,1.4,1.7,2.5,1.7l0,0 c1.9,0,3.2-1.9,2.6-3.7l-4.7-10.7c-0.6-1.5-2-2.5-3.6-2.5H29.9V30"/><path fill="none" stroke="#803c2d" stroke-width="1.5" stroke-linecap="round" stroke-linejoin="round" stroke-miterlimit="10" d="M24.2 20.3v5.8c0 2.1 1.7 3.9 3.9 3.9h8.7c1.6 0 2.9-1.3 2.9-2.9l0 0c0-1.6-1.3-2.9-2.9-2.9h-6.7M38.4 42.4C37 49 31.2 54 24.2 54c-8 0-14.4-6.5-14.4-14.4 0-5.5 3.1-10.4 7.7-12.8"/></g></g></svg>