<svg version="1.1" xmlns="http://www.w3.org/2000/svg" xmlns:xlink="http://www.w3.org/1999/xlink" x="0px" y="0px" width="455.2px" height="120.4px" viewBox="0 0 455.2 120.4" xml:space="preserve"><g><path fill="#f3ecda" d="M101.5 9.2v3.1c-2.1.5-4.2 1.9-6.5 4.2-2.3 2.3-4.4 5.9-6.4 10.9l-35 91.5c-.4 0-.8 0-1.2 0-.4 0-.9 0-1.4 0-.4 0-.8 0-1.2 0-.4 0-.8 0-1.2 0L10.3 22.2c-1.5-3.8-3.2-6.4-5.1-7.7-1.8-1.3-3.6-2.1-5.2-2.2V9.2c2.4.1 5.3.2 8.7.3 3.4.1 6.8.2 10.1.2 4.2 0 8.2-.1 11.9-.2 3.7-.1 6.7-.2 9-.3v3.1c-3.4.1-6 .5-7.9 1.2-1.8.7-2.8 2-3 3.8-.2 1.8.4 4.4 1.8 7.9l28.5 74.4-2.8 3.1 24.9-65.6c2.4-6.3 3.5-11.2 3.5-14.7s-1.1-6.1-3.4-7.6c-2.3-1.5-5.5-2.4-9.9-2.5V9.2c3.2.1 6.3.2 9.4.3 3.1.1 6 .2 8.8.2 2.6 0 4.8-.1 6.6-.2C98.3 9.4 99.9 9.3 101.5 9.2zM131.3 37.1V104c0 4.3.8 7.2 2.5 8.8s4.5 2.3 8.5 2.3v3.2c-1.7-.1-4.4-.2-8.1-.4-3.6-.2-7.4-.2-11.2-.2-3.7 0-7.4.1-11.2.2-3.7.2-6.5.3-8.4.4V115c4 0 6.9-.8 8.5-2.3s2.5-4.5 2.5-8.8V55.6c0-4.6-.8-8-2.3-10.2-1.5-2.2-4.5-3.3-8.8-3.3v-3.2c3.3.3 6.5.5 9.5.5 3.5 0 6.7-.2 9.8-.5C126 38.4 128.8 37.8 131.3 37.1zM122.1 0c3.2 0 5.9 1 8 3 2.2 2 3.2 4.5 3.2 7.5 0 3-1.1 5.5-3.2 7.5-2.2 2-4.8 3-8 3-3.2 0-5.9-1-8-3s-3.2-4.5-3.2-7.5c0-3 1.1-5.5 3.2-7.5S118.9 0 122.1 0zM176.8 36.7c4.1 0 7.7.6 10.7 1.9 3 1.3 5.2 2.4 6.5 3.5 3.4 2.7 5.5.9 6.3-5.2h3.4c-.2 2.9-.4 6.3-.5 10.4-.1 4.1-.2 9.4-.2 16.1h-3.4c-.6-3.8-1.7-7.5-3.2-11.1-1.5-3.6-3.6-6.6-6.5-8.9-2.8-2.4-6.5-3.5-11-3.5-3.4 0-6.2 1-8.5 2.8-2.3 1.9-3.4 4.7-3.4 8.4 0 3.1.9 5.8 2.8 8 1.8 2.3 4.2 4.4 7.2 6.3 2.9 2 6.1 4.1 9.5 6.3 3.8 2.6 7.2 5.1 10.2 7.6 3 2.5 5.4 5.3 7.2 8.4 1.8 3.1 2.7 6.7 2.7 10.8 0 4.7-1.3 8.7-3.8 12-2.5 3.3-5.8 5.8-9.9 7.5-4.1 1.7-8.6 2.5-13.6 2.5-2.5 0-4.8-.2-6.9-.7-2.2-.5-4.2-1.1-6-1.8-1.1-.6-2.2-1.3-3.3-1.9-1.1-.7-2.1-1.3-3.2-1.9-1-.7-2-.6-2.8.3-.8.9-1.4 2.6-1.8 4.9h-3.4c.2-3.3.4-7.3.5-12 .1-4.7.2-11 .2-18.8h3.4c.7 5.6 1.8 10.6 3.2 14.9 1.4 4.3 3.6 7.7 6.4 10.1 2.8 2.4 6.7 3.6 11.6 3.6 1.9 0 3.9-.4 5.9-1.3 1.9-.9 3.6-2.3 4.9-4.2 1.3-1.9 1.9-4.6 1.9-7.9 0-4.5-1.6-8.2-4.7-11.2-3.1-2.9-7.2-6-12.1-9.3-3.5-2.5-6.8-4.9-9.9-7.3-3.1-2.4-5.7-5.1-7.6-8.2-2-3-2.9-6.6-2.9-10.9 0-4.6 1.1-8.4 3.3-11.4 2.2-3 5.2-5.2 8.9-6.7C168.7 37.4 172.6 36.7 176.8 36.7zM242.3 37.1V104c0 4.3.8 7.2 2.5 8.8s4.5 2.3 8.5 2.3v3.2c-1.7-.1-4.4-.2-8.1-.4-3.6-.2-7.4-.2-11.2-.2-3.7 0-7.4.1-11.2.2-3.7.2-6.5.3-8.4.4V115c4 0 6.9-.8 8.5-2.3s2.5-4.5 2.5-8.8V55.6c0-4.6-.8-8-2.3-10.2-1.5-2.2-4.5-3.3-8.8-3.3v-3.2c3.3.3 6.5.5 9.5.5 3.5 0 6.7-.2 9.8-.5C237 38.4 239.8 37.8 242.3 37.1zM233.1 0c3.2 0 5.9 1 8 3 2.2 2 3.2 4.5 3.2 7.5 0 3-1.1 5.5-3.2 7.5-2.2 2-4.8 3-8 3-3.2 0-5.9-1-8-3s-3.2-4.5-3.2-7.5c0-3 1.1-5.5 3.2-7.5S229.9 0 233.1 0zM284.1 13.4V39h21.3V42h-21.3v60.5c0 4.2.8 7.2 2.3 8.9 1.5 1.7 3.7 2.6 6.6 2.6 2.7 0 5.1-1.1 7.2-3.2 2.1-2.2 3.9-5.8 5.5-10.9l2.9 1.1c-1.2 5.4-3.4 10-6.5 13.8-3.1 3.7-7.7 5.6-13.8 5.6-3.5 0-6.4-.4-8.8-1.3-2.4-.9-4.4-2.1-6.2-3.8-2.3-2.4-3.8-5.2-4.6-8.5-.8-3.3-1.2-7.6-1.2-13.1V42h-14.2V39h14.2V16.5c3.2-.1 6.2-.4 8.9-.8C279.2 15.2 281.7 14.4 284.1 13.4zM350.6 36.7c6.9 0 13 1.4 18.3 4.3 5.3 2.9 9.6 7.4 12.8 13.6 3.2 6.2 4.8 14.2 4.8 24.2 0 10-1.6 18-4.8 24.1-3.2 6.1-7.4 10.6-12.8 13.4-5.3 2.8-11.4 4.2-18.3 4.2-6.8 0-12.9-1.4-18.3-4.2-5.4-2.8-9.7-7.3-12.9-13.4-3.1-6.1-4.7-14.1-4.7-24.1 0-10 1.6-18 4.7-24.2 3.1-6.2 7.4-10.7 12.9-13.6C337.7 38.1 343.8 36.7 350.6 36.7zM350.6 39.7c-5.3 0-9.7 3.1-13.1 9.2-3.4 6.1-5.1 16-5.1 29.8 0 13.8 1.7 23.6 5.1 29.6 3.4 6 7.8 9 13.1 9 5.2 0 9.6-3 13-9 3.4-6 5.2-15.9 5.2-29.6 0-13.8-1.7-23.7-5.2-29.8C360.1 42.8 355.8 39.7 350.6 39.7zM441.2 36.7c3 0 5.5.6 7.6 1.8 2.1 1.2 3.7 2.8 4.8 4.7 1.1 1.9 1.6 4 1.6 6.4 0 3-.9 5.5-2.7 7.6-1.8 2.1-4.2 3.2-7.2 3.2-2.6 0-4.8-.8-6.5-2.3-1.8-1.5-2.7-3.6-2.7-6.3 0-2.3.6-4.2 1.8-5.8 1.2-1.6 2.5-2.8 4.1-3.8-1-.8-2.3-1.2-3.7-1.1-2.8.1-5.3 1-7.7 2.7-2.4 1.7-4.4 3.9-6 6.5-1.6 2.6-2.9 5.4-3.9 8.4-.9 3-1.4 5.8-1.4 8.3v35.4c0 5 1.4 8.4 4.2 10.1 2.8 1.7 6.6 2.5 11.5 2.5v3.2c-2.4-.1-5.7-.2-10.1-.4-4.4-.2-9-.2-13.8-.2-3.7 0-7.4.1-11.1.2-3.7.2-6.5.3-8.5.4V115c4 0 6.9-.8 8.5-2.3s2.5-4.5 2.5-8.8V55.6c0-4.6-.8-8-2.3-10.2-1.5-2.2-4.5-3.3-8.8-3.3v-3.2c3.3.3 6.5.5 9.5.5 3.5 0 6.7-.2 9.8-.5 3-.4 5.8-.9 8.4-1.6v17.7c1.2-3 2.9-5.9 4.9-8.6 2.1-2.8 4.5-5.1 7.4-6.9C434.6 37.6 437.7 36.7 441.2 36.7z"/></g></svg>