<svg version="1.1" xmlns="http://www.w3.org/2000/svg" xmlns:xlink="http://www.w3.org/1999/xlink" x="0px" y="0px" width="11.2px" height="49.9px" viewBox="0 0 11.2 49.9" xml:space="preserve"><g><path fill="#1A1A1A" d="M10.3 2.9c0 .5-.1.9-.2 1.1C10 4.3 9.9 4.5 9.7 4.7 9.7 4.8 9.6 4.9 9.6 5c0 .1 0 .1 0 .2 0 .1.1.2.2.2s.3.1.5.1v.3c-.2 0-.4 0-.6 0-.2 0-.5 0-.9 0-.4 0-.9 0-1.5 0V5.4c.5 0 .9-.1 1.3-.3.4-.2.8-.4 1-.8C9.8 4 10 3.6 10 3.1c0-.5-.1-.9-.4-1.2C9.3 1.6 8.9 1.4 8.4 1.4c-.4 0-.8.1-1 .3C7.1 1.9 6.9 2.2 6.6 2.6 6.4 2.9 6.1 3.4 5.8 3.8 5.5 4.3 5.2 4.7 4.9 5.1 4.7 5.4 4.3 5.7 4 6 3.6 6.2 3.2 6.3 2.7 6.3c-.6 0-1.1-.1-1.5-.4C.8 5.6.5 5.2.3 4.7.1 4.2 0 3.7 0 3.1c0-.5.1-.9.2-1.2.1-.3.2-.6.3-.8.1-.2.2-.4.2-.5 0-.1-.1-.2-.2-.2-.1 0-.3-.1-.5-.1V0c.2 0 .4 0 .7 0s.6 0 1.1 0 1 0 1.7 0v.3C3 .4 2.5.5 2 .7 1.5.9 1.1 1.1.8 1.5.5 1.9.3 2.3.3 2.9c0 .3.1.6.2.9.1.3.3.5.6.7.3.2.6.3 1 .3.4 0 .7-.1 1-.3C3.4 4.3 3.6 4 3.9 3.7 4.1 3.4 4.4 3 4.6 2.6c.3-.4.6-.8.8-1.2s.6-.7 1-.9.8-.3 1.3-.3c.6 0 1 .1 1.4.4.4.3.6.6.8 1C10.2 1.9 10.3 2.4 10.3 2.9zM7.6 13.7c0 .3 0 .6-.1.9-.1.3-.2.5-.3.8-.1.2-.3.4-.5.5C6.5 16 6.3 16 6 16c-.3 0-.5-.1-.7-.2-.2-.2-.2-.4-.2-.6s.1-.5.2-.6c.1-.2.3-.3.6-.3.2 0 .4.1.6.2.2.1.3.3.3.5.1-.1.3-.2.4-.4.1-.2.1-.4.1-.7 0-.3-.1-.5-.2-.7s-.3-.4-.6-.6c-.3-.2-.6-.3-1-.4S4.5 12 3.9 12c-.8 0-1.4.1-1.9.3-.5.2-.8.4-1 .7s-.3.6-.3 1c0 .2 0 .5.1.7.1.2.2.5.4.7.2.2.5.4.8.6L2 16.1c-.3-.1-.6-.3-.9-.5-.3-.2-.6-.5-.8-.9C.1 14.4 0 14 0 13.5c0-.6.1-1.1.4-1.6.3-.5.7-.9 1.3-1.1.6-.3 1.2-.4 2-.4.8 0 1.5.1 2.1.4.6.3 1 .7 1.4 1.2C7.5 12.5 7.6 13 7.6 13.7zM7.6 24.2c0 .3-.1.5-.2.7S7.2 25.3 7 25.4c-.2.1-.4.1-.6.1-.3 0-.5-.1-.7-.2s-.3-.4-.3-.7c0-.2.1-.4.2-.6.1-.2.3-.2.6-.2.2 0 .4.1.5.2C6.9 24 7 24.2 7.1 24.3c.1-.1.1-.2.1-.3 0-.3-.1-.5-.2-.7-.2-.2-.4-.4-.6-.5-.2-.1-.5-.3-.8-.3-.3-.1-.5-.1-.8-.1H1.6c-.5 0-.8.1-.9.4s-.2.6-.2 1H.2c0-.2 0-.5 0-.9 0-.4 0-.8 0-1.3 0-.3 0-.7 0-1 0-.3 0-.6 0-.8h.3c0 .4.1.6.2.8.1.2.4.2.8.2h4.4c.4 0 .7-.1.9-.2.2-.1.3-.4.3-.8h.3c0 .3 0 .6 0 .9 0 .3 0 .6 0 .9 0 .3.1.5.1.8H6c.3.1.5.3.8.4.3.2.5.4.6.7C7.5 23.6 7.6 23.9 7.6 24.2zM7.6 32.4c0 .6-.1 1.2-.4 1.7C7 34.5 6.6 34.9 6 35.2s-1.3.4-2.2.4c-.9 0-1.6-.1-2.2-.4s-1-.7-1.2-1.2C.1 33.5 0 33 0 32.4c0-.6.1-1.2.4-1.7.3-.5.7-.9 1.2-1.2.6-.3 1.3-.4 2.2-.4.9 0 1.6.1 2.2.4.6.3 1 .7 1.2 1.2C7.5 31.2 7.6 31.7 7.6 32.4zM7.3 32.4c0-.5-.3-.9-.8-1.2-.6-.3-1.5-.5-2.7-.5-1.2 0-2.1.2-2.7.5-.5.3-.8.7-.8 1.2 0 .5.3.9.8 1.2C1.6 33.9 2.5 34 3.8 34c1.3 0 2.2-.2 2.7-.5C7.1 33.2 7.3 32.8 7.3 32.4zM11.2 41.6H1.5c-.4 0-.7.1-.8.2s-.2.4-.2.8H.2c0-.2 0-.4 0-.7 0-.3 0-.7 0-1s0-.7 0-1 0-.6 0-.8h.3c0 .4.1.6.2.8.1.2.4.2.8.2h8c.4 0 .7-.1.9-.2.2-.1.3-.4.3-.8H11c0 .3 0 .6 0 .9 0 .3 0 .6 0 .9S11.1 41.4 11.2 41.6zM11.2 48.9H1.5c-.4 0-.7.1-.8.2s-.2.4-.2.8H.2c0-.2 0-.4 0-.7 0-.3 0-.7 0-1s0-.7 0-1 0-.6 0-.8h.3c0 .4.1.6.2.8.1.2.4.2.8.2h8c.4 0 .7-.1.9-.2.2-.1.3-.4.3-.8H11c0 .3 0 .6 0 .9 0 .3 0 .6 0 .9S11.1 48.6 11.2 48.9z"/></g></svg>