<svg version="1.1" xmlns="http://www.w3.org/2000/svg" xmlns:xlink="http://www.w3.org/1999/xlink" x="0px" y="0px" width="112.3px" height="24px" viewBox="0 0 112.3 24" xml:space="preserve"><g><path fill="#003E70" d="M22.8 0 18.6 15.6 13.5 0 6.4 0 0 24 5.8 24 5.9 24 5.9 24 10.3 7.3 15.8 24 22.2 24 22.2 24 28.7 0zM106.5 0 100 24 105.9 24 112.3 0zM32.2 0 25.7 24 31.6 24 38 0zM97.8 14.1 99 9.7 89 9.7 90.3 4.9 101.5 4.9 102.8 0 85.7 0 79.4 23.5 74.8 11.1 73 11.1 73 11.1 84 0 77.1 0 66.8 10.2 69.5 0 63.7 0 57.4 23.6 52.7 11.1 50.9 11.1 50.9 11.1 61.8 0 54.9 0 44.7 10.2 47.4 0 41.5 0 35.1 24 35.2 24 40.9 24 41 24 44.4 11.1 46.5 11.1 50.7 24 63.1 24 63.1 24 66.6 11.1 68.6 11.1 72.9 24 96.5 24 97.8 19.1 86.5 19.1 87.8 14.1z"/></g></svg>