<svg version="1.1" xmlns="http://www.w3.org/2000/svg" xmlns:xlink="http://www.w3.org/1999/xlink" x="0px" y="0px" width="268.992px" height="107.54px" viewBox="0 0 268.992 107.54" xml:space="preserve"><g><path fill="#EE93AB" d="m22.858 36.123 7.736-6.508c.236-.195.34-.508.268-.807-.072-.299-.307-.531-.606-.6L22.08 26.34c-.248-.055-.508.006-.699.168-.102.084-.182.195-.228.314-.045.107-.066.227-.061.348l.438 8.375c.016.307.203.578.484.701C22.295 36.369 22.623 36.32 22.858 36.123M30.754 78.418l-7.23-7.061c-.221-.213-.543-.283-.83-.186-.291.102-.5.357-.539.66l-1.057 8.322c-.031.252.057.502.238.68.092.092.209.16.332.195.113.035.234.043.352.025l8.293-1.258c.305-.045.555-.26.646-.551C31.057 78.953 30.977 78.633 30.754 78.418M73.187 36.123l-7.737-6.508c-.235-.195-.34-.508-.267-.807.074-.299.308-.531.606-.6l8.177-1.869c.246-.055.505.006.701.168.1.084.175.195.224.314.048.107.066.227.061.348l-.439 8.375c-.014.307-.199.578-.482.701C73.749 36.369 73.422 36.32 73.187 36.123M65.288 78.418l7.234-7.061c.22-.213.543-.283.83-.186.29.102.496.357.535.66l1.059 8.322c.033.252-.056.502-.237.68-.092.092-.206.16-.334.195-.112.035-.229.043-.352.025l-8.294-1.258c-.301-.045-.554-.26-.648-.551C64.988 78.953 65.07 78.633 65.288 78.418M60.064 30.092 48.992 15.504c-.584-.766-1.38-.773-1.977-.016L35.699 29.885c-.457.576-.725 1.512-.725 2.502 0 .994.271 1.918.727 2.475l11.082 13.574c.28.344.607.518.935.52.328.004.655-.162.947-.504l11.306-13.383c.468-.551.751-1.467.774-2.459C60.76 31.617 60.505 30.676 60.064 30.092M60.064 71.555 48.992 56.967c-.584-.766-1.38-.773-1.977-.018L35.699 71.344c-.457.578-.725 1.514-.725 2.506 0 .992.271 1.916.727 2.471l11.082 13.576c.28.346.607.518.935.52.328.006.655-.164.947-.504l11.306-13.379c.468-.551.751-1.471.774-2.461C60.76 73.08 60.505 72.139 60.064 71.555M70.099 64.965l14.588-11.07c.768-.584.772-1.377.016-1.977L70.307 40.602c-.575-.455-1.511-.723-2.501-.723-.994 0-1.92.271-2.477.725l-13.572 11.08c-.346.281-.517.609-.521.936-.002.33.164.658.507.949l13.379 11.307c.55.465 1.468.75 2.462.77C68.576 65.664 69.519 65.41 70.099 64.965M28.637 64.965l14.589-11.07c.767-.584.773-1.377.015-1.977L28.846 40.602c-.576-.455-1.512-.723-2.504-.723-.992 0-1.916.271-2.473.725l-13.572 11.08c-.348.281-.519.609-.521.936-.006.33.166.658.504.949L23.66 64.875c.551.465 1.469.75 2.459.77C27.114 65.664 28.055 65.41 28.637 64.965"/><path fill="#D52E61" d="m43.209 96.844-7.356-11.682c-.386-.613-1.124-.914-1.833-.738l-13.402 3.295c-.537.131-.975.518-1.174 1.031-.197.52-.131 1.102.178 1.557l7.566 11.158c.193.285.463.494.768.617.305.123.644.158.978.088l13.191-2.773c.542-.109.993-.48 1.21-.992C43.55 97.896 43.505 97.311 43.209 96.844M53.709 99.105l13.464 3.057c.709.162 1.442-.15 1.819-.77l7.15-11.812c.286-.469.321-1.053.098-1.559-.228-.508-.686-.867-1.228-.975l-13.238-2.539c-.338-.066-.676-.021-.981.107-.301.127-.566.342-.75.633l-7.37 11.285c-.305.461-.359 1.045-.152 1.559C52.727 98.604 53.173 98.982 53.709 99.105M76.125 18.395 68.769 6.713c-.387-.617-1.126-.916-1.834-.742L53.533 9.266c-.536.133-.976.521-1.175 1.035-.2.518-.129 1.098.178 1.557l7.568 11.156c.193.283.459.492.766.617.304.123.646.158.981.088l13.19-2.771c.544-.113.993-.488 1.212-.994C76.468 19.445 76.421 18.861 76.125 18.395M20.647 20.889l13.461 3.059c.709.162 1.441-.152 1.818-.775l7.15-11.807c.286-.475.321-1.059.097-1.561-.221-.506-.681-.869-1.229-.973L28.711 6.291c-.34-.064-.68-.023-.983.105-.303.127-.566.348-.75.633l-7.371 11.285c-.303.465-.361 1.047-.152 1.559C19.664 20.387 20.108 20.768 20.647 20.889M90.687 57.41l-11.678 7.354c-.618.391-.914 1.127-.74 1.834l3.295 13.406c.13.535.518.973 1.033 1.172.519.199 1.097.131 1.555-.18l11.157-7.566c.283-.191.498-.461.617-.768.125-.301.162-.643.088-.98L93.242 58.49c-.111-.539-.484-.99-.993-1.207C91.738 57.07 91.158 57.113 90.687 57.41M92.846 46.908l3.059-13.461c.158-.711-.15-1.443-.771-1.818l-11.812-7.15c-.473-.287-1.057-.322-1.559-.098-.509.227-.873.684-.974 1.225l-2.542 13.24c-.062.338-.021.676.105.979.131.301.344.566.631.754l11.288 7.371c.464.301 1.048.357 1.555.148C92.342 47.893 92.722 47.445 92.846 46.908M12.469 24.496.789 31.85c-.617.389-.914 1.129-.74 1.834l3.295 13.404c.133.537.52.975 1.035 1.172.516.201 1.096.135 1.553-.178l11.158-7.566c.285-.193.494-.461.619-.764.121-.307.156-.648.086-.982l-2.771-13.191c-.113-.541-.484-.992-.994-1.211C13.522 24.154 12.938 24.201 12.469 24.496M14.959 79.971l3.064-13.461c.16-.705-.154-1.441-.775-1.82L5.442 57.545c-.473-.289-1.061-.324-1.563-.098-.506.223-.871.678-.977 1.221L.366 71.91c-.062.336-.022.676.103.977.131.307.344.57.635.756l11.287 7.369c.461.305 1.043.359 1.558.154C14.459 80.957 14.84 80.512 14.959 79.971"/><g><g><g><path fill="#D52E61" d="M177.199 88.667c-.209.103-.41.214-.607.339.518.299.879.758 1.076 1.369.809 2.508-1.369 6.975-3.201 9.67.166.24.338.463.527.643.01.011.023.018.035.028 6.244-6.963 5.123-10.298 4.969-10.663-.389-1.053-1.02-1.579-1.879-1.579C177.61 88.474 177.203 88.665 177.199 88.667zM164.313 99.627c1.234-4.705 1.578-5.893 2.596-9.417.416-1.44.943-3.269 1.691-5.89.564-1.911.717-3.563.459-4.917-.344-1.362-1.414-2.054-3.184-2.054-.203 0-.398.011-.584.026-.025.002-.053.003-.078.006-.172.017-.332.036-.477.059-.027.005-.053.009-.08.013-.135.021-.256.045-.354.065-.016.003-.029.007-.045.01-.088.02-.166.038-.205.048.25 1.885-.115 3.85-.34 5.066l-.064.347c-.057.205-4.074 13.88-4.594 15.94-.047.184-.104.393-.166.621-.492 1.802-1.315 4.816.008 6.548.986 1.292 3.145 1.722 6.344 1.263.02-.002.041-.005.061-.008-.045-.029-.09-.06-.133-.091C164.061 106.465 163.012 104.494 164.313 99.627z"/><path fill="#D52E61" d="M163.112 76.566h.002l.17-.066c.117-.047.236-.093.352-.131.068-.021 1.047-.296 2.24-.296.289 0 .566.017.832.049.088.011.168.032.256.047.17.028.34.055.5.097.096.025.182.062.275.092.137.045.275.088.402.144.09.039.172.089.256.133.096.05.197.093.287.149-.277-.713-.652-1.346-1.119-1.858-1.426-1.568-3.648-2.05-6.469-1.403-.463.112-.93.244-1.395.377-.006.002-.012.004-.016.006-16.521 4.721-29.363 20.986-33.244 26.367l7.563-2.988c.075-.029.155-.044.234-.044.1 0 .199.022.29.069.163.084.282.232.328.41l2.072 8.07c.719-2.715 2.394-7.09 6.291-12.189C149.606 85.24 157.039 78.873 163.112 76.566L163.112 76.566zM187.668 90.699c-.053-.33-.117-.277-.234-.277-.09 0-.182.609-.24.836-1.252 7.635-3.984 9.07-4.049 9.131-.996.994-3.686 1.766-5.916 1.766-.799 0-1.512-.223-2.133-.65-.078-.053-.15-.119-.225-.18-.092-.074-.189-.137-.277-.221-.234-.226-.449-.506-.652-.809-.057-.086-.115-.17-.17-.262-.021-.036-.047-.066-.068-.104-.428-.759-.762-1.725-.99-2.873-.002-.007-.004-.015-.006-.023l-.016-.08c-.004-.021-.006-.042-.004-.062-.105-.906-.471-5.72 3.258-8.321.359-.252.744-.476 1.145-.664.023-.011.576-.265 1.277-.247-.428-.154-.967-.196-1.549-.08-.037.006-1.674.232-3.426 1.506-2.312 1.684-3.779 4.434-4.244 7.957-.24 2.191.332 4.371 1.613 6.129.223.304.455.585.695.836.002.002.004.004.006.007 1.414 1.477 3.248 2.29 5.166 2.29.469 0 .943-.051 1.414-.146 3.836-.781 9.055-4.566 9.471-11.729.144-1.334.189-2.527.174-3.592C187.68 90.785 187.674 90.738 187.668 90.699zM166.123 106.334c-.162.045-.326.104-.488.14.32.147.689.222 1.102.222h.002c.832 0 1.822-.322 2.871-.89.213-.11.43-.232.648-.367.01-.007.021-.013.031-.02.189-.116.379-.249.568-.383.045-.031.09-.06.135-.092l.119-.093c-.215-.201-.428-.422-.633-.654C169.008 105.238 167.549 105.943 166.123 106.334z"/></g><g><g><path fill="#D52E61" d="M197.928,95.282c-1.205,1.452-2.412,2.912-3.621,4.38c-1.969,2.417-2.969,3.773-2.996,4.067 l0.354,0.193c0.889-0.048,2.277-0.804,4.162-2.271c1.957-1.513,2.543-2.034,3.34-2.644l-0.076,0.623 c-1.83,1.717-1.164,1.145-3.535,2.902c-2.098,1.559-3.647,2.114-4.326,2.184c-0.848,0.084-1.27-0.322-1.27-1.225 c0-0.693,0.271-1.463,0.811-2.309c0.041-0.059,0.541-0.732,1.498-2.023c-0.582,0.488-1.338,1.029-2.268,1.623l-0.229-0.249 l0.145-0.264c2.318-1.772,4.203-3.357,5.66-4.752L197.928,95.282z M202.319,90.012c-0.193,0.506-0.645,1.022-1.352,1.551 c-0.514-0.294-0.922-0.697-1.226-1.207c0.262-0.609,0.685-1.103,1.267-1.48C201.438,89.04,201.875,89.419,202.319,90.012z"/><path fill="#D52E61" d="M213.889 100.729c-2.178 1.357-3.635 2.073-4.369 2.146-.861.087-1.291-.355-1.291-1.326 0-.846.625-2.09 1.873-3.725.969-1.141 1.936-2.283 2.891-3.434l-.353-.07c-2.316.233-5.949 3.347-10.902 9.338l-2.352.237c2.109-2.708 4.252-5.588 6.432-8.636l-.23-.167c-.848.073-3.094 1.667-6.742 4.778l-.229-.227.104-.219c1.043-1.021 2.184-1.994 3.434-2.926 1.691-1.251 2.949-1.92 3.768-2.002.691-.07 1.041.264 1.041 1 0 .664-.279 1.482-.834 2.455 2.928-2.611 5.092-3.988 6.494-4.131.76-.076 1.143.336 1.143 1.236 0 1.078-.701 2.426-2.104 4.041-1.398 1.613-2.1 2.531-2.1 2.753 0 .179.125.257.375.231 1-.101 2.438-.345 4.316-1.796M218.737 97.912l-.186-.273.125-.263c3.938-3.06 6.795-5.671 8.57-7.833l-1.08.109-.354-.235c.111-.263.756-.431 1.936-.507l3.621-4.422 2.424-.244-3.648 4.425 2.617-.263.271.263c-.043.253-1.139.462-3.289.623-1.664 2.011-3.328 4.023-4.992 6.036-2.748 3.369-4.143 5.205-4.184 5.498l.312.156c1.609-.078 4.035-1.6 7.283-4.562l.186.274c-.014.582-1.143 1.569-3.391 2.961-2.15 1.328-3.607 2.028-4.369 2.105-.859.086-1.291-.309-1.291-1.183 0-.985.479-2.079 1.436-3.284.846-.932 1.691-1.863 2.537-2.796C221.914 95.58 220.401 96.719 218.737 97.912z"/><path fill="#D52E61" d="M237.61,95.34l0.209,0.402l0.207-0.025c-3.787,3.113-6.693,4.984-8.137,5.13 c-1.815,0.183-2.725-0.428-2.725-1.827c0-1.498,0.951-3.105,2.852-4.822c1.816-1.641,3.488-2.538,5.014-2.691 c0.875-0.088,1.311,0.23,1.311,0.951c0,0.831-0.664,1.635-1.996,2.406c-1.236,0.65-2.471,1.311-3.703,1.975 c-1.334,0.827-1.998,1.741-1.998,2.739c0,0.499,0.311,0.719,0.936,0.655c1.318-0.133,2.98-0.966,4.984-2.498 C236.567,96.201,237.58,95.342,237.61,95.34z M231.035,95.799c3.121-1.341,4.682-2.426,4.682-3.26 c0-0.318-0.152-0.463-0.459-0.432C234.19,92.215,232.783,93.445,231.035,95.799z"/><path fill="#D52E61" d="M237.381 95.535c1.75-1.633 3.033-2.914 3.85-3.842-.512-.115-.77-.416-.77-.899 0-.833.43-1.293 1.291-1.38.555-.055.83.203.83.77 0 .333-.131.617-.395.852.832-.084 1.582-.264 2.248-.537l.811 1.561c-.984 1.156-1.969 2.308-2.953 3.462-1.582 1.892-2.375 2.972-2.375 3.234 0 .195.141.276.418.249 1.5-.152 3.842-1.656 7.033-4.516l.25.309c-.016.458-1.174 1.407-3.475 2.846-2.232 1.39-3.676 2.118-4.328 2.184-.873.088-1.311-.389-1.311-1.43 0-.831.686-2.086 2.059-3.765.945-1.052 1.887-2.104 2.83-3.155-.486.132-.936.205-1.354.219-2.539 2.794-4.041 4.229-4.514 4.305l-.229-.27L237.381 95.535zM227.301 89.471c0 0-8.168 9.29-17.203 12.652 0 0 .699.357.795.275.094-.08 11.32-4.748 17.455-13.594l-.975.693"/></g></g><path fill="#D52E61" d="m250.905 82.459-.238-.258.139-.131c.156-.145.164-.387.021-.543-.144-.154-.389-.164-.543-.02l-.141.131-.43-.463.43.02c.211.008.393-.156.4-.367.01-.213-.154-.393-.367-.402l-1.209-.053-.188-.201c.072-.115.133-.24.176-.377.041-.135.062-.273.066-.408l.268-.062 1.031.637c.029.018.059.031.09.041.162.049.344-.014.438-.166.113-.18.057-.418-.125-.529l-.367-.227.617-.141.043.188c.031.139.137.242.264.281.061.02.127.023.197.008.207-.049.336-.254.289-.461l-.045-.188.346-.078c.205-.047.334-.254.287-.461-.049-.205-.252-.336-.459-.287l-.344.078-.043-.188c-.047-.207-.252-.336-.459-.289-.209.047-.336.254-.289.461l.043.188-.617.141.232-.365c.115-.178.061-.416-.119-.529-.18-.113-.416-.062-.529.117l-.65 1.021-.27.061c-.127-.244-.318-.453-.561-.602l.082-.262 1.055-.547c.188-.098.26-.33.162-.52-.098-.188-.332-.262-.518-.162l-.383.197.184-.59.184.057c.201.062.416-.053.478-.254.063-.203-.051-.418-.252-.48l-.186-.057.113-.367c.062-.203-.053-.418-.254-.48-.203-.062-.416.051-.479.254l-.113.367-.184-.057c-.203-.062-.418.051-.481.254-.062.203.051.418.254.48l.184.057-.182.592-.205-.379c-.1-.188-.334-.258-.52-.156-.188.1-.258.332-.158.52l.564 1.047-.08.262c-.283-.014-.559.051-.801.182l-.188-.199.053-1.188c.01-.213-.154-.391-.367-.4-.211-.01-.391.154-.4.365l-.018.432-.422-.453.141-.131c.156-.145.164-.387.021-.543-.144-.156-.387-.164-.543-.02l-.142.131-.26-.281c-.145-.156-.389-.164-.543-.021-.156.145-.164.389-.021.543l.264.283-.145.129c-.152.145-.164.387-.018.543.049.053.105.086.168.105.127.039.27.012.375-.084l.141-.133.422.453-.432-.012c-.211-.006-.389.16-.395.373-.008.176.109.328.27.379.033.01.066.016.104.016l1.186.037.188.199c-.074.115-.133.24-.176.375-.041.137-.062.273-.066.41l-.266.061-1.002-.639c-.18-.115-.418-.061-.531.117-.113.18-.062.416.117.531l.363.23-.604.139-.041-.188c-.049-.207-.254-.336-.461-.289-.207.047-.338.254-.289.459l.043.189-.375.084c-.207.049-.336.254-.289.461.033.139.135.242.264.281.061.02.129.024.197.008l.373-.086.045.188c.031.139.135.242.26.281.062.02.131.023.199.008.207-.049.334-.254.289-.461l-.043-.188.604-.137-.227.365c-.111.18-.057.418.125.529.029.018.059.031.09.041.162.049.344-.014.438-.166l.623-1.012.27-.061c.127.244.316.453.559.602l-.082.266-1.064.572c-.187.102-.258.334-.158.522.102.186.336.256.521.156l.381-.205-.188.604-.184-.055c-.203-.062-.418.051-.48.252-.062.203.053.418.256.48l.184.057-.103.338c-.063.201.051.418.252.479.203.062.418-.051.48-.254l.104-.336.186.057c.201.062.416-.051.479-.254.062-.203-.051-.418-.252-.48l-.186-.057.186-.604.199.383c.051.094.133.16.227.189.094.027.199.021.293-.027.188-.098.26-.328.162-.518l-.559-1.074.082-.264c.283.012.559-.053.799-.184l.189.203-.037 1.209c-.004.178.111.33.272.379.031.01.066.016.102.018.213.006.391-.16.396-.373l.012-.43.432.463-.143.129c-.154.146-.164.389-.018.545.045.051.104.086.166.105.127.039.27.01.375-.086l.141-.131.238.258c.049.051.107.086.17.105.127.039.271.012.375-.086C251.039 82.857 251.049 82.615 250.905 82.459zM247.26 80.078c-.404-.125-.633-.557-.508-.961.125-.404.555-.633.961-.508.404.125.633.555.508.961C248.096 79.975 247.664 80.203 247.26 80.078zM259.692 76.729c-.094-.287-.402-.445-.691-.352-.061.02-.113.051-.162.09l-.002-.004c-.244.189-.551.424-.797.611-.065-.082-.15-.146-.252-.182.104-.293.233-.656.334-.947h-.002c.021-.059.033-.119.033-.184 0-.303-.244-.549-.547-.549-.305 0-.549.246-.549.549 0 .064.012.125.033.184h-.002c.102.291.23.654.334.947-.1.035-.188.1-.252.182-.244-.188-.551-.422-.797-.611v.002c-.049-.037-.103-.068-.164-.088-.289-.094-.598.064-.691.352-.094.289.064.598.352.693.063.02.123.025.186.023l-.002.002c.309-.008.695-.018 1.004-.025.004.109.037.211.096.297-.254.176-.572.393-.826.568l.002.002c-.051.035-.098.076-.135.127-.178.246-.123.59.121.768.246.178.588.123.768-.121.037-.053.062-.109.078-.168l.004.002c.088-.297.197-.668.285-.965.051.014.102.025.156.025.053 0 .105-.012.154-.025.088.297.199.668.287.965v-.002c.02.059.043.115.082.168.178.244.522.299.766.121.246-.178.299-.521.121-.768-.037-.051-.084-.092-.135-.127l.002-.002c-.254-.176-.57-.393-.826-.568.059-.086.092-.188.096-.297.309.008.695.018 1.004.025v-.002c.061.002.121-.004.184-.023C259.629 77.326 259.785 77.018 259.692 76.729z"/></g><g><path fill="#D52E61" d="M154.942.711 146.264 30.646 145.131 30.646 136.328 1.758 136.244 1.758 127.606 30.646 126.473 30.646 117.67.711 118.505.711 126.98 29.6 127.062 29.6 135.698.711 136.914.711 145.676 29.6 145.76 29.6 154.106.711zM156.768 9.643c.6-1.902 1.482-3.564 2.643-4.99 1.158-1.426 2.602-2.559 4.316-3.397C165.446.416 167.424 0 169.66 0s4.215.416 5.93 1.256c1.721.838 3.164 1.971 4.32 3.397 1.16 1.426 2.043 3.088 2.645 4.99.602 1.9.902 3.914.902 6.035 0 2.129-.301 4.139-.902 6.039-.602 1.902-1.484 3.564-2.645 4.99-1.156 1.428-2.6 2.553-4.32 3.375-1.715.824-3.693 1.236-5.93 1.236s-4.215-.412-5.934-1.236c-1.715-.822-3.158-1.947-4.316-3.375-1.16-1.426-2.043-3.088-2.643-4.99-.604-1.9-.9-3.91-.9-6.039C155.867 13.557 156.164 11.543 156.768 9.643M157.647 21.633c.604 1.816 1.455 3.385 2.559 4.697 1.107 1.315 2.453 2.342 4.047 3.082 1.592.74 3.396 1.113 5.408 1.113 2.014 0 3.814-.373 5.412-1.113 1.592-.74 2.939-1.767 4.045-3.082 1.102-1.312 1.953-2.881 2.559-4.697.6-1.816.912-3.801.938-5.955-.025-2.149-.338-4.135-.938-5.951-.605-1.816-1.457-3.385-2.559-4.697-1.105-1.314-2.453-2.34-4.045-3.082-1.598-.74-3.398-1.111-5.412-1.111-2.012 0-3.816.371-5.408 1.111-1.594.742-2.939 1.768-4.047 3.082-1.104 1.312-1.955 2.881-2.559 4.697-.6 1.816-.914 3.803-.943 5.951C156.733 17.832 157.047 19.816 157.647 21.633M216.035.711 216.035 30.646 215.198 30.646 215.198 1.758 215.112 1.758 202.407 30.646 201.485 30.646 188.782 1.758 188.696 1.758 188.696 30.646 187.858 30.646 187.858.711 189.242.711 201.905 29.559 201.989 29.559 214.655.711zM219.6 30.646h-.922l12.115-29.935h1.094l11.822 29.935h-.924l-3.941-9.851H223.58L219.6 30.646zM231.383 1.551h-.088l-7.379 18.404h14.596L231.383 1.551zM247.608.711 268.071 29.6 268.155 29.6 268.155.711 268.992.711 268.992 30.646 267.735 30.646 247.274 1.758 247.19 1.758 247.19 30.646 246.348 30.646 246.348.711z"/></g><g><g><path fill="#D52E61" d="M135.733 45.455 122.301 45.455 122.301 50.846 134.629 50.846 134.629 55.254 122.301 55.254 122.301 61.779 136.353 61.779 136.353 66.34 117.117 66.34 117.117 40.961 135.733 40.961zM146.655 66.34 140.489 66.34 148.653 53.41 140.885 40.961 147.221 40.961 151.748 49.227 156.403 40.961 162.528 40.961 154.762 53.205 163.012 66.34 156.573 66.34 151.748 57.689zM183.869 55.355c-1.488 1.24-3.613 1.859-6.369 1.859h-5.285v9.125h-5.268V40.961h10.896c2.514 0 4.518.656 6.01 1.963 1.492 1.311 2.24 3.334 2.24 6.078C186.094 51.998 185.352 54.115 183.869 55.355M179.815 46.213c-.668-.562-1.609-.846-2.82-.846h-4.779v7.475h4.779c1.211 0 2.152-.305 2.82-.91.678-.611 1.008-1.578 1.008-2.899C180.823 47.715 180.492 46.775 179.815 46.213M209.891 64.086c-1.916 1.975-4.69 2.963-8.315 2.963-3.631 0-6.402-.988-8.318-2.963-2.574-2.422-3.855-5.91-3.855-10.469 0-4.65 1.281-8.141 3.855-10.469 1.916-1.977 4.688-2.963 8.318-2.963 3.625 0 6.398.986 8.315 2.963 2.56 2.328 3.842 5.818 3.842 10.469C213.733 58.176 212.451 61.664 209.891 64.086M206.576 60.23c1.234-1.551 1.85-3.756 1.85-6.613 0-2.846-.615-5.049-1.85-6.604-1.232-1.557-2.9-2.336-5-2.336-2.102 0-3.781.777-5.031 2.328-1.25 1.549-1.877 3.754-1.877 6.611 0 2.857.627 5.062 1.877 6.613 1.25 1.549 2.93 2.322 5.031 2.322C203.676 62.553 205.344 61.779 206.576 60.23"/></g><g><path fill="#D52E61" d="M222.504 51.244c0-.688.107-1.315.319-1.877.209-.562.516-1.046.913-1.448.397-.407.877-.718 1.439-.934.562-.218 1.186-.33 1.875-.33.704 0 1.321.104 1.858.311.537.205.987.479 1.351.821.363.348.639.757.823 1.233.184.478.278.98.278 1.507 0 .626-.102 1.172-.309 1.649-.203.478-.477.9-.812 1.273-.339.369-.724.697-1.15.988-.433.296-.873.569-1.324.825-.448.261-.894.509-1.33.747-.437.239-.826.488-1.169.754-.229.173-.445.352-.657.546-.214.193-.404.401-.576.627-.173.223-.31.471-.415.742-.108.273-.168.573-.182.903h7.806v1.073h-9.155c.013-.675.086-1.285.218-1.825.134-.542.423-1.073.876-1.591.488-.557.993-1.032 1.518-1.43.523-.396 1.037-.752 1.54-1.062.501-.312.979-.596 1.429-.854.448-.259.846-.539 1.189-.844.346-.305.619-.648.817-1.033.197-.384.296-.854.296-1.408 0-.451-.078-.856-.236-1.213-.16-.355-.378-.659-.658-.912-.276-.253-.602-.442-.972-.565-.371-.128-.774-.188-1.213-.188-.46 0-.882.094-1.26.286-.376.193-.702.447-.971.764-.273.319-.481.689-.628 1.113-.144.424-.206.872-.18 1.351H222.504zM239.229 46.655c.688 0 1.285.104 1.788.311.504.205.928.483 1.281.843.35.357.634.773.853 1.252.218.475.388.98.507 1.518.118.537.2 1.091.239 1.658.039.569.059 1.126.059 1.666 0 .929-.066 1.815-.197 2.663-.133.849-.375 1.595-.725 2.245-.351.646-.833 1.165-1.441 1.55-.609.383-1.396.575-2.363.575-.968 0-1.755-.192-2.374-.575-.614-.385-1.098-.907-1.448-1.561-.352-.655-.594-1.416-.726-2.285-.132-.863-.198-1.78-.198-2.748 0-.885.06-1.756.181-2.603.117-.847.345-1.605.684-2.272.338-.671.817-1.211 1.44-1.619C237.41 46.859 238.221 46.655 239.229 46.655zM242.684 53.767c0-.754-.043-1.491-.129-2.214-.084-.723-.253-1.368-.508-1.938-.249-.566-.605-1.025-1.06-1.369-.456-.347-1.056-.515-1.799-.515-.703 0-1.273.173-1.715.525-.446.349-.793.815-1.047 1.397-.252.585-.426 1.247-.523 1.986-.102.741-.15 1.499-.15 2.263 0 .904.055 1.722.17 2.455.111.735.301 1.36.566 1.876.263.519.62.919 1.06 1.202.445.286 1.003.427 1.679.427.757 0 1.36-.185 1.818-.556.455-.373.804-.848 1.042-1.431.236-.582.396-1.237.476-1.967C242.645 55.182 242.684 54.468 242.684 53.767zM247.526 51.244c0-.688.104-1.315.317-1.877.213-.562.516-1.046.914-1.448.397-.407.875-.718 1.439-.934.562-.218 1.186-.33 1.877-.33.7 0 1.318.104 1.856.311.535.205.986.479 1.35.821.362.348.638.757.825 1.233.185.478.28.98.28 1.507 0 .626-.105 1.172-.312 1.649-.204.478-.475.9-.814 1.273-.337.369-.72.697-1.149.988-.433.296-.871.569-1.322.825-.451.261-.895.509-1.331.747-.436.239-.828.488-1.172.754-.224.173-.443.352-.654.546-.211.193-.404.401-.576.627-.173.223-.31.471-.416.742-.106.273-.167.573-.178.903h7.802v1.073h-9.153c.01-.675.084-1.285.217-1.825.135-.542.424-1.073.873-1.591.489-.557.997-1.032 1.52-1.43.524-.396 1.036-.752 1.539-1.062.506-.312.982-.596 1.431-.854.448-.259.846-.539 1.19-.844.347-.305.616-.648.816-1.033.199-.384.297-.854.297-1.408 0-.451-.079-.856-.241-1.213-.158-.355-.376-.659-.652-.912-.278-.253-.603-.442-.973-.565-.37-.128-.775-.188-1.212-.188-.464 0-.884.094-1.261.286-.379.193-.706.447-.973.764-.273.319-.482.689-.627 1.113-.146.424-.208.872-.179 1.351H247.526zM259.926 51.244c0-.688.104-1.315.317-1.877.213-.562.516-1.046.914-1.448.397-.407.875-.718 1.439-.934.562-.218 1.187-.33 1.877-.33.7 0 1.318.104 1.856.311.535.205.986.479 1.35.821.362.348.638.757.825 1.233.185.478.28.98.28 1.507 0 .626-.105 1.172-.311 1.649-.204.478-.475.9-.815 1.273-.337.369-.72.697-1.149.988-.433.296-.871.569-1.322.825-.451.261-.895.509-1.331.747-.436.239-.828.488-1.172.754-.224.173-.443.352-.654.546-.211.193-.404.401-.576.627-.173.223-.31.471-.416.742-.106.273-.167.573-.178.903h7.802v1.073h-9.153c.01-.675.084-1.285.217-1.825.135-.542.424-1.073.873-1.591.489-.557.997-1.032 1.521-1.43.524-.396 1.036-.752 1.539-1.062.506-.312.981-.596 1.431-.854.448-.259.846-.539 1.19-.844.347-.305.616-.648.816-1.033.199-.384.297-.854.297-1.408 0-.451-.079-.856-.241-1.213-.158-.355-.376-.659-.652-.912-.278-.253-.603-.442-.973-.565-.37-.128-.775-.188-1.212-.188-.464 0-.884.094-1.261.286-.379.193-.706.447-.973.764-.273.319-.482.689-.627 1.113-.146.424-.208.872-.179 1.351H259.926z"/></g></g></g></g></svg>