<svg xmlns="http://www.w3.org/2000/svg" viewBox="0 0 1190.55 300.89"><defs><style>.cls-1{fill:#42b4e9;}</style></defs><title>アートボード 2</title><path class="cls-1" d="M92.31,132.11q-21,0-34.06-14.56-12.18-13.5-12.17-33.14T58.39,52.05Q71.13,38.67,92.31,38.67h17.18V49.31H92.31q-16.45,0-26.12,9.91t-9.66,25.2q0,15.4,9.45,25.91,10,11.15,26.33,11.14h17.18v10.64Zm0-14.41q-14.59,0-23.62-9.47-8.44-9-8.44-22.58t8.44-22.72q9-9.85,23.62-9.86h17.18V63.71H92.31q-9.87,0-15.74,6.39A22.16,22.16,0,0,0,70.7,85.65,21.18,21.18,0,0,0,76.57,101q5.87,6.06,15.74,6.06h17.18V117.7Z"/><path class="cls-1" d="M144.8,132h-1.56q-13.63,0-22-9.31-7.87-8.64-7.88-21.18,0-13.3,8.38-21.27t23-8q13.62,0,21.87,8.47,7.86,8.15,7.87,20.69t-7.78,21.27Q158.44,132,144.8,132ZM143.24,79q-10.62,0-16.89,6.34t-6.26,16.11a23.61,23.61,0,0,0,6.13,16.56q6.5,7.13,17,7.13h1.56q10.51,0,17-7.21a23.75,23.75,0,0,0,6-16.48q0-10.51-6.5-16.48T143.24,79Zm0,43.73q-9.53,0-15.28-6a20.18,20.18,0,0,1-5.4-14.44,20.73,20.73,0,0,1,5.4-14.6q5.85-6.32,15.28-6.31h1.56q9.42,0,15.19,6.31a20.49,20.49,0,0,1,5.39,14.52q0,9.45-5.9,15T143.24,122.77Zm0-34.52A13.39,13.39,0,0,0,133,92.34a14.07,14.07,0,0,0-3.84,10q0,6.51,4.16,10.06c2.78,2.37,6.6,3.55,11.49,3.55a13.49,13.49,0,0,0,10.24-4,13.18,13.18,0,0,0,3.76-9.66q0-6.58-4.12-10.31T143.24,88.25Z"/><path class="cls-1" d="M196,79a14.17,14.17,0,0,0-9.33,3A10,10,0,0,0,183,90.2a10.14,10.14,0,0,0,3.67,8.15,14,14,0,0,0,9.33,3.1h2.84a14.52,14.52,0,0,1,9,2.74,9.13,9.13,0,0,1,4,7.75,9.48,9.48,0,0,1-3.8,7.88,14.5,14.5,0,0,1-9.19,3H177.46V116h21.26a8.8,8.8,0,0,0,4.33-1,3.24,3.24,0,0,0,1.87-3c0-1.69-1.13-2.82-3.38-3.36a31.89,31.89,0,0,0-5.65-.33q-8.67,0-14.1-5.07a17,17,0,0,1-5.42-13,16.78,16.78,0,0,1,5.44-13q5.44-5,14.14-5h21V79ZM198.79,132H177.46v-6.8h21.33a15.29,15.29,0,0,0,10.48-3.59,11.89,11.89,0,0,0,4.07-9.36,12.14,12.14,0,0,0-4.07-9.44,15.1,15.1,0,0,0-10.48-3.67H196A9.89,9.89,0,0,1,189,96.68a8.08,8.08,0,0,1-2.7-6.27,8.35,8.35,0,0,1,2.7-6.35A9.73,9.73,0,0,1,196,81.53h21v6.64H196c-2,0-3,.72-3,2.16s1.34,2,4,2h1.83q9.33,0,15.23,5.68a18.94,18.94,0,0,1,5.91,14.23,18.71,18.71,0,0,1-5.86,14.19Q208.21,132,198.79,132Z"/><path class="cls-1" d="M241,117.05h-3.21V132h-6.68V110.41H241a18.35,18.35,0,0,0,12.58-4.4,14.47,14.47,0,0,0,5-11.37,14.25,14.25,0,0,0-5-11.28A18.34,18.34,0,0,0,241.07,79H228.62V132H222V72.24h19q10.71,0,17.39,6.32a21.22,21.22,0,0,1,6.68,16.12q0,9.9-6.73,16.13T241,117.05Zm1.46-9.13H231.09V81.45h11.35a13.89,13.89,0,0,1,10.07,3.73,13.62,13.62,0,0,1,0,19A13.76,13.76,0,0,1,242.44,107.92Zm0-19.67h-4.67v12.87h4.67a7.69,7.69,0,0,0,5.26-1.81,5.93,5.93,0,0,0,2.06-4.67,5.83,5.83,0,0,0-2.06-4.58A7.69,7.69,0,0,0,242.44,88.25Z"/><path class="cls-1" d="M297.71,132q-13.63,0-21.73-7.35t-8.1-19.82V72.24h6.86v32.52q0,20.42,23,20.42H304V132Zm0-9.21q-20.76,0-20.77-18V72.24h6.68V104.7q0,6.14,2.79,8.62t9.47,2.65H304v6.8Z"/><path class="cls-1" d="M348.69,131.81V99.47q0-9.68-3.47-14.55Q340.93,79,331,79t-14,6q-3.28,4.8-3.28,14.47v32.34h-6.86V99.42q0-12.76,4.75-19.23,5.86-7.95,19.32-8,13.81,0,19.67,7.71,4.75,6.38,4.76,19.47v32.39ZM316,107.09V99.37a21.11,21.11,0,0,1,3.29-12,13.16,13.16,0,0,1,11.63-6q15.36,0,15.37,18v7.72Zm23.61,24.72V116.38H322.7v15.43H316V109.58h30.29v22.23Zm0-32.51q0-11.13-8.69-11.13a7,7,0,0,0-6.41,3.77,14.25,14.25,0,0,0-1.83,7.36v1h16.93Z"/><path class="cls-1" d="M365.28,132h-7.75l15.57-29.5L356.92,72.24h7.53l16.4,30.28Zm16.85-31.88-14.9-27.86H375l7.13,13.5,7-13.5H397ZM375.23,132H367.7l31.84-59.74h7.63Z"/><path class="cls-1" d="M458.84,132.11q-21,0-34.07-14.56Q412.59,104,412.6,84.41t12.31-32.36q12.73-13.38,33.93-13.38H476V49.31H458.84q-16.47,0-26.13,9.91t-9.66,25.2q0,15.42,9.45,25.91,10,11.15,26.34,11.14H476v10.64Zm0-14.4q-14.61,0-23.62-9.48-8.46-9-8.45-22.58t8.45-22.71q9-9.87,23.62-9.87H476V63.71H458.84q-9.88,0-15.75,6.39a22.16,22.16,0,0,0-5.87,15.54A21.19,21.19,0,0,0,443.09,101q5.87,6.06,15.75,6.06H476v10.65Z"/><path class="cls-1" d="M511.32,131.15h-1.56q-13.63,0-22-9.3-7.87-8.66-7.87-21.19,0-13.3,8.37-21.27t23-8q13.63,0,21.87,8.48,7.86,8.13,7.87,20.68t-7.78,21.28Q525,131.15,511.32,131.15Zm-1.56-52.94q-10.62,0-16.89,6.34t-6.26,16.11a23.61,23.61,0,0,0,6.13,16.56q6.5,7.13,17,7.13h1.56q10.52,0,17-7.21a23.77,23.77,0,0,0,6-16.48q0-10.51-6.5-16.48T509.76,78.21Zm0,43.73q-9.52,0-15.28-6a20.22,20.22,0,0,1-5.4-14.44,20.79,20.79,0,0,1,5.4-14.6q5.85-6.32,15.28-6.31h1.56q9.42,0,15.19,6.31a20.5,20.5,0,0,1,5.4,14.52q0,9.45-5.91,15T509.76,121.94Zm0-34.52a13.39,13.39,0,0,0-10.25,4.09,14.07,14.07,0,0,0-3.84,10q0,6.51,4.16,10.06c2.78,2.37,6.6,3.55,11.49,3.55a13.51,13.51,0,0,0,10.25-4,13.16,13.16,0,0,0,3.75-9.65q0-6.6-4.12-10.31T509.76,87.42Z"/><path class="cls-1" d="M573.36,131.15q-13.64,0-21.73-7.35T543.53,104V71.41h6.86v32.53q0,20.4,23,20.41h6.3v6.8Zm0-9.21q-20.77,0-20.77-18V71.41h6.68v32.47q0,6.12,2.79,8.61t9.47,2.65h8.15v6.8Z"/><path class="cls-1" d="M612.44,131.15q-13.65,0-21.74-7.35T582.6,104V71.41h6.87v32.53q0,20.4,23,20.41h6.29v6.8Zm0-9.21q-20.79,0-20.78-18V71.41h6.68v32.47q0,6.12,2.79,8.61t9.47,2.65h8.15v6.8Z"/><path class="cls-1" d="M621.77,131.15V71.41h29.74v6.8H628.45v46.14h23.06v6.8Zm15.65-43.73V92.9h11.71v6.81H630.74V80.62h20.77v6.8Zm-6.68,34.52V102.11h18.39v6.81H637.42v6.3h14.09v6.72Z"/><path class="cls-1" d="M684,131.15q-13.46,0-21.78-9.3-7.77-8.66-7.78-21.19T662.31,80q8.15-8.56,21.69-8.56h11v6.8H684q-10.53,0-16.7,6.34t-6.18,16.11a23.86,23.86,0,0,0,6,16.56q6.4,7.13,16.84,7.13h11v6.8Zm0-9.21q-9.33,0-15.1-6.06a20.19,20.19,0,0,1-5.4-14.43,20.5,20.5,0,0,1,5.4-14.52q5.76-6.32,15.1-6.31h11v6.8H684a13,13,0,0,0-10.07,4.09,14.15,14.15,0,0,0-3.75,9.94,13.52,13.52,0,0,0,3.75,9.81q3.77,3.88,10.07,3.88h11v6.8Z"/><path class="cls-1" d="M697.91,78.21v-6.8h42.28v6.8Zm13.27,52.94V87.42H697.91v-6.8h20v50.53Zm15.74-43.73v43.73h-6.59V80.62h19.86v6.8Z"/><path class="cls-1" d="M743.21,131.15V71.41h6.5v59.74Zm8.79,0V71.41h6.4v59.74Z"/><path class="cls-1" d="M792.35,131.15H790.8q-13.63,0-22-9.3A30.34,30.34,0,0,1,761,100.66q0-13.3,8.38-21.27t23-8q13.65,0,21.88,8.48,7.86,8.13,7.87,20.68t-7.78,21.28Q806,131.15,792.35,131.15ZM790.8,78.21q-10.62,0-16.89,6.34t-6.26,16.11a23.61,23.61,0,0,0,6.13,16.56q6.5,7.13,17,7.13h1.55q10.53,0,17-7.21a23.72,23.72,0,0,0,6-16.48q0-10.51-6.5-16.48T790.8,78.21Zm0,43.73q-9.52,0-15.29-6a20.25,20.25,0,0,1-5.39-14.44,20.83,20.83,0,0,1,5.39-14.6q5.87-6.32,15.29-6.31h1.55q9.43,0,15.19,6.31A20.5,20.5,0,0,1,813,101.45q0,9.45-5.91,15T790.8,121.94Zm0-34.52a13.39,13.39,0,0,0-10.25,4.09,14.07,14.07,0,0,0-3.84,10q0,6.51,4.16,10.06t11.48,3.55a13.53,13.53,0,0,0,10.26-4,13.16,13.16,0,0,0,3.75-9.65q0-6.6-4.12-10.31T790.8,87.42Z"/><path class="cls-1" d="M834.9,79.79a3.61,3.61,0,0,0-2.57-1.58c-.42,0-.62.45-.62,1.33v51.61h-6.87V79.53A8.76,8.76,0,0,1,826.58,74a6.54,6.54,0,0,1,5.58-2.57,9.14,9.14,0,0,1,7.6,3.82L859.53,101V71.41h6.68V120Zm33.49,52.11q-4.57,0-8-4.38l-19.65-25.73v29.36H833.9V82.48q10.62,13.9,32,41c.83,1.06,1.44,1.58,1.85,1.58s.53-.66.71-2c.05-.72.09-1.69.09-2.91V71.41h6.86v51.77a10.81,10.81,0,0,1-1.47,5.73A6.16,6.16,0,0,1,868.39,131.9Z"/><path class="cls-1" d="M901.11,58.76c-1.25-1.48-2.45-2.22-3.62-2.22-.58,0-.88.62-.88,1.86v72.66H887V58.39a12.35,12.35,0,0,1,2.45-7.81A9.21,9.21,0,0,1,897.26,47,12.87,12.87,0,0,1,908,52.33l27.83,36.22V47h9.4v68.33Zm47.15,73.35q-6.45,0-11.23-6.17L909.37,89.73v41.33h-9.66V62.55q14.94,19.56,45,57.75c1.16,1.49,2,2.23,2.61,2.23.41,0,.74-.93,1-2.8.08-1,.12-2.38.12-4.1V47h9.67v72.87A15.19,15.19,0,0,1,956,127.9,8.68,8.68,0,0,1,948.26,132.11Z"/><path class="cls-1" d="M968.21,131.12V71.38h6.5v59.74Zm8.79,0V71.38h6.41v59.74Z"/><path class="cls-1" d="M1021.55,131.12q-13.63,0-22-9.22-7.79-8.64-7.78-21.28t7.87-20.68q8.24-8.56,21.87-8.56h14.65v6.8h-14.65q-10.62,0-16.84,6.34t-6.22,16.11a23.82,23.82,0,0,0,6,16.56q6.5,7.13,17,7.13h8V100.5h-14.64V93.7h21.33v37.42Zm0-43.73a13.26,13.26,0,0,0-10.15,4.1,14,14,0,0,0-3.85,10A13.74,13.74,0,0,0,1011,111a12.8,12.8,0,0,0,9.43,4.14v-6.23h-5.59v-6.8h12.27v19.75h-5.59q-9.51,0-15.19-6a20,20,0,0,1-5.49-14.41,20.54,20.54,0,0,1,5.49-14.57q5.67-6.21,15.19-6.21h14.65v6.8Z"/><path class="cls-1" d="M1043.33,131.12V71.38h6.87v59.74Zm9.16-31.2V71.38h6.68V93.12h13.63V71.38h6.68V99.92Zm20.31,31.2v-22h-13.63v22h-6.68V102.33h27v28.79Zm9.06,0V71.38h6.68v59.74Z"/><path class="cls-1" d="M1093.85,78.18v-6.8h42.28v6.8Zm13.27,52.94V87.39h-13.27v-6.8h20v50.53Zm15.74-43.73v43.73h-6.59V80.59h19.86v6.8Z"/><path class="cls-1" d="M565.15,172.11H509.2V159.69h55.95Zm-21.73,43.53H531V169.37h12.42Z"/><path class="cls-1" d="M627.48,203.22a12.06,12.06,0,0,1-3.62,8.73,11.88,11.88,0,0,1-8.8,3.69H583.94a12.36,12.36,0,0,1-12.41-12.42V172.11a12.36,12.36,0,0,1,12.41-12.42h43.54v12.42H585.17a1.22,1.22,0,0,0-.87.35,1.19,1.19,0,0,0-.36.88v28.59a1.27,1.27,0,0,0,.36.94,1.22,1.22,0,0,0,.87.35h28.66q1.23,0,1.23-1.29v-8.09H602.57V181.42h24.91Z"/><path class="cls-1" d="M690.23,203.22a12,12,0,0,1-3.62,8.73,11.87,11.87,0,0,1-8.8,3.69H634.28V203.22h42.3q1.23,0,1.23-1.29v-6.8a1.24,1.24,0,0,0-.35-.93,1.19,1.19,0,0,0-.88-.36H646.7a12.36,12.36,0,0,1-12.42-12.42v-9.31a12.36,12.36,0,0,1,12.42-12.42h43.53v12.42h-42.3a1.2,1.2,0,0,0-1.23,1.23v6.85a1.2,1.2,0,0,0,1.23,1.23h29.88a12.36,12.36,0,0,1,12.42,12.42Z"/><path class="cls-1" d="M479.42,198.47a10.76,10.76,0,0,1-3.75,3.56,10.39,10.39,0,0,1-5,1.13c-3.23,0-5.67-.87-7.33-2.59s-2.49-4.28-2.49-7.64a17.62,17.62,0,0,1,4.2-12,13.18,13.18,0,0,1,10.36-4.83,8.34,8.34,0,0,1,4,.9,7.42,7.42,0,0,1,2.82,2.75l1.54-2.73h6.11l-4.54,18.08a.82.82,0,0,1,0,.18,5.31,5.31,0,0,0-.09.8,1.67,1.67,0,0,0,.48,1.32,2,2,0,0,0,1.39.43c2.71,0,5.08-1.42,7.13-4.25a16.55,16.55,0,0,0,3.07-9.95A14.38,14.38,0,0,0,492,172.09q-5.32-4.49-13.86-4.48a29.17,29.17,0,0,0-8.13,1.08,23,23,0,0,0-6.81,3.25,22.24,22.24,0,0,0-7.09,8.14,22.89,22.89,0,0,0-2.49,10.57q0,9,6,14.27t16.13,5.32a31.23,31.23,0,0,0,9.37-1.4,29.38,29.38,0,0,0,8.3-4.11l2.87,4a34.31,34.31,0,0,1-9.75,5.19,33.64,33.64,0,0,1-10.79,1.72,36.3,36.3,0,0,1-10.52-1.45,26.66,26.66,0,0,1-8.55-4.3,23.59,23.59,0,0,1-6.94-8.35,24.35,24.35,0,0,1-2.28-10.72,28.56,28.56,0,0,1,1.57-9.5,27.15,27.15,0,0,1,4.63-8.23,28.61,28.61,0,0,1,10.66-8.24A33.56,33.56,0,0,1,478.15,162a32.09,32.09,0,0,1,9.48,1.36,23.54,23.54,0,0,1,7.71,3.91,21,21,0,0,1,6,7.21,20.31,20.31,0,0,1,2,9.07,21.11,21.11,0,0,1-2,9.1,19.69,19.69,0,0,1-5.64,7.12,14.93,14.93,0,0,1-4.57,2.53,15.64,15.64,0,0,1-5.22.88A8.07,8.07,0,0,1,481.2,202,4.47,4.47,0,0,1,479.42,198.47Zm1.1-12.86a5.57,5.57,0,0,0-1.48-3.44,4.49,4.49,0,0,0-3.26-1.19c-2,0-3.83,1.2-5.39,3.6a15.36,15.36,0,0,0-2.32,8.5,6.15,6.15,0,0,0,1,3.81,3.45,3.45,0,0,0,2.91,1.35,6.32,6.32,0,0,0,4.39-1.75A9.19,9.19,0,0,0,479,191.8Z"/><path class="cls-1" d="M303.7,256.71V236.93h2.44v1.69a3.68,3.68,0,0,1,1.45-1.27,8.61,8.61,0,0,1,3.69-.61h3.9c2.56,0,4.41.51,5.52,1.52s1.67,2.73,1.67,5.09v2.28c0,2.27-.57,3.92-1.7,4.92s-3,1.49-5.49,1.49h-4.47a7,7,0,0,1-2.8-.5,4.45,4.45,0,0,1-1.51-1.09v6.26Zm7.66-17.37c-2,0-3.4.29-4,.86s-.95,1.7-.95,3.4v1.72c0,1.65.33,2.76,1,3.32s2,.84,4,.84h3.23c2,0,3.39-.29,4-.84s1-1.67,1-3.32V243.6c0-1.7-.32-2.84-1-3.4s-2-.86-4-.86Z"/><path class="cls-1" d="M325.11,251.82V237.05h2.7v1.56a4.1,4.1,0,0,1,1.68-1.33,11.14,11.14,0,0,1,4.13-.57c2.54,0,4.27.37,5.32,1.14a4.53,4.53,0,0,1,1.58,3.9v2.14h-2.6v-1.58a2.64,2.64,0,0,0-.91-2.38,8.34,8.34,0,0,0-3.95-.61,7.52,7.52,0,0,0-4,.8,2.73,2.73,0,0,0-1.17,2.5v9.2Z"/><path class="cls-1" d="M349.63,252c-2.65,0-4.59-.51-5.76-1.5s-1.77-2.67-1.77-5v-2.31c0-2.33.59-4,1.76-5s3.09-1.5,5.77-1.5h3.62c2.78,0,4.76.53,5.87,1.57s1.68,2.89,1.68,5.47c0,.31,0,.54,0,.69s0,.31,0,.44v.22H344.88v.55a3.72,3.72,0,0,0,1,3,6.15,6.15,0,0,0,3.74.85h3.78a8,8,0,0,0,3.47-.57,1.72,1.72,0,0,0,1-1.64v-.38h2.87v.6A3.76,3.76,0,0,1,359,250.9a9.44,9.44,0,0,1-5,1.12Zm8.28-9.46v-.11A2.94,2.94,0,0,0,357,240c-.62-.45-1.9-.68-3.82-.68h-3.6a6.33,6.33,0,0,0-3.7.8,3,3,0,0,0-1,2.47Z"/><path class="cls-1" d="M368.71,252c-2,0-3.4-.41-4.23-1.24s-1.26-2.23-1.29-4.18v-.23h2.56v.48a2.73,2.73,0,0,0,.57,2c.27.23,1,.5,2.9.5h6.5c1.52,0,2.09-.2,2.3-.38s.44-.6.44-1.75a1.73,1.73,0,0,0-.53-1.48,4.19,4.19,0,0,0-2.18-.4h-6c-2.71,0-4.43-.28-5.26-.86s-1.28-1.74-1.28-3.42a3.8,3.8,0,0,1,1.51-3.42c1-.66,2.64-1,5-1h4.12a11.54,11.54,0,0,1,5.13.86,3,3,0,0,1,1.69,2.86v1.19h-2.66v-.82a1.14,1.14,0,0,0-.86-1.16,15.2,15.2,0,0,0-4.11-.35h-2.27c-2.76,0-3.77.2-4.13.37a1.42,1.42,0,0,0-.7,1.44,1.49,1.49,0,0,0,.71,1.49,12.52,12.52,0,0,0,4.12.39l4,0a18,18,0,0,1,3.73.26,3.5,3.5,0,0,1,1.73.91,3.3,3.3,0,0,1,.82,1.33,9.67,9.67,0,0,1,.23,2.54,3.41,3.41,0,0,1-1.52,3.14c-1,.59-2.69.88-5.22.88Z"/><path class="cls-1" d="M392,252c-2.66,0-4.6-.51-5.77-1.5s-1.77-2.67-1.77-5v-2.31c0-2.33.59-4,1.76-5s3.1-1.5,5.78-1.5h3.61c2.78,0,4.76.53,5.87,1.57s1.68,2.89,1.68,5.47c0,.31,0,.54,0,.7s0,.3,0,.43v.22H387.24v.55a3.72,3.72,0,0,0,1,3,6.19,6.19,0,0,0,3.74.85h3.79a7.93,7.93,0,0,0,3.46-.57,1.72,1.72,0,0,0,1-1.64v-.38h2.87v.6a3.76,3.76,0,0,1-1.78,3.36,9.44,9.44,0,0,1-5,1.12Zm8.27-9.46v-.11a2.94,2.94,0,0,0-.9-2.48c-.62-.45-1.9-.68-3.81-.68H392a6.33,6.33,0,0,0-3.7.8,3.1,3.1,0,0,0-1,2.47Z"/><path class="cls-1" d="M421.25,251.82v-9a5.67,5.67,0,0,0-.2-1.78,1.72,1.72,0,0,0-.67-.84,4.54,4.54,0,0,0-1.9-.63,21.43,21.43,0,0,0-3.39-.22,10.86,10.86,0,0,0-5.08.86A2.92,2.92,0,0,0,408.6,243v8.86h-2.76V236.9h2.76V239a5,5,0,0,1,2.2-1.62,14,14,0,0,1,4.94-.69c3.07,0,5.16.39,6.39,1.2s1.87,2.26,1.87,4.26v9.65Z"/><path class="cls-1" d="M434.5,252a11,11,0,0,1-3.08-.36,4.72,4.72,0,0,1-2-1.14,3.36,3.36,0,0,1-.86-1.39,9.87,9.87,0,0,1-.24-2.6v-7.21h-3.12V236.9h3.12v-3.31H431v3.31h9.57v2.42H431v7.36a2.89,2.89,0,0,0,.69,2.25c.47.4,1.6.6,3.38.6a5.48,5.48,0,0,0,2.86-.5c.44-.32.66-1.06.66-2.19v-2.09H441v2.09c0,1.9-.5,3.25-1.47,4S436.92,252,434.5,252Z"/><path class="cls-1" d="M450.16,252c-2.66,0-4.6-.51-5.76-1.5s-1.77-2.67-1.77-5v-2.31c0-2.33.59-4,1.75-5s3.1-1.5,5.78-1.5h3.62c2.78,0,4.75.53,5.86,1.57s1.69,2.89,1.69,5.47c0,.31,0,.54,0,.69s0,.31,0,.44l0,.22H445.41v.55a3.72,3.72,0,0,0,1,3,6.21,6.21,0,0,0,3.75.85H454a7.93,7.93,0,0,0,3.46-.57,1.74,1.74,0,0,0,1-1.64v-.38h2.87v.6a3.75,3.75,0,0,1-1.79,3.36,9.4,9.4,0,0,1-5,1.12Zm8.27-9.46v-.11a2.91,2.91,0,0,0-.9-2.48c-.62-.45-1.9-.68-3.81-.68h-3.6a6.36,6.36,0,0,0-3.71.8,3.1,3.1,0,0,0-1,2.47Z"/><path class="cls-1" d="M470.63,252c-2.55,0-4.41-.52-5.52-1.53s-1.67-2.73-1.67-5.09v-2.27c0-2.27.57-3.93,1.7-4.93s3-1.49,5.49-1.49h4.46a6.85,6.85,0,0,1,2.81.51,4.59,4.59,0,0,1,1.51,1.09v-7.39h2.7v20.9h-2.48v-1.68a3.73,3.73,0,0,1-1.44,1.27,8.75,8.75,0,0,1-3.7.61Zm.56-12.73c-2,0-3.38.28-4,.84s-1,1.66-1,3.3v1.72c0,1.7.32,2.85.95,3.41s2,.86,4,.86h3.25c2,0,3.4-.29,4-.86s1-1.71,1-3.41v-1.72c0-1.64-.33-2.75-1-3.3s-2-.84-4-.84Z"/><path class="cls-1" d="M505.71,252a8.53,8.53,0,0,1-3.68-.61,3.79,3.79,0,0,1-1.45-1.28v1.69h-2.44v-20.9h2.7v7.39a4.59,4.59,0,0,1,1.51-1.09,6.83,6.83,0,0,1,2.8-.51h4.47c2.52,0,4.37.5,5.49,1.49s1.7,2.66,1.7,4.93v2.27c0,2.36-.56,4.07-1.68,5.09s-3,1.53-5.51,1.53Zm.09-12.73c-2,0-3.38.28-4,.84s-1,1.66-1,3.3v1.72c0,1.7.32,2.85.95,3.41s2,.86,4,.86H509c2,0,3.4-.29,4-.86s1-1.71,1-3.41v-1.72c0-1.64-.32-2.75-1-3.3s-2-.84-4-.84Z"/><path class="cls-1" d="M521.78,256.94H520v-2.54l.68,0h.4a6.2,6.2,0,0,0,3.21-.63,4.08,4.08,0,0,0,1.48-2h-.48l-8.11-14.92h3.07L527,249.16l6.18-12.26h3.08l-7.34,14.79c-1.13,2.24-2.15,3.64-3.13,4.29A7.28,7.28,0,0,1,521.78,256.94Z"/><path class="cls-1" d="M559.92,253.1c-3.77,0-6.36-.52-7.91-1.57s-2.42-3-2.42-5.71v-6.59c0-2.69.82-4.61,2.42-5.71s4.14-1.57,7.91-1.57h3.41c3.74,0,6.31.44,7.87,1.35a5.12,5.12,0,0,1,2.48,4.81v1.46h-4.56v-1.15a2.64,2.64,0,0,0-1-2.49c-.55-.33-1.86-.72-5-.72h-2.26a25.11,25.11,0,0,0-3.74.2,5,5,0,0,0-1.78.64,2.15,2.15,0,0,0-.89,1,8,8,0,0,0-.28,2.7v5.54a8,8,0,0,0,.28,2.69,2.18,2.18,0,0,0,.88,1,5,5,0,0,0,1.74.64,24.69,24.69,0,0,0,3.79.2h2.26c3.18,0,4.49-.41,5-.75.7-.44,1-1.36,1-2.73,0-.23,0-.41,0-.53a3.25,3.25,0,0,0,0-.33l-.08-.68h4.61v1.89c0,2.38-.81,4.07-2.4,5s-4.12,1.36-7.95,1.36Z"/><path class="cls-1" d="M550.21,239.23q0-3.73,2.14-5.2c1.43-1,4-1.46,7.57-1.46h3.41q5.38,0,7.56,1.26a4.55,4.55,0,0,1,2.18,4.28V239h-3.33v-.53a3.23,3.23,0,0,0-1.35-3q-1.36-.81-5.29-.81h-2.26a24.5,24.5,0,0,0-3.84.22,5.4,5.4,0,0,0-2,.72,2.72,2.72,0,0,0-1.13,1.3,9.17,9.17,0,0,0-.32,2.93v5.54a9.1,9.1,0,0,0,.32,2.92,2.72,2.72,0,0,0,1.13,1.3,5.35,5.35,0,0,0,2,.72,23.18,23.18,0,0,0,3.9.22h2.26q4,0,5.36-.85c.89-.57,1.34-1.65,1.34-3.25,0-.25,0-.43,0-.56s0-.26,0-.37h3.31v1.28c0,2.16-.71,3.66-2.11,4.5s-4,1.27-7.63,1.27h-3.41c-3.61,0-6.14-.49-7.57-1.46s-2.14-2.71-2.14-5.2Z"/><path class="cls-1" d="M583.82,253c-2.84,0-4.8-.39-6-1.19s-1.9-2.3-1.9-4.33v-9.64h4.27v9.21c0,1.19.24,2,.7,2.32s1.24.56,3.38.56a8.2,8.2,0,0,0,4.35-.87,2.87,2.87,0,0,0,1.21-2.6v-8.62h4.32v15H590V251.8a6.48,6.48,0,0,1-1.59.72A16.41,16.41,0,0,1,583.82,253Z"/><path class="cls-1" d="M593.54,238.5v13.75H590.6v-1.87a4.29,4.29,0,0,1-2.39,1.55,15.81,15.81,0,0,1-4.39.5c-2.69,0-4.57-.36-5.66-1.09a4.27,4.27,0,0,1-1.62-3.82v-9h3v8.59q0,2.15,1,2.82a7.09,7.09,0,0,0,3.74.68,8.72,8.72,0,0,0,4.69-1,3.45,3.45,0,0,0,1.48-3.11v-8Z"/><path class="cls-1" d="M596.3,252.86v-15h4.19v1a4.93,4.93,0,0,1,1.19-.61,11.7,11.7,0,0,1,3.85-.53c2.41,0,4.08.4,5.11,1.22s1.6,2.29,1.6,4.32V244h-4.31v-1a2.22,2.22,0,0,0-.53-1.72,4.67,4.67,0,0,0-2.59-.45,5.18,5.18,0,0,0-3.29.81,3.38,3.38,0,0,0-.92,2.68v8.6Z"/><path class="cls-1" d="M596.91,252.25V238.5h3v1.88a3.69,3.69,0,0,1,2-1.57,11,11,0,0,1,3.64-.5c2.25,0,3.82.37,4.73,1.09s1.36,2,1.36,3.84v.1h-3.07v-.4a2.58,2.58,0,0,0-.79-2.22,5.36,5.36,0,0,0-3-.56,5.71,5.71,0,0,0-3.69,1,3.91,3.91,0,0,0-1.13,3.14v8Z"/><path class="cls-1" d="M622.46,253c-3.24,0-5.46-.42-6.8-1.3s-2.12-2.51-2.12-4.73v-3.26c0-2.23.71-3.83,2.11-4.75s3.55-1.3,6.77-1.3h1.43c3.23,0,5.45.43,6.79,1.3s2.13,2.52,2.13,4.75v2.69H617.9V247a2.81,2.81,0,0,0,.76,2.35c.39.28,1.36.61,3.76.61h1.43a8.85,8.85,0,0,0,3.56-.46,1.62,1.62,0,0,0,.92-1.38l.07-.53h4.39l-.07.68a4.45,4.45,0,0,1-2.48,3.7,14.23,14.23,0,0,1-6.35,1.06Zm5.92-9.62a2.36,2.36,0,0,0-.76-2c-.4-.26-1.39-.58-3.77-.58h-1.43c-2.37,0-3.34.31-3.73.58a2.36,2.36,0,0,0-.75,2Z"/><path class="cls-1" d="M622.46,252.43c-3.09,0-5.24-.4-6.47-1.2s-1.84-2.21-1.84-4.22v-3.26q0-3,1.83-4.23c1.22-.8,3.37-1.21,6.44-1.21h1.43c3.08,0,5.23.41,6.46,1.21s1.84,2.21,1.84,4.23v2.07l-14.83,0c0,.13,0,.29,0,.46s0,.41,0,.71q0,2.13,1,2.85c.68.49,2.05.73,4.12.73h1.43a9.61,9.61,0,0,0,3.83-.53,2.25,2.25,0,0,0,1.26-1.85h3.17a3.87,3.87,0,0,1-2.15,3.23,14,14,0,0,1-6.07,1Zm-5.14-8.4H629v-.53a3,3,0,0,0-1-2.63q-1-.69-4.11-.69h-1.43q-3.06,0-4.08.69a3,3,0,0,0-1,2.63Z"/><polygon class="cls-1" points="663.93 252.86 657.37 236.77 650.93 252.86 645.81 252.86 637.48 232.19 642.13 232.19 648.38 247.96 654.66 232.19 660.07 232.19 666.39 247.96 672.64 232.19 677.34 232.19 668.88 252.86 663.93 252.86"/><path class="cls-1" d="M638.39,232.8h3.33l6.66,16.82,6.7-16.82h4.58l6.74,16.82,6.65-16.82h3.37l-7.95,19.45h-4.13l-7-17.12-6.86,17.12h-4.29Z"/><path class="cls-1" d="M684.62,253c-3.24,0-5.46-.42-6.8-1.3s-2.12-2.51-2.12-4.73v-3.26c0-2.23.71-3.83,2.11-4.75s3.55-1.3,6.77-1.3H686c3.23,0,5.45.43,6.8,1.3s2.12,2.52,2.12,4.75V247c0,2.23-.71,3.83-2.11,4.74s-3.55,1.29-6.77,1.29Zm0-12.24c-2.57,0-3.46.36-3.76.58s-.72.82-.72,2.82v2.35c0,2,.45,2.64.72,2.83s1.33.59,3.76.59H686c2.44,0,3.41-.32,3.79-.6s.74-1.34.74-2.82V244.2c0-1.47-.26-2.47-.73-2.81-.31-.22-1.22-.59-3.8-.59Z"/><path class="cls-1" d="M684.62,252.43c-3.09,0-5.24-.4-6.47-1.2s-1.84-2.21-1.84-4.22v-3.26q0-3,1.83-4.23c1.22-.8,3.37-1.21,6.44-1.21H686c3.08,0,5.23.41,6.46,1.21s1.84,2.21,1.84,4.23V247q0,3-1.83,4.22c-1.22.8-3.37,1.2-6.43,1.2Zm6.54-5.88V244.2c0-1.73-.33-2.83-1-3.31s-2-.71-4.16-.71h-1.43c-2.11,0-3.48.24-4.13.71s-1,1.57-1,3.31v2.35c0,1.75.33,2.86,1,3.33s2,.71,4.12.71H686c2.1,0,3.48-.24,4.15-.72S691.16,248.29,691.16,246.55Z"/><path class="cls-1" d="M697,252.86v-15h4.19v1a5.33,5.33,0,0,1,1.19-.61,11.76,11.76,0,0,1,3.86-.53c2.41,0,4.08.4,5.11,1.22s1.59,2.29,1.59,4.32V244h-4.3v-1a2.22,2.22,0,0,0-.53-1.72,4.69,4.69,0,0,0-2.6-.45,5.18,5.18,0,0,0-3.29.81,3.41,3.41,0,0,0-.91,2.68v8.6Z"/><path class="cls-1" d="M697.61,252.25V238.5h2.95v1.88a3.77,3.77,0,0,1,2-1.57,11,11,0,0,1,3.65-.5c2.24,0,3.82.37,4.73,1.09s1.36,2,1.36,3.84v.1h-3.08v-.4a2.61,2.61,0,0,0-.78-2.22,5.41,5.41,0,0,0-3-.56,5.67,5.67,0,0,0-3.68,1,3.88,3.88,0,0,0-1.14,3.14v8Z"/><rect class="cls-1" x="715.07" y="232.19" width="4.27" height="20.67"/><path class="cls-1" d="M715.69,252.25V232.8h3v19.45Z"/><path class="cls-1" d="M730.11,253c-3.09,0-5.24-.43-6.57-1.32s-2.1-2.52-2.1-4.71v-3.26c0-2.21.71-3.79,2.1-4.72s3.48-1.33,6.57-1.33a13.51,13.51,0,0,1,4.23.54,5.84,5.84,0,0,1,1.54.77v-6.82h4.28v20.67H736V251.7a5.66,5.66,0,0,1-1.47.76A13.63,13.63,0,0,1,730.11,253Zm.1-12.27c-2.32,0-3.25.33-3.63.6s-.73.83-.73,2.83v2.35c0,1.48.26,2.48.73,2.82s1.31.6,3.63.6a8.54,8.54,0,0,0,4.45-.87,2.84,2.84,0,0,0,1.22-2.6v-2.24a2.87,2.87,0,0,0-1.22-2.62A8.54,8.54,0,0,0,730.21,240.77Z"/><path class="cls-1" d="M736.61,250.13a4.11,4.11,0,0,1-2.28,1.75,13,13,0,0,1-4.22.55q-4.41,0-6.23-1.22c-1.21-.82-1.82-2.21-1.82-4.2v-3.26q0-3,1.82-4.21t6.23-1.23a12.79,12.79,0,0,1,4,.51,4.68,4.68,0,0,1,2.35,1.64V232.8h3.06v19.45h-2.94Zm-.12-3.63v-2.24a3.45,3.45,0,0,0-1.5-3.13,9,9,0,0,0-4.78-1c-2,0-3.33.23-4,.71s-1,1.59-1,3.33v2.35c0,1.74.33,2.84,1,3.32s2,.72,4,.72a9.09,9.09,0,0,0,4.78-1A3.45,3.45,0,0,0,736.49,246.5Z"/><path class="cls-1" d="M752.91,253.1c-3.78,0-6.37-.52-7.91-1.57s-2.42-3-2.42-5.71v-6.59c0-2.69.81-4.61,2.42-5.71s4.13-1.57,7.91-1.57h3.41c3.73,0,6.31.44,7.87,1.35a5.14,5.14,0,0,1,2.48,4.81v1.46h-4.56v-1.15a2.64,2.64,0,0,0-1.05-2.49c-.55-.33-1.86-.72-5-.72h-2.25a25.11,25.11,0,0,0-3.74.2,5,5,0,0,0-1.78.64,2.1,2.1,0,0,0-.89,1,8,8,0,0,0-.28,2.7v5.54a8,8,0,0,0,.28,2.69,2.13,2.13,0,0,0,.88,1,5,5,0,0,0,1.74.64,24.69,24.69,0,0,0,3.79.2h2.25c3.19,0,4.5-.41,5-.75.7-.44,1-1.36,1-2.73,0-.23,0-.41,0-.53s0-.23,0-.33l-.07-.68h4.61v1.89c0,2.38-.81,4.07-2.4,5s-4.12,1.36-7.95,1.36Z"/><path class="cls-1" d="M743.2,239.23q0-3.73,2.14-5.2t7.57-1.46h3.41q5.38,0,7.56,1.26a4.54,4.54,0,0,1,2.17,4.28V239h-3.33v-.53a3.23,3.23,0,0,0-1.35-3q-1.35-.81-5.29-.81h-2.25a24.74,24.74,0,0,0-3.85.22,5.42,5.42,0,0,0-2,.72,2.72,2.72,0,0,0-1.13,1.3,8.89,8.89,0,0,0-.32,2.93v5.54a8.82,8.82,0,0,0,.32,2.92,2.72,2.72,0,0,0,1.13,1.3,5.35,5.35,0,0,0,1.95.72,23.18,23.18,0,0,0,3.9.22h2.25q4,0,5.37-.85c.89-.57,1.33-1.65,1.33-3.25,0-.25,0-.43,0-.56a2.13,2.13,0,0,0,0-.37h3.31v1.28q0,3.24-2.1,4.5t-7.63,1.27h-3.41q-5.43,0-7.57-1.46t-2.14-5.2Z"/><path class="cls-1" d="M777.9,253c-3.23,0-5.45-.42-6.79-1.3S769,249.23,769,247v-3.26c0-2.23.71-3.83,2.1-4.75s3.56-1.3,6.78-1.3h1.43c3.23,0,5.45.43,6.79,1.3s2.12,2.52,2.12,4.75V247c0,2.23-.71,3.83-2.11,4.74s-3.54,1.29-6.77,1.29Zm0-12.24c-2.57,0-3.46.36-3.77.58s-.71.82-.71,2.82v2.35c0,2,.45,2.64.72,2.83s1.2.59,3.76.59h1.43c2.44,0,3.41-.32,3.79-.6s.74-1.34.74-2.82V244.2c0-1.47-.26-2.47-.73-2.81s-1.35-.59-3.8-.59Z"/><path class="cls-1" d="M777.9,252.43q-4.62,0-6.46-1.2T769.6,247v-3.26q0-3,1.83-4.23c1.22-.8,3.37-1.21,6.44-1.21h1.43c3.08,0,5.23.41,6.46,1.21s1.84,2.21,1.84,4.23V247q0,3-1.83,4.22t-6.44,1.2Zm6.55-5.88V244.2c0-1.73-.33-2.83-1-3.31s-2.05-.71-4.16-.71h-1.43c-2.11,0-3.48.24-4.13.71s-1,1.57-1,3.31v2.35c0,1.75.33,2.86,1,3.33s2,.71,4.12.71h1.43c2.1,0,3.48-.24,4.15-.72S784.45,248.29,784.45,246.55Z"/><path class="cls-1" d="M799.92,253c-3.78,0-6.24-.29-7.52-.9a3.71,3.71,0,0,1-2.12-3.61v-1h4.32v.92a1.14,1.14,0,0,0,.8,1.18,14,14,0,0,0,4.48.43c3.33,0,4.32-.26,4.62-.41s.59-.42.59-1.33c0-.66-.16-1.08-.46-1.26s-.89-.38-3.47-.47c-.75,0-1.75-.06-3-.08-3.82-.07-4.77-.28-5.14-.42a3.89,3.89,0,0,1-2-1.41,4.33,4.33,0,0,1-.6-2.48,3.67,3.67,0,0,1,2.1-3.65c1.25-.59,3.85-.87,7.93-.87,3.19,0,5.32.27,6.5.83a3.37,3.37,0,0,1,2,3.26v.61h-4.28v-.74c0-.15,0-.46-.75-.67a18.84,18.84,0,0,0-4.54-.32c-2.85,0-3.79.22-4.09.36s-.58.35-.58,1.19a2.22,2.22,0,0,0,.1.84.55.55,0,0,0,.31.22,15.2,15.2,0,0,0,3.86.33l1.25,0c1.72.05,3.1.11,4.08.18a11.62,11.62,0,0,1,2.23.33,4.29,4.29,0,0,1,2.26,1.42,5.4,5.4,0,0,1,0,5.3,5.14,5.14,0,0,1-2.3,1.59,7.82,7.82,0,0,1-2.36.46C803.14,253,801.72,253,799.92,253Z"/><path class="cls-1" d="M790.89,248.16H794v.31a1.74,1.74,0,0,0,1.17,1.75,15.31,15.31,0,0,0,4.72.47c2.65,0,4.29-.16,4.9-.48a2.43,2.43,0,0,0,.17-3.66,10,10,0,0,0-3.77-.56l-3-.08a22.76,22.76,0,0,1-4.93-.37,3.28,3.28,0,0,1-1.68-1.18,3.87,3.87,0,0,1-.5-2.14,3.1,3.1,0,0,1,1.74-3.1q1.76-.81,7.68-.81,4.6,0,6.24.77a2.76,2.76,0,0,1,1.64,2.71h-3.06v-.13c0-.61-.39-1-1.18-1.26a20.45,20.45,0,0,0-4.72-.35,13.46,13.46,0,0,0-4.34.42,1.71,1.71,0,0,0-.94,1.75,2.76,2.76,0,0,0,.17,1.14,1.15,1.15,0,0,0,.63.49,16.33,16.33,0,0,0,4.07.38l1.24,0c1.72,0,3.07.1,4,.17a11,11,0,0,1,2.1.31,3.72,3.72,0,0,1,2,1.2,3.82,3.82,0,0,1,.57,2.27,4,4,0,0,1-.56,2.3,4.65,4.65,0,0,1-2,1.38,7.4,7.4,0,0,1-2.18.42c-1,.08-2.4.12-4.19.12q-5.48,0-7.25-.84a3.09,3.09,0,0,1-1.78-3.06Z"/><path class="cls-1" d="M811.58,258.12V237.88h4.14v1.2a5.75,5.75,0,0,1,1.5-.78,13.52,13.52,0,0,1,4.43-.6c3.09,0,5.24.43,6.56,1.32s2.09,2.52,2.09,4.73V247c0,2.2-.7,3.79-2.09,4.72s-3.47,1.31-6.56,1.31a14,14,0,0,1-4.24-.53,6.08,6.08,0,0,1-1.57-.79v6.4Zm9.95-17.35a8.6,8.6,0,0,0-4.47.87,2.87,2.87,0,0,0-1.22,2.62v2.24a2.84,2.84,0,0,0,1.22,2.6,8.6,8.6,0,0,0,4.47.87c2.32,0,3.25-.32,3.63-.6s.73-1.34.73-2.82V244.2c0-2-.46-2.63-.73-2.83S823.85,240.77,821.53,240.77Z"/><path class="cls-1" d="M812.19,238.5h2.92v2.14a4.31,4.31,0,0,1,2.32-1.76,12.74,12.74,0,0,1,4.22-.57q4.41,0,6.22,1.22c1.21.81,1.81,2.21,1.81,4.22V247c0,2-.6,3.4-1.81,4.2s-3.28,1.22-6.22,1.22a13.25,13.25,0,0,1-4-.5,4.92,4.92,0,0,1-2.38-1.64v7.22h-3Zm3,8a3.45,3.45,0,0,0,1.5,3.12,9.15,9.15,0,0,0,4.8,1q3,0,4-.72c.66-.48,1-1.58,1-3.32V244.2q0-2.61-1-3.33c-.66-.48-2-.71-4-.71a9.05,9.05,0,0,0-4.8,1,3.45,3.45,0,0,0-1.5,3.13Z"/><rect class="cls-1" x="833.13" y="232.19" width="4.27" height="20.67"/><path class="cls-1" d="M833.74,252.25V232.8h3v19.45Z"/><path class="cls-1" d="M848.8,253c-3.36,0-5.58-.32-6.78-1a4.18,4.18,0,0,1-2-4,6.14,6.14,0,0,1,.44-2.53A3.6,3.6,0,0,1,842,244a6.67,6.67,0,0,1,2.41-.66,37.39,37.39,0,0,1,4.22-.18,23.44,23.44,0,0,1,4.4.31,6.51,6.51,0,0,1,1.49.49v-1.23c0-1.31-.49-1.56-.65-1.64s-1.34-.43-4.63-.43a10.54,10.54,0,0,0-3.56.35,1,1,0,0,0-.61.95l0,.6h-4.24v-.93a3.2,3.2,0,0,1,2.08-3.08,16.56,16.56,0,0,1,6.15-.8,49,49,0,0,1,5,.19,8.54,8.54,0,0,1,2.73.64,3.56,3.56,0,0,1,1.55,1.43,5.86,5.86,0,0,1,.44,2.66v10.24h-4l-.07-.84a5.85,5.85,0,0,1-1.58.62A18.84,18.84,0,0,1,848.8,253Zm.08-7a9.51,9.51,0,0,0-3.73.44c-.28.14-.67.44-.67,1.37,0,1.12.42,1.46.73,1.62a10.31,10.31,0,0,0,4,.47,15.43,15.43,0,0,0,4.22-.44c.33-.09,1.1-.37,1.1-.73V247.3c0-.35-.36-.64-1.07-.85A17.22,17.22,0,0,0,848.88,246Z"/><path class="cls-1" d="M855.31,250.8a4.06,4.06,0,0,1-2.25,1.24,18.11,18.11,0,0,1-4.26.39q-4.83,0-6.48-.92a3.59,3.59,0,0,1-1.64-3.43,5.43,5.43,0,0,1,.38-2.27,2.86,2.86,0,0,1,1.26-1.32,6,6,0,0,1,2.19-.59,35.8,35.8,0,0,1,4.14-.18,22,22,0,0,1,4.28.31,4.42,4.42,0,0,1,2.22,1v-2.37c0-1.13-.33-1.85-1-2.18s-2.29-.5-4.91-.5a11.41,11.41,0,0,0-3.8.4,1.52,1.52,0,0,0-1,1.49h-3v-.31a2.57,2.57,0,0,1,1.71-2.51,16.06,16.06,0,0,1,5.91-.76c2.18,0,3.84.07,5,.19a8.22,8.22,0,0,1,2.53.58,2.92,2.92,0,0,1,1.27,1.17,5.34,5.34,0,0,1,.38,2.37v9.63h-2.79Zm-.16-2.05V247.3q0-1-1.5-1.44a18.07,18.07,0,0,0-4.77-.46,10.26,10.26,0,0,0-4,.51,1.93,1.93,0,0,0-1,1.92,2.17,2.17,0,0,0,1.07,2.16,10.74,10.74,0,0,0,4.28.55,15.9,15.9,0,0,0,4.4-.47Q855.15,249.61,855.15,248.75Z"/><path class="cls-1" d="M865,258.21c-.23,0-.49,0-.77,0s-.58,0-.91-.07l-.55-.06,0-3,.67.06.3,0h.56a4.07,4.07,0,0,0,1.89-.35,3.52,3.52,0,0,0,1.22-1.41l.27-.51h-.27l-7.83-15h4.45L869.82,249l5.72-11.11h4.4l-8.24,15.85a9.17,9.17,0,0,1-2.8,3.52A7,7,0,0,1,865,258.21Z"/><path class="cls-1" d="M860.64,238.5h3.05l6.13,11.83,6.1-11.83h3l-7.77,14.95a8.72,8.72,0,0,1-2.6,3.29,6.45,6.45,0,0,1-3.55.86l-.74,0c-.27,0-.56,0-.87-.07l0-1.79.34,0h.58a4.6,4.6,0,0,0,2.18-.43,4,4,0,0,0,1.46-1.65l.77-1.42h-.92Z"/></svg>