<svg id="_共通_アイコン_PDF-01" data-name="【共通】アイコン_PDF-01" xmlns="http://www.w3.org/2000/svg" width="16" height="16" viewBox="0 0 16 16">
  <rect id="背景塗" width="16" height="16" fill="#3232fc" opacity="0"/>
  <g id="icon" transform="translate(1)">
    <path id="パス_110" data-name="パス 110" d="M1,1V15H12V13H3V3h7V6h2V1Z" fill="#3232fc"/>
    <path id="パス_111" data-name="パス 111" d="M6,7H4v5H5V10H6A1,1,0,0,0,7,9V8A1,1,0,0,0,6,7ZM6,9H5V8H6Z" fill="#3232fc"/>
    <path id="パス_112" data-name="パス 112" d="M15,7H12v5h1V10h1V9H13V8h2V7Z" fill="#3232fc"/>
    <path id="パス_113" data-name="パス 113" d="M9.709,8A.292.292,0,0,1,10,8.291v2.418A.292.292,0,0,1,9.709,11H9V8h.709m0-1H8v5H9.709A1.291,1.291,0,0,0,11,10.709V8.291A1.291,1.291,0,0,0,9.709,7h0Z" fill="#3232fc"/>
  </g>
</svg>
