<svg xmlns="http://www.w3.org/2000/svg">
  <symbol id="pdf" viewBox="0 0 16 16">
    <g transform="translate(-1 -1)" fill="#3232fc">
      <rect width="16" height="16" opacity="0"/>
      <path d="M1,1V15H12V13H3V3h7V6h2V1Z"/>
      <path d="M6,7H4v5H5V10H6A1,1,0,0,0,7,9V8A1,1,0,0,0,6,7ZM6,9H5V8H6Z"/>
      <path d="M15,7H12v5h1V10h1V9H13V8h2V7Z"/>
      <path d="M9.709,8A.292.292,0,0,1,10,8.291v2.418A.292.292,0,0,1,9.709,11H9V8h.709m0-1H8v5H9.709A1.291,1.291,0,0,0,11,10.709V8.291A1.291,1.291,0,0,0,9.709,7h0Z"/>
    </g>
  </symbol>
  <symbol id="external" viewBox="0 0 16 16" fill="#3232fc">
    <g transform="translate(-1 -1)">
      <rect width="16" height="16" opacity="0"/>
      <path d="M6,1V3h4.586L6.293,7.293,7.707,8.707,12,4.414V9h2V1Z"/>
      <path d="M9,10v2H3V6H5V4H1V14H11V10Z"/>
    </g>
  </symbol>
  <symbol id="attention" viewBox="0 0 32 32" fill="#3232fc">
    <g transform="translate(0.104 0.104)">
      <rect width="32" height="32" transform="translate(-0.104 -0.104)" fill="red" opacity="0"/>
      <path d="M17.562,28.873a3.169,3.169,0,0,1-2.359-.993,3.308,3.308,0,0,1-.953-2.33,3.285,3.285,0,0,1,3.312-3.3,3.2,3.2,0,0,1,2.353.942h0a3.323,3.323,0,0,1-2.353,5.681Zm0-5.3a1.959,1.959,0,0,0-1.987,1.976,1.993,1.993,0,0,0,.586,1.416,1.862,1.862,0,0,0,1.4.582,1.987,1.987,0,1,0,0-3.973Z" transform="translate(-1.665 -2.6)"/>
      <path d="M16.13,30.26A14.13,14.13,0,1,1,30.26,16.13,14.147,14.147,0,0,1,16.13,30.26Zm0-26.494A12.364,12.364,0,1,0,28.494,16.13,12.378,12.378,0,0,0,16.13,3.766Z" transform="translate(-0.234 -0.234)"/>
      <path d="M17.562,20.055a1.661,1.661,0,0,1-.947-.276,1.255,1.255,0,0,1-.564-.731L14.314,10.9a3.5,3.5,0,0,1-.054-.46l-.01-.115a.642.642,0,0,1,0-.072l0-.124a1.7,1.7,0,0,1,.147-.67,3.369,3.369,0,0,1,6.353.069,1.516,1.516,0,0,1,.123.6l0,.116,0,.132-.012.092a2.771,2.771,0,0,1-.047.405c-.01.051-.019.1-.033.15l-1.705,8c-.051.293-.311,1.028-1.515,1.028Zm.216-1.282v0Zm-.457-.118a.712.712,0,0,0,.472.055l1.725-8.091a1.691,1.691,0,0,0,.025-.246l0-.05V10.2a.472.472,0,0,0-.042-.223,1.981,1.981,0,0,0-1.944-1.4A1.952,1.952,0,0,0,15.644,9.9a.786.786,0,0,0-.07.231l.006.2v.011l0,.045a2.05,2.05,0,0,0,.025.239l.019.093,1.693,7.935Zm2.886-8.369h0Z" transform="translate(-1.665 -0.847)"/>
    </g>
  </symbol>
  <symbol id="cosplay" viewBox="0 0 32 32" fill="#3232fc">
    <rect width="32" height="32" fill="red" opacity="0"/>
    <path d="M16.056,30.19C7.333,30.19.5,27.073.5,23.094c0-2.511,2.67-4.743,7.169-6.018,1.741-4.26,4.57-11.02,5.25-11.7A4.267,4.267,0,0,0,13.2,5.04C14,4.022,15.66,1.907,19.775,2.4a55.252,55.252,0,0,1,6.141,1.064,1.959,1.959,0,0,1,1.445,1.571,1.818,1.818,0,0,1-1.13,1.74c-1.229.7-6.192,2.69-6.4,2.774a.889.889,0,0,1-.66-1.652c1.4-.561,5.249-2.134,6.181-2.667.029-.018.056-.033.08-.049-.031-.014-.066-.028-.1-.042a56.282,56.282,0,0,0-5.761-.976c-3.121-.378-4.234,1.039-4.97,1.973a5.8,5.8,0,0,1-.418.493c-.432.572-2.9,6.316-5.028,11.522a.888.888,0,0,1-.6.524c-3.812,1-6.275,2.735-6.275,4.416,0,2.516,5.659,5.318,13.778,5.318s13.778-2.8,13.778-5.318c0-1.088-1.018-2.209-2.866-3.157a.889.889,0,0,1,.812-1.582c2.507,1.285,3.832,2.924,3.832,4.739,0,3.98-6.833,7.1-15.556,7.1Z" transform="translate(-0.056 0.189)"/>
    <path d="M16.758,27.137c-4.787,0-9.939-1.143-9.939-3.652a.891.891,0,0,1,.037-.255l.42-1.4a.889.889,0,0,1,1.7.51l-.362,1.209c.284.587,3.154,1.812,8.14,1.812,5.617,0,8.161-1.437,8.161-1.874,0-.8-1.268-3.884-2.027-5.73a22.518,22.518,0,0,1-1.186-3.18,18.413,18.413,0,0,1-.182-2.867.889.889,0,0,1,1.778,0,16.805,16.805,0,0,0,.158,2.574c.053.3.621,1.685,1.077,2.8,1.265,3.08,2.16,5.342,2.16,6.405,0,2.523-4.991,3.652-9.939,3.652Z" transform="translate(-0.758 -0.754)"/>
    <path d="M19.676,23.173a.668.668,0,0,1-.3-.073l-1.962-1-1.962,1a.667.667,0,0,1-.962-.7l.345-2.175L13.276,18.67a.667.667,0,0,1,.367-1.131l2.174-.344,1-1.962a.7.7,0,0,1,1.188,0l1,1.962,2.174.344a.667.667,0,0,1,.367,1.131l-1.556,1.556.345,2.175a.668.668,0,0,1-.659.772Zm-2.265-2.488a.662.662,0,0,1,.3.073l1.1.56L18.619,20.1a.666.666,0,0,1,.187-.575l.872-.871-1.218-.193a.67.67,0,0,1-.49-.356l-.559-1.1-.559,1.1a.667.667,0,0,1-.49.356l-1.218.193.872.871a.664.664,0,0,1,.187.575l-.193,1.218,1.1-.56A.662.662,0,0,1,17.411,20.685Z" transform="translate(-1.453 -1.208)"/>
  </symbol>
</svg>
