<?xml version="1.0" encoding="utf-8"?>
<!-- Generator: Adobe Illustrator 21.0.2, SVG Export Plug-In . SVG Version: 6.00 Build 0)  -->
<svg version="1.1" id="レイヤー_1" xmlns="http://www.w3.org/2000/svg" xmlns:xlink="http://www.w3.org/1999/xlink" x="0px"
	 y="0px" viewBox="0 0 192.9 44.8" style="enable-background:new 0 0 192.9 44.8;" xml:space="preserve">
<style type="text/css">
	.st0{fill:#243B51;}
</style>
<g>
	<path class="st0" d="M1.4,43.7c0-0.4,0.1-5.5,0.1-5.8c0.1-7.8,0.9-13.1,9.6-15.2c2-0.5,9.2-2,13.2-2.9c3.8-0.8,4.4-2.5,4.4-4.9
		c0-2.5-0.2-4.7-7.7-4.7h-0.8c-1.4,0-2.6,0.2-3.9,0.3c-4.7,0.6-4.8,2.2-4.8,6.9H1.6c0-1.1,0.1-2.2,0.1-3C1.9,4.7,6.5,1.6,19.9,1.6
		c13.7,0,18.4,2,18.4,13.4c0,7.9-1.9,12.1-11,13.6c-0.3,0.1-11.7,1.8-12,1.9C11,31.3,11,33.2,11,35.1l27-0.3v8.9
		C38,43.7,1.4,43.7,1.4,43.7z"/>
	<path class="st0" d="M62.7,44.7c-2.1,0-4.1-0.1-6-0.3c-10.5-0.8-13.6-3.3-13.6-14.6h9.4v1.7c0.3,4.5,2.7,4.7,9.8,4.9
		c5.8,0,9.1-0.1,9.1-5.1c0-3.4-1.2-5-6.5-5H53.1v-7.7H65c4.9,0,5.8-1.4,5.8-4.6v-0.6c-0.4-3.5-2.2-3.6-7.4-3.8
		c-8.3,0-10.2,0.8-10.2,5.8h-9.3C43.9,3.5,48.5,1.3,63,1.3c2.3,0,4.5,0.1,6.6,0.3C72.8,2,80.1,2.8,80.1,13.1c0,6.6-3,8.2-5.6,8.9
		c3.2,0.7,6.2,2.9,6.2,10.1c0,8-3.4,12.5-17.3,12.5h-0.7V44.7z"/>
	<path class="st0" d="M111.2,43.7c0-0.4,0.1-5.5,0.1-5.8c0.1-7.8,0.9-13.1,9.6-15.2c2-0.5,9.2-2,13.2-2.9c3.8-0.8,4.4-2.5,4.4-4.9
		c0-2.5-0.2-4.7-7.7-4.7H130c-1.4,0-2.6,0.2-3.9,0.3c-4.7,0.6-4.8,2.2-4.8,6.9h-9.9c0-1.1,0.1-2.2,0.1-3c0.3-9.7,4.9-12.8,18.3-12.8
		c13.7,0,18.4,2,18.4,13.4c0,7.9-1.9,12.1-11,13.6c-0.3,0.1-11.7,1.8-12,1.9c-4.3,0.9-4.3,2.8-4.3,4.6l27-0.3v8.9
		C147.9,43.7,111.2,43.7,111.2,43.7z"/>
	<path class="st0" d="M177.6,43.7V37h-25.5v-8.6l24.2-26.7h10.3v27h4.8V37h-4.8v6.7H177.6z M177.6,23l0.3-11.2l-16,17.1l15.7-0.1V23
		z"/>
</g>
<rect x="84.2" y="17.9" class="st0" width="23.1" height="10.5"/>
</svg>
