<svg id="レイヤー_1" data-name="レイヤー 1" xmlns="http://www.w3.org/2000/svg" xmlns:xlink="http://www.w3.org/1999/xlink" viewBox="0 0 1303.47 3391.96"><defs><style>.cls-1,.cls-3,.cls-4,.cls-6{fill:none;}.cls-2{fill:#d8d8d8;}.cls-3{stroke:#ff0;}.cls-3,.cls-4,.cls-6{stroke-miterlimit:10;}.cls-4{stroke:#4affcf;}.cls-5{fill:#f4f4f4;}.cls-10,.cls-5{opacity:0.72;}.cls-6{stroke:#328b85;}.cls-7{fill:#cbcbcb;}.cls-8{fill:#f1f1f1;}.cls-9{clip-path:url(#clip-path);}.cls-10{fill:#efefef;}</style><clipPath id="clip-path"><rect id="SVGID" class="cls-1" x="1026.96" y="1235.96" width="159" height="466"/></clipPath></defs><title>アートボード 4</title><g id="新規シンボル_3" data-name="新規シンボル 3"><polygon class="cls-2" points="1095.22 821.96 1074.22 821.96 1225.04 348.96 1246.04 348.96 1095.22 821.96"/><line class="cls-3" x1="1078.55" y1="731.13" x2="1229.38" y2="258.13"/><line class="cls-3" x1="1078.55" y1="2755.13" x2="1229.38" y2="2282.13"/><line class="cls-4" x1="780.55" y1="2409.13" x2="931.38" y2="1936.13"/><polygon class="cls-5" points="1060.97 56.47 624.99 1470.96 792.98 1470.96 1228.96 56.47 1060.97 56.47"/><line class="cls-6" x1="775.03" y1="1649.61" x2="925.86" y2="1176.61"/><polygon class="cls-7" points="1068.55 1946.96 1023.55 1946.96 1174.38 1473.96 1219.38 1473.96 1068.55 1946.96"/><polygon class="cls-8" points="759.55 3243.96 714.55 3243.96 1015.38 2300.96 1060.38 2300.96 759.55 3243.96"/><g class="cls-9"><polygon class="cls-10" points="1286.97 869.47 850.99 2283.96 867.49 2283.96 1303.47 869.47 1286.97 869.47"/></g></g></svg>