<svg xmlns="http://www.w3.org/2000/svg" viewBox="0 0 63.51 63.51"><defs><style>.cls-1{fill:#4b4b4b;}.cls-2{fill:#fff;}</style></defs><g id="レイヤー_2" data-name="レイヤー 2"><path class="cls-1" d="M31.76,0A31.76,31.76,0,1,0,63.51,31.76,31.76,31.76,0,0,0,31.76,0Z"/><path class="cls-2" d="M14.46,55.58h-.73V52.3h.84l1,1.47.35.62,0-.79V52.3h.72v3.28h-.7L14.77,53.9l-.35-.62,0,.78Z"/><path class="cls-2" d="M17.47,52.3h.84v3.28h-.84Z"/><path class="cls-2" d="M20.26,54.21l-.3.37v1h-.83V52.3H20v1.37l1.11-1.37h.83v0l-1,1.28L22,55.55v0h-.9Z"/><path class="cls-2" d="M23.63,54.21l-.3.37v1H22.5V52.3h.83v1.37l1.11-1.37h.84v0l-1.05,1.28,1.11,1.94v0h-.9Z"/><path class="cls-2" d="M25.87,52.3H28v.61H26.69v.69h1.09v.6H26.69V55H28v.61H25.87Z"/><path class="cls-2" d="M28.71,52.3h.84v3.28h-.84Z"/><path class="cls-2" d="M32,55.58h-.71v0l.8-1.26-.76-1.16v0h.83l.29.46.13.3.14-.3.29-.46h.71v0l-.77,1.18.82,1.25v0H32.9l-.32-.52-.15-.33-.15.33Z"/><path class="cls-2" d="M35.79,53v2.62H35V53h-.87V52.3h2.58V53Z"/><path class="cls-2" d="M38.37,54.4H38v1.18h-.82V52.3H38.4c.84,0,1.28.38,1.28,1a.88.88,0,0,1-.56.88l.76,1.33v0H39ZM38,52.89v.94h.36c.39,0,.55-.17.55-.48s-.17-.46-.57-.46Z"/><path class="cls-2" d="M40.41,52.3h2.08v.61H41.23v.69h1.09v.6H41.23V55h1.28v.61h-2.1Z"/><path class="cls-2" d="M43.88,55.58h-.72V52.3H44l1,1.47.35.62,0-.79V52.3h.73v3.28h-.71L44.19,53.9l-.34-.62,0,.78Z"/><path class="cls-2" d="M46.8,52.3h1.12c1.06,0,1.86.49,1.86,1.66s-.8,1.62-1.86,1.62H46.8Zm.82.62v2h.25c.64,0,1.07-.24,1.07-1a.94.94,0,0,0-1.07-1Z"/><polygon class="cls-2" points="14.15 49.93 15.84 49.93 38.09 9.41 36.41 9.41 14.15 49.93"/><polygon class="cls-2" points="16.97 49.93 18.65 49.93 40.91 9.41 39.23 9.41 16.97 49.93"/><polygon class="cls-2" points="19.78 49.93 21.47 49.93 43.73 9.41 42.05 9.41 19.78 49.93"/><polygon class="cls-2" points="22.6 49.93 24.28 49.93 46.54 9.41 44.86 9.41 22.6 49.93"/><polygon class="cls-2" points="25.42 49.93 27.09 49.93 49.35 9.41 47.68 9.41 25.42 49.93"/><polygon class="cls-2" points="21.14 19.54 25.16 27.07 25.72 25.87 22.24 19.54 23.16 19.54 26.16 24.98 26.65 23.88 24.25 19.54 25.16 19.54 27.09 23.03 30.35 16.13 26.66 9.41 13.57 9.41 24.16 29.2 24.66 28.1 20.24 19.54 21.14 19.54"/><polygon class="cls-2" points="38.79 49.93 39.89 49.93 34.54 40.23 34.03 41.27 38.79 49.93"/><polygon class="cls-2" points="36.84 49.93 37.94 49.93 33.65 42.12 33.15 43.22 36.84 49.93"/><polygon class="cls-2" points="34.98 39.34 40.8 49.93 41.9 49.93 35.48 38.25 34.98 39.34"/><polygon class="cls-2" points="36.04 37.13 42.81 49.93 49.94 49.93 39.34 30.14 36.04 37.13"/></g></svg>