<svg id="レイヤー_1" data-name="レイヤー 1" xmlns="http://www.w3.org/2000/svg" viewBox="0 0 94.03 119.38"><defs><style>.cls-1{fill:#fff;}</style></defs><path class="cls-1" d="M2.3,119.38H.41V110.9H2.58l2.64,3.78.92,1.61-.08-2V110.9H8v8.48H6.11l-3-4.34-.89-1.61.1,2Z"/><path class="cls-1" d="M10.09,110.9h2.16v8.48H10.09Z"/><path class="cls-1" d="M17.29,115.82l-.76,1v2.6H14.37V110.9h2.16v3.52l2.86-3.52h2.16V111l-2.72,3.31,2.88,5v.09H19.39Z"/><path class="cls-1" d="M26,115.82l-.77,1v2.6H23.08V110.9h2.16v3.52l2.86-3.52h2.16V111l-2.71,3.31,2.87,5v.09H28.1Z"/><path class="cls-1" d="M31.81,110.9h5.38v1.56H33.93v1.8h2.8v1.54h-2.8v2h3.31v1.58H31.81Z"/><path class="cls-1" d="M39.15,110.9h2.16v8.48H39.15Z"/><path class="cls-1" d="M47.53,119.38H45.71v-.1L47.78,116l-2-3v-.1H48l.74,1.19.35.77.36-.77.74-1.19H52V113l-2,3,2.11,3.21v.1H50L49.15,118l-.39-.86-.4.86Z"/><path class="cls-1" d="M57.43,112.59v6.79H55.28v-6.79H53V110.9h6.66v1.69Z"/><path class="cls-1" d="M64.12,116.33h-1v3H61V110.9h3.21c2.17,0,3.31,1,3.31,2.65a2.27,2.27,0,0,1-1.45,2.28l2,3.44v.11H65.8Zm-1-3.91v2.43H64c1,0,1.43-.44,1.43-1.25S65,112.42,64,112.42Z"/><path class="cls-1" d="M69.4,110.9h5.38v1.56H71.52v1.8h2.8v1.54h-2.8v2h3.31v1.58H69.4Z"/><path class="cls-1" d="M78.37,119.38H76.49V110.9h2.17l2.64,3.78.92,1.61-.08-2V110.9H84v8.48H82.19l-3-4.34-.89-1.61.1,2Z"/><path class="cls-1" d="M85.91,110.9h2.9c2.73,0,4.81,1.25,4.81,4.28s-2.08,4.2-4.81,4.2h-2.9ZM88,112.5v5.28h.65c1.63,0,2.75-.62,2.75-2.6s-1.12-2.68-2.75-2.68Z"/><polygon class="cls-1" points="1.51 104.75 5.86 104.75 63.38 0 59.05 0 1.51 104.75"/><polygon class="cls-1" points="8.78 104.75 13.13 104.75 70.68 0 66.33 0 8.78 104.75"/><polygon class="cls-1" points="16.06 104.75 20.41 104.75 77.97 0 73.62 0 16.06 104.75"/><polygon class="cls-1" points="23.34 104.75 27.69 104.75 85.25 0 80.9 0 23.34 104.75"/><polygon class="cls-1" points="30.62 104.75 34.96 104.75 92.51 0 88.18 0 30.62 104.75"/><polygon class="cls-1" points="19.58 26.19 29.96 45.66 31.41 42.57 22.42 26.19 24.79 26.19 32.54 40.25 33.82 37.42 27.62 26.19 29.98 26.19 34.95 35.22 43.39 17.38 33.85 0 0 0 27.37 51.16 28.66 48.34 17.23 26.19 19.58 26.19"/><polygon class="cls-1" points="65.2 104.75 68.05 104.75 54.22 79.68 52.9 82.39 65.2 104.75"/><polygon class="cls-1" points="60.16 104.75 63.01 104.75 51.9 84.57 50.62 87.41 60.16 104.75"/><polygon class="cls-1" points="55.35 77.4 70.4 104.75 73.23 104.75 56.65 74.56 55.35 77.4"/><polygon class="cls-1" points="58.09 71.66 75.6 104.75 94.03 104.75 66.63 53.61 58.09 71.66"/></svg>