<svg id="レイヤー_1" data-name="レイヤー 1" xmlns="http://www.w3.org/2000/svg" viewBox="0 0 407.04 142.87"><defs><style>.cls-1{fill:#fff;}.cls-2{fill:#d32f2f;}.cls-3{fill:#231815;}</style></defs><polygon class="cls-1" points="168.39 11.76 168.39 54.29 153.53 54.29 153.53 11.76 139.42 11.76 139.42 0.25 182.5 0.25 182.5 11.76 168.39 11.76"/><path class="cls-1" d="M212.07,35.37H206V54.29H191.35V.25h21.32C226.77.25,234,6.56,234,17.37c0,7.05-3.23,12-8.74,14.47l11.93,21.71v.74H222ZM206,10.64V25.26h5.36c6.21,0,8.59-2.69,8.59-7.52s-2.6-7.1-8.82-7.1Z"/><polygon class="cls-1" points="245.25 0.25 280.51 0.25 280.51 10.92 259.91 10.92 259.91 21.34 277.53 21.34 277.53 31.93 259.91 31.93 259.91 43.65 280.9 43.65 280.9 54.29 245.25 54.29 245.25 0.25"/><polygon class="cls-1" points="331.57 55.33 304.73 24.59 304.73 54.74 292.09 54.74 292.09 0.25 300.89 0.25 327.43 30.63 327.43 0.79 340.07 0.79 340.07 55.33 331.57 55.33"/><path class="cls-1" d="M352,.25h19.43c17.41,0,30.83,8,30.83,27.46s-13.42,26.9-30.83,26.9H352Zm14.77,11V43.66h3.88c9.87,0,16.51-3.84,16.51-15.95,0-11.87-6.64-16.5-16.51-16.5Z"/><path class="cls-1" d="M27.28,42.22l.08,3H21.61V42.59H5.74v2.64H0c0-.83.06-1.95.06-3V13.61c0-1.07,0-2.21-.06-3H27.36c0,1-.08,1.93-.08,3ZM5.74,23.7H21.61v-8H5.74Zm15.87,5H5.74v8.76H21.61Z"/><path class="cls-1" d="M45.92,43.51c0,.6,0,1.29,0,1.82H41.19a15.22,15.22,0,0,0,.07-1.82V29.28c-1.65.16-3.13.27-4.1.37-.48,0-1.37.18-1.89.28l-.6-4.62c.53,0,1.57,0,2.46,0a9.51,9.51,0,0,0,1,0c.72-.84,1.48-1.77,2.25-2.78-1.77-2-3.7-4.06-5.46-5.74l2.49-3.82c.35.35.8.85,1.24,1.32A28.5,28.5,0,0,0,42.15,8l4.06,2.39a6.3,6.3,0,0,0-.48.6,52.29,52.29,0,0,1-4.18,6.61c.44.52.88,1.05,1.28,1.56a40.43,40.43,0,0,0,4.5-7.58l4,2.37a4.82,4.82,0,0,1-.56.66c-1.76,2.87-4.66,6.91-7.36,10.38,1.29-.11,2.57-.23,3.66-.36a27.39,27.39,0,0,0-1-3l3.53-.92a53.19,53.19,0,0,1,2.58,8.68c-1.17.37-2.69.82-3.9,1.14-.07-.56-.2-1.21-.33-1.85-.6,0-1.27.12-2,.18ZM36.44,31.29c1.28.2,2.82.45,3.85.65,0,.16-.07.46-.11.8a42.34,42.34,0,0,1-1.37,10.65c-.68-.28-2.57-1-3.85-1.48a35.32,35.32,0,0,0,1.48-10.62M70,39.93c1.11,0,2,0,2.8-.07v5c-.76-.07-1.69-.07-2.8-.07H53c-1.09,0-2.05,0-2.85.07V39.9l-2.26.63a53.64,53.64,0,0,0-1.08-8.92l3.46-.91a57.09,57.09,0,0,1,1.57,8.71c-.25.08-.85.29-1.53.45.76.07,1.68.07,2.69.07h6.51V35.55h-4.1c-1,0-1.72,0-2.45,0V30.94c.73,0,1.48,0,2.45,0h4.1V28.47c0-.36,0-1-.07-1.42,1.15,0,4.3.1,5.42.19,0,.35-.08.87-.08,1.23V31h4.34c1,0,1.76,0,2.44,0v4.65c-.68,0-1.48,0-2.44,0H64.74v4.38ZM58.14,21.45a18.56,18.56,0,0,1-4.06-6.71c-.76,0-1.49,0-2.09,0V10.16c.65,0,1.41,0,2.21,0H67.31l.36-.41a39.42,39.42,0,0,1,4.23,3.49c-.18.13-.42.21-.61.33a18.93,18.93,0,0,1-5,8,28.4,28.4,0,0,0,6.55,1.7c-.61,1.4-1.52,3.7-1.89,4.83a28.24,28.24,0,0,1-8.59-3.26,31.78,31.78,0,0,1-8.48,3.26c-.41-1.18-1.53-3.51-2.21-5a25.74,25.74,0,0,0,6.5-1.64m7.68-6.71H59.07a12.08,12.08,0,0,0,3.22,4.37,11.71,11.71,0,0,0,3.53-4.37"/><polygon class="cls-2" points="85.67 54.42 87.92 54.42 117.65 0.25 115.41 0.25 85.67 54.42"/><polygon class="cls-2" points="89.43 54.42 91.68 54.42 121.42 0.25 119.17 0.25 89.43 54.42"/><polygon class="cls-2" points="93.19 54.42 95.44 54.42 125.19 0.25 122.94 0.25 93.19 54.42"/><polygon class="cls-2" points="96.95 54.42 99.2 54.42 128.94 0.25 126.71 0.25 96.95 54.42"/><polygon class="cls-2" points="100.72 54.42 102.96 54.42 132.71 0.25 130.46 0.25 100.72 54.42"/><polygon class="cls-2" points="95.01 13.81 100.38 23.86 101.13 22.27 96.48 13.81 97.71 13.81 101.72 21.07 102.37 19.61 99.17 13.81 100.39 13.81 102.96 18.48 107.32 9.26 102.38 0.25 84.89 0.25 99.05 26.72 99.7 25.24 93.8 13.81 95.01 13.81"/><polygon class="cls-2" points="118.59 54.42 120.06 54.42 112.91 41.43 112.23 42.84 118.59 54.42"/><polygon class="cls-2" points="115.99 54.42 117.45 54.42 111.71 43.97 111.05 45.45 115.99 54.42"/><polygon class="cls-2" points="113.5 40.27 121.27 54.42 122.74 54.42 114.16 38.8 113.5 40.27"/><polygon class="cls-2" points="114.91 37.3 123.96 54.42 133.49 54.42 119.33 27.97 114.91 37.3"/><path class="cls-2" d="M407,72.53l-328.95.26c-14.11,0-25.52,7-31.23,18V73.92H0v68.7h372.2c20.15,0,34.8-14.46,34.8-34.84Z"/><path class="cls-1" d="M20,114.29v21.08H6.24V80.13H40.63V90.31H20v13.8H38.37v10.18Z"/><path class="cls-1" d="M49.6,107.58C49.6,91.19,61.15,79,78.59,79s29,12.19,29,28.58-11.46,28.91-29,28.91S49.6,123.9,49.6,107.58Zm43.68,0c0-11-5.66-18-14.69-18s-14.7,6.94-14.7,18,5.57,18.25,14.7,18.25S93.28,118.56,93.28,107.58Z"/><path class="cls-1" d="M135.9,115.5h-6.62v19.87h-13.8V80.13h20.91c14.12,0,21.57,6.31,21.57,17.29,0,7.42-3.47,12.42-9.46,14.86l12.85,22.35v.74H146.89Zm-6.62-25.45v15.84h6.06c6.64,0,9.28-2.92,9.28-8.17s-2.89-7.67-9.51-7.67Z"/><path class="cls-1" d="M241.29,135.37H230V80.13h16.31l9.85,26.48,2.66,9.7,2.76-9.7,10.1-26.48h16.61v55.24H275.36V113l1-17.78-4.76,15.34-9.29,24.8h-8.16l-9.05-24.8-4.76-15.9,1,18.34Z"/><path class="cls-1" d="M169.35,113.73V80h14.11v33.48c0,7.7,3.73,11.6,10.46,11.6s10.62-3.9,10.62-11.6V80H217.1v33.73c0,14.11-8.43,22.7-23.67,22.7C178,136.43,169.35,128.49,169.35,113.73Z"/><path class="cls-3" d="M301,117.67l7.84-8.66c2.18-2.52,3.36-4.59,3.36-6.86,0-2.11-1.18-3.75-4.25-3.75a10.74,10.74,0,0,0-6.39,2l-.29-.12V95.09c1.89-1.22,4.28-2,8-2,5.92,0,9.75,3,9.75,8.37,0,3.82-2.1,6.93-5.13,10.35L309.05,117l4.58-.38h5.76v5H301Z"/><path class="cls-3" d="M322.81,107.44c0-9.16,5-14.33,12.19-14.33s12.11,5.17,12.15,14.33S342.19,122,335,122,322.84,116.62,322.81,107.44Zm17.23,0q0-9.19-5-9.2c-3.33,0-5.05,3.07-5.05,9.2s1.72,9.43,5.05,9.43S340,113.63,340,107.44Z"/><path class="cls-3" d="M351.1,117.67l7.83-8.66c2.19-2.52,3.36-4.59,3.36-6.86,0-2.11-1.17-3.75-4.25-3.75a10.74,10.74,0,0,0-6.39,2l-.29-.12V95.09a14,14,0,0,1,8-2c5.93,0,9.76,3,9.76,8.37,0,3.82-2.11,6.93-5.13,10.35L359.14,117l4.59-.38h5.75v5H351.1Z"/><path class="cls-3" d="M374.6,117.67l7.84-8.66c2.18-2.52,3.36-4.59,3.36-6.86,0-2.11-1.18-3.75-4.25-3.75a10.74,10.74,0,0,0-6.39,2l-.29-.12V95.09c1.89-1.22,4.28-2,8-2,5.92,0,9.75,3,9.75,8.37,0,3.82-2.1,6.93-5.13,10.35L382.65,117l4.58-.38H393v5H374.6Z"/></svg>