<svg width="44" height="58" viewBox="0 0 44 58" fill="none" xmlns="http://www.w3.org/2000/svg">
<g filter="url(#filter0_d_290_4054)">
<path d="M4 25C4 11.1929 15.1929 0 29 0H54V50H29C15.1929 50 4 38.8071 4 25Z" fill="black"/>
<path d="M4 25C4 11.1929 15.1929 0 29 0H54V50H29C15.1929 50 4 38.8071 4 25Z" fill="url(#paint0_linear_290_4054)" fill-opacity="0.3"/>
<path d="M5 25C5 11.7452 15.7452 1 29 1H53V49H29C15.7452 49 5 38.2548 5 25Z" stroke="#57E4EF" stroke-width="2"/>
</g>
<path d="M30 31L24 24.4908L30 18" stroke="#57E4EF" stroke-width="2" stroke-miterlimit="10"/>
<defs>
<filter id="filter0_d_290_4054" x="0" y="0" width="58" height="58" filterUnits="userSpaceOnUse" color-interpolation-filters="sRGB">
<feFlood flood-opacity="0" result="BackgroundImageFix"/>
<feColorMatrix in="SourceAlpha" type="matrix" values="0 0 0 0 0 0 0 0 0 0 0 0 0 0 0 0 0 0 127 0" result="hardAlpha"/>
<feOffset dy="4"/>
<feGaussianBlur stdDeviation="2"/>
<feComposite in2="hardAlpha" operator="out"/>
<feColorMatrix type="matrix" values="0 0 0 0 0 0 0 0 0 0 0 0 0 0 0 0 0 0 0.25 0"/>
<feBlend mode="normal" in2="BackgroundImageFix" result="effect1_dropShadow_290_4054"/>
<feBlend mode="normal" in="SourceGraphic" in2="effect1_dropShadow_290_4054" result="shape"/>
</filter>
<linearGradient id="paint0_linear_290_4054" x1="29" y1="0" x2="29" y2="50" gradientUnits="userSpaceOnUse">
<stop stop-opacity="0"/>
<stop offset="1" stop-color="#57E4EF"/>
</linearGradient>
</defs>
</svg>
