<svg id="レイヤー_1" data-name="レイヤー 1" xmlns="http://www.w3.org/2000/svg" viewBox="0 0 336.89 26.26"><defs><style>.cls-1{fill:#00b4dc;}</style></defs><title>アートボード 4</title><path class="cls-1" d="M18.34,5.35l1.46.22c.64.11.89.14.89.45s-.36.36-.67.39c-.11.28-.31.67-.64,1.35h5.43V22c0,2.77-.65,3.94-5.18,3.94,0-.36,0-.53,0-.72a5,5,0,0,0-1-3v1.68H10.53v.67H6.86V18.09c-.08.05-.17.08-.28.14a5.37,5.37,0,0,0-2-1.85V26H.56V7.76H6.41a10.93,10.93,0,0,0-1.09-2l2-.36H0V2H10.58V0l4.23.2c.28,0,.53.08.53.36s-.28.39-.53.5V2H25.48V5.35Zm-13.72,6v3.95a6.2,6.2,0,0,0,3-3.95Zm16.3,3.05A2.65,2.65,0,0,1,18.34,16H14.76c-1.66,0-2.19-.59-2.19-1.91V11.34H9.72l1.48.48c.2,0,.59.19.59.44s0,.31-.76.48a10.09,10.09,0,0,1-2.55,4.12H18.65v5.2c.56.06,1,.14,1.34.14.87,0,.93-.28.93-.92Zm-11.2-9A15,15,0,0,1,11,7.5l-1,.26h4.9A16.88,16.88,0,0,0,16,5.35ZM15,19.74H10.53v1.32H15Zm1.15-8.4v.9c0,.36,0,.61.56.61h.84c.53,0,.62-.47.84-1.51Zm4.82,0H18.37a7.74,7.74,0,0,0,2.55,1.34Z"/><path class="cls-1" d="M42.17,2.13c.28,0,.42.11.42.28s-.25.33-.67.5a26.22,26.22,0,0,1-1,4.62,9.55,9.55,0,0,0-3.58-.67v.73H28V4.82h9.41v2a26.33,26.33,0,0,0,1-5.16Zm-5,23.41H33.85v-1H32.23v1.37h-3.5v-10h8.43v2.85a14,14,0,0,0,1.7-4.9l3.59.76c.19,0,.5.17.5.39,0,.42-.56.53-.81.56a22.92,22.92,0,0,1-1.46,4.62,9.1,9.1,0,0,0-3.52-1.09V22.6c6-1.85,5.93-5.55,5.85-10.67l4.06.22c.14,0,.42,0,.42.34s-.2.31-.76.47c0,.73,0,1.21,0,2.08a8.32,8.32,0,0,0,2.44,4.5,15.66,15.66,0,0,0,4.31,3A8,8,0,0,0,51,25.7a13.59,13.59,0,0,1-5.6-5.09,11.48,11.48,0,0,1-6.1,5.29,8.66,8.66,0,0,0-2.1-2.72ZM36.4,1.15V3.86H29.34V1.15Zm0,7.39v2.72H29.34V8.54Zm0,3.67v2.71H29.34V12.21Zm-2.55,9.15V18.93H32.23v2.43Zm13-21c.34,0,.56,0,.56.31s-.44.44-.78.53c0,.42-.11,2.32-.11,2.71a6.43,6.43,0,0,0,2.07,3.9,17.37,17.37,0,0,0,5.1,2.88,9.69,9.69,0,0,0-2.52,3A15.62,15.62,0,0,1,45,9.13a12.51,12.51,0,0,1-5.88,4.48,10.73,10.73,0,0,0-2.22-3c4.82-1.57,5.94-3.95,5.94-8.4,0-.81,0-1.29-.06-2Zm6,2.63a.44.44,0,0,1,.28.39c0,.14-.08.34-.39.34a2.28,2.28,0,0,1-.5-.06A18.76,18.76,0,0,1,49.73,7a11.67,11.67,0,0,0-3-2.21,15.14,15.14,0,0,0,2.69-3.73Zm-.33,12c.28.14.42.25.42.47s-.45.48-.84.51a17,17,0,0,1-1.85,3,10.76,10.76,0,0,0-3-2,18.46,18.46,0,0,0,2-3.58Z"/><path class="cls-1" d="M73.58,20.8c0,.56.2,1,1.12,1h2c.76,0,.92-.31,1-.67s.47-1.85.64-2.63a8.48,8.48,0,0,0,3.67,1.85,13,13,0,0,1-1.26,4.08,2.91,2.91,0,0,1-2.52,1.24H73.14c-2.19,0-3.87-.73-3.87-3.53V16.77h-3l1.37.37c.17.05.47.14.47.47,0,.53-.58.56-1.09.59a14,14,0,0,1-8.62,8.06,11.52,11.52,0,0,0-3.33-3.33c1.76-.39,6.88-1.54,8-6.16H59V.73H78.18v16h-4.6Zm.28-15.51v-1H63.53v1ZM63.53,8.12v1H73.86v-1Zm0,4v1.12H73.86V12.07Z"/><path class="cls-1" d="M83.94,8.57V4.87H94.58V.17l4,.25c.7.06.78.25.78.39s-.11.31-.59.62V4.87h10.67v3.7h-9a26.53,26.53,0,0,0,9.8,10.81c-1.84,1.48-2.4,2-3.05,3.22a33,33,0,0,1-4.25-4v3.3H98.81v3.95H94.58V21.92H90.41V18.59a34.47,34.47,0,0,1-4.28,4c-.65-1.24-1.23-1.77-3-3.22a25.94,25.94,0,0,0,9.8-10.81Zm10.64,4.25a31.14,31.14,0,0,1-3.78,5.32h3.78Zm8,5.32a31.81,31.81,0,0,1-3.75-5.26v5.26Z"/><path class="cls-1" d="M126.81,8.9h8.63V20.41c0,1.18,0,2.19-1,2.89s-2.38.84-4.79.84a9.56,9.56,0,0,0-1.29-4.32,11.85,11.85,0,0,0,1.74.17c.89,0,1.06-.19,1.06-1V12.85h-4.37v13h-4.23v-13H118.3v11H114V8.9h8.56V6.8H111.94V3h10.64V.17L127,.34c.16,0,.42.08.42.33s-.37.48-.65.53V3h10.67V6.8H127.12c.17.06.34.17.34.34s-.4.45-.65.53Z"/><path class="cls-1" d="M162.43,7.22c-.28-.58-.84-1.87-3.39-1.87-4.34,0-4.62,3.75-4.79,5.91,1-.9,2.27-2.08,5.91-2.08,4.68,0,7.84,2.69,7.84,7.12,0,4.11-2.83,8.09-8.93,8.09A9.67,9.67,0,0,1,153.86,23c-4-2.38-4.54-6.92-4.54-10.28,0-11,7.82-11.65,9.75-11.65,2.52,0,7.75,1.15,8.68,6.13Zm.53,9.3c0-2.32-2-3.5-4.14-3.5s-4.18,1.2-4.18,3.5c0,1.82,1.35,3.67,4.18,3.67S163,18.34,163,16.52Z"/><path class="cls-1" d="M172.65,23.77,182,1.71h3.53l-9.36,22.06Z"/><path class="cls-1" d="M195.33,23.77V9.44h-4.79V5.77c2.83-.09,4.84-.56,5.88-4.06h4.12V23.77Z"/><path class="cls-1" d="M213.58,13.89V10.47H215c.53,0,3.87-.31,3.87-2.74s-2.5-2.33-3.34-2.33c-2.15,0-3.66.34-3.72,2.78h-5.24c.62-5.27,4.32-7.09,9.16-7.09,5.24,0,8.23,2.41,8.23,6a4.7,4.7,0,0,1-3.41,4.76c1.28.48,4,1.52,4,5.27,0,5-4.42,7.28-9.46,7.28-4.82,0-8.82-2.24-9.21-8h5.26c.06,1.06.25,3.78,4,3.78.54,0,4.15-.09,4.15-3.14,0-1.79-1.26-3.16-4-3.16Z"/><path class="cls-1" d="M266.47,13.13a2.88,2.88,0,1,1-2.88-2.88A2.88,2.88,0,0,1,266.47,13.13Z"/><path class="cls-1" d="M279.83,23.77V9.44H275V5.77c2.83-.09,4.85-.56,5.88-4.06H285V23.77Z"/><path class="cls-1" d="M300.72,1.71h5V15h3.42v4.23h-3.42v4.56h-5.07V19.21H290.19V15ZM300.66,15V7.22L294.5,15Z"/><path class="cls-1" d="M239.79.53a12.6,12.6,0,1,0,12.6,12.6A12.58,12.58,0,0,0,239.79.53Zm6.66,19.19a22,22,0,0,1-5.22-5.4v7h-2.86v-7a16.43,16.43,0,0,1-5.24,5.38,4.56,4.56,0,0,0-1.89-2.14A15,15,0,0,0,237.32,11h-5.67V8.46h6.72V4.79l2.77.09c.14,0,.45,0,.45.22s-.05.2-.36.39v3H248V11h-5.78a17,17,0,0,0,6.12,6.54A5.88,5.88,0,0,0,246.45,19.72Z"/><path class="cls-1" d="M325.59,18.73h2.2a12.33,12.33,0,0,0-1.41-.7,10.41,10.41,0,0,0,1.3-2.63h-2.09Z"/><path class="cls-1" d="M322.15,17.83a16.1,16.1,0,0,0-1.53.9H323V15.4h-2.29A11.76,11.76,0,0,1,322.15,17.83Z"/><path class="cls-1" d="M324.31,7.58a17.33,17.33,0,0,1-2.43,2.22h4.81A13.36,13.36,0,0,1,324.31,7.58Z"/><path class="cls-1" d="M324.29.53a12.6,12.6,0,1,0,12.6,12.6A12.59,12.59,0,0,0,324.29.53Zm7,12.15a15.4,15.4,0,0,1-3.17-1.82v1.26h-2.56v1h5.51V15.4h-3.24l2.3.92c.17.07.27.1.27.21s-.28.24-.57.25a14.47,14.47,0,0,1-.87,1.95h2.76v2.21H316.64V18.73h3a9.32,9.32,0,0,0-1.41-2.38l1.77-1h-2.63V13.13H323v-1h-2.59V10.86c-1.19.76-1.51,1-3,1.78a9.63,9.63,0,0,0-2.09-2.05c5-2.14,7.29-4.83,7.83-5.83l2.94.32c.11,0,.23,0,.23.18s-.18.27-.36.32a17.92,17.92,0,0,0,7.37,4.76A8.23,8.23,0,0,0,331.32,12.68Z"/></svg>