<svg xmlns="http://www.w3.org/2000/svg" width="556.47" height="60"><path d="M33.71 27H30.3v-4.95A22.9 22.9 0 0123.58 27a7.58 7.58 0 00-3-2.52A17.87 17.87 0 0027.7 20h-4.32v-9.11h6.92v-1h-9.2V7h9.2V4.89l3.7.19c.24 0 .48.07.48.31s-.28.38-.76.5V7h9.16v2.9h-9.17v1h7V20h-4.27a20.26 20.26 0 006.82 4 7.46 7.46 0 00-2.62 2.74A23.84 23.84 0 0133.71 22zM30.3 13.19h-3.36v1.1h3.36zm0 3.17h-3.36v1.13h3.36zm3.41-2.07h3.43v-1.1h-3.43zm0 3.2h3.43v-1.13h-3.43zm20.54-12.6l3.67.16c.17 0 .43 0 .43.24s-.24.32-.57.44v1.1h9.07V9.9H45.1V6.83h9.15zm-.94 15.6c.15.07.24.14.24.29s-.33.26-.62.26a20.46 20.46 0 01-4.71 5.47 10.71 10.71 0 00-3.12-2 18.9 18.9 0 005-5.84zm4.47 3.81c0 2-.43 2.86-4.85 2.67a12.45 12.45 0 00-1.32-3.55c.43 0 1.37.14 1.85.14.77 0 .79-.36.79-.7v-4.51H47.7v-7.42h16.53v7.42h-6.45zm-6.53-10.51v1.71h9.5v-1.71zm10.34 5a20.42 20.42 0 014.68 5.38 37.27 37.27 0 00-3.09 2.33 24.09 24.09 0 00-4.47-5.86zm17.5-13.28c.31 0 .5.1.5.31s-.26.34-.4.39c-.08.72-.13 1.56-.17 2.54a17.66 17.66 0 003.77-1.2c0 .89-.05 2-.05 2.54a9.9 9.9 0 00.05 1.3 17.86 17.86 0 01-3.94 1.08v1.63a12.23 12.23 0 014.08-.72 6.37 6.37 0 016.65 6.51 5.56 5.56 0 01-5.69 6c-3.62 0-3.74-3.21-3.77-4.22l3-1c0 .48 0 1.61 1.13 1.61.91 0 1.51-.91 1.51-2.11A3 3 0 0082.5 17a11.13 11.13 0 00-3.72.84 70.12 70.12 0 00.31 7.16l-3.29 1.51a32.22 32.22 0 00-4.2-3.43c-.6.65-.89 1-1.22 1.39l-1.73-4.13c1.1-.6 5.47-3.91 6.43-4.51v-2.88c-1.42.07-3.1.1-4.47.1V9.23a10.24 10.24 0 001.9.15c.93 0 2.28-.1 2.57-.1 0-1.8 0-2.07-.1-4.47zM73.71 21a2.58 2.58 0 001.08.63c.36 0 .34-.84.31-1.76-.28.23-.79.59-1.39 1.13zM86.24 8.22a20.46 20.46 0 015.23 3.84A16.72 16.72 0 0089.15 15a13.94 13.94 0 00-5.09-3.77zM106.35 6c.27.1.41.17.41.39s-.41.41-.69.43a28.83 28.83 0 00-1.42 2.52c1.27.12 2.5.17 3 .17h1.18a17.89 17.89 0 00-1.06 3.79 29 29 0 01-4.54-.21c-.29.65-.62 1.51-.86 2.11a37.24 37.24 0 005.33.36c-.46 1.3-.84 2.81-1 3.55-1.47-.09-3.13-.24-5.38-.57a7.77 7.77 0 00-.27 1.94c0 2.93 2.72 2.93 3.89 2.93s4.66 0 4.66-3.48a9.19 9.19 0 00-1.22-3.75 11.5 11.5 0 003.62-1.33 12.49 12.49 0 011.66 5.45c0 5.28-5.57 6.5-8.72 6.5-4.82 0-7.49-2.5-7.49-6a12.1 12.1 0 01.36-2.91 19.1 19.1 0 01-3.15-.89l.82-3.55a21.81 21.81 0 003.24 1c.1-.31.26-.84.72-2.13a21.83 21.83 0 01-3.58-1.2l.72-3.72a31.23 31.23 0 004.25 1.32c.24-.65 1.4-3.58 1.63-4.18zm22.25-.32c.19.05.46.14.46.38s-.12.31-.53.34c-.53 1.6-.53 1.8-.7 2.16a36.24 36.24 0 007.83-1.9c.12.79.43 2.62.67 3.58a41.65 41.65 0 01-9.82 2c-.57 1.58-.77 2.06-1.25 3.24a14.24 14.24 0 016.25-1.63c6.4 0 6.74 4.51 6.74 5.71a5.93 5.93 0 01-2.57 4.85c-1.27.86-3.67 2.3-10.32 2.3a21.41 21.41 0 01-2.23-.12 17.12 17.12 0 00-.89-3.57c.7.07 2.11.21 3.58.21.55 0 4.65 0 7.13-1.46a2.44 2.44 0 001.29-2.26c0-1.39-.72-2.57-2.93-2.57a12.3 12.3 0 00-8.3 4l-3.46-1.73a33.08 33.08 0 003.19-6.74c-2.08 0-3.74-.07-4.65-.14V8.39a22.25 22.25 0 005.81.53 31.76 31.76 0 00.91-4.25zm23.16 3.17c.29.33 1.49 1.82 1.73 2.11a10.27 10.27 0 012.64-.41 4.57 4.57 0 014.78 4.68c0 4.49-4.88 4.9-7.33 5.09a16 16 0 00-1.1-3.22h1.1c.82 0 3.89 0 3.89-2.11 0-.41-.12-1.35-1.53-1.35h-.53c.43.69.67 1.15.89 1.51-.89.36-2.28.93-3.15 1.32a15 15 0 00-.88-1.85c-.89.41-1.42.7-1.76.89a46.93 46.93 0 013.36 9.26 31.28 31.28 0 00-3.41 1.66 41.31 41.31 0 00-2.8-9.22c-.7.51-.89.67-2.72 2.23l-2.16-3.38a30.85 30.85 0 003.41-1.7 17.76 17.76 0 00-2.19-3.09l3.27-1.34a1.16 1.16 0 01.5-.15.26.26 0 01.29.27.69.69 0 01-.22.38l1.3 2.38 1.37-.68c-.39-.52-.51-.69-1.52-2zm16.85 1.2a24.57 24.57 0 015.61 3.28 23.14 23.14 0 00-2.32 3.2 20.68 20.68 0 00-5.45-3.27zM167.84 23a35.08 35.08 0 0016.9-12.72 12.58 12.58 0 002.47 3.24c-3 4.51-10.13 10.42-16.54 12.79 0 .15 0 .55-.41.55-.16 0-.31-.24-.36-.31zM171 4.72a36.49 36.49 0 016 2.83c-.51.58-1.95 2.62-2.28 3.12a25.47 25.47 0 00-5.84-3zm21.56 20.35V22h10.73v-2.45h-10.11v-3.14h10.11V14.1h-10.42V11h13.78v14.79h-3.36v-.72zM234.44 14v4.08h-20.86V14zm24.79 11.12H243.1c.32-4.2 2.67-5.93 7.76-9.38 3.86-2.65 3.86-3.2 3.86-4.2 0-1.81-1.92-2.26-3.17-2.26-3.24 0-3.57 2.3-3.67 3.86h-4.44a7.16 7.16 0 011.49-4.77c1.61-1.95 3.93-2.69 6.65-2.69 5.49 0 7.49 3 7.49 5.78a5.69 5.69 0 01-1.07 3.29c-1.22 1.71-6.07 4.8-6.31 5a13.45 13.45 0 00-2.45 1.85h10zm18.1-9.12c0 2.3-.55 9.67-8 9.67a7.26 7.26 0 01-6.34-3.1c-1.25-1.82-1.68-5.11-1.68-7.2 0-2.3.55-9.67 8-9.67 7.03-.02 8.02 6.36 8.02 10.3zm-11.55-.32c0 .8 0 6.36 3.56 6.36s3.52-5.54 3.52-6.36 0-6.36-3.52-6.36-3.56 5.48-3.56 6.34zm29.89 9.44h-16.13c.31-4.2 2.66-5.93 7.75-9.38 3.86-2.65 3.86-3.2 3.86-4.2 0-1.81-1.92-2.26-3.17-2.26-3.24 0-3.57 2.3-3.67 3.86h-4.44a7.21 7.21 0 011.49-4.77C283 6.42 285.3 5.68 288 5.68c5.49 0 7.49 3 7.49 5.78a5.69 5.69 0 01-1.06 3.29c-1.22 1.71-6.07 4.8-6.31 5a13.45 13.45 0 00-2.45 1.85h10zm8.73-8.47v-2.93h1.2c.46 0 3.31-.26 3.31-2.35s-2.13-2-2.85-2c-1.85 0-3.15.28-3.2 2.37h-4.48c.52-4.51 3.69-6.07 7.84-6.07 4.49 0 7.06 2.06 7.06 5.13a4 4 0 01-2.93 4.09 4.46 4.46 0 013.41 4.51c0 4.27-3.79 6.24-8.11 6.24-4.13 0-7.56-1.92-7.9-6.84h4.51c.05.91.22 3.24 3.44 3.24.45 0 3.55-.07 3.55-2.69 0-1.54-1.08-2.71-3.43-2.71zm38.98-7.3c-5.93-.1-11.07 5.23-11.07 9.12 0 2.79 3.53 4.15 6.79 4.23a33.13 33.13 0 00-1.8 4.36c-1.94-.52-8.83-2.44-8.83-8.18a10.92 10.92 0 014.42-8.26 67.33 67.33 0 00-9.89 1.51l-.55-4.51a78.07 78.07 0 0010.68-.55 57.45 57.45 0 009.63-1.75zm-4 3.41a15 15 0 012.24 2.57c-.68.48-1 .74-1.85 1.44a20.26 20.26 0 00-2.14-2.72zm2.52-1.71a15.59 15.59 0 012.14 2.53 22.44 22.44 0 00-1.75 1.48 18.14 18.14 0 00-2.14-2.71zm10.16-4.24c.2.07.32.16.32.33s-.46.34-.68.36a33.17 33.17 0 00-1.44 9.24 17.14 17.14 0 00.17 2.4c.31-.45.82-1.22 1.13-1.7a10 10 0 001.73 2.38 10.57 10.57 0 00-2 5.88l-3.22.6a33.73 33.73 0 01-1.3-9.68 43.47 43.47 0 011.44-11zm11.4-.53c.12 0 .32 0 .32.26s-.34.36-.56.39c-.07.52-.16 1.2-.24 2.88a22 22 0 003.56-.89v3.62c-.55.15-1.66.41-3.65.77a39.45 39.45 0 00.38 5.52 13.47 13.47 0 014.56 2.47c-.38.7-1.1 2.26-1.63 3.39a8.54 8.54 0 00-2.57-1.83c-.09 3.08-3.17 3.44-4.68 3.44-3.6 0-5.4-2-5.4-4.2 0-2.86 2.83-3.94 5.95-3.87-.19-2.73-.21-3.05-.26-4.44-1.37.12-2.35.12-2.76.12a17.38 17.38 0 01-1.78-.07v-3.77a25.68 25.68 0 004.52.17V5.56zm-5 14.88c-.53 0-1.68.17-1.68.91s.79.89 1.56.89c.19 0 1.63 0 1.63-1.18a.63.63 0 00-.05-.31 3.41 3.41 0 00-1.42-.31zm16.36 5.35a19.49 19.49 0 00-4.88-4.13l2.33-2.56a30.76 30.76 0 015.26 4zM27.75 44.65v-2.93H29c.46 0 3.32-.26 3.32-2.35s-2.14-2-2.86-2c-1.85 0-3.15.28-3.19 2.37h-4.54c.53-4.51 3.69-6.07 7.85-6.07 4.49 0 7.05 2.06 7.05 5.13a4.05 4.05 0 01-2.92 4.09 4.47 4.47 0 013.4 4.51c0 4.27-3.79 6.24-8.11 6.24-4.13 0-7.56-1.92-7.9-6.84h4.52c0 .91.21 3.24 3.43 3.24.45 0 3.55-.07 3.55-2.69 0-1.54-1.08-2.71-3.43-2.71zm17.09-6.96a18.81 18.81 0 003-.58c6.77-1.78 8.4-2.18 11-2.18 5.76 0 8.28 3.81 8.28 8 0 9.05-10.93 9.72-14.79 9.91A16.08 16.08 0 0051.18 49c4.32 0 12-.12 12-6a4.28 4.28 0 00-4.68-4.59c-3.58 0-9.51 2.43-12.1 3.89zm35.69 13.13a7.67 7.67 0 006.74-7.49 5.68 5.68 0 00-5.54-5.88c-.75 8.78-4.37 15.33-6.91 15.33-1.88 0-5.36-3.16-5.36-7.6A11.79 11.79 0 0181.23 34c5.25 0 9.84 3.58 9.84 9.31a11.18 11.18 0 01-2.84 7.42A13.26 13.26 0 0183 54.2a15.32 15.32 0 00-2.47-3.38zM73 44.89c0 1.85 1 3.24 1.53 3.24s1-1.08 1.3-1.71a21.08 21.08 0 001.85-8.25C74.91 39.2 73 42.73 73 44.89zm37.77-6.19c.12.07.34.23.34.43s-.12.24-.39.24a2.42 2.42 0 01-.33 0 17.17 17.17 0 01-2.19 2.3 4.1 4.1 0 002.93 1.33 6 6 0 01-.72 2.4 3 3 0 01-2.31 1.25H102a2.39 2.39 0 01-1.36-.38 20.17 20.17 0 01-5.57 1.68A10.13 10.13 0 0092.89 45a25.13 25.13 0 006.74-1.44v-2.9a15.21 15.21 0 01-3.55 3.84 4.16 4.16 0 00-2.5-1.84 11.15 11.15 0 002.64-2.45h-3v-5.74h9v-1.9l3.89.08c.31 0 .46.14.46.31s-.2.31-.43.45v1.06h8.88v5.64H113a21.55 21.55 0 012.52 3.12 16.66 16.66 0 00-2.66 1.83 21.3 21.3 0 00-3.12-3.89l1.92-1.54v-2.38h-3.19zm-8.31 12.48V47l3.48.09c.32 0 .44.17.44.31s-.17.29-.44.53v3.27H110v-3.67l3.45.17c.19 0 .53 0 .53.36 0 .16-.1.26-.36.45v6.34H110v-.77H98.34v.77h-3.53V48.1l3.53.12a.38.38 0 01.38.36c0 .24-.17.34-.38.44v2.16zm-.33-11.81c-.7-.48-1-.65-1.35-.87l1.22-1.25h-5.2v2.14c.1-.17.14-.29.36-.67l2.47 1.15v-.58zm2-2.12a17.09 17.09 0 011.82 1.37 18.46 18.46 0 00-1.95 2.26 12.76 12.76 0 00-1-.89v2.11a17.9 17.9 0 005-4.85zm2.4 6.65c1.42 0 1.47-.65 1.56-2.16a18.26 18.26 0 01-2.59 2.16zm23.22-10.56c.15 0 .48.1.48.43s-.43.36-.6.36l-.55 1.18a26.1 26.1 0 005-1.13v3.55c-3.58.63-4 .7-6.84 1l-.94 1.65a4.57 4.57 0 012.09-.48 4.24 4.24 0 013.51 2c3.55-1.7 4-1.87 4.84-2.37l1.42 3.84a57.08 57.08 0 00-5.47 1.94c.05.7.07 1.44.07 2.16 0 1.08 0 1.75-.07 2.4-.77-.05-1.64-.05-2.4-.05a10.36 10.36 0 00-1.4.05 19.39 19.39 0 00.17-2.73c-1.49.91-3 1.92-3 2.9s2.45 1.15 3.68 1.15a27.14 27.14 0 007.68-1.17 14.86 14.86 0 00-.46 3.81 29.44 29.44 0 01-6.7.7c-1.6 0-7.85 0-7.85-4.25 0-2.83 3.82-5.21 6.44-6.58a1.76 1.76 0 00-1.8-1.2c-2.5 0-4.18 2.69-5.5 4.83l-3.34-1.9a50.51 50.51 0 004.88-6.46c-1.3.05-2.36.05-3.39 0v-3.48c.74.07 2.13.19 3.76.19h1.37a17.46 17.46 0 001.27-3.15zm25.64 8.48v8.88h-3.63v.48h-2.45v-3a7.5 7.5 0 01-.77 1.87 8.22 8.22 0 00-2-1.47 2.4 2.4 0 00.32 1.66c1 1.54 3.33 1.54 7.94 1.54a62.32 62.32 0 009.29-.46 9.74 9.74 0 00-.84 3.24H151.5a8.74 8.74 0 01-6.39-2.3L143 54c.05.19.07.63-.36.63-.12 0-.24-.15-.31-.27l-1.8-3.07a14.55 14.55 0 002.71-1.63v-4.9h-2.06v-3h5.37V47a21.75 21.75 0 001-6.07v-7.49h7.64v7h-4.66c-.05.79-.05 1-.07 1.37zm-12.2-8.69a37.41 37.41 0 013.94 3.38A19 19 0 00144.7 39a34.25 34.25 0 00-3.91-3.53zm7.3 3.12v1.63h1.89v-1.63zm1.27 8.23v3.43h1.15v-3.43zm10.8-6.79c.17 0 .41.12.41.31s-.31.33-.55.43a36 36 0 01-.55 1.66h1.51v2.81H161v1.51h2.09v2.93H161v3.6h-3.07v-3.6h-2v-2.93h2V42.9h-2.4v-2.81h1.3a12.48 12.48 0 00-.7-2.26l1.37-.29h-1.85v-2.71h2.28v-2.06H161c.29 0 .36.16.36.31a.75.75 0 01-.36.53v1.22h2.09v2.71h-1.25zm-3.17 2.4c.1-.24.56-1.73.75-2.55h-1.78a16.86 16.86 0 01.64 2.26l-1.22.29zm12.07-5.55c.29.07.41.12.41.29s-.41.36-.57.38a25.51 25.51 0 00-1.3 8.72 13.13 13.13 0 00.4 3.6c.17-.39.92-2.14 1.08-2.5a15.75 15.75 0 002.52 1.75 20.52 20.52 0 00-2.55 6.84l-3.12.46c-1.51-3.17-2-8.09-2-11a36 36 0 011.28-9.58zm11.48-1c.45 0 .64 0 .64.29s-.26.31-.43.33v4.32a20.77 20.77 0 003.55-1.08 26.85 26.85 0 00.05 3.7 20.39 20.39 0 01-3.6 1c0 6.31-.53 9-4.35 12.86a10.07 10.07 0 00-3.14-2.61c3.53-2.62 3.81-6 3.81-9.72a41.21 41.21 0 01-5 .26L174.2 39a11.69 11.69 0 002.55.22c.23 0 1.19 0 2.68-.12-.05-.75-.26-3.67-.6-5.88zm23.37 2.25a59.82 59.82 0 00-5.88 5.35 13.49 13.49 0 012.88-.36c3.27 0 6.63 2.07 6.63 6.32 0 5.28-5 7.58-9.17 7.58-3.1 0-6.1-1.22-6.1-4.13 0-2.37 2.21-3.84 4.71-3.84 2.25 0 4.61 1.27 5.16 3.53a3.17 3.17 0 001.58-2.83c0-.58-.19-3.51-3.91-3.51-4.06 0-6.36 2.38-9.7 5.86L189.63 47a63.92 63.92 0 009.72-9.33 54.09 54.09 0 01-6.38.84l-.58-3.77c.94 0 7.87.09 12-1.52zm-7.22 13.92c-.82 0-1 .46-1 .87 0 .91 1.34 1.27 2.16 1.27a4.07 4.07 0 001.2-.19 2.35 2.35 0 00-2.36-1.95zm25.51-15.82c.22 0 .48.15.48.39s-.33.31-.53.31c-.09.38-.5 2.09-.6 2.42a15 15 0 004-1.17l.4 3.77a32.17 32.17 0 01-5.42 1.13 58.06 58.06 0 01-6.29 14A24.81 24.81 0 00213 53a39.3 39.3 0 005.93-11.64c-1.47.12-1.76.12-4.4.15l-.31-3.94c.72 0 1.56.1 2.79.1 1.08 0 1.8 0 2.85-.1.34-1.8.51-3.36.65-4.54zm1.8 14.45a2.38 2.38 0 00-.65 1.42.64.64 0 00.43.62 8.8 8.8 0 003.22.41 17.41 17.41 0 005.28-.79 10.53 10.53 0 00-.17 1.87 16.43 16.43 0 00.15 2 28.9 28.9 0 01-5 .41c-3.15 0-7.32-.45-7.32-3.86a6.5 6.5 0 01.93-3.15zm-1.13-6.79a30.92 30.92 0 015.31-.43 17.82 17.82 0 013.53.26c-.15 1.78-.17 2.16-.2 3.77a14 14 0 00-3.6-.43 45.74 45.74 0 00-5 .43zm18-7.01a21.14 21.14 0 00.55 3.94 11.46 11.46 0 014.32-1.39 22.32 22.32 0 00.36-4.09l4.06.93c.29.08.46.17.46.36 0 .34-.39.32-.51.32s-.45 2.16-.52 2.52a7.78 7.78 0 016.91 8.06c0 6.84-6.44 8.88-9.22 9.31a11.36 11.36 0 00-2.11-3.14A11 11 0 00252 50a5.16 5.16 0 003.12-5 4.24 4.24 0 00-4-4.56 23 23 0 01-3.07 7.08c.26.34.46.6 1.1 1.35a17.69 17.69 0 00-3 2.76c-.34-.48-.48-.7-.7-1.06-2.26 2.06-3.67 2.18-4.49 2.18-2.11 0-3.57-1.53-3.57-4.12a11.65 11.65 0 013.4-7.85 51.1 51.1 0 01-1.44-5zm-1.13 9.77a7.76 7.76 0 00-1.39 3.94c0 .17 0 .84.7.84s1.61-1 2.21-1.59c-.89-1.75-1.32-2.71-1.52-3.19zm2.72-2.59a20.67 20.67 0 001.14 2.52 14.55 14.55 0 001.44-3.65 9.1 9.1 0 00-2.58 1.13zm22.58-6.94c.46.17.65.24.65.41s-.48.26-.65.29a27.88 27.88 0 00-1.56 9.91 8.29 8.29 0 00.17 1.92c.14-.26.72-1.32 1-1.8a7 7 0 001.84 2 13.54 13.54 0 00-1.58 5.74l-3.41.91a25.45 25.45 0 01-1.7-9.6 45.75 45.75 0 011.53-11.14zm6.34 11.28a6.34 6.34 0 00-.36 1.71c0 1 .57 1.22 3.33 1.22a24.07 24.07 0 005.93-.65 16.11 16.11 0 00-.36 3.92 50.88 50.88 0 01-6.07.31c-3.58 0-6.34-.63-6.34-3.55a8.9 8.9 0 01.79-3.53zm-2.91-10.25c.72 0 1.68.12 3.12.12a28.35 28.35 0 007.06-.76 34.05 34.05 0 00.34 3.64 35 35 0 01-7.4.73c-1.41 0-2.35-.08-3.12-.12zm13.92 13.37l2.33-.72V33.25l4 .31a.44.44 0 01.43.41c0 .33-.45.48-.6.52v12.75c1.54-.5 4.61-1.63 6-2.21a10.81 10.81 0 00-.14 1.75 9.41 9.41 0 00.14 1.71c-4.18 1.75-9.17 3.55-9.84 3.79-.19.34-.34.58-.55.58s-.31-.22-.39-.36zM306 33.41a.34.34 0 01.38.36c0 .34-.33.46-.55.53 0 7.35-.93 11-2.06 13.28a19.49 19.49 0 013.81 4.34 26.33 26.33 0 00-2.76 2.66 19.66 19.66 0 00-3.09-4 13.81 13.81 0 01-7.48 4.42 9.59 9.59 0 00-2.25-3 11.45 11.45 0 007.05-3.79c1-1.16 3.05-3.56 3.05-11.55a30.52 30.52 0 00-.17-3.38zm-10.2.39a22.87 22.87 0 014.2 5.42 21.74 21.74 0 00-3.19 2.14 20.75 20.75 0 00-4-5.38zm25.47 4.97c1.18.74 2.74 1.75 3.44 2.3 3.5 2.81 3.86 3.1 4.58 3.94a29.35 29.35 0 00-2.79 3.09 24.26 24.26 0 00-5.23-4.85v11.69h-3.84V37.23h-8.09v-3.5h22v3.5h-10zm23.26 12.05a7.67 7.67 0 006.74-7.49 5.68 5.68 0 00-5.54-5.88c-.75 8.78-4.37 15.33-6.91 15.33-1.88 0-5.36-3.16-5.36-7.6A11.78 11.78 0 01345.22 34c5.26 0 9.85 3.58 9.85 9.31a11.18 11.18 0 01-2.84 7.42A13.26 13.26 0 01347 54.2a15.32 15.32 0 00-2.47-3.38zM337 44.89c0 1.85 1 3.24 1.53 3.24s1-1.08 1.3-1.71a21.08 21.08 0 001.85-8.25c-2.77 1.03-4.68 4.56-4.68 6.72zM373.93 39v-6l3.67.19c.39 0 .55.12.55.29s-.31.36-.6.46V39h2.21v3.19h-2.21v9.22c0 3.12-1.41 3.46-5.47 3.46a7 7 0 00-1.66-3.87 20.44 20.44 0 002.65.29c.67 0 .86-.24.86-1.37v-7.7h-4.75v-2.9h-1.3a27.35 27.35 0 01-2.23 7.22 49.58 49.58 0 012.93 5.16 24.72 24.72 0 00-3.39 1.83 32.88 32.88 0 00-1.44-3.6 20.23 20.23 0 01-4.51 5 6 6 0 00-3-2.13 18 18 0 005.38-6 28.44 28.44 0 00-4.18-4.73l2.67-1.85a23.66 23.66 0 013.14 3.34 20.56 20.56 0 001.25-4.25h-7.3v-3h4.39v-3.45l3.87.19c.12 0 .43 0 .43.29s-.29.39-.43.43v2.5h4.05V39zm-3.51 4.13a18.43 18.43 0 012.58 4.54c-.34.17-2.16 1.18-3.24 1.75a22.87 22.87 0 00-2.23-4.58zm24.05-5.83a12.5 12.5 0 01-.89 1.2 13.1 13.1 0 00-3-1l.15-.17h-1.63a13.76 13.76 0 01.6 1.49 15.29 15.29 0 00-3.34.5 17.66 17.66 0 00-.72-2h-.79c-.67.89-1 1.3-1.37 1.68a13.25 13.25 0 00-3-1.13 16.83 16.83 0 003.39-5.16l3.24.63a.32.32 0 01.31.29c0 .26-.26.4-.6.45-.07.12-.14.27-.22.41h5V36a19.72 19.72 0 001.49-3.38l3.41.62a.36.36 0 01.33.36c0 .22-.24.36-.62.34l-.22.5h6.7v2.86h-3.62a13.41 13.41 0 01.69 1.47 19.17 19.17 0 00-3.58.45 12 12 0 00-.81-1.92zm-.6 17.7h-3.29v-5.38a29.68 29.68 0 01-7.22 5.11 10.25 10.25 0 00-2.66-2.52 18 18 0 005.16-2.57h-3.15v-6.41h7.87v-.91h-9.45v-2.86h9.45v-1.37l3.46.53a.37.37 0 01.36.34c0 .24-.24.31-.53.43v.07h9.24v2.86h-9.24v.91h7.95v4.54c0 1.73-1.75 2.06-2.71 2.21a21.1 21.1 0 004.44 2.11 6.39 6.39 0 00-2.69 2.61 22.5 22.5 0 01-7-5.18zm-7.77-5.52a22.38 22.38 0 003.72-3.48h-3.72zm8.71-3.48a16.55 16.55 0 002.86 2.95 7.71 7.71 0 00-1-2c.17 0 1 .12 1.2.12.34 0 .48-.12.48-.46V46zm22.94-12.66c.15 0 .48.1.48.43s-.43.36-.6.36l-.55 1.18a26.1 26.1 0 005-1.13v3.55c-3.58.63-4 .7-6.84 1l-.94 1.65a4.57 4.57 0 012.09-.48 4.24 4.24 0 013.51 2c3.55-1.7 4-1.87 4.84-2.37l1.42 3.84a56.08 56.08 0 00-5.47 1.94c0 .7.07 1.44.07 2.16 0 1.08-.05 1.75-.07 2.4-.77-.05-1.64-.05-2.4-.05a10.36 10.36 0 00-1.4.05 19.39 19.39 0 00.17-2.73c-1.49.91-3 1.92-3 2.9s2.45 1.15 3.68 1.15a27.19 27.19 0 007.68-1.17 14.86 14.86 0 00-.46 3.81 29.44 29.44 0 01-6.7.7c-1.6 0-7.85 0-7.85-4.25 0-2.83 3.82-5.21 6.44-6.58a1.76 1.76 0 00-1.8-1.2c-2.5 0-4.18 2.69-5.5 4.83l-3.34-1.9a50.51 50.51 0 004.88-6.46c-1.3.05-2.36.05-3.39 0v-3.48c.74.07 2.13.19 3.76.19h1.37a17.46 17.46 0 001.27-3.15zm17.11 1.97c.22.07.48.14.48.36s-.28.36-.5.38a21.67 21.67 0 00-1.34 7.23c0 2.93.91 5 1.6 5s1.68-2.11 2.33-3.63a11 11 0 002.57 2.52c-1.92 4.65-4.1 6.29-5.28 6.29-1.34 0-4.89-2.86-4.89-10.28a42.61 42.61 0 011.17-9zm11.6.17a23.94 23.94 0 014.85 12.07c-1.42.55-3.12 1.37-3.92 1.78a21.76 21.76 0 00-4-11.88zm18.14-1.59c.22 0 .48.15.48.39s-.33.31-.53.31c-.09.38-.5 2.09-.6 2.42a15 15 0 004-1.17l.4 3.77a32.17 32.17 0 01-5.42 1.13 58.06 58.06 0 01-6.29 14A24.81 24.81 0 00453 53a39.3 39.3 0 005.93-11.64c-1.47.12-1.76.12-4.4.15l-.31-3.94c.72 0 1.56.1 2.79.1s1.8 0 2.85-.1c.34-1.8.51-3.36.65-4.54zm1.8 14.45a2.38 2.38 0 00-.65 1.42.64.64 0 00.43.62 8.8 8.8 0 003.22.41 17.41 17.41 0 005.28-.79 10.53 10.53 0 00-.17 1.87 16.43 16.43 0 00.15 2 28.9 28.9 0 01-5 .41c-3.15 0-7.32-.45-7.32-3.86a6.5 6.5 0 01.93-3.15zm-1.13-6.79a30.92 30.92 0 015.31-.43 17.82 17.82 0 013.53.26c-.15 1.78-.17 2.16-.2 3.77a14 14 0 00-3.6-.43 45.74 45.74 0 00-5 .43zm20.43-7.66c.36 0 .55.08.55.34s-.17.29-.46.41a53.14 53.14 0 00-.77 9.53c0 5.45.53 6.45 2.38 6.45 4.1 0 7.73-5.54 8.38-6.88a24.48 24.48 0 002.78 3.14c-2.73 4.44-6.81 7.78-11.66 7.78-5.33 0-5.76-4.52-5.76-10.52 0-1.39.24-7.46.24-8.69 0-.69 0-1.51-.05-2.2zm28.92-.19c.21 0 .43.07.43.31s-.26.32-.43.34c-.1.94-.1 1.15-.12 1.42 1.1 0 4.82-.08 6.62.14v3.58a57.35 57.35 0 00-6.74-.22v2.64a31.32 31.32 0 006.09-1.13v3.58a46.24 46.24 0 01-6 .79v2.14a23.71 23.71 0 018 3.17 37.76 37.76 0 00-2.67 3 19.32 19.32 0 00-5.13-3c0 1.25.21 4.08-5 4.08-3.72 0-6.44-1.7-6.44-3.89 0-2.73 3.44-3.91 7.44-3.84V45.4c-2.38.05-6.72.12-6.72-2.26 0-.84.43-1.61 1.68-2.9l2.64.6c-.43.57-.5.65-.5.81s0 .67 2.8.55v-2.75c-2.95.12-5.54.45-7.54.71v-3.82c1.18-.12 6.44-.36 7.52-.43 0-.91 0-1.85-.1-2.95zm-5 15.84c-.12 0-2.43 0-2.43 1 0 .79 1.32.86 1.73.86 1.18 0 1.9-.43 1.75-1.75a5 5 0 00-1.02-.11zm29.14-16.2c.39 0 .6.07.6.27s-.29.36-.48.4c0 .44-.07.72-.12 1.68 6.77-.28 7.51-.31 8-.36 0 .51-.07 2.88 0 3.87-4.34-.22-6.17-.22-7.92-.19a20 20 0 000 2.66 7.88 7.88 0 011.39 4.61 11.33 11.33 0 01-5.57 9.26 16.18 16.18 0 00-3.5-2.47c.72-.29 3.55-1.49 4.41-3.45a2.7 2.7 0 01-1.89.57 3.22 3.22 0 01-2.6-1.08 6 6 0 01-1-3.55c0-5.28 4.51-5.11 5-5v-1.35a65.74 65.74 0 00-9.57 1.25l-.27-4.05c.55 0 1.47 0 9.75-.51a25.26 25.26 0 00-.34-3zm-5.54 12c0 1.59.79 2 1.22 2 .74 0 1.18-1.1 1.18-2.3 0-.56-.12-1.49-1.08-1.49-.79.02-1.32.81-1.32 1.79zm23.25 5.76a3.39 3.39 0 11-3.38-3.38 3.4 3.4 0 013.38 3.38zm-5.28 0a1.9 1.9 0 101.9-1.89 1.89 1.89 0 00-1.9 1.89zM0 0h10v60H0z" fill="#ffa000" data-name="レイヤー 2"/></svg>