<svg xmlns="http://www.w3.org/2000/svg" width="560" height="61.5"><path d="M0 56.5h560v5H0zm21.63-31.04A26.44 26.44 0 0126 30.92c-.63.38-3.44 2.1-4.28 2.73a25.08 25.08 0 00-3-4.92c-.08.42-.5.51-.88.59v3.36c0 1.64.67 1.89 2.44 1.89h3.57c1 0 2.52 0 3.48-4.62a9.7 9.7 0 005 3.07c-1 3.23-1.26 4.37-2.73 5.42-.5.37-1.17.71-3.23.71h-9.65c-4.12 0-4.62-1.76-4.62-4.33v-4c-.3.3-1 .21-1.43.17a37.17 37.17 0 01-4.62 8.57 16.61 16.61 0 00-4.75-3.27c.93-1 2.73-3.19 4.58-8.57A17.28 17.28 0 001 25.37c3.27-5.88 3.27-9.7 3.27-14.7V4.92H22.1c-.17-2-.17-3-.21-4.08l6 .46c.34 0 .72.09.72.46s-.46.72-1.14 1c0 .67 0 1.18.13 2.15H31a15.06 15.06 0 00-2-2.19L32.93 0a30.61 30.61 0 013.87 4.33c-.51.29-.67.42-.93.59h4.33V10h-8.36l5.8 2.31a.61.61 0 01.38.55c0 .54-.51.63-1.26.71a52.92 52.92 0 01-3.95 6.81 3.34 3.34 0 001.76 1c1 0 1.35-1.94 1.51-3.24a10.43 10.43 0 004.54 3.24c-.29 2.64-1.51 5.16-2.56 5.92a3.63 3.63 0 01-2.27.67 34.06 34.06 0 015.08 7.35 14.84 14.84 0 00-2.56 1.35c-2.06 1.38-2.31 1.51-2.73 1.8a29.46 29.46 0 00-5.08-8.19l4.16-2.52a10.28 10.28 0 01-5.09-3.32 34 34 0 01-3.95 3.74A13.93 13.93 0 0021 24.53h.09-6.22v1.3H10V16h12.14v7.77a34.83 34.83 0 004-3.82A31.26 31.26 0 0122.77 10h-13c.08 3.19-.13 11.05-3.37 17.22l5.17 2.4a1.83 1.83 0 01.55.33v-2.31l5.71.55h.5a1.22 1.22 0 00-.25-.29zm.84-14.37v3.74H10.38v-3.74zm-7.6 8.28V21h2.94v-1.63zM28.27 10a31.49 31.49 0 001.39 5 23.3 23.3 0 002-5zM64 32.6a43.59 43.59 0 01-12.06 6.93 16.22 16.22 0 00-4.32-4.66 35.88 35.88 0 0012-6.18h-11.4v-5.17h3.06c-.08-.08-.17-.25-.21-.29L48 18.69a85.38 85.38 0 0011.09-7.31 17.61 17.61 0 002.15 4.33c-2.31 1.93-5 4.08-8.87 6.81a1.8 1.8 0 010 1H64v-1.59a21.85 21.85 0 01-2.44 1.17 15.62 15.62 0 00-4-4c4.29-1.89 7.9-3.9 8.74-8.69l-6 .08-.08-5.63 6.55-.08V1.33l6 .38c.84 0 1.1.09 1.1.42s-.72.72-1.1.84c0 .25-.08 1.39-.08 1.72l7.56-.08-.33 11.17c0 .72.25.76.67.76 1 0 1.38-.21 1.72-3.86a12.48 12.48 0 005.25 2.1C86.82 22 84.55 22 82.07 22H78c-3 0-4-1.43-3.95-4.2l.25-7.48h-2.1a15.15 15.15 0 01-5.63 9.92l4 .21c.34 0 1.09 0 1.09.54s-.29.55-1.09 1v1.51h15.7v5.17H75.52a43.15 43.15 0 0011.34 5.8 20.47 20.47 0 00-3.74 5 43.36 43.36 0 01-12.6-7.86v7.86H64zm-13.23-26A37.35 37.35 0 0157 9.62 40.19 40.19 0 0054.1 14a26.45 26.45 0 00-6.1-3zM53.93.34a32.61 32.61 0 016.13 3.19c-1.64 2.35-1.85 2.6-2.94 4.41a25.41 25.41 0 00-6-3.28zm78.54 4.49v5.25H105v6.76a49.22 49.22 0 01-1 12.4 26.19 26.19 0 01-4.58 10.37 16.37 16.37 0 00-5.25-2.77 24.4 24.4 0 004.92-12.6l-2.73 1.64c-.09.25-.3.71-.76.71s-.59-.5-.67-.71l-1.55-5.13a58.13 58.13 0 006-2.48v-3.11a16.61 16.61 0 00-2.85 1.64 21.9 21.9 0 00-3.19-6l4.45-2.69c.63 1 1 1.55 1.59 2.56V4.83H112V1l6.68.21c.37 0 .63.17.63.38 0 .37-.38.67-.89 1v2.24zm0 28.48v5.42h-29.32v-5.42h3.53V19.66l5.34.25c.21 0 1 0 1 .51 0 .29-.21.42-.5.58v12.31h2.69V17.73H106v-5.38h25.29v5.38h-10v4.16h8.65v5.62h-8.65v5.8zM169.6 11.8V1.22l6.43.33c.67.05 1 .21 1 .51 0 .46-.54.63-1.05.8v8.94h3.87v5.59h-3.87v16.13c0 5.46-2.47 6-9.57 6a12.26 12.26 0 00-2.9-6.8 35.05 35.05 0 004.62.5c1.18 0 1.51-.42 1.51-2.39V17.39h-8.32v-5.08H159A48.32 48.32 0 01155.11 25a83.77 83.77 0 015.12 9 43.19 43.19 0 00-5.92 3.2 60.28 60.28 0 00-2.52-6.3c-3.86 5.58-6.39 7.6-7.9 8.77a10.6 10.6 0 00-5.21-3.73c3.95-2.57 7-6.43 9.41-10.51a50.22 50.22 0 00-7.31-8.27l4.67-3.24a41.43 41.43 0 015.5 5.84 36 36 0 002.18-7.43h-12.81V7H148V1l6.76.33c.21 0 .76 0 .76.51s-.51.67-.76.75V7h7.1v4.8zm-6.13 7.2a33 33 0 014.45 7.9c-.59.29-3.78 2.05-5.67 3.06a39.24 39.24 0 00-3.91-8zm46.28-10.22a25.22 25.22 0 01-1.55 2.1 23.91 23.91 0 00-5.2-1.81c.08-.08.16-.21.25-.29h-2.86a21.57 21.57 0 011 2.6 26.27 26.27 0 00-5.84.89 30.24 30.24 0 00-1.26-3.49h-1.38a46.204 46.204 0 01-2.4 2.94 22.76 22.76 0 00-5.21-2 29.8 29.8 0 005.93-9l5.67 1.1a.58.58 0 01.54.5c0 .46-.46.71-1.05.8-.12.21-.25.46-.37.71h8.77v2.72A33.93 33.93 0 00207.4.63l6 1.09a.63.63 0 01.59.63c0 .38-.42.63-1.09.59l-.38.88h11.68v5h-6.34a26.87 26.87 0 011.22 2.56 34.67 34.67 0 00-6.26.8 22.48 22.48 0 00-1.43-3.36zm-1.05 31H203v-9.45a51.72 51.72 0 01-12.65 9 17.71 17.71 0 00-4.66-4.41 31.66 31.66 0 009-4.5h-5.5V19.16H203v-1.6h-16.6v-5H203v-2.39l6.05.92a.64.64 0 01.63.59c0 .42-.42.54-.93.75v.13h16.17v5H208.7v1.6h13.91v7.93c0 3-3.07 3.62-4.75 3.87a36.85 36.85 0 007.77 3.7c-2.44 1.55-3.19 2.1-4.7 4.57a39.41 39.41 0 01-12.23-9.07zm-13.61-9.66A39.14 39.14 0 00201.6 24h-6.51zM210.34 24a29.63 29.63 0 005 5.16 13.19 13.19 0 00-1.72-3.44c.29 0 1.76.21 2.1.21.58 0 .84-.21.84-.8V24zm33.3-19.63c.8.29 1.14.42 1.14.71s-.84.46-1.14.51a48.77 48.77 0 00-2.73 17.35 14.6 14.6 0 00.3 3.36c.25-.47 1.26-2.31 1.76-3.15a12.16 12.16 0 003.24 3.44c-1.05 2-3 6.85-2.78 10l-6 1.6a44.27 44.27 0 01-3-16.81c0-7.6 1.17-12.81 2.68-19.49zm11.09 19.74a11.53 11.53 0 00-.63 3c0 1.85 1 2.15 5.84 2.15a42.65 42.65 0 0010.38-1.14 27.73 27.73 0 00-.63 6.85 89.24 89.24 0 01-10.63.55c-6.26 0-11.09-1.1-11.09-6.22a15.55 15.55 0 011.39-6.18zm-5.08-17.94c1.26.09 2.94.22 5.46.22A48.49 48.49 0 00267.46 5a62.4 62.4 0 00.59 6.39 63 63 0 01-12.94 1.26c-2.48 0-4.11-.13-5.46-.21zm28.64 3.28a33.56 33.56 0 005.29-1c11.85-3.11 14.71-3.82 19.33-3.82 10.08 0 14.49 6.68 14.49 14.07 0 15.84-19.11 17-25.88 17.35a27.75 27.75 0 00-2.14-6.72c7.56 0 20.92-.21 20.92-10.54 0-2.19-.76-8-8.19-8-6.26 0-16.64 4.25-21.17 6.81zM335 5.29c.37.13.84.25.84.63 0 .55-.51.63-.89.68a37.62 37.62 0 00-2.35 12.64c0 5.12 1.6 8.7 2.82 8.7s2.94-3.7 4.07-6.35a19.21 19.21 0 004.45 4.41c-3.36 8.15-7.18 11-9.24 11-2.35 0-8.57-5-8.57-18a74.58 74.58 0 012.06-15.71zm20.29.3a41.84 41.84 0 018.48 21.13c-2.48 1-5.46 2.39-6.85 3.11a38.23 38.23 0 00-7-20.8zm54.05 3.02c-12-.12-19.16 10.42-19.16 15.88 0 7 9.5 7.48 11.72 7.6a37.44 37.44 0 00-3.15 7.56C391.4 37.93 383.29 34 383.29 25c0-7.72 5.8-12.56 7.44-13.9a142 142 0 00-17.35 2.48l-.88-7.9c.92 0 1.8.13 3.15.13 6.17 0 22.93-1.18 32.47-4.16z" fill="#ffa000" data-name="レイヤー 2"/></svg>