<svg xmlns="http://www.w3.org/2000/svg" width="632.76" height="53.7"><path d="M2.76 48.7h630v5h-630zm14.43-27.49a22.36 22.36 0 013.6 4.55c-.52.32-2.87 1.75-3.57 2.28a20.65 20.65 0 00-2.48-4.1c-.07.35-.42.42-.74.49v2.8c0 1.37.56 1.58 2 1.58h3c.84 0 2.1 0 2.9-3.85a8.06 8.06 0 004.17 2.55c-.81 2.7-1 3.64-2.28 4.52-.42.31-1 .59-2.69.59h-8c-3.43 0-3.85-1.47-3.85-3.6v-3.36c-.24.24-.87.17-1.19.14a30.87 30.87 0 01-3.86 7.14 13.77 13.77 0 00-4-2.7c.77-.87 2.28-2.66 3.82-7.14a14 14 0 00-4.06-2c2.73-4.9 2.73-8.08 2.73-12.25V4.1h14.88c-.14-1.68-.14-2.52-.17-3.4l5 .39c.28 0 .59.07.59.38s-.38.6-.94.84c0 .56 0 1 .1 1.79H25a12.61 12.61 0 00-1.64-1.82L26.6 0a25.3 25.3 0 013.22 3.61c-.42.24-.56.35-.77.49h3.61v4.27h-7l4.83 1.92a.52.52 0 01.32.46c0 .45-.42.52-1.05.59A44.2 44.2 0 0126.5 17a2.75 2.75 0 001.47.88c.8 0 1.12-1.61 1.26-2.7A8.66 8.66 0 0033 17.89c-.25 2.2-1.26 4.3-2.14 4.93a3 3 0 01-1.89.56 28.53 28.53 0 014.24 6.13 12.9 12.9 0 00-2.14 1.12c-1.71 1.15-1.92 1.26-2.27 1.5a24.46 24.46 0 00-4.24-6.82l3.44-2.1a8.53 8.53 0 01-4.24-2.77 29 29 0 01-3.29 3.12 11.76 11.76 0 00-3.88-3.12h.07-5.11v1.08H7.49V13.3h10.12v6.48A30.18 30.18 0 0021 16.59a26.27 26.27 0 01-2.84-8.22H7.28c.07 2.66-.1 9.2-2.8 14.35l4.31 2a1.51 1.51 0 01.45.28v-2l4.76.46h.42a1.71 1.71 0 00-.21-.24zm.7-12v3.12H7.81V9.24zm-6.34 6.9v1.39H14v-1.36zm11.17-7.74a26.93 26.93 0 001.15 4.2 19.42 19.42 0 001.68-4.2zm28.09 18.79a36.13 36.13 0 01-10 5.78 13.52 13.52 0 00-3.61-3.89 30 30 0 0010-5.14h-9.51V19.6h2.55c-.07-.07-.14-.21-.17-.24l-2.59-3.78a73.47 73.47 0 009.24-6.09 14.39 14.39 0 001.78 3.6c-1.92 1.61-4.13 3.4-7.38 5.67a1.61 1.61 0 010 .84h9.73v-1.33a17 17 0 01-2 1 12.83 12.83 0 00-3.29-3.32c3.57-1.58 6.58-3.26 7.28-7.25l-5 .07-.07-4.69L53.12 4V1.13l5 .32c.7 0 .91.07.91.35s-.59.59-.91.7C58 2.7 58 3.64 58 3.92l6.3-.07-.3 9.31c0 .6.21.63.56.63.84 0 1.16-.17 1.44-3.22a10.16 10.16 0 004.37 1.75c-.52 6-2.41 6-4.48 6h-3.42c-2.48 0-3.36-1.19-3.29-3.5l.21-6.23h-1.75A12.55 12.55 0 0153 16.87l3.32.18c.29 0 .92 0 .92.45s-.25.46-.92.84v1.26H69.4v4.31h-9a36.18 36.18 0 009.45 4.83 16.58 16.58 0 00-3.11 4.2 36.44 36.44 0 01-10.51-6.55v6.55h-5.42zm-11-21.7A30.64 30.64 0 0145 8a34.17 34.17 0 00-2.41 3.64 21.82 21.82 0 00-5.11-2.52zM42.45.28a28.28 28.28 0 015.11 2.66c-1.37 2-1.54 2.17-2.45 3.68a20.82 20.82 0 00-5-2.73zM106 4v4.4H83.17V14a41.13 41.13 0 01-.87 10.32A22 22 0 0178.48 33a13.53 13.53 0 00-4.37-2.31A20.34 20.34 0 0078.2 20.2l-2.27 1.36c-.07.21-.25.6-.63.6s-.49-.42-.56-.6l-1.3-4.27a50.33 50.33 0 005-2.06v-2.59A13.22 13.22 0 0076.1 14a18.06 18.06 0 00-2.66-5l3.71-2.24c.53.8.84 1.29 1.33 2.13V4H89V.84l5.55.16c.32 0 .53.14.53.31s-.32.56-.74.81V4zm0 23.73v4.51H81.6v-4.48h2.94V16.38l4.45.21c.17 0 .8 0 .8.42s-.17.35-.42.49v10.26h2.24v-13h-7.67v-4.47H105v4.48h-8.35v3.47h7.21v4.69h-7.21v4.83zm29.54-17.89V1l5.35.28c.56 0 .81.17.81.42s-.46.52-.88.66v7.48H144v4.65h-3.22v13.44c0 4.55-2.06 5-8 5a10.21 10.21 0 00-2.41-5.67 28.49 28.49 0 003.85.42c1 0 1.26-.35 1.26-2V14.49h-6.93v-4.23h-1.89a40.19 40.19 0 01-3.26 10.53 69 69 0 014.27 7.53 38.08 38.08 0 00-4.88 2.68 45.88 45.88 0 00-2.1-5.25 29.45 29.45 0 01-6.58 7.25 8.86 8.86 0 00-4.34-3.11 26.29 26.29 0 007.84-8.75 41.81 41.81 0 00-6.09-6.9l3.89-2.69a34.09 34.09 0 014.59 4.9 29.85 29.85 0 001.82-6.19h-10.68V5.81h6.4v-5l5.64.28c.17 0 .63 0 .63.42s-.42.56-.63.63v3.67h5.92v4zm-5.11 6a27.37 27.37 0 013.71 6.58c-.49.24-3.15 1.71-4.73 2.55a32.56 32.56 0 00-3.25-6.68zm36.97-8.52a21.59 21.59 0 01-1.3 1.75 19.27 19.27 0 00-4.37-1.51c.07-.07.14-.17.21-.24h-2.38a19.35 19.35 0 01.87 2.17 21.55 21.55 0 00-4.86.73 26 26 0 00-1-2.9h-1.16c-1 1.29-1.5 1.89-2 2.45A18.93 18.93 0 00147 8.12a24.81 24.81 0 005-7.52l4.73.91a.48.48 0 01.45.42c0 .38-.38.59-.87.66-.11.18-.21.39-.32.6h7.32v2.27a28.85 28.85 0 002.13-4.93l5 .91a.52.52 0 01.49.52c0 .32-.35.53-.91.49l-.32.74h9.77v4.13h-5.28a22.88 22.88 0 011 2.13 28.26 28.26 0 00-5.21.67 18.17 18.17 0 00-1.2-2.8zm-.88 25.79h-4.79v-7.84a43.07 43.07 0 01-10.54 7.46 14.88 14.88 0 00-3.88-3.68 26.15 26.15 0 007.52-3.74h-4.58V16h11.48v-1.37h-13.79v-4.16h13.79v-2l5 .77a.54.54 0 01.52.49c0 .35-.35.46-.77.63v.11H180v4.16h-13.48V16h11.59v6.62c0 2.52-2.55 3-4 3.22a30.14 30.14 0 006.47 3.08 9.35 9.35 0 00-3.92 3.81 32.91 32.91 0 01-10.19-7.56zm-11.34-8a32.4 32.4 0 005.43-5.11h-5.43zM167.89 20a24.55 24.55 0 004.17 4.3 11.37 11.37 0 00-1.44-2.87c.24 0 1.47.18 1.75.18.49 0 .7-.18.7-.67V20zm24.99-16.36c.67.25 1 .35 1 .6s-.7.38-1 .42a40.62 40.62 0 00-2.27 14.45 12.48 12.48 0 00.24 2.8c.21-.38 1.05-1.92 1.47-2.62a10.48 10.48 0 002.7 2.87c-.88 1.64-2.49 5.7-2.31 8.36l-5 1.33a36.85 36.85 0 01-2.49-14c0-6.33 1-10.67 2.24-16.24zm9.24 16.45a9.58 9.58 0 00-.52 2.49c0 1.54.84 1.78 4.86 1.78a35.87 35.87 0 008.65-.94 23.33 23.33 0 00-.53 5.7 74.19 74.19 0 01-8.85.46c-5.22 0-9.24-.91-9.24-5.18a13 13 0 011.15-5.15zm-4.23-14.94c1.05.07 2.45.17 4.55.17a40.4 40.4 0 0010.29-1.12 49.86 49.86 0 00.49 5.32 52.16 52.16 0 01-10.78 1.05c-2.07 0-3.43-.1-4.55-.17zm20.6 2.73A28.9 28.9 0 00222.9 7c9.87-2.59 12.25-3.19 16.1-3.19 8.4 0 12.08 5.57 12.08 11.73 0 13.19-15.93 14.17-21.57 14.45a23.46 23.46 0 00-1.78-5.6c6.3 0 17.43-.17 17.43-8.78 0-1.82-.63-6.69-6.83-6.69-5.21 0-13.86 3.54-17.64 5.67zm44.76-3.47c.31.11.7.21.7.53s-.42.52-.74.56a31.41 31.41 0 00-2 10.53c0 4.27 1.33 7.25 2.35 7.25S266.05 20.2 267 18a15.63 15.63 0 003.67 3.71c-2.8 6.79-6 9.17-7.7 9.17-2 0-7.14-4.16-7.14-15a62.84 62.84 0 011.71-13.08zm16.91.25a35 35 0 017.07 17.6c-2.07.81-4.55 2-5.71 2.59a31.84 31.84 0 00-5.88-17.32zm40.68 2.52c-10-.11-16 8.68-16 13.23 0 5.81 7.91 6.23 9.77 6.33A31.09 31.09 0 00312 33c-6.12-1.43-12.88-4.69-12.88-12.21 0-6.44 4.83-10.47 6.2-11.59a117.84 117.84 0 00-14.46 2.07l-.73-6.58c.77 0 1.5.1 2.62.1 5.15 0 19.11-1 27.06-3.46z" fill="#ffa000" data-name="レイヤー 2"/></svg>