<svg xmlns="http://www.w3.org/2000/svg" width="560" height="61.56" viewBox="0 0 560 61.56">
  <defs>
    <style>
      .cls-1 {
        fill: #ffa000;
      }
    </style>
  </defs>
  <g id="レイヤー_2" data-name="レイヤー 2">
    <g id="object">
      <g>
        <rect class="cls-1" y="56.56" width="560" height="5"/>
        <g>
          <path class="cls-1" d="M30.06,31.14v9.67H24.34V31.14H21c-.67,3.6-3.1,8.23-6.88,10.62a13,13,0,0,0-5-3.33v3.24H2.65V1.62H21.51V17.28H9.09v21.1c3.15-1.75,5.31-3.46,6.21-7.24H10.66v-5h5.22c0-.81,0-1.8,0-2.65H11.79V18.76H33.61v4.73H30.06v2.65h4.5v5ZM15.48,6.07H9.09V7.74h6.39Zm0,5.09H9.09v1.71h6.39Zm8.86,12.33H21.55c0,.54,0,2.25-.09,2.65h2.88ZM34,41.85a15.63,15.63,0,0,0-2.38-6.57,13.46,13.46,0,0,0,2.61.36c.85,0,1.8,0,1.8-1.58V17.28H23.49V1.62H42.43v35C42.43,40.81,39.87,41.89,34,41.85ZM36,6.07H29.52V7.74H36Zm0,5.09H29.52v1.71H36Z"/>
          <path class="cls-1" d="M83.2,21.51V23.4h7v4.54h-7v1.89h7v4.55h-7v1.84h9.09v4.91H71.64v.72H65.29V26.19L64.08,27.4a16.11,16.11,0,0,0-2.16-3.19V41.85H55.35V20.25c-.36.45-.86,1-1.22,1.48-1.62-2.56-2.38-3.37-4.59-4.63C51.61,14.62,56.7,8.23,59,0l6.3,2.12V1.4l6.39.22c.5,0,.68.27.68.63s-.36.67-1,1.08V7.65h3.37V.23l6.71.4c.45.05.67.27.67.58,0,.59-.67.77-1.08.86V7.65h3.78v-6l6.66.4c.54,0,.81.19.81.5,0,.54-.54.77-1.12,1v9H80.77l3.15,1.71a.85.85,0,0,1,.5.72c0,.5-.63.68-1.31.81-.18.32-.45.72-.72,1.13H92v4.59ZM61.92,20.7A41.47,41.47,0,0,0,68,12.55H65.29V3.46c-.13,0-.27.14-.4.19-.77,1.66-1.22,2.6-2.79,5.66.67.36.85.45.85.77s-.72.81-1,.94Zm9.72.81V23.4h5.22V21.51Zm0,6.43v1.89h5.22V27.94Zm5.22,8.28V34.38H71.64v1.84Zm-1.62-19.3a46.43,46.43,0,0,0,2.52-4.37H72.18l2.07,1c.36.18.63.36.63.72s-.5.67-1.31.76c-.49.81-.67,1.08-1.12,1.85Z"/>
          <path class="cls-1" d="M127.57,22.68V17h1V7.11h-.81V1.67h13.86V7.11h-1.53c-.09,4.23-.36,7.33-.63,9.85h2.39v5.72h-3.38c-.36,1.17-.45,1.48-.72,2.34.72,0,1.22.09,1.22.58s-.54.68-1,.86v8.19c0,.49,0,.72.45.72s.68-2.3.72-3.47a15.21,15.21,0,0,0,4.1,2.84c-.9,4.5-1.53,6.43-4.86,6.43h-1.85c-3.42,0-3.42-2-3.42-3.73V34.2a31,31,0,0,1-7.38,8.1,23.92,23.92,0,0,0-5.08-4.1,25.06,25.06,0,0,0,3.87-2.65c-.09-.41-.45-2-.54-2.34-5.49,4-6.12,4.45-7.79,5.49-.22.72-.36,1.08-.76,1.08-.23,0-.41-.14-.63-.81l-2-6c.76-.31,1-.45,2.56-1.12v-6.8c-.22.27-1.89,2.3-2.83,3.42a13.6,13.6,0,0,1-1.44-2.74V41.67h-5.49V30.55c-.59,1.62-.9,2.43-1.26,3.24a30.13,30.13,0,0,0-5-3.55,47,47,0,0,0,6.12-15.39h-4.1V8.77h4.19v-8l5.49.45c.4.05.85.14.85.49s-.31.5-.85.77V8.77h3.19v6.08h-2.92a35.06,35.06,0,0,0,4,7V1.67h11.34V21.15h-6.43v8.1c1.17-.68,1.66-1,2.2-1.35-.58-1.76-.94-2.61-1.3-3.51l5-1.94a55.36,55.36,0,0,1,3.1,7.83,28.5,28.5,0,0,0,3.78-7.6ZM122.22,9.54V6.75h-2V9.54Zm-2,4.18v2.66h2V13.72Zm12.82-6.61V17h1.26a78.36,78.36,0,0,0,.5-9.85Z"/>
          <path class="cls-1" d="M150.61,28.3V23h12.47c.4-.63.81-1.22,1.44-2.3H153.85V8.55h9.45V6.75H150.7v-5h40.64v5H178.6v1.8h9.54V20.74H172.66a.57.57,0,0,1,.18.36c0,.63-.85.72-1.12.77-.32.49-.45.72-.72,1.17h20.25V28.3h-7a.82.82,0,0,1,.18.41c0,.54-.54.72-1.84.81a32.41,32.41,0,0,1-3.06,3.33,56.05,56.05,0,0,1,10.3,4,19.52,19.52,0,0,0-4.23,5.49,54.59,54.59,0,0,0-11.43-5.45c-6.7,3.65-14.35,4.73-20.34,5a11.77,11.77,0,0,0-3-5.8,48.42,48.42,0,0,0,15.43-1.76c-.81-.22-1.62-.4-3.69-.9-.27.23-.63.63-1,1A24.47,24.47,0,0,0,155,31.81a40.61,40.61,0,0,0,3.83-3.51Zm12.69-15h-3.19v2.84h3.19Zm3.87,15c-.36.41-.85,1-1.3,1.53,1.48.23,5.67,1,6.93,1.26a14.3,14.3,0,0,0,2.79-2.79Zm5.4-21.55h-3.28v1.8h3.28Zm-3.28,9.36h3.28V13.27h-3.28Zm9.31,0h3.29V13.27H178.6Z"/>
        </g>
      </g>
    </g>
  </g>
</svg>
