<svg xmlns="http://www.w3.org/2000/svg" width="498" height="96" viewBox="0 0 498 96">
  <g id="txt_sns02" transform="translate(-671.755 -3335.755)">
    <g id="グループ_343" data-name="グループ 343" transform="translate(672 3336)">
      <rect id="長方形_2501" data-name="長方形 2501" width="498" height="96" rx="48" transform="translate(-0.245 -0.245)" fill="#0f1721"/>
      <path id="長方形_2502" data-name="長方形 2502" d="M40,3A37.011,37.011,0,0,0,25.6,74.094,36.766,36.766,0,0,0,40,77H439A37.011,37.011,0,0,0,453.4,5.906,36.765,36.765,0,0,0,439,3H40m0-3H439a40,40,0,0,1,0,80H40A40,40,0,0,1,40,0Z" transform="translate(9.755 7.755)" fill="#fdfdfd"/>
    </g>
    <path id="パス_1354" data-name="パス 1354" d="M-105.94.72h-7.16l-7.16-11.52L-127.54.72h-7.04l10.56-16-10.12-15.76h6.8l7.12,11.24,7.12-11.24h6.8L-116.46-15.6Zm19.36-34.04Q-94.7-24.56-94.7-15.2t8.12,18.12l-5.56,1.36a29.186,29.186,0,0,1-6.36-9.2,25.266,25.266,0,0,1-2.24-10.28,25.49,25.49,0,0,1,2.26-10.34,29.108,29.108,0,0,1,6.34-9.14ZM-49.06,2.2h-5.6V-.48h-10V2.2h-5.56V-31.56h21.16Zm-5.6-20.96v-7.72h-10v7.72Zm0,13.16v-8.28h-10V-5.6ZM-75.5,2.32h-5.48V-31.96h5.48Zm56.84-28h-9.68V.72h-6.2v-26.4h-9.52v-5.36h25.4Zm32.72,3.96L8.42.72H3.02L-1.1-14.08-5.34.72h-5.44L-16.3-21.72h5.68l3.2,14.68,3.76-14.68h5L5.14-7,8.46-21.72Zm12.6-3.16H20.3v-6.76h6.36ZM26.3.72H20.58V-16.8H15.94v-4.92H26.3ZM47.66-16.8H41.18V-6.68a3.122,3.122,0,0,0,.44,2.04,2.951,2.951,0,0,0,1.96.44h3.96V.72H41.62Q38.1.72,36.78-.54t-1.32-4.7V-16.8H30.5v-4.92h4.96v-6.24h5.72v6.24h6.48Zm19.48,0H60.66V-6.68a3.122,3.122,0,0,0,.44,2.04,2.951,2.951,0,0,0,1.96.44h3.96V.72H61.1q-3.52,0-4.84-1.26t-1.32-4.7V-16.8H49.98v-4.92h4.96v-6.24h5.72v6.24h6.48Zm9.72,3.72H87.3q-.48-4.48-5.28-4.48Q77.98-17.56,76.86-13.08ZM93.1-8.92H76.66a6.285,6.285,0,0,0,1.92,3.96,5.179,5.179,0,0,0,3.64,1.32,5.9,5.9,0,0,0,5.44-3.08l5.2,1.96q-2.72,5.92-10.6,5.92A10.948,10.948,0,0,1,74.22-1.8Q71.1-4.92,71.1-10.52t3.16-8.72a10.926,10.926,0,0,1,7.96-2.88q5.28,0,8.08,3.18t2.8,9.26Zm21.64-12.24-1.8,5.48a5.653,5.653,0,0,0-3.44-1.12,4.831,4.831,0,0,0-3.4,1.56,7.075,7.075,0,0,0-1.88,3.12V.72H98.58V-21.72h5.64v2.8a7.685,7.685,0,0,1,6.52-3.16A8.066,8.066,0,0,1,114.74-21.16Zm1.8-12.16,5.56-1.36a28.83,28.83,0,0,1,6.32,9.14,25.683,25.683,0,0,1,2.24,10.34,25.656,25.656,0,0,1-2.2,10.28,29.186,29.186,0,0,1-6.36,9.2l-5.56-1.36q8.12-8.76,8.12-18.12T116.54-33.32Z" transform="translate(920.755 3400.756)" fill="#fdfdfd"/>
  </g>
</svg>
