<?xml version="1.0" encoding="UTF-8"?><svg xmlns="http://www.w3.org/2000/svg" width="497.491" height="37.863" viewBox="0 0 497.491 37.863"><defs><style>.d{fill:#fff;}</style></defs><g id="a"/><g id="b"><g id="c"><path class="d" d="M32.779,24.677c0-1.447,.083-3.059,.207-3.761h-4.175c.124,.868,.207,2.108,.207,3.472v7.11h-10.83v-13.971h10.623c1.157,0,1.901,.041,2.728,.124-.083-.62-.124-1.529-.124-2.397V7.192c0-1.157,.041-2.273,.207-3.307h-4.133c.124,.785,.165,1.777,.165,3.1v7.027h-9.466V4.547c0-1.736,.083-2.852,.248-3.844h-4.381c.207,.868,.289,1.901,.289,3.844V14.013H5.58V7.027c0-1.281,.041-2.521,.165-3.142H1.612c.124,.827,.207,2.274,.207,3.39v7.978c0,.744-.041,1.653-.124,2.397,.909-.083,1.86-.124,2.769-.124H14.343v13.971H4.01v-6.944c0-1.406,.083-2.811,.165-3.472H.041c.124,.992,.207,2.067,.207,3.761v8.722c0,1.405-.083,2.852-.248,3.803H4.01v-2.232H29.017v2.232h4.01c-.165-.868-.248-2.191-.248-3.803v-8.887Zm42.607,1.777l-2.893-1.777h1.323c1.612,0,3.266,.083,4.423,.207v-3.514c-.992,.124-2.439,.207-4.506,.207h-4.009v-3.844h2.728c1.447,0,3.059,.041,3.968,.165v-3.431c-.909,.124-1.653,.165-3.885,.165h-2.811v-3.224h2.769c1.943,0,2.893,.041,4.299,.124-.083-.703-.124-1.901-.124-3.348v-3.017c0-1.447,.041-2.563,.124-3.389-1.033,.124-2.356,.165-4.505,.165h-21.66c-2.315,0-3.968-.083-5.125-.207,.165,1.819,.207,3.018,.207,6.283,0,8.143-.455,14.632-1.323,18.766-.703,3.348-1.612,5.622-3.224,8.102,.992,.703,1.901,1.571,3.059,2.976,2.232-3.596,3.472-7.44,4.257-13.186h4.753v8.68c-2.108,.289-3.638,.455-4.547,.455q-.041,0-.579-.041l.703,3.885c.744-.165,.868-.207,1.529-.289,7.978-1.488,11.408-2.191,14.343-2.976v-3.183c3.348,3.017,7.192,5.043,12.442,6.49,.537-1.323,1.199-2.397,2.191-3.472-3.803-.661-6.696-1.695-9.424-3.348,1.199-.785,1.612-1.116,5.498-4.423ZM49.262,5.043h23.892v3.431h-23.892v-3.431Zm10.086,9.589v-3.224h6.903v3.224h-6.903Zm6.903,3.1v3.844h-6.903v-3.844h6.903Zm-10.375-6.159v3.059h-1.901c-1.777,0-2.687-.041-3.555-.165v3.431c1.075-.124,1.901-.165,3.514-.165h1.943v3.844h-7.068c.248-2.935,.372-5.745,.413-10.168h6.655v.165Zm4.175,20.626c-1.199,.248-2.149,.413-3.265,.579v-8.102h3.265c1.033,2.521,2.48,4.547,4.588,6.531-2.025,.455-3.555,.785-4.588,.992Zm3.679-7.523h8.308c-1.157,1.447-2.935,3.1-4.795,4.381-1.777-1.529-2.811-2.769-3.514-4.381ZM120.555,6.118c-1.447,.124-2.315,.165-4.671,.165h-9.631v-1.612c0-1.777,.083-3.224,.289-4.216h-4.258c.165,1.157,.248,2.273,.248,4.34v1.488h-9.3c-2.025,0-3.059-.041-4.464-.165,.165,1.199,.207,2.273,.207,3.844v15.459c0,1.488-.041,2.728-.207,3.927h4.01v-2.356h9.755v5.704c0,2.356-.083,3.638-.289,4.919h4.299c-.207-1.24-.289-2.563-.289-4.919v-5.704h10.251v2.356h4.051c-.124-1.116-.207-2.315-.207-3.927V9.921c0-1.612,.041-2.604,.207-3.803Zm-18.022,17.526h-9.755v-5.456h9.755v5.456Zm0-8.763h-9.755v-5.25h9.755v5.25Zm13.971,8.763h-10.251v-5.456h10.251v5.456Zm0-8.763h-10.251v-5.25h10.251v5.25Zm25.701,16.658c-1.571-.909-2.025-1.447-2.728-3.017v-8.226c0-2.315,.042-3.141,.166-4.381-.909,.124-2.025,.207-3.059,.207h-3.017c-1.447,0-2.273-.041-3.183-.207v3.761c.951-.166,1.488-.207,2.811-.207h2.728v9.135c-1.529,1.488-4.671,3.638-6.324,4.34l1.736,3.844c.744-.661,1.405-1.199,2.025-1.653,1.612-1.24,3.059-2.521,4.175-3.637,1.612,2.273,3.142,3.431,5.456,4.133,2.025,.62,5.25,.868,11.904,.868,2.811,0,8.102-.124,11.946-.289,.207-1.364,.537-2.646,1.116-4.092-4.009,.578-8.804,.868-15.418,.868-6.2,0-8.391-.289-10.334-1.447Zm-4.133-20.254l2.811-2.687c-1.447-2.025-4.506-5.291-6.903-7.357l-2.645,2.48c2.811,2.563,4.423,4.34,6.738,7.564Zm13.393-5.704c-.207,8.722-4.258,16.782-10.664,21.246,1.199,1.075,1.86,1.777,2.687,2.893,5.456-4.257,8.887-9.962,10.044-16.534,1.075,4.423,2.232,7.109,4.423,10.209,2.397,3.224,4.216,5.043,6.82,6.903,.661-1.323,1.488-2.521,2.356-3.472-4.216-2.893-6.696-5.746-8.887-10.168-1.984-3.927-2.976-8.184-2.976-12.401,0-.661,.041-1.406,.124-2.15-.579,.124-1.819,.166-3.017,.166h-5.125c-1.488,0-2.522-.083-3.307-.207v3.72c.909-.165,1.984-.207,3.307-.207h4.216Zm27.974-2.811h-.372c-1.612,8.515-2.273,15.087-2.273,20.833,0,3.968,.331,8.308,1.033,12.276,.207,.041,.413,.041,.661,.041,1.116,0,2.398-.165,3.39-.537-.661-3.844-1.034-8.102-1.034-11.822,0-5.415,.62-11.905,2.232-20.254-1.075-.372-2.439-.537-3.638-.537Zm22.486,10.871c2.398-.207,4.754-.413,6.944-.703,.041-.455,.083-.951,.083-1.447,0-.785-.083-1.571-.248-2.273-2.149,.289-4.423,.537-6.779,.703,0-2.439,.041-4.96,.124-7.44-.579-.083-1.281-.124-2.025-.124-.703,0-1.405,.041-2.067,.124,.124,2.563,.165,5.125,.165,7.647-1.777,.083-3.596,.124-5.373,.124-1.571,0-3.1-.041-4.588-.083-.083,.579-.124,1.199-.124,1.819,0,.703,.041,1.405,.165,2.067h1.653c2.728,0,5.497-.083,8.267-.207,.041,3.224,.165,6.448,.413,9.672-1.157-.207-2.232-.29-3.307-.29-5.415,0-8.184,3.059-8.184,6.242,0,3.513,2.645,5.911,7.44,5.911,5.415,0,8.102-2.356,8.102-6.903,1.736,.744,3.844,2.191,5.828,3.844,1.075-.909,1.943-2.149,2.397-3.39-2.728-1.984-5.621-3.472-8.391-4.423-.331-3.968-.455-7.316-.496-10.871Zm-7.481,18.229c-2.604,0-3.72-.868-3.72-2.397,0-1.447,1.281-2.852,4.505-2.852,1.281,0,2.398,.124,3.431,.496,.124,.537,.165,.909,.165,1.199,0,2.397-1.447,3.555-4.381,3.555Zm60.546-17.526c0-1.24,.041-1.777,.124-2.563-1.034,.124-1.695,.166-3.472,.166h-2.811c.62-1.116,1.571-3.472,2.025-4.96,1.529,0,2.645,.083,3.596,.207V3.761c-.909,.165-2.356,.248-4.009,.248h-5.374v-.455c0-1.199,.083-2.273,.248-3.1h-3.968c.165,.951,.248,1.777,.248,3.1v.455h-4.63c-1.654,0-3.059-.083-4.009-.248v3.431c.744-.124,1.488-.165,3.224-.207,.703,1.529,1.405,3.472,1.777,4.96h-2.521c-1.571,0-2.48-.041-3.224-.124,.083,.579,.124,1.695,.124,2.521v2.025c0,1.24-.041,1.984-.124,2.563h3.431v-3.968h15.997v4.01h3.513c-.124-.868-.165-1.406-.165-2.728v-1.901Zm-9.631-2.397h-4.009c-.579-2.067-.909-3.1-1.736-4.96h7.688c-.413,1.612-1.199,3.555-1.943,4.96Zm-.331,7.854v-.868c0-1.116,.083-2.149,.165-2.893h-3.679c.124,.951,.165,1.571,.165,2.935v.827h-3.885c-1.158,0-3.017-.041-3.514-.124,.083,.909,.124,1.695,.124,3.389v7.068c0,1.984-.083,3.224-.207,4.34h3.679c-.124-.951-.207-2.563-.207-4.382v-7.234h4.009v10.995c0,1.571-.083,2.77-.248,3.803h3.844c-.165-.951-.248-2.232-.248-3.803v-10.995h4.588v7.358c0,.537-.207,.703-.827,.703-.951,0-1.736-.083-2.687-.289,.496,1.033,.703,1.943,.785,3.431,.909,.041,1.736,.083,2.273,.083,2.935,0,3.72-.661,3.72-3.183v-7.854c0-1.281,.041-2.521,.124-3.431-.992,.083-2.397,.124-3.513,.124h-4.464Zm-17.361-5.291c.62,1.364,.785,1.736,1.157,2.728-1.529,.207-2.149,.289-4.547,.413,1.86-2.356,4.588-6.366,6.241-9.135,.703-1.157,1.075-1.777,1.405-2.191l-3.224-1.695c-.289,1.116-2.025,4.423-3.844,7.192-.579-.868-1.033-1.406-1.777-2.356,.744-1.075,1.86-2.976,3.183-5.456,.951-1.736,1.157-2.108,1.447-2.563l-3.307-1.447c-.372,1.612-1.86,4.878-3.307,7.11l-1.447-1.612-1.819,2.935c2.025,2.108,3.679,4.175,5.125,6.366-.744,1.033-1.157,1.653-1.199,1.695l-.496,.661c-.041,.083-.207,.331-.496,.661-.289,.041-.496,.041-.661,.041-1.033,0-1.653-.041-2.273-.124l.455,3.555c.372-.083,.744-.124,1.488-.165,2.356-.165,3.183-.248,4.299-.372v12.731c0,1.612-.083,3.141-.248,4.133h3.72c-.165-.909-.248-2.397-.248-4.133v-13.062c.868-.083,1.24-.124,2.521-.289,.207,.785,.248,1.033,.537,2.232l2.563-.951c-1.488-4.753-1.653-5.084-2.893-7.854l-2.356,.951Zm.827,8.804c.579,2.522,1.075,6.531,1.199,9.342l2.811-.496c-.331-3.348-.951-7.358-1.405-9.342l-2.604,.496Zm-10.664,10.623l2.935,1.364c.992-3.183,1.529-6.862,1.777-11.987l-2.976-.455c-.165,4.754-.661,8.019-1.736,11.078Zm68.566-25.09c.413-1.943,.785-3.968,1.075-6.117-1.075-.496-2.232-.744-3.39-.744-.207,0-.455,0-.661,.041-.248,2.356-.579,4.547-.992,6.614-3.183,.083-6.531,.827-9.176,2.191-.537-2.439-.951-4.878-1.281-7.44h-.455c-1.157,0-2.397,.289-3.265,.827,.413,2.976,.951,5.87,1.653,8.68-4.381,3.348-6.986,8.225-6.986,13.227,0,4.258,2.687,6.862,6.324,6.862,2.356,0,4.216-.703,7.068-3.431,.703,1.24,1.405,2.397,2.149,3.513,1.24-.372,2.521-1.199,3.307-2.315-.951-1.323-1.86-2.728-2.646-4.175,3.1-4.216,5.002-9.259,6.366-14.26,5.249,1.033,8.226,4.877,8.226,9.094,0,5.126-3.265,9.259-10.044,11.615l2.563,3.307c7.234-2.563,11.574-8.184,11.574-14.881,0-5.994-4.133-11.367-11.408-12.607Zm-17.03,20.254c-1.488,0-2.563-1.075-2.563-3.224,0-3.307,1.529-6.614,4.175-9.176,.909,3.265,2.149,6.448,3.596,9.466-2.273,2.356-3.803,2.935-5.208,2.935Zm7.895-6.2c-1.281-2.728-2.315-5.622-3.1-8.556,1.984-1.24,4.878-2.108,7.44-2.149-.909,3.72-2.315,7.44-4.34,10.706Zm44.715-2.77c-.992-.248-2.604-.868-3.348-1.364-.124,3.762-.331,5.332-.785,6.2-.413,.661-1.323,.951-3.266,.951-.868,0-1.075-.207-1.075-1.033V14.261l6.2-1.323c1.075-.207,2.315-.413,3.018-.455l-.289-3.72c-.413,.165-1.777,.537-2.893,.785l-6.035,1.281V4.63c0-1.777,.041-2.811,.165-3.596h-4.009c.124,.992,.207,1.901,.207,3.803v6.738l-1.943,.413c-1.199,.289-2.315,.413-3.059,.413l.331,3.72c1.24-.372,2.108-.579,3.142-.785l1.529-.331v10.954c0,2.728,.827,3.431,4.051,3.431,6.407,0,7.523-1.281,8.06-9.259Zm2.604-16.823c-2.149,0-3.968-.083-4.878-.248v3.761c.661-.083,2.15-.165,3.514-.165h4.175c-.165,15.211-3.761,23.065-12.648,27.777,1.488,1.116,2.108,1.736,3.017,2.893,9.218-5.993,13.021-14.674,13.351-30.67h6.944c-.124,8.308-.248,11.119-.62,15.294-.496,5.043-1.075,8.391-1.819,9.962-.372,.785-.909,1.033-2.356,1.033-1.24,0-2.687-.165-4.753-.537,.413,1.116,.703,2.356,.827,3.844,1.281,.124,3.307,.207,4.506,.207,2.811,0,4.382-.827,5.167-2.687,1.158-2.893,2.067-9.879,2.398-18.394l.124-2.604c.041-1.157,.083-2.15,.124-3.018l.083-2.397c.041-1.281,.041-1.984,.083-2.149,0-.413,.041-.992,.124-2.067-.909,.124-2.397,.165-4.009,.165h-13.351Zm42.194,.62c-4.009,0-7.564,2.769-9.714,9.259h-.207c.248-2.522,.785-6.076,1.777-11.161-.868-.248-1.901-.372-2.811-.372-.413,0-.785,.041-1.157,.083-1.116,7.482-1.529,13.434-1.529,17.278,0,1.777,.041,3.389,.207,5.415,.62,.083,1.24,.124,1.86,.124s1.281-.041,1.86-.124c.289-2.852,.868-5.704,1.736-8.432,1.653-5.084,4.671-8.267,7.523-8.267,3.017,0,5.291,2.976,5.291,10.086,0,7.481-3.183,12.359-11.326,15.707l2.852,3.431c8.597-3.555,12.69-9.879,12.69-19.097,0-9.424-3.885-13.93-9.052-13.93Zm37.152,15.418c3.927-.165,7.978-.413,11.656-.827,.041-.413,.083-.909,.083-1.405,0-.785-.083-1.654-.248-2.356-3.679,.455-7.647,.744-11.615,.868,0-1.529-.041-3.307-.041-5.043,3.638-.083,7.234-.331,10.747-.62,.041-.455,.083-.951,.083-1.447,0-.827-.083-1.654-.248-2.356-3.472,.372-6.944,.579-10.582,.703,.041-1.901,.083-3.844,.124-5.745-.62-.124-1.323-.207-2.025-.207s-1.364,.083-2.025,.207c.041,1.943,.083,3.927,.124,5.828h-1.529c-3.059,0-6.324-.124-9.466-.289-.124,.62-.165,1.364-.165,2.067,0,.62,.041,1.24,.124,1.777,3.017,.124,6.241,.165,9.631,.165h1.405c0,1.86,.041,3.431,.083,5.043h-1.695c-4.133,0-7.44-.083-10.747-.331-.124,.661-.165,1.406-.165,2.108,0,.62,.041,1.158,.124,1.695,3.017,.207,6.572,.248,10.913,.248h1.653c.083,1.612,.165,3.307,.331,4.96-1.158-.124-2.356-.166-3.555-.166-6.242,0-9.507,3.142-9.507,6.448,0,3.885,3.224,6.159,8.184,6.159,5.663,0,9.011-1.86,9.011-6.986,0-.331-.041-.703-.041-1.157,3.059,1.075,6.655,3.1,10.003,5.828,1.157-.909,2.108-2.191,2.563-3.431-4.133-2.935-8.391-4.96-12.814-5.993-.166-1.943-.289-4.01-.372-5.746Zm-8.474,13.847c-2.645,0-4.092-.951-4.092-2.563,0-1.529,1.612-3.017,5.456-3.017,1.323,0,2.728,.165,3.762,.413,.041,.661,.041,1.157,.041,1.529,0,2.645-1.86,3.638-5.167,3.638Zm45.667-1.364c-4.299,0-6.572-2.273-6.572-8.226v-2.356c0-4.877,.248-10.995,.744-18.229-.868-.289-1.819-.413-2.728-.413-.579,0-1.157,.041-1.736,.165-.289,7.11-.413,13.021-.413,18.311v2.604c0,8.969,4.257,12.152,10.706,12.152,6.159,0,11.698-3.1,15.955-11.781l-3.1-3.1c-3.968,8.391-8.019,10.871-12.855,10.871Zm39.632-15.666c0,.992,.207,2.025,.496,2.811,2.769-.703,5.994-1.199,8.68-1.199,2.315,0,4.175,.124,5.746,.331,.207-.703,.331-1.571,.331-2.439,0-.455-.041-.951-.124-1.364-1.529-.207-3.679-.372-6.035-.372-2.852,0-6.2,.537-9.052,1.529-.041,.248-.041,.455-.041,.703Zm16.079,14.88c-2.811,.62-5.539,.909-8.143,.909-5.332,0-7.234-1.612-7.936-4.671-1.116,.041-2.397,.496-3.183,1.157,.868,5.125,3.927,7.399,11.078,7.399,3.265,0,5.952-.207,8.763-.785,.041-.331,.083-.661,.083-1.034,0-1.075-.207-2.149-.661-2.976Zm-12.855-21.205c0-.992-.207-2.067-.496-2.852-2.232,.455-4.795,.868-7.482,1.199,.455-2.356,.827-4.754,1.158-7.151-1.033-.289-2.108-.413-3.142-.413-.289,0-.62,0-.909,.041-.331,2.645-.703,5.332-1.199,7.895-3.017,.248-5.994,.372-8.474,.372-.083,.537-.124,1.075-.124,1.612,0,.785,.083,1.571,.289,2.315,2.232-.083,4.836-.207,7.523-.455-1.86,8.226-4.547,15.831-7.605,21.659,1.116,.951,2.521,1.529,4.051,1.777,3.059-6.49,5.787-14.88,7.688-23.891,3.059-.331,6.076-.744,8.68-1.24,.041-.289,.041-.579,.041-.868Z"/></g></g></svg>