<svg xmlns="http://www.w3.org/2000/svg" width="573.698" height="62" viewBox="0 0 573.698 62"><defs><style>.cls-1{fill:#362410;}.cls-2{fill:none;stroke:#362410;stroke-miterlimit:10;stroke-width:1.151px;}</style></defs><g id="レイヤー_2" data-name="レイヤー 2"><g id="レイヤー_1-2" data-name="レイヤー 1"><path class="cls-1" d="M6.627,5.145a8.668,8.668,0,0,0,2.2,2.282,14.212,14.212,0,0,0,3.561,1.989,3.813,3.813,0,0,0-.589,1.009A18.006,18.006,0,0,1,8.234,8.249a11.151,11.151,0,0,1-2.142-2.2A11.072,11.072,0,0,1,4.084,8.169a14.72,14.72,0,0,1-3.468,2.19A3.172,3.172,0,0,0,0,9.456,13.739,13.739,0,0,0,3.428,7.427,9.608,9.608,0,0,0,5.517,5.145ZM2.089,12.494a11.359,11.359,0,0,0-1.513.08v-1.1a11.786,11.786,0,0,0,1.513.08h8.1a11.359,11.359,0,0,0,1.513-.08v1.1a11.359,11.359,0,0,0-1.513-.08H5.543a18.443,18.443,0,0,1-1.566,2.918c1.218-.066,3.16-.239,4.847-.451-.67-.716-.925-.969-1.527-1.538l.843-.478a28.411,28.411,0,0,1,3.134,3.436l-.871.624c-.455-.651-.616-.89-.9-1.234-2.223.292-4.526.531-6.494.676a16.559,16.559,0,0,0-2.075.212l-.175-1.14c.268.013.5.027.7.027s.187,0,1.325-.068a17.432,17.432,0,0,0,1.593-2.984Zm.8-3.409a7.572,7.572,0,0,0,1.071.052H8.234a8.314,8.314,0,0,0,1.125-.052V10.12a8.6,8.6,0,0,0-1.125-.054H3.95a7.9,7.9,0,0,0-1.058.054Z"/><path class="cls-1" d="M22.366,12.68a7.987,7.987,0,0,1-1.794,1.393,2.867,2.867,0,0,0-.522-.637c-.63.344-1.634.809-2.316,1.1-.2.081-.389.173-.523.239l-.241-1.088a7.064,7.064,0,0,0,1.634-.544V9.23H18.1A6.949,6.949,0,0,0,17,9.3V8.276a6.926,6.926,0,0,0,1.125.066H18.6V6.59a10.078,10.078,0,0,0-.08-1.432h1.124a10.289,10.289,0,0,0-.08,1.446V8.342h.308a6.756,6.756,0,0,0,1.03-.054v.995a9.179,9.179,0,0,0-1.044-.053h-.294v3.489a8.348,8.348,0,0,0,1.017-.53L20.6,13a5.352,5.352,0,0,0,1.955-1.951H21.9a8.536,8.536,0,0,0-1.2.066v-.955a8.36,8.36,0,0,0,1.219.066h5.65a7.863,7.863,0,0,0,1.312-.078V11.1a11.287,11.287,0,0,0-1.312-.053H23.544a6.357,6.357,0,0,1-.535.849h4.3a10.823,10.823,0,0,0,1.285-.052,12.077,12.077,0,0,0-.12,1.445,13.14,13.14,0,0,1-.389,2.493,1.179,1.179,0,0,1-.709.837,3.252,3.252,0,0,1-1.058.119c-.214,0-.549-.013-1.058-.039a2.389,2.389,0,0,0-.308-.995,10.249,10.249,0,0,0,1.486.132c.442,0,.6-.066.7-.266a11.2,11.2,0,0,0,.442-2.891h-.763a7.908,7.908,0,0,1-1.218,1.976A11.871,11.871,0,0,1,23.959,16.2a8.613,8.613,0,0,1-1.1.717,2.369,2.369,0,0,0-.7-.717A8.186,8.186,0,0,0,24.5,14.577a6.181,6.181,0,0,0,1.352-1.9H24.7A8.7,8.7,0,0,1,21.067,15.8a2.461,2.461,0,0,0-.642-.717,7.4,7.4,0,0,0,3.253-2.4Zm.388-3.211a9.715,9.715,0,0,0-1.205.053A9.89,9.89,0,0,0,21.6,8.315V6.563a8.618,8.618,0,0,0-.054-1.14,8.4,8.4,0,0,0,1.272.067H26.4a9.335,9.335,0,0,0,1.366-.067,9.667,9.667,0,0,0-.054,1.221V8.329a8.111,8.111,0,0,0,.054,1.181c-.281-.027-.669-.041-1.206-.041ZM22.54,7.107h4.218V6.285H22.54Zm0,1.606h4.218V7.851H22.54Z"/><path class="cls-1" d="M35.308,7.307V9.032H33.541V7.307Zm0,5.624V14.67H33.541V12.931Z"/><path class="cls-1" d="M42.363,6.076a17.348,17.348,0,0,0-2.095.092V4.2a14.65,14.65,0,0,0,2.218.128h4.558a8.839,8.839,0,0,0-.1-1.615h2.094a11.328,11.328,0,0,0-.105,1.615h4.7A13.4,13.4,0,0,0,55.88,4.2V6.168c-.563-.056-1.285-.092-2.13-.092H48.928v.992h3.59a15.244,15.244,0,0,0,1.918-.074c-.052.532-.07,1.138-.07,1.8v3.36a14.727,14.727,0,0,0,.07,1.854,12.737,12.737,0,0,0-1.918-.091H50.459a11.82,11.82,0,0,0,5.966,3.065,11.26,11.26,0,0,0-.985,1.911A17.859,17.859,0,0,1,51.9,17.24a11.264,11.264,0,0,1-3.01-2.57c.018.588.036.936.036,1.248V17.2a13.037,13.037,0,0,0,.123,2.038h-2.13a14.362,14.362,0,0,0,.123-2.038V15.9c0-.2.018-.881.036-1.212a11.107,11.107,0,0,1-3.292,2.827,17.2,17.2,0,0,1-2.957,1.378,7.721,7.721,0,0,0-.967-1.818,13.166,13.166,0,0,0,3.255-1.3,10.92,10.92,0,0,0,2.465-1.854H43.718a12.72,12.72,0,0,0-1.954.091c.018-.183.018-.183.053-.533a9.517,9.517,0,0,0,.018-1.321V8.831a17.053,17.053,0,0,0-.071-1.837,14.927,14.927,0,0,0,1.9.074h3.379V6.076Zm1.3,2.534v1.1h3.379V8.61Zm0,2.589v1.157h3.379V11.2Zm5.263-1.487h3.608V8.61H48.928Zm0,2.644h3.608V11.2H48.928Z"/><path class="cls-1" d="M63.54,14.063a14.252,14.252,0,0,1-4.154,4.627,6.56,6.56,0,0,0-1.232-1.56,10.8,10.8,0,0,0,2.271-1.818,8.977,8.977,0,0,0,1.513-2.2Zm1.5-10.044a7.44,7.44,0,0,0-.106-1.3h2.13a6.556,6.556,0,0,0-.105,1.3v.533H71.9a14.48,14.48,0,0,0,2.024-.11v2a12.01,12.01,0,0,0-1.9-.093h-11.7a11.933,11.933,0,0,0-1.866.093v-2a14.82,14.82,0,0,0,2.077.11h4.506Zm-3.1,8.777c-.757,0-1.091.018-1.548.055a11.02,11.02,0,0,0,.07-1.413V8.867c0-.624-.018-.936-.018-.974s-.017-.128-.035-.256a1.124,1.124,0,0,0-.017-.22c.14,0,.14,0,.4.018.159.018.722.037,1.144.037h8.29A15.047,15.047,0,0,0,71.8,7.417a10.721,10.721,0,0,0-.071,1.45v2.571c0,.624.018.937.053,1.413-.4-.037-.9-.055-1.566-.055H67.2v4.5c0,1.4-.563,1.783-2.6,1.783-.281,0-.457,0-1.39-.02a5.535,5.535,0,0,0-.511-1.909,12.014,12.014,0,0,0,1.883.146c.581,0,.7-.073.7-.385V12.8Zm.352-1.781h7.6V9.179h-7.6Zm7.78,2.093a10.044,10.044,0,0,0,1.707,2.168,11.358,11.358,0,0,0,2.376,1.688,7.736,7.736,0,0,0-1.214,1.726,13.958,13.958,0,0,1-2.57-2.221,17.852,17.852,0,0,1-1.8-2.35Z"/><path class="cls-1" d="M76.287,5.433a21.319,21.319,0,0,0-.106-2.166,19.661,19.661,0,0,0,2.024.073H89.082a16.5,16.5,0,0,0,2.024-.091,19.354,19.354,0,0,0-.088,2.166V16.964a18.3,18.3,0,0,0,.088,2.332H89.171V18.268H78.152V19.3H76.181a17.4,17.4,0,0,0,.106-2.332Zm1.865,11.091h11V5.085h-11Zm2.57-8.611A8.958,8.958,0,0,0,79.173,8V6.187a8.722,8.722,0,0,0,1.549.091h5.861A9.228,9.228,0,0,0,88.2,6.187V8a9.377,9.377,0,0,0-1.6-.091H84.418V9.8h1.76a7.509,7.509,0,0,0,1.479-.092v1.781a6.632,6.632,0,0,0-1.109-.093,8.231,8.231,0,0,1,1.091,1.745l-.933.533a10.664,10.664,0,0,0,1.708-.092V15.44a10.654,10.654,0,0,0-1.637-.091H80.529a9.624,9.624,0,0,0-1.62.091V13.586a9.863,9.863,0,0,0,1.62.092h2.094V11.4H81.144a7.947,7.947,0,0,0-1.5.093V9.712a7.6,7.6,0,0,0,1.5.092h1.479V7.913Zm3.7,5.765h1.848a8.5,8.5,0,0,0-1.073-1.8l.9-.478H84.418Z"/><path class="cls-1" d="M100.175,7.362a6.089,6.089,0,0,1,.915.825,6.546,6.546,0,0,0,.51-.642,5.417,5.417,0,0,0-1.038-.771l.827-1.157a8.855,8.855,0,0,1,.985.716c.194-.422.264-.588.511-1.175h-1.637a13.74,13.74,0,0,1-2.569,3.195A5.385,5.385,0,0,0,98.1,7.105l-.757,1.963a5.7,5.7,0,0,1,1.179,2.351,5.082,5.082,0,0,1,.141,1.377c0,1.267-.405,2.13-1.144,2.462a2.87,2.87,0,0,1-1.2.182,1.525,1.525,0,0,1-.247-.018,3,3,0,0,0-.316-1.836,3.418,3.418,0,0,0,.651.073c.44,0,.634-.33.634-1.065a5.212,5.212,0,0,0-.247-1.542,4.781,4.781,0,0,0-1.109-1.927,15.189,15.189,0,0,0,1.268-4.15H95.563v12.1c0,.955.018,1.726.07,2.221H93.75a18.712,18.712,0,0,0,.106-2.239V4.919a14.941,14.941,0,0,0-.07-1.726,9.792,9.792,0,0,0,1.161.056h2.077a6.33,6.33,0,0,0,1.232-.075L99.118,4.2a3.148,3.148,0,0,0-.229.606c-.1.312-.316.973-.527,1.579a9.45,9.45,0,0,0,2.059-3.214,2.578,2.578,0,0,0,.193-.715l1.8.294c-.124.257-.124.257-.246.532-.018.055-.018.055-.106.276h.862a8.188,8.188,0,0,0,1.426-.075,8.017,8.017,0,0,0,1.584,3.453,8.836,8.836,0,0,0,1.214-1.781h-1.355a3.836,3.836,0,0,0-.739.073V3.45a9.7,9.7,0,0,0,1.021.056h1.2a5.418,5.418,0,0,0,1.162-.074l.81,1.175a9.378,9.378,0,0,0-.564.992,15.24,15.24,0,0,1-1.725,2.5,9.69,9.69,0,0,0,2.728,1.835,6.71,6.71,0,0,0-.915,1.892,12.721,12.721,0,0,1-2.2-1.653v1.048a6.8,6.8,0,0,0-1.056-.055h-3.2a7.256,7.256,0,0,0-.968.055v-.974a12.117,12.117,0,0,1-1.954,1.634,4.5,4.5,0,0,0-.932-1.469,11.942,11.942,0,0,0,1.619-1.23,5.378,5.378,0,0,0-.88-.79Zm1.478,7.73a11.276,11.276,0,0,1-2.992,3.837,6.372,6.372,0,0,0-1.25-1.414,6.863,6.863,0,0,0,2.781-3.159Zm-.951-1.175a9.315,9.315,0,0,0-1.513.073V12.117a10.276,10.276,0,0,0,1.6.092h6.46a8.494,8.494,0,0,0,1.655-.092v1.891a13.8,13.8,0,0,0-1.638-.091h-2.552v3.488c0,1.4-.422,1.727-2.165,1.727-.3,0-.791-.019-1.425-.055a5.476,5.476,0,0,0-.423-1.911,11.423,11.423,0,0,0,1.778.2c.405,0,.493-.093.493-.442v-3.01ZM105.9,9.528a10.861,10.861,0,0,1-2.025-3.14,9.713,9.713,0,0,1-1.883,3.14H105.9Zm1.144,4.828a7.418,7.418,0,0,0,2.517,2.9,6.714,6.714,0,0,0-1.021,1.6,10.841,10.841,0,0,1-3.01-3.783Z"/><path class="cls-1" d="M124.361,6.315c-1.056,6.481-4.224,10.172-9.733,12.32l-1.215-2c4.717-1.67,7.727-4.884,8.466-9.456H111.811V5.066h11.336Z"/><path class="cls-1" d="M126.6,10.575V8.72h6.389L132.9,5.727l1.9-.018.088,3.011h3.1v1.855h-3.045l.159,6.1v.148c0,1.469-.81,2.056-2.271,2.056a10.968,10.968,0,0,1-1.812-.129l-.265-1.945a10.45,10.45,0,0,0,1.9.182c.405,0,.563-.128.563-.549v-.075l-.07-2.368.018-2.278a17.421,17.421,0,0,1-6.108,5.712l-1.2-1.542a16.844,16.844,0,0,0,5.913-5.307Z"/><path class="cls-1" d="M155.327,9.8v2.313h-14.15V9.8Z"/><path class="cls-1" d="M170.907,9.656c-1.249,5.087-4.206,7.877-8.7,9.182L161.1,16.891c4.083-1.175,6.424-3.3,7.409-6.5H158.27v-2h11.511Zm-1.725-5.471V6.223h-9.223V4.185Z"/><path class="cls-1" d="M185.026,18.507q-.369-1.02-.792-1.983a90.7,90.7,0,0,1-11.563,1.469l-.3-2.387c.739-.018,1.478-.055,2.2-.093a89.315,89.315,0,0,0,3.644-11.97l2.27.458a90.172,90.172,0,0,1-3.625,11.366c2.164-.184,4.312-.385,6.441-.753a27.574,27.574,0,0,0-2.235-3.489l1.707-1.046a25.262,25.262,0,0,1,4.418,7.436Z"/><path class="cls-1" d="M192.936,19.234a9.277,9.277,0,0,1,0-12.6h1a9.277,9.277,0,0,0,0,12.6Z"/><path class="cls-1" d="M196.706,9.206a9.206,9.206,0,0,0-1.489.079V8.224a9.274,9.274,0,0,0,1.527.092h3.486V8.224a6.821,6.821,0,0,0-.088-1.208h1.081a7.092,7.092,0,0,0-.076,1.208v.092h3.626a8.771,8.771,0,0,0,1.577-.092V9.285a11.266,11.266,0,0,0-1.539-.079h-3.664v.955h2.672a8.545,8.545,0,0,0,1.412-.066,12.612,12.612,0,0,0-.051,1.353V13.53a9.53,9.53,0,0,0,.051,1.354,9.11,9.11,0,0,0-1.425-.066h-1.922a9.419,9.419,0,0,0,4.886,2.691,4.594,4.594,0,0,0-.547.983,13,13,0,0,1-2.736-1.261,9.235,9.235,0,0,1-2.379-2.069c.026.332.039.769.039.995v1.208a7.486,7.486,0,0,0,.088,1.459h-1.093a9.552,9.552,0,0,0,.088-1.459V16.157c0-.212.013-.637.026-.982a6.929,6.929,0,0,1-1.4,1.433,11.611,11.611,0,0,1-3.422,1.87,4.058,4.058,0,0,0-.535-.928,10.061,10.061,0,0,0,2.952-1.339,7.161,7.161,0,0,0,1.641-1.393h-1.679a8.9,8.9,0,0,0-1.438.066,2.388,2.388,0,0,1,.025-.346c.013-.079.026-.53.026-1.008V11.473a12.681,12.681,0,0,0-.051-1.378,8.205,8.205,0,0,0,1.375.066h2.48V9.206Zm.649,1.777v1.061h2.875V10.983Zm0,1.871v1.154h2.875V12.854Zm3.792-.81h3.1V10.983h-3.1Zm0,1.964h3.1V12.854h-3.1Z"/><path class="cls-1" d="M211.914,15.069a9.9,9.9,0,0,1-2.965,3.289,3.447,3.447,0,0,0-.662-.808,7.377,7.377,0,0,0,1.654-1.339,5.76,5.76,0,0,0,1.133-1.659Zm1.412-6.992a6.6,6.6,0,0,0-.077-1.047h1.133a5.546,5.546,0,0,0-.076,1.047v.452h3.778a7.8,7.8,0,0,0,1.4-.093V9.524a6.89,6.89,0,0,0-1.361-.08h-8.347a6.828,6.828,0,0,0-1.336.08V8.436a7.77,7.77,0,0,0,1.412.093h3.474Zm-2.265,6.011a8.54,8.54,0,0,0-1.107.052,8.286,8.286,0,0,0,.051-1.061V11.5a8.906,8.906,0,0,0-.051-1.088,1.688,1.688,0,0,0,.255.027c.139.014.5.027.852.027h5.6a7.433,7.433,0,0,0,1.133-.054,8.366,8.366,0,0,0-.051,1.088v1.579c0,.465.013.743.038,1.048-.318-.026-.661-.039-1.132-.039h-2.176v3.489c0,.849-.331,1.061-1.629,1.061-.242,0-.521-.014-1.043-.027a3.411,3.411,0,0,0-.268-1.007,8.93,8.93,0,0,0,1.375.118c.483,0,.585-.052.585-.3V14.088Zm-.128-.89h5.879v-1.83h-5.879Zm5.65,1.354a7.18,7.18,0,0,0,1.235,1.618,8.055,8.055,0,0,0,1.717,1.327,3.518,3.518,0,0,0-.649.861,9.268,9.268,0,0,1-1.654-1.432,11.525,11.525,0,0,1-1.437-1.844Z"/><path class="cls-1" d="M226.08,12.934a1.217,1.217,0,0,1-1.2,1.233,1.2,1.2,0,0,1-1.183-1.233,1.218,1.218,0,0,1,1.183-1.248A1.238,1.238,0,0,1,226.08,12.934Z"/><path class="cls-1" d="M232.815,12.5a13.556,13.556,0,0,1-2.138,2.018,2.718,2.718,0,0,0-.635-.849A12.048,12.048,0,0,0,232.4,11.58a9.6,9.6,0,0,0,1.425-2.1h-2.048a10.628,10.628,0,0,0-1.4.079V8.489a9.982,9.982,0,0,0,1.413.08h2.455a5.923,5.923,0,0,0,.433-1.592l1.094.146a4.847,4.847,0,0,0-.267.717c-.1.318-.165.476-.267.729h4.835a9.682,9.682,0,0,0,1.386-.08V9.563a10.539,10.539,0,0,0-1.386-.079h-5.242a14.235,14.235,0,0,1-.764,1.367h4.466a11.375,11.375,0,0,0,1.323-.054c-.037.4-.05.823-.05,1.5v5.212a1.016,1.016,0,0,1-.382.956,1.976,1.976,0,0,1-1.094.186c-.356,0-.866-.013-1.374-.04a3.381,3.381,0,0,0-.229-.982,11.41,11.41,0,0,0,1.539.107c.522,0,.611-.054.611-.371V15.972h-5.128v1.286a12.575,12.575,0,0,0,.064,1.525h-1.069a13.539,13.539,0,0,0,.076-1.538Zm6.057-.769h-5.128v1.247h5.128Zm-5.128,2.1v1.3h5.128v-1.3Z"/><path class="cls-1" d="M249.614,15.149a10.294,10.294,0,0,0,4.809,2.507,4.425,4.425,0,0,0-.585.941,12.258,12.258,0,0,1-2.659-1.193A8.593,8.593,0,0,1,249,15.574c.013.171.013.171.026.49.012.186.025.544.025.664v.756a8.07,8.07,0,0,0,.076,1.352h-1.081a8.257,8.257,0,0,0,.089-1.366v-.742c0-.319.013-.678.051-1.181a8.438,8.438,0,0,1-2.074,1.8,13.949,13.949,0,0,1-2.57,1.22,3.215,3.215,0,0,0-.624-.889,10.152,10.152,0,0,0,4.619-2.533h-2.85a9.2,9.2,0,0,0-1.413.079V14.207a9.083,9.083,0,0,0,1.413.079h3.435a5.267,5.267,0,0,0-.051-.876h1.043a4.066,4.066,0,0,0-.063.876h3.537a8.9,8.9,0,0,0,1.438-.079v1.021a8.081,8.081,0,0,0-1.451-.079Zm-3.474-3.4a18.97,18.97,0,0,1-2.329,1.393,2.746,2.746,0,0,0-.407.238l-.381-.955a11.259,11.259,0,0,0,2.888-1.539Zm-2.15-3.967A14.049,14.049,0,0,1,245.847,9.6l-.661.7a10.2,10.2,0,0,0-1.845-1.857Zm3.792.53a6.317,6.317,0,0,0,.432-1.366l.98.159c-.216.558-.28.7-.5,1.207h1.184a6.82,6.82,0,0,0,.929-.039,6.62,6.62,0,0,0-.038,1.008V12.11a6.94,6.94,0,0,0,.038,1.036c-.268-.026-.56-.041-.9-.041h-2.545c-.356,0-.675.015-.942.041.025-.319.038-.5.038-1.022V9.272a7.192,7.192,0,0,0-.038-1,6.927,6.927,0,0,0,.967.039Zm-.471,1.964h2.608V9.113h-2.608Zm0,2.03h2.608V11.063h-2.608Zm4.186-1.393a28.323,28.323,0,0,1,2.825,1.632l-.535.783a17.478,17.478,0,0,0-2.774-1.7ZM253.94,8.37a14.079,14.079,0,0,1-2.163,2.083l-.611-.664a9.127,9.127,0,0,0,2.048-2.069Z"/><path class="cls-1" d="M261.705,15.693a12.147,12.147,0,0,0,.063,1.274h-.942v-.731h-3.677V17.4H256.2a14.362,14.362,0,0,0,.077-1.725V8.926a12.867,12.867,0,0,0-.051-1.325,12.066,12.066,0,0,0,1.3.052h2.94a12.4,12.4,0,0,0,1.3-.052,9.269,9.269,0,0,0-.051,1.113h3.829a11.164,11.164,0,0,0,1.54-.079V9.709a10,10,0,0,0-1.5-.066h-.166v7.841c0,.928-.242,1.127-1.437,1.127-.408,0-.967-.014-1.387-.04a4.8,4.8,0,0,0-.179-1.021,12.358,12.358,0,0,0,1.566.12c.381,0,.483-.066.483-.305V9.643h-2.748Zm-4.556-4.312h1.387V8.543h-1.387Zm0,3.966h1.387V12.256h-1.387Zm2.252-3.966h1.438V8.543H259.4Zm0,3.966h1.438V12.256H259.4Z"/><path class="cls-1" d="M268.133,19.234a9.275,9.275,0,0,0,0-12.6h1.006a9.277,9.277,0,0,1,0,12.6Z"/><path class="cls-1" d="M2.16,35.37a9.031,9.031,0,0,0-1.446.067V34.362a10.325,10.325,0,0,0,1.432.08H9.872a10.965,10.965,0,0,0,1.446-.08v1.075a9.916,9.916,0,0,0-1.446-.067h-3.4v2.64H9.243a10.8,10.8,0,0,0,1.325-.066v1.061a8.262,8.262,0,0,0-1.3-.066h-2.8v3.184h3.936a12.018,12.018,0,0,0,1.513-.081v1.115a10.678,10.678,0,0,0-1.486-.093H1.745a10.7,10.7,0,0,0-1.54.093V42.042a11.165,11.165,0,0,0,1.513.081H5.387V38.939H2.856a9.149,9.149,0,0,0-1.352.066V37.944a8.083,8.083,0,0,0,1.3.066H5.387V35.37Zm2.41-3.609a16.784,16.784,0,0,1,3.2,1.554l-.656.835a13.419,13.419,0,0,0-3.267-1.632Z"/><path class="cls-1" d="M19.183,42.083c0,.742.014,1.114.054,1.606H18.112a10.444,10.444,0,0,0,.08-1.593V38.409c0-.544.014-1.181.041-1.844a8.726,8.726,0,0,1-1.1,1.632,5.073,5.073,0,0,0-.509-1.01,10.854,10.854,0,0,0,2.236-3.82,7.557,7.557,0,0,0,.388-1.579l1.044.319c-.08.225-.08.225-.2.623a19.192,19.192,0,0,1-.911,2.256Zm7.7-3.7a8.837,8.837,0,0,0,1.178-.053v.915A11.172,11.172,0,0,0,26.9,39.19H25.209v1.049H26.9a8.992,8.992,0,0,0,1.179-.053V41.1a11.017,11.017,0,0,0-1.165-.052h-1.7v1.193h2.3a6.393,6.393,0,0,0,1.165-.066v.981a11.468,11.468,0,0,0-1.325-.079H21.807v.65h-1a10.552,10.552,0,0,0,.08-1.42V39.085c0-.332,0-.478.027-.969a6.4,6.4,0,0,1-1.018,1.327,2.385,2.385,0,0,0-.589-.783,8.74,8.74,0,0,0,2.477-3.542l.964.278c-.389.7-.469.837-.629,1.1h2.2a4.66,4.66,0,0,0,.71-1.381l.951.239c-.348.623-.483.849-.683,1.142h2.088a7.973,7.973,0,0,0,1.219-.068v.956c-.335-.027-.723-.053-1.138-.053H25.209v1.048Zm-3.04-5.44a4.817,4.817,0,0,0-.08-1.008h1.1a5.063,5.063,0,0,0-.067,1.008v1.142H27.2v-.677a8.919,8.919,0,0,0-.04-.929h1.071a6.029,6.029,0,0,0-.067.955v.717a6.131,6.131,0,0,0,.041.809c-.469-.026-.6-.026-.964-.026H21.58a8.639,8.639,0,0,0-.937.026c.027-.331.027-.517.027-.822v-.744a6.743,6.743,0,0,0-.067-.915h1.071a6.075,6.075,0,0,0-.054.942v.664h2.222Zm.456,5.44V37.334H21.807v1.048Zm-2.491,1.857H24.3V39.19H21.807Zm0,2H24.3V41.049H21.807Z"/><path class="cls-1" d="M35.272,34.084v1.724H33.505V34.084Zm0,5.624v1.738H33.505V39.708Z"/><path class="cls-1" d="M176.926,32.192c0-.7-.037-1.341-.091-1.929a15.272,15.272,0,0,0,2,.093h8.719a13.6,13.6,0,0,0,1.926-.093,16,16,0,0,0-.091,1.855v11.6a14.846,14.846,0,0,0,.11,2.186h-2.166V44.824h-8.369v1.084h-2.148a18.7,18.7,0,0,0,.11-2.186Zm2.038,4.26h8.369V32.265h-8.369Zm0,6.482h8.369V38.343h-8.369Z"/><path class="cls-1" d="M192.482,37.058a5.568,5.568,0,0,0,.881.055c.037,0,.423,0,.624-.018a13.52,13.52,0,0,0,.863-1.157,18.231,18.231,0,0,0-2.441-2.792l.936-1.524c.367.349.459.46.7.717a13.116,13.116,0,0,0,1.376-3.03l1.817.735a10.666,10.666,0,0,0-.661,1.248,23.83,23.83,0,0,1-1.358,2.314c.331.4.386.476.661.808a16.267,16.267,0,0,0,1.707-3.122l1.6.936A16.58,16.58,0,0,0,198.1,33.9c-.569.882-1.578,2.332-2.221,3.141.881-.038,1.358-.075,1.964-.148-.2-.514-.294-.753-.606-1.451l1.212-.587A24.227,24.227,0,0,1,199.9,38.6l-1.377.679c-.092-.422-.129-.606-.2-.881-.6.091-.789.111-1.211.147v5.692a10.592,10.592,0,0,0,.11,1.89h-1.982a13.222,13.222,0,0,0,.11-1.909V38.71c-.844.054-.844.054-1.5.111a4.751,4.751,0,0,0-1.157.109Zm2.277,2.772a26.548,26.548,0,0,1-.625,5.436l-1.652-.681a16.771,16.771,0,0,0,.717-5.049Zm4.2-.4a18.868,18.868,0,0,1,.569,3.819l-1.523.44a19.515,19.515,0,0,0-.386-3.893Zm7.453.091a14.238,14.238,0,0,0,1.743-.091v1.89a16.784,16.784,0,0,0-1.743-.073H204.78v2.5H207a12.549,12.549,0,0,0,1.927-.092V45.6a14.476,14.476,0,0,0-1.964-.111h-5.91a14.863,14.863,0,0,0-1.964.111V43.667a14.156,14.156,0,0,0,1.707.074h2.11v-2.5H201.7c-.68,0-1.212.018-1.8.073v-1.89a11.288,11.288,0,0,0,1.8.091h1.21v-.349a11.212,11.212,0,0,0-.091-1.726h2.056a10.3,10.3,0,0,0-.092,1.708v.367ZM208.34,31.2c-.623.954-1.247,1.872-1.413,2.111a14.988,14.988,0,0,1-1.56,1.726,12.94,12.94,0,0,0,3.836,1.34,6.434,6.434,0,0,0-.826,1.946,15.967,15.967,0,0,1-4.533-2.038,15.751,15.751,0,0,1-3.322,1.8,7.267,7.267,0,0,0-1.175-1.69,12.226,12.226,0,0,0,3.01-1.321,10.56,10.56,0,0,1-2.239-3.122c-.441.018-.661.036-.973.073V30.1a16.319,16.319,0,0,0,1.983.091h4.68a9.166,9.166,0,0,0,1.413-.073Zm-6.277.752a6.665,6.665,0,0,0,1.744,2.074,8.784,8.784,0,0,0,1.836-2.074Z"/><path class="cls-1" d="M212.664,44.751V30.943h4.717c2.643,0,4.13,1.083,4.13,3.25a3.06,3.06,0,0,1-2.314,3.2,3.162,3.162,0,0,1,2.791,3.342c0,2.46-1.616,4.021-4.405,4.021Zm2.386-11.824v3.708h1.634c1.615,0,2.349-.716,2.349-1.891,0-1.193-.624-1.817-2.185-1.817Zm0,5.6v4.241h1.963c1.6,0,2.442-.808,2.442-2.241,0-1.358-.991-2-2.625-2Z"/><path class="cls-1" d="M224.717,44.751V30.943h4.57c2.661,0,4.5,1.506,4.5,4.168a4.513,4.513,0,0,1-4.791,4.81h-1.854v4.83Zm2.422-11.733v4.829h1.469a2.266,2.266,0,0,0,2.533-2.5,2.154,2.154,0,0,0-2.423-2.332Z"/><path class="cls-1" d="M39.805,32.192c0-.7-.037-1.341-.091-1.929a15.253,15.253,0,0,0,2,.093h8.718a13.6,13.6,0,0,0,1.927-.093,16,16,0,0,0-.092,1.855v11.6a14.985,14.985,0,0,0,.11,2.186H50.212V44.824h-8.37v1.084H39.7a18.7,18.7,0,0,0,.11-2.186Zm2.037,4.26h8.37V32.265h-8.37Zm0,6.482h8.37V38.343h-8.37Z"/><path class="cls-1" d="M57.747,34.414a20.108,20.108,0,0,0-2.148.11v-2.2a15,15,0,0,0,2.148.13h4.625V31.164a11.111,11.111,0,0,0-.11-1.671H64.5a10.813,10.813,0,0,0-.111,1.671v1.285h4.864a14.182,14.182,0,0,0,2.184-.13v2.2a20.784,20.784,0,0,0-2.184-.11H65.419a17.53,17.53,0,0,0,2.7,3.781,15.175,15.175,0,0,0,3.928,3.013,6.974,6.974,0,0,0-1.23,1.945,19.481,19.481,0,0,1-3.029-2.478V42.7a16.324,16.324,0,0,0-1.779-.093H64.391v1.231a16,16,0,0,0,.129,2.24H62.244a16.7,16.7,0,0,0,.128-2.24V42.6H60.941a16.692,16.692,0,0,0-1.8.093v-2a16.856,16.856,0,0,1-2.919,2.516,6.166,6.166,0,0,0-1.211-1.892,16.819,16.819,0,0,0,6.259-6.9Zm4.625,3.433a17.353,17.353,0,0,1,.147-2.02A18,18,0,0,1,59.234,40.6a11.323,11.323,0,0,0,1.615.073h1.523Zm3.763,2.828a11.055,11.055,0,0,0,1.578-.073,19.141,19.141,0,0,1-3.487-4.775,14.6,14.6,0,0,1,.165,2v2.847Z"/><path class="cls-1" d="M73.707,37.058a5.551,5.551,0,0,0,.881.055c.037,0,.422,0,.624-.018a13.328,13.328,0,0,0,.862-1.157,18.227,18.227,0,0,0-2.44-2.792l.936-1.524c.367.349.458.46.7.717a13.073,13.073,0,0,0,1.376-3.03l1.818.735a10.316,10.316,0,0,0-.661,1.248,24.036,24.036,0,0,1-1.358,2.314c.33.4.385.476.66.808a16.29,16.29,0,0,0,1.708-3.122l1.6.936A16.58,16.58,0,0,0,79.323,33.9c-.569.882-1.578,2.332-2.221,3.141.881-.038,1.359-.075,1.964-.148-.2-.514-.293-.753-.605-1.451l1.211-.587a24.126,24.126,0,0,1,1.45,3.746l-1.377.679c-.091-.422-.128-.606-.2-.881-.606.091-.79.111-1.212.147v5.692a10.688,10.688,0,0,0,.11,1.89H76.46a13.222,13.222,0,0,0,.11-1.909V38.71c-.844.054-.844.054-1.5.111a4.732,4.732,0,0,0-1.156.109Zm2.276,2.772a26.624,26.624,0,0,1-.624,5.436l-1.652-.681a16.778,16.778,0,0,0,.715-5.049Zm4.2-.4a19.017,19.017,0,0,1,.569,3.819l-1.523.44a19.663,19.663,0,0,0-.386-3.893Zm7.451.091a14.262,14.262,0,0,0,1.745-.091v1.89a16.811,16.811,0,0,0-1.745-.073H86v2.5h2.221a12.549,12.549,0,0,0,1.927-.092V45.6a14.47,14.47,0,0,0-1.963-.111H82.278a14.852,14.852,0,0,0-1.964.111V43.667a14.174,14.174,0,0,0,1.708.074h2.11v-2.5H82.921c-.68,0-1.212.018-1.8.073v-1.89a11.288,11.288,0,0,0,1.8.091h1.211v-.349a11.041,11.041,0,0,0-.092-1.726H86.1A10.407,10.407,0,0,0,86,39.151v.367ZM89.565,31.2c-.624.954-1.248,1.872-1.413,2.111a15.081,15.081,0,0,1-1.56,1.726,12.94,12.94,0,0,0,3.836,1.34,6.409,6.409,0,0,0-.826,1.946,15.974,15.974,0,0,1-4.534-2.038,15.7,15.7,0,0,1-3.322,1.8,7.231,7.231,0,0,0-1.174-1.69,12.235,12.235,0,0,0,3.009-1.321,10.6,10.6,0,0,1-2.239-3.122c-.441.018-.66.036-.973.073V30.1a16.336,16.336,0,0,0,1.982.091h4.681a9.15,9.15,0,0,0,1.413-.073Zm-6.277.752a6.675,6.675,0,0,0,1.743,2.074,8.806,8.806,0,0,0,1.836-2.074Z"/><path class="cls-1" d="M93.264,34.027a15.7,15.7,0,0,1,2.973,2.093,14.7,14.7,0,0,0,4.754-1.082,10.383,10.383,0,0,1-2.423-2.4,9.1,9.1,0,0,0-1.6.091v-.66L95.815,33.44A13.547,13.547,0,0,0,92.787,31l1.247-1.432a22.9,22.9,0,0,1,2.937,2.222V30.87a12.055,12.055,0,0,0,1.854.092h2.662v-.221a6.944,6.944,0,0,0-.093-1.3h2.13a6.639,6.639,0,0,0-.092,1.285v.239h3.395a15.262,15.262,0,0,0,1.872-.092v1.854a10.527,10.527,0,0,0-1.725-.091h-.4a9.654,9.654,0,0,1-2.239,2.387,17.1,17.1,0,0,0,4.791,1.119,4.4,4.4,0,0,0-.808,1.782c-.771-.148-.973-.184-1.541-.313v6.353a15.256,15.256,0,0,0,.11,2.057h-2.075a16.023,16.023,0,0,0,.11-2.057V42.64H99.467a6.914,6.914,0,0,1-2.385,3.469A4.568,4.568,0,0,0,95.5,44.7c2.111-1.616,2.624-2.994,2.661-7.05-.422.073-.642.127-1.321.237a3.849,3.849,0,0,0-.551-1.451l-1.028,1.489a13.5,13.5,0,0,0-3.156-2.406Zm3.175,6.024a27.156,27.156,0,0,1-1.872,4.664c-.092.182-.331.624-.68,1.284L92.2,44.512a5.041,5.041,0,0,0,.716-.991,21.451,21.451,0,0,0,1.927-4.627Zm3.524-.423c-.037.569-.055.808-.128,1.359h5.083V39.628Zm4.955-2.552a17.174,17.174,0,0,1-2.257-.992,13.918,13.918,0,0,1-2.607,1.084c0,.385,0,.385-.017.808h4.881ZM100.7,32.633a6.122,6.122,0,0,0,1.89,1.542,5.69,5.69,0,0,0,1.744-1.542Z"/><path class="cls-1" d="M112.655,37.058a13.055,13.055,0,0,0-1.633.073V35.2a9.31,9.31,0,0,0,1.652.092h.44a8.023,8.023,0,0,0-.789-2.131l1.579-.385h-.844a13.481,13.481,0,0,0-1.689.073V30.925a10.124,10.124,0,0,0,1.725.091h1.377v-.275a6.888,6.888,0,0,0-.092-1.321h2.166a6.68,6.68,0,0,0-.074,1.321v.275h1.211a10.039,10.039,0,0,0,1.689-.091v1.927a14.243,14.243,0,0,0-1.689-.073h-.752l1.542.442c-.111.237-.111.237-.294.605-.092.2-.092.2-.293.679a5.424,5.424,0,0,1-.405.79h.368A9.569,9.569,0,0,0,119.5,35.2v1.928a13.59,13.59,0,0,0-1.652-.073H116.4v1.285h1.376a9.934,9.934,0,0,0,1.652-.092v1.891a13.382,13.382,0,0,0-1.652-.073h-.66a7.713,7.713,0,0,0,1.853,1.578,12.619,12.619,0,0,0-.863,1.708,8.469,8.469,0,0,1-1.762-1.928c.019.22.019.22.037.68,0,.073.019.624.019.716v1.8a8.741,8.741,0,0,0,.091,1.487h-2.055a10.4,10.4,0,0,0,.092-1.431V42.9c0-.349.018-.825.036-1.23a8.828,8.828,0,0,1-2.973,3.324,6.13,6.13,0,0,0-.9-1.837,9.04,9.04,0,0,0,3.138-3.084h-1.156a9.846,9.846,0,0,0-1.634.091V38.251a9.649,9.649,0,0,0,1.671.092h1.817V37.058Zm1.377-4.279a7.646,7.646,0,0,1,.771,2.093l-1.615.423h2.478a11.179,11.179,0,0,0,1.027-2.516Zm12,2.185a9.035,9.035,0,0,0,1.653-.11v2a10.174,10.174,0,0,0-1.45-.074H125.8v7.234a12.253,12.253,0,0,0,.11,2.111H123.8a14.8,14.8,0,0,0,.11-2.111V36.782h-1.928a23.989,23.989,0,0,1-.661,5.8,11.19,11.19,0,0,1-1.615,3.6,7.663,7.663,0,0,0-1.78-1.176c1.707-2.093,2.166-4.443,2.166-11.238a23.809,23.809,0,0,0-.11-2.808c2.037-.055,5.139-.845,6.056-1.542l1.487,1.744c-.2.073-.275.091-.606.2A25.567,25.567,0,0,1,122,32.6V34.67l-.019.294Z"/><path class="cls-1" d="M129.937,31.971a19.561,19.561,0,0,0-.074-2.02,15.38,15.38,0,0,0,1.836.074h3.249a14.982,14.982,0,0,0,1.835-.074c-.037.569-.055.974-.055,1.671v2.46c0,.808.018,1.232.036,1.617-.422-.037-1.046-.055-1.652-.055h-3.285v8.262a14.958,14.958,0,0,0,.11,2.185h-2.111a15.539,15.539,0,0,0,.111-2.221Zm1.89.2h3.139v-.735h-3.139Zm0,2.02h3.139v-.771h-3.139Zm2.2,3.783c-.643.018-.918.036-1.285.073v-1.69a14.1,14.1,0,0,0,1.67.073h6.167a13.705,13.705,0,0,0,1.67-.073v1.69a9.477,9.477,0,0,0-1.339-.073v5.967a12.456,12.456,0,0,0,.073,1.671h-1.835a9.859,9.859,0,0,0,.091-1.635V43.8c-.972.109-1.376.146-5.249.549a10.551,10.551,0,0,0-1.083.148l-.239-1.781c.276.018.276.018.368.018.2,0,.734-.018.991-.036Zm1.67.661h3.542v-.661H135.7Zm0,1.928h3.542v-.68H135.7Zm0,2.037c1.707-.128,1.744-.128,3.542-.312v-.477H135.7Zm2.367-10.98c0-.679-.018-1.138-.054-1.671a14.961,14.961,0,0,0,1.835.074h3.414a15.35,15.35,0,0,0,1.835-.074c-.055.588-.073,1.139-.073,2v11.9c0,1.744-.367,2.056-2.349,2.056-.294,0-.349,0-.955-.018a5.222,5.222,0,0,0-.477-1.929,8.764,8.764,0,0,0,1.285.11c.513,0,.605-.073.605-.458V35.644h-3.468c-.588,0-1.23.018-1.652.055.036-.46.054-.845.054-1.617Zm1.781.551h3.285v-.735h-3.285Zm0,2.02h3.285v-.771h-3.285Z"/><path class="cls-1" d="M152.119,44.273a10.055,10.055,0,0,0,.11,1.836h-2.184a10.617,10.617,0,0,0,.11-1.872V39.72a13.6,13.6,0,0,1-2,1.524,7.1,7.1,0,0,0-.918-1.874,12.117,12.117,0,0,0,3.1-2.423,11.706,11.706,0,0,0,1.964-2.772h-2.936a12.089,12.089,0,0,0-1.524.073v-2a10.641,10.641,0,0,0,1.414.073h.917V30.814a7.986,7.986,0,0,0-.11-1.376h2.166a9.823,9.823,0,0,0-.092,1.394v1.487h.753a6.428,6.428,0,0,0,1.028-.054l.862.936c-.165.275-.257.459-.4.753A14.061,14.061,0,0,1,152.6,37.04a9.963,9.963,0,0,0,2.845,2.275,7.571,7.571,0,0,0-.973,1.781,10.24,10.24,0,0,1-2.349-2.038Zm7.635-.845H161.9a19.873,19.873,0,0,0,2.074-.091v2.148a18.372,18.372,0,0,0-2.055-.11h-6.167a17.491,17.491,0,0,0-2.019.11V43.337a20.557,20.557,0,0,0,2.056.091h1.964V36.4h-1.34a17.735,17.735,0,0,0-1.781.093V34.45a11.888,11.888,0,0,0,1.781.092h1.34V31.365a15.631,15.631,0,0,0-.11-1.872h2.22a12.473,12.473,0,0,0-.11,1.872v3.177h1.909a11.321,11.321,0,0,0,1.762-.092v2.039a17.351,17.351,0,0,0-1.762-.093h-1.909Z"/><path class="cls-1" d="M315.786,9.766c-.923,3.581-3.079,5.586-6.721,6.672l-.576-.981c3.307-.888,5.249-2.706,6.025-5.346h-8.14V9.077h8.783Zm-1.3-3.661V7.126h-6.855V6.105Z"/><path class="cls-1" d="M328.929,10.283v1.168H318.271V10.283Z"/><path class="cls-1" d="M341.108,13.759v1.074H330.45V13.759Zm-9.439-6.487h8.207V8.347h-8.207Z"/><path class="cls-1" d="M344.21,6.437a17.344,17.344,0,0,1,3.172,2.547l-.87.9a17.891,17.891,0,0,0-3.025-2.693Zm-.456,8.463c4.084-.889,7.163-3.105,8.623-7l1.044.61c-1.553,4.138-4.94,6.514-9.319,7.456Z"/><path class="cls-1" d="M363.953,7.5l.6.7a12.965,12.965,0,0,1-7.351,8.424l-.776-.929a12.121,12.121,0,0,0,6.814-7.217h-4.31a13.425,13.425,0,0,1-2.866,2.892l-.776-.664a12.7,12.7,0,0,0,4.07-5.292l1.151.359a14.433,14.433,0,0,1-.924,1.724Zm.348-2.6a9.379,9.379,0,0,1,1.112,2.321l-.844.319a9.9,9.9,0,0,0-1.044-2.389Zm1.553-.558a8.962,8.962,0,0,1,1.206,2.3l-.831.319a8.329,8.329,0,0,0-1.124-2.322Z"/><path class="cls-1" d="M373.361,16.333h-1.192V9.926a24.476,24.476,0,0,1-4.5,2.215l-.669-.9a20.282,20.282,0,0,0,8.569-5.745l1.071.743a23.159,23.159,0,0,1-3.28,2.892Z"/><path class="cls-1" d="M386.745,6.437a13.429,13.429,0,0,1-8.127,9.537l-.67-.981a12.279,12.279,0,0,0,7.632-8.875Z"/><path class="cls-1" d="M388.28,11.8a27.32,27.32,0,0,0,3.187-3.342,1.293,1.293,0,0,1,1.018-.584,1.359,1.359,0,0,1,1,.518,43.7,43.7,0,0,0,6.226,5.411l-.816,1.076A51.464,51.464,0,0,1,392.819,9.2a.415.415,0,0,0-.3-.173c-.093,0-.174.066-.267.173A33.824,33.824,0,0,1,389,12.671Zm8.341-4.682a9.625,9.625,0,0,1,1.446,2.149l-.789.425A8.506,8.506,0,0,0,395.9,7.511Zm1.46-.729a9.282,9.282,0,0,1,1.473,2.122l-.777.411a9.392,9.392,0,0,0-1.406-2.136Z"/><path class="cls-1" d="M411.692,10.283v1.168H401.034V10.283Z"/><path class="cls-1" d="M414.5,8.9a14.915,14.915,0,0,1,3.267,1.605l-.562.981a18.221,18.221,0,0,0-3.227-1.7Zm-.228,6.089c4.191-.624,7.27-2.52,9.051-6.394l.951.729c-1.941,4.1-5.182,6.049-9.68,6.805Zm1.366-9.18a14.252,14.252,0,0,1,3.187,1.578l-.563.969A16.749,16.749,0,0,0,415.115,6.7Z"/><path class="cls-1" d="M427.615,12.273v-.968h5.851V9.116H427.16V8.148h7.35v8.5h-1.044V15.8H427.08v-.969h6.386v-2.56Z"/><path class="cls-1" d="M438.348,6.437a17.316,17.316,0,0,1,3.173,2.547l-.869.9a17.934,17.934,0,0,0-3.026-2.693Zm-.455,8.463c4.084-.889,7.163-3.105,8.623-7l1.044.61c-1.553,4.138-4.941,6.514-9.319,7.456Z"/><path class="cls-1" d="M452.469,6.5a8.306,8.306,0,0,0-.081-1.34h1.178a8.336,8.336,0,0,0-.08,1.34V7.616h3.307V6.53a7.758,7.758,0,0,0-.08-1.354H457.9a9.418,9.418,0,0,0-.08,1.34v1.1h1.312a10.556,10.556,0,0,0,1.419-.078v1.1a12.649,12.649,0,0,0-1.419-.066h-1.312V11.69h1.607a12.733,12.733,0,0,0,1.593-.093v1.154a10.625,10.625,0,0,0-1.593-.093h-8.516a10.351,10.351,0,0,0-1.566.093V11.6a10.591,10.591,0,0,0,1.566.093h1.554V8.572h-1.192a9.5,9.5,0,0,0-1.366.066v-1.1a9.987,9.987,0,0,0,1.366.078h1.192Zm1.566,7.243a10.053,10.053,0,0,1-2.088,1.977,10.452,10.452,0,0,1-1.835,1.047,2.781,2.781,0,0,0-.723-.876,8.107,8.107,0,0,0,2.129-1.1,6.259,6.259,0,0,0,1.62-1.618Zm2.758-2.056V8.572h-3.307V11.69Zm.335,1.472a6.522,6.522,0,0,0,1.794,1.685,10.311,10.311,0,0,0,2.089,1.074,4.148,4.148,0,0,0-.723.9,10.138,10.138,0,0,1-2.277-1.366,10.523,10.523,0,0,1-1.754-1.7Z"/><path class="cls-1" d="M464.874,15.206c0,.742.014,1.113.054,1.605H463.8a10.429,10.429,0,0,0,.08-1.593V11.531c0-.544.014-1.181.041-1.844a8.775,8.775,0,0,1-1.1,1.632,5.091,5.091,0,0,0-.509-1.009,10.874,10.874,0,0,0,2.236-3.821,7.557,7.557,0,0,0,.388-1.579l1.044.32c-.08.224-.08.224-.2.622a18.993,18.993,0,0,1-.91,2.256Zm7.7-3.7a8.837,8.837,0,0,0,1.178-.053v.915a11.456,11.456,0,0,0-1.165-.053H470.9v1.048h1.687a8.992,8.992,0,0,0,1.179-.053v.915a11.291,11.291,0,0,0-1.165-.052h-1.7v1.193h2.3a6.309,6.309,0,0,0,1.165-.066v.981a11.461,11.461,0,0,0-1.325-.078H467.5v.649h-1a10.369,10.369,0,0,0,.081-1.42V12.207c0-.332,0-.478.027-.968a6.43,6.43,0,0,1-1.018,1.327,2.388,2.388,0,0,0-.589-.783,8.75,8.75,0,0,0,2.477-3.543l.964.279c-.389.7-.469.836-.629,1.1H470a4.656,4.656,0,0,0,.709-1.381l.952.239c-.349.623-.483.849-.683,1.142h2.088a7.855,7.855,0,0,0,1.219-.068v.956c-.335-.027-.723-.053-1.138-.053H470.9V11.5Zm-3.04-5.44a4.806,4.806,0,0,0-.08-1.007h1.1a5.052,5.052,0,0,0-.067,1.007V7.206h2.41V6.53a8.892,8.892,0,0,0-.04-.929h1.071a6.005,6.005,0,0,0-.067.954v.717a6.138,6.138,0,0,0,.041.81c-.469-.027-.6-.027-.964-.027H467.27a8.34,8.34,0,0,0-.937.027c.027-.332.027-.518.027-.823V6.516a6.886,6.886,0,0,0-.066-.915h1.071a5.938,5.938,0,0,0-.054.941v.664h2.222Zm.456,5.44V10.456H467.5V11.5ZM467.5,13.361h2.491V12.313H467.5Zm0,2h2.491V14.171H467.5Z"/><path class="cls-1" d="M480.963,7.206V8.931H479.2V7.206Zm0,5.624v1.739H479.2V12.83Z"/><line class="cls-2" x1="293.5" x2="293.5" y2="62"/><path class="cls-1" d="M316.522,39.058V29.9a12.537,12.537,0,0,1,.073-1.454l.013-.127-.127.018a10.981,10.981,0,0,1-1.507.071h-6.886a12.206,12.206,0,0,1-1.567-.071l-.125-.017.012.125c.049.522.072,1.017.072,1.513v9.1a14.73,14.73,0,0,1-.086,1.713l-.013.111h1.908v-.855h6.41v.855h1.926l-.017-.114A11.754,11.754,0,0,1,316.522,39.058Zm-8.233-5.841V30.112h6.41v3.105Zm6.41,1.694v3.422h-6.41V34.911Z"/><path class="cls-1" d="M332.332,37.137l.082-.1-.111-.058a11.832,11.832,0,0,1-3.076-2.358,13.4,13.4,0,0,1-2.034-2.817h2.86a16.464,16.464,0,0,1,1.716.087l.108.01V29.939l-.114.018a11.309,11.309,0,0,1-1.71.1h-3.742v-.914a8.734,8.734,0,0,1,.085-1.3l.018-.115h-2l.017.114a8.626,8.626,0,0,1,.087,1.306v.914h-3.554a11.956,11.956,0,0,1-1.684-.1l-.112-.015v1.963l.109-.01a15.883,15.883,0,0,1,1.687-.087h2.622a13.123,13.123,0,0,1-4.835,5.265l-.1.063.079.089a4.8,4.8,0,0,1,.94,1.467l.05.11.1-.069a13.227,13.227,0,0,0,2.149-1.818v1.442l.109-.011a12.915,12.915,0,0,1,1.411-.073h1.032v.872a13.129,13.129,0,0,1-.1,1.755l-.016.113h2.027l-.017-.115a12.658,12.658,0,0,1-.1-1.753v-.872h1.176a12.708,12.708,0,0,1,1.4.073l.109.011V36.886a15.185,15.185,0,0,0,2.237,1.8l.1.067.049-.109A5.365,5.365,0,0,1,332.332,37.137Zm-7.758-3.779c-.038.4-.056.758-.056,1.061v2.132h-1.1c-.518,0-.81-.008-1.07-.034A13.992,13.992,0,0,0,324.574,33.358Zm3.015,3.193h-1.278V34.4a10.584,10.584,0,0,0-.067-1.094,14.455,14.455,0,0,0,2.375,3.207A10.2,10.2,0,0,1,327.589,36.551Z"/><path class="cls-1" d="M343.3,28.309a20.965,20.965,0,0,1-9.177,6.146L334,34.5l1.166,1.62.071-.028a25.561,25.561,0,0,0,4.257-2.073v6.472h2.04V32.613a24.963,24.963,0,0,0,3.41-3.114l.076-.083-1.66-1.176Z"/><rect class="cls-1" x="345.518" y="33.319" width="10.688" height="2.026"/><path class="cls-1" d="M360.942,38.917l-.127.035,1.021,1.715.073-.02a9.456,9.456,0,0,0,7.231-7.319l.013-.053-.965-1.04-.029-.032h-9.623v1.78h8.4C366.09,36.454,364.183,38.023,360.942,38.917Z"/><rect class="cls-1" x="359.928" y="28.882" width="7.795" height="1.81"/><rect class="cls-1" x="371.473" y="33.319" width="10.688" height="2.026"/><rect class="cls-1" x="384.215" y="37.015" width="11.912" height="1.896"/><rect class="cls-1" x="385.534" y="30.159" width="9.259" height="1.896"/><path class="cls-1" d="M401.551,33.5l.072.082,1.458-1.538-.061-.069a14.035,14.035,0,0,0-3.461-2.8l-.068-.039L398.2,30.506l.094.066A20.076,20.076,0,0,1,401.551,33.5Z"/><path class="cls-1" d="M398.435,38.247l.692,1.883.085-.019c5.036-1.12,8.555-3.958,10.176-8.208l.029-.077-1.724-1.063-.044.112c-1.487,3.848-4.465,6.251-9.105,7.346Z"/><path class="cls-1" d="M412.4,35.252a15.736,15.736,0,0,0,3.093-3.183h3.722a12.481,12.481,0,0,1-7.117,7.085l-.122.053,1.292,1.6.07-.031a14.627,14.627,0,0,0,8.272-9.221l.019-.055-1.04-1.149H416.6c.282-.5.547-1.021.788-1.555l.047-.105-1.935-.564-.035.081a14.635,14.635,0,0,1-4.477,5.758l-.1.075,1.442,1.265Z"/><path class="cls-1" d="M422.813,30.1l.029.1,1.239-.43-.032-.094a9.088,9.088,0,0,0-1.2-2.478l-.044-.059-1.13.4.067.106A9.681,9.681,0,0,1,422.813,30.1Z"/><path class="cls-1" d="M421.045,30.706l.029.1,1.25-.462-.028-.091a9.854,9.854,0,0,0-1.145-2.506l-.042-.06-1.176.364.065.11A10.848,10.848,0,0,1,421.045,30.706Z"/><polygon class="cls-1" points="435.438 40.071 435.438 29.723 425.642 29.723 425.642 31.59 433.44 31.59 433.44 37.102 425.54 37.102 425.54 38.969 433.44 38.969 433.44 40.071 435.438 40.071"/><path class="cls-1" d="M449.641,31.826l-1.724-1.063-.044.112c-1.487,3.848-4.466,6.251-9.105,7.346l-.11.026.693,1.883.085-.019c5.035-1.12,8.553-3.958,10.175-8.208Z"/><path class="cls-1" d="M441.774,33.5l.073.082,1.458-1.538-.062-.069a14.017,14.017,0,0,0-3.461-2.8l-.067-.039-1.293,1.374.094.066A20.028,20.028,0,0,1,441.774,33.5Z"/><path class="cls-1" d="M462.027,29.511l-2.054-.385-.012.108c-.517,4.9-2.555,7.864-6.607,9.6l-.117.049,1.238,1.688.073-.031c4.194-1.79,6.776-5.571,7.468-10.937Z"/><path class="cls-1" d="M453.559,34.38l.038.106,1.892-.931-.032-.085a17.3,17.3,0,0,0-2.305-4.215l-.05-.064-1.773.87.067.095A17.646,17.646,0,0,1,453.559,34.38Z"/><path class="cls-1" d="M469.037,32.122l.091.065.969-1.711-.075-.053a15.131,15.131,0,0,0-3.619-1.839l-.079-.027-.923,1.619.1.044A18.262,18.262,0,0,1,469.037,32.122Z"/><path class="cls-1" d="M475.9,32.662l-1.671-1.253-.051.113c-1.814,3.98-4.749,6.068-9.521,6.77l-.111.016L465.1,40.3l.089-.015c5.293-.9,8.687-3.3,10.684-7.551Z"/><path class="cls-1" d="M467.908,35.545l.09.062.982-1.741-.075-.052a16.121,16.121,0,0,0-3.721-1.868l-.08-.026-.9,1.65.1.042A20.583,20.583,0,0,1,467.908,35.545Z"/><path class="cls-1" d="M479.052,40.557c3.261-1.285,4.716-3.536,4.716-7.3V31.941h-2.04v1.246c0,3.166-.974,4.655-3.719,5.69l-.116.044,1.083,1.666Z"/><path class="cls-1" d="M489.2,30.266l.021-.054-.878-1.1h-10.9v1.8h9.355a7.248,7.248,0,0,1-2.381,2.468l-.1.064,1.225,1.338.071-.046A9.36,9.36,0,0,0,489.2,30.266Z"/><path class="cls-1" d="M489.723,39.983a77.946,77.946,0,0,0,9.459-1.147c.215.476.423.976.617,1.489l.037.1,1.971-.864-.039-.091a19.993,19.993,0,0,0-3.658-5.9l-.054-.058-1.576.925.073.09a21.374,21.374,0,0,1,1.76,2.617c-1.695.273-3.391.426-4.993.557a69.244,69.244,0,0,0,2.929-8.835l.026-.1-2.067-.4-.022.093a68.68,68.68,0,0,1-2.972,9.378c-.557.027-1.148.055-1.746.069l-.112,0,.274,2.088Z"/><path class="cls-1" d="M507.809,41.346h1.732l-.149-.167a9.732,9.732,0,0,1,0-13.637l.149-.167h-1.732l-.03.034a9.934,9.934,0,0,0,0,13.9Z"/><path class="cls-1" d="M517.324,39.718l.07-.022V38.121l-.123.027a9.165,9.165,0,0,1-1.934.259c-1.461,0-2.475-.3-2.657-1.772h5.033V35.2c0-2.255-1.183-3.549-3.245-3.549-2.414,0-3.855,1.706-3.855,4.564,0,1.163.391,3.869,4.014,3.869A9.161,9.161,0,0,0,517.324,39.718Zm-4.613-4.66c.155-1.159.679-1.7,1.641-1.7.633,0,1.288.2,1.36,1.7Z"/><polygon class="cls-1" points="527.064 38 522.136 38 522.136 28.869 519.979 28.869 519.979 39.969 527.064 39.969 527.064 38"/><path class="cls-1" d="M534.491,38.131c-2.848,0-4.234-1.223-4.234-3.741,0-2.36,1.422-3.713,3.9-3.713a9.734,9.734,0,0,1,2.164.258l.124.031V28.932l-.078-.018a11.094,11.094,0,0,0-2.385-.206c-2.781,0-6.028,1.542-6.028,5.885,0,3.518,2.23,5.535,6.116,5.535a17.394,17.394,0,0,0,2.377-.189l.085-.013V37.95l-.118.023A10.72,10.72,0,0,1,534.491,38.131Z"/><path class="cls-1" d="M537.735,41.346h1.733l.029-.033a9.934,9.934,0,0,0,0-13.9l-.029-.034h-1.733l.15.167a9.734,9.734,0,0,1,0,13.637Z"/><path class="cls-1" d="M305.9,51.2v1.779h8.4c-.844,2.471-2.751,4.041-5.991,4.935l-.127.035,1.02,1.716.073-.021a9.456,9.456,0,0,0,7.231-7.32l.014-.053-1-1.071Z"/><rect class="cls-1" x="307.293" y="47.883" width="7.795" height="1.809"/><rect class="cls-1" x="318.707" y="52.319" width="10.688" height="2.025"/><rect class="cls-1" x="331.333" y="56.016" width="11.912" height="1.895"/><rect class="cls-1" x="332.652" y="49.159" width="9.259" height="1.895"/><path class="cls-1" d="M354.638,49.875c-1.488,3.849-4.466,6.251-9.106,7.346l-.109.026.692,1.883.085-.019c5.036-1.12,8.555-3.959,10.176-8.209l.029-.077-1.723-1.062Z"/><path class="cls-1" d="M348.539,52.5l.072.082,1.458-1.538-.061-.068a14.021,14.021,0,0,0-3.461-2.8l-.068-.039-1.292,1.374.093.066A20.034,20.034,0,0,1,348.539,52.5Z"/><path class="cls-1" d="M367.448,49.348H363.46c.285-.5.55-1.028.788-1.556l.048-.1-1.936-.566-.035.082a14.652,14.652,0,0,1-4.476,5.759l-.1.074,1.442,1.265.066-.049a15.774,15.774,0,0,0,3.093-3.185h3.721a12.477,12.477,0,0,1-7.117,7.086l-.122.052,1.292,1.6.07-.033a14.625,14.625,0,0,0,8.273-9.22l.018-.055-1.009-1.116Z"/><path class="cls-1" d="M368.008,46.751l-.042-.06-1.177.365.065.108a10.789,10.789,0,0,1,1.047,2.542l.03.1,1.25-.463-.029-.091A9.874,9.874,0,0,0,368.008,46.751Z"/><path class="cls-1" d="M370.905,48.676a9.067,9.067,0,0,0-1.2-2.479l-.044-.058-1.13.4.068.107A9.71,9.71,0,0,1,369.67,49.1l.028.1,1.24-.43Z"/><path class="cls-1" d="M379.712,47.31a20.981,20.981,0,0,1-9.177,6.145l-.124.045,1.166,1.62.071-.027a25.6,25.6,0,0,0,4.257-2.074V59.49h2.04V51.613a24.963,24.963,0,0,0,3.41-3.114l.077-.084-1.661-1.176Z"/><path class="cls-1" d="M390.48,47.9a13.159,13.159,0,0,1-7.972,9.371l-.11.045,1.154,1.8.078-.034c4.559-1.99,7.471-5.458,8.9-10.6l.027-.1-2.05-.576Z"/><path class="cls-1" d="M400.1,50.437a1.993,1.993,0,0,0-1.42-.727,1.918,1.918,0,0,0-1.441.818,25.2,25.2,0,0,1-3.478,3.523l-.078.062,1.274,1.581.078-.069a31.072,31.072,0,0,0,3.33-3.534c.134-.16.241-.239.328-.239s.173.072.3.225a54.336,54.336,0,0,0,6.319,6l.08.065,1.339-1.778.061-.082-.082-.059A51.544,51.544,0,0,1,400.1,50.437Z"/><path class="cls-1" d="M403.165,49.105l-1.073.59.082.094a10.193,10.193,0,0,1,1.449,2.31l.046.1,1.145-.665-.04-.084a8.92,8.92,0,0,0-1.556-2.288Z"/><path class="cls-1" d="M405.32,51.326l1.135-.636-.044-.085a8.712,8.712,0,0,0-1.585-2.258l-.053-.053-1.059.591.086.093a9.684,9.684,0,0,1,1.474,2.251Z"/><rect class="cls-1" x="408.274" y="52.319" width="10.688" height="2.025"/><path class="cls-1" d="M424.89,54.607l.982-1.741-.075-.053a16.243,16.243,0,0,0-3.722-1.867L422,50.92l-.9,1.649.1.043a20.562,20.562,0,0,1,3.606,1.933Z"/><path class="cls-1" d="M431.071,50.522c-1.813,3.981-4.749,6.068-9.52,6.77l-.112.017.547,1.993.089-.015c5.293-.9,8.688-3.3,10.686-7.551l.034-.074-1.672-1.253Z"/><path class="cls-1" d="M422.293,49.177l.1.043a18.273,18.273,0,0,1,3.533,1.9l.091.066.968-1.712-.074-.052a15.116,15.116,0,0,0-3.619-1.84l-.079-.027Z"/><polygon class="cls-1" points="435.43 51.678 441.968 51.678 441.968 53.508 435.923 53.508 435.923 55.2 441.968 55.2 441.968 57.175 435.343 57.175 435.343 58.838 441.968 58.838 441.968 59.679 443.79 59.679 443.79 50.014 435.43 50.014 435.43 51.678"/><path class="cls-1" d="M450.519,52.5l.072.082,1.458-1.538-.062-.068a14,14,0,0,0-3.461-2.8l-.067-.039-1.293,1.374.094.066A20.076,20.076,0,0,1,450.519,52.5Z"/><path class="cls-1" d="M456.617,49.875c-1.487,3.849-4.466,6.251-9.105,7.346l-.11.026.693,1.883.085-.019c5.035-1.12,8.553-3.958,10.175-8.208l.03-.078-1.724-1.062Z"/><polygon class="cls-1" points="460.631 50.59 468.43 50.59 468.43 56.103 460.529 56.103 460.529 57.969 468.43 57.969 468.43 59.07 470.427 59.07 470.427 48.724 460.631 48.724 460.631 50.59"/><path class="cls-1" d="M482.732,49.875c-1.487,3.849-4.465,6.251-9.105,7.346l-.109.026.692,1.883.085-.019c5.035-1.12,8.554-3.958,10.176-8.208l.029-.078-1.724-1.062Z"/><path class="cls-1" d="M476.634,52.5l.072.082,1.458-1.538-.061-.068a14.021,14.021,0,0,0-3.461-2.8l-.068-.039-1.293,1.374.094.066A20.076,20.076,0,0,1,476.634,52.5Z"/><path class="cls-1" d="M488.325,53.486l1.893-.93-.032-.085a17.285,17.285,0,0,0-2.305-4.216l-.051-.064-1.772.87.067.095a17.681,17.681,0,0,1,2.162,4.224Z"/><path class="cls-1" d="M494.689,48.233c-.516,4.9-2.554,7.865-6.607,9.6l-.116.05,1.237,1.687.073-.031c4.195-1.79,6.777-5.571,7.468-10.937l.012-.093-2.055-.385Z"/><path class="cls-1" d="M500.922,47.557,500,49.177l.1.043a18.262,18.262,0,0,1,3.532,1.9l.091.066.968-1.712-.074-.052A15.116,15.116,0,0,0,501,47.584Z"/><path class="cls-1" d="M508.777,50.522c-1.813,3.981-4.749,6.068-9.52,6.77l-.111.017.546,1.993.089-.015c5.293-.9,8.688-3.3,10.685-7.552l.034-.073-1.671-1.253Z"/><path class="cls-1" d="M502.6,54.607l.982-1.741-.075-.053a16.243,16.243,0,0,0-3.722-1.867l-.079-.026-.9,1.649.1.043a20.562,20.562,0,0,1,3.606,1.933Z"/><path class="cls-1" d="M522.807,48.115H511.9v1.794h9.356a7.242,7.242,0,0,1-2.381,2.469l-.1.063L520,53.78l.071-.046a9.36,9.36,0,0,0,3.59-4.468l.021-.054-.848-1.06Z"/><path class="cls-1" d="M516.194,52.187c0,3.166-.973,4.655-3.718,5.69l-.117.044,1.083,1.666.077-.03c3.261-1.285,4.715-3.536,4.715-7.3V50.941h-2.04Z"/><path class="cls-1" d="M532.446,52.567l-.054-.058-1.576.926.073.089a21.313,21.313,0,0,1,1.76,2.618c-1.7.272-3.391.425-4.993.555a69.089,69.089,0,0,0,2.929-8.835l.026-.1-2.067-.4-.023.093a68.821,68.821,0,0,1-2.971,9.378c-.557.027-1.148.055-1.746.069l-.112,0,.274,2.088.093-.006a78.154,78.154,0,0,0,9.459-1.146c.215.475.423.975.617,1.487l.037.1,1.971-.864-.039-.091A19.993,19.993,0,0,0,532.446,52.567Z"/><path class="cls-1" d="M543.746,46.376h-1.732l-.03.033a9.933,9.933,0,0,0,0,13.9l.03.034h1.732l-.149-.166a9.736,9.736,0,0,1,0-13.638Z"/><polygon class="cls-1" points="547.917 47.869 545.761 47.869 545.761 58.969 552.846 58.969 552.846 57.001 547.917 57.001 547.917 47.869"/><rect class="cls-1" x="554.766" y="47.869" width="2.171" height="11.1"/><path class="cls-1" d="M565.985,57.132c-2.848,0-4.234-1.225-4.234-3.742,0-2.36,1.422-3.713,3.9-3.713a9.734,9.734,0,0,1,2.164.258l.124.031V47.932l-.078-.018a11.035,11.035,0,0,0-2.384-.2c-2.782,0-6.029,1.541-6.029,5.884,0,3.517,2.23,5.535,6.116,5.535a17.2,17.2,0,0,0,2.377-.19l.085-.011V56.95l-.118.023A10.714,10.714,0,0,1,565.985,57.132Z"/><path class="cls-1" d="M570.86,46.409l-.029-.033H569.1l.149.166a9.736,9.736,0,0,1,0,13.638l-.149.166h1.732l.029-.034a9.933,9.933,0,0,0,0-13.9Z"/></g></g></svg>