<svg xmlns="http://www.w3.org/2000/svg" width="210" height="285" viewBox="0 0 210 285"><defs><style>.cls-1{fill:#fff;}.cls-2{fill:#f0eae0;}.cls-3{fill:#827663;}.cls-11,.cls-12,.cls-4,.cls-7,.cls-8,.cls-9{fill:none;}.cls-12,.cls-4,.cls-7{stroke:#241916;stroke-miterlimit:10;}.cls-4{stroke-width:0.531px;}.cls-5{fill:#392712;}.cls-6{fill:#396aa7;}.cls-7{stroke-width:0.531px;}.cls-11,.cls-8,.cls-9{stroke:#655541;stroke-linecap:round;stroke-linejoin:round;}.cls-8{stroke-width:1.919px;}.cls-9{stroke-width:1.418px;}.cls-10{fill:#655541;}.cls-11{stroke-width:1.599px;}.cls-12{stroke-dasharray:1 2;}.cls-13{fill:#241916;}</style></defs><g id="レイヤー_2" data-name="レイヤー 2"><g id="レイヤー_1-2" data-name="レイヤー 1"><rect class="cls-1" width="210" height="285"/><rect class="cls-2" x="14.999" width="182.001" height="285"/><polygon class="cls-3" points="15 32.422 1 14.923 1 60.421 15 74.421 15 32.422"/><polygon class="cls-3" points="196 32.422 210 14.923 210 60.421 196 74.421 196 32.422"/><line class="cls-4" x1="30" y1="165.5" x2="180" y2="165.5"/><rect class="cls-5" y="20" width="210" height="41"/><path class="cls-1" d="M19.815,36.034c0,.168.118.218.252.218.1,0,.353-.016.454-.016.286,0,.269.218.286.487,0,.1-.017.319.117.319a.164.164,0,0,0,.135-.118c.151-.3.352-.756.47-1.058a17.34,17.34,0,0,0,1.041-3.645c.017-.118.051-.3.236-.3s1.175.3,1.427.37c.135.033.3.1.3.269,0,.117-.118.168-.219.2-.168.067-.217.151-.3.471-.168.571-.3,1.125-.471,1.68a.311.311,0,0,0-.033.134c0,.218.168.286.352.286h1.865c.622,0,1.243-.034,1.865-.034.436,0,.436.168.436.84s0,.857-.436.857c-.336,0-.672-.034-1.008-.034-.051,0-.051.034-.051.05,0,.051.068.068.185.085.353.05.554.117.554.268,0,.118-.117.185-.218.236a.474.474,0,0,0-.3.4,14.666,14.666,0,0,1-1.563,4.216.686.686,0,0,0-.118.353.554.554,0,0,0,.135.37A12.533,12.533,0,0,0,28,45.56c.084.067.2.151.2.269A1.61,1.61,0,0,1,27.09,46.92c-.588,0-2.47-2.066-2.857-2.587a.373.373,0,0,0-.3-.167.326.326,0,0,0-.27.134,12.032,12.032,0,0,1-3.292,2.52,1.653,1.653,0,0,1-.538.218c-.285,0-.874-.84-.874-1.109,0-.218.27-.336.605-.52a10.661,10.661,0,0,0,3.243-2.554.583.583,0,0,0,.168-.386.841.841,0,0,0-.084-.353,14.373,14.373,0,0,1-.924-2.806c-.034-.067-.068-.134-.152-.134s-.117.05-.168.117c-.1.185-.251.5-.52.5a.767.767,0,0,1-.319-.1.335.335,0,0,0-.135-.033.232.232,0,0,0-.2.168A8.234,8.234,0,0,1,18.22,41.6a.383.383,0,0,0-.152.2.33.33,0,0,0,.336.286c.034,0,.068-.017.1-.017.706-.151,1.394-.285,2.066-.47a1.458,1.458,0,0,1,.369-.067c.337,0,.337.588.337.823,0,.454-.085.554-.4.638-.773.2-1.562.386-2.353.555-.352.067-.453.218-.453.554v.319c0,.319.034.655.034.975,0,1.108-.471,1.646-2.454,1.646-.268,0-.671.017-.856-.218a2.01,2.01,0,0,1-.269-1.042c0-.218.068-.42.32-.42.067,0,.168.017.218.017a3.6,3.6,0,0,0,.605.017c.806,0,.823-.236.806-.975,0-.218-.084-.4-.336-.4-.033,0-.067.017-.1.017-.42.067-.739.135-.991.168-.873.151-.891.134-.991.369a.277.277,0,0,1-.218.168c-.2,0-.235-.168-.354-.52a7.7,7.7,0,0,1-.3-1.092c0-.235.268-.235.453-.252q1.209-.151,2.419-.353c.319-.084.4-.185.42-.521a5.018,5.018,0,0,0-.034-.5v-.118c0-.2.168-.2.32-.2a.709.709,0,0,0,.219-.067c.184-.135,1.091-.773,1.091-.958,0-.134-.218-.117-.588-.117h-.286a.833.833,0,0,0-.739.3c-.352.353-2.032,2.066-2.419,2.066a1.531,1.531,0,0,1-.991-.839c0-.152.336-.421.772-.791a5.736,5.736,0,0,0,.538-.453.125.125,0,0,0,.05-.117.136.136,0,0,0-.15-.135h-.168c-.387,0-.387-.218-.387-.689,0-.521,0-.705.387-.705.486,0,.974.05,1.461.033a.646.646,0,0,0,.622-.268c.117-.135.235-.286.352-.42a.3.3,0,0,0,.068-.152c0-.151-.118-.184-.252-.2H14.759c-.471,0-.907.033-1.243.033-.3,0-.287-.2-.287-.722,0-.537-.016-.739.287-.739.352,0,.789.034,1.243.034h.47c.335,0,.47-.135.47-.454v-.471c0-.336-.135-.453-.47-.47-.319,0-.689.034-.974.034s-.27-.2-.27-.689c0-.47,0-.689.27-.689.2,0,.638.033.974.033s.47-.117.47-.453c0-.235-.067-.773-.067-.958s.118-.218.286-.218c.151,0,1.192.084,1.36.1.135.017.42.033.42.218,0,.1-.1.151-.218.235-.185.135-.168.32-.185.639a.4.4,0,0,0,.437.436c.118-.016.572-.033.622-.033.268,0,.268.219.268.689s0,.689-.268.689c-.068,0-.5-.017-.622-.034-.319.017-.437.168-.437.47v.471a.39.39,0,0,0,.387.454.313.313,0,0,0,.235-.135,18.027,18.027,0,0,0,1.747-3.259c.051-.118.1-.252.235-.252a7.958,7.958,0,0,1,1.109.437c.269.134.554.235.554.4,0,.134-.167.168-.268.184-.186.051-.219.1-.354.353-.352.672-.671,1.244-1.075,1.9A.226.226,0,0,0,19.815,36.034Zm-.755,1.63a.653.653,0,0,0-.606.269c-.1.15-.2.285-.3.42a.247.247,0,0,0-.067.151c0,.151.117.184.252.2.3,0,.6-.017.907-.017.369,0,.437.118.639.118s.252-.084.453-.47c.051-.084.1-.185.151-.286a.221.221,0,0,0,.051-.134c0-.151-.135-.2-.269-.219-.336-.016-.672-.033-1.008-.033Zm4.989,3.091a.2.2,0,0,0,.184-.134,12.219,12.219,0,0,0,.975-3.243.246.246,0,0,0,.017-.1.327.327,0,0,0-.37-.336H23.377c-.235,0-.42.1-.42.37v.067a13.341,13.341,0,0,0,.907,3.226A.218.218,0,0,0,24.049,40.755Z"/><path class="cls-1" d="M35.691,33.632c.32,0,.438-.152.471-.471a4.916,4.916,0,0,0-.067-.873.462.462,0,0,1-.017-.151c0-.168.2-.185.319-.185.32,0,1.143.067,1.5.1.151.016.487,0,.487.218,0,.134-.118.168-.252.252-.2.118-.2.286-.185.655,0,.32.151.454.453.454h3.713c.656,0,1.328-.05,1.983-.05.42,0,.4.168.4.722s.017.722-.4.722c-.655,0-1.327-.033-1.983-.033h-.168c-.1,0-.2.033-.2.151a.184.184,0,0,0,.068.151,16.381,16.381,0,0,1,2.217,2.5c0,.252-.772.857-1.075.857-.168,0-.319-.185-.621-.554-.084-.084-.168-.185-.269-.3a.717.717,0,0,0-.588-.285c-.369,0-.992.067-1.361.084-3.411.184-5.426.3-8.837.436-.218.017-.252.017-.386.2a.233.233,0,0,1-.2.118c-.219,0-.287-.236-.455-.773A6.426,6.426,0,0,1,30,36.756c0-.168.135-.2.27-.2h.688c.655,0,1.311,0,1.983-.017a.7.7,0,0,0,.655-.319c.2-.286.42-.571.621-.857a.268.268,0,0,0,.051-.151c0-.168-.135-.218-.269-.218H32.013c-.656,0-1.311.033-1.983.033-.4,0-.4-.134-.4-.722,0-.572,0-.722.387-.722.672,0,1.327.05,2,.05Zm-1.545,12.9c0,.521-.167.521-.907.521-.706,0-.89,0-.89-.521,0-.739.033-1.495.033-2.251V40.654c0-.4-.017-.789-.017-1.193,0-.655.219-.857.874-.857.453,0,.907.017,1.361.017h4.8c.454,0,.924-.017,1.378-.017.621,0,.891.168.891.824,0,.4-.034.806-.034,1.209v3.226c0,.47.034.941.034,1.411,0,1.462-.706,1.764-2.621,1.764-.689,0-1.059.017-1.059-1.193,0-.352.084-.47.319-.47.068,0,.639.034,1.008.034.572,0,.588-.219.588-.723v-.235c0-.319-.134-.471-.47-.471H34.583c-.336,0-.471.152-.471.471C34.1,45.156,34.146,45.845,34.146,46.534ZM39.908,40.3a.388.388,0,0,0-.4-.4H34.516a.388.388,0,0,0-.4.4v.051a.375.375,0,0,0,.4.386h4.989a.375.375,0,0,0,.4-.386Zm-5.8,2.1a.389.389,0,0,0,.4.4h4.989a.388.388,0,0,0,.4-.4v-.067a.388.388,0,0,0-.4-.4H34.516a.388.388,0,0,0-.4.4Zm2.167-7.291-.05.051-.016.033c-.2.319-.4.622-.606.924a.237.237,0,0,0-.049.152.212.212,0,0,0,.235.2c1.478-.051,2.939-.1,4.4-.185.134-.034.168-.1.168-.151,0-.067-.016-.084-.067-.135-.117-.117-.387-.3-.387-.487,0-.134.168-.268.27-.336a.119.119,0,0,0,.05-.1c0-.068-.068-.084-.118-.084H36.834a.4.4,0,0,0-.135.033.725.725,0,0,1-.268.034.214.214,0,0,0-.1.017C36.313,35.093,36.3,35.093,36.279,35.11Z"/><path class="cls-1" d="M52.407,39.444a1.935,1.935,0,0,1-2.015,2.034,1.74,1.74,0,0,1-1.832-1.765,1.942,1.942,0,0,1,2.049-2.032A1.72,1.72,0,0,1,52.407,39.444Z"/><path class="cls-1" d="M61.949,44.081h-.52c-.32,0-.453.118-.453.454,0,.185.016.386.016.588,0,.437-.2.42-.823.42s-.823,0-.823-.4c0-.471.033-.958.033-1.428V41.494a.111.111,0,0,0-.1-.118.121.121,0,0,0-.1.051c-.084.135-.252.42-.42.42a1.665,1.665,0,0,1-.991-1.025.7.7,0,0,1,.134-.3,18.342,18.342,0,0,0,2.217-5.981v-.084c0-.235-.134-.319-.336-.336-.2,0-1.008.033-1.159.033-.386,0-.386-.2-.386-.823,0-.6,0-.806.386-.806.522,0,1.025.034,1.529.034H62.4c.521,0,1.025-.034,1.529-.034.386,0,.386.2.386.806,0,.639,0,.823-.369.823-.521,0-1.025-.033-1.546-.033h-.134c-.336,0-.47.1-.538.437-.151.756-.319,1.5-.52,2.217a.373.373,0,0,0-.034.135c0,.218.168.3.37.3h.621c.336,0,.688-.017,1.025-.017a.584.584,0,0,1,.672.672c0,.4-.017.807-.017,1.21v3.914c0,.47.017.941.017,1.411,0,.42-.185.42-.806.42-.689,0-.79-.016-.807-.453C62.235,44.166,62.151,44.081,61.949,44.081Zm-.134-1.545a.482.482,0,0,0,.471-.471V39.226a.446.446,0,0,0-.471-.454h-.386c-.3,0-.437.168-.47.454v2.839a.47.47,0,0,0,.47.471Zm10.82-4.284c.469,0,.453.218.453.823,0,.588.016.806-.437.806-.252,0-.571-.016-.806-.016-.336,0-.453.134-.453.453V43.98c0,.824.033,1.647.033,2.487,0,.5-.135.537-.84.537-.689,0-.84-.033-.84-.554,0-.823.033-1.646.033-2.47V40.318c0-.336-.133-.47-.453-.47H68.166c-.319,0-.454.117-.471.437a9.59,9.59,0,0,1-2.267,6.2c-.135.168-.354.454-.589.454-.4,0-1.142-.505-1.142-.875,0-.134.168-.285.252-.386A7.851,7.851,0,0,0,66.1,40.285c.016-.3-.135-.42-.438-.42-.2,0-.588.016-.772.016-.453,0-.437-.235-.437-.823s-.016-.806.437-.806c.268,0,.538.017.806.017.3-.017.437-.135.437-.454V34.64c0-.3-.117-.437-.437-.454-.168,0-.336.017-.521.017-.437,0-.42-.235-.42-.823,0-.605-.017-.807.437-.807.605,0,1.193.034,1.8.034h3.579c.605,0,1.209-.034,1.8-.034.471,0,.438.236.438.807,0,.537.033.823-.4.823-.184,0-.386-.017-.571-.017-.319.017-.436.151-.436.454v3.175c0,.319.133.454.453.454C72.113,38.269,72.365,38.252,72.635,38.252Zm-4.923-.437a.469.469,0,0,0,.471.47h1.142c.285-.033.453-.168.453-.47V34.623a.446.446,0,0,0-.453-.471H68.183a.481.481,0,0,0-.471.471Z"/><path class="cls-1" d="M76.532,39.495c-.017-.084-.034-.168-.135-.168-.05,0-.084.033-.134.067-.134.2-.537.823-.789.823-.3,0-.891-.991-.891-1.226,0-.168.185-.37.269-.5a17.349,17.349,0,0,0,2.822-6.082c.051-.218.084-.5.286-.5a6.375,6.375,0,0,1,1.126.387c.285.117.638.2.638.386,0,.118-.152.2-.252.235-.2.084-.252.168-.336.471a22.365,22.365,0,0,1-1.159,3.04.81.81,0,0,0-.017.084c0,.1.084.135.168.152.135.016.369.033.369.2,0,.118-.15.219-.252.286-.15.118-.168.336-.168.823V44.3c0,.722.034,1.445.034,2.184,0,.47-.184.554-.806.554s-.807-.084-.807-.554c0-.723.034-1.462.034-2.184Zm2.5-2.755a8.428,8.428,0,0,0-.051-1.159.5.5,0,0,1-.016-.152c0-.168.118-.184.252-.184.168,0,1.126.067,1.294.084.117.016.268.067.268.218,0,.118-.1.151-.2.235-.235.151-.219.488-.219,1.529v5.275c0,.689.034,1.361.034,2.05,0,.436-.134.453-.689.453-.571,0-.7-.017-.7-.47,0-.672.033-1.344.033-2.033Zm6.015,2.268a.717.717,0,0,0-.336.1A12.984,12.984,0,0,1,81.841,40.4a2.16,2.16,0,0,1-.555.118c-.369,0-.756-.857-.756-1.109,0-.2.252-.235.5-.3a9.86,9.86,0,0,0,2.537-1.058.348.348,0,0,0,.218-.3.478.478,0,0,0-.117-.286,8.291,8.291,0,0,1-.588-.907.3.3,0,0,0-.219-.151.239.239,0,0,0-.218.151c-.251.42-.622,1.092-.924,1.092s-1.092-.454-1.092-.706a.862.862,0,0,1,.184-.369,12.179,12.179,0,0,0,2.017-4.335c.033-.151.067-.352.252-.352a5.9,5.9,0,0,1,.672.134c.756.185,1.075.252,1.075.437,0,.1-.1.168-.2.2-.235.051-.27.152-.354.4a.538.538,0,0,0-.033.134c0,.219.168.285.353.285H87.6c.637,0,1.259-.033,1.9-.033.4,0,.387.151.387.756,0,.588,0,.739-.387.739-.537,0-1.075-.033-1.612-.033a.072.072,0,0,0-.068.067c0,.067.118.1.168.117.2.068.437.135.437.32,0,.134-.134.168-.235.2-.235.067-.269.151-.42.42a9.184,9.184,0,0,1-1.209,1.579.454.454,0,0,0-.135.269.363.363,0,0,0,.168.286,9.893,9.893,0,0,0,2.924,1.209c.217.051.52.1.52.37,0,.3-.42,1.176-.84,1.176a1.763,1.763,0,0,1-.487-.134,10.192,10.192,0,0,1-3.31-1.647A.7.7,0,0,0,85.05,39.008Zm1.075,1.781c-.034,0-.067-.018-.1-.018s-.1-.016-.117-.016a.7.7,0,0,0-.319.151,13.613,13.613,0,0,1-3.293,1.7,4.134,4.134,0,0,1-.739.218c-.336,0-.672-.789-.672-.924,0-.218.3-.285.806-.437A10.037,10.037,0,0,0,84.9,39.8c.084-.05.168-.134.252-.134.1,0,1.176.773,1.176.974C86.326,40.738,86.226,40.789,86.125,40.789ZM89.6,43.913h-.168A.686.686,0,0,0,89,44.1a18.755,18.755,0,0,1-6.333,2.789,5.7,5.7,0,0,1-.857.151c-.42,0-.722-.907-.722-1.075,0-.235.353-.269.554-.3a15.7,15.7,0,0,0,6.653-2.789.657.657,0,0,1,.319-.168c.152,0,.453.285.588.386.152.118.655.487.655.655C89.854,43.829,89.771,43.913,89.6,43.913Zm-1.8-1.613a.5.5,0,0,1-.152-.016h-.1c-.135,0-.3.151-.4.218a15.285,15.285,0,0,1-4.62,2.167,5.134,5.134,0,0,1-.823.185c-.352,0-.6-.773-.6-.924,0-.252.319-.285.772-.386A11.461,11.461,0,0,0,86.6,41.309a.458.458,0,0,1,.269-.134,3.855,3.855,0,0,1,1.193.957C88.057,42.233,87.905,42.3,87.805,42.3Zm-1.462-7.139c0-.236-.285-.252-.336-.252H84.293c-.05,0-.318.016-.318.252a.4.4,0,0,0,.033.151,6.822,6.822,0,0,0,.79,1.243.393.393,0,0,0,.3.168.385.385,0,0,0,.286-.135,5.185,5.185,0,0,0,.907-1.276A.239.239,0,0,0,86.343,35.161Z"/><path class="cls-1" d="M99.531,39.444a1.935,1.935,0,0,1-2.015,2.034,1.74,1.74,0,0,1-1.832-1.765,1.942,1.942,0,0,1,2.049-2.032A1.72,1.72,0,0,1,99.531,39.444Z"/><path class="cls-1" d="M110.586,35.866a.434.434,0,0,0,.369-.437,1.744,1.744,0,0,0-.033-.268l-.084-.387c-.1-.454-.235-1.226-.37-1.663a.59.59,0,0,1-.05-.185c0-.218.285-.218.7-.235.4-.017.807-.034,1.21-.034.1,0,.3,0,.3.152,0,.168-.2.285-.2.621,0,.168.168,1.092.2,1.327l.066.286a.516.516,0,0,0,.555.436l1.394-.2c.3-.05,2.151-.353,2.251-.353.3,0,.32.3.37.554a7.682,7.682,0,0,1,.118.841c0,.352-.219.369-1.193.487-.336.033-.757.067-1.294.151l-1.36.2a.432.432,0,0,0-.354.521l.354,1.847a.49.49,0,0,0,.554.4l2.721-.387c.286-.033,2.2-.369,2.286-.369.319,0,.352.252.4.621.016.068.016.135.033.219.017.151.051.386.051.521,0,.369-.168.4-1.194.52-.335.034-.772.084-1.343.168l-2.655.387a.422.422,0,0,0-.352.52l.2,1.109c.084.454.571,2.6.571,2.856,0,.236-.184.286-.37.353a6.427,6.427,0,0,1-1.108.2c-.32,0-.353-.319-.4-.689a.846.846,0,0,0-.034-.2c-.118-.672-.268-1.529-.386-2.184L112.3,42.4a.519.519,0,0,0-.57-.4l-2.958.42c-.319.051-2.049.353-2.2.353-.235,0-.3-.134-.352-.336a7.688,7.688,0,0,1-.168-1.092c0-.319.219-.353,1.108-.437.336-.033.79-.084,1.378-.168l2.89-.42a.424.424,0,0,0,.369-.521l-.336-1.831a.493.493,0,0,0-.588-.42l-1.478.219c-.3.05-2.184.352-2.285.352-.218,0-.319-.2-.353-.4-.033-.235-.134-.806-.134-1.008,0-.319.235-.352,1.108-.454.353-.033.84-.1,1.446-.184Z"/><path class="cls-1" d="M125.807,39.024a.453.453,0,0,0,.37-.571l-.168-.772c-.017-.084-.152-.673-.269-1.16-.067-.319-.151-.588-.151-.621,0-.151.151-.185.268-.2.336-.033.807-.067,1.143-.067.185,0,.47.017.47.252a.59.59,0,0,1-.05.185.409.409,0,0,0-.067.184,11.682,11.682,0,0,0,.218,1.16l.152.756a.445.445,0,0,0,.537.369l2.721-.554c.168-.034,1.412-.3,1.428-.3.269,0,1.075.722,1.075,1.041a.428.428,0,0,1-.184.32,11.642,11.642,0,0,0-1.21,1.629c-.185.286-.857,1.31-1.041,1.495a.44.44,0,0,1-.354.185c-.234,0-1.141-.353-1.141-.672,0-.135.134-.269.2-.37a10.562,10.562,0,0,0,1.126-1.562.187.187,0,0,0-.186-.185.6.6,0,0,0-.184.034l-1.932.386a.451.451,0,0,0-.37.437v.118l.706,3.427c.084.369.4,1.68.4,1.949,0,.218-.134.268-.4.352a5.157,5.157,0,0,1-.84.152c-.3,0-.387-.32-.5-1.109-.05-.269-.1-.622-.185-1.025l-.7-3.428a.451.451,0,0,0-.454-.369c-.034,0-.1.017-.118.017l-1.21.252c-.217.05-1.7.353-1.763.353-.185,0-.252-.1-.32-.253a6.37,6.37,0,0,1-.184-.974c0-.269.168-.3,1.159-.47.235-.034.5-.084.84-.151Z"/><path class="cls-1" d="M139.666,38.806c0,.756.034,1.529.034,2.285,0,.521-.151.588-.941.588s-1.008-.051-1.008-.5c0-.79.051-1.563.051-2.352V35.278c0-.453-.034-.89-.051-1.327,0-.1-.017-.2-.017-.3,0-.117.034-.168.152-.168.168,0,1.209.152,1.444.186.353.066.588.066.588.218a.366.366,0,0,1-.084.184,1.549,1.549,0,0,0-.185.975c0,.252.017.554.017.941Zm6.586-.655a25.377,25.377,0,0,1-.186,3.578,5.7,5.7,0,0,1-2.048,3.9,7.764,7.764,0,0,1-1.849,1.176c-.252,0-1.411-.84-1.411-1.142,0-.152.319-.286.454-.353,1.646-.857,2.7-1.815,2.99-3.713a21.006,21.006,0,0,0,.2-3.242V34.707a9.164,9.164,0,0,0-.049-1.159,1.643,1.643,0,0,1-.035-.286c0-.134.068-.168.2-.168a14.749,14.749,0,0,1,1.664.168c.134.034.336.05.336.2,0,.1-.068.151-.152.235a1.411,1.411,0,0,0-.117.722Z"/><path class="cls-1" d="M160.348,34.556a12.065,12.065,0,0,0,1.747-.084.869.869,0,0,1,.217-.017c.252,0,.42.218.623.437s.621.672.621.974c0,.185-.235.353-.369.454-.1.084-1.361,1.394-1.563,1.613-.588.6-1.462,1.461-2.083,2.016-.118.1-.235.235-.4.235-.285,0-1.227-.74-1.227-1.025,0-.168.3-.4.42-.5A16.332,16.332,0,0,0,160.5,36.5c0-.234-.369-.2-.52-.2h-7.207c-.773,0-1.529.051-2.286.051-.436,0-.453-.186-.453-.857v-.336c0-.437.033-.639.42-.639.773,0,1.546.034,2.319.034Zm-2.941,2.688c.118.017.353.017.353.2a.251.251,0,0,1-.1.168,2.9,2.9,0,0,0-.336,1.21,10.1,10.1,0,0,1-4.032,7.14c-.134.1-.369.3-.554.3-.286,0-1.378-.873-1.378-1.176,0-.151.168-.218.4-.369a7.956,7.956,0,0,0,3.51-4.889,8.979,8.979,0,0,0,.27-2.5c0-.135,0-.219.168-.219C155.929,37.109,157.155,37.21,157.407,37.244Z"/><path class="cls-1" d="M173.854,33.716c0,.336.134.47.47.47h3.445c.688,0,1.394-.05,2.083-.05.4,0,.386.218.386.84,0,.638.017.84-.386.84-.689,0-1.4-.034-2.083-.034h-3.445c-.336,0-.47.135-.47.454v1.142c0,.336.134.471.47.471h1.126c.471,0,.924-.017,1.378-.017a.866.866,0,0,1,.789.3,1.349,1.349,0,0,1,.4.74,2.416,2.416,0,0,1-.488,1.024,15.4,15.4,0,0,1-2.654,2.957.346.346,0,0,0-.135.252.314.314,0,0,0,.186.268,15.546,15.546,0,0,0,4.922,1.7c.319.068.47.118.47.471,0,.336-.286,1.293-.79,1.293a2.448,2.448,0,0,1-.487-.084,17.765,17.765,0,0,1-5.661-2.268.706.706,0,0,0-.369-.134.677.677,0,0,0-.354.118,19.728,19.728,0,0,1-4.956,2.083,10.023,10.023,0,0,1-1.293.285c-.471,0-.756-.857-.756-1.226s.168-.4.991-.588c.185-.034.37-.084.605-.134a17.973,17.973,0,0,0,4-1.513.335.335,0,0,0,.185-.268.354.354,0,0,0-.118-.252,9.807,9.807,0,0,1-2.183-3.058c-.152-.252-.236-.386-.538-.386-.453-.017-.891.017-1.327.017s-.42-.168-.42-.807-.017-.823.42-.823c.706,0,1.394.051,2.1.051h2.268c.319,0,.47-.135.47-.471V36.236c0-.319-.151-.454-.47-.454h-3.445c-.705,0-1.394.034-2.083.034-.4,0-.4-.2-.4-.84s0-.84.4-.84c.689,0,1.378.05,2.083.05h3.445a.411.411,0,0,0,.47-.47,9.493,9.493,0,0,0-.067-1.378c0-.033-.017-.1-.017-.151,0-.2.134-.235.3-.235.336,0,1.176.067,1.546.1.151,0,.437.016.437.218,0,.118-.118.168-.236.252-.218.151-.218.353-.218.941Zm-2.486,5.678c-.168.017-.319.067-.319.252a.32.32,0,0,0,.05.168,6.973,6.973,0,0,0,1.664,2.05.52.52,0,0,0,.352.151.464.464,0,0,0,.32-.135c.4-.336,2-1.831,2-2.284,0-.185-.2-.2-.555-.2Z"/><path class="cls-1" d="M183.968,41.78c-.017-.1-.033-.3-.269-.3a.393.393,0,0,0-.135.033c-.168.067-.285.135-.385.168-.336.134-.354.151-.42.369-.034.084-.1.185-.2.185-.168,0-.269-.353-.437-.907-.051-.185-.118-.319-.184-.605a.786.786,0,0,1-.035-.2c0-.185.236-.219.387-.269a9.887,9.887,0,0,0,1.276-.487.555.555,0,0,0,.4-.639V36.908c0-.3-.117-.454-.437-.47-.336.016-.772.05-1.058.05-.387,0-.369-.252-.369-.807,0-.588-.018-.823.369-.823.336,0,.688.034,1.024.034s.471-.135.471-.471v-.789c0-.252,0-.5-.017-.756,0-.168-.051-.538-.051-.639,0-.218.135-.252.32-.252.235,0,1.075.068,1.343.084.152.017.421.034.421.236,0,.151-.118.184-.218.268-.168.118-.185.37-.185.841v1.007c0,.32.117.471.437.471s.638-.034.957-.034c.386,0,.353.235.353.807,0,.587.017.823-.353.823-.017,0-.873-.05-.941-.05-.336,0-.453.184-.453.47v1.478c.017.151.066.3.252.3a.387.387,0,0,0,.134-.033,3.457,3.457,0,0,1,.773-.353c.353,0,.42.806.42,1.075,0,.319-.118.387-.722.723-.135.067-.286.151-.471.252a.666.666,0,0,0-.386.689V44.1c0,.386.033.756.033,1.143,0,1.613-1.226,1.73-2.519,1.73-.522,0-.74-.135-.74-1.26,0-.269.05-.47.353-.47.1,0,.336.033.555.033.721,0,.7-.235.7-1.092Zm10.752-7.863a5.853,5.853,0,0,1,1.042.353,1.613,1.613,0,0,0,.184.084c.168.067.42.168.42.3s-.151.151-.252.168a.263.263,0,0,0-.235.151c-.235.47-.471.941-.739,1.411a.233.233,0,0,0-.05.151c0,.168.117.218.268.235.2-.017.42-.033.639-.033.353,0,.336.3.336.756,0,.386,0,.621-.336.621-.605,0-1.226-.034-1.832-.034h-2.436a.388.388,0,0,0-.454.37.865.865,0,0,0-.016.2c0,.252.185.336.4.336h3.074c.639,0,1.278-.033,1.933-.033.369,0,.352.268.352.738,0,.421,0,.639-.352.639-.655,0-1.294-.034-1.933-.034h-3.443a.438.438,0,0,0-.5.353l-.018.051c0,.033-.016.084-.016.134,0,.218.168.286.352.3h2.269c.436,0,.873-.016,1.327-.016a.834.834,0,0,1,.756.335,1.161,1.161,0,0,1,.286.639c0,.521-1.075,1.764-1.445,2.167a.373.373,0,0,0-.1.235.293.293,0,0,0,.2.269,13.256,13.256,0,0,0,1.95.655c.5.135.588.152.588.37,0,.386-.488,1.209-.84,1.209a13.663,13.663,0,0,1-3.025-1.209.66.66,0,0,0-.352-.1.945.945,0,0,0-.387.1,11.02,11.02,0,0,1-2.839,1.159c-.37,0-.823-.957-.823-1.176s.235-.235.42-.285a10.085,10.085,0,0,0,1.931-.656c.1-.067.186-.134.186-.269a.323.323,0,0,0-.118-.235,8.926,8.926,0,0,1-.907-1.041c-.068-.067-.118-.135-.218-.135a.279.279,0,0,0-.236.168,15,15,0,0,1-2.251,3.159c-.118.134-.3.319-.487.319-.3,0-1.126-.638-1.126-.907,0-.185.252-.4.37-.538a11.39,11.39,0,0,0,2.805-4.62c0-.05.018-.084.018-.134,0-.2-.152-.286-.336-.3-.37.017-.74.034-1.126.034-.369,0-.336-.286-.336-.739,0-.42,0-.638.352-.638.42,0,1.059.016,1.512.033a.4.4,0,0,0,.437-.37.891.891,0,0,0,.017-.184c0-.236-.168-.336-.387-.336-.369,0-.755.016-1.125.016-.353,0-.336-.285-.336-.772,0-.353.017-.6.336-.6.6,0,1.209.033,1.831.033h2.856a.654.654,0,0,0,.689-.353,15.563,15.563,0,0,0,1.059-2.2C194.568,34.035,194.6,33.917,194.72,33.917Zm1.427-.437a.714.714,0,0,1-.2-.05.79.79,0,0,0-.252-.067,1.522,1.522,0,0,0-.268.033,41.266,41.266,0,0,1-7.174.756c-.353,0-.471-.016-.605-.386a1.657,1.657,0,0,1-.118-.638c0-.387.118-.42.42-.42h.3a30.169,30.169,0,0,0,6.77-.706.806.806,0,0,1,.269-.067c.117,0,.269.185.387.353.067.1.151.2.218.3a2.482,2.482,0,0,1,.419.739A.165.165,0,0,1,196.147,33.48Zm-7.291,3.159c-.319,0-.335-.235-.436-.588-.1-.37-.235-.706-.369-1.058a.48.48,0,0,1-.068-.2c0-.286.992-.42,1.142-.42.27,0,.337.134.6.89a5.191,5.191,0,0,1,.252.941C189.982,36.521,189.092,36.639,188.856,36.639Zm2.773-.118c-.286,0-.3-.067-.42-.6-.051-.269-.135-.656-.286-1.21a.212.212,0,0,1-.017-.1c0-.3.907-.4,1.109-.4.353,0,.386.117.589.991a6.508,6.508,0,0,1,.167.924C192.771,36.438,191.864,36.521,191.629,36.521Zm-.017,5.8c-.118.017-.252.051-.252.2a.3.3,0,0,0,.067.168,7.837,7.837,0,0,0,.84.84.459.459,0,0,0,.319.134.473.473,0,0,0,.353-.168c.168-.168.74-.772.74-.991,0-.168-.152-.185-.387-.185Z"/><rect class="cls-6" y="15" width="210" height="5"/><line class="cls-7" x1="31" y1="165.5" x2="180" y2="165.5"/><rect class="cls-8" x="71" y="84" width="51" height="58"/><line class="cls-8" x1="78" y1="95" x2="116" y2="95"/><line class="cls-8" x1="78" y1="101" x2="116" y2="101"/><line class="cls-8" x1="78" y1="107" x2="116" y2="107"/><line class="cls-8" x1="78" y1="112" x2="116" y2="112"/><line class="cls-8" x1="78" y1="118" x2="116" y2="118"/><line class="cls-8" x1="78" y1="123" x2="116" y2="123"/><rect class="cls-9" x="119.788" y="106.709" width="39.106" height="8.554" transform="translate(-3.934 216.845) rotate(-74.997)"/><rect class="cls-10" x="143.223" y="83.1" width="4.888" height="8.554" transform="translate(23.558 205.458) rotate(-74.997)"/><rect class="cls-9" x="143.223" y="83.1" width="4.888" height="8.554" transform="translate(23.558 205.458) rotate(-74.997)"/><polygon class="cls-10" points="129.517 131.127 137.779 133.342 131.04 141.973 129.517 131.127"/><polygon class="cls-9" points="129.517 131.127 137.779 133.342 131.04 141.973 129.517 131.127"/><path class="cls-11" d="M131.039,141.973l1.947-2.493-2.388-.639Z"/><line class="cls-9" x1="144.402" y1="92.1" x2="134.281" y2="129.873"/><line class="cls-12" x1="116.5" y1="177" x2="116.5" y2="274"/><path class="cls-13" d="M36.274,184.321a2.773,2.773,0,1,1-2.772-2.773A2.772,2.772,0,0,1,36.274,184.321Z"/><path class="cls-13" d="M42.781,188.463a8.077,8.077,0,0,0,.063,1.223H41.772a8.3,8.3,0,0,0,.077-1.236V184.8a10.86,10.86,0,0,1-1.614,1.362,3.109,3.109,0,0,0-.5-.87,9.859,9.859,0,0,0,2.218-1.8,8.291,8.291,0,0,0,1.449-2.167H41.181a8.542,8.542,0,0,0-1.009.05V180.4a7.97,7.97,0,0,0,.971.051h.706v-1.109a5.251,5.251,0,0,0-.077-.945h1.084a5.11,5.11,0,0,0-.075.958v1.1h.668a4.23,4.23,0,0,0,.706-.038l.441.492c-.088.139-.163.277-.278.5a10.272,10.272,0,0,1-1.336,2.117,7.311,7.311,0,0,0,1.993,1.664,3.458,3.458,0,0,0-.505.832,7.6,7.6,0,0,1-1.689-1.513Zm5.13-.315h1.815a8.907,8.907,0,0,0,1.361-.076v1.1a8.546,8.546,0,0,0-1.349-.088H45.353a8.338,8.338,0,0,0-1.349.088v-1.1a8.934,8.934,0,0,0,1.349.076H46.94v-5.13H45.806a11.877,11.877,0,0,0-1.21.063v-1.033a7.725,7.725,0,0,0,1.21.076H46.94V179.59a7.574,7.574,0,0,0-.087-1.172H48a6.244,6.244,0,0,0-.088,1.172v2.534h1.537a6.479,6.479,0,0,0,1.21-.076v1.033a11.663,11.663,0,0,0-1.21-.063H47.911Z"/><path class="cls-13" d="M55.909,187.568a13.507,13.507,0,0,0-1.386.051,8.344,8.344,0,0,0,.05-1.286v-2.962a11.626,11.626,0,0,0-.05-1.336,13.705,13.705,0,0,0,1.386.05h6.3a13.869,13.869,0,0,0,1.386-.05,11.279,11.279,0,0,0-.05,1.336v2.962l.013.668v.214a3.6,3.6,0,0,0,.037.4,13.346,13.346,0,0,0-1.386-.051H61.077a9.24,9.24,0,0,0,3.681,1.374,3.133,3.133,0,0,0-.593.845,9.684,9.684,0,0,1-3.844-1.677l.668-.542H57.031l.732.58a8.587,8.587,0,0,1-1.916,1.034,14.2,14.2,0,0,1-1.891.592,2.89,2.89,0,0,0-.6-.857,8.086,8.086,0,0,0,3.617-1.349Zm7.185-7.046a5.846,5.846,0,0,0,.051.9c-.391-.025-.807-.037-1.374-.037h-5.4c-.58,0-1,.012-1.387.037a6.672,6.672,0,0,0,.051-.9V179.7a7.273,7.273,0,0,0-.051-.908,10.366,10.366,0,0,0,1.412.063h5.357a10.065,10.065,0,0,0,1.387-.063,6.252,6.252,0,0,0-.051.908Zm-7.613,3.139H62.64v-.819H55.481Zm0,1.563H62.64v-.832H55.481Zm0,1.588H62.64v-.857H55.481Zm.5-7.184v1h6.163v-1Z"/><path class="cls-13" d="M68.282,179.767a6.455,6.455,0,0,0-1.058.063v-.971a7,7,0,0,0,1.133.076h2.055a5.327,5.327,0,0,0,1.084-.076v.958a8.218,8.218,0,0,0-1.021-.05h-.718a12.407,12.407,0,0,1-.832,3.012H70.45a5.745,5.745,0,0,0,.756-.038,6.6,6.6,0,0,0-.038.97v3.92c0,.492.013.693.038,1.021h-.894v-.6h-1.4v1.3h-.971a7.64,7.64,0,0,0,.077-1.222v-2.6c0-.416.012-.819.037-1.336a5.042,5.042,0,0,1-.882,1.4,2.523,2.523,0,0,0-.454-.958,7.778,7.778,0,0,0,1.7-3.012,7.921,7.921,0,0,0,.391-1.852Zm.63,7.461h1.4v-3.643h-1.4Zm4.273-7.474a8.367,8.367,0,0,0-1.236.063v-.983a7.644,7.644,0,0,0,1.286.075h3.794a8.47,8.47,0,0,0,1.26-.075v.983a7.7,7.7,0,0,0-1.2-.063h-.214v3.289h.314a7.93,7.93,0,0,0,1.236-.063v1.009a8.032,8.032,0,0,0-1.236-.063h-.314v4.31a10.12,10.12,0,0,0,.088,1.387h-1.11a9.425,9.425,0,0,0,.089-1.374v-4.323H74.092a12,12,0,0,1-.415,2.9,7.289,7.289,0,0,1-1.576,2.924,2.129,2.129,0,0,0-.844-.643,6.012,6.012,0,0,0,1.575-2.773,10.7,10.7,0,0,0,.327-2.407h-.252a7.933,7.933,0,0,0-1.222.063V182.98a7.739,7.739,0,0,0,1.222.063h.278v-3.289Zm.932,2.936v.353h1.828v-3.289H74.117Z"/><path class="cls-13" d="M81.9,184.417c0-.643.012-1.146.037-1.714a6.864,6.864,0,0,1-1.045,1.676,4.077,4.077,0,0,0-.53-.895,11.492,11.492,0,0,0,2.533-5.117l1,.265a2.634,2.634,0,0,0-.19.53,16.235,16.235,0,0,1-.92,2.243v6.743c0,.718.013,1.071.051,1.525H81.827a12.263,12.263,0,0,0,.076-1.512Zm2.709-3.882a8.129,8.129,0,0,0-.05,1.071v4.929a7.722,7.722,0,0,0,.063,1.26h-.982a6.924,6.924,0,0,0,.075-1.273v-4.89a8.226,8.226,0,0,0-.051-1.1Zm7.223-.151a7.927,7.927,0,0,0-1.173-.063,6.334,6.334,0,0,1-1.625,2.042,8.7,8.7,0,0,0,3.189,1.084,3.541,3.541,0,0,0-.4.882,10.265,10.265,0,0,1-3.478-1.45,10.635,10.635,0,0,1-3.064,1.349,3.2,3.2,0,0,0-.44-.794,9.389,9.389,0,0,0,2.836-1.084,5.228,5.228,0,0,1-1.21-1.475,7.6,7.6,0,0,1-1.122,1.249,2.246,2.246,0,0,0-.681-.542,6.612,6.612,0,0,0,2.206-3.265l.945.214c-.264.555-.366.744-.492.983h3.214a7.593,7.593,0,0,0,1.3-.076Zm.013,6a4.433,4.433,0,0,0-.493.4,12.04,12.04,0,0,1-2.659,1.7,15.991,15.991,0,0,1-3.491,1.122,3.529,3.529,0,0,0-.478-.819,13.4,13.4,0,0,0,4.712-1.626,5.937,5.937,0,0,0,1.6-1.361Zm-2.685-2.18c-.114.088-.114.088-.416.3a10.654,10.654,0,0,1-3.277,1.374,3.366,3.366,0,0,0-.479-.756,6.8,6.8,0,0,0,3.466-1.487Zm1.26,1.033a11.1,11.1,0,0,1-4.853,2.383,2.714,2.714,0,0,0-.478-.794,10.513,10.513,0,0,0,3.226-1.122,4.515,4.515,0,0,0,1.324-1.034Zm-3.415-4.915a4.719,4.719,0,0,0,1.348,1.575,4.385,4.385,0,0,0,1.336-1.575Z"/><path class="cls-13" d="M35.854,203.9a2.773,2.773,0,1,1-2.773-2.773A2.773,2.773,0,0,1,35.854,203.9Z"/><path class="cls-13" d="M49.406,202.529c-.869,3.4-2.9,5.306-6.326,6.34l-.542-.933c3.112-.845,4.941-2.571,5.671-5.08H40.546v-.982h8.268Zm-1.221-3.479v.971H41.731v-.971Z"/><path class="cls-13" d="M62.637,203.021v1.108H52.6v-1.108Z"/><path class="cls-13" d="M75.236,206.323v1.021H65.2v-1.021Zm-8.885-6.164h7.725v1.021H66.351Z"/><path class="cls-13" d="M79.139,199.365a16.465,16.465,0,0,1,2.987,2.42l-.819.858a16.87,16.87,0,0,0-2.848-2.559Zm-.428,8.042c3.844-.845,6.743-2.95,8.116-6.655l.984.58c-1.462,3.932-4.651,6.188-8.773,7.083Z"/><path class="cls-13" d="M98.733,200.374l.568.668a12.279,12.279,0,0,1-6.919,8l-.732-.882a11.469,11.469,0,0,0,6.415-6.857H94.008a12.742,12.742,0,0,1-2.7,2.748l-.732-.63a12.075,12.075,0,0,0,3.832-5.029l1.084.34a13.746,13.746,0,0,1-.87,1.639Zm.329-2.471a8.882,8.882,0,0,1,1.045,2.206l-.794.3a9.385,9.385,0,0,0-.983-2.269Zm1.461-.529a8.5,8.5,0,0,1,1.135,2.18l-.781.3a7.949,7.949,0,0,0-1.06-2.206Z"/><path class="cls-13" d="M43.1,218.158H42.027v-3.113H39.62v-.971h2.407V211.68H43.1v2.394h3.617v-2.457h1.071v2.457H50.27v.971H47.787v.643c0,3.705-1.525,5.356-4.487,6.238l-.529-.945c2.9-.819,3.945-2.13,3.945-5.369v-.567H43.1Z"/><path class="cls-13" d="M53.139,220.111a10.535,10.535,0,0,0,1.966-3.944l1.021.3a12.467,12.467,0,0,1-2.117,4.21Zm9.226-6.49a1.415,1.415,0,0,1-1.058-1.387,1.487,1.487,0,1,1,1.65,1.462v.92h-3.92v6.037c0,.958-.478,1.273-1.436,1.273a8.629,8.629,0,0,1-1.336-.113l-.126-1.008a7.209,7.209,0,0,0,1.386.138c.328,0,.466-.088.466-.416v-5.911H53.77v-.958h4.221V211.4h1.046v2.256h3.328Zm-.806,2.457a17.753,17.753,0,0,1,2.155,3.983l-1.06.479a17.707,17.707,0,0,0-1.953-4.008Zm.4-3.844a.8.8,0,0,0,.819.832.832.832,0,1,0,0-1.664A.8.8,0,0,0,61.962,212.234Z"/><path class="cls-13" d="M77.158,216.041v1.108H67.125v-1.108Z"/><path class="cls-13" d="M84.816,215.121a24.381,24.381,0,0,1,5.13,2.255l-.5,1.021a27.065,27.065,0,0,0-4.626-2.218v5.659h-1.1v-10.36h1.1Z"/><path class="cls-13" d="M127.643,184.372a2.773,2.773,0,1,1-2.773-2.773A2.773,2.773,0,0,1,127.643,184.372Z"/><path class="cls-13" d="M132.574,188.866l3.567-9.478H137.5l3.555,9.478h-1.274l-1-2.672h-4.033l-.97,2.672Zm2.546-3.693h3.289l-1.651-4.462Z"/><path class="cls-13" d="M144.28,188.866v-9.478h1.172v9.478Z"/><path class="cls-13" d="M151.335,179.817a6.475,6.475,0,0,0-1.059.063v-.971a7.017,7.017,0,0,0,1.134.076h2.055a5.327,5.327,0,0,0,1.084-.076v.958a8.234,8.234,0,0,0-1.022-.05h-.717a12.394,12.394,0,0,1-.832,3.012H153.5a5.745,5.745,0,0,0,.756-.038,6.619,6.619,0,0,0-.038.971v3.92c0,.491.012.693.038,1.02h-.895v-.6h-1.4v1.3h-.971a7.682,7.682,0,0,0,.076-1.223v-2.6c0-.416.013-.82.037-1.336a5.043,5.043,0,0,1-.881,1.4,2.493,2.493,0,0,0-.455-.958,7.771,7.771,0,0,0,1.7-3.013,7.923,7.923,0,0,0,.39-1.852Zm.63,7.461h1.4v-3.642h-1.4Zm4.272-7.474a8.36,8.36,0,0,0-1.235.063v-.983a7.529,7.529,0,0,0,1.286.075h3.794a8.345,8.345,0,0,0,1.26-.075v.983a7.7,7.7,0,0,0-1.2-.063h-.214v3.29h.314a8.035,8.035,0,0,0,1.235-.063v1.008a8.139,8.139,0,0,0-1.235-.063h-.314v4.311a10.115,10.115,0,0,0,.088,1.386h-1.11A9.415,9.415,0,0,0,159,188.3v-4.323h-1.853a11.99,11.99,0,0,1-.416,2.9,7.282,7.282,0,0,1-1.576,2.924,2.135,2.135,0,0,0-.843-.643,6.012,6.012,0,0,0,1.575-2.773,10.807,10.807,0,0,0,.327-2.407h-.252a8.085,8.085,0,0,0-1.223.063v-1.008a7.877,7.877,0,0,0,1.223.063h.277V179.8Zm.933,2.937v.353H159V179.8H157.17Z"/><path class="cls-13" d="M164.955,184.467c0-.642.012-1.147.037-1.714a6.844,6.844,0,0,1-1.046,1.677,4.077,4.077,0,0,0-.529-.9,11.5,11.5,0,0,0,2.533-5.118l1,.266a2.694,2.694,0,0,0-.189.529,16.185,16.185,0,0,1-.92,2.243V188.2c0,.719.013,1.072.051,1.525h-1.009a12.251,12.251,0,0,0,.076-1.512Zm2.709-3.882a8.126,8.126,0,0,0-.05,1.072v4.928a7.714,7.714,0,0,0,.063,1.26h-.983a6.819,6.819,0,0,0,.076-1.273v-4.89a8.226,8.226,0,0,0-.051-1.1Zm7.223-.151a8.075,8.075,0,0,0-1.173-.063,6.313,6.313,0,0,1-1.626,2.042,8.714,8.714,0,0,0,3.189,1.084,3.539,3.539,0,0,0-.4.882,10.246,10.246,0,0,1-3.478-1.449,10.675,10.675,0,0,1-3.064,1.348,3.2,3.2,0,0,0-.44-.794,9.363,9.363,0,0,0,2.836-1.084,5.238,5.238,0,0,1-1.21-1.474,7.724,7.724,0,0,1-1.122,1.248,2.258,2.258,0,0,0-.681-.542,6.614,6.614,0,0,0,2.206-3.265l.945.215c-.264.554-.366.743-.492.982h3.214a7.62,7.62,0,0,0,1.3-.075Zm.012,6a4.319,4.319,0,0,0-.492.4,12.1,12.1,0,0,1-2.659,1.7,16.05,16.05,0,0,1-3.491,1.121,3.532,3.532,0,0,0-.479-.819,13.387,13.387,0,0,0,4.714-1.626,5.928,5.928,0,0,0,1.6-1.361Zm-2.684-2.181c-.114.088-.114.088-.416.3a10.7,10.7,0,0,1-3.278,1.374,3.356,3.356,0,0,0-.478-.757,6.8,6.8,0,0,0,3.466-1.487Zm1.26,1.034a11.1,11.1,0,0,1-4.853,2.382,2.736,2.736,0,0,0-.478-.794,10.513,10.513,0,0,0,3.226-1.122,4.524,4.524,0,0,0,1.323-1.033Zm-3.415-4.916a4.732,4.732,0,0,0,1.348,1.576,4.4,4.4,0,0,0,1.336-1.576Z"/><path class="cls-13" d="M127.643,203.271a2.773,2.773,0,1,1-2.773-2.772A2.773,2.773,0,0,1,127.643,203.271Z"/><path class="cls-13" d="M133.67,198.351h1.122v5.609H133.67Zm6.3-.151v4.323A5.6,5.6,0,0,1,135.9,208.3l-.58-.92a4.678,4.678,0,0,0,3.53-4.965V198.2Z"/><path class="cls-13" d="M143.763,201.275v-.945h3.4c.025-.378.038-.769.038-1.185v-1.412h1.071v1.412c0,.416-.012.807-.038,1.185H151.9l.593.554a42.35,42.35,0,0,1-.429,5.243c-.226,1.4-.881,1.891-2.016,1.891a8.5,8.5,0,0,1-1.462-.126l-.113-1.046a8.2,8.2,0,0,0,1.562.164c.542,0,.87-.189,1.009-1.046a33.61,33.61,0,0,0,.352-4.689h-3.239a8.3,8.3,0,0,1-4.336,6.945l-.655-.769a7.494,7.494,0,0,0,3.92-6.176Z"/><path class="cls-13" d="M157.648,198.49v8.079a12.5,12.5,0,0,0,6.731-4.475l.68.82a13.026,13.026,0,0,1-7.9,4.89l-.6-.693V198.49Z"/><path class="cls-13" d="M167.146,198.742a16.4,16.4,0,0,1,2.988,2.42l-.82.857a16.871,16.871,0,0,0-2.847-2.559Zm-.427,8.041c3.843-.845,6.743-2.949,8.116-6.655l.983.58c-1.462,3.933-4.65,6.188-8.772,7.084Z"/><path class="cls-13" d="M179.219,201.477a24.41,24.41,0,0,1,5.13,2.256l-.5,1.021a26.951,26.951,0,0,0-4.626-2.218V208.2h-1.1V197.834h1.1Z"/><path class="cls-13" d="M127.643,254.164a2.773,2.773,0,1,1-2.773-2.773A2.774,2.774,0,0,1,127.643,254.164Z"/><path class="cls-13" d="M131.3,250.29a5.2,5.2,0,0,0,.983.063h2.181a7.124,7.124,0,0,0,1.071-.051v.933a6.546,6.546,0,0,0-1-.05h-2.256a6.88,6.88,0,0,0-.983.05Zm.454,6.226a6.171,6.171,0,0,0-.064-1.021,8.137,8.137,0,0,0,.984.05h1.764a4.823,4.823,0,0,0,.87-.037,8.542,8.542,0,0,0-.038.945v1.865a7.8,7.8,0,0,0,.05,1h-.882v-.479h-1.828v.643h-.932a8.375,8.375,0,0,0,.076-1.2Zm-.038-7.94a5.064,5.064,0,0,0,.971.063h1.625a5.052,5.052,0,0,0,.97-.063v.907a6.673,6.673,0,0,0-.97-.05h-1.625a7.027,7.027,0,0,0-.971.05Zm.051,3.491a7.73,7.73,0,0,0,.869.037h1.79a7.11,7.11,0,0,0,.844-.037v.857a8.18,8.18,0,0,0-.844-.038h-1.79a7.848,7.848,0,0,0-.869.038Zm0,1.714a7.54,7.54,0,0,0,.869.038h1.777a7.449,7.449,0,0,0,.857-.038v.857a7.938,7.938,0,0,0-.857-.038h-1.79a8.075,8.075,0,0,0-.856.038Zm.843,4.273h1.828v-1.74h-1.828Zm4.437-4.727c.264-.693.39-1.058.58-1.7h-.416c-.353,0-.731.025-1.033.05v-.907a8.366,8.366,0,0,0,1.046.05h.629c.139-.517.177-.706.291-1.273h-1a8.16,8.16,0,0,0-1.222.063v-.958a9.084,9.084,0,0,0,1.272.063h3.845a8.253,8.253,0,0,0,1.272-.063v.958a8.245,8.245,0,0,0-1.235-.063h-2.029c-.189.845-.189.845-.3,1.273h1.537a7.33,7.33,0,0,0,1.034-.05,7.1,7.1,0,0,0-.05,1.033v1.525a6.384,6.384,0,0,0,1.248-.076v.958a9.008,9.008,0,0,0-1.2-.063h-4.538a8.177,8.177,0,0,0-1.222.063v-.945a7.966,7.966,0,0,0,1.222.063Zm-.731,2.748a7.461,7.461,0,0,0-.05-.983,8.032,8.032,0,0,0,1.084.05h3.4a6.571,6.571,0,0,0,1.033-.05,7.786,7.786,0,0,0-.051,1.071v2.13a9.417,9.417,0,0,0,.064,1.2h-.984V258.9h-3.579v.593h-.983a7.67,7.67,0,0,0,.063-1.21Zm.92,1.979h3.579v-2.093h-3.579Zm3.126-4.727v-1.7h-1.828c-.226.744-.314,1.02-.555,1.7Z"/><path class="cls-13" d="M150.681,258.444c0,.832-.252,1-1.525,1-.328,0-.932-.025-1.361-.063a3.716,3.716,0,0,0-.3-.933,11.551,11.551,0,0,0,1.6.126c.554,0,.63-.037.63-.3v-2.294h-3.592a9.88,9.88,0,0,0-1.361.076v-1a10.331,10.331,0,0,0,1.348.076h3.605v-.177a6.659,6.659,0,0,0-.037-.705h.529a10.977,10.977,0,0,0,2-1.273h-4.21a10.975,10.975,0,0,0-1.185.063v-.946a10.927,10.927,0,0,0,1.21.063h4.349a5.148,5.148,0,0,0,.92-.051l.529.568c-.177.139-.177.139-.429.366a14.665,14.665,0,0,1-2.722,1.815v.277h3.542a10.149,10.149,0,0,0,1.361-.076v1a9.718,9.718,0,0,0-1.374-.076h-3.529Zm-3.541-8.192a8.012,8.012,0,0,0-1.1-1.538l.895-.264a10.739,10.739,0,0,1,1.209,1.8h1.665a7.539,7.539,0,0,0-.858-1.714l.92-.252a11.023,11.023,0,0,1,.908,1.966h1.273a7.084,7.084,0,0,0,1.184-1.941l.946.34a13.677,13.677,0,0,1-1.11,1.6h.845c.744,0,1-.013,1.449-.05a7.546,7.546,0,0,0-.05,1.008v1a7.115,7.115,0,0,0,.063.9h-.97v-2.055h-8.52V253.1h-.971a6.488,6.488,0,0,0,.063-.9v-1a7.381,7.381,0,0,0-.05-1.008c.5.037.731.05,1.423.05Z"/><path class="cls-13" d="M163,249.357a6.1,6.1,0,0,0-.075-1.071h1.121a4.78,4.78,0,0,0-.075,1.071v.681h3.579a8.293,8.293,0,0,0,1.361-.088V251a10.049,10.049,0,0,0-1.349-.076h-3.591V252.8h1.663a5.671,5.671,0,0,0,1.084-.063l.6.618a4.869,4.869,0,0,0-.467.642,11.486,11.486,0,0,1-2.432,2.685,12.994,12.994,0,0,0,4.714,1.752,3.544,3.544,0,0,0-.517,1,14.019,14.019,0,0,1-4.991-2.156,13.232,13.232,0,0,1-5.029,2.105,3.807,3.807,0,0,0-.516-.933,12.318,12.318,0,0,0,4.776-1.764,9.054,9.054,0,0,1-1.449-1.513,8.955,8.955,0,0,1-.933-1.537,9.52,9.52,0,0,0-1.348.076v-.984a9.559,9.559,0,0,0,1.374.076H163V250.92h-3.4a10.134,10.134,0,0,0-1.362.076V249.95a8.412,8.412,0,0,0,1.362.088H163Zm-1.513,4.273a7.511,7.511,0,0,0,2.168,2.508,8.862,8.862,0,0,0,2.294-2.508Z"/><path class="cls-13" d="M172.791,249.571a6.93,6.93,0,0,0-.075-1.26h1.058a7.969,7.969,0,0,0-.075,1.248v1.147h.365a6.413,6.413,0,0,0,.745-.038v.907a6.915,6.915,0,0,0-.745-.037H173.7V253.6a10.464,10.464,0,0,0,.995-.466l.026.87c-.466.24-.656.34-1.021.5v3.97c0,.744-.277.933-1.374.933-.264,0-.4,0-.731-.025a2.65,2.65,0,0,0-.189-.908,6.144,6.144,0,0,0,1.084.1c.227,0,.3-.063.3-.277V254.89c-.314.126-.541.214-1.008.391a3.562,3.562,0,0,0-.39.164l-.24-.984a6.446,6.446,0,0,0,1.638-.491v-2.432h-.655a6.345,6.345,0,0,0-.831.05v-.945a4.237,4.237,0,0,0,.831.063h.655Zm3.492,3a9.528,9.528,0,0,0-1.147.051v-.857a7.654,7.654,0,0,0,1.058.05h3.568a8.292,8.292,0,0,0,1.134-2.269l.9.277a14.308,14.308,0,0,1-1.147,1.992h.5a5.8,5.8,0,0,0,1.047-.063v.87a9.9,9.9,0,0,0-1.16-.051h-3.365c-.05.554-.05.593-.1.933h3.466a8.653,8.653,0,0,0,1.374-.076v.933a10.774,10.774,0,0,0-1.374-.076h-3.617a8.4,8.4,0,0,1-.214.819h2.735a6.57,6.57,0,0,0,1.046-.05l.466.58c-.075.1-.075.1-.264.378a11.225,11.225,0,0,1-1.5,1.626,9.154,9.154,0,0,0,2.974.97,5.291,5.291,0,0,0-.454.92,11.048,11.048,0,0,1-3.227-1.361,10.077,10.077,0,0,1-3.087,1.336,2.251,2.251,0,0,0-.5-.807,8.759,8.759,0,0,0,2.836-1.058,8.089,8.089,0,0,1-1.437-1.437,8.8,8.8,0,0,1-2.407,3.2,2.348,2.348,0,0,0-.631-.706,7.073,7.073,0,0,0,1.777-1.966,7.935,7.935,0,0,0,1.009-2.445h-.353a8.375,8.375,0,0,0-1.236.063v-.907a8.554,8.554,0,0,0,1.248.063h.48c.05-.353.075-.58.1-.933Zm5.747-3.542c-.176.038-.176.038-.6.126a40.02,40.02,0,0,1-6.415.694,2,2,0,0,0-.3-.807c.164.013.265.013.366.013a21.706,21.706,0,0,0,6.289-.807Zm-5.747,2.736a4.968,4.968,0,0,0-.782-1.526l.757-.277a6.258,6.258,0,0,1,.73,1.487Zm1.21,4.108a7.132,7.132,0,0,0,1.424,1.286,5.183,5.183,0,0,0,1.235-1.286Zm.844-4.209a5.717,5.717,0,0,0-.706-1.651l.769-.24a6.71,6.71,0,0,1,.706,1.613Z"/><path class="cls-13" d="M36.274,236.408a2.773,2.773,0,1,1-2.772-2.773A2.773,2.773,0,0,1,36.274,236.408Z"/><path class="cls-13" d="M49.462,232.849l.139.983-3.819.479.365,2.256L50.433,236l.151.971-4.272.567.655,3.92-1.009.138-.655-3.932-4.487.592-.138-.97,4.461-.593-.366-2.256-3.717.466-.114-.97,3.667-.466-.427-2.559,1.007-.138.429,2.571Z"/><path class="cls-13" d="M57.462,241.445l-.945.163-1.084-5.482-2.408.353-.113-.908,2.357-.327-.479-2.42.97-.189.479,2.47,4.853-.693.5.567a8.88,8.88,0,0,1-2.572,3.365l-.68-.655a6.072,6.072,0,0,0,1.89-2.269l-3.831.567Z"/><path class="cls-13" d="M64.478,231.488H65.6V237.1H64.478Zm6.3-.152v4.324a5.6,5.6,0,0,1-4.071,5.772l-.58-.92a4.677,4.677,0,0,0,3.529-4.966v-4.21Z"/><path class="cls-13" d="M84.628,232.458a9.138,9.138,0,0,1-3.064,3.857l-.793-.756a7.28,7.28,0,0,0,2.545-2.824H74.759v-.983h9.276Zm-4.84,1.513v1.184a6.016,6.016,0,0,1-4.084,6.214l-.6-.9c2.52-.945,3.591-2.495,3.591-5.382v-1.121Z"/><path class="cls-13" d="M91.291,231.6a6.1,6.1,0,0,0-.075-1.071h1.121a4.78,4.78,0,0,0-.075,1.071v.681h3.579a8.285,8.285,0,0,0,1.361-.088v1.046a10.033,10.033,0,0,0-1.348-.076H92.262v1.878h1.663a5.671,5.671,0,0,0,1.084-.063l.605.618a4.94,4.94,0,0,0-.467.642,11.464,11.464,0,0,1-2.432,2.685,12.976,12.976,0,0,0,4.714,1.752,3.544,3.544,0,0,0-.517,1,14.036,14.036,0,0,1-4.991-2.155,13.248,13.248,0,0,1-5.028,2.1,3.844,3.844,0,0,0-.517-.933,12.286,12.286,0,0,0,4.776-1.764,9.049,9.049,0,0,1-1.449-1.512,8.954,8.954,0,0,1-.932-1.538,9.526,9.526,0,0,0-1.349.076v-.984a9.559,9.559,0,0,0,1.374.076h2.495v-1.878h-3.4a10.134,10.134,0,0,0-1.362.076v-1.046a8.412,8.412,0,0,0,1.362.088h3.4Zm-1.513,4.273a7.511,7.511,0,0,0,2.168,2.508,8.862,8.862,0,0,0,2.294-2.508Z"/><path class="cls-13" d="M99.82,231.815a6.826,6.826,0,0,0-.076-1.26H100.8a7.847,7.847,0,0,0-.075,1.248v1.147h.365a6.152,6.152,0,0,0,.743-.038v.907a6.864,6.864,0,0,0-.743-.037h-.365v2.067a10.88,10.88,0,0,0,1-.467l.025.87c-.466.24-.655.34-1.02.5v3.971c0,.743-.278.932-1.374.932-.265,0-.4,0-.732-.025a2.661,2.661,0,0,0-.188-.907,6.211,6.211,0,0,0,1.084.1c.226,0,.3-.063.3-.277v-3.416c-.315.126-.542.215-1.008.391a3.869,3.869,0,0,0-.391.164l-.239-.983a6.473,6.473,0,0,0,1.638-.492v-2.432h-.656a6.345,6.345,0,0,0-.831.05v-.945a4.155,4.155,0,0,0,.831.063h.656Zm3.492,3a9.759,9.759,0,0,0-1.148.051v-.857a7.671,7.671,0,0,0,1.059.05h3.567a8.273,8.273,0,0,0,1.134-2.268l.895.276a14.206,14.206,0,0,1-1.147,1.992h.5a5.8,5.8,0,0,0,1.047-.063v.87a10.145,10.145,0,0,0-1.161-.051H104.7c-.05.555-.05.593-.1.933h3.465a8.676,8.676,0,0,0,1.375-.076v.933a10.78,10.78,0,0,0-1.375-.076h-3.617a8.423,8.423,0,0,1-.214.82h2.735a6.549,6.549,0,0,0,1.047-.051l.466.58c-.076.1-.076.1-.265.378a11.225,11.225,0,0,1-1.5,1.626,9.178,9.178,0,0,0,2.974.971,5.245,5.245,0,0,0-.454.919,11.03,11.03,0,0,1-3.226-1.361,10.093,10.093,0,0,1-3.088,1.336,2.251,2.251,0,0,0-.5-.807,8.759,8.759,0,0,0,2.836-1.058,8.123,8.123,0,0,1-1.437-1.437,8.773,8.773,0,0,1-2.407,3.2,2.348,2.348,0,0,0-.631-.706,7.073,7.073,0,0,0,1.778-1.965,7.949,7.949,0,0,0,1.008-2.446h-.353a8.352,8.352,0,0,0-1.235.063v-.907a8.545,8.545,0,0,0,1.248.063h.479c.05-.353.075-.58.1-.933Zm5.747-3.542c-.177.039-.177.039-.606.126a40.02,40.02,0,0,1-6.415.694,1.971,1.971,0,0,0-.3-.807c.164.013.265.013.367.013a21.706,21.706,0,0,0,6.289-.807Zm-5.747,2.736a4.992,4.992,0,0,0-.783-1.526l.757-.277a6.3,6.3,0,0,1,.731,1.487Zm1.209,4.108a7.13,7.13,0,0,0,1.424,1.286,5.17,5.17,0,0,0,1.236-1.286Zm.844-4.209a5.714,5.714,0,0,0-.7-1.651l.769-.24a6.789,6.789,0,0,1,.706,1.613Z"/><path class="cls-13" d="M48.561,245.365a1.484,1.484,0,0,1,1.361-2.054,1.481,1.481,0,1,1,0,2.961,1.249,1.249,0,0,1-.316-.038,10.253,10.253,0,0,1-6.793,8.2l-.58-.945a9.3,9.3,0,0,0,6.214-7.134H40.885v-1Zm.542-.567a.8.8,0,0,0,.819.831.832.832,0,1,0,0-1.663A.8.8,0,0,0,49.1,244.8Z"/><path class="cls-13" d="M55.828,252.813v1.06H54.757v-8.647h8.394v8.521H62.08v-.934ZM62.08,246.2H55.828v5.646H62.08Z"/><path class="cls-13" d="M75.625,245.907l.567.668a12.274,12.274,0,0,1-6.919,8l-.731-.882a11.469,11.469,0,0,0,6.415-6.857H70.9a12.7,12.7,0,0,1-2.7,2.748l-.731-.63a12.075,12.075,0,0,0,3.832-5.029l1.084.341a13.81,13.81,0,0,1-.87,1.638Zm.328-2.47a8.9,8.9,0,0,1,1.046,2.2l-.794.3a9.385,9.385,0,0,0-.983-2.269Zm1.462-.53a8.527,8.527,0,0,1,1.135,2.18l-.781.3a7.958,7.958,0,0,0-1.06-2.2Z"/><path class="cls-13" d="M88.793,248.062c-.87,3.4-2.9,5.306-6.327,6.34l-.542-.933c3.112-.844,4.94-2.571,5.671-5.079H79.932v-.983H88.2Zm-1.223-3.479v.971H81.117v-.971Z"/><path class="cls-13" d="M99.893,254.112c-.189-.479-.391-.958-.605-1.412a55.928,55.928,0,0,1-8.57,1.084l-.139-1.109c.491-.025.983-.038,1.462-.075a52.826,52.826,0,0,0,2.71-8.483l1.159.227a56.064,56.064,0,0,1-2.71,8.18,53.078,53.078,0,0,0,5.647-.706,16.78,16.78,0,0,0-1.778-2.76l.82-.5a17.886,17.886,0,0,1,3.088,5.092Z"/><path class="cls-13" d="M128.487,222.889a2.773,2.773,0,1,1-2.772-2.773A2.772,2.772,0,0,1,128.487,222.889Z"/><path class="cls-13" d="M135,225.253c0,.782.416,1.122,2.042,1.122a23.373,23.373,0,0,0,4.727-.416l.126,1.059a26.068,26.068,0,0,1-4.828.365c-2.344,0-3.138-.617-3.138-1.89v-7.651H135v3.882a19.53,19.53,0,0,0,5.57-2.168l.531.971a22.878,22.878,0,0,1-6.1,2.142Zm6.112-8.142a8.784,8.784,0,0,1,1.362,2.055l-.731.39a8.672,8.672,0,0,0-1.3-2.067Zm1.374-.68a9.068,9.068,0,0,1,1.4,2l-.732.4a9.091,9.091,0,0,0-1.323-2.029Z"/><path class="cls-13" d="M145.427,220.817a14.565,14.565,0,0,1,3.076,1.537l-.53.92a16.789,16.789,0,0,0-3.037-1.6Zm-.214,5.8c3.945-.592,6.844-2.394,8.52-6.074l.895.692c-1.827,3.9-4.878,5.735-9.112,6.466Zm1.285-8.721a12.813,12.813,0,0,1,3,1.5l-.529.919a15.818,15.818,0,0,0-2.962-1.575Zm6.088-.656a9.718,9.718,0,0,1,1.046,2.219l-.794.29a9.1,9.1,0,0,0-1-2.257Zm1.462-.516a8.958,8.958,0,0,1,1.135,2.18l-.794.3a7.388,7.388,0,0,0-1.059-2.219Z"/><path class="cls-13" d="M161.833,227.951h-1.046V223.8a20.382,20.382,0,0,1-3.806,1.714l-.542-.857a15.3,15.3,0,0,0,7.3-4.512h-6.289V219.2h3.327v-1.979h1.072V219.2h2.861l.5.743a14.614,14.614,0,0,1-2.886,2.824,19.132,19.132,0,0,1,4.147,2.218l-.593.882a21.054,21.054,0,0,0-4.046-2.357Z"/><path class="cls-13" d="M177.357,227.585a22.9,22.9,0,0,0-3.542-3.832,15.393,15.393,0,0,1-5.015,3.731l-.668-.844a13.31,13.31,0,0,0,7.121-7.336h-5.962V218.3h6.655l.643.756A15.418,15.418,0,0,1,174.421,223a22.331,22.331,0,0,1,3.907,3.819Z"/><path class="cls-13" d="M140.672,234.039c-.289,3.44-1.789,5.709-4.7,7.02l-.668-.845a6.7,6.7,0,0,0,4.273-6.175h-3.491a11.2,11.2,0,0,1-1.954,2.218l-.769-.58a12.143,12.143,0,0,0,3.378-5.344l1.059.3a14.528,14.528,0,0,1-1.11,2.433h7.122v.971Zm1.2-3.908a9.241,9.241,0,0,1,1.047,2.219l-.794.29a9.581,9.581,0,0,0-.983-2.257Zm1.463-.517a8.579,8.579,0,0,1,1.134,2.181l-.781.3a7.762,7.762,0,0,0-1.059-2.206Z"/><path class="cls-13" d="M155.554,235.034v1.109H145.521v-1.109Z"/><path class="cls-13" d="M166.527,240.592c-.188-.479-.39-.958-.6-1.411a56.068,56.068,0,0,1-8.57,1.084l-.139-1.109c.491-.026.982-.038,1.462-.076a52.813,52.813,0,0,0,2.71-8.482l1.159.226a56.1,56.1,0,0,1-2.71,8.18,53.027,53.027,0,0,0,5.646-.706,16.8,16.8,0,0,0-1.777-2.76l.819-.5a17.841,17.841,0,0,1,3.088,5.092Z"/></g></g></svg>