<svg xmlns="http://www.w3.org/2000/svg" xmlns:xlink="http://www.w3.org/1999/xlink" width="294" height="319" viewBox="0 0 294 319"><defs><style>.cls-1,.cls-2,.cls-4,.cls-7{fill:none;}.cls-2{stroke:#fff;stroke-width:0.72px;}.cls-3{fill:#ebebe9;}.cls-4,.cls-7{stroke:#241916;stroke-miterlimit:10;}.cls-5{fill:#241916;}.cls-6{fill:#52afc4;}.cls-7{stroke-dasharray:1 2;}.cls-8{fill:#514a44;}.cls-9{opacity:0.15;fill:url(#_10_lpi_10_2);}.cls-10{fill:#fff;}.cls-11{opacity:0.55;}.cls-12{clip-path:url(#clip-path);}</style><pattern id="_10_lpi_10_2" data-name="10 lpi 10 % 2" width="72" height="72" patternTransform="translate(327.242 66.324) rotate(-45)" patternUnits="userSpaceOnUse" viewBox="0 0 72 72"><rect class="cls-1" width="72" height="72"/><line class="cls-2" x1="71.75" y1="68.399" x2="144.25" y2="68.399"/><line class="cls-2" x1="71.75" y1="54" x2="144.25" y2="54"/><line class="cls-2" x1="71.75" y1="39.601" x2="144.25" y2="39.601"/><line class="cls-2" x1="71.75" y1="25.2" x2="144.25" y2="25.2"/><line class="cls-2" x1="71.75" y1="10.8" x2="144.25" y2="10.8"/><line class="cls-2" x1="71.75" y1="61.2" x2="144.25" y2="61.2"/><line class="cls-2" x1="71.75" y1="46.8" x2="144.25" y2="46.8"/><line class="cls-2" x1="71.75" y1="32.4" x2="144.25" y2="32.4"/><line class="cls-2" x1="71.75" y1="18" x2="144.25" y2="18"/><line class="cls-2" x1="71.75" y1="3.601" x2="144.25" y2="3.601"/><line class="cls-2" x1="-0.25" y1="68.399" x2="72.25" y2="68.399"/><line class="cls-2" x1="-0.25" y1="54" x2="72.25" y2="54"/><line class="cls-2" x1="-0.25" y1="39.601" x2="72.25" y2="39.601"/><line class="cls-2" x1="-0.25" y1="25.2" x2="72.25" y2="25.2"/><line class="cls-2" x1="-0.25" y1="10.8" x2="72.25" y2="10.8"/><line class="cls-2" x1="-0.25" y1="61.2" x2="72.25" y2="61.2"/><line class="cls-2" x1="-0.25" y1="46.8" x2="72.25" y2="46.8"/><line class="cls-2" x1="-0.25" y1="32.4" x2="72.25" y2="32.4"/><line class="cls-2" x1="-0.25" y1="18" x2="72.25" y2="18"/><line class="cls-2" x1="-0.25" y1="3.601" x2="72.25" y2="3.601"/><line class="cls-2" x1="-72.25" y1="68.399" x2="0.25" y2="68.399"/><line class="cls-2" x1="-72.25" y1="54" x2="0.25" y2="54"/><line class="cls-2" x1="-72.25" y1="39.601" x2="0.25" y2="39.601"/><line class="cls-2" x1="-72.25" y1="25.2" x2="0.25" y2="25.2"/><line class="cls-2" x1="-72.25" y1="10.8" x2="0.25" y2="10.8"/><line class="cls-2" x1="-72.25" y1="61.2" x2="0.25" y2="61.2"/><line class="cls-2" x1="-72.25" y1="46.8" x2="0.25" y2="46.8"/><line class="cls-2" x1="-72.25" y1="32.4" x2="0.25" y2="32.4"/><line class="cls-2" x1="-72.25" y1="18" x2="0.25" y2="18"/><line class="cls-2" x1="-72.25" y1="3.601" x2="0.25" y2="3.601"/></pattern><clipPath id="clip-path"><rect id="SVGID" class="cls-1" x="92.35" y="64.867" width="110" height="55.212"/></clipPath></defs><g id="レイヤー_2" data-name="レイヤー 2"><g id="レイヤー_1-2" data-name="レイヤー 1"><rect class="cls-3" width="294" height="319"/><line class="cls-4" x1="274" y1="239.5" x2="20" y2="239.5"/><path class="cls-5" d="M24.368,259.273c.052.144.182.52.312.911.131-.4.209-.638.3-.911l2.444-6.656a5.48,5.48,0,0,0,.378-1.326h1.351a9.372,9.372,0,0,0-.663,1.508l-2.782,7.163a9.586,9.586,0,0,0-.4,1.209H24.043a6.547,6.547,0,0,0-.416-1.209L20.845,252.8a11.533,11.533,0,0,0-.663-1.508h1.339a9.074,9.074,0,0,0,.377,1.326Z"/><path class="cls-5" d="M37.474,261.171a9.078,9.078,0,0,0-.767-2.223c-.754-1.781-1.262-2.288-2.3-2.288H32V259.7a7.837,7.837,0,0,0,.1,1.468H30.9a7.853,7.853,0,0,0,.1-1.456v-6.968a9.31,9.31,0,0,0-.1-1.5c.455.026.819.039,1.416.039h2.861c1.885,0,2.925.884,2.925,2.5a2.344,2.344,0,0,1-.781,1.911,2.669,2.669,0,0,1-1.4.65c.533.156.857.507,1.326,1.43.312.612.624,1.287,1.027,2.184a11.833,11.833,0,0,0,.585,1.209Zm-2.392-5.408a2.076,2.076,0,0,0,1.469-.559,1.716,1.716,0,0,0,.494-1.313c0-1.1-.65-1.7-1.885-1.7H32v3.575Z"/><path class="cls-5" d="M52.15,250.29,41.828,262.329h-1.17L50.98,250.29Z"/><path class="cls-5" d="M61.707,261.171a9.358,9.358,0,0,0-.4-1.325l-.676-1.678H56.091l-.676,1.678a7.236,7.236,0,0,0-.4,1.325H53.659a8.127,8.127,0,0,0,.7-1.5l2.912-7.176a7.208,7.208,0,0,0,.416-1.209H59a7.077,7.077,0,0,0,.441,1.209l2.912,7.176a12.975,12.975,0,0,0,.69,1.5Zm-3.068-8.19c-.039-.1-.039-.117-.286-.832-.065.195-.118.338-.143.429-.078.208-.117.351-.144.4l-1.664,4.29h3.913Z"/><path class="cls-5" d="M71.38,261.171a9.078,9.078,0,0,0-.767-2.223c-.754-1.781-1.261-2.288-2.3-2.288H65.907V259.7a7.827,7.827,0,0,0,.1,1.468H64.8a7.853,7.853,0,0,0,.1-1.456v-6.968a9.31,9.31,0,0,0-.1-1.5c.455.026.819.039,1.417.039h2.86c1.885,0,2.925.884,2.925,2.5a2.347,2.347,0,0,1-.78,1.911,2.673,2.673,0,0,1-1.4.65c.534.156.858.507,1.326,1.43.312.612.625,1.287,1.027,2.184a12.048,12.048,0,0,0,.585,1.209Zm-2.392-5.408a2.076,2.076,0,0,0,1.469-.559,1.716,1.716,0,0,0,.494-1.313c0-1.1-.65-1.7-1.885-1.7H65.907v3.575Z"/><path class="cls-5" d="M78.022,252.5a5.492,5.492,0,0,0,.624-1.781l1.041.182a2.761,2.761,0,0,0-.338.7c-.169.416-.338.767-.4.884a2.213,2.213,0,0,1,.273-.013,18.3,18.3,0,0,0,4.095-.494l.079.884a4.045,4.045,0,0,0-.521.065,41.975,41.975,0,0,1-4.29.338,9.634,9.634,0,0,1-1.17,1.846c-.13.157-.391.455-.442.494a1.942,1.942,0,0,0-.169.13.013.013,0,0,1-.013.013v.013a.113.113,0,0,0,.025.039c.469-.364.469-.364.6-.455a3.46,3.46,0,0,1,1.963-.637,1.578,1.578,0,0,1,1.716,1.443c.949-.377,1.69-.65,2.263-.858a2.836,2.836,0,0,0,.883-.377l.416.91a21.616,21.616,0,0,0-3.471,1.144c.026.339.026.468.026.794,0,.169,0,.454-.013.714-.013.287-.013.468-.013.585a2.814,2.814,0,0,0,.026.468l-.884.013a18.7,18.7,0,0,0,.078-1.872,3.416,3.416,0,0,0-.013-.39c-1.768.832-2.444,1.444-2.444,2.223,0,.858.806,1.236,2.639,1.236a10.861,10.861,0,0,0,3.471-.508l.117,1c-.194.014-.26.027-.52.066a20.168,20.168,0,0,1-3.159.26c-2.327,0-3.458-.664-3.458-2a2.688,2.688,0,0,1,1.326-2.055,10.092,10.092,0,0,1,1.937-1.04c-.1-.715-.416-1.027-1.027-1.027a4.884,4.884,0,0,0-2.9,1.378,4.286,4.286,0,0,0-1,1.08l-.728-.729a12.922,12.922,0,0,0,2.912-3.718l.117-.2a1.44,1.44,0,0,1-.247.026c-.208,0-1.43-.026-1.911-.039h-.208a2.3,2.3,0,0,0-.286.013l.013-.9a18.183,18.183,0,0,0,2.781.143Z"/><path class="cls-5" d="M87.189,253.891a11.5,11.5,0,0,1,2.392,1.5l-.455.754a10.412,10.412,0,0,0-2.392-1.612Zm2.522,4.2a24.177,24.177,0,0,1-2.158,3.874l-.741-.675a3.4,3.4,0,0,0,.4-.442,13.125,13.125,0,0,0,1.833-3.277Zm-1.95-7.475A15.4,15.4,0,0,1,90,252.344l-.507.689a13.678,13.678,0,0,0-2.261-1.82Zm6.007,1.638a26,26,0,0,1-2.978.325,2.551,2.551,0,0,0-.338-.793,23.587,23.587,0,0,0,5.5-.741,6.022,6.022,0,0,0,1.5-.52l.6.78-.43.117c-.754.221-1.767.455-3.015.689v2.249h2.535a8.949,8.949,0,0,0,1.326-.078v.923a9.57,9.57,0,0,0-1.326-.078H94.6v2.21h2.08a6.272,6.272,0,0,0,1-.052,8.553,8.553,0,0,0-.052,1.183v2.471a10.117,10.117,0,0,0,.064,1.261H96.81v-.741H91.778v.741H90.9a8.837,8.837,0,0,0,.064-1.275v-2.5a9.826,9.826,0,0,0-.052-1.144,6.258,6.258,0,0,0,.949.052h1.912v-2.21H91.3a9.655,9.655,0,0,0-1.313.078v-.923a8.746,8.746,0,0,0,1.313.078h2.471Zm-1.99,8.437H96.81v-2.613H91.778Z"/><path class="cls-5" d="M106.5,260.353a9.324,9.324,0,0,0,.065,1.417h-.936a9.572,9.572,0,0,0,.064-1.417V257.9h-3.561a7.845,7.845,0,0,1-1.4,4.264,3.128,3.128,0,0,0-.754-.559,5.233,5.233,0,0,0,1.052-2.2,30.323,30.323,0,0,0,.4-6.305,19.757,19.757,0,0,0-.052-2.119,13.834,13.834,0,0,0,1.43.052H109.8a12.6,12.6,0,0,0,1.378-.052,10.972,10.972,0,0,0-.052,1.274v8.724c0,.818-.3,1.014-1.56,1.014-.416,0-1.066-.027-1.612-.065a3.022,3.022,0,0,0-.195-.845,16.868,16.868,0,0,0,1.859.143c.572,0,.689-.065.689-.391V257.9H106.5Zm-4.251-5.526c-.014.364-.014.676-.014.859-.012.8-.012.857-.051,1.456h3.509v-2.315Zm3.444-3.016h-3.418v1.547l-.013.728h3.431Zm4.616,2.275v-2.275H106.5v2.275Zm-3.809,3.056h3.809v-2.315H106.5Z"/><path class="cls-5" d="M116.1,251.109a19.868,19.868,0,0,0-.169,2.743c-.053,1.56-.092,3.328-.092,3.914,0,.155.013.481.026.779a2.046,2.046,0,0,0,.611,1.56,2.45,2.45,0,0,0,1.625.507,3.734,3.734,0,0,0,3.485-2.261,7.735,7.735,0,0,0,.637-2.041,3.7,3.7,0,0,0,.935.624,7.911,7.911,0,0,1-1.442,2.95,4.551,4.551,0,0,1-3.666,1.626,3.087,3.087,0,0,1-2.445-.91,3.625,3.625,0,0,1-.714-2.665c0-.872.012-1.2.116-5.292.013-.39.013-.637.013-.845a4.1,4.1,0,0,0-.051-.689Z"/><path class="cls-5" d="M125.6,253.085a8.958,8.958,0,0,0,1.625.117c.259,0,.4,0,.78-.026a12.671,12.671,0,0,0,.285-2.392l1.027.1a12.292,12.292,0,0,0-.234,1.235c-.064.416-.1.6-.169.988a10.718,10.718,0,0,0,2.341-.442l.064.9c-.1.013-.1.013-.364.065a18.985,18.985,0,0,1-2.2.312c-.195,1.027-.56,2.5-.91,3.68a34.616,34.616,0,0,1-1.495,3.964l-.95-.4a26.2,26.2,0,0,0,2.445-7.19c-.26.013-.416.013-.9.013-.455,0-.572,0-1.079-.026h-.052a1.912,1.912,0,0,0-.22.013Zm5.81,4.719a4.3,4.3,0,0,0-.389.494,1.566,1.566,0,0,0-.326.924c0,.779.793,1.195,2.276,1.195a9.7,9.7,0,0,0,2.873-.441l.091.975c-.143.026-.143.026-.573.091a13.119,13.119,0,0,1-2.313.221c-2.132,0-3.237-.663-3.237-1.951,0-.584.181-.988.871-1.872Zm4.018-2.249a13.052,13.052,0,0,0-1.534-.091,11.305,11.305,0,0,0-3.25.442l-.091-.884a14.722,14.722,0,0,1,3.445-.429c.247,0,.442,0,1.417.039Z"/><path class="cls-5" d="M146.889,256.231c0,3.133-1.755,5.136-4.5,5.136s-4.486-2-4.486-5.136,1.769-5.135,4.5-5.135S146.889,253.1,146.889,256.231Zm-2.223,3.329a4.655,4.655,0,0,0,1.157-3.329,4.572,4.572,0,0,0-1.144-3.328,3.171,3.171,0,0,0-2.276-.9c-2.08,0-3.444,1.664-3.444,4.212s1.378,4.225,3.458,4.225A3.078,3.078,0,0,0,144.666,259.56Z"/><path class="cls-5" d="M153.741,251.291a7.867,7.867,0,0,0-.1,1.456v5.8a3.043,3.043,0,0,1-.533,1.963,2.521,2.521,0,0,1-2.093.82,2.909,2.909,0,0,1-2.146-.781,3.315,3.315,0,0,1-.649-.987l1.027-.43a2.351,2.351,0,0,0,.454.781,1.736,1.736,0,0,0,1.326.506c1.106,0,1.6-.571,1.6-1.872v-5.8a7.867,7.867,0,0,0-.1-1.456Z"/><path class="cls-5" d="M160.033,259.7a8,8,0,0,0,.105,1.468h-1.222a7.823,7.823,0,0,0,.1-1.468v-7.5h-2.029a9.352,9.352,0,0,0-1.5.091V251.2a9.172,9.172,0,0,0,1.483.091h5.07a9.151,9.151,0,0,0,1.534-.091v1.092a9.366,9.366,0,0,0-1.534-.091h-2.016Z"/><path class="cls-5" d="M166.3,254.646c-.481,0-.884.025-1.131.051v-.78a6.431,6.431,0,0,0,1.144.078h1.444v-1.5h-1.015a6.817,6.817,0,0,0-1.053.052v-.767a5.211,5.211,0,0,0,1.066.065h1v-.481a4.975,4.975,0,0,0-.078-.949h.91a3.625,3.625,0,0,0-.078.962v.468h.688a4.385,4.385,0,0,0,.845-.052v.741a7.091,7.091,0,0,0-.806-.039h-.727V254h.428a9.622,9.622,0,0,0,2.146-2.99l.779.377A16.208,16.208,0,0,1,169.874,254h.508a4.621,4.621,0,0,0,.871-.052v.754a5.3,5.3,0,0,0-.871-.051h-1.145a17.065,17.065,0,0,1-1.52,1.3h1.429a4.654,4.654,0,0,0,.936-.051l.43.454-.053.052c-.077.079-.077.079-.246.26a9.555,9.555,0,0,1-1.392,1.261v.469c.937-.118,1.3-.17,2.354-.378v.728c-1.079.2-1.5.26-2.354.377v1.964c0,.714-.233.871-1.235.871-.312,0-.689-.014-1.092-.053a2.867,2.867,0,0,0-.142-.805,9.484,9.484,0,0,0,1.377.116c.26,0,.326-.051.326-.272v-1.73c-.7.065-.91.091-2.2.195a4.608,4.608,0,0,0-.636.078l-.131-.832c.143.014.286.014.416.014.455,0,1.625-.079,2.549-.183V258.4a4.088,4.088,0,0,0-.053-.871h.312a5.371,5.371,0,0,0,1.053-.962h-2.535c-.52.338-.793.494-1.417.832a2.283,2.283,0,0,0-.519-.585,15.716,15.716,0,0,0,3.353-2.17Zm10.362-1.119a4.967,4.967,0,0,0-.9-.078,12.986,12.986,0,0,1-.455,2.653,10.062,10.062,0,0,1-1.092,2.547,8.544,8.544,0,0,0,2.729,2.769,2.334,2.334,0,0,0-.624.742,9.781,9.781,0,0,1-2.573-2.808,11.056,11.056,0,0,1-3.173,2.794,2.35,2.35,0,0,0-.61-.714,8.682,8.682,0,0,0,3.353-2.848,13.407,13.407,0,0,1-1.157-3.367,10.166,10.166,0,0,1-.948,1.495,2.239,2.239,0,0,0-.585-.559,9.881,9.881,0,0,0,1.924-4.186,8.987,8.987,0,0,0,.3-1.638l.883.195c-.051.169-.051.169-.155.559-.117.468-.325,1.274-.442,1.664h2.288a6.147,6.147,0,0,0,1.235-.078Zm-3.758-.078c-.117.338-.142.4-.259.7a12.379,12.379,0,0,0,1.143,3.68,10.36,10.36,0,0,0,1.2-4.382Z"/><path class="cls-5" d="M183.8,251.265a5.275,5.275,0,0,0-.078-.949h.974a5.18,5.18,0,0,0-.077.949v.312h4.212a9.013,9.013,0,0,0,1.339-.078v.858a10.358,10.358,0,0,0-1.3-.065H183.4a14.253,14.253,0,0,1-1.119,1.625c1.756-.039,3.017-.1,4.875-.247a11.454,11.454,0,0,0-1.4-.819l.649-.429a22.218,22.218,0,0,1,3.381,2.275l-.6.6a13.5,13.5,0,0,0-1.222-1.027c-2.432.247-5.148.39-8.164.442a4.142,4.142,0,0,0-.585.039l-.156-.858a14.236,14.236,0,0,0,1.456.052c.26,0,.4,0,.844-.013a9.646,9.646,0,0,0,1.131-1.638h-2.521a13.065,13.065,0,0,0-1.314.065V251.5a9.032,9.032,0,0,0,1.339.078h3.81Zm-2.562,8.438v1.04a10.369,10.369,0,0,0,.066,1.429h-.949a12.485,12.485,0,0,0,.078-1.482v-4.056a8.559,8.559,0,0,0-.066-1.248,13.8,13.8,0,0,0,1.509.052h5.07a11.661,11.661,0,0,0,1.4-.052,11.9,11.9,0,0,0-.052,1.365v4.226c0,.779-.313,1.026-1.3,1.026-.091,0-.611-.012-1.547-.051a2.379,2.379,0,0,0-.195-.781,13.8,13.8,0,0,0,1.664.118c.494,0,.572-.053.572-.377V259.7Zm6.254-3.563h-6.254v1.067h6.254Zm-6.254,1.756v1.118h6.254V257.9Z"/><path class="cls-5" d="M196.437,250.849a4,4,0,0,0-.208.832c-.091.442-.169.754-.352,1.417a10.818,10.818,0,0,0,2.327-.429l.039.9c-.142.026-.142.026-.455.078a15.673,15.673,0,0,1-2.132.273,24.182,24.182,0,0,1-1.443,3.8c-.312.624-.429.846-.923,1.7-.117.182-.194.337-.26.441l-.884-.52a11.518,11.518,0,0,0,1.249-2.027,19.583,19.583,0,0,0,1.351-3.355c-.325.013-.767.026-.962.026-.221,0-.663-.013-.858-.013-.143-.013-.246-.013-.285-.013h-.17l.013-.9a8.215,8.215,0,0,0,1.547.1c.26,0,.69-.013.936-.013a13.29,13.29,0,0,0,.442-2.444Zm6.174,10.089a7.445,7.445,0,0,0-2.274-1.769,2.808,2.808,0,0,1,.025.416c0,1.339-.883,2.081-2.469,2.081-1.561,0-2.536-.728-2.536-1.886a1.845,1.845,0,0,1,1.209-1.651,3.821,3.821,0,0,1,1.535-.286,4.291,4.291,0,0,1,1.312.2c-.064-.846-.091-1.456-.091-1.782a5.32,5.32,0,0,1,.13-1.261l.885.091a3.959,3.959,0,0,0-.169,1.209,15.327,15.327,0,0,0,.143,1.976,9.358,9.358,0,0,1,2.547,1.574,1.442,1.442,0,0,0,.235.208Zm-4.576-2.328c-1.1,0-1.806.455-1.806,1.17,0,.663.624,1.067,1.65,1.067,1.118,0,1.626-.443,1.626-1.417,0-.157-.026-.559-.026-.559A3.841,3.841,0,0,0,198.035,258.61Zm4.564-3.536a14.088,14.088,0,0,0-3.446-1.768l.482-.728a17.877,17.877,0,0,1,3.431,1.716Z"/><path class="cls-5" d="M208.228,250.94a22.741,22.741,0,0,0,.974,4.3c.767-.325,1.131-.455,3.147-1.157a5.163,5.163,0,0,0,.832-.351l.389.988a34.425,34.425,0,0,0-3.913,1.261c-2.222.9-3.185,1.755-3.185,2.834,0,1.17,1,1.639,3.549,1.639a12.9,12.9,0,0,0,3.718-.442l.1,1.079a6.843,6.843,0,0,0-.963.077,25.832,25.832,0,0,1-2.873.169,8.816,8.816,0,0,1-2.886-.351,2.157,2.157,0,0,1-1.612-2.132,2.812,2.812,0,0,1,1.157-2.21,8.08,8.08,0,0,1,1.7-1.066,25.734,25.734,0,0,1-.949-3.627,4.611,4.611,0,0,0-.221-.832Zm3.964,0a10.833,10.833,0,0,1,1.209,1.885l-.689.325a9.153,9.153,0,0,0-1.195-1.911Zm1.327-.546a9.928,9.928,0,0,1,1.209,1.885l-.69.325a8.681,8.681,0,0,0-1.2-1.911Z"/><path class="cls-5" d="M217.315,258.663a13.265,13.265,0,0,1,2.613,2.755l-.728.689a13,13,0,0,0-2.561-2.834Z"/><path class="cls-5" d="M223.842,255.555a5.262,5.262,0,0,0,1,.065h.676a7.78,7.78,0,0,0,1-.065,9.794,9.794,0,0,0-.066,1.379v2.522a2.053,2.053,0,0,0,1.157,1.209,7.553,7.553,0,0,0,2.978.377,36.41,36.41,0,0,0,5.174-.261,3.242,3.242,0,0,0-.3.963c-1.235.051-2.86.077-4.238.077-2.315,0-3.081-.091-3.849-.454a3.21,3.21,0,0,1-1.352-1.236,12.19,12.19,0,0,1-1.573,1.391,4.252,4.252,0,0,0-.468.391l-.428-.858a8.484,8.484,0,0,0,2.092-1.574v-3.133h-.858a4.915,4.915,0,0,0-.948.065Zm.909-4.81a17.742,17.742,0,0,1,2.08,2.3l-.663.585a12.3,12.3,0,0,0-2.027-2.353Zm7.411,8.281h1.9a7.167,7.167,0,0,0,1.26-.065v.832a11.577,11.577,0,0,0-1.26-.064h-4.927a6.855,6.855,0,0,0-1.054.064,9.254,9.254,0,0,0,.066-1.338v-3.393c.012-.4.026-.794.051-1.171a7.848,7.848,0,0,1-1.17,1.4,1.534,1.534,0,0,0-.558-.559,8.7,8.7,0,0,0,1.833-2.2,6.7,6.7,0,0,0,.884-2.08l.832.195a4.849,4.849,0,0,0-.287.65,10.5,10.5,0,0,1-.572,1.157h2.224a7.915,7.915,0,0,0,.871-1.937l.845.221a5.689,5.689,0,0,0-.377.715c-.169.338-.352.689-.546,1h1.755a7.5,7.5,0,0,0,1.221-.065v.819a9.632,9.632,0,0,0-1.156-.052h-1.833v1.43h1.325a9.516,9.516,0,0,0,1.275-.052v.78a10.741,10.741,0,0,0-1.275-.051h-1.325v1.456h1.325a9.466,9.466,0,0,0,1.275-.053v.78a10.918,10.918,0,0,0-1.275-.052h-1.325Zm-.755-5.863h-2.469v1.43h2.469Zm0,2.107h-2.469v1.456h2.469Zm-2.469,2.131v1.625h2.469V257.4Z"/><path class="cls-5" d="M239.442,256.5c0-.728,0-.9.027-1.586a10.5,10.5,0,0,1-1.652,2.185,4.684,4.684,0,0,0-.558-.755,12.164,12.164,0,0,0,2.937-4.381,5.791,5.791,0,0,0,.443-1.56l.962.273c-.052.13-.052.13-.273.728-.117.3-.559,1.339-1.04,2.418v6.813c0,.507.025,1.04.077,1.572h-1.013a15.708,15.708,0,0,0,.09-1.611Zm4.382,3.927c0,.455.195.52,1.7.52,1.482,0,1.976-.078,2.171-.312a5.728,5.728,0,0,0,.442-2.38,3,3,0,0,0,.858.4,5.929,5.929,0,0,1-.611,2.547c-.325.43-.962.546-2.912.546-2.171,0-2.509-.155-2.509-1.17v-8.619a12.318,12.318,0,0,0-.078-1.4H243.9a10.328,10.328,0,0,0-.077,1.4v3.679a17.66,17.66,0,0,0,2.275-1.495,9.16,9.16,0,0,0,1.859-1.807l.754.689c-.182.156-.182.156-.793.715a20.752,20.752,0,0,1-4.095,2.847Z"/><path class="cls-5" d="M253.445,251.109a20.043,20.043,0,0,0-.169,2.743c-.052,1.56-.091,3.328-.091,3.914,0,.155.013.481.026.779a2.046,2.046,0,0,0,.611,1.56,2.448,2.448,0,0,0,1.625.507,3.735,3.735,0,0,0,3.485-2.261,7.737,7.737,0,0,0,.636-2.041,3.722,3.722,0,0,0,.936.624,7.911,7.911,0,0,1-1.442,2.95,4.551,4.551,0,0,1-3.666,1.626,3.087,3.087,0,0,1-2.445-.91,3.624,3.624,0,0,1-.715-2.665c0-.872.013-1.2.117-5.292.013-.39.013-.637.013-.845a4,4,0,0,0-.052-.689Z"/><path class="cls-5" d="M262.936,253.085a8.958,8.958,0,0,0,1.625.117c.259,0,.4,0,.779-.026a12.62,12.62,0,0,0,.286-2.392l1.027.1a12.292,12.292,0,0,0-.234,1.235c-.065.416-.1.6-.169.988a10.718,10.718,0,0,0,2.341-.442l.064.9c-.1.013-.1.013-.364.065a18.985,18.985,0,0,1-2.2.312c-.2,1.027-.56,2.5-.91,3.68a34.447,34.447,0,0,1-1.5,3.964l-.949-.4a26.2,26.2,0,0,0,2.445-7.19c-.261.013-.416.013-.9.013-.455,0-.572,0-1.079-.026h-.052a1.923,1.923,0,0,0-.22.013Zm5.81,4.719a4.356,4.356,0,0,0-.39.494,1.565,1.565,0,0,0-.325.924c0,.779.793,1.195,2.276,1.195a9.7,9.7,0,0,0,2.873-.441l.091.975c-.143.026-.143.026-.573.091a13.119,13.119,0,0,1-2.313.221c-2.133,0-3.238-.663-3.238-1.951,0-.584.182-.988.872-1.872Zm4.018-2.249a13.068,13.068,0,0,0-1.535-.091,11.315,11.315,0,0,0-3.25.442l-.09-.884a14.716,14.716,0,0,1,3.445-.429c.246,0,.441,0,1.417.039Z"/><path class="cls-5" d="M26.734,275.081a11.9,11.9,0,0,1-.143,1.378,5.118,5.118,0,0,1-1.755,3.433,7.644,7.644,0,0,1-2.288,1.287,2.293,2.293,0,0,0-.61-.846,4.929,4.929,0,0,0,3.289-2.561,7.437,7.437,0,0,0,.519-2.691H22.223a11.84,11.84,0,0,0-1.494.065v-.962a9.345,9.345,0,0,0,1.507.078h7.606a9.373,9.373,0,0,0,1.508-.078v.962a11.894,11.894,0,0,0-1.5-.065Zm-4.693-4.121a7.185,7.185,0,0,0,1.5.091h4.2a7.715,7.715,0,0,0,1.5-.091v.988a10.456,10.456,0,0,0-1.482-.065H23.523a10.465,10.465,0,0,0-1.482.065Zm8.112.4a9.2,9.2,0,0,1,1.04,1.885l-.714.286a8.082,8.082,0,0,0-1.014-1.9Zm1.3-.533a8.812,8.812,0,0,1,1.04,1.872l-.7.3a7.882,7.882,0,0,0-1.026-1.911Z"/><path class="cls-5" d="M37.667,271.493a5.124,5.124,0,0,0-.169.884c-.547,3.706-1.573,6.149-3.433,8.112a2.849,2.849,0,0,0-.832-.676,8.333,8.333,0,0,0,1.885-2.574,15.026,15.026,0,0,0,1.34-4.511,10.532,10.532,0,0,0,.13-1.222,1.335,1.335,0,0,0-.014-.208Zm3.6-.195a16.344,16.344,0,0,0,.6,3.12,11.365,11.365,0,0,0,2.95,5.37,3.027,3.027,0,0,0-.8.728,12.12,12.12,0,0,1-2.171-3.381,19.073,19.073,0,0,1-1.365-4.784,6.189,6.189,0,0,0-.169-.858Zm1.534-.143a10.282,10.282,0,0,1,1.092,2l-.7.3a9.58,9.58,0,0,0-1.065-2.028Zm1.339-.507a9.866,9.866,0,0,1,1.091,2l-.714.286a8.559,8.559,0,0,0-1.066-2.028Z"/><path class="cls-5" d="M56.491,271.064a2.944,2.944,0,0,0-.571.546,22.908,22.908,0,0,1-3.043,2.613v5.539a8.768,8.768,0,0,0,.065,1.378h-1.13a6.861,6.861,0,0,0,.078-1.352v-4.941a20.384,20.384,0,0,1-5.019,2.276,3.015,3.015,0,0,0-.507-.872,18.29,18.29,0,0,0,6.747-3.367,10.943,10.943,0,0,0,2.484-2.457Z"/><path class="cls-5" d="M68.244,280.867a24.142,24.142,0,0,0-4.16-4.017,14.1,14.1,0,0,1-2.483,2.326,16.71,16.71,0,0,1-2.548,1.56,2.937,2.937,0,0,0-.637-.858,10.4,10.4,0,0,0,2.639-1.5,14.074,14.074,0,0,0,4.64-5.863c.027-.078.039-.091.066-.156a.275.275,0,0,0,.039-.091,2.208,2.208,0,0,1-.312.013l-4.342.065a8.747,8.747,0,0,0-1.339.1L59.78,271.4a6.122,6.122,0,0,0,1.028.065h.338l4.641-.052a2.428,2.428,0,0,0,.832-.1l.546.559a2.4,2.4,0,0,0-.364.637,15.72,15.72,0,0,1-2.145,3.64,32.46,32.46,0,0,1,4.329,3.9Z"/><path class="cls-5" d="M70.6,272.143c.247.013.377.013.467.013.183,0,.338-.013.742-.039,1.547-.117,5.707-.364,7.384-.429a12.421,12.421,0,0,0,1.547-.143l.078.962a5.458,5.458,0,0,0-1.456.182,6.394,6.394,0,0,0-2.5,1.3,3.973,3.973,0,0,0-1.6,3,2.548,2.548,0,0,0,1.82,2.4,6.663,6.663,0,0,0,1.95.416h.13L79,280.867c-.142-.027-.2-.039-.4-.078a6.584,6.584,0,0,1-2.808-1,3.149,3.149,0,0,1-1.443-2.653,4.946,4.946,0,0,1,2.431-3.991,8.51,8.51,0,0,1,1.235-.689,25.19,25.19,0,0,1-2.861.286,38.183,38.183,0,0,0-4.484.429Zm8.606,1.5a9.2,9.2,0,0,1,1.2,1.82l-.663.338a7.983,7.983,0,0,0-1.17-1.846Zm1.261-.611a9.2,9.2,0,0,1,1.2,1.82l-.65.339a8.423,8.423,0,0,0-1.183-1.847Z"/><path class="cls-5" d="M84.194,277.031a4.737,4.737,0,0,0-1.065.078v-.858a4.8,4.8,0,0,0,1.092.078h1.586v-.689a2.393,2.393,0,0,0-.066-.533h.871a2.393,2.393,0,0,0-.051.533v.689H87.99a5.051,5.051,0,0,0,1.054-.078v.845a5.722,5.722,0,0,0-1.054-.065H86.756a5.492,5.492,0,0,0,1.833,1.652,3.25,3.25,0,0,0-.455.7,6.66,6.66,0,0,1-1.625-1.794c.025.286.039.663.052,1.144v1.886a7.05,7.05,0,0,0,.065,1.117h-.9a7.3,7.3,0,0,0,.078-1.117v-1.847c0-.312.012-.649.039-1.079a7.73,7.73,0,0,1-2.457,2.887,2.653,2.653,0,0,0-.494-.728,8.7,8.7,0,0,0,1.69-1.431,6.1,6.1,0,0,0,.948-1.391Zm2.315-2.9A6.929,6.929,0,0,0,87.38,272l.78.247a13.77,13.77,0,0,1-.885,1.885h.768a5.71,5.71,0,0,0,1.053-.065v.871a6.063,6.063,0,0,0-1.053-.065H84.182a5.931,5.931,0,0,0-1.079.065v-.871a5.759,5.759,0,0,0,1.079.065Zm1.326-2.99a6.023,6.023,0,0,0,1.092-.065v.871a6.633,6.633,0,0,0-1.106-.065H84.493a6.59,6.59,0,0,0-1.131.065v-.871a6.317,6.317,0,0,0,1.145.065h1.3v-.351a4.421,4.421,0,0,0-.066-.91h.949a4.429,4.429,0,0,0-.064.91v.351Zm-2.978,2.873a7.17,7.17,0,0,0-.741-1.742l.69-.26a7.779,7.779,0,0,1,.741,1.755Zm8.906.026a6.594,6.594,0,0,0,1.2-.078v.9a6.764,6.764,0,0,0-1.145-.065h-.48v5.668a6.509,6.509,0,0,0,.078,1.3h-1a7.883,7.883,0,0,0,.078-1.3V274.8H90.447v.507a14.256,14.256,0,0,1-.74,4.668,6.777,6.777,0,0,1-.962,1.78,2.749,2.749,0,0,0-.741-.545c1.248-1.535,1.638-3.354,1.638-7.7,0-1.469-.027-2.028-.065-2.4h.155a12.526,12.526,0,0,0,3.081-.6,4.121,4.121,0,0,0,1.2-.559l.663.728a4.337,4.337,0,0,0-.468.182,15.826,15.826,0,0,1-3.744.962v2.223Z"/><path class="cls-5" d="M99.016,270.609a20.043,20.043,0,0,0-.169,2.743c-.053,1.56-.092,3.328-.092,3.914,0,.155.014.481.026.779a2.043,2.043,0,0,0,.612,1.56,2.446,2.446,0,0,0,1.625.507,3.734,3.734,0,0,0,3.484-2.261,7.735,7.735,0,0,0,.637-2.041,3.7,3.7,0,0,0,.935.624,7.911,7.911,0,0,1-1.442,2.95,4.551,4.551,0,0,1-3.666,1.626,3.087,3.087,0,0,1-2.445-.91,3.625,3.625,0,0,1-.714-2.665c0-.872.012-1.2.116-5.292.014-.39.014-.637.014-.845a4.1,4.1,0,0,0-.052-.689Z"/><path class="cls-5" d="M109.74,271.545a9.423,9.423,0,0,0-.091,1.547,22.262,22.262,0,0,0,.338,4.043c.286,1.326.819,2.223,1.313,2.223.234,0,.455-.22.65-.65a9.339,9.339,0,0,0,.676-2.223,4.168,4.168,0,0,0,.768.742c-.638,2.274-1.236,3.146-2.159,3.146-.728,0-1.4-.728-1.846-1.977s-.637-2.9-.7-6.1a7.033,7.033,0,0,0-.039-.767Zm6.28.689a11.306,11.306,0,0,1,1.858,2.964,12.491,12.491,0,0,1,.976,3.471l-.923.377a11.5,11.5,0,0,0-2.7-6.409Z"/><path class="cls-5" d="M126.835,280.632c0,.806-.247.963-1.456.963-.364,0-1.04-.027-1.5-.078a3.9,3.9,0,0,0-.273-.832,13.746,13.746,0,0,0,1.7.143c.6,0,.689-.039.689-.312V277.9h-3.9a9.918,9.918,0,0,0-1.365.078v-.9a9.714,9.714,0,0,0,1.352.078H126v-.221c0-.26-.013-.494-.039-.767h.546a10.918,10.918,0,0,0,2.327-1.469h-4.758a11.356,11.356,0,0,0-1.235.066v-.846a11.771,11.771,0,0,0,1.261.065H128.8a5.752,5.752,0,0,0,.962-.051l.494.519c-.169.13-.169.13-.455.377a14.8,14.8,0,0,1-2.964,1.924v.4H130.7a9.557,9.557,0,0,0,1.366-.078v.9a9.882,9.882,0,0,0-1.378-.078h-3.849Zm-3.51-8.593a8.693,8.693,0,0,0-1.222-1.69l.78-.247a12.385,12.385,0,0,1,1.326,1.924h1.9a7.7,7.7,0,0,0-.949-1.872l.806-.221a11.14,11.14,0,0,1,.988,2.093h1.43a7.78,7.78,0,0,0,1.34-2.093l.818.351a12.035,12.035,0,0,1-1.248,1.742h1.015a14.782,14.782,0,0,0,1.5-.052,8.39,8.39,0,0,0-.053,1.079v.962a7.139,7.139,0,0,0,.065.91h-.858v-2.184h-9.178v2.184h-.858a6.813,6.813,0,0,0,.065-.91v-.962a8.413,8.413,0,0,0-.052-1.079,11.643,11.643,0,0,0,1.482.065Z"/><path class="cls-5" d="M135.09,271.051a6.542,6.542,0,0,0-1.235.078v-.871a8.945,8.945,0,0,0,1.327.078h2.69a8.8,8.8,0,0,0,1.248-.052,10.174,10.174,0,0,0-.052,1.261v2.9c0,.494-.078.7-.3.845a1.731,1.731,0,0,1-.962.169,9.505,9.505,0,0,1-1.184-.078,3.875,3.875,0,0,0-.182-.767,7.8,7.8,0,0,0,1.405.143c.389,0,.455-.052.455-.377v-3.328Zm2.639,2.509a25.329,25.329,0,0,1-3.093,1.56,4.792,4.792,0,0,0-.455.221l-.326-.793a14.73,14.73,0,0,0,3.8-1.716Zm-1.4-.468a7.566,7.566,0,0,0-1.858-1.222l.519-.507a11.807,11.807,0,0,1,1.872,1.183Zm5.773,3.185c.65,0,1.027-.013,1.429-.051a12.775,12.775,0,0,0-.051,1.442v2.744a8.186,8.186,0,0,0,.078,1.338h-.9v-.584h-6.37v.584H135.4a8.416,8.416,0,0,0,.078-1.338v-2.744a13.527,13.527,0,0,0-.051-1.442c.441.038.779.051,1.417.051H138.6a4.963,4.963,0,0,0,.519-1.1l.859.182c-.235.456-.313.585-.52.923Zm-5.812,2h6.37v-1.3h-6.37Zm0,2.184h6.37v-1.482h-6.37Zm4.473-9.412a6.635,6.635,0,0,0-1.236.078v-.871a9.077,9.077,0,0,0,1.327.078h2.638a8.6,8.6,0,0,0,1.236-.052,10.309,10.309,0,0,0-.052,1.261v2.938c0,.429-.014.481-.078.624-.156.287-.443.39-1.118.39-.338,0-.728-.026-1.339-.078a2.292,2.292,0,0,0-.157-.78,8.989,8.989,0,0,0,1.405.143c.48,0,.494-.012.494-.377v-3.354Zm2.56,2.548a26.752,26.752,0,0,1-2.834,1.261c-.259.1-.364.143-.546.234l-.3-.819a12.931,12.931,0,0,0,3.627-1.417Zm-1.468-.481a10.66,10.66,0,0,0-1.938-1.222l.508-.507a12.493,12.493,0,0,1,1.936,1.2Z"/><path class="cls-5" d="M148.063,275.991c0-.585,0-.949.04-1.586a9.7,9.7,0,0,1-1.339,1.9,3.1,3.1,0,0,0-.521-.741,12.429,12.429,0,0,0,2.523-3.965,7.97,7.97,0,0,0,.494-1.7l.91.273c-.117.273-.183.429-.352.9a18.527,18.527,0,0,1-.935,2.184v6.942a12.932,12.932,0,0,0,.064,1.521h-.962a12.911,12.911,0,0,0,.078-1.56Zm4.264,3.108a5.791,5.791,0,0,0-1.053.065v-.858a5.972,5.972,0,0,0,1.067.065h1.079V275.64c0-.6,0-1.04.025-1.6a12.837,12.837,0,0,1-3.757,5.135,2.3,2.3,0,0,0-.624-.689,10.91,10.91,0,0,0,2.705-2.756,10.682,10.682,0,0,0,1.313-2.275H151.04a9.763,9.763,0,0,0-1.286.078v-.91a8.8,8.8,0,0,0,1.3.078h2.366v-1.43a10.119,10.119,0,0,0-.092-1.274h.976a6.691,6.691,0,0,0-.1,1.274v1.43h2.77a9.521,9.521,0,0,0,1.339-.078v.91a9.854,9.854,0,0,0-1.327-.078h-2.457a14.882,14.882,0,0,0,1.833,2.86,10.828,10.828,0,0,0,2.354,2.184,2.962,2.962,0,0,0-.637.729,13.714,13.714,0,0,1-3.914-5.214c.027.755.039,1.105.039,1.625v2.731h1.184a5.979,5.979,0,0,0,1.053-.065v.858a5.877,5.877,0,0,0-1.053-.065H154.2v1.274a11.416,11.416,0,0,0,.078,1.338h-.949a10.978,10.978,0,0,0,.092-1.338V279.1Z"/><path class="cls-5" d="M161.012,277.512a11.846,11.846,0,0,1-.663,3.381l-.624-.326a9.482,9.482,0,0,0,.7-3.171Zm2.2-1.365h.585a7.447,7.447,0,0,0,1.144-.052c-.026.234-.026.351-.052.755a17.02,17.02,0,0,1-.546,4.16c-.208.481-.494.636-1.1.636a7.846,7.846,0,0,1-1.04-.078,2.324,2.324,0,0,0-.13-.805,4.333,4.333,0,0,0,1.157.169.519.519,0,0,0,.559-.481,21.831,21.831,0,0,0,.377-3.654H161.48c-.377,0-.754.014-1.027.039.026-.337.039-.7.039-1.157V271.61a10.368,10.368,0,0,0-.053-1.248,7.574,7.574,0,0,0,1.2.065h2.145a6.407,6.407,0,0,0,1.131-.065v.793a5.954,5.954,0,0,0-1.066-.065h-.637v1.235h.352a5.672,5.672,0,0,0,1.013-.065v.754a5.761,5.761,0,0,0-1.013-.065h-.352v1.209h.352a6.638,6.638,0,0,0,1.013-.052v.741a5.585,5.585,0,0,0-1.013-.065h-.352Zm-.7-5.057h-1.3v1.235h1.3Zm0,1.859h-1.3v1.209h1.3Zm-1.3,1.833v1.365h1.3v-1.365Zm.689,2.678a21.369,21.369,0,0,1,.1,2.249c0,.091,0,.312-.013.56l-.65.09c.039-.7.052-1.066.052-1.625,0-.467-.013-.675-.039-1.183Zm.793-.064a12.344,12.344,0,0,1,.364,2.353l-.585.155a12.761,12.761,0,0,0-.273-2.392Zm.78-.144a7.765,7.765,0,0,1,.416,1.743l-.494.181a7.274,7.274,0,0,0-.364-1.794Zm5.291.664a5.82,5.82,0,0,0,.7,1.195,5.94,5.94,0,0,0,2.574,1.937,3.379,3.379,0,0,0-.494.742,7.033,7.033,0,0,1-3.314-3.5,5.614,5.614,0,0,1-3.121,3.472,2.4,2.4,0,0,0-.545-.663,4.8,4.8,0,0,0,3.015-3.185h-1.17a7.327,7.327,0,0,0-.988.051,5.994,5.994,0,0,0,.052-.923v-1.482a6.866,6.866,0,0,0-.052-.91,6.975,6.975,0,0,0,1.027.052h1.43c.014-.156.014-.338.014-.338,0-.065,0-.22-.014-.442v-.39H167.2a5.993,5.993,0,0,0-1.04.065v-.78a7.526,7.526,0,0,0,1.04.052h2.185a7.112,7.112,0,0,0,1.013-.052v.78a5.72,5.72,0,0,0-1.04-.065H168.6v1.17h1.521a7.052,7.052,0,0,0,1.04-.052,6.251,6.251,0,0,0-.052.91v1.482a5.472,5.472,0,0,0,.052.923,7.878,7.878,0,0,0-.975-.051Zm-.195-7.892a5.624,5.624,0,0,0,1.2,1.326,8.417,8.417,0,0,0,2.274,1.4,2.386,2.386,0,0,0-.441.728,10.6,10.6,0,0,1-1.977-1.3,8.747,8.747,0,0,1-1.481-1.521,9.535,9.535,0,0,1-3.056,2.847,2.4,2.4,0,0,0-.455-.663,7.777,7.777,0,0,0,3.068-2.821Zm-2.366,5.343v1.911h1.522a13.736,13.736,0,0,0,.142-1.911Zm2.392,0a13.493,13.493,0,0,1-.143,1.911h1.924v-1.911Z"/><path class="cls-5" d="M177,275.81a1.066,1.066,0,1,1-1.066-1.067A1.07,1.07,0,0,1,177,275.81Z"/><path class="cls-5" d="M186.53,280.632c0,.806-.247.963-1.456.963-.364,0-1.04-.027-1.5-.078a3.9,3.9,0,0,0-.272-.832,13.731,13.731,0,0,0,1.7.143c.6,0,.688-.039.688-.312V277.9h-3.9a9.9,9.9,0,0,0-1.364.078v-.9a9.708,9.708,0,0,0,1.351.078H185.7v-.221a7.477,7.477,0,0,0-.039-.767h.546a10.868,10.868,0,0,0,2.327-1.469h-4.758a11.371,11.371,0,0,0-1.235.066v-.846a11.777,11.777,0,0,0,1.262.065h4.692a5.744,5.744,0,0,0,.962-.051l.494.519c-.169.13-.169.13-.455.377a14.8,14.8,0,0,1-2.964,1.924v.4h3.862a9.532,9.532,0,0,0,1.365-.078v.9a9.872,9.872,0,0,0-1.378-.078H186.53Zm-3.509-8.593a8.7,8.7,0,0,0-1.223-1.69l.78-.247a12.317,12.317,0,0,1,1.326,1.924h1.9a7.7,7.7,0,0,0-.949-1.872l.8-.221a11.14,11.14,0,0,1,.988,2.093h1.43a7.78,7.78,0,0,0,1.34-2.093l.818.351a12.035,12.035,0,0,1-1.248,1.742H190a14.782,14.782,0,0,0,1.5-.052,8.39,8.39,0,0,0-.053,1.079v.962a7.141,7.141,0,0,0,.066.91h-.859v-2.184h-9.177v2.184h-.859a6.81,6.81,0,0,0,.066-.91v-.962a8.39,8.39,0,0,0-.053-1.079,11.652,11.652,0,0,0,1.482.065Z"/><path class="cls-5" d="M194.785,271.051a6.524,6.524,0,0,0-1.234.078v-.871a8.93,8.93,0,0,0,1.326.078h2.69a8.791,8.791,0,0,0,1.248-.052,10.218,10.218,0,0,0-.051,1.261v2.9c0,.494-.078.7-.3.845a1.731,1.731,0,0,1-.962.169,9.53,9.53,0,0,1-1.184-.078,3.873,3.873,0,0,0-.181-.767,7.794,7.794,0,0,0,1.4.143c.39,0,.455-.052.455-.377v-3.328Zm2.64,2.509a25.348,25.348,0,0,1-3.094,1.56,4.792,4.792,0,0,0-.455.221l-.325-.793a14.745,14.745,0,0,0,3.8-1.716Zm-1.4-.468a7.572,7.572,0,0,0-1.859-1.222l.52-.507a11.9,11.9,0,0,1,1.872,1.183Zm5.772,3.185c.65,0,1.027-.013,1.43-.051a12.712,12.712,0,0,0-.052,1.442v2.744a8.186,8.186,0,0,0,.078,1.338h-.9v-.584h-6.371v.584H195.1a8.539,8.539,0,0,0,.078-1.338v-2.744a13.47,13.47,0,0,0-.052-1.442c.441.038.779.051,1.417.051H198.3a4.875,4.875,0,0,0,.519-1.1l.859.182c-.235.456-.313.585-.52.923Zm-5.812,2h6.371v-1.3h-6.371Zm0,2.184h6.371v-1.482h-6.371Zm4.473-9.412a6.617,6.617,0,0,0-1.235.078v-.871a9.062,9.062,0,0,0,1.326.078h2.639a8.581,8.581,0,0,0,1.235-.052,10.309,10.309,0,0,0-.052,1.261v2.938c0,.429-.013.481-.078.624-.156.287-.442.39-1.118.39-.338,0-.728-.026-1.339-.078a2.315,2.315,0,0,0-.156-.78,8.978,8.978,0,0,0,1.4.143c.481,0,.494-.012.494-.377v-3.354Zm2.561,2.548a26.935,26.935,0,0,1-2.834,1.261c-.26.1-.365.143-.546.234l-.3-.819a12.92,12.92,0,0,0,3.627-1.417Zm-1.469-.481a10.593,10.593,0,0,0-1.938-1.222l.508-.507a12.549,12.549,0,0,1,1.937,1.2Z"/><path class="cls-5" d="M207.239,271.35a5.74,5.74,0,0,0-1.04.065v-.858a4.944,4.944,0,0,0,1.093.078h1.287a5.075,5.075,0,0,0,1.092-.078v.858a5.551,5.551,0,0,0-.988-.065h-.208v3.068h.181a4.137,4.137,0,0,0,.846-.064v.818a5.683,5.683,0,0,0-.846-.052h-.181V278.2a16.49,16.49,0,0,0,1.534-.662v.805c-1.222.559-1.7.755-3.017,1.236-.272.1-.507.208-.688.285l-.26-.923a6.838,6.838,0,0,0,1.638-.442v-3.38h-.4a4.455,4.455,0,0,0-.883.066v-.832a4.46,4.46,0,0,0,.883.064h.4V271.35Zm10.414,6.878a.711.711,0,0,0-.169.116c-.052.039-.052.039-.247.2a14.381,14.381,0,0,1-1.339.987,8.756,8.756,0,0,0,2.431,1.105,3.333,3.333,0,0,0-.455.755,9.467,9.467,0,0,1-2.548-1.456,5.752,5.752,0,0,1-1.443-1.6c.026.3.052.818.052,1.273v.989a7.289,7.289,0,0,0,.078,1.248h-.91a7.563,7.563,0,0,0,.078-1.261v-.95c0-.363.026-.9.051-1.235a7.755,7.755,0,0,1-1.794,1.625,13.415,13.415,0,0,1-2.08,1.17,2.548,2.548,0,0,0-.558-.689,9.276,9.276,0,0,0,4.277-2.782h-1.612a9.873,9.873,0,0,0-1.014.039,6.933,6.933,0,0,0,.039-.806V276.1a7.267,7.267,0,0,0-.039-.806c.312.026.6.039,1.04.039h4.563c.494,0,.767-.013,1.079-.039a7.116,7.116,0,0,0-.039.806v.871a6.7,6.7,0,0,0,.039.793.8.8,0,0,0-.169-.012Zm-7.826-4.473a8.091,8.091,0,0,0,1.235.078h5.668a10.829,10.829,0,0,0,1.222-.065v.806a11.059,11.059,0,0,0-1.2-.065h-5.707a11.176,11.176,0,0,0-1.222.065Zm.312-2.639a5.381,5.381,0,0,0-.052-.871,7.174,7.174,0,0,0,1.04.052h5.394a7.532,7.532,0,0,0,1.041-.052,5.627,5.627,0,0,0-.052.858v1.118a5.518,5.518,0,0,0,.052.858c-.286-.026-.6-.039-1-.039h-5.434c-.416,0-.65.013-1.027.039a6.781,6.781,0,0,0,.039-.884Zm2.261-.182h-1.52v1.482h1.52Zm-1.13,6.149H216.3v-1.131H211.27Zm3.25-6.149h-1.43v1.482h1.43Zm-.481,6.786a7.325,7.325,0,0,0,1.287,1.379,5.859,5.859,0,0,0,1.625-1.352c-.208-.014-.507-.027-.78-.027Zm2.743-6.786h-1.573v1.482h1.573Z"/><path class="cls-5" d="M221.163,271.48a10.663,10.663,0,0,0-.078-1.43h.949a10.43,10.43,0,0,0-.078,1.43v1.9h.183a7.3,7.3,0,0,0,1.026-.052v.832a7.647,7.647,0,0,0-1.04-.052h-.169v3.731c.546-.247.78-.351,1.431-.689l.064.793c-1.027.52-1.716.832-3.2,1.431-.169.077-.377.169-.532.247l-.235-.9a7.956,7.956,0,0,0,1.677-.559v-4.057h-.429a7.883,7.883,0,0,0-1.13.065v-.858a7.5,7.5,0,0,0,1.156.065h.4Zm3.849,6.929c-.377,0-.638.013-1.106.052a5.3,5.3,0,0,0,.052-.91v-2.093a7,7,0,0,0-.052-1.014,10.49,10.49,0,0,0,1.248.052h4.1a10.425,10.425,0,0,0,1.222-.052,6.631,6.631,0,0,0-.052,1.04v1.99a6.28,6.28,0,0,0,.052.987,9.022,9.022,0,0,0-1.067-.052h-1.026v2.029c0,.247.142.286,1.143.286.7,0,.937-.053,1.04-.208a3.623,3.623,0,0,0,.182-1.378,2.493,2.493,0,0,0,.768.324c-.078,1.105-.2,1.535-.494,1.756-.26.195-.6.246-1.664.246a3.222,3.222,0,0,1-1.469-.181c-.208-.1-.3-.286-.3-.624v-2.25H226.26a3.5,3.5,0,0,1-.183.963,3.158,3.158,0,0,1-1.43,1.664,5.878,5.878,0,0,1-2.028.74,2.1,2.1,0,0,0-.519-.766,4.577,4.577,0,0,0,2.743-1.079,2.222,2.222,0,0,0,.624-1.522Zm4.615-7.358a9.019,9.019,0,0,0,1.312-.065v.78a12.322,12.322,0,0,0-1.312-.052H229.5a11.244,11.244,0,0,1-.637,1.313h1.131a8.214,8.214,0,0,0,1.287-.065v.819a8.94,8.94,0,0,0-1.3-.065h-5.343a11.105,11.105,0,0,0-1.236.052v-.806a8.123,8.123,0,0,0,1.222.065h.832a6.629,6.629,0,0,0-.546-1.313h-.117a10.136,10.136,0,0,0-1.183.052v-.78a8.759,8.759,0,0,0,1.288.065h1.845v-.364a4.063,4.063,0,0,0-.064-.845h.935a4.114,4.114,0,0,0-.064.858v.351ZM224.7,276.1h4.953v-.923H224.7Zm0,1.677h4.953v-1.027H224.7Zm3.367-4.745a8.041,8.041,0,0,0,.624-1.313h-2.976a12.568,12.568,0,0,1,.519,1.313Z"/><path class="cls-5" d="M236.594,272a5.492,5.492,0,0,0,.624-1.781l1.04.182a2.838,2.838,0,0,0-.338.7c-.169.416-.338.767-.4.884a2.19,2.19,0,0,1,.272-.013,18.318,18.318,0,0,0,4.1-.494l.077.884a4.1,4.1,0,0,0-.52.065,41.93,41.93,0,0,1-4.29.338,9.538,9.538,0,0,1-1.17,1.846c-.129.157-.39.455-.442.494-.091.065-.156.117-.169.13a.013.013,0,0,1-.013.013v.013a.1.1,0,0,0,.026.039c.469-.364.469-.364.6-.455a3.462,3.462,0,0,1,1.963-.637,1.578,1.578,0,0,1,1.716,1.443c.949-.377,1.691-.65,2.263-.858a2.834,2.834,0,0,0,.884-.377l.416.91a21.586,21.586,0,0,0-3.472,1.144c.026.339.026.468.026.794,0,.169,0,.454-.012.714-.014.287-.014.468-.014.585a2.814,2.814,0,0,0,.026.468l-.883.013a18.7,18.7,0,0,0,.078-1.872,3.173,3.173,0,0,0-.014-.39c-1.768.832-2.443,1.444-2.443,2.223,0,.858.805,1.236,2.638,1.236a10.857,10.857,0,0,0,3.471-.508l.117,1c-.194.014-.26.027-.519.066a20.19,20.19,0,0,1-3.16.26c-2.327,0-3.458-.664-3.458-2a2.687,2.687,0,0,1,1.327-2.055,10.047,10.047,0,0,1,1.936-1.04c-.1-.715-.416-1.027-1.027-1.027a4.884,4.884,0,0,0-2.9,1.378,4.305,4.305,0,0,0-1,1.08l-.728-.729a12.922,12.922,0,0,0,2.912-3.718l.117-.195a1.429,1.429,0,0,1-.247.026c-.208,0-1.43-.026-1.911-.039h-.208a2.305,2.305,0,0,0-.286.013l.013-.9a18.2,18.2,0,0,0,2.782.143Z"/><path class="cls-5" d="M252.467,276.446h-2.34a5.8,5.8,0,0,0-1.053.065V275.8c-.507.273-.78.4-1.287.624v4.265c0,.714-.286.922-1.274.922-.3,0-.573-.012-1.04-.051a2.741,2.741,0,0,0-.182-.82,8.083,8.083,0,0,0,1.222.1c.377,0,.481-.077.481-.363v-3.719c-.885.365-1.4.585-1.573.663l-.234-.871a8.033,8.033,0,0,0,1.807-.6v-2.73h-.754a9.214,9.214,0,0,0-.963.065v-.871a5.831,5.831,0,0,0,.976.078h.741v-1.183a8.628,8.628,0,0,0-.078-1.313h.949a8.017,8.017,0,0,0-.078,1.287v1.209h.572a4,4,0,0,0,.9-.065v.845a5.36,5.36,0,0,0-.884-.052h-.585v2.392a12.133,12.133,0,0,0,1.4-.676v.754a7.436,7.436,0,0,0,.988.052h5.408a7.259,7.259,0,0,0,1.157-.077v.857a7.241,7.241,0,0,0-1.157-.078H253.26v1.495h1.729a6.318,6.318,0,0,0,1.131-.065v.819a6.789,6.789,0,0,0-1.131-.065H253.26V280.5a10.3,10.3,0,0,0,1.638.118c.65,0,1.352-.026,2.12-.092a2.379,2.379,0,0,0-.247.846c-1.015.013-1.015.013-1.17.013-2.224,0-3.42-.235-4.252-.82a5.064,5.064,0,0,1-1.1-1.091,8.329,8.329,0,0,1-1.508,2.235,2.1,2.1,0,0,0-.663-.493,6.651,6.651,0,0,0,1.625-2.366,5.879,5.879,0,0,0,.481-1.794l.845.208a5.154,5.154,0,0,0-.208.662c-.091.286-.169.547-.273.82a3.627,3.627,0,0,0,1.924,1.546Zm-1.417-1.69c-.481,0-.845.014-1.17.039.026-.377.039-.754.039-1.222v-1.885c0-.481-.013-.9-.039-1.209a11,11,0,0,0,1.222.052h3.537a10.537,10.537,0,0,0,1.221-.052,7.317,7.317,0,0,0-.051,1.04v2.106c0,.416.012.689.051,1.17-.3-.025-.728-.039-1.248-.039Zm-.364-2.444h4.342V271.22h-4.342Zm0,1.768h4.342v-1.1h-4.342Z"/><path class="cls-5" d="M262.035,270.063c-.052.156-.1.286-.194.572a18.964,18.964,0,0,1-.988,2.457v7.1c0,.56.026,1.105.065,1.521h-.963a12.442,12.442,0,0,0,.078-1.56v-4.264c0-.6.014-.975.039-1.573a9.343,9.343,0,0,1-1.365,2,.812.812,0,0,1-.077-.143,1.98,1.98,0,0,0-.247-.363c-.117-.131-.183-.208-.195-.222a12.256,12.256,0,0,0,2.183-3.354,9.859,9.859,0,0,0,.755-2.444Zm2.9,8.437a11.368,11.368,0,0,1-2.913,3.121,2.634,2.634,0,0,0-.688-.624,8.481,8.481,0,0,0,2.859-2.977Zm2.223-5.733v-1.6a6.664,6.664,0,0,0-.078-1.079h.975a5.458,5.458,0,0,0-.078,1.079v1.6h.832a7.61,7.61,0,0,0,1.209-.078v.91a7.85,7.85,0,0,0-1.209-.078h-.832v3.2h1.169a8.625,8.625,0,0,0,1.262-.077v.922a8.593,8.593,0,0,0-1.262-.078h-6.4a8.521,8.521,0,0,0-1.248.078v-.922a8.069,8.069,0,0,0,1.248.077h1.092v-3.2h-.651a7.628,7.628,0,0,0-1.209.078v-.91a7.733,7.733,0,0,0,1.209.078h.651v-1.612a7.226,7.226,0,0,0-.078-1.066h.962a6.675,6.675,0,0,0-.065,1.079v1.6Zm0,3.952v-3.2h-2.5v3.2Zm.3,1.248a9.723,9.723,0,0,0,2.938,2.977,4.457,4.457,0,0,0-.65.716,12.694,12.694,0,0,1-3-3.238Z"/><path class="cls-6" d="M26.5,169.643a2.861,2.861,0,1,1-2.861-2.86A2.861,2.861,0,0,1,26.5,169.643Z"/><path class="cls-5" d="M31.914,173.671a12.163,12.163,0,0,0,4.473-2.821,14.943,14.943,0,0,0-2.471-1.963l.729-.845a10.907,10.907,0,0,1,2.546,1.859,11.568,11.568,0,0,0,1.768-3.406h-4.2a12.852,12.852,0,0,1-2.809,2.912l-.935-.781a12.8,12.8,0,0,0,3.99-5.173l1.287.4a17.144,17.144,0,0,1-.793,1.521h4.16l.754.781a12.311,12.311,0,0,1-7.67,8.632Z"/><path class="cls-5" d="M51.531,165.663a8.943,8.943,0,0,0-.832-2.224l.819-.221a8.3,8.3,0,0,1,.937,2.315l-.793.246.311.273a10.476,10.476,0,0,1-7.1,8.672l-.729-1.157a9.173,9.173,0,0,0,6.344-7.086H42.848v-1.222h8.214Zm1.533-2.861a8.99,8.99,0,0,1,1,2.288l-.871.273a8.52,8.52,0,0,0-.924-2.3Z"/><path class="cls-5" d="M57.8,164.505v8.152a13.026,13.026,0,0,0,6.709-4.511l.818,1.053a13.559,13.559,0,0,1-8.178,5l-.7-.793v-8.906Z"/><path class="cls-5" d="M68.678,166.911a13.01,13.01,0,0,1,1.222,2.834l-1.17.416A14.991,14.991,0,0,0,67.6,167.3Zm7.4-.13a11.8,11.8,0,0,1-1.846,4.953,8.812,8.812,0,0,1-3.8,3.133l-.729-.975a8.329,8.329,0,0,0,3.524-2.873A10.309,10.309,0,0,0,74.84,166.5Zm-4.629-.443a14.156,14.156,0,0,1,1.223,2.834l-1.145.4a16.542,16.542,0,0,0-1.144-2.887Z"/><path class="cls-5" d="M81.99,167.561a25.027,25.027,0,0,1,5.24,2.314l-.6,1.208a27.26,27.26,0,0,0-4.641-2.222v5.733H80.65V163.83h1.34Z"/><path class="cls-5" d="M93.184,169.172a1.282,1.282,0,1,1-1.288-1.286A1.272,1.272,0,0,1,93.184,169.172Z"/><path class="cls-5" d="M98.357,164.6a11.46,11.46,0,0,0-1.314.052V163.6a10.912,10.912,0,0,0,1.393.078h6.681a9.417,9.417,0,0,0,1.365-.078v1.053a10.658,10.658,0,0,0-1.287-.052h-2.99v.6h3.563a13.129,13.129,0,0,0,1.494-.051,9.561,9.561,0,0,0-.039,1v.793a5.547,5.547,0,0,0,.064.987H106.17V166.04h-3.965v1.377a9.187,9.187,0,0,0,.053,1.223H101.01a9.189,9.189,0,0,0,.076-1.223V166.04H97.342v1.884H96.211a6.642,6.642,0,0,0,.078-.987v-.793c-.012-.469-.025-.728-.051-1a13.129,13.129,0,0,0,1.494.051h3.354v-.6Zm.065,8.425v.676H97.238c.039-.312.065-.754.078-1.2v-2.339c-.013-.507-.025-.871-.064-1.183a9.453,9.453,0,0,0,1.17.052h6.592a9.827,9.827,0,0,0,1.22-.052,10.721,10.721,0,0,0-.039,1.2v1.963a8.693,8.693,0,0,0,.028.936,11.214,11.214,0,0,0-1.209-.052h-2.848v.572c0,.143.053.208.246.26a14.392,14.392,0,0,0,1.756.078,5.213,5.213,0,0,0,2.094-.221c.156-.13.207-.507.22-1.469a3.719,3.719,0,0,0,1.092.39c-.1,2.132-.26,2.223-3.7,2.223-2.431,0-2.783-.117-2.783-.923v-.91Zm-.481-6.526a4.638,4.638,0,0,0,.7.039h1.144a3.724,3.724,0,0,0,.69-.039v.767a4.568,4.568,0,0,0-.69-.039H98.643a4.406,4.406,0,0,0-.7.039Zm0,1.221a4.184,4.184,0,0,0,.7.039h1.144a4.351,4.351,0,0,0,.69-.039v.767a4.638,4.638,0,0,0-.69-.038H98.643a4.787,4.787,0,0,0-.7.038Zm.481,2.146v.7h2.664v-.7Zm0,1.508v.78h2.664v-.78Zm6.67-.807v-.7h-2.926v.7Zm0,1.587v-.78h-2.926v.78Zm-2.237-5.669a4.484,4.484,0,0,0,.7.04H104.9a4.221,4.221,0,0,0,.69-.04v.768a5.058,5.058,0,0,0-.69-.04h-1.339a4.845,4.845,0,0,0-.7.04Zm0,1.248a4.484,4.484,0,0,0,.7.04H104.9a4.342,4.342,0,0,0,.69-.04v.768a4.345,4.345,0,0,0-.69-.039h-1.339a4.068,4.068,0,0,0-.7.039Z"/><path class="cls-5" d="M114.439,167.755a8.483,8.483,0,0,0-.039-.909h.637a12.754,12.754,0,0,0,2.535-1.821h-5.6a9.861,9.861,0,0,0-1.43.079V163.83a10.733,10.733,0,0,0,1.43.077h5.888a5.982,5.982,0,0,0,1.067-.052l.7.78a18.2,18.2,0,0,1-3.951,3.055v.742h3.3a13.089,13.089,0,0,0,1.664-.078v1.3a13.306,13.306,0,0,0-1.653-.078h-3.314v3.939c0,1-.377,1.261-1.885,1.261-.351,0-.494,0-1.482-.065a4.324,4.324,0,0,0-.313-1.261,12.42,12.42,0,0,0,1.834.143c.506,0,.611-.052.611-.338v-3.679h-3.576a14.115,14.115,0,0,0-1.664.078v-1.3a13.79,13.79,0,0,0,1.7.078h3.537Z"/><path class="cls-5" d="M127.5,164.856h-2.666a9.762,9.762,0,0,0-1.234.053v-.975a9.226,9.226,0,0,0,1.351.077H127.5a4.086,4.086,0,0,0-.078-.766h1.248a2.964,2.964,0,0,0-.092.766h2.563a12.7,12.7,0,0,0,1.416-.052,9.843,9.843,0,0,0-.04,1.092v.339h.092a7.33,7.33,0,0,0,1.221-.065v.974a8.827,8.827,0,0,0-1.248-.065h-.065v.455a8.043,8.043,0,0,0,.04.976,11.829,11.829,0,0,0-1.352-.052h-2.627v.558h3.043a8.385,8.385,0,0,0,1.313-.065v.936a11.8,11.8,0,0,0-1.313-.051h-3.043v.559h3.772a12.615,12.615,0,0,0,1.455-.065V170.5a11.391,11.391,0,0,0-1.455-.079h-8.516a11.7,11.7,0,0,0-1.457.079v-1.014a13.156,13.156,0,0,0,1.457.065H127.5v-.559h-2.9a11.641,11.641,0,0,0-1.313.051v-.936a8.486,8.486,0,0,0,1.313.065h2.9v-.558h-2.652a10.136,10.136,0,0,0-1.262.052v-.911a9.9,9.9,0,0,0,1.248.053H127.5v-.573h-3.666a10.2,10.2,0,0,0-1.457.065v-.974a13.512,13.512,0,0,0,1.457.065H127.5Zm-3.549,7.281a7.839,7.839,0,0,0-.053-1.235,10.788,10.788,0,0,0,1.418.039h5.59a10.871,10.871,0,0,0,1.416-.039,8.272,8.272,0,0,0-.051,1.235v1.56a6.94,6.94,0,0,0,.079,1.3h-1.2v-.455h-6.1V175h-1.17a9.995,9.995,0,0,0,.066-1.3Zm1.1.195h6.1v-.572h-6.1Zm0,1.365h6.1v-.6h-6.1Zm6.384-8.307v-.534h-2.861v.534Zm-2.861,1.417h2.861v-.573h-2.861Z"/><path class="cls-5" d="M136.539,167.808a5.185,5.185,0,0,0-.807.051v-.975a5.92,5.92,0,0,0,.807.053h1.209a3.56,3.56,0,0,0-.066-.846h1.13a5.7,5.7,0,0,0-.05.846h.988a4.03,4.03,0,0,0,.793-.053v.975a4.865,4.865,0,0,0-.807-.051h-.974v.675h.779a3.854,3.854,0,0,0,.754-.051v.936a4.718,4.718,0,0,0-.754-.039h-.779V170h1.013a4.215,4.215,0,0,0,.807-.051v.975a4.261,4.261,0,0,0-.807-.053h-.806a6.911,6.911,0,0,0,1.834,1.808,3.5,3.5,0,0,0-.547.91,6.556,6.556,0,0,1-1.547-1.82c0,.13.014.234.014.286l.025.286c0,.026.014.442.014.546v1.2a7.187,7.187,0,0,0,.078.975h-1.158a7.637,7.637,0,0,0,.078-.949V172.9c0-.26.013-.637.039-1.079a8.361,8.361,0,0,1-1.963,2.418,3.241,3.241,0,0,0-.662-.884,7.245,7.245,0,0,0,2.262-2.484h-1.131a4.723,4.723,0,0,0-.821.053v-.975a4.382,4.382,0,0,0,.821.051h1.443v-.675h-1.041a5.869,5.869,0,0,0-.779.039v-.936a4.143,4.143,0,0,0,.779.051h1.041v-.675Zm.9-2.679a7.388,7.388,0,0,1-1.34,1.431,3.078,3.078,0,0,0-.766-.768,5.137,5.137,0,0,0,1.949-2.574l1.131.221c-.234.468-.26.5-.377.741h1.977a5.825,5.825,0,0,0,1.105-.065v1.053a4.769,4.769,0,0,0,.949-1.9l1.1.22c-.143.351-.207.508-.3.7h2.848a5.493,5.493,0,0,0,1.195-.078v1.093a7.649,7.649,0,0,0-1.142-.065h-1.549c.248.337.365.52.533.779l-.338.169h1.092a3.3,3.3,0,0,0-.065.832v.118h.391a4.209,4.209,0,0,0,.793-.052v1a4.373,4.373,0,0,0-.807-.052h-.377v.961h.7a4.075,4.075,0,0,0,.78-.051v1.027a4.214,4.214,0,0,0-.793-.052h-4.785a4.256,4.256,0,0,0-.805.052v-1.027a4.714,4.714,0,0,0,.818.051h.455v-.961H141.7a4.637,4.637,0,0,0-.806.052v-1a6.317,6.317,0,0,0,.82.052h.1v-.118a3.377,3.377,0,0,0-.064-.832H142.9a3.175,3.175,0,0,0-.066.832v.118h1.6v-.118a4.162,4.162,0,0,0-.053-.819l-.545.273a7.165,7.165,0,0,0-.728-1.234h-.754a6.739,6.739,0,0,1-1.067,1.338,3.107,3.107,0,0,0-.767-.714,5.186,5.186,0,0,0,.6-.585,4.772,4.772,0,0,0-.885-.053h-.91a7.773,7.773,0,0,1,.559.832l-.936.4a6.181,6.181,0,0,0-.689-1.236Zm3.7,6.527a12.15,12.15,0,0,0-.053-1.313,10.669,10.669,0,0,0,1.287.052h2.549a10.184,10.184,0,0,0,1.312-.052,10.4,10.4,0,0,0-.05,1.261v2.21a9.018,9.018,0,0,0,.076,1.261h-1.143v-.533h-2.912v.507h-1.145a7.433,7.433,0,0,0,.079-1.222Zm1.066.364h2.912v-.728h-2.912Zm0,1.625h2.912v-.754h-2.912Zm.623-4.746h1.6v-.961h-1.6Z"/><path class="cls-6" d="M26.5,188.983a2.861,2.861,0,1,1-2.861-2.859A2.861,2.861,0,0,1,26.5,188.983Z"/><path class="cls-5" d="M40.092,185l.754.728c-.469,4.394-2.432,6.891-6.254,8.19l-.715-1.156c3.523-1.183,5.135-3.224,5.537-6.592H32.836v2.744H31.5V185h3.783v-1.989h1.352V185Z"/><path class="cls-5" d="M47.111,192.349v-4.382H44v-1.105h7.5v1.105H48.359v4.382h3.848v1.105H43.342v-1.105Z"/><path class="cls-5" d="M63.037,185a8.935,8.935,0,0,0-.832-2.223l.818-.221a8.285,8.285,0,0,1,.938,2.315l-.793.246.311.273a10.474,10.474,0,0,1-7.1,8.671l-.729-1.156A9.176,9.176,0,0,0,62,185.822H54.354V184.6h8.214Zm1.533-2.86a8.974,8.974,0,0,1,1,2.288l-.871.273a8.52,8.52,0,0,0-.924-2.3Z"/><path class="cls-5" d="M68.979,186.707a12.85,12.85,0,0,1-2.147,1.195,3.291,3.291,0,0,0-.65-1.066,11.255,11.255,0,0,0,5.293-4.082h1.259a11.831,11.831,0,0,0,5.526,4.017,4.962,4.962,0,0,0-.623,1.184,14.347,14.347,0,0,1-2.289-1.262v1.027a7.861,7.861,0,0,0-1.106-.052H70.031c-.351,0-.82.026-1.052.052Zm-.743,3.34a10.532,10.532,0,0,0-1.482.078v-1.261a10.852,10.852,0,0,0,1.482.078h7.893a10.263,10.263,0,0,0,1.469-.078v1.261a10.569,10.569,0,0,0-1.469-.078H71.668a16.625,16.625,0,0,1-1.441,2.7l1.519-.116c1.365-.1,1.664-.131,2.9-.286-.482-.534-.832-.911-1.378-1.443l.974-.533a28.87,28.87,0,0,1,2.99,3.379l-1.013.7c-.364-.559-.559-.845-.807-1.17-1.793.247-3.328.4-6.433.663a16.49,16.49,0,0,0-1.848.195l-.168-1.313c.273.025.519.039.689.039.078,0,.157,0,1.209-.053a15.883,15.883,0,0,0,1.469-2.769Zm5.994-3.471c.4,0,.637-.013.9-.026a11.711,11.711,0,0,1-2.99-2.769,11.844,11.844,0,0,1-2.926,2.769,7.363,7.363,0,0,0,.832.026Z"/><path class="cls-5" d="M83.2,185.979a5.464,5.464,0,0,0-.91-.053h-2a5.519,5.519,0,0,0-.949.053v-1.105a4.546,4.546,0,0,0,.949.064h1.924a5.96,5.96,0,0,0,.988-.052ZM79.637,194.4a7.882,7.882,0,0,0,.078-1.261v-1.755a8.428,8.428,0,0,0-.051-1.093,7.339,7.339,0,0,0,.844.039h1.6a7.869,7.869,0,0,0,.846-.039,9.137,9.137,0,0,0-.027,1.054v1.741c0,.443.013.767.039,1.054H82v-.43h-1.34v.69Zm.092-11.311a4.136,4.136,0,0,0,.9.065h1.469a4.156,4.156,0,0,0,.9-.065v1.079a5.333,5.333,0,0,0-.9-.052H80.625a5.82,5.82,0,0,0-.9.052Zm.039,3.627a7.05,7.05,0,0,0,.91.039h1.3a8.011,8.011,0,0,0,.921-.039v1.014c-.324-.025-.48-.039-.921-.039h-1.3a8.427,8.427,0,0,0-.91.039Zm0,1.768a7.4,7.4,0,0,0,.91.039h1.3a8.41,8.41,0,0,0,.921-.039V189.5a6.4,6.4,0,0,0-.921-.039h-1.3a8.586,8.586,0,0,0-.91.039Zm.9,4.317h1.354v-1.6H80.664Zm9.881-1.8a16.33,16.33,0,0,1-1.262,1.353c.3.454.639.766.832.766.209,0,.326-.337.444-1.195a2.825,2.825,0,0,0,.793.559c-.209,1.235-.508,1.729-1.067,1.729-.586,0-1.144-.4-1.717-1.235a9.506,9.506,0,0,1-1.845,1.143,4.955,4.955,0,0,0-.637-.832,10.011,10.011,0,0,0,2.041-1.143,8.827,8.827,0,0,1-.611-1.821l-1.782.014v.8c.6-.13,1.17-.285,1.457-.363l.012.844a5.277,5.277,0,0,1-.805.221,2.343,2.343,0,0,1-.312.079l-.352.09v1.236c0,.805-.3,1.04-1.3,1.04-.288,0-.456-.013-.768-.027a3.682,3.682,0,0,0-.209-.961,5.35,5.35,0,0,0,.937.091c.286,0,.377-.066.377-.286v-.885l-.13.026-.143.027c-.7.13-.91.169-1.119.22l-.182-.962h.053a11.5,11.5,0,0,0,1.521-.194v-.989h-.521a6.707,6.707,0,0,0-1.014.065v-1.013a6.264,6.264,0,0,0,1.041.051h.494v-.6c-.585.1-.793.131-1.066.157a2.818,2.818,0,0,0-.338-.729,7.11,7.11,0,0,0,3.041-.688l.586.675-.131.053-.271.09c-.223.078-.494.157-.86.247v.781l1.653-.013c-.039-.377-.053-.546-.078-.872a6.4,6.4,0,0,0-.079-.767H88.3a2.685,2.685,0,0,0-.039.481,10.33,10.33,0,0,0,.076,1.158l1.418-.014a5.846,5.846,0,0,0,1.105-.078v1.04a5.651,5.651,0,0,0-1.105-.065l-1.287.013a5.765,5.765,0,0,0,.39,1.209,4.7,4.7,0,0,0,.858-1.1Zm-5.252-7.254a5.147,5.147,0,0,0-.6-.962l1.028-.286a8.3,8.3,0,0,1,.675,1.248h1.274a6.145,6.145,0,0,0,.572-1.248l1.078.273a9.713,9.713,0,0,1-.533.975h.69a5.616,5.616,0,0,0,1.08-.065v.949a8.311,8.311,0,0,0-1.08-.052H87.438v.624h1.613a7.631,7.631,0,0,0,1.039-.052v.884a8.006,8.006,0,0,0-1.039-.052H87.438v.637h2.25a5.9,5.9,0,0,0,1.117-.065v.949a7.179,7.179,0,0,0-1.106-.052H84.461a6.971,6.971,0,0,0-1.119.052v-.949a5.755,5.755,0,0,0,1.119.065h1.977v-.637H85.006a7.288,7.288,0,0,0-1.053.052v-.884c.235.026.664.052,1.053.052h1.432v-.624h-1.77a8.943,8.943,0,0,0-1.078.052v-.949a5.6,5.6,0,0,0,1.078.065Zm3.887,3.9a8.829,8.829,0,0,1,1.273,1.053l-.7.546a6.58,6.58,0,0,0-1.248-1.13Z"/><path class="cls-5" d="M96.148,188.513a1.281,1.281,0,1,1-1.287-1.286A1.271,1.271,0,0,1,96.148,188.513Z"/><path class="cls-5" d="M98.891,187.564a5.08,5.08,0,0,0,1.013.065h.832a6.6,6.6,0,0,0,.975-.065,10.122,10.122,0,0,0-.051,1.248V191.6a1.936,1.936,0,0,0,.623.74,4.667,4.667,0,0,0,2.873.6,46.408,46.408,0,0,0,5.578-.247,3.992,3.992,0,0,0-.351,1.248c-1.145.039-2.781.078-4.16.078a11.363,11.363,0,0,1-3.457-.261,2.908,2.908,0,0,1-1.692-1.26,15.483,15.483,0,0,1-1.482,1.26,5.1,5.1,0,0,0-.428.352l-.547-1.2a7.622,7.622,0,0,0,1.924-1.378v-2.874h-.754a4.671,4.671,0,0,0-.9.065Zm.884-4.667a15.32,15.32,0,0,1,2.028,2.171l-.9.832a13.453,13.453,0,0,0-1.99-2.249Zm10.063,6.826c-.078.065-.184.155-.313.259a9.051,9.051,0,0,1-1,.754,7.675,7.675,0,0,0,1.977.689,3.678,3.678,0,0,0-.533,1.028,7,7,0,0,1-3.666-2.367,7.858,7.858,0,0,1,.053.82v.611a6.381,6.381,0,0,0,.064,1.079h-1.234a6.581,6.581,0,0,0,.064-1.054v-.714a8.226,8.226,0,0,1,.039-.859,8.363,8.363,0,0,1-2.834,1.872,3.051,3.051,0,0,0-.625-.909,8.79,8.79,0,0,0,3.029-1.652h-1.209c-.324,0-.675.013-.9.027a6.223,6.223,0,0,0,.039-.82v-.923a6.606,6.606,0,0,0-.039-.818,5.491,5.491,0,0,0,.885.051h4.925a5.8,5.8,0,0,0,.9-.051,4.808,4.808,0,0,0-.053.8v.949a7.182,7.182,0,0,0,.039.807l-.142-.014h-.248Zm-.756-4.5a7.276,7.276,0,0,0,1.211-.065v1.066a9.22,9.22,0,0,0-1.211-.065h-5.875a9.6,9.6,0,0,0-1.223.065v-1.066a7.147,7.147,0,0,0,1.209.065h2.237v-.754h-1.678a8.926,8.926,0,0,0-1.195.065v-1.092a7.6,7.6,0,0,0,1.273.078h1.6a4.967,4.967,0,0,0-.078-.845h1.273a3.953,3.953,0,0,0-.076.845h1.871a8.875,8.875,0,0,0,1.262-.078v1.092a9.864,9.864,0,0,0-1.2-.065h-1.935v.754Zm-5.2,3.237h4.445v-.818h-4.445Zm2.7.819a6.042,6.042,0,0,0,1.172,1.014,5.38,5.38,0,0,0,1.142-1.014h-2.314Z"/><path class="cls-5" d="M112.281,184.119c0-.546-.013-.806-.039-1.092a6.881,6.881,0,0,0,.9.039h1.547a5.087,5.087,0,0,0,.857-.052l.572.78a4.221,4.221,0,0,0-.168.4,26.474,26.474,0,0,1-1.222,2.847,4.148,4.148,0,0,1,.988,2.873c0,.768-.221,1.3-.637,1.482a3,3,0,0,1-1.066.169H113.7a2.32,2.32,0,0,0-.207-1.078,4.661,4.661,0,0,0,.688.052c.416,0,.533-.169.533-.793a3.84,3.84,0,0,0-.4-1.665,4.6,4.6,0,0,0-.663-.961,15.232,15.232,0,0,0,1.182-3.043h-1.455v8.789a13.327,13.327,0,0,0,.065,1.456H112.2a12.666,12.666,0,0,0,.078-1.495Zm4.758,8.8c0,.624.025,1.158.051,1.444h-1.156a14.549,14.549,0,0,0,.064-1.548v-3.587c0-.481-.025-.9-.051-1.158a8.137,8.137,0,0,0,1.117.053h5.006a6.939,6.939,0,0,0,1.157-.053,9.433,9.433,0,0,0-.051,1.144v3.94c0,.832-.287,1.066-1.365,1.066-.327,0-.547-.013-.924-.039a2.878,2.878,0,0,0-.235-.975,5.784,5.784,0,0,0,1.08.117c.325,0,.389-.039.389-.273V190.71c-.35.014-.623.014-1.078.014-.949,0-1.184-.131-1.184-.65v-1.028h-.65a2.393,2.393,0,0,1-1.52,2.106,2.883,2.883,0,0,0-.65-.662Zm6.461-8.762a11.018,11.018,0,0,0-1.379-.052h-4.783a8.2,8.2,0,0,0-1.156.052v-1.079a8.418,8.418,0,0,0,1.363.065h4.576a8.344,8.344,0,0,0,1.379-.078Zm-.988,2.38a8.6,8.6,0,0,0,.039.922,8.371,8.371,0,0,0-.961-.039h-4.045a7.579,7.579,0,0,0-.975.039c.014-.247.028-.545.039-.884v-.949a7.077,7.077,0,0,0-.05-.884,6.524,6.524,0,0,0,.986.039h3.992a8.27,8.27,0,0,0,1.014-.039,8.8,8.8,0,0,0-.039.924Zm-5.473,2.508v1.431a1.594,1.594,0,0,0,1.234-1.431Zm1.494,3.081a5.315,5.315,0,0,0-.935.04v-.937a5.9,5.9,0,0,0,.949.053h2.105a6.39,6.39,0,0,0,.938-.053v.937a5.348,5.348,0,0,0-.949-.04H120v1.028a4.7,4.7,0,0,0,.039.871h-1.053a5.343,5.343,0,0,0,.053-.937v-.962Zm-.857-5.551h3.744v-.936h-3.744Zm4.445,2.47H120.77v.612c0,.234.078.273.572.273.209,0,.519-.014.779-.027Z"/><path class="cls-5" d="M134.875,185.549l.664.754a9.4,9.4,0,0,1-2.834,3.991l-.885-.793a7.029,7.029,0,0,0,2.094-2.626l-4.836.768v3.627c0,.741.377,1,1.742,1a20.135,20.135,0,0,0,3.86-.338l.117,1.287a22.994,22.994,0,0,1-3.99.285c-2.276,0-3.043-.662-3.043-1.923v-3.731l-2.821.454-.17-1.182,2.991-.469v-3.341h1.314v3.146Z"/><path class="cls-5" d="M138.229,190.516a35.878,35.878,0,0,1,7.865,2.08l-.416,1.274a42.289,42.289,0,0,0-7.905-2.12Zm1.039-3.562a27.967,27.967,0,0,1,5.771,1.456l-.4,1.221a31.418,31.418,0,0,0-5.8-1.5Zm.064-3.407a32.069,32.069,0,0,1,6.514,1.391l-.4,1.235a34.713,34.713,0,0,0-6.591-1.456Z"/><path class="cls-5" d="M153.23,183.248h1.34v3.263H158.9v1.2h-4.353a6.445,6.445,0,0,1-3.9,6.162l-.846-1.092a5.241,5.241,0,0,0,3.42-5.07h-4.537v-1.2h4.548Z"/><path class="cls-5" d="M171.4,187.812v1.352H161.018v-1.352Z"/><path class="cls-6" d="M26.5,206.983a2.861,2.861,0,1,1-2.861-2.859A2.861,2.861,0,0,1,26.5,206.983Z"/><path class="cls-5" d="M33.928,211.454l-3.379-9.777h1.572l2.731,8.1,2.73-8.1H39.09l-3.367,9.777Z"/><path class="cls-5" d="M41.248,211.454v-9.777h3.106c1.873,0,3.068.91,3.068,2.626a2.759,2.759,0,0,1-1.91,2.808l2.963,4.343H46.707l-2.521-3.874H42.65v3.874Zm2.65-5.083c1.237,0,2-.624,2-1.821,0-1.066-.689-1.612-1.847-1.612H42.65v3.433Z"/><path class="cls-5" d="M53.168,206.513a1.281,1.281,0,1,1-1.287-1.286A1.271,1.271,0,0,1,53.168,206.513Z"/><path class="cls-5" d="M55.457,211.454l3.678-9.777h1.574l3.666,9.777H62.814l-.935-2.575H57.848l-.91,2.575Zm2.807-3.809h3.185l-1.6-4.486Z"/><path class="cls-5" d="M66.35,211.454v-9.777h3.107c1.871,0,3.068.91,3.068,2.626a2.758,2.758,0,0,1-1.912,2.808l2.965,4.343H71.811l-2.524-3.874H67.754v3.874ZM69,206.371c1.234,0,2-.624,2-1.821,0-1.066-.69-1.612-1.846-1.612h-1.4v3.433Z"/><path class="cls-6" d="M194.568,169.643a2.86,2.86,0,1,1-2.859-2.86A2.859,2.859,0,0,1,194.568,169.643Z"/><path class="cls-5" d="M207.566,165.663l.754.728c-.466,4.394-2.431,6.89-6.254,8.19l-.714-1.157c3.523-1.183,5.136-3.224,5.539-6.591h-6.579v2.743h-1.339v-3.913h3.783v-1.99h1.353v1.99Z"/><path class="cls-5" d="M214.586,173.008v-4.382H211.48v-1.105h7.5v1.105h-3.146v4.382h3.85v1.1h-8.868v-1.1Z"/><path class="cls-5" d="M232.424,165.428a8.909,8.909,0,0,1-3.16,3.979l-.9-.91a6.88,6.88,0,0,0,2.457-2.679h-8.658v-1.2h9.607Zm-4.942,1.587v1.17c0,3.315-1.351,5.291-4.185,6.435l-.742-1.105c2.562-.962,3.576-2.471,3.576-5.395v-1.105Z"/><path class="cls-5" d="M243.539,168.132a8.493,8.493,0,0,1-6.475,6.527l-.675-1.144c3.132-.858,4.953-2.522,5.693-4.967H234.32v-1.182h8.516Zm-1.262-3.705V165.6h-6.72v-1.171Z"/><path class="cls-5" d="M254.459,165.663a8.943,8.943,0,0,0-.832-2.224l.818-.221a8.3,8.3,0,0,1,.938,2.315l-.8.246.312.273a10.478,10.478,0,0,1-7.1,8.672l-.729-1.157a9.175,9.175,0,0,0,6.344-7.086h-7.643v-1.222h8.215Zm1.533-2.861a9.025,9.025,0,0,1,1,2.288l-.871.273a8.52,8.52,0,0,0-.924-2.3Z"/><path class="cls-5" d="M260.906,164.57v2.938c0,3-.885,5.1-2.873,6.722l-.963-.91c1.821-1.365,2.51-3.159,2.51-5.9V164.57Zm3.563-.363v8.281a9.763,9.763,0,0,0,3.7-3l.765,1.092a12.091,12.091,0,0,1-5.1,3.614l-.715-.585v-9.4Z"/><path class="cls-5" d="M270.4,171.409a12.825,12.825,0,0,1,2.43,2.678,4.288,4.288,0,0,1-.852,1,12.224,12.224,0,0,0-2.375-2.769A4.456,4.456,0,0,1,270.4,171.409Z"/><path class="cls-5" d="M202.648,187.008v1.1h-1.312V179.1h8.775v8.866H208.8v-.962Zm6.149-6.721h-6.149v5.538H208.8Z"/><path class="cls-5" d="M212.438,186.722a10.609,10.609,0,0,0,1.988-4l1.222.364a12.5,12.5,0,0,1-2.158,4.329Zm6.226.481c0,1.131-.533,1.508-1.625,1.508a8.573,8.573,0,0,1-1.377-.117l-.182-1.261a7.444,7.444,0,0,0,1.416.143c.338,0,.481-.091.481-.429v-5.8h-4.289v-1.158h4.289v-2.314h1.287v2.314h4.109v1.158h-4.109Zm2.563-4.577a17.652,17.652,0,0,1,2.2,4.122l-1.3.546a18.3,18.3,0,0,0-1.963-4.148Zm.427-5.369a9.087,9.087,0,0,1,.989,2.3l-.883.285a10.142,10.142,0,0,0-.91-2.353Zm1.561-.428a7.948,7.948,0,0,1,1.014,2.288l-.872.273a9.177,9.177,0,0,0-.935-2.315Z"/><path class="cls-5" d="M226.906,180.911a13.06,13.06,0,0,1,1.223,2.834l-1.17.416a15.058,15.058,0,0,0-1.133-2.861Zm7.4-.13a11.759,11.759,0,0,1-1.846,4.953,8.8,8.8,0,0,1-3.8,3.133l-.726-.975a8.332,8.332,0,0,0,3.523-2.873,10.309,10.309,0,0,0,1.611-4.524Zm-4.627-.443a14.089,14.089,0,0,1,1.22,2.834l-1.142.4a16.622,16.622,0,0,0-1.145-2.887Z"/><path class="cls-5" d="M240.09,181.561a25.059,25.059,0,0,1,5.238,2.314l-.6,1.208a27.324,27.324,0,0,0-4.64-2.222v5.733h-1.34V177.83h1.34Z"/><path class="cls-5" d="M249.465,180.656h.064a2.077,2.077,0,0,1,.809.163c-.109.464-.227.928-.373,1.391.41-.036.81-.081,1.209-.136a2.213,2.213,0,0,1,.055.509,2.693,2.693,0,0,1-.018.292c-.482.072-.99.127-1.51.172a21.932,21.932,0,0,1-1.719,3.8,1.91,1.91,0,0,1-.781-.446,17.123,17.123,0,0,0,1.582-3.292c-.482.027-.955.045-1.418.045a2.312,2.312,0,0,1-.037-.436,3.292,3.292,0,0,1,.027-.409h.418q.627,0,1.284-.028C249.219,181.747,249.355,181.2,249.465,180.656Zm5.31,6.356a1.555,1.555,0,0,1-.49.755,6.492,6.492,0,0,0-1.6-.982c.009.128.019.236.019.327,0,.973-.664,1.437-1.728,1.437-1.01,0-1.709-.509-1.709-1.345,0-.7.681-1.437,1.918-1.437.191,0,.373.018.564.036-.064-.628-.109-1.346-.119-2.237a2.4,2.4,0,0,1,.437-.046,2.235,2.235,0,0,1,.428.046,20.593,20.593,0,0,0,.117,2.392A6.784,6.784,0,0,1,254.775,187.012Zm-3.574-.491c-.808,0-1.117.346-1.117.683s.291.554.881.554.9-.273.9-.782a2.977,2.977,0,0,0-.027-.382A3.149,3.149,0,0,0,251.2,186.521Zm3.684-3.41a2.2,2.2,0,0,1-.5.737,7.8,7.8,0,0,0-2.047-1.265,2.8,2.8,0,0,1,.41-.691A8.6,8.6,0,0,1,254.885,183.111Z"/><path class="cls-5" d="M262.439,182.774a1.725,1.725,0,0,1,.3.9,13.386,13.386,0,0,0-3.174,1.237c-1.029.582-1.355,1.128-1.355,1.71s.455.954,1.836.954a13.49,13.49,0,0,0,2.937-.336,1.964,1.964,0,0,1,.147.782,1.117,1.117,0,0,1-.01.182,15.29,15.29,0,0,1-3.037.282c-1.982,0-2.82-.7-2.82-1.838,0-.791.519-1.627,1.746-2.373a13.817,13.817,0,0,1-.754-3.119,1.85,1.85,0,0,1,.728-.146,1.5,1.5,0,0,1,.2.009,14.147,14.147,0,0,0,.619,2.811A17.068,17.068,0,0,1,262.439,182.774Zm-.472-2.146a7.116,7.116,0,0,1,.746,1.564l-.6.237a6.417,6.417,0,0,0-.718-1.6Zm1.072-.345a6.024,6.024,0,0,1,.773,1.555l-.609.236a5.613,5.613,0,0,0-.709-1.582Z"/><line class="cls-7" x1="181.36" y1="161.5" x2="181.36" y2="230"/><rect class="cls-8" width="294" height="146"/><rect class="cls-9" width="294" height="146"/><path class="cls-10" d="M124.233,29.734c.84,0,1.681-.06,2.521-.06.58,0,.62.1.62,1.06,0,.82-.04,1.1-.561,1.1-.859,0-1.719-.04-2.58-.04h-2.621c-.559,0-.559.5-.639.92a10.133,10.133,0,0,1-1.321,3.621,8.819,8.819,0,0,1-4.161,3.261,3.488,3.488,0,0,1-.94.32c-.44,0-1.52-1.32-1.52-1.64,0-.24.3-.28.54-.36a9.62,9.62,0,0,0,2.521-1.041,5.983,5.983,0,0,0,2.52-3.641,9.5,9.5,0,0,0,.16-.96.458.458,0,0,0-.46-.48h-4.061c-.84,0-1.74.06-2.521.06-.54,0-.519-.38-.519-1.14,0-.74.019-1.04.5-1.04.7,0,1.66.06,2.54.06Zm-3.081-5.241c.881,0,1.841-.06,2.521-.06.6,0,.56.4.56,1.2,0,.68,0,.96-.54.96-.84,0-1.7-.04-2.541-.04h-4.26c-.84,0-1.681.04-2.54.04-.561,0-.521-.32-.521-1.04s-.04-1.12.561-1.12c.639,0,1.6.06,2.5.06Zm6.542,2.02c0,.3-.74.881-1,.881-.1,0-.239-.181-.42-.4-.379-.52-.8-1-1.219-1.48-.08-.06-.181-.16-.181-.26,0-.22.78-.78,1-.78A7.449,7.449,0,0,1,127.694,26.513Zm.84-2.861c.16.181.8.861.8,1.061,0,.28-.72.88-.98.88-.14,0-.28-.22-.5-.5-.32-.42-.82-.96-1.18-1.341a.409.409,0,0,1-.16-.259c0-.241.76-.8.98-.8C127.674,22.692,128.374,23.473,128.534,23.652Z"/><path class="cls-10" d="M136.172,28.054c.18.119.5.279.5.46,0,.14-.18.219-.3.279a.781.781,0,0,0-.36.4,30.768,30.768,0,0,1-4.362,6.261c-.239.26-.859,1-1.2,1-.319,0-1.7-.84-1.7-1.24a.4.4,0,0,1,.16-.28,22.37,22.37,0,0,0,5.182-7.262c.119-.279.159-.46.34-.46A11.509,11.509,0,0,1,136.172,28.054Zm5.481-.241a22.752,22.752,0,0,1,1.8,2.261c.481.7,2.7,4.1,2.7,4.741,0,.5-1.52,1.2-1.881,1.2-.24,0-.32-.18-.4-.36a28.093,28.093,0,0,0-3.94-6.461.824.824,0,0,1-.2-.421c0-.359,1.2-1.16,1.481-1.16A.606.606,0,0,1,141.653,27.813Zm3.641.081c0,.279-.7.919-.96.919-.1,0-.181-.12-.24-.2-.481-.56-.96-1.1-1.481-1.6-.06-.06-.179-.16-.179-.26,0-.24.759-.84.96-.84A7.45,7.45,0,0,1,145.294,27.894Zm1.98-1.461c0,.28-.7.9-.96.9-.1,0-.2-.12-.26-.2-.48-.56-.941-1.06-1.481-1.58-.059-.06-.159-.16-.159-.26,0-.22.739-.84.96-.84A7.473,7.473,0,0,1,147.274,26.433Z"/><path class="cls-10" d="M157.853,36.936c0,.879.04,1.76.04,2.62,0,.54-.26.6-1,.6-1.1,0-1.3-.06-1.3-.58,0-.86.04-1.721.04-2.58V31.554c0-.12.06-.56-.32-.56-.2,0-.621.34-.781.46-.6.441-3.78,2.561-4.3,2.561a3.374,3.374,0,0,1-1.559-1.6c0-.2.18-.281.319-.341a28.786,28.786,0,0,0,7.863-5.3,16.952,16.952,0,0,0,2.72-3.38c.06-.1.18-.3.32-.3a7.411,7.411,0,0,1,1.36.821c.221.14.78.48.78.72,0,.12-.1.16-.2.2a1.083,1.083,0,0,0-.78.48,38.785,38.785,0,0,1-2.741,3,1.069,1.069,0,0,0-.459.9Z"/><path class="cls-10" d="M177.633,25.613a5.378,5.378,0,0,0,.86-.04c.12,0,.319-.04.44-.04.421,0,1.28,1.1,1.28,1.36a3.871,3.871,0,0,1-.44.78c-.12.181-.24.381-.32.52a28.937,28.937,0,0,1-2.6,3.8.548.548,0,0,0-.161.381.534.534,0,0,0,.3.479,32.171,32.171,0,0,1,3.381,2.581c.481.42.981.88,1.44,1.36a.38.38,0,0,1,.14.28c0,.421-1.1,1.6-1.519,1.6a.664.664,0,0,1-.5-.3,21.281,21.281,0,0,0-4.422-3.96.7.7,0,0,0-.46-.18.958.958,0,0,0-.6.34,22.306,22.306,0,0,1-5,3.5,3.342,3.342,0,0,1-.881.38c-.42,0-1.34-1.341-1.34-1.7,0-.24.241-.34.42-.4a19.827,19.827,0,0,0,8.922-7.582,1.949,1.949,0,0,0,.34-.68c0-.3-.279-.34-.58-.34h-4.141c-.86,0-1.72.04-2.58.04-.54,0-.5-.3-.5-1.22,0-.7-.02-1,.48-1,.86,0,1.721.04,2.6.04Z"/><rect class="cls-6" width="294" height="5"/><g class="cls-11"><g class="cls-12"><path class="cls-10" d="M131.2,94.812a6.746,6.746,0,1,0-6.656-6.744,6.7,6.7,0,0,0,6.656,6.744"/><path class="cls-10" d="M125.509,103.092c-.109,2.2-.3,6.024-.471,10.064H128.5l2.079-17.68a12.007,12.007,0,0,0-3.668.671,8.213,8.213,0,0,0-1.39.643,13.41,13.41,0,0,0-2.152,1.615c-3.162,2.834-4.926,7.687-5.417,14.751h4.7c.356-4.532,1.326-7.957,2.851-10.064"/><path class="cls-10" d="M132.027,95.5l1.658,17.653H137.6c-.193-3.525-.5-7.6-.7-10.058,1.562,2.116,2.49,5.531,2.714,10.058H144.3c-.322-7.281-2.247-12.4-5.775-15.163a10.948,10.948,0,0,0-3.14-1.82,12.775,12.775,0,0,0-3.359-.67"/><path class="cls-10" d="M192.306,99.054a3.474,3.474,0,1,0-3.475,3.518,3.5,3.5,0,0,0,3.475-3.518"/><path class="cls-10" d="M185.869,103.606a6.887,6.887,0,0,0-1.123.842c-1.651,1.479-2.57,4.009-2.828,7.7h2.454a10.626,10.626,0,0,1,1.489-5.252c-.057,1.146-.154,3.144-.245,5.252h1.806l1.086-9.226a6.28,6.28,0,0,0-1.915.351,4.274,4.274,0,0,0-.724.336"/><path class="cls-10" d="M192.653,104.232a5.747,5.747,0,0,0-1.637-.948,6.71,6.71,0,0,0-1.755-.351l.867,9.212h2.04c-.1-1.841-.263-3.966-.367-5.249a9.815,9.815,0,0,1,1.417,5.249h2.446c-.165-3.8-1.17-6.47-3.011-7.913"/><path class="cls-10" d="M163.821,64.866H97.326a4.981,4.981,0,0,0-4.977,4.975V115.1a4.981,4.981,0,0,0,4.977,4.976h66.5A4.98,4.98,0,0,0,168.8,115.1V69.841a4.981,4.981,0,0,0-4.975-4.975M96.936,90.879a1.594,1.594,0,1,1-1.594,1.6,1.6,1.6,0,0,1,1.594-1.6m3.289,21.532V72.536a1.869,1.869,0,0,1,1.865-1.869h58.585a1.87,1.87,0,0,1,1.867,1.869v39.875a1.868,1.868,0,0,1-1.867,1.867H102.09a1.867,1.867,0,0,1-1.865-1.867"/><path class="cls-10" d="M197.9,72.793H179.621a4.457,4.457,0,0,0-4.45,4.451v38.384a4.458,4.458,0,0,0,4.45,4.452H197.9a4.456,4.456,0,0,0,4.451-4.452V77.244a4.455,4.455,0,0,0-4.451-4.451m-8.276,44.515a.865.865,0,0,1-1.729,0,.876.876,0,0,1,.867-.86.863.863,0,0,1,.862.86m9.17-39.048v33.783a1.642,1.642,0,0,1-1.639,1.642h-16.78a1.642,1.642,0,0,1-1.639-1.642V78.26a1.643,1.643,0,0,1,1.639-1.646h16.78a1.643,1.643,0,0,1,1.639,1.646"/></g></g></g></g></svg>