<svg xmlns="http://www.w3.org/2000/svg" width="662.337" height="515" viewBox="0 0 662.337 515"><defs><style>.cls-1{fill:#fff;}.cls-2{fill:#bfc9ca;}.cls-3{fill:#ccd9dd;}.cls-4{fill:#e6f0f7;}.cls-5{fill:#b8d2ec;}.cls-6{fill:#72aad8;}.cls-7{fill:#008ac8;}.cls-8{fill:#0064a1;}.cls-9{fill:#241916;}</style></defs><g id="レイヤー_2" data-name="レイヤー 2"><g id="レイヤー_1-2" data-name="レイヤー 1"><rect class="cls-1" x="0.337" width="662" height="515"/><path class="cls-2" d="M364.17,283.82l-3.849-110.012c1.216-.042,2.633-.066,3.849-.066Z"/><path class="cls-3" d="M364.17,283.82,326.434,180.378a107.279,107.279,0,0,1,33.887-6.57Z"/><path class="cls-4" d="M364.17,283.82l-80.69,75.071a109.9,109.9,0,0,1,5.445-155.577,106.566,106.566,0,0,1,37.509-22.936Z"/><path class="cls-5" d="M364.17,283.82,414.263,381.9c-45.173,22.965-96.206,13.987-130.783-23.007Z"/><path class="cls-6" d="M364.17,283.82,473.146,266.6c7.586,47.8-15.666,93.331-58.883,115.3Z"/><path class="cls-7" d="M364.17,283.82l51.8-97.194c31.851,16.894,51.531,44.427,57.176,79.973Z"/><path class="cls-8" d="M364.17,283.82V173.742a105.2,105.2,0,0,1,51.8,12.884Z"/><path class="cls-1" d="M427.873,284.1A63.672,63.672,0,1,1,364.2,220.435,63.674,63.674,0,0,1,427.873,284.1"/><path class="cls-9" d="M396.629,275.7a16.186,16.186,0,0,1,2,3.787l1.638-1.085a18.3,18.3,0,0,0-2.069-3.636Zm-8.482,13.132H391.3v2.044h-3.154Zm0-3.536H391.3v1.919h-3.154Zm.834-4.9a25.98,25.98,0,0,0-.478-2.978h2.421a17.512,17.512,0,0,1-.628,2.978Zm-8.13,5.71h2.123v3.254c-.833.252-1.466.407-2.123.557Zm0-4.851h2.119v3.029h-2.119Zm0-5.123h2.119v3.309h-2.119Zm4.875-2.094a8.583,8.583,0,0,1-1.969.126H379.69a12.533,12.533,0,0,1-1.994-.126v2.22a9.663,9.663,0,0,1,1.236-.126v14.238a14.634,14.634,0,0,1-1.462.2h-.025l.5,2.249a8.409,8.409,0,0,1,1.742-.532c.909-.251,2.1-.6,3.284-1.009v2.119a20.9,20.9,0,0,1-.125,2.626h2.144a20.984,20.984,0,0,1-.126-2.6V276.153c.3,0,.453,0,.834.025v1.311a6.219,6.219,0,0,1,1.06-.076,25.391,25.391,0,0,1,.528,2.978h-.654a8.554,8.554,0,0,1-1.265-.075v2.149a5.865,5.865,0,0,1,1.29-.126h7.649a33.568,33.568,0,0,0,1.06,7.5,19.338,19.338,0,0,1-2.246,2.471l-.025-.909V285.77a22.493,22.493,0,0,1,.076-2.271,15.488,15.488,0,0,1-1.642.076H387.9a12.791,12.791,0,0,1-1.642-.076c.05.734.075,1.11.075,2.246v6.387a19.517,19.517,0,0,1-.1,2.25h1.943v-1.768h3.058c.679,0,1.236,0,1.537.025a25.579,25.579,0,0,1-2.3,1.688,6.1,6.1,0,0,1,1.361,1.567,21.627,21.627,0,0,0,4.243-3.963c.96,2.271,2.07,3.51,3.1,3.51a1.582,1.582,0,0,0,1.391-1.089,12.118,12.118,0,0,0,.7-3.556,7.244,7.244,0,0,1-1.714-1.139,8.635,8.635,0,0,1-.456,3.309c-.453-.251-.959-1.236-1.592-3a27.55,27.55,0,0,0,2.149-4.244,8.9,8.9,0,0,1,.528-1.16l-1.768-1.11a15.774,15.774,0,0,1-1.537,4.038,39.534,39.534,0,0,1-.608-5.148h1.517a19.855,19.855,0,0,1,2.752.126v-2.2a14.487,14.487,0,0,1-2.752.151H396.2c-.025-1.261-.05-2.9-.05-4.089a18.822,18.822,0,0,1,.125-2.827h-2.22a10.007,10.007,0,0,1,.1,1.717c0,1.919.05,4.139.075,5.173h-2.249a24.594,24.594,0,0,0,.708-2.953,5.93,5.93,0,0,1,.859.051v-1.868a9.809,9.809,0,0,1-1.793.1h-1.035v-.2a10.4,10.4,0,0,1,.126-2.069h-2.27a10.044,10.044,0,0,1,.125,2.044v.226h-1.34a10.449,10.449,0,0,1-1.638-.1Zm-41.677,2.245v4.243c0,1.311.552,1.588,3.2,1.588,1.893,0,2.827-.251,3.209-.834a7.973,7.973,0,0,0,.628-3.2,7.8,7.8,0,0,1-2.044-.834c-.076,2.853-.1,2.878-1.768,2.878-.833,0-1.009-.075-1.009-.5v-3.635a14.146,14.146,0,0,1,.075-1.793,15.8,15.8,0,0,1-1.818.075h-4.515a17.615,17.615,0,0,1-1.873-.075,6.745,6.745,0,0,1,.08,1.034,11.076,11.076,0,0,1-.381,3,5.541,5.541,0,0,1-2.476,3.183,5.545,5.545,0,0,1,1.667,1.764,8.056,8.056,0,0,0,3.36-6.891ZM333.493,283.6c.381-.507.809-1.085,1.014-1.34.3-.4.678-.985.959-1.387l.226-.352.126-.18-1.893-1.386a18.245,18.245,0,0,1-5.856,6.764,6.716,6.716,0,0,1,1.059,2.2,12.006,12.006,0,0,0,2.22-2.149c-.025,1.034-.025,1.16-.025,1.39v5.756a23.847,23.847,0,0,1-.15,3.053h2.5a22.54,22.54,0,0,1-.18-3.053Zm.406-10.375a15.244,15.244,0,0,1-5.4,4.946,6.159,6.159,0,0,1,1.34,1.869,21.441,21.441,0,0,0,5.3-4.7l.432-.507.226-.251Zm11.967,12.62a15.766,15.766,0,0,1-3.384,3.891,13.178,13.178,0,0,1-3.179-3.891Zm2.02-2.144a6.624,6.624,0,0,1-1.768.125h-8.859a13.7,13.7,0,0,1-2.023-.125v2.245a14.963,14.963,0,0,1,1.742-.1,18.965,18.965,0,0,0,3.661,5.228,19.38,19.38,0,0,1-6.413,2.7,7.116,7.116,0,0,1,1.165,2.17,22.941,22.941,0,0,0,7.066-3.355,21.369,21.369,0,0,0,7.523,3.405,9.218,9.218,0,0,1,1.009-2.345A19.346,19.346,0,0,1,344.3,291.1a21.66,21.66,0,0,0,4.168-5.177,10.37,10.37,0,0,1,.6-.859Z"/><path class="cls-9" d="M361.816,170.061V141.368h-41.1c-.323-.494-.586-.757-.586-1.08a.62.62,0,0,1,.586-.607h41.25l.417.193,1.118.414v30.249c-.946.323-1.209.586-1.535.586a.586.586,0,0,1-.585-.586"/><path class="cls-9" d="M341.562,396.226v30.381H354.8c.323-.526.585-.261.585.062a14.192,14.192,0,0,1-.585,1.625H341.1l-.417-1.211-.808-.414V395.641c.636-.323.9-.586,1.225-.586a.586.586,0,0,1,.585.586"/><path class="cls-9" d="M553.412,196.982a1.637,1.637,0,0,0-1.605,1.626,1.587,1.587,0,0,0,1.605,1.6,1.638,1.638,0,0,0,1.626-1.6,1.692,1.692,0,0,0-1.626-1.626m-8.1,2.581a9.707,9.707,0,0,1,1.659.108v-1.189a10.432,10.432,0,0,1-1.713.108h-9.731v-1.482h7.617a14.214,14.214,0,0,1,1.716.092v-1.138a11.123,11.123,0,0,1-1.716.09h-7.617V194.78h7.617a14.76,14.76,0,0,1,1.716.09v-1.138a11.918,11.918,0,0,1-1.716.093h-7.617V192.45h8.159a15.369,15.369,0,0,1,1.86.093v-1.192a10.566,10.566,0,0,1-1.86.108h-7.544a12.57,12.57,0,0,1-1.842-.09,13.441,13.441,0,0,1,.071,1.749v5.472h-1.371a10.494,10.494,0,0,1-1.77-.108v1.189a11.314,11.314,0,0,1,1.752-.108h1.389v5.182l-1.605.362a6.931,6.931,0,0,1-1.192.144l.381,1.246c.287-.093.449-.129.757-.2a58.159,58.159,0,0,0,6.715-1.95l-.018-1.081a38.851,38.851,0,0,1-3.882,1.21v-4.912h2.13c1.533,3.2,4.585,5.487,8.973,6.733a4.244,4.244,0,0,1,.614-1.189,15.9,15.9,0,0,1-5.364-2.258,14.751,14.751,0,0,0,2.492-1.986l.2-.18.216-.179.108-.111-1.049-.632a11.734,11.734,0,0,1-2.761,2.51,8.034,8.034,0,0,1-2.273-2.708ZM528.683,191.1a7.165,7.165,0,0,1-1.353.075h-2.852c-.56,0-1.048-.021-1.407-.057a15.144,15.144,0,0,1,.072,1.608v12.058a12.606,12.606,0,0,1-.108,1.949h1.335a10.562,10.562,0,0,1-.128-1.967v-12.6h3.522a28.654,28.654,0,0,1-2.384,4.945,7.415,7.415,0,0,1,2.111,2.581,5.493,5.493,0,0,1,.578,2.384c0,.938-.341,1.264-1.353,1.264a10.655,10.655,0,0,1-1.714-.162,3.367,3.367,0,0,1,.234,1.171,14.248,14.248,0,0,0,1.48.072,3.389,3.389,0,0,0,1.572-.269,2.073,2.073,0,0,0,.919-1.986,6.388,6.388,0,0,0-.524-2.474,8.387,8.387,0,0,0-2-2.761,38.725,38.725,0,0,0,1.823-3.519,9.011,9.011,0,0,1,.417-.941l.054-.161.233-.468Zm-13.124,9.838h4.55v3.537h-4.55Zm0,4.531h4.532v1.085h1.174a8.918,8.918,0,0,1-.072-1.372v-3.81a10.893,10.893,0,0,1,.054-1.479,9.863,9.863,0,0,1-1.282.054H515.8a13.257,13.257,0,0,1-1.408-.054,12.547,12.547,0,0,1,.054,1.479v3.609a11.093,11.093,0,0,1-.072,1.573h1.189Zm-.7-11.192a12.539,12.539,0,0,1,1.156,2.944l1.03-.362a14.179,14.179,0,0,0-1.192-2.923ZM519.8,197.4a17.316,17.316,0,0,0,1.3-3.16l-1.084-.359a14.656,14.656,0,0,1-1.264,3.519h-3.828a10.04,10.04,0,0,1-1.7-.09V198.5a11.042,11.042,0,0,1,1.677-.093h5.939a10.187,10.187,0,0,1,1.609.093v-1.192a10.87,10.87,0,0,1-1.645.09Zm-1.192-4.8v-.65a6.328,6.328,0,0,1,.108-1.353h-1.336a6.1,6.1,0,0,1,.108,1.353v.65h-2.147a8.718,8.718,0,0,1-1.642-.09v1.171a10.151,10.151,0,0,1,1.588-.09H520.6a9.907,9.907,0,0,1,1.605.09v-1.171a10.626,10.626,0,0,1-1.641.09Zm-16.466,2.219a20.068,20.068,0,0,1-7,7.781,3.528,3.528,0,0,1,.833,1.045,19.5,19.5,0,0,0,6.7-8.068c-.054.959-.072,1.534-.072,2.276v4.025h-1.734a10.464,10.464,0,0,1-1.734-.089v1.225a10.951,10.951,0,0,1,1.77-.108h1.7v1.68a14.8,14.8,0,0,1-.128,2.039h1.392a11.733,11.733,0,0,1-.129-2.039V202.9h1.9a11.253,11.253,0,0,1,1.77.108v-1.225a10.562,10.562,0,0,1-1.734.089h-1.932V197.85c0-.47-.036-1.428-.089-2.312a18.95,18.95,0,0,0,7.023,8.069,4.873,4.873,0,0,1,.811-1.136,18.746,18.746,0,0,1-7.292-7.655h4.782a17.17,17.17,0,0,1,1.986.108v-1.282a11.132,11.132,0,0,1-1.986.126h-5.235v-1.515a10.641,10.641,0,0,1,.111-1.606h-1.374a9.524,9.524,0,0,1,.128,1.624v1.5H497.65a12.119,12.119,0,0,1-1.932-.126v1.282a15.178,15.178,0,0,1,1.932-.108Z"/><path class="cls-9" d="M575.458,228.106a37.547,37.547,0,0,0-5.721-5.559,20.925,20.925,0,0,0,3.232-5.741l-.815-.938h-9.566v1.192h8.737a19.505,19.505,0,0,1-10.36,10.812l.776,1.012a22.538,22.538,0,0,0,7.275-5.435,29.952,29.952,0,0,1,5.253,5.561Zm-26.706-11.5h9.135v-1.174h-9.135Zm10.144,2.833H547.057v1.174h11.1c-1.045,3.774-3.717,6.374-8.284,7.619l.632,1.118c5.053-1.552,7.889-4.277,9.132-9.078Zm-21.674-2.183a21.093,21.093,0,0,0,1.3-2.456l-1.3-.413a17.309,17.309,0,0,1-5.451,7.2l.865.739a18.3,18.3,0,0,0,3.846-3.953h6.1a16.724,16.724,0,0,1-9.206,10.126l.866.955a17.8,17.8,0,0,0,9.8-11.389l-.668-.812Zm-9.815,5.651a9.707,9.707,0,0,1,1.659.108v-1.192a10.432,10.432,0,0,1-1.713.108h-9.73v-1.479h7.616a14.522,14.522,0,0,1,1.716.089v-1.138a11.123,11.123,0,0,1-1.716.09h-7.616v-1.371h7.616a14.989,14.989,0,0,1,1.716.089v-1.135a12.038,12.038,0,0,1-1.716.09h-7.616V215.8h8.158a16.178,16.178,0,0,1,1.86.089v-1.192a10.542,10.542,0,0,1-1.86.108h-7.544a12.57,12.57,0,0,1-1.842-.09,13.457,13.457,0,0,1,.072,1.752v5.469H515.1a10.5,10.5,0,0,1-1.77-.108v1.192a11.314,11.314,0,0,1,1.752-.108h1.39v5.179l-1.606.362a6.931,6.931,0,0,1-1.192.144l.381,1.246c.287-.09.449-.126.757-.2a58.981,58.981,0,0,0,6.715-1.95l-.018-1.084a37.878,37.878,0,0,1-3.881,1.21v-4.909h2.129c1.534,3.193,4.585,5.487,8.973,6.733a4.261,4.261,0,0,1,.614-1.192,15.9,15.9,0,0,1-5.364-2.258,14.562,14.562,0,0,0,2.492-1.986l.2-.179.216-.18.108-.108-1.048-.632a11.76,11.76,0,0,1-2.762,2.51,8.091,8.091,0,0,1-2.273-2.708Zm-16.634-8.466a7.256,7.256,0,0,1-1.353.072h-2.852c-.56,0-1.048-.018-1.407-.054a14.826,14.826,0,0,1,.072,1.6v12.058a12.552,12.552,0,0,1-.108,1.949h1.336a10.412,10.412,0,0,1-.129-1.967v-12.6h3.522a28.506,28.506,0,0,1-2.384,4.948,7.363,7.363,0,0,1,2.111,2.581,5.473,5.473,0,0,1,.578,2.381c0,.941-.341,1.264-1.353,1.264a10.643,10.643,0,0,1-1.713-.162,3.4,3.4,0,0,1,.233,1.174,14.287,14.287,0,0,0,1.48.072,3.341,3.341,0,0,0,1.572-.272,2.073,2.073,0,0,0,.919-1.986,6.362,6.362,0,0,0-.524-2.471,8.327,8.327,0,0,0-2-2.761,39.324,39.324,0,0,0,1.824-3.522,9.046,9.046,0,0,1,.416-.938l.054-.161.233-.47Zm-13.124,9.838h4.55v3.537h-4.55Zm0,4.528h4.532v1.085h1.174a8.918,8.918,0,0,1-.072-1.372v-3.81a10.925,10.925,0,0,1,.054-1.479,9.863,9.863,0,0,1-1.282.054h-4.169a13.222,13.222,0,0,1-1.407-.054,12.625,12.625,0,0,1,.053,1.479v3.612a11.081,11.081,0,0,1-.071,1.57h1.188Zm-.7-11.189a12.47,12.47,0,0,1,1.156,2.941l1.03-.362a14.248,14.248,0,0,0-1.192-2.923Zm4.947,3.121a17.228,17.228,0,0,0,1.3-3.16l-1.084-.359a14.564,14.564,0,0,1-1.264,3.519h-3.827a10.046,10.046,0,0,1-1.7-.09v1.192a11.58,11.58,0,0,1,1.678-.09h5.939a10.671,10.671,0,0,1,1.608.09v-1.192a10.864,10.864,0,0,1-1.644.09Zm-1.192-4.8v-.65a6.328,6.328,0,0,1,.108-1.353h-1.336a6.1,6.1,0,0,1,.108,1.353v.65h-2.147a8.7,8.7,0,0,1-1.641-.09v1.174a10.183,10.183,0,0,1,1.587-.092h5.307a9.953,9.953,0,0,1,1.6.092V215.85a10.626,10.626,0,0,1-1.641.09Z"/><path class="cls-9" d="M550.578,257.5a3.9,3.9,0,0,0-.844-1.27,4.153,4.153,0,0,0-1.255-.862,3.715,3.715,0,0,0-1.558-.324,3.824,3.824,0,0,0-1.575.324,3.91,3.91,0,0,0-1.255.862,4.112,4.112,0,0,0,0,5.69,3.737,3.737,0,0,0,1.255.848,4.017,4.017,0,0,0,1.575.306,3.9,3.9,0,0,0,1.558-.306,3.958,3.958,0,0,0,1.255-.848,3.867,3.867,0,0,0,.844-1.269,4.209,4.209,0,0,0,0-3.151m-1.066-11.737a3.409,3.409,0,0,0-2.591-1.048,3.357,3.357,0,0,0-2.575,1.048,3.726,3.726,0,0,0-.983,2.641,3.66,3.66,0,0,0,.983,2.645,3.42,3.42,0,0,0,2.575,1.015,3.473,3.473,0,0,0,2.591-1.015,3.622,3.622,0,0,0,1-2.645,3.687,3.687,0,0,0-1-2.641m4.286,16.31A6.468,6.468,0,0,1,552.2,264.3a6.955,6.955,0,0,1-2.368,1.39,9.216,9.216,0,0,1-5.829,0,6.79,6.79,0,0,1-2.354-1.39,6.568,6.568,0,0,1-1.575-2.219,7.184,7.184,0,0,1-.575-2.929,6.284,6.284,0,0,1,.288-1.964,6.462,6.462,0,0,1,.745-1.576,6.141,6.141,0,0,1,1.051-1.219,7.55,7.55,0,0,1,1.234-.9,6.539,6.539,0,0,1-2.048-1.983,5.576,5.576,0,0,1-.863-3.2,6.684,6.684,0,0,1,.542-2.744,6.347,6.347,0,0,1,1.489-2.1,6.6,6.6,0,0,1,2.219-1.354,8.2,8.2,0,0,1,5.5,0,6.786,6.786,0,0,1,2.252,1.354,6.211,6.211,0,0,1,1.506,2.1,6.667,6.667,0,0,1,.542,2.744,5.576,5.576,0,0,1-.862,3.2,6.532,6.532,0,0,1-2.049,1.983,7.615,7.615,0,0,1,1.237.9,6.2,6.2,0,0,1,1.049,1.219,6.462,6.462,0,0,1,.745,1.576,6.284,6.284,0,0,1,.288,1.964,7.184,7.184,0,0,1-.575,2.929m-22.471-.254h4.133v4.133h-4.133Zm-6.736.509v3.624h-3.354v-3.624h-9.755v-3.22l8.5-17.274h3.726l-8.467,17.274h5.993V253.49h3.354v5.621h2.576v3.22Zm-21.848,3.624V245.6l-4.708,4.13V245.9l4.708-4.064H506.2v24.118Z"/><path class="cls-9" d="M562.348,266.188l9.668-16.074H570.83l-9.671,16.074Zm9.8-7.952c1.314,0,1.886,1.165,1.886,3.307,0,2.333-.656,3.414-1.907,3.414-1.1,0-1.953-.994-1.953-3.348,0-2.166.808-3.373,1.974-3.373m.083-1.06c-1.886,0-3.414,1.632-3.414,4.538,0,2.779,1.465,4.324,3.268,4.324,1.928,0,3.327-1.5,3.327-4.6,0-2.27-.869-4.262-3.181-4.262M561.2,251.132c1.336,0,1.908,1.145,1.908,3.286,0,2.333-.68,3.435-1.929,3.435-1.105,0-1.932-1.015-1.932-3.369,0-2.163.806-3.352,1.953-3.352m.105-1.081c-1.887,0-3.414,1.633-3.414,4.538,0,2.779,1.443,4.348,3.264,4.348,1.932,0,3.33-1.548,3.33-4.624,0-2.459-1-4.262-3.18-4.262"/><path class="cls-9" d="M575.719,323.545A37.828,37.828,0,0,0,570,317.986a20.885,20.885,0,0,0,3.229-5.741l-.812-.937h-9.566V312.5h8.737a19.507,19.507,0,0,1-10.363,10.814l.776,1.01a22.557,22.557,0,0,0,7.275-5.433,29.744,29.744,0,0,1,5.253,5.559Zm-26.706-11.5h9.134v-1.174h-9.134Zm10.144,2.833H547.315v1.174h11.1c-1.048,3.77-3.72,6.37-8.284,7.616l.629,1.12c5.055-1.551,7.888-4.28,9.134-9.081ZM537.482,312.7a22.072,22.072,0,0,0,1.3-2.455l-1.3-.417a17.263,17.263,0,0,1-5.454,7.2l.869.74a18.14,18.14,0,0,0,3.845-3.953h6.1a16.741,16.741,0,0,1-9.206,10.128l.865.956a17.816,17.816,0,0,0,9.8-11.39l-.668-.812Zm-9.826,5.649a9.771,9.771,0,0,1,1.662.108v-1.192a10.113,10.113,0,0,1-1.716.111h-9.728V315.89h7.617a13.614,13.614,0,0,1,1.716.093v-1.138a11.18,11.18,0,0,1-1.716.09h-7.617v-1.372h7.617a14.76,14.76,0,0,1,1.716.09v-1.138a12.069,12.069,0,0,1-1.716.09h-7.617v-1.372h8.159a15.369,15.369,0,0,1,1.86.093v-1.192a10.589,10.589,0,0,1-1.86.108h-7.545a12.539,12.539,0,0,1-1.841-.09,13.617,13.617,0,0,1,.071,1.749v5.472h-1.371a10.114,10.114,0,0,1-1.77-.111v1.192a11.314,11.314,0,0,1,1.752-.108h1.389v5.181l-1.6.359a6.7,6.7,0,0,1-1.192.147l.378,1.246c.29-.093.452-.129.757-.2a58.313,58.313,0,0,0,6.718-1.949l-.018-1.081a39.116,39.116,0,0,1-3.882,1.21v-4.912H520c1.533,3.195,4.585,5.487,8.97,6.732a4.488,4.488,0,0,1,.614-1.192,15.79,15.79,0,0,1-5.361-2.255,14.9,14.9,0,0,0,2.491-1.985l.2-.18.219-.18.108-.111-1.049-.631a11.813,11.813,0,0,1-2.761,2.509,7.962,7.962,0,0,1-2.273-2.707Zm-30.509,2.546h2.581v2.689h-2.581Zm.018,4.549V324.5h2.563v.7h1.066a13.856,13.856,0,0,1-.072-1.407v-2.471a13.563,13.563,0,0,1,.054-1.39,10.662,10.662,0,0,1-1.281.054h-1.986a9.336,9.336,0,0,1-1.444-.075,10.541,10.541,0,0,1,.072,1.447v2.363a14.734,14.734,0,0,1-.09,1.716ZM495.99,318.6a6.762,6.762,0,0,1,1.192-.074h2.384a6.62,6.62,0,0,1,1.192.074v-1.084a6.849,6.849,0,0,1-1.192.072H497.2a7.1,7.1,0,0,1-1.211-.072Zm0-2.455a7.517,7.517,0,0,1,1.211-.072h2.383a7.019,7.019,0,0,1,1.174.072V315.06a6.373,6.373,0,0,1-1.174.072H497.2a6.97,6.97,0,0,1-1.211-.072Zm-.685-2.438a10.911,10.911,0,0,1,1.428-.072h3.139a11.741,11.741,0,0,1,1.282.054v-1.138a7.126,7.126,0,0,1-1.426.093h-3a9.036,9.036,0,0,1-1.428-.093Zm.632-2.492a8.218,8.218,0,0,1,1.281-.072h2.295a7.765,7.765,0,0,1,1.281.072V310.1a6.137,6.137,0,0,1-1.281.09h-2.295a6.033,6.033,0,0,1-1.281-.09Zm10.689,2.671h2.815v2.13h-2.815Zm-1,2.133h-2.582v-2.13h2.582Zm1-5.038h2.815v1.986h-2.815Zm-1,1.986h-2.582v-1.986h2.582Zm0,3.971v1.588h-2.743a10.127,10.127,0,0,1-1.644-.108v1.156a9.5,9.5,0,0,1,1.608-.108h2.474a14.694,14.694,0,0,1-4.424,4.061,3.69,3.69,0,0,1,.74.92,13.709,13.709,0,0,0,4.043-4.2c-.036.6-.036.865-.054,1.6v1.878a9.122,9.122,0,0,1-.108,1.644h1.21a9.058,9.058,0,0,1-.107-1.662v-1.842c0-.557-.018-1.009-.057-1.641a12.566,12.566,0,0,0,4.4,4.351l.65-1.012a13.617,13.617,0,0,1-4.657-4.1h2.6a9.388,9.388,0,0,1,1.623.108v-1.156a10.018,10.018,0,0,1-1.659.108h-2.905v-1.588h2.183a11.34,11.34,0,0,1,1.659.072c-.036-.359-.054-1.138-.054-1.734v-3.609l.018-.955v-.219a3.545,3.545,0,0,1,.036-.5,8.868,8.868,0,0,1-1.479.072H503.5a9.306,9.306,0,0,1-1.48-.072,15.455,15.455,0,0,1,.054,1.641v3.756l-.018.812v.287l-.036.524a11.871,11.871,0,0,1,1.641-.072Z"/><path class="cls-9" d="M544.412,341.285a3.438,3.438,0,0,0-2.66-1.132,3.379,3.379,0,0,0-2.641,1.132,4.434,4.434,0,0,0-1.019,3.067,4.563,4.563,0,0,0,.968,2.98,3.275,3.275,0,0,0,2.692,1.186,3.484,3.484,0,0,0,2.66-1.1,4.313,4.313,0,0,0,1.033-3.067,4.388,4.388,0,0,0-1.033-3.067m3.98,5.912a29.792,29.792,0,0,1-1.288,3.016l-5.487,11.177h-3.692l5.181-10.365a4.227,4.227,0,0,1-1.033.287,7.46,7.46,0,0,1-1.132.084,6.07,6.07,0,0,1-2.456-.491,6,6,0,0,1-2-1.4,6.545,6.545,0,0,1-1.354-2.2,8,8,0,0,1-.491-2.878,8.287,8.287,0,0,1,.524-3.016,6.76,6.76,0,0,1,1.474-2.321,6.556,6.556,0,0,1,2.252-1.489,7.594,7.594,0,0,1,2.863-.527,8.2,8.2,0,0,1,2.878.492A6.26,6.26,0,0,1,546.9,339a6.633,6.633,0,0,1,1.474,2.285,8.159,8.159,0,0,1,.524,3,8.622,8.622,0,0,1-.506,2.914m-20.446,10.06h4.133v4.133h-4.133Zm-6.4-15.972a3.432,3.432,0,0,0-2.656-1.132,3.393,3.393,0,0,0-2.645,1.132,4.437,4.437,0,0,0-1.015,3.067,4.561,4.561,0,0,0,.964,2.98,3.283,3.283,0,0,0,2.7,1.186,3.478,3.478,0,0,0,2.656-1.1,4.309,4.309,0,0,0,1.034-3.067,4.384,4.384,0,0,0-1.034-3.067m3.981,5.912a29.734,29.734,0,0,1-1.285,3.016l-5.49,11.177h-3.693l5.185-10.365a4.3,4.3,0,0,1-1.034.287,7.48,7.48,0,0,1-1.135.084,6.1,6.1,0,0,1-2.456-.491,5.96,5.96,0,0,1-2-1.4,6.583,6.583,0,0,1-1.357-2.2,8.06,8.06,0,0,1-.491-2.878,8.287,8.287,0,0,1,.527-3.016,6.658,6.658,0,0,1,1.474-2.321,6.509,6.509,0,0,1,2.252-1.489,7.594,7.594,0,0,1,2.863-.527,8.212,8.212,0,0,1,2.878.492,6.286,6.286,0,0,1,2.27,1.44,6.633,6.633,0,0,1,1.474,2.285,8.159,8.159,0,0,1,.524,3,8.625,8.625,0,0,1-.509,2.914M502.743,361.39V341.034l-4.708,4.13v-3.828l4.708-4.064H506.2V361.39Z"/><path class="cls-9" d="M556.9,361.623l9.668-16.073h-1.186l-9.671,16.073Zm9.8-7.951c1.315,0,1.887,1.165,1.887,3.306,0,2.333-.656,3.415-1.908,3.415-1.1,0-1.952-.995-1.952-3.349,0-2.165.808-3.372,1.973-3.372m.084-1.06c-1.886,0-3.414,1.632-3.414,4.537,0,2.779,1.465,4.325,3.268,4.325,1.928,0,3.327-1.5,3.327-4.6,0-2.271-.869-4.262-3.181-4.262m-11.024-6.044c1.336,0,1.908,1.144,1.908,3.285,0,2.333-.68,3.436-1.929,3.436-1.105,0-1.932-1.016-1.932-3.37,0-2.162.806-3.351,1.953-3.351m.105-1.081c-1.887,0-3.414,1.632-3.414,4.537,0,2.779,1.443,4.349,3.264,4.349,1.932,0,3.33-1.549,3.33-4.624,0-2.459-1-4.262-3.18-4.262"/><path class="cls-9" d="M225.821,262.184a14.647,14.647,0,0,0,5.361,2.42,3.637,3.637,0,0,1,.775-1,13.369,13.369,0,0,1-5.271-2.111Zm-4.945-.668a10.68,10.68,0,0,1-5.109,2.039,3.322,3.322,0,0,1,.793,1.031,14.354,14.354,0,0,0,5.253-2.366Zm-2.258-2.4h10.506v1.408H218.618Zm0-2.276h10.506v1.389H218.618Zm0-2.237h10.506v1.353H218.618Zm-1.1,5.052L217.5,260.9a3.881,3.881,0,0,1-.057.614,19.486,19.486,0,0,1,2.006-.072h8.844a19.246,19.246,0,0,1,2,.072c-.036-.324-.054-.47-.054-.6v-.306l-.018-.958v-4.133a15.583,15.583,0,0,1,.072-1.914,19.246,19.246,0,0,1-2,.072H219.45a19.044,19.044,0,0,1-2.006-.072,15.544,15.544,0,0,1,.075,1.914Zm10.937-8H219.3v-1.642h9.152Zm1.12-1.39a8.817,8.817,0,0,1,.072-1.282,14.167,14.167,0,0,1-2,.09h-7.509a14.479,14.479,0,0,1-2.024-.09,9.157,9.157,0,0,1,.075,1.282v1.1a8.174,8.174,0,0,1-.075,1.246c.362-.036,1.192-.054,1.985-.054h7.566c.811,0,1.641.018,1.985.054a8.005,8.005,0,0,1-.072-1.246Zm-18.838-.288a11.644,11.644,0,0,1,1.537,2.6l.883-.578a13.7,13.7,0,0,0-1.623-2.51Zm-6.316,9.153h2.707v1.824h-2.707Zm0-2.528h2.707v1.68h-2.707Zm3.645,3.828v-3.088c0-.812.021-1.39.057-1.7a7.9,7.9,0,0,1-1.228.072h-2.258a7.3,7.3,0,0,1-1.246-.072,15.259,15.259,0,0,1,.075,1.7v4.241a13.427,13.427,0,0,1-.093,1.662h1.048v-1.408h2.2a12.093,12.093,0,0,1,1.465.036l-.021-.958Zm-2.977-6.844c-.054-.614-.216-1.533-.4-2.456h2.186a13.935,13.935,0,0,1-.56,2.456Zm1.192-3.321v-.234a6.787,6.787,0,0,1,.09-1.515h-1.21a7.421,7.421,0,0,1,.09,1.515v.234h-1.064a6.222,6.222,0,0,1-1.3-.09v1.012a5.374,5.374,0,0,1,.884-.057c.2.923.344,1.717.434,2.456h-.344a8.731,8.731,0,0,1-1.318-.072v1.121a7.423,7.423,0,0,1,1.336-.09h5.307a24.817,24.817,0,0,0,.829,5.486,12.893,12.893,0,0,1-3.734,3.448,3.606,3.606,0,0,1,.758.775,13.7,13.7,0,0,0,3.339-3.138c.686,1.767,1.515,2.815,2.237,2.815.362,0,.65-.255.833-.722a8.134,8.134,0,0,0,.485-2.42,3.149,3.149,0,0,1-.938-.65,13.542,13.542,0,0,1-.233,2.112c-.075.38-.147.452-.237.452s-.215-.09-.47-.488a9.358,9.358,0,0,1-.955-2.13,15.651,15.651,0,0,0,1.479-2.977c.165-.452.345-.886.416-1.03l-.958-.614a12.892,12.892,0,0,1-1.279,3.393,25.766,25.766,0,0,1-.578-4.312h1.246a11.458,11.458,0,0,1,1.947.107v-1.174a8.542,8.542,0,0,1-1.947.126h-1.282c-.018-.865-.036-2.129-.036-3.141a12.377,12.377,0,0,1,.072-1.929h-1.174a8.674,8.674,0,0,1,.072,1.171c0,1.985.018,2.564.072,3.881h-1.932a19.412,19.412,0,0,0,.578-2.435,4.833,4.833,0,0,1,.758.036V250.2a7.507,7.507,0,0,1-1.372.072Zm-7.041,6.951h1.913v2.69c-.829.251-1.192.341-1.913.524Zm0-3.486h1.913V256.3h-1.913Zm0-3.7h1.913v2.78h-1.913Zm-1.01,10.632a5.76,5.76,0,0,1-1.192.18l.324,1.156a9.489,9.489,0,0,1,1.3-.4c.832-.216,1.572-.432,2.491-.74v1.752c-.018.848-.035,1.426-.089,1.824h1.174a14.422,14.422,0,0,1-.09-1.806V250.054a4.3,4.3,0,0,1,.722.036v-1.1a6.863,6.863,0,0,1-1.282.072H198.5a7.476,7.476,0,0,1-1.264-.09v1.156a6.706,6.706,0,0,1,.994-.09Zm-10.844,4.2h1.081l5.993-16.966H193.38Zm-9.069-2.689a14.654,14.654,0,0,0,5.361,2.42,3.641,3.641,0,0,1,.776-1,13.356,13.356,0,0,1-5.271-2.111Zm-4.947-.668a10.663,10.663,0,0,1-5.107,2.039,3.435,3.435,0,0,1,.794,1.031,14.377,14.377,0,0,0,5.253-2.366Zm-2.256-2.4h10.507v1.408H171.115Zm0-2.276h10.507v1.389H171.115Zm0-2.237h10.507v1.353H171.115Zm-1.1,5.052L170,260.9a4.22,4.22,0,0,1-.054.614,19.48,19.48,0,0,1,2-.072h8.847a19.27,19.27,0,0,1,2,.072c-.036-.324-.057-.47-.057-.6v-.306l-.018-.958v-4.133a14.822,14.822,0,0,1,.075-1.914,19.258,19.258,0,0,1-2,.072h-8.847a19.038,19.038,0,0,1-2-.072,16.348,16.348,0,0,1,.072,1.914Zm10.941-8H171.8v-1.642h9.153Zm1.117-1.39a8.774,8.774,0,0,1,.075-1.282,14.183,14.183,0,0,1-2,.09h-7.511a14.464,14.464,0,0,1-2.022-.09,9.653,9.653,0,0,1,.072,1.282v1.1a8.611,8.611,0,0,1-.072,1.246c.363-.036,1.192-.054,1.986-.054h7.565c.812,0,1.641.018,1.986.054a7.956,7.956,0,0,1-.075-1.246Zm-21.866,3.576h-1.734a10.207,10.207,0,0,1-1.734-.111v1.246a15.806,15.806,0,0,1,1.734-.09h1.734v7.565h-2.4a11.494,11.494,0,0,1-1.914-.111v1.318a11.3,11.3,0,0,1,1.914-.126h6.355a11.383,11.383,0,0,1,1.911.126v-1.318a11.138,11.138,0,0,1-1.911.111h-2.8v-7.565h2.33a15.458,15.458,0,0,1,1.731.09v-1.246a9.86,9.86,0,0,1-1.731.111h-2.33v-3.828a9.823,9.823,0,0,1,.129-1.608h-1.411a7.86,7.86,0,0,1,.129,1.608Zm-6.122,3.013a12.245,12.245,0,0,0,2.492,2.237,3.874,3.874,0,0,1,.614-.973,10.853,10.853,0,0,1-2.851-2.42,15.837,15.837,0,0,0,1.949-3,4.494,4.494,0,0,1,.414-.758l-.542-.632a6.035,6.035,0,0,1-1.01.054H154.1v-1.626a6.761,6.761,0,0,1,.111-1.39h-1.336a9,9,0,0,1,.108,1.354v1.662h-1.066a10.472,10.472,0,0,1-1.39-.072v1.174a10.5,10.5,0,0,1,1.426-.075h3.321a13.7,13.7,0,0,1-5.4,5.9,3.45,3.45,0,0,1,.668,1,19.16,19.16,0,0,0,2.438-2.076v5.487a11,11,0,0,1-.108,1.752h1.318a10.064,10.064,0,0,1-.111-1.734Zm-9.715-6.877v3.645c0,.851.233,1,1.623,1,1.662,0,1.788-.183,2.078-2.6a2.536,2.536,0,0,1-.94-.47,8.941,8.941,0,0,1-.234,1.824c-.108.251-.236.305-.757.305-.7,0-.722-.018-.722-.323v-2.726c0-.721.018-1.264.054-1.662-.309.036-.941.072-1.537.072h-1.659c-.47,0-1.066-.036-1.479-.072a5.427,5.427,0,0,1,.089,1.012,8.256,8.256,0,0,1-.308,2.435,3.245,3.245,0,0,1-1.264,1.824,2.781,2.781,0,0,1,.851.794c1.225-1.081,1.695-2.471,1.731-5.053Zm1.192,6.9a11.349,11.349,0,0,1-2.187,3.339,10.131,10.131,0,0,1-2.039-3.339Zm.757-1.028a8.588,8.588,0,0,1-1.317.09h-3.828a7.453,7.453,0,0,1-1.426-.072v1.082l.162-.018.219-.036h.215a12.216,12.216,0,0,0,2.31,4.043,11.984,11.984,0,0,1-3.645,2.294,3.773,3.773,0,0,1,.775.991,16.676,16.676,0,0,0,3.609-2.527,13.839,13.839,0,0,0,3.828,2.617,4.872,4.872,0,0,1,.7-1.081,12.739,12.739,0,0,1-3.807-2.276,14.2,14.2,0,0,0,2.525-3.918l.254-.5Zm-8.556-.272c-1.12.2-2.166.362-3.5.542.036-.74.072-2.528.072-3.863v-1.192h3.429Zm-2.237,1.336v2.761a10,10,0,0,1-.111,1.7h1.066a13.4,13.4,0,0,1-.072-1.7v-2.9l.359-.054c.093,0,.435-.072,1-.18V262.6c0,.395-.054.449-.363.449a12.8,12.8,0,0,1-2.111-.215,3.581,3.581,0,0,1,.237,1.12,12.914,12.914,0,0,0,1.838.126c1.031,0,1.411-.345,1.411-1.282v-6.463l.776-.18-.036-.937c-.4.089-.47.107-.74.161v-4.061a8.384,8.384,0,0,1,.072-1.264,9.671,9.671,0,0,1-1.465.09h-1.242c.251-.47.611-1.228.865-1.806l-1.138-.287a8.926,8.926,0,0,1-.83,2.093h-.326a11.1,11.1,0,0,1-1.5-.09,12.874,12.874,0,0,1,.107,1.968c0,2.093-.018,2.869-.072,4.2-.542.054-.973.09-1.3.09l-.36-.018.216,1.174a11.769,11.769,0,0,1,1.39-.216c-.18,3.031-.614,4.657-1.588,6.155a3.659,3.659,0,0,1,.938.829c.976-1.659,1.479-3.788,1.662-7.128.359-.057.449-.057.758-.11Zm-.56-4.639a11.884,11.884,0,0,1,1.063,2.653l.9-.431a16.788,16.788,0,0,0-1.156-2.636Zm-5.595,3.177a15.989,15.989,0,0,1-2.33.126h-10.9a14.234,14.234,0,0,1-2.366-.126v1.462a18.057,18.057,0,0,1,2.366-.126h10.9a16.391,16.391,0,0,1,2.33.126Z"/><path class="cls-9" d="M209.163,296.664a6.341,6.341,0,0,1-1.593,2.2,6.6,6.6,0,0,1-2.336,1.32,9.1,9.1,0,0,1-2.864.441,9.782,9.782,0,0,1-2.761-.384,6.638,6.638,0,0,1-2.318-1.207,6.087,6.087,0,0,1-1.644-2.105,7.14,7.14,0,0,1-.659-3.043h3.453a3.683,3.683,0,0,0,1.27,2.794,3.229,3.229,0,0,0,1.219.659,5.124,5.124,0,0,0,1.44.2,3.98,3.98,0,0,0,2.813-1.036,3.867,3.867,0,0,0,1.117-2.977,4.082,4.082,0,0,0-1-2.908,3.939,3.939,0,0,0-3.03-1.073h-.575v-3.015h.575a3.51,3.51,0,0,0,2.779-1,3.9,3.9,0,0,0,.88-2.671,3.42,3.42,0,0,0-3.558-3.744,3.5,3.5,0,0,0-2.539.917,3.816,3.816,0,0,0-1.084,2.539H195.29a7.092,7.092,0,0,1,.644-2.74,6.281,6.281,0,0,1,1.525-2.055,6.72,6.72,0,0,1,2.2-1.29,8.318,8.318,0,0,1,5.523.038,6.517,6.517,0,0,1,2.219,1.39,6.423,6.423,0,0,1,1.455,2.132,6.908,6.908,0,0,1,.525,2.729,5.932,5.932,0,0,1-.794,3.2,5.222,5.222,0,0,1-2.219,1.947,5.54,5.54,0,0,1,2.471,2.067,6.475,6.475,0,0,1,.916,3.624,7.374,7.374,0,0,1-.593,3.048m-22.339-.407h4.133v4.133h-4.133Zm-9.86,4.133V280.034l-4.708,4.133v-3.831l4.708-4.064h3.457V300.39Zm-9.781-3.726a6.328,6.328,0,0,1-1.593,2.2,6.6,6.6,0,0,1-2.336,1.32,9.089,9.089,0,0,1-2.863.441,9.748,9.748,0,0,1-2.759-.384,6.626,6.626,0,0,1-2.321-1.207,6.122,6.122,0,0,1-1.644-2.105,7.185,7.185,0,0,1-.659-3.043h3.453a3.853,3.853,0,0,0,.39,1.659,3.9,3.9,0,0,0,.88,1.135,3.219,3.219,0,0,0,1.222.659,5.089,5.089,0,0,0,1.438.2,3.977,3.977,0,0,0,2.812-1.036,3.867,3.867,0,0,0,1.117-2.977,4.1,4.1,0,0,0-1-2.908,3.955,3.955,0,0,0-3.034-1.073h-.575v-3.015h.575a3.505,3.505,0,0,0,2.779-1,3.9,3.9,0,0,0,.88-2.671,3.42,3.42,0,0,0-3.557-3.744,3.5,3.5,0,0,0-2.54.917,3.816,3.816,0,0,0-1.084,2.539H153.31a7.092,7.092,0,0,1,.644-2.74,6.281,6.281,0,0,1,1.525-2.055,6.72,6.72,0,0,1,2.2-1.29,8.318,8.318,0,0,1,5.523.038,6.356,6.356,0,0,1,3.675,3.522,6.927,6.927,0,0,1,.527,2.729,5.933,5.933,0,0,1-.8,3.2,5.2,5.2,0,0,1-2.219,1.947,5.548,5.548,0,0,1,2.474,2.067,6.5,6.5,0,0,1,.913,3.624,7.374,7.374,0,0,1-.593,3.048"/><path class="cls-9" d="M217.887,300.624l9.668-16.074h-1.186L216.7,300.624Zm9.8-7.952c1.314,0,1.886,1.165,1.886,3.307,0,2.333-.655,3.414-1.907,3.414-1.1,0-1.953-.995-1.953-3.349,0-2.165.809-3.372,1.974-3.372m.083-1.06c-1.886,0-3.414,1.632-3.414,4.537,0,2.78,1.465,4.325,3.268,4.325,1.928,0,3.327-1.5,3.327-4.6,0-2.27-.868-4.262-3.181-4.262m-11.024-6.044c1.336,0,1.908,1.144,1.908,3.286,0,2.333-.68,3.435-1.929,3.435-1.105,0-1.932-1.016-1.932-3.37,0-2.162.806-3.351,1.953-3.351m.105-1.081c-1.887,0-3.414,1.632-3.414,4.537,0,2.78,1.443,4.349,3.264,4.349,1.932,0,3.331-1.548,3.331-4.624,0-2.459-1-4.262-3.181-4.262"/><path class="cls-9" d="M152.036,180a16.713,16.713,0,0,1-.108,2.151h1.336c-.054-.542-.09-1.21-.09-2.112v-9.515a20.049,20.049,0,0,0,1.371-3.141c.234-.7.273-.776.363-1.01l-1.246-.38a15.644,15.644,0,0,1-4.151,7.763,6.052,6.052,0,0,1,.74.955,13.436,13.436,0,0,0,1.838-2.653c-.035.725-.053,1.608-.053,2.132Zm7.691-7.96v4.6a10.5,10.5,0,0,1-.108,1.716h1.3a11.2,11.2,0,0,1-.108-1.7v-5l3.049-1.067c-.036,1.537-.126,2.962-.216,3.918-.144,1.407-.2,1.533-.776,1.533a7.667,7.667,0,0,1-1.407-.18,5.2,5.2,0,0,1,.287,1.12,11.444,11.444,0,0,0,1.282.072c1.138,0,1.426-.323,1.587-1.824.129-1.045.291-3.788.327-5.36,0-.162.018-.36.036-.65V169.1a10.954,10.954,0,0,1-1.39.56l-2.779.955V167.8a10.446,10.446,0,0,1,.108-1.623h-1.3a10.861,10.861,0,0,1,.108,1.641v3.178l-2.6.883v-2.111a11.155,11.155,0,0,1,.108-1.752h-1.318a11.934,11.934,0,0,1,.108,1.806v2.455l-.485.162a8.056,8.056,0,0,1-1.537.381l.237,1.207a10.246,10.246,0,0,1,1.461-.576l.324-.11V179.8a1.265,1.265,0,0,0,.29.958,2.356,2.356,0,0,0,1.444.521,24.441,24.441,0,0,0,2.582.111c2.707,0,3.9-.147,4.459-.524.467-.344.758-1.138,1.027-2.908a4.082,4.082,0,0,1-1.138-.449c-.126,1.551-.359,2.291-.758,2.527s-1.317.306-3.555.306a15.8,15.8,0,0,1-2.6-.126c-.524-.108-.65-.255-.65-.686V172.96Zm-20.492-3.013a16.275,16.275,0,0,1-1.821,8.032c-.65,1.192-1.371,1.588-2.075,1.588-.833,0-1.86-1.135-1.86-3.519a6.279,6.279,0,0,1,5.756-6.1m2.1,12.327c3.752-1.189,5.957-3.5,5.957-7.11,0-3.917-3.286-6.373-7.095-6.373-4.855,0-7.943,3.63-7.943,7.275,0,3,1.48,4.836,3.031,4.836,1.174,0,2.186-.5,3.178-2.2a17.654,17.654,0,0,0,2.039-8.808c2.926.09,5.49,1.932,5.49,5.271,0,2.833-1.806,4.945-5.436,5.957Zm-21.869-7.616-.018-.072a47.53,47.53,0,0,0,7.292-5.615,1.932,1.932,0,0,0-.488-1.046,69.105,69.105,0,0,1-7.688.83v.144a5.181,5.181,0,0,0,.126,1.012c2.183-.162,4.4-.434,6.1-.722l.036.018a41,41,0,0,1-6.1,4.693,19.054,19.054,0,0,1-2.905,1.516,1.557,1.557,0,0,0,.359,1.03c1.031-.237,2-.542,3.7-.9,2.869-.632,4.277-.938,4.909-1.064l.018.072c-2.546,1.138-3.627,2.815-3.627,4.187,0,2.111,1.785,3.612,5.756,3.792a2.548,2.548,0,0,0,.147-.923l-.021-.359c-3.411-.144-4.693-.959-4.693-2.474,0-1.246,1.066-2.618,3.594-3.81a13.272,13.272,0,0,1,3.791-1.081l.018-.215a2.108,2.108,0,0,0-.254-1Z"/><path class="cls-9" d="M205.422,161.9a3.43,3.43,0,0,0-2.66-1.135,3.372,3.372,0,0,0-2.641,1.135,4.418,4.418,0,0,0-1.019,3.063,4.555,4.555,0,0,0,.968,2.98,3.275,3.275,0,0,0,2.692,1.186,3.484,3.484,0,0,0,2.66-1.1,4.306,4.306,0,0,0,1.033-3.067,4.373,4.373,0,0,0-1.033-3.063m3.98,5.909a29.986,29.986,0,0,1-1.288,3.016L202.627,182h-3.692l5.181-10.366a3.978,3.978,0,0,1-1.033.288,7.47,7.47,0,0,1-1.135.087,6.1,6.1,0,0,1-2.453-.492,6,6,0,0,1-2-1.407,6.55,6.55,0,0,1-1.354-2.2,7.975,7.975,0,0,1-.491-2.878,8.291,8.291,0,0,1,.524-3.016,6.788,6.788,0,0,1,1.474-2.321,6.573,6.573,0,0,1,2.252-1.488,7.6,7.6,0,0,1,2.863-.527,8.222,8.222,0,0,1,2.878.491,6.254,6.254,0,0,1,2.27,1.441,6.585,6.585,0,0,1,1.474,2.288,8.14,8.14,0,0,1,.524,3,8.609,8.609,0,0,1-.506,2.911m-20.461,10.06h4.133V182h-4.133Zm-6.73.509V182h-3.354v-3.624H169.1v-3.217l8.5-17.278h3.725l-8.469,17.278h6v-5.624h3.354v5.624h2.576v3.217Z"/><path class="cls-9" d="M217.893,182.233l9.667-16.073h-1.186l-9.67,16.073Zm9.8-7.951c1.315,0,1.887,1.165,1.887,3.306,0,2.333-.656,3.415-1.908,3.415-1.1,0-1.952-.995-1.952-3.349,0-2.165.808-3.372,1.973-3.372m.084-1.06c-1.887,0-3.414,1.632-3.414,4.537,0,2.779,1.464,4.325,3.267,4.325,1.929,0,3.328-1.5,3.328-4.6,0-2.271-.869-4.262-3.181-4.262m-11.024-6.044c1.336,0,1.908,1.144,1.908,3.285,0,2.333-.68,3.436-1.929,3.436-1.105,0-1.932-1.016-1.932-3.37,0-2.162.806-3.351,1.953-3.351m.105-1.081c-1.887,0-3.415,1.632-3.415,4.537,0,2.779,1.444,4.349,3.265,4.349,1.932,0,3.33-1.549,3.33-4.624,0-2.459-1-4.262-3.18-4.262"/><path class="cls-9" d="M233.793,144.07h8.341v2.671h-8.341Zm0,3.648h8.338v.9h1.21a11.547,11.547,0,0,1-.108-1.734V144.7a12.217,12.217,0,0,1,.09-1.66,13.191,13.191,0,0,1-1.7.072h-7.349a13.57,13.57,0,0,1-1.677-.072,10.359,10.359,0,0,1,.09,1.66v2.183a12.061,12.061,0,0,1-.108,1.734h1.21Zm2.165-7.042a12.326,12.326,0,0,1-1.734-.089,15.384,15.384,0,0,0,3.5-2.69,14.489,14.489,0,0,0,3.806,2.708,15.384,15.384,0,0,1-1.677.071Zm5.687-.018a27.933,27.933,0,0,0,3.789,1.588,4.755,4.755,0,0,1,.686-1.1c-3.34-.833-6.424-2.438-7.871-4.115h-1.135a14.876,14.876,0,0,1-7.311,4.276,3.64,3.64,0,0,1,.686,1.031,22.759,22.759,0,0,0,3.681-1.716v1.12a17.582,17.582,0,0,1,1.788-.072h3.9c.65,0,1.3.036,1.788.072Zm-.742-5.289a12.973,12.973,0,0,1,1.281,2.564l1-.416a12.037,12.037,0,0,0-1.21-2.148h1.95a16.7,16.7,0,0,1,1.841.09V134.3a11.684,11.684,0,0,1-1.841.111h-4.1c.36-.851.4-.958.614-1.536l-1.1-.27a8.9,8.9,0,0,1-1.985,3.81,3.717,3.717,0,0,1,.937.575,12.012,12.012,0,0,0,1.066-1.624Zm-6.913,0a15.112,15.112,0,0,1,.956,2.438l1.03-.344a17.893,17.893,0,0,0-.955-2.094h.991a13.256,13.256,0,0,1,1.68.072V134.3a9.784,9.784,0,0,1-1.734.111h-2.582c.234-.488.4-.833.686-1.536l-1.156-.288a9.71,9.71,0,0,1-2.887,4.657,3.577,3.577,0,0,1,.866.722,15.213,15.213,0,0,0,1.967-2.6Zm-19.841-.739h12.058v12.057H214.149Zm13.321,14.133a13.541,13.541,0,0,1-.107-2.094V135.7a17.556,17.556,0,0,1,.107-2.186,17.943,17.943,0,0,1-2.111.089h-10.4a17.3,17.3,0,0,1-2.076-.089,17.536,17.536,0,0,1,.108,2.186v10.937a14.387,14.387,0,0,1-.108,2.13h1.264v-1.045h12.075v1.045Zm-9.568-10.4h4.459v4.5H217.9Zm.667-.976a14.724,14.724,0,0,1-1.821-.072,9.412,9.412,0,0,1,.072,1.354v3.881a9.412,9.412,0,0,1-.072,1.354,13.112,13.112,0,0,1,1.821-.072h3.124a16.519,16.519,0,0,1,1.842.072,9.1,9.1,0,0,1-.072-1.354v-3.881a9.107,9.107,0,0,1,.072-1.354,15.324,15.324,0,0,1-1.842.072Zm-22.785,11.138a11.269,11.269,0,0,0,2.273-3.576l-.937-.521a8.065,8.065,0,0,1-2.258,3.321Zm5.451-.215a20.111,20.111,0,0,0-.542-3.648l-.974.179a19.886,19.886,0,0,1,.378,3.648Zm4.025-.183a17.238,17.238,0,0,0-1.066-3.519l-.956.269a14.378,14.378,0,0,1,.92,3.558Zm4.909-.342a16.941,16.941,0,0,0-2.256-3.339l-.883.485a14.614,14.614,0,0,1,2.147,3.486Zm-5.631-12.276h2.2v3.16h-2.2Zm0,4.172h2.2v3.2h-2.2Zm-3.07-4.172h2.094v3.16h-2.094Zm0,4.172h2.094v3.2h-2.094Zm-3.084,0H200.5v3.2h-2.111Zm0-4.172H200.5v3.16h-2.111Zm-1.013,3.16h-.919a10.03,10.03,0,0,1-1.716-.108v1.228a10.78,10.78,0,0,1,1.716-.108h.919v3.193h-.488a9.847,9.847,0,0,1-1.713-.108v1.21a10,10,0,0,1,1.659-.108h11.537a10.592,10.592,0,0,1,1.713.108v-1.21a10.248,10.248,0,0,1-1.731.108h-.6v-3.193h.955a10.594,10.594,0,0,1,1.734.108v-1.228a10.151,10.151,0,0,1-1.734.108h-.955v-3.16c.793,0,1.371.036,1.967.09v-1.189a15,15,0,0,1-2.24.108H198.42a15.591,15.591,0,0,0,.955-1.537l.252-.431-1.225-.29a10.126,10.126,0,0,1-3.774,4.875,2.769,2.769,0,0,1,.847.74,12.241,12.241,0,0,0,1.9-1.967Z"/><path class="cls-9" d="M290.246,144.059a5.92,5.92,0,0,1-1.678,2.9,6.588,6.588,0,0,1-2.066,1.357,7.622,7.622,0,0,1-3.016.542,8.109,8.109,0,0,1-3.049-.536,6.36,6.36,0,0,1-2.1-1.309,5.223,5.223,0,0,1-1.354-2.138,10.9,10.9,0,0,1-.476-2.453h3.456a4.174,4.174,0,0,0,1.051,2.489,3.307,3.307,0,0,0,2.471.862,3.39,3.39,0,0,0,2.507-.949,3.426,3.426,0,0,0,.967-1.905,14.394,14.394,0,0,0,.186-2.345,12.179,12.179,0,0,0-.153-2,4.53,4.53,0,0,0-.56-1.6,2.978,2.978,0,0,0-1.084-1.069,3.406,3.406,0,0,0-1.725-.392,3.708,3.708,0,0,0-2.321.644,3.071,3.071,0,0,0-1.1,1.524H277.05V124.5h13.01v3.082h-9.892v6.367a4.163,4.163,0,0,1,1.644-1.015,6.885,6.885,0,0,1,2.354-.374,7.16,7.16,0,0,1,2.507.407,5.086,5.086,0,0,1,1.826,1.153,6.323,6.323,0,0,1,1.1,1.456,7.473,7.473,0,0,1,.644,1.593,9.166,9.166,0,0,1,.287,1.674c.045.578.069,1.147.069,1.713a16,16,0,0,1-.356,3.5m-22.193.426h4.133v4.133h-4.133Zm-7.688-13.178a4.214,4.214,0,0,0-.931-2.845,3.241,3.241,0,0,0-2.591-1.085,3.189,3.189,0,0,0-2.576,1.085,4.268,4.268,0,0,0-.913,2.845v10.5a4.27,4.27,0,0,0,.913,2.845,3.179,3.179,0,0,0,2.576,1.084,3.231,3.231,0,0,0,2.591-1.084,4.216,4.216,0,0,0,.931-2.845Zm2.9,13.5a6.582,6.582,0,0,1-1.506,2.168,6.509,6.509,0,0,1-2.219,1.372,7.9,7.9,0,0,1-5.385,0,6.5,6.5,0,0,1-2.22-1.372,6.414,6.414,0,0,1-1.491-2.168,7.31,7.31,0,0,1-.542-2.9v-10.7a7.306,7.306,0,0,1,.542-2.9,6.414,6.414,0,0,1,1.491-2.168,6.489,6.489,0,0,1,2.22-1.372,7.9,7.9,0,0,1,5.385,0,6.494,6.494,0,0,1,2.219,1.372,6.582,6.582,0,0,1,1.506,2.168,7.135,7.135,0,0,1,.56,2.9v10.7a7.138,7.138,0,0,1-.56,2.9"/><path class="cls-9" d="M298.9,148.849l9.668-16.074h-1.186l-9.671,16.074Zm9.8-7.952c1.314,0,1.886,1.166,1.886,3.307,0,2.333-.656,3.414-1.907,3.414-1.1,0-1.953-.994-1.953-3.348,0-2.166.808-3.373,1.974-3.373m.083-1.06c-1.886,0-3.414,1.633-3.414,4.538,0,2.779,1.465,4.324,3.268,4.324,1.928,0,3.327-1.5,3.327-4.6,0-2.27-.868-4.262-3.181-4.262m-11.024-6.043c1.336,0,1.908,1.144,1.908,3.285,0,2.333-.68,3.435-1.929,3.435-1.105,0-1.932-1.015-1.932-3.369,0-2.162.806-3.351,1.953-3.351m.1-1.082c-1.887,0-3.414,1.633-3.414,4.538,0,2.779,1.443,4.348,3.264,4.348,1.932,0,3.33-1.548,3.33-4.624,0-2.459-1-4.262-3.18-4.262"/><path class="cls-9" d="M510.44,146.85a37.607,37.607,0,0,0-5.723-5.559,20.892,20.892,0,0,0,3.232-5.741l-.812-.937h-9.566V135.8h8.736a19.5,19.5,0,0,1-10.362,10.814l.776,1.01A22.542,22.542,0,0,0,504,142.193a29.7,29.7,0,0,1,5.253,5.558Zm-26.7-11.5h9.134v-1.174h-9.134Zm10.144,2.834H482.037v1.174h11.1c-1.049,3.77-3.72,6.37-8.287,7.616l.632,1.12c5.055-1.552,7.888-4.28,9.134-9.081ZM472.2,136a22,22,0,0,0,1.3-2.456l-1.3-.416a17.244,17.244,0,0,1-5.454,7.2l.869.74a18.088,18.088,0,0,0,3.842-3.954h6.1a16.732,16.732,0,0,1-9.206,10.129l.865.956a17.808,17.808,0,0,0,9.8-11.39l-.668-.812ZM458.82,146.488a14.677,14.677,0,0,0,5.361,2.419,3.653,3.653,0,0,1,.779-.991,13.414,13.414,0,0,1-5.272-2.114Zm-4.945-.668a10.71,10.71,0,0,1-5.109,2.042,3.3,3.3,0,0,1,.794,1.027,14.386,14.386,0,0,0,5.253-2.363Zm-2.258-2.4h10.506v1.407H451.617Zm0-2.276h10.506v1.389H451.617Zm0-2.238h10.506v1.354H451.617Zm-1.1,5.056-.018,1.246a4.23,4.23,0,0,1-.054.611,19.394,19.394,0,0,1,2-.072h8.844a19.236,19.236,0,0,1,2,.072c-.036-.324-.054-.468-.054-.593v-.309l-.018-.955v-4.136a15.472,15.472,0,0,1,.072-1.911,19.236,19.236,0,0,1-2,.072H452.45a18.953,18.953,0,0,1-2-.072,16.245,16.245,0,0,1,.072,1.911Zm10.937-8H452.3v-1.641h9.152Zm1.121-1.392a8.932,8.932,0,0,1,.071-1.279,14.167,14.167,0,0,1-2,.09h-7.508a14.412,14.412,0,0,1-2.022-.09,9.607,9.607,0,0,1,.072,1.279v1.1a8.593,8.593,0,0,1-.072,1.246c.359-.036,1.189-.054,1.986-.054h7.562c.811,0,1.644.018,1.985.054a8.124,8.124,0,0,1-.071-1.246Zm-20.612-.054v3.4c0,.776.363.937,2.112.937,1.228,0,1.806-.143,2.057-.488a4.674,4.674,0,0,0,.453-2.057,2.917,2.917,0,0,1-1.067-.506c-.053,2.039-.053,2.057-1.5,2.057-.83,0-.937-.054-.937-.359v-2.762a11.355,11.355,0,0,1,.036-1.3,9.245,9.245,0,0,1-1.246.054h-2.962a9.8,9.8,0,0,1-1.279-.054,4.926,4.926,0,0,1,.054.685,6.906,6.906,0,0,1-.4,2.474,4.229,4.229,0,0,1-1.806,2.112,3.072,3.072,0,0,1,.833.847,5.677,5.677,0,0,0,2.471-5.037Zm-8.032,5.307a19.319,19.319,0,0,0,1.354-1.929l.251-.38-1.009-.686a11.915,11.915,0,0,1-4.169,4.909,3.113,3.113,0,0,1,.632,1.03,9.533,9.533,0,0,0,1.857-1.86c-.036.937-.036,1.066-.036,2v3.647a14.673,14.673,0,0,1-.126,2.148h1.354a16.335,16.335,0,0,1-.108-2.148Zm.632-7.164a10.819,10.819,0,0,1-3.828,3.717,2.983,2.983,0,0,1,.758.886,14.961,14.961,0,0,0,3.576-3.321,4.044,4.044,0,0,1,.485-.578Zm8.754,8.682a11.38,11.38,0,0,1-2.725,3.286,10.309,10.309,0,0,1-2.582-3.286Zm.9-1.1a4.257,4.257,0,0,1-1.279.09h-6.032a7.557,7.557,0,0,1-1.426-.108v1.192a12.162,12.162,0,0,1,1.39-.072,12.329,12.329,0,0,0,2.818,3.99,13.645,13.645,0,0,1-5,2.273,3.328,3.328,0,0,1,.632,1.066,15.066,15.066,0,0,0,5.253-2.6,15.487,15.487,0,0,0,5.379,2.672,3.961,3.961,0,0,1,.578-1.138,13.943,13.943,0,0,1-5.056-2.256,15.167,15.167,0,0,0,2.926-3.611,4.866,4.866,0,0,1,.486-.74Zm-23.169,8.937h1.084l5.993-16.969h-1.084Zm-12.8-4.406h7.31v2.094h-7.31Zm0-2.815h7.31v1.86h-7.31Zm2.923-2.8a33.7,33.7,0,0,1-8.195,3.953,3.847,3.847,0,0,1,.686,1c1.246-.489,2.582-1.085,3.5-1.552-.018.378-.036.758-.036,1.261v3.016a11.7,11.7,0,0,1-.107,1.824h1.228v-.833h7.31v.833h1.225a10.652,10.652,0,0,1-.108-1.824v-3.971a16.463,16.463,0,0,1,.072-1.932,18.135,18.135,0,0,1-1.914.072h-3.013c-.308,0-.631,0-.958.018l-.9.018c.9-.542,1.949-1.228,2.851-1.878h4.154a13.438,13.438,0,0,1,1.949.111v-1.228a11.357,11.357,0,0,1-1.895.108h-2.89a24.451,24.451,0,0,0,3.414-3.358l.557-.65-1.045-.685a17.261,17.261,0,0,1-4.442,4.693H411.03v-2.22h1.7a11.926,11.926,0,0,1,1.878.09v-1.174a11.837,11.837,0,0,1-1.932.108H411.03v-.614a9.24,9.24,0,0,1,.108-1.677H409.8a9.8,9.8,0,0,1,.108,1.677v.614h-2.833a11.638,11.638,0,0,1-1.95-.108v1.174a13.628,13.628,0,0,1,1.932-.09h2.851v2.22h-4.478a11.5,11.5,0,0,1-1.967-.108v1.228a13.543,13.543,0,0,1,1.967-.111ZM388.523,144.3h9.892v2.654h-9.892Zm1.318-5.921H397.1v2.291h-7.256Zm2.707,3.214a11.952,11.952,0,0,1-.83,1.734h-2.707a13.624,13.624,0,0,1-1.68-.072,12.2,12.2,0,0,1,.09,1.659v2.04a11.884,11.884,0,0,1-.108,1.7h1.21v-.7h9.892v.722h1.192a14.887,14.887,0,0,1-.093-1.716v-2.04a12.748,12.748,0,0,1,.075-1.659,13.076,13.076,0,0,1-1.68.072h-5.055a14.188,14.188,0,0,0,.85-1.734h2.654a18.261,18.261,0,0,1,1.895.072,6.9,6.9,0,0,1-.074-1.426v-1.5a11.267,11.267,0,0,1,.057-1.354c-.417.036-1.067.072-1.7.072H390.4c-.632,0-1.3-.036-1.716-.072a8.366,8.366,0,0,1,.072,1.336v1.515a10.018,10.018,0,0,1-.072,1.426,14.622,14.622,0,0,1,1.895-.072Zm-4.459-6.517a18.53,18.53,0,0,1-1.95-.072,12.076,12.076,0,0,1,.072,1.5v1.447a9.039,9.039,0,0,1-.09,1.261h1.192v-3.175h12.366v3.175h1.192a6.659,6.659,0,0,1-.093-1.261v-1.465a10.032,10.032,0,0,1,.075-1.479,18.1,18.1,0,0,1-1.95.072h-1.446a18.711,18.711,0,0,0,1.428-2.112l-1.138-.4a12.335,12.335,0,0,1-1.515,2.51h-1.86a24.488,24.488,0,0,0-1.264-2.528l-1.1.255a12.142,12.142,0,0,1,1.192,2.273h-2.474a13.221,13.221,0,0,0-1.479-2.291l-1.066.305a10.02,10.02,0,0,1,1.335,1.986Zm-15.28,7.475a17.407,17.407,0,0,1,.775,3.771l1-.342a22.151,22.151,0,0,0-.923-3.719Zm-3.828-.182a13.914,13.914,0,0,1-.937,4.8l.973.453a21.227,21.227,0,0,0,.958-5.017Zm12.492-7.835a11.524,11.524,0,0,1-2.528,2.944,8.953,8.953,0,0,1-2.381-2.944Zm.9.506c.162-.27.288-.431.342-.524l.233-.342-.65-.667a7.747,7.747,0,0,1-1.371.071H375.95a12.2,12.2,0,0,1-1.734-.089v1.138a8.184,8.184,0,0,1,1.282-.093,11.127,11.127,0,0,0,2.653,3.558,12.783,12.783,0,0,1-3.554,1.767,3.765,3.765,0,0,1,.613.994,16.88,16.88,0,0,0,3.735-2.093,15.353,15.353,0,0,0,4.5,2.309,3.527,3.527,0,0,1,.56-1.081,13.04,13.04,0,0,1-4.223-1.9,14,14,0,0,0,2.255-2.546Zm-3.016,7.709v-.65a10.723,10.723,0,0,1,.108-1.86h-1.282a10.441,10.441,0,0,1,.108,1.86v.65h-1.569a7.447,7.447,0,0,1-1.641-.108v1.171c.377-.036,1.027-.072,1.641-.072H378.3v3.25h-2.524a13.186,13.186,0,0,1-1.681-.09v1.174a11.5,11.5,0,0,1,1.752-.108h6.245a11.314,11.314,0,0,1,1.752.108V146.9a10.049,10.049,0,0,1-1.752.09h-2.726v-3.25h2c.686,0,1.264.036,1.623.072v-1.171a8.433,8.433,0,0,1-1.623.108Zm-11.281-1.21.649-.09,1.067-.072.377-.036c.291-.018.416-.018.758-.054v5.685a12.083,12.083,0,0,1-.108,1.77h1.282a11.429,11.429,0,0,1-.108-1.77v-5.795c.65-.054.865-.09,1.623-.2.129.4.165.542.327,1.12l.865-.434a22.762,22.762,0,0,0-1.443-3.447l-.812.362a15.071,15.071,0,0,1,.722,1.533c-.83.126-1.609.2-2.815.27a40.168,40.168,0,0,0,2.434-3.411c.507-.776.776-1.21.833-1.3l.27-.378-1.013-.6a14.152,14.152,0,0,1-1.8,3.175c-.362-.431-.614-.722-1.1-1.243a24.591,24.591,0,0,0,1.7-2.926,3.471,3.471,0,0,1,.378-.65l-1.1-.488a13.252,13.252,0,0,1-1.645,3.36c-.305-.308-.4-.4-.847-.85l-.65.811a22.416,22.416,0,0,1,2.671,2.873c-.326.47-.344.488-1.264,1.659-.416.018-.524.018-.721.018a4.249,4.249,0,0,1-.7-.036Z"/><path class="cls-9" d="M548.048,140.164a3.973,3.973,0,0,0-.848-1.27,4.129,4.129,0,0,0-1.255-.862,3.71,3.71,0,0,0-1.557-.324,3.834,3.834,0,0,0-1.575.324,3.886,3.886,0,0,0-1.252.862,4.111,4.111,0,0,0,0,5.691,3.726,3.726,0,0,0,1.252.847,4.028,4.028,0,0,0,1.575.306,3.9,3.9,0,0,0,1.557-.306,3.94,3.94,0,0,0,2.1-2.117,4.261,4.261,0,0,0,0-3.151m-1.069-11.737a3.41,3.41,0,0,0-2.591-1.048,3.353,3.353,0,0,0-2.573,1.048,3.717,3.717,0,0,0-.982,2.641,3.651,3.651,0,0,0,.982,2.645,3.416,3.416,0,0,0,2.573,1.015,3.475,3.475,0,0,0,2.591-1.015,3.61,3.61,0,0,0,1-2.645,3.674,3.674,0,0,0-1-2.641m4.285,16.31a6.426,6.426,0,0,1-1.593,2.22,6.974,6.974,0,0,1-2.369,1.389,9.213,9.213,0,0,1-5.828,0,6.831,6.831,0,0,1-2.354-1.389,6.623,6.623,0,0,1-1.575-2.22,7.168,7.168,0,0,1-.575-2.929,6.284,6.284,0,0,1,.287-1.964,6.482,6.482,0,0,1,.746-1.576,6.109,6.109,0,0,1,1.051-1.219,7.529,7.529,0,0,1,1.237-.9,6.569,6.569,0,0,1-2.051-1.983,5.568,5.568,0,0,1-.863-3.2,6.684,6.684,0,0,1,.542-2.744,6.333,6.333,0,0,1,1.489-2.1,6.648,6.648,0,0,1,2.219-1.354,8.193,8.193,0,0,1,5.5,0,6.751,6.751,0,0,1,2.253,1.354,6.274,6.274,0,0,1,1.509,2.1,6.733,6.733,0,0,1,.542,2.744,5.576,5.576,0,0,1-.865,3.2,6.532,6.532,0,0,1-2.049,1.983,7.658,7.658,0,0,1,1.237.9,6,6,0,0,1,1.048,1.219,6.482,6.482,0,0,1,.746,1.576,6.284,6.284,0,0,1,.288,1.964,7.168,7.168,0,0,1-.576,2.929m-22.474-.254h4.133v4.133H528.79Zm-9.248,4.133h-3.726l8.1-21.037h-7.35v3.8h-3.321V124.5H527.6v3.081Z"/><path class="cls-9" d="M559.827,148.849l9.668-16.074h-1.186l-9.671,16.074Zm9.8-7.952c1.315,0,1.887,1.166,1.887,3.307,0,2.333-.656,3.414-1.908,3.414-1.1,0-1.952-.994-1.952-3.348,0-2.166.808-3.373,1.973-3.373m.084-1.06c-1.887,0-3.414,1.633-3.414,4.538,0,2.779,1.465,4.324,3.268,4.324,1.928,0,3.327-1.5,3.327-4.6,0-2.27-.869-4.262-3.181-4.262m-11.024-6.043c1.336,0,1.908,1.144,1.908,3.285,0,2.333-.68,3.435-1.929,3.435-1.105,0-1.932-1.015-1.932-3.369,0-2.162.806-3.351,1.953-3.351m.105-1.082c-1.887,0-3.414,1.633-3.414,4.538,0,2.779,1.443,4.348,3.264,4.348,1.932,0,3.33-1.548,3.33-4.624,0-2.459-1-4.262-3.18-4.262"/><path class="cls-9" d="M488.876,431.25a37.9,37.9,0,0,0-5.723-5.561,20.8,20.8,0,0,0,3.231-5.738l-.811-.941H476V420.2h8.736a19.508,19.508,0,0,1-10.359,10.815l.775,1.009a22.568,22.568,0,0,0,7.275-5.433,29.839,29.839,0,0,1,5.253,5.559Zm-26.709-11.5H471.3v-1.174h-9.135Zm10.147,2.833H460.472v1.174h11.1c-1.045,3.771-3.716,6.37-8.283,7.616l.631,1.12c5.056-1.554,7.889-4.279,9.135-9.08Zm-21.68-2.186a21.462,21.462,0,0,0,1.3-2.453l-1.3-.416a17.3,17.3,0,0,1-5.451,7.2l.866.739a18.185,18.185,0,0,0,3.845-3.953H456a16.723,16.723,0,0,1-9.207,10.126l.866.958a17.8,17.8,0,0,0,9.8-11.39l-.668-.814ZM428.6,430.78a13.774,13.774,0,0,1-.126,2.166h1.39a14.277,14.277,0,0,1-.126-2.112v-9.44a24.852,24.852,0,0,0,1.516-3.429c.108-.291.143-.344.215-.524l-1.225-.434a16.127,16.127,0,0,1-4.1,7.511,5.244,5.244,0,0,1,.722,1.009,12.927,12.927,0,0,0,1.806-2.6c-.054.94-.072,1.5-.072,2.2Zm7.311-6.244h-3.375a11.711,11.711,0,0,1-1.824-.108v1.261a11.871,11.871,0,0,1,1.824-.108h3.375v5.436H433.3a12.826,12.826,0,0,1-1.914-.111v1.264a11.75,11.75,0,0,1,1.914-.126h6.679a11.734,11.734,0,0,1,1.914.126v-1.264a12.987,12.987,0,0,1-1.914.111h-2.887v-5.436h3.7a11.839,11.839,0,0,1,1.823.108V424.41a10.287,10.287,0,0,1-1.823.126h-3.7v-4.424a29.527,29.527,0,0,0,4.549-1.677l-.868-.994c-1.713,1.21-5.631,2.312-9.566,2.743a3.058,3.058,0,0,1,.56,1.066c1.246-.2,2.345-.416,4.151-.829Zm-21.576-6.679a16.784,16.784,0,0,1,4.28,2.291l.722-.973a20.749,20.749,0,0,0-4.226-2.186Zm2.04,3.861v3.773h-3.555a9.683,9.683,0,0,1-1.716-.09v1.228a10.946,10.946,0,0,1,1.77-.09h3.5v4.586h-5.142a12.341,12.341,0,0,1-1.914-.108v1.3a12.159,12.159,0,0,1,1.95-.126h11.874a11.332,11.332,0,0,1,1.9.126v-1.3a12.4,12.4,0,0,1-1.9.108h-5.54v-4.586h3.881a10.6,10.6,0,0,1,1.716.09V425.4a13.124,13.124,0,0,1-1.734.09h-3.863v-3.773h4.765a11.756,11.756,0,0,1,1.842.092v-1.245a12.582,12.582,0,0,1-1.86.107H411.865a12.16,12.16,0,0,1-1.857-.107v1.245a11.529,11.529,0,0,1,1.857-.092Zm-16.352,11.86h1.084l5.993-16.967h-1.085Zm-4.747-7.527a9.723,9.723,0,0,1,1.659.108v-1.192a10.43,10.43,0,0,1-1.716.111h-9.728V423.6h7.616a14.277,14.277,0,0,1,1.716.09V422.55a11.133,11.133,0,0,1-1.716.09h-7.616v-1.372h7.616a14.734,14.734,0,0,1,1.716.09V420.22a12.018,12.018,0,0,1-1.716.09h-7.616v-1.372h8.158a16.112,16.112,0,0,1,1.86.09v-1.189a10.574,10.574,0,0,1-1.86.108h-7.544a12.554,12.554,0,0,1-1.842-.09,13.393,13.393,0,0,1,.072,1.749v5.472h-1.372a10.439,10.439,0,0,1-1.77-.111v1.192a11.332,11.332,0,0,1,1.752-.108h1.39v5.182l-1.605.359a6.668,6.668,0,0,1-1.192.147l.377,1.243c.291-.09.452-.126.761-.2a58.412,58.412,0,0,0,6.715-1.95l-.018-1.081a38.32,38.32,0,0,1-3.882,1.207v-4.909h2.13c1.533,3.2,4.585,5.487,8.972,6.733a4.439,4.439,0,0,1,.611-1.192,15.872,15.872,0,0,1-5.361-2.255,14.823,14.823,0,0,0,2.492-1.986l.2-.18.219-.182.107-.108-1.048-.632a11.754,11.754,0,0,1-2.761,2.51,8.034,8.034,0,0,1-2.273-2.708ZM375,427.749a17.949,17.949,0,0,0,3.049,4.4,8.8,8.8,0,0,1,.922-.722,13.043,13.043,0,0,1-3.016-4.169Zm-5.379-.452a9.442,9.442,0,0,1-2.653,4.187,3.477,3.477,0,0,1,.919.686,12.519,12.519,0,0,0,2.761-4.421Zm-4.693,3.7a16.323,16.323,0,0,1-.111,2.186H366.1c-.054-.524-.072-1.192-.072-2.2v-9.62a26.647,26.647,0,0,0,1.264-3.177l.144-.471.164-.395-1.245-.326a15.986,15.986,0,0,1-3.612,7.493l.146.162.162.251.252.363.126.215a10.708,10.708,0,0,0,1.554-2.456c-.036.833-.072,1.932-.054,2.618Zm2.237-4.295a4.445,4.445,0,0,1,.794-.072l1.842-.054c.054.018.9-.036,1.68-.071l.377-.018.363-.018v4.854a12.267,12.267,0,0,1-.111,1.86h1.3a12.968,12.968,0,0,1-.09-1.878v-4.89l.793-.057.977-.054.7-.054c.56-.036.7-.054,1.6-.144.219.381.344.6.7,1.282l.958-.578a21.928,21.928,0,0,0-2.941-3.881l-.85.47c.775.865,1.084,1.246,1.536,1.842-1.429.143-2.618.215-5.073.305a35.469,35.469,0,0,0,3.827-3.863l.884-1.1.125-.126-1.117-.6a17.166,17.166,0,0,1-3,3.7c-.506-.414-1.084-.866-1.68-1.282a19.057,19.057,0,0,0,2.456-2.959c1.372-.2,3.088-.542,3.971-.758.488-.126.722-.2.977-.255l-.743-.973c-.974.632-6.191,1.444-9.62,1.516a2.789,2.789,0,0,1,.4,1.012c1.225-.072,2.309-.165,3.591-.345a10.773,10.773,0,0,1-1.824,2.2c-.6-.4-.685-.45-1.353-.866l-.65.812a25.157,25.157,0,0,1,3.719,2.617,19.735,19.735,0,0,1-1.5,1.3c-.9.018-1.393.018-1.464.018a13.3,13.3,0,0,1-1.714-.072Z"/><path class="cls-9" d="M548.289,424.564a3.914,3.914,0,0,0-.848-1.27,4.168,4.168,0,0,0-1.252-.863,3.739,3.739,0,0,0-1.56-.323,3.939,3.939,0,0,0-2.827,1.186,4.161,4.161,0,0,0-.83,4.42,4.021,4.021,0,0,0,.83,1.27,3.688,3.688,0,0,0,1.255.848,4.03,4.03,0,0,0,1.572.305,3.881,3.881,0,0,0,2.812-1.153,3.872,3.872,0,0,0,.848-1.27,4.219,4.219,0,0,0,0-3.15m-1.067-11.737a3.414,3.414,0,0,0-2.593-1.049,3.354,3.354,0,0,0-2.573,1.049,3.711,3.711,0,0,0-.982,2.641,3.648,3.648,0,0,0,.982,2.645,3.419,3.419,0,0,0,2.573,1.015,3.482,3.482,0,0,0,2.593-1.015,3.622,3.622,0,0,0,1-2.645,3.684,3.684,0,0,0-1-2.641m4.283,16.31a6.463,6.463,0,0,1-1.59,2.219,6.97,6.97,0,0,1-2.372,1.39,9.2,9.2,0,0,1-5.825,0,6.769,6.769,0,0,1-2.354-1.39,6.562,6.562,0,0,1-1.576-2.219,7.188,7.188,0,0,1-.578-2.929,6.2,6.2,0,0,1,.291-1.965,6.581,6.581,0,0,1,.743-1.575,6.081,6.081,0,0,1,1.051-1.219,7.615,7.615,0,0,1,1.237-.9,6.554,6.554,0,0,1-2.049-1.983,5.557,5.557,0,0,1-.865-3.2,6.682,6.682,0,0,1,.542-2.743,6.375,6.375,0,0,1,1.491-2.1,6.584,6.584,0,0,1,2.22-1.353,8.193,8.193,0,0,1,5.5,0,6.747,6.747,0,0,1,2.252,1.353,6.262,6.262,0,0,1,1.507,2.1,6.682,6.682,0,0,1,.542,2.743,5.579,5.579,0,0,1-.863,3.2,6.591,6.591,0,0,1-2.051,1.983,7.7,7.7,0,0,1,1.237.9,6.081,6.081,0,0,1,1.051,1.219,6.587,6.587,0,0,1,.746,1.575,6.32,6.32,0,0,1,.287,1.965,7.123,7.123,0,0,1-.578,2.929m-22.471-.255h4.133v4.133h-4.133Zm-7.688-13.177a4.225,4.225,0,0,0-.931-2.845,3.239,3.239,0,0,0-2.591-1.082,3.185,3.185,0,0,0-2.575,1.082,4.264,4.264,0,0,0-.914,2.845v10.5a4.26,4.26,0,0,0,.914,2.845,3.186,3.186,0,0,0,2.575,1.084,3.24,3.24,0,0,0,2.591-1.084,4.221,4.221,0,0,0,.931-2.845Zm2.9,13.5a6.472,6.472,0,0,1-3.725,3.54,7.908,7.908,0,0,1-5.388,0,6.523,6.523,0,0,1-2.216-1.375,6.344,6.344,0,0,1-1.492-2.165,7.32,7.32,0,0,1-.542-2.9v-10.7a7.3,7.3,0,0,1,.542-2.9,6.351,6.351,0,0,1,1.492-2.169,6.452,6.452,0,0,1,2.216-1.371,7.862,7.862,0,0,1,5.388,0,6.5,6.5,0,0,1,2.219,1.371,6.631,6.631,0,0,1,1.506,2.169,7.125,7.125,0,0,1,.557,2.9v10.7a7.148,7.148,0,0,1-.557,2.9m-31.353,3.809v-3.081l9.281-11.282a6.748,6.748,0,0,0,.982-1.573,4.215,4.215,0,0,0,.306-1.644,3.791,3.791,0,0,0-.917-2.641,3.324,3.324,0,0,0-2.605-1.016,4.4,4.4,0,0,0-1.324.2,3.066,3.066,0,0,0-1.132.644,3.186,3.186,0,0,0-.8,1.153,4.355,4.355,0,0,0-.305,1.728h-3.457a7.228,7.228,0,0,1,.527-2.794,6.133,6.133,0,0,1,1.456-2.154,6.634,6.634,0,0,1,2.219-1.371,7.826,7.826,0,0,1,2.813-.491,8.15,8.15,0,0,1,2.845.476,6.231,6.231,0,0,1,2.2,1.353,6.133,6.133,0,0,1,1.423,2.136,7.433,7.433,0,0,1,.506,2.809,5.979,5.979,0,0,1-.575,2.728,14.06,14.06,0,0,1-1.692,2.489l-7.557,9.249h9.824v3.081Z"/><path class="cls-9" d="M560.061,433.249l9.667-16.074h-1.186l-9.67,16.074Zm9.8-7.952c1.315,0,1.887,1.165,1.887,3.307,0,2.333-.656,3.414-1.908,3.414-1.1,0-1.953-.995-1.953-3.349,0-2.165.809-3.372,1.974-3.372m.084-1.06c-1.887,0-3.414,1.632-3.414,4.537,0,2.78,1.464,4.325,3.267,4.325,1.929,0,3.327-1.5,3.327-4.6,0-2.27-.868-4.262-3.18-4.262m-11.025-6.044c1.336,0,1.908,1.144,1.908,3.286,0,2.333-.679,3.435-1.929,3.435-1.105,0-1.931-1.015-1.931-3.369,0-2.163.8-3.352,1.952-3.352m.1-1.081c-1.886,0-3.414,1.632-3.414,4.537,0,2.78,1.444,4.349,3.265,4.349,1.931,0,3.33-1.548,3.33-4.624,0-2.459-1-4.262-3.181-4.262"/><path class="cls-9" d="M388.821,175.124v-21.4a.474.474,0,0,1,.5-.585c.326,0,.588.262,1.189.585v22c-.6.323-.863.588-1.189.588a.588.588,0,0,1-.586-.588"/><path class="cls-9" d="M437.767,198.754H486.49a.455.455,0,0,1,.585.479c0,.325-.262.588-.585,1.208H437.365c-.323-.62-.588-.883-.588-1.208a.588.588,0,0,1,.588-.586"/><path class="cls-9" d="M469.835,315.212H487.8c.323-.583.585-.321.585,0s-.262.588-.585,1.686H469.648c-.323-1.1-.588-1.36-.588-1.686a.588.588,0,0,1,.588-.585"/><path class="cls-9" d="M236.919,256.139h19.709c.323-.4.585-.133.585.19s-.262.588-.585,1.5H236.769c-.323-.91-.588-1.172-.588-1.5a.589.589,0,0,1,.588-.586"/><path class="cls-9" d="M235.231,171.749H337.705l.45.366.032.45v4.351a.462.462,0,0,1-.482.638c-.35,0-.635-.284-1.206-.638v-3.479H235.932a1.157,1.157,0,0,1-.635-.872.635.635,0,0,1,.635-.635"/><path class="cls-9" d="M655.905,514.509a12.419,12.419,0,0,0,2.352-3.389,11.595,11.595,0,0,0,0-9.773,12.408,12.408,0,0,0-2.352-3.39h-1.36a11.068,11.068,0,0,1,2.635,3.426,11.115,11.115,0,0,1,0,9.7,11.1,11.1,0,0,1-2.635,3.426Zm-6.01-6.168H644.43l4.244-5.5c.565-.738.938-1.244,1.308-1.8-.07.975-.087,1.532-.087,2.524Zm-6.81,1.082c.531-.053,1.167-.07,2.089-.07H649.9v1.622a10.471,10.471,0,0,1-.142,1.911h1.363a10,10,0,0,1-.141-1.894v-1.639h.653a12.284,12.284,0,0,1,1.874.124V508.2a11.455,11.455,0,0,1-1.857.128h-.67V502.41a30.49,30.49,0,0,1,.1-3.065h-1.1a18.583,18.583,0,0,1-1.272,1.8l-4.545,5.823c-.32.413-.6.758-1.08,1.315Zm-8.931-9.052h4.139a10.772,10.772,0,0,1,1.982.145V499.2a10.861,10.861,0,0,1-1.982.144h-3.432a9.515,9.515,0,0,1-1.874-.107,6.694,6.694,0,0,1,.053.791,9.632,9.632,0,0,1-.07,1.083l-.373,3.966a14.284,14.284,0,0,1-.283,1.858l1.1.09a2.32,2.32,0,0,1,.814-1.083,3.665,3.665,0,0,1,2.389-.811,3.1,3.1,0,0,1,3.2,3.409,3.3,3.3,0,0,1-3.412,3.571,3.352,3.352,0,0,1-2.584-1.1,2.952,2.952,0,0,1-.583-1.063l-1.184.416a4.915,4.915,0,0,0,1.114,1.623,4.6,4.6,0,0,0,3.2,1.153,4.359,4.359,0,0,0,4.616-4.67,4.277,4.277,0,0,0-1.167-3.155,4.333,4.333,0,0,0-3.059-1.19,4.116,4.116,0,0,0-3.149,1.317,5.668,5.668,0,0,0,.141-.848Zm-8.693,4.761a3.657,3.657,0,0,1,1.841.486,3.287,3.287,0,0,1,1.4,2.977,3.843,3.843,0,0,1-.478,2.018,3.325,3.325,0,0,1-2.846,1.516,3.5,3.5,0,0,1,.087-7m4-3.353a5,5,0,0,0-1.027-1.606,3.973,3.973,0,0,0-2.883-1.082,4.655,4.655,0,0,0-1.784.325,4.875,4.875,0,0,0-2.53,2.759,12.783,12.783,0,0,0-.69,4.255c0,2.561.6,4.526,1.716,5.572a4.573,4.573,0,0,0,3.166,1.136,4.267,4.267,0,0,0,4.422-4.563,4.077,4.077,0,0,0-4.317-4.452,4.13,4.13,0,0,0-3.076,1.207,3.645,3.645,0,0,0-.851,1.173,10.938,10.938,0,0,1,.744-4.093,3.333,3.333,0,0,1,3.129-2.327,2.817,2.817,0,0,1,2.177.939,3.335,3.335,0,0,1,.653,1.173ZM608.4,510.288h9.549v-1.009H608.4Zm0-3.514h9.549v-1.009H608.4Zm-9.363,6.112a13.923,13.923,0,0,1-.125-1.947v-3.463a3.711,3.711,0,0,1,.744-1.821,3.179,3.179,0,0,1,2.6-1.549c1.521,0,2.332.882,2.332,2.558v4.275a13.767,13.767,0,0,1-.122,1.947H605.8a11.72,11.72,0,0,1-.124-1.93v-4.49a2.985,2.985,0,0,0-3.237-3.316,3.666,3.666,0,0,0-2.7,1.063,3.812,3.812,0,0,0-.885,1.281,7.036,7.036,0,0,0,.053-.8v-1.371h-1.2a11.73,11.73,0,0,1,.141,1.948v5.663a11.025,11.025,0,0,1-.141,1.947Zm-3.127,1.623a11.44,11.44,0,0,1-2.635-3.426,11.124,11.124,0,0,1,0-9.7,11.4,11.4,0,0,1,2.635-3.426h-1.36a11.964,11.964,0,0,0-2.335,3.39,11.441,11.441,0,0,0,0,9.773,11.974,11.974,0,0,0,2.335,3.389ZM575.732,498.5a3.869,3.869,0,0,1-.054.577,46.482,46.482,0,0,0-.619,6.635v.432c.034,1.354.034,1.354.034,1.824l.02.322v.164l1.043-.037c-.02-.379-.02-.379-.02-.469a9.642,9.642,0,0,1,.939-4c1.026-2.183,2.177-3.246,3.573-3.246,1.767,0,2.793,1.731,2.793,4.707,0,2.921-.989,4.9-3.076,6.129a9.2,9.2,0,0,1-3.5,1.156,2.873,2.873,0,0,1,.6.99,12.925,12.925,0,0,0,3.059-1.08,7.421,7.421,0,0,0,3.98-7,7.714,7.714,0,0,0-1.009-4.291,3.208,3.208,0,0,0-2.813-1.586,3.426,3.426,0,0,0-2.335.936,7.207,7.207,0,0,0-1.8,2.7,10.371,10.371,0,0,0-.619,2.2h-.071c.037-.792.283-2.884.62-5.013a9.115,9.115,0,0,1,.407-1.911Zm-11.353,11s.037.757.037,1.08a1.713,1.713,0,0,1-.444,1.388,2.938,2.938,0,0,1-2.033.65,3.032,3.032,0,0,1-2.247-.775,1.31,1.31,0,0,1-.263-.811c0-1.119,1.148-1.8,3-1.8a6.194,6.194,0,0,1,1.945.272m-.407-10.893a8.437,8.437,0,0,1,.07,1.425c.037,2.776.232,8.023.32,8.512a6.33,6.33,0,0,0-1.891-.254c-2.426,0-4.035,1.083-4.035,2.722,0,1.569,1.363,2.561,3.557,2.561a3.883,3.883,0,0,0,2.776-.9,2.638,2.638,0,0,0,.69-2.056,4.253,4.253,0,0,0-.071-.9l.387.181a13.667,13.667,0,0,1,4.388,3.01l.69-1.063c-.424-.288-.441-.288-.778-.54a15.876,15.876,0,0,0-4.724-2.581c-.07-1.08-.158-2.739-.229-4.848a26.368,26.368,0,0,0,4.263-.4l1.027-.145-.145-1.1a16.83,16.83,0,0,1-5.162.7c-.036-1.335-.036-1.4-.036-1.911a14.847,14.847,0,0,1,.087-2.418ZM547.431,513.59a11.966,11.966,0,0,1-.088-1.894V505.89a5.6,5.6,0,0,0-.053-.812l.568.289a32.462,32.462,0,0,1,6.683,3.587l.619-1.134a39.932,39.932,0,0,0-7.817-3.788v-3.389a11.664,11.664,0,0,1,.088-1.875h-1.289a10.6,10.6,0,0,1,.1,1.838v11.127a11.028,11.028,0,0,1-.1,1.857Zm-20.213-6.8a14.571,14.571,0,0,1,1.945-.073h10.579a14.981,14.981,0,0,1,1.928.073v-1.207a10.949,10.949,0,0,1-1.928.091H529.163a11.3,11.3,0,0,1-1.945-.091Zm-3.983-3.731c1.7.017,1.7.017,2.177.054v-1.083a13.794,13.794,0,0,1-2.16.107h-7.568c-.585.02-.585.02-.76.02a8.068,8.068,0,0,0,.582-1.153,14.634,14.634,0,0,1,.831-1.858l-1.131-.415a9.181,9.181,0,0,1-.921,2.524,13,13,0,0,1-3.783,4.959,2.391,2.391,0,0,1,.865.7,15.958,15.958,0,0,0,3.113-3.859H519.5c-.178,3.48-.884,5.5-2.53,7.121a10.175,10.175,0,0,1-3.765,2.4,2.1,2.1,0,0,1,.723.939,16.079,16.079,0,0,0,2.672-1.606,9.087,9.087,0,0,0,3.008-3.768,13.922,13.922,0,0,0,.952-5.083Zm-27.69,9.863c.263-.09.387-.127.653-.2a18.319,18.319,0,0,0,5.854-2.072,15.347,15.347,0,0,0,6.42-7.536,2.862,2.862,0,0,1-.884-.866,13.643,13.643,0,0,1-7.235,8.023,14.862,14.862,0,0,1-5.128,1.388Zm0-11.667a20.2,20.2,0,0,1,4.155,3.5l.744-.882a22.215,22.215,0,0,0-4.193-3.389Zm-11.435,1.66a4.562,4.562,0,0,1,.07.935,17.976,17.976,0,0,1-.161,2.508,6.623,6.623,0,0,1-2.456,4.526,8.537,8.537,0,0,1-3.271,1.676,2.691,2.691,0,0,1,.653.993,11.926,11.926,0,0,0,2.439-1.191,8.415,8.415,0,0,0,2.743-2.92c.76-1.408,1.043-2.849,1.1-5.662a4.156,4.156,0,0,1,.071-.865Zm7.533-3.014c-.282.11-.282.11-1.433.11h-9.566a12.19,12.19,0,0,1-2.019-.11v1.156a15.27,15.27,0,0,1,2-.09h10.259a9.758,9.758,0,0,1-2.069,2.793,7.516,7.516,0,0,1-2.847,1.713,2.924,2.924,0,0,1,.67.885,10.576,10.576,0,0,0,5.2-5.049,3.057,3.057,0,0,1,.407-.684Zm-26.251,10.406h7.588v2.344h-7.588Zm7.588-2.866v2.072h-7.588v-1.965l.229-.107Zm-4.28-2.8a34.008,34.008,0,0,1-8.419,4.184,2.852,2.852,0,0,1,.582.845A36.987,36.987,0,0,0,464.541,508c-.017.542-.034.921-.034,1.334v3.155a12.025,12.025,0,0,1-.107,1.8h.992v-.845h7.568v.845h1.009a11.017,11.017,0,0,1-.107-1.8v-3.947a18.1,18.1,0,0,1,.07-1.967,18.78,18.78,0,0,1-1.928.073h-3.129c-.441,0-.989.017-1.928.037.407-.254.727-.469.939-.577.477-.308.814-.506.935-.6.407-.272.71-.469,1.239-.865h4.192a14.719,14.719,0,0,1,1.891.107V503.69a11.725,11.725,0,0,1-1.857.108h-3.147a24.566,24.566,0,0,0,3.608-3.571c.248-.3.319-.4.565-.667l-.882-.613a17.676,17.676,0,0,1-4.546,4.851H468.2v-2.434h1.753a12.2,12.2,0,0,1,1.891.09v-1.009a11.781,11.781,0,0,1-1.911.107H468.2v-.7a10.888,10.888,0,0,1,.108-1.767H467.2a10.073,10.073,0,0,1,.1,1.767v.7h-2.9a11.594,11.594,0,0,1-1.908-.107v1.009a13.518,13.518,0,0,1,1.891-.09H467.3V503.8h-4.579a11.956,11.956,0,0,1-1.945-.108v1.063a15.2,15.2,0,0,1,1.945-.107Zm-18.918-2.957h6.171v1.552h-6.171Zm0-2.2h6.171v1.442h-6.171Zm5.484,4.49c.69,0,1.238.017,1.625.053a9.824,9.824,0,0,1-.07-1.569v-2.2a13.339,13.339,0,0,1,.07-1.64,16.06,16.06,0,0,1-1.82.091h-4.546a10.974,10.974,0,0,1-1.662-.091,11.872,11.872,0,0,1,.071,1.569v2.27a13.034,13.034,0,0,1-.071,1.586,11.963,11.963,0,0,1,1.608-.07Zm-10.242-1.208h-.778a10.649,10.649,0,0,1-1.608-.09v1.009a14.261,14.261,0,0,1,1.574-.09h.812v5.193a9.234,9.234,0,0,1-2.386.992l.336,1.046c.159-.09.619-.345.9-.489a29.7,29.7,0,0,0,3.749-2.216l-.108-.865a18.118,18.118,0,0,1-1.608,1.046V503.6h.46a14.912,14.912,0,0,1,1.521.073V502.7a10.967,10.967,0,0,1-1.5.073h-.477V500.21a14.892,14.892,0,0,1,.107-1.984h-1.1a14.837,14.837,0,0,1,.105,1.967Zm6.985,5.5a10.389,10.389,0,0,1-4.562,3.929,2.45,2.45,0,0,1,.655.7,12.449,12.449,0,0,0,4.846-4.633h1.945a9.2,9.2,0,0,1-1.467,2.451,11.665,11.665,0,0,1-3.413,2.849,2.361,2.361,0,0,1,.69.7,11.873,11.873,0,0,0,1.414-1.046,17.126,17.126,0,0,0,2.14-2.253,10.875,10.875,0,0,0,1.521-2.705h1.309a19.365,19.365,0,0,1-.566,4.345c-.141.486-.353.613-.955.613a13.493,13.493,0,0,1-2.036-.2,2.589,2.589,0,0,1,.266.955c.585.054,1.2.091,1.662.091,1.47,0,1.787-.343,2.123-2.183.125-.774.337-2.488.39-3.372a5.926,5.926,0,0,1,.105-1.063,13.959,13.959,0,0,1-1.75.07h-5.855a7.723,7.723,0,0,0,.868-1.478h5.394a14.452,14.452,0,0,1,1.733.073v-.955a9.739,9.739,0,0,1-1.733.107h-7.517a8.772,8.772,0,0,1-1.608-.107v.992a8.4,8.4,0,0,1,1.591-.11h1.238a8.95,8.95,0,0,1-4.458,4.237,2.5,2.5,0,0,1,.619.687,11.8,11.8,0,0,0,3.308-2.705ZM428,502.138a16.932,16.932,0,0,1,1.8,3.463l.814-.469a23.374,23.374,0,0,0-1.841-3.39Zm5.572,3.842v-4.922h4.6a13.366,13.366,0,0,1,1.928.108V500.1a9.283,9.283,0,0,1-1.945.124h-4.58v-.613a7.223,7.223,0,0,1,.1-1.533h-1.1a10.013,10.013,0,0,1,.107,1.533v.613h-4.263a12.217,12.217,0,0,1-1.891-.124v1.063a15.912,15.912,0,0,1,1.874-.108h4.28v4.922h-5.219a12.049,12.049,0,0,1-1.891-.127v1.066a15.753,15.753,0,0,1,1.891-.111h4.775a17.521,17.521,0,0,1-1.733,2.129,18.193,18.193,0,0,1-5.057,3.732,3.771,3.771,0,0,1,.673.831,19.726,19.726,0,0,0,3.217-2.236,14.319,14.319,0,0,0,3.415-4.023c-.054,1.083-.071,1.444-.071,2.021v3.407a9.93,9.93,0,0,1-.124,1.733h1.13a9.56,9.56,0,0,1-.121-1.733v-3.427c0-.486-.02-.918-.071-2.018a14.82,14.82,0,0,0,2.511,3.1,18.434,18.434,0,0,0,4.579,3.175,4.553,4.553,0,0,1,.636-.9,16.884,16.884,0,0,1-4.933-3.228,17.471,17.471,0,0,1-2.281-2.562h5.128a13.647,13.647,0,0,1,1.928.111v-1.066a8.941,8.941,0,0,1-1.911.127h-2.83a28.049,28.049,0,0,0,2.089-3.842l-.9-.413a18.384,18.384,0,0,1-2.194,4.255Zm-16.515,1.137c-2,0-3.237-1.335-3.237-3.481a3.968,3.968,0,0,1,.478-1.947,3.328,3.328,0,0,1,2.883-1.586,3.508,3.508,0,0,1-.124,7.014m-4.156,3.335a4.857,4.857,0,0,0,1.148,1.694,4.066,4.066,0,0,0,2.866.992,5.576,5.576,0,0,0,1.841-.305,4.417,4.417,0,0,0,2.439-2.525,11.837,11.837,0,0,0,.761-4.4,12,12,0,0,0-.478-3.786,4.533,4.533,0,0,0-8.809,1.623,4.07,4.07,0,0,0,4.263,4.382,4.4,4.4,0,0,0,2.514-.721,3.631,3.631,0,0,0,1.45-1.66c-.037,1.01-.108,1.841-.178,2.327a7.149,7.149,0,0,1-.778,2.344,3.125,3.125,0,0,1-2.9,1.7,3,3,0,0,1-2.3-.885,3.686,3.686,0,0,1-.653-1.207Zm-7.952-9.99a9.792,9.792,0,0,1,1.45-.108h.989v10.585a10.492,10.492,0,0,1-.141,1.947h1.416a10.6,10.6,0,0,1-.141-1.947v-8.674c0-.955.054-1.894.158-3.01a9.59,9.59,0,0,1-1.379.09h-.973a7.645,7.645,0,0,1-1.379-.09Zm-7.2-.325a3.1,3.1,0,0,1,2.846,1.642,10.43,10.43,0,0,1,.832,4.328,11.671,11.671,0,0,1-.583,3.769,3.506,3.506,0,0,1-.831,1.351,3.283,3.283,0,0,1-5.077-.741,10.063,10.063,0,0,1-.848-4.362,11.566,11.566,0,0,1,.582-3.768,3.36,3.36,0,0,1,.814-1.3,2.943,2.943,0,0,1,2.265-.921m0,13a4.131,4.131,0,0,0,3.607-1.821,9.428,9.428,0,0,0,1.221-5.193,12.6,12.6,0,0,0-.673-4.184,4.565,4.565,0,0,0-1.026-1.6,4.511,4.511,0,0,0-6.932.919,10.751,10.751,0,0,0-1.009,4.885,12.722,12.722,0,0,0,.673,4.167,4.911,4.911,0,0,0,1.026,1.6,4.184,4.184,0,0,0,3.113,1.227m-8.812-.252a17.929,17.929,0,0,1,2.052.108v-1.261a17.732,17.732,0,0,1-2.052.107h-5.8a5.11,5.11,0,0,1,.972-2.182,10.45,10.45,0,0,1,2.847-2.488,14.656,14.656,0,0,0,2.921-2.253,3.653,3.653,0,0,0,.918-2.417c0-2.075-1.662-3.409-4.243-3.409a4.333,4.333,0,0,0-3.415,1.334,4.917,4.917,0,0,0-1.1,2.508l1.221.234a3.858,3.858,0,0,1,.636-1.857,3,3,0,0,1,2.655-1.19c1.874,0,3.076.919,3.076,2.363,0,1.153-.6,1.945-2.406,3.192a20.683,20.683,0,0,0-2.635,1.928,7.455,7.455,0,0,0-2.244,2.9,9.022,9.022,0,0,0-.569,2.488,9.538,9.538,0,0,1,1.877-.108Zm-23.882.037c.265-.09.39-.127.656-.2a18.319,18.319,0,0,0,5.854-2.072,15.347,15.347,0,0,0,6.42-7.536,2.875,2.875,0,0,1-.885-.866,13.648,13.648,0,0,1-7.234,8.023,14.862,14.862,0,0,1-5.128,1.388Zm0-11.667a20.3,20.3,0,0,1,4.158,3.5l.741-.882a22.189,22.189,0,0,0-4.19-3.389Zm-5.77,11.775v.918h1.009a5.2,5.2,0,0,1-.071-1.063v-8.113c0-.633,0-.885.017-1.264-.282.02-.548.037-1.077.037h-6.474a8.42,8.42,0,0,1-1.537-.107v1.046a7.339,7.339,0,0,1,1.521-.074h6.612v3.3h-6.225a8.654,8.654,0,0,1-1.521-.107v1.029a7.162,7.162,0,0,1,1.5-.074h6.242v3.571h-6.791a8.685,8.685,0,0,1-1.521-.108v1.08a7.776,7.776,0,0,1,1.521-.07Zm-24.872.124c.266-.088.336-.107.69-.2l.972-.2a19.315,19.315,0,0,0,4.351-1.515,13.989,13.989,0,0,0,6.79-7.735,3.975,3.975,0,0,1-.9-.794,13.1,13.1,0,0,1-2.157,4.059,11.935,11.935,0,0,1-5.341,4.037,14.977,14.977,0,0,1-4.67,1.1Zm-.461-8.653a19.118,19.118,0,0,1,4.441,2.434l.566-.973a27.644,27.644,0,0,0-4.439-2.327Zm1.4-4.292a17.7,17.7,0,0,1,4.243,2.361l.6-.973a25.927,25.927,0,0,0-4.28-2.253Zm-18.755,6.581a14.6,14.6,0,0,1,1.948-.073h10.576a14.971,14.971,0,0,1,1.928.073v-1.207a10.926,10.926,0,0,1-1.928.091H318.539a11.315,11.315,0,0,1-1.948-.091Zm-16.325,1.948a5.616,5.616,0,0,1,.477-.63c1.044-1.19,2.494-3.014,3.184-3.95.8-1.1.9-1.19,1.255-1.19s.461.091,1.628,1.352a67.454,67.454,0,0,0,6.084,5.987,19.323,19.323,0,0,1,1.5,1.315l.565-1.224a8.573,8.573,0,0,1-1.416-1.012,56.093,56.093,0,0,1-6.118-5.931c-1.275-1.425-1.521-1.606-2.194-1.606-.76,0-1.184.325-2.173,1.7a46.873,46.873,0,0,1-2.991,3.641l-.566.433Zm11.214-8.006a10.539,10.539,0,0,1,1.713,2.488l.8-.4a12.561,12.561,0,0,0-1.75-2.454Zm-1.645.829a10.877,10.877,0,0,1,1.733,2.524l.777-.4a11.35,11.35,0,0,0-1.75-2.488ZM296.808,499.4a16.942,16.942,0,0,1-1.894,4.633,17.246,17.246,0,0,1-8.664,7.772,2.936,2.936,0,0,1,.723,1.009,20.662,20.662,0,0,0,5.589-3.859,20.979,20.979,0,0,0,4.865-7.718,9.485,9.485,0,0,1,.6-1.422Zm-13.041-.54a15.348,15.348,0,0,1-3.395,3.423,24.73,24.73,0,0,1-9.162,4.671,3.289,3.289,0,0,1,.568.992,26.573,26.573,0,0,0,6.969-3.209v6.96a10.8,10.8,0,0,1-.108,1.858h1.292a11.592,11.592,0,0,1-.09-1.895v-7.627A33.3,33.3,0,0,0,284,500.371a4.3,4.3,0,0,1,.761-.738Zm-22.375-.308a2.8,2.8,0,0,1-.266.919,17.125,17.125,0,0,1-2.6,4.274,11.217,11.217,0,0,1-2.688,2.38,2.07,2.07,0,0,1,.811.758,17.1,17.1,0,0,0,4.229-4.707l6.138-.107a17.055,17.055,0,0,1-3.045,6.148,15.172,15.172,0,0,1-6.3,4.687,2.056,2.056,0,0,1,.71.848,16.8,16.8,0,0,0,7.214-5.967,20.026,20.026,0,0,0,2.46-5.411,1.556,1.556,0,0,1,.282-.667l-.689-.648c-.178.091-.212.091-.8.091l-4.916.087a4.385,4.385,0,0,0-.582.057,9.386,9.386,0,0,0,.831-1.623,3.67,3.67,0,0,1,.424-.757Zm6.137.757a10.623,10.623,0,0,1,1.592,2.471l.76-.4a11.275,11.275,0,0,0-1.608-2.436Zm1.521-.7a10.378,10.378,0,0,1,1.538,2.418l.78-.4a12.084,12.084,0,0,0-1.574-2.364Zm-28.414,14.319c.263-.09.388-.127.653-.2a18.325,18.325,0,0,0,5.855-2.072,15.352,15.352,0,0,0,6.42-7.536,2.875,2.875,0,0,1-.885-.866,13.638,13.638,0,0,1-7.234,8.023,14.862,14.862,0,0,1-5.128,1.388Zm0-11.667a20.208,20.208,0,0,1,4.156,3.5l.743-.882a22.239,22.239,0,0,0-4.192-3.389Zm-16.648,9.827a14.755,14.755,0,0,1,1.979-.091H236a14.746,14.746,0,0,1,1.979.091v-1.244a11.949,11.949,0,0,1-2,.107h-9.99a12.09,12.09,0,0,1-2-.107Zm1.787-8.566a16.964,16.964,0,0,1,1.82-.071h6.757a17,17,0,0,1,1.82.071v-1.19a10.1,10.1,0,0,1-1.837.11h-6.723a10.105,10.105,0,0,1-1.837-.11Zm-18.392,4.274a14.542,14.542,0,0,1,1.944-.073H219.9a14.94,14.94,0,0,1,1.928.073v-1.207a10.9,10.9,0,0,1-1.928.091H209.327a11.273,11.273,0,0,1-1.944-.091Zm-15.676-1.964c.585-.054,1.114-.074,1.982-.074H203.1a13.586,13.586,0,0,1-1.2,2.742,10.03,10.03,0,0,1-3.98,3.805,11.709,11.709,0,0,1-3.025,1.171,3.541,3.541,0,0,1,.6.992,14.375,14.375,0,0,0,4.1-1.965,11.673,11.673,0,0,0,4.371-5.987,3.352,3.352,0,0,1,.494-1.137l-.565-.684a1.881,1.881,0,0,1-.922.127h-9.266a11.926,11.926,0,0,1-2-.11Zm1.521-4.094a10.986,10.986,0,0,1,1.786-.09h5.872a10.993,10.993,0,0,1,1.787.09V499.56a7.431,7.431,0,0,1-1.8.127h-5.838a7.426,7.426,0,0,1-1.8-.127Zm-4.5-2.813-14.2,16.626h1.325l14.2-16.626Zm-21.439,1.388a9.9,9.9,0,0,1,.051,1.569l-.088,10.655a2.821,2.821,0,0,1-.107,1.046l.585.721.39-.178.565-.235a11.006,11.006,0,0,0,2.547-1.317,10.3,10.3,0,0,0,3.483-4.543,3.807,3.807,0,0,1-.814-.885,9.005,9.005,0,0,1-2.191,3.7,8.158,8.158,0,0,1-3.432,2.092l.1-11.054a6.673,6.673,0,0,1,.107-1.552Zm-4.334.145a7.5,7.5,0,0,1,.071,1.28c0,3.786-.249,6.149-.832,7.735a8.845,8.845,0,0,1-3.024,4.13,2.473,2.473,0,0,1,.868.775,10.664,10.664,0,0,0,3.075-4.382c.673-1.8.831-3.192.956-7.969a8.11,8.11,0,0,1,.1-1.5Zm-12.331-1.208a10.012,10.012,0,0,1-1.06,2.451,15.354,15.354,0,0,1-4.529,5.14,2.742,2.742,0,0,1,.868.7,17.534,17.534,0,0,0,4.226-4.781l6.349-.087a23.375,23.375,0,0,1-2.6,5.481,25.079,25.079,0,0,0-4-2.886l-.673.741A22.561,22.561,0,0,1,153.254,508a12.449,12.449,0,0,1-3.112,2.957,15.646,15.646,0,0,1-3.715,2,2.621,2.621,0,0,1,.727.922,19.342,19.342,0,0,0,5.5-3.644,20.163,20.163,0,0,0,4.653-7.735,4.514,4.514,0,0,1,.512-1.173l-.69-.7a2.12,2.12,0,0,1-.884.161l-5.075.054a2.9,2.9,0,0,0-.6.053,8.936,8.936,0,0,0,.69-1.28,6.813,6.813,0,0,1,.531-.99Zm-8.238.54a1.154,1.154,0,1,1-1.148,1.154,1.152,1.152,0,0,1,1.148-1.154m0-.667a1.812,1.812,0,1,0,1.77,1.8,1.794,1.794,0,0,0-1.77-1.8m-10.31,2.83a8.164,8.164,0,0,1,.088-1.478h-1.219a11,11,0,0,1,.071,1.444v8.311c0,.668.017,1.046.034,1.335a2.282,2.282,0,0,0,.689,1.7c.6.523,1.753.738,3.8.738,1.379,0,3.468-.127,4.97-.289,1.063-.107,1.063-.107,1.308-.127l-.1-1.19a9.209,9.209,0,0,1-1.7.345,35.6,35.6,0,0,1-4.031.288c-.727,0-1.592-.056-2.14-.11a2.291,2.291,0,0,1-1.4-.5c-.3-.325-.387-.758-.387-2.055v-.218l.017-.09v-2.723a25.78,25.78,0,0,0,8.506-3.1,7.039,7.039,0,0,1,.744-.379l-.761-1.009a9.679,9.679,0,0,1-2.813,1.676,23.026,23.026,0,0,1-5.676,1.858Zm-13.8,3.949-1.769.308a9.133,9.133,0,0,1-1.468.162l-.161-.017.215,1.1a7.03,7.03,0,0,1,1.521-.362l1.821-.305,1.255,6.87a6.8,6.8,0,0,1,.158,1.425l1.151-.218a6.024,6.024,0,0,1-.337-1.405l-1.272-6.836,5.306-.882a3.985,3.985,0,0,0,.653-.144l-.07.181a6.879,6.879,0,0,1-.707,1.244,7.384,7.384,0,0,1-2.564,2.307,2.556,2.556,0,0,1,.777.65,8.825,8.825,0,0,0,3.412-4.113,4.905,4.905,0,0,1,.391-.775l-.6-.557a1.986,1.986,0,0,1-.653.178l-6.12,1.046-.3-1.6a7.859,7.859,0,0,1-.2-1.354l-1.06.164a5.359,5.359,0,0,1,.317,1.315Zm-14.884-2.524-3.7.6a10.539,10.539,0,0,1-1.787.181L98.1,504.3a12.246,12.246,0,0,1,1.733-.4l3.715-.594.689,3.822-4.811.8a8.819,8.819,0,0,1-1.713.161l.212,1.153a8.428,8.428,0,0,1,1.642-.359l4.829-.794.743,4.167a13.78,13.78,0,0,1,.229,1.693l1.187-.234a10.263,10.263,0,0,1-.39-1.66l-.76-4.127,4.509-.741.39-.07c.283-.054.478-.074.548-.091a5.315,5.315,0,0,1,.778-.073l-.212-1.117a8.447,8.447,0,0,1-1.733.4l-4.438.74-.69-3.822,4.048-.65a11.928,11.928,0,0,1,1.558-.218l-.212-1.08a7.8,7.8,0,0,1-1.538.36l-4.034.65-.39-2.092a7.549,7.549,0,0,1-.176-1.516l-1.184.2a6.382,6.382,0,0,1,.387,1.516Zm-21.575,10.55c.265-.09.39-.127.656-.2a18.319,18.319,0,0,0,5.854-2.072,15.347,15.347,0,0,0,6.42-7.536,2.875,2.875,0,0,1-.885-.866,13.648,13.648,0,0,1-7.234,8.023,14.862,14.862,0,0,1-5.128,1.388Zm0-11.667a20.3,20.3,0,0,1,4.158,3.5l.741-.882a22.093,22.093,0,0,0-4.19-3.389ZM66.692,505.42a33.461,33.461,0,0,1,6.9,7.7l.868-.758c-1.326-1.786-1.911-2.544-2.654-3.372a26.831,26.831,0,0,0,5.891-6.726,4.951,4.951,0,0,1,.67-.938l-.6-.758a1.859,1.859,0,0,1-.868.11H66.446a11.681,11.681,0,0,1-2-.11v1.21a15.111,15.111,0,0,1,1.981-.09h9.816a4.468,4.468,0,0,0,.511-.017l-.141.215a27.836,27.836,0,0,1-3.112,4.164,25.884,25.884,0,0,1-2.369,2.2,36.9,36.9,0,0,0-3.661-3.48Zm-18.627,1.371a14.571,14.571,0,0,1,1.945-.073H60.586a14.94,14.94,0,0,1,1.928.073v-1.207a10.9,10.9,0,0,1-1.928.091H50.01a11.3,11.3,0,0,1-1.945-.091ZM42.1,512.165c.282-1.461.424-2.255.548-3.12.441-3.011.441-3.011.478-3.226a1.5,1.5,0,0,1,.178-.543l-.461-.432a1.582,1.582,0,0,1-.726.107H37.323a8.889,8.889,0,0,1-1.575-.107v1.082a9.627,9.627,0,0,1,1.558-.073h4.809c-.159,1.623-.583,4.291-1.007,6.312H35.7a7.105,7.105,0,0,1-1.592-.11v1.12a9.152,9.152,0,0,1,1.592-.091h8.56a8.988,8.988,0,0,1,1.591.091v-1.12a6.994,6.994,0,0,1-1.591.11ZM20.423,500.787a8.163,8.163,0,0,1,.088-1.479H19.29a10.664,10.664,0,0,1,.07,1.442v8.314c0,.648.02,1.046.037,1.335a2.278,2.278,0,0,0,.69,1.693c.6.523,1.75.741,3.8.741,1.38,0,3.466-.128,4.97-.289a9.384,9.384,0,0,1,1.309-.127l-.108-1.19a10.628,10.628,0,0,1-1.7.342,34.952,34.952,0,0,1-4.034.288c-.724,0-1.591-.053-2.14-.107a2.257,2.257,0,0,1-1.4-.506c-.3-.322-.388-.758-.388-2.055v-.215l.017-.11v-2.7a25.863,25.863,0,0,0,8.507-3.1,6.5,6.5,0,0,1,.743-.379l-.76-1.009a9.737,9.737,0,0,1-2.813,1.676,23.282,23.282,0,0,1-5.677,1.857ZM8.5,510.09l-.037.02-.034-.02H8.375a1.393,1.393,0,0,0,.124,2.777,1.382,1.382,0,0,0,1.343-1.388A1.36,1.36,0,0,0,8.5,510.09m5.058-5.229a1.371,1.371,0,1,0,1.345,1.371,1.355,1.355,0,0,0-1.345-1.371m-10.115-.017a1.361,1.361,0,0,0-1.363,1.371A1.388,1.388,0,0,0,3.442,507.6a1.38,1.38,0,0,0,0-2.759m5.074-5.211a1.371,1.371,0,0,0-1.36,1.372,1.388,1.388,0,0,0,1.36,1.388,1.38,1.38,0,0,0,0-2.76M8.5,505.6l-6.262-6.4-.582.594,6.279,6.437-6.279,6.4.582.6L8.5,506.882l6.279,6.346.565-.6-6.279-6.4,6.279-6.437-.565-.594Z"/><polyline class="cls-9" points="139.902 1 139.902 69 137.902 69 137.902 1"/><path class="cls-9" d="M79.761,20.108a11.66,11.66,0,0,0-2.579-7.873,8.953,8.953,0,0,0-7.169-3,8.809,8.809,0,0,0-7.122,3,11.788,11.788,0,0,0-2.531,7.873V49.162a11.78,11.78,0,0,0,2.531,7.874,8.8,8.8,0,0,0,7.122,3,8.944,8.944,0,0,0,7.169-3,11.652,11.652,0,0,0,2.579-7.874Zm8.011,37.35a18.282,18.282,0,0,1-4.169,6,17.969,17.969,0,0,1-6.139,3.795,21.832,21.832,0,0,1-14.9,0,17.969,17.969,0,0,1-6.139-3.795,17.7,17.7,0,0,1-4.122-6,20.239,20.239,0,0,1-1.5-8.014V19.827a20.243,20.243,0,0,1,1.5-8.012,17.667,17.667,0,0,1,4.122-6,18.007,18.007,0,0,1,6.139-3.8,21.816,21.816,0,0,1,14.9,0,18.007,18.007,0,0,1,6.139,3.8,18.246,18.246,0,0,1,4.169,6,19.661,19.661,0,0,1,1.549,8.012V49.444a19.657,19.657,0,0,1-1.549,8.014m-51.5.515V68H26.993V57.973H0v-8.9L23.525,1.27H33.834L10.4,49.069H26.993V33.511h9.279V49.069h7.122v8.9Z"/><path class="cls-9" d="M102.9,52.167c0,1.237-.62,1.857-1.662,1.857s-1.663-.62-1.663-1.857V49.2c0-1.24.587-1.857,1.663-1.857,1.042,0,1.662.617,1.662,1.857ZM117.69,63.6c0,1.24-.617,1.86-1.662,1.86-1.076,0-1.66-.62-1.66-1.86V60.637c0-1.237.584-1.857,1.66-1.857,1.045,0,1.662.62,1.662,1.857ZM115.8,44.8h-3.321L101.5,68h3.325ZM105.962,52.3V49.07c0-2.932-2.184-4.462-4.726-4.462-2.573,0-4.723,1.53-4.723,4.462V52.3c0,2.932,2.15,4.465,4.723,4.465,2.542,0,4.726-1.533,4.726-4.465m14.792,11.437V60.508c0-2.932-2.184-4.466-4.726-4.466-2.573,0-4.724,1.534-4.724,4.466v3.225c0,2.932,2.151,4.463,4.724,4.463,2.542,0,4.726-1.531,4.726-4.463"/><path class="cls-9" d="M205.614,2.6a16.187,16.187,0,0,1,2.213,3.975l1.493-1.008A19.925,19.925,0,0,0,207.026,1.7Zm-9.12,13.974h3.624v2.453h-3.624Zm0-3.788h3.624v2.261h-3.624Zm5.28,5.751V13.576a18.558,18.558,0,0,1,.082-2.477,16.9,16.9,0,0,1-1.786.082h-3.547a14.185,14.185,0,0,1-1.786-.082,22.3,22.3,0,0,1,.106,2.477v6.649a21.175,21.175,0,0,1-.135,2.424h1.762V20.661h3.25a20.715,20.715,0,0,1,2.083.053l-.029-1.416ZM197.43,7.854a32.051,32.051,0,0,0-.562-3.461h2.9a18.253,18.253,0,0,1-.744,3.461Zm1.786-5.011v-.3A12.033,12.033,0,0,1,199.35.28h-2.083a11.074,11.074,0,0,1,.163,2.237v.326h-1.522a12.222,12.222,0,0,1-1.838-.11V4.475c.451-.053.585-.053,1.224-.082a26.767,26.767,0,0,1,.59,3.461h-.59a9.628,9.628,0,0,1-1.651-.11V9.76a9.224,9.224,0,0,1,1.68-.134H203.3a35.853,35.853,0,0,0,1.142,8.175,18.508,18.508,0,0,1-5.357,5.04,6.026,6.026,0,0,1,1.282,1.416,21.55,21.55,0,0,0,4.718-4.493c1.013,2.558,2.185,4,3.279,4,.586,0,1.037-.379,1.359-1.118a13.964,13.964,0,0,0,.72-3.73,6.277,6.277,0,0,1-1.6-1.118c-.082,2.1-.346,3.758-.586,3.758-.163,0-.532-.489-.83-1.061a17.847,17.847,0,0,1-1.066-2.563,28.119,28.119,0,0,0,2.16-4.411c.346-.9.481-1.229.644-1.556l-1.628-1.061a17.592,17.592,0,0,1-1.761,4.767,34.718,34.718,0,0,1-.744-6.048h1.733a21.9,21.9,0,0,1,2.875.134V7.691a15.434,15.434,0,0,1-2.875.163h-1.791c-.053-1.387-.053-2.942-.053-4.493a20.022,20.022,0,0,1,.111-3.053H203a10.576,10.576,0,0,1,.111,1.825c.024,3.35.024,4.142.1,5.721h-2.64a26.771,26.771,0,0,0,.8-3.432,6.313,6.313,0,0,1,1.037.053V2.733a10.913,10.913,0,0,1-1.973.11ZM188.789,13.658h2.559v3.787c-1.118.327-1.6.49-2.559.711Zm0-5.256h2.559V12h-2.559Zm0-5.559h2.559v3.9h-2.559Zm-1.756,15.721a8.337,8.337,0,0,1-1.656.273l.508,2.04a15.131,15.131,0,0,1,1.863-.571c.883-.245,2.27-.653,3.1-.926l.5-.163V21.67a23.949,23.949,0,0,1-.13,2.808h2a18.712,18.712,0,0,1-.134-2.756V2.867l.96.058V.961a11.778,11.778,0,0,1-1.973.111h-4.45a11.379,11.379,0,0,1-1.949-.139V2.977a7.4,7.4,0,0,1,1.364-.134ZM175.32,3.059V7.907c0,1.282.557,1.556,3.25,1.556,1.92,0,2.827-.245,3.226-.817a7.269,7.269,0,0,0,.638-3.244,5.616,5.616,0,0,1-1.81-.845c-.1,3.053-.1,3.081-2,3.081-1.148,0-1.306-.057-1.306-.518V3.059a11.038,11.038,0,0,1,.082-1.934,11.263,11.263,0,0,1-1.9.081h-4.584A16.83,16.83,0,0,1,169,1.125a8.517,8.517,0,0,1,.082,1.06,10.033,10.033,0,0,1-.639,3.869A5.978,5.978,0,0,1,165.931,9a5.23,5.23,0,0,1,1.493,1.584A8.383,8.383,0,0,0,169.8,8.018a9.584,9.584,0,0,0,1.224-4.959ZM163.8,11.042l.427-.571c.374-.49.4-.519.638-.845.293-.461.749-1.119.989-1.527l.374-.571L164.5,6.275a18.52,18.52,0,0,1-6.187,7.354,6,6,0,0,1,1.013,1.963,12.865,12.865,0,0,0,2.558-2.558c-.052,1.416-.052,1.987-.052,2.914v5.2a24.2,24.2,0,0,1-.159,3.269h2.319a23.7,23.7,0,0,1-.187-3.269ZM164.5.035a10.007,10.007,0,0,1-.935,1.416,18.785,18.785,0,0,1-4.719,4.061,5.337,5.337,0,0,1,1.229,1.661,21.479,21.479,0,0,0,5.438-5.04,6.646,6.646,0,0,1,.72-.845Zm12.8,13.325a15.841,15.841,0,0,1-3.816,4.575,13.88,13.88,0,0,1-3.572-4.575ZM179,11.4a7.049,7.049,0,0,1-1.867.134h-9.116a14.572,14.572,0,0,1-2.136-.134v2.069a11.79,11.79,0,0,1,1.949-.106,18.616,18.616,0,0,0,4.022,5.828,19.609,19.609,0,0,1-7.089,3.192,6.429,6.429,0,0,1,1.094,1.958,23.118,23.118,0,0,0,7.623-3.758,21.581,21.581,0,0,0,7.92,3.84,7.372,7.372,0,0,1,.96-2.1,17.122,17.122,0,0,1-4.853-1.689,14.191,14.191,0,0,1-2.424-1.416,22.721,22.721,0,0,0,4.368-5.506,11.189,11.189,0,0,1,.667-1.032Z"/><path class="cls-9" d="M520.114,40.9v.552a47.8,47.8,0,0,1-.778,6.182,61.376,61.376,0,0,1-6.4.644l.36,3.614a54.289,54.289,0,0,1,5.376-1.013,51.454,51.454,0,0,1-2.913,8.665,31.424,31.424,0,0,1-3.12,5.76l3.48,1.959.24-.524c.3-.609.3-.609.451-.888a69.5,69.5,0,0,0,3.605-8.6,68.165,68.165,0,0,0,1.833-6.643,17.284,17.284,0,0,1,1.738-.091c2.377,0,3.068.825,3.068,3.643a27.728,27.728,0,0,1-.783,6.98c-.451,1.5-.931,2.083-1.8,2.083a12.409,12.409,0,0,1-4.387-1.224,11.711,11.711,0,0,1,.3,2.6c0,.308-.029.764-.062,1.345a13.644,13.644,0,0,0,4.627.921,3.772,3.772,0,0,0,3.331-1.377c1.44-1.685,2.314-5.881,2.314-11.147,0-2.784-.389-4.253-1.411-5.419a5.762,5.762,0,0,0-4.445-1.623c-.571,0-.994.034-1.862.063.091-.4.091-.427.211-1.1.417-2.295.417-2.295.508-2.967.092-.461.12-.614.183-1.041l.24-.951ZM539.3,43.714a17.99,17.99,0,0,0-2.794-3.825l-2.251,1.19a21.346,21.346,0,0,1,2.765,3.951Zm-8.559-1.041a18.365,18.365,0,0,1,2.823,4.07l2.342-1.252a17.279,17.279,0,0,0-2.822-4.013Zm1.474,5.755a19.519,19.519,0,0,1,2.131,3.615,29.1,29.1,0,0,1,2.371,6.888l3.423-1.747A29.582,29.582,0,0,0,535.254,46.9ZM496.372,67.2c-.087-1.008-.12-1.805-.12-3.4V55.715a16.04,16.04,0,0,0-.12-2.083,9.3,9.3,0,0,0,1.022.523A70.771,70.771,0,0,1,507.787,60l2.1-3.61a86.861,86.861,0,0,0-13.637-6.461v-5.7a20.883,20.883,0,0,1,.12-3.211h-4.114a19.989,19.989,0,0,1,.182,3.12V63.77a20.531,20.531,0,0,1-.182,3.427Zm-33.588-.825a10.482,10.482,0,0,1,1.983-.524,32.067,32.067,0,0,0,11.439-4.589c4.119-2.789,6.97-6.4,9.523-12.005a12.97,12.97,0,0,1-3.182-3,25.706,25.706,0,0,1-3.067,6.125,20.175,20.175,0,0,1-8.919,7.5,28.16,28.16,0,0,1-8.885,2.265Zm-1.051-20.209a31.62,31.62,0,0,1,7.657,6.216l2.582-3.336a42.289,42.289,0,0,0-7.747-5.909ZM451.221,41.3a37.867,37.867,0,0,1-4.234,9.86c-.24-.154-.24-.154-2.492-1.8-1.473-1.075-2.764-1.93-4.958-3.25l-2.64,2.7a53.671,53.671,0,0,1,7.958,5.511,30.93,30.93,0,0,1-3.816,4.161,30.58,30.58,0,0,1-7.776,5.3,9.461,9.461,0,0,1,2.64,3.182,38.369,38.369,0,0,0,7.148-5.049,34.889,34.889,0,0,0,4.685-5.117,44.846,44.846,0,0,1,6.1,6.461l2.885-3.154a72.457,72.457,0,0,0-6.7-6.49,51.318,51.318,0,0,0,4.234-8.664,18.493,18.493,0,0,1,1.052-2.2Zm-18.616,2.664a16.021,16.021,0,0,0-2.793-3.825l-2.132,1.19a19.358,19.358,0,0,1,2.732,3.951Zm-8.256-.859a18.86,18.86,0,0,1,2.823,4.1l2.251-1.315a16.008,16.008,0,0,0-2.823-4.013ZM407.98,67.072a18.619,18.619,0,0,1,2.1-.518c7.387-1.469,12.495-4.195,16.306-8.693a26.38,26.38,0,0,0,4.5-7.748,15.5,15.5,0,0,1-3.12-2.726,23.323,23.323,0,0,1-3.485,6.8,18.514,18.514,0,0,1-8.679,6.706,26.267,26.267,0,0,1-8.679,1.992Zm-1.714-14.755a33.822,33.822,0,0,1,8.142,4.469l1.862-3.457a44.087,44.087,0,0,0-7.987-4.166Zm2.377-7.441a34.95,34.95,0,0,1,8.016,4.2l1.92-3.365a47.21,47.21,0,0,0-7.988-3.951Zm-16.662,22.9a14.079,14.079,0,0,1-.149-2.722V58.317l-.062-1.5.754.336a53.539,53.539,0,0,1,9.158,4.9l1.983-3.211a48.668,48.668,0,0,0-10.484-4.81,39.127,39.127,0,0,0,6.13-5.722,7,7,0,0,1,1.32-1.32l-1.742-2.078a6.286,6.286,0,0,1-2.04.273H391.77V42.644a10.052,10.052,0,0,1,.154-2.146H387.9a13.234,13.234,0,0,1,.154,2.2v2.51h-5.016a15.326,15.326,0,0,1-3.217-.273v3.7A21.572,21.572,0,0,1,383,48.491c10.815-.063,10.815-.063,10.992-.091h.634a32.228,32.228,0,0,1-9.312,6.489,37.006,37.006,0,0,1-8.348,2.847,12.774,12.774,0,0,1,1.771,3.336,46.959,46.959,0,0,0,8.468-3.427l.9-.581v7.992a18.111,18.111,0,0,1-.182,2.722ZM352.576,53.3a48.757,48.757,0,0,1,6,5.909,50.006,50.006,0,0,1,5.8,7.719l3.154-2.573c-1.565-2.175-2.7-3.644-3.965-5.113a47.232,47.232,0,0,0,9.7-11.607,9.584,9.584,0,0,1,1.32-1.8l-2.1-2.42a7.653,7.653,0,0,1-2.491.245l-16.7.034a21.6,21.6,0,0,1-3.9-.216v3.888a31.023,31.023,0,0,1,3.845-.154h14.323a13.026,13.026,0,0,0,1.383-.062l-.063.153-.177.279a40.281,40.281,0,0,1-3.663,4.987,37.659,37.659,0,0,1-3.936,3.86c-.211-.183-.211-.183-1.862-1.9-1.229-1.224-2.132-2.05-3.725-3.4ZM333.855,41.665a13.364,13.364,0,0,1,.12,2.021V44.6l-.149,17.266a14.058,14.058,0,0,1-.273,3.245l1.925,2.083a13.023,13.023,0,0,1,1.291-.552,19.73,19.73,0,0,0,6.394-3.672,19.092,19.092,0,0,0,4.776-7.133,12.783,12.783,0,0,1-2.823-2.88,15.04,15.04,0,0,1-2.942,5.6,12.034,12.034,0,0,1-4.594,3.489l.149-17.42a16.538,16.538,0,0,1,.211-2.909Zm-7.959.211a15.728,15.728,0,0,1,.12,2.789c0,8.573-.691,12.519-2.851,16.042a12.484,12.484,0,0,1-3.1,3.519A10.793,10.793,0,0,1,323.1,67.2a19.539,19.539,0,0,0,4.147-5.664c1.56-3.154,2.218-6.615,2.429-12.581a65.316,65.316,0,0,1,.3-6.86ZM303.873,67.2c-.086-1.008-.12-1.805-.12-3.4V55.715a16.04,16.04,0,0,0-.12-2.083,9.3,9.3,0,0,0,1.022.523A70.669,70.669,0,0,1,315.288,60l2.1-3.61a86.819,86.819,0,0,0-13.637-6.461v-5.7a20.883,20.883,0,0,1,.12-3.211h-4.114a19.963,19.963,0,0,1,.183,3.12V63.77a20.511,20.511,0,0,1-.183,3.427ZM318.5,45.183a17.4,17.4,0,0,0-2.88-3.95l-2.165,1.2a20.051,20.051,0,0,1,2.823,4.071Zm-8.347-.979a20.45,20.45,0,0,1,2.885,4.2l2.251-1.287A16.576,16.576,0,0,0,312.4,42.98ZM270.987,61.9a81.964,81.964,0,0,1,9.427,1.776,54.229,54.229,0,0,1,10.633,3.427l1.291-3.859a92.972,92.972,0,0,0-19.94-4.839Zm2.429-8.607a64.234,64.234,0,0,1,7.6,1.349,51.02,51.02,0,0,1,8.261,2.448l1.172-3.764A92.59,92.59,0,0,0,274.8,49.777Zm.48-8.42a78,78,0,0,1,16.4,3.524l1.2-3.769a99.173,99.173,0,0,0-16.249-3.307ZM256.322,61.259A8.182,8.182,0,0,1,250.8,63.4c-2.7,0-4.445-1.531-4.445-3.917a3.846,3.846,0,0,1,1.233-2.88,9.7,9.7,0,0,1,2.732-1.776Zm-5.856-11.453a3.509,3.509,0,0,1-1.258-2.664c0-1.685,1.229-2.722,3.211-2.722,1.954,0,3.183,1.008,3.183,2.664a2.791,2.791,0,0,1-1.32,2.415,14.59,14.59,0,0,1-2.794,1.377Zm15.946,16.383c-1.378-1.32-2.069-2.021-3.034-3l-2.189-2.266c1.709-2.016,2.434-3.3,3.845-6.917l-3.1-1.531a15.234,15.234,0,0,1-2.914,6.183l-5.376-5.511a19.037,19.037,0,0,0,3.245-1.776,5.423,5.423,0,0,0,2.434-4.651c0-3.274-2.765-5.42-6.936-5.42-4.325,0-7.09,2.2-7.09,5.664a6.439,6.439,0,0,0,2.011,4.5l.9.979a11.562,11.562,0,0,0-3.782,2.54,7.016,7.016,0,0,0-.183,9.581,8.442,8.442,0,0,0,6.217,2.146,12.033,12.033,0,0,0,4.416-.8,12.5,12.5,0,0,0,3.571-2.2l.485.519a22.628,22.628,0,0,1,1.56,1.963ZM235.47,41.814a1.709,1.709,0,0,1,1.713,1.747,1.711,1.711,0,1,1-1.713-1.747m-18.736,1.747a20.44,20.44,0,0,1-3.845-.216v3.984a23.186,23.186,0,0,1,3.783-.187h14.3a21.209,21.209,0,0,1-9.1,13.349,24.284,24.284,0,0,1-6.576,3.125,11.2,11.2,0,0,1,2.644,3.644,31.48,31.48,0,0,0,5.7-3.034,26.369,26.369,0,0,0,7.479-7.407,31.852,31.852,0,0,0,4.056-9.888l.331.028a3.385,3.385,0,1,0-3.336-3.461,15.5,15.5,0,0,1-1.651.063ZM203.86,47.574a13.884,13.884,0,0,1-.537,3.518c-1.292,4.9-3.3,8.022-6.817,10.623a19.253,19.253,0,0,1-5.107,2.818,11.1,11.1,0,0,1,2.405,3.034c4.445-2.3,6.936-4.287,9.159-7.383a26.4,26.4,0,0,0,4.142-10.2,6.578,6.578,0,0,1,.423-1.56Zm-10.33.3a34.113,34.113,0,0,1,2.736,7.2L199.6,54a30.186,30.186,0,0,0-2.914-7.042ZM187.1,49.163a31.112,31.112,0,0,1,2.736,7.411l3.394-1.1a35.886,35.886,0,0,0-2.943-7.253ZM168.6,67.2a33.686,33.686,0,0,1-.12-3.4V55.715a16.04,16.04,0,0,0-.12-2.083,9.3,9.3,0,0,0,1.022.523A70.925,70.925,0,0,1,180.013,60l2.1-3.61a87.036,87.036,0,0,0-13.632-6.461v-5.7a20.883,20.883,0,0,1,.12-3.211h-4.114a20.118,20.118,0,0,1,.177,3.12V63.77a21.192,21.192,0,0,1-.177,3.427Z"/><path class="cls-9" d="M592.388,40.835a24.644,24.644,0,0,1,.183,3.8v19.9c0,.8-.274.95-1.651.95-.692,0-1.623-.091-3.394-.274a11.157,11.157,0,0,1,.84,3.183c1.56.091,2.069.125,2.794.125,3.633,0,4.531-.706,4.531-3.552V44.54a21.374,21.374,0,0,1,.211-3.7Zm-5.342,1.929a21.5,21.5,0,0,1,.149,3.245V58.317a21.744,21.744,0,0,1-.149,3.274h3.389a20.078,20.078,0,0,1-.149-3.245v-12.4a21.06,21.06,0,0,1,.149-3.183ZM574.34,61.927h6.787V64.9H574.34Zm-.721-2.568c-1.079,0-1.862-.034-2.553-.1a27.843,27.843,0,0,1,.12,2.851v4.071a14.713,14.713,0,0,1-.178,2.726h3.332V67.625h6.787v.945H584.4a16.367,16.367,0,0,1-.149-2.755V61.96a20.911,20.911,0,0,1,.12-2.7c-.691.062-1.354.1-2.371.1Zm.389-11.852c-.72,0-1.017,0-1.56-.029V45.52h10.57v1.958c-.451.029-.811.029-1.411.029h-2.314a7.588,7.588,0,0,1,.154-1.378H576.2a6.948,6.948,0,0,1,.149,1.378Zm2.343,2.482v1.377h-3a17.936,17.936,0,0,1-2.434-.124v2.7a16.755,16.755,0,0,1,2.434-.125h3v1.532H571.94a15.24,15.24,0,0,1-2.674-.154v2.971a22.3,22.3,0,0,1,2.674-.124h11.29a19.648,19.648,0,0,1,2.611.124V55.192a14.63,14.63,0,0,1-2.611.154h-3.937V53.814h2.765a15.56,15.56,0,0,1,2.372.125v-2.7a16.954,16.954,0,0,1-2.372.124h-2.765V49.989h2.314a16.393,16.393,0,0,1,2.645.153v-1.5h1.68c-.057-.643-.091-1.224-.091-2.141V44.968c0-.951.034-1.532.091-2.2a32.335,32.335,0,0,1-3.331.12h-3.063v-.216a9.955,9.955,0,0,1,.149-2.078h-3.576a10.261,10.261,0,0,1,.154,2.112v.182h-3.788a26.839,26.839,0,0,1-3.062-.12,15.63,15.63,0,0,1,.12,2.232v1.623a14.658,14.658,0,0,1-.12,2.2h1.891v1.32a16.94,16.94,0,0,1,2.7-.153Zm-20.008,7.622h-7.656l5.765-7.286c1.08-1.349,1.44-1.839,2.04-2.727a35.447,35.447,0,0,0-.149,3.677Zm7.839-.244a19.4,19.4,0,0,1-3.033.216H560.1V47.54a43.276,43.276,0,0,1,.212-5.174h-4.057a29.577,29.577,0,0,1-2.491,3.365l-7.119,8.88c-1.051,1.287-1.377,1.685-2.4,2.818v3.763c1.023-.091,1.983-.12,3.754-.12h8.319v2.112a20.251,20.251,0,0,1-.24,3.553h4.262a19.7,19.7,0,0,1-.24-3.49V61.072h1.08a23.167,23.167,0,0,1,3,.212Z"/></g></g></svg>