<svg xmlns="http://www.w3.org/2000/svg" viewBox="0 0 210 285"><defs><style>.cls-1{fill:#fff;}.cls-2{fill:#f0eae0;}.cls-3{fill:#827663;}.cls-4{fill:#392712;}.cls-5{fill:#57bbda;}.cls-6,.cls-7{fill:none;}.cls-6{stroke:#241916;stroke-miterlimit:10;stroke-width:0.53px;}.cls-7{stroke:#655541;stroke-linecap:round;stroke-linejoin:round;stroke-width:1.92px;}.cls-8{fill:#655541;}.cls-9{fill:#241916;}</style></defs><g id="レイヤー_2" data-name="レイヤー 2"><g id="レイヤー_1-2" data-name="レイヤー 1"><rect class="cls-1" width="210" height="285"/><rect class="cls-2" x="15" width="182" height="285"/><polygon class="cls-3" points="15 32.42 1 14.92 1 60.42 15 74.42 15 32.42"/><polygon class="cls-3" points="196 32.42 210 14.92 210 60.42 196 74.42 196 32.42"/><rect class="cls-4" y="20" width="210" height="41"/><path class="cls-1" d="M13.2,35.56a.46.46,0,0,0,.47-.47V34.4c0-.38,0-1.19-.07-1.54a1.48,1.48,0,0,1,0-.2c0-.15.13-.17.25-.17l1.43.08c.11,0,.62,0,.62.2s-.14.19-.2.26-.19.37-.19,1.34v.72a.46.46,0,0,0,.47.47h2.44a6.53,6.53,0,0,0,.8,0,1.94,1.94,0,0,1,.34,0,1,1,0,0,1,.62.36c.3.28.49.42.49.65a2.33,2.33,0,0,1-.1.44c-.07.22-.12.44-.17.65a11.36,11.36,0,0,1-3.86,7.21c-.51.42-2.61,2-3.18,2-.39,0-1.11-1-1.11-1.29s.15-.22.3-.29a10.11,10.11,0,0,0,5.16-4.92,9.5,9.5,0,0,0,.74-2.67c0-.4-.33-.44-.65-.44H11.27a.48.48,0,0,0-.47.47v1.68c0,.44,0,1,0,1.28,0,.47-.15.47-1,.47S9,41.11,9,40.7s0-.84,0-1.26V37.13c0-.31,0-.59,0-.88,0-.48,0-.7.82-.7H13.2Z"/><path class="cls-1" d="M30.69,37.21c.57,0,1.17,0,1.59,0s.46.27.46.89,0,.67-.46.67l-1.59,0h-.91a.5.5,0,0,0-.5.49v3.23a.49.49,0,0,0,.5.48h1.8c.55,0,1.12,0,1.7,0,.42,0,.4.32.4.84s0,.74-.44.74-1.11,0-1.66,0H25.46c-.55,0-1.11,0-1.66,0s-.44-.32-.44-.74,0-.84.41-.84l1.69,0h1.8a.48.48,0,0,0,.5-.48V39.21a.5.5,0,0,0-.5-.49h-.91l-1.59,0c-.44,0-.46-.22-.46-.67,0-.64,0-.89.46-.89s1,0,1.59,0Z"/><path class="cls-1" d="M41.46,34.52c.2,0,.42,0,.42.2s-.1.17-.17.24-.09.39-.09.54v.37c0,3.47-.23,6.43-2.9,9-.14.12-.34.36-.52.36s-1.5-.62-1.5-.93c0-.11.14-.23.22-.3,2.55-2.12,2.87-4.47,2.87-7.59,0-.51,0-1.18-.06-1.67,0,0,0-.13,0-.18s.1-.19.22-.19C40.25,34.35,41.1,34.47,41.46,34.52Zm4,7c0,.53,0,.78.27.78.55,0,3.86-3,4.4-3.51.08-.09.2-.22.33-.22.29,0,.86,1.07.86,1.34s-.65.79-.87,1c-1,.87-2,1.73-3.08,2.52-.45.35-1.17.89-1.58,1.24-.15.12-.31.3-.52.3a4.62,4.62,0,0,1-1.16-.5c-.23-.14-.53-.3-.53-.61,0-.11.06-1.21.06-2V36a16.48,16.48,0,0,0-.06-1.72v-.08c0-.12.06-.17.16-.17s.53.07.66.09c.87.11,1.36.16,1.36.35s-.07.15-.13.23a.62.62,0,0,0-.15.44c0,.39,0,1.23,0,1.65Z"/><path class="cls-1" d="M56.22,41.53c0,2,.34,2,2.64,2a32.65,32.65,0,0,0,5.61-.36h.17c.32,0,.34.42.34.92s0,.93-.54,1c-1.14.17-4.57.19-5.88.19-1.13,0-3,.06-3.73-1a5.71,5.71,0,0,1-.44-2.67V35.92a22.68,22.68,0,0,0-.08-2.34v-.13a.18.18,0,0,1,.18-.19c.17,0,1.3.24,1.53.29s.51.08.51.25-.25.24-.29.59a7,7,0,0,0,0,.74v2.45c0,.29.22.42.49.42A14.64,14.64,0,0,0,63,36.13a.73.73,0,0,1,.27-.11c.15,0,.45.45.65.77L64,37a2.77,2.77,0,0,1,.45.77c0,.14-.15.17-.25.17l-.22,0h-.11a1.65,1.65,0,0,0-.61.18,18.59,18.59,0,0,1-6.52,1.6c-.3,0-.54.15-.54.47Zm9.51-5.87c0,.26-.65.69-.85.69s-.19-.11-.26-.2a14.46,14.46,0,0,0-1.05-1.39c0-.07-.15-.17-.15-.25s.68-.63.85-.63A6.33,6.33,0,0,1,65.73,35.66Zm1.75-1.07c0,.27-.65.72-.86.72s-.16-.12-.23-.2c-.35-.49-.71-1-1.09-1.41,0-.07-.14-.15-.14-.22s.69-.64.86-.64A6.71,6.71,0,0,1,67.48,34.59Z"/><path class="cls-1" d="M76.32,38.39c.62,0,1.49,0,1.67,0,.36,0,.37.13.37,1,0,.54,0,.86-.36.86-.57,0-1.13,0-1.68,0H70.14l-1.68,0c-.35,0-.37-.32-.37-.84,0-.94,0-1.07.38-1.07.17,0,1.1,0,1.67,0Z"/><path class="cls-1" d="M88.74,44c0,.74,0,1.48,0,2.2,0,.46-.22.51-.84.51-.93,0-1.1,0-1.1-.49,0-.72,0-1.44,0-2.17V39.5c0-.11.05-.48-.27-.48-.17,0-.52.29-.66.39a20.51,20.51,0,0,1-3.61,2.15A2.84,2.84,0,0,1,81,40.22c0-.17.15-.24.27-.29a23.89,23.89,0,0,0,6.6-4.45,14.13,14.13,0,0,0,2.29-2.84c0-.08.15-.25.27-.25a6.48,6.48,0,0,1,1.14.69c.18.11.65.4.65.6s-.08.14-.16.17a.94.94,0,0,0-.66.4,32.42,32.42,0,0,1-2.3,2.52c-.25.26-.39.37-.39.76Z"/><path class="cls-1" d="M108.25,37.75c0,.28-.67.94-.89,1.16a29.4,29.4,0,0,1-9.13,6.33c-.55.27-.57.29-.7.57a.17.17,0,0,1-.17.1c-.18,0-.54-.67-.65-.87a4.36,4.36,0,0,1-.51-1c0-.18.3-.22.52-.28A23.05,23.05,0,0,0,107,36.44a.41.41,0,0,1,.29-.19C107.64,36.25,108.25,37.5,108.25,37.75ZM99.58,35c.22.15,1,.7,1,1s-.79,1.3-1.11,1.3a1.77,1.77,0,0,1-.67-.46,21.39,21.39,0,0,0-2.23-1.56c-.14-.08-.27-.17-.27-.32s.67-1.33,1.06-1.33A13.1,13.1,0,0,1,99.58,35Z"/><path class="cls-1" d="M120,35.33a3,3,0,0,0,.68,0,.53.53,0,0,1,.18,0c.37,0,1.23,1,1.23,1.3a1.94,1.94,0,0,1-.2.4c-.11.19-.27.44-.44.77-1.66,3.21-3.28,5.65-6.39,7.65a11.35,11.35,0,0,1-2.28,1.19c-.39,0-1.43-.82-1.43-1.12s.22-.27.34-.32a14.9,14.9,0,0,0,6.5-5.38,10.33,10.33,0,0,0,1.29-2.45c0-.22-.28-.24-.52-.24h-3.19c-.34,0-.4,0-.71.46s-2.25,2.77-2.68,2.77c-.22,0-1.45-.64-1.45-1a.33.33,0,0,1,.15-.24,15.42,15.42,0,0,0,4.49-6c.07-.17.13-.41.27-.41a10.27,10.27,0,0,1,1.19.52l.22.11c.2.08.5.18.5.33s-.17.17-.25.22-.27.25-.44.55c-.06.12-.13.24-.23.41a.66.66,0,0,0-.12.3c0,.17.14.25.29.27Zm3.4-.34c0,.25-.66.71-.86.71s-.15-.1-.22-.19A16.91,16.91,0,0,0,121.25,34c0-.07-.12-.14-.12-.22s.69-.63.88-.63A6.94,6.94,0,0,1,123.42,35Zm1.73-1c0,.25-.66.69-.86.69s-.17-.08-.22-.17A14.64,14.64,0,0,0,123,33a.33.33,0,0,1-.11-.2c0-.22.69-.64.87-.64A6.57,6.57,0,0,1,125.15,34Z"/><path class="cls-1" d="M131,39.44a1.94,1.94,0,0,1-2,2,1.74,1.74,0,0,1-1.83-1.77,2,2,0,0,1,2.05-2A1.72,1.72,0,0,1,131,39.44Z"/><path class="cls-1" d="M140.1,36.76c0,.13-.13.22-.22.28s-.17.41-.17.89v6.35c0,.74,0,1.48,0,2.22,0,.49-.17.55-.79.55s-.83-.06-.83-.55c0-.74,0-1.48,0-2.22v-4.5c0-.05,0-.1-.07-.1s-.07,0-.08,0c-.17.25-.27.44-.46.44s-.85-1-.85-1.28a1.36,1.36,0,0,1,.23-.54,19.8,19.8,0,0,0,2.2-6.05c0-.13.05-.31.24-.31s1.14.31,1.38.38.35.1.35.27-.14.19-.24.22-.18.07-.25.32c-.27,1-.6,2.18-1,3.17,0,0,0,0,0,0s.08.14.17.15S140.1,36.61,140.1,36.76Zm6.67-1.18c.27,0,.39-.12.39-.39v-.11c0-.29-.12-.41-.39-.41-.44,0-.86,0-1.29,0s-.32-.15-.32-.64,0-.61.33-.61.81,0,1.21,0,.46-.12.46-.45,0-.37,0-.57,0-.12,0-.17.13-.2.29-.2.94,0,1.24.06c.15,0,.4,0,.4.22s-.08.14-.2.22-.15.25-.17.44.15.45.46.45h.33l1,0c.52,0,.77.12.77.69,0,.34-.05.67,0,1s.12.37.39.38h.2c.38,0,.37.22.37.65s0,.64-.39.64h-.18c-.27,0-.39.12-.39.39v.06c0,.34,0,.69,0,1,0,.57-.23.7-.77.7H149c-.29,0-.41.12-.41.4v.09c0,.26.12.38.41.38h.75l1.4,0c.37,0,.35.19.35.61s0,.64-.35.64l-1.4,0H149c-.29,0-.41.12-.41.39v.1c0,.27.12.38.41.38h.87c.57,0,1.14,0,1.7,0,.39,0,.37.22.37.67s0,.67-.37.67c-.57,0-1.13,0-1.7,0h-.8c-.31,0-.44.12-.46.44s0,.79,0,1.19c0,.2.06.35.3.35,1,0,2-.06,2.7-.06.32,0,.37.18.37.5,0,1.16-.5,1.14-1.12,1.14-1.13,0-2.24,0-3.36,0a9.37,9.37,0,0,1-2.36-.3,6,6,0,0,1-2.06-1,.43.43,0,0,0-.27-.1.34.34,0,0,0-.3.19c-.22.3-1.06,1.52-1.41,1.52a1.62,1.62,0,0,1-1-1c0-.13.15-.29.25-.39a8.87,8.87,0,0,0,1.16-1.46.79.79,0,0,0,.1-.33.75.75,0,0,0-.12-.39,10.58,10.58,0,0,1-1.09-2.67c0-.34.89-.51,1-.51.3,0,.35.16.41.36.1.37.23.72.36,1.07,0,.05.09.12.16.12s.13-.07.16-.15a13.81,13.81,0,0,0,.44-2.4c0-.22-.15-.24-.5-.22a.44.44,0,0,0-.44.25.41.41,0,0,1-.42.25c-.27,0-1.09-.32-1.09-.64,0,0,.12-.26.13-.32.64-1.44,1.23-2.8,1.65-4a.51.51,0,0,0,0-.17c0-.15-.12-.17-.23-.17H142l-.65,0c-.32,0-.31-.27-.31-.77s0-.79.31-.79.35,0,.65,0h1.23c.6,0,1.16.45,1.16.89,0,.25-.83,2.21-1.2,3.15l-.15.39a.42.42,0,0,0,0,.14c0,.18.15.25.32.26h.27a.69.69,0,0,1,.7.36,1.17,1.17,0,0,1,.29.77,20.54,20.54,0,0,1-.87,4.55.77.77,0,0,0-.07.29.55.55,0,0,0,.22.42,5.14,5.14,0,0,0,2.85,1.09c.3,0,.41-.12.42-.4s0-.71,0-1.06-.16-.44-.47-.44h-.11c-.57,0-1.14,0-1.69,0-.39,0-.39-.18-.39-.67s0-.67.39-.67c.55,0,1.12,0,1.69,0h.19c.27,0,.39-.11.39-.38v-.1c0-.27-.12-.39-.39-.39h-.1l-1.4,0c-.36,0-.35-.2-.35-.62s0-.63.35-.63l1.4,0h.1c.27,0,.39-.12.39-.38v-.09c0-.28-.12-.4-.39-.4-.42,0-.82,0-1.23,0s-.32-.15-.32-.64,0-.62.32-.62.83,0,1.23,0,.39-.11.39-.4v-.2c0-.29-.12-.4-.39-.4h-.52l-1.58,0c-.39,0-.37-.18-.37-.64s0-.65.5-.65c.29,0,.74,0,1.45,0Zm2.69,0a.37.37,0,0,0,.4-.39v-.11a.38.38,0,0,0-.4-.41H149a.39.39,0,0,0-.41.41v.11a.38.38,0,0,0,.41.39Zm-.83,1.83a.39.39,0,0,0,.41.4h.42a.37.37,0,0,0,.4-.4v-.2a.38.38,0,0,0-.4-.4H149a.39.39,0,0,0-.41.4Z"/><path class="cls-1" d="M160.23,33.26c.3,0,.45-.13.45-.45s0-.44-.05-.61,0-.1,0-.15.15-.23.32-.23,1.33.12,1.55.13.43,0,.43.22-.08.15-.21.25a.44.44,0,0,0-.17.39c0,.32.13.45.45.45h3.4c.67,0,1.32,0,2,0,.4,0,.38.17.38.74s0,.72-.38.72c-.66,0-1.31,0-2,0H157.3c-.33,0-.47.13-.47.47v3.61a17.63,17.63,0,0,1-1.12,7.09c-.39.91-.52,1-.76,1-.42,0-1.23-.52-1.23-.87a.77.77,0,0,1,.14-.29,14.58,14.58,0,0,0,1.29-6.87V35.4c0-.49,0-1,0-1.45s.39-.72.92-.72,1.09,0,1.63,0Zm.9,10.4c0,.25,0,.44-.23.57-.81.49-2.14,1.15-3,1.56-.27.12-.25.14-.32.32s-.1.24-.25.24-.29-.3-.4-.56a6.72,6.72,0,0,1-.44-1.09c0-.15.25-.2.4-.25a26.15,26.15,0,0,0,3.67-1.61.4.4,0,0,1,.2-.09C161.08,42.75,161.13,43.43,161.13,43.66Zm.44-2.07c0-.33-.13-.47-.47-.47h-1.36c-.37,0-.72,0-1.09,0a.14.14,0,0,0-.07.27l.2.15c.35.29,1,.77,1,1s-.69.85-1,.85a.34.34,0,0,1-.25-.13c-.47-.41-.74-.64-1.25-1-.1-.06-.2-.13-.2-.27s.54-.73.72-.84a.16.16,0,0,0,.09-.18,1.88,1.88,0,0,1,0-.34c0-.58,0-.7.37-.7l1.48,0h1.51c.22,0,.32-.08.32-.32v-.18c0-.22-.08-.32-.32-.32h-1.8l-1.88,0c-.35,0-.33-.18-.33-.64s0-.62.33-.62c.62,0,1.26,0,1.88,0h1.8a.28.28,0,0,0,.32-.32v-.17c0-.22-.08-.32-.32-.32h-1.41c-.5,0-1,0-1.5,0-.35,0-.33-.15-.33-.64s0-.6.35-.6l1.48,0h1.33c.25,0,.38-.1.37-.37,0-.1,0-.39,0-.46s.14-.23.31-.23,1.27.1,1.56.13c.13,0,.3,0,.3.22s-.08.15-.2.24l-.09.08a.25.25,0,0,0,0,.15c0,.19.22.24.37.24h1.58l1.2,0c.48,0,.73.15.73.65,0,.32,0,.63,0,.93s.13.42.43.44.64,0,1,0,.34.2.34.64,0,.62-.34.62-.62,0-.94,0-.45.13-.45.44,0,.63,0,1a1.27,1.27,0,0,1,0,.2c0,.12,0,.16.1.24.3.23.59.49.87.72.1.09.29.22.29.37a.2.2,0,0,1-.22.19l-.1,0-.14,0a.3.3,0,0,0-.21.1c-.41.39-.73.69-1.16,1.06-.09.09-.15.15-.15.27a.33.33,0,0,0,.16.27,14,14,0,0,0,1.89,1.06c.13.07.33.18.33.35,0,.37-.6,1.13-1,1.13a5.72,5.72,0,0,1-1.44-.76,12.19,12.19,0,0,1-2.86-2.5.18.18,0,0,0-.15-.07c-.1,0-.14.1-.14.18v1c0,.37,0,.74,0,1.11,0,1.56-1.61,1.61-2.79,1.61-.29,0-.64,0-.77-.28a2.79,2.79,0,0,1-.19-.91c0-.2,0-.47.3-.47s.56,0,.91,0c.82,0,.79-.24.79-1.06Zm3.73-3.67a.29.29,0,0,0,.32-.32v-.17a.31.31,0,0,0-.32-.32h-1.7a.29.29,0,0,0-.32.32v.17a.29.29,0,0,0,.32.32Zm0,2a.31.31,0,0,0,.32-.32v-.18a.29.29,0,0,0-.32-.32h-1.7a.29.29,0,0,0-.32.32v.18a.31.31,0,0,0,.32.32Zm-1.14,1.19c-.12,0-.24.05-.24.19a.37.37,0,0,0,.05.17c.29.32.56.64.86.92a.47.47,0,0,0,.34.17.5.5,0,0,0,.31-.13c.34-.32.68-.66,1-1a.24.24,0,0,0,.05-.13c0-.12-.1-.15-.19-.17-.35,0-.7,0-1.06,0Z"/><path class="cls-1" d="M173.16,42.18c-.22.09-.23.17-.27.37-.1.62-.6,2.52-.79,3.16-.06.2-.11.42-.35.42s-1.06-.15-1.06-.45a2.42,2.42,0,0,1,.14-.51,15.42,15.42,0,0,0,.82-3.36c0-.13,0-.32.22-.32a9.86,9.86,0,0,1,1.06.24c.13,0,.4.08.4.27S173.25,42.15,173.16,42.18Zm0-4.31a.48.48,0,0,0-.2-.37A18.45,18.45,0,0,0,171.1,36c-.1-.07-.21-.14-.21-.27s.48-1.14.76-1.14a.62.62,0,0,1,.3.16.39.39,0,0,0,.22.09.29.29,0,0,0,.25-.19,18.15,18.15,0,0,0,1-2.5c0-.1.07-.24.2-.24a10.47,10.47,0,0,1,1.11.42l.14.05c.1.06.28.14.28.27s-.15.19-.28.21a.36.36,0,0,0-.24.18c-.4.92-.76,1.66-1.21,2.55a.45.45,0,0,0-.05.19.35.35,0,0,0,.14.27,2.39,2.39,0,0,1,.23.22.46.46,0,0,0,.27.11.33.33,0,0,0,.28-.18c.39-.66.78-1.31,1.13-2,.08-.17.1-.27.24-.27a7.44,7.44,0,0,1,1,.5l.27.14c.11.08.3.18.3.34s-.15.16-.32.2a.37.37,0,0,0-.29.16c-.72,1.18-1.44,2.37-2.26,3.5,0,0-.06.08-.06.13s.12.2.24.2l.74-.08c.18-.05.3-.1.3-.3a.33.33,0,0,0-.05-.15,2.6,2.6,0,0,1-.22-.56c0-.25.74-.48.93-.48a.38.38,0,0,1,.35.25c.37.79.72,1.56,1,2.25a3.62,3.62,0,0,1,.24.7c0,.32-.91.56-1,.56s-.3-.2-.39-.49l-.05-.17a.41.41,0,0,0-.38-.28h-.12l-.39.07c-.32.06-.42.21-.42.53v3.31c0,.73,0,1.45,0,2.17,0,.52-.17.54-.85.54s-.84,0-.84-.54c0-.72.06-1.44.06-2.17V41.14a.38.38,0,0,0-.39-.42h-.07l-1.22.14a.24.24,0,0,0-.22.18c-.07.1-.14.2-.25.2s-.21-.1-.29-.52c0-.13-.05-.28-.1-.47a8,8,0,0,1-.17-.79c0-.17.17-.18.5-.18h.22a3,3,0,0,0,.42,0,.73.73,0,0,0,.66-.39c.17-.23.3-.45.45-.69A.63.63,0,0,0,173.16,37.87Zm3.56,7.05c-.26,0-.33-.27-.4-.49a16.53,16.53,0,0,0-.86-2.35.76.76,0,0,1-.11-.33c0-.32.79-.49,1-.49s.47.52.81,1.39a14.37,14.37,0,0,1,.56,1.73C177.67,44.74,176.86,44.92,176.72,44.92Zm3.16-2.13c-.6,0-1.19,0-1.8,0-.45,0-.43-.2-.43-.8s0-.81.42-.81c.6,0,1.21,0,1.81,0h.25c.34,0,.48-.15.48-.47a7.29,7.29,0,0,0-.06-1.23,1,1,0,0,1,0-.17c0-.18.12-.23.28-.23s1.18.1,1.45.13.38,0,.38.22-.06.15-.2.25-.2.41-.18,1.06c0,.32.17.44.47.44h.47c.6,0,1.21,0,1.81,0,.44,0,.42.25.42.81s0,.8-.43.8c-.61,0-1.21,0-1.8,0h-.47c-.34,0-.47.13-.47.47v1.26c0,.33.13.47.47.47h1.09l1.71,0c.46,0,.42.25.42.82s0,.82-.42.82-1.14-.05-1.71-.05H179c-.57,0-1.12.05-1.69.05s-.44-.23-.44-.84,0-.8.42-.8L179,45h1.09c.34,0,.48-.14.48-.47V43.26c0-.34-.14-.47-.48-.47Zm-1.8-3.13c-.38,0-.9-.75-.9-1.12s.27-.29.47-.36A12.78,12.78,0,0,0,179.93,37a.4.4,0,0,0,.19-.3.56.56,0,0,0-.1-.29,11,11,0,0,1-1.33-2.26c-.05-.09-.08-.15-.19-.17l-.6,0c-.32,0-.3-.2-.3-.77s0-.79.3-.79c.54,0,1.06,0,1.6,0h4.55a.89.89,0,0,1,.75.28,1.37,1.37,0,0,1,.37.69,2,2,0,0,1-.3.76l-.07.11A11.49,11.49,0,0,1,183,36.61a.3.3,0,0,0-.14.26.29.29,0,0,0,.17.27,11.83,11.83,0,0,0,2.87,1.21c.19,0,.34.12.34.3,0,.39-.44,1.25-.86,1.25a1.88,1.88,0,0,1-.53-.14,12.12,12.12,0,0,1-3.1-1.59.53.53,0,0,0-.37-.14.67.67,0,0,0-.35.12A11.68,11.68,0,0,1,178.08,39.66Zm4.74-5.47c0-.15-.15-.17-.38-.17h-1.75c-.15,0-.3,0-.3.23a.42.42,0,0,0,.05.17,6.52,6.52,0,0,0,.72,1.13.42.42,0,0,0,.3.15.4.4,0,0,0,.3-.15A5.41,5.41,0,0,0,182.82,34.19Z"/><path class="cls-1" d="M193.74,33a.87.87,0,0,1-.18-.36c0-.32.89-.75,1.16-.75s.6.57.85,1a6.28,6.28,0,0,1,.68,1.23c0,.25-.41.45-.61.55s0,.07,0,.09,0,.06.08.06h1.55a.73.73,0,0,0,.74-.35,13.59,13.59,0,0,0,1.39-2.2c.05-.1.12-.25.24-.25s1.76.54,1.76.86c0,.15-.13.16-.27.16a.39.39,0,0,0-.3.14c-.28.4-.44.69-.89,1.29a.27.27,0,0,0,0,.15c0,.14.12.2.24.2h1.37c.44,0,.94.07.94.64,0,.21,0,.48,0,.79v1c0,.21,0,.49,0,.68,0,.35-.23.35-.87.35s-.86,0-.86-.34,0-.45,0-.67v-.59a.41.41,0,0,0-.47-.47h-9.68c-.34,0-.47.15-.47.47v.54c0,.22,0,.44,0,.67s-.28.34-.84.34-.85,0-.85-.35c0-.17,0-.47,0-.66v-1c0-.36,0-.59,0-.78,0-.62.52-.65,1-.65h1c.14,0,.25-.06.25-.23a.23.23,0,0,0,0-.15c-.25-.37-.5-.76-.77-1.13-.12-.15-.27-.32-.27-.45,0-.32.88-.76,1.14-.76s.56.44.79.78l.12.16a5.58,5.58,0,0,1,.72,1.21c0,.21-.25.36-.4.44a.08.08,0,0,0,0,.07c0,.05,0,.06.08.06h2.5s.24,0,.24-.2a.8.8,0,0,0,0-.15C194.36,34,194.08,33.5,193.74,33Zm2,8.87c0,.18.14.23.29.25h2.62l1.51,0c.51,0,1,.06,1,.68,0,.34,0,.68,0,1v1.74c0,.37,0,.91,0,1.18s-.22.37-.91.37-.91,0-.91-.44c0-.22-.1-.3-.3-.3h-7.39c-.2,0-.3.08-.3.3,0,.39-.17.39-.93.39s-.9,0-.9-.35.05-.81.05-1.18V43.8c0-.32,0-.66,0-1,0-.64.51-.7,1-.7l1.53,0h1.17c.41,0,.49-.1.68-.42,0-.12.11-.24.16-.35a.42.42,0,0,0,0-.15c0-.21-.15-.26-.32-.27h-.91c-.15,0-.2.1-.25.21s-.27.19-.82.19c-.71,0-.93,0-.93-.35s0-.79,0-1.16V38.79c0-.32,0-.64,0-1,0-.59.45-.67.94-.67l1.29,0h4.35l1.35,0c.5,0,1,.07,1,.69,0,.32,0,.62,0,.94v1.06c0,.37,0,.87,0,1.16s-.21.35-.94.35c-.5,0-.72,0-.79-.19s-.1-.21-.27-.21h-1.24a.59.59,0,0,0-.64.38c-.06.14-.11.27-.18.41A.42.42,0,0,0,195.72,41.9ZM198.93,45a.44.44,0,0,0,.47-.46V44a.47.47,0,0,0-.47-.46h-7.15a.44.44,0,0,0-.47.46v.6a.44.44,0,0,0,.47.46Zm-1.31-5.33a.46.46,0,0,0,.47-.47V39a.46.46,0,0,0-.47-.47H193.1a.47.47,0,0,0-.47.47v.25a.48.48,0,0,0,.47.47Z"/><rect class="cls-5" y="15" width="210" height="5"/><line class="cls-6" x1="30" y1="165.5" x2="180" y2="165.5"/><path class="cls-7" d="M105.22,142c-2.64-2.64-12.82-13.45-18-19.65-5.34-6.48-10.54-13.53-10.54-23.08A14.13,14.13,0,0,1,90.62,84.82c6.84,0,12.39,4,14.67,11.18h.07c2.34-7.55,8.12-11.18,14.66-11.18a14.12,14.12,0,0,1,13.89,14.45c0,9.55-5.19,16.6-10.53,23.08-5.13,6.2-15.39,17-18,19.65Z"/><polyline class="cls-7" points="81 112 90.92 112 94.76 101.73 100.5 123.36 106.25 104.19 108.99 113 140 113"/><path class="cls-8" d="M139.85,116.15a3.61,3.61,0,1,0-3.61-3.61,3.6,3.6,0,0,0,3.61,3.61"/><path class="cls-9" d="M35.35,184.37a2.78,2.78,0,1,1-2.77-2.77A2.77,2.77,0,0,1,35.35,184.37Z"/><path class="cls-9" d="M40,184.77c0-.73,0-1.21,0-1.78a9.32,9.32,0,0,1-1,1.68,3.91,3.91,0,0,0-.24-.53l-.14-.23s-.05-.07-.09-.15a11.32,11.32,0,0,0,1.8-3.39,10,10,0,0,0,.56-2l.93.28a5.1,5.1,0,0,0-.2.59,21.19,21.19,0,0,1-.79,2.2v6.7c0,.72,0,1.07,0,1.53h-1a12.55,12.55,0,0,0,.08-1.52Zm2.1-.57a5.43,5.43,0,0,0,.68,1.92,12.23,12.23,0,0,0,.52-2.57H42.1c-.36,0-.52,0-.91,0a17.15,17.15,0,0,0,1.89-3.38h-.71a3.37,3.37,0,0,0-.66.06v-.89a5,5,0,0,0,.74,0h.63a3.75,3.75,0,0,0,.68,0l.4.46a1.2,1.2,0,0,0-.16.34,19.91,19.91,0,0,1-1.41,2.63h.51a8.34,8.34,0,0,0,1.08,0,3.42,3.42,0,0,0-.09.61,16.28,16.28,0,0,1-.8,3.58c1,1.16,2.27,1.57,4.78,1.57.69,0,1.23,0,2.29-.12a2.66,2.66,0,0,0-.27.93c-.79,0-1.13.05-1.58.05-2.94,0-4.41-.44-5.56-1.64a8,8,0,0,1-1.36,2A2.54,2.54,0,0,0,41,189,6.49,6.49,0,0,0,42.4,187a9.83,9.83,0,0,1-1.16-2.51Zm4.16-3.94h-.69a8.12,8.12,0,0,0-.94,0v-.84a4.73,4.73,0,0,0,.94.07h.69v-.09a4.45,4.45,0,0,0-.06-.87h.93a5.51,5.51,0,0,0-.05.87v.09h1.44a8.64,8.64,0,0,0,.92,0,5.9,5.9,0,0,0,0,.82v.89h.09a3.87,3.87,0,0,0,.82-.06V182a5.17,5.17,0,0,0-.82-.06h-.09v1c0,.34,0,.51,0,.75l-.94,0H47.05v.89h1.41a8.51,8.51,0,0,0,1.13-.05v.84a10.33,10.33,0,0,0-1.14-.06h-1.4v1h1.8c.51,0,.87,0,1.2-.06v.87a10.43,10.43,0,0,0-1.2-.05h-1.8v.15a5.26,5.26,0,0,0,.06.89h-.94a4.44,4.44,0,0,0,.06-.88V187H44.94a8.77,8.77,0,0,0-1.14.05v-.86a10,10,0,0,0,1.14.05h1.29v-1h-.84a7.39,7.39,0,0,0-1.06.06v-.84a7.13,7.13,0,0,0,1.06.05h.84v-.89h-.79a7.63,7.63,0,0,0-.89,0v-.81a6.15,6.15,0,0,0,.91,0h.77v-1H45.1a6.92,6.92,0,0,0-1,0v-.87a7.1,7.1,0,0,0,1.2.06h1Zm2.34.94v-.94H47.05v.94ZM47.05,183h1.52v-1H47.05Z"/><path class="cls-9" d="M58.3,181.87H56.19a6.73,6.73,0,0,0-.95,0v-.84a7.22,7.22,0,0,0,.94,0H58.3a3.9,3.9,0,0,0-.06-.65h.95a5.93,5.93,0,0,0,0,.65h2.32a10.11,10.11,0,0,0,1,0,7,7,0,0,0,0,.88v.72h.34a3.61,3.61,0,0,0,.93-.07v.9a5.57,5.57,0,0,0-.94-.06h-.33v.78a6.09,6.09,0,0,0,0,.87c-.57,0-.61,0-.89,0H59.48a6.56,6.56,0,0,0,1.11,1.53,7,7,0,0,0,1.73-1.5l.78.51a12.75,12.75,0,0,1-1.91,1.55,8.84,8.84,0,0,0,2.6,1.57,4.25,4.25,0,0,0-.65.8,9.8,9.8,0,0,1-2.52-1.75,7.93,7.93,0,0,1-1.55-2.05c0,.22,0,.31,0,.53l0,.64v1.71c0,.8-.28,1-1.32,1-.28,0-.64,0-1.11-.05a3.58,3.58,0,0,0-.2-1,5.94,5.94,0,0,0,1.31.16c.41,0,.49-.06.49-.31v-1.12a21.33,21.33,0,0,1-3.15,1.44,3.18,3.18,0,0,0-.45.2l-.45-.91a6.69,6.69,0,0,0,1.09-.29,18.63,18.63,0,0,0,3-1.28v-1.43H56.11a6.9,6.9,0,0,0-1,.05v-.84a6.44,6.44,0,0,0,1,.05H58.3v-.88H55c-.12,0-.23,0-.59,0-.14,3.14-.44,4.63-1.26,6.18a3.71,3.71,0,0,0-.75-.73,7.94,7.94,0,0,0,.76-2.28,32.58,32.58,0,0,0,.4-5.85,9.58,9.58,0,0,0-.07-1.44,10.31,10.31,0,0,0,1.44.07H58v-.28a3.47,3.47,0,0,0-.06-.78H59a2.71,2.71,0,0,0-.07.79v.27h3.39a8.61,8.61,0,0,0,1.32-.08v.93a8.16,8.16,0,0,0-1.15-.06h-8c0,1.13,0,1.39,0,2.43a2.46,2.46,0,0,0,.54,0H58.3Zm-2.5,3.34a7.66,7.66,0,0,1,1.6,1.24l-.59.58a7.11,7.11,0,0,0-1.62-1.3Zm5.81-3.34H59.14v.81h2.47Zm-2.47,1.58v.88h2.47v-.88Z"/><path class="cls-9" d="M69.9,185.61H68.83V182.5H66.42v-1h2.41v-2.39H69.9v2.39h3.62v-2.46h1.07v2.46h2.48v1H74.59v.64c0,3.71-1.52,5.36-4.49,6.24l-.52-.94c2.89-.82,3.94-2.13,3.94-5.37v-.57H69.9Z"/><path class="cls-9" d="M79.94,187.57a10.55,10.55,0,0,0,2-3.95l1,.31a12.53,12.53,0,0,1-2.12,4.21Zm9.23-6.49a1.42,1.42,0,0,1-1.06-1.39,1.49,1.49,0,1,1,1.65,1.46v.92H85.84v6c0,1-.48,1.27-1.43,1.27a8.23,8.23,0,0,1-1.34-.11l-.13-1a7.34,7.34,0,0,0,1.39.14c.33,0,.47-.09.47-.42v-5.91H80.58v-1H84.8v-2.25h1v2.25h3.33Zm-.81,2.45a17.7,17.7,0,0,1,2.16,4l-1.06.48a17.39,17.39,0,0,0-1.95-4Zm.41-3.84a.8.8,0,0,0,.82.83.83.83,0,1,0,0-1.66A.8.8,0,0,0,88.77,179.69Z"/><path class="cls-9" d="M104,183.5v1.11h-10V183.5Z"/><path class="cls-9" d="M111.62,182.58a24.46,24.46,0,0,1,5.13,2.25l-.5,1a26.86,26.86,0,0,0-4.63-2.21v5.65h-1.1V178.93h1.1Z"/><path class="cls-9" d="M35.35,203.27a2.78,2.78,0,1,1-2.77-2.77A2.77,2.77,0,0,1,35.35,203.27Z"/><path class="cls-9" d="M41.44,198.17a3.69,3.69,0,0,0-.07-.84h1a3.44,3.44,0,0,0-.08.83v.19h1.39a7.62,7.62,0,0,0,1-.06v.88a7.68,7.68,0,0,0-1,0H40a6.29,6.29,0,0,0-1,0v-.88a5.45,5.45,0,0,0,1,.06h1.44Zm6.9,6.14h.37a6.2,6.2,0,0,0,1.1-.06v.93a6.22,6.22,0,0,0-1.1-.07h-.37v2.06H49a6.77,6.77,0,0,0,1.16-.06v1A7.9,7.9,0,0,0,49,208H46.14v.6h-.9a13.19,13.19,0,0,0,.06-1.39V202a9.4,9.4,0,0,1,0-1,6.81,6.81,0,0,1-.63,1,2.75,2.75,0,0,0-.52-.61v.69c0,.29,0,.52,0,.78-.4,0-.64,0-.94,0h-.92c-.09.45-.1.47-.15.74h1.21a9,9,0,0,0,1.18,0,8.71,8.71,0,0,0-.05,1.08v2.88c0,.79-.28,1-1.42,1-.23,0-.37,0-.85,0a2.48,2.48,0,0,0-.19-.87,6.35,6.35,0,0,0,1.19.12c.36,0,.44-.05.44-.3v-3.09H42c-.27,1-.33,1.18-.49,1.66.58-.09.82-.12,1-.18a5,5,0,0,0-.38-.78l.64-.25a10.63,10.63,0,0,1,.84,2l-.68.32c-.09-.32-.11-.42-.19-.66a18.39,18.39,0,0,1-2,.41,3.51,3.51,0,0,0-.42.08l-.18-.83h.15l.4,0c.2-.58.32-1,.5-1.75H40.12v3a8.85,8.85,0,0,0,.05,1.3h-1a11.17,11.17,0,0,0,.06-1.31v-2.47a11.46,11.46,0,0,0-.05-1.26,10.44,10.44,0,0,0,1.16,0h1c.08-.33.08-.38.15-.74h-1c-.41,0-.64,0-1,0a5.69,5.69,0,0,0,0-.86v-1.66a5.78,5.78,0,0,0-.07-.89h.9a5.34,5.34,0,0,0,0,.81v1.9h3.06v-1.9a4.82,4.82,0,0,0-.05-.8h.87a4.68,4.68,0,0,0-.05.8v1.05A9.24,9.24,0,0,0,46,197.22l.94.24c-.09.21-.09.21-.31.84-.15.4-.24.63-.39,1h1.32a8.27,8.27,0,0,0,.72-2l.87.24c0,.15-.09.24-.12.32-.2.49-.4,1-.63,1.4h.46a6.08,6.08,0,0,0,1.27-.08v.95a9.33,9.33,0,0,0-1.27,0h-.49v1.68h.37a5.55,5.55,0,0,0,1.1-.06v.92a7.26,7.26,0,0,0-1.1-.06h-.37Zm-5.61-2.46-.73-.74a8.05,8.05,0,0,1-1.09.81,2,2,0,0,0-.49-.54,6.53,6.53,0,0,0,1.06-.73,9.73,9.73,0,0,0-.9-.69l.48-.47c.52.37.67.5.92.69a4.35,4.35,0,0,0,.67-.86l.58.48c-.29.35-.4.48-.73.82.28.25.37.34.71.66Zm4.8-1.73H46.16v1.68h1.37Zm-1.37,2.48v1.71h1.37V202.6Zm0,4.57h1.37v-2.06H46.16Z"/><path class="cls-9" d="M53,198.63a3.3,3.3,0,0,0-.64.06v-.94a6.67,6.67,0,0,0,.92.06h2.11a5.5,5.5,0,0,0,.93-.05v.91a2.32,2.32,0,0,0-.45,0v8.72a8.54,8.54,0,0,0,.06,1.28H55a9.91,9.91,0,0,0,.07-1.3V206.2l-.24.08-1.47.43c-.51.14-.7.19-.88.26l-.24-.94a3.89,3.89,0,0,0,.78-.13Zm.84,1.8h1.21v-1.8H53.88Zm0,2.43h1.21V201.2H53.88Zm0,2.85c.45-.1.68-.17,1.21-.33v-1.75H53.88Zm5.5-7.08a5.14,5.14,0,0,0,.94,0v.8a3.78,3.78,0,0,0-.49,0,15.28,15.28,0,0,1-.38,1.59H60.7c0-.73,0-1.1-.06-2.65a4.62,4.62,0,0,0,0-.84h1a9.43,9.43,0,0,0,0,1.41c0,.72,0,1.43,0,2.08h.84a6.73,6.73,0,0,0,1.36-.08v1a10.4,10.4,0,0,0-1.36-.06h-.82a15.84,15.84,0,0,0,.36,2.79,8.14,8.14,0,0,0,.83-2.2l.77.49c-.08.15-.14.3-.31.72a12.52,12.52,0,0,1-1,2,7.74,7.74,0,0,0,.51,1.19c.14.26.31.49.39.49a3.86,3.86,0,0,0,.27-1.74,3,3,0,0,0,.76.51,6.37,6.37,0,0,1-.34,1.73c-.15.34-.36.52-.64.52-.52,0-1.07-.67-1.55-1.85a10.55,10.55,0,0,1-2.23,2.08,2.78,2.78,0,0,0-.61-.66,8.79,8.79,0,0,0,2.54-2.33,16.08,16.08,0,0,1-.55-3.78H57a4.27,4.27,0,0,0-.79.06v-.93a4.44,4.44,0,0,0,.78,0h.28a11.29,11.29,0,0,0-.28-1.6l-.58,0v-.8a5.67,5.67,0,0,0,.87,0H58v-.15a4.52,4.52,0,0,0-.08-1h1a5.6,5.6,0,0,0-.07,1.05v.14Zm.63,7.61c0,.14,0,.51,0,.66a8.22,8.22,0,0,0-1,0H57.51v.92h-.84a9.2,9.2,0,0,0,.07-1.12v-3.08a9.25,9.25,0,0,0-.05-1.14,7.75,7.75,0,0,0,.84,0h1.68c.39,0,.55,0,.84,0a8,8,0,0,0,0,1.14v2.65Zm-2.49-2h1.71v-1H57.52Zm0,1.85h1.71V205H57.52Zm1.2-5.17a9.29,9.29,0,0,0,.35-1.6H57.7A15.43,15.43,0,0,1,58,201Zm3.78-2.85a9.42,9.42,0,0,1,1.08,1.79l-.7.46a7.56,7.56,0,0,0-1.05-1.83Z"/><path class="cls-9" d="M66.67,198.73c0-.35,0-.74,0-1a6.9,6.9,0,0,0,.89,0h1.86a3.75,3.75,0,0,0,.76-.05l.46.59a.23.23,0,0,0,0,.12l0,.1c0,.1,0,.12-.13.3a13.75,13.75,0,0,1-1.3,2.63,4.37,4.37,0,0,1,1.16,2,3.32,3.32,0,0,1,.13,1,1.23,1.23,0,0,1-.63,1.21,3.21,3.21,0,0,1-1.17.16h-.35a2.35,2.35,0,0,0-.21-.91,4.27,4.27,0,0,0,.78.08c.47,0,.66-.18.66-.63a3.69,3.69,0,0,0-.29-1.3,4.88,4.88,0,0,0-1.05-1.45,12.5,12.5,0,0,0,1.38-3h-1.9v8.77a9.81,9.81,0,0,0,.07,1.23H66.59a8.48,8.48,0,0,0,.08-1.24Zm4.6,1.57a6.81,6.81,0,0,0-1.06.07v-1a9.42,9.42,0,0,0,1.17.07h1.69v-1a5,5,0,0,0-.08-.95h1.07a7.71,7.71,0,0,0-.06.95v1h2.14a7.1,7.1,0,0,0,1.3-.08v1a8.71,8.71,0,0,0-1.28-.07H72.93c0,.19,0,.19,0,.61,0,.25,0,.5,0,1H75.5a7.18,7.18,0,0,0,1.08-.05c0,.23,0,.29,0,.86a26.16,26.16,0,0,1-.42,4.51c-.24.86-.65,1.12-1.66,1.12-.41,0-.84,0-1.63-.08a3,3,0,0,0-.21-1,12.35,12.35,0,0,0,1.67.13c.65,0,.8-.11,1-.8a23.44,23.44,0,0,0,.34-3.89h-2.8a9.43,9.43,0,0,1-1.12,3.61,6.74,6.74,0,0,1-2.11,2.21,2.89,2.89,0,0,0-.76-.76,5.56,5.56,0,0,0,2.69-3.28A13.37,13.37,0,0,0,72,200.3Z"/><path class="cls-9" d="M89.45,207.14a11.15,11.15,0,0,0,1.4-.08v1.08a11.06,11.06,0,0,0-1.4-.08H81.33a11.8,11.8,0,0,0-1.46.08v-1.08a11.72,11.72,0,0,0,1.46.08H82v-6a10.88,10.88,0,0,0-.07-1.36h1.16a10.09,10.09,0,0,0-.08,1.35v6h2.41v-8.26a7,7,0,0,0-.08-1.32h1.15a9.81,9.81,0,0,0-.07,1.32v2.72h2.39a10,10,0,0,0,1.32-.07v1.07a10.64,10.64,0,0,0-1.32-.08H86.39v4.62Z"/><path class="cls-9" d="M35.35,222.17a2.78,2.78,0,1,1-2.77-2.77A2.77,2.77,0,0,1,35.35,222.17Z"/><path class="cls-9" d="M38.76,225a8.29,8.29,0,0,0,1-2.17,14.83,14.83,0,0,0,.58-2.76l1,.24a19.8,19.8,0,0,1-.65,2.93,9.85,9.85,0,0,1-.93,2.33Zm4.48.73c0,.35.28.43,1.59.43s1.63-.09,1.79-.35a6.87,6.87,0,0,0,.32-2.52,4.1,4.1,0,0,0,1,.36,7.09,7.09,0,0,1-.48,2.74c-.3.59-.79.72-2.71.72-2.13,0-2.49-.17-2.49-1.14v-5.9a9.32,9.32,0,0,0-.09-1.2h1.17a7.43,7.43,0,0,0-.09,1.18Zm3.07-6.72a16.42,16.42,0,0,0-4.05-2l.56-.82a20,20,0,0,1,4.12,1.92Zm3.07,6.23a17.53,17.53,0,0,0-2-4.87l.91-.44a21.36,21.36,0,0,1,2.11,4.78Z"/><path class="cls-9" d="M53.49,217.78a5.39,5.39,0,0,0-1,.06v-1a5.91,5.91,0,0,0,1.07.08h1.84a4.76,4.76,0,0,0,1-.08v1a6.52,6.52,0,0,0-.93-.05H55v2.76h.44a3.83,3.83,0,0,0,.8-.06v.92a5.05,5.05,0,0,0-.8-.05H55v2.93c.5-.21.73-.31,1.38-.64l0,.92A30.51,30.51,0,0,1,53.2,226a4.42,4.42,0,0,0-.5.21l-.27-1a9.17,9.17,0,0,0,1.65-.5v-3.3H53.5a4.2,4.2,0,0,0-.83.06v-.93a4.3,4.3,0,0,0,.84.06h.57v-2.76Zm6,6.79H58a7.05,7.05,0,0,0-1.21.07v-.95a7.09,7.09,0,0,0,1.21.06h1.55v-1.32H58.3a13.52,13.52,0,0,0-1.51,0,9.36,9.36,0,0,0,.05-1.45v-2.67a12.53,12.53,0,0,0-.06-1.59,12.61,12.61,0,0,0,1.61.06h3.29a11.07,11.07,0,0,0,1.59-.06c0,.37-.05.86-.05,1.59v2.52a14.88,14.88,0,0,0,.05,1.6,14.24,14.24,0,0,0-1.44,0H60.42v1.32h1.75a8,8,0,0,0,1.24-.06v.95a8,8,0,0,0-1.24-.07H60.42v1.67h2.2a6.62,6.62,0,0,0,1.24-.07v1a8.94,8.94,0,0,0-1.29-.06H57.15a8.88,8.88,0,0,0-1.27.06v-1a6.15,6.15,0,0,0,1.2.07h2.46Zm-1.83-6.92v1.59h1.83v-1.59Zm0,2.4v1.57h1.83v-1.57Zm2.71-.81h1.91v-1.59H60.42Zm0,2.38h1.91v-1.57H60.42Z"/><path class="cls-9" d="M70.66,220.46a9.15,9.15,0,0,0,2.07-4.2l1,.18a5.29,5.29,0,0,0-.18.51c-.11.33-.28.77-.43,1.16H76a7.11,7.11,0,0,0,1.07-.05,6.59,6.59,0,0,0,0,.84c-.09,4.46-.24,6.27-.62,7.39-.25.75-.67,1-1.6,1a13.64,13.64,0,0,1-1.5-.08,3.6,3.6,0,0,0-.24-1,9.09,9.09,0,0,0,1.65.2c.57,0,.69-.09.85-.54a14.76,14.76,0,0,0,.41-3.11c.06-1,.08-1.89.1-3.75H72.73a10.72,10.72,0,0,1-1.4,2.21,2.81,2.81,0,0,0-.67-.73v5.1c0,.52,0,.95,0,1.26h-.94v-.78H67.55v1.09h-1a11,11,0,0,0,.07-1.53v-6.31a10.81,10.81,0,0,0,0-1.2c.25,0,.58,0,1.11,0h.23a8.63,8.63,0,0,0,.54-1.86l1,.18c-.23.69-.37,1.05-.63,1.68h.77l1.07,0c0,.3,0,.64,0,1.08Zm-3.13,1.1h2.24V219H67.53Zm0,3.67h2.24v-2.84H67.53Zm6.36-1.11A12,12,0,0,0,72.1,221l.75-.44a13.58,13.58,0,0,1,1.89,3.07Z"/><path class="cls-9" d="M88.19,221.62a7.48,7.48,0,0,1-1.75,3,36.33,36.33,0,0,1,4.09,1.93l-.73.83a25.25,25.25,0,0,0-4.06-2.12,6.84,6.84,0,0,1-1.32.87,15.7,15.7,0,0,1-3.93,1.32,3.46,3.46,0,0,0-.52-.94,14.94,14.94,0,0,0,3.38-.89,7.13,7.13,0,0,0,1.41-.75,25.73,25.73,0,0,0-3.37-1A15.91,15.91,0,0,0,83,221.62h-1.7a8.63,8.63,0,0,0-1.27.08v-1a7,7,0,0,0,1.27.07h2.18a8.19,8.19,0,0,0,.81-1.93l1,.21-.22.47-.45.95-.15.3h5a7.24,7.24,0,0,0,1.28-.07v1a8.78,8.78,0,0,0-1.28-.08Zm-3.47-4.32a6.08,6.08,0,0,0-.07-1h1.11a5.64,5.64,0,0,0-.07,1v.29h3.48a11.17,11.17,0,0,0,1.35-.06,6.93,6.93,0,0,0,0,.94v.77a4.89,4.89,0,0,0,.06.87h-1v-1.65H81.11v1.65h-1a5.94,5.94,0,0,0,.06-.87v-.77a7,7,0,0,0-.06-.94,11.17,11.17,0,0,0,1.35.06h3.25Zm-.7,4.32a16.08,16.08,0,0,1-1.16,1.83c1.16.34,2,.59,2.66.86a6.57,6.57,0,0,0,.88-1,6.13,6.13,0,0,0,.78-1.66Z"/><path class="cls-9" d="M96.57,221.46a7.83,7.83,0,0,0-1.21.06v-.94a15.46,15.46,0,0,1-1.59.88,3,3,0,0,0-.62-.89,12.7,12.7,0,0,0,3.07-1.82,8.84,8.84,0,0,0,2.07-2.33h1.15a9.42,9.42,0,0,0,2.34,2.42,12.63,12.63,0,0,0,3,1.69,4.07,4.07,0,0,0-.6,1,17.14,17.14,0,0,1-3.08-1.93,10.5,10.5,0,0,1-2.24-2.33,9.35,9.35,0,0,1-1.75,2,15.42,15.42,0,0,1-1.73,1.31,8.14,8.14,0,0,0,1.08.05h4.8a7.15,7.15,0,0,0,1.14-.06v1a7.8,7.8,0,0,0-1.17-.06H99.33v1.75h2.21a7.54,7.54,0,0,0,1.2-.06v1a6.45,6.45,0,0,0-1.2-.07H99.33v2.06h3.59a10.75,10.75,0,0,0,1.41-.08v1.06a9.63,9.63,0,0,0-1.41-.09H95a9.63,9.63,0,0,0-1.41.09v-1.06a10.49,10.49,0,0,0,1.44.08h3.39v-2.06h-2a6.64,6.64,0,0,0-1.21.07v-1a8,8,0,0,0,1.21.06h2v-1.75Z"/><path class="cls-9" d="M106.79,221.88a10.9,10.9,0,0,0,.56-3.24l.77.12a13.61,13.61,0,0,1-.58,3.41Zm1.59,5.67a9.54,9.54,0,0,0,.09-1.46v-8.6a7.16,7.16,0,0,0-.09-1.27h1.1a9.7,9.7,0,0,0-.08,1.27v8.66a11.27,11.27,0,0,0,.08,1.4Zm1.79-7.05a6.75,6.75,0,0,0-.54-1.88l.64-.27a10.18,10.18,0,0,1,.6,1.86Zm1.93-.72a9.11,9.11,0,0,1-1,2.26,6.94,6.94,0,0,0-.83-.48,8,8,0,0,0,1.38-3.34,5.33,5.33,0,0,0,.12-1.11l1,.18a2.24,2.24,0,0,0-.08.31c0,.29-.19.94-.28,1.33h1.43v-1.41a8.11,8.11,0,0,0-.09-1.26h1.1a6.77,6.77,0,0,0-.09,1.26v1.41h1.8a7.79,7.79,0,0,0,1.3-.08v1a11,11,0,0,0-1.29-.08H114.7v2.45h1.57a6.47,6.47,0,0,0,1.28-.08v1a8.74,8.74,0,0,0-1.29-.08H114.7v3.05h2a10.49,10.49,0,0,0,1.38-.07v1a9.59,9.59,0,0,0-1.38-.09h-5a9.69,9.69,0,0,0-1.38.09v-1a10.59,10.59,0,0,0,1.38.07h2.13v-3.05h-1.29a8.88,8.88,0,0,0-1.28.08v-1a5.68,5.68,0,0,0,1.19.08h1.38v-2.45Z"/><path class="cls-9" d="M35.35,241.07a2.78,2.78,0,1,1-2.77-2.77A2.77,2.77,0,0,1,35.35,241.07Z"/><path class="cls-9" d="M47.76,236.28a17.5,17.5,0,0,1-2,4.43,20.68,20.68,0,0,1,2.5,2.29l-.75.85a23.54,23.54,0,0,0-2.38-2.25,13.85,13.85,0,0,1-4.94,4.09l-.65-.83a13.66,13.66,0,0,0,4.72-3.94,22,22,0,0,0-2.81-1.84l.58-.79A23.37,23.37,0,0,1,44.83,240a16,16,0,0,0,1.85-4.11Z"/><path class="cls-9" d="M52.83,236.54a16.69,16.69,0,0,1,3,2.42l-.82.86a16.54,16.54,0,0,0-2.85-2.56Zm-.43,8c3.85-.84,6.75-3,8.12-6.65l1,.58c-1.46,3.93-4.65,6.19-8.77,7.08Z"/><path class="cls-9" d="M64.61,245.23a11.48,11.48,0,0,0,4.44-2.86,15,15,0,0,0-2.52-2l.56-.68a10.48,10.48,0,0,1,2.63,1.9,12.85,12.85,0,0,0,1.85-3.51H67.23a12.6,12.6,0,0,1-2.71,2.85l-.75-.61a12.4,12.4,0,0,0,3.83-5l1,.33a12.76,12.76,0,0,1-.79,1.51h4.26l.66.68a12.33,12.33,0,0,1-7.45,8.36Z"/><path class="cls-9" d="M78.6,236.35v2.81a7.66,7.66,0,0,1-2.8,6.49l-.74-.74c1.74-1.3,2.44-3.09,2.44-5.83v-2.73Zm3.48-.35v8.22a9.35,9.35,0,0,0,3.75-3l.68.85a11.42,11.42,0,0,1-4.94,3.52l-.59-.47V236Z"/><path class="cls-9" d="M87.21,241.51a25.44,25.44,0,0,0,3-3.18,1.25,1.25,0,0,1,1-.54,1.29,1.29,0,0,1,1,.48A41.24,41.24,0,0,0,98,243.41l-.77,1a47.44,47.44,0,0,1-5.72-5.38.39.39,0,0,0-.28-.16c-.09,0-.16.06-.25.16a33.24,33.24,0,0,1-3.06,3.29Z"/><path class="cls-9" d="M102.59,236.35v2.81a7.66,7.66,0,0,1-2.8,6.49l-.74-.74c1.74-1.3,2.44-3.09,2.44-5.83v-2.73Zm3.48-.35v8.22a9.42,9.42,0,0,0,3.75-3l.68.85a11.42,11.42,0,0,1-4.94,3.52l-.59-.47V236Z"/><path class="cls-9" d="M120.66,245.77a23.24,23.24,0,0,0-3.54-3.83,15.39,15.39,0,0,1-5,3.73l-.67-.85a13.27,13.27,0,0,0,7.12-7.33h-6v-1h6.66l.64.76a15.35,15.35,0,0,1-2.17,3.94,22.71,22.71,0,0,1,3.91,3.82Z"/><path class="cls-9" d="M35.35,260a2.78,2.78,0,1,1-2.77-2.77A2.77,2.77,0,0,1,35.35,260Z"/><path class="cls-9" d="M49,256.31a10.34,10.34,0,0,1-6.85,8.48l-.58-.94a9.32,9.32,0,0,0,6.22-7.14H40.24v-1h8.15Z"/><path class="cls-9" d="M61.42,259.1v1.11h-10V259.1Z"/><path class="cls-9" d="M67.35,258.18a24.68,24.68,0,0,1,5.13,2.25l-.51,1a26.44,26.44,0,0,0-4.62-2.21v5.66h-1.1V254.53h1.1Zm3.17-3a8.61,8.61,0,0,1,1.35,2l-.73.41a8,8,0,0,0-1.3-2.08Zm1.36-.69a8.27,8.27,0,0,1,1.4,2l-.73.39a8.47,8.47,0,0,0-1.32-2Z"/><path class="cls-9" d="M74.93,258.3h10v.95H80.6a6.16,6.16,0,0,1-3.53,5.83l-.72-.87a5.26,5.26,0,0,0,3.16-5H74.93Zm1.17-3h7v1h-7Zm7.7-1.16a9.64,9.64,0,0,1,1,2.22l-.79.29a9.13,9.13,0,0,0-1-2.25Zm1.47-.51a8.84,8.84,0,0,1,1.13,2.18l-.79.3a7.41,7.41,0,0,0-1.06-2.21Z"/><path class="cls-9" d="M88.9,255.05H90v5.61H88.9Zm6.31-.15v4.32A5.61,5.61,0,0,1,91.13,265l-.58-.92a4.68,4.68,0,0,0,3.53-5V254.9Z"/><path class="cls-9" d="M98.29,263.34a15.62,15.62,0,0,0,3-7.17l1.11.26A17.34,17.34,0,0,1,99.25,264Zm7.74-7.41a30,30,0,0,1,3.48,7.55l-1.14.49a31,31,0,0,0-3.27-7.6Zm1.25-2a9.79,9.79,0,0,1,1,2.21l-.79.3a9,9,0,0,0-1-2.27Zm1.46-.53a9,9,0,0,1,1.13,2.18l-.79.3a7.23,7.23,0,0,0-1.06-2.2Z"/><path class="cls-9" d="M112.67,255.05h1.12v5.61h-1.12Zm6.3-.15v4.32A5.61,5.61,0,0,1,114.9,265l-.58-.92a4.69,4.69,0,0,0,3.53-5V254.9Z"/><path class="cls-9" d="M132.7,259.1v1.11h-10V259.1Z"/></g></g></svg>