<svg version="1.1" xmlns="http://www.w3.org/2000/svg" xmlns:xlink="http://www.w3.org/1999/xlink" x="0" y="0" width="650" height="339.9" viewBox="0 0 650 339.9" xml:space="preserve"><path fill="#FFF" d="M0 0h650v340H0z"/><g fill="#67625D"><path d="M1 298H0v42h43v-1H1zM650 298h-1v41h-42v1h43zM43 0H0v42h1V1h42zM1 170h42v1H1zM607 170h42v1h-42zM163 0h1v42h-1zM163 298h1v42h-1zM165 170h-42v1h42v-1zm41 0h-42v1h42v-1z"/><path d="M165 128h-1v83h1V169.3zM325 0h1v42h-1zM325 298h1v42h-1zM327 170h-42v1h42v-1zm41 0h-42v1h42v-1z"/><path d="M327 128h-1v83h1V169.3zM487 0h1v42h-1zM487 298h1v42h-1zM489 170h-42v1h42v-1zm42 0h-42v1h42v-1z"/><path d="M490 128h-1v83h1V169.3z"/></g><g><path fill="#FFF" d="M70.1 201h26.6v33.6H70.1z"/><path fill="#241916" d="M96.8 234.6v.5H70.1l-.3-.1-.2-.4V201l.2-.4.3-.2h26.7l.4.2.1.4v33.6l-.1.4-.4.1v-.5h-.6v-33.1H70.7V234h26.1v.6h-.6z"/><path fill="#241916" d="M75 209.3l-1.9-1.7.9-.9 1 .9 2.4-2.5.9.9zM79.5 206.6h14.2v1.1H79.5zM75 216.3l-1.9-1.7.9-.9 1 .9 2.4-2.4.9.9zM79.5 213.7h14.2v1.1H79.5zM75 223.4l-1.9-1.7.9-1 1 .9 2.4-2.4.9.9zM79.5 220.7h14.2v1.1H79.5zM75 230.4l-1.9-1.7.9-.9 1 .9 2.4-2.4.9.8zM79.5 227.8h14.2v1.1H79.5z"/><path fill="#FFF" d="M414 233v-3h-4.2v-10.2c4.2-1.6 7.2-8.4 8-12.7.4-2.4.5-7.7.5-7.7h-20.5s.1 5.3.5 7.7c.8 4.2 3.8 11.2 8 12.7V230h-4.2v3H397v3.2h22.1V233H414z"/><path fill="#241916" d="M414 233h-.6v-2.4h-4.2v-11.1l.4-.1c1.9-.7 3.6-2.7 5-5.1 1.3-2.4 2.3-5.1 2.6-7.2.2-1.1.3-3.1.4-4.7.1-1.6.1-2.9.1-2.9h.6v.6h-20.5v-.6h.6s0 1.3.1 2.9c.1 1.6.2 3.5.4 4.7.4 2.1 1.3 4.8 2.7 7.2 1.3 2.4 3.1 4.4 5 5.1l.4.1v11.1h-4.2v3h-5.1v2h21v-2h-5.1v-.6h.4v-.6h5.7v4.3h-23.2v-4.3h5.1v-3h4.2v-9.6h.6l-.2.5c-2.3-.9-4.2-3.1-5.6-5.6-1.4-2.5-2.4-5.3-2.8-7.5-.5-2.5-.5-7.8-.5-7.8v-.6h21.6v.6s-.1 5.3-.5 7.8c-.4 2.2-1.4 5-2.8 7.5s-3.3 4.7-5.6 5.6l-.2-.5h.6v9.6h4.2v3.5h-.6v-.6.7z"/><path fill="#241916" d="M405.4 216.3c-2.1-2.1-4-6.1-4.6-9.6-.2-1-.3-2.5-.4-3.9 0-.5.3-.8.8-.9.5 0 .8.3.9.8.1 1.4.2 2.9.3 3.7.5 3.1 2.5 7 4.2 8.7.3.3.3.8 0 1.2-.4.3-.9.3-1.2 0"/><path fill="#FFF" d="M230 26.8h31.6v35.7H230z"/><path fill="#241916" d="M261.5 62.4v.6h-32.1V26.2h32.7V63h-.6v-.6h-.5V27.3h-30.5v34.6h31v.5h-.5z"/><path fill="#241916" d="M251.7 39.4h7.3v1.1h-7.3zM232.6 39.4H250v13.1h-17.4zM251.7 41.8h7.3v1.1h-7.3zM251.7 44.2h7.3v1.1h-7.3zM251.7 46.6h7.3v1.1h-7.3zM251.7 49h7.3v1.1h-7.3zM251.7 51.4h7.3v1.1h-7.3zM232.6 53.8H259v1.1h-26.4zM232.6 56.2H259v1.1h-26.4zM232.6 58.6H259v1.1h-26.4zM235.1 31.1h1.2l2 3.6v-3.6h1v5.2h-1l-2.2-3.7v3.7h-1zM244.5 32h-2.8v1.1h2.5v.9h-2.5v1.4h2.9v.9h-4v-5.2h3.9zM246.4 31.1l.7 3 .1.8.2-.8.6-3h1.1l.6 3 .2.8.2-.8.7-3h1.1l-1.5 5.2h-1l-.7-3-.2-1.1-.1 1.1-.7 3h-1l-1.5-5.2zM253.4 34.7c0 .2.1.4.2.5.2.2.5.3.9.3.3 0 .5 0 .6-.1.3-.1.5-.3.5-.6l-.2-.4c-.2-.1-.4-.2-.7-.2l-.6-.1c-.6-.1-.9-.3-1.1-.4-.4-.2-.5-.6-.5-1.1 0-.5.2-.9.5-1.2.3-.3.8-.5 1.5-.5.6 0 1 .1 1.4.4.4.3.6.7.6 1.3h-1c0-.3-.2-.5-.4-.7-.2-.1-.4-.1-.6-.1-.3 0-.5.1-.7.2-.2.1-.3.3-.3.5s.1.3.3.4c.1.1.3.1.7.2l.9.2c.4.1.7.2.9.4.3.2.5.6.5 1.1 0 .5-.2.9-.6 1.2-.4.3-.9.5-1.6.5-.7 0-1.2-.2-1.6-.5-.4-.3-.6-.7-.6-1.3h1z"/><path fill="#FFF" d="M550.5 26.9h39.6v20.8h-39.6z"/><path fill="#241916" d="M590.2 47.7v.6h-39.7l-.4-.2-.1-.4V26.9l.1-.4.4-.2h39.7l.3.2.2.4v20.8l-.2.4-.3.2v-.6h-.6V27.4h-38.5v19.8h39.1v.5h-.6z"/><path fill="#241916" d="M553.4 30.5h33.9v2.8h-33.9zM553.4 35.9h33.9v2.8h-33.9zM553.4 41.3h33.9v2.8h-33.9z"/><path fill="#FFF" d="M556.4 48.8c0 1.4-1.1 2.5-2.5 2.5s-2.5-1.1-2.5-2.5 1.1-2.5 2.5-2.5c1.3 0 2.5 1.1 2.5 2.5"/><path fill="#241916" d="M556.4 48.8h.6c0 1.7-1.4 3.1-3.1 3.1-1.7 0-3.1-1.4-3.1-3.1 0-1.7 1.4-3.1 3.1-3.1 1.7 0 3.1 1.4 3.1 3.1h-1.2c0-1.1-.9-2-1.9-2-1.1 0-2 .9-2 2s.9 1.9 2 2c1.1 0 1.9-.9 1.9-2h.6z"/><path fill="#FFF" d="M553.8 52c-1.4 0-2.5 1.1-2.5 2.5v7.8h5v-7.8c.1-1.4-1.1-2.5-2.5-2.5"/><path fill="#241916" d="M553.8 52v.6c-1.1 0-1.9.9-2 1.9v7.3h3.9v-7.3c0-1.1-.9-1.9-1.9-1.9v-1.2c1.7 0 3.1 1.4 3.1 3.1v7.8l-.2.4-.4.2h-5l-.4-.2-.2-.4v-7.8c0-1.7 1.4-3.1 3.1-3.1v.6z"/><path fill="#FFF" d="M564.4 48.8c0 1.4-1.1 2.5-2.5 2.5s-2.5-1.1-2.5-2.5 1.1-2.5 2.5-2.5 2.5 1.1 2.5 2.5"/><path fill="#241916" d="M564.4 48.8h.6c0 1.7-1.4 3.1-3.1 3.1-1.7 0-3.1-1.4-3.1-3.1 0-1.7 1.4-3.1 3.1-3.1 1.7 0 3.1 1.4 3.1 3.1h-1.2c0-1.1-.9-2-1.9-2-1.1 0-2 .9-2 2s.9 1.9 2 2c1.1 0 1.9-.9 1.9-2h.6z"/><path fill="#FFF" d="M561.9 52c-1.4 0-2.5 1.1-2.5 2.5v7.8h5v-7.8c0-1.4-1.1-2.5-2.5-2.5"/><path fill="#241916" d="M561.9 52v.6c-1.1 0-1.9.9-2 1.9v7.3h3.9v-7.3c0-1.1-.9-1.9-1.9-1.9v-1.2c1.7 0 3.1 1.4 3.1 3.1v7.8l-.2.4-.4.2h-5l-.4-.2-.2-.4v-7.8c0-1.7 1.4-3.1 3.1-3.1v.6z"/><path fill="#FFF" d="M572.4 48.8c0 1.4-1.1 2.5-2.5 2.5s-2.5-1.1-2.5-2.5 1.1-2.5 2.5-2.5 2.5 1.1 2.5 2.5"/><path fill="#241916" d="M572.4 48.8h.6c0 1.7-1.4 3.1-3.1 3.1-1.7 0-3.1-1.4-3.1-3.1 0-1.7 1.4-3.1 3.1-3.1 1.7 0 3.1 1.4 3.1 3.1h-1.2c0-1.1-.9-2-1.9-2-1.1 0-2 .9-2 2s.9 1.9 2 2c1.1 0 1.9-.9 1.9-2h.6z"/><path fill="#FFF" d="M569.9 52c-1.4 0-2.5 1.1-2.5 2.5v7.8h5v-7.8c0-1.4-1.1-2.5-2.5-2.5"/><path fill="#241916" d="M569.9 52v.6c-1.1 0-1.9.9-2 1.9v7.3h3.9v-7.3c0-1.1-.9-1.9-1.9-1.9v-1.2c1.7 0 3.1 1.4 3.1 3.1v7.8l-.2.4-.4.2h-5l-.4-.2-.2-.4v-7.8c0-1.7 1.4-3.1 3.1-3.1v.6z"/><path fill="#FFF" d="M580.4 48.8c0 1.4-1.1 2.5-2.5 2.5s-2.5-1.1-2.5-2.5 1.1-2.5 2.5-2.5 2.5 1.1 2.5 2.5"/><path fill="#241916" d="M580.4 48.8h.6c0 1.7-1.4 3.1-3.1 3.1-1.7 0-3.1-1.4-3.1-3.1 0-1.7 1.4-3.1 3.1-3.1 1.7 0 3.1 1.4 3.1 3.1h-1.2c0-1.1-.9-2-1.9-2-1.1 0-2 .9-2 2s.9 1.9 2 2c1.1 0 1.9-.9 1.9-2h.6z"/><path fill="#FFF" d="M577.9 52c-1.4 0-2.5 1.1-2.5 2.5v7.8h5v-7.8c0-1.4-1.1-2.5-2.5-2.5"/><path fill="#241916" d="M577.9 52v.6c-1.1 0-1.9.9-2 1.9v7.3h3.9v-7.3c0-1.1-.9-1.9-1.9-1.9v-1.2c1.7 0 3.1 1.4 3.1 3.1v7.8l-.2.4-.4.2h-5l-.4-.2-.2-.4v-7.8c0-1.7 1.4-3.1 3.1-3.1v.6z"/><path fill="#FFF" d="M588.5 48.8c0 1.4-1.1 2.5-2.5 2.5s-2.5-1.1-2.5-2.5 1.1-2.5 2.5-2.5c1.3 0 2.5 1.1 2.5 2.5"/><path fill="#241916" d="M588.5 48.8h.6c0 1.7-1.4 3.1-3.1 3.1-1.7 0-3.1-1.4-3.1-3.1 0-1.7 1.4-3.1 3.1-3.1 1.7 0 3.1 1.4 3.1 3.1h-1.2c0-1.1-.9-2-1.9-2-1.1 0-2 .9-2 2s.9 1.9 2 2c1.1 0 1.9-.9 1.9-2h.6z"/><path fill="#FFF" d="M586 52c-1.4 0-2.5 1.1-2.5 2.5v7.8h5v-7.8c0-1.4-1.2-2.5-2.5-2.5"/><path fill="#241916" d="M586 52v.6c-1.1 0-1.9.9-2 1.9v7.3h3.9v-7.3c0-1.1-.9-1.9-1.9-1.9v-1.2c1.7 0 3.1 1.4 3.1 3.1v7.8l-.2.4-.4.2h-5l-.4-.2-.2-.4v-7.8c0-1.7 1.4-3.1 3.1-3.1v.6z"/><path fill="#FFF" d="M229.1 218.1h6.4v18.6h-6.4z"/><path fill="#241916" d="M235.4 236.7v.5h-6.9v-19.7h7.5v19.7h-.6v-.5h-.5v-18.1h-5.3v17.5h5.8v.6h-.5z"/><path fill="#FFF" d="M239.2 208.8h6.4v27.9h-6.4z"/><path fill="#241916" d="M245.6 236.7v.5h-7v-29h7.5v29h-.5v-.5h-.6v-27.4h-5.3v26.8h5.9v.6h-.6z"/><path fill="#FFF" d="M249.3 198.9h6.4v37.8h-6.4z"/><path fill="#241916" d="M255.7 236.7v.5h-6.9v-38.9h7.4v38.9h-.5v-.5h-.6v-37.3h-5.2v36.7h5.8v.6h-.6z"/><path fill="#241916" d="M254.638 226.26l2.771-1.6 5.098 8.835-2.771 1.6z"/><path fill="#FFF" d="M260.3 220.7c1.7 2.9.7 6.6-2.2 8.3-2.9 1.7-6.6.7-8.3-2.2-1.7-2.9-.7-6.6 2.2-8.3 2.9-1.7 6.6-.7 8.3 2.2"/><path fill="#241916" d="M260.3 220.7l.5-.3c.6 1 .9 2.2.9 3.3 0 2.3-1.2 4.5-3.3 5.8-1 .6-2.2.9-3.3.9-2.3 0-4.5-1.2-5.8-3.3-.6-1-.9-2.2-.9-3.3 0-2.3 1.2-4.5 3.3-5.8 1-.6 2.2-.9 3.3-.9 2.3 0 4.5 1.2 5.8 3.3l-.5.3-.5.3c-1-1.8-2.9-2.8-4.8-2.8-.9 0-1.9.2-2.8.7-1.8 1-2.8 2.9-2.8 4.8 0 .9.2 1.9.7 2.8 1 1.8 2.9 2.8 4.8 2.8.9 0 1.9-.2 2.8-.7 1.8-1 2.8-2.9 2.8-4.8 0-.9-.2-1.9-.7-2.8l.5-.3z"/><path fill="#FFF" d="M257.1 227.4c-2 1.1-4.5.5-5.7-1.5"/><path fill="#241916" d="M257.3 227.7c-.7.4-1.5.6-2.3.6-1.6 0-3.1-.8-4-2.3-.1-.2 0-.5.2-.6.2-.1.5 0 .6.2.7 1.2 1.9 1.9 3.2 1.9.6 0 1.3-.2 1.9-.5.2-.1.5 0 .6.2 0 .2 0 .4-.2.5"/><path fill="#FFF" d="M562.1 206.2c0 2.5-2 4.5-4.5 4.5s-4.5-2-4.5-4.5 2-4.5 4.5-4.5c2.4 0 4.5 2.1 4.5 4.5"/><path fill="#241916" d="M562.1 206.2h.6c0 2.8-2.3 5.1-5.1 5.1s-5.1-2.3-5.1-5.1 2.3-5.1 5.1-5.1 5.1 2.3 5.1 5.1h-1.2c0-2.2-1.8-3.9-3.9-3.9-2.2 0-3.9 1.8-3.9 3.9 0 2.2 1.8 3.9 3.9 3.9 2.2 0 3.9-1.8 3.9-3.9h.6z"/><path fill="#FFF" d="M557.6 212c-2.5 0-4.5 2-4.5 4.5v14.1h9v-14.1c0-2.5-2.1-4.5-4.5-4.5"/><path fill="#241916" d="M557.6 212v.6c-2.2 0-3.9 1.8-3.9 3.9V230h7.9v-13.5c0-2.2-1.8-3.9-3.9-3.9v-1.2c2.8 0 5.1 2.3 5.1 5.1v14.1l-.2.4-.4.2h-9l-.4-.2-.2-.4v-14.1c0-2.8 2.3-5.1 5.1-5.1v.6z"/><path fill="#FFF" d="M587.6 206.2c0 2.5-2 4.5-4.5 4.5s-4.5-2-4.5-4.5 2-4.5 4.5-4.5 4.5 2.1 4.5 4.5"/><path fill="#241916" d="M587.6 206.2h.6c0 2.8-2.3 5.1-5.1 5.1s-5.1-2.3-5.1-5.1 2.3-5.1 5.1-5.1 5.1 2.3 5.1 5.1H587c0-2.2-1.8-3.9-3.9-3.9-2.2 0-3.9 1.8-3.9 3.9 0 2.2 1.8 3.9 3.9 3.9 2.2 0 3.9-1.8 3.9-3.9h.6z"/><path fill="#FFF" d="M583.1 212c-2.5 0-4.5 2-4.5 4.5v14.1h9v-14.1c0-2.5-2-4.5-4.5-4.5"/><path fill="#241916" d="M583.1 212v.6c-2.2 0-3.9 1.8-3.9 3.9V230h7.9v-13.5c0-2.2-1.8-3.9-3.9-3.9v-1.2c2.8 0 5.1 2.3 5.1 5.1v14.1l-.3.4-.4.2h-9l-.4-.2-.2-.4v-14.1c0-2.8 2.3-5.1 5.1-5.1v.6z"/><path fill="#FFF" d="M546.1 227.7h48.5v6.2h-48.5z"/><path fill="#241916" d="M594.6 233.8v.6h-48.5l-.4-.2-.1-.4v-6.1l.1-.4.4-.2h48.5l.4.2.1.4v6.1l-.1.4-.4.2v-.6h-.6v-5.6h-47.3v5.1h47.9v.5h-.6zM566.3 206.2c0 .6-.5 1-1 1-.6 0-1.1-.5-1.1-1 0-.6.5-1.1 1.1-1.1.5.1 1 .6 1 1.1M570.9 206.2c0 .8-.7 1.5-1.5 1.5s-1.5-.7-1.5-1.5.7-1.5 1.5-1.5c.9 0 1.5.7 1.5 1.5M576.4 206.2c0 1.1-.9 2.1-2.1 2.1-1.1 0-2.1-.9-2.1-2.1 0-1.1.9-2.1 2.1-2.1 1.2.1 2.1 1 2.1 2.1"/><path fill="#FFF" d="M430.9 27.3h-32.6v16h13.4L423 56.2l-3.2-12.9h11.1z"/><path fill="#241916" d="M430.9 27.3v.6h-32.1v14.8h12.9l.4.2 9.8 11.2-2.7-10.7.1-.5.4-.2h10.6V27.3h.6v.6-.6h.6v16l-.2.4-.4.2h-10.4l3 12.2c.1.3-.1.5-.3.6-.2.1-.5.1-.7-.1l-11.1-12.7h-13.2l-.4-.2-.2-.4v-16l.2-.4.4-.2h32.7l.4.2.2.4h-.6z"/><path fill="#FFF" d="M407.3 37.7h-22.1v12h10.4L390 61.9l11-12.2h6.3z"/><path fill="#241916" d="M407.3 37.7v.6h-21.6v10.9h9.8c.2 0 .4.1.5.3v.5l-4.1 8.9 8.6-9.5.4-.2h5.7V37.7h.7v.6-.6h.6v12l-.2.4-.4.2h-6.1l-10.9 12c-.2.2-.5.2-.7.1-.2-.2-.3-.4-.2-.7l5.2-11.4h-9.5l-.4-.2-.2-.4v-12l.2-.4.4-.2h22.2l.4.2.2.4h-.6z"/></g><g fill="#241916"><path d="M128.2 47.6c.6.6 1 1 1.5 1.9.3-.2.6-.5 1-.7-.5-.7-1.1-1.4-1.5-1.7l-1 .5zm-3 3.1c1.5 1.3 2.9 3.2 2.9 4.2 0 .8-.8.9-1.7 1.1.3.4.6 1 .9 1.5 1.3-.4 2.6-.8 2.6-2.3 0-1.4-1.3-3.5-3.4-5.3l-1.3.8zm1.5-2c.5.5 1.2 1.3 1.5 1.7.5-.4.5-.4.9-.7-.6-.8-1.3-1.5-1.5-1.7l-.9.7zm-6.2-1.4c-.1.8-.2 2-.5 3.8-.6.1-3.7.8-4.4.9l.6 1.8c1.3-.5 2.2-.7 3.4-1-.8 2.9-2.2 5.7-4.2 8 .6.2 1.1.5 1.6.9 1.8-2.4 3.3-5.1 4.4-9.2h.7c1.7 0 2 1.1 2 2.6 0 .7-.1 2.4-.6 3.5-.6 1.4-1.2 1.5-1.7 1.5-.4 0-.9 0-1.8-.3.1.3.2 1.1.2 1.9.4.1.9.2 1.6.2 1.3 0 1.9-.4 2.3-.9.7-.7 1.6-2.8 1.6-6.1 0-3.6-2-4.1-4-4 .4-1.8.5-2 .6-2.5.3 0 .4-.2.4-.3 0-.1-.1-.2-.3-.2l-1.9-.6zm-21.3 2.2v1.6h10.9c-2.2 6.8-6.6 8.6-9 9.7.2.2.9.7 1.3 1.4 5.4-2.6 7.5-5.5 9.5-10.8.1-.4.2-.5.5-.9l-1.3-1.1c-.2.1-.5.1-1.1.1H99.2zm13.7-2.1c.5 0 .8.4.8.8 0 .5-.4.8-.8.8s-.8-.4-.8-.8c0-.5.3-.8.8-.8m0-.7c-.8 0-1.5.6-1.5 1.5 0 .8.7 1.5 1.5 1.5s1.5-.7 1.5-1.5-.7-1.5-1.5-1.5m-29.6 9.1h14.2V54H83.3v1.8zm-10.5-7.4v10.7c0 .5 0 1-.1 1.3l1.2.8c.3-.3.4-.3.9-.7 1.2-.8 3.9-2.8 5.9-5.5-.4-.5-.5-.6-.9-1.5-1.2 1.9-3.2 3.8-5.3 5V49l.3-.3c0-.2-.1-.2-.3-.2l-1.7-.1zm-4 .1v4.9c0 2.4-.5 4.5-3.8 6.4.9.6 1.1.8 1.4 1.2 3.2-2.2 4.2-4.5 4.2-7.8v-4.1l.3-.3c0-.2-.2-.2-.4-.2l-1.7-.1zm-6.7-1c.7.6 1.3 1.5 1.4 1.7.6-.5.7-.5 1-.7-.3-.4-1-1.2-1.5-1.7l-.9.7zm-2.5.2c.3.3.8.7 1.5 1.6.3-.3.8-.6 1-.7-.4-.5-1.1-1.3-1.5-1.6l-1 .7zm-3 2.4c.5-.9.6-1.1.7-1.4l.4-.2-.2-.2-1.6-.7c-1.1 3-3.2 5.7-5.7 7.6.6.4.6.5 1.3 1.2 1.8-1.6 3-3 4.1-4.6h5.2c-1.4 4.3-3.7 7.6-8.8 9.7.7.6.9.8 1.4 1.3.8-.4 2.9-1.2 4.9-3.3 2.2-2.3 3.1-4.4 4.5-7.6l.5-1-1-.9c-.3.1-.6.2-1.1.2h-4.6zm-23.7 6.3c-.2 1.3-.5 2.8-1.1 4 .9.1 1.2.3 1.4.4.3-.8.7-2.4.9-3.7l.3-.2-.3-.2-1.2-.3zm3.8.1c.2 1.4.4 2.1.8 3.4.3-.1.8-.4 1.4-.5-.3-.8-.7-2.3-.8-3.2l-1.4.3zm3-6.4c.5.7 1 1.4 1.8 2.2-1.3.8-2.2 1.2-3.2 1.5.5.4.7.7 1 1.4 1.2-.5 2.3-1 3.5-1.9 1.1.8 2.6 1.6 4.1 2 .2-.4.4-.8.9-1.4-1.2-.3-2.4-.8-3.8-1.7 1.7-1.6 2.6-3.2 2.9-3.7l-.9-.7h-7.1v1.4h5.7c-.3.5-.7 1.2-1.8 2.2-.9-.8-1.5-1.7-1.7-2.1l-1.4.8zm4 8h3v-1.5h-3v-1.1c.2-.1.4-.1.4-.3l-.4-.2-1.7-.1v1.7h-2.8v1.5H42v2.4h-3.8v1.6h9.3v-1.6h-3.8v-2.4zm-7-9.1c-.4.9-1 1.8-1.6 2.6-.2-.2-.3-.3-.7-.6.7-1 1.1-1.5 1.8-2.8.1 0 .5 0 .5-.2l-.2-.2-1.5-.7c-.7 1.6-1.5 2.7-1.7 3-.2-.2-.3-.3-.6-.5l-.9 1.4c.4.3 1 .6 2.4 1.9-.3.5-.5.6-1 1.3H32l.2 1.5.2.3c.2 0 .3-.2.4-.4.2-.1 1.5-.2 1.8-.3v7h1.6V55c.3 0 .3 0 .8-.1 0 .3.1.4.1.7.8-.3 1.2-.4 1.5-.4-.2-1-.7-2.2-1-3.1l-1.2.4c.1.3.2.7.4 1.2-.8.1-.9.1-1.8.2 1.3-1.6 2.3-3.2 2.9-4.1.2 0 .5 0 .5-.2H38l-1.3-.6zm-17.8 1h7.8v3.7h-7.8V50zm0 5.3h7.8v3.9h-7.8v-3.9zm7.8 5.6v1h1.8V48.3H17.1v13.5h1.8v-1h7.8zM75.3 87c-.2.1-.7.2-1.2.2-.7 0-2-.3-2-1.3 0-.7.6-.9 1-.9.6 0 1.2.3 1.5.6.6.4.6 1 .7 1.4m1.8-12.9c-2.3.8-6.9 1-8.4 1l.3 1.7c1.2-.1 4.1-.3 5.8-.7-.7 1-6.2 6.4-7.9 7.6l1.3 1.3c2.6-2.7 4.4-4.3 7.2-4.3 2.2 0 3.4 1.3 3.4 2.9 0 1.9-1.5 2.6-1.9 2.8-.5-2.9-3.3-2.9-3.5-2.9-1.6 0-2.8 1-2.8 2.3 0 1.7 1.7 2.7 3.8 2.7 2.6 0 6.1-1.5 6.1-5 0-2.8-2.3-4.2-4.7-4.2-1.2 0-2.1.3-2.6.5.5-.5 4.2-3.9 4.8-4.4l-.9-1.3zm-20.6 6.3c1.1 0 1.4 1.1 1.4 1.6 0 1.1-.6 2-1.5 2-1.2 0-1.2-1.5-1.2-1.8 0-.9.4-1.8 1.3-1.8m.7-6.7c.2 1 .2 2.2.3 2.3-5.8.3-6.5.4-7.1.4l.1 1.9c2.6-.4 5.4-.6 7-.7v1.7c-.2-.1-.5-.3-1.1-.3-1.5 0-2.7 1.2-2.7 3.3 0 1.7.8 3.1 2.4 3.1.7 0 1.3-.3 1.8-.8-.5 1.4-1.4 2.5-3.7 3.4 1 .7 1.1.7 1.5 1.2.6-.3 1.7-.9 2.7-2.1 1.1-1.4 1.5-3.2 1.5-4.2 0-.2 0-1.7-.7-2.8v-2.6h2.3c1.5 0 2.9 0 3.5.1-.1-.6 0-1.5 0-1.8-.8 0-4.9.2-5.8.3 0-1 0-1.1.1-1.6l.3-.3c0-.1 0-.2-.4-.2l-2-.3zm-15.8 9.5h-1.6v-1.4h1.6v1.4zm1.6-1.4h1.6v-1.3h-8v1.3h1.7v1.4h-2.2v1.4h2c-.3 1.4-1.1 2.3-2.3 3.1.7.3.9.4 1.3 1 1.5-1 2.3-2.3 2.6-4.1h1.7v3.8H43v-3.8h2.1v-1.4H43v-1.4zm2.9-3.6h-3.1v-.9h3.1v.9zm-3.1-2.9h3.1v.9h-3.1v-.9zm-1.6-1.2v5.3h4.7v7.1c0 .6-.4.7-.8.7-.5 0-.9-.1-1.1-.1.5.9.6 1.4.7 1.8 2 0 2.9-.2 2.9-2.2V74.1h-6.4zm-3 4.1h-3v-.9h3v.9zm-3.1-2.9h3v.9h-3v-.9zm-1.6-1.2v14.8h1.7v-9.4h4.7v-5.3h-6.4zm-5.3 2.6h-9.7v-1.2h9.7v1.2zm-11.4-2.6v6.2c0 3.2-.2 5.4-1.6 7.7.7.2 1.4.7 1.5.8 1.4-2.2 1.8-5.3 1.8-8V78h11.4v-3.9H16.8zm8.7 8h-2.8v-1.5h2.8v1.5zm2.6 1.5c-.5.5-.9.9-1.4 1.3-.2-.2-.7-.7-1-1.3h2.4zm1 0h1.4v-1.4h-3.4v-1.5h2.8v-1.3h-2.8v-.5c.3 0 .5-.1.5-.3 0-.2-.3-.2-.5-.2l-1.6-.1v1.1h-2.8v-.5c.3-.1.5-.1.5-.3 0-.2-.2-.2-.5-.2l-1.6-.1v1.1h-1.9v1.3h1.9v1.5h-2.5v1.4h1.9v3.2c-1.4.2-1.9.3-2.2.3l.4 1.5.3.3c.2 0 .2-.1.3-.3 2-.3 5.1-1 5.6-1.1 0-.4.1-.8.3-1.5-.6.2-1.4.4-2.9.6v-2.9H24c1 2.3 3.1 4.2 5.8 5.3.2-.6.5-1 1-1.4-1.2-.4-2.1-.8-3.1-1.6.8-.6 1.4-1.1 1.7-1.4h.3l.2-.2-.2-.2-.6-.6zM147.6 104.7h1.7V103h-1.7v-2.9l-2.3 1v1.9h-1.2v1.7h1.2v5.9c0 1.2.3 2 .9 2.6.6.6 1.5.8 2.7.8h.1v-2.2h-.1c-.9 0-1.3-.5-1.3-1.4v-5.7zm-10.5 8.5c.6.6 1.4.9 2.5.9s1.9-.3 2.4-.9.8-1.5.8-2.7v-.4h-2.2v.4c0 .5-.1.9-.3 1.1-.2.2-.4.4-.8.4-.3 0-.6-.1-.8-.4-.2-.3-.3-.7-.3-1.4v-3.4c0-.6.1-1.1.3-1.4.2-.3.4-.4.8-.4.3 0 .6.1.7.4s.3.6.3 1.1v.4h2.2v-.4c0-1.2-.3-2.1-.8-2.7-.6-.6-1.4-.9-2.4-.9-1.1 0-1.9.3-2.5.9-.6.6-.9 1.6-.9 3v3.4c.1 1.4.4 2.4 1 3m-6.5-7.8c.2-.3.4-.4.8-.4.3 0 .6.1.8.4.2.3.3.7.3 1.4v.8h-2.1v-.8c-.1-.7 0-1.1.2-1.4m-.3 3.9h4.4v-2.2c0-1.5-.3-2.6-.9-3.3-.6-.7-1.4-1.1-2.5-1.1s-1.9.3-2.5 1c-.6.7-.8 1.8-.8 3.3v2.7c0 1.5.3 2.6.9 3.3.6.7 1.4 1 2.5 1s1.9-.3 2.4-.9c.6-.6.8-1.5.8-2.6v-.1h-2.2v.1c0 .9-.3 1.4-1 1.4s-1-.6-1-1.7v-.9zm-7.6 5.8v2.2h.1c2.4 0 3.6-1.1 3.6-3.4V103h-2.3v10.7c0 .9-.5 1.4-1.4 1.4zm1.4-13.5h2.3v-2h-2.3v2zm-4.3 9.9c-.2.3-.4.4-.8.4-.3 0-.6-.1-.8-.4-.2-.3-.3-.7-.3-1.4v-3.4c0-.6.1-1.1.3-1.4.2-.3.4-.4.8-.4.3 0 .6.1.8.4.2.3.3.7.3 1.4v3.4c-.1.7-.1 1.2-.3 1.4m-3.3 1.7c.6.6 1.4.9 2.5.9s1.9-.3 2.5-.9c.6-.6.8-1.6.8-3v-3.4c0-1.4-.3-2.4-.8-3s-1.4-.9-2.5-.9-1.9.3-2.5.9c-.6.6-.9 1.6-.9 3v3.4c.1 1.4.4 2.4.9 3m-7.1-10.2v11h2.3v-6.9c0-.6.2-1.1.5-1.4.3-.3.7-.5 1.2-.5.3 0 .7.1 1.1.2v-2.5c-.2-.1-.5-.1-.7-.1-.4 0-.8.1-1.2.3-.3.2-.6.5-.9.9v-1h-2.3zm-4.1 2.8c-.2.4-.6.5-1.1.5H103v-4.5h1.2c.5 0 .9.2 1.1.5.2.4.3.9.3 1.7 0 .9-.1 1.4-.3 1.8m1.9-5.1c-.6-.7-1.5-1.1-2.9-1.1h-3.7V114h2.4v-5.3h1.3c1.3 0 2.3-.4 2.9-1.1.6-.7.9-1.9.9-3.4-.1-1.6-.4-2.7-.9-3.5m-15.3 8.9l1.7 4.4h2.6l-2.8-6.7L96 103h-2.4l-2.5 4.5v-7.8h-2.3V114h2.3v-3.1l.8-1.3zm-9.5-6.6v11h2.3v-6.9c0-.6.2-1.1.5-1.4.3-.3.7-.5 1.2-.5.3 0 .7.1 1.1.2v-2.5c-.2-.1-.5-.1-.7-.1-.4 0-.8.1-1.2.3-.3.2-.6.5-.9.9v-1h-2.3zm-4.2 8.5c-.2.3-.4.4-.8.4-.3 0-.6-.1-.8-.4-.2-.3-.3-.7-.3-1.4v-3.4c0-.6.1-1.1.3-1.4.2-.3.4-.4.8-.4.3 0 .6.1.8.4.2.3.3.7.3 1.4v3.4c0 .7-.1 1.2-.3 1.4m-3.2 1.7c.6.6 1.4.9 2.5.9s1.9-.3 2.5-.9c.6-.6.8-1.6.8-3v-3.4c0-1.4-.3-2.4-.8-3-.6-.6-1.4-.9-2.5-.9s-1.9.3-2.5.9c-.6.6-.9 1.6-.9 3v3.4c0 1.4.3 2.4.9 3m-1.6-13.6h-2.5l-1.3 10.7-1.3-10.7h-3L64 110.3l-1.3-10.7h-2.5l2.5 14.4h2.6l1.5-8.8 1.5 8.8H71l2.4-14.4zm-19 5.1h1.7V103h-1.7v-2.9l-2.3 1v1.9h-1.2v1.7h1.2v5.9c0 1.2.3 2 .9 2.6.6.6 1.5.8 2.7.8h.1v-2.2h-.1c-.9 0-1.3-.5-1.3-1.4v-5.7zm-9.6-1.7v11h2.3v-6.9c0-.6.1-1.1.4-1.4.3-.3.7-.5 1.2-.5.3 0 .7.1 1.1.2v-2.5c-.2-.1-.5-.1-.7-.1-.4 0-.8.1-1.2.3-.3.2-.6.5-.9.9v-1h-2.2zm-4.3 8.7c-.2.2-.4.4-.7.4-.3 0-.6-.1-.8-.4-.2-.2-.3-.6-.3-1 0-.5.1-.9.4-1.1.2-.2.6-.3 1.1-.3h.6v1.5c0 .3-.1.6-.3.9m1.7-7.9c-.6-.6-1.4-.9-2.4-.9-.9 0-1.7.3-2.3.8-.6.6-.9 1.4-.9 2.5v.1h2.1v-.3c0-.3.1-.6.3-.8.2-.2.4-.3.7-.3.3 0 .6.1.7.3.2.2.2.5.2.9v1.4h-.9c-1.1 0-2 .3-2.6.8-.6.6-.9 1.4-.9 2.4 0 1.1.2 1.9.7 2.5.4.6 1.1.9 2 .9.4 0 .8-.1 1-.3.3-.2.5-.4.8-.8v.9h2.2v-7.7c.2-1-.1-1.8-.7-2.4m-18.1-.8v11h2.3v-7.8c0-.4.1-.7.3-.9.2-.2.4-.3.7-.3.3 0 .5.1.7.3.2.2.3.5.3.9v7.8h2.3v-7.8c0-.4.1-.7.3-.9.2-.2.4-.3.7-.3.3 0 .5.1.7.3.2.2.3.5.3.9v7.8H35v-7.8c0-1.1-.2-1.9-.6-2.5-.4-.6-1.1-.8-2-.8-.4 0-.8.1-1.1.3-.4.2-.7.5-.9.8-.2-.4-.5-.6-.9-.8-.4-.2-.8-.3-1.2-.3-.7 0-1.3.3-1.8 1v-.9h-2.4zm-8 10c.6.7 1.6 1.1 2.8 1.1 1.2 0 2.2-.4 2.8-1.1.7-.7 1-1.7 1-3.1 0-1.1-.2-2-.6-2.7-.4-.7-1.1-1.2-2.1-1.7l-.9-.4c-.5-.2-.9-.5-1.1-.8-.2-.3-.3-.7-.3-1.2 0-1.1.4-1.6 1.3-1.6.5 0 .8.2 1 .5.2.3.3.8.3 1.5h2.3c0-1.3-.4-2.4-1-3.1-.6-.7-1.5-1.1-2.6-1.1s-2.1.4-2.7 1.1c-.7.7-1 1.7-1 2.9 0 1 .2 1.8.6 2.5.4.6 1 1.1 1.9 1.5l.9.4c.6.3 1 .6 1.2.9.2.3.4.8.4 1.3 0 .7-.1 1.2-.3 1.5-.2.3-.6.5-1 .5-.5 0-.8-.2-1.1-.5-.2-.3-.4-.9-.4-1.6h-2.3c-.1 1.4.3 2.5.9 3.2M285 94.1c0 .7 0 1.1-.1 1.5h.9c0-.4-.1-.8-.1-1.5v-6.5c.3-.5.6-1.4.9-2.2.1-.3.2-.5.2-.7l-.9-.2c-.2 1.5-1.4 4-2.6 5.2l.3.3.1.2.1.1c.4-.5.8-1.1 1.1-1.7v5.5zm5.9-6.4h2.6V89h-2.6v-1.3zm-3 0h2.3V89h-2.3v-1.3zm.1-.6c.3-.3.7-.7 1-1.1h2.5c-.3.4-.6.8-.9 1.1H288zm-.8.7v1.9h2.4c-.7.6-2.1 1.2-3.4 1.5.1.1.2.3.4.6 1-.3 2.1-.7 2.9-1.2l.6.6c-1 .7-2.5 1.4-3.9 1.8.2.2.3.4.4.6 1.5-.5 2.8-1.1 3.8-1.9.1.3.2.5.3.8-1.1.9-2.8 1.8-4.5 2.3.2.2.3.4.4.6 1.8-.6 3.1-1.4 4.2-2.3 0 .3.1.5.1.8 0 .8-.1 1-.8 1-.3 0-.6 0-1.1-.1.1.3.2.5.2.7h.9c.6 0 .9-.1 1.2-.3.3-.2.4-.7.4-1.3 0-.8-.2-1.7-.6-2.5-.3-.5-.5-.9-1-1.3.2-.2.3-.2.6-.5h.6c.6 2.3 1.8 4.1 3.6 5.3.2-.3.3-.5.5-.7-1-.5-1.9-1.4-2.5-2.4.7-.4 1.4-.9 2.1-1.5l-.6-.5c-.3.4-1.1 1-1.8 1.4-.3-.6-.4-1-.6-1.6h2.5V88v-.9h-2.9c.2-.2.6-.7.8-1 .2-.2.2-.3.3-.4l-.4-.4h-2.7l.1-.2.2-.3.2-.3-.8-.2c-.4 1-1.7 2.5-3 3.3.2.2.4.3.5.5 0 0 .1-.1.4-.3zM272 89.7h1.6V93H272v-3.3zm0-3.7h1.6v3H272v-3zm-.8 7.5c0 .5 0 1-.1 1.3h.8v-1.1h1.6v.6h.8c0-.3-.1-.6-.1-1v-6.8-1.1h-3.1v8.1zm7.2-3.2c.1-.8.2-1.6.2-2.9v-.1h1.9v3.1h-2.1zm-2.4 0v-3.1h1.8v.1c0 1.2-.1 2.1-.2 3H276zm4.7.6c.4 0 1 0 1.3.1v-.8c-.2 0-.4.1-.8.1v-2.8-.9h-2.7V86c0-.6 0-1 .1-1.3h-.9c.1.3.1.7.1 1.3v.7h-2.6V90.4h-.6v.6c.3 0 .5-.1 1.1-.1h1.8c-.4 1.8-1.6 3.1-3.5 4 .3.3.4.4.5.7 2-1 3.1-2.3 3.6-4.3.7 1.9 1.8 3.2 3.5 4.3.2-.4.2-.5.5-.7-1.7-.9-2.7-2.1-3.5-3.9h2.1zm-15.6 2.3c.9.7 1.8 1.5 2.5 2.5.3-.1.6-.5.7-.7-.7-.9-1.7-1.8-2.5-2.4-.3.2-.5.4-.7.6M253 90.1c.3 0 .5-.1.9-.1h.8v3c-.6.6-1.5 1.3-2 1.5l.4.8.4-.4c.5-.4 1-.8 1.5-1.3.5.8 1 1.1 1.8 1.3.6.2 1.4.2 3.2.2 1.2 0 2.2 0 3.9-.1.1-.4.1-.5.3-.9-1.2.2-2.6.2-4.7.2-1.4 0-2.2-.1-2.7-.3-.6-.2-.9-.5-1.3-1.2v-2.4c0-.6 0-.9.1-1.3-.2 0-.6.1-.9.1h-.7c-.4 0-.7 0-.9-.1v1zm.3-4.8c.7.7 1.3 1.3 1.9 2.2l.6-.6c-.6-.8-1.2-1.5-2-2.2l-.5.6zm4.2-.5c.4.5.8 1.1 1.1 1.8l.7-.4c-.3-.6-.7-1.3-1.1-1.8l-.7.4zm1.9 2.7c0 .9 0 1.3-.1 1.9h-1.8c-.4 0-1 0-1.2-.1v.8c.2 0 .8-.1 1.2-.1h1.7c-.4 1.3-1.3 2.2-2.9 2.9l.6.6c1.5-.8 2.6-1.9 3-3.2.6 1.4 1.9 2.6 3.6 3.2.1-.3.3-.5.5-.7-1.7-.5-2.8-1.5-3.5-2.9h2.2c.5 0 1 0 1.2.1v-.8c-.2 0-.7.1-1.2.1h-2.6c.1-.6.1-1.1.1-1.9h2.1c.5 0 .9 0 1.2.1v-.8c-.2 0-.7.1-1.1.1h-1.1c.3-.5.5-.9 1.1-2l-.7-.3c-.3.7-.7 1.6-1.1 2.3H258c-.4 0-.9 0-1.2-.1v.8c.3-.1.7-.1 1.2-.1h1.4zm-17.1-.9h-1.1c-.5 0-.9 0-1.2-.1v.8c.2 0 .6-.1 1.2-.1h.3c0 4.1-.4 6.2-1.5 7.5l.6.6c1-1.3 1.4-2.9 1.6-5.9h1.6c0 2.5-.1 3.8-.3 4.6-.1.3-.2.4-.5.4-.4 0-.7 0-1.1-.1.1.2.1.5.1.8.4.1.7.1 1 .1.6 0 .9-.1 1.1-.5.3-.5.4-1.9.4-3.7 0-1.8 0-1.9.1-2.2h-2.3v-1.6h1.8c.4 0 .9 0 1.1.1v-.8c-.3.1-.7.1-1.1.1h-.9v-1c0-.4 0-.8.1-1.1h-.9c0 .3.1.6.1 1.1v1zm6.9.7c-.1 1.6-.6 3.2-1.2 4.2-.6-.9-1.2-2.3-1.5-3.7.1-.2.1-.4.2-.6h2.5zm1.8-.8c-.3 0-.7.1-1.2.1h-2.9l.4-1.6c.1-.2.1-.2.1-.4l-.8-.1c-.1 1.8-1 3.9-1.9 5 .2.1.4.3.6.5.4-.5.5-.7.8-1.3.3 1.2.9 2.5 1.5 3.4-.8 1.1-1.9 2-3 2.6.2.2.4.4.5.7 1.2-.7 2.3-1.6 3-2.6 1 1.2 1.5 1.6 2.8 2.5.1-.3.3-.6.5-.7-1-.6-2.1-1.5-2.8-2.4.8-1.3 1.3-2.9 1.5-4.9.5 0 .8 0 1 .1v-.9zm-16.8 6.7c.9.7 1.8 1.5 2.5 2.5.3-.1.6-.5.7-.7-.7-.9-1.7-1.8-2.5-2.4-.3.2-.5.4-.7.6m-2.7-1.4c.6.9.9 1.7 1.2 2.8l.7-.3c-.3-1-.7-1.8-1.3-2.7l-.6.2zm-2.9-1.4c.8.5 1.4 1 1.9 1.6l.5-.6c-.5-.5-1.3-1.1-2-1.5l-.4.5zm-1.9 1.1c-.1 1.2-.4 2.1-.9 2.9l.7.4c.5-1 .7-1.8.9-3.1l-.7-.2zm2.1.5c0-.5 0-.7.1-1h-.9c.1.3.1.6.1 1v2.4c0 .7.3.8 1.5.8 1.7 0 1.8-.1 2-2.2-.3-.1-.4-.2-.7-.3 0 1-.1 1.5-.2 1.6-.1.1-.4.2-1 .2-.7 0-.8-.1-.8-.4V92zm-5.6.3h1.7v1.8h-1.7v-1.8zm0 3.2v-.6h1.7v.5h.7c0-.2-.1-.6-.1-1v-1.7-1h-3.2c0 .3.1.5.1 1v1.6c0 .5 0 .8-.1 1.2h.9zm-.7-4.8H225.6V90c-.2 0-.4.1-.8.1h-1.5c-.4 0-.6 0-.8-.1v.7zm0-1.6H225.6v-.8H222.5v.8zm-.6-1.7H226v-.8c-.3.1-.5.1-1 .1h-2.1c-.5 0-.7 0-1-.1v.8zm.6-1.8H225.7v-.8c-.2 0-.5.1-.9.1h-1.4c-.4 0-.7 0-.9-.1v.8zm6.7.7h-1.5c-.6 0-.9 0-1.2-.1v.8c.3 0 .7-.1 1.2-.1h1.6V89h-1.4c-.6 0-.9 0-1.2-.1v.8c.3 0 .7-.1 1.2-.1h3.9c.5 0 .9 0 1.2.1v-.8c-.3 0-.7.1-1.2.1H230v-2h2c.5 0 .9 0 1.2.1v-.8c-.3 0-.7.1-1.2.1h-2v-.8c0-.4 0-.8.1-1h-.9c0 .3.1.5.1 1v.7zm-16.5.3v2.3c0 .4.2.6.8.6.5 0 .7-.1.8-.3.1-.2.1-.5.1-.9l-.6-.3v.2c0 .5 0 .6-.3.6l-.2-.2v-1.9c0-.3 0-.7.1-.9h-1.6v-.7c0-.4 0-.5.1-.7h-.8V85.7h-.7c-.4 0-.7 0-1-.1v.8c.3 0 .6-.1 1-.1h.6c-.3 1.3-.8 2.1-1.9 2.7.2.2.4.4.5.6 1.2-.8 1.8-1.8 2.1-3.4h1zm-1.2 4.5c-.7 1.3-1.4 2.1-2.4 2.7.2.2.3.4.5.7.9-.7 1.6-1.5 2.1-2.6 0 .4-.1.8-.1 1.2v1.3c0 .6 0 1-.1 1.2h.8c-.1-.3-.1-.6-.1-1.2V93v-1.2c.5.9 1.1 1.6 1.9 2.1.2-.3.3-.5.4-.7-.8-.5-1.5-1.2-2.1-2.2h.9c.5 0 .8 0 1.1.1v-.8c-.2.1-.5.1-1.1.1h-1v-.5c0-.5 0-.7.1-.9h-.8v1.3h-1.1c-.5 0-.8 0-1-.1v.8c.3-.1.6-.1 1-.1h1zm4.2 1.1h1.7v2h-1.7v-2zm0-2.5h1.7v1.8h-1.7v-1.8zm0-2.5h1.7V89h-1.7v-1.8zm2.5 5h.7c.5 0 .9 0 1.1.1v-.8c-.2 0-.7.1-1.1.1h-.7v-1.8h.7c.5 0 .9 0 1.1.1v-.8c-.2 0-.6.1-1.1.1h-.7v-1.7h.9c.6 0 1 0 1.2.1v-.8c-.3 0-.6.1-1.2.1h-.8c.3-.5.5-1 .8-1.8l-.8-.2c-.1.6-.5 1.4-.8 2h-1.6c.3-.6.4-.9.7-1.6l.1-.1V85l-.8-.2c-.3 1.3-1 2.6-1.8 3.5.2.1.4.3.5.5.2-.2.2-.3.3-.4v6.4c0 .5 0 1-.1 1.2h.8v-.7h3.5c.5 0 1 0 1.2.1v-.8c-.1 0-.3 0-.6.1H218v-2.5zm-14.7 1c.9.7 1.8 1.5 2.5 2.5.3-.1.6-.5.7-.7-.7-.9-1.7-1.8-2.5-2.4-.3.2-.5.4-.7.6m-5.2-6.3h2.9v.9h-2.9v-.9zm0-1.4h2.9v.9h-2.9v-.9zm-.7 1.8v1.1H201.2v6c0 .3-.1.3-.5.3-.3 0-.7 0-1.1-.1.1.2.2.5.2.8h.9c.9 0 1.2-.2 1.2-1v-8.2c0-.5 0-.9.1-1.3h-4.5v2.4zm-4.7-.4h2.8v.9h-2.8v-.9zm0-1.4h2.8v.9h-2.8v-.9zm-.8 8.8c0 .7 0 1.1-.1 1.4h.9c0-.2-.1-.7-.1-1.4v-5.9h3.5V86v-1.2H192v9.5zm3.4-1.8h3v.7l-.6.1c-.4 0-.6.1-1.6.2l-.8.1v-1.1zm0-1.4h3v.8h-3v-.8zm0-1.3h3v.8h-3v-.8zm-.6 3.7h-1.2l.1.7c.2 0 .3-.1.6-.1 1.6-.1 2.9-.3 4.1-.4v.4c0 .5 0 .9-.1 1.2h.8c0-.3-.1-.6-.1-1.2v-4.3H200.3v-.7c-.3.1-.6.1-1.1.1h-4.4c-.5 0-.8 0-1.1-.1v.7h1.1v3.7zm-13.5-5.4c-.2-.6-.4-1.1-.7-1.6l-.6.3c.3.5.5 1 .7 1.6l.6-.3zm0 3.1c-.5 1-1.3 1.9-2.5 2.6.2.2.3.4.5.7 1.1-.8 1.9-1.8 2.3-2.7 0 .4-.1.7-.1 1v1.7c0 .4 0 .8-.1 1h.9c0-.3-.1-.7-.1-1v-1.8-1.1c.4.7.8 1.1 1.5 1.7.1-.3.3-.5.4-.6-.8-.5-1.3-1-1.7-1.6h1.2c.5 0 .7 0 1 .1v-.8c-.3 0-.6.1-1 .1h-1.3v-.6-.5h-.8v1.1h-1.5c-.5 0-.8 0-1-.1v.8c.3 0 .5-.1 1-.1h1.3zm-1.2-2.7c-.5 0-.8 0-1-.1v.8c.3 0 .6-.1 1-.1h3.6c.4 0 .7 0 1 .1v-.8c-.2 0-.6.1-1 .1h-.7c.3-.5.6-1.1.8-1.8l-.7-.2c-.1.6-.4 1.4-.8 2h-2.2zm2.2-2.8v-.3c0-.4 0-.6.1-.8h-.9c.1.2.1.5.1.9v.3h-1.2c-.5 0-.8 0-1.1-.1v.8c.3-.1.6-.1 1.1-.1h3.1c.5 0 .7 0 1 .1v-.8c-.2.1-.6.1-1 .1h-1.2zm3.7 2.7v-2.1c1.5-.2 2.5-.5 3.5-.9l.2-.1h.2l-.6-.7c-.3.2-.6.4-1.1.5-1 .3-2.2.6-2.9.6h-.2c0 .3.1.9.1 1.7 0 2.8-.1 4.4-.4 5.5-.2.9-.6 1.6-1.1 2.3.3.1.5.3.7.5 1.1-1.4 1.5-3.2 1.6-6.1v-.4h1.9v5.3c0 .6 0 .9-.1 1.2h.9c-.1-.3-.1-.6-.1-1.2v-5.3h.4c.5 0 .8 0 1.1.1v-.8c-.2 0-.5.1-1.1.1h-3zM293.7 106.6c-.1.2-.3.5-.4.7.9.3 1.9 1 2.7 1.7.2-.2.4-.5.5-.7-.8-.8-1.8-1.4-2.8-1.7m-1 6.3v.5c0 .8-.4 1.3-1.5 1.3-.8 0-1.3-.3-1.3-.9 0-.5.5-1 1.7-1 .5 0 .9.1 1.1.1m.8-.6c-.1-1-.2-2.2-.2-3.6h-.8c0 1.3.1 2.5.2 3.5-.4-.1-.7-.1-1-.1-1.5 0-2.5.9-2.5 1.8 0 1 .8 1.6 2.2 1.6 1.3 0 2.3-.6 2.3-1.9v-.5c.7.3 1.5.7 2.3 1.3.3-.2.4-.5.5-.8-.9-.6-2-1-3-1.3m-4.5-5.2h-2.4v.3c0 .2 0 .4.1.6.7 0 1.4-.1 2.1-.1-.6 1.8-1.5 3.4-2.3 4.7.2.2.5.4.8.5.9-1.5 1.8-3.3 2.5-5.2.7-.1 1.4-.1 2-.2v-.3l-.1-.5c-.6.1-1.1.2-1.7.2.2-.6.4-1.3.6-2-.3-.1-.6-.2-.9-.2-.3.7-.5 1.5-.7 2.2m-5.3.9c-.6 1-2.5 2.4-4 2.8.2.2.3.4.5.7 1.2-.6 2.2-1.2 3.2-2.1l.9-.9-.6-.5zm-5.4 1.2c.5-.8.9-1.4 1.3-2.6l-.7-.4c-.2.8-.6 1.7-1.2 2.6l.6.4zm5.7 2.1c-.8 1.3-3.2 3-5.1 3.6.2.2.4.5.6.7 1.9-.7 3.3-1.7 4.9-3.3l.4-.4-.8-.6zm0-5.9l-.7-.5c-.4.8-2.1 2.1-3.4 2.7.2.2.4.4.5.7 1.4-.7 2.2-1.4 3.3-2.5l.3-.4zm-6.7 3.1c-.2-.8-.4-1.2-.7-1.9l-.7.2c.3.6.6 1.2.7 1.9l.7-.2zm-3.3-1.3c.3.5.6 1.2.8 1.9l.7-.3c-.2-.7-.5-1.2-.8-1.8l-.7.2zm5-2.5c-1 .5-3.7 1.1-5.4 1.1.2.2.3.4.3.7 1.8-.2 3.5-.5 4.9-1 .4-.1.7-.2.8-.2l-.6-.6zm-2.8 6.1c-.6 1.1-1.5 2.1-2.6 2.9.2.2.4.4.5.7 1.1-.9 1.7-1.7 2.4-3v3.1c0 .6 0 .9-.1 1.2h.9c-.1-.3-.1-.8-.1-1.2V111.2c.5.9 1.1 1.6 1.9 2.2.1-.3.2-.4.4-.6-.8-.5-1.7-1.3-2.1-2.1h1.1c.5 0 .8 0 1.1.1v-.8c-.2 0-.5.1-1.1.1h-1.3v-.2c0-.4 0-.7.1-.9h-.8c0 .2.1.5.1.9v.2h-1.5c-.6 0-.9 0-1.1-.1v.8c.3-.1.6-.1 1.1-.1h1.1zm-5.5-.2c-.7.9-1.4 1.6-2.3 2.3-.6-.4-1.1-.8-1.7-1.2l-.6.5c.7.4 1.2.7 1.6 1.2-1.5.9-3.5 1.6-5.2 1.8.2.3.3.4.5.8 4.1-1 6.6-2.5 8.6-5.1l.2-.2.2-.2-.4-.5c-.3 0-.7.1-1.1.1h-2.2c.2-.2.4-.4.8-.9l-.8-.3c-.9 1.5-2.8 2.7-5.2 3.5.2.2.3.3.5.6 1.8-.7 3-1.4 4-2.3h3.1zm-6.3-2.8c.6.3 1.2.8 1.6 1.1-1.3.9-2.9 1.6-4.4 2 .2.2.4.5.4.7 3.4-1.1 6-2.9 8.1-5.7l-.4-.5c-.2 0-.7.1-1.1.1h-2.3c.2-.2.2-.3.4-.4.2-.2.3-.3.3-.4l.1-.1-.9-.2c-.6 1.2-2.7 2.9-4.5 3.6.2.2.4.4.5.6 1.3-.6 2.5-1.4 3.5-2.4h3.3c-.7.9-1.3 1.5-2.3 2.2-.5-.4-1-.7-1.6-1.1l-.7.5zm-10.3-1.1c0 2.5-.5 4.2-1.3 5.6-.5.8-.9 1.1-1.4 1.1-.6 0-1.3-.8-1.3-2.4 0-1.9 1.3-4 4-4.3m1.4 8.5c2.6-.8 4.1-2.4 4.1-4.9 0-2.7-2.3-4.4-4.9-4.4-3.4 0-5.5 2.5-5.5 5 0 2.1 1 3.3 2.1 3.3.8 0 1.5-.4 2.2-1.5.9-1.6 1.4-3.5 1.4-6.1 2 .1 3.8 1.3 3.8 3.6 0 2-1.2 3.4-3.8 4.1l.6.9zm-8.4-10.2c.5 0 .9.4.9.9s-.4.9-.9.9-.8-.4-.8-.9.3-.9.8-.9m-8.9 1.5v.8h7.6c-.7 3.4-2.8 6-6.2 7.3l.5.7c.4-.2.8-.3 1.2-.5.5-.2.9-.5 1.3-.8 1.7-1.2 3-2.9 3.7-4.9.2-.6.4-1.2.5-1.9h.3c.8 0 1.5-.7 1.5-1.5s-.7-1.5-1.5-1.5-1.5.7-1.5 1.5c0 .2 0 .5.1.6h-7.5zm-10.5 4.1h9.9v-.9h-9.9v.9zm-6.9-5.1v9.1l.5.4c2.1-.8 3.6-1.9 4.9-3.5l-.6-.7c-1.2 1.5-2.6 2.5-3.9 3.1v-8.3h-.9zm-3.5.3v2.7c0 2.8-.7 4.6-2.4 5.9l.6.6c2-1.6 2.7-3.5 2.7-6.6v-2.6h-.9zm-4.7-1.5c.5.7.8 1.3 1.2 2.1l.7-.3c-.3-.7-.7-1.5-1.2-2.1l-.7.3zm-1.4.5c.5.6.8 1.4 1.1 2.2l.7-.3c-.2-.7-.7-1.6-1.2-2.2l-.6.3zm-3.9 2.2c.4-.6.6-1.1.9-1.7l-.9-.3c-.8 2.1-2.2 3.8-3.8 5l.6.5c1-.7 1.9-1.7 2.7-2.7h4.2c-1.1 3.2-3.2 5.6-6.4 7l.6.7c3-1.4 5.6-3.9 6.8-7.9l-.5-.6h-4.2zm-13.3 4.5c.3.8.4 1.5.5 2.6l.7-.2c-.2-1.1-.4-1.9-.6-2.6l-.6.2zm-2.7-.2c-.1 1.3-.3 2.5-.6 3.3l.7.3c.3-.7.6-2.2.7-3.5l-.8-.1zm8.7-5.4c-.6.9-1 1.4-1.7 2-.7-.6-1.2-1.2-1.6-2h3.3zm.6.4c.1-.2.2-.3.2-.4l.2-.2-.5-.5c-.2 0-.5.1-.9.1h-3.4c-.6 0-1 0-1.2-.1v.8c.2 0 .6-.1.9-.1.4.9 1 1.7 1.8 2.5-.7.5-1.5.9-2.5 1.2.1.1.3.4.4.7 1-.4 1.8-.8 2.6-1.4.9.7 2 1.2 3.1 1.6.1-.4.2-.5.4-.7-1.1-.3-2-.7-2.9-1.3.6-.5 1.2-1.2 1.6-1.8l.2-.4zm-2.1 5.3v-.5c0-.6 0-1.1.1-1.3h-.9c.1.2.1.7.1 1.3v.5h-1.1c-.6 0-.9 0-1.1-.1v.8h2.2v2.2H196c-.5 0-.9 0-1.2-.1v.8c.3-.1.7-.1 1.2-.1h4.3c.5 0 .9 0 1.2.1v-.8c-.2.1-.6.1-1.2.1h-1.9v-2.2h2.5v-.8c-.3 0-.6.1-1.1.1h-1.3zm-7.8-.8l.5-.1.7-.1h.8v3.9c0 .5 0 .9-.1 1.2h.9c-.1-.3-.1-.7-.1-1.2v-4c.5 0 .6-.1 1.1-.1.1.3.1.4.2.8l.6-.3c-.3-.8-.5-1.4-1-2.4l-.6.3c.3.5.3.6.5 1.1-.6.1-1.1.1-1.9.2.4-.5 1.2-1.6 1.7-2.4.4-.5.5-.8.6-.9l.2-.3-.7-.4c-.2.5-.3.8-1.2 2.2-.2-.3-.4-.5-.8-.9.4-.6.8-1.3 1.2-2 .1-.3.2-.3.3-.5l-.8-.3c0 .3-.6 1.4-1.1 2.3l-.6-.6-.4.6c.5.4 1.3 1.3 1.8 2-.2.3-.2.3-.9 1.1h-1l.1.8zm-9.6-.5h6.3v3.7h-6.3v-3.7zm0-4.2h6.3v3.4h-6.3v-3.4zm-.8 8.2c0 .6 0 1-.1 1.3h.9v-.8h6.3v.8h.9c0-.3-.1-.8-.1-1.3v-7.8c0-.4 0-.8.1-1.1-.3.1-.7.1-1.3.1h-5.5c-.6 0-1 0-1.3-.1 0 .3.1.7.1 1.2v7.7zM305.3 126.7c0-.5 0-.8.1-1.2-.3 0-.8.1-1.2.1h-1.6c-.6 0-1 0-1.2-.1v.8c.3 0 .7-.1 1.2-.1h2v2.7h-3.2c0 .3.1.7.1 1.3v3c0 .9.3 1.1 1.9 1.1 1.2 0 1.8-.1 2.1-.4.2-.3.3-.8.4-1.9-.2-.1-.5-.2-.8-.4v.4c0 .7-.1 1.2-.3 1.3-.2.2-.6.2-1.4.2-1 0-1.1-.1-1.1-.5v-3.5h3.2c0-.3-.1-.7-.1-1.3v-1.5zm4.7.9c-.1 1.7-.6 3.2-1.4 4.4-.8-1.2-1.2-2.4-1.4-3.8l.3-.6h2.5zm1 0c.6 0 .8 0 1.1.1v-.8c-.2 0-.6.1-1.2.1h-3.2c.1-.4.3-.9.4-1.3.1-.5.2-.7.2-.7l-.8-.2c-.2 2-1.1 4.4-2.3 5.6.2.1.5.3.6.5.3-.4.6-.8 1-1.5.2 1.3.6 2.3 1.4 3.5-.9 1-2.3 2-3.6 2.5.2.2.4.5.5.7 1.4-.6 2.7-1.5 3.6-2.6.7.9 1.9 1.9 3.1 2.5.1-.3.3-.5.5-.8-1.2-.5-2.3-1.4-3.1-2.4 1-1.4 1.6-3.1 1.7-5.1h.1zm-17.2-.8h-3.5c-.6 0-1.1 0-1.4-.1v.9c.3-.1.8-.1 1.4-.1h2.6c0 1.5-.3 2.8-.7 3.9-.6 1.6-1.8 2.9-3.4 3.6.3.2.4.4.6.7 2.3-1.3 3.5-3.1 4-5.7h3.8c-.1 1.6-.2 2.7-.4 3.7-.2.9-.3 1-.8 1s-1.1-.1-1.8-.2c.1.3.2.5.2.9.6.1 1.3.1 1.6.1 1 0 1.3-.2 1.5-1 .3-.8.5-2.7.6-4.5 0-.5 0-.6.1-.8-.3.1-.6.1-1.3.1h-3.3c.1-.6.1-1 .2-1.7h4.6c.7 0 1.1 0 1.4.1v-.9c-.3.1-.8.1-1.4.1h-3.7v-.9c0-.4 0-.9.1-1.1h-1c.1.2.1.6.1 1.1v.8zm-8.6 5c-.9-.3-1.8-.4-2.8-.4-2.4 0-3.3 1-3.3 2 0 1.4 1.4 2.1 3.8 2.1.6 0 1.3 0 2-.1v-.4l-.1-.5c-.7.1-1.4.1-2 .1-2.1 0-2.8-.5-2.8-1.3 0-.6.6-1.3 2.5-1.3 1.2 0 2.4.2 3.6.8.2-.1.4-.4.5-.7-.8-.8-1.5-1.7-2-2.7.9-.2 1.7-.3 2.6-.6 0-.3-.1-.6-.2-.8-.9.3-1.9.5-2.8.6-.3-.5-.5-1-.7-1.5l3-.6c0-.3 0-.6-.1-.8-1.1.3-2.1.5-3.2.7-.2-.5-.4-1-.5-1.6-.3 0-.6.1-.8.2.2.5.3 1 .5 1.5-1.2.2-2.5.3-3.7.3v.1c0 .2 0 .5.1.7 1.4-.1 2.7-.2 3.9-.3.2.5.5 1 .7 1.5-1.3.2-2.7.3-4.1.4v.2c0 .2 0 .5.1.7 1.5-.1 3-.2 4.4-.5.5 1 1 1.7 1.4 2.2zm-18.5 2.5c0 .6 0 1.2-.1 1.5h.8V128c.4-.8.7-1.7 1-2.6.1-.2.1-.3.2-.5l-.8-.2c-.3 1.8-1.2 3.8-2.3 5.1.2.2.2.3.5.7.4-.5.6-.9.9-1.4v5.2zm4.2-5.4h1.4v.9h-1.4v-.9zm0 1.4h1.4v1h-1.4v-1zm-.7 1h-1.3v-1h1.3v1zm0-1.5h-1.3v-.9h1.3v.9zm0-2.8h-1.1c-.5 0-.8 0-1-.1v.7h2.1v.8h-1.9v3.6h1.9v.8h-2v.7c.3 0 .5-.1 1-.1h1v1c-.7.1-1.6.1-2 .1h-.3l.2.8c.3 0 .3-.1.7-.1 1.2-.1 2.4-.3 3.8-.5v-.7c-.7.1-1 .2-1.7.3v-1h.9c.5 0 .7 0 1 .1v-.7H271v-.8h2.1v-2.6-1h-2v-.8h2.1v-.7c-.3 0-.6.1-1 .1h-1.1v-.9c1-.2 1.3-.2 2-.5l-.4-.6c-.7.4-2.3.7-4.1.8.2.3.2.4.3.6.8-.1 1.1-.1 1.6-.2v.9zm4.8.5v-.3-1.2c0-.6 0-.9.1-1.1h-.9c.1.4.1.6.1 1.4v1.2h-.2c-.4 0-.6 0-.8-.1v.8c.3-.1.5-.1.8-.1h.2c-.1 3.6-.7 5.7-2 7.1.2.1.4.2.6.5.5-.5 1-1.6 1.3-2.6.5-1.6.6-2.5.7-5h1c0 3.1-.1 4.4-.3 5.5-.2 1.1-.3 1.3-.6 1.3s-.6 0-1.1-.1c.1.2.1.5.1.8.5 0 .8.1 1 .1.7 0 .9-.2 1.1-1.1.2-.9.3-2.9.4-5.5 0-1.3 0-1.4.1-1.7H275zm-13.5-.5c-2.3 1.4-3 2.8-3 4.3 0 2 1.4 3.4 4.6 3.8.1-.3.2-.7.2-1-2.9-.4-4-1.4-4-3 0-1.1.6-2.4 2.4-3.5.7-.5 1.5-.7 2.6-.9v-.2c0-.2 0-.4-.1-.6-3.1.2-6.1.5-9.4.8v.2c0 .2 0 .5.1.7 2.7-.2 4.7-.5 6.6-.6zm-10.6-1.1c.5.6.9 1.3 1.3 2l.7-.4c-.3-.6-.9-1.5-1.4-2l-.6.4zm-1.4.7c.5.6 1 1.3 1.3 2.1l.7-.4c-.3-.7-.8-1.5-1.3-2.1l-.7.4zm-4.1 5.1c0 2.7 1.4 3.5 3.1 3.5 1.8 0 3.3-.8 4.7-3.5l-.7-.8c-1.2 2.5-2.5 3.4-4 3.4-1.4 0-2.2-.7-2.2-2.7v-.6c0-1.5.1-3.4.2-5.6-.2-.1-.4-.1-.6-.1h-.4c-.1 2.1-.1 3.9-.1 5.6v.8zm-13.1-1.3c.2 0 .5-.1.8-.1h.7v2.9c-.6.6-1.4 1.3-1.7 1.4l.4.8c1-.9 1.1-1 1.6-1.6.4.6.7.9 1.2 1.1.8.4 1.5.5 3.9.5 1.2 0 2.6 0 4-.1 0-.3.2-.6.3-.9-1.4.2-3 .3-4.9.3-1.7 0-2.5-.1-3-.4-.5-.3-.8-.6-1-1.1v-2.4c0-.5 0-1 .1-1.3-.3 0-.6.1-.9.1h-.6c-.4 0-.6 0-.9-.1v.9zm.1-4.9c.7.7 1.4 1.4 1.9 2.2l.6-.6c-.5-.7-1.2-1.5-2-2.2l-.5.6zm9.7 5.6h-2.6v-1.2h2.6v1.2zm-5.5-1.3h2.3v1.2h-2.3v-1.2zm2.3-.5h-2.3v-1.2h2.3v1.2zm.7-1.2h2.6v1.2h-2.6v-1.2zm-2.5-.6c-.5 0-1 0-1.3-.1v5.3c0 .6 0 1-.1 1.3h.9c-.1-.2-.1-.6-.1-1.3v-.9h2.3v.8c0 .6 0 1.1-.1 1.3h.8c0-.3-.1-.7-.1-1.3v-.8h2.6v1.2c0 .3-.1.3-.4.3-.3 0-.6 0-1-.1.1.2.2.4.2.7h.9c.8 0 1-.2 1-.9v-4-1.5c-.3 0-.7.1-1.3.1h-1.6c.7-.4 1.8-1.1 2.4-1.6l.3-.2-.3-.4h-5.5c-.7 0-1 0-1.3-.1v.8c.3 0 .7-.1 1.2-.1h4.5c-.6.5-1 .8-1.9 1.3-.6-.5-1.1-.8-1.6-1.1l-.6.4c.4.2 1.2.7 1.6 1h-1.5zm-14 2c.5-.6 1-1.3 1.4-2 1.3-.1 2.5-.1 3.8-.2v-.8c-1.1.1-2.3.2-3.4.3.2-.5.5-1.1.7-1.6-.2-.1-.6-.2-.9-.2-.2.7-.5 1.3-.7 1.9h-3v.8c.9 0 1.7 0 2.6-.1-.7 1.4-1.7 2.6-3 3.7.1.2.3.5.5.6 2-1.7 3-2.3 3.9-2.3.6 0 .9.2 1 1-2.3 1-3.1 2-3.1 3 0 1.2.9 1.8 3.2 1.8 1.2 0 2.3-.1 3.5-.3v-.1c0-.3 0-.6-.1-.8-1.2.3-2.4.4-3.4.4-1.8 0-2.4-.4-2.4-1.2 0-.7.7-1.4 2.4-2.1v2.1h.8c0-.9 0-1.6-.1-2.5 1.1-.4 2.6-.8 3.6-1.1 0-.3-.2-.7-.3-.9-1.2.4-2.3.8-3.4 1.2-.2-.9-.7-1.4-1.6-1.4-.5.2-1.3.5-2 .8zm-9.9-1.4v1.2c0 2.7-1.1 4.4-3.7 5.4l.5.7c2.7-1.1 4.1-3 4.1-6.1v-1.2h-.9zm5.2-2.1h-9.2v.8h8.6c-.5 1-1.4 2.2-2.6 3l.7.6c1.3-.9 2.3-2.2 3-3.8l-.5-.6zm-12.7 3.9c.9-.6 1.7-1.4 2.5-2.2l-.7-.6c-1.8 2.1-3.9 3.5-6.6 4.5l.4.7c1.3-.5 2.5-1 3.6-1.8v5.2h.9v-5.8zm-7.1-5.3c.4.7.8 1.4 1.1 2.2l.7-.3c-.3-.7-.7-1.6-1.2-2.2l-.6.3zm-1.4.5c.4.7.8 1.4 1 2.2l.7-.3c-.2-.7-.6-1.6-1.1-2.2l-.6.3zm-7 1.7h7v-.8h-7v.8zm-1.1 3h4.6c-.1 2.5-1.2 4.2-3.2 5.1l.6.7c2.3-1.2 3.5-3.1 3.5-5.9h4.3v-.7h-9.8v.8zm-2.6-4.2c-.5 1.6-1.1 3-1.9 4.2-1-.7-2-1.3-2.9-1.8l-.5.7c.9.5 1.9 1.1 2.9 1.9-1.2 1.7-2.9 3.1-4.8 4.1l.5.6c2-1 3.6-2.4 5-4.2.9.7 1.7 1.5 2.4 2.3l.6-.7c-.7-.8-1.6-1.5-2.5-2.3.8-1.2 1.5-2.7 2-4.4l-.8-.4zM282.7 150.5c.3 0 .4-.1.9-.1h.8v2.9c-.6.6-1.5 1.3-1.9 1.5l.4.8.3-.3c.8-.6 1.1-.9 1.6-1.4.4.6.7.9 1.3 1.1.7.3 1.5.4 3.4.4 1.1 0 2.9 0 4.2-.1 0-.3.2-.6.3-.9-1.1.2-2.6.2-4.2.2-1.7 0-2.7-.1-3.2-.3-.6-.2-1-.6-1.2-1.1V151c0-.6 0-.9.1-1.3-.3 0-.6.1-.9.1h-.6c-.5 0-.6 0-.9-.1v.8zm.1-4.8c.6.5 1.3 1.4 1.9 2.2l.6-.5c-.5-.7-1.2-1.5-1.9-2.1l-.6.4zm4.5 6.2h4.5v1.1h-4.5v-1.1zm.1-1.7h4.5v1h-4.5v-1zm0-1.6h4.5v1h-4.5v-1zm-.3-2.3c-.6 0-1 0-1.2-.1v.8h3.2c-.1.3-.3.7-.5 1h-2.1c0 .2.1.8.1 1.2v4.6h6c0-.3-.1-.8-.1-1.3v-3.3c0-.4 0-.9.1-1.2h-3.2l.5-1h2.3c.4 0 .9 0 1.2.1v-.8c-.2.1-.6.1-1.2.1h-1.1c.2-.3.6-.7.9-1.2l-.7-.3c-.2.4-.6 1-.9 1.5h-1.3c-.4-.7-.6-1-1-1.5l-.7.3c.3.4.7.9.9 1.2h-1.2zm-15.1 4.3c-.2-.7-.3-1-.5-1.6l-.6.2c.2.4.4 1.1.5 1.6l.6-.2zm1.9.3c.2-.4.5-1.1.6-1.7l-.7-.2c-.1.7-.3 1.2-.6 1.9h-2.3c-.5 0-.7 0-1-.1v.8c.3 0 .5-.1 1-.1h1.5v1.2h-2.1v.8c.2 0 .5-.1.9-.1h1.2v1.2c0 .5 0 .8-.1 1.2h.9c-.1-.4-.1-.7-.1-1.1v-1.3h1.1c.4 0 .6 0 .9.1v-.8h-2v-1.2h1.3c.5 0 .7 0 1 .1v-.8c-.2 0-.5.1-1 .1h-.5zm-.8-2.7V147h1.9v-.8h-1.9v-.4c0-.4 0-.7.1-1h-.9c0 .2.1.7.1 1v.4h-2v.8h2v1.2h-1.5c-.4 0-.7 0-1-.1v.8h5.5v-.8c-.2.1-.5.1-1 .1h-1.3zm6.5 1.7c-.2 1.1-.6 2.1-1 2.9-.5-.8-.8-1.5-1.2-2.9h2.2zm-2.8 0c.4 1.5.8 2.7 1.4 3.5-.4.6-1.1 1.3-1.7 1.8l.6.6c.6-.5 1.1-1.1 1.6-1.8.6.8 1.2 1.3 2 1.8.1-.2.3-.5.5-.7-.8-.5-1.4-1-2-1.8.5-.9.9-2 1.2-3.3.1-.3.1-.4.2-.5l-.5-.5c-.2 0-.5.1-1 .1h-2.7V146h3.4c-.1 1.4-.2 1.6-.6 1.6-.3 0-.8-.1-1.4-.2.1.2.1.4.2.7.5 0 .8.1 1.2.1.6 0 .9-.1 1-.4.2-.2.3-.8.4-1.7V145.2h-3.8c-.5 0-.9 0-1.2-.1 0 .3.1.7.1 1.1v8.2c0 .5 0 .8-.1 1.2h.9c-.1-.4-.1-.8-.1-1.2v-4.8h.4zm-16.8-4.2c-.5 2.5-.6 4.3-.6 6.1 0 .9.1 2.2.3 3.5h.2c.2 0 .4-.1.6-.1-.2-1.3-.2-2.5-.2-3.3 0-1.7.2-3.5.6-6-.3-.1-.6-.2-.9-.2m3.3 1.4v.3c0 .2 0 .4.1.6 1-.2 2.2-.3 3.1-.3.7 0 1.2 0 1.6.1 0-.2.1-.4.1-.6v-.3c-.5-.1-1-.1-1.7-.1-1-.1-2.2 0-3.2.3m5.2 6.4c-.9.2-1.8.2-2.6.2-1.6 0-2.3-.4-2.5-1.4-.3 0-.5.1-.7.2.2 1.3 1.1 2.1 3.2 2.1.9 0 1.7-.1 2.7-.3v-.3c0-.1-.1-.4-.1-.5m-12.8-2.3c-1-.3-1.6-.4-2.7-.4-2.3 0-3.3 1.3-3.3 2.3 0 1.6 1.3 2.5 4.2 2.5.7 0 1.2 0 1.8-.1v-.2c0-.2 0-.5-.1-.7-.6 0-1 .1-1.7.1-2.5 0-3.3-.7-3.3-1.7 0-.7.6-1.5 2.5-1.5 1.3 0 2.5.3 3.8.9.2-.1.4-.4.5-.7-1.2-1.1-2-2.3-2.7-3.5 1.1-.2 2.2-.4 3.1-.6v-.1c0-.3-.1-.5-.2-.7-1.1.3-2.2.5-3.4.7-.4-.8-.7-1.6-1-2.5h-.1c-.2 0-.5 0-.8.1.3.9.6 1.7 1 2.5-1.4.2-2.8.3-4.2.3v.2c0 .2 0 .5.1.7 1.5 0 3.1-.2 4.5-.4.7 1.1 1.3 2 2 2.8zm-9.7-5.9c.5.6 1 1.2 1.4 2l.7-.4c-.3-.6-.9-1.4-1.5-2l-.6.4zm-1.4.7c.5.6 1 1.3 1.3 2l.7-.4c-.3-.7-.8-1.5-1.4-2l-.6.4zm-4.3.3c1.1.3 2.5.8 3.5 1.6.2-.3.4-.5.5-.8-1.1-.7-2.5-1.2-3.6-1.5-.2.1-.4.3-.4.7m-1 5.1c-.8.9-1.8 1.8-2.7 2.3.1.3.3.6.5.8.9-.6 2-1.5 2.6-2.3l-.4-.8zm5.6-.3c.8.8 1.4 1.9 1.8 3.2.3-.1.7-.3.9-.5-.5-1.2-1.2-2.3-2-3.1-.2 0-.5.2-.7.4m-5 4c.5.2 1.1.3 1.7.3 1.4 0 2.1-.8 2.1-2 0-.7-.3-1.4-1.4-2.3-.6-.5-.7-.8-.7-1.2 0-.4.1-.8.3-1.4-.2-.1-.5-.2-.7-.2-.3.6-.4 1.2-.4 1.6 0 .6.4 1.1.9 1.6.8.7 1 1.2 1 1.7 0 .8-.4 1.1-1.3 1.1-.5 0-1-.1-1.6-.3v1.1zm-9.8-.6c4-.6 5.8-2.1 5.8-4.5 0-1.6-1.2-3-3.7-3-1.3 0-2.8.2-6.1 1 0 .3.1.6.2.8 3.3-.9 4.7-1.1 5.9-1.1 1.9 0 2.7.9 2.7 2.2 0 2-1.9 3.2-5.2 3.6l.4 1zm-12.5-4.9c.5-.6 1-1.3 1.4-2 1.3 0 2.5-.1 3.8-.2v-.8c-1.1.1-2.3.2-3.4.3.2-.5.5-1.1.7-1.6-.2-.1-.6-.2-.9-.2-.2.7-.5 1.3-.7 1.9h-3v.8c.9 0 1.7 0 2.6-.1-.7 1.4-1.7 2.6-3 3.7.1.3.3.5.5.6 2-1.7 3-2.3 3.9-2.3.6 0 .9.2 1 1-2.3 1-3.1 2-3.1 3 0 1.2.9 1.8 3.2 1.8 1.2 0 2.3-.1 3.5-.3v-.1c0-.3 0-.6-.1-.8-1.2.3-2.4.4-3.4.4-1.8 0-2.4-.4-2.4-1.2 0-.7.7-1.4 2.4-2.1v2.1h.8c0-.9 0-1.6-.1-2.5 1.1-.4 2.6-.8 3.6-1.1 0-.3-.2-.7-.3-.9-1.2.3-2.3.8-3.4 1.2-.2-.9-.7-1.4-1.6-1.4-.6.2-1.3.5-2 .8zm-5.2 1.2c-.2.1-.6.1-1.4.1h-5.4c-.5 0-1 0-1.4-.1v.9c.5-.1.8-.1 1.4-.1h6.1l-2.4 2.9c-.3.4-.7.8-1 1l.9.5c.2-.3.4-.6.8-1.1l2.4-3c.2-.3.4-.4.5-.6l-.5-.5zm-6.6-1.4H211.1v-.8h-5.2v.8zm2.1-4.6c-.9 1.6-3.1 3.4-5.2 4.3.2.2.4.5.5.7 2.2-1.1 3.8-2.4 5.2-4.2 1.1 1.6 3 3.1 5.3 4.3.1-.3.3-.5.5-.8-2.1-.8-4.5-2.7-5.4-4.2h-.9zm-12.1 2.1c0 2.5-.5 4.2-1.3 5.6-.4.8-.9 1.1-1.4 1.1-.6 0-1.3-.8-1.3-2.4 0-1.9 1.3-4 4-4.3m1.5 8.5c2.6-.8 4.1-2.4 4.1-4.9 0-2.7-2.3-4.4-4.9-4.4-3.4 0-5.5 2.5-5.5 5 0 2.1 1 3.3 2.1 3.3.8 0 1.5-.4 2.2-1.5.9-1.6 1.4-3.5 1.4-6.1 2 .1 3.8 1.3 3.8 3.6 0 2-1.2 3.4-3.8 4.1l.6.9zm-13.4-3.9h-2.8V150h2.8v1.5zm.7-1.5h3.1v1.5h-3.1V150zm1.4-2.2h-3.3v-1h3.3v1zm.7-1.1h1.6c.6 0 1.1 0 1.4.1v-.8c-.3 0-.8.1-1.4.1h-1.6v-.2c0-.3 0-.7.1-.9h-.9c.1.2.1.6.1.9v.2h-3.3v-.2c0-.3 0-.6.1-.9h-.9c.1.3.1.6.1.9v.2h-1.5c-.6 0-1.1 0-1.4-.1v.8c.3 0 .7-.1 1.4-.1h1.5v.8c0 .4 0 .6-.1.9h2v1h-2.3c-.6 0-1 0-1.3-.1 0 .3.1.6.1 1.1v.8c0 .4 0 .8-.1 1 .2 0 .7-.1 1.4-.1h2.2v1.1h-3.5c-.6 0-1 0-1.4-.1v.8c.3 0 .8-.1 1.4-.1h3.5v.7c0 .6 0 .9-.1 1.3h.9c-.1-.4-.1-.9-.1-1.3v-.5h3.7c.5 0 1.1 0 1.4.1v-.8c-.4 0-.7.1-1.4.1h-3.6v-1.1h2.5c.7 0 1.2 0 1.4.1 0-.3-.1-.6-.1-1v-.8c0-.4 0-.8.1-1.1-.3 0-.7.1-1.3.1h-2.6v-1h2.1c0-.2-.1-.6-.1-.9v-1zM463.2 88c.5.6 1 1.2 1.4 2l.7-.4c-.3-.6-.9-1.4-1.5-2l-.6.4zm-1.4.8c.6.6 1 1.3 1.3 2l.7-.4c-.3-.7-.8-1.5-1.4-2l-.6.4zm-.7-2c-2.3 1.4-3 2.8-3 4.3 0 2 1.4 3.4 4.6 3.8.1-.3.2-.7.2-1-2.9-.4-4-1.4-4-3 0-1.1.6-2.4 2.4-3.5.7-.5 1.5-.7 2.6-.9v-.2c0-.2 0-.4-.1-.6-3.1.2-6.1.5-9.4.8v.2c0 .2 0 .5.1.7 2.6-.3 4.7-.5 6.6-.6zm-6.6 7.8c-.9-2.1-1.8-3.6-3-5l-.7.4c.6.8 1.3 1.8 1.9 2.9-2.1.4-3.9.6-6 .8 1-2.5 1.9-5.1 2.7-8.2l-.9-.2c-.8 3.2-1.6 5.8-2.7 8.5-.5 0-.9 0-1.4.1l.1.9c3.4-.3 6.1-.7 8.6-1.1.2.5.4.9.6 1.4l.8-.5zm-15.2-7.8v-2h-.9v2h-3.7v3.5h.9v-2.7h6.9c-.4 3.3-2.1 5.7-5.6 6.8l.5.8c3.9-1.4 5.6-3.8 6.1-7.9l-.5-.5h-3.7zm-8.4-2.3c.4.7.8 1.4 1.1 2.2l.7-.3c-.3-.7-.7-1.6-1.2-2.2l-.6.3zm-1.4.5c.5.7.8 1.4 1 2.2l.7-.3c-.2-.7-.6-1.6-1.1-2.2l-.6.3zm-6.3 10.1c4.2-.7 7.2-2.5 9-6.4l-.7-.6c-1.7 3.6-4.6 5.5-8.5 6.1l.2.9zm-.6-6c.9.4 2 .9 3 1.6l.4-.8c-.9-.6-2-1.1-3-1.5l-.4.7zm1.1-3c.9.4 1.9.9 2.9 1.5l.5-.8c-.9-.6-1.9-1.1-2.9-1.4l-.5.7zm-6 3.8c.7 1 1.5 2.5 2 3.9l.9-.4c-.5-1.4-1.3-2.8-2.2-3.9l-.7.4zm-6.8 4.1c1-1.2 1.6-2.5 2.1-4.2l-.9-.3c-.5 1.6-1.1 2.9-2 4l.8.5zm8.8-9.2c.5 0 .9.4.9.9s-.4.9-.9.9-.8-.4-.8-.9c-.1-.5.3-.9.8-.9m.1 2.4c.7-.1 1.3-.7 1.3-1.5s-.7-1.5-1.5-1.5-1.5.7-1.5 1.5c0 .7.5 1.3 1.2 1.4h-3.5v-2.3h-.8v2.3h-4.2v.8h4.2V94c0 .3-.1.4-.5.4s-.9 0-1.4-.1l.1.8c.5.1 1 .1 1.4.1.9 0 1.2-.3 1.2-1.1v-6.3h3.9v-.6zm-20 7.6c4.1-.9 7.2-3.1 8.7-7l-.8-.5c-1.4 3.8-4.4 5.9-8.1 6.7l.2.8zm-.5-8.3c1 .7 1.9 1.5 2.8 2.5l.7-.7c-.9-.9-1.9-1.7-2.9-2.4l-.6.6zM388.8 95c4.2-.7 7.2-2.5 9-6.4l-.7-.6c-1.7 3.6-4.6 5.5-8.5 6.1l.2.9zm-.5-6.1c.9.4 2 .9 3 1.6l.4-.8c-.9-.6-2-1.1-3-1.5l-.4.7zm1-2.9c.9.4 1.9.9 2.9 1.5l.5-.8c-.9-.6-1.9-1.1-2.9-1.4l-.5.7zm-5.9.5c-.1.2-.3.5-.4.7.9.3 1.9 1 2.7 1.7.2-.2.4-.5.5-.7-.8-.8-1.8-1.4-2.8-1.7m-1 6.3v.5c0 .8-.4 1.3-1.5 1.3-.8 0-1.3-.3-1.3-.9 0-.5.5-1 1.7-1 .4 0 .9.1 1.1.1m.8-.6c-.1-1-.2-2.2-.2-3.6h-.8c0 1.3.1 2.5.2 3.5-.4-.1-.7-.1-1-.1-1.5 0-2.5.9-2.5 1.8 0 1 .8 1.6 2.2 1.6 1.3 0 2.3-.6 2.3-1.9V93c.7.2 1.5.7 2.3 1.3.3-.2.5-.5.5-.8-1-.6-2-1.1-3-1.3m-4.6-5.2h-2.4v.2c0 .2 0 .4.1.6.7 0 1.4-.1 2.1-.1-.6 1.8-1.5 3.4-2.3 4.7.2.2.5.4.8.5.9-1.5 1.8-3.3 2.5-5.2.7-.1 1.4-.1 2-.2v-.8c-.6.1-1.1.2-1.7.2.2-.6.4-1.3.6-2-.3-.1-.6-.2-.9-.2-.3.8-.5 1.6-.8 2.3m-11.3 4c.5.5.8.9 1.2 1.5l.6-.4c-.3-.5-.7-1-1.2-1.5l-.6.4zm-2.2-4h-.7c-.4 0-.7 0-.8-.1v.8h1.4c-.4 1.6-1.1 3.2-1.8 4 .2.3.4.5.5.8.8-1.2 1.3-2.3 1.6-3.7v5.5c0 .6 0 1.1-.1 1.4h.9c0-.3-.1-.8-.1-1.4v-3.7-2c.2.6.5 1.2.8 1.7.1-.2.3-.5.4-.6-.4-.5-1-1.4-1.1-2H367.3V87c-.2 0-.4.1-.8.1h-.5v-1.2c0-.6 0-1 .1-1.3H365c0 .2.1.6.1 1.3V87zm4.9-.1v1h-1.4c-.5 0-.8 0-1-.1v.8c.3-.1.5-.1 1.1-.1h1.4v1.1h-3v.8c.3-.1.6-.1 1.1-.1h1.9v1.8c-1.1.8-2.7 1.6-3.5 1.9l.4.8.6-.3c1.1-.6 1.5-.8 2.2-1.3l.2-.1.2-.1v1.7c0 .2-.1.3-.4.3-.4 0-.8 0-1.2-.1.1.2.2.5.2.8h1c.9 0 1.2-.2 1.2-.8v-2.3c0-.2 0-.5-.1-.9v-.4c.7 1.8 1.8 2.9 3.4 3.9.2-.3.3-.5.5-.7-.9-.4-1.7-1-2.3-1.7.5-.4 1-1 1.5-1.7l-.6-.4c-.4.6-.8 1.1-1.3 1.6-.5-.6-.7-1.1-1-1.8h2.3c.4 0 .8 0 1.1.1v-.8c-.3 0-.7.1-1.1.1H371v-1.1h1.9c.5 0 .8 0 1.1.1v-.8c-.3 0-.6.1-1.1.1H371v-1h2.2c.4 0 .8 0 1.1.1v-.8c-.2.1-.7.1-1.1.1h-1.1c.3-.4.5-.9.8-1.4l-.7-.3c-.2.5-.5 1.1-.8 1.6H370c-.2-.5-.5-1.1-.9-1.6l-.6.3c.3.5.6.9.8 1.3h-.6c-.4 0-.8 0-1.1-.1v.6c.3-.1.6-.1 1.1-.1h1.3zm-9.3 3.6c-.7.9-1.4 1.6-2.3 2.3-.6-.5-1.1-.8-1.7-1.2l-.7.4c.7.4 1.2.7 1.6 1.2-1.5.9-3.5 1.6-5.2 1.8.2.3.3.4.4.8 4.1-1 6.6-2.5 8.6-5.1l.2-.2.2-.2-.4-.5c-.3 0-.7.1-1.1.1h-2.2c.2-.2.4-.4.8-.9l-.8-.3c-.9 1.5-2.8 2.7-5.2 3.5.2.2.3.3.5.6 1.8-.7 3-1.4 4-2.3h3.3zm-6.3-2.8c.6.3 1.2.8 1.6 1.1-1.3.9-2.9 1.6-4.4 2 .2.2.4.5.4.7 3.4-1.1 6-2.9 8.1-5.7l-.4-.5c-.2 0-.7.1-1.1.1h-2.3c.2-.2.2-.3.4-.5l.3-.3.1-.1-.9-.2c-.6 1.2-2.7 2.9-4.5 3.6.2.2.4.4.5.6 1.3-.6 2.5-1.4 3.5-2.4h3.3c-.7.9-1.3 1.5-2.3 2.2-.5-.4-1-.7-1.6-1.1l-.7.5zM460.4 109.4c.5-.6 1-1.3 1.4-2 1.3-.1 2.5-.1 3.8-.2v-.8c-1.1.1-2.3.2-3.4.3.2-.5.5-1.1.7-1.6-.3-.1-.6-.2-.9-.2-.2.7-.5 1.3-.7 1.9h-3v.8c.9 0 1.7 0 2.6-.1-.7 1.4-1.7 2.6-3 3.7.1.3.3.5.5.6 2-1.7 3-2.3 3.9-2.3.6 0 .9.2 1 1-2.3 1-3.1 2-3.1 3 0 1.2.9 1.8 3.2 1.8 1.2 0 2.3-.1 3.5-.3 0-.3 0-.6-.1-.8-1.2.3-2.4.4-3.4.4-1.8 0-2.4-.4-2.4-1.2 0-.7.7-1.4 2.4-2.1v2.1h.8c0-.9 0-1.6-.1-2.5 1.1-.4 2.6-.8 3.6-1.1 0-.3-.1-.7-.3-.9-1.2.4-2.3.8-3.4 1.2-.2-.9-.7-1.4-1.6-1.4-.6.1-1.3.4-2 .7zm-11.3.9c-.3.9-.6 1.8-1 2.4-.3.5-.6.8-1 .8-.5 0-.7-.3-.7-.9 0-1.1.9-2.1 2.7-2.3m1.9 5.2c1.4-.8 2.4-2.1 3-3.9.6.3 1.2.8 1.8 1.2.2-.3.4-.6.4-.8-.7-.5-1.4-.9-2-1.2.2-.8.3-1.7.3-2.6-.2-.1-.5-.1-.7-.1h-.1c0 .9-.1 1.7-.3 2.4-1-.5-2.1-.8-3.3-.9.4-1.3.8-2.6 1.2-3.8-.1-.2-.4-.3-.6-.4-1.2.2-2.4.3-3.6.3v.3c0 .2 0 .4.1.6 1-.1 2-.2 3.1-.3-.3 1.1-.6 2.2-1 3.4-.5 0-.9.1-1.4.2-1.1.4-2.3 1.2-2.4 2.7 0 1 .6 1.8 1.5 1.8.7 0 1.3-.4 1.8-1.5.3-.6.6-1.4 1-2.5 1 0 2.1.3 3.3.9-.5 1.8-1.4 3-2.8 3.7l.7.5zm-11.8-3.4h3.2v2.5h-3.2v-2.5zm0-3.1h3.2v2.4h-3.2V109zm0-3h3.2v2.3h-3.2V106zm3.9 8.5v-7.9-1.4h-4.7v9.3h-.4c-.4 0-.8 0-1-.1v.8c.3 0 .7-.1 1.1-.1h4.9c.4 0 .9 0 1.2.1v-.8c-.3.1-.6.1-1.1.1zm-6.6-3c.2.6.5 1.7.6 2.4l.6-.2c-.2-.9-.3-1.6-.6-2.4l-.6.2zm-2.6-.2c-.3 1.7-.5 2.5-.9 3.2l.7.3c.4-.9.5-1.4.9-3.4l-.7-.1zm-.6-.6l.4-.1c.1 0 .4 0 .8-.1.2 0 .4 0 .7-.1v3.9c0 .6 0 .9-.1 1.3h.9c0-.3-.1-.7-.1-1.3v-4c.3 0 .7-.1 1.3-.2.1.3.2.4.3.8l.6-.3c-.3-.7-.7-1.5-1.2-2.3l-.6.3c.3.4.3.5.6 1-.8.1-1.2.2-2 .2.5-.6 1.3-1.8 2.2-3.1.2-.3.2-.4.3-.5l-.7-.4c-.1.3-.6 1.1-1.4 2.4-.3-.4-.3-.4-.8-.9.3-.4.6-.9 1.1-1.7.3-.5.3-.6.4-.7l-.8-.3c0 .3-.7 1.6-1.2 2.3-.2-.2-.3-.3-.7-.6l-.4.6c.7.5 1.3 1.2 1.9 2-.4.5-.5.6-.8 1.1h-1l.3.7zm-6.5 4.8c2.5-.9 3.9-2.8 3.9-5.6 0-3-1.1-4.2-2.6-4.2-1.1 0-2.3.9-3.1 3.6h-.1c0-.9.2-2.3.6-4.1-.3 0-.5-.1-.7-.1h-.1c-.4 2.3-.5 4-.5 5v1.6h.8c.1-.8.2-1.6.5-2.5.5-1.6 1.6-2.8 2.5-2.8 1 0 1.7.9 1.7 3.4 0 2.4-1.1 3.9-3.6 4.9l.7.8zm-6.1-8.8c-.3 1.8-.8 3.4-1.6 4.8-.7-1.3-1.2-2.9-1.4-4.8h3zm-3.4-.7c-.4 0-.8 0-1-.1v.8c.2 0 .3 0 .7-.1.3 2.3.7 3.9 1.6 5.5-.7 1.1-1.7 1.9-2.7 2.5.2.2.4.5.5.7 1-.7 1.9-1.5 2.7-2.6.7 1.1 1.4 1.7 2.6 2.5.1-.3.3-.6.5-.8-1.2-.7-2-1.5-2.7-2.4 1-1.6 1.6-3.4 1.9-5.4 0-.4.1-.6.1-.9-.2 0-.6.1-.9.1h-3.3zm-4.7 4.7h2.3v1.6c-.7.2-1.5.4-2.3.6v-2.2zm0-2.4h2.3v1.8h-2.3v-1.8zm0-2.5h2.3v1.8h-2.3v-1.8zm-.8 0v7.2c-.7.1-.9.1-1.1.1l.3.9c.2-.1.3-.1.6-.2 1.3-.3 2.6-.6 3.4-.8v1.4c0 .4 0 1-.1 1.3h.9c0-.3-.1-.7-.1-1.3v-8.7h.9v-.8c-.2 0-.5.1-.9.1h-3.9c-.3 0-.7 0-.9-.1v.8c.2.1.5.1.9.1zm-8.1.9c0 2.5-.5 4.2-1.3 5.6-.4.8-.9 1.1-1.4 1.1-.6 0-1.3-.8-1.3-2.4.1-1.9 1.4-4 4-4.3m1.5 8.5c2.6-.8 4.1-2.4 4.1-4.9 0-2.7-2.3-4.4-4.9-4.4-3.4 0-5.5 2.5-5.5 5 0 2.1 1 3.3 2.1 3.3.8 0 1.5-.3 2.2-1.5.9-1.6 1.4-3.5 1.4-6.1 2 .1 3.8 1.3 3.8 3.6 0 2-1.2 3.4-3.8 4.1l.6.9zm-14.7-6.5c-.2-.6-.3-.8-.6-1.4h3.4c-.2.5-.4 1-.6 1.4h-2.2zm.7.7v.9h-2.4c-.5 0-1 0-1.3-.1v.7c.3 0 .7-.1 1.3-.1h2.4v.9h-3.5c-.7 0-1.1 0-1.4-.1v.8c.4-.1.8-.1 1.4-.1h3c-1.1 1-2.6 1.7-4.5 2.2.2.2.4.4.5.7 2.1-.7 3.5-1.4 4.6-2.6 0 .4-.1.8-.1 1v.8c0 .5 0 .9-.1 1.3h.9c-.1-.3-.1-.7-.1-1.3v-.8c0-.3 0-.6-.1-1 1.2 1.2 2.6 2 4.9 2.7.1-.3.3-.5.5-.8-1.9-.3-3.8-1.2-4.8-2.1h3.2c.6 0 1 0 1.4.1v-.8c-.3 0-.7.1-1.4.1H392v-.9h2.6c.6 0 1 0 1.3.1v-.7c-.3 0-.8.1-1.3.1H392v-.9h3.3c.6 0 1 0 1.3.1v-.8c-.3 0-.7.1-1.3.1h-1.7c.2-.4.4-.8.6-1.4h1.4c.6 0 1.1 0 1.4.1v-.8c-.3 0-.7.1-1.4.1h-.7c.4-.5.6-.8.9-1.4l-.7-.3c-.2.5-.5 1-1 1.7H393v-.9c0-.4 0-.8.1-1h-.8v2H391v-1-1h-.8c.1.3.1.6.1 1v.9h-1c-.3-.6-.6-1-1.1-1.6l-.7.3c.4.4.8.9 1 1.3h-.8c-.6 0-1 0-1.3-.1v.8c.3 0 .8-.1 1.4-.1h1.5c.3.4.5.9.6 1.4H388c-.6 0-1 0-1.3-.1v.8c.3 0 .7-.1 1.3-.1h3.2zm-12.7-4.6c-.9 1.7-3 3.5-5.2 4.5.3.3.4.4.5.7 2.1-1.1 3.9-2.7 5.1-4.4 1 1.6 3 3.2 5.2 4.3.2-.3.2-.5.5-.8-2.2-.9-4.5-2.7-5.3-4.3h-.8zm1.1 9.7v-3.1h2.2c.5 0 1 0 1.2.1v-.9c-.2.1-.6.1-1.2.1h-2.2v-1.4c0-.6 0-1 .1-1.3h-1c.1.3.1.8.1 1.3v5.3h-2.3v-3.1c0-.6 0-1 .1-1.3h-.9c.1.3.1.8.1 1.3v3.1h-.9c-.6 0-1 0-1.4-.1v.9c.3-.1.8-.1 1.4-.1h8.1c.6 0 1.1 0 1.4.1v-.9c-.3.1-.8.1-1.4.1h-3.4zm-18.9-4.2c.2 0 .5-.1.9-.1h.8v3c-.6.6-1.5 1.3-2 1.5l.4.8.4-.4c.5-.4 1-.8 1.5-1.3.4.5.8.9 1.3 1.2.7.3 1.4.4 3.6.4 1.3 0 2.8 0 4-.1.1-.3.1-.5.3-.9-1.2.2-2.6.2-4.9.2-1.5 0-2.2-.1-2.8-.4-.5-.2-.8-.5-1.1-1.1v-2.4c0-.6 0-1 .1-1.3-.2 0-.6.1-.9.1h-.6c-.4 0-.7 0-.9-.1v.9zm.3-4.9c.8.7 1.3 1.3 1.9 2.2l.6-.5c-.5-.7-1.2-1.5-2-2.2l-.5.5zm6.8 3.2h-2.3v-1.4h2.3v1.4zm0 2h-2.3v-1.4h2.3v1.4zm0 2.1h-2.3v-1.5h2.3v1.5zm.7-1.5h2.4v-.7h-2.4v-1.4h1.2c.6 0 .9 0 1.2.1v-.7c-.2 0-.6.1-1.2.1h-1.2v-1.4h2.8v-.8c-.2 0-.6.1-1.1.1h-1.6c.2-.3.4-.7.5-.9.2-.5.3-.6.4-.7l-.8-.2c-.1.4-.4 1-.8 1.8h-2.1c.2-.3.3-.6.5-1.1l.2-.5.1-.2-.8-.2-.1.5c-.5 1.4-1.3 2.5-2.4 3.6.3.2.3.2.5.5.4-.3.8-.9 1.1-1.3V112.1c0 .6 0 .9-.1 1.2.3 0 .6-.1 1-.1h4.7c.5 0 .9 0 1.2.1v-.8c-.3.1-.6.1-1.2.1h-1.8v-1.4zm-15.5-3.7v2.2h-3.7c-.5 0-1 0-1.2-.1v.9c.3-.1.7-.1 1.2-.1h2.2c0 2.5-1.1 3.9-3.7 4.7l.1.2.1.2.2.4c2.9-1.1 4-2.6 4-5.5h1.8v4.3c0 .7.4.8 1.8.8 1.6 0 2-.1 2.3-.7.2-.4.3-.9.4-1.9-.3-.1-.6-.2-.8-.3 0 1-.1 1.5-.2 1.8-.2.3-.5.4-1.5.4s-1.2 0-1.2-.4v-4.1h2.6c.6 0 .9 0 1.3.1v-.9c-.3 0-.7.1-1.3.1h-3.8v-2.2h2.9c.5 0 .9 0 1.2.1v-.9c-.3 0-.6.1-1.2.1h-2.9v-1c0-.4 0-.8.1-1.1h-.7c0 .3.1.7.1 1.1v1h-2.2c.2-.3.3-.6.4-1 .1-.2.2-.5.2-.6l-.9-.2c-.2 1.3-1.1 2.9-2.2 3.8.2.1.4.3.6.5.6-.6.9-1 1.3-1.7h2.7zM447 131.2c-1.1.9-3.3 2.1-4.2 2.3l.4.8c.2-.1.3-.2.6-.4 1.5-.8 2.2-1.2 3.4-2.1l-.2-.6zm-3.1-2.4c.6.6 1.2 1.3 1.7 2.2l.6-.5c-.6-.8-1-1.4-1.7-2.1l-.6.4zm5.5-3.5c.8.5 1.3.8 1.9 1.4l.6-.5c-.7-.6-1.1-.9-1.9-1.4l-.6.5zm-1.8 2.4v6.9c0 .3-.1.4-.6.4-.4 0-1-.1-1.6-.2.1.3.2.5.2.8.5 0 1.1.1 1.5.1.9 0 1.2-.2 1.2-.9v-4.3-.9-.4c.6 2.2 2.5 4.5 4.6 5.7.2-.3.4-.6.6-.7-1.2-.6-2.4-1.6-3.4-2.9.6-.5 1.2-1 1.7-1.6l.6-.7.1-.1-.7-.5c-.3.6-1.1 1.5-2.1 2.3-.5-.8-1-1.9-1.3-2.9h3.6c.6 0 1 0 1.3.1v-.8c-.3 0-.7.1-1.3.1h-3.6v-.9c0-.6 0-1 .1-1.3h-.9c.1.3.1.7.1 1.3v.9H444c-.5 0-1 0-1.3-.1v.8c.3-.1.7-.1 1.2-.1h3.7zm-11.9-1.6c0 1.7-.7 2.5-2.2 3 .2.2.4.4.5.6 1.6-.7 2.3-1.8 2.4-3.7h1.1v2.4c0 .6.3.7 1.6.7 1.6 0 1.7-.1 1.8-1.5-.3 0-.4-.1-.7-.2 0 1-.1 1-1.1 1-.8 0-1 0-1-.3v-2.2h1.7v1.1h.8v-1.1-.8H433.4v2.1h.7v-1.4h1.6zm-4.3 1.2h-.6c-.4 0-.7 0-.9-.1v.8h1.5v2.6c-.9.4-1.2.5-1.6.6l.2.8c.1-.1.3-.2.6-.3l.8-.3v3.5c0 .2-.1.3-.4.3-.4 0-.5 0-.8-.1.1.3.1.5.2.8h.5c1.1 0 1.4-.2 1.4-.9v-4c.6-.3.7-.4 1.2-.6l-.1-.7c-.5.3-.7.4-1.2.6V128h1v-.8h-1V126c0-.5 0-.9.1-1.2h-.9c.1.3.1.7.1 1.2v1.3zm4.7 4c-.7 1.1-2.1 2.2-3.5 2.9.3.2.4.4.5.6 1.5-.8 2.6-1.8 3.4-3.1v2.9c0 .5 0 .8-.1 1.1h.9c-.1-.3-.1-.6-.1-1.1v-1.9c0-.5 0-.7-.1-1 .7 1.2 2 2.4 3.5 3.2.2-.3.3-.5.5-.7-1.4-.6-2.8-1.7-3.7-2.9h2.3c.4 0 .8 0 1.1.1v-.8c-.3 0-.6.1-1.1.1h-2.5v-.5c0-.4 0-.8.1-1h-.9c.1.3.1.5.1 1.1v.4h-2c-.5 0-.9 0-1.2-.1v.8c.3 0 .7-.1 1.1-.1h1.7zm-15-1.8c.5-.6 1-1.3 1.4-2 1.3-.1 2.5-.1 3.8-.2v-.8c-1.1.1-2.3.2-3.4.3.2-.5.5-1.1.7-1.6-.3-.1-.6-.2-.9-.2-.2.7-.5 1.3-.7 1.9h-3v.8c.9 0 1.7 0 2.6-.1-.7 1.4-1.7 2.6-3 3.7.1.3.3.5.5.6 2-1.7 3-2.3 3.9-2.3.6 0 .9.2 1 1-2.3 1-3.1 2-3.1 3 0 1.2.9 1.8 3.2 1.8 1.2 0 2.3-.1 3.5-.3v-.1c0-.3 0-.6-.1-.8-1.2.3-2.4.4-3.4.4-1.8 0-2.4-.4-2.4-1.2 0-.7.7-1.4 2.4-2.1v2.1h.8c0-.9 0-1.6-.1-2.5 1.1-.4 2.6-.8 3.6-1.1 0-.3-.2-.7-.3-.9-1.2.4-2.3.8-3.4 1.2-.2-.9-.7-1.4-1.6-1.4-.6.2-1.3.5-2 .8zm-6.7 3.6c.7.6 1.4 1.1 2.2 1.5.1-.2.3-.4.5-.6-.8-.3-1.5-.7-2.1-1.3l-.6.4zm-1.7-.4c-.5.6-1.2 1-2.1 1.4.2.1.4.4.6.6.8-.4 1.5-.9 2.2-1.6l-.7-.4zm-5.4-5.2h2.6v1.1h-2.6v-1.1zm0-1.7h2.6v1h-2.6v-1zm-.7 2.3v1.1c.3 0 .6-.1 1.1-.1h1.9c.5 0 .8 0 1.1.1V126.3v-1.1h-4.1V128.1zm5.8 2.7h3.2v1h-3.2v-1zm0-1.6h3.2v1h-3.2v-1zm0-1.5h3.2v1h-3.2v-1zm1.2-1.8c0 .2-.2.7-.4 1.1h-1.6v5.5h4.6v-4.4-1.1H413.8c.1-.3.3-.8.4-1.1h1.4c.5 0 .9 0 1.1.1v-.8c-.2.1-.7.1-1.2.1h-3.3c-.5 0-.9 0-1.2-.1v.8c.2 0 .7-.1 1.2-.1h1.4zm-5.2 8.1c-.5-.4-.9-.9-1.1-1.2.1-.3.1-.4.1-.5v-.5c0-.2 0-.2.1-.4l-.8-.1v.3c0 .5-.1 1.4-.3 1.8-.2.7-.5 1.3-.9 1.9.3.1.5.3.6.5.4-.6.7-1.3.9-2.1.5.7 1.1 1.2 1.9 1.5.9.3 2.3.5 4.9.5 1.1 0 2.3 0 3-.1.1-.3.1-.6.3-.8-1 .1-2.1.2-3.6.2-.8 0-1.9 0-2.5-.1-1-.1-1.4-.2-1.9-.4v-1.8h.7c.4 0 .8 0 1 .1v-.8c-.3 0-.6.1-1 .1h-.7v-1.3h.9c.5 0 .8 0 1.1.1v-.8c-.3.1-.6.1-1.1.1h-3c-.5 0-.9 0-1.2-.1v.8c.2 0 .6-.1 1.2-.1h1.4v3.2zm-14.3-1.3h1.8v1.9h-1.8v-1.9zm.1 3.2v-.6h1.8v.5h.7V133v-1h-3.3c0 .2.1.6.1 1v1.6c0 .5 0 .8-.1 1.2h.8zm-.9-4.8c.2 0 .4-.1.8-.1h1.6c.4 0 .6 0 .8.1v-.7c-.2 0-.4.1-.8.1h-1.6c-.4 0-.6 0-.8-.1v.7zm0-1.7c.3 0 .4-.1.8-.1h1.6c.4 0 .6 0 .8.1v-.7h-3.2v.7zm-.4-1.7H397v-.8c-.3.1-.5.1-1 .1h-2.1c-.4 0-.8 0-1-.1v.8zm.4-1.7h3.4v-.8c-.2 0-.5.1-.9.1h-1.6c-.4 0-.7 0-.9-.1v.8zm7.4 1.9h1.9v1.5h-1.9v-1.5zm-.7 1.4h-1.8v-1.5h1.8v1.5zm.7-3.4h1.9v1.4h-1.9v-1.4zm-.7 1.3h-1.8v-1.4h1.8v1.4zm0 2.8v1.1h-1.9c-.5 0-.9 0-1.1-.1v.8c.3 0 .6-.1 1.1-.1h1.7c-.8 1.1-2 2.2-3.1 2.8.2.2.4.4.5.6 1.2-.9 2.1-1.7 2.8-2.9V134.6c0 .6 0 .8-.1 1.1h.8c-.1-.3-.1-.6-.1-1.1v-1.3-1.1c1 1.5 1.6 2.1 3 3l.5-.7c-1.3-.7-2.3-1.5-3.2-2.8h1.8c.5 0 .8 0 1.1.1v-.8c-.3.1-.7.1-1.1.1h-2V130h1.5c.6 0 .9 0 1.1.1V125.5v-.3h-5.8v4.9c.3 0 .6-.1 1.1-.1h1.4zm-12.9 3.5c.9.7 1.8 1.5 2.5 2.5.2-.2.6-.5.7-.7-.7-.9-1.7-1.8-2.5-2.4-.3.1-.5.3-.7.6m-5.2-4.5c0 .3.1.8.1 1.3v4.2c0 .5 0 .9-.1 1.3h1c-.1-.4-.1-.7-.1-1.3v-4.2c0-.5 0-.9.1-1.3h-1zm-3.9 0c0 .4.1.7.1 1.2 0 1.6-.3 2.7-.9 3.5-.5.6-1 1-2.1 1.5.2.2.5.4.6.7 2.3-1.2 3.1-2.8 3.1-5.7 0-.5 0-.8.1-1.1h-.9zm2-4.1c-1 1.8-3 3.6-5.1 4.6.2.2.4.5.5.7 2-1.1 3.9-2.7 5-4.6 1 1.7 3 3.4 5.2 4.6.2-.3.3-.5.5-.8-2.2-1-4.4-2.9-5.3-4.5h-.8zm-11.4 6.5h3.7v2.9h-3.7v-2.9zm0 3.7h3.7v.8h.8c0-.3-.1-.7-.1-1.2v-2.8-1.1c-.3 0-.5.1-1 .1h-3.4c-.5 0-.7 0-1-.1 0 .3.1.7.1 1.1v2.8c0 .5 0 .9-.1 1.2h.8v-.8zm-2.6-3.5c.3.8.4 1.6.5 2.9l.7-.2c-.2-1.3-.3-2.1-.6-2.9l-.6.2zm-2.7-.1c-.1 1.4-.3 2.6-.7 3.4l.7.3c.4-.9.6-2.1.7-3.6l-.7-.1zm6.2-5.6c-.1 1.8-.8 2.8-2.3 3.6.2.2.4.4.5.6 1.7-.9 2.5-2.3 2.6-4.3h2.3c-.1 1.4-.2 2.2-.3 2.8-.1.3-.2.4-.6.4-.3 0-.8-.1-1.3-.2.1.2.2.6.2.8h1.7c.4-.1.6-.3.7-.7.2-.6.3-1.8.4-3.1v-.7h-4.9c-.5 0-1 0-1.3-.1v.8c.2 0 .7-.1 1.2-.1h1.1zm-6.7 5c.2-.1.3-.1 1.1-.1.4 0 .6 0 .9-.1v4c0 .5 0 .9-.1 1.2h.9c0-.3-.1-.7-.1-1.2v-4c.3 0 .5-.1.7-.1l.5-.1c.1.2.1.3.2.7l.6-.3c-.3-.8-.6-1.5-1.1-2.3l-.6.3c.3.5.4.6.6 1.1-.6.1-1.2.1-2 .2.5-.6 1-1.4 1.6-2.2.5-.7.7-1.2.8-1.3l-.7-.4c-.2.5-.5 1.1-1.3 2.3-.3-.5-.4-.5-.8-.9.4-.5.6-1 .9-1.5.4-.7.4-.8.5-.9l-.8-.4c-.1.5-.5 1.4-1.1 2.3l-.5-.5-.5.6c.6.6 1.1 1.2 1.8 2-.3.4-.3.5-.8 1h-1l.3.6zM605.6 86.6c0 2.5-.5 4.2-1.3 5.6-.5.8-.9 1.1-1.4 1.1-.6 0-1.3-.8-1.3-2.4 0-1.9 1.3-4 4-4.3m1.5 8.5c2.6-.8 4.1-2.4 4.1-4.9 0-2.7-2.3-4.4-4.9-4.4-3.4 0-5.5 2.5-5.5 5 0 2.1 1 3.3 2.1 3.3.8 0 1.5-.3 2.2-1.5.9-1.6 1.4-3.5 1.4-6.1 2 .1 3.8 1.3 3.8 3.6 0 2-1.2 3.4-3.8 4.1l.6.9zM598 84.3c.4.7.7 1.5.9 2.3l.7-.2c-.2-.7-.5-1.6-1-2.3l-.6.2zm-1.5.4c.4.7.6 1.5.8 2.3l.7-.2c-.2-.7-.5-1.6-.9-2.3l-.6.2zm-2.4 4.5c-.4-.9-.7-2.4-1-4.1h-.2c-.2 0-.5.1-.7.2.3 1.8.7 3.3 1.1 4.3-1.6 1-2.5 2.1-2.5 3.2 0 1.4 1.1 2.3 3.7 2.3 1.4 0 2.8-.1 4.1-.3v-.2c0-.2 0-.5-.1-.7-1.3.2-2.8.4-4.1.4-2 0-2.8-.6-2.8-1.5s.7-1.8 2.2-2.6c1-.6 2.7-1.2 4.2-1.6 0-.3-.1-.6-.3-.9-1.1.3-2.5.9-3.6 1.5m-8.3-2.7c-.1.2-.3.5-.4.7.9.3 1.9 1 2.7 1.7.2-.2.4-.5.5-.7-.8-.8-1.8-1.4-2.8-1.7m-1 6.3v.5c0 .8-.4 1.3-1.5 1.3-.8 0-1.3-.3-1.3-.9 0-.5.5-1 1.7-1 .5 0 .9.1 1.1.1m.8-.6c-.1-1-.2-2.2-.2-3.6h-.8c0 1.3.1 2.5.2 3.5-.4-.1-.7-.1-1-.1-1.5 0-2.5.9-2.5 1.8 0 1 .8 1.6 2.2 1.6 1.3 0 2.3-.6 2.3-1.9V93c.7.2 1.5.7 2.3 1.3.3-.2.5-.5.5-.8-.9-.6-2-1.1-3-1.3m-4.5-5.2h-2.4v.2c0 .2 0 .4.1.6.7 0 1.4-.1 2.1-.1-.6 1.8-1.5 3.4-2.3 4.7.2.2.5.4.8.5.9-1.5 1.8-3.3 2.5-5.2.7-.1 1.4-.1 2-.2v-.3l-.1-.5c-.6.1-1.1.2-1.7.2.2-.6.4-1.3.6-2-.3-.1-.6-.2-.9-.2-.3.8-.5 1.6-.7 2.3m-11.4 1.9h-.9c1.2-1 1.8-1.8 2.6-3 .5 1.1 1.4 2 2.7 3h-4.4zm2.5.6v1.8h-1.9c.1-.5.1-.7.1-1.8h1.8zm-4.6 1.8c-.5 0-.9 0-1.2-.1v.8c.3 0 .7-.1 1.2-.1h1.8c-.3 1.4-1.4 2.4-3.3 2.9.3.2.4.4.6.7 2-.7 3.2-1.9 3.5-3.6h2v2.5c0 .7.3.9 1.9.9 1.3 0 1.9-.1 2.1-.4.2-.2.4-.7.5-1.6-.2 0-.5-.1-.8-.3-.1.7-.2 1.2-.3 1.4-.2.2-.5.2-1.4.2-.4 0-.8 0-1-.1-.2-.1-.2-.1-.2-.3V92h2.2c.5 0 .9 0 1.2.1v-.8c-.3.1-.7.1-1.2.1H573v-1.8h1.2V89c.8.6 1.3.9 2.3 1.4.1-.3.3-.5.5-.7-.9-.4-1.5-.7-2.3-1.2.3-.3.7-.6 1-1l.4-.5.1-.2-.7-.5c-.3.5-.9 1.2-1.5 1.7-.4-.3-.7-.6-1-.9.5-.4.9-.8 1.3-1.3l.3-.3-.7-.4c-.2.3-.8 1.1-1.3 1.6-.5-.6-.9-1.3-.9-1.7h-3.4c-.3 0-.7 0-.9-.1v.8c.3 0 .5-.1.8-.1h2.3c-.6.9-.8 1.2-1.5 1.9-.5-.5-1.2-1.1-1.8-1.6l-.6.5c.7.5 1.2.9 1.8 1.6-.8.7-1.7 1.2-2.8 1.7.2.2.4.4.5.6 1-.5 1.6-.8 2.4-1.4v.6h1c0 .9 0 1.3-.1 1.8h-1.8zm-7.4-4.3h3v1h-3v-1zm0-1.5h3v.9h-3v-.9zm3.7.7c0-.5 0-1 .1-1.3-.3 0-.7.1-1.3.1h-2c-.6 0-1 0-1.2-.1V88.7h3.7v5.7c0 .3-.1.4-.5.4-.3 0-.9-.1-1.3-.1.1.3.2.5.2.8.3 0 1 .1 1.2.1.9 0 1.2-.2 1.2-1v-8.4zm-9.1.8h2.8v1h-2.8v-1zm0-1.5h2.8v.9h-2.8v-.9zm0 3.1h3.5V86v-1.2c-.3 0-.6.1-1.2.1h-1.9c-.6 0-1 0-1.3-.1 0 .3.1.7.1 1.3v8c0 .7 0 1.1-.1 1.4h.9c-.1-.3-.1-.7-.1-1.4v-5.5zm3.3 1.6h1.7v1.5H558v-1.5zm-.7 0v1.5h-.5c-.5 0-.9 0-1.2-.1v.7c.3-.1.6-.1 1.2-.1h.4c-.2 1.2-.6 1.8-1.5 2.5.2.1.5.3.6.5 1-.8 1.5-1.7 1.6-3h1.8v1.9c0 .5 0 .8-.1 1h.8c0-.2-.1-.5-.1-1v-1.9h.6c.5 0 .9 0 1.2.1v-.7c-.2 0-.7.1-1.2.1h-.6v-1.5h.5c.5 0 1 0 1.2.1v-.7c-.3 0-.6.1-1.2.1H557c-.6 0-.9 0-1.2-.1v.7c.2 0 .7-.1 1.2-.1h.4zm-12.5-2.6c.3 0 .7 0 .9.1v-.8c-.3 0-.6.1-.9.1h-.8v-1.3c0-.6 0-.8.1-1.1h-.9c0 .3.1.7.1 1.1V87h-1c-.5 0-.8 0-1.1-.1v.8c.3 0 .6-.1 1-.1h.9c-.5 1.9-1.3 3.5-2.3 4.6.2.2.3.4.5.7.8-1.1 1.6-2.5 2-4.1 0 .7-.1 1.3-.1 2.3v3.2c0 .6 0 1-.1 1.3h.9c0-.3-.1-.7-.1-1.3V91c0-1.4 0-1.5-.1-2.4.4.9.8 1.6 1.5 2.2.1-.3.3-.5.4-.7-.8-.6-1.4-1.6-1.8-2.5h.9zm4.5 0c-1 2.2-2.4 3.9-4.3 5.1.2.1.4.4.6.6 1.9-1.3 3.2-2.9 4.1-4.9v5.9c0 .3-.1.3-.7.3-.4 0-.9 0-1.5-.1.1.2.2.5.2.8.5 0 .9.1 1.4.1 1.1 0 1.3-.2 1.3-1v-6.8h.6c.5 0 .9 0 1.1.1v-.8c-.3.1-.6.1-1.1.1h-.6v-1c0-.6 0-.9.1-1.3h-.9c0 .3.1.8.1 1.3v1h-2.2c-.6 0-.9 0-1.3-.1v.8c.3 0 .7-.1 1.3-.1h1.8zm-15.1-2.9c0 .3.1.6.1 1.1 0 3-.8 5.4-2.5 7.2-.7.7-1.3 1.2-2.5 1.8.3.2.5.4.6.7 2.8-1.7 4.3-3.9 4.9-7 .6 3 2.2 5.3 4.8 7 .2-.3.4-.5.6-.8-.7-.4-1-.6-1.4-1-.7-.6-1.3-1.2-1.8-1.9-.7-1-1.4-2.4-1.6-3.4-.1-.6-.3-2-.3-2.6 0-.4 0-.9.1-1.1h-1zM594.4 110.6h9.9v-.9h-9.9v.9zm-7.1-2.2h-4.5v.8h4.5c-.1 2.6-.9 4.3-3.4 5.3l.5.7c2.7-1.3 3.6-3 3.7-6.1h4.3v-.8h-4.3v-3.2h-.9v3.3zm-14.3 4.8c2.4.4 4.9 1.1 7.4 2l.3-.8c-2.4-.9-5.1-1.6-7.5-2l-.2.8zm1.1-3.6c1.8.3 3.6.7 5.4 1.4l.3-.8c-1.7-.6-3.5-1.1-5.4-1.4l-.3.8zm0-3.3c2 .3 4.2.7 6.1 1.4l.3-.9c-2-.6-4.1-1-6.1-1.3l-.3.8zm-9.4 2v-3.1h-.9v3.2l-2.9.5.1.8 2.8-.4v4.1c0 1.1.7 1.5 2.8 1.5 1.4 0 2.5-.1 3.8-.3l-.1-.9c-1.2.2-2.3.3-3.6.3-1.6 0-1.9-.2-1.9-1v-3.9l5.2-.8c-.4.9-1.1 2-2.1 2.8l.6.6c1.1-.9 1.9-2.1 2.6-3.8l-.4-.5-6 .9zm-8.8 2.2h2.1v1h-2.1v-1zm-.7 1h-2v-1h2v1zm.7-2.6h2.1v1h-2.1v-1zm-.7 1h-2v-1h2v1zm0-3.1h-2c-.4 0-.9 0-1.2-.1v.7c.2 0 .7-.1 1.2-.1h2v.8h-2.7V112h2.7v.9h-3v.7c.3 0 .6-.1 1.2-.1h1.8v1H553c-.6 0-1 0-1.3-.1v.8c.3 0 .6-.1 1.3-.1h5.2c.6 0 1 0 1.3.1v-.8c-.2.1-.7.1-1.3.1h-2.4v-1h1.8c.6 0 .9 0 1.2.1v-.8c-.2 0-.6.1-1.2.1h-1.8v-.9H558.7v-2.9-1h-2.8v-.8h2.4c.5 0 .8 0 1.1.1v-.8c-.3.1-.7.1-1.2.1h-2.3v-.9c.7-.1 1.8-.2 2.5-.4.2-.1.4-.1.4-.1h.1l-.5-.6c-.9.3-3.4.7-5.3.7h-.7c.2.2.2.4.3.7.8 0 1.7-.1 2.4-.1v.8zm-4.9 1h-.7c-.3 0-.7 0-1-.1v.8c.2 0 .6-.1 1-.1h.6c-.4 1.4-1.1 3-1.9 3.9.2.2.3.4.4.7.7-.9 1.3-2.1 1.6-3.5 0 .6-.1.8-.1 2v2.8c0 .6 0 1-.1 1.4h.8c0-.3-.1-.8-.1-1.4v-3-.5-.5-.9c.2.7.5 1.3.9 1.8.1-.3.1-.3.4-.6-.5-.6-.8-1.2-1.2-2.2h1.1v-.8c-.2 0-.4.1-.8.1h-.2v-2c.2-.1.5-.2 1-.4l.4-.2-.5-.6c-.6.4-2 .8-3.4 1 .1.2.3.4.4.7.5-.1.7-.1 1.4-.3v1.9zm-11.4 4h5.3v2.5h-5.3v-2.5zm0-.6h-.5c1.4-.6 2-1 3.1-1.7.8.6 1.8 1.1 3.2 1.7h-5.8zm.8-4.7l3.9-.1c-.7.9-1.2 1.4-2 2.1-.8-.6-1.4-1.2-1.9-2zm-1.6 8.1c0 .4 0 .7-.1 1.1h.8v-.7h5.3v.7h.8c-.1-.3-.1-.7-.1-1.1v-2.5c0-.3 0-.7.1-.9.4.2.7.3 1.6.6.1-.3.2-.6.4-.8-1.8-.5-3.6-1.2-4.8-2.1.8-.7 1.5-1.4 2.2-2.3.2-.2.3-.3.4-.5l-.4-.6c-.2 0-.7.1-1.1.1h-2.9c.3-.5.7-1 .7-1l-.8-.2c-.1.4-.3.6-.7 1.2-.9 1.2-1.9 2.1-3.1 2.8.2.2.4.4.5.6.9-.5 1.7-1.2 2.4-2 .5.7 1.1 1.3 1.8 1.9-1.3 1-3.2 1.8-5 2.3.2.3.3.4.4.7.8-.3 1.1-.4 1.7-.7V114.6zM622.3 127.8c.4-.7.7-1.6.9-2.2l.1-.2.1-.2.1-.2-.8-.3c-.2 1.7-1.3 4-2.6 5.2.2.2.3.4.5.7.4-.5.7-1 1.1-1.7v5.4c0 .7 0 1.1-.1 1.5h.9c0-.4-.1-.8-.1-1.5v-6.5zm4.5-.9h-2.3v-.7c0-.4 0-.7.1-.9h-.8c0 .2.1.6.1.9V127.5H630.9V126.2c0-.4 0-.7.1-.9h-.8c0 .2.1.5.1.9v.7h-2.4v-1.1c0-.4 0-.7.1-.9h-.9c.1.2.1.5.1.9v1.1zm-2.1 6.4h2.4v1.3h-2.4v-1.3zm0-1.7h2.4v1.1h-2.4v-1.1zm0-1.8h2.4v1.1h-2.4v-1.1zm3.2 1.1v-1.1h2.2c.4 0 .8 0 1.1.1v-.8c-.3 0-.7.1-1.2.1h-2.1c.2-.3.2-.4.6-1.1l-.7-.2c-.1.4-.4.9-.6 1.3H625c.1-.2.2-.2.3-.5l.3-.6-.7-.2c-.5 1.3-1.3 2.5-2.3 3.4.2.2.4.4.5.6.5-.5.7-.8 1-1.4v4.1c0 .5 0 1-.1 1.3h.8v-.6h5.3c.5 0 .8 0 1.2.1v-.8c-.3 0-.6.1-1.1.1H628v-1.3h1.6c.4 0 .7 0 1.1.1v-.8c-.3.1-.6.1-1.1.1H628v-1.1h1.6c.4 0 .7 0 1.1.1v-.8c-.3.1-.6.1-1.1.1h-1.7zm-13.4-3.7h3v1h-3v-1zm0-1.5h3v.9h-3v-.9zm3.7.7c0-.5 0-1 .1-1.3h-4.5V128.9h3.7v5.7c0 .3-.1.4-.5.4-.3 0-.9-.1-1.3-.1.1.3.2.5.2.8h1.2c.9 0 1.2-.2 1.2-1v-8.3zm-9.1.8h2.8v1h-2.8v-1zm0-1.5h2.8v.9h-2.8v-.9zm0 3.1h3.5v-2.6-1.2H608.2c0 .3.1.7.1 1.3v8c0 .7 0 1.1-.1 1.4h.9c-.1-.3-.1-.7-.1-1.4v-5.5zm3.3 1.6h1.7v1.5h-1.8v-1.5zm-.7 0v1.5h-.5c-.5 0-.9 0-1.2-.1v.7c.3-.1.6-.1 1.2-.1h.4c-.2 1.2-.6 1.8-1.5 2.5.2.1.5.3.6.5 1-.8 1.5-1.7 1.6-3h1.8v1.9c0 .5 0 .8-.1 1h.8c0-.2-.1-.5-.1-1v-1.9h.6c.5 0 .9 0 1.2.1v-.7c-.2 0-.7.1-1.2.1h-.6v-1.5h1.7v-.7c-.3.1-.6.1-1.2.1h-3.9c-.6 0-.9 0-1.2-.1v.7h1.6zm-12.7 3.2c.3.5.7 1 1.2 1.4.2-.2.4-.4.6-.5-.5-.4-.9-.7-1.2-1.3l-.6.4zm-1.6-.3c-.4.7-1 1.4-1.8 1.9l.6.6c.9-.7 1.4-1.2 1.9-2.1l-.7-.4zm.1-6.3h2.3v1.3h-2.3V127zm0 1.9h2.3v1.3h-2.3v-1.3zm0 1.9h2.3v1.4h-2.3v-1.4zm-.7-4.5c-.6 0-1 0-1.1-.1v.8c.2-.1.6-.1 1-.1h.1v5.2h-.3c-.4 0-.8 0-1-.1v.8c.2 0 .5-.1 1-.1h5v-.8c-.1 0-.6.1-1 .1v-5c.5 0 .8 0 1 .1v-.8c-.1 0-.6.1-1 .1v-.2c0-.5 0-.9.1-1.2h-.8c0 .2.1.5.1 1.2v.2h-2.3v-.2c0-.5 0-.9.1-1.2h-.8c.1.3.1.7.1 1.2v.1zm8.4 2h-2.4v-2.1h2.4v2.1zm0 .6v2.2h-2.5c.1-.9.1-1.1.1-2.2h2.4zm0 3v2.9c0 .2-.1.3-.4.3-.4 0-.7 0-1.3-.2.1.3.2.5.2.9h.9c.5 0 .8 0 1-.1.2-.1.3-.4.3-.8v-8.2c0-.5 0-.9.1-1.2-.3 0-.6.1-1.2.1h-1.7c-.6 0-.9 0-1.2-.1 0 .3.1.7.1 1.4 0 2.6-.1 4.8-.2 5.7-.2 1.2-.5 1.9-1.2 2.8.3.2.3.2.6.6.9-1.1 1.3-2.2 1.4-4h2.6zm-17.2-5.7h-3.3c-.4 0-.9 0-1.2-.1 0 .2.1.5.1.8v.8c0 .4 0 .6-.1.9h.8v-1.7h8.5v1.7h.8c0-.3-.1-.5-.1-.9v-.7c0-.3 0-.6.1-.8-.4 0-.8.1-1.2.1h-3.6v-.6c0-.3 0-.5.1-.8h-.9c.1.2.1.5.1.8v.5zm.2 8.1c-1.1-.4-1.8-1.1-2.3-2.1.1-.2.2-.8.3-1.3l.1-.3V130.3l-.9-.2v.1c0 .7-.3 1.9-.7 2.8-.4.9-.8 1.4-1.7 2.2.3.2.4.3.6.6.8-.9 1.4-1.6 1.9-2.8.6 1.3 1.8 2 3.8 2.3.6.1.9.1 2.7.1h1.5c0-.3.1-.6.3-.9-1 .1-1.8.1-2.9.1-.9 0-1.4 0-2-.1v-2.7h2.4c.5 0 .8 0 1.2.1v-.9c-.3.1-.6.1-1.2.1H589v-2h2.1c.5 0 .9 0 1.2.1v-.8c-.3.1-.7.1-1.2.1H586c-.5 0-.9 0-1.2-.1v.8c.3 0 .7-.1 1.2-.1h2.2v5.2zm-13.9-4.8c.5-.6 1-1.3 1.4-2 1.3 0 2.5-.1 3.8-.2v-.8c-1.1.1-2.3.2-3.4.3.2-.5.5-1.1.7-1.6-.2-.1-.6-.2-.9-.2-.2.7-.5 1.3-.7 1.9h-3v.8c.9 0 1.7 0 2.6-.1-.7 1.4-1.7 2.6-3 3.7.1.3.3.5.5.6 2-1.7 3-2.3 3.9-2.3.6 0 .9.2 1 1-2.3 1-3.1 2-3.1 3 0 1.2.9 1.8 3.2 1.8 1.2 0 2.3-.1 3.5-.3v-.1c0-.3 0-.6-.1-.8-1.2.3-2.4.4-3.4.4-1.8 0-2.4-.4-2.4-1.2 0-.7.7-1.4 2.4-2.1v2.1h.8c0-.9 0-1.6-.1-2.5 1.1-.4 2.6-.8 3.6-1.1 0-.3-.2-.7-.3-.9-1.2.3-2.3.8-3.4 1.2-.2-.9-.7-1.4-1.6-1.4-.5.2-1.3.5-2 .8zM564 129h-2.6c-.5 0-.8 0-1.2-.1v4.4c0 .5 0 1-.1 1.3h1c0-.3-.1-.8-.1-1.3v-3.7h2.9v4.9c0 .5 0 .9-.1 1.3h1c0-.3-.1-.8-.1-1.3v-4.9h3.2v3.7c0 .3-.1.4-.5.4s-.9 0-1.4-.1c.1.3.2.6.2.8.6.1.7.1 1.3.1 1 0 1.2-.2 1.2-1V130v-1c-.3 0-.7.1-1.2.1h-2.9v-.4c0-.4 0-.8.1-1h-.7c.1.3.1.6.1 1v.3zm0-2.5h-3.5c-.6 0-1 0-1.4-.1v.9c.3-.1.8-.1 1.4-.1h8.2c.7 0 1.1 0 1.4.1v-.9c-.3.1-.8.1-1.4.1h-3.8v-.7c0-.4 0-.8.1-1h-1c0 .2.1.7.1 1v.7zm-12.8 1.2c-1 2.1-3.1 4.5-4.8 5.4.3.3.4.4.6.7 1.9-1.3 3.9-3.7 4.6-5.6 0 .7-.1 1.1-.1 1.6v2.8h-1.2c-.6 0-.9 0-1.2-.1v.8c.3 0 .6-.1 1.2-.1h1.2v1.2c0 .6 0 1-.1 1.4h1c-.1-.3-.1-.8-.1-1.4v-1.2h1.3c.6 0 .9 0 1.2.1v-.8c-.3 0-.6.1-1.2.1h-1.3v-2.8c0-.3 0-1-.1-1.6.9 2.1 2.7 4.2 4.9 5.6.2-.3.3-.5.6-.8-1.9-1-3.7-2.9-5-5.3h3.3c.5 0 .9 0 1.4.1v-.9c-.3.1-.6.1-1.4.1h-3.6v-1c0-.4 0-.8.1-1.1h-.9c.1.4.1.7.1 1.1v1h-3.4c-.6 0-.9 0-1.3-.1v.9c.4-.1.8-.1 1.3-.1h2.9zm-15 2.5h6.1v1.5h-6.1v-1.5zm0-2.1h6.1v1.4h-6.1v-1.4zm0-2.1h6.1v1.3h-6.1V126zm1.4 6.3c-.2 1.6-1.4 2.6-3.8 2.9.2.2.3.5.4.7 2.6-.5 3.9-1.7 4.2-3.7h1.5v2.5c0 .7.3.9 2.1.9 2.3 0 2.5-.1 2.7-2.3-.2-.1-.4-.1-.8-.3-.1.9-.1 1.4-.3 1.6-.2.2-.4.3-1.6.3-1.3 0-1.4 0-1.4-.4v-2.2h2.5c-.1-.3-.1-.8-.1-1.3v-4.1c0-1 0-1.5.1-1.6-.2 0-.9.1-1.3.1h-5.1c-.5 0-1 0-1.3-.1 0 .1 0 .9.1 1.6v4.1c0 .5 0 1-.1 1.3h2.2zm-9.3-4.8h2.9v1.2h-2.9v-1.2zm0-1.7h2.9v1.1h-2.9v-1.1zm3.6.7c0-.5 0-1 .1-1.3-.3 0-.7.1-1.3.1h-1.9c-.6 0-.9 0-1.2-.1V129.4H531.2v5.3c0 .3-.1.3-.7.3-.4 0-.9 0-1.5-.1.1.2.2.5.2.8h1.4c1.1 0 1.3-.2 1.3-1.1v-8.1zm-8.9 1h2.7v1.2H523v-1.2zm0-1.7h2.7v1.1H523v-1.1zm0 3.5H526.4v-3-1.2c-.3 0-.6.1-1.2.1h-1.8c-.6 0-1 0-1.3-.1 0 .3.1.7.1 1.3v7.9c0 .6 0 1.1-.1 1.4h.9c0-.2-.1-.7-.1-1.4v-5zm-8.7 5.4c-.5-.5-1.1-1-1.8-1.5l-.6.5c.6.4 1.2 1 1.8 1.6l.6-.6zm.8-5.1h3.2v1.1h-3.2v-1.1zm-.7 1.1h-2.9v-1.1h2.9v1.1zm.7-2.7h3.2v1h-3.2v-1zm-.7 1h-2.9v-1h2.9v1zm0-2.5v.9h-2.7c-.4 0-.8 0-1-.1 0 .3.1.6.1.9v2.3c0 .3 0 .6-.1.9h6.3v.9h-6.2c-.6 0-.9 0-1.2-.1v.8c.3 0 .7-.1 1.2-.1h6.2v1.9c0 .3-.1.3-.5.3-.5 0-1 0-1.4-.1.2.3.2.5.2.8h1.2c1 0 1.3-.2 1.3-.9v-2h1.3c.5 0 .9 0 1.2.1v-.8c-.3 0-.6.1-1.2.1h-1.3v-.9H519.2c0-.3-.1-.5-.1-.9v-2.3c0-.3 0-.6.1-.9-.3 0-.6.1-1 .1h-2.9v-.9h3.9c.6 0 .9 0 1.2.1v-.8c-.3.1-.6.1-1.2.1h-3.9v-.1c0-.4 0-.8.1-1h-.9c0 .2.1.5.1 1v.1H511c-.6 0-.9 0-1.2-.1v.8c.3 0 .7-.1 1.2-.1h3.4zM304.7 263.2c-.4-.9-.7-2.4-1-4.1h-.2c-.3 0-.5.1-.7.2.3 1.8.7 3.3 1.1 4.3-1.6 1-2.5 2.1-2.5 3.2 0 1.4 1.1 2.3 3.7 2.3 1.4 0 2.8-.1 4.1-.3v-.2c0-.3 0-.5-.1-.7-1.3.3-2.8.4-4.1.4-2 0-2.8-.6-2.8-1.5s.7-1.8 2.2-2.6c1-.6 2.7-1.2 4.2-1.6 0-.3-.1-.6-.3-.9-1.2.4-2.5.9-3.6 1.5m-15.3 1.5h9.9v-.9h-9.9v.9zm-9.3 4.8c3.5-1.6 5.9-3.8 7.4-8.2l-.6-.6h-4.4c.3-.5.6-1 .8-1.5l-.8-.3c-.8 1.9-2.3 3.9-3.8 5l.6.5c1-.8 1.9-1.7 2.7-2.9h4.5c-.5 1.4-1.1 2.6-1.9 3.7-.9-.8-1.7-1.4-2.7-2l-.5.6c1 .6 1.8 1.3 2.6 2.1-1.2 1.3-2.5 2.2-4.5 3l.6.6zm-11.9-.5c4.1-.9 7.2-3.1 8.7-7l-.8-.5c-1.4 3.8-4.4 5.9-8.1 6.7l.2.8zm-.5-8.3c1 .7 1.9 1.5 2.8 2.5l.7-.7c-.9-.9-1.9-1.7-2.9-2.4l-.6.6zm-8.3 1.7v-3.1h-.9v3.2l-2.9.4.1.8 2.8-.4v4.1c0 1.1.7 1.5 2.8 1.5 1.4 0 2.5-.1 3.8-.3l-.1-.9c-1.2.2-2.3.3-3.6.3-1.6 0-1.9-.2-1.9-1v-3.9l5.2-.8c-.3.9-1.1 2-2.1 2.8l.6.6c1.1-.9 1.9-2.1 2.6-3.8l-.4-.5-6 1zm-11.2 2.4c0-.3.1-.6.1-.9 0-.4 0-.5.1-.8h-.9v.7c0 .3 0 .7-.1 1h-2.1c-.6 0-1 0-1.3-.1v.9c.3-.1.7-.1 1.3-.1h1.9c-.4 1.6-1.7 2.8-4 3.5.3.3.4.4.5.7 2.5-.9 3.9-2.3 4.3-4.2h2.3v2.9c0 .8.3 1 1.8 1 2 0 2-.1 2.3-2.5-.3-.1-.5-.1-.8-.3 0 .9-.1 1.6-.2 1.8-.1.2-.3.3-1.2.3-.9 0-1.1-.1-1.1-.4v-2.5c0-.6 0-.8.1-1.1-.4.1-.8.1-1.4.1h-1.6zm0-4.8h-3.4c-.4 0-.8 0-1.2-.1 0 .2.1.5.1.8v.6c0 .4 0 .6-.1.8h.8v-1.5h2.6c-.1 1.5-1.1 2.2-3.2 2.6.2.2.4.5.5.7 1.7-.5 2.5-.9 3.1-1.9.2-.4.3-.7.4-1.3h1.5v2.1c0 .5.3.7 1.6.7.9 0 1.4-.1 1.6-.3.2-.2.3-.5.4-1.3-.3-.1-.5-.1-.7-.2 0 .6-.1.9-.2 1-.1.1-.5.1-1 .1-.4 0-.7 0-.8-.1l-.1-.3v-1.8h3v1.6h.8c0-.2-.1-.5-.1-.8v-.6c0-.4 0-.6.1-.8-.5.1-.8.1-1.2.1H249v-.4c0-.4 0-.7.1-.9h-.9c.1.2.1.5.1.9v.3zm-10.7-.1h2v3.4h-2v-3.4zm-.8 0v3.4h-.4c-.5 0-.9 0-1.2-.1v.8c.3 0 .6-.1 1.2-.1h.4c-.1 2.5-.7 4.1-2 5.3.2.1.5.3.7.6 1.4-1.5 1.9-3.2 2-5.8h2v4.4c0 .6 0 .9-.1 1.3h.9c-.1-.4-.1-.8-.1-1.3V264h.4c.6 0 .9 0 1.2.1v-.9c-.3 0-.7.1-1.2.1h-.4v-3.4h.3c.6 0 .9 0 1.2.1v-.8c-.3.1-.7.1-1.2.1h-3.9c-.6 0-1 0-1.2-.1v.8c.3 0 .7-.1 1.2-.1h.2zm-4.4 3.8h1.5v3.8h-1.5v-3.8zm.1-3.7c-.2 1.8-1.1 4-2.1 5 .1.1.3.4.5.7.4-.5.7-1 .9-1.5v4.1c0 .5 0 .9-.1 1.2h.8v-1.3h1.5v.6h.8c0-.3-.1-.6-.1-1V264v-1h-2.3c.4-1 .7-2.1.9-3.1h.7c.4 0 .7 0 1 .1v-.8c-.3.1-.6.1-1 .1h-2c-.5 0-.8 0-1.1-.1v.8c.3-.1.6-.1 1-.1h.6zm-12.5 5.2c-.6 1.7-1.4 3.2-2 3.8l.7.6.1-.1v-.1c.1-.2.1-.2.2-.3.6-1.1 1-1.9 1.6-3.5l-.6-.4zm-2.1-2.8c.8.5 1.5 1.1 2.1 1.7l.5-.7c-.7-.7-1.3-1.1-2.1-1.6l-.5.6zm.6-3c.8.5 1.4 1 1.9 1.7l.5-.6c-.9-.8-1.3-1.1-2-1.6l-.4.5zm8.3 5.8v1.3h-4.1c.1-.3.1-.8.2-1.3h3.9zm-.3-4.7c-.3.5-.8.9-1.5 1.5-.8-.5-1.3-.9-1.7-1.5h3.2zm.3 4h-3.9v-.9c.7-.2 1.3-.5 2-.9.6.3 1.2.6 1.8.8v1zm0 2.6v1.3c0 .6 0 1-.1 1.3h.9c0-.3-.1-.8-.1-1.3v-4.6c.5.1.7.2 1.3.3.1-.3.2-.5.4-.7-1.3-.2-2.7-.5-3.7-1 .8-.6 1.3-1.1 1.7-1.8h.6c.5 0 .8 0 1.1.1v-.8c-.3 0-.6.1-1.1.1H225v-.2c0-.5 0-.8.1-1h-.9c0 .3.1.6.1 1v.2h-2.2c-.5 0-.8 0-1.1-.1v.8c.3 0 .5-.1 1.1-.1h.2c.5.7 1 1.2 1.9 1.8-1 .5-2.3.9-3.7 1 .2.3.3.4.4.7.5-.1.7-.1 1.2-.2 0 3-.5 4.3-2.1 5.3.3.2.5.3.7.6.9-.7 1.5-1.5 1.8-2.6h4.2zm-18.1-1.5c.3.8.4 1.5.5 2.6l.7-.2c-.2-1.1-.4-1.9-.6-2.6l-.6.2zm-2.7-.2c-.1 1.3-.3 2.5-.6 3.3l.7.3c.3-.7.6-2.2.7-3.5l-.8-.1zm8.7-5.4c-.6.9-1 1.4-1.7 2-.7-.6-1.2-1.2-1.6-2h3.3zm.6.4c.1-.2.2-.3.2-.4l.2-.2-.5-.5c-.2 0-.5.1-.9.1h-3.4c-.6 0-1 0-1.2-.1v.8c.2 0 .6-.1.9-.1.4.9 1 1.7 1.8 2.5-.7.5-1.5.9-2.5 1.2.1.1.3.4.4.7 1-.4 1.8-.8 2.6-1.4.9.7 2 1.2 3.1 1.6.1-.4.2-.5.4-.7-1.1-.3-2-.7-2.9-1.3.6-.5 1.2-1.2 1.6-1.8l.2-.4zm-2.1 5.3v-.5c0-.6 0-1.1.1-1.3h-.9c0 .2.1.7.1 1.3v.5h-1.1c-.6 0-.9 0-1.1-.1v.8h2.2v2.2h-1.7c-.5 0-.9 0-1.2-.1v.8c.3-.1.7-.1 1.2-.1h4.3c.5 0 .9 0 1.2.1v-.8c-.2.1-.6.1-1.2.1h-1.9v-2.2h2.5v-.8c-.3 0-.6.1-1.1.1h-1.4zm-7.8-.8l.5-.1.7-.1h.8v3.9c0 .5 0 .9-.1 1.2h.9c0-.3-.1-.7-.1-1.2v-4c.5 0 .6-.1 1.1-.1.1.3.1.4.2.8l.6-.3c-.3-.8-.5-1.4-1-2.4l-.6.3c.2.5.3.6.5 1.1-.6.1-1.1.1-1.9.2.4-.5 1.2-1.6 1.7-2.4.4-.5.5-.8.6-.9l.2-.3-.7-.4c-.2.5-.4.8-1.2 2.2-.2-.3-.4-.5-.8-.9.4-.6.8-1.3 1.2-2 .1-.3.2-.3.3-.5l-.8-.3c0 .3-.6 1.4-1.1 2.3l-.6-.6-.4.6c.5.4 1.3 1.3 1.8 2-.2.3-.2.3-.9 1.1h-1l.1.8zm-8.1-3.3c-1 2.1-3.1 4.5-4.8 5.4.3.3.4.4.6.7 1.9-1.3 3.9-3.7 4.6-5.6v4.4h-1.2c-.6 0-.9 0-1.2-.1v.8c.3 0 .6-.1 1.2-.1h1.2v1.2c0 .6 0 1-.1 1.4h1c-.1-.3-.1-.8-.1-1.4v-1.2h1.3c.6 0 .9 0 1.2.1v-.8c-.3 0-.6.1-1.2.1h-1.3v-2.8c0-.3 0-1-.1-1.6.9 2.1 2.7 4.2 4.9 5.6.2-.3.3-.5.6-.8-1.9-1-3.7-2.9-5-5.3h3.3c.6 0 .9 0 1.4.1v-.9c-.3.1-.6.1-1.4.1h-3.6v-1c0-.4 0-.8.1-1.1h-.9c.1.4.1.7.1 1.1v1h-3.4c-.5 0-.9 0-1.3-.1v.9c.4-.1.8-.1 1.3-.1h2.8zm-14.1 2.8h6.3v3.7h-6.3v-3.7zm0-4.2h6.3v3.4h-6.3v-3.4zm-.8 8.2c0 .6 0 1-.1 1.3h.9v-.8h6.3v.8h.9c0-.3-.1-.8-.1-1.3v-7.8c0-.4 0-.8.1-1.1-.3.1-.7.1-1.3.1h-5.5c-.6 0-1 0-1.3-.1 0 .3.1.7.1 1.2v7.7zM299.2 283.6c.5-.6 1-1.3 1.4-2 1.3 0 2.5-.1 3.8-.2v-.8c-1.1.1-2.3.2-3.4.3.2-.5.5-1.1.7-1.6-.3-.1-.6-.2-.9-.2-.2.7-.5 1.3-.7 1.9h-3v.8c.9 0 1.7 0 2.6-.1-.7 1.4-1.7 2.6-3 3.7.1.3.3.5.5.6 2-1.7 3-2.3 3.9-2.3.6 0 .9.2 1 1-2.3 1-3.1 2-3.1 3 0 1.2.9 1.8 3.2 1.8 1.2 0 2.3-.1 3.5-.3v-.1c0-.3 0-.6-.1-.8-1.2.3-2.4.4-3.4.4-1.8 0-2.4-.4-2.4-1.2 0-.7.7-1.4 2.4-2.1v2.1h.8c0-.9 0-1.6-.1-2.5 1.1-.4 2.6-.8 3.6-1.1 0-.3-.1-.7-.3-.9-1.2.3-2.3.8-3.4 1.2-.2-.9-.7-1.4-1.6-1.4-.6.2-1.3.5-2 .8zm-4.6 5.5l-3.4-3.7 3.3-3.3h-1.2l-3.2 3.3 3.2 3.6h1.3zm-4.7-10h-1v10h1v-10zm-5 10v-3.7c0-1.9 1.1-2.5 2.1-2.5h.4v-.8h-.5c-1.1 0-1.7.6-2 1.5h-.1v-1.4h-1v6.9h1.1zm-6-6.2c1.2 0 2.1.7 2.1 2.7 0 2.1-.9 2.7-2.1 2.7-1.2 0-2.1-.7-2.1-2.7s1-2.7 2.1-2.7m0-.8c-1.9 0-3.1 1.3-3.1 3.7 0 2.4 1.2 3.5 3.1 3.5 1.9 0 3.1-1.2 3.1-3.7 0-2.4-1.2-3.5-3.1-3.5m-12.4 7l2.4-7.3 2.4 7.3h1.1l2.2-9.4h-1.1l-1.8 8-2.5-7.8h-.7l-2.6 7.8-1.9-8h-1l2.3 9.4h1.2zm-7.4-.7c-.2 0-.5.1-.8.1-.9 0-1.1-.3-1.1-.9V283h1.8v-.8h-1.8v-2.3l-1 .4v1.9H255v.8h1.2v4.7c0 1.1.5 1.6 1.8 1.6.3 0 .7 0 1.1-.1v-.8zm-7.7.7v-3.7c0-1.9 1.1-2.5 2.1-2.5h.4v-.8h-.5c-1.1 0-1.7.6-2 1.5h-.1v-1.4h-1v6.9h1.1zm-4.2-1.3c-.4.3-1.1.6-1.9.6-.9 0-1.3-.6-1.3-1.2 0-.8.6-1.2 3.1-1.4v2zm1.2 1.3c-.1-.7-.2-1.1-.2-2.2v-2.4c0-1.4-.6-2.5-2.2-2.5-.5 0-1.2.1-2 .4v.8c.6-.3 1.2-.4 1.7-.4 1.1 0 1.5.8 1.5 1.8v.2c-3.4.2-4.1.9-4.1 2.4 0 1 .7 1.9 2 1.9 1 0 1.8-.4 2.2-.8 0 .3.1.5.1.7h1zm-15.6 0v-5.7c.5-.3 1-.5 1.7-.5.8 0 1.6.5 1.6 1.7v4.5h1v-4.5c0-.3 0-.7-.1-1 .6-.5 1.1-.7 1.9-.7.8 0 1.6.5 1.6 1.7v4.5h1v-4.5c0-1.5-.8-2.5-2.4-2.5-.9 0-1.7.3-2.4.9-.4-.6-1-.9-1.9-.9-.8 0-1.4.2-1.9.6v-.5h-.9v6.9h.8zm-8.4-.2c.5.2 1.3.4 2.4.4 1.8 0 3-1 3-2.7 0-1.3-.6-1.8-2.1-2.6l-.7-.3c-1-.5-1.3-.8-1.3-1.7s.6-1.5 1.7-1.5c.7 0 1.5.1 2.1.3v-1c-.5-.2-1.3-.3-1.9-.3-1.9 0-3 1-3 2.5 0 1.1.4 1.8 1.9 2.5l.7.3c1.2.5 1.6 1 1.6 1.9 0 .7-.4 1.6-2 1.6-.8 0-1.7-.2-2.4-.5v1.1zm-6.4-6.6c.5.6 1 1.2 1.4 2l.7-.4c-.3-.6-.9-1.4-1.5-2l-.6.4zm-1.4.8c.6.6 1 1.3 1.3 2l.7-.4c-.3-.7-.8-1.5-1.4-2l-.6.4zm-.7-2c-2.3 1.4-3 2.8-3 4.3 0 2 1.4 3.4 4.6 3.8.2-.3.2-.7.2-1-2.9-.4-4-1.4-4-3 0-1.1.6-2.4 2.4-3.5.7-.4 1.5-.7 2.6-.9v-.2c0-.2 0-.4-.1-.6-3.1.2-6.1.5-9.4.8v.2c0 .2 0 .5.1.7 2.6-.2 4.7-.5 6.6-.6zm-15.2 3.1h3.2v2.3h-3.2v-2.3zm4 0v-.7h-4.8V288.2h.8v-1.1h4V284.2zm-5.6-2c.2 0 .6-.1 1-.1h4.6c.4 0 .7 0 1 .1v-.8c-.3.1-.5.1-1 .1h-4.6c-.5 0-.7 0-1-.1v.8zm-1.7 6.4c0 .5 0 1-.1 1.3h1c-.1-.3-.1-.7-.1-1.3v-8.5h8.1v8.6c0 .2-.1.3-.6.3-.6 0-1.1 0-1.9-.1.1.2.2.6.2.8.6.1 1.1.1 1.6.1 1.2 0 1.5-.2 1.5-.9v-8.3c0-.5 0-.8.1-1.1H197.3v9.1zm-6.3-1.6c1.1 1.4 2.2 2.2 3.7 2.9.2-.3.4-.5.6-.7-1.7-.7-2.8-1.5-3.6-2.7l-.7.5zm-2.9-.4c-.8 1.1-2 2-3.5 2.6.3.2.4.4.6.7 1.5-.7 2.7-1.6 3.6-2.8l-.7-.5zm.2-4.5h3.2v3.1h-3.2v-3.1zm-.8-.7h-1.2c-.5 0-.9 0-1.2-.1v.9c.3 0 .7-.1 1.2-.1h1.2v3.1h-1.5c-.5 0-1.2 0-1.4-.1v.9c.3 0 .9-.1 1.4-.1h8c.5 0 1.2 0 1.5.1v-.9c-.2.1-1 .1-1.5.1h-1.6v-3.1h1.3c.6 0 1 0 1.3.1v-.9c-.3 0-.7.1-1.3.1h-1.3v-1.1c0-.5 0-1 .1-1.3h-1c0 .2.1.6.1 1.3v1.1h-3.2v-1.1c0-.5 0-1 .1-1.3h-1c.1.2.1.7.1 1.3v1.1zM276.2 305.1c0-.3.1-.6.1-.9 0-.4 0-.5.1-.8h-.9v.7c0 .3 0 .7-.1 1h-2.1c-.6 0-1 0-1.3-.1v.9c.3 0 .7-.1 1.3-.1h1.9c-.4 1.6-1.7 2.8-4 3.5.3.2.4.4.5.7 2.5-.9 3.9-2.3 4.3-4.2h2.3v3c0 .8.3 1 1.8 1 2 0 2 0 2.3-2.5-.3-.1-.5-.2-.8-.3 0 .9-.1 1.6-.2 1.8-.1.2-.3.3-1.2.3-.9 0-1.1 0-1.1-.4l.1-2.5v-1.1c-.4.1-.8.1-1.4.1h-1.6zm0-4.8h-3.4c-.4 0-.8 0-1.2-.1 0 .2.1.5.1.8v.6c0 .4 0 .6-.1.8h.8V301h2.6c-.1 1.5-1.1 2.2-3.2 2.6.2.3.4.5.5.7 1.7-.5 2.5-.9 3.1-1.9.2-.4.3-.7.4-1.3h1.5v2.1c0 .6.3.7 1.6.7.9 0 1.4-.1 1.6-.3.2-.2.3-.5.4-1.3-.3-.1-.5-.1-.7-.2 0 .6-.1.9-.2 1-.1.1-.5.1-1 .1-.4 0-.7 0-.8-.1l-.1-.2V301h3v1.6h.8c0-.2-.1-.5-.1-.8v-.6c0-.4 0-.6.1-.8-.5 0-.8.1-1.2.1h-3.6v-.4c0-.4 0-.7.1-.9h-.9c.1.2.1.5.1.9v.2zm-10.8-.1h2v3.4h-2v-3.4zm-.8 0v3.4h-.4c-.5 0-.9 0-1.2-.1v.8c.3 0 .6-.1 1.2-.1h.4c-.1 2.5-.7 4.1-2 5.3.2.1.5.3.7.6 1.4-1.5 1.9-3.2 2-5.8h2v4.4c0 .6 0 .9-.1 1.3h.9c-.1-.4-.1-.8-.1-1.3v-4.4h.4c.6 0 .9 0 1.2.1v-.9c-.3.1-.7.1-1.2.1h-.4v-3.4h.3c.6 0 .9 0 1.2.1v-.8c-.3 0-.7.1-1.2.1h-3.9c-.6 0-1 0-1.2-.1v.8c.3 0 .7-.1 1.2-.1h.2zm-4.3 3.7h1.5v3.8h-1.5v-3.8zm0-3.7c-.2 1.8-1.1 4-2.1 5 .1.1.3.4.5.7.4-.5.7-1 .9-1.5v4.1c0 .5 0 .9-.1 1.2h.8v-1.3h1.5v.6h.8c0-.3-.1-.6-.1-1v-3.8-1h-2.3c.4-1 .7-2.1.9-3.1h.7c.4 0 .7 0 1 .1v-.8c-.3.1-.6.1-1 .1h-2c-.5 0-.8 0-1.1-.1v.8c.3 0 .6-.1 1-.1h.6zm-11.9-.4c-.5 2.5-.6 4.3-.6 6.1 0 .9.1 2.2.3 3.5h.2c.2 0 .4-.1.6-.1-.2-1.3-.2-2.5-.2-3.3 0-1.7.2-3.5.6-6-.2-.1-.6-.2-.9-.2m3.4 1.4v.3c0 .2 0 .4.1.5 1-.2 2.2-.3 3.1-.3.7 0 1.2 0 1.6.1 0-.2.1-.4.1-.6v-.3c-.5-.1-1-.1-1.7-.1-1 0-2.3.1-3.2.4m5.1 6.4c-.9.2-1.8.2-2.6.2-1.6 0-2.3-.5-2.5-1.4-.3 0-.5.1-.7.2.2 1.3 1.1 2.1 3.2 2.1.9 0 1.7-.1 2.7-.3v-.3c0-.2-.1-.4-.1-.5m-13.7-1.4c-.6-1.2-1.3-2.3-1.9-3l-.6.4c.6.7 1.2 1.7 1.9 3.1l.6-.5zm1.5-4.6c0 1.8 0 2.7-.1 3.6-.1 1.6-.2 2.8-.5 3.4-.1.4-.3.5-.8.5-.4 0-1-.1-1.7-.2.1.3.2.6.2.9.8.1 1.1.1 1.6.1.7 0 1.1-.2 1.3-.8.4-1 .6-2.6.7-7.5v-.8h-4.1c.2-.4.3-.8.5-1.2.1-.3.1-.4.2-.5l-.8-.2c-.2 1.3-1.2 3.4-2.1 4.3.2.1.4.4.6.5.6-.7 1-1.4 1.4-2.2h3.6zm-8.7 3.3h2.4v3H236v-3zm0-3.4h2.4v2.7H236v-2.7zm.3-.6h-1.1c0 .3.1.6.1 1.2v6.2c0 .7 0 1.2-.1 1.5h.8v-1.1h2.4v.8h.8c0-.3-.1-.8-.1-1.3V302v-1.1H237.2c.2-.5.4-1 .6-1.7l-.9-.2c-.1.5-.3 1.2-.5 1.8h-.1zm-7.6-1.9c-.5 1-1.9 2.3-3.3 3 .2.1.4.4.5.6 1.4-.8 2.7-2 3.3-3 .9 1.2 2.1 2.2 3.9 3 .1-.2.3-.5.5-.7-1.6-.6-3.2-1.7-3.9-2.9h-1zm-1.6 3.7h4.4v-.8c-.2 0-.6.1-1.1.1h-2.2c-.5 0-.9 0-1.1-.1v.8zm-4 4.1h1.5v1.9h-1.5v-1.9zm0 2.5h1.5v.4h.7v-2.6-1H222.4c0 .3.1.6.1 1.1v1.6c0 .5 0 1-.1 1.2h.8v-.7zm-.7-4.1h2.8v-.7h-2.8v.7zm0-1.7c.2 0 .5-.1.8-.1h1.2c.4 0 .6 0 .8.1v-.7c-.2 0-.5.1-.8.1h-1.2c-.4 0-.7 0-.8-.1v.7zm-.4-1.7h3.5v-.8c-.2.1-.5.1-.9.1h-1.7c-.4 0-.7 0-.9-.1v.8zm.4-1.7h3.1v-.8c-.2.1-.5.1-.9.1h-1.3c-.4 0-.6 0-.9-.1v.8zm8.2 4.3h1.4v1.7h-1.4v-1.7zm-1.8 0h1.2v1.7h-1.2v-1.7zm-.7 1.7h-1.3v-1.7h1.3v1.7zm0 .6v1.7c0 .6 0 1-.1 1.3h.8c0-.3-.1-.6-.1-1.3v-1.7h1.2v1.7c0 .5 0 1-.1 1.3h.8c0-.2-.1-.8-.1-1.3v-1.7h1.4v2.2c0 .2-.1.2-.3.2-.3 0-.5 0-.8-.1.1.2.1.4.2.7h.6c.9 0 1.1-.2 1.1-.9v-4.1c0-.6 0-.8.1-1.2-.2 0-.6.1-1.3.1h-4.3c-.6 0-1 0-1.2-.1v5.1c0 .5 0 1-.1 1.3h.8c-.1-.2-.1-.7-.1-1.3v-2h1.5zm-11-4.1h2.1v1.7h-2.1v-1.7zm-.7 1.7h-2v-1.7h2v1.7zm.7-4.1h2.1v1.7h-2.1v-1.7zm-.7 1.8h-2v-1.7h2v1.7zm0 3v1.4h-1.6c-.6 0-.9 0-1.2-.1v.8c.3 0 .6-.1 1.2-.1h1.6v1.8h-2.5c-.6 0-.9 0-1.2-.1v.8c.3 0 .7-.1 1.2-.1h5.5c.6 0 .9 0 1.2.1v-.8c-.3.1-.6.1-1.2.1h-2.3V307h1.8c.6 0 .9 0 1.2.1v-.8c-.3 0-.6.1-1.2.1h-1.8V305h1.4c.7 0 1 0 1.5.1 0-.3-.1-.8-.1-1.6V301c0-.8 0-1.2.1-1.5-.3.1-.7.1-1.6.1h-3.2c-.8 0-1.2 0-1.6-.1 0 .3.1.8.1 1.5v4c.3 0 .7-.1 1.5-.1h1.2zm-5.4-4.7v2.9h-.6c-.4 0-.6 0-.8-.1v.8c.3-.1.5-.1.8-.1h.6v3.4c-.9.4-1.3.5-1.7.5l.2.9c.1-.1.3-.1.6-.2 1.3-.5 2.1-.8 3.1-1.3l-.1-.8-1.4.7v-3.1h.5c.3 0 .6 0 .8.1v-.8c-.3.1-.5.1-.8.1h-.5v-2.9h.6c.4 0 .6 0 .9.1v-.8c-.2 0-.6.1-1 .1h-1.9c-.5 0-.8 0-1-.1v.8c.3-.1.5-.1 1-.1h.7zM131.4 262.2c.5.6 1 1.2 1.4 2l.7-.4c-.3-.6-.9-1.4-1.5-2l-.6.4zm-1.4.8c.5.6 1 1.3 1.3 2l.7-.4c-.3-.7-.8-1.5-1.4-2l-.6.4zm-.8-2c-2.3 1.4-3 2.8-3 4.3 0 2 1.4 3.4 4.6 3.8.2-.3.2-.7.2-1-2.9-.4-4-1.4-4-3 0-1.1.6-2.4 2.4-3.5.7-.4 1.5-.7 2.6-.9v-.2c0-.2 0-.4-.1-.6-3.1.2-6.1.5-9.4.8v.2c0 .2 0 .5.1.7 2.7-.3 4.8-.5 6.6-.6zm-16.4 6.5h5.1v1.1h-5.1v-1.1zm0-1.7h5.1v1.1h-5.1v-1.1zm0-1.8h5.1v1.1h-5.1V264zm-.8 4.7h-.8c-.6 0-1 0-1.3-.1v.8c.3 0 .8-.1 1.3-.1h8.3c.5 0 1 0 1.3.1v-.8c-.3.1-.7.1-1.3.1h-.9v-4c0-.5 0-1.1.1-1.4h-6.8c0 .3.1.8.1 1.2v4.2zm2.9-8.7h-3.5c-.5 0-1 0-1.3-.1v.8c.3-.1.7-.1 1.2-.1h2.9c-1.1 1.1-2.9 2.2-4.5 2.7.2.2.3.4.5.7 1.9-.7 3.7-1.9 4.7-3.2V262.1c0 .4 0 .6-.1.8h.9c0-.2-.1-.5-.1-.8v-.6-.8c1 1.4 2.8 2.5 5 3.2.2-.4.3-.5.5-.8-2-.5-3.6-1.4-4.8-2.6h3.1c.6 0 .9 0 1.2.1v-.8c-.3 0-.7.1-1.2.1h-3.7v-.3c0-.4 0-.7.1-1h-.9c.1.3.1.5.1 1v.4zm-6.9.4c0-.5 0-.9.1-1.2-.3 0-.6.1-1.2.1h-3.8c-.6 0-.9 0-1.2-.1.1.5.1.9.1 2 0 2.4-.1 4.5-.2 5.8-.2 1.1-.3 1.6-.7 2.3.3.2.4.3.6.5.8-1.4 1-3.3 1.1-8.5v-1.4h4.6v8.7c0 .3-.1.4-.4.4-.4 0-.9 0-1.4-.1.1.3.1.5.2.8.7.1.9.1 1.2.1 1 0 1.3-.2 1.3-.9v-8.5zm-4 5h1.7v1.7H104v-1.7zm2.4.1v-.7H103.3V268.6h.7v-.8H106.5v-2.3zm-7.9 1.1h1.7v1.8h-1.7v-1.8zm0 3.2v-.8h2.4V266.9v-.9h-3.2v2.6c0 .4 0 .9-.1 1.2h.9zm-.7-4.8H100.9v-.8c-.2 0-.4.1-.8.1h-1.6c-.4 0-.6 0-.8-.1v.8zm0-1.6c.2 0 .4-.1.8-.1h1.6c.4 0 .6 0 .8.1v-.8h-3.2v.8zm-.4-1.7h4v-.8c-.2.1-.5.1-1 .1h-2c-.5 0-.7 0-1-.1v.8zm.4-1.7h3.3v-.8c-.2.1-.5.1-.9.1h-1.5c-.4 0-.6 0-.9-.1v.8zm6.8 2v1.3h-.8c-.4 0-.6 0-.8-.1v.7c.2 0 .5-.1.8-.1h2.2c.4 0 .6 0 .8.1v-.7c-.3 0-.5.1-.9.1h-.8V262h1.5v-.7c-.3 0-.5.1-.9.1h-.6v-.2c0-.4 0-.7.1-.9h-.8c.1.3.1.5.1.9v.2h-.5c-.3 0-.6 0-.9-.1v.7h1.5zm-15.5.8c-.2-.6-.3-.8-.6-1.4h3.4c-.2.5-.4 1-.6 1.4h-2.2zm.7.6v.9h-2.4c-.5 0-1 0-1.3-.1v.7c.3 0 .7-.1 1.3-.1h2.4v.9h-3.5c-.7 0-1.1 0-1.4-.1v.8c.4 0 .8-.1 1.4-.1h3c-1.1 1-2.6 1.7-4.5 2.2.2.2.4.4.5.7 2.1-.7 3.5-1.4 4.6-2.6 0 .4-.1.8-.1 1v.8c0 .5 0 .9-.1 1.3h.9c-.1-.3-.1-.7-.1-1.3v-.8-1c1.2 1.2 2.6 2 4.9 2.7.1-.3.3-.5.5-.8-1.9-.3-3.8-1.2-4.8-2.1h3.2c.6 0 1 0 1.4.1v-.8c-.3 0-.7.1-1.4.1h-3.7v-.8h2.6c.6 0 1 0 1.3.1v-.7c-.3 0-.8.1-1.3.1h-2.6v-.9h3.3c.6 0 1 0 1.3.1v-.8c-.3 0-.7.1-1.3.1h-1.7c.2-.4.4-.8.6-1.4h1.4c.6 0 1.1 0 1.4.1v-.8c-.3 0-.7.1-1.4.1h-.7c.4-.5.6-.8.9-1.4l-.7-.3c-.2.5-.5 1-1 1.7h-1.2v-.9c0-.4 0-.8.1-1h-.8v2h-1.3v-1-1h-.8c.1.3.1.6.1 1v.9h-1c-.3-.6-.6-1-1.1-1.6l-.7.3c.4.4.8.9 1 1.3h-.8c-.6 0-1 0-1.3-.1v.8c.3 0 .8-.1 1.4-.1h1.5c.3.4.5.9.6 1.4h-1.8c-.6 0-1 0-1.3-.1v.8c.3 0 .7-.1 1.3-.1h3.2zm-12.7-4.5c-.9 1.7-3 3.5-5.2 4.5.3.3.4.4.5.7 2.1-1.1 3.9-2.7 5.1-4.4 1 1.6 3 3.2 5.2 4.3.2-.3.2-.5.5-.8-2.2-.9-4.5-2.7-5.3-4.3h-.8zm1.1 9.7v-3.1h2.2c.5 0 1 0 1.2.1v-.9c-.2 0-.6.1-1.2.1h-2.2v-1.4c0-.6 0-1 .1-1.3h-1c.1.3.1.8.1 1.3v5.3h-2.3v-3.1c0-.6 0-1 .1-1.3h-.9c.1.3.1.8.1 1.3v3.1h-.9c-.6 0-1 0-1.4-.1v.9c.3-.1.8-.1 1.4-.1h8.1c.6 0 1.1 0 1.4.1v-.9c-.3.1-.8.1-1.4.1h-3.4zm-10.9-8.1v.7h.8v-.7h1c.6 0 1 0 1.3.1v-.8c-.3.1-.6.1-1.3.1h-1v-.2c0-.4 0-.6.1-.8h-.8v1h-1.9v-.2-.8h-.8c0 .2.1.4.1.8v.2h-.7c-.6 0-.9 0-1.2-.1v.8c.3 0 .5-.1 1.2-.1h.7V261.3h.8v-.7h1.7zm-5.3 1.4h.8v-.7c-.2 0-.4.1-.8.1h-.5V260c0-.6 0-1 .1-1.3h-.8c0 .3.1.6.1 1.3v1.2h-.6c-.4 0-.7 0-.9-.1v.8h1.4c-.4 1.7-1 3.1-1.7 4 .1.1.3.4.4.7.6-.9 1.1-2 1.4-3.5 0 .5-.1 1.2-.1 1.9v3.5c0 .6 0 1.2-.1 1.4h.9c-.1-.3-.1-.8-.1-1.4v-3.7c0-.9 0-1-.1-2 .2.8.6 1.5 1 2.2.1-.2.2-.4.4-.6-.6-.7-.9-1.4-1.3-2.5h.5zm2.1 1.9h4.7v1h-4.7v-1zm0-1.6h4.7v1h-4.7v-1zm-.3 4.2h-1.2v.8c.3 0 .7-.1 1.2-.1h1.7c-.5 1.1-1.5 1.7-3.4 2.1.2.2.3.4.4.7 1.9-.5 3.1-1.3 3.6-2.5.7 1.2 2 2.1 3.8 2.5.1-.2.2-.5.4-.7-1.7-.3-3-1-3.6-2.1h2.4c.5 0 .8 0 1.2.1v-.8c-.3 0-.7.1-1.2.1h-2.6c0-.3.1-.5.1-.9H69.5c0-.3-.1-.5-.1-1v-2c0-.4 0-.7.1-1H63.3v4h2.5c0 .5 0 .7-.1.9h-1.9zm-11.3-2.3h3.6v1.4h-3.6v-1.4zm0-2.1h3.6v1.4h-3.6V262zm0-2h3.6v1.3h-3.6V260zm.4 6.2c-.1 1.7-.9 2.6-2.8 3.1.2.2.4.3.6.6 2.1-.8 2.9-1.7 3-3.7h1v2.7c0 .7.2.8 1.3.8 1.6 0 1.8-.1 2-2-.2-.1-.5-.2-.7-.3-.1.8-.1 1.2-.2 1.4-.1.2-.3.2-.9.2-.6 0-.7 0-.7-.3v-2.5h.4c.4 0 .9 0 1.1.1 0-.3-.1-.6-.1-1.1v-4.6c0-.5 0-.9.1-1.2-.3.1-.6.1-1.2.1H53c-.5 0-.9 0-1.2-.1 0 .3.1.7.1 1.2v5.7h1zm-2.5-1.6c.4 0 .6 0 .9.1v-.8c-.3 0-.6.1-1 .1h-.8c.1-.7.1-1.3.1-2h.8c.4 0 .6 0 .9.1v-.8c-.2 0-.6.1-1 .1h-.7v-.8c0-.7 0-1 .1-1.3h-.9c0 .3.1.6.1 1.1v1.1H48c-.4 0-.7 0-1-.1v.8c.3 0 .6-.1 1-.1h.8c0 .9 0 1.5-.1 2h-.9c-.4 0-.7 0-1-.1v.9c.3 0 .6-.1 1-.1h.8c-.2 1.9-.9 3.4-2.1 4.4.3.2.4.3.6.6 1.1-1 1.8-2.3 2.1-4 .4.9.9 1.6 1.7 2.3l.2-.4.3-.3c-.8-.7-1.4-1.5-2-2.6h1zm-7.1-2.1c.6 0 1 0 1.3.1v-.9c-.3.1-.8.1-1.3.1h-3.7c0-.5 0-.8.1-1.5 0-.5 0-.9.1-1.3h-1c.1.3.1.8.1 1.3v1.5h-3.4c-.6 0-1.1 0-1.4-.1v.9c.3-.1.7-.1 1.3-.1h3.3c-.4 3.2-1.9 5.2-4.9 6.4.2.2.4.4.5.7 2.8-1.3 4.5-3.2 5-6.1.8 2.8 2.5 4.7 5.1 6 .2-.4.3-.5.5-.8-2.7-1.1-4.5-3.3-5.3-6.3h3.7zM112.1 283.6c.5-.6 1-1.3 1.4-2 1.3 0 2.5-.1 3.8-.2v-.8c-1.1.1-2.3.2-3.4.3.2-.5.5-1.1.7-1.6-.2-.1-.6-.2-.9-.2-.2.7-.5 1.3-.7 1.9h-3v.8c.9 0 1.7 0 2.6-.1-.7 1.4-1.7 2.6-3 3.7.1.3.3.5.5.6 2-1.7 3-2.3 3.9-2.3.6 0 .9.2 1 1-2.3 1-3.1 2-3.1 3 0 1.2.9 1.8 3.2 1.8 1.2 0 2.3-.1 3.5-.3v-.1c0-.3 0-.6-.1-.8-1.2.3-2.4.4-3.4.4-1.8 0-2.4-.4-2.4-1.2 0-.7.7-1.4 2.4-2.1v2.1h.8c0-.9 0-1.6-.1-2.5 1.1-.4 2.6-.8 3.6-1.1 0-.3-.1-.7-.3-.9-1.2.4-2.3.8-3.4 1.2-.2-.9-.7-1.4-1.6-1.4-.5.2-1.3.5-2 .8zm-9.2-2.2c.1-.7.1-1.2.1-1.6 0-.4 0-.7.1-1h-1c.1.3.1.6.1 1.2v1.5h-2.4c-.8 0-1.2 0-1.5-.1v.9c.2 0 .9-.1 1.5-.1h2.4c-.3 3.5-1.7 5.5-4.4 6.8.2.1.5.4.6.7 3-1.7 4.2-3.7 4.6-7.5h3.8c0 1.9-.1 3.6-.3 4.8-.2 1.5-.4 1.8-1 1.8s-1.4-.1-2.3-.3c.1.3.2.6.2.9.9.1 1.6.2 2.2.2 1 0 1.3-.3 1.6-1.4.2-.9.4-3.4.4-5.2v-1.1-.5c-.3 0-.7.1-1.4.1h-3.3zm-16.5 7.1c0 .7 0 1.1-.1 1.5h.9c0-.3-.1-.9-.1-1.4V282c.4-.8.6-1.2.9-2.1.2-.5.2-.6.3-.8l-.9-.3c-.3 1.7-1.4 3.8-2.8 5.3.3.3.3.4.5.7.5-.6.9-1.1 1.3-1.8v5.5zm5-1v1.2c0 .4 0 .9-.1 1.3h.9c-.1-.4-.1-.8-.1-1.3v-1.2h1.1c.5 0 .7 0 1 .1v-.8c-.2 0-.6.1-1 .1h-1.1v-2.6-1.5c.8 1.9 2.1 3.6 3.7 4.9.2-.3.4-.5.6-.7-1.6-1.1-2.9-2.6-3.9-4.7h2.3c.4 0 1 0 1.2.1v-.9c-.3.1-.7.1-1.3.1h-2.6v-1.3c0-.6 0-1 .1-1.2h-.9c0 .3.1.7.1 1.2v1.3h-2.2c-.5 0-1 0-1.2-.1v.9c.3 0 .8-.1 1.2-.1h1.9c-.7 1.8-2.4 3.8-3.8 4.7l.6.6c1.6-1.3 2.8-2.9 3.5-4.8v4.1h-1c-.4 0-.8 0-1-.1v.8c.2 0 .5-.1 1-.1h1zm-14-6.6c-.1 2.5-.5 4.2-1.3 5.6-.5.8-.9 1.1-1.4 1.1-.6 0-1.3-.8-1.3-2.4 0-1.9 1.3-4 4-4.3m1.4 8.5c2.6-.8 4.1-2.4 4.1-4.9 0-2.7-2.3-4.4-4.9-4.4-3.4 0-5.5 2.5-5.5 5 0 2.1 1 3.3 2.1 3.3.8 0 1.5-.3 2.2-1.5.9-1.6 1.4-3.5 1.4-6.1 2 .1 3.8 1.3 3.8 3.6 0 2-1.2 3.4-3.8 4.1l.6.9zm-14.6-6.5c-.2-.6-.3-.8-.6-1.4H67c-.2.5-.4 1-.6 1.4h-2.2zm.7.7v.9h-2.4c-.5 0-1 0-1.3-.1v.7c.3 0 .7-.1 1.3-.1h2.4v.9h-3.5c-.7 0-1.1 0-1.4-.1v.8c.4-.1.8-.1 1.4-.1h3c-1.1 1-2.6 1.7-4.5 2.2.2.2.3.4.5.7 2.1-.7 3.5-1.4 4.6-2.6v1.8c0 .5 0 .9-.1 1.3h.9c0-.3-.1-.7-.1-1.3v-.8-1c1.2 1.2 2.6 2 4.9 2.7.1-.3.3-.5.5-.8-1.9-.3-3.8-1.2-4.8-2.1h3.2c.6 0 1 0 1.4.1v-.8c-.3 0-.7.1-1.4.1h-3.7v-.9h2.6c.6 0 1 0 1.3.1v-.7c-.3 0-.8.1-1.3.1h-2.6v-.9h3.3c.6 0 1 0 1.3.1v-.8c-.3 0-.7.1-1.3.1h-1.7c.2-.4.4-.8.6-1.4h1.4c.6 0 1.1 0 1.4.1v-.8c-.3 0-.7.1-1.4.1h-.7c.4-.5.6-.8.9-1.4l-.7-.3c-.2.5-.5 1-1 1.7h-1.2v-.9c0-.4 0-.8.1-1H66c0 .2.1.6.1 1v1h-1.3v-1-1H64c0 .3.1.6.1 1v.9h-1c-.3-.6-.6-1-1.1-1.6l-.7.3c.4.4.8.9 1 1.3h-.8c-.6 0-1 0-1.3-.1v.8c.3 0 .8-.1 1.4-.1h1.5c.3.4.5.9.6 1.4h-1.8c-.6 0-1 0-1.3-.1v.8c.3 0 .7-.1 1.3-.1h3zM52.2 279c-.9 1.7-3 3.5-5.2 4.5.3.3.4.4.5.7 2.1-1.1 3.9-2.7 5.1-4.4 1 1.6 3 3.2 5.2 4.3.1-.3.2-.5.5-.8-2.2-.9-4.5-2.7-5.3-4.3h-.8zm1.1 9.7v-3.1h2.2c.5 0 1 0 1.2.1v-.9c-.2.1-.6.1-1.2.1h-2.2v-1.4c0-.6 0-1 .1-1.3h-1c.1.3.1.8.1 1.3v5.3h-2.3v-3.1c0-.6 0-1 .1-1.3h-.9c0 .3.1.8.1 1.3v3.1h-.9c-.6 0-1 0-1.4-.1v.9c.3-.1.8-.1 1.4-.1h8.1c.6 0 1.1 0 1.4.1v-.9c-.3.1-.8.1-1.4.1h-3.4zM109.8 308.6c0 .6 0 1.1-.1 1.5h.9c0-.3-.1-.9-.1-1.4V302c.4-.8.6-1.4.8-2.1.1-.4.2-.4.2-.7l-.8-.3c-.2 1.6-1.4 4.1-2.5 5.3.2.2.4.4.5.7.4-.6.8-1.2 1.1-1.7v5.4zm7.2-5.3h1.6v5.2H117v-5.2zm-2.2 0h1.5v5.2h-1.5v-5.2zm-.8 5.2h-1.5v-5.2h1.5v5.2zm2.3-5.9h-1.5v-2.1h1.5v2.1zm.7 0v-2.1h1.5c.6 0 1 0 1.3.1v-.9c-.5.1-1.5.1-3.3.1h-3.6c-.6 0-1 0-1.3-.1v.9c.3 0 .6-.1 1.3-.1h1.1v2.1h-1.2c-.5 0-.8 0-1.1-.1 0 .3.1.6.1 1.1v5c0 .5 0 .9-.1 1.3h.8v-.8h6v.8h.8c0-.4-.1-.8-.1-1.3v-5-1.1c-.2 0-.5.1-1.1.1H117zm-11.1-1.8c-.3 1-.7 2.1-1.4 3.2l.6.3c.6-1.1 1-1.9 1.4-3.1l-.6-.4zm-5.4.3c.5.9.8 1.9 1.1 3.1l.7-.3c-.3-1.1-.6-2-1.1-3.1l-.7.3zm-3.5 5.8h2v1.9h-2v-1.9zm0 3.2v-.7h2v.5h.8c0-.3-.1-.7-.1-1.1v-1.7-1h-2.6c-.3 0-.7 0-1-.1 0 .3.1.6.1 1v1.6c0 .5 0 .9-.1 1.2h.9zm-.7-4.8c.2 0 .5-.1.9-.1h1.7c.4 0 .6 0 .9.1v-.8h-3.5v.8zm0-1.8c.3 0 .5-.1.9-.1h1.7c.4 0 .5 0 .9.1v-.8h-3.5v.8zm-.6-1.7h4.2v-.8c-.2 0-.5.1-1 .1h-2.2c-.4 0-.8 0-1-.1v.8zm.5-1.7c.2 0 .6-.1.9-.1h1.6c.4 0 .7 0 .9.1v-.8c-.3.1-.5.1-.9.1h-1.6c-.4 0-.7 0-.9-.1v.8zm6.9 0v4.7h-1.8c-.5 0-.8 0-1.1-.1v.8c.3 0 .6-.1 1.1-.1h1.8v3.1c0 .6 0 1-.1 1.3h1c-.1-.4-.1-.8-.1-1.3v-3.1h2c.5 0 .8 0 1.1.1v-.8c-.3.1-.6.1-1.1.1h-2v-4.7h1.7c.5 0 .8 0 1.1.1v-.8c-.3.1-.6.1-1.1.1h-4.1c-.5 0-.8 0-1.1-.1v.8c.3-.1.6-.1 1.1-.1h1.6zm-17.7-.3c-.5 2.5-.6 4.3-.6 6.1 0 .9.1 2.2.3 3.5h.2c.2 0 .4-.1.6-.1-.2-1.3-.3-2.5-.3-3.3 0-1.7.2-3.5.6-6-.1-.1-.5-.2-.8-.2m3.4 1.4v.3c0 .2 0 .4.1.5 1-.2 2.2-.3 3.1-.3.7 0 1.2 0 1.6.1.1-.2.1-.4.1-.6v-.3c-.5-.1-1-.1-1.7-.1-1 0-2.3.1-3.2.4m5.1 6.4c-.9.2-1.8.2-2.6.2-1.6 0-2.3-.5-2.5-1.4-.2 0-.5.1-.7.2.2 1.3 1.1 2.1 3.2 2.1.9 0 1.7-.1 2.7-.3v-.3c0-.2 0-.4-.1-.5m-13.7-1.4c-.6-1.2-1.3-2.3-1.9-3l-.6.4c.6.7 1.2 1.7 1.9 3.1l.6-.5zm1.5-4.6c0 1.8 0 2.7-.1 3.6-.1 1.6-.3 2.8-.5 3.4-.2.4-.3.5-.8.5-.4 0-1-.1-1.7-.2.1.3.2.6.2.9.8.1 1.1.1 1.6.1.7 0 1.1-.2 1.3-.8.4-1 .6-2.6.7-7.5 0-.4 0-.6.1-.8h-4.1c.2-.4.3-.8.5-1.2.1-.3.1-.4.2-.5l-.8-.2c-.2 1.3-1.2 3.4-2.1 4.3.2.1.5.4.6.5.6-.7 1-1.4 1.4-2.2h3.5zm-8.7 3.3h2.4v3H73v-3zm0-3.4h2.4v2.7H73v-2.7zm.3-.6h-1.1v7.4c0 .7 0 1.2-.1 1.5h.9v-1.1h2.4v.8h.8c0-.3-.1-.8-.1-1.3V302v-1.1h-1.8c.2-.5.4-1 .6-1.7l-.9-.2c-.1.5-.3 1.2-.5 1.8h-.2zm-6.3 1.7h2v6.2h-2v-6.2zm-4.2 6.1h-2v-6.2h2v6.2zm.7-1.7h2.7v1.7h-2.7V307zm2.7-2.9h-2.7v-1.6h2.7v1.6zm-2.7.7h2.7v1.6h-2.7v-1.6zm1-2.9c.3-.6.5-1.2.7-1.7H69c.5 0 1 0 1.3.1v-.8c-.3.1-.8.1-1.3.1h-8.2c-.6 0-1 0-1.3-.1v.8c.4-.1.7-.1 1.3-.1h3.6c-.2.6-.5 1.3-.7 1.7h-2.3c-.6 0-1.1 0-1.4-.1.1.4.1.9.1 1.5v5.3c0 .7 0 1.2-.1 1.5h.8v-.7H69v.7h.9c-.1-.3-.1-.8-.1-1.5v-5.3c0-.6 0-1.1.1-1.5-.4 0-.8.1-1.5.1h-3.9zm-7.7 3c-.7.9-1.4 1.6-2.3 2.3-.6-.5-1.1-.8-1.7-1.2l-.6.5c.7.4 1.2.7 1.6 1.2-1.5.9-3.5 1.6-5.2 1.8.2.3.3.4.4.8 4.1-1 6.6-2.5 8.6-5.1l.2-.2.2-.2-.4-.5c-.3 0-.7.1-1.1.1h-2.2c.2-.2.4-.4.8-.9l-.8-.3c-.9 1.5-2.8 2.7-5.2 3.5.2.2.3.3.5.6 1.8-.7 3-1.4 4-2.3h3.2zm-6.4-2.8c.6.3 1.2.8 1.6 1.1-1.3.9-2.9 1.6-4.4 2 .2.2.4.5.4.7 3.4-1.1 6-2.9 8.1-5.7l-.4-.5c-.2 0-.7.1-1.1.1h-2.3c.2-.2.2-.3.4-.5l.3-.3.1-.1-.9-.2c-.6 1.2-2.7 2.9-4.5 3.6.2.2.4.4.5.6 1.3-.6 2.5-1.4 3.5-2.4H55c-.7.9-1.3 1.5-2.3 2.2-.5-.4-1-.7-1.6-1.1l-.7.5zM468.2 263h-3v-2.3-.9h-.9c0 .3.1.6.1.9v3h3.8v4.5h-3.5V266c0-.5 0-.7.1-1h-.9c0 .3.1.6.1 1.1v2.7c0 .4 0 .8-.1 1h.9v-.8h7.9v.7h.9c-.1-.3-.1-.6-.1-1V266c0-.5 0-.8.1-1.1h-.9c0 .3.1.6.1 1v2.3H469v-4.5h4v-3c0-.3 0-.6.1-.9h-.9c0 .3.1.6.1.9v2.3H469v-3.1c0-.5 0-.8.1-1.1h-1c.1.2.1.5.1 1.1v3.1zm-17.2 1.4c.3 0 .5-.1.9-.1h.7v3c-.7.7-1.4 1.2-1.9 1.5l.4.8.2-.2.5-.4.3-.3c.3-.2.5-.5.9-.8.3.6.8.9 1.3 1.2.7.4 1.4.4 3.5.4 1.5 0 2.8 0 4.1-.1.1-.4.1-.5.3-.9-1.3.2-2.6.3-4.9.3-1.4 0-2.2-.1-2.8-.4-.5-.2-.8-.5-1.1-1.1v-2.4-1.3c-.3 0-.5.1-.9.1h-.6c-.5 0-.7 0-.9-.1v.8zm.2-4.8c.7.7 1.2 1.2 1.7 2.1l.6-.6c-.6-.7-1-1.3-1.8-2l-.5.5zm7.2 7.3c.7.6 1.7 1.2 2.6 1.5.1-.2.3-.4.5-.6-.9-.3-1.9-.7-2.5-1.3l-.6.4zm-2-.4c-.6.5-1.3 1-2.2 1.3.2.2.4.4.6.5.9-.4 1.5-.8 2.2-1.5l-.6-.3zm4.9-6.7v-.7H459c-.3 0-.7 0-1-.1v.7h2.6v.9H458v1.6c0 .4.1.6.3.6.2.1.5.1 1.3.1 1.7 0 1.8-.1 2-1.2-.2 0-.4-.1-.6-.3 0 .5-.1.7-.2.8-.1.1-.4.1-1.2.1-.4 0-.6 0-.7-.1-.1 0-.1-.1-.1-.3v-.8h2.6V259.8zm-4 0v-.7H455c-.3 0-.8 0-1-.1v.7h2.7v.9h-2.6v1.6c0 .6.2.7 1.6.7 1 0 1.3-.1 1.5-.2.2-.2.3-.4.3-1-.2 0-.4-.1-.6-.3 0 .5-.1.6-.1.7-.1.2-.3.2-1.2.2-.8 0-.9 0-.9-.4v-.8h2.6V259.8zm-.6 4.8h2v1.1h-2v-1.1zm-.7 0v1.1h-1c-.5 0-.9 0-1.1-.1v.7c.2-.1.6-.1 1.1-.1h5.6c.6 0 .9 0 1.2.1v-.7c-.3.1-.6.1-1.2.1h-1.1v-1.1h.8c.6 0 .9 0 1.1.1v-.7c-.3 0-.6.1-1.1.1h-.8c0-.4 0-.5.1-.8h-.8c0 .2 0 .4.1.8h-2c0-.4 0-.6.1-.8h-.8c0 .3.1.4.1.8h-.5c-.6 0-.9 0-1.1-.1v.7c.3 0 .6-.1 1.1-.1h.2zm-12.4-3.8c0 2.5-.5 4.2-1.2 5.6-.4.8-.9 1.1-1.4 1.1-.6 0-1.3-.8-1.3-2.4 0-1.9 1.3-4 3.9-4.3m1.5 8.5c2.6-.8 4.1-2.4 4.1-4.9 0-2.7-2.3-4.4-4.9-4.4-3.3 0-5.4 2.5-5.4 5 0 2.1 1 3.3 2.1 3.3.8 0 1.5-.4 2.2-1.5.9-1.6 1.4-3.5 1.4-6.1 2 .1 3.8 1.3 3.8 3.6 0 2-1.2 3.4-3.7 4.1l.4.9zm-11.9-.6c1.1.6 2.2 1 3.8 1.3.1-.3.3-.5.4-.7-1.5-.2-2.6-.5-3.6-1.1l-.6.5zm-3-.4c-.9.5-1.9.8-3.4.9.2.2.4.4.5.7 1.6-.3 2.4-.6 3.5-1.2l-.6-.4zm-1.2-1.4h6.3v.7H429v-.7zm0-1.2h6.3v.7H429v-.7zm0-1.1h6.3v.6H429v-.6zm-.8 2.3c0 .6 0 1.1-.1 1.3H436c0-.2-.1-.7-.1-1.3v-1.7c0-.6 0-.9.1-1.2h-7.9c0 .4.1.7.1 1.2v1.7zm6.3-4.1h-4.8v-.8h4.8v.8zm.8-.7v-.7h-6.4V263.4h6.3V262.1zm-3.6-1.9h-1.4c-.4-.5-.7-1-1.2-1.4l-.6.3c.4.4.8.7 1 1.1H427.1v2.2h.8v-1.6h8.6v1.6h.8v-1.2-1.1H434.9c.4-.4.7-.7 1-1.2l-.7-.3c-.4.6-.6 1-1.2 1.5h-1.5v-.7c0-.3 0-.7.1-.9h-.9c0 .3.1.5.1.9v.8zm-8.2 2.3c.6 0 1 0 1.3.1v-.9c-.3.1-.8.1-1.3.1h-3.7c0-.5.1-.8.1-1.5 0-.5 0-.9.1-1.3h-1c.1.3.1.8.1 1.3s0 .8-.1 1.5h-3.4c-.6 0-1.1 0-1.4-.1v.9c.3-.1.7-.1 1.3-.1h3.3c-.4 3.2-1.9 5.2-4.9 6.4.2.2.4.4.5.7 2.8-1.3 4.4-3.2 5-6.1.8 2.8 2.4 4.7 5.1 6 .2-.4.3-.6.5-.8-2.7-1.1-4.5-3.3-5.3-6.3h3.8zm-11.7 6.5l-3.3-3.7 3.3-3.3h-1.2l-3.2 3.3 3.2 3.6h1.2zm-4.6-10h-1v10h1v-10zm-4.9 10v-3.7c0-1.9 1.1-2.5 2-2.5h.4v-.8h-.5c-1.1 0-1.7.6-1.9 1.5v-1.4h-1v6.9h1zm-6-6.2c1.2 0 2.1.7 2.1 2.7s-.9 2.7-2.1 2.7c-1.2 0-2.1-.7-2.1-2.7s.9-2.7 2.1-2.7m0-.8c-1.9 0-3.1 1.3-3.1 3.7 0 2.4 1.2 3.5 3.1 3.5 1.9 0 3.1-1.2 3.1-3.7s-1.2-3.5-3.1-3.5m-12.3 7l2.4-7.3 2.4 7.3h1.1l2.2-9.4H391l-1.8 8-2.5-7.8h-.7l-2.6 7.8-1.9-8h-1l2.2 9.4h1.3zm-7.3-.7c-.2 0-.5.1-.8.1-.9 0-1.1-.3-1.1-.9V263h1.8v-.8h-1.8v-2.3l-1 .4v1.9h-1.2v.8h1.2v4.7c0 1.1.4 1.6 1.8 1.6.3 0 .7 0 1.1-.1v-.9zm-7.6.7v-3.7c0-1.9 1.1-2.5 2-2.5h.4v-.8h-.5c-1.1 0-1.7.6-1.9 1.5h-.1v-1.4h-1v6.9h1.1zm-4.2-1.3c-.4.3-1.1.6-1.9.6-.9 0-1.2-.6-1.2-1.2 0-.8.6-1.2 3.1-1.4v2zm1.2 1.3c-.1-.7-.2-1.1-.2-2.2v-2.4c0-1.4-.6-2.5-2.2-2.5-.5 0-1.2.1-2 .4v.8c.6-.3 1.2-.4 1.7-.4 1.1 0 1.5.8 1.5 1.8v.2c-3.4.2-4.1.9-4.1 2.4 0 1 .7 1.9 2 1.9 1 0 1.7-.4 2.2-.8 0 .3.1.5.1.7h1zm-15.5 0v-5.7c.5-.3 1-.5 1.7-.5.8 0 1.5.5 1.5 1.7v4.5h1v-4.5c0-.3-.1-.7-.1-1 .5-.5 1.1-.7 1.9-.7.8 0 1.6.5 1.6 1.7v4.5h1v-4.5c0-1.5-.8-2.5-2.3-2.5-.9 0-1.7.3-2.4.9-.4-.6-1-.9-1.9-.9-.8 0-1.4.2-1.9.6v-.5h-.9v6.9h.8zm-8.3-.2c.5.2 1.3.4 2.4.4 1.8 0 3-1 3-2.7 0-1.3-.6-1.8-2.1-2.6l-.7-.3c-1-.5-1.3-.8-1.3-1.7s.6-1.5 1.7-1.5c.7 0 1.4.1 2.1.3v-1c-.5-.2-1.3-.3-1.9-.3-1.9 0-3 1-3 2.5 0 1.1.4 1.8 1.8 2.5l.7.3c1.2.5 1.6 1 1.6 1.9 0 .7-.4 1.6-2 1.6-.8 0-1.7-.2-2.4-.5v1.1zM462.8 282.1c-.5.9-2.5 2.4-3.8 2.8.2.2.3.4.5.7 1.3-.6 2.5-1.5 3.5-2.5.2-.2.4-.3.5-.5l-.7-.5zm.1 3.5c-.8 1.3-3 3.1-4.5 3.6.2.2.4.5.5.7 1.6-.8 3-1.8 4.2-3.2.2-.3.4-.4.5-.5l-.7-.6zm-.2-5.8l.4-.4-.7-.5c-.7 1-2.1 2.2-3.2 2.6.2.2.3.4.5.7.7-.4 1.7-1.1 2.3-1.7l.6-.6.1-.1zm-8.5 5.3h3.6v.9h-3.6v-.9zm0-1.4h3.6v.8h-3.6v-.8zm1.4 2.8v.9h-1.7c-.5 0-.9 0-1.1-.1v.8c.3-.1.5-.1 1.1-.1h1.7v.6c0 .7 0 1-.1 1.3h.9c-.1-.3-.1-.6-.1-1.3v-.6h1.5c.5 0 .8 0 1.2.1v-.8c-.3 0-.7.1-1.2.1h-1.5v-.9h1.1c.5 0 .8 0 1.1.1v-2.5-1.1c-.2 0-.6.1-1.1.1h-2.9c-.5 0-1 0-1.1-.1v3.6c.3 0 .6-.1 1.1-.1h1.1zm-.4-4.8c-.1-.4-.2-.8-.4-1.3h2.3c-.1.4-.3.9-.5 1.3h-1.4zm1.2-1.8v-.2c0-.4 0-.6.1-.8h-.9c0 .2.1.4.1.8v.2h-1.4c-.5 0-.9 0-1.1-.1v.7h1c.2.4.3.9.4 1.3h-.7c-.5 0-.8 0-1.1-.1v.8c.3-.1.6-.1 1.1-.1h4.1c.5 0 .9 0 1.1.1v-.8c-.2 0-.6.1-1.1.1h-.5c.2-.3.4-.8.5-1.3h.9v-.7c-.2 0-.6.1-1.1.1h-1.4zm-12.9 8.8c-.6.1-1.3.2-1.8.2l.2.9c.2-.1.3-.1.6-.2 1.8-.4 3.2-.7 4.5-1.1v-.7c-1.2.4-1.8.5-2.8.7v-2.9c.5-.5.7-.7 1.2-1.1h.1c1 2.4 2.6 4 5.3 5.1.1-.2.3-.5.5-.7-1.2-.5-2.4-1.1-3.2-1.9.7-.5 1.2-1 1.8-1.5l.1-.1.1-.1-.7-.5c-.3.5-1 1.1-1.8 1.7-.6-.7-.9-1.2-1.3-2h3.4c.6 0 1 0 1.3.1v-.8c-.3.1-.7.1-1.3.1h-3.8v-1.2h4v-.7c-.2 0-.6.1-1.3.1h-2.7v-1.2h3.4c.6 0 1 0 1.3.1v-.8c-.3.1-.7.1-1.3.1h-3.4v-.3c0-.5 0-.8.1-1.1h-.9c0 .2.1.5.1 1.1v.3H442c-.6 0-1 0-1.3-.1v.8c.3 0 .7-.1 1.3-.1h3.2v1.2h-2.5c-.6 0-1 0-1.2-.1v.8h3.7v1.2h-3.6c-.7 0-1.1 0-1.4-.1v.8c.3-.1.8-.1 1.4-.1h3c-1 1-2.7 2.1-4.4 2.7.2.2.4.5.5.7 1.2-.5 2-1 2.9-1.6v2.3zm-12.8-5h2.7v2.4h-2.7v-2.4zm-.8 2.4h-.9c-.6 0-.9 0-1.2-.1v.9c.3 0 .7-.1 1.2-.1h4.4v2c0 .5 0 .9-.1 1.1h1c-.1-.3-.1-.6-.1-1.1v-2h3.1c.5 0 .9 0 1.2.1v-.9c-.3.1-.7.1-1.2.1h-3.1v-2.4h2.2c.4 0 .8 0 1.1.1v-.8c-.3.1-.6.1-1.1.1h-2.2v-2h2.8c.5 0 .8 0 1.1.1v-.8c-.3.1-.6.1-1.1.1h-6.1l.1-.2.2-.6.1-.3.2-.3-.9-.2c-.4 1.5-1.5 3.2-2.8 4.2.2.1.4.3.6.6.8-.6 1.4-1.4 2-2.5h2.9v2h-3.5V286.1zm-5.7-5.3c.7 0 1.1 0 1.5.1v-.9c-.4.1-.8.1-1.5.1h-6.1c.1-.2.1-.3.3-.7.1-.2.1-.2.3-.5l-.9-.2c-.4 1.4-1.6 3-2.8 3.9.2.2.4.4.5.6.8-.7 1.5-1.5 2.1-2.4h6.6zm-6.4 3.9c.1-.8.2-1.2.3-2.1h2.3l-.1.9c0 .4-.1.7-.1 1.2h-2.4zm-.6 2.9c.2-.7.4-1.5.5-2.2h2.4c-.1.6-.2 1.2-.2 1.4l-.2.8h-2.5zm6.3-2.2c-.1.8-.2 1.8-.3 2.2h-2.7l.1-.8c.1-.3.1-.8.2-1.4h2.7zm-2.6-.7c.1-.7.1-.9.2-2.1h2.5c-.1 1.3-.1 1.3-.1 2.1h-2.6zm2.2 3.6c-.1.5-.1.5-.2.6-.1.2-.3.3-.6.3-.4 0-.7 0-1.4-.1.1.3.2.5.2.8.5 0 .9.1 1.2.1.6 0 .9-.1 1.1-.3.2-.2.3-.5.5-1.3h.5c.6 0 .8 0 1.1.1v-.8c-.2 0-.6.1-1.1.1h-.4c.1-.5.2-1.6.3-2.2h.7c.5 0 .9 0 1.1.1v-.8c-.3 0-.6.1-1.1.1h-.7c0-.5.1-1 .1-1.9 0-.5 0-.6.1-.9h-7.2v.3c0 .6-.1 1.5-.2 2.5h-.8c-.6 0-.9 0-1.2-.1v.9c.3 0 .6-.1 1.2-.1h.7c-.3 1.4-.6 2.5-1 3.6l.8.1c.1-.3.2-.4.2-.6l.1-.2h6zm-17-4.7c.5-.6 1-1.3 1.4-2 1.3-.1 2.5-.1 3.8-.2v-.8c-1.1.1-2.3.2-3.4.3.2-.5.5-1.1.7-1.6-.2-.1-.6-.2-.9-.2-.2.7-.5 1.3-.7 1.9h-3v.8c.9 0 1.7 0 2.6-.1-.7 1.4-1.7 2.6-3 3.7.1.2.3.5.5.6 2-1.7 3-2.3 3.9-2.3.6 0 .9.2 1 1-2.3 1-3.1 2-3.1 3 0 1.2.9 1.8 3.2 1.8 1.2 0 2.3-.1 3.5-.3v-.1c0-.3 0-.6-.1-.8-1.2.3-2.4.4-3.4.4-1.8 0-2.4-.4-2.4-1.2 0-.7.7-1.4 2.4-2.1v2.1h.8c0-.9 0-1.6-.1-2.5 1.1-.4 2.6-.8 3.6-1.1 0-.3-.1-.7-.3-.9-1.2.4-2.3.8-3.4 1.2-.2-.9-.7-1.4-1.6-1.4-.6.2-1.4.5-2 .8zm-10.9-.7c-.2-.6-.3-.8-.6-1.4h3.4c-.2.5-.4 1-.6 1.4h-2.2zm.6.7v.9h-2.4c-.5 0-1 0-1.3-.1v.7c.3 0 .7-.1 1.3-.1h2.4v.9h-3.5c-.7 0-1.1 0-1.4-.1v.8c.4 0 .8-.1 1.4-.1h3c-1.1 1-2.6 1.7-4.5 2.2.2.2.3.4.5.7 2.1-.7 3.5-1.4 4.6-2.6v1.8c0 .5 0 .9-.1 1.3h.9c0-.3-.1-.7-.1-1.3v-.8-1c1.2 1.2 2.6 2 4.9 2.7.1-.3.3-.5.5-.8-1.9-.3-3.8-1.2-4.8-2.1h3.2c.6 0 1 0 1.4.1v-.8c-.3.1-.7.1-1.4.1h-3.7v-.9h2.6c.6 0 1 0 1.3.1v-.7c-.3 0-.8.1-1.3.1h-2.6v-.9h3.3c.6 0 1 0 1.3.1v-.8c-.3 0-.7.1-1.3.1h-1.7c.2-.4.4-.8.6-1.4h1.4c.6 0 1.1 0 1.4.1v-.8c-.3.1-.7.1-1.4.1h-.7c.4-.5.6-.8.9-1.4l-.7-.3c-.2.5-.5 1-1 1.7h-1.2V280c0-.4 0-.8.1-1h-.8c0 .2.1.6.1 1v1h-1.3v-1c0-.5 0-.8.1-1h-.8c0 .2.1.6.1 1v.9h-1c-.3-.6-.6-1-1.1-1.6l-.7.3c.4.4.8.9 1 1.3h-.8c-.6 0-1 0-1.3-.1v.8c.3 0 .8-.1 1.4-.1h1.5c.3.4.5.9.6 1.4h-1.8c-.6 0-1 0-1.3-.1v.8c.3 0 .7-.1 1.3-.1h2.9zm-12.6-4.6c-.9 1.7-3 3.5-5.2 4.5.3.3.4.4.5.7 2.1-1.1 3.9-2.7 5.1-4.4 1 1.6 3 3.2 5.2 4.3.2-.3.2-.5.5-.8-2.2-.9-4.5-2.7-5.3-4.3h-.8zm1.1 9.7v-3.1h2.2c.6 0 1 0 1.2.1v-.9c-.2.1-.6.1-1.2.1h-2.2v-1.4c0-.6 0-1 .1-1.3h-1c.1.3.1.8.1 1.3v5.3h-2.3v-3.1c0-.6 0-1 .1-1.3h-.9c.1.3.1.8.1 1.3v3.1h-.9c-.6 0-1 0-1.4-.1v.9c.3-.1.8-.1 1.4-.1h8.1c.6 0 1.1 0 1.4.1v-.9c-.3.1-.8.1-1.4.1h-3.4zm-16.3-5.8h5.9v1.5H368v-1.5zm0-2h5.9v1.3H368v-1.3zm2.1 4.2c.7 2.2 2.7 3.9 5.9 4.9.1-.4.2-.6.4-.8-1.4-.3-2.9-1-3.8-1.8.9-.4 1.8-1 2.5-1.5l.3-.2.1-.1-.6-.6c-.5.6-1.5 1.2-2.8 1.9-.6-.6-.9-1.1-1.2-1.9h3.8V281.2v-1.1h-3.5v-.5c0-.3 0-.7.1-.9h-.9c.1.2.1.6.1.9v.5h-3.4c0 .2.1.7.1 1.1v7.5c-.8.2-1.4.2-1.8.3l.3.9c.2 0 .3-.1.7-.2 1.8-.4 3.4-.8 4.8-1.2v-.8c-.9.3-1.9.6-3.1.9V285h2zm-8.6-.3c.5.6.9 1.1 1.3 1.7l.5-.4c-.4-.6-.7-.9-1.3-1.6l-.5.3zm-2.8-.2c.4.3.7.5 1.1.8l.4-.4c-.4-.3-.6-.5-1.1-.7l-.4.3zm-2 0c-.3.6-.6 1.1-1.1 1.5l.5.4c.5-.5.9-1 1.2-1.7l-.6-.2zm-2.9 3.9c0 .6 0 1-.1 1.5h.9c0-.3-.1-.8-.1-1.4v-6.8c.4-.7.6-1.4.8-2.2.1-.3.1-.4.2-.6l-.8-.3c-.2 1.7-1.4 4.1-2.5 5.3.2.2.4.4.5.6.5-.7.8-1.2 1.1-1.7v5.6zm3.5-7.4h4.3v.5h-4.3v-.5zm0 1h4.3v.5h-4.3v-.5zm0 1h4.3v.6h-4.3v-.6zm1.6-3.2l-.1.3-.1.2-.1.2h-.7c-.6 0-1 0-1.3-.1v3.2c-.6 0-1.1 0-1.3-.1v1.8h.7v-1.2h6.9v1.1h.7V284.4v-.7c-.3 0-.8.1-1.4.1v-2.4-.7c-.3 0-.7.1-1.3.1h-1.7l.3-.6h2.5c.6 0 1 0 1.3.1v-.7c-.3 0-.8.1-1.3.1h-5c-.5 0-1.1 0-1.3-.1v.7c.3-.1.7-.1 1.3-.1h1.9zm2.1 7.2c-.6.5-.9.7-1.4 1-.6-.4-1-.6-1.4-1h2.8zm.6-.6c-.2 0-.4.1-.9.1h-2.2c.2-.2.2-.3.4-.5h.4c1.9 0 2 0 2.3-1.1-.3-.1-.3-.1-.6-.3-.1.4-.1.6-.2.7-.1.2-.4.2-1.4.2-1 0-1.1 0-1.1-.3v-.3c0-.3 0-.4.1-.6h-.7v1c0 .4.1.5.5.6-.6.8-1.7 1.6-2.9 1.9.2.2.3.3.4.5.7-.3 1.3-.6 1.9-1.1.4.4.8.7 1.3 1-1.2.5-2.5.7-3.8.8.2.2.3.5.3.6 1.5-.2 3-.5 4.1-1.1 1 .5 2.2.8 3.9 1.1.1-.3.2-.5.3-.7-1.4-.1-2.6-.3-3.6-.7.6-.4 1-.6 1.5-1.2l.1-.1.1-.1-.2-.4zM594.4 260.8c-.1 2.5-.5 4.2-1.3 5.6-.5.8-.9 1.1-1.4 1.1-.6 0-1.3-.8-1.3-2.4 0-1.9 1.3-4 4-4.3m1.4 8.5c2.6-.8 4.1-2.4 4.1-4.9 0-2.7-2.3-4.4-4.9-4.4-3.4 0-5.5 2.5-5.5 5 0 2.1 1 3.3 2.1 3.3.8 0 1.5-.3 2.2-1.5.9-1.6 1.4-3.5 1.4-6.1 2 .1 3.8 1.3 3.8 3.6 0 2-1.2 3.4-3.8 4.1l.6.9zm-16.8-9.7c-.4 2.1-.6 4.1-.6 5.5 0 1.5 0 2.5.2 3.7h.2c.2 0 .4 0 .6-.2-.1-1.1-.2-2.2-.2-3.6 0-1.5.3-3.3.6-5.4h-.8zm6.1 4.2c0 3.1-.7 4.3-2.6 5.2l.6.6c2-1.1 2.9-2.5 2.9-5.8v-1c.7 0 1.4-.1 2-.2v-.3c0-.2 0-.4-.1-.5-.7.1-1.3.2-2 .2 0-.8 0-1.6-.1-2.5h-.9c.1.9.1 1.7.1 2.6H581.6v.9h.9c.8 0 1.7 0 2.5-.1v.9zm-15.6-.1h2.9v2.3h-2.9v-2.3zm3.7.1c0-.4 0-.7.1-.9h-4.5c0 .2.1.6.1.9v2.7c0 .3 0 .7-.1 1h.8v-.9h3.7c-.1-.3-.1-.4-.1-1v-1.8zm-6-3.1h-1V268.5c0 .6 0 .9-.1 1.2h.9c-.1-.3-.1-.7-.1-1.2v-7h8.1v7c0 .3-.1.4-.5.4-.5 0-1.1-.1-1.7-.2.1.3.2.5.2.8.7 0 1 .1 1.5.1 1 0 1.3-.2 1.3-1v-6.8-1.1h-5.5c.1-.3.3-.7.5-1.2s.2-.6.3-.7l-.9-.2c-.1.4-.5 1.5-.7 2h-2.3zm-9.6 2.1c-.2-.6-.3-.8-.6-1.4h3.4c-.2.5-.4 1-.6 1.4h-2.2zm.7.6v.9h-2.4c-.5 0-1 0-1.3-.1v.7c.3 0 .7-.1 1.3-.1h2.4v.9h-3.5c-.7 0-1.1 0-1.4-.1v.8c.4-.1.8-.1 1.4-.1h3c-1.1 1-2.6 1.7-4.5 2.2.2.2.3.4.5.7 2.1-.7 3.5-1.4 4.6-2.6v1.8c0 .5 0 .9-.1 1.3h.9c0-.3-.1-.7-.1-1.3v-.8-1c1.2 1.2 2.6 2 4.9 2.7.1-.3.3-.5.5-.8-1.9-.3-3.8-1.2-4.8-2.1h3.2c.6 0 1 0 1.4.1v-.8c-.3 0-.7.1-1.4.1H559v-.8h2.6c.6 0 1 0 1.3.1v-.7c-.3 0-.8.1-1.3.1H559v-.9h3.3c.6 0 1 0 1.3.1v-.8c-.3 0-.7.1-1.3.1h-1.7c.2-.4.4-.8.6-1.4h1.4c.6 0 1.1 0 1.4.1v-.8c-.3 0-.7.1-1.4.1h-.6c.4-.5.6-.8.9-1.4l-.7-.3c-.2.5-.5 1-1 1.7H560v-.9c0-.4 0-.8.1-1h-.8c0 .2.1.6.1 1v1H558v-1-1h-.8c0 .3.1.6.1 1v.9h-1c-.3-.6-.6-1-1.1-1.6l-.7.3c.4.4.8.9 1 1.3h-.8c-.6 0-1 0-1.3-.1v.8c.3 0 .8-.1 1.4-.1h1.5c.3.4.5.9.6 1.4h-1.8c-.6 0-1 0-1.3-.1v.8c.3 0 .7-.1 1.3-.1h3.2zm-12.7-4.5c-.9 1.7-3 3.5-5.2 4.5.3.3.4.4.5.7 2.1-1.1 3.9-2.7 5.1-4.4 1 1.6 3 3.2 5.2 4.3.1-.3.2-.5.5-.8-2.2-.9-4.5-2.7-5.3-4.3h-.8zm1.1 9.7v-3.1h2.2c.5 0 1 0 1.2.1v-.9c-.2.1-.6.1-1.2.1h-2.2v-1.4c0-.6 0-1 .1-1.3h-1c.1.3.1.8.1 1.3v5.3h-2.3v-3.1c0-.6 0-1 .1-1.3h-.9c0 .3.1.8.1 1.3v3.1h-.9c-.6 0-1 0-1.4-.1v.9c.3-.1.8-.1 1.4-.1h8.1c.6 0 1.1 0 1.4.1v-.9c-.3.1-.8.1-1.4.1h-3.4zM625.7 278.5c.5.7.8 1.3 1.2 2.1l.7-.3c-.3-.7-.7-1.5-1.2-2.1l-.7.3zm-1.4.6c.5.6.8 1.4 1.1 2.2l.7-.3c-.2-.7-.7-1.6-1.2-2.2l-.6.3zm-3.8 2.2c.4-.6.6-1.1.9-1.7l-.9-.3c-.8 2.1-2.2 3.8-3.8 5l.6.5c1-.7 1.9-1.7 2.7-2.7h4.2c-1.1 3.2-3.2 5.6-6.4 7l.6.7c3-1.4 5.6-3.9 6.8-7.9l-.5-.6h-4.2zm-14.2 7.8c4.1-.9 7.2-3.1 8.7-7l-.8-.5c-1.4 3.8-4.4 5.9-8.1 6.7l.2.8zm-.5-8.2c1 .7 1.9 1.5 2.8 2.5l.7-.7c-.9-.9-1.9-1.7-2.9-2.4l-.6.6zm-5 3.1c.9-.6 1.7-1.4 2.5-2.2l-.7-.6c-1.8 2.1-3.9 3.5-6.6 4.5l.4.7c1.3-.5 2.5-1 3.6-1.8v5.2h.9V284zm-15.1-3.2h7.5v-.8h-7.5v.8zm-1.2 2.9h4.6c-.1 2.5-1.2 4.2-3.2 5.1l.6.7c2.3-1.2 3.5-3.1 3.5-5.9h4.3v-.8h-9.8v.9zm-6.4-4v9.1l.5.4c2.1-.8 3.6-1.9 4.9-3.5l-.5-.7c-1.2 1.5-2.6 2.5-3.9 3.1v-8.3h-1zm-3.5.3v2.7c0 2.8-.7 4.6-2.4 5.9l.6.6c2-1.6 2.7-3.5 2.7-6.6V280h-.9zm-10.3 2.7h3.8v.5c0 3.4-1.1 4.9-4 5.6l.4.8c2.9-.8 4.5-2.5 4.5-6.3v-.6h2.5v-.8H569v-2.5h-.9v2.5h-3.8v-2.4h-.9v2.4H561v.8h2.4v3.2h.9v-3.2zm-14 6.4c4.1-.9 7.2-3.1 8.7-7l-.8-.5c-1.4 3.8-4.4 5.9-8.1 6.7l.2.8zm-.5-8.2c1 .7 1.9 1.5 2.8 2.5l.7-.7c-.9-.9-1.9-1.7-2.9-2.4l-.6.6zm-10.7 6.5v.8h7.2v.9h.9v-8.5h-8v.8h7.1v5.9h-7.2zm-3.2-8.4c.1.3.1.9.1 1.5v8c0 .3-.1.4-.6.4-.4 0-1 0-1.6-.1.1.2.2.5.2.8.5 0 .9.1 1.3.1 1.2 0 1.4-.2 1.4-1.1v-8c0-.6 0-1.2.1-1.5h-.9zm-2.7.5c0 .3.1.8.1 1.4v4.7c0 .8 0 1.1-.1 1.4h.9c0-.3-.1-.6-.1-1.4v-4.7c0-.7 0-1.1.1-1.4h-.9zm-5.7.6h3.5v2.2h-3.5v-2.2zm.7 2.9c0 1.1-.1 2.1-.3 3-.2 1.2-.9 2.4-1.8 3.2.3.2.5.4.6.6 1.3-1.2 1.9-2.6 2.2-4.6h2.2c0 1.4-.1 2.6-.2 3.3-.1.3-.2.4-.6.4-.4 0-.8-.1-1.4-.2.1.2.2.5.2.8.5.1.9.1 1.2.1.7 0 1-.1 1.2-.5.2-.5.3-1.8.4-3.9v-.7c-.3.1-.6.1-1.2.1h-1.8c0-.7 0-.8.1-1.5h2.9v-2.5-1.1c-.2.1-.7.1-1.4.1h-2.3c-.7 0-1.2 0-1.4-.1v3.8c.2-.3.6-.3 1.4-.3zm-10.5-2.8h5.8v8.3h-5.8v-8.3zm-.7 8.2c0 .7 0 1.1-.1 1.4h.8v-.6h5.8v.6h.8c-.1-.3-.1-.7-.1-1.5v-7.5c0-.7 0-1 .1-1.3h-7.4c0 .3.1.7.1 1.3v7.6zm2.4-3.5h2.3v1.9h-2.3v-1.9zm1.5-.6v-1.5h2.2v-.8c-.3.1-.6.1-1 .1h-1.2v-.4c0-.5 0-.8.1-1.1h-.8c0 .2.1.6.1 1.1v.4h-1.1c-.4 0-.7 0-.9-.1v.8c.3-.1.6-.1.9-.1h1.1v1.5h-.4c-.5 0-.8 0-1.1-.1v3.3h3.7c0-.2-.1-.4-.1-1v-1.3c0-.6 0-.7.1-1-.4 0-.7.1-1.1.1h-.5zm-5.2-2.6c.4-.8.6-1.3.8-2.1.1-.4.1-.5.2-.7l-.8-.3c-.2 1.7-1.4 4.1-2.6 5.3.1.1.4.4.5.7.4-.5.8-1 1.1-1.7v5.6c0 .6 0 1.1-.1 1.5h.9c0-.4-.1-.8-.1-1.4v-6.9zM578.9 309.2h1.5v-1.5h-1.5v1.5zm-1.6-.8c-.6.1-1.1.1-1.3.1-2.1 0-2.7-1.1-2.7-2.7s.7-2.8 2.5-2.8c.6 0 1.1.1 1.5.2v-.8c-.5-.1-.9-.2-1.4-.2-2.3 0-3.6 1.3-3.6 3.8 0 2.1 1.2 3.3 3.6 3.3.5 0 .9 0 1.5-.2v-.7zm-6.2.1c-.2 0-.5.1-.8.1-.9 0-1.1-.3-1.1-.9v-4.5h1.8v-.8h-1.8v-2.3l-1 .4v1.9H567v.8h1.2v4.7c0 1.1.4 1.6 1.8 1.6.3 0 .7 0 1.1-.1v-.9zm-9.9-3.3c.2-1.5 1-2.1 1.9-2.1 1.1 0 1.8.5 1.8 2.1h-3.7zm4.1 3.2c-.5.2-1 .2-1.5.2-1.6 0-2.6-.7-2.6-2.5h4.7v-.9c0-1.6-.8-2.8-2.7-2.8-1.8 0-3 1.4-3 3.7 0 2.2 1.2 3.4 3.3 3.4.7 0 1.3-.1 1.9-.2v-.9z"/></g><path fill="#67625D" d="M650 43V0h-42v1h41v42z"/></svg>