<svg xmlns="http://www.w3.org/2000/svg" xmlns:xlink="http://www.w3.org/1999/xlink" width="294" height="319" viewBox="0 0 294 319"><defs><style>.cls-1,.cls-10,.cls-2,.cls-7{fill:none;}.cls-2{stroke:#fff;stroke-width:0.72px;}.cls-3{fill:#ebebe9;}.cls-4{fill:#514a44;}.cls-5{opacity:0.15;fill:url(#_10_lpi_10_2);}.cls-6{fill:#fff;}.cls-10,.cls-7{stroke:#241916;stroke-miterlimit:10;}.cls-8{fill:#241916;}.cls-9{fill:#b2ae00;}.cls-10{stroke-dasharray:1 2;}.cls-11{opacity:0.55;}.cls-12{clip-path:url(#clip-path);}</style><pattern id="_10_lpi_10_2" data-name="10 lpi 10 % 2" width="72" height="72" patternTransform="translate(132.006 66.324) rotate(-45)" patternUnits="userSpaceOnUse" viewBox="0 0 72 72"><rect class="cls-1" width="72" height="72"/><line class="cls-2" x1="71.75" y1="68.399" x2="144.25" y2="68.399"/><line class="cls-2" x1="71.75" y1="54" x2="144.25" y2="54"/><line class="cls-2" x1="71.75" y1="39.601" x2="144.25" y2="39.601"/><line class="cls-2" x1="71.75" y1="25.2" x2="144.25" y2="25.2"/><line class="cls-2" x1="71.75" y1="10.8" x2="144.25" y2="10.8"/><line class="cls-2" x1="71.75" y1="61.2" x2="144.25" y2="61.2"/><line class="cls-2" x1="71.75" y1="46.8" x2="144.25" y2="46.8"/><line class="cls-2" x1="71.75" y1="32.4" x2="144.25" y2="32.4"/><line class="cls-2" x1="71.75" y1="18" x2="144.25" y2="18"/><line class="cls-2" x1="71.75" y1="3.601" x2="144.25" y2="3.601"/><line class="cls-2" x1="-0.25" y1="68.399" x2="72.25" y2="68.399"/><line class="cls-2" x1="-0.25" y1="54" x2="72.25" y2="54"/><line class="cls-2" x1="-0.25" y1="39.601" x2="72.25" y2="39.601"/><line class="cls-2" x1="-0.25" y1="25.2" x2="72.25" y2="25.2"/><line class="cls-2" x1="-0.25" y1="10.8" x2="72.25" y2="10.8"/><line class="cls-2" x1="-0.25" y1="61.2" x2="72.25" y2="61.2"/><line class="cls-2" x1="-0.25" y1="46.8" x2="72.25" y2="46.8"/><line class="cls-2" x1="-0.25" y1="32.4" x2="72.25" y2="32.4"/><line class="cls-2" x1="-0.25" y1="18" x2="72.25" y2="18"/><line class="cls-2" x1="-0.25" y1="3.601" x2="72.25" y2="3.601"/><line class="cls-2" x1="-72.25" y1="68.399" x2="0.25" y2="68.399"/><line class="cls-2" x1="-72.25" y1="54" x2="0.25" y2="54"/><line class="cls-2" x1="-72.25" y1="39.601" x2="0.25" y2="39.601"/><line class="cls-2" x1="-72.25" y1="25.2" x2="0.25" y2="25.2"/><line class="cls-2" x1="-72.25" y1="10.8" x2="0.25" y2="10.8"/><line class="cls-2" x1="-72.25" y1="61.2" x2="0.25" y2="61.2"/><line class="cls-2" x1="-72.25" y1="46.8" x2="0.25" y2="46.8"/><line class="cls-2" x1="-72.25" y1="32.4" x2="0.25" y2="32.4"/><line class="cls-2" x1="-72.25" y1="18" x2="0.25" y2="18"/><line class="cls-2" x1="-72.25" y1="3.601" x2="0.25" y2="3.601"/></pattern><clipPath id="clip-path"><rect id="SVGID" class="cls-1" x="77.858" y="60.25" width="130" height="65"/></clipPath></defs><g id="レイヤー_2" data-name="レイヤー 2"><g id="レイヤー_1-2" data-name="レイヤー 1"><rect class="cls-3" width="294" height="319"/><rect class="cls-4" width="294" height="146"/><rect class="cls-5" width="294" height="146"/><path class="cls-6" d="M76.963,28.594c.46,0,1.381,0,1.8-.04a2.18,2.18,0,0,1,.36-.04,2.381,2.381,0,0,1,1.42,1.32,5.128,5.128,0,0,1-.26.82,13.888,13.888,0,0,1-1.16,2.7,16.713,16.713,0,0,1-4.142,4.722c-.559.46-2.719,2-3.339,2-.461,0-1.381-1.14-1.381-1.48,0-.241.5-.42.7-.52A14.4,14.4,0,0,0,77.1,32.4a5.187,5.187,0,0,0,.54-1.3c0-.48-.54-.44-.861-.44H69.342c-.841,0-1.681.04-2.541.04-.56,0-.56-.2-.56-.98,0-1.021.02-1.16.58-1.16.84,0,1.7.04,2.561.04Zm-1.34-4.322c.82,0,1.84-.059,2.36-.059.5,0,.54.22.54,1.22,0,.68,0,.94-.54.94-.8,0-1.58-.04-2.36-.04h-4.9c-.781,0-1.561.04-2.34.04-.561,0-.561-.24-.561-.98,0-.94.04-1.18.54-1.18.561,0,1.58.059,2.361.059Z"/><path class="cls-6" d="M96.344,30.234c.92,0,2.219-.06,2.48-.06.54,0,.56.16.56,1.26,0,.64-.02,1.021-.54,1.021-.84,0-1.681-.04-2.5-.04h-9.2c-.821,0-1.661.04-2.5.04-.52,0-.54-.381-.54-1,0-1.12.04-1.28.56-1.28.26,0,1.64.06,2.481.06Z"/><path class="cls-6" d="M114.764,34.535c.8,0,1.6-.04,2.4-.04.66,0,.64.18.64,1.22,0,.66,0,1.04-.56,1.04-.82,0-1.661-.04-2.48-.04h-9.2c-.821,0-1.661.04-2.481.04-.56,0-.56-.38-.56-1.06,0-1.02-.02-1.2.64-1.2.8,0,1.6.04,2.4.04Zm-2-8.442c.86,0,1.72-.04,2.581-.04.519,0,.559.2.559,1.12,0,.781.021,1.14-.6,1.14-.841,0-1.681-.04-2.521-.04h-5.241c-.841,0-1.681.04-2.521.04-.62,0-.6-.359-.6-1.16,0-.92.06-1.1.56-1.1.861,0,1.72.04,2.581.04Z"/><path class="cls-6" d="M136.9,29.474c0,.34-.8,1.12-1.06,1.38A34.75,34.75,0,0,1,124.981,38.4c-.66.32-.679.34-.839.68a.2.2,0,0,1-.2.12c-.22,0-.64-.8-.78-1.04a5.628,5.628,0,0,1-.6-1.2c0-.221.36-.261.62-.341,4.421-1.3,9.423-5.081,12.262-8.7a.491.491,0,0,1,.341-.221C136.184,27.693,136.9,29.174,136.9,29.474Zm-10.322-3.3c.26.18,1.22.84,1.22,1.14,0,.46-.94,1.541-1.321,1.541a2.122,2.122,0,0,1-.8-.541,25.062,25.062,0,0,0-2.661-1.86c-.16-.1-.32-.2-.32-.38,0-.3.8-1.58,1.26-1.58A15.888,15.888,0,0,1,126.582,26.173Z"/><path class="cls-6" d="M150.8,26.593a3.522,3.522,0,0,0,.8-.06.843.843,0,0,1,.219-.04c.441,0,1.46,1.22,1.46,1.541a1.943,1.943,0,0,1-.24.48c-.119.219-.319.52-.52.92-1.98,3.82-3.9,6.721-7.6,9.1a13.193,13.193,0,0,1-2.721,1.42c-.46,0-1.7-.98-1.7-1.34,0-.2.26-.32.4-.38a17.653,17.653,0,0,0,7.743-6.4,12.468,12.468,0,0,0,1.54-2.92c0-.26-.34-.28-.621-.28h-3.8c-.4.04-.48.04-.84.54-.36.54-2.681,3.3-3.2,3.3-.26,0-1.72-.761-1.72-1.2a.368.368,0,0,1,.18-.28,18.416,18.416,0,0,0,5.34-7.141c.081-.2.161-.48.321-.48a10.446,10.446,0,0,1,1.42.62,2.363,2.363,0,0,0,.26.12c.241.1.6.22.6.4,0,.12-.2.2-.3.26-.24.14-.32.3-.52.66-.079.14-.159.28-.28.48a.8.8,0,0,0-.14.36c0,.2.16.3.341.32Zm4.041-.4c0,.3-.781.84-1.021.84-.12,0-.179-.12-.26-.22-.4-.6-.839-1.2-1.3-1.76a.473.473,0,0,1-.141-.26c0-.24.82-.74,1.04-.74A8.028,8.028,0,0,1,154.844,26.193Zm2.06-1.24c0,.3-.78.82-1.02.82-.14,0-.2-.1-.26-.2a19.375,19.375,0,0,0-1.32-1.761.427.427,0,0,1-.14-.24c0-.26.819-.76,1.04-.76A7.883,7.883,0,0,1,156.9,24.953Z"/><path class="cls-6" d="M170.283,29.734c.84,0,1.681-.06,2.521-.06.58,0,.62.1.62,1.06,0,.82-.04,1.1-.561,1.1-.859,0-1.719-.04-2.58-.04h-2.621c-.559,0-.559.5-.64.92a10.112,10.112,0,0,1-1.32,3.621,8.819,8.819,0,0,1-4.161,3.261,3.488,3.488,0,0,1-.94.32c-.44,0-1.52-1.32-1.52-1.64,0-.24.3-.28.54-.36a9.634,9.634,0,0,0,2.521-1.041,5.983,5.983,0,0,0,2.52-3.641,9.5,9.5,0,0,0,.16-.96.458.458,0,0,0-.46-.48H160.3c-.84,0-1.74.06-2.521.06-.54,0-.519-.38-.519-1.14,0-.74.019-1.04.5-1.04.7,0,1.66.06,2.54.06ZM167.2,24.493c.881,0,1.841-.06,2.521-.06.6,0,.56.4.56,1.2,0,.68,0,.96-.54.96-.841,0-1.7-.04-2.541-.04h-4.261c-.839,0-1.68.04-2.54.04-.56,0-.52-.32-.52-1.04s-.04-1.12.56-1.12c.64,0,1.6.06,2.5.06Zm6.542,2.02c0,.3-.74.881-1,.881-.1,0-.239-.181-.42-.4-.38-.52-.8-1-1.219-1.48a.391.391,0,0,1-.181-.26c0-.22.78-.78,1-.78A7.449,7.449,0,0,1,173.744,26.513Zm.84-2.861c.16.181.8.861.8,1.061,0,.28-.72.88-.98.88-.14,0-.28-.22-.5-.5-.32-.42-.82-.96-1.18-1.341a.411.411,0,0,1-.161-.259c0-.241.761-.8.981-.8C173.724,22.692,174.424,23.473,174.584,23.652Z"/><path class="cls-6" d="M178.661,28.333c.52,0,.66-.3.66-.52v-1.36c0-1.12-.06-2.181-.06-2.2,0-.159.06-.2.2-.2.34,0,1.5.1,1.881.14.139.02.519.059.519.24,0,.08-.08.16-.12.22-.26.3-.239.46-.239,1.76v1.38a.53.53,0,0,0,.5.54h3.54c.28,0,.5-.2.5-.6,0-.72,0-2.8-.079-3.4a.933.933,0,0,1-.021-.24c0-.18.14-.24.42-.24.261,0,.681.06,1.241.1.52.04.92.06.92.26,0,.12-.06.18-.2.34a6.393,6.393,0,0,0-.12,1.68v1.46c0,.42.2.64.6.64h.54c.78,0,1.72-.06,2.341-.06.379,0,.5.161.5.941,0,1-.06,1.18-.54,1.18-.781,0-1.54-.04-2.3-.04h-.54c-.64,0-.64.42-.64.68-.08,3.481-.38,5.882-3.48,7.942a8.579,8.579,0,0,1-2.041,1.04,3.444,3.444,0,0,1-1.441-1.44c0-.18.16-.261.32-.32,3.8-1.621,4.5-3.241,4.5-7.262,0-.34-.139-.64-.52-.64H182a.508.508,0,0,0-.5.5v1.92c0,.54.039,1.1.039,1.661,0,.86-.1.8-1.3.8-.7,0-.94,0-.94-.52,0-.64.02-1.28.02-1.921v-1.9a.538.538,0,0,0-.54-.54h-.6c-.741,0-1.5.06-2.241.06-.48,0-.54-.38-.54-.92,0-.96.02-1.221.52-1.221.58,0,1.461.06,2.261.06Zm13.362-2.06c0,.28-.74.88-1,.88-.12,0-.28-.24-.54-.58-.36-.44-.74-.88-1.14-1.3a.371.371,0,0,1-.14-.24c0-.22.78-.781.981-.781A7.448,7.448,0,0,1,192.023,26.273Zm1.7-1.76c0,.28-.7.9-.98.9-.1,0-.2-.12-.261-.2a21.359,21.359,0,0,0-1.42-1.6.387.387,0,0,1-.179-.259c0-.241.76-.821.96-.821A7.716,7.716,0,0,1,193.724,24.513Z"/><path class="cls-6" d="M203.9,36.936c0,.879.04,1.76.04,2.62,0,.54-.259.6-1,.6-1.1,0-1.3-.06-1.3-.58,0-.86.04-1.721.04-2.58V31.554c0-.12.06-.56-.321-.56-.2,0-.62.34-.78.46-.6.441-3.78,2.561-4.3,2.561a3.369,3.369,0,0,1-1.559-1.6c0-.2.179-.281.319-.341a28.766,28.766,0,0,0,7.862-5.3,16.957,16.957,0,0,0,2.721-3.38c.06-.1.18-.3.319-.3a7.372,7.372,0,0,1,1.361.821c.22.14.78.48.78.72,0,.12-.1.16-.2.2a1.081,1.081,0,0,0-.78.48,38.785,38.785,0,0,1-2.741,3,1.067,1.067,0,0,0-.46.9Z"/><path class="cls-6" d="M229.005,29.474c0,.34-.8,1.12-1.061,1.38A34.745,34.745,0,0,1,217.082,38.4c-.66.32-.68.34-.84.68a.2.2,0,0,1-.2.12c-.221,0-.641-.8-.78-1.04a5.634,5.634,0,0,1-.6-1.2c0-.221.36-.261.62-.341,4.421-1.3,9.423-5.081,12.263-8.7a.489.489,0,0,1,.341-.221C228.284,27.693,229.005,29.174,229.005,29.474Zm-10.322-3.3c.259.18,1.219.84,1.219,1.14,0,.46-.939,1.541-1.32,1.541a2.131,2.131,0,0,1-.8-.541,24.945,24.945,0,0,0-2.66-1.86c-.16-.1-.32-.2-.32-.38,0-.3.8-1.58,1.26-1.58A15.888,15.888,0,0,1,218.683,26.173Z"/><line class="cls-7" x1="274" y1="239.5" x2="20" y2="239.5"/><path class="cls-8" d="M21.977,254.646c-.482,0-.885.025-1.132.051v-.78a6.431,6.431,0,0,0,1.144.078h1.443v-1.5H22.418a6.817,6.817,0,0,0-1.053.052v-.767a5.2,5.2,0,0,0,1.066.065h1v-.481a4.895,4.895,0,0,0-.078-.949h.91a3.678,3.678,0,0,0-.077.962v.468h.688a4.41,4.41,0,0,0,.846-.052v.741a7.123,7.123,0,0,0-.807-.039h-.727V254h.428a9.6,9.6,0,0,0,2.145-2.99l.78.377A16.208,16.208,0,0,1,25.551,254h.508a4.634,4.634,0,0,0,.871-.052v.754a5.3,5.3,0,0,0-.871-.051H24.914a17.065,17.065,0,0,1-1.52,1.3h1.429a4.654,4.654,0,0,0,.936-.051l.429.454-.051.052c-.078.079-.078.079-.247.26a9.608,9.608,0,0,1-1.392,1.261v.469c.937-.118,1.3-.17,2.354-.378v.728c-1.08.2-1.5.26-2.354.377v1.964c0,.714-.234.871-1.235.871-.312,0-.689-.014-1.092-.053a2.833,2.833,0,0,0-.143-.805,9.508,9.508,0,0,0,1.378.116c.26,0,.325-.051.325-.272v-1.73c-.7.065-.91.091-2.2.195a4.643,4.643,0,0,0-.637.078l-.13-.832c.143.014.286.014.416.014.455,0,1.626-.079,2.548-.183V258.4a4.113,4.113,0,0,0-.052-.871h.312a5.428,5.428,0,0,0,1.053-.962H22.509c-.52.338-.793.494-1.417.832a2.268,2.268,0,0,0-.52-.585,15.7,15.7,0,0,0,3.354-2.17Zm10.361-1.119a4.97,4.97,0,0,0-.9-.078,12.918,12.918,0,0,1-.455,2.653,9.989,9.989,0,0,1-1.091,2.547,8.534,8.534,0,0,0,2.729,2.769,2.321,2.321,0,0,0-.624.742,9.781,9.781,0,0,1-2.573-2.808,11.042,11.042,0,0,1-3.173,2.794,2.364,2.364,0,0,0-.61-.714A8.682,8.682,0,0,0,29,258.584a13.407,13.407,0,0,1-1.157-3.367,10.25,10.25,0,0,1-.948,1.495,2.239,2.239,0,0,0-.585-.559,9.88,9.88,0,0,0,1.923-4.186,8.9,8.9,0,0,0,.3-1.638l.884.195c-.052.169-.052.169-.156.559-.116.468-.324,1.274-.442,1.664H31.1a6.153,6.153,0,0,0,1.235-.078Zm-3.758-.078c-.117.338-.142.4-.26.7a12.351,12.351,0,0,0,1.145,3.68,10.375,10.375,0,0,0,1.2-4.382Z"/><path class="cls-8" d="M39.771,251.265a5.179,5.179,0,0,0-.079-.949h.975a5.093,5.093,0,0,0-.077.949v.312H44.8a9.032,9.032,0,0,0,1.339-.078v.858a10.368,10.368,0,0,0-1.3-.065H39.367a14.125,14.125,0,0,1-1.118,1.625c1.755-.039,3.017-.1,4.876-.247a11.629,11.629,0,0,0-1.4-.819l.649-.429a22.318,22.318,0,0,1,3.381,2.275l-.6.6a13.369,13.369,0,0,0-1.221-1.027q-3.648.37-8.164.442a4.132,4.132,0,0,0-.585.039l-.157-.858a14.249,14.249,0,0,0,1.456.052c.26,0,.4,0,.845-.013a9.589,9.589,0,0,0,1.131-1.638H35.936a13.034,13.034,0,0,0-1.314.065V251.5a9.013,9.013,0,0,0,1.339.078h3.81ZM37.209,259.7v1.04a10.563,10.563,0,0,0,.065,1.429h-.949a12.276,12.276,0,0,0,.078-1.482v-4.056a8.574,8.574,0,0,0-.065-1.248,13.8,13.8,0,0,0,1.509.052h5.069a11.661,11.661,0,0,0,1.4-.052,11.95,11.95,0,0,0-.051,1.365v4.226c0,.779-.312,1.026-1.3,1.026-.091,0-.612-.012-1.547-.051a2.379,2.379,0,0,0-.2-.781,13.79,13.79,0,0,0,1.664.118c.494,0,.572-.053.572-.377V259.7Zm6.254-3.563H37.209v1.067h6.254ZM37.209,257.9v1.118h6.254V257.9Z"/><path class="cls-8" d="M48.541,252.643a5.568,5.568,0,0,0,1.04.065h2.483a5.294,5.294,0,0,0,1.04-.065v.871a5.828,5.828,0,0,0-.949-.052H49.581a8.162,8.162,0,0,0-1.04.052Zm.442-1.794a5.3,5.3,0,0,0,.989.065h1.755a5.377,5.377,0,0,0,.988-.065v.819a7.436,7.436,0,0,0-.988-.052H49.972a7.2,7.2,0,0,0-.989.052Zm0,11.376a8.713,8.713,0,0,0,.079-1.262v-1.755A6.632,6.632,0,0,0,49,258.116a8.839,8.839,0,0,0,1.04.052h1.7a5.379,5.379,0,0,0,.949-.039c-.026.3-.039.534-.039,1.027v1.833a6.684,6.684,0,0,0,.066,1.067h-.807v-.534H49.815v.7Zm.013-7.71a5.67,5.67,0,0,0,.937.052h1.833a5.565,5.565,0,0,0,.922-.052v.793a6.566,6.566,0,0,0-.922-.052H49.933a6.443,6.443,0,0,0-.937.052Zm0,1.8a5.921,5.921,0,0,0,.937.051h1.833a5.607,5.607,0,0,0,.922-.051v.793a6.4,6.4,0,0,0-.922-.053H49.933A6.039,6.039,0,0,0,49,257.1Zm.819,4.537h2.093v-2H49.815Zm9.53-4.382a4.345,4.345,0,0,0-.247.481,10.125,10.125,0,0,1-1.911,2.743,9.686,9.686,0,0,0,3.263,1.625,4.357,4.357,0,0,0-.469.82,10.946,10.946,0,0,1-3.367-1.885,10.957,10.957,0,0,1-3.3,1.911,2.241,2.241,0,0,0-.506-.716,9.954,9.954,0,0,0,3.237-1.729,7.918,7.918,0,0,1-1.925-2.964,6.261,6.261,0,0,0-.779.065v-.845a4.721,4.721,0,0,0,.923.065h3.627a5.111,5.111,0,0,0,.974-.052Zm-4.031-4.823a5.609,5.609,0,0,1-.624,2.873,3.545,3.545,0,0,1-1.065,1.209,2.771,2.771,0,0,0-.663-.546,2.928,2.928,0,0,0,1.273-1.547,5.222,5.222,0,0,0,.3-1.976,4.2,4.2,0,0,0-.064-.78,8.965,8.965,0,0,0,1.013.052h1.586a8.6,8.6,0,0,0,1.106-.052,10.847,10.847,0,0,0-.052,1.222v2.028c0,.221.117.273.546.273.533,0,.688-.039.754-.182a4.058,4.058,0,0,0,.208-1.456,2.256,2.256,0,0,0,.715.351c-.078,1.053-.208,1.535-.455,1.755-.2.169-.52.234-1.261.234-1.053,0-1.287-.13-1.287-.715v-2.743Zm-.428,5.109a6.636,6.636,0,0,0,1.728,2.444,7.8,7.8,0,0,0,1.7-2.444Z"/><path class="cls-8" d="M62.4,252.734a7.138,7.138,0,0,0,1.131.078h3.134a6.368,6.368,0,0,0,1.131-.078v.858a6.976,6.976,0,0,0-1.131-.065H63.515a7.527,7.527,0,0,0-1.119.065Zm.612-1.768a5.966,5.966,0,0,0,1.053.065H66.18a5.745,5.745,0,0,0,1.027-.065v.819a7.937,7.937,0,0,0-1.027-.052H64.061a7.847,7.847,0,0,0-1.053.052Zm.013,3.6a5.86,5.86,0,0,0,.936.052h2.314a5.865,5.865,0,0,0,.922-.052v.793a6.544,6.544,0,0,0-.922-.052H63.957a6.273,6.273,0,0,0-.936.052Zm0,1.794a5.641,5.641,0,0,0,.936.052h2.314a5.865,5.865,0,0,0,.922-.052v.793a6.1,6.1,0,0,0-.922-.051H63.957a6.19,6.19,0,0,0-.936.051Zm.922,5.85h-.871a8.62,8.62,0,0,0,.078-1.248v-1.729a6.621,6.621,0,0,0-.064-1.066,5.785,5.785,0,0,0,.91.052h2.379a8.343,8.343,0,0,0,.884-.038,7.281,7.281,0,0,0-.052,1.04v1.716a6.653,6.653,0,0,0,.078,1.1h-.871v-.506H63.943Zm-.012-1.364h2.5v-1.925h-2.5Zm6.487-8.88a9.4,9.4,0,0,0-.091-1.443h1.027a9.286,9.286,0,0,0-.091,1.443v2.626H72.5a12.207,12.207,0,0,0,1.56-.078v.936a13.4,13.4,0,0,0-1.56-.078H71.263v4.966a11.761,11.761,0,0,0,.1,1.86h-1.04a13.315,13.315,0,0,0,.091-1.86v-4.966H69.273a12.709,12.709,0,0,0-1.495.078v-.936a11.39,11.39,0,0,0,1.495.078h1.145Z"/><path class="cls-8" d="M79.788,256.31a1.066,1.066,0,1,1-1.066-1.067A1.07,1.07,0,0,1,79.788,256.31Z"/><path class="cls-8" d="M85.648,256.075c.7.676.949.924,1.378,1.4a7.292,7.292,0,0,0,.663-1.963l.793.364a17.036,17.036,0,0,1-.9,2.224c.455.559.715.9,1.392,1.807l-.6.636c-.546-.818-.754-1.117-1.209-1.7A10.608,10.608,0,0,1,84,262.134a2.252,2.252,0,0,0-.6-.663,9.016,9.016,0,0,0,3.251-3.263,19.565,19.565,0,0,0-1.56-1.639Zm.468-2.353a9.35,9.35,0,0,1-1.963,3.016,3.516,3.516,0,0,0-.65-.559,7.471,7.471,0,0,0,1.2-1.378,6.417,6.417,0,0,0,.676-1.4Zm.3-2.34a6.277,6.277,0,0,0-.078-1.066h.949a6.385,6.385,0,0,0-.078,1.066v.819h1.261a7.65,7.65,0,0,0,1.274-.065v.858a8.481,8.481,0,0,0-1.222-.052H84.972a6.679,6.679,0,0,0-1.261.078v-.9a6.352,6.352,0,0,0,1.274.078h1.43Zm1.9,2.015a9.126,9.126,0,0,0,1.794,2.47,2.3,2.3,0,0,0-.611.559,12.647,12.647,0,0,1-1.846-2.691Zm5.486-.1a7.532,7.532,0,0,0,1.157-.052,12.115,12.115,0,0,0-.078,1.586,36.907,36.907,0,0,1-.493,5.877c-.235,1.04-.508,1.274-1.431,1.274a10.736,10.736,0,0,1-1.351-.1,2.55,2.55,0,0,0-.144-.858,7.172,7.172,0,0,0,1.456.181c.521,0,.611-.195.845-1.833a42.427,42.427,0,0,0,.3-5.33H92.227a19.294,19.294,0,0,1-.3,2.484,9.506,9.506,0,0,1-1.768,4.186,8.026,8.026,0,0,1-1.443,1.456,2.165,2.165,0,0,0-.65-.638,7.068,7.068,0,0,0,2.328-2.755,13.153,13.153,0,0,0,1.013-4.733h-.338a6.311,6.311,0,0,0-1.248.065v-.884a7.17,7.17,0,0,0,1.248.078h.377c.013-.546.027-1.04.027-1.534a7.463,7.463,0,0,0-.078-1.326h.974c-.013.078-.013.156-.026.195-.026.325-.026.325-.065,2.262,0,.143-.012.169-.012.4Z"/><path class="cls-8" d="M100.386,255.958a8.87,8.87,0,0,0-1.547.078,9.632,9.632,0,0,0,.065-1.43v-2.249a9.757,9.757,0,0,0-.065-1.417,7.939,7.939,0,0,0,1.482.078h5.773a8.344,8.344,0,0,0,1.52-.078,9.71,9.71,0,0,0-.052,1.43v2.236a9.71,9.71,0,0,0,.052,1.43,8.7,8.7,0,0,0-1.534-.078h-2.587v1.184h4.148a7.792,7.792,0,0,0,1.338-.092v.91a10.156,10.156,0,0,0-1.338-.078H104a9.11,9.11,0,0,0,1.859,1.613,11.654,11.654,0,0,0,3.289,1.456,3.291,3.291,0,0,0-.467.819,13.291,13.291,0,0,1-3.238-1.639,9.788,9.788,0,0,1-1.989-1.872c.026.65.039.781.039,1.028v1.521a6.787,6.787,0,0,0,.091,1.417h-.975a8.117,8.117,0,0,0,.091-1.417V259.3c0-.259.013-.611.027-1a11.852,11.852,0,0,1-4.875,3.55,3.078,3.078,0,0,0-.534-.767,11.9,11.9,0,0,0,2.7-1.313,8.306,8.306,0,0,0,2.106-1.886h-3.38a9.112,9.112,0,0,0-1.287.078v-.91a6.793,6.793,0,0,0,1.287.092H102.7v-1.184Zm-.676-4.225v1.4h2.99v-1.4Zm0,2.093v1.43h2.99v-1.43Zm3.783-.689h3.25v-1.4h-3.25Zm0,2.119h3.25v-1.43h-3.25Z"/><path class="cls-8" d="M111.654,253.839a12.089,12.089,0,0,1,2.08,1.573l-.52.676a9.227,9.227,0,0,0-2.067-1.664Zm2.2,4.212a18.533,18.533,0,0,1-1.522,3.485c-.169.3-.221.4-.3.559l-.741-.651a3.59,3.59,0,0,0,.65-.923,14.935,14.935,0,0,0,1.236-2.977Zm-1.664-7.41a9.458,9.458,0,0,1,1.911,1.69l-.573.6a8.415,8.415,0,0,0-1.9-1.729Zm3.861,9.035a7.216,7.216,0,0,1-1.8,2.484,3.113,3.113,0,0,0-.61-.573,5.142,5.142,0,0,0,1.715-2.262Zm-.416-.754c-.455,0-.807.014-1.079.039a11.454,11.454,0,0,0,.039-1.352v-5.564c0-.455-.014-.858-.039-1.17a10.266,10.266,0,0,0,1.04.039h1.767c.416,0,.676-.013,1.053-.039a11.624,11.624,0,0,0-.052,1.3V257.7c0,.547.013.963.039,1.261-.4-.025-.741-.039-1.157-.039Zm-.286-5.6h2.261v-1.7h-2.261Zm0,2.405h2.261V254h-2.261Zm0,2.5h2.261V256.4h-2.261Zm2.119,1.132a6.438,6.438,0,0,0,1.689,2.119,2.72,2.72,0,0,0-.624.571,10.1,10.1,0,0,1-1.716-2.327Zm2.041-.273a8.673,8.673,0,0,0,.078-1.34V252.6a8.819,8.819,0,0,0-.078-1.326h.948a7.381,7.381,0,0,0-.077,1.339v5.122a8.757,8.757,0,0,0,.064,1.34Zm3.028,1.9c0,.793-.272.987-1.39.987-.248,0-.859-.012-1.158-.038a3.291,3.291,0,0,0-.22-.832,10.329,10.329,0,0,0,1.3.1c.585,0,.663-.038.663-.338v-8.671a12.768,12.768,0,0,0-.078-1.534h.962a10.991,10.991,0,0,0-.078,1.534Z"/><path class="cls-8" d="M130.6,255.009h-2.3a8.829,8.829,0,0,0-1.287.078v-.9a8.348,8.348,0,0,0,1.287.078h5.382a8.366,8.366,0,0,0,1.287-.078v.9a8.493,8.493,0,0,0-1.287-.078h-2.275v2.119h2.509a7.7,7.7,0,0,0,1.248-.078v.885a6.841,6.841,0,0,0-1.248-.079h-2.509v2.887a11.634,11.634,0,0,0,2.118.143c1.054,0,1.95-.039,3.043-.131a2.418,2.418,0,0,0-.286.911c-1.131.025-1.223.025-1.573.025a17.51,17.51,0,0,1-2.848-.1c-2.027-.285-3.3-1.066-3.991-2.443A8.8,8.8,0,0,1,125.9,262.1a2.38,2.38,0,0,0-.675-.612,6.936,6.936,0,0,0,1.755-2.314,8.219,8.219,0,0,0,.792-2.964v-.13l.911.182-.157.677c-.064.311-.259,1.066-.35,1.378a3.97,3.97,0,0,0,1.026,1.429,4.4,4.4,0,0,0,1.4.794Zm-.195-3.679a4.47,4.47,0,0,0-.077-.819h1.014a3.356,3.356,0,0,0-.091.806v.637h3.8c.507,0,.884-.013,1.3-.052a5.75,5.75,0,0,0-.052.884v.819a6.08,6.08,0,0,0,.052.923h-.845v-1.82h-9.074v1.82h-.859a6.213,6.213,0,0,0,.052-.923v-.819a5.879,5.879,0,0,0-.052-.884c.416.039.793.052,1.314.052h3.522Z"/><path class="cls-8" d="M143.822,257.792c-.754,1.715-1.52,2.5-2.457,2.5-1.234,0-2.157-1.352-2.157-3.173a5.278,5.278,0,0,1,5.563-5.317,5.033,5.033,0,0,1,3.576,1.287,4.352,4.352,0,0,1,1.261,3.172,4.735,4.735,0,0,1-2.977,4.486,10.054,10.054,0,0,1-1.977.6,2.06,2.06,0,0,0-.454-.87,7.8,7.8,0,0,0,2.171-.612,3.924,3.924,0,0,0,2.3-3.64,3.426,3.426,0,0,0-2.068-3.263,3.732,3.732,0,0,0-1.507-.325A19.494,19.494,0,0,1,143.822,257.792Zm-1.6-4.538a4.494,4.494,0,0,0-2.12,3.874c0,1.248.546,2.21,1.249,2.21.545,0,1.066-.61,1.625-1.885a17.856,17.856,0,0,0,1.183-4.81A4.1,4.1,0,0,0,142.224,253.254Z"/><path class="cls-8" d="M154.648,253.449a10.425,10.425,0,0,1-1.417,1.859,2.507,2.507,0,0,0-.689-.572,7.272,7.272,0,0,0,1.678-2.2,6.491,6.491,0,0,0,.61-1.833l.924.247c-.092.208-.156.377-.247.624-.183.481-.274.715-.455,1.1h2.379v-1.027a7.923,7.923,0,0,0-.078-1.144h1a7.525,7.525,0,0,0-.079,1.144v1.027h3.108a7.926,7.926,0,0,0,1.248-.078v.923a8.3,8.3,0,0,0-1.248-.078h-3.108v2.314h4.043a8.984,8.984,0,0,0,1.327-.077v.922a9.445,9.445,0,0,0-1.327-.078h-2.729v4.329c0,.338.169.391,1.248.391,1.1,0,1.442-.079,1.612-.377a4.645,4.645,0,0,0,.246-1.937,3.154,3.154,0,0,0,.846.351,5.62,5.62,0,0,1-.391,2.053c-.3.573-.766.7-2.457.7-1.559,0-1.949-.182-1.949-.9V256.53h-1.95a6.373,6.373,0,0,1-.533,2.743,4.979,4.979,0,0,1-2.146,2.275,9.738,9.738,0,0,1-1.6.781,2.55,2.55,0,0,0-.247-.416,4.666,4.666,0,0,1-.287-.4,6.312,6.312,0,0,0,2.731-1.5,4.017,4.017,0,0,0,1.1-2.249,9.915,9.915,0,0,0,.1-1.236h-2.38a9.651,9.651,0,0,0-1.339.078v-.922a9.185,9.185,0,0,0,1.339.077h3.888v-2.314Z"/><path class="cls-8" d="M165.786,260.105a11.6,11.6,0,0,0,2.119-.494,34.657,34.657,0,0,0,.807-4.381,10.931,10.931,0,0,0,.091-1.248l.858.208c-.039.195-.078.416-.286,1.794-.195,1.158-.325,1.847-.689,3.38.416-.142.611-.22,1.2-.442v.781c-1.118.428-2.405.858-3.38,1.13q-.254.079-.469.156Zm1.833-8.606a4.278,4.278,0,0,0-.077-.962h.948a3.6,3.6,0,0,0-.077.962v1.2h.663a4.729,4.729,0,0,0,.858-.052v.819a4.906,4.906,0,0,0-.872-.052h-2.183a6.137,6.137,0,0,0-.91.052v-.819a4.8,4.8,0,0,0,.871.052h.779Zm-.585,2.587a29.109,29.109,0,0,1,.624,4.563l-.766.195a28.71,28.71,0,0,0-.6-4.6Zm4.238,1.4a10.994,10.994,0,0,0-1.312.052v-.832a7.6,7.6,0,0,0,1.312.065h4.954a7.993,7.993,0,0,0,1.339-.078v.845a11.662,11.662,0,0,0-1.339-.052h-2.12c-.259.572-.363.781-.688,1.378h2.5a9.683,9.683,0,0,0,1.326-.065,10.531,10.531,0,0,0-.052,1.287v3.185c0,.624-.234.832-.962.832-.156,0-.442-.012-.715-.025a3.071,3.071,0,0,0-.195-.793,5.777,5.777,0,0,0,.845.078c.194,0,.247-.053.247-.273v-3.55H175.1v2.991a10.7,10.7,0,0,0,.051,1.235h-.871a7.841,7.841,0,0,0,.066-1.249v-2.977h-1.222v2.991a7.315,7.315,0,0,0,.065,1.235H172.3a7.891,7.891,0,0,0,.065-1.249v-2.977h-1.209v3.276a8.728,8.728,0,0,0,.065,1.405h-.91a9.468,9.468,0,0,0,.065-1.417v-2.744c0-.494-.014-.949-.039-1.248.519.039.884.052,1.339.052h.923a10.2,10.2,0,0,0,.663-1.378Zm2.016-4.095a4.765,4.765,0,0,0-.078-.962h.949a4.442,4.442,0,0,0-.078.962v1.573h2.041v-1.092a5.769,5.769,0,0,0-.052-.884h.91a4.2,4.2,0,0,0-.065.91v1a6.089,6.089,0,0,0,.039.767,2.448,2.448,0,0,0-.4-.013c-.1-.013-.377-.013-.572-.013h-4.433a9.233,9.233,0,0,0-.949.026c.012-.273.026-.507.026-.741v-.988a7.257,7.257,0,0,0-.065-.949h.91a5.382,5.382,0,0,0-.052.923v1.053h1.872Z"/><path class="cls-8" d="M180.76,251.9a5.59,5.59,0,0,0-1.028.065V251.1a5.014,5.014,0,0,0,1.093.078H182.8a4.816,4.816,0,0,0,1.066-.078v.858a7.773,7.773,0,0,0-1-.052h-.637v3.055h.52a4.4,4.4,0,0,0,.871-.065v.819a6.274,6.274,0,0,0-.871-.052h-.52v3.3c.637-.273.858-.377,1.521-.714l.052.818a35.827,35.827,0,0,1-3.38,1.47,5.318,5.318,0,0,0-.521.22l-.259-.909a13.341,13.341,0,0,0,1.794-.559v-3.628h-.689a4.346,4.346,0,0,0-.858.065v-.832a4.247,4.247,0,0,0,.871.065h.676V251.9Zm5.083,4.953a15.477,15.477,0,0,0-1.613.052,3.391,3.391,0,0,0,.027-.468c.013-.337.013-.337.026-1.027v-2.769a15.875,15.875,0,0,0-.065-1.651,12.574,12.574,0,0,0,1.677.065h3.419a11.892,11.892,0,0,0,1.665-.065,16.329,16.329,0,0,0-.053,1.638v2.613a15.621,15.621,0,0,0,.053,1.664c-.469-.039-.82-.052-1.561-.052h-1.482v1.5h1.924a7.918,7.918,0,0,0,1.274-.066v.859a8.214,8.214,0,0,0-1.274-.065h-1.924v1.91h2.418a7.916,7.916,0,0,0,1.274-.065v.859a8.494,8.494,0,0,0-1.3-.065h-5.811a8.228,8.228,0,0,0-1.288.065v-.859a7.315,7.315,0,0,0,1.236.065h2.7v-1.91h-1.716a7.47,7.47,0,0,0-1.248.065v-.859a7.268,7.268,0,0,0,1.248.066h1.716v-1.5Zm-.781-5.083v1.846h2.107v-1.846Zm0,2.535v1.833h2.107v-1.833Zm2.874-.689h2.2v-1.846h-2.2Zm0,2.522h2.2v-1.833h-2.2Z"/><path class="cls-8" d="M193.535,252.617a5.186,5.186,0,0,0,1,.065h1.833a4.649,4.649,0,0,0,.988-.065v.819a5.328,5.328,0,0,0-.9-.052h-1.924a7.034,7.034,0,0,0-1,.052Zm1.209,9.582h-.819a8.033,8.033,0,0,0,.078-1.287v-1.7a7.482,7.482,0,0,0-.065-1.169,6.831,6.831,0,0,0,.9.051h1.43a4.679,4.679,0,0,0,.845-.051,7.787,7.787,0,0,0-.039,1.105v1.729a7.386,7.386,0,0,0,.052,1.053h-.754v-.468h-1.625Zm-.793-11.376a4.926,4.926,0,0,0,.949.065h1.339a5.009,5.009,0,0,0,.949-.065v.806a6.6,6.6,0,0,0-.949-.052H194.9a6.48,6.48,0,0,0-.949.052Zm.065,3.615a5.358,5.358,0,0,0,.9.051h1.275a5.377,5.377,0,0,0,.883-.051v.792a5.873,5.873,0,0,0-.883-.052h-1.275a5.631,5.631,0,0,0-.9.052Zm0,1.806a5.134,5.134,0,0,0,.9.052h1.275a5.15,5.15,0,0,0,.883-.052v.806a5.769,5.769,0,0,0-.883-.051H194.9a5.371,5.371,0,0,0-.884.051Zm.714,4.55h1.639V258.74H194.73Zm7-10.348a6.9,6.9,0,0,0,1.754,1.794,9.114,9.114,0,0,0,2.367,1.274,2.589,2.589,0,0,0-.494.793,14.079,14.079,0,0,1-1.951-1.144,8.91,8.91,0,0,1-2.171-2.08,7.543,7.543,0,0,1-2.08,2.249,8.9,8.9,0,0,1-1.456.975,2.048,2.048,0,0,0-.52-.689,8.41,8.41,0,0,0,2.275-1.573,5.152,5.152,0,0,0,1.248-1.6Zm-3.056,8.229v2.172a8.577,8.577,0,0,0,.078,1.364h-.9a8.835,8.835,0,0,0,.077-1.364v-4.018a12.41,12.41,0,0,0-.052-1.391,8.185,8.185,0,0,0,1.326.065h4.511a7.678,7.678,0,0,0,1.352-.065,9.767,9.767,0,0,0-.065,1.313v4.316c0,.481-.1.728-.363.859a2.2,2.2,0,0,1-.793.091c-.313,0-.378,0-.612-.014a2.243,2.243,0,0,0-.169-.779,5.517,5.517,0,0,0,.9.065c.234,0,.3-.053.3-.261v-2.353h-1.509v1.833a13.023,13.023,0,0,0,.053,1.379h-.82a12.006,12.006,0,0,0,.065-1.379v-1.833h-1.313v1.86a9.05,9.05,0,0,0,.065,1.378h-.832a11.043,11.043,0,0,0,.065-1.378v-1.86Zm1.365-2.5H198.67V258h1.365Zm-1.027-2.574a9.079,9.079,0,0,0,1.17.052h2.366a8.972,8.972,0,0,0,1.157-.052v.806a9.367,9.367,0,0,0-1.157-.052h-2.366a9.736,9.736,0,0,0-1.17.052Zm3.042,4.4v-1.821h-1.313V258Zm2.211,0v-1.821h-1.509V258Z"/><path class="cls-8" d="M207.416,252.643c.247.013.377.013.468.013.182,0,.339-.013.741-.039,1.547-.117,5.707-.364,7.385-.429a12.443,12.443,0,0,0,1.547-.143l.078.962a5.447,5.447,0,0,0-1.456.182,6.387,6.387,0,0,0-2.5,1.3,3.975,3.975,0,0,0-1.6,3,2.548,2.548,0,0,0,1.82,2.4,6.662,6.662,0,0,0,1.951.416h.129l-.169,1.054c-.142-.027-.195-.039-.4-.078a6.579,6.579,0,0,1-2.807-1,3.15,3.15,0,0,1-1.444-2.653,4.945,4.945,0,0,1,2.432-3.991,8.445,8.445,0,0,1,1.234-.689,25.169,25.169,0,0,1-2.859.286,38.186,38.186,0,0,0-4.486.429Zm8.606,1.5a9.2,9.2,0,0,1,1.2,1.82l-.663.338a8.05,8.05,0,0,0-1.17-1.846Zm1.261-.611a9.2,9.2,0,0,1,1.2,1.82l-.65.339a8.387,8.387,0,0,0-1.183-1.847Z"/><path class="cls-8" d="M221.013,258.663a13.288,13.288,0,0,1,2.612,2.755l-.728.689a12.973,12.973,0,0,0-2.561-2.834Z"/><path class="cls-8" d="M229.589,252.994a8.991,8.991,0,0,1-1.209,1.911,1.714,1.714,0,0,0-.638-.572,6.693,6.693,0,0,0,1.73-3.25,3.176,3.176,0,0,0,.117-.715l.884.143c-.078.208-.105.312-.221.7a8.212,8.212,0,0,1-.338,1.027h2.353a7.218,7.218,0,0,0,1.274-.078v.9c-.4-.039-.832-.065-1.274-.065h-.832c-.027,1.4-.027,1.56-.091,2.431h1.1a7.646,7.646,0,0,0,1.236-.078v.91a7.987,7.987,0,0,0-1.236-.078h-1.17c-.039.3-.051.455-.1.767a7.841,7.841,0,0,0,2.47,2.965,2.619,2.619,0,0,0-.52.779,10.326,10.326,0,0,1-2.185-2.755,6.828,6.828,0,0,1-2.6,3.744,2.322,2.322,0,0,0-.651-.677,6.032,6.032,0,0,0,2.8-4.823H229.3a8.01,8.01,0,0,0-1.378.078v-.91a7.892,7.892,0,0,0,1.4.078h1.235c.052-.715.066-.987.079-2.431Zm5.343,8.736h-.9a11.573,11.573,0,0,0,.077-1.481v-7.216a11.362,11.362,0,0,0-.077-1.365,7.19,7.19,0,0,0,1.17.065h2.6a7.3,7.3,0,0,0,1.17-.065,9.836,9.836,0,0,0-.065,1.365v7.124a12.847,12.847,0,0,0,.078,1.573h-.91v-.922h-3.146Zm0-1.676h3.146v-7.567h-3.146Z"/><path class="cls-8" d="M245.225,253.449a7.464,7.464,0,0,0-.858-.039H242.6a6.172,6.172,0,0,0-.95.052v-.845a4.776,4.776,0,0,0,.95.065h1.676a4.4,4.4,0,0,0,.95-.065ZM242,259.2a10.036,10.036,0,0,0-.053-1.156,7.531,7.531,0,0,0,.871.038h1.3a6.4,6.4,0,0,0,.858-.038,7.8,7.8,0,0,0-.04,1.105v1.715a9.369,9.369,0,0,0,.053,1.144h-.716v-.52h-1.586v.754h-.753a8.061,8.061,0,0,0,.065-1.26Zm.052-4.757a5.254,5.254,0,0,0,.9.051h1.079a5.567,5.567,0,0,0,.9-.051v.818a5.974,5.974,0,0,0-.9-.052h-1.079a5.421,5.421,0,0,0-.9.052Zm0,1.793a5.031,5.031,0,0,0,.9.052h1.079a5.429,5.429,0,0,0,.9-.052v.819a5.766,5.766,0,0,0-.9-.051h-1.079a5.541,5.541,0,0,0-.9.051Zm.026-5.408a4.166,4.166,0,0,0,.87.065h1.132a4.311,4.311,0,0,0,.884-.065v.845a5.557,5.557,0,0,0-.884-.052h-1.132a5.478,5.478,0,0,0-.87.052Zm.61,9.971h1.586v-2.027h-1.586Zm6.033-8.97a5.568,5.568,0,0,0,1-.052v.728c-.234-.026-.312-.026-.6-.039a14.3,14.3,0,0,1-.442,1.833h1.469c-.039-.871-.065-1.937-.065-2.782a6.23,6.23,0,0,0-.052-.962h.884a6.394,6.394,0,0,0-.078,1.339c0,.975,0,1.378.039,2.405h.975a7.486,7.486,0,0,0,1.391-.078v.846a10.766,10.766,0,0,0-1.4-.079h-.936a19.011,19.011,0,0,0,.429,3.237,9.11,9.11,0,0,0,.936-2.534l.767.324a3.436,3.436,0,0,0-.247.6,12.405,12.405,0,0,1-1.2,2.5c.312.95.832,1.834,1.066,1.834.169,0,.273-.638.338-1.873a2.431,2.431,0,0,0,.676.5,6.055,6.055,0,0,1-.39,1.833.7.7,0,0,1-.572.455c-.494,0-1.144-.793-1.638-1.99a9.752,9.752,0,0,1-2.327,2.237,2.364,2.364,0,0,0-.572-.573,8.357,8.357,0,0,0,2.613-2.443,17.434,17.434,0,0,1-.611-4.1h-3.64a8.71,8.71,0,0,0-1.248.065v-.819a7.235,7.235,0,0,0,1.209.065,12.87,12.87,0,0,0-.338-1.833c-.325.013-.377.013-.6.039v-.741a4.841,4.841,0,0,0,.962.065h.742v-.169a5.822,5.822,0,0,0-.078-1.118h.884a5.885,5.885,0,0,0-.078,1.131v.156Zm.6,7.528c0,.416.013.767.026,1.052-.351-.026-.494-.026-1.079-.026H246.6V261.4h-.767a7.716,7.716,0,0,0,.078-1.209v-3.133a8.559,8.559,0,0,0-.065-1.235,5.656,5.656,0,0,0,.936.052h1.677a5.706,5.706,0,0,0,.91-.052,9.545,9.545,0,0,0-.052,1.248Zm-2.7.377h2v-1.353h-2Zm.013-1.99h1.989v-1.2h-1.989Zm1.378-3.445a11.039,11.039,0,0,0,.416-1.833h-1.547c.156.793.221,1.209.3,1.833Zm3.965-3.094a13.143,13.143,0,0,1,1.171,1.859l-.651.416a7.627,7.627,0,0,0-1.131-1.924Z"/><path class="cls-8" d="M259.158,256.31a1.066,1.066,0,1,1-1.066-1.067A1.07,1.07,0,0,1,259.158,256.31Z"/><path class="cls-8" d="M272.624,261.367a24.142,24.142,0,0,0-4.16-4.017,14.073,14.073,0,0,1-2.484,2.326,16.6,16.6,0,0,1-2.547,1.56,2.922,2.922,0,0,0-.638-.858,10.392,10.392,0,0,0,2.64-1.5,14.084,14.084,0,0,0,4.641-5.863,1.6,1.6,0,0,1,.065-.156.275.275,0,0,0,.039-.091,2.231,2.231,0,0,1-.313.013l-4.342.065a8.722,8.722,0,0,0-1.338.1l-.027-1.053a6.122,6.122,0,0,0,1.028.065h.337l4.642-.052a2.428,2.428,0,0,0,.832-.1l.546.559a2.426,2.426,0,0,0-.364.637,15.685,15.685,0,0,1-2.146,3.64,32.406,32.406,0,0,1,4.33,3.9Z"/><path class="cls-8" d="M24.837,271.545a4.477,4.477,0,0,0-.286-1.105l1.026-.169a6.725,6.725,0,0,0,.144,1.1l.259,1.43,2.939-.455a6.092,6.092,0,0,0,1.143-.26l.183.936c-.351.039-.351.039-1.157.169l-2.951.455.494,2.626,3.223-.52a8.032,8.032,0,0,0,1.288-.3l.182.962a3.946,3.946,0,0,0-.572.065c-.053,0-.183.026-.4.065-.143.026-.208.039-.3.053l-3.264.52L27.319,280a7.226,7.226,0,0,0,.286,1.234l-1.04.2a9.966,9.966,0,0,0-.156-1.248l-.532-2.912-3.484.558a6.933,6.933,0,0,0-1.248.26l-.169-.988a6.856,6.856,0,0,0,1.287-.117l3.458-.559-.468-2.626-2.679.416a10.707,10.707,0,0,0-1.3.286l-.181-.988a9.74,9.74,0,0,0,1.351-.13l2.653-.416Z"/><path class="cls-8" d="M37.043,270.908a6.476,6.476,0,0,0-.078,1.118c-.1,3.523-.208,4.485-.7,5.8a7.956,7.956,0,0,1-2.249,3.212,2.4,2.4,0,0,0-.781-.7,6.426,6.426,0,0,0,2.2-2.99,17.735,17.735,0,0,0,.585-5.577,5.783,5.783,0,0,0-.052-.923Zm3.225-.143a4.968,4.968,0,0,0-.079,1.144l-.078,7.853a6.013,6.013,0,0,0,2.418-1.509,6.429,6.429,0,0,0,1.534-2.6,3.635,3.635,0,0,0,.728.754,7.4,7.4,0,0,1-2.613,3.342,8.568,8.568,0,0,1-1.859.948c-.234.092-.234.092-.416.157a2.056,2.056,0,0,0-.3.143l-.52-.6a2.185,2.185,0,0,0,.091-.883l.078-7.606a5.216,5.216,0,0,0-.052-1.157Z"/><path class="cls-8" d="M51.447,277.292c-.755,1.715-1.521,2.5-2.458,2.5-1.234,0-2.157-1.352-2.157-3.173A5.278,5.278,0,0,1,52.4,271.3a5.033,5.033,0,0,1,3.575,1.287,4.352,4.352,0,0,1,1.261,3.172,4.735,4.735,0,0,1-2.977,4.486,10.063,10.063,0,0,1-1.976.6,2.084,2.084,0,0,0-.455-.87A7.8,7.8,0,0,0,54,279.358a3.924,3.924,0,0,0,2.3-3.64,3.427,3.427,0,0,0-2.067-3.263,3.741,3.741,0,0,0-1.508-.325A19.534,19.534,0,0,1,51.447,277.292Zm-1.6-4.538a4.5,4.5,0,0,0-2.119,3.874c0,1.248.545,2.21,1.248,2.21.545,0,1.066-.61,1.625-1.885a17.856,17.856,0,0,0,1.183-4.81A4.1,4.1,0,0,0,49.848,272.754Z"/><path class="cls-8" d="M65.058,274.509h-2.3a8.829,8.829,0,0,0-1.287.078v-.9a8.357,8.357,0,0,0,1.287.078h5.382a8.366,8.366,0,0,0,1.287-.078v.9a8.484,8.484,0,0,0-1.287-.078H65.863v2.119h2.51a7.7,7.7,0,0,0,1.248-.078v.885a6.841,6.841,0,0,0-1.248-.079h-2.51v2.887a11.667,11.667,0,0,0,2.119.143c1.054,0,1.951-.039,3.043-.131a2.4,2.4,0,0,0-.286.911c-1.132.025-1.222.025-1.573.025a17.51,17.51,0,0,1-2.848-.1c-2.027-.285-3.3-1.066-3.99-2.443a8.828,8.828,0,0,1-1.976,2.951,2.413,2.413,0,0,0-.676-.612,6.936,6.936,0,0,0,1.755-2.314,8.222,8.222,0,0,0,.793-2.964v-.13l.91.182-.156.677c-.065.311-.26,1.066-.351,1.378a3.97,3.97,0,0,0,1.026,1.429,4.394,4.394,0,0,0,1.405.794Zm-.2-3.679a4.47,4.47,0,0,0-.077-.819H65.8a3.356,3.356,0,0,0-.091.806v.637h3.8c.507,0,.884-.013,1.3-.052a5.879,5.879,0,0,0-.052.884v.819a6.213,6.213,0,0,0,.052.923h-.845v-1.82H60.885v1.82h-.859a6.213,6.213,0,0,0,.052-.923v-.819a5.879,5.879,0,0,0-.052-.884c.416.039.793.052,1.314.052h3.522Z"/><path class="cls-8" d="M75.3,271.922a8.78,8.78,0,0,0-1.274.078v-.806a8.3,8.3,0,0,0,1.274.078h1.845a6.633,6.633,0,0,0-.974-1.248l.728-.286a10.723,10.723,0,0,1,1.092,1.534H80.2a7.78,7.78,0,0,0,1.183-1.521l.78.3a8.373,8.373,0,0,1-1.1,1.222h2a8.618,8.618,0,0,0,1.288-.078V272a8.74,8.74,0,0,0-1.288-.078H79.474v.91h3.159a6.483,6.483,0,0,0,1.144-.065v.78a6.483,6.483,0,0,0-1.144-.065H79.474v.923H83.6a8.343,8.343,0,0,0,1.286-.078v.832a8.834,8.834,0,0,0-1.286-.078h-6.45a7.177,7.177,0,0,1-.246.819h5.629c.377,0,.728-.013,1.17-.052a8.759,8.759,0,0,0-.052,1.027v3.719a7.562,7.562,0,0,0,.079,1.156h-.885v-.61H77.056v.61h-.871a7.763,7.763,0,0,0,.078-1.144v-1.95a11.1,11.1,0,0,1,.091-1.443,10.234,10.234,0,0,1-2.5,3.589,2.5,2.5,0,0,0-.636-.69,7.87,7.87,0,0,0,1.95-2.21,9.317,9.317,0,0,0,1.17-2.821H74.768a7.082,7.082,0,0,0-1.274.078v-.832a8.065,8.065,0,0,0,1.274.078h3.913v-.923H75.8a6.649,6.649,0,0,0-1.157.065v-.78a6.469,6.469,0,0,0,1.157.065h2.886v-.91Zm1.755,4.641v.872h5.785v-.872Zm0,1.5v.871h5.785v-.871Zm0,1.495v.923h5.785v-.923Z"/><path class="cls-8" d="M87.729,278.163a13.288,13.288,0,0,1,2.612,2.755l-.728.689a13,13,0,0,0-2.561-2.834Z"/><path class="cls-8" d="M96.387,277.2c0-.558.012-.936.039-1.56a7.508,7.508,0,0,1-1.483,1.456,2.477,2.477,0,0,0-.506-.741,10.65,10.65,0,0,0,2.625-2.561,4.475,4.475,0,0,0,.625-1.118l.805.455a5.741,5.741,0,0,0-.389.559,8.8,8.8,0,0,1-.872,1.17v5.252a9.892,9.892,0,0,0,.091,1.587H96.3a9.992,9.992,0,0,0,.091-1.587Zm1.794-6.773a2.121,2.121,0,0,0-.235.286,12.7,12.7,0,0,1-2.885,2.821,2.532,2.532,0,0,0-.585-.637,8.935,8.935,0,0,0,1.715-1.378,5.09,5.09,0,0,0,1.184-1.586Zm1.884,4.316a10.142,10.142,0,0,0-1.442.078v-.91a9.861,9.861,0,0,0,1.442.078h4.564a9.2,9.2,0,0,0,1.43-.078v.91a10.117,10.117,0,0,0-1.417-.078H103.9v5.695c0,.832-.311,1.053-1.456,1.053-.416,0-1.026-.027-1.586-.065a3.112,3.112,0,0,0-.208-.9,13.077,13.077,0,0,0,1.833.157c.443,0,.546-.053.546-.312v-5.63Zm-.91-4.095a9.234,9.234,0,0,0,1.353.078h3.639a9.125,9.125,0,0,0,1.339-.078v.91a10.023,10.023,0,0,0-1.339-.078h-3.639a10.268,10.268,0,0,0-1.353.078Z"/><path class="cls-8" d="M111.167,271.389c-.937.13-1.417.169-2.405.247a1.757,1.757,0,0,0-.325-.689,16.625,16.625,0,0,0,5.42-.9l.573.663c-.182.039-.182.039-.65.156a17.63,17.63,0,0,1-1.859.4V272.3h1.559a5.965,5.965,0,0,0,1.145-.065v.78a5.717,5.717,0,0,0-1.04-.052h-1.664v.806h1.351c.508,0,.832-.013,1.145-.039a6.909,6.909,0,0,0-.052,1.144v1.508a8.82,8.82,0,0,0,.052,1.235c-.313-.026-.65-.039-1.2-.039h-1.3v.871h1.313a7.705,7.705,0,0,0,1.183-.052v.78a6.637,6.637,0,0,0-1.066-.051h-1.43v.936c.832-.1,1.274-.169,2.418-.365v.69c-1.82.311-3.12.481-5.33.7a6.33,6.33,0,0,0-.69.1l-.169-.9c.208.014.43.026.546.026.4,0,1.145-.051,2.471-.181v-1.014h-1.443a11.187,11.187,0,0,0-1.183.064v-.806a7.049,7.049,0,0,0,1.2.065h1.431v-.871h-1.235c-.546,0-.9.013-1.209.039.026-.285.039-.572.039-1.221v-1.522a8.663,8.663,0,0,0-.039-1.144c.338.026.689.039,1.235.039h1.209v-.806H109.4a7.088,7.088,0,0,0-1.169.065v-.806a7.367,7.367,0,0,0,1.183.078h1.755Zm-1.664,3v.949h1.664v-.949Zm0,1.547v1.014h1.664v-1.014Zm2.418-.6h1.716v-.949h-1.716Zm0,1.612h1.716v-1.014h-1.716Zm6.513-4.043a9.5,9.5,0,0,0,1.157-.052c-.026.286-.039.546-.065,1.365-.09,3.926-.26,5.759-.611,6.6-.182.467-.533.636-1.248.636a12.532,12.532,0,0,1-1.378-.1,3.5,3.5,0,0,0-.143-.871,7.121,7.121,0,0,0,1.4.182c.481,0,.624-.09.715-.481a33.072,33.072,0,0,0,.468-6.526h-1.6a19.517,19.517,0,0,1-.533,4.173,9,9,0,0,1-2.041,3.823,2.9,2.9,0,0,0-.741-.559A6.725,6.725,0,0,0,115.327,279a13.743,13.743,0,0,0,1-5.331h-.338a7.938,7.938,0,0,0-1.209.065v-.884a6.834,6.834,0,0,0,1.157.065h.429c.013-.442.013-.819.013-1.3a7.27,7.27,0,0,0-.078-1.5h.962a3.894,3.894,0,0,0-.078.988c-.013.923-.013,1.365-.026,1.807Z"/><path class="cls-8" d="M131.187,277.408c-.105.1-.105.1-.4.416a11.1,11.1,0,0,1-2.144,1.8,13.747,13.747,0,0,0,5.122,1.235,3.235,3.235,0,0,0-.469.857,15.385,15.385,0,0,1-5.395-1.65,13.327,13.327,0,0,1-2.86,1.079,21.309,21.309,0,0,1-2.756.506,2.24,2.24,0,0,0-.442-.806,13.416,13.416,0,0,0,5.291-1.248,9.576,9.576,0,0,1-1.859-1.6,10.972,10.972,0,0,1-2.236,1.34,4.191,4.191,0,0,0-.494-.625,8.94,8.94,0,0,0,2.951-1.82,4.966,4.966,0,0,0,1.067-1.286l.766.337c-.091.091-.1.117-.2.221-.221.26-.468.547-.689.78h3a8.433,8.433,0,0,0,1.209-.065Zm-5.955-4.6a7.388,7.388,0,0,1-1.118,1.716,7.631,7.631,0,0,1-1.274,1.2,3.192,3.192,0,0,0-.676-.559,5.951,5.951,0,0,0,1.287-1.066,5.215,5.215,0,0,0,1.04-1.625Zm-1.625-.819a9.572,9.572,0,0,0-1.391.065v-.871a9.319,9.319,0,0,0,1.43.078h3.692v-.377a4.473,4.473,0,0,0-.078-.91h1.014a4.638,4.638,0,0,0-.078.91v.377h3.718a9.939,9.939,0,0,0,1.456-.078v.871c-.416-.039-.884-.065-1.442-.065H129.64v2.964c0,.637-.222.832-.924.832-.312,0-.74-.012-1.092-.039a1.863,1.863,0,0,0-.233-.766,7.222,7.222,0,0,0,1.1.09c.286,0,.352-.052.352-.3v-2.783h-1.6c-.064,2.236-.6,3.211-2.327,4.239a2.479,2.479,0,0,0-.676-.573,3.348,3.348,0,0,0,1.82-1.586,4.619,4.619,0,0,0,.39-2.08Zm2.275,5.629a9.311,9.311,0,0,0,1.989,1.6,8.337,8.337,0,0,0,2.016-1.6Zm4.967-5.031a21.045,21.045,0,0,1,2.43,2.613l-.727.559a13.427,13.427,0,0,0-2.3-2.717Z"/><path class="cls-8" d="M138.051,277.655l-.261.182a12.78,12.78,0,0,1-1.508.871,2.386,2.386,0,0,0-.494-.728,12.826,12.826,0,0,0,3.159-1.833,9.135,9.135,0,0,0,2.249-2.392h.832a9.7,9.7,0,0,0,2.484,2.536,12.28,12.28,0,0,0,2.964,1.65,2.806,2.806,0,0,0-.481.793,19.16,19.16,0,0,1-1.859-1.079v2.939a8.072,8.072,0,0,0,.078,1.156h-.884V281.1h-5.461v.649h-.9a8.7,8.7,0,0,0,.078-1.169Zm2.964-7.007a3.46,3.46,0,0,0-.091-.806h1.014a3.341,3.341,0,0,0-.079.806v.4h3.862c.507,0,.883-.013,1.3-.052a5.857,5.857,0,0,0-.052.884v.832a5.823,5.823,0,0,0,.052.9h-.845v-1.807h-9.127v1.807h-.858a6.177,6.177,0,0,0,.052-.9v-.832a5.991,5.991,0,0,0-.052-.884c.4.039.793.052,1.313.052h3.511Zm-.754,2.145a10.208,10.208,0,0,1-1.586,1.651,8.374,8.374,0,0,1-1.626,1.131,2.456,2.456,0,0,0-.623-.65,6.6,6.6,0,0,0,1.533-.9,8.263,8.263,0,0,0,1.6-1.625Zm4.094,4.316a11.28,11.28,0,0,1-2.716-2.665A11.064,11.064,0,0,1,140,276.2a9.589,9.589,0,0,1-1.17.91Zm-5.486,3.238h5.461v-2.484h-5.461Zm4.615-7.97a8.283,8.283,0,0,0,3.355,2.457,3.108,3.108,0,0,0-.494.715,10.489,10.489,0,0,1-3.524-2.717Z"/><path class="cls-8" d="M153.064,272a5.467,5.467,0,0,0,.624-1.781l1.041.182a2.761,2.761,0,0,0-.338.7c-.169.416-.338.767-.4.884a2.213,2.213,0,0,1,.273-.013,18.3,18.3,0,0,0,4.095-.494l.078.884a4.074,4.074,0,0,0-.52.065,41.975,41.975,0,0,1-4.29.338,9.586,9.586,0,0,1-1.17,1.846c-.13.157-.391.455-.442.494a1.942,1.942,0,0,0-.169.13.013.013,0,0,1-.013.013v.013a.113.113,0,0,0,.025.039c.469-.364.469-.364.6-.455a3.46,3.46,0,0,1,1.963-.637,1.578,1.578,0,0,1,1.716,1.443c.949-.377,1.69-.65,2.263-.858a2.836,2.836,0,0,0,.883-.377l.416.91a21.616,21.616,0,0,0-3.471,1.144c.026.339.026.468.026.794,0,.169,0,.454-.013.714-.013.287-.013.468-.013.585a2.814,2.814,0,0,0,.026.468l-.884.013a18.7,18.7,0,0,0,.078-1.872,3.416,3.416,0,0,0-.013-.39c-1.768.832-2.444,1.444-2.444,2.223,0,.858.806,1.236,2.639,1.236a10.861,10.861,0,0,0,3.471-.508l.117,1c-.194.014-.26.027-.52.066a20.168,20.168,0,0,1-3.159.26c-2.327,0-3.458-.664-3.458-2a2.688,2.688,0,0,1,1.326-2.055,10.092,10.092,0,0,1,1.937-1.04c-.1-.715-.416-1.027-1.028-1.027a4.884,4.884,0,0,0-2.9,1.378,4.286,4.286,0,0,0-1,1.08l-.728-.729a12.922,12.922,0,0,0,2.912-3.718l.117-.195a1.44,1.44,0,0,1-.247.026c-.208,0-1.43-.026-1.911-.039h-.208a2.3,2.3,0,0,0-.286.013l.013-.9a18.183,18.183,0,0,0,2.781.143Z"/><path class="cls-8" d="M163.424,275.952c0-.6.014-.962.053-1.6a10.533,10.533,0,0,1-1.327,1.9,2.433,2.433,0,0,0-.533-.767,11.725,11.725,0,0,0,2.393-3.666,9.074,9.074,0,0,0,.585-1.846l.884.338a22.071,22.071,0,0,1-1.236,2.86v7a10.649,10.649,0,0,0,.091,1.521h-1a10.375,10.375,0,0,0,.091-1.561Zm4.1-1.326a11.052,11.052,0,0,0-1.366.052,7.407,7.407,0,0,0,.052-1.04v-2.067a7.088,7.088,0,0,0-.052-1.027,10.706,10.706,0,0,0,1.405.065h3.886a10.6,10.6,0,0,0,1.405-.065,7.036,7.036,0,0,0-.052,1.053v2.041a7.407,7.407,0,0,0,.052,1.04,13,13,0,0,0-1.352-.052h-1.6v2.054h2.185a7.254,7.254,0,0,0,1.156-.077v.9a7.434,7.434,0,0,0-1.156-.079H169.9v2.73a10.031,10.031,0,0,0,2.3.222c.56,0,.976-.014,1.678-.065a2.978,2.978,0,0,0-.261.883c-.532.027-.766.039-1.026.039a9.53,9.53,0,0,1-3.888-.675,4.331,4.331,0,0,1-1.911-1.782,8.1,8.1,0,0,1-1.547,2.809,2.53,2.53,0,0,0-.649-.572,6.427,6.427,0,0,0,1.442-2.445,9.5,9.5,0,0,0,.521-2.7,1.257,1.257,0,0,0-.014-.247l.91.117c-.052.208-.052.234-.221,1.222-.051.325-.1.586-.181.91a4.142,4.142,0,0,0,2.027,2v-5.239Zm-.521-.741h4.992v-2.522H167Z"/><path class="cls-8" d="M178.375,270.609a20.043,20.043,0,0,0-.169,2.743c-.053,1.56-.092,3.328-.092,3.914,0,.155.014.481.027.779a2.039,2.039,0,0,0,.611,1.56,2.446,2.446,0,0,0,1.625.507,3.733,3.733,0,0,0,3.484-2.261,7.735,7.735,0,0,0,.637-2.041,3.7,3.7,0,0,0,.936.624,7.925,7.925,0,0,1-1.443,2.95,4.549,4.549,0,0,1-3.666,1.626,3.085,3.085,0,0,1-2.444-.91,3.624,3.624,0,0,1-.715-2.665c0-.872.013-1.2.116-5.292.014-.39.014-.637.014-.845a4.1,4.1,0,0,0-.052-.689Z"/><path class="cls-8" d="M188.411,278.163a13.235,13.235,0,0,1,2.612,2.755l-.727.689a12.976,12.976,0,0,0-2.562-2.834Z"/><path class="cls-8" d="M201.358,270.089a9.5,9.5,0,0,0,2.314,2.535,14.005,14.005,0,0,0,3.367,2.028,2.5,2.5,0,0,0-.519.819,16.576,16.576,0,0,1-3.419-2.223,11.013,11.013,0,0,1-2.146-2.34,12.764,12.764,0,0,1-1.9,2.21,15.306,15.306,0,0,1-3.511,2.484,2.789,2.789,0,0,0-.546-.768,14.245,14.245,0,0,0,3.419-2.275,10,10,0,0,0,2.067-2.47Zm3.874,10.335a8.971,8.971,0,0,0,1.483-.091v.976a9.083,9.083,0,0,0-1.483-.091h-8.567a9.037,9.037,0,0,0-1.5.091v-.976a8.315,8.315,0,0,0,1.456.091h.923v-3.315a9.053,9.053,0,0,0-.091-1.442h1.027a8.641,8.641,0,0,0-.09,1.442v3.315h2.4v-5.6a8.51,8.51,0,0,0-.091-1.417h1.04a8.243,8.243,0,0,0-.091,1.4v1.5h2.288a8.167,8.167,0,0,0,1.326-.077v.948a8.7,8.7,0,0,0-1.326-.078h-2.288v3.328Z"/><path class="cls-8" d="M210.835,274.925a10.143,10.143,0,0,0-1.391.065v-.806a9.471,9.471,0,0,0,1.391.065h1.886a7.843,7.843,0,0,0-.69-1.469h-1.637a13.885,13.885,0,0,0-1.47.065v-.832a10.134,10.134,0,0,0,1.443.078h.9a6.869,6.869,0,0,0-1.067-1.378l.741-.351a7.761,7.761,0,0,1,1.158,1.729h1.091v-1A6.287,6.287,0,0,0,213.11,270h.884a7.326,7.326,0,0,0-.052,1.079v1.014h1.378v-1.014a7.586,7.586,0,0,0-.051-1.079h.883a6.178,6.178,0,0,0-.078,1.092v1h1.248a8.321,8.321,0,0,0,1.028-1.794l.793.338a12.924,12.924,0,0,1-.975,1.456h.779a10.062,10.062,0,0,0,1.456-.078v.832a13.842,13.842,0,0,0-1.468-.065H217.4a14.369,14.369,0,0,1-.7,1.469h1.847a9.783,9.783,0,0,0,1.4-.065v.806a10.236,10.236,0,0,0-1.4-.065h-3.536v.95h2.729a9.932,9.932,0,0,0,1.405-.065v.793a9.937,9.937,0,0,0-1.405-.066h-2.729v1h3.938a9.745,9.745,0,0,0,1.483-.079v.846a12.169,12.169,0,0,0-1.469-.078h-3.406a10.291,10.291,0,0,0,5.161,2.249,3,3,0,0,0-.507.806,14.015,14.015,0,0,1-3.186-1.222,8.543,8.543,0,0,1-2.066-1.586c.038.585.052.818.052,1.1v.871a9.688,9.688,0,0,0,.078,1.352h-.937a8.47,8.47,0,0,0,.079-1.365v-.858c0-.3.012-.585.051-1.093a10.333,10.333,0,0,1-4.887,2.8,2.682,2.682,0,0,0-.534-.755,9.869,9.869,0,0,0,4.824-2.3H210.5a12.02,12.02,0,0,0-1.469.078v-.846a9.9,9.9,0,0,0,1.469.079h3.732v-1h-2.575a9.72,9.72,0,0,0-1.39.066v-.793a10.037,10.037,0,0,0,1.39.065h2.575v-.95Zm5.019-.676a6.675,6.675,0,0,0,.663-1.469H212.9a10.7,10.7,0,0,1,.612,1.469Z"/><path class="cls-8" d="M227.488,277.292c-.755,1.715-1.521,2.5-2.458,2.5-1.234,0-2.157-1.352-2.157-3.173a5.278,5.278,0,0,1,5.564-5.317,5.033,5.033,0,0,1,3.575,1.287,4.352,4.352,0,0,1,1.261,3.172,4.735,4.735,0,0,1-2.977,4.486,10.063,10.063,0,0,1-1.976.6,2.084,2.084,0,0,0-.455-.87,7.8,7.8,0,0,0,2.171-.612,3.924,3.924,0,0,0,2.3-3.64,3.427,3.427,0,0,0-2.067-3.263,3.741,3.741,0,0,0-1.508-.325A19.534,19.534,0,0,1,227.488,277.292Zm-1.6-4.538a4.5,4.5,0,0,0-2.119,3.874c0,1.248.545,2.21,1.248,2.21.545,0,1.066-.61,1.625-1.885a17.856,17.856,0,0,0,1.183-4.81A4.1,4.1,0,0,0,225.889,272.754Z"/><path class="cls-8" d="M241.891,280.632c0,.806-.247.963-1.456.963-.365,0-1.04-.027-1.5-.078a3.849,3.849,0,0,0-.272-.832,13.731,13.731,0,0,0,1.7.143c.6,0,.689-.039.689-.312V277.9h-3.9a9.912,9.912,0,0,0-1.364.078v-.9a9.714,9.714,0,0,0,1.352.078h3.913v-.221c0-.26-.013-.494-.039-.767h.545a10.9,10.9,0,0,0,2.328-1.469h-4.758a11.376,11.376,0,0,0-1.236.066v-.846a11.805,11.805,0,0,0,1.262.065h4.693a5.752,5.752,0,0,0,.962-.051l.494.519c-.169.13-.169.13-.456.377a14.761,14.761,0,0,1-2.963,1.924v.4h3.861a9.532,9.532,0,0,0,1.365-.078v.9a9.862,9.862,0,0,0-1.378-.078h-3.848Zm-3.51-8.593a8.659,8.659,0,0,0-1.223-1.69l.78-.247a12.324,12.324,0,0,1,1.327,1.924h1.9a7.7,7.7,0,0,0-.949-1.872l.806-.221a11.14,11.14,0,0,1,.988,2.093h1.43a7.752,7.752,0,0,0,1.339-2.093l.819.351a12.113,12.113,0,0,1-1.248,1.742h1.014a14.782,14.782,0,0,0,1.5-.052,8.413,8.413,0,0,0-.052,1.079v.962a7.139,7.139,0,0,0,.065.91h-.858v-2.184h-9.178v2.184h-.858a6.813,6.813,0,0,0,.065-.91v-.962a8.39,8.39,0,0,0-.053-1.079,11.669,11.669,0,0,0,1.483.065Z"/><path class="cls-8" d="M249.716,271.48a4.26,4.26,0,0,0,.611.039,11.059,11.059,0,0,0,3.432-.416l.546.819a6.253,6.253,0,0,0-1.521,1.4A6.634,6.634,0,0,0,251,277.474a2.543,2.543,0,0,0,2.56,2.691,2.956,2.956,0,0,0,2.679-1.782,6.676,6.676,0,0,0,.468-2.7,10.714,10.714,0,0,0-.806-4.186l.936-.312a10.049,10.049,0,0,0,1.222,2.366,8.913,8.913,0,0,0,1.872,2.028,1.9,1.9,0,0,0,.481.312l-.494.9a6.768,6.768,0,0,0-.533-.468,8.668,8.668,0,0,1-1.651-1.911c-.208-.338-.312-.494-.442-.741-.156-.286-.156-.286-.26-.468a8.343,8.343,0,0,1,.52,2.964,6.7,6.7,0,0,1-.507,2.652,3.727,3.727,0,0,1-3.485,2.263,3.381,3.381,0,0,1-3.458-3.615,7.008,7.008,0,0,1,1.73-4.329,6.526,6.526,0,0,1,1.17-1.157,11.478,11.478,0,0,1-2.9.4c-.247.013-.247.013-.376.026Zm8.71-.806a9.313,9.313,0,0,1,1.235,1.9l-.637.351a9.9,9.9,0,0,0-1.222-1.937Zm1.222-.611a10.009,10.009,0,0,1,1.248,1.82l-.624.364a8.791,8.791,0,0,0-1.235-1.872Z"/><path class="cls-8" d="M267.332,277.292c-.755,1.715-1.521,2.5-2.458,2.5-1.234,0-2.157-1.352-2.157-3.173a5.278,5.278,0,0,1,5.563-5.317,5.031,5.031,0,0,1,3.575,1.287,4.348,4.348,0,0,1,1.262,3.172,4.736,4.736,0,0,1-2.977,4.486,10.063,10.063,0,0,1-1.976.6,2.084,2.084,0,0,0-.455-.87,7.8,7.8,0,0,0,2.171-.612,3.924,3.924,0,0,0,2.3-3.64,3.426,3.426,0,0,0-2.068-3.263,3.734,3.734,0,0,0-1.508-.325A19.5,19.5,0,0,1,267.332,277.292Zm-1.6-4.538a4.5,4.5,0,0,0-2.119,3.874c0,1.248.546,2.21,1.248,2.21.546,0,1.067-.61,1.625-1.885a17.818,17.818,0,0,0,1.184-4.81A4.11,4.11,0,0,0,265.732,272.754Z"/><path class="cls-8" d="M20.768,293.06c.467-.013,1.82-.169,2.873-.338a15.97,15.97,0,0,0,.389-2.756V289.8l1.04.117a7.992,7.992,0,0,0-.247,1.248c-.064.377-.155.858-.272,1.482a7.571,7.571,0,0,1,.766-.039,2.483,2.483,0,0,1,1.872.546,2.62,2.62,0,0,1,.637,2.093,8.973,8.973,0,0,1-.87,4.472,1.357,1.357,0,0,1-1.274.612,4.875,4.875,0,0,1-1.963-.508,2.933,2.933,0,0,0,.025-.455,2.508,2.508,0,0,0-.039-.519,4.859,4.859,0,0,0,1.938.6q.487,0,.741-.624a10.085,10.085,0,0,0,.546-3.614c0-1.378-.39-1.82-1.6-1.82a7.462,7.462,0,0,0-.935.065,24.625,24.625,0,0,1-1.963,5.512c-.169.312-.443.832-.846,1.56L20.7,300a12.4,12.4,0,0,0,1.353-2.353,21.439,21.439,0,0,0,1.429-4.121c-1.118.169-1.742.273-1.859.3a7.5,7.5,0,0,0-.754.169Zm8.541-1.2a11.741,11.741,0,0,1,2.716,4.6l-.832.481a10.63,10.63,0,0,0-2.651-4.667Z"/><path class="cls-8" d="M33.677,292.085a8.958,8.958,0,0,0,1.625.117c.26,0,.4,0,.78-.026a12.671,12.671,0,0,0,.285-2.392l1.028.1a11.831,11.831,0,0,0-.235,1.235c-.064.416-.1.6-.169.988a10.718,10.718,0,0,0,2.341-.442l.064.9c-.1.013-.1.013-.364.065a18.985,18.985,0,0,1-2.2.312c-.2,1.027-.56,2.5-.91,3.68a34.616,34.616,0,0,1-1.5,3.964l-.95-.4A26.2,26.2,0,0,0,35.926,293c-.26.013-.416.013-.9.013-.455,0-.572,0-1.079-.026H33.9a1.912,1.912,0,0,0-.22.013Zm5.81,4.719a4.3,4.3,0,0,0-.389.494,1.566,1.566,0,0,0-.326.924c0,.779.793,1.195,2.276,1.195a9.7,9.7,0,0,0,2.873-.441l.091.975c-.143.026-.143.026-.573.091a13.119,13.119,0,0,1-2.313.221c-2.132,0-3.237-.663-3.237-1.951,0-.584.181-.988.871-1.872Zm4.018-2.249a13.052,13.052,0,0,0-1.534-.091,11.305,11.305,0,0,0-3.25.442l-.091-.884a14.722,14.722,0,0,1,3.445-.429c.247,0,.442,0,1.417.039Z"/><path class="cls-8" d="M46,291.812a11.885,11.885,0,0,0,2.808.221,10.13,10.13,0,0,0,.416-2.327l1.04.1a6.592,6.592,0,0,0-.208.832c-.182.754-.221.91-.351,1.378a22.068,22.068,0,0,0,5.122-.559l.066.936c-.222.026-.3.026-.573.065a43.445,43.445,0,0,1-4.823.377,17.541,17.541,0,0,1-1.3,3.341l.013.027a6.661,6.661,0,0,1,3.783-1.093c2.054,0,3.367.936,3.367,2.392,0,1.768-1.729,2.926-4.355,2.926a9.719,9.719,0,0,1-3.211-.508,1.436,1.436,0,0,0,.013-.208v-.077c0-.066-.026-.3-.065-.716a7.933,7.933,0,0,0,3.25.65c2.054,0,3.406-.819,3.406-2.067,0-.987-.936-1.586-2.5-1.586a7.066,7.066,0,0,0-3.016.7,2.763,2.763,0,0,0-1.092.832l-.937-.378a19.547,19.547,0,0,0,1.743-4.238c-.832-.013-1.4-.039-2.159-.091-.169-.013-.285-.013-.363-.013h-.1Z"/><path class="cls-8" d="M61.236,291.5a5.467,5.467,0,0,0,.624-1.781l1.04.182a2.838,2.838,0,0,0-.338.7c-.168.416-.337.767-.4.884a2.2,2.2,0,0,1,.273-.013,18.306,18.306,0,0,0,4.1-.494l.077.884a4.06,4.06,0,0,0-.519.065,41.975,41.975,0,0,1-4.29.338,9.586,9.586,0,0,1-1.17,1.846c-.13.157-.391.455-.442.494a1.942,1.942,0,0,0-.169.13.013.013,0,0,1-.013.013v.013a.113.113,0,0,0,.025.039c.469-.364.469-.364.6-.455a3.46,3.46,0,0,1,1.963-.637,1.578,1.578,0,0,1,1.716,1.443c.949-.377,1.69-.65,2.262-.858a2.834,2.834,0,0,0,.884-.377l.416.91a21.584,21.584,0,0,0-3.471,1.144c.026.339.026.468.026.794,0,.169,0,.454-.013.714-.013.287-.013.468-.013.585a2.814,2.814,0,0,0,.026.468l-.884.013a18.7,18.7,0,0,0,.078-1.872,3.416,3.416,0,0,0-.013-.39c-1.768.832-2.444,1.444-2.444,2.223,0,.858.806,1.236,2.639,1.236a10.861,10.861,0,0,0,3.471-.508l.117,1c-.195.014-.26.027-.52.066a20.168,20.168,0,0,1-3.159.26c-2.327,0-3.458-.664-3.458-2a2.685,2.685,0,0,1,1.326-2.055,10.092,10.092,0,0,1,1.937-1.04c-.1-.715-.416-1.027-1.028-1.027a4.884,4.884,0,0,0-2.9,1.378,4.286,4.286,0,0,0-1,1.08l-.729-.729a12.905,12.905,0,0,0,2.913-3.718l.117-.195a1.44,1.44,0,0,1-.247.026c-.208,0-1.43-.026-1.911-.039H58.52a2.321,2.321,0,0,0-.287.013l.014-.9a18.183,18.183,0,0,0,2.781.143Z"/><path class="cls-8" d="M78.215,292.241a5.662,5.662,0,0,0,.078.962c-.455-.039-.819-.052-1.092-.052H75.979v1.027h2.755a10.027,10.027,0,0,0,1.392-.065,9.137,9.137,0,0,0-.052,1.144v.9a8.341,8.341,0,0,0,.052,1.105,12.611,12.611,0,0,0-1.47-.051H75.979v1.144h3.887a11.321,11.321,0,0,0,1.469-.079v.911a11.2,11.2,0,0,0-1.456-.079h-3.9v.781a8.918,8.918,0,0,0,.1,1.429h-.976a9.767,9.767,0,0,0,.091-1.429v-.781H71.532a11.145,11.145,0,0,0-1.469.079v-.911a10.622,10.622,0,0,0,1.444.079H75.2v-1.144H72.819a12.692,12.692,0,0,0-1.481.051,8.341,8.341,0,0,0,.052-1.105v-.9a9.137,9.137,0,0,0-.052-1.144,10,10,0,0,0,1.391.065H75.2v-1.027h-1.1c-.274,0-.7.026-1.106.052a5.774,5.774,0,0,0,.066-.962v-.858H71.493a10.723,10.723,0,0,0-1.456.065v-.871a10.342,10.342,0,0,0,1.456.078h1.561v-.195a6.035,6.035,0,0,0-.078-.975h.949a5.924,5.924,0,0,0-.078.975v.195h3.575v-.195a5.924,5.924,0,0,0-.078-.975h.949a5.707,5.707,0,0,0-.078.975v.195H79.9a10.17,10.17,0,0,0,1.47-.078v.871a10.954,10.954,0,0,0-1.47-.065H78.215ZM75.2,294.867h-3v1.638h3Zm-1.351-3.484v1.105h3.575v-1.105Zm5.421,5.122v-1.638H75.979v1.638Z"/><path class="cls-8" d="M84.338,296.531a4.747,4.747,0,0,0-1.066.078v-.858a4.8,4.8,0,0,0,1.092.078H85.95v-.689a2.393,2.393,0,0,0-.065-.533h.871a2.392,2.392,0,0,0-.052.533v.689h1.43a5.051,5.051,0,0,0,1.054-.078v.845a5.722,5.722,0,0,0-1.054-.065H86.9a5.512,5.512,0,0,0,1.833,1.652,3.288,3.288,0,0,0-.455.7,6.677,6.677,0,0,1-1.625-1.794c.026.286.039.663.052,1.144v1.886a7.04,7.04,0,0,0,.066,1.117h-.9a7.175,7.175,0,0,0,.078-1.117v-1.847c0-.312.013-.649.039-1.079a7.712,7.712,0,0,1-2.457,2.887,2.631,2.631,0,0,0-.494-.728,8.736,8.736,0,0,0,1.691-1.431,6.163,6.163,0,0,0,.948-1.391Zm2.314-2.9a6.9,6.9,0,0,0,.871-2.132l.78.247a13.779,13.779,0,0,1-.884,1.885h.768a5.7,5.7,0,0,0,1.052-.065v.871a6.057,6.057,0,0,0-1.052-.065H84.325a5.938,5.938,0,0,0-1.079.065v-.871a5.766,5.766,0,0,0,1.079.065Zm1.327-2.99a6,6,0,0,0,1.091-.065v.871a6.62,6.62,0,0,0-1.1-.065H84.637a6.59,6.59,0,0,0-1.131.065v-.871a6.3,6.3,0,0,0,1.144.065h1.3v-.351a4.43,4.43,0,0,0-.065-.91h.949a4.359,4.359,0,0,0-.064.91v.351ZM85,293.515a7.249,7.249,0,0,0-.741-1.742l.689-.26a7.733,7.733,0,0,1,.741,1.755Zm8.905.026a6.607,6.607,0,0,0,1.2-.078v.9a6.778,6.778,0,0,0-1.145-.065h-.48v5.668a6.433,6.433,0,0,0,.078,1.3h-1a8,8,0,0,0,.078-1.3V294.3H90.592v.507a14.308,14.308,0,0,1-.741,4.668,6.806,6.806,0,0,1-.962,1.78,2.754,2.754,0,0,0-.742-.545c1.249-1.535,1.638-3.354,1.638-7.7,0-1.469-.025-2.028-.064-2.4h.155a12.535,12.535,0,0,0,3.081-.6,4.1,4.1,0,0,0,1.2-.559l.663.728a4.364,4.364,0,0,0-.467.182,15.836,15.836,0,0,1-3.745.962v2.223Z"/><rect class="cls-9" width="294" height="5"/><path class="cls-9" d="M25.975,169.007a2.639,2.639,0,1,1-2.639-2.639A2.64,2.64,0,0,1,25.975,169.007Z"/><path class="cls-8" d="M33.373,168.26a13.215,13.215,0,0,1,1.883,1.632,12.524,12.524,0,0,0,3.264-3.527H30.867v-1.127H39.49l.672.8a14.741,14.741,0,0,1-4.15,4.653,21.191,21.191,0,0,1,1.439,1.847l-1.043.78a18.876,18.876,0,0,0-3.826-4.294Z"/><path class="cls-8" d="M47.088,173.682H45.816v-5.638a21.292,21.292,0,0,1-3.849,1.908l-.719-.984a17.736,17.736,0,0,0,7.65-5.157l1.081.768a21.912,21.912,0,0,1-2.891,2.6Z"/><path class="cls-8" d="M59.051,165.466l.66.743a11.859,11.859,0,0,1-6.682,7.6l-.8-.995a10.658,10.658,0,0,0,6.044-6.309h-3.6a12.546,12.546,0,0,1-2.567,2.639l-.851-.744a11.8,11.8,0,0,0,3.682-4.8l1.21.372a14.937,14.937,0,0,1-.779,1.487Z"/><path class="cls-8" d="M63.783,172.266v1.02H62.572v-8.312h8.1v8.18H69.455v-.888Zm5.672-6.2H63.783v5.11h5.672Z"/><path class="cls-8" d="M81.887,167.769a7.832,7.832,0,0,1-5.973,6.021l-.623-1.056c2.891-.792,4.57-2.327,5.254-4.582h-7.16v-1.091H81.24Zm-1.162-3.418v1.079h-6.2v-1.079Z"/><path class="cls-8" d="M93.779,168.081v1.247H84.2v-1.247Z"/><path class="cls-8" d="M105.455,171.187v1.151H95.848v-1.151Zm-8.516-5.781h7.413v1.151H96.939Z"/><path class="cls-8" d="M108.266,164.614a13.43,13.43,0,0,1,2.843,2.3l-.912.959a16.507,16.507,0,0,0-2.711-2.434Zm-.563,7.58c3.717-.84,6.381-2.842,7.664-6.236l1.092.647c-1.393,3.706-4.426,5.889-8.359,6.741Z"/><path class="cls-8" d="M125.832,165.586l.658.744a11.853,11.853,0,0,1-6.679,7.6l-.8-1a10.653,10.653,0,0,0,6.043-6.309h-3.6a12.517,12.517,0,0,1-2.566,2.639l-.852-.744a11.756,11.756,0,0,0,3.682-4.8l1.213.372a14.452,14.452,0,0,1-.782,1.487Zm.371-2.279a8.75,8.75,0,0,1,.971,2.075l-.815.312a8.36,8.36,0,0,0-.912-2.147Zm1.391-.479a7.711,7.711,0,0,1,1.045,2.05l-.805.288a7.522,7.522,0,0,0-.959-2.075Z"/><path class="cls-9" d="M25.975,188.348a2.639,2.639,0,1,1-2.639-2.639A2.639,2.639,0,0,1,25.975,188.348Z"/><path class="cls-8" d="M36,193.022H34.729v-5.637a21.33,21.33,0,0,1-3.85,1.907l-.719-.983a17.754,17.754,0,0,0,7.651-5.157l1.08.767a21.858,21.858,0,0,1-2.891,2.6Z"/><path class="cls-8" d="M42.086,183.955a13.46,13.46,0,0,1,2.844,2.3l-.912.959a16.548,16.548,0,0,0-2.711-2.434Zm-.563,7.58c3.717-.84,6.381-2.842,7.665-6.237l1.091.648c-1.392,3.706-4.425,5.889-8.359,6.741Z"/><path class="cls-8" d="M60.48,192.866a21.659,21.659,0,0,0-3.275-3.562,14.182,14.182,0,0,1-4.689,3.467l-.768-.96a12.156,12.156,0,0,0,6.633-6.74H52.863v-1.128h6.309l.7.8a14.778,14.778,0,0,1-1.967,3.682A20.376,20.376,0,0,1,61.535,192Z"/><path class="cls-8" d="M66.242,186.582a23.038,23.038,0,0,1,4.832,2.135l-.551,1.115a25.248,25.248,0,0,0-4.281-2.051v5.289H65.006v-9.93h1.236Z"/><path class="cls-8" d="M81.887,187.109a7.829,7.829,0,0,1-5.973,6.021l-.623-1.055c2.891-.792,4.57-2.327,5.254-4.582h-7.16V186.4H81.24Zm-1.162-3.418v1.08h-6.2v-1.08Z"/><path class="cls-8" d="M91.764,184.807l.66.743a11.859,11.859,0,0,1-6.682,7.6l-.8-1a10.659,10.659,0,0,0,6.045-6.309h-3.6a12.546,12.546,0,0,1-2.567,2.639l-.851-.744a11.789,11.789,0,0,0,3.681-4.8l1.211.372a14.937,14.937,0,0,1-.779,1.487Z"/><path class="cls-8" d="M95.32,186.222a13.153,13.153,0,0,1,2.987,1.487l-.6,1.056a16.579,16.579,0,0,0-2.939-1.559Zm-.289,5.4c3.754-.564,6.442-2.231,8.037-5.733l1.032.78c-1.741,3.706-4.69,5.493-8.721,6.176Zm1.309-8.191a12.656,12.656,0,0,1,2.9,1.463l-.6,1.043a15.588,15.588,0,0,0-2.868-1.535Z"/><path class="cls-8" d="M107.068,189.4v-1.031H112.2v-1.847H106.66V185.5h6.656v7.748H112.2v-.744h-5.613v-1.019H112.2V189.4Z"/><path class="cls-8" d="M120.52,183.211h1.234v3.011h3.994v1.1H121.73a5.945,5.945,0,0,1-3.6,5.685L117.352,192a4.834,4.834,0,0,0,3.154-4.678H116.32v-1.1h4.2Z"/><path class="cls-8" d="M130.059,183.823v2.711a7.322,7.322,0,0,1-2.651,6.2l-.887-.839c1.678-1.259,2.315-2.915,2.315-5.445v-2.627Zm3.287-.336v7.64a9.007,9.007,0,0,0,3.418-2.77l.707,1.007a11.154,11.154,0,0,1-4.7,3.334l-.661-.539v-8.672Z"/><path class="cls-8" d="M31.91,200.7h9.535v1.079H37.428a5.805,5.805,0,0,1-3.334,5.457l-.793-.959a4.725,4.725,0,0,0,2.879-4.5H31.91Zm1.115-2.831h6.549v1.092H33.025Zm7.377-1.1a8.62,8.62,0,0,1,.971,2.087l-.8.3a8.869,8.869,0,0,0-.924-2.135Zm1.4-.468a8.2,8.2,0,0,1,1.031,2.051l-.8.288a6.913,6.913,0,0,0-.959-2.075Z"/><path class="cls-8" d="M46.8,203.652H45.6V200.8H43.334v-1.1H45.6v-2.242h1.2v2.242H49.99v-2.3h1.2v2.3h2.34v1.1h-2.34v.576c0,3.334-1.4,4.977-4.22,5.888l-.625-1.043c2.65-.816,3.646-2.051,3.646-4.918v-.5H46.8Zm5.527-6.956a8.249,8.249,0,0,1,.733,2.171l-.829.2a8.876,8.876,0,0,0-.658-2.219Zm1.416-.312a7.6,7.6,0,0,1,.768,2.147l-.8.2a7.35,7.35,0,0,0-.7-2.171Z"/><path class="cls-8" d="M60.816,207.022H59.545v-5.637a21.3,21.3,0,0,1-3.85,1.907l-.72-.983a17.757,17.757,0,0,0,7.652-5.157l1.078.767a21.655,21.655,0,0,1-2.889,2.6Z"/><path class="cls-8" d="M66.9,197.955a13.425,13.425,0,0,1,2.842,2.3l-.91.959a16.589,16.589,0,0,0-2.711-2.434Zm-.564,7.58c3.719-.84,6.381-2.842,7.664-6.237l1.092.648c-1.391,3.706-4.426,5.889-8.36,6.741Z"/><path class="cls-9" d="M25.975,220.032a2.639,2.639,0,1,1-2.639-2.639A2.639,2.639,0,0,1,25.975,220.032Z"/><path class="cls-8" d="M32.162,215.688a14.041,14.041,0,0,1,1.848,3.381l-1.164.564a15.027,15.027,0,0,0-1.762-3.418Zm7.365.167c-.576,4.354-2.687,7.412-6.154,8.9l-.742-1.031c3.322-1.427,5.156-4.09,5.611-8.108Z"/><path class="cls-8" d="M51.094,219.105v1.248H41.51v-1.248Z"/><path class="cls-8" d="M53.619,217.906a13.146,13.146,0,0,1,2.986,1.487l-.6,1.056a16.552,16.552,0,0,0-2.94-1.559Zm-.289,5.4c3.754-.564,6.441-2.231,8.037-5.733l1.031.78c-1.74,3.706-4.689,5.493-8.72,6.176Zm1.309-8.191a12.656,12.656,0,0,1,2.9,1.463l-.6,1.043a15.581,15.581,0,0,0-2.867-1.535Z"/><path class="cls-8" d="M68.414,224.8l-1.08.18-1.02-5.169-2.279.336-.131-1.032,2.219-.311-.443-2.255,1.1-.192.446,2.279,4.461-.624.55.66a8.751,8.751,0,0,1-2.4,3.274l-.779-.7a6.289,6.289,0,0,0,1.714-2.1l-3.357.492Z"/><path class="cls-8" d="M76.586,215.507v2.711a7.327,7.327,0,0,1-2.65,6.2l-.889-.839c1.68-1.259,2.314-2.914,2.314-5.445v-2.627Zm3.285-.336v7.641a9.006,9.006,0,0,0,3.418-2.771L84,221.048a11.148,11.148,0,0,1-4.7,3.334l-.66-.539v-8.672Z"/><path class="cls-8" d="M93.418,218.793a7.829,7.829,0,0,1-5.973,6.021l-.623-1.055c2.891-.792,4.571-2.327,5.254-4.582h-7.16v-1.091h7.855Zm-1.162-3.418v1.08h-6.2v-1.08Z"/><path class="cls-8" d="M104.963,219.105v1.248H95.379v-1.248Z"/><path class="cls-8" d="M116.291,222.212v1.151h-9.607v-1.151Zm-8.516-5.781h7.413v1.151h-7.413Z"/><path class="cls-8" d="M118.754,215.639a13.46,13.46,0,0,1,2.844,2.3l-.912.959a16.548,16.548,0,0,0-2.711-2.434Zm-.563,7.58c3.717-.84,6.381-2.842,7.664-6.237l1.092.648c-1.392,3.706-4.426,5.889-8.359,6.741Z"/><path class="cls-8" d="M135.973,216.611l.658.743a11.856,11.856,0,0,1-6.68,7.6l-.8-1a10.647,10.647,0,0,0,6.043-6.309h-3.6a12.5,12.5,0,0,1-2.567,2.639l-.851-.744a11.754,11.754,0,0,0,3.681-4.8l1.213.372a14.547,14.547,0,0,1-.781,1.487Zm.371-2.279a8.71,8.71,0,0,1,.97,2.075l-.814.312a8.4,8.4,0,0,0-.912-2.147Zm1.39-.479a7.682,7.682,0,0,1,1.045,2.05l-.8.288a7.552,7.552,0,0,0-.959-2.075Z"/><path class="cls-9" d="M162.154,169.007a2.639,2.639,0,1,1-2.638-2.639A2.639,2.639,0,0,1,162.154,169.007Z"/><path class="cls-8" d="M166.5,172.206a14.429,14.429,0,0,0,2.794-6.812l1.26.276a16,16,0,0,1-2.975,7.28Zm7.5-7.064a27.265,27.265,0,0,1,3.227,7.244l-1.3.528a28.46,28.46,0,0,0-3.023-7.268Zm3.5-.755a1.392,1.392,0,1,1-1.4-1.4A1.4,1.4,0,0,1,177.5,164.387Zm-2.147,0a.728.728,0,0,0,.744.755.762.762,0,1,0,0-1.523A.731.731,0,0,0,175.352,164.387Z"/><path class="cls-8" d="M188.071,168.081v1.247h-9.583v-1.247Z"/><path class="cls-8" d="M190.607,164.663a13.971,13.971,0,0,1,1.847,3.381l-1.163.564a15.029,15.029,0,0,0-1.763-3.418Zm7.365.167c-.576,4.354-2.688,7.412-6.154,8.9l-.743-1.031c3.322-1.427,5.157-4.09,5.613-8.108Z"/><path class="cls-8" d="M203.747,163.871h1.234v3.01h4v1.1h-4.018a5.943,5.943,0,0,1-3.6,5.685l-.78-1.007a4.834,4.834,0,0,0,3.154-4.678h-4.185v-1.1h4.2Z"/><path class="cls-8" d="M218.852,167.769a7.836,7.836,0,0,1-5.973,6.021l-.623-1.056c2.89-.792,4.569-2.327,5.253-4.582h-7.16v-1.091H218.2Zm-1.164-3.418v1.079h-6.2v-1.079Z"/><path class="cls-8" d="M226.078,173.682h-1.271v-5.638a21.334,21.334,0,0,1-3.85,1.908l-.72-.984a17.749,17.749,0,0,0,7.652-5.157l1.079.768a21.779,21.779,0,0,1-2.89,2.6Z"/><path class="cls-8" d="M239.121,173.706a21.616,21.616,0,0,0-3.274-3.562,14.173,14.173,0,0,1-4.69,3.465l-.767-.959a12.158,12.158,0,0,0,6.632-6.74h-5.517v-1.128h6.308l.7.8a14.93,14.93,0,0,1-1.968,3.682,20.477,20.477,0,0,1,3.635,3.574Zm-.276-10.375a8.588,8.588,0,0,1,.971,2.087l-.8.3a9.521,9.521,0,0,0-.911-2.147Zm1.391-.479a7.985,7.985,0,0,1,1.044,2.05l-.8.3a7.462,7.462,0,0,0-.96-2.087Z"/><path class="cls-8" d="M244.9,167.241a23.113,23.113,0,0,1,4.833,2.135l-.552,1.115a25.248,25.248,0,0,0-4.281-2.051v5.289h-1.236V163.8H244.9Zm2.926-2.759a7.813,7.813,0,0,1,1.283,1.908l-.744.419a8.114,8.114,0,0,0-1.222-1.955Zm1.32-.671a7.544,7.544,0,0,1,1.306,1.895l-.731.4a8.492,8.492,0,0,0-1.247-1.907Z"/><path class="cls-8" d="M257.3,173.034c0,.851-.264,1.031-1.559,1.031-.276,0-.9-.024-1.3-.048a3.52,3.52,0,0,0-.323-1.055,11.066,11.066,0,0,0,1.487.12c.528,0,.612-.036.612-.276v-1.991H252.9a9.844,9.844,0,0,0-1.355.072v-1.1a9.683,9.683,0,0,0,1.344.071h3.334v-.131a5.552,5.552,0,0,0-.036-.648h.5a7.918,7.918,0,0,0,1.692-1.116H254.7a9.569,9.569,0,0,0-1.151.061v-1.008a10.12,10.12,0,0,0,1.176.06h4.029a5.087,5.087,0,0,0,.888-.048l.563.612-.2.168c-.024.024-.1.084-.216.179A14.55,14.55,0,0,1,257.3,169.7v.155h3.226a9.614,9.614,0,0,0,1.368-.071v1.1a9.467,9.467,0,0,0-1.368-.072H257.3Zm-3.6-7.82a7.787,7.787,0,0,0-.972-1.4l1-.3a9.853,9.853,0,0,1,1.115,1.7h1.438a7.561,7.561,0,0,0-.779-1.559l1.031-.288a10.469,10.469,0,0,1,.84,1.847h1.115a6.515,6.515,0,0,0,1.056-1.811l1.056.336a15.239,15.239,0,0,1-.972,1.475h.672c.695,0,.971-.012,1.415-.048a7.027,7.027,0,0,0-.048.972v1a6.643,6.643,0,0,0,.06.875h-1.08v-1.894h-7.9v1.894h-1.08a5.981,5.981,0,0,0,.061-.875v-1a7,7,0,0,0-.049-.972,10.708,10.708,0,0,0,1.38.048Z"/><path class="cls-8" d="M268.02,166.941a23.131,23.131,0,0,1-2.567,1.235,3.572,3.572,0,0,0-.5.228l-.36-1a13.584,13.584,0,0,0,3.383-1.379Zm.8,2.171c.2-.36.36-.66.468-.9a1.663,1.663,0,0,1-1.2.3c-.192,0-.623-.024-.851-.036a3.289,3.289,0,0,0-.252-.935,6.387,6.387,0,0,0,1.055.1c.4,0,.444-.036.444-.312V164.59h-2.758a6.539,6.539,0,0,0-1.091.06v-1.043a8.272,8.272,0,0,0,1.27.072h2.447a8,8,0,0,0,1.164-.048,8.494,8.494,0,0,0-.048,1.163v2.651a1.251,1.251,0,0,1-.12.683l1.043.192a8.981,8.981,0,0,1-.467.792h2.4a11.137,11.137,0,0,0,1.3-.048,11.231,11.231,0,0,0-.048,1.319v2.447a7.6,7.6,0,0,0,.073,1.295h-1.128v-.492h-5.481v.492h-1.115a6.7,6.7,0,0,0,.071-1.295V170.4a11.066,11.066,0,0,0-.048-1.331,11.994,11.994,0,0,0,1.3.048Zm-2.123-2.7a7.067,7.067,0,0,0-1.6-1.116l.672-.6a9.88,9.88,0,0,1,1.62,1.056Zm.336,4.461h5.493V170h-5.493Zm0,1.871h5.493v-1h-5.493Zm3.886-8.156a6.84,6.84,0,0,0-1.092.06v-1.043a8.868,8.868,0,0,0,1.272.072h2.434a7.5,7.5,0,0,0,1.115-.048,9.992,9.992,0,0,0-.047,1.175v2.675c0,.563-.048.707-.264.875a1.757,1.757,0,0,1-1.068.192c-.335,0-.659-.012-1.055-.048a2.777,2.777,0,0,0-.216-.971,6.792,6.792,0,0,0,1.092.108c.491,0,.515-.012.515-.312V164.59Zm2.219,2.375a20.665,20.665,0,0,1-2.363,1.043,4.271,4.271,0,0,0-.551.241l-.336-1.008a11.1,11.1,0,0,0,3.213-1.2Zm-1.392-.527a8.411,8.411,0,0,0-1.655-1.128l.635-.6a9.022,9.022,0,0,1,1.68,1.068Z"/><path class="cls-9" d="M162.154,187.007a2.639,2.639,0,1,1-2.638-2.639A2.639,2.639,0,0,1,162.154,187.007Z"/><path class="cls-8" d="M169.344,185.781a11.263,11.263,0,0,1-1.74,6.32,2.9,2.9,0,0,0-.863-.851A6.835,6.835,0,0,0,167.9,188.6a23.931,23.931,0,0,0,.4-5.037c0-.744-.024-1.259-.06-1.691a11.7,11.7,0,0,0,1.367.06h6.141a9.053,9.053,0,0,0,1.391-.072v1.175a9.824,9.824,0,0,0-1.391-.06H169.38v1.8H174.6a7.748,7.748,0,0,0,1.163-.06l.563.636c-.059.108-.084.156-.107.192a1.808,1.808,0,0,0-.072.18l-.108.252a10.84,10.84,0,0,1-2.219,3.37,10.633,10.633,0,0,0,3.718,1.631,5.382,5.382,0,0,0-.647,1.115,10.621,10.621,0,0,1-3.874-2,12.2,12.2,0,0,1-3.634,2.051,2.825,2.825,0,0,0-.685-1.007,11.005,11.005,0,0,0,3.515-1.763,8.294,8.294,0,0,1-2.171-3.586Zm1.787,0a6.821,6.821,0,0,0,1.87,2.9,8.124,8.124,0,0,0,1.943-2.9Z"/><path class="cls-8" d="M182.2,191.046a6.552,6.552,0,0,0,.084,1.043h-1.091a7.3,7.3,0,0,0,.072-1.079v-.816h-1.079a8.64,8.64,0,0,0-1.1.06v-1.031a6.068,6.068,0,0,0,1.056.06h1.127v-.84h-.6c-.54,0-.743.012-1.163.036a11.223,11.223,0,0,0,.048-1.259V185.3a10.165,10.165,0,0,0-.048-1.2,9.355,9.355,0,0,0,1.139.047h.624v-.827h-1.031a8.066,8.066,0,0,0-1.056.048v-1.007a6.447,6.447,0,0,0,1.1.059h.984v-.131a6.218,6.218,0,0,0-.072-.984h1.091a5.265,5.265,0,0,0-.084.984v.131h.948a6.29,6.29,0,0,0,1.091-.059v1.007a7.757,7.757,0,0,0-1.044-.048h-1v.827h.78a9.585,9.585,0,0,0,1-.035,10.949,10.949,0,0,0-.036,1.127v2.015c0,.6.011,1.007.036,1.223a9.969,9.969,0,0,0-1.044-.036H182.2v.84h.984a5.5,5.5,0,0,0,.971-.06v1.031a7.737,7.737,0,0,0-1.044-.06H182.2ZM180.4,185v.875h.888V185Zm0,1.643v.948h.888v-.948Zm2.7-.768V185h-.911v.875Zm0,1.716v-.948h-.911v.948Zm2.3-1.308a8.765,8.765,0,0,0-1.091.06v-1.1a6.15,6.15,0,0,0,1.116.072h3.225a6.072,6.072,0,0,0,1.1-.072v1.1a8.533,8.533,0,0,0-1.1-.06h-1.7a33.74,33.74,0,0,1-1.319,4.174c1.14-.144,1.775-.24,2.627-.419a21.392,21.392,0,0,0-1.043-2.375l.9-.372a29.1,29.1,0,0,1,1.739,4.233l-.959.492c-.277-.887-.277-.887-.348-1.127a37.694,37.694,0,0,1-3.946.719c-.4.06-.468.073-.671.12l-.229-1.115c.252,0,.432-.012.84-.048a26.072,26.072,0,0,0,1.32-4.282Zm-.671-4.1a4.895,4.895,0,0,0,1.091.071h2.435a4.905,4.905,0,0,0,1.092-.071v1.1h-.084l-.048-.012-.145-.012c-.12-.012-.491-.024-.815-.024h-2.435a8.034,8.034,0,0,0-1.091.06Z"/><path class="cls-8" d="M197.182,191.034c0,.851-.264,1.031-1.559,1.031-.276,0-.9-.024-1.3-.048a3.549,3.549,0,0,0-.323-1.055,11.054,11.054,0,0,0,1.487.12c.528,0,.612-.036.612-.276v-1.991H192.78a9.844,9.844,0,0,0-1.355.072v-1.1a9.683,9.683,0,0,0,1.344.071H196.1v-.131a5.335,5.335,0,0,0-.037-.648h.5a7.918,7.918,0,0,0,1.692-1.116h-3.683a9.569,9.569,0,0,0-1.151.061v-1.008a10.107,10.107,0,0,0,1.176.06h4.029a5.1,5.1,0,0,0,.888-.048l.563.612-.2.168c-.025.024-.1.084-.216.179a14.589,14.589,0,0,1-2.483,1.716v.155h3.226a9.588,9.588,0,0,0,1.367-.071v1.1a9.433,9.433,0,0,0-1.367-.072h-3.226Zm-3.6-7.82a7.787,7.787,0,0,0-.972-1.4l1-.3a9.852,9.852,0,0,1,1.116,1.7h1.439a7.618,7.618,0,0,0-.78-1.559l1.031-.288a10.469,10.469,0,0,1,.84,1.847h1.115a6.565,6.565,0,0,0,1.056-1.811l1.055.336a15.234,15.234,0,0,1-.971,1.475h.672c.695,0,.97-.012,1.415-.048a7.027,7.027,0,0,0-.048.972v1a6.823,6.823,0,0,0,.059.875h-1.079v-1.894h-7.9v1.894h-1.08a6,6,0,0,0,.06-.875v-1a7.217,7.217,0,0,0-.047-.972,10.683,10.683,0,0,0,1.379.048Z"/><path class="cls-8" d="M206.938,184.941a23.028,23.028,0,0,1-2.566,1.235,3.572,3.572,0,0,0-.5.228l-.36-1a13.584,13.584,0,0,0,3.383-1.379Zm.8,2.171c.2-.36.36-.66.468-.9a1.662,1.662,0,0,1-1.2.3c-.193,0-.624-.024-.852-.036a3.289,3.289,0,0,0-.252-.935,6.4,6.4,0,0,0,1.055.1c.4,0,.444-.036.444-.312V182.59h-2.759a6.553,6.553,0,0,0-1.091.06v-1.043a8.3,8.3,0,0,0,1.271.072h2.447a8,8,0,0,0,1.164-.048,8.494,8.494,0,0,0-.048,1.163v2.651a1.251,1.251,0,0,1-.12.683l1.043.192a8.981,8.981,0,0,1-.467.792h2.4a11.137,11.137,0,0,0,1.295-.048,11.231,11.231,0,0,0-.048,1.319v2.447a7.74,7.74,0,0,0,.072,1.295h-1.127v-.492h-5.481v.492H204.84a6.7,6.7,0,0,0,.071-1.295V188.4a11.066,11.066,0,0,0-.048-1.331,11.994,11.994,0,0,0,1.3.048Zm-2.123-2.7a7.067,7.067,0,0,0-1.6-1.116l.672-.6a9.87,9.87,0,0,1,1.619,1.056Zm.336,4.461h5.493V188h-5.493Zm0,1.871h5.493v-1h-5.493Zm3.886-8.156a6.84,6.84,0,0,0-1.092.06v-1.043a8.868,8.868,0,0,0,1.272.072h2.434a7.5,7.5,0,0,0,1.115-.048,9.732,9.732,0,0,0-.048,1.175v2.675c0,.563-.047.707-.263.875a1.757,1.757,0,0,1-1.068.192c-.336,0-.659-.012-1.055-.048a2.777,2.777,0,0,0-.216-.971,6.792,6.792,0,0,0,1.092.108c.491,0,.515-.012.515-.312V182.59Zm2.219,2.375a20.6,20.6,0,0,1-2.364,1.043,4.311,4.311,0,0,0-.55.241l-.336-1.008a11.1,11.1,0,0,0,3.213-1.2Zm-1.392-.527a8.44,8.44,0,0,0-1.655-1.128l.635-.6a9.055,9.055,0,0,1,1.68,1.068Z"/><path class="cls-8" d="M218.709,186.728a1.181,1.181,0,1,1-1.188-1.187A1.171,1.171,0,0,1,218.709,186.728Z"/><path class="cls-8" d="M229.088,183.49l.7.672c-.432,4.053-2.243,6.356-5.769,7.555l-.66-1.067c3.25-1.091,4.738-2.974,5.11-6.081H222.4V187.1H221.16v-3.61h3.49v-1.835H225.9v1.835Z"/><path class="cls-8" d="M234.851,190.266v-4.041h-2.867v-1.02h6.92v1.02H236v4.041h3.551v1.02h-8.18v-1.02Z"/><path class="cls-8" d="M243.275,189.115c0,.756.384,1.067,1.895,1.067a22.454,22.454,0,0,0,4.414-.395l.144,1.187a24.466,24.466,0,0,1-4.546.348c-2.338,0-3.119-.612-3.119-1.968V182.17h1.212v3.647a18.789,18.789,0,0,0,5.193-2.087l.624,1.079a22.617,22.617,0,0,1-5.817,2.087Zm5.661-7.568a7.887,7.887,0,0,1,1.295,1.919l-.744.408a8.682,8.682,0,0,0-1.222-1.943Zm1.332-.648a8.214,8.214,0,0,1,1.306,1.872l-.731.407a8.925,8.925,0,0,0-1.247-1.907Z"/><path class="cls-8" d="M255.683,181.871h1.235v3.01h3.994v1.1H256.9a5.946,5.946,0,0,1-3.6,5.685l-.78-1.007a4.834,4.834,0,0,0,3.154-4.678h-4.186v-1.1h4.2Z"/><path class="cls-8" d="M271.736,185.8v1.314h-9.583V185.8Z"/><path class="cls-9" d="M162.154,206a2.639,2.639,0,1,1-2.638-2.638A2.638,2.638,0,0,1,162.154,206Z"/><path class="cls-8" d="M173.757,204.331c-.312,3.274-1.751,5.36-4.449,6.6l-.768-.96a6.227,6.227,0,0,0,3.97-5.636h-3.082a10.991,10.991,0,0,1-1.86,2.11l-.9-.695a11.576,11.576,0,0,0,3.238-5.085l1.176.347a13.3,13.3,0,0,1-.983,2.243H176.7v1.08Zm1.068-3.814a9.172,9.172,0,0,1,1.055,2.05l-.8.325a9.011,9.011,0,0,0-.983-2.087Zm1.379-.528A8.246,8.246,0,0,1,177.319,202l-.779.324a7.892,7.892,0,0,0-1.044-2.039Z"/><path class="cls-8" d="M188.42,205.074v1.247h-9.583v-1.247Z"/><path class="cls-8" d="M191.316,207.569a33.092,33.092,0,0,1,7.256,1.919l-.384,1.175a38.945,38.945,0,0,0-7.292-1.955Zm.96-3.286a25.877,25.877,0,0,1,5.326,1.343l-.373,1.127a28.853,28.853,0,0,0-5.349-1.379Zm.06-3.143a29.568,29.568,0,0,1,6.009,1.284l-.372,1.139a32.078,32.078,0,0,0-6.08-1.343Z"/><path class="cls-8" d="M209.624,202.58a9.674,9.674,0,0,1-6.561,8.059l-.67-1.067a8.448,8.448,0,0,0,5.852-6.537h-7.053v-1.127h7.737Z"/><path class="cls-8" d="M216.813,210.879H215.65v-4.69a18.39,18.39,0,0,1-3.166,1.548l-.624-.9a14.761,14.761,0,0,0,6.417-4.317l.936.707a16.9,16.9,0,0,1-2.4,2.159Z"/><path class="cls-8" d="M228.033,204.21c-.311,3.275-1.751,5.362-4.449,6.6l-.768-.959a6.23,6.23,0,0,0,3.97-5.638H223.7a10.964,10.964,0,0,1-1.859,2.111l-.9-.695a11.6,11.6,0,0,0,3.239-5.085l1.175.348a13.324,13.324,0,0,1-.983,2.242h6.6v1.079Z"/><path class="cls-8" d="M242.371,205.074v1.247h-9.583v-1.247Z"/><path class="cls-8" d="M245.244,203.875a13.065,13.065,0,0,1,2.986,1.487l-.6,1.055a16.711,16.711,0,0,0-2.939-1.559Zm-.288,5.4c3.754-.564,6.44-2.231,8.036-5.733l1.031.779c-1.739,3.706-4.689,5.494-8.719,6.177Zm1.308-8.191a12.672,12.672,0,0,1,2.9,1.462l-.6,1.044a15.545,15.545,0,0,0-2.866-1.535Z"/><path class="cls-8" d="M256.992,207.053v-1.032h5.133v-1.846h-5.541v-1.02h6.656V210.9h-1.115v-.744h-5.613V209.14h5.613v-2.087Z"/><path class="cls-8" d="M267.252,201.608a13.455,13.455,0,0,1,2.843,2.3l-.911.959a16.589,16.589,0,0,0-2.711-2.434Zm-.564,7.58c3.718-.84,6.381-2.842,7.665-6.237l1.091.648c-1.391,3.706-4.425,5.889-8.359,6.74Z"/><path class="cls-8" d="M168.236,213.385h.06a1.916,1.916,0,0,1,.748.152c-.1.428-.21.857-.345,1.286.378-.034.748-.076,1.118-.126a2.046,2.046,0,0,1,.051.47c0,.093-.009.186-.017.27-.446.067-.916.117-1.4.159a20.2,20.2,0,0,1-1.589,3.515,1.759,1.759,0,0,1-.722-.412,15.853,15.853,0,0,0,1.462-3.044c-.446.025-.882.042-1.311.042a2.139,2.139,0,0,1-.034-.4,3.012,3.012,0,0,1,.025-.378h.387q.581,0,1.185-.025A15.262,15.262,0,0,0,168.236,213.385Zm4.91,5.877a1.44,1.44,0,0,1-.454.7,5.977,5.977,0,0,0-1.479-.908c.009.117.016.219.016.3,0,.9-.613,1.329-1.6,1.329-.933,0-1.58-.471-1.58-1.245,0-.647.631-1.328,1.773-1.328.177,0,.345.017.522.034-.059-.581-.1-1.245-.11-2.068a2.142,2.142,0,0,1,.405-.042,1.973,1.973,0,0,1,.394.042,18.95,18.95,0,0,0,.11,2.211A6.279,6.279,0,0,1,173.146,219.262Zm-3.3-.454c-.749,0-1.034.319-1.034.63s.268.513.815.513.832-.252.832-.722a2.857,2.857,0,0,0-.025-.354A2.96,2.96,0,0,0,169.843,218.808Zm3.4-3.153a2.029,2.029,0,0,1-.462.681,7.254,7.254,0,0,0-1.891-1.169,2.556,2.556,0,0,1,.377-.639A7.913,7.913,0,0,1,173.247,215.655Z"/><path class="cls-8" d="M180.882,215.344a1.581,1.581,0,0,1,.277.832,12.384,12.384,0,0,0-2.933,1.144c-.951.538-1.253,1.042-1.253,1.58s.42.883,1.7.883a12.485,12.485,0,0,0,2.716-.311,1.827,1.827,0,0,1,.134.723,1.175,1.175,0,0,1-.008.168,14.139,14.139,0,0,1-2.809.261c-1.833,0-2.606-.647-2.606-1.7a2.739,2.739,0,0,1,1.614-2.195,12.771,12.771,0,0,1-.7-2.883,1.694,1.694,0,0,1,.673-.135,1.424,1.424,0,0,1,.184.008,13.127,13.127,0,0,0,.571,2.6A15.82,15.82,0,0,1,180.882,215.344Zm-.438-1.984a6.36,6.36,0,0,1,.69,1.446l-.555.218a5.9,5.9,0,0,0-.664-1.479Zm.993-.319a5.591,5.591,0,0,1,.714,1.437l-.563.219a5.207,5.207,0,0,0-.655-1.463Z"/><line class="cls-10" x1="148.36" y1="160.673" x2="148.36" y2="230"/><g class="cls-11"><g class="cls-12"><path class="cls-6" d="M176.65,81.968H138.919a1.122,1.122,0,1,0,0,2.244H176.65a1.122,1.122,0,1,0,0-2.244"/><path class="cls-6" d="M176.65,87.965H138.919a1.122,1.122,0,1,0,0,2.244H176.65a1.122,1.122,0,1,0,0-2.244"/><path class="cls-6" d="M176.65,93.963H138.919a1.122,1.122,0,1,0,0,2.244H176.65a1.122,1.122,0,1,0,0-2.244"/><path class="cls-6" d="M176.65,99.961H138.919a1.122,1.122,0,1,0,0,2.244H176.65a1.122,1.122,0,1,0,0-2.244"/><path class="cls-6" d="M176.65,105.958H138.919a1.122,1.122,0,1,0,0,2.244H176.65a1.122,1.122,0,1,0,0-2.244"/><path class="cls-6" d="M184.607,73.727c-.013-.036-.023-.072-.039-.107a1.136,1.136,0,0,0-.22-.329L172.683,61.715a1.13,1.13,0,0,0-.332-.222c-.034-.014-.069-.024-.1-.037a1.119,1.119,0,0,0-.294-.058c-.023,0-.044-.014-.068-.014H132.022a1.127,1.127,0,0,0-1.13,1.122v61.622a1.126,1.126,0,0,0,1.13,1.122h51.526a1.128,1.128,0,0,0,1.132-1.122V74.084c0-.023-.013-.046-.015-.07a1.117,1.117,0,0,0-.058-.287m-11.592-8.512,7.806,7.749h-7.806Zm-39.863,57.791V63.629h37.6V74.084a1.126,1.126,0,0,0,1.13,1.122h10.534v47.8Z"/><path class="cls-6" d="M123.175,78.5a.414.414,0,0,0-.455.095L77.975,124.127a.415.415,0,0,0,.3.7h44.743a.415.415,0,0,0,.417-.414V78.88a.412.412,0,0,0-.259-.383M81.587,123.031l1.457-1.482,1.416,1.371a.413.413,0,0,0,.227.111Zm3.465-.119.683-.7a.414.414,0,0,0-.008-.585l-1.418-1.369,2.327-2.367,1.414,1.371a.424.424,0,0,0,.591-.008l.683-.7a.412.412,0,0,0-.007-.584L87.9,116.606l2.326-2.367,1.414,1.371a.42.42,0,0,0,.29.118.446.446,0,0,0,.3-.126l.683-.7a.41.41,0,0,0-.008-.585l-1.414-1.369,2.324-2.367,2.48,2.4a.432.432,0,0,0,.292.116.592.592,0,0,0,.3-.125l.683-.7a.412.412,0,0,0-.007-.586l-2.479-2.4,2.324-2.366,1.414,1.369a.424.424,0,0,0,.292.118.43.43,0,0,0,.3-.126l.683-.7a.416.416,0,0,0-.009-.586l-1.415-1.369L101,103.275l1.414,1.371a.423.423,0,0,0,.292.118.47.47,0,0,0,.3-.126l.681-.7a.412.412,0,0,0-.005-.586l-1.415-1.37,2.324-2.366,1.416,1.371a.421.421,0,0,0,.29.118h.007a.426.426,0,0,0,.294-.127l.681-.694a.411.411,0,0,0-.006-.586l-1.416-1.371,2.326-2.365,2.477,2.4c.077.077.165.162.3.118a.412.412,0,0,0,.294-.125l.684-.694a.414.414,0,0,0-.006-.587l-2.48-2.4,2.325-2.367,1.412,1.371a.423.423,0,0,0,.292.118h.007a.436.436,0,0,0,.293-.125l.682-.7a.415.415,0,0,0-.007-.586l-1.414-1.37,2.325-2.366,1.414,1.371a.42.42,0,0,0,.292.117.456.456,0,0,0,.3-.126l.683-.7a.413.413,0,0,0-.007-.584l-1.417-1.371L118.953,85l1.416,1.371a.425.425,0,0,0,.292.118.512.512,0,0,0,.3-.126l.664-.675v37.341H84.816a.414.414,0,0,0,.236-.119m35.167-39.2,1.4-1.428v2.786Z"/><path class="cls-6" d="M113.964,99.612l-.342-.239a.418.418,0,0,0-.539.051L97.865,114.907a.413.413,0,0,0-.008.57l.318.339a12.514,12.514,0,0,0,8.816,4.144A11.378,11.378,0,0,0,118.4,108.637a10.5,10.5,0,0,0-4.433-9.025m2.62,9.025a9.569,9.569,0,0,1-9.593,9.523,10.6,10.6,0,0,1-6.877-2.963l13.411-13.649a8.887,8.887,0,0,1,3.059,7.089"/><path class="cls-6" d="M204,65.523h-1.3V60.457a.207.207,0,0,0-.208-.206h-4.4a.207.207,0,0,0-.208.206v5.066h-1.3a.209.209,0,0,0-.208.207V91.988l0,.037v.022l1.778,26.628a.211.211,0,0,0,.21.193h1.029V124.6a.209.209,0,0,0,.21.207h1.383a.209.209,0,0,0,.209-.207v-5.734h1.031a.21.21,0,0,0,.21-.193l1.775-26.628v-.029a.151.151,0,0,0,0-.03V65.73a.209.209,0,0,0-.208-.207m-3.1,0h-1.219V62.036H200.9Zm-2.729,1.786h4.239V91.1h-4.239Zm4.179,25.572-1.615,24.2h-.886l-1.617-24.2Z"/><path class="cls-6" d="M207.8,62.947a.208.208,0,0,0-.149-.061h-4.337a.209.209,0,0,0-.21.207v1.372a.208.208,0,0,0,.21.207h2.739l-.1,27.313a.2.2,0,0,0,.208.208l1.385,0a.207.207,0,0,0,.207-.2l.1-28.9a.212.212,0,0,0-.059-.147"/></g></g></g></g></svg>