<svg xmlns="http://www.w3.org/2000/svg" width="361" height="79" viewBox="0 0 361 79"><defs><style>.cls-1{fill:#241916;}.cls-2{fill:#004d8d;}.cls-3{fill:#49413c;}</style></defs><g id="レイヤー_2" data-name="レイヤー 2"><g id="レイヤー_1-2" data-name="レイヤー 1"><path class="cls-1" d="M156.3,24.336a12.532,12.532,0,0,1,.671-2.03l2.289-5.371a18.407,18.407,0,0,0,.7-2.227c-.016.229-.061,1.008-.121,2.335v5.066a14.373,14.373,0,0,1-.122,2.227h2.135a13.2,13.2,0,0,1-.121-2.227V14.45a15.742,15.742,0,0,1,.121-2.258h-2.808a8.3,8.3,0,0,1-.548,1.814l-3.082,7.569-3.1-7.569a10.643,10.643,0,0,1-.566-1.814h-2.792a15.037,15.037,0,0,1,.123,2.258v7.659a14.241,14.241,0,0,1-.123,2.227H151.1a13.9,13.9,0,0,1-.121-2.227V17.1c0-.334-.063-1.586-.124-2.4a17.071,17.071,0,0,0,.779,2.335l2.2,5.234a10.412,10.412,0,0,1,.672,2.059Zm-17.529-1.8V13.992h2.442a3.43,3.43,0,0,1,2.747.914,4.549,4.549,0,0,1,1.053,3.266,4.838,4.838,0,0,1-1.115,3.387,3.354,3.354,0,0,1-2.7.976Zm-2.029-.168a12.34,12.34,0,0,1-.121,2.016c.626-.032,1.007-.047,1.937-.047h2.777a5.408,5.408,0,0,0,4-1.327,6.424,6.424,0,0,0,1.8-4.853,6.144,6.144,0,0,0-1.692-4.622,5.437,5.437,0,0,0-4.119-1.342h-2.763c-.961,0-1.327-.016-1.937-.047a12.744,12.744,0,0,1,.121,1.984Zm-8.4-3.416a2.293,2.293,0,0,1,2.289-2.076,2.18,2.18,0,0,1,1.648.61,2.4,2.4,0,0,1,.671,1.466Zm6.592,1.51c-.031-.352-.031-.4-.031-.428a6.254,6.254,0,0,0-.443-2.319,3.874,3.874,0,0,0-3.8-2.411c-2.61,0-4.3,1.847-4.3,4.669,0,2.853,1.709,4.653,4.409,4.653a4.327,4.327,0,0,0,3.143-1.174,4.275,4.275,0,0,0,.931-1.4l-1.8-.581a2.229,2.229,0,0,1-.442.794,2.565,2.565,0,0,1-3.738-.091,2.827,2.827,0,0,1-.565-1.709ZM117.011,17.9a4.978,4.978,0,0,0-1.405,3.142,2.552,2.552,0,0,0,.458,1.5c.673.9,1.892,1.327,3.784,1.327a18.75,18.75,0,0,0,3.159-.289,4.607,4.607,0,0,1,.626-.09l-.153-1.94a10.726,10.726,0,0,1-3.632.582c-1.587,0-2.426-.458-2.426-1.329a3.459,3.459,0,0,1,1.084-2.2Zm-1.053-2.518a18.087,18.087,0,0,0,2.746.168,27.12,27.12,0,0,0,3.265-.184c.732-.09.961-.121,1.084-.137l-.091-1.845a16.88,16.88,0,0,1-4.151.411,11.069,11.069,0,0,1-2.823-.243Zm-2.105,9.14c-.016-.2-.016-.321-.016-.413a12.527,12.527,0,0,1,1.358-4.622l-1.221-.55a15.552,15.552,0,0,0-.792,2.013c.015-.381.029-.5.029-.839a25.515,25.515,0,0,1,.229-3.371,20.9,20.9,0,0,1,.963-4.562l-2.016-.213a9.631,9.631,0,0,1-.229,1.419,29.309,29.309,0,0,0-.624,5.964,26.7,26.7,0,0,0,.395,4.563,6.96,6.96,0,0,1,.077.716Zm-7.78-10.62H99.191v-.839h6.882Zm1.692-1.037a9.446,9.446,0,0,1,.061-1.176,13.271,13.271,0,0,1-1.724.076H99.175a13.526,13.526,0,0,1-1.739-.076,7.494,7.494,0,0,1,.076,1.176v1.174c0,.413-.03.763-.061,1.145.458-.031.992-.047,1.679-.047h7.033c.671,0,1.191.016,1.647.047-.029-.352-.045-.687-.045-1.145Zm-9.2,7.9h8.116v.747H98.565Zm0-1.848h8.116v.7H98.565Zm0-1.845h8.116v.7H98.565Zm1.176,5.706a11.506,11.506,0,0,1-4.335,1.266,4.928,4.928,0,0,1,.932,1.511,18.114,18.114,0,0,0,2.334-.611,13.3,13.3,0,0,0,2.777-1.358l-.961-.808h4.15l-.824.748a11.486,11.486,0,0,0,5.1,2.044,5.1,5.1,0,0,1,.945-1.495,12.087,12.087,0,0,1-4.393-1.3h1.219c.763,0,1.237.016,1.71.061a2.611,2.611,0,0,1-.047-.611c0-.06-.013-.4-.013-.992V17.379a13.542,13.542,0,0,1,.06-1.634c-.534.047-.96.061-1.71.061H98.565a16.784,16.784,0,0,1-1.693-.061,15.339,15.339,0,0,1,.061,1.634v3.859c0,.763-.032,1.221-.061,1.6.487-.045.929-.061,1.693-.061Zm-14.68-2.518a15.86,15.86,0,0,1-1.634,3.052c-.777.045-1.235.061-1.342.061-.214,0-.474-.016-.885-.045l.245,1.861a17.887,17.887,0,0,1,1.966-.214c.611-.046,3.632-.32,5.143-.457.565-.061,1.479-.169,2.747-.337.258.366.411.579.914,1.329l1.465-.963a31.422,31.422,0,0,0-3.524-4.074l-1.51.673c.855.885,1.113,1.158,1.6,1.693-2.136.229-2.136.229-4.837.381A16.635,16.635,0,0,0,87,20.262h5.248a14.18,14.18,0,0,1,1.785.092V18.585a14.6,14.6,0,0,1-1.785.09H82.74a15.264,15.264,0,0,1-1.8-.09v1.769a14.309,14.309,0,0,1,1.8-.092Zm-.153-4.409c-.276,0-.368,0-.626-.016a13.043,13.043,0,0,0,3.174-2.96,12.414,12.414,0,0,0,3.188,2.96c-.29.016-.427.016-.672.016ZM83.58,17.5a12.432,12.432,0,0,1,1.313-.061h5.095a11.8,11.8,0,0,1,1.374.061v-1.19A16.2,16.2,0,0,0,93.97,17.7a6.834,6.834,0,0,1,.839-1.708,16.118,16.118,0,0,1-3.921-2.06A9.283,9.283,0,0,1,88.309,11.4H86.5a10.108,10.108,0,0,1-2.41,2.563,14.218,14.218,0,0,1-3.832,2.121,7.124,7.124,0,0,1,.887,1.556,14.658,14.658,0,0,0,2.44-1.311ZM66.929,22.367a16.221,16.221,0,0,0-.671-2.958l-1.189.365a15.335,15.335,0,0,1,.641,2.975Zm-.3-7.308a9.073,9.073,0,0,0,1.525-2.166,9.028,9.028,0,0,0,1.618,2.152c-.2.014-.29.014-.566.014H66.626Zm7.17,2.5v2.9a16.31,16.31,0,0,1-3.387,2.211v-.319c-.809.243-1.083.335-1.664.472V18.859h.611a6.258,6.258,0,0,1,1.19.076V17.622a11,11,0,0,1,1.358-.061Zm-6.514-1.129v1.024H66.5a13.149,13.149,0,0,1-1.511-.077v1.556a12.67,12.67,0,0,1,1.495-.076h.8V23.13a11.253,11.253,0,0,1-2.382.321l.229,1.679a8.909,8.909,0,0,1,1.206-.276,34.086,34.086,0,0,0,4.089-1.082v-.61l.489,1.082c.259-.182.259-.182.5-.351,1.037-.716,1.037-.716,1.3-.9a13.2,13.2,0,0,0,1.082-.855v1.45c0,.337-.106.4-.671.4a6.109,6.109,0,0,1-1.19-.152,4.419,4.419,0,0,1,.35,1.54c.595.047,1.008.062,1.342.062,1.237,0,1.679-.367,1.679-1.389V22.093q-.043-1.236-.092-1.694a8.557,8.557,0,0,0,1.161,2.365,9.3,9.3,0,0,0,1.861,1.969,6.446,6.446,0,0,1,.915-1.5,7.416,7.416,0,0,1-2.35-2.2,17.067,17.067,0,0,0,2.03-2.166L77.58,17.99A7.371,7.371,0,0,1,76.1,19.819a7.236,7.236,0,0,1-.734-2.258h2.045a13.192,13.192,0,0,1,1.45.077V16.127a9.45,9.45,0,0,1-1.466.092h-.09c.061-.792.137-2.137.182-2.929a13.408,13.408,0,0,1,.092-1.48,11.5,11.5,0,0,1-1.4.061H72.59a10.5,10.5,0,0,1-1.524-.076v1.463a12.2,12.2,0,0,1,1.448-.06h3.419c-.016.413-.016.458-.047.839H72.8a7.886,7.886,0,0,1-1.388-.076v1.45A10.408,10.408,0,0,1,72.8,15.35h3.021c-.016.258-.029.411-.061.869H71.9a9.834,9.834,0,0,1-1.464-.092v1.266a6.856,6.856,0,0,1-1.084.063h-.611V16.432h.445a5.232,5.232,0,0,1,.9.047V15.335l.121.1a5.536,5.536,0,0,1,.931-1.358,6.086,6.086,0,0,1-2.228-2.563H67.235a7.059,7.059,0,0,1-2.638,3.3,4.585,4.585,0,0,1,.7,1.448c.32-.258.412-.335.7-.595v.81a8.736,8.736,0,0,1,.9-.047Zm3.555,2.182a10.318,10.318,0,0,1,1.342,2.426l1.175-.778a9.93,9.93,0,0,0-1.327-2.272Zm-.871,3.54a13.723,13.723,0,0,0,.732-2.44l-1.158-.382a11.577,11.577,0,0,1-.611,2.487ZM53.171,19.209h6.286v1.237H53.171Zm2.03,4.334a12.39,12.39,0,0,0-.763-1.724h3.815a9.036,9.036,0,0,1-.779,1.724Zm-4.225,0a9.6,9.6,0,0,1-1.481-.076v1.647a11.479,11.479,0,0,1,1.587-.076H61.64a11.347,11.347,0,0,1,1.587.076V23.467a9.8,9.8,0,0,1-1.495.076h-2.61c.108-.152.458-.81.7-1.266l-1.266-.458h1.48a9.9,9.9,0,0,1,1.1.045,7.587,7.587,0,0,1-.06-1.113V18.814a6.814,6.814,0,0,1,.06-1.024,8.416,8.416,0,0,1-1.189.061h-7.2a9.25,9.25,0,0,1-1.2-.061,7.579,7.579,0,0,1,.06,1.037v1.924a8.913,8.913,0,0,1-.06,1.113,9.723,9.723,0,0,1,1.1-.045h1.634l-1.342.487a5.882,5.882,0,0,1,.624,1.237Zm3.8-7.811H54.24a12.218,12.218,0,0,0,2.1-2.4,13.329,13.329,0,0,0,2.106,2.4H54.774Zm6.819-2.474a8.366,8.366,0,0,1-1.51,1.8,10.486,10.486,0,0,1-.945-.762,16.8,16.8,0,0,0,1.571-1.755L59.443,11.7a8.257,8.257,0,0,1-1.282,1.647,3.764,3.764,0,0,1-1.021-1.724,8.657,8.657,0,0,1-1.313.061H52.958a6.97,6.97,0,0,1-1.266-.076v1.542a6.6,6.6,0,0,1,.932-.061h2.013a7.98,7.98,0,0,1-1.45,1.54,18.764,18.764,0,0,0-2.137-1.861l-1.127,1.006a12.858,12.858,0,0,1,2.043,1.786A13,13,0,0,1,49.1,17.074a4.757,4.757,0,0,1,.825,1.448,16.58,16.58,0,0,0,3.8-2.364v.992a5.615,5.615,0,0,1,.961-.062h3.372a5.715,5.715,0,0,1,1.023.062v-.9a14.719,14.719,0,0,0,3.692,2.211,5.018,5.018,0,0,1,.793-1.526,15.905,15.905,0,0,1-2.319-1.082,16.217,16.217,0,0,0,1.343-1.419,1.929,1.929,0,0,1,.275-.32Zm-20.4-1.142a6.673,6.673,0,0,1,.061,1.005v.458l-.076,8.606a6.85,6.85,0,0,1-.137,1.616l.976,1.038a6.819,6.819,0,0,1,.656-.274,10.061,10.061,0,0,0,3.25-1.832,9.468,9.468,0,0,0,2.426-3.553,6.4,6.4,0,0,1-1.434-1.435,7.473,7.473,0,0,1-1.495,2.793,6.18,6.18,0,0,1-2.335,1.739l.077-8.682a8.306,8.306,0,0,1,.105-1.45Zm-4.042.105a7.82,7.82,0,0,1,.06,1.39c0,4.271-.352,6.24-1.45,7.993a6.255,6.255,0,0,1-1.571,1.755,5.464,5.464,0,0,1,1.54,1.48,9.667,9.667,0,0,0,2.1-2.822,14.248,14.248,0,0,0,1.237-6.272,31.918,31.918,0,0,1,.153-3.416ZM20.378,19.362a16.584,16.584,0,0,1,2.487-.077h8.1a16.6,16.6,0,0,1,2.487.077V17.24a14.876,14.876,0,0,1-2.471.108H22.849a14.876,14.876,0,0,1-2.471-.108Zm-4.434-7.43a18.639,18.639,0,0,1-2.151,4.913c-.123-.076-.123-.076-1.267-.9-.748-.534-1.4-.963-2.517-1.618L8.667,15.669a27.392,27.392,0,0,1,4.042,2.747,15.418,15.418,0,0,1-1.937,2.075A15.5,15.5,0,0,1,6.82,23.13a4.728,4.728,0,0,1,1.342,1.587A19.314,19.314,0,0,0,11.794,22.2a17.589,17.589,0,0,0,2.381-2.55,22.718,22.718,0,0,1,3.1,3.221L18.736,21.3a36.333,36.333,0,0,0-3.4-3.237,25.455,25.455,0,0,0,2.153-4.316,9.489,9.489,0,0,1,.532-1.1Z"/><path class="cls-1" d="M210.921,43.291a12.8,12.8,0,0,1,2.881,2.867,3.564,3.564,0,0,0,.915-.914,13.775,13.775,0,0,0-2.937-2.757,4.273,4.273,0,0,0-.859.8M206.6,35.075V37.8c0,.652.25.791,1.428.791,1.538,0,1.689-.18,1.855-2.162a3.656,3.656,0,0,1-.886-.4,4.835,4.835,0,0,1-.194,1.5c-.068.152-.221.2-.665.2s-.568-.056-.568-.278V35.353a10.547,10.547,0,0,1,.055-1.233,8.931,8.931,0,0,1-1.148.055H204.7a8.993,8.993,0,0,1-1.067-.055,4.2,4.2,0,0,1,.071.816c0,1.871-.417,2.827-1.579,3.616a4.394,4.394,0,0,1,.829.665,3.554,3.554,0,0,0,1.082-1.26,5.782,5.782,0,0,0,.623-2.882Zm-7.675,7.551h2.024V44.51h-2.024Zm0,3.436v-.706h2.024v.526h.968a8.859,8.859,0,0,1-.055-1.1V42.792a10.252,10.252,0,0,1,.042-1.039,5.342,5.342,0,0,1-.969.041h-1.925a9.1,9.1,0,0,1-1.083-.054A6.494,6.494,0,0,1,198,42.847v1.884a9.15,9.15,0,0,1-.084,1.331Zm-.984-5.279a8.646,8.646,0,0,1,.943-.041h2.065a6.81,6.81,0,0,1,.941.041v-.942a7.893,7.893,0,0,1-.941.042H198.9a8.54,8.54,0,0,1-.957-.042Zm0-1.885a8.832,8.832,0,0,1,.957-.041h2.064a9.167,9.167,0,0,1,.928.041v-.941a7.9,7.9,0,0,1-.928.041H198.9a8.308,8.308,0,0,1-.957-.041Zm-.47-1.884a8.7,8.7,0,0,1,1.094-.055h2.744a6.121,6.121,0,0,1,1,.055V35.975a6.659,6.659,0,0,1-1.1.057h-2.646a5.6,5.6,0,0,1-1.094-.071Zm.456-1.939a8.126,8.126,0,0,1,1.067-.055h1.857a8.09,8.09,0,0,1,1.066.055v-1a5.726,5.726,0,0,1-1.066.07h-1.857a5.757,5.757,0,0,1-1.067-.07ZM207.6,40.4a7.838,7.838,0,0,1-1.661,2.384,6.56,6.56,0,0,1-1.678-2.384Zm.72-.957a5.045,5.045,0,0,1-1,.057h-3.853a4.7,4.7,0,0,1-.941-.07v1.039a6.349,6.349,0,0,1,.747-.069,8.518,8.518,0,0,0,1.939,3.02,10.535,10.535,0,0,1-3.283,1.676,2.84,2.84,0,0,1,.624.9,11.065,11.065,0,0,0,3.382-1.912,11.09,11.09,0,0,0,3.49,1.9,5.722,5.722,0,0,1,.54-1.025,9.709,9.709,0,0,1-3.3-1.566,10.943,10.943,0,0,0,1.953-2.867,2.63,2.63,0,0,1,.264-.512Zm-23.084-1.26a20.924,20.924,0,0,0,1.483-2.645,4.565,4.565,0,0,1,.3-.6l-.469-.622a5.512,5.512,0,0,1-1,.054h-1.317a4.854,4.854,0,0,1-.955-.068v1.039a4.825,4.825,0,0,1,.928-.07h1.551a22.72,22.72,0,0,1-2.146,3.839c.36-.03.818-.043,1.191-.043h1.206a9.772,9.772,0,0,1-.736,2.855,7.26,7.26,0,0,1-.789-1.955l-.943.417a13.8,13.8,0,0,1,.611,1.3,6.759,6.759,0,0,0,.651,1.15,8.217,8.217,0,0,1-1.911,2.272,3.081,3.081,0,0,1,.72.832,10.272,10.272,0,0,0,1.857-2.286c1.426,1.538,2.77,1.981,5.956,1.981,1.137,0,2.744-.028,3.824-.055a3.42,3.42,0,0,1,.319-1.094c-1.317.109-2.9.18-4.323.18a9.572,9.572,0,0,1-3.589-.526,4.685,4.685,0,0,1-1.745-1.317,12.91,12.91,0,0,0,1.066-3.879,6.143,6.143,0,0,1,.1-.8,7.856,7.856,0,0,1-1.039.041Zm6.095-1h2.147v1.053h-2.147Zm0-1.773h2.147v.971h-2.147Zm-.941.971h-2.2a5.753,5.753,0,0,1-1.247-.084v.957a7.1,7.1,0,0,1,1.233-.071h2.217v1.053h-1.7a6.259,6.259,0,0,1-.985-.055v.914a6.631,6.631,0,0,1,.944-.055h1.745v1.039h-1.759a8.846,8.846,0,0,1-1.123-.055v.928a8.808,8.808,0,0,1,1.123-.068h1.759v1.08h-2.1a7.178,7.178,0,0,1-1.206-.069v.969a7.2,7.2,0,0,1,1.192-.069h2.119v.249a7.608,7.608,0,0,1-.068,1.205h1.08a7,7,0,0,1-.071-1.219v-.235h2.73a9.894,9.894,0,0,1,1.246.055v-.955a9.281,9.281,0,0,1-1.246.069h-2.73v-1.08h2.149a9.669,9.669,0,0,1,1.191.054v-.914a9.925,9.925,0,0,1-1.178.055h-2.162V39.037h2.149c.346,0,.622.014.968.028a6.023,6.023,0,0,1-.041-.789v-1.1h.071a6.163,6.163,0,0,1,.982.057v-.943a4.868,4.868,0,0,1-.982.084H194.4v-.971a6.861,6.861,0,0,1,.041-.859,9.594,9.594,0,0,1-1.009.042h-2.108a4.617,4.617,0,0,1,.071-1h-1.08a5.028,5.028,0,0,1,.068,1h-1.649a5.372,5.372,0,0,1-1.026-.069v.941a6.976,6.976,0,0,1,.984-.055h1.691Zm-9.7-3.035L169.545,46.365h1.163l11.14-13.022Zm-18.066,5.432a8.51,8.51,0,0,1,1.234,1.732l.693-.542a12.541,12.541,0,0,0-1.276-1.662Zm-4.6-.665v1.661a13.978,13.978,0,0,1-2.258.376l.262.982c.319-.082.376-.1.873-.207a35.06,35.06,0,0,0,3.935-1.108l-.068-.79c-.846.277-1.151.36-1.789.526V38.11h.75a7.7,7.7,0,0,1,1.066.055v-.942a7.364,7.364,0,0,1-1.123.055H157.3a5.963,5.963,0,0,1-1.123-.068v.968a6.338,6.338,0,0,1,1.123-.068Zm6.013-2.495a8.623,8.623,0,0,1,.748,1.372l.873-.415a10.194,10.194,0,0,0-.609-.957H166.4a10.562,10.562,0,0,1,1.428.07V34.674a8.719,8.719,0,0,1-1.455.082H163.38c.111-.221.111-.221.458-.982l-1.012-.251a5.715,5.715,0,0,1-1.7,2.785,2.934,2.934,0,0,1,.761.6,7.863,7.863,0,0,0,1.011-1.289Zm-1.9,6.207a5.313,5.313,0,0,1,.055-.914h-.859c.886-.761,1.137-1.4,1.192-2.965h2.438v2.188c0,.679.248.832,1.3.832,1.413,0,1.565-.194,1.648-2.147a2.951,2.951,0,0,1-.873-.4,8.065,8.065,0,0,1-.1,1.509c-.041.139-.164.18-.595.18-.415,0-.458-.028-.458-.249v-1.5a10.863,10.863,0,0,1,.057-1.3,8.484,8.484,0,0,1-1.123.055h-2.174a10.425,10.425,0,0,1-1.082-.041,6.242,6.242,0,0,1,.043.8,2.56,2.56,0,0,1-1.7,2.814,2.39,2.39,0,0,1,.733.72c.208-.139.265-.18.458-.3.014.207.028.4.028.72h-3.81a10.9,10.9,0,0,1-1.538-.082v1.025a12.366,12.366,0,0,1,1.538-.084h3.09a13.256,13.256,0,0,1-5.043,2.176,3.059,3.059,0,0,1,.622.968,12.786,12.786,0,0,0,5.195-2.771c-.041.486-.054.736-.054,1v.734a7.908,7.908,0,0,1-.084,1.331h1.177a7.6,7.6,0,0,1-.082-1.331v-.734c0-.207-.013-.581-.043-1a11.909,11.909,0,0,0,5.321,2.828,3.935,3.935,0,0,1,.61-1.025,11.82,11.82,0,0,1-5.127-2.176h3.339a12.418,12.418,0,0,1,1.551.084V41.74a11.528,11.528,0,0,1-1.551.082Zm-3.477-6.193a9.5,9.5,0,0,1,.706,1.4l.914-.306c-.291-.512-.415-.72-.651-1.095h.845a8.9,8.9,0,0,1,1.178.056V34.674a6.813,6.813,0,0,1-1.344.082H158.28c.237-.4.306-.527.527-.941l-1.039-.265a6.306,6.306,0,0,1-2.174,2.967,2.854,2.854,0,0,1,.788.65,9.629,9.629,0,0,0,1.345-1.538ZM143.29,38.178a21.049,21.049,0,0,0,1.483-2.645,4.147,4.147,0,0,1,.305-.6l-.472-.622a5.5,5.5,0,0,1-1,.054h-1.315a4.863,4.863,0,0,1-.957-.068v1.039a4.814,4.814,0,0,1,.927-.07h1.552a22.733,22.733,0,0,1-2.147,3.839c.36-.03.818-.043,1.192-.043h1.205a9.81,9.81,0,0,1-.733,2.855,7.136,7.136,0,0,1-.791-1.955l-.941.417a13.343,13.343,0,0,1,.608,1.3,6.766,6.766,0,0,0,.652,1.15,8.2,8.2,0,0,1-1.912,2.272,3.064,3.064,0,0,1,.72.832,10.216,10.216,0,0,0,1.857-2.286c1.427,1.538,2.771,1.981,5.957,1.981,1.137,0,2.743-.028,3.823-.055a3.446,3.446,0,0,1,.319-1.094c-1.317.109-2.9.18-4.322.18a9.572,9.572,0,0,1-3.589-.526,4.693,4.693,0,0,1-1.745-1.317,12.852,12.852,0,0,0,1.066-3.879,6.143,6.143,0,0,1,.1-.8,7.846,7.846,0,0,1-1.039.041Zm6.1-1h2.147v1.053h-2.147Zm0-1.773h2.147v.971h-2.147Zm-.943.971h-2.2a5.742,5.742,0,0,1-1.246-.084v.957a7.092,7.092,0,0,1,1.233-.071h2.217v1.053h-1.7a6.217,6.217,0,0,1-.982-.055v.914a6.56,6.56,0,0,1,.941-.055h1.746v1.039h-1.759a8.873,8.873,0,0,1-1.124-.055v.928a8.825,8.825,0,0,1,1.124-.068h1.759v1.08h-2.106a7.172,7.172,0,0,1-1.2-.069v.969a7.186,7.186,0,0,1,1.191-.069h2.12v.249a7.476,7.476,0,0,1-.069,1.205h1.08a7.374,7.374,0,0,1-.068-1.219v-.235h2.728a9.94,9.94,0,0,1,1.248.055v-.955a9.315,9.315,0,0,1-1.248.069h-2.728v-1.08h2.147a9.689,9.689,0,0,1,1.191.054v-.914a9.936,9.936,0,0,1-1.178.055h-2.16V39.037h2.147c.346,0,.624.014.97.028a5.638,5.638,0,0,1-.043-.789v-1.1h.07a6.169,6.169,0,0,1,.983.057v-.943a4.872,4.872,0,0,1-.983.084h-.07v-.971a6.544,6.544,0,0,1,.043-.859,9.684,9.684,0,0,1-1.012.042h-2.1a4.858,4.858,0,0,1,.068-1h-1.08a4.941,4.941,0,0,1,.069,1H146.8a5.336,5.336,0,0,1-1.025-.069v.941a6.919,6.919,0,0,1,.982-.055h1.691ZM134.39,43.291a12.806,12.806,0,0,1,2.883,2.867,3.555,3.555,0,0,0,.913-.914,13.752,13.752,0,0,0-2.937-2.757,4.382,4.382,0,0,0-.859.8m-9.12-.25a5.737,5.737,0,0,1-2.286,2.105,3.571,3.571,0,0,1,.693.722,8.659,8.659,0,0,0,2.465-2.356Zm4.475.5a9.932,9.932,0,0,0,2.686,2.328,3.657,3.657,0,0,1,.625-.818A7.593,7.593,0,0,1,130.52,43Zm-9.185-7.148a11.326,11.326,0,0,1,.982,2.534l.8-.47a14.236,14.236,0,0,0-1.025-2.467Zm5.263,4.835h4.71v.859h-4.71Zm0-1.609h4.71v.832h-4.71Zm.666-.8a7.758,7.758,0,0,0,1.178-1.565h.8a7.464,7.464,0,0,0,1.289,1.565Zm4.96,1.26a10.83,10.83,0,0,0,1.427.72,3.459,3.459,0,0,1,.428-.9,7.922,7.922,0,0,1-1.994-.886,14.329,14.329,0,0,0,1.26-1.067l-.8-.512a4.652,4.652,0,0,1-1.107,1.121,5.051,5.051,0,0,1-1.233-1.3h2.133a8.393,8.393,0,0,1,1.317.068v-.968a11.7,11.7,0,0,1-1.358.068h-3.409l.112-.235c.054-.1.054-.1.207-.4l-1.025-.1a6.525,6.525,0,0,1-.263.734H125.1a9.033,9.033,0,0,1-1.219-.055v.942a8.552,8.552,0,0,1,1.192-.055h1.62a5.49,5.49,0,0,1-.984,1.191,12.159,12.159,0,0,0-1.135-.956l-.624.512a7.025,7.025,0,0,1,1.164.971,7.6,7.6,0,0,1-1.636.955c.057-.859.071-1.509.071-2.217V35.435h8.034a10.743,10.743,0,0,1,1.47.07V34.48a9.414,9.414,0,0,1-1.552.082h-3.45v-.139a3.17,3.17,0,0,1,.082-.859h-1.2a3.747,3.747,0,0,1,.07.859v.139h-2.923a13.548,13.548,0,0,1-1.579-.068c.055.54.068.984.068,3.739,0,.6,0,.9-.027,1.511a9.012,9.012,0,0,1-2.146.956l.359,1.026.29-.166c.417-.224,1.039-.584,1.442-.832a7.209,7.209,0,0,1-1.649,4.489,2.9,2.9,0,0,1,.8.733,7.584,7.584,0,0,0,1.274-2.41,12.124,12.124,0,0,0,.567-3.519,2.477,2.477,0,0,1,.444.721c.472-.265.652-.374.985-.595V41.7a9.309,9.309,0,0,1-.043,1.235,10.355,10.355,0,0,1,1.289-.057h1.44V44.8c0,.278-.082.333-.553.333a7.311,7.311,0,0,1-1.5-.167,2.78,2.78,0,0,1,.25,1,13.03,13.03,0,0,0,1.454.071c1.025,0,1.358-.237,1.358-.985V42.874h1.7a9.274,9.274,0,0,1,1.178.057,9.516,9.516,0,0,1-.041-1.248ZM118.791,44.4a9.346,9.346,0,0,1-1.372.084h-9.2V35.159h8.964a7.932,7.932,0,0,1,1.356.082V34.12a8.478,8.478,0,0,1-1.385.1h-8.6a10.246,10.246,0,0,1-1.442-.069,13.674,13.674,0,0,1,.057,1.413v8.978a12.183,12.183,0,0,1-.084,1.51h1.136v-.61h9.2a7.4,7.4,0,0,1,1.372.1Zm-1.677-4.088a9.039,9.039,0,0,1,1.344.071V39.315a6.669,6.669,0,0,1-1.317.082h-3.256A15.206,15.206,0,0,0,114,37.652h2.285a9.6,9.6,0,0,1,1.317.07V36.681a7.661,7.661,0,0,1-1.33.071h-4.71c.139-.264.193-.374.346-.679.084-.167.084-.167.194-.4l-1-.306A6.336,6.336,0,0,1,109,38.456a2.8,2.8,0,0,1,.832.609,9.957,9.957,0,0,0,1.178-1.413h1.98a12.836,12.836,0,0,1-.123,1.745h-2.468a9.329,9.329,0,0,1-1.426-.068v1.053a9.156,9.156,0,0,1,1.413-.071h2.272c-.484,1.317-1.7,2.2-3.754,2.771a3.036,3.036,0,0,1,.609.916,8.851,8.851,0,0,0,2.452-1.233,4.416,4.416,0,0,0,1.524-1.912,5.167,5.167,0,0,0,1.607,1.9,9.033,9.033,0,0,0,2.77,1.26,4.237,4.237,0,0,1,.542-1,7.558,7.558,0,0,1-2.59-.941,4.105,4.105,0,0,1-1.609-1.761Zm-17.261,2.98a12.8,12.8,0,0,1,2.881,2.867,3.564,3.564,0,0,0,.915-.914,13.8,13.8,0,0,0-2.937-2.757,4.273,4.273,0,0,0-.859.8m-4.58,1.828V35.865h3.616V34.7H90.383v1.164h3.6v9.254ZM88.59,43.9a12.616,12.616,0,0,1-2.009.18c-2.55,0-4.448-1.039-4.448-4.17a3.843,3.843,0,0,1,4.156-4.129,11.594,11.594,0,0,1,2.217.194v-1.2A11.528,11.528,0,0,0,86.4,34.6c-2.9,0-5.6,1.7-5.6,5.473,0,3.644,2.313,5.141,5.542,5.141a12.786,12.786,0,0,0,2.244-.18ZM77.98,34.7H76.693V45.119H77.98Zm-9.206,8.59a12.781,12.781,0,0,1,2.882,2.867,3.56,3.56,0,0,0,.914-.914,13.752,13.752,0,0,0-2.937-2.757,4.327,4.327,0,0,0-.859.8M55.241,40.117a5.073,5.073,0,0,1,.969-.068h.859v3.186a9.194,9.194,0,0,1-2.12,1.551l.513,1.082c.18-.166.333-.291.472-.4a12.384,12.384,0,0,0,1.606-1.371A3.115,3.115,0,0,0,58.9,45.3c.818.389,1.579.471,3.99.471,1.552,0,3.145-.027,4.544-.1a3.7,3.7,0,0,1,.346-1.149,43.9,43.9,0,0,1-5.569.262,7.5,7.5,0,0,1-2.978-.374,2.03,2.03,0,0,1-1.151-1.148V40.507a10.237,10.237,0,0,1,.069-1.442,6.118,6.118,0,0,1-1.053.07h-.789a5.638,5.638,0,0,1-1.066-.07Zm.194-5.484a13.086,13.086,0,0,1,2.187,2.506l.832-.747A17.327,17.327,0,0,0,56.2,33.967Zm5.375,6.33H65.3v1.773H60.81Zm4.142,2.688a12.9,12.9,0,0,1,1.386.055,12.257,12.257,0,0,1-.041-1.3v-1.1a9.132,9.132,0,0,1,.054-1.329,13.729,13.729,0,0,1-1.426.055h-3.7a13.924,13.924,0,0,1-1.454-.055,7.788,7.788,0,0,1,.055,1.219v1.19a8.963,8.963,0,0,1-.041,1.317,11.33,11.33,0,0,1,1.316-.055Zm-2.4-7.232V38.1H59.992a6.829,6.829,0,0,1-1.233-.07v1.025c.36-.027.775-.055,1.192-.055h6.054a12.259,12.259,0,0,1,1.247.069V38.026a6.917,6.917,0,0,1-1.247.07H63.526V36.419h1.912a11.222,11.222,0,0,1,1.3.055V35.449a7.573,7.573,0,0,1-1.331.084H63.526v-.445a7.348,7.348,0,0,1,.082-1.358H62.471a6.479,6.479,0,0,1,.084,1.358v.445h-1.62c.333-.748.346-.8.4-.914l.055-.139a2.344,2.344,0,0,1,.125-.251l-1.039-.289a2.691,2.691,0,0,1-.194.679,7.428,7.428,0,0,1-1.537,2.534,3.1,3.1,0,0,1,.859.554,8.111,8.111,0,0,0,.886-1.288ZM52.141,35.034a7.237,7.237,0,0,1,.071-1.206H51.075a7.283,7.283,0,0,1,.082,1.178v4.1c0,.346-.055.373-.567.373a9.724,9.724,0,0,1-1.468-.139,3.421,3.421,0,0,1,.262.955c.431.03.93.057,1.3.057,1.134,0,1.453-.25,1.453-1.137Zm-2.686,3.671a6.177,6.177,0,0,1-.057-.942V35.407a5.569,5.569,0,0,1,.057-.984h-1.1a6.513,6.513,0,0,1,.07.984v2.37a6.128,6.128,0,0,1-.07.928Zm-5.487-3.284v.818h-1.9a7.243,7.243,0,0,1-1.012-.055v.873a8.813,8.813,0,0,1,1.137-.07h1.773v.763h-1.4a9.527,9.527,0,0,1-1.012-.043,8.057,8.057,0,0,1,.041.831v.957a5.993,5.993,0,0,1-.054.873h1.011a4.465,4.465,0,0,1-.041-.832V38.5h1.454v1.067a7.538,7.538,0,0,1-.055,1.039h1c-.027-.333-.041-.623-.041-1.039V38.5h1.593v.8c0,.208-.069.263-.262.263a5.7,5.7,0,0,1-.846-.1,2.974,2.974,0,0,1,.153.747c.513.028.595.028.8.028.736,0,.985-.208.985-.8V38.372a5.057,5.057,0,0,1,.027-.665,9.139,9.139,0,0,1-1.108.043H44.868v-.763h1.691a9.6,9.6,0,0,1,1.219.056v-.872a7.215,7.215,0,0,1-1.26.068h-1.65v-.818h1.47a8.953,8.953,0,0,1,1.191.057V34.6a6.675,6.675,0,0,1-1.191.071h-1.47a6.216,6.216,0,0,1,.055-1H43.9a4.885,4.885,0,0,1,.069,1H42.722a7.027,7.027,0,0,0,.319-.693l-.93-.235a4.608,4.608,0,0,1-1.2,1.939,3.234,3.234,0,0,1,.79.513,5.192,5.192,0,0,0,.595-.777Zm2.869,6.553a5.413,5.413,0,0,0,1.7,2.065,11.8,11.8,0,0,0,4.047,1.966,3.168,3.168,0,0,1,.553-.955,12.006,12.006,0,0,1-3.256-1.178A8.658,8.658,0,0,0,51.7,42.626l-.859-.54a6.308,6.308,0,0,1-1.7,1.315,4.331,4.331,0,0,1-1.317-1.427h3.7a9.484,9.484,0,0,1,1.468.069v-.982a10.929,10.929,0,0,1-1.5.068H47.57v-.11a3.234,3.234,0,0,1,.055-.637h-1.08a4.871,4.871,0,0,1,.041.637v.11H42.305a10.9,10.9,0,0,1-1.481-.068v.982a9.142,9.142,0,0,1,1.453-.069h3.145a10.972,10.972,0,0,1-4.737,1.885,2.54,2.54,0,0,1,.526.859,14.091,14.091,0,0,0,3.158-1.165v1.331a11.372,11.372,0,0,1-1.939.207l.221.985c.278-.057.374-.071.665-.112,2.343-.387,3.311-.581,4.933-.984v-.886a24.194,24.194,0,0,1-2.882.624V42.986a8.078,8.078,0,0,0,1.3-1.012ZM34,43.291a12.847,12.847,0,0,1,2.883,2.867,3.555,3.555,0,0,0,.913-.914,13.8,13.8,0,0,0-2.937-2.757,4.273,4.273,0,0,0-.859.8M22.9,42.765h7.439v1.786H22.9Zm1.039-4.516H29.31v1.524H23.935Zm1.9,2.367a10.352,10.352,0,0,1-.6,1.247H23.1a10.686,10.686,0,0,1-1.288-.055,8.314,8.314,0,0,1,.069,1.274V44.7a9.878,9.878,0,0,1-.084,1.315h1.1v-.54h7.426v.556h1.093a9.226,9.226,0,0,1-.068-1.317V43.1a10.4,10.4,0,0,1,.055-1.29,10.675,10.675,0,0,1-1.288.055h-3.8c.166-.3.415-.83.595-1.247h2a13.519,13.519,0,0,1,1.454.057,5.645,5.645,0,0,1-.055-1.123V38.372a6.257,6.257,0,0,1,.055-1.039,10.235,10.235,0,0,1-1.233.057H24.115a10.474,10.474,0,0,1-1.247-.057,6.425,6.425,0,0,1,.069,1.025V39.55a6.235,6.235,0,0,1-.069,1.123,11.512,11.512,0,0,1,1.454-.057ZM22.41,35.505a14.311,14.311,0,0,1-1.483-.056,10.791,10.791,0,0,1,.057,1.178v1.095a7.411,7.411,0,0,1-.071,1H22V36.392h9.281v2.34h1.067a7.892,7.892,0,0,1-.055-1.01V36.613c0-.527.014-.818.041-1.164a13.461,13.461,0,0,1-1.467.056H29.836a16.5,16.5,0,0,0,1.039-1.579l-1.08-.319a9.762,9.762,0,0,1-1.109,1.9h-1.3a15.013,15.013,0,0,0-.929-1.9l-1.039.208a9.239,9.239,0,0,1,.873,1.69H24.572a9.48,9.48,0,0,0-1.095-1.731l-1.012.248a8.272,8.272,0,0,1,.984,1.483Zm-12.087,5.8a13.284,13.284,0,0,1,.513,2.91l.859-.278a16.258,16.258,0,0,0-.624-2.88Zm-3.062-.153A10.75,10.75,0,0,1,6.6,44.87l.9.4a18.382,18.382,0,0,0,.651-3.935Zm9.533-5.915a8.233,8.233,0,0,1-1.774,2.051,6.1,6.1,0,0,1-1.675-2.051Zm.8-.968a6.367,6.367,0,0,1-1.053.054H12.789a7.864,7.864,0,0,1-1.372-.07v1.055a5.839,5.839,0,0,1,.916-.071,8.15,8.15,0,0,0,1.939,2.618,9.825,9.825,0,0,1-2.591,1.249,3.182,3.182,0,0,1,.54.927A12.616,12.616,0,0,0,15.033,38.5a12.028,12.028,0,0,0,3.423,1.7,3.36,3.36,0,0,1,.5-1.026,10.053,10.053,0,0,1-3.145-1.317,10.385,10.385,0,0,0,1.677-1.925c.456-.693.456-.693.707-1.067ZM15.45,41.35v-.442a8.3,8.3,0,0,1,.069-1.372H14.384a6.556,6.556,0,0,1,.082,1.386v.428H13.345a7.815,7.815,0,0,1-1.29-.068v1.039a11.787,11.787,0,0,1,1.29-.055h1.121v2.326H12.623a8.522,8.522,0,0,1-1.288-.068V45.59a10,10,0,0,1,1.385-.082h4.71a9.773,9.773,0,0,1,1.372.082V44.524a8.332,8.332,0,0,1-1.372.068H15.45V42.266H16.9a11.539,11.539,0,0,1,1.276.055V41.268a6.468,6.468,0,0,1-1.276.082Zm-8.784-.775a2.681,2.681,0,0,1,.513-.068c.859-.057.859-.057,1.62-.125V44.69a9.886,9.886,0,0,1-.082,1.386H9.838A9.536,9.536,0,0,1,9.756,44.7V40.3c.5-.054.665-.068,1.151-.137.1.29.123.415.221.789l.774-.374a16.97,16.97,0,0,0-1.107-2.7l-.693.333a9.705,9.705,0,0,1,.513,1.15c-.611.082-1.039.125-1.953.18.568-.72,1.356-1.829,1.8-2.549.707-1.108.707-1.108.846-1.288l-.9-.513a7.876,7.876,0,0,1-.791,1.525c-.4.608-.4.608-.568.886-.457-.54-.457-.54-.749-.873a14.809,14.809,0,0,0,1.29-2.23c.125-.251.193-.347.275-.5l-.982-.4a10.031,10.031,0,0,1-1.191,2.479c-.278-.278-.306-.306-.625-.611l-.553.777a15.327,15.327,0,0,1,2,2.16c-.332.472-.375.542-.886,1.178H7.11a3.906,3.906,0,0,1-.6-.027Z"/><path class="cls-1" d="M241.875,63.175c4.53-.985,8.036-3.464,9.643-7.786l-1.08-.638c-1.511,4.072-4.7,6.387-8.923,7.314Zm-.638-9.158a18.541,18.541,0,0,1,3.133,2.812l.9-.943a18.056,18.056,0,0,0-3.283-2.659Zm-12.392,4.446h11.028V57.244H228.845Zm-3.618-4.473a.914.914,0,1,1,0,1.827.914.914,0,0,1,0-1.827m0-.722a1.635,1.635,0,0,0,0,3.269,1.635,1.635,0,1,0,0-3.269m-9.033,6.471a35.3,35.3,0,0,0,3.368-3.63l.276-.18.305.18a53.436,53.436,0,0,0,6.289,5.929l.846-1.121a45.355,45.355,0,0,1-6.442-5.653,1.4,1.4,0,0,0-1.039-.541,1.337,1.337,0,0,0-1.053.609,28.475,28.475,0,0,1-3.3,3.491Zm-11.965,3.436c4.532-.985,8.036-3.464,9.643-7.786l-1.08-.638c-1.511,4.072-4.7,6.387-8.923,7.314Zm-.636-9.158a18.533,18.533,0,0,1,3.131,2.812l.9-.943a18.062,18.062,0,0,0-3.284-2.659Zm-7.888,3.726,4.213-.623a6.7,6.7,0,0,1-2.078,2.493l.747.721a9.756,9.756,0,0,0,2.826-3.7l-.554-.624-5.334.763L195,54.058l-1.067.208.527,2.659-2.591.362.125,1,2.646-.388,1.191,6.027,1.039-.18Zm-11.975-2.91-.47-2.826-1.109.153.471,2.812-4.031.513.124,1.066,4.087-.513.4,2.482-4.9.649.152,1.069,4.931-.652.722,4.323,1.108-.153-.72-4.309,4.7-.624-.166-1.067-4.71.625-.4-2.48,4.2-.526-.153-1.082Zm-11.011-1.094a3.506,3.506,0,0,0-.54.9,10.61,10.61,0,0,1,3.076,1.9,3,3,0,0,0,.679-.968,12.961,12.961,0,0,0-3.215-1.83m-1.247,7.093a4.714,4.714,0,0,1,.042.582c0,.859-.47,1.3-1.509,1.3-.873,0-1.415-.346-1.415-.9,0-.527.485-1.11,1.816-1.11a5.6,5.6,0,0,1,1.066.125m.985-.8a33.942,33.942,0,0,1-.18-3.823,2.457,2.457,0,0,0-.554-.055,2.658,2.658,0,0,0-.569.055c.013,1.413.1,2.6.207,3.616a8.543,8.543,0,0,0-1.01-.069c-1.774,0-2.814,1.039-2.814,2.065,0,1.191,1,1.925,2.5,1.925,1.552,0,2.577-.665,2.577-2.119,0-.139-.013-.3-.029-.513a9.542,9.542,0,0,1,2.536,1.482,1.917,1.917,0,0,0,.665-1.012,10.248,10.248,0,0,0-3.324-1.552m-5.209-5.678c-.665.027-1.331.041-1.982.041h-.636l-.03.471a3.085,3.085,0,0,0,.057.636q1.1-.02,2.244-.082a25,25,0,0,1-2.494,5.111,2.822,2.822,0,0,0,1.011.611,33.209,33.209,0,0,0,2.675-5.806c.775-.068,1.552-.153,2.286-.248l.027-.388a2.568,2.568,0,0,0-.084-.665c-.609.1-1.233.166-1.882.221.234-.72.428-1.44.594-2.176a2.979,2.979,0,0,0-1.136-.221,23.291,23.291,0,0,1-.65,2.5m-7.563,5.443a15.362,15.362,0,0,0-2.078-3.365l-.832.483a12.832,12.832,0,0,1,1.967,3.436Zm-7.925-1.344h2.452v3.117H151.76Zm0-3.753h2.452v2.839H151.76Zm3.436.235c0-.485.014-.859.041-1.192-.111.014-.5.028-1.178.041h-.845c.291-.692.444-1.08.693-1.841l-1.135-.194a9.1,9.1,0,0,1-.583,2.035h-.263c-.583,0-.943-.013-1.219-.041a10.2,10.2,0,0,1,.055,1.317V62a12.393,12.393,0,0,1-.068,1.675h1.08v-1.19h2.438v.859h1.039c-.027-.346-.055-.818-.055-1.385V56.344a2.976,2.976,0,0,1,.734.8,12.1,12.1,0,0,0,1.538-2.425h3.7c-.027,2.037-.041,3.006-.109,4.116a15.411,15.411,0,0,1-.458,3.42c-.167.5-.3.6-.928.6a10.42,10.42,0,0,1-1.816-.223,3.956,3.956,0,0,1,.265,1.137c.816.068,1.162.084,1.647.084,1.025,0,1.483-.292,1.759-1.123.417-1.233.583-3.215.679-8.119.014-.54.028-.652.055-.928a8.038,8.038,0,0,1-1.176.055H157.91c.166-.428.347-.914.472-1.274a5.51,5.51,0,0,1,.193-.555l-1.107-.208a8.48,8.48,0,0,1-.624,2.01A8.727,8.727,0,0,1,155.2,56.33Zm-13.23-2.618a10.155,10.155,0,0,1-.79,2.716l.679.346a12.822,12.822,0,0,0,.8-2.231c.027-.1.082-.291.137-.512Zm-4.115.4a10.665,10.665,0,0,1,.873,2.7l.775-.332a17.95,17.95,0,0,0-.859-2.716Zm2.979,3.1V53.005a6.4,6.4,0,0,1,.068-1.219h-1.039a6.3,6.3,0,0,1,.07,1.206v2.825h-1.136a6.08,6.08,0,0,1-.914-.054v1.011a5.353,5.353,0,0,1,.872-.057h.873a8.283,8.283,0,0,1-.442,1.039,7.431,7.431,0,0,1-1.595,2.079,3.4,3.4,0,0,1,.638.776A8.088,8.088,0,0,0,140,57.633c-.028.415-.055.969-.055,1.356v1.276a5.562,5.562,0,0,1-.068,1.066h1.009a6.361,6.361,0,0,1-.054-1.052V58.934c0-.346-.014-.831-.055-1.316a7.585,7.585,0,0,0,1.538,2.4,3.116,3.116,0,0,1,.526-.83,7.525,7.525,0,0,1-1.829-2.468h.818a5.447,5.447,0,0,1,.954.071V55.763a4.925,4.925,0,0,1-.9.054Zm3.575-.082V53.78a14.419,14.419,0,0,0,3.477-1.052l.262-.11.25-.1-.818-.9a9.331,9.331,0,0,1-4.224,1.344,10.66,10.66,0,0,1,.082,1.482c0,4.794-.292,6.637-1.288,8.243V61.65a8.674,8.674,0,0,1-1.33.069H137.56V53.24a5.685,5.685,0,0,1,.084-1.135h-1.151a9.539,9.539,0,0,1,.083,1.329v8.909a10.719,10.719,0,0,1-.083,1.413h1.067V62.648H140.8a10.755,10.755,0,0,1,1.331.055,5.074,5.074,0,0,1-.5.665,3.714,3.714,0,0,1,.886.693,8.089,8.089,0,0,0,1.538-3.7,23.433,23.433,0,0,0,.333-3.657h1.759v5.86a9.157,9.157,0,0,1-.084,1.454h1.178a9.376,9.376,0,0,1-.082-1.44V56.7h.332a6.253,6.253,0,0,1,1.149.07V55.651a7.438,7.438,0,0,1-1.219.084Zm-15.987,5.943a3.616,3.616,0,0,1-1.247.941,6.622,6.622,0,0,1-1.829.624,4.4,4.4,0,0,1,.595.887,6.456,6.456,0,0,0,3.173-1.787Zm2.272.638a8.689,8.689,0,0,0,3.117,1.868,4.816,4.816,0,0,1,.567-.927,6.881,6.881,0,0,1-3.019-1.565Zm-.36-4.628h2.312v1.08H130.33Zm0,1.884h2.312V60.75H130.33Zm-.9,1.178h-2.078V59.572h2.078Zm0-1.982h-2.078v-1.08h2.078Zm1.593-3.671H128.9V53.851h2.119Zm-5.265.914a11.88,11.88,0,0,1,1.344-.055h2.328v.9h-2.05a9.508,9.508,0,0,1-1.012-.041c.027.276.041.623.041.984v2.84c0,.4-.014.679-.041.97a9.711,9.711,0,0,1,1.012-.043h5.236a9.738,9.738,0,0,1,1.012.043,10.265,10.265,0,0,1-.041-1.054V57.813a9.394,9.394,0,0,1,.041-1,9.534,9.534,0,0,1-1.012.041H130.33v-.9h2.686a10.69,10.69,0,0,1,1.344.069v-1a10.843,10.843,0,0,1-1.385.068h-1.012V53.851h.75a11.112,11.112,0,0,1,1.315.055v-.971a12.182,12.182,0,0,1-1.345.07h-.72v-.236a4.768,4.768,0,0,1,.071-1.01h-1.069a6.771,6.771,0,0,1,.057,1.01v.236H128.9v-.25a6.641,6.641,0,0,1,.055-1h-1.067a4.941,4.941,0,0,1,.069,1v.25h-.554a11.3,11.3,0,0,1-1.317-.07v.971a10.865,10.865,0,0,1,1.317-.055h.554V55.1h-.873c-.485,0-.761-.013-1.192-.041v-.818a4.719,4.719,0,0,1-.845.055h-.428v-1.2a9.137,9.137,0,0,1,.068-1.4h-1.121a8.38,8.38,0,0,1,.068,1.412v1.192h-.608a5.307,5.307,0,0,1-.93-.055V55.25a5.578,5.578,0,0,1,.93-.057h.5a10.274,10.274,0,0,1-1.828,4.2,3.417,3.417,0,0,1,.609.914,9.931,9.931,0,0,0,1.415-3.381c-.057,1.344-.085,2.064-.085,2.189v3.437a12,12,0,0,1-.082,1.606H124.7a11.718,11.718,0,0,1-.082-1.606V58.672c-.028-1.1-.041-1.677-.057-1.732,0-.1,0-.25-.014-.444a7.486,7.486,0,0,0,1.012,1.926,4.908,4.908,0,0,1,.569-.8,6.269,6.269,0,0,1-1.456-2.425h.388c.223,0,.4.016.693.029Zm-6.317-3.685a6.219,6.219,0,0,1-1.053.055h-2.424a7.653,7.653,0,0,1-1.247-.068v1.08a7.416,7.416,0,0,1,1.192-.069h2.659a11.635,11.635,0,0,1-1.481,1.538,15.278,15.278,0,0,0-1.4-.943l-.61.666a13.092,13.092,0,0,1,2.6,1.993H115.63a7.015,7.015,0,0,1-1.191-.068V57.6a6.983,6.983,0,0,1,1.191-.069h.985v5.1c0,.264-.1.332-.5.332a9.483,9.483,0,0,1-1.511-.166,3.749,3.749,0,0,1,.237,1.055,11.549,11.549,0,0,0,1.246.068c1.164,0,1.525-.264,1.525-1.094V57.535h1.718a7.623,7.623,0,0,1-1.429,1.871,3.491,3.491,0,0,1,.791.54,13.438,13.438,0,0,0,1.843-2.771l-.526-.651a6.192,6.192,0,0,1-1.04.054h-1.025l.554-.567c-.36-.3-.458-.387-.72-.6a13.246,13.246,0,0,0,1.62-1.69c.458-.568.458-.568.611-.748Zm-7.647,3.243h1.454V57.12h-1.454Zm-.927,1.551H109.48V55.569h1.386Zm.927-3.852h1.454v1.454h-1.454Zm-.927,1.455H109.48V53.27h1.386Zm0,3.257v1.4h-1.3a7.13,7.13,0,0,1-1.2-.071v1.039a7.7,7.7,0,0,1,1.2-.068h1.3v1.759a17.765,17.765,0,0,1-2.814.278l.237,1.135c.373-.083.526-.126,1.08-.208,1.8-.278,3.035-.512,5.029-.984l-.014-.886c-1.192.277-1.691.373-2.591.526v-1.62h1.331a7.319,7.319,0,0,1,1.191.068V59.308a7.153,7.153,0,0,1-1.191.071h-1.331v-1.4H113c.513,0,.914.013,1.165.041a12.272,12.272,0,0,1-.041-1.247V53.587c0-.568.013-.969.041-1.261a8.989,8.989,0,0,1-1.233.055h-3.117a12.262,12.262,0,0,1-1.276-.055,10.158,10.158,0,0,1,.057,1.247v3.144a11.053,11.053,0,0,1-.057,1.3c.278-.028.706-.041,1.219-.041Zm-9.947-5.724c.083.139.194.348.3.556A13.683,13.683,0,0,0,105.7,58.13a4.031,4.031,0,0,1,.763-1.01,11.059,11.059,0,0,1-3.949-4.142A5.735,5.735,0,0,1,102,51.827ZM97.871,51.8a4.981,4.981,0,0,1-.554,1.413,11,11,0,0,1-3.687,3.949,3.76,3.76,0,0,1,.777.9,13.647,13.647,0,0,0,4.282-5.154,4.586,4.586,0,0,1,.373-.693Zm.553,5.735a6.025,6.025,0,0,1-.72,2.689,6.629,6.629,0,0,1-3.381,2.894,3.323,3.323,0,0,1,.708.929,7.382,7.382,0,0,0,4.307-5.154,9.581,9.581,0,0,0,.2-1.358h2.992a23.625,23.625,0,0,1-.3,4.35c-.153.707-.235.791-.832.791a11.745,11.745,0,0,1-1.841-.194,4.5,4.5,0,0,1,.276,1.135c.8.055,1.262.084,1.663.084.914,0,1.274-.153,1.524-.61.36-.666.595-2.812.609-5.6a5.373,5.373,0,0,1,.041-1,10.229,10.229,0,0,1-1.427.069H97.607a12.2,12.2,0,0,1-1.329-.069V57.6a12.382,12.382,0,0,1,1.329-.069ZM87.073,61.318a12.918,12.918,0,0,1,2.881,2.866,3.552,3.552,0,0,0,.913-.913,13.8,13.8,0,0,0-2.937-2.757,4.345,4.345,0,0,0-.857.8M82.32,54.5a10.986,10.986,0,0,1,2.716,4.642,2.814,2.814,0,0,0,1.039-.6,11.108,11.108,0,0,0-2.9-4.573,1.949,1.949,0,0,0-.859.526m-5.029,8.73a3.955,3.955,0,0,0,1.511.318,1.967,1.967,0,0,0,2.147-1.622,15.265,15.265,0,0,0,.54-4.336c0-1.606-.527-2.465-2.258-2.465-.333,0-.693.013-1.067.027.262-1,.472-1.953.624-2.839a3.32,3.32,0,0,0-1.15-.221,27.232,27.232,0,0,1-.625,3.13c-.941.083-1.98.222-3.089.388l-.014.207v.1a2.991,2.991,0,0,0,.139.775c.929-.18,1.857-.333,2.7-.442a27.536,27.536,0,0,1-2.688,6.4,2.616,2.616,0,0,0,1.025.5A33.545,33.545,0,0,0,77.9,56.123c.472-.042.9-.055,1.276-.055.927,0,1.191.346,1.191,1.536a13.905,13.905,0,0,1-.5,4.005c-.207.65-.512.83-1.066.83a4.4,4.4,0,0,1-1.47-.317ZM61.465,52.354a36.413,36.413,0,0,0-.761,6.968,24.835,24.835,0,0,0,.36,4.226l.221.014a2.546,2.546,0,0,0,.9-.152,27.2,27.2,0,0,1-.346-4.088,35,35,0,0,1,.749-6.8,3.932,3.932,0,0,0-1.123-.166m6.608,8.424a2.819,2.819,0,0,1,.029.442c0,.79-.542,1.2-1.524,1.2s-1.4-.289-1.4-.859c0-.5.526-.955,1.565-.955a4.737,4.737,0,0,1,1.329.167m.763-6.845c.734-.041,1.44-.11,2.106-.194l.013-.248a2.783,2.783,0,0,0-.1-.777,32.744,32.744,0,0,1-4.252.264c-.581,0-1.177-.014-1.772-.043a2.736,2.736,0,0,0-.057.6l.029.471c.36.014.72.014,1.094.014.622,0,1.26-.014,1.9-.043v2.064c-.43.014-.873.014-1.3.014-.679,0-1.358-.014-2.021-.041a3.111,3.111,0,0,0-.057.638l.027.442c.5.016,1.012.016,1.511.016.624,0,1.246-.016,1.871-.03.041.887.082,1.775.166,2.662a7.381,7.381,0,0,0-1.247-.1c-1.663,0-2.59.984-2.59,1.925,0,1.206.913,1.857,2.438,1.857,1.7,0,2.577-.651,2.577-2.3a8.131,8.131,0,0,1,2.217,1.315,2.655,2.655,0,0,0,.663-1.053,10.925,10.925,0,0,0-2.964-1.4c-.124-.984-.18-1.98-.221-2.964.872-.055,1.7-.153,2.465-.278l.014-.262a2.71,2.71,0,0,0-.1-.762c-.763.124-1.565.208-2.411.263V53.933Zm-10.621,8.59a24.49,24.49,0,0,0-4.3-4.2A16.892,16.892,0,0,0,56.3,53.99l-.706-.832H48.282v1.108h6.553a14.63,14.63,0,0,1-7.828,8.063l.735.928a16.922,16.922,0,0,0,5.514-4.1,25.14,25.14,0,0,1,3.892,4.212ZM41.9,52.272a9.5,9.5,0,0,1,1.427,2.271l.8-.43a9.722,9.722,0,0,0-1.5-2.258Zm1.525-.75a10,10,0,0,1,1.454,2.231l.8-.442a10.023,10.023,0,0,0-1.538-2.2Zm-7.51,6.442a25.07,25.07,0,0,0,6.705-2.354l-.581-1.067a21.451,21.451,0,0,1-6.124,2.382V52.659H34.732v8.408c0,1.4.874,2.078,3.449,2.078a28.5,28.5,0,0,0,5.307-.4l-.139-1.164a25.675,25.675,0,0,1-5.195.458c-1.786,0-2.244-.374-2.244-1.233Zm-15.475.5H31.464V57.244H20.435ZM10.6,56.15h3.976v.624c0,3.56-1.151,5-4.336,5.9l.581,1.039c3.256-.971,4.933-2.785,4.933-6.859V56.15h2.73V55.084h-2.73v-2.7H14.577v2.7H10.6V52.452H9.423v2.632H6.777V56.15H9.423v3.422H10.6Z"/><path class="cls-2" d="M285.005,34.871a17.383,17.383,0,0,0-1.877-3.831l-1.326.734a16.858,16.858,0,0,1,1.739,3.874Zm-5.951-.657a35.22,35.22,0,0,1,.58,3.921l1.389-.335a37.652,37.652,0,0,0-.732-3.892ZM275.027,34a14.3,14.3,0,0,1-.718,4.106l1.358.624a16.85,16.85,0,0,0,.748-4.516Zm11.336-4.729a42.3,42.3,0,0,1-.487,7.353c-.184.947-.353,1.129-1.039,1.129a11.866,11.866,0,0,1-2-.2,6.22,6.22,0,0,1,.426,1.708c.55.047,1.024.061,1.419.061a3.267,3.267,0,0,0,1.953-.4c.5-.4.779-1.236,1.023-2.991.169-1.251.335-3.906.35-5.646a19.462,19.462,0,0,1,.077-2.653,8.469,8.469,0,0,1-1.251.061H283.51c.184-.474.245-.656.442-1.282a5.374,5.374,0,0,1,.2-.626l-1.708-.306a10.791,10.791,0,0,1-2.351,4.959,4.45,4.45,0,0,1,1.222,1.237,10.649,10.649,0,0,0,1.526-2.411Zm-11.809,4.211a9.593,9.593,0,0,1,.992-.092c.305-.03.777-.061,1.434-.106v4.669a11.225,11.225,0,0,1-.092,1.632h1.679a11.225,11.225,0,0,1-.092-1.632V33.145c.274-.013.626-.06,1.082-.105.063.244.092.365.169.716l1.281-.534a22.677,22.677,0,0,0-1.2-2.975l-1.145.458a8.5,8.5,0,0,1,.444,1.037c-.778.092-.839.092-1.739.137a39.732,39.732,0,0,0,2.577-3.432,6.274,6.274,0,0,1,.5-.7l-1.405-.809a17.429,17.429,0,0,1-1.648,2.671c-.213-.276-.381-.457-.64-.763a20.4,20.4,0,0,0,1.419-2.334c.168-.305.229-.413.321-.55l-1.45-.6a11.2,11.2,0,0,1-1.266,2.472c-.153-.184-.245-.274-.458-.535l-.871,1.266a14.173,14.173,0,0,1,2.092,2.258c-.305.4-.366.474-.886,1.114-.351.016-.5.016-.609.016a4.226,4.226,0,0,1-.658-.045Z"/><path class="cls-2" d="M313.627,23.99a1.4,1.4,0,0,1,.387-1.012,1.445,1.445,0,0,1,2,0,1.4,1.4,0,0,1,.388,1.012V35.583a1.4,1.4,0,0,1-.388,1.012,1.44,1.44,0,0,1-2,0,1.4,1.4,0,0,1-.387-1.012ZM310.8,35.583a4.308,4.308,0,0,0,.346,1.775,4.19,4.19,0,0,0,.929,1.331,4.046,4.046,0,0,0,1.347.847,4.529,4.529,0,0,0,3.189,0,4.023,4.023,0,0,0,1.344-.847,4.145,4.145,0,0,0,.93-1.331,4.308,4.308,0,0,0,.346-1.775V23.99a4.315,4.315,0,0,0-.346-1.775,4.167,4.167,0,0,0-.93-1.331,3.987,3.987,0,0,0-1.344-.845,4.5,4.5,0,0,0-3.189,0,4.009,4.009,0,0,0-1.347.845,4.212,4.212,0,0,0-.929,1.331,4.315,4.315,0,0,0-.346,1.775ZM303.452,23.99a1.4,1.4,0,0,1,.387-1.012,1.445,1.445,0,0,1,2,0,1.4,1.4,0,0,1,.388,1.012V35.583a1.4,1.4,0,0,1-.388,1.012,1.44,1.44,0,0,1-2,0,1.4,1.4,0,0,1-.387-1.012Zm-2.83,11.593a4.308,4.308,0,0,0,.347,1.775,4.158,4.158,0,0,0,.929,1.331,4.052,4.052,0,0,0,1.346.847,4.531,4.531,0,0,0,3.19,0,4.043,4.043,0,0,0,1.344-.847,4.176,4.176,0,0,0,.93-1.331,4.308,4.308,0,0,0,.346-1.775V23.99a4.315,4.315,0,0,0-.346-1.775,4.2,4.2,0,0,0-.93-1.331,4.006,4.006,0,0,0-1.344-.845,4.5,4.5,0,0,0-3.19,0,4.015,4.015,0,0,0-1.346.845,4.18,4.18,0,0,0-.929,1.331,4.315,4.315,0,0,0-.347,1.775Zm-9.817-15.669v10.65h2.5l.166-.3.249-.362.417-.29a1.343,1.343,0,0,1,.61-.125,1.235,1.235,0,0,1,.957.415,1.445,1.445,0,0,1,.374,1v4.632a1.571,1.571,0,0,1-.346,1.08,1.252,1.252,0,0,1-.985.389,1.409,1.409,0,0,1-1.041-.4,1.517,1.517,0,0,1-.4-1.123v-.72h-2.829v.831a4.308,4.308,0,0,0,.346,1.775,4.127,4.127,0,0,0,.929,1.331,4.017,4.017,0,0,0,1.345.847,4.529,4.529,0,0,0,3.189,0,4.046,4.046,0,0,0,1.347-.847,4.153,4.153,0,0,0,.927-1.331,4.308,4.308,0,0,0,.348-1.775v-5.1a3.49,3.49,0,0,0-.9-2.62,3.225,3.225,0,0,0-2.344-.875,3.385,3.385,0,0,0-1.358.264,3.193,3.193,0,0,0-1,.652V22.577h5.6V19.914Z"/><path class="cls-2" d="M337.139,32.917a5.073,5.073,0,0,1,.977-.076h.779v3.25a8.749,8.749,0,0,1-2.016,1.464l.824,1.678a12.611,12.611,0,0,0,1.694-1.479l.245-.229a3.71,3.71,0,0,0,1.769,1.3,11.418,11.418,0,0,0,3.432.381c2.563,0,4.1-.031,6.1-.123a10.268,10.268,0,0,1,.444-1.816,42.908,42.908,0,0,1-6.379.4,12.446,12.446,0,0,1-3.035-.274,2.847,2.847,0,0,1-.763-.4,2.312,2.312,0,0,1-.747-.855V32.872a15.908,15.908,0,0,1,.06-1.663,6.713,6.713,0,0,1-1.16.076H338.3a6.508,6.508,0,0,1-1.161-.076Zm-.047-6.148a14.552,14.552,0,0,1,2.6,2.853l1.266-1.237a17.614,17.614,0,0,0-2.64-2.761Zm10.5.473a14.382,14.382,0,0,1-1.526,1.143c-.9-.671-1.037-.763-1.587-1.143Zm1.419,6.012H346.72V32.232h2.289ZM343.15,32.23h2.061v1.022H343.15Zm2.061-1.221H343.15v-.992h2.061Zm1.511-.99h2.289v.992h-2.289Zm-3.48-1.3a12.729,12.729,0,0,1-1.71-.077,17.368,17.368,0,0,1,.063,1.785v4.821a11.762,11.762,0,0,1-.076,1.664h1.723a8.3,8.3,0,0,1-.092-1.664v-.778h2.061v.642a11.711,11.711,0,0,1-.092,1.692h1.693a9.686,9.686,0,0,1-.09-1.692v-.642h2.287v.6c0,.4-.016.426-.35.426a7.4,7.4,0,0,1-1.008-.092,3.79,3.79,0,0,1,.352,1.45c.29.016.548.016.685.016.947,0,1.329-.092,1.6-.352.213-.229.274-.535.274-1.4v-4.7a16.154,16.154,0,0,1,.062-1.769,9.714,9.714,0,0,1-1.557.077h-1.219a20.436,20.436,0,0,0,1.966-1.45,5.864,5.864,0,0,1,.763-.579l-.776-.947a7.71,7.71,0,0,1-1.724.107h-4.945a13.6,13.6,0,0,1-1.816-.092v1.558a11,11,0,0,1,1.587-.077h1.45l-1.174.685a9.019,9.019,0,0,1,1.266.8Zm-16.947-.84a17.649,17.649,0,0,1-.213,3.037,10.534,10.534,0,0,1-2.03,5.035,8.148,8.148,0,0,1-2.35,2.09,5.284,5.284,0,0,1,1.282,1.463,10.069,10.069,0,0,0,2.99-3.095,12.1,12.1,0,0,0,1.695-4.563h4.745a20.774,20.774,0,0,1-.626,5.263c-.169.429-.443.55-1.19.55a13.211,13.211,0,0,1-2.4-.3,6.009,6.009,0,0,1,.411,1.74c1.342.107,1.663.121,2.166.121,1.51,0,2.182-.335,2.563-1.282a23.724,23.724,0,0,0,.795-6.04,14.44,14.44,0,0,1,.092-1.724,16.053,16.053,0,0,1-1.953.076H327.9a23.67,23.67,0,0,0,.137-2.366h5.721c.687,0,1.342.032,1.937.092v-1.8a18.911,18.911,0,0,1-1.953.09h-9.811a18.321,18.321,0,0,1-1.953-.09v1.8c.627-.06,1.268-.092,1.969-.092Z"/><path class="cls-2" d="M327.8,59a9.4,9.4,0,0,0,0-13.162H326.7A9.4,9.4,0,0,1,326.7,59ZM318.832,47.78h-3.657c-.526,0-.941-.014-1.4-.055a9.2,9.2,0,0,1,.057.941v.916a5.38,5.38,0,0,1-.071,1h1.08V48.736h9.27v1.842h1.052a7.026,7.026,0,0,1-.054-1v-.916c0-.36.013-.636.041-.941-.458.041-.859.055-1.4.055h-3.864v-.623a3.421,3.421,0,0,1,.082-.845H318.75a4.655,4.655,0,0,1,.082.859Zm.21,8.922a3.942,3.942,0,0,1-2.4-2.189c.138-.513.318-1.192.36-1.372.111-.526.111-.526.166-.734l-1.11-.221v.1a9.193,9.193,0,0,1-.843,3.1,7.339,7.339,0,0,1-1.8,2.356,3.105,3.105,0,0,1,.845.775,9.1,9.1,0,0,0,2-2.964c1,1.8,2.853,2.577,6.178,2.577,1.3,0,1.635,0,2.661-.041a3.658,3.658,0,0,1,.319-1.123c-1.206.111-2.149.152-3.174.152a14.259,14.259,0,0,1-2.2-.139V54.153h2.605a9.032,9.032,0,0,1,1.331.068v-1.08a8.246,8.246,0,0,1-1.331.084h-2.605V51.147h2.218a11.263,11.263,0,0,1,1.358.069V50.149a11.81,11.81,0,0,1-1.358.069h-5.5a11.349,11.349,0,0,1-1.342-.069v1.067a11.3,11.3,0,0,1,1.342-.069h2.288Zm-8.929-9.877a7.166,7.166,0,0,1-1.053.054H302.9a8.622,8.622,0,0,1-1.5-.084v1.1a9.624,9.624,0,0,1,1.468-.07h5.986A13.222,13.222,0,0,1,306.18,49.6c-.722-.444-1.165-.706-2.217-1.248l-.693.693a21.4,21.4,0,0,1,3.559,2.189h-5.1a11.138,11.138,0,0,1-1.579-.082v1.135a11.518,11.518,0,0,1,1.481-.082h4.06v4.9c0,.306-.125.388-.583.388a11.81,11.81,0,0,1-1.953-.166,3.612,3.612,0,0,1,.292,1.109c.387.027,1.178.055,1.538.055,1.413,0,1.773-.235,1.773-1.192V52.2h3.851a9.507,9.507,0,0,1-2.119,1.939,2.976,2.976,0,0,1,.845.693,11.85,11.85,0,0,0,2.452-2.523l.152-.207.11-.125.111-.137-.608-.679a8.575,8.575,0,0,1-1.47.068h-2.451l.373-.36c-.526-.387-.665-.485-.941-.679a19.037,19.037,0,0,0,3.254-2.258c.264-.235.264-.235.417-.36ZM298.8,59a9.4,9.4,0,0,1,0-13.162h-1.094a9.4,9.4,0,0,0,0,13.162Z"/><polyline class="cls-3" points="267 4.836 267 73.836 266 73.836 266 4.836"/><polyline class="cls-3" points="0 0 361 0 361 1 0 1"/><polyline class="cls-3" points="0 78 361 78 361 79 0 79"/></g></g></svg>