<svg xmlns="http://www.w3.org/2000/svg" width="210" height="285" viewBox="0 0 210 285"><defs><style>.cls-1{fill:#fff;}.cls-2{fill:#f0eae0;}.cls-3{fill:#827663;}.cls-4,.cls-8,.cls-9{fill:none;}.cls-4{stroke:#241916;stroke-miterlimit:10;stroke-width:0.531px;}.cls-5{fill:#392712;}.cls-6{fill:#a0ae0e;}.cls-7{fill:#241916;}.cls-8,.cls-9{stroke:#655541;stroke-linecap:round;stroke-linejoin:round;}.cls-8{stroke-width:2.029px;}.cls-9{stroke-width:1.823px;}.cls-10{fill:#655541;}</style></defs><g id="レイヤー_2" data-name="レイヤー 2"><g id="レイヤー_1-2" data-name="レイヤー 1"><rect class="cls-1" width="210" height="284.55"/><rect class="cls-2" x="14.999" width="182.001" height="285"/><polygon class="cls-3" points="15 32.422 1 14.923 1 60.421 15 74.421 15 32.422"/><polygon class="cls-3" points="196 32.422 210 14.923 210 60.421 196 74.421 196 32.422"/><line class="cls-4" x1="30" y1="165.5" x2="180" y2="165.5"/><rect class="cls-5" y="19.95" width="210" height="40.95"/><path class="cls-1" d="M27.287,37.008c.386,0,1.159,0,1.512-.033a1.826,1.826,0,0,1,.3-.034,2,2,0,0,1,1.193,1.109,4.311,4.311,0,0,1-.219.689,11.636,11.636,0,0,1-.974,2.268,14.024,14.024,0,0,1-3.478,3.965,10.026,10.026,0,0,1-2.8,1.68c-.386,0-1.16-.958-1.16-1.243,0-.2.421-.353.589-.437A12.1,12.1,0,0,0,27.4,40.2a4.334,4.334,0,0,0,.453-1.093c0-.4-.453-.369-.721-.369h-6.25c-.7,0-1.411.033-2.134.033-.47,0-.47-.168-.47-.823,0-.856.017-.974.488-.974.705,0,1.427.033,2.15.033ZM26.161,33.38c.689,0,1.546-.051,1.983-.051.419,0,.453.185.453,1.025,0,.571,0,.79-.453.79-.672,0-1.328-.034-1.983-.034H22.045c-.655,0-1.311.034-1.966.034-.47,0-.47-.2-.47-.824,0-.789.034-.991.453-.991.471,0,1.328.051,1.983.051Z"/><path class="cls-1" d="M42.441,38.386c.7,0,1.678-.05,1.875-.05.409,0,.423.134.423,1.058,0,.538-.014.857-.408.857-.635,0-1.27-.034-1.89-.034H35.485c-.62,0-1.255.034-1.89.034-.393,0-.408-.319-.408-.84,0-.941.03-1.075.423-1.075.2,0,1.24.05,1.875.05Z"/><path class="cls-1" d="M57.683,42c.671,0,1.344-.034,2.016-.034.554,0,.537.152.537,1.025,0,.555,0,.874-.47.874-.689,0-1.394-.034-2.083-.034H49.955c-.688,0-1.394.034-2.083.034-.471,0-.471-.319-.471-.89,0-.857-.016-1.009.537-1.009.673,0,1.345.034,2.017.034ZM56,34.909c.723,0,1.444-.034,2.167-.034.436,0,.471.168.471.941,0,.655.016.957-.5.957-.706,0-1.411-.033-2.117-.033h-4.4c-.706,0-1.411.033-2.117.033-.521,0-.5-.3-.5-.974,0-.773.051-.924.471-.924.722,0,1.444.034,2.167.034Z"/><path class="cls-1" d="M76.381,37.748c0,.285-.672.94-.891,1.159a29.194,29.194,0,0,1-9.122,6.334c-.555.268-.571.285-.706.571a.169.169,0,0,1-.168.1c-.184,0-.537-.672-.654-.874a4.659,4.659,0,0,1-.505-1.008c0-.185.3-.219.521-.286a22.989,22.989,0,0,0,10.3-7.307.415.415,0,0,1,.286-.186C75.776,36.252,76.381,37.5,76.381,37.748Zm-8.669-2.772c.219.151,1.025.7,1.025.957,0,.387-.79,1.294-1.109,1.294a1.8,1.8,0,0,1-.672-.454,21.3,21.3,0,0,0-2.234-1.562c-.135-.084-.269-.168-.269-.319,0-.252.672-1.328,1.059-1.328A13.382,13.382,0,0,1,67.712,34.976Z"/><path class="cls-1" d="M87.822,35.329a2.908,2.908,0,0,0,.672-.051.714.714,0,0,1,.186-.033c.369,0,1.225,1.025,1.225,1.293a1.644,1.644,0,0,1-.2.4c-.1.185-.268.437-.436.773-1.664,3.209-3.277,5.645-6.385,7.644A11.066,11.066,0,0,1,80.6,46.551c-.387,0-1.428-.823-1.428-1.126,0-.168.218-.269.336-.319a14.82,14.82,0,0,0,6.5-5.376A10.5,10.5,0,0,0,87.3,37.277c0-.218-.286-.235-.521-.235H83.589c-.336.034-.4.034-.706.454-.3.453-2.251,2.772-2.688,2.772-.218,0-1.445-.639-1.445-1.008a.312.312,0,0,1,.151-.236,15.474,15.474,0,0,0,4.487-6c.066-.168.133-.4.268-.4a8.83,8.83,0,0,1,1.193.521,1.842,1.842,0,0,0,.218.1c.2.084.5.185.5.337,0,.1-.168.168-.252.218-.2.117-.268.252-.436.554-.068.118-.135.235-.236.4a.678.678,0,0,0-.118.3c0,.168.135.252.286.269Zm3.394-.336c0,.252-.655.7-.857.7-.1,0-.151-.1-.218-.185-.336-.5-.7-1.008-1.092-1.478a.4.4,0,0,1-.117-.219c0-.2.688-.621.873-.621A6.772,6.772,0,0,1,91.216,34.993Zm1.73-1.042c0,.252-.655.689-.856.689-.118,0-.168-.084-.219-.168a16.323,16.323,0,0,0-1.108-1.479.354.354,0,0,1-.118-.2c0-.219.689-.639.874-.639A6.607,6.607,0,0,1,92.946,33.951Z"/><path class="cls-1" d="M100.909,44.014c0,.739.034,1.479.034,2.2,0,.453-.218.5-.84.5-.924,0-1.092-.051-1.092-.488,0-.722.034-1.444.034-2.167V39.495c0-.1.05-.471-.27-.471-.168,0-.52.286-.654.387a20.922,20.922,0,0,1-3.612,2.151A2.826,2.826,0,0,1,93.2,40.217c0-.168.152-.235.269-.285a24.138,24.138,0,0,0,6.6-4.453,14.228,14.228,0,0,0,2.285-2.838c.05-.084.152-.252.269-.252a6.2,6.2,0,0,1,1.143.688c.184.118.655.4.655.605,0,.1-.084.134-.168.168a.909.909,0,0,0-.655.4,32.559,32.559,0,0,1-2.3,2.52.9.9,0,0,0-.387.756Z"/><path class="cls-1" d="M117,34.455c.117.05.471.2.471.353,0,.084-.1.168-.168.218-.252.168-.27.168-.454.6-1.63,3.8-3.545,6.669-7.258,8.685a11.009,11.009,0,0,1-2.016.908c-.319,0-1.142-1.025-1.142-1.294,0-.2.151-.235.571-.4a12.646,12.646,0,0,0,6.737-5.813,14.506,14.506,0,0,0,1.495-3.629c.033-.134.067-.285.218-.285A11.431,11.431,0,0,1,117,34.455Z"/><path class="cls-1" d="M127.772,37.462a33.178,33.178,0,0,0,5.091,4.5c.117.084.269.185.269.336,0,.3-.874,1.479-1.361,1.479-.269,0-.907-.588-1.142-.806-1.513-1.395-2.941-2.89-4.352-4.385-.218-.219-.52-.588-.856-.588-.42,0-.975.5-1.277.772-.773.689-1.748,1.63-2.453,2.386a.529.529,0,0,1-.37.218c-.319,0-1.427-1.31-1.427-1.545,0-.168.319-.336.436-.4a24.859,24.859,0,0,0,3.494-2.756,2.684,2.684,0,0,1,1.6-.672A3.579,3.579,0,0,1,127.772,37.462Zm3.865-.084c0,.235-.572.773-.79.773-.1,0-.185-.1-.236-.168a17.371,17.371,0,0,0-1.243-1.277c-.066-.067-.168-.134-.168-.235,0-.185.606-.706.79-.706A6.265,6.265,0,0,1,131.637,37.378Zm-.017-2.906a6.445,6.445,0,0,1,1.647,1.6c0,.235-.572.789-.79.789-.084,0-.219-.151-.37-.319-.05-.05-.084-.1-.134-.151a13.354,13.354,0,0,0-.975-.958c-.067-.067-.168-.134-.168-.235C130.83,34.993,131.418,34.472,131.62,34.472Z"/><path class="cls-1" d="M146.2,38.386c.695,0,1.678-.05,1.875-.05.408,0,.423.134.423,1.058,0,.538-.015.857-.408.857-.635,0-1.271-.034-1.89-.034h-6.956c-.62,0-1.255.034-1.891.034-.392,0-.408-.319-.408-.84,0-.941.03-1.075.424-1.075.2,0,1.239.05,1.875.05Z"/><path class="cls-1" d="M152.154,36.874a14.71,14.71,0,0,1,2.083,1.159c.454.269,1.311.739,1.311,1.009,0,.3-.672,1.293-1.008,1.293a.928.928,0,0,1-.387-.185,29.526,29.526,0,0,0-2.671-1.7c-.117-.067-.285-.134-.285-.285C151.2,37.9,151.835,36.874,152.154,36.874Zm.555,7.207a20.074,20.074,0,0,0,2-.672,11.345,11.345,0,0,0,4.184-2.638,14.094,14.094,0,0,0,2.872-5.073c.067-.168.134-.4.353-.4.252,0,1.26.924,1.26,1.26a3.687,3.687,0,0,1-.219.655c-.033.118-.084.2-.1.269a14.837,14.837,0,0,1-3.108,4.754,16.164,16.164,0,0,1-5.746,3.394.934.934,0,0,0-.639.487.219.219,0,0,1-.168.1c-.184,0-.319-.37-.419-.571q-.278-.6-.554-1.21a.382.382,0,0,1-.034-.151C152.39,44.148,152.608,44.115,152.709,44.081Zm3.226-9.811c.352.252.958.672,1.259.924a.393.393,0,0,1,.185.285c0,.3-.7,1.244-1.008,1.244a.85.85,0,0,1-.42-.219,25.291,25.291,0,0,0-2.47-1.78c-.117-.067-.285-.168-.285-.32,0-.235.723-1.159,1.025-1.159a7.026,7.026,0,0,1,1.462.857C155.8,34.169,155.884,34.236,155.935,34.27Z"/><path class="cls-1" d="M173.591,36.908c.319,0,.655-.017.991-.017.807,0,.924.252.924.941,0,.251-.017.588-.017.974V43.98c0,.353.017.723.017,1.076,0,.537-.151.571-.738.571-.673,0-.757-.034-.841-.37-.033-.185-.168-.185-.521-.185h-3.948c-.588,0-1.276.017-1.663.017-.4,0-.4-.285-.4-.907,0-.3-.017-.655.37-.655.3,0,1.075.034,1.679.034h4.1a.38.38,0,0,0,.386-.387V42.116a.391.391,0,0,0-.386-.387h-3.932c-.588,0-1.327.034-1.679.034-.4,0-.37-.353-.37-.908,0-.318-.034-.638.37-.638.369,0,1.075.034,1.663.034h3.948a.38.38,0,0,0,.386-.386V38.806a.4.4,0,0,0-.386-.4h-4.065c-.5,0-1.227.034-1.647.034-.387,0-.4-.269-.4-.74,0-.487-.034-.823.369-.823.319,0,1.109.034,1.663.034Z"/><path class="cls-1" d="M192.76,37.748c0,.285-.672.94-.891,1.159a29.205,29.205,0,0,1-9.122,6.334c-.555.268-.571.285-.706.571a.169.169,0,0,1-.168.1c-.185,0-.537-.672-.654-.874a4.659,4.659,0,0,1-.5-1.008c0-.185.3-.219.521-.286a22.994,22.994,0,0,0,10.3-7.307.415.415,0,0,1,.286-.186C192.155,36.252,192.76,37.5,192.76,37.748Zm-8.669-2.772c.219.151,1.025.7,1.025.957,0,.387-.79,1.294-1.109,1.294a1.8,1.8,0,0,1-.672-.454,21.3,21.3,0,0,0-2.234-1.562c-.135-.084-.269-.168-.269-.319,0-.252.672-1.328,1.059-1.328A13.424,13.424,0,0,1,184.091,34.976Z"/><rect class="cls-6" y="15" width="210" height="5"/><path class="cls-7" d="M36.9,184.372a2.773,2.773,0,1,1-2.772-2.773A2.772,2.772,0,0,1,36.9,184.372Z"/><path class="cls-7" d="M44.769,180.031a6.521,6.521,0,0,0,.642-1.7l1.071.15a13.89,13.89,0,0,1-.68,1.551h2.949a11.917,11.917,0,0,0,1.5-.063,11.632,11.632,0,0,0-.063,1.525v6.693a7.685,7.685,0,0,0,.076,1.411H49.23V188.9H42.84v.693H41.832a9.932,9.932,0,0,0,.075-1.424v-6.68a12.21,12.21,0,0,0-.062-1.525,11.55,11.55,0,0,0,1.486.063Zm-1.916,2.609h6.389V180.9H42.853Zm0,2.647h6.389V183.51H42.853Zm0,2.747h6.389v-1.878H42.853Z"/><path class="cls-7" d="M55.414,188.224a11.671,11.671,0,0,0,.076,1.549H54.419a14.733,14.733,0,0,0,.075-1.537V185.8c0-.568,0-.694.026-1.45a7.645,7.645,0,0,1-1.21,1.4,2.672,2.672,0,0,0-.479-.895,9.266,9.266,0,0,0,2.18-2.546,4.7,4.7,0,0,0,.492-1l.819.542a5.262,5.262,0,0,0-.428.719c-.089.151-.3.491-.48.756Zm.933-9.277a5.645,5.645,0,0,0-.428.517,11.76,11.76,0,0,1-2.42,2.394,2.6,2.6,0,0,0-.593-.831A8.171,8.171,0,0,0,55.2,178.9a2.218,2.218,0,0,0,.29-.516Zm3.151,1.424H57.923c-.467,0-.858.025-1.122.051v-.9a7.076,7.076,0,0,0,1.159.063H59.5v-.076a5.6,5.6,0,0,0-.076-1.084h1.034a7.549,7.549,0,0,0-.051,1.084v.076h1.878a10.635,10.635,0,0,0,1.11-.038,7.522,7.522,0,0,0-.026.857v.97h.064a4.159,4.159,0,0,0,.945-.075v.933a6.969,6.969,0,0,0-.945-.051h-.064v1.071a5.924,5.924,0,0,0,.026.807c-.29-.012-.618-.025-1.084-.025h-1.9v1.021H62.4a8.214,8.214,0,0,0,1.2-.063v.907a10.379,10.379,0,0,0-1.2-.05H60.405v1.122H63a8.6,8.6,0,0,0,1.272-.063v.932a13.621,13.621,0,0,0-1.4-.05H60.405v.454a11.032,11.032,0,0,0,.064,1.512H59.422a10.475,10.475,0,0,0,.076-1.5V187.8H57.431a9.43,9.43,0,0,0-1.373.076v-.958a8.4,8.4,0,0,0,1.259.063H59.5v-1.122H57.721a7.555,7.555,0,0,0-1.159.063V185a7.257,7.257,0,0,0,1.159.063H59.5v-1.021H57.947a8.885,8.885,0,0,0-1.172.05v-.907a6.7,6.7,0,0,0,1.185.063H59.5v-1.059H57.633a9.988,9.988,0,0,0-1.261.063V181.3a7.644,7.644,0,0,0,1.286.075H59.5Zm2.975,1.008v-1.008H60.405v1.008Zm-2.068,1.866h2.068v-1.059H60.405Z"/><path class="cls-7" d="M70.194,182.665a7.867,7.867,0,0,0,1.5-2.382,7.775,7.775,0,0,0,.568-1.827l1.008.189a4.548,4.548,0,0,0-.176.5c-.115.328-.278.768-.429,1.159h2.886a7.368,7.368,0,0,0,1.071-.05c-.025.252-.037.353-.05.845-.089,4.461-.24,6.263-.618,7.385-.252.756-.668,1.021-1.6,1.021-.442,0-.756-.012-1.5-.075a3.531,3.531,0,0,0-.24-1.034,9.506,9.506,0,0,0,1.652.2c.567,0,.693-.089.844-.542a13.89,13.89,0,0,0,.415-3.114c.064-1.008.077-1.89.1-3.743H72.262a10.955,10.955,0,0,1-1.4,2.206,2.7,2.7,0,0,0-.668-.731v5.1c0,.517.026.946.051,1.26H69.3v-.781H67.081v1.084H66.1a11.317,11.317,0,0,0,.062-1.525v-6.314a9.1,9.1,0,0,0-.051-1.2c.253.025.58.038,1.11.038h.239a8.229,8.229,0,0,0,.529-1.853l1.034.177c-.227.693-.365,1.046-.629,1.676h.768c.617-.013.971-.025,1.071-.038-.025.3-.038.643-.038,1.084Zm-3.126,1.1H69.3v-2.584H67.068Zm0,3.667H69.3v-2.835H67.068Zm6.353-1.109a11.636,11.636,0,0,0-1.79-3.126l.757-.441a13.9,13.9,0,0,1,1.89,3.063Z"/><path class="cls-7" d="M84.382,188.652c0,.832-.252,1-1.525,1-.328,0-.932-.024-1.361-.063a3.667,3.667,0,0,0-.3-.932,11.72,11.72,0,0,0,1.6.126c.555,0,.63-.038.63-.3v-2.294H79.832a9.914,9.914,0,0,0-1.361.075v-1a10.349,10.349,0,0,0,1.348.075h3.605v-.176a6.664,6.664,0,0,0-.037-.706h.529a10.923,10.923,0,0,0,2-1.273H81.71a10.975,10.975,0,0,0-1.185.063V182.3a11.191,11.191,0,0,0,1.21.063h4.349a5.247,5.247,0,0,0,.92-.051l.529.567c-.177.139-.177.139-.429.366a14.665,14.665,0,0,1-2.722,1.815v.277h3.542a10.171,10.171,0,0,0,1.361-.075v1a9.744,9.744,0,0,0-1.374-.075H84.382Zm-3.541-8.193a8.008,8.008,0,0,0-1.1-1.537l.895-.265a10.743,10.743,0,0,1,1.21,1.8h1.664a7.553,7.553,0,0,0-.858-1.713l.92-.253a11.055,11.055,0,0,1,.908,1.966h1.273a7.069,7.069,0,0,0,1.184-1.94l.946.34a13.534,13.534,0,0,1-1.11,1.6h.845a14.276,14.276,0,0,0,1.449-.05,7.58,7.58,0,0,0-.049,1.008v1a7.1,7.1,0,0,0,.062.895h-.97v-2.055h-8.52v2.055h-.971a6.458,6.458,0,0,0,.064-.895v-1a7.367,7.367,0,0,0-.051-1.008c.5.038.731.05,1.424.05Z"/><path class="cls-7" d="M94.8,182.06a21.754,21.754,0,0,1-2.822,1.4c-.228.1-.316.139-.48.227l-.34-.9a14.175,14.175,0,0,0,3.592-1.55Zm-2.457-2.42a7.379,7.379,0,0,0-1.16.063v-.945a8.955,8.955,0,0,0,1.286.075h2.571a9,9,0,0,0,1.21-.05,9.093,9.093,0,0,0-.051,1.2v2.786c0,.479-.075.693-.3.832a1.816,1.816,0,0,1-1.02.189c-.29,0-.693-.025-1.021-.051a3.1,3.1,0,0,0-.214-.844,8.334,8.334,0,0,0,1.248.1c.365,0,.428-.051.428-.328V179.64Zm1.1,1.929a7.219,7.219,0,0,0-1.714-1.173l.592-.542a9.926,9.926,0,0,1,1.74,1.11Zm5.7,2.936a12.734,12.734,0,0,0,1.348-.05,12.015,12.015,0,0,0-.049,1.374v2.584a6.882,6.882,0,0,0,.075,1.323H99.5v-.542H93.592v.542h-1a7.3,7.3,0,0,0,.075-1.323v-2.584a12.929,12.929,0,0,0-.05-1.374,12.888,12.888,0,0,0,1.349.05h1.663a4.9,4.9,0,0,0,.505-1.046l.982.189c-.226.4-.314.542-.5.857Zm-5.545,1.866H99.5V185.3H93.592Zm0,2.029H99.5v-1.235H93.592Zm4.171-8.76a7.358,7.358,0,0,0-1.159.063v-.945a8.894,8.894,0,0,0,1.3.075h2.535a7.767,7.767,0,0,0,1.171-.05,9.75,9.75,0,0,0-.05,1.21v2.8c0,.555-.05.706-.278.857a1.714,1.714,0,0,1-.969.177c-.354,0-.719-.013-1.21-.051a2.422,2.422,0,0,0-.19-.882,7.3,7.3,0,0,0,1.248.126c.491,0,.5-.013.5-.34V179.64Zm2.383,2.458a25.4,25.4,0,0,1-2.584,1.147,4.151,4.151,0,0,0-.555.239l-.316-.92a11.734,11.734,0,0,0,3.416-1.3Zm-1.425-.5a9.084,9.084,0,0,0-1.789-1.172l.566-.555a10.743,10.743,0,0,1,1.8,1.122Z"/><path class="cls-7" d="M112.064,186.925v-5.646h-7.045v-1.021h8.142v8.608h-1.1v-.92h-7.133v-1.021Z"/><path class="cls-7" d="M117.946,186.182a34.15,34.15,0,0,1,7.55,2l-.315,1.033a40.72,40.72,0,0,0-7.588-2.042Zm1.033-3.542a28.468,28.468,0,0,1,5.534,1.4l-.328,1a26.826,26.826,0,0,0-5.545-1.437Zm.077-3.34a31.756,31.756,0,0,1,6.238,1.348l-.34,1.009a31.776,31.776,0,0,0-6.277-1.4Z"/><path class="cls-7" d="M135.121,187.9a40.6,40.6,0,0,0,.731-4.512h-4.866v-.933h5.358l.554.491c-.214,1.992-.479,3.542-.769,4.954h2.509v.92H129.9v-.92Z"/><path class="cls-7" d="M151.88,186.8v1.021H141.847V186.8Zm-8.886-6.163h7.726v1.021h-7.726Z"/><path class="cls-7" d="M154.484,182.577h9.957v.945h-4.285a6.172,6.172,0,0,1-3.529,5.836l-.718-.87a5.241,5.241,0,0,0,3.151-4.966h-4.576Zm1.172-3h7.626v.971h-7.626Z"/><path class="cls-7" d="M172.856,189.509h-1.045V184.43a18.466,18.466,0,0,1-3.466,1.689l-.517-.807a15.446,15.446,0,0,0,6.68-4.525l.857.693a18.1,18.1,0,0,1-2.509,2.231Z"/><path class="cls-7" d="M36.9,203.271a2.773,2.773,0,1,1-2.772-2.772A2.772,2.772,0,0,1,36.9,203.271Z"/><path class="cls-7" d="M50.453,201.905c-.869,3.4-2.9,5.306-6.326,6.34l-.542-.933c3.112-.844,4.94-2.571,5.671-5.079H41.593v-.983h8.268Zm-1.222-3.478v.97H42.778v-.97Z"/><path class="cls-7" d="M63.306,202.4v1.109H53.272V202.4Z"/><path class="cls-7" d="M75.527,205.7v1.021H65.494V205.7Zm-8.885-6.163h7.725v1.021H66.642Z"/><path class="cls-7" d="M79.053,198.742a16.451,16.451,0,0,1,2.986,2.42l-.819.857a16.913,16.913,0,0,0-2.848-2.559Zm-.429,8.041c3.844-.845,6.743-2.949,8.116-6.655l.984.58c-1.462,3.933-4.651,6.188-8.773,7.084Z"/><path class="cls-7" d="M98.269,199.75l.567.668a12.279,12.279,0,0,1-6.919,8l-.731-.882a11.476,11.476,0,0,0,6.415-6.856H93.543a12.742,12.742,0,0,1-2.7,2.748l-.732-.631a12.053,12.053,0,0,0,3.832-5.029l1.084.341a13.656,13.656,0,0,1-.87,1.638Zm.328-2.47a8.9,8.9,0,0,1,1.046,2.205l-.794.3a9.421,9.421,0,0,0-.984-2.269Zm1.462-.53a8.531,8.531,0,0,1,1.134,2.181l-.781.3a7.928,7.928,0,0,0-1.059-2.205Z"/><path class="cls-7" d="M110.176,205.825v-5.646H103.13v-1.021h8.142v8.608h-1.1v-.92h-7.134v-1.021Z"/><path class="cls-7" d="M115.717,198.742a16.423,16.423,0,0,1,2.987,2.42l-.819.857a16.913,16.913,0,0,0-2.848-2.559Zm-.428,8.041c3.844-.845,6.743-2.949,8.116-6.655l.984.58c-1.462,3.933-4.651,6.188-8.773,7.084Z"/><path class="cls-7" d="M126.64,201.477H136.6v.945h-4.285a6.174,6.174,0,0,1-3.53,5.836l-.718-.87a5.242,5.242,0,0,0,3.151-4.966H126.64Zm1.172-3h7.626v.971h-7.626Z"/><path class="cls-7" d="M140.16,198.742a16.417,16.417,0,0,1,2.986,2.42l-.819.857a16.836,16.836,0,0,0-2.848-2.559Zm-.429,8.041c3.844-.845,6.744-2.949,8.117-6.655l.983.58c-1.462,3.933-4.65,6.188-8.772,7.084Z"/><path class="cls-7" d="M152.18,198.994a15.862,15.862,0,0,1,1.424,3.29l-1.034.378a18.443,18.443,0,0,0-1.323-3.315Zm8.672-.227c-.568,4.311-2.862,7.776-6.492,9.3l-.631-.844c3.366-1.462,5.471-4.436,6.039-8.659Zm-5.371-.416a17.738,17.738,0,0,1,1.413,3.252l-1.046.4a17.582,17.582,0,0,0-1.312-3.34Z"/><path class="cls-7" d="M36.9,222.172a2.773,2.773,0,1,1-2.772-2.773A2.772,2.772,0,0,1,36.9,222.172Z"/><path class="cls-7" d="M42.815,217.478a5.837,5.837,0,0,0-.075-1.172h1.033a5.913,5.913,0,0,0-.075,1.172v.454h.542a5.507,5.507,0,0,0,1.1-.063v.945a6.537,6.537,0,0,0-1.1-.063H43.7v1.538h.694a6.336,6.336,0,0,0,1.159-.076v.971a5.616,5.616,0,0,0-1.159-.076h-.619v1.525h.606a5.605,5.605,0,0,0,1-.063v.92a5.241,5.241,0,0,0-1.008-.076h-.593v2.37a3.5,3.5,0,0,0,1.74.479c.769.05,1.79.088,2.735.088a33.033,33.033,0,0,0,3.491-.164,3.061,3.061,0,0,0-.3,1c-.442.025-1.664.063-2.03.063a37.811,37.811,0,0,1-3.894-.088,4.343,4.343,0,0,1-2.71-1.047,4.971,4.971,0,0,1-1.033-1.235,9.082,9.082,0,0,1-.882,2.584,2.812,2.812,0,0,0-.744-.58,8.9,8.9,0,0,0,1.071-4.5,3.839,3.839,0,0,0-.037-.492l.92.063a5.435,5.435,0,0,0-.064.807c-.025.366-.05.617-.1,1.109a4.906,4.906,0,0,0,.983,1.285v-4.045h-1.21a5.692,5.692,0,0,0-1.173.076v-.971a6.694,6.694,0,0,0,1.173.076h1.108v-1.538h-.907a6.647,6.647,0,0,0-1.084.063v-.945a5.678,5.678,0,0,0,1.084.063h.907Zm4.55,8.192a2.7,2.7,0,0,0-.529-.479,7.982,7.982,0,0,0,2.118-1.979,14.027,14.027,0,0,1-.731-4.247h-1.5v4.512a14.687,14.687,0,0,0,1.437-.857l.1.807a18.2,18.2,0,0,1-2.785,1.537,3.63,3.63,0,0,0-.493.24l-.29-.87a7.727,7.727,0,0,0,1.173-.441v-4.638a9.676,9.676,0,0,0-.051-1.147,9.288,9.288,0,0,0,1.172.051h1.2a13.944,13.944,0,0,0-.076-1.879h.971a6.792,6.792,0,0,0-.063,1.173c0,.227,0,.3.012.706h1.336A6.136,6.136,0,0,0,51.5,218.1v.932a9.7,9.7,0,0,0-1.135-.063h-1.31a14.849,14.849,0,0,0,.454,3.353,9.176,9.176,0,0,0,.856-2.584l.832.328c-.063.164-.113.277-.214.6a11.771,11.771,0,0,1-1.147,2.583c.315.668.781,1.362.933,1.362s.277-.58.377-1.526a1.8,1.8,0,0,0,.694.492c-.252,1.475-.5,2-.945,2-.5,0-1.072-.555-1.588-1.563a9.1,9.1,0,0,1-1.828,1.777Zm2.648-9.364a7.08,7.08,0,0,1,1.184,1.2l-.617.5a6.42,6.42,0,0,0-1.16-1.26Z"/><path class="cls-7" d="M54.457,217.768a9.875,9.875,0,0,0-.075-1.361H55.44a8.279,8.279,0,0,0-.075,1.373v1.752h.114c.441,0,.629-.012.945-.037v.932a6.636,6.636,0,0,0-.945-.05h-.114v3.4c.466-.215.668-.315,1.273-.618l.063.92c-.92.454-1.639.782-3.025,1.349-.176.063-.353.151-.517.227l-.239-1.021a7.168,7.168,0,0,0,1.537-.491v-3.769h-.378a6.818,6.818,0,0,0-1.033.063v-.971a6.558,6.558,0,0,0,1.058.063h.353Zm3.706,6.692c-.365,0-.58.013-1.059.038a4.9,4.9,0,0,0,.05-.857v-2.067a6.39,6.39,0,0,0-.05-.958c.3.026.656.038,1.185.038H62.3c.516,0,.857-.012,1.16-.038a6.141,6.141,0,0,0-.051.971v1.966a5.874,5.874,0,0,0,.051.945c-.315-.025-.593-.038-1.021-.038h-.958v1.777c0,.24.113.278.983.278.617,0,.832-.038.92-.189a4.02,4.02,0,0,0,.151-1.286,2.509,2.509,0,0,0,.869.34c-.075,1.084-.188,1.475-.478,1.7-.252.214-.593.265-1.652.265-1.373,0-1.688-.152-1.688-.832V224.46H59.411a2.824,2.824,0,0,1-.706,1.79,4.746,4.746,0,0,1-2.773,1.374,2.318,2.318,0,0,0-.541-.857,4.378,4.378,0,0,0,2.557-.958,1.875,1.875,0,0,0,.593-1.349Zm4.437-7.133a11.366,11.366,0,0,0,1.272-.063v.857a11.726,11.726,0,0,0-1.272-.051h-.064a10.691,10.691,0,0,1-.542,1.135h.971a7.939,7.939,0,0,0,1.235-.063v.907a9.061,9.061,0,0,0-1.261-.063H57.822c-.542,0-.806.013-1.159.038v-.87a9.748,9.748,0,0,0,1.148.051H58.5a7.783,7.783,0,0,0-.453-1.135h-.089a8.838,8.838,0,0,0-1.1.051v-.857a8.854,8.854,0,0,0,1.247.063h1.677V217a4.78,4.78,0,0,0-.063-.782h1.045a3.793,3.793,0,0,0-.062.795v.315Zm-4.588,4.84h4.524v-.77H58.012Zm0,1.575h4.524V222.9H58.012Zm3.075-4.537a6.968,6.968,0,0,0,.517-1.135H58.957a9.288,9.288,0,0,1,.454,1.135Z"/><path class="cls-7" d="M71.783,226.452c0,.832-.252,1-1.524,1-.328,0-.933-.025-1.362-.063a3.656,3.656,0,0,0-.3-.932,11.7,11.7,0,0,0,1.6.126c.555,0,.63-.038.63-.3v-2.294H67.233a9.9,9.9,0,0,0-1.361.076v-.995a10.377,10.377,0,0,0,1.349.075h3.6v-.177a6.936,6.936,0,0,0-.037-.705h.529a10.943,10.943,0,0,0,2-1.273h-4.21a10.97,10.97,0,0,0-1.184.063V220.1a11.177,11.177,0,0,0,1.21.063h4.348a5.247,5.247,0,0,0,.92-.051l.53.567c-.177.139-.177.139-.429.366a14.674,14.674,0,0,1-2.723,1.815v.277h3.542a10.177,10.177,0,0,0,1.362-.075v.995a9.734,9.734,0,0,0-1.375-.076H71.783Zm-3.541-8.193a8.043,8.043,0,0,0-1.1-1.537l.894-.265a10.743,10.743,0,0,1,1.21,1.8h1.664a7.533,7.533,0,0,0-.857-1.714l.92-.252a11.127,11.127,0,0,1,.908,1.966h1.272a7.087,7.087,0,0,0,1.185-1.941l.945.341a13.662,13.662,0,0,1-1.109,1.6h.844a14.286,14.286,0,0,0,1.45-.05,7.556,7.556,0,0,0-.05,1.008v1a7.1,7.1,0,0,0,.062.9h-.969v-2.055H66.994v2.055h-.971a6.307,6.307,0,0,0,.064-.9v-1a7.367,7.367,0,0,0-.051-1.008c.5.038.732.05,1.424.05Z"/><path class="cls-7" d="M81.7,219.86a21.726,21.726,0,0,1-2.824,1.4c-.227.1-.314.138-.479.227l-.339-.895a14.172,14.172,0,0,0,3.591-1.55Zm-2.458-2.42a7.387,7.387,0,0,0-1.16.063v-.945a9.122,9.122,0,0,0,1.286.075h2.571a8.989,8.989,0,0,0,1.21-.05,9.137,9.137,0,0,0-.05,1.2v2.786c0,.479-.076.693-.3.831a1.81,1.81,0,0,1-1.021.19c-.29,0-.693-.025-1.02-.051a3.1,3.1,0,0,0-.215-.844,8.332,8.332,0,0,0,1.248.1c.365,0,.429-.05.429-.327V217.44Zm1.1,1.929a7.206,7.206,0,0,0-1.715-1.173l.593-.542a9.917,9.917,0,0,1,1.739,1.11Zm5.7,2.936a13.033,13.033,0,0,0,1.349-.05,12.186,12.186,0,0,0-.05,1.373v2.584a7.058,7.058,0,0,0,.075,1.324H86.4v-.542H80.488v.542h-1a7.221,7.221,0,0,0,.075-1.324v-2.584a12.976,12.976,0,0,0-.049-1.373,13.149,13.149,0,0,0,1.348.05H82.53a4.9,4.9,0,0,0,.5-1.046l.983.189c-.227.4-.315.542-.5.857Zm-5.546,1.865H86.4V223.1H80.488Zm0,2.03H86.4v-1.236H80.488Zm4.172-8.76a7.373,7.373,0,0,0-1.159.063v-.945a9.053,9.053,0,0,0,1.3.075h2.534a7.792,7.792,0,0,0,1.172-.05,9.708,9.708,0,0,0-.051,1.21v2.8c0,.555-.05.706-.277.857a1.718,1.718,0,0,1-.97.177c-.353,0-.719-.013-1.21-.051a2.421,2.421,0,0,0-.189-.882,7.3,7.3,0,0,0,1.248.126c.491,0,.5-.013.5-.34V217.44Zm2.383,2.458a25.4,25.4,0,0,1-2.584,1.147,4.208,4.208,0,0,0-.555.239l-.315-.92a11.755,11.755,0,0,0,3.416-1.3Zm-1.425-.5a9.084,9.084,0,0,0-1.789-1.172l.567-.555a10.735,10.735,0,0,1,1.8,1.122Z"/><path class="cls-7" d="M36.9,241.072a2.773,2.773,0,1,1-2.772-2.773A2.772,2.772,0,0,1,36.9,241.072Z"/><path class="cls-7" d="M43.66,245.213a8.077,8.077,0,0,0,.063,1.223H42.651a8.294,8.294,0,0,0,.077-1.235v-3.655a10.967,10.967,0,0,1-1.614,1.361,3.123,3.123,0,0,0-.5-.87,9.85,9.85,0,0,0,2.218-1.8,8.3,8.3,0,0,0,1.449-2.168H42.06a8.535,8.535,0,0,0-1.009.051v-.971a8.171,8.171,0,0,0,.97.05h.707v-1.109a5.259,5.259,0,0,0-.077-.945h1.084a5.11,5.11,0,0,0-.075.958v1.1h.668a4.38,4.38,0,0,0,.706-.037l.441.491c-.088.139-.163.278-.278.5a10.305,10.305,0,0,1-1.336,2.118,7.311,7.311,0,0,0,1.993,1.664,3.439,3.439,0,0,0-.505.832,7.619,7.619,0,0,1-1.689-1.513Zm5.13-.315H50.6a9.075,9.075,0,0,0,1.362-.075v1.1a8.546,8.546,0,0,0-1.349-.088H46.231a8.317,8.317,0,0,0-1.348.088v-1.1a9.091,9.091,0,0,0,1.348.075h1.588v-5.129H46.685a11.877,11.877,0,0,0-1.21.063V238.8a7.6,7.6,0,0,0,1.21.076h1.134V236.34a7.455,7.455,0,0,0-.088-1.172h1.147a6.257,6.257,0,0,0-.088,1.172v2.534h1.537a6.479,6.479,0,0,0,1.21-.076v1.034a11.663,11.663,0,0,0-1.21-.063H48.79Z"/><path class="cls-7" d="M59.335,235.219a8.19,8.19,0,0,0,2.067,2.168,13.351,13.351,0,0,0,3.353,1.89,3.662,3.662,0,0,0-.555.958,16.9,16.9,0,0,1-3.352-2.067,10.542,10.542,0,0,1-2.017-2.092,10.471,10.471,0,0,1-1.891,2.016,13.82,13.82,0,0,1-3.264,2.08,3.024,3.024,0,0,0-.579-.857,12.911,12.911,0,0,0,3.226-1.928,9.077,9.077,0,0,0,1.966-2.168ZM55.062,242.2a10.646,10.646,0,0,0-1.423.076V241.23a10.873,10.873,0,0,0,1.423.076h7.626a10.485,10.485,0,0,0,1.424-.076v1.047a10.652,10.652,0,0,0-1.424-.076H58.314a17.615,17.615,0,0,1-1.474,2.773c1.146-.063,2.974-.227,4.562-.429-.63-.68-.87-.92-1.436-1.462l.794-.453a26.906,26.906,0,0,1,2.949,3.264l-.819.592c-.429-.617-.58-.844-.845-1.172-2.092.278-4.26.5-6.112.643a15.477,15.477,0,0,0-1.954.2l-.165-1.084c.252.012.467.025.656.025s.176,0,1.248-.063a16.7,16.7,0,0,0,1.5-2.836Zm.756-3.239a7.035,7.035,0,0,0,1.009.051h4.021a7.7,7.7,0,0,0,1.058-.051v.983a8.2,8.2,0,0,0-1.058-.05H56.814a7.565,7.565,0,0,0-1,.05Z"/><path class="cls-7" d="M70.032,244.911a7.4,7.4,0,0,1-1.5.933,10.577,10.577,0,0,1-2.117.743,3.262,3.262,0,0,0-.618-.844,8.558,8.558,0,0,0,2.219-.643,4.284,4.284,0,0,0,1.234-.744Zm-1.991-8.583a9.085,9.085,0,0,0-1.173.05v-.907a7.441,7.441,0,0,0,1.185.063H74.67a7.246,7.246,0,0,0,1.172-.063v.907c-.265-.025-.668-.05-1.147-.05H71.708v1.008h3.845a7.052,7.052,0,0,0,1.3-.075v.945a11,11,0,0,0-1.274-.063H67.158a9.482,9.482,0,0,0-1.285.075v-.957a8.928,8.928,0,0,0,1.3.075h3.592v-1.008Zm.453,8a11.277,11.277,0,0,0-1.336.063,9.684,9.684,0,0,0,.064-1.436v-2.735a11.4,11.4,0,0,0-.064-1.349c.365.025.63.038,1.362.038h5.646c.743,0,1.021-.013,1.4-.038a11.222,11.222,0,0,0-.063,1.349v2.759a9.162,9.162,0,0,0,.063,1.412c-.4-.038-.844-.063-1.324-.063H73.195a5.763,5.763,0,0,0,1.135.618,9.774,9.774,0,0,0,2.559.706,3,3,0,0,0-.5.894,10.682,10.682,0,0,1-3.882-1.625l.681-.593Zm-.365-3.882H74.6v-.819H68.129Zm0,1.551H74.6v-.82H68.129Zm0,1.6H74.6v-.87H68.129Z"/><path class="cls-7" d="M83.135,238.244c.6,0,.92-.013,1.261-.038a9.911,9.911,0,0,0-.051,1.2v6.075c1.058-1.2,1.714-3.327,1.89-6.15H85.9a8.256,8.256,0,0,0-1.2.075v-.983a8.42,8.42,0,0,0,1.185.063h.378l.012-.958v-.958a9.646,9.646,0,0,0-.063-1.336h1.021a5.962,5.962,0,0,0-.038.857c0,.126,0,.441-.012.9v.479c0,.315,0,.542.025,1.021h1.033a7.319,7.319,0,0,0,1.173-.076v1a7.672,7.672,0,0,0-1.147-.075H87.244a11.966,11.966,0,0,0,.579,2.886,7.6,7.6,0,0,0,1.929,3.214,3.224,3.224,0,0,0-.593.97,9.836,9.836,0,0,1-2.382-5.634,12.323,12.323,0,0,1-.655,3.315,7.712,7.712,0,0,1-1.273,2.307,3.074,3.074,0,0,0-.554-.681c-.139.378-.416.5-1.084.5-.139,0-.315,0-.794-.025a2.432,2.432,0,0,0-.189-.9,6.72,6.72,0,0,0,.945.1c.265,0,.352-.076.352-.29v-6.087H79.518v5.911a11.174,11.174,0,0,0,.063,1.525H78.61a9.58,9.58,0,0,0,.076-1.525V239.4c0-.567-.013-.844-.038-1.2.328.025.63.038,1.248.038h1.209V237.16H79.392a7.15,7.15,0,0,0-1.135.075V236.3a7.739,7.739,0,0,0,1.185.075h1.663V236.1a5.683,5.683,0,0,0-.075-.908h1.021a3.589,3.589,0,0,0-.075.895v.29h1.549a8.192,8.192,0,0,0,1.21-.075v.932a7.423,7.423,0,0,0-1.172-.075H81.976v1.084Zm-1.488,2.672a7.807,7.807,0,0,0,.619-1.727l.755.239a12.141,12.141,0,0,1-.693,1.488,3.761,3.761,0,0,0,.9-.063v.832a5,5,0,0,0-.845-.051h-.467v1.1h.416a3.6,3.6,0,0,0,.845-.063v.845a4.993,4.993,0,0,0-.845-.051h-.416v1.173a10.054,10.054,0,0,0,.051,1.222H81.08a7.054,7.054,0,0,0,.064-1.222v-1.173h-.416a5.092,5.092,0,0,0-.845.051v-.845a3.664,3.664,0,0,0,.845.063h.416v-1.1H80.7a5.039,5.039,0,0,0-.856.051v-.832a3.9,3.9,0,0,0,.856.063Zm-.907-1.7a8.7,8.7,0,0,1,.542,1.374l-.668.265a5.878,5.878,0,0,0-.542-1.4Zm7.84-1.185a8.22,8.22,0,0,0-1.122-1.991l.668-.378a9.312,9.312,0,0,1,1.159,1.878Z"/><path class="cls-7" d="M99.528,237.008a1.494,1.494,0,0,1-.113-.579,1.476,1.476,0,0,1,1.475-1.475,1.481,1.481,0,1,1,0,2.962,1.291,1.291,0,0,1-.316-.038,10.254,10.254,0,0,1-6.793,8.205l-.58-.945A9.3,9.3,0,0,0,99.415,238H91.853v-1Zm.542-.567a.8.8,0,0,0,.82.832.832.832,0,1,0,0-1.664A.8.8,0,0,0,100.07,236.441Z"/><path class="cls-7" d="M105.688,244.457v1.059h-1.072V236.87h8.395v8.52h-1.072v-.933Zm6.251-6.617h-6.251v5.647h6.251Z"/><path class="cls-7" d="M117.241,239a14.57,14.57,0,0,1,3.076,1.538l-.53.92a16.827,16.827,0,0,0-3.037-1.6Zm-.214,5.8c3.946-.592,6.844-2.394,8.521-6.074l.894.693c-1.827,3.9-4.878,5.734-9.112,6.465Zm1.285-8.721a12.813,12.813,0,0,1,3,1.5l-.529.92a15.767,15.767,0,0,0-2.962-1.576Zm6.088-.656a9.677,9.677,0,0,1,1.046,2.219l-.794.29a9.067,9.067,0,0,0-1-2.257Zm1.462-.516a8.958,8.958,0,0,1,1.135,2.18l-.794.3a7.386,7.386,0,0,0-1.058-2.219Z"/><path class="cls-7" d="M133.256,244.634v-4.475h-3.063v-.894h7.172v.894h-3.088v4.475h3.769v.907h-8.483v-.907Z"/><path class="cls-7" d="M149.877,237.424l.566.668a12.279,12.279,0,0,1-6.919,8l-.731-.883a11.406,11.406,0,0,0,6.416-6.856H145.15a12.691,12.691,0,0,1-2.7,2.747l-.731-.629a12.075,12.075,0,0,0,3.832-5.029l1.084.34a13.515,13.515,0,0,1-.87,1.638Z"/><path class="cls-7" d="M157.876,239.277a24.41,24.41,0,0,1,5.13,2.256l-.5,1.021a27.025,27.025,0,0,0-4.626-2.218V246h-1.1v-10.36h1.1Z"/><path class="cls-7" d="M36.9,259.972a2.773,2.773,0,1,1-2.772-2.773A2.772,2.772,0,0,1,36.9,259.972Z"/><path class="cls-7" d="M43.85,259.236a14.181,14.181,0,0,1,2,1.789,12.735,12.735,0,0,0,3.655-4H41.278v-1H50.4l.568.668a14.886,14.886,0,0,1-4.462,5.042,24.532,24.532,0,0,1,1.575,2.017l-.958.668a19.967,19.967,0,0,0-3.97-4.538Z"/><path class="cls-7" d="M59.071,264.844H57.949v-6.087a22.877,22.877,0,0,1-4.235,2.105l-.63-.858a19.071,19.071,0,0,0,8.066-5.457l1.009.706A21.774,21.774,0,0,1,59.071,258Z"/><path class="cls-7" d="M73.624,256.324l.566.668a12.279,12.279,0,0,1-6.919,8l-.731-.883a11.406,11.406,0,0,0,6.416-6.856H68.9A12.645,12.645,0,0,1,66.2,260l-.731-.629a12.075,12.075,0,0,0,3.832-5.029l1.084.34a13.515,13.515,0,0,1-.87,1.638Z"/><path class="cls-7" d="M78.926,263.357v1.059H77.854V255.77h8.395v8.52H85.178v-.933Zm6.252-6.617H78.926v5.647h6.252Z"/><path class="cls-7" d="M98.434,258.605c-.871,3.4-2.9,5.307-6.328,6.34l-.542-.932c3.113-.845,4.941-2.572,5.671-5.08H89.572v-.983h8.269Zm-1.223-3.478v.971H90.758v-.971Z"/><path class="cls-7" d="M111.058,259.1v1.109H101.024V259.1Z"/><path class="cls-7" d="M123.053,262.4v1.021H113.02V262.4Zm-8.886-6.163h7.726v1.021h-7.726Z"/><path class="cls-7" d="M126.352,255.442a16.494,16.494,0,0,1,2.986,2.42l-.819.857a16.9,16.9,0,0,0-2.848-2.558Zm-.429,8.041c3.844-.844,6.743-2.949,8.116-6.654l.983.579c-1.461,3.933-4.65,6.189-8.772,7.084Z"/><path class="cls-7" d="M145.34,256.45l.567.668a12.279,12.279,0,0,1-6.919,8l-.731-.883a11.467,11.467,0,0,0,6.415-6.856h-4.058a12.742,12.742,0,0,1-2.7,2.748l-.731-.631a12.066,12.066,0,0,0,3.832-5.028l1.084.34a13.522,13.522,0,0,1-.871,1.638Zm.328-2.47a8.92,8.92,0,0,1,1.046,2.206l-.794.3a9.459,9.459,0,0,0-.983-2.269Zm1.462-.529a8.527,8.527,0,0,1,1.135,2.18l-.782.3a7.933,7.933,0,0,0-1.059-2.206Z"/><path class="cls-8" d="M97.419,123.876H92.664l3.789-10.164a20.948,20.948,0,1,1,31.811,12.675v20.624H109.372V135.443H97.419Z"/><path class="cls-9" d="M81.148,87.605a9,9,0,0,0-6.24,15.4,5.99,5.99,0,0,1,1.735,3.8l.395,4.924a2.61,2.61,0,0,0,2.6,2.4h3.015a2.609,2.609,0,0,0,2.6-2.4c.4-4.95.185-6.8,2.131-8.723A9,9,0,0,0,81.148,87.605Z"/><path class="cls-10" d="M79.455,110.3h-.009a.725.725,0,0,1-.716-.733l.118-10.588-2.115-2.448a.724.724,0,0,1,1.1-.947L80.3,98.45l-.125,11.135a.723.723,0,0,1-.722.717"/><path class="cls-10" d="M83.078,110.744h.008a.724.724,0,0,0,.715-.732l-.117-10.589L85.8,96.976a.724.724,0,1,0-1.1-.946L82.23,98.892l.124,11.137a.724.724,0,0,0,.724.715"/><path class="cls-10" d="M76.629,106.682l.015.122.394,4.923a2.61,2.61,0,0,0,2.6,2.4h3.015a2.61,2.61,0,0,0,2.6-2.4c.177-2.2.233-3.791.412-5.045Z"/><path class="cls-10" d="M77.373,82.11a.573.573,0,0,0-1.047.467l1.2,2.7a.573.573,0,1,0,1.047-.467Z"/><path class="cls-10" d="M81.168,80.865a.573.573,0,0,0-.583.563l-.051,2.957a.572.572,0,0,0,.561.582l.244-.05a.569.569,0,0,0,.34-.512l.051-2.957a.573.573,0,0,0-.562-.583"/><path class="cls-10" d="M85.7,81.922a.574.574,0,0,0-.766.264l-1.3,2.658a.572.572,0,0,0,.747.774.564.564,0,0,0,.282-.272l1.3-2.658a.572.572,0,0,0-.263-.766"/><path class="cls-10" d="M117.923,101.642h-4.994l-.908,2.53a1.058,1.058,0,0,1-1.087.827,1.091,1.091,0,0,1-1.2-1.1,1.331,1.331,0,0,1,.1-.519l3.989-10.411c.163-.406.6-1.33,1.541-1.33a1.715,1.715,0,0,1,1.671,1.33l3.973,10.411a1.328,1.328,0,0,1,.114.471,1.15,1.15,0,0,1-1.265,1.167,1.1,1.1,0,0,1-1.038-.843Zm-4.232-2.173h3.47l-1.735-4.978Z"/><path class="cls-10" d="M113.518,111.475a.758.758,0,0,1-.43.141.651.651,0,0,1-.661-.68.588.588,0,0,1,.231-.49l2.2-1.509a.908.908,0,0,1,.59-.2.69.69,0,0,1,.769.659v6.878a.647.647,0,0,1-.669.7.669.669,0,0,1-.69-.719v-5.7Z"/><path class="cls-10" d="M120.249,116.794a.808.808,0,0,1-.889-.869c0-1.64,2.03-2.8,2.649-3.13,1.659-.88,2.179-1.169,2.179-1.769,0-.47-.549-.94-1.559-.94-.54,0-1.5.05-1.829.919-.11.291-.22.571-.67.571a.737.737,0,0,1-.76-.72c0-.6.719-2.119,3.159-2.119,1.709,0,3.07.819,3.07,2.229s-.96,1.93-3.54,3.319c-1.01.54-1.149,1.08-1.149,1.2,0,.05.05.05.079.05h3.87c.619,0,.749.341.749.611,0,.15-.05.649-.749.649Z"/><path class="cls-10" d="M128.931,113.335a.642.642,0,0,1-.65-.659.611.611,0,0,1,.58-.65h1.1c1.02,0,1.6-.56,1.6-1.071,0-.688-.871-.869-1.41-.869a1.7,1.7,0,0,0-1.529.7c-.381.5-.491.55-.74.55a.684.684,0,0,1-.76-.67c0-.81,1.159-1.929,3.029-1.929,1.68,0,2.829.89,2.829,2.158a1.935,1.935,0,0,1-1.089,1.7,1.944,1.944,0,0,1,1.22,1.85c0,1.38-1.19,2.529-3.109,2.529-2.05,0-3.14-1.309-3.14-1.929a.758.758,0,0,1,.739-.71c.271,0,.36.091.811.559a2.353,2.353,0,0,0,1.669.731c.59,0,1.609-.32,1.609-1.17,0-.81-.929-1.12-1.589-1.12Z"/><rect class="cls-10" x="100.204" y="108.417" width="1.791" height="5.712"/></g></g></svg>