<svg version="1.1" xmlns="http://www.w3.org/2000/svg" xmlns:xlink="http://www.w3.org/1999/xlink" x="0" y="0" width="600" height="320" viewBox="0 0 600 320" xml:space="preserve"><path fill="#FFF" d="M0 0h600v319H0z"/><g fill="#9D9D9E"><path d="M62 268h1v1h-1zM69 268h-3v1h3v-1zm5 0h-3v1h3v-1zm6 0h-3v1h3v-1zm5 0h-3v1h3v-1zm5 0h-3v1h3v-1zm6 0h-3v1h3v-1zm5 0h-3v1h3v-1zm6 0h-3v1h3v-1zm5 0h-3v1h3v-1zm6 0h-3v1h3v-1zm5 0h-3v1h3v-1zm5 0h-3v1h3v-1zm6 0h-3v1h3v-1zm5 0h-3v1h3v-1zm6 0h-3v1h3v-1zm5 0h-3v1h3v-1zm6 0h-3v1h3v-1zm5 0h-3v1h3v-1zm5 0h-3v1h3v-1zm6 0h-3v1h3v-1zm5 0h-3v1h3v-1zm6 0h-3v1h3v-1zm5 0h-3v1h3v-1zm6 0h-3v1h3v-1zm5 0h-3v1h3v-1zm5 0h-3v1h3v-1zm6 0h-3v1h3v-1zm5 0h-3v1h3v-1zm6 0h-3v1h3v-1zm5 0h-3v1h3v-1zm6 0h-3v1h3v-1zm5 0h-3v1h3v-1zm6 0h-3v1h3v-1zm5 0h-3v1h3v-1zm5 0h-3v1h3v-1zm6 0h-3v1h3v-1zm5 0h-3v1h3v-1zm6 0h-3v1h3v-1zm5 0h-3v1h3v-1zm6 0h-3v1h3v-1zm5 0h-3v1h3v-1zm5 0h-3v1h3v-1zm6 0h-3v1h3v-1zm5 0h-3v1h3v-1zm6 0h-3v1h3v-1zm5 0h-3v1h3v-1zm6 0h-3v1h3v-1zm5 0h-3v1h3v-1zm5 0h-3v1h3v-1zm6 0h-3v1h3v-1zm5 0h-3v1h3v-1zm6 0h-3v1h3v-1zm5 0h-3v1h3v-1zm6 0h-3v1h3v-1zm5 0h-3v1h3v-1zm5 0h-3v1h3v-1zm6 0h-3v1h3v-1zm5 0h-3v1h3v-1zm6 0h-3v1h3v-1zm5 0h-3v1h3v-1zm6 0h-3v1h3v-1zm5 0h-3v1h3v-1zm6 0h-3v1h3v-1zm5 0h-3v1h3v-1zm5 0h-3v1h3v-1zm6 0h-3v1h3v-1zm5 0h-3v1h3v-1zm6 0h-3v1h3v-1zm5 0h-3v1h3v-1zm6 0h-3v1h3v-1zm5 0h-3v1h3v-1zm5 0h-3v1h3v-1zm6 0h-3v1h3v-1zm5 0h-3v1h3v-1zm6 0h-3v1h3v-1zm5 0h-3v1h3v-1zm6 0h-3v1h3v-1zm5 0h-3v1h3v-1zm5 0h-3v1h3v-1zm6 0h-3v1h3v-1zm5 0h-3v1h3v-1zm6 0h-3v1h3v-1zm5 0h-3v1h3v-1zm6 0h-3v1h3v-1zm5 0h-3v1h3v-1zm5 0h-3v1h3v-1zm6 0h-3v1h3v-1zm5 0h-3v1h3v-1zm6 0h-3v1h3v-1zm5 0h-3v1h3v-1zM555 268h1v1h-1z"/></g><g fill="#9D9D9E"><path d="M62 237h1v1h-1zM69 237h-3v1h3v-1zm5 0h-3v1h3v-1zm6 0h-3v1h3v-1zm5 0h-3v1h3v-1zm5 0h-3v1h3v-1zm6 0h-3v1h3v-1zm5 0h-3v1h3v-1zm6 0h-3v1h3v-1zm5 0h-3v1h3v-1zm6 0h-3v1h3v-1zm5 0h-3v1h3v-1zm5 0h-3v1h3v-1zm6 0h-3v1h3v-1zm5 0h-3v1h3v-1zm6 0h-3v1h3v-1zm5 0h-3v1h3v-1zm6 0h-3v1h3v-1zm5 0h-3v1h3v-1zm5 0h-3v1h3v-1zm6 0h-3v1h3v-1zm5 0h-3v1h3v-1zm6 0h-3v1h3v-1zm5 0h-3v1h3v-1zm6 0h-3v1h3v-1zm5 0h-3v1h3v-1zm5 0h-3v1h3v-1zm6 0h-3v1h3v-1zm5 0h-3v1h3v-1zm6 0h-3v1h3v-1zm5 0h-3v1h3v-1zm6 0h-3v1h3v-1zm5 0h-3v1h3v-1zm6 0h-3v1h3v-1zm5 0h-3v1h3v-1zm5 0h-3v1h3v-1zm6 0h-3v1h3v-1zm5 0h-3v1h3v-1zm6 0h-3v1h3v-1zm5 0h-3v1h3v-1zm6 0h-3v1h3v-1zm5 0h-3v1h3v-1zm5 0h-3v1h3v-1zm6 0h-3v1h3v-1zm5 0h-3v1h3v-1zm6 0h-3v1h3v-1zm5 0h-3v1h3v-1zm6 0h-3v1h3v-1zm5 0h-3v1h3v-1zm5 0h-3v1h3v-1zm6 0h-3v1h3v-1zm5 0h-3v1h3v-1zm6 0h-3v1h3v-1zm5 0h-3v1h3v-1zm6 0h-3v1h3v-1zm5 0h-3v1h3v-1zm5 0h-3v1h3v-1zm6 0h-3v1h3v-1zm5 0h-3v1h3v-1zm6 0h-3v1h3v-1zm5 0h-3v1h3v-1zm6 0h-3v1h3v-1zm5 0h-3v1h3v-1zm6 0h-3v1h3v-1zm5 0h-3v1h3v-1zm5 0h-3v1h3v-1zm6 0h-3v1h3v-1zm5 0h-3v1h3v-1zm6 0h-3v1h3v-1zm5 0h-3v1h3v-1zm6 0h-3v1h3v-1zm5 0h-3v1h3v-1zm5 0h-3v1h3v-1zm6 0h-3v1h3v-1zm5 0h-3v1h3v-1zm6 0h-3v1h3v-1zm5 0h-3v1h3v-1zm6 0h-3v1h3v-1zm5 0h-3v1h3v-1zm5 0h-3v1h3v-1zm6 0h-3v1h3v-1zm5 0h-3v1h3v-1zm6 0h-3v1h3v-1zm5 0h-3v1h3v-1zm6 0h-3v1h3v-1zm5 0h-3v1h3v-1zm5 0h-3v1h3v-1zm6 0h-3v1h3v-1zm5 0h-3v1h3v-1zm6 0h-3v1h3v-1zm5 0h-3v1h3v-1zM555 237h1v1h-1z"/></g><g fill="#9D9D9E"><path d="M62 206h1v1h-1zM69 206h-3v1h3v-1zm5 0h-3v1h3v-1zm6 0h-3v1h3v-1zm5 0h-3v1h3v-1zm5 0h-3v1h3v-1zm6 0h-3v1h3v-1zm5 0h-3v1h3v-1zm6 0h-3v1h3v-1zm5 0h-3v1h3v-1zm6 0h-3v1h3v-1zm5 0h-3v1h3v-1zm5 0h-3v1h3v-1zm6 0h-3v1h3v-1zm5 0h-3v1h3v-1zm6 0h-3v1h3v-1zm5 0h-3v1h3v-1zm6 0h-3v1h3v-1zm5 0h-3v1h3v-1zm5 0h-3v1h3v-1zm6 0h-3v1h3v-1zm5 0h-3v1h3v-1zm6 0h-3v1h3v-1zm5 0h-3v1h3v-1zm6 0h-3v1h3v-1zm5 0h-3v1h3v-1zm5 0h-3v1h3v-1zm6 0h-3v1h3v-1zm5 0h-3v1h3v-1zm6 0h-3v1h3v-1zm5 0h-3v1h3v-1zm6 0h-3v1h3v-1zm5 0h-3v1h3v-1zm6 0h-3v1h3v-1zm5 0h-3v1h3v-1zm5 0h-3v1h3v-1zm6 0h-3v1h3v-1zm5 0h-3v1h3v-1zm6 0h-3v1h3v-1zm5 0h-3v1h3v-1zm6 0h-3v1h3v-1zm5 0h-3v1h3v-1zm5 0h-3v1h3v-1zm6 0h-3v1h3v-1zm5 0h-3v1h3v-1zm6 0h-3v1h3v-1zm5 0h-3v1h3v-1zm6 0h-3v1h3v-1zm5 0h-3v1h3v-1zm5 0h-3v1h3v-1zm6 0h-3v1h3v-1zm5 0h-3v1h3v-1zm6 0h-3v1h3v-1zm5 0h-3v1h3v-1zm6 0h-3v1h3v-1zm5 0h-3v1h3v-1zm5 0h-3v1h3v-1zm6 0h-3v1h3v-1zm5 0h-3v1h3v-1zm6 0h-3v1h3v-1zm5 0h-3v1h3v-1zm6 0h-3v1h3v-1zm5 0h-3v1h3v-1zm6 0h-3v1h3v-1zm5 0h-3v1h3v-1zm5 0h-3v1h3v-1zm6 0h-3v1h3v-1zm5 0h-3v1h3v-1zm6 0h-3v1h3v-1zm5 0h-3v1h3v-1zm6 0h-3v1h3v-1zm5 0h-3v1h3v-1zm5 0h-3v1h3v-1zm6 0h-3v1h3v-1zm5 0h-3v1h3v-1zm6 0h-3v1h3v-1zm5 0h-3v1h3v-1zm6 0h-3v1h3v-1zm5 0h-3v1h3v-1zm5 0h-3v1h3v-1zm6 0h-3v1h3v-1zm5 0h-3v1h3v-1zm6 0h-3v1h3v-1zm5 0h-3v1h3v-1zm6 0h-3v1h3v-1zm5 0h-3v1h3v-1zm5 0h-3v1h3v-1zm6 0h-3v1h3v-1zm5 0h-3v1h3v-1zm6 0h-3v1h3v-1zm5 0h-3v1h3v-1zM555 206h1v1h-1z"/></g><g fill="#9D9D9E"><path d="M62 174h1v1h-1zM69 174h-3v1h3v-1zm5 0h-3v1h3v-1zm6 0h-3v1h3v-1zm5 0h-3v1h3v-1zm5 0h-3v1h3v-1zm6 0h-3v1h3v-1zm5 0h-3v1h3v-1zm6 0h-3v1h3v-1zm5 0h-3v1h3v-1zm6 0h-3v1h3v-1zm5 0h-3v1h3v-1zm5 0h-3v1h3v-1zm6 0h-3v1h3v-1zm5 0h-3v1h3v-1zm6 0h-3v1h3v-1zm5 0h-3v1h3v-1zm6 0h-3v1h3v-1zm5 0h-3v1h3v-1zm5 0h-3v1h3v-1zm6 0h-3v1h3v-1zm5 0h-3v1h3v-1zm6 0h-3v1h3v-1zm5 0h-3v1h3v-1zm6 0h-3v1h3v-1zm5 0h-3v1h3v-1zm5 0h-3v1h3v-1zm6 0h-3v1h3v-1zm5 0h-3v1h3v-1zm6 0h-3v1h3v-1zm5 0h-3v1h3v-1zm6 0h-3v1h3v-1zm5 0h-3v1h3v-1zm6 0h-3v1h3v-1zm5 0h-3v1h3v-1zm5 0h-3v1h3v-1zm6 0h-3v1h3v-1zm5 0h-3v1h3v-1zm6 0h-3v1h3v-1zm5 0h-3v1h3v-1zm6 0h-3v1h3v-1zm5 0h-3v1h3v-1zm5 0h-3v1h3v-1zm6 0h-3v1h3v-1zm5 0h-3v1h3v-1zm6 0h-3v1h3v-1zm5 0h-3v1h3v-1zm6 0h-3v1h3v-1zm5 0h-3v1h3v-1zm5 0h-3v1h3v-1zm6 0h-3v1h3v-1zm5 0h-3v1h3v-1zm6 0h-3v1h3v-1zm5 0h-3v1h3v-1zm6 0h-3v1h3v-1zm5 0h-3v1h3v-1zm5 0h-3v1h3v-1zm6 0h-3v1h3v-1zm5 0h-3v1h3v-1zm6 0h-3v1h3v-1zm5 0h-3v1h3v-1zm6 0h-3v1h3v-1zm5 0h-3v1h3v-1zm6 0h-3v1h3v-1zm5 0h-3v1h3v-1zm5 0h-3v1h3v-1zm6 0h-3v1h3v-1zm5 0h-3v1h3v-1zm6 0h-3v1h3v-1zm5 0h-3v1h3v-1zm6 0h-3v1h3v-1zm5 0h-3v1h3v-1zm5 0h-3v1h3v-1zm6 0h-3v1h3v-1zm5 0h-3v1h3v-1zm6 0h-3v1h3v-1zm5 0h-3v1h3v-1zm6 0h-3v1h3v-1zm5 0h-3v1h3v-1zm5 0h-3v1h3v-1zm6 0h-3v1h3v-1zm5 0h-3v1h3v-1zm6 0h-3v1h3v-1zm5 0h-3v1h3v-1zm6 0h-3v1h3v-1zm5 0h-3v1h3v-1zm5 0h-3v1h3v-1zm6 0h-3v1h3v-1zm5 0h-3v1h3v-1zm6 0h-3v1h3v-1zm5 0h-3v1h3v-1zM555 174h1v1h-1z"/></g><g fill="#9D9D9E"><path d="M62 143h1v1h-1zM69 143h-3v1h3v-1zm5 0h-3v1h3v-1zm6 0h-3v1h3v-1zm5 0h-3v1h3v-1zm5 0h-3v1h3v-1zm6 0h-3v1h3v-1zm5 0h-3v1h3v-1zm6 0h-3v1h3v-1zm5 0h-3v1h3v-1zm6 0h-3v1h3v-1zm5 0h-3v1h3v-1zm5 0h-3v1h3v-1zm6 0h-3v1h3v-1zm5 0h-3v1h3v-1zm6 0h-3v1h3v-1zm5 0h-3v1h3v-1zm6 0h-3v1h3v-1zm5 0h-3v1h3v-1zm5 0h-3v1h3v-1zm6 0h-3v1h3v-1zm5 0h-3v1h3v-1zm6 0h-3v1h3v-1zm5 0h-3v1h3v-1zm6 0h-3v1h3v-1zm5 0h-3v1h3v-1zm5 0h-3v1h3v-1zm6 0h-3v1h3v-1zm5 0h-3v1h3v-1zm6 0h-3v1h3v-1zm5 0h-3v1h3v-1zm6 0h-3v1h3v-1zm5 0h-3v1h3v-1zm6 0h-3v1h3v-1zm5 0h-3v1h3v-1zm5 0h-3v1h3v-1zm6 0h-3v1h3v-1zm5 0h-3v1h3v-1zm6 0h-3v1h3v-1zm5 0h-3v1h3v-1zm6 0h-3v1h3v-1zm5 0h-3v1h3v-1zm5 0h-3v1h3v-1zm6 0h-3v1h3v-1zm5 0h-3v1h3v-1zm6 0h-3v1h3v-1zm5 0h-3v1h3v-1zm6 0h-3v1h3v-1zm5 0h-3v1h3v-1zm5 0h-3v1h3v-1zm6 0h-3v1h3v-1zm5 0h-3v1h3v-1zm6 0h-3v1h3v-1zm5 0h-3v1h3v-1zm6 0h-3v1h3v-1zm5 0h-3v1h3v-1zm5 0h-3v1h3v-1zm6 0h-3v1h3v-1zm5 0h-3v1h3v-1zm6 0h-3v1h3v-1zm5 0h-3v1h3v-1zm6 0h-3v1h3v-1zm5 0h-3v1h3v-1zm6 0h-3v1h3v-1zm5 0h-3v1h3v-1zm5 0h-3v1h3v-1zm6 0h-3v1h3v-1zm5 0h-3v1h3v-1zm6 0h-3v1h3v-1zm5 0h-3v1h3v-1zm6 0h-3v1h3v-1zm5 0h-3v1h3v-1zm5 0h-3v1h3v-1zm6 0h-3v1h3v-1zm5 0h-3v1h3v-1zm6 0h-3v1h3v-1zm5 0h-3v1h3v-1zm6 0h-3v1h3v-1zm5 0h-3v1h3v-1zm5 0h-3v1h3v-1zm6 0h-3v1h3v-1zm5 0h-3v1h3v-1zm6 0h-3v1h3v-1zm5 0h-3v1h3v-1zm6 0h-3v1h3v-1zm5 0h-3v1h3v-1zm5 0h-3v1h3v-1zm6 0h-3v1h3v-1zm5 0h-3v1h3v-1zm6 0h-3v1h3v-1zm5 0h-3v1h3v-1zM555 143h1v1h-1z"/></g><g fill="#9D9D9E"><path d="M62 112h1.1v.5H62zM69 112h-3v1h3v-1zm5 0h-3v1h3v-1zm6 0h-3v1h3v-1zm5 0h-3v1h3v-1zm5 0h-3v1h3v-1zm6 0h-3v1h3v-1zm5 0h-3v1h3v-1zm6 0h-3v1h3v-1zm5 0h-3v1h3v-1zm6 0h-3v1h3v-1zm5 0h-3v1h3v-1zm5 0h-3v1h3v-1zm6 0h-3v1h3v-1zm5 0h-3v1h3v-1zm6 0h-3v1h3v-1zm5 0h-3v1h3v-1zm6 0h-3v1h3v-1zm5 0h-3v1h3v-1zm5 0h-3v1h3v-1zm6 0h-3v1h3v-1zm5 0h-3v1h3v-1zm6 0h-3v1h3v-1zm5 0h-3v1h3v-1zm6 0h-3v1h3v-1zm5 0h-3v1h3v-1zm5 0h-3v1h3v-1zm6 0h-3v1h3v-1zm5 0h-3v1h3v-1zm6 0h-3v1h3v-1zm5 0h-3v1h3v-1zm6 0h-3v1h3v-1zm5 0h-3v1h3v-1zm6 0h-3v1h3v-1zm5 0h-3v1h3v-1zm5 0h-3v1h3v-1zm6 0h-3v1h3v-1zm5 0h-3v1h3v-1zm6 0h-3v1h3v-1zm5 0h-3v1h3v-1zm6 0h-3v1h3v-1zm5 0h-3v1h3v-1zm5 0h-3v1h3v-1zm6 0h-3v1h3v-1zm5 0h-3v1h3v-1zm6 0h-3v1h3v-1zm5 0h-3v1h3v-1zm6 0h-3v1h3v-1zm5 0h-3v1h3v-1zm5 0h-3v1h3v-1zm6 0h-3v1h3v-1zm5 0h-3v1h3v-1zm6 0h-3v1h3v-1zm5 0h-3v1h3v-1zm6 0h-3v1h3v-1zm5 0h-3v1h3v-1zm5 0h-3v1h3v-1zm6 0h-3v1h3v-1zm5 0h-3v1h3v-1zm6 0h-3v1h3v-1zm5 0h-3v1h3v-1zm6 0h-3v1h3v-1zm5 0h-3v1h3v-1zm6 0h-3v1h3v-1zm5 0h-3v1h3v-1zm5 0h-3v1h3v-1zm6 0h-3v1h3v-1zm5 0h-3v1h3v-1zm6 0h-3v1h3v-1zm5 0h-3v1h3v-1zm6 0h-3v1h3v-1zm5 0h-3v1h3v-1zm5 0h-3v1h3v-1zm6 0h-3v1h3v-1zm5 0h-3v1h3v-1zm6 0h-3v1h3v-1zm5 0h-3v1h3v-1zm6 0h-3v1h3v-1zm5 0h-3v1h3v-1zm5 0h-3v1h3v-1zm6 0h-3v1h3v-1zm5 0h-3v1h3v-1zm6 0h-3v1h3v-1zm5 0h-3v1h3v-1zm6 0h-3v1h3v-1zm5 0h-3v1h3v-1zm5 0h-3v1h3v-1zm6 0h-3v1h3v-1zm5 0h-3v1h3v-1zm6 0h-3v1h3v-1zm5 0h-3v1h3v-1zM554.9 112h1.4v.5h-1.4z"/></g><g fill="#9D9D9E"><path d="M62 80h1v1h-1zM69 80h-3v1h3v-1zm5 0h-3v1h3v-1zm6 0h-3v1h3v-1zm5 0h-3v1h3v-1zm5 0h-3v1h3v-1zm6 0h-3v1h3v-1zm5 0h-3v1h3v-1zm6 0h-3v1h3v-1zm5 0h-3v1h3v-1zm6 0h-3v1h3v-1zm5 0h-3v1h3v-1zm5 0h-3v1h3v-1zm6 0h-3v1h3v-1zm5 0h-3v1h3v-1zm6 0h-3v1h3v-1zm5 0h-3v1h3v-1zm6 0h-3v1h3v-1zm5 0h-3v1h3v-1zm5 0h-3v1h3v-1zm6 0h-3v1h3v-1zm5 0h-3v1h3v-1zm6 0h-3v1h3v-1zm5 0h-3v1h3v-1zm6 0h-3v1h3v-1zm5 0h-3v1h3v-1zm5 0h-3v1h3v-1zm6 0h-3v1h3v-1zm5 0h-3v1h3v-1zm6 0h-3v1h3v-1zm5 0h-3v1h3v-1zm6 0h-3v1h3v-1zm5 0h-3v1h3v-1zm6 0h-3v1h3v-1zm5 0h-3v1h3v-1zm5 0h-3v1h3v-1zm6 0h-3v1h3v-1zm5 0h-3v1h3v-1zm6 0h-3v1h3v-1zm5 0h-3v1h3v-1zm6 0h-3v1h3v-1zm5 0h-3v1h3v-1zm5 0h-3v1h3v-1zm6 0h-3v1h3v-1zm5 0h-3v1h3v-1zm6 0h-3v1h3v-1zm5 0h-3v1h3v-1zm6 0h-3v1h3v-1zm5 0h-3v1h3v-1zm5 0h-3v1h3v-1zm6 0h-3v1h3v-1zm5 0h-3v1h3v-1zm6 0h-3v1h3v-1zm5 0h-3v1h3v-1zm6 0h-3v1h3v-1zm5 0h-3v1h3v-1zm5 0h-3v1h3v-1zm6 0h-3v1h3v-1zm5 0h-3v1h3v-1zm6 0h-3v1h3v-1zm5 0h-3v1h3v-1zm6 0h-3v1h3v-1zm5 0h-3v1h3v-1zm6 0h-3v1h3v-1zm5 0h-3v1h3v-1zm5 0h-3v1h3v-1zm6 0h-3v1h3v-1zm5 0h-3v1h3v-1zm6 0h-3v1h3v-1zm5 0h-3v1h3v-1zm6 0h-3v1h3v-1zm5 0h-3v1h3v-1zm5 0h-3v1h3v-1zm6 0h-3v1h3v-1zm5 0h-3v1h3v-1zm6 0h-3v1h3v-1zm5 0h-3v1h3v-1zm6 0h-3v1h3v-1zm5 0h-3v1h3v-1zm5 0h-3v1h3v-1zm6 0h-3v1h3v-1zm5 0h-3v1h3v-1zm6 0h-3v1h3v-1zm5 0h-3v1h3v-1zm6 0h-3v1h3v-1zm5 0h-3v1h3v-1zm5 0h-3v1h3v-1zm6 0h-3v1h3v-1zm5 0h-3v1h3v-1zm6 0h-3v1h3v-1zm5 0h-3v1h3v-1zM555 80h1v1h-1z"/></g><g><path fill="#241A17" d="M61.7 37.5h-.2v262.8h494.8v-.5.3H61.7V37.5"/><path fill="#231916" d="M61.7 237.2h.3v.5h-.3zM61.7 205.9h.3v.5h-.3zM61.7 174.6h.3v.5h-.3zM61.7 143.3h.3v.5h-.3zM61.7 112h.3v.5h-.3zM61.7 80.7h.3v.5h-.3z"/></g><path fill="#241916" d="M126.3 315.4c-.1.5-.4.9-.7 1.3-.2.2-.5.4-.9.6-.4.2-.8.2-1.3.2s-1-.1-1.4-.2c-.4-.2-.7-.4-.9-.6-.3-.3-.5-.6-.6-.9-.1-.3-.2-.7-.2-1.1h1.5c.1.5.2.8.5 1.1.3.3.6.4 1.1.4.5 0 .8-.1 1.1-.4.2-.2.4-.5.4-.8.1-.3.1-.7.1-1 0-.3 0-.6-.1-.9 0-.3-.1-.5-.2-.7-.1-.2-.3-.4-.5-.5-.2-.1-.5-.2-.8-.2-.4 0-.8.1-1 .3-.2.2-.4.4-.5.7h-1.4v-5.8h5.8v1.4h-4.4v2.8c.2-.2.4-.3.7-.5.3-.1.7-.2 1-.2.4 0 .8.1 1.1.2.3.1.6.3.8.5.2.2.4.4.5.6.1.2.2.5.3.7.1.2.1.5.1.7v.8c.1.5 0 1.1-.1 1.5m-10.9 2v-9l-2.1 1.8v-1.7l2.1-1.8h1.5v10.7h-1.5zm-6.3-7.6c0-.5-.1-.9-.4-1.3-.3-.3-.7-.5-1.2-.5s-.9.2-1.1.5c-.3.3-.4.7-.4 1.3v4.7c0 .5.1.9.4 1.3.3.3.7.5 1.1.5.5 0 .9-.2 1.2-.5.3-.3.4-.7.4-1.3v-4.7zm1.3 6c-.2.4-.4.7-.7 1-.3.3-.6.5-1 .6-.4.1-.8.2-1.2.2-.4 0-.8-.1-1.2-.2-.4-.1-.7-.3-1-.6-.3-.3-.5-.6-.7-1-.2-.4-.2-.8-.2-1.3v-4.7c0-.5.1-.9.2-1.3.2-.4.4-.7.7-1 .3-.3.6-.5 1-.6.4-.1.8-.2 1.2-.2.4 0 .8.1 1.2.2.4.1.7.3 1 .6.3.3.5.6.7 1 .2.4.2.8.2 1.3v4.7c0 .4 0 .9-.2 1.3M96 317.4V316l4.1-5c.2-.3.3-.5.4-.7.1-.2.1-.5.1-.7 0-.5-.1-.9-.4-1.2-.3-.3-.7-.5-1.2-.5-.2 0-.4 0-.6.1-.2.1-.4.2-.5.3-.1.1-.3.3-.4.5-.1.2-.1.5-.1.8h-1.5c0-.5.1-.9.2-1.2.2-.4.4-.7.6-1 .3-.3.6-.5 1-.6.4-.1.8-.2 1.2-.2.5 0 .9.1 1.3.2s.7.3 1 .6c.3.3.5.6.6.9.1.4.2.8.2 1.2 0 .5-.1.9-.3 1.2-.2.3-.4.7-.8 1.1l-3.3 4.1h4.4v1.4h-6zM223.4 313c-.3-.4-.7-.5-1.2-.5s-.9.2-1.2.5c-.3.3-.5.8-.5 1.4 0 .6.1 1 .5 1.4.3.3.7.5 1.2.5s.9-.2 1.2-.5c.3-.3.5-.8.5-1.4-.1-.6-.3-1.1-.5-1.4m1.7 2.6c-.2.4-.4.7-.7 1-.3.3-.6.5-1 .7-.4.2-.8.2-1.3.2s-.9-.1-1.3-.2-.7-.4-1-.6c-.3-.3-.5-.6-.7-1-.2-.4-.2-.8-.2-1.3 0-.4.1-.9.2-1.3.2-.4.3-.9.6-1.3l2.4-5h1.6l-2.3 4.6.5-.1h.5c.4 0 .8.1 1.1.2.3.1.6.4.9.6.3.3.5.6.6 1s.2.8.2 1.3c.1.4 0 .8-.1 1.2m-10.8 1.8v-9l-2.1 1.8v-1.7l2.1-1.8h1.5v10.7h-1.5zm-6.3-7.6c0-.5-.1-.9-.4-1.3-.3-.3-.7-.5-1.2-.5s-.9.2-1.1.5c-.3.3-.4.7-.4 1.3v4.7c0 .5.1.9.4 1.3.3.3.7.5 1.1.5.5 0 .9-.2 1.2-.5.3-.3.4-.7.4-1.3v-4.7zm1.3 6c-.2.4-.4.7-.7 1-.3.3-.6.5-1 .6-.4.1-.8.2-1.2.2-.4 0-.8-.1-1.2-.2-.4-.1-.7-.3-1-.6-.3-.3-.5-.6-.7-1-.2-.4-.2-.8-.2-1.3v-4.7c0-.5.1-.9.2-1.3.2-.4.4-.7.7-1 .3-.3.6-.5 1-.6.4-.1.8-.2 1.2-.2.4 0 .8.1 1.2.2.4.1.7.3 1 .6.3.3.5.6.7 1 .2.4.2.8.2 1.3v4.7c.1.4 0 .9-.2 1.3m-14.3 1.6V316l4.1-5c.2-.3.3-.5.4-.7.1-.2.1-.5.1-.7 0-.5-.1-.9-.4-1.2-.3-.3-.7-.5-1.2-.5-.2 0-.4 0-.6.1-.2.1-.4.2-.5.3-.1.1-.3.3-.4.5-.1.2-.1.5-.1.8H195c0-.5.1-.9.2-1.2.2-.4.4-.7.6-1 .3-.3.6-.5 1-.6.4-.1.8-.2 1.2-.2.5 0 .9.1 1.3.2s.7.3 1 .6c.3.3.5.6.6.9.1.4.2.8.2 1.2 0 .5-.1.9-.3 1.2-.2.3-.4.7-.8 1.1l-3.3 4.1h4.4v1.4H195zM320.8 317.4h-1.7l3.6-9.3h-3.3v1.7H318v-3.1h6.4v1.4l-3.6 9.3zm-7.5 0v-9l-2.1 1.8v-1.7l2.1-1.8h1.5v10.7h-1.5zm-6.3-7.6c0-.5-.1-.9-.4-1.3-.3-.3-.7-.5-1.2-.5s-.9.2-1.1.5c-.3.3-.4.7-.4 1.3v4.7c0 .5.1.9.4 1.3.3.3.7.5 1.1.5.5 0 .9-.2 1.2-.5.3-.3.4-.7.4-1.3v-4.7zm1.3 6c-.2.4-.4.7-.7 1-.3.3-.6.5-1 .6-.4.1-.8.2-1.2.2-.4 0-.8-.1-1.2-.2-.4-.1-.7-.3-1-.6-.3-.3-.5-.6-.7-1-.2-.4-.2-.8-.2-1.3v-4.7c0-.5.1-.9.2-1.3.2-.4.4-.7.7-1 .3-.3.6-.5 1-.6.4-.1.8-.2 1.2-.2.4 0 .8.1 1.2.2.4.1.7.3 1 .6.3.3.5.6.7 1 .2.4.2.8.2 1.3v4.7c0 .4-.1.9-.2 1.3m-14.4 1.6V316l4.1-5c.2-.3.3-.5.4-.7.1-.2.1-.5.1-.7 0-.5-.1-.9-.4-1.2-.3-.3-.7-.5-1.2-.5-.2 0-.4 0-.6.1-.2.1-.4.2-.5.3-.1.1-.3.3-.4.5-.1.2-.1.5-.1.8h-1.5c0-.5.1-.9.2-1.2.2-.4.4-.7.6-1 .3-.3.6-.5 1-.6.4-.1.8-.2 1.2-.2.5 0 .9.1 1.3.2s.7.3 1 .6c.3.3.5.6.6.9.1.4.2.8.2 1.2 0 .5-.1.9-.3 1.2-.2.3-.4.7-.8 1.1l-3.3 4.1h4.4v1.4h-6zM421.6 313.7c-.1-.2-.2-.4-.4-.6-.2-.2-.3-.3-.6-.4-.2-.1-.4-.1-.7-.1-.3 0-.5 0-.7.1-.2.1-.4.2-.6.4-.2.2-.3.3-.4.6-.1.2-.1.4-.1.7 0 .3 0 .5.1.7s.2.4.4.6c.2.2.3.3.6.4.2.1.4.1.7.1.3 0 .5 0 .7-.1.2-.1.4-.2.6-.4.2-.2.3-.3.4-.6.1-.2.1-.4.1-.7.1-.3 0-.5-.1-.7m-.4-5.2c-.3-.3-.7-.5-1.1-.5-.5 0-.9.2-1.1.5-.3.3-.4.7-.4 1.2s.1.9.4 1.2c.3.3.7.5 1.1.5.5 0 .9-.2 1.1-.5.3-.3.4-.7.4-1.2s-.1-.9-.4-1.2m1.9 7.2c-.2.4-.4.7-.7 1-.3.3-.7.5-1.1.6-.4.1-.8.2-1.3.2s-.9-.1-1.3-.2-.7-.3-1-.6c-.3-.3-.5-.6-.7-1-.2-.4-.3-.8-.3-1.3 0-.3 0-.6.1-.9.1-.3.2-.5.3-.7.1-.2.3-.4.5-.5.2-.2.4-.3.5-.4-.4-.2-.7-.5-.9-.9-.3-.4-.4-.8-.4-1.4 0-.4.1-.9.2-1.2.2-.4.4-.7.7-.9.3-.3.6-.5 1-.6.4-.1.8-.2 1.2-.2.4 0 .8.1 1.2.2.4.1.7.3 1 .6.3.3.5.6.7.9.2.4.2.8.2 1.2 0 .6-.1 1-.4 1.4-.3.4-.6.7-.9.9.2.1.4.2.5.4l.5.5c.1.2.2.4.3.7.1.3.1.6.1.9.2.5.1.9 0 1.3m-11 1.7v-9l-2.1 1.8v-1.7l2.1-1.8h1.5v10.7h-1.5zm-6.3-7.6c0-.5-.1-.9-.4-1.3-.3-.3-.7-.5-1.2-.5s-.9.2-1.1.5c-.3.3-.4.7-.4 1.3v4.7c0 .5.1.9.4 1.3.3.3.7.5 1.1.5.5 0 .9-.2 1.2-.5.3-.3.4-.7.4-1.3v-4.7zm1.3 6c-.2.4-.4.7-.7 1-.3.3-.6.5-1 .6-.4.1-.8.2-1.2.2-.4 0-.8-.1-1.2-.2-.4-.1-.7-.3-1-.6-.3-.3-.5-.6-.7-1-.2-.4-.2-.8-.2-1.3v-4.7c0-.5.1-.9.2-1.3.2-.4.4-.7.7-1 .3-.3.6-.5 1-.6.4-.1.8-.2 1.2-.2.4 0 .8.1 1.2.2.4.1.7.3 1 .6.3.3.5.6.7 1 .2.4.2.8.2 1.3v4.7c0 .4 0 .9-.2 1.3m-14.4 1.6V316l4.1-5c.2-.3.3-.5.4-.7.1-.2.1-.5.1-.7 0-.5-.1-.9-.4-1.2-.3-.3-.7-.5-1.2-.5-.2 0-.4 0-.6.1-.2.1-.4.2-.5.3-.1.1-.3.3-.4.5-.1.2-.1.5-.1.8h-1.5c0-.5.1-.9.2-1.2.2-.4.4-.7.6-1 .3-.3.6-.5 1-.6.4-.1.8-.2 1.2-.2.5 0 .9.1 1.3.2s.7.3 1 .6c.3.3.5.6.6.9.1.4.2.8.2 1.2 0 .5-.1.9-.3 1.2-.2.3-.4.7-.8 1.1l-3.3 4.1h4.4v1.4h-6zM520.1 308.5c-.3-.3-.7-.5-1.2-.5s-.9.2-1.2.5c-.3.3-.5.8-.5 1.4 0 .5.1 1 .4 1.3.3.4.7.5 1.2.5s.9-.2 1.2-.5c.3-.3.5-.8.5-1.4 0-.5-.1-.9-.4-1.3m1.7 2.6c-.2.4-.3.9-.6 1.3l-2.4 5h-1.6l2.3-4.6-.5.2h-.5c-.4 0-.8-.1-1.1-.2-.3-.1-.6-.4-.9-.6-.3-.3-.5-.6-.6-1-.1-.4-.2-.8-.2-1.3s.1-.9.2-1.3c.2-.4.4-.7.7-1 .3-.3.6-.5 1-.7.4-.2.8-.2 1.3-.2s.9.1 1.3.2.7.4 1 .6c.3.3.5.6.7 1s.2.8.2 1.3-.1.9-.3 1.3m-10.7 6.3v-9l-2.1 1.8v-1.7l2.1-1.8h1.5v10.7h-1.5zm-6.3-7.6c0-.5-.1-.9-.4-1.3-.3-.3-.7-.5-1.2-.5s-.9.2-1.1.5c-.3.3-.4.7-.4 1.3v4.7c0 .5.1.9.4 1.3.3.3.7.5 1.1.5.5 0 .9-.2 1.2-.5.3-.3.4-.7.4-1.3v-4.7zm1.3 6c-.2.4-.4.7-.7 1-.3.3-.6.5-1 .6-.4.1-.8.2-1.2.2-.4 0-.8-.1-1.2-.2-.4-.1-.7-.3-1-.6-.3-.3-.5-.6-.7-1-.2-.4-.2-.8-.2-1.3v-4.7c0-.5.1-.9.2-1.3.2-.4.4-.7.7-1 .3-.3.6-.5 1-.6.4-.1.8-.2 1.2-.2.4 0 .8.1 1.2.2.4.1.7.3 1 .6.3.3.5.6.7 1 .2.4.2.8.2 1.3v4.7c0 .4-.1.9-.2 1.3m-14.4 1.6V316l4.1-5c.2-.3.3-.5.4-.7.1-.2.1-.5.1-.7 0-.5-.1-.9-.4-1.2-.3-.3-.7-.5-1.2-.5-.2 0-.4 0-.6.1-.2.1-.4.2-.5.3-.1.1-.3.3-.4.5-.1.2-.1.5-.1.8h-1.5c0-.5.1-.9.2-1.2.2-.4.4-.7.6-1 .3-.3.6-.5 1-.6.4-.1.8-.2 1.2-.2.5 0 .9.1 1.3.2s.7.3 1 .6c.3.3.5.6.6.9.1.4.2.8.2 1.2 0 .5-.1.9-.3 1.2-.2.3-.4.7-.8 1.1l-3.3 4.1h4.4v1.4h-6zM564.3 318.1c1.8-2.3 2.3-4.6 2.3-5.9s-.5-3.6-2.3-5.9h-1c1.3 1.7 2.1 3.8 2.1 5.9 0 .5 0 3.1-2.1 5.9h1zM557 314h-3.1v-2.6h3.1v2.6zm-2.6-6.4c.3-.5.3-.8.5-1.1l-1.1-.2c-.5 1.5-1.4 3-2.9 4.1l.7.9c1-.8 1.5-1.5 2.4-2.7h3.1v2h-4.2v3.5H551v1h6v2.9h1.1v-3h4.6v-1H558v-2.6h3.7v-1H558v-2h4.1v-1h-7.7zm-4.1 10.5c-2.1-2.8-2.1-5.4-2.1-5.9 0-2.2.8-4.2 2.1-5.9h-1c-1.8 2.3-2.3 4.6-2.3 5.9s.5 3.6 2.3 5.9h1zM34.7 37.9h-1.1v10c0 .3 0 .4-.4.4h-2.1l.3 1.1h2.3c.8 0 1.2-.3 1.2-1.1V37.9zm2.2 2.3c.6 3.8 1.3 5.5 2.4 7.1l.9-.8c-1.8-2.8-2.1-5.7-2.2-6.5l-1.1.2zm-7.7 7c1.1-1.3 1.9-3.1 2.4-7l-1.1-.1c-.4 4-1.6 5.7-2.2 6.4l.9.7zm-1.5-9L16.9 48.9l.4.4 10.8-10.7-.4-.4zM11 37.9v3.6H8.4v1H11V48H7.8v1h7.3v-1h-3v-5.5h2.8v-1h-2.8v-3.6H11zm-4.4 6.3c.7.8.8 1 1.5 1.5l.6-.9c-.7-.5-1.1-.9-1.8-1.6.8-1.2 1.1-2 1.3-2.3v-1H6.6v-2h-1v2h-2v.9h3.5c-.4 1-1.6 2.6-3.7 3.9l.4 1c.3-.2.9-.6 1.7-1.3v5.1h1v-5.3zm-4.1 5.5C.4 46.9.4 44.3.4 43.8c0-2.2.8-4.2 2.1-5.9h-1c-1.8 2.3-2.3 4.6-2.3 5.9 0 1.4.5 3.6 2.3 5.9h1zM54.9 49.7c1.8-2.3 2.3-4.6 2.3-5.9 0-1.4-.4-3.6-2.3-5.9h-1c1.3 1.7 2.1 3.8 2.1 5.9 0 .5 0 3.1-2.1 5.9h1zm-5.7-2.4h-3.8v-1.2h3.8v1.2zm0-1.8h-3.8v-1.1h3.8v1.1zm1-1.9h-5.7v4.6h5.7v-4.6zm-4.5-1.7H43v-1h2.7v1zm0-1.7H43v-1h2.7v1zM42 38.4v11.2h1v-6.8h3.6v-4.4H42zm9.7 3.5h-2.8v-1h2.8v1zm0-1.7h-2.8v-1h2.8v1zm.9-1.8h-4.7v4.4h3.8v5.5c0 .3-.1.3-.4.3h-1.5l.2 1h1.8c.9 0 .9-.8.9-1V38.4zM53.5 298c0-.5-.1-.9-.4-1.3-.3-.3-.7-.5-1.1-.5-.5 0-.9.2-1.1.5-.3.3-.4.7-.4 1.3v4.7c0 .5.1.9.4 1.3.3.3.7.5 1.1.5.5 0 .9-.2 1.1-.5.3-.3.4-.7.4-1.3V298zm1.3 6c-.2.4-.4.7-.7 1-.3.3-.6.5-1 .6-.4.1-.8.2-1.2.2-.4 0-.8-.1-1.2-.2-.4-.1-.7-.3-1-.6-.3-.3-.5-.6-.7-1-.2-.4-.2-.8-.2-1.3V298c0-.5.1-.9.2-1.3.2-.4.4-.7.7-1 .3-.3.6-.5 1-.6.4-.1.8-.2 1.2-.2.4 0 .8.1 1.2.2.4.1.7.3 1 .6.3.3.5.6.7 1 .2.4.2.8.2 1.3v4.7c0 .5-.1.9-.2 1.3M46.6 272.3c-.1.5-.4.9-.7 1.3-.2.2-.5.4-.9.6-.4.2-.8.2-1.3.2s-1-.1-1.4-.2c-.4-.2-.7-.4-.9-.6-.3-.3-.5-.6-.6-.9-.1-.3-.2-.7-.2-1.1h1.5c.1.5.2.8.5 1.1.3.3.6.4 1.1.4.5 0 .8-.1 1.1-.4.2-.2.4-.5.4-.8.1-.3.1-.7.1-1 0-.3 0-.6-.1-.9 0-.3-.1-.5-.2-.7-.1-.2-.3-.4-.5-.5-.2-.1-.5-.2-.8-.2-.4 0-.8.1-1 .3-.2.2-.4.4-.5.7h-1.4v-5.8h5.8v1.4h-4.4v2.8c.2-.2.4-.3.7-.5.3-.1.7-.2 1-.2.4 0 .8.1 1.1.2.3.1.6.3.8.5.2.2.4.4.5.6.1.2.2.5.3.7.1.2.1.5.1.7v.8c.1.6 0 1.1-.1 1.5M54 266.7c0-.5-.1-.9-.4-1.3-.3-.3-.7-.5-1.1-.5-.5 0-.9.2-1.1.5-.3.3-.4.7-.4 1.3v4.7c0 .5.1.9.4 1.3.3.3.7.5 1.1.5.5 0 .9-.2 1.1-.5.3-.3.4-.7.4-1.3v-4.7zm1.2 6c-.2.4-.4.7-.7 1-.3.3-.6.5-1 .6-.4.1-.8.2-1.2.2-.4 0-.8-.1-1.2-.2-.4-.1-.7-.3-1-.6-.3-.3-.5-.6-.7-1-.2-.4-.2-.8-.2-1.3v-4.7c0-.5.1-.9.2-1.3.2-.4.4-.7.7-1 .3-.3.6-.5 1-.6.4-.1.8-.2 1.2-.2.4 0 .8.1 1.2.2.4.1.7.3 1 .6.3.3.5.6.7 1 .2.4.2.8.2 1.3v4.7c.1.5 0 .9-.2 1.3M44.9 235.4c0-.5-.1-.9-.4-1.3-.3-.3-.7-.5-1.1-.5-.5 0-.9.2-1.1.5-.3.3-.4.7-.4 1.3v4.7c0 .5.1.9.4 1.3.3.3.7.5 1.1.5.5 0 .9-.2 1.1-.5.3-.3.4-.7.4-1.3v-4.7zm1.3 6c-.2.4-.4.7-.7 1-.3.3-.6.5-1 .6-.4.1-.8.2-1.2.2s-.8-.1-1.2-.2c-.4-.1-.7-.3-1-.6-.3-.3-.5-.6-.7-1-.2-.4-.2-.8-.2-1.3v-4.7c0-.5.1-.9.2-1.3.2-.4.4-.7.7-1 .3-.3.6-.5 1-.6.4-.1.8-.2 1.2-.2s.8.1 1.2.2c.4.1.7.3 1 .6.3.3.5.6.7 1 .2.4.2.8.2 1.3v4.7c0 .5 0 .9-.2 1.3M35 243.1v-9l-2.1 1.8v-1.7l2.1-1.8h1.5v10.7H35zM53.8 235.4c0-.5-.1-.9-.4-1.3-.3-.3-.7-.5-1.1-.5-.5 0-.9.2-1.1.5-.3.3-.4.7-.4 1.3v4.7c0 .5.1.9.4 1.3.3.3.7.5 1.1.5.5 0 .9-.2 1.1-.5.3-.3.4-.7.4-1.3v-4.7zm1.3 6c-.2.4-.4.7-.7 1-.3.3-.6.5-1 .6-.4.1-.8.2-1.2.2s-.8-.1-1.2-.2c-.4-.1-.7-.3-1-.6-.3-.3-.5-.6-.7-1-.2-.4-.2-.8-.2-1.3v-4.7c0-.5.1-.9.2-1.3.2-.4.4-.7.7-1 .3-.3.6-.5 1-.6.4-.1.8-.2 1.2-.2s.8.1 1.2.2c.4.1.7.3 1 .6.3.3.5.6.7 1 .2.4.2.8.2 1.3v4.7c0 .5 0 .9-.2 1.3M46.3 209.8c-.1.5-.4.9-.7 1.3-.2.2-.5.4-.9.6-.4.2-.8.2-1.3.2s-1-.1-1.4-.2c-.4-.2-.7-.4-.9-.6-.3-.3-.5-.6-.6-.9-.1-.3-.2-.7-.2-1.1h1.5c.1.5.2.8.5 1.1.3.3.6.4 1.1.4.5 0 .8-.1 1.1-.4.2-.2.4-.5.4-.8.1-.3.1-.7.1-1 0-.3 0-.6-.1-.9 0-.3-.1-.5-.2-.7-.1-.2-.3-.4-.5-.5-.2-.1-.5-.2-.8-.2-.4 0-.8.1-1 .3-.2.2-.4.4-.5.7h-1.4v-5.8h5.8v1.4h-4.4v2.8c.2-.2.4-.3.7-.5.3-.1.7-.2 1-.2.4 0 .8.1 1.1.2.3.1.6.3.8.5.2.2.4.4.5.6.1.2.2.5.3.7.1.2.1.5.1.7v.8c0 .5 0 1-.1 1.5m-11.3 2v-9l-2.1 1.8v-1.7l2.1-1.8h1.5v10.7H35zM53.6 204.1c0-.5-.1-.9-.4-1.3-.3-.3-.7-.5-1.1-.5-.5 0-.9.2-1.1.5-.3.3-.4.7-.4 1.3v4.7c0 .5.1.9.4 1.3.3.3.7.5 1.1.5.5 0 .9-.2 1.1-.5.3-.3.4-.7.4-1.3v-4.7zm1.3 6c-.2.4-.4.7-.7 1-.3.3-.6.5-1 .6-.4.1-.8.2-1.2.2-.4 0-.8-.1-1.2-.2-.4-.1-.7-.3-1-.6-.3-.3-.5-.6-.7-1-.2-.4-.2-.8-.2-1.3v-4.7c0-.5.1-.9.2-1.3.2-.4.4-.7.7-1 .3-.3.6-.5 1-.6.4-.1.8-.2 1.2-.2.4 0 .8.1 1.2.2.4.1.7.3 1 .6.3.3.5.6.7 1 .2.4.2.8.2 1.3v4.7c.1.5 0 .9-.2 1.3M45.6 172.8c0-.5-.1-.9-.4-1.3-.3-.3-.7-.5-1.1-.5-.5 0-.9.2-1.1.5-.3.3-.4.7-.4 1.3v4.7c0 .5.1.9.4 1.3.3.3.7.5 1.1.5.5 0 .9-.2 1.1-.5.3-.3.4-.7.4-1.3v-4.7zm1.3 6c-.2.4-.4.7-.7 1-.3.3-.6.5-1 .6-.4.1-.8.2-1.2.2s-.8-.1-1.2-.2c-.4-.1-.7-.3-1-.6-.3-.3-.5-.6-.7-1-.2-.4-.2-.8-.2-1.3v-4.7c0-.5.1-.9.2-1.3.2-.4.4-.7.7-1 .3-.3.6-.5 1-.6.4-.1.8-.2 1.2-.2s.8.1 1.2.2c.4.1.7.3 1 .6.3.3.5.6.7 1 .2.4.2.8.2 1.3v4.7c0 .5-.1.9-.2 1.3m-14.8 1.7v-1.4l4.1-5c.2-.3.3-.5.4-.7.1-.2.1-.5.1-.7 0-.5-.1-.9-.4-1.2-.3-.3-.7-.5-1.2-.5-.2 0-.4 0-.6.1-.2.1-.4.2-.5.3-.1.1-.3.3-.4.5-.1.2-.1.5-.1.8H32c0-.5.1-.9.2-1.2.2-.4.4-.7.6-1 .3-.3.6-.5 1-.6.4-.1.8-.2 1.2-.2.5 0 .9.1 1.3.2s.7.3 1 .6c.3.3.5.6.6.9.1.4.2.8.2 1.2 0 .5-.1.9-.3 1.2-.2.3-.4.7-.8 1.1l-3.3 4.1h4.4v1.4h-6zM54.5 172.8c0-.5-.1-.9-.4-1.3-.3-.3-.7-.5-1.1-.5-.5 0-.9.2-1.1.5-.3.3-.4.7-.4 1.3v4.7c0 .5.1.9.4 1.3.3.3.7.5 1.1.5.5 0 .9-.2 1.1-.5.3-.3.4-.7.4-1.3v-4.7zm1.3 6c-.2.4-.4.7-.7 1-.3.3-.6.5-1 .6-.4.1-.8.2-1.2.2-.4 0-.8-.1-1.2-.2-.4-.1-.7-.3-1-.6-.3-.3-.5-.6-.7-1-.2-.4-.2-.8-.2-1.3v-4.7c0-.5.1-.9.2-1.3.2-.4.4-.7.7-1 .3-.3.6-.5 1-.6.4-.1.8-.2 1.2-.2.4 0 .8.1 1.2.2.4.1.7.3 1 .6.3.3.5.6.7 1 .2.4.2.8.2 1.3v4.7c0 .5-.1.9-.2 1.3M46.9 147.2c-.1.5-.4.9-.7 1.3-.2.2-.5.4-.9.6-.4.2-.8.2-1.3.2s-1-.1-1.4-.2c-.4-.2-.7-.4-.9-.6-.3-.3-.5-.6-.6-.9-.1-.3-.2-.7-.2-1.1h1.5c.1.5.2.8.5 1.1.3.3.6.4 1.1.4.5 0 .8-.1 1.1-.4.2-.2.4-.5.4-.8.1-.3.1-.7.1-1 0-.3 0-.6-.1-.9 0-.3-.1-.5-.2-.7-.1-.2-.3-.4-.5-.5-.2-.1-.5-.2-.8-.2-.4 0-.8.1-1 .3-.2.2-.4.4-.5.7h-1.4v-5.8h5.8v1.4h-4.4v2.8c.2-.2.4-.3.7-.5.3-.1.7-.2 1-.2.4 0 .8.1 1.1.2.3.1.6.3.8.5.2.2.4.4.5.6.1.2.2.5.3.7.1.2.1.5.1.7v.8c.1.5 0 1-.1 1.5m-14.8 2v-1.4l4.1-5c.2-.3.3-.5.4-.7.1-.2.1-.5.1-.7 0-.5-.1-.9-.4-1.2-.3-.3-.7-.5-1.2-.5-.2 0-.4 0-.6.1-.2.1-.4.2-.5.3-.1.1-.3.3-.4.5-.1.2-.1.5-.1.8H32c0-.5.1-.9.2-1.2.2-.4.4-.7.6-1 .3-.3.6-.5 1-.6.4-.1.8-.2 1.2-.2.5 0 .9.1 1.3.2s.7.3 1 .6c.3.3.5.6.6.9.1.4.2.8.2 1.2 0 .5-.1.9-.3 1.2-.2.3-.4.7-.8 1.1l-3.3 4.1h4.4v1.4h-6zM54.3 141.5c0-.5-.1-.9-.4-1.3-.3-.3-.7-.5-1.1-.5-.5 0-.9.2-1.1.5-.3.3-.4.7-.4 1.3v4.7c0 .5.1.9.4 1.3.3.3.7.5 1.1.5.5 0 .9-.2 1.1-.5.3-.3.4-.7.4-1.3v-4.7zm1.3 6c-.2.4-.4.7-.7 1-.3.3-.6.5-1 .6-.4.1-.8.2-1.2.2s-.8-.1-1.2-.2c-.4-.1-.7-.3-1-.6-.3-.3-.5-.6-.7-1-.2-.4-.2-.8-.2-1.3v-4.7c0-.5.1-.9.2-1.3.2-.4.4-.7.7-1 .3-.3.6-.5 1-.6.4-.1.8-.2 1.2-.2s.8.1 1.2.2c.4.1.7.3 1 .6.3.3.5.6.7 1 .2.4.2.8.2 1.3v4.7c0 .5-.1.9-.2 1.3M45.6 110.2c0-.5-.1-.9-.4-1.3-.3-.3-.7-.5-1.1-.5-.5 0-.9.2-1.1.5-.3.3-.4.7-.4 1.3v4.7c0 .5.1.9.4 1.3.3.3.7.5 1.1.5.5 0 .9-.2 1.1-.5.3-.3.4-.7.4-1.3v-4.7zm1.3 6c-.2.4-.4.7-.7 1-.3.3-.6.5-1 .6-.4.1-.8.2-1.2.2s-.8-.1-1.2-.2c-.4-.1-.7-.3-1-.6-.3-.3-.5-.6-.7-1-.2-.4-.2-.8-.2-1.3v-4.7c0-.5.1-.9.2-1.3.2-.4.4-.7.7-1 .3-.3.6-.5 1-.6.4-.1.8-.2 1.2-.2s.8.1 1.2.2c.4.1.7.3 1 .6.3.3.5.6.7 1 .2.4.2.8.2 1.3v4.7c0 .5-.1.9-.2 1.3m-8.8 0c-.2.4-.4.7-.7 1-.3.3-.6.5-1 .6-.4.1-.8.2-1.3.2-.4 0-.8-.1-1.2-.2-.4-.1-.7-.3-1-.5-.3-.2-.5-.6-.7-.9-.2-.4-.3-.8-.3-1.3h1.5c0 .3.1.5.2.7.1.2.2.4.4.5.2.1.3.2.5.3.2.1.4.1.6.1.5 0 .9-.2 1.2-.5.3-.3.5-.7.5-1.3 0-.5-.1-1-.4-1.3-.3-.3-.7-.5-1.3-.5h-.3v-1.3h.2c.6 0 1-.1 1.2-.4.3-.3.4-.7.4-1.2s-.2-1-.5-1.2c-.3-.3-.7-.4-1.1-.4-.5 0-.8.1-1.1.4-.3.3-.4.6-.5 1.1H32c0-.5.1-.9.3-1.2.2-.4.4-.7.7-.9.3-.2.6-.4 1-.6.4-.1.8-.2 1.2-.2.5 0 .9.1 1.2.2.4.1.7.3 1 .6.3.3.5.6.6.9.2.4.2.8.2 1.2 0 .6-.1 1-.4 1.4-.2.4-.6.7-1 .9.5.2.8.5 1.1.9.3.4.4.9.4 1.6.1.5 0 .9-.2 1.3M54.5 110.2c0-.5-.1-.9-.4-1.3-.3-.3-.7-.5-1.1-.5-.5 0-.9.2-1.1.5-.3.3-.4.7-.4 1.3v4.7c0 .5.1.9.4 1.3.3.3.7.5 1.1.5.5 0 .9-.2 1.1-.5.3-.3.4-.7.4-1.3v-4.7zm1.3 6c-.2.4-.4.7-.7 1-.3.3-.6.5-1 .6-.4.1-.8.2-1.2.2-.4 0-.8-.1-1.2-.2-.4-.1-.7-.3-1-.6-.3-.3-.5-.6-.7-1-.2-.4-.2-.8-.2-1.3v-4.7c0-.5.1-.9.2-1.3.2-.4.4-.7.7-1 .3-.3.6-.5 1-.6.4-.1.8-.2 1.2-.2.4 0 .8.1 1.2.2.4.1.7.3 1 .6.3.3.5.6.7 1 .2.4.2.8.2 1.3v4.7c0 .5-.1.9-.2 1.3M47 84.6c-.1.5-.4.9-.7 1.3-.2.2-.5.4-.9.6-.4.2-.8.2-1.3.2s-1-.1-1.4-.2c-.4-.2-.7-.4-.9-.6-.3-.3-.5-.6-.6-.9-.1-.3-.2-.7-.2-1.1h1.5c.1.5.2.8.5 1.1.3.3.6.4 1.1.4.5 0 .8-.1 1.1-.4.2-.2.4-.5.4-.8.1-.3.1-.7.1-1 0-.3 0-.6-.1-.9 0-.3-.1-.5-.2-.7-.1-.2-.3-.4-.5-.5-.2-.1-.5-.2-.8-.2-.4 0-.8.1-1 .3-.2.2-.4.4-.5.7h-1.4v-5.8H47v1.4h-4.4v2.8c.2-.2.4-.3.7-.4.3-.1.7-.2 1-.2.4 0 .8.1 1.1.2.3.1.6.3.8.5.2.2.4.4.5.6.1.2.2.5.3.7.1.2.1.5.1.7v.8c.1.4 0 .9-.1 1.4m-8.9.3c-.2.4-.4.7-.7 1-.3.3-.6.5-1 .6s-.8.2-1.3.2c-.4 0-.8-.1-1.2-.2-.4-.1-.7-.3-1-.5-.3-.2-.5-.6-.7-.9-.2-.4-.3-.8-.3-1.3h1.5c0 .3.1.5.2.7.1.2.2.4.4.5.2.1.3.2.5.3.2.1.4.1.6.1.5 0 .9-.2 1.2-.5.3-.3.5-.7.5-1.3 0-.5-.1-1-.4-1.3-.3-.3-.7-.5-1.3-.5h-.3v-1.3h.2c.6 0 1-.1 1.2-.4s.4-.7.4-1.2-.2-1-.5-1.2-.7-.4-1.1-.4c-.5 0-.8.1-1.1.4-.3.3-.4.6-.5 1.1H32c0-.5.1-.9.3-1.2.2-.4.4-.7.7-.9.3-.2.6-.4 1-.6.4-.1.8-.2 1.2-.2.5 0 .9.1 1.2.2.4.1.7.3 1 .6.3.3.5.6.6.9.2.4.2.8.2 1.2 0 .6-.1 1-.4 1.4-.2.4-.6.7-1 .9.5.2.8.5 1.1.9.3.4.4.9.4 1.6.1.5 0 .9-.2 1.3M54.4 78.9c0-.5-.1-.9-.4-1.3-.3-.3-.7-.5-1.1-.5-.5 0-.9.2-1.1.5-.3.3-.4.7-.4 1.3v4.7c0 .5.1.9.4 1.3.3.3.7.5 1.1.5.5 0 .9-.2 1.1-.5.3-.3.4-.7.4-1.3v-4.7zm1.3 6c-.2.4-.4.7-.7 1-.3.3-.6.5-1 .6-.4.1-.8.2-1.2.2s-.8-.1-1.2-.2c-.4-.1-.7-.3-1-.6-.3-.3-.5-.6-.7-1-.2-.4-.2-.8-.2-1.3v-4.7c0-.5.1-.9.2-1.3.2-.4.4-.7.7-1 .3-.3.6-.5 1-.6.4-.1.8-.2 1.2-.2s.8.1 1.2.2c.4.1.7.3 1 .6.3.3.5.6.7 1 .2.4.2.8.2 1.3v4.7c0 .5-.1.9-.2 1.3M111.2 302.7c1.3 0 2.3-1.1 2.3-2.3 0-1.3-1.1-2.3-2.3-2.3-1.3 0-2.3 1.1-2.3 2.3-.1 1.3 1 2.3 2.3 2.3M210.1 302.7c1.3 0 2.3-1.1 2.3-2.3 0-1.3-1.1-2.3-2.3-2.3-1.3 0-2.3 1.1-2.3 2.3 0 1.3 1 2.3 2.3 2.3M309 302.7c1.3 0 2.3-1.1 2.3-2.3 0-1.3-1.1-2.3-2.3-2.3-1.3 0-2.3 1.1-2.3 2.3 0 1.3 1 2.3 2.3 2.3M407.9 302.7c1.3 0 2.3-1.1 2.3-2.3 0-1.3-1-2.3-2.3-2.3-1.3 0-2.3 1.1-2.3 2.3 0 1.3 1 2.3 2.3 2.3M506.8 302.7c1.3 0 2.3-1.1 2.3-2.3 0-1.3-1.1-2.3-2.3-2.3-1.3 0-2.3 1.1-2.3 2.3 0 1.3 1 2.3 2.3 2.3M274 4.1c-.3.8-.7 1.4-1.2 2.2l.9.4c.5-.7.7-1.1 1.3-2.2l-1-.4zm-5.7.5c.5.7.8 1.2 1.1 2l1-.4c-.3-.8-.6-1.2-1.1-2l-1 .4zm3.8 2.3v-2c0-.4 0-.7.1-1H271c.1.3.1.6.1 1v2h-1.9c-.6 0-.9 0-1.3-.1v1.1c.3-.1.7-.1 1.2-.1h1.3c-.7 1-1.4 1.5-2.8 2.4.3.3.5.5.8.9 1.4-1 2-1.6 2.8-2.8v2.2h1.1V9.1v-.8c.5.8.8 1.2 1.7 1.8.3-.5.4-.6.7-.9-.8-.4-1.3-.9-1.7-1.4h2.4v-1h-3.3zm.7 5.9c-.3.8-.5 1.2-.9 1.8-.5-.2-.8-.3-1.6-.7.3-.5.5-.7.7-1.1h1.8zm1.5 3c-.7-.4-.9-.5-1.5-.8.5-.7.8-1.2 1.1-2.3h.2c.5 0 .8 0 1.1.1v-1.1c-.3.1-.6.1-1.1.1h-2.7c.2-.3.2-.5.4-.9l-1.1-.2c-.2.6-.3.8-.5 1.2H269c-.5 0-.8 0-1.1-.1v1.1c.3-.1.6-.1 1.1-.1h.8c-.4.7-.5.9-1.1 1.6 1.1.4 1.6.6 2.3 1-.8.6-1.9 1.1-3.3 1.5.3.3.4.6.6 1 1.8-.6 2.8-1.1 3.7-2 .8.4 1 .5 1.6 1l.7-1.1zm5.1-8c-.1 2.2-.5 3.6-1.2 5-.8-1.4-1.2-2.7-1.5-4.7l.2-.4h2.5zm2.4-1.1c-.4.1-.7.1-1.4.1h-3.1c.2-.6.3-1.2.5-2 .1-.4.1-.5.2-.7l-1.2-.3c0 .4-.1 1-.3 1.6-.5 2-1.3 3.7-2.3 5 .4.2.5.4.9.8.4-.5.6-.8 1-1.5.3 1.8.7 2.9 1.5 4.2-.9 1.2-2.1 2.1-3.8 3 .3.3.5.6.7 1 1.6-.9 2.7-1.8 3.7-3 1 1.3 2 2.1 3.3 2.9.3-.5.4-.8.7-1.2-1.4-.7-2.3-1.5-3.3-2.7.5-.9.9-1.7 1.2-2.7.3-1 .4-1.9.5-3.4.6 0 .9 0 1.2.1V6.7zm-25.4 6.8h3.8v1.3h-3.8v-1.3zm0-2.2h3.8v1.2h-3.8v-1.2zm4.8.5v-1.4c-.5 0-.8.1-1.5.1h-3c-.7 0-1 0-1.5-.1v4.9c0 .6 0 1-.1 1.5h1.1v-1h4.9v-4zm-1.3-4.5h3.5v1.1h-3.5V7.3zm0-2h3.5v1.1h-3.5V5.3zm4.6.8c0-.7 0-1.1.1-1.7-.4 0-.8.1-1.6.1h-2.6c-.8 0-1.1 0-1.6-.1v4.9h4.6v6.9c0 .4-.1.4-.7.4-.3 0-1-.1-1.7-.2.2.4.2.7.3 1.2h1.5c1.4 0 1.7-.3 1.7-1.4V6.1zm-11.3 1.2h3.2v1.1h-3.2V7.3zm0-2h3.2v1.1h-3.2V5.3zm0 3.9h4.3V5.8 4.3c-.4 0-.8.1-1.6.1h-2.4c-.8 0-1.1 0-1.6-.1 0 .5.1.9.1 1.7v10c0 .9 0 1.3-.1 1.8h1.3c-.1-.4-.1-.9-.1-1.8V9.2zm-15.8-1.7c0 .6-.2 1.4-.5 2.3-.5 1.9-1.2 3.3-2.3 4.8.5.3.8.4 1.1.8 1.4-2.1 2-3.5 2.8-6.6.1-.5.2-.7.3-.9l-1.4-.4zm7.3.3s.1.2.2.6l.3 1c.7 2.5 1.5 4.1 2.9 6 .4-.4.5-.5 1.1-.9-1-1.3-1.7-2.5-2.3-4-.5-1.4-.8-2.2-.9-3l-1.3.3zm-3.6-3.7c.1.5.1.9.1 1.6V16c0 .3-.1.4-.7.4s-1.3-.1-2.2-.3c.2.5.3.8.3 1.3.9.1 1.5.1 2.1.1 1.4 0 1.8-.3 1.8-1.4V5.8c0-.7 0-1.2.1-1.6h-1.5zm-13.8 5.3c-.8 0-1.5.7-1.5 1.5s.6 1.5 1.5 1.5c.8 0 1.5-.6 1.5-1.5-.1-.9-.7-1.5-1.5-1.5m-15.2-5.3c-.3.8-.7 1.4-1.2 2.2l.9.4c.5-.7.7-1.1 1.3-2.2l-1-.4zm-5.7.5c.5.7.8 1.2 1.1 2l1-.4c-.3-.8-.6-1.2-1.1-2l-1 .4zm3.8 2.3v-2c0-.4 0-.7.1-1h-1.2c.1.3.1.6.1 1v2h-1.9c-.6 0-.9 0-1.3-.1v1.1c.3-.1.7-.1 1.2-.1h1.3c-.7 1-1.4 1.5-2.8 2.4.3.3.5.5.8.9 1.4-1 2-1.6 2.8-2.8v2.2h1.1V9.1v-.8c.5.8.8 1.2 1.7 1.8.3-.5.4-.6.7-.9-.8-.4-1.3-.9-1.7-1.4h2.4v-1h-3.3zm.7 5.9c-.3.8-.5 1.2-.9 1.8-.5-.2-.8-.3-1.6-.7.3-.5.5-.7.7-1.1h1.8zm1.5 3c-.7-.4-.9-.5-1.5-.8.5-.7.8-1.2 1.1-2.3h.2c.5 0 .8 0 1.1.1v-1.1c-.3.1-.6.1-1.1.1h-2.7c.2-.3.2-.5.4-.9l-1.1-.2c-.2.6-.3.8-.5 1.2H207c-.5 0-.8 0-1.1-.1v1.1c.3-.1.6-.1 1.1-.1h.8c-.4.7-.5.9-1.1 1.6 1.1.4 1.6.6 2.4 1-.8.6-1.9 1.1-3.3 1.5.3.3.4.6.6 1 1.8-.6 2.8-1.1 3.7-2 .8.4 1 .5 1.6 1l.7-1.1zm5.1-8c-.1 2.2-.5 3.6-1.2 5-.8-1.4-1.2-2.7-1.5-4.7l.2-.4h2.5zm2.3-1.1c-.4.1-.7.1-1.4.1h-3.1c.2-.6.3-1.2.5-2 .1-.4.1-.5.2-.7l-1.2-.3c0 .4-.1 1-.3 1.6-.5 2-1.3 3.7-2.3 5 .4.2.5.4.9.8.4-.5.6-.8 1-1.5.3 1.8.7 2.9 1.5 4.2-.9 1.2-2.1 2.1-3.8 3 .3.3.5.6.7 1 1.6-.9 2.7-1.8 3.7-3 1 1.3 2 2.1 3.3 2.9.3-.5.4-.8.7-1.2-1.4-.7-2.3-1.5-3.3-2.7.5-.9.9-1.7 1.2-2.7.3-1 .4-1.9.5-3.4.6 0 .9 0 1.2.1V6.7zm-20.6 2.9h1.9c.6 0 1 0 1.5.1V8.4c-.4.1-.8.1-1.5.1h-1.9V5.3c0-.6 0-.9.1-1.5h-1.4c.1.6.1.9.1 1.5v3.2h-1.4c-.7 0-1.1 0-1.5-.1v1.3c.5 0 1-.1 1.5-.1h1.4V16h-2c-.8 0-1.2 0-1.7-.1v1.4c.5-.1 1-.1 1.7-.1h5.5c.6 0 1.2 0 1.7.1v-1.4c-.4.1-.9.1-1.7.1h-2.3V9.6zm-6.4 1.8c.6.7 1.2 1.3 2.1 1.9.2-.4.3-.7.6-1-1.1-.6-1.7-1.2-2.5-2.1.7-.9 1.2-1.6 1.7-2.6.1-.3.2-.5.3-.6l-.5-.6H192.8V5c0-.5 0-.9.1-1.2h-1.3c.1.3.1.8.1 1.2v1.4h-.9c-.5 0-.8 0-1.2-.1v1.2c.4 0 .8-.1 1.3-.1h2.8c-.6 1.2-1 1.9-1.8 2.7-.9.9-1.7 1.6-2.8 2.2.3.3.5.7.6 1.1.9-.6 1.3-1 2-1.7v4.5c0 .7 0 1.1-.1 1.5h1.3c-.1-.4-.1-.8-.1-1.5v-4.8zm-17.6-6h9.3v1.5h-9.3V5.4zm3.8 2.5h2.8v1.4H179V7.9zm-1.2 4H175c.1-1.4.2-2.1.2-4.1h2.7v1.4h-.9c-.7 0-1 0-1.4-.1v1.1c.4 0 .8-.1 1.4-.1h.8v1.8zm3.9 0H179v-1.6h2.8v1.6zm-2.3 1c.5 1.1 1 1.8 1.9 2.6 1.3 1.1 2.5 1.8 4.6 2.4.2-.5.4-.8.7-1.1-1.7-.3-2.6-.7-3.8-1.4.6-.4.7-.5 2.2-1.7l-1-.7c-.6.7-1.2 1.2-2 1.8-.8-.6-1.1-1-1.4-1.8h4c.6 0 1.2 0 1.7.1v-1.2c-.4.1-.9.1-1.7.1h-1.7v-1.6h1.2c.6 0 1.1 0 1.5.1V9.2c-.3.1-.7.1-1.5.1h-1.2V7.9h2.8V5.6 4.4c-.4 0-.8.1-1.7.1h-8.1c-.9 0-1.4 0-1.9-.1.1.6.1 1 .1 2.2 0 3.1-.2 5.7-.5 7.2-.3 1.4-.6 2.1-1.3 3.1.4.3.6.5 1 1 .9-1.5 1.4-2.9 1.6-5h2v3.5c-.9.1-1.5.2-1.8.2h-.2l.3 1.3c.3-.1.3-.1.5-.1 3.2-.6 4-.8 5.4-1.2v-1c-1.5.4-1.9.5-3.1.7V13h1.4zm-16.9-3.8h-3.6V6.4c0-.5 0-.9.1-1.2h-1.3c0 .4.1.8.1 1.2v3.8h4.8v5.5h-4.2V13c0-.6 0-.9.1-1.3H157c0 .4.1.8.1 1.4v3.4c0 .5 0 1-.1 1.3h1.3v-.9h9.7v.9h1.3c-.1-.4-.1-.8-.1-1.3V13c0-.6 0-1 .1-1.4H168c.1.4.1.8.1 1.3v2.8h-4.3v-5.5h5.1V6.4c0-.5 0-.7.1-1.2h-1.3c0 .4.1.7.1 1.1v2.8H164V5.4c0-.6 0-1 .1-1.4h-1.4c.1.4.1.7.1 1.4v3.7zM145 13.5c-.5 1-1.1 1.3-1.7 1.3-.7 0-1.5-.9-1.5-2.9 0-2.2 1.6-4.8 4.7-5.2-.1 2.9-.6 5.1-1.5 6.8m3.5 3.8c3.3-1 5.2-3.1 5.2-6.3 0-3.4-2.7-5.6-6.2-5.6-4.3 0-7 3.2-7 6.4 0 2.7 1.3 4.2 2.8 4.2 1.1 0 2-.5 2.8-2 1.1-1.9 1.7-4.3 1.8-7.5 2.5.1 4.5 1.8 4.5 4.4 0 2.4-1.5 4.2-4.6 5l.7 1.4zM129 13.5h3.8v1.3H129v-1.3zm0-2.2h3.8v1.2H129v-1.2zm4.8.5v-1.4c-.5 0-.8.1-1.5.1h-3c-.7 0-1 0-1.5-.1v4.9c0 .6 0 1-.1 1.5h1.1v-1h4.9v-4zm-1.2-4.5h3.5v1.1h-3.5V7.3zm0-2h3.5v1.1h-3.5V5.3zm4.6.8c0-.7 0-1.1.1-1.7-.4 0-.8.1-1.6.1H133c-.8 0-1.1 0-1.6-.1v4.9h4.6v6.9c0 .4-.1.4-.7.4-.3 0-1-.1-1.7-.2.2.4.2.7.3 1.2h1.5c1.4 0 1.7-.3 1.7-1.4V6.1zm-11.4 1.2h3.2v1.1h-3.2V7.3zm0-2h3.2v1.1h-3.2V5.3zm0 3.9h4.3V5.8 4.3c-.4 0-.8.1-1.6.1h-2.4c-.8 0-1.1 0-1.6-.1 0 .5.1.9.1 1.7v10c0 .9 0 1.3-.1 1.8h1.3c-.1-.4-.1-.9-.1-1.8V9.2zm-14.1.9h3.2V13h-3.2v-2.9zm-1.2 2.9h-1.1c-.7 0-1.1 0-1.6-.1v1.3c.5-.1.9-.1 1.6-.1h5.5v2.3c0 .7 0 1.1-.1 1.5h1.4c-.1-.4-.1-.8-.1-1.5V14h3.8c.6 0 1.1 0 1.6.1v-1.3c-.5.1-.9.1-1.6.1h-3.8V10h2.7c.6 0 1 0 1.4.1V9h-4.1V6.7h3.4c.7 0 1 0 1.4.1V5.5c-.4.1-.8.1-1.4.1H112c.1-.2.1-.2.2-.5.2-.5.2-.5.3-.7.1-.2.1-.3.2-.4l-1.3-.3c-.1.3-.2.7-.4 1.1-.7 1.7-1.5 2.8-3 4.1.4.3.5.5.8.9 1-.9 1.7-1.8 2.5-3.1h3.5V9h-4.5v4zM97 16.7c.7.2 1.6.3 2.3.3 2.9 0 4.4-1.6 4.4-3.9 0-2.1-1.2-3.4-3.8-3.4-.4 0-.9 0-1.3.1l.1-3.4h4.6V5h-5.8l-.2 5.6.4.4c.6-.2 1.4-.2 1.8-.2 1.8 0 2.7.8 2.7 2.5 0 1.8-1.2 2.4-3 2.4-.7 0-1.6-.1-2.2-.4v1.4zM85.2 6.5h-3.4c-.7 0-1.1 0-1.5-.1v1.3c.4-.1.9-.1 1.5-.1h3.4v2.7h-4.4c-.7 0-1.3 0-1.7-.1v1.3c.5-.1 1.1-.1 1.7-.1h3.5c-.8 1.7-.8 1.7-1.4 2.6-.4.8-.7 1.2-1.2 1.9h-1.9l.3 1.4c.4-.1.5-.1 1-.1 3.9-.3 5.7-.5 8.9-1.1.4.6.5.8 1 1.6l1.1-.8c-1.3-1.9-2.2-3-3.7-4.7l-1 .6c.9 1 1.3 1.4 2 2.3-1.8.3-4.4.6-6.3.8.9-1.3 1.6-2.5 2.5-4.5H91c.6 0 1.1 0 1.7.1v-1.3c-.4.1-1 .1-1.7.1h-4.6V7.6H90c.6 0 1.1 0 1.5.1V6.4c-.4.1-.8.1-1.5.1h-3.6V5.3c0-.6 0-1 .1-1.3h-1.4c.1.4.1.7.1 1.3v1.2zm-22.6 4.6c.4-.1.6-.1 1.1-.1h.9v3.6c-.9.9-1.6 1.4-2.3 1.7l.6 1.2c.4-.3.5-.4.5-.4.9-.7 1.2-1 1.8-1.6.4.6.8 1 1.3 1.3.9.5 1.8.7 4.3.7 2 0 4.1 0 5.6-.1.1-.6.1-.7.4-1.3-1.7.2-3.7.3-6.9.3-1.8 0-2.7-.2-3.5-.8-.3-.3-.5-.5-.7-.9v-3.1c0-.9 0-1.1.1-1.6-.4 0-.7.1-1.2.1h-.8c-.6 0-.9 0-1.2-.1v1.1zm.2-6.2c1.1 1 1.5 1.5 2.4 2.9l.9-.8c-.9-1.3-1.3-1.7-2.5-2.8l-.8.7zm7.6 6.6h2.3v1.4h-2.3v-1.4zm3.2 0v-.9h-4.3v3.9h1v-.8h3.3v-2.2zm-1.8-4.2h1.9v1.5h-1.9V7.3zm-1 1.5h-1.5V5.4h4.5v1h-3V8.8zm4.1-3.2c0-.7 0-1 .1-1.3-.4 0-.7.1-1.4.1h-4c-.5 0-.9 0-1.4-.1 0 .4.1.7.1 1.3v3.2H68c-.6 0-.9 0-1.2-.1 0 .4.1.7.1 1.2V14c0 .6 0 1-.1 1.4h1.3c0-.4-.1-.7-.1-1.4V9.8h6.8v4.5c0 .2-.1.3-.5.3s-.8 0-1.5-.1c.1.4.2.7.3 1.1h1c1.5 0 1.8-.2 1.8-1V10c0-.6 0-.9.1-1.3-.3 0-.5.1-1.2.1V5.6zM137.6 53.6v3.6H135v1h2.6v5.5h-3.2v1h7.3v-1h-3v-5.5h2.8v-1h-2.8v-3.6h-1.1zm-4.5 6.2c.7.8.8 1 1.5 1.5l.6-.9c-.7-.5-1.1-.9-1.8-1.6.9-1.1 1.2-1.9 1.4-2.2v-1h-1.6v-2h-1v2h-2v.9h3.5c-.4 1-1.6 2.6-3.7 3.9l.4 1c.3-.2.9-.6 1.7-1.3v5.1h1v-5.4zm-6.5 1.4c-.5.6-1.2 1.2-1.6 1.4-.6-.5-.9-1.1-1.2-1.4h2.8zm.1-5.1h-7.9v-1.3h7.9v1.3zm-1.9 4.3h-2.6V59h2.6v1.4zm-3.6-2.3h-1.9v.8h1.9v1.4h-2.4v-3.5h2.4v1.3zm3.6 0h-2.6v-1.2h2.6v1.2zm2 3.1h1.5v-.9h-2.6v-1.4h2.1v-.8h-2.1v-1.2h2v-3h-10v4.9c0 1.5-.1 4-1.1 5.6l.9.7c.4-.6.8-1.7 1-4h1.7V64c-.9.1-1.2.1-1.5.1l.2 1c.9-.1 3.3-.3 4.9-.6v-.9c-.8.1-1.7.3-2.5.3v-2.7h1.5c1.2 2.3 2.6 3.2 5.1 4l.5-1c-.6-.2-1.6-.4-2.6-1 .4-.2 1.1-.8 1.7-1.4l-.7-.6zm-22.3-6.7v4.6h4.4V64h-3.8v-3.9H104V65h10.7v-4.9h-1.1V64H110v-4.9h4.4v-4.6h-1.1v3.6H110v-4.6h-1.1v4.6h-3.3v-3.6h-1.1zM148.5 55.6c.2-.2.5-.7.9-1.6l-.9-.3c-.3.8-.6 1.3-.8 1.6l.8.3zm-3.2-.3c-.1-.4-.3-.9-.8-1.6l-.8.4c.4.7.7 1.4.7 1.6l.9-.4zm.4 1.2c-.3.4-1.3 1.3-2.5 1.9l.6.8c.8-.5 1.5-1 2.3-2v2.1h.9v-2.1c.5.6.9.9 1.5 1.5l.6-.8c-.7-.5-1.2-.8-1.7-1.4h2v-.8H147v-2.1h-.9v2.1h-2.7v.8h2.3zm2.1 4.6c-.1.4-.4 1.1-.9 1.7-.6-.2-1-.4-1.5-.6.2-.3.3-.4.6-1.2h1.8zm-2.2-1.8c-.1.2-.1.5-.3.9h-1.9v.9h1.6c-.4.9-.6 1.2-.9 1.6.4.1.9.3 2.1.8-1 .6-2.3.8-2.7.9l.4.9c1.1-.3 2.3-.7 3.2-1.4.9.4 1.2.6 1.5.9l.6-.9-1.4-.7c.7-.8 1-1.7 1.1-2.1h.8v-.9h-3.3c.1-.2.1-.3.3-.7l-1.1-.2zm7.7-2.7c-.1 2.7-.7 4.2-1 4.7-.5-1.1-1-2.8-1.1-4.6l.1-.2h2zm-1.7-1c.3-.9.3-1.4.4-1.8l-1-.2c-.5 3.2-1.5 4.7-2 5.2l.8.7c.2-.3.4-.5.7-1.1.3 1.8.8 3.3 1.2 3.9-1 1.3-2.1 1.7-2.7 2l.7.9c.5-.3 1.6-.9 2.6-2 .8 1.1 1.7 1.7 2.2 2.1l.6-1c-.4-.3-1.4-.9-2.2-2 1.2-2 1.4-4.9 1.4-5.7h.6v-1h-3.3z"/><path fill="#004D8D" d="M83.6 58h14.1c.7 0 1.4.6 1.4 1.4 0 .7-.6 1.4-1.4 1.4H83.6c-.7 0-1.4-.6-1.4-1.4.1-.8.7-1.4 1.4-1.4"/><path fill="#241916" d="M244.5 63h-3.8v-1.2h3.8V63zm0-1.9h-3.8V60h3.8v1.1zm1-1.8h-5.7v4.6h5.7v-4.6zm-4.5-1.7h-2.7v-1h2.7v1zm0-1.8h-2.7v-1h2.7v1zm-3.6-1.8v11.1h1v-6.8h3.6V54h-4.6zm9.6 3.6h-2.8v-1h2.8v1zm0-1.8h-2.8v-1h2.8v1zm1-1.8h-4.7v4.4h3.8v5.5c0 .3-.1.3-.4.3h-1.5l.2 1h1.8c.9 0 .9-.8.9-1V54zm-18-.4h-1.1v10c0 .3 0 .4-.4.4h-2.1l.3 1.1h2.3c.8 0 1.2-.3 1.2-1.1V53.6zm2.2 2.3c.6 3.8 1.3 5.5 2.4 7.1l.9-.8c-1.8-2.8-2.1-5.7-2.2-6.5l-1.1.2zm-7.7 7c1.1-1.3 1.9-3.1 2.4-7l-1.1-.1c-.4 4-1.6 5.7-2.2 6.4l.9.7zm-4-1.7c-.5.6-1.2 1.2-1.6 1.4-.6-.5-.9-1.1-1.2-1.4h2.8zm.1-5.1h-7.9v-1.3h7.9v1.3zm-1.9 4.3H216V59h2.6v1.4zm-3.6-2.3h-1.9v.8h1.9v1.4h-2.4v-3.5h2.4v1.3zm3.6 0H216v-1.2h2.6v1.2zm2 3.1h1.5v-.9h-2.6v-1.4h2.1v-.8h-2.1v-1.2h2v-3h-10v4.9c0 1.5-.1 4-1.1 5.6l.9.7c.4-.6.8-1.7 1-4h1.7V64c-.9.1-1.2.1-1.5.1l.2 1c.9-.1 3.3-.3 4.9-.6v-.9c-.8.1-1.7.3-2.5.3v-2.7h1.5c1.2 2.3 2.6 3.2 5.1 4l.5-1c-.6-.2-1.6-.4-2.6-1 .4-.2 1.1-.8 1.7-1.4l-.7-.6zm-22.2-6.7v4.6h4.4V64h-3.8v-3.9H198V65h10.7v-4.9h-1.1V64h-3.8v-4.9h4.4v-4.6h-1.1v3.6h-3.3v-4.6h-1.1v4.6h-3.3v-3.6h-.9zM255.3 55.6c.2-.2.5-.7.9-1.6l-.9-.3c-.3.8-.6 1.3-.8 1.6l.8.3zm-3.2-.3c-.1-.4-.3-.9-.8-1.6l-.8.4c.4.7.7 1.4.7 1.6l.9-.4zm.3 1.2c-.3.4-1.3 1.3-2.5 1.9l.6.8c.8-.5 1.5-1 2.3-2v2.1h.9v-2.1c.5.6.9.9 1.5 1.5l.6-.8c-.7-.5-1.2-.8-1.7-1.4h2v-.8h-2.4v-2.1h-.9v2.1h-2.7v.8h2.3zm2.2 4.6c-.1.4-.4 1.1-.9 1.7-.6-.2-1-.4-1.5-.6.2-.3.3-.4.6-1.2h1.8zm-2.2-1.8c-.1.2-.1.5-.3.9h-1.9v.9h1.6c-.4.9-.6 1.2-.9 1.6.4.1.9.3 2.1.8-1 .6-2.3.8-2.7.9l.4.9c1.1-.3 2.3-.7 3.2-1.4.9.4 1.2.6 1.5.9l.6-.9-1.4-.7c.7-.8 1-1.7 1.1-2.1h.8v-.9h-3.3c.1-.2.1-.3.3-.7l-1.1-.2zm7.7-2.7c-.1 2.7-.7 4.2-1 4.7-.5-1.1-1-2.8-1.1-4.6l.1-.2h2zm-1.7-1c.3-.9.3-1.4.4-1.8l-1-.2c-.5 3.2-1.5 4.7-2 5.2l.8.7c.2-.3.4-.5.7-1.1.3 1.8.8 3.3 1.2 3.9-1 1.3-2.1 1.7-2.7 2l.7.9c.5-.3 1.6-.9 2.6-2 .8 1.1 1.7 1.7 2.2 2.1l.6-1c-.4-.3-1.4-.9-2.2-2 1.2-2 1.4-4.9 1.4-5.7h.6v-1h-3.3z"/><path fill="#E85550" d="M177.5 58h14.1c.7 0 1.4.6 1.4 1.4 0 .7-.6 1.4-1.4 1.4h-14.1c-.7 0-1.4-.6-1.4-1.4.1-.8.7-1.4 1.4-1.4"/><path fill="#004D8D" d="M111.1 203.8l99-11.3 99.2-2.2 98.9-3.5 98.6-2.3.1 1.1-98.6 2.3-.1-.5.1.5-99 3.5-99.2 2.2-98.8 11.2z"/><path fill="#9F3E40" d="M111.4 143.8l98.9-15 98.6-10.6 99-20.2H507v1h-99l-98.9 20.5-98.6 10.7-98.9 15z"/><path fill="#004D8D" d="M111.2 208.5c2.2 0 3.9-1.8 3.9-3.9 0-2.2-1.8-3.9-3.9-3.9-2.2 0-3.9 1.8-3.9 3.9 0 2.2 1.7 3.9 3.9 3.9M210.1 197.2c2.2 0 3.9-1.8 3.9-3.9 0-2.2-1.8-3.9-3.9-3.9-2.2 0-3.9 1.8-3.9 3.9 0 2.2 1.7 3.9 3.9 3.9M309 194.7c2.2 0 3.9-1.8 3.9-3.9 0-2.2-1.8-3.9-3.9-3.9-2.2 0-3.9 1.8-3.9 3.9 0 2.2 1.8 3.9 3.9 3.9M407.9 191.6c2.2 0 3.9-1.8 3.9-3.9 0-2.2-1.8-3.9-3.9-3.9-2.2 0-3.9 1.8-3.9 3.9 0 2.2 1.8 3.9 3.9 3.9"/><path fill="#9F3E40" d="M309 122.8c2.2 0 3.9-1.8 3.9-3.9 0-2.2-1.8-3.9-3.9-3.9-2.2 0-3.9 1.8-3.9 3.9 0 2.1 1.8 3.9 3.9 3.9M111.2 148.4c2.2 0 3.9-1.8 3.9-3.9 0-2.2-1.8-3.9-3.9-3.9-2.2 0-3.9 1.8-3.9 3.9 0 2.2 1.7 3.9 3.9 3.9M210.1 133.4c2.2 0 3.9-1.8 3.9-3.9 0-2.2-1.8-3.9-3.9-3.9-2.2 0-3.9 1.8-3.9 3.9 0 2.1 1.7 3.9 3.9 3.9M407.9 102.7c2.2 0 3.9-1.8 3.9-3.9 0-2.2-1.8-3.9-3.9-3.9-2.2 0-3.9 1.8-3.9 3.9 0 2.2 1.8 3.9 3.9 3.9"/><path fill="#004D8D" d="M506.8 189c2.2 0 3.9-1.8 3.9-3.9 0-2.2-1.8-3.9-3.9-3.9-2.2 0-3.9 1.8-3.9 3.9 0 2.1 1.8 3.9 3.9 3.9"/><path fill="#9F3E40" d="M506.8 102.7c2.2 0 3.9-1.8 3.9-3.9 0-2.2-1.8-3.9-3.9-3.9-2.2 0-3.9 1.8-3.9 3.9 0 2.2 1.8 3.9 3.9 3.9"/><path fill="#004D8D" d="M536.4 205l-21.7-16.9 10.3 18.1V280h75v-75z"/><path fill="#9F3E40" d="M525 0v75l-10.3 18.1L538 75h62V0z"/><path fill="#FFF" d="M578.9 12.8c-.4-.4-.9-.6-1.5-.6s-1.1.2-1.5.6c-.4.4-.6 1-.6 1.7s.2 1.2.5 1.7c.4.4.9.7 1.5.7s1.1-.2 1.5-.6c.4-.4.6-1 .6-1.7.1-.8-.1-1.4-.5-1.8m2.2 3.3c-.2.5-.4 1.1-.7 1.7l-3 6.2h-2l2.9-5.7c-.2.1-.4.1-.6.2h-.6c-.5 0-.9-.1-1.4-.3-.4-.2-.8-.4-1.1-.8-.3-.3-.6-.7-.8-1.2-.2-.5-.3-1-.3-1.6 0-.6.1-1.2.3-1.7.2-.5.5-.9.8-1.3.3-.4.8-.6 1.2-.8.5-.2 1-.3 1.6-.3.6 0 1.1.1 1.6.3.5.2.9.4 1.3.8.3.4.6.8.8 1.3.2.5.3 1 .3 1.7 0 .4-.1.9-.3 1.5m-13.2 7.8V12.7l-2.6 2.3v-2.1l2.6-2.3h1.9V24h-1.9zm-7.7-9.6c0-.7-.2-1.2-.5-1.6-.3-.4-.8-.6-1.4-.6-.6 0-1.1.2-1.4.6-.3.4-.5.9-.5 1.6v5.8c0 .7.2 1.2.5 1.6.3.4.8.6 1.4.6.6 0 1.1-.2 1.4-.6.3-.4.5-.9.5-1.6v-5.8zm1.6 7.5c-.2.5-.5.9-.8 1.2-.4.3-.8.6-1.2.8-.5.2-1 .3-1.5.3s-1-.1-1.5-.3c-.5-.2-.9-.4-1.2-.8-.4-.3-.6-.7-.8-1.2-.2-.5-.3-1-.3-1.6v-5.9c0-.6.1-1.1.3-1.6.2-.5.5-.9.8-1.2.3-.3.8-.6 1.2-.8.5-.2 1-.3 1.5-.3s1 .1 1.5.3c.5.2.9.4 1.2.8.3.3.6.7.8 1.2.2.5.3 1 .3 1.6v5.9c0 .6-.1 1.2-.3 1.6m-17.7 2.1v-1.7l5.1-6.3c.3-.3.4-.6.5-.9.1-.3.2-.6.2-.9 0-.6-.2-1.1-.5-1.5-.3-.4-.8-.6-1.4-.6-.3 0-.5 0-.7.1-.2.1-.4.2-.6.4-.2.2-.3.4-.4.6-.1.3-.2.6-.2 1h-1.9c0-.6.1-1.1.3-1.5.2-.5.5-.9.8-1.2.3-.3.8-.6 1.2-.8.5-.2 1-.3 1.6-.3.6 0 1.1.1 1.6.3.5.2.9.4 1.2.8.3.3.6.7.8 1.2.2.5.3 1 .3 1.6 0 .6-.1 1.1-.3 1.5-.2.4-.5.9-.9 1.4l-4.2 5.1h5.4v1.7h-7.9zM585.6 49.8v-3.5h-8.3l6-6.9c1.5-1.7 2.3-2.8 2.3-4.9 0-3.8-2.7-6.2-6.5-6.2-3.7 0-6.5 2.3-6.5 6.2h3.9c0-2.1 1.3-2.7 2.6-2.7 1.7 0 2.6 1.1 2.6 2.7 0 1-.3 1.7-1.1 2.6l-8 9.3v3.5h13zm-16.4 0v-3.5H561l6-6.9c1.5-1.7 2.3-2.8 2.3-4.9 0-3.8-2.7-6.2-6.5-6.2-3.7 0-6.5 2.3-6.5 6.2h3.9c0-2.1 1.3-2.7 2.6-2.7 1.7 0 2.6 1.1 2.6 2.7 0 1-.3 1.7-1.1 2.6l-8 9.3v3.5h12.9zm-16.1-6.1c0-2.6-1.2-4.1-2.8-4.9 1.4-.8 2.5-2.1 2.5-4.4 0-3.6-2.7-6.1-6.5-6.1-3.6 0-6.5 2.3-6.5 6.1h3.9c.1-1.6 1.2-2.6 2.6-2.6 1.4 0 2.6.9 2.6 2.7 0 1.5-.8 2.7-2.7 2.7h-.6v3.4h.6c1.9 0 3 1.2 3 2.9 0 1.9-1.2 3-2.9 3-1.5 0-2.9-.9-2.9-2.8h-3.9c.1 4.5 3.3 6.3 6.8 6.3 3.7 0 6.8-2.1 6.8-6.3M570.6 63.9h-3.8v-1.2h3.8v1.2zm0-1.8h-3.8V61h3.8v1.1zm1-1.9h-5.7v4.6h5.7v-4.6zm-4.5-1.7h-2.7v-1h2.7v1zm0-1.7h-2.7v-1h2.7v1zm-3.7-1.8v11.1h1v-6.8h3.6V55h-4.6zm9.7 3.5h-2.8v-1h2.8v1zm0-1.7h-2.8v-1h2.8v1zm1-1.8h-4.7v4.4h3.8v5.5c0 .3-.1.3-.4.3h-1.5l.2 1h1.8c.9 0 .9-.8.9-1V55zm-17.6-.5h-1.1v10c0 .3 0 .4-.4.4h-2.1l.3 1.1h2.3c.8 0 1.2-.3 1.2-1.1V54.5zm2.2 2.3c.6 3.8 1.3 5.5 2.4 7.1l.9-.8c-1.8-2.8-2.1-5.7-2.2-6.5l-1.1.2zm-7.7 7c1.1-1.3 1.9-3.1 2.4-7l-1.1-.1c-.4 4-1.6 5.7-2.2 6.4l.9.7zM577.9 218.1c-.4-.4-.9-.6-1.5-.6s-1.1.2-1.5.6c-.4.4-.6 1-.6 1.7s.2 1.2.5 1.7c.4.4.9.7 1.5.7s1.1-.2 1.5-.6c.4-.4.6-1 .6-1.7.1-.8-.1-1.4-.5-1.8m2.2 3.3c-.2.5-.4 1.1-.7 1.7l-3 6.2h-2l2.9-5.7c-.2.1-.4.1-.6.2h-.6c-.5 0-.9-.1-1.4-.3-.4-.2-.8-.4-1.1-.8-.3-.3-.6-.7-.8-1.2-.2-.5-.3-1-.3-1.6 0-.6.1-1.2.3-1.7.2-.5.5-.9.8-1.3.3-.4.8-.6 1.2-.8.5-.2 1-.3 1.6-.3.6 0 1.1.1 1.6.3.5.2.9.4 1.3.8.3.4.6.8.8 1.3.2.5.3 1 .3 1.7 0 .4-.1 1-.3 1.5m-13.2 7.9V218l-2.6 2.3v-2.1l2.6-2.3h1.9v13.4h-1.9zm-7.7-9.6c0-.7-.2-1.2-.5-1.6-.3-.4-.8-.6-1.4-.6-.6 0-1.1.2-1.4.6-.3.4-.5.9-.5 1.6v5.8c0 .7.2 1.2.5 1.6.3.4.8.6 1.4.6.6 0 1.1-.2 1.4-.6.3-.4.5-.9.5-1.6v-5.8zm1.6 7.4c-.2.5-.5.9-.8 1.2-.4.3-.8.6-1.2.8-.5.2-1 .3-1.5.3s-1-.1-1.5-.3c-.5-.2-.9-.4-1.2-.8-.4-.3-.6-.7-.8-1.2-.2-.5-.3-1-.3-1.6v-5.9c0-.6.1-1.1.3-1.6.2-.5.5-.9.8-1.2.3-.3.8-.6 1.2-.8.5-.2 1-.3 1.5-.3s1 .1 1.5.3c.5.2.9.4 1.2.8.3.3.6.7.8 1.2.2.5.3 1 .3 1.6v5.9c0 .6-.1 1.2-.3 1.6m-17.7 2.2v-1.7l5.1-6.3c.3-.3.4-.6.5-.9.1-.3.2-.6.2-.9 0-.6-.2-1.1-.5-1.5-.3-.4-.8-.6-1.4-.6-.3 0-.5 0-.7.1-.2.1-.4.2-.6.4-.2.2-.3.4-.4.6-.1.3-.2.6-.2 1h-1.9c0-.6.1-1.1.3-1.5.2-.5.5-.9.8-1.2.3-.3.8-.6 1.2-.8.5-.2 1-.3 1.6-.3.6 0 1.1.1 1.6.3.5.2.9.4 1.2.8.3.3.6.7.8 1.2.2.5.3 1 .3 1.6 0 .6-.1 1.1-.3 1.5-.2.4-.5.9-.9 1.4l-4.2 5.1h5.4v1.7h-7.9zM584.1 247.9c0-2-.2-4-1.9-5.7-.9-.9-2.2-1.4-4-1.4-1.4 0-2.6.5-3.2 1.1v-4.6h8.7v-3.5h-12.2v12.1h3.6c.3-.8 1-1.7 2.6-1.7 1.9 0 2.6 1.4 2.6 3.8 0 1.4-.1 2.5-.8 3.2-.5.5-1.1.7-1.9.7-1.6 0-2.4-1-2.6-2.6h-4c.1 1.6.4 3.1 1.7 4.4.9.9 2.6 1.7 4.8 1.7 2.2 0 3.8-.8 4.7-1.7 1.6-1.7 1.9-3.4 1.9-5.8m-20.5-8.1c0 1.6-1.1 2.7-2.6 2.7s-2.7-1.1-2.7-2.7c0-1.5 1.1-2.7 2.7-2.7 1.5 0 2.6 1.2 2.6 2.7m.3 9.1c0 1.7-1.3 2.9-2.9 2.9-1.7 0-2.9-1.3-2.9-2.9 0-1.7 1.3-3 2.9-3 1.6 0 2.9 1.3 2.9 3m3.9 0c0-2.6-1.5-4-2.7-4.8 1.1-.8 2.4-2.2 2.4-4.4 0-3.8-3-6.1-6.5-6.1-3.6 0-6.6 2.3-6.6 6.1 0 2.3 1.3 3.7 2.4 4.4-1.2.8-2.7 2.2-2.7 4.8 0 4.1 3.1 6.4 6.9 6.4 3.8 0 6.8-2.2 6.8-6.4m-18.7 6.3v-21.4h-3.9l-4.4 3.8v4.2l4.4-3.8v17.2h3.9zM563.3 259.1v3.6h-2.6v1h2.6v5.5h-3.2v1h7.3v-1h-3v-5.5h2.8v-1h-2.8v-3.6h-1.1zm-4.5 6.2c.7.8.8 1 1.5 1.5l.6-.9c-.7-.5-1.1-.9-1.8-1.6.9-1.1 1.2-1.9 1.4-2.2v-1h-1.6v-2h-1v2h-2v.9h3.5c-.4 1-1.6 2.6-3.7 3.9l.4 1c.3-.2.9-.6 1.7-1.3v5.1h1v-5.4z"/></svg>