<svg xmlns="http://www.w3.org/2000/svg" width="210" height="285" viewBox="0 0 210 285"><defs><style>.cls-1{fill:#fff;}.cls-2{fill:#f0eae0;}.cls-3{fill:#827663;}.cls-4{fill:none;stroke:#241916;stroke-miterlimit:10;stroke-width:0.531px;}.cls-5{fill:#392712;}.cls-6{fill:#8b88c0;}.cls-7,.cls-8{fill:#655541;}.cls-7{fill-rule:evenodd;}.cls-9{fill:#241916;}</style></defs><g id="レイヤー_2" data-name="レイヤー 2"><g id="レイヤー_1-2" data-name="レイヤー 1"><rect class="cls-1" width="210" height="284.55"/><rect class="cls-2" x="14.999" width="182.001" height="285"/><polygon class="cls-3" points="15 32.422 1 14.923 1 60.421 15 74.421 15 32.422"/><polygon class="cls-3" points="196 32.422 210 14.923 210 60.421 196 74.421 196 32.422"/><line class="cls-4" x1="30" y1="165.5" x2="180" y2="165.5"/><rect class="cls-5" y="20" width="210" height="41"/><path class="cls-1" d="M14.33,35.161a2.982,2.982,0,0,0,.7-.051.3.3,0,0,1,.129-.017c.271,0,.843.925.843,1.227a.4.4,0,0,1-.086.218,4.563,4.563,0,0,0-.329.723,30.192,30.192,0,0,1-1.285,2.99,1.125,1.125,0,0,0-.157.47.522.522,0,0,0,.257.437c.171.151.8.655.8.874,0,.268-.642,1.277-.928,1.277a.343.343,0,0,1-.214-.135c-.286-.3-.314-.3-.571-.554a.455.455,0,0,0-.314-.185c-.2,0-.358.235-.486.4a12.148,12.148,0,0,1-3.127,2.839,6.834,6.834,0,0,1-1.714.857c-.372,0-1.043-1.075-1.043-1.31,0-.252.485-.336.628-.387a8.733,8.733,0,0,0,4.085-3.024.678.678,0,0,0,.214-.419.426.426,0,0,0-.228-.387c-.515-.353-1-.655-1.528-.958-.1-.05-.272-.134-.272-.285,0-.236.543-1.26.871-1.26a11.163,11.163,0,0,1,1.757,1.024.632.632,0,0,0,.357.185c.257,0,.372-.3.486-.554a11.36,11.36,0,0,0,.742-2.016c0-.336-.356-.336-.571-.336H10.6c-.343,0-.443.134-.628.437a24.7,24.7,0,0,1-1.843,2.587c-.114.134-.285.319-.457.319-.257,0-1.2-.706-1.2-.991,0-.135.142-.235.228-.319a15.785,15.785,0,0,0,3.728-6.031c.043-.135.1-.42.256-.42a4.641,4.641,0,0,1,.9.453c.243.118.743.4.743.521a.2.2,0,0,1-.143.185c-.214.1-.228.134-.457.6-.043.1-.114.252-.2.421a.658.658,0,0,0-.114.336.252.252,0,0,0,.243.252Zm2.386-.807c0,.252-.558.672-.743.672-.1,0-.143-.1-.186-.185a15.893,15.893,0,0,0-.871-1.5.479.479,0,0,1-.1-.235c0-.2.585-.588.743-.588A6.538,6.538,0,0,1,16.716,34.354Zm1.114-1.747a3.532,3.532,0,0,1,.428.823c0,.252-.571.672-.742.672-.1,0-.158-.118-.215-.218q-.408-.756-.857-1.462a.369.369,0,0,1-.1-.218c0-.219.586-.605.743-.605.114,0,.6.722.671.89C17.772,32.523,17.8,32.557,17.83,32.607Z"/><path class="cls-1" d="M25.269,44.014c0,.739.028,1.479.028,2.2,0,.453-.186.5-.714.5-.786,0-.929-.051-.929-.488,0-.722.029-1.444.029-2.167V39.495c0-.1.043-.471-.229-.471-.142,0-.442.286-.557.387a17.385,17.385,0,0,1-3.07,2.151,2.668,2.668,0,0,1-1.114-1.345c0-.168.129-.235.228-.285a20.729,20.729,0,0,0,5.614-4.453A14.072,14.072,0,0,0,26.5,32.641c.043-.084.129-.252.229-.252a5.13,5.13,0,0,1,.971.688c.158.118.557.4.557.605,0,.1-.071.134-.143.168a.768.768,0,0,0-.556.4,31.378,31.378,0,0,1-1.957,2.52.953.953,0,0,0-.328.756Z"/><path class="cls-1" d="M34.179,36.555c.128.1.356.235.356.386,0,.118-.128.185-.214.236a.633.633,0,0,0-.257.336,26.394,26.394,0,0,1-3.113,5.258c-.172.218-.614.84-.857.84s-1.214-.706-1.214-1.042a.363.363,0,0,1,.114-.235,19.024,19.024,0,0,0,3.7-6.1c.086-.236.115-.387.243-.387A7.794,7.794,0,0,1,34.179,36.555Zm3.913-.2a18.883,18.883,0,0,1,1.285,1.9,22.8,22.8,0,0,1,1.929,3.981c0,.42-1.086,1.008-1.343,1.008-.172,0-.229-.151-.285-.3a24.658,24.658,0,0,0-2.815-5.426.763.763,0,0,1-.142-.353c0-.3.857-.974,1.056-.974A.406.406,0,0,1,38.092,36.354Zm2.6.066a1.259,1.259,0,0,1-.685.773c-.071,0-.129-.1-.172-.168-.343-.47-.686-.923-1.057-1.344-.043-.05-.129-.134-.129-.218,0-.2.543-.706.686-.706A5.946,5.946,0,0,1,40.691,36.42Zm1.414-1.226a1.23,1.23,0,0,1-.685.756c-.071,0-.143-.1-.186-.168-.342-.47-.672-.89-1.057-1.327a.4.4,0,0,1-.115-.219c0-.184.53-.7.686-.7A5.964,5.964,0,0,1,42.105,35.194Z"/><path class="cls-1" d="M52.144,38.386c.657,0,1.585-.05,1.771-.05.386,0,.4.134.4,1.058,0,.538-.013.857-.385.857-.6,0-1.2-.034-1.785-.034h-6.57c-.586,0-1.185.034-1.785.034-.372,0-.386-.319-.386-.84,0-.941.029-1.075.4-1.075.185,0,1.172.05,1.771.05Z"/><path class="cls-1" d="M57.141,36.874a12.208,12.208,0,0,1,1.771,1.159c.385.269,1.113.739,1.113,1.009,0,.3-.571,1.293-.856,1.293-.1,0-.243-.118-.329-.185a25,25,0,0,0-2.271-1.7c-.1-.067-.243-.134-.243-.285C56.326,37.9,56.869,36.874,57.141,36.874Zm.471,7.207a15.273,15.273,0,0,0,1.7-.672,9.592,9.592,0,0,0,3.556-2.638A14.931,14.931,0,0,0,65.311,35.7c.056-.168.114-.4.3-.4a2.461,2.461,0,0,1,1.072,1.26,4.2,4.2,0,0,1-.186.655c-.029.118-.072.2-.086.269a15.3,15.3,0,0,1-2.642,4.754,13.49,13.49,0,0,1-4.885,3.394.821.821,0,0,0-.542.487.187.187,0,0,1-.144.1c-.156,0-.271-.37-.356-.571l-.472-1.21a.472.472,0,0,1-.028-.151C57.341,44.148,57.526,44.115,57.612,44.081Zm2.742-9.811c.3.252.814.672,1.072.924a.406.406,0,0,1,.156.285c0,.3-.6,1.244-.856,1.244a.692.692,0,0,1-.358-.219,22.3,22.3,0,0,0-2.1-1.78c-.1-.067-.244-.168-.244-.32,0-.235.615-1.159.871-1.159a5.848,5.848,0,0,1,1.243.857A2.422,2.422,0,0,1,60.354,34.27Z"/><path class="cls-1" d="M77.72,37.966c.6,0,1.2-.05,1.813-.05.444,0,.429.134.429.924,0,.571,0,.89-.386.89-.628,0-1.242-.034-1.856-.034H75.849c-.4,0-.414.437-.457.79a6.959,6.959,0,0,1-3.085,5.292,6.125,6.125,0,0,1-1.486.739c-.314,0-1.1-1.108-1.1-1.394,0-.185.271-.252.4-.286a6.216,6.216,0,0,0,1.785-.873,5.034,5.034,0,0,0,1.8-3.058c.028-.151.129-.689.129-.823a.367.367,0,0,0-.343-.387h-2.9c-.586,0-1.186.034-1.785.034-.371,0-.386-.252-.386-.856,0-.773.043-.958.357-.958.614,0,1.214.05,1.814.05Zm-2.115-4.4c.615,0,1.229-.033,1.858-.033.385,0,.371.219.371,1.042,0,.52.014.756-.386.756-.6,0-1.214-.034-1.828-.034H72.507c-.614,0-1.229.034-1.828.034-.429,0-.386-.269-.386-.908,0-.7.014-.89.386-.89.614,0,1.227.033,1.856.033Z"/><path class="cls-1" d="M86.459,44.552c0,.571.028,1.125.028,1.7,0,.419-.3.453-.571.453-.8,0-.843-.084-.843-.537,0-.521.029-1.059.029-1.58V41.108c0-.084-.029-.253-.171-.253s-.272.152-.372.236a13.3,13.3,0,0,1-2.342,1.63c-.243,0-.914-.807-.914-1.109,0-.185.171-.269.328-.353a14.172,14.172,0,0,0,5.613-5.426c.071-.135.129-.3.242-.3.172,0,.686.454.843.588.144.1.4.286.4.5,0,.134-.1.185-.2.2-.214.067-.271.168-.414.369a19.741,19.741,0,0,1-1.285,1.681,1.029,1.029,0,0,0-.371.923Z"/><path class="cls-1" d="M100.9,45.829c-.372,0-.458-.068-.714-.387l-.429-.554c-.143-.168-.229-.252-.328-.252a.562.562,0,0,0-.329.168,4.816,4.816,0,0,1-3.185,1.125,2.831,2.831,0,0,1-3.085-3.007,4.265,4.265,0,0,1,1.943-3.394c.17-.134.256-.235.256-.336a.656.656,0,0,0-.142-.352,4.729,4.729,0,0,1-.7-2.319,2.526,2.526,0,0,1,2.628-2.688,2.309,2.309,0,0,1,2.414,2.521A3.851,3.851,0,0,1,97.7,39.31c-.142.134-.214.235-.214.336a.647.647,0,0,0,.171.336l1.4,1.664c.114.134.2.218.271.218s.143-.1.229-.3a10.19,10.19,0,0,0,.715-2.941c.042-.436.113-.5.485-.5h.757c.271,0,.371.051.386.252a2.58,2.58,0,0,1-.029.286,15.366,15.366,0,0,1-1.215,4.25,1.086,1.086,0,0,0-.114.387.672.672,0,0,0,.215.4c.514.621.985,1.193,1.5,1.781a.484.484,0,0,1,.144.252c0,.067-.1.1-.272.1Zm-4.871-5.276a.536.536,0,0,0-.328.168,2.849,2.849,0,0,0-1.243,2.1,1.485,1.485,0,0,0,1.628,1.462,3.242,3.242,0,0,0,2.014-.672c.157-.118.228-.2.228-.3a.544.544,0,0,0-.171-.336l-1.8-2.184C96.211,40.621,96.125,40.553,96.025,40.553Zm.729-5.157a1.034,1.034,0,0,0-1.071,1.125,3.04,3.04,0,0,0,.528,1.546c.114.185.2.286.3.286s.172-.068.3-.185a2.317,2.317,0,0,0,.928-1.73A.947.947,0,0,0,96.754,35.4Z"/><path class="cls-1" d="M111.935,44.014c0,.739.028,1.479.028,2.2,0,.453-.186.5-.714.5-.786,0-.929-.051-.929-.488,0-.722.029-1.444.029-2.167V39.495c0-.1.043-.471-.229-.471-.142,0-.442.286-.557.387a17.385,17.385,0,0,1-3.07,2.151,2.668,2.668,0,0,1-1.114-1.345c0-.168.129-.235.228-.285a20.714,20.714,0,0,0,5.614-4.453,14.072,14.072,0,0,0,1.941-2.838c.043-.084.129-.252.229-.252a5.13,5.13,0,0,1,.971.688c.158.118.557.4.557.605,0,.1-.071.134-.143.168a.768.768,0,0,0-.556.4,31.378,31.378,0,0,1-1.957,2.52.953.953,0,0,0-.328.756Z"/><path class="cls-1" d="M128.229,37.748c0,.285-.573.94-.758,1.159a25.2,25.2,0,0,1-7.755,6.334c-.472.268-.486.285-.6.571a.143.143,0,0,1-.143.1c-.157,0-.457-.672-.557-.874a5.067,5.067,0,0,1-.429-1.008c0-.185.258-.219.444-.286,3.156-1.092,6.726-4.267,8.755-7.307.056-.084.142-.186.242-.186C127.714,36.252,128.229,37.5,128.229,37.748Zm-7.371-2.772c.186.151.871.7.871.957,0,.387-.67,1.294-.942,1.294-.114,0-.386-.252-.571-.454a18.413,18.413,0,0,0-1.9-1.562c-.114-.084-.228-.168-.228-.319,0-.252.571-1.328.9-1.328A11.281,11.281,0,0,1,120.858,34.976Z"/><path class="cls-1" d="M137.609,35.194a2.9,2.9,0,0,0,.8-.1c.043,0,.1-.016.157-.016.287,0,.914.923.914,1.142a1.16,1.16,0,0,1-.17.42c-.115.2-.258.487-.444.907-1.4,3.192-2.8,5.645-5.427,7.644a9.3,9.3,0,0,1-1.957,1.227c-.314,0-1.213-.824-1.213-1.143,0-.168.17-.252.286-.3a13.389,13.389,0,0,0,5.512-5.376,11.012,11.012,0,0,0,1.1-2.47c0-.218-.229-.235-.429-.235h-2.714c-.328,0-.414.168-.6.47-.272.454-1.914,2.756-2.3,2.756-.171,0-1.214-.639-1.214-.992a.27.27,0,0,1,.129-.235,15.594,15.594,0,0,0,3.814-6.014c.056-.168.1-.4.228-.4a4.387,4.387,0,0,1,.757.369c.129.084.856.4.856.588a.236.236,0,0,1-.128.185c-.2.084-.243.168-.485.689a2.691,2.691,0,0,0-.258.6.256.256,0,0,0,.243.285Z"/><path class="cls-1" d="M145.377,34.522c.171.034.357.034.357.2,0,.084-.086.168-.143.235-.085.1-.071.386-.071.538v.369c0,3.478-.2,6.434-2.471,8.988-.114.118-.285.353-.443.353-.214,0-1.271-.622-1.271-.924a.5.5,0,0,1,.186-.3c2.17-2.116,2.442-4.468,2.442-7.593,0-.5-.015-1.176-.057-1.663,0-.051-.014-.135-.014-.185,0-.151.086-.185.185-.185A12.455,12.455,0,0,1,145.377,34.522Zm3.385,7.022c0,.521.014.773.228.773.472,0,3.285-2.957,3.742-3.511.072-.084.171-.218.286-.218.243,0,.728,1.075.728,1.344,0,.252-.557.789-.742.974-.858.874-1.714,1.731-2.614,2.52-.386.353-1,.89-1.343,1.243-.128.118-.271.3-.443.3a3.45,3.45,0,0,1-.985-.5c-.2-.135-.457-.3-.457-.605,0-.118.057-1.21.057-2.016v-5.88c0-.571,0-1.142-.057-1.714v-.084c0-.117.057-.168.143-.168s.443.067.557.084c.742.118,1.157.168,1.157.353,0,.118-.057.151-.115.235a.74.74,0,0,0-.128.437c-.014.387-.014,1.226-.014,1.646Z"/><path class="cls-1" d="M165.569,38.386c.658,0,1.586-.05,1.772-.05.386,0,.4.134.4,1.058,0,.538-.013.857-.386.857-.6,0-1.2-.034-1.785-.034H159c-.586,0-1.186.034-1.785.034-.372,0-.386-.319-.386-.84,0-.941.028-1.075.4-1.075.185,0,1.171.05,1.771.05Z"/><path class="cls-1" d="M171.424,37.025a15.623,15.623,0,0,1,2,1.311c.471.352.9.6.9.856s-.571,1.277-.871,1.277c-.1,0-.228-.117-.314-.184a24.164,24.164,0,0,0-2.314-1.714.328.328,0,0,1-.215-.269C170.609,38.033,171.139,37.025,171.424,37.025Zm9.44-.084A6.956,6.956,0,0,1,180.551,38a14.879,14.879,0,0,1-2.5,4.368,13.75,13.75,0,0,1-4.885,3.41.8.8,0,0,0-.471.353c-.057.084-.114.235-.215.235-.142,0-.256-.3-.3-.437-.186-.453-.357-.907-.529-1.361a.486.486,0,0,1-.028-.134c0-.134.186-.184.272-.2a18.154,18.154,0,0,0,1.7-.688,9.717,9.717,0,0,0,3.556-2.638,13.021,13.021,0,0,0,2.4-4.72c.043-.152.1-.37.285-.37A2.148,2.148,0,0,1,180.864,36.941Zm-5.884-2.234c.315.269.885.689.885.924,0,.3-.6,1.226-.871,1.226-.1,0-.257-.151-.343-.218a21.722,21.722,0,0,0-2.085-1.764c-.1-.084-.256-.168-.256-.319,0-.269.628-1.176.871-1.176A11.106,11.106,0,0,1,174.98,34.707Zm3-1.63a5.159,5.159,0,0,1,.915.773c.2.2.571.571.571.706,0,.252-.443.84-.629.84-.085,0-.229-.2-.342-.319-.329-.37-.672-.689-1.015-1.025a.3.3,0,0,1-.127-.2C177.352,33.648,177.822,33.077,177.979,33.077Zm1.272-1.445a5.617,5.617,0,0,1,1.5,1.479c0,.252-.442.84-.628.84-.071,0-.143-.084-.185-.135a13.67,13.67,0,0,0-1.158-1.175c-.056-.068-.157-.135-.157-.236C178.622,32.221,179.094,31.632,179.251,31.632Z"/><path class="cls-1" d="M188.5,36.908c.271,0,.557-.017.843-.017.685,0,.785.252.785.941,0,.251-.015.588-.015.974V43.98c0,.353.015.723.015,1.076,0,.537-.129.571-.628.571-.572,0-.644-.034-.715-.37-.028-.185-.143-.185-.442-.185H184.99c-.5,0-1.086.017-1.414.017s-.343-.285-.343-.907c0-.3-.014-.655.315-.655.257,0,.914.034,1.428.034h3.485a.355.355,0,0,0,.328-.387V42.116a.366.366,0,0,0-.328-.387h-3.342c-.5,0-1.129.034-1.429.034-.342,0-.314-.353-.314-.908,0-.318-.028-.638.314-.638.315,0,.914.034,1.414.034h3.357a.355.355,0,0,0,.328-.386V38.806a.372.372,0,0,0-.328-.4h-3.456c-.429,0-1.043.034-1.4.034-.328,0-.342-.269-.342-.74,0-.487-.029-.823.314-.823.272,0,.943.034,1.414.034Z"/><path class="cls-1" d="M204.512,37.748c0,.285-.571.94-.757,1.159A25.193,25.193,0,0,1,196,45.241c-.472.268-.485.285-.6.571a.143.143,0,0,1-.142.1c-.157,0-.457-.672-.558-.874a5.067,5.067,0,0,1-.429-1.008c0-.185.258-.219.444-.286,3.156-1.092,6.726-4.267,8.755-7.307.056-.084.142-.186.243-.186C204,36.252,204.512,37.5,204.512,37.748Zm-7.369-2.772c.185.151.871.7.871.957,0,.387-.671,1.294-.943,1.294-.114,0-.385-.252-.571-.454a18.4,18.4,0,0,0-1.9-1.562c-.115-.084-.229-.168-.229-.319,0-.252.571-1.328.9-1.328A11.327,11.327,0,0,1,197.143,34.976Z"/><rect class="cls-6" y="15" width="210" height="5"/><path class="cls-7" d="M96.385,97.829a6.39,6.39,0,0,0-6.122-5.26H77.258a6.387,6.387,0,0,0-6.121,5.26L68.5,115.117a2.469,2.469,0,1,0,4.866.74l2.8-18.365V139.53a2.66,2.66,0,0,0,2.66,2.659h1.425a2.661,2.661,0,0,0,2.661-2.659V118.488h1.7V139.53a2.659,2.659,0,0,0,2.659,2.659H88.7a2.661,2.661,0,0,0,2.661-2.659V97.492l2.8,18.365a2.468,2.468,0,1,0,4.864-.74Z"/><path class="cls-7" d="M90.145,84.987A6.385,6.385,0,1,1,83.761,78.6a6.385,6.385,0,0,1,6.384,6.384"/><path class="cls-7" d="M130.481,84.987A6.386,6.386,0,1,1,124.1,78.6a6.385,6.385,0,0,1,6.384,6.384"/><path class="cls-8" d="M128.339,92.57h-8.485a8.052,8.052,0,0,0-7.069,4.965c-2.29,6.342-5.955,16.507-5.955,16.507a2.466,2.466,0,1,0,4.628,1.671l6.572-18.219-4.441,26.96h3.29v15.1a2.639,2.639,0,0,0,2.638,2.639h1.466a2.641,2.641,0,0,0,2.641-2.639v-15.1h.943v15.1a2.641,2.641,0,0,0,2.641,2.639h1.468a2.639,2.639,0,0,0,2.638-2.639v-15.1h3.29l-4.443-26.963,6.573,18.222a2.466,2.466,0,1,0,4.628-1.671l-5.954-16.507a8.052,8.052,0,0,0-7.069-4.965"/><path class="cls-9" d="M36.373,184.372A2.773,2.773,0,1,1,33.6,181.6,2.772,2.772,0,0,1,36.373,184.372Z"/><path class="cls-9" d="M42.792,188.866v-9.478h1.172v8.42h4.625v1.058Z"/><path class="cls-9" d="M59.992,188.74a14.478,14.478,0,0,1-2.495.215c-2.936,0-5.042-1.362-5.042-4.677,0-3.428,2.458-4.978,5.092-4.978a9.552,9.552,0,0,1,1.929.177v1.1a9.708,9.708,0,0,0-2.03-.2,3.527,3.527,0,0,0-3.781,3.756c0,2.849,1.727,3.794,4.046,3.794.353,0,.744-.025,1.135-.063v-2.886H56.791v-1.009h3.2Z"/><path class="cls-9" d="M64.4,188.866v-9.478h2.824c1.815,0,2.823.757,2.823,2.244A2.05,2.05,0,0,1,68.42,183.8a2.194,2.194,0,0,1,1.967,2.307c0,1.689-1.11,2.76-3.026,2.76Zm1.148-8.444v2.987h1.524c1.122,0,1.778-.58,1.778-1.576s-.53-1.411-1.714-1.411Zm0,3.97v3.441h1.625c1.311,0,1.967-.618,1.967-1.765,0-1.172-.82-1.676-2.143-1.676Z"/><path class="cls-9" d="M76.7,188.866v-8.419H73.421v-1.059h7.738v1.059H77.87v8.419Z"/><path class="cls-9" d="M89.121,188.854a4.843,4.843,0,0,1-1.487.227c-2.508,0-4.437-1.488-4.437-4.84,0-3.126,1.929-4.966,4.437-4.966s4.424,1.475,4.424,4.827a4.877,4.877,0,0,1-2.017,4.3l1.21,1.588H89.864Zm-.807-3.038,1.084,1.7a3.824,3.824,0,0,0,1.437-3.4c0-2.975-1.676-3.807-3.2-3.807s-3.227.971-3.227,3.945,1.7,3.781,3.227,3.781a3.418,3.418,0,0,0,.87-.113l-1.475-2.1Z"/><path class="cls-9" d="M96.339,188.261a7.821,7.821,0,0,0,.075,1.412H95.343a9.4,9.4,0,0,0,.076-1.424v-8.092a13.237,13.237,0,0,0-.051-1.374,11.179,11.179,0,0,0,1.286.05H98.62a10.716,10.716,0,0,0,1.261-.05c-.026.328-.038.681-.038,1.173v1.449c0,.529.012.832.038,1.121-.341-.025-.732-.037-1.223-.037H96.339Zm0-7.94h2.646v-.807H96.339Zm0,1.487h2.646v-.819H96.339Zm4.575,4.613a4.268,4.268,0,0,0,2.5,1.588,3.1,3.1,0,0,0-.429.832,5.366,5.366,0,0,1-2.595-1.954A3.158,3.158,0,0,1,99.4,188.2a5.868,5.868,0,0,1-1.965,1.021,2.6,2.6,0,0,0-.517-.769,5.379,5.379,0,0,0,1.764-.731,2.49,2.49,0,0,0,1.021-1.3H98.242a6.874,6.874,0,0,0-1.109.063v-.844a5.777,5.777,0,0,0,1.058.063h1.677a7.334,7.334,0,0,0,.075-1.009H98.406a7.035,7.035,0,0,0-1.009.051v-.807a6.85,6.85,0,0,0,1,.051h.579a7.309,7.309,0,0,0-.718-.984l.781-.264a10.38,10.38,0,0,1,.807,1.248h1.2a7.023,7.023,0,0,0,.693-1.261l.82.214a7.334,7.334,0,0,1-.644,1.047h.631a7.137,7.137,0,0,0,1.008-.051v.807a7.029,7.029,0,0,0-1.008-.051h-1.752a7.011,7.011,0,0,1-.076,1.009h2a6.013,6.013,0,0,0,1.071-.063v.844a6.1,6.1,0,0,0-1.071-.063Zm4.625,2.029c0,.605-.1.845-.44,1a2.974,2.974,0,0,1-1.148.114c-.151,0-.39-.013-.668-.026a2.264,2.264,0,0,0-.214-.907,6.7,6.7,0,0,0,1.11.088c.352,0,.44-.076.44-.34V182.5H102.1c-.53,0-.87.013-1.223.038.025-.34.038-.655.038-1.134v-1.449c0-.455-.013-.782-.038-1.173a10.694,10.694,0,0,0,1.261.05h2.168a11.572,11.572,0,0,0,1.3-.05,11.5,11.5,0,0,0-.064,1.362Zm-3.768-8.129h2.848v-.807h-2.848Zm0,1.487h2.848v-.819h-2.848Z"/><path class="cls-9" d="M107.779,183.32a5.141,5.141,0,0,0,.971.064h.731a5.526,5.526,0,0,0,.946-.064,9.02,9.02,0,0,0-.064,1.311v2.5a1.878,1.878,0,0,0,.593.756c.693.479,1.411.63,3.113.63a36.2,36.2,0,0,0,5.067-.239,3.63,3.63,0,0,0-.316,1.059c-1.121.05-2.8.088-4.347.088-2.03,0-2.761-.114-3.542-.542a2.993,2.993,0,0,1-1.046-1,11.887,11.887,0,0,1-1.4,1.222,4.344,4.344,0,0,0-.491.4l-.467-.983a8.115,8.115,0,0,0,1.916-1.412v-2.9h-.781a4.81,4.81,0,0,0-.883.063Zm.832-4.65a15.831,15.831,0,0,1,2.017,2.193l-.731.68a11.884,11.884,0,0,0-1.979-2.256Zm3.4,1.651a5.72,5.72,0,0,0-1.122.063v-.895a10.865,10.865,0,0,0,1.323.063h2.093a5.724,5.724,0,0,0-.089-1.059h1a5.367,5.367,0,0,0-.088,1.059h2.307a11.194,11.194,0,0,0,1.323-.063v.895a7.53,7.53,0,0,0-1.248-.063h-2.382v.857h2.029a7.642,7.642,0,0,0,.983-.051,6.121,6.121,0,0,0-.05.87v2.508a5.564,5.564,0,0,0,.05.832,7.471,7.471,0,0,0-.983-.05h-2.029v.895h2.433a7.174,7.174,0,0,0,1.234-.063v.9a7.5,7.5,0,0,0-1.234-.064h-2.433v.152a7.858,7.858,0,0,0,.075,1.109h-.983a6.483,6.483,0,0,0,.089-1.109v-.152h-2.13c-.492,0-.971.026-1.236.051v-.87a9.157,9.157,0,0,0,1.236.051h2.13v-.895h-1.853c-.353,0-.644.012-.983.038a5.479,5.479,0,0,0,.05-.82v-2.546a6,6,0,0,0-.05-.832,7.277,7.277,0,0,0,.983.051h1.853v-.857Zm.352,1.588v.933h1.942v-.933Zm0,1.638v1.009h1.942v-1.009Zm2.761-.7h2.092v-.933h-2.092Zm0,1.714h2.092v-1.009h-2.092Z"/><path class="cls-9" d="M125.66,179.564a6.11,6.11,0,0,0-.075-1.071h1.121a4.846,4.846,0,0,0-.075,1.071v.681h3.579a8.285,8.285,0,0,0,1.361-.088V181.2a10.2,10.2,0,0,0-1.348-.076h-3.592v1.878h1.663a5.588,5.588,0,0,0,1.084-.063l.605.618a4.818,4.818,0,0,0-.466.643,11.487,11.487,0,0,1-2.433,2.684,12.958,12.958,0,0,0,4.714,1.752,3.558,3.558,0,0,0-.517,1,14.034,14.034,0,0,1-4.991-2.155,13.21,13.21,0,0,1-5.028,2.1,3.82,3.82,0,0,0-.517-.932,12.3,12.3,0,0,0,4.776-1.765,9.051,9.051,0,0,1-1.449-1.512,8.875,8.875,0,0,1-.932-1.538,9.536,9.536,0,0,0-1.349.076v-.983a9.735,9.735,0,0,0,1.374.075h2.495v-1.878h-3.4a10.275,10.275,0,0,0-1.361.076v-1.046a8.39,8.39,0,0,0,1.361.088h3.4Zm-1.513,4.273a7.535,7.535,0,0,0,2.168,2.509,8.866,8.866,0,0,0,2.294-2.509Z"/><path class="cls-9" d="M134.945,179.779a6.82,6.82,0,0,0-.076-1.26h1.059a7.833,7.833,0,0,0-.075,1.247v1.147h.365a6.365,6.365,0,0,0,.743-.038v.908a6.852,6.852,0,0,0-.743-.038h-.365v2.067a10.841,10.841,0,0,0,1-.466l.025.869c-.466.24-.655.341-1.02.5v3.97c0,.744-.278.933-1.374.933-.265,0-.4,0-.732-.026a2.666,2.666,0,0,0-.188-.907,6.128,6.128,0,0,0,1.084.1c.226,0,.3-.063.3-.278V185.1c-.315.126-.542.214-1.008.39a4.117,4.117,0,0,0-.391.164l-.239-.983a6.5,6.5,0,0,0,1.638-.491v-2.433h-.656a6.523,6.523,0,0,0-.831.05v-.945a4.231,4.231,0,0,0,.831.063h.656Zm3.492,3a9.787,9.787,0,0,0-1.148.05v-.857a7.514,7.514,0,0,0,1.059.05h3.567a8.246,8.246,0,0,0,1.134-2.268l.895.277a14.18,14.18,0,0,1-1.147,1.991h.5a5.712,5.712,0,0,0,1.047-.063v.87a10.163,10.163,0,0,0-1.16-.05h-3.366c-.05.554-.05.592-.1.932h3.466a8.825,8.825,0,0,0,1.374-.075v.932a10.793,10.793,0,0,0-1.374-.075H139.57c-.075.34-.113.491-.214.819h2.735a6.711,6.711,0,0,0,1.047-.05l.466.579c-.076.1-.076.1-.265.378a11.225,11.225,0,0,1-1.5,1.626,9.178,9.178,0,0,0,2.974.971,5.256,5.256,0,0,0-.454.92,11.084,11.084,0,0,1-3.226-1.361,10.092,10.092,0,0,1-3.088,1.335,2.247,2.247,0,0,0-.5-.806,8.737,8.737,0,0,0,2.836-1.059,8.121,8.121,0,0,1-1.437-1.436,8.773,8.773,0,0,1-2.407,3.2,2.336,2.336,0,0,0-.631-.706,7.077,7.077,0,0,0,1.778-1.966,7.954,7.954,0,0,0,1.008-2.445h-.353a8.216,8.216,0,0,0-1.235.063v-.908a8.406,8.406,0,0,0,1.248.063h.479c.05-.353.075-.58.1-.932Zm5.747-3.542c-.177.038-.177.038-.606.126a40.147,40.147,0,0,1-6.415.693,1.987,1.987,0,0,0-.3-.806c.164.012.265.012.367.012a21.747,21.747,0,0,0,6.289-.806Zm-5.747,2.735a4.986,4.986,0,0,0-.783-1.525l.757-.278a6.325,6.325,0,0,1,.731,1.488Zm1.209,4.109a7.126,7.126,0,0,0,1.424,1.285,5.166,5.166,0,0,0,1.236-1.285Zm.844-4.21a5.726,5.726,0,0,0-.705-1.651l.769-.24a6.779,6.779,0,0,1,.706,1.614Z"/><path class="cls-9" d="M36.373,203.271A2.773,2.773,0,1,1,33.6,200.5,2.772,2.772,0,0,1,36.373,203.271Z"/><path class="cls-9" d="M49.977,208.573a25.325,25.325,0,0,0-3.807-2.483,8.2,8.2,0,0,1-2.256,1.449,12.465,12.465,0,0,1-3.352.958,3.317,3.317,0,0,0-.517-.933,9.556,9.556,0,0,0,5.243-1.928,26.33,26.33,0,0,0-2.823-1.2c-.19.266-.252.341-.479.656a5.038,5.038,0,0,0-.945-.466,16.7,16.7,0,0,0,2.256-3.567H41.381a9.451,9.451,0,0,0-1.336.076v-1.072a7.991,7.991,0,0,0,1.323.088H43.7a13.144,13.144,0,0,0,.857-2.747l1.134.2c-.176.416-.176.416-.554,1.525-.1.278-.265.744-.378,1.021h5a8.071,8.071,0,0,0,1.336-.088v1.072a9.338,9.338,0,0,0-1.311-.076H48.88a11.527,11.527,0,0,1-.743,2.344,8.74,8.74,0,0,1-1.286,2,34.511,34.511,0,0,1,3.832,2.294Zm-5.609-7.512a22.8,22.8,0,0,1-1.4,2.6c1.31.517,2.016.82,3.025,1.311a7.416,7.416,0,0,0,1.21-1.84,8.749,8.749,0,0,0,.643-2.067Z"/><path class="cls-9" d="M52,202.977a11.09,11.09,0,0,0,.555-3.24l.768.127a13.452,13.452,0,0,1-.58,3.4Zm1.588,5.671a10.467,10.467,0,0,0,.088-1.461v-8.6a7.983,7.983,0,0,0-.088-1.274h1.1a9.656,9.656,0,0,0-.076,1.274v8.659a11.138,11.138,0,0,0,.076,1.4Zm1.79-7.045a6.523,6.523,0,0,0-.542-1.878l.642-.277a10.2,10.2,0,0,1,.593,1.865Zm1.929-.719a9.409,9.409,0,0,1-1.047,2.257,6.509,6.509,0,0,0-.832-.479,8.011,8.011,0,0,0,1.374-3.34,5.474,5.474,0,0,0,.126-1.11l.983.177a2.17,2.17,0,0,0-.075.315c-.051.29-.19.933-.277,1.323h1.423v-1.411a7.816,7.816,0,0,0-.088-1.261h1.1a7.506,7.506,0,0,0-.089,1.261v1.411h1.8a7.921,7.921,0,0,0,1.3-.075v1.008a10.92,10.92,0,0,0-1.285-.076H59.9v2.446h1.575a6.993,6.993,0,0,0,1.274-.076v1a8.582,8.582,0,0,0-1.285-.076H59.9v3.05h2a10.061,10.061,0,0,0,1.374-.076v1.034a9.093,9.093,0,0,0-1.374-.088H56.854a9.228,9.228,0,0,0-1.374.088v-1.034a10.193,10.193,0,0,0,1.374.076h2.13v-3.05H57.7a8.936,8.936,0,0,0-1.286.076v-1a6.342,6.342,0,0,0,1.2.076h1.374v-2.446Z"/><path class="cls-9" d="M64.841,200.506a12.7,12.7,0,0,1,2.281,1.425l-.529.831a11,11,0,0,0-2.281-1.537Zm2.37,4.046a24.439,24.439,0,0,1-1.991,3.719l-.845-.719a2.67,2.67,0,0,0,.4-.467,12.1,12.1,0,0,0,1.676-3.1Zm-1.853-7.159a15.033,15.033,0,0,1,2.143,1.639l-.567.769a12.74,12.74,0,0,0-2.168-1.727Zm5.609,1.689a26.614,26.614,0,0,1-2.761.29,2.606,2.606,0,0,0-.365-.882,23.548,23.548,0,0,0,5.13-.656,6.357,6.357,0,0,0,1.512-.517l.668.883c-.164.05-.164.05-.466.126-.668.189-1.525.378-2.786.605v2h2.344a8.47,8.47,0,0,0,1.286-.076v1.021a9.477,9.477,0,0,0-1.286-.075H71.9v1.966H73.84a6.248,6.248,0,0,0,.971-.051,8.231,8.231,0,0,0-.05,1.11v2.444a9.976,9.976,0,0,0,.062,1.21h-.995v-.668H69.215v.668h-.984a8.426,8.426,0,0,0,.064-1.222v-2.47a8.934,8.934,0,0,0-.051-1.072,6.142,6.142,0,0,0,.92.051h1.8v-1.966H68.735a9.482,9.482,0,0,0-1.285.075v-1.021a8.627,8.627,0,0,0,1.273.076h2.244Zm-1.752,7.852h4.613v-2.319H69.215Z"/><path class="cls-9" d="M78.562,201.59h-.579a7.227,7.227,0,0,0-.921.051,9.672,9.672,0,0,0,.051-1.2v-1.5a9.515,9.515,0,0,0-.051-1.21,6.52,6.52,0,0,0,1.047.063h1.21a6.306,6.306,0,0,0,1.109-.063,10.761,10.761,0,0,0-.05,1.223v1.538a10.912,10.912,0,0,0,.037,1.134,7.8,7.8,0,0,0-.882-.038h-.151v1.651h.352a4.3,4.3,0,0,0,.832-.05v.908a4.7,4.7,0,0,0-.843-.051h-.341v2.546c.429-.139.63-.227,1.3-.479l.038.832a34.272,34.272,0,0,1-3.315,1.159c-.29.089-.441.139-.668.227l-.214-.983a2.89,2.89,0,0,0,.567-.1v-3.53a9.289,9.289,0,0,0-.063-1.033h.882a8.743,8.743,0,0,0-.051,1.021v3.365c.341-.1.392-.114.706-.215Zm-.629-.781h1.651V198.6H77.933Zm8.293,3.466a7.13,7.13,0,0,0,1.109-.05v.794a7.908,7.908,0,0,0-1.109-.051H85.041v.87h1.185a7.05,7.05,0,0,0,1.122-.051v.795a7.674,7.674,0,0,0-1.122-.051H85.041v.92h1.677a6.251,6.251,0,0,0,1.184-.063v.87a11.468,11.468,0,0,0-1.21-.063H82.218v.542h-.9a9.137,9.137,0,0,0,.075-1.311v-2.093c0-.138.039-.831.051-1.134a5.27,5.27,0,0,1-.706.971,2.464,2.464,0,0,0-.593-.656,6.57,6.57,0,0,0,2-2.9l.845.29c-.151.278-.327.568-.491.807h1.8a4.749,4.749,0,0,0,.63-1.084l.807.265-.1.151a5.982,5.982,0,0,1-.454.668h1.387a5.9,5.9,0,0,0,1.109-.063v.832a8.589,8.589,0,0,0-1.109-.05H85.041v.844Zm-3.138-5.71H81.727a6.03,6.03,0,0,0-.883.051v-.82a6.176,6.176,0,0,0,.945.051H83.05a7.209,7.209,0,0,0,.882-.038,7.711,7.711,0,0,0-.026.945V200.6a7.462,7.462,0,0,0,.026.945c-.4-.025-.492-.025-.87-.025H81.727a6.425,6.425,0,0,0-.909.05V200.8a8.037,8.037,0,0,0,.909.038h1.361v-.807h-1.16c-.416,0-.656.013-.958.038v-.781a6.492,6.492,0,0,0,.958.05h1.16Zm1.134,5.71v-.844h-2v.844Zm-2,1.563h2v-.87h-2Zm0,1.613h2v-.92h-2Zm4.474-8.886H85.218a6.039,6.039,0,0,0-.883.051v-.82a6.257,6.257,0,0,0,.958.051h1.361a7.449,7.449,0,0,0,.9-.038,9.294,9.294,0,0,0-.037.958v1.815a9.145,9.145,0,0,0,.024.97c-.365-.025-.529-.037-.907-.037H85.218a5.872,5.872,0,0,0-.908.05V200.8a8.166,8.166,0,0,0,.908.038h1.474v-.807H85.419c-.4,0-.643.013-.958.038v-.781a6.727,6.727,0,0,0,.958.05h1.273Z"/><path class="cls-9" d="M92.322,202.977a1.181,1.181,0,0,1-1.184,1.172,1.162,1.162,0,0,1-1.172-1.172,1.18,1.18,0,0,1,1.172-1.185A1.2,1.2,0,0,1,92.322,202.977Z"/><path class="cls-9" d="M94.525,198.855a11.127,11.127,0,0,0-.05-1.172,6.558,6.558,0,0,0,.87.038h1.272a7.609,7.609,0,0,0,.933-.038l.492.529a6.334,6.334,0,0,0-.379.933c-.289.794-.68,1.7-1.033,2.433a4.4,4.4,0,0,1,.768,1.285,5.077,5.077,0,0,1,.316,1.639c0,.743-.252,1.159-.794,1.336a3.188,3.188,0,0,1-1.059.113,1.8,1.8,0,0,0-.189-.869,2.541,2.541,0,0,0,.479.05c.568,0,.7-.139.7-.744a3.851,3.851,0,0,0-.327-1.512,3.948,3.948,0,0,0-.806-1.235,18.89,18.89,0,0,0,1.248-3.1H95.433v8.571a9.214,9.214,0,0,0,.075,1.537H94.449a9.619,9.619,0,0,0,.076-1.55Zm4.9,6.441c-.378,0-.794.013-1.159.037.038-.479.05-.629.05-1.021v-1.688a8.215,8.215,0,0,0-.05-1.109c.239.025.642.037,1.171.037h3.895c.542,0,.87-.012,1.147-.037a7.391,7.391,0,0,0-.05,1.058v1.689a7.246,7.246,0,0,0,.05,1.071c-.353-.024-.693-.037-1.16-.037h-1.575v.794h2.232a7.33,7.33,0,0,0,1.272-.063v.945a9.419,9.419,0,0,0-1.323-.076h-2.181v.517a7.738,7.738,0,0,0,.076,1.235h-1.034a7.738,7.738,0,0,0,.076-1.235V206.9H98.747a9.8,9.8,0,0,0-1.323.076v-.932a9.521,9.521,0,0,0,1.222.05h2.219V205.3Zm4.21-7.021a8.521,8.521,0,0,0,1.248-.063v.87a10.486,10.486,0,0,0-1.236-.05h-.176a7.752,7.752,0,0,1-.466,1.109h1.02a8.223,8.223,0,0,0,1.2-.063v.9a12.008,12.008,0,0,0-1.236-.063H98.8a11.785,11.785,0,0,0-1.2.063v-.883a8.16,8.16,0,0,0,1,.051h.957a8.668,8.668,0,0,0-.366-1.109,9.682,9.682,0,0,0-1.02.037v-.857a9.37,9.37,0,0,0,1.247.063h1.425v-.163a5.113,5.113,0,0,0-.051-.769H101.8a4.688,4.688,0,0,0-.051.769v.163Zm-4.475,4.777h4.424v-.768H99.163Zm0,1.513h4.424v-.794H99.163Zm2.949-4.424a10.205,10.205,0,0,0,.442-1.109h-2.471a6.693,6.693,0,0,1,.366,1.109Z"/><path class="cls-9" d="M107.364,198.767a6.214,6.214,0,0,0-1.058.063v-.971a5.563,5.563,0,0,0,1.134.076h2.03a6.227,6.227,0,0,0,1.146-.076v.971a7.268,7.268,0,0,0-1.033-.063H108.8a14.18,14.18,0,0,1-.782,2.987h1.487a5.592,5.592,0,0,0,.757-.038,6.338,6.338,0,0,0-.038.958v4.034a8.863,8.863,0,0,0,.05,1.1h-.895V207.1H108.07v1.248h-.945a7.672,7.672,0,0,0,.075-1.2v-2.684c0-.189.026-.907.038-1.26-.113.2-.113.2-.453.844a6.264,6.264,0,0,1-.416.656c-.038-.089-.063-.152-.076-.19a3.021,3.021,0,0,0-.378-.718,8.962,8.962,0,0,0,1.588-3.176,12.312,12.312,0,0,0,.4-1.853Zm.694,7.562h1.323v-3.756h-1.323Zm3.894-3.05a9.73,9.73,0,0,0-1.2.051v-.908a7.391,7.391,0,0,0,1.2.063h4.11a8.065,8.065,0,0,0,1.259-.063v.908c-.466-.038-.73-.051-1.259-.051h-.139v.983h.327a8.406,8.406,0,0,0,1.248-.063v.92a11.092,11.092,0,0,0-1.248-.05h-.327V207.6c0,.719-.316.945-1.312.945-.277,0-.92-.025-1.259-.037a2.683,2.683,0,0,0-.228-.983,8.152,8.152,0,0,0,1.425.138c.4,0,.478-.05.478-.29v-2.306h-3.188a7.547,7.547,0,0,0-1.172.063V204.2a6.95,6.95,0,0,0,1.172.063h3.188v-.983Zm.316-1.588c-.455,0-.858.013-1.11.038a8.913,8.913,0,0,0,.051-1.046v-2.067a7.787,7.787,0,0,0-.051-1.034,7.156,7.156,0,0,0,1.147.064h3.1a7.976,7.976,0,0,0,1.248-.064,8.811,8.811,0,0,0-.049,1.084v1.992a7.2,7.2,0,0,0,.049,1.071c-.39-.025-.68-.038-1.109-.038Zm-.039,3.567a9.33,9.33,0,0,1,1.311,1.714l-.756.555a7.817,7.817,0,0,0-1.323-1.815Zm-.164-5.974h3.668v-.895h-3.668Zm0,1.676h3.668v-.945h-3.668Z"/><path class="cls-9" d="M120.053,201.943a11.087,11.087,0,0,0-1.412.076v-1.008a9.269,9.269,0,0,0,1.412.075h3.05v-1.412h-1.966a9.769,9.769,0,0,0-1.362.063v-.957a9.111,9.111,0,0,0,1.387.075H123.1v-.365a7.364,7.364,0,0,0-.076-1.16h1.084a6.835,6.835,0,0,0-.076,1.16v.365h1.071a8.966,8.966,0,0,0,1.362-.075v.957a8.167,8.167,0,0,0-1.3-.063h-1.135v1.412h1.033a11.679,11.679,0,0,0,3.038-3.239l.87.58c-.176.2-.176.2-.517.605a18.171,18.171,0,0,1-2.092,2.054h1.789a8.987,8.987,0,0,0,1.349-.075v1.008a10.8,10.8,0,0,0-1.411-.076h-2.823c-.694.492-1.034.719-1.791,1.172.517-.012.832-.012,1.2-.012h2.016a12.624,12.624,0,0,0,1.324-.051,11.858,11.858,0,0,0-.05,1.362v2.848a8.133,8.133,0,0,0,.075,1.3h-1.008v-.567h-4.953v.567h-1.009a9.246,9.246,0,0,0,.076-1.3V205.22c0-.24.013-.63.025-.832-.769.379-1.311.618-2.306,1.021a3.007,3.007,0,0,0-.555-.857,22.1,22.1,0,0,0,5.534-2.609Zm2.029,3.139h4.953V203.9h-4.953Zm0,2.105h4.953v-1.3h-4.953Z"/><path class="cls-9" d="M138.186,207.363H140.6a6.775,6.775,0,0,0,1.021-.051v.895a5.332,5.332,0,0,0-1.071-.075h-5.824v.542h-.944a10.423,10.423,0,0,0,.063-1.223v-2.269c0-.226,0-.315.038-.907a7.512,7.512,0,0,1-.858.933,2.028,2.028,0,0,0-.378-.643,8.931,8.931,0,0,1-1.361,3.957,3.126,3.126,0,0,0-.794-.668c1.185-1.751,1.424-3,1.424-7.348,0-.479-.025-.882-.05-1.172.3.025.681.038,1.361.038h6.554c.568,0,.781-.013,1.223-.038a5.736,5.736,0,0,0-.038.719v1.121a5.107,5.107,0,0,0,.038.681c-.29-.025-.53-.038-1.16-.038h-7.02c-.038,1.261-.063,1.74-.151,2.534a5.514,5.514,0,0,0,1.966-2.521l.844.29a3.721,3.721,0,0,1-.416.63h2.256a3.874,3.874,0,0,0,.555-.933l.857.29c-.24.315-.341.454-.492.643H140.4a5.855,5.855,0,0,0,1.072-.063v.832a7.429,7.429,0,0,0-1.034-.051h-2.255v.82h1.94a5.9,5.9,0,0,0,1-.051v.782a5.987,5.987,0,0,0-1-.051h-1.94v.832h1.94a6.136,6.136,0,0,0,1.009-.05v.793a6.338,6.338,0,0,0-1.009-.05h-1.94Zm3.553-8.76a13.942,13.942,0,0,0-1.4-.05h-7.878c-.567,0-1,.012-1.373.05v-.92a10.345,10.345,0,0,0,1.373.076h7.891a10.279,10.279,0,0,0,1.385-.076Zm-1.663,2.483v-.958h-7.222v.391c0,.3,0,.315-.012.567Zm-2.748,2.382h-2.6v.82h2.6Zm0,1.5h-2.6v.832h2.6Zm-2.6,1.525v.87h2.6v-.87Z"/><path class="cls-9" d="M149.021,206.821a9.25,9.25,0,0,0,.063,1.386h-1.047a9.449,9.449,0,0,0,.064-1.374v-2.256h-3.227a7.765,7.765,0,0,1-1.3,4.008,4.357,4.357,0,0,0-.857-.655c1.146-1.538,1.348-2.848,1.348-8.6,0-.655-.012-1.033-.05-1.475a12.92,12.92,0,0,0,1.374.051h6.73a12.131,12.131,0,0,0,1.336-.051,11.216,11.216,0,0,0-.051,1.261v8.243c0,.869-.289,1.058-1.613,1.058-.378,0-.957-.025-1.437-.063a4.119,4.119,0,0,0-.226-.945,14.109,14.109,0,0,0,1.688.139c.568,0,.668-.063.668-.365v-2.61h-3.465Zm-4.034-5.155c-.012.353-.012.63-.012.807-.013.668-.013.668-.038,1.222H148.1v-2.029Zm3.114-2.861h-3.088v1.411l-.013.58h3.1Zm4.385,1.991v-1.991h-3.465V200.8Zm-3.465,2.9h3.465v-2.029h-3.465Z"/><path class="cls-9" d="M160.184,198.464a6.088,6.088,0,0,0-.076-1.071h1.121a4.846,4.846,0,0,0-.075,1.071v.681h3.579a8.3,8.3,0,0,0,1.362-.088V200.1a10.218,10.218,0,0,0-1.349-.076h-3.592v1.878h1.663a5.588,5.588,0,0,0,1.084-.063l.606.618a4.8,4.8,0,0,0-.467.643,11.487,11.487,0,0,1-2.433,2.684,12.964,12.964,0,0,0,4.714,1.752,3.556,3.556,0,0,0-.516,1,14.031,14.031,0,0,1-4.992-2.155,13.219,13.219,0,0,1-5.028,2.1,3.783,3.783,0,0,0-.516-.932,12.315,12.315,0,0,0,4.776-1.765,9.011,9.011,0,0,1-1.449-1.512,8.868,8.868,0,0,1-.933-1.538,9.546,9.546,0,0,0-1.349.076v-.983a9.744,9.744,0,0,0,1.374.075h2.5v-1.878h-3.4a10.3,10.3,0,0,0-1.361.076v-1.046a8.4,8.4,0,0,0,1.361.088h3.4Zm-1.513,4.273a7.5,7.5,0,0,0,2.168,2.508,8.878,8.878,0,0,0,2.294-2.508Z"/><path class="cls-9" d="M168.838,198.679a6.935,6.935,0,0,0-.075-1.261h1.058a7.847,7.847,0,0,0-.075,1.248v1.147h.365a6.17,6.17,0,0,0,.744-.038v.908a6.871,6.871,0,0,0-.744-.038h-.365v2.067a10.841,10.841,0,0,0,1-.466l.026.869c-.466.24-.656.341-1.021.5v3.97c0,.743-.277.932-1.374.932-.265,0-.4,0-.731-.025a2.64,2.64,0,0,0-.189-.907,6.228,6.228,0,0,0,1.084.1c.227,0,.3-.063.3-.277V204c-.315.126-.541.214-1.008.39a3.869,3.869,0,0,0-.391.164l-.239-.983a6.446,6.446,0,0,0,1.638-.491v-2.433h-.655a6.523,6.523,0,0,0-.831.05v-.945a4.161,4.161,0,0,0,.831.063h.655Zm3.492,3a9.769,9.769,0,0,0-1.147.05v-.857a7.5,7.5,0,0,0,1.058.05h3.568a8.282,8.282,0,0,0,1.133-2.268l.9.277a14.221,14.221,0,0,1-1.148,1.991h.5a5.712,5.712,0,0,0,1.047-.063v.87a10.152,10.152,0,0,0-1.16-.05h-3.365c-.05.554-.05.592-.1.932h3.466a8.808,8.808,0,0,0,1.374-.075v.932a10.793,10.793,0,0,0-1.374-.075h-3.617c-.075.34-.113.491-.214.819h2.734a6.7,6.7,0,0,0,1.047-.05l.466.579c-.075.1-.075.1-.265.378a11.113,11.113,0,0,1-1.5,1.626,9.184,9.184,0,0,0,2.975.971,5.256,5.256,0,0,0-.454.92,11.064,11.064,0,0,1-3.227-1.362,10.082,10.082,0,0,1-3.088,1.336,2.245,2.245,0,0,0-.5-.806,8.783,8.783,0,0,0,2.836-1.059,8.087,8.087,0,0,1-1.437-1.436,8.8,8.8,0,0,1-2.407,3.2,2.349,2.349,0,0,0-.631-.706,7.073,7.073,0,0,0,1.777-1.966,7.955,7.955,0,0,0,1.009-2.445h-.353a8.239,8.239,0,0,0-1.236.063v-.908a8.414,8.414,0,0,0,1.248.063h.48c.05-.353.075-.58.1-.932Zm5.747-3.542c-.177.038-.177.038-.6.126a40.147,40.147,0,0,1-6.415.693,2.005,2.005,0,0,0-.3-.807c.164.013.265.013.366.013a21.706,21.706,0,0,0,6.289-.807Zm-5.747,2.735a4.962,4.962,0,0,0-.782-1.525l.757-.278a6.264,6.264,0,0,1,.73,1.488Zm1.21,4.108a7.075,7.075,0,0,0,1.424,1.286,5.166,5.166,0,0,0,1.235-1.286Zm.844-4.209a5.729,5.729,0,0,0-.706-1.651l.769-.24a6.779,6.779,0,0,1,.706,1.614Z"/><path class="cls-9" d="M36.373,222.172A2.773,2.773,0,1,1,33.6,219.4,2.772,2.772,0,0,1,36.373,222.172Z"/><path class="cls-9" d="M48.854,218.65l.568.668a12.277,12.277,0,0,1-6.919,8l-.732-.882a11.474,11.474,0,0,0,6.416-6.856H44.129a12.713,12.713,0,0,1-2.7,2.747l-.732-.63a12.061,12.061,0,0,0,3.832-5.029l1.084.341a13.656,13.656,0,0,1-.87,1.638Zm.329-2.47a8.9,8.9,0,0,1,1.046,2.2l-.794.3a9.461,9.461,0,0,0-.984-2.269Zm1.462-.53a8.531,8.531,0,0,1,1.134,2.181l-.781.3a7.9,7.9,0,0,0-1.06-2.205Z"/><path class="cls-9" d="M54.51,225.557v1.059H53.438v-8.647h8.395v8.521H60.762v-.933Zm6.252-6.617H54.51v5.646h6.252Z"/><path class="cls-9" d="M74.748,221.3v1.109H64.715V221.3Z"/><path class="cls-9" d="M76.193,225.544a15.552,15.552,0,0,0,3.037-7.171l1.11.252a17.313,17.313,0,0,1-3.189,7.587Zm7.739-7.411a29.925,29.925,0,0,1,3.479,7.55l-1.135.491a30.724,30.724,0,0,0-3.277-7.6Zm1.248-1.953a9.926,9.926,0,0,1,1.046,2.2l-.794.3a8.995,8.995,0,0,0-1-2.269Zm1.462-.53a8.927,8.927,0,0,1,1.134,2.181l-.794.3a7.285,7.285,0,0,0-1.058-2.205Z"/><path class="cls-9" d="M92.02,217.453v2.81a7.675,7.675,0,0,1-2.8,6.491l-.743-.743c1.739-1.3,2.444-3.088,2.444-5.836v-2.722ZM95.5,217.1v8.217a9.324,9.324,0,0,0,3.756-3.012l.681.857a11.529,11.529,0,0,1-4.941,3.517l-.592-.467V217.1Z"/><path class="cls-9" d="M103.359,224.536c0,.781.416,1.122,2.042,1.122a23.439,23.439,0,0,0,4.727-.416l.126,1.058a25.966,25.966,0,0,1-4.827.366c-2.345,0-3.139-.618-3.139-1.891v-7.65h1.071v3.882a19.548,19.548,0,0,0,5.571-2.168l.53.971a22.853,22.853,0,0,1-6.1,2.142Zm6.113-8.142a8.826,8.826,0,0,1,1.361,2.054l-.73.391a8.7,8.7,0,0,0-1.3-2.067Zm1.374-.681a9.087,9.087,0,0,1,1.4,2l-.731.4a9.124,9.124,0,0,0-1.324-2.03Z"/><path class="cls-9" d="M114.042,220.1a14.565,14.565,0,0,1,3.076,1.537l-.53.92a16.789,16.789,0,0,0-3.037-1.6Zm-.214,5.8c3.945-.592,6.844-2.395,8.521-6.075l.894.694c-1.827,3.894-4.878,5.734-9.112,6.465Zm1.285-8.722a12.852,12.852,0,0,1,3,1.5l-.529.92a15.76,15.76,0,0,0-2.962-1.575Zm6.088-.655a9.691,9.691,0,0,1,1.046,2.218l-.794.29a9.076,9.076,0,0,0-1-2.256Zm1.462-.517a8.965,8.965,0,0,1,1.135,2.181l-.794.3a7.394,7.394,0,0,0-1.059-2.218Z"/><path class="cls-9" d="M130.7,227.233h-1.046v-4.147a20.341,20.341,0,0,1-3.8,1.715l-.542-.858a15.3,15.3,0,0,0,7.3-4.511h-6.29v-.946h3.328v-1.979h1.071v1.979h2.861l.5.744a14.582,14.582,0,0,1-2.886,2.823,19.129,19.129,0,0,1,4.147,2.218l-.593.882A21.069,21.069,0,0,0,130.7,222.8Z"/><path class="cls-9" d="M146.477,226.868a22.945,22.945,0,0,0-3.542-3.832,15.407,15.407,0,0,1-5.016,3.731l-.668-.845a13.305,13.305,0,0,0,7.121-7.335H138.41v-1.008h6.655l.643.756a15.388,15.388,0,0,1-2.168,3.945,22.331,22.331,0,0,1,3.907,3.819Z"/><path class="cls-9" d="M154.968,216.419c-.026.2-.064.769-.064,1.122a15.855,15.855,0,0,0,.3,2.785,9.97,9.97,0,0,0,3.479,5.269,7.947,7.947,0,0,0,1.323.882,3.418,3.418,0,0,0-.731.945,11.327,11.327,0,0,1-3.226-3.088,10.426,10.426,0,0,1-1.626-3.768,10.1,10.1,0,0,1-.883,2.672,8.567,8.567,0,0,1-1.8,2.5,10.179,10.179,0,0,1-2.18,1.689,2.655,2.655,0,0,0-.744-.882,8.433,8.433,0,0,0,3-2.42,10.15,10.15,0,0,0,2.055-6.667,5.927,5.927,0,0,0-.062-1.034Z"/><path class="cls-9" d="M164.152,219.482a6.024,6.024,0,0,0,1.789,2.47,3.19,3.19,0,0,0-.529.819,6.455,6.455,0,0,1-1.4-2.1c.062.781.088,1.348.088,2.293v3.252a9.722,9.722,0,0,0,.075,1.349H163.1a9.4,9.4,0,0,0,.077-1.349v-3.024c0-.694.025-1.5.062-2.206a10.969,10.969,0,0,1-1.89,3.844,2.852,2.852,0,0,0-.555-.92,11.33,11.33,0,0,0,2.244-4.424h-.807a6.539,6.539,0,0,0-1.058.076v-.984a5.009,5.009,0,0,0,1.1.076h.908v-1.223a7.636,7.636,0,0,0-.077-1.172h1.072a5.852,5.852,0,0,0-.075,1.16v1.235h.743a5.7,5.7,0,0,0,.945-.063v.958a7.382,7.382,0,0,0-.945-.063Zm3.289.025a8.784,8.784,0,0,0-1.285.063v-.97a9,9,0,0,0,1.285.063h2.08v-.971a8.791,8.791,0,0,0-.088-1.4h1.084a11.847,11.847,0,0,0-.063,1.4v.971H171a7.423,7.423,0,0,0,1.172-.076v1a7.418,7.418,0,0,0-1.172-.076h-.542l.037,6.718c.013.87-.252,1.071-1.449,1.071-.416,0-.781-.012-1.361-.05a3.626,3.626,0,0,0-.24-.971,10.509,10.509,0,0,0,1.551.126c.453,0,.567-.063.567-.3l-.013-4.172c0-.593,0-.593.051-1.512a11.184,11.184,0,0,1-1.45,2.382,12.752,12.752,0,0,1-2.571,2.457,2.966,2.966,0,0,0-.668-.756,11.128,11.128,0,0,0,4.235-4.991Z"/><path class="cls-9" d="M36.373,241.072A2.773,2.773,0,1,1,33.6,238.3,2.772,2.772,0,0,1,36.373,241.072Z"/><path class="cls-9" d="M42.691,239.605a9.946,9.946,0,0,1,1.588,1.424,13.99,13.99,0,0,0,.958-3.264H43.058a12.6,12.6,0,0,1-2.408,3.818,2.277,2.277,0,0,0-.618-.806,10.687,10.687,0,0,0,2.458-4.1,9.1,9.1,0,0,0,.378-1.563l1.046.2a5.162,5.162,0,0,0-.252.706c-.088.315-.151.492-.29.895h1.891a9.5,9.5,0,0,0,.983-.038c-.051.24-.051.29-.088.479a9.363,9.363,0,0,0,1.437,2.408v-3.227a8.517,8.517,0,0,0-.089-1.323h1.109a8.643,8.643,0,0,0-.075,1.323v4.172a11.079,11.079,0,0,0,2.987,1.815,4.69,4.69,0,0,0-.567.945,13,13,0,0,1-2.42-1.6v2.974a10.723,10.723,0,0,0,.075,1.538H47.506a10.766,10.766,0,0,0,.089-1.538V241a9,9,0,0,1-1.639-2.344,11.517,11.517,0,0,1-4.878,7.688,2.9,2.9,0,0,0-.718-.794,10.359,10.359,0,0,0,3.492-3.655,8.891,8.891,0,0,0-1.7-1.588Z"/><path class="cls-9" d="M52.393,237.122a14.152,14.152,0,0,0-.076-1.513,10.938,10.938,0,0,0,1.45.063h7.511a11.788,11.788,0,0,0,1.451-.063,12.88,12.88,0,0,0-.064,1.513v7.65a12.255,12.255,0,0,0,.064,1.651H61.72v-.731H53.338v.731H52.317a11.413,11.413,0,0,0,.076-1.651Zm.945,7.726H61.72v-8.331H53.338Zm2.042-6.466a6.913,6.913,0,0,0-1.147.063v-.92a6.892,6.892,0,0,0,1.147.063h4.31a7.212,7.212,0,0,0,1.185-.063v.92a7.426,7.426,0,0,0-1.185-.063h-1.8v1.74h1.436a6.16,6.16,0,0,0,1.11-.063v.907a6.62,6.62,0,0,0-1.11-.063H57.889v2.067h1.965a7.969,7.969,0,0,0,1.21-.075v.945a10.941,10.941,0,0,0-1.21-.063H55.216a8.077,8.077,0,0,0-1.2.063V242.9a7.676,7.676,0,0,0,1.2.075H56.98V240.9H55.733a6.491,6.491,0,0,0-1.109.063v-.907a6.154,6.154,0,0,0,1.109.063H56.98v-1.74Zm3.995,2.635a8.051,8.051,0,0,1,1.071,1.423l-.668.416a6.844,6.844,0,0,0-1.033-1.474Z"/><path class="cls-9" d="M70.1,235.319c-.026.2-.064.769-.064,1.122a15.877,15.877,0,0,0,.3,2.786,9.968,9.968,0,0,0,3.478,5.268,8.006,8.006,0,0,0,1.324.882,3.389,3.389,0,0,0-.731.946,11.34,11.34,0,0,1-3.226-3.088,10.431,10.431,0,0,1-1.626-3.769,10.1,10.1,0,0,1-.883,2.672,8.59,8.59,0,0,1-1.8,2.5,10.251,10.251,0,0,1-2.181,1.689,2.644,2.644,0,0,0-.743-.883,8.442,8.442,0,0,0,3-2.419A10.158,10.158,0,0,0,69,236.353a5.934,5.934,0,0,0-.062-1.034Z"/><path class="cls-9" d="M76.861,238.433a7.619,7.619,0,0,0-.907.063v-.971a5.212,5.212,0,0,0,.933.076h.642v-1.135a8.976,8.976,0,0,0-.076-1.247h1.071a8.974,8.974,0,0,0-.075,1.235V237.6h.3a4.356,4.356,0,0,0,.794-.051v.933a4.765,4.765,0,0,0-.781-.05h-.316v2.193c.378-.164.58-.265,1.072-.5v.92c-.568.264-.719.327-1.072.479v3.818c0,.795-.277.984-1.424.984-.2,0-.492-.013-.756-.026a3.113,3.113,0,0,0-.2-.92,6.178,6.178,0,0,0,1,.089c.379,0,.467-.076.467-.353v-3.2c-.315.126-.492.19-.781.29a5.075,5.075,0,0,0-.618.265l-.214-1.008a7.676,7.676,0,0,0,1.613-.479v-2.546Zm8.987,2.659a8.186,8.186,0,0,0,1.184-.075v.97a8.435,8.435,0,0,0-1.184-.076H83.869a7.94,7.94,0,0,0,3.517,2.886,3.245,3.245,0,0,0-.555.908,9.019,9.019,0,0,1-3.365-3.151c.024.278.05.718.05,1.109V245.2a9.165,9.165,0,0,0,.076,1.26H82.546a9.683,9.683,0,0,0,.075-1.273v-1.512c0-.378.025-.781.051-1.122a8.43,8.43,0,0,1-3.164,3.113,2.721,2.721,0,0,0-.63-.807,8.209,8.209,0,0,0,3.391-2.949H80.781a7.881,7.881,0,0,0-1.21.063v-.945a7.28,7.28,0,0,0,1.21.063h1.84v-.138a3.374,3.374,0,0,0-.063-.8h1.021a3.135,3.135,0,0,0-.063.8v.138Zm.832-5.054a3.864,3.864,0,0,0-.555.189,24.579,24.579,0,0,1-6.188,1.021,3.228,3.228,0,0,0-.353-.857c2.583-.013,5.331-.5,6.415-1.147Zm-5.723,4.248a8.537,8.537,0,0,0-1.008-2.294l.781-.3a10.151,10.151,0,0,1,1.046,2.256Zm2.143-.479a7.2,7.2,0,0,0-.844-2.206l.832-.24a7.819,7.819,0,0,1,.856,2.206Zm1.3.264A9.412,9.412,0,0,0,85.936,237l.895.391a12.866,12.866,0,0,1-1.651,3.025Z"/><path class="cls-9" d="M94.062,244.621a9.25,9.25,0,0,0,.063,1.386H93.078a9.433,9.433,0,0,0,.064-1.373v-2.257H89.915a7.769,7.769,0,0,1-1.3,4.009,4.324,4.324,0,0,0-.857-.656c1.146-1.538,1.348-2.848,1.348-8.6,0-.655-.012-1.033-.05-1.474a12.971,12.971,0,0,0,1.374.05h6.73a12.18,12.18,0,0,0,1.336-.05,11.2,11.2,0,0,0-.051,1.26v8.243c0,.87-.289,1.059-1.613,1.059-.378,0-.957-.025-1.437-.063a4.114,4.114,0,0,0-.226-.946,13.9,13.9,0,0,0,1.688.139c.568,0,.668-.063.668-.365v-2.61H94.062Zm-4.034-5.155c-.012.353-.012.63-.012.807-.013.668-.013.668-.038,1.223h3.164v-2.03Zm3.114-2.861H90.054v1.412l-.013.58h3.1Zm4.385,1.992v-1.992H94.062V238.6Zm-3.465,2.9h3.465v-2.03H94.062Z"/></g></g></svg>