<svg xmlns="http://www.w3.org/2000/svg" width="210" height="285" viewBox="0 0 210 285"><defs><style>.cls-1{fill:#fff;}.cls-2{fill:#f0eae0;}.cls-3{fill:#827663;}.cls-4{fill:none;stroke:#241916;stroke-miterlimit:10;stroke-width:0.531px;}.cls-5{fill:#392712;}.cls-6{fill:#db7aa6;}.cls-7{fill:#241916;}.cls-8{fill:#655541;}</style></defs><g id="レイヤー_2" data-name="レイヤー 2"><g id="レイヤー_1-2" data-name="レイヤー 1"><rect class="cls-1" width="210" height="284.55"/><rect class="cls-2" x="14.999" width="182.001" height="285"/><polygon class="cls-3" points="14.7 32.728 1.05 15.667 1.05 60.027 14.7 73.677 14.7 32.728"/><polygon class="cls-3" points="196.35 32.728 210 15.667 210 60.027 196.35 73.677 196.35 32.728"/><line class="cls-4" x1="30" y1="165.5" x2="180" y2="165.5"/><rect class="cls-5" y="19.95" width="210" height="40.95"/><path class="cls-1" d="M35.355,26.63a6.85,6.85,0,0,0,.865-.032c.1,0,.208-.015.3-.015.256,0,.48.239.657.416.24.224.4.352.4.543s-.128.385-.239,1.089c-.593,3.537-1.473,6.082-4.322,8.468a7.145,7.145,0,0,1-1.937,1.28c-.353,0-1.121-.928-1.121-1.185,0-.175.3-.3.448-.383A9.85,9.85,0,0,0,33.034,34.7a9.582,9.582,0,0,0,1.953-3.506,11.184,11.184,0,0,0,.464-2.5c0-.368-.319-.4-.624-.4h-5.81a.481.481,0,0,0-.48.48v2.161c0,.384.031.784.031,1.185s-.159.416-.944.416c-.7,0-.848-.032-.848-.385,0-.416.033-.816.033-1.232v-2.8c0-.224-.017-.432-.017-.656,0-.609.064-.849.881-.849.592,0,1.168.016,1.744.016Z"/><path class="cls-1" d="M49.884,30.744c.736,0,1.777-.048,1.985-.048.432,0,.448.128.448,1.009,0,.512-.016.816-.432.816-.672,0-1.345-.032-2-.032H42.521c-.657,0-1.329.032-2,.032-.417,0-.433-.3-.433-.8,0-.9.032-1.024.448-1.024.208,0,1.313.048,1.985.048Z"/><path class="cls-1" d="M63.612,27.7a3.812,3.812,0,0,0,.9-.1c.048,0,.111-.016.176-.016.32,0,1.024.88,1.024,1.088a1.016,1.016,0,0,1-.192.4,9.33,9.33,0,0,0-.5.865c-1.569,3.041-3.137,5.378-6.083,7.283A10.842,10.842,0,0,1,56.745,38.4c-.351,0-1.36-.784-1.36-1.088,0-.161.192-.241.32-.288A14.193,14.193,0,0,0,61.884,31.9a9.809,9.809,0,0,0,1.232-2.353c0-.208-.257-.224-.48-.224H59.6c-.368,0-.465.16-.673.449-.3.432-2.145,2.625-2.577,2.625-.192,0-1.361-.609-1.361-.945a.252.252,0,0,1,.145-.224,14.782,14.782,0,0,0,4.273-5.73c.065-.16.113-.384.256-.384a5.336,5.336,0,0,1,.849.352c.144.08.96.384.96.56,0,.08-.08.144-.144.176-.224.08-.272.16-.544.656a2.429,2.429,0,0,0-.288.577c0,.176.112.256.272.272Z"/><path class="cls-1" d="M76.141,27.046a4.446,4.446,0,0,0,.688-.031c.1,0,.256-.033.352-.033.337,0,1.024.881,1.024,1.089a3.126,3.126,0,0,1-.351.624c-.1.144-.193.3-.257.416a23.236,23.236,0,0,1-2.08,3.041.441.441,0,0,0-.128.3.427.427,0,0,0,.239.384,25.478,25.478,0,0,1,2.7,2.065c.385.336.785.7,1.153,1.088a.306.306,0,0,1,.112.224c0,.336-.88,1.281-1.216,1.281a.537.537,0,0,1-.4-.24,17.012,17.012,0,0,0-3.538-3.17.561.561,0,0,0-.367-.144.764.764,0,0,0-.48.272,17.854,17.854,0,0,1-4,2.8,2.694,2.694,0,0,1-.7.3c-.336,0-1.073-1.073-1.073-1.361,0-.192.192-.272.336-.32a15.87,15.87,0,0,0,7.139-6.066,1.593,1.593,0,0,0,.272-.545c0-.24-.224-.272-.463-.272H71.787c-.688,0-1.377.032-2.065.032-.432,0-.4-.24-.4-.976,0-.561-.016-.8.384-.8.689,0,1.376.031,2.081.031Z"/><path class="cls-1" d="M90.765,27.542a4.721,4.721,0,0,0,.975-.079.583.583,0,0,1,.16-.032c.273,0,.833.832.833,1.088a.45.45,0,0,1-.1.24,3.671,3.671,0,0,0-.4.784,28.645,28.645,0,0,1-1.52,2.978.553.553,0,0,0-.112.32c0,.208.144.3.289.416.191.144.9.624.9.832,0,.272-.721,1.217-1.024,1.217a.358.358,0,0,1-.241-.128c-.224-.192-.432-.352-.656-.544a.557.557,0,0,0-.352-.16c-.224,0-.4.224-.544.383a12.692,12.692,0,0,1-3.49,2.7,8.589,8.589,0,0,1-1.937.817c-.416,0-1.152-1.025-1.152-1.249,0-.192.272-.239.688-.368a11.193,11.193,0,0,0,4.578-2.881.623.623,0,0,0,.24-.4.39.39,0,0,0-.192-.336c-.368-.24-1.2-.672-1.6-.864-.16-.064-.48-.177-.48-.353,0-.223.624-1.2.977-1.2a11.792,11.792,0,0,1,2.064,1.041.7.7,0,0,0,.3.1c.3,0,.448-.3.88-1.152a1.682,1.682,0,0,1,.1-.224,5.018,5.018,0,0,0,.416-1.056c0-.337-.416-.321-.656-.321H86.65c-.383,0-.5.128-.7.416a23.435,23.435,0,0,1-2.081,2.466.854.854,0,0,1-.511.3c-.289,0-1.33-.671-1.33-.944,0-.128.145-.24.241-.3A14.735,14.735,0,0,0,86.442,25.3c.048-.128.113-.4.288-.4a3.662,3.662,0,0,1,.9.385c.144.064.944.416.944.544,0,.1-.08.144-.16.176-.24.1-.256.144-.48.528-.064.112-.144.257-.256.432a.86.86,0,0,0-.128.337c0,.16.144.224.288.239Z"/><path class="cls-1" d="M102.476,36.106c0,.7.032,1.409.032,2.1,0,.432-.208.48-.8.48-.881,0-1.041-.048-1.041-.464,0-.688.032-1.377.032-2.065V31.8c0-.1.048-.448-.256-.448-.16,0-.5.273-.625.368a19.792,19.792,0,0,1-3.44,2.049,2.691,2.691,0,0,1-1.249-1.28c0-.16.144-.224.256-.272a23.074,23.074,0,0,0,6.291-4.242,13.608,13.608,0,0,0,2.177-2.705c.047-.08.143-.24.255-.24a5.868,5.868,0,0,1,1.089.656c.176.112.624.384.624.576,0,.1-.08.128-.16.16a.865.865,0,0,0-.624.384,31.222,31.222,0,0,1-2.193,2.4.851.851,0,0,0-.368.72Z"/><path class="cls-1" d="M112.779,27.062c.192.033.4.033.4.192,0,.08-.1.161-.16.225-.1.1-.081.368-.081.512v.352c0,3.313-.224,6.131-2.769,8.563-.128.113-.32.337-.5.337-.24,0-1.425-.593-1.425-.881,0-.112.128-.224.208-.288,2.434-2.017,2.737-4.258,2.737-7.235,0-.48-.015-1.12-.063-1.585,0-.047-.017-.128-.017-.175,0-.144.1-.177.208-.177C111.627,26.9,112.443,27.015,112.779,27.062Zm3.793,6.691c0,.5.017.736.257.736.528,0,3.681-2.817,4.193-3.345.081-.08.193-.208.321-.208.271,0,.816,1.024.816,1.281,0,.24-.625.752-.833.928-.96.832-1.92,1.648-2.929,2.4-.432.336-1.12.848-1.5,1.184-.144.112-.3.289-.5.289a4.105,4.105,0,0,1-1.1-.481c-.224-.128-.512-.288-.512-.576,0-.112.064-1.152.064-1.92v-5.6a13.941,13.941,0,0,0-.064-1.633v-.079a.144.144,0,0,1,.16-.161c.1,0,.5.064.624.08.832.112,1.3.16,1.3.336,0,.113-.063.144-.128.225a.624.624,0,0,0-.143.416c-.017.368-.017,1.168-.017,1.568Z"/><path class="cls-1" d="M126.074,29.175c.256,0,.544-.1.544-.4V27.687c0-.9-.063-1.745-.063-1.761,0-.112.048-.16.16-.16a11.565,11.565,0,0,1,1.183.08c.4.032.737.08.737.224a.272.272,0,0,1-.1.16c-.208.256-.192.384-.192,1.425v1.1a.413.413,0,0,0,.417.416h2.816c.225,0,.4-.144.4-.464,0-.576-.032-2.241-.064-2.721,0-.064-.016-.128-.016-.192a.2.2,0,0,1,.208-.192c.225,0,1.121.1,1.377.112.272.032.5.032.5.176,0,.08-.064.144-.175.256a5.1,5.1,0,0,0-.1,1.345V28.1c0,.16.017.32.017.48v.1c0,.32.143.5.463.5h.433c.5,0,1.552-.031,1.889-.031.288,0,.4.127.4.752,0,.8-.048.944-.448.944-.624,0-1.233-.032-1.84-.032h-.433c-.5,0-.5.336-.5.544-.047,2.785-.32,4.722-2.817,6.371a6.568,6.568,0,0,1-1.6.816,2.659,2.659,0,0,1-1.168-1.168c0-.128.144-.208.256-.256,3.041-1.265,3.6-2.594,3.6-5.8,0-.272-.112-.512-.416-.512h-2.785a.41.41,0,0,0-.417.4v1.521c0,.448.032.88.032,1.328,0,.7-.08.641-1.04.641-.561,0-.753.015-.753-.4,0-.512.032-1.024.032-1.536V31.224a.427.427,0,0,0-.431-.416h-.5c-.625,0-1.264.048-1.793.048-.4,0-.416-.336-.416-.736,0-.768.016-.976.4-.976.465,0,1.184.031,1.809.031Z"/><path class="cls-1" d="M143.4,32.729c0,.08-.112.128-.176.16-.272.08-.272.1-.5.368-.368.448-2.3,2.705-2.768,2.705-.273,0-1.137-.768-1.137-1.072,0-.161.24-.3.368-.4a8.808,8.808,0,0,0,2.209-2.417c.065-.112.16-.32.3-.32a6.374,6.374,0,0,1,1.089.5C142.938,32.329,143.4,32.553,143.4,32.729Zm.88-3.97c.336,0,.448-.24.448-.528v-.224a14.657,14.657,0,0,0-.063-1.873c0-.064-.017-.128-.017-.192,0-.192.128-.224.288-.224.273,0,.8.1,1.105.128.368.048.736.064.736.24a.262.262,0,0,1-.128.208c-.208.208-.223.32-.223,1.073v.864c0,.384.208.528.448.528h2.513c.688,0,1.392-.032,2.1-.032.416,0,.4.224.4.929,0,.576-.017.784-.433.784-.688,0-1.376-.032-2.064-.032h-2.482a.481.481,0,0,0-.479.48v3.746c0,.32.015.624.015.944,0,.864,0,1.616-.9,2.065a4.953,4.953,0,0,1-1.729.464c-.256,0-.368-.16-.576-.56a2.947,2.947,0,0,1-.305-.864c0-.257.369-.241.561-.257,1.3-.1,1.232-.592,1.232-1.744V30.888a.471.471,0,0,0-.479-.48h-2.466c-.672,0-1.344.032-2.016.032-.416,0-.416-.272-.416-.8,0-.657-.016-.913.4-.913s1.376.032,2.032.032Zm6.547,4.322c.256.256,1.408,1.377,1.408,1.681,0,.336-.847,1.1-1.1,1.1-.159,0-.288-.176-.384-.3a15.61,15.61,0,0,0-2.385-2.449c-.112-.08-.272-.208-.272-.352,0-.24.656-1.041.992-1.041C149.453,31.72,150.526,32.793,150.83,33.081Zm2.113-6.819a1.593,1.593,0,1,1-3.185,0,1.578,1.578,0,0,1,1.585-1.584A1.6,1.6,0,0,1,152.943,26.262Zm-2.449,0a.847.847,0,0,0,.849.864.856.856,0,1,0,0-1.712A.844.844,0,0,0,150.494,26.262Z"/><path class="cls-1" d="M164.525,30.744c.737,0,1.778-.048,1.986-.048.431,0,.448.128.448,1.009,0,.512-.017.816-.433.816-.672,0-1.344-.032-2-.032h-7.363c-.656,0-1.328.032-2,.032-.417,0-.433-.3-.433-.8,0-.9.033-1.024.449-1.024.208,0,1.312.048,1.984.048Z"/><path class="cls-1" d="M174.2,29.735a11,11,0,0,1,2.241,1.537c.224.192,1.12.88,1.12,1.153s-.752,1.1-1.072,1.1a.581.581,0,0,1-.352-.208,23.9,23.9,0,0,0-2.321-1.873.287.287,0,0,0-.16-.064c-.144,0-.192.128-.192.256v4.37c0,.64.032,1.264.032,1.905,0,.736-.017.832-.992.832-.641,0-.913-.016-.913-.544,0-.72.048-1.441.048-2.161V26.918c0-.416-.032-.848-.048-1.248,0-.08-.016-.224-.016-.288,0-.16.048-.24.208-.24.1,0,.432.048.544.064.721.1,1.377.16,1.377.384a.471.471,0,0,1-.08.208,1.281,1.281,0,0,0-.176.848c0,.24.016.544.016.945v2.4c0,.128.08.16.128.16a.175.175,0,0,0,.144-.064C173.852,29.959,174.028,29.735,174.2,29.735Z"/><path class="cls-1" d="M184.141,31.752a1.843,1.843,0,0,1-1.921,1.937,1.657,1.657,0,0,1-1.744-1.681,1.849,1.849,0,0,1,1.952-1.936A1.639,1.639,0,0,1,184.141,31.752Z"/><path class="cls-1" d="M53.7,44.887a.482.482,0,0,0,.481-.48l-.017-.544c-.016-.609-.031-1.681-.111-2.225a.927.927,0,0,1-.017-.224c0-.16.112-.192.256-.192a13.333,13.333,0,0,1,1.345.16c.368.064.465.1.465.224a.28.28,0,0,1-.1.176c-.176.192-.208.224-.208.672,0,.464,0,.929.016,1.393l.016.528a.482.482,0,0,0,.5.464l.849-.016c.559-.016,1.873-.08,2.112-.08.353,0,.417.128.417.977,0,.592-.032.72-.5.72h-.88c-.368,0-.752.016-1.12.016l-.865.016a.468.468,0,0,0-.48.464l.08,3.73v.656c0,1.713-.08,2.737-2.929,2.737-.352,0-.529-.048-.64-.384a3.57,3.57,0,0,1-.225-1.072c0-.161.065-.257.225-.257.016,0,.5.032.864.032,1.056,0,1.056-.32,1.056-1.168v-.4l-.048-2.93c-.015-.1-.063-.208-.191-.208a.3.3,0,0,0-.24.144,24,24,0,0,1-4.306,4.13,3.3,3.3,0,0,1-.993.592c-.3,0-1.168-.768-1.168-1.088,0-.144.384-.352.528-.432A17.9,17.9,0,0,0,52.562,47a.5.5,0,0,0,.145-.272c0-.08-.032-.192-.24-.192l-2.449.032c-.609,0-1.681.08-2.017.08-.32,0-.433-.176-.433-.8,0-.753-.031-.913.449-.913.368,0,.736.016,1.1.016.288,0,.576-.016.881-.016Z"/><path class="cls-1" d="M70.2,42.982c.336,0,1.12,0,1.441-.032.063,0,.24-.032.288-.032.384,0,1.072.865,1.072,1.025s-.143.336-.272,1.024a9.845,9.845,0,0,1-4.274,7.043,14.892,14.892,0,0,1-3.073,1.633,1.628,1.628,0,0,1-.528.144c-.384,0-.96-1.073-.96-1.329,0-.176.143-.224.288-.256a11.244,11.244,0,0,0,3.985-2.113,7.44,7.44,0,0,0,2.625-4.673,2.954,2.954,0,0,0,.032-.385c0-.3-.272-.336-.56-.336H64.578c-.673,0-1.329.032-2,.032-.5,0-.48-.144-.48-.864,0-.737-.016-.913.432-.913.688,0,1.376.032,2.065.032Z"/><path class="cls-1" d="M81.4,52.618c0,.545.032,1.073.032,1.617,0,.4-.336.432-.64.432-.9,0-.944-.08-.944-.512,0-.5.031-1.009.031-1.505V49.337c0-.08-.031-.24-.191-.24-.145,0-.3.144-.417.224a15.213,15.213,0,0,1-2.625,1.553,1.9,1.9,0,0,1-1.025-1.057c0-.176.193-.256.368-.336a15.049,15.049,0,0,0,6.291-5.17c.08-.128.144-.288.273-.288a3.443,3.443,0,0,1,.944.56c.16.1.448.272.448.48,0,.128-.112.176-.224.192a.784.784,0,0,0-.464.352,19.263,19.263,0,0,1-1.441,1.6.918.918,0,0,0-.416.88Z"/><path class="cls-1" d="M95.284,43.046a4.46,4.46,0,0,0,.689-.031c.095,0,.256-.033.351-.033.336,0,1.025.881,1.025,1.089A3.1,3.1,0,0,1,97,44.7c-.1.144-.192.3-.257.416a23.042,23.042,0,0,1-2.08,3.041.441.441,0,0,0-.128.3.428.428,0,0,0,.239.384,25.49,25.49,0,0,1,2.706,2.065c.384.336.785.7,1.153,1.088a.308.308,0,0,1,.111.224c0,.336-.88,1.281-1.216,1.281a.535.535,0,0,1-.4-.24,17.032,17.032,0,0,0-3.537-3.17.568.568,0,0,0-.368-.144.766.766,0,0,0-.481.272,17.809,17.809,0,0,1-4,2.8,2.666,2.666,0,0,1-.7.3c-.336,0-1.072-1.073-1.072-1.361,0-.192.191-.272.336-.32a15.875,15.875,0,0,0,7.139-6.066,1.593,1.593,0,0,0,.272-.545c0-.24-.225-.272-.464-.272H90.931c-.689,0-1.377.032-2.066.032-.431,0-.4-.24-.4-.976,0-.561-.016-.8.385-.8.688,0,1.376.031,2.081.031Z"/><path class="cls-1" d="M103.313,47.5c-.3,0-.448.129-.448.448v3.074c0,.624.049.768.849.768h.9c1.137,0,1.12-.064,1.393-1.52.032-.209.1-.4.352-.4.208,0,1.2.128,1.2.545a7.868,7.868,0,0,1-.464,1.872c-.465,1.185-1.089,1.089-2.178,1.089h-1.408c-1.793,0-2.241-.048-2.241-1.7,0-.416.032-.848.032-1.264V47.752c0-.368-.032-.752-.032-1.12,0-.544.224-.656.72-.656.4,0,.8.032,1.185.032h1.488c.321,0,.448-.129.448-.448V43.591c0-.32-.127-.448-.448-.448h-1.584c-.593,0-1.184.031-1.777.031-.4,0-.384-.175-.384-.8,0-.592-.017-.8.368-.8.592,0,1.185.048,1.793.048h1.777c.383,0,.768-.032,1.152-.032.544,0,.721.16.721.7,0,.448-.017.9-.017,1.329V47c.017.064.048.128.112.128.048,0,.08-.048.113-.08a22.469,22.469,0,0,0,2.032-6.211c.016-.159.064-.288.257-.288a11.6,11.6,0,0,1,1.263.288c.145.033.417.113.417.3,0,.128-.129.176-.224.208-.224.064-.224.176-.353.672-.063.288-.176.72-.351,1.345,0,.031-.017.08-.017.112,0,.208.16.288.337.288h2.465c.608,0,1.2-.032,1.808-.032.449,0,.433.176.433.8s.016.784-.433.784c-.383,0-.9-.016-1.312-.031-.016,0-.048.015-.048.031,0,.033.016.033.048.048.352.065.624.1.624.273,0,.095-.128.175-.192.239-.208.129-.224.241-.3.593a13.019,13.019,0,0,1-1.521,4.017.548.548,0,0,0-.112.3.485.485,0,0,0,.16.353,12.706,12.706,0,0,0,2.673,2.225l.129.08c.208.128.384.224.384.352,0,.336-.609,1.1-.977,1.1a1.029,1.029,0,0,1-.448-.24,14.063,14.063,0,0,1-2.69-2.273.372.372,0,0,0-.288-.128.366.366,0,0,0-.271.128,11.216,11.216,0,0,1-3.073,2.3,1.876,1.876,0,0,1-.529.224c-.336,0-.832-.736-.832-1.056,0-.192.24-.272.432-.368a9.139,9.139,0,0,0,3.105-2.353.583.583,0,0,0,.048-.7,12.767,12.767,0,0,1-1.04-2.657c-.016-.048-.064-.128-.144-.128a.161.161,0,0,0-.16.1c-.256.48-.416.945-.72.945a2.1,2.1,0,0,1-1.009-.512.543.543,0,0,0-.4-.177h-.064c-.784,0-.864,0-.929-.224-.08-.256-.32-.288-.544-.288Zm7.348,1.793a.247.247,0,0,0,.208-.144,10.476,10.476,0,0,0,1.105-3.441c0-.016.015-.08.015-.1,0-.224-.176-.319-.384-.319h-1.92c-.225,0-.369.1-.369.319,0,.081.016.144.016.225a10.677,10.677,0,0,0,1.121,3.313A.245.245,0,0,0,110.661,49.289Z"/><path class="cls-1" d="M124.676,45.768c0,.272.112.384.385.384h2.016c.481,0,.944-.016,1.425-.016.512,0,.752.208.752.72,0,.32-.016.624-.016.944v1.345c0,.288.032.608.032.88,0,.336-.224.32-.88.32-.641,0-.8.016-.865-.208-.032-.112-.064-.16-.192-.16h-2.209c-.32,0-.448.128-.448.448v.241c0,.32.128.448.448.448h3.522c.624,0,1.264-.032,1.888-.032.385,0,.385.144.385.7s0,.7-.385.7c-.624,0-1.264-.032-1.888-.032h-3.522c-.288,0-.432.128-.432.433,0,.512.032,1.04.032,1.552,0,.528-.176.528-.865.528-.656,0-.847,0-.847-.512,0-.528.031-1.041.031-1.568,0-.3-.128-.433-.432-.433h-3.537c-.625,0-1.264.032-1.889.032-.384,0-.384-.16-.384-.7,0-.56,0-.7.384-.7.625,0,1.264.032,1.889.032h3.537c.321,0,.449-.128.449-.448v-.241c0-.32-.145-.448-.449-.448h-2.273c-.144,0-.192.08-.239.192-.065.144-.161.176-.786.176-.687,0-.832-.015-.832-.352,0-.128.033-.688.033-.848V47.8c0-.32-.017-.624-.017-.928,0-.64.305-.736,1.024-.736.3,0,.673.016,1.137.016h2.017c.272,0,.385-.112.385-.384v-.033c0-.272-.113-.383-.385-.383h-.159c-.353,0-.721.015-1.089.015-.513,0-.7-.112-.7-.656,0-.32.015-.624.015-.944-.015-.32-.128-.449-.448-.449h-.9c-.624,0-1.265.033-1.889.033-.384,0-.384-.144-.384-.673s0-.672.384-.672c.624,0,1.265.032,1.889.032h.9c.3,0,.448-.112.448-.432,0-.08-.063-.689-.063-.752,0-.192.143-.208.288-.208.208,0,1.28.047,1.488.08.1,0,.256.047.256.175,0,.1-.1.145-.208.209-.176.112-.176.256-.192.5.016.3.144.432.448.432h2.337c.288,0,.417-.112.432-.432,0-.192-.032-.384-.047-.576,0-.049-.017-.1-.017-.144,0-.177.192-.208.337-.208.288,0,.975.048,1.3.064.128.015.385.015.385.192,0,.1-.081.144-.193.208-.176.128-.176.272-.176.464,0,.3.128.432.432.432h.912c.641,0,1.265-.032,1.905-.032.384,0,.369.144.369.672s.015.673-.369.673c-.64,0-1.264-.033-1.905-.033h-.912c-.32,0-.432.129-.448.449,0,.32.016.624.016.928,0,.544-.176.672-.7.672-.448,0-.895-.032-1.343-.015-.257,0-.385.111-.385.383Zm-4.13,1.68a.407.407,0,0,0-.447.432v.369c0,.272.175.416.447.448h2.065a.459.459,0,0,0,.449-.448V47.88a.425.425,0,0,0-.449-.432Zm2.145-4.13a.371.371,0,0,0-.384.385v.112a.37.37,0,0,0,.384.384h2.465a.357.357,0,0,0,.368-.384V43.7a.358.358,0,0,0-.368-.385Zm1.985,4.931a.459.459,0,0,0,.448.448h1.969a.447.447,0,0,0,.448-.448V47.88c-.032-.272-.16-.432-.448-.432h-1.969a.425.425,0,0,0-.448.432Z"/><path class="cls-1" d="M140.74,42.294c0,.32.128.448.448.448h3.282c.656,0,1.328-.048,1.984-.048.385,0,.368.208.368.8,0,.608.017.8-.368.8-.656,0-1.328-.032-1.984-.032h-3.282c-.32,0-.448.128-.448.432v1.089c0,.32.128.448.448.448h1.073c.448,0,.88-.016,1.312-.016a.826.826,0,0,1,.752.288,1.286,1.286,0,0,1,.385.7,2.307,2.307,0,0,1-.465.977A14.629,14.629,0,0,1,141.717,51a.334.334,0,0,0-.129.241c0,.128.08.192.177.256a14.864,14.864,0,0,0,4.689,1.617c.3.064.448.112.448.447s-.271,1.233-.752,1.233a2.349,2.349,0,0,1-.464-.08,16.948,16.948,0,0,1-5.394-2.161.671.671,0,0,0-.353-.128.648.648,0,0,0-.335.112,18.853,18.853,0,0,1-4.722,1.985,9.561,9.561,0,0,1-1.233.272c-.448,0-.72-.816-.72-1.168s.16-.384.944-.561c.177-.031.353-.08.576-.128a17.112,17.112,0,0,0,3.81-1.44.323.323,0,0,0,.177-.256.345.345,0,0,0-.113-.241,9.353,9.353,0,0,1-2.081-2.913c-.143-.239-.223-.368-.512-.368-.432-.015-.848.016-1.264.016s-.4-.16-.4-.768-.015-.784.4-.784c.672,0,1.328.048,2,.048h2.16c.3,0,.448-.128.448-.448V44.7c0-.3-.143-.432-.448-.432h-3.281c-.672,0-1.328.032-1.985.032-.384,0-.384-.192-.384-.8s0-.8.384-.8c.657,0,1.313.048,1.985.048h3.281a.391.391,0,0,0,.448-.448,8.89,8.89,0,0,0-.063-1.313c0-.031-.017-.095-.017-.144,0-.191.128-.224.288-.224.321,0,1.121.065,1.473.1.144,0,.416.017.416.208,0,.113-.111.161-.224.241-.208.144-.208.336-.208.9Zm-2.369,5.411c-.16.015-.3.064-.3.239a.306.306,0,0,0,.048.16,6.654,6.654,0,0,0,1.584,1.953.5.5,0,0,0,.337.144.437.437,0,0,0,.3-.128c.384-.32,1.905-1.744,1.905-2.177,0-.176-.192-.191-.528-.191Z"/><path class="cls-1" d="M150.626,49.977c-.017-.1-.032-.288-.257-.288a.377.377,0,0,0-.128.032c-.16.064-.271.128-.368.16-.32.128-.336.144-.4.352-.032.08-.1.177-.192.177-.16,0-.256-.337-.416-.865-.049-.176-.112-.3-.177-.576a.854.854,0,0,1-.031-.192c0-.176.224-.208.368-.256a9.453,9.453,0,0,0,1.216-.464.529.529,0,0,0,.385-.609V45.335c0-.288-.112-.432-.417-.448-.319.016-.736.048-1.008.048-.368,0-.352-.24-.352-.768,0-.56-.016-.784.352-.784.32,0,.656.032.977.032s.448-.128.448-.449v-.752c0-.24,0-.48-.017-.72,0-.16-.047-.513-.047-.608,0-.208.127-.24.3-.24.225,0,1.025.063,1.281.08.144.016.4.031.4.224,0,.144-.111.175-.208.256-.16.112-.176.352-.176.8v.96c0,.3.112.449.416.449s.609-.032.912-.032c.368,0,.337.224.337.768,0,.56.016.784-.337.784-.015,0-.832-.048-.9-.048-.321,0-.433.176-.433.448v1.409c.016.144.065.288.24.288A.377.377,0,0,0,152.53,47a3.332,3.332,0,0,1,.737-.336c.336,0,.4.768.4,1.024,0,.3-.112.369-.688.688-.128.064-.273.145-.449.241a.634.634,0,0,0-.368.656v2.913c0,.368.032.72.032,1.088,0,1.537-1.169,1.649-2.4,1.649-.5,0-.7-.128-.7-1.2,0-.256.048-.449.336-.449.1,0,.32.033.528.033.689,0,.673-.224.673-1.041Zm10.244-7.491a5.533,5.533,0,0,1,.992.336,1.559,1.559,0,0,0,.176.08c.16.064.4.16.4.288s-.144.144-.24.161a.247.247,0,0,0-.223.144c-.225.448-.449.9-.7,1.344a.223.223,0,0,0-.048.144c0,.161.112.208.256.225.192-.017.4-.033.608-.033.336,0,.32.288.32.721,0,.368,0,.592-.32.592-.576,0-1.168-.032-1.744-.032h-2.321a.369.369,0,0,0-.433.352.779.779,0,0,0-.016.192c0,.24.176.32.384.32h2.93c.608,0,1.217-.032,1.841-.032.351,0,.335.256.335.705,0,.4,0,.608-.335.608-.624,0-1.233-.032-1.841-.032H157.6a.418.418,0,0,0-.48.336l-.016.048c0,.032-.016.08-.016.128,0,.208.16.272.337.288h2.16c.416,0,.833-.016,1.265-.016a.793.793,0,0,1,.72.32,1.109,1.109,0,0,1,.272.608c0,.5-1.025,1.681-1.376,2.065a.36.36,0,0,0-.1.224.282.282,0,0,0,.192.257,12.821,12.821,0,0,0,1.857.624c.48.128.56.144.56.352,0,.368-.463,1.152-.8,1.152A13.036,13.036,0,0,1,159.3,53.8a.63.63,0,0,0-.336-.1.893.893,0,0,0-.368.1,10.479,10.479,0,0,1-2.705,1.1c-.353,0-.785-.912-.785-1.12s.224-.225.4-.272a9.626,9.626,0,0,0,1.841-.624.278.278,0,0,0,.063-.481,8.531,8.531,0,0,1-.864-.992c-.064-.064-.112-.128-.208-.128a.266.266,0,0,0-.224.16,14.288,14.288,0,0,1-2.145,3.009c-.113.128-.288.3-.464.3-.288,0-1.072-.608-1.072-.864,0-.176.24-.384.351-.512a10.856,10.856,0,0,0,2.674-4.4c0-.048.016-.08.016-.128,0-.192-.145-.272-.321-.288-.351.016-.7.032-1.072.032s-.32-.272-.32-.7c0-.4,0-.608.336-.608.4,0,1.008.016,1.44.032a.382.382,0,0,0,.417-.352.861.861,0,0,0,.016-.176c0-.224-.16-.32-.368-.32-.353,0-.721.016-1.073.016-.336,0-.32-.272-.32-.737,0-.335.016-.576.32-.576.576,0,1.153.033,1.744.033H159a.623.623,0,0,0,.656-.337,14.754,14.754,0,0,0,1.009-2.1C160.726,42.6,160.758,42.486,160.87,42.486Zm1.36-.416a.675.675,0,0,1-.192-.048.769.769,0,0,0-.24-.064,1.4,1.4,0,0,0-.256.032,39.325,39.325,0,0,1-6.835.72c-.336,0-.448-.016-.576-.368a1.577,1.577,0,0,1-.112-.608c0-.368.112-.4.4-.4h.288a28.758,28.758,0,0,0,6.451-.672.731.731,0,0,1,.256-.064c.112,0,.256.175.368.336.064.1.144.191.208.288a2.355,2.355,0,0,1,.4.7A.158.158,0,0,1,162.23,42.07Zm-6.947,3.009c-.3,0-.32-.224-.416-.56-.1-.352-.223-.672-.351-1.008a.443.443,0,0,1-.065-.193c0-.272.945-.4,1.088-.4.257,0,.32.128.577.849a4.974,4.974,0,0,1,.239.9C156.355,44.967,155.508,45.079,155.283,45.079Zm2.642-.112c-.273,0-.288-.064-.4-.576-.047-.256-.128-.624-.272-1.152a.2.2,0,0,1-.016-.1c0-.289.865-.385,1.057-.385.336,0,.368.113.56.945a6.017,6.017,0,0,1,.16.88C159.013,44.887,158.148,44.967,157.925,44.967Zm-.017,5.522c-.111.016-.24.049-.24.193a.287.287,0,0,0,.064.16,7.563,7.563,0,0,0,.8.8.437.437,0,0,0,.3.128.452.452,0,0,0,.336-.16c.16-.16.7-.736.7-.944,0-.161-.144-.177-.368-.177Z"/><rect class="cls-6" y="15" width="210" height="5"/><path class="cls-7" d="M36.373,184.372A2.773,2.773,0,1,1,33.6,181.6,2.772,2.772,0,0,1,36.373,184.372Z"/><path class="cls-7" d="M50.556,186.8v1.021H40.522V186.8Zm-8.886-6.163H49.4v1.021H41.67Z"/><path class="cls-7" d="M57.232,187.9a40.369,40.369,0,0,0,.731-4.512H53.1v-.933h5.357l.555.491c-.215,1.992-.48,3.542-.77,4.954h2.509v.92H52.015v-.92Z"/><path class="cls-7" d="M69.966,183.5v1.109H61.937V183.5Z"/><path class="cls-7" d="M79.647,179.842A12.725,12.725,0,0,1,72,188.9l-.63-.933a11.634,11.634,0,0,0,7.184-8.431Z"/><path class="cls-7" d="M89.471,183.5v1.109h-8.03V183.5Z"/><path class="cls-7" d="M93.166,183.636a14.181,14.181,0,0,1,2,1.789,12.746,12.746,0,0,0,3.655-4H90.6v-1H99.72l.567.669a14.9,14.9,0,0,1-4.462,5.041A24.469,24.469,0,0,1,97.4,188.16l-.958.669a19.964,19.964,0,0,0-3.969-4.538Z"/><path class="cls-7" d="M104.316,179.653v2.81a7.677,7.677,0,0,1-2.8,6.492l-.744-.744c1.74-1.3,2.445-3.088,2.445-5.836v-2.722Zm3.479-.353v8.218a9.328,9.328,0,0,0,3.756-3.013l.68.857a11.52,11.52,0,0,1-4.94,3.517l-.592-.466V179.3Z"/><path class="cls-7" d="M115.228,179.766a5.716,5.716,0,0,0-.076-1.222h1.059a8.426,8.426,0,0,0-.064,1.222v.782h1.1a7.542,7.542,0,0,0,1.148-.076v.97a8.212,8.212,0,0,0-1.084-.05,12.013,12.013,0,0,1-.87,3.857,26.055,26.055,0,0,1,1.777,2.521l-.732.73a19.7,19.7,0,0,0-1.474-2.331,10.709,10.709,0,0,1-2.659,3.227,2.693,2.693,0,0,0-.706-.757,8.974,8.974,0,0,0,2.76-3.264,23.307,23.307,0,0,0-2.193-2.458l.668-.617c.719.743,1.071,1.134,1.916,2.142a11.491,11.491,0,0,0,.58-3.05h-2.5a6.784,6.784,0,0,0-1.109.063v-.983a7.826,7.826,0,0,0,1.16.076h1.3Zm3.743,3.315a14.407,14.407,0,0,1,1.8,2.786l-.832.542a11.284,11.284,0,0,0-1.777-2.887Zm.744-.945a9.509,9.509,0,0,0-1.16.063v-.983a7.169,7.169,0,0,0,1.173.063h1.827v-1.273a7.408,7.408,0,0,0-.088-1.374h1.1a8.438,8.438,0,0,0-.076,1.374v1.273h.265a7.605,7.605,0,0,0,1.185-.076v1.008a.923.923,0,0,1-.126-.025,8.569,8.569,0,0,0-1.072-.05h-.252v6.251c0,.946-.264,1.134-1.562,1.134-.454,0-.807-.012-1.312-.037a3.237,3.237,0,0,0-.289-.984,11.184,11.184,0,0,0,1.588.139c.542,0,.643-.05.643-.3v-6.2Z"/><path class="cls-7" d="M130.184,179.124a4.854,4.854,0,0,0-.064-.77h1.1a3.228,3.228,0,0,0-.063.77v.617h3.4a8.914,8.914,0,0,0,1.374-.075v1.008a9.663,9.663,0,0,0-1.362-.063h-7.864a38.957,38.957,0,0,1-.29,6.062,8.128,8.128,0,0,1-.983,2.848,3.034,3.034,0,0,0-.807-.7c.92-1.576,1.122-2.937,1.122-7.55a15.621,15.621,0,0,0-.051-1.588,9.363,9.363,0,0,0,1.261.063h3.227Zm-3.429,8.822a9.747,9.747,0,0,0,1.009-4.147l.92.24a13.415,13.415,0,0,1-1.046,4.449Zm3.832-5.117a6.266,6.266,0,0,0-.064,1.134v4.273c0,.34.139.391,1.11.391.945,0,1.2-.088,1.3-.416a9.315,9.315,0,0,0,.164-2.067,3.317,3.317,0,0,0,.945.34c-.151,2.836-.315,3.037-2.407,3.037-1.739,0-2.068-.138-2.068-.869v-4.7a5.975,5.975,0,0,0-.075-1.122Zm2.017.832a10.935,10.935,0,0,0-3.026-2.1l.655-.63a16.246,16.246,0,0,1,3.026,1.979Zm2.507,4.638a13.268,13.268,0,0,0-1.411-4.2l.844-.391a18.856,18.856,0,0,1,1.525,4.16Z"/><path class="cls-7" d="M140.175,185.614H139.1V182.5H136.7v-.97H139.1v-2.4h1.071v2.4h3.617v-2.458h1.071v2.458h2.483v.97h-2.483v.643c0,3.706-1.525,5.356-4.487,6.239l-.529-.945c2.9-.819,3.945-2.13,3.945-5.37V182.5h-3.617Z"/><path class="cls-7" d="M147.947,187.568a10.541,10.541,0,0,0,1.967-3.945l1.021.3a12.472,12.472,0,0,1-2.118,4.209Zm9.227-6.491a1.414,1.414,0,0,1-1.059-1.387,1.487,1.487,0,1,1,1.651,1.463v.92h-3.92v6.037c0,.958-.479,1.273-1.437,1.273a8.775,8.775,0,0,1-1.336-.113l-.126-1.009a7.155,7.155,0,0,0,1.387.139c.327,0,.466-.088.466-.416v-5.911h-4.222v-.958H152.8v-2.256h1.046v2.256h3.328Zm-.807,2.458a17.691,17.691,0,0,1,2.155,3.983l-1.059.479a17.707,17.707,0,0,0-1.953-4.008Zm.4-3.845a.8.8,0,0,0,.819.832.832.832,0,1,0,0-1.663A.8.8,0,0,0,156.771,179.69Z"/><path class="cls-7" d="M168.949,183.5v1.109H160.92V183.5Z"/><path class="cls-7" d="M172.72,182.577a24.41,24.41,0,0,1,5.13,2.256l-.5,1.021a26.951,26.951,0,0,0-4.626-2.218V189.3h-1.1v-10.36h1.1Z"/><path class="cls-7" d="M36.373,203.271A2.773,2.773,0,1,1,33.6,200.5,2.772,2.772,0,0,1,36.373,203.271Z"/><path class="cls-7" d="M40.429,201.477h8.956v.945H45.53c-.056,2.735-1.088,4.663-3.174,5.836l-.646-.87a5.307,5.307,0,0,0,2.834-4.966H40.429Zm1.054-3h6.859v.971H41.483Z"/><path class="cls-7" d="M52.323,198.49v8.079a11.23,11.23,0,0,0,6.055-4.475l.612.82a11.63,11.63,0,0,1-7.108,4.89l-.545-.693V198.49Z"/><path class="cls-7" d="M59.944,198.83h7.222l.533.592c-.34,4.424-1.984,7.046-5.283,8.6l-.578-.92c3.117-1.424,4.546-3.743,4.784-7.285H60.931v2.937h-.987Z"/><path class="cls-7" d="M78.449,202.4v1.109H69.425V202.4Z"/><path class="cls-7" d="M87.805,199.624l.51.668a11.965,11.965,0,0,1-6.224,8l-.657-.882a11.021,11.021,0,0,0,5.77-6.856h-3.65a12.17,12.17,0,0,1-2.427,2.747l-.657-.63a12.008,12.008,0,0,0,3.446-5.028l.976.339a14.254,14.254,0,0,1-.784,1.639Z"/><path class="cls-7" d="M95.4,207.766c-.3-.34-.578-.681-.85-1.008a3.639,3.639,0,0,1-2.88,1.147,2.449,2.449,0,0,1-2.618-2.509c0-1.285.578-2.041,1.882-3.024a3.445,3.445,0,0,1-.93-2.143,1.933,1.933,0,0,1,1.95-2.117,1.727,1.727,0,0,1,1.859,1.852c0,1.21-.6,1.727-1.508,2.483l2.154,2.609a8.651,8.651,0,0,0,.42-2.949h.93a8.575,8.575,0,0,1-.681,3.756c.511.617,1.043,1.273,1.576,1.9Zm-3.945-4.751c-.952.731-1.338,1.235-1.338,2.155a1.689,1.689,0,0,0,1.814,1.777,2.423,2.423,0,0,0,2.018-.92C93.056,204.956,92,203.67,91.457,203.015Zm.453-3.983c-.59,0-.907.5-.907,1.134,0,.429.068.769.771,1.639a2.276,2.276,0,0,0,1.078-1.74A.93.93,0,0,0,91.91,199.032Z"/><path class="cls-7" d="M98.126,201.149V200.2h4.932l-.069-2.521.942-.013L104,200.2h2.642v.945h-2.62l.148,5.735c.022.958-.431,1.273-1.281,1.273a8.047,8.047,0,0,1-1.372-.114l-.124-1.021a7.084,7.084,0,0,0,1.405.139c.34,0,.442-.088.431-.416l-.068-2.823.011-2.067a13.76,13.76,0,0,1-4.966,4.978l-.6-.769a13.666,13.666,0,0,0,4.944-4.915Z"/><path class="cls-7" d="M115.859,199.611a10.151,10.151,0,0,1-6.156,8.483l-.521-.946a9.067,9.067,0,0,0,5.589-7.133h-6.8v-1h7.324Z"/><path class="cls-7" d="M120.917,208.409h-.94V203.33a15.969,15.969,0,0,1-3.119,1.689l-.464-.807a13.932,13.932,0,0,0,6.008-4.525l.771.693a16.959,16.959,0,0,1-2.256,2.231Z"/><path class="cls-7" d="M133.481,207.968a22.184,22.184,0,0,0-3.185-3.832,14.068,14.068,0,0,1-4.512,3.731l-.6-.845a12.794,12.794,0,0,0,6.406-7.335h-5.363v-1.008h5.986l.578.756a15.955,15.955,0,0,1-1.95,3.945,21.218,21.218,0,0,1,3.514,3.819Z"/><path class="cls-7" d="M138.766,201.187a12.784,12.784,0,0,0,.05,1.336,13,13,0,0,0-1.361-.05h-1.814V205.8c0,.454.126.517,1.058.517a3.049,3.049,0,0,0,1.26-.151c.277-.114.341-.479.341-1.791a4.3,4.3,0,0,0,.945.4,3.62,3.62,0,0,1-.4,1.929c-.29.353-.92.491-2.155.491-1.665,0-1.966-.177-1.966-1.172v-3.1a8.852,8.852,0,0,0-.064-1.348,12.216,12.216,0,0,0,1.274.05h1.927v-2.622h-1.991a9.381,9.381,0,0,0-1.273.063v-1.008a8.28,8.28,0,0,0,1.273.076h1.677a9.465,9.465,0,0,0,1.272-.063,12.426,12.426,0,0,0-.05,1.26Zm5.558-.882a9.784,9.784,0,0,1-.39,2.382,9.194,9.194,0,0,1-1.248,2.685,8.154,8.154,0,0,0,1.424,1.348,7.049,7.049,0,0,0,1.6.945,3.8,3.8,0,0,0-.593.958,10.39,10.39,0,0,1-3.037-2.483,9.1,9.1,0,0,1-1.436,1.3,9.843,9.843,0,0,1-2.068,1.223,2.686,2.686,0,0,0-.58-.908,8.163,8.163,0,0,0,3.529-2.369,8.242,8.242,0,0,1-1.348-3.264,12.169,12.169,0,0,1-.882,1.386,2.565,2.565,0,0,0-.782-.567,10.073,10.073,0,0,0,2.1-4.462,7.345,7.345,0,0,0,.2-1.248l1.034.2a6.009,6.009,0,0,0-.2.781c-.113.492-.2.794-.34,1.248H144.4a6.977,6.977,0,0,0,1.185-.075v.983a6.543,6.543,0,0,0-1.147-.063Zm-3.289,0c-.126.315-.151.365-.277.668a8.446,8.446,0,0,0,1.361,3.63,7.747,7.747,0,0,0,.957-2.206,8.689,8.689,0,0,0,.316-2.092Z"/><path class="cls-7" d="M154.126,200.1a6.906,6.906,0,0,0,.063.933c-.377-.038-.793-.051-1.058-.051h-1.148v.895h2.6a9.433,9.433,0,0,0,1.323-.063,8.648,8.648,0,0,0-.049,1.1v.92a7.808,7.808,0,0,0,.049,1.046,11.6,11.6,0,0,0-1.4-.05h-2.522v.97H155.6a10.421,10.421,0,0,0,1.412-.076v1.008a10.816,10.816,0,0,0-1.4-.075h-3.63v.68a8.324,8.324,0,0,0,.1,1.362h-1.1a9.515,9.515,0,0,0,.088-1.362v-.68h-3.428a11.224,11.224,0,0,0-1.424.075v-1.008a10.2,10.2,0,0,0,1.4.076h3.453v-.97h-2.281a11.636,11.636,0,0,0-1.4.05,8.019,8.019,0,0,0,.05-1.046v-.92a8.871,8.871,0,0,0-.05-1.1,9.562,9.562,0,0,0,1.324.063h2.356v-.895H150.03c-.277,0-.731.026-1.084.051a5.46,5.46,0,0,0,.063-.933V199.3H147.6a13.323,13.323,0,0,0-1.4.063v-.97a10.043,10.043,0,0,0,1.4.075h1.411v-.138a5.364,5.364,0,0,0-.075-.92h1.045a5.8,5.8,0,0,0-.062.92v.138h3.3v-.138a7.013,7.013,0,0,0-.063-.92h1.033a7,7,0,0,0-.063.92v.138h1.513a9.628,9.628,0,0,0,1.412-.075v.97a10.714,10.714,0,0,0-1.412-.063h-1.513Zm-3.05,2.559h-2.71v1.386h2.71Zm-1.159-3.366v.946h3.3V199.3Zm5.016,4.752v-1.386h-2.95v1.386Z"/><path class="cls-7" d="M162.807,198.464a6.088,6.088,0,0,0-.076-1.071h1.122a4.774,4.774,0,0,0-.076,1.071v.681h3.579a8.3,8.3,0,0,0,1.362-.088V200.1a10.218,10.218,0,0,0-1.349-.076h-3.592v1.878h1.663a5.588,5.588,0,0,0,1.084-.063l.606.618a4.8,4.8,0,0,0-.467.643,11.487,11.487,0,0,1-2.433,2.684,12.964,12.964,0,0,0,4.714,1.752,3.556,3.556,0,0,0-.516,1,14.018,14.018,0,0,1-4.991-2.155,13.23,13.23,0,0,1-5.029,2.1,3.783,3.783,0,0,0-.516-.932,12.309,12.309,0,0,0,4.776-1.765,9.011,9.011,0,0,1-1.449-1.512,8.868,8.868,0,0,1-.933-1.538,9.52,9.52,0,0,0-1.348.076v-.983a9.725,9.725,0,0,0,1.374.075h2.495v-1.878h-3.4a10.3,10.3,0,0,0-1.361.076v-1.046a8.4,8.4,0,0,0,1.361.088h3.4Zm-1.513,4.273a7.5,7.5,0,0,0,2.168,2.508,8.878,8.878,0,0,0,2.294-2.508Z"/><path class="cls-7" d="M170.957,198.679a6.921,6.921,0,0,0-.076-1.261h1.058a7.969,7.969,0,0,0-.075,1.248v1.147h.365a6.17,6.17,0,0,0,.744-.038v.908a6.858,6.858,0,0,0-.744-.038h-.365v2.067a10.719,10.719,0,0,0,1-.466l.026.869c-.466.24-.656.341-1.021.5v3.97c0,.743-.277.932-1.374.932-.264,0-.4,0-.731-.025a2.663,2.663,0,0,0-.189-.907,6.228,6.228,0,0,0,1.084.1c.227,0,.3-.063.3-.277V204c-.315.126-.542.214-1.009.39a3.772,3.772,0,0,0-.39.164l-.24-.983a6.461,6.461,0,0,0,1.639-.491v-2.433H170.3a6.523,6.523,0,0,0-.831.05v-.945a4.155,4.155,0,0,0,.831.063h.656Zm3.491,3a9.769,9.769,0,0,0-1.147.05v-.857a7.5,7.5,0,0,0,1.058.05h3.568a8.288,8.288,0,0,0,1.134-2.268l.895.277a14.344,14.344,0,0,1-1.147,1.991h.5a5.706,5.706,0,0,0,1.047-.063v.87a10.152,10.152,0,0,0-1.16-.05h-3.365c-.05.554-.05.592-.1.932H179.2a8.808,8.808,0,0,0,1.374-.075v.932a10.782,10.782,0,0,0-1.374-.075h-3.617c-.075.34-.113.491-.214.819H178.1a6.688,6.688,0,0,0,1.046-.05l.466.579c-.075.1-.075.1-.264.378a11.225,11.225,0,0,1-1.5,1.626,9.178,9.178,0,0,0,2.974.971,5.256,5.256,0,0,0-.454.92,11.057,11.057,0,0,1-3.226-1.362,10.093,10.093,0,0,1-3.088,1.336,2.247,2.247,0,0,0-.5-.806,8.783,8.783,0,0,0,2.836-1.059,8.087,8.087,0,0,1-1.437-1.436,8.8,8.8,0,0,1-2.407,3.2,2.336,2.336,0,0,0-.631-.706,7.057,7.057,0,0,0,1.777-1.966,7.955,7.955,0,0,0,1.009-2.445h-.353a8.239,8.239,0,0,0-1.236.063v-.908a8.414,8.414,0,0,0,1.248.063h.48c.05-.353.075-.58.1-.932Zm5.747-3.542c-.176.038-.176.038-.6.126a40.147,40.147,0,0,1-6.415.693,2.005,2.005,0,0,0-.3-.807c.164.013.265.013.366.013a21.706,21.706,0,0,0,6.289-.807Zm-5.747,2.735a4.962,4.962,0,0,0-.782-1.525l.757-.278a6.264,6.264,0,0,1,.73,1.488Zm1.21,4.108a7.1,7.1,0,0,0,1.424,1.286,5.166,5.166,0,0,0,1.235-1.286Zm.844-4.209a5.753,5.753,0,0,0-.705-1.651l.768-.24a6.7,6.7,0,0,1,.706,1.614Z"/><path class="cls-7" d="M36.373,222.172A2.773,2.773,0,1,1,33.6,219.4,2.772,2.772,0,0,1,36.373,222.172Z"/><path class="cls-7" d="M42.4,217.251h1.122v5.609H42.4Zm6.3-.151v4.323a5.6,5.6,0,0,1-4.071,5.772l-.58-.92a4.678,4.678,0,0,0,3.529-4.965V217.1Z"/><path class="cls-7" d="M56.11,218.612H53.515v-.958h8.192v.958h-4.55v2.458h5.521v.945H57.157v2.647c0,.756.378,1.033,1.512,1.033a16.976,16.976,0,0,0,3.5-.327l.126,1.008a18.8,18.8,0,0,1-3.63.3c-1.8,0-2.559-.492-2.559-1.828v-2.836H52.6v-.945H56.11Z"/><path class="cls-7" d="M74.748,221.3v1.109H64.715V221.3Z"/><path class="cls-7" d="M80.9,220.377a24.351,24.351,0,0,1,5.129,2.256l-.5,1.021a26.912,26.912,0,0,0-4.626-2.218V227.1H79.8V216.734h1.1Z"/><path class="cls-7" d="M89.3,220.049V219.1H94.78l-.076-2.521,1.047-.013.075,2.534h2.937v.945H95.852l.164,5.735c.024.958-.48,1.273-1.425,1.273a9.927,9.927,0,0,1-1.525-.114l-.138-1.021a8.832,8.832,0,0,0,1.562.139c.378,0,.491-.088.479-.416l-.075-2.823.012-2.067a14.626,14.626,0,0,1-5.52,4.978l-.668-.769a14.54,14.54,0,0,0,5.495-4.915Z"/><path class="cls-7" d="M110.519,218.511a10.343,10.343,0,0,1-6.844,8.483l-.58-.946a9.308,9.308,0,0,0,6.214-7.133h-7.563v-1h8.142Z"/><path class="cls-7" d="M118.907,227.309h-1.046v-5.08a18.367,18.367,0,0,1-3.465,1.689l-.517-.806a15.446,15.446,0,0,0,6.68-4.525l.857.693a18.166,18.166,0,0,1-2.509,2.231Z"/><path class="cls-7" d="M134.381,226.868a22.9,22.9,0,0,0-3.542-3.832,15.407,15.407,0,0,1-5.016,3.731l-.668-.845a13.305,13.305,0,0,0,7.121-7.335h-5.962v-1.008h6.656l.642.756a15.388,15.388,0,0,1-2.168,3.945,22.336,22.336,0,0,1,3.908,3.819Z"/><path class="cls-7" d="M36.373,241.072A2.773,2.773,0,1,1,33.6,238.3,2.772,2.772,0,0,1,36.373,241.072Z"/><path class="cls-7" d="M44.9,235.937a3.676,3.676,0,0,0-.076-.87h1.1a4.418,4.418,0,0,0-.075.87v.265h3.894a8.721,8.721,0,0,0,1.311-.076v.958a10.12,10.12,0,0,0-1.26-.063H44.62c-.239.391-.668,1.021-.971,1.412,1.513-.038,2.862-.1,4.336-.215A11.639,11.639,0,0,0,46.8,237.5l.743-.454a23.3,23.3,0,0,1,3.2,2.168l-.681.668a13.183,13.183,0,0,0-1.159-.983c-2.243.214-4.575.34-7.738.4a3.856,3.856,0,0,0-.58.038l-.151-.933a10.338,10.338,0,0,0,1.512.051c.391,0,.416,0,.656-.013a8.717,8.717,0,0,0,.983-1.424H41.318a9.481,9.481,0,0,0-1.273.063v-.958a8.715,8.715,0,0,0,1.31.076H44.9Zm-2.268,9.075a10.164,10.164,0,0,0,.062,1.374H41.62a12.025,12.025,0,0,0,.076-1.45v-3.869a7.8,7.8,0,0,0-.063-1.185c.328.025.731.038,1.425.038h5a11.392,11.392,0,0,0,1.335-.05,11.664,11.664,0,0,0-.049,1.31v4c0,.819-.3,1.071-1.349,1.071-.227,0-.706-.013-1.425-.05a2.055,2.055,0,0,0-.226-.87,10.758,10.758,0,0,0,1.538.113c.453,0,.542-.063.542-.353v-.958h-5.8Zm5.8-4.3h-5.8v.908h5.8Zm-5.8,2.634h5.8V242.4h-5.8Z"/><path class="cls-7" d="M56.376,241.823a2.114,2.114,0,0,0-.089.517,4.735,4.735,0,0,1-.579,2.2,4.155,4.155,0,0,1-1.752,1.513,9.38,9.38,0,0,1-1.462.567,3.74,3.74,0,0,0-.6-.9,6.783,6.783,0,0,0,1.978-.718,2.71,2.71,0,0,0,1.071-1.072,3.941,3.941,0,0,0,.367-2.18Zm-3.353-.2a10.188,10.188,0,0,0,.076-1.387v-3.466a10.358,10.358,0,0,0-.076-1.349h1.1a6.75,6.75,0,0,0-.076,1.273v3.643a8.189,8.189,0,0,0,.063,1.286Zm8.961-1.5a8.359,8.359,0,0,0,.064,1.21c-.454-.038-.77-.051-1.374-.051H57.2c-.592,0-.958.013-1.4.051a9.53,9.53,0,0,0,.063-1.286V236.87a9.478,9.478,0,0,0-.063-1.3,10.305,10.305,0,0,0,1.374.063h3.466a10.949,10.949,0,0,0,1.412-.063,7.413,7.413,0,0,0-.064,1.235ZM56.767,238h4.3v-1.5h-4.3Zm0,2.42h4.3v-1.575h-4.3Zm2.255,4.512c0,.315.214.378,1.413.378,1.247,0,1.487-.063,1.6-.441a5.379,5.379,0,0,0,.139-1.424v-.328a3.534,3.534,0,0,0,.92.366,3.884,3.884,0,0,1-.454,2.268c-.265.341-.794.442-2.369.442a7.842,7.842,0,0,1-1.564-.1c-.478-.1-.617-.278-.617-.794v-2.37a6.983,6.983,0,0,0-.064-1.147h1.06a6.115,6.115,0,0,0-.064,1.122Z"/><path class="cls-7" d="M70.046,235.332a9.271,9.271,0,0,0,2.231,2.546,13.129,13.129,0,0,0,3.088,1.891,4.036,4.036,0,0,0-.593.983,16.461,16.461,0,0,1-3.226-2.206,9.871,9.871,0,0,1-2.029-2.369,12.042,12.042,0,0,1-1.891,2.268,13.866,13.866,0,0,1-3.188,2.282,3.4,3.4,0,0,0-.618-.908,11.437,11.437,0,0,0,5.092-4.487Zm-1.941,4.109c-.038.34-.05.6-.063,1.121a7.377,7.377,0,0,1-.769,3.681,5.533,5.533,0,0,1-2.419,2.193,2.723,2.723,0,0,0-.756-.857,4.674,4.674,0,0,0,2.091-1.525,5.526,5.526,0,0,0,.858-3.466,6.623,6.623,0,0,0-.089-1.147Zm3.895,0a9.769,9.769,0,0,0-.076,1.3v4.2a9.19,9.19,0,0,0,.089,1.349h-1.16a9.456,9.456,0,0,0,.088-1.349v-4.2a8.409,8.409,0,0,0-.088-1.3Z"/><path class="cls-7" d="M75.941,237.21a5.187,5.187,0,0,0,1,.063H78.8a6.332,6.332,0,0,0,1-.05v.932a5.593,5.593,0,0,0-.907-.05H76.937a7.6,7.6,0,0,0-1,.05Zm10.348,6.138a9.062,9.062,0,0,1-2.017,1.626,10.387,10.387,0,0,0,3.1.542,3.788,3.788,0,0,0-.353.9,11.944,11.944,0,0,1-3.6-.983,13.593,13.593,0,0,1-3.529,1.021,3.594,3.594,0,0,0-.429-.807c-.289-.025-.466-.025-.668-.025H77.2v.68h-.882a11.785,11.785,0,0,0,.063-1.2v-1.752a7.77,7.77,0,0,0-.05-.983,6.134,6.134,0,0,0,.794.038h1.651a4.446,4.446,0,0,0,.756-.038,5.378,5.378,0,0,0-.038.946v1.512a7.363,7.363,0,0,0,.026.806,11.487,11.487,0,0,0,3.075-.642,7.607,7.607,0,0,1-1.4-1.059l.794-.29a5.539,5.539,0,0,0,1.437.983,7.289,7.289,0,0,0,1.436-1.008H81.146a7.941,7.941,0,0,0-1,.05v-.807a6.806,6.806,0,0,0,1,.051h3.681a5.992,5.992,0,0,0,.933-.051Zm-9.932-4.361a6.533,6.533,0,0,0,.819.038h1.437a6.308,6.308,0,0,0,.807-.038v.883a4.341,4.341,0,0,0-.807-.051H77.176a7.183,7.183,0,0,0-.819.038Zm0,1.7a7.025,7.025,0,0,0,.819.038h1.45a6.658,6.658,0,0,0,.807-.038v.87a7.118,7.118,0,0,0-.82-.038H77.176a6.809,6.809,0,0,0-.819.038Zm.012-5.206a4.517,4.517,0,0,0,.921.063h1.336a4.577,4.577,0,0,0,.92-.063v.908a6.6,6.6,0,0,0-.92-.051H77.29a6.269,6.269,0,0,0-.921.051Zm.819,9.352H78.7v-1.7H77.188Zm8.546-5.659a6.245,6.245,0,0,0,.87-.037v.693a7.264,7.264,0,0,0-.87-.038h-1.5v.592h1.488a6.583,6.583,0,0,0,.882-.037v.693a7.063,7.063,0,0,0-.882-.038H84.234v.63h1.979a6.845,6.845,0,0,0,.9-.038v.781a5.065,5.065,0,0,0-.97-.063H81.462c-.379,0-.644.013-.921.039.025-.316.038-.5.038-.933v-1.21c0-.214.025-.567.051-.845a8.675,8.675,0,0,1-.719.782,2.252,2.252,0,0,0-.466-.656,4.569,4.569,0,0,0,.844-.882,5.181,5.181,0,0,0,.794-1.475l.5.1c.013-.075.013-.252.024-.529h-.63a7.322,7.322,0,0,0-1.02.063v-.87a8.256,8.256,0,0,0,1.071.063h.579v-.126a2.376,2.376,0,0,0-.062-.668H82.5a2.818,2.818,0,0,0-.051.668v.126h1.98v-.126a2.956,2.956,0,0,0-.051-.668h.945a2.3,2.3,0,0,0-.063.668v.126h.757a6.768,6.768,0,0,0,1.109-.063v.857c-.315-.025-.693-.05-1.109-.05h-.757v.088a2.421,2.421,0,0,0,.051.6h-.694c-.113.214-.164.277-.3.5h1.727a5.866,5.866,0,0,0,.957-.05v.756a7.6,7.6,0,0,0-.932-.038H84.234v.6Zm-2.268-.6H81.373v.6h2.093Zm0,1.223H81.373v.592h2.093ZM81.373,241v.63h2.093V241Zm.492-3.643c-.089.164-.24.442-.3.542h1.917a3.361,3.361,0,0,0,.377-.806l.555.164a4.486,4.486,0,0,0,.013-.467v-.088h-1.98a3.717,3.717,0,0,0,.038.655Z"/><path class="cls-7" d="M91.692,242.314H90.621V239.2H88.214v-.971h2.407v-2.395h1.071v2.395H95.31v-2.458h1.071v2.458h2.482v.971H96.381v.642c0,3.706-1.526,5.357-4.487,6.239l-.53-.945c2.9-.819,3.946-2.13,3.946-5.369V239.2H91.692Z"/><path class="cls-7" d="M100.119,244.268a10.533,10.533,0,0,0,1.967-3.945l1.02.3a12.453,12.453,0,0,1-2.117,4.209Zm9.227-6.491a1.413,1.413,0,0,1-1.059-1.386,1.487,1.487,0,1,1,1.651,1.462v.92h-3.92v6.037c0,.958-.479,1.273-1.437,1.273a8.764,8.764,0,0,1-1.336-.113l-.126-1.009a7.155,7.155,0,0,0,1.387.139c.327,0,.466-.088.466-.416v-5.911H100.75v-.958h4.222v-2.256h1.046v2.256h3.328Zm-.807,2.458a17.691,17.691,0,0,1,2.155,3.983l-1.059.479a17.707,17.707,0,0,0-1.953-4.008Zm.4-3.844a.8.8,0,0,0,.82.832.832.832,0,1,0,0-1.664A.8.8,0,0,0,108.942,236.391Z"/><path class="cls-7" d="M122.525,240.2v1.109H112.492V240.2Z"/><path class="cls-7" d="M128.571,239.277a24.387,24.387,0,0,1,5.13,2.256l-.5,1.021a26.99,26.99,0,0,0-4.626-2.218V246h-1.1v-10.36h1.1Z"/><path class="cls-7" d="M36.373,259.972A2.773,2.773,0,1,1,33.6,257.2,2.772,2.772,0,0,1,36.373,259.972Z"/><path class="cls-7" d="M41.33,255.53h8.029l.592.593c-.378,4.423-2.2,7.045-5.873,8.6l-.642-.92a7.792,7.792,0,0,0,5.318-7.285H42.427v2.937h-1.1Z"/><path class="cls-7" d="M62.552,259.1v1.109H52.519V259.1Z"/><path class="cls-7" d="M71.622,257.976c-.29,3.44-1.79,5.709-4.7,7.02l-.669-.845a6.7,6.7,0,0,0,4.273-6.175H67.034a10.872,10.872,0,0,1-1.954,2.23l-.768-.592a12.123,12.123,0,0,0,3.377-5.344l1.059.3a14.6,14.6,0,0,1-1.109,2.433H74.76v.971Z"/><path class="cls-7" d="M86.541,259.1v1.109H76.508V259.1Z"/><path class="cls-7" d="M89.448,257.786a13.919,13.919,0,0,1,3.076,1.526l-.53.932a16.852,16.852,0,0,0-3.037-1.613Zm-.214,5.785c3.946-.592,6.844-2.394,8.521-6.074l.894.692c-1.827,3.895-4.878,5.748-9.112,6.466Zm1.286-8.721a13.358,13.358,0,0,1,3,1.5l-.53.92a15.736,15.736,0,0,0-2.962-1.576Z"/><path class="cls-7" d="M102.464,260.988v-.921h5.508v-2.079h-5.937v-.92h6.92v8.079h-.983v-.807H101.96v-.92h6.012v-2.432Z"/><path class="cls-7" d="M113.828,255.442a16.431,16.431,0,0,1,2.987,2.42l-.819.857a16.828,16.828,0,0,0-2.848-2.558Zm-.428,8.041c3.844-.844,6.744-2.949,8.117-6.654l.983.579c-1.462,3.933-4.65,6.189-8.772,7.084Z"/><path class="cls-8" d="M71.862,127.682H96.87V112.31H71.862Zm12.859-4.535a3.062,3.062,0,1,1,3.051-3.062,3.057,3.057,0,0,1-3.051,3.062m62.367,19.2H62.91V130.333h84.178ZM111.974,94.46a8.818,8.818,0,1,1,8.815,8.93,8.874,8.874,0,0,1-8.815-8.93m-8.729,33.222c.651-9.355,2.987-15.779,7.172-19.534a17.959,17.959,0,0,1,2.852-2.138,10.928,10.928,0,0,1,1.841-.853,15.892,15.892,0,0,1,4.858-.887l-2.755,23.412h-4.588c.233-5.35.481-10.417.624-13.325-2.019,2.787-3.3,7.323-3.774,13.325Zm20.835,0-2.2-23.377a16.9,16.9,0,0,1,4.451.889,14.5,14.5,0,0,1,4.155,2.407c4.671,3.661,7.222,10.437,7.647,20.081h-6.213c-.3-6-1.524-10.517-3.595-13.32.263,3.256.678,8.652.93,13.32Z"/></g></g></svg>