<svg xmlns="http://www.w3.org/2000/svg" width="210" height="285" viewBox="0 0 210 285"><defs><style>.cls-1{fill:#fff;}.cls-2{fill:#f0eae0;}.cls-3{fill:#827663;}.cls-4{fill:none;stroke:#241916;stroke-miterlimit:10;stroke-width:0.531px;}.cls-5{fill:#392712;}.cls-6{fill:#e2605a;}.cls-7{fill:#241916;}.cls-8{fill:#655541;}</style></defs><g id="レイヤー_2" data-name="レイヤー 2"><g id="レイヤー_1-2" data-name="レイヤー 1"><rect class="cls-1" width="210" height="284.55"/><rect class="cls-2" x="14.999" width="182.001" height="285"/><polygon class="cls-3" points="15 32.422 1 14.923 1 60.421 15 74.421 15 32.422"/><polygon class="cls-3" points="196 32.422 210 14.923 210 60.421 196 74.421 196 32.422"/><line class="cls-4" x1="30" y1="165.5" x2="180" y2="165.5"/><rect class="cls-5" y="19.95" width="210" height="40.95"/><path class="cls-1" d="M51.794,34.757c.084,0,.118-.05.168-.117.37-.79.756-1.6,1.075-2.419.067-.185.1-.3.219-.3.033,0,1.461.5,1.461.756,0,.135-.1.151-.2.168a.348.348,0,0,0-.3.219c-.4.806-.806,1.6-1.276,2.385A.363.363,0,0,0,53,35.9l.168.168a.334.334,0,0,0,.268.118.312.312,0,0,0,.269-.2c.319-.571.571-1.159.857-1.731.067-.151.1-.269.218-.269a4.853,4.853,0,0,1,.858.4c.133.084.268.134.319.168.117.067.369.185.369.336s-.151.151-.219.168c-.168.017-.234.033-.3.168-.656,1.226-1.345,2.4-2.083,3.562a.3.3,0,0,0-.035.134c0,.151.119.2.252.2l.538-.05c.168-.033.32-.117.32-.319a.623.623,0,0,0-.051-.168,3.682,3.682,0,0,1-.235-.639c0-.252.672-.453.89-.453.32,0,.437.487.84,1.6a10.727,10.727,0,0,1,.437,1.445c0,.3-.638.47-.89.47-.2,0-.27-.1-.337-.286a.412.412,0,0,0-.386-.3c-.05,0-.084.017-.168.017-.336.067-.437.2-.437.537v3.31c0,.722.034,1.445.034,2.167,0,.538-.135.554-.756.554-.588,0-.756-.016-.756-.5,0-.739.034-1.478.034-2.217V41.158c0-.235-.1-.4-.37-.4h-.067c-.3.034-.605.067-.891.084-.1.05-.134.05-.184.168-.068.1-.118.168-.236.168-.184,0-.252-.286-.37-.773-.033-.185-.084-.4-.15-.655a.791.791,0,0,1-.051-.219c0-.184.152-.2.453-.2h.219a.707.707,0,0,0,.672-.387c.168-.268.336-.537.487-.806a.623.623,0,0,0,.084-.3.605.605,0,0,0-.184-.387,18.849,18.849,0,0,0-1.6-1.461c-.084-.067-.168-.135-.168-.252,0-.235.47-1.159.738-1.159a.376.376,0,0,1,.253.134A.219.219,0,0,0,51.794,34.757Zm.588,6.972c.252.051.4.084.4.252,0,.1-.134.151-.2.185-.118.067-.118.2-.135.3-.067.6-.436,2.738-.554,3.326-.05.168-.118.386-.336.386-.134,0-.89-.2-.89-.487,0-.084.066-.353.084-.453a28.1,28.1,0,0,0,.537-3.361c0-.117-.017-.3.185-.3A5.045,5.045,0,0,1,52.382,41.729ZM56.33,44.72c-.033,0-.067.016-.1.016a1.177,1.177,0,0,1-.4.1c-.235,0-.268-.185-.37-.621-.033-.1-.05-.2-.084-.32-.15-.587-.285-1.192-.486-1.764a.908.908,0,0,1-.084-.285c0-.252.588-.369.789-.369a.347.347,0,0,1,.352.218,19.661,19.661,0,0,1,.639,2.15.108.108,0,0,0,.1.084.106.106,0,0,0,.1-.084c.084-.487.135-.974.186-1.478.016-.236,0-.353.218-.353.118,0,.907.151,1.058.185.135.033.42.084.42.218,0,.1-.1.168-.185.2-.168.067-.168.134-.2.336a15.381,15.381,0,0,1-.605,2.957.306.306,0,0,1-.3.252c-.2,0-1.075-.135-1.075-.437,0-.084.184-.622.218-.756C56.549,44.787,56.431,44.72,56.33,44.72Zm3.746-11.156c-.184.051-.218.051-.336.3-.3.588-1.814,3.293-2.419,3.293-.268,0-1.058-.588-1.058-.857,0-.151.134-.269.235-.37a13.936,13.936,0,0,0,2.05-3.158c.05-.118.117-.269.268-.269a2.99,2.99,0,0,1,.807.319c.386.185.689.32.689.487A.284.284,0,0,1,60.076,33.564ZM63.15,39.8h-.133c-1.731.2-3.445.4-5.175.521a.217.217,0,0,0-.2.151c-.068.1-.119.185-.252.185-.185,0-.236-.218-.32-.5-.05-.168-.336-1.025-.336-1.142,0-.185.236-.2.521-.2a6.157,6.157,0,0,0,.79-.034.6.6,0,0,0,.6-.419c.488-1.076.824-2.017,1.21-3.125.034-.118.084-.286.236-.286a12.834,12.834,0,0,1,1.293.42c.118.051.37.135.37.286,0,.168-.135.168-.252.2-.118.017-.168.034-.219.151-.336.756-.639,1.5-.958,2.252a.411.411,0,0,0-.033.134.277.277,0,0,0,.285.252c.2,0,1.009-.067,1.546-.134.135-.017.235-.084.235-.219,0-.184-.151-.319-.268-.453-.186-.235-.336-.42-.336-.538,0-.252.772-.706,1.008-.706.151,0,.217.1.3.185.371.42.757.958,1.093,1.412a11.152,11.152,0,0,1,1.092,1.8c0,.286-.807.756-1.059.756-.168,0-.252-.117-.386-.369-.05-.084-.084-.152-.134-.252A.578.578,0,0,0,63.15,39.8Zm-1.495,5.494c.706,0,.74-.185.874-1.159.033-.236.1-.37.369-.37.32,0,1.093.1,1.093.538a4.987,4.987,0,0,1-.6,2.066c-.369.521-.941.5-1.512.5H60.58c-.772,0-1.663-.118-1.663-1.109,0-.252.034-.5.034-.739V42.905c0-.369-.017-.722-.051-1.075,0-.05-.016-.1-.016-.151,0-.168.117-.185.252-.185.235,0,1.108.05,1.36.068.1.016.286.033.286.167,0,.1-.067.135-.135.185-.235.168-.235.4-.235.991v1.882c0,.5.2.5.622.5Zm.32-2.117c-.2,0-.269-.151-.4-.47a12.3,12.3,0,0,0-.772-1.479.6.6,0,0,1-.117-.285c0-.269.655-.555.889-.555s.32.2.488.488a8.789,8.789,0,0,1,.839,1.7C62.9,42.956,62.126,43.174,61.975,43.174Zm2.772-6.031c-.319,0-1.495-1.529-1.714-1.848a9.737,9.737,0,0,1-1.176-2.15c0-.286.807-.672,1.125-.672.27,0,.32.184.471.5a8.2,8.2,0,0,0,2.05,2.738c.117.118.336.285.336.437C65.839,36.5,65.066,37.143,64.747,37.143Zm.218,8.316c-.235,0-.285-.2-.336-.37a17.23,17.23,0,0,0-1.125-2.6.728.728,0,0,1-.118-.319c0-.286.672-.6.907-.6.168,0,.252.1.336.234.219.387.454.857.639,1.261a14.4,14.4,0,0,1,.688,1.8C65.956,45.173,65.234,45.459,64.965,45.459Z"/><path class="cls-1" d="M72.609,40.637c-.118.168-.218.37-.386.37-.252,0-.992-.353-.992-.638,0-.118.118-.236.2-.336a3.029,3.029,0,0,0,.554-.941c0-.185-.235-.168-.352-.168h-.219c-.269,0-.387.118-.387.4v5.006c0,.336.018.672.018,1.008,0,1.479-1.177,1.63-2.386,1.63-.336,0-.84.067-.84-1.226,0-.219.05-.387.3-.387.186,0,.42.034.655.034.79,0,.756-.269.756-1.008v-2.94c0-.068-.016-.118-.084-.118-.05,0-.066.017-.1.068a12.2,12.2,0,0,1-1.663,2.788c-.084.1-.3.4-.454.4-.286,0-.958-.7-.958-.974,0-.118.1-.2.168-.269a14.053,14.053,0,0,0,2.5-4,.4.4,0,0,0,.034-.135c0-.218-.151-.269-.319-.285h-.42c-.47,0-.924.034-1.378.034-.336,0-.352-.168-.352-.723,0-.571.016-.722.352-.722.454,0,.908.016,1.378.016H69.72c.117,0,.234-.05.234-.184a.254.254,0,0,0-.066-.152,12.33,12.33,0,0,0-1.546-1.545c-.084-.084-.286-.235-.286-.387,0-.235.722-.857,1.025-.857a.931.931,0,0,1,.571.37c.1.1.32.286.453.286a.544.544,0,0,0,.32-.135c.151-.134.856-.739.856-.907,0-.151-.252-.134-.352-.134H68.812c-.521,0-1.125.033-1.478.033-.37,0-.37-.151-.37-.722,0-.554,0-.722.37-.722.487,0,.991.033,1.478.033h2.823c.3,0,.6-.017.907-.017a.69.69,0,0,1,.655.32,1.417,1.417,0,0,1,.42.755c0,.454-1.882,1.966-2.285,2.285a.4.4,0,0,0-.185.319.47.47,0,0,0,.118.286c.1.118.4.437.4.571a.482.482,0,0,1-.185.32.092.092,0,0,0-.05.084c0,.084.067.1.134.1.152,0,.924-.016,1.025-.016a1.306,1.306,0,0,1,1.093.772c.016.084.066.219.184.219h.068a11.379,11.379,0,0,0,1.915-.958.351.351,0,0,0,.2-.3.393.393,0,0,0-.117-.286,6.876,6.876,0,0,1-.588-.806.336.336,0,0,0-.27-.168.328.328,0,0,0-.252.118c-.218.268-.621.755-.873.755-.286,0-.991-.655-.991-.907,0-.1.084-.168.151-.235a10.265,10.265,0,0,0,2.335-3.545c.033-.1.1-.252.236-.252a4.6,4.6,0,0,1,.587.168c.42.118,1.059.286,1.059.487,0,.135-.2.185-.319.2-.152.034-.2.118-.269.286a.3.3,0,0,0-.034.168c0,.185.151.235.3.251h2.183c.605,0,1.194-.033,1.782-.033.369,0,.369.135.369.722s-.017.723-.369.723-.891-.017-1.261-.034c-.05.017-.067.034-.067.084,0,.034.017.051.05.067.236.1.538.2.538.37,0,.118-.134.151-.235.168-.235.067-.235.067-.37.286a10.683,10.683,0,0,1-.84,1.108.433.433,0,0,0-.117.269.371.371,0,0,0,.184.3,10.7,10.7,0,0,0,2.118,1.024c.217.084.436.151.436.319,0,.32-.487,1.277-.84,1.277a1.681,1.681,0,0,1-.47-.151,11.861,11.861,0,0,1-2.454-1.394.571.571,0,0,0-.318-.118.529.529,0,0,0-.353.118A11.285,11.285,0,0,1,74.054,40.1c-.269,0-.42-.353-.521-.555-.034-.067-.067-.117-.151-.117a.162.162,0,0,0-.152.1C73.2,39.612,72.676,40.52,72.609,40.637Zm4.822,1.7a.52.52,0,0,0-.588.4A7.588,7.588,0,0,1,74.776,46c-.269.252-.974.923-1.327.923-.37,0-1.075-.773-1.075-1.108,0-.151.151-.219.3-.3a5.946,5.946,0,0,0,2.5-2.755.512.512,0,0,0,.033-.151c0-.2-.168-.252-.336-.269-.151,0-1.092.034-1.243.034-.37,0-.353-.185-.353-.74,0-.621-.017-.755.386-.755.5,0,1.009.05,1.5.033a.433.433,0,0,0,.5-.437c0-.151.018-.285.018-.386,0-.471,0-.588.252-.588a13.847,13.847,0,0,1,1.411.168c.133.017.336.05.336.185,0,.117-.168.185-.252.235-.119.067-.135.118-.152.252v.118c0,.3.117.453.42.453h.236c.655,0,1.175-.033,1.579-.033.79,0,1.108.117,1.108.823a20.221,20.221,0,0,1-.588,4.032c-.369,1.226-1.293,1.293-2.419,1.293-.688,0-.974.034-.974-1.159,0-.235,0-.487.286-.487a1.343,1.343,0,0,1,.252.017c.184.017.369.033.571.033.487,0,.688-.067.823-.571a11.907,11.907,0,0,0,.32-2.15c0-.4-.219-.37-.841-.37Zm.856-7.241c0-.168-.151-.218-.3-.235H76.708c-.151.017-.285.051-.285.235a.27.27,0,0,0,.05.152,4.488,4.488,0,0,0,.588.773.392.392,0,0,0,.319.15.383.383,0,0,0,.3-.15,4.913,4.913,0,0,0,.554-.757A.317.317,0,0,0,78.287,35.093Z"/><path class="cls-1" d="M93.391,45.829a.889.889,0,0,1-.84-.387l-.5-.554c-.168-.168-.269-.252-.386-.252a.717.717,0,0,0-.387.168,6.321,6.321,0,0,1-3.746,1.125c-2.5,0-3.629-1.394-3.629-3.007,0-1.579,1.092-2.587,2.285-3.394.2-.134.3-.235.3-.336a.6.6,0,0,0-.168-.352,4.237,4.237,0,0,1-.823-2.319c0-1.562,1.21-2.688,3.091-2.688,2.017,0,2.84,1.244,2.84,2.521a3.713,3.713,0,0,1-1.8,2.956c-.168.134-.252.235-.252.336,0,.084.067.185.2.336l1.647,1.664c.134.134.235.218.319.218s.168-.1.269-.3a8.919,8.919,0,0,0,.84-2.941c.05-.436.134-.5.571-.5h.89c.32,0,.438.051.454.252a1.964,1.964,0,0,1-.034.286,13.657,13.657,0,0,1-1.428,4.25.958.958,0,0,0-.134.387c0,.117.084.235.252.4.605.621,1.159,1.193,1.764,1.781.117.117.168.2.168.252,0,.067-.118.1-.319.1Zm-5.729-5.276a.678.678,0,0,0-.386.168c-.823.605-1.462,1.243-1.462,2.1,0,.79.706,1.462,1.915,1.462a4.281,4.281,0,0,0,2.37-.672c.184-.118.268-.2.268-.3s-.067-.2-.2-.336l-2.117-2.184C87.881,40.621,87.78,40.553,87.662,40.553ZM88.52,35.4a1.131,1.131,0,0,0-1.261,1.125,2.748,2.748,0,0,0,.622,1.546c.135.185.235.286.352.286a.649.649,0,0,0,.353-.185,2.243,2.243,0,0,0,1.093-1.73A1.032,1.032,0,0,0,88.52,35.4Z"/><path class="cls-1" d="M105.823,41.091a.5.5,0,0,0-.571.437A8.058,8.058,0,0,1,99.1,46.971c-.488,0-1.025-.941-1.025-1.31,0-.236.2-.252.521-.336,2.15-.521,4.032-1.6,4.821-3.8a.368.368,0,0,0,.034-.134c0-.219-.184-.286-.37-.3h-1.528c-.622,0-1.227.05-1.848.05-.437,0-.421-.2-.421-.823,0-.638-.016-.84.421-.84.621,0,1.226.034,1.848.034h1.814c.3,0,.453-.118.471-.437,0-.033.016-.051.016-.084,0-.252-.034-.6-.034-.806,0-.236.1-.32.336-.32.286,0,.991.051,1.278.084.2.017.571.034.571.219,0,.117-.185.218-.27.269a.239.239,0,0,0-.134.235v.4c0,.3.134.437.437.437h2.017c.553,0,1.108-.034,1.663-.034.856,0,1.024.185,1.024,1.025a15.245,15.245,0,0,1-.94,5.309c-.639,1.243-1.966,1.226-3.193,1.226-1.126,0-1.343,0-1.343-1.361,0-.336.084-.436.3-.436.471,0,.925.067,1.4.067.924,0,1.243-.118,1.513-.891a12.245,12.245,0,0,0,.453-2.923c0-.369-.2-.4-.789-.4Zm5.141-5.342c.52,0,.924.151.924.739,0,.285-.034.672-.034,1.041v.488c0,.268.034.554.034.839,0,.454-.252.437-.874.437-.588,0-.873.017-.873-.419,0-.286.033-.572.033-.857V37.8c0-.319-.135-.47-.471-.47h-9.374c-.336,0-.471.151-.471.47v.168c0,.286.035.571.035.857,0,.437-.269.42-.874.42-.638,0-.873.017-.873-.437,0-.269.033-.554.033-.84v-.437c0-.386-.033-.773-.033-1.041,0-.622.419-.739,1.159-.739.4,0,.907.033,1.511.033h7.09c.084-.017.168-.05.168-.134,0-.135-.084-.151-.235-.235-.118-.068-.286-.185-.286-.336a.379.379,0,0,1,.1-.219,13.144,13.144,0,0,0,1.445-2.6c.05-.1.1-.218.218-.218a5.681,5.681,0,0,1,1.059.386c.185.084.353.151.436.185.118.034.252.1.252.235,0,.118-.1.168-.2.168-.168.017-.234.017-.318.185a15.516,15.516,0,0,1-1.143,2.066.315.315,0,0,0,.3.5C110.124,35.765,110.544,35.749,110.964,35.749Zm-10.148-.236c-.252,0-.319-.168-.42-.369a21.727,21.727,0,0,0-1.042-1.966.762.762,0,0,1-.167-.353c0-.319.941-.688,1.176-.688.285,0,.521.47.957,1.277a7.249,7.249,0,0,1,.656,1.444C101.976,35.245,101.018,35.513,100.816,35.513Zm3.9-.285c-.3,0-.353-.185-.42-.4a15.68,15.68,0,0,0-.807-1.9.925.925,0,0,1-.133-.353c0-.336.973-.621,1.175-.621.269,0,.42.285.857,1.26a9.842,9.842,0,0,1,.5,1.428C105.89,35.077,104.832,35.228,104.714,35.228Z"/><path class="cls-1" d="M119.33,40.637c-.118.168-.219.37-.387.37-.252,0-.991-.353-.991-.638,0-.118.117-.236.2-.336a3.013,3.013,0,0,0,.555-.941c0-.185-.235-.168-.353-.168h-.218c-.269,0-.387.118-.387.4v5.006c0,.336.018.672.018,1.008,0,1.479-1.177,1.63-2.386,1.63-.336,0-.84.067-.84-1.226,0-.219.05-.387.3-.387.185,0,.42.034.655.034.79,0,.756-.269.756-1.008v-2.94c0-.068-.017-.118-.084-.118-.05,0-.067.017-.1.068a12.127,12.127,0,0,1-1.663,2.788c-.084.1-.3.4-.453.4-.286,0-.958-.7-.958-.974,0-.118.1-.2.168-.269a14.075,14.075,0,0,0,2.5-4,.4.4,0,0,0,.034-.135c0-.218-.151-.269-.319-.285h-.42c-.471,0-.924.034-1.378.034-.336,0-.353-.168-.353-.723,0-.571.017-.722.353-.722.454,0,.907.016,1.378.016h1.478c.118,0,.235-.05.235-.184a.249.249,0,0,0-.067-.152,12.2,12.2,0,0,0-1.546-1.545c-.083-.084-.286-.235-.286-.387,0-.235.723-.857,1.026-.857a.937.937,0,0,1,.571.37c.1.1.319.286.453.286a.544.544,0,0,0,.32-.135c.151-.134.856-.739.856-.907,0-.151-.252-.134-.353-.134h-2.116c-.521,0-1.126.033-1.478.033-.37,0-.37-.151-.37-.722,0-.554,0-.722.37-.722.487,0,.991.033,1.478.033h2.822c.3,0,.6-.017.908-.017a.69.69,0,0,1,.655.32,1.417,1.417,0,0,1,.42.755c0,.454-1.882,1.966-2.285,2.285a.4.4,0,0,0-.185.319.475.475,0,0,0,.117.286c.1.118.4.437.4.571a.482.482,0,0,1-.185.32.093.093,0,0,0-.051.084c0,.084.068.1.135.1.151,0,.924-.016,1.024-.016a1.3,1.3,0,0,1,1.093.772c.017.084.067.219.185.219h.067a11.3,11.3,0,0,0,1.915-.958.351.351,0,0,0,.2-.3.393.393,0,0,0-.117-.286,6.993,6.993,0,0,1-.588-.806.332.332,0,0,0-.269-.168.327.327,0,0,0-.252.118c-.218.268-.621.755-.873.755-.286,0-.991-.655-.991-.907,0-.1.084-.168.151-.235a10.279,10.279,0,0,0,2.335-3.545c.033-.1.1-.252.235-.252a4.654,4.654,0,0,1,.588.168c.42.118,1.059.286,1.059.487,0,.135-.2.185-.32.2-.151.034-.2.118-.268.286a.3.3,0,0,0-.034.168c0,.185.151.235.3.251h2.184c.6,0,1.193-.033,1.781-.033.369,0,.369.135.369.722s-.016.723-.369.723-.89-.017-1.26-.034c-.05.017-.067.034-.067.084,0,.034.017.051.05.067.235.1.538.2.538.37,0,.118-.135.151-.235.168-.236.067-.236.067-.37.286a10.683,10.683,0,0,1-.84,1.108.427.427,0,0,0-.117.269.371.371,0,0,0,.184.3,10.718,10.718,0,0,0,2.117,1.024c.218.084.437.151.437.319,0,.32-.487,1.277-.84,1.277a1.687,1.687,0,0,1-.471-.151,11.879,11.879,0,0,1-2.453-1.394.571.571,0,0,0-.318-.118.53.53,0,0,0-.354.118,11.254,11.254,0,0,1-2.923,1.512c-.268,0-.42-.353-.52-.555-.034-.067-.067-.117-.151-.117a.161.161,0,0,0-.152.1C119.918,39.612,119.4,40.52,119.33,40.637Zm4.821,1.7a.52.52,0,0,0-.588.4A7.577,7.577,0,0,1,121.5,46c-.269.252-.975.923-1.327.923-.37,0-1.075-.773-1.075-1.108,0-.151.151-.219.3-.3a5.946,5.946,0,0,0,2.5-2.755.484.484,0,0,0,.034-.151c0-.2-.168-.252-.336-.269-.152,0-1.092.034-1.244.034-.37,0-.352-.185-.352-.74,0-.621-.018-.755.386-.755.5,0,1.008.05,1.495.033a.433.433,0,0,0,.5-.437c0-.151.017-.285.017-.386,0-.471,0-.588.252-.588a13.813,13.813,0,0,1,1.411.168c.134.017.336.05.336.185,0,.117-.168.185-.252.235-.118.067-.134.118-.151.252v.118c0,.3.117.453.42.453h.235c.656,0,1.176-.033,1.579-.033.79,0,1.109.117,1.109.823a20.294,20.294,0,0,1-.588,4.032c-.369,1.226-1.293,1.293-2.419,1.293-.689,0-.975.034-.975-1.159,0-.235,0-.487.286-.487a1.338,1.338,0,0,1,.252.017c.185.017.37.033.572.033.487,0,.688-.067.823-.571a11.9,11.9,0,0,0,.319-2.15c0-.4-.218-.37-.841-.37Zm.857-7.241c0-.168-.152-.218-.3-.235h-1.277c-.152.017-.285.051-.285.235a.276.276,0,0,0,.049.152,4.592,4.592,0,0,0,.588.773.393.393,0,0,0,.32.15.381.381,0,0,0,.3-.15,4.854,4.854,0,0,0,.555-.757A.326.326,0,0,0,125.008,35.093Z"/><path class="cls-1" d="M134.047,45.829c-.789,0-2.116.033-2.235.033-.369,0-.47-.134-.47-.537.017-.941.034-2,.034-2.806V37.244c0-.824-.017-1.831-.034-2.806,0-.4.1-.538.47-.538.119,0,1.446.034,2.235.034h2.066c3.326,0,5.309,1.848,5.309,5.594,0,3.915-2.151,6.3-5.846,6.3Zm-.723-2.235c0,.42.084.5.5.5h1.7c2.638,0,3.914-1.8,3.914-4.469,0-2.268-1.075-3.88-3.51-3.88h-2.1c-.421,0-.5.084-.5.5Z"/><path class="cls-1" d="M150.359,43.141c-.5.739-.974,1.444-1.511,2.268a.725.725,0,0,1-.774.42h-1.26c-.268,0-.385-.051-.385-.168a.6.6,0,0,1,.133-.286c.623-.84,1.344-1.814,1.95-2.671l1.8-2.537a.725.725,0,0,0,.185-.437.882.882,0,0,0-.185-.4l-1.377-1.966c-.656-.923-1.328-1.831-2.185-2.973a.6.6,0,0,1-.134-.286c0-.118.117-.168.386-.168h1.345a.721.721,0,0,1,.772.42c.588.891,1.126,1.664,1.68,2.47l.689.991c.118.168.2.252.286.252s.167-.084.286-.252l.688-.991c.571-.824,1.075-1.563,1.647-2.47a.721.721,0,0,1,.772-.42h1.294c.269,0,.387.05.387.168a.6.6,0,0,1-.135.286c-.856,1.159-1.563,2.116-2.167,2.973l-1.411,2a.889.889,0,0,0-.186.4.724.724,0,0,0,.186.437l1.764,2.5c.587.857,1.259,1.73,1.949,2.671a.6.6,0,0,1,.134.286c0,.117-.118.168-.387.168h-1.344a.722.722,0,0,1-.772-.42c-.521-.841-1.026-1.563-1.512-2.268l-1.026-1.462c-.117-.168-.2-.252-.285-.252s-.168.084-.286.252Z"/><rect class="cls-6" y="15" width="210" height="5"/><path class="cls-7" d="M35.995,184.372a2.773,2.773,0,1,1-2.772-2.773A2.772,2.772,0,0,1,35.995,184.372Z"/><path class="cls-7" d="M45.729,178.619c-.026.2-.064.769-.064,1.122a15.76,15.76,0,0,0,.3,2.785,10.814,10.814,0,0,0,1.7,3.467,10.944,10.944,0,0,0,1.777,1.8,7.963,7.963,0,0,0,1.324.882,3.389,3.389,0,0,0-.731.946,11.358,11.358,0,0,1-3.227-3.088,10.456,10.456,0,0,1-1.625-3.769,10.132,10.132,0,0,1-.882,2.672,8.612,8.612,0,0,1-1.8,2.5,10.251,10.251,0,0,1-2.181,1.689,2.644,2.644,0,0,0-.743-.883,8.442,8.442,0,0,0,3-2.42,10.155,10.155,0,0,0,2.055-6.667,5.821,5.821,0,0,0-.063-1.034Z"/><path class="cls-7" d="M57.231,184.556H54.3a10.4,10.4,0,0,0-1.159.05v-.857a7.133,7.133,0,0,0,1.184.063h2.911v-.706H54.61a7.818,7.818,0,0,0-1.021.051,5.6,5.6,0,0,0,.051-.82v-.617a6.115,6.115,0,0,0-.051-.857,8.234,8.234,0,0,0,1.033.05h2.609v-.705H53.678a10.829,10.829,0,0,0-1.412.075v-.932a9.607,9.607,0,0,0,1.449.075h3.516a4.537,4.537,0,0,0-.075-1.033H58.2a3.634,3.634,0,0,0-.089,1.033h3.694a9.532,9.532,0,0,0,1.436-.075v.932a10.743,10.743,0,0,0-1.4-.075H58.113v.705h2.825a7.892,7.892,0,0,0,1.02-.05,6.115,6.115,0,0,0-.051.857v.617a5.587,5.587,0,0,0,.051.82,7.528,7.528,0,0,0-1-.051H58.113v.706h2.71a11.522,11.522,0,0,0,1.362-.05,9.726,9.726,0,0,0-.039,1.071v.492a6.712,6.712,0,0,0,1.249-.076v.9a7.088,7.088,0,0,0-1.249-.063v.794a6.341,6.341,0,0,0,.077,1.26h-.958v-.491H58.113v.932c0,.908-.276,1.11-1.562,1.11-.252,0-.63-.013-1.159-.051a2.622,2.622,0,0,0-.265-.907,11.068,11.068,0,0,0,1.562.126c.442,0,.542-.063.542-.315v-.895H54.244a8.259,8.259,0,0,0-1.223.063v-.883a9.634,9.634,0,0,0,1.2.051h3.012v-.794H53.539a8.786,8.786,0,0,0-1.349.063v-.9a6.775,6.775,0,0,0,1.349.076h3.692Zm-2.684-2.924v.781h2.684v-.781Zm3.566.781H61v-.781H58.113Zm3.152,2.912v-.769H58.113v.769Zm-3.152,1.55h3.152v-.794H58.113Z"/><path class="cls-7" d="M73.928,180.724l.566.668a12.281,12.281,0,0,1-6.919,8l-.731-.883a11.406,11.406,0,0,0,6.416-6.856H69.2a12.713,12.713,0,0,1-2.7,2.747l-.732-.63a12.056,12.056,0,0,0,3.832-5.028l1.084.34a13.376,13.376,0,0,1-.87,1.638Z"/><path class="cls-7" d="M86.842,183.005c-.869,3.4-2.9,5.307-6.326,6.34l-.542-.932c3.112-.845,4.94-2.572,5.671-5.08H77.981v-.983H86.25Zm-1.222-3.478v.97H79.167v-.97Z"/><path class="cls-7" d="M98.56,180.75l.63.6c-.466,4.2-2.256,6.6-6.087,7.928l-.581-.945c3.479-1.147,5.13-3.315,5.508-6.642H91.363v2.722h-1.1V180.75h3.7v-1.979h1.1v1.979Z"/><path class="cls-7" d="M104.454,182.577a24.41,24.41,0,0,1,5.13,2.256l-.5,1.021a26.951,26.951,0,0,0-4.626-2.218V189.3h-1.1v-10.36h1.1Zm3.176-2.974a8.683,8.683,0,0,1,1.349,2.041l-.731.4a8.139,8.139,0,0,0-1.3-2.079Zm1.361-.694a8.483,8.483,0,0,1,1.4,2.017l-.732.39a8.681,8.681,0,0,0-1.323-2.029Z"/><path class="cls-7" d="M35.995,203.271a2.773,2.773,0,1,1-2.772-2.772A2.772,2.772,0,0,1,35.995,203.271Z"/><path class="cls-7" d="M39.528,202.712c.227.013.378.025.63.025h.391c.441-.592.441-.592.693-.958a13.768,13.768,0,0,0-1.726-2.016l.542-.681c.226.252.3.34.466.517a9,9,0,0,0,1.059-2.282l.9.341a6.651,6.651,0,0,0-.455.857,15.219,15.219,0,0,1-.982,1.689c.314.391.542.68.668.857a13.479,13.479,0,0,0,1.349-2.445l.856.441c-.075.113-.163.239-.314.491a34.7,34.7,0,0,1-2.093,3.139c.794-.051,1.2-.076,1.777-.151a8.254,8.254,0,0,0-.542-1.059l.668-.29a17.326,17.326,0,0,1,1.1,2.307l-.756.365c-.089-.29-.126-.4-.189-.618-.152.026-.152.026-.416.063-.2.026-.34.038-.731.076v4.046a6.87,6.87,0,0,0,.075,1.248H41.47a9.493,9.493,0,0,0,.075-1.261v-3.957c-.4.038-.4.038-1.336.088-.239.025-.365.038-.567.076Zm1.424,1.7a13.781,13.781,0,0,1-.63,3.554l-.806-.341a11.159,11.159,0,0,0,.618-3.365Zm2.622-.252a18.679,18.679,0,0,1,.668,2.848l-.768.2a13.185,13.185,0,0,0-.619-2.836Zm4.121-6.668a6.617,6.617,0,0,0,1.752,2.294,9.165,9.165,0,0,0,1.677,1.185,3.571,3.571,0,0,0-.517.869,10.493,10.493,0,0,1-3.4-3.428,9.408,9.408,0,0,1-2.975,3.353,2.3,2.3,0,0,0-.567-.769,7.564,7.564,0,0,0,3.026-3.5Zm-2.029,11.091H44.7c.037-.39.063-.793.063-1.235v-2.936a7.618,7.618,0,0,0-.05-1.034c.265.025.529.038.933.038H49.2a8.731,8.731,0,0,0,.9-.038,7.529,7.529,0,0,0-.05,1.021v2.886a10.608,10.608,0,0,0,.063,1.286h-1v-.731H45.666Zm-.542-7.474a5.689,5.689,0,0,0,1.071.063H48.5a5.592,5.592,0,0,0,1.071-.063v.946a8.754,8.754,0,0,0-1.121-.051H46.259a9,9,0,0,0-1.135.051Zm.542,5.911H49.12V204.25H45.666Z"/><path class="cls-7" d="M54.573,202.485c-.088.214-.126.328-.264.656l-.971-.177a23.755,23.755,0,0,0,1.538-5.029,4.1,4.1,0,0,0,.075-.655l1.071.164c-.075.226-.113.365-.164.567-.087.353-.137.554-.252.983h4.9a8.7,8.7,0,0,0,1.272-.063v1.021a10.324,10.324,0,0,0-1.247-.063H55.38c-.19.706-.3,1.058-.517,1.726h4.752a10.254,10.254,0,0,0,1.3-.063c-.063.3-.113.8-.265,2.08a5.257,5.257,0,0,1-.076.6H61.72a11.14,11.14,0,0,0,1.361-.075v1.02a11.294,11.294,0,0,0-1.361-.075H60.434a7.728,7.728,0,0,1-.769,2.558c-.327.5-.769.681-1.7.681-.542,0-1.1-.038-2.13-.126a3.84,3.84,0,0,0-.277-1.033,16.086,16.086,0,0,0,2.356.239c.655,0,.87-.114,1.084-.631a8.615,8.615,0,0,0,.454-1.688H53.162a11.449,11.449,0,0,0-1.387.075v-1.02a10.8,10.8,0,0,0,1.4.075H59.59c.075-.454.075-.5.2-1.752Z"/><path class="cls-7" d="M72.794,207.766c-.327-.34-.643-.681-.945-1.008a4.284,4.284,0,0,1-3.2,1.147c-1.726,0-2.911-1.034-2.911-2.509,0-1.285.643-2.041,2.092-3.024a3.284,3.284,0,0,1-1.033-2.143,2.036,2.036,0,0,1,2.168-2.117,1.831,1.831,0,0,1,2.067,1.852c0,1.21-.669,1.727-1.676,2.483l2.394,2.609a7.858,7.858,0,0,0,.467-2.949h1.033a7.829,7.829,0,0,1-.756,3.756c.567.617,1.159,1.273,1.752,1.9Zm-4.386-4.751c-1.058.731-1.487,1.235-1.487,2.155a1.8,1.8,0,0,0,2.017,1.777,2.829,2.829,0,0,0,2.243-.92C70.186,204.956,69.014,203.67,68.408,203.015Zm.5-3.983a1.015,1.015,0,0,0-1.008,1.134c0,.429.075.769.857,1.639.542-.416,1.2-.883,1.2-1.74A.974.974,0,0,0,68.912,199.032Z"/><path class="cls-7" d="M76.257,202.7a3.354,3.354,0,0,0,.542.026h.466c.466-.58.5-.643.806-1.072a13.9,13.9,0,0,0-1.814-1.966l.5-.706c.29.278.314.3.567.555a9.147,9.147,0,0,0,1.084-2.256l.895.366c-.077.138-.139.226-.252.453a13.279,13.279,0,0,1-1.173,2.029c.264.3.264.3.68.794.152-.252.152-.252.518-.806a7.041,7.041,0,0,0,.718-1.387l.819.466c-.126.164-.126.164-.768,1.173-.4.655-1.122,1.663-1.639,2.319.832-.051,1.223-.088,1.777-.164a8.805,8.805,0,0,0-.466-1.046l.63-.3a15.37,15.37,0,0,1,1.008,2.458l-.706.34c-.088-.34-.113-.453-.2-.718-.441.063-.593.076-1.046.126v4.008a8.509,8.509,0,0,0,.075,1.248h-1.02a8.966,8.966,0,0,0,.075-1.261v-3.919c-.693.063-.693.063-1.475.113a2.444,2.444,0,0,0-.465.063Zm1.487,1.626a16.765,16.765,0,0,1-.593,3.58l-.819-.366a9.792,9.792,0,0,0,.606-3.377Zm2.659-.252a14.916,14.916,0,0,1,.568,2.622l-.783.252a12.163,12.163,0,0,0-.465-2.647Zm5.306.265a5.769,5.769,0,0,0,1.16-.076v.958a10.3,10.3,0,0,0-1.16-.05H84.386v2.117h1.8a7.546,7.546,0,0,0,1.248-.063v.971a8.616,8.616,0,0,0-1.248-.076H81.9a8.786,8.786,0,0,0-1.26.076v-.971a7.733,7.733,0,0,0,1.171.063h1.677V205.17H82.47a10.537,10.537,0,0,0-1.172.05v-.945a6.977,6.977,0,0,0,1.172.063h1.021v-.391a5.779,5.779,0,0,0-.076-1.26h1.034a7.434,7.434,0,0,0-.063,1.248v.4Zm1.173-5.9c-.228.341-.228.341-.644.971a9.494,9.494,0,0,1-1.524,1.752,9.14,9.14,0,0,0,2.86,1.2,3.084,3.084,0,0,0-.453.933,10.9,10.9,0,0,1-3.113-1.55,11.571,11.571,0,0,1-2.559,1.4,2.937,2.937,0,0,0-.491-.845,8.922,8.922,0,0,0,2.356-1.134,7.459,7.459,0,0,1-1.764-2.382,5.444,5.444,0,0,0-.832.063v-.958a7.359,7.359,0,0,0,1.248.063h3.416a5.673,5.673,0,0,0,.958-.051Zm-4.412.341A5.566,5.566,0,0,0,84,200.645a7.45,7.45,0,0,0,1.613-1.865Z"/><path class="cls-7" d="M99.606,200.733a11.213,11.213,0,0,0,1.161-.038c-.051.265-.051.265-.1.58-.1.668-.163.895-.29,1.046a.913.913,0,0,1-.756.265h-.2c-.013.454-.013.6-.013,1.021v2.017a10.978,10.978,0,0,0,.05,1.285c-.327-.025-.794-.038-1.361-.038H92.675c-.568,0-1.022.013-1.349.038.026-.264.05-.668.05-1.248v-2.609c-.416.164-.643.24-1.26.429a2.114,2.114,0,0,0-.454-.756,5.861,5.861,0,0,0,3.164-1.336H91.263c-.391,0-.782.012-1.084.037a6.762,6.762,0,0,0,.693-2.029c.277.025.567.038,1.109.038H93.6c.025-.252.038-.353.05-.6h-2.13a8.131,8.131,0,0,0-1.2.063v-.819a7.05,7.05,0,0,0,1.2.063h2.142a5.543,5.543,0,0,0-.05-.832h.958a8.075,8.075,0,0,0-.05.832h1.777v-.114a3.129,3.129,0,0,0-.063-.718h.97a3.377,3.377,0,0,0-.062.744v.088H98.9a8.934,8.934,0,0,0,1.186-.063,4.988,4.988,0,0,0-.051.844v.441a3.688,3.688,0,0,0,.038.744c-.353-.025-.731-.038-1.184-.038H97.137v.668Zm-5.469,6.693a10.25,10.25,0,0,1-3.743,1.348,2.9,2.9,0,0,0-.542-.794,9.1,9.1,0,0,0,3.617-1.1Zm-2.521-7.361c-.114.328-.164.479-.24.668h1.891a2.979,2.979,0,0,0,.214-.668Zm.655,3.542H98.51v-.63H92.271Zm0,1.273H98.51v-.63H92.271Zm0,1.3H98.51v-.656H92.271Zm6.516-3.882a2.447,2.447,0,0,0-.113-.441,4.837,4.837,0,0,0,.768.1c.241,0,.253-.025.341-.567H97.137a3.122,3.122,0,0,0,.05.668h-.946a3.178,3.178,0,0,0,.051-.668H93.8a3.171,3.171,0,0,1-.92.907h5.911Zm-4.462-2.231a2.934,2.934,0,0,1-.188.668h2.155v-.668Zm.152-1.235c-.013.29-.026.378-.05.6h1.865v-.6Zm2.786,8.066a6.935,6.935,0,0,0,1.8.731,11.256,11.256,0,0,0,1.9.328,3.851,3.851,0,0,0-.542.819,10.852,10.852,0,0,1-1.891-.466,8.839,8.839,0,0,1-1.966-.882Zm-.126-7.461h2.016v-.6H97.137Z"/><path class="cls-7" d="M102.086,199.523a6.277,6.277,0,0,0,1.071.076h3.025a6.1,6.1,0,0,0,1.071-.063v.92a7.908,7.908,0,0,0-1.071-.051h-3.037a7.05,7.05,0,0,0-1.059.064Zm.566-1.7a5.58,5.58,0,0,0,1.022.063h2.042a5.605,5.605,0,0,0,1-.063v.907a7.539,7.539,0,0,0-1-.05h-2.042a7.606,7.606,0,0,0-1.022.05Zm0,3.453a8.048,8.048,0,0,0,.87.038h2.32a7.918,7.918,0,0,0,.856-.038v.857a8.251,8.251,0,0,0-.856-.038h-2.32a8.048,8.048,0,0,0-.87.038Zm0,1.727a7.416,7.416,0,0,0,.87.038h2.32A7.453,7.453,0,0,0,106.7,203v.857a7.751,7.751,0,0,0-.856-.038h-2.32a8.218,8.218,0,0,0-.87.038Zm1.009,5.608H102.7a10.23,10.23,0,0,0,.064-1.184v-1.714a5.61,5.61,0,0,0-.064-.983,7.881,7.881,0,0,0,.87.038h2.369a7.532,7.532,0,0,0,.82-.038,6.637,6.637,0,0,0-.051.983v1.676a8.256,8.256,0,0,0,.063,1.071h-.945v-.466h-2.168Zm-.013-1.4h2.181v-1.65h-2.181Zm6.025-8.368a9.309,9.309,0,0,0-.088-1.412h1.146a9.1,9.1,0,0,0-.087,1.412v2.42h1.084a11.6,11.6,0,0,0,1.487-.076v1.046a12.772,12.772,0,0,0-1.487-.076h-1.084v4.651a11.581,11.581,0,0,0,.1,1.8h-1.159a12.815,12.815,0,0,0,.088-1.8v-4.651h-1a12.486,12.486,0,0,0-1.438.076v-1.046a10.75,10.75,0,0,0,1.438.076h1Z"/><path class="cls-7" d="M116.173,199.006a10.016,10.016,0,0,1-1.336,1.6,2.8,2.8,0,0,0-.668-.668,6.163,6.163,0,0,0,1.953-2.76l.933.265c-.252.478-.252.491-.416.781h1.8a7.025,7.025,0,0,0,1.2-.076v.908a8.877,8.877,0,0,0-1.135-.051H117.9c.2.3.378.58.555.9l-.807.278a7.661,7.661,0,0,0-.618-1.173Zm2.23,7.613c-.4,1.122-1.272,1.714-3.1,2.13a3.124,3.124,0,0,0-.579-.807,6.621,6.621,0,0,0,1.588-.378,2.038,2.038,0,0,0,1.146-.945h-1.827a10.783,10.783,0,0,0-1.349.076v-.933a8.84,8.84,0,0,0,1.349.076h2.042c.024-.277.037-.391.05-.782h-.466a12.2,12.2,0,0,0-1.361.051,9.589,9.589,0,0,0,.049-1.261v-2.357c0-.605-.011-.844-.024-1.222.3.025.579.038,1.121.038H122.5c.668,0,.933-.013,1.272-.038-.025.353-.038.718-.038,1.361v2.181a9.777,9.777,0,0,0,.051,1.3,12.2,12.2,0,0,0-1.361-.051h-.391v.782h1.878a8.892,8.892,0,0,0,1.374-.076v.933a10.763,10.763,0,0,0-1.374-.076h-1.878v.845a7.869,7.869,0,0,0,.076,1.146H121.05a6.637,6.637,0,0,0,.076-1.146v-.845Zm-1.588-4.94h6.05V201h-6.05Zm0,1.336h6.05v-.668h-6.05Zm0,1.348h6.05v-.68h-6.05Zm4.311,1.475v-.782h-2.483c-.025.4-.025.529-.063.782Zm-.265-6.832a7.673,7.673,0,0,1-1,1.248,2.567,2.567,0,0,0-.7-.542,5.692,5.692,0,0,0,1.663-2.558l.907.277c-.251.491-.264.529-.4.794h2.648a7.06,7.06,0,0,0,1.285-.076v.92a9.444,9.444,0,0,0-1.285-.063h-1.2a10,10,0,0,1,.567.87l-.794.29a6.756,6.756,0,0,0-.668-1.16Z"/><path class="cls-7" d="M35.995,222.172a2.773,2.773,0,1,1-2.772-2.773A2.772,2.772,0,0,1,35.995,222.172Z"/><path class="cls-7" d="M42.289,226.666v-9.478H45.1c1.814,0,3.011.882,3.011,2.571a2.663,2.663,0,0,1-1.865,2.735l2.874,4.172H47.658l-2.547-3.794h-1.65v3.794Zm1.172-8.419v3.579h1.4a1.77,1.77,0,0,0,2-1.89c0-1.122-.717-1.689-1.927-1.689Z"/><path class="cls-7" d="M52.558,226.666v-9.478h2.836c2.016,0,3.1,1,3.1,2.8,0,1.827-1.033,3.2-3.466,3.2h-1.3v3.478Zm1.171-8.419v3.907H55.2a1.835,1.835,0,0,0,2.029-2.054,1.7,1.7,0,0,0-1.953-1.853Z"/><path class="cls-7" d="M61.087,226.666l3.566-9.478h1.362l3.554,9.478H68.3l-1-2.672H63.267l-.97,2.672Zm2.546-3.693h3.289l-1.651-4.462Z"/><path class="cls-7" d="M35.995,241.072a2.773,2.773,0,1,1-2.772-2.773A2.772,2.772,0,0,1,35.995,241.072Z"/><path class="cls-7" d="M42.364,236.24a5.161,5.161,0,0,0-.076-1.009h1.047a7.656,7.656,0,0,0-.064,1.009v.088h4.21v-.1a6.424,6.424,0,0,0-.063-1h1.034a7.473,7.473,0,0,0-.063,1v.1h1.046a8.289,8.289,0,0,0,1.273-.076v.945c-.4-.037-.794-.063-1.273-.063H48.389v3.82h1.26a9.481,9.481,0,0,0,1.286-.076v.933a8.562,8.562,0,0,0-1.261-.076h-1.7a7.037,7.037,0,0,0,3.314,1.6,3.788,3.788,0,0,0-.491.921,9.925,9.925,0,0,1-2.294-1.1V244a8.45,8.45,0,0,0-1.084-.05H45.742v1.223h3.289a7.359,7.359,0,0,0,1.311-.076v.97A10.777,10.777,0,0,0,48.969,246H41.936a10.858,10.858,0,0,0-1.387.075v-.957a8.814,8.814,0,0,0,1.348.063h2.95v-1.223H43.423a8.956,8.956,0,0,0-1.1.05v-.844a9.364,9.364,0,0,1-2.281,1.134,2.422,2.422,0,0,0-.479-.907,6.358,6.358,0,0,0,3.214-1.651H41.116a8.7,8.7,0,0,0-1.261.076v-.933a8.6,8.6,0,0,0,1.261.076h1.248v-3.82h-.857c-.479,0-.869.026-1.273.063v-.945a8.507,8.507,0,0,0,1.273.076h.857Zm1.5,5.5a6.862,6.862,0,0,1-1.45,1.374c.24.025.555.037,1.009.037h1.424v-.088a4.8,4.8,0,0,0-.063-.933h1.021a4.8,4.8,0,0,0-.063.933v.088h1.676a9.631,9.631,0,0,0,1-.037,7.493,7.493,0,0,1-1.563-1.374Zm3.617-3.832v-.769h-4.21v.769Zm0,1.513v-.769h-4.21v.769Zm0,1.538v-.8h-4.21v.8Z"/><path class="cls-7" d="M54.624,236.34a7.3,7.3,0,0,0-.076-1.147h1.009a6.15,6.15,0,0,0-.077,1.147v.152h.933a5.574,5.574,0,0,0,1.135-.076v.92a7.53,7.53,0,0,0-1.135-.063H55.48v1.084h.542a8.731,8.731,0,0,0,1.2-.038v.063a6.628,6.628,0,0,0,2.546-3.1h1a5.829,5.829,0,0,0,1.21,1.663,7.319,7.319,0,0,0,1.852,1.412,3.955,3.955,0,0,0-.466.857c-.34-.214-.441-.277-.731-.491v.958a6.7,6.7,0,0,0-1.147-.064H60.8v1.942h1.3a8.257,8.257,0,0,0,1.222-.076v1a8.412,8.412,0,0,0-1.21-.076H60.8v2.8a6.733,6.733,0,0,0,.088,1.273H59.816a8.06,8.06,0,0,0,.076-1.273v-2.8H58.846a8.5,8.5,0,0,0-1.223.076v-1a7.919,7.919,0,0,0,1.223.076h1.046v-1.942h-.454a9.685,9.685,0,0,0-1.2.064v-.946c-.24.214-.315.278-.593.492a3.38,3.38,0,0,0-.454-.593c-.011.265-.011.479-.011.908v1.764c0,.618.011.958.037,1.3-.378-.025-.5-.025-1.2-.025H55.48v1.1H56.5a7.114,7.114,0,0,0,1.134-.063v.945A7.84,7.84,0,0,0,56.5,244.5H55.48v.655a7.508,7.508,0,0,0,.077,1.311H54.548a7.8,7.8,0,0,0,.076-1.311V244.5H53.59a5.71,5.71,0,0,0-1.134.076v-.958a7.308,7.308,0,0,0,1.134.063h1.034v-1.1h-.58c-.517,0-.781.013-1.172.038a11.849,11.849,0,0,0,.05-1.285v-1.8a11.468,11.468,0,0,0-.05-1.222,8.748,8.748,0,0,0,1.172.05h.58v-1.084h-.971a7.316,7.316,0,0,0-1.134.063v-.92a5.488,5.488,0,0,0,1.134.076h.971Zm-.87,5.508h2.609v-1.033H53.754Zm.013-1.777h2.6v-.983h-2.6Zm7.7-1.285a5.688,5.688,0,0,0,1.159-.076,8.609,8.609,0,0,1-2.332-2.584,7.847,7.847,0,0,1-2.029,2.6,6.835,6.835,0,0,0,1.134.063Z"/><path class="cls-7" d="M66.694,239.983a9.206,9.206,0,0,0-1.3.063v-.895a8.635,8.635,0,0,0,1.3.063h1.714a8.352,8.352,0,0,0-.593-1.273h-1.5A13.676,13.676,0,0,0,64.9,238v-.92a9.555,9.555,0,0,0,1.387.076h.718a6.3,6.3,0,0,0-.97-1.261l.857-.378a8.456,8.456,0,0,1,1.071,1.639H68.9v-.92a7.318,7.318,0,0,0-.062-1.021h.983a6.522,6.522,0,0,0-.05,1v.946h1.184v-.946a6.706,6.706,0,0,0-.051-1h.984a7.036,7.036,0,0,0-.063,1.021v.92H72.9a7.159,7.159,0,0,0,.945-1.689l.907.365a12.076,12.076,0,0,1-.883,1.324H74.5a9.361,9.361,0,0,0,1.374-.076V238a13.49,13.49,0,0,0-1.412-.063H73.071a13.114,13.114,0,0,1-.617,1.273h1.664a8.74,8.74,0,0,0,1.311-.063v.895a9.2,9.2,0,0,0-1.311-.063H70.79v.794H73.4a8.962,8.962,0,0,0,1.311-.063v.869a9.1,9.1,0,0,0-1.311-.062H70.79v.844h3.681a9.455,9.455,0,0,0,1.424-.075v.932a11.927,11.927,0,0,0-1.424-.076h-3a9.636,9.636,0,0,0,4.7,2.017,3.321,3.321,0,0,0-.555.907,10.079,10.079,0,0,1-4.877-2.609c.026.492.037.731.037,1v.769a7.257,7.257,0,0,0,.089,1.273H69.845a12.468,12.468,0,0,0,.063-1.286v-.756c0-.265.013-.541.038-.983a7.919,7.919,0,0,1-1.916,1.487,12.191,12.191,0,0,1-2.634,1.1,3.278,3.278,0,0,0-.58-.857,9.21,9.21,0,0,0,4.424-2.055H66.43a12.091,12.091,0,0,0-1.425.076v-.932a9.741,9.741,0,0,0,1.412.075h3.491v-.844h-2.47a9,9,0,0,0-1.3.062v-.869a9.3,9.3,0,0,0,1.3.063h2.47v-.794Zm4.8-.769a7.165,7.165,0,0,0,.567-1.273H68.812a9.74,9.74,0,0,1,.516,1.273Z"/><path class="cls-7" d="M88.519,237.21a8.621,8.621,0,0,0-1.021-.05,6.047,6.047,0,0,1-1.387,2.117,8.965,8.965,0,0,0,2.685,1,3.1,3.1,0,0,0-.416.894,9.26,9.26,0,0,1-2.9-1.335,9.79,9.79,0,0,1-2.785,1.4,2.758,2.758,0,0,0-.441-.7,9.147,9.147,0,0,1-.668,1.449,2.4,2.4,0,0,0-.681-.428,6.289,6.289,0,0,0,.756-1.613H80.554l.05,5.457c.012.668-.265.9-1.109.9a10.591,10.591,0,0,1-1.173-.063,2.194,2.194,0,0,0-.188-.857,7.553,7.553,0,0,0,1.26.126c.264,0,.353-.076.353-.278l-.013-3.907a9.263,9.263,0,0,1-2.08,3.151,2.582,2.582,0,0,0-.529-.857,8.5,8.5,0,0,0,2.433-3.667H78.424A5.985,5.985,0,0,0,77.34,240v-.946a6.627,6.627,0,0,0,1.134.063h1.563a10.377,10.377,0,0,0-1.8-1.651l.58-.517c.58.454.794.631,1.147.946a6.07,6.07,0,0,0,1.248-1.412H78.738a6.517,6.517,0,0,0-1.1.063v-.933a6.864,6.864,0,0,0,1.172.063h2.167A6.18,6.18,0,0,0,82,235.635l.491.529a4.828,4.828,0,0,0-.378.466,11.033,11.033,0,0,1-1.613,1.8c.126.138.177.189.328.365l-.3.315h.82a7.516,7.516,0,0,0,.881-.037l.391.466c-.062.126-.1.227-.176.416-.063.214-.1.3-.176.5a8.391,8.391,0,0,0,2.545-1.147,5.917,5.917,0,0,1-1.273-1.538,8.52,8.52,0,0,1-1.046,1.185,2.278,2.278,0,0,0-.655-.58,6.61,6.61,0,0,0,1.9-2.584,3.24,3.24,0,0,0,.227-.731l.908.215c-.038.088-.038.088-.177.416-.126.289-.177.4-.3.655h2.887a9.957,9.957,0,0,0,1.235-.063Zm-1.437,4.739a5.938,5.938,0,0,0,1-.05c-.025.239-.025.239-.113,1.172a6.788,6.788,0,0,1-.593,2.735,1.173,1.173,0,0,1-1.059.391,9.382,9.382,0,0,1-1.4-.127,2.868,2.868,0,0,0-.188-.932,6.8,6.8,0,0,0,1.487.214c.4,0,.529-.139.655-.731a14.539,14.539,0,0,0,.227-1.852H85.027a5.351,5.351,0,0,1-3.427,3.6,2.663,2.663,0,0,0-.568-.769,6.113,6.113,0,0,0,2.117-1.248,3.55,3.55,0,0,0,.958-1.587h-1.2a7.8,7.8,0,0,0-1.1.05v-.92a8.075,8.075,0,0,0,1.135.05h1.374a6.773,6.773,0,0,0,.1-1.058.834.834,0,0,0-.026-.24l1.021.025c-.037.215-.037.252-.126.782a4.764,4.764,0,0,1-.075.491ZM84.1,237.16a5.225,5.225,0,0,0,1.361,1.651,4.519,4.519,0,0,0,1.122-1.651Z"/><path class="cls-7" d="M100.577,237.122a9.144,9.144,0,0,1-3.063,3.857l-.794-.756a7.291,7.291,0,0,0,2.546-2.824H90.708v-.983h9.276Zm-4.84,1.512v1.185a6.016,6.016,0,0,1-4.084,6.214l-.6-.895c2.52-.946,3.592-2.5,3.592-5.382v-1.122Z"/><path class="cls-7" d="M110.656,237.45l.631.605c-.467,4.2-2.257,6.6-6.088,7.927l-.58-.945c3.479-1.147,5.13-3.315,5.508-6.642H103.46v2.722h-1.1V237.45h3.7v-1.979h1.1v1.979Z"/><path class="cls-7" d="M116.954,239.277a24.41,24.41,0,0,1,5.13,2.256l-.5,1.021a27.025,27.025,0,0,0-4.626-2.218V246h-1.1v-10.36h1.1Z"/><path class="cls-7" d="M124.678,236.58a14.49,14.49,0,0,1,1.915,3.491l-1.033.5a15.281,15.281,0,0,0-1.815-3.529Zm7.763.139c-.6,4.562-2.848,7.726-6.465,9.276l-.63-.882c3.453-1.5,5.482-4.462,5.961-8.609Z"/><path class="cls-7" d="M142.616,240.2v1.109h-8.029V240.2Z"/><path class="cls-7" d="M144.377,238.886a13.963,13.963,0,0,1,3.076,1.526l-.53.932a16.949,16.949,0,0,0-3.037-1.613Zm-.214,5.785c3.945-.592,6.844-2.394,8.521-6.074l.894.693c-1.827,3.894-4.878,5.747-9.112,6.465Zm1.285-8.721a13.337,13.337,0,0,1,3,1.5l-.529.92a15.709,15.709,0,0,0-2.962-1.576Z"/><path class="cls-7" d="M156.008,236.542a16.494,16.494,0,0,1,2.986,2.42l-.819.857a16.9,16.9,0,0,0-2.848-2.558Zm-.429,8.041c3.844-.844,6.743-2.949,8.116-6.654l.984.579c-1.462,3.932-4.651,6.189-8.773,7.084Z"/><path class="cls-7" d="M174.744,237.55l.568.668a12.284,12.284,0,0,1-6.919,8l-.732-.883a11.465,11.465,0,0,0,6.415-6.856h-4.057a12.694,12.694,0,0,1-2.7,2.747l-.731-.629a12.075,12.075,0,0,0,3.832-5.029l1.084.34a13.656,13.656,0,0,1-.87,1.638Zm.328-2.47a8.849,8.849,0,0,1,1.046,2.206l-.794.3a9.419,9.419,0,0,0-.983-2.269Zm1.462-.529a8.527,8.527,0,0,1,1.135,2.18l-.781.3a7.964,7.964,0,0,0-1.06-2.206Z"/><path class="cls-7" d="M35.995,259.972a2.773,2.773,0,1,1-2.772-2.773A2.772,2.772,0,0,1,35.995,259.972Z"/><path class="cls-7" d="M39.881,260.534a25.826,25.826,0,0,0,3-3.176,1.212,1.212,0,0,1,.958-.555,1.277,1.277,0,0,1,.945.492,41.179,41.179,0,0,0,5.861,5.142l-.769,1.021a48.458,48.458,0,0,1-5.722-5.4.387.387,0,0,0-.277-.163c-.089,0-.164.063-.252.163a31.934,31.934,0,0,1-3.063,3.3Zm10.4-3.567a1.5,1.5,0,0,1-1.5,1.487,1.487,1.487,0,0,1,0-2.974A1.5,1.5,0,0,1,50.279,256.967Zm-2.319,0a.8.8,0,0,0,.819.832.832.832,0,1,0,0-1.664A.8.8,0,0,0,47.96,256.967Z"/><path class="cls-7" d="M62.174,259.1v1.109H52.141V259.1Z"/><path class="cls-7" d="M63.518,263.345a15.577,15.577,0,0,0,3.037-7.172l1.109.252a17.316,17.316,0,0,1-3.188,7.588Zm7.738-7.411a29.868,29.868,0,0,1,3.479,7.549l-1.134.492a30.732,30.732,0,0,0-3.278-7.6Zm3.806-.82a1.5,1.5,0,0,1-1.5,1.488,1.488,1.488,0,0,1,0-2.975A1.5,1.5,0,0,1,75.062,255.114Zm-2.319,0a.8.8,0,0,0,.819.832.832.832,0,1,0,0-1.664A.8.8,0,0,0,72.743,255.114Z"/><path class="cls-7" d="M86.163,259.1v1.109H76.13V259.1Z"/><path class="cls-7" d="M90.8,255.19v8.079a12.489,12.489,0,0,0,6.729-4.475l.681.82a13.021,13.021,0,0,1-7.9,4.89l-.605-.693V255.19Z"/><path class="cls-7" d="M109.308,264.668a22.945,22.945,0,0,0-3.542-3.832,15.4,15.4,0,0,1-5.016,3.731l-.668-.844a13.31,13.31,0,0,0,7.121-7.336h-5.962v-1.008H107.9l.643.756a15.388,15.388,0,0,1-2.168,3.945,22.3,22.3,0,0,1,3.907,3.819Z"/><path class="cls-8" d="M105,82a7.453,7.453,0,1,0,7.453,7.452A7.452,7.452,0,0,0,105,82m0,12.776a5.324,5.324,0,1,1,5.324-5.324A5.324,5.324,0,0,1,105,94.774"/><path class="cls-8" d="M108.193,97.967h-6.388a9.591,9.591,0,0,0-9.581,9.582v18.1h4.258v20.227h2.13V121.389h-2.13v2.131H94.353V107.549a7.462,7.462,0,0,1,7.452-7.453h6.388a7.461,7.461,0,0,1,7.452,7.453V123.52h-2.129v-2.131h-2.128v24.487h2.128V125.649h4.259v-18.1a9.594,9.594,0,0,0-9.582-9.582"/><rect class="cls-8" x="103.934" y="125.649" width="2.129" height="20.228"/><path class="cls-8" d="M126.293,92.644a6.388,6.388,0,1,0,6.386,6.388,6.387,6.387,0,0,0-6.386-6.388m0,10.646a4.259,4.259,0,1,1,4.257-4.258,4.256,4.256,0,0,1-4.257,4.258"/><path class="cls-8" d="M129.486,106.485H119.9v2.129h9.582a5.33,5.33,0,0,1,5.324,5.323v13.84h-2.13v-2.128h-2.129v20.228h2.129V129.906h4.259V113.937a7.461,7.461,0,0,0-7.453-7.452"/><polygon class="cls-8" points="119.904 125.649 119.904 127.777 115.645 127.777 115.645 129.906 119.904 129.906 119.904 145.877 122.033 145.877 122.033 125.649 119.904 125.649"/><rect class="cls-8" x="125.228" y="129.906" width="2.129" height="15.969"/><path class="cls-8" d="M83.706,92.644a6.388,6.388,0,1,0,6.387,6.388,6.387,6.387,0,0,0-6.387-6.388m0,10.646a4.259,4.259,0,1,1,4.258-4.258,4.256,4.256,0,0,1-4.258,4.258"/><path class="cls-8" d="M80.512,106.485a7.461,7.461,0,0,0-7.453,7.452v15.969h4.258v15.971h2.13V125.649h-2.13v2.128H75.188v-13.84a5.329,5.329,0,0,1,5.324-5.323h9.581v-2.129Z"/><polygon class="cls-8" points="90.094 127.777 90.094 125.649 87.964 125.649 87.964 145.877 90.094 145.877 90.094 129.907 94.352 129.907 94.352 127.777 90.094 127.777"/><rect class="cls-8" x="82.642" y="129.906" width="2.128" height="15.969"/></g></g></svg>