<svg xmlns="http://www.w3.org/2000/svg" width="662" height="423.001" viewBox="0 0 662 423.001"><defs><style>.cls-1{fill:#fff;}.cls-2{fill:#241916;}.cls-3{fill:none;stroke:#241916;stroke-miterlimit:10;stroke-width:2px;}.cls-4{fill:#c8d4d8;}.cls-5{fill:#8eb9df;}</style></defs><g id="レイヤー_2" data-name="レイヤー 2"><g id="レイヤー_1-2" data-name="レイヤー 1"><rect class="cls-1" y="0.001" width="662" height="423"/><path class="cls-2" d="M76.682,20.414A11.72,11.72,0,0,0,74.1,12.505a8.988,8.988,0,0,0-7.2-3.015,8.85,8.85,0,0,0-7.158,3.015,11.86,11.86,0,0,0-2.542,7.909V49.6a11.86,11.86,0,0,0,2.542,7.909,8.848,8.848,0,0,0,7.158,3.012,8.986,8.986,0,0,0,7.2-3.012A11.72,11.72,0,0,0,76.682,49.6ZM84.733,57.93a18.34,18.34,0,0,1-4.191,6.026,18.042,18.042,0,0,1-6.164,3.814,21.913,21.913,0,0,1-14.97,0,18.021,18.021,0,0,1-6.168-3.814A17.769,17.769,0,0,1,49.1,57.93a20.324,20.324,0,0,1-1.508-8.048V20.131A20.329,20.329,0,0,1,49.1,12.08,17.828,17.828,0,0,1,53.24,6.054a18.06,18.06,0,0,1,6.168-3.811,21.913,21.913,0,0,1,14.97,0,18.081,18.081,0,0,1,6.164,3.811,18.4,18.4,0,0,1,4.191,6.026,19.814,19.814,0,0,1,1.552,8.051V49.882a19.809,19.809,0,0,1-1.552,8.048M18.405,68.522H8.05l22.5-58.466H10.12V20.6H.893V1.488H40.812v8.568Z"/><path class="cls-2" d="M99.954,52.616c0,1.243-.622,1.865-1.669,1.865s-1.67-.622-1.67-1.865V49.638c0-1.246.59-1.866,1.67-1.866,1.047,0,1.669.62,1.669,1.866ZM114.813,64.1c0,1.246-.62,1.869-1.67,1.869-1.08,0-1.666-.623-1.666-1.869V61.124c0-1.243.586-1.865,1.666-1.865,1.05,0,1.67.622,1.67,1.865Zm-1.9-18.884h-3.337l-11.032,23.3h3.34Zm-9.883,7.527v-3.24c0-2.945-2.193-4.482-4.747-4.482-2.585,0-4.745,1.537-4.745,4.482v3.24c0,2.946,2.16,4.486,4.745,4.486,2.554,0,4.747-1.54,4.747-4.486m14.859,11.49V61c0-2.946-2.193-4.486-4.748-4.486-2.584,0-4.744,1.54-4.744,4.486v3.24c0,2.945,2.16,4.482,4.744,4.482,2.555,0,4.748-1.537,4.748-4.482"/><polyline class="cls-2" points="140.5 1.001 140.5 69.001 138.5 69.001 138.5 1.001"/><path class="cls-2" d="M535.265,7.209h8.817V9.068h-8.817Zm0-3.375h8.817V5.607h-8.817Zm8.4,6.862c1.118,0,1.929.03,2.514.085a18.461,18.461,0,0,1-.111-2.544V4.605a22.056,22.056,0,0,1,.111-2.63,19.7,19.7,0,0,1-2.852.141h-7.471a17.82,17.82,0,0,1-2.66-.141,19.305,19.305,0,0,1,.111,2.458V8.207a22.228,22.228,0,0,1-.111,2.6,19.529,19.529,0,0,1,2.519-.115Zm-6.021,6.922a15.5,15.5,0,0,1-6.8,5.174,5.163,5.163,0,0,1,1.34,1.546,18.318,18.318,0,0,0,7.582-6.72h2.408a13.241,13.241,0,0,1-2.826,4.085,16.892,16.892,0,0,1-4.866,3.492,5.035,5.035,0,0,1,1.455,1.541,18.432,18.432,0,0,0,2.293-1.541,25.065,25.065,0,0,0,3.415-3.32,17.134,17.134,0,0,0,2.545-4.257h1.6a25.024,25.024,0,0,1-.927,6.231c-.2.429-.529.575-1.451.575a20.5,20.5,0,0,1-3.109-.287,5.267,5.267,0,0,1,.645,2.146c1.063.055,1.763.085,2.212.085a6.605,6.605,0,0,0,2.206-.256,2.54,2.54,0,0,0,1.487-1.8,29.292,29.292,0,0,0,.811-5.376,25.971,25.971,0,0,1,.252-3.118,21.393,21.393,0,0,1-2.686.116h-8.982a13.87,13.87,0,0,0,1.118-1.829h8.393a22.547,22.547,0,0,1,2.741.111V12.156a15.913,15.913,0,0,1-2.741.172H533.95a16.876,16.876,0,0,1-2.544-.146v2.06a17.445,17.445,0,0,1,2.519-.141H535.3a11.337,11.337,0,0,1-4.086,4.2l-.03-1.743a18.471,18.471,0,0,1-2.126,1.143V10.182h.614a18.294,18.294,0,0,1,2.187.116V8.151a14.079,14.079,0,0,1-2.156.116h-.645V4.519a22.017,22.017,0,0,1,.171-3.118h-2.353a22.444,22.444,0,0,1,.166,3.088V8.267h-1.007a13.8,13.8,0,0,1-2.348-.146v2.2a14.718,14.718,0,0,1,2.292-.141h1.063v8.433a14.461,14.461,0,0,1-3.41,1.174l.5,2.348,1.088-.519c1.431-.625,3.526-1.628,4.841-2.373a6.1,6.1,0,0,1,1.093,1.375,16.772,16.772,0,0,0,3.749-3ZM499.5,10.237a55.833,55.833,0,0,1,2.993,11.068l2.156-.8a75.276,75.276,0,0,0-3.023-11.038Zm-1.315,12.7a25.424,25.424,0,0,1-3.274-.172V25.25a20.5,20.5,0,0,1,3.274-.2h18.132a19.2,19.2,0,0,1,3.159.2V22.761a23.259,23.259,0,0,1-3.159.172h-5.935a79.445,79.445,0,0,0,3.527-9.376c.9-2.947.9-2.947,1.148-3.577l-2.488-.8a61.53,61.53,0,0,1-4.479,13.754Zm7.693-17.044H499.1a18.6,18.6,0,0,1-3.164-.2V8.151A23.67,23.67,0,0,1,499.1,7.98h16.031a25.146,25.146,0,0,1,3.275.171V5.693a20.272,20.272,0,0,1-3.275.2h-7.1V3.718a11.985,11.985,0,0,1,.2-2.257h-2.549a13.117,13.117,0,0,1,.2,2.257ZM481.44,23.562a8.524,8.524,0,0,1-1.315.086c-2.493,0-3.864-.887-3.864-2.171a1.458,1.458,0,0,1,1.653-1.431c1.511,0,2.826,1.118,3.526,3.516m-3.919-11.123L485.047,5a5.921,5.921,0,0,0-.781-1.829c-4.171.373-7.949.6-11.476.685l-.025.715a9.771,9.771,0,0,0,.141,1.577c3.048-.146,5.708-.347,8.338-.629l.055.085A111.352,111.352,0,0,1,469.49,17.129a5.959,5.959,0,0,0,1.371,1.8c1.2-.972,2.629-2.09,4.03-3.088A12.193,12.193,0,0,1,482,13.582c3.33,0,5.174,1.748,5.174,4.293a5.426,5.426,0,0,1-3.5,5.173c-.982-3.143-3.078-5-5.763-5a3.565,3.565,0,0,0-3.723,3.431c0,2.458,2.211,4.317,6.181,4.317,5.769,0,9.21-3.547,9.21-7.919,0-3.86-2.993-6.323-7.054-6.323a12.987,12.987,0,0,0-4.952.972ZM445.983,8.378c-1.7.257-3.355.489-5.063.66l-.03.6a10.361,10.361,0,0,0,.141,1.6l4.952-.832-.025,1.431a64.189,64.189,0,0,1-5.879,8.439,6.159,6.159,0,0,0,1.4,1.4c1.456-1.919,3.023-3.748,4.424-5.461l-.116,9.633,1.148.09,1.149-.09c-.055-2.827-.085-5.633-.085-8.434V14.1c2.856-3.093,5.793-4.151,8.312-4.151,2.907,0,4.7,2.06,4.7,5.008,0,3.743-2.236,6.4-8.03,7.148l1.008,2.232c6.3-.917,9.431-4.408,9.431-9.3,0-4.378-2.968-7.264-7-7.264a12.267,12.267,0,0,0-8.368,3.632c.03-3.033.116-6.091.2-9.149l-1.088-.06-1.093.06Zm-19.567-1.4h6.323v1.86h-6.323Zm0-3.345h6.323V5.461h-6.323Zm8.363,1.431a27.088,27.088,0,0,1,.141-3.088,25.514,25.514,0,0,1-2.882.111h-4.811a23.677,23.677,0,0,1-2.8-.111c.055.887.086,1.627.086,2.66V7.92c0,1.088-.031,1.8-.086,2.574.786-.055,1.542-.086,2.716-.086h5.6V23.734c0,.6-.2.776-.983.776a14.47,14.47,0,0,1-2.458-.2,5.325,5.325,0,0,1,.473,2.06c.615.026,1.149.056,1.481.056a6.45,6.45,0,0,0,2.55-.257c.755-.343.977-.887.977-2.262ZM414.355,6.977h5.874v1.86h-5.874Zm0-3.345h5.874V5.461h-5.874Zm0,6.751H419.5c1.088,0,1.96.025,2.71.086-.055-.66-.08-1.345-.08-2.549V4.635c0-1.119.025-1.92.08-2.66a23.507,23.507,0,0,1-2.8.111h-4.362a24.692,24.692,0,0,1-2.857-.111,30.327,30.327,0,0,1,.111,3.118V23.452a22.337,22.337,0,0,1-.166,3.229h2.378a17.693,17.693,0,0,1-.167-3.2Zm14.157,8.922a13.123,13.123,0,0,1,2.378.141V17.532a13.321,13.321,0,0,1-2.378.141h-4.449a16.1,16.1,0,0,0,.167-2.287h3.889a15.31,15.31,0,0,1,2.242.116V13.668a15.575,15.575,0,0,1-2.242.116h-1.4a16.763,16.763,0,0,0,1.426-2.373l-1.819-.489a15.909,15.909,0,0,1-1.541,2.862h-2.655a23.42,23.42,0,0,0-1.794-2.832l-1.733.6a16.853,16.853,0,0,1,1.6,2.232h-1.289a14.9,14.9,0,0,1-2.212-.116V15.5a15.345,15.345,0,0,1,2.242-.116h3.41a16.7,16.7,0,0,1-.166,2.287h-3.723a12.767,12.767,0,0,1-2.347-.141v1.914a14.752,14.752,0,0,1,2.458-.141h3.25a5.663,5.663,0,0,1-2.268,2.942,11.762,11.762,0,0,1-3.919,1.658,5.884,5.884,0,0,1,1.149,1.748,13.047,13.047,0,0,0,4.362-2.317,7.2,7.2,0,0,0,2.187-2.973,11.945,11.945,0,0,0,5.763,4.429,6.939,6.939,0,0,1,.952-1.885,9.481,9.481,0,0,1-5.541-3.6ZM386.9,3.149A73.833,73.833,0,0,0,385.443,17.1a57.718,57.718,0,0,0,.614,8.146l.59.03a4.887,4.887,0,0,0,1.708-.312,58.741,58.741,0,0,1-.615-7.809,71.7,71.7,0,0,1,1.426-13.668,8.178,8.178,0,0,0-2.267-.342m7.441,3.088-.026.569a7.65,7.65,0,0,0,.2,1.6,38.26,38.26,0,0,1,7.023-.685,26.225,26.225,0,0,1,3.662.2,6.2,6.2,0,0,0,.172-1.512l-.056-.776a31.6,31.6,0,0,0-10.972.605m11.7,14.469a30.167,30.167,0,0,1-5.905.6c-3.385,0-4.841-.917-5.345-3.259a3.963,3.963,0,0,0-1.874.6c.363,3.26,2.519,5.063,7.194,5.063a30.475,30.475,0,0,0,6.182-.6l.055-.66a4.712,4.712,0,0,0-.307-1.743m-26.666,2.856A50.42,50.42,0,0,0,370.7,14.9a35.153,35.153,0,0,0,4.811-8.947l-1.426-1.718H359.311V6.519h13.235a29.932,29.932,0,0,1-15.809,16.645l1.481,1.915a34.223,34.223,0,0,0,11.134-8.464,51.575,51.575,0,0,1,7.864,8.7ZM345.96,2.4a19.6,19.6,0,0,1,2.882,4.69l1.622-.886a20.048,20.048,0,0,0-3.017-4.66ZM349.039.856a20.728,20.728,0,0,1,2.937,4.605l1.622-.912A20.335,20.335,0,0,0,350.5,0Zm-15.164,13.3A50.131,50.131,0,0,0,347.416,9.3l-1.173-2.2a42.961,42.961,0,0,1-12.368,4.917V3.2H331.5V20.56c0,2.892,1.763,4.292,6.967,4.292a56.456,56.456,0,0,0,10.716-.831l-.282-2.4a50.567,50.567,0,0,1-10.489.947c-3.613,0-4.534-.776-4.534-2.544Zm-32.3,1.027h22.273V12.665H301.576Zm-20.544-4.776h8.03V11.7c0,7.35-2.322,10.323-8.761,12.182l1.179,2.146c6.575-2,9.96-5.748,9.96-14.157V10.408h5.512v-2.2H291.44V2.63h-2.378V8.207h-8.03V2.776h-2.378V8.207h-5.345v2.2h5.345v7.064h2.378Zm-36.414,4.036a10.226,10.226,0,0,1,1.959-.146h1.738v6.579a18.164,18.164,0,0,1-4.257,3.2l1.038,2.227a9.579,9.579,0,0,1,1.093-.912,27.187,27.187,0,0,0,3.1-2.776,6.683,6.683,0,0,0,2.322,2.257c1.733.973,3.361,1.235,7.864,1.235,3.441,0,7.164-.086,9.653-.2a8.243,8.243,0,0,1,.7-2.4,78.769,78.769,0,0,1-11.249.544c-3.779,0-5.371-.343-6.912-1.431a4.19,4.19,0,0,1-1.315-1.718V15.245a21.318,21.318,0,0,1,.141-2.978,11.987,11.987,0,0,1-2.1.146h-1.622a11.144,11.144,0,0,1-2.156-.146Zm.312-11.326a26.831,26.831,0,0,1,4.393,5.119l1.622-1.547a35.834,35.834,0,0,0-4.478-4.972Zm16,9.663h4.645v2.287h-4.645Zm-1.818,2.292h-4.308V12.786h4.308Zm1.818-6.005h4.645v2.116h-4.645Zm-1.818,2.116h-4.308V9.068h4.308Zm0-5.723V7.406H255a16.256,16.256,0,0,1-2.182-.111,13.557,13.557,0,0,1,.111,1.884v5.779a12.506,12.506,0,0,1-.111,1.859c.756-.061,1.4-.086,2.182-.086h4.116v2.03h-4.731a19.853,19.853,0,0,1-2.74-.116V20.62c.584-.06,1.647-.116,2.74-.116h4.731v.343a15.5,15.5,0,0,1-.2,2.519H261.1a18.32,18.32,0,0,1-.167-2.519V20.5h5.4a17.093,17.093,0,0,1,2.741.141v-2.03a15.284,15.284,0,0,1-2.741.146h-5.4v-2.03h4.5a16.3,16.3,0,0,1,2.182.111,12.352,12.352,0,0,1-.111-1.884V9.265a13.512,13.512,0,0,1,.111-1.97,17.079,17.079,0,0,1-2.182.111h-4.5V5.461h5.285a16.252,16.252,0,0,1,2.771.146V3.577a24.393,24.393,0,0,1-2.937.141h-5.119a12.764,12.764,0,0,1,.192-2.4H258.92a13.611,13.611,0,0,1,.2,2.4h-4.645a23.761,23.761,0,0,1-2.942-.141v2.03a12.37,12.37,0,0,1,2.493-.146ZM230.889,6.977h6.323v1.86h-6.323Zm0-3.345h6.323V5.461h-6.323Zm8.368,1.431a27.137,27.137,0,0,1,.136-3.088,25.449,25.449,0,0,1-2.881.111H231.7a23.529,23.529,0,0,1-2.8-.111c.056.887.081,1.627.081,2.66V7.92c0,1.088-.025,1.8-.081,2.574.781-.055,1.537-.086,2.711-.086h5.6V23.734c0,.6-.2.776-.977.776a14.489,14.489,0,0,1-2.464-.2,5.253,5.253,0,0,1,.474,2.06c.619.026,1.148.056,1.486.056a6.415,6.415,0,0,0,2.544-.257c.756-.343.982-.887.982-2.262ZM218.829,6.977H224.7v1.86h-5.874Zm0-3.345H224.7V5.461h-5.874Zm0,6.751h5.148c1.093,0,1.96.025,2.716.086-.056-.66-.086-1.345-.086-2.549V4.635c0-1.119.03-1.92.086-2.66a23.624,23.624,0,0,1-2.8.111h-4.363a24.746,24.746,0,0,1-2.857-.111,30.084,30.084,0,0,1,.116,3.118V23.452a21.325,21.325,0,0,1-.171,3.229H219a18.3,18.3,0,0,1-.166-3.2Zm14.161,8.922a13.189,13.189,0,0,1,2.378.141V17.532a13.39,13.39,0,0,1-2.378.141h-4.453a16.028,16.028,0,0,0,.171-2.287H232.6a15.269,15.269,0,0,1,2.237.116V13.668a15.543,15.543,0,0,1-2.237.116h-1.4a16.391,16.391,0,0,0,1.425-2.373l-1.818-.489a15.9,15.9,0,0,1-1.537,2.862h-2.66a24.078,24.078,0,0,0-1.788-2.832l-1.738.6a16.579,16.579,0,0,1,1.6,2.232h-1.29a14.781,14.781,0,0,1-2.207-.116V15.5a15.234,15.234,0,0,1,2.237-.116h3.416a17.427,17.427,0,0,1-.172,2.287h-3.718a12.8,12.8,0,0,1-2.352-.141v1.914a14.781,14.781,0,0,1,2.463-.141H226.3a5.667,5.667,0,0,1-2.267,2.942,11.791,11.791,0,0,1-3.915,1.658,5.778,5.778,0,0,1,1.144,1.748,13.1,13.1,0,0,0,4.368-2.317,7.234,7.234,0,0,0,2.181-2.973,11.97,11.97,0,0,0,5.764,4.429,7.2,7.2,0,0,1,.952-1.885,9.48,9.48,0,0,1-5.542-3.6ZM195.558,8.549a16.359,16.359,0,0,1,2.1.146V6.519a12.164,12.164,0,0,1-2.1.146h-1.652V3.859a13.429,13.429,0,0,1,.171-2.63H191.7a18.012,18.012,0,0,1,.167,2.66V6.665H189.85a11.048,11.048,0,0,1-2.433-.171V8.721a14.749,14.749,0,0,1,2.348-.172h1.793a25.945,25.945,0,0,1-4.982,10.041,6.516,6.516,0,0,1,1.234,2.086,25.168,25.168,0,0,0,4.2-8.721c-.086,1.6-.141,3.431-.141,5v6.861a22.224,22.224,0,0,1-.167,3.063h2.378a22.43,22.43,0,0,1-.171-3.063V16.444c0-2.146-.056-3.431-.192-5.2a14.667,14.667,0,0,0,3.1,4.776,7.131,7.131,0,0,1,1.174-1.859,13.675,13.675,0,0,1-3.97-5.608Zm9.542.061a25.1,25.1,0,0,1-9.4,11.32,6.81,6.81,0,0,1,1.482,1.718,28.46,28.46,0,0,0,5.708-5.577,25.408,25.408,0,0,0,3.219-5.406C206,12.756,206,12.756,206,14.1l.025,9.461c0,.544-.252.691-1.259.691a22.584,22.584,0,0,1-3.441-.288,8.4,8.4,0,0,1,.534,2.2c1.284.086,2.1.116,3.023.116,2.655,0,3.244-.459,3.214-2.434L208.012,8.61h1.2a16.081,16.081,0,0,1,2.6.171V6.519a15.862,15.862,0,0,1-2.6.171h-1.2v-2.2a27.576,27.576,0,0,1,.136-3.174h-2.4a20.243,20.243,0,0,1,.2,3.174v2.2h-4.62a19.249,19.249,0,0,1-2.852-.141v2.2a18.771,18.771,0,0,1,2.852-.141ZM170.434,1.6a13.44,13.44,0,0,1,.141,2.343c0,6.322-1.425,11.068-4.564,15.129a18.892,18.892,0,0,1-6.655,5.491,6,6,0,0,1,1.647,2,22.726,22.726,0,0,0,4.842-3.829,19.494,19.494,0,0,0,4-5.662,23.187,23.187,0,0,0,1.96-6.066,23.9,23.9,0,0,0,3.612,8.554,25.281,25.281,0,0,0,7.164,7,7.55,7.55,0,0,1,1.622-2.141,17.673,17.673,0,0,1-2.942-2,24.7,24.7,0,0,1-3.945-4.086,24.792,24.792,0,0,1-3.773-7.864,36.527,36.527,0,0,1-.675-6.323c0-.8.085-2.086.141-2.544Z"/><path class="cls-2" d="M292.645,36.738v.574a49.541,49.541,0,0,1-.821,6.494,65.745,65.745,0,0,1-6.716.675l.378,3.789a55.177,55.177,0,0,1,5.643-1.058,54.179,54.179,0,0,1-3.058,9.093,32.752,32.752,0,0,1-3.275,6.041l3.658,2.055.251-.544c.313-.645.313-.645.469-.932a73.37,73.37,0,0,0,3.783-9.033,70.37,70.37,0,0,0,1.925-6.972c.725-.061,1.2-.1,1.829-.1,2.488,0,3.214.872,3.214,3.824a29.184,29.184,0,0,1-.821,7.33c-.474,1.572-.978,2.181-1.89,2.181a13.01,13.01,0,0,1-4.6-1.284,12.314,12.314,0,0,1,.317,2.73c0,.323-.03.806-.065,1.416a14.427,14.427,0,0,0,4.856.962,3.949,3.949,0,0,0,3.5-1.446c1.516-1.768,2.428-6.166,2.428-11.693,0-2.927-.408-4.468-1.481-5.687a6.029,6.029,0,0,0-4.665-1.7c-.6,0-1.038.03-1.955.06.1-.418.1-.448.222-1.154.443-2.413.443-2.413.534-3.118.095-.484.126-.645.191-1.093l.252-1Zm20.137,2.952a19.03,19.03,0,0,0-2.932-4.015l-2.363,1.255a22.216,22.216,0,0,1,2.9,4.146ZM303.8,38.6a19.245,19.245,0,0,1,2.962,4.277l2.459-1.32a18.133,18.133,0,0,0-2.962-4.206Zm1.547,6.046a20.4,20.4,0,0,1,2.237,3.788,30.589,30.589,0,0,1,2.488,7.23l3.592-1.829a30.926,30.926,0,0,0-5.133-10.8Zm-37.568,4.3h7.411a31.867,31.867,0,0,1,3.652.2V45.318a32.018,32.018,0,0,1-3.652.191h-7.411v-5.5A26.471,26.471,0,0,1,268,36.32h-4.126a28.243,28.243,0,0,1,.216,3.693V60.769h-7.184a40.175,40.175,0,0,1-4.348-.191v3.859a38.284,38.284,0,0,1,4.348-.227h20.016a33.5,33.5,0,0,1,4.191.227V60.578a39.169,39.169,0,0,1-4.257.191h-9.078Zm-38.55-8.418a37.08,37.08,0,0,1,6.02,8.2l3.244-2.282a47.738,47.738,0,0,0-6.236-7.874Zm-6.177,16.836a20.085,20.085,0,0,1-3.153,1.028l1.012,3.925c.786-.388,1.008-.484,2.207-1.033A83.589,83.589,0,0,0,235.5,54.89l-.756-3.371a65.687,65.687,0,0,1-8.1,4.368l-.156-15.325v-.71a28.9,28.9,0,0,1,.156-3.149h-4a30.966,30.966,0,0,1,.252,3.824ZM242.12,36.607a13.343,13.343,0,0,1,.126,2.121q0,9.545-3.406,15.134c-2.3,3.794-5.7,6.393-11.25,8.58a14.882,14.882,0,0,1,2.016,3.184,25.131,25.131,0,0,0,10.559-7.683,24.836,24.836,0,0,0,6.776,7.421,14.252,14.252,0,0,1,2.207-3.663,18.329,18.329,0,0,1-6.872-6.907,23.217,23.217,0,0,0,1.985-4.69,44.151,44.151,0,0,0,1.516-8.968c.282-4.111.282-4.111.313-4.463Zm-29.85-.514a26.07,26.07,0,0,1,.187,3.985V60.966c0,.836-.283.992-1.734.992-.725,0-1.7-.1-3.561-.287a11.541,11.541,0,0,1,.886,3.34c1.638.1,2.172.131,2.927.131,3.814,0,4.761-.741,4.761-3.728V39.983a22.478,22.478,0,0,1,.222-3.89Zm-5.612,2.026a22.381,22.381,0,0,1,.161,3.405V54.441a22.647,22.647,0,0,1-.161,3.436h3.562a20.954,20.954,0,0,1-.157-3.405V41.459a22.1,22.1,0,0,1,.157-3.34ZM193.327,58.235h7.124v3.118h-7.124Zm-.755-2.7c-1.134,0-1.955-.036-2.68-.1a29.269,29.269,0,0,1,.126,2.987V62.7a15.472,15.472,0,0,1-.187,2.861h3.5V64.21h7.124v1h3.436a17.147,17.147,0,0,1-.161-2.891V58.265a21.557,21.557,0,0,1,.131-2.826c-.726.06-1.421.1-2.494.1ZM192.98,43.1c-.756,0-1.073,0-1.637-.03V41.01h11.093v2.056c-.473.03-.851.03-1.481.03h-2.428a7.457,7.457,0,0,1,.161-1.446h-3.406a7.227,7.227,0,0,1,.156,1.446Zm2.458,2.605v1.446H192.29a18.963,18.963,0,0,1-2.555-.126v2.826a17.526,17.526,0,0,1,2.555-.131h3.148v1.607H190.8a15.937,15.937,0,0,1-2.8-.161V54.28a23.327,23.327,0,0,1,2.8-.126h11.855a20.706,20.706,0,0,1,2.74.126V51.162a15.406,15.406,0,0,1-2.74.161h-4.131V49.716h2.9a16.3,16.3,0,0,1,2.489.131V47.021a17.947,17.947,0,0,1-2.489.126h-2.9V45.7h2.428a17.125,17.125,0,0,1,2.771.161V44.285h1.768a21.662,21.662,0,0,1-.1-2.247V40.431a22.96,22.96,0,0,1,.1-2.312,34.123,34.123,0,0,1-3.5.126h-3.214v-.222a10.459,10.459,0,0,1,.161-2.187h-3.753a10.9,10.9,0,0,1,.156,2.217v.192h-3.97a28.242,28.242,0,0,1-3.214-.126,16.5,16.5,0,0,1,.126,2.342v1.7a15.563,15.563,0,0,1-.126,2.317h1.985v1.381a17.792,17.792,0,0,1,2.836-.161Zm-13.844-8.162a33.652,33.652,0,0,1-4.317.161H167.251a34.076,34.076,0,0,1-4.317-.226v4.242a29.435,29.435,0,0,1,4.131-.222H176.8a53.3,53.3,0,0,0-5.516,9.35,48.732,48.732,0,0,0-3.814,12.434h4.982a41.942,41.942,0,0,1,5.86-17.386,21.961,21.961,0,0,1,3.279-4.625Z"/><path class="cls-2" d="M487.139,46.739a21.174,21.174,0,0,0-.947-2.378h7.189a19.248,19.248,0,0,1-1.043,2.378Zm.725,2.766v1.541h-6.242a21.618,21.618,0,0,1-3.214-.161v2.892a22.583,22.583,0,0,1,3.214-.161h6.242v1.607h-8.353a29.185,29.185,0,0,1-3.783-.192v3.215a33.374,33.374,0,0,1,3.814-.2h5.864c-2.524,2.156-5.708,3.567-10.308,4.565a13.161,13.161,0,0,1,1.925,3.083,30.024,30.024,0,0,0,6.428-2.7,17.7,17.7,0,0,0,4.539-3.536c-.1,1.315-.1,1.446-.1,2.186v1.542a24.456,24.456,0,0,1-.187,3.275h3.718a18.257,18.257,0,0,1-.222-3.245V61.651a22.318,22.318,0,0,0-.1-2.282c2.836,2.922,6.4,4.882,11.693,6.363a13.021,13.021,0,0,1,1.8-3.28,26.651,26.651,0,0,1-6.554-1.828,16.2,16.2,0,0,1-4.287-2.575h6.332a32.826,32.826,0,0,1,3.784.2V55.031a27.755,27.755,0,0,1-3.814.192h-8.8V53.616h6.59a23.045,23.045,0,0,1,3.244.161V50.885a22.021,22.021,0,0,1-3.244.161h-6.59V49.505h8.227a22.375,22.375,0,0,1,3.249.161V46.613a28.707,28.707,0,0,1-3.249.126h-3.653c.439-.8.565-1.093,1.164-2.378h3.154c1.541,0,2.771.066,3.748.161V41.308a24.576,24.576,0,0,1-3.562.2h-.881c.695-1,1.2-1.8,1.954-3.089L498.172,37.2a17.393,17.393,0,0,1-2.272,4.308h-1.985V39.222a17.775,17.775,0,0,1,.156-2.508h-3.436a22.405,22.405,0,0,1,.1,2.377v2.414h-2.237V39.091a21.214,21.214,0,0,1,.1-2.377h-3.436a18.026,18.026,0,0,1,.156,2.508v2.283h-1.8a22.891,22.891,0,0,0-2.424-4.212l-3.153,1.219a13.5,13.5,0,0,1,2.146,2.993h-1.013a25.689,25.689,0,0,1-3.592-.2v3.214c1.008-.095,2.207-.161,3.753-.161h3.4c.348.61.695,1.35,1.169,2.378h-3.814a28.352,28.352,0,0,1-3.249-.126v3.053a22.625,22.625,0,0,1,3.249-.161ZM455.45,36.94a23.191,23.191,0,0,1-5.133,5.849,33.7,33.7,0,0,1-7.754,4.852,12.176,12.176,0,0,1,1.764,3.436,39.223,39.223,0,0,0,7.849-5.27,28.973,28.973,0,0,0,5.2-5.622,28.5,28.5,0,0,0,5.516,5.753,37.686,37.686,0,0,0,7.784,4.852,14.11,14.11,0,0,1,1.733-3.537,32.964,32.964,0,0,1-7.94-4.595,22.128,22.128,0,0,1-5.39-5.718ZM459.8,55.223h5.229a32.641,32.641,0,0,1,3.436.161V51.656a31.51,31.51,0,0,1-3.466.161h-5.2V48.638a25.136,25.136,0,0,1,.186-3.471h-3.874a27.558,27.558,0,0,1,.187,3.567V61.843h-4.6V54.1a22.252,22.252,0,0,1,.222-3.632h-3.879a31.408,31.408,0,0,1,.191,3.663v7.713h-1.39a21.357,21.357,0,0,1-3.749-.227v3.859a26.289,26.289,0,0,1,4.036-.227h20.514a26.233,26.233,0,0,1,3.975.227V61.616a25.417,25.417,0,0,1-3.975.227H459.8Zm-47.86-1.673a33.869,33.869,0,0,1,5.139-.161h16.735a33.826,33.826,0,0,1,5.134.161V49.087a30.68,30.68,0,0,1-5.1.221h-16.8a30.68,30.68,0,0,1-5.1-.221Zm-22.187-9.476V40.729A16.208,16.208,0,0,1,389.882,38h-4.131a17.531,17.531,0,0,1,.156,2.862v3.214h-1.859a21.965,21.965,0,0,1-4.1-.227v3.92a31.933,31.933,0,0,1,4.035-.161h1.92v4.725a21.087,21.087,0,0,1-.126,2.766h4.1a19.937,19.937,0,0,1-.126-2.7V47.606h8.161c-.065,2.221-.065,2.992-.126,3.7-.282,3.693-1.2,5.814-3.34,7.713a14.558,14.558,0,0,1-6.02,3.053,9.512,9.512,0,0,1,2.363,3.406A17.484,17.484,0,0,0,396.94,62.1c2.741-2.378,4.1-5.109,4.539-9.225a40.167,40.167,0,0,0,.222-5.269h2.111a31.933,31.933,0,0,1,4.035.161v-3.92a22.026,22.026,0,0,1-4.1.227h-2.015c.03-1.93.03-1.93.03-3.889A12.4,12.4,0,0,1,401.887,38h-4.065a21.833,21.833,0,0,1,.156,3.6v1.028l-.031,1.446Zm19.95-3.118a17.337,17.337,0,0,0-2.02-4.242l-2.207.836a24.444,24.444,0,0,1,1.955,4.368Zm-7.693-2.283a20.481,20.481,0,0,1,2.02,4.534l2.333-.9a17.022,17.022,0,0,0-2.051-4.469ZM349.155,53.55a33.834,33.834,0,0,1,5.134-.161h16.736a33.885,33.885,0,0,1,5.139.161V49.087a30.694,30.694,0,0,1-5.1.221h-16.8a30.694,30.694,0,0,1-5.1-.221ZM338.969,40.86a11.748,11.748,0,0,1-3.5.322H326.3a17.169,17.169,0,0,1-3.5-.257v4.081a20.791,20.791,0,0,1,3.526-.191h9.834a128.066,128.066,0,0,1-1.985,13.174h-11a22.29,22.29,0,0,1-4.131-.227v4.051a30.58,30.58,0,0,1,4.065-.162h19.039a30.392,30.392,0,0,1,4.035.162V57.762a22.115,22.115,0,0,1-4.1.227h-3.718c.821-4.822,1.169-7.1,1.925-12.792a8.535,8.535,0,0,1,.659-2.665Z"/><path class="cls-2" d="M480.739,137.5h1.035l5.713-17.043h-1.032Zm-11.685-12.058a8.211,8.211,0,0,1,1.272.093v-1.161a8.791,8.791,0,0,1-1.254.09H468v-1.887a8.125,8.125,0,0,1,.1-1.648h-1.272a14.063,14.063,0,0,1,.1,1.667v1.868h-1.342a6.081,6.081,0,0,1-1.465-.108v1.2a7.6,7.6,0,0,1,1.429-.111h1.206a16.827,16.827,0,0,1-3.168,6.618,3.425,3.425,0,0,1,.689,1.053,17.612,17.612,0,0,0,2.738-5.893c-.051,1-.087,1.94-.087,3.336v4.678a15.064,15.064,0,0,1-.1,1.886h1.272a12.522,12.522,0,0,1-.1-1.886v-4.913c-.036-2.1-.036-2.2-.12-3.444a9.4,9.4,0,0,0,2.03,3.243,3.571,3.571,0,0,1,.62-.978,8.892,8.892,0,0,1-2.461-3.7Zm6.11.018a16.226,16.226,0,0,1-5.972,7.382,3.961,3.961,0,0,1,.773.924,17.256,17.256,0,0,0,5.647-7.073l.033,8.505c0,.364-.153.436-.929.436a12.878,12.878,0,0,1-2.013-.183,4.426,4.426,0,0,1,.277,1.179c.686.054,1.29.09,1.892.09,1.516,0,1.859-.252,1.841-1.414l-.051-9.846h.81a7.861,7.861,0,0,1,1.567.111v-1.215a8.947,8.947,0,0,1-1.567.108h-.81v-1.522a16.749,16.749,0,0,1,.087-1.959H475.51a19.16,19.16,0,0,1,.1,1.959v1.522H472.6a10.778,10.778,0,0,1-1.739-.09v1.179a13.131,13.131,0,0,1,1.739-.093Zm-20.692-4.278a13.457,13.457,0,0,1,.069,1.558c0,4.353-1.152,7.8-3.5,10.445a11.936,11.936,0,0,1-3.442,2.666,3.406,3.406,0,0,1,.894,1.053,14.086,14.086,0,0,0,6.7-10.193,15.5,15.5,0,0,0,6.664,10.193,3.835,3.835,0,0,1,.878-1.107,12.892,12.892,0,0,1-1.946-1.4,14.6,14.6,0,0,1-2.513-2.81,16.1,16.1,0,0,1-2.169-4.988,25.726,25.726,0,0,1-.379-3.845,12.234,12.234,0,0,1,.1-1.576Z"/><path class="cls-2" d="M617.8,151.342a22.653,22.653,0,0,0,1.875-2.976c1.757-.072,3.513-.2,5.267-.343l.037-.544-.052-.617c-1.549.181-3.168.328-4.717.418.292-.707.671-1.579,1-2.4a3.156,3.156,0,0,0-1.207-.306,25.416,25.416,0,0,1-1.031,2.737q-1.318.054-2.636.054c-.481,0-.981,0-1.462-.018l-.051.563.051.635c1.2-.018,2.377-.054,3.562-.112a17.45,17.45,0,0,1-4.131,5.353,2.461,2.461,0,0,0,.689.923c2.72-2.5,4.2-3.3,5.319-3.3.828,0,1.207.253,1.411,1.5-3.15,1.45-4.233,2.9-4.233,4.426,0,1.7,1.24,2.665,4.408,2.665a26.812,26.812,0,0,0,4.819-.472v-.145a4.259,4.259,0,0,0-.156-1.179,17.8,17.8,0,0,1-4.648.635c-2.512,0-3.34-.563-3.34-1.721,0-1.017,1.017-2.013,3.307-3.12.033.906.051,1.814.051,3.12l.55.054.6-.054c-.015-1.381-.051-2.4-.135-3.592a41.319,41.319,0,0,1,4.94-1.541,3.682,3.682,0,0,0-.4-1.305c-1.6.508-3.219,1.125-4.718,1.721a2.2,2.2,0,0,0-2.238-2.013,5.629,5.629,0,0,0-2.684,1Zm-4.684,7.271a36.991,36.991,0,0,0-5.457-5.587,21.2,21.2,0,0,0,3.08-5.764l-.773-.945h-9.125v1.2h8.334a19.2,19.2,0,0,1-9.883,10.86l.74,1.017a21.611,21.611,0,0,0,6.938-5.457,29.242,29.242,0,0,1,5.009,5.584ZM595.115,143.98a15.585,15.585,0,0,1,1.842,2.972l.929-.544a13.127,13.127,0,0,0-1.943-2.918Zm-1.892,1.05A10.678,10.678,0,0,1,595,148.041l.93-.526a11.755,11.755,0,0,0-1.86-2.991Zm-7.678,7.419a28.674,28.674,0,0,0,8.4-3.084l-.74-1.179a23.332,23.332,0,0,1-7.66,3.1v-5.659h-1.224v11.152c0,1.613,1.05,2.467,4.115,2.467a31.531,31.531,0,0,0,6.661-.527l-.138-1.251a31.722,31.722,0,0,1-6.592.562c-2.256,0-2.822-.49-2.822-1.615Zm-18,.595h13.634v-1.305H567.543ZM555.77,150h5.217v.743c0,4.949-1.516,7.055-5.49,8.159l.55,1.107c3.992-1.161,6.162-3.571,6.162-9.086V150h3.459v-1.161h-3.459v-3.571h-1.222v3.571H555.77v-3.481h-1.221v3.481h-3.357V150h3.357v4.642h1.221Zm-21.5,2.629a5.855,5.855,0,0,1,1.239-.09h1.12v4.3a11.855,11.855,0,0,1-2.72,2.157l.568,1.161.653-.58a20.031,20.031,0,0,0,1.98-1.832,4.251,4.251,0,0,0,1.4,1.471c1.065.653,2.082.833,4.8.833,2.136,0,4.39-.054,5.957-.126a4.575,4.575,0,0,1,.394-1.306,44.84,44.84,0,0,1-6.8.343c-2.392,0-3.39-.217-4.371-.978a2.365,2.365,0,0,1-.828-1.161v-3.481a13.469,13.469,0,0,1,.088-1.868,9.34,9.34,0,0,1-1.291.09h-.878a6.394,6.394,0,0,1-1.309-.09Zm.223-7.163a17.469,17.469,0,0,1,2.635,3.228l.86-.8a23.159,23.159,0,0,0-2.719-3.156Zm9.642,6.164h3.08v1.631h-3.08Zm-.948,1.634h-2.822v-1.631h2.822Zm.948-4.007h3.08v1.522h-3.08Zm-.948,1.522h-2.822v-1.522h2.822Zm0-3.809v1.4h-2.548a9.563,9.563,0,0,1-1.327-.072,7.7,7.7,0,0,1,.069,1.179v3.589a7.156,7.156,0,0,1-.069,1.162,9.572,9.572,0,0,1,1.327-.072h2.548v1.468h-2.96a9.231,9.231,0,0,1-1.706-.091v1.089c.361-.036,1.035-.072,1.706-.072h2.96v.343a10.725,10.725,0,0,1-.12,1.6h1.17a10.751,10.751,0,0,1-.1-1.6v-.343h3.39a11.629,11.629,0,0,1,1.688.091v-1.108a9.118,9.118,0,0,1-1.67.091h-3.408v-1.468h2.8a13.129,13.129,0,0,1,1.326.072,7.513,7.513,0,0,1-.069-1.162v-3.571a8.2,8.2,0,0,1,.069-1.2,9.868,9.868,0,0,1-1.326.072h-2.8v-1.4h3.321a11.341,11.341,0,0,1,1.7.091v-1.105a13.25,13.25,0,0,1-1.754.091h-3.27a8.567,8.567,0,0,1,.12-1.595h-1.188a10.64,10.64,0,0,1,.12,1.595h-2.945a13.043,13.043,0,0,1-1.772-.091v1.105a9.617,9.617,0,0,1,1.6-.091Zm-24.191.909h3.872v1.342h-3.872Zm0-2.124h3.872v1.306h-3.872Zm0,4.3h3.186c.74,0,1.324.018,1.7.054-.033-.346-.052-.941-.052-1.63v-1.941c0-.581.019-1.306.052-1.688a13.927,13.927,0,0,1-1.721.073h-2.53a14.964,14.964,0,0,1-1.757-.073,18.832,18.832,0,0,1,.069,1.959v11.643a13.994,13.994,0,0,1-.1,1.994h1.254a12.743,12.743,0,0,1-.1-1.994Zm7.4-2.175h4.181v1.342h-4.181Zm0-2.124h4.181v1.306h-4.181Zm1.447,9.9a10.127,10.127,0,0,1,1.5.09V154.7a8.025,8.025,0,0,1-1.5.09H525a12.529,12.529,0,0,0,.12-1.576h2.428a9.221,9.221,0,0,1,1.444.072v-1.017a7.8,7.8,0,0,1-1.444.091H526.6a14.584,14.584,0,0,0,.93-1.595l-.93-.289a10.947,10.947,0,0,1-1,1.884h-1.738a14.725,14.725,0,0,0-1.186-1.866l-.863.361a12.219,12.219,0,0,1,1.035,1.5h-.879a7.07,7.07,0,0,1-1.429-.091v1.017a8.853,8.853,0,0,1,1.447-.072h2.151a13.3,13.3,0,0,1-.1,1.576H521.66a7.907,7.907,0,0,1-1.5-.09v1.05a10.841,10.841,0,0,1,1.531-.09h2.155c-.467,1.543-1.637,2.467-3.96,3.138a3.05,3.05,0,0,1,.62.923c2.341-.851,3.562-1.9,4.131-3.535a7.7,7.7,0,0,0,3.857,2.976l-.346-.054a2.889,2.889,0,0,1,.24,1.1c.587.054,1.138.072,1.586.072,1.36,0,1.651-.271,1.651-1.468v-12a16.178,16.178,0,0,1,.088-1.959,15.311,15.311,0,0,1-1.793.073h-2.84a13.954,13.954,0,0,1-1.7-.073c.033.437.051,1,.051,1.688v1.941c0,.779-.018,1.248-.051,1.63q.514-.054,1.7-.054h3.5v8.7c0,.4-.138.526-.6.526a9.222,9.222,0,0,1-1.465-.126,4.57,4.57,0,0,1,.517-1,6.307,6.307,0,0,1-3.736-2.5ZM512.2,153.39c-1.032,1.36-3.668,2.666-6.285,3.156a2.347,2.347,0,0,1,.569.96,14.707,14.707,0,0,0,6.663-3.409Zm-8.144-5.929a9.147,9.147,0,0,1,.087,1.54v6.983a10.122,10.122,0,0,1-.1,1.814h1.17a12.049,12.049,0,0,1-.087-1.814v-7.019a8.553,8.553,0,0,1,.087-1.5Zm10.087,7.6a7.6,7.6,0,0,1-2.235,1.923,17.818,17.818,0,0,1-6.456,2.394,4.073,4.073,0,0,1,.568,1.014,18.119,18.119,0,0,0,8.4-4.043l.671-.56Zm-2.873-2.319.208-.145-.864-.725c-.755.906-2.855,1.847-4.852,2.211a3.245,3.245,0,0,1,.583.942,14.158,14.158,0,0,0,4.579-2.031Zm-9.573,5.583a17.881,17.881,0,0,1-.1,2.2H502.8c-.054-.508-.069-1.2-.069-2.214V148.64a24.393,24.393,0,0,0,1.255-3.228,6.161,6.161,0,0,1,.258-.743l-1.152-.328a17.672,17.672,0,0,1-3.565,7.509,4.728,4.728,0,0,1,.707.978,10.945,10.945,0,0,0,1.516-2.63c-.036.707-.054,1.724-.054,2.612Zm10.656-11.315a6.646,6.646,0,0,1-1.928,2.431,7.329,7.329,0,0,1-1.962-2.431Zm2.756-1.068a8.971,8.971,0,0,1-1.721.109h-4.6c.292-.545.361-.689.74-1.486l-1.086-.292a9.827,9.827,0,0,1-3.063,4.8,1.847,1.847,0,0,1,.774.653,10.954,10.954,0,0,0,1.687-2.049A8.127,8.127,0,0,0,509.654,150a12.3,12.3,0,0,1-4.131,1.739,3.378,3.378,0,0,1,.532.926,14.01,14.01,0,0,0,4.357-2.066,13.368,13.368,0,0,0,4.783,2.139,4.775,4.775,0,0,1,.485-1.053,12.094,12.094,0,0,1-4.495-1.7,8.766,8.766,0,0,0,2.289-2.976,13.58,13.58,0,0,1,1.637.091Zm-23.6.217h2.738v4.931h-2.738v-4.931Zm-1.068,0v4.931h-.517a12.6,12.6,0,0,1-1.67-.09v1.233a12.608,12.608,0,0,1,1.67-.09h.484c-.156,3.664-.947,5.893-2.719,7.672a3.124,3.124,0,0,1,.962.8c1.878-2.214,2.669-4.588,2.822-8.469h2.774v6.384a12.8,12.8,0,0,1-.12,1.9h1.305a12.959,12.959,0,0,1-.12-1.9v-6.384h.554a9.483,9.483,0,0,1,1.684.108v-1.269a9.909,9.909,0,0,1-1.684.108h-.554v-4.931h.415a11.983,11.983,0,0,1,1.634.09v-1.2a9.819,9.819,0,0,1-1.685.111H490.36a8.759,8.759,0,0,1-1.721-.111v1.2a13.756,13.756,0,0,1,1.655-.09Zm-6.026,5.475h2.1v5.548h-2.1Zm.088-5.457a14.369,14.369,0,0,1-2.91,7.29,3.633,3.633,0,0,1,.62,1.071,8.421,8.421,0,0,0,1.24-2.16c-.036.725-.051,1.323-.051,1.994V158.3a10.376,10.376,0,0,1-.106,1.724h1.137v-1.886h2.082v.887h1.068a11.93,11.93,0,0,1-.069-1.486v-5.493a11.6,11.6,0,0,1,.054-1.414,7.288,7.288,0,0,1-1.053.054h-2.115a19.646,19.646,0,0,0,1.186-4.516h1.035a10.2,10.2,0,0,1,1.378.072v-1.179a6.931,6.931,0,0,1-1.43.111H483.82a7.849,7.849,0,0,1-1.514-.111v1.215a7.685,7.685,0,0,1,1.445-.108Zm-8.117,9.955h-8.108v-1.522h8.108Zm0-2.467h-8.108v-1.468h8.108Zm0,3.409v1.651c0,.437-.1.509-.74.509a15.819,15.819,0,0,1-2.151-.148,3.154,3.154,0,0,1,.24,1.071c1.291.037,1.962.055,2.031.055,1.258,0,1.67-.343,1.67-1.4v-5.786a17,17,0,0,1,.069-1.865,12.135,12.135,0,0,1-1.823.072h-6.577a15.8,15.8,0,0,1-1.961-.072,14.838,14.838,0,0,1,.084,1.7v5.548a16.362,16.362,0,0,1-.1,2.033h1.239a17.288,17.288,0,0,1-.087-1.958V157.07Zm-4.784-11.095h-4.943a10.494,10.494,0,0,1-1.738-.109v1.177a14.436,14.436,0,0,1,1.7-.091H469.9a13.684,13.684,0,0,1-1.481,2.251c-.568.018-.929.018-1.1.018a16.334,16.334,0,0,1-1.859-.073l.2,1.159c.174-.018.379-.036.758-.054,4.338-.091,7.473-.271,10.587-.6a19.5,19.5,0,0,1,1.567,1.4l.773-.815a30.2,30.2,0,0,0-4.371-3.1l-.828.577a15.558,15.558,0,0,1,1.809,1.126c-2.41.2-4.528.309-6.336.328a18.519,18.519,0,0,0,1.465-2.215h7.091a14.313,14.313,0,0,1,1.688.091v-1.177a10.466,10.466,0,0,1-1.739.109h-5.458v-.437a6.525,6.525,0,0,1,.106-1.287H471.5a8.007,8.007,0,0,1,.105,1.287Zm-19.768,4.169a19.8,19.8,0,0,1-4.339,2.994,2.662,2.662,0,0,1,.671.8c.755-.436,1.222-.725,1.841-1.143H453.3a8.945,8.945,0,0,1-1.36,1.305h-.412a5.872,5.872,0,0,1,.066,1.2v.108c-1.119.126-2.735.235-3.3.235l-.551-.018.19,1.143a5.166,5.166,0,0,1,.809-.108l1.754-.163c.241-.018.62-.054,1.1-.111v2.358c0,.325-.084.4-.412.4a9.687,9.687,0,0,1-1.79-.184,6.385,6.385,0,0,1,.189,1.125c.533.036,1.017.054,1.411.054,1.291,0,1.6-.216,1.6-1.179v-2.7c.965-.126,1.636-.234,3.047-.508v-1c-1.308.271-1.808.364-3.047.527v-.653a13.614,13.614,0,0,0,1.79-1.706l.156-.18.1-.109.069-.072.051-.072-.551-.617a5.055,5.055,0,0,1-1.2.072h-1.859a19.247,19.247,0,0,0,1.979-1.8h1.48a5.974,5.974,0,0,1,1.135.072v-1.031a5.737,5.737,0,0,1-1.135.072h-.655a22.655,22.655,0,0,0,2.584-3.556l-1.017-.524a14.1,14.1,0,0,1-2.771,4.08h-.55v-2.031h.929a7.23,7.23,0,0,1,1.05.054v-1.017a7.28,7.28,0,0,1-1.1.073H452.2v-.653a5.221,5.221,0,0,1,.084-1.306h-1.17a8.116,8.116,0,0,1,.105,1.306v.653h-1.309a6.95,6.95,0,0,1-1.378-.091V147.3a8.412,8.412,0,0,1,1.36-.072h1.327v2.031h-1.9a6.661,6.661,0,0,1-1.463-.109v1.068a10.061,10.061,0,0,1,1.463-.072Zm8.742-1.63a15.024,15.024,0,0,1-1.549,5.984,18.009,18.009,0,0,1-1.48-5.025c.138-.382.189-.526.328-.959Zm2.187-1.071a8.646,8.646,0,0,1-1.618.108h-2.96c.138-.49.309-1.179.583-2.265l.036-.22.069-.235.085-.325-1.153-.255a11.4,11.4,0,0,1-.379,2.25,14.144,14.144,0,0,1-2.5,5.71,2.865,2.865,0,0,1,.758.761,11.669,11.669,0,0,0,1.225-2.049,19.316,19.316,0,0,0,1.513,4.606,12.078,12.078,0,0,1-4.356,3.9,2.974,2.974,0,0,1,.794.978,14.631,14.631,0,0,0,4.113-3.842,13.189,13.189,0,0,0,3.339,3.842,3.07,3.07,0,0,1,.809-1,11.668,11.668,0,0,1-3.528-3.79,16.692,16.692,0,0,0,2-7.106,6.066,6.066,0,0,1,1.17.108Z"/><path class="cls-2" d="M580.51,171.109c-3.219,2.1-4.112,4.046-4.112,6.221,0,2.9,2,4.913,6.351,5.584a3.951,3.951,0,0,0,.328-1.45c-4.029-.563-5.491-2.049-5.491-4.3,0-1.67.861-3.52,3.252-5.061a9.527,9.527,0,0,1,3.632-1.287l.018-.325a4.693,4.693,0,0,0-.1-.855c-4.287.346-8.348.762-12.894,1.2l-.018.31a3.4,3.4,0,0,0,.156,1.013c3.478-.526,6.3-.887,8.866-1.125Zm-20.31,6.838c0,3.9,1.965,5.111,4.3,5.111,2.494,0,4.579-1.176,6.49-5.057l-.93-1.125c-1.67,3.7-3.409,4.952-5.56,4.952-1.928,0-3.08-1.053-3.08-3.935v-.819c0-2.193.12-4.913.309-8.2a2.462,2.462,0,0,0-.809-.126l-.553.054c-.085,2.993-.172,5.731-.172,8.2Zm-9.555-3.665a31.453,31.453,0,0,1-1.342-5.929l-.24-.018a2.158,2.158,0,0,0-.966.237,34.907,34.907,0,0,0,1.534,6.273c-2.238,1.4-3.408,3.12-3.408,4.678,0,2.085,1.582,3.409,5.129,3.409a32.189,32.189,0,0,0,5.68-.491l.018-.288a3.7,3.7,0,0,0-.156-1.071,30.506,30.506,0,0,1-5.629.562c-2.753,0-3.839-.905-3.839-2.121,0-1.269.93-2.665,3-3.845a30.136,30.136,0,0,1,5.749-2.373,2.25,2.25,0,0,0-.361-1.27,37.6,37.6,0,0,0-5.166,2.247m-15.135-2.737h5.68v1.378h-5.68Zm0-2.139h5.68v1.269h-5.68Zm5.2,4.386c.656,0,1.24.021,1.55.057a10.877,10.877,0,0,1-.07-1.6v-2.23a13.425,13.425,0,0,1,.07-1.633,13.621,13.621,0,0,1-1.757.093H536.06a9.113,9.113,0,0,1-1.6-.093,12.544,12.544,0,0,1,.069,1.561v2.3c0,.689-.036,1.161-.069,1.615a12.682,12.682,0,0,1,1.531-.075Zm-9.967-1.36h-.689a8.726,8.726,0,0,1-1.48-.09v1.179a11,11,0,0,1,1.447-.09h.722v5.078a8.368,8.368,0,0,1-2.187.87l.31,1.251c.277-.144.586-.291.914-.454a26.563,26.563,0,0,0,3.493-2.031l-.069-1.053a12.336,12.336,0,0,1-1.429.909v-4.57h.415c.43,0,1.014.036,1.393.072V172.36a9.036,9.036,0,0,1-1.393.072h-.415v-2.446a13.82,13.82,0,0,1,.105-1.976h-1.239a16.692,16.692,0,0,1,.1,1.958Zm6.577,5.659a10.043,10.043,0,0,1-4.251,3.589,3.9,3.9,0,0,1,.722.837,12.072,12.072,0,0,0,4.63-4.426h1.669a10.255,10.255,0,0,1-4.681,5.021,3.166,3.166,0,0,1,.773.837,13.636,13.636,0,0,0,3.445-3.174,10.83,10.83,0,0,0,1.5-2.684h1.12a20.2,20.2,0,0,1-.361,3.391c-.223,1.071-.343,1.215-1.014,1.215a12.283,12.283,0,0,1-2-.18,3.248,3.248,0,0,1,.328,1.14c.566.054,1.065.072,1.462.072,1.17,0,1.567-.18,1.892-.815a18.6,18.6,0,0,0,.725-4.733,6.343,6.343,0,0,1,.1-1.049,12.889,12.889,0,0,1-1.67.072h-5.578a9.953,9.953,0,0,0,.776-1.306h5.163a15.683,15.683,0,0,1,1.67.072v-1.125a8.921,8.921,0,0,1-1.67.108h-7.211a7.481,7.481,0,0,1-1.55-.108v1.161a7.616,7.616,0,0,1,1.532-.108h1.017a8.512,8.512,0,0,1-3.908,3.752,2.794,2.794,0,0,1,.67.8,11.431,11.431,0,0,0,2.858-2.356Zm-22.693-4.624a36.066,36.066,0,0,1,1.844,7.055l1.1-.454a44.5,44.5,0,0,0-1.826-7.019Zm-.963,8.177a13.858,13.858,0,0,1-1.946-.108v1.36a10.538,10.538,0,0,1,1.946-.127h11.225a9.5,9.5,0,0,1,1.859.127v-1.36a12.379,12.379,0,0,1-1.859.108h-3.893a48.457,48.457,0,0,0,2.256-6.2c.466-1.577.517-1.76.671-2.139l-1.291-.473a39.5,39.5,0,0,1-2.84,8.812Zm4.871-10.734h-4.287a9.664,9.664,0,0,1-1.875-.126v1.341a12.29,12.29,0,0,1,1.875-.108h9.883a13.291,13.291,0,0,1,1.943.108v-1.341a10.587,10.587,0,0,1-1.943.126h-4.5v-1.45a8.57,8.57,0,0,1,.12-1.45h-1.342a8.336,8.336,0,0,1,.121,1.45Zm-13.7,11.17a6.468,6.468,0,0,1-.893.055c-1.637,0-2.549-.617-2.549-1.5a1,1,0,0,1,1.087-1c1,0,1.859.779,2.355,2.448m-3.029-6.835,4.958-5.1a2.384,2.384,0,0,0-.413-1.014c-2.53.235-4.75.379-6.919.433l-.018.382a4.5,4.5,0,0,0,.087.816c2.013-.091,3.631-.235,5.319-.419l.033.055a76.963,76.963,0,0,1-7.4,7.6,2.47,2.47,0,0,0,.722.942c.777-.689,1.67-1.414,2.633-2.121a7.326,7.326,0,0,1,4.254-1.324c2.118,0,3.252,1.125,3.252,2.846a3.568,3.568,0,0,1-2.29,3.427c-.634-1.995-1.928-3.189-3.51-3.189a2.1,2.1,0,0,0-2.188,2.048c0,1.523,1.36,2.63,3.77,2.63,3.409,0,5.494-2.251,5.494-4.952,0-2.374-1.845-3.863-4.2-3.863a7.745,7.745,0,0,0-3.547.854Zm-14.471-.635a1.806,1.806,0,0,1,1.706,2.031,1.619,1.619,0,0,1-1.586,1.793,1.706,1.706,0,0,1-1.7-1.955c0-1.144.635-1.869,1.583-1.869m2.289,3.662c-.328,1.994-1.841,3.592-4.666,4.533l.638,1.072c3.048-1.053,5.009-3.048,5.009-6a6.2,6.2,0,0,0-.653-2.759c-.069-1.086-.087-2.193-.105-3.337,2.067-.054,4.064-.09,5.924-.108l.051-.544-.088-.671c-1.874.075-3.853.129-5.869.2.018-.761.018-1.706.051-2.521l-.6-.072-.6.072c.033.852.051,1.8.069,2.557-2.548.091-5.027.163-7.524.253l-.051.527.087.67c2.443-.144,5.009-.27,7.488-.343,0,.762.015,1.541.051,2.266a2.434,2.434,0,0,0-1.6-.491,2.726,2.726,0,0,0-2.549,2.883,2.814,2.814,0,0,0,2.771,3.137,2.379,2.379,0,0,0,2.1-1.341Zm-17.963-4.405v3.153H467.1c.054-.743.054-.833.069-1.976,0-.145,0-.653.018-1.177Zm1.05,0h4.94v3.156h-4.94Zm-1.05-1.017H467.2l.015-1v-2.142h4.444Zm1.05-3.137h4.94v3.137h-4.94Zm0,8.324h4.94v4.025c0,.455-.154.545-.9.545a19.692,19.692,0,0,1-2.41-.2,4.792,4.792,0,0,1,.259,1.162c.689.054,1.516.09,2.085.09,1.651,0,2.031-.253,2.031-1.4V170.329a15.917,15.917,0,0,1,.069-1.739,14.865,14.865,0,0,1-1.79.073h-9.074a15.99,15.99,0,0,1-1.859-.073c.051.8.069,1.252.069,2.955a42.925,42.925,0,0,1-.532,8.559,7.184,7.184,0,0,1-1.36,3.008,4.3,4.3,0,0,1,.981.783,11.487,11.487,0,0,0,1.808-5.858h4.63v3.373a15.533,15.533,0,0,1-.088,1.94H472.8a15.758,15.758,0,0,1-.084-1.94Zm-11.989-9.883a18.151,18.151,0,0,1,.1,2.23v11.642c0,.455-.12.545-.809.545a15.52,15.52,0,0,1-2.169-.184,5.211,5.211,0,0,1,.346,1.18c.514.036,1.29.072,1.754.072,1.567,0,1.979-.325,1.979-1.577V170.384a14.722,14.722,0,0,1,.121-2.23Zm-4.134.981a13.972,13.972,0,0,1,.1,2.031v6.871a13.106,13.106,0,0,1-.087,2.049h1.258a13.548,13.548,0,0,1-.087-2.067v-6.853a11.638,11.638,0,0,1,.105-2.031Zm-5.3,3.661H449.53a8.052,8.052,0,0,1-1.618-.108V173.9a9.327,9.327,0,0,1,1.6-.111h1.619a14.514,14.514,0,0,1-3.616,5.948,4.287,4.287,0,0,1,.689,1.017,15.07,15.07,0,0,0,3.149-5.385c-.069,1.323-.087,1.814-.087,3.026v3.466a14,14,0,0,1-.12,2.175h1.257a15.837,15.837,0,0,1-.1-2.175v-3.683c-.018-1.359-.036-2.139-.087-3.026a12.5,12.5,0,0,0,2.41,3.535,3.82,3.82,0,0,1,.619-.963,10.271,10.271,0,0,1-2.909-3.935h1.6a8.925,8.925,0,0,1,1.48.093v-1.179a10.279,10.279,0,0,1-1.462.09H452.3v-2.774c.7-.2,1.48-.472,2.22-.761l.154-.054.24-.093.277-.108-.758-.942a20.187,20.187,0,0,1-6.471,1.868,3.684,3.684,0,0,1,.5,1.014,28.618,28.618,0,0,0,2.822-.635Z"/><path class="cls-2" d="M504.771,210.527a3.976,3.976,0,0,0-.851-1.275,4.171,4.171,0,0,0-1.261-.867,3.73,3.73,0,0,0-1.564-.325,3.864,3.864,0,0,0-1.582.325,3.914,3.914,0,0,0-1.258.867,4.075,4.075,0,0,0-1.14,2.858,4.08,4.08,0,0,0,1.14,2.858,3.723,3.723,0,0,0,1.258.851,4.041,4.041,0,0,0,1.582.307,3.9,3.9,0,0,0,1.564-.307,3.952,3.952,0,0,0,2.112-2.127,4.271,4.271,0,0,0,0-3.165m-1.074-11.79a3.42,3.42,0,0,0-2.6-1.053,3.367,3.367,0,0,0-2.584,1.053,3.731,3.731,0,0,0-.987,2.654,3.662,3.662,0,0,0,.987,2.656,3.43,3.43,0,0,0,2.584,1.02,3.485,3.485,0,0,0,2.6-1.02,3.625,3.625,0,0,0,1-2.656,3.693,3.693,0,0,0-1-2.654M508,215.121a6.492,6.492,0,0,1-1.6,2.23,7.056,7.056,0,0,1-2.383,1.4,9.246,9.246,0,0,1-5.851,0,6.847,6.847,0,0,1-2.368-1.4,6.609,6.609,0,0,1-1.579-2.23,7.163,7.163,0,0,1-.581-2.942,6.307,6.307,0,0,1,.289-1.973,6.484,6.484,0,0,1,.749-1.583,6.134,6.134,0,0,1,1.056-1.224,7.6,7.6,0,0,1,1.242-.9,6.594,6.594,0,0,1-2.06-1.992,5.6,5.6,0,0,1-.867-3.216,6.7,6.7,0,0,1,.545-2.755,6.31,6.31,0,0,1,1.5-2.109,6.641,6.641,0,0,1,2.226-1.36,8.236,8.236,0,0,1,5.53,0,6.743,6.743,0,0,1,2.262,1.36,6.275,6.275,0,0,1,1.516,2.109,6.75,6.75,0,0,1,.545,2.755,5.576,5.576,0,0,1-.87,3.216,6.554,6.554,0,0,1-2.057,1.992,7.73,7.73,0,0,1,1.242.9,6.026,6.026,0,0,1,1.053,1.224,6.484,6.484,0,0,1,.749,1.583,6.307,6.307,0,0,1,.289,1.973,7.2,7.2,0,0,1-.578,2.942m-22.56-.255h4.152v4.151h-4.152Zm-18.629,4.151v-3.095l9.324-11.333a6.759,6.759,0,0,0,.986-1.58,4.232,4.232,0,0,0,.307-1.651,3.824,3.824,0,0,0-.917-2.654,3.348,3.348,0,0,0-2.621-1.02,4.369,4.369,0,0,0-1.326.2,3.072,3.072,0,0,0-1.141.647,3.2,3.2,0,0,0-.8,1.158,4.392,4.392,0,0,0-.307,1.736h-3.472a7.255,7.255,0,0,1,.53-2.807,6.178,6.178,0,0,1,1.462-2.163,6.669,6.669,0,0,1,2.229-1.378,7.871,7.871,0,0,1,2.825-.493,8.193,8.193,0,0,1,2.858.478,6.261,6.261,0,0,1,2.212,1.36,6.152,6.152,0,0,1,1.429,2.145,7.459,7.459,0,0,1,.511,2.822,5.989,5.989,0,0,1-.581,2.74,13.754,13.754,0,0,1-1.7,2.5l-7.588,9.291H480.9v3.095Zm-11.688,0h-3.742l8.132-21.131h-7.383V201.7H448.8V194.79h14.428v3.1Z"/><path class="cls-2" d="M516.608,218.613l9.711-16.147h-1.191l-9.715,16.147Zm9.84-7.988c1.321,0,1.9,1.17,1.9,3.322,0,2.343-.659,3.429-1.917,3.429-1.107,0-1.961-1-1.961-3.363,0-2.175.812-3.388,1.982-3.388m.085-1.065c-1.9,0-3.43,1.64-3.43,4.558,0,2.792,1.471,4.344,3.282,4.344,1.938,0,3.343-1.51,3.343-4.621,0-2.28-.873-4.281-3.195-4.281m-11.075-6.071c1.342,0,1.917,1.149,1.917,3.3,0,2.344-.683,3.451-1.938,3.451-1.11,0-1.94-1.02-1.94-3.384,0-2.173.809-3.367,1.961-3.367m.106-1.086c-1.9,0-3.43,1.64-3.43,4.558,0,2.792,1.45,4.368,3.279,4.368,1.941,0,3.346-1.555,3.346-4.645,0-2.47-1-4.281-3.2-4.281"/><path class="cls-2" d="M230,137.5h1.035l5.713-17.043h-1.032Zm-11.685-12.058a8.224,8.224,0,0,1,1.273.093v-1.161a8.8,8.8,0,0,1-1.255.09h-1.068v-1.887a8.035,8.035,0,0,1,.1-1.648h-1.273a14.063,14.063,0,0,1,.1,1.667v1.868h-1.342a6.081,6.081,0,0,1-1.465-.108v1.2a7.613,7.613,0,0,1,1.429-.111h1.207a16.827,16.827,0,0,1-3.168,6.618,3.443,3.443,0,0,1,.689,1.053,17.632,17.632,0,0,0,2.738-5.893c-.052,1-.088,1.94-.088,3.336v4.678a15.064,15.064,0,0,1-.1,1.886h1.273a12.359,12.359,0,0,1-.1-1.886v-4.913c-.036-2.1-.036-2.2-.12-3.444a9.384,9.384,0,0,0,2.031,3.243,3.569,3.569,0,0,1,.619-.978,8.9,8.9,0,0,1-2.461-3.7Zm6.11.018a16.23,16.23,0,0,1-5.971,7.382,4.01,4.01,0,0,1,.773.924,17.272,17.272,0,0,0,5.647-7.073l.033,8.505c0,.364-.154.436-.93.436a12.877,12.877,0,0,1-2.012-.183,4.425,4.425,0,0,1,.276,1.179c.686.054,1.291.09,1.893.09,1.516,0,1.859-.252,1.841-1.414l-.051-9.846h.809a7.861,7.861,0,0,1,1.567.111v-1.215a8.939,8.939,0,0,1-1.567.108h-.809v-1.522a16.749,16.749,0,0,1,.087-1.959h-1.24a18.836,18.836,0,0,1,.1,1.959v1.522H221.86a10.785,10.785,0,0,1-1.739-.09v1.179a13.131,13.131,0,0,1,1.739-.093Zm-20.692-4.278a13.457,13.457,0,0,1,.069,1.558c0,4.353-1.152,7.8-3.5,10.445a11.916,11.916,0,0,1-3.441,2.666,3.39,3.39,0,0,1,.893,1.053,14.086,14.086,0,0,0,6.7-10.193,15.506,15.506,0,0,0,6.664,10.193A3.852,3.852,0,0,1,212,135.8a12.945,12.945,0,0,1-1.946-1.4,14.6,14.6,0,0,1-2.512-2.81,16.079,16.079,0,0,1-2.169-4.988,25.6,25.6,0,0,1-.379-3.845,12.444,12.444,0,0,1,.1-1.576Z"/><path class="cls-2" d="M414.28,160.951h1.032l5.716-17.043h-1.035Zm-8.072-6.129a6.485,6.485,0,0,1,.1-1.4h-1.272a6.917,6.917,0,0,1,.084,1.414v3.917c0,.616.138.887.55,1.034a6.453,6.453,0,0,0,2.326.235c1.739,0,2.53-.126,2.891-.49.412-.379.653-1.252.809-2.846a5.038,5.038,0,0,1-1.068-.455,5,5,0,0,1-.448,2.341c-.222.307-.686.379-2.271.379-1.514,0-1.7-.072-1.7-.6Zm-4.546-1.414a5.768,5.768,0,0,1,.051.707,4.676,4.676,0,0,1-2.563,4.372,7.13,7.13,0,0,1-2.274.815,4.333,4.333,0,0,1,.74,1.122,7.6,7.6,0,0,0,3.959-2.482,6.371,6.371,0,0,0,1.276-3.772,5.67,5.67,0,0,1,.084-.743Zm-3.39,1.559v-2.374h11.91v2.374h1.155a7.929,7.929,0,0,1-.069-1.234V152.72a7.491,7.491,0,0,1,.069-1.18,14.822,14.822,0,0,1-1.687.072H398.822a15.045,15.045,0,0,1-1.688-.072,7.6,7.6,0,0,1,.07,1.2v1.013a7.828,7.828,0,0,1-.07,1.216Zm5.319-8.613h-4.649a10.44,10.44,0,0,1-1.877-.109v1.216a12.168,12.168,0,0,1,1.877-.109h4.649v1.833h-3.65a9.146,9.146,0,0,1-1.775-.112v1.18a14.456,14.456,0,0,1,1.775-.091h8.59a10.835,10.835,0,0,1,1.79.091v-1.18a9.311,9.311,0,0,1-1.79.112h-3.89v-1.833h5.06a11.869,11.869,0,0,1,1.826.109v-1.216a10.1,10.1,0,0,1-1.841.109h-5.045v-.343a8.976,8.976,0,0,1,.1-1.634h-1.255a9.99,9.99,0,0,1,.1,1.634Zm-21.144,10.68a15.131,15.131,0,0,0,1.188,2.467,4.538,4.538,0,0,1,.825-.635,10.3,10.3,0,0,1-1.171-2.248Zm-1.67-.4a7.091,7.091,0,0,1-1.757,2.99,2.906,2.906,0,0,1,.843.743,9.268,9.268,0,0,0,1.808-3.261Zm.19-3.954h2.7v2.467h-2.7Zm0-3.3h2.7v2.377h-2.7Zm0-3.246h2.7v2.32h-2.7Zm2.34,9.955a13.774,13.774,0,0,1,1.378.054c-.036-.325-.054-.887-.054-1.576v-7.943a13.236,13.236,0,0,1,.054-1.5,12.116,12.116,0,0,1-1.465.054h-1.808c-.689,0-1.152-.018-1.513-.054.033.289.069.906.069,1.577v7.8c0,.725-.018,1.266-.051,1.648a9.759,9.759,0,0,1,1.324-.054Zm9.432-5.511a15.212,15.212,0,0,1-2.1,4.876,12.886,12.886,0,0,1-1.79-4.876Zm-4.871,0a15.146,15.146,0,0,0,2.1,5.8,10.752,10.752,0,0,1-3.959,3.174,3.76,3.76,0,0,1,.809.962,14.379,14.379,0,0,0,3.77-3.246,12.667,12.667,0,0,0,3.445,3.1,4.024,4.024,0,0,1,.722-1.032,10.478,10.478,0,0,1-3.5-2.975,18.315,18.315,0,0,0,2.515-5.512,4.412,4.412,0,0,1,.241-.671l-.587-.671a7.419,7.419,0,0,1-1.393.091h-4.856l.018-1.7v-1.489h5.629a12,12,0,0,1,1.619.093v-1.252a10.047,10.047,0,0,1-1.652.109h-4.925a13.553,13.553,0,0,1-1.79-.09c.051.634.069,1.158.069,2.157,0,7.379-.43,10.171-1.877,12.292a3.1,3.1,0,0,1,.861.764c1.359-2.178,1.91-4.789,2.033-9.9Zm-20.8.761a22.649,22.649,0,0,0,1.874-2.976c1.757-.072,3.514-.2,5.268-.343l.036-.544-.051-.617c-1.55.181-3.168.328-4.718.418.292-.707.671-1.579,1-2.4a3.156,3.156,0,0,0-1.206-.306,25.625,25.625,0,0,1-1.032,2.737q-1.319.054-2.635.054c-.482,0-.981,0-1.463-.018l-.051.563.051.635c1.2-.018,2.377-.054,3.562-.112a17.447,17.447,0,0,1-4.13,5.353,2.44,2.44,0,0,0,.689.923c2.719-2.5,4.2-3.3,5.319-3.3.827,0,1.206.253,1.411,1.5-3.15,1.45-4.233,2.9-4.233,4.426,0,1.7,1.239,2.665,4.407,2.665a26.823,26.823,0,0,0,4.82-.472v-.145a4.221,4.221,0,0,0-.157-1.179,17.8,17.8,0,0,1-4.648.635c-2.512,0-3.339-.563-3.339-1.721,0-1.017,1.017-2.013,3.306-3.12.033.906.051,1.814.051,3.12l.551.054.6-.054c-.016-1.381-.052-2.4-.136-3.592a41.319,41.319,0,0,1,4.94-1.541,3.662,3.662,0,0,0-.4-1.305c-1.6.508-3.219,1.125-4.717,1.721A2.2,2.2,0,0,0,369.8,150.4a5.622,5.622,0,0,0-2.683,1Zm-4.685,7.271a36.991,36.991,0,0,0-5.457-5.587A21.17,21.17,0,0,0,360,147.262l-.773-.945h-9.125v1.2h8.333a19.206,19.206,0,0,1-9.882,10.86l.74,1.017a21.608,21.608,0,0,0,6.937-5.457,29.242,29.242,0,0,1,5.009,5.584Zm-18-14.633a15.581,15.581,0,0,1,1.841,2.972l.93-.544a13.166,13.166,0,0,0-1.944-2.918Zm-1.893,1.05a10.678,10.678,0,0,1,1.772,3.011l.93-.526a11.724,11.724,0,0,0-1.859-2.991Zm-7.677,7.419a28.679,28.679,0,0,0,8.4-3.084l-.74-1.179a23.336,23.336,0,0,1-7.659,3.1v-5.659H333.58v11.152c0,1.613,1.05,2.467,4.116,2.467a31.542,31.542,0,0,0,6.661-.527l-.139-1.251a31.712,31.712,0,0,1-6.591.562c-2.257,0-2.822-.49-2.822-1.615Zm-18,.595h13.634v-1.305H316.8ZM305.03,150h5.217v.743c0,4.949-1.517,7.055-5.491,8.159l.551,1.107c3.992-1.161,6.161-3.571,6.161-9.086V150h3.46v-1.161h-3.46v-3.571h-1.221v3.571H305.03v-3.481h-1.222v3.481h-3.357V150h3.357v4.642h1.222Zm-21.5,2.629a5.86,5.86,0,0,1,1.24-.09h1.119v4.3a11.813,11.813,0,0,1-2.72,2.157l.569,1.161.653-.58a20.024,20.024,0,0,0,1.979-1.832,4.26,4.26,0,0,0,1.4,1.471c1.065.653,2.082.833,4.8.833,2.136,0,4.389-.054,5.957-.126a4.544,4.544,0,0,1,.394-1.306,44.855,44.855,0,0,1-6.8.343c-2.391,0-3.39-.217-4.371-.978a2.363,2.363,0,0,1-.827-1.161v-3.481a13.655,13.655,0,0,1,.087-1.868,9.329,9.329,0,0,1-1.291.09h-.878a6.394,6.394,0,0,1-1.309-.09Zm.223-7.163a17.389,17.389,0,0,1,2.635,3.228l.861-.8a23.232,23.232,0,0,0-2.72-3.156Zm9.642,6.164h3.081v1.631H293.39Zm-.948,1.634H289.62v-1.631h2.822Zm.948-4.007h3.081v1.522H293.39Zm-.948,1.522H289.62v-1.522h2.822Zm0-3.809v1.4h-2.548a9.582,9.582,0,0,1-1.327-.072,7.563,7.563,0,0,1,.07,1.179v3.589a7.031,7.031,0,0,1-.07,1.162,9.572,9.572,0,0,1,1.327-.072h2.548v1.468h-2.96a9.238,9.238,0,0,1-1.706-.091v1.089c.361-.036,1.035-.072,1.706-.072h2.96v.343a10.725,10.725,0,0,1-.12,1.6h1.17a10.751,10.751,0,0,1-.1-1.6v-.343h3.391a11.613,11.613,0,0,1,1.687.091v-1.108a9.112,9.112,0,0,1-1.669.091H293.39v-1.468h2.8a13.168,13.168,0,0,1,1.327.072,7.513,7.513,0,0,1-.069-1.162v-3.571a8.2,8.2,0,0,1,.069-1.2,9.883,9.883,0,0,1-1.327.072h-2.8v-1.4h3.321a11.332,11.332,0,0,1,1.7.091v-1.105a13.25,13.25,0,0,1-1.754.091h-3.27a8.567,8.567,0,0,1,.12-1.595h-1.188a10.64,10.64,0,0,1,.12,1.595H289.5a13.043,13.043,0,0,1-1.772-.091v1.105a9.623,9.623,0,0,1,1.6-.091Zm-24.191.909h3.872v1.342h-3.872Zm0-2.124h3.872v1.306h-3.872Zm0,4.3h3.186c.74,0,1.324.018,1.7.054-.033-.346-.051-.941-.051-1.63v-1.941c0-.581.018-1.306.051-1.688a13.917,13.917,0,0,1-1.721.073h-2.53a14.975,14.975,0,0,1-1.757-.073,18.832,18.832,0,0,1,.069,1.959v11.643a13.994,13.994,0,0,1-.1,1.994h1.255a12.58,12.58,0,0,1-.1-1.994Zm7.4-2.175h4.182v1.342h-4.182Zm0-2.124h4.182v1.306h-4.182Zm1.447,9.9a10.127,10.127,0,0,1,1.5.09V154.7a8.025,8.025,0,0,1-1.5.09h-2.84a12.7,12.7,0,0,0,.121-1.576h2.427a9.213,9.213,0,0,1,1.444.072v-1.017a7.8,7.8,0,0,1-1.444.091h-.947a14.422,14.422,0,0,0,.929-1.595l-.929-.289a11.017,11.017,0,0,1-1,1.884h-1.739a14.825,14.825,0,0,0-1.185-1.866l-.864.361a12.109,12.109,0,0,1,1.035,1.5h-.878a7.07,7.07,0,0,1-1.429-.091v1.017a8.845,8.845,0,0,1,1.447-.072H273.4a13.065,13.065,0,0,1-.1,1.576H270.92a7.907,7.907,0,0,1-1.5-.09v1.05a10.83,10.83,0,0,1,1.531-.09h2.154c-.466,1.543-1.637,2.467-3.959,3.138a3.087,3.087,0,0,1,.62.923c2.34-.851,3.562-1.9,4.13-3.535a7.7,7.7,0,0,0,3.857,2.976l-.346-.054a2.889,2.889,0,0,1,.241,1.1c.586.054,1.137.072,1.585.072,1.36,0,1.652-.271,1.652-1.468v-12a16.406,16.406,0,0,1,.087-1.959,15.3,15.3,0,0,1-1.793.073h-2.84a13.975,13.975,0,0,1-1.7-.073c.033.437.051,1,.051,1.688v1.941c0,.779-.018,1.248-.051,1.63.343-.036.912-.054,1.7-.054h3.5v8.7c0,.4-.139.526-.6.526a9.232,9.232,0,0,1-1.465-.126,4.616,4.616,0,0,1,.518-1,6.31,6.31,0,0,1-3.737-2.5Zm-15.638-2.266c-1.032,1.36-3.667,2.666-6.285,3.156a2.337,2.337,0,0,1,.569.96,14.71,14.71,0,0,0,6.664-3.409Zm-8.144-5.929A9.147,9.147,0,0,1,253.4,149v6.983a10.122,10.122,0,0,1-.1,1.814h1.17a12.049,12.049,0,0,1-.087-1.814v-7.019a8.553,8.553,0,0,1,.087-1.5Zm10.088,7.6a7.6,7.6,0,0,1-2.236,1.923,17.818,17.818,0,0,1-6.456,2.394,4.072,4.072,0,0,1,.569,1.014,18.11,18.11,0,0,0,8.4-4.043l.671-.56Zm-2.874-2.319.208-.145-.863-.725c-.755.906-2.855,1.847-4.853,2.211a3.249,3.249,0,0,1,.584.942,14.167,14.167,0,0,0,4.579-2.031Zm-9.572,5.583a17.844,17.844,0,0,1-.1,2.2h1.207c-.055-.508-.07-1.2-.07-2.214V148.64a24.393,24.393,0,0,0,1.255-3.228,5.949,5.949,0,0,1,.259-.743l-1.153-.328a17.66,17.66,0,0,1-3.565,7.509,4.691,4.691,0,0,1,.707.978,10.95,10.95,0,0,0,1.517-2.63c-.036.707-.054,1.724-.054,2.612Zm10.656-11.315a6.65,6.65,0,0,1-1.929,2.431,7.338,7.338,0,0,1-1.961-2.431Zm2.755-1.068a8.964,8.964,0,0,1-1.721.109h-4.6c.291-.545.361-.689.74-1.486l-1.086-.292a9.841,9.841,0,0,1-3.063,4.8,1.849,1.849,0,0,1,.773.653,11,11,0,0,0,1.688-2.049A8.123,8.123,0,0,0,258.913,150a12.292,12.292,0,0,1-4.131,1.739,3.378,3.378,0,0,1,.533.926,13.994,13.994,0,0,0,4.356-2.066,13.381,13.381,0,0,0,4.784,2.139,4.773,4.773,0,0,1,.484-1.053,12.121,12.121,0,0,1-4.5-1.7,8.782,8.782,0,0,0,2.29-2.976,13.575,13.575,0,0,1,1.636.091Zm-23.595.217h2.738v4.931h-2.738v-4.931Zm-1.068,0v4.931h-.518a12.579,12.579,0,0,1-1.669-.09v1.233a12.579,12.579,0,0,1,1.669-.09h.485c-.157,3.664-.948,5.893-2.72,7.672a3.139,3.139,0,0,1,.963.8c1.877-2.214,2.668-4.588,2.822-8.469h2.774v6.384a12.792,12.792,0,0,1-.121,1.9H244.7a12.959,12.959,0,0,1-.12-1.9v-6.384h.553a9.5,9.5,0,0,1,1.685.108v-1.269a9.922,9.922,0,0,1-1.685.108h-.553v-4.931h.415a11.966,11.966,0,0,1,1.633.09v-1.2a9.806,9.806,0,0,1-1.684.111H239.62a8.753,8.753,0,0,1-1.721-.111v1.2a13.726,13.726,0,0,1,1.654-.09Zm-6.026,5.475h2.1v5.548h-2.1Zm.087-5.457a14.369,14.369,0,0,1-2.909,7.29,3.677,3.677,0,0,1,.62,1.071,8.445,8.445,0,0,0,1.239-2.16c-.036.725-.051,1.323-.051,1.994V158.3a10.4,10.4,0,0,1-.1,1.724H233.7v-1.886h2.082v.887h1.068a11.93,11.93,0,0,1-.069-1.486v-5.493a11.6,11.6,0,0,1,.054-1.414,7.3,7.3,0,0,1-1.053.054h-2.115a19.643,19.643,0,0,0,1.185-4.516h1.035a10.186,10.186,0,0,1,1.378.072v-1.179a6.914,6.914,0,0,1-1.429.111h-2.756a7.837,7.837,0,0,1-1.513-.111v1.215a7.666,7.666,0,0,1,1.444-.108Zm-8.117,9.955h-8.108v-1.522h8.108Zm0-2.467h-8.108v-1.468h8.108Zm0,3.409v1.651c0,.437-.1.509-.74.509a15.819,15.819,0,0,1-2.151-.148,3.155,3.155,0,0,1,.241,1.071c1.29.037,1.961.055,2.03.055,1.258,0,1.67-.343,1.67-1.4v-5.786a17,17,0,0,1,.069-1.865,12.135,12.135,0,0,1-1.823.072h-6.576a15.8,15.8,0,0,1-1.962-.072,14.838,14.838,0,0,1,.084,1.7v5.548a16.362,16.362,0,0,1-.1,2.033h1.24a17,17,0,0,1-.088-1.958V157.07Zm-4.783-11.095h-4.943a10.508,10.508,0,0,1-1.739-.109v1.177a14.442,14.442,0,0,1,1.706-.091h3.27a13.678,13.678,0,0,1-1.48,2.251c-.569.018-.93.018-1.1.018a16.342,16.342,0,0,1-1.86-.073l.2,1.159c.174-.018.379-.036.758-.054,4.338-.091,7.473-.271,10.587-.6a19.329,19.329,0,0,1,1.567,1.4l.774-.815a30.214,30.214,0,0,0-4.372-3.1l-.827.577a15.622,15.622,0,0,1,1.808,1.126c-2.41.2-4.528.309-6.336.328a18.519,18.519,0,0,0,1.465-2.215h7.091a14.3,14.3,0,0,1,1.688.091v-1.177a10.458,10.458,0,0,1-1.739.109h-5.457v-.437a6.612,6.612,0,0,1,.105-1.287h-1.276a7.875,7.875,0,0,1,.106,1.287ZM201.1,150.144a19.823,19.823,0,0,1-4.338,2.994,2.677,2.677,0,0,1,.671.8c.755-.436,1.221-.725,1.841-1.143h3.288a8.945,8.945,0,0,1-1.36,1.305h-.412a5.872,5.872,0,0,1,.066,1.2v.108c-1.119.126-2.734.235-3.3.235L197,155.62l.19,1.143a5.182,5.182,0,0,1,.809-.108l1.754-.163c.241-.018.62-.054,1.1-.111v2.358c0,.325-.084.4-.412.4a9.7,9.7,0,0,1-1.79-.184,6.387,6.387,0,0,1,.19,1.125c.532.036,1.017.054,1.411.054,1.29,0,1.6-.216,1.6-1.179v-2.7c.966-.126,1.637-.234,3.048-.508v-1c-1.309.271-1.808.364-3.048.527v-.653a13.552,13.552,0,0,0,1.79-1.706l.157-.18.1-.109.069-.072.051-.072-.55-.617a5.071,5.071,0,0,1-1.2.072H200.41a19.258,19.258,0,0,0,1.98-1.8h1.48a5.969,5.969,0,0,1,1.134.072v-1.031a5.732,5.732,0,0,1-1.134.072h-.656A22.591,22.591,0,0,0,205.8,145.7l-1.017-.524a14.115,14.115,0,0,1-2.77,4.08h-.551v-2.031h.93a7.249,7.249,0,0,1,1.05.054v-1.017a7.291,7.291,0,0,1-1.1.073h-.876v-.653a5.221,5.221,0,0,1,.084-1.306h-1.17a8.116,8.116,0,0,1,.105,1.306v.653h-1.308a6.942,6.942,0,0,1-1.378-.091V147.3a8.412,8.412,0,0,1,1.36-.072h1.326v2.031h-1.9a6.65,6.65,0,0,1-1.462-.109v1.068a10.043,10.043,0,0,1,1.462-.072Zm8.743-1.63a15.025,15.025,0,0,1-1.55,5.984,18.009,18.009,0,0,1-1.48-5.025c.139-.382.19-.526.328-.959Zm2.187-1.071a8.651,8.651,0,0,1-1.619.108h-2.96c.138-.49.31-1.179.584-2.265l.036-.22.069-.235.084-.325-1.152-.255a11.4,11.4,0,0,1-.379,2.25,14.157,14.157,0,0,1-2.5,5.71,2.881,2.881,0,0,1,.758.761,11.723,11.723,0,0,0,1.224-2.049,19.273,19.273,0,0,0,1.514,4.606,12.073,12.073,0,0,1-4.357,3.9,2.988,2.988,0,0,1,.795.978,14.626,14.626,0,0,0,4.112-3.842,13.207,13.207,0,0,0,3.34,3.842,3.045,3.045,0,0,1,.809-1,11.66,11.66,0,0,1-3.529-3.79,16.692,16.692,0,0,0,2-7.106,6.075,6.075,0,0,1,1.17.108Z"/><path class="cls-2" d="M331.125,171.111c-3.219,2.1-4.113,4.043-4.113,6.218,0,2.9,2,4.913,6.351,5.584a3.914,3.914,0,0,0,.328-1.45c-4.028-.562-5.49-2.049-5.49-4.3,0-1.67.86-3.52,3.252-5.06a9.572,9.572,0,0,1,3.631-1.288l.018-.325a4.682,4.682,0,0,0-.1-.854c-4.287.346-8.349.764-12.895,1.2l-.018.31a3.285,3.285,0,0,0,.157,1.014c3.478-.527,6.3-.888,8.866-1.122Zm-20.31,6.835c0,3.9,1.961,5.115,4.305,5.115,2.494,0,4.579-1.18,6.489-5.061l-.93-1.125c-1.669,3.7-3.408,4.952-5.559,4.952-1.929,0-3.084-1.053-3.084-3.935v-.815c0-2.2.12-4.916.31-8.2a2.421,2.421,0,0,0-.809-.127l-.551.054c-.084,2.994-.171,5.732-.171,8.2Zm-9.561-3.664a31.376,31.376,0,0,1-1.345-5.927l-.241-.021a2.172,2.172,0,0,0-.963.238,34.939,34.939,0,0,0,1.532,6.272c-2.239,1.4-3.409,3.12-3.409,4.679,0,2.084,1.586,3.408,5.13,3.408a32.5,32.5,0,0,0,5.683-.487l.015-.292a3.733,3.733,0,0,0-.154-1.068,30.76,30.76,0,0,1-5.629.56c-2.755,0-3.838-.906-3.838-2.121,0-1.27.929-2.666,2.993-3.845a30.167,30.167,0,0,1,5.752-2.374,2.251,2.251,0,0,0-.364-1.269,37.426,37.426,0,0,0-5.162,2.247m-15.139-2.738h5.68v1.378h-5.68Zm0-2.139h5.68v1.27h-5.68Zm5.2,4.389c.655,0,1.239.019,1.549.055a11.062,11.062,0,0,1-.069-1.6v-2.229a13.614,13.614,0,0,1,.069-1.631,13.667,13.667,0,0,1-1.754.091h-4.443a9.159,9.159,0,0,1-1.6-.091,12.478,12.478,0,0,1,.069,1.559v2.3c0,.689-.033,1.161-.069,1.616a12.825,12.825,0,0,1,1.531-.073Zm-9.967-1.359h-.689a8.3,8.3,0,0,1-1.481-.094v1.18a10.981,10.981,0,0,1,1.447-.091h.723v5.079a8.278,8.278,0,0,1-2.188.869l.31,1.252c.277-.145.587-.292.915-.455a26.828,26.828,0,0,0,3.493-2.03l-.07-1.05a12.175,12.175,0,0,1-1.429.905v-4.57h.416c.43,0,1.013.037,1.393.073v-1.141a8.89,8.89,0,0,1-1.393.073h-.416v-2.449a13.833,13.833,0,0,1,.106-1.977h-1.24a16.69,16.69,0,0,1,.1,1.959Zm6.576,5.656a10.077,10.077,0,0,1-4.251,3.592,3.769,3.769,0,0,1,.722.833,12.034,12.034,0,0,0,4.63-4.425h1.67a10.267,10.267,0,0,1-4.681,5.024,3.123,3.123,0,0,1,.773.833,13.634,13.634,0,0,0,3.445-3.174,10.908,10.908,0,0,0,1.5-2.683h1.116a20.082,20.082,0,0,1-.361,3.39c-.223,1.071-.343,1.216-1.014,1.216a12.3,12.3,0,0,1-2-.181,3.248,3.248,0,0,1,.328,1.14c.566.057,1.065.076,1.462.076,1.171,0,1.568-.184,1.893-.819a18.6,18.6,0,0,0,.725-4.732,6.286,6.286,0,0,1,.1-1.05,12.879,12.879,0,0,1-1.67.072h-5.577a9.434,9.434,0,0,0,.776-1.306h5.162a15.545,15.545,0,0,1,1.67.073v-1.126a8.8,8.8,0,0,1-1.67.109h-7.211a7.379,7.379,0,0,1-1.549-.109v1.162a7.586,7.586,0,0,1,1.531-.109h1.017a8.512,8.512,0,0,1-3.908,3.752,2.77,2.77,0,0,1,.671.8,11.412,11.412,0,0,0,2.858-2.358Zm-22.69-4.624a35.864,35.864,0,0,1,1.844,7.054l1.1-.454a44.366,44.366,0,0,0-1.826-7.016Zm-.963,8.177a13.863,13.863,0,0,1-1.946-.109v1.36a10.645,10.645,0,0,1,1.946-.126H275.5a9.6,9.6,0,0,1,1.859.126v-1.36a12.355,12.355,0,0,1-1.859.109h-3.89a48.733,48.733,0,0,0,2.253-6.2c.467-1.576.518-1.757.671-2.139l-1.29-.472a39.432,39.432,0,0,1-2.84,8.812Zm4.871-10.735h-4.284a9.667,9.667,0,0,1-1.877-.126v1.342a12.294,12.294,0,0,1,1.877-.109h9.88a13.34,13.34,0,0,1,1.946.109v-1.342a10.645,10.645,0,0,1-1.946.126h-4.492v-1.45a8.225,8.225,0,0,1,.121-1.45h-1.345a8.447,8.447,0,0,1,.12,1.45Zm-13.7,11.171a6.735,6.735,0,0,1-.9.054c-1.637,0-2.548-.617-2.548-1.5a1,1,0,0,1,1.086-1c1,0,1.859.782,2.359,2.449m-3.033-6.835,4.958-5.1a2.4,2.4,0,0,0-.412-1.014c-2.53.235-4.751.379-6.92.434l-.018.382a4.7,4.7,0,0,0,.088.815c2.012-.09,3.631-.235,5.319-.418l.033.057a77.153,77.153,0,0,1-7.4,7.6,2.438,2.438,0,0,0,.722.942c.776-.689,1.669-1.414,2.635-2.121a7.319,7.319,0,0,1,4.251-1.324c2.118,0,3.252,1.125,3.252,2.849a3.571,3.571,0,0,1-2.289,3.427c-.635-2-1.929-3.192-3.511-3.192a2.1,2.1,0,0,0-2.187,2.049c0,1.522,1.36,2.629,3.769,2.629,3.409,0,5.494-2.247,5.494-4.952,0-2.373-1.841-3.86-4.2-3.86a7.741,7.741,0,0,0-3.547.852Zm-14.471-.635a1.805,1.805,0,0,1,1.706,2.03,1.621,1.621,0,0,1-1.585,1.8,1.709,1.709,0,0,1-1.7-1.959c0-1.143.635-1.868,1.582-1.868m2.29,3.661c-.328,2-1.841,3.592-4.666,4.534l.637,1.071c3.048-1.053,5.009-3.048,5.009-6a6.175,6.175,0,0,0-.652-2.756c-.07-1.089-.088-2.2-.1-3.336,2.064-.054,4.062-.09,5.921-.111l.051-.542-.087-.671c-1.874.072-3.854.126-5.87.2.018-.761.018-1.706.052-2.521l-.6-.073-.6.073c.033.851.051,1.8.069,2.557-2.548.09-5.027.162-7.524.252l-.051.527.087.671c2.443-.145,5.009-.271,7.488-.343,0,.761.015,1.54.051,2.265a2.448,2.448,0,0,0-1.6-.49,2.726,2.726,0,0,0-2.548,2.885,2.813,2.813,0,0,0,2.771,3.135,2.378,2.378,0,0,0,2.1-1.342Zm-18.442.617a11.444,11.444,0,0,1-3.719,4.079,4.2,4.2,0,0,1,.894.855,15.629,15.629,0,0,0,3.787-4.263Zm3.3.562A18.042,18.042,0,0,0,229,183.876a5.286,5.286,0,0,1,.827-.981,13.158,13.158,0,0,1-3.805-4.079Zm-7.28-11.787a16.848,16.848,0,0,1-3.821,7.906l.135.184.259.307.171.328.124.2a14.3,14.3,0,0,0,1.754-2.755c-.033.851-.052,1.377-.052,2.157v5.839a17.152,17.152,0,0,1-.1,2.121h1.255c-.051-.436-.085-1.414-.085-2.085v-9.7a21.851,21.851,0,0,0,1.2-3.135c.207-.635.259-.764.346-1Zm4.578,5.1h3.238v4.371h-3.238Zm0-1.032v-2.215a8.662,8.662,0,0,1,.1-1.468h-1.273a9.446,9.446,0,0,1,.1,1.468v2.215h-.842a8.754,8.754,0,0,1-1.567-.112v1.252a8.526,8.526,0,0,1,1.567-.108h.842v4.371H219.91a9.451,9.451,0,0,1-1.618-.108v1.266a9.451,9.451,0,0,1,1.618-.108h8.3a9.541,9.541,0,0,1,1.636.108v-1.266a9.687,9.687,0,0,1-1.636.108H226.7V172.76h1.083a8.414,8.414,0,0,1,1.567.108v-1.252a8.245,8.245,0,0,1-1.567.112H226.7v-2.2a8.906,8.906,0,0,1,.1-1.486h-1.276a8.413,8.413,0,0,1,.106,1.486v2.2Zm-18.433.27h5.629v1.5h-5.629Zm0-2.376h5.629v1.468h-5.629Zm5.094,4.807c.6,0,1.257.018,1.618.054-.051-.616-.069-1.016-.069-1.6v-2.864a9.541,9.541,0,0,1,.069-1.414,12.528,12.528,0,0,1-1.6.072h-4.579a12.782,12.782,0,0,1-1.585-.072c.036.361.054.942.054,1.649v2.557c-.018,1.089-.018,1.089-.054,1.669.345-.036.929-.054,1.516-.054Zm-2.771,7.579a4.783,4.783,0,0,1-2.5-2.121c.12-.382.226-.725.346-1.126a9.346,9.346,0,0,1,.259-.905l-1.086-.274a9.6,9.6,0,0,1-2.753,5.677,3.1,3.1,0,0,1,.875.689,11.823,11.823,0,0,0,1.947-3.066,7,7,0,0,0,1.447,1.49c1.05.8,2.632,1.122,5.388,1.122h1.634a3.246,3.246,0,0,1,.328-1.18c-.963.094-1.911.13-2.771.13a10.736,10.736,0,0,1-2.1-.166v-2.554h2.235a7.613,7.613,0,0,1,1.465.09v-1.125a9.424,9.424,0,0,1-1.465.091H207.3v-2.031h3.011a8.348,8.348,0,0,1,1.5.108v-1.179a8.173,8.173,0,0,1-1.5.111H203.3a9.157,9.157,0,0,1-1.291-.072v-1.035a18.547,18.547,0,0,1-1.826.942v-3.283h.758a6.181,6.181,0,0,1,1.155.076v-1.144a5.775,5.775,0,0,1-1.173.073h-.74V169.7a10.728,10.728,0,0,1,.1-1.76h-1.224a11.558,11.558,0,0,1,.1,1.8v1.613H198.2a6.482,6.482,0,0,1-1.272-.109v1.2a7.136,7.136,0,0,1,1.257-.094h.981v3.719a9.545,9.545,0,0,1-2.359.833l.31,1.18c.379-.2.5-.235.828-.38.652-.273,1.013-.418,1.065-.454l.156-.054v5.075c0,.382-.138.491-.62.491a9.323,9.323,0,0,1-1.6-.145,4.058,4.058,0,0,1,.222,1.126c.587.054.963.072,1.378.072,1.258,0,1.634-.292,1.634-1.252v-5.839c.568-.271,1.17-.563,1.67-.852v.978a6.948,6.948,0,0,1,1.377-.09h3.048Z"/><path class="cls-2" d="M240.74,216.886v-3.1l9.323-11.333a6.83,6.83,0,0,0,.987-1.579,4.293,4.293,0,0,0,.3-1.652,3.809,3.809,0,0,0-.917-2.653,3.349,3.349,0,0,0-2.621-1.02,4.411,4.411,0,0,0-1.327.2,3.114,3.114,0,0,0-1.14.647,3.25,3.25,0,0,0-.8,1.158,4.434,4.434,0,0,0-.3,1.736h-3.472a7.257,7.257,0,0,1,.527-2.807,6.163,6.163,0,0,1,1.465-2.163,6.7,6.7,0,0,1,2.226-1.378,7.894,7.894,0,0,1,2.825-.493,8.169,8.169,0,0,1,2.858.478,6.209,6.209,0,0,1,2.211,1.36,6.1,6.1,0,0,1,1.429,2.145,7.462,7.462,0,0,1,.512,2.822,6.006,6.006,0,0,1-.578,2.741,13.971,13.971,0,0,1-1.7,2.5l-7.587,9.29h9.868v3.1Zm-8.95-4.152h4.152v4.152H231.79Zm-9.3,4.152h-3.743l8.132-21.132h-7.386v3.812h-3.333v-6.907h14.426v3.095Zm-24.429,0v-3.1l9.323-11.333a6.762,6.762,0,0,0,.987-1.579,4.237,4.237,0,0,0,.307-1.652,3.807,3.807,0,0,0-.921-2.653,3.339,3.339,0,0,0-2.617-1.02,4.44,4.44,0,0,0-1.33.2,3.1,3.1,0,0,0-1.137.647,3.2,3.2,0,0,0-.8,1.158,4.377,4.377,0,0,0-.307,1.736h-3.472a7.258,7.258,0,0,1,.53-2.807,6.117,6.117,0,0,1,1.462-2.163,6.675,6.675,0,0,1,2.229-1.378,7.867,7.867,0,0,1,2.825-.493,8.193,8.193,0,0,1,2.858.478,6.28,6.28,0,0,1,2.211,1.36,6.157,6.157,0,0,1,1.429,2.145,7.462,7.462,0,0,1,.509,2.822,6.006,6.006,0,0,1-.578,2.741,13.992,13.992,0,0,1-1.7,2.5l-7.59,9.29h9.868v3.1Z"/><path class="cls-2" d="M262.72,216.48l9.712-16.147H271.24l-9.714,16.147Zm9.841-7.988c1.321,0,1.9,1.17,1.9,3.322,0,2.343-.659,3.429-1.917,3.429-1.107,0-1.961-1-1.961-3.363,0-2.175.812-3.388,1.982-3.388m.084-1.065c-1.895,0-3.429,1.64-3.429,4.558,0,2.792,1.471,4.344,3.282,4.344,1.937,0,3.342-1.51,3.342-4.621,0-2.28-.872-4.281-3.195-4.281m-11.074-6.071c1.342,0,1.917,1.149,1.917,3.3,0,2.344-.683,3.451-1.938,3.451-1.11,0-1.94-1.02-1.94-3.384,0-2.173.809-3.367,1.961-3.367m.106-1.086c-1.9,0-3.43,1.64-3.43,4.558,0,2.792,1.45,4.368,3.279,4.368,1.941,0,3.346-1.555,3.346-4.645,0-2.47-1-4.281-3.195-4.281"/><polyline class="cls-3" points="237 230.001 237 267.001 276 267.001"/><polyline class="cls-3" points="495 230.001 495 267.001 456 267.001"/><path class="cls-4" d="M366.7,311.8,256.918,327.232a110.869,110.869,0,0,1,94.346-125.216,106.38,106.38,0,0,1,15.433-1.077Z"/><path class="cls-5" d="M366.7,311.8V200.939a110.864,110.864,0,0,1,0,221.728c-55.837,0-102.008-40.14-109.779-95.435Z"/><path class="cls-1" d="M430.648,311.8a63.961,63.961,0,1,1-63.961-63.957A63.962,63.962,0,0,1,430.648,311.8"/><path class="cls-2" d="M385.659,289.259a6.232,6.232,0,0,1,1.252-.09h1.05v4.043A11.772,11.772,0,0,1,385.3,295.1l.761,1.669c.166-.147.418-.328.725-.562a16.37,16.37,0,0,0,1.941-1.67,4.137,4.137,0,0,0,1.543,1.36c1.122.6,2.157.743,5.184.743,2.03,0,4.7-.054,6.167-.108a7.246,7.246,0,0,1,.488-1.775,54.694,54.694,0,0,1-7.416.343c-2.338,0-3.391-.2-4.315-.852a2.41,2.41,0,0,1-.851-1.017v-3.679a16.282,16.282,0,0,1,.072-1.9,7.719,7.719,0,0,1-1.36.09h-1.161a7.712,7.712,0,0,1-1.414-.09Zm.127-7.2a17.938,17.938,0,0,1,2.918,3.282l1.251-1.179a22.155,22.155,0,0,0-2.99-3.174Zm10.662,6.092h2.737v1.234h-2.737ZM395,289.389h-2.539v-1.234H395Zm1.451-3.574h2.737v1.161h-2.737ZM395,286.976h-2.539v-1.161H395Zm0-3.445v1.05h-2.611a11.125,11.125,0,0,1-1.432-.072,8.267,8.267,0,0,1,.072,1.233v3.7a7.989,7.989,0,0,1-.072,1.233c.433-.039.942-.057,1.45-.057H395v1.107H392.04a12.646,12.646,0,0,1-1.757-.072v1.45c.4-.036,1.1-.072,1.757-.072H395v.108a9.507,9.507,0,0,1-.126,1.58h1.685a10.625,10.625,0,0,1-.108-1.6v-.09h3.372a10.753,10.753,0,0,1,1.8.09v-1.486a9.985,9.985,0,0,1-1.778.09h-3.39v-1.107h2.846a10.731,10.731,0,0,1,1.432.075,7.541,7.541,0,0,1-.073-1.233v-3.646a8.394,8.394,0,0,1,.073-1.306,11.5,11.5,0,0,1-1.432.072h-2.846v-1.05h3.3a10.235,10.235,0,0,1,1.8.09v-1.486a17.47,17.47,0,0,1-1.941.09h-3.155a8.2,8.2,0,0,1,.108-1.45h-1.685a10.328,10.328,0,0,1,.126,1.45h-2.885a15.865,15.865,0,0,1-1.919-.09v1.486a8.838,8.838,0,0,1,1.522-.09Zm-24.813.978h3.5v1.053h-3.5Zm0-2.085h3.5v1.017h-3.5Zm0,4.3h3.3c.725,0,1.215.018,1.688.054-.018-.382-.036-.89-.036-1.633v-2.266c0-.6.018-1.233.054-1.669a15.173,15.173,0,0,1-1.814.072h-2.994a15.811,15.811,0,0,1-1.829-.072,17.993,17.993,0,0,1,.072,1.976v11.661a14.253,14.253,0,0,1-.108,2.121h1.775a13.365,13.365,0,0,1-.108-2.085Zm7.834-2.214h3.772v1.053h-3.772Zm0-2.085h3.772v1.017h-3.772ZM379.2,292.4a8.337,8.337,0,0,1,1.5.09v-1.4a7.649,7.649,0,0,1-1.5.091h-2.759c.057-.452.057-.635.093-1.288H379a8.384,8.384,0,0,1,1.378.072v-1.323a8.808,8.808,0,0,1-1.378.075h-.779a11.517,11.517,0,0,0,.852-1.417l-1.414-.325a11.848,11.848,0,0,1-.906,1.742h-1.612a14.7,14.7,0,0,0-1.09-1.724l-1.341.4a7.373,7.373,0,0,1,.941,1.324h-.725a8.2,8.2,0,0,1-1.342-.075v1.323a8.408,8.408,0,0,1,1.378-.072H375.1c-.018.671-.036.909-.072,1.288h-2.319a8.011,8.011,0,0,1-1.487-.091v1.4a9.534,9.534,0,0,1,1.559-.09h1.958c-.58,1.378-1.669,2.139-3.844,2.7a4.547,4.547,0,0,1,.851,1.269,6.247,6.247,0,0,0,4.137-3.156,7.7,7.7,0,0,0,3.733,2.63l.184-.506a4.127,4.127,0,0,1,.288,1.45c.4.018.888.037,1.18.037,1.7,0,2.085-.31,2.085-1.76v-11.9c0-.8.018-1.324.072-1.958a15.672,15.672,0,0,1-1.832.072h-3.264a15.092,15.092,0,0,1-1.812-.072c.036.4.055,1.034.055,1.669v2.266c0,.671-.019,1.341-.055,1.633.4-.036.96-.054,1.7-.054h3.574V294.9c0,.4-.111.491-.6.491a7.7,7.7,0,0,1-1.378-.13,6.544,6.544,0,0,1,.451-.833,6.189,6.189,0,0,1-3.5-2.031Zm-23.328-6.853a9.679,9.679,0,0,1,1.36.09v-1.613a9.515,9.515,0,0,1-1.36.091h-1.014v-1.67a10.013,10.013,0,0,1,.109-1.7h-1.8a11.658,11.658,0,0,1,.108,1.721v1.652h-1.158a9.117,9.117,0,0,1-1.634-.109v1.649a9,9,0,0,1,1.558-.108H353.1a17.071,17.071,0,0,1-3.137,6.074,5.124,5.124,0,0,1,.89,1.612,15.839,15.839,0,0,0,2.536-5.147c-.072,1.14-.072,1.176-.072,1.522l-.018.779V295.1a17.218,17.218,0,0,1-.108,1.994h1.778a13.407,13.407,0,0,1-.109-1.994v-4.4a30.61,30.61,0,0,0-.129-3.156,9.471,9.471,0,0,0,1.85,2.774,5.462,5.462,0,0,1,.852-1.378,9.147,9.147,0,0,1-2.5-3.39Zm5.93.036a15.684,15.684,0,0,1-5.876,6.943,5.357,5.357,0,0,1,1.089,1.306,17.848,17.848,0,0,0,5.422-6.4l.036,7.362c.018.361-.145.433-.978.433a13.7,13.7,0,0,1-2.013-.18,7.216,7.216,0,0,1,.4,1.633c.634.054,1.251.072,1.886.072a4.162,4.162,0,0,0,1.706-.219c.451-.253.634-.653.613-1.5l-.054-9.446h.671a11.152,11.152,0,0,1,1.706.108V284.04a10.033,10.033,0,0,1-1.706.108h-.671v-1.27a16.255,16.255,0,0,1,.093-2.067h-1.832a20.169,20.169,0,0,1,.127,2.067v1.27h-2.792a16.4,16.4,0,0,1-1.887-.09v1.612a15.6,15.6,0,0,1,1.869-.09Zm-22.383-4.588a11.867,11.867,0,0,1,.072,1.486c0,4.08-.96,7.091-3.084,9.684a11.938,11.938,0,0,1-4.115,3.265,4.561,4.561,0,0,1,1.215,1.522,14.125,14.125,0,0,0,6.947-9.519,15.572,15.572,0,0,0,6.925,9.519,5.511,5.511,0,0,1,1.2-1.631,9.6,9.6,0,0,1-1.76-1.143,16.207,16.207,0,0,1-2.467-2.359,14.7,14.7,0,0,1-2.612-4.985,17.707,17.707,0,0,1-.487-4.133,13.032,13.032,0,0,1,.108-1.706Z"/><path class="cls-2" d="M396.785,305.421a46.953,46.953,0,0,0-.905,8.848,35.773,35.773,0,0,0,.4,5.241l.487.036a3.853,3.853,0,0,0,1.288-.216,40.228,40.228,0,0,1-.4-5.043,45.631,45.631,0,0,1,.887-8.649,5.8,5.8,0,0,0-1.594-.217Zm4.826,1.905-.018.433a4.389,4.389,0,0,0,.162,1.215,25.738,25.738,0,0,1,4.624-.436,18.049,18.049,0,0,1,2.428.13,3.687,3.687,0,0,0,.13-1.053l-.055-.671a21.777,21.777,0,0,0-7.271.382m7.723,9.064a20.856,20.856,0,0,1-3.881.382c-1.977,0-2.918-.49-3.282-2.066a2.724,2.724,0,0,0-1.451.469c.256,2.232,1.652,3.372,4.715,3.372a21.325,21.325,0,0,0,4.118-.379l.036-.454a3.286,3.286,0,0,0-.255-1.324m-17.052,1.887a30.841,30.841,0,0,0-5.494-5.4,22.432,22.432,0,0,0,2.973-5.565l-1.05-1.216h-9.54v1.7h8.342a18.385,18.385,0,0,1-10.027,10.193l1.161,1.45a21.453,21.453,0,0,0,7.088-5.241,32.67,32.67,0,0,1,4.952,5.385Zm-21.294-13.2a13.131,13.131,0,0,1,1.85,2.94l1.122-.617A12.024,12.024,0,0,0,372,304.5Zm2.012-1a13.436,13.436,0,0,1,1.887,2.882l1.1-.617a12.484,12.484,0,0,0-1.977-2.828Zm-9.558,8.5a34.206,34.206,0,0,0,8.8-3.156L371.3,307.8a28.353,28.353,0,0,1-7.853,3.156v-5.512h-1.829V316.3c0,2.049,1.177,2.975,4.715,2.975a37.145,37.145,0,0,0,6.871-.526l-.217-1.8a33.766,33.766,0,0,1-6.672.6c-2.287,0-2.868-.473-2.868-1.613Zm-21.384.652h14.489v-1.886H342.058ZM329.1,310.226h4.822v.761c0,4.335-1.5,6.2-5.511,7.434l.941,1.579c4.263-1.377,6.384-3.862,6.384-8.9v-.869h3.535v-1.67H335.74v-3.481h-1.814v3.481H329.1v-3.39H327.29v3.39h-3.427v1.67h3.427v4.314H329.1Z"/><path class="cls-2" d="M402.208,331.646h5.422v.978h-5.422Zm0-2.124h5.422v.96h-5.422Zm5.422,4.3a16.152,16.152,0,0,1,1.615.055,11.79,11.79,0,0,1-.075-1.652v-2.356a12.872,12.872,0,0,1,.075-1.706,15.013,15.013,0,0,1-1.886.091h-4.988a11,11,0,0,1-1.757-.091,15.432,15.432,0,0,1,.072,1.58v2.482c-.018.725-.036,1.269-.072,1.67a10.245,10.245,0,0,1,1.613-.073Zm-4.314,4.48a9.96,9.96,0,0,1-4.263,2.972,4.3,4.3,0,0,1,.98,1.144,11.719,11.719,0,0,0,4.913-4.116h1.342a9.794,9.794,0,0,1-5.021,4.585,4.108,4.108,0,0,1,1.086,1.143,13.738,13.738,0,0,0,3.754-2.972,11.372,11.372,0,0,0,1.7-2.756h.873a12.917,12.917,0,0,1-.563,3.7c-.09.217-.364.328-.851.328a15.122,15.122,0,0,1-2.106-.183,4.005,4.005,0,0,1,.508,1.579c.545.036,1.071.054,1.562.054,1.3,0,1.829-.2,2.175-.872a14.806,14.806,0,0,0,.8-4.859,9.99,9.99,0,0,1,.09-1.068,14.485,14.485,0,0,1-1.742.073h-5.764a7.766,7.766,0,0,0,.653-.981h5.421c.87,0,1.45.036,1.814.072v-1.5a10.651,10.651,0,0,1-1.814.108h-7.707a10.621,10.621,0,0,1-1.631-.09v1.5a10.5,10.5,0,0,1,1.612-.09h.689a7.224,7.224,0,0,1-2.464,2.376l.019-1.089c-.527.253-.762.364-1.27.581v-4.389h.361a10.031,10.031,0,0,1,1.342.072v-1.577a8.443,8.443,0,0,1-1.342.073h-.361v-2.3a13.534,13.534,0,0,1,.09-1.976h-1.742a16.548,16.548,0,0,1,.112,1.976v2.3h-.6a10.556,10.556,0,0,1-1.453-.091v1.616a10.359,10.359,0,0,1,1.435-.093h.617v5.006a11.226,11.226,0,0,1-2.088.6l.328,1.757c.307-.126.652-.27,1.05-.433l.689-.292,1.269-.562c.545-.235.635-.289,1.017-.47a4.667,4.667,0,0,1,.635.834,10.053,10.053,0,0,0,2.247-1.685Zm-23.653-4.844a37.915,37.915,0,0,1,1.958,6.983l1.631-.6a53.12,53.12,0,0,0-1.976-6.964Zm-.653,7.889a17.2,17.2,0,0,1-2.214-.109v1.814a13.026,13.026,0,0,1,2.214-.129h11.658a12.149,12.149,0,0,1,2.139.129v-1.814a20.488,20.488,0,0,1-2.139.109H387.1a55.121,55.121,0,0,0,2.449-6.565,9.148,9.148,0,0,1,.523-1.486l-1.922-.581a37.566,37.566,0,0,1-2.774,8.632Zm4.823-10.879h-4.242a14.45,14.45,0,0,1-2.142-.126v1.811a15.59,15.59,0,0,1,2.142-.109h10.37a16.6,16.6,0,0,1,2.193.109v-1.811a15.621,15.621,0,0,1-2.193.126h-4.48v-1.306a7.989,7.989,0,0,1,.13-1.378h-1.9a6.624,6.624,0,0,1,.127,1.4Zm-15.909,11.279a4.685,4.685,0,0,1-.782.054c-1.487,0-2.3-.527-2.3-1.27a.867.867,0,0,1,.978-.851c.909,0,1.724.689,2.106,2.067m-2.031-7.163,4.678-4.444a3.891,3.891,0,0,0-.58-1.324c-2.756.22-5.295.364-7.582.418l-.036.6a5.76,5.76,0,0,0,.109,1.086c1.922-.072,3.538-.18,5.186-.343l.036.054a69.027,69.027,0,0,1-7.524,7,4.618,4.618,0,0,0,1.053,1.363c.743-.581,1.595-1.234,2.392-1.8a8.1,8.1,0,0,1,4.786-1.54c2.085,0,3.264,1.1,3.264,2.608a3.215,3.215,0,0,1-2.1,3.084,3.9,3.9,0,0,0-3.773-3.1,2.4,2.4,0,0,0-2.518,2.286c0,1.613,1.432,2.846,4.025,2.846,3.9,0,6.165-2.247,6.165-5.114,0-2.5-1.941-4.152-4.715-4.152a7.5,7.5,0,0,0-2.828.527Zm-20.626-2.522c-1.107.163-2.193.31-3.282.419l-.018.451a6.427,6.427,0,0,0,.126,1.215l3.156-.487-.018.689a42.819,42.819,0,0,1-3.809,5.367,3.979,3.979,0,0,0,1.107,1.086c.87-1.122,1.814-2.229,2.666-3.246l-.072,5.821a5.8,5.8,0,0,0,.815.054,5.582,5.582,0,0,0,.981-.072c-.036-1.832-.054-3.661-.054-5.583v-1.8a7.211,7.211,0,0,1,5.183-2.575,2.735,2.735,0,0,1,2.849,2.958c0,2.247-1.306,3.841-5.06,4.368l.779,1.688c4.152-.653,6.146-2.849,6.146-6.02a4.418,4.418,0,0,0-4.642-4.66,7.889,7.889,0,0,0-5.219,2.193c.036-1.832.09-3.719.162-5.641a8.084,8.084,0,0,0-.945-.054c-.27,0-.559.018-.815.036Zm-19.483-.652h3.5v1.053h-3.5Zm0-2.085h3.5v1.017h-3.5Zm0,4.3h3.3c.728,0,1.216.021,1.688.057-.018-.382-.036-.891-.036-1.634v-2.265c0-.6.018-1.233.054-1.67a15.119,15.119,0,0,1-1.814.072h-2.99a15.859,15.859,0,0,1-1.832-.072,18.014,18.014,0,0,1,.072,1.977v11.661a14.087,14.087,0,0,1-.109,2.121H325.9a13.256,13.256,0,0,1-.111-2.085Zm7.834-2.211h3.773v1.053h-3.773Zm0-2.085h3.773v1.017h-3.773Zm1.18,9.973a8.323,8.323,0,0,1,1.5.09v-1.4a7.729,7.729,0,0,1-1.5.09h-2.756c.054-.454.054-.634.09-1.287H334.6a8.408,8.408,0,0,1,1.378.072v-1.324a9.294,9.294,0,0,1-1.378.072h-.779a11.862,11.862,0,0,0,.851-1.414l-1.414-.324a11.575,11.575,0,0,1-.908,1.738h-1.613a15.137,15.137,0,0,0-1.089-1.72l-1.342.4a7.806,7.806,0,0,1,.945,1.323h-.725a8.589,8.589,0,0,1-1.342-.072v1.324a8.384,8.384,0,0,1,1.378-.072H330.7c-.018.671-.036.908-.072,1.287h-2.323a8.117,8.117,0,0,1-1.486-.09v1.4a9.543,9.543,0,0,1,1.558-.09h1.959c-.581,1.378-1.667,2.139-3.842,2.7a4.665,4.665,0,0,1,.852,1.27,6.26,6.26,0,0,0,4.133-3.156,7.705,7.705,0,0,0,3.737,2.63l.18-.509a4.136,4.136,0,0,1,.289,1.453c.4.018.891.036,1.179.036,1.706,0,2.085-.31,2.085-1.76V330.067c0-.8.018-1.324.072-1.959a15.6,15.6,0,0,1-1.829.072h-3.264a15.13,15.13,0,0,1-1.814-.072c.036.4.054,1.035.054,1.67v2.265c0,.671-.018,1.342-.054,1.634.4-.036.96-.057,1.706-.057h3.571v8.18c0,.4-.108.487-.6.487a7.991,7.991,0,0,1-1.378-.126,6.362,6.362,0,0,1,.455-.833,6.233,6.233,0,0,1-3.5-2.031Z"/></g></g></svg>