<svg xmlns="http://www.w3.org/2000/svg" xmlns:xlink="http://www.w3.org/1999/xlink" width="294" height="319" viewBox="0 0 294 319"><defs><style>.cls-1,.cls-2,.cls-4,.cls-7{fill:none;}.cls-2{stroke:#fff;stroke-width:0.72px;}.cls-3{fill:#ebebe9;}.cls-4,.cls-7{stroke:#241916;stroke-miterlimit:10;}.cls-5{fill:#241916;}.cls-6{fill:#97a2a8;}.cls-7{stroke-dasharray:1 2;}.cls-8{fill:#514a44;}.cls-9{opacity:0.15;fill:url(#_10_lpi_10_2);}.cls-10{fill:#fff;}.cls-11{opacity:0.55;}.cls-12{clip-path:url(#clip-path);}</style><pattern id="_10_lpi_10_2" data-name="10 lpi 10 % 2" width="72" height="72" patternTransform="translate(228.359 66.324) rotate(-45)" patternUnits="userSpaceOnUse" viewBox="0 0 72 72"><rect class="cls-1" width="72" height="72"/><line class="cls-2" x1="71.75" y1="68.399" x2="144.25" y2="68.399"/><line class="cls-2" x1="71.75" y1="54" x2="144.25" y2="54"/><line class="cls-2" x1="71.75" y1="39.601" x2="144.25" y2="39.601"/><line class="cls-2" x1="71.75" y1="25.2" x2="144.25" y2="25.2"/><line class="cls-2" x1="71.75" y1="10.8" x2="144.25" y2="10.8"/><line class="cls-2" x1="71.75" y1="61.2" x2="144.25" y2="61.2"/><line class="cls-2" x1="71.75" y1="46.8" x2="144.25" y2="46.8"/><line class="cls-2" x1="71.75" y1="32.4" x2="144.25" y2="32.4"/><line class="cls-2" x1="71.75" y1="18" x2="144.25" y2="18"/><line class="cls-2" x1="71.75" y1="3.601" x2="144.25" y2="3.601"/><line class="cls-2" x1="-0.25" y1="68.399" x2="72.25" y2="68.399"/><line class="cls-2" x1="-0.25" y1="54" x2="72.25" y2="54"/><line class="cls-2" x1="-0.25" y1="39.601" x2="72.25" y2="39.601"/><line class="cls-2" x1="-0.25" y1="25.2" x2="72.25" y2="25.2"/><line class="cls-2" x1="-0.25" y1="10.8" x2="72.25" y2="10.8"/><line class="cls-2" x1="-0.25" y1="61.2" x2="72.25" y2="61.2"/><line class="cls-2" x1="-0.25" y1="46.8" x2="72.25" y2="46.8"/><line class="cls-2" x1="-0.25" y1="32.4" x2="72.25" y2="32.4"/><line class="cls-2" x1="-0.25" y1="18" x2="72.25" y2="18"/><line class="cls-2" x1="-0.25" y1="3.601" x2="72.25" y2="3.601"/><line class="cls-2" x1="-72.25" y1="68.399" x2="0.25" y2="68.399"/><line class="cls-2" x1="-72.25" y1="54" x2="0.25" y2="54"/><line class="cls-2" x1="-72.25" y1="39.601" x2="0.25" y2="39.601"/><line class="cls-2" x1="-72.25" y1="25.2" x2="0.25" y2="25.2"/><line class="cls-2" x1="-72.25" y1="10.8" x2="0.25" y2="10.8"/><line class="cls-2" x1="-72.25" y1="61.2" x2="0.25" y2="61.2"/><line class="cls-2" x1="-72.25" y1="46.8" x2="0.25" y2="46.8"/><line class="cls-2" x1="-72.25" y1="32.4" x2="0.25" y2="32.4"/><line class="cls-2" x1="-72.25" y1="18" x2="0.25" y2="18"/><line class="cls-2" x1="-72.25" y1="3.601" x2="0.25" y2="3.601"/></pattern><clipPath id="clip-path"><rect id="SVGID" class="cls-1" x="72" y="67" width="150" height="54.552"/></clipPath></defs><g id="レイヤー_2" data-name="レイヤー 2"><g id="レイヤー_1-2" data-name="レイヤー 1"><rect class="cls-3" width="294" height="319"/><line class="cls-4" x1="274" y1="239.5" x2="21" y2="239.5"/><path class="cls-5" d="M21.82,256.114a6.457,6.457,0,0,0-1.17.078v-.845a5.583,5.583,0,0,0,1.183.078h9.334a5.954,5.954,0,0,0,1.21-.078v.845a6.672,6.672,0,0,0-1.2-.078H26.214v4.928a5.923,5.923,0,0,0,.078,1.208h-.9a7.06,7.06,0,0,0,.078-1.208v-.326c-1.652.3-1.652.3-3.654.573a9.666,9.666,0,0,0-.962.182l-.208-.859h.221c.221,0,.663-.026,1.209-.077v-4.421Zm9.023-2.444A7.4,7.4,0,0,0,30.9,254.7c-.416-.039-.833-.051-1.339-.051H23.6c-.573,0-.937.012-1.405.051a7.81,7.81,0,0,0,.052-1.027V251.9a7.9,7.9,0,0,0-.052-1.04c.442.039.819.052,1.417.052H29.49c.6,0,.962-.013,1.405-.052a7.487,7.487,0,0,0-.052,1.04Zm-8,3.367h2.627v-.923H22.847Zm0,1.573h2.627v-.962H22.847Zm0,1.833c1.105-.116,1.495-.181,2.627-.389v-.832H22.847Zm.169-7.956h7.059v-.91H23.016Zm0,1.534h7.059v-.91H23.016Zm8.606,3.432a3.711,3.711,0,0,0-.233.378,9.209,9.209,0,0,1-1.6,2.235,7.753,7.753,0,0,0,2.51,1.327,3.812,3.812,0,0,0-.494.714,8.975,8.975,0,0,1-2.562-1.534A8.7,8.7,0,0,1,26.994,262a2.156,2.156,0,0,0-.507-.663,7.649,7.649,0,0,0,2.237-1.274,6.58,6.58,0,0,1-1.431-2.378c-.208.012-.363.025-.637.051v-.767a8.1,8.1,0,0,0,1.106.052H30.18a5.763,5.763,0,0,0,.987-.052Zm-3.6.235a5.856,5.856,0,0,0,1.222,1.9,7.658,7.658,0,0,0,1.365-1.9Z"/><path class="cls-5" d="M35.76,257.531a4.747,4.747,0,0,0-1.066.078v-.858a4.8,4.8,0,0,0,1.092.078h1.586v-.689a2.393,2.393,0,0,0-.065-.533h.871a2.392,2.392,0,0,0-.052.533v.689h1.43a5.041,5.041,0,0,0,1.053-.078v.845a5.7,5.7,0,0,0-1.053-.065H38.321a5.5,5.5,0,0,0,1.833,1.652,3.25,3.25,0,0,0-.455.7,6.66,6.66,0,0,1-1.625-1.794c.026.286.039.663.052,1.144v1.886a7.171,7.171,0,0,0,.065,1.117h-.9a7.175,7.175,0,0,0,.078-1.117v-1.847c0-.312.013-.649.039-1.079a7.712,7.712,0,0,1-2.457,2.887,2.631,2.631,0,0,0-.494-.728,8.7,8.7,0,0,0,1.69-1.431,6.131,6.131,0,0,0,.949-1.391Zm2.314-2.9a6.9,6.9,0,0,0,.871-2.132l.78.247a13.779,13.779,0,0,1-.884,1.885h.767a5.7,5.7,0,0,0,1.053-.065v.871a6.063,6.063,0,0,0-1.053-.065H35.747a5.938,5.938,0,0,0-1.079.065v-.871a5.766,5.766,0,0,0,1.079.065Zm1.326-2.99a6,6,0,0,0,1.092-.065v.871a6.62,6.62,0,0,0-1.1-.065H36.059a6.59,6.59,0,0,0-1.131.065v-.871a6.3,6.3,0,0,0,1.144.065h1.3v-.351a4.5,4.5,0,0,0-.065-.91h.949a4.349,4.349,0,0,0-.065.91v.351Zm-2.977,2.873a7.249,7.249,0,0,0-.741-1.742l.689-.26a7.733,7.733,0,0,1,.741,1.755Zm8.905.026a6.587,6.587,0,0,0,1.2-.078v.9a6.758,6.758,0,0,0-1.144-.065H44.9v5.668a6.415,6.415,0,0,0,.079,1.3h-1a8,8,0,0,0,.078-1.3V255.3H42.014v.507a14.28,14.28,0,0,1-.742,4.668,6.774,6.774,0,0,1-.961,1.78,2.754,2.754,0,0,0-.742-.545c1.248-1.535,1.638-3.354,1.638-7.7,0-1.469-.025-2.028-.064-2.405H41.3a12.543,12.543,0,0,0,3.081-.6,4.1,4.1,0,0,0,1.2-.559l.663.728a4.276,4.276,0,0,0-.467.182,15.849,15.849,0,0,1-3.745.962v2.223Z"/><path class="cls-5" d="M53.521,257.792c-.753,1.715-1.52,2.5-2.457,2.5-1.234,0-2.157-1.352-2.157-3.173a5.278,5.278,0,0,1,5.564-5.317,5.033,5.033,0,0,1,3.575,1.287,4.352,4.352,0,0,1,1.262,3.172,4.736,4.736,0,0,1-2.978,4.486,10.063,10.063,0,0,1-1.976.6,2.062,2.062,0,0,0-.455-.87,7.79,7.79,0,0,0,2.171-.612,3.924,3.924,0,0,0,2.3-3.64,3.427,3.427,0,0,0-2.067-3.263,3.741,3.741,0,0,0-1.508-.325A19.456,19.456,0,0,1,53.521,257.792Zm-1.6-4.538a4.493,4.493,0,0,0-2.119,3.874c0,1.248.546,2.21,1.248,2.21.546,0,1.066-.61,1.625-1.885a17.856,17.856,0,0,0,1.183-4.81A4.106,4.106,0,0,0,51.923,253.254Z"/><path class="cls-5" d="M68.15,261.132c0,.806-.247.963-1.456.963-.364,0-1.04-.027-1.5-.078a3.9,3.9,0,0,0-.272-.832,13.731,13.731,0,0,0,1.7.143c.6,0,.688-.039.688-.312V258.4h-3.9a9.9,9.9,0,0,0-1.364.078v-.9a9.708,9.708,0,0,0,1.351.078h3.913v-.221a7.477,7.477,0,0,0-.039-.767h.546a10.868,10.868,0,0,0,2.327-1.469H65.4a11.376,11.376,0,0,0-1.236.066v-.846a11.777,11.777,0,0,0,1.262.065h4.692a5.766,5.766,0,0,0,.963-.051l.493.519c-.169.13-.169.13-.455.377a14.742,14.742,0,0,1-2.964,1.924v.4h3.862a9.532,9.532,0,0,0,1.365-.078v.9A9.872,9.872,0,0,0,72,258.4H68.15Zm-3.509-8.593a8.7,8.7,0,0,0-1.223-1.69l.78-.247a12.317,12.317,0,0,1,1.326,1.924h1.9a7.7,7.7,0,0,0-.949-1.872l.8-.221a11.212,11.212,0,0,1,.989,2.093H69.7a7.732,7.732,0,0,0,1.34-2.093l.818.351a11.958,11.958,0,0,1-1.248,1.742h1.015a14.782,14.782,0,0,0,1.5-.052,8.39,8.39,0,0,0-.053,1.079v.962a7.141,7.141,0,0,0,.066.91h-.859v-2.184H63.094v2.184h-.859a6.81,6.81,0,0,0,.066-.91v-.962a8.39,8.39,0,0,0-.053-1.079,11.652,11.652,0,0,0,1.482.065Z"/><path class="cls-5" d="M77.02,251.551a6.542,6.542,0,0,0-1.235.078v-.871a8.939,8.939,0,0,0,1.326.078H79.8a8.8,8.8,0,0,0,1.248-.052A10.174,10.174,0,0,0,81,252.045v2.9c0,.494-.078.7-.3.845a1.726,1.726,0,0,1-.962.169,9.5,9.5,0,0,1-1.183-.078,3.875,3.875,0,0,0-.182-.767,7.794,7.794,0,0,0,1.4.143c.39,0,.455-.052.455-.377v-3.328Zm2.639,2.509a25.276,25.276,0,0,1-3.094,1.56,4.912,4.912,0,0,0-.455.221l-.325-.793a14.73,14.73,0,0,0,3.8-1.716Zm-1.4-.468A7.554,7.554,0,0,0,76.4,252.37l.52-.507a11.852,11.852,0,0,1,1.872,1.183Zm5.772,3.185c.651,0,1.028-.013,1.43-.051a12.712,12.712,0,0,0-.052,1.442v2.744a8.3,8.3,0,0,0,.078,1.338h-.9v-.584h-6.37v.584h-.884a8.416,8.416,0,0,0,.078-1.338v-2.744a13.47,13.47,0,0,0-.052-1.442c.442.038.78.051,1.417.051H80.53a4.925,4.925,0,0,0,.52-1.1l.858.182c-.234.456-.312.585-.519.923Zm-5.811,2h6.37v-1.3h-6.37Zm0,2.184h6.37v-1.482h-6.37Zm4.472-9.412a6.623,6.623,0,0,0-1.235.078v-.871a9.062,9.062,0,0,0,1.326.078h2.639a8.572,8.572,0,0,0,1.235-.052,10.352,10.352,0,0,0-.051,1.261v2.938c0,.429-.014.481-.079.624-.156.287-.442.39-1.118.39-.338,0-.727-.026-1.339-.078a2.267,2.267,0,0,0-.156-.78,8.978,8.978,0,0,0,1.4.143c.481,0,.5-.012.5-.377v-3.354Zm2.561,2.548a26.752,26.752,0,0,1-2.834,1.261c-.26.1-.364.143-.546.234l-.3-.819a12.92,12.92,0,0,0,3.627-1.417Zm-1.469-.481a10.62,10.62,0,0,0-1.937-1.222l.508-.507a12.588,12.588,0,0,1,1.936,1.2Z"/><path class="cls-5" d="M91,260.184v.922H90a6.725,6.725,0,0,0,.053-.975v-7.059A6.64,6.64,0,0,0,90,252.058a9.4,9.4,0,0,0,1.015.039h6.928a6.772,6.772,0,0,0,1.015-.039,7.051,7.051,0,0,0-.039,1.014v7.033c0,.391.013.728.039,1h-.988v-.922Zm6.968-7.229H91v6.383h6.968Z"/><path class="cls-5" d="M107.229,251.005a2.428,2.428,0,0,0-.287.533,10.364,10.364,0,0,1-.6,1.144,2.069,2.069,0,0,1,.467-.039l3.277-.052c.455-.013.494-.013.663-.091l.7.676c-.117.156-.117.169-.261.637a13.242,13.242,0,0,1-2.547,4.746,12.6,12.6,0,0,1-4.525,3.25,2.045,2.045,0,0,0-.649-.767,10.841,10.841,0,0,0,4.589-3.29,11.784,11.784,0,0,0,2.236-4.342l-4.382.065a12.173,12.173,0,0,1-3.106,3.38,1.915,1.915,0,0,0-.729-.663,9.785,9.785,0,0,0,3.264-3.575,5.827,5.827,0,0,0,.818-1.885Zm4.25-.078a10.4,10.4,0,0,1,1.2,1.846l-.651.351a8.564,8.564,0,0,0-1.2-1.885Zm1.184-.559a10.043,10.043,0,0,1,1.2,1.846l-.649.351a8.313,8.313,0,0,0-1.2-1.885Z"/><path class="cls-5" d="M119.725,253.644a8.285,8.285,0,0,0,1.2-.065,8.844,8.844,0,0,0-.052,1.157v6.345c0,.714-.247.883-1.287.883-.182,0-.273,0-1-.038a2.46,2.46,0,0,0-.156-.794,11,11,0,0,0,1.209.1c.4,0,.507-.051.507-.273v-2.184H117.06a8.445,8.445,0,0,1-.781,3.328,2.589,2.589,0,0,0-.727-.52,5.776,5.776,0,0,0,.741-2.639c.078-.884.1-1.677.1-3.861,0-.364,0-.715-.012-1-.117.156-.169.221-.338.429a2.022,2.022,0,0,0-.611-.52,8.062,8.062,0,0,0,1.885-2.873,5.553,5.553,0,0,0,.26-.845l.818.2c-.051.1-.064.13-.155.351-.13.325-.208.494-.222.52h1.236a4.036,4.036,0,0,0,.728-.039l.39.429a6.581,6.581,0,0,0-.468.819c-.143.312-.429.806-.6,1.092Zm-1.222,0a15.341,15.341,0,0,0,.871-1.625H117.71a12.114,12.114,0,0,1-.976,1.612c.339.013.482.013.937.013Zm-.208,4.46v-1.613h-1.157c-.013,1.014-.013,1.014-.039,1.613Zm-1.145-3.771v.858l-.012.637H118.3v-1.5Zm2.991,0h-1.17v1.5h1.17Zm0,2.158h-1.17V258.1h1.17Zm2.366-4.8a7.121,7.121,0,0,0-1.236.078v-.832a7.9,7.9,0,0,0,1.3.078h2.964a10.2,10.2,0,0,0,1.2-.052c-.026.208-.026.247-.052.494-.052.676-.143,1.43-.234,1.911-.169.9-.428,1.131-1.209,1.131a9.631,9.631,0,0,1-1.2-.091,2.685,2.685,0,0,0-.156-.767,5.939,5.939,0,0,0,1.157.156c.377,0,.507-.078.585-.364a8.888,8.888,0,0,0,.247-1.742h-1.911a4.1,4.1,0,0,1-.559,1.625,4.376,4.376,0,0,1-1.807,1.664,2.139,2.139,0,0,0-.533-.637,3.86,3.86,0,0,0,1.638-1.352,2.831,2.831,0,0,0,.443-1.3Zm0,5.213a5.239,5.239,0,0,1-.611,1.2,2.511,2.511,0,0,0-.7-.352,5.131,5.131,0,0,0,.949-1.989,2.469,2.469,0,0,0,.13-.624l.793.182c-.221.65-.221.65-.3.871h1.21v-.325a6.394,6.394,0,0,0-.079-1.04h.9a8.413,8.413,0,0,0-.065,1.04v.325h.988a6.266,6.266,0,0,0,1.222-.078v.858a7.515,7.515,0,0,0-1.222-.065h-.988v1.573h1.339a8.133,8.133,0,0,0,1.222-.078v.858a9.355,9.355,0,0,0-1.183-.052H124.73V261a7.118,7.118,0,0,0,.079,1.158H123.9a7.485,7.485,0,0,0,.079-1.158v-1.794h-1.626a7.424,7.424,0,0,0-1.118.065V258.4a7,7,0,0,0,1.131.078h1.613v-1.573Z"/><path class="cls-5" d="M131.767,251.564a5.156,5.156,0,0,0-.079-1.079h.962a5.363,5.363,0,0,0-.078,1.092v1.469h.949a4.118,4.118,0,0,0,.859-.065v.858a4.351,4.351,0,0,0-.859-.065h-.871a5.388,5.388,0,0,0,.508,1.027,6,6,0,0,0,1.17,1.443,3.1,3.1,0,0,0-.494.728,7.93,7.93,0,0,1-1.313-2.21c.026.741.051,1.573.051,2.4v3.849a6.377,6.377,0,0,0,.078,1.221H131.7a7.281,7.281,0,0,0,.077-1.209v-3.666c0-.779.014-1.482.053-2.34a11.727,11.727,0,0,1-1.886,4.043,2.255,2.255,0,0,0-.585-.663,12.025,12.025,0,0,0,2.276-4.628H130.6a3.532,3.532,0,0,0-.806.065v-.858a4.017,4.017,0,0,0,.871.065h1.1Zm7.982,3.055a12.159,12.159,0,0,0,1.508-.078v.949a12.456,12.456,0,0,0-1.508-.078h-.611v5.357a12.505,12.505,0,0,0,.078,1.468h-1a12.907,12.907,0,0,0,.091-1.468v-5.357h-2.522c-.117,3.484-.546,5.123-1.781,6.76a2.817,2.817,0,0,0-.69-.61,5.3,5.3,0,0,0,1.119-2.055,20.814,20.814,0,0,0,.559-5.85,14.942,14.942,0,0,0-.078-1.872h.233a13.017,13.017,0,0,0,5.045-1.274l.624.741c-.208.078-.208.078-1.521.52a15.886,15.886,0,0,1-3.484.754v1.118c0,.3-.013.52-.013.975Z"/><path class="cls-5" d="M146.019,251.317a5.225,5.225,0,0,0,.247.793c.259.767.39,1.131.572,1.716a23.055,23.055,0,0,1,2.8-.728,18.018,18.018,0,0,0-.052-2.3h.975a12.266,12.266,0,0,0-.065,1.755c0,.013,0,.26.013.416a6.547,6.547,0,0,1,.975-.078c1.742,0,2.86.936,2.86,2.392a2.779,2.779,0,0,1-3.055,2.678,5.505,5.505,0,0,1-2.2-.481,1.869,1.869,0,0,0,.013-.234,5.684,5.684,0,0,0-.079-.741,4.416,4.416,0,0,0,2.185.6,2.634,2.634,0,0,0,1.56-.508,1.576,1.576,0,0,0,.625-1.325c0-.989-.768-1.574-2.08-1.574a15.326,15.326,0,0,0-4.239.923c.663,2.21,1.131,4.044,1.677,6.487a4.187,4.187,0,0,0,.169.56l-1.053.233a46.23,46.23,0,0,0-1.638-7.02,5.766,5.766,0,0,1-.7.234,12.417,12.417,0,0,0-1.78.715l-.338-.923a14.233,14.233,0,0,0,1.91-.611c.326-.117.455-.143.663-.208a13.008,13.008,0,0,0-.935-2.47Z"/><path class="cls-5" d="M158.789,255.49a15.829,15.829,0,0,0,6.162-2.522l.663.884c-.208.091-.234.1-.559.273a20.1,20.1,0,0,1-6.266,2.223v1.9a.256.256,0,0,1-.014.077v.143c0,.91.053,1.209.274,1.43a1.555,1.555,0,0,0,.988.338,13.309,13.309,0,0,0,1.533.078,25.719,25.719,0,0,0,2.978-.208,6.278,6.278,0,0,0,1.287-.259l.078,1.04c-.247.012-.247.012-1.223.116-.832.092-2.547.183-3.444.183-1.534,0-2.392-.157-2.848-.534a1.73,1.73,0,0,1-.533-1.248c-.012-.208-.025-.467-.025-1.013V252.4a7.762,7.762,0,0,0-.053-1.079h1.067a6.009,6.009,0,0,0-.065,1.092Zm6.383-4.784a10.125,10.125,0,0,1,1.3,1.833l-.676.364a9.494,9.494,0,0,0-1.287-1.885Zm1.313-.585a9.009,9.009,0,0,1,1.286,1.833l-.662.364a8.711,8.711,0,0,0-1.3-1.885Z"/><path class="cls-5" d="M171.025,254.112A14.151,14.151,0,0,1,172.312,257l-.883.3a10.726,10.726,0,0,0-1.223-2.912Zm7.332-.078a7.6,7.6,0,0,0-.285,1.053A11.765,11.765,0,0,1,176.928,258a9.428,9.428,0,0,1-4.3,3.756,2.663,2.663,0,0,0-.6-.728,8.34,8.34,0,0,0,4.121-3.393,9.781,9.781,0,0,0,1.106-2.795,5.464,5.464,0,0,0,.143-.884v-.13Zm-4.679-.442a13.028,13.028,0,0,1,1.26,2.795l-.857.3a11.433,11.433,0,0,0-1.2-2.848Z"/><path class="cls-5" d="M186.318,251.005a2.483,2.483,0,0,0-.286.533,10.364,10.364,0,0,1-.6,1.144,2.063,2.063,0,0,1,.467-.039l3.277-.052c.455-.013.494-.013.663-.091l.7.676c-.117.156-.117.169-.261.637a13.229,13.229,0,0,1-2.548,4.746,12.6,12.6,0,0,1-4.524,3.25,2.055,2.055,0,0,0-.649-.767,10.837,10.837,0,0,0,4.588-3.29,11.786,11.786,0,0,0,2.237-4.342l-4.382.065a12.162,12.162,0,0,1-3.107,3.38,1.9,1.9,0,0,0-.728-.663,9.785,9.785,0,0,0,3.264-3.575,5.827,5.827,0,0,0,.818-1.885Zm4.251-.078a10.4,10.4,0,0,1,1.2,1.846l-.651.351a8.564,8.564,0,0,0-1.2-1.885Zm1.184-.559a10.043,10.043,0,0,1,1.2,1.846l-.649.351a8.348,8.348,0,0,0-1.2-1.885Z"/><path class="cls-5" d="M200.752,255.581a11.921,11.921,0,0,1-.144,1.378,5.113,5.113,0,0,1-1.754,3.433,7.651,7.651,0,0,1-2.289,1.287,2.282,2.282,0,0,0-.61-.846,4.926,4.926,0,0,0,3.289-2.561,7.436,7.436,0,0,0,.52-2.691H196.24a11.849,11.849,0,0,0-1.494.065v-.962a9.359,9.359,0,0,0,1.508.078h7.605a9.366,9.366,0,0,0,1.508-.078v.962a11.867,11.867,0,0,0-1.495-.065Zm-4.693-4.121a7.179,7.179,0,0,0,1.5.091h4.2a7.715,7.715,0,0,0,1.5-.091v.988a10.465,10.465,0,0,0-1.482-.065h-4.225a10.447,10.447,0,0,0-1.482.065Zm8.112.4a9.2,9.2,0,0,1,1.04,1.885l-.715.286a8.009,8.009,0,0,0-1.014-1.9Zm1.3-.533a8.812,8.812,0,0,1,1.04,1.872l-.7.3a7.885,7.885,0,0,0-1.027-1.911Z"/><path class="cls-5" d="M208.7,255.724a9.21,9.21,0,0,0,1.613.078h7.552a10.261,10.261,0,0,0,1.574-.065v1.054a14.526,14.526,0,0,0-1.586-.053h-7.54a13.9,13.9,0,0,0-1.613.053Z"/><path class="cls-5" d="M227.475,250.81a4.3,4.3,0,0,0-.455.858,6.971,6.971,0,0,1-.4.715c.182-.026.182-.026,4.017-.065a2.252,2.252,0,0,0,.754-.13l.585.585a2.917,2.917,0,0,0-.377.858,14.805,14.805,0,0,1-3.393,5.591A14.512,14.512,0,0,1,224.1,261.9a2.316,2.316,0,0,0-.637-.805,11.675,11.675,0,0,0,2.69-1.418,9.082,9.082,0,0,0,2.249-2.053,16.286,16.286,0,0,0-2.912-2.107l.6-.662a18.543,18.543,0,0,1,2.873,2.014,15.528,15.528,0,0,0,1.807-3.77l-4.55.065a12.916,12.916,0,0,1-3.095,3.458,2.385,2.385,0,0,0-.754-.624,11.3,11.3,0,0,0,3.316-3.705,7.052,7.052,0,0,0,.766-1.781Z"/><path class="cls-5" d="M239.49,250.836a3.547,3.547,0,0,0-.364.663,12.915,12.915,0,0,1-4.095,4.876,2.861,2.861,0,0,0-.636-.7,10.718,10.718,0,0,0,3.561-3.809,4.21,4.21,0,0,0,.56-1.365Zm-1.261,5.058a10.452,10.452,0,0,0-1.338.077v-.923a9.962,9.962,0,0,0,1.351.078h4.278a10.03,10.03,0,0,0,1.365-.064,5.8,5.8,0,0,0-.053.922,16.49,16.49,0,0,1-.585,5.33c-.221.391-.532.52-1.286.52-.43,0-.885-.025-1.7-.1a3.6,3.6,0,0,0-.208-.922,9.992,9.992,0,0,0,1.833.22c.416,0,.558-.077.649-.324a18.447,18.447,0,0,0,.43-4.81h-3.029a7.4,7.4,0,0,1-1.015,3.418,7.619,7.619,0,0,1-3.275,2.834,2.752,2.752,0,0,0-.573-.728,6.626,6.626,0,0,0,3.277-2.847,6.323,6.323,0,0,0,.7-2.677Zm4.043-5.37a5.276,5.276,0,0,0,.5,1.092,10.834,10.834,0,0,0,3.835,4.043,3.228,3.228,0,0,0-.612.793,13.178,13.178,0,0,1-4.381-5.226c-.064-.117-.142-.26-.208-.364Z"/><path class="cls-5" d="M250.791,251.564a5.232,5.232,0,0,0-.078-1.079h.962a5.3,5.3,0,0,0-.077,1.092v1.469h.948a4.108,4.108,0,0,0,.858-.065v.858a4.346,4.346,0,0,0-.858-.065h-.871a5.33,5.33,0,0,0,.508,1.027,5.974,5.974,0,0,0,1.17,1.443,3.1,3.1,0,0,0-.5.728,7.954,7.954,0,0,1-1.313-2.21c.026.741.053,1.573.053,2.4v3.849a6.309,6.309,0,0,0,.077,1.221h-.948a7.392,7.392,0,0,0,.077-1.209v-3.666c0-.779.013-1.482.052-2.34a11.728,11.728,0,0,1-1.885,4.043,2.269,2.269,0,0,0-.585-.663,12.038,12.038,0,0,0,2.275-4.628h-1.04a3.532,3.532,0,0,0-.806.065v-.858a4.033,4.033,0,0,0,.872.065h1.1Zm7.982,3.055a12.147,12.147,0,0,0,1.508-.078v.949a12.456,12.456,0,0,0-1.508-.078h-.611v5.357a12.505,12.505,0,0,0,.078,1.468h-1a12.907,12.907,0,0,0,.091-1.468v-5.357h-2.521c-.118,3.484-.546,5.123-1.782,6.76a2.812,2.812,0,0,0-.689-.61,5.305,5.305,0,0,0,1.118-2.055,20.767,20.767,0,0,0,.56-5.85,15.144,15.144,0,0,0-.078-1.872h.233a13.017,13.017,0,0,0,5.045-1.274l.624.741c-.208.078-.208.078-1.522.52a15.86,15.86,0,0,1-3.484.754v1.118c0,.3-.013.52-.013.975Z"/><path class="cls-5" d="M262.547,252.643c.247.013.377.013.468.013.182,0,.339-.013.741-.039,1.547-.117,5.707-.364,7.385-.429a12.465,12.465,0,0,0,1.547-.143l.078.962a5.447,5.447,0,0,0-1.456.182,6.391,6.391,0,0,0-2.5,1.3,3.973,3.973,0,0,0-1.6,3,2.548,2.548,0,0,0,1.82,2.4,6.663,6.663,0,0,0,1.95.416h.13l-.169,1.054c-.142-.027-.195-.039-.4-.078a6.589,6.589,0,0,1-2.808-1,3.152,3.152,0,0,1-1.443-2.653,4.945,4.945,0,0,1,2.432-3.991,8.445,8.445,0,0,1,1.234-.689,25.2,25.2,0,0,1-2.859.286,38.186,38.186,0,0,0-4.486.429Zm8.606,1.5a9.241,9.241,0,0,1,1.2,1.82l-.663.338a8.05,8.05,0,0,0-1.17-1.846Zm1.261-.611a9.2,9.2,0,0,1,1.2,1.82l-.65.339a8.387,8.387,0,0,0-1.183-1.847Z"/><path class="cls-5" d="M21.977,274.146c-.482,0-.885.025-1.132.051v-.78a6.431,6.431,0,0,0,1.144.078h1.443V272H22.418a6.817,6.817,0,0,0-1.053.052v-.767a5.2,5.2,0,0,0,1.066.065h1v-.481a4.895,4.895,0,0,0-.078-.949h.91a3.678,3.678,0,0,0-.077.962v.468h.688a4.41,4.41,0,0,0,.846-.052v.741a7.123,7.123,0,0,0-.807-.039h-.727v1.5h.428a9.6,9.6,0,0,0,2.145-2.99l.78.377a16.208,16.208,0,0,1-1.989,2.613h.508a4.634,4.634,0,0,0,.871-.052v.754a5.3,5.3,0,0,0-.871-.051H24.914a17.065,17.065,0,0,1-1.52,1.3h1.429a4.654,4.654,0,0,0,.936-.051l.429.454-.051.052c-.078.079-.078.079-.247.26a9.608,9.608,0,0,1-1.392,1.261v.469c.937-.118,1.3-.17,2.354-.378v.728c-1.08.2-1.5.26-2.354.377v1.964c0,.714-.234.871-1.235.871-.312,0-.689-.014-1.092-.053a2.833,2.833,0,0,0-.143-.805,9.508,9.508,0,0,0,1.378.116c.26,0,.325-.051.325-.272v-1.73c-.7.065-.91.091-2.2.195a4.643,4.643,0,0,0-.637.078l-.13-.832c.143.014.286.014.416.014.455,0,1.626-.079,2.548-.183V277.9a4.113,4.113,0,0,0-.052-.871h.312a5.428,5.428,0,0,0,1.053-.962H22.509c-.52.338-.793.494-1.417.832a2.268,2.268,0,0,0-.52-.585,15.7,15.7,0,0,0,3.354-2.17Zm10.361-1.119a4.97,4.97,0,0,0-.9-.078,12.918,12.918,0,0,1-.455,2.653,9.989,9.989,0,0,1-1.091,2.547,8.534,8.534,0,0,0,2.729,2.769,2.321,2.321,0,0,0-.624.742,9.781,9.781,0,0,1-2.573-2.808,11.042,11.042,0,0,1-3.173,2.794,2.364,2.364,0,0,0-.61-.714A8.682,8.682,0,0,0,29,278.084a13.407,13.407,0,0,1-1.157-3.367,10.25,10.25,0,0,1-.948,1.5,2.239,2.239,0,0,0-.585-.559,9.88,9.88,0,0,0,1.923-4.186,8.9,8.9,0,0,0,.3-1.638l.884.195c-.052.169-.052.169-.156.559-.116.468-.324,1.274-.442,1.664H31.1a6.153,6.153,0,0,0,1.235-.078Zm-3.758-.078c-.117.338-.142.4-.26.7a12.351,12.351,0,0,0,1.145,3.68,10.375,10.375,0,0,0,1.2-4.382Z"/><path class="cls-5" d="M39.582,270.765a5.185,5.185,0,0,0-.078-.949h.975a5.086,5.086,0,0,0-.078.949v.312h4.212A9.013,9.013,0,0,0,45.952,271v.858a10.358,10.358,0,0,0-1.3-.065H39.179a14.252,14.252,0,0,1-1.118,1.625c1.755-.039,3.016-.1,4.875-.247a11.552,11.552,0,0,0-1.4-.819l.65-.429a22.208,22.208,0,0,1,3.38,2.275l-.6.6a13.5,13.5,0,0,0-1.222-1.027q-3.646.371-8.164.442a4.142,4.142,0,0,0-.585.039l-.156-.858a14.249,14.249,0,0,0,1.456.052c.26,0,.4,0,.845-.013a9.762,9.762,0,0,0,1.131-1.638H35.747a13.028,13.028,0,0,0-1.313.065V271a9.007,9.007,0,0,0,1.338.078h3.81ZM37.021,279.2v1.04a10.4,10.4,0,0,0,.065,1.429h-.949a12.485,12.485,0,0,0,.078-1.482v-4.056a8.559,8.559,0,0,0-.066-1.248,13.828,13.828,0,0,0,1.509.052h5.071a11.652,11.652,0,0,0,1.4-.052,11.9,11.9,0,0,0-.052,1.365v4.226c0,.779-.312,1.026-1.3,1.026-.091,0-.611-.012-1.547-.051a2.379,2.379,0,0,0-.2-.781,13.8,13.8,0,0,0,1.664.118c.494,0,.572-.053.572-.377V279.2Zm6.253-3.563H37.021v1.067h6.253ZM37.021,277.4v1.118h6.253V277.4Z"/><path class="cls-5" d="M51.273,270.349a22.611,22.611,0,0,0,.975,4.3c.767-.312,1.131-.455,3.147-1.157a7.1,7.1,0,0,0,.832-.338l.389.989a29.733,29.733,0,0,0-3.913,1.26c-2.223.885-3.185,1.742-3.185,2.822,0,1.183,1,1.637,3.549,1.637a12.9,12.9,0,0,0,3.718-.442l.105,1.079a6.672,6.672,0,0,0-.963.079,26.329,26.329,0,0,1-2.873.169,8.839,8.839,0,0,1-2.886-.352,2.158,2.158,0,0,1-1.612-2.131,2.814,2.814,0,0,1,1.157-2.211,8.1,8.1,0,0,1,1.7-1.053,26.442,26.442,0,0,1-.949-3.64,4.349,4.349,0,0,0-.221-.819Z"/><path class="cls-5" d="M63.6,271.493a5.073,5.073,0,0,0-.17.884c-.546,3.706-1.573,6.149-3.432,8.112a2.862,2.862,0,0,0-.832-.676,8.333,8.333,0,0,0,1.885-2.574,15.055,15.055,0,0,0,1.34-4.511,10.477,10.477,0,0,0,.129-1.222,1.436,1.436,0,0,0-.013-.208Zm3.6-.195a16.438,16.438,0,0,0,.6,3.12,11.365,11.365,0,0,0,2.95,5.37,3.046,3.046,0,0,0-.806.728,12.12,12.12,0,0,1-2.171-3.381,19.115,19.115,0,0,1-1.365-4.784,5.894,5.894,0,0,0-.169-.858Zm3.614.663a1.339,1.339,0,1,1-1.338-1.326A1.336,1.336,0,0,1,70.816,271.961Zm-2.131,0a.793.793,0,0,0,1.586,0,.793.793,0,0,0-1.586,0Z"/><path class="cls-5" d="M82.194,272.091c-.09.143-.09.143-.272.806a11.088,11.088,0,0,1-3.264,5.643,11.937,11.937,0,0,1-4.082,2.443,2.477,2.477,0,0,0-.637-.91,9.922,9.922,0,0,0,7.034-7.566H74.355a9.04,9.04,0,0,0-1.456.078v-1.053a7.813,7.813,0,0,0,1.469.091h6.4a1.752,1.752,0,0,0,.832-.1Z"/><path class="cls-5" d="M86.618,275.328a6.7,6.7,0,0,0-1.17.066v-.911a5.228,5.228,0,0,0,1.157.079h3.822l-.013-.911a4.9,4.9,0,0,0-.064-.975h.935a3.92,3.92,0,0,0-.052.715v.208l.013.963h1.261a6.633,6.633,0,0,0,1.171-.066v.9a6.994,6.994,0,0,0-1.171-.066H91.259l.065,5.058a4.539,4.539,0,0,0,.066,1.013H90.4a7,7,0,0,0,.039-.961v-.052l-.026-3.875c0-.026.026-.351.052-.728a.834.834,0,0,1-.065.143,11.512,11.512,0,0,1-4.875,4.382,2.3,2.3,0,0,0-.585-.7,11.69,11.69,0,0,0,2.977-1.923,9.651,9.651,0,0,0,2.016-2.354Z"/><path class="cls-5" d="M96.84,275.224a9.2,9.2,0,0,0,1.612.078h7.554a10.229,10.229,0,0,0,1.572-.065v1.054a14.526,14.526,0,0,0-1.586-.053h-7.54a13.875,13.875,0,0,0-1.612.053Z"/><path class="cls-5" d="M112.418,274.7a28.091,28.091,0,0,1,2.639,2.457,22.672,22.672,0,0,0,1.729-1.6,18.977,18.977,0,0,0,2.145-2.821c.039-.065.051-.078.1-.156-.182.013-.182.013-7.424.026-.7,0-1.065.013-1.507.052v-1.027a9.449,9.449,0,0,0,1.521.078H119.2a1.587,1.587,0,0,0,.728-.091l.546.65a3.667,3.667,0,0,0-.52.689,19.879,19.879,0,0,1-4.29,4.875c.494.534,1.027,1.209,1.9,2.367l-.793.663a24.535,24.535,0,0,0-5.069-5.591Z"/><path class="cls-5" d="M122.743,279.619a11.319,11.319,0,0,0,3.783-1,9.82,9.82,0,0,0,5.3-5.785,2.618,2.618,0,0,0,.794.767,11.4,11.4,0,0,1-3.966,4.966,13.091,13.091,0,0,1-4.848,1.937,7,7,0,0,0-.781.208Zm.832-8.061A16.9,16.9,0,0,1,126.708,274l-.676.806a14.331,14.331,0,0,0-3.094-2.548Z"/><path class="cls-5" d="M144.367,280.867a24.142,24.142,0,0,0-4.16-4.017,14.1,14.1,0,0,1-2.483,2.326,16.71,16.71,0,0,1-2.548,1.56,2.937,2.937,0,0,0-.637-.858,10.4,10.4,0,0,0,2.639-1.5,14.074,14.074,0,0,0,4.64-5.863c.027-.078.039-.091.066-.156a.275.275,0,0,0,.039-.091,2.208,2.208,0,0,1-.312.013l-4.342.065a8.747,8.747,0,0,0-1.339.1L135.9,271.4a6.122,6.122,0,0,0,1.028.065h.338l4.641-.052a2.424,2.424,0,0,0,.832-.1l.546.559a2.4,2.4,0,0,0-.364.637,15.72,15.72,0,0,1-2.145,3.64,32.46,32.46,0,0,1,4.329,3.9Z"/><path class="cls-5" d="M151.936,277.292c-.754,1.715-1.521,2.5-2.457,2.5-1.235,0-2.158-1.352-2.158-3.173a5.279,5.279,0,0,1,5.564-5.317,5.033,5.033,0,0,1,3.575,1.287,4.352,4.352,0,0,1,1.262,3.172,4.736,4.736,0,0,1-2.978,4.486,10.063,10.063,0,0,1-1.976.6,2.051,2.051,0,0,0-.455-.87,7.79,7.79,0,0,0,2.171-.612,3.924,3.924,0,0,0,2.3-3.64,3.427,3.427,0,0,0-2.067-3.263,3.741,3.741,0,0,0-1.508-.325A19.5,19.5,0,0,1,151.936,277.292Zm-1.6-4.538a4.493,4.493,0,0,0-2.119,3.874c0,1.248.546,2.21,1.248,2.21.546,0,1.066-.61,1.625-1.885a17.856,17.856,0,0,0,1.183-4.81A4.106,4.106,0,0,0,150.337,272.754Z"/><path class="cls-5" d="M162.978,273.183a8.3,8.3,0,0,0,1.858,3,2.994,2.994,0,0,0-.468.728,9.378,9.378,0,0,1-1.508-2.731c.039,1.2.052,1.677.052,2.107v3.952a10.532,10.532,0,0,0,.078,1.507h-.974a11.065,11.065,0,0,0,.078-1.507v-3.68c0-.545.012-.832.077-2.119a11.615,11.615,0,0,1-1.924,4.121,2.386,2.386,0,0,0-.507-.753,11.586,11.586,0,0,0,2.237-4.629h-.937a6.079,6.079,0,0,0-.936.052v-.819a5.757,5.757,0,0,0,.936.052h1.054V271.22a7.739,7.739,0,0,0-.066-1.352h.95a8.546,8.546,0,0,0-.066,1.339v1.261h.949a5.221,5.221,0,0,0,.859-.052v.806c-.286-.026-.546-.039-.846-.039Zm2.2,8.5c.038-.442.064-.911.064-1.586v-8.152c0-.455-.012-.767-.051-1.4a9.829,9.829,0,0,0,1.013.026h3.849a6.09,6.09,0,0,0,.987-.039c-.025.286-.038.585-.038,1.3v8.255a14.985,14.985,0,0,0,.052,1.548h-.871v-.884h-4.121v.936Zm.884-8.035h4.121v-2.327h-4.121Zm0,3.056h4.121v-2.315h-4.121Zm0,3.3h4.121v-2.561h-4.121Z"/><path class="cls-5" d="M175.045,280.216a9.121,9.121,0,0,0,.078,1.456h-.962a9.717,9.717,0,0,0,.078-1.456V271.7c0-.637-.013-1.014-.052-1.43a11.92,11.92,0,0,0,1.352.052h1.95a11.406,11.406,0,0,0,1.326-.052c-.026.364-.039.754-.039,1.235v1.417c0,.507.013.871.039,1.2-.364-.026-.767-.039-1.313-.039h-2.457Zm0-8.333h2.99v-.949h-2.99Zm0,1.586h2.99v-.988h-2.99Zm4.85,4.706A4.815,4.815,0,0,0,182.78,280a2.977,2.977,0,0,0-.389.728,7.811,7.811,0,0,0,1.13.09c.351,0,.456-.078.456-.376V274.08h-2.692c-.558,0-.974.013-1.326.039.026-.338.039-.728.039-1.2v-1.417c0-.455-.013-.845-.039-1.235a11.406,11.406,0,0,0,1.326.052h2.2a12.053,12.053,0,0,0,1.366-.052,12.073,12.073,0,0,0-.066,1.43v8.776c0,.883-.22,1.079-1.261,1.079-.364,0-.792-.027-1.222-.053a2.439,2.439,0,0,0-.195-.818c.143.025.156.025.287.039a5.7,5.7,0,0,1-2.991-2.172c-.494,1.248-1.3,1.911-3.172,2.588a1.948,1.948,0,0,0-.481-.677,5.478,5.478,0,0,0,2.3-1.105,2.585,2.585,0,0,0,.728-1.183h-1.638a7.473,7.473,0,0,0-1.183.065v-.766a6.751,6.751,0,0,0,1.157.065h1.82a8.208,8.208,0,0,0,.078-1.158h-1.651a8.311,8.311,0,0,0-1.105.053v-.742a6.082,6.082,0,0,0,1.105.065h.663a6.533,6.533,0,0,0-.793-1.092l.663-.273a9.938,9.938,0,0,1,.91,1.365h1.326a6.657,6.657,0,0,0,.78-1.378l.728.221a10.271,10.271,0,0,1-.728,1.157h.741a6.259,6.259,0,0,0,1.1-.065v.742a8.439,8.439,0,0,0-1.1-.053h-1.885a7.909,7.909,0,0,1-.1,1.158h2.21a6.934,6.934,0,0,0,1.157-.065v.766a7.006,7.006,0,0,0-1.17-.065Zm.857-6.292h3.225v-.949h-3.225Zm0,1.586h3.225v-.988h-3.225Z"/><path class="cls-5" d="M190.856,272a5.492,5.492,0,0,0,.624-1.781l1.041.182a2.761,2.761,0,0,0-.338.7c-.169.416-.338.767-.4.884a2.213,2.213,0,0,1,.273-.013,18.3,18.3,0,0,0,4.095-.494l.079.884a4.045,4.045,0,0,0-.521.065,41.975,41.975,0,0,1-4.29.338,9.634,9.634,0,0,1-1.17,1.846c-.13.157-.391.455-.442.494a1.942,1.942,0,0,0-.169.13.013.013,0,0,1-.013.013v.013a.113.113,0,0,0,.025.039c.469-.364.469-.364.6-.455a3.46,3.46,0,0,1,1.963-.637,1.578,1.578,0,0,1,1.716,1.443c.949-.377,1.69-.65,2.263-.858a2.836,2.836,0,0,0,.883-.377l.416.91a21.616,21.616,0,0,0-3.471,1.144c.026.339.026.468.026.794,0,.169,0,.454-.013.714-.013.287-.013.468-.013.585a2.814,2.814,0,0,0,.026.468l-.884.013a18.7,18.7,0,0,0,.078-1.872,3.416,3.416,0,0,0-.013-.39c-1.768.832-2.444,1.444-2.444,2.223,0,.858.806,1.236,2.639,1.236a10.861,10.861,0,0,0,3.471-.508l.117,1c-.194.014-.26.027-.52.066a20.168,20.168,0,0,1-3.159.26c-2.327,0-3.458-.664-3.458-2a2.688,2.688,0,0,1,1.326-2.055,10.092,10.092,0,0,1,1.937-1.04c-.1-.715-.416-1.027-1.028-1.027a4.884,4.884,0,0,0-2.9,1.378,4.286,4.286,0,0,0-1,1.08l-.728-.729a12.922,12.922,0,0,0,2.912-3.718l.117-.195a1.44,1.44,0,0,1-.247.026c-.208,0-1.43-.026-1.911-.039h-.208a2.3,2.3,0,0,0-.286.013l.013-.9a18.183,18.183,0,0,0,2.781.143Z"/><path class="cls-5" d="M201.338,271.324a10.594,10.594,0,0,0-1.365.078v-.923a9.908,9.908,0,0,0,1.365.078h8.71a10.4,10.4,0,0,0,1.378-.078v.923a10.393,10.393,0,0,0-1.352-.078h-.26v9.243c0,.846-.3,1.04-1.56,1.04-.442,0-1.027-.025-1.73-.065a3.046,3.046,0,0,0-.208-.883,16.007,16.007,0,0,0,2.055.155c.481,0,.585-.064.585-.363v-9.127Zm5.225,5.942a6.436,6.436,0,0,0,.053.962c-.261-.027-.716-.04-1.093-.04h-3.081v1.184h-.922a7.138,7.138,0,0,0,.078-1.04v-4.109a6.654,6.654,0,0,0-.066-1.131,9.925,9.925,0,0,0,1.21.052h2.665a10.284,10.284,0,0,0,1.222-.052,6.08,6.08,0,0,0-.066,1.092Zm-4.121.181h3.277v-3.562h-3.277Z"/><path class="cls-5" d="M216.083,280.333a8.151,8.151,0,0,0,.078,1.366h-.935c.039-.4.064-.845.064-1.366v-3.965a15.509,15.509,0,0,1-1.755,1.652,3.167,3.167,0,0,0-.455-.742,10.628,10.628,0,0,0,2.146-1.911,10.314,10.314,0,0,0,1.65-2.522h-2.327a8.922,8.922,0,0,0-1,.052v-.845a8.035,8.035,0,0,0,.975.052h.754V270.9a8.889,8.889,0,0,0-.065-1.027h.963a5.471,5.471,0,0,0-.078,1.04v1.2h.793a2.894,2.894,0,0,0,.61-.039l.377.468a4.134,4.134,0,0,0-.246.468,12.572,12.572,0,0,1-1.418,2.275,10.622,10.622,0,0,0,1.9,1.586,3.168,3.168,0,0,0-.389.754,13.878,13.878,0,0,1-1.639-1.5Zm3.653-2.886c-.558,0-.974.013-1.26.039.026-.312.039-.767.039-1.313v-4.446a11.993,11.993,0,0,0-.052-1.326,9.607,9.607,0,0,0,1.273.052h3.485a9.417,9.417,0,0,0,1.248-.052,11.406,11.406,0,0,0-.052,1.326v4.446a12.176,12.176,0,0,0,.052,1.327,11.34,11.34,0,0,0-1.261-.053h-.494v3.016c0,.222.142.261.832.261.663,0,.832-.053.9-.273a7.018,7.018,0,0,0,.144-1.56,2.574,2.574,0,0,0,.767.35,3.65,3.65,0,0,1-.4,1.95c-.207.222-.61.3-1.547.3-1.234,0-1.481-.131-1.481-.755v-3.289h-1.132a4.725,4.725,0,0,1-.493,1.9,4.941,4.941,0,0,1-2.718,2.34,3.269,3.269,0,0,0-.585-.728,3.865,3.865,0,0,0,3-3.511Zm-.441-4.888h4.329v-1.4H219.3Zm0,2.041h4.329v-1.365H219.3Zm0,2.158h4.329v-1.469H219.3Z"/><path class="cls-5" d="M229.217,276c0-.728,0-.9.026-1.586a10.461,10.461,0,0,1-1.651,2.185,4.689,4.689,0,0,0-.559-.755,12.167,12.167,0,0,0,2.938-4.381,5.784,5.784,0,0,0,.442-1.56l.962.273c-.052.13-.052.13-.272.728-.118.3-.56,1.339-1.041,2.418v6.813c0,.507.026,1.04.078,1.572h-1.014a15.418,15.418,0,0,0,.091-1.611Zm4.382,3.927c0,.455.194.52,1.7.52,1.482,0,1.976-.078,2.172-.312a5.717,5.717,0,0,0,.441-2.38,3.011,3.011,0,0,0,.858.4,5.913,5.913,0,0,1-.611,2.547c-.325.43-.962.546-2.912.546-2.171,0-2.509-.155-2.509-1.17v-8.619a12.318,12.318,0,0,0-.078-1.4h1.014a10.167,10.167,0,0,0-.077,1.4v3.679a17.646,17.646,0,0,0,2.274-1.5,9.134,9.134,0,0,0,1.859-1.807l.754.689c-.181.156-.181.156-.793.715A20.742,20.742,0,0,1,233.6,276.1Z"/><path class="cls-5" d="M241.415,278.163a13.262,13.262,0,0,1,2.612,2.755l-.727.689a12.976,12.976,0,0,0-2.562-2.834Z"/><path class="cls-5" d="M259.541,276.2a11.665,11.665,0,0,0-1.717-.091h-8.008a12.216,12.216,0,0,0-1.729.091V275.12a11.708,11.708,0,0,0,1.729.091h8.008a11.191,11.191,0,0,0,1.717-.091Z"/><path class="cls-5" d="M265.473,275.718a10.169,10.169,0,0,1-3.2,3.107,3.72,3.72,0,0,0-.637-.637,7.31,7.31,0,0,0,3.107-2.9Zm6.447-1.742a9.264,9.264,0,0,0,1.34-.078v.91a9.647,9.647,0,0,0-1.34-.078h-3.874v3.107c0,.624-.377.871-1.313.871-.377,0-.844-.013-1.313-.052a3.024,3.024,0,0,0-.208-.832,7.843,7.843,0,0,0,1.456.143c.43,0,.533-.051.533-.273V274.73h-4.03a10.408,10.408,0,0,0-1.4.078v-.91a10.285,10.285,0,0,0,1.4.078h.858v-1.833a7.592,7.592,0,0,0-.078-1.157h.962a6.309,6.309,0,0,0-.078,1.157v1.833h2.393v-2.808a7.709,7.709,0,0,0-.079-1.209h.975a6.115,6.115,0,0,0-.078,1.183v.377h2.9a7.782,7.782,0,0,0,1.222-.078v.871a7.515,7.515,0,0,0-1.222-.065h-2.9v1.729Zm-.793,3.836a16.767,16.767,0,0,1-1.313,1.26,11.874,11.874,0,0,1-7.046,2.614,2.969,2.969,0,0,0-.416-.872,11.257,11.257,0,0,0,5.9-1.6,5.982,5.982,0,0,0,2.106-1.976Zm-.818-2.536a9.72,9.72,0,0,0,3.132,2.418,4.279,4.279,0,0,0-.6.677,13.817,13.817,0,0,1-3.225-2.666Z"/><path class="cls-5" d="M23.289,292.449a10.472,10.472,0,0,1-1.417,1.859,2.522,2.522,0,0,0-.689-.572,7.269,7.269,0,0,0,1.677-2.2,6.463,6.463,0,0,0,.611-1.833l.924.247c-.092.208-.157.377-.248.624-.182.481-.273.715-.455,1.105h2.379v-1.027a7.783,7.783,0,0,0-.078-1.144h1a7.534,7.534,0,0,0-.078,1.144v1.027h3.107a7.917,7.917,0,0,0,1.248-.078v.923a8.277,8.277,0,0,0-1.248-.078H26.916v2.314h4.043a8.959,8.959,0,0,0,1.326-.077v.922a9.42,9.42,0,0,0-1.326-.078h-2.73v4.329c0,.338.169.391,1.249.391,1.1,0,1.442-.079,1.612-.377a4.645,4.645,0,0,0,.246-1.937,3.14,3.14,0,0,0,.846.351,5.642,5.642,0,0,1-.391,2.053c-.3.573-.767.7-2.457.7-1.56,0-1.949-.182-1.949-.9V295.53h-1.95a6.371,6.371,0,0,1-.534,2.743,4.977,4.977,0,0,1-2.145,2.275,9.68,9.68,0,0,1-1.6.78,2.462,2.462,0,0,0-.247-.415,4.819,4.819,0,0,1-.286-.4,6.307,6.307,0,0,0,2.73-1.5,4.018,4.018,0,0,0,1.105-2.249,9.767,9.767,0,0,0,.1-1.236H22.184a9.641,9.641,0,0,0-1.339.078v-.922a9.175,9.175,0,0,0,1.339.077h3.887v-2.314Z"/><path class="cls-5" d="M37.6,291.5a5.492,5.492,0,0,0,.624-1.781l1.04.182a2.761,2.761,0,0,0-.338.7c-.169.416-.338.767-.4.884a2.213,2.213,0,0,1,.273-.013,18.318,18.318,0,0,0,4.1-.494l.077.884a4.1,4.1,0,0,0-.52.065,41.952,41.952,0,0,1-4.29.338,9.586,9.586,0,0,1-1.17,1.846c-.13.157-.39.455-.442.494-.091.065-.156.117-.169.13a.013.013,0,0,1-.013.013v.013a.1.1,0,0,0,.026.039c.468-.364.468-.364.6-.455a3.46,3.46,0,0,1,1.963-.637,1.578,1.578,0,0,1,1.716,1.443c.949-.377,1.69-.65,2.263-.858a2.836,2.836,0,0,0,.883-.377l.416.91a21.616,21.616,0,0,0-3.471,1.144c.026.339.026.468.026.794,0,.169,0,.454-.013.714-.013.287-.013.468-.013.585a2.814,2.814,0,0,0,.026.468l-.884.013a18.7,18.7,0,0,0,.078-1.872,3.416,3.416,0,0,0-.013-.39c-1.768.832-2.444,1.444-2.444,2.223,0,.858.806,1.236,2.639,1.236a10.857,10.857,0,0,0,3.471-.508l.117,1c-.194.014-.26.027-.52.066a20.168,20.168,0,0,1-3.159.26c-2.327,0-3.458-.664-3.458-2a2.688,2.688,0,0,1,1.326-2.055,10.092,10.092,0,0,1,1.937-1.04c-.1-.715-.416-1.027-1.027-1.027a4.884,4.884,0,0,0-2.9,1.378,4.286,4.286,0,0,0-1,1.08l-.728-.729a12.922,12.922,0,0,0,2.912-3.718l.117-.195a1.44,1.44,0,0,1-.247.026c-.208,0-1.43-.026-1.911-.039h-.208a2.305,2.305,0,0,0-.286.013l.013-.9a18.19,18.19,0,0,0,2.782.143Z"/><path class="cls-5" d="M47.912,291.045a9.423,9.423,0,0,0-.091,1.547,22.262,22.262,0,0,0,.338,4.043c.286,1.326.819,2.223,1.313,2.223.234,0,.455-.22.65-.65a9.339,9.339,0,0,0,.676-2.223,4.193,4.193,0,0,0,.767.742c-.637,2.274-1.235,3.146-2.158,3.146-.728,0-1.4-.728-1.846-1.977s-.637-2.9-.7-6.1a6.859,6.859,0,0,0-.038-.767Zm6.279.689A11.284,11.284,0,0,1,56.05,294.7a12.457,12.457,0,0,1,.975,3.471l-.922.377a11.489,11.489,0,0,0-2.7-6.409Z"/><path class="cls-5" d="M65.708,290.447c-.143.117-.247.208-1.6,1.508a37.869,37.869,0,0,1-2.99,2.457c-.481.364-.572.468-.572.65,0,.234.1.325,1.157,1.145a38.2,38.2,0,0,1,4.16,3.548,3.331,3.331,0,0,0,.365.326l-.82.806a12.157,12.157,0,0,0-1.677-1.782c-.871-.806-1.391-1.234-3.289-2.717-.728-.572-.936-.858-.936-1.3a1.26,1.26,0,0,1,.377-.871,10.367,10.367,0,0,1,1.1-.884,20.634,20.634,0,0,0,3.809-3.562Z"/><path class="cls-5" d="M75.38,289.6a9.025,9.025,0,0,0-.065,1.157,16.766,16.766,0,0,0,.287,2.821,11.354,11.354,0,0,0,1.676,3.64,11.529,11.529,0,0,0,1.924,2.054,9.537,9.537,0,0,0,1.509,1.015,2.957,2.957,0,0,0-.677.818,11.888,11.888,0,0,1-3.444-3.328,11.2,11.2,0,0,1-1.691-4.133,11,11,0,0,1-.9,2.9,8.741,8.741,0,0,1-1.858,2.665,11.058,11.058,0,0,1-2.393,1.9,2.48,2.48,0,0,0-.7-.767,9.161,9.161,0,0,0,2.652-1.963,10.648,10.648,0,0,0,2.692-7.631,8.844,8.844,0,0,0-.053-1.144Z"/><path class="cls-5" d="M84.806,298.807a8.546,8.546,0,0,1-1.691,2.443,2.38,2.38,0,0,0-.649-.545,6.215,6.215,0,0,0,1.651-2.3Zm-.4-.82c-.467,0-.766.013-1.078.039.026-.273.038-.728.038-1.248v-5.564c0-.429-.012-.78-.051-1.235.545.026.793.039,1.144.039h1.664c.494,0,.884-.013,1.156-.039q-.038.468-.038,1.209v5.668c0,.546.013.9.038,1.17-.324-.026-.61-.039-1.117-.039Zm-.259-5.59H86.47v-1.664H84.143Zm0,2.405H86.47v-1.729H84.143Zm0,2.483H86.47v-1.806H84.143Zm2.236,1.132a9.757,9.757,0,0,0,1.456,2.027,2.775,2.775,0,0,0-.65.547,14,14,0,0,1-1.443-2.2Zm2.626-5.344c-.429,0-.91.026-1.275.065v-.871a12.641,12.641,0,0,0,1.275.065h2.613v-1.456a6.565,6.565,0,0,0-.078-1.209H92.5a8.458,8.458,0,0,0-.078,1.209l.014,1.456H93a7.777,7.777,0,0,0,1.2-.078v.9a7.534,7.534,0,0,0-1.17-.078h-.584l.064,6.9c0,.767-.3,1.014-1.248,1.014-.377,0-.91-.027-1.378-.078a2.567,2.567,0,0,0-.234-.885,9.8,9.8,0,0,0,1.508.169c.442,0,.52-.051.52-.377l-.013-4.3c0-.521.026-1.236.078-1.769a14.428,14.428,0,0,1-1.846,3.107,11.417,11.417,0,0,1-2.119,2.067,2.882,2.882,0,0,0-.611-.663,9.613,9.613,0,0,0,2.483-2.392,11.885,11.885,0,0,0,1.6-2.8Z"/><path class="cls-5" d="M96.181,292.891a11.519,11.519,0,0,1,2.391,1.5l-.455.754a10.428,10.428,0,0,0-2.391-1.612Zm2.521,4.2a24.177,24.177,0,0,1-2.158,3.874l-.74-.675a3.476,3.476,0,0,0,.4-.442,13.094,13.094,0,0,0,1.833-3.277Zm-1.95-7.475a15.341,15.341,0,0,1,2.236,1.729l-.507.689a13.636,13.636,0,0,0-2.261-1.82Zm6.007,1.638a25.947,25.947,0,0,1-2.978.325,2.528,2.528,0,0,0-.338-.793,23.587,23.587,0,0,0,5.5-.741,6.047,6.047,0,0,0,1.5-.52l.6.78-.43.117c-.753.221-1.767.455-3.015.689v2.249h2.535a8.949,8.949,0,0,0,1.326-.078v.923a9.57,9.57,0,0,0-1.326-.078h-2.535v2.21h2.08a6.264,6.264,0,0,0,1-.052,8.553,8.553,0,0,0-.052,1.183v2.471a10.05,10.05,0,0,0,.065,1.26H105.8v-.74H100.77v.74h-.884a8.672,8.672,0,0,0,.064-1.274v-2.5a9.61,9.61,0,0,0-.052-1.144,6.273,6.273,0,0,0,.95.052h1.911v-2.21h-2.471a9.629,9.629,0,0,0-1.312.078v-.923a8.722,8.722,0,0,0,1.312.078h2.471Zm-1.989,8.437H105.8v-2.613H100.77Z"/><path class="cls-5" d="M115.3,299.353a9.359,9.359,0,0,0,.064,1.417h-.935a9.715,9.715,0,0,0,.064-1.417V296.9h-3.561a7.847,7.847,0,0,1-1.405,4.263,3.15,3.15,0,0,0-.754-.558,5.223,5.223,0,0,0,1.053-2.2,30.417,30.417,0,0,0,.4-6.305,20.143,20.143,0,0,0-.051-2.119,13.812,13.812,0,0,0,1.429.052h6.994a12.584,12.584,0,0,0,1.378-.052,11.013,11.013,0,0,0-.051,1.274v8.724c0,.818-.3,1.014-1.56,1.014-.416,0-1.066-.027-1.612-.065a3.025,3.025,0,0,0-.2-.845,16.884,16.884,0,0,0,1.86.143c.572,0,.688-.065.688-.391V296.9H115.3Zm-4.251-5.526c-.014.364-.014.676-.014.859-.013.805-.013.857-.052,1.456h3.51v-2.315Zm3.444-3.016h-3.419v1.547l-.013.728H114.5Zm4.615,2.275v-2.275H115.3v2.275Zm-3.808,3.056h3.808v-2.315H115.3Z"/><path class="cls-5" d="M125.756,291.5a5.467,5.467,0,0,0,.624-1.781l1.04.182a2.838,2.838,0,0,0-.338.7c-.169.416-.338.767-.4.884a2.19,2.19,0,0,1,.272-.013,18.318,18.318,0,0,0,4.1-.494l.077.884a4.1,4.1,0,0,0-.52.065,41.93,41.93,0,0,1-4.29.338,9.536,9.536,0,0,1-1.169,1.846c-.13.157-.391.455-.443.494-.091.065-.156.117-.169.13a.013.013,0,0,1-.013.013v.013a.1.1,0,0,0,.026.039c.469-.364.469-.364.6-.455a3.457,3.457,0,0,1,1.962-.637,1.578,1.578,0,0,1,1.716,1.443c.949-.377,1.691-.65,2.263-.858a2.834,2.834,0,0,0,.884-.377l.416.91a21.586,21.586,0,0,0-3.472,1.144c.026.339.026.468.026.794,0,.169,0,.454-.012.714-.014.287-.014.468-.014.585a2.814,2.814,0,0,0,.026.468l-.883.013a18.7,18.7,0,0,0,.078-1.872,3.173,3.173,0,0,0-.014-.39c-1.768.832-2.443,1.444-2.443,2.223,0,.858.8,1.236,2.638,1.236a10.857,10.857,0,0,0,3.471-.508l.117,1c-.194.014-.259.027-.519.066a20.178,20.178,0,0,1-3.159.26c-2.328,0-3.458-.664-3.458-2a2.685,2.685,0,0,1,1.326-2.055,10.047,10.047,0,0,1,1.936-1.04c-.1-.715-.416-1.027-1.027-1.027a4.886,4.886,0,0,0-2.9,1.378,4.305,4.305,0,0,0-1,1.08l-.728-.729a12.9,12.9,0,0,0,2.912-3.718l.117-.195a1.419,1.419,0,0,1-.247.026c-.208,0-1.429-.026-1.911-.039h-.208a2.305,2.305,0,0,0-.286.013l.014-.9a18.174,18.174,0,0,0,2.781.143Z"/><path class="cls-5" d="M140.758,297.337a6.079,6.079,0,0,0,1.69,1.625,9.93,9.93,0,0,0,3.6,1.327,3.3,3.3,0,0,0-.494.845c-2.757-.729-4.356-1.769-5.6-3.654a5.017,5.017,0,0,1-2.041,2.432,8.943,8.943,0,0,1-2.951,1.2,3.055,3.055,0,0,0-.481-.818,7.888,7.888,0,0,0,2.782-.936,4.318,4.318,0,0,0,1.911-2.016h-3.3a8.433,8.433,0,0,0-1.209.079v-.872a7.194,7.194,0,0,0,1.2.079h3.562a7.727,7.727,0,0,0,.183-1.248h-2.354a6.338,6.338,0,0,0-1.131.064v-.819a6.388,6.388,0,0,0,1.131.066h2.418c.026-.508.026-.651.039-1.158H137.2a8.041,8.041,0,0,0-1.248.078v-.845a7.7,7.7,0,0,0,1.248.078h2.522a4.822,4.822,0,0,0-.077-1.053h.962a4.6,4.6,0,0,0-.066,1.053h2.717a7.592,7.592,0,0,0,1.248-.078v.845a6.852,6.852,0,0,0-1.248-.078h-2.73c-.013.416-.026.728-.051,1.158h2.573a6.225,6.225,0,0,0,1.118-.066v.819a6.256,6.256,0,0,0-1.118-.064H140.42a9.94,9.94,0,0,1-.194,1.248h4.445a7.383,7.383,0,0,0,1.21-.079v.872a8.39,8.39,0,0,0-1.223-.079Zm-1.066-7.124a3.459,3.459,0,0,0-.09-.806h1.013a4.133,4.133,0,0,0-.078.806v.494h3.822a12.714,12.714,0,0,0,1.3-.052,5.92,5.92,0,0,0-.052.871v.767a5.843,5.843,0,0,0,.052.9h-.845v-1.768h-9.152v1.768H134.8a5.966,5.966,0,0,0,.051-.9v-.754a6,6,0,0,0-.051-.884,12.821,12.821,0,0,0,1.313.052h3.575Z"/><path class="cls-5" d="M148.935,290.941a6.276,6.276,0,0,0-1.092.065v-.871a5.263,5.263,0,0,0,1.118.078h1.911a4.95,4.95,0,0,0,1.079-.078v.858a8.022,8.022,0,0,0-1.04-.052h-.585V294h.559a4.19,4.19,0,0,0,.858-.065v.832a6.208,6.208,0,0,0-.858-.052h-.559v3.121a18.3,18.3,0,0,0,1.677-.82l.013.82a24.581,24.581,0,0,1-3.328,1.521c-.287.1-.52.208-.7.286l-.272-.91a10.257,10.257,0,0,0,1.807-.56v-3.458h-.612a4.579,4.579,0,0,0-.871.065v-.845a4.4,4.4,0,0,0,.885.065h.6v-3.055Zm4.784,6.1c-.546,0-.9.012-1.261.038.025-.338.039-.715.039-1.313v-4.615a11.359,11.359,0,0,0-.053-1.326,10.031,10.031,0,0,0,1.275.052h3.627a9.832,9.832,0,0,0,1.235-.052,11.264,11.264,0,0,0-.052,1.326v4.589a11.92,11.92,0,0,0,.052,1.352,10.764,10.764,0,0,0-1.261-.051h-.52V300c0,.248.078.273.949.273.65,0,.845-.051.923-.22a5.753,5.753,0,0,0,.156-1.587,3.094,3.094,0,0,0,.78.351c-.169,2.107-.26,2.21-1.963,2.21-1.391,0-1.651-.13-1.651-.819v-3.171h-1.183a4.568,4.568,0,0,1-.754,2.288,5.335,5.335,0,0,1-2.912,2.027,2.6,2.6,0,0,0-.573-.728,4.815,4.815,0,0,0,2.574-1.442,3.325,3.325,0,0,0,.859-2.145Zm-.443-5.006h4.473v-1.417h-4.473Zm0,2.119h4.473v-1.4h-4.473Zm0,2.21h4.473v-1.5h-4.473Z"/><path class="cls-6" d="M27.823,188.792a3.082,3.082,0,1,1-3.082-3.082A3.082,3.082,0,0,1,27.823,188.792Z"/><path class="cls-5" d="M31.248,193.454l2.633-3.951-2.522-3.824h1.682l1.793,2.858,1.709-2.858h1.6l-2.522,3.866,2.549,3.909H36.473l-1.808-2.928-1.82,2.928Z"/><path class="cls-5" d="M40.361,193.454l3.965-10.534h1.7l3.95,10.534H48.29l-1.009-2.774H42.939l-.981,2.774Zm3.026-4.1h3.432L45.1,184.517Z"/><path class="cls-5" d="M51.9,193.454V182.92H55.19c2.158,0,3.447,1.121,3.447,3.138a3.4,3.4,0,0,1-3.769,3.613H53.439v3.783Zm2.956-5.127a1.9,1.9,0,0,0,2.116-2.115,1.78,1.78,0,0,0-2.032-1.933h-1.5v4.048Z"/><path class="cls-5" d="M61.614,193.454V182.92h1.57v10.534Z"/><path class="cls-5" d="M69.318,188.131a1.38,1.38,0,1,1-1.386-1.387A1.369,1.369,0,0,1,69.318,188.131Z"/><path class="cls-5" d="M78.613,193.341a7.3,7.3,0,0,1-1.919.225c-2.451,0-3.838-1.3-3.838-3.712,0-2.76,1.54-4.245,4.048-4.245a7.006,7.006,0,0,1,1.7.183v1.246a7.075,7.075,0,0,0-1.624-.2c-1.709,0-2.592.883-2.592,2.816,0,1.863.826,2.7,2.773,2.7a7.174,7.174,0,0,0,1.457-.154Z"/><path class="cls-5" d="M81.9,193.454v-7.775h1.429v.715a3.287,3.287,0,0,1,2.241-.812,2.42,2.42,0,0,1,2.1,1.022,3.621,3.621,0,0,1,2.6-1.022,2.425,2.425,0,0,1,2.592,2.661v5.211H91.341v-4.875c0-1.261-.63-1.723-1.555-1.723a2.558,2.558,0,0,0-1.723.743,3.015,3.015,0,0,1,.071.644v5.211H86.606v-4.875c0-1.261-.644-1.709-1.554-1.709a2.484,2.484,0,0,0-1.639.672v5.912Z"/><path class="cls-5" d="M95.718,184.2v-1.737H97.44V184.2Zm.1,9.259v-7.775h1.528v7.775Z"/><path class="cls-5" d="M100.785,192.011a7.417,7.417,0,0,0,1.989.28c1.639,0,2.536-.63,2.536-2.031,0-1.331-.8-2-2.284-2a5.939,5.939,0,0,0-1.653.252l-.448-.42.211-5.169h5.421v1.359h-4.105l-.126,2.843a6.538,6.538,0,0,1,1.246-.112c2.3,0,3.334,1.247,3.334,3.1,0,2.1-1.386,3.53-3.964,3.53a9.133,9.133,0,0,1-2.157-.239Z"/><path class="cls-6" d="M27.823,206.792a3.082,3.082,0,1,1-3.082-3.082A3.082,3.082,0,0,1,27.823,206.792Z"/><path class="cls-5" d="M32.553,211.454V200.92h1.4v9.147h4.474v1.387Z"/><path class="cls-5" d="M41.07,211.454V200.92h3.013a2.655,2.655,0,0,1,2.975,2.83,2.972,2.972,0,0,1-1.854,3.025l2.874,4.679H46.364l-2.445-4.175H42.432v4.175Zm2.572-5.477a1.774,1.774,0,0,0,1.941-1.961,1.593,1.593,0,0,0-1.79-1.737H42.432v3.7Z"/><path class="cls-5" d="M49.865,209.717a5.987,5.987,0,0,0,2.407.532c1.336,0,1.777-.7,1.777-1.443,0-.882-.289-1.288-1.487-1.919l-.656-.336a2.837,2.837,0,0,1-1.915-2.83,2.885,2.885,0,0,1,3.2-2.955,7.127,7.127,0,0,1,2.017.308v1.5a5.621,5.621,0,0,0-2.117-.42c-1.1,0-1.664.546-1.664,1.387,0,.742.239,1.134,1.248,1.652l.68.365c1.538.8,2.18,1.47,2.18,2.913a3,3,0,0,1-3.289,3.166,5.989,5.989,0,0,1-2.382-.448Z"/><path class="cls-5" d="M61.421,206.131a1.249,1.249,0,1,1-1.248-1.387A1.317,1.317,0,0,1,61.421,206.131Z"/><path class="cls-5" d="M72.081,211.4a11.793,11.793,0,0,1-2.055.183c-2.936,0-5.117-1.513-5.117-5.225,0-3.824,2.445-5.547,5.117-5.547a9.574,9.574,0,0,1,1.979.168v1.457a8.889,8.889,0,0,0-1.966-.21c-2.143,0-3.655,1.359-3.655,3.95,0,3.025,1.688,4.006,3.932,4.006a10.259,10.259,0,0,0,1.765-.168Z"/><path class="cls-5" d="M78.367,211.454a5.658,5.658,0,0,1-.113-.715,2.9,2.9,0,0,1-2.106.813,2,2,0,0,1-2.079-2.1c0-1.457.542-2.438,4.046-2.62v-.2c0-1.065-.467-1.765-1.45-1.765a4.234,4.234,0,0,0-1.714.392v-1.177a4.468,4.468,0,0,1,2.13-.5c1.626,0,2.332,1.176,2.332,2.857v2.353a17.9,17.9,0,0,0,.164,2.662Zm-.252-3.5c-2.067.168-2.684.532-2.684,1.344a.979.979,0,0,0,1.108,1.079,2.441,2.441,0,0,0,1.576-.616Z"/><path class="cls-5" d="M84.149,211.454c-1.058,0-1.676-.449-1.676-1.751V200.22h1.361v9.147c0,.686.227.84.706.84h.4v1.247Z"/><path class="cls-5" d="M87.059,202.2v-1.737h1.55V202.2Zm.087,9.259v-7.775h1.375v7.775Z"/><path class="cls-5" d="M91.569,214.956V203.679h1.223v.575a3.084,3.084,0,0,1,1.94-.672c1.614,0,2.937,1.176,2.937,3.669,0,2.97-1.689,4.3-3.692,4.3a5.354,5.354,0,0,1-1.046-.1v3.5Zm2.319-4.623c1.286,0,2.37-.771,2.37-2.8,0-2.088-1.022-2.7-1.967-2.7a2.368,2.368,0,0,0-1.36.42v5.085Z"/><path class="cls-5" d="M105.153,211.257a7.06,7.06,0,0,1-2.13.309c-2.483,0-3.377-1.653-3.377-3.7,0-2.676,1.235-4.259,3.175-4.259,1.867,0,2.736,1.289,2.736,3.25v1.2H101.02c.087,1.835,1.1,2.3,2.5,2.3a5.932,5.932,0,0,0,1.638-.224Zm-.907-4.37c-.025-1.6-.642-2.045-1.525-2.045-.832,0-1.537.533-1.676,2.045Z"/><path class="cls-5" d="M108.051,211.454v-7.775h1.2v1.373h.088a1.9,1.9,0,0,1,1.865-1.47,2.835,2.835,0,0,1,.529.042v1.344a2.117,2.117,0,0,0-.566-.07c-.945,0-1.739.659-1.739,2.2v4.357Z"/><path class="cls-6" d="M27.823,169.451a3.082,3.082,0,1,1-3.082-3.081A3.082,3.082,0,0,1,27.823,169.451Z"/><path class="cls-5" d="M38.63,173.819c0,.994-.309,1.2-1.821,1.2-.323,0-1.051-.028-1.513-.056a4.164,4.164,0,0,0-.378-1.233,12.773,12.773,0,0,0,1.736.141c.617,0,.715-.042.715-.323v-2.325h-3.88a11.5,11.5,0,0,0-1.583.084v-1.289a11.126,11.126,0,0,0,1.569.084h3.894v-.153a6.708,6.708,0,0,0-.042-.757h.588a9.249,9.249,0,0,0,1.976-1.3h-4.3a11.492,11.492,0,0,0-1.345.069v-1.176a11.825,11.825,0,0,0,1.373.07h4.706a5.95,5.95,0,0,0,1.037-.056l.659.714-.239.2c-.028.028-.112.1-.252.21a16.938,16.938,0,0,1-2.9,2v.182H42.4a11.027,11.027,0,0,0,1.6-.084v1.289a11.031,11.031,0,0,0-1.6-.084H38.63Zm-4.2-9.133a9.18,9.18,0,0,0-1.135-1.639l1.162-.35a11.291,11.291,0,0,1,1.3,1.989h1.681a8.824,8.824,0,0,0-.911-1.821l1.2-.337a12.207,12.207,0,0,1,.981,2.158h1.3a7.71,7.71,0,0,0,1.232-2.115l1.232.392a17.4,17.4,0,0,1-1.134,1.723h.785c.812,0,1.134-.014,1.652-.056a8.225,8.225,0,0,0-.055,1.134v1.163a8.017,8.017,0,0,0,.07,1.023H42.538v-2.214H33.307v2.214H32.046a7.049,7.049,0,0,0,.07-1.023v-1.163a8.225,8.225,0,0,0-.055-1.134,12.493,12.493,0,0,0,1.61.056Z"/><path class="cls-5" d="M50.43,166.7a27.314,27.314,0,0,1-3,1.443,3.96,3.96,0,0,0-.589.266l-.42-1.163a15.9,15.9,0,0,0,3.95-1.611Zm.938,2.535q.357-.63.547-1.05a1.942,1.942,0,0,1-1.4.35c-.224,0-.728-.028-.994-.042a3.836,3.836,0,0,0-.294-1.093,7.455,7.455,0,0,0,1.232.112c.462,0,.519-.042.519-.364v-3.193H47.755a7.554,7.554,0,0,0-1.275.069v-1.218a9.7,9.7,0,0,0,1.485.084h2.857a9.346,9.346,0,0,0,1.359-.056,10.117,10.117,0,0,0-.056,1.358v3.1a1.449,1.449,0,0,1-.14.8l1.218.224a9.6,9.6,0,0,1-.546.925h2.8a13.048,13.048,0,0,0,1.513-.056,13.145,13.145,0,0,0-.056,1.541v2.858A8.8,8.8,0,0,0,57,175.093H55.683v-.574h-6.4v.574h-1.3a7.722,7.722,0,0,0,.083-1.512v-2.844a13.02,13.02,0,0,0-.055-1.555,13.988,13.988,0,0,0,1.513.056Zm-2.478-3.152a8.285,8.285,0,0,0-1.864-1.3l.785-.7a11.634,11.634,0,0,1,1.891,1.233Zm.391,5.211H55.7v-1.022H49.281Zm0,2.185H55.7V172.32H49.281Zm4.539-9.524a7.861,7.861,0,0,0-1.275.069v-1.218a10.362,10.362,0,0,0,1.485.084h2.844a8.8,8.8,0,0,0,1.3-.056,11.319,11.319,0,0,0-.057,1.372v3.124c0,.659-.056.827-.308,1.022a2.042,2.042,0,0,1-1.247.225c-.392,0-.77-.014-1.232-.056a3.3,3.3,0,0,0-.252-1.135,7.925,7.925,0,0,0,1.274.126c.575,0,.6-.014.6-.364v-3.193Zm2.591,2.773a24.448,24.448,0,0,1-2.759,1.219,5.137,5.137,0,0,0-.644.279l-.393-1.176a12.923,12.923,0,0,0,3.754-1.4Zm-1.625-.617a9.82,9.82,0,0,0-1.932-1.316l.742-.7a10.576,10.576,0,0,1,1.961,1.247Z"/><path class="cls-5" d="M68,165.82l-.183.323h3.6a10.351,10.351,0,0,0,1.359-.071v.967a11.447,11.447,0,0,0-1.344-.056H67.3c-.126.182-.266.364-.378.518h3.908c.6,0,1.036-.014,1.289-.042a6.965,6.965,0,0,0-.042,1.051v1.219a7.742,7.742,0,0,0,.042,1.008h-.169c-.223-.014-.462-.028-.854-.028H68.716c-.21.28-.267.35-.406.518h2.1c.42,0,.714-.014,1.036-.042l.588.532a2.741,2.741,0,0,0-.252.267,8.973,8.973,0,0,1-1.638,1.429,13.473,13.473,0,0,0,3.067.616,3.866,3.866,0,0,0-.5,1.106A13.37,13.37,0,0,1,69.136,174a13.751,13.751,0,0,1-3.628,1.135,3.908,3.908,0,0,0-.532-.994,11.378,11.378,0,0,0,3.208-.728,5.942,5.942,0,0,1-1.135-1,7.767,7.767,0,0,1-1.541.911,2.59,2.59,0,0,0-.616-.813,5.452,5.452,0,0,0,2.675-1.807h-.252c-.518,0-.659.014-.966.028a6.8,6.8,0,0,0,.055-1.065v-1.554c-.139.153-.168.182-.349.378a3.707,3.707,0,0,0-.855-.7,5.479,5.479,0,0,0,1.681-2.269H64.906l.84.462a10.832,10.832,0,0,1-2.381,2.466,6.459,6.459,0,0,0-.616-.686c-.042,1.106-.042,1.134-.183,2.493a6.787,6.787,0,0,0,2.3-2.3l.9.673a10.122,10.122,0,0,1-.994,1.2v3.684c0,.589.028,1.177.07,1.569h-1.3a10.3,10.3,0,0,0,.084-1.541v-1.47c0-.407.014-1.009.042-1.331a7.683,7.683,0,0,1-.77.687,3.8,3.8,0,0,0-.378-.687A11.921,11.921,0,0,1,61.334,175a4.389,4.389,0,0,0-1.022-1.022,6.89,6.89,0,0,0,.812-2.158,36.385,36.385,0,0,0,.5-7.087,16.449,16.449,0,0,0-.07-1.947c.392.042.995.07,1.737.07H70.9a14.351,14.351,0,0,0,1.527-.07,6.856,6.856,0,0,0-.042.854v.981c0,.266.013.588.042.952-.336-.028-.925-.042-1.457-.042H67.2Zm-5.2-.294c-.014.995-.014,1.289-.042,1.779v.252a5.705,5.705,0,0,0,1.905-2.031Zm8.419-.952v-.743H62.818v.743Zm-3.769,4.174H71v-.5H67.455Zm0,1.218H71v-.518H67.455Zm.448,2.088a5.144,5.144,0,0,0,1.247.91,6.262,6.262,0,0,0,1.275-.91Z"/><path class="cls-5" d="M77.28,165.2c0,5.2-.391,7.76-1.5,9.791a5.281,5.281,0,0,0-.995-1.064c.967-1.779,1.275-3.867,1.275-8.6a20.338,20.338,0,0,0-.083-2.339c.433.042,1.007.07,1.736.07h8.013a12.069,12.069,0,0,0,1.625-.084v1.247c-.295-.029-.813-.057-1.457-.057H77.28Zm4.441,5.463a5.639,5.639,0,0,0-.07-.98h1.317a5.918,5.918,0,0,0-.056.98v.322h2.213a12.15,12.15,0,0,0,1.429-.056v1.177a13.945,13.945,0,0,0-1.429-.056H82.912v1.485h2.871a15.847,15.847,0,0,0,1.654-.071v1.247a14.059,14.059,0,0,0-1.808-.084H78.71a13.465,13.465,0,0,0-1.724.084v-1.247a12.434,12.434,0,0,0,1.415.071h.323v-1.948a5.447,5.447,0,0,0-.071-.966h1.3a4.3,4.3,0,0,0-.07.966v1.948h1.835Zm-3.375-4.329a5.054,5.054,0,0,0-.743.042v-1.05a3.469,3.469,0,0,0,.743.056h1.133v-.112a4.113,4.113,0,0,0-.055-.84H80.53a3.59,3.59,0,0,0-.055.854v.1h.686a5.257,5.257,0,0,0,.8-.042v1.036a4.711,4.711,0,0,0-.729-.042h-.49a4.445,4.445,0,0,0,1.36,1.3,5.325,5.325,0,0,0-.673.8,4.7,4.7,0,0,1-1.009-1.261c.028.378.043.728.057,1.065v.8a4.317,4.317,0,0,0,.07.911H79.4a4.641,4.641,0,0,0,.083-.925v-.784c0-.252.015-.449.015-.6l.014-.21.013-.2a7.028,7.028,0,0,1-1.61,2.129,3.2,3.2,0,0,0-.7-.84,6.838,6.838,0,0,0,1.989-2.186Zm4.706,0a4.241,4.241,0,0,0-.714.042v-1.036a6.953,6.953,0,0,0,.84.042h.757v-.1a5.049,5.049,0,0,0-.057-.854H85a3.533,3.533,0,0,0-.056.868v.084H86.3a4.261,4.261,0,0,0,.854-.056v1.05a6.851,6.851,0,0,0-.841-.042H85.223a7.137,7.137,0,0,0,2.423,2.242,5.993,5.993,0,0,0-.784.91,7.786,7.786,0,0,1-1.989-2.339c.027.21.027.308.042.434l.028.673v.784a4.066,4.066,0,0,0,.07.911H83.864a5.8,5.8,0,0,0,.071-.883v-.715c0-.055,0-.139.013-.63l.014-.238c0-.014.015-.112.015-.224a6.884,6.884,0,0,1-1.709,2.171,3.1,3.1,0,0,0-.729-.756,6.645,6.645,0,0,0,2.129-2.34Z"/><path class="cls-6" d="M148.857,169.643a2.86,2.86,0,1,1-2.86-2.86A2.86,2.86,0,0,1,148.857,169.643Z"/><path class="cls-5" d="M152.813,172.943a15.65,15.65,0,0,0,3.03-7.384l1.365.3a17.325,17.325,0,0,1-3.225,7.892Zm8.126-7.657a29.553,29.553,0,0,1,3.5,7.852l-1.405.572a30.849,30.849,0,0,0-3.276-7.878Zm3.8-.82a1.508,1.508,0,1,1-1.521-1.521A1.512,1.512,0,0,1,164.735,164.466Zm-2.327,0a.789.789,0,0,0,.806.82.826.826,0,1,0,0-1.652A.792.792,0,0,0,162.408,164.466Z"/><path class="cls-5" d="M176.708,168.471v1.352H166.321v-1.352Z"/><path class="cls-5" d="M179.971,164.766a15.142,15.142,0,0,1,2,3.666l-1.261.61a16.257,16.257,0,0,0-1.911-3.705Zm7.982.181c-.624,4.72-2.912,8.035-6.669,9.647l-.806-1.118c3.6-1.547,5.59-4.434,6.084-8.788Z"/><path class="cls-5" d="M194.726,163.907h1.338v3.263h4.33v1.2h-4.355a6.444,6.444,0,0,1-3.9,6.162l-.846-1.092a5.24,5.24,0,0,0,3.42-5.07h-4.537v-1.2h4.55Z"/><path class="cls-5" d="M211.613,168.132a8.492,8.492,0,0,1-6.474,6.527l-.676-1.144c3.133-.858,4.953-2.522,5.694-4.967H202.4v-1.182h8.515Zm-1.26-3.705V165.6h-6.722v-1.171Z"/><path class="cls-5" d="M219.959,174.542h-1.378v-6.11a23.228,23.228,0,0,1-4.173,2.067l-.78-1.066a19.252,19.252,0,0,0,8.294-5.591l1.17.832a23.567,23.567,0,0,1-3.133,2.822Z"/><path class="cls-5" d="M234.61,174.568a23.44,23.44,0,0,0-3.548-3.861,15.389,15.389,0,0,1-5.083,3.757l-.833-1.04a13.181,13.181,0,0,0,7.19-7.306h-5.981V164.9h6.838l.754.871a16.119,16.119,0,0,1-2.132,3.991,22.2,22.2,0,0,1,3.94,3.874Zm-.3-11.246a9.408,9.408,0,0,1,1.053,2.262l-.871.326a10.256,10.256,0,0,0-.988-2.327Zm1.507-.52a8.669,8.669,0,0,1,1.132,2.223l-.871.326a8.052,8.052,0,0,0-1.04-2.263Z"/><path class="cls-5" d="M241.384,167.561a25.066,25.066,0,0,1,5.239,2.314l-.6,1.208a27.288,27.288,0,0,0-4.64-2.222v5.733h-1.34V163.83h1.34Zm3.172-2.991a8.47,8.47,0,0,1,1.39,2.068l-.805.454a8.816,8.816,0,0,0-1.327-2.118Zm1.429-.728A8.2,8.2,0,0,1,247.4,165.9l-.793.43a9.213,9.213,0,0,0-1.351-2.068Z"/><path class="cls-5" d="M255.346,173.84c0,.923-.286,1.118-1.691,1.118-.3,0-.975-.026-1.4-.052a3.85,3.85,0,0,0-.351-1.144,11.989,11.989,0,0,0,1.612.13c.572,0,.663-.039.663-.3v-2.158h-3.6a10.513,10.513,0,0,0-1.469.078v-1.2a10.466,10.466,0,0,0,1.457.078h3.613v-.144a6.243,6.243,0,0,0-.038-.7h.546a8.571,8.571,0,0,0,1.833-1.21h-3.992a10.606,10.606,0,0,0-1.248.066v-1.093a10.756,10.756,0,0,0,1.274.065h4.368a5.553,5.553,0,0,0,.963-.051l.61.663-.22.181c-.027.027-.105.092-.235.2a15.763,15.763,0,0,1-2.69,1.859v.169h3.5a10.354,10.354,0,0,0,1.481-.078v1.2a10.1,10.1,0,0,0-1.481-.078h-3.5Zm-3.9-8.477a8.538,8.538,0,0,0-1.052-1.521l1.078-.324a10.588,10.588,0,0,1,1.209,1.845h1.56a8.2,8.2,0,0,0-.844-1.69l1.118-.312a11.407,11.407,0,0,1,.909,2h1.21a7.114,7.114,0,0,0,1.143-1.963l1.144.364a15.8,15.8,0,0,1-1.053,1.6h.729c.754,0,1.052-.012,1.534-.051a7.587,7.587,0,0,0-.053,1.053v1.078a7.418,7.418,0,0,0,.066.95h-1.17v-2.055h-8.568v2.055h-1.17a6.536,6.536,0,0,0,.065-.95v-1.078a7.613,7.613,0,0,0-.052-1.053,11.826,11.826,0,0,0,1.5.051Z"/><path class="cls-5" d="M265.654,167.235a24.916,24.916,0,0,1-2.782,1.34,3.7,3.7,0,0,0-.546.247l-.389-1.079a14.761,14.761,0,0,0,3.666-1.5Zm.871,2.353q.332-.583.507-.974a1.8,1.8,0,0,1-1.3.324c-.208,0-.675-.025-.922-.039a3.528,3.528,0,0,0-.274-1.013,6.934,6.934,0,0,0,1.145.1c.428,0,.48-.039.48-.339v-2.963h-2.99a7.119,7.119,0,0,0-1.183.064v-1.13a9.172,9.172,0,0,0,1.378.077h2.653a8.507,8.507,0,0,0,1.26-.052,9.461,9.461,0,0,0-.051,1.262v2.873a1.355,1.355,0,0,1-.13.74l1.131.208a9.135,9.135,0,0,1-.507.858h2.6a12.166,12.166,0,0,0,1.4-.051,12.177,12.177,0,0,0-.052,1.43v2.652a8.165,8.165,0,0,0,.078,1.4h-1.223v-.533h-5.941v.533h-1.209a7.149,7.149,0,0,0,.078-1.4v-2.64a11.99,11.99,0,0,0-.052-1.442,13.054,13.054,0,0,0,1.405.051Zm-2.3-2.924a7.655,7.655,0,0,0-1.73-1.209l.729-.651a10.731,10.731,0,0,1,1.755,1.145Zm.363,4.836h5.955v-.949h-5.955Zm0,2.028h5.955v-1.079h-5.955Zm4.213-8.84a7.426,7.426,0,0,0-1.184.064v-1.13A9.791,9.791,0,0,0,269,163.7h2.64a8.008,8.008,0,0,0,1.209-.052,10.562,10.562,0,0,0-.052,1.274v2.9c0,.611-.053.766-.286.949a1.9,1.9,0,0,1-1.157.208c-.365,0-.715-.014-1.144-.052a3.054,3.054,0,0,0-.234-1.053,7.337,7.337,0,0,0,1.182.117c.534,0,.56-.013.56-.339v-2.963Zm2.405,2.574a22.6,22.6,0,0,1-2.561,1.131,4.536,4.536,0,0,0-.6.26l-.364-1.092a12.03,12.03,0,0,0,3.484-1.3Zm-1.509-.573a9.1,9.1,0,0,0-1.794-1.222l.69-.65a9.755,9.755,0,0,1,1.819,1.158Z"/><path class="cls-6" d="M148.857,187.643a2.86,2.86,0,1,1-2.86-2.86A2.86,2.86,0,0,1,148.857,187.643Z"/><path class="cls-5" d="M155.9,186.146c-.13,3.106-.7,5.161-1.885,6.851a3.145,3.145,0,0,0-.937-.923,7.4,7.4,0,0,0,1.262-2.873,26.042,26.042,0,0,0,.429-5.46c0-.806-.027-1.366-.066-1.834a12.7,12.7,0,0,0,1.483.065h6.656a9.986,9.986,0,0,0,1.508-.077v1.273a10.848,10.848,0,0,0-1.508-.064h-6.9v1.95h5.655a8.554,8.554,0,0,0,1.261-.065l.611.689c-.065.116-.091.169-.117.208a1.861,1.861,0,0,0-.078.195l-.118.273a11.742,11.742,0,0,1-2.4,3.653,11.506,11.506,0,0,0,4.029,1.768,5.857,5.857,0,0,0-.7,1.209,11.543,11.543,0,0,1-4.2-2.171,13.242,13.242,0,0,1-3.939,2.223,3.066,3.066,0,0,0-.742-1.092,11.924,11.924,0,0,0,3.81-1.911,8.991,8.991,0,0,1-2.354-3.887Zm1.937,0a7.4,7.4,0,0,0,2.027,3.146,8.81,8.81,0,0,0,2.107-3.146Z"/><path class="cls-5" d="M170.208,191.853a7.112,7.112,0,0,0,.091,1.131h-1.183a7.773,7.773,0,0,0,.078-1.17v-.884h-1.171a9.366,9.366,0,0,0-1.195.065v-1.119a6.449,6.449,0,0,0,1.144.066h1.222v-.91h-.65c-.585,0-.806.012-1.261.039a12.181,12.181,0,0,0,.052-1.365v-2.081a11.037,11.037,0,0,0-.052-1.3,10.14,10.14,0,0,0,1.235.051h.676v-.9h-1.118a8.715,8.715,0,0,0-1.144.053V182.44a6.872,6.872,0,0,0,1.2.065h1.066v-.143a6.61,6.61,0,0,0-.078-1.066H170.3a5.614,5.614,0,0,0-.091,1.066v.143h1.027a6.7,6.7,0,0,0,1.183-.065v1.093a8.37,8.37,0,0,0-1.131-.053h-1.079v.9h.845a10.014,10.014,0,0,0,1.079-.039c-.026.2-.039.638-.039,1.223v2.184c0,.65.013,1.091.039,1.326a10.507,10.507,0,0,0-1.131-.039h-.793v.91h1.066a5.865,5.865,0,0,0,1.053-.066V191a8.406,8.406,0,0,0-1.131-.065h-.988Zm-1.95-6.553v.95h.962v-.95Zm0,1.782v1.027h.962v-1.027Zm2.925-.832v-.95H170.2v.95Zm0,1.859v-1.027H170.2v1.027Zm2.5-1.418a9.486,9.486,0,0,0-1.183.065v-1.195a6.662,6.662,0,0,0,1.209.078h3.5a6.587,6.587,0,0,0,1.2-.078v1.195a9.243,9.243,0,0,0-1.2-.065h-1.846a36.733,36.733,0,0,1-1.43,4.525c1.235-.156,1.925-.26,2.847-.455a23.274,23.274,0,0,0-1.13-2.574l.974-.4a31.458,31.458,0,0,1,1.885,4.589l-1.04.533c-.3-.962-.3-.962-.377-1.222a41.027,41.027,0,0,1-4.276.78,7.315,7.315,0,0,0-.729.13l-.247-1.209c.273,0,.468-.013.91-.052a28.072,28.072,0,0,0,1.43-4.642Zm-.728-4.445a5.313,5.313,0,0,0,1.183.077h2.639a5.307,5.307,0,0,0,1.183-.077v1.195h-.091l-.052-.013-.156-.012c-.13-.014-.533-.026-.884-.026h-2.639a8.721,8.721,0,0,0-1.183.065Z"/><path class="cls-5" d="M186.835,191.84c0,.923-.286,1.118-1.69,1.118-.3,0-.975-.026-1.405-.052a3.824,3.824,0,0,0-.35-1.144,11.977,11.977,0,0,0,1.612.13c.571,0,.662-.039.662-.3v-2.158h-3.6a10.5,10.5,0,0,0-1.468.078v-1.2a10.45,10.45,0,0,0,1.456.078h3.613v-.144a6.009,6.009,0,0,0-.039-.7h.547a8.571,8.571,0,0,0,1.833-1.21h-3.991a10.594,10.594,0,0,0-1.248.066v-1.093a10.713,10.713,0,0,0,1.273.065h4.368a5.532,5.532,0,0,0,.962-.051l.611.663-.22.181c-.027.027-.1.092-.235.2a15.724,15.724,0,0,1-2.69,1.859v.169h3.5a10.345,10.345,0,0,0,1.481-.078v1.2a10.077,10.077,0,0,0-1.481-.078h-3.5Zm-3.9-8.477a8.559,8.559,0,0,0-1.054-1.521l1.079-.324a10.645,10.645,0,0,1,1.21,1.845h1.559a8.2,8.2,0,0,0-.844-1.69l1.118-.312a11.407,11.407,0,0,1,.909,2h1.209a7.1,7.1,0,0,0,1.145-1.963l1.144.364a15.8,15.8,0,0,1-1.054,1.6h.729c.754,0,1.053-.012,1.534-.051a7.587,7.587,0,0,0-.053,1.053v1.078a7.418,7.418,0,0,0,.066.95h-1.17v-2.055H181.9v2.055h-1.17a6.55,6.55,0,0,0,.064-.95v-1.078a7.613,7.613,0,0,0-.052-1.053,11.843,11.843,0,0,0,1.5.051Z"/><path class="cls-5" d="M197.794,185.235a25,25,0,0,1-2.782,1.34,3.7,3.7,0,0,0-.546.247l-.39-1.079a14.731,14.731,0,0,0,3.666-1.5Zm.871,2.353q.332-.583.507-.974a1.8,1.8,0,0,1-1.3.324c-.208,0-.676-.025-.923-.039a3.527,3.527,0,0,0-.273-1.013,6.932,6.932,0,0,0,1.144.1c.429,0,.481-.039.481-.339v-2.963h-2.99a7.119,7.119,0,0,0-1.183.064v-1.13a9.163,9.163,0,0,0,1.378.077h2.652a8.515,8.515,0,0,0,1.261-.052,9.412,9.412,0,0,0-.052,1.262v2.873a1.346,1.346,0,0,1-.13.74l1.131.208a9.135,9.135,0,0,1-.507.858h2.6a12.146,12.146,0,0,0,1.4-.051,12.177,12.177,0,0,0-.052,1.43v2.652a8.134,8.134,0,0,0,.079,1.4h-1.223v-.533h-5.94v.533h-1.21a7.149,7.149,0,0,0,.078-1.4v-2.64a11.99,11.99,0,0,0-.052-1.442,13.033,13.033,0,0,0,1.4.051Zm-2.3-2.924a7.648,7.648,0,0,0-1.729-1.209l.728-.651a10.688,10.688,0,0,1,1.755,1.145Zm.365,4.836h5.954v-.949h-5.954Zm0,2.028h5.954v-1.079h-5.954Zm4.211-8.84a7.42,7.42,0,0,0-1.183.064v-1.13a9.781,9.781,0,0,0,1.378.077h2.639a8,8,0,0,0,1.209-.052,10.606,10.606,0,0,0-.051,1.274v2.9c0,.611-.053.766-.286.949a1.9,1.9,0,0,1-1.158.208c-.364,0-.715-.014-1.144-.052a3.009,3.009,0,0,0-.234-1.053,7.369,7.369,0,0,0,1.183.117c.533,0,.56-.013.56-.339v-2.963Zm2.406,2.574a22.532,22.532,0,0,1-2.562,1.131,4.636,4.636,0,0,0-.6.26l-.365-1.092a12.035,12.035,0,0,0,3.485-1.3Zm-1.509-.573a9.132,9.132,0,0,0-1.794-1.222l.689-.65a9.8,9.8,0,0,1,1.821,1.158Z"/><path class="cls-5" d="M210.937,187.172a1.281,1.281,0,1,1-1.288-1.286A1.272,1.272,0,0,1,210.937,187.172Z"/><path class="cls-5" d="M223.612,183.663l.754.728c-.468,4.394-2.431,6.89-6.253,8.19l-.716-1.157c3.524-1.183,5.136-3.224,5.539-6.591h-6.579v2.743h-1.338v-3.913H218.8v-1.99h1.352v1.99Z"/><path class="cls-5" d="M231.282,191.008v-4.382h-3.106v-1.105h7.5v1.105H232.53v4.382h3.849v1.1h-8.866v-1.1Z"/><path class="cls-5" d="M241.838,189.76c0,.819.416,1.157,2.054,1.157a24.248,24.248,0,0,0,4.784-.429l.156,1.287a26.528,26.528,0,0,1-4.927.377c-2.535,0-3.38-.663-3.38-2.132v-7.788h1.313v3.953a20.316,20.316,0,0,0,5.629-2.263l.677,1.17a24.5,24.5,0,0,1-6.306,2.262Zm6.137-8.2a8.6,8.6,0,0,1,1.4,2.08l-.806.443a9.41,9.41,0,0,0-1.326-2.107Zm1.442-.7a8.926,8.926,0,0,1,1.417,2.028l-.793.443a9.647,9.647,0,0,0-1.352-2.068Z"/><path class="cls-5" d="M256.71,181.907h1.339v3.263h4.329v1.2h-4.355a6.443,6.443,0,0,1-3.9,6.162l-.846-1.092a5.24,5.24,0,0,0,3.42-5.07H252.16v-1.2h4.55Z"/><path class="cls-5" d="M275.534,186.172V187.6H265.147v-1.424Z"/><path class="cls-6" d="M148.857,206.636a2.86,2.86,0,1,1-2.86-2.86A2.86,2.86,0,0,1,148.857,206.636Z"/><path class="cls-5" d="M160.679,204.658c-.338,3.55-1.9,5.811-4.824,7.151l-.832-1.04a6.752,6.752,0,0,0,4.3-6.111h-3.342a11.918,11.918,0,0,1-2.014,2.288l-.975-.754a12.574,12.574,0,0,0,3.51-5.512l1.273.377a14.289,14.289,0,0,1-1.065,2.431h7.15v1.17Zm1.157-4.134a9.911,9.911,0,0,1,1.144,2.223l-.871.351a9.838,9.838,0,0,0-1.066-2.262Zm1.495-.572a8.979,8.979,0,0,1,1.209,2.184l-.845.351a8.609,8.609,0,0,0-1.131-2.21Z"/><path class="cls-5" d="M176.564,205.464v1.352H166.178v-1.352Z"/><path class="cls-5" d="M179.7,208.168a35.91,35.91,0,0,1,7.865,2.081l-.416,1.273a42.274,42.274,0,0,0-7.9-2.119Zm1.04-3.562a28.024,28.024,0,0,1,5.772,1.456l-.4,1.222a31.23,31.23,0,0,0-5.8-1.5Zm.065-3.406a32.06,32.06,0,0,1,6.513,1.391l-.4,1.235a34.7,34.7,0,0,0-6.591-1.456Z"/><path class="cls-5" d="M199.536,202.76a10.49,10.49,0,0,1-7.111,8.737l-.728-1.158a9.155,9.155,0,0,0,6.344-7.085H190.4v-1.222h8.386Z"/><path class="cls-5" d="M207.323,211.756h-1.261v-5.083a19.976,19.976,0,0,1-3.431,1.678l-.677-.976a16.011,16.011,0,0,0,6.956-4.68l1.014.767a18.319,18.319,0,0,1-2.6,2.34Z"/><path class="cls-5" d="M219.479,204.528c-.338,3.549-1.9,5.811-4.824,7.151l-.832-1.04a6.753,6.753,0,0,0,4.3-6.111h-3.342a11.884,11.884,0,0,1-2.014,2.288l-.975-.754a12.574,12.574,0,0,0,3.51-5.512l1.274.377a14.454,14.454,0,0,1-1.066,2.431h7.15v1.17Z"/><path class="cls-5" d="M235.013,205.464v1.352H224.626v-1.352Z"/><path class="cls-5" d="M238.12,204.164a14.167,14.167,0,0,1,3.236,1.612l-.649,1.144a18.055,18.055,0,0,0-3.186-1.69Zm-.312,5.851c4.069-.612,6.981-2.419,8.71-6.215l1.118.845c-1.885,4.017-5.083,5.955-9.451,6.695Zm1.417-8.88a13.751,13.751,0,0,1,3.146,1.586l-.65,1.131a16.839,16.839,0,0,0-3.108-1.664Z"/><path class="cls-5" d="M250.847,207.609v-1.118h5.563v-2H250.4v-1.105h7.215v8.4H256.41v-.805h-6.084v-1.1h6.084v-2.263Z"/><path class="cls-5" d="M261.963,201.707a14.588,14.588,0,0,1,3.081,2.5l-.987,1.04a18.041,18.041,0,0,0-2.939-2.639Zm-.611,8.216c4.03-.91,6.917-3.081,8.307-6.76l1.184.7c-1.509,4.017-4.8,6.384-9.062,7.306Z"/><path class="cls-5" d="M156.062,213.649h.064a2.086,2.086,0,0,1,.81.164c-.11.464-.228.927-.374,1.391.41-.036.81-.081,1.209-.136a2.159,2.159,0,0,1,.055.509c0,.1-.009.2-.017.291-.483.073-.992.128-1.51.173a21.962,21.962,0,0,1-1.719,3.8,1.892,1.892,0,0,1-.782-.446,17.036,17.036,0,0,0,1.582-3.292c-.482.028-.954.046-1.418.046a2.315,2.315,0,0,1-.037-.437,3.317,3.317,0,0,1,.027-.409h.419q.627,0,1.282-.027C155.816,214.74,155.953,214.2,156.062,213.649Zm5.311,6.357a1.55,1.55,0,0,1-.491.755,6.492,6.492,0,0,0-1.6-.982c.01.127.019.236.019.327,0,.973-.664,1.437-1.728,1.437-1.01,0-1.71-.509-1.71-1.346,0-.7.682-1.437,1.919-1.437.191,0,.373.018.564.036-.064-.627-.11-1.345-.118-2.236a2.306,2.306,0,0,1,.436-.046,2.15,2.15,0,0,1,.428.046,20.544,20.544,0,0,0,.118,2.391A6.8,6.8,0,0,1,161.373,220.006Zm-3.574-.491c-.809,0-1.118.345-1.118.682s.291.555.881.555.9-.273.9-.782a3.143,3.143,0,0,0-.027-.382A3.113,3.113,0,0,0,157.8,219.515Zm3.683-3.411a2.193,2.193,0,0,1-.5.737,7.816,7.816,0,0,0-2.046-1.264,2.773,2.773,0,0,1,.41-.691A8.592,8.592,0,0,1,161.482,216.1Z"/><path class="cls-5" d="M169.755,215.768a1.716,1.716,0,0,1,.3.9,13.489,13.489,0,0,0-3.174,1.237c-1.028.582-1.356,1.128-1.356,1.71s.455.955,1.837.955a13.454,13.454,0,0,0,2.938-.337,1.99,1.99,0,0,1,.145.783,1.371,1.371,0,0,1-.008.181,15.3,15.3,0,0,1-3.039.282c-1.982,0-2.819-.7-2.819-1.837,0-.791.519-1.627,1.746-2.373a13.9,13.9,0,0,1-.754-3.12A1.867,1.867,0,0,1,166.3,214a1.473,1.473,0,0,1,.2.009,14.19,14.19,0,0,0,.619,2.81A17.179,17.179,0,0,1,169.755,215.768Zm-.473-2.146a6.94,6.94,0,0,1,.746,1.564l-.6.236a6.464,6.464,0,0,0-.719-1.6Zm1.073-.346a6.08,6.08,0,0,1,.774,1.556l-.609.236a5.662,5.662,0,0,0-.71-1.583Z"/><line class="cls-7" x1="126.747" y1="161.5" x2="126.747" y2="230"/><rect class="cls-8" width="294" height="146"/><rect class="cls-9" width="294" height="146"/><path class="cls-10" d="M53.333,28.594c.46,0,1.381,0,1.8-.04a2.192,2.192,0,0,1,.36-.04,2.381,2.381,0,0,1,1.42,1.32,5.128,5.128,0,0,1-.26.82,13.888,13.888,0,0,1-1.16,2.7,16.725,16.725,0,0,1-4.141,4.722c-.56.46-2.72,2-3.341,2-.46,0-1.38-1.14-1.38-1.48,0-.241.5-.42.7-.52A14.4,14.4,0,0,0,53.474,32.4a5.187,5.187,0,0,0,.54-1.3c0-.48-.54-.44-.861-.44H45.712c-.841,0-1.681.04-2.541.04-.56,0-.56-.2-.56-.98,0-1.021.02-1.16.58-1.16.84,0,1.7.04,2.561.04Zm-1.34-4.322c.82,0,1.84-.059,2.361-.059.5,0,.54.22.54,1.22,0,.68,0,.94-.54.94-.8,0-1.581-.04-2.361-.04h-4.9c-.78,0-1.561.04-2.34.04-.561,0-.561-.24-.561-.98,0-.94.04-1.18.54-1.18.561,0,1.581.059,2.361.059Z"/><path class="cls-10" d="M72.714,30.234c.92,0,2.22-.06,2.48-.06.54,0,.56.16.56,1.26,0,.64-.02,1.021-.54,1.021-.84,0-1.681-.04-2.5-.04h-9.2c-.821,0-1.66.04-2.5.04-.52,0-.54-.381-.54-1,0-1.12.04-1.28.56-1.28.26,0,1.64.06,2.481.06Z"/><path class="cls-10" d="M91.134,34.535c.8,0,1.6-.04,2.4-.04.66,0,.64.18.64,1.22,0,.66,0,1.04-.56,1.04-.82,0-1.661-.04-2.48-.04h-9.2c-.821,0-1.661.04-2.481.04-.56,0-.56-.38-.56-1.06,0-1.02-.02-1.2.64-1.2.8,0,1.6.04,2.4.04Zm-2-8.442c.86,0,1.721-.04,2.581-.04.519,0,.559.2.559,1.12,0,.781.021,1.14-.6,1.14-.841,0-1.681-.04-2.521-.04H83.912c-.841,0-1.681.04-2.52.04-.621,0-.6-.359-.6-1.16,0-.92.061-1.1.561-1.1.86,0,1.719.04,2.58.04Z"/><path class="cls-10" d="M113.274,29.474c0,.34-.8,1.12-1.06,1.38A34.757,34.757,0,0,1,101.352,38.4c-.661.32-.68.34-.84.68a.2.2,0,0,1-.2.12c-.221,0-.641-.8-.781-1.04a5.628,5.628,0,0,1-.6-1.2c0-.221.36-.261.62-.341,4.421-1.3,9.423-5.081,12.262-8.7a.493.493,0,0,1,.341-.221C112.554,27.693,113.274,29.174,113.274,29.474Zm-10.322-3.3c.26.18,1.22.84,1.22,1.14,0,.46-.94,1.541-1.32,1.541a2.124,2.124,0,0,1-.8-.541,25.149,25.149,0,0,0-2.66-1.86c-.161-.1-.321-.2-.321-.38,0-.3.8-1.58,1.26-1.58A15.888,15.888,0,0,1,102.952,26.173Z"/><path class="cls-10" d="M127.173,26.593a3.522,3.522,0,0,0,.8-.06.843.843,0,0,1,.219-.04c.441,0,1.46,1.22,1.46,1.541a1.943,1.943,0,0,1-.24.48c-.119.219-.319.52-.519.92-1.981,3.82-3.9,6.721-7.6,9.1a13.168,13.168,0,0,1-2.721,1.42c-.46,0-1.7-.98-1.7-1.34,0-.2.26-.32.4-.38a17.656,17.656,0,0,0,7.742-6.4,12.468,12.468,0,0,0,1.54-2.92c0-.26-.34-.28-.62-.28h-3.8c-.4.04-.48.04-.84.54-.36.54-2.681,3.3-3.2,3.3-.26,0-1.72-.761-1.72-1.2a.368.368,0,0,1,.18-.28,18.429,18.429,0,0,0,5.341-7.141c.08-.2.16-.48.32-.48a10.391,10.391,0,0,1,1.42.62,2.275,2.275,0,0,0,.261.12c.24.1.6.22.6.4,0,.12-.2.2-.3.26-.24.14-.32.3-.52.66-.079.14-.159.28-.279.48a.789.789,0,0,0-.141.36c0,.2.16.3.341.32Zm4.041-.4c0,.3-.78.84-1.021.84-.12,0-.179-.12-.259-.22-.4-.6-.84-1.2-1.3-1.76a.473.473,0,0,1-.141-.26c0-.24.82-.74,1.04-.74A8.028,8.028,0,0,1,131.214,26.193Zm2.06-1.24c0,.3-.78.82-1.02.82-.14,0-.2-.1-.26-.2a19.375,19.375,0,0,0-1.32-1.761.427.427,0,0,1-.14-.24c0-.26.82-.76,1.04-.76A7.883,7.883,0,0,1,133.274,24.953Z"/><path class="cls-10" d="M146.133,25.673a14.373,14.373,0,0,0,2.081-.1,1.057,1.057,0,0,1,.26-.02c.3,0,.5.26.74.52s.74.8.74,1.16c0,.22-.28.42-.44.54-.12.1-1.62,1.661-1.861,1.921-.7.72-1.74,1.74-2.48,2.4-.14.12-.28.281-.481.281-.339,0-1.46-.881-1.46-1.221,0-.2.361-.48.5-.6a19.543,19.543,0,0,0,2.581-2.56c0-.281-.44-.241-.62-.241h-8.582c-.92,0-1.82.06-2.72.06-.521,0-.54-.22-.54-1.02v-.4c0-.52.04-.76.5-.76.92,0,1.84.04,2.76.04Zm-3.5,3.2c.139.02.42.02.42.24a.309.309,0,0,1-.12.2,3.433,3.433,0,0,0-.4,1.44,12.032,12.032,0,0,1-4.8,8.5c-.16.12-.44.36-.66.36-.34,0-1.64-1.04-1.64-1.4,0-.18.2-.26.48-.441a9.478,9.478,0,0,0,4.181-5.821,10.726,10.726,0,0,0,.32-2.98c0-.161,0-.261.2-.261C140.872,28.713,142.332,28.833,142.633,28.874Z"/><path class="cls-10" d="M159.212,28.574c.56,0,.6-.5.6-.941v-.279c0-.5-.02-3-.08-3.341,0-.06-.02-.18-.02-.241a.179.179,0,0,1,.2-.2c.26,0,1.78.16,2.04.22.12.02.3.1.3.241a.272.272,0,0,1-.1.2c-.179.181-.2.3-.2.661v.32c0,.88-.019,1.76-.019,2.641,0,.379.179.72.6.72h2.661c.88,0,1.76-.06,2.641-.06.479,0,.5.239.5,1.14,0,.86-.12,1.06-.54,1.06-.86,0-1.74-.04-2.6-.04h-2.84c-.441,0-.581.34-.621.7a10.566,10.566,0,0,1-4.22,7.4,7.486,7.486,0,0,1-1.761,1,3.186,3.186,0,0,1-1.641-1.461c0-.2.381-.319.541-.4a8.2,8.2,0,0,0,4.841-6.222,4.671,4.671,0,0,0,.08-.52.5.5,0,0,0-.48-.5h-3.961c-.84,0-1.84.06-2.5.06-.481,0-.54-.28-.54-1.16,0-.781,0-1.06.5-1.06.58,0,1.74.06,2.54.06Z"/><path class="cls-10" d="M175.332,30.734c0,.9.04,1.82.04,2.721,0,.62-.18.7-1.12.7s-1.2-.06-1.2-.6c0-.941.059-1.861.059-2.8V26.533c0-.54-.04-1.06-.059-1.58,0-.12-.021-.24-.021-.36,0-.14.04-.2.181-.2.2,0,1.439.18,1.72.22.42.08.7.08.7.26a.444.444,0,0,1-.1.22,1.84,1.84,0,0,0-.22,1.16c0,.3.02.66.02,1.121Zm7.842-.78a30.428,30.428,0,0,1-.221,4.261,6.783,6.783,0,0,1-2.44,4.641,9.2,9.2,0,0,1-2.2,1.4c-.3,0-1.68-1-1.68-1.36,0-.18.381-.34.541-.42,1.96-1.02,3.22-2.161,3.56-4.421a24.912,24.912,0,0,0,.241-3.861V25.853a10.448,10.448,0,0,0-.061-1.38,2.087,2.087,0,0,1-.04-.34c0-.16.08-.2.24-.2a17.493,17.493,0,0,1,1.981.2c.16.04.4.06.4.24,0,.12-.08.18-.181.28a1.672,1.672,0,0,0-.139.86Z"/><path class="cls-10" d="M201.594,29.734c.84,0,1.68-.06,2.54-.06.62,0,.6.16.6,1.1,0,.68,0,1.06-.54,1.06-.881,0-1.74-.04-2.6-.04h-2.621c-.56,0-.58.52-.64.94a8.167,8.167,0,0,1-4.321,6.3,9.259,9.259,0,0,1-2.08.88c-.441,0-1.54-1.32-1.54-1.66,0-.22.379-.3.559-.34a9.491,9.491,0,0,0,2.5-1.041,5.909,5.909,0,0,0,2.521-3.641,9.164,9.164,0,0,0,.179-.98.469.469,0,0,0-.48-.46h-4.061c-.82,0-1.66.04-2.5.04-.52,0-.541-.3-.541-1.02,0-.92.061-1.14.5-1.14.86,0,1.7.06,2.54.06Zm-2.961-5.241c.86,0,1.721-.04,2.6-.04.54,0,.521.26.521,1.24,0,.62.019.9-.54.9-.841,0-1.7-.04-2.561-.04h-4.361c-.86,0-1.721.04-2.561.04-.6,0-.54-.32-.54-1.08,0-.84.02-1.06.54-1.06.861,0,1.721.04,2.6.04Z"/><path class="cls-10" d="M213.312,37.576c0,.68.041,1.34.041,2.02,0,.5-.42.54-.8.54-1.12,0-1.181-.1-1.181-.64,0-.62.04-1.26.04-1.88V33.475c0-.1-.04-.3-.24-.3-.18,0-.38.179-.52.28a19,19,0,0,1-3.281,1.94,2.371,2.371,0,0,1-1.28-1.32c0-.221.24-.32.46-.42,2.9-1.361,6.2-3.7,7.862-6.462.1-.16.18-.36.34-.36a4.312,4.312,0,0,1,1.181.7c.2.12.559.341.559.6,0,.16-.139.221-.28.241a.977.977,0,0,0-.58.439,24.1,24.1,0,0,1-1.8,2,1.147,1.147,0,0,0-.521,1.1Z"/><path class="cls-10" d="M231.214,26.433a4.755,4.755,0,0,0,1.12-.12c.061,0,.14-.02.22-.02.4,0,1.28,1.1,1.28,1.36a1.271,1.271,0,0,1-.239.5,11.589,11.589,0,0,0-.62,1.081c-1.961,3.8-3.921,6.721-7.6,9.1a13.507,13.507,0,0,1-2.741,1.461c-.44,0-1.7-.98-1.7-1.36,0-.2.24-.3.4-.36a17.732,17.732,0,0,0,7.722-6.4,12.219,12.219,0,0,0,1.54-2.941c0-.259-.321-.279-.6-.279h-3.8c-.46,0-.58.2-.839.56-.38.54-2.681,3.28-3.221,3.28-.24,0-1.7-.76-1.7-1.18a.314.314,0,0,1,.179-.28,18.492,18.492,0,0,0,5.342-7.162c.08-.2.14-.48.319-.48a6.731,6.731,0,0,1,1.061.44c.18.1,1.2.481,1.2.7,0,.1-.1.18-.179.22-.281.1-.341.2-.681.82a3.029,3.029,0,0,0-.36.72c0,.22.14.32.34.34Z"/><path class="cls-10" d="M247.313,25.613a5.384,5.384,0,0,0,.861-.04c.12,0,.319-.04.439-.04.42,0,1.281,1.1,1.281,1.36a3.871,3.871,0,0,1-.44.78c-.12.181-.24.381-.32.52a28.944,28.944,0,0,1-2.6,3.8.551.551,0,0,0-.16.381.534.534,0,0,0,.3.479,32.275,32.275,0,0,1,3.381,2.581c.48.42.98.88,1.44,1.36a.384.384,0,0,1,.14.28c0,.421-1.1,1.6-1.52,1.6a.667.667,0,0,1-.5-.3,21.251,21.251,0,0,0-4.421-3.96.705.705,0,0,0-.461-.18.958.958,0,0,0-.6.34,22.329,22.329,0,0,1-5,3.5,3.356,3.356,0,0,1-.881.38c-.42,0-1.34-1.341-1.34-1.7,0-.24.24-.34.42-.4a19.832,19.832,0,0,0,8.922-7.582,1.949,1.949,0,0,0,.34-.68c0-.3-.28-.34-.58-.34h-4.141c-.86,0-1.721.04-2.58.04-.54,0-.5-.3-.5-1.22,0-.7-.02-1,.48-1,.861,0,1.721.04,2.6.04Z"/><rect class="cls-6" width="294" height="5"/><g class="cls-11"><g class="cls-12"><polygon class="cls-10" points="187.355 118.286 195.415 118.286 195.415 102.8 187.355 107.626 187.355 118.286"/><path class="cls-10" d="M200.9,104.231l-2.439-3.255-1.433.859v16.452h8.059V104.581l-.516.324a2.776,2.776,0,0,1-3.671-.674"/><polygon class="cls-10" points="206.698 118.286 214.757 118.286 214.757 98.51 206.698 103.569 206.698 118.286"/><path class="cls-10" d="M222,90.758l-8.542.357,1.687,2.624-11.762,7.384-3.3-4.4a1.139,1.139,0,0,0-1.492-.291l-13.731,8.225a1.1,1.1,0,0,0-.38,1.53,1.128,1.128,0,0,0,.966.537,1.147,1.147,0,0,0,.584-.161l12.853-7.7,3.31,4.422a1.137,1.137,0,0,0,1.512.277l12.649-7.94,1.689,2.624Z"/><path class="cls-10" d="M180.688,89.829l-.183-.225c-.153-.186-16.624-20.444-16.66-20.481l-.27-.223a17.744,17.744,0,0,0-15.6-.186,17.673,17.673,0,0,0-15.6.186.294.294,0,0,0-.078.065L115.272,89.834a.261.261,0,0,0-.065.174v7.038a.284.284,0,0,0,.285.282h15.269l-4.87,5.142a10.683,10.683,0,0,0-3.981,8.314,10.9,10.9,0,0,0,21.8,0,10.626,10.626,0,0,0-1.383-5.226h11.315a10.614,10.614,0,0,0-1.387,5.226,10.9,10.9,0,0,0,21.8,0,10.7,10.7,0,0,0-3.973-8.31l-4.876-5.146h15.255a.286.286,0,0,0,.2-.083.282.282,0,0,0,.084-.2l0-7.041a.277.277,0,0,0-.063-.176m-17.525,10.187a11,11,0,0,0-7.9,3.363H140.7a10.99,10.99,0,0,0-7.891-3.363,10.536,10.536,0,0,0-1.713.141l2.681-2.829H162.19l2.679,2.829a10.488,10.488,0,0,0-1.706-.141m-16.291-4.869h-5.017l-2.242-6.213a47.532,47.532,0,0,1,7.259,2.114Zm-11.026,0,2.654-2.8,1.012,2.8Zm13.234,0v-4.1a47.232,47.232,0,0,1,7.282-2.115l-2.242,6.213Zm7.379,0,1.013-2.8,2.655,2.8Zm-8.478-6.019a46.558,46.558,0,0,0-16.753-3.275,36.466,36.466,0,0,0-11.292,1.721L133.657,70.7a15.729,15.729,0,0,1,13.806.177l.172.083a.271.271,0,0,0,.128.03h.435a.249.249,0,0,0,.125-.03l.177-.083a15.708,15.708,0,0,1,13.8-.179c7.15,8.8,11.373,13.99,13.763,16.893-5.259-1.731-15.179-3.414-28.083,1.538m-30.566,6.019v-4.2c2.021-1,9.91-4.31,21.435-2.161l-6.027,6.361Zm39.71-6.361c11.5-2.134,19.4,1.173,21.42,2.164v4.2h-15.4Zm-15.621,22a8.7,8.7,0,1,1-8.691-8.59,8.649,8.649,0,0,1,8.691,8.59m21.659-8.59a8.59,8.59,0,1,1-8.7,8.59,8.651,8.651,0,0,1,8.7-8.59"/><path class="cls-10" d="M79.552,71.786A1.911,1.911,0,0,0,77.886,70.4a1.861,1.861,0,0,0-1.651,1.388L72.1,82.317a1.5,1.5,0,0,0-.1.515,1.17,1.17,0,0,0,1.285,1.2c.607,0,.938-.207,1.318-1.237l.765-2.126h5.069L81.2,82.8c.364,1.012.677,1.237,1.318,1.237a1.164,1.164,0,0,0,1.268-1.15,1.5,1.5,0,0,0-.105-.566Zm-3.369,6.621,1.721-4.77,1.717,4.77Z"/><path class="cls-10" d="M95.022,76.863A3.206,3.206,0,0,0,96.464,74.1c0-2.023-1.46-3.55-3.992-3.55H87.731a1.761,1.761,0,0,0-1.824,1.972V81.75c0,1.337.486,2.128,1.858,2.128h4.966a3.853,3.853,0,0,0,4.045-3.963,3.616,3.616,0,0,0-.557-1.972,2.793,2.793,0,0,0-1.2-1.08m-6.7-3.448c0-.241.088-.5.4-.5h3.752a1.452,1.452,0,0,1,1.578,1.39,1.542,1.542,0,0,1-1.578,1.559H88.32Zm3.855,8.1h-3.35a.464.464,0,0,1-.505-.464V78.133h4.429a1.7,1.7,0,0,1,1.578,1.678c0,1.219-1.076,1.7-2.152,1.7"/><path class="cls-10" d="M104.919,72.66a3.078,3.078,0,0,1,2.483,1.081c.677.652.937.687,1.269.687a1.185,1.185,0,0,0,1.249-1.115c0-1.081-2.169-3.089-5-3.089-4.026,0-6.32,3.123-6.32,7.033,0,4,2.415,6.93,6.182,6.93,3.283,0,5.1-2.231,5.1-3.293a1.167,1.167,0,0,0-1.182-1.167c-.328,0-.607.033-1.284.789a3.022,3.022,0,0,1-2.553,1.252c-2.482,0-3.68-2.125-3.68-4.545,0-1.937.816-4.563,3.732-4.563"/></g></g></g></g></svg>