<svg xmlns="http://www.w3.org/2000/svg" width="439.923" height="33.465" viewBox="0 0 439.923 33.465"><defs><style>.cls-1{isolation:isolate;}.cls-2,.cls-3{fill:#a9cd36;}.cls-2{mix-blend-mode:multiply;}.cls-4{fill:#00a85f;}.cls-5{fill:#fff;}.cls-6{fill:none;stroke:#727171;stroke-width:0.648px;}</style></defs><g class="cls-1"><g id="レイヤー_2" data-name="レイヤー 2"><g id="レイヤー_1-2" data-name="レイヤー 1"><path class="cls-2" d="M25.3,23.52q-6.187,8.109-21.322,8.329V26.313A27.432,27.432,0,0,0,15.97,23.431a12.7,12.7,0,0,0,6.217-7.023H0V11.016H29.143a20.082,20.082,0,0,1-3.84,12.5"/><rect class="cls-2" x="3.096" y="1.92" width="23.924" height="5.575"/><rect class="cls-2" x="31.92" y="13.816" width="25.949" height="5.724"/><rect class="cls-2" x="57.546" y="24.737" width="29.842" height="5.829"/><rect class="cls-2" x="61.61" y="3.242" width="22.904" height="5.758"/><polygon class="cls-2" points="146.84 0 146.84 1.324 146.84 2.103 146.84 5.282 150.011 5.282 150.404 5.282 150.404 0 146.84 0"/><path class="cls-2" d="M145.1,7.1v-5h-17.74a15.684,15.684,0,0,1-6.675,10.569v6.013a16.7,16.7,0,0,0,6.644-4.294,19.758,19.758,0,0,0,4.37-6.748h12.227q-1.707,16.986-18.627,18.78v5.465q14.611-.913,20.689-11.114A31.826,31.826,0,0,0,149.892,7.1H145.1Z"/><rect class="cls-3" x="151.731" width="3.565" height="5.28"/><rect class="cls-2" x="151.731" width="3.565" height="5.28"/><path class="cls-2" d="M118.226,7.094q-.84,12.617-7.8,18.558-6.567,5.571-19.325,5.906V25.652q10.031-.774,14.713-4.365,5.524-4.293,6.36-14.193Z"/><polygon class="cls-2" points="90.686 2.064 90.686 2.093 90.686 8.03 103.084 9.69 103.084 3.732 90.686 2.064"/><rect class="cls-3" x="223.804" y="0.179" width="3.569" height="5.281"/><rect class="cls-4" x="223.804" y="0.179" width="3.569" height="5.281"/><path class="cls-4" d="M180.663,1a21.237,21.237,0,0,1-8.905,12.364V32.582h-6.009V16.631a58.638,58.638,0,0,1-13.777,3.7V14.608Q170.224,11.279,174.411,1Z"/><path class="cls-4" d="M201.748,1.663q-1.3,12.542-7.9,20.215-6.432,7.4-17.432,9.785V25.8q16.974-4.956,19.075-24.134Z"/><rect class="cls-4" x="233.778" y="13.816" width="25.95" height="5.724"/><path class="cls-4" d="M292.316,6.689q-.87,13.242-8.315,19.328-6.743,5.5-19.5,5.613V25.761q10.728-.294,15.69-4.44,5.249-4.392,6.155-14.632Z"/><polygon class="cls-4" points="312.722 32.353 295.218 32.353 295.218 27.984 308.042 27.984 308.042 24.719 295.525 24.719 295.525 20.431 308.042 20.431 308.042 17.623 295.245 17.623 295.245 13.31 312.722 13.31 312.722 32.353"/><path class="cls-4" d="M344.284,7.094q-.837,12.617-7.792,18.558-6.576,5.571-19.324,5.906V25.652q10.023-.774,14.712-4.365,5.517-4.293,6.359-14.193Z"/><polygon class="cls-4" points="218.908 0.18 218.908 1.509 218.908 2.286 218.908 5.461 222.088 5.461 222.478 5.461 222.478 0.18 218.908 0.18"/><rect class="cls-4" x="223.804" y="0.179" width="3.569" height="5.281"/><rect class="cls-4" x="223.804" y="0.179" width="3.569" height="5.281"/><rect class="cls-3" x="223.804" y="0.179" width="3.569" height="5.281"/><rect class="cls-4" x="223.804" y="0.179" width="3.569" height="5.281"/><path class="cls-4" d="M229,20.7a70.362,70.362,0,0,1-4.232-8.1A40.735,40.735,0,0,0,221.78,7.1h-4.443V3.761a17.435,17.435,0,0,0-3.84-.373h-4.649l-4.3,11.446a5.2,5.2,0,0,1-2.581,3.259V24.07q5.313-.651,7.58-6.416l3.284-8.431h1.083a3.469,3.469,0,0,1,2.8,1.1,36.884,36.884,0,0,1,3.332,6.161,48.77,48.77,0,0,0,6.091,10.345,12.432,12.432,0,0,0,7.729,4.581v-6.12q-2.412-.807-4.858-4.59"/><polygon class="cls-4" points="263.696 1.546 263.692 1.571 263.692 7.035 276.096 8.701 276.096 3.211 263.696 1.546"/><polygon class="cls-4" points="263.696 9.617 263.692 9.65 263.692 15.107 276.096 16.781 276.096 11.285 263.696 9.617"/><polygon class="cls-4" points="316.695 2.064 316.695 2.093 316.695 8.03 329.098 9.69 329.098 3.732 316.695 2.064"/><path class="cls-5" d="M350.305,32.872V27.636l12.087-13.828a5.44,5.44,0,0,0,1.681-3.848,3.659,3.659,0,0,0-3.908-3.983c-1.954,0-3.953.984-3.953,4.073h-5.907c0-5.818,4.317-9.309,9.86-9.309,5.726,0,9.815,3.536,9.815,9.264,0,3.088-1.227,4.743-3.453,7.294l-9.043,10.337h12.5v5.236Z"/><path class="cls-5" d="M383.321,33.141c-5.27,0-9.86-3.4-9.86-9.488V10.229c0-6.086,4.59-9.488,9.86-9.488s9.815,3.4,9.815,9.488V23.653C393.136,29.74,388.592,33.141,383.321,33.141Zm3.907-22.823c0-2.685-1.59-4.341-3.907-4.341s-3.953,1.656-3.953,4.341V23.609c0,2.685,1.635,4.3,3.953,4.3s3.907-1.611,3.907-4.3Z"/><path class="cls-5" d="M396.717,32.872V27.636L408.8,13.808a5.438,5.438,0,0,0,1.682-3.848,3.659,3.659,0,0,0-3.909-3.983c-1.953,0-3.953.984-3.953,4.073h-5.906c0-5.818,4.316-9.309,9.859-9.309,5.726,0,9.815,3.536,9.815,9.264,0,3.088-1.226,4.743-3.453,7.294L403.9,27.636h12.5v5.236Z"/><path class="cls-5" d="M419.925,32.872V27.636l12.087-13.828a5.44,5.44,0,0,0,1.681-3.848,3.659,3.659,0,0,0-3.909-3.983c-1.953,0-3.953.984-3.953,4.073h-5.906c0-5.818,4.316-9.309,9.859-9.309,5.726,0,9.815,3.536,9.815,9.264,0,3.088-1.226,4.743-3.453,7.294L427.1,27.636h12.5v5.236Z"/><path class="cls-6" d="M350.305,32.872V27.636l12.087-13.828a5.44,5.44,0,0,0,1.681-3.848,3.659,3.659,0,0,0-3.908-3.983c-1.954,0-3.953.984-3.953,4.073h-5.907c0-5.818,4.317-9.309,9.86-9.309,5.726,0,9.815,3.536,9.815,9.264,0,3.088-1.227,4.743-3.453,7.294l-9.043,10.337h12.5v5.236Z"/><path class="cls-6" d="M383.321,33.141c-5.27,0-9.86-3.4-9.86-9.488V10.229c0-6.086,4.59-9.488,9.86-9.488s9.815,3.4,9.815,9.488V23.653C393.136,29.74,388.592,33.141,383.321,33.141Zm3.907-22.823c0-2.685-1.59-4.341-3.907-4.341s-3.953,1.656-3.953,4.341V23.609c0,2.685,1.635,4.3,3.953,4.3s3.907-1.611,3.907-4.3Z"/><path class="cls-6" d="M396.717,32.872V27.636L408.8,13.808a5.438,5.438,0,0,0,1.682-3.848,3.659,3.659,0,0,0-3.909-3.983c-1.953,0-3.953.984-3.953,4.073h-5.906c0-5.818,4.316-9.309,9.859-9.309,5.726,0,9.815,3.536,9.815,9.264,0,3.088-1.226,4.743-3.453,7.294L403.9,27.636h12.5v5.236Z"/><path class="cls-6" d="M419.925,32.872V27.636l12.087-13.828a5.44,5.44,0,0,0,1.681-3.848,3.659,3.659,0,0,0-3.909-3.983c-1.953,0-3.953.984-3.953,4.073h-5.906c0-5.818,4.316-9.309,9.859-9.309,5.726,0,9.815,3.536,9.815,9.264,0,3.088-1.226,4.743-3.453,7.294L427.1,27.636h12.5v5.236Z"/></g></g></g></svg>