<svg xmlns="http://www.w3.org/2000/svg" width="349.922" height="40.559" viewBox="0 0 349.922 40.559"><defs><style>.cls-1{isolation:isolate;}.cls-2{fill:#231815;mix-blend-mode:multiply;}.cls-3{fill:#0068b6;}.cls-4{fill:#fff;}.cls-5{fill:none;stroke:#727171;stroke-width:0.608px;}</style></defs><g class="cls-1"><g id="レイヤー_2" data-name="レイヤー 2"><g id="レイヤー_1-2" data-name="レイヤー 1"><polygon class="cls-2" points="17.678 33.379 17.678 19.441 6.465 19.441 6.465 33.379 0 33.379 0 0.075 6.465 0.075 6.465 13.87 17.678 13.87 17.678 0.075 24.142 0.075 24.142 33.379 17.678 33.379"/><path class="cls-2" d="M34.073,33.369c-2.417,0-4.367-.5-5.718-1.86-1.955-1.964-2.467-4.254-2.467-6.923V8.728h6.047V23.744c0,3.324,2.094,4.372,4,4.368H39.98V8.728h6.05V33.379s-9.72-.01-11.957-.01"/><path class="cls-2" d="M75.963,33.379v-15.1c0-3.32-2.1-4.442-4-4.442-1.863,0-4.048,1.122-4.048,4.306V33.379H61.869V18.644c0-3.319-2.1-4.787-4-4.787s-4.043.006-4.043.006V33.379H47.775V8.728H59.73a7.491,7.491,0,0,1,6.418,3.088A9.212,9.212,0,0,1,73.4,8.729a8.406,8.406,0,0,1,5.95,2.152A9.2,9.2,0,0,1,82.006,17.8V33.379Z"/><path class="cls-2" d="M119.724,33.379V18.269c0-3.326-2.095-4.447-4-4.447s-4.049.007-4.049.007v19.55h-6.045V8.729h11.954a7.843,7.843,0,0,1,5.721,2.154c1.953,1.963,2.463,4.254,2.463,6.921V33.379Z"/><path class="cls-2" d="M91.943,33.369c-2.744,0-4.746-.457-6.187-1.906a7.84,7.84,0,0,1-2-5.472c0-3.881,2.655-7.067,8.281-7.067h5.719V17.711c0-2.667-1.3-3.835-4.508-3.835l-9.455,0c0-.7,0-.676.009-5.15h9.677c6.786,0,10.326,2.9,10.326,8.609V33.372Zm5.812-10.275H92.964c-2.184,0-3.4,1.023-3.4,2.757,0,1.685,1.12,2.331,3.491,2.331h4.684Z"/><path class="cls-2" d="M166.077,33.372c-2.745,0-4.746-.46-6.192-1.907a7.862,7.862,0,0,1-1.994-5.474c0-3.881,2.649-7.067,8.275-7.067h5.724V17.711c0-2.667-1.3-3.835-4.511-3.835l-9.452,0c0-.7-.022-.676-.008-5.15h9.692c6.79,0,10.33,2.9,10.33,8.609V33.372Zm5.813-10.278H167.1c-2.187,0-3.393,1.023-3.393,2.757,0,1.685,1.118,2.331,3.487,2.331h4.682Z"/><path class="cls-2" d="M232.464,33.372c-2.746,0-4.744-.46-6.189-1.909a7.843,7.843,0,0,1-2-5.47c0-3.883,2.65-7.069,8.283-7.069h5.716V17.711c0-2.667-1.3-3.835-4.51-3.835l-9.45,0c0-.7-.019-.676-.006-5.15H234c6.791,0,10.327,2.9,10.327,8.608V33.372Zm5.809-10.28h-4.787c-2.187,0-3.4,1.025-3.4,2.761,0,1.683,1.117,2.329,3.49,2.329h4.683Z"/><path class="cls-3" d="M197.5,10.928a8.412,8.412,0,0,0-5.908-2.2H179.684V40.559h6.046V33.372h5.86c2.374,0,4.561-.552,5.908-1.91,2.42-2.43,2.464-6.641,2.464-10.289S199.918,13.36,197.5,10.928Zm-7.672,17.259-4.086,0,.009-14.354s2.563.008,4.077.008c3.625,0,4.094,3.355,4.094,7.334S193.451,28.187,189.826,28.187Z"/><path class="cls-2" d="M201.714,0H207.9V6.651h-6.183Zm.089,8.729h6.048v24.65H201.8Z"/><path class="cls-2" d="M219.223,33.379c-4.928,0-7.021-3.506-7.021-6.968V13.834h-2.555V8.728H212.2V2.509h6.048V8.728h4.277v5.106H218.25v12.2c0,1.405.649,2.2,2.092,2.2h2.185v5.141Z"/><polygon class="cls-2" points="246.071 33.379 246.071 0.075 252.118 0.075 252.108 33.379 246.071 33.379"/><path class="cls-2" d="M144.245,27.771a5.351,5.351,0,0,1-4.14-1.73c-1.164-1.3-1.567-4.187-1.623-9.5.056-5.31.459-7.92,1.623-9.218a5.344,5.344,0,0,1,4.14-1.731c3.256,0,12.006.006,12.006.006l.012-5.6H144.2a12.033,12.033,0,0,0-8.934,3.443c-3.073,3.1-3.244,8-3.252,13.057v.078c.008,5.069.179,10.253,3.252,13.345a12.015,12.015,0,0,0,8.934,3.449h12.064l-.012-5.6-12.006,0"/><path class="cls-4" d="M260.518,33.149V27.8L272.6,13.684a5.617,5.617,0,0,0,1.68-3.929c0-2.422-1.408-4.067-3.907-4.067-1.953,0-3.952,1-3.952,4.158h-5.906c0-5.94,4.316-9.5,9.858-9.5,5.724,0,9.813,3.61,9.813,9.458,0,3.153-1.226,4.844-3.452,7.448L267.7,27.8h12.493v5.346Z"/><path class="cls-4" d="M293.469,33.423c-5.269,0-9.858-3.473-9.858-9.687V10.029c0-6.214,4.589-9.687,9.858-9.687s9.813,3.473,9.813,9.687V23.736C303.282,29.95,298.739,33.423,293.469,33.423Zm3.907-23.3c0-2.741-1.59-4.432-3.907-4.432s-3.952,1.691-3.952,4.432V23.691c0,2.741,1.635,4.386,3.952,4.386s3.907-1.645,3.907-4.386Z"/><path class="cls-4" d="M306.8,33.149V27.8l12.084-14.119a5.612,5.612,0,0,0,1.68-3.929c0-2.422-1.408-4.067-3.907-4.067-1.953,0-3.951,1-3.951,4.158H306.8c0-5.94,4.315-9.5,9.857-9.5,5.724,0,9.813,3.61,9.813,9.458,0,3.153-1.226,4.844-3.452,7.448L313.98,27.8h12.493v5.346Z"/><path class="cls-4" d="M329.946,33.149V27.8l12.085-14.119a5.614,5.614,0,0,0,1.681-3.929c0-2.422-1.409-4.067-3.907-4.067-1.953,0-3.953,1-3.953,4.158h-5.906c0-5.94,4.316-9.5,9.859-9.5,5.724,0,9.813,3.61,9.813,9.458,0,3.153-1.227,4.844-3.453,7.448L337.125,27.8h12.493v5.346Z"/><path class="cls-5" d="M260.518,33.149V27.8L272.6,13.684a5.617,5.617,0,0,0,1.68-3.929c0-2.422-1.408-4.067-3.907-4.067-1.953,0-3.952,1-3.952,4.158h-5.906c0-5.94,4.316-9.5,9.858-9.5,5.724,0,9.813,3.61,9.813,9.458,0,3.153-1.226,4.844-3.452,7.448L267.7,27.8h12.493v5.346Z"/><path class="cls-5" d="M293.469,33.423c-5.269,0-9.858-3.473-9.858-9.687V10.029c0-6.214,4.589-9.687,9.858-9.687s9.813,3.473,9.813,9.687V23.736C303.282,29.95,298.739,33.423,293.469,33.423Zm3.907-23.3c0-2.741-1.59-4.432-3.907-4.432s-3.952,1.691-3.952,4.432V23.691c0,2.741,1.635,4.386,3.952,4.386s3.907-1.645,3.907-4.386Z"/><path class="cls-5" d="M306.8,33.149V27.8l12.084-14.119a5.612,5.612,0,0,0,1.68-3.929c0-2.422-1.408-4.067-3.907-4.067-1.953,0-3.951,1-3.951,4.158H306.8c0-5.94,4.315-9.5,9.857-9.5,5.724,0,9.813,3.61,9.813,9.458,0,3.153-1.226,4.844-3.452,7.448L313.98,27.8h12.493v5.346Z"/><path class="cls-5" d="M329.946,33.149V27.8l12.085-14.119a5.614,5.614,0,0,0,1.681-3.929c0-2.422-1.409-4.067-3.907-4.067-1.953,0-3.953,1-3.953,4.158h-5.906c0-5.94,4.316-9.5,9.859-9.5,5.724,0,9.813,3.61,9.813,9.458,0,3.153-1.227,4.844-3.453,7.448L337.125,27.8h12.493v5.346Z"/></g></g></g></svg>