<?xml version="1.0" encoding="utf-8"?>
<!-- Generator: Adobe Illustrator 26.0.0, SVG Export Plug-In . SVG Version: 6.00 Build 0)  -->
<svg version="1.1" id="レイヤー_1" xmlns="http://www.w3.org/2000/svg" xmlns:xlink="http://www.w3.org/1999/xlink" x="0px"
	 y="0px" viewBox="0 0 800 153.6" style="enable-background:new 0 0 800 153.6;" xml:space="preserve">
<style type="text/css">
	.st0{fill:#231815;}
	.st1{fill:#0068B6;}
	.st2{fill:#FFFFFF;}
	.st3{fill:none;stroke:#727171;stroke-width:1.181;}
	.st4{fill:#A9CD36;}
	.st5{fill:#00A85F;}
	.st6{fill:none;stroke:#727171;stroke-width:1.182;}
</style>
<g>
	<g id="レイヤー_2_00000042704772003883859810000005292412082850130860_">
		<g id="レイヤー_1-2">
			<polygon class="st0" points="34.4,64.7 34.4,37.7 12.6,37.7 12.6,64.7 0,64.7 0,0.1 12.6,0.1 12.6,26.9 34.4,26.9 34.4,0.1 
				47,0.1 47,64.7 			"/>
			<path class="st0" d="M66.3,64.7c-4.7,0-8.5-1-11.1-3.6c-3.8-3.8-4.8-8.2-4.8-13.4V16.9h11.8V46c0,6.4,4.1,8.5,7.8,8.5h7.9V16.9
				h11.8v47.8C89.6,64.7,70.7,64.7,66.3,64.7"/>
			<path class="st0" d="M147.8,64.7V35.4c0-6.4-4.1-8.6-7.8-8.6c-3.6,0-7.9,2.2-7.9,8.3v29.5h-11.8V36.1c0-6.4-4.1-9.3-7.8-9.3
				s-7.9,0-7.9,0v37.8H93V16.9h23.3c5.2,0,9.5,1.9,12.5,6c3.6-4,8.8-6.2,14.1-6c4.7,0,9,1.5,11.6,4.2c3.8,3.8,5.2,8.2,5.2,13.4v30.2
				H147.8z"/>
			<path class="st0" d="M233,64.7V35.4c0-6.4-4.1-8.6-7.8-8.6s-7.9,0-7.9,0v37.9h-11.8V16.9h23.3c4.1-0.2,8.1,1.3,11.1,4.2
				c3.8,3.8,4.8,8.2,4.8,13.4v30.2H233z"/>
			<path class="st0" d="M178.9,64.7c-5.3,0-9.2-0.9-12-3.7c-2.6-2.9-4-6.7-3.9-10.6c0-7.5,5.2-13.7,16.1-13.7h11.1v-2.4
				c0-5.2-2.5-7.4-8.8-7.4c-4.5,0-18.4,0-18.4,0c0-1.4,0-1.3,0-10h18.8c13.2,0,20.1,5.6,20.1,16.7v31.1L178.9,64.7z M190.2,44.7
				h-9.3c-4.3,0-6.6,2-6.6,5.3c0,3.3,2.2,4.5,6.8,4.5h9.1L190.2,44.7z"/>
			<path class="st0" d="M323.1,64.7c-5.3,0-9.2-0.9-12-3.7c-2.6-2.9-4-6.7-3.9-10.6c0-7.5,5.2-13.7,16.1-13.7h11.1v-2.3
				c0-5.2-2.5-7.4-8.8-7.4c-4.5,0-18.4,0-18.4,0c0-1.3,0-1.3,0-10h18.9c13.2,0,20.1,5.6,20.1,16.7v31.1H323.1z M334.5,44.7h-9.3
				c-4.3,0-6.6,2-6.6,5.3c0,3.3,2.2,4.5,6.8,4.5h9.1L334.5,44.7z"/>
			<path class="st0" d="M452.3,64.7c-5.3,0-9.2-0.9-12-3.7c-2.6-2.9-4-6.7-3.9-10.6c0-7.5,5.2-13.7,16.1-13.7h11.1v-2.3
				c0-5.2-2.5-7.4-8.8-7.4c-4.5,0-18.4,0-18.4,0c0-1.4,0-1.3,0-10h18.9c13.2,0,20.1,5.6,20.1,16.7v31.1H452.3z M463.6,44.7h-9.3
				c-4.3,0-6.6,2-6.6,5.3c0,3.3,2.2,4.5,6.8,4.5h9.1L463.6,44.7z"/>
			<path class="st1" d="M384.3,21.2c-3.1-2.9-7.3-4.4-11.5-4.3h-23.2v61.7h11.8V64.7h11.4c4.6,0,8.9-1.1,11.5-3.7
				c4.7-4.7,4.8-12.9,4.8-19.9S389,25.9,384.3,21.2z M369.4,54.6c-2.7,0-8,0-8,0l0-27.8c0,0,5,0,7.9,0c7.1,0,8,6.5,8,14.2
				S376.4,54.6,369.4,54.6z"/>
			<path class="st0" d="M392.5,0h12v12.9h-12V0z M392.7,16.9h11.8v47.8h-11.8L392.7,16.9z"/>
			<path class="st0" d="M426.6,64.7c-9.6,0-13.7-6.8-13.7-13.5V26.8h-5v-9.9h5v-12h11.8v12h8.3v9.9h-8.3v23.7c0,2.7,1.3,4.3,4.1,4.3
				h4.3v10H426.6z"/>
			<polygon class="st0" points="478.8,64.7 478.8,0.1 490.6,0.1 490.5,64.7 			"/>
			<path class="st0" d="M280.7,53.8c-3,0.1-6-1.1-8.1-3.4c-2.3-2.5-3-8.1-3.2-18.4c0.1-10.3,0.9-15.3,3.2-17.9
				c2.1-2.2,5-3.5,8.1-3.4c6.3,0,23.4,0,23.4,0l0-10.9h-23.5c-7.1,0-12.8,2.1-17.4,6.7c-6,6-6.3,15.5-6.3,25.3v0.1
				c0,9.8,0.3,19.9,6.3,25.9c4.5,4.5,10.3,6.7,17.4,6.7h23.5l0-10.9C304,53.8,287,53.8,280.7,53.8"/>
			<path class="st2" d="M506.9,64.2V53.9l23.5-27.4c2.3-2.7,3.3-4.7,3.3-7.6c0-4.7-2.7-7.9-7.6-7.9c-3.8,0-7.7,1.9-7.7,8.1h-11.5
				c0-11.5,8.4-18.4,19.2-18.4c11.1,0,19.1,7,19.1,18.3c0,6.1-2.4,9.4-6.7,14.4l-17.6,20.5h24.3v10.4H506.9z"/>
			<path class="st2" d="M571,64.8c-10.3,0-19.2-6.7-19.2-18.8V19.4c0-12,8.9-18.8,19.2-18.8s19.1,6.7,19.1,18.8V46
				C590.1,58,581.3,64.8,571,64.8z M578.6,19.6c0-5.3-3.1-8.6-7.6-8.6s-7.7,3.3-7.7,8.6v26.3c0,5.3,3.2,8.5,7.7,8.5s7.6-3.2,7.6-8.5
				V19.6z"/>
			<path class="st2" d="M597,64.2V53.9l23.5-27.4c2.3-2.7,3.3-4.7,3.3-7.6c0-4.7-2.7-7.9-7.6-7.9c-3.8,0-7.7,1.9-7.7,8.1H597
				c0-11.5,8.4-18.4,19.2-18.4c11.1,0,19.1,7,19.1,18.3c0,6.1-2.4,9.4-6.7,14.4l-17.6,20.5h24.3v10.4H597z"/>
			<path class="st2" d="M642,64.2V53.9l23.5-27.4c2.3-2.7,3.3-4.7,3.3-7.6c0-4.7-2.7-7.9-7.6-7.9c-3.8,0-7.7,1.9-7.7,8.1H642
				c0-11.5,8.4-18.4,19.2-18.4c11.1,0,19.1,7,19.1,18.3c0,6.1-2.4,9.4-6.7,14.4L656,53.9h24.3v10.4H642z"/>
			<path class="st3" d="M506.9,64.2V53.9l23.5-27.4c2.3-2.7,3.3-4.7,3.3-7.6c0-4.7-2.7-7.9-7.6-7.9c-3.8,0-7.7,1.9-7.7,8.1h-11.5
				c0-11.5,8.4-18.4,19.2-18.4c11.1,0,19.1,7,19.1,18.3c0,6.1-2.4,9.4-6.7,14.4l-17.6,20.5h24.3v10.4H506.9z"/>
			<path class="st3" d="M571,64.8c-10.3,0-19.2-6.7-19.2-18.8V19.4c0-12,8.9-18.8,19.2-18.8s19.1,6.7,19.1,18.8V46
				C590.1,58,581.3,64.8,571,64.8z M578.6,19.6c0-5.3-3.1-8.6-7.6-8.6s-7.7,3.3-7.7,8.6v26.3c0,5.3,3.2,8.5,7.7,8.5s7.6-3.2,7.6-8.5
				V19.6z"/>
			<path class="st3" d="M597,64.2V53.9l23.5-27.4c2.3-2.7,3.3-4.7,3.3-7.6c0-4.7-2.7-7.9-7.6-7.9c-3.8,0-7.7,1.9-7.7,8.1H597
				c0-11.5,8.4-18.4,19.2-18.4c11.1,0,19.1,7,19.1,18.3c0,6.1-2.4,9.4-6.7,14.4l-17.6,20.5h24.3v10.4H597z"/>
			<path class="st3" d="M642,64.2V53.9l23.5-27.4c2.3-2.7,3.3-4.7,3.3-7.6c0-4.7-2.7-7.9-7.6-7.9c-3.8,0-7.7,1.9-7.7,8.1H642
				c0-11.5,8.4-18.4,19.2-18.4c11.1,0,19.1,7,19.1,18.3c0,6.1-2.4,9.4-6.7,14.4L656,53.9h24.3v10.4H642z"/>
			<path class="st4" d="M46,135.4c-7.5,9.9-20.4,15-38.8,15.2v-10.1c8.9-0.4,16.2-2.2,21.8-5.3s9.4-7.4,11.3-12.9H0v-9.9h53
				C53,121.6,50.7,129.2,46,135.4"/>
			<rect x="5.6" y="95.9" class="st4" width="43.5" height="10.2"/>
			<rect x="58" y="117.6" class="st4" width="47.2" height="10.5"/>
			<rect x="104.6" y="137.6" class="st4" width="54.3" height="10.7"/>
			<rect x="112" y="98.3" class="st4" width="41.7" height="10.5"/>
			<polygon class="st4" points="267,92.3 267,94.8 267,96.2 267,102 272.8,102 273.5,102 273.5,92.3 			"/>
			<path class="st4" d="M263.9,105.4v-9.2h-32.3c-1.6,8.6-5.7,15-12.1,19.4v11c4.6-1.6,8.7-4.3,12.1-7.9c3.5-3.5,6.2-7.7,7.9-12.4
				h22.2c-2.1,20.7-13.4,32.2-33.9,34.4v10c17.7-1.1,30.3-7.9,37.6-20.4c3.9-6.6,6.3-15,7.1-25L263.9,105.4L263.9,105.4z"/>
			<rect x="275.9" y="92.3" class="st4" width="6.5" height="9.7"/>
			<rect x="275.9" y="92.3" class="st4" width="6.5" height="9.7"/>
			<path class="st4" d="M215,105.3c-1,15.4-5.7,26.7-14.2,34c-8,6.8-19.7,10.4-35.1,10.8v-10.8c12.2-0.9,21.1-3.6,26.8-8
				c6.7-5.2,10.6-13.9,11.6-26H215z"/>
			<polygon class="st4" points="164.9,96.1 164.9,96.2 164.9,107 187.5,110.1 187.5,99.2 			"/>
			<rect x="407" y="92.7" class="st4" width="6.5" height="9.7"/>
			<rect x="407" y="92.7" class="st5" width="6.5" height="9.7"/>
			<path class="st5" d="M328.5,94.2c-2.4,9.2-7.8,16.8-16.2,22.6V152h-10.9v-29.2c-8,3.3-16.5,5.5-25.1,6.8v-10.5
				c22.1-4.1,35.7-12.4,40.8-24.9H328.5z"/>
			<path class="st5" d="M366.9,95.4c-1.6,15.3-6.4,27.6-14.4,37c-7.8,9-18.4,15-31.7,17.9v-10.7c20.6-6.1,32.1-20.8,34.7-44.2H366.9
				z"/>
			<rect x="425.1" y="117.6" class="st5" width="47.2" height="10.5"/>
			<path class="st5" d="M531.6,104.6c-1.1,16.2-6.1,28-15.1,35.4c-8.2,6.7-20,10.1-35.5,10.3v-10.7c13-0.4,22.5-3.1,28.5-8.1
				c6.4-5.4,10.1-14.3,11.2-26.8H531.6z"/>
			<polygon class="st5" points="568.7,151.6 536.9,151.6 536.9,143.6 560.2,143.6 560.2,137.6 537.4,137.6 537.4,129.8 560.2,129.8 
				560.2,124.6 536.9,124.6 536.9,116.7 568.7,116.7 			"/>
			<path class="st5" d="M626.1,105.3c-1,15.4-5.7,26.7-14.2,34c-8,6.8-19.7,10.4-35.1,10.8v-10.8c12.2-0.9,21.1-3.6,26.8-8
				c6.7-5.2,10.5-13.9,11.6-26H626.1z"/>
			<polygon class="st5" points="398.1,92.7 398.1,95.1 398.1,96.5 398.1,102.3 403.9,102.3 404.6,102.3 404.6,92.7 			"/>
			<rect x="407" y="92.7" class="st5" width="6.5" height="9.7"/>
			<rect x="407" y="92.7" class="st5" width="6.5" height="9.7"/>
			<rect x="407" y="92.7" class="st4" width="6.5" height="9.7"/>
			<rect x="407" y="92.7" class="st5" width="6.5" height="9.7"/>
			<path class="st5" d="M416.4,130.2c-2.9-4.8-5.5-9.7-7.7-14.8c-1.6-3.5-3.4-6.8-5.4-10.1h-8.1v-6.1c-2.3-0.5-4.6-0.7-7-0.7h-8.5
				l-7.8,21c-1.2,3.2-2.8,5.2-4.7,6v10.9c6.4-0.8,11-4.7,13.8-11.7l6-15.4h2c1.9-0.1,3.8,0.6,5.1,2c1.1,1.3,3.2,5.1,6.1,11.3
				c4,8.7,7.7,15,11.1,18.9c4.1,4.8,8.8,7.6,14.1,8.4v-11.2C422.4,137.7,419.4,134.9,416.4,130.2"/>
			<polygon class="st5" points="479.5,95.2 479.5,95.2 479.5,105.2 502.1,108.3 502.1,98.2 			"/>
			<polygon class="st5" points="479.5,110 479.5,110 479.5,120 502.1,123.1 502.1,113 			"/>
			<polygon class="st5" points="575.9,96.1 575.9,96.2 575.9,107 598.5,110.1 598.5,99.2 			"/>
			<path class="st2" d="M637,152.5v-9.6l22-25.3c2.1-2.5,3.1-4.3,3.1-7c0-4.3-2.6-7.3-7.1-7.3c-3.6,0-7.2,1.8-7.2,7.5H637
				c0-10.7,7.8-17,17.9-17c10.4,0,17.8,6.5,17.8,17c0,5.7-2.2,8.7-6.3,13.4l-16.4,18.9h22.7v9.6H637z"/>
			<path class="st2" d="M697.1,153c-9.6,0-17.9-6.2-17.9-17.4v-24.6c0-11.1,8.3-17.4,17.9-17.4s17.8,6.2,17.8,17.4v24.6
				C714.9,146.8,706.7,153,697.1,153z M704.2,111.2c0-4.9-2.9-7.9-7.1-7.9s-7.2,3-7.2,7.9v24.3c0,4.9,3,7.9,7.2,7.9s7.1-2.9,7.1-7.9
				V111.2z"/>
			<path class="st2" d="M721.4,152.5v-9.6l22-25.3c2.1-2.5,3.1-4.3,3.1-7c0-4.3-2.6-7.3-7.1-7.3c-3.6,0-7.2,1.8-7.2,7.5h-10.7
				c0-10.7,7.8-17,17.9-17c10.4,0,17.8,6.5,17.8,17c0,5.7-2.2,8.7-6.3,13.4l-16.4,18.9h22.7v9.6H721.4z"/>
			<path class="st2" d="M763.6,152.5v-9.6l22-25.3c2.1-2.5,3.1-4.3,3.1-7c0-4.3-2.6-7.3-7.1-7.3c-3.6,0-7.2,1.8-7.2,7.5h-10.7
				c0-10.7,7.8-17,17.9-17c10.4,0,17.8,6.5,17.8,17c0,5.7-2.2,8.7-6.3,13.4l-16.4,18.9h22.7v9.6H763.6z"/>
			<path class="st6" d="M637,152.5v-9.6l22-25.3c2.1-2.5,3.1-4.3,3.1-7c0-4.3-2.6-7.3-7.1-7.3c-3.6,0-7.2,1.8-7.2,7.5H637
				c0-10.7,7.8-17,17.9-17c10.4,0,17.8,6.5,17.8,17c0,5.7-2.2,8.7-6.3,13.4l-16.4,18.9h22.7v9.6H637z"/>
			<path class="st6" d="M697.1,153c-9.6,0-17.9-6.2-17.9-17.4v-24.6c0-11.1,8.3-17.4,17.9-17.4s17.8,6.2,17.8,17.4v24.6
				C714.9,146.8,706.7,153,697.1,153z M704.2,111.2c0-4.9-2.9-7.9-7.1-7.9s-7.2,3-7.2,7.9v24.3c0,4.9,3,7.9,7.2,7.9s7.1-2.9,7.1-7.9
				V111.2z"/>
			<path class="st6" d="M721.4,152.5v-9.6l22-25.3c2.1-2.5,3.1-4.3,3.1-7c0-4.3-2.6-7.3-7.1-7.3c-3.6,0-7.2,1.8-7.2,7.5h-10.7
				c0-10.7,7.8-17,17.9-17c10.4,0,17.8,6.5,17.8,17c0,5.7-2.2,8.7-6.3,13.4l-16.4,18.9h22.7v9.6H721.4z"/>
			<path class="st6" d="M763.6,152.5v-9.6l22-25.3c2.1-2.5,3.1-4.3,3.1-7c0-4.3-2.6-7.3-7.1-7.3c-3.6,0-7.2,1.8-7.2,7.5h-10.7
				c0-10.7,7.8-17,17.9-17c10.4,0,17.8,6.5,17.8,17c0,5.7-2.2,8.7-6.3,13.4l-16.4,18.9h22.7v9.6H763.6z"/>
			<rect x="275.9" y="92.3" class="st4" width="6.5" height="9.7"/>
		</g>
	</g>
</g>
</svg>
