<?xml version="1.0" encoding="utf-8"?>
<!-- Generator: Adobe Illustrator 24.3.0, SVG Export Plug-In . SVG Version: 6.00 Build 0)  -->
<svg version="1.1" id="レイアウト1" xmlns="http://www.w3.org/2000/svg" xmlns:xlink="http://www.w3.org/1999/xlink" x="0px"
	 y="0px" width="147.4px" height="31.3px" viewBox="0 0 147.4 31.3" enable-background="new 0 0 147.4 31.3" xml:space="preserve">
<g>
	<polygon fill="#004D8F" points="6.8,8.6 2.1,3.1 2.1,8.5 0.5,8.5 0.5,0 1.4,0 6.1,5.4 6.1,0.1 7.6,0.1 7.6,8.6 	"/>
	<rect x="9.3" y="0.1" fill="#004D8F" width="1.7" height="8.3"/>
	<polygon fill="#004D8F" points="15.3,4.7 14.4,5.8 14.4,8.4 12.7,8.4 12.7,0.1 14.4,0.1 14.4,3.8 17.5,0.1 19.3,0.1 19.3,0.2 
		16.5,3.5 19.5,8.4 19.5,8.4 17.6,8.4 	"/>
	<polygon fill="#004D8F" points="23,4.7 22.2,5.8 22.2,8.4 20.4,8.4 20.4,0.1 22.2,0.1 22.2,3.8 25.3,0.1 27,0.1 27,0.2 24.3,3.5 
		27.2,8.4 27.2,8.4 25.3,8.4 	"/>
	<polygon fill="#004D8F" points="28.2,0.1 33.2,0.1 33.2,1.4 29.9,1.4 29.9,3.5 32.7,3.5 32.7,4.8 29.9,4.8 29.9,7.1 33.2,7.1 
		33.2,8.5 28.2,8.5 	"/>
	<rect x="34.6" y="0.1" fill="#004D8F" width="1.7" height="8.3"/>
	<path fill="#050404" d="M0,29.8l0.1-4.5l0.2-0.1c1.6,1.1,3.3,1.9,5.6,1.9c1.9,0,2.8-0.7,2.8-1.9c0-1.1-0.6-1.6-2.5-2.2l-1.4-0.4
		C1.8,21.7,0,20,0,16.8c0-4,2.8-6.2,7.2-6.2c2.3,0,4.2,0.4,5.4,1.1v4.2L12.5,16c-1.5-0.9-3.1-1.4-5-1.4c-1.7,0-2.5,0.7-2.5,1.6
		c0,0.9,0.4,1.7,2,2.2l1.3,0.4c4,1.1,5.6,2.5,5.6,5.9c0,4.2-2.9,6.5-7.8,6.5C3.3,31.3,1.4,30.6,0,29.8"/>
	<path fill="#050404" d="M20.1,21.3V31h-4.4V17h4.1v1.8c0.9-1,2.6-2.1,4.6-2.1c1.7,0,3,0.7,3.7,2.2c0.9-1.2,2.7-2.2,4.8-2.2
		c2.5,0,4.3,1.5,4.3,4.9V31h-4.4v-8.5c0-1.6-0.7-2-1.7-2c-0.8,0-1.8,0.3-2.4,0.8V31h-4.4v-8.5c0-1.6-0.7-2-1.7-2
		C21.7,20.5,20.7,20.8,20.1,21.3"/>
	<path fill="#050404" d="M47.1,29.6c-0.7,1-1.8,1.7-3.8,1.7c-2.6,0-4.5-1.4-4.5-4.2c0-2.9,2.1-4,5.5-4.6l2.6-0.3
		c0-1.6-0.8-2.2-2.6-2.2c-1.9,0-3.1,0.5-4.2,1.1l-0.2-0.1v-3.3c1.1-0.6,2.8-1.1,5.1-1.1c4.1,0,6.2,1.6,6.2,5.7V31h-4L47.1,29.6z
		 M46.8,27.4v-2.5l-1.7,0.2c-1.5,0.2-2.2,0.7-2.2,1.7c0,0.9,0.5,1.6,1.8,1.6C45.7,28.4,46.4,28,46.8,27.4"/>
	<path fill="#050404" d="M57.7,22.1V31h-4.4V17h4.1l0,2.4c0.7-1.3,2-2.6,3.9-2.6c0.4,0,0.8,0.1,1.1,0.1V21l-0.2,0.1
		C61.9,21,61.5,21,61.1,21C59.5,21,58.5,21.3,57.7,22.1"/>
	<path fill="#050404" d="M69.6,31.3c-2.4,0-4.3-0.8-4.3-3.7v-7.2h-1.6V17h1.6v-2.2l4.4-0.7V17h2.8v3.3h-2.8v6.4
		c0,0.9,0.5,1.3,1.4,1.3c0.5,0,1-0.2,1.3-0.3l0.2,0.1v3.1C71.8,31.1,70.7,31.3,69.6,31.3"/>
	<path fill="#050404" d="M103.8,23.5c0-4.8,3.4-7.7,7.9-7.7c4.5,0,7.9,2.9,7.9,7.7c0,4.8-3.4,7.8-7.9,7.8
		C107.2,31.3,103.8,28.3,103.8,23.5 M114.9,23.5c0-3-1.3-4.4-3.2-4.4c-1.9,0-3.2,1.4-3.2,4.4c0,3,1.3,4.4,3.2,4.4
		C113.6,27.9,114.9,26.5,114.9,23.5"/>
	<path fill="#050404" d="M126.4,21.6v9.4h-4.6V16.1h4.4l0,2.5c0.8-1.4,2.1-2.8,4.1-2.8c0.5,0,0.9,0.1,1.2,0.1v4.4l-0.2,0.1
		c-0.3-0.1-0.8-0.1-1.3-0.1C128.3,20.3,127.3,20.6,126.4,21.6"/>
	<polygon fill="#050404" points="139.3,25.2 138.1,26.7 138.1,30.9 133.5,30.9 133.5,12.2 138.1,11.4 138.1,22 142.5,16.1 
		147.1,16.1 147.1,16.4 142.8,22 147.4,30.7 147.4,30.9 142.4,30.9 	"/>
	<polygon fill="#050404" points="98.7,31.1 104.9,12.2 104.8,12 100.1,12 96.9,22.1 93.3,12 87.8,12 87.8,12.2 87.9,12.5 94.8,29.9 
		95.2,31.1 	"/>
	<polygon fill="#050404" points="88.6,18.4 87.1,22.3 83.7,12 78,12 78,12.2 84.6,31.1 87.7,31.1 90.6,23.5 	"/>
</g>
</svg>
