<svg width="25" height="25" viewBox="0 0 25 25" fill="none" xmlns="http://www.w3.org/2000/svg">
<path d="M20.25 0.494141C22.4591 0.494141 24.2499 2.28511 24.25 4.49414V20.4941C24.25 22.7033 22.4591 24.4941 20.25 24.4941H4.25C2.04086 24.4941 0.25 22.7033 0.25 20.4941V4.49414C0.250124 2.28511 2.04094 0.494141 4.25 0.494141H20.25ZM11.9541 6.30176C11.1115 6.30176 10.3269 6.45136 9.60156 6.75C8.88708 7.03797 8.25776 7.44922 7.71387 7.98242C7.18068 8.505 6.76444 9.11844 6.46582 9.82227C6.16725 10.5261 6.01763 11.2942 6.01758 12.126C6.01758 12.9471 6.16733 13.7152 6.46582 14.4297C6.77513 15.1336 7.19719 15.7528 7.73047 16.2861C8.27435 16.8193 8.90866 17.2356 9.63379 17.5342C10.3591 17.8328 11.1437 17.9824 11.9863 17.9824C12.8289 17.9824 13.6077 17.8328 14.3223 17.5342C14.6831 17.3834 15.0203 17.203 15.335 16.9951L17.0264 18.6865L18.4824 17.2305L16.8223 15.5703C17.0737 15.2232 17.287 14.8494 17.458 14.4463C17.7566 13.7318 17.9062 12.9637 17.9062 12.1426C17.9062 11.3107 17.7566 10.5418 17.458 9.83789C17.1594 9.12353 16.7381 8.50493 16.1943 7.98242C15.661 7.44914 15.0309 7.03798 14.3057 6.75C13.5911 6.45146 12.8072 6.30177 11.9541 6.30176ZM11.9541 8.58984C12.466 8.58986 12.9248 8.6751 13.3301 8.8457C13.746 9.00568 14.1037 9.24647 14.4023 9.56641C14.7008 9.87563 14.9299 10.2494 15.0898 10.6865C15.2497 11.113 15.33 11.5929 15.3301 12.126C15.3301 12.7292 15.2222 13.2731 15.0107 13.7588L13.2021 11.9502L11.7461 13.4062L13.6367 15.2969C13.1555 15.5604 12.5953 15.6943 11.9541 15.6943C11.4529 15.6943 10.9941 15.6091 10.5781 15.4385C10.1728 15.2678 9.8211 15.0271 9.52246 14.7178C9.22385 14.3978 8.99396 14.0193 8.83398 13.582C8.67406 13.1448 8.59375 12.6592 8.59375 12.126C8.5938 11.4117 8.73262 10.793 9.00977 10.2705C9.29776 9.73726 9.69306 9.32605 10.1943 9.03809C10.6956 8.73957 11.2823 8.58984 11.9541 8.58984Z" fill="black"/>
</svg>
