<svg width="24" height="24" viewBox="0 0 24 24" fill="none" xmlns="http://www.w3.org/2000/svg">
<path d="M0 6.4C0 4.15979 0 3.03969 0.435974 2.18404C0.819467 1.43139 1.43139 0.819467 2.18404 0.435974C3.03969 0 4.15979 0 6.4 0H17.6C19.8402 0 20.9603 0 21.816 0.435974C22.5686 0.819467 23.1805 1.43139 23.564 2.18404C24 3.03969 24 4.15979 24 6.4V17.6C24 19.8402 24 20.9603 23.564 21.816C23.1805 22.5686 22.5686 23.1805 21.816 23.564C20.9603 24 19.8402 24 17.6 24H6.4C4.15979 24 3.03969 24 2.18404 23.564C1.43139 23.1805 0.819467 22.5686 0.435974 21.816C0 20.9603 0 19.8402 0 17.6V6.4Z" fill="#C6C9C5"/>
<path d="M6.24 17.5L10.72 6.204H12.992L17.424 17.5H14.768L11.376 8.124H12.288L8.848 17.5H6.24ZM8.784 15.452V13.404H14.944V15.452H8.784Z" fill="black"/>
</svg>
