<?xml version="1.0" encoding="utf-8"?>
<!-- Generator: Adobe Illustrator 23.0.2, SVG Export Plug-In . SVG Version: 6.00 Build 0)  -->
<svg version="1.1" id="レイヤー_1" xmlns="http://www.w3.org/2000/svg" xmlns:xlink="http://www.w3.org/1999/xlink" x="0px"
	 y="0px" width="100.634px" height="22.563px" viewBox="0 0 100.634 22.563" style="enable-background:new 0 0 100.634 22.563;"
	 xml:space="preserve">
<style type="text/css">
	.st0{fill:#FFFFFF;}
</style>
<g>
	<path class="st0" d="M14.617,16.609v5.16h-3.048v-5.16H9.793c-0.36,1.92-1.656,4.393-3.673,5.665
		c-0.456-0.456-1.344-1.32-2.688-1.776v1.728H0V0.864h10.057v8.353H3.433v11.257c1.68-0.936,2.832-1.848,3.312-3.864H4.272v-2.664
		h2.784c0-0.432,0.023-0.96,0.023-1.416H4.872v-2.521h11.642v2.521h-1.896v1.416h2.4v2.664H14.617z M6.841,3.24H3.433v0.889h3.408
		V3.24z M6.841,5.952H3.433v0.912h3.408V5.952z M11.569,12.529h-1.488c-0.024,0.288-0.024,1.2-0.048,1.416h1.536V12.529z
		 M16.705,22.322c-0.216-1.824-0.983-3.024-1.271-3.505c0.792,0.145,1.008,0.192,1.392,0.192c0.456,0,0.96,0,0.96-0.84V9.217h-6.672
		V0.864h10.104v18.674C21.218,21.77,19.85,22.346,16.705,22.322z M17.785,3.24h-3.456v0.889h3.456V3.24z M17.785,5.952h-3.456v0.912
		h3.456V5.952z"/>
	<path class="st0" d="M42.961,11.473v1.009h3.721v2.424h-3.721v1.008h3.721v2.425h-3.721v0.984h4.849v2.616H36.793v0.384h-3.385
		V13.97c-0.264,0.264-0.479,0.479-0.647,0.647c-0.24-0.456-0.505-0.936-1.152-1.704v9.409h-3.505V10.801
		c-0.191,0.24-0.456,0.553-0.647,0.792c-0.864-1.368-1.272-1.8-2.448-2.472c1.104-1.32,3.816-4.729,5.04-9.121l3.36,1.128V0.744
		l3.408,0.12c0.265,0,0.36,0.144,0.36,0.336c0,0.24-0.192,0.36-0.528,0.576V4.08h1.801V0.12l3.576,0.216
		c0.24,0.024,0.359,0.145,0.359,0.313c0,0.312-0.359,0.408-0.575,0.456V4.08h2.016V0.864l3.553,0.216
		c0.288,0.024,0.432,0.096,0.432,0.265c0,0.287-0.288,0.407-0.6,0.552v4.8h-5.545l1.681,0.912c0.191,0.097,0.264,0.265,0.264,0.385
		c0,0.264-0.336,0.359-0.696,0.432c-0.096,0.168-0.24,0.384-0.384,0.6h5.137v2.448H42.961z M31.608,11.041
		c0.672-0.696,2.16-2.353,3.264-4.345h-1.464V1.849c-0.072,0.023-0.144,0.071-0.216,0.096c-0.408,0.888-0.648,1.392-1.488,3.024
		c0.36,0.191,0.456,0.24,0.456,0.408c0,0.239-0.384,0.432-0.552,0.504V11.041z M36.793,11.473v1.009h2.784v-1.009H36.793z
		 M36.793,14.905v1.008h2.784v-1.008H36.793z M39.577,19.322v-0.984h-2.784v0.984H39.577z M38.713,9.024
		c0.336-0.504,0.888-1.416,1.344-2.328h-2.976l1.104,0.553c0.192,0.096,0.336,0.191,0.336,0.384c0,0.216-0.264,0.36-0.695,0.408
		c-0.265,0.432-0.36,0.576-0.601,0.983H38.713z"/>
	<path class="st0" d="M66.625,12.097V9.049h0.528V3.792h-0.433V0.889h7.393v2.903h-0.815c-0.049,2.257-0.192,3.913-0.337,5.257
		h1.272v3.048h-1.8c-0.192,0.625-0.24,0.793-0.384,1.249c0.384,0.023,0.647,0.048,0.647,0.312s-0.288,0.36-0.552,0.456v4.368
		c0,0.265,0,0.385,0.24,0.385c0.312,0,0.359-1.225,0.384-1.849c0.647,0.672,1.608,1.248,2.184,1.512
		c-0.479,2.4-0.815,3.433-2.592,3.433h-0.984c-1.824,0-1.824-1.08-1.824-1.992v-1.729c-0.72,1.104-2.136,3.049-3.936,4.321
		c-0.744-0.816-1.32-1.249-2.713-2.185c0.696-0.408,1.296-0.769,2.064-1.416c-0.048-0.216-0.24-1.08-0.288-1.248
		c-2.928,2.136-3.265,2.376-4.152,2.928c-0.12,0.385-0.192,0.576-0.408,0.576c-0.12,0-0.216-0.072-0.336-0.432l-1.056-3.192
		c0.407-0.168,0.552-0.24,1.368-0.601v-3.624c-0.12,0.145-1.009,1.225-1.513,1.824c-0.216-0.312-0.336-0.504-0.768-1.464v8.496
		h-2.929v-5.928c-0.312,0.863-0.479,1.296-0.672,1.728c-0.792-0.72-1.704-1.344-2.641-1.896C52.92,13.921,54,11.665,54.84,7.921
		h-2.185v-3.24h2.232V0.433l2.929,0.239c0.216,0.024,0.456,0.072,0.456,0.265c0,0.191-0.168,0.264-0.456,0.408v3.336h1.704v3.24
		H57.96c0.576,1.32,1.272,2.592,2.137,3.744V0.889h6.048v10.393h-3.432v4.32c0.624-0.36,0.888-0.528,1.176-0.72
		c-0.313-0.937-0.504-1.393-0.696-1.873l2.688-1.031c0.528,1.08,1.104,2.424,1.656,4.176c1.271-1.848,1.776-3.336,2.016-4.057
		H66.625z M63.769,5.089V3.601h-1.056v1.488H63.769z M62.713,7.32v1.417h1.056V7.32H62.713z M69.553,3.792v5.257h0.673
		c0.191-1.344,0.264-3.36,0.264-5.257H69.553z"/>
	<path class="st0" d="M78.912,15.098v-2.809h6.648c0.216-0.336,0.432-0.647,0.769-1.224h-5.688V4.561h5.04v-0.96H78.96V0.912h21.674
		v2.688h-6.792v0.96h5.088v6.505h-8.257c0.048,0.048,0.097,0.12,0.097,0.191c0,0.336-0.456,0.385-0.601,0.408
		c-0.168,0.264-0.24,0.384-0.384,0.624h10.801v2.809h-3.721c0.049,0.071,0.097,0.144,0.097,0.216c0,0.288-0.288,0.384-0.984,0.432
		c-0.72,0.889-1.2,1.368-1.632,1.776c2.231,0.648,3.648,1.2,5.496,2.112c-1.176,1.176-1.416,1.464-2.256,2.929
		c-2.305-1.393-3.528-1.969-6.097-2.904c-3.576,1.943-7.657,2.52-10.849,2.688c-0.168-0.84-0.433-1.68-1.608-3.096
		c1.32,0.023,4.776,0.144,8.232-0.937c-0.432-0.12-0.864-0.216-1.968-0.479c-0.145,0.12-0.336,0.336-0.553,0.527
		c-2.184-1.128-2.976-1.271-3.479-1.392c1.056-0.864,1.392-1.225,2.04-1.872H78.912z M85.681,7.081h-1.704v1.512h1.704V7.081z
		 M87.745,15.098c-0.192,0.216-0.456,0.527-0.696,0.815c0.792,0.12,3.024,0.528,3.696,0.673c0.768-0.601,1.2-1.104,1.488-1.488
		H87.745z M90.625,3.601h-1.752v0.96h1.752V3.601z M88.873,8.593h1.752V7.081h-1.752V8.593z M93.842,8.593h1.752V7.081h-1.752V8.593
		z"/>
</g>
</svg>
