<svg xmlns="http://www.w3.org/2000/svg" viewBox="0 0 18.16 18.16"><title>icon_tw</title><g id="レイヤー_1" data-name="レイヤー 1"><path id="パス_114" data-name="パス 114" d="M18,3.54a7.69,7.69,0,0,1-2.11.58,3.65,3.65,0,0,0,1.61-2A7.65,7.65,0,0,1,15.19,3,3.66,3.66,0,0,0,9,6.32,10.42,10.42,0,0,1,1.39,2.49,3.66,3.66,0,0,0,2.52,7.38,3.59,3.59,0,0,1,.86,6.93V7a3.67,3.67,0,0,0,2.94,3.6,3.47,3.47,0,0,1-1,.13,3.23,3.23,0,0,1-.69-.07,3.66,3.66,0,0,0,3.42,2.55A7.36,7.36,0,0,1,1,14.75a8.65,8.65,0,0,1-.88-.05,10.39,10.39,0,0,0,5.63,1.64A10.36,10.36,0,0,0,16.2,5.91c0-.16,0-.32,0-.48A7.31,7.31,0,0,0,18,3.54"/></g></svg>