<svg xmlns="http://www.w3.org/2000/svg" xmlns:xlink="http://www.w3.org/1999/xlink" viewBox="0 0 135 129"><defs><style>.cls-1{fill:none;}.cls-2{clip-path:url(#clip-path);}.cls-3{fill:#e06c47;}.cls-4{fill:#704f3a;}</style><clipPath id="clip-path"><rect id="SVGID" class="cls-1" y="-3" width="135" height="135"/></clipPath></defs><title>indie_games_sown</title><g id="レイヤー_5のコピー" data-name="レイヤー 5のコピー"><g class="cls-2"><path class="cls-3" d="M43.3,1.3H37.37c-3.23,0-4.85,1.26-4.85,3.76v.67c0,.27,0,.67,0,1.22q0,3.45,4,3.45H42c1,0,1.47.45,1.47,1.34,0,1.24-.49,1.87-1.45,1.87H36.88a1.19,1.19,0,0,1-1.36-1.34v-.73H32.36v1.72c0,2.16,1.14,3.24,3.42,3.24h7.46c2.28,0,3.43-1.18,3.42-3.54V10.68q0-3.59-4.17-3.59H37c-.84,0-1.27-.45-1.27-1.36s.47-1.54,1.4-1.54h4.79c1,0,1.44.54,1.45,1.63h3.16a6.3,6.3,0,0,0-.74-3.54,2.86,2.86,0,0,0-2.44-1"/><polygon class="cls-4" points="67.93 1.29 54.68 1.3 54.69 16.49 57.85 16.49 68.28 16.48 68.28 13.6 57.85 13.6 57.85 10.33 67.05 10.33 67.05 7.44 57.85 7.45 57.85 4.18 67.93 4.18 67.93 1.29"/><polygon class="cls-4" points="90.42 1.29 87.28 1.29 87.29 12.07 79.63 1.29 76.12 1.29 76.13 16.48 79.27 16.48 79.26 5.61 87.22 16.48 90.43 16.47 90.42 1.29"/><path class="cls-4" d="M109.5,1.28h-5.9c-3.23,0-4.85,1.26-4.84,3.76V6.93c0,2.3,1.33,3.44,4,3.44h5.5c1,0,1.49.45,1.49,1.34,0,1.25-.49,1.87-1.45,1.87h-5.17a1.2,1.2,0,0,1-1.37-1.35v-.72H98.59v1.72q0,3.22,3.42,3.23h7.46c2.28,0,3.43-1.18,3.42-3.54V10.66q0-3.59-4.17-3.59h-5.54c-.84,0-1.26-.45-1.26-1.36s.46-1.54,1.39-1.54h4.79c1,0,1.44.54,1.46,1.63h3.15A6.27,6.27,0,0,0,112,2.26a2.9,2.9,0,0,0-2.47-1"/><polygon class="cls-4" points="134.16 1.27 120.91 1.28 120.92 16.47 124.08 16.46 134.51 16.46 134.51 13.58 124.08 13.58 124.08 10.31 133.28 10.31 133.28 7.42 124.08 7.43 124.08 4.16 134.16 4.16 134.16 1.27"/><path class="cls-3" d="M37.84,40.55q-2.75,0-2.76-2.82V34a2.47,2.47,0,0,1,2.76-2.81h3.69c1.82,0,2.74.94,2.75,2.81v3.77c0,1.89-.92,2.83-2.76,2.83H37.84m4.93-12.3h-6.2c-3.11,0-4.65,1.52-4.65,4.54v3.05c0,1,0,2,0,3q0,4.58,4.64,4.57h6.21c3.09,0,4.65-1.53,4.66-4.58V32.78q0-4.53-4.67-4.53"/><polygon class="cls-4" points="67.67 28.24 54.26 28.25 54.26 43.44 57.42 43.43 57.42 37.28 66.37 37.28 66.36 34.39 57.42 34.4 57.41 31.13 67.67 31.13 67.67 28.24"/><polygon class="cls-3" points="48.99 56.12 45.73 56.13 44.15 68.1 41.71 56.13 38.28 56.13 35.82 68.1 34.25 56.13 30.99 56.13 33.47 71.32 37.78 71.32 39.99 60.45 42.21 71.32 46.53 71.31 48.99 56.12"/><path class="cls-4" d="M57.72,68.42c-1.82,0-2.74-1-2.75-2.83V61.82A2.47,2.47,0,0,1,57.73,59h3.68c1.83,0,2.75.93,2.76,2.81v3.77c0,1.89-.92,2.83-2.76,2.83H57.72m4.94-12.3H56.45c-3.09,0-4.64,1.52-4.64,4.54v6.08q0,4.58,4.65,4.57h6.21q4.65,0,4.66-4.58V60.65q0-4.53-4.67-4.53"/><polygon class="cls-4" points="84.46 56.11 81.32 56.11 81.32 66.89 73.66 56.12 70.16 56.12 70.16 71.31 73.3 71.3 73.3 60.43 81.25 71.3 84.47 71.3 84.46 56.11"/><path class="cls-4" d="M89.73,68.35V59h5.7c2,0,3.07.86,3.07,2.59v4.22c0,1.71-1,2.57-3.06,2.57H89.73M96.32,56.1H86.57V71.3h9.73q5.35,0,5.35-4.19V60.25c0-2.76-1.79-4.15-5.34-4.15"/><polygon class="cls-4" points="117.5 56.09 104.25 56.1 104.26 71.29 107.41 71.29 117.85 71.28 117.85 68.4 107.41 68.4 107.41 65.13 116.61 65.13 116.61 62.24 107.41 62.25 107.41 58.98 117.5 58.98 117.5 56.09"/><path class="cls-4" d="M123.45,62.86V59h6.71c.85,0,1.27.65,1.28,1.94s-.43,1.94-1.28,2h-6.71m7.42-6.77H120.29V71.28h3.16V65.75h5.45a4.26,4.26,0,0,1,1.83.35,1.22,1.22,0,0,1,.71,1.14v4h3.16v-4a3.13,3.13,0,0,0-1.1-2.31,3.82,3.82,0,0,0,1.1-3.05v-1c0-.33,0-.65,0-1q0-3.82-3.72-3.84"/><polygon class="cls-3" points="46.5 84 43.36 84 43.36 94.78 35.7 84.01 32.2 84.01 32.2 99.2 35.34 99.2 35.34 88.32 43.3 99.19 46.5 99.19 46.5 84"/><rect class="cls-4" x="57.34" y="84" width="3.16" height="15.19" transform="translate(-0.16 0.1) rotate(-0.1)"/><path class="cls-4" d="M81.2,84H75c-3.1,0-4.65,1.52-4.65,4.54v6.08q0,4.58,4.65,4.58h6.24q4.71,0,4.72-3.63V90.47H78.12v2.67H83v1.25c0,1.27-1,1.91-3,1.91H76.27c-1.82,0-2.74-.94-2.76-2.83V89.69a2.47,2.47,0,0,1,2.76-2.81H80c1.81,0,2.72.46,2.73,1.37v1h3.16V87.11Q85.87,84,81.2,84"/><polygon class="cls-4" points="110.41 83.98 107.25 83.98 107.25 90.08 99.26 90.08 99.26 83.99 96.11 83.99 96.11 99.18 99.27 99.17 99.27 92.97 107.25 92.97 107.25 99.17 110.41 99.17 110.41 83.98"/><polygon class="cls-4" points="134.2 83.98 125.54 83.98 119.9 83.98 119.9 86.87 125.55 86.86 125.55 99.17 128.71 99.17 128.71 86.86 134.2 86.86 134.2 83.98"/><path class="cls-3" d="M22.09,99.89H2.89v27.85h19.2ZM24,1.07H1v52.1L4.4,92.26H20.69L24,53.17V1.07"/><path class="cls-3" d="M41.81,111.83h-5q-4.62,0-4.62,2.82v2.7h4.31v-2.07c0-.75.55-1.12,1.64-1.12h2.14c1.09,0,1.64.3,1.64.92v1.17c0,1.22-1.35,2.19-4.07,2.92-3.86,1-5.8,2.93-5.82,5.69v2.33H46.41v-2.33H36.33q0-2.61,4.19-3.82c3.8-1.08,5.71-2.67,5.71-4.79v-2c0-1.65-1.48-2.47-4.42-2.47"/><path class="cls-3" d="M67.06,124.86c-1.13,0-1.7-.33-1.7-1v-8.67c0-.71.56-1.06,1.67-1.06H69.3c1.14,0,1.7.35,1.7,1.06v8.67c0,.63-.56,1-1.7,1H67.06m3.81-13H65.52c-3,0-4.54,1-4.54,2.92v9.66q0,2.78,4.41,2.78h5.39q4.57,0,4.6-2.81v-9.87q0-2.67-4.51-2.68"/><path class="cls-3" d="M99.75,111.83h-5q-4.64,0-4.63,2.82v2.7h4.31v-2.07c0-.75.55-1.12,1.64-1.12h2.15c1.09,0,1.63.3,1.63.92v1.17c0,1.22-1.35,2.19-4.07,2.92-3.86,1-5.8,2.93-5.82,5.69v2.33h14.39v-2.33H94.27q0-2.61,4.19-3.82c3.8-1.08,5.71-2.67,5.71-4.79v-2q0-2.47-4.42-2.47"/><path class="cls-3" d="M125,124.86c-1.14,0-1.71-.33-1.71-1v-8.67c0-.71.56-1.06,1.67-1.06h2.27c1.14,0,1.7.35,1.7,1.06v8.67c0,.63-.56,1-1.7,1H125m3.81-13h-5.36c-3,0-4.54,1-4.54,2.92v9.66q0,2.78,4.42,2.78h5.38q4.58,0,4.6-2.81v-9.87q0-2.67-4.5-2.68"/></g></g></svg>