<svg xmlns="http://www.w3.org/2000/svg" xmlns:xlink="http://www.w3.org/1999/xlink" viewBox="0 0 269.34 201.62"><defs><style>.cls-1{fill:none;}.cls-2{fill:#fa69b3;}.cls-3{fill:#fa46a1;}.cls-4{fill:#fa99c9;}.cls-5{clip-path:url(#clip-path);}.cls-6{fill:#29b900;}.cls-7{fill:#6ad000;}.cls-8{fill:#aae700;}</style><clipPath id="clip-path"><rect class="cls-1" x="2.12" y="2.23" width="265.1" height="197.16"/></clipPath></defs><title>indie_games_img_en</title><g id="レイヤー_5" data-name="レイヤー 5"><polygon class="cls-2" points="192.88 55.05 118.77 55.05 81.94 107.54 229.71 107.54 192.88 55.05"/><polygon class="cls-3" points="155.83 2.23 119.67 53.77 191.98 53.77 155.83 2.23"/><polygon class="cls-4" points="81.04 108.82 44.43 161 267.22 161 230.61 108.82 81.04 108.82"/><g class="cls-5"><path class="cls-6" d="M120.62,20.8l-2.06,3.36a23.78,23.78,0,0,0-8.91-1.81c-9.08-.05-15.8,5.21-17.83,12.48,3.22-4,8.42-6.63,14.78-6.59a23.67,23.67,0,0,1,8.46,1.64l-1.49,2.44,9-3.2Z"/><path class="cls-7" d="M91.65,43.65a18.18,18.18,0,0,1,.17-8.82,17,17,0,0,0-3.09,14.52A23.33,23.33,0,0,0,101.45,64.8l3.29-5.39c-6.41-3-11.56-8.79-13.09-15.76"/><path class="cls-7" d="M83.48,83.53l-2,3.37a23.78,23.78,0,0,0-8.91-1.81c-9.08,0-15.8,5.21-17.83,12.48,3.22-4,8.42-6.63,14.78-6.59a23.46,23.46,0,0,1,8.46,1.64l-1.49,2.44,9-3.2Z"/><path class="cls-8" d="M54.52,106.39a18.18,18.18,0,0,1,.17-8.82,17,17,0,0,0-3.09,14.52c1.51,6.78,6.49,12.41,12.72,15.45l3.29-5.39c-6.41-3-11.56-8.79-13.09-15.76"/><polygon class="cls-6" points="176.63 166.12 155.83 153.31 135.02 166.12 145.58 166.12 145.58 178.28 166.07 178.28 166.07 166.12 176.63 166.12"/></g><path d="M142,18.56c-1.82-.66-2.66-1.51-2.66-3.17,0-1.81,1.5-3.31,4-3.31,2,0,3.41.74,4.06,2.32l-1.63,1.17a2.38,2.38,0,0,0-2.35-1.65c-1.26,0-1.9.62-1.9,1.36s.43,1,1.48,1.4l1.79.58c1.84.63,2.94,1.64,2.94,3.44,0,2.27-1.54,3.62-4.3,3.62a4.43,4.43,0,0,1-4.53-3l1.68-1.12a3.16,3.16,0,0,0,2.85,2.26c1.32,0,2-.6,2-1.5s-.51-1.33-1.74-1.78Z"/><path d="M149.42,18.17c0-3.54,2-6.09,5.25-6.09s5.22,2.56,5.22,6.09-2,6.15-5.22,6.15S149.42,21.79,149.42,18.17Zm8.21,0c0-2.57-1.21-4.17-3-4.17s-3,1.6-3,4.17,1.24,4.23,3,4.23S157.63,20.76,157.63,18.17Z"/><path d="M169.62,24l-1.41-7a18.18,18.18,0,0,1-.31-2.55h0a21.9,21.9,0,0,1-.32,2.55l-1.37,7h-2.54l-2.58-11.66h2.22l1.45,7.06a18.16,18.16,0,0,1,.21,2.37h0c.05-.65.15-1.72.27-2.34l1.45-7.09h2.36l1.54,7.07a20.72,20.72,0,0,1,.27,2.32h0c0-.76.1-1.77.19-2.29l1.38-7.1h2.12L172.09,24Z"/><path d="M182.68,24l-3.45-6.73a18.46,18.46,0,0,1-1-2.73h0c.08.73.29,2.69.29,4.05V24h-2.11V12.37H179l3.45,6.68a15.08,15.08,0,0,1,1.11,2.68h.06a30.49,30.49,0,0,1-.32-3.78V12.37h2.1V24Z"/><path d="M139.67,43.74V37.1h-1.18V35.44h1.18v-.88c0-1.87.7-2.74,3.54-2.77l.38,1.73h-.2c-1.49,0-1.69.33-1.69,1.08v.84h1.6V37.1h-1.51v6.64Zm4.25-9.51V32.07h2.21v2.16Zm0,9.51v-8.3h2.14v8.3Z"/><path d="M153.77,43.74V38.5A1.42,1.42,0,0,0,152.29,37a1.92,1.92,0,0,0-1.91,1.35v5.43h-2.13v-8.3h1.95V36.5a2.8,2.8,0,0,1,2.69-1.24,2.87,2.87,0,0,1,3,2.94v5.54Z"/><path d="M165.46,43.84a2.56,2.56,0,0,1-.67.08c-.84,0-1.57-.36-1.71-1.07a3.58,3.58,0,0,1-2.94,1.07c-1.69,0-2.56-.84-2.59-2.23v-.08c0-1.58,1-2.42,2.89-2.85,1.12-.24,2.05-.56,2.05-1,0-.64-.44-.84-1.42-.84a3.51,3.51,0,0,0-2.49,1.27l-.86-1.52a4.42,4.42,0,0,1,3.51-1.39c2.3,0,3.48.82,3.48,2.63v3.54a.65.65,0,0,0,.74.72,2.22,2.22,0,0,0,.43,0Zm-2.9-4.41a4,4,0,0,1-1.6.69c-.82.21-1.35.51-1.35,1.27v.09c0,.54.38.82,1.07.82a2,2,0,0,0,1.88-1.17Z"/><path d="M167,43.74V32.07h2.17V43.74Z"/><path d="M171.38,34.23V32.07h2.21v2.16Zm0,9.51v-8.3h2.14v8.3Z"/><path d="M181.37,38a3.29,3.29,0,0,0-2.56-1.19c-.84,0-1.24.33-1.24.79s.28.7,1.6,1c2.24.47,3.26,1.35,3.26,2.86s-1.23,2.5-3.57,2.5a4.6,4.6,0,0,1-3.68-1.6l.91-1.5a3.91,3.91,0,0,0,2.83,1.47c.91,0,1.33-.33,1.33-.86s-.5-.94-1.92-1.24c-2.05-.42-2.88-1.31-2.88-2.54s1.21-2.39,3.39-2.39a4.26,4.26,0,0,1,3.38,1.3Z"/><path d="M188.2,43.92c-2.65,0-3.59-.54-3.59-2.52V37.1h-1.18V35.44h1.27v-2.6h2v2.6h1.43V37.1h-1.43V41c0,1.13.2,1.19,1.89,1.19Z"/><path d="M195.56,38A3.29,3.29,0,0,0,193,36.8c-.84,0-1.24.33-1.24.79s.28.7,1.6,1c2.24.47,3.26,1.35,3.26,2.86s-1.23,2.5-3.58,2.5a4.58,4.58,0,0,1-3.67-1.6l.91-1.5a3.91,3.91,0,0,0,2.82,1.47c.92,0,1.33-.33,1.33-.86s-.49-.94-1.91-1.24c-2.05-.42-2.89-1.31-2.89-2.54s1.22-2.39,3.4-2.39a4.26,4.26,0,0,1,3.38,1.3Z"/><path d="M99,123.24c-1.83-.66-2.67-1.51-2.67-3.17s1.5-3.3,4-3.3c2,0,3.41.73,4,2.32l-1.63,1.16a2.37,2.37,0,0,0-2.35-1.64c-1.25,0-1.9.61-1.9,1.36s.44,1,1.48,1.39l1.8.58c1.84.63,2.93,1.65,2.93,3.44,0,2.27-1.54,3.62-4.29,3.62a4.41,4.41,0,0,1-4.53-3l1.67-1.12a3.17,3.17,0,0,0,2.86,2.26c1.31,0,2-.6,2-1.49s-.51-1.34-1.73-1.78Z"/><path d="M114.11,127.1a4.25,4.25,0,0,1-3.76,1.8,4,4,0,0,1-4.14-4.34c0-2.45,1.5-4.32,4.08-4.32,2.4,0,3.89,1.67,3.89,4.23v.22l-6,.77a2.13,2.13,0,0,0,2.32,1.75,2.92,2.92,0,0,0,2.57-1.4Zm-1.93-3.69a1.71,1.71,0,0,0-1.9-1.51,2,2,0,0,0-2.14,2Z"/><path d="M115.85,128.72V117.05H118v11.67Z"/><path d="M127.64,127.1a4.24,4.24,0,0,1-3.76,1.8,4,4,0,0,1-4.14-4.34c0-2.45,1.5-4.32,4.08-4.32,2.4,0,3.89,1.67,3.89,4.23v.22l-6,.77a2.13,2.13,0,0,0,2.32,1.75,2.92,2.92,0,0,0,2.57-1.4Zm-1.93-3.69a1.71,1.71,0,0,0-1.9-1.51,2,2,0,0,0-2.14,2Z"/><path d="M136.5,127.64a4,4,0,0,1-3.27,1.26,4.33,4.33,0,1,1,0-8.66,4.35,4.35,0,0,1,3.17,1.09l-.72,1.67a2.6,2.6,0,0,0-2.17-1,2.62,2.62,0,0,0,.05,5.23,2.78,2.78,0,0,0,2.24-1.11Z"/><path d="M142.21,128.9c-2.64,0-3.59-.54-3.59-2.52v-4.3h-1.18v-1.66h1.27v-2.61h2v2.61h1.42v1.66h-1.42v3.85c0,1.14.19,1.2,1.88,1.2Z"/><path d="M143.92,119.21v-2.16h2.21v2.16Zm0,9.51v-8.3h2.14v8.3Z"/><path d="M147.8,124.57a4.24,4.24,0,1,1,4.25,4.33A4,4,0,0,1,147.8,124.57Zm6.33,0c0-1.64-.82-2.63-2.08-2.63s-2.09,1-2.09,2.63.88,2.64,2.09,2.64S154.13,126.22,154.13,124.57Z"/><path d="M163.47,128.72v-5.24a1.42,1.42,0,0,0-1.48-1.54,1.92,1.92,0,0,0-1.91,1.35v5.43H158v-8.3h2v1.06a2.81,2.81,0,0,1,2.69-1.24,2.87,2.87,0,0,1,3,2.94v5.54Z"/><path d="M172.86,128.72V117.05H175v4.17a2.65,2.65,0,0,1,2.29-1c2.2,0,3.62,1.49,3.62,4.32s-1.47,4.34-3.6,4.34a3,3,0,0,1-2.52-1.14l-.37,1Zm2.08-2.62a2.1,2.1,0,0,0,1.82,1.14c1.14,0,2-.89,2-2.68s-.78-2.62-2-2.62a1.82,1.82,0,0,0-1.81,1.87Z"/><path d="M182.11,124.57a4.24,4.24,0,1,1,4.25,4.33A4,4,0,0,1,182.11,124.57Zm6.33,0c0-1.64-.82-2.63-2.08-2.63s-2.09,1-2.09,2.63.88,2.64,2.09,2.64S188.44,126.22,188.44,124.57Z"/><path d="M191.82,124.57a4.24,4.24,0,1,1,4.24,4.33A4,4,0,0,1,191.82,124.57Zm6.32,0c0-1.64-.82-2.63-2.08-2.63s-2.09,1-2.09,2.63.88,2.64,2.09,2.64S198.14,126.22,198.14,124.57Z"/><path d="M206.11,128.9c-2.65,0-3.59-.54-3.59-2.52v-4.3h-1.18v-1.66h1.27v-2.61h2v2.61h1.43v1.66h-1.43v3.85c0,1.14.2,1.2,1.89,1.2Z"/><path d="M213.33,128.72v-5.24a1.42,1.42,0,0,0-1.48-1.54,1.92,1.92,0,0,0-1.91,1.35v5.43h-2.13V117.05h2.13v4.22a2.78,2.78,0,0,1,2.49-1,2.75,2.75,0,0,1,3,2.75v5.73Z"/><path d="M125,148.52a2.56,2.56,0,0,1-.67.08c-.84,0-1.57-.36-1.71-1.06a3.62,3.62,0,0,1-2.94,1.06c-1.69,0-2.56-.84-2.59-2.23v-.07c0-1.59,1-2.43,2.89-2.86,1.12-.24,2-.55,2-1,0-.64-.43-.83-1.42-.83a3.47,3.47,0,0,0-2.48,1.27l-.87-1.53a4.46,4.46,0,0,1,3.52-1.39c2.3,0,3.48.82,3.48,2.63v3.55c0,.51.29.71.74.71a2.22,2.22,0,0,0,.43,0Zm-2.9-4.41a3.7,3.7,0,0,1-1.6.69c-.82.21-1.35.51-1.35,1.27v.09c0,.54.38.82,1.07.82a2,2,0,0,0,1.88-1.16Z"/><path d="M126.5,151.31V140.12h1.93v1.15a2.53,2.53,0,0,1,2.39-1.33c2.2,0,3.71,1.5,3.71,4.32s-1.53,4.34-3.69,4.34a3.34,3.34,0,0,1-2.22-.81v3.52Zm2.08-5.51a2.08,2.08,0,0,0,1.82,1.14c1.14,0,2-.88,2-2.68s-.78-2.61-2-2.61a1.82,1.82,0,0,0-1.81,1.87Z"/><path d="M136.2,151.31V140.12h1.93v1.15a2.54,2.54,0,0,1,2.39-1.33c2.2,0,3.71,1.5,3.71,4.32s-1.52,4.34-3.69,4.34a3.29,3.29,0,0,1-2.21-.81v3.52Zm2.08-5.51a2.08,2.08,0,0,0,1.82,1.14c1.14,0,2-.88,2-2.68s-.78-2.61-2-2.61a1.82,1.82,0,0,0-1.81,1.87Z"/><path d="M146,148.42V136.76h2.17v11.66Z"/><path d="M150.28,138.91v-2.15h2.22v2.15Zm.05,9.51v-8.3h2.14v8.3Z"/><path d="M161.78,147.34a4,4,0,0,1-3.27,1.26,4.33,4.33,0,1,1,0-8.66,4.35,4.35,0,0,1,3.17,1.09l-.72,1.68a2.58,2.58,0,0,0-2.17-1.05,2.62,2.62,0,0,0,.05,5.23,2.77,2.77,0,0,0,2.24-1.1Z"/><path d="M170.81,148.52a2.56,2.56,0,0,1-.67.08c-.84,0-1.57-.36-1.7-1.06a3.65,3.65,0,0,1-2.95,1.06c-1.69,0-2.56-.84-2.59-2.23v-.07c0-1.59,1-2.43,2.89-2.86,1.12-.24,2.05-.55,2.05-1,0-.64-.44-.83-1.42-.83a3.48,3.48,0,0,0-2.49,1.27l-.86-1.53a4.44,4.44,0,0,1,3.51-1.39c2.3,0,3.49.82,3.49,2.63v3.55a.64.64,0,0,0,.73.71,2.22,2.22,0,0,0,.43,0Zm-2.9-4.41a3.7,3.7,0,0,1-1.6.69c-.82.21-1.34.51-1.34,1.27v.09c0,.54.37.82,1.06.82a2,2,0,0,0,1.88-1.16Z"/><path d="M177.87,148.42v-5.23a1.41,1.41,0,0,0-1.48-1.54,1.93,1.93,0,0,0-1.92,1.34v5.43h-2.12v-8.3h2v1.06a2.8,2.8,0,0,1,2.69-1.24,2.87,2.87,0,0,1,3,2.95v5.53Z"/><path d="M186.24,148.6c-2.65,0-3.59-.54-3.59-2.51v-4.31h-1.18v-1.66h1.27v-2.6h2v2.6h1.42v1.66h-1.42v3.86c0,1.13.19,1.19,1.88,1.19Z"/><path d="M193.6,142.68a3.27,3.27,0,0,0-2.56-1.2c-.84,0-1.24.33-1.24.79s.28.71,1.6,1c2.24.46,3.26,1.34,3.26,2.85s-1.23,2.5-3.58,2.5a4.55,4.55,0,0,1-3.67-1.6l.91-1.5a3.91,3.91,0,0,0,2.82,1.47c.92,0,1.34-.33,1.34-.85s-.5-1-1.92-1.24c-2.05-.42-2.88-1.32-2.88-2.55s1.21-2.39,3.39-2.39a4.26,4.26,0,0,1,3.38,1.3Z"/><path d="M99,73.61c-1.83-.66-2.67-1.51-2.67-3.17,0-1.81,1.5-3.31,4-3.31,2,0,3.41.74,4,2.32l-1.63,1.17A2.37,2.37,0,0,0,100.35,69c-1.25,0-1.9.61-1.9,1.36s.44,1,1.48,1.39l1.8.59c1.84.62,2.93,1.64,2.93,3.44,0,2.27-1.54,3.61-4.29,3.61a4.41,4.41,0,0,1-4.53-3l1.67-1.12a3.19,3.19,0,0,0,2.86,2.26c1.31,0,2-.6,2-1.5s-.51-1.33-1.73-1.78Z"/><path d="M114.11,77.47a4.26,4.26,0,0,1-3.76,1.79,4,4,0,0,1-4.14-4.34c0-2.45,1.5-4.32,4.08-4.32,2.4,0,3.89,1.68,3.89,4.23v.23l-6,.76a2.12,2.12,0,0,0,2.32,1.75,2.91,2.91,0,0,0,2.57-1.39Zm-1.93-3.7a1.71,1.71,0,0,0-1.9-1.51,2,2,0,0,0-2.14,2Z"/><path d="M115.85,79.08V67.42H118V79.08Z"/><path d="M127.64,77.47a4.25,4.25,0,0,1-3.76,1.79,4,4,0,0,1-4.14-4.34c0-2.45,1.5-4.32,4.08-4.32,2.4,0,3.89,1.68,3.89,4.23v.23l-6,.76A2.12,2.12,0,0,0,124,77.57a2.91,2.91,0,0,0,2.57-1.39Zm-1.93-3.7a1.71,1.71,0,0,0-1.9-1.51,2,2,0,0,0-2.14,2Z"/><path d="M136.5,78a4,4,0,0,1-3.27,1.26,4.33,4.33,0,1,1,0-8.66,4.4,4.4,0,0,1,3.17,1.09l-.72,1.68a2.58,2.58,0,0,0-2.17-1.05,2.62,2.62,0,0,0,.05,5.24,2.78,2.78,0,0,0,2.24-1.11Z"/><path d="M142.21,79.26c-2.64,0-3.59-.54-3.59-2.51V72.44h-1.18V70.78h1.27v-2.6h2v2.6h1.42v1.66h-1.42V76.3c0,1.14.19,1.2,1.88,1.2Z"/><path d="M143.92,69.57V67.42h2.21v2.15Zm0,9.51v-8.3h2.14v8.3Z"/><path d="M147.8,74.94a4.24,4.24,0,1,1,8.48,0,4.24,4.24,0,1,1-8.48,0Zm6.33,0c0-1.65-.82-2.63-2.08-2.63s-2.09,1-2.09,2.63.88,2.63,2.09,2.63S154.13,76.58,154.13,74.94Z"/><path d="M163.47,79.08V73.85A1.41,1.41,0,0,0,162,72.31a1.93,1.93,0,0,0-1.91,1.34v5.43H158v-8.3h2v1.06a2.81,2.81,0,0,1,2.69-1.24,2.87,2.87,0,0,1,3,3v5.53Z"/><path d="M172.86,79.08V67.42H175v4.17a2.65,2.65,0,0,1,2.29-1c2.2,0,3.62,1.5,3.62,4.32s-1.47,4.34-3.6,4.34a3,3,0,0,1-2.52-1.14l-.37,1Zm2.08-2.62a2.08,2.08,0,0,0,1.82,1.14c1.14,0,2-.88,2-2.68s-.78-2.61-2-2.61a1.82,1.82,0,0,0-1.81,1.87Z"/><path d="M182.11,74.94a4.24,4.24,0,1,1,8.48,0,4.24,4.24,0,1,1-8.48,0Zm6.33,0c0-1.65-.82-2.63-2.08-2.63s-2.09,1-2.09,2.63.88,2.63,2.09,2.63S188.44,76.58,188.44,74.94Z"/><path d="M191.82,74.94a4.24,4.24,0,1,1,4.24,4.32A4,4,0,0,1,191.82,74.94Zm6.32,0c0-1.65-.82-2.63-2.08-2.63s-2.09,1-2.09,2.63.88,2.63,2.09,2.63S198.14,76.58,198.14,74.94Z"/><path d="M206.11,79.26c-2.65,0-3.59-.54-3.59-2.51V72.44h-1.18V70.78h1.27v-2.6h2v2.6h1.43v1.66h-1.43V76.3c0,1.14.2,1.2,1.89,1.2Z"/><path d="M213.33,79.08V73.85a1.41,1.41,0,0,0-1.48-1.54,1.93,1.93,0,0,0-1.91,1.34v5.43h-2.13V67.42h2.13v4.21a2.81,2.81,0,0,1,2.49-1,2.76,2.76,0,0,1,3,2.75v5.73Z"/><path d="M133.35,98.78l-1.12-5a11,11,0,0,1-.15-1.75H132a10.08,10.08,0,0,1-.18,1.75l-1.18,5h-2.48L126,90.48h2.15l1.24,5.13a11.92,11.92,0,0,1,.15,1.68h0a13.22,13.22,0,0,1,.12-1.65l1.2-5.16h2.36l1.27,5.21a11.19,11.19,0,0,1,.12,1.6h.05a12.44,12.44,0,0,1,.12-1.6L136,90.48h2l-2.3,8.3Z"/><path d="M139.13,89.27V87.12h2.22v2.15Zm.05,9.51v-8.3h2.14v8.3Z"/><path d="M149,98.78V93.55A1.41,1.41,0,0,0,147.51,92a1.94,1.94,0,0,0-1.92,1.35v5.42h-2.12v-8.3h1.94v1.07a2.8,2.8,0,0,1,2.69-1.24,2.87,2.87,0,0,1,3,2.94v5.53Z"/><path d="M158.73,98.78V93.55A1.41,1.41,0,0,0,157.25,92a1.93,1.93,0,0,0-1.91,1.35v5.42h-2.12v-8.3h1.94v1.07a2.8,2.8,0,0,1,2.69-1.24,2.87,2.87,0,0,1,3,2.94v5.53Z"/><path d="M170.41,97.17A4.21,4.21,0,0,1,166.66,99a4,4,0,0,1-4.15-4.33c0-2.46,1.5-4.32,4.09-4.32,2.39,0,3.88,1.67,3.88,4.23v.22l-6,.76a2.12,2.12,0,0,0,2.32,1.75,2.91,2.91,0,0,0,2.57-1.39Zm-1.93-3.69a1.71,1.71,0,0,0-1.9-1.51,2,2,0,0,0-2.14,2Z"/><path d="M172.11,98.78v-8.3H174v.86c.55-.72,1.3-1,2.76-1l.35,1.82a5.07,5.07,0,0,0-.9-.09,1.83,1.83,0,0,0-1.94,1.21v5.53Z"/><path d="M184.07,93a3.24,3.24,0,0,0-2.55-1.19c-.84,0-1.24.32-1.24.79s.28.7,1.6,1c2.24.46,3.26,1.35,3.26,2.86S183.91,99,181.56,99a4.58,4.58,0,0,1-3.68-1.6l.92-1.49a3.88,3.88,0,0,0,2.82,1.46c.91,0,1.33-.33,1.33-.85s-.49-.94-1.91-1.24c-2-.42-2.89-1.32-2.89-2.54,0-1.38,1.21-2.39,3.4-2.39a4.22,4.22,0,0,1,3.38,1.3Z"/><g class="cls-5"><path d="M56.93,196.37l-1-2.9H51.85l-1,2.9H48.7l3.86-11.13h2.68l3.84,11.13Zm-1.61-4.68a41.34,41.34,0,0,1-1.4-4.37H53.8a41.31,41.31,0,0,1-1.35,4.37Z"/><path d="M60.1,199.12V188.45h1.84v1.1a2.41,2.41,0,0,1,2.28-1.27c2.1,0,3.54,1.42,3.54,4.12s-1.46,4.14-3.52,4.14a3.24,3.24,0,0,1-2.12-.77v3.35Zm2-5.25A2,2,0,0,0,63.82,195c1.09,0,1.88-.84,1.88-2.55s-.74-2.5-1.89-2.5a1.74,1.74,0,0,0-1.73,1.79Z"/><path d="M69.36,199.12V188.45H71.2v1.1a2.42,2.42,0,0,1,2.28-1.27c2.1,0,3.54,1.42,3.54,4.12s-1.45,4.14-3.52,4.14a3.19,3.19,0,0,1-2.11-.77v3.35Zm2-5.25A2,2,0,0,0,73.08,195c1.09,0,1.89-.84,1.89-2.55s-.75-2.5-1.9-2.5a1.74,1.74,0,0,0-1.73,1.79Z"/><path d="M78.66,196.37V185.24h2.07v11.13Z"/><path d="M82.8,187.29v-2h2.11v2Zm0,9.08v-7.92h2v7.92Z"/><path d="M93.77,195.34a3.86,3.86,0,0,1-3.12,1.2,4.13,4.13,0,1,1,0-8.26,4.16,4.16,0,0,1,3,1l-.69,1.6a2.45,2.45,0,0,0-2.07-1,2.5,2.5,0,0,0,0,5,2.64,2.64,0,0,0,2.14-1.06Z"/><path d="M102.39,196.47a2.73,2.73,0,0,1-.64.07c-.8,0-1.5-.35-1.62-1a3.47,3.47,0,0,1-2.81,1c-1.62,0-2.44-.8-2.47-2.13v-.07c0-1.51.94-2.31,2.75-2.72,1.07-.23,2-.53,2-1,0-.62-.42-.8-1.36-.8a3.32,3.32,0,0,0-2.37,1.21L95,189.6a4.26,4.26,0,0,1,3.36-1.32c2.19,0,3.32.78,3.32,2.51v3.38a.61.61,0,0,0,.7.68,2,2,0,0,0,.41,0Zm-2.76-4.21a3.62,3.62,0,0,1-1.53.65c-.78.2-1.28.49-1.28,1.22v.08c0,.52.35.79,1,.79a1.88,1.88,0,0,0,1.8-1.12Z"/><path d="M107.82,196.54c-2.53,0-3.43-.52-3.43-2.4V190h-1.12v-1.58h1.21V186h1.94v2.48h1.36V190h-1.36v3.68c0,1.09.19,1.14,1.8,1.14Z"/><path d="M109.45,187.29v-2h2.11v2Zm0,9.08v-7.92h2v7.92Z"/><path d="M113.16,192.41a4,4,0,1,1,4,4.13A3.82,3.82,0,0,1,113.16,192.41Zm6,0c0-1.57-.78-2.51-2-2.51s-2,.94-2,2.51.84,2.52,2,2.52S119.19,194,119.19,192.41Z"/><path d="M128.11,196.37v-5a1.35,1.35,0,0,0-1.41-1.47,1.85,1.85,0,0,0-1.83,1.29v5.18h-2v-7.92h1.85v1a2.68,2.68,0,0,1,2.57-1.18,2.73,2.73,0,0,1,2.88,2.81v5.28Z"/><path d="M143.11,196.37,142,191.59a10.17,10.17,0,0,1-.14-1.67h-.05a10.39,10.39,0,0,1-.17,1.67l-1.12,4.78h-2.37l-2.14-7.92h2l1.19,4.89a12.34,12.34,0,0,1,.14,1.6h0a12.08,12.08,0,0,1,.11-1.57l1.15-4.92H143l1.21,5a11.92,11.92,0,0,1,.12,1.53h0a13.44,13.44,0,0,1,.11-1.53l1.15-5h1.95l-2.2,7.92Z"/><path d="M148.63,187.29v-2h2.11v2Zm.05,9.08v-7.92h2v7.92Z"/><path d="M152.81,196.37V185.24h2.07v11.13Z"/><path d="M157,196.37V185.24h2.06v11.13Z"/><path d="M166.06,196.37V185.24h2v4a2.53,2.53,0,0,1,2.19-.94c2.09,0,3.45,1.42,3.45,4.12s-1.4,4.14-3.44,4.14a2.83,2.83,0,0,1-2.4-1.09l-.35.92Zm2-2.5a2,2,0,0,0,1.74,1.08c1.09,0,1.88-.84,1.88-2.55s-.74-2.5-1.89-2.5a1.74,1.74,0,0,0-1.73,1.79Z"/><path d="M182.42,194.83a4,4,0,0,1-3.58,1.71,4.14,4.14,0,0,1-.05-8.26c2.28,0,3.71,1.59,3.71,4v.22l-5.74.73a2,2,0,0,0,2.21,1.67,2.82,2.82,0,0,0,2.46-1.33Zm-1.84-3.53a1.63,1.63,0,0,0-1.81-1.44,1.9,1.9,0,0,0-2,1.95Z"/><path d="M189.27,195.17a2.73,2.73,0,0,1-2.12.85c-2,0-3.53-1.28-3.53-3.82s1.5-3.92,3.44-3.92a2.61,2.61,0,0,1,2.39,1l.28-.83h1.48v7.63c0,2.11-1.21,3.2-4.2,3.2a12.74,12.74,0,0,1-2.53-.27l-.46-1.87a10.67,10.67,0,0,0,2.93.47c1.7,0,2.32-.57,2.32-1.64Zm0-4.14a1.83,1.83,0,0,0-1.75-1.14c-1.08,0-1.91.71-1.91,2.32s.83,2.36,1.92,2.36a1.67,1.67,0,0,0,1.74-1.61Z"/><path d="M193.24,187.29v-2h2.11v2Zm0,9.08v-7.92h2v7.92Z"/><path d="M202.65,196.37v-5a1.35,1.35,0,0,0-1.42-1.47,1.84,1.84,0,0,0-1.82,1.29v5.18h-2v-7.92h1.86v1a2.66,2.66,0,0,1,2.56-1.18,2.74,2.74,0,0,1,2.89,2.81v5.28Z"/><path d="M211.61,187.29v-2h2.11v2Zm0,9.08v-7.92h2v7.92Z"/><path d="M221,196.37v-5a1.35,1.35,0,0,0-1.41-1.47,1.85,1.85,0,0,0-1.83,1.29v5.18h-2v-7.92h1.85v1a2.68,2.68,0,0,1,2.57-1.18,2.73,2.73,0,0,1,2.88,2.81v5.28Z"/><path d="M237.18,196.37l-1-2.9H232.1l-1,2.9H229l3.86-11.13h2.69l3.83,11.13Zm-1.61-4.68a43.86,43.86,0,0,1-1.4-4.37h-.11a43.31,43.31,0,0,1-1.36,4.37Z"/><path d="M240.35,199.12V188.45h1.84v1.1a2.42,2.42,0,0,1,2.28-1.27c2.1,0,3.54,1.42,3.54,4.12s-1.45,4.14-3.52,4.14a3.19,3.19,0,0,1-2.11-.77v3.35Zm2-5.25a2,2,0,0,0,1.74,1.08c1.09,0,1.89-.84,1.89-2.55s-.74-2.5-1.9-2.5a1.74,1.74,0,0,0-1.73,1.79Z"/><path d="M249.61,196.37v-7.92h1.77v.81c.53-.68,1.24-.95,2.64-1l.33,1.74a4.66,4.66,0,0,0-.86-.09,1.75,1.75,0,0,0-1.85,1.16v5.28Z"/><path d="M255.63,187.29v-2h2.12v2Zm.05,9.08v-7.92h2v7.92Z"/><path d="M259.82,196.37V185.24h2.06v11.13Z"/></g><path d="M17.64,36.32V25.19H24.9V27H19.78V30h4.5v1.72h-4.5v4.57Z"/><path d="M26.43,27.25V25.19h2.12v2.06Zm.05,9.07V28.4h2v7.92Z"/><path d="M35.84,36.32v-5a1.35,1.35,0,0,0-1.42-1.47,1.83,1.83,0,0,0-1.82,1.28v5.18h-2V28.4h1.86v1A2.68,2.68,0,0,1,35,28.23,2.74,2.74,0,0,1,37.88,31v5.28Z"/><path d="M47,36.42a2.4,2.4,0,0,1-.65.07c-.8,0-1.49-.34-1.62-1a3.47,3.47,0,0,1-2.81,1c-1.62,0-2.44-.8-2.47-2.13v-.07c0-1.51.94-2.31,2.75-2.72,1.07-.23,2-.53,2-1,0-.62-.42-.8-1.36-.8A3.32,3.32,0,0,0,40.43,31l-.82-1.45A4.19,4.19,0,0,1,43,28.23c2.2,0,3.32.78,3.32,2.51v3.38a.62.62,0,0,0,.7.69,2.18,2.18,0,0,0,.42-.05Zm-2.77-4.21a3.74,3.74,0,0,1-1.53.66c-.78.2-1.28.48-1.28,1.21v.09c0,.51.35.78,1,.78a1.88,1.88,0,0,0,1.8-1.11Z"/><path d="M48.51,36.32V25.19h2.07V36.32Z"/><path d="M22.75,49.48a3.13,3.13,0,0,0-2.44-1.14c-.8,0-1.18.31-1.18.75s.27.67,1.52.93c2.14.44,3.11,1.28,3.11,2.73s-1.17,2.38-3.41,2.38a4.38,4.38,0,0,1-3.51-1.53l.87-1.43a3.74,3.74,0,0,0,2.7,1.4c.87,0,1.27-.31,1.27-.81s-.47-.9-1.83-1.18c-2-.4-2.75-1.26-2.75-2.43s1.16-2.28,3.24-2.28a4,4,0,0,1,3.22,1.24Z"/><path d="M32.15,53.93A3.86,3.86,0,0,1,29,55.13a4.13,4.13,0,1,1,0-8.26,4.11,4.11,0,0,1,3,1l-.68,1.6a2.46,2.46,0,0,0-2.07-1,2.5,2.5,0,0,0,0,5,2.66,2.66,0,0,0,2.14-1Z"/><path d="M33.65,55V47h1.77v.81c.53-.68,1.25-1,2.64-1l.33,1.74a4.56,4.56,0,0,0-.85-.09,1.76,1.76,0,0,0-1.86,1.16V55Z"/><path d="M46.78,53.42a4,4,0,0,1-3.58,1.71,3.8,3.8,0,0,1-4-4.14,3.79,3.79,0,0,1,3.89-4.12c2.29,0,3.71,1.6,3.71,4v.21l-5.73.73a2,2,0,0,0,2.21,1.67,2.78,2.78,0,0,0,2.45-1.33Zm-1.84-3.53a1.63,1.63,0,0,0-1.81-1.44,1.9,1.9,0,0,0-2,2Z"/><path d="M55.52,53.42a4.06,4.06,0,0,1-3.59,1.71A3.8,3.8,0,0,1,48,51a3.79,3.79,0,0,1,3.9-4.12c2.28,0,3.71,1.6,3.71,4v.21l-5.74.73a2,2,0,0,0,2.21,1.67,2.78,2.78,0,0,0,2.46-1.33Zm-1.84-3.53a1.64,1.64,0,0,0-1.82-1.44,1.9,1.9,0,0,0-2,2Z"/><path d="M62.41,55V50A1.35,1.35,0,0,0,61,48.49a1.85,1.85,0,0,0-1.83,1.29V55h-2V47H59v1a2.67,2.67,0,0,1,2.57-1.18,2.74,2.74,0,0,1,2.88,2.81V55Z"/><path d="M66.45,45.88V43.83h2.11v2.05Zm0,9.08V47h2V55Z"/><path d="M75.85,55V50a1.35,1.35,0,0,0-1.41-1.47,1.85,1.85,0,0,0-1.83,1.29V55h-2V47h1.85v1A2.68,2.68,0,0,1,75,46.87a2.73,2.73,0,0,1,2.88,2.81V55Z"/><path d="M85.11,53.76a2.74,2.74,0,0,1-2.12.85c-2,0-3.53-1.28-3.53-3.82s1.5-3.92,3.44-3.92a2.61,2.61,0,0,1,2.39,1l.28-.83h1.48v7.63c0,2.11-1.21,3.2-4.2,3.2a12.74,12.74,0,0,1-2.53-.27l-.46-1.87a10.67,10.67,0,0,0,2.93.47c1.7,0,2.32-.57,2.32-1.64Zm0-4.14a1.83,1.83,0,0,0-1.75-1.14c-1.09,0-1.91.71-1.91,2.33s.82,2.35,1.92,2.35a1.67,1.67,0,0,0,1.74-1.61Z"/><g class="cls-5"><path d="M3.42,98.42V87.29h7.26v1.78H5.56v3.06h4.49v1.72H5.56v4.57Z"/><path d="M12.21,89.34v-2h2.11v2Zm0,9.08V90.5h2v7.92Z"/><path d="M16.35,98.42V90.5h1.77v.81c.53-.68,1.24-1,2.64-1l.33,1.74a4.66,4.66,0,0,0-.86-.09,1.75,1.75,0,0,0-1.85,1.16v5.28Z"/><path d="M27.76,92.94a3.11,3.11,0,0,0-2.43-1.14c-.8,0-1.19.31-1.19.75s.27.68,1.53.93c2.14.44,3.11,1.29,3.11,2.73s-1.17,2.38-3.41,2.38a4.38,4.38,0,0,1-3.51-1.53l.87-1.42A3.76,3.76,0,0,0,25.43,97c.87,0,1.26-.31,1.26-.81s-.47-.9-1.82-1.18c-2-.4-2.75-1.26-2.75-2.43s1.15-2.28,3.23-2.28a4,4,0,0,1,3.23,1.24Z"/><path d="M34.29,98.59c-2.53,0-3.43-.51-3.43-2.4V92.08H29.74V90.5H31V88h1.94V90.5h1.35v1.58H32.89v3.68c0,1.09.18,1.15,1.8,1.15Z"/><path d="M8.53,111.58a3.1,3.1,0,0,0-2.44-1.14c-.8,0-1.19.31-1.19.75s.28.67,1.53.93c2.14.44,3.11,1.28,3.11,2.72s-1.17,2.39-3.41,2.39a4.38,4.38,0,0,1-3.51-1.53l.87-1.43a3.74,3.74,0,0,0,2.7,1.4c.87,0,1.27-.31,1.27-.81S7,114,5.63,113.67c-1.95-.4-2.75-1.25-2.75-2.42S4,109,6.12,109a4,4,0,0,1,3.22,1.24Z"/><path d="M17.93,116a3.86,3.86,0,0,1-3.12,1.2,4.13,4.13,0,1,1,0-8.26,4.13,4.13,0,0,1,3,1l-.68,1.6a2.46,2.46,0,0,0-2.07-1,2.5,2.5,0,0,0,0,5,2.64,2.64,0,0,0,2.14-1.06Z"/><path d="M19.43,117.06v-7.92H21.2V110c.53-.68,1.24-1,2.64-1l.33,1.74a4.58,4.58,0,0,0-.86-.09,1.75,1.75,0,0,0-1.85,1.16v5.28Z"/><path d="M32.56,115.51A4,4,0,0,1,29,117.23a4.14,4.14,0,0,1-.06-8.26c2.28,0,3.71,1.59,3.71,4v.22L26.9,114a2,2,0,0,0,2.21,1.66,2.79,2.79,0,0,0,2.45-1.32ZM30.72,112a1.63,1.63,0,0,0-1.81-1.44,1.9,1.9,0,0,0-2,2Z"/><path d="M41.29,115.51a4,4,0,0,1-3.58,1.72,4.14,4.14,0,0,1-.05-8.26c2.28,0,3.7,1.59,3.7,4v.22l-5.73.73a2,2,0,0,0,2.21,1.66,2.78,2.78,0,0,0,2.45-1.32ZM39.45,112a1.63,1.63,0,0,0-1.81-1.44,1.9,1.9,0,0,0-2,2Z"/><path d="M48.19,117.06v-5a1.35,1.35,0,0,0-1.42-1.47A1.84,1.84,0,0,0,45,111.88v5.18h-2v-7.92h1.86v1A2.66,2.66,0,0,1,47.34,109a2.74,2.74,0,0,1,2.89,2.81v5.28Z"/><path d="M52.23,108v-2h2.11v2Zm0,9.08v-7.92h2v7.92Z"/><path d="M61.63,117.06v-5a1.35,1.35,0,0,0-1.41-1.47,1.85,1.85,0,0,0-1.83,1.29v5.18h-2v-7.92h1.85v1A2.68,2.68,0,0,1,60.79,109a2.74,2.74,0,0,1,2.88,2.81v5.28Z"/><path d="M70.89,115.86a2.76,2.76,0,0,1-2.12.85c-2,0-3.53-1.28-3.53-3.82s1.5-3.92,3.44-3.92a2.6,2.6,0,0,1,2.38,1l.29-.82h1.48v7.63c0,2.11-1.21,3.2-4.21,3.2a11.9,11.9,0,0,1-2.52-.28l-.46-1.86a10.67,10.67,0,0,0,2.93.47c1.69,0,2.32-.57,2.32-1.64Zm0-4.14a1.85,1.85,0,0,0-1.75-1.14c-1.09,0-1.92.71-1.92,2.32s.83,2.36,1.93,2.36a1.67,1.67,0,0,0,1.74-1.61Z"/></g></g></svg>