<svg xmlns="http://www.w3.org/2000/svg" xmlns:xlink="http://www.w3.org/1999/xlink" viewBox="0 0 606 170.13"><defs><style>.cls-1{fill:none;}.cls-2{fill:#fa46a1;}.cls-3{fill:#f94a19;}.cls-4{fill:#fff;}.cls-5{clip-path:url(#clip-path);}.cls-6{clip-path:url(#clip-path-2);}.cls-7{fill:#b1b1b1;}.cls-8{clip-path:url(#clip-path-3);}.cls-9{clip-path:url(#clip-path-4);}.cls-10{clip-path:url(#clip-path-5);}.cls-11{clip-path:url(#clip-path-6);}</style><clipPath id="clip-path"><rect id="SVGID" class="cls-1" x="590.16" y="93.83" width="15.84" height="9.2"/></clipPath><clipPath id="clip-path-2"><rect id="SVGID-2" data-name="SVGID" class="cls-1" x="590.16" y="126.83" width="15.84" height="9.2"/></clipPath><clipPath id="clip-path-3"><rect id="SVGID-3" data-name="SVGID" class="cls-1" x="117.16" y="126.83" width="15.84" height="9.2"/></clipPath><clipPath id="clip-path-4"><rect id="SVGID-4" data-name="SVGID" class="cls-1" x="284.01" y="34.83" width="15.84" height="9.2"/></clipPath><clipPath id="clip-path-5"><rect id="SVGID-5" data-name="SVGID" class="cls-1" x="125.01" y="34.83" width="15.84" height="9.2"/></clipPath><clipPath id="clip-path-6"><rect id="SVGID-6" data-name="SVGID" class="cls-1" x="441.01" y="34.83" width="15.84" height="9.2"/></clipPath></defs><title>rule_sc</title><g id="レイヤー_5" data-name="レイヤー 5"><path d="M1.27,10.91a7.77,7.77,0,0,1,2.26-3A10.25,10.25,0,0,0,4.91,6.49a1.63,1.63,0,0,0,.23-.81A1.15,1.15,0,0,0,3.86,4.53a2.74,2.74,0,0,0-1.93.78V3.82A4.74,4.74,0,0,1,3.86,3.4c1.78,0,2.61,1,2.61,2.2A2.86,2.86,0,0,1,6,7.14,8.88,8.88,0,0,1,4.35,8.79a9.63,9.63,0,0,0-1,1l3.19,0v1.15Z"/><path d="M8,7.24c0-1.72.56-3.83,2.77-3.83s2.8,2.11,2.8,3.83-.59,3.84-2.8,3.84S8,9,8,7.24Zm4.25,0c0-1.19-.31-2.65-1.48-2.65S9.32,6,9.32,7.23s.3,2.65,1.46,2.65S12.26,8.43,12.26,7.23Z"/><path d="M14.68,10.91a7.77,7.77,0,0,1,2.26-3,10.25,10.25,0,0,0,1.38-1.45,1.63,1.63,0,0,0,.23-.81,1.15,1.15,0,0,0-1.28-1.15,2.74,2.74,0,0,0-1.93.78V3.82a4.74,4.74,0,0,1,1.93-.42c1.78,0,2.61,1,2.61,2.2a2.86,2.86,0,0,1-.47,1.54,8.88,8.88,0,0,1-1.65,1.65,9.63,9.63,0,0,0-1,1l3.19,0v1.15Z"/><path d="M21.42,7.24c0-1.72.56-3.83,2.77-3.83S27,5.52,27,7.24s-.59,3.84-2.8,3.84S21.42,9,21.42,7.24Zm4.25,0c0-1.19-.31-2.65-1.48-2.65S22.73,6,22.73,7.23s.3,2.65,1.46,2.65S25.67,8.43,25.67,7.23Z"/><path d="M33.17,9.43v1.82H32V9.43H28.14v-1h1.27V6.17a7.56,7.56,0,0,1-.62.64l-.88-.95a6.47,6.47,0,0,0,2-2.8l1.23.17-.29.65H36v1H33.17V6h2.5V7h-2.5V8.41h3v1ZM32,4.9H30.33A8.7,8.7,0,0,1,29.56,6H32ZM32,7H30.54V8.41H32Z"/><path d="M37.93,10.88a7.07,7.07,0,0,0,3,.74C43,11.62,44,10.26,44,9.11s-.87-2.34-3-2.34a8.9,8.9,0,0,0-2.83.54L39,1.2h6.48V3.14h-4.8L40.39,4.9a6.83,6.83,0,0,1,1.09-.08c3.06,0,4.68,2.09,4.68,4.27,0,2.49-2.11,4.58-5.34,4.58a9.33,9.33,0,0,1-2.89-.48Z"/><path d="M53,10h.42c1,0,1,0,1-.53V8.65h-4a7.38,7.38,0,0,1-.86,2.6l-1.14-.73a7.5,7.5,0,0,0,1-4.42V3.4h6.19V9.27c0,1.67-.1,1.88-2.18,1.88Zm1.47-3.41H50.69c0,.35,0,.68,0,1h3.86Zm0-2.08H50.69v1h3.82Z"/><path d="M57.71,13.39c.19-1.12,1.78-3.05,3.76-4.94A17,17,0,0,0,63.77,6a2.68,2.68,0,0,0,.39-1.35A1.91,1.91,0,0,0,62,2.76a4.57,4.57,0,0,0-3.21,1.31V1.58A7.93,7.93,0,0,1,62,.88c3,0,4.35,1.74,4.35,3.68a4.78,4.78,0,0,1-.78,2.55,15.59,15.59,0,0,1-2.75,2.76,15.13,15.13,0,0,0-1.71,1.67l5.32-.06v1.91Z"/><path d="M69.72,11a5.27,5.27,0,0,0,2.66.82A3.53,3.53,0,0,0,75.81,8a3.85,3.85,0,0,1-2.63,1.18,3.81,3.81,0,0,1-4.09-4.15A4.05,4.05,0,0,1,73.27.88a4.21,4.21,0,0,1,4.38,3.83A13.08,13.08,0,0,1,77.85,7c0,4.27-2.27,6.71-5.53,6.71a8.5,8.5,0,0,1-2.6-.46Zm1.34-5.9a2,2,0,0,0,2.19,2.17A2.21,2.21,0,0,0,75.61,5a2.28,2.28,0,1,0-4.55,0Z"/><path d="M86.09,11.16v-.52H81.76v.52H80.63V3.4h6.6v7.76Zm0-6.63H81.76V6.36h4.33Zm0,3H81.76v2h4.33Z"/><path d="M91.59,11.3a6.23,6.23,0,0,1-1.43-4.12,6.32,6.32,0,0,1,1.42-4.12h1.3A6,6,0,0,0,91.3,7.18a6,6,0,0,0,1.58,4.12Z"/><path d="M94,11.07V10h1.63A9.13,9.13,0,0,0,95,8.63l.91-.4H94.44v-1H97.3V6.37H95.55V5.82a10.53,10.53,0,0,1-1.39.59l-.49-1.2a7.74,7.74,0,0,0,3.63-2h1.13a8.49,8.49,0,0,0,3.73,2.05l-.49,1.2a13.86,13.86,0,0,1-1.37-.6v.56H98.43v.85h2.91v1H99.83l.9.4c-.18.48-.38,1-.58,1.4h1.59v1ZM97.3,8.23H96.14a13.15,13.15,0,0,1,.61,1.8h.55Zm2.14-2.9a10.62,10.62,0,0,1-1.58-1.17,9.44,9.44,0,0,1-1.47,1.17ZM99,10a9.37,9.37,0,0,0,.58-1.8H98.43V10Z"/><path d="M102.9,11.3a6,6,0,0,0,1.58-4.12,6,6,0,0,0-1.58-4.12h1.29a6.28,6.28,0,0,1,1.43,4.12,6.27,6.27,0,0,1-1.42,4.12Z"/><path d="M162.59,3.64a6.59,6.59,0,0,0-2.77-.75c-2,0-2.95,1.61-3.08,3.38a4.07,4.07,0,0,1,2.54-1c.49,0,4.33.08,4.33,4.14a4.24,4.24,0,0,1-4.35,4.21c-4.21,0-4.56-4.4-4.56-5.85,0-.3,0-.6,0-.9.08-3.19,1.75-6,5.21-6a9,9,0,0,1,2.66.47Zm-3.28,3.62a2.31,2.31,0,0,0-2.38,2,2.3,2.3,0,1,0,4.59.21A2,2,0,0,0,159.31,7.26Z"/><path d="M170.08,10h.42c1,0,1.06,0,1.06-.53V8.65h-4a7.37,7.37,0,0,1-.85,2.6l-1.14-.73a7.58,7.58,0,0,0,1-4.42V3.4h6.19V9.27c0,1.67-.11,1.88-2.19,1.88Zm1.48-3.41h-3.82c0,.35,0,.68-.05,1h3.87Zm0-2.08h-3.82v1h3.82Z"/><path d="M178.72,13.39V3.14h-1.84v-2h4V13.4Z"/><path d="M193.87,9.87c0,2.24-1.78,3.83-4.44,3.83S185,12.11,185,9.87a3.4,3.4,0,0,1,1.54-3,3.25,3.25,0,0,1-1.12-2.5c0-2,1.62-3.5,4-3.5s4,1.47,4,3.5a3.16,3.16,0,0,1-1.14,2.51A3.5,3.5,0,0,1,193.87,9.87Zm-4.44-2c-1.49,0-2.39.85-2.39,2a2.11,2.11,0,0,0,2.39,2c1.51,0,2.42-.88,2.42-2S190.94,7.87,189.43,7.87Zm0-5.15a1.79,1.79,0,0,0-2,1.71c0,.93.74,1.69,2,1.69s2.06-.76,2.06-1.69S190.74,2.72,189.43,2.72Z"/><path d="M202,11.16v-.52h-4.33v.52h-1.14V3.4h6.61v7.76Zm0-6.63h-4.33V6.36H202Zm0,3h-4.33v2H202Z"/><path d="M207.49,11.3a6.25,6.25,0,0,1-1.44-4.12,6.34,6.34,0,0,1,1.43-4.12h1.3a6,6,0,0,0-1.59,4.12,6,6,0,0,0,1.59,4.12Z"/><path d="M217.2,10.43A10.36,10.36,0,0,1,214.36,7v4.27H213.2V7a9.48,9.48,0,0,1-2.8,3.47l-.79-1.05a9.92,9.92,0,0,0,3.24-3.51h-3V4.77h3.36V3.1h1.16V4.77h3.37V5.9h-3.07A11.81,11.81,0,0,0,218,9.34Z"/><path d="M218.79,11.3a6,6,0,0,0,1.59-4.12,6,6,0,0,0-1.59-4.12h1.29a6.3,6.3,0,0,1,1.44,4.12,6.29,6.29,0,0,1-1.43,4.12Z"/><path d="M165,76.05V74.33h-4.39v-.59l4.43-6.5h.73v6.38h1v.71h-1v1.72Zm0-4.14c0-.16,0-1.81.09-3.63h0c0,.07-.69,1.13-1.1,1.73l-2.44,3.63,3.48,0Z"/><path d="M168.59,71.63c0-2.29.74-4.63,3.24-4.63s3.24,2.34,3.24,4.63-.76,4.64-3.24,4.64S168.59,73.9,168.59,71.63Zm5.6,0c0-1.45-.36-3.92-2.36-3.92s-2.36,2.47-2.36,3.92.35,3.93,2.36,3.93S174.19,73.07,174.19,71.62Z"/><path d="M176.47,73.33a14.78,14.78,0,0,0,2.59-4.83l.71.24a16.14,16.14,0,0,1-2.68,5.11Zm5.09-7h.75v9c0,1.18-.53,1.42-2.75,1.42l-.29-.77c2,0,2.29,0,2.29-.66Zm4.8,7.48a38.73,38.73,0,0,1-2.54-5l.69-.29A29.17,29.17,0,0,0,187,73.3Z"/><path d="M188.7,76.74V66.68H193v4.11h-3.56v5.95Zm3.55-9.42h-2.86v1.11h2.86Zm0,1.7h-2.86V70.2h2.86ZM191,75.7V71.51h4.73V75.7Zm4.05-3.56h-3.37v1.15h3.37Zm0,1.76h-3.37v1.17h3.37Zm2.3-3.11h-3.58V66.68h4.27v8.47c0,1.19-.29,1.56-2.34,1.56l-.33-.7h.7c1,0,1.28-.09,1.28-.88Zm0-3.47h-2.89v1.11h2.89Zm0,1.7h-2.89V70.2h2.89Z"/><path d="M205.29,73.7A14,14,0,0,1,200,76.32l-.2-.73c.34-.08.74-.19,1.17-.33V66.47h.7V75a12.45,12.45,0,0,0,3.38-2Zm.33-3a13.2,13.2,0,0,0-2.07-3l.54-.45a16.08,16.08,0,0,1,2.13,2.93Zm4.08,6a10.18,10.18,0,0,1-1.88-3.2,7.25,7.25,0,0,1-3.12,3.23l-.48-.63c3.18-1.74,4-4.51,4.14-9.75h.7a21.74,21.74,0,0,1-.86,6.31,10,10,0,0,0,2.07,3.47Z"/><path d="M211.55,76.25v-.72H216V66.35h.77v4H221v.73h-4.2v4.48h5.08v.72Z"/><path d="M162.82,149.93c1.4,0,1.44-.24,1.44-.82V148h-2.8a6.35,6.35,0,0,1-.63,2.7l-.45-.54a6.21,6.21,0,0,0,.54-2.91v-3.3a3,3,0,0,1-.27.23l-.4-.47a5.61,5.61,0,0,0,1.68-2.48l.6.15c-.08.22-.19.45-.31.7h2v.52a7.93,7.93,0,0,1-.67,1h1.25v5.57c0,1-.24,1.43-1.74,1.43Zm-.91-7.32a6.57,6.57,0,0,1-.67.95h1.64a9.62,9.62,0,0,0,.65-.95Zm.66,1.54h-1.1v1.28h1.1Zm0,1.84h-1.1v1.38h1.1Zm1.7-1.84H163.1v1.28h1.17Zm0,1.84H163.1v1.38h1.17Zm3,4.66v-2h-2.09v-.61h2.09v-1.47h-1.1a4.27,4.27,0,0,1-.63,1.14l-.49-.42a5.43,5.43,0,0,0,1-2.31l.56.17a8.12,8.12,0,0,1-.22.81h.88v-1h.62v1h1.64v.61h-1.64v1.47h1.85v.61h-1.85v2Zm0-6.39c1.29,0,1.55,0,1.55-1.12v-.87h-1.42a3.43,3.43,0,0,1-1.81,2.8l-.39-.53a2.65,2.65,0,0,0,1.59-2.27h-1.46v-.61h4.11v1.17c0,1.75-.21,2-1.91,2Z"/><path d="M172.84,150.64v-4c-.65,0-1.28,0-1.89.05l-.09-.62h.83a14.56,14.56,0,0,0,1.2-1.35,21.51,21.51,0,0,0-1.95-1.46l.38-.51.54.41a8.1,8.1,0,0,0,1.33-1.93l.57.25a10.5,10.5,0,0,1-1.42,2.05l.89.73a14.19,14.19,0,0,0,1-1.52l.54.32a20.58,20.58,0,0,1-2.27,3,16.53,16.53,0,0,0,1.75-.14c-.09-.24-.19-.47-.28-.68l.52-.25c.31.7.59,1.44.8,2l-.56.25c-.07-.24-.16-.51-.27-.79-.33,0-.66.08-1,.09v4.1Zm-1.9-.64a15.64,15.64,0,0,0,.64-2.75l.58.09a18.57,18.57,0,0,1-.65,2.92Zm3.66,0c-.08-.6-.28-1.74-.43-2.37l.55-.14c.17.62.38,1.78.46,2.35Zm2.22-.07c2.42,0,2.48,0,2.48-3.21v-3.61h-2.83a6.45,6.45,0,0,1-1.36,2l-.41-.55a5.87,5.87,0,0,0,1.66-3.37l.62.13a8.1,8.1,0,0,1-.28,1.13h3.24v3.83c0,3.92-.15,4.18-2.85,4.27Zm.82-2.09a13.74,13.74,0,0,0-1.47-2.56l.53-.35a19.59,19.59,0,0,1,1.49,2.57Z"/><path d="M183.54,150.64v-4.73a10.33,10.33,0,0,1-1.65,3.32l-.44-.58a11.36,11.36,0,0,0,2-3.62h-1.67v-.59h1.8V141.2h.62v3.24h1.62V145h-1.54a14.55,14.55,0,0,0,1.82,3l-.36.58a13.22,13.22,0,0,1-1.54-2.86v4.85Zm-1-6.54c-.16-.65-.43-1.54-.63-2.09l.58-.19c.19.53.48,1.55.62,2.08Zm2-.22a11.7,11.7,0,0,0,.63-2.07l.57.21a15.31,15.31,0,0,1-.68,2.11Zm4.5,6.76V147.5l-2.9.58-.14-.63,3-.62V141.2h.63v5.51l1.13-.23.13.64-1.26.26v3.26ZM188,146.1a20.16,20.16,0,0,0-1.76-1.51l.41-.43a17.14,17.14,0,0,1,1.76,1.49Zm.22-2.32a18.78,18.78,0,0,0-1.75-1.5l.4-.48c.49.39,1.36,1.14,1.77,1.53Z"/><path d="M193.72,144V142.9h1.16V144Zm0,4.94v-1.11h1.16V149Z"/><path d="M205.9,150.64v-.73h-7v.73h-.62v-4.39h.62v3.05h3.22v-3.79H198.6V142h.63v2.85h2.86V141.2h.62v3.68h2.84V142h.62v3.48h-3.46v3.79h3.19v-3.05h.61v4.39Z"/><path d="M217.42,150.56a6.33,6.33,0,0,1-3.91-3.08h-1.67v2.12a12.33,12.33,0,0,0,2-.53l.06.62a31.2,31.2,0,0,1-4,.91l-.18-.61c.48-.08,1-.16,1.54-.26v-2.25h-1.53a7.4,7.4,0,0,1-.92,3.12l-.51-.44a10.81,10.81,0,0,0,.91-5.35v-3.22H217v2.46h-1.7v1H217v.59h-1.72v1.26h2.13v.58h-3.26a5.56,5.56,0,0,0,1.15,1.33,4.57,4.57,0,0,0,1-1.1l.53.33a4.75,4.75,0,0,1-1.13,1.11,6.85,6.85,0,0,0,2,.86Zm-5.72-4.92h-1.55v-.59h1.55v-1h-1.9v.75c0,.58,0,1.32-.06,2.11h2Zm4.69-3.45H209.8v1.27h6.59Zm-1.69,1.86h-2.39v1h2.39Zm0,1.59h-2.39v1.26h2.39Z"/><path d="M220.94,150.64v-4.73a10.33,10.33,0,0,1-1.65,3.32l-.44-.58a11.36,11.36,0,0,0,2-3.62h-1.67v-.59h1.8V141.2h.62v3.24h1.62V145h-1.54a14.55,14.55,0,0,0,1.82,3l-.36.58a13.22,13.22,0,0,1-1.54-2.86v4.85Zm-1.05-6.54c-.16-.65-.43-1.54-.63-2.09l.58-.19c.19.53.48,1.55.62,2.08Zm2-.22a11.7,11.7,0,0,0,.63-2.07l.57.21a15.31,15.31,0,0,1-.68,2.11Zm4.5,6.76V147.5l-2.9.58-.14-.63,3-.62V141.2h.63v5.51l1.13-.23.13.64-1.26.26v3.26Zm-1.05-4.54a20.16,20.16,0,0,0-1.76-1.51l.41-.43a17.14,17.14,0,0,1,1.76,1.49Zm.22-2.32a18.78,18.78,0,0,0-1.75-1.5l.4-.48c.49.39,1.36,1.14,1.77,1.53Z"/><path d="M234,149.77c2.14-.2,4.06-1.36,4.06-3.63a3.19,3.19,0,0,0-3.24-3.49,18.6,18.6,0,0,1-1.76,6.22,1.52,1.52,0,0,1-1.24.8c-.88,0-1.92-1.09-1.92-2.9a4.77,4.77,0,0,1,4.64-4.71c2.55,0,4.24,1.44,4.24,4.06,0,1.63-.91,3.78-4.41,4.27Zm-3.43-2.92c0,1.46.87,2.15,1.22,2.15,1.42,0,2.3-6.26,2.31-6.33A4.17,4.17,0,0,0,230.52,146.85Z"/><path d="M242.12,150v-7.33h-1.33V142h2.12v8Z"/><path d="M246.46,146c0-2.08.67-4.21,2.94-4.21s2.94,2.13,2.94,4.21-.68,4.21-2.94,4.21S246.46,148.06,246.46,146Zm5.08,0c0-1.32-.32-3.56-2.14-3.56s-2.14,2.24-2.14,3.56.32,3.56,2.14,3.56S251.54,147.32,251.54,146Z"/><path d="M255.06,146c0-2.08.67-4.21,2.94-4.21s2.94,2.13,2.94,4.21-.68,4.21-2.94,4.21S255.06,148.06,255.06,146Zm5.08,0c0-1.32-.32-3.56-2.14-3.56s-2.14,2.24-2.14,3.56.32,3.56,2.14,3.56S260.14,147.32,260.14,146Z"/><path d="M263.76,144.05c0-1,.34-2.16,1.62-2.16S267,143,267,144.05s-.35,2.16-1.63,2.16S263.76,145.05,263.76,144.05Zm2.61,0c0-.71-.22-1.63-1-1.63s-1,.92-1,1.63.2,1.61,1,1.61S266.37,144.76,266.37,144.05Zm-1.74,6,2.69-4.08,2.55-3.92h.68l-2.73,4.17-2.5,3.83Zm3.56-2c0-1,.35-2.15,1.63-2.15s1.62,1.15,1.62,2.15-.34,2.16-1.62,2.16S268.19,149,268.19,148Zm2.6,0c0-.7-.2-1.61-1-1.61s-1,.91-1,1.61.21,1.62,1,1.62S270.79,148.7,270.79,148Z"/><path d="M323,76.05V74.33h-4.39v-.59l4.43-6.5h.73v6.38h1v.71h-1v1.72Zm0-4.14c0-.16,0-1.81.09-3.63h0c0,.07-.69,1.13-1.1,1.73l-2.44,3.63,3.48,0Z"/><path d="M326.59,71.63c0-2.29.74-4.63,3.24-4.63s3.24,2.34,3.24,4.63-.76,4.64-3.24,4.64S326.59,73.9,326.59,71.63Zm5.6,0c0-1.45-.36-3.92-2.36-3.92s-2.36,2.47-2.36,3.92.35,3.93,2.36,3.93S332.19,73.07,332.19,71.62Z"/><path d="M334.47,73.33a14.78,14.78,0,0,0,2.59-4.83l.71.24a16.14,16.14,0,0,1-2.68,5.11Zm5.09-7h.75v9c0,1.18-.53,1.42-2.75,1.42l-.29-.77c2,0,2.29,0,2.29-.66Zm4.8,7.48a38.73,38.73,0,0,1-2.54-5l.69-.29A29.17,29.17,0,0,0,345,73.3Z"/><path d="M346.7,76.74V66.68H351v4.11h-3.56v5.95Zm3.55-9.42h-2.86v1.11h2.86Zm0,1.7h-2.86V70.2h2.86ZM349,75.7V71.51h4.73V75.7Zm4.05-3.56h-3.37v1.15h3.37Zm0,1.76h-3.37v1.17h3.37Zm2.3-3.11h-3.58V66.68h4.27v8.47c0,1.19-.29,1.56-2.34,1.56l-.33-.7h.7c1,0,1.28-.09,1.28-.88Zm0-3.47h-2.89v1.11h2.89Zm0,1.7h-2.89V70.2h2.89Z"/><path d="M367.82,75.77a12,12,0,0,1-4.41-4v4.95h-.73v-4.9a11,11,0,0,1-4.44,4.1l-.44-.68a10.48,10.48,0,0,0,4.46-3.86h-4.13v-.69h4.55V68.59h-4V67.9h4V66.34h.73V67.9h3.95v.69h-3.95v2.12h4.52v.69h-4.09a10.93,10.93,0,0,0,4.42,3.66Z"/><path d="M371.36,71a15,15,0,0,0-1.9-1.44l.38-.56a13.82,13.82,0,0,1,2,1.44Zm-1.88,4.89a11.14,11.14,0,0,0,2.16-4l.56.44a11.52,11.52,0,0,1-2.16,4Zm2.2-7.42a22.73,22.73,0,0,0-1.91-1.55l.42-.54a21.9,21.9,0,0,1,1.94,1.53Zm7.23,3.15h-2.48v2.74h1.07V72.51h.58V75h-4V72.49h.61v1.88h1.12V71.63h-2.55v5.11h-.67V71h3.22V70h-3.62v-.67h2.21V68h-1.75V67.4h1.75v-1H375v1h2.15V66.34h.67V67.4h1.65V68h-1.65v1.27h2.05V70h-3.47v1h3.13v4.36c0,1.24-.78,1.35-2,1.36l-.27-.68c1.1,0,1.63-.08,1.63-.64ZM377.19,68H375v1.27h2.15Z"/><path d="M318.71,117.75v-.49H314.2v.49h-1.38v-4l-.79.2-.9-1.44a17.89,17.89,0,0,0,4.15-.92,10.89,10.89,0,0,1-1.55-1.14,7.31,7.31,0,0,1-1.37,1l-1.1-1.1a8.66,8.66,0,0,0,3.44-2.94l1.54.29q-.23.33-.48.66h4.56v1.21a8.38,8.38,0,0,1-2.26,2,21,21,0,0,0,3.79.94l-.76,1.36c-.32-.06-.64-.13-1-.22v4.13Zm1-4.25a19,19,0,0,1-3-1.17,19.72,19.72,0,0,1-3,1.17Zm-1,1.32H314.2V116h4.51Zm-4-5.23a10.61,10.61,0,0,0,2,1.35,7.12,7.12,0,0,0,1.82-1.35Z"/><path d="M324.51,117.74v-4.31a12.81,12.81,0,0,1-1,2.89l-.52-1.91a10.27,10.27,0,0,0,1.4-2.74h-1.13v-1.33h1.26v-1.16q-.5,0-1,.06l-.27-1.45a9.78,9.78,0,0,0,3.27-.45l.61,1.37a8.46,8.46,0,0,1-1.29.3v1.33H327v1.33h-1a7,7,0,0,0,1.36,1.82l-.71,1.52a14.64,14.64,0,0,1-.74-2.18v4.91Zm2.26-.24v-1.22h2.68v-.47h-2.36v-1.1h2.36v-.38h-2.14v-3.65h2.14v-.37h-2.37v-1.17h2.37v-.35l-1.83,0-.39-1.19h.92a41.58,41.58,0,0,0,4.43-.27l.49,1.2c-.55.09-1.39.14-2.27.19v.39h2.39v1.17H330.8v.37H333v3.65H330.8v.38h2.32v1.1H330.8v.47h2.55v1.22Zm2.7-5.9h-.88v.5h.88Zm0,1.24h-.88v.56h.88Zm2.23-1.24h-.92v.5h.92Zm0,1.24h-.92v.56h.92Z"/><path d="M342.15,117.49a2.83,2.83,0,0,1-2.59-1.16,4.48,4.48,0,0,1-1,1.39l-1.09-1.11a4,4,0,0,0,1.5-2.89l1.36.24a12.06,12.06,0,0,1-.29,1.19,2.06,2.06,0,0,0,.85.81v-2.43h-2.7v-.45a8.08,8.08,0,0,1-.88.42v2.15c0,1.5-.07,1.88-2,2l-.53-1.47c1.12,0,1.14-.05,1.14-.6V114c-.37.12-.73.21-1.06.3l-.27-1.43c.38-.07.86-.2,1.33-.34v-2h-1.14v-1.39H336v-1.78h1.37v1.78h1v1.39h-1v1.54c.4-.16.76-.31,1-.44v.67h6.58v1.25h-2.68v.65h2.22v1.2h-2.22v.84h.29s2,0,2.52-.1l-.48,1.38Zm-3.46-5.64V107.6h5.77v4.25Zm4.39-3.12h-3v.5h3Zm0,1.45h-3v.56h3Z"/><path d="M354.8,117.74v-.63h-6.64v.63h-1.39V113h1.39v2.7h2.62V112.3h-3.64v-4.08h1.38v2.7h2.26v-3.58h1.38v3.58h2.26v-2.7h1.38v4.08h-3.64v3.43h2.64V113h1.39v4.72Z"/><path d="M358,113.47v-.94h4.28v-.36h-3.55v-.79h3.55v-.32H359v-.76h3.27V110h-4.21v-.85h4.21v-.32h-3.35v-.88h3.35v-.55h1.53v.55h3.24v1.2h1.14V110h-1.14v1.1h-3.24v.32h3.74v.79h-3.74v.36h4.44v.94Zm7.63,4.3v-.53h-5v.53h-1.42V113.9h7.84v3.87Zm0-3h-5v.38h5Zm0,1.16h-5v.4h5Zm0-7.16h-1.85v.32h1.85Zm0,1.17h-1.85v.34h1.85Z"/><path d="M379.2,117.72a8.63,8.63,0,0,1-1.91-1.25l.7-.69h-1.61l.7.67a5.55,5.55,0,0,1-1.87,1.27l-.62-.93-.53.73a5.44,5.44,0,0,1-1.66-2.35,4.79,4.79,0,0,1-1.89,2.58l-.9-1.28a3.23,3.23,0,0,0,1.75-1.66h-1.52v-1.26h1.75l0-.71H373l0,.71h1.65v1.26h-1.23a3.68,3.68,0,0,0,1.55,1.5h0a4.88,4.88,0,0,0,.95-.54h-1v-6.33h1.51l.22-.58h-1.9v-.68a6.39,6.39,0,0,1-.62,1.11h.48v1.21h-1.07a4.54,4.54,0,0,0,1.36,1.17l-.73,1.17A5.66,5.66,0,0,1,373,111v1.59h-1.33v-1.56a4,4,0,0,1-1.24,1.94l-.78-1.22a3.42,3.42,0,0,0,1.47-1.26h-1.2V109.3h.65a13.15,13.15,0,0,0-.78-1.18l1-.66a7.17,7.17,0,0,1,.78,1.19l-.91.65h1v-2H373v2h1l-.94-.59a5.73,5.73,0,0,0,.68-1.27l1,.46v-.29H380v1.26h-1.9c-.07.21-.14.41-.21.58h1.78v6.33h-1.14a9.06,9.06,0,0,0,1.48.68Zm-.92-7.09h-2v.62h2Zm0,1.62h-2v.67h2Zm0,1.65h-2v.7h2Z"/><path d="M395.39,117.71a13,13,0,0,1-4.33-1.15,14.9,14.9,0,0,1-4.83,1.1l-.58-1.4a16.26,16.26,0,0,0,4-.58,9.3,9.3,0,0,1-1.83-1.88h-.92V113h-1v-2.67h2a9.22,9.22,0,0,0-.69-1.28h-.93l-.37-1.27h1.33a54.45,54.45,0,0,0,7.89-.43l.67,1.22c-.61.08-1.33.14-2.11.19l1.17.37a10.45,10.45,0,0,1-.61,1.18h1.49V113h-1.18v.78a6.63,6.63,0,0,1-2,2,12,12,0,0,0,3.37.52Zm-1.05-6.07h-7.07v.84h7.07Zm-3.88-1.33a7.72,7.72,0,0,0-.79-1.35l-1,0a12.3,12.3,0,0,1,.64,1.32Zm-1,3.49a6.35,6.35,0,0,0,1.63,1.31,5,5,0,0,0,1.73-1.31Zm3.22-3.49a7.37,7.37,0,0,0,.53-1.52c-.65,0-1.32.08-2,.11a14,14,0,0,1,.74,1.41Z"/><path d="M398.69,117.74v-5.67a5.32,5.32,0,0,1-1,.92l-.46-1.78a7.84,7.84,0,0,0,2.57-3.87l1.44.41a11.32,11.32,0,0,1-1.16,2.57v7.42Zm4.34-1.47h.58c1.34,0,1.41,0,1.41-.68v-4.81h-4.35v-1.43H405v-2h1.43v2h1.22v1.43h-1.22v4.55c0,2.1,0,2.35-2.81,2.41Zm-.42-1.38a14.81,14.81,0,0,0-1.34-2.75l1.27-.68a13.75,13.75,0,0,1,1.43,2.59Z"/><path d="M409.33,117.72V107.61h4.47v4.12h-3.08v6Zm3.08-9h-1.69v.48h1.69Zm0,1.41h-1.69v.54h1.69Zm2.21,7.29v-2.07h-1a2.85,2.85,0,0,1-1.58,2.17L411,116.6a1.87,1.87,0,0,0,1.36-1.24h-1.19v-1.19h1.31v-.75h-1V112.3h5.32v1.12h-.87v.75h1.21v1.19H415.9v2.07Zm0-4h-.91v.75h.91Zm1.6,2.84h.3c1,0,1,0,1-.67v-3.86h-3.19v-4.12h4.57v7.65c0,2,0,2.41-2.13,2.41Zm1.32-7.53h-1.81v.48h1.81Zm0,1.41h-1.81v.54h1.81Z"/><path d="M429.17,117.74v-.52H426.7v.52h-1.34v-1.91l-.91,1.21c-.35-.37-.73-.75-1.13-1.12a8.18,8.18,0,0,1-1.78,1.8l-1-1.28a7.41,7.41,0,0,0,1.62-1.52c-.47-.41-.95-.79-1.39-1.12a18.47,18.47,0,0,0,.74-3.34h-.79v-1.33h.92q.06-.8.06-1.5v-.29h1.41c0,.54,0,1.15-.09,1.79h2v.42c0,.44,0,.88,0,1.32l.5,0a17.47,17.47,0,0,0,1.33-3.55l1.39.48a24.55,24.55,0,0,1-1.23,3c.72,0,1.45-.1,2-.17-.21-.46-.43-.91-.62-1.29l1.15-.73c.54,1,1.15,2.36,1.46,3.1l-1.19.87c-.06-.2-.16-.43-.26-.68-1.5.22-3.39.33-4.37.38l-.22-1a10.43,10.43,0,0,1-.89,3.39c.47.39.93.78,1.3,1.11v-2.85h5.15v4.82Zm-6.26-7.28a14.93,14.93,0,0,1-.6,2.82l.62.47a7.66,7.66,0,0,0,.68-3.29Zm6.26,3.74H426.7V116h2.47Z"/><path d="M163.11,89.51a5.83,5.83,0,0,1,0-7.65h.65a5.49,5.49,0,0,0,0,7.65Z"/><path d="M165,89.45V82.21h2.26v.47l-.84,2a4.26,4.26,0,0,1,.76,2c0,.57-.4.94-1.39,1l-.22-.52h.17c.65,0,.91-.18.91-.55a4.56,4.56,0,0,0-.74-1.82l.84-2h-1.26v6.75Zm2.11-.42A3.58,3.58,0,0,0,168.34,88c-.18-.18-.47-.48-.72-.7a5.81,5.81,0,0,1-.5.49l-.23-.44a4,4,0,0,0,1.31-2.07l.44.1-.19.51h1.07v.38a4.58,4.58,0,0,1-2.11,3.2ZM172,85.38A5.24,5.24,0,0,1,170,84V85.6h-.48V84a6.21,6.21,0,0,1-2,1.52l-.31-.44a4.83,4.83,0,0,0,2-1.33h-1.83v-.43h2.11V81.9H170v1.43H172v.43h-1.79a5,5,0,0,0,2,1.17Zm-3.51-2.07a7.3,7.3,0,0,0-.76-1l.4-.27c.2.24.55.68.79,1Zm-.28,3a5.89,5.89,0,0,1-.37.64l.7.66a4.93,4.93,0,0,0,.49-1.3ZM171,89.46v-1h-1.73V88h.66V86.43h-.34V86H171v-.69h.47V86h.59v.45h-.59V88h.73v.48h-.73v1Zm0-3h-.62V88H171ZM170.52,83a3.75,3.75,0,0,0,.64-1l.42.22a4.31,4.31,0,0,1-.65,1.09Z"/><path d="M173.45,88.92c1,0,1-.08,1-.63V86.45c-.4.12-.8.23-1.18.32l-.12-.52c.41-.08.86-.2,1.3-.33V84h-1.12v-.5h1.12V81.9H175v1.58h1V84h-1v1.78l.89-.32V86c-.29.12-.58.22-.89.33v2c0,.84-.07,1.12-1.33,1.13Zm6.88.51a18.15,18.15,0,0,0-1.73-1.14,5.74,5.74,0,0,1-2.66,1.14l-.2-.5a5,5,0,0,0,2.43-.88,12.58,12.58,0,0,0-1.71-.65,11.44,11.44,0,0,0,.63-1h-1.2V86h1.44a6.68,6.68,0,0,0,.35-.9H176v-.47h1.33c-.12-.44-.32-1-.44-1.43h-.76v-.48H178v-.78h.52v.78h1.93v.48h-.74c-.09.34-.26,1-.42,1.43h1.33v.47H178l.2,0a5.83,5.83,0,0,1-.34.86h2.88v.48h-.88A5.07,5.07,0,0,1,179,88a16.6,16.6,0,0,1,1.69,1Zm-2.7-3a6.36,6.36,0,0,1-.44.73c.42.17.89.38,1.32.59a3.44,3.44,0,0,0,.84-1.32Zm1.21-1.85c.15-.46.31-1.07.39-1.43h-1.84c.12.39.3,1,.42,1.43Z"/><path d="M181.62,87a10.5,10.5,0,0,0,1.89-3.51l.51.18a11.39,11.39,0,0,1-1.94,3.71Zm3.71-5.08h.54v6.51c0,.86-.38,1-2,1l-.21-.56c1.46,0,1.67,0,1.67-.48Zm3.48,5.44A30,30,0,0,1,187,83.71l.51-.21A20.83,20.83,0,0,0,189.25,87Z"/><path d="M190.52,89.46V82.15h3.09v3H191v4.32Zm2.58-6.84H191v.8h2.08Zm0,1.23H191v.86h2.08Zm-.9,4.86v-3h3.44v3Zm2.94-2.59h-2.45V87h2.45Zm0,1.28h-2.45v.85h2.45Zm1.67-2.26h-2.6v-3h3.11v6.16c0,.86-.21,1.13-1.71,1.13l-.24-.51h.51c.71,0,.93-.06.93-.64Zm0-2.52h-2.09v.8h2.09Zm0,1.23h-2.09v.86h2.09Z"/><path d="M200.78,88.35a7.35,7.35,0,0,0,1.4.18c1,0,1.19-2,1.19-2.93,0-1.14-.17-1.3-.93-1.3l-1,0a18.4,18.4,0,0,1-1.9,4.73l-.56-.2a16.49,16.49,0,0,0,1.89-4.49l-1.72.15-.06-.54c.47,0,1.19-.07,1.91-.12a10.65,10.65,0,0,0,.26-1.74l.59,0a12.65,12.65,0,0,1-.28,1.67l.82,0c1,0,1.5.2,1.5,1.81,0,1.37-.22,3.49-1.78,3.49a7.13,7.13,0,0,1-1.2-.14Zm5-1.82a7.33,7.33,0,0,0-1.95-3.19c.07,0,.41-.25.47-.27a7.7,7.7,0,0,1,2,3.11Zm-.64-2.92a9.85,9.85,0,0,0-1-1.28l.38-.23a8.73,8.73,0,0,1,1.08,1.23Zm.86-.44a7.21,7.21,0,0,0-1-1.23l.38-.24a8.14,8.14,0,0,1,1.08,1.18Z"/><path d="M207.42,87.5a17.77,17.77,0,0,0,2-3.74h-1.82v-.51h2c.15-.41.27-.79.37-1.14l.59.11a9.13,9.13,0,0,1-.36,1h1.32v.51h-1.49a22.55,22.55,0,0,1-2.09,4Zm6.68,1.37a8.15,8.15,0,0,0-1.5-1.14c0,1-.72,1.47-1.71,1.47s-1.66-.45-1.66-1.2,1.05-1.2,1.76-1.2a3.6,3.6,0,0,1,1.09.16c0-.71-.07-1.55-.09-2.21h.57c0,.73,0,1.63.05,2.42a8.23,8.23,0,0,1,1.75,1.14ZM211,87.28c-.39,0-1.24.12-1.24.69s.75.71,1.23.71c.84,0,1.07-.44,1.09-1.19A3.09,3.09,0,0,0,211,87.28Zm3.45-3.1a6.19,6.19,0,0,0-1.7-.25,3.66,3.66,0,0,0-.68.06l-.07-.53a4.46,4.46,0,0,1,.86-.06,7.49,7.49,0,0,1,1.69.19Z"/><path d="M219.29,87.44c-.42.82-.85,1.42-1.53,1.42-1.25,0-1.74-1.9-1.74-4.55,0-.46,0-.93.06-1.4l.63,0a13.23,13.23,0,0,0-.11,1.75c0,.53.09,3.58,1.15,3.59.43,0,.79-.6,1.16-1.4Zm2.88.48a7.82,7.82,0,0,0-1.64-4.73L221,83a7.73,7.73,0,0,1,1.76,4.71Z"/><path d="M227,89.44V85.65h-1.4a5.29,5.29,0,0,1-1.26,3.71L224,89a4.7,4.7,0,0,0,1.14-3.35H224v-.5h1.12v-2.4h-.93v-.5h4.28v.5h-.95v2.4h1.16v.5H227.5v3.79Zm0-6.69h-1.39v2.4H227ZM228.37,89a5.82,5.82,0,0,0,2.79-2.23l.4.33a6.07,6.07,0,0,1-2.9,2.36Zm.21-5.39a5,5,0,0,0,2.2-1.72l.38.31a5.44,5.44,0,0,1-2.27,1.87Zm0,2.45A6.57,6.57,0,0,0,231,84.3l.36.36a6.48,6.48,0,0,1-2.48,1.84Z"/><path d="M234.53,89.48v-3.2a7.61,7.61,0,0,1-1.8,2l-.3-.46a8,8,0,0,0,2.1-2.34V81.89h.5v7.59Zm-.7-4.59a11.05,11.05,0,0,0-1.28-1.76l.41-.32a21.46,21.46,0,0,1,1.28,1.74Zm5.89,4.57a6.81,6.81,0,0,1-2-3.61,5.9,5.9,0,0,1-2.11,3.63l-.32-.49a5.44,5.44,0,0,0,2.12-4.06h-1.89v-.5h1.91V81.9h.51v2.53h2v.5h-2A6.78,6.78,0,0,0,240,89Zm-.43-5.56c-.18-.33-.61-1.12-1-1.66l.4-.23c.4.6.83,1.33,1,1.66Z"/><path d="M241,89.51a5.52,5.52,0,0,0,0-7.65h.65a5.83,5.83,0,0,1,0,7.65Z"/><path d="M249,88.76c1.71-.16,3.24-1.08,3.24-2.91a2.55,2.55,0,0,0-2.59-2.79,15,15,0,0,1-1.4,5,1.23,1.23,0,0,1-1,.64c-.7,0-1.53-.87-1.53-2.32a3.82,3.82,0,0,1,3.71-3.77,3.07,3.07,0,0,1,3.4,3.25c0,1.31-.74,3-3.54,3.42Zm-2.74-2.34c0,1.18.69,1.73,1,1.73,1.14,0,1.84-5,1.85-5.07A3.33,3.33,0,0,0,246.26,86.42Z"/><path d="M260.48,89.46v-.58h-5.62v.58h-.5V85.94h.5v2.45h2.57v-3h-2.79V82.57h.5v2.28h2.29V81.9h.5v2.95h2.27V82.57h.49v2.78h-2.76v3h2.55V85.94H261v3.52Z"/><path d="M269.7,89.4a5.07,5.07,0,0,1-3.13-2.47h-1.34v1.7a9.9,9.9,0,0,0,1.57-.43l.05.5a26.33,26.33,0,0,1-3.2.73l-.15-.49,1.23-.21v-1.8h-1.22a5.85,5.85,0,0,1-.73,2.5l-.41-.35a8.67,8.67,0,0,0,.73-4.29V82.21h6.27v2H268V85h1.39v.47H268v1h1.71v.47h-2.61A4.63,4.63,0,0,0,268,88a3.74,3.74,0,0,0,.84-.89l.42.27a3.79,3.79,0,0,1-.9.89A5.45,5.45,0,0,0,270,89Zm-4.58-4h-1.24V85h1.24v-.8H263.6v.6c0,.47,0,1.06-.05,1.69h1.57Zm3.75-2.75H263.6v1h5.27Zm-1.35,1.48h-1.91V85h1.91Zm0,1.27h-1.91v1h1.91Z"/><path d="M272.51,89.46V85.88a6.36,6.36,0,0,1-1.44,1l-.22-.48a7.42,7.42,0,0,0,2.84-2.64h-2.41v-.5h1.24V81.9H273v1.39h1.23v.44a6.57,6.57,0,0,1-1.07,1.52,7.66,7.66,0,0,0,1.3,1l-.28.46a10.4,10.4,0,0,1-1.18-1v3.75Zm1.58-.29v-.49h2V85.1h-1.7v-.49h1.7V81.9h.51v2.71h1.65v.49h-1.65v3.58h1.86v.49Z"/><path d="M321.11,89.51a5.83,5.83,0,0,1,0-7.65h.65a5.49,5.49,0,0,0,0,7.65Z"/><path d="M323,89.45V82.21h2.26v.47l-.84,2a4.26,4.26,0,0,1,.76,2c0,.57-.4.94-1.39,1l-.22-.52h.17c.65,0,.91-.18.91-.55a4.56,4.56,0,0,0-.74-1.82l.84-2h-1.26v6.75Zm2.11-.42A3.58,3.58,0,0,0,326.34,88c-.18-.18-.47-.48-.72-.7a5.81,5.81,0,0,1-.5.49l-.23-.44a4,4,0,0,0,1.31-2.07l.44.1-.19.51h1.07v.38a4.58,4.58,0,0,1-2.11,3.2ZM330,85.38A5.24,5.24,0,0,1,328,84V85.6h-.48V84a6.21,6.21,0,0,1-2,1.52l-.31-.44a4.83,4.83,0,0,0,2-1.33h-1.83v-.43h2.11V81.9H328v1.43H330v.43h-1.79a5,5,0,0,0,2.05,1.17Zm-3.51-2.07a7.3,7.3,0,0,0-.76-1l.4-.27c.2.24.55.68.79,1Zm-.28,3a5.89,5.89,0,0,1-.37.64l.7.66a4.93,4.93,0,0,0,.49-1.3ZM329,89.46v-1h-1.73V88h.66V86.43h-.34V86H329v-.69h.47V86h.59v.45h-.59V88h.73v.48h-.73v1Zm0-3h-.62V88H329ZM328.52,83a3.75,3.75,0,0,0,.64-1l.42.22a4.31,4.31,0,0,1-.65,1.09Z"/><path d="M331.45,88.92c1,0,1-.08,1-.63V86.45c-.4.12-.8.23-1.18.32l-.12-.52c.41-.08.86-.2,1.3-.33V84h-1.12v-.5h1.12V81.9H333v1.58h1V84h-1v1.78l.89-.32V86c-.29.12-.58.22-.89.33v2c0,.84-.07,1.12-1.33,1.13Zm6.88.51a18.15,18.15,0,0,0-1.73-1.14,5.74,5.74,0,0,1-2.66,1.14l-.2-.5a5,5,0,0,0,2.43-.88,12.58,12.58,0,0,0-1.71-.65,11.44,11.44,0,0,0,.63-1h-1.2V86h1.44a6.68,6.68,0,0,0,.35-.9H334v-.47h1.33c-.12-.44-.32-1-.44-1.43h-.76v-.48H336v-.78h.52v.78h1.93v.48h-.74c-.09.34-.26,1-.42,1.43h1.33v.47H336l.2,0a5.83,5.83,0,0,1-.34.86h2.88v.48h-.88A5.07,5.07,0,0,1,337,88a16.6,16.6,0,0,1,1.69,1Zm-2.7-3a6.36,6.36,0,0,1-.44.73c.42.17.89.38,1.32.59a3.44,3.44,0,0,0,.84-1.32Zm1.21-1.85c.15-.46.31-1.07.39-1.43h-1.84c.12.39.3,1,.42,1.43Z"/><path d="M339.62,87a10.5,10.5,0,0,0,1.89-3.51l.51.18a11.39,11.39,0,0,1-1.94,3.71Zm3.71-5.08h.54v6.51c0,.86-.38,1-2,1l-.21-.56c1.46,0,1.67,0,1.67-.48Zm3.48,5.44A30,30,0,0,1,345,83.71l.51-.21A20.83,20.83,0,0,0,347.25,87Z"/><path d="M348.52,89.46V82.15h3.09v3H349v4.32Zm2.58-6.84H349v.8h2.08Zm0,1.23H349v.86h2.08Zm-.9,4.86v-3h3.44v3Zm2.94-2.59h-2.45V87h2.45Zm0,1.28h-2.45v.85h2.45Zm1.67-2.26h-2.6v-3h3.11v6.16c0,.86-.21,1.13-1.71,1.13l-.24-.51h.51c.71,0,.93-.06.93-.64Zm0-2.52h-2.09v.8h2.09Zm0,1.23h-2.09v.86h2.09Z"/><path d="M358.78,88.35a7.35,7.35,0,0,0,1.4.18c1,0,1.19-2,1.19-2.93,0-1.14-.17-1.3-.93-1.3l-1,0a18.4,18.4,0,0,1-1.9,4.73l-.56-.2a16.49,16.49,0,0,0,1.89-4.49l-1.72.15-.06-.54c.47,0,1.19-.07,1.91-.12a10.65,10.65,0,0,0,.26-1.74l.59,0a12.65,12.65,0,0,1-.28,1.67l.82,0c1,0,1.5.2,1.5,1.81,0,1.37-.22,3.49-1.78,3.49a7.13,7.13,0,0,1-1.2-.14Zm5-1.82a7.33,7.33,0,0,0-1.95-3.19c.07,0,.41-.25.47-.27a7.7,7.7,0,0,1,2,3.11Zm-.64-2.92a9.85,9.85,0,0,0-1-1.28l.38-.23a8.73,8.73,0,0,1,1.08,1.23Zm.86-.44a7.21,7.21,0,0,0-1-1.23l.38-.24a8.14,8.14,0,0,1,1.08,1.18Z"/><path d="M372.44,86.8c0,1-.82,2.44-3.33,2.71-.13-.17-.35-.51-.35-.51,2.3-.15,3.11-1.36,3.11-2.26v0A1.69,1.69,0,0,0,370.42,85a16.06,16.06,0,0,1-1.85,2.74,2,2,0,0,0,.37.63l-.49.27a3.36,3.36,0,0,1-.32-.51,2.45,2.45,0,0,1-1.57.86,1.12,1.12,0,0,1-1.09-1.27,3.48,3.48,0,0,1,2.22-2.91c0-.43,0-.87.07-1.32h-2V83h2l.09-1,.57,0-.11.94h3.46v.49h-3.52l-.09,1.14a4.57,4.57,0,0,1,1.2-.18h.17a4.1,4.1,0,0,1,.49,0l.2-.45.54.21-.16.34a2.16,2.16,0,0,1,1.8,2.11Zm-6.43,1c0,.2.06.74.58.74.34,0,.77-.24,1.36-.86a8.47,8.47,0,0,1-.27-2.29A2.81,2.81,0,0,0,366,87.68Zm3.49-2.85a3.94,3.94,0,0,0-1.32.23,9,9,0,0,0,.19,2.07A12.68,12.68,0,0,0,369.86,85Z"/><path d="M377.56,88.65c.93-.05,2.27-.65,2.27-1.8s-1.06-1.36-1.94-1.36a6.41,6.41,0,0,0-3.56,1.23l-.43-.48a10.2,10.2,0,0,0,1.07-.61c.88-.56,2.56-1.74,2.56-1.74l1.15-.79-1.22,0-2.51,0v-.52l4.53,0v.49c-.45.29-2.33,1.56-2.33,1.56-.51.34-1,.6-1.31.81l0,0s0,0,0,0h0a4.8,4.8,0,0,1,2.27-.5c.75,0,2.32.33,2.32,1.79,0,1.69-1.69,2.32-3.19,2.32-1.05,0-2.56-.31-2.56-1.35,0-.68.68-1,1.27-1a1.58,1.58,0,0,1,1.6,1.76Zm-1.63-1.36c-.32,0-.7.13-.7.51s.7.84,1.78.87C377,88.29,376.93,87.29,375.93,87.29Z"/><path d="M384.76,89.44V85.65h-1.4a5.29,5.29,0,0,1-1.26,3.71l-.38-.36a4.7,4.7,0,0,0,1.14-3.35h-1.12v-.5h1.12v-2.4h-.93v-.5h4.28v.5h-.95v2.4h1.16v.5h-1.16v3.79Zm0-6.69h-1.39v2.4h1.39ZM386.13,89a5.82,5.82,0,0,0,2.79-2.23l.4.33a6.07,6.07,0,0,1-2.9,2.36Zm.21-5.39a5,5,0,0,0,2.2-1.72l.38.31a5.44,5.44,0,0,1-2.27,1.87Zm0,2.45a6.57,6.57,0,0,0,2.43-1.76l.36.36a6.48,6.48,0,0,1-2.48,1.84Z"/><path d="M392.29,89.48v-3.2a7.61,7.61,0,0,1-1.8,2l-.3-.46a8,8,0,0,0,2.1-2.34V81.89h.5v7.59Zm-.7-4.59a11.05,11.05,0,0,0-1.28-1.76l.41-.32A21.46,21.46,0,0,1,392,84.55Zm5.89,4.57a6.81,6.81,0,0,1-2-3.61,5.9,5.9,0,0,1-2.11,3.63L393,89a5.44,5.44,0,0,0,2.12-4.06h-1.89v-.5h1.91V81.9h.51v2.53h2v.5h-2A6.78,6.78,0,0,0,397.79,89Zm-.43-5.56c-.18-.33-.61-1.12-1-1.66l.4-.23c.4.6.83,1.33,1,1.66Z"/><path d="M398.72,89.51a5.52,5.52,0,0,0,0-7.65h.65a5.83,5.83,0,0,1,0,7.65Z"/><path d="M406.76,88.76c1.71-.16,3.24-1.08,3.24-2.91a2.55,2.55,0,0,0-2.59-2.79,15,15,0,0,1-1.4,5,1.23,1.23,0,0,1-1,.64c-.7,0-1.53-.87-1.53-2.32a3.82,3.82,0,0,1,3.71-3.77,3.07,3.07,0,0,1,3.4,3.25c0,1.31-.74,3-3.54,3.42ZM404,86.42c0,1.18.69,1.73,1,1.73,1.14,0,1.84-5,1.85-5.07A3.33,3.33,0,0,0,404,86.42Z"/><path d="M418.24,89.46v-.58h-5.62v.58h-.5V85.94h.5v2.45h2.57v-3H412.4V82.57h.5v2.28h2.29V81.9h.5v2.95H418V82.57h.49v2.78h-2.76v3h2.55V85.94h.49v3.52Z"/><path d="M427.46,89.4a5,5,0,0,1-3.13-2.47H423v1.7a9.9,9.9,0,0,0,1.57-.43l.05.5a26.33,26.33,0,0,1-3.2.73l-.15-.49,1.23-.21v-1.8h-1.22a5.85,5.85,0,0,1-.73,2.5l-.41-.35a8.67,8.67,0,0,0,.73-4.29V82.21h6.27v2h-1.36V85h1.39v.47h-1.39v1h1.71v.47h-2.61a4.63,4.63,0,0,0,.92,1.07,3.74,3.74,0,0,0,.84-.89l.42.27a3.79,3.79,0,0,1-.9.89,5.45,5.45,0,0,0,1.57.69Zm-4.58-4h-1.24V85h1.24v-.8h-1.52v.6c0,.47,0,1.06-.05,1.69h1.57Zm3.75-2.75h-5.27v1h5.27Zm-1.35,1.48h-1.91V85h1.91Zm0,1.27h-1.91v1h1.91Z"/><path d="M430.27,89.46V85.88a6.59,6.59,0,0,1-1.44,1l-.22-.48a7.42,7.42,0,0,0,2.84-2.64H429v-.5h1.24V81.9h.49v1.39H432v.44a6.57,6.57,0,0,1-1.07,1.52,7.66,7.66,0,0,0,1.3,1l-.28.46a10.4,10.4,0,0,1-1.18-1v3.75Zm1.58-.29v-.49h2V85.1h-1.7v-.49h1.7V81.9h.51v2.71H436v.49h-1.65v3.58h1.86v.49Z"/><path d="M320.59,3.64a6.59,6.59,0,0,0-2.77-.75c-2,0-2.95,1.61-3.08,3.38a4.07,4.07,0,0,1,2.54-1c.49,0,4.33.08,4.33,4.14a4.24,4.24,0,0,1-4.35,4.21c-4.21,0-4.56-4.4-4.56-5.85,0-.3,0-.6,0-.9.08-3.19,1.75-6,5.21-6a9,9,0,0,1,2.66.47Zm-3.28,3.62a2.31,2.31,0,0,0-2.38,2,2.3,2.3,0,1,0,4.59.21A2,2,0,0,0,317.31,7.26Z"/><path d="M328.08,10h.42c1,0,1.06,0,1.06-.53V8.65h-4a7.37,7.37,0,0,1-.85,2.6l-1.14-.73a7.58,7.58,0,0,0,1-4.42V3.4h6.19V9.27c0,1.67-.11,1.88-2.19,1.88Zm1.48-3.41h-3.82c0,.35,0,.68-.05,1h3.87Zm0-2.08h-3.82v1h3.82Z"/><path d="M333.16,10.42a5.82,5.82,0,0,0,3.44,1.22c2.46,0,2.76-1.7,2.76-2.16,0-1-.76-1.85-2.21-1.85H337c-.19,0-1,0-1.19.07V5.78a8.8,8.8,0,0,0,1.13,0,1.8,1.8,0,0,0,1.9-1.68c0-1.36-1.73-1.42-2.14-1.42a5.56,5.56,0,0,0-3.06,1V1.5a7.45,7.45,0,0,1,3.13-.63c3.87,0,4.13,2.48,4.13,3.24a2.83,2.83,0,0,1-1.32,2.54,3.08,3.08,0,0,1,2,2.95c0,1.72-1.26,4-5.1,4a6.16,6.16,0,0,1-3.26-.85Z"/><path d="M344,7.29c0-2.88.93-6.39,4.62-6.39s4.65,3.51,4.65,6.39-1,6.38-4.65,6.38S344,10.14,344,7.29Zm7.08,0c0-2-.52-4.42-2.46-4.42s-2.44,2.44-2.44,4.42.5,4.41,2.44,4.41S351.07,9.27,351.07,7.27Z"/><path d="M361.14,11.16v-.52h-4.33v.52h-1.14V3.4h6.6v7.76Zm0-6.63h-4.33V6.36h4.33Zm0,3h-4.33v2h4.33Z"/><path d="M366.63,11.3a6.29,6.29,0,0,1-1.43-4.12,6.34,6.34,0,0,1,1.43-4.12h1.3a6,6,0,0,0-1.59,4.12,6,6,0,0,0,1.59,4.12Z"/><path d="M376.23,11.24a5.6,5.6,0,0,1-3.32-3.47,5.64,5.64,0,0,1-3.34,3.49l-.71-1.19a4.53,4.53,0,0,0,3.42-4.37V3.1h1.22V5.92A4.58,4.58,0,0,0,377,10.08ZM370.31,7c-.33-.7-.88-1.72-1.25-2.31l1.1-.58c.33.58.89,1.66,1.21,2.37Zm4.06-.53a10.55,10.55,0,0,0,1.32-2.34l1.11.47a11.76,11.76,0,0,1-1.43,2.53Z"/><path d="M377.94,11.3a6,6,0,0,0,1.59-4.12,6,6,0,0,0-1.59-4.12h1.29a6.3,6.3,0,0,1,1.44,4.12,6.29,6.29,0,0,1-1.43,4.12Z"/><path d="M470.11,13.4l5.57-10.29L470,3.18v-2h8.36V2.56L472.66,13.4Z"/><path d="M485.08,10h.42c1,0,1.06,0,1.06-.53V8.65h-4a7.37,7.37,0,0,1-.85,2.6l-1.14-.73a7.58,7.58,0,0,0,1-4.42V3.4h6.19V9.27c0,1.67-.11,1.88-2.19,1.88Zm1.48-3.41h-3.82c0,.35,0,.68-.05,1h3.87Zm0-2.08h-3.82v1h3.82Z"/><path d="M490.16,10.42a5.82,5.82,0,0,0,3.44,1.22c2.46,0,2.76-1.7,2.76-2.16,0-1-.76-1.85-2.21-1.85H494c-.19,0-1,0-1.19.07V5.78a8.8,8.8,0,0,0,1.13,0,1.8,1.8,0,0,0,1.9-1.68c0-1.36-1.73-1.42-2.14-1.42a5.56,5.56,0,0,0-3.06,1V1.5a7.45,7.45,0,0,1,3.13-.63c3.87,0,4.13,2.48,4.13,3.24a2.83,2.83,0,0,1-1.32,2.54,3.08,3.08,0,0,1,2,2.95c0,1.72-1.26,4-5.1,4a6.16,6.16,0,0,1-3.26-.85Z"/><path d="M504.89,13.39V3.14h-1.83v-2h4V13.4Z"/><path d="M518.14,11.16v-.52h-4.33v.52h-1.14V3.4h6.6v7.76Zm0-6.63h-4.33V6.36h4.33Zm0,3h-4.33v2h4.33Z"/><path d="M523.63,11.3a6.29,6.29,0,0,1-1.43-4.12,6.34,6.34,0,0,1,1.43-4.12h1.3a6,6,0,0,0-1.59,4.12,6,6,0,0,0,1.59,4.12Z"/><path d="M526.08,11.07V10h1.64a10.28,10.28,0,0,0-.64-1.4l.91-.4h-1.5v-1h2.86V6.37h-1.76V5.82a10,10,0,0,1-1.39.59l-.49-1.2a7.81,7.81,0,0,0,3.64-2h1.12a8.55,8.55,0,0,0,3.73,2.05l-.49,1.2a13.7,13.7,0,0,1-1.36-.6v.56h-1.87v.85h2.9v1h-1.51l.9.4a15.11,15.11,0,0,1-.58,1.4h1.6v1Zm3.27-2.84h-1.17a12,12,0,0,1,.62,1.8h.55Zm2.14-2.9a10.12,10.12,0,0,1-1.58-1.17,10,10,0,0,1-1.48,1.17Zm-.42,4.7a10.19,10.19,0,0,0,.59-1.8h-1.18V10Z"/><path d="M534.94,11.3a6,6,0,0,0,1.59-4.12,6,6,0,0,0-1.59-4.12h1.29a6.3,6.3,0,0,1,1.44,4.12,6.29,6.29,0,0,1-1.43,4.12Z"/><rect class="cls-2" y="19.49" width="127" height="41"/><rect class="cls-3" x="153" y="19.49" width="132" height="41"/><rect class="cls-2" x="310" y="19.49" width="132" height="41"/><rect class="cls-3" x="468" y="19.49" width="132" height="41"/><path class="cls-4" d="M34.62,44.83v-.69H27.37v.69H25.86V39.69h1.51v3h2.86V38.9h-4V34.45h1.51v2.94h2.46v-3.9h1.51v3.9H34.2V34.45h1.51V38.9h-4v3.74h2.88v-3h1.51v5.15Z"/><path class="cls-4" d="M48.56,44.8a9.2,9.2,0,0,1-3.82-2.36v1.34a24.6,24.6,0,0,1-4.37.87L40,43.21c.46,0,1-.07,1.56-.16V41.24H40.24a9.61,9.61,0,0,1-.86,3.19l-1.34-1c.71-1.62.82-3.1.82-5.84V33.88h9.83v3.27h-2v.74H48.6v1.29H46.69V40h2.42v1.29H45.48a6.07,6.07,0,0,0,1.15,1,4.58,4.58,0,0,0,1-1L49,42a5.42,5.42,0,0,1-1.13,1,8.21,8.21,0,0,0,1.59.52Zm-6.41-5.62H40.73V37.89h1.42v-.74H40.37v.55c0,.73,0,1.49,0,2.25h1.82Zm5-4h-6.8v.7h6.8Zm-4.08,6V42.8a14,14,0,0,0,1.61-.41,7.31,7.31,0,0,1-.91-1.15Zm2.14-4.09H43.6v.74h1.63Zm0,2H43.6V40h1.63Z"/><path class="cls-4" d="M59.85,42.38v-.9H57.19v3.35h-1.7V41.48H53v.9H51.45v-7.8h4v-1.1h1.7v1.1h4.25v7.8Zm-4.36-6.44H53v1.38h2.46Zm0,2.7H53v1.49h2.46Zm4.36-2.7H57.19v1.38h2.66Zm0,2.7H57.19v1.49h2.66Z"/><path class="cls-4" d="M68.85,44.56a3.32,3.32,0,0,1-2.93-1.15,4.29,4.29,0,0,1-1.45,1.39l-1-1.35a4.25,4.25,0,0,0,1.63-1.3V39.42H63.77V37.91h2.84V42A2.21,2.21,0,0,0,68.74,43h.07l6-.08-.53,1.6Zm-3.54-7.91c-.35-.48-1-1.35-1.63-2l1.26-1a21.92,21.92,0,0,1,1.59,2Zm8.42,5.91a8.14,8.14,0,0,1-2.64-4.17,7.45,7.45,0,0,1-3,4.25l-1.06-1.56c2.27-1.16,3-3.49,3.24-5.74v-.11H67.75V33.77h4.14V35.2a6.72,6.72,0,0,0,3,5.88Z"/><path class="cls-4" d="M77.91,44.83V40.28c-.56,0-1.08,0-1.51,0l-.17-1.39h.9c.21-.29.43-.61.66-1a19,19,0,0,0-1.57-1.64L77,35.05l.35.36a14.51,14.51,0,0,0,.81-1.92l1.31.54a25.85,25.85,0,0,1-1.21,2.41l.3.38c.39-.66.77-1.31,1-1.86l1.22.66A37.22,37.22,0,0,1,78.7,38.9c.29,0,.56,0,.83-.06,0-.26-.11-.51-.16-.72l1-.34c.21.81.42,1.89.52,2.57l-1.09.35c0-.18,0-.37-.07-.56l-.44,0v4.64Zm-1.69-1a20.32,20.32,0,0,0,.37-3.2l1.1.2a20.52,20.52,0,0,1-.3,3.38Zm3.53.17a22,22,0,0,0-.31-3l1-.24a29.3,29.3,0,0,1,.48,3Zm3.59.79V40.74h-.72v3.34H81.23V39.65h-.44V37h1.43c-.12-.43-.3-1-.43-1.33H81v-1.3h2.24v-.84h1.65v.84h2.35v1.3h-.89A13.61,13.61,0,0,1,85.92,37h1.47v2.69H87v2.18c0,1.91-.2,2-1.77,2.16l-.45-1.31v2.15Zm2.6-6.61H82.22v1.25h1.12v-.84H84.8v.84h1.14ZM84.37,37a10.59,10.59,0,0,0,.47-1.33H83.29c.12.37.28.92.39,1.33Zm1.26,3.78H84.8v1.83c.83,0,.83,0,.83-.68Z"/><path class="cls-4" d="M91.45,43c-.8,0-1.21-.37-1.21-1.08V38.4L89,38.66l-.27-1.57,1.5-.32v-3.1h1.54v2.77l2.66-.56.28,1.57-2.94.63v3.25c0,.16.07.16.24.16h.31c.56,0,.64-.07.71-2.89l1.48.76C94.27,42.78,93.9,43,92.71,43Zm5,0c1.75,0,1.88-.06,1.88-4.44v-3H97.15v1.08c0,4-.93,6.2-3.09,8.23l-1.33-1c2.41-1.67,2.89-4.1,2.89-7.18V35.51H94.1V34.06h5.8v4.25c0,5.74-.06,6.1-2.75,6.37Z"/><path class="cls-4" d="M169.14,40.47a13.75,13.75,0,0,0,2.14-5l1.55.56a16.68,16.68,0,0,1-2.34,5.84Zm2.79,2.68h1.45c.84,0,.91-.11.91-.87V33.49H176v8.59c0,2.34,0,2.75-3.44,2.75Zm7.56-1a23.15,23.15,0,0,1-2.37-6.08l1.57-.61a17.92,17.92,0,0,0,2.15,5.31Z"/><path class="cls-4" d="M182.51,44.82v-11h4.85v4.53H184v6.44ZM185.85,35H184v.56h1.83Zm0,1.61H184v.62h1.83Zm4.29,7.29H185v-5h5.39v4.27c1,0,1-.06,1-.64V38.38H188V33.85h5v8.81c0,1.69-.11,2.09-2.47,2.09Zm-1.21-3.81h-2.48v.74h2.48Zm0,1.79h-2.48v.8h2.48ZM191.41,35h-1.94v.56h1.94Zm0,1.61h-1.94v.62h1.94Z"/><path class="cls-4" d="M196.15,44.83V38.67a6.21,6.21,0,0,1-.93,1l-.44-2a9.74,9.74,0,0,0,2.41-4.15l1.58.39a12.1,12.1,0,0,1-1.09,2.78v8.17Zm2.09-.28V43h4.1a45.43,45.43,0,0,0,1.2-5.89l1.66.31c-.39,2-.85,4.11-1.3,5.58h2.21v1.52Zm.29-7.71V35.33h2.73V33.49h1.64v1.84h2.9v1.51Zm1.6,5.86a36,36,0,0,0-1.1-5l1.63-.42a43.49,43.49,0,0,1,1,5Z"/><path class="cls-4" d="M210.39,42.78V38.4h2c0-.15,0-.29.05-.43h-4.82V36.88h4.93l0-.41h-4.37V33.78h9.89v2.69h-4l0,.41h4.57V38H214l-.05.43h3.6v4.38Zm-.69,1.53v.51h-1.51V38.69h1.51v4.47h8.93v1.15Zm1.33-9.5h-1.34v.65H211Zm5,4.45H211.9v.35H216Zm0,1.11H211.9v.37H216Zm0,1.12H211.9v.42H216Zm-2.22-6.68h-1.32v.65h1.32Zm2.87,0h-1.43v.65h1.43Z"/><path class="cls-4" d="M225.38,44.56a3.61,3.61,0,0,1-3-1.17,4,4,0,0,1-1.25,1.41l-1-1.34a3.45,3.45,0,0,0,1.33-1.21V39.42h-1.16V37.91H223V42a2.13,2.13,0,0,0,1.42,1l-.67-1.24a7.77,7.77,0,0,0,2.05-.42h-2.34V40.14h1.68v-.58h-1.45V38.43h1.45V38h-.36c-.91,0-1.13-.11-1.13-.82V35.45h1.92v-.51h-1.89V33.79H227v2.62h-.77l1.11.48c-.16.9-.29,1.08-.69,1.1v.44h1.49V38a.72.72,0,0,1-.66-.74V35.45h2v-.51h-2V33.79h3.41v2.62h-.75l1.08.48c-.23,1-.4,1.1-1.15,1.1h-.48v.44h1.45v1.13h-1.45v.58h1.74v1.19H229a10.15,10.15,0,0,0,2.24.5L230.49,43l1.06,0L231,44.56Zm-3.44-7.91a13.09,13.09,0,0,0-1.62-2l1.22-1a12.48,12.48,0,0,1,1.54,2Zm6.7,4.68h-2.4l.72.74a6.2,6.2,0,0,1-2.26,1c.22,0,.45,0,.7,0l4.71-.06a7.67,7.67,0,0,1-2.19-.88Zm-3.57-4.92v.36c0,.15,0,.21.11.21h.52c.21,0,.3,0,.33-.57Zm3.06,3.15h-1.49v.58h1.49Zm.73-3.15v.37c0,.17,0,.2.15.2h.52c.26,0,.38-.07.41-.57Z"/><path class="cls-4" d="M240,44.55a5.21,5.21,0,0,1-4.55-1.94,6.59,6.59,0,0,1-1.57,2.22l-1.11-1.32A6.82,6.82,0,0,0,235,39l1.55.29a9.19,9.19,0,0,1-.47,1.84,3.71,3.71,0,0,0,1.73,1.6V38.38h-3.22v-.94H233.3v-3h4.4v-1h1.74v1h4.46v3h-1.17v.94h-3.32v1.31h3.4v1.44h-3.39V43h.47l4.4-.09-.55,1.65Zm2.34-8.67h-7.53v1h7.53Z"/><path class="cls-4" d="M256.14,38.24a13.36,13.36,0,0,1-2-1v1.16h-5.64V37.24a14.73,14.73,0,0,1-2,.95l-1-1.61a11.45,11.45,0,0,0,4.94-3h1.77a11.64,11.64,0,0,0,5,3Zm-.72,6.58c-.25-.35-.55-.75-.87-1.14-2.15.34-5.48.67-8.09.8l-.37-1.7c.53,0,1.14,0,1.81-.05a12.21,12.21,0,0,0,1.23-1.91h-3V39.31h10.34v1.51h-2.34a38.16,38.16,0,0,1,2.58,2.84Zm-1.76-7.88A13.46,13.46,0,0,1,251.34,35,13,13,0,0,1,249,36.94Zm-2.57,3.88a13.15,13.15,0,0,1-1.21,1.85c1.2-.05,2.47-.13,3.63-.28-.31-.36-.6-.69-.85-1l1-.61Z"/><path class="cls-4" d="M264,45.1a5.89,5.89,0,1,1,5.9-5.89A5.89,5.89,0,0,1,264,45.1Zm0-11a5.15,5.15,0,1,0,5.15,5.15A5.16,5.16,0,0,0,264,34.06Zm-.6,9.21V36.92h-1.23V35.56H265v7.71Z"/><path class="cls-4" d="M327.62,36.73V36h-7.25v.69h-1.51V31.59h1.51v3h2.86V30.8h-4V26.35h1.51v2.94h2.46v-3.9h1.51v3.9h2.46V26.35h1.51V30.8h-4v3.75h2.88v-3h1.51v5.15Z"/><path class="cls-4" d="M341.56,36.7a9.2,9.2,0,0,1-3.82-2.36v1.34a24.6,24.6,0,0,1-4.37.87L333,35.11c.46,0,1-.07,1.56-.16V33.14h-1.34a9.61,9.61,0,0,1-.86,3.19l-1.34-1c.71-1.62.82-3.1.82-5.84V25.78h9.83v3.27h-2v.75h1.91v1.28h-1.91v.77h2.42v1.29h-3.63a6.07,6.07,0,0,0,1.15,1,4.58,4.58,0,0,0,1-1l1.3.68a5.42,5.42,0,0,1-1.13,1,8.21,8.21,0,0,0,1.59.52Zm-6.41-5.62h-1.42V29.8h1.42v-.75h-1.78v.55c0,.74,0,1.49,0,2.25h1.82Zm5-4h-6.8v.71h6.8Zm-4.08,6V34.7a14,14,0,0,0,1.61-.41,6.88,6.88,0,0,1-.91-1.15Zm2.14-4.09H336.6v.75h1.63Zm0,2H336.6v.77h1.63Z"/><path class="cls-4" d="M352.15,36.73v-.55h-4.51v.55h-1.51v-4a18,18,0,0,1-1.72.64l-.68-1.52a24.88,24.88,0,0,0,5.4-1.55H344V28.87h4.38v-1H345V26.51h3.38V25.39h1.57v1.12h2.42v1.15A10,10,0,0,0,353.44,26l1.32.84a11.76,11.76,0,0,1-1.65,2.05H355v1.41H351.5c-.47.27-1,.58-1.64.87h3.8v5.58Zm0-4.31h-4.51v.66h4.51Zm0,1.81h-4.51v.7h4.51Zm-2.22-6.33v1h1.19a8.67,8.67,0,0,0,1-1Z"/><path class="cls-4" d="M356.48,28.91V27.53h4.74v1.38Zm9.14,7.59c-.9,0-1.17-.18-1.17-1V32H364c0,3-.79,3.81-2.34,4.69l-.72-1.08v.6h-2.64v.48h-1.51V32.79h4.15v2.42c1.22-.56,1.6-1.25,1.61-3.17h-1V27.6h1.24c-.32-.48-.74-1-1.15-1.53l1.31-.68c.31.39.86,1.14,1.24,1.72l-1,.49h1.32a7.21,7.21,0,0,0,1-2.21l1.66.51a8.72,8.72,0,0,1-1.11,1.7h1.31V32h-1.44v2.84c0,.22,0,.25.21.25h0c.23,0,.28-.19.28-1.84l1.38.75c-.13,2.22-.29,2.46-1.46,2.46Zm-8.69-9.45V25.71h3.86v1.34Zm0,3.57V29.4h3.86v1.22Zm0,1.69V31.09h3.86v1.22Zm2.65,1.77h-1.42v.86h1.42ZM365.91,29H363v1.64h2.91Z"/><path class="cls-4" d="M371.11,34.44v1.05H369.6V26h4.45v8.47Zm1.39-7h-1.39v2h1.39Zm0,3.36h-1.39V33h1.39Zm4.58,4.34h.14c1.33,0,1.42,0,1.42-.72V33.11H376.3a8.77,8.77,0,0,1-1.1,3.62l-1.45-1c.91-1.39,1.16-3.17,1.16-5.83V25.81h5.24v8.28c0,2.08,0,2.61-2.42,2.61Zm1.56-5h-2.22v.48c0,.39,0,.75,0,1.1h2.24Zm0-2.86h-2.22v1.47h2.22Z"/><path class="cls-4" d="M392.42,30.14a13.36,13.36,0,0,1-2-1v1.16h-5.64V29.14a16,16,0,0,1-2,1l-1-1.62a11.36,11.36,0,0,0,4.94-3h1.77a11.64,11.64,0,0,0,5,3Zm-.72,6.58c-.25-.35-.55-.75-.87-1.14-2.15.34-5.48.67-8.09.8l-.37-1.7c.53,0,1.14,0,1.81,0a12.21,12.21,0,0,0,1.23-1.91h-3V31.21h10.34v1.51h-2.34A36.33,36.33,0,0,1,393,35.57Zm-1.76-7.88a13,13,0,0,1-2.32-1.92,12.6,12.6,0,0,1-2.33,1.92Zm-2.57,3.88a13.15,13.15,0,0,1-1.21,1.85c1.2,0,2.47-.13,3.63-.28-.31-.36-.6-.69-.85-1l1-.61Z"/><path class="cls-4" d="M318.14,48.57a13.75,13.75,0,0,0,2.14-5l1.55.55a16.73,16.73,0,0,1-2.34,5.85Zm2.79,2.68h1.45c.84,0,.91-.11.91-.87V41.59H325v8.59c0,2.34,0,2.75-3.44,2.75Zm7.56-1a23.15,23.15,0,0,1-2.37-6.08l1.57-.61a17.92,17.92,0,0,0,2.15,5.31Z"/><path class="cls-4" d="M331.51,52.91V42h4.85v4.52H333v6.44Zm3.34-9.77H333v.56h1.83Zm0,1.61H333v.62h1.83ZM339.14,52H334V47h5.39v4.27c1,0,1-.06,1-.64v-4.2H337V42h5v8.8c0,1.7-.11,2.1-2.47,2.1Zm-1.21-3.82h-2.48V49h2.48Zm0,1.8h-2.48v.79h2.48Zm2.48-6.88h-1.94v.56h1.94Zm0,1.61h-1.94v.62h1.94Z"/><path class="cls-4" d="M345.15,52.93V46.77a6.21,6.21,0,0,1-.93,1l-.44-2a9.81,9.81,0,0,0,2.41-4.15l1.58.39a12.1,12.1,0,0,1-1.09,2.78v8.17Zm2.09-.28V51.13h4.1a45.43,45.43,0,0,0,1.2-5.89l1.66.31c-.39,2-.85,4.11-1.3,5.58h2.21v1.52Zm.29-7.71V43.43h2.73V41.59h1.64v1.84h2.9v1.51Zm1.6,5.86a35.7,35.7,0,0,0-1.1-5l1.63-.42a43.49,43.49,0,0,1,1,5Z"/><path class="cls-4" d="M359.39,50.88V46.5h2c0-.15,0-.29,0-.43h-4.82V45h4.93l0-.4h-4.37V41.88h9.89v2.69h-4l0,.4h4.57v1.1H363l-.05.43h3.6v4.38Zm-.69,1.53v.5h-1.51V46.79h1.51v4.47h8.93v1.15Zm1.33-9.5h-1.34v.65H360Zm5,4.45H360.9v.35H365Zm0,1.1H360.9v.38H365Zm0,1.13H360.9V50H365Zm-2.22-6.68h-1.32v.65h1.32Zm2.87,0h-1.43v.65h1.43Z"/><path class="cls-4" d="M374.38,52.66a3.61,3.61,0,0,1-3-1.17,4.09,4.09,0,0,1-1.25,1.41l-1-1.34a3.45,3.45,0,0,0,1.33-1.21V47.52h-1.16V46H372v4.05a2.13,2.13,0,0,0,1.42,1l-.67-1.25a7,7,0,0,0,2.05-.42h-2.34V48.24h1.68v-.58h-1.45V46.53h1.45v-.44h-.36c-.91,0-1.13-.11-1.13-.82V43.55h1.92V43h-1.89V41.89H376v2.62h-.77l1.11.48c-.16.9-.29,1.08-.69,1.1v.44h1.49v-.45a.72.72,0,0,1-.66-.75V43.55h2V43h-2V41.89h3.41v2.62h-.75l1.08.48c-.23,1-.4,1.1-1.15,1.1h-.48v.44h1.45v1.13h-1.45v.58h1.74v1.18H378a9.62,9.62,0,0,0,2.24.51l-.72,1.18h1.06L380,52.66Zm-3.44-7.91a13.09,13.09,0,0,0-1.62-2l1.22-1a12.48,12.48,0,0,1,1.54,2Zm6.7,4.67h-2.4l.72.75a6.37,6.37,0,0,1-2.26,1c.22,0,.45,0,.7,0l4.71-.06a7.38,7.38,0,0,1-2.19-.87Zm-3.57-4.91v.36c0,.15,0,.21.11.21h.52c.21,0,.3,0,.33-.57Zm3.06,3.15h-1.49v.58h1.49Zm.73-3.15v.37c0,.17,0,.2.15.2h.52c.26,0,.38-.07.41-.57Z"/><path class="cls-4" d="M389,52.65a5.21,5.21,0,0,1-4.55-1.94,6.59,6.59,0,0,1-1.57,2.22l-1.11-1.32A6.84,6.84,0,0,0,384,47.12l1.55.29a9.1,9.1,0,0,1-.47,1.83,3.69,3.69,0,0,0,1.73,1.61V46.47h-3.22v-.93H382.3v-3h4.4v-1h1.74v1h4.46v3h-1.17v.93h-3.32v1.32h3.4v1.44h-3.39v1.86h.47l4.4-.09-.55,1.65ZM391.36,44h-7.53v1h7.53Z"/><path class="cls-4" d="M405.14,46.34a14.43,14.43,0,0,1-2-1v1.16h-5.64V45.33a13.66,13.66,0,0,1-2,1l-1-1.62a11.34,11.34,0,0,0,4.94-3h1.77a11.53,11.53,0,0,0,5,3Zm-.72,6.57c-.25-.34-.55-.74-.87-1.14-2.15.35-5.48.68-8.09.81l-.37-1.7c.53,0,1.14,0,1.81-.05a12.21,12.21,0,0,0,1.23-1.91h-3V47.41h10.34v1.51h-2.34a38.16,38.16,0,0,1,2.58,2.84ZM402.66,45a13.41,13.41,0,0,1-2.32-1.91A12.55,12.55,0,0,1,398,45Zm-2.57,3.89a13.15,13.15,0,0,1-1.21,1.85c1.2-.05,2.47-.14,3.63-.28-.31-.36-.6-.7-.85-1l1-.61Z"/><path class="cls-4" d="M413,53.2a5.89,5.89,0,1,1,5.9-5.89A5.89,5.89,0,0,1,413,53.2Zm0-11a5.15,5.15,0,1,0,5.15,5.15A5.16,5.16,0,0,0,413,42.16Zm-2.93,9c.13-.81,1.16-2,2.41-3.18s1.67-1.58,1.67-2.29a1.12,1.12,0,0,0-1.26-1.11,3.31,3.31,0,0,0-2.11.88V43.71a5.34,5.34,0,0,1,2.12-.49c1.92,0,2.81,1.12,2.81,2.37a2.94,2.94,0,0,1-.51,1.62,9.16,9.16,0,0,1-1.74,1.72c-.45.4-.8.71-1,.9l3.29,0v1.34Z"/><path class="cls-4" d="M485.62,44.83v-.69h-7.25v.69h-1.51V39.69h1.51v3h2.86V38.9h-4V34.45h1.51v2.94h2.46v-3.9h1.51v3.9h2.46V34.45h1.51V38.9h-4v3.74h2.88v-3h1.51v5.15Z"/><path class="cls-4" d="M499.56,44.8a9.2,9.2,0,0,1-3.82-2.36v1.34a24.6,24.6,0,0,1-4.37.87L491,43.21c.46,0,1-.07,1.56-.16V41.24h-1.34a9.61,9.61,0,0,1-.86,3.19l-1.34-1c.71-1.62.82-3.1.82-5.84V33.88h9.83v3.27h-2v.74h1.91v1.29h-1.91V40h2.42v1.29h-3.63a6.07,6.07,0,0,0,1.15,1,4.58,4.58,0,0,0,1-1L500,42a5.42,5.42,0,0,1-1.13,1,8.21,8.21,0,0,0,1.59.52Zm-6.41-5.62h-1.42V37.89h1.42v-.74h-1.78v.55c0,.73,0,1.49,0,2.25h1.82Zm5-4h-6.8v.7h6.8Zm-4.08,6V42.8a14,14,0,0,0,1.61-.41,7.31,7.31,0,0,1-.91-1.15Zm2.14-4.09H494.6v.74h1.63Zm0,2H494.6V40h1.63Z"/><path class="cls-4" d="M510.44,44.83V41.49l-3.28.6-.25-1.42-.65,1.15a12,12,0,0,1-.86-2v5h-1.47V40.28a9.75,9.75,0,0,1-1.13,2.94l-1-1.68a7.43,7.43,0,0,0,2-2.87h-1.65v-1.4h1.85v-.68L502.8,37c-.22-.73-.58-1.86-.82-2.49l1.26-.4c.23.62.51,1.62.69,2.33V33.49h1.47v2.88a17.69,17.69,0,0,0,.68-2.3l1.28.37a21,21,0,0,1-.87,2.57l-1.09-.49v.75h1.7v1.4h-1.5a6.65,6.65,0,0,0,1.53,1.61l-.15.24,3.46-.62V33.49H512v6.13l.83-.15.29,1.53-1.12.21v3.62ZM509,39.5c-.36-.36-1.26-1.12-1.76-1.53l1-1.07c.48.39,1.36,1.16,1.75,1.51Zm.32-2.77a20,20,0,0,0-1.74-1.53l1-1.07c.49.39,1.26,1,1.75,1.51Z"/><path class="cls-4" d="M514.8,44.58V43.14h2.27a13.1,13.1,0,0,0-.88-2l1.27-.55h-2.1V39.21h4V38h-2.45v-.77a15,15,0,0,1-1.93.83l-.68-1.68a10.8,10.8,0,0,0,5.06-2.85h1.56a12,12,0,0,0,5.19,2.85l-.68,1.68a18.74,18.74,0,0,1-1.89-.84V38h-2.61v1.17h4v1.42h-2.09l1.24.55c-.24.67-.52,1.37-.8,2h2.22v1.44Zm4.54-3.95h-1.62a16.12,16.12,0,0,1,.85,2.51h.77Zm3-4a14,14,0,0,1-2.2-1.63,13.59,13.59,0,0,1-2,1.63Zm-.58,6.55a15.23,15.23,0,0,0,.82-2.51h-1.65v2.51Z"/><path class="cls-4" d="M537.39,44.82a13,13,0,0,1-4.11-6,10.33,10.33,0,0,1-5,6l-1-1.64a9.19,9.19,0,0,0,5.2-7.58c0-.09,0-.18,0-.25h-3.2V33.78h5v1.06a9.91,9.91,0,0,0,4.33,8.45Z"/><path class="cls-4" d="M540.24,44.58V43.14h2.27a13.1,13.1,0,0,0-.88-2l1.27-.55h-2.1V39.21h4V38h-2.45v-.77a15,15,0,0,1-1.93.83l-.68-1.68a10.8,10.8,0,0,0,5.06-2.85h1.56a12,12,0,0,0,5.19,2.85l-.68,1.68a18.74,18.74,0,0,1-1.89-.84V38h-2.61v1.17h4v1.42H548.3l1.24.55c-.24.67-.52,1.37-.8,2H551v1.44Zm4.54-3.95h-1.62a16.12,16.12,0,0,1,.85,2.51h.77Zm3-4a14,14,0,0,1-2.2-1.63,13.59,13.59,0,0,1-2,1.63Zm-.58,6.55a15.23,15.23,0,0,0,.82-2.51h-1.65v2.51Z"/><path class="cls-4" d="M554.35,44.83V40.28c-.56,0-1.08,0-1.51,0l-.17-1.39h.9c.21-.29.43-.61.66-1a19,19,0,0,0-1.57-1.64l.74-1.31.35.36a14.51,14.51,0,0,0,.81-1.92l1.31.54a25.85,25.85,0,0,1-1.21,2.41l.3.38c.39-.66.77-1.31,1-1.86l1.22.66a37.22,37.22,0,0,1-2.07,3.28c.29,0,.56,0,.83-.06-.05-.26-.11-.51-.16-.72l1-.34c.21.81.42,1.89.52,2.57l-1.09.35c0-.18,0-.37-.07-.56l-.44,0v4.64Zm-1.69-1a20.32,20.32,0,0,0,.37-3.2l1.1.2a20.52,20.52,0,0,1-.3,3.38Zm3.53.17a22,22,0,0,0-.31-3l1-.24a29.3,29.3,0,0,1,.48,3Zm3.59.79V40.74h-.72v3.34h-1.39V39.65h-.44V37h1.43c-.12-.43-.3-1-.43-1.33h-.79v-1.3h2.24v-.84h1.65v.84h2.35v1.3h-.89a13.61,13.61,0,0,1-.43,1.33h1.47v2.69h-.37v2.18c0,1.91-.2,2-1.77,2.16l-.45-1.31v2.15Zm2.6-6.61h-3.72v1.25h1.12v-.84h1.46v.84h1.14ZM560.81,37a10.59,10.59,0,0,0,.47-1.33h-1.55c.12.37.28.92.39,1.33Zm1.26,3.78h-.83v1.83c.83,0,.83,0,.83-.68Z"/><path class="cls-4" d="M567.89,43c-.8,0-1.21-.37-1.21-1.08V38.4l-1.23.26-.27-1.57,1.5-.32v-3.1h1.54v2.77l2.66-.56.28,1.57-2.94.63v3.25c0,.16.07.16.24.16h.31c.56,0,.64-.07.71-2.89l1.48.76c-.25,3.42-.62,3.68-1.81,3.68Zm5,0c1.75,0,1.88-.06,1.88-4.44v-3h-1.22v1.08c0,4-.93,6.2-3.09,8.23l-1.33-1c2.41-1.67,2.89-4.1,2.89-7.18V35.51h-1.52V34.06h5.8v4.25c0,5.74-.06,6.1-2.75,6.37Z"/><path class="cls-4" d="M586.77,44.7V44h-6v.72h-1.59V33.9h9.19V44.7Zm0-9.23h-6V38h6Zm0,4.12h-6V42.4h6Z"/><g class="cls-5"><polygon points="594.07 92.64 592.97 93.75 597.64 98.43 592.97 103.1 594.07 104.21 599.86 98.43 594.07 92.64"/></g><rect x="310" y="97.55" width="287.49" height="1.76"/><g class="cls-6"><polygon class="cls-7" points="594.07 125.64 592.97 126.75 597.64 131.43 592.97 136.1 594.07 137.21 599.86 131.43 594.07 125.64"/></g><rect class="cls-7" x="152" y="130.55" width="445.49" height="1.76"/><path d="M11.82,149.93c1.4,0,1.44-.24,1.44-.82V148h-2.8a6.35,6.35,0,0,1-.63,2.7l-.45-.54a6.21,6.21,0,0,0,.54-2.91v-3.3a3,3,0,0,1-.27.23l-.4-.47a5.61,5.61,0,0,0,1.68-2.48l.6.15c-.08.22-.19.45-.31.7h2v.52a7.93,7.93,0,0,1-.67,1h1.25v5.57c0,1-.24,1.43-1.74,1.43Zm-.91-7.32a6.57,6.57,0,0,1-.67.95h1.64a9.62,9.62,0,0,0,.65-.95Zm.66,1.54h-1.1v1.28h1.1Zm0,1.84h-1.1v1.38h1.1Zm1.7-1.84H12.1v1.28h1.17Zm0,1.84H12.1v1.38h1.17Zm3,4.66v-2H14.16v-.61h2.09v-1.47h-1.1a4.27,4.27,0,0,1-.63,1.14l-.49-.42A5.43,5.43,0,0,0,15,145l.56.17a8.12,8.12,0,0,1-.22.81h.88v-1h.62v1h1.64v.61H16.87v1.47h1.85v.61H16.87v2Zm0-6.39c1.29,0,1.55,0,1.55-1.12v-.87H16.34a3.43,3.43,0,0,1-1.81,2.8l-.39-.53a2.65,2.65,0,0,0,1.59-2.27H14.27v-.61h4.11v1.17c0,1.75-.21,2-1.91,2Z"/><path d="M21.84,150.64v-4c-.65,0-1.28,0-1.89.05l-.09-.62h.83a14.56,14.56,0,0,0,1.2-1.35,21.51,21.51,0,0,0-1.95-1.46l.38-.51.54.41a8.1,8.1,0,0,0,1.33-1.93l.57.25a10.5,10.5,0,0,1-1.42,2.05l.89.73a14.19,14.19,0,0,0,1-1.52l.54.32a20.58,20.58,0,0,1-2.27,3,16.53,16.53,0,0,0,1.75-.14c-.09-.24-.19-.47-.28-.68l.52-.25c.31.7.59,1.44.8,2l-.56.25c-.07-.24-.16-.51-.27-.79-.33,0-.66.08-1,.09v4.1Zm-1.9-.64a15.64,15.64,0,0,0,.64-2.75l.58.09a18.57,18.57,0,0,1-.65,2.92Zm3.66,0c-.08-.6-.28-1.74-.43-2.37l.55-.14c.17.62.38,1.78.46,2.35Zm2.22-.07c2.42,0,2.48,0,2.48-3.21v-3.61H25.47a6.45,6.45,0,0,1-1.36,2l-.41-.55a5.87,5.87,0,0,0,1.66-3.37l.62.13a8.1,8.1,0,0,1-.28,1.13h3.24v3.83c0,3.92-.15,4.18-2.85,4.27Zm.82-2.09a13.74,13.74,0,0,0-1.47-2.56l.53-.35a19.59,19.59,0,0,1,1.49,2.57Z"/><path d="M32.54,150.64v-4.73a10.33,10.33,0,0,1-1.65,3.32l-.44-.58a11.36,11.36,0,0,0,2-3.62H30.74v-.59h1.8V141.2h.62v3.24h1.62V145H33.24a14.55,14.55,0,0,0,1.82,3l-.36.58a13.22,13.22,0,0,1-1.54-2.86v4.85Zm-1.05-6.54c-.16-.65-.43-1.54-.63-2.09l.58-.19c.19.53.48,1.55.62,2.08Zm2-.22a11.7,11.7,0,0,0,.63-2.07l.57.21a15.31,15.31,0,0,1-.68,2.11Zm4.5,6.76V147.5l-2.9.58-.14-.63,3-.62V141.2h.63v5.51l1.13-.23.13.64-1.26.26v3.26ZM37,146.1a20.16,20.16,0,0,0-1.76-1.51l.41-.43a17.14,17.14,0,0,1,1.76,1.49Zm.22-2.32a18.78,18.78,0,0,0-1.75-1.5l.4-.48c.49.39,1.36,1.14,1.77,1.53Z"/><path d="M42.72,144V142.9h1.16V144Zm0,4.94v-1.11h1.16V149Z"/><path d="M54.9,150.64v-.73h-7v.73h-.62v-4.39h.62v3.05h3.22v-3.79H47.6V142h.63v2.85h2.86V141.2h.62v3.68h2.84V142h.62v3.48H51.71v3.79H54.9v-3.05h.61v4.39Z"/><path d="M66.42,150.56a6.33,6.33,0,0,1-3.91-3.08H60.84v2.12a12.33,12.33,0,0,0,2-.53l.06.62a31.2,31.2,0,0,1-4,.91l-.18-.61c.48-.08,1-.16,1.54-.26v-2.25H58.69a7.4,7.4,0,0,1-.92,3.12l-.51-.44a10.81,10.81,0,0,0,.91-5.35v-3.22H66v2.46h-1.7v1H66v.59H64.32v1.26h2.13v.58H63.19a5.56,5.56,0,0,0,1.15,1.33,4.57,4.57,0,0,0,1-1.1l.53.33a4.75,4.75,0,0,1-1.13,1.11,6.85,6.85,0,0,0,2,.86Zm-5.72-4.92H59.15v-.59H60.7v-1H58.8v.75c0,.58,0,1.32-.06,2.11h2Zm4.69-3.45H58.8v1.27h6.59Zm-1.69,1.86H61.31v1H63.7Zm0,1.59H61.31v1.26H63.7Z"/><path d="M69.94,150.64v-4.73a10.33,10.33,0,0,1-1.65,3.32l-.44-.58a11.36,11.36,0,0,0,2-3.62H68.14v-.59h1.8V141.2h.62v3.24h1.62V145H70.64a14.55,14.55,0,0,0,1.82,3l-.36.58a13.22,13.22,0,0,1-1.54-2.86v4.85Zm-1-6.54c-.16-.65-.43-1.54-.63-2.09l.58-.19c.19.53.48,1.55.62,2.08Zm2-.22a11.7,11.7,0,0,0,.63-2.07l.57.21a15.31,15.31,0,0,1-.68,2.11Zm4.5,6.76V147.5l-2.9.58-.14-.63,3-.62V141.2h.63v5.51l1.13-.23.13.64-1.26.26v3.26Zm-1.05-4.54a20.16,20.16,0,0,0-1.76-1.51l.41-.43a17.14,17.14,0,0,1,1.76,1.49Zm.22-2.32a18.78,18.78,0,0,0-1.75-1.5l.4-.48c.49.39,1.36,1.14,1.77,1.53Z"/><path d="M83,149.77c2.14-.2,4.06-1.36,4.06-3.63a3.19,3.19,0,0,0-3.24-3.49A18.6,18.6,0,0,1,82,148.87a1.52,1.52,0,0,1-1.24.8c-.88,0-1.92-1.09-1.92-2.9a4.77,4.77,0,0,1,4.64-4.71c2.55,0,4.24,1.44,4.24,4.06,0,1.63-.91,3.78-4.41,4.27Zm-3.43-2.92c0,1.46.87,2.15,1.22,2.15,1.42,0,2.3-6.26,2.31-6.33A4.17,4.17,0,0,0,79.52,146.85Z"/><path d="M89.61,149.08a4.56,4.56,0,0,0,1.84.42A2.31,2.31,0,0,0,94,147.29c0-1.12-.88-2-2.42-2a5.72,5.72,0,0,0-1.71.29l.47-3.58h3.92v.67h-3.3l-.28,2.07a7.06,7.06,0,0,1,1-.08c2.17,0,3.11,1.3,3.11,2.61a3.06,3.06,0,0,1-3.33,2.9,5.54,5.54,0,0,1-1.82-.33Z"/><path d="M97.23,146c0-2.08.67-4.21,2.94-4.21s2.94,2.13,2.94,4.21-.68,4.21-2.94,4.21S97.23,148.06,97.23,146Zm5.08,0c0-1.32-.32-3.56-2.14-3.56S98,144.68,98,146s.32,3.56,2.14,3.56S102.31,147.32,102.31,146Z"/><path d="M105.93,144.05c0-1,.34-2.16,1.62-2.16s1.63,1.15,1.63,2.16-.35,2.16-1.63,2.16S105.93,145.05,105.93,144.05Zm2.61,0c0-.71-.22-1.63-1-1.63s-1,.92-1,1.63.2,1.61,1,1.61S108.54,144.76,108.54,144.05Zm-1.74,6,2.69-4.08L112,142h.68L110,146.19l-2.5,3.83Zm3.56-2c0-1,.35-2.15,1.63-2.15S113.6,147,113.6,148s-.33,2.16-1.61,2.16S110.36,149,110.36,148Zm2.6,0c0-.7-.2-1.61-1-1.61s-1,.91-1,1.61.21,1.62,1,1.62S113,148.7,113,148Z"/><path d="M163.89,166.7a7.26,7.26,0,0,1,0-9.55h.8a6.9,6.9,0,0,0,0,9.55Z"/><path d="M171.09,158.91a4.23,4.23,0,0,0-1.64-.38c-1.68,0-2.52,1.48-2.57,3.65a2.6,2.6,0,0,1,2.24-1.2,2.43,2.43,0,0,1,2.7,2.6,2.6,2.6,0,0,1-2.75,2.63c-.65,0-2.89-.19-2.89-3.89,0-4.28,2.56-4.47,3.28-4.47a5.31,5.31,0,0,1,1.64.29Zm-1.92,2.73a2,2,0,0,0-2.12,1.78,2,2,0,0,0,2,2.14,1.89,1.89,0,0,0,2-2A1.78,1.78,0,0,0,169.17,161.64Z"/><path d="M173.25,166l3.3-8h.64l-3.3,8Z"/><path d="M181.14,166v-7.33h-1.33V158h2.12v8Z"/><path d="M192.24,163.84a2.83,2.83,0,0,1-5.6,0,2.29,2.29,0,0,1,1.42-2.1,1.93,1.93,0,0,1-1.13-1.8,2.21,2.21,0,0,1,2.5-2.11c1.55,0,2.52.9,2.52,2.11a2,2,0,0,1-1.13,1.8A2.18,2.18,0,0,1,192.24,163.84Zm-2.8-1.8a1.81,1.81,0,1,0,0,3.59,1.88,1.88,0,0,0,2.08-1.81A1.86,1.86,0,0,0,189.44,162Zm0-3.62a1.55,1.55,0,1,0,1.81,1.54A1.61,1.61,0,0,0,189.44,158.42Z"/><path d="M199.27,163.88a12.62,12.62,0,0,1-4.78,2.38l-.18-.66c.31-.07.67-.17,1.06-.3v-8H196v7.74a11.43,11.43,0,0,0,3.07-1.81Zm.3-2.72a11.89,11.89,0,0,0-1.88-2.69l.49-.41a15.14,15.14,0,0,1,1.94,2.67Zm3.7,5.47a9.67,9.67,0,0,1-1.7-2.91,6.6,6.6,0,0,1-2.83,2.93l-.44-.57c2.89-1.58,3.65-4.09,3.76-8.85h.64a19.81,19.81,0,0,1-.78,5.73,9.26,9.26,0,0,0,1.87,3.15Z"/><path d="M205.28,166.63v-9.06h2.83v.6c0,.13-.86,2.42-.89,2.5a5.44,5.44,0,0,1,.9,2.4c0,.81-.58,1.24-1.93,1.24l-.28-.64h.32c.84,0,1.25-.25,1.25-.75a5.22,5.22,0,0,0-.9-2.2l.88-2.54H205.9v8.45Zm8.85-4.94a8.28,8.28,0,0,1-2.91-1.12,9.39,9.39,0,0,1-3,1.27l-.3-.59a8.62,8.62,0,0,0,2.77-1,7.62,7.62,0,0,1-1.23-1.18,6.42,6.42,0,0,1-1,1l-.43-.47a5.57,5.57,0,0,0,1.84-2.33l.61.12a5.64,5.64,0,0,1-.33.71h3.08v.55a6.88,6.88,0,0,1-1.54,1.63,8.36,8.36,0,0,0,2.65.89Zm-2.39,3.37v1.58h-.62v-1.58H208v-.6h1.09v-1.69h-.75v-.61h2.75v-.86h.62v.86h1.77v.61h-1.77v1.69h2.35v.6Zm-.62-2.29h-1.4v1.69h1.4Zm-1.22-4.14a6.64,6.64,0,0,0,1.31,1.24,6.55,6.55,0,0,0,1.33-1.24Z"/><path d="M215.54,166.7a6.87,6.87,0,0,0,0-9.55h.81a7.26,7.26,0,0,1,0,9.55Z"/><path d="M12.89,166.7a7.26,7.26,0,0,1,0-9.55h.8a6.9,6.9,0,0,0,0,9.55Z"/><path d="M15.41,165.08a4.56,4.56,0,0,0,1.84.42,2.31,2.31,0,0,0,2.53-2.21c0-1.12-.88-2-2.42-2a5.72,5.72,0,0,0-1.71.29l.47-3.58H20v.67h-3.3l-.28,2.07a7.06,7.06,0,0,1,1-.08c2.17,0,3.11,1.3,3.11,2.61a3.06,3.06,0,0,1-3.33,2.9,5.54,5.54,0,0,1-1.82-.33Z"/><path d="M22.25,166l3.3-8h.64l-3.3,8Z"/><path d="M27.71,164.86a4,4,0,0,0,2.2.7,2.05,2.05,0,0,0,2.32-2c0-.87-.63-1.72-2.09-1.72h-.49v-.63h.44a1.68,1.68,0,0,0,1.83-1.51c0-.75-.66-1.31-1.88-1.31a3.85,3.85,0,0,0-1.86.51v-.74a4.79,4.79,0,0,1,1.91-.39c1.47,0,2.59.69,2.59,1.91a1.91,1.91,0,0,1-1.35,1.8A2,2,0,0,1,33,163.59c0,1.35-1.08,2.65-3.11,2.65a4.19,4.19,0,0,1-2.2-.6Z"/><path d="M34.88,162c0-2.08.67-4.21,2.94-4.21s3,2.13,3,4.21-.69,4.21-3,4.21S34.88,164.06,34.88,162ZM40,162c0-1.32-.33-3.56-2.15-3.56s-2.14,2.24-2.14,3.56.32,3.56,2.14,3.56S40,163.32,40,162Z"/><path d="M51.13,162a3.32,3.32,0,0,1-2.17.93,4.2,4.2,0,0,1-2.16-.63,4.22,4.22,0,0,0-2.13-.72,3,3,0,0,0-2.18,1.12v-.86a3.32,3.32,0,0,1,2.17-.93,4.3,4.3,0,0,1,2.16.62,4.15,4.15,0,0,0,2.13.73,3,3,0,0,0,2.18-1.12Z"/><path d="M57.9,158.91a4.23,4.23,0,0,0-1.64-.38c-1.68,0-2.52,1.48-2.57,3.65a2.6,2.6,0,0,1,2.24-1.2,2.43,2.43,0,0,1,2.7,2.6,2.6,2.6,0,0,1-2.75,2.63c-.65,0-2.89-.19-2.89-3.89,0-4.28,2.56-4.47,3.28-4.47a5.31,5.31,0,0,1,1.64.29ZM56,161.64a2,2,0,0,0-2.12,1.78,2,2,0,0,0,2,2.14,1.89,1.89,0,0,0,2-2A1.78,1.78,0,0,0,56,161.64Z"/><path d="M60.06,166l3.3-8H64l-3.3,8Z"/><path d="M68,166v-7.33H66.62V158h2.12v8Z"/><path d="M73.26,166l4.15-7.37-4.38,0V158h5.24v.49L74.13,166Z"/><path d="M79.92,166.7a6.87,6.87,0,0,0,0-9.55h.81a7.26,7.26,0,0,1,0,9.55Z"/><g class="cls-8"><polygon class="cls-7" points="121.07 125.64 119.97 126.75 124.64 131.43 119.97 136.1 121.07 137.21 126.86 131.43 121.07 125.64"/></g><rect class="cls-7" x="1" y="130.55" width="123.49" height="1.76"/><g class="cls-9"><polygon class="cls-7" points="287.93 33.64 286.82 34.75 291.5 39.43 286.82 44.1 287.93 45.21 293.71 39.43 287.93 33.64"/></g><rect class="cls-7" x="273.85" y="38.55" width="17.49" height="1.76"/><g class="cls-10"><polygon class="cls-7" points="128.93 33.64 127.82 34.75 132.5 39.43 127.82 44.1 128.93 45.21 134.71 39.43 128.93 33.64"/></g><rect class="cls-7" x="114.85" y="38.55" width="17.49" height="1.76"/><g class="cls-11"><polygon class="cls-7" points="444.93 33.64 443.82 34.75 448.5 39.43 443.82 44.1 444.93 45.21 450.71 39.43 444.93 33.64"/></g><rect class="cls-7" x="430.85" y="38.55" width="17.49" height="1.76"/></g></svg>