<svg version="1.1" xmlns="http://www.w3.org/2000/svg" xmlns:xlink="http://www.w3.org/1999/xlink" x="0px" y="0px" width="60px" height="60px" viewBox="0 0 60 60" xml:space="preserve"><g><circle fill="#803c2d" cx="30" cy="30" r="30"/></g><g><g><path fill="none" stroke="#FFF" stroke-width="1.5" stroke-linecap="round" stroke-linejoin="round" stroke-miterlimit="10" d="M44.1 43.8H15.9c-2.2 0-4-1.8-4-4V21.7c0-2.2 1.8-4 4-4h28.2c2.2 0 4 1.8 4 4v18.1C48.1 42 46.3 43.8 44.1 43.8zM11.9 22.8 48.1 22.8M40.1 14.8 40.1 19.8M19.9 14.8 19.9 19.8"/><circle fill="#FFF" cx="20.2" cy="27.5" r="1.1"/><circle fill="#FFF" cx="26.7" cy="27.5" r="1.1"/><circle fill="#FFF" cx="33.3" cy="27.5" r="1.1"/><circle fill="#FFF" cx="39.8" cy="27.5" r="1.1"/><circle fill="#FFF" cx="20.2" cy="33.3" r="1.1"/><circle fill="#FFF" cx="26.7" cy="33.3" r="1.1"/><circle fill="#FFF" cx="39.8" cy="33.3" r="1.1"/><circle fill="#FFF" cx="20.2" cy="39.1" r="1.1"/><circle fill="#FFF" cx="26.7" cy="39.1" r="1.1"/><circle fill="#FFF" cx="33.3" cy="39.1" r="1.1"/><path fill="none" stroke="#FFF" stroke-width="1.5" stroke-linecap="round" stroke-linejoin="round" stroke-miterlimit="10" d="M31.5 33.6 32.9 35.1 35.8 31.4"/></g></g></svg>