<svg xmlns="http://www.w3.org/2000/svg" width="35.367" height="35.368" viewBox="0 0 35.367 35.368"><g transform="translate(-0.004)"><path d="M33.853,11.879H23.492V1.519A1.52,1.52,0,0,0,21.973,0H13.4a1.52,1.52,0,0,0-1.52,1.519v10.36H1.523A1.519,1.519,0,0,0,0,13.4V21.97a1.518,1.518,0,0,0,1.519,1.519H11.882v10.36a1.519,1.519,0,0,0,1.52,1.519h8.571a1.519,1.519,0,0,0,1.52-1.519V23.489h10.36a1.518,1.518,0,0,0,1.519-1.519V13.4A1.519,1.519,0,0,0,33.853,11.879Zm-27.432,8.4L2.34,17.684l4.081-2.591ZM17.688,33.031,15.1,28.951h5.179ZM15.1,6.417l2.589-4.081,2.59,4.081ZM28.954,20.274V15.094l4.081,2.59Z" fill="#fff"/></g></svg>