<svg id="icon_ピンチ" xmlns="http://www.w3.org/2000/svg" width="21" height="22.001" viewBox="0 0 21 22.001">
  <path id="パス_66" data-name="パス 66" d="M7,0H5V1H6.293L1,6.293V5H0V8H3V7H1.707L7,1.707V3H8V0ZM1,7Z" fill="#666"/>
  <path id="パス_67" data-name="パス 67" d="M19.96,9.311a2.546,2.546,0,0,0-.954-.64L15.092,7.057V2.5a2.5,2.5,0,0,0-2.5-2.5h-.214a2.5,2.5,0,0,0-2.5,2.5v7.879c-.227-.221-.584-.582-1.122-1.151a2.624,2.624,0,0,0-.771-.574,2.019,2.019,0,0,0-.878-.2,1.961,1.961,0,0,0-.685.125A2.149,2.149,0,0,0,5.39,9.4,2.312,2.312,0,0,0,5,10.686a2.079,2.079,0,0,0,.4,1.236c.038.052.117.162.224.315.376.537,1.114,1.6,1.865,2.688.476.689,2.017,2.4,2.416,2.983a1.9,1.9,0,0,0-.627,1.228l.28,2.186a1.062,1.062,0,0,0,1,.679H18.63a1.062,1.062,0,0,0,1-.679l.28-2.186a2.252,2.252,0,0,0-.423-1.228L20.8,13.07h0a3.727,3.727,0,0,0-.84-3.757Zm-.1,3.427-.012.035-.009.035-1.312,4.838L18.435,18H14.5a.5.5,0,0,0,0,1h4.394a.866.866,0,0,1,.016.086l-.244,1.908A.088.088,0,0,1,18.63,21H10.559a.11.11,0,0,1-.035-.006L10.282,19.1a1.052,1.052,0,0,1,.283-.441l.669-.587-.505-.733c-.219-.317-.662-.844-1.176-1.454-.478-.567-1.019-1.21-1.24-1.53-.753-1.089-1.492-2.156-1.87-2.695-.114-.162-.2-.28-.235-.331A1.079,1.079,0,0,1,6,10.685a1.308,1.308,0,0,1,.222-.726,1.163,1.163,0,0,1,.55-.449.959.959,0,0,1,.335-.062,1.028,1.028,0,0,1,.446.107,1.636,1.636,0,0,1,.476.359c.459.486.846.883,1.151,1.181l1.7,1.657V2.5a1.5,1.5,0,0,1,1.5-1.5h.214a1.5,1.5,0,0,1,1.5,1.5V7.726l.619.255L18.626,9.6a1.581,1.581,0,0,1,.585.377,2.752,2.752,0,0,1,.646,2.766Z" fill="#666"/>
</svg>
