<svg xmlns="http://www.w3.org/2000/svg" viewBox="0 0 27.64 34.02"><defs><style>.cls-1{fill:#fff;}.cls-2{fill:#231815;stroke:#231815;stroke-width:0.56px;}</style></defs><title>ceroKD_s</title><g id="レイヤー_2" data-name="レイヤー 2"><g id="レイヤー_1-2" data-name="レイヤー 1"><rect class="cls-1" width="27.64" height="34.02" rx="1.91"/><path class="cls-2" d="M2.13,10.85V29.76a2.12,2.12,0,0,0,2.12,2.13H23.39a2.12,2.12,0,0,0,2.12-2.13V10.85Z"/><path class="cls-2" d="M25.51,4.25a2.12,2.12,0,0,0-2.12-2.12H4.25A2.12,2.12,0,0,0,2.13,4.25V9.81H25.51Z"/><path class="cls-1" d="M7.75,15.61,8,15.38a4.59,4.59,0,0,0,.35.83,2.81,2.81,0,0,1-.7.51v-1l-.76.05c.33-.21.36-.25.42-.33v-.72l.48.86m0,2.46A6.31,6.31,0,0,0,9,17.2a5.77,5.77,0,0,0,1.05.88l.82-1.21a3.15,3.15,0,0,1-1-.66,5.26,5.26,0,0,0,.63-2.34h.26V12.66H9.37c.07-.26.09-.44.13-.65L8.24,12a4.6,4.6,0,0,1-.59,1.7v-.19H7.39a9.41,9.41,0,0,0,.66-1L7,12a2.3,2.3,0,0,1-.18.34h-.7V12H4.86v.38H4v1h.9v.17h-1v1h.94A4.1,4.1,0,0,1,3.74,15l.52.91H3.8L3.87,17c.34,0,.65,0,1.41-.05,0,.08,0,.09,0,.1a.27.27,0,0,1-.2.08H4.38l.2,1H6a.57.57,0,0,0,.38-.24.76.76,0,0,0,.09-.42v-.6l1-.06.13,0A3.34,3.34,0,0,1,6.9,17l.83,1.06m-.5-3.4H6.35l.22-.21h.54l.12.21m2.06-.8a2.9,2.9,0,0,1-.2,1.24,4.46,4.46,0,0,1-.32-.84c0-.07.1-.17.21-.4h.31m-4,2h-.7l.52-.28h.64l-.14.14-.14.12H5.28m1.06-2.59a1,1,0,0,1-.17.2H5.93v-.2Z"/><path class="cls-1" d="M16.55,16.09v.18H14v-.18h2.56m-3.94-1.61v3.6H14V17h2.56c0,.13,0,.16-.16.16h-1l.21,1h1.68c.4,0,.61-.19.61-.54V14.48h-.24l1-.56a8,8,0,0,0-1.19-.77h1.23v-1H16v-.25h-1.4v.25H11.83v1h1.62l-.21.28H12l.07,1c.46,0,2.69-.05,2.88-.06l2.07-.1a2.46,2.46,0,0,1,.26.24H12.61m3.94.75v.18H14v-.18h2.56m-1.1-2,.32.16-1.08,0a1.64,1.64,0,0,1,.24-.28h.76Z"/><path class="cls-1" d="M22.82,15a1.27,1.27,0,0,0-2.53,0,1.27,1.27,0,0,0,2.53,0Z"/><path class="cls-1" d="M8.2,19a4.68,4.68,0,0,1,.2.82l.65-.07v.39H4.19V19h4m.39.64a5,5,0,0,0-.26-.93L9,18.62a3.5,3.5,0,0,1,.31.91l-.68.08m1.28.95v1.17H7.66v.11A3.6,3.6,0,0,1,7.39,23a2.64,2.64,0,0,1-1.77,1.28,8.88,8.88,0,0,1-1.16.28l-.58-1.14C5.23,23.23,5.8,23,6,22.54a3.07,3.07,0,0,0,.18-.69v-.12H3.68V20.56H9.87m-.3-1a6.36,6.36,0,0,0-.32-1l.67-.06a4.45,4.45,0,0,1,.32.94Z"/><rect class="cls-1" x="10.76" y="20.99" width="6.35" height="1.29"/><path class="cls-1" d="M20.61,21a7.72,7.72,0,0,1,1.36.6,3.88,3.88,0,0,0,.54-1H20.74a6.28,6.28,0,0,1-2,1.47l-.89-.89a4.44,4.44,0,0,0,2.41-2.46l1.58.13a4.3,4.3,0,0,1-.26.61h2.64a5.5,5.5,0,0,1-1.52,3.31,7.18,7.18,0,0,1-3.68,1.8l-.78-1.14A6,6,0,0,0,21,22.49a12.38,12.38,0,0,0-1.31-.64Z"/><path class="cls-1" d="M9,26.28a4.83,4.83,0,0,0-.71-.85l-.6.29a8.91,8.91,0,0,1,.68.93L9,26.28M4.24,29.13l.32-.37.81-1c.39-.49.43-.51.54-.51s.21.09.37.26l2.74,3,1.08-1.22-.45-.41L7.22,26.37c-.64-.64-.85-.78-1.24-.78-.57,0-.82.28-1.79,1.34-.49.54-.82.85-1,1l1.05,1.16M9.91,25.8A4.15,4.15,0,0,0,9.17,25l-.62.31a4.31,4.31,0,0,1,.72.87Z"/><rect class="cls-1" x="10.84" y="27.25" width="6.35" height="1.29"/><path class="cls-1" d="M18,29.76a6.11,6.11,0,0,0,2.36-1.38,5.21,5.21,0,0,0,1.39-1.86h-3.3V25.34h5.19a6,6,0,0,1-1.24,2.78,15.06,15.06,0,0,1,2.31,1.72l-1.21,1a20.94,20.94,0,0,0-2-1.79,7.76,7.76,0,0,1-2.74,1.74Z"/><path class="cls-1" d="M8,4.22a2.67,2.67,0,0,0-1.45-.45c-1.18,0-1.52.95-1.52,2C5,7,5.57,7.94,6.86,7.94a3.9,3.9,0,0,0,1.87-.57L8.3,8.64a6.77,6.77,0,0,1-1.73.21A3.28,3.28,0,0,1,4.25,8.1a2.93,2.93,0,0,1-1-2.26,3,3,0,0,1,.94-2.17A3.69,3.69,0,0,1,6.59,2.9L7.9,3Z"/><path class="cls-1" d="M10.86,7.77a2.34,2.34,0,0,0,.91.13A1.5,1.5,0,0,0,13,7.42h.05l-.35,1.31H8.9v0c.42-.27.36-.76.36-1.21V4.26c0-.45.06-.94-.36-1.2V3h3a.88.88,0,0,0,.37,0h0V4.25h0c-.24-.41-.73-.37-1.15-.37h-.28V5.29h.8a.72.72,0,0,0,.32,0h0V6.46h0c-.12-.35-.52-.32-.83-.32h-.29Z"/><path class="cls-1" d="M15.27,3.87a.83.83,0,0,1,.51.13.88.88,0,0,1,.34.73,1.12,1.12,0,0,1-.93,1.1v-2h.08m-.08,2.42,1,1.89a1,1,0,0,0,1.16.58l1.2-.08a3.66,3.66,0,0,1-.83-1l-1-1.72a1.54,1.54,0,0,0,1-1.37A1.43,1.43,0,0,0,17,3.23,2.32,2.32,0,0,0,15.79,3H13.22v0c.43.27.37.76.37,1.21V7.49c0,.45.06.95-.37,1.22v0h2.33v0c-.42-.27-.36-.77-.36-1.22Z"/><path class="cls-1" d="M19.76,5.63c0-.89.45-1.87,1.47-1.87,1.19,0,1.58,1.41,1.58,2.4a2,2,0,0,1-.32,1.21,1.33,1.33,0,0,1-2.32-.14,3.69,3.69,0,0,1-.41-1.6m-1.68.24a2.94,2.94,0,0,0,3.15,3,3,3,0,0,0,3.26-3,2.86,2.86,0,0,0-3.15-3A3,3,0,0,0,18.08,5.87Z"/></g></g></svg>