<svg id="レイヤー_1" data-name="レイヤー 1" xmlns="http://www.w3.org/2000/svg" viewBox="0 0 327.87 114.57"><defs><style>.cls-1{fill:#fff;}.cls-2{fill:#d32f2f;}</style></defs><polygon class="cls-1" points="135.64 9.27 135.64 43.53 123.67 43.53 123.67 9.27 112.3 9.27 112.3 0 147 0 147 9.27 135.64 9.27"/><path class="cls-1" d="M170.82,28.29h-4.88V43.53h-11.8V0H171.3c11.36,0,17.17,5.08,17.17,13.79,0,5.68-2.6,9.69-7,11.65l9.62,17.5v.59H178.83ZM165.94,8.37V20.14h4.31c5,0,6.92-2.16,6.92-6.05s-2.09-5.72-7.1-5.72Z"/><polygon class="cls-1" points="197.55 0 225.96 0 225.96 8.59 209.36 8.59 209.36 16.99 223.55 16.99 223.55 25.52 209.36 25.52 209.36 34.96 226.27 34.96 226.27 43.53 197.55 43.53 197.55 0"/><polygon class="cls-1" points="267.09 44.37 245.47 19.61 245.47 43.89 235.28 43.89 235.28 0 242.38 0 263.75 24.47 263.75 0.44 273.94 0.44 273.94 44.37 267.09 44.37"/><path class="cls-1" d="M283.51,0h15.66C313.2,0,324,6.41,324,22.12S313.2,43.79,299.17,43.79H283.51Zm11.91,8.83V35h3.12c7.95,0,13.3-3.09,13.3-12.85,0-9.56-5.35-13.29-13.3-13.29Z"/><path class="cls-1" d="M22,33.81,22,36.23H17.39V34.1H4.61v2.13H0c0-.67.05-1.57.05-2.42V10.76C.05,9.9,0,9,0,8.34H22C22,9.15,22,9.9,22,10.76ZM4.61,18.89H17.39V12.4H4.61Zm12.78,4.05H4.61V30H17.39Z"/><path class="cls-1" d="M37,34.85c0,.48,0,1,0,1.46H33.17a11.48,11.48,0,0,0,.06-1.46V23.38c-1.33.14-2.53.22-3.31.3-.38,0-1.1.14-1.52.23l-.49-3.72c.43,0,1.27,0,2,0a6.15,6.15,0,0,0,.8,0c.58-.67,1.2-1.43,1.81-2.24-1.42-1.65-3-3.26-4.4-4.62l2-3.08,1,1.07A23.15,23.15,0,0,0,33.94,6.2l3.27,1.93a5.48,5.48,0,0,0-.39.48,42.57,42.57,0,0,1-3.36,5.32l1,1.26a32.87,32.87,0,0,0,3.62-6.1L41.32,11a3.67,3.67,0,0,1-.45.54c-1.42,2.31-3.76,5.57-5.93,8.36,1-.09,2.07-.19,3-.29a21.55,21.55,0,0,0-.81-2.43l2.85-.75a44.67,44.67,0,0,1,2.07,7c-.94.31-2.16.67-3.14.92-.06-.45-.16-1-.27-1.49-.48,0-1,.1-1.61.15ZM29.34,25c1,.16,2.27.36,3.1.52,0,.12,0,.36-.09.64a34,34,0,0,1-1.1,8.58c-.55-.22-2.07-.81-3.11-1.19A28.06,28.06,0,0,0,29.34,25m27,7c.9,0,1.64,0,2.26-.06v4c-.62,0-1.36,0-2.26,0H42.65c-.88,0-1.65,0-2.3,0v-4l-1.82.51a43,43,0,0,0-.87-7.19l2.79-.73a45.13,45.13,0,0,1,1.26,7,10.43,10.43,0,0,1-1.23.36c.61.06,1.36.06,2.17.06h5.24V28.44h-3.3c-.78,0-1.39,0-2,0V24.72c.59,0,1.2,0,2,0h3.3v-2c0-.29,0-.85-.06-1.14.93,0,3.47.08,4.37.15,0,.29-.06.7-.06,1v2h3.49c.78,0,1.42,0,2,0v3.75c-.55,0-1.19,0-2,0H52.14V32ZM46.82,17.08a15,15,0,0,1-3.27-5.41c-.61,0-1.2,0-1.68,0V8c.52,0,1.13,0,1.78,0H54.21l.29-.33a31.33,31.33,0,0,1,3.4,2.82c-.14.1-.33.16-.49.26a15.12,15.12,0,0,1-4,6.41,23.07,23.07,0,0,0,5.28,1.37c-.49,1.12-1.23,3-1.53,3.89a22.94,22.94,0,0,1-6.92-2.63,25.76,25.76,0,0,1-6.83,2.63c-.33-.95-1.23-2.83-1.77-4a21.25,21.25,0,0,0,5.23-1.32M53,11.67H47.57a9.58,9.58,0,0,0,2.6,3.52A9.45,9.45,0,0,0,53,11.67"/><polygon class="cls-2" points="68.99 43.63 70.81 43.63 94.76 0 92.95 0 68.99 43.63"/><polygon class="cls-2" points="72.03 43.63 73.84 43.63 97.79 0 95.98 0 72.03 43.63"/><polygon class="cls-2" points="75.06 43.63 76.87 43.63 100.83 0 99.02 0 75.06 43.63"/><polygon class="cls-2" points="78.08 43.63 79.89 43.63 103.86 0 102.06 0 78.08 43.63"/><polygon class="cls-2" points="81.12 43.63 82.93 43.63 106.89 0 105.08 0 81.12 43.63"/><polygon class="cls-2" points="76.52 10.92 80.85 19.02 81.45 17.74 77.7 10.92 78.7 10.92 81.93 16.77 82.45 15.6 79.87 10.92 80.85 10.92 82.92 14.68 86.44 7.25 82.46 0 68.37 0 79.77 21.32 80.3 20.13 75.55 10.92 76.52 10.92"/><polygon class="cls-2" points="95.52 43.63 96.7 43.63 90.94 33.17 90.39 34.31 95.52 43.63"/><polygon class="cls-2" points="93.42 43.63 94.6 43.63 89.98 35.22 89.44 36.41 93.42 43.63"/><polygon class="cls-2" points="91.42 32.23 97.68 43.63 98.86 43.63 91.95 31.06 91.42 32.23"/><polygon class="cls-2" points="92.55 29.84 99.84 43.63 107.52 43.63 96.12 22.33 92.55 29.84"/><path class="cls-2" d="M327.87,58.11l-265,.2c-11.37,0-20.57,5.64-25.16,14.52V59.23H0v55.34H299.84c16.23,0,28-11.65,28-28.07Z"/><path class="cls-1" d="M16.12,91.87v17H5V64.34H32.72v8.21H16.12V83.67H30.89v8.2Z"/><path class="cls-1" d="M39.94,86.46c0-13.2,9.3-23,23.35-23s23.35,9.82,23.35,23-9.23,23.29-23.35,23.29S39.94,99.61,39.94,86.46Zm35.19,0c0-8.9-4.56-14.5-11.84-14.5s-11.84,5.6-11.84,14.5,4.49,14.7,11.84,14.7S75.13,95.31,75.13,86.46Z"/><path class="cls-1" d="M109.46,92.84h-5.33v16H93V64.34h16.85c11.37,0,17.37,5.09,17.37,13.93,0,6-2.79,10-7.62,12l10.35,18v.6H118.32Zm-5.33-20.5V85.1H109c5.35,0,7.48-2.35,7.48-6.58s-2.33-6.18-7.66-6.18Z"/><path class="cls-1" d="M194.36,108.85h-9.11V64.34h13.14l7.93,21.34,2.15,7.81,2.22-7.81,8.14-21.34h13.38v44.51h-10.4v-18l.78-14.32-3.84,12.36-7.48,20H204.7l-7.29-20-3.83-12.81.78,14.77Z"/><path class="cls-1" d="M136.41,91.41V64.24h11.37v27c0,6.2,3,9.34,8.42,9.34s8.55-3.14,8.55-9.34v-27h10.13V91.41c0,11.37-6.8,18.29-19.07,18.29S136.41,103.31,136.41,91.41Z"/><path d="M259.1,97.74h-16v-3.3l2.9-2.85c4.33-4.11,6.93-6.78,6.93-9.54,0-1.74-1.15-3.18-3.56-3.18a8.7,8.7,0,0,0-4.49,1.53l-1.52-3.84a13.91,13.91,0,0,1,7.17-2c5.64,0,8.18,3.15,8.18,7,0,4-2.9,7.11-6,9.87l-2.12,1.83v.06h8.49Z"/><path d="M262,86.4c0-6.42,2.61-11.79,8.61-11.79,6.47,0,8.42,6,8.42,11.64,0,7.44-3.17,11.82-8.51,11.82C264.14,98.07,262,92.13,262,86.4Zm11.22-.06c0-4.89-.82-7.53-2.64-7.53s-2.77,2.34-2.77,7.53,1,7.53,2.77,7.53C272,93.87,273.25,92.55,273.25,86.34Z"/><path d="M297.44,97.74h-16v-3.3l2.91-2.85c4.32-4.11,6.93-6.78,6.93-9.54,0-1.74-1.16-3.18-3.57-3.18a8.63,8.63,0,0,0-4.48,1.53l-1.52-3.84a13.9,13.9,0,0,1,7.16-2c5.64,0,8.19,3.15,8.19,7,0,4-2.91,7.11-6,9.87L289,93.27v.06h8.48Z"/><path d="M311.37,85.5c2.74.6,4.95,2.64,4.95,5.64,0,3.84-3.5,6.93-9.44,6.93a14.34,14.34,0,0,1-6.44-1.32l1.22-4a11,11,0,0,0,4.72,1.17c2.58,0,4-1.35,4-3.06,0-2.28-2.24-3.3-4.65-3.3h-1.65V83.88h1.48c1.85,0,4.13-.81,4.13-2.73,0-1.38-1.09-2.37-3.17-2.37a9.47,9.47,0,0,0-4.19,1.11l-1.13-3.78a15.21,15.21,0,0,1,6.74-1.5c4.95,0,7.59,2.58,7.59,5.64,0,2.34-1.55,4.23-4.19,5.19Z"/></svg>