<?xml version="1.0" encoding="UTF-8"?><svg id="_レイヤー_2" xmlns="http://www.w3.org/2000/svg" width="260" height="111" viewBox="0 0 260 111"><g id="_レイヤー_3"><g><g><path d="m44.12,53.473c-.743.504-1.471.924-2.312,1.288-.154-.42-.448-.896-.7-1.148,2.423-.952,4.622-2.647,5.701-4.398h1.358c.994,1.611,3.53,3.46,5.953,4.328-.266.364-.574.953-.672,1.275-.827-.351-1.485-.729-2.466-1.359v1.106c-.294-.042-.63-.056-1.19-.056h-4.538c-.379,0-.883.028-1.135.056v-1.092Zm-.799,3.6c-.742,0-1.204.028-1.597.084v-1.358c.378.056.938.084,1.597.084h8.503c.687,0,1.219-.028,1.583-.084v1.358c-.406-.056-.854-.084-1.583-.084h-4.805c-.42,1.009-.995,2.073-1.555,2.913l1.639-.126c1.471-.111,1.793-.14,3.124-.308-.519-.574-.896-.98-1.485-1.555l1.051-.574c1.541,1.555,2.479,2.619,3.222,3.642l-1.093.756c-.392-.602-.603-.91-.868-1.26-1.934.266-3.586.434-6.934.714-1.022.07-1.64.141-1.989.21l-.183-1.415c.295.028.561.043.743.043.084,0,.168,0,1.303-.057.602-.896,1.246-2.115,1.582-2.983h-2.255Zm6.458-3.74c.434,0,.686-.014.966-.028-1.372-.924-2.465-1.933-3.222-2.983-.687.995-1.751,1.989-3.151,2.983.28.028.448.028.896.028h4.511Z" fill="#231815"/><path d="m64.039,57.366c-.561.547-1.079.938-1.737,1.303-.126-.224-.224-.336-.49-.645-.294.141-.364.183-.784.364l-.98.435c-.168.07-.351.154-.532.224-.309.126-.574.238-.812.337l-.252-1.359c.518-.098.63-.126,1.61-.462v-3.866h-.477c-.434,0-.784.028-1.106.07v-1.247c.267.042.7.07,1.121.07h.462v-1.779c-.014-.714-.028-1.162-.084-1.526h1.345c-.056.406-.07.756-.07,1.526v1.779h.28c.42,0,.826-.014,1.037-.056v1.218c-.364-.042-.589-.056-1.037-.056h-.28v3.39c.393-.168.574-.252.98-.448l-.014.841c.896-.574,1.499-1.148,1.905-1.835h-.532c-.574,0-1.022.028-1.247.07v-1.163c.238.042.658.07,1.261.07h5.953c.616,0,1.148-.028,1.401-.084v1.162c-.28-.027-.729-.056-1.401-.056h-4.188c-.153.28-.266.435-.504.756h4.454c.645,0,.967-.014,1.345-.056-.027.238-.042.267-.069.826-.112,1.877-.322,3.222-.617,3.754-.266.519-.672.673-1.681.673-.378,0-.784-.014-1.204-.042-.042-.435-.183-.841-.393-1.219.687.098,1.19.14,1.625.14.378,0,.588-.084.658-.252.196-.392.364-1.526.435-2.857h-.673c-.336.771-.812,1.541-1.316,2.129-.952,1.037-1.835,1.724-2.899,2.298-.294-.421-.435-.574-.841-.883,1.863-.854,3.151-2.031,3.88-3.544h-1.036c-.771,1.247-2.115,2.367-3.796,3.18-.168-.294-.421-.603-.757-.882,1.401-.547,2.647-1.415,3.292-2.298h-1.232Zm.392-3.46c-.658,0-1.008.015-1.246.057.027-.309.042-.729.056-1.289v-1.919c-.014-.645-.014-.854-.056-1.219.378.056.7.07,1.358.07h3.853c.714,0,1.092-.028,1.456-.07-.042.336-.056.687-.056,1.316v1.821c0,.561.014,1.022.056,1.274-.182-.027-.729-.042-1.246-.042h-4.175Zm-.014-2.577h4.188v-.742h-4.188v.742Zm0,1.653h4.188v-.757h-4.188v.757Z" fill="#231815"/></g><g><path d="m99.597,57.06c0,.721,0,1.035.045,1.365h-1.275v-.81h-1.845v1.484h-1.35c.06-.449.09-1.05.09-1.68v-7.064c-.016-.675-.03-1.065-.061-1.425.271.029.51.045,1.08.045h2.325c.54,0,.72-.016,1.02-.045-.029.33-.029.465-.029,1.425v2.295c1.02-1.245,1.935-3.48,2.085-5.07l1.47.24c-.15.345-.165.405-.285.811-.061.225-.18.555-.33,1.02h3.705c.63,0,.899-.015,1.109-.06l.676.795c-.091.18-.091.194-.195.479-.045.075-.135.33-.3.765-.511,1.141-1.05,2.13-1.561,2.865-.375-.3-.705-.495-1.199-.675.72-.87,1.244-1.83,1.664-2.97h-4.319c-.465,1.125-1.005,2.024-1.725,2.955-.226-.256-.42-.421-.795-.69v3.944Zm-3.075-.614h1.845v-6.285h-1.845v6.285Zm7.425-4.68c-.045.194-.061.51-.061.869,0,1.021.21,2.13.57,2.985.854,2.055,2.115,3.345,4.064,4.155-.239.27-.479.704-.734,1.35-2.19-1.125-3.735-3.015-4.455-5.445-.585,2.445-1.965,4.2-4.38,5.521-.27-.48-.57-.84-.899-1.125,1.229-.54,2.13-1.2,2.834-2.085.511-.646.96-1.516,1.275-2.445.3-.87.435-1.739.435-2.895,0-.405-.015-.615-.06-.885h1.41Z" fill="#231815"/><path d="m117.757,59.13h4.47c.72,0,1.439-.03,1.845-.09v1.515c-.51-.075-1.095-.104-1.83-.104h-9.524c-.63,0-1.41.045-1.905.104v-1.515c.436.06,1.125.09,1.905.09h3.585v-9.659c0-.646-.03-1.11-.09-1.636h1.649c-.075.45-.104,1.021-.104,1.636v2.715h3.569c.646,0,1.186-.03,1.635-.09v1.484c-.42-.06-1.05-.09-1.635-.09h-3.569v5.64Z" fill="#231815"/><path d="m126.442,58.335c1.02-1.245,1.8-2.79,2.295-4.62l1.41.42c-.556,1.965-1.44,3.66-2.49,4.995l-1.215-.795Zm7.185.555c0,1.306-.615,1.74-1.875,1.74-.51,0-1.035-.045-1.59-.135l-.21-1.455c.615.12,1.17.165,1.635.165.391,0,.556-.105.556-.495v-6.689h-4.95v-1.335h4.95v-2.67h1.484v2.67h4.74v1.335h-4.74v6.869Zm2.955-5.279c.975,1.305,1.89,3.045,2.535,4.755l-1.5.63c-.585-1.755-1.38-3.435-2.266-4.785l1.23-.6Z" fill="#231815"/><path d="m153.396,53.535v1.56h-11.984v-1.56h11.984Z" fill="#231815"/><path d="m159.447,49.035v3.39c0,3.465-1.02,5.88-3.314,7.755l-1.11-1.05c2.1-1.575,2.895-3.645,2.895-6.81v-3.285h1.53Zm4.109-.42v9.555c1.351-.555,2.971-1.785,4.275-3.465l.885,1.26c-1.395,1.755-3.51,3.271-5.88,4.17l-.825-.675v-10.845h1.545Z" fill="#231815"/></g><g><path d="m73.894,94.996c-.868,0-1.261.014-1.583.07v-1.331c.351.056.91.084,1.569.084h8.012c.603,0,1.247-.028,1.583-.084v1.331c-.42-.057-.771-.07-1.568-.07h-3.418v2.605h2.801c.574,0,1.135-.028,1.415-.07v1.303c-.364-.056-.742-.07-1.387-.07h-2.829v3.152h3.922c.756,0,1.19-.028,1.681-.084v1.372c-.448-.069-.967-.098-1.652-.098h-8.938c-.7,0-1.274.028-1.723.098v-1.372c.393.056.938.084,1.681.084h3.698v-3.152h-2.563c-.658,0-1.148.028-1.484.07v-1.303c.322.056.672.07,1.4.07h2.647v-2.605h-3.264Zm2.521-3.979c1.246.448,2.017.799,3.432,1.569l-.826,1.036c-1.149-.729-2.479-1.358-3.517-1.667l.911-.938Z" fill="#231815"/><path d="m96.898,102.042h2.325c.589,0,.911-.015,1.19-.057v1.191c-.462-.057-.938-.084-1.456-.084h-5.632v.644h-1.246c.056-.35.084-.882.084-1.526v-3.698l.028-.49c-.238.406-.561.826-.98,1.261-.225-.49-.393-.742-.673-1.022v3.754c0,.742.014,1.247.07,1.695h-1.387c.056-.421.084-.938.084-1.653v-3.796c0-.561,0-.799.042-1.877-.477.841-.687,1.148-1.064,1.597-.042-.14-.084-.252-.099-.294,0-.014-.084-.21-.195-.477-.07-.196-.127-.322-.141-.35-.014-.042-.07-.141-.126-.238,1.261-1.317,2.396-3.727,2.647-5.575l1.274.42c-.098.225-.098.238-.224.645-.196.616-.561,1.541-.883,2.228v3.894c1.135-.966,2.073-2.297,2.577-3.642l1.191.322c-.183.364-.351.687-.589,1.064h2.115c.336-.435.673-1.036.771-1.387l1.204.252c-.195.351-.504.841-.728,1.135h1.975c.561,0,.938-.014,1.289-.07v1.177c-.351-.042-.715-.056-1.177-.056h-2.27v.966h1.695c.616,0,.896-.014,1.204-.056v1.121c-.364-.042-.729-.057-1.19-.057h-1.709v.967h1.695c.645,0,.882-.014,1.204-.056v1.12c-.336-.042-.729-.056-1.177-.056h-1.723v1.064Zm-1.625-9.777c0-.532-.027-.826-.084-1.064h1.317c-.057.266-.07.561-.07,1.064v1.135h2.297v-.687c0-.448-.014-.729-.042-.967h1.289c-.042.252-.07.603-.07,1.037v.826c0,.448.014.658.042.883-.462-.028-.645-.028-.994-.028h-6.065c-.477,0-.729.014-.967.028.028-.351.028-.519.028-.896v-.911c0-.364-.028-.7-.057-.938h1.247c-.028.309-.042.616-.042.98v.673h2.171v-1.135Zm.49,5.729v-.966h-2.438v.966h2.438Zm-2.438,1.976h2.438v-.967h-2.438v.967Zm0,2.073h2.438v-1.064h-2.438v1.064Z" fill="#231815"/></g><g><path d="m125.011,92.83c0-.569-.03-1.08-.075-1.515.435.045.945.075,1.604.075h6.915c.675,0,1.14-.016,1.56-.075-.06.51-.074.945-.074,1.439v9.465c0,.705.029,1.29.09,1.71h-1.485v-.915h-7.14v.915h-1.484c.06-.42.09-.99.09-1.694v-9.405Zm1.395,3.555h7.14v-3.704h-7.14v3.704Zm0,5.34h7.14v-4.064h-7.14v4.064Z" fill="#231815"/><path d="m138.414,96.896c.226.029.375.029.75.029h.466c.404-.524.51-.659.84-1.125-.601-.824-1.545-1.874-2.085-2.324l.675-1.021c.375.375.39.391.63.63.57-.915,1.14-2.159,1.215-2.595l1.26.51c-.135.226-.149.24-.54,1.021-.375.734-.75,1.35-1.14,1.92.21.255.45.524.69.825.885-1.365,1.229-1.995,1.439-2.596l1.125.646c-.075.104-.12.165-.21.3-.045.061-.27.42-.689,1.095-.69,1.035-1.381,2.01-1.905,2.67.585-.029,1.41-.104,1.905-.165-.136-.359-.24-.585-.525-1.215l.84-.42c.6,1.275.885,1.965,1.2,2.985l-.96.479c-.105-.435-.12-.54-.21-.81-.33.06-.585.09-1.141.149v4.71c0,.646.03,1.141.091,1.516h-1.396c.061-.391.09-.87.09-1.516v-4.604l-.645.06c-.075,0-.436.016-1.05.061-.24.015-.391.029-.556.075l-.165-1.29Zm1.801,2.085c-.061,1.529-.346,3.404-.615,4.334l-1.14-.479c.375-.975.614-2.43.659-4.064l1.096.21Zm3.284-.315c.195.54.375,1.545.585,3.12l-1.064.33c-.03-.976-.195-2.19-.45-3.165l.93-.285Zm6.225.21c.585,0,1.11-.03,1.396-.09v1.32c-.42-.046-.78-.061-1.396-.061h-1.484v2.31h2.01c.705,0,1.215-.029,1.53-.074v1.35c-.375-.06-.9-.09-1.545-.09h-4.98c-.6,0-1.185.03-1.545.09v-1.35c.33.045.825.074,1.396.074h1.89v-2.31h-1.125c-.57,0-1.005.015-1.425.061v-1.306c.285.045.735.075,1.425.075h1.125v-.39c0-.72-.03-1.17-.09-1.455h1.41c-.061.314-.075.72-.075,1.455v.39h1.484Zm1.471-6.915c-.21.315-.375.556-.495.735-.585.945-1.186,1.68-2.025,2.445,1.005.6,2.115,1.034,3.3,1.29-.3.465-.42.734-.6,1.319-1.365-.42-2.729-1.064-3.705-1.77-.915.66-1.755,1.109-2.97,1.604-.195-.51-.405-.899-.645-1.215,1.125-.375,1.8-.689,2.609-1.215-.84-.78-1.5-1.71-1.979-2.7-.36.016-.66.03-.9.075v-1.335c.255.045.825.075,1.545.075h3.96c.54,0,.945-.015,1.14-.061l.766.75Zm-5.19.495c.42.795.855,1.32,1.65,1.965.734-.63,1.245-1.215,1.71-1.965h-3.36Z" fill="#231815"/><path d="m158.409,91.766c2.16,0,3.375.899,3.375,2.67,0,1.335-.645,2.205-1.92,2.58,1.306.225,2.311,1.109,2.311,2.744,0,2.01-1.32,3.285-3.601,3.285h-3.734v-11.279h3.569Zm-.345,4.725c1.335,0,2.025-.645,2.025-1.725,0-1.096-.57-1.605-1.92-1.605h-1.71v3.33h1.604Zm.18,5.16c1.455,0,2.19-.705,2.19-1.98s-.9-1.845-2.37-1.845h-1.604v3.825h1.784Z" fill="#231815"/><path d="m165.397,103.045v-11.279h3.525c2.31,0,3.689,1.199,3.689,3.359,0,2.235-1.335,3.87-4.035,3.87h-1.529v4.05h-1.65Zm3.165-5.49c1.395,0,2.265-.72,2.265-2.265,0-1.29-.705-2.069-2.175-2.069h-1.604v4.334h1.515Z" fill="#231815"/></g><g><path d="m14.278,11.473c-.743.504-1.471.924-2.312,1.288-.154-.42-.448-.896-.7-1.148,2.423-.952,4.622-2.647,5.701-4.398h1.358c.994,1.611,3.53,3.46,5.953,4.328-.266.364-.574.953-.672,1.275-.827-.351-1.485-.729-2.466-1.359v1.106c-.294-.042-.63-.056-1.19-.056h-4.538c-.379,0-.883.028-1.135.056v-1.092Zm-.799,3.6c-.742,0-1.204.028-1.597.084v-1.358c.378.056.938.084,1.597.084h8.503c.687,0,1.219-.028,1.583-.084v1.358c-.406-.056-.854-.084-1.583-.084h-4.805c-.42,1.009-.995,2.073-1.555,2.913l1.639-.126c1.471-.111,1.793-.14,3.124-.308-.519-.574-.896-.98-1.485-1.555l1.051-.574c1.541,1.555,2.479,2.619,3.222,3.642l-1.093.756c-.392-.602-.603-.91-.868-1.26-1.934.266-3.586.434-6.934.714-1.022.07-1.64.141-1.989.21l-.183-1.415c.295.028.561.043.743.043.084,0,.168,0,1.303-.057.602-.896,1.246-2.115,1.582-2.983h-2.255Zm6.458-3.74c.434,0,.686-.014.966-.028-1.372-.924-2.465-1.933-3.222-2.983-.687.995-1.751,1.989-3.151,2.983.28.028.448.028.896.028h4.511Z" fill="#231815"/><path d="m29.553,8.517c0-.532-.028-.896-.07-1.219h1.274c-.042.225-.07.742-.07,1.232v.238h2.199v-.252c0-.616-.014-.91-.069-1.219h1.274c-.042.309-.07.687-.07,1.232v.238c.378,0,.868-.042,1.009-.069v1.176c-.183-.042-.504-.056-.938-.056h-.07v5.519c.364,0,.757-.027.925-.069v1.177c-.225-.028-.589-.042-1.19-.042h-4.427c-.561,0-.826.014-1.093.056v-1.19c.21.056.561.069,1.064.069h.253v-5.519c-.575,0-.896.014-1.135.056v-1.176c.182.042.616.069,1.135.069v-.252Zm1.736,8.741c-.687,1.148-1.135,1.666-2.115,2.451-.266-.393-.49-.616-.882-.911.966-.658,1.555-1.288,2.017-2.129l.98.589Zm1.597-6.317v-1.121h-2.199v1.121h2.199Zm0,2.129v-1.135h-2.199v1.135h2.199Zm0,2.269v-1.274h-2.199v1.274h2.199Zm.112,1.345c.435.673.631.896,1.303,1.443-.351.266-.561.462-.868.84-.505-.462-.925-.994-1.331-1.681l.896-.603Zm3.586-1.316c-.168,1.976-.63,3.306-1.541,4.412-.294-.392-.588-.672-.98-.924.729-.827,1.051-1.527,1.247-2.76.182-1.162.266-3.348.266-6.653,0-.827-.014-1.275-.069-1.681.378.042.798.056,1.442.056h1.933c.729,0,1.009-.014,1.415-.056-.042.321-.056.742-.056,1.442v9.161c0,.994-.379,1.288-1.611,1.288-.308,0-.561-.014-1.078-.042-.07-.546-.112-.756-.309-1.288.393.069.967.14,1.232.14.309,0,.379-.014.435-.042.112-.056.141-.126.141-.252v-2.802h-2.466Zm.141-3.264c-.015.952-.043,1.681-.07,2.157h2.396v-2.157h-2.325Zm2.325-3.166h-2.312v2.06h2.312v-2.06Z" fill="#231815"/></g><g><path d="m74.312,25.055h-9.637v-2.246l4.426-5.627c.561-.778.975-1.461,1.24-2.049s.398-1.151.398-1.69c0-.727-.125-1.295-.376-1.707s-.612-.618-1.083-.618c-.518,0-.927.24-1.23.719-.303.479-.455,1.153-.455,2.021h-3.189c0-1.003.208-1.92.624-2.751.415-.831.999-1.477,1.752-1.938.752-.46,1.604-.69,2.555-.69,1.46,0,2.593.402,3.397,1.207s1.207,1.949,1.207,3.432c0,.92-.223,1.854-.668,2.802s-1.252,2.113-2.42,3.498l-2.101,2.999h5.56v2.639Z" fill="#231815"/><path d="m85.536,18.294c0,2.261-.41,3.99-1.23,5.188-.819,1.198-1.989,1.797-3.51,1.797-1.504,0-2.667-.582-3.486-1.746-.82-1.164-1.245-2.832-1.275-5.004v-3.088c0-2.254.408-3.978,1.225-5.172s1.988-1.791,3.516-1.791,2.698.592,3.515,1.774,1.231,2.871,1.247,5.065v2.976Zm-3.189-3.313c0-1.287-.128-2.253-.383-2.896-.254-.645-.65-.967-1.189-.967-1.012,0-1.535,1.18-1.572,3.538v4.077c0,1.317.129,2.298.387,2.941.259.645.661.967,1.207.967.518,0,.9-.302,1.151-.904s.384-1.525.399-2.769v-3.987Z" fill="#231815"/><path d="m97.312,25.055h-9.637v-2.246l4.426-5.627c.561-.778.975-1.461,1.24-2.049s.398-1.151.398-1.69c0-.727-.125-1.295-.376-1.707s-.612-.618-1.083-.618c-.518,0-.927.24-1.23.719-.303.479-.455,1.153-.455,2.021h-3.189c0-1.003.208-1.92.624-2.751.415-.831.999-1.477,1.752-1.938.752-.46,1.604-.69,2.555-.69,1.46,0,2.593.402,3.397,1.207s1.207,1.949,1.207,3.432c0,.92-.223,1.854-.668,2.802s-1.252,2.113-2.42,3.498l-2.101,2.999h5.56v2.639Z" fill="#231815"/><path d="m102.171,15.43h1.539c.584,0,1.013-.203,1.286-.611s.409-.953.409-1.635c0-.65-.14-1.158-.421-1.521-.28-.363-.657-.545-1.128-.545-.442,0-.804.173-1.084.518-.281.344-.422.778-.422,1.303h-3.178c0-.854.196-1.619.59-2.297.393-.678.943-1.207,1.65-1.59.708-.381,1.492-.572,2.354-.572,1.504,0,2.684.416,3.537,1.246.854.832,1.28,1.97,1.28,3.414,0,.742-.192,1.429-.578,2.062s-.894,1.117-1.522,1.454c.771.329,1.347.823,1.725,1.482s.566,1.438.566,2.336c0,1.452-.462,2.617-1.387,3.492-.925.877-2.139,1.314-3.645,1.314-1.399,0-2.536-.433-3.408-1.297-.872-.865-1.309-2.001-1.309-3.408h3.179c0,.584.153,1.074.46,1.471.308.396.697.596,1.168.596.547,0,.979-.203,1.298-.607s.478-.943.478-1.617c0-1.609-.626-2.418-1.876-2.426h-1.562v-2.561Z" fill="#231815"/><path d="m110.857,23.438c0-.509.17-.929.511-1.258s.784-.494,1.331-.494c.531,0,.974.163,1.325.488.352.326.527.747.527,1.264,0,.524-.178.945-.533,1.264s-.795.477-1.319.477c-.531,0-.972-.16-1.319-.482-.349-.322-.522-.741-.522-1.258Z" fill="#231815"/><path d="m127.334,1.701v3.984h-.266c-1.76.011-3.157.54-4.191,1.585-1.035,1.047-1.663,2.51-1.885,4.392,1.007-1.151,2.269-1.727,3.785-1.727,1.749,0,3.146.747,4.191,2.241,1.047,1.494,1.569,3.486,1.569,5.977,0,1.583-.299,3.011-.896,4.283s-1.437,2.261-2.515,2.963c-1.08.703-2.3,1.055-3.661,1.055-2.191,0-3.948-.88-5.271-2.64-1.323-1.76-1.984-4.128-1.984-7.105v-1.743c0-2.667.418-5.003,1.254-7.006.835-2.003,2.041-3.545,3.619-4.623,1.576-1.08,3.417-1.625,5.52-1.636h.73Zm-4.034,12.103c-.598,0-1.099.188-1.503.565-.403.377-.705.843-.904,1.397v1.696c0,1.708.227,2.983.681,3.826s1.052,1.264,1.793,1.264c.753,0,1.355-.407,1.81-1.223.454-.814.681-1.86.681-3.136,0-1.297-.235-2.354-.706-3.168-.47-.815-1.087-1.223-1.851-1.223Z" fill="#231815"/><path d="m132.479,23.438c0-.509.17-.929.511-1.258s.784-.494,1.331-.494c.531,0,.974.163,1.325.488.352.326.527.747.527,1.264,0,.524-.178.945-.533,1.264s-.795.477-1.319.477c-.531,0-.972-.16-1.319-.482-.349-.322-.522-.741-.522-1.258Z" fill="#231815"/><path d="m153.12,26.122h-14.244v-3.32l6.541-8.317c.83-1.151,1.441-2.161,1.835-3.03.393-.868.589-1.701.589-2.498,0-1.073-.186-1.915-.556-2.523-.371-.608-.905-.913-1.603-.913-.764,0-1.37.354-1.817,1.062-.449.708-.673,1.704-.673,2.988h-4.715c0-1.483.308-2.839.921-4.067.615-1.229,1.479-2.184,2.59-2.863,1.113-.682,2.372-1.021,3.777-1.021,2.158,0,3.832.595,5.021,1.785,1.19,1.189,1.785,2.88,1.785,5.071,0,1.361-.329,2.742-.988,4.142-.658,1.4-1.851,3.124-3.577,5.172l-3.104,4.433h8.218v3.901Z" fill="#231815"/><path d="m168.603,8.375c0,1.173-.249,2.214-.747,3.121s-1.185,1.633-2.059,2.175c.996.564,1.782,1.342,2.357,2.332.575.991.863,2.156.863,3.495,0,2.147-.62,3.843-1.859,5.089-1.239,1.244-2.928,1.867-5.063,1.867s-3.835-.623-5.097-1.867c-1.262-1.246-1.893-2.941-1.893-5.089,0-1.339.288-2.507.863-3.503s1.367-1.771,2.374-2.324c-.886-.542-1.577-1.268-2.075-2.175s-.747-1.948-.747-3.121c0-2.114.592-3.769,1.776-4.964s2.772-1.793,4.765-1.793c2.015,0,3.608.604,4.781,1.81s1.76,2.855,1.76,4.947Zm-6.508,14.178c.708,0,1.253-.302,1.636-.905.381-.603.572-1.441.572-2.515s-.199-1.915-.598-2.523-.946-.913-1.644-.913-1.248.305-1.651.913c-.404.608-.606,1.45-.606,2.523s.202,1.912.606,2.515c.403.604.965.905,1.685.905Zm1.826-13.929c0-.94-.152-1.693-.456-2.258-.305-.564-.772-.847-1.403-.847-.598,0-1.052.274-1.361.821-.31.549-.465,1.31-.465,2.283,0,.952.155,1.719.465,2.299.31.582.774.872,1.395.872s1.079-.29,1.378-.872c.299-.58.448-1.347.448-2.299Z" fill="#231815"/></g><g><path d="m223.733,26.122h-14.244v-3.32l6.541-8.317c.83-1.151,1.441-2.161,1.835-3.03.393-.868.589-1.701.589-2.498,0-1.073-.186-1.915-.556-2.523-.371-.608-.905-.913-1.603-.913-.764,0-1.37.354-1.817,1.062-.449.708-.673,1.704-.673,2.988h-4.715c0-1.483.308-2.839.921-4.067.615-1.229,1.479-2.184,2.59-2.863,1.113-.682,2.372-1.021,3.777-1.021,2.158,0,3.832.595,5.021,1.785,1.19,1.189,1.785,2.88,1.785,5.071,0,1.361-.329,2.742-.988,4.142-.658,1.4-1.851,3.124-3.577,5.172l-3.104,4.433h8.218v3.901Z" fill="#231815"/><path d="m234.681,16.775c-.996,1.019-2.086,1.527-3.271,1.527-1.837,0-3.284-.739-4.341-2.216-1.058-1.479-1.586-3.451-1.586-5.919,0-1.594.299-3.052.896-4.374.598-1.323,1.431-2.35,2.498-3.08,1.068-.73,2.261-1.096,3.578-1.096,1.361,0,2.573.404,3.636,1.212s1.887,1.968,2.474,3.478c.587,1.512.88,3.229.88,5.155v1.71c0,4.117-.905,7.335-2.714,9.654-1.811,2.318-4.375,3.5-7.695,3.544h-.481v-4.051h.315c1.837-.011,3.218-.487,4.143-1.428.924-.94,1.479-2.313,1.668-4.117Zm-2.075-2.158c.907,0,1.621-.62,2.142-1.859v-2.158c0-1.583-.216-2.825-.647-3.728-.432-.901-.99-1.353-1.677-1.353-.675,0-1.221.445-1.635,1.337-.416.891-.623,1.978-.623,3.262,0,1.395.216,2.493.647,3.295.432.803,1.029,1.204,1.793,1.204Z" fill="#231815"/></g><path d="m201.419,17.803c-1.122-.748-1.819-1.02-2.686-1.02-.986,0-2.108.663-2.941,1.785l-1.07-.715c1.206-1.75,2.601-2.635,4.097-2.635,1.189,0,2.039.272,3.28,1.055l.612.391c1.104.714,1.835,1.02,2.686,1.02,1.173,0,2.107-.629,2.924-1.784l1.088.696c-1.225,1.802-2.55,2.652-4.097,2.652-1.207,0-2.057-.238-3.298-1.054l-.595-.392Z" fill="#231815"/><polygon points="0 0 0 27 44 27 44 25 2 25 2 2 52 2 52 17 54 17 54 0 0 0" fill="#de6f1b"/><polygon points="30 42 30 69 74 69 74 67 32 67 32 44 82 44 82 59 84 59 84 42 30 42" fill="#de6f1b"/><polygon points="60 84 60 111 104 111 104 109 62 109 62 86 112 86 112 101 114 101 114 84 60 84" fill="#de6f1b"/><rect x="172" y="8" width="17" height="17" rx="8.246" ry="8.246" fill="#231815"/><rect x="243" y="8" width="17" height="17" rx="8.246" ry="8.246" fill="#231815"/><path d="m179.567,14.604c-.07.18-.109.29-.21.63-.5,1.799-1.439,3.277-2.798,4.407-.24-.28-.46-.479-.78-.689,1.38-1.01,2.319-2.349,2.729-3.938h-1.389c-.34,0-.79.03-.96.061v-1c.23.04.55.05,1,.05h1.039c.45,0,.729-.01.89-.039l.479.52Zm4.747-.66c-.079.08-.109.11-.159.16-.021.02-.07.08-.16.189-.689.771-1.249,1.3-1.989,1.899.819,1.18,1.76,2.019,2.919,2.608-.28.26-.48.51-.72.88-1.619-1.05-2.809-2.539-3.418-4.288.04.93.06,1.3.06,1.689v2.568c0,.71-.25.92-1.079.92-.36,0-.84-.03-1.25-.07-.029-.35-.09-.609-.229-.939.55.09.939.13,1.339.13.24,0,.301-.05.301-.26v-6.566c-.011-.39-.03-.76-.07-1.01h1.049c-.05.24-.069.64-.069,1.01v.689c.08.55.29,1.1.709,1.899.94-.79,1.68-1.63,1.919-2.179l.85.669Z" fill="#fff"/><path d="m252.007,14.563c.819,1.639,2.219,3.068,3.897,3.968-.31.319-.42.479-.64.869-1.659-1.089-2.878-2.448-3.628-4.018.04.39.061.81.061,1.159v2.988c0,.51.029.89.069,1.18h-1.079c.05-.31.07-.649.07-1.189v-2.969c0-.329.029-.849.05-1.129-.67,1.509-1.939,2.969-3.498,4.008-.16-.3-.43-.649-.63-.819,1.639-.96,3.038-2.469,3.768-4.048h-2.278c-.479,0-.77.02-1.14.06v-.979c.3.05.66.07,1.14.07h2.589v-.989c0-.37-.021-.63-.07-.899h1.079c-.05.249-.069.6-.069.899v.989h2.738c.51,0,.879-.021,1.149-.07v.979c-.33-.04-.72-.06-1.149-.06h-2.429Z" fill="#fff"/></g></g></svg>