<?xml version="1.0" encoding="UTF-8"?><svg id="_レイヤー_2" xmlns="http://www.w3.org/2000/svg" width="544" height="171.07" viewBox="0 0 544 171.07"><g id="_レイヤー_3"><g id="_レイヤー_2-2"><g><g><g><g><g><path d="m162.066,14.322c0-.911-.75-1.666-1.667-1.666h-10.38c-.914,0-1.66-.755-1.66-1.671V2.885c0-.913.746-1.669,1.66-1.669h36.504c.913,0,1.666.756,1.666,1.669v8.101c0,.916-.753,1.671-1.666,1.671h-10.38c-.914,0-1.66.755-1.66,1.666v41.66c0,.914-.75,1.664-1.667,1.664h-9.088c-.913,0-1.66-.75-1.66-1.664V14.322Z" fill="#231815"/><path d="m198.162,2.885c0-.911.75-1.666,1.662-1.666h32.312c.914,0,1.667.755,1.667,1.666v7.719c0,.911-.753,1.666-1.667,1.666h-19.977c-.918,0-1.664.756-1.664,1.667v8.106c0,.911.746,1.667,1.664,1.667h15.736c.916,0,1.664.755,1.664,1.669v7.71c0,.911-.748,1.664-1.664,1.664h-15.736c-.918,0-1.664.75-1.664,1.667v8.522c0,.907.746,1.666,1.664,1.666h20.381c.913,0,1.664.748,1.664,1.66v7.712c0,.914-.751,1.664-1.664,1.664h-32.716c-.913,0-1.662-.75-1.662-1.664V2.885Z" fill="#231815"/><path d="m301.508,2.885c0-.911.748-1.666,1.66-1.666h9.088c.914,0,1.664.755,1.664,1.666v19.005c0,.911.753,1.667,1.664,1.667h13.333c.914,0,1.664-.755,1.664-1.667V2.885c0-.911.75-1.666,1.664-1.666h9.088c.914,0,1.666.755,1.666,1.666v53.097c0,.914-.751,1.664-1.666,1.664h-9.088c-.914,0-1.664-.75-1.664-1.664v-19.321c0-.918-.75-1.664-1.664-1.664h-13.333c-.911,0-1.664.746-1.664,1.664v19.321c0,.914-.75,1.664-1.664,1.664h-9.088c-.913,0-1.66-.75-1.66-1.664V2.885Z" fill="#231815"/><path d="m243.363,29.338v-.158c0-16.038,11.22-29.181,27.302-29.181,9.312,0,15.103,3.149,19.803,7.854.285.269.54,1.185.014,1.889l-.099.106-5.03,6.239s-.37.638-.987.826c-.68.213-1.267.05-1.483-.132-3.857-3.333-6.95-5.33-11.907-5.33-8.828,0-14.74,8.036-14.74,17.719v.158c0,9.674,5.764,17.587,14.74,17.587,5.751,0,8.482-2.174,12.52-5.956.16-.153.677-.279.965-.184.559.184.814.54.814.54l5.576,6.067s.359.344.344.914c-.014.477-.259.833-.406.984-5.358,5.765-10.738,9.079-20.572,9.079-15.405,0-26.852-12.816-26.852-29.023" fill="#231815"/></g><g><path d="m119.059,29.243L96.282,2.583c-.736-.862-1.62-1.568-3.236-1.568h-13.705c-.684,0-1.074.935-.553,1.568l22.763,26.641-22.747,26.665c-.474.536-.187,1.568.559,1.568h13.701c1.598,0,2.497-.708,3.234-1.568l22.759-26.646h.002Z" fill="#00629d"/><path d="m140.596,1.017h-13.699c-1.535,0-2.196.387-2.934,1.249l-10.556,12.318,8.748,10.233,18.998-22.232c.534-.713.22-1.567-.555-1.567" fill="#231815"/><path d="m141.135,55.891l-18.981-22.222-8.746,10.24,10.608,12.355c.736.859,1.818,1.194,2.859,1.194h13.703c.729,0,1.064-.975.555-1.568" fill="#231815"/></g><path d="m24.616,15.814v26.62l.073,2.576h-4.584v-2.615H4.677v2.615H.062c.047-.991.071-1.851.071-2.576V15.814c0-.755-.024-1.6-.071-2.54h24.626c-.05.586-.073,1.431-.073,2.54m-4.511,1.502H4.677v8.151h15.427v-8.151Zm-15.427,21.056h15.427v-8.913H4.677v8.913Z" fill="#00629d"/><path d="m42.037,29.724v13.72c0,.77.024,1.306.073,1.603h-3.843c.028-.297.038-.833.038-1.603v-13.349c-1.664.2-3.048.335-4.141.409l-1.641.26-.408-3.84c.645.052,1.353.064,2.125.04l.897-.04c.869-.996,1.664-1.992,2.387-2.995-1.568-1.839-3.284-3.649-5.148-5.437l2.049-2.967,1.308,1.32c.744-1.034,1.44-2.129,2.087-3.326.649-1.154,1.079-2.07,1.303-2.753l3.246,2.115c-.123.12-.259.297-.406.534-.847,1.598-2.131,3.607-3.846,6.076.498.562.972,1.098,1.419,1.648,2.19-3.246,3.569-5.59,4.138-7.117l3.246,2.073-.484.573c-.6,1.011-1.332,2.167-2.2,3.487-.873,1.296-1.725,2.526-2.556,3.645-.836,1.136-1.551,2.075-2.144,2.818,1.888-.149,3.21-.274,3.951-.368-.297-1.015-.644-1.947-1.044-2.79l2.911-.819c.42.845.876,1.983,1.357,3.446.489,1.449.88,2.844,1.176,4.192l-3.241,1.005-.337-1.863-2.271.3-.002.002Zm-9.624,11.888c.42-1.234.762-2.667,1.024-4.289.26-1.617.418-3.357.468-5.217l3.279.595-.113.75c-.173,3.977-.684,7.233-1.529,9.77-1.22-.649-2.262-1.18-3.132-1.608m13.574-9.877c.274.873.559,2.068.854,3.598.302,1.534.538,3.052.708,4.563l-3.314.933c-.029-1.09-.16-2.427-.392-4.003-.238-1.581-.491-3.007-.765-4.27l2.911-.824-.002.002Zm18.682,8.876c1.171,0,1.992-.026,2.464-.076v4.029c-.448-.049-1.267-.076-2.464-.076h-15.885c-1.194,0-2.026.028-2.495.076v-4.029c.47.05,1.303.076,2.495.076h6.416v-4.697h-4.14c-1.022,0-1.742.014-2.164.038v-3.846c.422.024,1.142.036,2.164.036h4.14v-2.76l-.076-1.268c.547,0,1.301.019,2.254.056.961.04,1.638.083,2.035.132-.052.399-.073.76-.073,1.081v2.76h4.289c.992,0,1.716-.012,2.164-.036v3.846c-.448-.026-1.171-.038-2.164-.038h-4.289v4.697h5.33Zm-16.892-15.551c2.339-.383,4.487-.998,6.451-1.87-.595-.632-1.161-1.35-1.693-2.137-.538-.788-.987-1.568-1.364-2.346-.371-.772-.671-1.442-.895-2.07h-.22l-1.94.035v-3.682l1.94.036h12.155l.373-.432c1.267.918,2.439,1.882,3.506,2.934l-.522.25c-.222.68-.557,1.447-1.006,2.332-.446.883-1.018,1.777-1.716,2.687-.697.907-1.43,1.73-2.198,2.472,1.438.743,3.59,1.352,6.451,1.827-.6,1.438-1.095,2.726-1.492,3.838-1.666-.392-3.161-.833-4.492-1.301-1.331-.472-2.521-1.07-3.565-1.789-.77.515-1.764,1.038-2.982,1.544-1.218.519-2.908,1.051-5.073,1.624-.272-.748-.843-2.061-1.714-3.949m13.389-8.423h-6.902c.397.894.88,1.732,1.437,2.519.56.786,1.188,1.463,1.884,2.056.748-.595,1.43-1.277,2.052-2.073.618-.798,1.129-1.633,1.529-2.502" fill="#00629d"/></g><g><g><path d="m493.481,29.243l-22.778-26.66c-.736-.862-1.617-1.568-3.234-1.568h-13.705c-.682,0-1.072.935-.553,1.568l22.763,26.641-22.744,26.665c-.477.536-.187,1.568.553,1.568h13.705c1.6,0,2.498-.708,3.232-1.568l22.761-26.646h0Z" fill="#00629d"/><path d="m515.017,1.017h-13.699c-1.537,0-2.198.387-2.932,1.249l-10.556,12.318,8.748,10.233,18.998-22.232c.529-.713.215-1.567-.557-1.567" fill="#231815"/><path d="m515.552,55.891l-18.977-22.222-8.748,10.24,10.609,12.355c.732.859,1.817,1.194,2.858,1.194h13.705c.727,0,1.06-.975.55-1.568" fill="#231815"/></g><path d="m376.833,57.672c-.63,0-1.183-.232-1.65-.706-.47-.468-.708-1.046-.708-1.718V19.352c0-.684.238-1.239.708-1.718.468-.474,1.02-.715,1.65-.715h5.25c.677,0,1.282.226,1.818.684.541.448.854,1.005.946,1.686l.403,3.902c0,.094.057.139.168.139s.191-.024.238-.069c3.952-3.864,8.106-5.784,12.461-5.784,4.129,0,7.191,1.378,9.194,4.174,1.995,2.783,2.998,6.707,2.998,11.78v21.817c0,.673-.238,1.251-.708,1.718-.472.474-1.024.706-1.648.706h-7.545c-.628,0-1.178-.232-1.647-.706-.474-.468-.71-1.046-.71-1.718v-20.339c0-2.606-.359-4.41-1.079-5.42-.718-1.01-1.884-1.513-3.501-1.513-1.26,0-2.354.243-3.3.739-.942.491-2.044,1.345-3.3,2.561-.135.132-.201.291-.201.47v23.502c0,.673-.234,1.251-.706,1.718-.475.474-1.044.706-1.721.706h-7.408Z" fill="#231815"/><path d="m436.078,58.616c-5.79,0-10.559-1.839-14.31-5.521-3.751-3.682-5.621-8.69-5.621-15.02,0-3.099.526-5.961,1.582-8.586,1.05-2.625,2.443-4.811,4.171-6.543,1.732-1.725,3.708-3.059,5.928-4.034,2.221-.979,4.532-1.438,6.902-1.438,5.486,0,9.655,1.749,12.532,5.248,2.873,3.503,4.31,8.078,4.31,13.734,0,.94-.045,1.888-.135,2.83-.088.718-.406,1.293-.94,1.718-.538.429-1.149.638-1.818.638h-20.344c-.219,0-.311.111-.26.34,1.112,4.846,4.355,7.27,9.692,7.27,2.066,0,4.129-.446,6.196-1.345.585-.316,1.204-.373,1.851-.17.654.203,1.135.574,1.45,1.112l1.751,3.234c.314.581.392,1.201.239,1.851-.16.651-.533,1.154-1.112,1.516-3.822,2.11-7.837,3.161-12.06,3.161l-.002.003Zm-8.217-25.117c0,.134.09.201.274.201h12.724c.232,0,.342-.113.342-.335-.045-2.023-.571-3.617-1.589-4.785-1.006-1.169-2.549-1.751-4.605-1.751-1.752,0-3.286.557-4.587,1.685-1.704,1.48-2.559,3.144-2.559,4.985Z" fill="#231815"/><path d="m535.502,58.616c-4.757,0-8.262-1.352-10.507-4.072-2.245-2.717-3.369-6.524-3.369-11.414v-10.923c0-.177-.085-.267-.264-.267h-2.63c-.675,0-1.247-.238-1.714-.706-.47-.472-.711-1.043-.711-1.718v-4.304c0-.678.241-1.268.711-1.751.468-.508,1.041-.763,1.714-.807l3.3-.279c.227-.047.335-.165.335-.338l.028-3.715c.088-.684.394-1.26.911-1.686.515-.47,1.126-.685,1.848-.685h6.378c.671,0,1.247.224,1.714.715.47.46.708,1.015.708,1.655v3.715c0,.175.092.269.271.269h6.53c.675,0,1.247.246,1.718.701.474.489.706,1.051.706,1.718v4.792c0,.675-.234,1.246-.706,1.718-.47.468-1.043.706-1.718.706h-6.53c-.179,0-.271.09-.271.267v10.792c0,2.061.437,3.59,1.313,4.573.878.989,2.075,1.485,3.604,1.485.406,0,.831-.045,1.28-.135.625-.088,1.221.035,1.785.371.557.335.907.796,1.044,1.379l.94,4.176c.045.224.066.427.066.609,0,.449-.132.876-.401,1.277-.314.586-.807.94-1.48,1.077-2.157.541-4.358.807-6.603.807h0Z" fill="#231815"/></g></g><path d="m152.648,70.411v15.577h-2.318v-1.142h-8.045v1.182h-2.226v-15.615h12.589v-.002Zm-10.363,6.065h8.045v-3.892h-8.045v3.892Zm8.045,2.137h-8.045v4.056h8.045v-4.056Z" fill="#231815"/><path d="m160.227,80.225c-.182,1.702-.559,3.513-1.088,4.671-.376-.234-1.176-.611-1.646-.776.527-1.069.815-2.686.963-4.206l1.773.311h-.002Zm13.927-9.509c-.651,1.921-1.666,3.46-2.951,4.69,1.084.616,2.337,1.081,3.713,1.374-.449.42-1.032,1.234-1.317,1.744-1.527-.42-2.884-1.013-4.042-1.813-1.232.819-2.627,1.428-4.131,1.903-.234-.493-.722-1.287-1.142-1.74.345.782.633,1.556.746,2.139l-1.525.684c-.052-.269-.121-.578-.234-.918l-.921.069v7.408h-1.867v-7.278l-2.628.163-.18-1.865,1.308-.052c.267-.349.559-.748.848-1.164-.524-.776-1.393-1.737-2.136-2.46l1.031-1.471c.128.111.272.238.416.363.507-.996,1.015-2.191,1.324-3.149l1.867.687c-.652,1.227-1.374,2.625-2.028,3.642.234.252.434.507.612.723.616-1.015,1.197-2.046,1.617-2.936l1.752.819c-.999,1.572-2.243,3.404-3.385,4.872l1.738-.071c-.2-.46-.416-.907-.633-1.305l1.43-.6c.291.508.583,1.084.833,1.667,1.305-.35,2.516-.852,3.604-1.497-.848-.857-1.556-1.836-2.136-2.955l1.159-.383h-2.068v-1.844h7.499l.383-.092,1.447.651-.002-.003Zm-10.247,9.053c.451,1.036.918,2.358,1.123,3.262l-1.596.583c-.163-.906-.632-2.302-1.05-3.371l1.525-.474h-.002Zm6.77,4.082h3.964v1.884h-10.233v-1.884h4.148v-2.125h-3.078v-1.903h3.078v-2.153h2.122v2.153h3.222v1.903h-3.222v2.125h-.002Zm-2.951-11.848c.437.796,1.031,1.525,1.738,2.158.708-.633,1.303-1.362,1.775-2.158h-3.513Z" fill="#231815"/><path d="m186.352,72.387c-.017.036-.036.052-.054.092h3.64c.559,0,1.161-.092,1.575-.219l1.844,1.135c-.193.347-.453.854-.595,1.306-.491,1.612-1.522,4.027-3.151,6.052-1.721,2.099-3.916,3.765-7.316,5.108l-2.139-1.922c3.713-1.105,5.725-2.684,7.299-4.471,1.232-1.421,2.281-3.588,2.573-4.948h-5.09c-1.216,1.575-2.788,3.172-4.566,4.386l-2.026-1.506c3.17-1.938,4.743-4.28,5.651-5.833.271-.455.652-1.282.814-1.905l2.644.876c-.416.626-.887,1.444-1.103,1.848" fill="#231815"/><path d="m201.195,71.857h9.959c.453,0,1.138,0,1.789-.036-.033.543-.033,1.213-.033,1.761v8.871c0,.704.033,2.443.033,2.516h-2.495c0-.036.021-.453.021-.975h-8.734c.019.505.019.921.019.975h-2.498c0-.09.057-1.667.057-2.533v-8.855c0-.512,0-1.253-.038-1.761.739.021,1.43.036,1.921.036m.54,9.815h8.749v-7.511h-8.749v7.511Z" fill="#231815"/><path d="m231.371,73.506c-.614,1.409-1.631,3.352-2.845,4.978,1.792,1.558,3.987,3.878,5.056,5.182l-2.063,1.79c-1.183-1.627-2.863-3.473-4.568-5.12-1.917,2.025-4.327,3.911-6.812,5.085l-1.86-1.957c2.915-1.083,5.72-3.296,7.42-5.193,1.199-1.358,2.302-3.158,2.701-4.442h-6.14c-.762,0-1.756.108-2.137.128v-2.573c.488.071,1.596.125,2.137.125h6.395c.777,0,1.501-.108,1.867-.236l1.482,1.11c-.144.198-.47.756-.633,1.119" fill="#231815"/><path d="m240.089,75.517h11.864c.38,0,1.178-.038,1.65-.109v2.354c-.453-.036-1.143-.054-1.65-.054h-4.365c-.108,1.862-.508,3.387-1.159,4.655-.633,1.253-2.028,2.661-3.64,3.479l-2.122-1.539c1.287-.489,2.556-1.539,3.284-2.594.739-1.121,1.044-2.476,1.119-4.001h-4.981c-.541,0-1.23.04-1.735.075v-2.375c.54.054,1.173.109,1.735.109m2.301-4.617h7.282c.612,0,1.341-.036,1.955-.128v2.339c-.614-.038-1.322-.075-1.955-.075h-7.263c-.633,0-1.397.036-1.957.075v-2.339c.6.094,1.341.128,1.938.128" fill="#231815"/><path d="m263.352,78.995l-2.207.829c-.311-.975-1.211-3.388-1.652-4.178l2.176-.786c.451.93,1.324,3.116,1.685,4.136m8.77-2.45c-.474,1.834-1.232,3.716-2.467,5.307-1.683,2.177-3.947,3.699-6.065,4.495l-1.902-1.935c1.992-.526,4.509-1.902,6.01-3.787,1.234-1.541,2.103-3.952,2.318-6.218l2.537.819c-.217.581-.326.963-.43,1.32m-4.764,1.327l-2.176.76c-.217-.887-1.015-3.078-1.468-4.029l2.157-.699c.344.777,1.232,3.135,1.485,3.968" fill="#231815"/><path d="m285.907,72.387c-.019.036-.035.052-.05.092h3.643c.56,0,1.157-.092,1.572-.219l1.843,1.135c-.196.347-.449.854-.597,1.306-.484,1.612-1.522,4.027-3.144,6.052-1.721,2.099-3.918,3.765-7.32,5.108l-2.139-1.922c3.716-1.105,5.729-2.684,7.297-4.471,1.234-1.421,2.283-3.588,2.571-4.948h-5.089c-1.213,1.575-2.786,3.172-4.563,4.386l-2.028-1.506c3.168-1.938,4.745-4.28,5.653-5.833.271-.455.651-1.282.819-1.905l2.639.876c-.411.626-.887,1.444-1.105,1.848" fill="#231815"/></g><g><g><path d="m168.902,145.71c.531,0,.982.187,1.352.555.37.371.553.821.553,1.35v21.602c0,.494-.184.926-.553,1.299-.371.37-.822.553-1.352.553h-4.395c-.531,0-.977-.175-1.348-.527-.373-.354-.557-.796-.557-1.327,0-.179-.071-.264-.21-.264h-15.887c-.142,0-.213.087-.213.264,0,.494-.175.918-.526,1.272-.356.352-.798.529-1.329.529h-4.183c-.527,0-.979-.184-1.348-.557-.371-.37-.555-.802-.555-1.294v-12.391c0-.141-.071-.179-.213-.108-2.714,1.483-5.767,2.861-9.161,4.131-.491.177-.985.167-1.478-.028-.498-.193-.887-.538-1.168-1.034-.774-1.445-1.608-2.752-2.486-3.916-.213-.248-.321-.512-.321-.796,0-.106.019-.229.054-.371.139-.423.403-.706.793-.847,6.036-1.94,11.489-4.66,16.364-8.154.104-.104.104-.21,0-.317-1.452-1.553-3.761-3.652-6.938-6.301-.142-.106-.265-.106-.37,0-1.168.847-2.403,1.697-3.708,2.542-.46.285-.937.363-1.431.239-.489-.123-.9-.399-1.216-.821-.918-1.237-1.941-2.384-3.069-3.442-.285-.246-.423-.564-.423-.953,0-.531.227-.918.687-1.166,6.747-3.812,11.895-8.685,15.464-14.614.281-.462.67-.814,1.168-1.06.352-.177.718-.264,1.11-.264.142,0,.302.021.475.052l5.139,1.008c.455.106.782.361.977.765.196.406.168.805-.078,1.194-.389.635-.847,1.341-1.381,2.118-.104.139-.071.21.111.21h10.219c.104,0,.21-.016.317-.05.285-.071.562-.108.847-.108.46,0,.914.108,1.378.319l2.701,1.428c.491.283.835.671,1.036,1.166.187.494.18.987-.033,1.483-2.469,6.178-6.017,11.668-10.639,16.467-.038.035-.045.069-.029.104.019.036.042.054.082.054h15.778l-.005.005Zm-15.46-13.713c.071-.142.033-.213-.111-.213h-11.593c-.142,0-.262.054-.373.16-.389.425-.932.991-1.64,1.695-.106.104-.09.194.052.265,3.104,2.294,5.559,4.272,7.358,5.928.111.142.213.142.321,0,2.403-2.434,4.398-5.045,5.984-7.835h.002Zm-7.152,29.652c0,.141.071.212.213.212h15.887c.139,0,.21-.071.21-.212v-8.576c0-.177-.071-.265-.21-.265h-15.887c-.142,0-.213.088-.213.265v8.576Z" fill="#231815"/><path d="m228.155,134.327c0,.529-.187.979-.559,1.35-.37.37-.803.553-1.294.553h-18.587c-.142,0-.213.071-.213.213v8.153c0,.179.071.265.213.265h13.236c.531,0,.98.177,1.352.529.37.354.557.796.557,1.326v22.185c0,.494-.187.925-.557,1.298-.371.37-.822.555-1.352.555h-4.974c-.494,0-.921-.177-1.272-.529-.356-.352-.531-.777-.531-1.272,0-.177-.071-.262-.213-.262h-22.081c-.142,0-.21.087-.21.262v.16c0,.493-.184.926-.555,1.298-.373.37-.822.557-1.352.557h-4.448c-.531,0-.979-.187-1.352-.557-.37-.371-.55-.805-.55-1.298v-22.397c0-.529.18-.972.55-1.326.375-.35.822-.529,1.352-.529h13.29c.142,0,.213-.088.213-.265v-8.153c0-.142-.071-.213-.213-.213h-18.637c-.494,0-.928-.184-1.299-.553-.37-.373-.553-.822-.553-1.35v-3.919c0-.529.184-.979.553-1.35.371-.371.805-.555,1.299-.555h18.637c.142,0,.213-.071.213-.213v-6.829c0-.533.187-.982.557-1.35.368-.371.815-.557,1.348-.557h4.872c.531,0,.98.186,1.352.557.371.368.552.819.552,1.35v6.829c0,.142.071.213.213.213h18.587c.491,0,.925.184,1.294.555.371.371.559.822.559,1.35v3.919h.003Zm-14.246,26.899c.175,0,.265-.088.265-.265v-8.418c0-.141-.092-.212-.265-.212h-22.027c-.142,0-.21.071-.21.212v8.418c0,.177.068.265.21.265h22.027Z" fill="#231815"/><path d="m265.909,163.61c0,.141.068.212.21.212h13.821c.529,0,.98.182,1.352.553.37.371.553.821.553,1.35v2.332c0,.529-.184.979-.553,1.348-.371.371-.824.555-1.352.555h-35.317c-.531,0-.972-.184-1.324-.555s-.531-.821-.531-1.348v-2.332c0-.531.179-.979.531-1.35s.793-.553,1.324-.553h13.396c.139,0,.21-.071.21-.212v-2.12c0-.142-.071-.213-.21-.213h-9.954c-.531,0-.979-.182-1.348-.552-.375-.373-.555-.824-.555-1.352v-2.33c0-.531.18-.979.555-1.35.37-.371.819-.555,1.348-.555h9.954c.139,0,.21-.071.21-.212v-1.851c0-.177-.071-.265-.21-.265l-10.745.474c-.534.035-.984-.121-1.355-.474-.37-.354-.573-.795-.609-1.326l-.104-2.276c0-.493.168-.933.501-1.322.335-.389.769-.585,1.299-.585l3.338-.052c.135,0,.246-.069.317-.212.597-1.024,1.055-1.836,1.372-2.436.108-.141.071-.212-.104-.212h-6.461c-.139,0-.232.09-.264.264-.213,4.768-.751,9.293-1.619,13.583-.861,4.289-2.177,8.04-3.942,11.251-.25.425-.618.687-1.11.793h-.371c-.356,0-.692-.106-1.01-.317-1.199-.777-2.469-1.499-3.81-2.17-.423-.213-.725-.547-.9-1.006-.033-.175-.054-.354-.054-.529,0-.285.071-.564.213-.848,1.057-1.905,1.931-4.039,2.62-6.406.685-2.363,1.185-4.853,1.482-7.466.3-2.613.494-4.898.585-6.857.085-1.959.132-4.176.132-6.647v-14.192c0-.529.184-.97.553-1.322.371-.352.822-.531,1.352-.531h38.284c.531,0,.979.177,1.348.531.37.352.555.793.555,1.322v10.91c0,.496-.186.926-.555,1.296-.37.371-.819.557-1.348.557h-31.984c-.142,0-.213.087-.213.264v1.164c0,.177.071.264.213.264h33.358c.531,0,.972.184,1.327.557.349.37.527.805.527,1.296v2.384c0,.529-.179.973-.527,1.324-.356.352-.796.529-1.327.529h-4.079c-.036,0-.061.028-.078.08-.019.054-.01.082.029.082,2.327,1.837,4.199,3.458,5.609,4.872.352.352.484.767.397,1.244-.087.475-.342.855-.765,1.138l-3.387,2.065c-.463.248-.954.328-1.483.236-.531-.087-.972-.323-1.324-.713-.285-.35-.583-.687-.9-1.006-.111-.106-.246-.158-.427-.158l-6.459.264c-.142,0-.21.09-.21.264v2.172c0,.141.068.212.21.212h10.165c.494,0,.925.184,1.298.555.371.371.559.821.559,1.35v2.33c0,.529-.187.979-.559,1.352-.373.37-.803.552-1.298.552h-10.165c-.142,0-.21.071-.21.213v2.12l.002.002Zm5.611-35.107c0-.177-.071-.264-.213-.264h-25.679c-.142,0-.213.087-.213.264v1.589c0,.141.071.212.213.212h25.679c.142,0,.213-.071.213-.212v-1.589Zm-4.768,16.045c.038-.035.052-.071.052-.106s-.014-.054-.052-.054h-5.665c-.139,0-.264.071-.368.212-.711.954-1.256,1.695-1.643,2.226-.071.139-.036.193.108.158l7.412-.213c.036,0,.059-.026.078-.078.017-.052.007-.08-.026-.08-.356-.283-.512-.642-.479-1.086.04-.441.234-.767.583-.979h0Z" fill="#231815"/><path d="m295.673,165.938c-.531,0-.979-.184-1.348-.557-.375-.37-.555-.821-.555-1.348v-1.749c0-1.234.456-2.276,1.374-3.123,5.156-4.731,9.018-8.772,11.597-12.126,2.578-3.354,3.867-6.334,3.867-8.947,0-1.836-.47-3.248-1.405-4.237-.932-.985-2.212-1.482-3.836-1.482-1.799,0-3.64.864-5.509,2.594-.389.352-.838.529-1.352.529s-.942-.177-1.294-.529l-2.597-2.543c-.389-.387-.579-.835-.579-1.348s.191-.944.579-1.298c1.801-1.693,3.64-2.937,5.509-3.732,1.87-.796,4.06-1.194,6.567-1.194,3.918,0,7.103,1.157,9.558,3.47,2.452,2.313,3.678,5.375,3.678,9.187,0,5.684-4.006,12.568-12.018,20.65,0,.035.007.071.024.106.023.036.047.052.078.052,2.58-.352,4.679-.531,6.307-.531h5.557c.531,0,.972.186,1.324.557.356.37.531.821.531,1.35v4.341c0,.529-.175.98-.531,1.348-.352.373-.793.557-1.324.557h-24.198l-.003.003Z" fill="#f18d1e"/><path d="m351.402,161.198c-2.597,3.654-6.071,5.481-10.429,5.481s-7.832-1.827-10.408-5.481c-2.575-3.654-3.864-8.867-3.864-15.648s1.277-11.923,3.839-15.438c2.559-3.51,6.027-5.267,10.403-5.267s7.859,1.775,10.457,5.323c2.594,3.548,3.892,8.675,3.892,15.381,0,6.779-1.298,11.994-3.892,15.648l.002.002Zm-12.495-2.594c.583.404,1.261.609,2.039.609s1.456-.203,2.035-.609c.585-.404,1.135-1.095,1.645-2.065.512-.97.904-2.373,1.162-4.209.267-1.837.399-4.095.399-6.779,0-2.646-.13-4.879-.399-6.697-.259-1.818-.651-3.187-1.162-4.103-.51-.918-1.06-1.561-1.645-1.933-.579-.37-1.26-.555-2.035-.555s-1.449.186-2.013.555c-.562.371-1.093,1.015-1.587,1.933-.498.916-.876,2.285-1.138,4.103-.267,1.818-.397,4.051-.397,6.697,0,2.684.13,4.943.397,6.779.262,1.836.633,3.239,1.114,4.209.475.972,1.003,1.66,1.587,2.065h-.002Z" fill="#f18d1e"/><path d="m361.645,165.938c-.527,0-.979-.184-1.348-.557-.37-.37-.555-.821-.555-1.348v-1.749c0-1.234.46-2.276,1.378-3.123,5.153-4.731,9.02-8.772,11.597-12.126,2.575-3.354,3.866-6.334,3.866-8.947,0-1.836-.467-3.248-1.404-4.237-.935-.985-2.212-1.482-3.839-1.482-1.799,0-3.636.864-5.507,2.594-.389.352-.836.529-1.348.529s-.944-.177-1.299-.529l-2.594-2.543c-.389-.387-.583-.835-.583-1.348s.194-.944.583-1.298c1.801-1.693,3.636-2.937,5.509-3.732,1.872-.796,4.056-1.194,6.565-1.194,3.918,0,7.105,1.157,9.56,3.47,2.448,2.313,3.68,5.375,3.68,9.187,0,5.684-4.011,12.568-12.023,20.65,0,.035.01.071.029.106.017.036.042.052.078.052,2.575-.352,4.677-.531,6.301-.531h5.561c.527,0,.968.186,1.324.557.352.37.531.821.531,1.35v4.341c0,.529-.179.98-.531,1.348-.356.373-.796.557-1.324.557h-24.201l-.004.003Z" fill="#f18d1e"/><path d="m405.594,166.679c-5.221,0-9.404-1.43-12.546-4.291-.423-.387-.637-.881-.637-1.482,0-.533.16-.989.475-1.378l2.224-3.019c.285-.423.668-.652,1.166-.685.491-.036.933.087,1.32.368,2.295,1.803,4.625,2.703,6.992,2.703,1.908,0,3.416-.397,4.528-1.192,1.107-.795,1.666-1.934,1.666-3.416,0-1.73-.592-3.045-1.775-3.945-1.182-.9-3.394-1.421-6.643-1.563-.529-.035-.979-.227-1.352-.581-.37-.352-.553-.796-.553-1.326v-3.017c0-.529.184-.98.553-1.35.375-.371.824-.571,1.352-.611,2.576-.175,4.412-.703,5.509-1.588,1.097-.881,1.64-2.099,1.64-3.654,0-1.376-.389-2.434-1.166-3.177-.776-.739-1.921-1.11-3.44-1.11-1.872,0-3.775.723-5.718,2.17-.423.317-.89.449-1.402.397-.514-.052-.925-.272-1.246-.661l-2.488-3.019c-.356-.39-.505-.838-.453-1.35.054-.512.291-.926.715-1.246,3.494-2.542,7.185-3.812,11.069-3.812,4.232,0,7.594.963,10.089,2.887,2.488,1.922,3.732,4.669,3.732,8.234,0,4.131-2.137,7.077-6.407,8.843-.071.036-.106.097-.106.186,0,.087.036.149.106.184,2.327.706,4.19,1.888,5.587,3.546,1.391,1.66,2.091,3.723,2.091,6.196,0,2.436-.689,4.563-2.066,6.38-1.372,1.82-3.177,3.17-5.396,4.053-2.228.881-4.697,1.324-7.419,1.324h0Z" fill="#f18d1e"/></g><rect y="100.788" width="544" height="4.917" fill="#f18d1e"/></g></g></g></g></svg>