<svg id="グループ_154" data-name="グループ 154" xmlns="http://www.w3.org/2000/svg" width="234.623" height="24" viewBox="0 0 234.623 24">
  <defs>
    <style>
      .cls-1 {
        fill: #231815;
      }

      .cls-2 {
        fill: #f18d1e;
      }

      .cls-3 {
        fill: #00629d;
      }
    </style>
  </defs>
  <g id="グループ_146" data-name="グループ 146" transform="translate(159.761 0.36)">
    <g id="グループ_145" data-name="グループ 145">
      <path id="パス_231" data-name="パス 231" class="cls-1" d="M342.729,7.356a.479.479,0,0,1,.481.481v5.446a.451.451,0,0,1-.14.327.463.463,0,0,1-.341.14h-1.108a.474.474,0,0,1-.34-.133.44.44,0,0,1-.14-.334c0-.044-.018-.067-.053-.067h-4.005c-.036,0-.053.023-.053.067a.439.439,0,0,1-.133.321.454.454,0,0,1-.334.133h-1.054a.464.464,0,0,1-.341-.14.448.448,0,0,1-.14-.327V10.146c0-.035-.018-.045-.053-.027a18.193,18.193,0,0,1-2.309,1.042.513.513,0,0,1-.374-.007.57.57,0,0,1-.294-.26,7.557,7.557,0,0,0-.627-.988.3.3,0,0,1-.08-.2.4.4,0,0,1,.013-.094.321.321,0,0,1,.2-.213,14.8,14.8,0,0,0,4.125-2.056.05.05,0,0,0,0-.08,20.4,20.4,0,0,0-1.749-1.588.064.064,0,0,0-.094,0q-.44.32-.935.641a.453.453,0,0,1-.36.06.537.537,0,0,1-.307-.207,6.466,6.466,0,0,0-.774-.868.3.3,0,0,1-.107-.241.311.311,0,0,1,.174-.293,10.393,10.393,0,0,0,3.9-3.685.713.713,0,0,1,.294-.267.611.611,0,0,1,.28-.067.64.64,0,0,1,.121.014l1.295.253a.349.349,0,0,1,.247.193.292.292,0,0,1-.02.3q-.147.24-.348.534c-.027.035-.018.053.027.053h2.576a.257.257,0,0,0,.08-.013.876.876,0,0,1,.214-.027.828.828,0,0,1,.347.08l.681.36a.585.585,0,0,1,.261.294.475.475,0,0,1-.008.374,12.758,12.758,0,0,1-2.682,4.152.021.021,0,0,0-.007.027.019.019,0,0,0,.02.013h3.978Zm-3.9-3.457c.018-.035.008-.053-.027-.053h-2.923a.13.13,0,0,0-.094.04q-.147.161-.414.428c-.026.027-.023.049.013.067a22.892,22.892,0,0,1,1.856,1.495c.027.036.054.036.08,0A9.514,9.514,0,0,0,338.831,3.9Zm-1.8,7.476a.047.047,0,0,0,.053.053h4.005a.047.047,0,0,0,.053-.053V9.212c0-.045-.018-.067-.053-.067h-4.005c-.036,0-.053.022-.053.067Z" transform="translate(-331.29 -0.747)"/>
      <path id="パス_232" data-name="パス 232" class="cls-1" d="M372.442,4.5a.465.465,0,0,1-.14.34.448.448,0,0,1-.327.14h-4.685a.047.047,0,0,0-.053.054V7.092q0,.067.053.067h3.337a.477.477,0,0,1,.34.133.444.444,0,0,1,.14.334v5.593a.451.451,0,0,1-.14.327.462.462,0,0,1-.34.14h-1.255a.454.454,0,0,1-.454-.454q0-.067-.054-.067H363.3c-.036,0-.053.022-.053.067v.041a.45.45,0,0,1-.14.327.465.465,0,0,1-.34.14h-1.121a.466.466,0,0,1-.34-.14.449.449,0,0,1-.14-.327V7.626a.444.444,0,0,1,.14-.334.477.477,0,0,1,.34-.133h3.351c.035,0,.053-.022.053-.067V5.036a.047.047,0,0,0-.053-.054h-4.7a.449.449,0,0,1-.327-.14.465.465,0,0,1-.14-.34V3.514a.464.464,0,0,1,.14-.34.451.451,0,0,1,.327-.14h4.7a.047.047,0,0,0,.053-.054V1.258a.478.478,0,0,1,.481-.48h1.228a.478.478,0,0,1,.48.48V2.98a.047.047,0,0,0,.053.054h4.685a.451.451,0,0,1,.327.14.464.464,0,0,1,.14.34Zm-3.591,6.781a.059.059,0,0,0,.067-.067V9.094c0-.036-.023-.054-.067-.054H363.3a.047.047,0,0,0-.053.054v2.122c0,.045.017.067.053.067Z" transform="translate(-346.065 -0.763)"/>
      <path id="パス_233" data-name="パス 233" class="cls-1" d="M396.653,12.544a.047.047,0,0,0,.053.053h3.484a.479.479,0,0,1,.481.481v.587a.479.479,0,0,1-.481.481h-8.9a.442.442,0,0,1-.333-.14.475.475,0,0,1-.134-.34v-.587a.474.474,0,0,1,.134-.34.441.441,0,0,1,.333-.14h3.378a.047.047,0,0,0,.053-.053V12.01a.047.047,0,0,0-.053-.054h-2.51a.478.478,0,0,1-.481-.48v-.587a.479.479,0,0,1,.481-.481h2.51a.047.047,0,0,0,.053-.053V9.888c0-.045-.018-.067-.053-.067l-2.71.12a.43.43,0,0,1-.34-.12.486.486,0,0,1-.153-.334l-.027-.574a.5.5,0,0,1,.127-.334.413.413,0,0,1,.327-.147l.841-.014a.086.086,0,0,0,.08-.053q.227-.387.347-.614.04-.054-.027-.054H391.5c-.036,0-.058.023-.067.067a22.308,22.308,0,0,1-.407,3.424,9.977,9.977,0,0,1-.994,2.837.412.412,0,0,1-.281.2h-.093a.456.456,0,0,1-.254-.08,10.031,10.031,0,0,0-.961-.548.454.454,0,0,1-.227-.254.657.657,0,0,1-.013-.133.471.471,0,0,1,.054-.213,7.8,7.8,0,0,0,.661-1.615A11.351,11.351,0,0,0,389.29,9.5q.114-.988.147-1.729t.033-1.676V2.519a.441.441,0,0,1,.14-.334.474.474,0,0,1,.341-.133H399.6a.476.476,0,0,1,.34.133.443.443,0,0,1,.14.334v2.75a.451.451,0,0,1-.14.327.465.465,0,0,1-.34.14H391.54c-.036,0-.054.022-.054.067V6.1c0,.045.018.067.054.067h8.41a.443.443,0,0,1,.334.14.459.459,0,0,1,.133.327v.6a.456.456,0,0,1-.467.467h-1.028c-.009,0-.015.007-.02.02s0,.02.007.02a16.438,16.438,0,0,1,1.415,1.228.335.335,0,0,1,.1.313.428.428,0,0,1-.193.287l-.854.521a.571.571,0,0,1-.374.06.565.565,0,0,1-.333-.18,3.156,3.156,0,0,0-.227-.254.145.145,0,0,0-.107-.04l-1.628.067c-.036,0-.053.022-.053.067v.548a.047.047,0,0,0,.053.053h2.563a.451.451,0,0,1,.327.14.465.465,0,0,1,.14.34v.587a.465.465,0,0,1-.14.34.448.448,0,0,1-.327.14h-2.563a.047.047,0,0,0-.053.054v.534Zm1.415-8.851c0-.044-.018-.067-.053-.067H391.54c-.036,0-.054.023-.054.067v.4a.047.047,0,0,0,.054.054h6.474a.047.047,0,0,0,.053-.054Zm-1.2,4.045a.037.037,0,0,0,.013-.027.012.012,0,0,0-.013-.013h-1.428a.114.114,0,0,0-.093.054q-.268.36-.414.56c-.018.036-.009.049.027.04l1.869-.053c.009,0,.015-.007.02-.02s0-.02-.007-.02a.32.32,0,0,1,.027-.52Z" transform="translate(-360.757 -1.423)"/>
      <path id="パス_234" data-name="パス 234" class="cls-2" d="M420.769,13.9a.478.478,0,0,1-.48-.481v-.44a1.03,1.03,0,0,1,.347-.788,25.622,25.622,0,0,0,2.923-3.056,3.891,3.891,0,0,0,.975-2.256,1.5,1.5,0,0,0-.354-1.068,1.268,1.268,0,0,0-.968-.373,2.083,2.083,0,0,0-1.388.653.488.488,0,0,1-.34.134.446.446,0,0,1-.327-.134l-.654-.64a.467.467,0,0,1-.147-.34.427.427,0,0,1,.147-.327,4.77,4.77,0,0,1,1.388-.941,4.206,4.206,0,0,1,1.656-.3,3.371,3.371,0,0,1,2.41.875,3.035,3.035,0,0,1,.928,2.316q0,2.15-3.03,5.206a.057.057,0,0,0,.007.027.02.02,0,0,0,.02.013,12.15,12.15,0,0,1,1.589-.133h1.4a.44.44,0,0,1,.333.14.473.473,0,0,1,.134.34v1.095a.478.478,0,0,1-.134.341.443.443,0,0,1-.333.14h-6.1Z" transform="translate(-377.37 -2.195)"/>
      <path id="パス_235" data-name="パス 235" class="cls-2" d="M443.734,12.709a3.187,3.187,0,0,1-5.253,0,6.785,6.785,0,0,1-.975-3.945,6.562,6.562,0,0,1,.968-3.892,3.258,3.258,0,0,1,5.26.014,6.508,6.508,0,0,1,.981,3.878,6.754,6.754,0,0,1-.981,3.945Zm-3.15-.654a.937.937,0,0,0,1.028,0,1.433,1.433,0,0,0,.414-.52,3.375,3.375,0,0,0,.293-1.061,12.206,12.206,0,0,0,.1-1.709,11.945,11.945,0,0,0-.1-1.689,3.128,3.128,0,0,0-.293-1.035,1.328,1.328,0,0,0-.414-.488.94.94,0,0,0-.514-.14.907.907,0,0,0-.507.14,1.308,1.308,0,0,0-.4.488,3.239,3.239,0,0,0-.287,1.035,11.936,11.936,0,0,0-.1,1.689,12.2,12.2,0,0,0,.1,1.709,3.693,3.693,0,0,0,.28,1.061,1.334,1.334,0,0,0,.4.52Z" transform="translate(-386.285 -2.196)"/>
      <path id="パス_236" data-name="パス 236" class="cls-2" d="M455.26,13.9a.478.478,0,0,1-.48-.481v-.44a1.03,1.03,0,0,1,.347-.788,25.635,25.635,0,0,0,2.923-3.056,3.891,3.891,0,0,0,.975-2.256,1.5,1.5,0,0,0-.353-1.068,1.268,1.268,0,0,0-.968-.373,2.083,2.083,0,0,0-1.388.653.488.488,0,0,1-.34.134.445.445,0,0,1-.327-.134l-.654-.64a.467.467,0,0,1-.147-.34.427.427,0,0,1,.147-.327,4.769,4.769,0,0,1,1.388-.941,4.2,4.2,0,0,1,1.656-.3,3.37,3.37,0,0,1,2.41.875,3.035,3.035,0,0,1,.928,2.316q0,2.15-3.03,5.206a.057.057,0,0,0,.007.027.02.02,0,0,0,.02.013,12.15,12.15,0,0,1,1.589-.133h1.4a.441.441,0,0,1,.333.14.473.473,0,0,1,.134.34v1.095a.478.478,0,0,1-.134.341.443.443,0,0,1-.333.14h-6.1Z" transform="translate(-395.229 -2.195)"/>
      <path id="パス_237" data-name="パス 237" class="cls-2" d="M475.184,14.093a4.522,4.522,0,0,1-3.164-1.081.484.484,0,0,1-.16-.374.531.531,0,0,1,.12-.347l.56-.76a.367.367,0,0,1,.294-.174.488.488,0,0,1,.334.094,2.841,2.841,0,0,0,1.762.68,1.929,1.929,0,0,0,1.141-.3.994.994,0,0,0,.421-.861,1.173,1.173,0,0,0-.448-.994,3.161,3.161,0,0,0-1.675-.394.527.527,0,0,1-.34-.147.443.443,0,0,1-.14-.334V8.34a.464.464,0,0,1,.14-.34.515.515,0,0,1,.34-.153,2.524,2.524,0,0,0,1.388-.4,1.119,1.119,0,0,0,.414-.921,1.056,1.056,0,0,0-.294-.8,1.213,1.213,0,0,0-.868-.28,2.417,2.417,0,0,0-1.442.547.489.489,0,0,1-.354.1.447.447,0,0,1-.313-.167l-.627-.761a.417.417,0,0,1-.113-.34.433.433,0,0,1,.18-.313,4.667,4.667,0,0,1,2.79-.961,4.057,4.057,0,0,1,2.543.728,2.469,2.469,0,0,1,.941,2.076A2.294,2.294,0,0,1,477,8.581a.055.055,0,0,0,0,.094,2.884,2.884,0,0,1,1.409.894,2.348,2.348,0,0,1,.527,1.562,2.587,2.587,0,0,1-.52,1.608,3.106,3.106,0,0,1-1.361,1.021,5.023,5.023,0,0,1-1.869.334Z" transform="translate(-404.072 -2.197)"/>
    </g>
    <rect id="長方形_194" data-name="長方形 194" class="cls-2" width="74.783" height="1.162" transform="translate(0.052 14.443)"/>
  </g>
  <g id="グループ_153" data-name="グループ 153">
    <g id="グループ_152" data-name="グループ 152">
      <g id="グループ_149" data-name="グループ 149">
        <g id="グループ_147" data-name="グループ 147" transform="translate(41.219)">
          <path id="パス_238" data-name="パス 238" class="cls-1" d="M89.285,4.344a.465.465,0,0,0-.463-.463H85.936a.465.465,0,0,1-.462-.464V1.164A.465.465,0,0,1,85.936.7H96.083a.466.466,0,0,1,.462.463V3.416a.466.466,0,0,1-.462.464H93.2a.464.464,0,0,0-.462.463v11.58a.463.463,0,0,1-.463.462H89.747a.463.463,0,0,1-.461-.462V4.344Z" transform="translate(-85.475 -0.363)"/>
          <path id="パス_239" data-name="パス 239" class="cls-1" d="M114.18,1.165A.465.465,0,0,1,114.642.7h8.981a.465.465,0,0,1,.463.462V3.311a.466.466,0,0,1-.463.463h-5.552a.465.465,0,0,0-.462.463V6.491a.465.465,0,0,0,.462.463h4.374a.464.464,0,0,1,.462.463V9.561a.464.464,0,0,1-.462.462h-4.374a.464.464,0,0,0-.462.463v2.369a.465.465,0,0,0,.462.462h5.665a.464.464,0,0,1,.462.462v2.144a.464.464,0,0,1-.462.462h-9.094a.464.464,0,0,1-.462-.462Z" transform="translate(-100.337 -0.364)"/>
          <path id="パス_240" data-name="パス 240" class="cls-1" d="M173.747,1.165A.464.464,0,0,1,174.209.7h2.525a.465.465,0,0,1,.462.462V6.448a.466.466,0,0,0,.462.463h3.707a.466.466,0,0,0,.463-.463V1.165A.464.464,0,0,1,182.29.7h2.526a.466.466,0,0,1,.463.462V15.924a.464.464,0,0,1-.463.462H182.29a.463.463,0,0,1-.462-.462V10.554a.464.464,0,0,0-.463-.462h-3.707a.464.464,0,0,0-.462.462v5.371a.463.463,0,0,1-.462.462h-2.525a.463.463,0,0,1-.462-.462Z" transform="translate(-131.179 -0.364)"/>
          <path id="パス_241" data-name="パス 241" class="cls-1" d="M140.233,8.155V8.11c0-4.458,3.119-8.11,7.589-8.11a7.189,7.189,0,0,1,5.5,2.183.439.439,0,0,1,0,.525l-.028.03-1.4,1.734a.549.549,0,0,1-.274.229.475.475,0,0,1-.412-.037,4.7,4.7,0,0,0-3.31-1.481c-2.453,0-4.1,2.234-4.1,4.925v.044c0,2.689,1.6,4.888,4.1,4.888a4.508,4.508,0,0,0,3.48-1.656.345.345,0,0,1,.268-.051.473.473,0,0,1,.226.149l1.55,1.686a.357.357,0,0,1,.1.254.422.422,0,0,1-.113.273A6.964,6.964,0,0,1,147.7,16.22c-4.282,0-7.464-3.562-7.464-8.066" transform="translate(-113.827)"/>
        </g>
        <g id="グループ_148" data-name="グループ 148" transform="translate(21.815 0.282)">
          <path id="パス_242" data-name="パス 242" class="cls-3" d="M56.5,8.431,50.167,1.02a1.088,1.088,0,0,0-.9-.435H45.459a.259.259,0,0,0-.154.435l6.326,7.4-6.322,7.412c-.132.148-.052.435.155.435h3.809a1.1,1.1,0,0,0,.9-.435L56.5,8.431Z" transform="translate(-45.238 -0.585)"/>
          <path id="パス_243" data-name="パス 243" class="cls-1" d="M72.886.586H69.078a.9.9,0,0,0-.815.347L65.329,4.357,67.76,7.2l5.28-6.179c.149-.2.062-.435-.154-.435" transform="translate(-55.64 -0.586)"/>
          <path id="パス_244" data-name="パス 244" class="cls-1" d="M73.037,25.583l-5.275-6.177-2.431,2.846,2.948,3.434a1.023,1.023,0,0,0,.794.332h3.809a.258.258,0,0,0,.154-.435" transform="translate(-55.641 -10.33)"/>
        </g>
        <path id="パス_245" data-name="パス 245" class="cls-3" d="M6.825,8.356v7.4l.021.716H5.571v-.727H1.283v.727H0c.013-.275.02-.515.02-.716v-7.4c0-.209-.007-.445-.02-.706H6.845q-.021.244-.021.706m-1.254.417H1.283V11.04H5.571V8.774ZM1.283,14.627H5.571V12.149H1.283Z" transform="translate(0 -3.961)"/>
        <path id="パス_246" data-name="パス 246" class="cls-3" d="M21.232,11.474v3.814a3.133,3.133,0,0,0,.021.445H20.184c.008-.082.01-.231.01-.445v-3.71q-.694.083-1.151.114l-.456.072L18.474,10.7a5.556,5.556,0,0,0,.591.012l.249-.012q.362-.415.664-.832a20.8,20.8,0,0,0-1.431-1.511l.57-.825.364.367a8.554,8.554,0,0,0,.58-.924,4.658,4.658,0,0,0,.362-.765l.9.588a.819.819,0,0,0-.113.149,17.479,17.479,0,0,1-1.069,1.689c.139.156.271.305.394.458a11.259,11.259,0,0,0,1.151-1.978l.9.576-.135.159c-.166.281-.37.6-.611.969s-.479.7-.71,1.013-.431.577-.6.784c.525-.041.892-.076,1.1-.1a5.216,5.216,0,0,0-.291-.775l.809-.228a7.333,7.333,0,0,1,.378.958,11.251,11.251,0,0,1,.327,1.165l-.9.28-.093-.518-.632.083ZM18.557,14.78a7.371,7.371,0,0,0,.285-1.193,11.086,11.086,0,0,0,.131-1.45l.911.165-.031.208a10.173,10.173,0,0,1-.424,2.716c-.339-.18-.629-.328-.87-.447m3.773-2.745a9.589,9.589,0,0,1,.237,1q.127.639.2,1.268l-.922.259a9.314,9.314,0,0,0-.109-1.113c-.066-.439-.136-.836-.212-1.187l.809-.229ZM27.524,14.5q.488,0,.685-.021V15.6c-.125-.014-.352-.021-.685-.021H23.108c-.332,0-.564.008-.693.021V14.48q.2.021.693.021h1.783V13.2H23.741q-.425,0-.6.011V12.138q.175.01.6.01h1.151V11.38l-.022-.353c.152,0,.362.006.627.016s.455.023.566.037a2.337,2.337,0,0,0-.021.3v.767h1.193q.414,0,.6-.01v1.069q-.187-.012-.6-.011H26.042V14.5h1.482Zm-4.7-4.322a7.286,7.286,0,0,0,1.793-.52,4.688,4.688,0,0,1-.471-.594,5.06,5.06,0,0,1-.379-.652,6.02,6.02,0,0,1-.249-.575h-.061l-.539.01V6.824l.539.011h3.379l.1-.12a8.4,8.4,0,0,1,.974.815l-.145.07a4.932,4.932,0,0,1-.757,1.395,6.15,6.15,0,0,1-.611.688,6.354,6.354,0,0,0,1.792.508c-.166.4-.3.757-.414,1.066a12.046,12.046,0,0,1-1.249-.361,4.292,4.292,0,0,1-.991-.5,4.831,4.831,0,0,1-.829.429,10.892,10.892,0,0,1-1.41.451c-.076-.208-.235-.573-.477-1.1M26.55,7.839H24.631a4.088,4.088,0,0,0,.4.7,3.13,3.13,0,0,0,.524.572,3.432,3.432,0,0,0,.57-.576,3.566,3.566,0,0,0,.425-.7" transform="translate(-9.565 -3.213)"/>
      </g>
      <g id="グループ_151" data-name="グループ 151" transform="translate(104.068 0.283)">
        <g id="グループ_150" data-name="グループ 150" transform="translate(21.818)">
          <path id="パス_247" data-name="パス 247" class="cls-3" d="M272.307,8.432l-6.331-7.411a1.087,1.087,0,0,0-.9-.435h-3.81a.26.26,0,0,0-.153.435l6.327,7.4-6.322,7.412c-.133.148-.052.435.154.435h3.809a1.093,1.093,0,0,0,.9-.435l6.327-7.407Z" transform="translate(-261.047 -0.586)"/>
          <path id="パス_248" data-name="パス 248" class="cls-1" d="M288.7.586h-3.808a.9.9,0,0,0-.815.347l-2.933,3.424L283.569,7.2l5.28-6.179c.148-.2.06-.435-.154-.435" transform="translate(-271.449 -0.586)"/>
          <path id="パス_249" data-name="パス 249" class="cls-1" d="M288.843,25.583l-5.275-6.177-2.431,2.846,2.948,3.434a1.021,1.021,0,0,0,.795.332h3.809a.258.258,0,0,0,.153-.435" transform="translate(-271.449 -10.33)"/>
        </g>
        <path id="パス_250" data-name="パス 250" class="cls-1" d="M216.458,21.079a.624.624,0,0,1-.459-.2.65.65,0,0,1-.2-.477V10.428a.65.65,0,0,1,.2-.477.628.628,0,0,1,.459-.2h1.46a.758.758,0,0,1,.505.19.71.71,0,0,1,.262.469l.112,1.084c0,.027.016.039.047.039a.1.1,0,0,0,.066-.019,4.929,4.929,0,0,1,3.463-1.608,2.926,2.926,0,0,1,2.555,1.16,5.549,5.549,0,0,1,.833,3.274v6.064a.647.647,0,0,1-.2.477.624.624,0,0,1-.458.2h-2.1a.624.624,0,0,1-.458-.2.647.647,0,0,1-.2-.477V14.752a2.732,2.732,0,0,0-.3-1.507,1.11,1.11,0,0,0-.974-.421,1.934,1.934,0,0,0-.917.205,4.215,4.215,0,0,0-.918.711.179.179,0,0,0-.055.131v6.533a.67.67,0,0,1-.675.673h-2.059Z" transform="translate(-215.803 -5.332)"/>
        <path id="パス_251" data-name="パス 251" class="cls-1" d="M245.361,21.507a5.445,5.445,0,0,1-3.977-1.534,5.584,5.584,0,0,1-1.562-4.175,6.342,6.342,0,0,1,.44-2.386,5.154,5.154,0,0,1,2.808-2.94,4.708,4.708,0,0,1,1.918-.4,4.246,4.246,0,0,1,3.483,1.459,5.826,5.826,0,0,1,1.2,3.817c0,.261-.012.525-.038.787a.693.693,0,0,1-.261.477.8.8,0,0,1-.506.177h-5.655c-.06,0-.086.031-.072.1A2.454,2.454,0,0,0,245.83,18.9a4.276,4.276,0,0,0,1.722-.374.644.644,0,0,1,.515-.047.683.683,0,0,1,.4.31l.487.9a.71.71,0,0,1,.066.515.667.667,0,0,1-.309.421,6.828,6.828,0,0,1-3.353.879Zm-2.283-6.982c0,.038.025.056.076.056h3.537c.065,0,.1-.031.1-.093a2.02,2.02,0,0,0-.442-1.33,1.6,1.6,0,0,0-1.279-.487,1.888,1.888,0,0,0-1.276.468,1.812,1.812,0,0,0-.711,1.385Z" transform="translate(-228.239 -5.497)"/>
        <path id="パス_252" data-name="パス 252" class="cls-1" d="M302.887,21.052a3.567,3.567,0,0,1-2.92-1.132,4.844,4.844,0,0,1-.936-3.172V13.711a.066.066,0,0,0-.074-.074h-.731a.671.671,0,0,1-.674-.673v-1.2a.675.675,0,0,1,.2-.486.682.682,0,0,1,.476-.224l.917-.078c.063-.013.094-.046.094-.095l.007-1.032a.708.708,0,0,1,.253-.468.728.728,0,0,1,.513-.19h1.773a.628.628,0,0,1,.477.2.621.621,0,0,1,.2.46v1.032a.067.067,0,0,0,.075.075h1.816a.667.667,0,0,1,.477.195.658.658,0,0,1,.2.477v1.332a.669.669,0,0,1-.674.673h-1.816a.066.066,0,0,0-.075.074v3a1.868,1.868,0,0,0,.365,1.271,1.267,1.267,0,0,0,1,.413,1.806,1.806,0,0,0,.356-.038.737.737,0,0,1,.5.1.593.593,0,0,1,.29.383L305.226,20a.844.844,0,0,1,.018.169.632.632,0,0,1-.111.355.572.572,0,0,1-.412.3,7.513,7.513,0,0,1-1.835.224Z" transform="translate(-258.13 -5.042)"/>
      </g>
    </g>
    <path id="パス_253" data-name="パス 253" class="cls-1" d="M84.191,40.582v4.33h-.644v-.317H81.311v.328h-.619v-4.34h3.5Zm-2.88,1.686h2.236V41.187H81.311Zm2.236.595H81.311V43.99h2.236Z" transform="translate(-41.779 -21.012)"/>
    <path id="パス_254" data-name="パス 254" class="cls-1" d="M91.5,42.993a4.61,4.61,0,0,1-.3,1.3,3,3,0,0,0-.458-.215,3.652,3.652,0,0,0,.268-1.169l.493.086ZM95.37,40.35a3.187,3.187,0,0,1-.821,1.3,3.6,3.6,0,0,0,1.032.381,2.361,2.361,0,0,0-.366.485,3.683,3.683,0,0,1-1.124-.5,4.492,4.492,0,0,1-1.148.529,2.334,2.334,0,0,0-.317-.483,3.124,3.124,0,0,1,.207.594l-.424.19a2,2,0,0,0-.065-.255l-.257.02V44.67H91.57V42.647l-.73.045-.05-.519.363-.014c.074-.1.155-.208.236-.324a4.911,4.911,0,0,0-.594-.683l.286-.409c.036.03.076.065.116.1a6.463,6.463,0,0,0,.368-.876l.519.191c-.182.341-.382.729-.564,1.012.065.07.121.141.17.2.172-.283.332-.569.449-.815l.488.227c-.278.437-.624.946-.941,1.355l.483-.02c-.055-.128-.116-.253-.176-.364l.4-.167a4.791,4.791,0,0,1,.231.464,4,4,0,0,0,1-.417,3.3,3.3,0,0,1-.594-.821l.323-.107h-.574V40.2h2.084l.107-.026.4.181Zm-2.849,2.516a5.755,5.755,0,0,1,.312.907l-.443.162A5.872,5.872,0,0,0,92.1,43l.424-.132ZM94.4,44h1.1v.524H92.662V44h1.153v-.591h-.855v-.529h.855v-.6h.59v.6h.9v.529h-.9V44Zm-.821-3.294a2.284,2.284,0,0,0,.483.6,2.515,2.515,0,0,0,.493-.6Z" transform="translate(-46.981 -20.694)"/>
    <path id="パス_255" data-name="パス 255" class="cls-1" d="M104.984,40.909c0,.011-.01.015-.014.027h1.011a1.628,1.628,0,0,0,.438-.061l.513.315a2.165,2.165,0,0,0-.166.363,5.247,5.247,0,0,1-.875,1.682,4.721,4.721,0,0,1-2.034,1.42l-.594-.534a4.022,4.022,0,0,0,2.029-1.243,3.591,3.591,0,0,0,.715-1.375h-1.415a5.738,5.738,0,0,1-1.269,1.22l-.563-.419a4.448,4.448,0,0,0,1.57-1.621,2.358,2.358,0,0,0,.226-.529l.735.243c-.116.175-.247.4-.307.513" transform="translate(-53.205 -20.79)"/>
    <path id="パス_256" data-name="パス 256" class="cls-1" d="M115.349,41.406h2.768c.126,0,.316,0,.5-.011-.01.15-.01.337-.01.49v2.466c0,.2.01.678.01.7h-.693c0-.011.006-.126.006-.271H115.5c.006.14.006.256.006.271h-.695c0-.026.016-.463.016-.7v-2.46c0-.143,0-.349-.011-.49.205.006.4.011.534.011m.149,2.728h2.432V42.045H115.5Z" transform="translate(-59.444 -21.433)"/>
    <path id="パス_257" data-name="パス 257" class="cls-1" d="M129.414,41.7a7.412,7.412,0,0,1-.791,1.384,14.181,14.181,0,0,1,1.4,1.44l-.573.5a11.532,11.532,0,0,0-1.27-1.423,6.58,6.58,0,0,1-1.893,1.413l-.517-.543a5.633,5.633,0,0,0,2.063-1.444,3.884,3.884,0,0,0,.751-1.234h-1.707c-.211,0-.488.03-.594.036v-.715a5.713,5.713,0,0,0,.594.035h1.778a1.827,1.827,0,0,0,.519-.066l.412.308a2.3,2.3,0,0,0-.176.312" transform="translate(-65.122 -21.27)"/>
    <path id="パス_258" data-name="パス 258" class="cls-1" d="M137.829,42.109h3.3a3.992,3.992,0,0,0,.458-.03v.654c-.125-.011-.317-.015-.458-.015h-1.214a3.209,3.209,0,0,1-.322,1.294,2.413,2.413,0,0,1-1.012.966l-.59-.428a2.093,2.093,0,0,0,.913-.72,2.174,2.174,0,0,0,.312-1.113h-1.385c-.15,0-.342.011-.483.021v-.66c.15.015.326.03.483.03m.639-1.283h2.023a3.882,3.882,0,0,0,.543-.036v.65c-.171-.012-.367-.021-.543-.021h-2.019c-.176,0-.388.01-.544.021v-.65a3.83,3.83,0,0,0,.539.036" transform="translate(-71.113 -21.12)"/>
    <path id="パス_259" data-name="パス 259" class="cls-1" d="M150.6,44.013l-.613.23a9.927,9.927,0,0,0-.459-1.16l.6-.218c.125.258.368.866.468,1.149m2.438-.681a4.028,4.028,0,0,1-.685,1.475,3.917,3.917,0,0,1-1.686,1.249l-.529-.537a3.379,3.379,0,0,0,1.671-1.053,3.441,3.441,0,0,0,.644-1.728l.705.227c-.06.162-.091.268-.12.367m-1.324.369-.6.211a8.587,8.587,0,0,0-.408-1.12l.6-.194c.095.216.342.87.413,1.1" transform="translate(-77.422 -22.057)"/>
    <path id="パス_260" data-name="パス 260" class="cls-1" d="M162.366,40.909c0,.011-.01.015-.014.027h1.013a1.618,1.618,0,0,0,.437-.061l.513.315a2.165,2.165,0,0,0-.166.363,5.24,5.24,0,0,1-.874,1.682,4.716,4.716,0,0,1-2.035,1.42l-.594-.534a4,4,0,0,0,2.028-1.243,3.578,3.578,0,0,0,.715-1.375h-1.414a5.736,5.736,0,0,1-1.268,1.22l-.564-.419a4.458,4.458,0,0,0,1.572-1.621,2.525,2.525,0,0,0,.228-.529l.733.243c-.114.175-.246.4-.307.513" transform="translate(-82.915 -20.79)"/>
  </g>
</svg>
