<svg xmlns="http://www.w3.org/2000/svg" width="61.782" height="12.797" viewBox="0 0 61.782 12.797">
  <defs>
    <style>
      .cls-1 {
        fill: #DE6F1B;
      }
    </style>
  </defs>
  <path id="パス_166" data-name="パス 166" class="cls-1" d="M7.638,13.463H3.612v3.393H8.376V19H1.028V6.2h7.33V8.356H3.612V11.38H7.638Zm9.99,2.021L19.781,6.2h2.883L18.972,19H16.283L12.618,6.2h2.865Zm16.45-2.021H30.052v3.393h4.764V19H27.468V6.2H34.8V8.356H30.052V11.38h4.025ZM48.848,19H46.264l-3.779-8.394V19H39.9V6.2h2.584l3.788,8.4V6.2h2.575ZM62.81,8.356H59.646V19H57.053V8.356H53.942V6.2H62.81Z" transform="translate(-1.028 -6.203)"/>
</svg>
