<svg xmlns="http://www.w3.org/2000/svg" width="60" height="60" viewBox="0 0 60 60"><g><circle cx="30" cy="30" r="30" fill="#d13e2e"/><path d="m23.962,26.467l-3.809.989c-.808.271-1.245,1.15-.975,1.963s1.143,1.253,1.951.982l3.449-.753" fill="none" stroke="#fff" stroke-linejoin="round" stroke-width="1.25"/><path d="M20.224 30.423c-.287.081-.6.08-.904-.022l-3.449-.753M16.487 26.467 20.224 27.438M20.224 47.01 20.224 33.927M20.224 47.017h1.895c.808 0 1.498-.659 1.54-1.467-.003-.043.929-15.862.919-15.902 2.795-.781 5.711-2.275 4.356-5.702-1.316-2.026-2.441-5.933-5.105-6.682m.15 9.203c-.071-.489-.178-1.168-.102-1.659l.451-3.369c2.064 4.337 3.41 3.757-.349 5.028Z" fill="none" stroke="#fff" stroke-linejoin="round" stroke-width="1.25"/><path d="m16.621,17.264c-2.664.749-3.789,4.656-5.105,6.682-1.356,3.427,1.56,4.921,4.356,5.702-.011.04.921,15.859.919,15.902.041.808.732,1.467,1.54,1.467h1.895m-4.102-25.578l.451,3.369c.076.491-.031,1.17-.102,1.659-3.759-1.271-2.413-.691-.349-5.028Z" fill="none" stroke="#fff" stroke-linejoin="round" stroke-width="1.25"/><ellipse cx="20.224" cy="17.275" rx="3.603" ry="3.568" fill="none" stroke="#fff" stroke-linejoin="round" stroke-width="1.25"/><path d="m43.332 27.145-3.899 1.111c-.776.276-1.195 1.171-.936 1.999s1.097 1.276 1.872 1l3.442-.812M36.871 37.966 39.776 37.966M42.681 37.966 39.776 37.966" fill="none" stroke="#fff" stroke-linejoin="round" stroke-width="1.25"/><path d="M39.776 31.331c-.194.017-.395-.006-.591-.076l-3.442-.812M36.222 27.145 39.777 28.158M39.776 47.017 39.776 38.288" fill="none" stroke="#fff" stroke-linejoin="round" stroke-width="1.25"/><path d="M39.776 47.017c.286.003.565-.011.808-.024.774 0 1.437-.671 1.476-1.485l.621-7.945c3.681.378 1.345-5.164 1.128-7.12 2.604-.851 5.217-2.385 3.977-5.763-1.036-2.077-2.121-6.378-4.635-6.827m2.09 8.378c-.122.296-1.638.748-1.895.914-.081-.79-.208-1.892-.085-2.68l.284-2.061c.038.217 1.979 3.669 1.696 3.826ZM36.401 17.853c-2.514.449-3.599 4.75-4.635 6.827-1.24 3.378 1.373 4.912 3.977 5.763-.217 1.956-2.554 7.498 1.128 7.12l.621 7.945c.039.814.702 1.485 1.476 1.485.243.012.521.027.808.024m-3.769-24.612.284 2.061c.123.787-.004 1.89-.085 2.68-.257-.166-1.773-.618-1.895-.914-.283-.157 1.657-3.609 1.696-3.826Z" fill="none" stroke="#fff" stroke-linejoin="round" stroke-width="1.25"/><ellipse cx="39.79" cy="17.858" rx="3.389" ry="3.427" fill="none" stroke="#fff" stroke-linejoin="round" stroke-width="1.25"/></g></svg>