<svg version="1.1" xmlns="http://www.w3.org/2000/svg" xmlns:xlink="http://www.w3.org/1999/xlink" x="0px" y="0px" width="60px" height="60px" viewBox="0 0 60 60" xml:space="preserve"><g><circle fill="#d13e2e" cx="30" cy="30" r="30"/></g><g><g><path fill="none" stroke="#FFF" stroke-width="1.5" stroke-linecap="round" stroke-linejoin="round" stroke-miterlimit="10" d="M34.9,34.3l4.5,2.5L46,25.2l-1.3-0.8c0,0,0,0,0-0.1c0,0,0,0,0,0c0,0,0,0,0,0l1.3,0.8l3.5-6.1l-3.6-2.1l-0.2,0.3 c-0.5,0.6-1.3,1-2.1,1c-0.5,0-0.9-0.1-1.3-0.3c-1.1-0.6-1.6-2-1.2-3.3l0.1-0.3l-3.6-2.1l-3.5,6.1l1.3,0.8c0,0,0,0,0,0c0,0,0,0,0,0 c0,0,0,0,0,0c0,0,0,0,0,0l-1.3-0.8l-6.7,11.7l0.6,0.4"/><path fill="none" stroke="#FFF" stroke-width="1.5" stroke-linecap="round" stroke-linejoin="round" stroke-miterlimit="10" d="M39 21.2C39 21.2 39 21.1 39 21.2l-1.4-.8c0 0 0 0 0 0 0 0 0 0 0 0 0 0 0 0 0 0 0 0 0 0 0 0L39 21.2C39 21.1 39.1 21.1 39 21.2 39.1 21.1 39.1 21.1 39 21.2 39 21.1 39 21.2 39 21.2zM42.6 23.2C42.5 23.2 42.5 23.2 42.6 23.2l-1.4-.8c0 0 0 0 0 0 0 0 0 0 0 0 0 0 0 0 0 0 0 0 0 0 0 0L42.6 23.2C42.6 23.1 42.6 23.1 42.6 23.2 42.6 23.1 42.6 23.1 42.6 23.2 42.6 23.2 42.6 23.2 42.6 23.2zM27.2 27.4c-.3.2-.7.5-1.1.8-.6.5-1 1.4-1.1 2.2 0 .6.1 1 .5 1.3.1.1.1.1.2.2l0 0c.3.3.7.7 1.3.7.8 0 1.7-.6 3.4-2.1 1.3-1.2 2.4-1.4 3.1-1.4.6 0 1.2.2 1.6.5.4.4.4.8.2 1.1-1.1 1.3-2.5 2.8-3.6 4.1-1.1 1.3-2.1 2.4-2.6 2.9-1.1 1.3-4.6 2.8-6.3 3.5M16.5 35l4.3-9.3 0 0c.2-.7 1-1.5 1.8-1.8 2.2-.8 7.3-2.3 7.5-2.4M19.2 47.8c-.3 0-.5-.1-.7-.3l-7.8-7.9c-.2-.2-.3-.4-.3-.7 0-.3.1-.5.3-.7l2.9-2.9c.2-.2.4-.3.7-.3l0 0c.3 0 .5.1.7.3l7.8 7.9C23 43.5 23 43.7 23 44c0 .3-.1.5-.3.7l-2.9 2.9C19.7 47.7 19.4 47.8 19.2 47.8L19.2 47.8z"/></g></g></svg>