<svg xmlns="http://www.w3.org/2000/svg" width="154.813" height="17.44"><path fill-rule="evenodd" d="M1.578 8.62c2.9-.41 4.931-1.72 5.92-3.49.99 1.77 3.023 3.08 5.92 3.49l.846-1.94c-3.365-.44-5.11-2.14-5.344-3.8h4.7V.9H1.33v1.98h4.769c-.234 1.66-2 3.36-5.381 3.8zm13.406 1H.013v1.98h6.244v5.84h2.375V11.6h6.352V9.62zm11.612-2.04a5.191 5.191 0 0 1-3.851-5.11V.81h-2.407v1.66a5.538 5.538 0 0 1-3.959 5.4l1.169 1.96a6.706 6.706 0 0 0 4.031-3.7 6.423 6.423 0 0 0 3.869 3.42zm-7.684 5.55h8.907v4.29h2.393v-6.29h-11.3v2zM27.819.01v10.37h2.393V.01h-2.393zm15.265 1.93h-3.779V.07H36.93v1.87h-3.8v1.94h9.951V1.94zm-6.82 5.91c0-.91.756-1.4 1.853-1.4 1.116 0 1.854.49 1.854 1.4 0 .88-.738 1.38-1.854 1.38-1.097 0-1.853-.5-1.853-1.38zm3.041 3.13a3.251 3.251 0 0 0 2.915-3.13c0-1.97-1.692-3.29-4.1-3.29-2.429 0-4.121 1.32-4.121 3.29a3.252 3.252 0 0 0 2.934 3.13v1.47c-1.476.04-2.88.04-4.121.04l.288 2.02a55.419 55.419 0 0 0 10.382-.72L43.303 12c-1.3.19-2.646.28-4 .36v-1.38zM44.163.01V17.4h2.375V.01h-2.375zm11.106 1.34h-2.393v2.53c0 3.23-1.26 6.55-4.049 7.93l1.422 2.02a8.209 8.209 0 0 0 3.833-5 7.823 7.823 0 0 0 3.58 4.68l1.44-1.96c-2.663-1.38-3.833-4.53-3.833-7.67V1.35zm9.285 5.35h-2.411V.01h-2.375V17.4h2.375V8.77h2.411V6.7zm10.615-5.18h-2.286v2.93c0 2.96-.881 6.08-3.311 7.63l1.422 1.86a7.79 7.79 0 0 0 3.041-4.53 7.134 7.134 0 0 0 2.807 4.14l1.3-1.93c-2.25-1.56-2.969-4.45-2.969-7.26V1.52zm3.311 4.36h-2.07V7.9h2.07v8.73h2.213V.3H78.48v5.58zM81.845.01V17.4h2.249V.01h-2.249zm5.337 1.78v2.02h5.416c-.432 3.85-2.483 6.6-6.334 8.68l1.331 1.91c5.507-2.93 7.4-7.4 7.4-12.61h-7.809zm14.539 4.85H99.4V0h-2.376v17.36H99.4V8.7h2.321V6.64zm13.925.02h-1.853a17.058 17.058 0 0 0 .54-4.59h-6.5v1.98h4.138a9.739 9.739 0 0 1-5.056 7.99l1.35 1.75a11.934 11.934 0 0 0 4.786-5.13h2.591v7.97h2.214V.39h-2.214v6.27zM119.137 0v17.38h2.249V0h-2.248zm15.756.01v9.86h2.393V.01h-2.393zm-8.637 10.63v6.55h11.03v-6.55h-11.03zm8.709 1.95v2.66h-6.37v-2.66h6.37zM128.271.81a4.191 4.191 0 1 0 4.5 4.19 4.225 4.225 0 0 0-4.5-4.19zm0 2.07a2.107 2.107 0 1 1-2.2 2.12 2.038 2.038 0 0 1 2.2-2.12zm26.007 5.33c-3.743-.68-5.794-3.38-5.794-5.93V1.03h-2.537v1.25c0 2.49-2.07 5.25-5.8 5.93l1.008 2.07a8.334 8.334 0 0 0 6.046-4.49 8.417 8.417 0 0 0 6.064 4.49zm-14.485 5.06v2.01H154.8v-2.01h-15.007z"/></svg>