<svg xmlns="http://www.w3.org/2000/svg" width="289.688" height="17.44"><path fill-rule="evenodd" d="M2.338 3.62h3.239v7.59H2.338V3.62zm-2.339 9.55h7.917V1.66H-.001v11.51zM14.88 6.56h-2.411V.03h-2.376V17.4h2.376V8.62h2.411V6.56zm4.54 1.65h5.38V1.49h-7.828v1.98h5.4v2.77h-5.381v7.16h1.494a43.417 43.417 0 0 0 8.133-.61l-.252-2.02a39.223 39.223 0 0 1-6.945.57V8.21zM27.52 0v17.44h2.375V0H27.52zm8.526 5.7c0-1.78 1.565-2.82 3.832-2.82 2.286 0 3.851 1.04 3.851 2.82s-1.565 2.81-3.851 2.81c-2.27 0-3.835-1.04-3.835-2.81zm5.02 7.66v-2.95c2.933-.35 5-2.13 5-4.71 0-2.91-2.646-4.8-6.191-4.8-3.526 0-6.172 1.89-6.172 4.8 0 2.58 2.07 4.34 4.985 4.71v2.95h-6.3v2.02h15.007v-2.02h-6.334zM51.913 5.3a2.205 2.205 0 0 1 4.409 0 2.206 2.206 0 0 1-4.412 0zm3.4 4.13a4.151 4.151 0 0 0 3.311-4.13 4.513 4.513 0 0 0-9.015 0 4.154 4.154 0 0 0 3.347 4.15v2.46c-1.386.01-2.735.01-3.905.01l.287 2.02a50.465 50.465 0 0 0 9.933-.66l-.2-1.79c-1.206.15-2.465.27-3.761.32V9.43zm9.177-2.6h-2.177V0h-2.375v17.38h2.375V8.89h2.177V6.83zm19.948 1.11c-3.778-.64-5.812-3.24-5.812-5.72V.98h-2.537v1.24c0 2.42-2.051 5.08-5.794 5.72l.972 2.06a8.343 8.343 0 0 0 6.082-4.32A8.323 8.323 0 0 0 83.467 10zm-5.884 5.4V9.45h-2.375v3.89h-6.241v2h15.007v-2h-6.388zm17.595-7.08a40.123 40.123 0 0 1-6.73.72V.94h-2.357v8.1h1.439a39.654 39.654 0 0 0 7.936-.76zm-7.558 6.38h8.908v4.8h2.393v-6.8h-11.3v2zM97.499.05v9.87h2.393V.05h-2.393zm12.7 9.97l.4-1.53c.4-1.45.792-3.04 1.134-4.57h.072c.4 1.51.755 3.12 1.169 4.57l.4 1.53h-3.167zm4.679 5.76h2.789l-4.283-13.97h-3.131l-4.264 13.97h2.7l.935-3.59h4.319zm7.333 0h2.663V4.13h3.779V1.81h-10.181v2.32h3.743v11.65zm13.346 0h8.925v-2.34h-2.9a20.531 20.531 0 0 0-2.159.15c2.429-2.5 4.426-5.21 4.426-7.74a4 4 0 0 0-4.192-4.31 5.311 5.311 0 0 0-4.229 2.12l1.44 1.51a3.4 3.4 0 0 1 2.447-1.44 1.968 1.968 0 0 1 2 2.27c0 2.15-2.141 4.77-5.758 8.17v1.61zm17.3.26c2.7 0 4.5-2.49 4.5-7.31s-1.8-7.19-4.5-7.19c-2.717 0-4.516 2.36-4.516 7.19s1.805 7.31 4.522 7.31zm0-2.17c-1.152 0-2.015-1.21-2.015-5.14 0-3.9.863-5.04 2.015-5.04 1.134 0 2 1.14 2 5.04.004 3.93-.86 5.14-1.994 5.14zm8.08 1.91h8.925v-2.34h-2.9a20.531 20.531 0 0 0-2.159.15c2.429-2.5 4.426-5.21 4.426-7.74a4 4 0 0 0-4.192-4.31 5.311 5.311 0 0 0-4.229 2.12l1.44 1.51a3.4 3.4 0 0 1 2.447-1.44 1.968 1.968 0 0 1 2 2.27c0 2.15-2.141 4.77-5.758 8.17v1.61zm17.3.26c2.7 0 4.5-2.49 4.5-7.31s-1.8-7.19-4.5-7.19c-2.717 0-4.516 2.36-4.516 7.19s1.807 7.31 4.524 7.31zm0-2.17c-1.152 0-2.015-1.21-2.015-5.14 0-3.9.863-5.04 2.015-5.04 1.134 0 2 1.14 2 5.04.001 3.93-.858 5.14-1.992 5.14zm20.994-.47V9.77h4.733v-2h-9.268V3.2h9.142v-2h-11.527v8.57h4.553v3.63h-6.3v2.04h15.007V13.4h-6.333zm9.354-7.42l.305 2.09 9.591-.52c-.072 1.05-.18 2.2-.324 3.49l2.358.24a68.438 68.438 0 0 0 .414-8.28V1.47h-11.833v1.98h9.5c0 .66 0 1.38-.036 2.17zm8.583 7.4V9.36h-2.357v4.02h-1.656V9.36h-2.367v4.02h-3.383v2.02h14.989v-2.02h-5.218zm15.023 1.04h9.069V9.94h-11.436v1.85h9.105v.91h-9.091v4.57h11.858V15.4h-9.5v-.98zm-.126-11.29c0-.78 1.133-1.13 3.527-1.13 2.411 0 3.544.35 3.544 1.13 0 .81-1.133 1.15-3.544 1.15-2.386 0-3.519-.34-3.519-1.15zm4.678 3.94V6.05c3.1-.2 4.859-1.2 4.859-2.92 0-1.91-2.214-2.97-6.01-2.97-3.779 0-5.992 1.06-5.992 2.97 0 1.7 1.745 2.7 4.768 2.92v1.02h-6.262v1.95h14.971V7.07h-6.334zm17.811.21a41.045 41.045 0 0 1-6.82.47V6.24h5.272V1h-7.629v2h5.29v1.39h-5.272v5.36h1.457a45.076 45.076 0 0 0 7.972-.49zm-4.931 5.78h6.37v2.19h-6.37v-2.19zm-2.339 4.13h11.031v-6.1h-11.023v6.1zM255.921.03v10.29h2.394V.03h-2.394zm9.064 3.23h1.753v4.63c-.575.01-1.169.03-1.745.05V3.26zm5.956 4.3c-.63.08-1.259.12-1.925.17V3.26h1.295v-2h-8.925v2h1.314v4.72h-1.728l.252 2.04a61.685 61.685 0 0 0 9.879-.64zm-7.791 5.78h8.907v4.08h2.393v-6.06h-11.3v1.98zM272.057.01v10.63h2.393V.01h-2.393zm6.35 7.99h1.763V2.98h1.854V1.3h-5.452v1.68h1.835V8zm4.516 0h1.62V5.71l-.216-2.41h.09l1.242 3.7h1.259l1.26-3.7h.072l-.2 2.41V8h1.619V1.3h-2.033l-.81 2.21-.486 1.51h-.09l-.485-1.51-.846-2.21h-2V8z"/></svg>