<svg xmlns="http://www.w3.org/2000/svg" width="264.938" height="19.6"><path fill-rule="evenodd" d="M.008 15.78h8.008v-2.25h-2.5V1.81H3.55A8.615 8.615 0 0 1 .455 2.98V4.7h2.412v8.83H.005v2.25zm17.389-5.25c.971 0 2-.59 2.915-2.12l-1.386-1.09a1.839 1.839 0 0 1-1.493 1.23c-1.116 0-1.872-1.67-3.527-1.67-.99 0-2 .59-2.933 2.14l1.385 1.09a1.84 1.84 0 0 1 1.494-1.24c1.133 0 1.871 1.66 3.545 1.66zm8.828-.49l2.069-3.48c.378-.75.738-1.52 1.062-2.26h.072c-.036.81-.108 2.08-.108 2.89v2.85h-3.095zm7.144 0h-1.584V1.81h-3.167l-4.966 8.45v1.89h5.668v3.63h2.465v-3.63h1.584v-2.11zm9.408-2.74h-3.149V3.24h3.149V7.3zm5.308-2.79V6h-2.987V4.51h2.987zm-2.987 3.47h2.987v2.23h2.375V.01h-2.375v2.51h-2.987V1.26h-7.81v8h7.81V7.98zm-.252 7.51c-2.159 0-3.293-.47-3.293-1.47s1.134-1.47 3.293-1.47c2.177 0 3.311.47 3.311 1.47s-1.134 1.47-3.307 1.47zm0-4.85c-3.509 0-5.668 1.25-5.668 3.38s2.159 3.38 5.668 3.38c3.527 0 5.686-1.25 5.686-3.38s-2.159-3.38-5.682-3.38zm15.9 8.95l1.655-.74a19.672 19.672 0 0 1 0-18.06L60.746.05a19.142 19.142 0 0 0 .004 19.54zm8.992-7.53h-2.375v5.04H78.85v-1.98h-9.105v-3.06zm-.252-8.03c0-1.05 1.332-1.62 3.545-1.62 2.232 0 3.563.57 3.563 1.62 0 1.08-1.331 1.61-3.563 1.61-2.208 0-3.54-.53-3.54-1.61zm4.715 4.93v-1.4c2.951-.26 4.84-1.58 4.84-3.53 0-2.2-2.393-3.58-6.01-3.58-3.6 0-5.992 1.38-5.992 3.58 0 1.95 1.872 3.25 4.787 3.53v1.4H65.55v1.98h14.971V8.96h-6.316zm10.885-.75h5.264V1.49h-7.612v1.98h5.273v2.77H82.75v7.18h1.4a39.335 39.335 0 0 0 7.647-.59l-.215-2.02a35.763 35.763 0 0 1-6.5.55V8.21zm12.362-1.65h-2.376V0h-2.375v17.44h2.375V8.62h2.378V6.56zM112.709.03h-2.389v12.48h2.394V.03zm-11.211 5.51a2.115 2.115 0 0 1 2.2-2.26 2.256 2.256 0 0 1 0 4.51 2.124 2.124 0 0 1-2.195-2.25zm6.694 0a4.509 4.509 0 1 0-4.5 4.4 4.346 4.346 0 0 0 4.505-4.4zm-4.139 9.58v-3.84h-2.375v5.82h11.445v-1.98h-9.07zm24.776-10.56h-3.4V2.34h3.4v2.22zm-5.758 0h-2v1.85h12.092V4.56h-1.979V2.34h2.105V.49h-12.318v1.85h2.105v2.22zm.666 9.97h9.069v-4.3h-11.439v1.79h9.1v.85h-9.087v4.4h11.858v-1.8h-9.5v-.94zm-4.085-7.23v1.96h14.971V7.3h-14.966zm19.375 1.08h3.544V1.71h-5.861v1.98h3.563v2.72h-3.545v6.93h1.17a32.009 32.009 0 0 0 6.046-.45l-.2-2a32.516 32.516 0 0 1-4.714.41V8.38zm5.848-2.46h-1.638v2.04h1.638v8.63h2.195V.32h-2.19v5.6zM148.24 0v17.38h2.249V0h-2.239zm15.692 0v17.44h2.376V0h-2.376zM157.4 1.22c-2.5 0-4.354 2.38-4.354 6.19 0 3.84 1.853 6.23 4.354 6.23s4.355-2.39 4.355-6.23c.005-3.81-1.848-6.19-4.35-6.19zm0 2.25c1.224 0 2.07 1.38 2.07 3.94 0 2.59-.846 3.97-2.07 3.97s-2.069-1.38-2.069-3.97c.005-2.56.851-3.94 2.074-3.94zm22.311-2.12h-2.375v2.53c0 3.38-1.368 6.74-4.265 8.04l1.422 2.06a8.321 8.321 0 0 0 4.066-5.17 7.869 7.869 0 0 0 3.923 4.76l1.35-2.02c-2.807-1.27-4.121-4.44-4.121-7.67V1.35zm4.93-1.35v17.44h2.376V0h-2.367zm11.5 8.87a1.814 1.814 0 1 0-1.638-1.8 1.692 1.692 0 0 0 1.64 1.8zm0 7.17a1.819 1.819 0 1 0-1.638-1.81 1.7 1.7 0 0 0 1.64 1.81zm10.86-.26h8.925v-2.34h-2.9a20.549 20.549 0 0 0-2.16.15c2.43-2.5 4.427-5.21 4.427-7.74a4 4 0 0 0-4.193-4.31 5.309 5.309 0 0 0-4.228 2.12l1.439 1.51a3.4 3.4 0 0 1 2.448-1.44 1.968 1.968 0 0 1 2 2.27c0 2.15-2.141 4.77-5.758 8.17v1.61zm18.7-5.25c.972 0 2-.59 2.915-2.12l-1.385-1.09a1.839 1.839 0 0 1-1.494 1.23c-1.116 0-1.871-1.67-3.527-1.67-.989 0-2 .59-2.933 2.14l1.386 1.09a1.839 1.839 0 0 1 1.493-1.24c1.141 0 1.879 1.66 3.552 1.66zm10.8 5.51c2.7 0 4.48-1.62 4.48-3.74a4.091 4.091 0 0 0-2.231-3.74v-.09a4.11 4.11 0 0 0 1.71-3.19 3.57 3.57 0 0 0-3.869-3.72c-2.321 0-4.013 1.44-4.013 3.68a4.019 4.019 0 0 0 1.763 3.32v.1a4.075 4.075 0 0 0-2.285 3.64c.008 2.19 1.916 3.74 4.453 3.74zm.846-8.25c-1.4-.58-2.43-1.23-2.43-2.55a1.585 1.585 0 0 1 1.62-1.73 1.742 1.742 0 0 1 1.763 1.94 3.436 3.436 0 0 1-.945 2.34zm-.774 6.29a2.08 2.08 0 0 1-2.232-2.08 3.432 3.432 0 0 1 1.224-2.59c1.728.74 2.951 1.34 2.951 2.8a1.782 1.782 0 0 1-1.935 1.87zm14.083-6.78h-3.149V3.24h3.149V7.3zm5.308-2.79V6h-2.987V4.51h2.987zm-2.987 3.47h2.987v2.23h2.386V.01h-2.375v2.51h-2.987V1.26h-7.81v8h7.81V7.98zm-.252 7.51c-2.159 0-3.293-.47-3.293-1.47s1.134-1.47 3.293-1.47c2.177 0 3.311.47 3.311 1.47s-1.126 1.47-3.303 1.47zm0-4.85c-3.509 0-5.668 1.25-5.668 3.38s2.159 3.38 5.668 3.38c3.527 0 5.686-1.25 5.686-3.38s-2.151-3.38-5.678-3.38zm9.506 8.95a19.032 19.032 0 0 0 0-19.54l-1.637.74a19.672 19.672 0 0 1 0 18.06z"/></svg>