<svg xmlns="http://www.w3.org/2000/svg" width="85.063" height="17.41"><path fill-rule="evenodd" d="M14.48 8.21c-3.743-.68-5.794-3.38-5.794-5.93V1.03H6.149v1.25c0 2.49-2.07 5.25-5.794 5.93l1.007 2.07a8.334 8.334 0 0 0 6.046-4.49 8.417 8.417 0 0 0 6.064 4.49zM-.005 13.27v2.01h15.007v-2.01H-.005zM22.61 3.43h3.383v4.93H22.61V3.43zm2.879 10.01v-3.1h5.056V8.36h-2.2V3.43h2.249V1.45h-12.6v1.98h2.25v4.93h-2.16v1.98h5.021v3.1h-6.267v2h15v-2h-6.352zm9.569-2.31a8.236 8.236 0 0 0 6.118-3.72 8.24 8.24 0 0 0 6.118 3.72l.864-2.02c-3.743-.55-5.6-2.66-5.758-4.72h4.985V2.41h-5.021V.28h-2.375v2.13h-5.021v1.98h4.985c-.162 2.06-2.016 4.17-5.776 4.72zm-1.385 2.25v2.02H48.68v-2.02H33.673zm22.9-8.08c0-1.34.684-2.15 1.656-2.15s1.655.81 1.655 2.15c0 1.38-.684 2.17-1.655 2.17s-1.652-.79-1.652-2.17zm5.435 0c0-2.49-1.584-4.25-3.779-4.25s-3.8 1.76-3.8 4.25c0 2.53 1.6 4.27 3.8 4.27s3.783-1.74 3.783-4.27zm-4.913 7.85h9.033v4.27h2.375v-6.23H57.099v1.96zM66.254.01v4.21h-1.259V.32h-2.214v10.02h2.214V6.22h1.259v4.16h2.249V.01h-2.245zm16.08 12.88h2.375V.01h-2.371v2.27h-2.753v1.98h2.753v1.36h-2.753v2h2.753v5.27zM80.75 8.81a5.922 5.922 0 0 1-3.706-5.79V1h-2.406v2.02A6.015 6.015 0 0 1 70.77 9l1.241 1.94a6.68 6.68 0 0 0 3.851-3.92 6.593 6.593 0 0 0 3.581 3.72zm-4.606 6.31v-3.4h-2.375v5.38h11.3v-1.98h-8.921z"/></svg>