<svg xmlns="http://www.w3.org/2000/svg" width="46.813" height="17.38"><path fill-rule="evenodd" d="M5.608 6.45H2.351V4.71h3.257v1.74zM7.947.77H5.608v2.08H2.351V.77H.012V8.4h7.935V.77zM4.006 14.25h8.563V9.53H1.629v1.89h8.6v1.05h-8.58v4.8h11.39v-1.93H4.006v-1.09zm8.565-10.88V.01h-2.375v8.84h2.373V5.39h2.178V3.37h-2.178zm6.362.38h2.123v7.36h-2.123V3.75zm-2.214 9.31h6.532V1.79h-6.532v11.27zM28.219 0v6.64h-1.386V.28h-2.214v16.33h2.213V8.64h1.386v8.74h2.251V0H28.22zm18.168.01h-2.393v8.71h2.393V.01zM35.159 4.49A1.953 1.953 0 0 1 37.3 2.52a1.972 1.972 0 1 1-2.142 1.97zm6.55 0c0-2.31-1.89-3.97-4.409-3.97-2.537 0-4.444 1.66-4.444 3.97s1.907 3.98 4.444 3.98c2.518 0 4.408-1.66 4.408-3.98zm-3.995 10.78v-1.1h8.673V9.43H35.338v1.91h8.691v1.06h-8.673v4.81H46.8v-1.94h-9.087z"/></svg>