<svg xmlns="http://www.w3.org/2000/svg" width="84.25" height="17.44"><path fill-rule="evenodd" d="M9.172 4.56h-3.4V2.34h3.4v2.22zm-5.758 0h-2v1.85h12.094V4.56h-1.979V2.34h2.109V.49H1.308v1.85h2.106v2.22zm.665 9.97h9.069v-4.3H1.704v1.79h9.1v.85H1.717v4.4h11.858v-1.8h-9.5v-.94zM-.005 7.3v1.96h14.971V7.3H-.005zm19.374 1.08h3.545V1.71h-5.866v1.98h3.563v2.72h-3.545v6.93h1.17a32.015 32.015 0 0 0 6.046-.45l-.2-2a32.529 32.529 0 0 1-4.715.41V8.38zm5.848-2.46H23.58v2.04h1.637v8.63h2.2V.32h-2.2v5.6zM28.582 0v17.38h2.249V0h-2.249zm15.693 0v17.44h2.375V0h-2.375zm-6.532 1.22c-2.5 0-4.355 2.38-4.355 6.19 0 3.84 1.854 6.23 4.355 6.23s4.355-2.39 4.355-6.23c0-3.81-1.854-6.19-4.355-6.19zm0 2.25c1.224 0 2.069 1.38 2.069 3.94 0 2.59-.845 3.97-2.069 3.97S35.674 10 35.674 7.41c0-2.56.845-3.94 2.069-3.94zM67.395.03h-2.393v12.48h2.393V.03zm-11.21 5.51a2.115 2.115 0 0 1 2.195-2.26 2.256 2.256 0 0 1 0 4.51 2.123 2.123 0 0 1-2.195-2.25zm6.694 0a4.509 4.509 0 1 0-4.5 4.4 4.346 4.346 0 0 0 4.5-4.4zm-4.139 9.58v-3.84h-2.375v5.82h11.444v-1.98h-9.071zm19.653-5.01v1.7h3.113v1.38h2.375V.01h-2.375v10.1h-3.113zm-3.185-7.7c1.1 0 1.872.45 1.872 1.3S76.306 5 75.208 5c-1.115 0-1.889-.44-1.889-1.29s.774-1.3 1.889-1.3zm0 4.4c2.411 0 4.121-1.25 4.121-3.1S77.619.6 75.208.6c-2.429 0-4.138 1.26-4.138 3.11s1.709 3.1 4.138 3.1zm-.881 8.31v-2.38h2.285V9.45a32.516 32.516 0 0 0 3.958-.49l-.161-1.77a87.215 87.215 0 0 1-10.545.53l.306 1.98c1.241 0 2.627-.02 4.085-.1v2.32h-2.3v5.18h12.283v-1.98h-9.914z"/></svg>