<svg height="17.41" viewBox="0 0 31.407 17.41" width="31.407" xmlns="http://www.w3.org/2000/svg"><path d="m349.936 1503.96a4.945 4.945 0 0 1 -3.779-4.73h3.243v-2h-8.961v2h3.292a5.592 5.592 0 0 1 -3.9 5.32l1.187 1.94a6.559 6.559 0 0 0 4-3.75 6.2 6.2 0 0 0 3.8 3.15zm-2.25 7.59c-2.123 0-3.257-.47-3.257-1.45 0-1 1.134-1.47 3.257-1.47 2.106 0 3.239.47 3.239 1.47 0 .98-1.133 1.45-3.239 1.45zm0-4.85c-3.455 0-5.614 1.27-5.614 3.4 0 2.11 2.159 3.36 5.614 3.36 3.437 0 5.6-1.25 5.6-3.36-.004-2.13-2.163-3.4-5.6-3.4zm5.416-6.62v-4.01h-2.375v10.33h2.373v-4.29h2.2v-2.03h-2.2zm14.1 1.02h-9.249v5.87h11.966v-1.99h-9.609v-1.94h9.231v-5.8h-11.607v1.99h9.266v1.87zm-10.977 8.36v2.04h15.008v-2.04h-15.009z" fill-rule="evenodd" transform="translate(-339.812 -1496.06)"/></svg>