<svg xmlns="http://www.w3.org/2000/svg" width="630" height="165"><defs><style>.cls-2{fill:#fff}.cls-5{fill:#004da0}</style></defs><g id="レイヤー_2" data-name="レイヤー 2"><g id="object"><rect width="630" height="165" rx="10" fill="#e6e6e6"/><path class="cls-2" d="M625 55v100a5 5 0 01-5 5H10a5 5 0 01-5-5V55z"/><path d="M25.88 24.62a8.56 8.56 0 00-.29.93 12.89 12.89 0 01-1.78 4 10.11 10.11 0 01-2.12 2.41 5.39 5.39 0 00-1.33-1.18 8.91 8.91 0 002-2 9.4 9.4 0 001.66-3.44H22.3a8.76 8.76 0 00-1.4.09v-1.71a10.63 10.63 0 001.5.07h1.47a8.29 8.29 0 001.23-.06zm6.94-.9s-.27.29-.75.82a20.14 20.14 0 01-2.5 2.37 12.73 12.73 0 001.59 1.85 9.89 9.89 0 002.44 1.74 7.51 7.51 0 00-1.2 1.5 12.33 12.33 0 01-2.4-2.08 12.56 12.56 0 01-2.21-3.67c.05 1.4.07 1.73.07 2.19v3.35c0 .63-.1.91-.36 1.13a2 2 0 01-1.35.32c-.52 0-1.27 0-1.82-.08a5.06 5.06 0 00-.33-1.61 13.17 13.17 0 001.82.17c.42 0 .51-.06.51-.35v-9.26a8.93 8.93 0 00-.1-1.47H28a9.06 9.06 0 00-.1 1.48v1a8.23 8.23 0 00.92 2.54 10.3 10.3 0 002.61-3zm8.65 7.65h4a16.84 16.84 0 001.89-.09V33a15.35 15.35 0 00-1.86-.09h-8.9a17.57 17.57 0 00-1.9.09v-1.72a17.24 17.24 0 001.93.09h3.2v-9a11.9 11.9 0 00-.1-1.61h1.83a11.3 11.3 0 00-.09 1.61v2.39h3.29a15.81 15.81 0 001.62-.08v1.62a13.51 13.51 0 00-1.62-.09h-3.29zm12.33-9.22a1.41 1.41 0 00-.07.28v.24l-.07.4v.34c-.59 4-1.68 6.78-3.56 8.94a6.14 6.14 0 00-1.6-1.21 9.45 9.45 0 002-3 17 17 0 001.31-4.81 9.41 9.41 0 00.07-1.33v-.2zm4-.35a16.42 16.42 0 00.57 3.2 13.48 13.48 0 003.12 6.05A5.72 5.72 0 0060 32.36a18.55 18.55 0 01-3.71-9.22 6.34 6.34 0 00-.2-1zM59 21a8.53 8.53 0 011.16 2.25l-1.06.34a9.39 9.39 0 00-1.15-2.28zm1.93 2a9.33 9.33 0 00-1.12-2.21l1-.3A8.38 8.38 0 0162 22.65zm12.79 9.75a27 27 0 00-4.3-4.16 16.55 16.55 0 01-5.33 4.05A5.6 5.6 0 0063 31.09a11.59 11.59 0 002.8-1.54 13.5 13.5 0 004.71-5.71l.15-.36-4.66.08a12 12 0 00-1.53.12v-1.8a6 6 0 001.23.09h.3l4.93-.07a3 3 0 001.25-.16l.93 1a2.4 2.4 0 00-.45.75 18.6 18.6 0 01-2.19 3.87 22.33 22.33 0 012.59 2c.35.31.35.31 2 1.95zm13.92.79a11.7 11.7 0 01-1.53-2.76 10.39 10.39 0 01-.74-3.87 10 10 0 01.72-3.74 11.08 11.08 0 011.54-2.76h2a11.09 11.09 0 00-1.78 2.79 9.2 9.2 0 00-.73 3.71 9.53 9.53 0 00.74 3.84 11 11 0 001.78 2.79zm4.95-10.79c-.6 0-1.36 0-1.92.09v-1.66a17.35 17.35 0 001.87.09h8.9a14.62 14.62 0 001.87-.09v1.66a17.89 17.89 0 00-1.82-.09h-2.83a9.46 9.46 0 01-1 1.56v7.35a13.65 13.65 0 00.1 1.77H96a16.71 16.71 0 00.1-1.77v-5.5a13.13 13.13 0 01-2 2 24.72 24.72 0 01-2.66 1.85 5.3 5.3 0 00-1-1.43 16.52 16.52 0 004.41-3.26 11.23 11.23 0 002-2.61zm6.21 2a14.73 14.73 0 002 2 12.13 12.13 0 002.87 1.79 8.79 8.79 0 00-1 1.53 16.83 16.83 0 01-5-4.18zm11.6 1.18h-2.06a10.89 10.89 0 00-1.41.07v-1.48a10.2 10.2 0 001.41.07h5.37a10.69 10.69 0 001.44-.07V26a11 11 0 00-1.44-.07h-1.84v1.79h2.65a7.25 7.25 0 001.37-.08v1.5a8.85 8.85 0 00-1.37-.07h-2.65v2.41a16.18 16.18 0 002.29.14c.81 0 1.76 0 3.19-.17a5.21 5.21 0 00-.39 1.6h-3c-3.27 0-5.11-.71-6.26-2.41a9.92 9.92 0 01-1.92 2.75 3.8 3.8 0 00-1.2-1.15 8.3 8.3 0 002.41-4 9.61 9.61 0 00.28-1.51l1.55.29c-.07.24-.07.26-.19.83-.07.28-.16.6-.37 1.26a4.08 4.08 0 002.13 1.95zm-.24-4.49a4.25 4.25 0 00-.08-.9h1.72a4.69 4.69 0 00-.07.88V22h3.78c.56 0 1 0 1.56-.05a7.94 7.94 0 00-.06 1V24a9.56 9.56 0 00.06 1.09h-1.51v-1.72h-9v1.75H105a5.9 5.9 0 000-1.12v-2.07c.5 0 1 .05 1.54.05h3.65zm9.59.42a6.65 6.65 0 00-.07-1.19h1.53a6.65 6.65 0 00-.07 1.19v.23h2v-.23a6.21 6.21 0 00-.07-1.19h1.53a7.58 7.58 0 00-.07 1.19v.23a4.93 4.93 0 00.95-.07v1.42a5 5 0 00-.95-.06v5.41a4.17 4.17 0 00.84-.06v1.4h-5.77a6.61 6.61 0 00-1.08.06v-1.46a5.46 5.46 0 001 .06h.18v-5.41a6 6 0 00-1.06.06V22a4.23 4.23 0 001.06.07zm2 9.09a9 9 0 01-2.16 2.55 5.26 5.26 0 00-1.08-1.11 6.52 6.52 0 002-2.17zm1.38-6.64v-.93h-2v.93zm0 2.18v-.95h-2v.95zm0 2.3v-1.07h-2v1.07zm.34 1.46a5.52 5.52 0 001.3 1.5 5.41 5.41 0 00-1.05 1 7.73 7.73 0 01-1.34-1.75zm3.7-1.21a7.4 7.4 0 01-1.54 4.5 9.82 9.82 0 00-1.19-1.14 4.73 4.73 0 001.2-2.6 49.7 49.7 0 00.28-6.88 13.66 13.66 0 00-.07-1.82c.45 0 .83.06 1.56.06h2a13.72 13.72 0 001.59-.06 13.49 13.49 0 00-.06 1.54v9.29c0 .68-.19 1.12-.58 1.29a3.89 3.89 0 01-1.39.19h-.88a6.06 6.06 0 00-.37-1.54 6.64 6.64 0 001.24.14c.43 0 .53-.06.53-.31V29zm.17-3.3c0 .82 0 1.34-.07 2h2.17v-2zm2.1-3.2h-2.09v1.85h2.09zm3.16 3.34a7.11 7.11 0 001.12.07h1a6.81 6.81 0 001.06-.07 14.9 14.9 0 000 1.52v3.14a2.08 2.08 0 001.43 1.09 12.77 12.77 0 003.23.21 48.18 48.18 0 005.28-.22 6.39 6.39 0 00-.42 1.48c-1.89.09-3.06.12-4.69.12-.84 0-2 0-2.6-.09a3.73 3.73 0 01-3-1.48 12.7 12.7 0 01-1.62 1.35 4.28 4.28 0 00-.41.32l-.69-1.6a8.58 8.58 0 002-1.37v-3h-.75a5.13 5.13 0 00-1 .07zm1.19-5.2a14.37 14.37 0 012.1 2.46l-1.1 1.21a11.94 11.94 0 00-2.12-2.64zM138 24a7.79 7.79 0 00-1 0v-.5h-.94a5.86 5.86 0 000-.86v-.86a6.52 6.52 0 000-.93 12.4 12.4 0 001.36.06h6.52a13.18 13.18 0 001.34-.06 4.71 4.71 0 00-.06.9v.84a4.05 4.05 0 00.07.91h-1v.5a7.1 7.1 0 00-1 0h-2v.6h2.14a10.88 10.88 0 001.15 0 7.42 7.42 0 00-.06 1v2.12a7.16 7.16 0 00.06 1h-3.28v.63h2.82a6.18 6.18 0 001.12-.07v1.32a7.2 7.2 0 00-1.16-.06h-2.78a6.77 6.77 0 00.09 1h-1.57a7.29 7.29 0 00.08-1h-2.59a6 6 0 00-1.12.07v-1.33a9.43 9.43 0 001.11.07h2.62v-.63h-2a9.58 9.58 0 00-1.12 0 6.83 6.83 0 000-1v-2.1a6.48 6.48 0 000-1h3.12V24zm1.85-1.84h-2.35v.67a2.89 2.89 0 00.43 0h1.92zm-1.69 3.42v.62h1.69v-.62zm0 1.53v.58h1.69v-.58zm5.21-4.26h.38v-.69h-2.51v.69zm-2.13 3.35h1.83v-.62h-1.83zm0 1.49h1.83v-.58h-1.83zm7.28 1.51v-1.63a7 7 0 01-1.28 1.19 6.48 6.48 0 00-.7-1.5 10 10 0 003.45-3.7l1.32.87a5.38 5.38 0 00-.47.62 13.34 13.34 0 01-.81 1.09v5.52a12.17 12.17 0 00.1 1.77h-1.74a12.14 12.14 0 00.1-1.78zm2.61-7.83a5 5 0 00-.42.47 13.39 13.39 0 01-3.23 2.8 6.13 6.13 0 00-.88-1.31 9.12 9.12 0 002.51-1.92 4.89 4.89 0 00.67-1zm1.87 4.81a14 14 0 00-1.73.09V24.7a16.08 16.08 0 001.73.08h4.76a13.7 13.7 0 001.71-.08v1.57a13.55 13.55 0 00-1.67-.09h-.6v5.58c0 1.2-.41 1.5-2.1 1.5h-1.56a5.42 5.42 0 00-.4-1.57 15.85 15.85 0 001.9.15c.56 0 .63 0 .63-.34v-5.32zm-1.17-5a11.67 11.67 0 001.64.08h3.79a11.24 11.24 0 001.59-.08v1.52a12.9 12.9 0 00-1.57-.09h-3.81a13.62 13.62 0 00-1.64.09zm8.58 12.36a10.89 10.89 0 001.77-2.79 9.33 9.33 0 00.75-3.84 9.1 9.1 0 00-.72-3.71 11.47 11.47 0 00-1.79-2.79h2a11.26 11.26 0 011.52 2.76 10 10 0 01.72 3.74 10.55 10.55 0 01-.73 3.87 11.7 11.7 0 01-1.53 2.76z" fill="#3c3c3c"/><path stroke-linejoin="round" stroke-width="2" stroke="#004da0" fill="none" stroke-linecap="round" d="M124.43 108.02h314.96"/><path class="cls-2" d="M238.05 88.85h86.73v38.34h-86.73z"/><path class="cls-5" d="M255.23 101.75a17.87 17.87 0 01-.31 2 10.51 10.51 0 01-.46 1.66l-1.19-.27a17.93 17.93 0 00.62-3.44zm1.88 4.35h-1.61v-4.82c-.85.08-1.5.12-2 .14l-.13-1.28h1c.22-.26.49-.59.81-1-.57-.6-1.18-1.23-1.83-1.86l.93-1 .23.22a12.12 12.12 0 001.06-1.81l1.44.51a17.59 17.59 0 01-1.57 2.21l.56.59a14.34 14.34 0 001.26-2l1.39.59a39.44 39.44 0 01-2.61 3.44l1.35-.09c-.17-.49-.28-.8-.34-.92l1.21-.35c.23.58.52 1.38.86 2.42l-1.3.3a2 2 0 00-.09-.4l-.63.08zm1.92-1.73l-1.29.18a26.39 26.39 0 01-.44-2.71l1.29-.13zm1.88 1.58l-.21-1.52h1.63a.68.68 0 00.72-.52 7.86 7.86 0 00.18-1.93v-4.4h-2.57a11.74 11.74 0 01-.91 1.89l-1.33-.59a22 22 0 00.84-2.23 13.09 13.09 0 00.43-1.89l1.71.17a13.5 13.5 0 01-.32 1.4h3.81v6.34a6.7 6.7 0 01-.28 2.1 1.8 1.8 0 01-.62.77 2.12 2.12 0 01-.84.36c-.15.02-.93.04-2.24.1zm1.31-3.6l-1.6.55a27.53 27.53 0 00-1.26-3.27l1.44-.54a23.19 23.19 0 011.42 3.26zm9.12 4.11v-2.33h.27a7.41 7.41 0 003.61 1.07 3.5 3.5 0 002.08-.53 1.83 1.83 0 00.75-1.58 1.5 1.5 0 00-.59-1.26 4.35 4.35 0 00-2.42-.45h-.74v-1.86h.7c1.89 0 2.83-.56 2.83-1.69a1.17 1.17 0 00-.61-1.07 3.39 3.39 0 00-1.72-.36 7.93 7.93 0 00-3.54 1h-.25v-2.26a12 12 0 014.12-.78 6.17 6.17 0 013.54.84 2.59 2.59 0 011.2 2.22 2.7 2.7 0 01-.67 1.81 3.17 3.17 0 01-1.78 1v.12a3.65 3.65 0 012 1 2.63 2.63 0 01.74 1.92 3.46 3.46 0 01-1.42 2.89 6.16 6.16 0 01-3.83 1.08 11.45 11.45 0 01-4.27-.78zm16.45.78a4.52 4.52 0 01-3.79-1.53q-1.22-1.53-1.21-4.91t1.21-4.89a5.42 5.42 0 017.58 0 8 8 0 011.21 4.89q0 3.4-1.21 4.93a4.54 4.54 0 01-3.79 1.51zm0-11a1.74 1.74 0 00-1.69 1.08 8.63 8.63 0 00-.51 3.46 8.38 8.38 0 00.52 3.44 1.76 1.76 0 001.68 1.09 1.74 1.74 0 001.67-1.1 8.53 8.53 0 00.52-3.45 8.77 8.77 0 00-.5-3.44 1.75 1.75 0 00-1.69-1.05zm15.14 3.96a6.09 6.09 0 01-1.47 3.78 7.3 7.3 0 01-3.39 2.07l-.79-1.36c2.43-.84 3.69-2.33 3.8-4.49h-1.73v-.54a15.7 15.7 0 01-1.36 1l-1.07-1.12a11.74 11.74 0 002.55-2.4 9.31 9.31 0 001.53-2.4l1.78.41a12.69 12.69 0 01-2.46 3.62h5.76a11.24 11.24 0 01-2.29-3.63l1.66-.49a11.09 11.09 0 001.78 2.74 13.78 13.78 0 002.49 2.11l-1.36 1.34-.68-.57a27.7 27.7 0 01-.16 3.28 2.83 2.83 0 01-.76 1.86 2.24 2.24 0 01-1.54.52h-2.28l-.26-1.58h2a.93.93 0 00.9-.54 9.33 9.33 0 00.28-3.08v-.53zM249 123.44h-2.74v-10.11H249v.67h-1.88v8.79H249zm13.76-2.14l-.54.65a8.73 8.73 0 01-2.58-2.21 11.41 11.41 0 01-1.68-2.81 7.59 7.59 0 01-1.72 3 7.42 7.42 0 01-3.05 2l-.31-.6a6.66 6.66 0 003-2.1 6.26 6.26 0 001.47-3.16h-4.18v-.67h4.33v-2.6h.88v2.58h4.33v.67h-4.24a9.13 9.13 0 001.63 3 8.15 8.15 0 002.66 2.25zm5.95-4.13a6 6 0 01-1.66 2.9 8.58 8.58 0 01-2.87 1.83l-.33-.58a7 7 0 003.22-2.49 5.61 5.61 0 001.06-3.16v-2.73h.87v2.81a6.46 6.46 0 00.92 2.33 7.25 7.25 0 001.87 2 9.23 9.23 0 001.84 1.09l-.52.68a9.93 9.93 0 01-2.88-2.08 6.35 6.35 0 01-1.52-2.6zm14.29 2.01h-1.16v2.22h-.94v-2.22h-3.82v-1.08l3.86-4.43h.9v4.75H283zm-2.1-.76v-3.62l-3.16 3.62zm7.98-4.77v.91h-.06a2.4 2.4 0 00-1-.21 2.46 2.46 0 00-1.86.72 3.24 3.24 0 00-.81 2 3.9 3.9 0 011.94-.58 2.75 2.75 0 011.87.63 2.25 2.25 0 01.71 1.79 2.52 2.52 0 01-.78 1.9 2.65 2.65 0 01-1.93.75 2.54 2.54 0 01-2.09-.91 4.09 4.09 0 01-.74-2.64 4.91 4.91 0 011-3.3 3.49 3.49 0 012.84-1.18 3.11 3.11 0 01.91.12zm-3.76 4.08v.51a3.09 3.09 0 00.49 1.88 1.56 1.56 0 001.35.67 1.62 1.62 0 001.25-.49 1.9 1.9 0 00.45-1.35 1.7 1.7 0 00-.43-1.2 1.83 1.83 0 00-1.41-.47 3.47 3.47 0 00-1.7.45zm8.38 3.83a2.31 2.31 0 01-2.06-1 7.41 7.41 0 010-6.09 2.63 2.63 0 014.1 0 7.35 7.35 0 010 6.09 2.29 2.29 0 01-2.04 1zm0-7.26a1.39 1.39 0 00-1.3.7 8.07 8.07 0 000 5.08 1.56 1.56 0 002.6 0 8.23 8.23 0 000-5.07 1.38 1.38 0 00-1.3-.71zm14.88 3.55h-7V122h-.81v-8.6h8.65v7.68a.74.74 0 01-.27.6 1 1 0 01-.69.23h-1.46l-.11-.73h1.26a.38.38 0 00.44-.43zm-7-.65h3v-3.13h-3zm3.84 0h3.17v-3.13h-3.17zm11.34 6.24h-2.74v-.66h1.89V114h-1.89v-.66h2.74z"/><path d="M438.77 86.19c0-.66 7.45-1.19 16.63-1.19h123c9.18 0 16.63.53 16.63 1.19v41.58c0 .65-7.45 1.18-16.63 1.18h-123c-9.18 0-16.63-.53-16.63-1.18z" stroke-miterlimit="10" fill="#004da0" stroke="#004da0"/><path class="cls-2" d="M475.31 102.81h-6.47v.52h4.65v6.44h-2.83a11.11 11.11 0 004.71 2.76l-1.41 2a16.61 16.61 0 01-2.9-1.44 8.87 8.87 0 01-2.22-1.84v3.48h-2.42v-3.55a8.22 8.22 0 01-2.23 2 9 9 0 01-2.62 1.38l-1.62-2.1a10.65 10.65 0 002.63-1.12 6.14 6.14 0 001.95-1.64h-2.76v-6.44h4.65v-.52h-6.6v-2.1h6.6v-1.18h2.42v1.25h6.47zm-11.12 3h2.23v-.59h-2.23zm0 2h2.23v-.59h-2.23zm4.65-2h2.22v-.59h-2.22zm0 2h2.22v-.59h-2.22zm8.35-4.61v-2.1h6.47v-1.71h2.49v1.71h6.46v2.1zm4 6.24l2 1a8.47 8.47 0 01-4.25 4.07l-1.61-1.9a8.39 8.39 0 003.83-3.17zm1.69 5.19l-.88-2.17h1.21c.54.09.77-.15.68-.72v-2.43h-4.65v-5.39h11.31v5.39h-4.17v3.48c0 1.22-.56 1.84-1.68 1.84zm-1.28-7.49h6.6V106h-6.6zm6.93 2.36a13.87 13.87 0 004.11 2.89l-1.61 2a21 21 0 01-2.36-1.84 15.81 15.81 0 01-1.82-1.9zm8.47-9.32v5.12a24.75 24.75 0 007.07-2.75l1.82 1.7a30.11 30.11 0 01-8.89 3.48v2.43q0 1 1.14 1c2.11 0 4.72 0 7.81-.07l-.33 2.36h-8.55a2.09 2.09 0 01-2.5-2.49v-10.78zm6.87 1.58l1-.86 1.48 1.51-1 .92zm1.41-1.12l1-.85 1.35 1.44-.94.86zm2.89 3.02l1.88-.72a26.68 26.68 0 011.42 3.35l-1.89.79a33.48 33.48 0 00-1.41-3.42zm1.75 8.41a12.12 12.12 0 005.59-3.68 15.12 15.12 0 002.29-5.71l2.35.78a16.67 16.67 0 01-3 6.5 14.42 14.42 0 01-5.86 4.08zm1.82-9l2-.72c.49 1.05 1 2.12 1.41 3.22l-2 .65c-.52-1.22-.97-2.22-1.41-3.15zm9.56 3.68a17.23 17.23 0 005.12-6.83l2.42.92-.61 1.38h4l.21-.27 1.95 1.19a18.43 18.43 0 01-9.16 11.16l-1.88-2c3.94-2 6.53-4.62 7.74-8h-4.24a21.66 21.66 0 01-3.57 4zm9-6.77l1.15-.78 1.54 1.7-1.21.79zm2.43-.06l1.07-.79 1.55 1.64-1.21.86zm3.27 5.58v-2.23h2.89v-3h2.49v3h3.3v-3.15h2.5v3.15H550v2.23h-2.82a10 10 0 01-1.22 5.19 9.16 9.16 0 01-4 3.41l-1.81-1.84a8.47 8.47 0 003.5-2.69 6.94 6.94 0 001.07-4.07h-3.3v3.61h-2.49v-3.61zm14.66 1.64a27.11 27.11 0 0010.91-7.09l2.15 1.71a23.07 23.07 0 01-4.51 3.74v8.5h-2.63v-6.89a33.61 33.61 0 01-4.51 2.36zM565 99.85h2.56v5.58l1.21-1.44a55 55 0 015.66 3.81l-1.62 2a47.2 47.2 0 00-5.25-3.68v8H565z"/><path d="M35 87.23c0-.65 4.26-1.18 9.52-1.18h70.39c5.25 0 9.52.53 9.52 1.18v41.58c0 .66-4.27 1.19-9.52 1.19H44.52c-5.26 0-9.52-.53-9.52-1.19z" stroke-linejoin="round" stroke-width="2" stroke="#004da0" fill="#fff"/><path class="cls-5" d="M47.41 114.19v-11.74h9.52v11.74H55v-.7h-5.63v.7zm2-7.1H55v-2.93h-5.63zm0 4.69H55v-3.09h-5.63zm17.69 1.98l-1-1.71a5.43 5.43 0 002.79-1.71 3.57 3.57 0 00.49-3.78 2.88 2.88 0 00-3-1.71c0 3.7-.81 6.22-2.41 7.58a2 2 0 01-2 .42 3 3 0 01-1.64-1.55 5 5 0 010-4.53 5.9 5.9 0 013.39-3.2 6.83 6.83 0 013.34-.43 4.91 4.91 0 013 1.28 4.71 4.71 0 011.59 3.2 5.35 5.35 0 01-1 3.68 7 7 0 01-3.55 2.46zm-2.52-8.7a3.82 3.82 0 00-2.73 3.47A3 3 0 0062 110c.22.61.51.82.88.64a2.82 2.82 0 001.2-1.76 12.15 12.15 0 00.5-3.82zm19.87-2.13v4.91h-4.33v3.94H83v-3.36h2v5.87h-2v-.74h-7.69v.74h-2v-5.87h2v3.36h2.79v-3.94h-4.32v-4.91h2v3.2h2.32v-4.21h2v4.21h2.36v-3.2zm10.72-1.12v1.6l1.37-.11a2.81 2.81 0 00-.76-1l1.36-.8a2.44 2.44 0 011 1.23l-1 .53 1.75-.16.11 1.7-3.67.26.06.7 3.23-.22v1.6l-3.06.22.11.69 3.72-.32v1.65l-1.75.16.88.7a8.82 8.82 0 01-1.52 1.49c.19.36.39.5.61.43s.38-.41.82-1.34l1.34 1.18a6.08 6.08 0 01-.44 1.07 2.86 2.86 0 01-.77 1 1.78 1.78 0 01-1.37.32 2 2 0 01-1.25-.7l-.66-.69a8.49 8.49 0 01-3.28 1.29l-1-1.6a9.16 9.16 0 003.61-1.39 8.35 8.35 0 01-.44-1.49l-2.9.21-.16-1.49-.5 1.12q-.21-.32-.54-.75v5.34h-1.9v-4.38a6.18 6.18 0 01-.66 1.44l-.88-2a15.16 15.16 0 001.48-3.3H86.8v-1.71h1.37v-2.45H90v2.45h.87v-.58l2.41-.11-.06-1.76zm-4 6.51l2.62-.16-.11-.64-2 .16-.12-1.68 1.86-.11-.06-.64-2.4.16v.59h-.82a15.83 15.83 0 001.2 1.87zm4.92 1.33l.22.59a2.07 2.07 0 00.6-.64zM113 108.1a5.34 5.34 0 01-1-.58v.74h-5.42v-.74a4.15 4.15 0 01-.87.74l-1-1.54a4.26 4.26 0 001.75-1.23H105v.59h-1a14.58 14.58 0 001.26 2l-.66 1.81-.6-.89v5.28h-1.92v-3.73l-.6 1.17-.82-2.13a12.46 12.46 0 001.37-3.52h-1.23v-1.6h1.26V102H104v2.51h.87v-.54h2.58l.16-.32-1.7.06-.87-1.44a38.76 38.76 0 007.06-.54l1.09 1.5a33.82 33.82 0 01-3.39.37l-.22.37h3.94v1.55h-1.59a3.72 3.72 0 001.86 1zm-2.3 6.14l-.38-1h-1.42v.32h-1.42v-3.16h3.45v2a.27.27 0 00.32-.1.34.34 0 00.06-.33v-1.86h-4.21v4.16h-2v-5.66h8.09v4.11a1.36 1.36 0 01-1.53 1.55zm-1.09-8.75h-1a2.31 2.31 0 01-.38.43H110zm-1.2 1.76H110v-.32h-1.64zm1.2 4.8v-.59h-.66v.59z"/></g></g></svg>