<svg xmlns="http://www.w3.org/2000/svg" width="630" height="255"><defs><style>.cls-16,.cls-2{fill:#fff}.cls-16{stroke-linejoin:round;stroke-width:2px;stroke:#004097}.cls-17{fill:#004097}</style></defs><g id="レイヤー_2" data-name="レイヤー 2"><g id="object"><rect width="630" height="255" rx="10" fill="#e6e6e6"/><path class="cls-2" d="M625 55v190a5 5 0 01-5 5H10a5 5 0 01-5-5V55z"/><path d="M25 20.85a13.13 13.13 0 00-.5 2.7 14.1 14.1 0 00-.18 1.4 1.66 1.66 0 00.08-.31 5.82 5.82 0 01.89-1.64A3.34 3.34 0 0128 21.55a2.93 2.93 0 012.39 1.26 5.86 5.86 0 011 3.72 5.89 5.89 0 01-3.61 5.76 12.6 12.6 0 01-2.75.79 5.26 5.26 0 00-.83-1.66 7.94 7.94 0 003.07-.8c1.63-.82 2.37-2.15 2.37-4.28s-.67-3.14-1.88-3.14a2.1 2.1 0 00-1.51.74 6.75 6.75 0 00-1.77 4.53v.29H22.8a.77.77 0 000-.18v-1.99c0-1.14.08-2.69.19-3.66l.21-1.74a2.88 2.88 0 000-.47zm13.4 6.27l.26-.31a2.63 2.63 0 011.81-.81 1.89 1.89 0 011.57.8c.28.44.35.95.35 2.56 0 1 .06 1.29.31 1.5a1.19 1.19 0 00.74.19c.74 0 1.35-.51 1.75-1.49a8.87 8.87 0 00.53-2.23 4.66 4.66 0 001.55 1.05c-.61 2.9-2 4.36-4.1 4.36A2.2 2.2 0 0141 31.51a4 4 0 01-.26-1.51v-1.14a2 2 0 00-.11-.83.71.71 0 00-.63-.32c-.76 0-1.54.7-2.23 2a16.08 16.08 0 00-1.17 3.21l-1.81-.59c.19-.4.32-.74.77-2 3.22-8.95 3.22-8.95 3.32-9.52l1.89.47a13.31 13.31 0 00-.69 1.61c-.8 2.05-1.41 3.58-1.72 4.23zM54.07 21a2.43 2.43 0 00-.12.43c0 .18 0 .25-.08.48s0 .29-.24 1.34a3.69 3.69 0 01-.1.52h.87a2.69 2.69 0 012.07.74 3.39 3.39 0 01.66 2.48c0 2.41-.4 4.33-1.08 5.1a1.77 1.77 0 01-1.55.63 6.65 6.65 0 01-2.16-.41v-.61a5.3 5.3 0 00-.14-1.19 5.94 5.94 0 002.05.54c.4 0 .63-.26.84-.95a12.64 12.64 0 00.36-3.19c0-1.29-.32-1.67-1.43-1.67a7.83 7.83 0 00-.81 0 28.68 28.68 0 01-.86 3 29.13 29.13 0 01-1.68 3.94l-.21.42c0 .08 0 .1-.11.24L48.76 32a14.83 14.83 0 001.45-2.64 23 23 0 001.36-4c-.71.09-2 .32-2.51.45l-.16-1.65c.51 0 2.21-.17 3-.28a21.85 21.85 0 00.36-2.83v-.27zm4.63 1.79a13.75 13.75 0 012.89 5.46l-1.6.82a12.75 12.75 0 00-1.12-3.18 8.83 8.83 0 00-1.61-2.4zm6.72-.79a16.22 16.22 0 00-.11 2.13 27 27 0 00.26 3.75c.24 1.45.69 2.35 1.14 2.35.21 0 .4-.21.57-.6a10.06 10.06 0 00.72-2.54 7.28 7.28 0 001.4 1.28c-.72 2.73-1.54 3.87-2.73 3.87-.94 0-1.69-.69-2.25-2s-.83-3.43-.89-7.31a6.37 6.37 0 000-.89zm6.62.63a13.93 13.93 0 013.16 7.53l-1.74.66a14.45 14.45 0 00-.9-4.05 12 12 0 00-2-3.44zm4.6 3.81h1.1c.35-.45.46-.6.77-1.05a14.18 14.18 0 00-1.89-2.06l.72-1.21.52.55a8.23 8.23 0 001.14-2.3l1.35.51a4.51 4.51 0 00-.3.58 19.45 19.45 0 01-1.28 2.22l.52.65A15.39 15.39 0 0080.57 22l1.24.67-.47.76c-.84 1.31-1.38 2.08-2.1 3 .82-.05 1.14-.08 1.54-.12a11 11 0 00-.41-1.13l1-.4a16 16 0 01.88 2.6l-1.09.49a3 3 0 01-.09-.4l-1 .11V32a8.27 8.27 0 00.08 1.47h-1.5a12.74 12.74 0 00.08-1.47v-4.3a4.41 4.41 0 01-.56 0 8.66 8.66 0 00-1.37.13zm1.74 2.06a17 17 0 01-.57 4.27l-1.18-.6a13 13 0 00.55-3.82zm3-.26a21.1 21.1 0 01.45 2.76l-1.11.31a17.23 17.23 0 00-.35-2.83zm1.21.75a4.59 4.59 0 00-.81.05v-1.4a4.29 4.29 0 00.85.06h1a3.37 3.37 0 00.66-.05l.51.66a3.3 3.3 0 00-.13.38 8.65 8.65 0 01-1.15 2.48A8.76 8.76 0 0181.84 33a3.66 3.66 0 00-1-1.12A6.2 6.2 0 0083.19 29zm3.71-2.25a6 6 0 00.7 1.74 9.36 9.36 0 001.5-1.57l1 .9a16.31 16.31 0 01-1.82 1.72 7.83 7.83 0 002.17 2.06 4.7 4.7 0 00-.9 1.39 7.68 7.68 0 01-1.47-1.5A9 9 0 0186 28.93c.09.85.13 1.46.13 1.89V32c0 .9-.44 1.25-1.68 1.25a.15.15 0 01-.08 0H84a2.42 2.42 0 01-.47 0 4.38 4.38 0 00-.38-1.41 7.06 7.06 0 001.15.13c.35 0 .43-.08.43-.34v-4.89h-1.12c-.49 0-1 0-1.39.06a12.91 12.91 0 00.06-1.36v-2.53a13.74 13.74 0 00-.06-1.38 9.44 9.44 0 001.36.06h.8a7.2 7.2 0 00.37-1.23l1.57.22a9.41 9.41 0 01-.42 1h1.56a9.12 9.12 0 001.36-.06 10.61 10.61 0 00-.06 1.4v2.53a9.46 9.46 0 00.06 1.34c-.4 0-.86-.06-1.33-.06zm-2.59-3.12h3.64v-.88h-3.66zm0 2h3.64v-.89h-3.66zm15.58 2.2v-7.41h4.19v1.53H101v5.88zm5.71-5.18a15.53 15.53 0 00-.09-1.69 15 15 0 001.66.06h8.84a16.22 16.22 0 001.65-.06 13.38 13.38 0 00-.09 1.68v9a11.24 11.24 0 00.09 1.81h-1.6v-.8h-9v.8h-1.6a12.52 12.52 0 00.14-1.84zm1.51 8.63h9v-8.9h-9zm2.1-6.7a8.56 8.56 0 00-1.27.07v-1.41a8.3 8.3 0 001.27.07h4.77a8.49 8.49 0 001.3-.07v1.41a8.84 8.84 0 00-1.3-.07h-1.78V26h1.44a6.09 6.09 0 001.2-.07v1.39a4.8 4.8 0 00-.89-.07 7 7 0 01.88 1.35l-.76.43a7.16 7.16 0 001.38-.09v1.46a8.54 8.54 0 00-1.32-.07h-5.07a7.81 7.81 0 00-1.33.07V29a6.84 6.84 0 001.33.09h1.68v-1.81h-1.21a6.45 6.45 0 00-1.2.07V26a6.21 6.21 0 001.2.07h1.21v-1.5zm3 4.49h1.51a6.4 6.4 0 00-.88-1.41l.74-.37h-1.37zm12.51-4.93a5.87 5.87 0 01.76.64 4.77 4.77 0 00.42-.51 5.92 5.92 0 00-.84-.58l.66-.91a5.48 5.48 0 01.79.56 7.9 7.9 0 00.41-.93H125a10.62 10.62 0 01-2.08 2.51 4.72 4.72 0 00-.47-1l-.61 1.54a4.45 4.45 0 011 1.82 3.87 3.87 0 01.11 1.06c0 1-.32 1.66-.92 1.92a2.48 2.48 0 01-1 .14h-.21c0-.88 0-1.06-.25-1.42h.53c.36 0 .52-.27.52-.83a4 4 0 00-1.1-2.69 11.69 11.69 0 001-3.23h-1.14v9.41c0 .74 0 1.34.06 1.74h-1.53a13.51 13.51 0 00.08-1.74v-9.4a12.24 12.24 0 000-1.35 6.33 6.33 0 00.94.05h1.69a6.15 6.15 0 001-.05l.7.79a2.14 2.14 0 00-.2.47c-.08.25-.26.77-.42 1.23a7.22 7.22 0 001.67-2.51 1.51 1.51 0 00.16-.53l1.47.22a1.37 1.37 0 00-.21.42 1 1 0 00-.09.2h.7a9.83 9.83 0 001.15 0 6.21 6.21 0 001.29 2.67 6 6 0 001-1.37h-1.1a4.62 4.62 0 00-.6 0v-1.39a4.62 4.62 0 00.84.06h1a4 4 0 00.94-.06l.67.9a8.35 8.35 0 00-.46.77 10.91 10.91 0 01-1.4 1.95 7.4 7.4 0 002.21 1.43 5.35 5.35 0 00-.74 1.47 9.94 9.94 0 01-1.79-1.28v.82a5.4 5.4 0 00-.86-.05h-2.6a6.06 6.06 0 00-.79.05v-.77a9.64 9.64 0 01-1.58 1.28 3.5 3.5 0 00-.76-1.14 9.58 9.58 0 001.31-1 3.93 3.93 0 00-.7-.61zm1.21 6a9.05 9.05 0 01-2.44 3 4.46 4.46 0 00-1-1.1 5.57 5.57 0 002.27-2.48zm-.76-.9a8.2 8.2 0 00-1.23.06v-1.44a9.24 9.24 0 001.3.07h5.24a7 7 0 001.33-.07v1.47a11.94 11.94 0 00-1.32-.07h-2.07V32c0 1.09-.34 1.34-1.77 1.34h-1.14a4.12 4.12 0 00-.35-1.5 8.44 8.44 0 001.45.17c.32 0 .39-.07.39-.35v-2.41zm4.2-3.43a8.67 8.67 0 01-1.64-2.45 7.42 7.42 0 01-1.52 2.45h3.16zm.93 3.77a6 6 0 002 2.25 6.61 6.61 0 00-.83 1.25 8.66 8.66 0 01-2.43-2.94zm14.63.03l-.61.52a8.81 8.81 0 01-1.16 1 9 9 0 003 1 4.44 4.44 0 00-.9 1.43 9.89 9.89 0 01-4.17-2.14v.99c-1.12.27-2.49.54-5 1l-.55.11-.24-1.6h.3c.33 0 .75 0 1.42-.11V29H135a10.72 10.72 0 01-1.46 4.52 7.55 7.55 0 00-1.26-1.27 7.54 7.54 0 001.07-2.71 35.68 35.68 0 00.43-6.44 16.7 16.7 0 00-.08-2.23 15.24 15.24 0 001.83.07h9.23v2.34a10.25 10.25 0 000 1.21h-2.35v.94h.81a10.63 10.63 0 001.39-.05v1.4a11.8 11.8 0 00-1.42-.06h-.78v1.08h1.23a11.88 11.88 0 001.59-.07v1.37c-.48 0-1-.07-1.56-.07H143zm-7-5v-.17h-2.1c0 1.54 0 2.37-.12 3.31h2.22v-1.08h-.53a7.78 7.78 0 00-1.19.06v-1.4a9.25 9.25 0 001.19.05h.53zm5.91-1.36v-1h-8v1zM137.87 29v2.53c.8-.11 1-.15 2.38-.43a6 6 0 01-1.43-2.1zm3.07-3.66v-.94h-2.17v.94zm0 2.37v-1.05h-2.17v1.08zm-.59 1.29a3.57 3.57 0 001.09 1.31 6.15 6.15 0 001.37-1.31zm10.5-1.68a13.49 13.49 0 01-2.87 5 4.28 4.28 0 00-1.35-1 9.77 9.77 0 002.69-4.49zm-2.29-1.39a13.38 13.38 0 00-1.68.09v-1.67a11.31 11.31 0 001.7.08h8.91a15.68 15.68 0 001.69-.08V26a13.5 13.5 0 00-1.68-.09H154v5.65c0 .81-.11 1.12-.46 1.36a3.11 3.11 0 01-1.66.26c-.6 0-1.1 0-1.59-.05a4.22 4.22 0 00-.39-1.57 11 11 0 001.75.17c.66 0 .73 0 .73-.36v-5.44zm9.25-3.19a14.43 14.43 0 00-1.7-.09h-6.26a16.15 16.15 0 00-1.67.09v-1.6a13.66 13.66 0 001.69.08h6.26a14.23 14.23 0 001.68-.08zm-1.08 4a12 12 0 001.55 2.86 10.44 10.44 0 001.34 1.5 8.39 8.39 0 00-1.29 1.19 15.69 15.69 0 01-3-5zm9.5 2.39a8.6 8.6 0 01-1.72 1.19 3.48 3.48 0 00-.53-.75 25.78 25.78 0 01-2.79 1.43.84.84 0 01-.18.12.3.3 0 00-.14.07l-.35-1.64a11.18 11.18 0 001.58-.55v-3.68h-.41a6.44 6.44 0 00-1.09.07v-1.5a7 7 0 001.11.07h.39v-1.74a11.93 11.93 0 00-.08-1.55h1.62a9.36 9.36 0 00-.08 1.56V24h.25a6.09 6.09 0 001-.06v1.47a7.55 7.55 0 00-1-.05h-.26v3c.38-.2.49-.27.94-.52v1a5.58 5.58 0 001.66-1.42h-.31a10.5 10.5 0 00-1.3.07V26a7.41 7.41 0 001.32.07H172a10.3 10.3 0 001.46-.08v1.4a11.75 11.75 0 00-1.45-.06h-4.28a6.25 6.25 0 01-.38.57h5.81c0 .23 0 .41-.05.83a12 12 0 01-.58 3.81c-.28.64-.73.83-2 .83h-1.17A3.47 3.47 0 00169 32a10.26 10.26 0 01-2.31 1.55 3.93 3.93 0 00-1-1.07 8.58 8.58 0 002.55-1.48 6.33 6.33 0 001.45-1.86h-.84a8.41 8.41 0 01-3.85 3.05 3.59 3.59 0 00-.89-1.06 7.34 7.34 0 003.25-2zm.42-3.62a10.45 10.45 0 00-1.29.06 10.77 10.77 0 00.06-1.36v-2.05a9.22 9.22 0 00-.06-1.27 9.41 9.41 0 001.42.07h4.08a9.81 9.81 0 001.49-.07 12.06 12.06 0 000 1.39v1.93a11.4 11.4 0 000 1.34h-1.27zm.21-2.73h4v-.59h-4zm0 1.6h4v-.58h-4zm4.28 4.75a7.87 7.87 0 01-2 2.74 9.11 9.11 0 001.45.11c.52 0 .67-.14.8-.74a19.36 19.36 0 00.23-2.11zm7.58-3.02v7.41h-4.19V32h2.52v-5.89zm11.38 2.76a15.77 15.77 0 01-.62 4l-1.09-.5a11.39 11.39 0 00.67-3.7zm2.82-1.79h.57a6.7 6.7 0 001.16-.06 4.19 4.19 0 000 .54 29.66 29.66 0 01-.33 4c-.15.9-.35 1.3-.75 1.54a2.68 2.68 0 01-1.45.24h-.37v-.14a2.94 2.94 0 00-.27-1.26 4.88 4.88 0 00.9.08c.46 0 .58-.09.7-.54a13 13 0 00.28-3.18h-4.21a11.77 11.77 0 000-1.37v-5.97a12 12 0 001.57.07h2.48a13.16 13.16 0 001.52-.07v1.4a6.74 6.74 0 00-1.17-.07h-.63v.84h.46a6 6 0 001.06-.06v1.24a6.38 6.38 0 00-1.06-.06h-.46V25h.46a7.11 7.11 0 001.06-.06v1.25a6.38 6.38 0 00-1.06-.06h-.46zm-1.92 1.7a20.37 20.37 0 01.21 3.36l-.89.12v-1.3c0-.92 0-1.23-.07-2.07zm.62-6.49h-1.07v.84h1.07zm0 2h-1.07V25h1.07zm-1.07 1.92v.91h1.07v-.91zm1.35 2.54a16.2 16.2 0 01.45 2.73l-.77.25a13.6 13.6 0 00-.34-2.82zm.84-.12a8 8 0 01.49 1.87l-.66.29a9.77 9.77 0 00-.41-2zm6.6-2.17a10.31 10.31 0 00.79 3.39 6.48 6.48 0 001.55 2.3 4 4 0 00-1.13 1.39 10.2 10.2 0 01-1.79-3.14 13.18 13.18 0 01-.78-3.94h-1.17a24.33 24.33 0 01-.3 3.88 10.45 10.45 0 01-1.07 3.18 3.91 3.91 0 00-1.29-.87c1-1.71 1.28-3.48 1.28-9.58a18.11 18.11 0 00-.07-2 10.84 10.84 0 001.6.07h2.56a9.86 9.86 0 001.53-.07 10 10 0 00-.06 1.51v2.36a11.75 11.75 0 00.06 1.52h-1.24zm.21-1.33v-2.66h-2.69v2.62zm5.04-2.43a17.87 17.87 0 00-1.88.08v-1.64a17.15 17.15 0 001.88.08h8.8a17.51 17.51 0 001.88-.08v1.64a18.12 18.12 0 00-1.88-.08h-3.95v1.63a36.52 36.52 0 015 2.58l-.8 1.4a28.65 28.65 0 00-4.23-2.39v5.47a14.07 14.07 0 00.1 1.94h-1.82a14.26 14.26 0 00.09-1.94V22.7zm17.57-.99a6.64 6.64 0 00-.09-1.2h1.72a6.62 6.62 0 00-.1 1.2v.09h3.88a9.28 9.28 0 001.63-.1v1.5a12.38 12.38 0 00-1.59-.08h-3.92v.82h2.83a9.55 9.55 0 001.55-.07 13.43 13.43 0 000 1.43v2.62a13.43 13.43 0 000 1.43 10.07 10.07 0 00-1.56-.07h-2.82v.87h4a8.87 8.87 0 001.61-.1v1.53a11.48 11.48 0 00-1.64-.09h-4v.37a9.64 9.64 0 00.1 1.58h-1.72a10.12 10.12 0 00.09-1.58v-.37h-3.78a11.48 11.48 0 00-1.64.09v-1.53a9.32 9.32 0 001.61.1h3.81v-.87h-2.62a10.37 10.37 0 00-1.58.07 13.58 13.58 0 00.06-1.43v-2.6a14 14 0 00-.06-1.45 9.56 9.56 0 001.54.07h2.66v-.82h-3.73a12.38 12.38 0 00-1.59.08v-1.5a10.07 10.07 0 001.63.1h3.72zm-2.64 3.48V26h2.64v-.84zm0 2V28h2.64v-.85zm7-1.15v-.84h-2.83v.8zm0 2v-.85h-2.83V28zm16.13-1.72h-2.13c-.49 0-.91 0-1.45.07v-1.5a12.77 12.77 0 001.48.07h2.11v-1.54H241c-.52 0-1 0-1.43.06V22a11.12 11.12 0 001.43.07h1.68v-.21a6.79 6.79 0 00-.07-1.28h1.67a5.46 5.46 0 00-.09 1.25v.24H246a11.29 11.29 0 001.44-.07v1.48c-.43 0-.87-.06-1.4-.06h-1.84V25h2.48a10.56 10.56 0 001.46-.07v1.5c-.46 0-.94-.07-1.46-.07h-2.49v1.54H246a9.88 9.88 0 001.42-.07v1.57a11.8 11.8 0 00-1.42-.07h-1.83v2.16a11.76 11.76 0 002 .14c.54 0 1 0 2.15-.1a7.41 7.41 0 00-.42 1.61h-1.41a10 10 0 01-4.22-.83 5.11 5.11 0 01-1.62-1.44 9.53 9.53 0 01-1.4 2.67 6.71 6.71 0 00-1.19-1 6.21 6.21 0 00.07 1h-1.61a14.16 14.16 0 00.08-1.62v-4.17a6.92 6.92 0 01-1 1.05 5.71 5.71 0 00-.63-1.5 10 10 0 002.36-2.36 5.82 5.82 0 00.67-1.24l1.22.89a4.84 4.84 0 00-.41.6 12.27 12.27 0 01-.79 1.09v6.14a7.93 7.93 0 001.41-2.66 10.06 10.06 0 00.46-2.58v-.13l1.54.27c-.07.28-.07.28-.26 1.36 0 .16 0 .28-.13.64a3.93 3.93 0 001.61 1.68zm-3.48-5l-.45.52a13.47 13.47 0 01-2.95 2.58 4.79 4.79 0 00-.8-1.3 9.5 9.5 0 002-1.49 4.88 4.88 0 001-1.2zM253.66 27a10.49 10.49 0 01-3.4 3.32 6.77 6.77 0 00-1-1.14 7.49 7.49 0 003.15-2.92zm6.75-2.34a11.25 11.25 0 001.59-.06v1.56a11.46 11.46 0 00-1.55-.09h-3.85v2.8a1.09 1.09 0 01-.68 1.14 3.5 3.5 0 01-1.26.17h-1.17a4.72 4.72 0 00-.39-1.43 12.42 12.42 0 001.39.1c.46 0 .57-.06.57-.27v-2.51h-4a11.84 11.84 0 00-1.6.09V24.6a12 12 0 001.6.08h.56v-1.89a11.06 11.06 0 00-.07-1.23h1.65a6.33 6.33 0 00-.08 1.23v1.89h2V21.9a9.67 9.67 0 00-.07-1.33h1.71a7.81 7.81 0 00-.08 1.2V22h2.84a9.52 9.52 0 001.46-.09v1.49a9.3 9.3 0 00-1.46-.07h-2.84v1.31zm-.64 4.88l-.64.59a11.21 11.21 0 01-4.21 2.59 13.77 13.77 0 01-4.14.71 5.53 5.53 0 00-.66-1.58h.45a11.2 11.2 0 005.81-1.44 6.14 6.14 0 002.1-1.94zm-.85-3.28a9.29 9.29 0 003.33 2.58 8.54 8.54 0 00-1.05 1.26 14.1 14.1 0 01-3.52-3.1zm16.35-3.4a9.53 9.53 0 00-1.46 2 18 18 0 00-2.6 7.58H269a20.58 20.58 0 011.7-5.42 23 23 0 012.44-4.02h-4.33a13.19 13.19 0 00-1.83.1v-1.89a15.32 15.32 0 001.91.1h4.46a16.9 16.9 0 001.92-.07zm8.73 3.88a10 10 0 00-1.19.07v-1a13.31 13.31 0 01-1.81 1.56 5.13 5.13 0 00-1.06-1.37 10.65 10.65 0 003.68-4 4.2 4.2 0 00.56-1.41l1.68.6a3.94 3.94 0 00-.38.71 15.22 15.22 0 01-2.25 3.41 6.81 6.81 0 00.73 0h6.02a14 14 0 01-2.31-3.51c-.06-.14-.2-.42-.29-.59l1.55-.61a5.18 5.18 0 00.55 1.22 10.93 10.93 0 003.88 4.07 6.58 6.58 0 00-1.07 1.51 14.46 14.46 0 01-1.73-1.47v.47a19.12 19.12 0 01-.59 5.86c-.31.62-.81.81-2.06.81l-1.44-.07a6 6 0 00-.42-1.64 11.61 11.61 0 001.69.18c.52 0 .67-.06.8-.27a13.79 13.79 0 00.43-3.72v-.82h-2.69a7.47 7.47 0 01-1.09 3.59 8.09 8.09 0 01-3.56 3.08 4.76 4.76 0 00-1-1.37 6.51 6.51 0 002.17-1.29 5.44 5.44 0 001.84-3.19c0-.24.05-.41.08-.82z" fill="#3c3c3c"/><path stroke-linejoin="round" stroke-width="2" stroke-linecap="round" stroke="#8dc21f" fill="none" d="M40 108.69h140.03"/><circle cx="40.26" cy="108.69" r="5.26" transform="rotate(-67.5 40.26 108.687)" fill="#8dc21f"/><path stroke="#f29600" stroke-linejoin="round" stroke-width="2" stroke-linecap="round" fill="none" d="M40 152.5h140.03"/><circle cx="40.26" cy="152.5" r="5.26" transform="rotate(-67.5 40.262 152.503)" fill="#f29600"/><path stroke="#00a172" stroke-linejoin="round" stroke-width="2" stroke-linecap="round" fill="none" d="M40 196.32h140.03"/><circle cx="40.26" cy="196.32" r="5.26" transform="rotate(-67.5 40.264 196.32)" fill="#00a172"/><path stroke="#004097" stroke-linejoin="round" stroke-width="2" stroke-linecap="round" fill="none" d="M223.22 152.5h204.39"/><path stroke="#c6000b" stroke-linejoin="round" stroke-width="2" stroke-linecap="round" fill="none" d="M590 107.44H472.51"/><circle cx="589.74" cy="107.44" r="5.26" transform="rotate(-80.78 589.754 107.428)" fill="#c6000b"/><path stroke="#cbbd00" stroke-linejoin="round" stroke-width="2" stroke-linecap="round" fill="none" d="M590 176.27H472.51"/><circle cx="589.74" cy="176.27" r="5.26" transform="rotate(-80.78 589.76 176.262)" fill="#cbbd00"/><path d="M89.34 122.68a2.21 2.21 0 01-.68 1.71 2.71 2.71 0 01-1.88.61 7.37 7.37 0 01-1.5-.16v-1a4 4 0 001.3.25 1.93 1.93 0 001.22-.32c.28-.21.41-.72.41-1.54v-5.13h-1.9v-.83h3zm9.18 2.2h-1.41l-2.87-3.46h-1.77v3.46h-1.08v-8.61h2.47a3.82 3.82 0 012.49.64 2.15 2.15 0 01.75 1.7 2.56 2.56 0 01-1.76 2.51zm-6-7.71v3.37h1.26a2.51 2.51 0 001.72-.48 1.79 1.79 0 00.52-1.4c0-1-.68-1.49-2-1.49zm9.89 8.31v-8.06h.93v6.67h3.37v-8.49h.93v8.49h3.43v-6.69h.93v8h-.92v-.67h-7.73v.71zm11.31-3.48v-.73h5.14v-2.05h-4.67v-.71h4.67v-1.84c-1.62.13-3 .19-4.29.19l-.09-.71a44.68 44.68 0 008.7-.77l.41.68a29.07 29.07 0 01-3.82.54v1.91h4.3v.71h-4.3v2.05h4.85v.73h-4.85v2.64a.83.83 0 01-.34.68 1.25 1.25 0 01-.79.26h-1.73l-.09-.8h1.51a.61.61 0 00.36-.13.38.38 0 00.17-.31V122zm12.14 2.7l-.66-.15a14 14 0 00.57-2.83h.77a16.29 16.29 0 01-.31 1.63 11.36 11.36 0 01-.37 1.35zm1.29.91v-4.8l-1.75.14-.11-.71h.61c.3-.36.64-.81 1-1.36-.19-.19-.73-.72-1.63-1.57l.51-.51.22.2a10.9 10.9 0 001.07-1.81l.78.28a21.45 21.45 0 01-1.36 2l.83.82a13.66 13.66 0 001.19-1.89l.79.32a34.35 34.35 0 01-2.57 3.48c.82 0 1.49-.07 2-.11l-.26-.86.7-.19q.33 1 .57 1.86l-.72.19c0-.07 0-.21-.11-.42l-1 .09v4.86zm1.72-1.92c-.1-.48-.21-1.14-.32-2l.68-.1c.08.5.19 1.15.32 2zm.66 1.61l-.43-.5a5.1 5.1 0 001.49-1.51 4.3 4.3 0 00.67-1.66H130V121h2l.18.18a5.36 5.36 0 01-.87 2.37 4.94 4.94 0 01-1.78 1.75zm3.06.24h-1.17l-.09-.75h.88c.28 0 .43-.13.43-.39v-4.33h-2.37V116h2l.33-1 .88.17-.4.8H136v4.08h-2.41v.6a6.44 6.44 0 00.72 1.4 13.56 13.56 0 001.74-1.39l.62.51a15.9 15.9 0 01-2 1.4 9.86 9.86 0 002.18 2.1l-.56.59a8.6 8.6 0 01-2.72-3.22v2.64a.75.75 0 01-.28.6 1 1 0 01-.7.26zm-1.51-7.79h4v-1.11h-4zm4 .61h-4v1.09h4zm-64.47 48.49a2.21 2.21 0 01-.68 1.71 2.71 2.71 0 01-1.88.61 7.45 7.45 0 01-1.5-.16v-1a4 4 0 001.3.25 1.93 1.93 0 001.22-.32c.28-.21.41-.72.41-1.54v-5.14h-1.9v-.83h3zm9.18 2.2h-1.41l-2.87-3.46h-1.77v3.46h-1.08v-8.61h2.47a3.82 3.82 0 012.49.64 2.15 2.15 0 01.75 1.7 2.56 2.56 0 01-1.76 2.51zm-6.05-7.71v3.37H75a2.51 2.51 0 001.72-.48 1.79 1.79 0 00.52-1.4c0-1-.68-1.49-2-1.49zm10.56 3.08c-.48-.62-.93-1.15-1.34-1.59l.64-.52c.38.38.84.89 1.39 1.54zm-.49 5.11l-.76-.52a14.47 14.47 0 001.44-3.76l.8.25a22.07 22.07 0 01-1.48 4.03zm.85-7.83c-.2-.26-.64-.8-1.33-1.61l.67-.52a20 20 0 011.33 1.58zm1.11 5.43l-.52-.4a14.83 14.83 0 001.18-2.2 11.57 11.57 0 00.78-2.3h-1.52v-.71h1.57v-2.12h.88v2.12h1.21v.71h-1.21v1.29a9.41 9.41 0 001.36 1.3l-.41.65c-.33-.32-.65-.64-1-1v5.23h-.88v-5.35a13 13 0 01-1.44 2.78zm6.8 2.46V169h-1.84v.57h-.87v-9.84h3.61v9.83zm0-9.16h-1.84v2.09h1.85zm-1.85 4.89h1.85v-2.13h-1.84zm1.85.69h-1.84v2.35h1.85zm7.36 3.62v-2.34h-2.67v-.67h2.67v-1.39h-2.56v-.65h1.29l-.66-1.65h-1.49v6.82h-.87v-7.48h4.27V161H95v-.71h4.94v-1h.9v1h4.94v.71h-4.94v1.24h4.32v6.4a.92.92 0 01-.31.72 1.15 1.15 0 01-.77.27h-1.37l-.14-.8h1.25a.47.47 0 00.32-.12.37.37 0 00.15-.3v-5.51h-1.58l-.73 1.65h1.46v.65h-2.64v1.39h2.65v.67h-2.65v2.34zm1.84-6.7h-2.85l.58 1.65h1.61zm5.11 6l-.43-.53a10.68 10.68 0 001.39-1.32 8.47 8.47 0 001.16-1.55h-2.12v-.67h2.17v-1.2h-2.29V163H108l-.46-1.77h-.6v-.72h2.16v-1.11h.9v1.07h2.12v.72h-.55l-.6 1.77h1.25v.7H110v1.2h1.91v.67H110v.2a9.29 9.29 0 001.8 1.44l-.43.68a12.13 12.13 0 01-1.37-1.17v3.12h-.91v-3a9 9 0 01-2.21 2.13zm1.51-7.74l.44 1.77h1.35l.48-1.77zm7.19 8.49v-5.93h-1.91v.56a8.06 8.06 0 01-1.74 5.44l-.61-.46a5.92 5.92 0 001.08-2.13 9.38 9.38 0 00.39-2.73v-4.07a22.77 22.77 0 004.34-.89l.46.68a24.78 24.78 0 01-3.92.78v2.12h4.27v.7h-1.47v5.93zm4.78.09V165a10.85 10.85 0 01-1.26 1.71l-.58-.46A10.92 10.92 0 00120 164a12.62 12.62 0 001-2.52l.89.17a17.63 17.63 0 01-1 2.48h.39v5.63zm7.46-.53h-4.15v.47h-.89v-5.85h2l.45-1.25h-2.86v-.68h6v-1h-8.61v1.32H119v-2h4.6v-.93h.93v.93h4.77v1.67h.3v.68h-3.38l-.56 1.25h3.12v5.82h-.91zm0-3.13v-1.58h-4.15v1.58zm-4.15 2.42h4.15v-1.74h-4.15zm13.96-5.36c0 .68-.08 1.28-.15 1.79a6.43 6.43 0 01-.43 1.58 4.67 4.67 0 01-1 1.51 4.51 4.51 0 01-1.64 1.08 7.08 7.08 0 01-2.31.44l-.11-.83a4.76 4.76 0 003.31-1.23 5.17 5.17 0 001.29-3.54h-5.69v-.8zm-.31-2h-6.12v-.8h6.12zm6.42 8.43h-1v-5.52a14.32 14.32 0 01-3.74 1.82l-.31-.78a12.22 12.22 0 004.25-2.39 11 11 0 002.34-3l.95.36a12.64 12.64 0 01-2.46 3.12zm11.62-5.72a9.43 9.43 0 01-2 2.9 9.08 9.08 0 01-2.55 1.81 11 11 0 01-3.1.84l-.2-.88a9.42 9.42 0 002.6-.69 8 8 0 002-1.18 10.34 10.34 0 001.36-1.38 9.75 9.75 0 001.11-1.91zm-3.71-1.45l-.66.75a22.94 22.94 0 00-3.41-2.12l.5-.72a19.62 19.62 0 013.57 2.09zm-62.31 48.05a2.2 2.2 0 01-.68 1.71 2.67 2.67 0 01-1.88.62 7.37 7.37 0 01-1.5-.16v-1a4.28 4.28 0 001.3.25 2 2 0 001.22-.32c.28-.21.41-.72.41-1.54v-5.14h-1.9v-.83h3zm9.18 2.21h-1.41l-2.87-3.46h-1.77v3.46h-1.08v-8.61h2.47a3.82 3.82 0 012.49.64 2.14 2.14 0 01.75 1.7 2.54 2.54 0 01-1.76 2.5zm-6-7.71v3.37h1.26a2.51 2.51 0 001.72-.48 1.79 1.79 0 00.52-1.4c0-1-.68-1.49-2-1.49zm9.27 6.35l-.21-.77c.57-.12 1.06-.22 1.49-.33v-4.17h-1.22v-.65h1.22V203h.93v2.4h1v.65h-1V210c.56-.15 1-.27 1.27-.38v.71a26.51 26.51 0 01-3.48 1zm8.95 2h-1.5l-.12-.8h1.29c.31 0 .47-.14.47-.41V208h-5.7v-.67h7.65v.67h-1.06v4.51c0 .55-.34.83-1.03.83zm-1.81-8.33a3.39 3.39 0 01-1.27 1.19 5.7 5.7 0 01-2 .62l-.23-.6a5.07 5.07 0 001.8-.6 2.32 2.32 0 001-1.07h-2.4v-.65h2.6V203h.88v.94H112v.65h-2.58a3.9 3.9 0 001.25 1 5.88 5.88 0 001.62.63l-.39.65a6.45 6.45 0 01-1.72-.69 3.78 3.78 0 01-1.25-1.18zm-2.1 6.55v.45H106v-3.13h3.58v2.69zm2-2.08h-2V211h2zm5.17 3.31l-.5-.6a11.78 11.78 0 003-2.52l.75.46a10 10 0 01-1.54 1.49 10.67 10.67 0 01-1.71 1.17zm-.23-8.09V204h4.86v-1h.94v1h4.92v.71zm4.81 8.66H117l-.09-.78h1.19c.33 0 .49-.14.49-.42V209h-3.72v-3.21h8.41V209h-3.76v3.48a.72.72 0 01-.3.59 1.13 1.13 0 01-.67.28zm3.87-6.85h-6.63v1.88h6.63zm1.79 6.2a11.89 11.89 0 01-1.68-1.13 12.5 12.5 0 01-1.59-1.4l.69-.51a11.09 11.09 0 001.59 1.37 9.3 9.3 0 001.55 1zm1.62-.19l-.66-.16a13.86 13.86 0 00.57-2.83l.77.06c-.06.48-.17 1-.31 1.63a11.36 11.36 0 01-.37 1.3zm1.29.91v-4.8l-1.75.14-.11-.72h.61c.3-.36.64-.82 1-1.36-.19-.19-.73-.72-1.63-1.58l.51-.5.22.2a10.9 10.9 0 001.07-1.81l.78.27a20.36 20.36 0 01-1.36 2l.83.82a15 15 0 001.19-1.89l.79.32a34.35 34.35 0 01-2.57 3.48c.82 0 1.49-.07 2-.12l-.26-.85.7-.19q.33 1 .57 1.86l-.72.19c0-.07 0-.21-.11-.42l-1 .09v4.86zm1.72-1.92c-.1-.49-.21-1.14-.32-2l.68-.1c.08.49.19 1.14.32 1.95zm.66 1.61l-.43-.5a5.1 5.1 0 001.49-1.51 4.36 4.36 0 00.67-1.66H130v-.62h2l.18.18a5.36 5.36 0 01-.87 2.37 4.94 4.94 0 01-1.78 1.74zm3.06.23h-1.17l-.09-.75h.88c.28 0 .43-.12.43-.38v-4.33h-2.37v-4.08h2l.33-1 .88.18-.4.8H136v4.08h-2.41v.59a6 6 0 00.72 1.4 12 12 0 001.74-1.39l.62.52a15.9 15.9 0 01-2 1.4 9.86 9.86 0 002.18 2.1l-.56.59a8.6 8.6 0 01-2.72-3.22v2.64a.75.75 0 01-.28.6 1 1 0 01-.7.25zm-1.51-7.78h4v-1.11h-4zm4 .61h-4v1.09h4zm372.75-84.56a2.2 2.2 0 01-.68 1.71 2.71 2.71 0 01-1.88.62 7.5 7.5 0 01-1.5-.17v-1h.06a4 4 0 001.29.26 2 2 0 001.22-.32c.28-.21.41-.73.41-1.54V116h-1.9v-.84h3zm9.17 2.21h-1.4l-2.87-3.46H511v3.46h-1.08v-8.62h2.47a3.81 3.81 0 012.49.65 2.14 2.14 0 01.75 1.7 2.55 2.55 0 01-1.76 2.5zm-6-7.71v3.37h1.26a2.49 2.49 0 001.72-.48 1.8 1.8 0 00.52-1.4c0-1-.68-1.49-2-1.49zm9.6 7.8l-.49-.6a11.59 11.59 0 003-2.53l.74.47a9.49 9.49 0 01-1.53 1.49 10.31 10.31 0 01-1.72 1.17zm-.23-8.09v-.71h4.87v-1h.94v1h4.92v.71zm4.82 8.66h-1.51l-.09-.79h1.19c.33 0 .49-.14.49-.41v-3.11h-3.72V117H530v3.21h-3.8v3.48a.73.73 0 01-.3.59 1.13 1.13 0 01-.71.2zm3.87-6.85h-6.63v1.87h6.63zm1.78 6.2a11.92 11.92 0 01-1.67-1.13 13.33 13.33 0 01-1.59-1.4l.69-.52a10.88 10.88 0 001.58 1.38 8.85 8.85 0 001.56 1zm1.39.52l-.31-.58a15 15 0 004.15-1.85h-3.7v-.66h4.72v-.85h-3.4v-2.76h-1.23V117h1.23v-.85h.91v.85h2.1v-.68h.87v.68h2.37v-.68h.87v.68h1.82v.62h-1.83V119h-4.11v-1.35h-2.1v2.12h7.48v.64H538v.85h4.86v.66h-3.92a14.59 14.59 0 004.31 1.75l-.38.67a12.42 12.42 0 01-2.76-1A9.51 9.51 0 01538 122v2.52h-.87v-2.48a11.68 11.68 0 01-2.24 1.33 13.87 13.87 0 01-2.66.98zm7.77-8.85v.5h-.85v-.49h-3.06v.49h-.85v-.54h-3v-.66h3v-.63h.85v.63h3.06v-.63h.85v.63h3v.66zm0 2.15h-2.37v.81H540zm4.35 5.99l-.66-.16a13.86 13.86 0 00.57-2.83l.78.06a16.41 16.41 0 01-.32 1.62 9.4 9.4 0 01-.37 1.31zm1.29.91v-4.8l-1.75.14-.11-.72h.61c.3-.35.65-.81 1.05-1.36l-1.62-1.57.5-.5.22.2a12.26 12.26 0 001.08-1.81l.77.27a22.18 22.18 0 01-1.35 2l.82.82a15.71 15.71 0 001.2-1.9l.78.33a34.35 34.35 0 01-2.57 3.48l2-.12-.27-.86.7-.18q.33 1 .57 1.86l-.71.19-.12-.43-1 .1v4.86zm1.72-1.93c-.1-.48-.21-1.13-.32-2l.68-.09q.12.74.33 2zm.66 1.62l-.43-.51a5.19 5.19 0 001.49-1.5 4.36 4.36 0 00.67-1.66h-1.28V120h2l.19.18a5.61 5.61 0 01-.88 2.37 5.11 5.11 0 01-1.78 1.69zm3.07.23h-1.18l-.09-.75h.88c.29 0 .43-.13.43-.38V119h-2.37v-4.08h2l.33-1 .88.18-.4.8h2.83v4.1H552v.59a6 6 0 00.72 1.4 12.74 12.74 0 001.74-1.39l.62.52a15.9 15.9 0 01-2 1.4 9.9 9.9 0 002.19 2.1l-.57.59A8.6 8.6 0 01552 121v2.64a.77.77 0 01-.27.6 1 1 0 01-.64.23zm-1.52-7.78h4v-1.11h-4zm4 .61h-4v1.08h4zm-71.77 76.02l-.32-.7a9.68 9.68 0 001.8-.65 16.24 16.24 0 001.77-1 7.41 7.41 0 001.26-1H483v-4.09h3.76V185H482v-.71h4.81v-1h.89v1h4.92v.71h-4.92v.94h3.81V190H488a11.32 11.32 0 002.45 1.58 13 13 0 002.61 1l-.46.76a12.07 12.07 0 01-2.61-1.08 12.66 12.66 0 01-2.31-1.52v3.07h-.87v-3.09a10.41 10.41 0 01-2.22 1.53 13.37 13.37 0 01-2.79 1.07zm2.06-5.71h2.91v-1.07h-2.91zm2.91.6h-2.91v1.13h2.91zm.87-.6h2.95v-1.07h-2.95zm2.95.6h-2.95v1.13h2.95zm3.41 4.88l-.5-.6a11.78 11.78 0 003-2.49l.74.46a9.49 9.49 0 01-1.53 1.49 10.67 10.67 0 01-1.71 1.14zm-.24-8.09v-.71h4.87v-1h.94v1h4.92v.71zm4.82 8.66H497l-.09-.78h1.19c.33 0 .49-.14.49-.42v-3.11h-3.72v-3.21h8.4v3.21h-3.75v3.48a.72.72 0 01-.3.59 1.13 1.13 0 01-.69.24zm3.87-6.85h-6.63v1.88h6.63zm1.78 6.2a11.92 11.92 0 01-1.67-1.13 12.5 12.5 0 01-1.59-1.4l.69-.51a11.52 11.52 0 001.58 1.37 9.72 9.72 0 001.56 1zm8.37-9.01a13.45 13.45 0 01-1.79 5.08 24 24 0 011.78 2l-.75.71a19.19 19.19 0 00-1.57-1.84 9.15 9.15 0 01-4.31 3.49l-.41-.79a8.72 8.72 0 004-3.42 25 25 0 00-2.94-2.53l.56-.69a28.61 28.61 0 012.89 2.38 12.46 12.46 0 001.53-4.5zm8.9 5.45l-.49.79a14.81 14.81 0 00-2.22-1.5 15 15 0 00-2.34-1.1v6h-1v-10h1v3.16a21.27 21.27 0 015.05 2.65zm7.78 3.67h-6.72v-8.32h6.72zm-1-.8v-6.76h-4.78v6.76zm11.28-1.21H534v2.62h-.91v-5.95a11 11 0 01-2.19 2.22l-.54-.54a12.84 12.84 0 001.69-1.69 13.91 13.91 0 001.59-2.47h-2.88v-.69H534a9.11 9.11 0 00.47-1.35l.95.1a8.6 8.6 0 01-.45 1.25h6.62v.69h-6.95c-.23.45-.47.89-.72 1.3h6.59v6.09a.78.78 0 01-.34.62 1.09 1.09 0 01-.73.26h-1.78l-.11-.82h1.54c.33 0 .5-.15.5-.43zm0-2.58v-1.24H534v1.24zm-5.56 1.92h5.57v-1.28H534zm8.57 2.95l-.31-.66a13.07 13.07 0 004.78-2.31h-4.33v-.7h4.76v-.85h-1.79v-4.45h1.66c.18-.48.31-.88.4-1.19l.94.15c-.14.34-.3.69-.47 1h2.12v4.45h-1.93v.85h4.9v.7h-4.6a13.38 13.38 0 005 2.25l-.42.72a14.15 14.15 0 01-4.84-2.31v2.66h-.93v-2.69a12.15 12.15 0 01-2.32 1.38 14.75 14.75 0 01-2.62 1zm.24-4.5l-.34-.73a17.73 17.73 0 002.55-1.36l.28.67a13.29 13.29 0 01-1.15.71 14.83 14.83 0 01-1.34.71zm1.58-2.83a15 15 0 00-1.54-1.64l.62-.47c.76.71 1.29 1.24 1.59 1.58zm2.18.2h2.88v-1.18h-2.88zm2.88.65h-2.88v1.29h2.88zm3.41 2l-2.08-1.58.55-.52a23.71 23.71 0 012.1 1.49zm-1.51-2.9l-.56-.49a14.3 14.3 0 001.67-1.72l.77.51c-.17.19-.47.48-.89.87s-.76.64-.99.81zm4.41 5.2v.8h-.83v-8.4h5.43v.53h4.91v.69h-1.6v7.88a.79.79 0 01-.3.64 1.14 1.14 0 01-.73.24h-1.81l-.09-.8h1.51a.64.64 0 00.38-.12.38.38 0 00.16-.31v-7.53h-2.43v6.38zm1.46-4.26v-2.69h-1.46V187zm0 3.59v-3h-1.46v3zm.84-6.28V187h1.46v-2.69zm0 3.32v3h1.46v-3zm8.48 5.23l-.66-.16a13.86 13.86 0 00.57-2.83l.78.06c-.07.48-.17 1-.32 1.63a9.59 9.59 0 01-.37 1.3zm1.29.91v-4.8l-1.75.14-.11-.72h.61c.3-.36.65-.82 1-1.36L566 185.4l.5-.5.22.2a11.76 11.76 0 001.08-1.81l.77.27a22.18 22.18 0 01-1.35 2l.83.82a17.74 17.74 0 001.19-1.89l.78.32a34.35 34.35 0 01-2.57 3.48c.82 0 1.49-.07 2-.12l-.27-.85.7-.19q.33 1 .57 1.86l-.71.19-.12-.42-1 .09v4.86zm1.72-1.92c-.1-.49-.21-1.14-.31-2l.67-.1q.12.74.33 1.95zm.66 1.61l-.43-.5a5.1 5.1 0 001.49-1.51 4.36 4.36 0 00.67-1.66h-1.28v-.62h2l.19.18a5.38 5.38 0 01-.88 2.37 4.94 4.94 0 01-1.76 1.74zm3.07.23h-1.18l-.09-.75h.88c.29 0 .43-.12.43-.38v-4.33H571v-4.08h2l.33-1 .88.18-.4.8h2.83v4.08h-2.41v.59a6 6 0 00.72 1.4 12 12 0 001.74-1.39l.62.52a15.9 15.9 0 01-2 1.4 9.9 9.9 0 002.19 2.1l-.57.59a8.6 8.6 0 01-2.72-3.22v2.64a.77.77 0 01-.27.6 1 1 0 01-.66.25zm-1.51-7.78h4v-1.11h-4zm4 .61h-4v1.08h4z" fill="#231815"/><path class="cls-16" d="M178.89 88.65c0-2 2.11-3.65 4.7-3.65h34.78c2.6 0 4.7 1.63 4.7 3.65v127.7c0 2-2.1 3.65-4.7 3.65h-34.78c-2.59 0-4.7-1.63-4.7-3.65z"/><path class="cls-16" d="M178.79 88.65c0-2 2.1-3.65 4.7-3.65h34.78c2.59 0 4.7 1.63 4.7 3.65v127.7c0 2-2.11 3.65-4.7 3.65h-34.78c-2.6 0-4.7-1.63-4.7-3.65z"/><path class="cls-17" d="M207.23 114l-1.37 1.79a10.36 10.36 0 01-3.12-2.27 11.74 11.74 0 01-1.92-2.92 9.14 9.14 0 01-1.8 2.92 11 11 0 01-3.12 2.38l-1.42-1.79a8.64 8.64 0 003.33-2.43 7.64 7.64 0 001.75-3.51h-5v-1.68h5.31v-3.3h2v3.3h5.31v1.68H202a7.25 7.25 0 001.42 3 11.22 11.22 0 001.48 1.51 8.5 8.5 0 002.33 1.32zm-5.7 6.63h-1.64V119h2.47v-1.19h1.91V119h2.63v1.68h-1.64a4.73 4.73 0 001.91.65l-.76 1.62a5.18 5.18 0 01-1.76-.6 4.29 4.29 0 01-1.31-1 4.29 4.29 0 01-1 1 6.31 6.31 0 01-1.54.76h6.46v1.62h-.77v4.21q0 1.35-1.2 1.35h-2l-.38-1.83h-1.43v.54H200v-4h3.94v3.35h.33c.29 0 .43-.13.43-.38v-3.24h-5.14V128H196v.65h-1.32v-9H196v6.64h.38V118h1.42v8.27h.39v-6.64h1.31V123h.88l-.72-1.63a3.66 3.66 0 001.87-.74zm0 6.21h.77v-.54h-.77z"/><path d="M303.45 88.65c0-2 2.1-3.65 4.7-3.65h34.78c2.59 0 4.7 1.63 4.7 3.65v127.7c0 2-2.11 3.65-4.7 3.65h-34.78c-2.6 0-4.7-1.63-4.7-3.65z" fill="#004097" stroke="#004097" stroke-linejoin="round" stroke-width="2"/><path class="cls-2" d="M319.11 116.79V103.7h12.79v13.09h-2.06v-.7h-8.66v.7zm2.07-2.56h8.66v-8.67h-8.66zm7.3-2.33h.95v1.69h-7.9v-1.69h3v-1.45h-2.3v-1.69h2.3v-.93h-2.89v-1.63h7.84v1.63h-2.89v.93h2.3v1.69h-.53l.82 1zm-1.94 0h.94l-.76-1.1.76-.35h-.94zm-2.06 6.86l1.82.29-.17.47h2.47v.35a4.22 4.22 0 00.47 1.16v-1.57h2.42l.71 1.11a7.87 7.87 0 01-1.48 2.85 5.51 5.51 0 001.77 1.16l-1.06 1.81a5.29 5.29 0 01-1.59-1.17v1h-4.66v-.76a5.12 5.12 0 01-1.41.94l-.94-1.4a3.52 3.52 0 01.35 1.69h8.72v1.8h-3.48v.82l1.71-.7a3.75 3.75 0 00.89 1.16 5.08 5.08 0 001.41 1.11l-1.43 1.44a7.51 7.51 0 01-2.54-3v1.81c0 .81-.43 1.22-1.29 1.22h-1.59l-.59-1.75a5.2 5.2 0 01-1.59 1.58l-1.48-1.34a5 5 0 002.24-2.27l1.65.75a3 3 0 01-.65 1.11h.71c.36 0 .53-.14.53-.52v-1.46h-3.3v-.64a1.89 1.89 0 01-1.77 1.63l-.76-1.45v4.3h-1.77v-13h3.2l.12-.11 1.24 1.34-.3.87a4.58 4.58 0 001.42-2.63zm-4 5a9.63 9.63 0 00.88-2.56h-.88zm0 .52v3.2a.82.82 0 00.82-.87 2.42 2.42 0 00-.12-1 3.35 3.35 0 00-.65-1.32zM324 124l-.47-.41-.29.23-.59-.93-.35 1 .41.76a4.59 4.59 0 00.71-.29 1.53 1.53 0 00.58-.36zm.3-1.34l.65.52.35-.34-.71-.59zm1.06-1.34l.65.53.29-.53zm2.36 1.05a6.76 6.76 0 01-1.48 2.1h2.83a6.34 6.34 0 01-1.35-2.1zm1.41-1.22a2.07 2.07 0 00.41.81 1.26 1.26 0 00.48-.81zm-9.6 13.9h11.84V139h-2.18v.47h2.36v1.75h-2.36v.4h2.95v1.69h-1.65l.94.93-1.41 1a6.62 6.62 0 002.47.87l-.77 2a9.22 9.22 0 01-3.77-1.69 8.75 8.75 0 01-2.65-3.2h-.47v2.5l1.47-.34.53 1.8a16.59 16.59 0 01-2.65.58c-1.06.16-1.94.25-2.65.29l-.35-1.92 1.59-.11v-2.8h-1.18l-.12.93a8.52 8.52 0 01-.53 2.1 5.74 5.74 0 01-.94 1.74l-1.53-2a6 6 0 001.06-3.79zm2.06 2.32h7.72v-.69h-7.72zm0 4.25h2.3v-.4h-2.12v-1.75h2.12V139h-2.3zm4.36-2.15h1.24V139H326zm0 2.15h1.24v-.4H326zm1.71 1.69a1.86 1.86 0 00.65.82l1.18-.82zm-4.36 20.42l-.71-2.09h1.59c.39 0 .57-.16.53-.59v-4.77h-5.95v-1.86h13.44v1.86h-5.48v5.88c0 1.05-.48 1.57-1.42 1.57zm-1.77-6.93l1.94.88a12.61 12.61 0 01-1.12 2.79 8.72 8.72 0 01-1.7 2.33l-1.83-1.46a9.5 9.5 0 002.71-4.54zm-1.18-4.24v-1.93h10.2v1.93zm7.13 5.18l1.95-.82a12.82 12.82 0 001.06 2.1 12.27 12.27 0 001.77 2.32l-1.89 1.46a11.21 11.21 0 01-1.71-2.5 17.75 17.75 0 01-1.18-2.56zm-4.83 13.78h9.72v1.57h-5.83l-.59.52H332l-.24 3.61a2.47 2.47 0 01-.35 1.46 1.6 1.6 0 01-1.41.58h-1.71l-.71-1.4a8.89 8.89 0 01-3.3 1.75l-1.3-1.34a10 10 0 003-1.4 4.89 4.89 0 001.65-1.57h-.53a6.68 6.68 0 01-1.95 1.75 11.23 11.23 0 01-3.24 1.34l-1.18-1.58a9 9 0 002.18-.52 4.37 4.37 0 001.77-1h-.88a3.85 3.85 0 01-.71.47 4 4 0 01-.77.35l-.41-.53a17.74 17.74 0 01-2.83 1.11l-.64-2 1.47-.47v-3.31h-1.21v-1.81h1.24v-3.2H322v3.2h.94v1.81H322v2.56l.53-.29.36.81a2.66 2.66 0 00.58-.35 3.17 3.17 0 00.65-.58h-1.47zm1-.35v-5.06h7.66v5.06zm2.06-3.09h3.6v-.46h-3.6zm0 1.58h3.6v-.47h-3.6zm2.36 7.74h.93c.44 0 .67-.27.71-.82l.12-1.28h-.18a6.1 6.1 0 01-1.58 2.1z"/><path d="M428.36 88.65c0-2 2.1-3.65 4.7-3.65h34.78c2.6 0 4.7 1.63 4.7 3.65v127.7c0 2-2.1 3.65-4.7 3.65h-34.78c-2.6 0-4.7-1.63-4.7-3.65z" stroke="#004097" stroke-linejoin="round" stroke-width="2" fill="none"/><path class="cls-16" d="M428 88.65c0-2 2.11-3.65 4.71-3.65h34.77c2.6 0 4.71 1.63 4.71 3.65v127.7c0 2-2.11 3.65-4.71 3.65h-34.79c-2.6 0-4.71-1.63-4.71-3.65z"/><path class="cls-17" d="M450.13 106.17h-.38l-.44 1.08h1V109h-2.19v.48h1.92v1.68h-1a4.72 4.72 0 001 .81l-.82 1.73a5.21 5.21 0 01-1.1-1v3.14h-1.82v-2.54c-.15.22-.38.52-.71.92a4.32 4.32 0 01-.93.87l-.93-1.84a7.78 7.78 0 002-2.11H444v-1.68h2.35V109h-2.68v-1.73h1.31l-.27-1.08H444v-1.73h2.3v-1.25h1.92v1.25h1.91zm-3.67 0l.28 1.08h.82l.33-1.08zm4.11 4v-6.16l1 .22a13.79 13.79 0 003.67-1l.88 1.73a12.61 12.61 0 01-3.62.92v1.51h4v1.84h-1.21v6.48h-1.91v-6.48h-.88v1a8.41 8.41 0 01-.43 3 5 5 0 01-.66 1.41 6.38 6.38 0 01-1 1.3l-1.48-1.63a5.57 5.57 0 001.37-2 6.1 6.1 0 00.27-2.09zm-2.52 11.66h-4.38v-1.67H449v-2.44h2.14v2.44h5.25v1.67h-4.54a10.21 10.21 0 004.7 4.81l-1.2 2a9.55 9.55 0 01-2.52-2 14.37 14.37 0 01-1.69-2.27v5.89H449v-6.11a6.52 6.52 0 01-1.42 2.38 7.84 7.84 0 01-2.63 2.16l-1.37-1.83a10.8 10.8 0 002.69-2.11 9 9 0 001.78-2.92zm-.66 15.7h9V139H451l-.55.49h5.64l-.22 3.35a2.32 2.32 0 01-.33 1.35 1.52 1.52 0 01-1.32.54h-1.58l-.66-1.29a8.27 8.27 0 01-3.06 1.62l-1.21-1.25a9.22 9.22 0 002.79-1.29 4.52 4.52 0 001.54-1.46h-.5a6.17 6.17 0 01-1.8 1.62 10.49 10.49 0 01-3 1.24l-1.1-1.46a8.76 8.76 0 002-.48 4.2 4.2 0 001.64-.92h-.82a3.23 3.23 0 01-.66.43 3.08 3.08 0 01-.71.32l-.38-.48a17.33 17.33 0 01-2.63 1l-.6-1.83 1.37-.44V137h-1.15v-1.67h1.15v-3h1.91v3h.88V137h-.88v2.38l.5-.27.32.76a3 3 0 00.55-.33 2.9 2.9 0 00.6-.54h-1.37zm.93-.32v-4.7h7.12v4.7zm1.92-2.86h3.34v-.44h-3.34zm0 1.45h3.34v-.43h-3.34zm2.19 7.19h.87c.41 0 .62-.25.66-.75l.11-1.19h-.16a5.68 5.68 0 01-1.48 1.95zm-198.69-13.85h-8.08v-1.83h2.72v-7.25h-2.72v-1.68a4.64 4.64 0 002.29-.44 1.8 1.8 0 00.78-1.35h2.35v10.72h2.66zm12.57-3.14h-1.81v3.15h-2.66V126h-6.13v-2.2l6-7.21h2.77v7.48h1.81zm-4.47-1.93v-4.91l-4.11 4.91zm14.33-1.79a6.31 6.31 0 01-1.46 3.83 7.36 7.36 0 01-3.4 2.09l-.79-1.38c2.43-.84 3.69-2.36 3.8-4.54h-1.73v-.55a14.43 14.43 0 01-1.36 1l-1.07-1.14a11.85 11.85 0 002.55-2.42 9.57 9.57 0 001.52-2.47l1.79.42a13 13 0 01-2.47 3.67h5.76a11.37 11.37 0 01-2.28-3.68l1.65-.49a11.81 11.81 0 001.78 2.77 14.27 14.27 0 002.49 2.14l-1.36 1.35-.67-.57a30.49 30.49 0 01-.16 3.31 2.92 2.92 0 01-.77 1.89 2.2 2.2 0 01-1.54.53h-2.28l-.25-1.6h2a1 1 0 00.9-.54 10.08 10.08 0 00.27-3.13v-.53zm-45.31 23.54h-2.74v-10.24h2.74v.67H229v8.9h1.88zm13.76-2.17l-.55.66a8.78 8.78 0 01-2.57-2.24 11.43 11.43 0 01-1.68-2.85 7.91 7.91 0 01-1.72 3.05 7.56 7.56 0 01-3.06 2l-.31-.61a6.7 6.7 0 003-2.13 6.35 6.35 0 001.47-3.19H235v-.69h4.33V135h.88v2.61h4.33v.69h-4.24a9.15 9.15 0 001.63 3 7.92 7.92 0 002.69 2.35zm5.94-4.18a6 6 0 01-1.66 2.94 8.58 8.58 0 01-2.87 1.85l-.32-.59a7 7 0 003.21-2.52A5.75 5.75 0 00250 138v-2.76h.88V138a6.57 6.57 0 00.92 2.37 7.06 7.06 0 001.87 2.05 8.59 8.59 0 001.84 1.11l-.52.69a9.86 9.86 0 01-2.88-2.11 6.52 6.52 0 01-1.55-2.64zm8.86 3.96v-1h.09a4 4 0 002.21.69 2 2 0 001.35-.45 1.62 1.62 0 00.5-1.26 1.31 1.31 0 00-.44-1.1 2.26 2.26 0 00-1.43-.35h-.46v-.8h.36a2.19 2.19 0 001.33-.36 1.2 1.2 0 00.49-1 1 1 0 00-.43-.85 2 2 0 00-1.16-.3 3.9 3.9 0 00-2.12.68h-.06v-1a5.16 5.16 0 012.2-.5 3.09 3.09 0 011.9.51 1.69 1.69 0 01.22 2.5 1.93 1.93 0 01-1.12.64v.08a1.83 1.83 0 011.73 2 2.23 2.23 0 01-.79 1.77 3 3 0 01-2.05.69 5.72 5.72 0 01-2.32-.59zm12.15-1.93h-1.17v2.26h-.94v-2.26h-3.82v-1.09l3.86-4.48h.9v4.8h1.17zm-2.11-.77v-3.66l-3.15 3.66zm5.9 3.19a2.3 2.3 0 01-2.06-1 7.59 7.59 0 010-6.17 2.62 2.62 0 014.1 0 7.54 7.54 0 010 6.17 2.29 2.29 0 01-2.04 1zm0-7.36a1.39 1.39 0 00-1.3.71 8.29 8.29 0 000 5.15 1.56 1.56 0 002.6 0 5.7 5.7 0 00.41-2.58 5.86 5.86 0 00-.4-2.56 1.39 1.39 0 00-1.31-.72zm14.89 3.6h-7v4.23h-.81v-8.72h8.65v7.78a.79.79 0 01-.26.61 1.05 1.05 0 01-.7.23h-1.46l-.11-.74h1.26c.3 0 .45-.14.45-.43zm-7-.66h3v-3.17h-3zm3.84 0h3.18v-3.17h-3.18zm11.34 6.32h-2.74v-.67h1.88v-8.9h-1.88v-.67h2.74zm77.19-15.03v-2.38h.28a7 7 0 003.48 1.06c1.88 0 2.83-.75 2.83-2.25a1.64 1.64 0 00-.79-1.47 4.25 4.25 0 00-2.31-.52 12.37 12.37 0 00-2.67.38h-.31v-6.87h8.62v2h-6v2.57c.64 0 1.12-.06 1.42-.06a5.6 5.6 0 013.62 1 3.43 3.43 0 011.25 2.81 4 4 0 01-1.43 3.2 5.82 5.82 0 01-3.88 1.22 10.81 10.81 0 01-4.11-.69zm19.72-6.39a6.27 6.27 0 01-1.47 3.84 7.33 7.33 0 01-3.39 2.09l-.79-1.38c2.43-.84 3.69-2.36 3.8-4.55h-1.73v-.55a14.18 14.18 0 01-1.36 1.05l-1.07-1.14a11.85 11.85 0 002.55-2.42 9.57 9.57 0 001.52-2.47l1.79.42a13.2 13.2 0 01-2.47 3.67h5.76a11.37 11.37 0 01-2.28-3.68l1.65-.5a11.38 11.38 0 001.78 2.78 14.71 14.71 0 002.49 2.14l-1.36 1.35-.68-.57a28.25 28.25 0 01-.16 3.31 2.87 2.87 0 01-.76 1.89 2.25 2.25 0 01-1.54.53h-2.28l-.26-1.6h2a.94.94 0 00.9-.55 10 10 0 00.27-3.12v-.54zm-39.48 21.42h-2.74v-10.24h2.74v.67H354v8.9h1.88zm13.76-2.17l-.54.66a8.69 8.69 0 01-2.58-2.24 11.43 11.43 0 01-1.68-2.85 7.78 7.78 0 01-1.72 3.05 7.42 7.42 0 01-3.06 2l-.3-.61a6.73 6.73 0 003-2.13 6.35 6.35 0 001.47-3.19H360v-.69h4.33V135h.88v2.61h4.33v.69h-4.24a9.34 9.34 0 001.63 3 8 8 0 002.69 2.35zm5.94-4.18a6 6 0 01-1.66 2.94 8.58 8.58 0 01-2.87 1.85l-.32-.59a7 7 0 003.22-2.52A5.73 5.73 0 00375 138v-2.76h.88V138a6.57 6.57 0 00.92 2.37 7.2 7.2 0 001.87 2.05 8.59 8.59 0 001.84 1.11l-.52.69a10 10 0 01-2.88-2.11 6.52 6.52 0 01-1.55-2.64zm14.14 4.29h-5.31v-1c.57-.47 1.2-1 1.9-1.66a11.74 11.74 0 001.56-1.68 2.48 2.48 0 00.51-1.44 1.25 1.25 0 00-.43-1 1.78 1.78 0 00-1.17-.36 3.88 3.88 0 00-2.12.68h-.05v-1a5.16 5.16 0 012.2-.5 2.88 2.88 0 011.89.58 1.92 1.92 0 01.69 1.57 2.87 2.87 0 01-.18 1 3.39 3.39 0 01-.55.94c-.25.3-.55.63-.89 1s-1.15 1-2.4 2.09h4.35zm2.65-4.16v-.06a2 2 0 01-1.26-1.75 1.77 1.77 0 01.73-1.46 2.84 2.84 0 011.85-.58 3 3 0 011.86.54 1.73 1.73 0 01.71 1.43 1.9 1.9 0 01-.35 1.08 2.37 2.37 0 01-1 .78v.07a2.09 2.09 0 011.53 1.94 2.12 2.12 0 01-.8 1.68 3.42 3.42 0 01-4 0 2.09 2.09 0 01-.76-1.68 2.14 2.14 0 011.49-1.99zm.64.19a1.92 1.92 0 00-1.11 1.75 1.58 1.58 0 00.51 1.22 1.8 1.8 0 001.29.46 1.83 1.83 0 001.27-.41 1.38 1.38 0 00.48-1.12 1.21 1.21 0 00-.22-.77 1.63 1.63 0 00-.63-.5q-.4-.19-1.58-.63zm2.27-2.06a1.13 1.13 0 00-.43-.92 2.06 2.06 0 00-2.3 0 1 1 0 00-.44.88 1.18 1.18 0 00.54 1 6.08 6.08 0 001.67.73 1.91 1.91 0 00.96-1.69zm5.1 6.19a2.28 2.28 0 01-2.05-1 7.54 7.54 0 010-6.17 2.62 2.62 0 014.1 0 5.68 5.68 0 01.66 3.08 5.78 5.78 0 01-.65 3.09 2.3 2.3 0 01-2.06 1zm0-7.36a1.39 1.39 0 00-1.3.71 8.29 8.29 0 000 5.15 1.38 1.38 0 001.3.7 1.4 1.4 0 001.31-.7 8.46 8.46 0 000-5.14 1.38 1.38 0 00-1.31-.72zm14.89 3.6h-7v4.23h-.82v-8.72h8.66v7.78a.76.76 0 01-.27.61 1 1 0 01-.69.23h-1.47l-.11-.74h1.26c.3 0 .45-.14.45-.43zm-7-.66h3v-3.17h-3zm3.83 0h3.18v-3.17h-3.18zm11.35 6.32h-2.74v-.67h1.88v-8.9h-1.88v-.67h2.74z"/></g></g></svg>