<svg xmlns="http://www.w3.org/2000/svg" width="560" height="150"><defs><style>.cls-2{fill:#fff}.cls-5{fill:#c9b100}</style></defs><g id="レイヤー_2" data-name="レイヤー 2"><g id="object"><rect width="560" height="150" rx="10" fill="#e6e6e6"/><path class="cls-2" d="M555 65v75a5 5 0 01-5 5H10a5 5 0 01-5-5V65z"/><path stroke="#c9b100" stroke-linejoin="round" stroke-width="2" fill="none" d="M117.63 105.55H394.3"/><path d="M19.62 85.76c0-.62 4.63-1.13 10.33-1.13h76.35c5.7 0 10.32.51 10.32 1.13v39.58c0 .63-4.62 1.13-10.32 1.13H30c-5.7 0-10.33-.5-10.33-1.13z" stroke="#c9b100" stroke-linejoin="round" stroke-width="2" fill="#fff"/><path class="cls-5" d="M61.68 102.48h-.36l-.41 1h1v1.62h-2v.46h1.78v1.57h-.92a4.54 4.54 0 00.92.77l-.77 1.62a5.58 5.58 0 01-1-1v2.94h-1.8v-2.33a9.69 9.69 0 01-.66.86 3.54 3.54 0 01-.86.81l-.87-1.73a6.9 6.9 0 001.83-2h-1.62v-1.57h2.18v-.46h-2.49v-1.54h1.22l-.25-1H56v-1.62h2.13v-1.19h1.77v1.17h1.78zm-3.41 0l.26 1h.76l.3-1zm3.81 3.81v-5.79l.92.21a12.92 12.92 0 003.4-1l.81 1.63a11.72 11.72 0 01-3.35.86v1.42h3.71v1.73h-1.12v6.09h-1.78v-6.09h-.81v.91a8 8 0 01-.41 2.79 4.3 4.3 0 01-.61 1.32 5.62 5.62 0 01-1 1.22l-1.37-1.52a5.35 5.35 0 001.27-1.88 5.83 5.83 0 00.34-1.9zm17.92-.66a4.67 4.67 0 01-1-.56v.71h-5v-.71a3.88 3.88 0 01-.81.71l-1-1.47a3.84 3.84 0 001.62-1.17h-1.27v.56h-.91a14.93 14.93 0 001.17 1.88l-.61 1.73-.56-.82v5h-1.78V108l-.56 1.11-.76-2a11.81 11.81 0 001.27-3.35h-1.12v-1.52h1.17v-2.45h1.78v2.39h.81v-.51h2.39l.15-.3h-1.57l-.82-1.37a35.39 35.39 0 006.55-.5l1 1.42a26.83 26.83 0 01-3.15.35l-.2.36h3.65v1.47H79a3.38 3.38 0 001.73.92zm-2.14 5.84l-.35-1H76.2v.3h-1.32v-3h3.2v1.88a.25.25 0 00.3-.1.3.3 0 00.05-.3v-1.78h-3.91v4H72.7v-5.38h7.51V110c0 1-.47 1.47-1.42 1.47zm-1-8.33h-.92a2 2 0 01-.35.41h1.67zm-1.12 1.68h1.52v-.31h-1.57zm1.12 4.57v-.56h-.66v.56z"/><path d="M394.54 85.76c0-.62 6.91-1.13 15.43-1.13h114.14c8.52 0 15.43.51 15.43 1.13v39.58c0 .63-6.91 1.13-15.43 1.13H410c-8.52 0-15.43-.5-15.43-1.13z" fill="#004da0" stroke="#004da0" stroke-miterlimit="10"/><path class="cls-2" d="M428.23 112.9V98.84h13.56v14.06h-2.19v-.75h-9.18v.75zm2.19-2.75h9.18v-9.31h-9.18zm7.75-2.5h1v1.81h-8.38v-1.81h3.13v-1.56h-2.44v-1.82h2.44v-1h-3.07v-1.75h8.32v1.75h-3.07v1h2.44v1.82H438l.87 1.12zm-2.07 0h1l-.81-1.19.81-.37h-1zm13.82-9.44l1.93.31-.18.5h2.62v.38a4.5 4.5 0 00.5 1.25V99h2.56l.75 1.19a8.22 8.22 0 01-1.56 3.06 5.91 5.91 0 001.88 1.25l-1.13 1.94a5.81 5.81 0 01-1.69-1.25v1.06h-4.93v-.81a6.06 6.06 0 01-1.5 1l-1-1.5a3.73 3.73 0 01.37 1.81h9.25v1.94h-3.69v.87l1.82-.75a3.79 3.79 0 00.93 1.25 5.22 5.22 0 001.5 1.19l-1.56 1.56a8 8 0 01-2.69-3.18v1.93c0 .88-.45 1.32-1.37 1.32H451l-.62-1.88a5.44 5.44 0 01-1.69 1.69l-1.56-1.44a5.33 5.33 0 002.37-2.44l1.75.82a3.42 3.42 0 01-.69 1.18h.75c.38 0 .57-.14.57-.56v-1.56h-3.5V108a2 2 0 01-1.88 1.75l-.81-1.56v4.62h-1.88v-14h3.44l.13-.12 1.31 1.44-.31.93a4.88 4.88 0 001.54-2.85zm-4.19 5.38a10.22 10.22 0 00.94-2.75h-.94zm0 .56v3.44a.88.88 0 00.87-.94 2.56 2.56 0 00-.12-1.06 3.64 3.64 0 00-.75-1.44zm3.69-.31l-.5-.44-.32.25-.62-1-.38 1.12.44.82a4.52 4.52 0 00.75-.32 1.73 1.73 0 00.63-.43zm.31-1.44l.69.56.37-.37-.79-.59zm1.12-1.44l.69.56.31-.56zm2.5 1.13a6.94 6.94 0 01-1.56 2.25h3a7 7 0 01-1.44-2.25zm1.5-1.32a2.21 2.21 0 00.44.88 1.34 1.34 0 00.5-.88zm5.82-1.87h12.56v4.25h-2.31v.5h2.5v1.87h-2.5v.48H474v1.81h-1.75l1 1-1.5 1.13a7.09 7.09 0 002.63.94l-.78 2.12a9.71 9.71 0 01-4-1.81 9.51 9.51 0 01-2.81-3.44h-.5v2.69l1.56-.37.57 1.93a17.43 17.43 0 01-2.82.63c-1.12.16-2.06.27-2.81.31l-.37-2.06 1.68-.13v-3h-1.25l-.12 1a8.83 8.83 0 01-.56 2.25 6.57 6.57 0 01-1 1.88l-1.63-2.19a6.45 6.45 0 001.13-4.06zm2.18 2.5H471v-.75h-8.19zm0 4.56h2.44v-.44H463v-1.87h2.25v-.5h-2.44zm4.63-2.31h1.31v-.5h-1.31zm0 2.31h1.31v-.44h-1.31zm1.81 1.81a2 2 0 00.69.88l1.25-.88zm11.38 5.13l-.75-2.25h1.68q.63.06.57-.63v-5.12h-6.32v-2h14.25v2h-5.81v6.31c0 1.13-.5 1.69-1.5 1.69zm-1.88-7.44l2.06.94a14.42 14.42 0 01-1.18 3 9.23 9.23 0 01-1.82 2.5l-1.93-1.56a10.2 10.2 0 002.87-4.88zm-1.25-4.56v-2.06h10.81v2.06zm7.56 5.56l2.07-.87a14.39 14.39 0 001.12 2.25 14 14 0 001.88 2.5l-2 1.56a11.89 11.89 0 01-1.82-2.69 18.37 18.37 0 01-1.25-2.75zm10.9-2h10.31v1.69h-6.21l-.62.56h6.44l-.25 3.88a2.63 2.63 0 01-.38 1.56 1.71 1.71 0 01-1.5.62H502l-.75-1.5a9.37 9.37 0 01-3.5 1.88l-1.38-1.44a10.39 10.39 0 003.19-1.5 5.12 5.12 0 001.75-1.69h-.56a7.06 7.06 0 01-2.06 1.88 11.94 11.94 0 01-3.44 1.44l-1.25-1.69a9.7 9.7 0 002.31-.56 4.78 4.78 0 001.88-1.07h-.94a3.49 3.49 0 01-.75.5 4.2 4.2 0 01-.81.38l-.44-.56a20.37 20.37 0 01-3 1.18l-.69-2.12 1.56-.5v-3.56h-1.31v-1.94h1.31v-3.44h2.19v3.44h1v1.94h-1v2.75l.56-.32.38.88a3 3 0 00.62-.38 3.6 3.6 0 00.69-.62H496zm1.06-.37v-5.44h8.13v5.44zm2.19-3.32H503v-.5h-3.81zm0 1.69H503V102h-3.81zm2.5 8.31h1q.69 0 .75-.87l.12-1.38h-.18a6.61 6.61 0 01-1.71 2.25zM163.61 93.41h184.71v21.5H163.61z"/><path class="cls-5" d="M169.42 109.82h-1.53v-1.71h-2V107h2v-.7h-1.61v-4.5h1.63v-.69h-1.86V100h1.86v-.81h1.51v.81h1.91v1.09h-1.91v.69h1.64v.62a9.66 9.66 0 001.34-1.53 6.31 6.31 0 00.92-1.75h1.61a5.53 5.53 0 00.54 1c.26.37.51.71.76 1a13.62 13.62 0 001.35 1.3l-1 1.07-.27-.23v.67H175v1.43h2.2v1.3H175v3.08h-1.66v-3.08h-2v-1.3h2v-1.43h-1.3v-.68l-.44.37-.58-.77v3.41h-1.64v.7h1.85v1.16h-1.85zm.19-6.24v-.76h-1.92v.76zm0 1.59v-.8h-1.92v.8zm3.1-2.52h3a8.91 8.91 0 01-1.5-2.05 6.91 6.91 0 01-1.5 2.05zm6.71 3.05a14 14 0 01-.66 3.44l-1-.25a17.09 17.09 0 00.52-3.27zm1.56 4.15h-1.36v-4.66q-1 .09-1.62.12l-.13-1.15h.82l.66-.93c-.55-.66-1.06-1.24-1.53-1.75l.78-.91.18.19a10.09 10.09 0 00.92-1.7l1.19.48a13.22 13.22 0 01-1.33 2.08l.48.57a14.49 14.49 0 001.08-1.93l1.19.56a27.58 27.58 0 01-2.2 3.27l1.11-.08a6 6 0 00-.28-.83l1-.31c.15.44.37 1.11.64 2h2.21l.23.24a6.14 6.14 0 01-.81 2.46 5.52 5.52 0 01-1.95 2l-.8-.92a5 5 0 002-2.71h-1v-.87l-.91.25c0-.07 0-.2-.09-.41l-.46.09zm1.56-2.14l-1 .2c-.18-1.06-.28-1.79-.31-2.19l1-.16a21.62 21.62 0 00.31 2.15zm4 1a.87.87 0 01-.35.71 1.16 1.16 0 01-.77.28H184l-.13-1.35h.93c.21 0 .31-.09.31-.27v-3.71h-2.31v-4.31h2l.34-1 1.56.26-.37.76h2.42v4.31h-2.15a7.4 7.4 0 00.49 1.22 9.52 9.52 0 001.39-1.18l1 .94a9.75 9.75 0 01-1.78 1.28 9.5 9.5 0 001.83 1.81l-1 1.14a8.5 8.5 0 01-2-2.42zm-2.25-6.91h2.88v-.67h-2.88zm2.88.8h-2.88v.7h2.88zm6.2.53a10.19 10.19 0 01-.72 4.31 5.46 5.46 0 01-2.26 2.45l-.78-1.43a4 4 0 001.58-1.86 9.8 9.8 0 00.55-3.75v-2.76h1.63zm6.27 1.88a9.71 9.71 0 01-1.91 3 5.88 5.88 0 01-2.64 1.7l-.59-.58v-9.38h1.63v7.64a7.46 7.46 0 002.31-3.38zm9.61.49h-8.62v-1.56h8.62zm9.88-.18l-.88 1.39a17.23 17.23 0 00-4-2.61v5.71h-1.71V99.24h1.73v3.13a23.76 23.76 0 014.86 2.95zm6.15.37a16.47 16.47 0 01-.29 1.88 9.34 9.34 0 01-.43 1.57l-1.1-.25a18.24 18.24 0 00.58-3.28zm1.74 4.13h-1.48v-4.58c-.79.07-1.4.12-1.84.13l-.12-1.21h.91c.2-.24.44-.56.74-1-.52-.58-1.09-1.17-1.7-1.78l.87-.92.21.21a10.57 10.57 0 001-1.72l1.34.48a16.47 16.47 0 01-1.46 2.11l.53.56a14.15 14.15 0 001.17-1.89l1.3.56c-.74 1.12-1.55 2.21-2.42 3.28l1.24-.09c-.15-.47-.26-.76-.31-.87l1.12-.34c.22.55.48 1.32.8 2.3l-1.2.29a3.07 3.07 0 00-.09-.38l-.59.08zm1.79-1.64l-1.2.17a23.7 23.7 0 01-.4-2.58l1.19-.12zm1.74 1.5l-.19-1.44h1.51a.65.65 0 00.67-.5 7.72 7.72 0 00.17-1.83v-4.2h-2.41a11.36 11.36 0 01-.84 1.8l-1.23-.56a19.37 19.37 0 00.77-2.11 12.45 12.45 0 00.4-1.8l1.59.16a10.6 10.6 0 01-.3 1.33h3.54v6.03a7.1 7.1 0 01-.25 2 1.83 1.83 0 01-.58.73 1.93 1.93 0 01-.78.35c-.17.02-.85.04-2.07.04zm1.21-3.42l-1.47.52a27.4 27.4 0 00-1.18-3.11l1.34-.52a20.63 20.63 0 011.31 3.11zm16.97 4.4h-7.49v-1.72h2.52v-6.81h-2.52v-1.58a4.14 4.14 0 002.12-.42 1.63 1.63 0 00.73-1.26h2.17v10.07h2.47zm11.32-9.66l-5.35 9.68h-2.81l5.59-9.86h-6.33v-1.93h8.9zm9.5 3.21a6 6 0 01-1.36 3.6 6.8 6.8 0 01-3.15 2l-.73-1.3c2.25-.79 3.43-2.21 3.52-4.27h-1.6v-.51c-.41.35-.83.68-1.26 1l-1-1.07a10.61 10.61 0 002.37-2.28 8.76 8.76 0 001.41-2.38l1.66.4a12 12 0 01-2.29 3.44h5.35a10.48 10.48 0 01-2.12-3.46l1.53-.46a10.85 10.85 0 001.66 2.61 13.29 13.29 0 002.3 2l-1.26 1.27-.62-.54a27.58 27.58 0 01-.15 3.12 2.75 2.75 0 01-.71 1.77 2.08 2.08 0 01-1.43.5h-2.11l-.24-1.5h1.85a.88.88 0 00.84-.52 9.44 9.44 0 00.25-2.94v-.5zm13 6.12H280v-9.62h2.55v.63h-1.75v8.36h1.75zm12.76-2.03l-.5.61a8.23 8.23 0 01-2.4-2.1 11 11 0 01-1.55-2.68 7.4 7.4 0 01-1.6 2.87 6.91 6.91 0 01-2.84 1.88l-.28-.57a6.29 6.29 0 002.76-2 6 6 0 001.36-3h-3.88v-.64h4v-2.47h.82v2.46h4v.64h-3.9a8.81 8.81 0 001.51 2.83 7.66 7.66 0 002.5 2.17zm5.52-3.93a5.73 5.73 0 01-1.54 2.76 8.22 8.22 0 01-2.67 1.74l-.3-.55a6.63 6.63 0 003-2.37 5.45 5.45 0 001-3v-2.6h.82V103a6.1 6.1 0 00.86 2.22 6.41 6.41 0 001.73 1.93 8 8 0 001.71 1l-.48.65a9 9 0 01-2.68-2 6.16 6.16 0 01-1.45-2.43zm13.11 4.02H309v-1c.52-.45 1.11-1 1.76-1.57a9.6 9.6 0 001.44-1.57 2.32 2.32 0 00.48-1.35 1.17 1.17 0 00-.4-.94 1.61 1.61 0 00-1.08-.34 3.49 3.49 0 00-2 .64h-.05v-1a4.75 4.75 0 012-.47 2.66 2.66 0 011.76.54 1.84 1.84 0 01.63 1.48 2.75 2.75 0 01-.16.95 3 3 0 01-.51.88c-.23.29-.51.59-.83.92s-1.06 1-2.22 2h4zm6.21 0h-4.92v-1c.52-.45 1.11-1 1.76-1.57a9.6 9.6 0 001.44-1.57 2.32 2.32 0 00.48-1.35 1.14 1.14 0 00-.4-.94 1.59 1.59 0 00-1.08-.34 3.52 3.52 0 00-2 .64v-1a4.75 4.75 0 012-.47 2.65 2.65 0 011.76.54 1.85 1.85 0 01.64 1.48 2.75 2.75 0 01-.17.95 3 3 0 01-.51.88c-.23.29-.51.59-.83.92s-1.06 1-2.22 2h4zm3.69.16a2.12 2.12 0 01-1.91-.93 7.2 7.2 0 010-5.8 2.42 2.42 0 013.81 0 7.2 7.2 0 010 5.8 2.1 2.1 0 01-1.9.93zm0-6.91a1.28 1.28 0 00-1.21.66 7.86 7.86 0 000 4.83 1.43 1.43 0 002.42 0 8 8 0 000-4.82 1.27 1.27 0 00-1.21-.67zm13.81 3.36h-6.51v4h-.75v-8.2h8v7.31a.72.72 0 01-.25.57 1 1 0 01-.64.21h-1.36l-.1-.69h1.17a.37.37 0 00.41-.41zm-6.51-.62H334v-3h-2.82zm3.56 0h2.95v-3h-2.95zm10.55 5.95h-2.55v-.63h1.75v-8.36h-1.75v-.63h2.55z"/><path d="M24.86 42.72c-1.14 0-1.95 0-2.86.08a16.07 16.07 0 00.24-3.22V25.67a15.64 15.64 0 00-.24-2.76c.8.05 1.32.05 2.83.05h5.57c3.77 0 5.88 1.72 5.88 4.79a4.39 4.39 0 01-1.41 3.48 5.13 5.13 0 01-2 1 4.94 4.94 0 012.52 1.09A4.88 4.88 0 0137 37.26c0 3.49-2.28 5.46-6.26 5.46zm5.52-11.28c2.41 0 3.84-1.28 3.84-3.46s-1.3-3.25-3.87-3.25h-6.11v6.71zM24.24 41h6.26c2.84 0 4.35-1.36 4.35-3.85s-1.51-3.9-4.4-3.9h-6.21zm29.43 1.72a18.22 18.22 0 00-1.53-4.44c-1.51-3.56-2.53-4.58-4.61-4.58h-4.81v6.09a16.09 16.09 0 00.21 2.93h-2.42a15.28 15.28 0 00.21-2.91V25.87a18.23 18.23 0 00-.21-3c.91.06 1.64.08 2.84.08h5.72c3.77 0 5.85 1.77 5.85 5a4.71 4.71 0 01-1.56 3.82 5.42 5.42 0 01-2.81 1.3c1.07.31 1.72 1 2.65 2.86.63 1.22 1.25 2.57 2.06 4.37a22.05 22.05 0 001.17 2.41zm-4.78-10.81a4.14 4.14 0 002.93-1.12 3.42 3.42 0 001-2.63c0-2.21-1.3-3.4-3.77-3.4h-6.33v7.15zm17.94 7.88a16.55 16.55 0 00.2 2.93h-2.44a15 15 0 00.21-2.93v-15h-4.06a18.79 18.79 0 00-3 .18v-2.19a18.43 18.43 0 003 .18h10.12a18.22 18.22 0 003.06-.18V25a18.62 18.62 0 00-3.06-.18h-4z" fill="#3c3c3c"/></g></g></svg>