<svg xmlns="http://www.w3.org/2000/svg" width="560" height="150"><defs><style>.cls-2{fill:#fff}.cls-5{fill:#004da0}</style></defs><g id="レイヤー_2" data-name="レイヤー 2"><g id="object"><rect width="560" height="150" rx="10" fill="#e6e6e6"/><path class="cls-2" d="M555 65v75a5 5 0 01-5 5H10a5 5 0 01-5-5V65z"/><path d="M30.84 28.68c-.21.52-.23.63-.54 1.62a22.27 22.27 0 01-7.75 11.46 5.91 5.91 0 00-1.46-1.3 17.19 17.19 0 004.32-4.05 19.11 19.11 0 003.43-7h-4.29a15.62 15.62 0 00-2.47.15V27.7a16 16 0 002.52.13h2.78a15.84 15.84 0 002.47-.11zm12.3-1.89a6.76 6.76 0 00-.73.8c-.62.73-2.39 2.52-3.35 3.41-.73.65-.73.65-2.21 1.82a24.21 24.21 0 003.07 3.72A19.16 19.16 0 0045 40.18a6 6 0 00-1.38 1.63A22.22 22.22 0 0138 37.06a23 23 0 01-2.94-4.32 17.62 17.62 0 01-1.38-3.3c.16 2.26.21 3.69.21 5.07v7.69c0 1.64-.52 2.08-2.37 2.08a31.53 31.53 0 01-3.3-.18 5.09 5.09 0 00-.41-1.79 19 19 0 003.48.36c.73 0 .88-.13.88-.75V24.16a17.16 17.16 0 00-.17-2.63h2.06a13.63 13.63 0 00-.21 2.6v1.8A16.31 16.31 0 0036 31.49c2.94-2.47 4.66-4.34 5.49-6zm16.22 15.1h8.51a24 24 0 002.91-.15v2a20.67 20.67 0 00-2.91-.18H50.55a23 23 0 00-3.07.18v-2a25.68 25.68 0 003.07.15h7V24.34a18.09 18.09 0 00-.18-2.7h2.21a17.79 17.79 0 00-.19 2.7v5.33h6.58a20.33 20.33 0 002.71-.15v2a19.07 19.07 0 00-2.71-.16h-6.61zM82 24.37a8.8 8.8 0 00-.34 1.77c-1.09 7.41-3.2 12.4-6.87 16.22A5.58 5.58 0 0073.17 41a16.79 16.79 0 003.77-5.15 30.41 30.41 0 002.68-9 22 22 0 00.26-2.45 2.47 2.47 0 000-.41zm7.2-.39a31.84 31.84 0 001.19 6.24c1.25 4.57 3.39 8.42 5.91 10.74a5.49 5.49 0 00-1.62 1.45c-3.45-3.66-6-9.67-7.07-16.33a10.44 10.44 0 00-.34-1.71zM92 22.6a18.81 18.81 0 012.6 4.08l-1.32.76a19.7 19.7 0 00-2.58-4.19zm3-1.35a20.23 20.23 0 012.6 4.11l-1.3.7a20.71 20.71 0 00-2.58-4.14zm24.94 21.86a48.2 48.2 0 00-8.32-8 27.94 27.94 0 01-5 4.65 33.36 33.36 0 01-5.1 3.12 5.65 5.65 0 00-1.27-1.71 21.3 21.3 0 005.28-3 28.22 28.22 0 009.28-11.73c.05-.15.08-.18.13-.31a.91.91 0 00.08-.18 5.93 5.93 0 01-.63 0l-8.68.13a18 18 0 00-2.68.21v-2.1a12.62 12.62 0 002 .13h.68l9.28-.11a4.57 4.57 0 001.66-.21l1.1 1.12a4.71 4.71 0 00-.73 1.28 31.92 31.92 0 01-4.29 7.28 65.14 65.14 0 018.66 7.8zM146.7 45a17.45 17.45 0 01-3.61-5.59 17 17 0 010-12.8A17.45 17.45 0 01146.7 21h2.3a16.43 16.43 0 00-3.95 5.39 16.26 16.26 0 000 13.2A16.43 16.43 0 00149 45zm7.62-20.37a24.87 24.87 0 00-2.84.15v-1.9a20.41 20.41 0 002.81.16h17.29a19.34 19.34 0 002.84-.16v1.9a23.24 23.24 0 00-2.81-.15h-6.53a22.7 22.7 0 01-1.66 2.91v14.4a18.61 18.61 0 00.18 2.81h-2.13a24.74 24.74 0 00.18-2.81V29.66a26.58 26.58 0 01-4 4.21 35.7 35.7 0 01-5.54 4.13 6.13 6.13 0 00-1.2-1.53 31.09 31.09 0 008-6.06 20.76 20.76 0 004.14-5.77zM166 28.92a24.62 24.62 0 004 4 25.27 25.27 0 005.2 3.22 6.11 6.11 0 00-1.2 1.61 29 29 0 01-9.28-7.8zm22.32 1.48h-4.6a16.75 16.75 0 00-2.57.16v-1.8a15.89 15.89 0 002.57.16h10.77a15.89 15.89 0 002.57-.16v1.8a16.14 16.14 0 00-2.57-.16h-4.55v4.24h5a14.94 14.94 0 002.5-.16v1.77a13.84 13.84 0 00-2.5-.16h-5v5.78a24.06 24.06 0 004.23.28c2.11 0 3.9-.08 6.09-.26a4.73 4.73 0 00-.57 1.82h-3.15a35.83 35.83 0 01-5.69-.2c-4.06-.58-6.61-2.14-8-4.89a17.45 17.45 0 01-4 5.9 4.64 4.64 0 00-1.35-1.22 13.81 13.81 0 003.51-4.63 16.56 16.56 0 001.59-5.93v-.26l1.82.37-.32 1.35c-.13.62-.52 2.13-.7 2.75a7.94 7.94 0 002.06 2.86 8.68 8.68 0 002.8 1.59zm-.39-7.4a9.35 9.35 0 00-.15-1.64h2a6.87 6.87 0 00-.19 1.61v1.28h7.6c1 0 1.76 0 2.6-.1a11.34 11.34 0 00-.11 1.76v1.64a12.16 12.16 0 00.11 1.85h-1.69v-3.6H180v3.64h-1.72a12.07 12.07 0 00.11-1.85V26a11.34 11.34 0 00-.11-1.76c.83.07 1.59.1 2.63.1h7zM206 24a15.62 15.62 0 00-.16-2.47h1.82a17.36 17.36 0 00-.13 2.5v.46h4.79V24a15.43 15.43 0 00-.13-2.47H214a16 16 0 00-.16 2.5v.46a11.53 11.53 0 002.16-.15V26a14.2 14.2 0 00-2.16-.1V37a12.63 12.63 0 002.06-.13v1.61c-.6 0-1.35-.08-2.37-.08h-8.21a11.29 11.29 0 00-2.11.13V36.9a10.93 10.93 0 002.08.13h.71v-11.1h-.16a11.25 11.25 0 00-2.23.13v-1.69a11.24 11.24 0 002.23.15h.16zm2.68 16.12a14.91 14.91 0 01-4.06 4.5 3.65 3.65 0 00-1.2-1.25 10.27 10.27 0 003.9-4.06zm3.64-11.52v-2.7h-4.79v2.7zm0 4.06V30h-4.79v2.73zm0 4.34v-3h-4.79v3zm-.39 2.29a9.67 9.67 0 002.52 2.71 5.17 5.17 0 00-1.19 1.11 12.84 12.84 0 01-2.52-3zm6.63-3c-.34 3.83-1.07 5.85-3 8.43a4.12 4.12 0 00-1.27-1.2 10.08 10.08 0 002.57-5.87 116.39 116.39 0 00.45-12.07 25.48 25.48 0 00-.11-3.07 20.37 20.37 0 002.5.11h3.59a19.72 19.72 0 002.47-.11 20 20 0 00-.11 2.52v17.59c0 .88-.23 1.43-.7 1.69a5.07 5.07 0 01-2.11.29c-.36 0-.64 0-2.05-.11a7.06 7.06 0 00-.42-1.84 14.24 14.24 0 002.87.33c.62 0 .83-.15.83-.57v-6.06zm.23-6.21c-.05 2.55-.05 3.09-.16 4.76H224v-4.7zm5.23-6h-5.2v4.55H224zm5.31 7.57a10.64 10.64 0 002 .13h1.3a12.76 12.76 0 002-.13 19.93 19.93 0 00-.13 2.75v5.15a4 4 0 002.26 2.34c1.3.57 2.81.76 6 .76a78.87 78.87 0 0010.47-.47 7 7 0 00-.62 1.82c-3 .13-5.62.18-8.5.18-4.79 0-6.19-.16-7.72-.88a6.61 6.61 0 01-2.73-2.47 24.13 24.13 0 01-3 2.62 11.16 11.16 0 00-1 .86l-.88-1.72a16.26 16.26 0 004.16-3.09v-6.27h-1.67a10.5 10.5 0 00-1.89.13zm1.67-9.81a34.9 34.9 0 013.77 4.69l-1.3 1.19a21.6 21.6 0 00-3.72-4.84zm4.76 2a11.11 11.11 0 00-.1-1.61 20.47 20.47 0 002.39.1h11.78a21.56 21.56 0 002.42-.1 9 9 0 00-.11 1.58v1.1a9.4 9.4 0 00.11 1.66h-1.67v-2.93h-13.27v2.91h-1.61a11.39 11.39 0 00.1-1.61zm3.35 12.38a15.27 15.27 0 00-2 .1 10.56 10.56 0 00.11-1.69v-4.26a10.66 10.66 0 00-.11-1.74 14.18 14.18 0 002 .11H243V27h-3.14a10.43 10.43 0 00-2 .13v-1.51a10.88 10.88 0 002 .13H243a7.58 7.58 0 00-.13-1.41h1.72a6.21 6.21 0 00-.13 1.41h3.74a12.2 12.2 0 001.93-.11v1.51a10.26 10.26 0 00-2-.13h-3.67v1.72h4.29a14.37 14.37 0 002-.11 11.76 11.76 0 00-.11 1.74v4.24a11.07 11.07 0 00.11 1.69 16.23 16.23 0 00-2-.1h-4.29V38h5.48a16 16 0 002.24-.13v1.58a14.69 14.69 0 00-2.24-.13h-5.48v.34a15.77 15.77 0 00.15 2.26h-1.79a14.9 14.9 0 00.18-2.26v-.34h-5a13.51 13.51 0 00-2.18.16v-1.59A17.15 17.15 0 00238 38h5v-1.8zm-.41-6.27v1.93h4.3v-1.95zm0 3.07v2h4.3V33zm5.72-1.14h4.73v-1.95h-4.73zm0 3.14h4.73V33h-4.73zm14.88.76c0-1.12 0-1.87.08-3.12a14.6 14.6 0 01-3 2.91 4.9 4.9 0 00-1-1.48 21.26 21.26 0 005.28-5.09 9.09 9.09 0 001.24-2.24l1.62.91a9.8 9.8 0 00-.78 1.12A17.58 17.58 0 01261 31.1v10.51a19.34 19.34 0 00.19 3.17h-2.06a19.82 19.82 0 00.18-3.17zm3.59-13.54a4.9 4.9 0 00-.47.57 25.38 25.38 0 01-5.77 5.64 5.15 5.15 0 00-1.17-1.28 17.36 17.36 0 003.43-2.75 10.28 10.28 0 002.37-3.17zm3.77 8.63a20.67 20.67 0 00-2.88.15V29.2a18.68 18.68 0 002.88.16h9.13a17.62 17.62 0 002.86-.16V31a20.75 20.75 0 00-2.83-.15h-1.49v11.41c0 1.66-.62 2.1-2.91 2.1-.83 0-2.05 0-3.17-.13a6.1 6.1 0 00-.42-1.79 25.71 25.71 0 003.67.31c.88 0 1.09-.1 1.09-.62V30.87zm-1.82-8.19a19.22 19.22 0 002.71.15h7.28a18.79 18.79 0 002.67-.15v1.82a19 19 0 00-2.67-.16h-7.28a19.56 19.56 0 00-2.71.16zM281 45a16.23 16.23 0 003.95-5.39 16.26 16.26 0 000-13.2A16.23 16.23 0 00281 21h2.31a17.67 17.67 0 013.62 5.59 17.14 17.14 0 010 12.8A17.67 17.67 0 01283.3 45z" fill="#3c3c3c"/><path stroke-linejoin="round" stroke-width="2" stroke="#004da0" fill="none" stroke-linecap="round" d="M103.04 105.46h292.47"/><path class="cls-2" d="M208.55 88.42h80.54v34.08h-80.54z"/><path class="cls-5" d="M224.5 99.89a15.86 15.86 0 01-.29 1.75 8.89 8.89 0 01-.43 1.47l-1.1-.23a15.14 15.14 0 00.57-3.06zm1.74 3.86h-1.49v-4.28c-.78.07-1.4.11-1.83.12l-.12-1.13h.91l.74-.9c-.52-.54-1.09-1.09-1.7-1.65l.87-.86.21.19a9.26 9.26 0 001-1.61l1.34.45a15 15 0 01-1.46 2l.53.53a13.07 13.07 0 001.17-1.77l1.3.53a37.86 37.86 0 01-2.43 3.06l1.25-.09c-.15-.43-.26-.7-.31-.81l1.12-.31c.22.51.48 1.23.8 2.15l-1.2.26a2.56 2.56 0 00-.09-.35l-.59.08zm1.79-1.53l-1.2.15a20.38 20.38 0 01-.4-2.4l1.19-.12zm1.74 1.4l-.19-1.34h1.51a.65.65 0 00.67-.48 6.2 6.2 0 00.17-1.7v-3.92h-2.39a10.14 10.14 0 01-.84 1.68l-1.23-.53a17.17 17.17 0 00.77-2 10.85 10.85 0 00.4-1.68l1.59.15a9 9 0 01-.3 1.24h3.54v5.64a6.17 6.17 0 01-.25 1.86 1.7 1.7 0 01-.58.69 2 2 0 01-.78.32c-.19.05-.86.06-2.09.07zm1.22-3.19l-1.48.48a25.45 25.45 0 00-1.18-2.91l1.34-.48a19 19 0 011.33 2.91zm8.47 3.65V102h.25a7.13 7.13 0 003.35 1 3.36 3.36 0 001.93-.48 1.58 1.58 0 00.7-1.4 1.29 1.29 0 00-.55-1.12 4.15 4.15 0 00-2.24-.4h-.69v-1.7h.65c1.75 0 2.62-.49 2.62-1.49a1 1 0 00-.56-1 3.18 3.18 0 00-1.6-.33 7.51 7.51 0 00-3.28.94h-.24V94a11.43 11.43 0 013.82-.7 5.91 5.91 0 013.29.75A2.26 2.26 0 01248 96a2.33 2.33 0 01-.61 1.61 3 3 0 01-1.65.92v.11a3.46 3.46 0 011.87.85 2.29 2.29 0 01.68 1.71 3 3 0 01-1.31 2.57 5.9 5.9 0 01-3.56 1 11.13 11.13 0 01-3.96-.69zm15.27.69a4.29 4.29 0 01-3.52-1.36 6.84 6.84 0 01-1.12-4.41 6.85 6.85 0 011.12-4.35 5.21 5.21 0 017 0 6.8 6.8 0 011.16 4.35 7 7 0 01-1.11 4.39 4.33 4.33 0 01-3.53 1.38zm0-9.75a1.63 1.63 0 00-1.57 1 7.46 7.46 0 00-.47 3.07 7.06 7.06 0 00.49 3.06 1.61 1.61 0 001.55 1 1.64 1.64 0 001.56-1 10.09 10.09 0 000-6.12 1.63 1.63 0 00-1.56-1.03zm14.06 3.49a5.32 5.32 0 01-1.36 3.36 6.85 6.85 0 01-3.15 1.84l-.73-1.21q3.38-1.11 3.52-4h-1.61V98a13.48 13.48 0 01-1.26.92l-1-1a10.31 10.31 0 002.37-2.13 8.22 8.22 0 001.43-2.13l1.66.36a11.33 11.33 0 01-2.29 3.22h5.35a9.79 9.79 0 01-2.13-3.24l1.53-.43a10.22 10.22 0 001.66 2.43 13.38 13.38 0 002.3 1.87l-1.26 1.19-.62-.5a23.67 23.67 0 01-.15 2.9 2.5 2.5 0 01-.71 1.66 2.16 2.16 0 01-1.44.46h-2.11l-.24-1.4h1.86a.88.88 0 00.84-.48 8.23 8.23 0 00.25-2.7v-.47zm-50.07 20.66h-2.54v-9h2.54v.59H217v7.81h1.75zm12.77-1.9l-.5.57a7.87 7.87 0 01-2.39-2 9.89 9.89 0 01-1.56-2.5 6.79 6.79 0 01-1.6 2.67 7 7 0 01-2.84 1.76l-.28-.53a6.24 6.24 0 002.76-1.88 5.4 5.4 0 001.36-2.8h-3.88V112h4v-2.29h.82V112h4v.6h-3.94a8 8 0 001.52 2.65 7.48 7.48 0 002.53 2.02zm5.51-3.67a5.2 5.2 0 01-1.54 2.58 8.2 8.2 0 01-2.66 1.62l-.31-.51a6.48 6.48 0 003-2.22 4.85 4.85 0 001-2.8v-2.43h.82v2.49a5.73 5.73 0 00.85 2.08 6.31 6.31 0 001.74 1.79 8.33 8.33 0 001.7 1l-.47.6a9 9 0 01-2.68-1.85 5.62 5.62 0 01-1.45-2.35zm13.3 1.78h-1.08v2h-.88v-2h-3.54v-1l3.58-3.93h.84v4.21h1.08zm-2-.68v-3.21l-2.93 3.21zm7.45-4.23v.81h-.06a2.22 2.22 0 00-1-.19 2.32 2.32 0 00-1.72.64 2.84 2.84 0 00-.76 1.78 3.74 3.74 0 011.8-.51 2.65 2.65 0 011.74.55 2 2 0 01.66 1.59 2.19 2.19 0 01-.72 1.69 2.53 2.53 0 01-1.8.67 2.39 2.39 0 01-1.93-.81 3.52 3.52 0 01-.69-2.35 4.24 4.24 0 01.92-2.93 3.35 3.35 0 012.65-1 3.12 3.12 0 01.91.06zm-3.5 3.62v.46a2.7 2.7 0 00.46 1.67 1.5 1.5 0 001.25.59 1.52 1.52 0 001.16-.43 1.66 1.66 0 00.42-1.21 1.51 1.51 0 00-.39-1.06 1.77 1.77 0 00-1.32-.42 3.41 3.41 0 00-1.58.4zm7.75 3.41a2.16 2.16 0 01-1.91-.87 6.21 6.21 0 010-5.41 2.52 2.52 0 013.81 0 6.3 6.3 0 010 5.41 2.16 2.16 0 01-1.9.87zm0-6.45a1.31 1.31 0 00-1.22.62 7.06 7.06 0 000 4.51 1.31 1.31 0 001.22.62 1.27 1.27 0 001.2-.62 4.74 4.74 0 00.38-2.26 4.88 4.88 0 00-.37-2.24 1.3 1.3 0 00-1.21-.63zm13.86 3.15h-6.52v3.71h-.75v-7.65h8v6.83a.65.65 0 01-.24.53 1 1 0 01-.65.2h-1.35l-.11-.64h1.17c.28 0 .42-.13.42-.38zm-6.52-.58h2.82v-2.78h-2.82zm3.56 0h3v-2.78h-3zm10.55 5.55h-2.54v-.59h1.75v-7.81h-1.75v-.59h2.54z"/><path d="M394.93 86.06c0-.59 6.91-1.06 15.44-1.06h114.19c8.53 0 15.44.47 15.44 1.06v37c0 .58-6.91 1-15.44 1H410.37c-8.53 0-15.44-.47-15.44-1z" stroke-miterlimit="10" fill="#004da0" stroke="#004da0"/><path class="cls-2" d="M428.85 100.83h-6v.47h4.32v5.7h-2.63a10.44 10.44 0 004.38 2.45l-1.32 1.81a15.55 15.55 0 01-2.68-1.29 8.1 8.1 0 01-2.07-1.63v3.09h-2.25v-3.13a7.64 7.64 0 01-2.06 1.81 8.5 8.5 0 01-2.44 1.22l-1.5-1.86a10.07 10.07 0 002.44-1 5.73 5.73 0 001.81-1.45h-2.56v-5.72h4.31v-.47h-6.13V99h6.13v-1.15h2.25V99h6zm-10.31 2.68h2.06V103h-2.06zm0 1.75h2.06v-.52h-2.06zm4.31-1.75h2.07V103h-2.07zm0 1.75h2.07v-.52h-2.07zm7.76-4.08v-1.87h6v-1.52h2.31v1.52h6v1.87zm3.68 5.54l1.82.94a7.76 7.76 0 01-3.94 3.62l-1.5-1.7a7.65 7.65 0 003.62-2.86zm1.57 4.61l-.81-1.92h1.12c.5.08.71-.14.63-.64v-2.16h-4.32v-4.79H443v4.79h-3.88v3.09c0 1.09-.52 1.63-1.56 1.63zm-1.19-6.65h6.13v-1h-6.13zm6.44 2.1a13 13 0 003.81 2.57l-1.5 1.81a20 20 0 01-2.18-1.63 14.69 14.69 0 01-1.69-1.7zm7.89-8.29v4.56a23.51 23.51 0 006.56-2.45l1.69 1.51a28.17 28.17 0 01-8.25 3.1v2.16c0 .58.35.87 1.06.87q2.94 0 7.26-.06l-.32 2.1h-7.94a2.59 2.59 0 01-1.81-.52 2.37 2.37 0 01-.5-1.69v-9.58zm6.38 1.41l.94-.76 1.37 1.34-.94.82zm1.31-1l.94-.76 1.25 1.29-.88.76zm2.68 2.69l1.75-.64a22.33 22.33 0 011.31 3l-1.75.7a27.49 27.49 0 00-1.31-3.06zm1.62 7.47a11.23 11.23 0 005.19-3.27 12.86 12.86 0 002.13-5.08l2.19.7a14.76 14.76 0 01-2.75 5.78 13.33 13.33 0 01-5.44 3.62zm1.69-8l1.82-.64c.45.93.89 1.89 1.31 2.86l-1.88.58a30.4 30.4 0 00-1.25-2.8zm8.88 3.27a15.19 15.19 0 004.75-6.07l2.26.82-.57 1.22h3.75l.19-.23 1.82 1.05a16.58 16.58 0 01-8.51 9.92l-1.75-1.75q5.5-2.62 7.19-7.06h-3.94a18.87 18.87 0 01-3.31 3.56zm8.38-6l1.06-.7 1.44 1.52-1.12.7zm2.25-.06l1-.7 1.44 1.43-1.12.76zm3 4.95v-2h2.69v-2.67h2.32v2.69h3.06v-2.8h2.31v2.8h2.63v2h-2.63a8.58 8.58 0 01-1.12 4.61 8.42 8.42 0 01-3.75 3l-1.7-1.62a7.78 7.78 0 003.25-2.39 5.89 5.89 0 001-3.62h-3.05v3.21h-2.32v-3.21zm13.63 1.46a25.14 25.14 0 0010.18-6.3l2 1.52a21.34 21.34 0 01-4.19 3.32v7.53h-2.44v-6.13a31.51 31.51 0 01-4.19 2.1zm13.32-6.48h2.38v5l1.12-1.28a53 53 0 015.26 3.38l-1.5 1.7a42.35 42.35 0 00-4.88-3.27v7.12h-2.38z"/><path d="M20 87c0-.59 4-1.06 8.84-1.06H94.2c4.88 0 8.84.47 8.84 1.06v37c0 .58-4 1-8.84 1H28.84c-4.84 0-8.84-.47-8.84-1z" stroke-linejoin="round" stroke-width="2" stroke="#004da0" fill="#fff"/><path class="cls-5" d="M31.52 110.94v-10.43h8.84v10.43h-1.83v-.61h-5.18v.61zm1.83-6.3h5.18V102h-5.18zm0 4.17h5.18v-2.75h-5.18zm16.46 1.75l-.92-1.51a5.13 5.13 0 002.6-1.52 3.09 3.09 0 00.45-3.37 2.71 2.71 0 00-2.74-1.52q0 4.94-2.24 6.74a1.92 1.92 0 01-1.88.38 2.77 2.77 0 01-1.52-1.38 4.34 4.34 0 01-.05-4 5.36 5.36 0 013.15-2.84 6.56 6.56 0 013.1-.38 4.58 4.58 0 012.74 1.13 4.11 4.11 0 011.5 2.82 4.6 4.6 0 01-.91 3.27 6.54 6.54 0 01-3.28 2.18zm-2.34-7.73a3.45 3.45 0 00-2.54 3.09 2.51 2.51 0 00.15 1.32c.21.54.48.73.82.57a2.48 2.48 0 001.1-1.56 10.3 10.3 0 00.47-3.42zm18.44-1.89v4.36h-4v3.51h2.64v-3h1.83V111h-1.84v-.67h-7.11v.67H55.6v-5.22h1.83v3H60v-3.48h-4v-4.36h1.83v2.84H60V100h1.9v3.74h2.18v-2.84zm9.96-1v1.42l1.27-.09a2.35 2.35 0 00-.71-.85l1.27-.72a2.17 2.17 0 01.92 1.09l-1 .48 1.63-.14.1 1.47-3.41.23v.62l3-.19.05 1.42-2.84.19.1.62 3.45-.29.06 1.47-1.63.15.81.61a7.45 7.45 0 01-1.52 1.33c.17.32.35.44.56.38s.35-.36.76-1.18l1.27 1a4.57 4.57 0 01-.41 1 2.43 2.43 0 01-.71.85 1.68 1.68 0 01-1.27.28 1.84 1.84 0 01-1.17-.61l-.61-.62a8 8 0 01-3 1.19l-1-1.43a8.57 8.57 0 003.35-1.23 7.39 7.39 0 01-.4-1.33l-2.7.19-.15-1.32-.46 1c-.13-.19-.3-.41-.5-.66V111h-1.61v-3.9a5.29 5.29 0 01-.61 1.28l-.81-1.8a13.5 13.5 0 001.37-2.94H68.1v-1.52h1.27v-2.18h1.73v2.18h.81v-.52l2.23-.09v-1.57zm-3.71 5.79l2.44-.15-.1-.56-1.88.14-.1-1.52 1.73-.09v-.57l-2.24.14v.52h-.81a13.71 13.71 0 001.12 1.66zm4.58 1.18l.2.52a1.79 1.79 0 00.56-.57zm15.64-1.37a6.09 6.09 0 01-1-.52v.66h-5V105a4.79 4.79 0 01-.81.66l-1-1.38a3.81 3.81 0 001.63-1.09H85v.52h-.92a13.33 13.33 0 001.17 1.76l-.61 1.61-.56-.76V111h-1.81v-3.32l-.56 1-.76-1.9a10.56 10.56 0 001.27-3.13H81.1v-1.42h1.17V100h1.78v2.23h.81v-.47h2.39l.15-.29h-1.57l-.83-1.15a38.65 38.65 0 006.55-.47l1 1.32c-1 .16-2 .27-3.15.34l-.21.33h3.66v1.37h-1.43a3.42 3.42 0 001.73.86zM90.25 111l-.36-.9h-1.27v.28H87.3v-2.79h3.2v1.75a.28.28 0 00.31-.09.31.31 0 000-.29v-1.66H87v3.7h-1.88v-5h7.52v3.65a1.24 1.24 0 01-1.43 1.35zm-1-7.78h-.91a2.05 2.05 0 01-.36.38h1.68zm-1.11 1.57h1.52v-.29h-1.54zm1.11 4.27v-.53h-.61v.53z"/></g></g></svg>