<svg xmlns="http://www.w3.org/2000/svg" width="630" height="165"><defs><style>.cls-2{fill:#fff}.cls-7{fill:#ef8200}</style></defs><g id="レイヤー_2" data-name="レイヤー 2"><g id="レイヤー_4" data-name="レイヤー 4"><rect width="630" height="165" rx="10" fill="#e6e6e6"/><path class="cls-2" d="M625 55v100a5 5 0 01-5 5H10a5 5 0 01-5-5V55z"/><path d="M25.11 22.57h-2.77a12.07 12.07 0 00-1.5.08V21a9.27 9.27 0 001.54.1h2.72a11.78 11.78 0 001.6-.06 11.45 11.45 0 00-.07 1.56v9.13c0 1.12-.49 1.43-2.34 1.43h-1.18a5 5 0 00-.45-1.61 13.72 13.72 0 002 .17c.37 0 .49-.1.49-.38v-3.28A20.62 20.62 0 0122 30.48l-.65.45-.79-1.5a14 14 0 003.77-2.6l.78 1.17zm-2.76.66a17.32 17.32 0 011.85 2.65l-1.2.91A13.22 13.22 0 0021.16 24zm8.93-.66h-2.71a12.25 12.25 0 00-1.51.08V21a9.27 9.27 0 001.54.1h2.68a11.43 11.43 0 001.58-.06 11 11 0 00-.07 1.56v9.13c0 1.15-.48 1.42-2.52 1.42h-.91a4.88 4.88 0 00-.44-1.61 14.65 14.65 0 001.82.13c.42 0 .54-.07.54-.35V28a21.6 21.6 0 01-2.82 2.18 7.08 7.08 0 00-.78.55l-.79-1.48a8.71 8.71 0 001.65-.92 16.4 16.4 0 002.05-1.58l.69 1.16zm-2.74.67a16.44 16.44 0 011.84 2.64l-1.25.91A14.27 14.27 0 0027.34 24zm16.69 10.03v-.77h-8.48v.77h-1.6a16.7 16.7 0 00.08-1.76v-8.8a11.89 11.89 0 00-.07-1.5 13.6 13.6 0 001.63.07h8.42a13.55 13.55 0 001.61-.07 11.37 11.37 0 00-.07 1.49v8.81a14.58 14.58 0 00.08 1.76zm-8.48-7.18h3.39V22.7h-3.39zm0 5h3.39v-3.62h-3.39zm4.9-5h3.57V22.7h-3.57zm0 5h3.57v-3.62h-3.57zm9.85-1.63a10.92 10.92 0 00-1.61.09V28a11.43 11.43 0 001.47.08h7.12a14.62 14.62 0 001.65-.08v1.57a11.87 11.87 0 00-1.64-.09h-2.8v2.06h3.87a14.6 14.6 0 001.72-.08V33a16.29 16.29 0 00-1.72-.08h-9.08a16.56 16.56 0 00-1.74.08v-1.56c.31 0 1.14.08 1.74.08h3.66v-2.06zm2.62-8.07a3.72 3.72 0 00-.08-.91h1.72a4 4 0 00-.08.91v.48h3.86a11.73 11.73 0 001.54-.07 7.57 7.57 0 000 1.05v.77a5.72 5.72 0 00.07 1.05h-1.59v-1.44h-2.69v2.13c0 .26.09.32.54.33H58a4.86 4.86 0 001.16-.1c.18-.07.24-.25.24-.76a5 5 0 001.43.44c-.09.84-.21 1.19-.52 1.41s-.94.34-2.64.34c-1.87 0-2.25-.18-2.25-1.11v-2.7h-1.23a4.09 4.09 0 01-1 2.66 5.41 5.41 0 01-2 1.33 14.1 14.1 0 01-1.54.53 4.68 4.68 0 00-.89-1.31 6.35 6.35 0 002.8-1.07 2.44 2.44 0 001.09-2.14h-2.17v1.86h-1.56A6.86 6.86 0 0049 24v-1.15a7.83 7.83 0 00-.05-1.05 11.64 11.64 0 001.54.07h3.64zm9.21 2.66a16.3 16.3 0 012.33 1.62l-.89 1.24a13.24 13.24 0 00-2.31-1.74zm2.24 5a22.24 22.24 0 01-1.3 3.49c-.25.55-.29.63-.35.79l-1.33-1.15a6 6 0 00.67-1.08 12.68 12.68 0 001.07-2.86zm-1.66-8.47a13.83 13.83 0 012.19 1.67l-.91 1.19A12 12 0 0063 21.69zM67.24 26a12 12 0 00-1.5.07v-1.54a11.91 11.91 0 001.5.07h.69v-1.32h-.41a12.69 12.69 0 00-1.35.07v-1.48a8.82 8.82 0 001.35.08h.41v-.42a4.54 4.54 0 00-.09-1h1.61a5.54 5.54 0 00-.08 1V22h2v-.42a4.65 4.65 0 00-.08-1h1.61a4.73 4.73 0 00-.08 1V22h.88a9 9 0 001.36-.08v1.48c-.42 0-.86-.07-1.35-.07h-.89v1.27H74a10.38 10.38 0 001.52-.08V26A10.22 10.22 0 0074 26h-1.27a6.08 6.08 0 003 2.07 5.07 5.07 0 00-.88 1.37 10.6 10.6 0 01-2-1.37v1.43a8.43 8.43 0 00.06 1.18 10.27 10.27 0 00-1.13 0h-3.15v.81c0 .23.08.29.4.34.17 0 1.14.06 1.64.06a8 8 0 002.4-.16c.26-.14.3-.38.32-1.65a3.86 3.86 0 001.44.45 4.65 4.65 0 01-.27 1.83 1.3 1.3 0 01-1 .75 15.94 15.94 0 01-2.45.15 14.48 14.48 0 01-3.18-.17c-.54-.15-.73-.42-.73-1.08v-2.69a12.49 12.49 0 001.42.06h2.83v-.94h-1.9a9 9 0 00-1.39.07v-.6a9.47 9.47 0 01-2 1.52 7 7 0 00-1-1.19 7 7 0 002.08-1.31A3.51 3.51 0 0068 26zm2.35 0a6.12 6.12 0 01-.75 1.19H72a7.32 7.32 0 01-.85-1.2zm1.82-1.35v-1.37h-2v1.32zM82.07 21a2.43 2.43 0 00-.12.43c0 .18 0 .25-.08.48s0 .29-.24 1.34a3.69 3.69 0 01-.1.52h.87a2.69 2.69 0 012.07.74 3.39 3.39 0 01.66 2.48c0 2.41-.4 4.33-1.08 5.1a1.77 1.77 0 01-1.55.63 6.65 6.65 0 01-2.16-.41v-.61a5.3 5.3 0 00-.14-1.19 5.94 5.94 0 002 .54c.4 0 .63-.26.84-.95a12.64 12.64 0 00.36-3.19c0-1.29-.32-1.67-1.43-1.67a7.83 7.83 0 00-.81 0 28.68 28.68 0 01-.86 3 29.13 29.13 0 01-1.68 3.94l-.21.42c0 .08 0 .1-.11.24L76.76 32a14.83 14.83 0 001.45-2.64 23 23 0 001.36-4c-.71.09-2 .32-2.51.45l-.16-1.65c.51 0 2.21-.17 3-.28a21.85 21.85 0 00.36-2.83v-.27zm4.63 1.79a13.75 13.75 0 012.89 5.46l-1.6.82a12.75 12.75 0 00-1.12-3.18 8.83 8.83 0 00-1.61-2.4zm7.95.82a29.19 29.19 0 00-.65 3.44c0 .2 0 .2-.07.41a6.6 6.6 0 014.24-1.33c2.38 0 4 1.17 4 3a3.4 3.4 0 01-1.44 2.7 6 6 0 01-3.7 1 13 13 0 01-3.57-.49 6 6 0 00-.21-1.81 11.21 11.21 0 003.77.7c2 0 3.35-.82 3.35-2 0-.94-.89-1.5-2.37-1.5a6.41 6.41 0 00-3.49 1 3.09 3.09 0 00-.63.6l-1.76-.05c0-.25 0-.31.11-.84.11-.87.33-2.43.59-4.08a6 6 0 00.08-.81zm.18-2.75a21.35 21.35 0 005.23 1.56L99.48 24A25.83 25.83 0 0194 22.28zm20.81 12.68a11.7 11.7 0 01-1.53-2.76 10.39 10.39 0 01-.74-3.87 10 10 0 01.72-3.74 11.08 11.08 0 011.54-2.76h2a11.09 11.09 0 00-1.78 2.79 9.2 9.2 0 00-.73 3.71 9.53 9.53 0 00.74 3.84 11 11 0 001.78 2.79zm7.12-12.29a8 8 0 00-.05 1.26v3.87a7.53 7.53 0 00.05 1.23h-1.92a8.68 8.68 0 00.07-1.26V22.5a9.43 9.43 0 000-1.26zm6.36 0a7.13 7.13 0 00-.07 1.3v1.89a16.58 16.58 0 01-.36 4.25 5.36 5.36 0 01-2.76 3.31 11.85 11.85 0 01-2.73 1.08 5 5 0 00-1-1.67 7.6 7.6 0 003-1.12 3.94 3.94 0 001.93-3.57 22.88 22.88 0 00.08-2.34V22.6a6.72 6.72 0 00-.08-1.33zm10.39.07a4.22 4.22 0 00-.37 1 81.76 81.76 0 01-2.77 8 56.46 56.46 0 005.83-.72c-.16-.33-.32-.64-.66-1.27a17.76 17.76 0 00-1.33-2.23l1.58-.62a32.77 32.77 0 013.39 6.52l-1.69.88a17.71 17.71 0 00-.68-1.74l-.5.12c-1.42.29-3.74.58-7.93 1a7.57 7.57 0 00-1.27.17l-.26-1.89h1.57a57.74 57.74 0 002-5.65 22.38 22.38 0 001-3.88zm8.75 3.35a21 21 0 013.74 1.91l-.87 1.58a15.78 15.78 0 00-3.79-2.05zm-.64 6.33a12.39 12.39 0 004-.91 8.7 8.7 0 004.1-3.09 10.6 10.6 0 001.63-3.11 7.49 7.49 0 001.45 1.25 12 12 0 01-2.1 3.54c-1.78 2.06-4.16 3.31-7.6 4a7.34 7.34 0 00-1 .24zm1.71-9.67a21.91 21.91 0 013.73 1.81l-.9 1.54a16 16 0 00-3.74-1.92zm7.47.06a7.37 7.37 0 011.32 1.83l-1.05.6a8.84 8.84 0 00-1.32-1.87zm1.78 1.55a9.14 9.14 0 00-1.28-1.81l1-.54a7.12 7.12 0 011.3 1.75zm3.1 7.67a13.39 13.39 0 004.15-1 9.32 9.32 0 004.17-3.47 11.88 11.88 0 001.43-2.8 5.86 5.86 0 001.48 1.37 12.22 12.22 0 01-4.44 5.49 15 15 0 01-5.34 2.1 5.73 5.73 0 00-.92.24zm1.19-8.7a19.67 19.67 0 013.62 2.71l-1.21 1.52a14.78 14.78 0 00-3.57-2.84zm16.93.24a5.83 5.83 0 00-.18 1.08 24.82 24.82 0 01-1.11 4.77 13.37 13.37 0 01-2.51 4.35 5.83 5.83 0 00-1.6-1.21 9.45 9.45 0 002-3 17 17 0 001.31-4.81 9.41 9.41 0 00.13-1.35v-.2zm4-.35a17.31 17.31 0 00.59 3.22 13.48 13.48 0 003.12 6.05 6.29 6.29 0 00-1.51 1.29 14.47 14.47 0 01-2.38-4.12 22.16 22.16 0 01-1.33-5.1 7.61 7.61 0 00-.2-1zm1.47.15a7.52 7.52 0 011.05 2l-1.05.49a8.1 8.1 0 00-1-2zm1.54 1.77a10.26 10.26 0 00-1-1.93l1-.45a8.17 8.17 0 011 1.87zm12.91 9.03a27 27 0 00-4.3-4.16 16.55 16.55 0 01-5.33 4.05 5.6 5.6 0 00-1.09-1.55 11.59 11.59 0 002.8-1.54 13.5 13.5 0 004.71-5.71l.15-.36-4.63.08a12 12 0 00-1.53.12v-1.8a6 6 0 001.23.09h.27l4.93-.07a3 3 0 001.25-.16l.93 1a2.4 2.4 0 00-.45.75 18.6 18.6 0 01-2.19 3.87 22.33 22.33 0 012.59 2c.35.31.35.31 2 1.95zm2.69.79a10.89 10.89 0 001.77-2.79 9.33 9.33 0 00.75-3.84 9.1 9.1 0 00-.72-3.71 11.47 11.47 0 00-1.79-2.79h2a11.26 11.26 0 011.52 2.76 10 10 0 01.72 3.74 10.55 10.55 0 01-.73 3.87 11.7 11.7 0 01-1.53 2.76z" fill="#3c3c3c"/><path stroke="#ef8200" stroke-linejoin="round" stroke-width="2" fill="none" stroke-linecap="round" d="M124.18 107.5h314.97"/><path d="M438.77 86.22c0-.67 7.45-1.22 16.63-1.22h123c9.18 0 16.63.55 16.63 1.22v42.56c0 .68-7.45 1.22-16.63 1.22h-123c-9.18 0-16.63-.54-16.63-1.22z" fill="#004da0" stroke="#004da0" stroke-miterlimit="10"/><path class="cls-2" d="M475.31 103.23h-6.47v.54h4.65v6.59h-2.83a11 11 0 004.71 2.82l-1.37 2.08a16.85 16.85 0 01-2.9-1.47 8.72 8.72 0 01-2.22-1.89v3.57h-2.42v-3.63a8.43 8.43 0 01-2.23 2.08 8.74 8.74 0 01-2.62 1.41l-1.61-2.15a10 10 0 002.63-1.14 6.19 6.19 0 001.95-1.68h-2.76v-6.59h4.65v-.54h-6.6v-2.15h6.6V99.8h2.42v1.28h6.47zm-11.12 3.09h2.23v-.6h-2.23zm0 2h2.23v-.6h-2.23zm4.65-2h2.22v-.6h-2.22zm0 2h2.22v-.6h-2.22zm8.35-4.69v-2.15h6.47v-1.74h2.49v1.74h6.46v2.15zm4 6.39l2 1.08a8.52 8.52 0 01-4.25 4.16l-1.61-2a8.4 8.4 0 003.83-3.26zm1.69 5.31l-.88-2.22h1.21c.54.09.77-.15.68-.74v-2.48h-4.65v-5.52h11.31v5.52h-4.17v3.56c0 1.25-.56 1.88-1.68 1.88zm-1.28-7.66h6.6v-1.14h-6.6zm6.93 2.42a14.1 14.1 0 004.11 3l-1.64 2.04a22 22 0 01-2.36-1.88 15.64 15.64 0 01-1.82-2zm8.47-9.55v5.25a24.28 24.28 0 007.07-2.83l1.82 1.75a29.38 29.38 0 01-8.89 3.56v2.49c0 .67.38 1 1.14 1 2.11 0 4.72 0 7.81-.07l-.33 2.42h-8.55a2.72 2.72 0 01-2-.6 2.91 2.91 0 01-.54-2v-11zm6.87 1.62l1-.88 1.48 1.55-1 .94zm1.41-1.15l1-.87 1.35 1.48-.94.87zm2.89 3.1l1.88-.74a27.78 27.78 0 011.42 3.42l-1.89.81a34.12 34.12 0 00-1.41-3.49zm1.75 8.6a12.12 12.12 0 005.59-3.76 15.73 15.73 0 002.29-5.85l2.35.8a17.36 17.36 0 01-3 6.66 14.46 14.46 0 01-5.86 4.17zm1.82-9.21l2-.74c.49 1.08 1 2.18 1.41 3.29l-2 .68c-.52-1.21-.97-2.29-1.41-3.23zm9.56 3.76a17.48 17.48 0 005.12-7l2.42.94-.61 1.42h4l.21-.27 1.95 1.21a18.8 18.8 0 01-9.12 11.44l-1.88-2c3.94-2 6.53-4.73 7.74-8.14h-4.24a21.82 21.82 0 01-3.57 4.11zm9-6.92l1.15-.81 1.54 1.75-1.21.81zm2.43-.07l1.07-.8 1.55 1.68-1.21.87zM536 106v-2.3h2.89v-3.09h2.49v3.09h3.3v-3.22h2.5v3.22H550v2.3h-2.82a10.43 10.43 0 01-1.22 5.31 9.17 9.17 0 01-4 3.49l-1.81-1.88a8.54 8.54 0 003.5-2.75 7.26 7.26 0 001.07-4.17h-3.3v3.69h-2.49V106zm14.66 1.67a27 27 0 0010.91-7.26l2.15 1.75a23.53 23.53 0 01-4.51 3.83v8.67h-2.63v-7.06a32.7 32.7 0 01-4.51 2.42zm14.34-7.46h2.56v5.71l1.21-1.48a55.07 55.07 0 015.66 3.9l-1.62 2a47.79 47.79 0 00-5.25-3.77v8.2H565z"/><path d="M35 86.22c0-.67 4.26-1.22 9.52-1.22h70.39c5.25 0 9.52.55 9.52 1.22v42.57c0 .67-4.27 1.21-9.52 1.21H44.52c-5.26 0-9.52-.54-9.52-1.21z" stroke="#ef8200" stroke-linejoin="round" stroke-width="2" fill="#fff"/><path class="cls-7" d="M55.42 113.86l-.66-1.86h1.15c.33 0 .53 0 .6-.11s.11-.23.11-.49v-2.24a21.74 21.74 0 00-3.33 2l-.93-1.85a30.28 30.28 0 013.39-2.08l.87 1.2v-5.24h-4.1v-1.69h6.07v10.75c0 1.1-.6 1.64-1.8 1.64zm-2.79-9.28l1.59-.82a7.43 7.43 0 011.53 2.57l-1.64 1a6.08 6.08 0 00-1.48-2.75zM63 113.86h-1.56l-.66-1.86H62c.29 0 .47 0 .55-.11a1 1 0 00.16-.54v-2c-1.46.8-2.51 1.42-3.17 1.85l-.82-2q2.13-1.26 3.39-1.86l.6 1.26v-5.41h-3.9v-1.69h5.86v10.65a1.52 1.52 0 01-1.67 1.71zm-4.16-9.28l1.48-.93a13.16 13.16 0 011.91 2.62l-1.47 1.09a8 8 0 00-1.95-2.78zm17.26 9.23v-.88h-6.95v.93h-2v-12.12h10.92v12.07zm-6.95-7.48h2.47v-2.79h-2.47zm0 4.86h2.47v-3.12h-2.47zm4.49-4.86h2.46v-2.79h-2.46zm0 4.86h2.46v-3.12h-2.46zM84.36 104h-1.75v1.48H80.7v-3.28h5v-1.09h2v1.09h5.09v3.28h-1.53l1.09.49a3.87 3.87 0 01-.71 1.36 1.26 1.26 0 01-.93.33h-2.52a1.33 1.33 0 01-1-.38 1.18 1.18 0 01-.38-.87V104h-2.17l1.53.55a5.33 5.33 0 01-3.28 3.71h8.91v1.8h-4v1.59H93v1.8H80.53v-1.8h5.2v-1.59h-4.1v-1.8h.16l-.93-1.58c2.04-.33 3.21-1.23 3.5-2.68zm4.87 2h.82q.23 0 .39-.93l.43.22V104h-2v1.53c-.09.36.03.52.36.52zm8.1 3.77l-.66-1a4.27 4.27 0 002.14-1.91h-1.59l-.82 1.26a3.81 3.81 0 00-.82-.66 5.26 5.26 0 00-1.31-.65l.93-1.64a3.94 3.94 0 011.91 1v-1h2.24v-.76h-1.86v-.93l-.76 1.09a4.45 4.45 0 00-1-.87 5.6 5.6 0 00-1.36-.71l1-1.64a5.09 5.09 0 012.24 1.37h1.69v-1.48h1.92v1.48h1.42v-1.48h1.86v1.48h1.92v1.69h-1.92v.76h2.5v1.75h-2.19a5.62 5.62 0 002.35 1.75l-.93 1.8a8.27 8.27 0 01-1.8-1.2v2h-3.78v.38c-.07.37.11.51.55.44h3.23c.29 0 .44-.44.44-1.31v-.22l1.91.49a5.44 5.44 0 01-.33 1.86 1.41 1.41 0 01-1.42.87h-4.87c-1 0-1.48-.47-1.48-1.42v-2.4a3 3 0 01-.76.55l-.33-.44a11.73 11.73 0 01-1.81 3.88l-1.64-1.37a8 8 0 001.64-3.6zm1.53-.06h3.67v-.6h-3zm1.81-2.18H103l-.44-.66h-1.42zm.6-2.41h1.42v-.76h-1.42z"/><path class="cls-2" d="M238.3 87.87h86.73v39.26H238.3z"/><path class="cls-7" d="M255.48 101.08a16.93 16.93 0 01-.32 2 8.91 8.91 0 01-.46 1.69l-1.18-.27a19.71 19.71 0 00.62-3.52zm1.88 4.45h-1.61v-4.94a40 40 0 01-2 .15l-.14-1.31h1c.22-.26.48-.6.8-1a45.31 45.31 0 00-1.83-1.91l.94-1c.08.07.15.15.22.22a10.79 10.79 0 001.06-1.85l1.44.52a17.26 17.26 0 01-1.57 2.27l.58.6a14.66 14.66 0 001.25-2l1.4.6a40.59 40.59 0 01-2.61 3.53l1.35-.1c-.17-.5-.29-.81-.35-.94l1.22-.36c.23.59.51 1.42.86 2.48l-1.3.31a3.22 3.22 0 00-.09-.41l-.63.09zm1.92-1.77l-1.29.18a24.91 24.91 0 01-.44-2.77l1.28-.14zm1.88 1.62l-.21-1.55h1.63a.7.7 0 00.72-.55 8 8 0 00.18-2v-4.51h-2.58a11.3 11.3 0 01-.9 1.93l-1.33-.6a23.18 23.18 0 00.84-2.28 16 16 0 00.43-1.93l1.7.17a11.76 11.76 0 01-.31 1.43h3.8v6.45a7.78 7.78 0 01-.28 2.15 1.94 1.94 0 01-.62.79 2.07 2.07 0 01-.84.37c-.19.1-.92.12-2.23.13zm1.3-3.68l-1.59.55a29.48 29.48 0 00-1.27-3.35l1.44-.55a21.58 21.58 0 011.42 3.35zm18.91 4.73h-9.56v-2a33.59 33.59 0 004.87-4.25 4.39 4.39 0 001.25-2.66 1.77 1.77 0 00-.6-1.43 2.47 2.47 0 00-1.65-.51 6.18 6.18 0 00-3.34 1.13h-.21v-2.4a11.24 11.24 0 014-.8 5.42 5.42 0 013.46 1 3.35 3.35 0 011.22 2.75 5.3 5.3 0 01-1 2.87 21.54 21.54 0 01-4.6 4.28h6.16zm2.09-.49v-2.4h.28a6.92 6.92 0 003.48 1.07c1.88 0 2.83-.76 2.83-2.27a1.67 1.67 0 00-.79-1.49 4.16 4.16 0 00-2.31-.52 11.77 11.77 0 00-2.67.38H284v-6.94h8.62v2h-6v2.6c.64 0 1.12-.06 1.42-.06a5.6 5.6 0 013.62 1 3.51 3.51 0 011.25 2.85 4 4 0 01-1.44 3.23 5.73 5.73 0 01-3.88 1.23 10.6 10.6 0 01-4.13-.68zm19.71-6.45a6.3 6.3 0 01-1.46 3.87 7.29 7.29 0 01-3.39 2.12l-.79-1.4c2.42-.85 3.69-2.38 3.79-4.59h-1.73v-.55a14.45 14.45 0 01-1.35 1l-1.08-1.15a11.59 11.59 0 002.56-2.45 9.7 9.7 0 001.51-2.49l1.79.42a12.86 12.86 0 01-2.47 3.73h5.77a11.65 11.65 0 01-2.32-3.69l1.66-.5a11.6 11.6 0 001.78 2.81 14.61 14.61 0 002.56 2.16l-1.35 1.37-.68-.58a29 29 0 01-.16 3.35 3 3 0 01-.76 1.9 2.23 2.23 0 01-1.55.54h-2.27l-.26-1.62h2a.92.92 0 00.9-.55 10.11 10.11 0 00.28-3.16v-.54zm-53.91 23.79h-2.75v-10.35h2.75v.68h-1.89v9h1.89zm13.74-2.19l-.54.66a8.63 8.63 0 01-2.58-2.26 11.59 11.59 0 01-1.68-2.88 7.76 7.76 0 01-1.72 3.08 7.38 7.38 0 01-3.06 2l-.3-.62a6.7 6.7 0 003-2.15 6.47 6.47 0 001.47-3.23h-4.18V115h4.33v-2.64h.88V115h4.33v.69h-4.24a9.36 9.36 0 001.63 3 7.92 7.92 0 002.66 2.4zm6-4.22a6.09 6.09 0 01-1.66 3 8.64 8.64 0 01-2.87 1.87l-.32-.6a7 7 0 003.21-2.54 5.87 5.87 0 001.07-3.24v-2.79h.88v2.87a6.72 6.72 0 00.92 2.39 7.13 7.13 0 001.87 2.07 8.9 8.9 0 001.84 1.12l-.52.7a9.93 9.93 0 01-2.88-2.14 6.59 6.59 0 01-1.54-2.71zm39.63.69h-7v4.27h-.81V113h8.65v7.86a.76.76 0 01-.27.61 1 1 0 01-.69.23H307l-.12-.74h1.26a.39.39 0 00.45-.44zm-7-.66h3v-3.21h-3zm3.83 0h3.18v-3.21h-3.18zm11.35 6.38h-2.74v-.67H316v-9h-1.88v-.68h2.74zm-33.03-9.95v1.12l-4 6.8h-1.33l4-6.84h-4.43v-1.08zm.95 3.96c0-.77 0-4.12 2.8-4.12s2.8 3.36 2.8 4.12 0 4.12-2.8 4.12-2.8-3.36-2.8-4.12zm4.41 0c0-1.53-.29-3-1.61-3s-1.61 1.52-1.61 3 .33 3 1.61 3 1.61-1.5 1.61-3zm2.19 0c0-.77 0-4.12 2.8-4.12s2.8 3.36 2.8 4.12 0 4.12-2.8 4.12-2.8-3.36-2.8-4.12zm4.41 0c0-1.53-.29-3-1.61-3s-1.61 1.52-1.61 3 .33 3 1.61 3 1.61-1.5 1.61-3z"/></g></g></svg>