<svg xmlns="http://www.w3.org/2000/svg" width="630" height="165"><defs><style>.cls-2{fill:#fff}.cls-6{fill:#007635}</style></defs><g id="レイヤー_2" data-name="レイヤー 2"><g id="object"><rect width="630" height="165" rx="10" fill="#e6e6e6"/><path class="cls-2" d="M625 55v100a5 5 0 01-5 5H10a5 5 0 01-5-5V55z"/><path d="M27.3 21.31a10 10 0 00-.11 1.81v6.27a3.32 3.32 0 01-.76 2.3 3.61 3.61 0 01-2.72 1 3.66 3.66 0 01-2.84-1.05 4.45 4.45 0 01-.8-1.33l1.85-.67a1.82 1.82 0 00.76 1.14 2 2 0 001.05.27 1.65 1.65 0 001.21-.45 1.78 1.78 0 00.34-1.22v-6.26a11.19 11.19 0 00-.11-1.81zm9.08 11.15a10.61 10.61 0 00-.72-2.24c-.76-1.93-1.25-2.45-2.33-2.45h-2.09v2.85a10.31 10.31 0 00.12 1.84h-2.09a11.49 11.49 0 00.11-1.82v-7.55a13.09 13.09 0 00-.11-1.82h5.15c2.13 0 3.35 1.06 3.35 2.91a2.91 2.91 0 01-.71 2.09 3 3 0 01-1.56.81c.88.28 1.15.67 2.54 3.95.11.25.46 1 .66 1.39zm-2.32-6.29a1.89 1.89 0 001.33-.5 1.71 1.71 0 00.45-1.24c0-1-.58-1.52-1.72-1.52h-2.88v3.26zm14.33-4.02a2.83 2.83 0 00-.07.28v.24l-.07.4v.34c-.58 4-1.68 6.78-3.55 8.94a6.31 6.31 0 00-1.7-1.21 9.43 9.43 0 002-3 16.62 16.62 0 001.32-4.81 11.15 11.15 0 00.16-1.33v-.2zm4-.35A18.08 18.08 0 0053 25a13.68 13.68 0 003.12 6.05 6 6 0 00-1.54 1.29 18.64 18.64 0 01-3.71-9.22 5.62 5.62 0 00-.19-1zm1.17-.8a8.55 8.55 0 011.17 2.25l-1.07.34a8.73 8.73 0 00-1.15-2.28zm1.94 2a10.14 10.14 0 00-1.12-2.21l1-.3a8.38 8.38 0 011.15 2.17zm12.82 9.75A27 27 0 0064 28.59a16.48 16.48 0 01-5.34 4.05 5.57 5.57 0 00-1.13-1.55 11.59 11.59 0 002.8-1.54 13.57 13.57 0 004.71-5.71l.15-.36-4.64.08a11.72 11.72 0 00-1.52.12l-.03-1.8a6.06 6.06 0 001.23.09h.34l4.93-.07a3.07 3.07 0 001.25-.16l.92 1a2.85 2.85 0 00-.45.75A18.58 18.58 0 0165 27.32a22.33 22.33 0 012.59 2c.35.31.35.31 2 1.95zm4.9-1.05a11.72 11.72 0 00.08 1.7h-1.64a12.1 12.1 0 00.08-1.74v-10.8a12.69 12.69 0 001.43.06h2.53a12.09 12.09 0 001.43-.06v3.3a12.6 12.6 0 000 1.26h-3.91zm0-9h2.45V22h-2.45zm0 1.64h2.45v-.68h-2.45zm5.21 5.61a4.6 4.6 0 002.49 1.34 5.67 5.67 0 00-.31.59 6.2 6.2 0 001 .08c.35 0 .43-.07.43-.38v-6.21h-4.03v-4.56a12.25 12.25 0 001.42.06h2.72a12.89 12.89 0 001.44-.06 14 14 0 00-.07 1.56v9.3c0 1.31-.32 1.57-2 1.57h-.82a4.25 4.25 0 00-.24-1.15c-.07.18-.08.26-.15.46a6.46 6.46 0 01-2.74-1.9A4.88 4.88 0 0174.42 33a4.32 4.32 0 00-.78-1.22 5.71 5.71 0 001.8-.67 2.87 2.87 0 001.08-1.2h-1.37a7.36 7.36 0 00-1.22.07v-1.3a6.55 6.55 0 001.12.07h1.74v-.86H75.2a6.67 6.67 0 00-1 .06v-1.22a6.2 6.2 0 001 .06h.47a7.08 7.08 0 00-.68-1l1.28-.32a10.32 10.32 0 01.8 1.29h1.13a6 6 0 00.62-1.29l1.36.26c-.21.41-.33.61-.59 1h.47a6.64 6.64 0 001-.06V28a6.35 6.35 0 00-1-.06H78.2v.86h2a6.47 6.47 0 001.12-.07V30a6 6 0 00-1.13-.07zm1-7.25h2.62V22h-2.62zm0 1.64h2.62v-.68h-2.62zM87 23.13a12.1 12.1 0 00-1.7.08v-1.54a12.35 12.35 0 001.8.1h3.69a6.7 6.7 0 00-.1-1.26h1.71a7 7 0 00-.08 1.26h3.82a11.79 11.79 0 001.84-.1v1.54a16.56 16.56 0 00-1.74-.08H92.3v.78h2.93a14.38 14.38 0 001.55-.05v4a12.3 12.3 0 000 1.43 12 12 0 00-1.57-.07h-1.68a9.86 9.86 0 004.86 2.4 9.81 9.81 0 00-.8 1.48 14.29 14.29 0 01-2.87-1.27 9.28 9.28 0 01-2.45-2v2a8 8 0 00.1 1.59h-1.7a9.82 9.82 0 00.1-1.59v-2A9.15 9.15 0 0188.13 32a15.64 15.64 0 01-2.4 1.08A6.19 6.19 0 0085 31.7a11.72 11.72 0 002.63-1 8.48 8.48 0 002-1.45h-1.56a11.51 11.51 0 00-1.58.07 1.84 1.84 0 010-.4v-3.63a14.33 14.33 0 00-.05-1.45 9.2 9.2 0 001.52.07h2.76v-.78zm1 2V26h2.74v-.85zm0 2V28h2.74v-.88zM92.3 26h2.94v-.85H92.3zm0 2.05h2.94v-.88H92.3z" fill="#3c3c3c"/><path stroke="#007635" stroke-linejoin="round" stroke-width="2" fill="none" d="M140.65 107.5h298.09"/><path d="M35 86.22c0-.68 5-1.22 11.12-1.22h82.27c6.14 0 11.12.54 11.12 1.22v42.56c0 .67-5 1.22-11.12 1.22H46.12C40 130 35 129.45 35 128.78z" stroke="#007635" stroke-linejoin="round" stroke-width="2" fill="#fff"/><path class="cls-6" d="M79.43 92.2h-5.25v.44H78V98h-2.34a8.87 8.87 0 003.83 2.29L78.34 102a13.14 13.14 0 01-2.36-1.2 7.16 7.16 0 01-1.8-1.53v2.89h-2v-3a7 7 0 01-1.81 1.7 7.23 7.23 0 01-2.1 1.14L67 100.28a8.42 8.42 0 002.13-.92A5.17 5.17 0 0070.68 98h-2.25v-5.36h3.78v-.44h-5.36v-1.75h5.36v-1h2v1h5.25zm-9 2.51h1.81v-.49H70.4zm0 1.64h1.81v-.49H70.4zm3.78-1.64H76v-.49h-1.8zm0 1.64H76v-.49h-1.8zM81 92.53v-1.75h5.26v-1.42h2v1.42h5.25v1.75zm3.23 5.19l1.59.87a6.94 6.94 0 01-3.49 3.41L81 100.39a6.85 6.85 0 003.19-2.67zm1.33 4.28l-.71-1.8h1c.44.07.62-.13.55-.6v-2h-3.8v-4.47h9.2v4.48h-3.4v2.89c0 1-.45 1.53-1.36 1.53zm-1-6.22h5.36v-.93h-5.4zm5.63 2a11.52 11.52 0 003.34 2.41l-1.31 1.69a18.66 18.66 0 01-1.92-1.53 13.68 13.68 0 01-1.47-1.59zm4.56 3.22a20.6 20.6 0 00.49-3.33l1 .11c0 1.24-.13 2.5-.27 3.77zm.55-11.2h5.85v1.53h-1.53v.49h1.15v1.36h-1.15v.6h1.15v1.37h-1.15v.55h1.48v2.84a7.91 7.91 0 00.49-2.9V90h5.64v5.79h-1.65a7.19 7.19 0 002.19 4.59l-1.09 1.86a8.81 8.81 0 01-2.08-3 14.25 14.25 0 01-.93-3.5h-.17a17.12 17.12 0 01-.49 3.44 7.61 7.61 0 01-1.53 3l-.77-1.15a1.3 1.3 0 01-1.42 1h-1l-.6-1.47-1.2.22v-2.84l.71-.11.39 2.4h1c.36 0 .57-.15.6-.44l.06-.71-.44.33-.49-1.8.65-.22.33.87v-1h-4zm1.8 2h.77v-.49h-.77zm0 2h.77v-.6h-.77zm0 1.92h.77v-.55h-.77zm.71 4.26l-.38-2.13.6-.17.61 2zm5.69-6h1.76v-2.27h-1.76zm-35.57 17.51l.07-1.44 1.24.2-.07.77a10.8 10.8 0 01-.57 2.83 6.3 6.3 0 01-1.68 2.45l-.92-1.08a6.35 6.35 0 001.41-1.71 7.1 7.1 0 00.52-2.02zm6.07 3.77l-1 1.07a8.77 8.77 0 01-1.65-2.62 13 13 0 01-.88-3.9h-1.83v-1h3v.71a15.25 15.25 0 00.27 2.08 6.9 6.9 0 002.09 3.66zm8.47-4.51h-3.26v.17h2.22v2.72h-2.22v.27h2.66v.91h-2.66v.34h3.26v.94h-7.74v-.94H78v-.34h-2.63v-.91H78v-.27h-2.23v-2.72H78v-.17h-3.2v-.94H78v-.17h-2.46l-.37-1h1.51a37.06 37.06 0 004.62-.24l.7 1.08c-.87.06-1.8.11-2.79.13v.2h3.26zM77 112h1v-.27h-1zm0 .91h1v-.27h-1zm2.26-.91h1v-.27h-1zm0 .91h1v-.27h-1zm5.87-1.28l-.64.91a3.48 3.48 0 00-1.21-.88l.61-.91a5.05 5.05 0 01.64.37 2.24 2.24 0 01.6.51zm-.94 1.24l1 .57a5 5 0 01-.3 1.45 5.14 5.14 0 01-.57 1.28l-1-.68a5.23 5.23 0 00.87-2.62zm-.57-3.43l.67-.9a3.39 3.39 0 011.25.9l-.68.94a3.48 3.48 0 00-.5-.47 4.11 4.11 0 00-.74-.47zm2.62 2.09v-3h1.22v2.19l.3-.17.2.6v-2.28h1.15v1.88l.3-.17.3.64v-2.72h1.18v7.8h-1.18v-3.7l-.37.23-.23-.87v3.93H88v-3.22l-.37.23-.17-.7a8.33 8.33 0 01-.27 2.15 4.46 4.46 0 01-1.14 2l-1-.94a3.9 3.9 0 001-2 8.63 8.63 0 00.19-1.88zm-.06-.88A10.84 10.84 0 0186 113l-.85-.27a7.29 7.29 0 00.27-2.08zm12.35 5.58h-1.07l-.24-1.14h.61q.3 0 .3-.3v-3.1h-.57l-.31.78h.54v1h-1.31v.37h1.31v.94h-1.31v1.31h-1.25v-1.31h-1.31v-.94h1.31v-.37h-1.31v-1h.47l-.2-.78h-.61v4.54h-1.17v-5.64h2.82v-.37H92v-1.11h3.23v-.61h1.28v.61h3.2v1.11h-3.2v.37h2.8v4.77q0 .87-.78.87zm-3.13-4.54l.24.78h.5l.21-.78zm5.83-2.55h6.53v6.72h-1.21v-.47h-4.11v.47h-1.21zm1.21 5.14h4.11v-4h-4.11zM60.2 127.56l-2.79-2.79-2.83 2.79L54 127l2.79-2.79-2.79-2.84.54-.53 2.86 2.82 2.79-2.79.54.54-2.73 2.82 2.74 2.77zm-5.2-2.49a.73.73 0 01-.68-.2.86.86 0 01-.27-.57.89.89 0 01.21-.61.64.64 0 01.57-.3.8.8 0 01.64.2.74.74 0 01.27.57.82.82 0 01-.17.61.77.77 0 01-.57.3zm2.52 2.46a.93.93 0 01-.71-.21.81.81 0 01-.26-.57.79.79 0 01.2-.64.84.84 0 011.21 0 .75.75 0 01.27.54 1.13 1.13 0 01-.17.6.75.75 0 01-.52.28zm-.1-5a.9.9 0 01-.64-.23.88.88 0 01-.23-.61.84.84 0 01.2-.6.8.8 0 01.64-.27.81.81 0 01.64.27.69.69 0 01.2.57.9.9 0 01-.2.6.78.78 0 01-.59.29zm2.58 2.54a.88.88 0 01-.64-.17.8.8 0 01-.31-.6.89.89 0 01.17-.61.77.77 0 01.57-.3.76.76 0 01.91.71 1 1 0 01-.13.67.77.77 0 01-.57.3zm6.46-4.84l1.22.17-.17.37h.94l.07-.1 1 .54a3.81 3.81 0 01-1.11 1.54 3.75 3.75 0 001.72.41l-.47 1.14a5.07 5.07 0 01-1.21-.3v.4h1v1h-1v.61h1.51v1.07h-1.54v1h-1.18v-1h-2.43v-1.07h.91v-.61h-.4v-1h1.92v-.61H68l-.57-.23a4.33 4.33 0 01-2 .77l-.57-1.11a4.9 4.9 0 001-.16q.51-.14.54-.24a3.77 3.77 0 01-.3-.34 2.14 2.14 0 01-.54.41l-.64-.61-.3.88a2.43 2.43 0 01.44 2 1.71 1.71 0 01-.37.67 1.51 1.51 0 01-.68.44l-.44-1.18a.61.61 0 00.44-.71 2.38 2.38 0 00-.47-1.17 11.4 11.4 0 00.54-1.65h-.57v6.49h-1.15v-7.57h2v-.1l.84.71-.23.71a3.36 3.36 0 001.49-1.57zm.24 1.51a1.62 1.62 0 00.54.51 1.43 1.43 0 00.47-.51zm.13 4.31h.34v-.61h-.34zM74 127h-3.3v-1H74v-.27h-2.35v-3.36H74v-.27h-3.23V121H74v-.67h1.25v.67h3.23v1.08h-3.19v.27h2.39v3.36h-2.39v.29h3.26v1h-3.26v1.08H74zm-1.21-3.46H74v-.27h-1.17zm0 1.11H74v-.27h-1.17zm2.46-1.11h1.25v-.27h-1.21zm0 1.11h1.25v-.27h-1.21zm4.58-3.95l1.28.27a16.1 16.1 0 00-.47 4.74 3.62 3.62 0 01.23-.64l.68.61a12.63 12.63 0 00-.68 2l-1.07.06a18.37 18.37 0 01.03-7.04zm4 4.37a13.53 13.53 0 01-.1-1.58h-2v-1.15h2v-1.71h1.24l-.06 1.58c.47 0 .91-.08 1.31-.1v1.14a11.58 11.58 0 01-1.34.13 10.78 10.78 0 00.13 1.82 8.65 8.65 0 011.69.81l-.54 1a5.73 5.73 0 00-1-.61 1.27 1.27 0 01-1.16 1.43 2.44 2.44 0 01-1.14 0 1.4 1.4 0 01-1-.57 1.25 1.25 0 01.1-1.62 2 2 0 011.84-.57zm.1 1.08a2.59 2.59 0 00-.57-.07.57.57 0 00-.5.2.3.3 0 000 .34.45.45 0 00.37.17c.51.02.77-.19.67-.64zm4.35 1.91v-7.39h5.86v7.39h-1.21v-.43h-3.44v.43zm1.21-4.47h3.44v-1.85h-3.44zm0 3h3.44v-2h-3.44zm8.99-3.8H96v-1.05h3.23v-1.41h1.28v1.41h3.23v1.05h-2.46a4.8 4.8 0 001 1.74 9 9 0 001.62 1.47l-.7 1.21a4.9 4.9 0 01-1.32-1.28v.67h-1.34v1.58h-1.28v-1.58H98v-.6a3.84 3.84 0 01-.61.67 4 4 0 01-.74.57l-.79-1.24a5.27 5.27 0 001.55-1.34 5.44 5.44 0 001.07-1.87zm-.2 2.72h1V124a5.47 5.47 0 01-1 1.51zm2.26 0h1a5.67 5.67 0 01-1-1.61zm11.46-1.28a3 3 0 01-.64-.37v.47h-3.33v-.47a2.85 2.85 0 01-.54.47l-.64-1a2.47 2.47 0 001.07-.78h-.84v.45h-.6a9.27 9.27 0 00.77 1.25l-.4 1.14-.37-.54v3.33h-1.18v-2.35l-.37.74-.51-1.35a7.68 7.68 0 00.84-2.22h-.74v-1h.78v-1.58h1.18V122h.52v-.34h1.58l.1-.2h-1l-.54-.91a24 24 0 004.34-.33l.67.94a18.37 18.37 0 01-2.08.23l-.14.24h2.43v1h-1a2.23 2.23 0 001.14.61zm-1.42 3.87l-.23-.64h-.84v.2h-.88v-2h2.12v1.24a.18.18 0 00.21-.07.24.24 0 000-.2v-1.17h-2.59v2.62h-1.17v-3.57h5v2.59a.86.86 0 01-1 1zm-.67-5.52h-.6a1.88 1.88 0 01-.24.27h1.11zm-.74 1.11h1v-.2h-1zm.74 3v-.37h-.4v.37zm3.93-5.69h6.53v6.72h-1.21v-.47h-4.11v.47h-1.21zm1.21 5.14h4.11v-4h-4.11z"/><path d="M438.77 86.22c0-.68 7.45-1.22 16.63-1.22h123c9.18 0 16.63.54 16.63 1.22v42.56c0 .67-7.45 1.22-16.63 1.22h-123c-9.18 0-16.63-.55-16.63-1.22z" fill="#004da0" stroke="#004da0" stroke-miterlimit="10"/><path class="cls-2" d="M469.1 100.29h-8.29v.48H460v-10.1h10v10.08h-.85zm-8.29-.68h8.29v-8.29h-8.29zm.8-1.07v-.68h2.81V95.5h-2.28v-.63h2.28v-1.79h-2.61v-.64h6.32v.64h-2.83v1.79h2.49v.63h-2.49v2.36h3.09v.68zm5.31-1a12.83 12.83 0 00-.9-1.37l.64-.33c.23.3.56.74 1 1.34zm6.96-3.54a7.4 7.4 0 01.48.78 3.75 3.75 0 01.4 1 4.1 4.1 0 010 1.71 2.22 2.22 0 01-.28.66 1.26 1.26 0 01-.89.53h-.69l-.14-.75h.68q.6-.1.6-1.32a3.91 3.91 0 00-.89-2.41v-.19c.14-.35.31-.85.51-1.51a6.47 6.47 0 00.3-1.19h-1.38v9.53h-.79V90.67h3l.18.23c-.1.39-.27 1-.51 1.7a10.14 10.14 0 01-.58 1.4zm1 6.4l-.53-.55a9.35 9.35 0 002.17-2.06l.77.37a8 8 0 01-1.15 1.24 8.2 8.2 0 01-1.28 1.03zm1.54-6.05c-.34-.3-.71-.59-1.08-.88l-.25.3-.48-.35a10.65 10.65 0 001.71-3.23l.79.11a3.34 3.34 0 01-.2.55h2.33a10.17 10.17 0 001.34 2.51 6.53 6.53 0 00.84-2h-1.68v-.6h2.47l.21.24a11.41 11.41 0 01-1.42 3 11.08 11.08 0 001.58 1.53l-.53.58a12 12 0 01-1.93-2.06 10.4 10.4 0 01-1.38-2.41 8.19 8.19 0 01-3.29 4.44l-.42-.46a8.07 8.07 0 001.37-1.24zm1.47 5.63c.25 0 .38-.1.38-.32v-2.41h-2.82v-.69h6.69v.69h-3V100c0 .53-.31.8-.95.8H477l-.08-.79zm-2.23-6.94l1.14.84c.26-.37.44-.63.53-.79-.29-.19-.69-.44-1.21-.74a8.23 8.23 0 01-.48.72zm1.95-.46a6.07 6.07 0 00.47-1.15h-1.43l-.25.46c.49.31.9.54 1.19.72zm-.35 2.69v-.67h3.15v.67zm4.74 5.13a9.69 9.69 0 01-2.13-2.29l.72-.34a6.57 6.57 0 00.91 1.07 8.43 8.43 0 001.11 1zm3.31.36l-.14-.72c.54 0 1.08-.09 1.61-.15V97h-1.4v-.71h2v-1.47h-1.56v-.66h1.56V93H485v1.45a14.58 14.58 0 01-.43 3.66 7.46 7.46 0 01-1.12 2.57l-.59-.45a7.93 7.93 0 00.94-2.35 12.88 12.88 0 00.35-3v-4.25h9.38V93h-1.83v1.16h1.87v.66h-1.87v1.44h2.22V97h-4.08a4.9 4.9 0 001.09 1.5 11.18 11.18 0 001.7-1.16l.57.55a12 12 0 01-1.69 1.06 8.1 8.1 0 002.69 1.11l-.41.69a7.24 7.24 0 01-2.79-1.24 5.43 5.43 0 01-2-2.51h-1.38v2.82c1.06-.13 1.89-.24 2.5-.34v.68a46.77 46.77 0 01-4.81.6zm7.37-9.5H485v1.11h7.67zM490.82 93h-2.57v1.16h2.57zm-2.57 3.26h2.57v-1.44h-2.57zm7.18 3.66l-.54-.59a9.61 9.61 0 001.65-1.52 9.34 9.34 0 001.27-1.7l.83.4a11.39 11.39 0 01-3.21 3.41zm4.65.81h-1.71l-.1-.82h1.4a.55.55 0 00.35-.12.41.41 0 00.15-.32V95.1h-4.93v-.69h10.6v.69h-4.74v4.69a.84.84 0 01-.31.67 1 1 0 01-.71.27zm-4-8.85v-.72H505v.72zm9.39 8a13.32 13.32 0 01-1.57-1.53 15.59 15.59 0 01-1.44-1.84l.78-.42A17.62 17.62 0 00504.8 98a10.62 10.62 0 001.37 1.25zm1.38-1.46l-.25-.76q.6-.12 1.68-.42V93.4H507v-.69h1.3V90.4h.89v2.31h1.15v.69h-1.15V97c.45-.14.81-.25 1.07-.35l.08.61a24.24 24.24 0 01-3.49 1.16zm3.36 2.13l-.45-.51a9.92 9.92 0 003.08-2.85h-1.19A8.11 8.11 0 01510 98.6l-.43-.49a6.9 6.9 0 002.18-2.44h-1.61V95h7.73v.65h-5.19a7.69 7.69 0 01-.52.87h5.22V97a17.87 17.87 0 01-.07 2 3.74 3.74 0 01-.3 1.18 1.18 1.18 0 01-.43.43 1.52 1.52 0 01-.66.22h-1.37l-.13-.75h1a1.1 1.1 0 00.63-.17 1.33 1.33 0 00.38-.88 11.09 11.09 0 00.11-1.63v-.14h-.66a8.78 8.78 0 01-3.24 3.58l-.46-.44a9.16 9.16 0 002.82-3.21h-1.23a8.84 8.84 0 01-1.61 1.91 11.66 11.66 0 01-1.95 1.45zm.94-6.34v-3.6H517v3.6zm.88-2.08h4.09v-.88H512zm4.09.61H512v.85h4.09zm2.93 7.57l-.59-.25a10.8 10.8 0 00.47-2.68l.6.08a11.55 11.55 0 01-.16 1.46 6.56 6.56 0 01-.32 1.39zm3-4.36h1.6q0 1.86-.12 2.85a4.11 4.11 0 01-.27 1.3 1.41 1.41 0 01-.49.48 1.92 1.92 0 01-.92.18h-1l-.08-.72h1.15a.8.8 0 00.4-.22 1.12 1.12 0 00.27-.48 5.22 5.22 0 00.11-.92v-1.78H520v.22h-.78v-6.1h4.57v.65h-1.69v1.13h1.36v.61h-1.36v1.07h1.39v.62h-1.39zm-2 3.54l-.05-2.11.48-.06.14 2.11zm-.05-8.11v1.13h1.33v-1.13zm0 1.74v1.07h1.33v-1.07zm0 1.69V96h1.33v-1.19zm1.19 4.19l-.29-1.81.43-.07.31 1.82zm.87-.54l-.29-1.43.38-.08.3 1.42zm7.45 2.24a7.76 7.76 0 01-1.76-2.43 10.51 10.51 0 01-.93-3.1h-1.21a13.17 13.17 0 01-.4 3.17 7.27 7.27 0 01-1 2.39l-.63-.45a6.37 6.37 0 00.82-2.25 17 17 0 00.29-3.24V90.7h4.57v4.5h-1.64a8.66 8.66 0 00.81 2.65 7.09 7.09 0 001.62 2.23zm-1.11-9.36h-2.79v3.17h2.79zm4.15 9.47v-4.93l-1.85.1-.11-.68h.59c.28-.33.62-.76 1-1.29-.18-.2-.72-.74-1.63-1.61l.5-.46.23.2a12.39 12.39 0 001.16-1.94l.79.29a15.8 15.8 0 01-1.46 2.1l.87.81a17.78 17.78 0 001.26-2l.77.31a35.36 35.36 0 01-2.63 3.52l1.94-.13a9 9 0 00-.3-.9l.74-.16c.17.46.37 1.08.62 1.87l-.75.19c0-.08-.06-.22-.12-.4l-.82.08v5zm-1.25-1.08l-.73-.13a12.57 12.57 0 00.51-2.9l.83.09a11.24 11.24 0 01-.61 2.94zm3-.75c-.14-.72-.25-1.45-.34-2.21l.75-.09c.16 1.08.28 1.79.36 2.15zm.58 1.58v-.69h2.92v-2.33h-2.21v-.71h2.21V95.5h.9v1.33h2.36v.71h-2.36v2.33h2.89v.69zm3.5-6.18a12.31 12.31 0 01-2.91 1.37l-.3-.59a11.54 11.54 0 002.54-1.26 10 10 0 01-1.87-2l.64-.33a9.18 9.18 0 001.88 1.85 5.77 5.77 0 001.81-2h-4.92v-.68H541l.37.34a7.54 7.54 0 01-2.33 2.84 13.16 13.16 0 002.63 1.23l-.45.66a13.59 13.59 0 01-2.82-1.43zm13.54 5.62h-7.87v.61h-.91v-8.25h4.34v-1.92h.93v1.92h4.44v8.28h-.93zm-4.44-7h-3.43v2.66h3.43zm-3.43 6.26h3.43v-2.9h-3.43zm7.87-3.6v-2.58h-3.51v2.66zm-3.51 3.6h3.51v-2.9h-3.51zm-73.1 14.09h-6.47v.54h4.65v6.59h-2.83a11 11 0 004.71 2.82l-1.37 2.09a16.93 16.93 0 01-2.9-1.48 8.72 8.72 0 01-2.22-1.89v3.57h-2.42V122a8.27 8.27 0 01-2.23 2.08 8.74 8.74 0 01-2.62 1.41L460 123.3a10 10 0 002.63-1.14 6.19 6.19 0 001.95-1.68h-2.76v-6.59h4.65v-.54h-6.6v-2.15h6.6v-1.27h2.42v1.27h6.47zm-11.12 3.1h2.23v-.61h-2.23zm0 2h2.23v-.6h-2.23zm4.65-2h2.22v-.61h-2.22zm0 2h2.22v-.6h-2.22zm8.35-4.69v-2.15h6.47v-1.75h2.49v1.75h6.46v2.15zm4 6.38l2 1.08a8.58 8.58 0 01-4.25 4.17l-1.61-2a8.41 8.41 0 003.83-3.25zm1.69 5.31l-.88-2.22h1.21c.54.1.77-.15.68-.73V120h-4.65v-5.5h11.31v5.5h-4.17v3.56c0 1.26-.56 1.88-1.68 1.88zm-1.28-7.66h6.6v-1.14h-6.6zm6.93 2.42a13.92 13.92 0 004.11 3l-1.64 2.04a20.82 20.82 0 01-2.36-1.88 15.64 15.64 0 01-1.82-2zm8.47-9.55v5.25a24.28 24.28 0 007.07-2.83l1.82 1.75a29.38 29.38 0 01-8.89 3.56v2.49c0 .67.38 1 1.14 1 2.11 0 4.72 0 7.81-.07l-.33 2.42h-8.55a2.72 2.72 0 01-2-.6 2.89 2.89 0 01-.54-2v-11zm6.87 1.62l1-.88 1.48 1.55-1 .94zm1.41-1.14l1-.88 1.35 1.48-.94.87zm2.89 3.09l1.88-.74a27.22 27.22 0 011.42 3.43l-1.89.8a34.12 34.12 0 00-1.41-3.49zm1.75 8.6a12 12 0 005.59-3.76 15.73 15.73 0 002.29-5.85l2.35.81a17.38 17.38 0 01-3 6.65 14.46 14.46 0 01-5.86 4.17zm1.82-9.21l2-.74q.73 1.62 1.41 3.3l-2 .67c-.52-1.21-.97-2.29-1.41-3.23zm9.56 3.77a17.62 17.62 0 005.12-7l2.42.94-.61 1.41h4l.21-.27 1.95 1.21a18.8 18.8 0 01-9.16 11.43l-1.88-2c3.94-2 6.53-4.73 7.74-8.13h-4.24a22.09 22.09 0 01-3.57 4.1zm9-6.93l1.15-.8 1.55 1.74-1.21.81zm2.43-.06l1.07-.81 1.55 1.68-1.21.87zm3.27 5.71v-2.29h2.89v-3.09h2.49v3.09h3.3v-3.22h2.5v3.22H550v2.29h-2.82a10.43 10.43 0 01-1.22 5.31 9.25 9.25 0 01-4 3.5l-1.87-1.92a8.46 8.46 0 003.5-2.75 7.23 7.23 0 001.07-4.17h-3.3v3.7h-2.49v-3.7zm14.66 1.68a27 27 0 0010.91-7.26l2.15 1.75a23.18 23.18 0 01-4.51 3.83v8.67h-2.63v-7.06a31.66 31.66 0 01-4.51 2.42zm14.34-7.46h2.56V116l1.21-1.48a56.74 56.74 0 015.66 3.9l-1.62 2a47.79 47.79 0 00-5.25-3.77v8.21H565zM218.86 94.44h141.68v23.12H218.86z"/><path class="cls-6" d="M225.58 107.64a19.25 19.25 0 01-.32 2 9.74 9.74 0 01-.46 1.69l-1.18-.27a18.56 18.56 0 00.61-3.52zm1.87 4.45h-1.6v-4.93c-.85.08-1.51.13-2 .14l-.13-1.3h1c.22-.26.48-.6.8-1a45.31 45.31 0 00-1.83-1.91l.94-1 .22.22a10.74 10.74 0 001.06-1.84l1.44.51a16.62 16.62 0 01-1.57 2.27l.58.61a16.41 16.41 0 001.25-2l1.4.61a40.46 40.46 0 01-2.61 3.52l1.34-.09a8.65 8.65 0 00-.34-.94l1.22-.36c.23.59.51 1.41.85 2.47l-1.29.31a3.63 3.63 0 00-.09-.41l-.64.09zm1.93-1.76l-1.29.17a24.56 24.56 0 01-.44-2.77l1.28-.13zm1.87 1.61l-.2-1.55h1.62a.69.69 0 00.72-.54 7.52 7.52 0 00.19-2v-4.51H231a11 11 0 01-.9 1.93l-1.33-.6a21.45 21.45 0 00.84-2.28 15.61 15.61 0 00.43-1.93l1.7.17a11.76 11.76 0 01-.31 1.43h3.8v1.46c0 2.63 0 4.3-.05 5a7.46 7.46 0 01-.27 2.15 1.88 1.88 0 01-.62.79 2.07 2.07 0 01-.84.37c-.15.09-.88.1-2.2.11zm1.31-3.68l-1.59.55a29.2 29.2 0 00-1.27-3.34l1.44-.56a23.1 23.1 0 011.42 3.35zm18.91 4.74h-9.57v-2a32.67 32.67 0 004.88-4.25 4.36 4.36 0 001.25-2.66 1.78 1.78 0 00-.6-1.43 2.47 2.47 0 00-1.65-.51 6.12 6.12 0 00-3.34 1.14h-.21v-2.41a11 11 0 014-.8 5.43 5.43 0 013.47 1 3.31 3.31 0 011.21 2.74 5.37 5.37 0 01-1 2.88 21.83 21.83 0 01-4.6 4.27h6.16zm2.66.06v-2.16h.27a4.58 4.58 0 001.93.37q3.46 0 3.85-3.61a5.92 5.92 0 01-3 1 4.26 4.26 0 01-3-1.06 3.87 3.87 0 01-1.15-3 4.26 4.26 0 011.37-3.26 5 5 0 013.55-1.26 4.72 4.72 0 013.74 1.49 6.4 6.4 0 011.32 4.37 7.73 7.73 0 01-1.74 5.42 6.48 6.48 0 01-5 1.9 8.85 8.85 0 01-2.14-.2zm6.07-6.76v-.8c0-2.35-.76-3.53-2.29-3.53a1.91 1.91 0 00-1.51.66 2.71 2.71 0 00-.58 1.83c0 1.54.82 2.31 2.44 2.31a4.58 4.58 0 001.94-.47zm13.07-.25a6.35 6.35 0 01-1.46 3.88 7.28 7.28 0 01-3.39 2.11l-.79-1.39c2.42-.85 3.69-2.39 3.79-4.6h-1.73v-.55a13.47 13.47 0 01-1.36 1.06l-1.07-1.15a11.64 11.64 0 002.56-2.46 9.38 9.38 0 001.51-2.49l1.79.43a12.8 12.8 0 01-2.47 3.7h5.77a11.47 11.47 0 01-2.29-3.72l1.65-.49a11.54 11.54 0 001.79 2.8 14.23 14.23 0 002.48 2.16l-1.36 1.37-.67-.58a28.87 28.87 0 01-.16 3.35 3 3 0 01-.76 1.91 2.28 2.28 0 01-1.55.53h-2.27l-.26-1.61h2a.93.93 0 00.9-.56 10.2 10.2 0 00.27-3.15v-.55zm14 6.59h-2.74v-10.35h2.74v.71h-1.88v9h1.88zm13.73-2.19l-.55.66a8.86 8.86 0 01-2.57-2.26 11.59 11.59 0 01-1.68-2.88 7.89 7.89 0 01-1.72 3.08 7.36 7.36 0 01-3.06 2l-.3-.61a6.65 6.65 0 003-2.16 6.44 6.44 0 001.47-3.22h-4.18v-.7h4.33v-2.64h.88v2.64H301v.7h-4.24a9.27 9.27 0 001.63 3 8 8 0 002.61 2.39zm6-4.23a6 6 0 01-1.66 3 8.43 8.43 0 01-2.87 1.87l-.33-.59a7 7 0 003.22-2.55 5.86 5.86 0 001.07-3.23v-2.8h.88v2.87a6.65 6.65 0 00.92 2.39 7.17 7.17 0 001.87 2.08 8.9 8.9 0 001.84 1.12l-.52.69a9.91 9.91 0 01-2.89-2.13 6.71 6.71 0 01-1.53-2.72zm14.28 2.06h-1.16v2.27h-.95v-2.27h-3.81v-1.11l3.85-4.53h.91v4.86h1.16zm-2.11-.78v-3.7l-3.17 3.7zm5.9 3.22a2.28 2.28 0 01-2.05-1 7.68 7.68 0 010-6.23 2.59 2.59 0 014.1 0 5.74 5.74 0 01.66 3.1 5.81 5.81 0 01-.66 3.13 2.28 2.28 0 01-2.05 1zm0-7.43a1.37 1.37 0 00-1.3.71 8.45 8.45 0 000 5.2 1.55 1.55 0 002.6 0 5.82 5.82 0 00.41-2.61 6 6 0 00-.4-2.58 1.38 1.38 0 00-1.31-.72zm6.7 7.43a2.3 2.3 0 01-2.06-1 7.68 7.68 0 010-6.23 2.3 2.3 0 012.06-1 2.27 2.27 0 012 1 5.74 5.74 0 01.66 3.1 5.82 5.82 0 01-.65 3.13 2.3 2.3 0 01-2.01 1zm0-7.43a1.39 1.39 0 00-1.31.71 8.65 8.65 0 000 5.2 1.55 1.55 0 002.61 0 8.62 8.62 0 000-5.19 1.38 1.38 0 00-1.3-.72zm14.88 3.63h-7v4.27h-.81v-8.81h8.64v7.86a.76.76 0 01-.26.62 1 1 0 01-.69.23h-1.47l-.11-.75h1.26c.3 0 .45-.14.45-.43zm-7-.67h3v-3.2h-3zm3.83 0h3.18v-3.2h-3.18zm11.35 6.39h-2.74V112H354v-9h-1.88v-.68h2.74z"/></g></g></svg>