<svg xmlns="http://www.w3.org/2000/svg" width="560" height="150"><defs><style>.cls-2{fill:#fff}.cls-6{fill:#c9b100}</style></defs><g id="レイヤー_2" data-name="レイヤー 2"><g id="object"><rect width="560" height="150" rx="10" fill="#e6e6e6"/><path class="cls-2" d="M555 65v75a5 5 0 01-5 5H10a5 5 0 01-5-5V65z"/><path d="M24.86 42.72c-1.14 0-1.95 0-2.86.08a16.07 16.07 0 00.24-3.22V25.67a15.64 15.64 0 00-.24-2.76c.8.05 1.32.05 2.83.05h5.57c3.77 0 5.88 1.72 5.88 4.79a4.39 4.39 0 01-1.41 3.48 5.13 5.13 0 01-2 1 4.94 4.94 0 012.52 1.09A4.88 4.88 0 0137 37.26c0 3.49-2.29 5.46-6.26 5.46zm5.51-11.28c2.42 0 3.85-1.28 3.85-3.46s-1.3-3.25-3.87-3.25h-6.11v6.71zM24.24 41h6.26c2.84 0 4.35-1.36 4.35-3.85s-1.51-3.9-4.4-3.9h-6.21zm29.43 1.72a18.22 18.22 0 00-1.53-4.44c-1.51-3.56-2.53-4.58-4.61-4.58h-4.81v6.09a16.09 16.09 0 00.21 2.93h-2.42a15.28 15.28 0 00.21-2.91V25.87a18.23 18.23 0 00-.21-3c.91.06 1.64.08 2.84.08h5.72c3.77 0 5.85 1.77 5.85 5a4.71 4.71 0 01-1.56 3.82 5.42 5.42 0 01-2.81 1.3c1.07.31 1.72 1 2.65 2.86.63 1.22 1.25 2.57 2.06 4.37a22.05 22.05 0 001.17 2.41zm-4.78-10.81a4.14 4.14 0 002.93-1.12 3.42 3.42 0 001-2.63c0-2.21-1.3-3.4-3.77-3.4h-6.33v7.15zm17.94 7.88a16.55 16.55 0 00.2 2.93h-2.44a15 15 0 00.21-2.93v-15h-4.06a18.79 18.79 0 00-3 .18v-2.19a18.43 18.43 0 003 .18h10.12a18.22 18.22 0 003.06-.18V25a18.62 18.62 0 00-3.06-.18h-4z" fill="#3c3c3c"/><path stroke="#c9b100" stroke-linejoin="round" stroke-width="2" fill="none" d="M118.26 105h276.55"/><path d="M20.29 85.22c0-.63 4.62-1.13 10.32-1.13h76.32c5.7 0 10.32.5 10.32 1.13v39.56c0 .62-4.62 1.13-10.32 1.13H30.61c-5.7 0-10.32-.51-10.32-1.13z" stroke="#c9b100" stroke-linejoin="round" stroke-width="2" fill="#fff"/><path class="cls-6" d="M62.32 101.93H62l-.41 1h1v1.63h-2v.44h1.77v1.58h-.91a4.74 4.74 0 00.91.76l-.85 1.66a5 5 0 01-1-1v3h-1.74v-2.33a9.69 9.69 0 01-.66.86 3.54 3.54 0 01-.86.81l-.86-1.72a7.26 7.26 0 001.82-2h-1.62V105h2.18v-.45h-2.49v-1.63h1.22l-.25-1h-.61v-1.62h2.13v-1.16h1.78v1.16h1.77zm-3.4 0l.26 1h.76l.3-1zm3.81 3.8V100l.91.2a12.64 12.64 0 003.41-1l.81 1.62a11.09 11.09 0 01-3.35.86v1.43h3.7v1.72H67.1v6.09h-1.78v-6.09h-.81v.91a8 8 0 01-.41 2.8 4.3 4.3 0 01-.61 1.32 5.78 5.78 0 01-1 1.21l-1.37-1.52a5.26 5.26 0 001.27-1.88 5.79 5.79 0 00.34-1.94zm17.87-.65a5.51 5.51 0 01-1-.56v.71h-5v-.71a4.94 4.94 0 01-.81.71l-1-1.47a4 4 0 001.63-1.17h-1.23v.56h-.92a14.32 14.32 0 001.17 1.85l-.61 1.73-.56-.81v5H70.5v-3.55l-.56 1.12-.76-2a12.7 12.7 0 001.27-3.35h-1.12v-1.53h1.17v-2.37h1.77v2.38h.82v-.5h2.38l.15-.31h-1.57l-.81-1.37a35.37 35.37 0 006.55-.44l1 1.42a26.77 26.77 0 01-3.15.36l-.2.36h3.66v1.47h-1.47a3.38 3.38 0 001.73.91zm-2.13 5.83l-.36-1h-1.27v.3h-1.32v-3h3.2v1.88A.24.24 0 0079 109a.34.34 0 00.06-.3V107h-3.89v4h-1.83v-5.38h7.51v3.91c0 1-.47 1.47-1.42 1.47zm-1-8.32h-.91a2.78 2.78 0 01-.36.4h1.68zm-1.12 1.67h1.53V104h-1.55zm1.12 4.57v-.56h-.61v.56z"/><path d="M395.06 85.22c0-.63 6.9-1.13 15.42-1.13h114.09c8.52 0 15.43.5 15.43 1.13v39.56c0 .62-6.91 1.13-15.43 1.13H410.48c-8.52 0-15.42-.51-15.42-1.13z" fill="#004da0" stroke="#004da0" stroke-miterlimit="10"/><path class="cls-2" d="M428.73 112.34V98.28h13.56v14.06h-2.19v-.75h-9.18v.75zm2.19-2.75h9.18v-9.31h-9.18zm7.75-2.5h1v1.81h-8.38v-1.81h3.13v-1.56H432v-1.81h2.44v-1h-3.06V101h8.31v1.75h-3.09v1h2.4v1.81h-.56l.87 1.12zm-2.07 0h1l-.81-1.18.81-.38h-1zm13.81-9.43l1.94.31-.19.5h2.62v.38a4.49 4.49 0 00.5 1.24v-1.68h2.57l.74 1.19a8.22 8.22 0 01-1.56 3.06 5.91 5.91 0 001.88 1.25l-1.13 1.93a5.63 5.63 0 01-1.68-1.25v1.07h-4.94v-.82a5.47 5.47 0 01-1.5 1l-1-1.5a3.93 3.93 0 01.38 1.82h9.24v1.93h-3.68v.91l1.81-.75a4 4 0 00.94 1.25 5.31 5.31 0 001.49 1.18l-1.56 1.56a7.91 7.91 0 01-2.68-3.24v2c0 .87-.46 1.31-1.38 1.31h-1.68l-.63-1.88a5.33 5.33 0 01-1.69 1.69l-1.56-1.44a5.37 5.37 0 002.38-2.43l1.74.81a3.33 3.33 0 01-.68 1.19h.75c.37 0 .56-.15.56-.57v-1.56h-3.5v-.68a2 2 0 01-1.87 1.74l-.82-1.56v4.62h-1.87v-14h3.44l.12-.12 1.31 1.43-.31.94a4.88 4.88 0 001.5-2.83zm-4.19 5.34a10.1 10.1 0 00.94-2.75h-.94zm0 .56V107a.88.88 0 00.88-.94 2.61 2.61 0 00-.1-1.06 3.53 3.53 0 00-.78-1.41zm3.69-.31l-.5-.44-.31.25-.63-1-.37 1.13.44.81a4.11 4.11 0 00.75-.31 1.66 1.66 0 00.62-.41zm.31-1.44l.69.57.38-.38-.75-.62zm1.13-1.43l.69.56.31-.56zm2.5 1.12a7 7 0 01-1.56 2.25h3a6.64 6.64 0 01-1.44-2.22zm1.5-1.31a2.22 2.22 0 00.43.87 1.33 1.33 0 00.5-.87zm5.81-1.84h12.55v4.24h-2.31v.5h2.5V105h-2.5v.44h3.13v1.81h-1.75l1 1-1.5 1.12a7 7 0 002.62.94l-.81 2.18a9.65 9.65 0 01-4-1.81 9.28 9.28 0 01-2.81-3.43h-.5v2.68l1.56-.37.56 1.94a18.67 18.67 0 01-2.81.62c-1.12.17-2.06.27-2.81.31l-.37-2.06 1.68-.12v-3h-1.25l-.12 1a9.27 9.27 0 01-.56 2.25 6.49 6.49 0 01-1 1.87l-1.66-2.22a6.43 6.43 0 001.13-4.06zm2.18 2.49h8.19v-.75h-8.19zm0 4.57h2.44V105h-2.25v-1.88h2.25v-.5h-2.44zm4.63-2.32h1.31v-.5H468zm0 2.32h1.31V105H468zm1.81 1.81a1.89 1.89 0 00.69.87l1.24-.87zm11.37 5.12l-.75-2.25h1.69c.41 0 .6-.16.56-.62v-5.13h-6.31v-2h14.24v2h-5.81v6.31c0 1.13-.5 1.69-1.5 1.69zm-1.88-7.43l2.07.93a14.48 14.48 0 01-1.19 3 9.27 9.27 0 01-1.81 2.5l-1.94-1.56a10.22 10.22 0 002.87-4.87zm-1.27-4.56v-2.07h10.81v2.07zm7.56 5.56l2.07-.88a13.55 13.55 0 001.12 2.25 14.16 14.16 0 001.87 2.5l-2 1.56a11.92 11.92 0 01-1.81-2.69 18.8 18.8 0 01-1.23-2.74zm10.89-2h10.31v1.68h-6.18l-.63.57h6.44l-.25 3.87a2.63 2.63 0 01-.38 1.56 1.69 1.69 0 01-1.5.62h-1.81l-.75-1.49a9.29 9.29 0 01-3.5 1.87l-1.37-1.44a10.61 10.61 0 003.19-1.5 5.06 5.06 0 001.74-1.68h-.56a7.2 7.2 0 01-2.06 1.87 11.94 11.94 0 01-3.44 1.44l-1.24-1.69a9.94 9.94 0 002.31-.56 4.73 4.73 0 001.87-1.06h-.94a3.73 3.73 0 01-.75.5 3.54 3.54 0 01-.81.37l-.44-.56a19.82 19.82 0 01-3 1.19l-.69-2.13 1.56-.5v-3.56h-1.31v-1.94h1.31v-3.43h2.19v3.43h1v1.94h-1V106l.56-.31.37.87a2.58 2.58 0 00.63-.37 3.87 3.87 0 00.69-.63h-1.57zm1.07-.38V98.1h8.12v5.43zm2.18-3.31h3.81v-.5h-3.81zm0 1.69h3.81v-.5h-3.81zm2.5 8.31h1c.46 0 .71-.29.75-.88l.13-1.37h-.19a6.8 6.8 0 01-1.69 2.25zM164.22 92.86h184.64v21.49H164.22z"/><path class="cls-6" d="M170 109.27h-1.54v-1.72h-2v-1.16h2v-.7h-1.6v-4.45h1.63v-.68h-1.86v-1.09h1.86v-.82H170v.82h1.91v1.09H170v.68h1.63v.62a9.66 9.66 0 001.35-1.52 6.89 6.89 0 00.92-1.75h1.6a5.67 5.67 0 00.55.94c.25.38.51.72.75 1a11.12 11.12 0 001.36 1.3l-1 1.07-.27-.22v.66h-1.3v1.43h2.2v1.31h-2.2v3.07H174v-3.05h-2v-1.31h2v-1.43h-1.31v-.68c-.16.15-.31.27-.43.37l-.59-.76v3.4H170v.7h1.85v1.16H170zm.19-6.24v-.77h-1.89v.74zm0 1.58v-.79h-1.89v.79zm3.1-2.52h3a8.41 8.41 0 01-1.49-2 6.79 6.79 0 01-1.48 2zm6.71 3.05a13.42 13.42 0 01-.66 3.44l-1-.25a16.88 16.88 0 00.51-3.26zm1.56 4.15h-1.36v-4.66c-.66.07-1.2.11-1.61.13l-.14-1.16h.82l.66-.93c-.55-.66-1.06-1.25-1.52-1.75l.77-.91.19.19a11.78 11.78 0 00.92-1.7l1.18.47a13.29 13.29 0 01-1.33 2.09l.48.56a13.89 13.89 0 001.08-1.92l1.19.56a27.39 27.39 0 01-2.19 3.27l1.1-.09a5.68 5.68 0 00-.28-.82l1-.31c.15.43.37 1.11.64 2h2.21l.23.24a6.41 6.41 0 01-.81 2.46 5.45 5.45 0 01-1.95 2l-.8-.92a4.94 4.94 0 002-2.71h-1v-.86l-.92.25q0-.1-.09-.42l-.52.08zm1.56-2.14l-1 .21c-.18-1.07-.28-1.8-.31-2.2l1-.16a21.16 21.16 0 00.33 2.15zm4 1a.87.87 0 01-.34.71 1.23 1.23 0 01-.77.27h-1.44l-.13-1.35h.93c.21 0 .31-.09.31-.27v-3.71h-2.28v-4.3h2l.34-1 1.56.26-.37.76h2.42v4.3h-2.15a6.1 6.1 0 00.49 1.22 8.93 8.93 0 001.39-1.18l1 .95a10.68 10.68 0 01-1.78 1.28 9.48 9.48 0 001.83 1.8l-1 1.14a8.65 8.65 0 01-2-2.41zm-2.24-6.91h2.88v-.68h-2.88zm2.88.8h-2.88v.7h2.88zm6.24.53a10.2 10.2 0 01-.72 4.32 5.57 5.57 0 01-2.26 2.45l-.79-1.43a4 4 0 001.58-1.86 9.58 9.58 0 00.56-3.75v-2.76H194zm6.26 1.89a10 10 0 01-1.9 3 5.94 5.94 0 01-2.65 1.69l-.59-.57v-9.39h1.64v7.65a7.67 7.67 0 002.31-3.38zm9.58.54h-8.61v-1.56h8.61zm9.88-.23l-.89 1.39a17.18 17.18 0 00-4-2.61v5.71h-1.73V98.69h1.73v3.13a23.33 23.33 0 014.89 2.95zm6.15.36a16.37 16.37 0 01-.3 1.88 9 9 0 01-.42 1.57l-1.1-.25a17.16 17.16 0 00.57-3.27zm1.74 4.14h-1.49v-4.59c-.79.08-1.4.12-1.83.14l-.13-1.22h.91c.2-.25.45-.56.74-1-.52-.58-1.08-1.17-1.69-1.77l.86-.92.21.2a11.47 11.47 0 001-1.71l1.33.48a14.82 14.82 0 01-1.46 2.1l.54.57a15 15 0 001.16-1.89l1.3.56a38.8 38.8 0 01-2.42 3.27l1.25-.09c-.16-.46-.27-.75-.32-.87l1.12-.33c.22.55.49 1.32.8 2.3l-1.2.29a2.7 2.7 0 00-.09-.38l-.58.08zm1.78-1.64l-1.2.16a23 23 0 01-.4-2.58l1.19-.12zm1.74 1.5l-.19-1.44h1.51a.65.65 0 00.67-.51 7.55 7.55 0 00.17-1.82v-4.2h-2.39a10.54 10.54 0 01-.9 1.84l-1.23-.56a22.24 22.24 0 00.78-2.12 14.17 14.17 0 00.39-1.79l1.59.15a9.86 9.86 0 01-.3 1.33h3.54v6.04a7 7 0 01-.25 2 1.86 1.86 0 01-.58.74 1.9 1.9 0 01-.78.34c-.16-.03-.81-.01-2.03 0zm1.22-3.42l-1.48.51a27 27 0 00-1.18-3.11l1.34-.51a21 21 0 011.32 3.11zm16.96 4.39h-7.49v-1.71h2.52v-6.81h-2.52V100a4.17 4.17 0 002.12-.42 1.66 1.66 0 00.72-1.27h2.18v10.08h2.47zm11.3-9.67l-5.34 9.67h-2.81l5.59-9.85h-6.33v-1.91h8.89zm9.51 3.23a6 6 0 01-1.36 3.6 6.78 6.78 0 01-3.15 2l-.73-1.29q3.38-1.2 3.52-4.27h-1.61v-.52a14.39 14.39 0 01-1.26 1l-1-1.08a10.61 10.61 0 002.37-2.28 8.85 8.85 0 001.41-2.31l1.65.39a12 12 0 01-2.29 3.45H273a10.87 10.87 0 01-2.12-3.46l1.54-.46a10.84 10.84 0 001.68 2.57 13.88 13.88 0 002.31 2l-1.26 1.27-.63-.54a27.26 27.26 0 01-.15 3.11 2.73 2.73 0 01-.71 1.78 2.1 2.1 0 01-1.43.49h-2.11l-.24-1.5h1.86a.87.87 0 00.83-.51 9.39 9.39 0 00.26-2.94v-.5zm12.99 6.12h-2.55v-9.62h2.55v.63h-1.75v8.36h1.75zm12.75-2.04l-.5.62a8.09 8.09 0 01-2.39-2.11 10.54 10.54 0 01-1.56-2.67 7.22 7.22 0 01-1.59 2.86 7 7 0 01-2.84 1.88l-.28-.57a6.25 6.25 0 002.76-2 6 6 0 001.36-3h-3.88v-.65h4v-2.45h.81v2.45h4v.65h-3.93a8.72 8.72 0 001.51 2.83 7.5 7.5 0 002.53 2.16zm5.52-3.93a5.56 5.56 0 01-1.54 2.76 7.87 7.87 0 01-2.66 1.74l-.31-.55a6.45 6.45 0 003-2.37 5.41 5.41 0 001-3v-2.6h.81v2.66a6.4 6.4 0 00.86 2.23 6.63 6.63 0 001.73 1.92 8.57 8.57 0 001.71 1.05l-.48.64a9.25 9.25 0 01-2.68-2 6.19 6.19 0 01-1.44-2.48zm9.36.13v-.06a1.86 1.86 0 01-1.16-1.65 1.68 1.68 0 01.67-1.37 2.65 2.65 0 011.71-.54 2.72 2.72 0 011.73.51 1.62 1.62 0 01.66 1.34 1.72 1.72 0 01-.33 1 2.05 2.05 0 01-.9.73v.1a2 2 0 011.42 1.82 2 2 0 01-.73 1.58 3.16 3.16 0 01-3.73 0 2 2 0 01.66-3.46zm.6.17a1.81 1.81 0 00-1 1.64 1.47 1.47 0 00.47 1.15 1.68 1.68 0 001.19.44 1.74 1.74 0 001.19-.39 1.32 1.32 0 00.44-1 1.26 1.26 0 00-.2-.73 1.56 1.56 0 00-.59-.46 15.35 15.35 0 00-1.5-.65zm2.11-1.93a1.1 1.1 0 00-.41-.87A1.66 1.66 0 00312 101a1.71 1.71 0 00-1.06.31 1 1 0 00-.4.83 1.09 1.09 0 00.51.93 5.39 5.39 0 001.54.68 1.76 1.76 0 00.86-1.57zm7.42 3.54h-1.08v2.12h-.88v-2.12h-3.54v-1l3.58-4.22h.84v4.5h1.08zm-2-.72v-3.44L316 105zm5.51 3a2.1 2.1 0 01-1.9-.93 7.17 7.17 0 010-5.79 2.41 2.41 0 013.8 0 5.35 5.35 0 01.62 2.89 5.47 5.47 0 01-.61 2.9 2.12 2.12 0 01-1.91.93zm0-6.91a1.29 1.29 0 00-1.21.66 5.47 5.47 0 00-.37 2.43 5.39 5.39 0 00.37 2.41 1.44 1.44 0 002.42 0 8 8 0 000-4.82 1.27 1.27 0 00-1.21-.69zm13.81 3.37h-6.5v4h-.76v-8.19h8v7.31a.73.73 0 01-.25.57 1 1 0 01-.64.22h-1.36l-.1-.7h1.17a.36.36 0 00.41-.4zm-6.5-.62h2.81v-3h-2.81zm3.55 0h2.95v-3h-2.95zm10.54 5.94h-2.54v-.63H345v-8.36h-1.75v-.63h2.54z"/></g></g></svg>