<svg xmlns="http://www.w3.org/2000/svg" width="560" height="285"><defs><style>.cls-16,.cls-2{fill:#fff}.cls-16{stroke-linejoin:round;stroke-width:2px;stroke:#0080cb}.cls-17{fill:#0080cb}</style></defs><g id="レイヤー_2" data-name="レイヤー 2"><g id="object"><rect width="560" height="285" rx="10" fill="#e6e6e6"/><path class="cls-2" d="M555 105v170a5 5 0 01-5 5H10a5 5 0 01-5-5V105z"/><path d="M26.06 24.34a15.36 15.36 0 00-.6 2.57 47.7 47.7 0 00-.7 5.78c0 .23 0 .23-.08.78 0 .23-.05.39-.08.67h.11c.07-.26.07-.26.2-.7a10.11 10.11 0 012.42-4A11 11 0 0134 25.85a20.71 20.71 0 00-.36-3.77h2a2.79 2.79 0 000 .39 2.29 2.29 0 000 .41c0 .37.13 2.11.15 2.86 4.6.08 7.65 2.86 7.65 7S39.94 40 35.34 40a7.11 7.11 0 01-1.22-.1 12.92 12.92 0 01-4.84 4.45 5.63 5.63 0 00-1.4-1.35 10.72 10.72 0 004.34-3.43l.16-.21a2 2 0 01-.6-.23 8.5 8.5 0 01-4-4.16 4.62 4.62 0 001-1.43c1.09 2.41 2.34 3.66 4.34 4.39.71-1.48 1.07-3.95 1.07-7.28 0-.86 0-1.54-.05-3.15a10.62 10.62 0 00-6.66 4.11 10.31 10.31 0 00-2.39 6.16A5.54 5.54 0 0025.2 39l-1.85.15c0-.34 0-.47-.05-.88-.13-1.74-.18-3.07-.18-4.4a45.91 45.91 0 01.73-8 8.93 8.93 0 00.21-1.77zm9.85 5.93c0 3.82-.41 6.73-1.17 8H35a2.42 2.42 0 00.47 0 6.46 6.46 0 002.73-.57 5.56 5.56 0 003.48-5.2 4.83 4.83 0 00-2.73-4.5 6.6 6.6 0 00-3.07-.7c.01 1.23.03 1.85.03 2.97zM54.94 22a15.07 15.07 0 00-.59 2.68c-.42 2.62-.78 5.45-.86 6.78h.1l.18-.76a11.84 11.84 0 011.59-3.87c1.46-2.24 3.17-3.35 5.2-3.35a4.88 4.88 0 014.16 2.31 10.7 10.7 0 011.56 6.32c0 4.7-2.11 8.27-6 10.22a19.67 19.67 0 01-4.62 1.53 5.53 5.53 0 00-1-1.77 13.59 13.59 0 005.27-1.64c3-1.74 4.48-4.47 4.48-8.63s-1.46-6.6-4-6.6c-2 0-3.64 1.48-5.12 4.52a13.57 13.57 0 00-1.4 5.8v.62L52 36.3v-4.05a65.94 65.94 0 01.89-9.6 5.48 5.48 0 00.08-.83zm19.37 6.5c.94 0 3.64-.34 5.75-.67a32 32 0 00.78-5.52V22l2.08.23a15.72 15.72 0 00-.49 2.5c-.13.75-.32 1.71-.55 3 .6-.05.94-.08 1.53-.08 1.85 0 2.94.31 3.75 1.09s1.27 2.06 1.27 4.19c0 4-.67 7.44-1.74 8.94A2.71 2.71 0 0184.14 43a9.72 9.72 0 01-3.92-1 5.87 5.87 0 000-.91 4.92 4.92 0 00-.08-1 9.64 9.64 0 003.87 1.2c.65 0 1.15-.42 1.49-1.25a20.18 20.18 0 001.09-7.23c0-2.75-.78-3.64-3.2-3.64a15.72 15.72 0 00-1.87.13 48.91 48.91 0 01-3.93 11c-.34.62-.88 1.66-1.69 3.12l-1.77-1a24.81 24.81 0 002.71-4.71 43.27 43.27 0 002.86-8.24c-2.24.34-3.49.54-3.72.6a14 14 0 00-1.51.33zm17.09-2.39a23.53 23.53 0 015.43 9.2l-1.66 1a21.38 21.38 0 00-5.31-9.34zm10.08 6.27a17.51 17.51 0 004.66 1c.13-1.27.39-3.3.6-4.67a34.28 34.28 0 01-3.88-.71l-.8-.18.23-1.71a17.25 17.25 0 004.68 1 39.73 39.73 0 00.62-4.89v-.21l2.08.24a13.91 13.91 0 00-.41 1.74c0 .23 0 .23-.26 1.66-.08.58-.13.84-.26 1.56h1.51a21.39 21.39 0 004.75-.44l-.07 1.79-1.82.16c-.81.08-1.59.1-2.34.1-.42 0-.86 0-2.29-.05-.42 3-.44 3.25-.6 4.71h1.72a23.44 23.44 0 004.78-.41v1.74l-.7.05a29.36 29.36 0 01-3.67.21h-2.24v.52c0 .62-.11 1.48-.11 1.92a3.82 3.82 0 001.2 3.12 5.46 5.46 0 003.67 1.12c3.48 0 5.74-1.8 5.74-4.55a5.92 5.92 0 00-2.47-4.53 5 5 0 001.9-.52c1.85 2 2.44 3.28 2.44 5.18 0 3.66-3.06 6.13-7.61 6.13-2.73 0-4.81-.93-5.83-2.6a7 7 0 01-.8-3.58 13.35 13.35 0 01.1-1.72v-.62a28.79 28.79 0 01-3.92-.65 2.93 2.93 0 00-.81-.16zm30.22-9.08a32.56 32.56 0 00.7 4.53 12.29 12.29 0 015.56-1.3h.86a31 31 0 00.81-4.18l2 .41a19.93 19.93 0 00-.71 2.73c-.13.44-.18.73-.31 1.22 4.32.81 6.89 3.64 6.89 7.57a8.17 8.17 0 01-2.83 6.24 13.72 13.72 0 01-5.25 2.57c-.39.11-.52.13-1.64.39a4.35 4.35 0 00-1-1.74 11.83 11.83 0 003.88-1 8.45 8.45 0 003.9-2.83 6.45 6.45 0 001.14-3.7c0-3.17-1.9-5.25-5.48-6a29.34 29.34 0 01-5.05 10.19c-1.66 2-3.12 3-4.63 3-2.26 0-3.74-2-3.74-5.09a9.36 9.36 0 011.51-5 9.85 9.85 0 012.6-2.65c-.18-.83-.5-2.37-.73-3.67a6.25 6.25 0 00-.34-1.38zm-2.24 9.31a7.75 7.75 0 00-1 3.64c0 2 .83 3.41 2.11 3.41.91 0 2-.78 3.19-2.21a36 36 0 01-2.44-7 7.79 7.79 0 00-1.86 2.16zm5.46 3.39a4.8 4.8 0 01.31-.58 29.36 29.36 0 003.17-7.36h-.65a9.63 9.63 0 00-5 1.33 36.64 36.64 0 001.95 6 3.72 3.72 0 01.2.6zm28.63-1.44V21h6.89v1.61h-5.13v11.95zm12.66-9.15a18.83 18.83 0 00-3.07.15v-1.82a19.78 19.78 0 003.15.18h7.38v-.2a13.51 13.51 0 00-.18-2.52h1.92a14.46 14.46 0 00-.18 2.52v.2H193a18.2 18.2 0 003.25-.18v1.82a25.17 25.17 0 00-3.19-.15h-7.83v2.16h5.67a19.6 19.6 0 003-.13 22.53 22.53 0 00-.1 2.72V34a19 19 0 00.1 2.75 16.34 16.34 0 00-3-.15h-4.47c2.8 2.91 5.9 4.57 10.71 5.77a6.69 6.69 0 00-1 1.64 28.3 28.3 0 01-5.85-2.58 19 19 0 01-5.15-4.26c0 .68.08 1.53.08 2v2.65a14.69 14.69 0 00.18 2.89h-1.92a17.44 17.44 0 00.18-2.89v-2.61c0-.49 0-1.27.08-2a15.94 15.94 0 01-3.07 3 25 25 0 01-7.24 3.79 6.47 6.47 0 00-1-1.56 21.29 21.29 0 006.32-2.78 14.71 14.71 0 003.64-3h-3.79a16.38 16.38 0 00-3 .15v-.33a24 24 0 00.07-2.42v-3.84a24.5 24.5 0 00-.1-2.81 14.51 14.51 0 002.89.16h5.17v-2.16zm1.12 3.51v2.39h6.34v-2.39zm0 3.72v2.62h6.34v-2.62zm7.9-1.33h6.92v-2.39h-6.92zm0 3.95h6.92v-2.62h-6.92zm21.14 1.95a19.56 19.56 0 01-6.14 6.53 5.56 5.56 0 00-1.23-1.35 14.38 14.38 0 003.35-2.58 13.05 13.05 0 002.52-3.48zm3.22-13.75a11.28 11.28 0 00-.18-2.19h2.05a9.38 9.38 0 00-.18 2.19v1h8a16.62 16.62 0 002.88-.18v1.84a15 15 0 00-2.83-.15H202.1a14.92 14.92 0 00-2.78.15v-1.88a17 17 0 002.89.18h7.38zm-4.73 11.7a19.12 19.12 0 00-2.31.1 17.77 17.77 0 00.1-2.1v-2.94a19.12 19.12 0 00-.1-2.16 18.33 18.33 0 002.31.1h11.31a17.1 17.1 0 002.39-.1 15.56 15.56 0 00-.1 2.16v2.94a20.48 20.48 0 00.08 2.08c-.68-.06-1.38-.08-2.37-.08h-4.52v7.23c0 1.48-.68 2-2.86 2-.58 0-1.67-.06-2.55-.11a5.4 5.4 0 00-.44-1.71 16.46 16.46 0 002.8.26c1.15 0 1.36-.11 1.36-.63v-7zm-.57-1.43h12.53v-4.08h-12.53zm11.8 2.57a14.19 14.19 0 002.55 3.28 15.79 15.79 0 003.61 2.73 5.74 5.74 0 00-1.19 1.43 18.56 18.56 0 01-3.28-2.74 25.29 25.29 0 01-3.12-3.82zm14.77-4.94c4.11-.7 10.45-3.28 12.19-5l1.33 1.77c-.39.18-.52.23-1.12.54a40.1 40.1 0 01-12.4 4.4v4.24c0 1.82.11 2.41.55 2.86a3.16 3.16 0 002 .67 25.51 25.51 0 003.06.16 51.51 51.51 0 006-.42 12.17 12.17 0 002.57-.52l.16 2.08c-.39 0-.47 0-.86.08H244l-1.25.13c-1.66.18-5.09.36-6.89.36-3.06 0-4.78-.31-5.69-1.07a3.46 3.46 0 01-1.17-2.45v-14a14.37 14.37 0 00-.1-2.16h2.1a12 12 0 00-.13 2.19zm13-9.67a19.7 19.7 0 012.67 4l-1.3.78a19 19 0 00-2.67-4.13zm2.93-1.43a22.79 22.79 0 012.71 4.06l-1.3.68a19.53 19.53 0 00-2.65-4zm9.37 8.35a28.23 28.23 0 012.57 5.77L257 35a21.48 21.48 0 00-2.44-5.83zm14.66-.16a18.12 18.12 0 00-.57 2.11 23.36 23.36 0 01-2.25 5.82 18.8 18.8 0 01-8.6 7.51 5.13 5.13 0 00-1.2-1.45c4-1.8 6.45-3.8 8.24-6.79a19.66 19.66 0 002.21-5.59 11.24 11.24 0 00.29-1.77V28zm-9.36-.88a25.67 25.67 0 012.54 5.59l-1.71.59a23.25 23.25 0 00-2.39-5.69zM288 22.39a4.52 4.52 0 00-.57 1.07 21.3 21.3 0 01-1.2 2.29 3.4 3.4 0 01.94-.08l6.29-.11c.91 0 1 0 1.35-.18l1.54 1.62a2.7 2.7 0 00-.44 1 24.37 24.37 0 01-14.14 16 4.19 4.19 0 00-1.3-1.54 22.36 22.36 0 0013.65-15.26l-8.76.13a25 25 0 01-6.22 6.76 3.81 3.81 0 00-1.45-1.32 20.09 20.09 0 006.52-7.15 11.52 11.52 0 001.64-3.78zm8-.83a18.11 18.11 0 012.65 3.93l-1.3.78a18.12 18.12 0 00-2.65-4zm2.91-1.46a21.58 21.58 0 012.68 4l-1.3.75a18.31 18.31 0 00-2.66-4zm19.7 7.49v-2.52a16.87 16.87 0 00-.08-2.63h2a16.86 16.86 0 00-.1 2.42v2.73h2.23a18.92 18.92 0 003-.15v2a24.55 24.55 0 00-3-.13h-2.29c-.05 5.28-.31 6.94-1.27 8.82a11.11 11.11 0 01-4.24 4.29 19.82 19.82 0 01-3 1.32 4.65 4.65 0 00-1.17-1.64 11.55 11.55 0 005-2.54c1.82-1.64 2.55-3.36 2.78-6.5 0-.84.08-1.64.1-3.75h-7.9v4.34a15.71 15.71 0 00.1 2.11h-2.1a14.67 14.67 0 00.1-2.18v-4.3h-2.17a24.83 24.83 0 00-3 .13v-2a19.06 19.06 0 003 .15h2.16v-3a14.76 14.76 0 00-.1-2.18h2.1a11.63 11.63 0 00-.1 2.1v3.07zm31.2-4.08a5.93 5.93 0 00-1.14 1.09 45.31 45.31 0 01-6.09 5.23V40.9a17.75 17.75 0 00.13 2.76h-2.26a13.45 13.45 0 00.16-2.7v-9.88a40.94 40.94 0 01-10 4.55 5.86 5.86 0 00-1-1.75 36.66 36.66 0 0013.49-6.73 21.86 21.86 0 005-4.91zm11.54 20.18a16 16 0 00.16-2.73V24.81a14.67 14.67 0 00-.16-2.65h2.24a16.7 16.7 0 00-.13 2.7v4.86A64.37 64.37 0 01375 35.21l-1.12 1.92a52.66 52.66 0 00-9.7-5.14 2.68 2.68 0 01-.8-.45h-.05a10 10 0 01.1 1.53v7.83a18.25 18.25 0 00.13 2.76zm26.42-12.25V45h-6.89v-1.63H386V31.44zm21.74 4.86a19.53 19.53 0 01-1.49 7l-1.27-.65a15.69 15.69 0 001.51-6.65zm4.49-2.65h1.3a18 18 0 002.42-.1c0 .28 0 .49-.05 1a39.82 39.82 0 01-1 8.52c-.39 1.12-1 1.49-2.45 1.49-.49 0-1 0-1.9-.11v-.21a4.37 4.37 0 00-.28-1.45 12 12 0 002.29.31c.8 0 1-.34 1.35-2.24a46.24 46.24 0 00.52-5.92h-5.54c-1 0-1.66 0-2.39.07.05-.57.08-1.22.08-2.67v-7.09a25.38 25.38 0 00-.11-3 20.18 20.18 0 002.86.13h4.08a19.67 19.67 0 002.66-.13v1.61a16.16 16.16 0 00-2.45-.13H414v2.39h1a13.55 13.55 0 002.26-.13v1.53a14.32 14.32 0 00-2.26-.13h-1v2.34h1a12.54 12.54 0 002.26-.13v1.54A13.21 13.21 0 00415 31h-1zm-1.37-9.93h-2.84v2.39h2.84zm0 3.66h-2.84v2.34h2.84zM409.79 31v2.65h2.84V31zm1.41 5.25a42.31 42.31 0 01.44 5.72l-1.3.18v-1.06a37.38 37.38 0 00-.23-4.68zm1.66-.08a26.72 26.72 0 01.91 4.66l-1.14.36a25 25 0 00-.78-4.78zm1.59-.26a17.29 17.29 0 011 3.49l-1 .41a15.32 15.32 0 00-1-3.61zm11.13-4.37a22.34 22.34 0 001.71 6.92 13.1 13.1 0 003.49 4.91 5.8 5.8 0 00-1.28 1.49 18.29 18.29 0 01-3.82-6.22 25.53 25.53 0 01-1.61-7.1h-3c-.21 6.56-.83 9.73-2.62 13.19a5 5 0 00-1.49-.91c2.08-3.36 2.66-7.36 2.66-18.26a26.68 26.68 0 00-.11-3.09 20.63 20.63 0 002.86.13h4.32a19 19 0 002.81-.13 20.87 20.87 0 00-.11 2.83v3.54a21.61 21.61 0 00.11 2.81 17.87 17.87 0 00-2.5-.11zm2.28-1.43V24h-6.65v1.3c0 .73 0 2.31-.06 4.78zm8.37-5.66a26.44 26.44 0 00-3 .15v-1.92a25.13 25.13 0 003 .15h16.85a25.71 25.71 0 003-.15v1.92a26.56 26.56 0 00-3-.15h-8.16v3a56 56 0 019.23 5.33l-1 1.61a39.57 39.57 0 00-5.51-3.64 26.39 26.39 0 00-2.7-1.43v12.21a19.07 19.07 0 00.18 3.07h-2.16a19 19 0 00.19-3.07V24.45zm33.47-.76a13.41 13.41 0 00-.19-2.49h1.95a15 15 0 00-.18 2.49V24h7.8a13.82 13.82 0 002.71-.18v1.79a21.48 21.48 0 00-2.68-.15h-7.83v2.23h5.31a15.76 15.76 0 002.94-.15 23 23 0 00-.11 2.73v4.08a23.12 23.12 0 00.11 2.75 19.47 19.47 0 00-3-.15h-5.28v2.31h8.09a13.51 13.51 0 002.7-.18v1.82a20.74 20.74 0 00-2.7-.16h-8.09V42a14.3 14.3 0 00.18 2.86h-1.95a14.36 14.36 0 00.22-2.86v-1.23H462a18.85 18.85 0 00-2.65.16v-1.82a13.59 13.59 0 002.65.18h7.7V37h-4.84a20 20 0 00-3 .15 22.79 22.79 0 00.11-2.75v-4a23.87 23.87 0 00-.11-2.8 15.26 15.26 0 002.89.15h5v-2.26h-7.52a19.61 19.61 0 00-2.62.15v-1.79a14.48 14.48 0 002.65.18h7.49zm-6.14 5.43v2.5h6.14v-2.5zm0 3.91v2.54h6.14V33zm14.25-1.41v-2.5h-6.53v2.5zm0 3.95V33h-6.53v2.54zM24.08 74.17c0-1.06 0-1.77.08-3.12a14.23 14.23 0 01-2.57 2.68 4.53 4.53 0 00-.94-1.46 19.32 19.32 0 004.68-4.86 10.09 10.09 0 001.22-2.24l1.51.91a8.74 8.74 0 00-.73 1.12 26.74 26.74 0 01-1.64 2.27v10.42a24.3 24.3 0 00.13 3h-1.89a24 24 0 00.15-3zm3.82-13.93c-.2.2-.2.23-.78.91A24.31 24.31 0 0121.87 66a5.18 5.18 0 00-1.06-1.3A18.25 18.25 0 0024 62.21a10.62 10.62 0 002.42-3zm7.15 9.2h-4.81a24.28 24.28 0 00-2.44.13v-1.72a21.92 21.92 0 002.44.13h4.87v-3.79h-3.62a14.35 14.35 0 00-2.36.13V62.6a13.66 13.66 0 002.36.13h3.62v-.62a11.24 11.24 0 00-.21-2.68h2a12.7 12.7 0 00-.16 2.65v.65h4a14.41 14.41 0 002.45-.13v1.72a15 15 0 00-2.42-.13h-4V68h5.52a22.17 22.17 0 002.46-.13v1.72a23.75 23.75 0 00-2.46-.13h-5.62v3.74h4.08a15.53 15.53 0 002.36-.13v1.73a21.38 21.38 0 00-2.36-.13h-4.08v5.14a25.07 25.07 0 004.78.37c.94 0 1.77 0 3.49-.11a6.84 6.84 0 00-.55 1.8h-2c-6.53 0-9.68-1.22-11.86-4.55a17.78 17.78 0 01-3 5.57 4.35 4.35 0 00-1.37-1.09 16.35 16.35 0 003.61-7.62 13.68 13.68 0 00.39-2.94l1.79.34a21.32 21.32 0 00-.57 2.57c-.1.5-.18.89-.34 1.48a7.23 7.23 0 004 3.67zm19.89 1.38A20.19 20.19 0 0148.55 77a7.29 7.29 0 00-1.28-1.27A14.66 14.66 0 0053.49 70zm12.9-3.49a19.34 19.34 0 002.68-.15V69a18.43 18.43 0 00-2.68-.16h-7.75v6.22c0 1.24-.75 1.74-2.62 1.74-.76 0-1.69 0-2.63-.11a5.87 5.87 0 00-.42-1.69 15.62 15.62 0 002.92.29c.85 0 1.06-.11 1.06-.55v-5.9h-8.06a19.92 19.92 0 00-2.81.16v-1.82a21.46 21.46 0 002.81.15h1.72v-3.66a14.48 14.48 0 00-.16-2.32h1.93a12.68 12.68 0 00-.16 2.32v3.66h4.78v-5.61a16.07 16.07 0 00-.15-2.42h2a12 12 0 00-.16 2.36v.76h5.8a14.93 14.93 0 002.45-.16V64a15.62 15.62 0 00-2.45-.13h-5.8v3.46zM66.25 75a34.09 34.09 0 01-2.62 2.53 23.76 23.76 0 01-14.09 5.22A5.94 5.94 0 0048.7 81a22.56 22.56 0 0011.81-3.2 12 12 0 004.21-4zm-1.63-5.07a19.43 19.43 0 006.26 4.84 8.58 8.58 0 00-1.19 1.35 27.17 27.17 0 01-6.45-5.33zm8.63.63a6.15 6.15 0 00.93.08c.13 0 .91 0 1.33-.06 1-1.14 1.22-1.48 2-2.49a26 26 0 00-4-4l1-1.22c.57.54.7.65 1.11 1.06a19.35 19.35 0 002.58-4.81l1.61.73a10.63 10.63 0 00-.6 1 40.12 40.12 0 01-2.57 4.08c.78.78 1.19 1.25 1.74 1.9a26.54 26.54 0 003-4.92l1.53.91-.75 1.07a57.05 57.05 0 01-4.81 6.58c2-.13 2.42-.16 4.21-.39a20.89 20.89 0 00-1-2l1.2-.47a28.77 28.77 0 012.24 4.9l-1.33.6c-.26-.84-.34-1.07-.6-1.75a4.43 4.43 0 01-.65.08c-.21 0-.8.11-1.79.21v8.55a19.73 19.73 0 00.15 2.66h-1.9a20.16 20.16 0 00.12-2.68v-8.37l-2.91.26a8.21 8.21 0 00-1.59.18zm3.2 3.22a23.15 23.15 0 01-1.72 7.36l-1.43-.68a19.4 19.4 0 001.72-7zm5.9-.44a41.46 41.46 0 011.53 6.19l-1.51.47a34 34 0 00-1.32-6.26zm4.39-8.22a20.3 20.3 0 01-2.65 4.06 5 5 0 00-1.35-1 16.91 16.91 0 002.91-4.44 16.27 16.27 0 001.46-4.29l1.76.44c-.2.5-.2.5-.67 1.79-.21.58-.42 1.1-.76 1.93h6.5a15.52 15.52 0 002.11-.1 37.53 37.53 0 00-.13 4 64.48 64.48 0 01-1.12 11.76c-.59 2.49-1.25 3-3.74 3a27.07 27.07 0 01-2.76-.16 6.34 6.34 0 00-.44-1.79 21 21 0 003.46.34c1.22 0 1.51-.31 1.87-2a72.27 72.27 0 001.12-13.6zm2.76 10.43a25.28 25.28 0 00-3.56-6.45l1.35-.78A31.3 31.3 0 0191 74.67zm18.35.36a3.9 3.9 0 001.59 2.47 5.68 5.68 0 003.35.94c3 0 4.92-1.56 4.92-4s-1.85-4-5.31-4a18 18 0 00-2.08.13v-2a11.63 11.63 0 001.93.15 5.21 5.21 0 003.75-1.25 3.6 3.6 0 001-2.52c0-2.24-1.56-3.54-4.18-3.54a4.08 4.08 0 00-3.46 1.38 4.89 4.89 0 00-.83 1.84l-2.08-.51a5.86 5.86 0 011.4-2.59 6.77 6.77 0 015.18-1.9c3.77 0 6.16 2 6.16 5.09a4.59 4.59 0 01-1.82 3.8 5.48 5.48 0 01-2.44.94 5.56 5.56 0 013.19 1.11 4.77 4.77 0 011.75 3.93c0 3.51-2.71 5.69-7.05 5.69-2.63 0-4.58-.72-5.82-2.13a6.65 6.65 0 01-1.33-2.52zm31.31-15.86a6.93 6.93 0 00-.73 1.33 25.72 25.72 0 01-8.19 9.75 5.82 5.82 0 00-1.27-1.4 21.49 21.49 0 007.12-7.62 8.43 8.43 0 001.12-2.73zm-2.52 10.12a21.71 21.71 0 00-2.68.15v-1.84a20.7 20.7 0 002.7.15h8.56a18.87 18.87 0 002.78-.13 11.55 11.55 0 00-.11 1.85c0 5-.49 9.44-1.17 10.66-.44.78-1.06 1-2.57 1a33.79 33.79 0 01-3.41-.21 7.21 7.21 0 00-.41-1.84 20.55 20.55 0 003.66.44c.83 0 1.12-.16 1.3-.65.55-1.59.86-5.12.86-9.62H140a14.73 14.73 0 01-2 6.87 15.2 15.2 0 01-6.55 5.66 5.69 5.69 0 00-1.14-1.45c3.33-1.61 5.3-3.33 6.55-5.7a12.46 12.46 0 001.4-5.35zm8.08-10.74a10.38 10.38 0 001 2.18 21.7 21.7 0 007.67 8.09 6.49 6.49 0 00-1.22 1.59 26.33 26.33 0 01-8.76-10.46c-.13-.23-.29-.52-.42-.72z" fill="#3c3c3c"/><path stroke-linejoin="round" stroke-width="2" stroke="#8dc21f" fill="none" stroke-linecap="round" d="M25 136.13h127.08"/><path d="M25.26 141.4a5.27 5.27 0 115.27-5.27 5.27 5.27 0 01-5.27 5.27z" fill="#8dc21f"/><path stroke="#009fe8" stroke-linejoin="round" stroke-width="2" fill="none" stroke-linecap="round" d="M25 171.82h127.08"/><path d="M25.26 177.08a5.26 5.26 0 115.27-5.26 5.26 5.26 0 01-5.27 5.26z" fill="#009fe8"/><path stroke="#f9be00" stroke-linejoin="round" stroke-width="2" fill="none" stroke-linecap="round" d="M25 206.49h127.08"/><path d="M25.26 211.75a5.27 5.27 0 115.27-5.26 5.27 5.27 0 01-5.27 5.26z" fill="#f9be00"/><path stroke="#e3007f" stroke-linejoin="round" stroke-width="2" fill="none" stroke-linecap="round" d="M25 243.19h127.08"/><path d="M25.26 248.46a5.27 5.27 0 115.27-5.27 5.27 5.27 0 01-5.27 5.27z" fill="#e3007f"/><path stroke="#cbbd00" stroke-linejoin="round" stroke-width="2" fill="none" stroke-linecap="round" d="M535 189.66H426.26"/><path d="M534.74 184.4a5.27 5.27 0 11-5.27 5.26 5.27 5.27 0 015.27-5.26z" fill="#cbbd00"/><path stroke="#0080cb" stroke-linejoin="round" stroke-width="2" fill="none" stroke-linecap="round" d="M195.78 189.66h189.79"/><path d="M434.89 208.12l-.3-.67a9.06 9.06 0 001.67-.62 13.62 13.62 0 001.64-1 6.5 6.5 0 001.17-1H436V201h3.49v-.9H435v-.68h4.47v-1h.83v1h4.57v.68h-4.57v.9h3.54v3.92h-3.25a10.84 10.84 0 002.27 1.52 11.69 11.69 0 002.42.93l-.42.72a11.59 11.59 0 01-2.43-1 12.41 12.41 0 01-2.14-1.46v2.94h-.81v-2.95a10.06 10.06 0 01-2.06 1.46 13 13 0 01-2.53 1.04zm1.91-5.47h2.7v-1h-2.7zm2.7.58h-2.7v1.08h2.7zm.81-.58h2.74v-1h-2.74zm2.74.58h-2.74v1.08h2.74zm3.11 4.67l-.46-.58a10.67 10.67 0 002.83-2.41l.7.44a9.16 9.16 0 01-1.43 1.43 9.42 9.42 0 01-1.64 1.12zm-.21-7.75v-.68h4.51v-1h.88v1h4.57v.68zm4.47 8.3H449l-.08-.76H450c.3 0 .46-.13.46-.4v-3H447v-3.08h7.8v3.08h-3.48v3.33a.69.69 0 01-.28.57 1 1 0 01-.62.26zm3.59-6.57h-6.15v1.8H454zm1.66 5.94a10.22 10.22 0 01-1.55-1.08 10.57 10.57 0 01-1.48-1.34l.64-.49a10.52 10.52 0 001.47 1.31 7.83 7.83 0 001.45.94zm7.82-8.63a13.38 13.38 0 01-1.67 4.87 19.27 19.27 0 011.65 1.89l-.69.69a16.48 16.48 0 00-1.46-1.77 8.55 8.55 0 01-4 3.35l-.38-.76a8.14 8.14 0 003.73-3.28 24.55 24.55 0 00-2.73-2.42l.52-.66a27.37 27.37 0 012.69 2.28 12.35 12.35 0 001.41-4.31zm8.26 5.22l-.46.76a13.34 13.34 0 00-2.06-1.44 14.64 14.64 0 00-2.17-1v5.7h-.93v-9.59h.94v3a19.64 19.64 0 014.68 2.57zm7.25 3.52h-6.24v-8H479zm-.91-.77v-6.48h-4.44v6.48zm10.42-1.16h-5.16v2.51h-.84v-5.7a10.5 10.5 0 01-2 2.14l-.49-.51a12.87 12.87 0 001.57-1.63 13.18 13.18 0 001.47-2.37h-2.67v-.66h3a7.5 7.5 0 00.43-1.29l.89.1a7.37 7.37 0 01-.42 1.19h6.15v.66h-6.45c-.22.44-.44.86-.68 1.25h6.12v5.83a.76.76 0 01-.31.6 1 1 0 01-.68.25h-1.65l-.1-.79h1.42c.31 0 .46-.14.46-.41zm0-2.47v-1.19h-5.16v1.19zm-5.16 1.84h5.16v-1.23h-5.16zm7.96 2.83l-.28-.63a12.19 12.19 0 004.44-2.22h-4v-.67h4.43v-.81h-1.66v-4.26h1.53a11.92 11.92 0 00.37-1.14l.88.13c-.13.33-.28.67-.44 1h2v4.26h-1.79v.81h4.55v.67H497a12.16 12.16 0 004.6 2.15l-.38.7a13 13 0 01-4.5-2.22v2.55h-.86V206a11.64 11.64 0 01-2.16 1.33 13.74 13.74 0 01-2.39.87zm.23-4.31l-.32-.7a16.74 16.74 0 002.37-1.31l.26.64a11.65 11.65 0 01-1.07.69c-.54.32-.95.54-1.24.68zm1.47-2.71a13.74 13.74 0 00-1.43-1.57l.57-.46c.71.68 1.2 1.19 1.48 1.51zm2 .19h2.67v-1.13H495zm2.67.62H495v1.24h2.67zm3.17 1.9l-1.93-1.51.51-.51a23.56 23.56 0 011.95 1.43zm-1.41-2.78l-.51-.47a12.32 12.32 0 001.54-1.65l.73.49c-.17.19-.44.46-.84.83a9 9 0 01-.9.8zm4.12 5v.76h-.77v-8h5v.5h4.55v.63h-1.48v7.56a.75.75 0 01-.28.61 1.07 1.07 0 01-.68.23h-1.68l-.08-.77h1.4a.55.55 0 00.35-.12.35.35 0 00.15-.29V200h-2.25v6.12zm1.36-4.08v-2.58h-1.36V202zm0 3.44v-2.84h-1.36v2.84zm.78-6V202h1.35v-2.58zm0 3.18v2.84h1.35v-2.84zm7.87 4.99l-.61-.15a13.77 13.77 0 00.53-2.71l.72.06c-.06.46-.16 1-.29 1.55a9.47 9.47 0 01-.35 1.25zm1.2.87v-4.59l-1.62.13-.11-.69h.57c.28-.35.6-.78 1-1.31l-1.51-1.5.47-.49.2.2a11.65 11.65 0 001-1.74l.72.26a21.51 21.51 0 01-1.26 1.94l.77.78a16.3 16.3 0 001.11-1.81l.73.31a33.3 33.3 0 01-2.39 3.33c.76 0 1.38-.07 1.86-.11l-.25-.82.65-.18c.21.65.39 1.25.53 1.78l-.66.18a3.92 3.92 0 00-.11-.4l-.91.09v4.65zm1.6-1.84c-.1-.46-.19-1.09-.29-1.88l.62-.09c.08.47.18 1.1.3 1.87zm.61 1.54l-.4-.48a4.72 4.72 0 001.38-1.44 4.12 4.12 0 00.63-1.59h-1.19v-.59h1.88l.18.17a5.31 5.31 0 01-.82 2.27 4.62 4.62 0 01-1.64 1.66zm2.85.23h-1.09l-.08-.72h.81c.27 0 .4-.12.4-.37v-4.15h-2.2v-3.9h1.89l.31-.94.82.17-.37.77h2.62v3.9h-2.24v.57a6.69 6.69 0 00.67 1.34 11.28 11.28 0 001.62-1.33l.57.5a14.14 14.14 0 01-1.84 1.34 9.25 9.25 0 002 2l-.53.57a8.24 8.24 0 01-2.53-3.09v2.53a.72.72 0 01-.25.57.91.91 0 01-.58.24zm-1.41-7.44h3.74v-1.06h-3.74zm3.74.59h-3.74v1h3.74zm-451.7-50.95a2.1 2.1 0 01-.64 1.64 2.46 2.46 0 01-1.74.59 6.38 6.38 0 01-1.39-.16v-.94a3.64 3.64 0 001.2.24 1.79 1.79 0 001.13-.31q.39-.3.39-1.47v-4.93h-1.72v-.8h2.77zm8.54 2.12h-1.3l-2.7-3.32h-1.64v3.32h-1v-8.26h2.3a3.47 3.47 0 012.31.62 2.09 2.09 0 01.7 1.63 2.45 2.45 0 01-1.64 2.4zm-5.62-7.39v3.23h1.18a2.24 2.24 0 001.59-.46 1.74 1.74 0 00.49-1.34c0-1-.63-1.43-1.9-1.43zm9.22 7.96v-7.72h.85V152h3.14v-8.14h.86V152h3.19v-6.41h.85v7.7h-.85v-.64h-7.19v.68zM93.1 150v-.7h4.77v-2h-4.33v-.68h4.33v-1.76c-1.5.12-2.83.18-4 .18l-.09-.68a39.75 39.75 0 008.08-.74l.39.66a30.11 30.11 0 01-3.56.51v1.83h4v.68h-4v2h4.51v.7h-4.49v2.53a.79.79 0 01-.31.65 1.1 1.1 0 01-.73.25h-1.61l-.08-.76h1.4a.58.58 0 00.34-.13.4.4 0 00.15-.29V150zm11.27 2.58l-.61-.15a14.55 14.55 0 00.53-2.71l.72.06c-.07.46-.16 1-.29 1.55a10.74 10.74 0 01-.35 1.25zm1.2.87v-4.59l-1.63.13-.1-.69h.57c.27-.35.6-.78 1-1.31-.17-.18-.68-.68-1.51-1.5l.47-.48.2.19a10.42 10.42 0 001-1.74l.72.26a19.45 19.45 0 01-1.25 1.94l.76.78a14.89 14.89 0 001.11-1.81l.73.31a31.77 31.77 0 01-2.39 3.33c.77 0 1.39-.07 1.87-.11l-.25-.82.65-.18c.21.66.38 1.25.53 1.78l-.67.18c0-.06 0-.2-.1-.4l-.92.09v4.65zm1.59-1.84c-.09-.46-.19-1.09-.29-1.88l.63-.09c.07.47.17 1.1.3 1.87zm.62 1.55l-.4-.49a4.72 4.72 0 001.38-1.44 4.39 4.39 0 00.63-1.59h-1.2v-.59h1.89l.17.17a5.16 5.16 0 01-.81 2.27 4.74 4.74 0 01-1.66 1.67zm2.84.22h-1.09l-.08-.72h.81c.27 0 .41-.12.41-.36v-4.15h-2.2v-3.91h1.89l.31-.94.81.17-.37.77h2.63v3.91h-2.24v.56a6.49 6.49 0 00.67 1.35 13.42 13.42 0 001.62-1.33l.57.49a14.9 14.9 0 01-1.84 1.34 9 9 0 002 2l-.53.57a8.31 8.31 0 01-2.52-3.09v2.53a.78.78 0 01-.25.58.91.91 0 01-.6.23zm-1.4-7.46H113v-1.06h-3.73zm3.73.59h-3.73v1H113zm-53.5 39.31a2.15 2.15 0 01-.63 1.64 2.49 2.49 0 01-1.74.59 7.16 7.16 0 01-1.4-.16v-.95a3.74 3.74 0 001.2.24 1.84 1.84 0 001.14-.3c.25-.2.38-.7.38-1.48v-4.92h-1.72v-.8h2.77zm8.55 2.11h-1.33L64 184.61h-1.65v3.32h-1v-8.25h2.3a3.45 3.45 0 012.31.62 2 2 0 01.7 1.62 2.43 2.43 0 01-1.64 2.4zm-5.63-7.39v3.24h1.18a2.33 2.33 0 001.6-.46 1.79 1.79 0 00.48-1.35c0-.95-.63-1.43-1.9-1.43zm8.94 7.46l-.46-.58a10.5 10.5 0 002.83-2.42l.7.45A9.16 9.16 0 0173 186.9a9.42 9.42 0 01-1.69 1.1zm-.21-7.75v-.68h4.51v-1h.88v1h4.57v.68zm4.47 8.3h-1.4l-.08-.76h1.1c.3 0 .45-.13.45-.4v-3h-3.45v-3.08H80v3.08h-3.49v3.33a.72.72 0 01-.28.57 1 1 0 01-.66.28zm3.59-6.55H73v1.8h6.15zm1.66 5.94a10.22 10.22 0 01-1.55-1.08 11.23 11.23 0 01-1.48-1.34l.64-.5a9.93 9.93 0 001.47 1.32 9.06 9.06 0 001.45.94zm2.68-4.51a13.89 13.89 0 00-1.75-1.43l.54-.63a21.73 21.73 0 011.78 1.42zm-.72 5l-.74-.48a10.67 10.67 0 00.94-1.74 16 16 0 00.77-2l.74.25a13.3 13.3 0 01-.69 1.91 18.81 18.81 0 01-1.02 2.02zm1.6-7.49a29.76 29.76 0 00-1.8-1.54l.55-.56a22.88 22.88 0 011.81 1.43zm.37 7.69l-.46-.57a10.41 10.41 0 001.32-1 5.52 5.52 0 001-1.06l.76.37a8.81 8.81 0 01-2.62 2.24zm.11-2.89V185h.86v-5.4c.91-.06 1.87-.17 2.9-.33a13.64 13.64 0 002.21-.48l.4.68c-.52.13-1.28.28-2.31.44s-1.81.25-2.38.28v1.38h5.33v.63H90.8v2.8h1.46v.68zm1.68-.68H90v-2.86h-3.46zm5 3.51a6 6 0 01-1.25-1 7.81 7.81 0 01-1.12-1.27l.71-.37a5.56 5.56 0 001 1 7.76 7.76 0 001.23.94zm1.52-.33l-.3-.67a9.06 9.06 0 001.67-.62 16.92 16.92 0 001.64-1 7.06 7.06 0 001.18-1h-3.08v-3.92h3.49v-.9h-4.47v-.68h4.47v-1h.83v1h4.57v.68h-4.57v.9H102V185h-3.22a10.84 10.84 0 002.27 1.52 12.21 12.21 0 002.42.92l-.42.73a11.59 11.59 0 01-2.43-1 12.41 12.41 0 01-2.14-1.46v2.94h-.81v-3a9.35 9.35 0 01-2.06 1.46 12.47 12.47 0 01-2.55 1.13zm1.94-5.47h2.7v-1H95zm2.7.57H95v1.09h2.7zm.81-.57h2.74v-1h-2.77zm2.74.57h-2.77v1.09h2.74zm2.83 3.87l-.21-.76a25.79 25.79 0 003.22-.82V182h-2.71v-.69h2.71v-2.46h.91v9.69h-.86v-2.15c-.84.23-1.84.51-3.06.82zm5.9-8.42h.86v3.54a18 18 0 002.75-1.6l.53.64a17.34 17.34 0 01-3.28 1.72v4a.57.57 0 00.16.4 1.57 1.57 0 00.93.17 3 3 0 001.12-.11.57.57 0 00.28-.33 9.41 9.41 0 00.1-1.57l.76.11v1.6a.85.85 0 01-.24.61 1.09 1.09 0 01-.58.33 6.15 6.15 0 01-1.17.08h-1.09a1.4 1.4 0 01-.88-.28.94.94 0 01-.25-.7zm5.39 8.97l-.6-.15a13.67 13.67 0 00.52-2.71h.72a14.75 14.75 0 01-.29 1.56 9.47 9.47 0 01-.35 1.3zm1.21.87V184l-1.63.13-.1-.68h.57c.27-.34.59-.77 1-1.3l-1.51-1.51.47-.48.2.19a11.12 11.12 0 001-1.73l.72.26a20 20 0 01-1.26 1.93l.77.79a14.14 14.14 0 001.11-1.82l.73.32a33.3 33.3 0 01-2.39 3.33c.76 0 1.39-.07 1.86-.11l-.24-.82.65-.19c.2.66.38 1.26.52 1.79l-.66.18a3.92 3.92 0 00-.11-.4l-.91.08v4.66zm1.59-1.84c-.1-.47-.19-1.09-.29-1.88l.63-.09q.1.7.3 1.86zm.62 1.54l-.41-.48a4.88 4.88 0 001.39-1.44 4.25 4.25 0 00.62-1.59h-1.19v-.6h1.89l.17.17a5.3 5.3 0 01-.82 2.28 4.68 4.68 0 01-1.65 1.66zm2.84.23h-1.09l-.08-.72h.81c.27 0 .4-.12.4-.37v-4.15h-2.2v-3.9h1.9l.3-.94.82.17-.37.77h2.63v3.9h-2.24v.57a5.77 5.77 0 00.67 1.34 12.53 12.53 0 001.62-1.33l.56.49a14.43 14.43 0 01-1.83 1.35 9 9 0 002 2l-.53.57a8.21 8.21 0 01-2.52-3.09v2.53a.73.73 0 01-.26.57.9.9 0 01-.59.24zm-1.4-7.46H124V180h-3.73zm3.73.58h-3.73v1H124zm-72.17 41.23l-.29-.67a9.28 9.28 0 001.66-.63 13.71 13.71 0 001.65-1 6.09 6.09 0 001.17-1h-3.07v-3.91h3.48v-.91h-4.46v-.67h4.46v-1h.84v1h4.56v.67h-4.56v.91h3.53v3.91h-3.25a10.46 10.46 0 002.27 1.52 12 12 0 002.43.93l-.43.73a11.66 11.66 0 01-2.43-1 11.92 11.92 0 01-2.13-1.45v2.94h-.82v-3a9.69 9.69 0 01-2.06 1.46 12.56 12.56 0 01-2.55 1.17zm1.91-5.48h2.7v-1h-2.7zm2.7.58h-2.7v1.08h2.7zm.82-.58H60v-1h-2.78zM60 218h-2.78v1.08H60zm3.07 4.69l-.46-.58a10.85 10.85 0 002.83-2.42l.69.44a8.66 8.66 0 01-1.42 1.43 9.93 9.93 0 01-1.64 1.13zm-.22-7.76v-.68h4.52v-1h.87v1h4.57v.68zm4.48 8.3h-1.41l-.08-.75h1.1c.31 0 .46-.14.46-.4v-3h-3.46V216h7.81v3.07h-3.48v3.33a.7.7 0 01-.27.6 1 1 0 01-.67.23zm3.59-6.56h-6.16v1.79h6.16zm1.66 5.93a10 10 0 01-1.58-1.07 12.64 12.64 0 01-1.48-1.35l.64-.49a10.6 10.6 0 001.5 1.31 8.6 8.6 0 001.44.93zm7.81-8.6a13.13 13.13 0 01-1.67 4.87 21 21 0 011.66 1.9l-.7.68a16.25 16.25 0 00-1.46-1.77 8.5 8.5 0 01-4 3.35l-.38-.76a8 8 0 003.73-3.27 24.54 24.54 0 00-2.72-2.42l.52-.66a27.24 27.24 0 012.68 2.28 12.16 12.16 0 001.42-4.31zm8.26 5.19l-.45.76a14.87 14.87 0 00-2.06-1.44 14.71 14.71 0 00-2.18-1v5.7H83v-9.59h1v3a20.13 20.13 0 014.65 2.57zm7.23 3.52h-6.25v-8h6.25zM95 222v-6.48h-4.47V222zm2.2 1.06l-.17-.64c.45 0 1.14-.16 2-.32v-3.35h-1.62v-.63h1.67v-1.51h-1v-.51a6.65 6.65 0 01-.82.75l-.44-.49a7 7 0 001.21-1.29 6.66 6.66 0 001-1.75h1a6.54 6.54 0 001.51 1.78l-.52.54a8.51 8.51 0 01-1.43-1.64 9.44 9.44 0 01-1.39 2h2.85v.6h-1.19v1.51h1.48v.63h-1.48V222l1.49-.27v.61c-.8.15-2.18.41-4.15.72zm.58-1.55l-.34-1.83.68-.13.32 1.82zm3.18-.32l-.6-.08.35-1.75.66.09zm.42 2l-.12-.63c.26 0 .5-.06.71-.1v-8.92h4.55v4.79h-1.91a6.63 6.63 0 00.63 1.64 13.35 13.35 0 001.7-1.18l.54.55a17.25 17.25 0 01-1.9 1.2 8.8 8.8 0 002 2.13l-.61.53a8.56 8.56 0 01-1.88-2.06 8 8 0 01-1.21-2.81h-1v4c.7-.13 1.44-.27 2.22-.44l.07.61a37 37 0 01-3.79.72zm1.41-7.57h2.91v-1.46h-2.91zm2.91.61h-2.91v1.5h2.91zm4-1.35v2a15 15 0 01-.43 4 6.59 6.59 0 01-1 2.2l-.5-.42a10.88 10.88 0 001.09-5.27v-3.2H113v-.95h.83v.95h4.29v.66zm.11 8.15v-.67h3.78v-1.55h-3.17v-.66h3.17v-4.86h.79v4.86h3.51v.66h-3.51v1.55h3.81v.64zm1.38-4.34a4.85 4.85 0 01-.91.9l-.35-.47a3.65 3.65 0 00.81-1 3.75 3.75 0 00.45-1.16 8.64 8.64 0 00.1-1.39h.7v1a3.85 3.85 0 00.5 1.27 4.62 4.62 0 00.81 1.11l-.44.54a4.44 4.44 0 01-1.14-1.68 4.23 4.23 0 01-.53.88zm4.77.1a3.84 3.84 0 01-.91.83l-.41-.47a3.54 3.54 0 00.72-.77 3.88 3.88 0 00.46-.87 2.9 2.9 0 00.18-.75v-1.18h.77v1.08a3.48 3.48 0 00.57 1.25 6.93 6.93 0 001.06 1.22l-.5.49a5.31 5.31 0 01-1.38-1.79 4.24 4.24 0 01-.52.96zm3.51 3.63l-.61-.14a13.85 13.85 0 00.53-2.72l.72.06c-.06.46-.16 1-.29 1.56a9.22 9.22 0 01-.35 1.24zm1.2.87v-4.59l-1.63.13-.1-.68h.57c.27-.34.6-.78 1-1.3-.17-.19-.67-.69-1.51-1.51l.48-.48.2.19a10.73 10.73 0 001-1.74l.72.27a21.34 21.34 0 01-1.26 1.93l.77.78a15.1 15.1 0 001.1-1.81l.74.31a31.93 31.93 0 01-2.4 3.33c.77 0 1.39-.07 1.87-.11l-.25-.82.65-.18c.21.66.39 1.25.53 1.79l-.66.18c0-.07 0-.21-.11-.41l-.91.09v4.65zm1.59-1.84c-.09-.46-.19-1.09-.29-1.87l.63-.1c.07.48.17 1.1.3 1.87zm.62 1.55l-.4-.48a4.84 4.84 0 001.38-1.44 4.43 4.43 0 00.63-1.6h-1.19v-.59h1.88l.17.17a5.16 5.16 0 01-.81 2.27 4.65 4.65 0 01-1.66 1.67zm2.84.22h-1.09l-.08-.71h.81c.27 0 .41-.13.41-.37V218h-2.2v-3.91h1.89l.31-.93.81.17-.37.76h2.63V218h-2.24v.57a6.43 6.43 0 00.67 1.34 12.67 12.67 0 001.62-1.33l.57.49a13.25 13.25 0 01-1.84 1.34 9.21 9.21 0 002 2l-.52.57a8.24 8.24 0 01-2.53-3.09v2.53a.73.73 0 01-.25.58.91.91 0 01-.6.22zm-1.4-7.46h3.74v-1.06h-3.74zm3.74.59h-3.74v1h3.74zM68 259.49h-2.78v.42h-.79v-4.19c-.29.16-.63.32-1 .5l-.31-.61a11.08 11.08 0 003.11-1.89h-2.84v-.63h2.06v-1.33h-1.69v-.62h1.69V250h.83v1.14h1.48v.62h-1.48v1.33h.79a11.39 11.39 0 001.69-2.48l.73.25a12.54 12.54 0 01-1.5 2.23h1.38v.63h-2.08a11.52 11.52 0 01-1.37 1.12h2.88v5.06H68zm0-2.66v-1.38h-2.78v1.38zm-2.75 2H68v-1.41h-2.78zm6-.6l-.15-.72h.9a.51.51 0 00.35-.17 1 1 0 00.27-.5 3.32 3.32 0 00.09-.84 3.92 3.92 0 00-1-2.28.22.22 0 010-.09.17.17 0 010-.08 19.34 19.34 0 00.72-2.53h-1.75v8.89h-.81v-9.55h3.41l.18.18c0 .25-.21.75-.46 1.5a11.55 11.55 0 01-.57 1.46 10.18 10.18 0 01.81 1.42 2.65 2.65 0 01.26 1v.12a3.35 3.35 0 01-.13 1 2 2 0 01-.31.67 1.49 1.49 0 01-.41.36 1 1 0 01-.43.13h-1zm5.31-6.64l-.64-1.27.74-.24a14.47 14.47 0 01.81 1.51h1.86c-.28-.67-.5-1.15-.67-1.46l.78-.22a18 18 0 01.76 1.68h1.59c.37-.65.64-1.19.83-1.62l.88.23c-.16.3-.45.76-.86 1.39h1.8v1.87h-.83v-1.2h-8.16v1.2h-.8v-1.87zm6.36 8h-6.76v.41h-.82v-3.43h3.23l.43-1h-2.74V253h6.53v2.51h-2.9l-.54 1h4.41V260h-.84zm-6.76-.68h6.76v-1.69h-6.76zm5.84-5.26h-5v1.25h5zm4.83 1.35a16.36 16.36 0 00-1.45-1.51L86 253a19 19 0 011.49 1.48zm-.53 4.73l-.74-.42a15.35 15.35 0 00.94-1.72 14.16 14.16 0 00.73-1.8l.69.26a12.15 12.15 0 01-.66 1.79 14.82 14.82 0 01-.96 1.88zm1-7.28a18 18 0 00-1.43-1.53l.6-.47A18.24 18.24 0 0188 251.9zm4.89 5.69a14.36 14.36 0 01-4.14 1.79l-.26-.63a15.41 15.41 0 004-1.78 8.77 8.77 0 01-.84-1.86l-2.71.12v-.69l2.53-.12c-.09-.37-.17-.73-.22-1.08l-2.06.08v-.62l2-.08c0-.34-.08-.67-.1-1l-2 .06v-.66l2-.05v-1.72h.87v1.69l3.76-.11v.65l-3.75.12c0 .36 0 .69.09 1l3.64-.14v.62l-3.57.13a10.79 10.79 0 00.23 1.08l3.65-.17v.69l-3.48.16a7.71 7.71 0 00.68 1.46 9.77 9.77 0 001.45-1.15l.6.5a11 11 0 01-1.62 1.28 6.29 6.29 0 00.76.85c.26.25.46.38.61.38a.33.33 0 00.31-.24 6.4 6.4 0 00.22-1.42l.71.14q0 .71-.12 1.32a3.44 3.44 0 01-.15.77.9.9 0 01-.8.44 1.09 1.09 0 01-.54-.14 3.74 3.74 0 01-.78-.63 8 8 0 01-.95-1.05zm1.12-6.6a12 12 0 00-1.2-1.08l.53-.47a9.85 9.85 0 011.27 1.01zm10.48-.11v.69H103v-.69h-2.92v.73h-.81v-.73H96.5v-.62h2.76v-.74h.81v.74H103v-.74h.8v.74h2.8v.62zM101 260v-1.79h-4.5v-.67h4.5v-1h-3.49v-4h8.12v4h-3.77v1h4.66v.67h-4.66V260zm-2.75-5.79h6.53v-1.07h-6.49zm6.53.59h-6.49v1.2h6.53zm3.02 4.33l-.61-.15a13.67 13.67 0 00.52-2.71l.72.06a14.61 14.61 0 01-.29 1.55 9.83 9.83 0 01-.34 1.25zm1.2.87v-4.59l-1.63.13-.1-.69h.57c.27-.35.59-.78 1-1.31-.17-.18-.68-.68-1.51-1.5l.47-.49.2.2a10.83 10.83 0 001-1.74l.72.26a17.9 17.9 0 01-1.26 1.94l.77.78a14.89 14.89 0 001.11-1.81l.73.31a33.3 33.3 0 01-2.39 3.33c.77 0 1.39-.07 1.86-.11l-.24-.82.65-.18c.21.65.38 1.25.52 1.78l-.66.18c0-.07 0-.2-.1-.4l-.92.09V260zm1.59-1.84c-.09-.46-.19-1.09-.29-1.88l.63-.09c.07.47.17 1.1.3 1.87zm.62 1.54l-.4-.48a4.72 4.72 0 001.38-1.44 4.46 4.46 0 00.63-1.59h-1.2v-.59h1.89l.17.17a5.29 5.29 0 01-.81 2.27 4.62 4.62 0 01-1.66 1.66zm2.84.23H113l-.08-.72h.81c.27 0 .4-.12.4-.37v-4.15h-2.23v-3.9h1.89l.3-.94.82.17-.37.77h2.63v3.9h-2.24v.57a5.77 5.77 0 00.67 1.34 12.53 12.53 0 001.62-1.33l.57.5a14.9 14.9 0 01-1.84 1.34 9 9 0 002 2l-.53.57a8.31 8.31 0 01-2.52-3.09v2.53a.73.73 0 01-.26.57.88.88 0 01-.59.24zm-1.4-7.46h3.73v-1.06h-3.73zm3.73.59h-3.73v1h3.73z" fill="#231815"/><path class="cls-16" d="M153.52 128.49c0-1.93 1.95-3.49 4.36-3.49h32.3c2.41 0 4.36 1.56 4.36 3.49v122.34c0 1.93-1.95 3.5-4.36 3.5h-32.3c-2.41 0-4.36-1.57-4.36-3.5z"/><path class="cls-17" d="M174.08 140.28h-.36l-.4 1h1V143h-2v.47H174V145h-.92a4.81 4.81 0 00.92.78l-.76 1.66a5.22 5.22 0 01-1-1v3h-1.73v-2.39a8.19 8.19 0 01-.66.88 3.53 3.53 0 01-.86.83l-.86-1.76a7.17 7.17 0 001.82-2h-1.62v-1.6h2.18v-.4H168v-1.65h1.22l-.25-1h-.61v-1.66h2.13v-1.19h1.78v1.19h1.78zm-3.4 0l.25 1h.76l.31-1zm3.81 3.88v-5.9l.91.21a12.61 12.61 0 003.41-1l.81 1.66a11.06 11.06 0 01-3.35.88v1.45H180v1.76h-1.11v6.21h-1.78v-6.21h-.81v.93a8.27 8.27 0 01-.41 2.85 4.4 4.4 0 01-.61 1.35 5.75 5.75 0 01-1 1.24l-1.37-1.55a5.39 5.39 0 001.27-1.92 5.82 5.82 0 00.31-1.96zm4.88 13.23a5.16 5.16 0 01-1-.56v.72h-5v-.72a4.53 4.53 0 01-.81.72l-1-1.5a3.91 3.91 0 001.63-1.19H172v.57h-1a14.63 14.63 0 001.17 1.91l-.61 1.76-.56-.83v5.13h-1.78v-3.62l-.56 1.14-.76-2.08a12.2 12.2 0 001.27-3.41h-1.12v-1.56h1.17v-2.43H171v2.43h.81v-.51h2.39l.16-.31h-1.58l-.81-1.4a34.36 34.36 0 006.55-.52l1 1.45a26.77 26.77 0 01-3.15.36l-.21.37h3.66v1.5h-1.42a3.34 3.34 0 001.73.93zm-2.14 6l-.35-1h-1.28v.31h-1.32v-3.06h3.2v1.92a.26.26 0 00.31-.11.35.35 0 00.05-.31v-1.81h-3.91v4h-1.83v-5.49h7.52v4c0 1-.48 1.5-1.42 1.5zm-1-8.49h-.91a2.1 2.1 0 01-.36.41h1.68zm-1.11 1.71h1.52v-.31h-1.54zm1.11 4.66v-.57h-.61v.57z"/><path d="M269.27 128.65c0-1.93 2-3.5 4.37-3.5h32.29c2.41 0 4.37 1.57 4.37 3.5V251c0 1.93-2 3.49-4.37 3.49h-32.29c-2.41 0-4.37-1.56-4.37-3.49z" stroke-miterlimit="10" fill="#0080cb" stroke="#0080cb"/><path class="cls-2" d="M296 140.37h-5.26v.44h3.78v5.47h-2.3a9 9 0 003.83 2.34l-1.15 1.73a13.31 13.31 0 01-2.35-1.23 7.46 7.46 0 01-1.81-1.56v2.95h-2v-3a6.66 6.66 0 01-1.8 1.73 6.88 6.88 0 01-2.14 1.17l-1.31-1.78a8.28 8.28 0 002.14-1 5 5 0 001.58-1.39H285v-5.47h3.77v-.44h-5.36v-1.79h5.36v-1.06h2v1.06H296zm-9 2.56h1.8v-.5H287zm0 1.67h1.8v-.5H287zm3.77-1.67h1.81v-.5h-1.81zm0 1.67h1.81v-.5h-1.81zm-7.28 10.4v-1.78h5.25v-1.45h2v1.45H296V155zm3.23 5.3l1.59.89a7 7 0 01-3.45 3.46l-1.31-1.65a7 7 0 003.17-2.71zm1.37 4.4l-.71-1.84h1c.44.08.62-.13.55-.61v-2.06h-3.78v-4.59h9.2v4.58h-3.4v2.95c0 1-.45 1.56-1.36 1.56zm-1-6.35h5.36v-1h-5.36zm5.63 2a11.51 11.51 0 003.28 2.45l-1.31 1.72a17 17 0 01-1.92-1.56 13.52 13.52 0 01-1.47-1.61zm-5.34 5.55v4.35a19.54 19.54 0 005.74-2.34l1.48 1.45a23.73 23.73 0 01-7.22 3v2.06q0 .84.93.84c1.71 0 3.83 0 6.34-.06l-.27 2h-6.95a2.18 2.18 0 01-1.59-.5 2.47 2.47 0 01-.43-1.62v-9.18zm5.58 1.34l.82-.72 1.2 1.28-.82.78zm1.15-1l.82-.72 1.07 1.28-.76.72zm-6.62 13.21l1.36-.55a19.71 19.71 0 011 2.56l-1.36.56c-.26-.82-.6-1.67-1-2.57zm1.25 6.36a9.24 9.24 0 003.89-2.56 11.55 11.55 0 001.86-4.58l1.75.62a12.64 12.64 0 01-2.13 4.9 10.44 10.44 0 01-4.33 3.18zm1.37-6.8l1.43-.56c.47 1.08.8 1.9 1 2.45l-1.42.51q-.52-1.35-1.01-2.41zm-5.8 15.55a14.42 14.42 0 004.16-5.79l2 .78-.49 1.17h3.28l.17-.23 1.58 1a15.5 15.5 0 01-7.44 9.48L286 199.3a12.15 12.15 0 006.29-6.74h-3.45A17.42 17.42 0 01286 196zm7.33-5.74l.94-.67 1.25 1.45-1 .67zm2 0l.88-.67 1.26 1.39-1 .73zM284 206.61v-1.9h2.35v-2.56h2v2.56h2.68V202h2v2.67h2.3v1.9h-2.3a8.87 8.87 0 01-1 4.4 7.54 7.54 0 01-3.29 2.9l-1.47-1.56a6.94 6.94 0 002.84-2.28 6 6 0 00.88-3.46h-2.68v3.07h-2v-3.07zm.31 14.5a21.92 21.92 0 008.87-6l1.75 1.45a18.76 18.76 0 01-3.67 3.18v7.2h-2.13v-5.86a27.92 27.92 0 01-3.67 2zm2.63 7.02H289v4.74l1-1.23a45 45 0 014.6 3.24l-1.31 1.67a40.81 40.81 0 00-4.27-3.12v6.8h-2.08z"/><path class="cls-16" d="M385.26 128.49c0-1.93 2-3.49 4.37-3.49h32.29c2.41 0 4.37 1.56 4.37 3.49v122.34c0 1.93-2 3.5-4.37 3.5h-32.29c-2.41 0-4.37-1.57-4.37-3.5z"/><path class="cls-17" d="M399.93 144v-1.45h11.69V144zm.05 3.67h3l-.15-.67h-1.53v-2.69h8.8V147h-1.53l-.25.67h3.25v1.4H400zm.71-5.48v-4h2.65v-.73h1.77v.73h1.22v-.73h1.78v.73h2.65v4zm1.78-2.54h.87v-.36h-.87zm0 1.34h.87v-.36h-.87zm.66 5h5.24v-.63h-5.24zm1.58 1l.2.67h1.68l.15-.67zm.4-7.35h1.22v-.36h-1.22zm0 1.34h1.22v-.36h-1.22zm3-1.34h.89v-.36h-.87zm0 1.34h.89v-.36h-.87zm-5.54 15.24l-1 1.39a5.36 5.36 0 00-1.83-1.34l.91-1.4a6 6 0 011 .57 3.19 3.19 0 01.92.78zm-1.42 1.91l1.58.88a7.78 7.78 0 01-.46 2.23 8.16 8.16 0 01-.86 2l-1.58-1a8.1 8.1 0 001.32-4.11zm-.86-5.28l1-1.4a5.11 5.11 0 011.88 1.4l-1 1.45a5.6 5.6 0 00-.76-.72 6.24 6.24 0 00-1.12-.73zm4 3.21v-4.66h1.83v3.37l.46-.26.3.93v-3.52h1.73v2.9l.46-.26.45 1v-4.19h1.78v12h-1.78v-5.69l-.55.36-.36-1.35v6.06h-1.73v-5l-.56.36-.25-1.08a13.11 13.11 0 01-.41 3.31 6.76 6.76 0 01-1.72 3l-1.52-1.34a6 6 0 001.58-3 13.2 13.2 0 00.25-2.94zm-.1-1.34a16 16 0 01-.31 3.67l-1.27-.41a11.53 11.53 0 00.41-3.21zM224.69 167h-8.88v-1.89a30 30 0 004.53-4 4.21 4.21 0 001.16-2.51 1.7 1.7 0 00-.56-1.36 2.26 2.26 0 00-1.53-.48 5.57 5.57 0 00-3.1 1.07h-.19v-2.29a10.21 10.21 0 013.69-.75 4.94 4.94 0 013.22.93 3.17 3.17 0 011.13 2.6 5.08 5.08 0 01-.92 2.72 20.38 20.38 0 01-4.24 4.06h5.72zm10.84 0h-8.88v-1.89a31 31 0 004.53-4 4.21 4.21 0 001.16-2.51 1.7 1.7 0 00-.56-1.36 2.31 2.31 0 00-1.54-.48 5.54 5.54 0 00-3.09 1.07H227v-2.29a10.26 10.26 0 013.7-.75 4.91 4.91 0 013.21.93 3.14 3.14 0 011.13 2.6 5.06 5.06 0 01-.91 2.72 20.5 20.5 0 01-4.28 4.06h5.73zm9.41-6.55a6 6 0 01-1.36 3.67 6.61 6.61 0 01-3.15 2l-.73-1.32c2.25-.81 3.43-2.26 3.52-4.36h-1.6v-.52a14.52 14.52 0 01-1.26 1l-1-1.09a11.14 11.14 0 002.38-2.33 9.06 9.06 0 001.4-2.36l1.66.4a12.45 12.45 0 01-2.29 3.52h5.35a11.08 11.08 0 01-2.12-3.53l1.54-.47a11 11 0 001.65 2.66 13.54 13.54 0 002.31 2.05l-1.24 1.3-.63-.55a28.48 28.48 0 01-.15 3.18 2.85 2.85 0 01-.7 1.81 2.06 2.06 0 01-1.44.51H245l-.24-1.53h1.86a.87.87 0 00.83-.53 9.67 9.67 0 00.26-3v-.52zM202.87 183h-2.54v-9.8h2.54v.64h-1.75v8.53h1.75zm12.77-2.07l-.5.63a8 8 0 01-2.39-2.15 11 11 0 01-1.56-2.72 7.67 7.67 0 01-1.6 2.92 6.89 6.89 0 01-2.84 1.92l-.28-.59a6.21 6.21 0 002.76-2 6.09 6.09 0 001.36-3.06h-3.88v-.66h4v-2.5h.82v2.5h4v.66h-3.94a8.76 8.76 0 001.52 2.88 7.45 7.45 0 002.53 2.17zm5.53-4.01a5.85 5.85 0 01-1.55 2.82 8 8 0 01-2.66 1.78l-.3-.57a6.54 6.54 0 003-2.41 5.65 5.65 0 001-3.07v-2.65h.82v2.72a6.39 6.39 0 00.86 2.27 6.52 6.52 0 001.73 2 8.38 8.38 0 001.71 1.07l-.48.66a9.23 9.23 0 01-2.68-2 6.25 6.25 0 01-1.45-2.62zm8.22 3.8v-1h.08a3.68 3.68 0 002.05.67 1.81 1.81 0 001.26-.44 1.57 1.57 0 00.47-1.2 1.31 1.31 0 00-.41-1.06 2.14 2.14 0 00-1.33-.34h-.43v-.76h.33a2 2 0 001.24-.35 1.14 1.14 0 00.45-1 1 1 0 00-.39-.82 1.8 1.8 0 00-1.08-.28 3.46 3.46 0 00-2 .65h-.06v-1a4.62 4.62 0 012.05-.47 2.81 2.81 0 011.76.48 1.55 1.55 0 01.62 1.31 1.59 1.59 0 01-.41 1.09 1.85 1.85 0 01-1 .61v.07a1.75 1.75 0 011.61 1.89 2.17 2.17 0 01-.74 1.69 2.71 2.71 0 01-1.9.67 5.29 5.29 0 01-2.17-.41zm6.66.34v-.88h.06a2.19 2.19 0 001 .2c1.5 0 2.33-.89 2.48-2.66a3.56 3.56 0 01-1.8.59 2.42 2.42 0 01-1.76-.63 2.29 2.29 0 01-.65-1.72 2.52 2.52 0 01.73-1.85 2.41 2.41 0 011.8-.73 2.35 2.35 0 011.92.86 4 4 0 01.7 2.59 5 5 0 01-.92 3.21 3.22 3.22 0 01-2.65 1.14 2.77 2.77 0 01-.91-.12zm3.5-4v-.44a3.36 3.36 0 00-.44-1.87 1.46 1.46 0 00-1.27-.65 1.48 1.48 0 00-1.16.48 1.89 1.89 0 00-.42 1.31 1.77 1.77 0 00.39 1.18 1.68 1.68 0 001.31.46 3.21 3.21 0 001.59-.44zm4.64 4.13a2.12 2.12 0 01-1.91-.95 7.46 7.46 0 010-5.91 2.39 2.39 0 013.81 0 7.41 7.41 0 010 5.91 2.11 2.11 0 01-1.9.95zm0-7.05a1.29 1.29 0 00-1.21.68 8.19 8.19 0 000 4.93 1.43 1.43 0 002.42 0 8.15 8.15 0 000-4.92 1.26 1.26 0 00-1.21-.69zm13.81 3.45h-6.5v4h-.75v-8.34h8v7.45a.74.74 0 01-.24.58.93.93 0 01-.65.22h-1.36l-.1-.71h1.17a.36.36 0 00.41-.41zm-6.5-.59h2.82v-3h-2.82zm3.56 0H258v-3h-2.95zm10.55 6h-2.54v-.64h1.75v-8.53h-1.75v-.64h2.54zm71.47-20.07v-.05a3 3 0 01-1.95-2.84 2.8 2.8 0 011.22-2.33 5.26 5.26 0 013.2-.91 5.47 5.47 0 013.22.84 2.55 2.55 0 011.19 2.21 2.94 2.94 0 01-2.07 2.72v.05a3.25 3.25 0 012.38 3.11 3.17 3.17 0 01-1.3 2.62 6.56 6.56 0 01-6.9 0 3 3 0 01-1.26-2.55 3.13 3.13 0 012.27-2.87zm1.39.57a2.49 2.49 0 00-1.11 2 1.89 1.89 0 00.64 1.5 2.4 2.4 0 001.64.56 2.25 2.25 0 001.45-.46 1.49 1.49 0 00.59-1.24 1.83 1.83 0 00-.14-.73 1.28 1.28 0 00-.52-.55 6 6 0 00-.71-.4c-.2-.06-.82-.3-1.84-.68zm3-3.42a1.32 1.32 0 00-.53-1.1 2.11 2.11 0 00-1.37-.42 2.27 2.27 0 00-1.33.38 1.17 1.17 0 00-.53 1 1.33 1.33 0 00.57 1.06 7.44 7.44 0 002.28 1 2.49 2.49 0 00.89-1.92zm12.13 2.41a6.11 6.11 0 01-1.36 3.67 6.71 6.71 0 01-3.15 2l-.73-1.32q3.38-1.22 3.52-4.36h-1.61V162a14.52 14.52 0 01-1.26 1l-1-1.09a11.1 11.1 0 002.37-2.33 9.15 9.15 0 001.41-2.36l1.66.4a12.47 12.47 0 01-2.3 3.52h5.36a11.11 11.11 0 01-2.13-3.53l1.54-.47a11 11 0 001.66 2.66 13.84 13.84 0 002.3 2l-1.26 1.29-.62-.55a28.48 28.48 0 01-.15 3.18 2.85 2.85 0 01-.71 1.81 2 2 0 01-1.44.5h-2.1l-.24-1.53h1.86a.86.86 0 00.84-.52 9.81 9.81 0 00.25-3v-.52zM317 183h-2.6v-9.8h2.6v.64h-1.8v8.53h1.8zm12.72-2.07l-.51.63a8.22 8.22 0 01-2.39-2.15 11 11 0 01-1.56-2.72 7.78 7.78 0 01-1.59 2.92 7 7 0 01-2.85 1.92l-.28-.59a6.68 6.68 0 004.13-5.1h-3.88v-.66h4v-2.5h.81v2.5h4v.66h-3.93a8.72 8.72 0 001.51 2.88 7.39 7.39 0 002.54 2.21zm5.52-4.01a5.83 5.83 0 01-1.54 2.82 8.17 8.17 0 01-2.67 1.78l-.3-.57a6.57 6.57 0 003-2.41 5.65 5.65 0 001-3.07v-2.65h.81v2.72a6.39 6.39 0 00.86 2.27 6.69 6.69 0 001.74 2 8.64 8.64 0 001.7 1.07l-.48.66a9.37 9.37 0 01-2.68-2 6.37 6.37 0 01-1.44-2.62zm13.12 4.08h-4.92v-1c.52-.46 1.1-1 1.75-1.6a9.74 9.74 0 001.45-1.6 2.4 2.4 0 00.48-1.38 1.22 1.22 0 00-.4-1 1.61 1.61 0 00-1.08-.34 3.49 3.49 0 00-2 .64h-.05v-1a4.61 4.61 0 012-.47 2.57 2.57 0 011.75.55 1.85 1.85 0 01.64 1.5 2.9 2.9 0 01-.16 1 3.14 3.14 0 01-.51.9c-.23.29-.51.6-.83.93s-1.07 1-2.22 2h4zm5.64-7.49v.88h-.06a2.26 2.26 0 00-1-.2 2.23 2.23 0 00-1.73.7 3.14 3.14 0 00-.75 1.94 3.52 3.52 0 011.8-.56 2.52 2.52 0 011.74.6 2.25 2.25 0 01.66 1.74 2.51 2.51 0 01-.72 1.85 2.45 2.45 0 01-1.8.73 2.31 2.31 0 01-1.93-.89 4.09 4.09 0 01-.7-2.56 5 5 0 01.93-3.21 3.22 3.22 0 012.65-1.14 2.77 2.77 0 01.91.12zm-3.5 4v.49a3.09 3.09 0 00.46 1.83 1.6 1.6 0 002.41.17 1.89 1.89 0 00.42-1.31 1.71 1.71 0 00-.39-1.16 1.67 1.67 0 00-1.4-.53 3.13 3.13 0 00-1.52.47zm7.77 3.68a2.1 2.1 0 01-1.91-.95 7.35 7.35 0 010-5.91 2.39 2.39 0 013.81 0 7.46 7.46 0 010 5.91 2.11 2.11 0 01-1.9.95zm0-7.05a1.31 1.31 0 00-1.22.68 8.4 8.4 0 000 4.93 1.3 1.3 0 001.22.67 1.26 1.26 0 001.2-.67 5.61 5.61 0 00.38-2.47 5.79 5.79 0 00-.37-2.45 1.27 1.27 0 00-1.21-.69zm13.82 3.45h-6.52v4h-.75v-8.34h8v7.45a.75.75 0 01-.25.58.92.92 0 01-.64.22h-1.36l-.11-.71h1.17c.28 0 .42-.13.42-.41zm-6.52-.64h2.82v-3h-2.82zm3.57 0h2.95v-3h-2.95zm10.55 6.05h-2.55v-.64h1.75v-8.53h-1.75v-.64h2.55z"/></g></g></svg>