<svg xmlns="http://www.w3.org/2000/svg" width="630" height="162"><defs><style>.cls-2{fill:#fff}.cls-6{fill:#c9b100}</style></defs><g id="レイヤー_2" data-name="レイヤー 2"><g id="レイヤー_4" data-name="レイヤー 4"><path d="M630 156.86c0 2.83-4.5 5.14-10 5.14H10c-5.5 0-10-2.31-10-5.14V5.14C0 2.31 4.5 0 10 0h610c5.5 0 10 2.31 10 5.14z" fill="#e6e6e6"/><path class="cls-2" d="M625 55v100c0 1.1-2.25 2-5 2H10c-2.75 0-5-.9-5-2V55z"/><path d="M22.79 32.46h-1.8a9.77 9.77 0 00.13-1.89V23a13.44 13.44 0 00-.12-1.72h5.07c2.17 0 3.39 1 3.39 2.73a2.5 2.5 0 01-.79 2 2.3 2.3 0 01-1.1.58 2.62 2.62 0 011.41.65 2.74 2.74 0 01.87 2.14c0 2-1.3 3.07-3.63 3.07zm3.09-6.58a1.49 1.49 0 001.7-1.53 1.41 1.41 0 00-.37-1 2 2 0 00-1.34-.43H23v3zm-2.91 5h3c1.25 0 1.95-.62 1.95-1.75a1.52 1.52 0 00-.45-1.22 2.28 2.28 0 00-1.47-.48h-3zm15.7 1.58a11.61 11.61 0 00-.73-2.24c-.76-1.93-1.25-2.45-2.33-2.45h-2.08v2.85a10.45 10.45 0 00.11 1.84h-2.09a10.41 10.41 0 00.11-1.82v-7.55a11.71 11.71 0 00-.11-1.82h5.16c2.12 0 3.34 1.06 3.34 2.91a2.66 2.66 0 01-2.27 2.9c.89.28 1.15.67 2.54 3.95.11.25.46 1 .66 1.39zm-2.33-6.29a1.89 1.89 0 001.33-.5 1.67 1.67 0 00.45-1.24c0-1-.57-1.52-1.72-1.52h-2.87v3.26zm10.95 4.47a12.26 12.26 0 00.11 1.82h-2.11a12.35 12.35 0 00.11-1.82V23h-1.89a13.84 13.84 0 00-1.92.1v-1.89a13.91 13.91 0 001.9.1H49a14.78 14.78 0 002.06-.1v1.88A14.68 14.68 0 0049 23h-1.71z" fill="#3c3c3c"/><path stroke="#c9b100" stroke-linejoin="round" stroke-width="2.15" fill="none" d="M140.56 105.06h298"/><path d="M35 83.74c0-.67 5-1.21 11.11-1.21h82.24c6.15 0 11.12.54 11.12 1.21v42.64c0 .67-5 1.21-11.12 1.21H46.11c-6.14 0-11.11-.54-11.11-1.21z" stroke="#c9b100" stroke-linejoin="round" stroke-width="2.15" fill="#fff"/><path class="cls-6" d="M80.29 101.75h-.38l-.44 1.09h1v1.75h-2.15v.5h1.91v1.69h-1a4.86 4.86 0 001 .82l-.82 1.75a5.51 5.51 0 01-1.09-1v3.18h-1.86V109c-.15.22-.38.53-.71.93a4.17 4.17 0 01-.93.88l-.93-1.86a8 8 0 002-2.14h-1.78v-1.69h2.35v-.5h-2.68v-1.75h1.31l-.27-1.09h-.66V100h2.3v-1.26h1.91V100h1.92zm-3.67 0l.28 1.09h.82l.33-1.09zm4.11 4.1v-6.23l1 .22a14 14 0 003.67-1l.87 1.75a12.85 12.85 0 01-3.61.93V103h4v1.86h-1.2v6.56h-1.94v-6.56h-.88v1a8.63 8.63 0 01-.44 3 4.54 4.54 0 01-.65 1.42 6.31 6.31 0 01-1 1.32L79 110a5.78 5.78 0 001.37-2 6.18 6.18 0 00.36-2.15zm19.27-.71a5.37 5.37 0 01-1-.6v.77h-5.48v-.77a4.52 4.52 0 01-.87.77l-1-1.59a4.14 4.14 0 001.75-1.26H92v.6h-1a15.35 15.35 0 001.26 2l-.65 1.94-.6-.88v5.42h-1.92v-3.83l-.6 1.2-.82-2.19a12.81 12.81 0 001.33-3.66h-1.2v-1.64h1.25v-2.57H91v2.57h.87v-.54h2.57l.17-.33h-1.7l-.87-1.47a38.46 38.46 0 007-.55l1.1 1.53a31.05 31.05 0 01-3.39.38l-.22.39h3.94v1.58h-1.53a3.72 3.72 0 001.86 1zm-2.3 6.29l-.38-1h-1.39v.33h-1.42v-3.23H98v2a.27.27 0 00.32-.11.37.37 0 00.06-.33v-1.91h-4.25v4.26h-2v-5.8h8.09v4.22a1.38 1.38 0 01-1.53 1.58zm-1.09-9h-1a2 2 0 01-.38.44H97zm-1.21 1.81H97v-.33h-1.62zm1.21 4.92v-.6h-.66v.6z"/><path d="M438.82 83.74c0-.67 7.44-1.21 16.62-1.21h122.93c9.19 0 16.63.54 16.63 1.21v42.64c0 .67-7.44 1.21-16.63 1.21H455.44c-9.18 0-16.62-.54-16.62-1.21z" fill="#004da0" stroke="#004da0" stroke-miterlimit="10" stroke-width="1.08"/><path class="cls-2" d="M475.1 113V97.82h14.61V113h-2.35v-.81h-9.9v.81zm2.36-3h9.9v-10h-9.9zm8.35-2.69h1.08v2h-9v-2h3.37v-1.69h-2.66v-1.95h2.63v-1.07h-3.3v-1.88h9v1.88h-3.3v1.08h2.62v1.95h-.6l.94 1.21zm-2.22 0h1.07l-.87-1.28.87-.41h-1.07zm14.87-10.16l2.09.34-.2.54h2.83v.4a4.43 4.43 0 00.54 1.35V98h2.76l.8 1.28a9 9 0 01-1.68 3.3 6.26 6.26 0 002 1.34l-1.19 2.08a6.13 6.13 0 01-1.82-1.35v1.15h-5.32v-.88a6.38 6.38 0 01-1.61 1.08l-1.08-1.62a4.07 4.07 0 01.4 2h10v2.08h-4v.94l2-.8a4.2 4.2 0 001 1.34 5.65 5.65 0 001.61 1.28l-1.68 1.68a8.59 8.59 0 01-2.9-3.43v2.09c0 .94-.49 1.41-1.48 1.41h-1.81l-.68-2a5.73 5.73 0 01-1.82 1.82l-1.68-1.55a5.79 5.79 0 002.56-2.62l1.88.87a3.56 3.56 0 01-.74 1.28h.76c.41 0 .61-.16.61-.6v-1.69h-3.77v-.74a2.18 2.18 0 01-2 1.89l-.88-1.69v5h-2V97.76h3.71l.13-.14 1.41 1.55-.33 1a5.3 5.3 0 001.58-3.02zm-4.46 5.79a10.73 10.73 0 001-3h-1zm0 .61v3.7a1 1 0 00.95-1 2.92 2.92 0 00-.14-1.15 3.9 3.9 0 00-.81-1.55zm4-.34l-.54-.47-.34.27-.67-1.08-.41 1.21.47.88a5 5 0 00.81-.34 2 2 0 00.61-.47zm.33-1.55l.74.61.41-.41-.81-.67zm1.21-1.55l.74.61.34-.61zm2.7 1.21a7.47 7.47 0 01-1.69 2.43h3.24a7.2 7.2 0 01-1.62-2.43zm1.61-1.41a2.38 2.38 0 00.47.94 1.47 1.47 0 00.54-.94zm6.15-2.02h13.53v4.58h-2.49v.53h2.7v2h-2.7v.47h3.37v2h-1.89l1.08 1.08-1.6 1.19a7.67 7.67 0 002.82 1l-.82 2.36a10.45 10.45 0 01-4.31-1.95 10.1 10.1 0 01-3-3.7h-.54v2.89l1.68-.4.61 2.09a19 19 0 01-3 .67c-1.21.18-2.22.29-3 .34l-.4-2.22 1.82-.14v-3.23h-1.46l-.14 1.08a9.85 9.85 0 01-.6 2.42 6.75 6.75 0 01-1.08 2l-1.75-2.36a6.93 6.93 0 001.21-4.37zm2.36 2.69h8.82v-.8h-8.78zm0 4.92H515v-.5h-2.4v-2h2.4v-.54h-2.6zm5-2.49h1.41v-.54h-1.41zm0 2.49h1.41v-.5h-1.41zm2 2a2.13 2.13 0 00.74.94l1.35-.94zm12.22 5.5l-.8-2.42h1.81c.45 0 .65-.18.61-.68v-5.52h-6.8v-2.18h15.35v2.15h-6.26v6.8c0 1.21-.54 1.82-1.62 1.82zm-2-8l2.23 1a15.8 15.8 0 01-1.28 3.23 10.21 10.21 0 01-2 2.69l-2.09-1.68a11 11 0 003.12-5.24zm-1.36-5v-2.18h11.64V100zm8.14 6l2.23-1a14.16 14.16 0 001.21 2.43 15.19 15.19 0 002 2.69l-2.16 1.68a12.87 12.87 0 01-1.95-2.89 20.05 20.05 0 01-1.33-2.91zm11.72-2.12h11.1v1.82h-6.66l-.67.61h6.93l-.27 4.17a2.84 2.84 0 01-.4 1.68 1.84 1.84 0 01-1.62.67h-2l-.81-1.61a10 10 0 01-3.77 2l-1.48-1.55a11.24 11.24 0 003.43-1.61 5.66 5.66 0 001.89-1.82h-.61a7.93 7.93 0 01-2.22 2 12.74 12.74 0 01-3.7 1.55l-1.3-1.79a10.28 10.28 0 002.49-.61 5.12 5.12 0 002-1.14h-1a5.79 5.79 0 01-1.68.94l-.47-.61a20.9 20.9 0 01-3.23 1.28l-.74-2.29 1.68-.53v-3.84h-1.41v-2.09H545v-3.7h2.36v3.7h1.07v2.09h-1.07v3l.6-.34.41 1a3.27 3.27 0 00.67-.41 4.16 4.16 0 00.74-.67h-1.68zm1.14-.4v-5.86H558v5.86zm2.36-3.57h4.1v-.54h-4.1zm0 1.82h4.1v-.54h-4.1zm2.69 9h1.08c.49 0 .76-.31.81-.94l.13-1.48h-.2a7.22 7.22 0 01-1.82 2.37zM190.08 91.98h198.95v23.16H190.08z"/><path class="cls-6" d="M196.34 109.66h-1.65v-1.85h-2.15v-1.25h2.15v-.75H193V101h1.75v-.74h-2V99.1h2v-.88h1.63v.88h2.06v1.17h-2.06v.73h1.76v.67a10.16 10.16 0 001.45-1.64 6.89 6.89 0 001-1.89h1.73a5.84 5.84 0 00.59 1c.28.4.55.77.82 1.1a12.55 12.55 0 001.45 1.4l-1 1.15-.3-.24v.72h-1.4v1.54h2.37v1.41h-2.37v3.31h-1.78v-3.31h-2.17v-1.41h2.17v-1.51h-1.5v-.73l-.47.39-.63-.82v3.67h-1.76v.75h2v1.25h-2zm.21-6.72v-.83h-2.07v.83zm0 1.7v-.85h-2.07v.85zm3.34-2.71h3.19a9.35 9.35 0 01-1.61-2.21 7.42 7.42 0 01-1.58 2.21zm7.22 3.29a14.69 14.69 0 01-.71 3.7l-1.07-.27a18.37 18.37 0 00.55-3.52zm1.68 4.46h-1.46v-5c-.72.06-1.3.11-1.74.13l-.15-1.24h.89l.7-1a56.43 56.43 0 00-1.64-1.89l.84-1 .2.21a12.66 12.66 0 001-1.84l1.28.52a15.3 15.3 0 01-1.43 2.24l.51.61a15 15 0 001.16-2.08l1.29.61a30.22 30.22 0 01-2.37 3.52l1.19-.09a7.51 7.51 0 00-.3-.89l1.12-.33c.16.47.4 1.19.69 2.18h2.38l.24.26a6.77 6.77 0 01-.87 2.65 6 6 0 01-2.1 2.2l-.86-1a5.39 5.39 0 002.16-2.92h-1.08v-.93l-1 .26a4.08 4.08 0 00-.1-.44l-.56.08zm1.68-2.3l-1.12.22c-.19-1.15-.3-1.94-.33-2.36l1.07-.18c.04.45.16 1.22.38 2.32zm4.31 1.11a1 1 0 01-.37.76 1.31 1.31 0 01-.84.3H212l-.14-1.46h1c.22 0 .33-.09.33-.29v-4h-2.46v-4.64h2.12l.37-1.09 1.68.28-.4.81h2.61v4.64h-2.32a7.43 7.43 0 00.53 1.32 10.06 10.06 0 001.5-1.27l1.12 1a11.19 11.19 0 01-1.92 1.39 10.67 10.67 0 002 1.94l-1.02 1.23a9 9 0 01-2.18-2.6zm-2.42-7.49h3.1v-.73h-3.1zm3.1.86h-3.1v.75h3.1zm6.68.59a10.93 10.93 0 01-.78 4.64 6 6 0 01-2.43 2.65l-.85-1.54a4.29 4.29 0 001.7-2 10.29 10.29 0 00.6-4v-3h1.76zm6.75 2a10.9 10.9 0 01-2 3.2 6.4 6.4 0 01-2.89 1.85l-.63-.62V98.8h1.76v8.2a8.11 8.11 0 002.49-3.64zm10.35.55H230v-1.68h9.28zm10.64-.19l-.95 1.5a18.59 18.59 0 00-4.33-2.82v6.16h-1.85V98.26h1.86v3.37a25.51 25.51 0 015.27 3.18zm6.63.39a19.13 19.13 0 01-.31 2 9.58 9.58 0 01-.47 1.69l-1.18-.27a19.64 19.64 0 00.62-3.53zm1.88 4.46h-1.61v-4.94c-.85.08-1.51.13-2 .14l-.14-1.3h1c.22-.26.48-.61.8-1a45.31 45.31 0 00-1.83-1.91l.94-1 .23.22a12.83 12.83 0 001.07-1.87l1.43.52a18 18 0 01-1.57 2.27l.58.6a13.24 13.24 0 001.25-2l1.4.61a40.59 40.59 0 01-2.61 3.53l1.35-.1c-.17-.5-.29-.81-.34-.94l1.21-.36c.23.6.51 1.42.85 2.48l-1.29.31a3.63 3.63 0 00-.09-.41l-.63.09zm1.92-1.77l-1.29.18a25 25 0 01-.44-2.78l1.28-.13zm1.87 1.62L262 108h1.62a.7.7 0 00.72-.55 7.52 7.52 0 00.19-2v-4.52h-2.58a11 11 0 01-.9 1.94l-1.33-.6a23.18 23.18 0 00.84-2.28A16.19 16.19 0 00261 98l1.7.17a11.36 11.36 0 01-.31 1.43h3.8v6.46a7.55 7.55 0 01-.27 2.16 1.88 1.88 0 01-.63.79 2 2 0 01-.83.37c-.23.1-.96.12-2.28.13zm1.31-3.69l-1.59.56a28.76 28.76 0 00-1.27-3.35l1.44-.56a23.1 23.1 0 011.42 3.35zm18.28 4.74h-8.07v-1.85h2.72v-7.34h-2.72v-1.7a4.44 4.44 0 002.28-.45 1.75 1.75 0 00.78-1.36h2.35v10.85h2.66zM294 100.14l-5.75 10.42h-3l6-10.62h-6.82v-2.06H294zm10.19 3.47a6.35 6.35 0 01-1.46 3.88 7.21 7.21 0 01-3.39 2.12l-.79-1.4c2.42-.85 3.69-2.38 3.79-4.6h-1.73v-.55a13.47 13.47 0 01-1.36 1.06l-1.07-1.12a11.36 11.36 0 002.56-2.45 9.7 9.7 0 001.51-2.55l1.79.42a13 13 0 01-2.47 3.71h5.76a11.45 11.45 0 01-2.28-3.72l1.65-.5a11.91 11.91 0 001.78 2.81 14.32 14.32 0 002.52 2.18l-1.36 1.37-.67-.58a28.62 28.62 0 01-.17 3.35 3 3 0 01-.8 1.96 2.25 2.25 0 01-1.54.53h-2.26l-.26-1.62h2a.94.94 0 00.9-.55 10.29 10.29 0 00.27-3.16v-.55zm14 6.6h-2.74V99.84h2.74v.68h-1.88v9h1.88zm13.74-2.21l-.54.67a8.9 8.9 0 01-2.57-2.27 11.59 11.59 0 01-1.68-2.88 7.89 7.89 0 01-1.72 3.08 7.38 7.38 0 01-3.06 2l-.3-.62a6.7 6.7 0 003-2.15 6.5 6.5 0 001.47-3.24h-4.18v-.69h4.33v-2.61h.88v2.65h4.33v.69h-4.24a9.21 9.21 0 001.63 3.05 8.1 8.1 0 002.65 2.32zm5.95-4.22a6 6 0 01-1.66 3 8.61 8.61 0 01-2.87 1.88L333 108a7 7 0 003.22-2.56 5.87 5.87 0 001.07-3.24v-2.75h.87v2.87a6.75 6.75 0 00.93 2.39 6.91 6.91 0 001.87 2.08 8.88 8.88 0 001.83 1.12l-.51.7a9.93 9.93 0 01-2.89-2.14 6.6 6.6 0 01-1.51-2.69zm10.12.14v-.07a2 2 0 01-1.26-1.77 1.82 1.82 0 01.72-1.48 2.87 2.87 0 011.85-.59 2.93 2.93 0 011.87.56 1.73 1.73 0 01.7 1.44 1.84 1.84 0 01-.35 1.09 2.25 2.25 0 01-1 .79v.11a2.1 2.1 0 01.74 3.66 3 3 0 01-2 .68 3 3 0 01-2-.65 2.11 2.11 0 01-.76-1.7 2.14 2.14 0 011.49-2.07zm.64.19a1.93 1.93 0 00-1.11 1.76 1.65 1.65 0 00.5 1.24 1.84 1.84 0 001.29.47 1.91 1.91 0 001.28-.41 1.43 1.43 0 00.4-1.17 1.31 1.31 0 00-.21-.78 1.81 1.81 0 00-.63-.51c-.24-.1-.77-.32-1.55-.6zm2.27-2.09a1.16 1.16 0 00-.44-.93 1.77 1.77 0 00-1.16-.37 1.84 1.84 0 00-1.14.34 1.1 1.1 0 00-.44.9 1.2 1.2 0 00.55 1 6 6 0 001.66.74 1.91 1.91 0 00.94-1.7zm7.96 3.82h-1.16v2.28h-.94v-2.28H353v-1.11l3.86-4.54h.9v4.87h1.16zm-2.1-.78v-3.71l-3.16 3.71zm5.9 3.22a2.28 2.28 0 01-2.06-1 7.7 7.7 0 010-6.24 2.29 2.29 0 012.06-1 2.27 2.27 0 012 1 7.76 7.76 0 010 6.24 2.27 2.27 0 01-2 1zm0-7.44a1.4 1.4 0 00-1.31.71 5.85 5.85 0 00-.4 2.61 5.77 5.77 0 00.4 2.6 1.39 1.39 0 001.31.72 1.38 1.38 0 001.3-.72 8.62 8.62 0 000-5.19 1.37 1.37 0 00-1.3-.73zm14.87 3.64h-7v4.28h-.81v-8.82h8.65v7.87a.76.76 0 01-.27.61 1 1 0 01-.69.24H376l-.11-.75h1.26a.39.39 0 00.44-.44zm-7-.67h3v-3.21h-3zm3.84 0h3.17v-3.21h-3.17zm11.34 6.4H383v-.68h1.89v-9H383v-.68h2.74z"/></g></g></svg>