<svg xmlns="http://www.w3.org/2000/svg" width="292.31" height="30"><path d="M21.63 25.12V6.21h10.18c3.7 0 5.95 2 5.95 4.84A3.91 3.91 0 0134.91 15a4.75 4.75 0 011.82.86 4.62 4.62 0 011.8 3.82c0 3.24-2.54 5.47-6.22 5.47zm4.32-11h4.9a2.2 2.2 0 002.3-2.4 2.05 2.05 0 00-2.3-2.18H26zm0 7.75h4.87c1.54 0 3.08-.69 3.08-2.61 0-2.12-1.88-2.45-3.08-2.45H26zm31.95.39c0 2.07.38 2.28.74 2.48v.38h-4.56a5.94 5.94 0 01-.48-2.42v-1.95c0-2.83-2.42-2.83-3.1-2.83h-5v7.2h-4.31V6.21h10.2c4.83 0 6.7 2.47 6.7 5.13a5.3 5.3 0 01-1.22 3.34 5.59 5.59 0 01-2.6 1.54 3.86 3.86 0 012 .62 3.92 3.92 0 011.63 3.36zM45.51 14.7h5.4a2.68 2.68 0 002.88-2.59A2.54 2.54 0 0051 9.59h-5.49zM70.4 25.12h-4.34V9.73h-6.39V6.21h17.11v3.52H70.4zM92.26 16a2.93 2.93 0 11-2.92-2.93A2.94 2.94 0 0192.26 16zm19.56-7.42c.22.05.48.12.48.36s-.33.36-.5.36c-1.92 8.72-4.2 12.36-6.72 15.34a18.91 18.91 0 00-3.62-1.7 27.74 27.74 0 006.43-15.32zm5.74-1.49a42.29 42.29 0 017.06 14.69 25.57 25.57 0 00-3.77 2.09 35 35 0 00-6.41-14.54zm2.9-.81a16.41 16.41 0 012.4 2.72c-.6.48-1.17 1-1.77 1.54a22.68 22.68 0 00-2.4-2.84zm2.4-1.73a16.11 16.11 0 012.41 2.66 12.69 12.69 0 00-1.71 1.42 20.55 20.55 0 00-2.35-2.71zm6.14 5.69v-3.6h12.26a6.83 6.83 0 001.66-.19l1.87 2a7.42 7.42 0 00-.91 1.53 41.44 41.44 0 01-3 5.88 63.52 63.52 0 017.2 6.58c-.79.91-2.09 2.35-2.88 3.26a32.94 32.94 0 00-6.46-6.84 27.82 27.82 0 01-9.21 7.18 10.81 10.81 0 00-2.74-3.29 20.11 20.11 0 007.8-4.8 19 19 0 004.8-7.75zm42.85-.89c-5.93-.1-11.07 5.23-11.07 9.12 0 2.79 3.53 4.15 6.8 4.23a30.61 30.61 0 00-1.8 4.36c-1.95-.52-8.84-2.44-8.84-8.18 0-4.44 3.44-7.63 4.42-8.26a67.56 67.56 0 00-9.94 1.51l-.55-4.51a78.07 78.07 0 0010.68-.55 57.45 57.45 0 009.63-1.75zm-4 3.41a14.59 14.59 0 012.24 2.57c-.68.48-1 .74-1.85 1.44a19.49 19.49 0 00-2.14-2.72zm2.52-1.71a15.1 15.1 0 012.14 2.53 22.44 22.44 0 00-1.75 1.48 17.52 17.52 0 00-2.14-2.71zm11.73 6.77c-.68.58-1.88 1.83-1.88 2.62 0 1.73 3.29 1.73 4.3 1.73a33.71 33.71 0 009.62-1.44 18.87 18.87 0 00.63 4.08 36.45 36.45 0 01-9.39 1.1c-3.74 0-5.23-.41-6.4-.89-.77-.31-3-1.44-3-3.86s2.49-4.73 3.48-5.62zm10.08-7.89a16.58 16.58 0 00-6.05 3.91c-.87-.75-1.78-1.51-2.52-2.06.89-.82 1.1-1 1.8-1.57-1.49.12-5.52.34-7.56.29l-.2-4a48.51 48.51 0 006 .32 45.41 45.41 0 006.7-.56zm1-3.75a17.3 17.3 0 012.19 2.52 9.54 9.54 0 00-1.37 1.73 26.08 26.08 0 00-2.3-2.66zm1.85-2a26.23 26.23 0 012.26 2.35 9.65 9.65 0 00-1.54 1.64 20.29 20.29 0 00-2.09-2.36zm16.03 22.76h-3.45v-6.4a23.78 23.78 0 01-7 6.12 8.22 8.22 0 00-3.07-2.38 20.67 20.67 0 007.71-6.14h-6.92V15h4.49a19.19 19.19 0 00-1.92-3.56l1.73-1h-3.17V7.38h8.19V4.93l3.6.22c.29 0 .53 0 .53.36s-.48.41-.68.46v1.41h8.14v3.12h-3.12l1.46.63c.17.07.24.16.24.29 0 .31-.28.36-.48.4a21 21 0 01-1.51 3.2h4.54v3.12h-7.17a18.72 18.72 0 007.46 5.8 11.32 11.32 0 00-2.54 2.6 18.83 18.83 0 01-7.06-6.15zM207.61 15v-4.5h-3.1a13.26 13.26 0 012 3.7 12.36 12.36 0 00-1.82.82zm3.45-4.52V15h2.79a16.09 16.09 0 00-1.66-.87A18.52 18.52 0 00214 10.5zm21.56 9.77a16.42 16.42 0 01-2.84 2.9 6.09 6.09 0 00-2.25-1.61c.43-.33.79-.6 1.34-1.08-1.49.65-3.31 1.35-5.26 2 0 .28-.09.62-.36.62s-.33-.31-.38-.55l-.81-3.39a18.18 18.18 0 002.71-.5v-5.45h-2.48v-3.12h2.48v-5l3.55.19c.29 0 .5.05.5.26s-.14.29-.5.46v4.08h2.14v3.12h-2.14v4.37c.58-.24.94-.38 1.51-.65h-.17v-2.41h14.55v2.42h-9.29l-.46.77H244c0 2.42-.07 7.22-1.63 8.45-.91.72-2.45.79-4 .79a7.31 7.31 0 00-.65-2.59 19 19 0 01-2.86 3 6 6 0 00-2.54-1.54 16.65 16.65 0 005.06-5.54h-1.08a16.76 16.76 0 01-6.31 6.36 6.23 6.23 0 00-1.99-1.92 14.8 14.8 0 005.59-4.44zm-2.19-3.34a11.15 11.15 0 00-.17 2.14 15.16 15.16 0 001.47-2.14zm12.1-3.21h-11.21V5.25h11.21zm-3.24-5.14v-.82h-4.73v.82zm-4.73 1.92v.81h4.73v-.81zm5.66 9.77a24.8 24.8 0 01-1.89 3.33 7.89 7.89 0 00.84.05c.48 0 .91-.05 1.08-.6a12.51 12.51 0 00.43-2.78zm17.43 2.57a7.67 7.67 0 006.74-7.49 5.68 5.68 0 00-5.54-5.88c-.75 8.78-4.37 15.33-6.91 15.33-1.88 0-5.36-3.16-5.36-7.6A11.78 11.78 0 01258.34 6c5.26 0 9.85 3.58 9.85 9.31a11.18 11.18 0 01-2.84 7.42 13.33 13.33 0 01-5.21 3.48 15.64 15.64 0 00-2.49-3.39zm-7.51-5.93c0 1.85 1 3.24 1.53 3.24s1-1.08 1.3-1.71a21.08 21.08 0 001.85-8.25c-2.82 1.03-4.68 4.56-4.68 6.72zm42.17-8.69v3.43H282c0 .89-.1 1.51-.14 2h7.58c0 8.12-.46 10.32-2.16 12C286 26.87 283.4 27 282.51 27a6.11 6.11 0 00-1.77-3.77c.64.1 2.28.36 2.52.36a1.78 1.78 0 001.92-1.39 16.72 16.72 0 00.67-5.23h-4.68A16.23 16.23 0 01272.53 27a6.49 6.49 0 00-3-2.6c4.28-1.34 8.74-4.82 8.74-12.79h-7.94V8.2h9V4.89l3.84.21c.15 0 .43.07.43.34s-.26.36-.43.43V8.2zM0 0h10v30H0z" fill="#ff9600" data-name="レイヤー 2"/></svg>