<svg xmlns="http://www.w3.org/2000/svg" viewBox="0 0 630 53.84"><g data-name="レイヤー 2"><path d="M0 48.84h630v5H0zM34.12 3.1v4.71h-8.49A34.92 34.92 0 0035 15.66a13.39 13.39 0 00-3.24 4c-3.82-2.13-9-7.24-11.09-9.65l3-2.16H11.23l3.31 2.05c.4.25.58.36.58.65 0 .47-.61.43-.9.36a43 43 0 01-9.32 9 14.89 14.89 0 00-4-3.21c6.16-4.43 8.24-7.56 9.1-8.89H1.87V3.1h13.21V0l5.76.25c.43 0 .69 0 .69.36s-.26.47-.69.65V3.1zM14.69 13.71a22.68 22.68 0 003.38 6.16 20.32 20.32 0 003.31-6l4.86 2.16c.18.08.54.26.54.65s-.76.43-1 .43a25.91 25.91 0 01-4.18 6.37A27.17 27.17 0 0034.92 29a13.37 13.37 0 00-3.6 4.65A34.14 34.14 0 0117.89 27a35.51 35.51 0 01-13.14 6.66C4 31.5 1.4 29.34 1.26 29.19a31.39 31.39 0 0013.1-5.76 33.9 33.9 0 01-4.21-7.3zm35.2.18v10.37a4.1 4.1 0 001 2.81c1.12 1.26 2.45 1.26 6 1.26 10.55 0 12.35 0 17.64-.69a10.36 10.36 0 00-1.53 4.9H55.87c-3.78 0-6.44-.58-8.31-3.2-1 .9-2.56 2.23-3.86 3.2a1.93 1.93 0 01.08.54c0 .25 0 .61-.44.61s-.39-.21-.57-.54l-2.63-4.86a23.61 23.61 0 004.43-2.37v-7.27h-3.1v-4.76zM44.1.29a29.44 29.44 0 016.15 5.07c-.64.65-1.15 1.08-3.74 3.93A38.21 38.21 0 0041 4zm15.48 21.92h-2.92v5.15h-4.82V8.78h4.93A29.15 29.15 0 0054 6.88L55.83 5h-4V.86H69l1.8 1.88a27.17 27.17 0 01-5.83 6h7.16v14.98c0 3.46-3.31 3.71-5.87 3.82a10.6 10.6 0 00-1.4-4.36c.93.11 1.65.14 1.8.14.65 0 .68-.07.68-1.11h-3.23v4.53h-4.53zm0-9.68h-2.92v1.58h2.92zm0 4.82h-2.92v1.58h2.92zM58 5c1.58 1.33 1.76 1.51 2.59 2.23A13.22 13.22 0 0063 5zm6.15 9.14h3.24v-1.61h-3.28zm0 4.82h3.24v-1.61h-3.28zm44.49-16.19a6 6 0 002-.32l4 3.67c-.36.5-.47.68-1.3 1.87a82.23 82.23 0 01-9.68 11.88 18.14 18.14 0 00-4.14-4 38.56 38.56 0 006.73-7.7H82.19v-5.4zm-8.71 6.84c.26 0 .65 0 .65.43s-.47.54-.65.61a35.3 35.3 0 01-1.87 10.77 22.57 22.57 0 01-9 10.65 30.16 30.16 0 00-5-3.81c5-2.88 10.47-6.81 9.82-19zM146 5.83a6 6 0 002.55-.54l3 2.56c-.65 1.08-2.84 6-3.67 7.84-5.55 12.46-13.54 16.45-16.7 18a19.53 19.53 0 00-4.65-4.11 33 33 0 0011.7-8.53A34 34 0 00143.56 11h-9a49.79 49.79 0 01-8.1 9.22 19.89 19.89 0 00-4.39-3.89c8.74-7.41 11-13.75 11.8-15.91l5.2 2.58c.14.07.46.25.46.54s-.5.47-.86.51c-.58 1.11-.68 1.4-.94 1.83zm23.63-4.57l5.87.29c.36 0 .72 0 .72.39s-.43.54-.72.62v7.91l11.12-1.29a10 10 0 002.59-.69l3.79 3.42c-.47.54-1.3 1.59-1.62 2-1.12 1.44-5.76 8.17-6.77 9.47a40.82 40.82 0 00-4.9-2.95A32.72 32.72 0 00184 15l-8.49 1v7.78c0 2.19.68 2.73 3.56 2.73a104.35 104.35 0 0011.66-.64 30.14 30.14 0 00-.68 5.83c-2.74.07-9.86.11-12.38.11-7 0-8-2.78-8-7.35v-7.69l-7.81.94-.5-5.54 8.31-1zm33.88 6.95v-5.4h18.39a9.7 9.7 0 002.48-.29l2.81 3.06a10.79 10.79 0 00-1.37 2.3 61.36 61.36 0 01-4.57 8.82c1.51 1.15 8.1 6.62 10.8 9.86-1.19 1.37-3.13 3.53-4.32 4.9a49 49 0 00-9.68-10.26c-3.46 4.14-9.11 8.8-13.82 10.8a16.26 16.26 0 00-4.11-5 30.14 30.14 0 0011.7-7.2c4.11-4 5.58-7.48 7.2-11.62z" fill="#ffa000" data-name="object"/></g></svg>