<svg xmlns="http://www.w3.org/2000/svg" viewBox="0 0 527.95 40"><g data-name="レイヤー 2"><path d="M0 0h10v40H0zm29.79 26l2.41-.32a25.9 25.9 0 01.5 5.79c-.5.11-2.34.44-2.7.54v-1.83c0-1.41-.11-2.63-.18-3.67a.65.65 0 01-.5.21 34.63 34.63 0 01-.72 6.41 20.32 20.32 0 00-3-.14 33.48 33.48 0 001.05-7.28l2.73.33c.18 0 .33 0 .43.14zm10.94-16v3.45h-2.81v1.62h2.81v3.46h-2.81v1.65h3.67c0 2.34 0 10.66-2.66 14-1.58 1.94-4.64 2.12-5.69 2.09-.21-1.62-.61-2.34-2-4 .47 0 .94.11 1.59.11 2.91 0 3.45-1.05 4.14-3.57-.22.08-.72.22-.9.29a22.13 22.13 0 00-1-3.81l1.58-.36c.4 1.29.58 1.83.65 2.16a16.06 16.06 0 00.18-2.56h-5.64v.58H27V4.16h14.92v4.22h-4V10zm-6.84 0V8.38h-2.05V10zm-2.05 3.45v1.62h2.05v-1.62zm0 5.08v1.65h2.05v-1.65zm2.73 6.91c.22 1 .72 3 .87 4.06-.29.11-1.58.51-1.84.62a22.42 22.42 0 00-.79-4.4zM48 20.36C47.68 30.62 44.73 35 43.57 36.7a11.5 11.5 0 00-4.14-2.44c1-1.12 3.82-4.36 3.82-17V4.16h15.8v16.2h-6.26a25.3 25.3 0 007.13 12.74 12.45 12.45 0 00-3.78 3.32c-2.06-1.73-6.3-7.74-7.64-16.06zm.29-11.55v7h5.61v-7zm31.54-3.46c.39.11.72.22.72.54 0 .51-.76.58-1 .58-.54 2.45-.75 3.38-1 4.32 3.09 0 8.24.1 8.24 8.82 0 5.93-1.87 11-3.6 13.31a6.17 6.17 0 01-5.33 2.52 19.47 19.47 0 01-3.81-.39 12.82 12.82 0 00.1-1.33 26.71 26.71 0 00-.54-4.83 6 6 0 003.14.79 2.72 2.72 0 002.14-.68c1.22-1.08 2.38-5.11 2.38-9.57 0-3.71-2.6-3.5-4.14-3.39-2.85 9.76-6.23 15.23-9.15 19a25.26 25.26 0 00-5.29-2.85 42.86 42.86 0 008.57-15.08A37.47 37.47 0 0065.54 19l-2-5.8c1.47-.29 7.88-1.62 9.21-1.83a55.67 55.67 0 001.12-7.89zm9.71 1.87C93.5 11.65 96 17.66 96 20.5c0 1.88-.61 2.88-2.55 3.82a14.38 14.38 0 01-3.6 1.12 29.27 29.27 0 00-2.09-4.83c1-.21 2.3-.5 2.3-1.65A14.26 14.26 0 0088.21 14a25.65 25.65 0 00-3.06-4zm22.58 4.36c.25.07.54.14.54.47s-.43.46-.83.5a24.29 24.29 0 00-2.38 6.23A19.92 19.92 0 01120 15.43c6.19 0 9.21 4.57 9.21 8.86 0 6.87-6.48 11.59-18.39 11.59-1.05 0-2 0-2.63-.08a20.56 20.56 0 00-1.69-6 20.58 20.58 0 005.32.54c8.18 0 11.41-3.06 11.41-6.09 0-1-.5-3.67-4.21-3.67-5.14 0-8.89 3.31-11.48 5.9l-5.15-1.87a86.59 86.59 0 013.78-14.9zm-2-8.42a35.79 35.79 0 0112.09 4 47.84 47.84 0 00-3.21 5.25A32 32 0 00108.27 8zm54.09 10.29c.21.18.43.36.43.54a.55.55 0 01-.54.43 4 4 0 01-.72-.11 59.4 59.4 0 01-18.68 6.81v5.72c0 2.66.86 2.66 7 2.66a95.35 95.35 0 0013.3-.72 24.61 24.61 0 00-.76 5.76c-1.29.08-3.13.18-6.4.18-14.44 0-15.12-.39-16.67-1.26-2.09-1.15-2.37-3.24-2.37-6V4.2l5.9.36c.43 0 .72 0 .72.36s-.36.58-.72.79V15.9c3.92-.83 10.29-2.88 14.76-6.41zm-2.7-8.35a34.73 34.73 0 013.67 3.53c-.22.18-1.58 1.37-2.34 2-.5-.47-2.27-2.23-3.85-3.46zm3.35-2.81a29.2 29.2 0 013.63 3.53c-.65.54-1.76 1.58-2.41 2.19a42.09 42.09 0 00-3.74-3.59zm13.97 10.04a58.85 58.85 0 013.31 6.59 23.63 23.63 0 00-4.57 2.23 74.25 74.25 0 00-3.39-6.87zm20.37.58c.4.11.68.22.68.54s-.5.4-.68.4c-3 12.78-8.82 17.81-17.17 21.41a14.48 14.48 0 00-3.42-4.06c9.22-3.57 13.82-8.46 15.37-19.91zm-13-2.23a26.21 26.21 0 013 6.77 35.92 35.92 0 00-4.53 1.87 56.42 56.42 0 00-3.14-6.73zM232.18 9a6.13 6.13 0 002.55-.54l3 2.55c-.65 1.08-2.84 6-3.67 7.85-5.55 12.45-13.54 16.45-16.7 18a19.35 19.35 0 00-4.65-4.1 33 33 0 0011.7-8.53 34.12 34.12 0 005.36-10.08h-9a49.41 49.41 0 01-8.1 9.21 19.81 19.81 0 00-4.39-3.88c8.74-7.42 11-13.75 11.8-15.91l5.19 2.52c.14.07.46.25.46.54s-.5.47-.86.5c-.58 1.12-.68 1.4-.94 1.84zM231 2.47a29.21 29.21 0 013.53 3.46 31.92 31.92 0 00-3 2 30.2 30.2 0 00-3.42-3.45zm5.73-.39a33.66 33.66 0 013.53 3.7c-.47.33-2.6 1.69-3 2A19.29 19.29 0 00234 4zm25.4 1.98l6.08.32c.29 0 .54.11.54.36a.74.74 0 01-.54.65v5.86h6.27v5.62h-6.3c-.18 5.43-.8 7.2-1.12 8.13a19.52 19.52 0 01-10.62 11.31 17.05 17.05 0 00-4.44-4.47c6.3-2.23 8.39-6.48 8.82-7.41 1.05-2.34 1.16-4.64 1.3-7.56h-6.22v8h-5.83v-8h-6.84v-5.62h6.84v-7l5.65.33c.33 0 .76 0 .76.43 0 .25-.29.39-.58.57v5.65h6.23zm36.76 31.67h-6.2V19.35a63.77 63.77 0 01-10 5.11 17.62 17.62 0 00-4.32-5.14c13.72-3.89 22.32-13.68 24.52-16.49l4.78 3.78a.83.83 0 01.44.68c0 .33-.29.47-.58.47a2.43 2.43 0 01-.72-.1 72.37 72.37 0 01-7.92 7.34zm33.55-22.35c5.32 2.7 9.9 5.79 12.56 8.46-1.62 2.34-1.8 2.59-3.38 5a52.9 52.9 0 00-11.23-8v16.93h-6.09V4l6.09.29c.25 0 .68 0 .68.4s-.4.5-.68.57v11zm38.16-8.82c.32.07.65.11.65.47s-.4.47-.65.5c-.15 1.4-.15 1.73-.18 2.13 1.65 0 7.23-.11 9.93.21v5.36a88.09 88.09 0 00-10.11-.32v4a47.26 47.26 0 009.14-1.69v5.36a67.79 67.79 0 01-9 1.19c0 1.55 0 1.69.07 3.2 4.5.61 10.69 3.75 12 4.75a57.65 57.65 0 00-4 4.5 29 29 0 00-7.7-4.53c.07 1.87.32 6.12-7.56 6.12-5.58 0-9.65-2.56-9.65-5.83 0-4.11 5.15-5.87 11.16-5.76v-2.13c-3.56.08-10.07.18-10.07-3.38 0-1.26.64-2.41 2.51-4.36l4 .9c-.64.87-.75 1-.75 1.23s0 1 4.21.83v-4.14c-4.42.18-8.31.68-11.3 1.08V8.52c1.77-.18 9.65-.54 11.27-.65 0-1.37 0-2.77-.15-4.43zm-7.45 23.76c-.18 0-3.64 0-3.64 1.47 0 1.19 2 1.3 2.59 1.3 1.77 0 2.85-.65 2.63-2.63a8.05 8.05 0 00-1.58-.14zM418.76 10c-8.89-.14-16.59 7.85-16.59 13.68 0 4.17 5.29 6.23 10.19 6.33a47.82 47.82 0 00-2.7 6.56c-2.92-.8-13.25-3.68-13.25-12.28 0-6.66 5.15-11.45 6.62-12.38a96.34 96.34 0 00-14.9 2.27l-.83-6.77a116.36 116.36 0 0016-.83A86.05 86.05 0 00417.76 4zm-6 5.11a22.72 22.72 0 013.38 3.89c-1 .72-1.52 1.12-2.78 2.16a28.13 28.13 0 00-3.2-4.06zm3.78-2.55a22.56 22.56 0 013.2 3.78c-.9.68-1.51 1.22-2.63 2.23a26.29 26.29 0 00-3.2-4.07zm22.93 17.66c7.81-1.44 10.11-7.48 10.11-11.23a8.53 8.53 0 00-8.31-8.82c-1.12 13.18-6.56 23-10.37 23-2.81 0-8-4.76-8-11.41C422.87 14 429.93 5 440.51 5c7.88 0 14.76 5.36 14.76 14A16.8 16.8 0 01451 30.08c-2.2 2.56-4.75 3.89-7.81 5.22a23.54 23.54 0 00-3.72-5.08zm-11.27-8.89c0 2.77 1.55 4.86 2.3 4.86s1.55-1.62 1.95-2.55a31.75 31.75 0 002.77-12.39c-4.22 1.55-7.02 6.84-7.02 10.08zm39.56-4.28v11.59a3 3 0 002.24 2.52c1.77.54 5.22.54 8 .54 1.76 0 10.54-.11 14.32-.86a9.15 9.15 0 00-1.38 5.16h-16.48c-5.29 0-7.2-1-8.79-2.81-.57.58-3.7 2.77-3.81 2.85a3.48 3.48 0 01.07.64.49.49 0 01-.47.54c-.18 0-.43-.25-.57-.5l-2.7-4.82a31.54 31.54 0 004.46-2.45V21.8h-4.14v-4.75zm-5.9-13.35a25.43 25.43 0 015.36 5c-1.15 1.19-2.37 2.63-3.31 3.78a32 32 0 00-5.43-5.32zm27.72 9v17.92h-5.33V30H476v.87h-5.26V12.73h4.5c.11-.25.54-1.33.65-1.55h-7.6V6.9h4a19.65 19.65 0 00-1.51-2.05l4.39-2.13a16.71 16.71 0 012.56 3.71c-.83.18-1.26.32-1.77.47h5.26a27.54 27.54 0 001.87-4.21l5 1.44a.53.53 0 01.47.5c0 .51-.47.61-.86.69-.07.14-.58 1-.9 1.58h4.68v4.28h-9.83c-.11.22-.5 1.08-.75 1.55zm-5.33 4.79V16H476v1.55zm0 4.46v-1.52H476V22zm0 4.57v-1.59H476v1.62zm15.01-22.03c.54 0 .9.07.9.39s-.32.51-.72.72V23c0 2.05-.1 8.17-1.94 12.78a9 9 0 00-3.89-1.44c1.19-2.59 1.91-5.08 1.91-11.12v-19zm5 1.8c.36 0 .69 0 .69.32s-.29.4-.8.54V31.3h-3.77V6zm16.38 23.14h-4.89l2.25 1.69c.29.22.5.4.5.69a.38.38 0 01-.43.39 3.68 3.68 0 01-.75-.1c-.43.46-1.8 1.87-2.13 2.16a24.85 24.85 0 01-3.19 2.48 14.3 14.3 0 00-2.84-2.52v.94h-4v-31l4 .15c.29 0 .79 0 .79.39s-.29.47-.79.65v27.79a21 21 0 004.35-3.71h-2.73V10.25h4.32c.54-.94.65-1.12 1-1.87h-6V4.27h17.53v4.11h-6.19c-.32.61-.86 1.72-.93 1.87h6v19.18h-3.85a20.28 20.28 0 005.34 3.93 13.91 13.91 0 00-3.38 3.16 33.41 33.41 0 01-6.12-5.18zm1-13.86V14h-5.79v1.54zm-5.79 3.5v1.54h5.79v-1.54zm0 5v1.62h5.79V24.1z" fill="#ff9600" data-name="object"/></g></svg>