<svg xmlns="http://www.w3.org/2000/svg" width="560" height="58.66"><path d="M0 53.66h560v5H0zM44 3.61v5.51h-9.89A40.58 40.58 0 0045 18.27a15.73 15.73 0 00-3.78 4.62c-4.45-2.47-10.5-8.44-12.94-11.25l3.52-2.52H17.31l3.86 2.39c.46.29.67.42.67.76 0 .54-.71.5-1.05.42C17.94 16.51 13 21.3 9.91 23.23a17.15 17.15 0 00-4.7-3.74c7.22-5.16 9.66-8.82 10.67-10.37h-9.5V3.61H21.8V0l6.72.29c.51.05.8.05.8.42s-.29.55-.8.76v2.14zM21.34 16a26.37 26.37 0 003.95 7.19 23.61 23.61 0 003.86-7l5.67 2.52a.86.86 0 01.63.75c0 .55-.88.51-1.22.51a30.08 30.08 0 01-4.87 7.43A31.72 31.72 0 0045 33.86a15.64 15.64 0 00-4.2 5.42 39.92 39.92 0 01-15.67-7.73 41.51 41.51 0 01-15.39 7.73c-.92-2.52-3.9-5-4.07-5.21A36.84 36.84 0 0021 27.35a39.23 39.23 0 01-4.91-8.53zm41.07.22v12.09a4.77 4.77 0 001.18 3.28c1.3 1.47 2.86 1.47 7 1.47 12.3 0 14.4 0 20.58-.8A12 12 0 0089.42 38h-20c-4.41 0-7.52-.68-9.71-3.74-1.17 1-3 2.6-4.49 3.74a2.55 2.55 0 01.08.63c0 .29 0 .71-.5.71-.3 0-.46-.25-.67-.63L51 33a27.94 27.94 0 005.17-2.77v-8.47h-3.59v-5.54zM55.65.34a34.26 34.26 0 017.18 5.92c-.75.76-1.34 1.26-4.36 4.58A44.56 44.56 0 0052 4.71zm18.06 25.58h-3.4v6h-5.63V10.25h5.76A37.84 37.84 0 0067.2 8l2.15-2.2h-4.67V1h20l2.1 2.18A31.69 31.69 0 0180 10.25h8.35v17.43c0 4-3.86 4.33-6.84 4.46a12.39 12.39 0 00-1.64-5.09c1.09.13 1.93.17 2.1.17.76 0 .8-.08.8-1.3H79v5.29h-5.3zm0-11.3h-3.4v1.85h3.4zm0 5.63h-3.4v1.85h3.4zM71.82 5.8c1.85 1.55 2.06 1.76 3 2.6a15.63 15.63 0 002.81-2.6zM79 16.47h3.78v-1.85H79zm0 5.63h3.78v-1.85H79zm52-18.86a6.82 6.82 0 002.35-.38L138 7.14c-.42.59-.55.8-1.52 2.19a95.21 95.21 0 01-11.3 13.86 21 21 0 00-4.83-4.62 45.06 45.06 0 007.86-9h-28.1V3.24zm-10.16 8c.29 0 .75 0 .75.5s-.54.63-.75.71A41.4 41.4 0 01118.61 25a26.38 26.38 0 01-10.54 12.43 34.65 34.65 0 00-5.88-4.43c5.88-3.36 12.22-7.94 11.46-22.18zm53.68-4.43a7.11 7.11 0 003-.63l3.48 3c-.75 1.26-3.31 7-4.28 9.16-6.47 14.53-15.8 19.19-19.49 21a22.7 22.7 0 00-5.42-4.79 38.66 38.66 0 0013.65-9.95 40 40 0 006.26-11.77H161.2a57.4 57.4 0 01-9.45 10.76 22.63 22.63 0 00-5.13-4.54C156.83 10.42 159.48 3 160.4.5l6 3c.17.08.55.29.55.63s-.59.54-1 .58c-.67 1.31-.8 1.64-1.09 2.15zm27.59-5.34l6.84.34c.42 0 .84 0 .84.46s-.5.63-.84.71v9.24l13-1.51a11.34 11.34 0 003-.8l4.37 4c-.55.63-1.52 1.84-1.89 2.31-1.31 1.68-6.72 9.53-7.9 11a50.83 50.83 0 00-5.71-3.44 39.9 39.9 0 005-6.3L209 18.74v9.07c0 2.56.8 3.19 4.16 3.19a122.39 122.39 0 0013.61-.75 34.59 34.59 0 00-.8 6.8c-3.19.08-11.51.13-14.45.13-8.19 0-9.36-3.24-9.36-8.57v-9L193 20.67l-.59-6.47 9.7-1.2zm39.52 8.11v-6.3h21.46a11.71 11.71 0 002.9-.34l3.28 3.57a12.56 12.56 0 00-1.6 2.69 71.59 71.59 0 01-5.33 10.29c1.76 1.35 9.45 7.73 12.6 11.51-1.39 1.6-3.66 4.12-5 5.71a57.88 57.88 0 00-11.3-12C254.57 29.57 248 35 242.47 37.3a18.86 18.86 0 00-4.79-5.75 35.24 35.24 0 0013.65-8.4c4.79-4.62 6.51-8.74 8.4-13.57z" fill="#ffa000" data-name="レイヤー 2"/></svg>