<svg xmlns="http://www.w3.org/2000/svg" width="95.469" height="18.594"><path fill-rule="evenodd" d="M14.05.005a2.573 2.573 0 1 0 2.393 2.567A2.5 2.5 0 0 0 14.05.005zm-.072 1.284a1.286 1.286 0 1 1-1.184 1.286 1.243 1.243 0 0 1 1.184-1.286zM.014 2.61v2.983h10.329c-.72 5.36-3.311 7.965-9.195 9.155l1.3 2.831c6.334-1.435 9.9-5.115 10.887-11.269l-2.987-3.7H.014zm24.259-.812h-3.058v15.649c7.63-.132 11.678-2.926 14.107-9.721l-2.591-1.605c-1.493 4.965-4.247 7.551-8.457 7.985V1.798zm25.465 6.116a35.2 35.2 0 0 0 5.092-4.851l-2.554-1.888a26.743 26.743 0 0 1-12.812 8.891l1.44 2.643a28.314 28.314 0 0 0 5.776-2.7v7.531h3.059V7.913zM64.224.647v2.928c-.162 5.8-2.807 10.174-7.4 12.25l1.817 2.681a15.133 15.133 0 0 0 7.018-8.853 14.9 14.9 0 0 0 6.964 8.853l1.781-2.737c-4.66-2.246-7.108-6.361-7.288-12.194V.649h-2.9zM95.476 15.71a9.685 9.685 0 0 1-2.555-2.359 18.915 18.915 0 0 0 1.656-7.419h.575v-2.85h-4.174a17.8 17.8 0 0 0 .4-2.36l-2.628-.3a16.068 16.068 0 0 1-2.159 6.588 9.114 9.114 0 0 1-1.673-1.4h2.321V3.459h-.882l.018-.057a17.991 17.991 0 0 0 1.1-2.36L85.406.457a12.682 12.682 0 0 1-1.08 2.4l1.925.6h-2.147V.55h-2.519v2.907h-2.016l1.6-.623a13.789 13.789 0 0 0-.99-2.3l-1.889.7a12 12 0 0 1 .846 2.228h-1.042v2.151h2.375a7.306 7.306 0 0 1-2.753 1.926l1.242 2.038a9.291 9.291 0 0 0 2.627-2.453v2.019l-.7-.075a13.6 13.6 0 0 1-.4 1.4h-2.391v2.265h1.511a11.163 11.163 0 0 1-1.079 2.038 13.532 13.532 0 0 1 2.465.85 10.56 10.56 0 0 1-2.9.623l.954 2.34a11.632 11.632 0 0 0 4.588-1.755 13.493 13.493 0 0 1 2.051 1.265l.864-1.6 1.26 1.944a13.88 13.88 0 0 0 3.347-2.623 12.289 12.289 0 0 0 2.825 2.68zm-8.061-2.982v-2.265h-4.337c.126-.378.252-.793.342-1.039h.684V7.367a7.3 7.3 0 0 0 1.475 1.6l.54-.736 1.62 1.926c.306-.359.468-.567.738-.944a17.791 17.791 0 0 0 1.241 4.171 8.688 8.688 0 0 1-2.9 2.171c-.5-.226-.9-.4-1.349-.6a8.373 8.373 0 0 0 1.043-2.227h.9zm4.624-6.8a15.942 15.942 0 0 1-.719 4.606 17.327 17.327 0 0 1-1.152-4.606h1.871zm-7.881 6.8a5.018 5.018 0 0 1-.846 1.434 11.036 11.036 0 0 0-1.547-.4c.252-.566.4-.906.45-1.038h1.943z"/></svg>