<svg xmlns="http://www.w3.org/2000/svg" width="258.3" height="30"><path d="M28.57 5.65l3.84-.52c.17 0 .5 0 .5.24s-.16.36-.36.5L33 9l5.4-.67.41 3.5-5.28.72.37 2.45 8-1 .41 3.52-7.87 1.06 1.1 7.56-3.84.65-1.13-7.7-8.4 1.1-.43-3.6L30 15.52l-.36-2.47-5.85.77-.44-3.61 5.77-.72zm23.09 3.87L55 9.11c.21 0 .5-.07.5.22s-.19.33-.36.45l.7 3.48 5.78-1.17a2.06 2.06 0 001.11-.65l2.32 1.75a55.31 55.31 0 00-4 6.72 22.56 22.56 0 00-3.15-1.51 16.61 16.61 0 001.75-2.74l-3.19.72 1.82 9.29-3.28.77-1.85-9.31-4.83 1.08-.91-3.27 5.11-1zM72.82 5.7a22.89 22.89 0 016 3.94c-.57.69-.74 1-2.32 3.26a25.25 25.25 0 00-6-3.84zm-2 16.59A28.41 28.41 0 0088.71 9.37a15.18 15.18 0 002.48 3.27 31.84 31.84 0 01-7.47 8A39.35 39.35 0 0173.83 26c0 .27-.12.53-.33.53s-.24-.07-.39-.33zm21.8-6.19c1.61-1.18 2-1.59 5.36-5.38 2.25-2.52 3.14-3.27 4.51-3.27 1.53 0 2.28.92 4 3a60.77 60.77 0 009.36 9.67c-.91 1.15-2.09 2.86-2.54 3.5A126.22 126.22 0 01103.93 13c-1-1.22-1.3-1.22-1.59-1.22-.55 0-1.32.89-1.89 1.56-1.13 1.32-3.51 4.41-4.27 5.59a1.1 1.1 0 01.07.31c0 .12-.07.27-.22.27a.61.61 0 01-.41-.24zm21.13-8.77a2.26 2.26 0 11-2.26-2.25 2.26 2.26 0 012.26 2.25zm-3.32 0a1.05 1.05 0 001.06 1.06 1.06 1.06 0 10-1.06-1.06zM138.44 14v4.08h-20.86V14zm6.38-8.3a22.89 22.89 0 016 3.94c-.57.69-.74 1-2.32 3.26a25.25 25.25 0 00-6.05-3.84zm-2 16.59a28.41 28.41 0 0017.89-12.92 15.18 15.18 0 002.48 3.27 31.84 31.84 0 01-7.47 8 39.35 39.35 0 01-9.89 5.36c0 .27-.12.53-.33.53s-.24-.07-.39-.33zM172.14 8a23.66 23.66 0 012.66 2.57 6.43 6.43 0 00-1.73 1.58h5v-.79h-3.24v-2h3.24v-.73h-4.69V6.35h4.69V4.81l3.57.22c.22 0 .46 0 .46.31s-.22.36-.46.48v.53h5.19v2.28h-5.19v.79h3.82v2h-3.82v.79h5.67v2.23h-14.67v-1.87a9.28 9.28 0 00-1-1.32v15.57h-3.5V10.14a.82.82 0 01-.39.1 28.07 28.07 0 01-1 5.86 9.43 9.43 0 00-2.68-1.1 20.6 20.6 0 001-5.84l2.76.36a2 2 0 01.31.08V4.91l3.72.19c.14 0 .41.07.41.31s-.29.44-.63.58v2.47zm5.28 15.17v3.62h-3.53V15.28h12.36v9c0 1.73 0 2.88-4.42 2.74a7.69 7.69 0 00-1.22-3 15.17 15.17 0 001.63.17c.53 0 .53-.12.53-.89zm5.35-4.8v-1h-5.35v1zm0 2.9v-1h-5.35v1zm13.39-1.38h3.29v2.83h-3.29V27h-3.22v-4.28h-3.31v-2.83h3.31v-1.15h-3.64V15.9h1.39a8.68 8.68 0 00-.67-1.77l1.87-.53h-3.07v-2.81h4.12V9.66H190V7h2.95V5l3.39.17c.17 0 .34.1.34.26s-.25.39-.51.56V7h3.1v2.66h-3.1v1.13h3.67v2.81h-2.76l1.61.34c.22 0 .43.09.43.33s-.19.34-.62.36c-.22.58-.43 1.08-.53 1.27h1.71v2.84h-3.51zm-3-6.29a18 18 0 01.82 2l-.84.26h1.8a13 13 0 00.77-2.3zM203.77 27h-3.36V5.44h9.84a51.1 51.1 0 01-.14 6.12c-.29 1.58-1.76 2-4.35 2.06a7.08 7.08 0 00-1.27-3.31 5.28 5.28 0 001.51.17c.82 0 .91-.17.91-1.08v-.94h-3.14v5.69h5.64l1.59 1.68a31.17 31.17 0 01-2.33 6.43 14.19 14.19 0 002.83 2.67 11.36 11.36 0 00-2.66 2.16 25.1 25.1 0 01-1.92-2 9.45 9.45 0 01-1.44 1.73 8.79 8.79 0 00-1.73-1.39zm2.06-9.72a11.54 11.54 0 00.75 2.18 13.18 13.18 0 00.72-2.3h-3.53v1.41zm-2.06 6.91A15.47 15.47 0 00205 22.5a12.86 12.86 0 01-1.2-2.64zm24.86-2.48a18.71 18.71 0 006.27 2.88c-.43.27-1 .65-2.16 2.62a24 24 0 01-7-4.18v4h-3.44v-4.2a22.69 22.69 0 01-7.23 4.35c-1.15-2-1.73-2.35-2.16-2.62a17.79 17.79 0 006.27-2.88h-6.08v-2.51h9.2V17.9a27.41 27.41 0 01-6.7.86 6.57 6.57 0 00-1.22-2.76c.6 0 1.32.09 2.37.09a16.9 16.9 0 004.42-.53c-.87-.17-1.2-.21-1.59-.26l-.52.43a8.32 8.32 0 00-2.74-1.44c.53-.43.86-.72 1.39-1.22h-4.61v-2.49h6.82a18.25 18.25 0 001.18-1.71h-4.23V10h-3.26V6.37h8.47V4.81l3.87.12c.19 0 .5 0 .5.29s-.34.43-.5.51v.64h8.49v3.48H231v-1h-5.47c.12.41-.29.46-.77.5-.45.6-.57.72-.91 1.21h11.26v2.47h-4.64a.22.22 0 01.15.19c0 .24-.48.31-.65.34a15.65 15.65 0 01-1.27 1.2 26.85 26.85 0 014.61 1.75 11.65 11.65 0 00-1.9 2.64h3.7v2.54zm-6.84-8.66l-.62.67a33 33 0 013.41.43 8.8 8.8 0 001.56-1.1zm4 3.62a18.38 18.38 0 01-3.46 1.23l3.51.14c.22 0 .46.05.46.29s-.27.41-.6.6v.24h5.64a21.72 21.72 0 00-5.54-2.5zm32.51-8.14V24.3c0 1.16 0 2.69-3.22 2.69-.6 0-1.41-.07-2-.09a9 9 0 00-1.27-3.84 16.5 16.5 0 002.21.31c.31 0 .62-.15.62-.89V20a10.2 10.2 0 00-1.8 2.26 10.47 10.47 0 01-4.8-4.95 16.49 16.49 0 01-5.18 5.4 6.72 6.72 0 00-1.57-2.25V27h-3.64V8.53h8.47V4.86L250 5c.29 0 .45.14.45.33s-.31.39-.64.48v2.72zm-17 10.73a9.17 9.17 0 004.7-7.32h-4.7zm8.53-7.32a7 7 0 001.32 3.94 10.76 10.76 0 003.5 3.1v-7zM0 0h10v30H0z" fill="#00b4dc" data-name="レイヤー 2"/></svg>