<svg xmlns="http://www.w3.org/2000/svg" width="330" height="30"><g data-name="レイヤー 2"><rect width="330" height="30" rx="5" fill="#00b4dc"/><path d="M95.61 11.81l.78.11c.09 0 .31.06.31.2s-.29.21-.45.23c-.25.54-.61 1.13-.72 1.32h3.13v6.88c0 1.83-.75 1.85-2.2 1.88a2.75 2.75 0 00-.46-1.24 5.37 5.37 0 00.89.09c.6 0 .62-.27.62-.66v-5.94h-3v1.13c0 .44.16.45.49.45h.76c.26 0 .52 0 .61-.92a3 3 0 001 .5c-.3 1.25-.8 1.39-1.46 1.39h-1.24c-.73 0-1.22-.13-1.22-1.11v-1.44h-2.1l.69.21c.19.06.26.1.26.18s-.18.18-.3.2a5 5 0 01-2.46 3 2.14 2.14 0 00-.92-.74A3.76 3.76 0 0091 14.68h-2.55v7.72H87.3v-8.73h3.41a10.22 10.22 0 00-1-1.61l.81-.25h-3.86v-1h5.76V9.58l1.19.07c.14 0 .32 0 .32.17s-.18.21-.32.25v.76h5.81v1zM91.42 21v.51h-1.11v-3.64h5.37V21zm-.6-9.22a10.28 10.28 0 011 1.61l-.82.25h3.2a9.57 9.57 0 001-1.86zm3.77 7h-3.17v1.36h3.17zm6.04-5.84v-.89h4.71v.89zM104 22.2v-.68h-1.9v.92h-1v-4.71h4v4.47zM101.29 11v-.88h3.56V11zm0 3.78v-.88h3.53v.88zm0 1.92v-.87h3.53v.87zm2.71 1.96h-1.9v1.9h1.9zm8.69-2.45a7.06 7.06 0 01-3.53-3 5.55 5.55 0 01-3.35 2.94 2.78 2.78 0 00-.68-.91c3.06-1 3.32-2.62 3.32-4.6V9.57l1.25.05c.15 0 .27 0 .27.16s-.1.15-.38.25c0 .57 0 1-.07 1.61a5.78 5.78 0 004 3.67 3 3 0 00-.8.9zm-.06 6.19a7.84 7.84 0 01-3.4-3.41 6.36 6.36 0 01-3.33 3.44 3.5 3.5 0 00-.77-1c3.37-1.44 3.36-3.18 3.32-6l1.17.07c.07 0 .25 0 .25.15s-.11.16-.32.23v1.34a4.81 4.81 0 00.82 1.82 8.52 8.52 0 003 2.36 3 3 0 00-.71 1zm-5.09-5.4a9.9 9.9 0 01-.69 2.31 2.72 2.72 0 00-1.06-.31 8.57 8.57 0 00.81-2.62l1.09.23c.15 0 .24.08.24.15s-.25.18-.39.24zm0-6a10.9 10.9 0 01-.63 2.18 2.62 2.62 0 00-1-.3 9.11 9.11 0 00.7-2.52l1.08.24c.11 0 .24 0 .24.21s-.11.1-.37.19zm5.09.12a.51.51 0 01-.21 0 13.49 13.49 0 01-1.21 1.81 3.66 3.66 0 00-.86-.65 8.53 8.53 0 001.33-2.06l1 .58c.08 0 .14.09.14.18s-.04.09-.17.09zm-.24 6.08a9.33 9.33 0 01-1 1.69 3.1 3.1 0 00-.91-.5 9.14 9.14 0 001.14-2.06l1 .47c.07.05.21.12.21.24s-.29.12-.42.11zm13.07 4.8h-2c-1.29 0-1.71-.5-1.71-1.56v-3h-2.06c.19 0 .42.14.42.28s-.2.18-.41.19a7 7 0 01-4.13 4.5 4.55 4.55 0 00-1-1 5.4 5.4 0 004-4h-2.11V10h9v7.44h-2.5v2.74c0 .63.17.72.85.72h1.64c.34 0 .72 0 1-1.82a2.17 2.17 0 001.08.56c-.53 2.27-1.08 2.36-2.07 2.36zm-1.21-11h-6.55v1.2h6.55zm0 2.06h-6.55v1.12h6.55zm0 2.07h-6.55v1.23h6.55zm11.33 3.78H138V20h-2.42v2.42h-1.16V20H132v-1.09h2.39v-4.59a20 20 0 01-5.09 6.58 3.17 3.17 0 00-1-.83 18.28 18.28 0 005.62-6.62h-5.34v-1h5.83V9.54l1.13.08c.21 0 .36.09.36.2s-.14.15-.33.24v2.38h5.87v1h-5.37a18 18 0 005.58 6.44 3 3 0 00-.95.91 18 18 0 01-5.13-6.4zm13.42-6.5l.6.1c.11 0 .35.07.35.2s-.19.19-.35.23v1.32h4.4v5.09c0 1.56-.28 2-2.57 2a3.69 3.69 0 00-.42-1.23 9 9 0 001 .07c.72 0 .84-.16.84-1v-3.84h-3.18v7.08h-1.27v-7.08h-3.16v5.94h-1.19v-7h4.35v-1.88h-5.83v-1.08h5.83V9.62l1.21.06c.16 0 .33.08.33.2s-.21.19-.35.22v1.23h5.83v1.08zm14.12 9.2c-3.23 0-5.21-.65-5.21-2.55 0-.84.5-1.84 2.15-3.23l.89.73c-.28.22-1.83 1.44-1.83 2.43a.92.92 0 00.48.87 8.16 8.16 0 003.38.59 18.39 18.39 0 005.22-.64c.13.59.21.94.31 1.26a27.75 27.75 0 01-5.39.54zm-.33-7c-.09-.11-.53-.52-.79-.79 1.51-1.23 1.79-1.44 2.32-1.83a34 34 0 01-3.4.15h-2.1l-.1-1.31A19.17 19.17 0 00162 11a26.31 26.31 0 004-.28l.66 1.08a20.5 20.5 0 00-3.87 2.77zm5.43-2.12a12 12 0 00-1.36-1.51l.63-.56a12.23 12.23 0 011.34 1.47 2.49 2.49 0 00-.61.56zm1-1a7.85 7.85 0 00-1.31-1.52l.61-.54a13 13 0 011.37 1.46 2.42 2.42 0 00-.69.51zm8.34 10.94h-1.1v-5.05a15.57 15.57 0 01-5.14 4.7 3.42 3.42 0 00-1-.87 15.41 15.41 0 005.42-4.37h-5.17v-1h5.87v-3.39h-5.24v-1h5.24V9.61l1.13.1c.09 0 .31 0 .31.18s-.18.2-.34.24v1.29h5.23v1h-5.23v3.39h5.83v1h-5.21a14.74 14.74 0 005.23 4.21 3.09 3.09 0 00-.82.9 14.16 14.16 0 01-5-4.45zm-3.88-9.81a13.1 13.1 0 011.39 2.59 8.2 8.2 0 00-1 .55 13.07 13.07 0 00-1.34-2.62zm7.62.45c.07 0 .2.08.2.18s-.2.18-.36.2a14.63 14.63 0 01-1.14 2.31 7.12 7.12 0 00-1-.55 13.94 13.94 0 001.26-2.65zm8 4.82c-.66.26-2.44 1-4 1.54 0 .14 0 .36-.23.36s-.15-.07-.22-.31l-.3-1.06c.66-.15 1.57-.43 1.92-.55v-4h-1.8v-1.1h1.8V9.62l1.15.09c.14 0 .3 0 .3.17s-.16.18-.31.25v2.64h1.78v1.07h-1.78v3.66c.25-.09 1.15-.42 1.78-.72a3.11 3.11 0 00-.09 1.11zm2.59-1.6c-.19.32-.34.55-.52.86H197c0 1.21-.19 4-.91 4.8-.19.22-.59.52-2.06.43a2.8 2.8 0 00-.39-1.2 6.72 6.72 0 001 .11c.34 0 .67 0 .87-.87a13.41 13.41 0 00.32-2.34H195a13 13 0 01-3.38 4.4 2.78 2.78 0 00-.88-.6 10.65 10.65 0 003.24-3.8h-1.07A11.32 11.32 0 01189 22a2.11 2.11 0 00-.8-.68 9.79 9.79 0 003.67-3.23h-1.15a11.9 11.9 0 01-2 1.85 2.58 2.58 0 00-.84-.63 9.61 9.61 0 003-3H189v-.91h8.4v.89zm-1.7-1.6V10h5.95v4.7zm4.9-3.82h-3.81v1h3.81zm0 1.86h-3.81v1.1h3.81zm14.16 7.13a8.12 8.12 0 01-3.35 1.91 5.65 5.65 0 00-.8-1.08c4.18-.88 4.61-3.8 4.61-4.93a4 4 0 00-4.26-4.12 20.29 20.29 0 01-1.52 6.46c-.77 1.82-1.45 2.56-2.22 2.56-1 0-2.63-1.62-2.63-3.92a6.46 6.46 0 016.36-6.21 5.17 5.17 0 015.48 5.2 6 6 0 01-1.67 4.13zm-9-3.19c0 1.51.82 2.62 1.43 2.62s1.1-1.33 1.44-2.21a16.47 16.47 0 001.09-5.26 5.25 5.25 0 00-3.98 4.85zm18.4-1.79c-.43.08-2.29.49-2.67.56-1.16.22-1.32.25-2.79.5 0 .17-.1.34-.27.34s-.16-.11-.22-.31l-.27-1c.33 0 .66-.07 1.78-.24v-5.2l1.21.08c.18 0 .29.08.29.18s-.1.16-.33.23v1.54h3.46v1h-3.46v1.94c1.57-.27 3-.59 3.46-.69a3.82 3.82 0 00-.19 1.07zm3.88 7.52v-.73h-7.07v.73h-1.19v-5.74h3.11a11 11 0 00.57-1.57l1.19.19c.16 0 .27.09.27.18s-.28.2-.38.2c-.07.15-.36.86-.43 1h5.12v5.74zm0-4.82h-7.07v1.12h7.07zm0 2h-7.07v1.2h7.07zm.94-3.83H221c-1.17 0-1.45-.48-1.45-1.46V9.48l1.24.1c.06 0 .27 0 .27.17s-.15.17-.39.24v2a19.83 19.83 0 003.54-1.59l.77.81a.32.32 0 01.1.22c0 .13-.07.16-.17.16a1.6 1.6 0 01-.35-.13 26.62 26.62 0 01-3.9 1.54v.9c0 .58.09.78.81.78h2c.38 0 .68-.13.94-1.39a2.76 2.76 0 001 .48c-.41 1.96-1.07 1.96-1.94 1.96zm6.02 6.65h-1v-6.73a14.12 14.12 0 01-1.43 3.51 2.86 2.86 0 00-.84-.75 14.74 14.74 0 002.25-5.14h-1.9v-.95h1.88V9.57l1.05.08c.07 0 .32.06.32.18s-.07.14-.33.24v2.27H231v.95h-1.5v.63a12.69 12.69 0 001.85 2.88 3.11 3.11 0 00-.76.91 19 19 0 01-1.09-2.43zm6.2-9.36h2.71v.88h-2.71v1h3.8v.93h-3.8V17a8.31 8.31 0 00.9 1.17 9.75 9.75 0 001.72-2.05l.8.58c.16.11.17.19.17.23s-.22.14-.39.14a14.92 14.92 0 01-1.68 1.73 9 9 0 002.49 1.71 3.45 3.45 0 00-.69 1 10.43 10.43 0 01-3.32-2.95v2.07c0 1.65-.42 1.9-2.2 1.92a3.38 3.38 0 00-.54-1.21 4 4 0 00.91.07c.68 0 .73-.14.73-.63v-1.7c-1.19.76-1.63 1-2.88 1.71 0 .14 0 .39-.18.39s-.18-.1-.26-.25l-.49-.87a22.73 22.73 0 003.81-2v-2.17h-3.52V15h3.52v-1h-2.68v-1h2.68v-.92h-3.41v-.9h2.19a9.49 9.49 0 00-1-1.39l.94-.42a18 18 0 011 1.54l-.68.27h2.06a12.68 12.68 0 001-1.83l1 .36c.07 0 .19.11.19.2s-.15.14-.36.15c-.13.24-.3.53-.69 1.12h2.34v.9h-3.56zm-3.08 3.06a11.73 11.73 0 011.28 1.62 6.09 6.09 0 00-.76.6 13.58 13.58 0 00-1.36-1.64zm20.18 4.41a42.49 42.49 0 01-6-6.22c-.63-.76-.82-.93-1.14-.93s-.68.3-1.28 1.1a30 30 0 01-3.09 3.81l-1-1a22.32 22.32 0 003.9-4.33 1.85 1.85 0 011.48-.92c.88 0 1.33.56 2.2 1.64a33.19 33.19 0 005.81 5.73c-.4.46-.46.54-.88 1.12zM60 14h10l-5 5-5-5z" fill="#fff"/></g></svg>