<svg xmlns="http://www.w3.org/2000/svg" width="132.28" height="40"><path d="M0 0h10v40H0zm58.58 17.73c-10.25 0-15.15 6.27-15.15 9.87s3.85 4.06 9.39 4.1a35.13 35.13 0 00-2 5.43c-5.68-.5-13.64-1.33-13.64-8.81a11.6 11.6 0 014-8.1 85.84 85.84 0 00-13.39 3.2l-1.4-6.51c2.81-.11 6-.36 8.78-.69a29.79 29.79 0 006.7-6.59c-.9.08-4.94.51-5.76.58-1.12.07-1.88.11-2.59.11l-.37-5.58c.87 0 2.27.11 4.18.11 1 0 9.22 0 14.18-1.41l2.23 3.31A108.16 108.16 0 0043.93 15c6-1.08 9-1.66 14-2.81zm20.89 12.49c7.81-1.44 10.11-7.48 10.11-11.22a8.53 8.53 0 00-8.31-8.82c-1.12 13.18-6.56 23-10.37 23-2.81 0-8-4.76-8-11.41C62.87 14 69.93 5 80.51 5c7.88 0 14.76 5.36 14.76 14A16.8 16.8 0 0191 30.08c-2.2 2.56-4.75 3.89-7.81 5.22a23.54 23.54 0 00-3.72-5.08zM68.2 21.33c0 2.77 1.55 4.86 2.3 4.86s1.55-1.62 2-2.55a31.75 31.75 0 002.77-12.39C71 12.8 68.2 18.09 68.2 21.33zm37.69 15.23H101V19.71c-.29.36-.58.69-.86 1A15.66 15.66 0 0097 16.47c4.25-4.1 7.56-10.94 8-13.21l4.86 1.91a.5.5 0 01.4.47c0 .29-.4.54-.9.61a42.34 42.34 0 01-3.28 6.52c.33.14.58.28.58.68s-.47.58-.76.68zm11.63-23.76V3.48l4.82.36c.4 0 .79.07.79.54 0 .29-.43.54-.79.65v6.73l5.22-1.15 2.34 1.33V21c0 4.07-.83 5.18-1.22 5.69-.9 1.15-3.28 1.72-5 1.72a10.28 10.28 0 00-1.37-4.32v3.82h-4.82V17.84l-2 .43v11.05c0 1.48 1.29 1.91 3 1.91h6.66c1.87 0 2.19-1.4 2.73-3.6a8.7 8.7 0 004.4 2.09c-1.12 5.65-3.89 6.23-7.2 6.23h-8.25c-5.94 0-6.33-3-6.33-5.65V19.35l-3.28.69-1-4.83 4.25-.9V5.86l4.89.28c.18 0 .72 0 .72.54 0 .33-.21.51-.64.72v5.83zm4.82 4v6.66c.36 0 1 .08 1.44.08s1 0 1-1v-6.25z" fill="#00b4dc" data-name="レイヤー 2"/></svg>