<?xml version="1.0" encoding="UTF-8"?><svg id="_レイヤー_2" xmlns="http://www.w3.org/2000/svg" viewBox="0 0 16.67 12.87"><g id="_デザイン"><g id="_ヘッダー"><g><path d="M0,9.22v-.88H2.11v.95c0,1.15,.65,1.55,1.33,1.55,.65,0,1.35-.38,1.35-1.55V0h2.12V9.22c0,2.14-1.44,3.66-3.48,3.66s-3.44-1.51-3.44-3.66Z" style="fill:#212121;"/><path d="M9.81,0h3.33c2.07,0,3.53,1.37,3.53,3.85v1.87c0,2.48-1.46,3.8-3.53,3.8h-1.21v3.17h-2.12V0Zm3.1,7.51c.86,0,1.69-.38,1.69-1.8v-1.84c0-1.51-.85-1.84-1.69-1.84h-.97V7.51h.97Z" style="fill:#212121;"/></g></g></g></svg>