<svg xmlns="http://www.w3.org/2000/svg" width="600" height="240"><defs><style>.cls-1{fill:#00b4dc}</style></defs><g id="レイヤー_2" data-name="レイヤー 2"><g id="レイヤー_1-2" data-name="レイヤー 1"><path class="cls-1" d="M595 0H96v57.6L72 30.32 48 60.63V0H5C2.25 0 0 2.84 0 6.32v227.36c0 3.48 2.25 6.32 5 6.32h590c2.75 0 5-2.84 5-6.32V6.32c0-3.48-2.25-6.32-5-6.32z"/><path d="M156.43 50.35a8.42 8.42 0 01-2.87 6.7q-2.87 2.51-8 2.51h-18.8V27.08h15.7a21.35 21.35 0 015.31.58 10.57 10.57 0 013.65 1.61 6.59 6.59 0 012.06 2.4 6.79 6.79 0 01.68 3 8 8 0 01-2.45 5.78 6.35 6.35 0 01-2.1 1.37 12.9 12.9 0 015.08 3.32 7.61 7.61 0 011.74 5.21zM145 36.43a3.16 3.16 0 00-1.55-3.12 11.29 11.29 0 00-4.83-.77h-2.06v7.78h2.11a11.1 11.1 0 004.84-.78C144.5 39 145 38 145 36.43zM146.59 50q0-4.17-6.05-4.17h-4v8.27h4q6.04 0 6.05-4.1zm47.57-5a15 15 0 01-1.56 7.11 12.52 12.52 0 01-4.13 4.65 17.71 17.71 0 01-5.53 2.46A24 24 0 01177 60a23.63 23.63 0 01-8-1.4 14.31 14.31 0 01-6.53-4.79 13.88 13.88 0 01-2.63-8.81V27.08h9.78v15.39a13.31 13.31 0 00.92 5.31 6.4 6.4 0 002.58 3.07 8.17 8.17 0 007.72 0 6.35 6.35 0 002.59-3 13.08 13.08 0 00.93-5.3V27.08h9.8zm36.97-17.92l-12.72 17.6v14.88h-9.8V44.87l-13-17.79h10.17l7.45 10.21 7.48-10.21zm26.45 32.48h-24.49V27.08h24.1v6.51h-14.3v5.95h13.64v6.54h-13.64V53h14.69zm35.62 0h-10.52l-2.56-5.77a24.08 24.08 0 00-2.53-4.62 5.43 5.43 0 00-2.19-1.88 7.85 7.85 0 00-2.75-.41h-1.11v12.68h-9.79V27.08h16.66a12.06 12.06 0 016.59 1.64 9.85 9.85 0 013.72 4 10.32 10.32 0 011.13 4.45 8.34 8.34 0 01-.95 4.16 7.63 7.63 0 01-2 2.48 20.12 20.12 0 01-2.37 1.47 9.43 9.43 0 012.59 2.17 27.22 27.22 0 012.78 5.08zm-13.31-22.22a3.35 3.35 0 00-1.48-3.14 9.73 9.73 0 00-4.8-.89h-2.07v7.83h2.11c2.39 0 4-.26 4.91-.79a3.18 3.18 0 001.33-3.01zM303.9 34a9.28 9.28 0 01-.62 3.23 9.81 9.81 0 01-1.95 3.13 11.36 11.36 0 01-3.46 2.53 16.66 16.66 0 01-5 1.45v-1.5c2.46-.92 3.68-3 3.68-6.21v-.49q-3.68-1.07-3.68-4.62a4.69 4.69 0 01.66-2.4 5 5 0 011.8-1.82 4.92 4.92 0 012.53-.68 5.25 5.25 0 013.37 1.1 6.63 6.63 0 012 2.81 9.82 9.82 0 01.67 3.47zm26.15 16.12a9 9 0 01-1.56 5.27 9.9 9.9 0 01-4.35 3.41 16.24 16.24 0 01-6.4 1.18c-.67 0-1.49 0-2.47-.13a27 27 0 01-3.89-.71 30 30 0 01-5.05-1.74v-8a36.94 36.94 0 004.84 2.6 12.92 12.92 0 005.1 1c1.67 0 2.75-.27 3.24-.83a2.43 2.43 0 00.74-1.56 2.65 2.65 0 00-1.25-2.24 18.22 18.22 0 00-3.68-1.86 28.84 28.84 0 01-4.69-2.45 11.08 11.08 0 01-3.29-3.32 8.48 8.48 0 01-1.29-4.74 8.61 8.61 0 015.22-8.13 14.87 14.87 0 016.47-1.27 22.64 22.64 0 015 .53 21.44 21.44 0 013.81 1.18 15.13 15.13 0 012.06 1V37a27.11 27.11 0 00-4.44-2.55 12.4 12.4 0 00-5.17-1.14 4 4 0 00-2.65.7 2.23 2.23 0 00-.82 1.74 2.15 2.15 0 00.82 1.66 14.54 14.54 0 002.93 1.71 57.54 57.54 0 016 3.17 11.82 11.82 0 013.53 3.24 7.89 7.89 0 011.24 4.59zm49.5-6.22a15.49 15.49 0 01-1.81 8 17.13 17.13 0 01-4.28 4.9q-3.49 2.74-9.77 2.74h-17.54V27.08h13.5a37.05 37.05 0 015.22.31 23.16 23.16 0 013.9.89 16.15 16.15 0 013 1.29 14.76 14.76 0 012.18 1.54 14.48 14.48 0 012.92 3.21 15.42 15.42 0 012 4.29 17.9 17.9 0 01.68 5.29zm-10-.42a10.8 10.8 0 00-1.51-6.17 7.42 7.42 0 00-3.63-3 12.94 12.94 0 00-4.33-.75H356v19.27h4.17a12 12 0 006.61-1.83q2.81-1.82 2.81-7.52zm49.32 16.08h-10L406.19 53h-14.11l-2.69 6.59h-10l14.36-32.48h10.83zm-14.93-12.23l-4.76-11.86-4.8 11.86zm48.53-20.25l-12.72 17.6v14.88H430V44.87l-13-17.79h10.17l7.45 10.21 7.48-10.21zm24.67 23.04a9 9 0 01-1.56 5.27 9.92 9.92 0 01-4.34 3.41 16.27 16.27 0 01-6.4 1.18c-.67 0-1.5 0-2.48-.13a27.24 27.24 0 01-3.89-.71 30.34 30.34 0 01-5.05-1.74v-8a37.59 37.59 0 004.84 2.6 13 13 0 005.1 1c1.67 0 2.75-.27 3.25-.83a2.41 2.41 0 00.73-1.56 2.65 2.65 0 00-1.26-2.21 18 18 0 00-3.68-1.86 29.69 29.69 0 01-4.69-2.45 11.19 11.19 0 01-3.29-3.32 8.56 8.56 0 01-1.28-4.77 8.6 8.6 0 015.23-8.13 14.81 14.81 0 016.47-1.27 22.54 22.54 0 015 .53 21.44 21.44 0 013.81 1.18 16.09 16.09 0 012.07 1V37a26.81 26.81 0 00-4.45-2.55 12.35 12.35 0 00-5.23-1.13 4 4 0 00-2.65.7 2.2 2.2 0 00-.82 1.74 2.11 2.11 0 00.82 1.66 14 14 0 002.93 1.71 57.54 57.54 0 016 3.17 11.77 11.77 0 013.52 3.24 7.81 7.81 0 011.3 4.58zM60 84h480v2.4H60zm132.54 53.14v4h-2.15v7.13H184v-1.37h-7.91v2.75c0 2.19-.56 3.7-7 3.7-.86 0-1.72 0-2.28-.09a16 16 0 00-2-5.37 34.52 34.52 0 003.66.34c1.24 0 1.24-.43 1.24-1.33h-13.37v-4.3h13.41v-1.46h-16.38v-4h16.38v-1.38h-13.41V132h13.41v-1.21h-10.92V122h10.92v-1.2h-16.38v-4.52h16.38V114l6.67.26a.58.58 0 01.64.55c0 .39-.25.48-.94.82v.73h16.25v4.52h-16.25V122h10.75v8.73h-10.75V132h14.27v5.16zm-22.79-10v-1.68h-5.24v1.68zm6.37-1.68v1.68h5.2v-1.68zm7.88 11.68v-1.38h-7.91v1.38zm0 5.5v-1.46h-7.91v1.46zm34.21-22.88a31.84 31.84 0 003.7-6.06l6.45 1.63c.3.09.6.22.6.52 0 .47-.6.69-1.24.6-1.12 1.77-1.55 2.5-2.15 3.31h9.84v5.38H196.2v-5.38h9.46a19.81 19.81 0 00-2.45-3.65l5.8-2.63a28.39 28.39 0 013.48 5.38l-2.32.9zM204.41 144v9.28h-6v-26.72h17.09v22.53c0 3.52-1.84 4-7.52 4.21a12.39 12.39 0 00-2.19-6.1c.64 0 1.93.21 2.58.21.81 0 1.29-.08 1.29-1.37v-2zm5.25-10.93v-1.87h-5.25v1.89zm0 6.41v-1.94h-5.25v1.94zm14.66-12.26c.39 0 .64.13.64.44s-.25.47-.64.73v17.11h-6.19V127zm9.07-.9c.39 0 .78.09.78.47s-.48.56-1 .87v20.51c0 1.59 0 3-1.84 4.17-1.55 1-3.4 1-7 .94a16 16 0 00-1.42-6.45c.73.09 2.32.3 3 .3 1.07 0 1.07-.68 1.07-1.2V126zm29.33.07l-4 23.73h-8.77l-7.79-33.88h7.7l4.82 25.15 4.21-25.15h7.74l4.21 25.15 4.82-25.15h7.7l-7.79 33.88h-8.77zm52.37 17.67v6.06h-27.77v-33.88h27.21v6.06h-19.47v7.61h17.19v5.81h-17.19v8.34zm4.69 6.06v-33.88H338c6.62 0 10.67 3.61 10.67 8.68s-3.44 6.32-5.12 7a8.59 8.59 0 013.27 1.55 8.28 8.28 0 013.22 6.84c0 5.8-4.56 9.8-11.14 9.8zm7.74-19.78h8.77c3.18 0 4.13-2.45 4.13-4.3 0-1.46-.64-3.91-4.13-3.91h-8.77zm0 13.89h8.73c2.75 0 5.5-1.25 5.5-4.69 0-3.78-3.35-4.38-5.5-4.38h-8.73zm43.13-.39v-10a24.93 24.93 0 01-3.48 2.37 21.54 21.54 0 00-4.26-4.77 30 30 0 005.46-3.74 29.7 29.7 0 00-3.53-2.76l4.13-4.21a28.75 28.75 0 013.87 2.71 12.67 12.67 0 002.58-3.57h-7.95v-5.12h14.83l1.94 2.07a35.25 35.25 0 01-4.13 7.31h8.81a28.06 28.06 0 01-5.07-8.47l5.46-2.07a26.89 26.89 0 001.85 3.57 21.44 21.44 0 002.62-3.27l4.52 2.84c.17.09.47.3.47.52 0 .51-.73.55-1.16.55-1.42 1.81-2.58 3.14-3.1 3.66.48.56.82.9 1.16 1.25a53.18 53.18 0 003.92-4.65l4 2.71c.34.26.77.52.77.82 0 .56-.64.6-1.29.64a32.37 32.37 0 01-3.7 3.87 29.71 29.71 0 006.07 4c-1.77 1.29-3.83 4.9-4 5.12a46.6 46.6 0 01-4-2.84v11.48h-3.09c.3.13.47.3.47.6s-.43.69-.9.74a16.89 16.89 0 01-.91 2.36h10.54v5.2h-39v-5.2h11c-.17-.52-.82-2.19-1.2-3.14l2.1-.56zm6.41-16c-1.12 1.2-1.55 1.68-3.49 3.48h22.71a40 40 0 01-4.48-4v2.24h-14.74zm-.22 8.3v2.75h14.49v-2.75zm4 7.65c.39.95.69 1.68 1.21 3.27l-1.55.43h5.8a30.92 30.92 0 001.29-3.7zm41.75-14.18h-3.14v2.24h4.3v5.46h-4.3v5.84A25.31 25.31 0 00421 138l4.9 1c.26 0 .65.13.65.56s-.65.6-1.25.64c-.17.65-.26.86-.86 2.67a50.78 50.78 0 008.56-3.06v-7.05h-3.1a43.29 43.29 0 013 5.51 40.22 40.22 0 00-4.64 3 35.42 35.42 0 00-3.1-5.85l4.39-2.71h-4.9v-5.07h13.55V126h-10.88v-4.6h10.88v-1.64h-12.94v-5.24h19.09v13.2H447v5.07h-5.11l4.77 2.32a.72.72 0 01.47.61c0 .43-.3.51-1.12.64a38.92 38.92 0 01-3.48 5.12 31.63 31.63 0 005.38 4.34 20.64 20.64 0 00-3.53 5.46 37.06 37.06 0 01-5.76-5.85v3.66c0 4.26-2.8 4.26-7.91 4.26a20 20 0 00-2.2-5.81c-.43.22-.56.26-1.16.52 0 .81-.13 1.54-.86 1.54a.68.68 0 01-.51-.47l-1.55-6.19a19.89 19.89 0 01-.9 2.19 17 17 0 00-4.05-1v2c3.14-.6 4.05-.82 4.86-1a17.52 17.52 0 00-.56 5.37c-5.46 1.21-9.89 1.94-14.06 2.54-.08.65-.21 1.21-.81 1.21-.39 0-.48-.35-.52-.65l-1-5.93c1.76-.09 4.77-.43 6.37-.61v-2a28.25 28.25 0 00-4.52 1.54A41.17 41.17 0 00407 140l4.86-1.55a50.29 50.29 0 011.85 5.24v-6.4h-5.61v-5.46h5.64v-2.24h-3.36V128a15.39 15.39 0 00-4.51-4.26 19.68 19.68 0 008.25-9.59l6.11 1.2c.47.09.64.22.64.48 0 .47-.47.73-1 .77a32.37 32.37 0 006.24 6 17.86 17.86 0 00-3.53 2.79zm-2.53-5a20.29 20.29 0 01-3.23-3.87c-1 1.33-1.68 2.23-3.05 3.87zM433 145.3c-1.08.61-2.67 1.47-4 2 .39 0 2.45.25 2.71.25 1.25 0 1.25-.86 1.25-1.37zm5.63-8.9c.08.13.21.39.3.56a24.42 24.42 0 002.28-4.17h-2.58zM50 179.01h500v45.77H50z" fill="#fff"/><path class="cls-1" d="M182.47 195.52h-7.2l-.63 3.33A5.75 5.75 0 01178 198c2.69 0 5.63 1.66 5.63 5.42 0 3.55-2.52 6.07-7 6.07-6 0-6.63-3.76-6.86-5.09h4c.39 1.94 2.56 1.94 3 1.94 1.91 0 3.1-1.12 3.1-2.75a2.75 2.75 0 00-2.92-2.82 3.21 3.21 0 00-2.45.86h-4.14l1.7-9.15h10.52zm14.64 8.21a10.4 10.4 0 01-4.14 6.92 9.45 9.45 0 00-2.62-2.2c3.84-2.56 3.8-6.55 3.8-8.65v-8h13.14v15.6c0 2.27-.54 3.17-4.72 3a9.54 9.54 0 00-1-3.44 12.2 12.2 0 001.72.23c.71 0 .76-.44.76-1.2v-2.26zm6.89-7.44v-1.49h-6.66v1.49zm0 4.41v-1.51h-6.66v1.51zm19 9.85h-3.19v-6.11h-4.26v.86h-3.28v-10.12h7.54v-3.86l3.46.19c.11 0 .34 0 .34.25s-.3.31-.61.35v3.07h7.54v10.12h-3.22v-.86H223zM219.77 198h-4.26v3.41h4.26zm3.19 3.41h4.32V198H223zm28.49-7.81c0 15.9-.33 17.41-6 17.14a6.28 6.28 0 00-1.45-3 18.75 18.75 0 002.18.16c.67 0 1.64 0 2-2.18a74.22 74.22 0 00.38-9.24H238c-.4.82-.53 1.09-.66 1.32h8.26v9.72h-6.16v.8h-3v-8.92a16.28 16.28 0 01-1.32 1.76 7.18 7.18 0 00-2.78-1.49 15.94 15.94 0 004.31-8.73l3 .61c.25 0 .59.12.59.4s-.27.29-.73.4c-.11.35-.15.54-.38 1.25zm-12 8.05h3.13v-1.22h-3.13zm3.13 2.18h-3.13v1.26h3.13zm14.17 2.08V201a12.83 12.83 0 01-1.7 1.15 10.6 10.6 0 00-2.08-2.33 13.87 13.87 0 002.67-1.83 16.83 16.83 0 00-1.72-1.34l2-2.06a14.38 14.38 0 011.89 1.32 6 6 0 001.26-1.74h-3.87v-2.5h7.24l.94 1a16.62 16.62 0 01-2 3.57h4.3a13.78 13.78 0 01-2.47-4.13l2.66-1a11.86 11.86 0 00.91 1.74 11.21 11.21 0 001.28-1.6l2.2 1.39c.08 0 .23.15.23.25 0 .25-.36.27-.57.27a22.49 22.49 0 01-1.52 1.84c.23.27.4.44.57.61a25.35 25.35 0 001.91-2.27l1.95 1.32c.17.13.38.26.38.4s-.31.3-.63.32a17 17 0 01-1.8 1.89 14.34 14.34 0 003 1.95 10.23 10.23 0 00-1.94 2.5c-.31-.19-1-.65-1.93-1.39v5.61h-1.51a.3.3 0 01.23.29c0 .21-.21.34-.44.36a6.9 6.9 0 01-.44 1.15h5.14v2.55h-19.1v-2.55h5.35c-.08-.25-.4-1.07-.58-1.53l1-.27zm3.13-7.79c-.55.59-.76.82-1.7 1.7h11.08a20.4 20.4 0 01-2.18-2v1.09h-7.2zm-.11 4v1.35h7.08v-1.35zm2 3.74c.19.46.33.82.58 1.59l-.75.21h2.83a13.64 13.64 0 00.63-1.8zm20.35-6.86h-1.54v1.09h2.1v2.67h-2.1v2.85a12.12 12.12 0 00.74-2.5l2.39.49c.13 0 .32.06.32.27s-.32.29-.61.31c-.09.32-.13.42-.42 1.31a26 26 0 004.18-1.49v-3.45h-1.49a22.52 22.52 0 011.47 2.69 19.21 19.21 0 00-2.27 1.49 17.41 17.41 0 00-1.51-2.85l2.14-1.33h-2.4V198h6.62v-.84h-5.31V195h5.31v-.8h-6.32v-2.56h9.32V198H294v2.48h-2.5l2.33 1.14a.33.33 0 01.23.29c0 .21-.14.25-.54.32a18.56 18.56 0 01-1.7 2.49 15.14 15.14 0 002.62 2.12 10.21 10.21 0 00-1.72 2.67 17.68 17.68 0 01-2.81-2.86v1.79c0 2.08-1.37 2.08-3.87 2.08a9.57 9.57 0 00-1.07-2.84c-.21.11-.27.13-.56.26 0 .39-.07.75-.42.75a.34.34 0 01-.26-.23l-.75-3c-.23.63-.3.75-.44 1.07a7.9 7.9 0 00-2-.48v1c1.54-.29 2-.4 2.38-.5a8.35 8.35 0 00-.28 2.62c-2.66.59-4.82 1-6.86 1.24 0 .32-.11.59-.4.59s-.23-.17-.25-.32l-.49-2.89c.86 0 2.34-.21 3.11-.3v-1a12.92 12.92 0 00-2.2.75 20.84 20.84 0 00-1.07-3.21l2.37-.76a22.92 22.92 0 01.9 2.57v-3.13H275v-2.67h2.75V199h-1.64v-.8a7.59 7.59 0 00-2.2-2.08 9.62 9.62 0 004-4.68l3 .59c.23 0 .32.1.32.23s-.23.36-.49.38a16.37 16.37 0 003 2.92 8.1 8.1 0 00-1.72 1.36zm-1.24-2.46a10.22 10.22 0 01-1.58-1.89c-.48.65-.82 1.09-1.49 1.89zm6.3 10.12c-.53.3-1.31.72-1.93 1 .18 0 1.19.13 1.32.13.61 0 .61-.42.61-.68zm2.75-4.34c0 .06.1.19.14.27a11.38 11.38 0 001.12-2h-1.26zm18.94 3.21V210h-2.67v-4.51h-1.55a8 8 0 01-3.21 5 6.13 6.13 0 00-2.35-1.56v1.51h-3v-18.68h8.8v7.3h-5.79v9.85a4.94 4.94 0 002.89-3.38h-2.16v-2.33h2.44v-1.24h-1.93v-2.2h10.18V202h-1.66v1.24H311v2.33zm-6.8-11.69h-3v.77h3zm0 2.37h-3v.8h3zm4.13 5.79h-1.3v1.24h1.34zm4.5 8.57a7.2 7.2 0 00-1.12-3.07 6.17 6.17 0 001.22.17c.4 0 .84 0 .84-.73v-7.84h-5.84v-7.3h8.84v16.33c0 1.87-1.19 2.42-3.94 2.4zm.94-16.69h-3v.77h3zm0 2.37h-3v.8h3zm5.13 1.16v-2.73h1.83c.25-1.79.31-2.59.35-3.34l2.82.42c.33 0 .42.12.42.27s-.13.23-.53.29c-.13 1.2-.19 1.75-.29 2.36h3.12a30.57 30.57 0 01-1.23 9 20.83 20.83 0 012.12 3 20.08 20.08 0 00-2.44 1.7 8.13 8.13 0 00-1-1.72 15.08 15.08 0 01-2.89 3.91 7.38 7.38 0 00-2.61-1.47 17.27 17.27 0 003.61-4.75l-.86-.86c-.18.42-.25.55-.33.71a7 7 0 00-2.56-1.07 25.76 25.76 0 001.8-5.64zm4.11 0c-.33 1.51-.4 1.74-.79 3.21l1 .86a18.24 18.24 0 00.52-4.07zm12.37-3.53a29.34 29.34 0 013.09 6.3 11.06 11.06 0 00-2.56 1.34c-.36-.94-.47-1.15-.59-1.49-1.64.17-2 .19-7.65.57 0 .17-.06.56-.37.56s-.3-.19-.32-.37l-.33-3h1.78a35.1 35.1 0 001.64-6.45l3.17.59c.23 0 .36.09.36.25s-.09.28-.57.38c-.21.67-1.09 3.59-1.28 4.18-.15.44-.25.69-.34.92l2.69-.16c-.78-1.5-1-1.89-1.26-2.27zm-4.79 15.87v.74h-2.92v-8.82h9.56v8.82h-3v-.74zm3.64-2.75v-2.6h-3.64v2.6zm23.62-8.4l1.53 1.53a29.29 29.29 0 01-4.95 6.26 7.31 7.31 0 00-2.52-2 12.23 12.23 0 002.67-2.79H349v6.4c0 2.35-1.47 2.62-4.85 2.56a7.06 7.06 0 00-1-3.09 8.62 8.62 0 001.7.17c.91 0 1-.29 1-1.24v-4.83h-8.06v-3h8.67a38.5 38.5 0 00-4.58-1.85l2-2.18h-4.12v-2.69h13.71l1.18 1.62a31.1 31.1 0 01-4.6 3.59 10.34 10.34 0 011.18.71 11.55 11.55 0 00-1 .8zm-11.63-4c.38.15 2 .71 3.13 1.16a13.15 13.15 0 001.55-1.16zm25.91 6.94h5.52v2.75H370v3.13h2a60 60 0 006.47-.36 7 7 0 00-.75 3.28h-8.21a7.2 7.2 0 01-6.2-2.94 15.52 15.52 0 01-2 3.32 6.17 6.17 0 00-3-1.3 14.73 14.73 0 003.57-8.69l3.23.56c.19 0 .42.09.42.34s-.13.25-.59.42c-.1.52-.21 1-.48 2a4.52 4.52 0 002.35 2.73v-7.26h-5.44V198h-2.62v-4.87h7.95v-2l3.22.21c.29 0 .56 0 .56.25s-.1.25-.56.46v1H378v4.79h-2.44v1.68H370zm4.85-4.64v-1.22h-13.06v1.22zm23.69-1.72c-5.19-.08-9.68 4.58-9.68 8 0 2.43 3.09 3.63 5.94 3.69a28 28 0 00-1.57 3.83c-1.7-.47-7.73-2.15-7.73-7.16a9.57 9.57 0 013.86-7.23 58.25 58.25 0 00-8.69 1.32l-.48-3.94a67 67 0 009.34-.49 49.7 49.7 0 008.42-1.53zm-3.49 3a13.29 13.29 0 012 2.25c-.59.42-.89.65-1.62 1.26a17.28 17.28 0 00-1.87-2.38zm2.21-1.49a13 13 0 011.87 2.2c-.53.4-.89.72-1.54 1.31a15.22 15.22 0 00-1.86-2.38zm15.31-5.02c.33.05.52.07.52.23s-.25.32-.42.36c0 .38-.06.63-.1 1.47 5.92-.25 6.57-.27 7-.31 0 .44-.06 2.51 0 3.38-3.8-.19-5.4-.19-6.93-.17a17.91 17.91 0 000 2.33 6.87 6.87 0 011.22 4 9.93 9.93 0 01-4.86 8.14 13.87 13.87 0 00-3.07-2.17c.63-.25 3.11-1.3 3.87-3a2.35 2.35 0 01-1.66.5 2.82 2.82 0 01-2.27-.94 5.32 5.32 0 01-.9-3.11c0-4.62 3.94-4.47 4.39-4.41v-1.18a56.42 56.42 0 00-8.38 1.1l-.23-3.55c.48 0 1.28 0 8.52-.44a20.36 20.36 0 00-.29-2.67zm-4.85 10.5c0 1.39.69 1.76 1.07 1.76.65 0 1-1 1-2 0-.48-.11-1.3-.95-1.3s-1.12.68-1.12 1.54zm20.35 5.04a3 3 0 11-3-3 3 3 0 013 3zm-4.62 0a1.65 1.65 0 001.66 1.66 1.66 1.66 0 10-1.66-1.66z"/></g></g></svg>