<svg xmlns="http://www.w3.org/2000/svg" width="240" height="120"><defs><style>.cls-1{fill:#ff5064}</style></defs><g id="レイヤー_2" data-name="レイヤー 2"><g id="レイヤー_1-2" data-name="レイヤー 1"><rect class="cls-1" width="240" height="120" rx="6.12"/><path d="M87.2 54.05v2.86h-19v-2.86zm12.14-7.7h6.21v4.74c0 .3.08.42.4.42.5 0 .67-.4.8-1.95a4 4 0 002.06.94c-.4 2.82-.91 3.13-2.21 3.13h-1.68a1.52 1.52 0 01-1.68-1.63v-3.47h-1.53c-.23 2.77-1 4.66-2.42 5.84a5.19 5.19 0 00-1.86-1.07v.82c.29 0 .46 0 .79-.09A12.49 12.49 0 0098 56l-.6.06v7.12c0 1.68-1.05 1.87-3.49 1.89a8.24 8.24 0 00-.78-2.42 6.46 6.46 0 001.45.17c.72 0 .72-.25.72-.88v-5.6a6.18 6.18 0 00-.78.09v5.12h-1.7v-5l-.61.07a23.19 23.19 0 01-1.55 8.42 3.93 3.93 0 00-2.17-1 16.89 16.89 0 001.64-7.16l-.5.06c-.11.23-.21.42-.4.42s-.21-.13-.23-.25l-.4-2.4h1.47v-6.87h2a15.5 15.5 0 00.74-2.21l2.62.28c.13 0 .25.1.25.23s-.29.31-.54.42c-.09.19-.44 1.09-.51 1.28h2.76V53a5.35 5.35 0 001.91-4.32zm-7.1 8.19l3.09-.21V50h-3.09zm2-4.06a23.42 23.42 0 01.8 3 16.3 16.3 0 00-1.85.39 13 13 0 00-.82-3zM98.52 57v-2.34h8l.9 1a14.89 14.89 0 01-3 5.39 11.15 11.15 0 003.84 1.89A11.84 11.84 0 00107 65a19 19 0 01-4.14-2.39A11.56 11.56 0 0199 65a6.64 6.64 0 00-1.49-2.2 8 8 0 003.55-1.8A12.28 12.28 0 0199 58l1.45-1zm2.58 0a8.56 8.56 0 001.6 2.44 8.66 8.66 0 001.49-2.44zm18.25-6.54a16.44 16.44 0 010-1.66h-4.56v-2.56h7.37c0 .49-.08 2.61-.08 3 0 2.12 0 9 8 14a7.25 7.25 0 00-2.29 1.93c-3.53-2.41-7.08-6.76-8-11.19a19.67 19.67 0 01-8.13 11.21 7.91 7.91 0 00-2.14-2c6.72-4.39 7.79-9.49 8.27-13.12zm20.92 8.44a18.64 18.64 0 01-2.78 2.73 4.41 4.41 0 00-1.7-1.24 14.35 14.35 0 001.81-1.47c-2.65 1.14-5 1.91-5.36 2 0 .27-.06.55-.33.55s-.25-.28-.32-.49l-.59-2.41a19.22 19.22 0 002.57-.57v-5.25h-2.36v-2.31h2.36V46l2.58.15c.25 0 .46 0 .46.25s-.11.25-.46.38v3.71h2.16v2.31h-2.16v4.43a15.72 15.72 0 002.29-1 6.11 6.11 0 00-.21 2.07 14.3 14.3 0 001.57-2.16h-2.14V54.3h12.64v1.83h-8.19a7.75 7.75 0 01-.44.78H150c0 1.22-.05 5.35-1.1 7.05-.56.93-1.89 1.09-2.87 1.09h-.78a7.69 7.69 0 00-.75-2.31 17.25 17.25 0 01-2.59 2.61 4.77 4.77 0 00-1.87-1.2 15.23 15.23 0 004.64-5.21h-.88a19 19 0 01-2.37 3 12.78 12.78 0 01-3.61 2.75 5 5 0 00-1.6-1.45 12.65 12.65 0 005.08-4.33zm8.35-5.31h-9.45v-7.28h9.45zm-2.31-4.43v-1h-4.66v1zm-4.66 1.58v1h4.66v-1zm5.17 8.16a20.13 20.13 0 01-2.19 3.61 10.46 10.46 0 001.39.13c.56 0 .84-.13 1-.8a11.74 11.74 0 00.46-2.94zm24.48-5.75v2.29h-3.21a11.6 11.6 0 003.67 2.08 7.52 7.52 0 00-1.55 2 10.7 10.7 0 01-2.63-1.52c0 .76-.18 4.64-1 5.84-.72 1-2.08 1.09-4 1.15a4.09 4.09 0 00-.8-2.5c.3 0 .93.11 1.41.11 1 0 1.64 0 1.78-3.3h-2.85a9 9 0 01-7.73 5.82 5 5 0 00-1.22-2.23c2.06-.25 4.75-.61 6.3-3.59h-3.13v-1.22a13.25 13.25 0 01-3 1.66 7.18 7.18 0 00-1.8-1.87 10.33 10.33 0 004.26-2.43h-3.7v-2.29h5.63c.25-.4.48-.82.72-1.26h-4.79v-2.27h2.69a16 16 0 00-2.08-2.77l2.2-1.07a12.49 12.49 0 012.37 3 11.4 11.4 0 00-1.63.8h2.1a15.74 15.74 0 00.71-3.86l2.77.23c.11 0 .32 0 .32.23s-.21.3-.53.4a28.77 28.77 0 01-.63 3h3.19a13.38 13.38 0 00-1.45-.63 11.45 11.45 0 001.94-3.27l2.54.94a.3.3 0 01.23.28c0 .23-.28.25-.57.29a21.31 21.31 0 01-1.47 2.39h3.4v2.27H165a9.62 9.62 0 00.82 1.26zm-4.93 3.91a13.83 13.83 0 01-1.64-1.62h-5.61a12.52 12.52 0 01-1.49 1.62zm-3.17-3.91a11.19 11.19 0 01-.63-1.26h-1.33c-.1.23-.23.53-.6 1.26zM65.12 15.54a4.38 4.38 0 01-.26 1.46 4 4 0 01-.86 1.35 4.2 4.2 0 01-1.56 1 6.28 6.28 0 01-2.31.39h-2.65v5.08H53.4V11.28h6.76a6.28 6.28 0 012.31.39 4.23 4.23 0 011.56 1 3.92 3.92 0 01.83 1.33 4.55 4.55 0 01.26 1.54zm-4.16 0a1.42 1.42 0 00-.57-1.32 4.15 4.15 0 00-2-.36h-.86v3.26h.88a6.89 6.89 0 001.51-.12 1.23 1.23 0 00.79-.47 1.59 1.59 0 00.29-.97zm19.53 3.21a6.32 6.32 0 01-.65 3 5.29 5.29 0 01-1.72 1.93 7.27 7.27 0 01-2.31 1 9.94 9.94 0 01-5.81-.27 6 6 0 01-2.72-2 5.76 5.76 0 01-1.09-3.66v-7.47h4.07v6.42a5.43 5.43 0 00.39 2.21 2.64 2.64 0 001.07 1.28 3.15 3.15 0 001.63.4 3.08 3.08 0 001.59-.4A2.64 2.64 0 0076 19.92a5.39 5.39 0 00.38-2.2v-6.44h4.09zM95.05 21a3.55 3.55 0 01-1.19 2.79 4.93 4.93 0 01-3.35 1.05h-7.82V11.28h6.54a8.46 8.46 0 012.21.25 4.38 4.38 0 011.52.66 2.74 2.74 0 01.86 1 2.78 2.78 0 01.29 1.26 3.35 3.35 0 01-1 2.4 2.61 2.61 0 01-.87.57 5.4 5.4 0 012.12 1.39 3.17 3.17 0 01.69 2.19zm-4.76-5.8a1.31 1.31 0 00-.65-1.3 4.65 4.65 0 00-2-.32h-.86v3.22h.88a4.77 4.77 0 002-.32 1.34 1.34 0 00.63-1.3zm.71 5.61q0-1.74-2.52-1.74h-1.71v3.47h1.66c1.68 0 2.57-.54 2.57-1.73zm16 4.01H96.67V11.28h4.08v10.29H107zm5.43 0h-4.08V11.28h4.08zM127 23.8a9.61 9.61 0 01-1.71.7 10.09 10.09 0 01-1.78.38 15.72 15.72 0 01-1.85.11 9.5 9.5 0 01-3.17-.49 6.76 6.76 0 01-2.49-1.44 6.09 6.09 0 01-1.54-2.22A7.5 7.5 0 01114 18a7.26 7.26 0 01.6-3.06 6 6 0 011.7-2.19 7.4 7.4 0 012.48-1.28 10 10 0 012.93-.41 16.09 16.09 0 015.23 1v3.59a15.87 15.87 0 00-2-1 6.07 6.07 0 00-2.31-.41 5.31 5.31 0 00-2.21.47 4.1 4.1 0 00-1.65 1.34 3.42 3.42 0 00-.62 2 3.46 3.46 0 00.54 1.88 3.84 3.84 0 001.52 1.35 4.65 4.65 0 002.19.51 7.1 7.1 0 001.87-.24 8.88 8.88 0 001.48-.53 13.1 13.1 0 001.23-.7zm20.56-5.51a6.48 6.48 0 01-.75 3.34 7.15 7.15 0 01-1.79 2 6.38 6.38 0 01-4.02 1.19h-7.3V11.28h5.62a16.52 16.52 0 012.17.13 9.59 9.59 0 011.63.37 6.47 6.47 0 011.23.54 6.37 6.37 0 01.91.64 6 6 0 011.21 1.34 6.28 6.28 0 01.83 1.79 7.36 7.36 0 01.26 2.2zm-4.15-.17a4.56 4.56 0 00-.63-2.58 3.1 3.1 0 00-1.51-1.23 5.33 5.33 0 00-1.8-.31h-1.74v8h1.74a5 5 0 002.77-.76c.76-.5 1.17-1.54 1.17-3.12zm20.59 6.7h-4.18l-1.11-2.75h-5.88l-1.12 2.75h-4.18l6-13.54H158zm-6.23-5.1l-2-4.94-2 4.94zM178 11.28l-5.31 7.34v6.2h-4.08v-6.13l-5.4-7.41h4.24l3.1 4.26 3.12-4.26zm10.22 9.6a3.75 3.75 0 01-.64 2.2 4.14 4.14 0 01-1.82 1.42 6.71 6.71 0 01-2.66.49h-1a12.62 12.62 0 01-1.62-.3 12.26 12.26 0 01-2.11-.72V20.6a15.66 15.66 0 002 1 5.38 5.38 0 002.12.42 1.84 1.84 0 001.35-.34 1 1 0 00.31-.65 1.11 1.11 0 00-.52-.93 7.53 7.53 0 00-1.54-.77 13.57 13.57 0 01-2-1 4.54 4.54 0 01-1.33-1.33 3.49 3.49 0 01-.54-2 3.6 3.6 0 012.18-3.39 6.28 6.28 0 012.7-.52 9.18 9.18 0 012.09.22 8.9 8.9 0 011.59.49 5.51 5.51 0 01.86.43v3.17a11.32 11.32 0 00-1.85-1.06 5.21 5.21 0 00-2.18-.47 1.74 1.74 0 00-1.11.29.92.92 0 00-.34.72.89.89 0 00.34.7 6.55 6.55 0 001.22.71 24.46 24.46 0 012.5 1.32 4.82 4.82 0 011.47 1.39 3.23 3.23 0 01.53 1.88zM15 0v20l10-10 10 9V0H15zm5 35h200v1H20zM10 78h220v35H10z" fill="#fff"/><path class="cls-1" d="M93.35 85.89v2.19H81.61v-2.19zm6.42 5.28a4.49 4.49 0 002-.94 7.69 7.69 0 01-1.12-1.57l.85-.6h-1.1v-1.73h5l.61.68a10.14 10.14 0 01-1.79 3.25 6 6 0 002.22 1 9.05 9.05 0 00-.94 1.56 12.2 12.2 0 01-2.45-1.41 6.94 6.94 0 01-2.33 1.34 4.71 4.71 0 00-1-1.52v.42c0 1.08-.74 1.17-2.26 1.18a6.3 6.3 0 00-.59-1.76 3.5 3.5 0 00.9.13c.44 0 .44-.16.44-.54v-3.12a1.87 1.87 0 01-.35 0v3.11h-1.03v-3h-.26a15.73 15.73 0 01-.89 5 2.73 2.73 0 00-1.56-.65 12.32 12.32 0 00.93-4.1.35.35 0 01-.14 0c-.09.17-.17.27-.27.27a.14.14 0 01-.13-.13l-.3-1.74h.8v-4.18h1.23c.09-.22.3-.75.46-1.3l1.93.18c.08 0 .13.07.13.12s-.24.26-.33.29c-.09.19-.22.52-.31.71h1.65v3a3.09 3.09 0 001-2.45v-1.42h4.06v2.83c0 .15 0 .25.14.25s.31-.74.35-1.14a3.25 3.25 0 001.5.67c-.25 1.68-.45 2-1.34 2h-1.32a1 1 0 01-1-1.07v-1.93h-.61a5.2 5.2 0 01-1.43 3.36 3.34 3.34 0 00-1.3-.78V86h.47c0 .27 0 1.1-.07 1.43h-.4zm-3.2-7.07l1.25-.24a18.08 18.08 0 01.44 1.76v-1.93h-1.69zm0 2.1c.43 0 1.25-.07 1.69-.11v-.39A7.8 7.8 0 0097 86a8.66 8.66 0 00-.38-1.59zm5.74 1.86a4.4 4.4 0 00.65 1 4.66 4.66 0 00.62-1zm10.84-4.21v-.86h-2.84v-1.91h5c0 .34-.09 1.83-.09 2.13a9.53 9.53 0 004.77 8.35 5.14 5.14 0 00-1.7 1.42 12.29 12.29 0 01-4.71-6.56A11.77 11.77 0 01108.6 93a5.63 5.63 0 00-1.6-1.46 9.85 9.85 0 005-7.89zm12.96 5.4a9.31 9.31 0 01-1.53 1.57 3.21 3.21 0 00-1.23-.87c.24-.18.43-.33.73-.59-.8.35-1.79.73-2.85 1.08 0 .16 0 .34-.19.34s-.18-.17-.21-.3l-.44-1.83a10.34 10.34 0 001.47-.27v-3h-1.34v-1.65h1.34V81l1.92.1c.16 0 .28 0 .28.15s-.08.15-.28.24v2.21h1.16v1.69h-1.16v2.37l.82-.35h-.09v-1.28h7.88v1.31h-5l-.25.41h5.19c0 1.32 0 3.92-.89 4.58a3.61 3.61 0 01-2.14.43 4 4 0 00-.35-1.4 10.13 10.13 0 01-1.55 1.62 3.27 3.27 0 00-1.38-.83 9.07 9.07 0 002.75-3h-.59a9.07 9.07 0 01-3.42 3.44 3.38 3.38 0 00-1.14-1 8.07 8.07 0 003-2.4zm-1.18-1.81a5.09 5.09 0 00-.09 1.16 9.63 9.63 0 00.79-1.16zm6.55-1.74h-6.07v-4.58h6.07zm-1.76-2.79v-.44h-2.56v.44zm-2.56 1v.45h2.56V84zm3.07 5.3a13.64 13.64 0 01-1 1.8 3.55 3.55 0 00.46 0c.26 0 .49 0 .58-.33a6.5 6.5 0 00.24-1.5zm15.16-3.8v1.64h-1.47a5.46 5.46 0 001.81 1 5.25 5.25 0 00-1.08 1.4 5.82 5.82 0 01-1.43-.8c0 1-.16 3.15-.73 3.65a3.72 3.72 0 01-2.41.5 2.76 2.76 0 00-.51-1.8c.42 0 .67.07.84.07.52 0 .9 0 1-1.6H140a5.85 5.85 0 01-5 3.43 3.47 3.47 0 00-.87-1.62c1.57-.11 3-.46 3.81-1.81h-1.76v-.77a7.68 7.68 0 01-1.74 1 5.09 5.09 0 00-1.26-1.37 8.16 8.16 0 002.32-1.22h-1.92v-1.7h3.35c.13-.22.2-.38.31-.61h-2.72v-1.56h1.11a6.2 6.2 0 00-1.2-1.48l1.66-.83a8 8 0 011.51 1.82 7.69 7.69 0 00-1 .49h1.24a9.61 9.61 0 00.39-2.33l2 .16c.07 0 .2 0 .2.15s-.14.17-.34.25c-.08.5-.17 1-.35 1.77h2c-.33-.14-.72-.29-1-.39a6.82 6.82 0 001.06-2l1.88.72s.14.08.14.15-.1.16-.36.19a12.25 12.25 0 01-.78 1.31h1.87v1.58h-2.6a7.1 7.1 0 00.39.61zm-3.21 2.39c-.44-.4-.69-.69-.76-.75h-3.53c-.27.32-.47.54-.68.75zm-1.85-2.39a5.29 5.29 0 01-.28-.61h-.82c-.07.16-.13.31-.29.61zM149.9 82c.1 0 .17.09.17.18s-.25.18-.36.19a17.74 17.74 0 00-.79 5 8.76 8.76 0 00.1 1.3l.61-.93a5.52 5.52 0 00.93 1.29 5.81 5.81 0 00-1.08 3.19l-1.74.32a18.42 18.42 0 01-.7-5.24 23.3 23.3 0 01.78-6zm6.18-.29c.06 0 .16 0 .16.14s-.18.2-.29.21a12.14 12.14 0 00-.13 1.56 11.26 11.26 0 001.92-.48v2c-.3.08-.9.22-2 .42a20.56 20.56 0 00.21 3 7.26 7.26 0 012.47 1.34c-.21.37-.6 1.22-.88 1.83a4.89 4.89 0 00-1.39-1c-.06 1.67-1.72 1.86-2.54 1.86-1.95 0-2.92-1.06-2.92-2.27 0-1.55 1.53-2.14 3.22-2.1-.1-1.48-.12-1.65-.14-2.4-.74.06-1.28.06-1.5.06a8.5 8.5 0 01-1 0v-2a12.34 12.34 0 002.44.09v-2.53zm-2.7 8.06c-.28 0-.91.09-.91.49s.43.48.85.48c.1 0 .88 0 .88-.63a.44.44 0 000-.17 1.79 1.79 0 00-.82-.2zM32.15 97.64h2.32v6.16h1.59v2h-1.59v2.11h-2.35v-2.11h-4.86v-2zm0 6.16v-3.6l-2.86 3.6zm12.19.83a6.44 6.44 0 01-2.56 4.29 5.87 5.87 0 00-1.63-1.36 5.81 5.81 0 002.36-5.36v-4.92h8.14v9.63c0 1.4-.34 2-2.93 1.86a5.83 5.83 0 00-.65-2.13 7.17 7.17 0 001.07.14c.44 0 .46-.27.46-.74v-1.41zM48.6 100v-.92h-4.12v.92zm0 2.73v-.93h-4.12v.93zm16.83 5.15h-8.74c.17-2.27 1.44-3.21 4.2-5.08 2.11-1.43 2.11-1.73 2.11-2.27 0-1-1-1.23-1.71-1.23-1.76 0-1.94 1.25-2 2.1h-2.42a3.92 3.92 0 01.81-2.59 4.42 4.42 0 013.6-1.46c3 0 4 1.64 4 3.14a3.05 3.05 0 01-.57 1.78 19 19 0 01-3.37 2.73 7.68 7.68 0 00-1.34 1h5.41zm9.8-2.88a2.91 2.91 0 01-1.17 2.38 5.85 5.85 0 01-3.16.79 5.7 5.7 0 01-3.16-.79 2.89 2.89 0 01-1.18-2.38 2.59 2.59 0 012-2.55 2.42 2.42 0 01-1.62-2.29 2.57 2.57 0 011.06-2.1 5.47 5.47 0 013-.71c3.65 0 3.94 2.2 3.94 2.81a2.42 2.42 0 01-1.61 2.29 2.6 2.6 0 011.9 2.55zm-6.23-.27c0 1.1 1 1.48 1.93 1.48s1.91-.38 1.91-1.48c0-.42-.22-1.49-1.91-1.49S69 104.3 69 104.73zm.34-4.18c0 .17 0 1.24 1.58 1.24s1.58-1 1.58-1.22c0-.47-.3-1.27-1.57-1.27s-1.62.78-1.62 1.25zM83 107.63v.71h-2V97.73h9.32v10.61h-2v-.71zm5.24-5.92v-2.17H83v2.17zm0 4.06v-2.31H83v2.31zm9.63 3.86a10.93 10.93 0 010-12h1.78a12.81 12.81 0 000 12zm12.95-6.69h4v1.64h-2.34l1.66.67c.12 0 .2.07.2.15s-.21.17-.42.18a9.42 9.42 0 01-.62 1.41h2v1.6h-10.94V107h2.17a6.62 6.62 0 00-1-1.72l1.27-.69h-1.9v-1.64h4v-.72h-1.87v-.91c-.86.54-1.09.7-2.16 1.28a6.77 6.77 0 00-1.5-1.48c3.62-1.55 5.26-3.48 5.65-4.21l2.12.23c.08 0 .17 0 .17.13s-.13.2-.26.24a12.91 12.91 0 005.32 3.43 6 6 0 00-1.43 1.69 11.16 11.16 0 01-2.29-1.31v.91h-1.85zm-1.9 1.64h-1.65a8.8 8.8 0 011.07 1.76c-.55.3-.79.44-1.11.65h1.69zm2.7-4a9.45 9.45 0 01-1.72-1.6 11.68 11.68 0 01-1.76 1.6zm-.8 6.45h1.59a10.3 10.3 0 00-1-.51 7.54 7.54 0 00.94-1.9h-1.51zm9.31 2.6a12.81 12.81 0 000-12h1.78a11 11 0 010 12zm18.23-7.15h-.77v1H140v1.69h-2.4v1.36c0 .46 0 .52.52.52h.71c.39 0 .64-.13.89-1.35a10 10 0 001.66.91c-.5 1.6-.78 2.13-2.2 2.13h-1.91c-1.5 0-1.5-1.06-1.5-1.4v-2.17h-1.19a5.14 5.14 0 01-4 3.75 7.72 7.72 0 00-1.06-1.53 3.93 3.93 0 003.18-2.22h-2.17v-1.69H133v-1h-.63v-.55a9.89 9.89 0 01-2.17 1.46 5.22 5.22 0 00-1.31-1.3 7.91 7.91 0 002-1.1 11.86 11.86 0 00-1.16-1l.94-.88h-.56v-1.6h4.7l.43.61a7.81 7.81 0 01-1.68 2.6h3.76a11.92 11.92 0 01-2.05-3.11l1.45-.71c.26.44.43.69.64 1a5.15 5.15 0 00.74-1l1.34.89s.13.09.13.18-.21.19-.29.19h-.2a9.75 9.75 0 01-.84 1l.38.38a10.52 10.52 0 001.06-1.34l1.37 1a.29.29 0 01.13.2c0 .13-.22.18-.4.16a9.56 9.56 0 01-.9 1 8.37 8.37 0 001.63.9 5.44 5.44 0 00-1.21 1.56 7.48 7.48 0 01-2-1.41zm-7.09-3.41a9.07 9.07 0 01.89.72 4.82 4.82 0 00.49-.72zm3.48 3.41v1h1v-1zm13.32 1.43c.1 0 .18 0 .18.14s-.27.23-.4.23a5.18 5.18 0 01-4.35 4.85 3.54 3.54 0 00-1.21-1.63c2.68-.55 3.58-1.38 3.61-3.87zm6.09-5.83v1.58h-4.9v.4h3.57v1.51h-9.14v-1.51h3.55v-.4h-4.88v-1.58h4.88V97l2.1.08c.08 0 .2 0 .2.16s-.15.18-.28.26v.62zm-.11 3.85v2.72h-2v-1.21h-7.54v1.27h-2v-2.78zm-3.88 6.77c-.56 0-1.6 0-1.6-1.52v-3.46h1.94c.12 0 .3 0 .3.17s0 .13-.3.25v2.25c0 .48.12.57.4.57h.84a.56.56 0 00.66-.54c.05-.3.12-.81.17-1.12a3.3 3.3 0 001.79.85c-.13 1.15-.28 2.51-1.92 2.51zm16.29-7.24l.95 1a18.54 18.54 0 01-3.07 3.88 4.46 4.46 0 00-1.56-1.27 7.32 7.32 0 001.65-1.72h-2.13v4c0 1.46-.91 1.63-3 1.59a4.38 4.38 0 00-.64-1.91 5.33 5.33 0 001.05.1c.56 0 .63-.18.63-.76v-3h-5v-1.84h5.37a23.14 23.14 0 00-2.84-1.14l1.25-1.39h-2.55v-1.7h8.49l.73 1a19.05 19.05 0 01-2.85 2.23 6.11 6.11 0 01.73.44c-.2.14-.35.25-.64.49zm-7.2-2.46c.23.09 1.25.44 1.94.71a10 10 0 001-.71zm16.06 4.28h3.41V105h-3.41v1.93h1.2a37.08 37.08 0 004-.22 4.32 4.32 0 00-.47 2H175a4.47 4.47 0 01-3.84-1.82 9.86 9.86 0 01-1.22 2 3.91 3.91 0 00-1.86-.81 9 9 0 002.21-5.38l2 .35c.12 0 .26.06.26.21s-.07.16-.36.26c-.07.33-.13.65-.3 1.27a2.8 2.8 0 001.46 1.7v-4.5H170v-1h-1.63v-3h4.93v-1.13l2 .13c.18 0 .35 0 .35.16s-.06.15-.35.28v.65h5v3h-1.51v1h-3.41zm3-2.87v-.75h-8.1v.75zM193 99.34c-3.21 0-6 2.84-6 4.94 0 1.51 1.91 2.25 3.68 2.29a16.91 16.91 0 00-1 2.37c-1.05-.29-4.78-1.33-4.78-4.44a5.9 5.9 0 012.39-4.47 36.37 36.37 0 00-5.38.82l-.3-2.44a41.88 41.88 0 005.78-.3 31.59 31.59 0 005.22-1zm-2.16 1.85a8.26 8.26 0 011.21 1.39c-.36.26-.55.4-1 .78a10.3 10.3 0 00-1.16-1.47zm1.37-.92a8.28 8.28 0 011.15 1.36c-.32.25-.54.44-1 .81a9.26 9.26 0 00-1.15-1.47zm9.44-3.1c.21 0 .33 0 .33.15s-.16.19-.26.22c0 .23 0 .39-.07.91 3.67-.16 4.07-.17 4.32-.2v2.09c-2.35-.11-3.34-.11-4.29-.1a10.26 10.26 0 000 1.44 4.3 4.3 0 01.75 2.5 6.15 6.15 0 01-3 5 8.54 8.54 0 00-1.9-1.34 4.69 4.69 0 002.4-1.87 1.48 1.48 0 01-1 .31 1.72 1.72 0 01-1.4-.59 3.23 3.23 0 01-.56-1.92 2.44 2.44 0 012.71-2.73v-.73a34.69 34.69 0 00-5.19.68l-.14-2.2c.3 0 .79 0 5.27-.27a13.89 13.89 0 00-.18-1.65zm-3 6.5c0 .86.43 1.09.66 1.09.41 0 .64-.59.64-1.24 0-.3-.07-.81-.58-.81s-.72.43-.72.96zm12.6 3.12a1.84 1.84 0 11-1.84-1.83 1.84 1.84 0 011.84 1.83zm-2.86 0a1 1 0 001 1 1 1 0 100-2 1 1 0 00-1 1z"/></g></g></svg>