<svg xmlns="http://www.w3.org/2000/svg" width="600" height="240"><defs><style>.cls-1{fill:#ff5064}</style></defs><g id="レイヤー_2" data-name="レイヤー 2"><g id="レイヤー_1-2" data-name="レイヤー 1"><path class="cls-1" d="M595 0H96v57.6L72 30.32 48 60.63V0H5C2.25 0 0 2.84 0 6.32v227.36c0 3.48 2.25 6.32 5 6.32h590c2.75 0 5-2.84 5-6.32V6.32c0-3.48-2.25-6.32-5-6.32z"/><path d="M221.27 129.72v6.86h-45.51v-6.86zm29.14-18.49h14.91v11.39c0 .7.21 1 1 1 1.21 0 1.61-1 1.92-4.69 2.16 1.51 2.87 1.91 4.94 2.27-1 6.75-2.17 7.51-5.3 7.51h-4a3.64 3.64 0 01-4-3.93v-8.32h-3.78c-.55 6.65-2.52 11.19-5.79 14a13.18 13.18 0 00-4.49-2.57v2c.71-.11 1.11-.11 1.91-.21a27.78 27.78 0 00-.45 4.79l-1.46.15v17.08c0 4-2.52 4.48-8.37 4.53a19.27 19.27 0 00-1.86-5.79 16.15 16.15 0 003.48.4c1.71 0 1.71-.6 1.71-2.12v-13.5c-.3 0-1.61.15-1.86.2v12.3h-4.09v-11.9l-1.46.15c0 7.82-1.81 16-3.73 20.21a9.39 9.39 0 00-5.19-2.52c2.72-4.83 3.73-11.84 3.93-17.18l-1.21.15c-.25.55-.5 1-1 1-.25 0-.5-.31-.55-.61l-1-5.74c.86 0 1.21 0 3.53-.1v-16.37h4.84a38.73 38.73 0 001.76-5.3l6.3.66c.3 0 .61.25.61.55 0 .51-.71.76-1.31 1-.2.45-1.06 2.62-1.21 3.08h6.6v12.34a12.83 12.83 0 004.59-10.38zm-17 19.65c4.13-.25 4.59-.3 7.41-.5V120h-7.41zm4.69-9.72a56.45 56.45 0 011.91 7.2 35 35 0 00-4.43 1 32.3 32.3 0 00-2-7.26zm10.38 15.57v-5.54h19.3l2.17 2.31a35.91 35.91 0 01-7.16 13A27.43 27.43 0 00272 151a28.69 28.69 0 00-3.18 5.09 46.33 46.33 0 01-9.93-5.74 27.8 27.8 0 01-9.37 5.59 16 16 0 00-3.58-5.29c1.31-.25 4.39-.91 8.62-4.28a29.6 29.6 0 01-5-7.21l3.48-2.42zm6.2 0a20.78 20.78 0 003.83 5.85 20.49 20.49 0 003.58-5.85zm43.76-15.62a38.14 38.14 0 01-.1-4H287.4V111h17.69c0 1.15-.2 6.24-.2 7.3 0 5.09 0 21.68 19.2 33.62a17.51 17.51 0 00-5.49 4.64c-8.47-5.8-17-16.23-19.15-26.87-1.67 6.2-5.85 17.24-19.51 26.92a18.74 18.74 0 00-5.14-4.74c16.13-10.53 18.7-22.78 19.86-31.5zm50.2 20.26a45.1 45.1 0 01-6.66 6.55 10.58 10.58 0 00-4.08-3 36.61 36.61 0 004.34-3.52c-6.36 2.72-12.05 4.58-12.86 4.89-.1.65-.15 1.31-.8 1.31s-.61-.66-.76-1.16l-1.51-5.9a41.72 41.72 0 006.15-1.36V126.6h-5.65v-5.54h5.65v-10.79l6.2.35c.6 0 1.11 0 1.11.61 0 .35-.26.6-1.11.9v8.93h5.19v5.54h-5.19v10.63a36.17 36.17 0 005.49-2.31 15.31 15.31 0 00-.5 5 34.53 34.53 0 003.78-5.19h-5.14v-4.38h30.44v4.38h-19.66a18.17 18.17 0 01-1.06 1.87h20c-.05 2.92-.1 12.85-2.62 16.93-1.36 2.22-4.54 2.62-6.9 2.62-.66 0-1.11 0-1.87-.1a18.22 18.22 0 00-1.81-5.54 40.65 40.65 0 01-6.2 6.25c-1-1.11-1.72-1.56-4.49-2.87a36.93 36.93 0 0011.14-12.5h-2.16a45.33 45.33 0 01-5.69 7.25 30.12 30.12 0 01-8.67 6.61 12 12 0 00-3.83-3.48 30.73 30.73 0 0012.2-10.38zm20.06-12.75H346v-17.49h22.7zM363.15 118v-2.32H352V118zM352 121.76v2.47h11.19v-2.47zm12.4 19.61a47.84 47.84 0 01-5.24 8.67 29.14 29.14 0 003.33.3c1.36 0 2-.3 2.47-1.92a28 28 0 001.1-7zm58.73-13.81v5.49h-7.71a27.55 27.55 0 008.82 5 17.86 17.86 0 00-3.73 4.74 25 25 0 01-6.3-3.58c-.1 1.81-.46 11.14-2.42 14-1.72 2.47-5 2.62-9.48 2.77a9.81 9.81 0 00-1.91-6c.7.06 2.22.26 3.37.26 2.52 0 3.94 0 4.29-7.92h-6.86c-3.83 10.23-12.6 13.26-18.54 14a12 12 0 00-2.93-5.35c4.94-.6 11.39-1.46 15.12-8.62h-7.51v-2.95a33.37 33.37 0 01-7.1 4 16.55 16.55 0 00-4.34-4.48 25 25 0 0010.23-5.85h-8.87v-5.49h13.51c.61-1 1.16-2 1.71-3H381v-5.44h6.46a37.08 37.08 0 00-5-6.65l5.29-2.57a30.14 30.14 0 015.69 7.3 27.67 27.67 0 00-3.93 1.92h5a38 38 0 001.71-9.27l6.66.55c.25 0 .75 0 .75.55s-.5.71-1.26 1a67.45 67.45 0 01-1.51 7.21h7.66a30.23 30.23 0 00-3.48-1.51 27.49 27.49 0 004.64-7.87l6.1 2.27a.7.7 0 01.55.66c0 .55-.65.6-1.36.7a50.61 50.61 0 01-3.52 5.75h8.16v5.44h-11.4a22.87 22.87 0 002 3zm-11.85 9.37a31.75 31.75 0 01-3.93-3.88H393.9a31.32 31.32 0 01-3.58 3.88zm-7.61-9.37a30.17 30.17 0 01-1.51-3H399c-.26.56-.56 1.26-1.47 3zM168.29 37.29a10.42 10.42 0 01-.62 3.53 9.49 9.49 0 01-2 3.21 9.94 9.94 0 01-3.74 2.42 15.23 15.23 0 01-5.54.92H150v12.19h-9.8V27.08h16.22a15 15 0 015.54.93 10.09 10.09 0 013.74 2.44 9.59 9.59 0 012 3.26 10.79 10.79 0 01.59 3.58zm-10 .05a3.42 3.42 0 00-1.37-3.17c-.91-.57-2.55-.86-4.91-.86H150v7.83h2.11a17.16 17.16 0 003.75-.31 3.06 3.06 0 001.9-1.12 4.07 4.07 0 00.54-2.37zM205.17 45a15 15 0 01-1.56 7.11 12.44 12.44 0 01-4.13 4.65 17.71 17.71 0 01-5.48 2.47 24 24 0 01-6 .77 23.69 23.69 0 01-8-1.4 14.31 14.31 0 01-6.53-4.79 13.88 13.88 0 01-2.61-8.81V27.08h9.77v15.39a13.31 13.31 0 00.92 5.31 6.4 6.4 0 002.58 3.07 8.19 8.19 0 007.73 0 6.46 6.46 0 002.59-3 13.26 13.26 0 00.92-5.3V27.08h9.8zm34.96 5.35a8.45 8.45 0 01-2.87 6.7c-1.92 1.67-4.59 2.51-8 2.51h-18.8V27.08h15.7a21.4 21.4 0 015.31.58 10.51 10.51 0 013.64 1.61 6.59 6.59 0 012.06 2.4 6.66 6.66 0 01.68 3 7.72 7.72 0 01-.7 3.3 8.09 8.09 0 01-1.74 2.48 6.45 6.45 0 01-2.1 1.37 12.78 12.78 0 015.07 3.32 7.57 7.57 0 011.75 5.21zm-11.44-13.92a3.16 3.16 0 00-1.55-3.12 11.27 11.27 0 00-4.82-.77h-2.07v7.78h2.11a11 11 0 004.84-.78c.99-.54 1.49-1.54 1.49-3.11zM230.28 50q0-4.17-6-4.17h-4v8.27h4q6.01 0 6-4.1zm38.41 9.56H244V27.08h9.8v24.7h14.88zm13.14 0H272V27.08h9.8zm34.89-2.44a22.85 22.85 0 01-4.13 1.69 26.15 26.15 0 01-4.25.9 35.54 35.54 0 01-4.44.27 23.08 23.08 0 01-7.61-1.17 16.28 16.28 0 01-5.83-3.46 14.59 14.59 0 01-3.71-5.35 17.86 17.86 0 01-1.23-6.72A17.51 17.51 0 01287 36a14.25 14.25 0 014-5.29 17.38 17.38 0 016-3.08 24.37 24.37 0 017.05-1 38.47 38.47 0 0112.54 2.46v8.63a34.24 34.24 0 00-4.77-2.5 14.25 14.25 0 00-5.55-1 12.56 12.56 0 00-5.27 1.13 9.79 9.79 0 00-4 3.21 8.56 8.56 0 00-.19 9.39 9.38 9.38 0 003.64 3.26 11.35 11.35 0 005.26 1.2 17.13 17.13 0 004.48-.57 19.93 19.93 0 003.55-1.28 32.39 32.39 0 003-1.66zm49.43-13.22a15.39 15.39 0 01-1.82 8 17.1 17.1 0 01-4.27 4.9q-3.49 2.74-9.78 2.74h-17.53V27.08h13.5a37.15 37.15 0 015.22.31 23.39 23.39 0 013.9.89 16.15 16.15 0 012.95 1.29 16.14 16.14 0 015.1 4.75 15.42 15.42 0 012 4.29 17.9 17.9 0 01.73 5.29zm-10-.42a10.8 10.8 0 00-1.51-6.17 7.42 7.42 0 00-3.63-3 12.94 12.94 0 00-4.33-.75h-4.17v19.27h4.17a12 12 0 006.7-1.83q2.81-1.82 2.81-7.52zm49.32 16.08h-10L392.79 53h-14.11L376 59.56h-10l14.37-32.48h10.83zm-14.93-12.23l-4.76-11.86L381 47.33zm48.53-20.25l-12.73 17.6v14.88h-9.79V44.87l-13-17.79h10.17l7.45 10.21 7.48-10.21zm24.67 23.04a9 9 0 01-1.56 5.27 9.9 9.9 0 01-4.35 3.41 16.22 16.22 0 01-6.39 1.2c-.68 0-1.5 0-2.48-.13a27.24 27.24 0 01-3.89-.71A30.34 30.34 0 01440 57.4v-8a37.59 37.59 0 004.86 2.6 13 13 0 005.1 1c1.67 0 2.75-.27 3.25-.83a2.41 2.41 0 00.73-1.56 2.65 2.65 0 00-1.26-2.21 18.22 18.22 0 00-3.68-1.89 29.26 29.26 0 01-4.69-2.45 11.19 11.19 0 01-3.31-3.32 8.56 8.56 0 01-1.26-4.74 8.6 8.6 0 015.26-8.1 14.81 14.81 0 016.47-1.27 22.61 22.61 0 015 .53 21.44 21.44 0 013.81 1.18 15.13 15.13 0 012.06 1V37a26.3 26.3 0 00-4.44-2.55 12.4 12.4 0 00-5.24-1.13A4 4 0 00450 34a2.2 2.2 0 00-.82 1.74 2.11 2.11 0 00.82 1.66 14 14 0 002.93 1.71 57.54 57.54 0 016 3.17 11.77 11.77 0 013.52 3.24 7.89 7.89 0 011.29 4.6zM60 84h480v2.4H60zm-10 96.11h500v45.77H50z" fill="#fff"/><path class="cls-1" d="M103.65 200.39v3.53h-19v-3.53zm10.35 8.53a7.54 7.54 0 003.22-1.52 12.29 12.29 0 01-1.81-2.54l1.36-1H115v-2.8h8.15l1 1.1a16.36 16.36 0 01-2.89 5.24 9.54 9.54 0 003.59 1.66 14.56 14.56 0 00-1.51 2.52 18.93 18.93 0 01-4-2.26 11.23 11.23 0 01-3.76 2.16 7.43 7.43 0 00-1.6-2.46v.67c0 1.75-1.19 1.89-3.65 1.91a9.92 9.92 0 00-.94-2.83 5.39 5.39 0 001.44.21c.72 0 .72-.27.72-.88v-5.08a5 5 0 01-.57.06v5h-1.74v-4.83h-.42a26.16 26.16 0 01-1.45 8.11 4.38 4.38 0 00-2.52-1.22 20.29 20.29 0 001.51-6.62 1 1 0 01-.23 0c-.15.27-.27.44-.44.44a.25.25 0 01-.21-.21l-.48-2.82h1.3v-6.63h2c.15-.36.48-1.22.76-2.1l3.11.3c.12 0 .21.1.21.18s-.38.42-.53.47c-.15.31-.36.84-.5 1.15H114v4.85a5 5 0 001.6-4v-2.31h6.55v4.58c0 .23 0 .4.23.4.38 0 .5-1.2.57-1.85a5.25 5.25 0 002.41 1.09c-.4 2.71-.71 3.24-2.16 3.24h-2.1a1.57 1.57 0 01-1.68-1.72v-3.08h-1a8.41 8.41 0 01-2.31 5.42 5.33 5.33 0 00-2.1-1.26v.86c.28-.05.63-.07.76-.09 0 .44-.08 1.79-.11 2.31h-.65zm-5.16-11.43l2-.38c.21.66.63 2.29.72 2.84v-3.11h-2.73zm0 3.4c.69 0 2-.12 2.73-.18v-.63a12.58 12.58 0 00-2.12.42 14.57 14.57 0 00-.61-2.57zm9.26 3a7.39 7.39 0 001 1.63 8.16 8.16 0 001-1.63zm17.53-6.8v-1.38H131v-3.09h8c0 .55-.14 3-.14 3.45a15.37 15.37 0 007.7 13.47 8.54 8.54 0 00-2.75 2.29c-2.6-1.8-6.4-5.75-7.6-10.58a19 19 0 01-7.94 10.6 9.18 9.18 0 00-2.58-2.35c6.45-4.13 7.56-8.58 8.13-12.74zm20.94 8.72a15 15 0 01-2.48 2.54 5.16 5.16 0 00-2-1.41c.38-.29.69-.52 1.17-.94-1.3.56-2.89 1.17-4.59 1.74 0 .25-.09.54-.32.54s-.29-.27-.34-.48l-.71-3a16.88 16.88 0 002.37-.44v-4.77h-2.16v-2.72h2.16v-4.37l3.11.17c.25 0 .44 0 .44.23s-.12.25-.44.4v3.57h1.87v2.72h-1.87v3.83c.5-.21.82-.34 1.32-.57h-.1v-2.12h12.72v2.12h-8.13l-.39.67h8.37c0 2.12-.06 6.32-1.42 7.39a5.9 5.9 0 01-3.47.69 6.24 6.24 0 00-.57-2.26 15.92 15.92 0 01-2.49 2.62 5.42 5.42 0 00-2.23-1.34 14.78 14.78 0 004.43-4.85h-.94a14.61 14.61 0 01-5.53 5.56 5.55 5.55 0 00-1.84-1.68 12.77 12.77 0 004.89-3.88zm-1.91-2.92a9 9 0 00-.15 1.87 13.68 13.68 0 001.28-1.87zm10.58-2.81h-9.8v-7.4h9.8zm-2.83-4.5v-.71h-4.14v.71zm-4.14 1.68v.74h4.14v-.72zm4.95 8.55a22.69 22.69 0 01-1.65 2.92h.73c.42 0 .8 0 .95-.53a11 11 0 00.37-2.43zm24.49-6.2v2.65h-2.37a8.86 8.86 0 002.92 1.57 8.47 8.47 0 00-1.75 2.25 8.94 8.94 0 01-2.31-1.28c-.06 1.57-.25 5.08-1.17 5.9s-2.58.82-3.89.8a4.42 4.42 0 00-.84-2.9c.7.06 1.1.1 1.37.1.84 0 1.45 0 1.53-2.58H179a9.47 9.47 0 01-8 5.55 5.74 5.74 0 00-1.4-2.63c2.54-.17 4.76-.73 6.15-2.92h-2.83v-1.24a12.32 12.32 0 01-2.82 1.56 8.34 8.34 0 00-2-2.21 13.32 13.32 0 003.74-2h-3.08v-2.65H174a8.26 8.26 0 00.51-1h-4.39v-2.52h1.78a9.77 9.77 0 00-1.93-2.4l2.69-1.34a13.14 13.14 0 012.43 2.94 14.77 14.77 0 00-1.66.8h2a15.3 15.3 0 00.63-3.76l3.3.25c.1 0 .31 0 .31.25s-.23.28-.54.4c-.13.8-.28 1.66-.57 2.86h3.19c-.53-.23-1.15-.46-1.64-.63a10.79 10.79 0 001.7-3.19l3 1.15c.06 0 .23.13.23.25s-.17.25-.59.3a22.84 22.84 0 01-1.26 2.12h3v2.52h-4.2a8.26 8.26 0 00.64 1zm-5.19 3.87c-.71-.65-1.11-1.12-1.21-1.22h-5.71c-.45.52-.76.88-1.1 1.22zm-3-3.87a10.11 10.11 0 01-.46-1h-1.32c-.11.25-.21.5-.46 1zm15.48-5.56c.17.06.27.15.27.29s-.4.3-.58.32a28.94 28.94 0 00-1.26 8.08 15.64 15.64 0 00.14 2.1c.28-.4.72-1.07 1-1.49a8.73 8.73 0 001.51 2.08 9.34 9.34 0 00-1.74 5.14l-2.82.53a29.85 29.85 0 01-1.13-8.46 37.84 37.84 0 011.26-9.62zm10-.46c.11 0 .28 0 .28.23s-.3.31-.49.33c-.06.47-.14 1-.21 2.52a19 19 0 003.11-.77v3.17c-.48.12-1.45.36-3.19.67a35.22 35.22 0 00.33 4.83 11.62 11.62 0 014 2.16c-.33.61-1 2-1.42 3a7.3 7.3 0 00-2.25-1.59c-.08 2.68-2.77 3-4.09 3-3.15 0-4.73-1.72-4.73-3.68 0-2.49 2.48-3.44 5.21-3.38-.17-2.39-.19-2.66-.23-3.88-1.2.11-2.06.11-2.42.11-.67 0-1.11 0-1.55-.07v-3.29a22.35 22.35 0 003.95.14V193zm-4.34 13c-.47 0-1.47.15-1.47.8s.69.78 1.36.78c.17 0 1.43 0 1.43-1a.59.59 0 000-.27 2.87 2.87 0 00-1.35-.3zm23.05-13.07h3.75v10H230v3.17h-2.57v3.42h-3.8v-3.42h-7.85v-3.19zm-.05 10v-5.82l-4.66 5.78zm19.74 1.3a10.43 10.43 0 01-4.13 6.93 9.7 9.7 0 00-2.63-2.21c3.85-2.56 3.8-6.55 3.8-8.65v-7.95h13.15v15.56c0 2.26-.55 3.17-4.73 3a9.4 9.4 0 00-1.05-3.45 11.05 11.05 0 001.72.23c.72 0 .76-.44.76-1.19v-2.27zm6.89-7.43v-1.49h-6.66v1.49zm0 4.41v-1.51h-6.66v1.51zm27.17 8.27h-14.1c.27-3.67 2.33-5.19 6.78-8.21 3.38-2.31 3.38-2.79 3.38-3.67 0-1.58-1.68-2-2.77-2-2.84 0-3.13 2-3.22 3.38h-3.88a6.35 6.35 0 011.3-4.18 7.13 7.13 0 015.82-2.35c4.8 0 6.55 2.65 6.55 5.06a5 5 0 01-.93 2.88c-1.07 1.49-5.31 4.2-5.52 4.35a12.09 12.09 0 00-2.14 1.61h8.73zm15.84-4.66a4.7 4.7 0 01-1.89 3.84 10.82 10.82 0 01-10.21 0 4.7 4.7 0 01-1.91-3.84 4.19 4.19 0 013.15-4.12 3.9 3.9 0 01-2.6-3.69 4.16 4.16 0 011.83-3.4 8.8 8.8 0 014.72-1.14c5.9 0 6.36 3.55 6.36 4.54a3.9 3.9 0 01-2.6 3.69 4.19 4.19 0 013.15 4.12zm-10.1-.41c0 1.78 1.68 2.39 3.11 2.39s3.08-.61 3.08-2.39c0-.67-.35-2.4-3.08-2.4s-3.11 1.67-3.11 2.4zm.54-6.74c0 .27.05 2 2.54 2s2.57-1.68 2.57-2c0-.76-.49-2-2.54-2s-2.57 1.21-2.57 1.97zm22.05 11.39v1.15h-3.29v-17.13h15.05v17.13h-3.29v-1.15zm8.47-9.55v-3.51h-8.47v3.51zm0 6.55v-3.72h-8.47v3.72zm15.62 6.23a17.61 17.61 0 010-19.36h2.88a20.57 20.57 0 000 19.36zm20.92-10.79h6.42v2.65h-3.78l2.69 1.07c.19.08.31.12.31.25s-.33.27-.67.29a16.31 16.31 0 01-1 2.27H358v2.58h-17.64v-2.58h3.51a11 11 0 00-1.64-2.77l2.06-1.11h-3.07v-2.65h6.51v-1.17h-3v-1.47c-1.39.88-1.77 1.13-3.49 2.07a11 11 0 00-2.43-2.39c5.85-2.5 8.5-5.63 9.13-6.8l3.42.38c.13 0 .28 0 .28.21s-.22.31-.42.37a20.81 20.81 0 008.58 5.55 9.75 9.75 0 00-2.31 2.73 18.43 18.43 0 01-3.69-2.12v1.47h-3zm-3.07 2.65h-2.67a13.18 13.18 0 011.72 2.83 19.24 19.24 0 00-1.78 1.05h2.73zm4.35-6.53a16.08 16.08 0 01-2.78-2.59 20.16 20.16 0 01-2.83 2.59zm-1.28 10.41h2.56a17.09 17.09 0 00-1.64-.82 12.36 12.36 0 001.51-3.06h-2.43zm15.03 4.26a20.57 20.57 0 000-19.36h2.88a18.39 18.39 0 012.88 9.68c0 2.57-.84 6.91-2.88 9.68zm29.44-11.54H394V203h3.89v2.73H394v2.21c0 .73.05.84.84.84H396c.63 0 1-.21 1.43-2.19a16 16 0 002.68 1.47c-.82 2.59-1.26 3.45-3.54 3.45h-3.09c-2.44 0-2.44-1.73-2.44-2.27v-3.51h-1.91a8.32 8.32 0 01-6.42 6.07 13 13 0 00-1.72-2.48c1-.17 4-.73 5.14-3.59h-3.51V203h4v-1.61h-1v-.89a16.1 16.1 0 01-3.5 2.36 8.81 8.81 0 00-2.12-2.1 12.66 12.66 0 003.27-1.77 17.54 17.54 0 00-1.87-1.68l1.51-1.43H382v-2.52h7.6l.7 1a13.28 13.28 0 01-2.71 4.2h6.06a19.54 19.54 0 01-3.31-5l2.35-1.15c.42.71.69 1.11 1 1.59a8.79 8.79 0 001.19-1.57l2.17 1.43c.08.06.21.14.21.29 0 .32-.34.32-.46.32a1.14 1.14 0 01-.34 0 15 15 0 01-1.34 1.66l.6.61a16.83 16.83 0 001.71-2.16l2.22 1.55c.08.07.21.17.21.32s-.36.29-.65.25a16.52 16.52 0 01-1.45 1.64 13.58 13.58 0 002.63 1.45 9.15 9.15 0 00-2 2.52 12.28 12.28 0 01-3.17-2.27zm-11.44-5.51a15.52 15.52 0 011.43 1.16 6.59 6.59 0 00.8-1.16zm5.63 5.51V203h1.61v-1.61zm21.54 2.3c.17 0 .29.09.29.24 0 .33-.44.37-.65.37a8.37 8.37 0 01-7 7.84 5.91 5.91 0 00-1.95-2.65c4.32-.88 5.77-2.23 5.81-6.24zm9.85-9.4v2.54h-7.92v.65h5.76v2.44h-14.81v-2.44h5.74v-.65h-7.88v-2.54h7.88v-1.81l3.4.13c.12 0 .31.06.31.25s-.23.29-.44.42v1zm-.19 6.21v4.39h-3.21v-2h-12.22V205H402v-4.5zm-6.26 10.94c-.9 0-2.58 0-2.58-2.45v-5.59l3.13.06c.19 0 .48 0 .48.28s-.06.21-.48.4v3.63c0 .78.19.92.65.92h1.34c.74 0 1-.29 1.07-.88s.19-1.3.28-1.81a5.36 5.36 0 002.89 1.39c-.21 1.85-.46 4-3.1 4zm26.27-11.69l1.54 1.53a29.82 29.82 0 01-5 6.26 7.19 7.19 0 00-2.52-2 12.43 12.43 0 002.67-2.79H434v6.42c0 2.35-1.46 2.63-4.84 2.56a7.26 7.26 0 00-1-3.08 9.37 9.37 0 001.7.17c.9 0 1-.3 1-1.24v-4.83h-8.06v-3h8.67a36.36 36.36 0 00-4.57-1.85l2-2.18h-4.2V193h13.71l1.17 1.62a30.58 30.58 0 01-4.6 3.59 8.94 8.94 0 011.18.71c-.31.23-.57.4-1 .8zm-11.63-4c.38.14 2 .71 3.13 1.15a13.66 13.66 0 001.55-1.15zm25.96 6.94h5.52v2.75H455v3.13h1.95a60.12 60.12 0 006.47-.36 7 7 0 00-.76 3.28h-8.21a7.19 7.19 0 01-6.19-2.94 15.69 15.69 0 01-2 3.31 6.27 6.27 0 00-3-1.3 14.57 14.57 0 003.57-8.69l3.23.57c.19 0 .42.08.42.33s-.12.26-.58.42c-.11.53-.21 1-.49 2.06a4.55 4.55 0 002.35 2.73v-7.26h-5.43v-1.6h-2.63v-4.87h8v-2l3.21.21c.3 0 .57 0 .57.25s-.11.25-.57.46v1.05h8.06V199h-2.47v1.68H455zm4.85-4.64v-1.22h-13.1V198zm23.64-1.73c-5.18-.08-9.68 4.58-9.68 8 0 2.44 3.09 3.64 5.95 3.7a27.81 27.81 0 00-1.58 3.82c-1.7-.46-7.73-2.14-7.73-7.16a9.54 9.54 0 013.87-7.22 56.91 56.91 0 00-8.7 1.32l-.48-4a68.53 68.53 0 009.35-.48 51.11 51.11 0 008.42-1.53zm-3.48 3a12.79 12.79 0 011.99 2.23c-.59.42-.88.65-1.62 1.26a16.3 16.3 0 00-1.87-2.37zm2.2-1.49a13 13 0 011.87 2.2c-.52.4-.88.71-1.53 1.3a16.3 16.3 0 00-1.87-2.37zm15.31-5.01c.34 0 .53.06.53.23s-.26.31-.42.36c0 .37-.07.63-.11 1.47 5.92-.26 6.57-.28 7-.32 0 .44-.06 2.52 0 3.38-3.8-.19-5.39-.19-6.92-.17a14.59 14.59 0 000 2.33 6.94 6.94 0 011.21 4 9.92 9.92 0 01-4.87 8.1 13.76 13.76 0 00-3.06-2.16c.63-.25 3.1-1.3 3.86-3a2.33 2.33 0 01-1.66.51 2.81 2.81 0 01-2.27-.95 5.29 5.29 0 01-.9-3.1c0-4.62 3.95-4.48 4.39-4.41v-1.18A56.94 56.94 0 00486 199l-.23-3.55c.48 0 1.28 0 8.53-.44a21.67 21.67 0 00-.3-2.66zm-4.85 10.5c0 1.38.7 1.76 1.07 1.76.65 0 1-1 1-2 0-.49-.1-1.31-.94-1.31s-1.13.69-1.13 1.55zm20.33 5.04a3 3 0 11-3-3 3 3 0 013 3zm-4.62 0a1.66 1.66 0 101.66-1.66 1.65 1.65 0 00-1.64 1.66z"/></g></g></svg>