<svg xmlns="http://www.w3.org/2000/svg" width="841" height="49" viewBox="0 0 841 49"><defs><style>.cls-1 { fill: #e71a1e; } .cls-1, .cls-2 { fill-rule: evenodd; } .cls-2 { fill: #004fdf; }</style></defs><path id="極上体験" class="cls-1" d="M651.841 39.284h6.25c3.4 0 4.812-1.2 5.412-4.6l2.523-14.3a35.142 35.142 0 0 0 1.5 9.1 31.056 31.056 0 0 1-3.553 3.7l2.556 5.35c.909-.9 1.574-1.55 3.394-3.65a29.962 29.962 0 0 0 2.974 4.4l4.888-5.6a19.583 19.583 0 0 1-3.871-4.7 66.476 66.476 0 0 0 6.605-18.451h-11.5l-1.111 6.3h6a32.863 32.863 0 0 1-2.414 6.6 21.661 21.661 0 0 1-.939-5.45l-4.444 1.95 1.72-9.751h-4.551c.247-.55.8-1.7.98-2.15h17.3l1.182-6.7h-31.557l-1.185 6.7h7.15a46.628 46.628 0 0 1-4.043 7.9h8.1l-2.778 15.751a2.689 2.689 0 0 1-.438 1.35 1.932 1.932 0 0 1-1.353.3l2.8-15.851h-10.752l-1.032 5.85a25.087 25.087 0 0 1-2.948-6.25l.256-1.45h3.7l1.235-7h-3.7l1.464-8.3h-6.8l-1.464 8.3h-4.8l-1.235 7h4.2a37.69 37.69 0 0 1-7.52 13.151l.758 10.151c.895-1.1 2.262-2.9 4.671-8.051l-2.971 16.851h6.8l3.7-21a22.489 22.489 0 0 0 1.58 3.8l2.77-5.5-1.72 9.751h6.4zm2.416-16.251l-1.067 6.05h-2.2l1.067-6.05h2.2zm-11.157 17.051l-1.146 6.5h33.1l1.146-6.5h-33.1zm63.88-39.852l-6.7 38h-18.5l-1.376 7.8h47.4l1.376-7.8h-20.854l3.034-17.2h18.3l1.384-7.85h-18.3l2.284-12.951h-8.05zm42.115 39.6a70.641 70.641 0 0 0 5.717-5.2l-.97 5.5h6.3l-1.323 7.5h7.4l1.323-7.5h6.3l.961-5.45a37.989 37.989 0 0 0 3.478 4.95l5.358-7.7c-1.724-1.85-6.26-6.75-9.428-16.851h11.55l1.314-7.45h-13.8l1.314-7.45h-7.4l-1.314 7.45h-12.852l-1.314 7.45h11c-3.729 5.55-10.511 13.1-16.173 16.851l3.387-19.2a55.318 55.318 0 0 0 5.126-12.051l-7.236-.65a40.853 40.853 0 0 1-10.757 17.9l.106 10.451a20.021 20.021 0 0 0 3.227-2.7l-3.872 21.951h7.25l2.646-15zm7.123-6.65a60.592 60.592 0 0 0 6.729-8.951l-1.579 8.951h-5.15zm14.121-8.9a42.511 42.511 0 0 0 3.63 8.9h-5.2zm62.817-10.3c1.356 1.1 2.027 1.55 2.83 2.1l4.223-6.65a20.379 20.379 0 0 1-9.155-9.051h-7.754a32.19 32.19 0 0 1-11.656 9.1h-4.144l.423-2.4h5.251l.97-5.5h-19.5l-4.913 27.852h13.951c-.42 2.1-2.085 9.551-2.7 10.751a2.84 2.84 0 0 1-2.883 1.6h-3.9l.21 5.9h4.75c3.25 0 4.791-.8 6.464-5.75l2.536 5.75a27.032 27.032 0 0 0 12.48-9.8c2.121 6.4 7.5 9.1 9.336 10l4.632-6.7a14.608 14.608 0 0 1-8.068-6.7h6.95l2.778-15.751h-9.05l.4-2.25h5.1zm-16.592 2.5h4.6l-.4 2.25h-8.4l-2.778 15.751h6.2a22.168 22.168 0 0 1-9.976 6.95c1.649-5.1 2.34-8.45 4.142-17.251h-5.052l.432-2.45h4.151l.908-5.15h-4.15l.432-2.45h4.15l.556-3.15 1.774 5.25a37.58 37.58 0 0 0 3.856-2.3zm-14.736-2.35l-.433 2.45h-3.25l.432-2.45h3.251zm1.243-7.05l-.423 2.4h-3.248l.423-2.4h3.25zm-2.584 14.651l-.432 2.45h-3.255l.432-2.45h3.25zm21.027-11.2a40.818 40.818 0 0 0 4.9-4.8 30.537 30.537 0 0 0 3.253 4.8h-8.15zm3.572 18.3a31.968 31.968 0 0 0 .976-4.4h3.251l-.777 4.4h-3.45zm-9 0l.776-4.4h3.05a23.4 23.4 0 0 1-1.026 4.4h-2.8zm-27.446 2.8a35.259 35.259 0 0 1-3.832 10.951l2.542 2.6a52.793 52.793 0 0 0 4.15-13.351zm4.065.2c-.1.55-.147 1.4-.217 1.8a64.468 64.468 0 0 1-1.985 7.851l3.071-.4c.141-.8.646-3.1.9-4.55.212-1.2.538-3.9.629-4.7h-2.4zm3.536-.2a45.358 45.358 0 0 1-.964 8.3l2.538-.5a55.265 55.265 0 0 0 .629-8.1zm3.438-.5a36.425 36.425 0 0 1-.344 7.05l2.239-.5a36.346 36.346 0 0 0 0-6.8z"/><path id="の" class="cls-2" d="M599.953 45.734c2.7-.3 10.445-1.1 16.1-5.4a25.413 25.413 0 0 0 9.658-16.2c2.513-14.251-6.026-20.551-17.527-20.551a28.453 28.453 0 0 0-28.361 23.3c-1.385 7.851 1.607 14.7 8.358 14.7 13.4 0 19.913-26.152 20.931-30.5 5.621.45 9.845 4 8.372 12.351-2.373 13.451-13.682 14.351-19.153 14.751zm1.5-34.3c-3.058 11.951-7.636 21.751-11.437 21.751-2.85 0-2.606-4.5-2.271-6.4.221-1.252 2.143-12.153 13.708-15.353z"/><path id="更なる2つ" class="cls-1" d="M329.844 33.733a23.739 23.739 0 0 0 4.239 4.6 49.25 49.25 0 0 1-11.027 1.85l1.7 7.651c9.38-1.3 13.989-3.9 16-5.1 7.88 3.8 17.028 4.95 26.328 4.95l3.926-7.8c-1.618.1-3.594.25-6.544.25-1.75 0-10.651 0-17.546-2.3a28.576 28.576 0 0 0 3.876-6.1h17.754l3.766-21.351h-16.551l.388-2.2h20.047l1.155-6.55h-47.149l-1.155 6.55h19.9l-.388 2.2h-16.5l-3.763 21.35h6.15zm16.445-10.451a20.283 20.283 0 0 1-.568 2.65h-9.15l.467-2.65h9.251zm1.331-7.55l-.467 2.65h-9.253l.468-2.65h9.25zm5.3 10.2a22.012 22.012 0 0 0 .567-2.65h9.351l-.468 2.65h-9.45zm1.431-7.55l.468-2.65h9.35l-.467 2.65h-9.351zm-11.151 13.351a14.634 14.634 0 0 1-2.338 3.05 17.685 17.685 0 0 1-3.512-3.05h5.85zm49.819-30.452c-.4 1.7-.73 3-1.615 5.75h-8l-1.341 7.6h6.7a143.557 143.557 0 0 1-11.763 23.603l7.845 2.3a262.7 262.7 0 0 0 12.069-25.9h9.951l1.34-7.6h-8.7c.232-.75 1.552-4.55 1.861-5.45zm34.011 5.05c-9.8.3-13.886 1.05-16.316 1.5l-2.683 18.051a24.788 24.788 0 0 0-2.974-.15c-9.851 0-13.833 5.85-14.609 10.251-.97 5.5 2.3 9.951 10.646 9.951 5.55 0 10.78-2.15 12.026-7.8l.235-1.05c1.848 2 3.48 3.8 4.575 5.25l5.791-7.6c-1.048-1.15-2.507-2.8-8.222-6.4l2.064-13.4a38.347 38.347 0 0 1 4.662-.35c1.55 0 2.823.15 4.006.25zm-20.554 29.5c-.221 1.25-.641 3.35-4.742 3.35-4.25 0-4.385-2.35-4.2-3.4.6-3.4 5.259-3.45 5.959-3.45a8.227 8.227 0 0 1 3.476.7zm34.395-33.15l-1.367 7.75 17.613-.35c-19.779 14.9-21.97 16.551-26.617 19.651l3.786 6.6c10.858-9.4 15.579-13.2 23.579-13.2 8.451 0 9.5 4.85 8.958 7.9-.671 3.8-3.494 6.2-7.974 7.5a11.631 11.631 0 0 0 .45-1.7c.723-4.1-1.545-8.251-7.545-8.251-4.8 0-10.421 2.95-11.347 8.2-.185 1.05-1.355 9.1 11.6 9.1 14.4 0 21.878-6.95 23.333-15.2 1.182-6.7-2.137-14.251-12.337-14.251a13.47 13.47 0 0 0-4.557.6c1.83-1.3 2.35-1.7 11.03-8.1l1.1-6.25h-29.7zm12.019 36.753a9.256 9.256 0 0 1-1.935.2c-1.15 0-4.724-.15-4.274-2.7.264-1.5 1.732-2.45 3.632-2.45 3.5 0 2.992 3.45 2.93 3.8a5.012 5.012 0 0 1-.353 1.15zm56.611-11.4a18.314 18.314 0 0 0 8.359-3.45c2.915-2.35 3.97-7.2 4.288-9 2.108-11.951-6.4-12.451-15.505-12.451-16.1 0-18.077 5.25-19.721 14h8.1c1.079-5.55 2.046-6.5 11.1-6.5 7.6 0 8.442 1.75 7.789 5.45-.582 3.3-1.926 4.4-5.7 4.8l-13.056 1.45c-9.945 1.1-11.518 9.451-12.25 13.6l-1.235 7h35.4l1.322-7.5h-27.192l.22-1.25c.662-3.75 2.709-4.3 5.521-4.65zm23.75 16.151c9.542.05 14.274-.7 17.848-1.4 4.191-.8 19.112-3.75 21.917-19.651 1.852-10.5-4.366-17.2-14.567-17.2-3.15 0-6.836.2-18.13 2.15-5.309.9-7.471 1.25-10.492 1.65l.365 8.7c15.619-3.5 20.981-4.7 25.981-4.7 8.05 0 9.051 5.1 8.293 9.4-2.135 12.1-14.683 13.5-31.589 13.251z"/><path id="どこでも共通_" class="cls-2" d="M16.052 2.081c-2.27 12.3-1.643 14.7-.64 16.951-4.168 1.8-13.624 5.8-15.185 14.651a8.458 8.458 0 0 0 4.1 9.051c2.809 1.65 6.348 2.85 19.049 2.85 7.1 0 10.554-.3 13.6-.55l1.429-8.1a150.759 150.759 0 0 1-17.06.9c-6.1 0-13.242-.05-12.387-4.9 1.367-7.751 20.933-10.951 30.751-11.9l.223-8.35a117.156 117.156 0 0 0-16.654 3.7c-.939-2.05-.227-6.65.232-9.251.406-2.3.829-3.85 1.141-5.05h-8.6zm23.332 7.2a36.5 36.5 0 0 0-1.484-8.3l-4.709.9a39.549 39.549 0 0 1 1.166 8.7zm7.368-.95a35.029 35.029 0 0 0-1.652-7.95l-4.668.95a33.457 33.457 0 0 1 1.445 8.251zm42.985-4.45c-.35 0-23.269.1-27.619.1-3.4 0-3.65 0-6.092-.05l-1.4 7.95c3.335-.2 11.821-.4 15.589-.5a40.909 40.909 0 0 0-5.577 2.7l5.007 4.5c4.7-2.85 11.635-6.15 18.736-7zm-33.137 16.352c-1.782 1.6-6.709 6-7.846 12.451a8.265 8.265 0 0 0 4 9.051c3.871 2.15 8.107 2.8 19.107 2.8 9.451 0 11.445-.25 13.33-.45l1.338-8.151a146.015 146.015 0 0 1-16.833.75c-7.95 0-13.236-.65-12.407-5.35.582-3.3 3.2-5.65 4.559-6.85zm78.82 4.15a31.818 31.818 0 0 0-3.286-7.45l-4.747 2.25a41.849 41.849 0 0 1 3.174 7.8zm7.453-3.7a27.031 27.031 0 0 0-3.315-7l-4.747 2.25a33.816 33.816 0 0 1 3.3 7.35zm2.261-17.351a6.243 6.243 0 0 1-.909.05c-13.222.4-16.248.55-43.547 1.95l-1.058 8.55c2.953-.3 17.633-1.6 20.936-1.9-7.05 4.25-13.2 10.5-14.534 18.051a11.282 11.282 0 0 0 6.054 12.451c4.039 2.05 8.713 3.05 20.264 3.05l2.467-8.6a71.983 71.983 0 0 1-8.975-.15c-3.756-.25-12.1-.85-10.848-7.95 1.349-7.65 11.085-13.8 16.164-15.951a17.193 17.193 0 0 1 8.015-1.5c1.85 0 3.583.1 4.724.15zm16.69 4.3h-7.951l-1.288 7.3h7.8l-1.282 6.7h-8.5l-1.3 7.351h8.351l-.344 1.95c-2.232 12.651 3.113 14.951 13.664 14.951 9.15 0 18.936-1.05 21.2-13.9a24.368 24.368 0 0 0-1.175-12.9l-7.662 2.05a20.888 20.888 0 0 1 .7 9.9c-1.138 6.45-5.2 7.1-11.3 7.1-8.251 0-8.58-1.25-6.937-9.151 10.327-.15 12.71-.9 15.816-2.35l-1.616-6.65c-2.082.75-4.323 1.55-12.741 1.65l1.431-6.7h14.4l1.288-7.3h-14.1l1.223-5.8h-8.55zm87.04.35h-9.3l1.359-7.7h-7.7l-1.358 7.7h-10.2l1.358-7.7h-7.8l-1.358 7.7h-9.251l-1.279 7.25h9.251l-1.711 9.7h-10.9l-1.27 7.2h47.5l1.27-7.2h-10.9l1.711-9.7h9.3zm-18.28 7.25l-1.711 9.7h-10.2l1.711-9.7h10.2zm-29.678 32.752c9.612-4.6 14.02-8.9 16.429-11.5l-5.28-3.8c-4.741 4.2-8.521 6.35-14.962 8.85zm25.18-11.5c3.474 5.25 6.921 8.1 12.181 11.451l6.073-6.65c-5.374-2.7-8.074-4.4-11.5-8.8zm46.041 1.75l1.446-8.2h4.8l-1.411 8h7l1.411-8h4.95l-.22 1.25a1.188 1.188 0 0 1-1.312 1.2h-3l.135 5.75h6.1c3.15 0 4.3-2.25 4.667-4.35l3.978-22.551h-7.851a44.8 44.8 0 0 0 7.289-3.9l1.023-5.8h-29.75l-1.023 5.8h7.15l-3.361 2.05c1.573 1 2.153 1.4 2.774 1.85h-7.051l-4.71 26.7c-2.179-1.25-2.218-3.3-2.271-4.7l2.626-14.6h-11.7l-1.253 7.1h4.451l-1.914 10.851a28.137 28.137 0 0 1-5.615 3.2l1.372 8.1a51.267 51.267 0 0 0 8.605-6.55 11.607 11.607 0 0 0 9.634 5.2h26.251l2.821-7.2h-26.753a14.337 14.337 0 0 1-5.939-1.2h6.651zm8.645-21.8l-.432 2.45h-4.8l.432-2.45h4.8zm-1.182 6.7l-.432 2.45h-4.8l.432-2.45h4.8zm13.133-6.7l-.432 2.45h-4.951l.433-2.45h4.95zm-1.182 6.7l-.432 2.45h-4.95l.432-2.45h4.95zm-1.431-15.7a32.16 32.16 0 0 1-4.962 2.9c-.973-1-2.741-2.6-3.038-2.9h8zm-33.77-1.6c2.677 2.4 3.836 4.05 6.454 8.2l6.53-5.55a30.133 30.133 0 0 0-6.89-8zm56.208-2.3l-3.871 27.9h6.3l5.971-27.9h-8.4zm-5.315 31.552l-1.385 7.851h7.9l1.384-7.851h-7.9z"/></svg>