<svg xmlns="http://www.w3.org/2000/svg" width="913" height="162" viewBox="0 0 913 162"><defs><style>.cls-1 { fill: #004fdf; } .cls-1, .cls-2 { fill-rule: evenodd; } .cls-2 { fill: #e71a1e; }</style></defs><path id="のうちのひとつにテレポートする_へ家族一組_を_" class="cls-1" d="M12.934 159.614c1.622-.18 6.266-.66 9.662-3.24a15.248 15.248 0 0 0 5.8-9.72c1.509-8.549-3.614-12.329-10.513-12.329a17.073 17.073 0 0 0-17.022 13.975c-.831 4.71.963 8.82 5.013 8.82 8.04 0 11.949-15.689 12.559-18.3 3.372.27 5.906 2.4 5.022 7.409-1.424 8.07-8.209 8.61-11.492 8.85zm.9-20.579c-1.834 7.165-4.581 13.049-6.861 13.049-1.71 0-1.563-2.7-1.362-3.84a11.537 11.537 0 0 1 8.225-9.209zm39-4.05a71.4 71.4 0 0 0-14.435-2.01l-1.428 4.35a59.221 59.221 0 0 1 14.152 2.25zm-18.847 25.015a31.423 31.423 0 0 0 10.542-1.77c3.247-1.23 7.209-3.45 8.331-9.81 1.371-7.769-4.568-7.769-6.818-7.769-2.16 0-5.739.39-8.031.63-3.243.36-3.884.42-5.07.51l-.064 4.949c2.6-.48 9.7-1.74 11.887-1.74 1.8 0 3.566.36 3.01 3.51-1.086 6.15-7.532 6.81-14.409 7.02zm32.421-26.969c-.2.99-.425 2.07-.819 3.45h-6.06l-.773 4.38h5.49a48.355 48.355 0 0 1-4 9.209l4.782 1.29a7.552 7.552 0 0 1 .545-1.05 11.414 11.414 0 0 1 7.7-2.85c1.53 0 4.17.51 3.646 3.48-.736 4.17-5.837 4.35-11.147 4.35a46.656 46.656 0 0 1-5-.21l.125 4.56c.985.03 1.819.06 3.2.06 6.96 0 16.394-.42 17.876-8.82 1-5.67-3-7.829-7.258-7.829a16.827 16.827 0 0 0-6.861 1.649 27.193 27.193 0 0 0 1.458-3.839h14.883l.773-4.38h-14.25c.356-1.17.6-2.04.9-3.24zm32.659 26.579c1.621-.18 6.266-.66 9.661-3.24a15.245 15.245 0 0 0 5.8-9.72c1.51-8.549-3.613-12.329-10.513-12.329a17.073 17.073 0 0 0-17.022 13.979c-.831 4.71.963 8.82 5.013 8.82 8.04 0 11.948-15.689 12.56-18.3 3.372.27 5.906 2.4 5.022 7.409-1.424 8.07-8.21 8.61-11.492 8.85zm.9-20.579c-1.835 7.169-4.583 13.049-6.863 13.049-1.71 0-1.563-2.7-1.362-3.84a11.537 11.537 0 0 1 8.227-9.205zm21.349-4.35l-.821 4.65 4.652-.18a17.219 17.219 0 0 0-6.344 10.619c-.366 2.07-1.091 9.75 9.168 9.75 4.14 0 10.338-1.8 11.651-9.24a18.148 18.148 0 0 0 .208-6.45 9.726 9.726 0 0 0 3.91 3.51l2.905-5.069c-5.655-2.46-6.34-4.53-6.682-6.33-.443-2.25-.491-2.49-.591-2.94l-5.256 1.56a27.09 27.09 0 0 1 1.461 13.649c-.942 5.34-4.02 6.63-7.47 6.63-5.37 0-4.9-4.02-4.63-5.55a14.283 14.283 0 0 1 2.137-5.31 17.337 17.337 0 0 1 5-5.039l.751-4.26h-10.047zm36.7-1.26c-.4 2.28-.694 3.93-.973 6.36-.3 2.55.283 3.33.618 3.809-2.5 1.08-8.19 3.57-9.116 8.82a4.95 4.95 0 0 0 2.431 5.43c1.691.96 3.8 1.74 10.972 1.74 3.99 0 6.817-.21 8.638-.33l.869-4.92a91.3 91.3 0 0 1-10.02.51c-4.65 0-8.149-.06-7.646-2.91.741-4.2 11.043-6.48 18.42-7.14l-.092-4.919c-6.446 1.17-7 1.26-9.79 2.1-.563-.72-.47-1.59.065-4.62.26-1.47.475-2.52.784-3.93h-5.16zm22.092 25.259a49.714 49.714 0 0 0 10.708-.84c2.515-.48 11.467-2.25 13.151-11.79 1.111-6.3-2.619-10.319-8.739-10.319-1.889 0-4.1.12-10.877 1.29-3.185.54-4.482.75-6.294.99l.218 5.22c9.371-2.1 12.588-2.82 15.587-2.82 4.83 0 5.43 3.059 4.975 5.639-1.282 7.26-8.81 8.1-18.953 7.95zm31.692-24.98a152.845 152.845 0 0 0-3.835 15.779 51.426 51.426 0 0 0-.974 10.11l5.043-.36a57.165 57.165 0 0 1 1.011-10.83 91.432 91.432 0 0 1 3.737-14.369zm7.635 1.95l-.831 4.71h15.42l.831-4.71h-15.425zm-.755 10.229a12.236 12.236 0 0 0-3.009 6c-1.07 6.06 5.4 6.3 10.318 6.3a49.116 49.116 0 0 0 5.507-.27l.768-4.86a62.965 62.965 0 0 1-7.113.36c-2.91 0-5.127-.36-4.767-2.4a6.486 6.486 0 0 1 1.979-3.39zm23.582-11.729l-.784 4.44h20.579l.784-4.44h-20.584zm-3.745 7.62l-.784 4.439h10.98l-.12.51c-1.326 5.64-4.5 7.83-11.557 8.88l1.2 4.23c9.332-1.71 13.51-5.67 15.309-13.14l.115-.48h9.449l.784-4.439h-25.381zm37.663-7.89h-5.1l-4.511 25.52c16.484.09 23.25-9.18 27.037-16.02l-3.946-2.459c-5.882 11.909-13.985 12.779-17.043 13.109zm46.585-1.5a4.136 4.136 0 0 0-3.918 3.33 2.726 2.726 0 0 0 2.743 3.33 4.162 4.162 0 0 0 3.917-3.33 2.725 2.725 0 0 0-2.747-3.335zm-.36 2.04a1.046 1.046 0 0 1 1.062 1.29 1.619 1.619 0 0 1-1.517 1.29 1.066 1.066 0 0 1-1.093-1.29 1.626 1.626 0 0 1 1.543-1.295zm-13.222-.72l-.821 4.65h-9.962l-.783 4.44h9.959l-2.938 16.649h4.739l2.939-16.649h9.72l.556-3.15a6.056 6.056 0 0 1-1.132.12 2.925 2.925 0 0 1-2.811-1.41h-5.549l.82-4.65h-4.739zm-11.831 25.049c2.567-2.31 5.348-5.49 7.284-13.23l-4.314-.54c-1.622 6.3-4.472 8.85-6.025 10.17zm16.884-13.23c-.515 7.68.993 10.86 2.564 13.35l4.433-3.36c-2.55-3.57-2.647-7.44-2.391-10.59zm12.836-1.5l-.884 5.01h26.459l.884-5.01h-26.464zm34.171-10.709l-4.665 26.429h5.22l2.51-14.22a46.565 46.565 0 0 1 10.778 6.24l3.434-5.01a56.59 56.59 0 0 0-13.317-6.3l1.26-7.14h-5.22zm36.344 2.64h-13.714l-.778 4.41h13.8l-.221 1.59a6.634 6.634 0 0 0-2.175-.42 7.632 7.632 0 0 0-7.71 6.119c-.572 3.24 1.184 6.21 5.084 6.21a4.67 4.67 0 0 0 2.938-.84c-.387.66-1.079 1.86-4.029 2.43a31.71 31.71 0 0 1-6.019.45l.723 4.23c5.141-.06 13.468-1.35 14.85-9.18a18.581 18.581 0 0 0 .19-4.14l1.139-6.449h7.89l.778-4.41h-7.89l.493-2.79h-4.92zm-1.844 12.149a2.607 2.607 0 0 1-2.647 2.25c-1.98 0-2.144-1.62-1.964-2.64a2.967 2.967 0 0 1 2.945-2.58 1.734 1.734 0 0 1 1.814 2.13zm21.847-14.309l-.821 4.65 10.567-.21c-11.868 8.939-13.182 9.929-15.971 11.789l2.271 3.96c6.516-5.64 9.348-7.92 14.148-7.92 5.069 0 5.7 2.91 5.373 4.74-.4 2.28-2.1 3.72-4.784 4.5a7.083 7.083 0 0 0 .27-1.02c.434-2.46-.926-4.95-4.526-4.95-2.88 0-6.252 1.77-6.808 4.92-.112.63-.814 5.46 6.956 5.46 8.639 0 13.125-4.17 14-9.12.709-4.02-1.281-8.549-7.4-8.549a8.071 8.071 0 0 0-2.733.36c1.1-.78 1.41-1.02 6.617-4.86l.662-3.75h-17.826zm7.208 22.049a5.565 5.565 0 0 1-1.162.12c-.689 0-2.834-.09-2.563-1.62a2.01 2.01 0 0 1 2.179-1.47 1.777 1.777 0 0 1 1.757 2.28 3.034 3.034 0 0 1-.216.685zm193.028-4.65a85.128 85.128 0 0 1-10.5-9.839c-1.934-2.13-3.014-3.15-4.964-3.15-2.28 0-4.043 1.32-8.088 4.86-2.163 1.889-3.266 2.7-4.027 3.269l2.241 4.47c.071-.06.359-.33.5-.48 1.625-1.56 4.244-3.99 5.834-5.52 1.56-1.529 1.947-1.679 2.337-1.679a1.511 1.511 0 0 1 1.143.659c.074.09 1.375 1.56 2.047 2.34 3.046 3.48 6.739 7.71 9.631 10.02zm28.794-8.459a27.891 27.891 0 0 1-4.64 3.509 17.871 17.871 0 0 1-.291-3.449h3.96l.249-1.41h3.39l1.223-6.93h-11.04l.36-2.04h-4.47l-.36 2.04h-11.074l-1.223 6.93h3.27l-.249 1.41h5.88a23.5 23.5 0 0 1-10.114 2.4l.794 3.66a36.464 36.464 0 0 0 9.6-2.7c.168.24.366.48.646.93a37.724 37.724 0 0 1-11.892 3.3l.93 3.57a43.242 43.242 0 0 0 12.039-4.47c.134.6.166.93.208 1.2a48.028 48.028 0 0 1-14.945 5.13l.9 3.9a51.236 51.236 0 0 0 7.484-2.46l.091 3.39h4.95c4.2 0 5.105-5.13 5.259-6 1.027-5.82-.835-8.7-2.133-10.35a11.294 11.294 0 0 0 1.944-1.5h.54c-.249 6.509 1.592 12.569 5.572 17.039l4.139-3.39a18.012 18.012 0 0 1-4.616-6.48 43.458 43.458 0 0 0 5.961-4.2zm-18.75 14.244a39.063 39.063 0 0 0 5.8-3.12c-.41 3-1.271 3.12-2.2 3.12h-3.6zm-.448-17.519l.233-1.32h17.85l-.233 1.32h-17.85zm34.714 21.389a17.985 17.985 0 0 0 8.454-6.09 12.272 12.272 0 0 0 4.953 6.27l3.131-4.14a7.409 7.409 0 0 1-4.413-4.23h4.739l.73-4.14h-6.059c.33-1.02.487-1.74.727-2.76h5.219l.71-4.019h-8.76c.291-.63.327-.66.5-1.11l-3.409-.57.542-.69h12.149l.736-4.17h-10.262c.566-1.17.787-1.74 1.11-2.55l-4.38-.51a20.094 20.094 0 0 1-3.408 5.88l.387-2.19h-3.66l.619-3.51h-4.44l-.619 3.51h-4.02l-.736 4.175h1.98l-1.334 7.559a22.865 22.865 0 0 1-4.132 9.3l2.391 3.96a22.764 22.764 0 0 0 2.5-3.81l-.032 3.75h2.76c3 0 3.651-2.16 4.023-3.42zm-3.795-18.269l.459-2.575h4.41l-.283.24 2.474 3.149a21.7 21.7 0 0 0 2.312-2.219 15.639 15.639 0 0 1-4.233 4.949l2.576 2.4h-2.31l-.731 4.14h4.41a11.962 11.962 0 0 1-6.415 4.05c1.43-5.55 2.18-9.63 2.944-14.129h-5.609zm11.828 3.179c-.163.75-.341 1.59-.7 2.76h-3.06a20.716 20.716 0 0 0 2.557-2.76h1.2zm-15.734 10.62a35.18 35.18 0 0 0 3.037-8.88l.159-.9h1.53c-.237 1.68-1.557 7.8-1.887 8.82a1.135 1.135 0 0 1-1.339.96h-1.5zm27.844-7.68h27.839l.858-4.86h-27.839zm42.879 7.08h-.87a46.311 46.311 0 0 0 .184-5.97l-3.071.57a37.228 37.228 0 0 1-.455 6.66l1.493-.3-.583 3.3h17.19l.751-4.26h-1.289l3.971-22.5h-13.35l-2.563 14.519a31.881 31.881 0 0 0-.654-6.149l-3.485 1.05c.067.809.118 1.2.136 1.949l-2.757.15a89.952 89.952 0 0 0 7.686-8.189l-3.577-1.32a49.338 49.338 0 0 1-3.745 4.56 11.217 11.217 0 0 0-.7-1.11 49.788 49.788 0 0 0 4.327-5.31l-3.729-1.14a38.819 38.819 0 0 1-2.7 3.93 4.166 4.166 0 0 0-.644-.6l-2.724 3.691a15.1 15.1 0 0 1 3.046 3.99c-.919.959-1.247 1.289-1.646 1.679-.4.03-.576.03-2.171.06l-.543 3.93c.73-.06 3.868-.33 4.533-.36l-2.155 12.21h3.81l2.224-12.6c1.191-.12 1.316-.15 1.5-.18 0 .18-.04 1.08-.017 1.29l3.921-1.14zm11.068-11.04l-.588 3.33h-4.889l.587-3.33h4.89zm1.282-7.259l-.593 3.36h-4.89l.593-3.36h4.89zm-2.574 14.579l-.656 3.72h-4.89l.656-3.72h4.89zm-21.955-1.89a36.357 36.357 0 0 1-2.268 7.41l2.732 1.86a39.679 39.679 0 0 0 2.633-8.97zm37.906-8.323l4.664 5.683.658-.559-4.684-5.666 6.682-5.666-.461-.559-6.668 5.683-4.664-5.683-.658.559 4.685 5.666-6.682 5.666.461.559zm5.108-1.993a1.817 1.817 0 0 0-1.707 1.451 1.189 1.189 0 0 0 1.2 1.451 1.821 1.821 0 0 0 1.725-1.451 1.193 1.193 0 0 0-1.218-1.451zm-9.513 0a1.82 1.82 0 0 0-1.724 1.451 1.193 1.193 0 0 0 1.213 1.451 1.817 1.817 0 0 0 1.707-1.451 1.189 1.189 0 0 0-1.196-1.451zm5.6-4.774a1.821 1.821 0 0 0-1.71 1.469 1.189 1.189 0 0 0 1.195 1.451 1.818 1.818 0 0 0 1.708-1.451 1.186 1.186 0 0 0-1.195-1.469zm-1.68 9.53a1.817 1.817 0 0 0-1.707 1.451 1.193 1.193 0 0 0 1.192 1.469 1.822 1.822 0 0 0 1.711-1.469 1.182 1.182 0 0 0-1.196-1.455zm22.763-11.869c-.319.96-.617 1.8-1.032 2.79h-6.42l-.768 4.35h5.25c-1.517 2.82-2.837 4.859-8.109 9.569l2.732 3.39c.7-.72 3.972-4.32 4.8-5.07.787-.72 3.312-2.79 5.652-2.79a1.942 1.942 0 0 1 1.717.81c-4.546 2.13-8.5 4.47-9.129 8.04a4.213 4.213 0 0 0 2.513 4.8c1.4.57 3.51 1.02 7.919 1.02.66 0 1.266-.03 6.711-.12l.786-4.62c-3.484.36-7.323.36-7.623.36-3.12 0-5.444-.09-5.111-1.98.26-1.47 1.933-2.28 3.927-3.21a31.134 31.134 0 0 1-.636 3.09h4.65c.115-.48.235-.99.362-1.71a30.775 30.775 0 0 0 .432-3.3 65.579 65.579 0 0 1 7.255-2.01l-.371-4.529c-1.388.39-3.88 1.08-7.062 2.279a4.067 4.067 0 0 0-4.2-2.729 9.241 9.241 0 0 0-3.693.87 19.009 19.009 0 0 0 1.371-2.16h12.414l.767-4.35h-11.067c.256-.6.455-1.05.928-2.37z"/><path id="_極上体験_" class="cls-2" d="M458.263 155.306h4.5c2.447 0 3.463-.864 3.9-3.311l1.816-10.3a25.259 25.259 0 0 0 1.076 6.551 22.307 22.307 0 0 1-2.557 2.664l1.84 3.851c.654-.648 1.133-1.116 2.443-2.627a21.607 21.607 0 0 0 2.141 3.167l3.519-4.031a14.091 14.091 0 0 1-2.787-3.384 47.862 47.862 0 0 0 4.754-13.282h-8.279l-.8 4.535h4.32a23.652 23.652 0 0 1-1.738 4.752 15.588 15.588 0 0 1-.676-3.924l-3.2 1.4 1.237-7.019h-3.275c.178-.4.576-1.224.7-1.548h12.454l.851-4.823h-22.712l-.851 4.823h5.147a33.542 33.542 0 0 1-2.91 5.687h5.831l-2 11.339a1.934 1.934 0 0 1-.316.972 1.39 1.39 0 0 1-.974.216l2.012-11.411h-7.739l-.742 4.212a18.051 18.051 0 0 1-2.123-4.5l.185-1.044h2.663l.889-5.039h-2.662l1.054-5.975h-4.895l-1.054 5.975h-3.456l-.888 5.039h3.023a27.113 27.113 0 0 1-5.413 9.467l.547 7.307a25.476 25.476 0 0 0 3.362-5.8l-2.139 12.13h4.9l2.666-15.118a16.245 16.245 0 0 0 1.138 2.736l1.994-3.959-1.238 7.019h4.599zm1.739-11.7l-.768 4.355h-1.584l.768-4.355h1.582zm-8.032 12.274l-.825 4.68h23.829l.825-4.68h-23.829zm45.09-28.688l-4.824 27.356h-13.318l-.99 5.616h34.123l.991-5.616h-15.011l2.184-12.382h13.174l1-5.651h-13.177l1.644-9.323h-5.8zm29.425 28.508a51 51 0 0 0 4.115-3.743l-.7 3.959h4.535l-.952 5.4h5.328l.952-5.4h4.537l.692-3.916a27.427 27.427 0 0 0 2.5 3.563l3.857-5.543a29.737 29.737 0 0 1-6.787-12.131h8.315l.946-5.363h-9.935l.946-5.363h-5.328l-.946 5.363h-9.25l-.946 5.363h7.919c-2.685 4-7.567 9.431-11.642 12.131l2.437-13.822a39.8 39.8 0 0 0 3.69-8.675l-5.209-.468a29.405 29.405 0 0 1-7.744 12.886l.077 7.523a14.375 14.375 0 0 0 2.323-1.944l-2.787 15.8h5.22l1.9-10.8zm5.127-4.787a43.58 43.58 0 0 0 4.844-6.443l-1.136 6.443h-3.708zm10.165-6.407a30.586 30.586 0 0 0 2.614 6.407h-3.744zm44.326-7.415c.976.791 1.459 1.115 2.037 1.511l3.04-4.787a14.68 14.68 0 0 1-6.59-6.515h-5.579a23.17 23.17 0 0 1-8.391 6.551h-2.987l.3-1.728h3.779l.7-3.959h-14.035l-3.536 20.049h10.043a72.384 72.384 0 0 1-1.941 7.739 2.042 2.042 0 0 1-2.074 1.152h-2.808l.151 4.247h3.419c2.34 0 3.45-.575 4.654-4.139l1.826 4.139a19.454 19.454 0 0 0 8.983-7.055 12.508 12.508 0 0 0 6.721 7.2l3.334-4.823a10.52 10.52 0 0 1-5.808-4.823h5l2-11.339h-6.515l.285-1.62h3.672zm-11.944 1.8h3.312l-.286 1.62h-6.047l-2 11.339h4.462a15.961 15.961 0 0 1-7.182 5 102.966 102.966 0 0 0 2.982-12.418h-3.635l.311-1.764h2.987l.654-3.708h-2.988l.311-1.763h2.988l.4-2.268 1.277 3.779a27.122 27.122 0 0 0 2.776-1.655zm-10.608-1.691l-.311 1.763h-2.34l.311-1.763h2.34zm.895-5.076l-.305 1.728h-2.341l.3-1.728h2.34zm-1.86 10.547l-.311 1.764h-2.34l.311-1.764h2.34zm15.136-8.063a29.367 29.367 0 0 0 3.525-3.456 21.979 21.979 0 0 0 2.343 3.456h-5.868zm2.572 13.174a23.044 23.044 0 0 0 .7-3.167h2.34l-.559 3.167h-2.484zm-6.479 0l.559-3.167h2.2a16.835 16.835 0 0 1-.739 3.167h-2.016zm-19.757 2.018a25.383 25.383 0 0 1-2.758 7.883l1.83 1.872a38.024 38.024 0 0 0 2.991-9.611zm2.926.144c-.069.4-.105 1.008-.156 1.3a46.216 46.216 0 0 1-1.429 5.651l2.211-.288c.1-.576.465-2.232.649-3.276.153-.863.388-2.807.453-3.383h-1.728zm2.545-.144a32.59 32.59 0 0 1-.693 5.975l1.827-.36a39.7 39.7 0 0 0 .452-5.831zm2.476-.36a26.384 26.384 0 0 1-.247 5.075l1.611-.36a26.192 26.192 0 0 0 0-4.9zm261.845-19.619c-3.456 0-20.321.108-24.117 0l-1.016 5.76c1.717-.144 10.358-.36 11.108-.324a17.225 17.225 0 0 0-3.979 1.944l3.539 3.2a36.436 36.436 0 0 1 13.493-5.075zm-23.872 11.879c-2.494 2.3-4.895 4.9-5.536 8.531a6.242 6.242 0 0 0 2.624 6.551c2.926 1.98 6.139 2.34 13.734 2.34a67.152 67.152 0 0 0 9.788-.4l.969-5.9a103.972 103.972 0 0 1-11.182.539c-5.4 0-10.5-.036-9.863-3.671.387-2.2 2.373-4.068 3.445-5.039zm21.045 2.52a22.432 22.432 0 0 0-2.478-5.544l-3.231 1.584a27.6 27.6 0 0 1 2.3 5.723zm5.238-2.556a21.843 21.843 0 0 0-2.516-5.327l-3.267 1.583a28.75 28.75 0 0 1 2.461 5.436zm14.252 3.1l-2.92 16.557h5.183l.286-1.619h9.791l-.286 1.619h5.183l2.92-16.557h-20.157zm-13.46 5.9a33.6 33.6 0 0 0 3.67-1.008l-.9 5.111a.941.941 0 0 1-1.113 1.008h-2.63l-.258 5.543h4.716c3.1 0 3.552-1.979 3.756-3.131l1.8-10.223c2.336-.792 2.571-.9 3.462-1.26l.738-5a28.749 28.749 0 0 1-3.279 1.044l.812-4.608h3.1l.888-5.039h-3.1l1.034-5.867h-5.075l-1.035 5.867h-3.779l-.889 5.039h3.78l-1.06 6.012c-.716.18-3.765.936-4.216 1.044zm27.59-1.116l-.94 5.327h-9.791l.94-5.327h9.791zm-12.038-21.348l-.851 4.823h6.3c-1.352 2.772-3.148 4.787-7.924 6.767l1.934 4.752a20.966 20.966 0 0 0 11.174-11.519h4.862a21.619 21.619 0 0 1-1.276 4.176 1.54 1.54 0 0 1-1.66 1.043h-3.464l.264 5.04h4.5a4.386 4.386 0 0 0 4.429-2.664c1.283-2.376 2.282-7.019 3.414-12.418h-21.7zm32.406 14.254h14.9l-.4 2.268h-14.65l-.921 5.219h3.78l-3.4 2.52a22.326 22.326 0 0 1 4.032 5.507l4.924-3.636a22.056 22.056 0 0 0-3.617-4.391h8.927l-.857 4.859a1.167 1.167 0 0 1-1.463 1.152h-4.859v5.327h6.732c.972 0 3.851 0 4.524-3.815l1.327-7.523h3.563l.921-5.219h-3.564l.4-2.268h3.852l.888-5.04h-9.9l.483-2.735h8.6l.844-4.788h-8.6l.476-2.7h-5.327l-.476 2.7h-7.7l-.845 4.788h7.7l-.482 2.735h-7.739a1.144 1.144 0 0 0 .159-.287l-4.343-1.908a29.976 29.976 0 0 1-8.627 8.711l.339 6.443c.985-.684 1.317-.936 1.94-1.4l-2.171 12.31h5.363l3.218-18.249a39.19 39.19 0 0 0 2.49-3.1zm-7.811-3.854a34.466 34.466 0 0 0 10.573-10.15l-4.731-1.548a21.954 21.954 0 0 1-7.027 6.371zm39.751-9.035l-2.786 20.086h4.535l4.3-20.086h-6.047zm-3.825 22.714l-1 5.651h5.688l1-5.651h-5.687z"/><path id="_サンフランシスコ_北京_パリ_カイロ_" class="cls-2" d="M48.969 61.645h-13.342l-7.4 41.957h5.337l6.486-36.758h8zm-2.054 3.818h-8l-6.478 36.712h-2.581l6.908-39.15h10.581zm31.812 5.843h-11.87l1.4-7.913h-7.364l-1.4 7.913h-6.893l-1.218 6.9h6.9l-1.94 11h7.358l1.94-11h11.869l-.755 4.278c-.893 5.061-2.722 12.559-20.361 14.492l1.607 6.81c17.6-2.76 24.239-9.615 26.3-21.3l.755-4.278h7.177l1.218-6.9h-7.178l1.421-8.051h-7.546zm38.794.694a49.654 49.654 0 0 0-13.921-6.628l-4.416 6.257a48.964 48.964 0 0 1 13.234 7.131zm-20.808 31.1c16.132-2.254 31.224-7.223 42.592-31.237l-6.338-3.45c-8.516 18.54-19.148 25.349-37.3 26.775zm47.759-37.08l-1.272 7.219h28.569c-3.2 9.293-8.351 19.69-29.457 23.279l2 6.947c28.244-5.2 34.636-25.257 37.385-37.448h-37.225zm46.49-1.472l-1.2 6.809h31.605l1.2-6.809h-31.605zm-5.393 11.271l-1.193 6.763h29.259c-2.9 7.039-8.389 13.388-26.867 14.078l.991 6.9c23.5-1.748 31.665-12.329 35.856-27.741h-38.046zm63.098-3.819a49.64 49.64 0 0 0-13.921-6.625l-4.416 6.257a48.954 48.954 0 0 1 13.233 7.131zm-20.807 31.1c16.131-2.254 31.224-7.223 42.592-31.237l-6.338-3.45c-8.516 18.54-19.148 25.349-37.3 26.775zm67.252-34.14a51.248 51.248 0 0 0-13.534-4.647l-3.7 6.119c7.954 2.116 11.385 4.049 13.185 5.061zm-6.089 11.04a46.825 46.825 0 0 0-12.923-4.967l-3.666 6.167a51.383 51.383 0 0 1 12.622 5.383zm-16.015 23.233c17.664-2.07 29.9-7.821 41-29.535l-6.308-3.312c-9.76 20.614-20.279 23.647-35.32 24.935zm43.314.368c3.41-1.334 10.345-4.14 20.217-13.157a117.914 117.914 0 0 1 10.972 13.433l7.282-6.072a94.463 94.463 0 0 0-12.809-12.927c8.11-9.2 10.838-16.838 11.785-19.6h-32.111l-1.226 6.947h22.312a57.064 57.064 0 0 1-29.521 25.211zm49.888-36.9l-1.266 7.177h26.591l-3.442 19.506h-27.051l-1.275 7.223h34.826l5.983-33.906h-34.366zm35.29 38.557h13.341l7.4-41.956h-5.336l-6.486 36.758h-8zm2.054-3.818h8l6.478-36.712h2.577l-6.908 39.15h-10.581zm50.911-39.795h-13.344l-7.4 41.957h5.336l6.486-36.758h8zm-2.053 3.818h-8l-6.478 36.712h-2.577l6.909-39.15h10.581zm-.154 37.862c3.913-1.058 6.582-1.84 11.337-3.5l-.966 5.474h7.13l7.712-43.7h-7.131l-1.769 10.029h-11.459l-1.217 6.9h11.455l-2.46 13.94c-5.282 1.518-10.175 2.392-12.41 2.806zm22.708-2.76c-.4 2.254.733 4.186 3.448 4.186h11.133a5.712 5.712 0 0 0 4.668-2.99c1.2-2.116 2.563-8.787 2.917-10.535l-6.189-2.208a61.781 61.781 0 0 1-1.7 7.821 1.382 1.382 0 0 1-1.5.966h-4c-1.058 0-.888-.966-.823-1.334l2.48-14.123a82.307 82.307 0 0 0 15.1-8.925l-3.735-6.211a87.17 87.17 0 0 1-9.921 6.947l2.217-12.559h-7.222zm31.651-27.143l-2.841 16.1h13.986l-1.307 7.407a1.323 1.323 0 0 1-1.5 1.2h-5.336l.2 7.222h8.142c3.267 0 4.458-2.576 4.807-4.554l1.988-11.271h14.492l2.841-16.1h-35.47zm27.133 5.8l-.772 4.371h-21.027l.771-4.371h21.025zm13.874-14.492h-18.497l.552-3.128h-7.269l-.552 3.128h-17.758l-1.128 6.395h43.521zm-39.654 25.255a44.17 44.17 0 0 1-10.41 9.2l3.642 5.428a48.834 48.834 0 0 0 11.91-11.179zm34 8.6a23.986 23.986 0 0 1-8.532-8.741l-6.568 3.589a30.523 30.523 0 0 0 9.139 11.041zm2.682 6.67h13.342l7.406-41.955h-5.337l-6.486 36.758h-8zm2.054-3.818h8l6.478-36.712h2.576l-6.908 39.15h-10.578zm50.912-39.795h-13.344l-7.4 41.957h5.337l6.486-36.758h8zm-2.054 3.818h-8l-6.478 36.712h-2.586l6.908-39.15h10.581zm45.369-4.509a6.341 6.341 0 0 0-6.007 5.107 4.159 4.159 0 0 0 4.205 5.107 6.373 6.373 0 0 0 5.962-5.107 4.15 4.15 0 0 0-4.162-5.103zm-.543 3.082a1.635 1.635 0 0 1 1.621 2.024 2.444 2.444 0 0 1-2.328 1.978 1.613 1.613 0 0 1-1.675-1.978 2.5 2.5 0 0 1 2.38-2.019zm-39.44 38.92c8.3-8.419 13.715-24.015 16.51-36.988l-7.193-.69c-2.9 14.63-8.28 25.809-14.645 32.158zm25.511-36.9c-1.932 14.86.225 29.489 4.363 36.8l7.642-5.245c-4.289-7.5-5.894-17.436-5.042-27.741a6.331 6.331 0 0 1-.409-3.68 8.763 8.763 0 0 1 .349-1.2zm31.677-1.472h-7.729l-4.459 25.266h7.729zm22.358-.782h-7.775l-3.555 20.15c-1.648 9.339-8.987 11.823-22.069 12.7l1.51 7.085c12.527-1.38 25.566-4.094 28.529-20.886zm.5 41.45h13.341l7.4-41.956h-5.337l-6.486 36.758h-8zm2.054-3.818h8l6.478-36.712h2.577l-6.909 39.15h-10.577zm50.911-39.795h-13.341l-7.4 41.957h5.336l6.486-36.758h8zm-2.054 3.818h-8l-6.478 36.712h-2.577l6.909-39.15h10.581zm26.324 5.659c.807-3.266 1.367-5.659 1.84-7.821l-7.766-.046c-.325 1.84-.755 4.278-1.665 7.867h-12.467l-1.218 6.9h11.645c-3.767 10.4-8.441 15.5-17.333 20.012l4.078 5.566c3.678-2.07 15.019-8.465 20.846-25.579h10.075l-.414 2.346a116.249 116.249 0 0 1-3.2 12.927c-.772 2.024-1.416 2.806-4.314 2.806a39.99 39.99 0 0 1-6.863-.736l-.906 7.223a32.52 32.52 0 0 0 7.867.782c2.53 0 7.046-.046 9.8-5.244 2.289-4.371 4.487-15 5.363-19.966l1.242-7.039h-16.61zm46.88 8.051a121.154 121.154 0 0 0 15.5-11.961l-5.821-4.555c-4.373 4.186-17.408 16.792-37.9 22.359l2.953 6.211a94.015 94.015 0 0 0 16.575-6.855l-3.312 18.77h7.775zm22.681-13.065l-6.226 35.286h36.344l6.226-35.286h-36.344zm23.615 28.339h-21.117l3.775-21.392h21.116zm13.593 10.82h13.342l7.4-41.956h-5.337l-6.486 36.758h-8zm2.054-3.818h8l6.478-36.712h2.576l-6.908 39.15h-10.579z"/><path id="ソニックの公開を記念し_映画に登場する印象的なロケ地" class="cls-1" d="M56.424 13.777a40.711 40.711 0 0 0-5.978-10.558l-6.062 3.081a52.919 52.919 0 0 1 5.345 11.2zm-10.839 22.237c14.359-3.64 24.086-10.714 33.015-32.114l-6.978-1.48c-7.6 22-19.262 25.556-28.336 27.8zm42.096-30.714l-1.093 6.2h28.435l1.093-6.2h-28.435zm-6.7 20.756l-1.107 6.279h34.556l1.107-6.279h-34.554zm50.441-5a37.824 37.824 0 0 0-1.728-10.156l-5.318 1.36a36.6 36.6 0 0 1 1.383 10.078zm9.184-1.96a33.294 33.294 0 0 0-1.258-9.878l-5.27 1.08a37.335 37.335 0 0 1 1.078 10zm-14.44 17.717c18.857-4.2 24-16.557 27.938-26l-5.945-1.44c-5.041 13.4-8.973 18.917-24.024 22.4zm51.1-30.955c1.547-2.2 2.178-3.279 2.916-4.519l-6.644-.88a36.2 36.2 0 0 1-15.7 15.317l3.334 4.679a44.339 44.339 0 0 0 11.048-8.679h12.4c-6.546 14.678-16.944 17.4-26.935 18.717l1.563 5.879c13.743-1.96 27.112-7.919 34.414-30.515h-16.4zm31.044 29.756c1.622-.18 6.266-.66 9.662-3.24a15.249 15.249 0 0 0 5.795-9.72c1.509-8.55-3.614-12.329-10.513-12.329a17.073 17.073 0 0 0-17.017 13.975c-.831 4.71.963 8.82 5.013 8.82 8.04 0 11.949-15.689 12.559-18.3 3.373.27 5.907 2.4 5.022 7.41-1.424 8.07-8.209 8.61-11.491 8.85zm.9-20.579c-1.836 7.17-4.584 13.049-6.864 13.049-1.709 0-1.563-2.7-1.362-3.84a11.539 11.539 0 0 1 8.229-9.209zm44.4 19.529a42.885 42.885 0 0 0-5.807-11.969l-4.684 2.4a26.365 26.365 0 0 1 2.9 5.16c-3.538.33-6.194.42-10.295.54a131.325 131.325 0 0 0 7.555-12.719l-4.72-.96a125.073 125.073 0 0 1-7.786 13.859c-.905.03-3.286.09-3.886.09l-.226 4.68c13.826-.66 17.474-.93 20.918-1.41.418 1.2.6 1.89.78 2.55zm-16.01-26.549a29.216 29.216 0 0 1-9.915 10.29l2.422 4.29a39.284 39.284 0 0 0 11.813-13.38zm19.646 10.56a19.821 19.821 0 0 1-6.356-10.56l-4.708 1.35a24.3 24.3 0 0 0 7.139 13.259zm17.484 1.225h8.16l-2.124 12.029c-.09.51-.171.63-.831.63h-2.46l.2 4.29h3.81c2.55 0 2.984-2.46 3.079-3l4.336-24.564h-12.3zm-10.33 6.664l-.641 3.63h2.67a7.765 7.765 0 0 1-3.429 3.506l2.6 2.94a11.988 11.988 0 0 0 5.008-6.45h2.79l-1.1 6.24h4.019l1.1-6.24h2.64l.64-3.63h-2.64l.355-2.01h2.22l.625-3.54h-15.36l-.624 3.54h2.52l-.355 2.01h-3.038zm19.81-14.309l-.244 1.38h-4.02l.244-1.38h4.02zm-.636 3.6l-.243 1.38h-4.02l.244-1.38h4.019zm-12.089 10.71l.354-2.01h2.55l-.354 2.01h-2.55zm-13.966 10.29h4.08l2.991-16.955h8.1l1.874-10.62h-12.179zm12.591-24.6l-.243 1.38h-4.14l.244-1.38h4.139zm-.635 3.6l-.244 1.38h-4.139l.243-1.38h4.14zm32.468-7.02c-.319.96-.618 1.8-1.032 2.79h-6.42l-.768 4.35h5.25c-1.518 2.82-2.838 4.86-8.109 9.57l2.732 3.39c.7-.72 3.972-4.32 4.794-5.07.787-.72 3.313-2.79 5.653-2.79a1.942 1.942 0 0 1 1.717.81c-4.546 2.13-8.5 4.47-9.129 8.04a4.212 4.212 0 0 0 2.513 4.8c1.4.57 3.509 1.02 7.919 1.02.66 0 1.265-.03 6.711-.12l.786-4.62c-3.484.36-7.324.36-7.624.36-3.12 0-5.444-.09-5.11-1.98.259-1.47 1.932-2.28 3.926-3.21a31.262 31.262 0 0 1-.635 3.09h4.65c.115-.48.235-.99.362-1.71a30.773 30.773 0 0 0 .432-3.3 65.6 65.6 0 0 1 7.255-2.01l-.371-4.53c-1.389.39-3.88 1.08-7.062 2.28a4.068 4.068 0 0 0-4.2-2.73 9.241 9.241 0 0 0-3.693.87 19.009 19.009 0 0 0 1.371-2.16h12.419l.768-4.35h-11.068c.256-.6.456-1.05.929-2.37zm35.063 4.8h8.85l-.958 5.43h-8.61l-2.51 14.219c-.259 1.47-.092 3.24 2.638 3.24h7.65c3.18 0 4.046-3.72 4.9-7.86l-4.108-1.2a21.7 21.7 0 0 1-.986 3.72c-.466 1.11-.976 1.11-1.366 1.11h-2.94c-.99 0-1.094-.09-.851-1.47l1.34-7.59h8.67l2.456-13.919h-13.412zm-12.853-1.11h11.4l.567-3.21h-11.4zm-4.3 24.359h4.14l.186-1.05h7.259l1.531-8.67h-11.4zm8.564-6.54l-.386 2.19h-3.27l.387-2.19h3.269zm-6.034-13.229h13.379l.609-3.45h-13.379zm.187 4.38h11.4l.583-3.3h-11.4zm-.784 4.44h11.4l.582-3.3h-11.4zm39.472-8.46h13.8l.191-1.08a36.379 36.379 0 0 0 5.437 2.34l2.638-4.41a26.519 26.519 0 0 1-11.306-5.97h-4.71a32.258 32.258 0 0 1-13.1 5.7l1.069 4.65a45.885 45.885 0 0 0 6.173-2.34zm4.433-3.36a18.494 18.494 0 0 0 3.4-2.43 17.949 17.949 0 0 0 2.631 2.43h-6.029zm-4.432 12.359a17.533 17.533 0 0 1 5.052 4.35l3.6-2.88-.485-.48a37.914 37.914 0 0 0 9.205-5.07l.667-3.78h-23.011l-.667 3.78h16.38a19.275 19.275 0 0 1-5.878 2.37c-.879-.63-1.347-.87-1.888-1.2zm-6.338-.12a21.707 21.707 0 0 1-4.154 7.05l3.086 2.91a29.388 29.388 0 0 0 4.927-8.88zm3.091 7.47c-.355 2.01.844 2.7 2.493 2.7h8.13c2.49 0 3.4-1.74 4.65-5.61l-4.145-.99c-.595 2.01-.739 2.49-1.669 2.49h-4.11c-.75 0-.69-.51-.627-.87l.625-3.54h-4.32zm14.5-5.82a34.01 34.01 0 0 1 2.749 8.22l4.491-2.67a32.941 32.941 0 0 0-3.114-7.68zm17.109-18.604c-.371 2.1-2.256 12.269-2.658 14.549-1.085 6.15-1.43 11.67 7.57 11.67 3.42 0 10.86-.51 15.146-11.879l-4.2-2.01c-1.324 3.93-3.611 9.24-10.15 9.24-3.9 0-4.361-1.98-3.678-5.85.159-.9 2.18-11.16 3.179-15.629zm33.108 23.7a48.375 48.375 0 0 0-5.261-7.08l-4.189 2.49a45.793 45.793 0 0 1 4.6 7.44zm37.959-7.2l.736-4.17h-.93l1.789-10.14h-6.183l.561-3.18h-4.32l-.561 3.18h-5.67l-1.79 10.14h-1.23l2.15-12.179h-9.45l-4.511 25.559h3.96l.381-2.16h4.2l1.466 3.93a21.75 21.75 0 0 0 10.128-8.43 13.357 13.357 0 0 0 5.452 8.37l3.177-4.23c-3.614-2.64-4.692-4.86-5.149-6.69h5.79zm-9.624-10.23l-.683 3.87a21.365 21.365 0 0 1-.507 2.19h-1.92l1.07-6.06h2.04zm-2.886 10.23a14.491 14.491 0 0 1-6.926 6.27l1.106-6.27h5.82zm-8.9-2.94l-1.037 5.88h-1.89l1.037-5.88h1.89zm14.977-1.23c.24-1.02.288-1.29.478-2.37l.651-3.69h2.13l-1.069 6.06h-2.19zm-13.335-8.07l-.974 5.52h-1.89l.974-5.52h1.89zm54.18-4.405h-28.414l-.72 4.08h12.39l-.3 1.68h-5.73l-2.686 15.239h15.179l2.69-15.239h-5.76l.3-1.68h12.33zm-17.661 9.3l-.413 2.34h-2.226l.413-2.34h2.22zm-1 5.67l-.445 2.52h-2.22l.445-2.52h2.22zm6.94-5.67l-.413 2.34h-2.25l.413-2.34h2.25zm-1 5.67l-.444 2.52h-2.25l.444-2.52h2.25zm-19.443 12.6h4.11l.207-1.17h17.909l-.207 1.17h4.2l3.913-22.169h-4.2l-3.007 17.039h-17.91l3.008-17.039h-4.11zm37.614-27.03a152.8 152.8 0 0 0-3.835 15.779 51.373 51.373 0 0 0-.975 10.109l5.044-.36a57.079 57.079 0 0 1 1.011-10.83 91.456 91.456 0 0 1 3.736-14.369zm7.635 1.95l-.831 4.71h15.419l.832-4.71h-15.42zm-.755 10.23a12.226 12.226 0 0 0-3.009 6c-1.07 6.06 5.4 6.3 10.317 6.3a49.14 49.14 0 0 0 5.508-.27l.768-4.86a62.982 62.982 0 0 1-7.114.36c-2.91 0-5.126-.36-4.766-2.4a6.49 6.49 0 0 1 1.978-3.39zm26.364-1.83h13.949l.291-1.65a45.478 45.478 0 0 0 5.19 3.06l2.854-4.44a31.8 31.8 0 0 1-3.373-1.29 27.753 27.753 0 0 0 3.4-3.09l-2.991-1.92c-.687.66-1.747 1.74-3.542 3.24a10.47 10.47 0 0 1-.964-.66 27.071 27.071 0 0 0 3.607-3.27l-3.026-1.89a24.137 24.137 0 0 1-3.1 2.79 9.106 9.106 0 0 1-1.271-1.98h-13.325l-.535 3.03-2.892 2.28a11.667 11.667 0 0 1 2.061 1.92c-1.535.54-2.483.81-3.491 1.08l1.239 4.2a55.067 55.067 0 0 0 6.157-2.76zm3.854-3.48a30.047 30.047 0 0 0 4.547-3.84 17.566 17.566 0 0 0 3.4 3.84h-7.949zm-.7-4.05a30.474 30.474 0 0 1-2.948 1.92c-.425-.48-.757-.81-1.881-1.92h4.83zm-7.753 8.91l-1.424 8.07h2.94a10.5 10.5 0 0 1 .312 2.31h-6.18l-.736 4.195h27.693l.741-4.2h-6.029c.224-.42.442-.81 1.157-2.31h2.82l1.424-8.07h-22.713zm17.6 3.09l-.339 1.92h-13.64l.339-1.92h13.645zm-4.029 4.98a22.416 22.416 0 0 1-1.127 2.31h-5.839a21.518 21.518 0 0 0-.282-2.31h7.259zm24.988-10.53h17.346l1.726-9.78h-17.337zm2.887 8.97a19.037 19.037 0 0 1-8.469 3.96l1.06 3c6.969-1.92 9.9-5.25 11.308-6.96h1.35c-.887 1.29-2.971 4.26-9.035 6.66l2.095 2.58a20.608 20.608 0 0 0 5.6-3.36l.086 2.91h4.53a3.31 3.31 0 0 0 3.2-1.8c1.1-1.83 2.341-8.16 2.757-10.35h-12.11c.338-.39.525-.6.951-1.14h12.059l.6-3.39h-20.28l-.6 3.39h4.17a14.935 14.935 0 0 1-4.555 3.03l.193-1.26a17.462 17.462 0 0 1-1.8.66l1.186-6.72h1.68l.757-4.29h-1.674l1.139-6.45h-4.26l-1.138 6.45h-2.4l-.757 4.29h2.4l-1.413 8.01a29.851 29.851 0 0 1-2.912.69l-.346 4.68a76.57 76.57 0 0 0 8.9-3.03l.068-.39.373.78a23.123 23.123 0 0 0 3.764-1.95h1.53zm11.442-16.049l-.238 1.35h-8.91l.238-1.35h8.91zm-.567 3.21l-.254 1.44h-8.909l.254-1.44h8.909zm-6.111 17.969a23.2 23.2 0 0 0 4.025-5.13h.96c-1.068 4.86-1.5 5.13-2.525 5.13h-2.46zm30.375-21.12h-13.709l-.778 4.41h13.8l-.22 1.59a6.647 6.647 0 0 0-2.176-.42 7.633 7.633 0 0 0-7.71 6.12c-.572 3.24 1.184 6.21 5.084 6.21a4.668 4.668 0 0 0 2.938-.84c-.387.66-1.078 1.86-4.029 2.43a31.71 31.71 0 0 1-6.019.45l.723 4.23c5.141-.06 13.468-1.35 14.85-9.18a18.591 18.591 0 0 0 .191-4.14l1.138-6.45h7.89l.778-4.41h-7.89l.493-2.79h-4.92zm-1.844 12.15a2.607 2.607 0 0 1-2.647 2.25c-1.98 0-2.144-1.62-1.964-2.64a2.967 2.967 0 0 1 2.945-2.58 1.734 1.734 0 0 1 1.814 2.13zm22.6-14.309l-.821 4.65 10.567-.21c-11.868 8.94-13.182 9.93-15.97 11.789l2.271 3.96c6.515-5.64 9.347-7.92 14.147-7.92 5.07 0 5.7 2.91 5.373 4.74-.4 2.28-2.1 3.72-4.784 4.5a7.085 7.085 0 0 0 .27-1.02c.434-2.46-.926-4.95-4.526-4.95-2.88 0-6.252 1.77-6.808 4.92-.111.63-.814 5.46 6.956 5.46 8.639 0 13.125-4.17 14-9.12.709-4.02-1.281-8.55-7.4-8.55a8.072 8.072 0 0 0-2.733.36c1.1-.78 1.41-1.02 6.617-4.86l.662-3.75h-17.824zm7.208 22.049a5.556 5.556 0 0 1-1.161.12c-.69 0-2.834-.09-2.564-1.62a2.011 2.011 0 0 1 2.179-1.47 1.777 1.777 0 0 1 1.758 2.28 3.089 3.089 0 0 1-.215.689zm22.291.51h7.829l.747-4.23h-7.83l.975-5.52h7.829l.736-4.17h-7.829l.778-4.41a41.6 41.6 0 0 0 8.673-1.89l-1.11-4.08a36.661 36.661 0 0 1-11.334 2.01l-4.4 24.959h4.47zm13.181-22.86l-4.818 27.3h4.26l4.034-22.859h3.99l-2.4 13.59c-.143.81-.216 1.05-1.146 1.05h-2.22l-.046 4.68h3.69c.96 0 3.12 0 3.591-2.67l3.723-21.089h-12.66zm13.771 22.259a48.935 48.935 0 0 0 13.8-4.23l.146.87c-2.417 1.29-6.5 3.15-15.464 4.5l.526 3.48a57.456 57.456 0 0 0 15.021-5.22c-.256 2.13-.789 2.43-2.169 2.43h-2.88l.383 3.27h4.11c2.1 0 3.981-.63 4.754-5.01a12.405 12.405 0 0 0 .078-3.84c.483 1.68 1.748 4.71 5.57 8.04l3.777-3.72a15.089 15.089 0 0 1-4.971-4.98 18.109 18.109 0 0 0 4.786-3.15l-2.2-2.16h2.43l1.356-7.68h-6.24a18 18 0 0 0 1.764-1.5l.562-3.18h-9.84l.819-.9-5.054-.6a21.381 21.381 0 0 1-9.287 4.86l.993 4.23c.416-.15.482-.18.768-.27l-.89 5.04h8.79a49.539 49.539 0 0 1-10.726 2.13l.378 3.3a51.64 51.64 0 0 0 11.265-2.64 6.2 6.2 0 0 1 .44.57c-3.759 1.92-8.8 2.79-13.142 3.24zm13.962-14.519l-.344 1.95h-6.03l.344-1.95h6.03zm10.139 0l-.344 1.95h-6.089l.345-1.95h6.089zm-14.911-2.88c.971-.57 1.479-.9 2.365-1.5h6.87a15.545 15.545 0 0 1-1.705 1.5h-7.53zm15.684 7.68a16.989 16.989 0 0 1-3.259 2.49 14.6 14.6 0 0 1-.491-2.49h3.75zm-7.058 3.96a9.19 9.19 0 0 0-1.611-2.94c.9-.51.97-.57 1.242-.75a27.671 27.671 0 0 0 .366 3.689zm27.438-4.02a35.939 35.939 0 0 0 4.961-5.67h6.209a92.146 92.146 0 0 1-3.235 14.759 1.669 1.669 0 0 1-1.916 1.17h-4.68l.131 4.53h5.789c2.64 0 3.754-1.38 4.541-3.12 1.517-3.33 3.146-12.9 4.657-21.629h-8.909a34.875 34.875 0 0 0 1.463-3.36l-4.331-.45a23.406 23.406 0 0 1-4.657 7.86l.651-3.69h-3.689a27.254 27.254 0 0 0 1.7-3.69l-4.437-.36a30.329 30.329 0 0 1-1.584 4.05h-2.94l-4 22.679h4.14l.291-1.65h6.81l2.213-12.54zm-4.06-5.55l-.757 4.29h-2.79l.757-4.29h2.79zm-1.446 8.19l-.826 4.68h-2.79l.826-4.68h2.79zm6.683-3.36a25.436 25.436 0 0 1 2.158 7.83l4.475-2.075a24.543 24.543 0 0 0-2.6-7.68zm25.9-12.3c-.24 1.02-.438 1.8-.969 3.45h-4.8l-.8 4.56h4.019a86.086 86.086 0 0 1-7.059 14.159l4.707 1.38a157.925 157.925 0 0 0 7.242-15.539h5.97l.8-4.56h-5.22c.139-.45.932-2.73 1.117-3.27zm20.4 3.03a57.9 57.9 0 0 0-9.788.9l-1.607 10.825a14.886 14.886 0 0 0-1.785-.09c-5.909 0-8.3 3.51-8.765 6.15-.582 3.3 1.377 5.97 6.386 5.97 3.33 0 6.468-1.29 7.216-4.68l.141-.63c1.108 1.2 2.088 2.28 2.744 3.15l3.475-4.56a20.142 20.142 0 0 0-4.932-3.84l1.239-8.04a23.021 23.021 0 0 1 2.8-.21c.93 0 1.694.09 2.4.15zm-12.333 17.7c-.133.75-.385 2.01-2.845 2.01-2.55 0-2.631-1.41-2.52-2.04.36-2.04 3.156-2.07 3.576-2.07a4.936 4.936 0 0 1 2.085.42zm19.187-18.449l-4.061 23.009h23.7l4.062-23.009h-23.7zm15.4 18.479h-13.767l2.462-13.949h13.769zm24.053-15.419a39.834 39.834 0 0 0 2.238-4.86l-4.985-.48c-1.538 4.8-4.555 9.66-9.168 12.509l2.993 3.27a26.188 26.188 0 0 0 6.028-5.94h6.45c-1.492 5.22-3.076 10.8-14.481 12.869l1.563 4.23c13.443-2.91 15.919-10.14 17.957-17.1h6.87l.794-4.5h-16.257zm27.664 7.8l1.479-.39-2 11.34c-.2 1.14-.427 3.27 2.813 3.27h10.919c3.33 0 4.306-3.15 5.142-6.87l-3.942-.936c-.718 3.39-1.138 3.39-2.1 3.39h-7.62c-.66 0-.746-.36-.688-.69l1.869-10.59 2.476-.6-1.7 9.63h4.2l1.9-10.74 2.571-.63c-1 5.49-1.329 5.49-2.259 5.49h-.96l.056 4.44h2.19c2.49 0 3.217-2.25 3.44-3 .665-2.07 2.17-9.24 2.739-12.629l-6.962 1.71 1.059-6h-4.2l-1.254 7.11-2.476.6.884-5.01h-4.2l-1.075 6.09-1.133.3.382-2.16h-2.07l1.223-6.93h-4.41l-1.223 6.93h-2.82l-.762 4.32h2.819l-1.562 8.85c-2.024.42-2.579.51-3.411.63l-.151 4.77a79.441 79.441 0 0 0 9.634-3.09l.652-4.2c-1.018.33-1.435.48-2.1.66l1.345-7.62h1.47z"/></svg>