<svg id="レイヤー_1" data-name="レイヤー 1" xmlns="http://www.w3.org/2000/svg" width="430.51" height="199.59" viewBox="0 0 430.51 199.59">
  <defs>
    <style>
      .cls-1 {
        fill: #fff;
      }
    </style>
  </defs>
  <title>b_top_jp_logo</title>
  <g>
    <g>
      <g>
        <path d="M27.6,10.27v38.6H16.4V10.27H0V.12H44V10.27Z"/>
        <path d="M128.07.12h14L121.52,23.69l21.4,25.18H128.69L108.77,24.13V48.87H97.7V.12h11.07V23.26Z"/>
        <path d="M155.7.12l11,19.67,11-19.67h12.93l-18.37,29.7v19H161.08v-19L142.71.12Z"/>
        <path d="M48.13,0V49H93.81V0ZM83.36,38.3H58.57V10.71H83.36Z"/>
        <path d="M191.67,0V49h45.69V0Zm35.24,38.3H202.12V10.71h24.79Z"/>
      </g>
      <g>
        <path d="M98.74,124H86.24l-3.65-10.15H63.23L59.58,124H47.08L65.64,75.22H80.11ZM72.88,86,66.2,104.23H79.56Z"/>
        <path d="M116.47,75.22l10.7,35.2,10.7-35.2H154V124H143.5V100.52c0-1.55.31-11.94.37-13.73L132.37,124H122L110.46,86.79c.07,1.54.38,12.18.38,13.73V124H100.32V75.22Z"/>
        <path d="M196.91,75.22V85.36H168.83v9h27v9.72h-27v9.71h28.76V124H157.7V75.22Z"/>
        <path d="M284.56,75.22V93.77h23.75V75.22h11.13V124H308.31v-20H284.56v20H273.48V75.22Z"/>
        <path d="M382.44,75.22l5.45,37.67,5.44-37.67h14.73l5.44,37.67,5.44-37.67h11.57L421.11,124h-15L400.7,86.79,395.24,124h-14.9l-9.46-48.75Z"/>
        <path d="M323.69,75.09v49h45.68v-49Zm35.24,38.31h-24.8V85.8h24.8Z"/>
        <polygon points="45.7 92.17 45.7 75.09 0.01 75.09 0.01 124.11 45.7 124.11 45.7 107.08 45.7 96.49 35.25 96.49 22.78 96.49 22.78 107.08 35.25 107.08 35.25 113.4 10.46 113.4 10.46 85.81 35.25 85.81 35.25 92.17 45.7 92.17"/>
        <polygon points="269.12 84.84 269.12 74.75 229.25 74.75 229.25 79.37 229.25 84.84 229.25 94.26 229.25 101.24 229.25 104.36 259.03 104.36 259.03 113.78 229.25 113.78 229.25 123.87 259.03 123.87 269.12 123.87 269.12 113.78 269.12 104.36 269.12 102 269.12 94.26 239.34 94.26 239.34 84.84 269.12 84.84"/>
      </g>
    </g>
    <g>
      <path d="M16.28,182.82c-3.22.37-5.2.92-5.2,4.58V189H43.84V199.1H0v-9.72c0-4.71,0-14.86,12.07-16.29l15.85-1.85c3.6-.44,5.27-1.06,5.27-5.2,0-4.34-1.36-6.07-10.53-6.07-10.34,0-10.71,1.3-10.83,7.37H.93c0-10.41.56-17.53,20.86-17.53,12.88,0,22.42.87,22.42,15.61,0,6.31-1.61,9.53-3.78,11.45a15.82,15.82,0,0,1-9.1,4.09Z"/>
      <path d="M71.08,149.81c19.82,0,22.54,4.59,22.54,25.33,0,19.93-3.72,24.45-21.18,24.45-18.69,0-23.15-2.22-23.15-24.89C49.29,154.64,52.82,149.81,71.08,149.81ZM60.43,174.89c0,14.49.75,14.61,11.7,14.61,9.29,0,10.34-.74,10.34-13.43,0-2.67-.12-10.84-.92-12.94C80.49,160.22,77,160,71.45,160,61.18,160,60.43,160.28,60.43,174.89Z"/>
      <path d="M118.82,150.31V199.1H107.61V160.46h-10V150.31Z"/>
      <path d="M127.3,163.75c0-11.21,6.94-13.94,20.74-13.94s22.36,1.55,22.36,13.87c0,4.4-1.18,8.18-5.89,10.16a7.19,7.19,0,0,1,3.72,2.1c2.91,3.22,3,8.49,3,9.6,0,12.88-10.4,14.05-21.42,14.05s-23.28-.24-23.28-13.93c0-1.23.12-6.62,3-9.72a7.3,7.3,0,0,1,3.65-2.1C128.91,172,127.3,168.64,127.3,163.75Zm10.16,20.49c0,4.71,2.16,5.51,11.39,5.51,9.78,0,11.45-.93,11.45-5.88,0-5.2-3.09-5.51-11.45-5.51C139.69,178.36,137.46,178.92,137.46,184.24Zm.8-19.57c0,4.28,1.86,4.9,11.33,4.9,8.86,0,9.85-1.18,9.85-5.21,0-3.59-1.12-4.82-10.59-4.82C138.94,159.54,138.26,160.9,138.26,164.67Z"/>
    </g>
  </g>
  <rect x="197.1" y="159.14" width="123.41" height="27.1"/>
  <g>
    <path class="cls-1" d="M207.87,171.06a42.51,42.51,0,0,0,9.43-3.27l.55,1a47.14,47.14,0,0,1-10,3.3v4.51c0,1.54.39,1.7,2.94,1.7h4.71a33.93,33.93,0,0,0,4.14-.25l.08,1.08a36.83,36.83,0,0,1-4.35.23h-4.67c-3.05,0-4-.41-4-2.74V165h1.12Zm10-7.43a19.16,19.16,0,0,1,1.87,3.5l-1,.57a18.13,18.13,0,0,0-1.79-3.55Zm2.7-.74a20.08,20.08,0,0,1,1.83,3.51l-1,.56a17.63,17.63,0,0,0-1.75-3.57Z"/>
    <path class="cls-1" d="M229.4,172.48a26.1,26.1,0,0,0-5.24-2.18l.48-1a22.47,22.47,0,0,1,5.26,2.09Zm-4.34,5.79c8.74-.85,11.11-5.08,12.79-10.18l1,.7c-2.26,6.6-5.73,9.72-13.47,10.7Zm5.79-10.11a25.16,25.16,0,0,0-5.31-2.14l.5-1a25.94,25.94,0,0,1,5.3,2Zm5.19-4.82a17.27,17.27,0,0,1,1.62,3.62l-1,.5a18.57,18.57,0,0,0-1.54-3.66Zm2.75-.21a16.84,16.84,0,0,1,1.64,3.61l-1,.51a17.48,17.48,0,0,0-1.57-3.65Z"/>
    <path class="cls-1" d="M249.22,164.26h1.08V167h5.29v1a24.69,24.69,0,0,1-5.29,5v7.17h-1.08v-6.43a28.57,28.57,0,0,1-6.95,3.14l-.45-1.07A24,24,0,0,0,254.11,168H243v-1h6.18Zm7.94,12.38a31,31,0,0,0-5.45-3.12l.61-.83a37.36,37.36,0,0,1,5.41,2.94Z"/>
    <path class="cls-1" d="M273.24,165.43a20.37,20.37,0,0,1-3.68,7.53c2.26,1.82,4.38,3.74,6.47,5.79l-.94.87a76.37,76.37,0,0,0-6.21-5.8,21.76,21.76,0,0,1-7.69,5.93l-.7-.89a21,21,0,0,0,11.29-12.38H261.34v-1Z"/>
    <path class="cls-1" d="M287.89,171.52c0,6.19-3.53,7.63-7,8.39l-.46-1c2.55-.48,4.62-1.33,5.62-3.44a10.66,10.66,0,0,0,.74-3.79v-.75h-7.52v-1.06h15v1.06h-6.31Zm3-6.5v1.07H280.74V165Zm1.48-1.65a18.24,18.24,0,0,1,1.14,3.79l-1.07.37a18.15,18.15,0,0,0-1.05-3.82Zm2.56-.38a17,17,0,0,1,1.17,3.78l-1.09.37a18.39,18.39,0,0,0-1.05-3.82Z"/>
    <path class="cls-1" d="M307.06,180h-1.18v-9.18A29.76,29.76,0,0,1,298,175l-.51-1.09a27.92,27.92,0,0,0,13.26-9.57l1.11.67a32.77,32.77,0,0,1-4.82,4.88Z"/>
  </g>
</svg>
