<svg id="レイヤー_1" data-name="レイヤー 1" xmlns="http://www.w3.org/2000/svg" width="430.51" height="199.59" viewBox="0 0 430.51 199.59">
  <defs>
    <style>
      .cls-1 {
        fill: #fff;
      }

      .cls-2 {
        fill: #04c3f8;
      }
    </style>
  </defs>
  <title>p_top_en_logo</title>
  <g>
    <g>
      <g>
        <path class="cls-1" d="M27.6,10.27v38.6H16.4V10.27H0V.12H44V10.27Z"/>
        <path class="cls-1" d="M128.07.12h14L121.52,23.69l21.4,25.18H128.69L108.77,24.13V48.87H97.7V.12h11.07V23.26Z"/>
        <path class="cls-1" d="M155.7.12l11,19.67,11-19.67h12.93l-18.37,29.7v19H161.08v-19L142.71.12Z"/>
        <path class="cls-1" d="M48.13,0V49H93.81V0ZM83.36,38.3H58.57V10.71H83.36Z"/>
        <path class="cls-1" d="M191.67,0V49h45.69V0Zm35.24,38.3H202.12V10.71h24.79Z"/>
      </g>
      <g>
        <path class="cls-1" d="M98.74,124H86.24l-3.65-10.15H63.23L59.58,124H47.08L65.64,75.22H80.11ZM72.88,86,66.2,104.23H79.56Z"/>
        <path class="cls-1" d="M116.47,75.22l10.7,35.2,10.7-35.2H154V124H143.5V100.52c0-1.55.31-11.94.37-13.73L132.37,124H122L110.46,86.79c.07,1.54.38,12.18.38,13.73V124H100.32V75.22Z"/>
        <path class="cls-1" d="M196.91,75.22V85.36H168.83v9h27v9.72h-27v9.71h28.76V124H157.7V75.22Z"/>
        <path class="cls-1" d="M284.56,75.22V93.77h23.75V75.22h11.13V124H308.31v-20H284.56v20H273.48V75.22Z"/>
        <path class="cls-1" d="M382.44,75.22l5.45,37.67,5.44-37.67h14.73l5.44,37.67,5.44-37.67h11.57L421.11,124h-15L400.7,86.79,395.24,124h-14.9l-9.46-48.75Z"/>
        <path class="cls-1" d="M323.69,75.09v49h45.68v-49Zm35.24,38.31h-24.8V85.8h24.8Z"/>
        <polygon class="cls-1" points="45.7 92.17 45.7 75.09 0.01 75.09 0.01 124.11 45.7 124.11 45.7 107.08 45.7 96.49 35.25 96.49 22.78 96.49 22.78 107.08 35.25 107.08 35.25 113.4 10.46 113.4 10.46 85.81 35.25 85.81 35.25 92.17 45.7 92.17"/>
        <polygon class="cls-1" points="269.12 84.84 269.12 74.75 229.25 74.75 229.25 79.37 229.25 84.84 229.25 94.26 229.25 101.24 229.25 104.36 259.03 104.36 259.03 113.78 229.25 113.78 229.25 123.87 259.03 123.87 269.12 123.87 269.12 113.78 269.12 104.36 269.12 102 269.12 94.26 239.34 94.26 239.34 84.84 269.12 84.84"/>
      </g>
    </g>
    <g>
      <path class="cls-1" d="M16.28,182.82c-3.22.37-5.2.92-5.2,4.58V189H43.84V199.1H0v-9.72c0-4.71,0-14.86,12.07-16.29l15.85-1.85c3.6-.44,5.27-1.06,5.27-5.2,0-4.34-1.36-6.07-10.53-6.07-10.34,0-10.71,1.3-10.83,7.37H.93c0-10.41.56-17.53,20.86-17.53,12.88,0,22.42.87,22.42,15.61,0,6.31-1.61,9.53-3.78,11.45a15.82,15.82,0,0,1-9.1,4.09Z"/>
      <path class="cls-1" d="M71.08,149.81c19.82,0,22.54,4.59,22.54,25.33,0,19.93-3.72,24.45-21.18,24.45-18.69,0-23.15-2.22-23.15-24.89C49.29,154.64,52.82,149.81,71.08,149.81ZM60.43,174.89c0,14.49.75,14.61,11.7,14.61,9.29,0,10.34-.74,10.34-13.43,0-2.67-.12-10.84-.92-12.94C80.49,160.22,77,160,71.45,160,61.18,160,60.43,160.28,60.43,174.89Z"/>
      <path class="cls-1" d="M118.82,150.31V199.1H107.61V160.46h-10V150.31Z"/>
      <path class="cls-1" d="M127.3,163.75c0-11.21,6.94-13.94,20.74-13.94s22.36,1.55,22.36,13.87c0,4.4-1.18,8.18-5.89,10.16a7.19,7.19,0,0,1,3.72,2.1c2.91,3.22,3,8.49,3,9.6,0,12.88-10.4,14.05-21.42,14.05s-23.28-.24-23.28-13.93c0-1.23.12-6.62,3-9.72a7.3,7.3,0,0,1,3.65-2.1C128.91,172,127.3,168.64,127.3,163.75Zm10.16,20.49c0,4.71,2.16,5.51,11.39,5.51,9.78,0,11.45-.93,11.45-5.88,0-5.2-3.09-5.51-11.45-5.51C139.69,178.36,137.46,178.92,137.46,184.24Zm.8-19.57c0,4.28,1.86,4.9,11.33,4.9,8.86,0,9.85-1.18,9.85-5.21,0-3.59-1.12-4.82-10.59-4.82C138.94,159.54,138.26,160.9,138.26,164.67Z"/>
    </g>
  </g>
  <rect class="cls-1" x="197.1" y="159.14" width="104.5" height="27.1"/>
  <g>
    <path class="cls-2" d="M209.26,164.8c2.86,0,4.45,1.72,4.45,4.17,0,2.79-1.84,4.18-4.69,4.18h-2.66v6.1h-1.2V164.8Zm-.72,7.26c1.37,0,4,0,4-3.05s-2.49-3.12-4-3.12h-2.18v6.17Z"/>
    <path class="cls-2" d="M224.65,168.46v10.79h-1.14v-1.57a4,4,0,0,1-3.48,1.86,3.53,3.53,0,0,1-3.23-1.66,6.58,6.58,0,0,1-.5-3.25v-6.17h1.15v6.39c0,2.09.37,3.66,2.69,3.66A3.3,3.3,0,0,0,223,177a4.7,4.7,0,0,0,.5-2.47v-6Z"/>
    <path class="cls-2" d="M228.94,179.25h-1.16V164.1h1.16v6.19a4.37,4.37,0,0,1,3.85-2.13c2.6,0,4.84,2,4.84,5.69s-2.28,5.69-4.84,5.69a4.34,4.34,0,0,1-3.85-2.12Zm3.7-.74c2,0,3.82-1.39,3.82-4.66s-1.9-4.66-3.82-4.66-3.73,1.32-3.73,4.66S230.68,178.51,232.64,178.51Z"/>
    <path class="cls-2" d="M243.25,179.25h-.78c-2.05,0-2.13-1.15-2.13-2.26V164.1h1.17v12.84c0,.7,0,1.27,1,1.27h.74Z"/>
    <path class="cls-2" d="M246.7,166.4h-1.5v-1.6h1.5Zm-.15,12.85h-1.18V168.46h1.18Z"/>
    <path class="cls-2" d="M257.86,178.9a7.13,7.13,0,0,1-3.08.64c-3.92,0-5.51-2.9-5.51-5.69,0-3.12,2-5.69,5.45-5.69a5.59,5.59,0,0,1,3.09.83l-.34,1.06a4,4,0,0,0-2.71-.86c-2.42,0-4.34,1.61-4.34,4.64,0,2.59,1.4,4.68,4.43,4.68a5.91,5.91,0,0,0,3-.78Z"/>
    <path class="cls-2" d="M260.3,164.8h5.29a9.9,9.9,0,0,1,3.69.55c2.57,1,3.94,3.44,3.94,6.67,0,1.89-.5,4.53-2.7,6a8.38,8.38,0,0,1-5,1.2H260.3Zm1.22,13.36h4a7.22,7.22,0,0,0,4.3-1A6.08,6.08,0,0,0,272,172c0-6.15-4.9-6.15-6.47-6.15h-4Z"/>
    <path class="cls-2" d="M276,169a6.67,6.67,0,0,1,3.31-.85,4.63,4.63,0,0,1,3.64,1.42,4,4,0,0,1,.65,2.61v5.12a4.29,4.29,0,0,0,.37,1.94h-1.2a4,4,0,0,1-.32-1.87,4.84,4.84,0,0,1-4.08,2.16,3.08,3.08,0,0,1-3.4-3.14c0-.77.07-2.81,3.4-3.38.48-.09,2.64-.37,3.09-.48a1.08,1.08,0,0,0,1-1.2c0-1.52-1.51-2.15-3.08-2.15a5.74,5.74,0,0,0-3.24.95Zm6.43,4.16c-.46.29-.7.33-2.82.65-1.89.29-3.5.53-3.5,2.54a2.05,2.05,0,0,0,2.35,2.15,4.38,4.38,0,0,0,4-2.77Z"/>
    <path class="cls-2" d="M289.59,178.53l-4-10.07h1.22l3.38,8.57,3.4-8.57h1.21l-6.29,15.7h-1.14Z"/>
  </g>
</svg>
