<svg width="47" height="54" viewBox="0 0 47 54" fill="none" xmlns="http://www.w3.org/2000/svg">
<path d="M45.0495 19.529H43.5797V17.3174C43.5797 15.6819 42.7646 14.2516 41.5141 13.4074C38.7021 2.10433 30.888 0.26684 23.8138 0.213867C23.7614 0.213867 23.7091 0.213867 23.6567 0.213867C23.6043 0.213867 23.5519 0.213867 23.4995 0.213867C16.4712 0.26684 8.71277 2.07784 5.85166 13.1822C4.39492 13.9768 3.41939 15.5263 3.41939 17.3141V19.5257H1.94956C0.987123 19.5257 0.208008 20.3137 0.208008 21.287V24.9587C0.208008 25.9321 0.987123 26.72 1.94956 26.72H3.41939V28.68C3.41939 30.6632 4.64044 32.3583 6.35907 33.0469C8.12353 37.8939 11.1942 41.8735 15.0242 44.3136C14.0487 49.6472 13.1779 52.574 13.1681 52.6038L15.0471 53.1832C15.0832 53.0607 15.8917 50.3624 16.8378 45.3233C18.9067 46.3199 21.1524 46.8893 23.4995 46.9357V46.9456C23.5519 46.9456 23.6043 46.9423 23.6567 46.9423C23.7091 46.9423 23.7614 46.9456 23.8138 46.9456V46.9357C26.161 46.8893 28.4066 46.3232 30.4755 45.3233C31.4216 50.3624 32.2302 53.064 32.2662 53.1832L34.1452 52.6038C34.1354 52.574 33.2646 49.6472 32.2891 44.3136C36.165 41.8437 39.2651 37.8012 41.0165 32.8748C42.5354 32.1001 43.5797 30.5142 43.5797 28.68V26.72H45.0495C46.012 26.72 46.7911 25.9321 46.7911 24.9587V21.287C46.7911 20.3137 46.012 19.5257 45.0495 19.5257V19.529ZM7.34769 28.6866V17.3141C7.34769 16.9201 7.65213 16.6023 8.04169 16.589L20.0459 16.1487C22.3374 16.0659 24.6649 16.0659 26.9564 16.1487L38.9607 16.589C39.3502 16.6023 39.6547 16.9234 39.6547 17.3141V28.6866C39.6547 29.0872 39.3339 29.4117 38.9378 29.4117H27.5915L25.6797 27.4782C24.4783 26.2665 22.5273 26.2665 21.3292 27.4782L19.4174 29.4117H8.07115C7.67504 29.4117 7.35423 29.0872 7.35423 28.6866H7.34769ZM11.6917 6.11369C14.3466 3.46837 18.1538 2.22683 23.6567 2.20365C29.1596 2.22683 32.9635 3.47168 35.6216 6.11369C37.2453 7.72935 38.4598 9.89461 39.2913 12.6359C39.2291 12.6326 39.1669 12.6227 39.1014 12.6194L27.0972 12.1791C24.7108 12.093 22.2916 12.093 19.9019 12.1791L8.0286 12.6128C8.86009 9.88137 10.0746 7.72273 11.6917 6.11038V6.11369ZM23.6567 44.9625C17.1062 44.8896 11.4233 40.2049 8.59492 33.388H19.7677C20.5795 33.388 21.3717 33.0569 21.9446 32.4775L23.5028 30.9016L25.061 32.4775C25.6437 33.0635 26.413 33.388 27.2347 33.388H38.7184C35.8868 40.2049 30.2071 44.8896 23.6567 44.9625Z" fill="white"/>
</svg>
