<svg width="93" height="54" viewBox="0 0 93 54" fill="none" xmlns="http://www.w3.org/2000/svg">
<path d="M39.8443 47.3248H0.777344V51.3143H39.8443V47.3248Z" fill="white"/>
<path d="M37.9947 23.8281C37.9947 22.4178 36.862 21.2722 35.4675 21.2722H4.90533C3.51079 21.2722 2.37813 22.4178 2.37813 23.8281V44.9543H37.9947V23.8281ZM34.7211 41.6435H5.65171V24.583H34.7211V41.6435Z" fill="white"/>
<path d="M90.4804 19.4977H89.0106V17.2861C89.0106 15.6506 88.1955 14.2204 86.945 13.3761C84.133 2.07308 76.3189 0.23559 69.2447 0.182617C69.1923 0.182617 69.14 0.182617 69.0876 0.182617C69.0352 0.182617 68.9828 0.182617 68.9304 0.182617C61.9021 0.23559 54.1437 2.04659 51.2826 13.151C49.8258 13.9456 48.8503 15.495 48.8503 17.2828V19.4944H47.3805C46.418 19.4944 45.6389 20.2824 45.6389 21.2558V24.9274C45.6389 25.9008 46.418 26.6888 47.3805 26.6888H48.8503V28.6488C48.8503 30.6319 50.0713 32.327 51.79 33.0157C53.5544 37.8627 56.6251 41.8423 60.4551 44.2823C59.4796 49.616 58.6088 52.5427 58.599 52.5725L60.4781 53.1519C60.5141 53.0294 61.3226 50.3311 62.2687 45.2921C64.3376 46.2886 66.5833 46.8581 68.9304 46.9044V46.9144C68.9828 46.9144 69.0352 46.9111 69.0876 46.9111C69.14 46.9111 69.1923 46.9144 69.2447 46.9144V46.9044C71.5919 46.8581 73.8375 46.292 75.9064 45.2921C76.8525 50.3311 77.6611 53.0327 77.6971 53.1519L79.5761 52.5725C79.5663 52.5427 78.6955 49.616 77.72 44.2823C81.5959 41.8125 84.696 37.77 86.4474 32.8435C87.9663 32.0688 89.0106 30.4829 89.0106 28.6488V26.6888H90.4804C91.4429 26.6888 92.222 25.9008 92.222 24.9274V21.2558C92.222 20.2824 91.4429 19.4944 90.4804 19.4944V19.4977ZM52.7786 28.6554V17.2828C52.7786 16.8888 53.083 16.571 53.4726 16.5578L65.4768 16.1174C67.7683 16.0347 70.0958 16.0347 72.3873 16.1174L84.3916 16.5578C84.7811 16.571 85.0856 16.8922 85.0856 17.2828V28.6554C85.0856 29.056 84.7648 29.3804 84.3687 29.3804H73.0224L71.1106 27.447C69.9092 26.2352 67.9582 26.2352 66.7601 27.447L64.8483 29.3804H53.5021C53.1059 29.3804 52.7851 29.056 52.7851 28.6554H52.7786ZM57.1226 6.08244C59.7775 3.43712 63.5847 2.19558 69.0876 2.1724C74.5905 2.19558 78.3944 3.44043 81.0525 6.08244C82.6762 7.6981 83.8907 9.86336 84.7222 12.6047C84.66 12.6014 84.5978 12.5914 84.5323 12.5881L72.5281 12.1478C70.1417 12.0617 67.7225 12.0617 65.3328 12.1478L53.4595 12.5815C54.291 9.85012 55.5055 7.69148 57.1226 6.07913V6.08244ZM69.0876 44.9312C62.5371 44.8584 56.8542 40.1736 54.0258 33.3567H65.1986C66.0104 33.3567 66.8026 33.0256 67.3755 32.4462L68.9337 30.8703L70.492 32.4462C71.0746 33.0322 71.8439 33.3567 72.6656 33.3567H84.1493C81.3177 40.1736 75.638 44.8584 69.0876 44.9312Z" fill="white"/>
</svg>
