<svg width="33" height="32" viewBox="0 0 33 32" fill="none" xmlns="http://www.w3.org/2000/svg">
<path d="M32.4994 16.0588C32.4994 7.18983 25.336 0 16.4997 0C7.66338 0 0.5 7.18983 0.5 16.0588C0.5 23.5897 5.66598 29.9091 12.6348 31.6448V20.9663H9.33566V16.0588H12.6348V13.9442C12.6348 8.47839 15.0994 5.94496 20.4458 5.94496C21.4596 5.94496 23.2087 6.14473 23.9242 6.34386V10.7921C23.5466 10.7523 22.8906 10.7324 22.0759 10.7324C19.4526 10.7324 18.4388 11.73 18.4388 14.3231V16.0588H23.665L22.7671 20.9663H18.4388V32C26.3612 31.0397 32.5 24.2693 32.5 16.0588H32.4994Z" fill="white"/>
</svg>
