<svg xmlns="http://www.w3.org/2000/svg" width="560" height="59.38"><path d="M0 54.38h560v5H0zm18.48-27.2h5.76v5h-5.76v7.43h-5.63v-7.47H7.06v-5h5.79v-2H6.47v-4.93H8.9a15.2 15.2 0 00-1.17-3.11l3.27-.93H5.63v-4.91h7.22v-2H7.69V4.58h5.16V1.09l5.93.3c.29 0 .58.16.58.46s-.42.67-.88 1v1.73h5.42v4.7h-5.42v2h6.43v4.91h-4.83l2.81.59c.38.08.76.17.76.59s-.34.59-1.09.63c-.38 1-.76 1.89-.93 2.23h3v4.95h-6.15zm-5.25-11a30.14 30.14 0 011.43 3.57l-1.47.47h3.15a21.26 21.26 0 001.34-4zM31.8 39.57h-5.88V1.89h17.22c0 6.72 0 9.37-.25 10.71-.51 2.77-3.07 3.57-7.6 3.61a12.48 12.48 0 00-2.23-5.79 9.47 9.47 0 002.65.29c1.42 0 1.59-.29 1.59-1.89V7.18h-5.5v10h9.87l2.81 2.94a55.39 55.39 0 01-4.07 11.26 24.46 24.46 0 005 4.66 20.54 20.54 0 00-4.67 3.78 45.79 45.79 0 01-3.36-3.44 15.9 15.9 0 01-2.52 3 15.8 15.8 0 00-3-2.44zm3.61-17a19.8 19.8 0 001.3 3.82 21.08 21.08 0 001.26-4H31.8v2.48zM31.8 34.66a26.54 26.54 0 002.1-2.9 24.14 24.14 0 01-2.1-4.62zM63 16.93v13.53a3.48 3.48 0 002.6 2.94c2.06.63 6.1.63 9.33.63C77 34 87.2 33.9 91.61 33a10.66 10.66 0 00-1.6 6H70.77c-6.17 0-8.4-1.14-10.25-3.28-.67.67-4.32 3.23-4.45 3.32a4.78 4.78 0 01.08.76.58.58 0 01-.54.63c-.21 0-.51-.3-.67-.59l-3.15-5.63A35.88 35.88 0 0057 31.42v-9h-4.84v-5.49zM56.07 1.34a29.85 29.85 0 016.26 5.89c-1.34 1.38-2.77 3.06-3.86 4.41a37.44 37.44 0 00-6.35-6.22zm32.35 10.55v20.88H82.2v-.68h-9.62v1h-6.13v-21.2h5.25c.12-.3.63-1.56.75-1.81h-8.86v-5h4.62a23.17 23.17 0 00-1.76-2.39L71.57.21a18.71 18.71 0 013 4.33c-1 .21-1.47.38-2 .54h6.13A31.27 31.27 0 0080.81.17l5.84 1.68a.62.62 0 01.55.59c0 .58-.55.71-1 .79-.08.17-.67 1.22-1 1.85h5.4v5H79.13c-.12.25-.59 1.26-.88 1.81zm-6.22 5.59v-1.81h-9.62v1.81zm0 5.2v-1.8h-9.62v1.8zm0 5.34v-1.89h-9.62V28zm24.65 1.68v-4.29h7.64c.05-.29.05-.5.13-1.63h-6.55v-4.16h2.81a14.15 14.15 0 00-1.64-2l4.25-1.93h-8.36v23.9H99.2V1.85h17v13.82h-2.06a34.6 34.6 0 012.31 3.4l-1.26.55h4a21 21 0 001.77-4h-2V1.85h17v33.77c0 1.77-1.3 4.54-7.43 4.25a17.23 17.23 0 00-1.6-5.51 23.35 23.35 0 00-2.85 3.82 19 19 0 01-6.56-5.5 16.07 16.07 0 01-7.81 6.18 15.31 15.31 0 00-3.53-4.29c3.74-1.26 5.55-2.52 6.93-4.87zm3.82-22.35V5.8h-5.54v1.55zm-5.54 2.82v1.55h5.54v-1.55zm15 13.61v1.63h8.57v4.29h-6.72a17.15 17.15 0 005.67 4.16c.71.08 1.47.21 1.72.21.92 0 .92-.8.92-1.43v-17h-8.52l4.53 1.51a.56.56 0 01.38.55c0 .25-.34.42-1 .5-.21.59-.38.88-.59 1.39h2.44v4.16zm10.03-16.43V5.8h-5.58v1.55zm-5.58 2.82v1.55h5.58v-1.55zm54.98 5.62a34.45 34.45 0 015 8.36 21.54 21.54 0 00-4.84 3c-.33-.84-.58-1.39-1.09-2.44-3.53.25-3.9.3-6.3.42v14.61h-6.17V25.46c-1.14 0-6.31.16-7.31.21-.21.42-.38.88-.89.88a.66.66 0 01-.54-.59l-.88-5.63c1.09 0 6.09.09 7.1.09.25-.26.54-.55.79-.76a38.24 38.24 0 00-7.43-4.75l3.44-4.62c1.47.88 1.6 1 2.1 1.3 1.35-1.76 1.85-2.52 2.15-3-.59.09-3.32.34-3.87.42a17.72 17.72 0 00-2.44-4.91 61.11 61.11 0 01-3.73 8.27l1 .59c.42.25.5.42.5.63 0 .42-.34.55-.76.71v21.3a29.9 29.9 0 005-8.57l4.61 2.21c.59.29.84.46.84.71s-.38.46-.92.55a41.78 41.78 0 01-4.46 7.73 12.08 12.08 0 00-5-2.57v4.08h-6.38V20.67c-.88 1-1 1.17-1.35 1.59a17.94 17.94 0 00-4.91-3.57A42.1 42.1 0 00152.92.84l5.93 1.47c.37.08.8.34.8.71a.71.71 0 01-.38.59c5.21-.21 12.26-.92 18.06-3L180.86 5a1 1 0 01.21.5.51.51 0 01-.55.55c-.17 0-.67-.13-1-.17a44.87 44.87 0 01-6.88 1.64.58.58 0 01.29.51c0 .33-.25.54-1.18.71-1.93 2.65-2.52 3.44-4.58 6a13.6 13.6 0 011.22 1 47.73 47.73 0 005.76-7.47l5.37 2.81c.34.17.63.42.63.71 0 .51-.54.51-1.38.59a67.3 67.3 0 01-7.56 8c2.6-.13 2.9-.13 4.79-.21-.51-.72-.8-1.14-1.35-1.85zM177.75 26a52.66 52.66 0 005.59 9.45 13.49 13.49 0 00-5.17 2.48 47.76 47.76 0 01-5.34-9.62zm32.8 6.3c9.12-1.68 11.8-8.73 11.8-13.1 0-3.41-1.8-9.66-9.7-10.29-1.3 15.37-7.65 26.84-12.1 26.84-3.28 0-9.37-5.55-9.37-13.32 0-9 8.24-19.57 20.59-19.57C221 2.86 229 9.12 229 19.16a19.59 19.59 0 01-5 13c-2.56 3-5.54 4.53-9.11 6.09a27.35 27.35 0 00-4.34-5.95zM197.4 21.93c0 3.23 1.81 5.67 2.69 5.67s1.81-1.89 2.27-3a36.82 36.82 0 003.23-14.45c-4.87 1.85-8.19 8-8.19 11.78zm59.6-3.4a5.18 5.18 0 01-.29-1.81V.76l6.38.5c.42 0 .72.17.72.46s-.34.59-1.1 1v4.09a44.41 44.41 0 007.61-4.08l4.37 4c.16.17.37.38.37.59a.6.6 0 01-.67.59 3.88 3.88 0 01-.88-.17 98.76 98.76 0 01-10.8 4.7v1.35c0 1.55 1.26 1.55 1.85 1.55h4.12c1.47 0 1.89-1.72 2.44-3.82a14.83 14.83 0 005 2.27c-1.22 7-4 7-6.31 7h-8.73a5.85 5.85 0 01-3.28-1c-.29.63-.84 1.73-1.13 2.4H271V39.4h-6.56v-1.17H248v1.17h-6.5V22.14h8.5a32.4 32.4 0 001.51-3.4c-6 1.09-6.55 1.17-12.52 2.31-.13.5-.29.88-.67.88s-.51-.42-.59-.8l-1.43-5.55c1.56-.08 3.36-.25 4.71-.46V.88l6.8.42a.57.57 0 01.55.59c0 .38-.38.59-1 .88v3h8.24v5.03h-8.24v3.4c4.62-.72 6.68-1.18 8.24-1.47a29 29 0 00-.63 5.33c-.13 0-.21 0-.34.09zm7.39 9.74v-1.51H248v1.51zm0 5.5v-1.63H248v1.63zM295 31.3a44.71 44.71 0 0010.88-5.63v-4.83h-4.37a33.26 33.26 0 013.24 4.2 29.87 29.87 0 00-3.87 3 55.24 55.24 0 00-3.82-4.79l3.27-2.39h-3.57a10 10 0 00.89 1 9.62 9.62 0 00-2.57 4.5c-.79-1.05-1.26-1.68-1.89-2.69V39.7h-5.5V26.09a24 24 0 01-2.1 4.28 15.52 15.52 0 00-4-3.82A37.37 37.37 0 00287 13.32h-4.2V8.23h4.58v-7l5.79.29c.47 0 1 .17 1 .63s-.59.63-1 .72v5.36h3.07v5.09h-3.04v1.34a23.07 23.07 0 003.28 5.88V16.3h9.41v-1.56h-7.1V10.8h7.1V9.24h-9V5H301a16.12 16.12 0 00-1.84-2.69L304 0a36 36 0 012.73 4.28l-1.34.72H310a31.33 31.33 0 002.06-4.66l5.38 1.59c.51.17.84.34.84.63 0 .55-.54.59-1.26.59-.29.55-.33.67-1 1.85h4.88v4.24h-9.12v1.56h7v3.94h-7v1.56h10v4.54h-3.11l3 2.43a.79.79 0 01.42.63c0 .63-.71.55-1.17.55A24.19 24.19 0 01316.6 29a20.55 20.55 0 006.3 3.61 11.29 11.29 0 00-3.19 4.39 27.78 27.78 0 01-7.94-6.55v3.27c0 4.62-1.47 6-8.06 6.22a14.49 14.49 0 00-2.32-5.88 17.78 17.78 0 002.65.21c1.81 0 1.85-.46 1.85-1.51v-1.55c-.84.51-3.61 2.19-7.56 4.2 0 .25.12 1.35-.46 1.35s-.76-.55-1-1.14zm16.76-8.07a14.76 14.76 0 001.72 2.6 27.19 27.19 0 003.87-5h-5.59zm16.01-.42a45.13 45.13 0 009.37-9.81c3.4-4.62 4.53-6.13 7.09-6.13s4.37 1.76 7.1 5.21c3.62 4.49 9.29 11.59 17.27 17.1a41.92 41.92 0 00-4.71 6.38c-7.05-6-11.93-12-17.6-18.95-.33-.42-1.47-1.8-2.27-1.8s-1.47 1.13-2 2c-4.79 7.06-5.3 7.82-8.57 11.43z" fill="#5ab400" data-name="レイヤー 2"/></svg>