<svg xmlns="http://www.w3.org/2000/svg" width="32" height="31.999" viewBox="0 0 32 31.999"><path d="M32,16A16,16,0,1,0,13.5,31.8V20.625H9.437V16H13.5V12.475c0-4.01,2.389-6.225,6.043-6.225a24.611,24.611,0,0,1,3.582.312V10.5H21.107A2.312,2.312,0,0,0,18.5,13v3h4.437l-.709,4.625H18.5V31.8A16,16,0,0,0,32,16Z" fill="#1877f2"/><path d="M25.177,22.578l.709-4.625H21.449v-3a2.312,2.312,0,0,1,2.607-2.5h2.017V8.516A24.611,24.611,0,0,0,22.492,8.2c-3.655,0-6.043,2.215-6.043,6.225v3.525H12.386v4.625h4.062v11.18a16.179,16.179,0,0,0,5,0V22.579h3.728Z" transform="translate(-2.949 -1.953)" fill="#fff"/></svg>