<svg xmlns="http://www.w3.org/2000/svg" width="330.67" height="22.87" viewBox="0 0 330.67 22.87">
  <defs>
    <style>
      .cls-1 {
        fill: #ffa000;
      }
    </style>
  </defs>
  <g id="レイヤー_2" data-name="レイヤー 2">
    <g id="object">
      <g>
        <path class="cls-1" d="M3.77,20.11v1.32H0V1.85H17.21V21.43H13.44V20.11ZM13.44,9.19v-4H3.77v4Zm0,7.49V12.43H3.77v4.25Z"/>
        <path class="cls-1" d="M21.65,7.56V4.39h9.12v-4l3.45.22c.61,0,.68.21.68.33s-.1.27-.51.53V4.39h9.15V7.56H35.81a22.65,22.65,0,0,0,8.4,9.27,8.17,8.17,0,0,0-2.62,2.76A28.51,28.51,0,0,1,38,16.18V19H34.39v3.38H30.77V19H27.19V16.15a28.51,28.51,0,0,1-3.67,3.44,7.84,7.84,0,0,0-2.62-2.76,22.21,22.21,0,0,0,8.4-9.27Zm9.12,3.65a26.91,26.91,0,0,1-3.24,4.56h3.24Zm6.84,4.56a27.72,27.72,0,0,1-3.22-4.51v4.51Z"/>
        <path class="cls-1" d="M55.68,1c.31.05.5.1.5.32s-.26.33-.4.38c-.07.72-.12,1.56-.17,2.54A16.44,16.44,0,0,0,59.38,3c0,.89-.05,2-.05,2.55a9.74,9.74,0,0,0,.05,1.29,17.86,17.86,0,0,1-3.94,1.08c0,.27,0,1.42,0,1.64a12,12,0,0,1,4.08-.72,6.36,6.36,0,0,1,6.65,6.5,5.56,5.56,0,0,1-5.69,6c-3.62,0-3.74-3.22-3.76-4.23.5-.16,2.66-.88,3-1,0,.47,0,1.6,1.13,1.6.91,0,1.51-.91,1.51-2.11a3,3,0,0,0-3.19-3.17,11.38,11.38,0,0,0-3.72.84,70.38,70.38,0,0,0,.31,7.23L52.39,22a33,33,0,0,0-4.2-3.44c-.6.65-.89,1-1.22,1.4l-1.73-4.13c1.1-.6,5.47-3.91,6.43-4.52,0-.84,0-1,0-2.88-1.42.08-3.1.1-4.47.1V4.7a9.42,9.42,0,0,0,1.9.15c.94,0,2.28-.1,2.57-.1,0-1.8,0-2.06-.1-4.46ZM50.3,16.47a2.7,2.7,0,0,0,1.08.62c.36,0,.34-.84.32-1.75C51.41,15.58,50.9,15.94,50.3,16.47ZM62.83,3.7a20.45,20.45,0,0,1,5.24,3.84,16.53,16.53,0,0,0-2.33,2.9,14.06,14.06,0,0,0-5.09-3.77Z"/>
        <path class="cls-1" d="M83,1.49c.26.09.4.17.4.38s-.4.41-.69.43a28.83,28.83,0,0,0-1.42,2.52c1.27.12,2.5.17,3,.17s.84,0,1.18,0a18,18,0,0,0-1.06,3.8,29.24,29.24,0,0,1-4.53-.22c-.29.65-.63,1.51-.87,2.11a35.69,35.69,0,0,0,5.33.36c-.46,1.3-.84,2.81-1,3.55-1.47-.09-3.12-.23-5.38-.57a8,8,0,0,0-.26,1.94c0,2.93,2.71,2.93,3.88,2.93s4.66,0,4.66-3.48a9.19,9.19,0,0,0-1.22-3.74,11.51,11.51,0,0,0,3.62-1.3,12.58,12.58,0,0,1,1.66,5.45c0,5.28-5.57,6.5-8.72,6.5-4.82,0-7.48-2.49-7.48-6a11.6,11.6,0,0,1,.36-2.91,19.5,19.5,0,0,1-3.12-.88l.81-3.56a23,23,0,0,0,3.24,1c.1-.32.27-.84.72-2.14a20.82,20.82,0,0,1-3.57-1.2l.72-3.72A29.81,29.81,0,0,0,77.42,4.2c.25-.65,1.4-3.58,1.64-4.18Z"/>
        <path class="cls-1" d="M105.19,1.15c.19.05.46.15.46.39s-.12.31-.53.33c-.53,1.63-.58,1.8-.7,2.16a36.81,36.81,0,0,0,7.83-1.89c.12.79.43,2.61.67,3.57a41.65,41.65,0,0,1-9.82,2c-.57,1.59-.76,2.07-1.24,3.24a14.16,14.16,0,0,1,6.24-1.63c6.41,0,6.74,4.51,6.74,5.71a5.91,5.91,0,0,1-2.57,4.85c-1.27.87-3.67,2.31-10.32,2.31-1,0-1.7-.08-2.23-.12a17.21,17.21,0,0,0-.89-3.58,35.71,35.71,0,0,0,3.58.22c.55,0,4.66,0,7.13-1.47A2.43,2.43,0,0,0,110.83,15c0-1.4-.72-2.57-2.92-2.57a12.3,12.3,0,0,0-8.31,4l-3.46-1.73A33.89,33.89,0,0,0,99.34,8c-2.09,0-3.75-.07-4.66-.14l-.05-3.94a21.82,21.82,0,0,0,5.81.53,31.44,31.44,0,0,0,.91-4.25Z"/>
        <path class="cls-1" d="M128.35,4.32c.29.34,1.49,1.82,1.73,2.11A10.75,10.75,0,0,1,132.72,6a4.57,4.57,0,0,1,4.78,4.69c0,4.48-4.88,4.89-7.32,5.08a16.42,16.42,0,0,0-1.11-3.21c.41,0,.7,0,1.11,0,.81,0,3.89,0,3.89-2.11,0-.41-.12-1.35-1.54-1.35-.22,0-.41,0-.53,0,.43.7.67,1.15.89,1.51-.89.36-2.28.94-3.14,1.32a16.66,16.66,0,0,0-.89-1.85c-.89.41-1.42.7-1.76.89a47,47,0,0,1,3.36,9.27,31.88,31.88,0,0,0-3.4,1.65,41.13,41.13,0,0,0-2.81-9.21A34.3,34.3,0,0,0,121.54,15l-2.16-3.39a32.11,32.11,0,0,0,3.4-1.7,18.2,18.2,0,0,0-2.16-3.15l3.27-1.34a1.34,1.34,0,0,1,.5-.14.26.26,0,0,1,.29.26.69.69,0,0,1-.22.38l1.3,2.38,1.37-.67c-.38-.53-.51-.7-1.51-2Z"/>
        <path class="cls-1" d="M141.67,9.5V6.05h9.1V.12l3.77.19c.14,0,.45,0,.45.31s-.24.32-.45.39v5h8.93V9.5h-8.86a17.38,17.38,0,0,0,9.31,10.37,9.32,9.32,0,0,0-2.78,2.86c-2.43-1.08-6.24-4.42-8.43-8.83a18.44,18.44,0,0,1-9.36,8.93,8.48,8.48,0,0,0-2.54-3.2c2-.79,8-3.07,9.6-10.13Z"/>
        <path class="cls-1" d="M179.45,18.63h-5.07l1.47,1.44a.39.39,0,0,1,.12.24c0,.19-.14.26-.34.26a1.2,1.2,0,0,1-.6-.17,21.8,21.8,0,0,1-7.29,2.47,11.35,11.35,0,0,0-2.26-3.07,18.5,18.5,0,0,0,6.17-1.17h-3.72V10.18h17.38v8.45h-3.89a21.94,21.94,0,0,0,6.17,1.29,12,12,0,0,0-2.09,2.91,23.57,23.57,0,0,1-7.92-2.76ZM174.82,2.47V.12l4,.12c.12,0,.29.07.29.24s-.2.31-.63.53V2.47h2.26c-.17-.07-.34-.14-.72-.26A8.44,8.44,0,0,0,181.08,0l3.65,1.35c.12,0,.24.12.24.26,0,.34-.5.34-.67.34a3.08,3.08,0,0,1-.24.5h3.5V8.26h-3.5V4.94H169.15V8.38h-3.41V2.47h3.58a7.77,7.77,0,0,0-.77-1.13L171.86,0a11.4,11.4,0,0,1,1.44,2.06,12.3,12.3,0,0,0-1.24.41Zm8.73,3.15v4H169.66v-4Zm-1.8,7.05v-.62H171.53v.62Zm-10.22,1.4v.62h10.22v-.62Zm0,2v.65h10.22v-.65Zm1.63-8.88V8h7V7.2Z"/>
        <path class="cls-1" d="M207,20.59H190.9c.31-4.2,2.66-5.92,7.75-9.38,3.86-2.64,3.86-3.19,3.86-4.2,0-1.8-1.92-2.26-3.17-2.26-3.24,0-3.57,2.31-3.67,3.87h-4.44a7.24,7.24,0,0,1,1.49-4.78c1.61-1.94,3.94-2.69,6.65-2.69,5.5,0,7.49,3,7.49,5.79a5.65,5.65,0,0,1-1.06,3.28c-1.22,1.71-6.07,4.81-6.31,5A13.45,13.45,0,0,0,197,17h10Z"/>
        <path class="cls-1" d="M225.12,11.45c0,2.3-.55,9.67-8,9.67A7.29,7.29,0,0,1,210.79,18c-1.25-1.83-1.68-5.12-1.68-7.2,0-2.31.55-9.68,8-9.68C224.14,1.15,225.12,7.54,225.12,11.45Zm-11.54-.31c0,.79,0,6.36,3.55,6.36s3.53-5.55,3.53-6.36,0-6.36-3.53-6.36S213.58,10.27,213.58,11.14Z"/>
        <path class="cls-1" d="M243.46,20.59H227.33c.31-4.2,2.66-5.92,7.75-9.38,3.86-2.64,3.86-3.19,3.86-4.2,0-1.8-1.92-2.26-3.16-2.26-3.24,0-3.58,2.31-3.68,3.87h-4.44a7.29,7.29,0,0,1,1.49-4.78c1.61-1.94,3.94-2.69,6.65-2.69,5.5,0,7.49,3,7.49,5.79a5.58,5.58,0,0,1-1.06,3.28c-1.22,1.71-6.07,4.81-6.31,5A13.45,13.45,0,0,0,233.47,17h10Z"/>
        <path class="cls-1" d="M261.67,20.59H245.54c.32-4.2,2.67-5.92,7.76-9.38,3.86-2.64,3.86-3.19,3.86-4.2,0-1.8-1.92-2.26-3.17-2.26-3.24,0-3.57,2.31-3.67,3.87h-4.44a7.18,7.18,0,0,1,1.49-4.78C249,1.9,251.3,1.15,254,1.15c5.49,0,7.48,3,7.48,5.79a5.66,5.66,0,0,1-1.05,3.28c-1.23,1.71-6.07,4.81-6.31,5A13.45,13.45,0,0,0,251.69,17h10Z"/>
        <path class="cls-1" d="M270.89,6.17a24.63,24.63,0,0,1,3.77,2.76,21.58,21.58,0,0,0-2,2.57A29.74,29.74,0,0,0,269,8.79Zm4.49,7.34V10.37H281a8.81,8.81,0,0,0,0-1V7.18h-4.64v-3H281v-4l3.48.16c.48,0,.62,0,.62.29s-.24.39-.62.55v3h5.95v6.19h1.32v3.14H285.1c1.39,2.84,4.08,4.73,6.84,6a7.56,7.56,0,0,0-2,3,18,18,0,0,1-7-6,13,13,0,0,1-7.3,6.15A6.65,6.65,0,0,0,273.48,20c-.34.7-.55,1.1-1.06,2a.4.4,0,0,1,.15.31.32.32,0,0,1-.34.36.58.58,0,0,1-.38-.14l-2.79-1.85a24.56,24.56,0,0,0,3.77-7.51,8,8,0,0,0,2.71,1.9,26.46,26.46,0,0,1-2,4.77,9.25,9.25,0,0,0,7-6.29ZM272.11,0A20.3,20.3,0,0,1,276,2.54a22.42,22.42,0,0,0-2,2.76,25.67,25.67,0,0,0-3.67-2.76ZM287,10.37V7.18H284.5v3.19Z"/>
        <path class="cls-1" d="M306.58,12.1h6.31v3.14h-6.31v3.58c.6,0,1.29.05,2.23.05a70.91,70.91,0,0,0,7.39-.41,7.89,7.89,0,0,0-.86,3.74H306a8.24,8.24,0,0,1-7.08-3.36,18.44,18.44,0,0,1-2.25,3.79,7.15,7.15,0,0,0-3.44-1.48,16.69,16.69,0,0,0,4.08-9.94l3.7.65c.22.05.48.09.48.38s-.14.29-.67.48c-.12.6-.24,1.2-.55,2.35a5.16,5.16,0,0,0,2.68,3.12V9.89h-6.21V8.06h-3V2.5h9.09V.24l3.68.24c.33,0,.64.05.64.29s-.12.29-.64.53V2.5h9.21V8h-2.78V9.89h-6.31Zm5.54-5.31V5.4H297.17V6.79Z"/>
        <path class="cls-1" d="M330.67,1.68V7.27l-.86,7.06H327.5l-.88-7.06V1.68Zm-4,14.86h4v4.05h-4Z"/>
      </g>
    </g>
  </g>
</svg>
