<svg xmlns="http://www.w3.org/2000/svg" width="401.271" height="179.938" viewBox="0 0 401.271 179.938">
  <g id="ico_finished01" transform="translate(2.548 -69.981)">
    <g id="グループ_562" data-name="グループ 562" transform="translate(-0.567 69.981)">
      <path id="パス_420" data-name="パス 420" d="M-.862,89.424l27.84,89.731,139.75-3.01,19.95,72.281,28.954-69.272,151.139-3.01L393.827,68.489h0Z" transform="translate(0.862 -68.489)" fill="#e8343e"/>
      <path id="パス_421" data-name="パス 421" d="M398.334,69.516,369.688,179.585H216.818l-30.513,69.34-22.569-69.34H24.269L-2.937,86.659ZM365.822,174.585,391.792,74.8,3.655,91.382l24.36,83.2H167.368l19.638,60.336,26.55-60.336Z" transform="translate(0.956 -69.066)" fill="#fff"/>
    </g>
    <path id="パス_4330" data-name="パス 4330" d="M-127-50.692h-26.9V0h9.88V-22.344h15.96v-8.512h-15.96V-42.18H-127Zm8.512,0V0h9.88V-50.692ZM-87.172,0V-33.9L-56.316,0h6.84V-50.692h-9.88v33.82l-30.856-33.82h-6.84V0Zm49.248-50.692V0h9.88V-50.692ZM13.6-45.9A19.5,19.5,0,0,0-.76-51.832c-11.248,0-16.264,7.448-16.264,14.9A11.8,11.8,0,0,0-13-27.512,24.391,24.391,0,0,0-4.56-23.1c2.888.988,5.928,1.976,7.828,3.724a5.888,5.888,0,0,1,1.976,4.56c0,4.256-3.344,6.992-7.828,6.992a11.885,11.885,0,0,1-10.64-6.764l-6.46,6.156C-17.024-4.56-11.552,1.14-2.2,1.14,8.284,1.14,15.428-5.624,15.428-15.5c0-5.168-2.052-8.588-4.332-10.64C8.512-28.5,4.788-29.868.836-31.236c-3.192-1.14-4.864-1.748-6.08-2.888a4.269,4.269,0,0,1-1.6-3.42c0-2.584,1.672-5.928,6.992-5.928A9.9,9.9,0,0,1,8.436-39.14Zm20.368-4.788h-9.88V0h9.88V-22.572H55.4V0h9.88V-50.692H55.4v19.608H33.972Zm70.984,0H76.836V0h28.12V-8.512H86.716V-22.344H104.2v-8.512H86.716V-42.18h18.24Zm9.576,0V0H127.6c7.068,0,12.616-.684,18.544-4.864,6.688-4.712,10.184-12.008,10.184-20.444S152.76-41.116,146.6-45.752c-5.624-4.18-11.78-4.94-18.848-4.94Zm9.88,8.512h3.04c3.344,0,8.36.3,12.464,3.344,4.028,3.04,6.232,8.208,6.232,13.528,0,5.4-2.28,10.564-6.308,13.452-4.408,3.192-9.88,3.344-12.388,3.344h-3.04Z" transform="translate(199.698 157.414)" fill="#fdfdfd"/>
  </g>
</svg>
