<?xml version="1.0" encoding="utf-8"?>
<!-- Generator: Adobe Illustrator 23.0.1, SVG Export Plug-In . SVG Version: 6.00 Build 0)  -->
<svg version="1.1" id="レイヤー_1" xmlns="http://www.w3.org/2000/svg" xmlns:xlink="http://www.w3.org/1999/xlink" x="0px"
	 y="0px" viewBox="0 0 560 154" style="enable-background:new 0 0 560 154;" xml:space="preserve">
<style type="text/css">
	.st0{fill:#231815;}
	.st1{fill:#FBE3D5;}
	.st2{fill:#E50012;}
</style>
<g>
	<g>
		<path class="st0" d="M80.6,29.6c-42.5,0-42.8,61.2-29.3,98.3c4.8,13.3,8.8,21.2,12.8,26.1h33c3.9-4.9,7.9-12.9,12.7-26.1
			C123.3,90.8,123,29.6,80.6,29.6z M101.9,95.8c-0.5,10.1-2.3,20.5-5.2,30.2c-2.5,8.5-4.7,14.4-6.5,18.6H70.9
			c-1.8-4.2-3.9-10.1-6.5-18.6c-7.1-23.8-7.5-52.2,0.3-67.3C67.1,54.3,71.1,48,80.6,48c9.5,0,13.5,6.2,15.8,10.7
			C100.9,67.5,102.8,81.2,101.9,95.8z"/>
		<path class="st0" d="M39.9,154h9.9C32.4,128.2,27.6,100.8,26.6,89c5-0.8,10.4,1.4,13.5,5.9c0,0-0.5-4.9-0.6-9.9
			c-0.1-5.7,0.2-8.7,0.2-8.7c-2.8-2-8.4-4.7-16-3.8c-29.2,3.4-25.2,56.2-8,81.6h9.8c-11.4-18-13.4-44.6-9.7-55.2
			C22.5,130.9,39.9,154,39.9,154z"/>
		<polygon class="st0" points="30.5,61.7 38.6,55.9 28.7,55.9 25.7,46.5 22.7,55.9 12.7,55.9 20.8,61.7 17.7,71.2 25.7,65.2 
			33.6,71.2 		"/>
		<polygon class="st0" points="85.5,17.4 93.5,11.6 83.6,11.6 80.6,2.2 77.6,11.6 67.7,11.6 75.7,17.4 72.7,26.9 80.6,20.9 
			88.5,26.9 		"/>
		<polygon class="st0" points="140.4,61.7 148.4,55.9 138.5,55.9 135.5,46.5 132.5,55.9 122.5,55.9 130.6,61.7 127.6,71.2 
			135.5,65.2 143.4,71.2 		"/>
		<path class="st0" d="M159.9,116.1c2-8.2,2.5-19.2-1.5-29.1c-7.4-18.2-29.1-17.1-37-10.7c0.5,9-0.4,18.6-0.4,18.6
			c9.2-13.2,30.5-7,26.4,10c-3.3,13.9-24,12.6-27.7-1c-0.9,7-3,14.4-3,14.4c3.9,8.8,20.3,12.2,29.4,6.6c-4,9.9-11.1,20.4-20.1,29.1
			h9.9C136.1,154,154.4,138.7,159.9,116.1z"/>
	</g>
	<g>
		<path class="st1" d="M78.3,27.3c-42.4,0-42.7,61.2-29.2,98.3c4.9,13.3,8.9,21.2,12.8,26.1h33c3.8-4.9,7.9-12.8,12.7-26.1
			C121.1,88.5,120.8,27.3,78.3,27.3z M99.7,93.6c-0.5,10.1-2.3,20.5-5.2,30.2c-2.5,8.5-4.7,14.4-6.5,18.6H68.7
			c-1.8-4.2-4-10.1-6.4-18.6c-7.1-23.8-7.5-52.2,0.3-67.3c2.3-4.5,6.2-10.7,15.8-10.7c9.5,0,13.5,6.2,15.8,10.7
			C98.7,65.3,100.5,78.9,99.7,93.6z"/>
		<path class="st1" d="M37.7,151.7h9.9c-17.5-25.8-22.3-53.2-23.2-65c5-0.7,10.5,1.4,13.5,5.9c0,0-0.5-4.9-0.6-9.9
			c-0.1-5.6,0.2-8.7,0.2-8.7c-2.8-1.9-8.3-4.7-16-3.8c-29.2,3.4-25.2,56.2-7.9,81.6h9.8c-11.4-18-13.5-44.6-9.7-55.2
			C20.2,128.6,37.7,151.7,37.7,151.7z"/>
		<polygon class="st1" points="28.3,59.4 36.4,53.7 26.5,53.7 23.4,44.3 20.4,53.7 10.5,53.7 18.6,59.4 15.5,68.9 23.4,63 
			31.4,68.9 		"/>
		<polygon class="st1" points="83.2,15.1 91.3,9.4 81.4,9.4 78.3,0 75.3,9.4 65.4,9.4 73.5,15.1 70.4,24.6 78.3,18.7 86.3,24.6 		
			"/>
		<polygon class="st1" points="138.1,59.4 146.2,53.7 136.3,53.7 133.3,44.3 130.2,53.7 120.3,53.7 128.4,59.4 125.3,68.9 133.3,63 
			141.2,68.9 		"/>
		<path class="st1" d="M157.7,113.8c2-8.2,2.5-19.1-1.5-29.1c-7.4-18.2-29.1-17.1-37-10.7c0.5,9-0.4,18.6-0.4,18.6
			c9.2-13.2,30.5-7,26.4,10.1c-3.3,13.9-24,12.6-27.7-1.1c-1,7.1-3,14.5-3,14.5c3.8,8.8,20.3,12.2,29.4,6.5
			c-3.9,9.9-11.1,20.4-20.1,29.1h10C133.8,151.7,152.1,136.4,157.7,113.8z"/>
	</g>
	<g>
		<path class="st2" d="M79.4,28.4c-42.5,0-42.7,61.2-29.2,98.3C55,140,59.1,148,63,152.9h33c3.9-4.9,7.9-12.9,12.7-26.1
			C122.2,89.7,121.9,28.4,79.4,28.4z M100.8,94.7c-0.5,10.1-2.3,20.5-5.2,30.2c-2.6,8.5-4.7,14.4-6.5,18.6H69.8
			c-1.8-4.2-3.9-10.2-6.4-18.6c-7.1-23.8-7.5-52.2,0.3-67.3c2.3-4.5,6.2-10.7,15.8-10.7c9.6,0,13.5,6.2,15.8,10.7
			C99.9,66.4,101.6,80.1,100.8,94.7z"/>
		<path class="st2" d="M38.8,152.9h10c-17.5-25.8-22.3-53.2-23.2-65.1c5-0.7,10.5,1.4,13.5,5.9c0,0-0.5-4.9-0.6-10
			c-0.1-5.6,0.1-8.7,0.1-8.7c-2.8-2-8.4-4.7-16-3.8c-29.2,3.4-25.2,56.2-8,81.6h9.8c-11.4-18-13.5-44.6-9.7-55.2
			C21.3,129.8,38.8,152.9,38.8,152.9z"/>
		<polygon class="st2" points="29.4,60.5 37.5,54.8 27.6,54.8 24.5,45.4 21.5,54.8 11.5,54.8 19.7,60.5 16.6,70 24.5,64.1 32.5,70 
					"/>
		<polygon class="st2" points="84.3,16.2 92.4,10.5 82.5,10.5 79.4,1.1 76.5,10.5 66.5,10.5 74.6,16.2 71.5,25.7 79.4,19.8 
			87.4,25.7 		"/>
		<polygon class="st2" points="139.3,60.5 147.3,54.8 137.4,54.8 134.4,45.4 131.3,54.8 121.4,54.8 129.5,60.5 126.5,70 134.4,64.1 
			142.3,70 		"/>
		<path class="st2" d="M158.8,114.9c2-8.2,2.5-19.1-1.5-29.1c-7.4-18.2-29.1-17.1-37-10.7c0.5,9-0.4,18.6-0.4,18.6
			c9.2-13.3,30.5-7,26.5,10c-3.3,14-24,12.6-27.7-1c-0.9,7.1-3,14.5-3,14.5c3.9,8.8,20.4,12.2,29.5,6.5c-4,9.9-11.1,20.5-20.1,29.2
			h10C135,152.9,153.3,137.5,158.8,114.9z"/>
	</g>
	<g>
		<g>
			<g>
				<path class="st0" d="M452.5,71.4h-5.7l1.5-3.1c0.2-0.5,0-1.1-0.5-1.4L444,65c-0.5-0.3-1.2,0-1.4,0.5l-1.9,3.8
					c-0.2,0.5,0,1.2,0.5,1.4l1.4,0.7h-6.1V66c0-0.6-0.5-1-1.1-1h-4.3c-0.6,0-1,0.5-1,1v5.4h-5.5c-0.6,0-1.1,0.5-1.1,1.1v4.2
					c0,0.6,0.5,1.1,1.1,1.1h5.5v13.9c0,0.6,0.5,1,1,1h4.3c0.6,0,1.1-0.5,1.1-1V77.8h10.7v3.7h-5.4c-0.6,0-1.1,0.4-1.1,1v4.3
					c0,0.5,0.5,1,1.1,1h10.7c0.6,0,1-0.5,1-1V72.5C453.6,71.9,453.1,71.4,452.5,71.4z"/>
				<path class="st0" d="M410.9,58.5c0.6,0,1.1-0.5,1.1-1.1v-4.2c0-0.6-0.5-1.1-1.1-1.1h-16.5v-8.3c0-0.6-0.5-1.1-1.1-1.1h-4.2
					c-0.6,0-1.1,0.5-1.1,1.1v8.3H379c-0.6,0-1,0.5-1,1.1v4.2c0,0.6,0.5,1.1,1,1.1h9.1v11.6c0,0.6,0.5,1.1,1.1,1.1h16.4v15h-16.4
					c-0.6,0-1.1,0.5-1.1,1.1v4.3c0,0.5,0.5,1,1.1,1l21.7,0c0.6,0,1.1-0.5,1.1-1V65.9c0-0.6-0.5-1.1-1.1-1.1h-16.4v-6.3H410.9z"/>
				<path class="st0" d="M370.6,80.9c0-0.5-0.5-1-1.1-1h-4.3c-0.6,0-1,0.5-1,1v5.4h-15.2v-15h13.4c0.6,0,1.1-0.5,1.1-1.1v-4.2
					c0-0.6-0.5-1.1-1.1-1.1h-13.4v-6.3h13.4c0.6,0,1.1-0.5,1.1-1.1v-4.2c0-0.6-0.5-1.1-1.1-1.1h-13.4v-8.3c0-0.6-0.5-1.1-1-1.1h-4.3
					c-0.6,0-1.1,0.5-1.1,1.1v8.3h-9c-0.6,0-1.1,0.5-1.1,1.1v4.2c0,0.6,0.5,1.1,1.1,1.1h9v6.3h-9c-0.6,0-1.1,0.5-1.1,1.1v4.2
					c0,0.6,0.5,1.1,1.1,1.1h9v20.4c0,0.6,0.5,1,1.1,1h25.8c0.6,0,1.1-0.5,1.1-1V80.9z"/>
				<path class="st0" d="M318.3,48.9l-6.8-6.2c-0.4-0.4-1.1-0.4-1.5,0.1l-2.9,3.2c-0.4,0.4-0.4,1.1,0.1,1.5l5.1,4.7h-9.9v-8.3
					c0-0.6-0.5-1.1-1.1-1.1h-4.3c-0.6,0-1.1,0.5-1.1,1.1v8.3H284c-0.5,0-1,0.5-1,1.1v4.2c0,0.6,0.5,1.1,1,1.1h12.1v9.1h-12.2
					c-0.1,0-0.3,0.1-0.4,0.1c-0.4,0.1-0.6,0.5-0.6,1v23c0,0.6,0.5,1,1,1h17.5c0.6,0,1.1-0.5,1.1-1V74h11.3v12.4h-3.8
					c-0.6,0-1.1,0.5-1.1,1.1v4.3c0,0.6,0.4,1,1.1,1h9.2c0.6,0,1.1-0.5,1.1-1v-23c0-0.4-0.3-0.8-0.7-1c-0.2,0-0.3-0.1-0.4-0.1h-16.6
					v-9.1h16.7c0.6,0,1.1-0.5,1.1-1.1v-4.2c0-0.6-0.5-1.1-1.1-1.1h-2.3l1.6-1.7C318.8,50,318.7,49.3,318.3,48.9z M296.1,86.3h-6.8
					V74h6.8V86.3z"/>
				<path class="st0" d="M216.6,47.6L216.6,47.6c0-0.6-0.5-1.1-1.1-1.1h-32.1c-0.6,0-1,0.5-1,1.1v43.9c0,0.6,0.4,1.1,1,1.1l32,0
					c0.1,0,0.1,0,0.2,0c0.6,0,1-0.5,1-1.1c0,0,0,0,0,0h0V47.6z M210.1,65.8h-14.9c-0.6,0-1.1,0.5-1.1,1.1v4.3l0,0l0,0
					c0,0.6,0.5,1.1,1.1,1.1h14.9v13.8h-21.4V53h21.4V65.8z"/>
				<path class="st0" d="M524.9,48.3h4.3c0.6,0,1-0.5,1-1.1v-3.5c0-0.6-0.5-1.1-1-1.1h-4.3c-0.6,0-1.1,0.5-1.1,1.1v3.5
					C523.8,47.7,524.3,48.3,524.9,48.3z M546.2,48.3h4.2c0.6,0,1.1-0.5,1.1-1.1v-3.5c0-0.6-0.5-1.1-1.1-1.1l0,0h-4.2
					c-0.6,0-1.1,0.5-1.1,1.1v3.5C545.1,47.7,545.6,48.3,546.2,48.3z M550.4,63.8c0.6,0,1.1-0.4,1.1-1v-6.4c0-0.6-0.5-1-1.1-1H525
					c-0.6,0-1.1,0.4-1.1,1v6.4c0,0.6,0.5,1,1.1,1H550.4z M529.7,58.4h16v2.4h-16V58.4z M559,49.7h-18.2v-6.1c0-0.6-0.4-1.1-1-1.1
					l0,0h-4.3c-0.6,0-1.1,0.5-1.1,1.1v6.1h-18c-0.6,0-1.1,0.4-1.1,1.1V60c0,0.6,0.5,1,1.1,1h4.3c0.6,0,1.1-0.5,1.1-1v-6.4h31.9V60
					c0,0.6,0.5,1,1.1,1h4.3c0.6,0,1-0.5,1-1v-9.3C560,50.2,559.6,49.7,559,49.7z M553,65.7L553,65.7H522c-0.6,0-1.1,0.5-1.1,1.1
					v18.1c0,0.6,0.5,1.1,1.1,1.1h5l-4.5,3.4c-0.5,0.3-0.6,1-0.2,1.5l2.6,3.4l0,0c0.4,0.5,1,0.5,1.5,0.2l5-3.9c0.5-0.4,0.6-1,0.2-1.5
					l-2.4-3.1h16.5l-2.3,3.1c-0.4,0.5-0.3,1.1,0.2,1.5l5.1,3.9c0.5,0.3,1.2,0.3,1.5-0.2l2.6-3.4c0.3-0.5,0.3-1.1-0.2-1.5l-4.4-3.4h5
					l0,0c0.6,0,1.1-0.5,1.1-1.1V66.8C554.1,66.2,553.6,65.7,553,65.7z M548.2,82.8H527v-2.5h21.2V82.8z M548.2,77.1H527v-2.6h21.2
					V77.1z M548.2,71.4H527v-2.6h21.2V71.4z"/>
				<path class="st0" d="M244.2,66.5l-3.8-1.9c-0.6-0.3-1.2,0-1.4,0.5l-4,7.9c-0.3,0.5-0.8,1.3-1.2,1.7l-6.8,6.6
					c-0.4,0.4-0.4,1.1,0,1.5l3,3.1c0.4,0.4,1.1,0.4,1.5,0l7.6-7.4c0.4-0.4,0.9-1.2,1.2-1.7l4.5-8.9
					C244.9,67.4,244.7,66.8,244.2,66.5z M257.6,80.9h-4.9V58.5h17c0.6,0,1.1-0.5,1.1-1.1v-4.2c0-0.6-0.5-1.1-1.1-1.1h-17v-8.3
					c0-0.6-0.5-1.1-1.1-1.1h-4.2c-0.6,0-1.1,0.5-1.1,1.1v8.3h-16.9c-0.6,0-1.1,0.5-1.1,1.1v4.2c0,0.6,0.5,1.1,1.1,1.1h16.9v22.4
					h-4.8c-0.6,0-1.1,0.5-1.1,1.1v4.3c0,0.6,0.5,1,1.1,1h4.8v6.4c0,0.6,0.5,1.1,1.1,1.1h4.2c0.6,0,1.1-0.5,1.1-1.1v-6.4h4.9
					c0.6,0,1-0.4,1-1V82C258.6,81.4,258.1,80.9,257.6,80.9z M272,81.3l-6.8-6.6c-0.4-0.4-1-1.2-1.3-1.7l-3.9-7.9
					c-0.3-0.5-0.9-0.7-1.5-0.5l-3.8,1.9c-0.5,0.2-0.7,0.9-0.4,1.4l4.4,8.9c0.3,0.5,0.8,1.3,1.3,1.7l7.5,7.4c0.4,0.4,1,0.4,1.5,0
					l3-3.1C272.4,82.4,272.4,81.8,272,81.3z"/>
				<path class="st0" d="M505.7,52.1h-18.8v-8.5c0-0.6-0.5-1.1-1.1-1.1h-4.3c-0.6,0-1.1,0.5-1.1,1.1v8.5h-18.8
					c-0.6,0-1.1,0.5-1.1,1.1v4.2c0,0.6,0.5,1.1,1.1,1.1h18.8v4.9c0,0.6-0.3,1.4-0.6,1.9l-17.2,25.1c-0.3,0.5-0.2,1.1,0.3,1.5
					l3.5,2.5c0.5,0.3,1.2,0.2,1.5-0.3l15.1-22.1c0.3-0.5,0.9-0.5,1.2,0l15.1,22.1c0.4,0.5,1,0.6,1.5,0.3l3.5-2.5
					c0.5-0.3,0.6-1,0.3-1.5l-17.1-25.1c-0.3-0.5-0.6-1.4-0.6-1.9v-4.9h18.8c0.6,0,1.1-0.5,1.1-1.1v-4.2
					C506.8,52.6,506.3,52.1,505.7,52.1z"/>
			</g>
		</g>
	</g>
	<g>
		<path class="st0" d="M205,128.2c0.4,0,0.7-0.3,0.7-0.7v-18.3c0-0.4-0.3-0.7-0.7-0.7h-21.7c-0.4,0-0.7,0.3-0.7,0.7v3.1
			c0,0.3,0.4,0.7,0.7,0.7h17.9v10.8h-17.9c-0.4,0-0.7,0.2-0.7,0.7v18.3c0,0.4,0.4,0.7,0.7,0.7H205c0.4,0,0.7-0.3,0.7-0.7v-2.9
			c0-0.5-0.3-0.8-0.7-0.8h-17.9v-10.9H205z"/>
		<path class="st0" d="M284.7,123.8h-14.2v-10.9h14.2V123.8z M289.2,109.2c0-0.4-0.3-0.7-0.7-0.7h-21.7c-0.4,0-0.7,0.3-0.7,0.7v18.3
			c0,0.4,0.4,0.7,0.7,0.7h17.9V139h-17.9c-0.4,0-0.7,0.4-0.7,0.7v3.1c0,0.4,0.4,0.7,0.7,0.7h21.7c0.4,0,0.7-0.3,0.7-0.7V109.2z"/>
		<path class="st0" d="M235.9,108.5h-21.6c-0.4,0-0.7,0.3-0.7,0.7v33.6c0,0.4,0.3,0.7,0.7,0.7h21.6c0.4,0,0.8-0.3,0.8-0.7v-33.6
			C236.6,108.8,236.3,108.5,235.9,108.5z M232.2,113v26.1H218V113H232.2z"/>
		<path class="st0" d="M245.5,108.5c-0.4,0-0.7,0.3-0.7,0.7v3.2c0,0.4,0.3,0.7,0.7,0.7h6.2v29.8c0,0.4,0.3,0.7,0.7,0.7h3.1
			c0.4,0,0.7-0.3,0.7-0.7v-33.6c0-0.4-0.4-0.7-0.7-0.7H245.5z"/>
	</g>
</g>
</svg>
