<svg xmlns="http://www.w3.org/2000/svg" width="625.38" height="75" viewBox="0 0 625.38 75">
  <defs>
    <style>
      .cls-1 {
        fill: #e6222e;
      }

      .cls-2 {
        fill: #fff;
      }
    </style>
  </defs>
  <g id="レイヤー_2" data-name="レイヤー 2">
    <g id="object">
      <g>
        <g>
          <path d="M82.94,21.41V2.93h7.17V21.41Z"/>
          <path d="M240.46,21.41V2.93h7.17V21.41Z"/>
          <path d="M112.41,21.56h-6L101,14.16v7.25H94.47V2.93h5.65l5.74,7.78V2.93h6.55Z"/>
          <path d="M193.39,21.56h-6L182,14.16v7.25h-6.56V2.93h5.66l5.73,7.78V2.93h6.56Z"/>
          <path d="M291,21.56h-6l-5.39-7.4v7.25H273V2.93h5.65l5.74,7.78V2.93H291Z"/>
          <path d="M115.33,10.13V2.93h16.44v7.2h-4.64V21.41H120V10.13Z"/>
          <path d="M220.72,10.13V2.93h16.42v7.2h-4.61V21.41h-7.19V10.13Z"/>
          <path d="M345.93,10.13V2.93h16.42v7.2h-4.62V21.41h-7.17V10.13Z"/>
          <path d="M462.29,10.13V2.93H478.7v7.2h-4.62V21.41H466.9V10.13Z"/>
          <path d="M149.87,17.31v4.1H134.52V2.93h15.35V7.09h-8.19v3.29h6V14h-6v3.33Z"/>
          <path d="M152.86,2.93h12.08a7.09,7.09,0,0,1,4.93,1.61,5.05,5.05,0,0,1,1.78,3.93,5.15,5.15,0,0,1-2.52,4.11,15.92,15.92,0,0,1,4,8.83h-8a14.75,14.75,0,0,0-1-5.17c-.54-1.09-1.91-1.64-4.06-1.64v6.81h-7.17ZM160,6.78v3.54h1.24c2.15,0,2.7-.57,2.7-1.76a1.89,1.89,0,0,0-.44-1.25,3.32,3.32,0,0,0-2-.53Z"/>
          <path d="M203.16,21.41H196L202.4,2.93h11.67l6.41,18.48h-7.16l-1.07-3.11h-8Zm2.56-7.49h5l-2.57-7.17Z"/>
          <path d="M300.73,21.41h-7.17L300,2.93h11.66l6.42,18.48h-7.17l-1.07-3.11h-8Zm2.55-7.49h5.05l-2.56-7.17Z"/>
          <path d="M260.8,21.7a9,9,0,0,1-6.71-2.77,9.1,9.1,0,0,1-2.76-6.73,9.3,9.3,0,0,1,2.76-6.78,9.56,9.56,0,0,1,13.44,0,9.25,9.25,0,0,1,2.75,6.78,9.06,9.06,0,0,1-2.75,6.73A9,9,0,0,1,260.8,21.7Zm0-13.2a2.7,2.7,0,0,0-2.13.94,3.1,3.1,0,0,0-.85,2.21,3.09,3.09,0,0,0,.85,2.26,2.91,2.91,0,0,0,4.28,0,3.05,3.05,0,0,0,.86-2.26A3.06,3.06,0,0,0,263,9.44,2.73,2.73,0,0,0,260.8,8.5Z"/>
          <path d="M373.88,21.7a9.06,9.06,0,0,1-6.71-2.77,9.13,9.13,0,0,1-2.75-6.73,9.33,9.33,0,0,1,2.75-6.78,9.56,9.56,0,0,1,13.44,0,9.29,9.29,0,0,1,2.75,6.78,9.1,9.1,0,0,1-2.75,6.73A9.07,9.07,0,0,1,373.88,21.7Zm0-13.2a2.7,2.7,0,0,0-2.13.94,3.06,3.06,0,0,0-.85,2.21,3,3,0,0,0,.85,2.26,2.91,2.91,0,0,0,4.28,0,3,3,0,0,0,.85-2.26A3.06,3.06,0,0,0,376,9.44,2.73,2.73,0,0,0,373.88,8.5Z"/>
          <path d="M439.81,21.7a9.06,9.06,0,0,1-6.71-2.77,9.1,9.1,0,0,1-2.76-6.73,9.3,9.3,0,0,1,2.76-6.78,9.56,9.56,0,0,1,13.44,0,9.3,9.3,0,0,1,2.76,6.78,9.1,9.1,0,0,1-2.76,6.73A9.07,9.07,0,0,1,439.81,21.7Zm0-13.2a2.7,2.7,0,0,0-2.13.94,3,3,0,0,0-.84,2.21,3,3,0,0,0,.84,2.26,2.91,2.91,0,0,0,4.28,0,3.05,3.05,0,0,0,.86-2.26A3.06,3.06,0,0,0,442,9.44,2.72,2.72,0,0,0,439.81,8.5Z"/>
          <path d="M490.55,21.7a9,9,0,0,1-6.71-2.77,9.12,9.12,0,0,1-2.78-6.73,9.32,9.32,0,0,1,2.78-6.78,9.56,9.56,0,0,1,13.44,0A9.37,9.37,0,0,1,500,12.2a9.17,9.17,0,0,1-2.75,6.73A9.1,9.1,0,0,1,490.55,21.7Zm0-13.2a2.69,2.69,0,0,0-2.13.94,3.06,3.06,0,0,0-.85,2.21,3,3,0,0,0,.85,2.26,2.89,2.89,0,0,0,4.27,0,3.05,3.05,0,0,0,.86-2.26,3.06,3.06,0,0,0-.86-2.21A2.71,2.71,0,0,0,490.55,8.5Z"/>
          <path d="M584.25,21.7a9.06,9.06,0,0,1-6.72-2.77,9.07,9.07,0,0,1-2.76-6.73,9.26,9.26,0,0,1,2.76-6.78,9.56,9.56,0,0,1,13.44,0,9.3,9.3,0,0,1,2.76,6.78A9.1,9.1,0,0,1,591,18.93,9.08,9.08,0,0,1,584.25,21.7Zm0-13.2a2.68,2.68,0,0,0-2.13.94,3,3,0,0,0-.85,2.21,3,3,0,0,0,.85,2.26,2.64,2.64,0,0,0,2.13.94,2.69,2.69,0,0,0,2.14-.94,3.05,3.05,0,0,0,.86-2.26,3.06,3.06,0,0,0-.86-2.21A2.72,2.72,0,0,0,584.25,8.5Z"/>
          <path d="M320.45,21.41V2.93h7.16V16.77h8.18v4.64Z"/>
          <path d="M393.5,2.93V9.09q3.62-.15,4.71-1.73a7.92,7.92,0,0,0,1.09-4.43h7.83a14.5,14.5,0,0,1-.89,5.56c-.59,1.5-2.16,2.72-3.43,3.71a12.19,12.19,0,0,1,4.84,9.21h-8.32c-.13-4.7-2.16-6.62-5.83-6.7v6.7h-7.15V2.93Z"/>
          <path d="M423.57,21.41H416.4V13.35L409.05,2.93h7.27l3.66,6,3.66-6h7.27l-7.34,10.42Z"/>
          <path d="M513.56,21.41h-7.17V13.35L499,2.93h7.26l3.67,6,3.66-6h7.28l-7.35,10.42Z"/>
          <path d="M548.45,3.87l-1.71,4.9A9.58,9.58,0,0,0,542,6.54c-.55,0-1.4-.13-1.77.74-.32.7-.32,1.66,3,2.63a12.7,12.7,0,0,1,3.27,1.48,5.05,5.05,0,0,1,1.71,1.77,5.24,5.24,0,0,1,.56,2.48,5.19,5.19,0,0,1-2.24,4.54c-1.51,1-3.72,1.52-6.62,1.52a24.76,24.76,0,0,1-8.64-1.39L533.15,15c.63.49,2,1.23,3.34,2.05,1.62,1,2.71.59,3.1,0s.7-1.68-2.55-2.85a14.28,14.28,0,0,1-2.45-1.13,5.21,5.21,0,0,1-2.39-4.25,5.17,5.17,0,0,1,2.24-4.6,10.57,10.57,0,0,1,6.42-1.75A23,23,0,0,1,548.45,3.87Z"/>
          <path d="M559.22,21.41h-7.17V2.93h7.17v6.8h5.38V2.93h7.18V21.41H564.6V14.58h-5.38Z"/>
          <path d="M607,21.41h-5.53L594.94,2.93h7l3.15,8.54,3.26-8.54H612l3.36,8.54,3-8.54h7l-6.23,18.48h-5.53L610.2,13.1Z"/>
        </g>
        <g>
          <g>
            <g>
              <path class="cls-1" d="M25.73,21.74l.55-2.65a.4.4,0,0,1,.45-.32,27.8,27.8,0,0,0,6.27,0c5-.55,7.37-2.76,8-4.07a.73.73,0,0,0,0-.73c-.18-.23-.59-.2-.88-.13a33.73,33.73,0,0,1-13.54.4.4.4,0,0,1-.33-.48L28.55,1.59a.41.41,0,0,1,.4-.32L43.4,1.2a.4.4,0,0,1,.4.32l4.37,20a.42.42,0,0,0,.44.32l18.3-1.77a.41.41,0,0,1,.43.28l4.35,13.11a.4.4,0,0,1-.18.48l-14.3,8.24a.39.39,0,0,0-.17.51l9.48,21.85a.42.42,0,0,1-.13.5L54.54,73.56a.42.42,0,0,1-.52,0L36.84,57.81a.41.41,0,0,0-.55,0l-17,15.88a.39.39,0,0,1-.51,0L6.82,65.33a.42.42,0,0,1-.14-.5L16,42.9a.42.42,0,0,0-.18-.52L1.4,34.29a.42.42,0,0,1-.18-.48L5.45,20.65a.39.39,0,0,1,.42-.28L25.34,22A.38.38,0,0,0,25.73,21.74Z"/>
              <path d="M19,75a1.61,1.61,0,0,1-.93-.3L6.13,66.31a1.63,1.63,0,0,1-.55-1.94l9-21.29L.82,35.33a1.6,1.6,0,0,1-.74-1.89L4.31,20.29A1.57,1.57,0,0,1,6,19.18l18.73,1.6.4-1.93a1.62,1.62,0,0,1,1.8-1.27,26.83,26.83,0,0,0,6,0,11,11,0,0,0,6-2.25,35.48,35.48,0,0,1-12.6.09A1.6,1.6,0,0,1,25,13.52L27.38,1.37A1.6,1.6,0,0,1,29,.07L43.4,0h0A1.6,1.6,0,0,1,45,1.27l4.22,19.32,17.6-1.7A1.6,1.6,0,0,1,68.47,20L72.83,33.1A1.6,1.6,0,0,1,72.1,35L58.41,42.87l9.21,21.2a1.62,1.62,0,0,1-.54,2L55.23,74.53a1.61,1.61,0,0,1-2-.12L36.57,59.19,20.08,74.57A1.59,1.59,0,0,1,19,75Zm.45-2.25h0ZM8,64.71l10.89,7.67L35.47,56.94a1.61,1.61,0,0,1,2.19,0l16.7,15.28,10.81-7.78L55.94,43.18a1.6,1.6,0,0,1,.67-2l13.74-7.91L66.4,21.33,48.73,23A1.6,1.6,0,0,1,47,21.79L42.77,2.4,29.6,2.46,27.51,13.18a31.76,31.76,0,0,0,12.23-.49,1.94,1.94,0,0,1,2.12.54,1.91,1.91,0,0,1,.2,1.95c-.84,1.85-3.67,4.2-8.93,4.78A30.5,30.5,0,0,1,27.3,20L26.9,22a1.58,1.58,0,0,1-1.66,1.24L6.39,21.62,2.55,33.56l13.82,7.78a1.61,1.61,0,0,1,.69,2Zm28-6h0ZM24.55,21.5ZM6.59,21h0Zm59.61-.27ZM27.35,14h0ZM29,2.46Zm14.45-.07Zm-.78-.62h0Z"/>
            </g>
            <path d="M32.48,13a.62.62,0,0,1-.19,0,.64.64,0,0,1-.42-.79,34.93,34.93,0,0,0,1.44-8.39.64.64,0,0,1,1.27.07,36.43,36.43,0,0,1-1.5,8.69.62.62,0,0,1-.6.44Z"/>
          </g>
          <path d="M40.39,8.74a1,1,0,1,1-2,0,1,1,0,1,1,2,0Z"/>
          <path d="M29.87,6a.87.87,0,0,0,.79.92A.86.86,0,0,0,31.43,6a.79.79,0,1,0-1.56,0Z"/>
          <g>
            <path class="cls-2" d="M28.16,29.64v.85a2.82,2.82,0,0,1-2.38,1.1,2.93,2.93,0,0,1-2.05-.7A2.42,2.42,0,0,1,22.94,29a2.39,2.39,0,0,1,.71-1.8,2.55,2.55,0,0,1,1.85-.71,2.92,2.92,0,0,1,1.08.19,2.4,2.4,0,0,1,.86.57,2.49,2.49,0,0,1,.54.88,4.19,4.19,0,0,1,.18,1.22H25.58a1.2,1.2,0,0,0,.47.59,1.37,1.37,0,0,0,.75.21A1.89,1.89,0,0,0,28.16,29.64Zm-2.73-1.12h1.18a.94.94,0,0,0-.18-.57.52.52,0,0,0-.83,0A.91.91,0,0,0,25.43,28.52Z"/>
            <path class="cls-2" d="M31.43,26.58v.62A2,2,0,0,1,33,26.54a1.75,1.75,0,0,1,1.32.47,2,2,0,0,1,.46,1.41v3H32.36V28.62c0-.4-.16-.61-.46-.6a.86.86,0,0,0-.46.15l0,3.32H28.93l0-4.91Z"/>
            <path class="cls-2" d="M39.55,26.54v1.38H38.51v1q0,.54.48.54a.73.73,0,0,0,.6-.36v2a2.6,2.6,0,0,1-1.45.39A2.17,2.17,0,0,1,36.63,31,1.86,1.86,0,0,1,36,29.47V27.93H35l3.53-2.79v1.4Z"/>
            <path class="cls-2" d="M45.37,29.55v.86A2.78,2.78,0,0,1,43,31.5a2.91,2.91,0,0,1-2.06-.69,2.45,2.45,0,0,1-.79-1.87,2.41,2.41,0,0,1,.71-1.8,2.55,2.55,0,0,1,1.85-.71,2.92,2.92,0,0,1,1.08.19,2.4,2.4,0,0,1,.86.57,2.36,2.36,0,0,1,.54.88,4.19,4.19,0,0,1,.18,1.22H42.8a1.07,1.07,0,0,0,.46.58,1.29,1.29,0,0,0,.75.21A1.78,1.78,0,0,0,45.37,29.55Zm-2.73-1.11h1.19a1,1,0,0,0-.19-.57.52.52,0,0,0-.83,0A.89.89,0,0,0,42.64,28.44Z"/>
            <path class="cls-2" d="M48.65,27.58c.32-.75.78-1.12,1.39-1.12a1.13,1.13,0,0,1,.84.32,1.18,1.18,0,0,1,.33.85,1.13,1.13,0,0,1-.32.87,1.11,1.11,0,0,1-.84.33,1.33,1.33,0,0,1-1-.44,1.52,1.52,0,0,0-.37,1.18V31.4l-2.52,0,0-4.91h2.52Z"/>
            <path class="cls-2" d="M22.9,39.59l0-4,8,0,0,4h-2l0,5-4,0,0-5Z"/>
            <path class="cls-2" d="M36.77,44.65a4.35,4.35,0,0,1-3.25-1.33,4.61,4.61,0,1,1,3.25,1.33Zm0-5.8a.8.8,0,0,0-.63.27.89.89,0,0,0-.25.67.91.91,0,0,0,.25.67.79.79,0,0,0,.63.26.82.82,0,0,0,.64-.26,1,1,0,0,0,.25-.68,1,1,0,0,0-.25-.67A.87.87,0,0,0,36.75,38.85Z"/>
            <path class="cls-2" d="M48.6,44.45h-4l0-3.9-3.44-5,4,0,1.39,2,1.37-2,4,0-3.39,5.06Z"/>
            <path class="cls-2" d="M25.69,47.9v.61a2,2,0,0,1,1.51-.66,1.73,1.73,0,0,1,1.59.84,3.18,3.18,0,0,1,.84-.65,2.41,2.41,0,0,1,.95-.21,1.64,1.64,0,0,1,1.26.49,1.89,1.89,0,0,1,.46,1.37l0,3.08H29.94V49.85a.6.6,0,0,0-.13-.4.42.42,0,0,0-.34-.14.78.78,0,0,0-.46.16l0,3.32H26.64l0-2.93a.62.62,0,0,0-.12-.4.43.43,0,0,0-.34-.15.82.82,0,0,0-.46.17V52.8H23.2l0-4.9Z"/>
            <path class="cls-2" d="M38.59,50.87v.86a2.82,2.82,0,0,1-2.37,1.1,2.94,2.94,0,0,1-2.06-.7,2.42,2.42,0,0,1-.79-1.87,2.37,2.37,0,0,1,.71-1.8,2.51,2.51,0,0,1,1.85-.71,2.92,2.92,0,0,1,1.08.19,2.39,2.39,0,0,1,1.4,1.45,3.9,3.9,0,0,1,.17,1.22H36a1.22,1.22,0,0,0,.46.59,1.36,1.36,0,0,0,.75.2A1.79,1.79,0,0,0,38.59,50.87Zm-2.73-1.11h1.19a1.05,1.05,0,0,0-.19-.58.54.54,0,0,0-.43-.2.52.52,0,0,0-.4.2A.89.89,0,0,0,35.86,49.76Z"/>
            <path class="cls-2" d="M42.19,47.82v.62a2,2,0,0,1,1.51-.67,1.79,1.79,0,0,1,1.32.47,2,2,0,0,1,.47,1.42v3.05H43.13V49.86c0-.41-.16-.61-.47-.61a.82.82,0,0,0-.45.16l0,3.31-2.52,0,0-4.91Z"/>
            <path class="cls-2" d="M50.65,47.78v1.37h-1v1.05c0,.35.16.53.48.53a.74.74,0,0,0,.6-.35v1.94a2.59,2.59,0,0,1-1.44.4,2.32,2.32,0,0,1-1.54-.53,1.9,1.9,0,0,1-.62-1.49V49.17h-1l3.53-2.8v1.4Z"/>
          </g>
        </g>
        <g>
          <g>
            <path d="M259.42,45.21V36.93H235.78V34.09H223.46v2.84h-3.29v8.28h3.29v2.43h-3.29v8.3h3.29v1.68c0,10.6,4.69,16.15,14.8,16.15H244c8.23,0,15.35-3.85,15.35-17.07V47.55H247.25V56.7c0,3.1-1.19,5.4-5.38,5.4H241c-3,0-5.17-.82-5.17-4.48V55.94h9.08v-8.3h-9.08V45.21Z"/>
            <path d="M290.27,48.85h-5.7V46.47H302.7v-10H284.57V34.09H272.24V36.5h-6.8v10h6.8v12.6h16.21c1.68,0,2.19.68,2.19,1.64S290,62.1,288.3,62.1H268.06V73.77H288.3c12.23,0,16.11-4.16,16.11-12.78C304.41,50.13,298.33,48.85,290.27,48.85Z"/>
            <path d="M199.11,48.85h-3.72V46.42h4V36.5h-4V34.09h-10.5V36.5H174.13v9.92H185v2.43h-1.15c-5.52,0-10.8,3.77-10.8,12.49,0,8.21,4.32,12.43,11.75,12.43,9.52,0,10.6-5.68,10.6-12v-2.7h4c1.51,0,2.39.23,2.39,1.54,0,1-.48,1.49-2.32,1.49-.87,0-1.71,0-1.71,0V73.77h1.55c7.38,0,13.6-2.07,13.6-12.75C212.85,52.48,206.45,48.85,199.11,48.85ZM185,61.89c0,1.31-.42,1.94-1.07,1.94h-.4c-1.11,0-1.38-1.22-1.38-2.49,0-1.58.81-2.26,2-2.26H185Zm16.78-29.64v10c2.18,0,2.47,1.34,2.47,2.41v2.88h9.91v-4C214.15,35.66,210.8,31.88,201.77,32.25Z"/>
            <path d="M371,48.85l-1.74,6.6c-1.34,4.63-6.27,6.65-10.59,6.65H345.07V73.77H359.3c10.51,0,18.81-4.93,21.32-15.62,1.13-4.82,1.52-10.09,4.47-10.09V35.42C375,35.42,372.94,40.3,371,48.85ZM364,34.09H345.07V44.31H364Zm0,12.65H345.07V57H364Z"/>
            <rect x="423.23" y="48.28" width="36.7" height="12.09"/>
            <path d="M407.48,44.89H389.59V53.5H406.3c1.6,0,1.35,1.38,1.35,2.42h-16.4v6.81h16.4v2.43H389.59v8.61h28.34V54.39C417.93,50,415.17,44.89,407.48,44.89Z"/>
            <path d="M335,50.41a2.89,2.89,0,0,1,2.55-1V42.27c-7,0-10,2.72-11.22,5.93h-4.93l-.2-3.31H312.4l.22,3.31h-3.31v9.22h3.92l1,16.35h8.78l-1-16.35h3.91c2.3,0,3.31.66,3.31,2.2s-1,2.51-3.94,2.51v9.2c10.41,0,13.62-4,13.62-10.72l0-2.06A9.49,9.49,0,0,0,335,50.41Z"/>
            <path d="M128.7,60.66H142V73.77h11.76V60.66h13.35V43.36H128.7Zm9.63-9.95H157.5v2.62H138.33Zm14.79-16.62V32.25H142.7v1.84H127.94V41h39.88V34.09ZM132.87,63c-.11,2.66-2.4,3.81-4.93,3.6v7.21c9.45.37,12.59-4,12.35-10.81Z"/>
            <path d="M122.16,40.91V34.09H107.45V32.25H97v1.84H82.37v6.82H97v2.43H83V62.91h9.47c-1.49,2.13-6,3.66-10.25,3.58v7.24c6.56,0,11.5-1.54,14.11-4.37v4.41H108V69.36c2.62,2.83,7.56,4.41,14.09,4.37V66.49c-4.09.08-8.41-.91-10.22-3.58h9.58V43.34h-14V40.91ZM97,58.33H92.65v-2.4H97Zm0-8H92.65V47.94H97Zm14.79,8h-4.38v-2.4h4.38Zm0-10.39v2.43h-4.38V47.94Z"/>
            <path d="M162.93,63c.08,2.66,2.4,3.81,4.89,3.6v7.21c-9.42.37-12.55-4-12.33-10.81Z"/>
          </g>
          <g>
            <path d="M466,34.5V45.56h22.53c1.45,0,2.46.39,2.46,1.8,0,1.2-.86,1.75-2.46,1.75H468.06V73.79h33.71V62.23H480.7v-3h6.85c14.22.31,16.72-5.63,16.72-12.07,0-9.56-5.31-12.67-15.51-12.67Z"/>
            <path d="M550,34.5V45.56h22.53c1.45,0,2.46.39,2.46,1.8,0,1.2-.86,1.75-2.46,1.75H552V73.79h33.71V62.23H564.64v-3h6.85c14.22.31,16.72-5.63,16.71-12.07,0-9.56-5.3-12.67-15.51-12.67Z"/>
            <path d="M593.54,34.5V45.56H601c2.66,0,3.93,1.61,3.93,3.6V73.79h13.7V49.16c0-12.53-6.65-14.66-14.91-14.66Z"/>
            <path d="M522.8,34.5c-7.29,0-15.16,6-15.16,13.39V60.44c0,7.38,7.87,13.35,15.16,13.35h8.12c7.33,0,15.16-6,15.16-13.35V47.89c0-7.39-7.83-13.39-15.16-13.39Zm-2.28,24.34V49.43c0-1.6,1.5-3.87,3.31-3.87h6.08c1.78,0,3.32,2.27,3.32,3.87v9.41c0,1.78-1.62,3.93-3.32,3.93h-6.08C522,62.77,520.52,60.67,520.52,58.84Z"/>
          </g>
        </g>
      </g>
    </g>
  </g>
</svg>
