<svg xmlns="http://www.w3.org/2000/svg" width="64.97" height="70" viewBox="0 0 64.97 70">
  <defs>
    <style>
      .cls-1 {
        fill: #e6222e;
      }

      .cls-2 {
        fill: #fff;
      }
    </style>
  </defs>
  <g id="レイヤー_2" data-name="レイヤー 2">
    <g id="nav">
      <g>
        <g>
          <g>
            <g>
              <path class="cls-1" d="M26.37,21.35l-11.55-1-2.55,7.92,8.61,4.84-5.48,13,7.16,5,10.08-9.4,10.17,9.31,7.12-5.12L44.32,33l8.56-4.93-2.62-7.89-10.9,1L36.76,9.36l-8.69,0-1.45,7.41a19.66,19.66,0,0,0,8-.18c.16-.05.4-.07.51.07a.44.44,0,0,1,0,.41c-.34.76-1.73,2-4.58,2.34a13.84,13.84,0,0,1-3.81,0l-.4,1.94"/>
              <path d="M39.07,18c-.75-3.42-1.9-8.72-1.9-8.72a.44.44,0,0,0-.41-.33L28.07,9a.4.4,0,0,0-.4.34l-1.45,7.41a.4.4,0,0,0,.06.32.41.41,0,0,0,.27.17,21,21,0,0,0,6.54.14c.38-.06.78-.15,1.06-.21s.37-.14.44,0-.05.21-.15.33a4.7,4.7,0,0,1-.94.71,7.48,7.48,0,0,1-2.95.88,14.16,14.16,0,0,1-3.67,0,.4.4,0,0,0-.32,0,.4.4,0,0,0-.19.27s0,.21-.1.48-.17.83-.17.83a.33.33,0,0,1-.33.24l-2.37-.19-8.54-.75a.44.44,0,0,0-.44.29l-2.54,7.92a.31.31,0,0,0,0,.13.42.42,0,0,0,.22.36l5.7,3.21,2.35,1.32a.3.3,0,0,1,.13.38l-1,2.36L15,45.93a.51.51,0,0,0,0,.17.41.41,0,0,0,.18.34l7.16,5a.42.42,0,0,0,.53,0l7.71-7.2,1.89-1.76a.29.29,0,0,1,.39,0l1.88,1.72,7.81,7.14a.4.4,0,0,0,.52,0l7.12-5.11a.4.4,0,0,0,.17-.34.45.45,0,0,0,0-.16s-2.73-6.3-4.34-10l-1-2.35a.32.32,0,0,1,.12-.38l2.7-1.55,5.31-3.06a.39.39,0,0,0,.21-.36.59.59,0,0,0,0-.13l-2.62-7.89a.41.41,0,0,0-.44-.28L42,20.57l-2,.2a.3.3,0,0,1-.32-.24S39.39,19.47,39.07,18ZM26.87,21l.18-.9a.3.3,0,0,1,.32-.23s.5.05,1.46.05c.59,0,1.22,0,1.81-.09,3.11-.34,4.55-1.79,4.91-2.59a.81.81,0,0,0-.08-.84.88.88,0,0,0-.94-.22,17.39,17.39,0,0,1-4.93.49c-1,0-2.22-.2-2.22-.2a.25.25,0,0,1-.21-.3l.41-2.12L27.79,13c.29-1.49.58-2.95.58-2.95a.33.33,0,0,1,.32-.27h7.46a.34.34,0,0,1,.33.26L37,12.3c.74,3.41,2,9,2,9a.42.42,0,0,0,.45.33l5.1-.49,5.2-.51a.37.37,0,0,1,.36.23s.47,1.43,1,2.95l.3.92c.5,1.49,1,2.88,1,2.88a.36.36,0,0,1-.15.39l-4,2.31-4,2.31a.4.4,0,0,0-.2.36.51.51,0,0,0,0,.17s1.94,4.48,3.52,8.11l1.84,4.25a.36.36,0,0,1-.11.41L46,48.26l-.4.28-2.52,1.81a.35.35,0,0,1-.42,0L39.88,47.8l-7-6.37a.41.41,0,0,0-.56,0L26,47.35l-3.3,3.07a.34.34,0,0,1-.42,0l-3-2.09-.26-.18L16.13,46.1a.34.34,0,0,1-.11-.4S17,43.48,18,41l3.25-7.69a.45.45,0,0,0,0-.16.41.41,0,0,0-.21-.36l-4-2.23L13,28.21a.36.36,0,0,1-.16-.39l1-3.11c.14-.43.27-.86.41-1.28.41-1.29.76-2.37.76-2.37a.35.35,0,0,1,.35-.23l3.87.33,7.09.6a.17.17,0,0,0,.1,0h.08l.05,0a.18.18,0,0,0,.07-.05.08.08,0,0,0,0,0l.06-.07,0-.05s0,0,0-.07S26.82,21.27,26.87,21Z"/>
              <path d="M30.3,16.11h-.11a.36.36,0,0,1-.24-.46,20.05,20.05,0,0,0,.82-4.82.37.37,0,0,1,.73,0,21.05,21.05,0,0,1-.86,5,.36.36,0,0,1-.34.25Z"/>
            </g>
            <path d="M34.84,13.69a.58.58,0,1,1-1.14,0,.62.62,0,0,1,.56-.68A.63.63,0,0,1,34.84,13.69Z"/>
            <path d="M28.8,12.09a.5.5,0,0,0,.45.53.5.5,0,0,0,.44-.53.45.45,0,1,0-.89,0Z"/>
            <g>
              <path class="cls-2" d="M27.81,25.7v.49a1.59,1.59,0,0,1-1.36.63,1.67,1.67,0,0,1-1.18-.4,1.42,1.42,0,0,1-.46-1.08,1.39,1.39,0,0,1,.41-1,1.49,1.49,0,0,1,1.06-.41,1.75,1.75,0,0,1,.62.11,1.41,1.41,0,0,1,.5.33,1.45,1.45,0,0,1,.31.5,2.43,2.43,0,0,1,.1.71H26.33a.71.71,0,0,0,.27.34A.8.8,0,0,0,27,26,1.06,1.06,0,0,0,27.81,25.7Zm-1.57-.64h.68a.54.54,0,0,0-.1-.33.3.3,0,0,0-.25-.12.29.29,0,0,0-.23.12A.5.5,0,0,0,26.24,25.06Z"/>
              <path class="cls-2" d="M29.69,23.94v.36a1.17,1.17,0,0,1,.87-.38,1,1,0,0,1,.76.27,1.14,1.14,0,0,1,.27.81v1.75H30.23V25.11c0-.23-.09-.34-.27-.34a.48.48,0,0,0-.26.09v1.9H28.26l0-2.82Z"/>
              <path class="cls-2" d="M34.36,23.92v.79h-.6v.61c0,.2.09.3.28.3a.43.43,0,0,0,.34-.2v1.12a1.51,1.51,0,0,1-.84.23,1.25,1.25,0,0,1-.87-.31,1.07,1.07,0,0,1-.36-.86v-.88h-.59l2-1.6v.8Z"/>
              <path class="cls-2" d="M37.7,25.65v.49a1.59,1.59,0,0,1-1.36.63,1.71,1.71,0,0,1-1.19-.4,1.51,1.51,0,0,1,0-2.11,1.44,1.44,0,0,1,1.06-.4,1.56,1.56,0,0,1,.62.11,1.38,1.38,0,0,1,.5.32,1.49,1.49,0,0,1,.31.51,2.31,2.31,0,0,1,.1.7H36.22a.67.67,0,0,0,.27.33.8.8,0,0,0,.43.12A1,1,0,0,0,37.7,25.65ZM36.13,25h.68a.54.54,0,0,0-.1-.33.32.32,0,0,0-.25-.12.28.28,0,0,0-.23.12A.47.47,0,0,0,36.13,25Z"/>
              <path class="cls-2" d="M39.59,24.51c.18-.42.44-.64.79-.64a.66.66,0,0,1,.49.19.74.74,0,0,1,0,1,.66.66,0,0,1-.48.19A.77.77,0,0,1,39.8,25a.89.89,0,0,0-.21.68v1.05H38.15V23.9h1.44Z"/>
              <path class="cls-2" d="M24.79,31.41V29.14l4.57,0v2.28H28.21l0,2.86H26V31.41Z"/>
              <path class="cls-2" d="M32.76,34.33a2.52,2.52,0,0,1-1.87-.77,2.61,2.61,0,0,1-.78-1.88,2.64,2.64,0,0,1,4.5-1.9,2.54,2.54,0,0,1,.78,1.88,2.63,2.63,0,0,1-2.63,2.67Zm0-3.34a.47.47,0,0,0-.37.16.56.56,0,0,0-.14.38.53.53,0,0,0,.15.39.46.46,0,0,0,.36.15.5.5,0,0,0,.37-.15.6.6,0,0,0,.14-.39.54.54,0,0,0-.15-.39A.48.48,0,0,0,32.75,31Z"/>
              <path class="cls-2" d="M39.56,34.21H37.28V32l-2-2.88h2.3l.8,1.16.78-1.17h2.31L39.55,32Z"/>
              <path class="cls-2" d="M26.39,36.19v.35a1.13,1.13,0,0,1,.86-.38,1,1,0,0,1,.91.49,1.81,1.81,0,0,1,.49-.38,1.19,1.19,0,0,1,.54-.12,1,1,0,0,1,.73.28,1.14,1.14,0,0,1,.26.79V39H28.84V37.31a.34.34,0,0,0-.08-.23.26.26,0,0,0-.19-.08.43.43,0,0,0-.26.09V39H26.94V37.32a.33.33,0,0,0-.07-.23.23.23,0,0,0-.2-.08.48.48,0,0,0-.26.09V39H25V36.2Z"/>
              <path class="cls-2" d="M33.8,37.9v.49a1.58,1.58,0,0,1-1.36.63,1.69,1.69,0,0,1-1.18-.4,1.37,1.37,0,0,1-.45-1.07,1.36,1.36,0,0,1,.4-1,1.45,1.45,0,0,1,1.07-.4,1.58,1.58,0,0,1,.62.1,1.51,1.51,0,0,1,.49.33,1.4,1.4,0,0,1,.31.51,2,2,0,0,1,.1.7H32.33a.66.66,0,0,0,.26.33.8.8,0,0,0,.43.12A1,1,0,0,0,33.8,37.9Zm-1.56-.64h.68a.54.54,0,0,0-.11-.33.29.29,0,0,0-.24-.12.31.31,0,0,0-.24.12A.5.5,0,0,0,32.24,37.26Z"/>
              <path class="cls-2" d="M35.88,36.15v.35a1.17,1.17,0,0,1,.87-.38,1,1,0,0,1,.76.27,1.14,1.14,0,0,1,.26.81V39H36.41V37.32c0-.24-.09-.35-.27-.35a.45.45,0,0,0-.26.09V39H34.44V36.15Z"/>
              <path class="cls-2" d="M40.73,36.12v.79h-.61v.61c0,.2.09.31.27.3a.43.43,0,0,0,.35-.2v1.12a1.53,1.53,0,0,1-.83.23,1.33,1.33,0,0,1-.88-.31,1.07,1.07,0,0,1-.36-.86v-.88H38.1l2-1.61v.8Z"/>
            </g>
          </g>
          <g>
            <path d="M5,42.53,6,44.4H6L4.1,43.47,2.61,45h0l.3-2.11L1,41.94v0l2.1-.35.31-2.07h0l1,1.86L6.49,41v0Z"/>
            <path d="M60.63,41.4l.95-1.87h0l.32,2.07,2.1.33v0l-1.89,1,.32,2.1v0L61,43.52l-1.87.95h0L60,42.59l-1.49-1.5v0Z"/>
            <path d="M31.32,59.5l.2-1.32-3.82-.55.07-.45-2-.28-.06.44-.53-.07L25,58.58l.52.08-.05.39L24.94,59l-.19,1.32.53.08,0,.27c-.25,1.68.39,2.68,2,2.92l.92.13c1.33.19,2.56-.25,2.87-2.36l.21-1.46-2-.28-.21,1.46a.78.78,0,0,1-1,.74l-.14,0c-.49-.07-.82-.25-.73-.83l0-.27,1.46.21.19-1.32-1.46-.21.05-.39Z"/>
            <path d="M36.55,59.9l-.93.05,0-.39,2.95-.14-.08-1.6L35.53,58c0-.23,0-.38,0-.38l-2,.09,0,.39-1.11,0,.08,1.6,1.11-.05.1,2,2.63-.13c.27,0,.36.09.37.24s-.1.23-.37.25L33,62.21l.09,1.87,3.29-.16c2-.1,2.59-.79,2.52-2.18C38.86,60,37.86,59.84,36.55,59.9Z"/>
            <path d="M21.38,58l-.54-.26.16-.35.59.28.69-1.45L21.69,56l.16-.35-1.54-.73c-.07.13-.06.13-.17.35l-1.58-.75-.69,1.44,1.61.76-.17.35L19.14,57A1.77,1.77,0,0,0,16.69,58a1.76,1.76,0,0,0,.87,2.63c1.4.66,2-.09,2.39-1,0,0,.14-.3.18-.4l.58.28c.23.1.34.2.26.39s-.18.18-.45.06l-.25-.12-.81,1.69.23.11c1.09.51,2.14.65,2.88-.91A2,2,0,0,0,21.38,58Zm-3,.91c-.09.19-.19.25-.29.2l-.06,0c-.16-.08-.12-.27,0-.45a.31.31,0,0,1,.45-.19l.12.06Zm4.51-3.14-.69,1.45a.35.35,0,0,1,.2.52l-.2.42,1.46.69L24,58.3C24.51,57.15,24.28,56.36,22.92,55.79Z"/>
            <path d="M48.73,55.87l.21,1.07a1.71,1.71,0,0,1-1.07,1.73l-2,1,.83,1.68,2.08-1a3.24,3.24,0,0,0,2-3.8c-.18-.77-.5-1.56-.07-1.77l-.91-1.83C48.36,53.63,48.4,54.49,48.73,55.87Zm-2.07-1.63L43.9,55.61l.72,1.48,2.77-1.37Zm.9,1.82L44.8,57.43l.73,1.48,2.76-1.37Z"/>
            <rect x="55.26" y="47.7" width="5.98" height="1.94" transform="translate(-15.73 65.69) rotate(-52.83)"/>
            <path d="M53,51.42l-2.17,1.95.93,1,2-1.81c.19-.17.31,0,.42.14h0l-2,1.78.73.82,2-1.79.26.3L53,55.8l.93,1,3.43-3.08-2.07-2.32A1.53,1.53,0,0,0,53,51.42Z"/>
            <path d="M43.55,58.73c.05-.13.16-.2.36-.26l-.3-1.11c-1.1.3-1.45.84-1.52,1.4l-.77.2-.17-.5-1.39.37.18.51-.53.14.39,1.43.62-.17.85,2.5,1.38-.37-.85-2.5.62-.16c.36-.1.54-.05.61.2s-.05.43-.51.55l.38,1.44c1.64-.45,2-1.21,1.69-2.25l-.08-.32A1.52,1.52,0,0,0,43.55,58.73Z"/>
            <path d="M11.23,50l.86-.68L10.6,47.44l.24-.19L9.79,45.92l-.24.19L8.06,44.24l-.86.68,1.49,1.87L8.38,47,7,45.25l-2.47,2,1,1.21A2.19,2.19,0,0,1,4,47.46l-.91.72a3.12,3.12,0,0,0,2,1.37L4.48,50l1.18,1.48L6.21,51a3.11,3.11,0,0,0,.88,2.23L8,52.55a2,2,0,0,1-.58-1.67l1,1.23,2.47-2L9.44,48.36l.3-.24ZM6.49,48.53,6.05,48l.31-.24.44.56Zm1-.8-.44-.56.3-.24.45.56ZM8,50.42l-.44-.56.3-.24.45.56Zm1.31-1-.3.24-.45-.56.31-.24Z"/>
            <g>
              <path d="M4.38,38l-3.72.69L.4,37.28l3.72-.69Z"/>
              <path d="M13.6,10.87,11.17,8,12.29,7l2.44,2.9Z"/>
              <path d="M1.5,32.07,0,32l.21-3.35,1.46.08-.05.95L4,29.8l-.09,1.46-2.31-.14Z"/>
              <path d="M9.11,11.93l-1-1,2.4-2.35,1,1.05-.68.66,1.62,1.66-1.05,1L9.79,11.27Z"/>
              <path d="M32.63,1.47,32.72,0l3.36.2L36,1.67l-1-.06-.13,2.31-1.47-.08.14-2.32Z"/>
              <path d="M53.6,9.85l1.06-1L57,11.26l-1.06,1-.65-.68L53.59,13.2l-1-1.07,1.67-1.6Z"/>
              <path d="M3.78,25.41l.84.15-.56,3.09L.33,28l.56-3.09.83.15-.3,1.65.67.12.22-1.21.73.14-.22,1.2.66.12Z"/>
              <path d="M1.07,24l.81-2.33a1.44,1.44,0,0,1,.64-.85,1,1,0,0,1,.89-.08,1,1,0,0,1,.61.76,3.38,3.38,0,0,1,2-.18l-.54,1.55a3,3,0,0,0-1.07-.15c-.25,0-.45.26-.6.68l1.33.46L4.65,25.2Zm1.22-1.13.69.24.08-.24c.14-.42.07-.56-.16-.64a.42.42,0,0,0-.27,0,.59.59,0,0,0-.24.35Z"/>
              <path d="M8.86,16.16,8,17.33,5.75,14l1.44-1.9L11,13.34l-.88,1.16-.65-.21-1,1.31ZM8,14.81,8.58,14l-1.5-.48Z"/>
              <path d="M23.66,5.18l-1.41.4.23-4L24.77.93l2.3,3.28-1.41.4-.38-.56L23.7,4.5Zm.09-1.62,1-.28L23.83,2Z"/>
              <path d="M16.31,8.81a1.88,1.88,0,0,1-1.49,0,2,2,0,0,1-1-2.58,2,2,0,0,1,2.55-1,1.85,1.85,0,0,1,1,1.08,1.84,1.84,0,0,1,0,1.49A1.84,1.84,0,0,1,16.31,8.81Zm-1-2.51a.58.58,0,0,0-.33.34.64.64,0,0,0,0,.49.65.65,0,0,0,.33.36.52.52,0,0,0,.47,0,.57.57,0,0,0,.35-.33.73.73,0,0,0-.35-.86A.61.61,0,0,0,15.3,6.3Z"/>
              <path d="M37.71,4.42a1.89,1.89,0,0,1-1.19-.89,1.91,1.91,0,0,1-.21-1.48A1.89,1.89,0,0,1,37.2.84a2,2,0,0,1,2.67.68A1.93,1.93,0,0,1,40.07,3a1.91,1.91,0,0,1-.88,1.21A1.87,1.87,0,0,1,37.71,4.42Zm.67-2.63a.63.63,0,0,0-.75.48.63.63,0,0,0,0,.49.59.59,0,0,0,.38.29A.6.6,0,0,0,38.53,3a.64.64,0,0,0,.28-.41.6.6,0,0,0-.06-.49A.57.57,0,0,0,38.38,1.79Z"/>
              <path d="M49,9.12A1.9,1.9,0,0,1,48,8a1.88,1.88,0,0,1,.19-1.48,1.87,1.87,0,0,1,1.16-.94,2,2,0,0,1,2.4,1.33,1.87,1.87,0,0,1-.18,1.48,1.87,1.87,0,0,1-1.16.94A1.83,1.83,0,0,1,49,9.12Zm1.31-2.37a.6.6,0,0,0-.47,0,.7.7,0,0,0-.45.81.57.57,0,0,0,.29.37.55.55,0,0,0,.48,0,.58.58,0,0,0,.37-.32.64.64,0,0,0,.08-.48A.6.6,0,0,0,50.27,6.75Z"/>
              <path d="M55.65,15.75a1.86,1.86,0,0,1-.55-1.39A2,2,0,0,1,58.46,13,1.85,1.85,0,0,1,59,14.42a2,2,0,0,1-3.35,1.33Zm1.94-1.88a.58.58,0,0,0-.44-.19.62.62,0,0,0-.45.2.68.68,0,0,0-.21.44.59.59,0,0,0,.17.45.61.61,0,0,0,.44.19.69.69,0,0,0,.45-.2.63.63,0,0,0,.21-.45A.57.57,0,0,0,57.59,13.87Z"/>
              <path d="M61,31.32a1.87,1.87,0,0,1,.33-1.45,1.93,1.93,0,0,1,1.28-.78,1.87,1.87,0,0,1,1.45.33,1.82,1.82,0,0,1,.79,1.26,1.87,1.87,0,0,1-.33,1.45,1.94,1.94,0,0,1-1.27.79,2,2,0,0,1-1.47-.33A1.9,1.9,0,0,1,61,31.32Zm2.66-.45a.54.54,0,0,0-.25-.4.66.66,0,0,0-.48-.09.64.64,0,0,0-.43.24.6.6,0,0,0-.11.47.57.57,0,0,0,.25.4.69.69,0,0,0,.49.1.65.65,0,0,0,.42-.25A.56.56,0,0,0,63.63,30.87Z"/>
              <path d="M27.38,4.12,26.9.37,28.35.18,28.72,3l1.65-.21.12.94Z"/>
              <path d="M42.58,1.65l-.41,1.19a1.18,1.18,0,0,0,1,0A1.58,1.58,0,0,0,43.7,2l1.51.53a3,3,0,0,1-.54,1,2.1,2.1,0,0,1-.91.48,2.52,2.52,0,0,1,.32,2.11l-1.62-.56c.3-.92,0-1.43-.66-1.69l-.46,1.3L40,4.74,41.2,1.16Z"/>
              <path d="M46.42,7.48l-1.29-.69.78-1.46-.33-2.59,1.32.7L47,4.87l1.24-.73,1.31.7L47.2,6Z"/>
              <path d="M57.84,19.25,57.12,18l1.45-.8,1.14-2.35.72,1.3-.71,1.25,1.44.06.72,1.31-2.6-.29Z"/>
              <path d="M63.41,23.36H62.35a1.82,1.82,0,0,0,.1-1.08c0-.1-.06-.28-.25-.29s-.35.05-.3.76a2.9,2.9,0,0,1-.07.73.88.88,0,0,1-.23.45,1,1,0,0,1-.44.28,1.05,1.05,0,0,1-1-.13,2.37,2.37,0,0,1-.75-1.17,4.94,4.94,0,0,1-.31-1.77h1.15a7,7,0,0,0-.17.78c-.08.38.07.57.21.6s.37,0,.37-.68a4.15,4.15,0,0,1,0-.55,1.06,1.06,0,0,1,.66-.75,1.08,1.08,0,0,1,1,.12,2.17,2.17,0,0,1,.77,1.12A4.53,4.53,0,0,1,63.41,23.36Z"/>
              <path d="M60.92,35.08,61.05,34,65,33.08l-.17,1.41L63,34.93l1.67.87-.09.74L62.74,37l1.67.82-.17,1.42-3.61-1.72.13-1.11,1.78-.5Z"/>
              <path d="M3.81,32.38l.09,1.27-1.44,1.2,1.5-.1.09,1.35-3.81.25L.17,35.19,1.68,33.9.09,34,0,32.63Z"/>
              <path d="M60.38,26.41l-.28-1.55,3.74-.68.28,1.55L62.75,26l.2,1.09,1.37-.25.26,1.45L60.84,29l-.27-1.45L62,27.25l-.2-1.09Z"/>
              <path d="M7.86,17.64l-.58,1.13-1.85.3,1.33.68L6.15,21,2.76,19.21l.53-1,2-.33-1.42-.73.63-1.23Z"/>
              <path d="M21.94,5.71l-1.15.54-1.64-.9.64,1.36-1.22.58L16.94,3.84l1-.49,1.76.93-.69-1.44,1.25-.59Z"/>
            </g>
            <g>
              <path d="M11.22,54.68l-.93-.77a.65.65,0,0,1-1-.07l-.74.89C9.71,55.76,10.55,55.55,11.22,54.68Z"/>
              <path d="M10,53.19l1.67,1.38L10.32,56.2l1.48,1.22,1.35-1.62,1.67,1.38,1.78-2.13-4.82-4ZM12.23,53l2.41,2-.27.33-2.41-2Z"/>
              <polygon points="15.79 52.44 15.98 52.21 14.68 51.13 14.48 51.36 12.64 49.82 11.93 50.67 16.93 54.82 17.64 53.97 15.79 52.44"/>
              <path d="M14.06,57l-.93-.77c-.74.82-.79,1.69.43,2.62L14.3,58A.66.66,0,0,1,14.06,57Z"/>
            </g>
          </g>
        </g>
        <g>
          <path d="M23.36,65.52v1.26h2.56c.17,0,.29,0,.29.21s-.1.2-.29.2H23.59V70h3.84V68.68H25v-.34h.78c1.62,0,1.91-.64,1.91-1.38,0-1.09-.61-1.44-1.77-1.44Z"/>
          <path d="M32.93,65.52v1.26H35.5c.16,0,.28,0,.28.21s-.1.2-.28.2H33.16V70H37V68.68H34.6v-.34h.78c1.63,0,1.91-.64,1.91-1.38,0-1.09-.6-1.44-1.77-1.44Z"/>
          <path d="M37.9,65.52v1.26h.85a.4.4,0,0,1,.45.41V70h1.56V67.19c0-1.43-.76-1.67-1.7-1.67Z"/>
          <path d="M29.83,65.52a1.72,1.72,0,0,0-1.73,1.53v1.43A1.72,1.72,0,0,0,29.83,70h.93a1.72,1.72,0,0,0,1.73-1.52V67.05a1.72,1.72,0,0,0-1.73-1.53Zm-.26,2.77V67.22c0-.18.17-.44.38-.44h.69c.21,0,.38.26.38.44v1.07a.45.45,0,0,1-.38.45H30A.44.44,0,0,1,29.57,68.29Z"/>
        </g>
      </g>
    </g>
  </g>
</svg>
