<svg xmlns="http://www.w3.org/2000/svg" width="587.61" height="54.97" viewBox="0 0 587.61 54.97"><defs><style>.cls-1{fill:#fff;}.cls-2{fill:#ffa000;}</style></defs><g id="レイヤー_2" data-name="レイヤー 2"><g id="object"><path class="cls-1" d="M575.93,18.2c-.86-1.48-2.26-1.48-3.12,0L561.5,37.79c-.86,1.49-.16,2.71,1.56,2.71h22.62c1.72,0,2.42-1.22,1.56-2.71Z"/><path class="cls-2" d="M573.36,31.51l-.29-4.39c-.05-.85-.08-1.46-.08-1.84a1.64,1.64,0,0,1,.4-1.18,1.33,1.33,0,0,1,1-.43,1.06,1.06,0,0,1,1.06.55,3.78,3.78,0,0,1,.26,1.57c0,.4,0,.81-.06,1.22l-.39,4.52a3.67,3.67,0,0,1-.28,1.23.71.71,0,0,1-.7.43.69.69,0,0,1-.68-.41A4.23,4.23,0,0,1,573.36,31.51Zm1,6a1.47,1.47,0,0,1-1-.36,1.29,1.29,0,0,1-.41-1,1.31,1.31,0,0,1,.4-1,1.33,1.33,0,0,1,1-.39,1.39,1.39,0,0,1,1,.39,1.31,1.31,0,0,1,.4,1,1.27,1.27,0,0,1-.41,1A1.4,1.4,0,0,1,574.38,37.53Z"/><path class="cls-1" d="M14.8,18.2c-.86-1.48-2.27-1.48-3.12,0L.37,37.79C-.49,39.28.21,40.5,1.93,40.5H24.55c1.72,0,2.42-1.22,1.56-2.71Z"/><path class="cls-2" d="M12.23,31.51l-.29-4.39c-.06-.85-.08-1.46-.08-1.84a1.68,1.68,0,0,1,.39-1.18,1.37,1.37,0,0,1,1.05-.43,1,1,0,0,1,1,.55,3.6,3.6,0,0,1,.27,1.57c0,.4,0,.81-.06,1.22l-.4,4.52a3.46,3.46,0,0,1-.27,1.23.71.71,0,0,1-.7.43.67.67,0,0,1-.68-.41A4.23,4.23,0,0,1,12.23,31.51Zm1,6a1.45,1.45,0,0,1-1-.36,1.26,1.26,0,0,1-.41-1,1.33,1.33,0,0,1,1.37-1.36,1.37,1.37,0,0,1,1,.39,1.32,1.32,0,0,1,.41,1,1.3,1.3,0,0,1-.41,1A1.43,1.43,0,0,1,13.25,37.53Z"/><path class="cls-1" d="M99.57,1.66V4.15H91.65v.77h6.29V7.25H91.65V8h9.2v2.54H78.91V8h9V7.25H81.6V4.92h6.31V4.15h-8V1.66h8V.31l3.67.12c.19,0,.39.1.39.31a1,1,0,0,1-.32.46v.46ZM85.27,19v3.48H81.76V11.33h16V20.4c0,.79,0,2.11-3.31,2.11a7.81,7.81,0,0,1-1.17-.07,6.49,6.49,0,0,0-.87-2.73A10.56,10.56,0,0,0,94,19.9c.39,0,.41-.17.39-.87Zm9.1-4.82v-.79h-9.1v.79Zm0,2.83V16.2h-9.1V17Z"/><path class="cls-1" d="M103.8,7.2a24,24,0,0,1,3.79,2.86,9.54,9.54,0,0,0-1.87,2.47,25.73,25.73,0,0,0-3.82-2.86ZM102,20.67a27.42,27.42,0,0,0,3.84-7,19.07,19.07,0,0,0,2.52,1.9,42.43,42.43,0,0,1-2.95,6.14,1.41,1.41,0,0,1,.12.48c0,.15-.1.41-.31.41a.92.92,0,0,1-.48-.17ZM104.64.41a14.31,14.31,0,0,1,3.43,2.69,14.25,14.25,0,0,0-1.8,2.54,13.26,13.26,0,0,0-3.34-2.57ZM124.82,11v2.76h-1.34c0,.33,0,1.8-.07,2.09h1.27v2.85h-1.49c-.48,3.36-2.28,3.65-5.06,4a7.06,7.06,0,0,0-1.54-2.83c2.69,0,3,0,3.31-1.18h-7.1c-.15.58-.27,1-.43,1.51a12.34,12.34,0,0,0-1.76-.45c-1.22-.17-1.37-.19-1.61-.24a19.6,19.6,0,0,0,1.37-5.76h-1.72V11h1.87V6.82c-.31.33-.48.5-.72.74A16.87,16.87,0,0,0,107,6a15.92,15.92,0,0,0,4.11-6l3.05.72c.24.05.43.17.43.36s-.34.43-.6.46a3.61,3.61,0,0,1-.22.45h11V4.83h-12.6c-.48.67-.7.93-.94,1.24h12.34V11Zm-9.91,4.85a19.77,19.77,0,0,0,.31-2.09h-1.68c-.07.91-.09,1.15-.21,2.09Zm.5-4.85c0-.53.08-1,.1-1.92h-1.82v1.2a5.86,5.86,0,0,1,0,.72Zm4.78,4.85c0-.17,0-1.83,0-2.09h-1.87c-.08,1.2-.17,1.94-.2,2.09Zm0-4.85V9.1h-1.68c0,1.36,0,1.53,0,1.92Z"/><path class="cls-1" d="M148.22,16c.17.12.22.22.22.34s-.24.28-.58.28a19,19,0,0,1-2,1.83A10.79,10.79,0,0,0,149,19.73a8,8,0,0,0-2,2.81,15,15,0,0,1-6-4.08,12.56,12.56,0,0,0-.29,2.3c-1.9.39-6.27,1.23-8.23,1.49-.1.19-.22.38-.44.38s-.31-.14-.36-.38L131,19.37c.48-.05,2.62-.38,3-.43V15.51h-2.5a20.45,20.45,0,0,1-2.14,6.62,8.91,8.91,0,0,0-3.07-1.37,14.52,14.52,0,0,0,1.78-4.89,36.57,36.57,0,0,0,.38-5.74V1h19.44V7.08H132v3.7c0,.24,0,1.39-.1,1.84h2.64V11.16h-2V8.62h2V7.18l3.1.16c.22,0,.91.12.91.44,0,.12-.12.36-.74.43v.41h3.09V7.18l3.15.19c.14,0,.89.09.89.38s-.2.36-.8.46v.41h3.84v2.54h-3.84v1.46h4.47v2.89h-1ZM132,3.48V4.54H144.5V3.48Zm5.47,14.93c.67-.12,2.5-.46,3-.58a15.78,15.78,0,0,1-1.61-2.32h-1.39Zm.34-5.79h3.09V11.16h-3.09Zm4.75,2.89a6.92,6.92,0,0,0,1,1.12,15.4,15.4,0,0,0,1.32-1.12Z"/><path class="cls-1" d="M158.69,12.48a.41.41,0,0,1,.33.39c0,.31-.33.38-.7.45a29.44,29.44,0,0,1-4.53,7.51,10.09,10.09,0,0,0-3.36-1.77,23.19,23.19,0,0,0,4.85-7.56Zm5.13,6.94c0,1.82,0,3.33-5.71,3.12a6.91,6.91,0,0,0-1.25-3.82c.55.07,1.9.22,2.33.22s.86-.22.86-1.23V10.32h-9.12V7H172.7v3.36h-8.88ZM170.47,1V4.49H153.12V1Zm-3.05,10.18a33.09,33.09,0,0,1,5.67,7.36,11.76,11.76,0,0,0-3.2,2.19,29.64,29.64,0,0,0-5.32-7.61Z"/><path class="cls-1" d="M184,14.81V13.49a28.39,28.39,0,0,0-2.28,2.18,15.4,15.4,0,0,1-.63-1.51v8.19h-3.33v-5.6a10.36,10.36,0,0,1-.87,1.56,16.12,16.12,0,0,0-2.76-2.06,23.39,23.39,0,0,0,3.34-8.33h-2.64V4.85h2.93V.5l3.33.17c.19,0,.51,0,.51.31s-.17.34-.51.53V4.85h2.14V2.62h5.18V.46l3.27.19c.19,0,.41,0,.41.24s-.2.36-.53.55V2.62h5.16V5.47h-5.16v1h4.65v8.31h-3.4a15.84,15.84,0,0,0,4.89,4.51,10.19,10.19,0,0,0-2.3,2.62,15.92,15.92,0,0,1-3.72-3.67v4.08h-3.27V17.74a21,21,0,0,1-4.56,4.13,17.89,17.89,0,0,0-2.47-2.45A17.2,17.2,0,0,0,187,14.81ZM181,8A23.92,23.92,0,0,0,184,13V6.5h4.41v-1h-5V7.92H181Zm7.44,1.71V8.64H187V9.7ZM187,11.52v1.06h1.49V11.52ZM193,9.7V8.64h-1.51V9.7Zm-1.51,1.82v1.06H193V11.52Z"/><path class="cls-1" d="M220.32,4.85c-5.93-.1-11.07,5.23-11.07,9.12,0,2.78,3.53,4.15,6.8,4.22a31.25,31.25,0,0,0-1.8,4.37c-1.95-.53-8.84-2.45-8.84-8.18,0-4.44,3.44-7.63,4.42-8.26a66.21,66.21,0,0,0-9.94,1.51l-.55-4.51A78.07,78.07,0,0,0,210,2.57,58.48,58.48,0,0,0,219.65.82Zm-4,3.41a14.59,14.59,0,0,1,2.24,2.57c-.68.48-1,.74-1.85,1.44a18.92,18.92,0,0,0-2.14-2.72Zm2.52-1.71A15,15,0,0,1,221,9.07c-.6.46-1,.82-1.75,1.49a17.52,17.52,0,0,0-2.14-2.71Z"/><path class="cls-1" d="M244.8,13.37v2.26h-1.2v4h-3.55v-.77h-4.42v1.54c0,1.22-.31,2.06-3.89,2.06-.48,0-1,0-1.27-.05a9,9,0,0,0-1.13-3,18.26,18.26,0,0,0,2,.2c.7,0,.7-.24.7-.75h-7.49v-2.4h7.49v-.81h-9.15V13.37h9.15V12.6h-7.49V10.49h7.49V9.82H226V4.94h6.1V4.27h-9.15V1.75h9.15V.43l3.72.15a.32.32,0,0,1,.36.31c0,.21-.15.26-.53.45v.41h9.07V4.27h-9.07v.67h6V9.82h-6v.67h8v2.88ZM232.08,7.8V6.87h-2.93V7.8Zm3.55-.93V7.8h2.9V6.87Zm4.42,6.5V12.6h-4.42v.77Zm0,3.07v-.81h-4.42v.81Z"/><path class="cls-1" d="M259.13,3.67A18.46,18.46,0,0,0,261.19.29l3.6.91c.17.05.34.12.34.29s-.34.38-.7.33c-.62,1-.86,1.4-1.2,1.85h5.5v3H246.84v-3h5.28a11.61,11.61,0,0,0-1.37-2L254,.17a16,16,0,0,1,1.94,3l-1.29.5Zm-7.71,13.54v5.18h-3.36V7.46h9.55V20c0,2-1,2.26-4.2,2.35a6.89,6.89,0,0,0-1.22-3.4c.36,0,1.08.12,1.44.12s.72-.05.72-.77V17.21Zm2.93-6.1v-1h-2.93v1Zm0,3.58V13.61h-2.93v1.08Zm8.18-6.84c.22,0,.36.07.36.24s-.14.26-.36.41v9.55h-3.45V7.71Zm5.07-.51c.21,0,.43,0,.43.27s-.26.31-.58.48V19.54a2.29,2.29,0,0,1-1,2.33c-.86.57-1.89.55-3.89.52a9,9,0,0,0-.79-3.6c.41.05,1.3.17,1.66.17.6,0,.6-.38.6-.67V7.18Z"/><path class="cls-1" d="M274.27,17.11V11.52a13.37,13.37,0,0,1-1.95,1.32A11.84,11.84,0,0,0,270,10.18,17.79,17.79,0,0,0,273,8.09a18.43,18.43,0,0,0-2-1.54l2.3-2.35a16.37,16.37,0,0,1,2.16,1.51,6.77,6.77,0,0,0,1.44-2h-4.44V.86h8.28L281.85,2a19.86,19.86,0,0,1-2.3,4.08h4.92a15.66,15.66,0,0,1-2.83-4.73L284.69.22a13.69,13.69,0,0,0,1,2A12.31,12.31,0,0,0,287.18.38L289.7,2c.1.05.27.17.27.29,0,.28-.41.31-.65.31a26.6,26.6,0,0,1-1.73,2,9.46,9.46,0,0,0,.65.69,28.35,28.35,0,0,0,2.18-2.59l2.23,1.51c.2.15.44.29.44.46s-.36.34-.72.36A19.22,19.22,0,0,1,290.3,7.2a16.4,16.4,0,0,0,3.39,2.23,11.57,11.57,0,0,0-2.21,2.86c-.36-.22-1.13-.75-2.21-1.58v6.4h-1.73c.17.08.27.17.27.34s-.24.38-.51.41a10,10,0,0,1-.5,1.32h5.88v2.9h-21.8v-2.9H277c-.09-.29-.45-1.23-.67-1.75l1.18-.32Zm3.57-8.9a26.68,26.68,0,0,1-1.94,1.94h12.67a23.09,23.09,0,0,1-2.49-2.25V9.15h-8.24Zm-.11,4.63v1.54h8.08V12.84ZM280,17.11a18.43,18.43,0,0,1,.67,1.83l-.86.24H283a17.37,17.37,0,0,0,.72-2.07Z"/><path class="cls-1" d="M303.26,9.17h-1.75v1.25h2.4v3.05h-2.4v3.26a14.47,14.47,0,0,0,.84-2.86l2.74.56c.14,0,.36.07.36.31s-.36.33-.7.36c-.1.36-.14.48-.48,1.49a28.37,28.37,0,0,0,4.78-1.71V11h-1.71A23.25,23.25,0,0,1,309,14a22,22,0,0,0-2.59,1.7,19.53,19.53,0,0,0-1.73-3.26L307.15,11h-2.74V8.11H312v-1H305.9V4.58H312V3.67h-7.22V.74h10.66V8.11h1.46V11H314l2.67,1.29a.42.42,0,0,1,.26.34c0,.24-.17.29-.62.36a22,22,0,0,1-1.95,2.85,17.94,17.94,0,0,0,3,2.43,11.6,11.6,0,0,0-2,3.05A20.75,20.75,0,0,1,312.19,18v2c0,2.38-1.56,2.38-4.42,2.38a10.81,10.81,0,0,0-1.22-3.24c-.24.12-.31.14-.65.29,0,.45-.07.86-.48.86a.41.41,0,0,1-.29-.26l-.86-3.46c-.27.72-.34.86-.5,1.22a9.88,9.88,0,0,0-2.26-.55v1.11c1.75-.34,2.26-.46,2.71-.58a9.8,9.8,0,0,0-.31,3c-3.05.67-5.52,1.08-7.85,1.42-.05.36-.12.67-.46.67s-.26-.19-.28-.36l-.56-3.31c1-.05,2.67-.24,3.56-.34v-1.1a15,15,0,0,0-2.52.86A22.92,22.92,0,0,0,294.57,15l2.71-.87a27.82,27.82,0,0,1,1,2.93V13.47h-3.15V10.42h3.15V9.17h-1.88V8.26a8.36,8.36,0,0,0-2.52-2.38A10.93,10.93,0,0,0,298.53.53l3.41.67c.27.05.36.12.36.26s-.26.41-.55.44a17.9,17.9,0,0,0,3.48,3.33,10,10,0,0,0-2,1.56Zm-1.42-2.81A11.73,11.73,0,0,1,300,4.2c-.55.74-.93,1.25-1.7,2.16Zm7.21,11.57c-.6.34-1.49.82-2.21,1.13.21,0,1.37.14,1.51.14.7,0,.7-.48.7-.77Zm3.14-5c.05.07.12.22.17.31A13.55,13.55,0,0,0,313.63,11h-1.44Z"/><path class="cls-1" d="M323.88,3.12V.62L327,.74c.34,0,.56,0,.56.32s-.27.36-.56.45V3.12h4.18V6.29H327V7.73h4.59v3.14H327v1h4.35v7c0,1.59-.43,2.23-3.41,2.26a6.59,6.59,0,0,0-.94-2.67v4h-3.16v-7.4h-1v6.27h-3.36V11.86h4.32v-1h-5.14V7.73h5.14V6.29h-2.4c-.17.33-.29.55-.51.91a11.88,11.88,0,0,0-2.9-1,14.47,14.47,0,0,0,1.85-5l3,.43c.24,0,.39.14.39.33s-.31.41-.6.48c-.07.27-.15.53-.19.7ZM327,17.91a3.48,3.48,0,0,0,.65.07c.56,0,.56-.34.56-.77V15.07H327Zm8.84-14.53c.36,0,.53.1.53.32s-.17.28-.53.48V17.35h-3.41V3.12ZM340.25.6c.16,0,.6.05.6.31s-.27.39-.6.58V19.35a2.82,2.82,0,0,1-1.2,2.66c-.7.36-1.06.38-3.65.53a7.27,7.27,0,0,0-1.35-3.39c.27,0,1.52.12,1.76.12.88,0,1-.19,1-.88V.46Z"/><path class="cls-1" d="M349,2.28c.45.17.65.24.65.41S349.2,3,349,3a27.83,27.83,0,0,0-1.56,9.91,8.35,8.35,0,0,0,.17,1.92c.14-.26.72-1.32,1-1.8a7.12,7.12,0,0,0,1.84,2,13.54,13.54,0,0,0-1.58,5.73l-3.41.92a25.25,25.25,0,0,1-1.7-9.6A45.75,45.75,0,0,1,345.33.89Zm6.34,11.28a6.34,6.34,0,0,0-.36,1.71c0,1.05.57,1.22,3.33,1.22a24.57,24.57,0,0,0,5.93-.65,16.07,16.07,0,0,0-.36,3.91,51,51,0,0,1-6.07.32c-3.58,0-6.34-.63-6.34-3.56a8.86,8.86,0,0,1,.79-3.52ZM352.46,3.31c.72,0,1.68.12,3.12.12a28.35,28.35,0,0,0,7.06-.76A36.26,36.26,0,0,0,363,6.31a35.8,35.8,0,0,1-7.39.72c-1.41,0-2.35-.07-3.12-.12Z"/><path class="cls-1" d="M388.51,4.71c-6.86-.08-10.94,6-10.94,9.07,0,4,5.42,4.27,6.69,4.34a21.34,21.34,0,0,0-1.8,4.32c-4.2-1-8.83-3.21-8.83-8.37,0-4.42,3.31-7.18,4.25-7.95A82.52,82.52,0,0,0,368,7.54L367.46,3c.53,0,1,.08,1.8.08,3.53,0,13.11-.68,18.55-2.38Z"/><path class="cls-1" d="M405.84,16.68v5.16h-3V16.68H401a9,9,0,0,1-3.67,5.67,7,7,0,0,0-2.69-1.78V22.3h-3.43V.94h10.06V9.29h-6.63V20.55c1.68-.94,2.83-1.85,3.31-3.87h-2.47V14h2.79c0-.43,0-1,0-1.42h-2.21V10.08h11.64V12.6h-1.89V14h2.4v2.66ZM398.06,3.31h-3.41V4.2h3.41Zm0,2.71h-3.41v.92h3.41Zm4.73,6.58H401.3c0,.29,0,1.2-.05,1.42h1.54Zm5.14,9.79a8.37,8.37,0,0,0-1.28-3.5,7.57,7.57,0,0,0,1.4.19c.45,0,1,0,1-.84V9.29h-6.68V.94h10.11V19.61C412.44,21.84,411.07,22.42,407.93,22.39ZM409,3.31h-3.46V4.2H409ZM409,6h-3.46v.92H409Z"/><path class="cls-1" d="M431.78,11.54v1h3.72V15h-3.72v1h3.72v2.42h-3.72v1h4.85V22h-11v.38h-3.38V14l-.65.65a8,8,0,0,0-1.15-1.7v9.4h-3.51V10.87l-.64.8a5.91,5.91,0,0,0-2.45-2.48,25.64,25.64,0,0,0,5-9.12l3.36,1.13V.82l3.41.12c.26,0,.36.14.36.33s-.19.36-.53.58v2.3h1.8v-4l3.58.22c.24,0,.36.14.36.31s-.36.41-.58.46v3h2V.94l3.55.21c.29,0,.43.1.43.27s-.29.4-.6.55v4.8h-5.54l1.68.91a.46.46,0,0,1,.26.39c0,.26-.34.35-.7.43-.09.17-.24.38-.38.6h5.14v2.44Zm-11.35-.43a21.84,21.84,0,0,0,3.26-4.34h-1.46V1.92c-.07,0-.14.07-.22.1-.4.88-.65,1.39-1.49,3,.36.19.46.24.46.41s-.38.43-.55.5Zm5.18.43v1h2.79v-1Zm0,3.44v1h2.79V15Zm2.79,4.41v-1h-2.79v1ZM427.53,9.1a24.69,24.69,0,0,0,1.35-2.33h-3l1.11.55c.19.1.33.19.33.39s-.26.36-.69.4c-.27.43-.36.58-.6,1Z"/><path class="cls-1" d="M447.28,1.39c.37.05.56.07.56.34s-.17.29-.46.41a53.14,53.14,0,0,0-.77,9.53c0,5.44.53,6.45,2.38,6.45,4.1,0,7.73-5.54,8.38-6.89a23.83,23.83,0,0,0,2.78,3.15c-2.74,4.44-6.82,7.77-11.67,7.77-5.32,0-5.76-4.51-5.76-10.51,0-1.39.24-7.46.24-8.69,0-.69,0-1.51,0-2.21Z"/><path class="cls-1" d="M476.21,1.2c.21.05.43.07.43.31s-.27.31-.43.34c-.1.93-.1,1.15-.12,1.41,1.1,0,4.82-.07,6.62.15V7A57.35,57.35,0,0,0,476,6.77V9.41a31.32,31.32,0,0,0,6.09-1.13v3.58a46.24,46.24,0,0,1-6,.79c0,1,0,1.13.05,2.14a23.74,23.74,0,0,1,8,3.16c-.77.75-1.2,1.28-2.67,3a19.57,19.57,0,0,0-5.13-3c0,1.25.21,4.08-5.05,4.08-3.71,0-6.43-1.7-6.43-3.89,0-2.73,3.43-3.91,7.44-3.84,0-.55,0-.55,0-1.41-2.38,0-6.72.12-6.72-2.26,0-.84.43-1.61,1.68-2.9l2.64.59c-.43.58-.51.65-.51.82s0,.67,2.81.55c0-.43,0-2.37,0-2.76-2.95.12-5.55.46-7.54.72V3.84c1.18-.12,6.43-.36,7.51-.43,0-.91,0-1.85-.09-2.95Zm-5,15.84c-.12,0-2.43,0-2.43,1,0,.79,1.32.86,1.73.86,1.18,0,1.9-.43,1.75-1.75A5,5,0,0,0,471.24,17Z"/><path class="cls-1" d="M500.35.84c.38.05.6.07.6.26s-.29.36-.48.41c-.05.43-.07.72-.12,1.68,6.77-.29,7.51-.31,8-.36,0,.51-.07,2.88,0,3.87-4.34-.22-6.17-.22-7.92-.2a21.12,21.12,0,0,0,0,2.67,7.82,7.82,0,0,1,1.4,4.61A11.33,11.33,0,0,1,496.27,23a16,16,0,0,0-3.51-2.47c.72-.29,3.56-1.49,4.42-3.46a2.65,2.65,0,0,1-1.9.58,3.21,3.21,0,0,1-2.59-1.08,6,6,0,0,1-1-3.55c0-5.28,4.51-5.11,5-5,0-.77,0-1,0-1.35a66,66,0,0,0-9.58,1.25l-.26-4.06c.55,0,1.46,0,9.75-.5a25,25,0,0,0-.34-3Zm-5.54,12c0,1.59.79,2,1.22,2,.74,0,1.17-1.11,1.17-2.31,0-.55-.12-1.48-1.08-1.48C495.33,11.07,494.81,11.86,494.81,12.84Z"/><path class="cls-1" d="M160.53,33.87a14.46,14.46,0,0,0,0,19.25L158.4,55a17.11,17.11,0,0,1,0-22.95Z"/><path class="cls-1" d="M183.79,35.36a5.43,5.43,0,0,1-.53.17,44.59,44.59,0,0,1-3.14,5.5h3.6V54.51H179.9v-.88H163.65V50.55H179.9V48.68H165.14V45.8H179.9V44H163.65V41h3.7a22.55,22.55,0,0,0-3.51-6.22l3.32-1.68a21.4,21.4,0,0,1,3.55,6.09A17.55,17.55,0,0,0,167.37,41h4.56V32.26l3.82.24c.31,0,.55,0,.55.32s-.21.33-.55.43V41h4.34a13.11,13.11,0,0,0-3.26-1.42,21.38,21.38,0,0,0,3.26-6.12l3.7,1.22A.33.33,0,0,1,184,35,.38.38,0,0,1,183.79,35.36Z"/><path class="cls-1" d="M193,52.14v1.32h-3.77V33.87h17.21V53.46h-3.77V52.14Zm9.67-10.92v-4H193v4Zm0,7.49V44.46H193v4.25Z"/><path class="cls-1" d="M217.17,46.09H215v-2.9H227.9l1.23,1.53a17.08,17.08,0,0,1-4.11,5c2.21.89,3.65,1.25,7.87,1.78a8.77,8.77,0,0,0-1.58,3c-3.89-.72-6-1.15-9.17-2.76a23,23,0,0,1-9.79,2.76,13.15,13.15,0,0,0-1.75-3.24,20.82,20.82,0,0,0,8.21-1.48,16.52,16.52,0,0,1-3-2.69Zm12.22-9.55a.29.29,0,0,1,.22.29c0,.23-.36.33-.72.38a22.11,22.11,0,0,1-1.25,2.13h5V45h-3.32V42h-14.9v3H211V39.34h3.43c-.41-.59-.86-1.2-1.32-1.75l2-1.22c-.91,0-1,0-1.3,0a12.35,12.35,0,0,0-1.63-3.45,51.61,51.61,0,0,0,6.34.4c2.83,0,6.77-.24,9.31-1.22l2.59,2.47a.35.35,0,0,1,.15.29.37.37,0,0,1-.36.41,5.45,5.45,0,0,1-.87-.29,12.29,12.29,0,0,1-2.37.58ZM220,36.3c-1.37,0-1.8,0-3.91.07a12.62,12.62,0,0,1,1.8,2.45l-.87.52h2.74a23.49,23.49,0,0,0-1.44-2.08Zm-.82,9.79A15.28,15.28,0,0,0,221.76,48a9.57,9.57,0,0,0,2-1.94Zm5-6.75A17.92,17.92,0,0,0,226,35.72c-.34.05-2.26.31-4.4.48a24,24,0,0,1,1.78,2.5l-1,.64Z"/><path class="cls-1" d="M241.05,54.51h-3.74V43.4a7,7,0,0,1-.84.94,10.35,10.35,0,0,0-2.64-2.52A22.19,22.19,0,0,0,239.42,32l3.29,1.2c.24.09.46.16.46.36s-.32.31-.63.36c-.93,2.2-1,2.37-1.7,3.81.38.1.72.2.72.46s-.22.38-.51.48Zm15.63-16.89V41.1h-2.26v10c0,2.76-.45,3.38-5.47,3.43a8.59,8.59,0,0,0-1.58-3.89,10.77,10.77,0,0,0,2.16.31c1.12,0,1.17-.31,1.17-1.12V41.1h-8.78V37.62h8.78V32.24l3.72.14c.29,0,.65,0,.65.32s-.29.36-.65.5v4.42ZM245.9,42.37a17.88,17.88,0,0,1,3.31,5.42,32.93,32.93,0,0,0-3.31,1.78A21.78,21.78,0,0,0,242.61,44Z"/><path class="cls-1" d="M265,34.3c.2.08.32.17.32.34s-.46.34-.67.36a33,33,0,0,0-1.45,9.24,17.27,17.27,0,0,0,.17,2.4c.31-.45.82-1.22,1.13-1.7a10,10,0,0,0,1.73,2.37,10.64,10.64,0,0,0-2,5.88l-3.22.6a33.63,33.63,0,0,1-1.3-9.67,43.47,43.47,0,0,1,1.44-11Zm11.41-.52c.12,0,.31,0,.31.26s-.34.36-.55.38a24.09,24.09,0,0,0-.24,2.88,21.25,21.25,0,0,0,3.55-.88V40c-.55.15-1.66.41-3.65.77a39.58,39.58,0,0,0,.38,5.52,13.3,13.3,0,0,1,4.56,2.47c-.38.7-1.1,2.26-1.63,3.39a8.37,8.37,0,0,0-2.57-1.83c-.09,3.07-3.16,3.43-4.68,3.43-3.6,0-5.4-2-5.4-4.2,0-2.85,2.84-3.93,6-3.86-.2-2.74-.22-3-.27-4.44-1.37.12-2.35.12-2.76.12-.77,0-1.27,0-1.77-.07V37.57a25.48,25.48,0,0,0,4.51.17c0-1,0-3.12,0-4.68Zm-5,14.88c-.53,0-1.68.17-1.68.91s.79.89,1.56.89c.19,0,1.63,0,1.63-1.18a.63.63,0,0,0-.05-.31A3.41,3.41,0,0,0,271.44,48.66Z"/><path class="cls-1" d="M288.45,34.81c.22.07.48.14.48.36s-.28.36-.5.38a21.37,21.37,0,0,0-1.35,7.23c0,2.93.92,5,1.61,5s1.68-2.12,2.33-3.63a11,11,0,0,0,2.52,2.55c-1.92,4.65-4.1,6.28-5.28,6.28-1.34,0-4.9-2.85-4.9-10.27a42.8,42.8,0,0,1,1.18-9Zm11.6.17a23.84,23.84,0,0,1,4.84,12.07c-1.41.55-3.12,1.37-3.91,1.78a21.87,21.87,0,0,0-4-11.89Z"/><path class="cls-1" d="M318.19,33.39c.22,0,.48.15.48.39s-.34.31-.53.31c-.09.38-.5,2.09-.6,2.42a15.42,15.42,0,0,0,4-1.17l.4,3.77a32.67,32.67,0,0,1-5.42,1.12,57.72,57.72,0,0,1-6.29,14,26.58,26.58,0,0,0-3.62-1.82,39.07,39.07,0,0,0,5.92-11.64c-1.46.12-1.75.12-4.39.14L307.82,37c.72,0,1.56.09,2.78.09s1.8,0,2.86-.09c.34-1.8.5-3.36.65-4.54ZM320,47.84a2.38,2.38,0,0,0-.65,1.42.65.65,0,0,0,.43.62,8.8,8.8,0,0,0,3.22.41,17.41,17.41,0,0,0,5.28-.79,10.43,10.43,0,0,0-.17,1.87,16.61,16.61,0,0,0,.15,2,29,29,0,0,1-5,.41c-3.15,0-7.32-.46-7.32-3.86a6.5,6.5,0,0,1,.93-3.15Zm-1.13-6.79a30.92,30.92,0,0,1,5.31-.43,17.77,17.77,0,0,1,3.52.26c-.14,1.78-.16,2.16-.19,3.77a14,14,0,0,0-3.6-.43,43.42,43.42,0,0,0-5,.43Z"/><path class="cls-1" d="M339.29,33.39c.36,0,.55.07.55.34s-.17.29-.46.41a53.14,53.14,0,0,0-.77,9.53c0,5.44.53,6.45,2.38,6.45,4.1,0,7.73-5.54,8.38-6.89a23.83,23.83,0,0,0,2.78,3.15c-2.74,4.44-6.82,7.77-11.66,7.77-5.33,0-5.77-4.51-5.77-10.51,0-1.39.24-7.46.24-8.69,0-.69,0-1.51,0-2.21Z"/><path class="cls-1" d="M368.21,33.2c.21,0,.43.07.43.31s-.27.31-.43.34c-.1.93-.1,1.15-.12,1.41,1.1,0,4.82-.07,6.62.15V39a57.35,57.35,0,0,0-6.74-.22v2.64a31.32,31.32,0,0,0,6.09-1.13v3.58a46.24,46.24,0,0,1-6,.79c0,1,0,1.13.05,2.14a23.74,23.74,0,0,1,8,3.16c-.77.75-1.2,1.28-2.67,3a19.57,19.57,0,0,0-5.13-3c0,1.25.21,4.08-5,4.08-3.72,0-6.44-1.7-6.44-3.89,0-2.73,3.43-3.91,7.44-3.84,0-.55,0-.55,0-1.41-2.38,0-6.72.12-6.72-2.26,0-.84.43-1.61,1.68-2.9l2.64.59c-.43.58-.51.65-.51.82s0,.67,2.81.55c0-.43,0-2.37,0-2.76-2.95.12-5.55.46-7.54.72V35.84c1.18-.12,6.43-.36,7.52-.43,0-.91,0-1.85-.1-2.95Zm-5,15.84c-.12,0-2.43,0-2.43,1,0,.79,1.32.86,1.73.86,1.18,0,1.9-.43,1.75-1.75A5,5,0,0,0,363.24,49Z"/><path class="cls-1" d="M395.85,33.27c.34,0,.56.07.56.34s-.29.33-.48.38c0,.12.07,3.53.09,3.87,3-.44,3.77-.51,4.61-.58v4c-.38,0-.79-.07-1.39-.07-1.13,0-2.23.12-3.19.21,0,6.44-1.06,6.68-5.6,6.68a21.09,21.09,0,0,0-.93-3.55,9,9,0,0,0,1.34.11c1.35,0,1.44-.33,1.59-2.73-.77.12-4.13.69-4.83.82,0,.74-.05,1.46-.05,2.18,0,3.82.2,4.06.65,4.49s1.25.67,2.91.67a35.77,35.77,0,0,0,8.06-1,18.46,18.46,0,0,0-.46,3.91,65.35,65.35,0,0,1-8.28.65c-1.39,0-5.13,0-6-3.31-.36-1.37-.34-3.27-.29-6.82-2.88.72-3.72.94-4.66,1.2l-.28-4.2A30.83,30.83,0,0,0,384,39.8a51.29,51.29,0,0,0-.31-5.52l4.15.46c.36,0,.65.07.65.38s-.26.34-.43.36c-.05.6-.22,3.14-.27,3.67.72-.12,3-.48,4.54-.74a29,29,0,0,0-.58-5.69Z"/><path class="cls-1" d="M415.56,33.9c.21.09.38.21.38.43s-.36.29-.57.24c-.89,1.56-2,3.74-3.29,6.26-.24.46-.34.6-.53.92a9,9,0,0,1,2.23-.32c1.49,0,3.51.58,3.51,3.08a10.76,10.76,0,0,1-.22,2,11.53,11.53,0,0,0-.29,2.35c0,.63.17,1.2.91,1.2s3.46-1.51,5.16-3.93a27.29,27.29,0,0,0,2.52,3,18,18,0,0,1-4.08,3.48,9.56,9.56,0,0,1-4.58,1.41c-2.23,0-3.84-1.27-3.84-3.65,0-.72.41-3.88.41-4.53,0-.87-.48-1.15-1-1.15-2.59,0-5.47,7.41-5.85,8.85L402.52,52c1.54-2.57,5-9.77,5.76-11.35,1.52-3.27,2.48-5.64,3.61-8.55Z"/><path class="cls-1" d="M429.21,32a17.11,17.11,0,0,1,0,22.95l-2.11-1.85a14.46,14.46,0,0,0,0-19.25Z"/></g></g></svg>