<svg xmlns="http://www.w3.org/2000/svg" viewBox="0 0 143.24 33.44"><defs><style>.b9f25e45-0a5d-49dd-904a-7bd063db2ade{fill:#ff9600;}</style></defs><title>ttl_bnr_save</title><g id="eb33570b-7ed5-49ed-adbe-3f324a047ad5" data-name="レイヤー 2"><g id="a12202ec-0e78-492e-9e11-5c86c5f6df6d" data-name="バナーダウンロード"><path class="b9f25e45-0a5d-49dd-904a-7bd063db2ade" d="M25.56,33.44h-5.4V25.52a34.88,34.88,0,0,1-6.88,6.55,11.18,11.18,0,0,0-3.67-3.56v4.93H4.18V16.67a8.16,8.16,0,0,1-1,1.11A11.94,11.94,0,0,0,0,13.43,49.14,49.14,0,0,0,7.09,0L12,1.87a.78.78,0,0,1,.58.72c0,.36-.54.51-.87.51-.5,1.18-.72,1.62-2.52,5.25l.58.22c.21.07.61.25.61.68,0,.25-.36.47-.72.61V28.15a23.64,23.64,0,0,0,7-6.8h-5.9v-4.9h9.43V13.86H13.28V1.12H32.47V13.86H26.35c0,.29-.22.47-.79.72v1.87H34.2v4.9H27.82A32.27,32.27,0,0,0,35.53,28,14.35,14.35,0,0,0,32,32a33.79,33.79,0,0,1-6.4-5.75Zm-6.73-28V9.36h8V5.47Z"/><path class="b9f25e45-0a5d-49dd-904a-7bd063db2ade" d="M70,4.25V8.89H51.59a30.11,30.11,0,0,1-3.75,5.9v18.4H42.73V19.87c-1.44,1-2,1.4-2.73,1.84a15.75,15.75,0,0,0-3.82-3.78,26.49,26.49,0,0,0,6.55-4.72V10.83l1.8.37A14.47,14.47,0,0,0,46,8.89H38V4.25h9.82a17.79,17.79,0,0,0,.83-4l5.62.72c.21,0,.68.14.68.54s-.47.61-1.12.86c-.28,1.08-.39,1.4-.54,1.91Zm0,14.47v4.57H62.89v6.19c0,3.1-2.41,3.53-7.34,3.6a12.32,12.32,0,0,0-1.84-5.4,19.62,19.62,0,0,0,2.95.32c.33,0,1.05,0,1.05-1.08V23.29H49.17V18.72h8.54V15.87l.68.08a5.45,5.45,0,0,0,1-1H50.94V10.4H67l2.09,2.2a57.55,57.55,0,0,1-6.19,5.33v.79Z"/><path class="b9f25e45-0a5d-49dd-904a-7bd063db2ade" d="M106.45,5.18v5.15H90.93c0,1.33-.14,2.27-.21,3h11.37c0,12.17-.68,15.48-3.24,18-1.83,1.84-5.76,2-7.09,2a9.17,9.17,0,0,0-2.66-5.65c1,.15,3.42.54,3.78.54a2.66,2.66,0,0,0,2.88-2.09,25,25,0,0,0,1-7.84h-7a24.29,24.29,0,0,1-13,15.11c-.87-1.36-2.67-3.34-4.43-3.88,6.41-2,13.1-7.24,13.1-19.19H73.55V5.18H87.08v-5l5.76.32c.22,0,.65.11.65.5s-.4.54-.65.65V5.18Z"/><path class="b9f25e45-0a5d-49dd-904a-7bd063db2ade" d="M111.42,9.14a45.1,45.1,0,0,1,5.72,4.47,18.48,18.48,0,0,0-2.91,3.7,47.93,47.93,0,0,0-5.73-4.39ZM108.54,30c1.8-2.12,4.36-7.27,5.58-11.12a11.52,11.52,0,0,0,4.17,2.59,55.82,55.82,0,0,1-4.64,10.73,1,1,0,0,1,.11.47.51.51,0,0,1-.5.47,1.4,1.4,0,0,1-.69-.26ZM113.83.22a25.09,25.09,0,0,1,5.58,4.68C117.72,6.73,117.54,7,116,8.78a31.9,31.9,0,0,0-5.47-5ZM135.9,19.37a45.6,45.6,0,0,1,7.34,11,18.28,18.28,0,0,0-4.54,2.81c-.75-1.55-1.15-2.34-1.83-3.56A103.41,103.41,0,0,1,121,32c-.15.32-.33.72-.76.72s-.5-.43-.61-.86l-1.15-4.94c1.65,0,2.73,0,4-.1a60.88,60.88,0,0,0,3.46-8h-7.49V14.15h9.25v-4h-7.42V5.51h7.42V.25l5.58.11c.57,0,1,.07,1,.5s-.36.51-1.05.76V5.51h8v4.64h-8v4h9.4v4.71h-9.58a.29.29,0,0,1,.08.25c0,.51-1,.72-1.52.8-.72,1.69-1.58,3.38-3.16,6.47a48.42,48.42,0,0,0,5.93-.86A16.75,16.75,0,0,0,131.76,22Z"/></g></g></svg>