<svg xmlns="http://www.w3.org/2000/svg" viewBox="0 0 630 54.85"><defs><style>.fc5ed98d-bfda-4eec-80f1-2595d5b1d5eb{fill:#ffa000;}</style></defs><title>ttl_bnr</title><g id="edcc6418-23d7-46aa-a20e-0cbe9b9519b6" data-name="レイヤー 2"><g id="a2175e7f-0dcb-4148-a212-e96c337ad4c8" data-name="object"><rect class="fc5ed98d-bfda-4eec-80f1-2595d5b1d5eb" y="49.85" width="630" height="5"/><path class="fc5ed98d-bfda-4eec-80f1-2595d5b1d5eb" d="M15.73,6.73c.32.07.72.18.72.54s-.5.54-.76.54c-2.88,13.07-6.3,18.54-10.07,23A28.76,28.76,0,0,0,.18,28.26c5.65-6.34,8.64-14.51,9.65-23Zm8.6-2.23c2.45,3.17,8.35,12.2,10.59,22a38.16,38.16,0,0,0-5.66,3.13A52.11,52.11,0,0,0,19.65,7.85Zm4.36-1.22a25.49,25.49,0,0,1,3.6,4.14c-.9.72-1.77,1.47-2.67,2.3A33.88,33.88,0,0,0,26,5.47Zm3.6-2.6a24.52,24.52,0,0,1,3.6,4A18.81,18.81,0,0,0,33.33,6.8,30.37,30.37,0,0,0,29.8,2.74Z"/><path class="fc5ed98d-bfda-4eec-80f1-2595d5b1d5eb" d="M56,1.87l6.08.22c.33,0,.76,0,.76.43s-.58.61-.76.68V9.61h11.3V15H62c-.36,6.09-2.6,14-12.64,19.08a20.58,20.58,0,0,0-4.57-4.35C55.33,25.13,55.69,18.9,55.94,15H42.08V9.61H56Z"/><path class="fc5ed98d-bfda-4eec-80f1-2595d5b1d5eb" d="M112.86,14.83V21H81.58V14.83Z"/><path class="fc5ed98d-bfda-4eec-80f1-2595d5b1d5eb" d="M134.64,13.93a49.87,49.87,0,0,1,5.65,3.31A38,38,0,0,0,142.92,12h-8.68A59.18,59.18,0,0,1,126.93,20a29,29,0,0,0-4.57-3.74A37.55,37.55,0,0,0,134.13,1.15L139.79,3c.54.18.61.29.61.47,0,.36-.36.46-.87.54-.83,1.44-1.29,2.16-1.83,3h8a6.74,6.74,0,0,0,2.45-.4l2.55,2.27a9.9,9.9,0,0,0-.57,1.12,80.5,80.5,0,0,1-5.37,10.8c1.77,1.69,2.45,2.48,3.21,3.31-1.66,2.12-1.77,2.26-3.53,4.78a29.54,29.54,0,0,0-3.13-3.63A36.82,36.82,0,0,1,128,34a22.71,22.71,0,0,0-3.7-4.82c7.05-2.34,10.51-4.9,12.81-7.53a37.58,37.58,0,0,0-5.9-3.78ZM145.26,0a35.41,35.41,0,0,1,3.09,3.85A19.22,19.22,0,0,0,145.26,6a45.31,45.31,0,0,0-3-3.78Zm5.86,0a32.1,32.1,0,0,1,3.24,4,12.75,12.75,0,0,1-1.44,1c-.32.22-.75.5-1.58,1.12-1.48-2.09-2.27-3.06-3.17-4.14Z"/><path class="fc5ed98d-bfda-4eec-80f1-2595d5b1d5eb" d="M185.76,7.2a6.46,6.46,0,0,0,2.66-.36L192,9.47c-.21.86-1.18,4.71-1.4,5.5-1.84,6.3-3.92,11-8.53,15.37a19.73,19.73,0,0,1-6.41,4.29,18.69,18.69,0,0,0-4.57-4.21,21.8,21.8,0,0,0,9.79-7.35,29.08,29.08,0,0,0,4.36-10.76H168V20h-5.9V7.2h11.26V1.73l6.16.25c.29,0,.79,0,.79.36s-.54.61-.79.68V7.2Z"/><path class="fc5ed98d-bfda-4eec-80f1-2595d5b1d5eb" d="M205.23,2.41c6.05,3.1,7.92,4.9,9,5.9-.86,1-1.11,1.44-3.49,4.9a37.13,37.13,0,0,0-9.07-5.76Zm-2.95,24.87c10.26-2.12,20.38-9.07,26.78-19.36a22.76,22.76,0,0,0,3.71,4.89,47.58,47.58,0,0,1-11.19,12,60.08,60.08,0,0,1-14.83,8c0,.39-.18.79-.51.79s-.36-.11-.57-.5Z"/><path class="fc5ed98d-bfda-4eec-80f1-2595d5b1d5eb" d="M247.82,29.52v1.83h-6V5.69h27.64V31.35h-6V29.52Zm15.63-5.33V11.05H247.82V24.19Z"/><path class="fc5ed98d-bfda-4eec-80f1-2595d5b1d5eb" d="M310.86,14.83V21H279.58V14.83Z"/><path class="fc5ed98d-bfda-4eec-80f1-2595d5b1d5eb" d="M335.7,11.34a58.79,58.79,0,0,1,12.45,8.46A56.82,56.82,0,0,0,344.62,25a43.69,43.69,0,0,0-11.08-8.28V33.8h-6.16V2l6.16.22c.18,0,.65,0,.65.46s-.4.54-.65.62V14.4Zm8-6.37a34.46,34.46,0,0,1,3.68,3.67c-.83.68-2.16,1.76-3,2.45a24,24,0,0,0-3.52-3.82Zm3.86-2.81a22.89,22.89,0,0,1,3.67,3.64c-.47.36-2.34,1.94-2.7,2.23a40.08,40.08,0,0,0-3.75-3.78Z"/></g></g></svg>