<svg xmlns="http://www.w3.org/2000/svg" viewBox="0 0 152.06 33.58"><defs><style>.b0021c53-6880-4b23-a88f-8c97436f04dc{fill:#ffa000;}</style></defs><title>ttl_news</title><g id="a4ff17cd-7e2e-4caa-8857-c90d6a898b3f" data-name="レイヤー 2"><g id="e555882b-6480-4f5a-9023-085d6a59067f" data-name="編集モード"><path class="b0021c53-6880-4b23-a88f-8c97436f04dc" d="M15.66,1.12c.47.07.75.14.75.46s-.39.51-.61.58c-.11,1.08-.18,2.34-.25,3.82a26.84,26.84,0,0,0,5.65-1.8c0,1.33-.07,3-.07,3.81a15.78,15.78,0,0,0,.07,1.94,26.37,26.37,0,0,1-5.9,1.62c0,.4-.07,2.13-.07,2.45a18.18,18.18,0,0,1,6.12-1.08c5.43,0,10,3.78,10,9.76,0,6.69-5,9-8.53,9-5.44,0-5.62-4.82-5.66-6.34.76-.25,4-1.33,4.47-1.51,0,.72,0,2.41,1.69,2.41,1.37,0,2.27-1.36,2.27-3.16a4.53,4.53,0,0,0-4.79-4.75,16.64,16.64,0,0,0-5.58,1.26,104.83,104.83,0,0,0,.47,10.83l-4.93,2.23a49.5,49.5,0,0,0-6.3-5.15c-.9,1-1.33,1.48-1.84,2.09L0,23.36c1.66-.9,8.21-5.87,9.65-6.77,0-1.26,0-1.54,0-4.32-2.12.11-4.64.15-6.69.15V6.69a14.88,14.88,0,0,0,2.84.22c1.4,0,3.42-.14,3.85-.14,0-2.7,0-3.1-.14-6.7ZM7.6,24.33a3.85,3.85,0,0,0,1.61.94c.54,0,.51-1.26.47-2.63C9.25,23,8.5,23.54,7.6,24.33ZM26.38,5.18a30.68,30.68,0,0,1,7.85,5.76,25.32,25.32,0,0,0-3.49,4.36,20.86,20.86,0,0,0-7.63-5.65Z"/><path class="b0021c53-6880-4b23-a88f-8c97436f04dc" d="M52.38,14.22h5v4.93H52.63a17.55,17.55,0,0,0,5.47,7.13,37.43,37.43,0,0,0-3.31,4.28,15.58,15.58,0,0,1-4.46-5.36,21,21,0,0,1-6.59,8.38A15.07,15.07,0,0,0,39.56,30C43.92,26.6,46,24,46.94,19.15H40.39V14.22h7.13a5,5,0,0,0,0-.76V9.36h-1.3A27.5,27.5,0,0,1,44,13.68a22.24,22.24,0,0,0-5-1.77A30.9,30.9,0,0,0,43.74.14l5.4.94a.55.55,0,0,1,.5.5c0,.33-.36.62-1,.83a14.71,14.71,0,0,1-.51,2h8.39V9.36H52.38ZM63.54,30.09V33H58.35V3.17H72.43V32.83h-5V30.09Zm3.92-4.82V8.1H63.54V25.27Z"/><path class="b0021c53-6880-4b23-a88f-8c97436f04dc" d="M93.35,8.42c.25.07.54.15.54.47s-.44.47-.83.5a24.07,24.07,0,0,0-2.38,6.23,20,20,0,0,1,10.51-3.35c6.19,0,9.22,4.58,9.22,8.86,0,6.87-6.48,11.59-18.4,11.59-1,0-1.94,0-2.62-.07a20.69,20.69,0,0,0-1.69-6,20.14,20.14,0,0,0,5.32.54c8.17,0,11.41-3.06,11.41-6.08,0-1-.5-3.67-4.21-3.67-5.15,0-8.89,3.31-11.48,5.9l-5.15-1.87a86.35,86.35,0,0,1,3.78-14.9ZM91.37,0a35.9,35.9,0,0,1,12.09,4,44.07,44.07,0,0,0-3.24,5.25A32.18,32.18,0,0,0,89.5,4.82Z"/><path class="b0021c53-6880-4b23-a88f-8c97436f04dc" d="M144.9,1.51c.5.07.82.11.82.51s-.43.5-.72.57c0,.18.11,5.29.15,5.8,4.46-.65,5.65-.76,6.91-.87v5.94c-.58,0-1.19-.11-2.09-.11a46,46,0,0,0-4.79.33c0,9.64-1.58,10-8.38,10a31.36,31.36,0,0,0-1.41-5.32,12.08,12.08,0,0,0,2,.18c2,0,2.16-.51,2.38-4.11-1.16.18-6.2,1.05-7.24,1.23,0,1.11-.07,2.19-.07,3.27,0,5.73.29,6.09,1,6.73s1.87,1,4.36,1a53.06,53.06,0,0,0,12.09-1.55,27.39,27.39,0,0,0-.68,5.87,96.94,96.94,0,0,1-12.42,1c-2.09,0-7.71-.07-9-5-.54-2.06-.5-4.9-.43-10.23-4.32,1.08-5.58,1.41-7,1.8l-.43-6.3a43.7,43.7,0,0,0,7.23-1A74.25,74.25,0,0,0,126.68,3l6.23.69c.54.07,1,.11,1,.57s-.39.51-.65.54c-.07.9-.32,4.72-.39,5.51,1.08-.18,4.53-.72,6.8-1.12a43.33,43.33,0,0,0-.86-8.53Z"/></g></g></svg>