<svg id="レイヤー_1" data-name="レイヤー 1" xmlns="http://www.w3.org/2000/svg" viewBox="0 0 322.92 23.04"><defs><style>.cls-1{fill:#ff5064;}</style></defs><title>アートボード 3</title><path class="cls-1" d="M4.21,11.2a2.81,2.81,0,0,1,2.87,3.06,2.75,2.75,0,0,1-2.87,3H1.52v3.36H0V11.2ZM1.52,12.59V15.9H4.05c.38,0,1.47-.14,1.47-1.64a1.45,1.45,0,0,0-1.47-1.67Z"/><path class="cls-1" d="M9.8,11.2v6A2,2,0,0,0,12,19.39a2,2,0,0,0,2.23-2.22v-6h1.52V17c0,2.72-1.56,3.88-3.68,3.88s-3.76-1.16-3.76-4V11.2Z"/><path class="cls-1" d="M21.51,11.2A2.29,2.29,0,0,1,24,13.62a2,2,0,0,1-1.21,2A2.23,2.23,0,0,1,24.27,18a2.5,2.5,0,0,1-2.58,2.7h-4.5V11.2Zm-2.8,1.39v2.57h2.46a1.19,1.19,0,0,0,1.23-1.32,1.14,1.14,0,0,0-1.23-1.25Zm0,3.85v2.82h2.51a1.37,1.37,0,0,0,1.49-1.44,1.31,1.31,0,0,0-1.5-1.38Z"/><path class="cls-1" d="M27,11.2v8.06h4.34v1.39H25.47V11.2Z"/><path class="cls-1" d="M34.1,20.65H32.58V11.2H34.1Z"/><path class="cls-1" d="M41.22,14.46a1.87,1.87,0,0,0-1.9-2,1.94,1.94,0,0,0-1.76.93A5.28,5.28,0,0,0,37,16a4.24,4.24,0,0,0,.93,2.95,2,2,0,0,0,1.38.48c1.33,0,1.84-.85,2-2.17h1.54c-.13.86-.56,3.69-3.43,3.69-3.08,0-3.94-2.78-3.94-4.95,0-2.6,1.15-5,3.91-5,1.21,0,3,.52,3.41,3.53Z"/><path class="cls-1" d="M50.57,11.2c1,0,3.92.29,3.92,4.77,0,1.88-.58,3.4-1.63,4.07a4.8,4.8,0,0,1-2.29.61H47.41V11.2Zm-1.64,1.39v6.67h1.73c1,0,2.27-.76,2.27-3.34,0-2.3-1-3.33-2.27-3.33Z"/><path class="cls-1" d="M59.47,11.2l3.05,9.45H60.93l-.56-1.9H56.83l-.57,1.9H54.68l3-9.45Zm-.87,1.69-1.38,4.57H60Z"/><path class="cls-1" d="M63.23,11.2l2.16,4.05,2.17-4.05h1.75L66.15,17v3.69H64.63V17L61.47,11.2Z"/><path class="cls-1" d="M75,13.88a1.85,1.85,0,0,0-.28-.88c-.19-.34-.56-.54-1.28-.54-.36,0-1.62,0-1.62,1,0,.83.48,1,2.56,1.84,1.21.48,2.37.93,2.37,2.61a2.9,2.9,0,0,1-3.2,2.95c-1.55,0-3.42-.64-3.54-3.14h1.59c0,1.06.64,1.62,1.91,1.62A2.14,2.14,0,0,0,74.82,19a1.19,1.19,0,0,0,.41-.88c0-.75-.54-1-1.84-1.44-1.88-.68-3.1-1.2-3.1-3,0-1,.52-2.79,3.08-2.79,1.88,0,2.95.76,3.24,3Z"/><path class="cls-1" d="M91.41,6.17V16c0,2.54-1.32,5.35-5.21,5.35-2.43,0-5.11-1.26-5.11-5.19v-1.6h3.26v1.19c0,1.87,1.35,2.12,1.79,2.12a1.86,1.86,0,0,0,1.79-1.93V6.17Z"/><path class="cls-1" d="M99.21,20.93l0-1.31a3.33,3.33,0,0,1-3,1.71c-.4,0-3.36,0-3.36-4.22V10.16H96v6c0,1.93,1,2,1.5,2,.73,0,1.71-.45,1.71-2.09v-6h3.09V20.93Z"/><path class="cls-1" d="M106.37,10.16l.06,1.32a3.29,3.29,0,0,1,2.94-1.71c.39,0,3.36,0,3.36,4.21v7h-3.09v-6c0-1.95-1-2-1.51-2-.74,0-1.7.45-1.7,2.07v6h-3.1V10.16Z"/><path class="cls-1" d="M116.66,16.37c0,2.17,1.36,2.38,2,2.38a1.56,1.56,0,0,0,1.54-1.06h3.12a5.35,5.35,0,0,1-.91,1.82,4.64,4.64,0,0,1-3.78,1.82c-2.65,0-5-1.93-5-5.73,0-3.4,2-5.83,4.94-5.83,4.54,0,4.9,4.73,5,6.6Zm3.69-2.32a2,2,0,0,0-1.84-1.71c-1.37,0-1.71,1.3-1.83,1.71Z"/><path class="cls-1" d="M129.46,20.21v-12h-2.94v-4c2.35-.52,3.16-1.24,3.9-3.69h3.83V20.21Z"/><path class="cls-1" d="M150.63,5h-6.38l-.43,3a3.35,3.35,0,0,1,2.71-1c2.35,0,5.39,1.66,5.39,6.41,0,3.79-2.14,7.3-7.06,7.3-1.71,0-6.37-.48-6.9-6.19h4.88a1.84,1.84,0,0,0,2,1.6,2.27,2.27,0,0,0,2.3-2.57A2.23,2.23,0,0,0,144.9,11a1.92,1.92,0,0,0-1.63.63h-4.61L140.27.53h10.36Z"/><path class="cls-1" d="M160.1,8.83v6.29c0,1.27.53,1.68,1.36,1.68h1v3.77c-.4,0-2.44.17-2.91.17-3.21,0-3.67-2-3.67-3.77V8.83H154v-3h1.9V1.78h4.22V5.86h2.36v3Z"/><path class="cls-1" d="M167.6.53V7.61a4.41,4.41,0,0,1,3.92-2.28c.53,0,4.49,0,4.49,5.62v9.26h-4.12v-8c0-2.59-1.31-2.69-2-2.69-1,0-2.27.61-2.27,2.77v7.94h-4.12V.53Z"/><path class="cls-1" d="M181.56,22.05c-1.77-3.22-1.91-7.83-1.91-8.44s.14-5.2,1.91-8.44h2.64a23.06,23.06,0,0,0,0,16.88Z"/><path class="cls-1" d="M190.59,13.13c0-.34,0-.9-1.12-.9-.33,0-1.05.07-1.05.74,0,.47.37.65,1.05.85,2.94.84,4.57,1.33,4.57,3.76s-1.92,3.75-4.55,3.75a5,5,0,0,1-3.6-1.37,4.15,4.15,0,0,1-.85-2.43h3.23c0,.55.06,1.33,1.36,1.33.41,0,1.18-.07,1.18-.79s-.45-.74-1.07-.92c-2.93-.88-4.4-1.33-4.4-3.76,0-3.28,2.86-3.62,4.17-3.62a5.39,5.39,0,0,1,3,.84,3.23,3.23,0,0,1,1.26,2.52Z"/><path class="cls-1" d="M201.46,20.93a2.43,2.43,0,0,1-.25-1.19,3.78,3.78,0,0,1-3.37,1.59c-1.57,0-3.23-.67-3.23-3.42s1.79-3.05,5.16-3.61c.72-.12,1.43-.23,1.43-1,0-.95-.92-.95-1.31-.95-1.83,0-1.83.5-1.82,1.06h-3c.11-1.14.32-3.69,4.82-3.69,2.14,0,4.42.68,4.42,3.6v6.3a1.2,1.2,0,0,0,.41,1v.25Zm-.25-4.77a4.38,4.38,0,0,1-1.59.48c-1.13.26-1.78.4-1.78,1.21s.86.78,1.2.78a2,2,0,0,0,2.17-2Z"/><path class="cls-1" d="M210.41,12.4v4.71c0,1,.39,1.26,1,1.26h.75V21.2c-.31,0-1.84.13-2.19.13-2.4,0-2.75-1.48-2.75-2.83V12.4h-1.43V10.16h1.43V7.1h3.17v3.06h1.77V12.4Z"/><path class="cls-1" d="M215.53,5.17c1.77,3.24,1.91,7.85,1.91,8.44s-.14,5.22-1.91,8.44h-2.62a23.2,23.2,0,0,0,0-16.88Z"/><path class="cls-1" d="M219.41,20V15.12h4.3v4.49c0,3.24-2.69,3.41-4.3,3.43V21.39c1.42-.05,1.87-.46,2-1.44Z"/><path class="cls-1" d="M230.48,20.21v-12h-2.94v-4c2.35-.52,3.17-1.24,3.9-3.69h3.84V20.21Z"/><path class="cls-1" d="M247.72,5.69a1.55,1.55,0,0,0-1.63-1c-2.27,0-2.43,2.21-2.57,4a5,5,0,0,1,3.65-1.49c2,0,5.77,1.18,5.77,6.38,0,3.53-2.06,7.16-6.59,7.16-5.59,0-7.36-5.11-7.36-10.28C239,6.24,240.29,0,246.43,0c2.43,0,5.41,1,6.19,5.69Zm.45,8.06A2.22,2.22,0,0,0,246,11.38a2.11,2.11,0,0,0-2.11,2.33,2.17,2.17,0,1,0,4.33,0Z"/><path class="cls-1" d="M261.12,8.83v6.29c0,1.27.53,1.68,1.37,1.68h1v3.77c-.41,0-2.45.17-2.92.17-3.2,0-3.67-2-3.67-3.77V8.83H255v-3h1.9V1.78h4.22V5.86h2.37v3Z"/><path class="cls-1" d="M268.63.53V7.61a4.38,4.38,0,0,1,3.92-2.28c.53,0,4.48,0,4.48,5.62v9.26h-4.12v-8c0-2.59-1.3-2.69-2-2.69-1,0-2.26.61-2.26,2.77v7.94h-4.12V.53Z"/><path class="cls-1" d="M282.59,22.05c-1.78-3.22-1.91-7.83-1.91-8.44s.13-5.2,1.91-8.44h2.63a23.2,23.2,0,0,0,0,16.88Z"/><path class="cls-1" d="M291.62,13.13c0-.34-.05-.9-1.12-.9-.34,0-1.06.07-1.06.74,0,.47.37.65,1.06.85,2.94.84,4.56,1.33,4.56,3.76s-1.91,3.75-4.55,3.75A4.94,4.94,0,0,1,286.92,20a4.11,4.11,0,0,1-.86-2.43h3.23c0,.55.06,1.33,1.36,1.33.42,0,1.18-.07,1.18-.79s-.44-.74-1.07-.92c-2.92-.88-4.39-1.33-4.39-3.76,0-3.28,2.86-3.62,4.16-3.62a5.43,5.43,0,0,1,3,.84,3.25,3.25,0,0,1,1.25,2.52Z"/><path class="cls-1" d="M302.28,20.93l0-1.31a3.32,3.32,0,0,1-3,1.71c-.4,0-3.35,0-3.35-4.22V10.16H299v6c0,1.93,1,2,1.5,2,.73,0,1.71-.45,1.71-2.09v-6h3.1V20.93Z"/><path class="cls-1" d="M310.21,10.16l.06,1.32a3.27,3.27,0,0,1,2.94-1.71c.39,0,3.36,0,3.36,4.21v7h-3.09v-6c0-1.95-1-2-1.52-2-.73,0-1.69.45-1.69,2.07v6h-3.1V10.16Z"/><path class="cls-1" d="M321,5.17c1.77,3.24,1.91,7.85,1.91,8.44s-.14,5.22-1.91,8.44h-2.62a23.2,23.2,0,0,0,0-16.88Z"/></svg>