<svg xmlns="http://www.w3.org/2000/svg" width="630" height="165"><defs><style>.cls-2{fill:#fff}.cls-5{fill:#c9b100}</style></defs><g id="レイヤー_2" data-name="レイヤー 2"><g id="object"><rect width="630" height="165" rx="10" fill="#e6e6e6"/><path class="cls-2" d="M625 55v100a5 5 0 01-5 5H10a5 5 0 01-5-5V55z"/><path stroke="#c9b100" stroke-linejoin="round" stroke-width="2.15" fill="none" d="M140.4 107.45h297.75"/><path d="M34.92 86.15c0-.67 5-1.22 11.11-1.22h82.17c6.14 0 11.11.55 11.11 1.22v42.6c0 .67-5 1.21-11.11 1.21H46c-6.13 0-11.11-.54-11.11-1.21z" stroke="#c9b100" stroke-linejoin="round" stroke-width="2.15" fill="#fff"/><path class="cls-5" d="M80.18 104.14h-.38l-.44 1.1h1V107h-2.15v.5h1.91v1.69h-1a5.21 5.21 0 001 .82l-.82 1.75a5.81 5.81 0 01-1.09-1v3.17h-1.86v-2.51c-.14.22-.38.52-.71.93a3.9 3.9 0 01-.93.87l-.93-1.86a7.64 7.64 0 002-2.13H74v-1.69h2.35V107h-2.67v-1.74H75l-.28-1.1h-.65v-1.75h2.29v-1.25h1.92v1.25h1.91zm-3.66 0l.27 1.1h.82l.33-1.1zm4.1 4.1V102l1 .22a13.44 13.44 0 003.66-1l.88 1.75a12.29 12.29 0 01-3.61.93v1.53h4v1.86h-1.2v6.56H83.4v-6.56h-.87v1a8.66 8.66 0 01-.44 3 4.48 4.48 0 01-.66 1.42 5.9 5.9 0 01-1 1.31l-1.48-1.64a5.75 5.75 0 001.37-2 6.18 6.18 0 00.3-2.14zm19.23-.71a5.37 5.37 0 01-1-.6v.76H93.4v-.76a4.82 4.82 0 01-.87.76l-1-1.58a4.14 4.14 0 001.75-1.26h-1.41v.6h-1a14.72 14.72 0 001.26 2l-.66 1.85-.6-.87v5.41H89V110l-.6 1.21-.82-2.19a12.79 12.79 0 001.36-3.61h-1.2v-1.64H89v-2.56h1.91v2.56h.87v-.54h2.57l.17-.33h-1.7l-.87-1.47a37.74 37.74 0 007-.55l1.09 1.53a30.7 30.7 0 01-3.39.39l-.22.38h3.94v1.58h-1.56a3.72 3.72 0 001.86 1zm-2.29 6.29l-.39-1h-1.36v.33h-1.42v-3.23h3.44v2a.28.28 0 00.33-.11.34.34 0 000-.32v-1.92H94v4.27h-2V108h8.09v4.21a1.38 1.38 0 01-1.53 1.59zm-1.1-9h-1a2.32 2.32 0 01-.38.44h1.8zm-1.2 1.81h1.64v-.33h-1.64zm1.2 4.92V111h-.65v.61z"/><path d="M438.41 86.15c0-.67 7.44-1.22 16.61-1.22h122.83c9.17 0 16.61.55 16.61 1.22v42.6c0 .67-7.44 1.21-16.61 1.21H455c-9.17 0-16.61-.54-16.61-1.21z" fill="#004da0" stroke="#004da0" stroke-miterlimit="10" stroke-width="1.08"/><path class="cls-2" d="M474.67 115.35v-15.13h14.59v15.13h-2.35v-.81H477v.81zm2.35-3h9.89v-10H477zm8.34-2.69h1.08v2h-9v-2h3.37V108h-2.63v-2h2.63v-1h-3.3v-1.88h8.95V105h-3.3v1.08h2.62v2h-.6l.94 1.21zm-2.22 0h1.08l-.88-1.28.88-.4h-1.08zM498 99.54l2.08.34-.2.54h2.82v.4a4.74 4.74 0 00.54 1.35v-1.82H506l.81 1.28a9.2 9.2 0 01-1.68 3.3 6.18 6.18 0 002 1.34l-1.21 2.09a6.21 6.21 0 01-1.81-1.35v1.14h-5.32v-.87a6.2 6.2 0 01-1.61 1.08l-1.08-1.62a4.11 4.11 0 01.41 2h10v2.09h-4v.94l1.95-.81a4.37 4.37 0 001 1.35 5.86 5.86 0 001.62 1.28l-1.69 1.68a8.65 8.65 0 01-2.89-3.43v2.08c0 .94-.49 1.41-1.48 1.41h-1.81l-.68-2a5.88 5.88 0 01-1.81 1.81l-1.68-1.54a5.84 5.84 0 002.55-2.63l1.89.88a3.66 3.66 0 01-.74 1.27h.8c.41 0 .61-.15.61-.6v-1.68h-3.77V110a2.15 2.15 0 01-2 1.88l-.87-1.68v5h-2v-15.05h3.7l.13-.13 1.42 1.54-.34 1a5.33 5.33 0 001.58-3.02zm-4.51 5.79a11.07 11.07 0 001-3h-1zm0 .6v3.7a.94.94 0 00.94-1 3.07 3.07 0 00-.13-1.15 3.94 3.94 0 00-.8-1.55zm4-.33l-.54-.47-.34.27-.67-1.08-.4 1.21.47.88a5 5 0 00.81-.34 2 2 0 00.65-.47zm.33-1.55l.74.61.41-.41-.81-.67zm1.18-1.55l.73.61.34-.61zm2.69 1.21a7.47 7.47 0 01-1.69 2.43h3.23a7.19 7.19 0 01-1.52-2.43zm1.61-1.41a2.32 2.32 0 00.47.94 1.45 1.45 0 00.54-.94zm6.28-2.02h13.52v4.58h-2.49v.54h2.69v2h-2.69v.48H524v2h-1.88l1.07 1.07-1.61 1.21a7.49 7.49 0 002.82 1l-.87 2.36a10.57 10.57 0 01-4.31-1.95 10.06 10.06 0 01-3-3.7h-.54v2.89l1.68-.41.61 2.09a19 19 0 01-3 .67c-1.21.18-2.22.29-3 .34l-.4-2.22 1.81-.14v-3.22h-1.34l-.13 1.07a10.11 10.11 0 01-.61 2.42 6.63 6.63 0 01-1.08 2l-1.86-2.36a6.93 6.93 0 001.22-4.37zm2.35 2.7h8.81v-.81h-8.81zm0 4.91h2.62v-.48h-2.42v-2h2.42v-.54h-2.62zm5-2.49h1.41v-.54h-1.41zm0 2.49h1.41v-.48h-1.41zm2 2a2.06 2.06 0 00.74.94l1.34-.94zm12.17 5.46l-.81-2.42h1.82c.45 0 .65-.18.6-.67v-5.52h-6.79v-2.15h15.34v2.15H535v6.8c0 1.21-.54 1.81-1.61 1.81zm-2-8l2.22 1a15.17 15.17 0 01-1.28 3.22 9.84 9.84 0 01-1.95 2.7l-2.09-1.68a11 11 0 003.08-5.24zm-1.34-4.91v-2.22h11.63v2.22zm8.14 6l2.22-.94a13.78 13.78 0 001.21 2.42 14.49 14.49 0 002 2.69l-2.15 1.69a13 13 0 01-1.95-2.9 18.08 18.08 0 01-1.35-2.98zm11.68-2.17h11.1v1.82H552l-.67.6h6.92l-.26 4.17a2.83 2.83 0 01-.41 1.68 1.82 1.82 0 01-1.61.68h-2l-.81-1.62a10 10 0 01-3.77 2l-1.39-1.53a11.24 11.24 0 003.43-1.61 5.56 5.56 0 001.89-1.82h-.61a7.64 7.64 0 01-2.22 2 12.74 12.74 0 01-3.7 1.55l-1.34-1.82a11 11 0 002.49-.6 5 5 0 002-1.15h-1a3.92 3.92 0 01-.81.54 3.82 3.82 0 01-.88.4l-.47-.6a21.1 21.1 0 01-3.23 1.28l-.75-2.24 1.69-.54v-3.86h-1.42v-2.09h1.42v-3.7h2.35v3.7h1.08v2.09h-1.08v3l.61-.34.4.94a3.09 3.09 0 00.67-.4 3.81 3.81 0 00.74-.67h-1.68zm1.14-.4V100h8.75v5.85zm2.36-3.57h4.1v-.54h-4.1zm0 1.82h4.1v-.54h-4.1zm2.69 8.94h1.07c.5 0 .77-.31.81-.94l.14-1.48h-.21a7 7 0 01-1.81 2.42zM189.88 94.38h198.79v23.14H189.88z"/><path class="cls-5" d="M196.14 112h-1.66v-1.8h-2.14V109h2.14v-.75h-1.73v-4.8h1.76v-.73h-2v-1.18h2v-.87h1.63v.87h2.05v1.18h-2.05v.73h1.75v.67a9.75 9.75 0 001.45-1.64 7 7 0 001-1.88h1.73a6.2 6.2 0 00.59 1c.28.41.55.77.81 1.1a12.86 12.86 0 001.46 1.4l-1 1.15-.29-.24v.72h-1.4v1.53h2.37v1.41h-2.37v3.31h-1.84v-3.31h-2.17v-1.41h2.17v-1.53H199V105l-.47.39-.63-.82v3.67h-1.75v.76h2v1.25h-2zm.2-6.71v-.83h-2.07v.83zm0 1.7v-.85h-2.07v.86zm3.34-2.71h3.19a9.35 9.35 0 01-1.61-2.21 7.42 7.42 0 01-1.58 2.25zm7.21 3.32a14.65 14.65 0 01-.7 3.7l-1.08-.27a18.41 18.41 0 00.56-3.51zm1.69 4.47h-1.47v-5c-.71.07-1.29.12-1.74.14l-.14-1.25h.88l.71-1c-.6-.72-1.14-1.34-1.64-1.89l.84-1 .19.21a11 11 0 001-1.84l1.28.52a15.39 15.39 0 01-1.43 2.25l.52.6a16.18 16.18 0 001.16-2.07l1.28.6a30.22 30.22 0 01-2.37 3.52l1.19-.09a7.51 7.51 0 00-.3-.89l1.12-.33c.17.46.4 1.19.69 2.18h2.38l.25.26a6.59 6.59 0 01-.88 2.64 5.91 5.91 0 01-2.1 2.2l-.86-1a5.39 5.39 0 002.16-2.92h-1.07V107l-1 .26c0-.07 0-.22-.1-.45l-.55.08zm1.67-2.3l-1.11.22c-.2-1.15-.31-1.94-.34-2.37l1.07-.17c.04.45.13 1.22.38 2.32zm4.3 1.1a.92.92 0 01-.37.76 1.27 1.27 0 01-.83.3h-1.55l-.14-1.45h1q.33 0 .33-.3v-4h-2.46v-4.63h2.12l.37-1.1 1.68.28-.4.82h2.61v4.63h-2.31a7 7 0 00.53 1.31 10 10 0 001.5-1.27l1.11 1a10.22 10.22 0 01-1.91 1.38 9.8 9.8 0 002 1.94l-1.06 1.23a9.38 9.38 0 01-2.19-2.6zm-2.41-7.44h3.09v-.73h-3.09zm3.09.86h-3.09v.71h3.09zm6.68.54a11 11 0 01-.78 4.65 5.85 5.85 0 01-2.43 2.64l-.84-1.54a4.43 4.43 0 001.7-2 10.55 10.55 0 00.59-4v-3h1.76zm6.74 2a10.46 10.46 0 01-2.05 3.19 6.24 6.24 0 01-2.85 1.82l-.63-.61V101.2h1.76v8.23a8.25 8.25 0 002.49-3.64zm10.35.56h-9.27v-1.68H239zm10.63-.19l-.95 1.49a18.86 18.86 0 00-4.33-2.81V112h-1.84v-11.35h1.86V104a25.73 25.73 0 015.26 3.2zm6.63.39a19.25 19.25 0 01-.32 2 10.75 10.75 0 01-.46 1.69l-1.19-.27a17.92 17.92 0 00.62-3.52zm1.87 4.45h-1.6v-4.93c-.85.07-1.51.12-2 .14l-.13-1.31h1c.21-.26.48-.61.8-1a45.31 45.31 0 00-1.83-1.91l.93-1 .23.22a12 12 0 001.06-1.85l1.44.52a19.05 19.05 0 01-1.57 2.27l.57.6a14.91 14.91 0 001.26-2l1.39.6a42.62 42.62 0 01-2.6 3.53l1.34-.1c-.17-.5-.28-.81-.34-.94l1.21-.36c.23.6.52 1.42.86 2.48l-1.3.31a2.23 2.23 0 00-.09-.41l-.63.09zm1.92-1.76l-1.29.17a27.2 27.2 0 01-.44-2.77l1.28-.13zm1.87 1.61l-.2-1.55h1.62a.69.69 0 00.72-.54 7.52 7.52 0 00.19-2v-4.51h-2.58a11.3 11.3 0 01-.9 1.93l-1.33-.6a23.18 23.18 0 00.84-2.28 15.77 15.77 0 00.43-1.94l1.7.17a11.91 11.91 0 01-.31 1.44h3.8v6.45a7.46 7.46 0 01-.27 2.15 1.82 1.82 0 01-.63.79 2 2 0 01-.83.37c-.17.1-.93.11-2.25.12zm1.31-3.68l-1.59.55a29.2 29.2 0 00-1.27-3.34l1.44-.56a22.61 22.61 0 011.42 3.35zm18.26 4.73h-8.06v-1.85h2.71v-7.33h-2.71v-1.7a4.47 4.47 0 002.28-.45 1.73 1.73 0 00.78-1.36h2.34v10.84h2.66zm12.18-10.41l-5.76 10.41h-3l6-10.61h-6.82v-2.06h9.58zm10.22 3.47a6.35 6.35 0 01-1.46 3.88A7.28 7.28 0 01299 112l-.78-1.39c2.42-.85 3.68-2.39 3.79-4.6h-1.73v-.55a15.08 15.08 0 01-1.36 1.06l-1.07-1.16a11.32 11.32 0 002.55-2.45 9.79 9.79 0 001.52-2.49l1.78.42a13 13 0 01-2.46 3.71H307a11.8 11.8 0 01-2.28-3.72l1.65-.5a11.91 11.91 0 001.78 2.81 14.32 14.32 0 002.49 2.16l-1.36 1.37-.67-.58a31.43 31.43 0 01-.16 3.35 3 3 0 01-.76 1.91 2.28 2.28 0 01-1.55.53h-2.24l-.26-1.61h2a.93.93 0 00.9-.56 10.24 10.24 0 00.27-3.16V106zm13.99 6.59h-2.74v-10.36h2.74v.68H316v9h1.88zm13.74-2.19l-.55.66a8.86 8.86 0 01-2.57-2.26 12 12 0 01-1.68-2.88 8 8 0 01-1.71 3.08 7.43 7.43 0 01-3.06 2l-.3-.61a6.65 6.65 0 003-2.16 6.33 6.33 0 001.46-3.23H322v-.69h4.33v-2.64h.87v2.64h4.33v.69h-4.23a9.4 9.4 0 001.63 3 8 8 0 002.69 2.4zm5.93-4.23a6.11 6.11 0 01-1.65 3A8.43 8.43 0 01333 111l-.33-.59a7 7 0 003.22-2.55 5.85 5.85 0 001.06-3.24v-2.79h.88v2.87a6.72 6.72 0 00.92 2.39 7.13 7.13 0 001.87 2.07 8.58 8.58 0 001.83 1.13l-.45.71a9.73 9.73 0 01-2.88-2.13 6.69 6.69 0 01-1.57-2.7zm14.12 4.33h-5.3v-1c.56-.48 1.19-1 1.89-1.69a10.72 10.72 0 001.56-1.69 2.54 2.54 0 00.51-1.46 1.27 1.27 0 00-.43-1 1.75 1.75 0 00-1.16-.36 3.85 3.85 0 00-2.12.68h-.05v-1a5 5 0 012.19-.51 2.88 2.88 0 011.89.58 2 2 0 01.69 1.59 2.92 2.92 0 01-.18 1 3.3 3.3 0 01-.55 1 12.56 12.56 0 01-.89 1c-.35.35-1.15 1.06-2.39 2.12h4.34zm6.68 0h-5.29v-1c.56-.48 1.19-1 1.88-1.69a10.72 10.72 0 001.56-1.69 2.54 2.54 0 00.51-1.46 1.24 1.24 0 00-.43-1 1.73 1.73 0 00-1.16-.36 3.88 3.88 0 00-2.12.68h-.05v-1a5 5 0 012.2-.51 2.85 2.85 0 011.88.58 2 2 0 01.69 1.59 3.16 3.16 0 01-.17 1 3.3 3.3 0 01-.55 1 11 11 0 01-.9 1c-.34.35-1.14 1.06-2.39 2.12h4.34zm3.97.17a2.28 2.28 0 01-2.05-1 7.7 7.7 0 010-6.24 2.59 2.59 0 014.09 0 5.68 5.68 0 01.67 3.11 5.81 5.81 0 01-.66 3.13 2.29 2.29 0 01-2.05 1zm0-7.44a1.39 1.39 0 00-1.3.71 8.48 8.48 0 000 5.21 1.55 1.55 0 002.6 0 5.85 5.85 0 00.4-2.61 5.76 5.76 0 00-.4-2.58 1.36 1.36 0 00-1.3-.73zm14.87 3.64h-7v4.27h-.81v-8.81H378v7.86a.81.81 0 01-.26.62 1 1 0 01-.69.23h-1.47l-.11-.75h1.26c.3 0 .45-.14.45-.43zm-7-.67h3V103h-3zm3.83 0h3.18V103H374zm11.34 6.39h-2.74v-.68h1.88v-9h-1.88v-.68h2.74z"/><path d="M22.79 32.46h-1.8a9.77 9.77 0 00.13-1.89V23a13.44 13.44 0 00-.12-1.72h5.07c2.17 0 3.39 1 3.39 2.73a2.5 2.5 0 01-.79 2 2.3 2.3 0 01-1.1.58 2.62 2.62 0 011.41.65 2.74 2.74 0 01.87 2.14c0 2-1.3 3.07-3.63 3.07zm3.09-6.58a1.49 1.49 0 001.7-1.53 1.41 1.41 0 00-.37-1 2 2 0 00-1.34-.43H23v3zm-2.91 5h3c1.25 0 1.95-.62 1.95-1.75a1.52 1.52 0 00-.45-1.22 2.28 2.28 0 00-1.47-.48h-3zm15.7 1.58a11.61 11.61 0 00-.73-2.24c-.76-1.93-1.25-2.45-2.33-2.45h-2.08v2.85a10.45 10.45 0 00.11 1.84h-2.09a10.41 10.41 0 00.11-1.82v-7.55a11.71 11.71 0 00-.11-1.82h5.16c2.12 0 3.34 1.06 3.34 2.91a2.66 2.66 0 01-2.27 2.9c.89.28 1.15.67 2.54 3.95.11.25.46 1 .66 1.39zm-2.33-6.29a1.89 1.89 0 001.33-.5 1.67 1.67 0 00.45-1.24c0-1-.57-1.52-1.72-1.52h-2.87v3.26zm10.95 4.47a12.26 12.26 0 00.11 1.82h-2.11a12.35 12.35 0 00.11-1.82V23h-1.89a13.84 13.84 0 00-1.92.1v-1.89a13.91 13.91 0 001.9.1H49a14.78 14.78 0 002.06-.1v1.88A14.68 14.68 0 0049 23h-1.71z" fill="#3c3c3c"/></g></g></svg>