<svg xmlns="http://www.w3.org/2000/svg" width="132.8" height="132.8"><g data-name="レイヤー 2"><circle cx="66.4" cy="66.4" r="66.4" fill="#e50012"/><path d="M33.47 63.24a29 29 0 00-4.16.21v-7.8a30.91 30.91 0 004.37.21h3a36.9 36.9 0 00-4.63-7.18l7.17-3.27a61 61 0 015.36 7.9l-5.1 2.55h7.39A66.77 66.77 0 0051 45.36l8.11 2.54a80.35 80.35 0 01-3.74 8h1.87a31.44 31.44 0 004.89-.26v7.85a32.3 32.3 0 00-4.13-.25h-1.76V70h2.45a30.1 30.1 0 004.42-.26v7.9a37.83 37.83 0 00-4.53-.26h-2.34v11.44a47.65 47.65 0 00.26 5.87H48a43.85 43.85 0 00.31-5.87V77.33h-5.63A24.38 24.38 0 0132.75 95a27.24 27.24 0 00-5.93-6.34 42.42 42.42 0 00.31 6h-8.32a44.86 44.86 0 00.32-5.93V74.05a13.67 13.67 0 00.05-1.61v-1.71a29.29 29.29 0 01-2.71 3.48 48.33 48.33 0 00-3.32-9.41c3.38-3.28 5.77-7.23 7.9-12.84A32.51 32.51 0 0023 45l8.27 2.19a28.5 28.5 0 00-1 3.06 67.4 67.4 0 01-3.38 8.43V88.4c5-3.48 6.91-6.24 7.74-11.07H32a21.07 21.07 0 00-3.75.21v-7.8a25.42 25.42 0 003.64.21h3.33c.05-2 .05-2 .05-6.71zm9.73 0c0 5.3 0 5.3-.06 6.71h5.15v-6.71zm66.44-.24a37.89 37.89 0 004.73-.21v6.76a37.27 37.27 0 00-3.85-.16h-7.17v1.82h5.35a25.1 25.1 0 004.06-.15v6a34.48 34.48 0 00-4.06-.16h-5.35v1.77h5.35a30.54 30.54 0 004.06-.16v6a36.49 36.49 0 00-4-.16h-5.41v2h7.28a21.13 21.13 0 004-.16V93c-2.34-.21-4.37-.32-6.34-.32h-19v1.88h-7.88a38.87 38.87 0 00.31-6.24V78.16c0-.31 0-1.56.11-2.7a17.79 17.79 0 01-2 2.39 33.93 33.93 0 00-2-4.47V88.3a61.32 61.32 0 00.31 6.24h-8.37a46.55 46.55 0 00.31-6V76c0-1.2 0-3.9.1-5.67a25.06 25.06 0 01-2.7 3.38 42.1 42.1 0 00-2.39-10 33.59 33.59 0 006.75-12.58 41.45 41.45 0 001.36-6l7.69 2.54v-.36h7.69c-.1 1.2-.15 2.34-.15 3.38v1.87h4.83v-2.89a25.45 25.45 0 00-.26-4h8a28.24 28.24 0 00-.21 4v2.81h4.89v-2a32.58 32.58 0 00-.11-3.28h7.9a34 34 0 00-.2 4.11v4.42a19.31 19.31 0 00.15 3.69c-1.14-.06-1.77-.06-3.48-.06h-10l6.81 1.15c-.68 1.25-.84 1.56-1.36 2.39zm-25.16-3.56c-1.56 0-1.87 0-3.54.11a32 32 0 00.11-3.95v-5.31c0-.77-.06-1.56-.11-2.28-.31.83-.41 1.19-.72 2.13a67.73 67.73 0 01-2.4 6.55v12.63a28.54 28.54 0 007.28-9.88zm8.58 1.15c-.16.26-.26.47-.37.62A13.93 13.93 0 0191.44 63h5.88A12.74 12.74 0 0099 59.44H85.88zm3.06 10.6v-1.82h-6.86v1.82zm-6.86 7.44h6.86v-1.77h-6.86zm0 7.64h6.86v-2h-6.86z" fill="#fff"/></g></svg>