<svg xmlns="http://www.w3.org/2000/svg" xmlns:xlink="http://www.w3.org/1999/xlink" width="696.74" height="88.85"><defs><clipPath id="clip-path"><path class="cls-1" d="M607.73 61.15c0 9.36 15 16.95 33.57 16.95s33.58-7.59 33.58-16.95-15-16.95-33.58-16.95-33.57 7.59-33.57 16.95"/></clipPath><clipPath id="clip-path-2"><path class="cls-1" d="M631.12 61.3l-.93.88 1.27.2.55 1.16.58-1.14 1.27-.17-.9-.91.23-1.26-1.14.58-1.13-.61.2 1.27z"/></clipPath><clipPath id="clip-path-3"><path class="cls-1" d="M653.97 69.29l-.82-.2.34.77-.44.72.84-.09.55.64.17-.82.78-.33-.73-.42-.07-.84-.62.57z"/></clipPath><clipPath id="clip-path-4"><path class="cls-1" d="M621.79 62.09l-.68-.26.21.69-.46.57.73.02.4.61.24-.69.7-.19-.58-.44.04-.73-.6.42z"/></clipPath><clipPath id="clip-path-5"><path class="cls-1" d="M625.32 61.58l-.92.55.99.39.24 1.05.68-.82 1.07.1-.57-.91.43-.98-1.04.26-.81-.71-.07 1.07z"/></clipPath><clipPath id="clip-path-6"><path class="cls-1" d="M657.58 62.84l-.95.56 1.03.41.24 1.08.71-.85 1.11.1-.59-.93.43-1.02-1.07.27-.83-.73-.08 1.11z"/></clipPath><clipPath id="clip-path-7"><path class="cls-1" d="M657.62 68.85l-.56-.08.27.5-.25.51.56-.11.41.4.07-.57.51-.26-.52-.24-.1-.57-.39.42z"/></clipPath><clipPath id="clip-path-8"><path class="cls-1" d="M649.63 54.52l-.96.31.84.57v1.01l.8-.61.96.31-.34-.95.6-.82-1.01.03-.6-.82-.29.97z"/></clipPath><clipPath id="clip-path-9"><path class="cls-1" d="M659.83 55.91l-.87-.23.35.82-.48.76.89-.08.57.7.2-.88.84-.32-.77-.47-.05-.89-.68.59z"/></clipPath><clipPath id="clip-path-10"><path class="cls-1" d="M654.59 56.82l-1.16.86 1.39.39.47 1.37.8-1.2 1.44-.02-.89-1.13.43-1.38-1.36.5-1.17-.83.05 1.44z"/></clipPath><clipPath id="clip-path-11"><path class="cls-1" d="M620.96 56.8l-1.1.93 1.4.32.54 1.33.73-1.23 1.44-.1-.95-1.08.36-1.4-1.33.57-1.22-.77.13 1.43z"/></clipPath><clipPath id="clip-path-12"><path class="cls-1" d="M625.4 54.11l-.93.3.8.56v.98l.78-.6.93.3-.32-.92.57-.79-.98.02-.57-.79-.28.94z"/></clipPath><clipPath id="clip-path-13"><path class="cls-1" d="M631.93 56.16l-.56.54.77.11.35.71.34-.7.78-.11-.56-.55.13-.77-.69.36-.69-.37.13.78z"/></clipPath><clipPath id="clip-path-14"><path class="cls-1" d="M635.69 53.75l-1.43-.19.72 1.25-.62 1.3 1.41-.3 1.05.99.15-1.43 1.27-.69-1.32-.59-.27-1.42-.96 1.08z"/></clipPath><clipPath id="clip-path-15"><path class="cls-1" d="M681.33 73.6a3.69 3.69 0 00.51-1 3.11 3.11 0 01-.62 1.23 3.53 3.53 0 01-1 .82 4.21 4.21 0 001.11-1M677 66.06v7.72a1.37 1.37 0 001.37 1.37h.35a4.48 4.48 0 01-.59.07h-1.16zm-1.37-2.74a1.38 1.38 0 00-1.12.58 1.36 1.36 0 00-.29 0h-2.55a1.37 1.37 0 00-1.37 1.37V69h-.22a2.34 2.34 0 00-.49-.09 1 1 0 00-.88 1.11v6.82a1.39 1.39 0 00.41 1 1.36 1.36 0 001 .39 5.33 5.33 0 002.79-.86 5.77 5.77 0 001.37-1.17v.54a1.37 1.37 0 001.37 1.26h2.66a7 7 0 001.69-.29 6.07 6.07 0 001.56-.65 6.34 6.34 0 001.79-1.46 5.77 5.77 0 001.3-3.25c.07-.93.11-2 .11-3.16v-1.64a1.37 1.37 0 00-1.37-1.37h-2.62a1.34 1.34 0 00-1 .43v-1.92a1.38 1.38 0 00-1.37-1.37z"/></clipPath><clipPath id="clip-path-16"><path class="cls-1" d="M613.45 74.72a5.1 5.1 0 002.1-2.67 10.93 10.93 0 00.45-3.55v-.65a1.37 1.37 0 00-.64-1.15h.71v1.84a9.77 9.77 0 01-.69 4.24 5 5 0 01-1.48 1.75 5.56 5.56 0 01-1.62.78 6.31 6.31 0 001.13-.59M605.16 64a1.38 1.38 0 00-1.37 1.37v2.52a1.37 1.37 0 001.37 1.37h8.38a7.46 7.46 0 01-.32 2 2.4 2.4 0 01-1 1.26 5.09 5.09 0 01-1.51.62 9.11 9.11 0 01-2.32.28H607a1.37 1.37 0 00-1.37 1.37v2.59a1.37 1.37 0 001.37 1.28h1.74a15.36 15.36 0 003.78-.48 9.11 9.11 0 003.4-1.5 7.92 7.92 0 002.23-2.68 12.44 12.44 0 001-5.45v-3.22a1.38 1.38 0 00-1.41-1.33z"/></clipPath><clipPath id="clip-path-17"><path class="cls-1" d="M633 69.35a1.35 1.35 0 00-.28-1.13 1.47 1.47 0 00-.46-.37h1.23a13.22 13.22 0 01-.36 1.91 10 10 0 01-1.09 2.61 1.35 1.35 0 00-.16 1 1.3 1.3 0 00.18.42 1.37 1.37 0 00-1.28.19 9.53 9.53 0 002.22-4.63m-8.11-4.24a1.37 1.37 0 00-1.36 1.37v2.6a1.36 1.36 0 001.36 1.37h4.94a5.43 5.43 0 01-1.51 2.14 8 8 0 01-4.32 1.65c-.69.08-2.5.67-2.5 1.36v2.73c0 .39 1.45.77 1.75 1a1.37 1.37 0 001.08.33 17.88 17.88 0 004.61-1.19 12.64 12.64 0 002.84-1.67l4.21 2.7a1.31 1.31 0 00.74.22 1.39 1.39 0 001.37-1.37v-3.23a1.36 1.36 0 00-.68-1.18l-2.32-1.37a13.29 13.29 0 00.75-2.12 18.94 18.94 0 00.57-3.9 1.38 1.38 0 00-1.42-1.44z"/></clipPath><clipPath id="clip-path-18"><path class="cls-1" d="M667.51 78.54a3.64 3.64 0 01-.91-1.7 7.8 7.8 0 01-.2-1.52v-4.57h.12v4a10.71 10.71 0 00.4 2.35 3.18 3.18 0 001.65 2v.18a3.57 3.57 0 01-1-.71m-8.66-.43a5.25 5.25 0 00.49-.33 3.9 3.9 0 001.26-1.72 5.44 5.44 0 00.32-1.71v-4.9h.13v2.84c0 1.07 0 2-.11 2.81a4 4 0 01-.44 1.62 3.41 3.41 0 01-1.2 1.29 3.33 3.33 0 01-.5.25zm9.18-14a1.58 1.58 0 00-.38.05 1.67 1.67 0 00-.39-.05h-2.21a1.37 1.37 0 00-1.37 1.37v2a1.38 1.38 0 00-1.21-.73h-2.86a1.37 1.37 0 00-1.37 1.37v6.21c0 .64-.39 1-1.09 1.17s-1 .66-1 1.73V80a1.35 1.35 0 001.36 1.37.86.86 0 00.23 0 8.48 8.48 0 003.07-1.07 6.24 6.24 0 002.07-2.3 6.76 6.76 0 00.78-2.72 10.33 10.33 0 00.21 1.26 6.38 6.38 0 001.61 2.95 6.77 6.77 0 004.21 1.91 1.36 1.36 0 001.53-1.4v-2.83a1.37 1.37 0 00-1-1.33c-.64-.16-.7-.39-.73-.47a8.53 8.53 0 01-.29-1.7v-4.61h1a1.37 1.37 0 001.37-1.37v-2.25a1.37 1.37 0 00-1.37-1.37z"/></clipPath><clipPath id="clip-path-19"><path class="cls-1" d="M616.38 71.73A1.37 1.37 0 00615 73.1v2a1.36 1.36 0 001.37 1.36h1.52v1h-2.09a1.37 1.37 0 00-1.37 1.37v2a1.36 1.36 0 001.37 1.36h9a1.36 1.36 0 001.37-1.36v-2a1.37 1.37 0 00-1.37-1.37h-2.06v-1h1.47a1.36 1.36 0 001.37-1.36v-2a1.37 1.37 0 00-1.37-1.37z"/></clipPath><clipPath id="clip-path-20"><path class="cls-1" d="M642 80a3.17 3.17 0 001.36-1.4 5.83 5.83 0 00.48-2.6 1.37 1.37 0 00-.64-1.15h1.49a1.37 1.37 0 00-.63 1.1c0 .71-.08 1.44-.15 2.17a2 2 0 01-.67 1.22l-.06.06a2 2 0 01-.62.42 4.14 4.14 0 01-.75.28l.19-.1m-3.84-11.66a1.37 1.37 0 00-1.37 1.37v2.46a1.37 1.37 0 00-1 1.31V76a1.36 1.36 0 001.36 1.37l.4.14a6.83 6.83 0 00-.26 1.66v2.51a1.36 1.36 0 001.42 1.32h2.1c.28 0 .55 0 .8-.06a8.35 8.35 0 00.88-.14 6.64 6.64 0 001.59-.54 4.85 4.85 0 001.43-1A4.64 4.64 0 00647 78.4c0-.34.07-.69.09-1h3.4a1.37 1.37 0 001.34-1.4v-2.52a1.36 1.36 0 00-.93-1.3v-2.47a1.37 1.37 0 00-1.37-1.37z"/></clipPath><clipPath id="clip-path-21"><path class="cls-1" d="M658 72.2a5.25 5.25 0 00-2.85.67c-.43.27-.94.57-1.51.87l-.55.33-.47.29c-.55.34-1 .62-1.45.83a1.58 1.58 0 01-.74.2h-.76a1.45 1.45 0 00-1.44 1.44v2a1.44 1.44 0 001.44 1.44h.8a6.51 6.51 0 001.61-.2v2a1.44 1.44 0 001.44 1.44h2.15a1.44 1.44 0 001.33-1.39v-4.73a3.37 3.37 0 01.31-.17 1 1 0 01.25-.06c.09 0 .19-.32.46-.33l.41-.32c.79 0 1.07-.16 1.11-1.25v-2c.32-.37-.32-1-1.11-1z"/></clipPath><clipPath id="clip-path-22"><path class="cls-1" d="M635.16 71.38h5.44l2.24-2.24-.25-3.77-3.12-1.25-4.67-2.05c-.6 0-.24 9.32.36 9.31"/></clipPath><clipPath id="clip-path-23"><path class="cls-1" d="M663.19 61.15l-.63.25.58.34.04.68.51-.45.66.17-.27-.62.36-.57-.67.06-.43-.52-.15.66z"/></clipPath><linearGradient id="名称未設定グラデーション_44" data-name="名称未設定グラデーション 44" x1="326.52" y1="2550.97" x2="326.72" y2="2550.97" gradientTransform="matrix(18.97 0 0 -18.97 -5564.92 48463.18)" gradientUnits="userSpaceOnUse"><stop offset="0" stop-color="#fff"/><stop offset=".19" stop-color="#fff"/><stop offset="1" stop-color="#fff"/></linearGradient><linearGradient id="名称未設定グラデーション_44-2" x1="395.57" y1="2534.27" x2="395.77" y2="2534.27" gradientTransform="matrix(12.45 0 0 -12.45 -4270.81 31615.34)" xlink:href="#名称未設定グラデーション_44"/><linearGradient id="名称未設定グラデーション_44-3" x1="356.19" y1="2662.76" x2="356.39" y2="2662.76" gradientTransform="matrix(10.75 0 0 -10.75 -3209.43 28696.09)" xlink:href="#名称未設定グラデーション_44"/><linearGradient id="名称未設定グラデーション_44-4" x1="356.54" y1="2502.42" x2="356.73" y2="2502.42" gradientTransform="matrix(15.84 0 0 -15.84 -5023.35 39700.75)" xlink:href="#名称未設定グラデーション_44"/><linearGradient id="名称未設定グラデーション_44-5" x1="352.28" y1="2510.72" x2="352.47" y2="2510.72" gradientTransform="matrix(0 -16.38 -16.38 0 41781.34 5834.81)" xlink:href="#名称未設定グラデーション_44"/><linearGradient id="名称未設定グラデーション_44-6" x1="422.3" y1="2677.6" x2="422.5" y2="2677.6" gradientTransform="matrix(8.46 0 0 -8.46 -2915.06 22717.47)" xlink:href="#名称未設定グラデーション_44"/><linearGradient id="名称未設定グラデーション_39" data-name="名称未設定グラデーション 39" x1="364.13" y1="2508.42" x2="364.32" y2="2508.42" gradientTransform="matrix(0 -14.82 -14.82 0 37822.26 5452.37)" gradientUnits="userSpaceOnUse"><stop offset="0" stop-color="#fccf00"/><stop offset=".19" stop-color="#fccf00"/><stop offset=".62" stop-color="#f29209"/><stop offset="1" stop-color="#ea6011"/></linearGradient><linearGradient id="名称未設定グラデーション_39-2" x1="382.27" y1="2511.26" x2="382.46" y2="2511.26" gradientTransform="matrix(0 -13.23 -13.23 0 33881.37 5114.91)" xlink:href="#名称未設定グラデーション_39"/><linearGradient id="名称未設定グラデーション_39-3" x1="321.25" y1="2510.25" x2="321.44" y2="2510.25" gradientTransform="matrix(0 -21.04 -21.04 0 53459.87 6817.03)" xlink:href="#名称未設定グラデーション_39"/><linearGradient id="名称未設定グラデーション_39-4" x1="322.42" y1="2503.5" x2="322.61" y2="2503.5" gradientTransform="matrix(0 -20.8 -20.8 0 52693.27 6765.51)" xlink:href="#名称未設定グラデーション_39"/><linearGradient id="名称未設定グラデーション_39-5" x1="368.44" y1="2501.3" x2="368.63" y2="2501.3" gradientTransform="matrix(0 -14.38 -14.38 0 36604.98 5355.61)" xlink:href="#名称未設定グラデーション_39"/><linearGradient id="名称未設定グラデーション_39-6" x1="415" y1="2500.87" x2="415.19" y2="2500.87" gradientTransform="matrix(0 -11.03 -11.03 0 28229.11 4636.93)" xlink:href="#名称未設定グラデーション_39"/><linearGradient id="名称未設定グラデーション_39-7" x1="319.09" y1="2506.5" x2="319.29" y2="2506.5" gradientTransform="matrix(0 -21.37 -21.37 0 54203.81 6876.27)" xlink:href="#名称未設定グラデーション_39"/><linearGradient id="新規グラデーションスウォッチ_2" data-name="新規グラデーションスウォッチ 2" x1="214.71" y1="2504.94" x2="214.9" y2="2504.94" gradientTransform="matrix(-344.25 0 0 344.25 74597.36 -862264.7)" gradientUnits="userSpaceOnUse"><stop offset="0" stop-color="#f5aa00"/><stop offset=".07" stop-color="#f6b000"/><stop offset=".16" stop-color="#f8c100"/><stop offset=".27" stop-color="#fcdd00"/><stop offset=".33" stop-color="#fff000"/><stop offset=".38" stop-color="#fde000"/><stop offset=".5" stop-color="#f8c200"/><stop offset=".61" stop-color="#f6b000"/><stop offset=".68" stop-color="#f5aa00"/><stop offset=".75" stop-color="#f6b000"/><stop offset=".84" stop-color="#f8c100"/><stop offset=".94" stop-color="#fcdd00"/><stop offset="1" stop-color="#fff000"/></linearGradient><linearGradient id="新規グラデーションスウォッチ_2-2" x1="214.71" y1="2505.26" x2="214.9" y2="2505.26" gradientTransform="matrix(-344.25 0 0 344.25 74592.35 -862374.2)" xlink:href="#新規グラデーションスウォッチ_2"/><linearGradient id="新規グラデーションスウォッチ_2-3" x1="214.71" y1="2505.14" x2="214.9" y2="2505.14" gradientTransform="matrix(-344.25 0 0 344.25 74594.3 -862330.08)" xlink:href="#新規グラデーションスウォッチ_2"/><linearGradient id="新規グラデーションスウォッチ_2-4" x1="214.71" y1="2504.96" x2="214.9" y2="2504.96" gradientTransform="matrix(-344.25 0 0 344.25 74597.09 -862267.06)" xlink:href="#新規グラデーションスウォッチ_2"/><linearGradient id="新規グラデーションスウォッチ_2-5" x1="214.71" y1="2505.14" x2="214.9" y2="2505.14" gradientTransform="matrix(-344.25 0 0 344.25 74595.52 -862325.55)" xlink:href="#新規グラデーションスウォッチ_2"/><linearGradient id="新規グラデーションスウォッチ_2-6" x1="214.71" y1="2505.06" x2="214.9" y2="2505.06" gradientTransform="matrix(-344.25 0 0 344.25 74596.68 -862300.82)" xlink:href="#新規グラデーションスウォッチ_2"/><linearGradient id="新規グラデーションスウォッチ_2-7" x1="214.71" y1="2504.95" x2="214.9" y2="2504.95" gradientTransform="matrix(-344.25 0 0 344.25 74598.34 -862261.33)" xlink:href="#新規グラデーションスウォッチ_2"/><linearGradient id="名称未設定グラデーション_44-7" x1="19.92" y1="2608.91" x2="20.12" y2="2608.91" gradientTransform="matrix(0 9.99 9.99 0 -25390.15 -138.4)" xlink:href="#名称未設定グラデーション_44"/><radialGradient id="名称未設定グラデーション_23" data-name="名称未設定グラデーション 23" cx="217.5" cy="2531.53" r=".19" gradientTransform="matrix(150.74 0 0 -107.16 -32143.92 271339.92)" gradientUnits="userSpaceOnUse"><stop offset="0" stop-color="#fbc600"/><stop offset="1" stop-color="#e84908"/></radialGradient><style>.cls-1,.cls-7,.cls-8,.cls-9{fill:none}.cls-2{fill:#e50012}.cls-3{fill:#fff}.cls-6{fill:#e6222e}.cls-7{stroke:#e6222e;stroke-width:5.48px}.cls-7,.cls-8,.cls-9{stroke-linecap:round;stroke-linejoin:round}.cls-8{stroke:#000;stroke-width:3.29px}.cls-9{stroke:#fff;stroke-width:.79px}.cls-10{fill:#fff000}</style></defs><g id="レイヤー_2" data-name="レイヤー 2"><g id="object"><circle class="cls-2" cx="603.53" cy="24.2" r="24.2"/><path class="cls-3" d="M592.65 23.16a8.62 8.62 0 00-1.38.07v-2.58a10.76 10.76 0 001.45.07h1a11.68 11.68 0 00-1.53-2.37l2.37-1.09a19.6 19.6 0 011.77 2.62l-1.68.84h2.44a21.44 21.44 0 001.37-3.47l2.68.84a26 26 0 01-1.23 2.63h.62a10.22 10.22 0 001.61-.09v2.6a9.55 9.55 0 00-1.37-.07h-.59v2.21h.82a10 10 0 001.46-.08v2.61a13 13 0 00-1.49-.09h-.78v3.8a14.82 14.82 0 00.09 1.94h-2.82a14.46 14.46 0 00.1-1.94v-3.8h-1.85a8.08 8.08 0 01-3.28 5.83 9.1 9.1 0 00-2-2.1 15.14 15.14 0 00.1 2h-2.73a14.22 14.22 0 00.11-2v-5.91a8.85 8.85 0 01-.89 1.15 16.76 16.76 0 00-1.1-3.11 11 11 0 002.61-4.24 11 11 0 00.64-2.29l2.73.73c-.21.55-.24.65-.35 1a20.76 20.76 0 01-1.11 2.78v9.81a5.05 5.05 0 002.56-3.65h-.86a7.3 7.3 0 00-1.24.07V25.3a7 7 0 001.2.07h1.1v-2.21zm3.21 0v2.21h1.7v-2.21zm21.96-.09a13 13 0 001.56-.07v2.24a10.31 10.31 0 00-1.27-.06h-2.37v.61h1.77a6.86 6.86 0 001.34-.06v2a13.26 13.26 0 00-1.34-.05h-1.77v.58h1.77a9.63 9.63 0 001.34 0v2a10.61 10.61 0 00-1.32-.05h-1.79v.65h2.4a7.37 7.37 0 001.31-.05V33c-.77-.06-1.44-.1-2.1-.1h-6.27v.62h-2.59a12.38 12.38 0 00.1-2.06V27.2a6.9 6.9 0 01-.59.8 10.86 10.86 0 00-.66-1.48v4.93a19 19 0 00.11 2.06h-2.77a14.58 14.58 0 00.1-2v-6a8 8 0 01-.9 1.12 13.34 13.34 0 00-.79-3.32 11 11 0 002.24-4.16 13.24 13.24 0 00.44-2l2.55.84v-.12h2.54c0 .4-.05.78-.05 1.12v.62h1.6v-.95a8.67 8.67 0 00-.09-1.32H615a9.74 9.74 0 00-.07 1.34v.93h1.62V19a9.93 9.93 0 000-1.09h2.61a11.2 11.2 0 00-.07 1.36v1.43a5.31 5.31 0 00.06 1.22h-4.47l2.25.38c-.22.41-.28.52-.45.79zm-8.32-1.17h-1.17a9.71 9.71 0 000-1.31v-2.47c-.1.28-.13.4-.24.71a20.47 20.47 0 01-.79 2.17v4.18a9.54 9.54 0 002.41-3.27zm2.84.38l-.12.21a6.6 6.6 0 01-.41.58h1.94a4.4 4.4 0 00.55-1.17H610zm1 3.51v-.61h-2.27v.61zm-2.27 2.45h2.27v-.58h-2.27zm0 2.53h2.27v-.65h-2.27z"/><g clip-path="url(#clip-path)"><path fill="url(#名称未設定グラデーション_23)" d="M607.73 44.2h67.15v33.9h-67.15z"/></g><path class="cls-6" d="M615.62 43.52h43.65v13.83h-43.65z"/><path class="cls-6" transform="rotate(-15.73 601.307 54.55)" d="M593.93 47.63H609v13.83h-15.07z"/><path class="cls-7" d="M665.85 47.71a2.56 2.56 0 00-1.57-3.09h-.23l-14-4.42-5.18 16.36L659.18 61l-1.07-.93h1.18l-.45-.49h.83l-.36-.42 1.85.57 4.51-11.54a2.54 2.54 0 00.16-.38zm-8.75 7.41l-5.86-1.85 2.11-6.67 6.41 2z"/><path class="cls-7" d="M665.85 47.71a2.56 2.56 0 00-1.57-3.09h-.23l-14-4.42-5.18 16.36L659.18 61l-1.07-.93h1.18l-.45-.49h.83l-.36-.42 1.85.57 4.51-11.54a2.54 2.54 0 00.16-.38zm-8.75 7.41l-5.86-1.85 2.11-6.67 6.41 2z"/><path class="cls-7" d="M665.85 47.71a2.56 2.56 0 00-1.57-3.09h-.23l-14-4.42-5.18 16.36L659.18 61l-1.07-.93h1.18l-.45-.49h.83l-.36-.42 1.85.57 4.51-11.54a2.54 2.54 0 00.16-.38zm-8.75 7.41l-5.86-1.85 2.11-6.67 6.41 2z"/><path class="cls-7" d="M645.39 41.44a2.55 2.55 0 00-2.66-2.19h-.17a1 1 0 00-.18 0L628.31 41l.6 5 11-1.33.53 7.16-10.16 1.23.6 5 14.53-1.67-1.68-.39 1.14-.37-.93-.34.88-.44-.51-.23 2-.29-.85-12.51a1.72 1.72 0 000-.32z"/><path class="cls-7" d="M645.39 41.44a2.55 2.55 0 00-2.66-2.19h-.17a1 1 0 00-.18 0L628.31 41l.6 5 11-1.33.53 7.16-10.16 1.23.6 5 14.53-1.67-1.68-.39 1.14-.37-.93-.34.88-.44-.51-.23 2-.29-.85-12.51a1.72 1.72 0 000-.32z"/><path class="cls-7" d="M645.39 41.44a2.55 2.55 0 00-2.66-2.19h-.17a1 1 0 00-.18 0L628.31 41l.6 5 11-1.33.53 7.16-10.16 1.23.6 5 14.53-1.67-1.68-.39 1.14-.37-.93-.34.88-.44-.51-.23 2-.29-.85-12.51a1.72 1.72 0 000-.32z"/><path class="cls-7" d="M629.08 45.38a2.53 2.53 0 00-2.3-2.59h-.24L611.9 42l-.9 17.16 15 .84-1.28-.63 1.14-.32-.56-.36.8-.23-.46-.32 1.94.08L629 45.87a2.87 2.87 0 00.05-.41zm-6.42 9.28l-6.13-.32.35-7 6.72.34z"/><path class="cls-7" d="M629.08 45.38a2.53 2.53 0 00-2.3-2.59h-.24L611.9 42l-.9 17.16 15 .84-1.28-.63 1.14-.32-.56-.36.8-.23-.46-.32 1.94.08L629 45.87a2.87 2.87 0 00.05-.41zm-6.42 9.28l-6.13-.32.35-7 6.72.34z"/><path class="cls-7" d="M629.08 45.38a2.53 2.53 0 00-2.3-2.59h-.24L611.9 42l-.9 17.16 15 .84-1.28-.63 1.14-.32-.56-.36.8-.23-.46-.32 1.94.08L629 45.87a2.87 2.87 0 00.05-.41zm-6.42 9.28l-6.13-.32.35-7 6.72.34z"/><path class="cls-7" d="M609.27 45.54a2.56 2.56 0 00-3-1.74h-.17l-.17.06-13.63 3.9 1.4 4.88 10.68-3.06 1.66 7-9.84 2.81 1.39 4.86 14.08-4-1.76-.15 1.07-.54-1-.19.81-.57-.55-.15 1.89-.59-2.78-12.16a1.88 1.88 0 00-.06-.31s-.01-.03-.02-.05z"/><path class="cls-7" d="M609.27 45.54a2.56 2.56 0 00-3-1.74h-.17l-.17.06-13.63 3.9 1.4 4.88 10.68-3.06 1.66 7-9.84 2.81 1.39 4.86 14.08-4-1.76-.15 1.07-.54-1-.19.81-.57-.55-.15 1.89-.59-2.78-12.16a1.88 1.88 0 00-.06-.31s-.01-.03-.02-.05z"/><path class="cls-7" d="M609.27 45.54a2.56 2.56 0 00-3-1.74h-.17l-.17.06-13.63 3.9 1.4 4.88 10.68-3.06 1.66 7-9.84 2.81 1.39 4.86 14.08-4-1.76-.15 1.07-.54-1-.19.81-.57-.55-.15 1.89-.59-2.78-12.16a1.88 1.88 0 00-.06-.31s-.01-.03-.02-.05zm56.58 2.17a2.56 2.56 0 00-1.57-3.09h-.23l-14-4.42-5.18 16.36L659.18 61l-1.07-.93h1.18l-.45-.49h.83l-.36-.42 1.85.57 4.51-11.54a2.54 2.54 0 00.16-.38zm-8.75 7.41l-5.86-1.85 2.11-6.67 6.41 2z"/><path class="cls-7" d="M665.85 47.71a2.56 2.56 0 00-1.57-3.09h-.23l-14-4.42-5.18 16.36L659.18 61l-1.07-.93h1.18l-.45-.49h.83l-.36-.42 1.85.57 4.51-11.54a2.54 2.54 0 00.16-.38zm-8.75 7.41l-5.86-1.85 2.11-6.67 6.41 2z"/><path class="cls-7" d="M665.85 47.71a2.56 2.56 0 00-1.57-3.09h-.23l-14-4.42-5.18 16.36L659.18 61l-1.07-.93h1.18l-.45-.49h.83l-.36-.42 1.85.57 4.51-11.54a2.54 2.54 0 00.16-.38zm-8.75 7.41l-5.86-1.85 2.11-6.67 6.41 2z"/><path class="cls-7" d="M645.39 41.44a2.55 2.55 0 00-2.66-2.19h-.17a1 1 0 00-.18 0L628.31 41l.6 5 11-1.33.53 7.16-10.16 1.23.6 5 14.53-1.67-1.68-.39 1.14-.37-.93-.34.88-.44-.51-.23 2-.29-.85-12.51a1.72 1.72 0 000-.32z"/><path class="cls-7" d="M645.39 41.44a2.55 2.55 0 00-2.66-2.19h-.17a1 1 0 00-.18 0L628.31 41l.6 5 11-1.33.53 7.16-10.16 1.23.6 5 14.53-1.67-1.68-.39 1.14-.37-.93-.34.88-.44-.51-.23 2-.29-.85-12.51a1.72 1.72 0 000-.32z"/><path class="cls-7" d="M645.39 41.44a2.55 2.55 0 00-2.66-2.19h-.17a1 1 0 00-.18 0L628.31 41l.6 5 11-1.33.53 7.16-10.16 1.23.6 5 14.53-1.67-1.68-.39 1.14-.37-.93-.34.88-.44-.51-.23 2-.29-.85-12.51a1.72 1.72 0 000-.32z"/><path class="cls-7" d="M629.08 45.38a2.53 2.53 0 00-2.3-2.59h-.24L611.9 42l-.9 17.16 15 .84-1.28-.63 1.14-.32-.56-.36.8-.23-.46-.32 1.94.08L629 45.87a2.87 2.87 0 00.05-.41zm-6.42 9.28l-6.13-.32.35-7 6.72.34z"/><path class="cls-7" d="M629.08 45.38a2.53 2.53 0 00-2.3-2.59h-.24L611.9 42l-.9 17.16 15 .84-1.28-.63 1.14-.32-.56-.36.8-.23-.46-.32 1.94.08L629 45.87a2.87 2.87 0 00.05-.41zm-6.42 9.28l-6.13-.32.35-7 6.72.34z"/><path class="cls-7" d="M629.08 45.38a2.53 2.53 0 00-2.3-2.59h-.24L611.9 42l-.9 17.16 15 .84-1.28-.63 1.14-.32-.56-.36.8-.23-.46-.32 1.94.08L629 45.87a2.87 2.87 0 00.05-.41zm-6.42 9.28l-6.13-.32.35-7 6.72.34z"/><path class="cls-7" d="M609.27 45.54a2.56 2.56 0 00-3-1.74h-.17l-.17.06-13.63 3.9 1.4 4.88 10.68-3.06 1.66 7-9.84 2.81 1.39 4.86 14.08-4-1.76-.15 1.07-.54-1-.19.81-.57-.55-.15 1.89-.59-2.78-12.16a1.88 1.88 0 00-.06-.31s-.01-.03-.02-.05z"/><path class="cls-7" d="M609.27 45.54a2.56 2.56 0 00-3-1.74h-.17l-.17.06-13.63 3.9 1.4 4.88 10.68-3.06 1.66 7-9.84 2.81 1.39 4.86 14.08-4-1.76-.15 1.07-.54-1-.19.81-.57-.55-.15 1.89-.59-2.78-12.16a1.88 1.88 0 00-.06-.31s-.01-.03-.02-.05z"/><path class="cls-7" d="M609.27 45.54a2.56 2.56 0 00-3-1.74h-.17l-.17.06-13.63 3.9 1.4 4.88 10.68-3.06 1.66 7-9.84 2.81 1.39 4.86 14.08-4-1.76-.15 1.07-.54-1-.19.81-.57-.55-.15 1.89-.59-2.78-12.16a1.88 1.88 0 00-.06-.31s-.01-.03-.02-.05zm57.34-.49l.39-5.42 6.63.8h.22a2.31 2.31 0 011.9 2.47.2.2 0 010 .07c0 .12-.4 2.89-.4 2.89zm22.56 13.51l-.77-.11 1.3-1.78-2.6-1.59-2 2.74a1.66 1.66 0 00-.23 2 2.56 2.56 0 00.7.62 2.47 2.47 0 00.89.3l2.25.29-.08.53 2.89.38.72-4.1-2.91-.17zm.61 6.17l.7.41-1.69.36 1 .55-1 .2 1.38.76-6.41-1a5.38 5.38 0 01-3.35-1.1 3.3 3.3 0 01-.84-2.86l.38-4-3.72 7.22-4.79-1.92 1.28-2.27-.71.09-.24-1.27-5.18.77-1.74-3.37 1.51-5.77-1.24-.13.34-4.94 8.08.94h.22a2.24 2.24 0 011.86 2.39v.07c0 .12-.37 2.52-.37 2.52l-4.45-.44-1 3.84 1.16-.16-.17-1.62 4.17-.57.41 2.54.67-1.36 4.2 1.25.08-1-4.67-.83 2.09-13 5.19 1a1 1 0 01.07-.35 1.16 1.16 0 011.1-.84.85.85 0 01-.24-1c.24-.87 1.24-.68 1.24-.68a1.29 1.29 0 010-1.15c.62-.92 2.31-.75 2.31-.75s-.75.14-.59.76 1.87.35 2.06 1.31a.82.82 0 01-.27.77s.83.2.83.83a1 1 0 01-.53.86.88.88 0 01.69.73.73.73 0 01-.15.68l1.53.28h.32a3.23 3.23 0 012.7 3.67v.11a3.07 3.07 0 01-.14.52l-2.21 9.14-1.23-.22.15-.19-3.57-2.18-1.14 1.55-.49-.08-.09.87-.6.81a2.18 2.18 0 00-.28 2.62 3.51 3.51 0 00.42.44l-.15 1.33 7.17.43-.31 2.45zm-1.85-13.45l-1.15-.21-.17.88 1.13.2zm.89-4l-1.17-.23-.22 1 1.17.21zm-6.3 3l-1.24-.28-.18.89 1.27.22zm.77-4l-1.2-.22-.2 1 1.2.21z"/><path class="cls-7" d="M666.61 45.05l.39-5.42 6.63.8h.22a2.31 2.31 0 011.9 2.47.2.2 0 010 .07c0 .12-.4 2.89-.4 2.89zm22.56 13.51l-.77-.11 1.3-1.78-2.6-1.59-2 2.74a1.66 1.66 0 00-.23 2 2.56 2.56 0 00.7.62 2.47 2.47 0 00.89.3l2.25.29-.08.53 2.89.38.72-4.1-2.91-.17zm.61 6.17l.7.41-1.69.36 1 .55-1 .2 1.38.76-6.41-1a5.38 5.38 0 01-3.35-1.1 3.3 3.3 0 01-.84-2.86l.38-4-3.72 7.22-4.79-1.92 1.28-2.27-.71.09-.24-1.27-5.18.77-1.74-3.37 1.51-5.77-1.24-.13.34-4.94 8.08.94h.22a2.24 2.24 0 011.86 2.39v.07c0 .12-.37 2.52-.37 2.52l-4.45-.44-1 3.84 1.16-.16-.17-1.62 4.17-.57.41 2.54.67-1.36 4.2 1.25.08-1-4.67-.83 2.09-13 5.19 1a1 1 0 01.07-.35 1.16 1.16 0 011.1-.84.85.85 0 01-.24-1c.24-.87 1.24-.68 1.24-.68a1.29 1.29 0 010-1.15c.62-.92 2.31-.75 2.31-.75s-.75.14-.59.76 1.87.35 2.06 1.31a.82.82 0 01-.27.77s.83.2.83.83a1 1 0 01-.53.86.88.88 0 01.69.73.73.73 0 01-.15.68l1.53.28h.32a3.23 3.23 0 012.7 3.67v.11a3.07 3.07 0 01-.14.52l-2.21 9.14-1.23-.22.15-.19-3.57-2.18-1.14 1.55-.49-.08-.09.87-.6.81a2.18 2.18 0 00-.28 2.62 3.51 3.51 0 00.42.44l-.15 1.33 7.17.43-.31 2.45zm-1.85-13.45l-1.15-.21-.17.88 1.13.2zm.89-4l-1.17-.23-.22 1 1.17.21zm-6.3 3l-1.24-.28-.18.89 1.27.22zm.77-4l-1.2-.22-.2 1 1.2.21z"/><path class="cls-7" d="M666.61 45.05l.39-5.42 6.63.8h.22a2.31 2.31 0 011.9 2.47.2.2 0 010 .07c0 .12-.4 2.89-.4 2.89zm22.56 13.51l-.77-.11 1.3-1.78-2.6-1.59-2 2.74a1.66 1.66 0 00-.23 2 2.56 2.56 0 00.7.62 2.47 2.47 0 00.89.3l2.25.29-.08.53 2.89.38.72-4.1-2.91-.17zm.61 6.17l.7.41-1.69.36 1 .55-1 .2 1.38.76-6.41-1a5.38 5.38 0 01-3.35-1.1 3.3 3.3 0 01-.84-2.86l.38-4-3.72 7.22-4.79-1.92 1.28-2.27-.71.09-.24-1.27-5.18.77-1.74-3.37 1.51-5.77-1.24-.13.34-4.94 8.08.94h.22a2.24 2.24 0 011.86 2.39v.07c0 .12-.37 2.52-.37 2.52l-4.45-.44-1 3.84 1.16-.16-.17-1.62 4.17-.57.41 2.54.67-1.36 4.2 1.25.08-1-4.67-.83 2.09-13 5.19 1a1 1 0 01.07-.35 1.16 1.16 0 011.1-.84.85.85 0 01-.24-1c.24-.87 1.24-.68 1.24-.68a1.29 1.29 0 010-1.15c.62-.92 2.31-.75 2.31-.75s-.75.14-.59.76 1.87.35 2.06 1.31a.82.82 0 01-.27.77s.83.2.83.83a1 1 0 01-.53.86.88.88 0 01.69.73.73.73 0 01-.15.68l1.53.28h.32a3.23 3.23 0 012.7 3.67v.11a3.07 3.07 0 01-.14.52l-2.21 9.14-1.23-.22.15-.19-3.57-2.18-1.14 1.55-.49-.08-.09.87-.6.81a2.18 2.18 0 00-.28 2.62 3.51 3.51 0 00.42.44l-.15 1.33 7.17.43-.31 2.45zm-1.85-13.45l-1.15-.21-.17.88 1.13.2zm.89-4l-1.17-.23-.22 1 1.17.21zm-6.3 3l-1.24-.28-.18.89 1.27.22zm.77-4l-1.2-.22-.2 1 1.2.21z"/><path class="cls-8" d="M665.85 47.71a2.56 2.56 0 00-1.57-3.09h-.23l-14-4.42-5.18 16.36L659.18 61l-1.07-.93h1.18l-.45-.49h.83l-.36-.42 1.85.57 4.51-11.54a2.54 2.54 0 00.16-.38zm-8.75 7.41l-5.86-1.85 2.11-6.67 6.41 2z"/><path class="cls-3" d="M665.85 47.71a2.56 2.56 0 00-1.57-3.09h-.23l-14-4.42-5.18 16.36L659.18 61l-1.07-.93h1.18l-.45-.49h.83l-.36-.42 1.85.57 4.51-11.54a2.54 2.54 0 00.16-.38v-.08m-8.75 7.41l-5.86-1.85 2.11-6.67 6.41 2z"/><path class="cls-8" d="M645.39 41.44a2.55 2.55 0 00-2.66-2.19h-.17a1 1 0 00-.18 0L628.31 41l.6 5 11-1.33.53 7.16-10.16 1.23.6 5 14.53-1.67-1.68-.39 1.14-.37-.93-.34.88-.44-.51-.23 2-.29-.85-12.51a1.72 1.72 0 000-.32z"/><path class="cls-3" d="M645.39 41.44a2.55 2.55 0 00-2.66-2.19h-.17a1 1 0 00-.18 0L628.31 41l.6 5 11-1.33.53 7.16-10.16 1.23.6 5 14.53-1.67-1.68-.39 1.14-.37-.93-.34.88-.44-.51-.23 2-.29-.85-12.51a1.72 1.72 0 000-.32v-.05"/><path class="cls-8" d="M629.08 45.38a2.53 2.53 0 00-2.3-2.59h-.24L611.9 42l-.9 17.16 15 .84-1.28-.63 1.14-.32-.56-.36.8-.23-.46-.32 1.94.08L629 45.87a2.87 2.87 0 00.05-.41zm-6.42 9.28l-6.13-.32.35-7 6.72.34z"/><path class="cls-3" d="M629.08 45.38a2.53 2.53 0 00-2.3-2.59h-.24L611.9 42l-.9 17.16 15 .84-1.28-.63 1.14-.32-.56-.36.8-.23-.46-.32 1.94.08L629 45.87a2.87 2.87 0 00.05-.41v-.08m-6.42 9.28l-6.13-.32.35-7 6.72.34z"/><path class="cls-8" d="M609.27 45.54a2.56 2.56 0 00-3-1.74h-.17l-.17.06-13.63 3.9 1.4 4.88 10.68-3.06 1.66 7-9.84 2.81 1.39 4.86 14.08-4-1.76-.15 1.07-.54-1-.19.81-.57-.55-.15 1.89-.59-2.78-12.16a1.88 1.88 0 00-.06-.31s-.01-.03-.02-.05z"/><path class="cls-3" d="M609.27 45.54a2.56 2.56 0 00-3-1.74h-.17l-.17.06-13.63 3.9 1.4 4.88 10.68-3.06 1.66 7-9.84 2.81 1.39 4.86 14.08-4-1.76-.15 1.07-.54-1-.19.81-.57-.55-.15 1.89-.59-2.78-12.16a1.88 1.88 0 00-.06-.31v-.05"/><path class="cls-8" d="M666.61 45.05l.39-5.42 6.63.8h.22a2.31 2.31 0 011.9 2.47.2.2 0 010 .07c0 .12-.4 2.89-.4 2.89zm22.56 13.51l-.77-.11 1.3-1.78-2.6-1.59-2 2.74a1.66 1.66 0 00-.23 2 2.56 2.56 0 00.7.62 2.47 2.47 0 00.89.3l2.25.29-.08.53 2.89.38.72-4.1-2.91-.17zm.61 6.17l.7.41-1.69.36 1 .55-1 .2 1.38.76-6.41-1a5.38 5.38 0 01-3.35-1.1 3.3 3.3 0 01-.84-2.86l.38-4-3.72 7.22-4.79-1.92 1.28-2.27-.71.09-.24-1.27-5.18.77-1.74-3.37 1.51-5.77-1.24-.13.34-4.94 8.08.94h.22a2.24 2.24 0 011.86 2.39v.07c0 .12-.37 2.52-.37 2.52l-4.45-.44-1 3.84 1.16-.16-.17-1.62 4.17-.57.41 2.54.67-1.36 4.2 1.25.08-1-4.67-.83 2.09-13 5.19 1a1 1 0 01.07-.35 1.16 1.16 0 011.1-.84.85.85 0 01-.24-1c.24-.87 1.24-.68 1.24-.68a1.29 1.29 0 010-1.15c.62-.92 2.31-.75 2.31-.75s-.75.14-.59.76 1.87.35 2.06 1.31a.82.82 0 01-.27.77s.83.2.83.83a1 1 0 01-.53.86.88.88 0 01.69.73.73.73 0 01-.15.68l1.53.28h.32a3.23 3.23 0 012.7 3.67v.11a3.07 3.07 0 01-.14.52l-2.21 9.14-1.23-.22.15-.19-3.57-2.18-1.14 1.55-.49-.08-.09.87-.6.81a2.18 2.18 0 00-.28 2.62 3.51 3.51 0 00.42.44l-.15 1.33 7.17.43-.31 2.45zm-1.85-13.45l-1.15-.21-.17.88 1.13.2zm.89-4l-1.17-.23-.22 1 1.17.21zm-6.3 3l-1.24-.28-.18.89 1.27.22zm.77-4l-1.2-.22-.2 1 1.2.21z"/><path class="cls-3" d="M666.61 45.05l.39-5.42 6.63.8h.22a2.31 2.31 0 011.9 2.47.2.2 0 010 .07c0 .12-.4 2.89-.4 2.89zm22.56 13.51l-.77-.11 1.3-1.78-2.6-1.59-2 2.74a1.66 1.66 0 00-.23 2 2.56 2.56 0 00.7.62 2.47 2.47 0 00.89.3l2.25.29-.08.53 2.89.38.72-4.1-2.91-.17zm.61 6.17l.7.41-1.69.36 1 .55-1 .2 1.38.76-6.41-1a5.38 5.38 0 01-3.35-1.1 3.3 3.3 0 01-.84-2.86l.38-4-3.72 7.22-4.79-1.92 1.28-2.27-.71.09-.24-1.27-5.18.77-1.74-3.37 1.51-5.77-1.24-.13.34-4.94 8.08.94h.22a2.24 2.24 0 011.86 2.39v.07c0 .12-.37 2.52-.37 2.52l-4.45-.44-1 3.84 1.16-.16-.17-1.62 4.17-.57.41 2.54.67-1.36 4.2 1.25.08-1-4.67-.83 2.09-13 5.19 1a1 1 0 01.07-.35 1.16 1.16 0 011.1-.84.85.85 0 01-.24-1c.24-.87 1.24-.68 1.24-.68a1.29 1.29 0 010-1.15c.62-.92 2.31-.75 2.31-.75s-.75.14-.59.76 1.87.35 2.06 1.31a.82.82 0 01-.27.77s.83.2.83.83a1 1 0 01-.53.86.88.88 0 01.69.73.73.73 0 01-.15.68l1.53.28h.32a3.23 3.23 0 012.7 3.67v.11a3.07 3.07 0 01-.14.52l-2.21 9.14-1.23-.22.15-.19-3.57-2.18-1.14 1.55-.49-.08-.09.87-.6.81a2.18 2.18 0 00-.28 2.62 3.51 3.51 0 00.42.44l-.15 1.33 7.17.43-.31 2.45zm-1.85-13.45l-1.15-.21-.17.88 1.13.2zm.89-4l-1.17-.23-.22 1 1.17.21zm-6.3 3l-1.24-.28-.18.89 1.27.22zm.77-4l-1.2-.22-.2 1 1.2.21z"/><path class="cls-9" d="M655.65 64.85c-.11-.12-.48-.3-.18.15a1.74 1.74 0 01.23 1.74c-.35.43-1.08.34-1 .14.14-.54-.31-.19-.26-.51s-.32-.34-.2-.47c.4-.41 0-.55-.08-.59s.49-.58.49-.58l-.63-.44.47-.55-.73-.32.41-.74a4 4 0 01-1-.09l-.08-.9L652 62l.63-.87-.47-2.13.91-.36-1-1.56-.41.75-.63-.45-.35.93-.67-.47-.36 1.63 1.06-.1.3 1.13-1.49.79.15-1.32h-1.38l.56-1.28-1.44-.08.46-1.53h-1.8l-.5-1.66-1.43.77 1.55-4-1.31 1-.46-1.56-.92 3.7h-.14l-.25-3.52-.67 1.5-.91-1.27.73 4.36-1.27-1-.36 2.08-1.86-.34.71 2.17-1.51.84-1 1.43-2.41-2.55 2.37 4.97 1-1.21.82 1.41-.33.71-1.74-.27.52 1.51-1.28.73 1.41.59-.48 1.53 1.28-.51.49 1.48 1-1.07.88 1.1.47-1.5 1.41.16-.45-1.66 1.08-1.21 3.25-.84s.4.22.78 1.44c.92 3-4.85 4.47-4.85 4.47l.66 2.08 1.14-.92.89 1.4L645 72l1.06.8.44-1.38 1.1.46.4-1.33 1.2.38v-1.54l1.48-.08-.37-1.56 1.37-.49-.68-1.47 1-.65s-1.14-.89-1-1.08.82.3 1 .48.39 1.36 1 2.35c.34.57 1.85 1.56 2.92.5s-.15-2.39-.27-2.54zm-15.23-6.51a1.7 1.7 0 012 .47 2 2 0 011.08-1.11 2 2 0 11-.85 3 1.74 1.74 0 01-.85.8 1.71 1.71 0 11-1.33-3.14zm-1.34 6.53l-1.64-2.62-.93 1.14-1-2.22 1.06.94.91-1.28 2 3.29zm-1.56-4.62l1.85 1.21-.45 1zm3.6 5.53l.28-1.11-1.24.32.32-.9 2-.71-.43 1.46h2.39zm2.72-1.32l.44-.48a2.56 2.56 0 01.79.44 4.28 4.28 0 01-1.23.04zm5.42 2.64a4.93 4.93 0 01-3 3.45 5.88 5.88 0 01-3.89.27 22 22 0 002.63-1.16c.63-.4 2.13-1.65 1.88-3.1a3.91 3.91 0 00-.87-1.68l1.72-.48h-2.24s-.74-.5-1-.61l1.86-2a3.27 3.27 0 012.13.93 4.32 4.32 0 01.78 4.38z"/><path d="M655.65 64.85c-.11-.12-.48-.3-.18.15a1.74 1.74 0 01.23 1.74c-.35.43-1.08.34-1 .14.14-.54-.31-.19-.26-.51s-.32-.34-.2-.47c.4-.41 0-.55-.08-.59s.49-.58.49-.58l-.63-.44.47-.55-.73-.32.41-.74a4 4 0 01-1-.09l-.08-.9L652 62l.63-.87-.47-2.13.91-.36-1-1.56-.41.75-.63-.45-.35.93-.67-.47-.36 1.63 1.06-.1.3 1.13-1.49.79.15-1.32h-1.38l.56-1.28-1.44-.08.46-1.53h-1.8l-.5-1.66-1.43.77 1.55-4-1.31 1-.46-1.56-.92 3.7h-.14l-.25-3.52-.67 1.5-.91-1.27.73 4.36-1.27-1-.36 2.08-1.86-.34.71 2.17-1.51.84-1 1.43-2.41-2.55 2.37 4.97 1-1.21.82 1.41-.33.71-1.74-.27.52 1.51-1.28.73 1.41.59-.48 1.53 1.28-.51.49 1.48 1-1.07.88 1.1.47-1.5 1.41.16-.45-1.66 1.08-1.21 3.25-.84s.4.22.78 1.44c.92 3-4.85 4.47-4.85 4.47l.66 2.08 1.14-.92.89 1.4L645 72l1.06.8.44-1.38 1.1.46.4-1.33 1.2.38v-1.54l1.48-.08-.37-1.56 1.37-.49-.68-1.47 1-.65s-1.14-.89-1-1.08.82.3 1 .48.39 1.36 1 2.35c.34.57 1.85 1.56 2.92.5s-.15-2.43-.27-2.54m-15.23-6.51a1.7 1.7 0 012 .47 2 2 0 011.08-1.11 2 2 0 11-.85 3 1.74 1.74 0 01-.85.8 1.71 1.71 0 11-1.33-3.14m-1.34 6.53l-1.64-2.62-.93 1.14-1-2.22 1.06.94.91-1.28 2 3.29zm-1.56-4.62l1.85 1.21-.45 1zm3.6 5.53l.28-1.11-1.24.32.32-.9 2-.71-.43 1.46h2.39zm2.72-1.32l.44-.48a2.56 2.56 0 01.79.44 4.28 4.28 0 01-1.23 0m5.42 2.64a4.93 4.93 0 01-3 3.45 5.88 5.88 0 01-3.89.27 22 22 0 002.58-1.14c.63-.4 2.13-1.65 1.88-3.1a3.91 3.91 0 00-.87-1.68l1.72-.48h-2.24s-.74-.5-1-.61l1.86-2a3.27 3.27 0 012.13.93 4.32 4.32 0 01.8 4.35"/><path class="cls-10" d="M636.57 62.11l-1.06-.94.99 2.22.95-1.14 1.63 2.62.44-.75-2.04-3.29-.91 1.28zm5.96 1.27l-2.05.71-.32.9 1.24-.32-.28 1.11 3.37-.92-2.39-.02.43-1.46z"/><path class="cls-2" d="M646.33 61.82l-1.86 2c.25.11 1 .61 1 .61h2.25l-1.73.48a3.91 3.91 0 01.87 1.68c.25 1.45-1.25 2.7-1.88 3.1a22 22 0 01-2.61 1.16 5.88 5.88 0 003.89-.27 4.93 4.93 0 003-3.45 4.32 4.32 0 00-.8-4.35 3.27 3.27 0 00-2.13-.93"/><path class="cls-3" d="M641.75 61.48a1.74 1.74 0 00.85-.8 2 2 0 10.85-3 2 2 0 00-1.08 1.11 1.7 1.7 0 00-2-.47 1.71 1.71 0 101.33 3.14m3-2.57a.82.82 0 11-.44 1.07.82.82 0 01.44-1.07m-4.11 1a.92.92 0 01.8-.82.91.91 0 01.87.71.21.21 0 11-.38.16.14.14 0 010-.07c0-.18-.2-.42-.43-.39a.55.55 0 00-.44.55.21.21 0 01-.11.15.21.21 0 01-.27-.29"/><path d="M645.36 60.42a.82.82 0 10-1.08-.44.82.82 0 001.08.44m-4.48-.22a.21.21 0 00.11-.15.55.55 0 01.44-.55c.23 0 .38.21.43.39a.14.14 0 000 .07.21.21 0 10.38-.16.91.91 0 00-.87-.71.92.92 0 00-.8.82.21.21 0 00.27.29"/><g clip-path="url(#clip-path-2)"><path transform="rotate(-66.94 632.047 61.773)" fill="url(#名称未設定グラデーション_44)" d="M629.69 59.41h4.67v4.76h-4.67z"/></g><g clip-path="url(#clip-path-3)"><path transform="rotate(-82.02 654.22 69.923)" fill="url(#名称未設定グラデーション_44-2)" d="M652.87 68.6h2.71v2.65h-2.71z"/></g><g clip-path="url(#clip-path-4)"><path transform="rotate(-38.38 621.954 62.682)" fill="url(#名称未設定グラデーション_44-3)" d="M620.45 61.25h2.89v2.89h-2.89z"/></g><g clip-path="url(#clip-path-5)"><path transform="rotate(-89.91 625.9 62.028)" fill="url(#名称未設定グラデーション_44-4)" d="M624.36 60.55h3.06v2.99h-3.06z"/></g><g clip-path="url(#clip-path-6)"><path fill="url(#名称未設定グラデーション_44-5)" d="M656.63 61.73h3.09v3.16h-3.09z"/></g><g clip-path="url(#clip-path-7)"><path transform="rotate(-50.72 657.813 69.264)" fill="url(#名称未設定グラデーション_44-6)" d="M656.71 68.12h2.26v2.25h-2.26z"/></g><g clip-path="url(#clip-path-8)"><path fill="url(#名称未設定グラデーション_39)" d="M648.67 53.55h2.85v2.86h-2.85z"/></g><g clip-path="url(#clip-path-9)"><path fill="url(#名称未設定グラデーション_39-2)" d="M658.83 55.32h2.5v2.56h-2.5z"/></g><g clip-path="url(#clip-path-10)"><path fill="url(#名称未設定グラデーション_39-3)" d="M653.44 55.38h4.1v4.06h-4.1z"/></g><g clip-path="url(#clip-path-11)"><path fill="url(#名称未設定グラデーション_39-4)" d="M619.86 55.37h4.12v4.02h-4.12z"/></g><g clip-path="url(#clip-path-12)"><path fill="url(#名称未設定グラデーション_39-5)" d="M624.46 53.17h2.77v2.78h-2.77z"/></g><g clip-path="url(#clip-path-13)"><path fill="url(#名称未設定グラデーション_39-6)" d="M631.37 55.39h2.24v2.13h-2.24z"/></g><g clip-path="url(#clip-path-14)"><path fill="url(#名称未設定グラデーション_39-7)" d="M634.26 52.67h3.98v4.13h-3.98z"/></g><path d="M668.47 35.44l.65.15-.12.41h.33v.45h.56l.66.09v.65l-.72-.09-.63-.07v-.45h-.37c-.11.34-.23.68-.37 1s-.28.65-.43 1l-.64-.32c.16-.3.3-.59.43-.87a7.81 7.81 0 00.33-.82l-.46-.06v-.65l.63.09zm1.78 2.56l.24.65a2.09 2.09 0 01-.43.11 2.06 2.06 0 01-.43 0 1.12 1.12 0 01-.66-.29.7.7 0 01-.16-.6.4.4 0 010-.15 1.16 1.16 0 010-.18l.61.13a.13.13 0 000 .08.64.64 0 000 .07.26.26 0 000 .2.34.34 0 00.21.09.72.72 0 00.25 0zm-.45-2.28l.27-.08a1.28 1.28 0 01.11.2 1.57 1.57 0 01.09.23l-.28.08c0-.06 0-.13-.07-.21s-.07-.19-.12-.27zm.55.18l.27-.08a1.32 1.32 0 01.12.2c0 .07 0 .15.08.23l-.28.08a1.72 1.72 0 00-.07-.21c-.04-.12-.07-.19-.12-.27zm2.65.21l.69.08v.3l.49.1-.15.58-.4-.08v.21h.72v.61h-.77l-.07.37.25.15c.11.07.21.16.32.24l-.45.57-.19-.19-.17-.13a.67.67 0 01-.3.28 1.2 1.2 0 01-.48 0 1.11 1.11 0 01-.59-.26.56.56 0 01-.18-.48.6.6 0 01.27-.43.87.87 0 01.59-.1h.29v-.17l-.58-.06-.64-.08.07-.63.68.09.55.06v-.27l-.85-.08.09-.62.79.11zm-.3 2.43l-.1-.08a.25.25 0 00-.11 0 .12.12 0 00-.1 0 .1.1 0 000 .08.11.11 0 000 .11.23.23 0 00.12.06.24.24 0 00.12 0 .31.31 0 00.06-.17zm3.3-1.89l.7.21a7.83 7.83 0 00-.24.8c-.06.25-.11.49-.14.71a.68.68 0 000 .42.4.4 0 00.32.17 1 1 0 00.59-.11 1.8 1.8 0 00.6-.47l.46.53a2.67 2.67 0 01-.88.63 1.71 1.71 0 01-.88.13 1 1 0 01-.76-.43 1.24 1.24 0 01-.17-.94c0-.15.06-.37.12-.65s.14-.65.28-1zm3.56.63l.65.29a2.25 2.25 0 00-.21.43 2.37 2.37 0 00-.11.46 1.51 1.51 0 000 .61c0 .15.11.23.18.24s.08 0 .12-.06a1 1 0 00.1-.21l.49.39a1.06 1.06 0 01-.34.48.62.62 0 01-.45.12.8.8 0 01-.61-.51 2 2 0 01-.16-1.18 3.46 3.46 0 01.11-.52 4.63 4.63 0 01.23-.54zm1.62.92l.64-.21c.1.21.2.42.29.64s.16.43.23.65l-.66.21c-.06-.21-.13-.43-.21-.65s-.18-.43-.29-.64z" stroke-width="1.66" stroke="#000" stroke-linecap="round" stroke-linejoin="round" fill="none"/><path class="cls-3" d="M668.47 35.44l.65.15-.12.41h.33v.45h.56l.66.09v.65l-.72-.09-.63-.07v-.45h-.37c-.11.34-.23.68-.37 1s-.28.65-.43 1l-.64-.32c.16-.3.3-.59.43-.87a7.81 7.81 0 00.33-.82l-.46-.06v-.65l.63.09zm1.78 2.56l.24.65a2.09 2.09 0 01-.43.11 2.06 2.06 0 01-.43 0 1.12 1.12 0 01-.66-.29.7.7 0 01-.16-.6.4.4 0 010-.15 1.16 1.16 0 010-.18l.61.13a.13.13 0 000 .08.64.64 0 000 .07.26.26 0 000 .2.34.34 0 00.21.09.72.72 0 00.25 0l.3-.09m-.45-2.28l.27-.08a1.28 1.28 0 01.11.2 1.57 1.57 0 01.09.23l-.28.08c0-.06 0-.13-.07-.21s-.07-.14-.12-.22m.55.18l.27-.08a1.32 1.32 0 01.12.2c0 .07 0 .15.08.23l-.28.08a1.72 1.72 0 00-.07-.21c0-.07-.07-.14-.12-.22m2.72.19l.69.08v.3l.49.1-.15.58-.4-.08v.21h.72v.61h-.77l-.07.37.25.15c.11.07.21.16.32.24l-.45.57-.19-.19-.17-.13a.67.67 0 01-.3.28 1.2 1.2 0 01-.48 0 1.11 1.11 0 01-.59-.26.56.56 0 01-.18-.48.6.6 0 01.27-.43.87.87 0 01.59-.1h.29v-.17l-.58-.06-.64-.08.07-.63.68.09.55.06v-.27l-.85-.08.09-.62.79.11zm-.3 2.43l-.1-.08a.25.25 0 00-.11 0 .12.12 0 00-.1 0 .1.1 0 000 .08.11.11 0 000 .11.23.23 0 00.12.06.24.24 0 00.12 0 .31.31 0 00.08-.12m3.29-1.94l.7.21a7.83 7.83 0 00-.24.8c-.06.25-.11.49-.14.71a.68.68 0 000 .42.4.4 0 00.32.17 1 1 0 00.59-.11 1.8 1.8 0 00.6-.47l.46.53a2.67 2.67 0 01-.88.63 1.71 1.71 0 01-.88.13 1 1 0 01-.76-.43 1.24 1.24 0 01-.17-.94c0-.15.06-.37.12-.65s.14-.61.25-1m3.59.63l.65.29a2.25 2.25 0 00-.21.43 2.37 2.37 0 00-.11.46 1.51 1.51 0 000 .61c0 .15.11.23.18.24s.08 0 .12-.06a1 1 0 00.1-.21l.49.39a1.06 1.06 0 01-.34.48.62.62 0 01-.45.12.8.8 0 01-.61-.51 2 2 0 01-.16-1.18 3.46 3.46 0 01.11-.52 4.63 4.63 0 01.19-.56m1.62.92l.64-.21c.1.21.2.42.29.64s.16.43.23.65l-.66.21c-.06-.21-.13-.43-.21-.65s-.18-.43-.29-.64"/><path d="M670.1 79.48a2.75 2.75 0 01-2.74-2.74v-2.69a2.72 2.72 0 011.58-2.48v-6.33a2.74 2.74 0 012.74-2.74H674a2.77 2.77 0 011.65-.55h2.77a2.74 2.74 0 012.74 2.74v.12h2.25a2.74 2.74 0 012.74 2.74v1.56c0 1.2 0 2.3-.11 3.26a7.15 7.15 0 01-1.6 4v.06a7.77 7.77 0 01-2.17 1.78 9.15 9.15 0 01-3.86 1.11h-2.72a2.71 2.71 0 01-2-.93 6.68 6.68 0 01-3.46 1m-1.68-8.34zM608.71 80H607a2.73 2.73 0 01-2.74-2.73V74.7A2.74 2.74 0 01607 72h1.4a8.48 8.48 0 002-.23 3.37 3.37 0 001.08-.44 1 1 0 00.46-.55v-.14h-6.8a2.74 2.74 0 01-2.74-2.74v-2.57a2.74 2.74 0 012.74-2.74h12.58a2.74 2.74 0 012.74 2.74v3.18a13.61 13.61 0 01-1.1 6 9 9 0 01-2.65 3.2 10.35 10.35 0 01-3.88 1.74 17.1 17.1 0 01-4.12.52m27.97 1.15a2.72 2.72 0 01-1.48-.44l-3.42-2.2a13.27 13.27 0 01-2.35 1.28 19.42 19.42 0 01-5 1.29 2.72 2.72 0 01-3.08-2.72V75.6a2.74 2.74 0 012.42-2.72 7.3 7.3 0 003.31-1.06h-2.19a2.73 2.73 0 01-2.73-2.74v-2.6a2.74 2.74 0 012.73-2.74H635a2.7 2.7 0 012 .86 2.75 2.75 0 01.76 2 20.28 20.28 0 01-.62 4.18c-.1.4-.22.8-.36 1.19l1.31.77a2.75 2.75 0 011.35 2.36v3.26a2.74 2.74 0 01-1.43 2.4 2.67 2.67 0 01-1.31.34"/><path d="M657.48 82.78a2.74 2.74 0 01-2.73-2.78v-2.83a2.74 2.74 0 012-2.65 1.51 1.51 0 00.05-.28v-6.18a2.74 2.74 0 012.74-2.74h2.7a2.73 2.73 0 012.74-2.62h5.22a2.74 2.74 0 012.8 2.74v2.25a2.74 2.74 0 01-2.41 2.72v3.23a6.23 6.23 0 00.13.91 2.74 2.74 0 011.92 2.62V80a2.73 2.73 0 01-3 2.72 7.7 7.7 0 01-5.9-3.38 7.28 7.28 0 01-2.21 2.11 9.92 9.92 0 01-3.56 1.25 2.38 2.38 0 01-.46 0m-32.79.76h-8.92a2.79 2.79 0 01-2.73-2.85v-2a2.88 2.88 0 011.06-2.26 2.9 2.9 0 01-.49-1.63v-2a2.8 2.8 0 012.73-2.86h8.55a2.92 2.92 0 012.87 2.86l-.94 2a2.89 2.89 0 01-.48 1.62 2.9 2.9 0 011.08 2.27v2a2.79 2.79 0 01-2.73 2.85"/><path d="M639.9 84.41h-1.19a2.73 2.73 0 01-2.71-2.73v-2.51a3 3 0 01.08-.68 2.76 2.76 0 01-1.61-2.49v-2.52a2.74 2.74 0 011-2.1v-1.67a2.74 2.74 0 012.71-2.71h11.35a2.73 2.73 0 012.74 2.74v1.71a2.74 2.74 0 01.93 2.06V76a2.74 2.74 0 01-2.74 2.74h-2.15a6.07 6.07 0 01-1.83 3.51 6.23 6.23 0 01-1.82 1.28 7.88 7.88 0 01-1.9.64 8.24 8.24 0 01-1 .16c-.28 0-.58.06-.9.07h-1" fill="#231815"/><path d="M639.9 84.41h-1.19a2.73 2.73 0 01-2.71-2.73v-2.51a3 3 0 01.08-.68 2.76 2.76 0 01-1.61-2.49v-2.52a2.74 2.74 0 011-2.1v-1.67a2.74 2.74 0 012.71-2.71h11.35a2.73 2.73 0 012.74 2.74v1.71a2.74 2.74 0 01.93 2.06V76a2.74 2.74 0 01-2.74 2.74h-2.15a6.07 6.07 0 01-1.83 3.51 6.23 6.23 0 01-1.82 1.28 7.88 7.88 0 01-1.9.64 8.24 8.24 0 01-1 .16c-.28 0-.58.06-.9.07h-1"/><path d="M655.59 85h-2.15a2.88 2.88 0 01-2.88-2.88v-.36h-1a2.87 2.87 0 01-2.87-2.88v-2a2.86 2.86 0 012.9-2.88h.85c.37-.19.82-.45 1.34-.77l.48-.3.58-.34h.07c.53-.29 1-.57 1.43-.83a6.57 6.57 0 013.61-.89h.52a2.87 2.87 0 012.87 2.88v2a2.86 2.86 0 01-2.87 2.87v3.58a2.88 2.88 0 01-2.88 2.8"/><g clip-path="url(#clip-path-15)"><path transform="rotate(-23.27 676.796 70.71)" fill="url(#新規グラデーションスウォッチ_2)" d="M666.46 60.75h20.58v19.93h-20.58z"/></g><g clip-path="url(#clip-path-16)"><path transform="rotate(-23.27 611.492 71.312)" fill="url(#新規グラデーションスウォッチ_2-2)" d="M601.51 61.53h19.89v19.56h-19.89z"/></g><path d="M605.16 65.33h12.58v3.19a11.07 11.07 0 01-.83 4.85 6.35 6.35 0 01-1.91 2.24 7.77 7.77 0 01-2.88 1.24 14.23 14.23 0 01-3.75.44H607V74.7h1.4a11 11 0 002.66-.32 6.27 6.27 0 001.93-.81 3.72 3.72 0 001.55-2 9.68 9.68 0 00.41-3.11v-.65h-9.76z"/><g clip-path="url(#clip-path-17)"><path transform="rotate(-23.27 629.792 72.422)" fill="url(#新規グラデーションスウォッチ_2-3)" d="M619.24 62.43h21.03v20h-21.03z"/></g><g clip-path="url(#clip-path-18)"><path transform="rotate(-23.27 663.924 72.742)" fill="url(#新規グラデーションスウォッチ_2-4)" d="M653.31 61.71h21.13v22.1h-21.13z"/></g><g clip-path="url(#clip-path-19)"><path transform="rotate(-23.27 620.34 76.905)" fill="url(#新規グラデーションスウォッチ_2-5)" d="M612.87 69.84h14.85v14.14h-14.85z"/></g><path d="M616.38 73.1h7.8v1.96h-2.84v3.72h3.43v1.95h-8.96v-1.95h3.45v-3.72h-2.88V73.1z"/><g clip-path="url(#clip-path-20)"><path transform="rotate(-23.27 643.88 75.677)" fill="url(#新規グラデーションスウォッチ_2-6)" d="M633.58 65.78h20.51v19.83h-20.51z"/></g><g clip-path="url(#clip-path-21)"><path transform="rotate(-23.27 654.058 77.874)" fill="url(#新規グラデーションスウォッチ_2-7)" d="M646.39 70.34h15.28v15.08h-15.28z"/></g><path d="M649.59 76.85h.78a3.14 3.14 0 001.37-.36c.45-.23 1-.52 1.56-.89l.46-.29.52-.3q.88-.48 1.59-.93a4 4 0 012.08-.44h.52v2h-.37a6.11 6.11 0 00-.73.06 2.69 2.69 0 00-.54.14 3.14 3.14 0 00-.53.28l-.58.34-.07.05h-.06v5.55h-2.15v-4.19a6 6 0 01-1.48.77 5 5 0 01-1.57.24h-.8zM624.94 66.4H635a17.79 17.79 0 01-.5 3.6 10.92 10.92 0 01-1.25 3l3.45 2v3.3l-5.06-3.3a10.48 10.48 0 01-3.25 2.11 16 16 0 01-4.26 1.1v-2.69a9.25 9.25 0 005.12-2 7.81 7.81 0 002.46-4.52h-6.77zm49.17-1.13v7.3a5.29 5.29 0 01-.26 1.37 4.37 4.37 0 01-3.85 2.84v-2.7a1.93 1.93 0 00.68-.27 2 2 0 00.39-.37l.16-.2a1 1 0 00.17-.33 3.06 3.06 0 00.12-.58c0-.24 0-.56.06-1v-6.06zm4.17-.55v9.1h.16a1.74 1.74 0 00.82-.27 2.87 2.87 0 00.84-.74 2.57 2.57 0 00.47-1.27 16.86 16.86 0 00.08-1.72v-2.24h2.62v1.56c0 1.14 0 2.17-.09 3.06a4.56 4.56 0 01-1 2.5 5 5 0 01-1.42 1.15 4.72 4.72 0 01-1.25.52 5.6 5.6 0 01-1.39.25h-2.6v-11.9zm-13.24-.52l1.03.9 1.33-.35-.53 1.26.74 1.15-1.37-.11-.86 1.06-.32-1.33-1.27-.5 1.17-.71.08-1.37z"/><path d="M667.47 65.87l1.37-.02.76-1.14.44 1.3 1.32.37-1.1.82.05 1.37-1.11-.79-1.29.47.41-1.31-.85-1.07zm-30.18 7.75h13.26v2.52h-4.7c0 .74-.08 1.49-.16 2.26a3.76 3.76 0 01-2.12 2.79 5 5 0 01-1.27.43 6.6 6.6 0 01-.75.13h-2.76V79.3h1.61a3.16 3.16 0 001.36-.33 1.79 1.79 0 00.8-.81 4.65 4.65 0 00.33-2h-5.6zm1-3.78h11.36v2.53h-11.39z"/><g clip-path="url(#clip-path-22)"><path class="cls-9" d="M655.65 64.85c-.11-.12-.48-.3-.18.15a1.74 1.74 0 01.23 1.74c-.35.43-1.08.34-1 .14.14-.54-.31-.19-.26-.51s-.32-.34-.2-.47c.4-.41 0-.55-.08-.59s.49-.58.49-.58l-.63-.44.47-.55-.73-.32.41-.74a4 4 0 01-1-.09l-.08-.9L652 62l.63-.87-.47-2.13.91-.36-1-1.56-.41.75-.63-.45-.35.93-.67-.47-.36 1.63 1.06-.1.3 1.13-1.49.79.15-1.32h-1.38l.56-1.28-1.44-.08.46-1.53h-1.8l-.5-1.66-1.43.77 1.55-4-1.31 1-.46-1.56-.92 3.7h-.14l-.25-3.52-.67 1.5-.91-1.27.73 4.36-1.27-1-.36 2.08-1.86-.34.71 2.17-1.51.84-1 1.43-2.41-2.55 2.37 4.97 1-1.21.82 1.41-.33.71-1.74-.27.52 1.51-1.28.73 1.41.59-.48 1.53 1.28-.51.49 1.48 1-1.07.88 1.1.47-1.5 1.41.16-.45-1.66 1.08-1.21 3.25-.84s.4.22.78 1.44c.92 3-4.85 4.47-4.85 4.47l.66 2.08 1.14-.92.89 1.4L645 72l1.06.8.44-1.38 1.1.46.4-1.33 1.2.38v-1.54l1.48-.08-.37-1.56 1.37-.49-.68-1.47 1-.65s-1.14-.89-1-1.08.82.3 1 .48.39 1.36 1 2.35c.34.57 1.85 1.56 2.92.5s-.15-2.39-.27-2.54zm-15.23-6.51a1.7 1.7 0 012 .47 2 2 0 011.08-1.11 2 2 0 11-.85 3 1.74 1.74 0 01-.85.8 1.71 1.71 0 11-1.33-3.14zm-1.34 6.53l-1.64-2.62-.93 1.14-1-2.22 1.06.94.91-1.28 2 3.29zm-1.56-4.62l1.85 1.21-.45 1zm3.6 5.53l.28-1.11-1.24.32.32-.9 2-.71-.43 1.46h2.39zm2.72-1.32l.44-.48a2.56 2.56 0 01.79.44 4.28 4.28 0 01-1.23.04zm5.42 2.64a4.93 4.93 0 01-3 3.45 5.88 5.88 0 01-3.89.27 22 22 0 002.63-1.16c.63-.4 2.13-1.65 1.88-3.1a3.91 3.91 0 00-.87-1.68l1.72-.48h-2.24s-.74-.5-1-.61l1.86-2a3.27 3.27 0 012.13.93 4.32 4.32 0 01.78 4.38z"/><path d="M655.65 64.85c-.11-.12-.48-.3-.18.15a1.74 1.74 0 01.23 1.74c-.35.43-1.08.34-1 .14.14-.54-.31-.19-.26-.51s-.32-.34-.2-.47c.4-.41 0-.55-.08-.59s.49-.58.49-.58l-.63-.44.47-.55-.73-.32.41-.74a4 4 0 01-1-.09l-.08-.9L652 62l.63-.87-.47-2.13.91-.36-1-1.56-.41.75-.63-.45-.35.93-.67-.47-.36 1.63 1.06-.1.3 1.13-1.49.79.15-1.32h-1.38l.56-1.28-1.44-.08.46-1.53h-1.8l-.5-1.66-1.43.77 1.55-4-1.31 1-.46-1.56-.92 3.7h-.14l-.25-3.52-.67 1.5-.91-1.27.73 4.36-1.27-1-.36 2.08-1.86-.34.71 2.17-1.51.84-1 1.43-2.41-2.55 2.37 4.97 1-1.21.82 1.41-.33.71-1.74-.27.52 1.51-1.28.73 1.41.59-.48 1.53 1.28-.51.49 1.48 1-1.07.88 1.1.47-1.5 1.41.16-.45-1.66 1.08-1.21 3.25-.84s.4.22.78 1.44c.92 3-4.85 4.47-4.85 4.47l.66 2.08 1.14-.92.89 1.4L645 72l1.06.8.44-1.38 1.1.46.4-1.33 1.2.38v-1.54l1.48-.08-.37-1.56 1.37-.49-.68-1.47 1-.65s-1.14-.89-1-1.08.82.3 1 .48.39 1.36 1 2.35c.34.57 1.85 1.56 2.92.5s-.15-2.43-.27-2.54m-15.23-6.51a1.7 1.7 0 012 .47 2 2 0 011.08-1.11 2 2 0 11-.85 3 1.74 1.74 0 01-.85.8 1.71 1.71 0 11-1.33-3.14m-1.34 6.53l-1.64-2.62-.93 1.14-1-2.22 1.06.94.91-1.28 2 3.29zm-1.56-4.62l1.85 1.21-.45 1zm3.6 5.53l.28-1.11-1.24.32.32-.9 2-.71-.43 1.46h2.39zm2.72-1.32l.44-.48a2.56 2.56 0 01.79.44 4.28 4.28 0 01-1.23 0m5.42 2.64a4.93 4.93 0 01-3 3.45 5.88 5.88 0 01-3.89.27 22 22 0 002.58-1.14c.63-.4 2.13-1.65 1.88-3.1a3.91 3.91 0 00-.87-1.68l1.72-.48h-2.24s-.74-.5-1-.61l1.86-2a3.27 3.27 0 012.13.93 4.32 4.32 0 01.8 4.35"/><path class="cls-10" d="M636.57 62.11l-1.06-.94.99 2.22.95-1.14 1.63 2.62.44-.75-2.04-3.29-.91 1.28zm5.96 1.27l-2.05.71-.32.9 1.24-.32-.28 1.11 3.37-.92-2.39-.02.43-1.46z"/><path class="cls-2" d="M646.33 61.82l-1.86 2c.25.11 1 .61 1 .61h2.25l-1.73.48a3.91 3.91 0 01.87 1.68c.25 1.45-1.25 2.7-1.88 3.1a22 22 0 01-2.61 1.16 5.88 5.88 0 003.89-.27 4.93 4.93 0 003-3.45 4.32 4.32 0 00-.8-4.35 3.27 3.27 0 00-2.13-.93"/><path class="cls-3" d="M641.75 61.48a1.74 1.74 0 00.85-.8 2 2 0 10.85-3 2 2 0 00-1.08 1.11 1.7 1.7 0 00-2-.47 1.71 1.71 0 101.33 3.14m3-2.57a.82.82 0 11-.44 1.07.82.82 0 01.44-1.07m-4.11 1a.92.92 0 01.8-.82.91.91 0 01.87.71.21.21 0 11-.38.16.14.14 0 010-.07c0-.18-.2-.42-.43-.39a.55.55 0 00-.44.55.21.21 0 01-.11.15.21.21 0 01-.27-.29"/><path d="M645.36 60.42a.82.82 0 10-1.08-.44.82.82 0 001.08.44m-4.48-.22a.21.21 0 00.11-.15.55.55 0 01.44-.55c.23 0 .38.21.43.39a.14.14 0 000 .07.21.21 0 10.38-.16.91.91 0 00-.87-.71.92.92 0 00-.8.82.21.21 0 00.27.29"/></g><g clip-path="url(#clip-path-23)"><path transform="rotate(-26.85 663.479 61.459)" fill="url(#名称未設定グラデーション_44-7)" d="M662.23 60.17h2.55v2.57h-2.55z"/></g><path d="M662.6 68.12v4.22c0 1.11 0 2.08-.11 2.92a5.31 5.31 0 01-.61 2.18 4.73 4.73 0 01-1.68 1.78 7.24 7.24 0 01-2.58.89v-2.88a2.18 2.18 0 001-.47 2.45 2.45 0 00.8-1.11 4 4 0 00.25-1.28v-6.25zm5.4.36v5.29a9.06 9.06 0 00.34 2 2.11 2.11 0 001.71 1.43v2.88a5.38 5.38 0 01-3.38-1.52 4.85 4.85 0 01-1.26-2.31 9.13 9.13 0 01-.24-1.8v-6zM17.72 85a1.54 1.54 0 01-.87-.27L5.72 76.89a1.5 1.5 0 01-.51-1.81l8.4-19.87L.76 48a1.51 1.51 0 01-.69-1.76L4 33.93a1.51 1.51 0 011.55-1l17.49 1.5.37-1.81a1.5 1.5 0 011.68-1.18 24.53 24.53 0 005.57 0 10.33 10.33 0 005.64-2.1 33.16 33.16 0 01-11.77.08 1.45 1.45 0 01-1-.61 1.52 1.52 0 01-.24-1.15l2.22-11.36A1.52 1.52 0 0127 15.06L40.5 15a1.5 1.5 0 011.5 1.17l3.94 18 16.43-1.59a1.51 1.51 0 011.57 1L68 45.89a1.51 1.51 0 01-.67 1.77L54.52 55l8.59 19.8a1.51 1.51 0 01-.5 1.82l-11.06 7.94a1.49 1.49 0 01-1.88-.11L34.14 70.24 18.74 84.6a1.51 1.51 0 01-1.02.4zm.42-2.1zM7.49 75.4l10.16 7.16 15.46-14.42a1.51 1.51 0 012 0L50.73 82.4l10.09-7.25-8.61-19.85a1.5 1.5 0 01.63-1.9L65.66 46 62 34.91l-16.49 1.6a1.5 1.5 0 01-1.61-1.18l-3.98-18.09-12.29.06-2 10a29.92 29.92 0 0011.42-.47 1.82 1.82 0 012 .51 1.77 1.77 0 01.18 1.82c-.78 1.72-3.42 3.92-8.33 4.46a28.77 28.77 0 01-5.44.07l-.37 1.82a1.45 1.45 0 01-1.56 1.16L6 35.18 2.38 46.32l12.9 7.26a1.5 1.5 0 01.64 1.89zm27.14-5.63zM54 55.34zm-40.1-.74zm52.32-8.88zM23.74 34.45zm4-17.75z"/><path class="cls-6" d="M45.48 36.51a1.5 1.5 0 01-1.61-1.18l-3.95-18.09-12.29.06-2 10a29.92 29.92 0 0011.42-.47 1.82 1.82 0 012 .51 1.77 1.77 0 01.18 1.82c-.78 1.72-3.42 3.92-8.33 4.46a28.77 28.77 0 01-5.44.07l-.37 1.82a1.45 1.45 0 01-1.56 1.16L6 35.18 2.38 46.32l12.9 7.26a1.5 1.5 0 01.64 1.89L7.49 75.4l10.16 7.16 15.46-14.42a1.51 1.51 0 012 0L50.73 82.4l10.09-7.25-8.61-19.85a1.5 1.5 0 01.63-1.9L65.66 46 62 34.91z"/><path d="M30.32 27.09a.6.6 0 01-.57-.76 33 33 0 001.34-7.83.59.59 0 01.62-.56.59.59 0 01.56.62 34.17 34.17 0 01-1.39 8.11.58.58 0 01-.56.42zm7.38-3.93a.94.94 0 11-1.86 0 .94.94 0 111.86 0zm-9.82-2.6a.74.74 0 10.72-.87.8.8 0 00-.72.87z"/><path class="cls-3" d="M26.28 42.66v.8a2.6 2.6 0 01-2.21 1 2.68 2.68 0 01-1.92-.65 2.23 2.23 0 01-.74-1.74 2.28 2.28 0 01.66-1.69 2.38 2.38 0 011.73-.65 2.59 2.59 0 011 .17 2.28 2.28 0 01.8.53 2.24 2.24 0 01.5.82 3.7 3.7 0 01.17 1.14h-2.4a1 1 0 00.44.55 1.24 1.24 0 00.69.2 1.73 1.73 0 001.28-.48zm-2.55-1h1.11a.88.88 0 00-.17-.53.49.49 0 00-.4-.2.54.54 0 00-.38.19.85.85 0 00-.16.5zm5.6-1.85v.58a1.92 1.92 0 011.42-.62 1.63 1.63 0 011.23.44 1.81 1.81 0 01.43 1.32v2.84h-2.2V41.7c0-.38-.14-.56-.43-.56a.72.72 0 00-.42.15v3.09H27V39.8zm7.59-.04v1.29h-1v1c0 .33.15.5.45.5a.68.68 0 00.56-.33V44a2.35 2.35 0 01-1.35.37 2.09 2.09 0 01-1.43-.49 1.77 1.77 0 01-.58-1.39v-1.42h-1l3.3-2.61v1.31zm5.43 2.81v.8a2.62 2.62 0 01-2.22 1 2.65 2.65 0 01-1.92-.65 2.44 2.44 0 01-.08-3.42 2.36 2.36 0 011.73-.66 2.75 2.75 0 011 .18 2.08 2.08 0 01.8.53 2.18 2.18 0 01.51.82 3.73 3.73 0 01.16 1.14h-2.4a1.06 1.06 0 00.44.54 1.24 1.24 0 00.69.2 1.69 1.69 0 001.29-.48zm-2.55-1h1.11a.91.91 0 00-.18-.53.48.48 0 00-.4-.19.46.46 0 00-.33.14.77.77 0 00-.2.55zm5.61-.84a1.44 1.44 0 011.29-1.05 1.06 1.06 0 011.1 1.1 1.13 1.13 0 01-.3.81 1 1 0 01-.78.31 1.28 1.28 0 01-1-.41 1.42 1.42 0 00-.34 1.1v1.71h-2.3v-4.58h2.32zM21.38 52v-3.7h7.42V52h-1.86v4.65h-3.7V52zm12.94 4.68a4.14 4.14 0 01-3-1.24 4.38 4.38 0 010-6.12 4.18 4.18 0 013-1.26 4.12 4.12 0 013 1.23 4.38 4.38 0 010 6.12 4.15 4.15 0 01-3 1.27zm0-5.42a.78.78 0 00-.59.25.95.95 0 000 1.26.81.81 0 00.59.24.77.77 0 00.6-.25.88.88 0 00.23-.63.84.84 0 00-.24-.62.75.75 0 00-.61-.25zm11.04 5.22h-3.7v-3.64l-3.2-4.69h3.74L43.48 50l1.28-1.9h3.74l-3.16 4.72zM24 59.71v.57a1.85 1.85 0 011.41-.62 1.62 1.62 0 011.48.78 2.92 2.92 0 01.78-.6 2.12 2.12 0 01.89-.2 1.53 1.53 0 011.18.46 1.82 1.82 0 01.43 1.28v2.87H28v-2.73a.56.56 0 00-.12-.38.39.39 0 00-.38-.14.72.72 0 00-.43.15v3.1h-2.21v-2.7a.54.54 0 00-.12-.38.4.4 0 00-.31-.14.81.81 0 00-.43.16v3.09h-2.35v-4.57zm12 2.77v.8a2.6 2.6 0 01-2.22 1 2.71 2.71 0 01-1.92-.65 2.47 2.47 0 01-.08-3.42 2.36 2.36 0 011.73-.66 2.75 2.75 0 011 .17 2.35 2.35 0 01.81.54 2.21 2.21 0 01.5.82 3.44 3.44 0 01.18 1.16h-2.4a1.12 1.12 0 00.44.54 1.25 1.25 0 00.7.2 1.67 1.67 0 001.26-.5zm-2.54-1h1.11a1 1 0 00-.17-.53.5.5 0 00-.41-.19.46.46 0 00-.37.19.76.76 0 00-.15.49zm5.92-1.85v.58a1.91 1.91 0 011.41-.62A1.6 1.6 0 0142 60a1.83 1.83 0 01.43 1.32v2.84h-2.22v-2.67c0-.38-.14-.57-.43-.57a.72.72 0 00-.42.15v3.09h-2.31v-4.58zm7.89-.04v1.29h-1v1c0 .33.15.5.45.5a.68.68 0 00.56-.33v1.81a2.35 2.35 0 01-1.35.37 2.09 2.09 0 01-1.43-.49 1.74 1.74 0 01-.5-1.41v-1.44h-1l3.3-2.61v1.32z"/><path d="M77.79 17.74h6.69v17.23h-6.69zm146.87 0h6.69v17.23h-6.69zM105.26 35.1h-5.6l-5.02-6.89v6.76h-6.1V17.73h5.27l5.35 7.26v-7.26h6.1V35.1zm75.52 0h-5.6l-5.02-6.89v6.76h-6.13V17.73h5.28l5.35 7.26v-7.26h6.12V35.1zm90.97 0h-5.59l-5.03-6.89v6.76h-6.11V17.73h5.27l5.35 7.26v-7.26h6.11V35.1zM107.99 24.45v-6.72h15.33v6.72H119v10.52h-6.69V24.45h-4.32zm98.27 0v-6.72h15.31v6.72h-4.3v10.52h-6.7V24.45h-4.31zm116.75 0v-6.72h15.31v6.72h-4.3v10.52h-6.7V24.45h-4.31zm108.5 0v-6.72h15.3v6.72h-4.31v10.52h-6.69V24.45h-4.3zm-291.31 6.7v3.82h-14.32V17.73h14.32v3.88h-7.64v3.07h5.6v3.36h-5.6v3.11h7.64zm2.8-13.42h11.26a6.63 6.63 0 014.61 1.5 4.72 4.72 0 011.65 3.67 4.8 4.8 0 01-2.34 3.83 14.87 14.87 0 013.7 8.27h-7.45a13.55 13.55 0 00-1-4.82c-.5-1-1.78-1.53-3.78-1.53V35H143zm6.69 3.59v3.3h1.15c2 0 2.52-.53 2.52-1.63a1.76 1.76 0 00-.41-1.17 3.06 3.06 0 00-1.87-.5zM189.88 35h-6.68l6-17.23h10.88L206 35h-6.68l-1-2.9h-7.48zm2.39-7H197l-2.39-6.68zm88.59 7h-6.68l6-17.23H291L297 35h-6.68l-1-2.9h-7.48zm2.39-7H288l-2.39-6.68zm-39.61 7.24a8.81 8.81 0 01-8.83-8.87 8.62 8.62 0 012.57-6.31 8.88 8.88 0 0112.52 0 8.58 8.58 0 012.57 6.31 8.81 8.81 0 01-8.83 8.87m0-12.31a2.51 2.51 0 00-2 .88 3.13 3.13 0 000 4.16 2.48 2.48 0 002 .88 2.51 2.51 0 002-.88 3.1 3.1 0 000-4.16 2.54 2.54 0 00-2-.88m105.44 12.31a8.79 8.79 0 01-8.83-8.87 8.69 8.69 0 012.56-6.31 8.9 8.9 0 0112.53 0 8.63 8.63 0 012.58 6.31 8.83 8.83 0 01-8.84 8.87m0-12.31a2.51 2.51 0 00-2 .88 3.13 3.13 0 000 4.16 2.69 2.69 0 004 0 3.1 3.1 0 000-4.16 2.51 2.51 0 00-2-.88m61.47 12.31a8.81 8.81 0 01-8.83-8.87 8.66 8.66 0 012.57-6.31 8.9 8.9 0 0112.53 0 8.63 8.63 0 012.58 6.31 8.83 8.83 0 01-8.85 8.87m0-12.31a2.52 2.52 0 00-2 .88 3.16 3.16 0 000 4.16 2.7 2.7 0 004 0 3.1 3.1 0 000-4.16 2.5 2.5 0 00-2-.88m47.31 12.31a8.38 8.38 0 01-6.25-2.59 8.47 8.47 0 01-2.61-6.28 8.63 8.63 0 012.59-6.31 8.37 8.37 0 016.25-2.58 8.48 8.48 0 016.28 2.58 8.69 8.69 0 012.56 6.31 8.79 8.79 0 01-8.84 8.87m0-12.31a2.51 2.51 0 00-2 .88 3.13 3.13 0 000 4.16 2.7 2.7 0 004 0 3.1 3.1 0 000-4.16 2.53 2.53 0 00-2-.88m87.39 12.31a8.83 8.83 0 01-8.84-8.87 8.59 8.59 0 012.61-6.31 8.9 8.9 0 0112.53 0 8.66 8.66 0 012.57 6.31 8.81 8.81 0 01-8.84 8.87m0-12.31a2.51 2.51 0 00-2 .88 3.13 3.13 0 000 4.16 2.69 2.69 0 004 0 3.08 3.08 0 000-4.16 2.49 2.49 0 00-2-.88M299.25 34.97V17.73h6.68v12.91h7.63v4.33h-14.31zm68.12-17.24v5.75c2.25-.1 3.71-.63 4.38-1.62a7.28 7.28 0 001-4.13h7.29a13.57 13.57 0 01-.82 5.19c-.55 1.4-2 2.53-3.2 3.46a11.34 11.34 0 014.54 8.62h-7.76c-.12-4.39-2-6.18-5.43-6.25V35h-6.67V17.73zm28.04 17.24h-6.69v-7.52l-6.85-9.72h6.77l3.42 5.59 3.41-5.59h6.78l-6.84 9.72v7.52zm83.91 0h-6.69v-7.52l-6.86-9.72h6.78l3.42 5.59 3.41-5.59h6.79l-6.85 9.72v7.52zm32.53-16.36l-1.6 4.57a8.91 8.91 0 00-4.43-2.08c-.52 0-1.31-.12-1.65.69-.31.65-.31 1.55 2.81 2.46a11.52 11.52 0 013 1.38 4.54 4.54 0 011.59 1.65 4.77 4.77 0 01.53 2.31 4.84 4.84 0 01-2.09 4.23 11 11 0 01-6.17 1.42 23.08 23.08 0 01-8.06-1.3l1.81-4.94c.58.46 1.89 1.14 3.1 1.91 1.52.89 2.54.55 2.89 0s.66-1.57-2.37-2.65a13 13 0 01-2.28-1.06 4.85 4.85 0 01-2.23-4 4.78 4.78 0 012.09-4.2 9.8 9.8 0 016-1.64 21.61 21.61 0 017.08 1.29m10.02 16.32h-6.68V17.73h6.68v6.34h5.02v-6.34h6.7v17.24h-6.7V28.6h-5.02v6.37zm44.54 0h-5.15l-6.08-17.24h6.49l2.95 7.97 3.04-7.97h3.42l3.14 7.97 2.83-7.97h6.51l-5.8 17.24h-5.16l-3.19-7.75-3 7.75zM241 56.83v-7.66h-21.87v-2.63h-11.4v2.63h-3v7.66h3v2.25h-3v7.68h3v1.56c0 9.8 4.34 14.93 13.69 14.93h5.3c7.61 0 14.2-3.56 14.2-15.78V59h-11.18v8.47c0 2.86-1.1 5-5 5h-.85c-2.79 0-4.78-.76-4.78-4.14v-1.57h8.4v-7.68h-8.4v-2.25zm28.53 3.37h-5.28V58H281v-9.22h-16.75v-2.24h-11.39v2.24h-6.3V58h6.3v11.65h15c1.55 0 2 .63 2 1.52s-.6 1.29-2.16 1.29H249v10.79h18.72c11.32 0 14.9-3.84 14.9-11.82-.01-10.04-5.62-11.23-13.09-11.23zm-84.33 0h-3.44V58h3.7v-9.22h-3.7v-2.24h-9.71v2.24h-10V58h10v2.2h-1.06c-5.11 0-10 3.48-10 11.55 0 7.6 4 11.5 10.88 11.5 8.8 0 9.8-5.26 9.8-11.1v-2.5h3.65c1.41 0 2.22.22 2.22 1.43 0 .94-.45 1.38-2.15 1.38h-1.58v10.79h1.43c6.83 0 12.59-1.92 12.59-11.79.09-7.9-5.83-11.26-12.63-11.26zm-13.06 12.06c0 1.21-.38 1.79-1 1.79h-.37c-1 0-1.28-1.13-1.28-2.3 0-1.46.75-2.09 1.87-2.09h.77zm15.52-27.42v9.24c2 0 2.29 1.25 2.29 2.24V59h9.17v-3.68c0-7.32-3.12-10.82-11.46-10.48zM344.18 60.2l-1.62 6.11c-1.23 4.28-5.8 6.15-9.79 6.15h-12.55v10.79h13.17c9.72 0 17.4-4.56 19.72-14.45 1-4.45 1.4-9.33 4.13-9.33V47.78c-9.31 0-11.24 4.51-13.06 12.42zm-6.44-13.66h-17.52V56h17.52zm0 11.71h-17.52v9.47h17.52zm54.78 1.42h33.95v11.18h-33.95zM378 56.54h-16.59v8h15.45c1.48 0 1.26 1.28 1.26 2.24h-15.18V73h15.18v2.24h-16.71v8h26.22V65.33c0-4.06-2.56-8.79-9.63-8.79zm-67.08 5.11a2.67 2.67 0 012.36-.91v-6.63c-6.5 0-9.23 2.51-10.39 5.49h-4.55l-.19-3.06H290l.21 3.06h-3.07v8.52h3.63l1 15.13h8.11l-1-15.13h3.62c2.12 0 3.06.62 3.06 2s-.94 2.32-3.64 2.32V81c9.62 0 12.6-3.73 12.6-9.91v-1.91a8.76 8.76 0 00-3.6-7.53zm-190.85 9.48h12.31v12.12h10.88V71.13h12.35v-16h-35.54zm8.93-9.21h17.74v2.42H129zm13.68-15.38v-1.7H133v1.7h-13.63v6.35h36.89v-6.35zm-18.75 26.71c-.11 2.47-2.22 3.52-4.56 3.33v6.67c8.74.35 11.65-3.67 11.42-10zM114 52.85v-6.31h-13.59v-1.7h-9.63v1.7H77.21v6.31h13.57v2.25h-13v18.11h8.76c-1.38 2-5.51 3.38-9.48 3.31v6.69c6.07 0 10.64-1.42 13-4v4.08h10.76v-4.12c2.43 2.62 7 4.08 13 4v-6.65c-3.79.07-7.78-.84-9.46-3.31h8.87V55.1h-13v-2.25zM90.78 69h-4.06v-2.25h4.06zm0-7.37h-4.06v-2.27h4.06zM104.46 69h-4v-2.25h4zm0-9.61v2.21h-4v-2.24z"/><path d="M151.73 73.25c.08 2.47 2.23 3.52 4.53 3.33v6.67c-8.71.35-11.61-3.67-11.41-10zm280.48-26.07v10.19h21c1.35 0 2.3.35 2.3 1.65 0 1.1-.81 1.61-2.3 1.61h-19.09v22.71h31.4V72.71h-19.63V70h6.38c13.25.28 15.58-5.17 15.57-11.11 0-8.79-4.93-11.66-14.44-11.66zm79.28 0v10.19h21c1.35 0 2.29.35 2.29 1.65 0 1.1-.8 1.61-2.29 1.61H513.4v22.71h31.4V72.71h-19.63V70h6.38c13.25.28 15.57-5.17 15.57-11.11 0-8.79-4.94-11.66-14.45-11.66zm-26.82 0c-6.8 0-14.13 5.53-14.13 12.33v11.55c0 6.79 7.33 12.28 14.13 12.28h7.24c6.83 0 14.13-5.49 14.13-12.28V59.51c0-6.8-7.3-12.33-14.13-12.33zm-2.13 22.41v-8.66c0-1.48 1.39-3.56 3.08-3.56H491c1.66 0 3.09 2.08 3.09 3.56v8.66c0 1.63-1.5 3.61-3.09 3.61h-5.35c-1.75 0-3.08-1.93-3.08-3.61m103.08-4.39a11.44 11.44 0 001.55-6.36c0-8.79-4.93-11.66-14.44-11.66h-21.19v10.18h21c1.35 0 2.3.36 2.3 1.66 0 1-.73 1.55-2.07 1.6h-12.14l.06 9.26h12.15c1.33.06 2 .57 2.06 1.61 0 1.29-.94 1.65-2.29 1.65h-21.07v10.2h21.27c9.51 0 14.42-2.86 14.45-11.66a11.27 11.27 0 00-1.64-6.48"/></g></g></svg>