<svg xmlns="http://www.w3.org/2000/svg" width="560" height="146" viewBox="0 0 560 146">
  <defs>
    <style>
      .cls-1 {
        fill: #00b4dc;
      }

      .cls-2 {
        fill: #fff;
      }
    </style>
  </defs>
  <g id="レイヤー_2" data-name="レイヤー 2">
    <g id="レイヤー_3" data-name="レイヤー 3">
      <g>
        <rect class="cls-1" width="560" height="146" rx="4.26"/>
        <g>
          <path class="cls-2" d="M58.39,31.5c-2.06-3.58-5.44-3.58-7.5,0l-27.14,47c-2.06,3.58-.37,6.5,3.75,6.5H81.78c4.13,0,5.81-2.92,3.75-6.5Z"/>
          <path class="cls-1" d="M52.22,63.43l-.7-10.53c-.13-2-.2-3.52-.2-4.41a4,4,0,0,1,1-2.85,3.28,3.28,0,0,1,2.51-1,2.54,2.54,0,0,1,2.53,1.31A8.71,8.71,0,0,1,58,49.69c0,1-.05,2-.15,3l-1,10.83a8.39,8.39,0,0,1-.66,3,1.72,1.72,0,0,1-1.67,1,1.66,1.66,0,0,1-1.65-1A10.46,10.46,0,0,1,52.22,63.43Zm2.44,14.46A3.47,3.47,0,0,1,52.32,77a3.07,3.07,0,0,1-1-2.43,3.26,3.26,0,0,1,3.3-3.27,3.24,3.24,0,0,1,2.36,1,3.14,3.14,0,0,1,1,2.32A3.09,3.09,0,0,1,57,77,3.4,3.4,0,0,1,54.66,77.89Z"/>
        </g>
        <g>
          <path class="cls-2" d="M509.11,31.5c-2.06-3.58-5.44-3.58-7.5,0l-27.14,47c-2.06,3.58-.38,6.5,3.75,6.5H532.5c4.13,0,5.81-2.92,3.75-6.5Z"/>
          <path class="cls-1" d="M502.94,63.43l-.7-10.53c-.13-2-.2-3.52-.2-4.41a4,4,0,0,1,1-2.85,3.26,3.26,0,0,1,2.51-1A2.55,2.55,0,0,1,508,45.93a8.87,8.87,0,0,1,.64,3.76,26.9,26.9,0,0,1-.16,3l-.94,10.83a8.39,8.39,0,0,1-.66,3,1.72,1.72,0,0,1-1.67,1,1.66,1.66,0,0,1-1.65-1A9.84,9.84,0,0,1,502.94,63.43Zm2.44,14.46A3.47,3.47,0,0,1,503,77a3,3,0,0,1-1-2.43,3.26,3.26,0,0,1,3.3-3.27,3.24,3.24,0,0,1,2.36,1,3.14,3.14,0,0,1,1,2.32,3.09,3.09,0,0,1-1,2.42A3.4,3.4,0,0,1,505.38,77.89Z"/>
        </g>
        <g>
          <path class="cls-2" d="M118.88,48.92h-3.69V43.56a24.64,24.64,0,0,1-7.28,5.33,8.23,8.23,0,0,0-3.25-2.73,19.45,19.45,0,0,0,7.72-4.81H107.7V31.47h7.49V30.41h-10V27.29h10V25l4,.21c.26,0,.52.08.52.34s-.31.41-.83.54v1.23h9.93v3.12h-9.93v1.06h7.57v9.88h-4.6a22.13,22.13,0,0,0,7.38,4.4,7.92,7.92,0,0,0-2.83,3,25.69,25.69,0,0,1-7.52-5.17Zm-3.69-15h-3.64v1.19h3.64Zm0,3.43h-3.64v1.22h3.64Zm3.69-2.24h3.72V34h-3.72Zm0,3.46h3.72V37.4h-3.72Z"/>
          <path class="cls-2" d="M141.14,25l4,.18c.18,0,.46,0,.46.26s-.26.34-.62.47v1.2h9.83v3.33H131.23V27.08h9.91Zm-1,16.9c.16.08.26.16.26.31s-.36.29-.67.29a22.44,22.44,0,0,1-5.1,5.93,11.7,11.7,0,0,0-3.38-2.19,20.17,20.17,0,0,0,5.41-6.31ZM145,46c0,2.13-.47,3.09-5.25,2.88A13.65,13.65,0,0,0,138.28,45c.47.06,1.48.16,2,.16.83,0,.86-.39.86-.75V39.56H134v-8H152v8h-7Zm-7.07-11.39v1.84h10.29V34.62ZM149.09,40a22.12,22.12,0,0,1,5.07,5.82,41.86,41.86,0,0,0-3.35,2.52A26.21,26.21,0,0,0,146,42Z"/>
          <path class="cls-2" d="M168.05,25.65c.33.05.54.1.54.33s-.28.37-.44.42c-.08.78-.13,1.69-.18,2.76a19.07,19.07,0,0,0,4.08-1.3c0,1-.05,2.16-.05,2.75a11.68,11.68,0,0,0,.05,1.41,19,19,0,0,1-4.26,1.17c0,.28,0,1.53,0,1.77a12.89,12.89,0,0,1,4.42-.78,6.9,6.9,0,0,1,7.2,7c0,4.84-3.59,6.48-6.16,6.48-3.93,0-4.06-3.49-4.09-4.58.55-.18,2.89-1,3.23-1.09,0,.52,0,1.74,1.22,1.74,1,0,1.64-1,1.64-2.29a3.27,3.27,0,0,0-3.46-3.43,12.21,12.21,0,0,0-4,.91,75.23,75.23,0,0,0,.34,7.83l-3.57,1.61a35.19,35.19,0,0,0-4.55-3.72c-.64.7-1,1.07-1.32,1.51l-1.87-4.47c1.19-.65,5.93-4.24,7-4.89,0-.91,0-1.12,0-3.12-1.54.08-3.36.1-4.84.1V29.68a12,12,0,0,0,2.06.15c1,0,2.47-.1,2.78-.1,0-1.95,0-2.24-.1-4.84Zm-5.83,16.77a2.9,2.9,0,0,0,1.17.67c.39,0,.37-.91.34-1.89C163.42,41.46,162.87,41.85,162.22,42.42Zm13.57-13.84a22,22,0,0,1,5.67,4.17,18.4,18.4,0,0,0-2.52,3.14,15.15,15.15,0,0,0-5.51-4.08Z"/>
          <path class="cls-2" d="M197.58,26.19c.29.11.45.19.45.42s-.45.44-.76.47c-.28.44-.6,1-1.53,2.73,1.38.13,2.7.18,3.25.18s.91,0,1.27,0a18.88,18.88,0,0,0-1.14,4.1,30.76,30.76,0,0,1-4.92-.23c-.31.7-.67,1.64-.93,2.29a41.16,41.16,0,0,0,5.77.39c-.5,1.4-.91,3-1.12,3.85-1.59-.11-3.38-.26-5.82-.63a8.44,8.44,0,0,0-.29,2.11C191.81,45,194.75,45,196,45c1.12,0,5,0,5-3.77a9.87,9.87,0,0,0-1.33-4,12.45,12.45,0,0,0,3.93-1.41,13.76,13.76,0,0,1,1.79,5.9c0,5.72-6,7.05-9.44,7.05-5.22,0-8.11-2.7-8.11-6.53A12.51,12.51,0,0,1,188.3,39a23.26,23.26,0,0,1-3.38-1l.88-3.85a26.07,26.07,0,0,0,3.51,1.12c.11-.34.29-.91.78-2.32a22.88,22.88,0,0,1-3.87-1.3l.78-4a33.35,33.35,0,0,0,4.6,1.43c.26-.7,1.51-3.87,1.77-4.52Z"/>
          <path class="cls-2" d="M221.69,25.83c.2.05.49.15.49.42s-.13.33-.57.36c-.57,1.77-.63,1.95-.76,2.34a39.75,39.75,0,0,0,8.48-2.05c.13.85.47,2.83.73,3.87A45,45,0,0,1,219.42,33c-.62,1.72-.83,2.24-1.35,3.51a15.39,15.39,0,0,1,6.76-1.77c6.94,0,7.31,4.89,7.31,6.19a6.42,6.42,0,0,1-2.78,5.25c-1.38.94-4,2.5-11.19,2.5-1.09,0-1.84-.08-2.41-.13a18.22,18.22,0,0,0-1-3.88,37.48,37.48,0,0,0,3.88.24c.6,0,5,0,7.72-1.59a2.63,2.63,0,0,0,1.4-2.44c0-1.51-.77-2.78-3.17-2.78a13.32,13.32,0,0,0-9,4.34l-3.75-1.87a36.45,36.45,0,0,0,3.46-7.31c-2.26,0-4.05-.08-5-.16l-.06-4.26a24.26,24.26,0,0,0,6.3.57,35.5,35.5,0,0,0,1-4.6Z"/>
          <path class="cls-2" d="M246.78,29.26c.31.36,1.61,2,1.87,2.29a11.54,11.54,0,0,1,2.86-.44,4.94,4.94,0,0,1,5.17,5.07c0,4.86-5.28,5.3-7.93,5.51a17,17,0,0,0-1.2-3.48c.45,0,.76,0,1.2,0,.88,0,4.21,0,4.21-2.29,0-.44-.13-1.45-1.66-1.45l-.57,0c.47.76.73,1.25,1,1.64-1,.39-2.47,1-3.41,1.43a14.19,14.19,0,0,0-1-2c-1,.44-1.53.75-1.9,1a50.54,50.54,0,0,1,3.64,10,36.24,36.24,0,0,0-3.69,1.79,44.55,44.55,0,0,0-3-10c-.75.54-1,.73-2.94,2.42l-2.34-3.67a32.89,32.89,0,0,0,3.69-1.85,19.07,19.07,0,0,0-2.34-3.4l3.54-1.46a1.39,1.39,0,0,1,.54-.16.29.29,0,0,1,.32.29c0,.13-.11.26-.24.42.39.7,1,1.87,1.41,2.57.93-.47,1.17-.57,1.48-.73-.42-.57-.55-.75-1.64-2.13Z"/>
          <path class="cls-2" d="M265,30.56a26.94,26.94,0,0,1,6.08,3.56,25.36,25.36,0,0,0-2.52,3.46,22.44,22.44,0,0,0-5.9-3.54Zm-.83,14a38,38,0,0,0,18.3-13.78,13.64,13.64,0,0,0,2.68,3.51c-3.28,4.89-11,11.28-17.92,13.86,0,.15-.05.6-.44.6-.18,0-.34-.26-.39-.34Zm3.45-19.76a39.78,39.78,0,0,1,6.53,3.07c-.55.62-2.11,2.83-2.47,3.38A27.3,27.3,0,0,0,265.39,28Z"/>
          <path class="cls-2" d="M291,46.84V43.51H302.6V40.86h-11V37.45h11V35H291.31V31.55h14.93V47.62H302.6v-.78Z"/>
          <path class="cls-2" d="M336.35,34.83v4.42h-22.6V34.83Z"/>
          <path class="cls-2" d="M363.2,46.89H345.73c.34-4.55,2.89-6.42,8.4-10.17,4.19-2.86,4.19-3.45,4.19-4.55,0-2-2.08-2.44-3.44-2.44-3.51,0-3.87,2.5-4,4.19h-4.81a7.83,7.83,0,0,1,1.62-5.18c1.74-2.11,4.26-2.91,7.2-2.91,5.95,0,8.11,3.27,8.11,6.27a6.15,6.15,0,0,1-1.14,3.56c-1.33,1.84-6.58,5.2-6.84,5.38a14.19,14.19,0,0,0-2.65,2H363.2Z"/>
          <path class="cls-2" d="M382.81,37c0,2.5-.6,10.48-8.66,10.48a7.86,7.86,0,0,1-6.86-3.35c-1.36-2-1.83-5.54-1.83-7.8,0-2.5.6-10.48,8.69-10.48C381.74,25.83,382.81,32.75,382.81,37Zm-12.51-.33c0,.85,0,6.89,3.85,6.89s3.82-6,3.82-6.89,0-6.9-3.82-6.9S370.3,35.71,370.3,36.65Z"/>
          <path class="cls-2" d="M402.67,46.89H385.2c.34-4.55,2.88-6.42,8.4-10.17,4.18-2.86,4.18-3.45,4.18-4.55,0-2-2.08-2.44-3.43-2.44-3.51,0-3.87,2.5-4,4.19h-4.81a7.88,7.88,0,0,1,1.61-5.18c1.75-2.11,4.27-2.91,7.21-2.91,5.95,0,8.11,3.27,8.11,6.27a6.22,6.22,0,0,1-1.14,3.56c-1.33,1.84-6.58,5.2-6.84,5.38a14.74,14.74,0,0,0-2.66,2h10.82Z"/>
          <path class="cls-2" d="M422.41,46.89H404.93c.34-4.55,2.89-6.42,8.4-10.17,4.19-2.86,4.19-3.45,4.19-4.55,0-2-2.08-2.44-3.44-2.44-3.51,0-3.87,2.5-4,4.19H405.3a7.82,7.82,0,0,1,1.61-5.18c1.74-2.11,4.26-2.91,7.2-2.91,5.95,0,8.11,3.27,8.11,6.27a6.15,6.15,0,0,1-1.14,3.56c-1.33,1.84-6.58,5.2-6.84,5.38a14.19,14.19,0,0,0-2.65,2h10.82Z"/>
          <path class="cls-2" d="M437.77,27.05c.21.08.34.18.34.37s-.5.36-.73.38a35.94,35.94,0,0,0-1.56,10,18.28,18.28,0,0,0,.18,2.6c.34-.5.89-1.33,1.22-1.85a10.7,10.7,0,0,0,1.88,2.57,11.54,11.54,0,0,0-2.16,6.37l-3.49.65a36.82,36.82,0,0,1-1.4-10.47,47,47,0,0,1,1.56-11.91Zm12.35-.57c.13,0,.34.05.34.28s-.37.39-.6.42a28.7,28.7,0,0,0-.26,3.12,23.43,23.43,0,0,0,3.85-1v3.93c-.6.15-1.79.44-3.95.83a43.36,43.36,0,0,0,.41,6,14.25,14.25,0,0,1,4.94,2.68c-.41.75-1.19,2.44-1.77,3.66a9.13,9.13,0,0,0-2.78-2c-.1,3.32-3.43,3.71-5.07,3.71-3.9,0-5.85-2.13-5.85-4.55,0-3.09,3.07-4.26,6.45-4.18-.21-3-.23-3.31-.29-4.81-1.48.13-2.54.13-3,.13-.83,0-1.37,0-1.92-.08V30.59a28.49,28.49,0,0,0,4.89.18c0-1.09,0-3.38,0-5.07ZM444.74,42.6c-.57,0-1.82.18-1.82,1s.86,1,1.69,1c.21,0,1.77,0,1.77-1.27a.63.63,0,0,0-.06-.34A3.66,3.66,0,0,0,444.74,42.6Z"/>
          <path class="cls-2" d="M122.91,78v2.44h-1.3V84.8h-3.85V84H113v1.66c0,1.33-.34,2.24-4.21,2.24-.52,0-1,0-1.38-.06a9.94,9.94,0,0,0-1.22-3.25,19,19,0,0,0,2.21.21c.75,0,.75-.26.75-.8H101v-2.6h8.11v-.89H99.22V78h9.91v-.83H101V74.92h8.11v-.73h-6.6V68.91h6.6v-.73H99.22V65.45h9.91V64l4,.16a.35.35,0,0,1,.39.34c0,.23-.16.28-.57.49v.44h9.83v2.73H113v.73h6.5v5.28H113v.73h8.63V78Zm-13.78-6V71H106v1ZM113,71v1h3.15V71ZM117.76,78v-.83H113V78Zm0,3.33v-.89H113v.89Z"/>
          <path class="cls-2" d="M138.43,67.53a18.84,18.84,0,0,0,2.24-3.66l3.9,1c.18.06.36.13.36.32s-.36.41-.75.36c-.68,1.07-.94,1.51-1.3,2h6v3.25H125.12V67.53h5.72a12.82,12.82,0,0,0-1.48-2.21l3.51-1.58A17,17,0,0,1,135,67l-1.4.54ZM130.09,82.2v5.61h-3.64V71.64h10.34V85.27c0,2.13-1.11,2.44-4.55,2.54a7.51,7.51,0,0,0-1.32-3.69c.39,0,1.17.13,1.56.13s.78,0,.78-.83V82.2Zm3.17-6.61V74.45h-3.17v1.14Zm0,3.88V78.3h-3.17v1.17Zm8.87-7.41c.23,0,.38.08.38.26s-.15.28-.38.44V83.11h-3.75V71.9Zm5.48-.55c.23,0,.47,0,.47.29s-.29.34-.62.52v12.4a2.47,2.47,0,0,1-1.12,2.52c-.94.63-2.06.6-4.21.57a9.8,9.8,0,0,0-.86-3.9c.44.06,1.4.19,1.79.19.65,0,.65-.42.65-.73v-12Z"/>
          <path class="cls-2" d="M154.84,82.09V76a14.82,14.82,0,0,1-2.11,1.43,12.86,12.86,0,0,0-2.57-2.89,19,19,0,0,0,3.3-2.26,20,20,0,0,0-2.13-1.67l2.49-2.55a17.67,17.67,0,0,1,2.34,1.64,7.26,7.26,0,0,0,1.56-2.16h-4.81V64.49h9l1.17,1.25a21.42,21.42,0,0,1-2.49,4.42h5.33A17,17,0,0,1,162.82,65l3.3-1.25A15.62,15.62,0,0,0,167.24,66a13.14,13.14,0,0,0,1.59-2l2.73,1.72c.1,0,.28.18.28.31,0,.31-.44.34-.7.34-.86,1.09-1.56,1.89-1.87,2.21.28.33.49.54.7.75a32.66,32.66,0,0,0,2.37-2.81l2.41,1.64c.21.16.47.31.47.49,0,.34-.39.37-.78.4a21.28,21.28,0,0,1-2.23,2.33,17.62,17.62,0,0,0,3.66,2.42,12.93,12.93,0,0,0-2.39,3.1c-.39-.24-1.22-.81-2.39-1.72v6.94h-1.87a.39.39,0,0,1,.28.37c0,.26-.26.41-.54.44a10.38,10.38,0,0,1-.55,1.43h6.37v3.15H151.17V84.33h6.63c-.1-.31-.49-1.33-.73-1.9l1.28-.34Zm3.87-9.64a29,29,0,0,1-2.1,2.1h13.72a24.08,24.08,0,0,1-2.7-2.44v1.35h-8.92Zm-.13,5v1.66h8.76V77.47ZM161,82.09c.23.58.41,1,.72,2l-.93.26h3.51a19.74,19.74,0,0,0,.78-2.24Z"/>
          <path class="cls-2" d="M186.25,73.49h-1.9v1.35H187v3.3h-2.6v3.54a16,16,0,0,0,.91-3.1l3,.6c.16,0,.39.08.39.34s-.39.36-.75.39c-.11.39-.16.52-.52,1.61a30.58,30.58,0,0,0,5.17-1.84V75.41h-1.84a26.77,26.77,0,0,1,1.82,3.33,22.53,22.53,0,0,0-2.81,1.85,22.12,22.12,0,0,0-1.87-3.54l2.65-1.64h-3V72.34h8.19v-1h-6.57V68.52h6.57v-1h-7.82V64.36H199.4v8H201v3.07h-3.1l2.89,1.41c.1.05.29.15.29.36s-.19.31-.68.39a23.66,23.66,0,0,1-2.1,3.09,18.51,18.51,0,0,0,3.25,2.63,12.68,12.68,0,0,0-2.14,3.3,22.34,22.34,0,0,1-3.48-3.53v2.21c0,2.57-1.69,2.57-4.79,2.57a11.87,11.87,0,0,0-1.32-3.51c-.26.13-.34.16-.7.31,0,.5-.08.94-.52.94a.43.43,0,0,1-.32-.29l-.93-3.74a13.45,13.45,0,0,1-.55,1.32,10.69,10.69,0,0,0-2.44-.59v1.19c1.9-.36,2.44-.49,2.94-.62A10.46,10.46,0,0,0,187,86.1c-3.3.73-6,1.17-8.5,1.53-.06.39-.13.73-.5.73s-.28-.21-.31-.39l-.6-3.59c1.07,0,2.89-.26,3.85-.36v-1.2a17.46,17.46,0,0,0-2.73.94,24.46,24.46,0,0,0-1.33-4l2.94-.94A28.71,28.71,0,0,1,180.89,82V78.14h-3.41v-3.3h3.41V73.49h-2v-1a9.28,9.28,0,0,0-2.73-2.58,11.83,11.83,0,0,0,5-5.79l3.7.72c.28.06.39.13.39.29s-.29.44-.6.47a19.46,19.46,0,0,0,3.77,3.61,10.83,10.83,0,0,0-2.13,1.69Zm-1.54-3a12.31,12.31,0,0,1-2-2.35c-.6.81-1,1.36-1.84,2.35ZM192.51,83c-.65.36-1.61.88-2.39,1.22.23,0,1.48.16,1.64.16.75,0,.75-.52.75-.84Zm3.41-5.38a3.27,3.27,0,0,1,.18.33,14.45,14.45,0,0,0,1.38-2.52h-1.56Z"/>
          <path class="cls-2" d="M208.58,66.94V64.23l3.43.13c.37,0,.6,0,.6.34s-.29.39-.6.49v1.75h4.53v3.43H212v1.56h5v3.4h-5V76.4h4.71V84c0,1.71-.47,2.41-3.69,2.44a7.22,7.22,0,0,0-1-2.89v4.37h-3.43v-8h-1v6.79H203.9V76.4h4.68V75.33H203v-3.4h5.56V70.37H206a11.18,11.18,0,0,1-.55,1,13,13,0,0,0-3.14-1.11,15.45,15.45,0,0,0,2-5.41l3.3.47c.26,0,.42.15.42.36s-.34.44-.65.52l-.21.76ZM212,83a3.57,3.57,0,0,0,.7.08c.6,0,.6-.36.6-.83V79.88H212Zm9.57-15.73c.39,0,.57.11.57.34s-.18.31-.57.52V82.35h-3.69V66.94Zm4.73-3c.19,0,.65.05.65.33s-.28.42-.65.63V84.51c0,.6,0,2.21-1.3,2.89-.75.39-1.14.41-3.95.57a7.86,7.86,0,0,0-1.46-3.67c.29,0,1.64.13,1.9.13,1,0,1.12-.2,1.12-1V64.05Z"/>
          <path class="cls-2" d="M235.83,66c.49.19.7.27.7.45s-.52.28-.7.31a30.19,30.19,0,0,0-1.69,10.74,9.11,9.11,0,0,0,.18,2.08c.16-.29.78-1.43,1.09-1.95a7.85,7.85,0,0,0,2,2.13C236.76,81,235.57,84,235.7,86L232,87a27.26,27.26,0,0,1-1.85-10.4,49.6,49.6,0,0,1,1.66-12.06Zm6.86,12.23a7.25,7.25,0,0,0-.39,1.84c0,1.15.63,1.33,3.62,1.33a26.85,26.85,0,0,0,6.42-.7A17.12,17.12,0,0,0,252,85a55.23,55.23,0,0,1-6.58.34c-3.87,0-6.86-.67-6.86-3.85a9.72,9.72,0,0,1,.85-3.82Zm-3.14-11.11c.78,0,1.82.13,3.38.13a30.38,30.38,0,0,0,7.64-.83c0,.42.13,2.71.36,4a38.42,38.42,0,0,1-8,.78c-1.54,0-2.55-.07-3.38-.13Z"/>
          <path class="cls-2" d="M278.6,68.65c-7.44-.08-11.86,6.45-11.86,9.83,0,4.32,5.88,4.63,7.26,4.71a22.58,22.58,0,0,0-1.95,4.68c-4.55-1.07-9.57-3.49-9.57-9.08,0-4.78,3.59-7.77,4.6-8.6a87,87,0,0,0-10.74,1.53l-.54-4.89c.57,0,1.11.08,1.95.08,3.82,0,14.19-.73,20.09-2.58Z"/>
          <path class="cls-2" d="M297.37,81.63v5.59h-3.3V81.63h-1.93a9.78,9.78,0,0,1-4,6.13,7.59,7.59,0,0,0-2.92-1.92v1.87h-3.71V64.57h10.89v9.05h-7.18V85.81c1.82-1,3.07-2,3.59-4.18h-2.68V78.74h3c0-.47,0-1,0-1.53h-2.4V74.48h12.61v2.73h-2.05v1.53H300v2.89ZM289,67.14h-3.7v1H289Zm0,2.94h-3.7v1H289Zm5.12,7.13h-1.61c0,.31,0,1.3-.06,1.53h1.67Zm5.56,10.6A8.89,8.89,0,0,0,298.25,84a8.49,8.49,0,0,0,1.51.21c.5,0,1,0,1-.91v-9.7h-7.23V64.57h10.95V84.8C304.52,87.22,303,87.84,299.63,87.81Zm1.17-20.67h-3.74v1h3.74Zm0,2.94h-3.74v1h3.74Z"/>
          <path class="cls-2" d="M325.48,76.06v1.09h4v2.63h-4v1.09h4V83.5h-4v1.06h5.25V87.4H318.79v.41h-3.66v-9c-.29.28-.52.52-.7.7a9,9,0,0,0-1.25-1.85V87.81h-3.8V75.33l-.7.86A6.34,6.34,0,0,0,306,73.51a27.72,27.72,0,0,0,5.46-9.88l3.64,1.22v-.41l3.69.13c.29,0,.39.15.39.36s-.21.39-.57.63v2.49h1.95V63.76l3.87.24c.26,0,.39.15.39.33,0,.34-.39.45-.62.5v3.22h2.18V64.57l3.85.23c.31,0,.47.11.47.29s-.31.44-.65.6v5.2h-6l1.82,1a.47.47,0,0,1,.29.41c0,.29-.37.39-.76.47-.1.18-.26.42-.41.65h5.56v2.65Zm-12.3-.47a23.67,23.67,0,0,0,3.53-4.7h-1.58V65.63l-.24.11c-.44,1-.7,1.51-1.61,3.28.39.2.5.25.5.44s-.42.46-.6.54Zm5.61.47v1.09h3V76.06Zm0,3.72v1.09h3V79.78Zm3,4.78V83.5h-3v1.06Zm-.93-11.15a26.06,26.06,0,0,0,1.45-2.52h-3.22l1.19.6c.21.1.37.2.37.41s-.29.39-.76.44c-.28.47-.39.63-.65,1.07Z"/>
          <path class="cls-2" d="M339.2,66.6c.24.07.52.15.52.39s-.31.39-.54.41a23.2,23.2,0,0,0-1.46,7.83c0,3.17,1,5.38,1.74,5.38s1.82-2.29,2.53-3.92a11.74,11.74,0,0,0,2.73,2.75c-2.08,5-4.45,6.81-5.72,6.81-1.46,0-5.31-3.09-5.31-11.13A45.9,45.9,0,0,1,335,65.4Zm12.56.18A25.92,25.92,0,0,1,357,79.86c-1.53.6-3.38,1.48-4.23,1.92a23.78,23.78,0,0,0-4.37-12.87Z"/>
          <path class="cls-2" d="M371.42,65.06c.23,0,.52.16.52.42s-.37.34-.57.34c-.11.41-.55,2.26-.65,2.62A16.49,16.49,0,0,0,375,67.17l.44,4.08a33.69,33.69,0,0,1-5.87,1.22,62.66,62.66,0,0,1-6.81,15.21,27.74,27.74,0,0,0-3.93-2,42.31,42.31,0,0,0,6.42-12.61c-1.58.13-1.9.13-4.76.15L360.19,69c.78.05,1.69.1,3,.1s1.95,0,3.1-.1c.36-1.95.54-3.64.7-4.92Zm1.95,15.66a2.52,2.52,0,0,0-.7,1.53.72.72,0,0,0,.46.68,9.65,9.65,0,0,0,3.49.44,18.72,18.72,0,0,0,5.72-.86,11.12,11.12,0,0,0-.18,2,19.58,19.58,0,0,0,.15,2.16,31.74,31.74,0,0,1-5.38.44c-3.41,0-7.93-.5-7.93-4.19a7,7,0,0,1,1-3.4Zm-1.22-7.36a33.11,33.11,0,0,1,5.74-.47,17.92,17.92,0,0,1,3.82.29c-.15,1.92-.18,2.34-.2,4.08a15,15,0,0,0-3.9-.47,46.5,46.5,0,0,0-5.46.47Z"/>
          <path class="cls-2" d="M394.27,65.06c.39,0,.6.08.6.37s-.18.31-.49.44a56.45,56.45,0,0,0-.84,10.32c0,5.9.58,7,2.58,7,4.44,0,8.37-6,9.07-7.47a27,27,0,0,0,3,3.41c-3,4.81-7.39,8.42-12.64,8.42-5.77,0-6.24-4.88-6.24-11.38,0-1.51.26-8.09.26-9.42,0-.75,0-1.64,0-2.39Z"/>
          <path class="cls-2" d="M425.6,64.85c.24.06.47.08.47.34s-.28.34-.47.37c-.1,1-.1,1.24-.13,1.53,1.2,0,5.23-.08,7.18.16v3.87a63.94,63.94,0,0,0-7.31-.23v2.86A34.32,34.32,0,0,0,432,72.53V76.4a49,49,0,0,1-6.5.86c0,1.12,0,1.22.05,2.31A25.87,25.87,0,0,1,434.18,83a42.19,42.19,0,0,0-2.88,3.25A21,21,0,0,0,425.73,83c.06,1.35.24,4.42-5.46,4.42-4,0-7-1.85-7-4.21,0-3,3.72-4.24,8.06-4.16,0-.6,0-.6,0-1.54-2.58.05-7.28.13-7.28-2.44,0-.91.47-1.74,1.82-3.15l2.86.65c-.47.63-.55.7-.55.89s0,.72,3,.59c0-.46,0-2.57,0-3-3.2.13-6,.5-8.17.78V67.71c1.28-.13,7-.38,8.14-.46,0-1,0-2-.1-3.2ZM420.22,82c-.13,0-2.63,0-2.63,1.06,0,.86,1.43.94,1.88.94,1.27,0,2-.47,1.89-1.9A5.87,5.87,0,0,0,420.22,82Z"/>
          <path class="cls-2" d="M451.76,64.46c.41.06.65.08.65.29s-.31.39-.52.44c-.05.47-.08.78-.13,1.82,7.33-.31,8.14-.34,8.63-.39,0,.55-.08,3.12,0,4.19-4.71-.23-6.69-.23-8.58-.21a22.55,22.55,0,0,0,0,2.89,8.5,8.5,0,0,1,1.51,5,12.31,12.31,0,0,1-6,10,17.31,17.31,0,0,0-3.8-2.68c.78-.31,3.85-1.61,4.79-3.75a2.9,2.9,0,0,1-2.06.63,3.49,3.49,0,0,1-2.81-1.17,6.57,6.57,0,0,1-1.11-3.85c0-5.72,4.88-5.54,5.43-5.46,0-.83,0-1.07,0-1.46a69.38,69.38,0,0,0-10.38,1.36l-.28-4.4c.59,0,1.58,0,10.55-.55a27.79,27.79,0,0,0-.36-3.3Zm-6,13c0,1.71.86,2.18,1.33,2.18.8,0,1.27-1.2,1.27-2.5,0-.59-.13-1.61-1.17-1.61C446.32,75.54,445.75,76.4,445.75,77.47Z"/>
        </g>
        <g>
          <path class="cls-2" d="M135.63,105a15.64,15.64,0,0,0,0,20.85l-2.32,2a18.55,18.55,0,0,1,0-24.86Z"/>
          <path class="cls-2" d="M160.82,106.64c-.18.08-.39.13-.57.19a48,48,0,0,1-3.41,6h3.9v14.61h-4.13v-1H139V123.1h17.61v-2h-16V118h16v-2H139v-3.2h4a24.67,24.67,0,0,0-3.8-6.73l3.59-1.82a23.19,23.19,0,0,1,3.85,6.6,18.73,18.73,0,0,0-3.62,2H148v-9.49l4.14.26c.34,0,.6,0,.6.34s-.24.36-.6.47v8.42h4.7a14.19,14.19,0,0,0-3.53-1.53,23,23,0,0,0,3.53-6.63l4,1.32a.35.35,0,0,1,.23.31A.39.39,0,0,1,160.82,106.64Z"/>
          <path class="cls-2" d="M170.78,124.82v1.43h-4.09V105h18.65v21.22h-4.09v-1.43ZM181.25,113v-4.34H170.78V113Zm0,8.11v-4.6H170.78v4.6Z"/>
          <path class="cls-2" d="M197,118.27h-2.39v-3.15h14l1.32,1.66a18.68,18.68,0,0,1-4.44,5.41c2.39,1,3.95,1.35,8.52,1.93a9.43,9.43,0,0,0-1.71,3.27c-4.21-.78-6.48-1.25-9.93-3a25.1,25.1,0,0,1-10.61,3,14.09,14.09,0,0,0-1.9-3.51,22.36,22.36,0,0,0,8.89-1.61,18.28,18.28,0,0,1-3.2-2.91Zm13.24-10.35a.31.31,0,0,1,.23.31c0,.26-.39.36-.78.42a21.36,21.36,0,0,1-1.35,2.31h5.38v6.11h-3.59v-3.2H194v3.2h-3.69V111H194c-.44-.65-.93-1.3-1.43-1.9l2.14-1.32c-1,0-1.1,0-1.41,0a13.46,13.46,0,0,0-1.77-3.74,55.86,55.86,0,0,0,6.87.44c3.07,0,7.33-.26,10.09-1.33l2.8,2.68a.38.38,0,0,1,.16.31.41.41,0,0,1-.39.45,6.14,6.14,0,0,1-.94-.32,13.41,13.41,0,0,1-2.57.63Zm-10.14-.26c-1.48,0-2,0-4.24.08a13.67,13.67,0,0,1,1.95,2.65l-.94.57h3a26,26,0,0,0-1.56-2.26Zm-.89,10.61a16.83,16.83,0,0,0,2.76,2.1,10.46,10.46,0,0,0,2.18-2.1Zm5.39-7.31a19.16,19.16,0,0,0,2-3.93c-.36.06-2.44.34-4.76.52a26.91,26.91,0,0,1,1.93,2.71c-.7.47-.83.54-1.07.7Z"/>
          <path class="cls-2" d="M222.85,127.39h-4v-12a7.69,7.69,0,0,1-.91,1,11.24,11.24,0,0,0-2.86-2.73A24,24,0,0,0,221.09,103l3.56,1.3c.26.1.49.18.49.39s-.34.34-.67.39c-1,2.39-1.1,2.57-1.85,4.13.42.11.78.21.78.5s-.23.41-.55.52Zm16.93-18.3v3.77h-2.44v10.79c0,3-.5,3.66-5.93,3.72a9.22,9.22,0,0,0-1.72-4.22,11.72,11.72,0,0,0,2.34.34c1.22,0,1.28-.34,1.28-1.22v-9.41h-9.52v-3.77h9.52v-5.83l4,.16c.31,0,.7,0,.7.34s-.31.39-.7.54v4.79Zm-11.67,5.15a19.28,19.28,0,0,1,3.58,5.87,35,35,0,0,0-3.58,1.93,24,24,0,0,0-3.57-6Z"/>
          <path class="cls-2" d="M248.8,105.5c.21.08.34.18.34.36s-.49.37-.73.39a35.93,35.93,0,0,0-1.56,10,19.78,19.78,0,0,0,.18,2.6c.34-.49.89-1.32,1.23-1.84a10.66,10.66,0,0,0,1.87,2.57A11.54,11.54,0,0,0,248,126l-3.48.65a36.39,36.39,0,0,1-1.41-10.48,47,47,0,0,1,1.56-11.9Zm12.35-.57c.13,0,.34,0,.34.28s-.36.39-.6.42a28.7,28.7,0,0,0-.26,3.12,23.43,23.43,0,0,0,3.85-1v3.92c-.6.16-1.79.45-4,.84a43.36,43.36,0,0,0,.41,6,14.41,14.41,0,0,1,4.94,2.67c-.41.76-1.19,2.45-1.76,3.67a9.2,9.2,0,0,0-2.79-2c-.1,3.33-3.43,3.72-5.07,3.72-3.9,0-5.85-2.13-5.85-4.55,0-3.09,3.07-4.26,6.45-4.18-.21-3-.23-3.31-.28-4.81-1.49.13-2.55.13-3,.13-.84,0-1.38,0-1.93-.08V109a28.49,28.49,0,0,0,4.89.18c0-1.09,0-3.38,0-5.07Zm-5.38,16.12c-.57,0-1.82.18-1.82,1s.86,1,1.69,1c.21,0,1.77,0,1.77-1.28a.7.7,0,0,0-.05-.33A3.72,3.72,0,0,0,255.77,121.05Z"/>
          <path class="cls-2" d="M274.2,106.05c.24.07.52.15.52.39s-.31.39-.54.41a23.2,23.2,0,0,0-1.46,7.83c0,3.17,1,5.38,1.74,5.38s1.82-2.29,2.53-3.93a11.82,11.82,0,0,0,2.73,2.76c-2.08,5-4.45,6.81-5.72,6.81-1.46,0-5.31-3.09-5.31-11.13a46.53,46.53,0,0,1,1.27-9.72Zm12.56.18A25.92,25.92,0,0,1,292,119.31c-1.53.59-3.38,1.48-4.23,1.92a23.78,23.78,0,0,0-4.37-12.87Z"/>
          <path class="cls-2" d="M306.42,104.51c.23,0,.52.16.52.42s-.37.34-.57.34c-.11.41-.55,2.26-.65,2.62a16.49,16.49,0,0,0,4.31-1.27l.44,4.08a33.69,33.69,0,0,1-5.87,1.22,62.66,62.66,0,0,1-6.81,15.21,27.74,27.74,0,0,0-3.93-2,42.43,42.43,0,0,0,6.42-12.61c-1.58.13-1.9.13-4.76.15l-.33-4.26c.77,0,1.69.1,3,.1s1.95,0,3.1-.1c.36-2,.54-3.64.7-4.92Zm1.95,15.65a2.56,2.56,0,0,0-.7,1.54.7.7,0,0,0,.46.67,9.38,9.38,0,0,0,3.49.45,18.72,18.72,0,0,0,5.72-.86,11,11,0,0,0-.18,2,19.37,19.37,0,0,0,.15,2.15,30.77,30.77,0,0,1-5.38.45c-3.41,0-7.93-.5-7.93-4.19a7.06,7.06,0,0,1,1-3.41Zm-1.22-7.35a33.11,33.11,0,0,1,5.74-.47,19.14,19.14,0,0,1,3.82.28c-.15,1.93-.18,2.34-.2,4.09a15,15,0,0,0-3.9-.47,46.5,46.5,0,0,0-5.46.47Z"/>
          <path class="cls-2" d="M329.27,104.51c.39,0,.6.08.6.37s-.18.31-.49.44a56.45,56.45,0,0,0-.84,10.32c0,5.9.58,7,2.58,7,4.44,0,8.37-6,9.07-7.46a27,27,0,0,0,3,3.41c-3,4.81-7.39,8.42-12.64,8.42-5.77,0-6.24-4.89-6.24-11.39,0-1.5.26-8.08.26-9.41,0-.75,0-1.64,0-2.39Z"/>
          <path class="cls-2" d="M360.6,104.3c.24.06.47.08.47.34s-.29.34-.47.37c-.1,1-.1,1.24-.13,1.53,1.2,0,5.23-.08,7.18.16v3.87a63.94,63.94,0,0,0-7.31-.23v2.86A34.62,34.62,0,0,0,367,112v3.88a50.72,50.72,0,0,1-6.5.86c0,1.11,0,1.22.05,2.31a25.66,25.66,0,0,1,8.68,3.43,42.19,42.19,0,0,0-2.88,3.25,21,21,0,0,0-5.57-3.27c0,1.35.24,4.42-5.46,4.42-4,0-7-1.85-7-4.22,0-3,3.72-4.23,8.06-4.16,0-.59,0-.59,0-1.53-2.58,0-7.28.13-7.28-2.44,0-.91.47-1.75,1.82-3.15l2.86.65c-.47.62-.55.7-.55.88s0,.73,3,.6c0-.47,0-2.57,0-3-3.2.13-6,.5-8.17.78v-4.11c1.28-.13,7-.39,8.14-.46,0-1,0-2-.1-3.2Zm-5.38,17.16c-.13,0-2.63,0-2.63,1.07,0,.86,1.43.94,1.88.94,1.27,0,2-.47,1.89-1.9A5.7,5.7,0,0,0,355.22,121.46Z"/>
          <path class="cls-2" d="M390.55,104.38c.37.05.6.08.6.37s-.31.36-.52.41c0,.13.08,3.82.11,4.19,3.22-.47,4.08-.55,5-.63V113c-.42,0-.86-.07-1.51-.07-1.22,0-2.42.13-3.46.23,0,7-1.14,7.23-6.06,7.23a23.55,23.55,0,0,0-1-3.85,8.71,8.71,0,0,0,1.46.13c1.45,0,1.56-.36,1.71-3l-5.22.88c0,.81-.06,1.59-.06,2.37,0,4.13.21,4.39.71,4.86s1.35.73,3.14.73a38.91,38.91,0,0,0,8.74-1.12,20.15,20.15,0,0,0-.5,4.24,71.63,71.63,0,0,1-9,.7c-1.5,0-5.56,0-6.52-3.59-.39-1.48-.37-3.54-.31-7.38-3.12.78-4,1-5.05,1.3l-.31-4.55a32.81,32.81,0,0,0,5.23-.71,58.23,58.23,0,0,0-.34-6l4.5.5c.39,0,.7.08.7.41s-.29.37-.47.39c-.05.65-.23,3.41-.29,4,.78-.13,3.28-.52,4.92-.8a32.1,32.1,0,0,0-.63-6.17Z"/>
          <path class="cls-2" d="M411.9,105.06c.23.1.42.23.42.47s-.39.31-.63.26c-1,1.69-2.18,4-3.56,6.78-.26.5-.36.65-.57,1a10.26,10.26,0,0,1,2.42-.34c1.61,0,3.79.63,3.79,3.33a11.65,11.65,0,0,1-.23,2.18,12.22,12.22,0,0,0-.31,2.55c0,.68.18,1.3,1,1.3s3.75-1.64,5.59-4.26a28.16,28.16,0,0,0,2.74,3.3,19.43,19.43,0,0,1-4.43,3.77,10.28,10.28,0,0,1-5,1.53c-2.42,0-4.16-1.37-4.16-4,0-.78.44-4.21.44-4.91,0-.94-.52-1.25-1.07-1.25-2.8,0-5.92,8-6.34,9.59l-4.24-1.76c1.67-2.79,5.44-10.59,6.24-12.3,1.64-3.54,2.68-6.11,3.9-9.26Z"/>
          <path class="cls-2" d="M426.69,103a18.52,18.52,0,0,1,0,24.86l-2.28-2a15.67,15.67,0,0,0,0-20.85Z"/>
        </g>
      </g>
    </g>
  </g>
</svg>
