<svg xmlns="http://www.w3.org/2000/svg" viewBox="0 0 32 32"><defs><style>.cls-1 {fill: #fff;fill-rule: evenodd;}</style></defs><path class="cls-1" d="M16,32A16,16,0,1,1,32,16,16,16,0,0,1,16,32ZM29.07,20.985H22.079a21.676,21.676,0,0,1-2.711,8.6A14.027,14.027,0,0,0,29.07,20.985ZM20.5,16c0-1.035-.034-2.044-0.1-3.019H11.6c-0.063.975-.1,1.984-0.1,3.019s0.034,2.039.1,3.012H20.4C20.467,18.043,20.5,17.036,20.5,16ZM16,2a14.072,14.072,0,0,0-1.408.079c-1.31,1.407-2.351,4.722-2.819,8.937h8.455c-0.468-4.215-1.509-7.53-2.819-8.937A14.077,14.077,0,0,0,16,2ZM11.772,20.985c0.467,4.211,1.505,7.524,2.813,8.936A14.064,14.064,0,0,0,16,30a14.068,14.068,0,0,0,1.415-.079c1.308-1.412,2.346-4.725,2.813-8.936H11.772Zm0.86,8.6a21.677,21.677,0,0,1-2.711-8.6H2.93A14.027,14.027,0,0,0,12.632,29.587ZM2,16a14.024,14.024,0,0,0,.334,3.015H9.717C9.643,18.038,9.6,17.032,9.6,16s0.043-2.038.117-3.015H2.334A14.024,14.024,0,0,0,2,16Zm0.93-4.985H9.921a21.679,21.679,0,0,1,2.711-8.6A14.027,14.027,0,0,0,2.93,11.015Zm16.438-8.6a21.678,21.678,0,0,1,2.711,8.6H29.07A14.027,14.027,0,0,0,19.368,2.413Zm2.915,10.572C22.357,13.962,22.4,14.968,22.4,16s-0.043,2.038-.117,3.016h7.383a13.767,13.767,0,0,0,0-6.031H22.283Z"/></svg>