<svg xmlns="http://www.w3.org/2000/svg" viewBox="0 0 1964 408"><defs><style>.cls-1 {fill: #fff;fill-rule: evenodd;}</style></defs><path class="cls-1" d="M1905.21,209.424c24.55,8.559,50.81,34.807,50.81,101.568V327.54c0,24.536,1.14,55.92,5.13,73.038H1851.56c-6.28-17.118-7.99-45.649-7.99-85.591V304.716c0-34.237-8.56-52.5-59.37-52.5h-40.52V400.578H1631.8V7.428h194.64c93.04,0,137.57,49.643,137.57,108.986C1964.01,170.622,1932.04,198.582,1905.21,209.424ZM1797.33,87.884h-53.65v83.879h53.65c38.25,0,51.95-15.977,51.95-42.225S1832.72,87.884,1797.33,87.884ZM1434.89,7.428h115.87v393.15H1434.89V7.428ZM1247.12,324.116H1123.83L1101,400.578H989.12L1113.55,7.428h148.98l129.01,393.15H1271.1ZM1184.91,83.889h-1.72c-9.13,42.226-24.54,98.145-39.95,154.636h83.9C1208.88,176.9,1193.47,122.12,1184.91,83.889Zm-621,46.22h-1.142c3.425,37.089,4,112.981,4,182.024v88.445h-105.6V7.428H599.3C640.4,95.872,700.335,215.7,716.888,264.2h2.283c-4.566-41.084-5.708-110.128-5.708-172.895V7.428H818.491v393.15H687.207C654.1,329.252,582.75,182.034,563.913,130.109ZM196.349,408C63.922,408-.008,315.557-0.008,204.288-0.008,91.307,70.2.01,202.057,0.01c123.864,0,195.785,86.162,195.785,203.708C397.842,314.987,331.058,408,196.349,408Zm2.283-324.677c-55.939,0-79.913,46.219-79.913,119.257,0,71.9,23.974,122.111,81.054,122.111,59.935,0,79.913-53.067,79.913-119.828C279.686,132.962,258.566,83.319,198.632,83.319Z"/></svg>