<svg xmlns="http://www.w3.org/2000/svg" viewBox="0 0 121.48 85.04"><style type="text/css">.st0{fill:#FF0000;}.st1{fill:#FFFFFF;}</style><g><path class="st0" d="M118.95,13.28c-1.4-5.23-5.51-9.34-10.74-10.74C98.73,0,60.74,0,60.74,0S22.75,0,13.28,2.54C8.05,3.94,3.94,8.05,2.54,13.28C0,22.75,0,42.52,0,42.52s0,19.77,2.54,29.24c1.4,5.23,5.51,9.34,10.74,10.74c9.47,2.54,47.46,2.54,47.46,2.54s37.99,0,47.46-2.54c5.23-1.4,9.34-5.51,10.74-10.74c2.54-9.47,2.54-29.24,2.54-29.24S121.48,22.75,118.95,13.28z"/><polygon class="st1" points="48.59,60.74 80.16,42.52 48.59,24.3"/></g></svg>