<svg xmlns="http://www.w3.org/2000/svg" width="323" height="39.787" viewBox="0 0 323 39.787"><path data-name="パス 116" d="M0,2.482H8.913a.476.476,0,0,1,.475.475V15.948H11.87V2.957a.476.476,0,0,1,.475-.475h8.883V0H0Z"/><path data-name="パス 117" d="M123.591,0H109.509a3.46,3.46,0,0,0-2.531,1.042,3.461,3.461,0,0,0-1.042,2.531v8.8a3.559,3.559,0,0,0,3.573,3.574h14.082a3.559,3.559,0,0,0,3.574-3.574v-8.8a3.461,3.461,0,0,0-1.042-2.531A3.462,3.462,0,0,0,123.591,0ZM108.418,3.574a1.1,1.1,0,0,1,1.091-1.092h14.082a1.1,1.1,0,0,1,1.091,1.092v8.8a1.1,1.1,0,0,1-1.091,1.092H109.509a1.1,1.1,0,0,1-1.091-1.092Z" transform="translate(-83.029)"/><path data-name="パス 118" d="M427.767,0H413.684a3.46,3.46,0,0,0-2.531,1.042,3.461,3.461,0,0,0-1.043,2.531v8.8a3.559,3.559,0,0,0,3.573,3.574h14.082a3.559,3.559,0,0,0,3.574-3.574v-8.8A3.461,3.461,0,0,0,430.3,1.043,3.462,3.462,0,0,0,427.767,0ZM412.593,3.574a1.1,1.1,0,0,1,1.091-1.092h14.082a1.1,1.1,0,0,1,1.091,1.092v8.8a1.1,1.1,0,0,1-1.091,1.092H413.684a1.1,1.1,0,0,1-1.091-1.092Z" transform="translate(-321.431)"/><path data-name="パス 119" d="M575.77,0H561.688a3.461,3.461,0,0,0-2.531,1.042,3.461,3.461,0,0,0-1.042,2.531v8.8a3.558,3.558,0,0,0,3.573,3.574h14.082a3.558,3.558,0,0,0,3.573-3.574V7.334h-8.078V9.846h5.121a.476.476,0,0,1,.475.475v2.053a1.1,1.1,0,0,1-1.092,1.092H561.687a1.1,1.1,0,0,1-1.092-1.092v-8.8a1.1,1.1,0,0,1,1.092-1.092h14.082a1.1,1.1,0,0,1,1.092,1.092v.9h2.482v-.9A3.463,3.463,0,0,0,578.3,1.043,3.463,3.463,0,0,0,575.769,0Z" transform="translate(-437.43)"/><path data-name="パス 120" d="M685.651,0H671.569a3.461,3.461,0,0,0-2.531,1.042A3.461,3.461,0,0,0,668,3.573V15.948h2.482v-4.6a.476.476,0,0,1,.475-.475h15.314a.476.476,0,0,1,.475.475v4.6h2.482V3.574a3.462,3.462,0,0,0-1.042-2.531A3.462,3.462,0,0,0,685.651,0Zm1.091,3.574V7.916a.476.476,0,0,1-.475.475H670.952a.476.476,0,0,1-.475-.475V3.574a1.1,1.1,0,0,1,1.091-1.092h14.082a1.1,1.1,0,0,1,1.091,1.092Z" transform="translate(-523.551)"/><path data-name="パス 121" d="M901.325,15.948h19.38V13.466H904.282a.476.476,0,0,1-.475-.475V9.7a.476.476,0,0,1,.475-.475H917.39V6.718H904.282a.476.476,0,0,1-.475-.475V2.957a.476.476,0,0,1,.475-.475h16.423V0h-19.38Z" transform="translate(-706.426)"/><path data-name="パス 122" d="M1057.9,0h-14.082a3.461,3.461,0,0,0-2.531,1.042,3.461,3.461,0,0,0-1.042,2.531V5.656a3.46,3.46,0,0,0,1.042,2.531,3.46,3.46,0,0,0,2.531,1.042H1057.9a1.08,1.08,0,0,1,.77.308,1.008,1.008,0,0,1,.321.754v2.083a1.1,1.1,0,0,1-1.092,1.092h-14.082a1.1,1.1,0,0,1-1.091-1.092V11.5h-2.482v.874a3.559,3.559,0,0,0,3.573,3.574H1057.9a3.559,3.559,0,0,0,3.574-3.574V10.292a3.559,3.559,0,0,0-3.574-3.573h-14.082a1.078,1.078,0,0,1-.77-.308,1.006,1.006,0,0,1-.321-.754V3.574a1.1,1.1,0,0,1,1.091-1.092H1057.9a1.1,1.1,0,0,1,1.092,1.092v.874h2.482V3.574a3.461,3.461,0,0,0-1.042-2.531A3.462,3.462,0,0,0,1057.9,0Z" transform="translate(-815.304)"/><path data-name="パス 123" d="M1169.372,6.243a.476.476,0,0,1-.475.475h-15.813a.476.476,0,0,1-.475-.475V0h-2.482V15.948h2.482V9.705a.476.476,0,0,1,.475-.475H1168.9a.476.476,0,0,1,.475.475v6.243h2.511V0h-2.511Z" transform="translate(-901.428)"/><path data-name="パス 124" d="M1280.1,0h-14.082a3.459,3.459,0,0,0-2.53,1.042,3.46,3.46,0,0,0-1.043,2.531v8.8a3.559,3.559,0,0,0,3.573,3.573H1280.1a3.558,3.558,0,0,0,3.574-3.573v-8.8a3.461,3.461,0,0,0-1.042-2.531A3.462,3.462,0,0,0,1280.1,0Zm1.092,3.574v8.8a1.1,1.1,0,0,1-1.091,1.092h-14.082a1.1,1.1,0,0,1-1.091-1.092v-8.8a1.1,1.1,0,0,1,1.091-1.092H1280.1a1.1,1.1,0,0,1,1.091,1.092Z" transform="translate(-989.456)"/><path data-name="パス 125" d="M227.464,7.974a.471.471,0,0,1,.151-.348L235.792,0h-3.328L225.2,6.595a.474.474,0,0,1-.319.123H218.8a.476.476,0,0,1-.475-.475V0h-2.512V15.948h2.512V9.705a.476.476,0,0,1,.475-.475h6.077a.474.474,0,0,1,.317.121l7.365,6.584.015.013h3.238l-8.2-7.626a.47.47,0,0,1-.152-.348Z" transform="translate(-169.149)"/><path data-name="パス 126" d="M330.248,0l-6.855,7.365a.472.472,0,0,1-.347.152h0a.47.47,0,0,1-.346-.15L315.8.017,315.78,0h-3.317l9.2,10.1a.475.475,0,0,1,.124.32v5.533h2.482V10.415a.474.474,0,0,1,.124-.32L333.6,0Z" transform="translate(-244.897)"/><path data-name="パス 127" d="M790.322,9.982a.475.475,0,0,1-.728,0L781.227.019,781.211,0h-3.334V15.948h2.482V3.838a.343.343,0,0,1,.606-.221l8.953,10.64.041.048,8.993-10.688a.343.343,0,0,1,.606.221v12.11h2.482V0h-3.334l-8.383,9.982Z" transform="translate(-609.672)"/><path data-name="パス 128" d="M1384.18,11.672a.343.343,0,0,1-.642,0L1379.149.034,1379.136,0h-3.417l-4.4,11.672a.343.343,0,0,1-.642,0L1366.274,0h-3.009l6.355,15.915.013.033h2.614l4.861-12.174a.343.343,0,0,1,.637,0l4.848,12.141.013.033h2.5L1391.479,0h-2.9Z" transform="translate(-1068.478)"/><path data-name="パス 129" d="M884.757,119.03V108.068h-2.738l-14.641,10.665v2.738h14.939v3.017h2.44v-3.017h3.333v-2.44Zm-2.851,0h-10.1a.274.274,0,0,1-.156-.5l10.237-7.112a.274.274,0,0,1,.43.225v6.975a.41.41,0,0,1-.41.41Z" transform="translate(-679.82 -84.7)"/><path data-name="パス 130" d="M548.832,107.918H534.267A3.553,3.553,0,0,0,531.645,109a3.629,3.629,0,0,0-1.067,2.636v.9h2.571v-.9a1.125,1.125,0,0,1,1.117-1.117h14.565a1.125,1.125,0,0,1,1.117,1.117v2.369a1.125,1.125,0,0,1-1.117,1.117H534.267a3.644,3.644,0,0,0-3.689,3.688v5.456H552.52V121.7H534.266a1.125,1.125,0,0,1-1.117-1.117V118.81a1.125,1.125,0,0,1,1.117-1.118h14.565A3.694,3.694,0,0,0,552.52,114v-2.369a3.695,3.695,0,0,0-3.688-3.718Z" transform="translate(-415.848 -84.582)"/><path data-name="パス 131" d="M662.3,107.921H647.739A3.552,3.552,0,0,0,645.118,109a3.629,3.629,0,0,0-1.067,2.636v8.942a3.59,3.59,0,0,0,1.067,2.606,3.553,3.553,0,0,0,2.621,1.082H662.3a3.694,3.694,0,0,0,3.688-3.688V111.64a3.694,3.694,0,0,0-3.688-3.718Zm.63,5.543a.488.488,0,0,1,.487.488v6.629A1.125,1.125,0,0,1,662.3,121.7H648.519a.352.352,0,0,1-.163-.664l14.353-7.514a.485.485,0,0,1,.226-.056Zm-1.274-2.278L647.336,118.7a.487.487,0,0,1-.714-.431v-6.628a1.125,1.125,0,0,1,1.117-1.117H661.5a.352.352,0,0,1,.164.664h0Z" transform="translate(-504.784 -84.585)"/><path data-name="パス 132" d="M775.775,107.92H761.21A3.553,3.553,0,0,0,758.588,109a3.629,3.629,0,0,0-1.067,2.636v.9h2.571v-.9a1.125,1.125,0,0,1,1.117-1.117h14.565a1.125,1.125,0,0,1,1.117,1.117v2.369a1.126,1.126,0,0,1-1.117,1.117H761.21a3.644,3.644,0,0,0-3.689,3.688v5.456h21.942V121.7H761.209a1.125,1.125,0,0,1-1.117-1.117v-1.768a1.125,1.125,0,0,1,1.117-1.117h14.565a3.694,3.694,0,0,0,3.688-3.688v-2.369a3.694,3.694,0,0,0-3.688-3.718Z" transform="translate(-593.718 -84.584)"/></svg>