<svg xmlns="http://www.w3.org/2000/svg" width="42.001" height="42" viewBox="0 0 42.001 42"><path d="M42,21A21,21,0,1,0,17.719,41.745V27.071H12.387V21h5.332V16.374c0-5.263,3.135-8.17,7.932-8.17a32.3,32.3,0,0,1,4.7.41v5.168H27.7c-2.609,0-3.422,1.619-3.422,3.279V21h5.824l-.931,6.07H24.282V41.744A21.005,21.005,0,0,0,42,21Z" fill="#1877f2"/><path d="M29.174,27.07,30.1,21H24.281V17.061c0-1.661.814-3.279,3.422-3.279h2.648V8.614a32.3,32.3,0,0,0-4.7-.41c-4.8,0-7.932,2.907-7.932,8.17V21H12.386v6.07h5.332V41.745a21.235,21.235,0,0,0,6.562,0V27.071h4.893Z" fill="#fff"/></svg>