<svg xmlns="http://www.w3.org/2000/svg" width="98.063" height="18.031"><path fill-rule="evenodd" d="M12.387 11.957a7.264 7.264 0 0 1-4.445 1.567 4.6 4.6 0 0 1-4.894-4.965c0-2.982 1.871-4.964 4.7-4.964a5.077 5.077 0 0 1 3.653 1.435l.99-2.926A8.116 8.116 0 0 0 7.731.669a7.512 7.512 0 0 0-7.72 7.909c0 4.719 3.095 7.872 7.738 7.872a9.993 9.993 0 0 0 4.642-1.095v-3.4zm7.99-5.059v-3h6.37V.972h-9.412v15.177h9.645v-2.927h-6.6V9.749h5.83V6.898h-5.83zM37.039 9.73a4.068 4.068 0 0 0 2.987-4.191A4.4 4.4 0 0 0 37.795 1.5a5.609 5.609 0 0 0-2.879-.529h-4.338v15.177h2.987V9.994l.378-.019 3.653 6.173h3.6zm-3.473-5.833h1.152c1.619 0 2.267.472 2.267 1.661s-.684 1.7-2.267 1.7h-1.153v-3.36zM50.622.669a7.486 7.486 0 0 0-7.468 7.815c0 4.606 3.149 7.966 7.468 7.966 4.283 0 7.468-3.36 7.468-7.891S54.903.669 50.621.669zm.018 2.926c2.483 0 4.427 2.171 4.427 4.964s-1.943 4.965-4.427 4.965a4.659 4.659 0 0 1-4.446-4.912c0-2.865 1.907-5.017 4.445-5.017zm26.689 11.892a11.768 11.768 0 0 1-3.563-2.076 22.243 22.243 0 0 0 2.825-2.454l-1.889-1.492h2.483V7.219h-7.2V6.37h5.848V4.312h-5.848v-.755h6.748V1.273h-6.748V.012h-2.753v1.265h-6.783v2.284h6.784v.751h-5.9V6.37h5.9v.849h-7.2v2.246h5.074a14.57 14.57 0 0 1-5.38 2.379l.882 2.756a27.349 27.349 0 0 0 3.455-1.454v1.831a55.244 55.244 0 0 1-2.753.265l.432 2.661c3.671-.491 6.73-1 8.709-1.434l-.054-2.568a25.777 25.777 0 0 1-3.707.718v-3.134a9.873 9.873 0 0 0 1.656-1.736 13.473 13.473 0 0 0 7.4 8.286zM74.27 9.465a20.586 20.586 0 0 1-2.214 2.133 9.046 9.046 0 0 1-1.2-2.133h3.419zM97.363.594H89.32v2.7h5.326v3.435h-5.2v8.948a1.756 1.756 0 0 0 1.925 2.038h4.589c1.565-.132 2-1.17 2.1-4.945l-2.591-.755c-.09 2.586-.234 3.077-.9 3.039h-1.763c-.594 0-.684-.132-.666-.925V9.352h5.218V.594zm-15.817 0v2.018h6.8V.593h-6.8zm-.576 2.737v2.17h7.99v-2.17h-7.99zm.576 2.85v2.058h6.8V6.181h-6.8zm0 2.794v2.076h6.8V8.975h-6.8zm0 2.85v5.833h6.8v-5.833h-6.8zm4.427 2v1.755h-1.962v-1.755h1.962z"/></svg>