<svg id="レイヤー_1" data-name="レイヤー 1" xmlns="http://www.w3.org/2000/svg" xmlns:xlink="http://www.w3.org/1999/xlink" viewBox="0 0 376.2 225.6"><defs><style>.cls-1{fill:url(#名称未設定グラデーション);}.cls-2{fill:url(#名称未設定グラデーション_6);}.cls-3{fill:url(#名称未設定グラデーション_8);}.cls-4{fill:url(#名称未設定グラデーション_13);}.cls-5{fill:url(#名称未設定グラデーション_14);}.cls-6{fill:url(#名称未設定グラデーション_15);}.cls-7{fill:url(#名称未設定グラデーション_16);}.cls-8{fill:url(#名称未設定グラデーション_17);}.cls-9{fill:url(#名称未設定グラデーション_30);}</style><linearGradient id="名称未設定グラデーション" x1="12.33" y1="738.12" x2="348.57" y2="738.12" gradientTransform="translate(0 -716.72)" gradientUnits="userSpaceOnUse"><stop offset="0" stop-color="#3bd1ff"/><stop offset="0.54" stop-color="#00f0a4"/><stop offset="1" stop-color="#04ff00"/></linearGradient><linearGradient id="名称未設定グラデーション_6" x1="12.33" y1="802.42" x2="348.57" y2="802.42" xlink:href="#名称未設定グラデーション"/><linearGradient id="名称未設定グラデーション_8" x1="12.33" y1="802.47" x2="348.57" y2="802.47" xlink:href="#名称未設定グラデーション"/><linearGradient id="名称未設定グラデーション_13" x1="12.33" y1="802.17" x2="348.57" y2="802.17" xlink:href="#名称未設定グラデーション"/><linearGradient id="名称未設定グラデーション_14" x1="12.33" y1="866.57" x2="348.57" y2="866.57" xlink:href="#名称未設定グラデーション"/><linearGradient id="名称未設定グラデーション_15" x1="12.33" y1="866.77" x2="348.57" y2="866.77" xlink:href="#名称未設定グラデーション"/><linearGradient id="名称未設定グラデーション_16" x1="12.33" y1="866.67" x2="348.57" y2="866.67" xlink:href="#名称未設定グラデーション"/><linearGradient id="名称未設定グラデーション_17" x1="12.33" y1="866.87" x2="348.57" y2="866.87" xlink:href="#名称未設定グラデーション"/><linearGradient id="名称未設定グラデーション_30" x1="18.99" y1="206.66" x2="355.82" y2="206.66" gradientTransform="translate(0 3)" xlink:href="#名称未設定グラデーション"/></defs><title>top_h1ensmp</title><path class="cls-1" d="M108.5,9V42.7H98.7V9H84.4V.1h38.4V9Z"/><path class="cls-1" d="M196.3.1h12.2l-18,20.6,18.7,22H196.8L179.4,21.1V42.7h-9.6V.1h9.6V20.3Z"/><path class="cls-1" d="M220.4.1,230,17.3,239.6.1h11.3l-16,26V42.7h-9.7V26L209.1.1Z"/><path class="cls-1" d="M126.4,0V42.8h40V0Zm30.9,33.5H135.6V9.4h21.7Z"/><path class="cls-1" d="M251.9,0V42.8h39.9V0Zm30.8,33.5H261V9.4h21.7Z"/><path class="cls-2" d="M86.3,107h-11l-3.2-8.9H55.3L52.1,107H41.2L57.4,64.4H70ZM63.7,73.8l-5.8,16H69.6Z"/><path class="cls-2" d="M101.8,64.4l9.3,30.8,9.3-30.8h14.1V107h-9.2V86.5c0-1.3.3-10.4.3-12l-10,32.5h-9.1l-10-32.5c.1,1.3.3,10.7.3,12V107H87.6V64.4Z"/><path class="cls-3" d="M172.1,64.4v8.9H147.6v7.9h23.6v8.5H147.6v8.5h25.1v8.9H137.8V64.4Z"/><path class="cls-2" d="M248.6,64.4V80.6h20.8V64.4h9.7V107h-9.7V89.5H248.6V107H239V64.4Z"/><path class="cls-2" d="M334.2,64.4,339,97.3l4.7-32.9h12.9l4.8,32.9,4.8-32.9h10.1L368,107H354.9l-4.8-32.5L345.3,107h-13L324,64.4Z"/><path class="cls-2" d="M282.8,64.3v42.8h39.9V64.3Zm30.8,33.5H292V73.7h21.7Z"/><polygon class="cls-2" points="39.9 79.2 39.9 64.3 0 64.3 0 107.1 39.9 107.1 39.9 92.2 39.9 83 30.8 83 19.9 83 19.9 92.2 30.8 92.2 30.8 97.8 9.1 97.8 9.1 73.7 30.8 73.7 30.8 79.2 39.9 79.2"/><polygon class="cls-4" points="235.1 72.8 235.1 64 200.3 64 200.3 68 200.3 72.8 200.3 81 200.3 87.1 200.3 89.9 226.3 89.9 226.3 98.1 200.3 98.1 200.3 106.9 226.3 106.9 235.1 106.9 235.1 98.1 235.1 89.9 235.1 87.8 235.1 81 209.1 81 209.1 72.8 235.1 72.8"/><path class="cls-5" d="M128.4,157.1c-2.8.3-4.5.8-4.5,4v1.4h28.6v8.9H114.2v-8.5c0-4.1,0-13,10.5-14.2l13.8-1.6c3.1-.4,4.6-.9,4.6-4.6s-1.2-5.3-9.2-5.3c-9,0-9.4,1.1-9.5,6.4H115c0-9.1.5-15.3,18.2-15.3,11.3,0,19.6.8,19.6,13.6,0,5.5-1.4,8.3-3.3,10a14,14,0,0,1-8,3.6Z"/><path class="cls-6" d="M176.3,128.3c17.3,0,19.7,4,19.7,22.1,0,17.4-3.2,21.4-18.5,21.4-16.3,0-20.2-2-20.2-21.8C157.3,132.5,160.4,128.3,176.3,128.3ZM167,150.2c0,12.7.6,12.8,10.2,12.8,8.1,0,9-.6,9-11.7,0-2.3-.1-9.5-.8-11.3-.9-2.5-3.9-2.8-8.8-2.8C167.7,137.2,167,137.4,167,150.2Z"/><path class="cls-7" d="M218,128.7v42.6h-9.8V137.5h-8.8v-8.9Z"/><path class="cls-8" d="M234.6,158.9c-.2,2.6.7,4.3,7.4,4.3,8.2,0,10.3-.9,10.3-10-1.6,1.4-3.4,3.1-11.9,3.1-8,0-16-1.4-16-13.7,0-14.2,8.9-14.2,18.3-14.2,16.5,0,19.3,3.3,19.3,20.3,0,18.3-1.6,23.2-19.6,23.2-10.8,0-17.4-1.8-17.4-12.9h9.6Zm17.7-16.8c0-4.9-2.7-5.1-10-5.1-7,0-8.3.9-8.3,5.4s2.1,5.5,9,5.5c7.8-.1,9.3-1.3,9.3-5.8Z"/><path class="cls-9" d="M24.21,218.84c-3,0-5.22-3.13-5.22-5.92V200.65c0-2.78,2.23-5.94,5.22-5.94H33c3,0,5.22,3.16,5.22,5.94v12.24c0,2.79-2.23,6-5.22,6ZM33,197.46H24.21v18.62H33Z"/><path class="cls-9" d="M55.82,218.84a4.69,4.69,0,0,1-4.67-4.7v-8.76H47.7v11.14a2.35,2.35,0,0,1-4.7,0V205a2.37,2.37,0,0,1,2.35-2.35h5.8a4.69,4.69,0,0,1,4.67,4.69v8.82h.41a1.37,1.37,0,0,1,0,2.73Z"/><path class="cls-9" d="M64.93,218.84a4.69,4.69,0,0,1-4.67-4.7v-6.87a4.66,4.66,0,0,1,4.67-4.67h3.88a4.66,4.66,0,0,1,4.67,4.67v.61a4.66,4.66,0,0,1-4.67,4.66H64.93v3.54h6.78a1.37,1.37,0,0,1,1.37,1.37,1.39,1.39,0,0,1-1.37,1.39Zm3.88-13.49H64.93v4.44h3.88Z"/><path class="cls-9" d="M103.67,218.84a4.57,4.57,0,0,1-2.35-.64,4.44,4.44,0,0,1-2.32.64H94.25c-3,0-5.25-3.16-5.25-6V197.35a2.63,2.63,0,1,1,5.25,0v18.73H99v-19a2.34,2.34,0,0,1,2.35-2.35,2.31,2.31,0,0,1,2.32,2.35v19h4.76V197.35a2.63,2.63,0,1,1,5.25,0v15.54c0,2.79-2.26,6-5.25,6Z"/><path class="cls-9" d="M123,218.84a4.69,4.69,0,0,1-4.69-4.67v-6.9A4.68,4.68,0,0,1,123,202.6h4a4.66,4.66,0,0,1,4.67,4.67v6.9a4.67,4.67,0,0,1-4.67,4.67Zm4-13.49h-4v10.73h4Z"/><path class="cls-9" d="M136,207.27a4.69,4.69,0,0,1,4.7-4.67H144A1.36,1.36,0,0,1,145.4,204a1.39,1.39,0,0,1-1.36,1.39h-3.37v11.17a2.35,2.35,0,0,1-4.7,0Z"/><path class="cls-9" d="M148.82,197.06a2.35,2.35,0,0,1,4.7,0v19.46a2.35,2.35,0,0,1-4.7,0Z"/><path class="cls-9" d="M171.5,218.84a4.72,4.72,0,0,1-3.07-1.13,1.37,1.37,0,0,1-1.34,1.13h-4.41a4.67,4.67,0,0,1-4.67-4.67v-6.9a4.66,4.66,0,0,1,4.67-4.67h4.15v-5.54a2.34,2.34,0,0,1,2.35-2.35,2.31,2.31,0,0,1,2.32,2.35v19h.35a1.42,1.42,0,0,1,1.39,1.4,1.39,1.39,0,0,1-1.39,1.36Zm-4.67-13.49h-4.15v10.76h4.56a4.74,4.74,0,0,1-.41-1.94Z"/><path class="cls-9" d="M177.15,221.28a1.22,1.22,0,0,1-.87.34,1.21,1.21,0,0,1-.84-2.11l1.28-1.31a2.61,2.61,0,1,1,4.35-1.94,2.62,2.62,0,0,1-.49,1.51,2.36,2.36,0,0,1-.24.34Z"/><path class="cls-9" d="M196.9,197.35a2.61,2.61,0,0,1,5.22,0v18.88a2.61,2.61,0,0,1-5.22,0Z"/><path class="cls-9" d="M220.19,218.84a4.69,4.69,0,0,1-4.67-4.7v-8.76h-3.45v11.14a2.35,2.35,0,0,1-4.7,0V205a2.37,2.37,0,0,1,2.35-2.35h5.8a4.69,4.69,0,0,1,4.67,4.69v8.82h.41a1.37,1.37,0,0,1,0,2.73Z"/><path class="cls-9" d="M226.39,205.35h-1.18a1.39,1.39,0,0,1-1.4-1.36,1.41,1.41,0,0,1,1.4-1.39h1.18v-3.19a4.69,4.69,0,0,1,4.68-4.7h6.32a2.35,2.35,0,1,1-2.44,2.75h-3.88v5.14h1.24a1.38,1.38,0,0,1,1.37,1.39,1.36,1.36,0,0,1-1.37,1.36h-1.24v11.17a2.3,2.3,0,0,1-2.33,2.32,2.32,2.32,0,0,1-2.35-2.32Zm8.56-.43a2.35,2.35,0,1,1,4.7,0v11.6a2.35,2.35,0,0,1-4.7,0Z"/><path class="cls-9" d="M257.6,218.84a4.69,4.69,0,0,1-4.67-4.7v-8.76h-3.45v11.14a2.35,2.35,0,0,1-4.7,0V205a2.37,2.37,0,0,1,2.35-2.35h5.8a4.69,4.69,0,0,1,4.67,4.69v8.82H258a1.37,1.37,0,0,1,0,2.73Z"/><path class="cls-9" d="M265,199.41a2.35,2.35,0,1,1,2.35-2.35A2.32,2.32,0,0,1,265,199.41ZM262.7,205a2.34,2.34,0,1,1,4.67,0v11.57a2.34,2.34,0,0,1-4.67,0Z"/><path class="cls-9" d="M278.25,218.84a4.69,4.69,0,0,1-4.7-4.67v-8.82h-1.19A1.38,1.38,0,0,1,271,204a1.4,1.4,0,0,1,1.39-1.39h1.19v-5.54a2.35,2.35,0,0,1,4.7,0v5.54h1.22a1.38,1.38,0,0,1,1.36,1.39,1.36,1.36,0,0,1-1.36,1.36h-1.22v10.73h1.36a1.42,1.42,0,0,1,1.39,1.4,1.39,1.39,0,0,1-1.39,1.36Z"/><path class="cls-9" d="M288.86,218.84a4.69,4.69,0,0,1-4.67-4.7v-6.87a4.66,4.66,0,0,1,4.67-4.67h3.89a4.66,4.66,0,0,1,4.67,4.67v.61a4.66,4.66,0,0,1-4.67,4.66h-3.89v3.54h6.79a1.36,1.36,0,0,1,1.36,1.37,1.39,1.39,0,0,1-1.36,1.39Zm3.89-13.49h-3.89v4.44h3.89Z"/><path class="cls-9" d="M312.38,218.84a1.36,1.36,0,0,1-1.37-1.36,1.39,1.39,0,0,1,1.37-1.4h2.75V197.35a2.63,2.63,0,0,1,5.25,0v15.57c0,2.79-2.26,5.92-5.25,5.92Z"/><path class="cls-9" d="M329.66,218.84a4.69,4.69,0,0,1-4.7-4.67v-6.9a4.69,4.69,0,0,1,4.7-4.67h4a4.66,4.66,0,0,1,4.67,4.67v6.9a4.67,4.67,0,0,1-4.67,4.67Zm4-13.49h-4v10.73h4Z"/><path class="cls-9" d="M344.66,224.61a1.36,1.36,0,0,1-1.37-1.36,1.38,1.38,0,0,1,1.37-1.39h6.49v-3h-3.8a4.67,4.67,0,0,1-4.67-4.67V205a2.34,2.34,0,1,1,4.67,0v11.13h3.8V205a2.34,2.34,0,0,1,2.35-2.35,2.31,2.31,0,0,1,2.32,2.35v15a4.67,4.67,0,0,1-4.67,4.67Z"/></svg>