<svg xmlns="http://www.w3.org/2000/svg" width="60" height="60" viewBox="0 0 60 60"><defs><style>.cls-1{fill:#f6f7fc;opacity:0;}.cls-2{opacity:0.5;}.cls-3{fill:#fff;}</style></defs><g id="最終形"><rect class="cls-1" width="60" height="60"/></g><g id="レイヤー_4" data-name="レイヤー 4" class="cls-2"><path class="cls-3" d="M113,971h-3V940a3,3,0,0,0-3-3H63a3,3,0,0,0-3,3v31H57a1,1,0,0,0-1,1,7.23,7.23,0,0,0,7.43,7h43.14a7.63,7.63,0,0,0,5.23-2,6.74,6.74,0,0,0,2.2-5A1,1,0,0,0,113,971ZM62,940a1,1,0,0,1,1-1h44a1,1,0,0,1,1,1v31H90.28a1,1,0,0,0-1,.87,1.6,1.6,0,0,1-.51.94,2,2,0,0,1-1.35.52H82.57a1.83,1.83,0,0,1-1.87-1.47,1,1,0,0,0-1-.86H62Zm48.43,35.51a5.63,5.63,0,0,1-3.86,1.49H63.43a5.34,5.34,0,0,1-5.32-4H79a3.9,3.9,0,0,0,3.61,2.33h4.86a3.94,3.94,0,0,0,2.71-1.05A3.68,3.68,0,0,0,91,973h20.85A4.89,4.89,0,0,1,110.43,975.51ZM85,967.8a11.79,11.79,0,1,0-3-.4A11.82,11.82,0,0,0,85,967.8Zm-1.81-1.95.82-3.08,2.2.59c-.14.2-.28.38-.43.56A5.3,5.3,0,0,1,83.19,965.85ZM85.57,957l3.26.87a19.89,19.89,0,0,1-1.72,4.1l-2.68-.72Zm-4.4-2.83a19.89,19.89,0,0,1,1.72-4.1l2.68.72L84.43,955Zm4.67,12A9.73,9.73,0,0,0,87,964.94c.29-.35.56-.74.83-1.14l2.71.73A10.21,10.21,0,0,1,85.84,966.15ZM95,957.89a.37.37,0,0,0-.14-.07l-4.08-1.1a22.28,22.28,0,0,0,.6-4.39l3.42.92A10,10,0,0,1,95,957.89Zm-1.18-7c.1.16.17.33.26.5l-2.73-.73a11.7,11.7,0,0,0-.59-3.07A10.09,10.09,0,0,1,93.83,950.9Zm.62,8.46.16,0a10.07,10.07,0,0,1-2.5,3.91l-3.41-.91a23.08,23.08,0,0,0,1.68-4.11Zm-6.09-12.79a6.11,6.11,0,0,1,1.37,3.66l-2.2-.59Zm1.44,5.33a20.26,20.26,0,0,1-.55,4.41L86,955.43l1.14-4.25Zm-3-5.75L86,949.23l-2.2-.59c.14-.2.28-.38.43-.56A5.17,5.17,0,0,1,86.81,946.15Zm-2.63-.32a10,10,0,0,0-1.2,1.23c-.29.35-.56.74-.83,1.14l-2.72-.73A10.23,10.23,0,0,1,84.18,945.83ZM75,954.11a.37.37,0,0,0,.14.07l4.08,1.1a22.28,22.28,0,0,0-.6,4.39l-3.42-.92A10,10,0,0,1,75,954.11Zm1.18,7c-.1-.16-.17-.33-.26-.5l2.73.73a11.7,11.7,0,0,0,.59,3.07A10.09,10.09,0,0,1,76.17,961.1Zm-.62-8.46a.5.5,0,0,0-.17,0,10,10,0,0,1,2.5-3.92l3.42.91a23.08,23.08,0,0,0-1.68,4.11Zm5.2,3.05,3.27.88-1.14,4.25-2.68-.72A20.26,20.26,0,0,1,80.75,955.69Zm-.48,6.08,2.2.59-.83,3.07A6.11,6.11,0,0,1,80.27,961.77Z" transform="translate(-55 -928)"/></g></svg>