<svg xmlns="http://www.w3.org/2000/svg" width="361.44" height="18.91" viewBox="0 0 361.44 18.91"><defs><style>.cls-1{isolation:isolate;}.cls-2{fill:#1f1411;}.cls-3{fill:#0068b6;}.cls-4{mix-blend-mode:multiply;}.cls-5,.cls-8{fill:#fff;stroke:#888;stroke-miterlimit:10;}.cls-5{stroke-width:1.1px;}.cls-6{fill:#a9cd36;}.cls-7{fill:#00a85f;}.cls-8{stroke-width:0.88px;}</style></defs><g class="cls-1"><g id="レイヤー_1" data-name="レイヤー 1"><polygon class="cls-2" points="8.05 15.66 8.05 9.35 2.94 9.35 2.94 15.66 0 15.66 0 0.58 2.94 0.58 2.94 6.83 8.05 6.83 8.05 0.58 10.99 0.58 10.99 15.66 8.05 15.66"/><path class="cls-2" d="M281.64,461.41a3.48,3.48,0,0,1-2.6-.84,4.08,4.08,0,0,1-1.13-3.13v-7.18h2.76v6.8a1.73,1.73,0,0,0,1.82,2h1.84v-8.77h2.76v11.16h-5.45" transform="translate(-266.13 -445.76)"/><path class="cls-2" d="M300.72,461.42v-6.84a1.84,1.84,0,1,0-3.67-.06v6.9H294.3v-6.67a1.92,1.92,0,0,0-1.82-2.17h-1.85v8.84h-2.75V450.26h5.44a3.42,3.42,0,0,1,2.93,1.4,4.18,4.18,0,0,1,3.3-1.4,3.86,3.86,0,0,1,2.71,1,4.17,4.17,0,0,1,1.21,3.14v7.05Z" transform="translate(-266.13 -445.76)"/><path class="cls-2" d="M320.64,461.42v-6.84a1.78,1.78,0,0,0-1.82-2H317v8.85h-2.75V450.26h5.44a3.62,3.62,0,0,1,2.61,1,4.09,4.09,0,0,1,1.12,3.14v7.05Z" transform="translate(-266.13 -445.76)"/><path class="cls-2" d="M308,461.41a3.69,3.69,0,0,1-2.81-.86,3.5,3.5,0,0,1-.92-2.48c0-1.75,1.21-3.2,3.78-3.2h2.6v-.54c0-1.21-.59-1.74-2.05-1.74h-4.31c0-.32,0-.31,0-2.33h4.4c3.09,0,4.7,1.31,4.7,3.9v7.26Zm2.65-4.65h-2.18c-1,0-1.55.47-1.55,1.25s.51,1.06,1.59,1.06h2.13Z" transform="translate(-266.13 -445.76)"/><path class="cls-2" d="M341.75,461.42a3.73,3.73,0,0,1-2.82-.87,3.54,3.54,0,0,1-.91-2.48c0-1.75,1.21-3.2,3.77-3.2h2.61v-.54c0-1.21-.59-1.74-2.06-1.74H338c0-.32,0-.31,0-2.33h4.41c3.09,0,4.7,1.31,4.7,3.9v7.26Zm2.65-4.66h-2.18c-1,0-1.55.47-1.55,1.25s.51,1.06,1.59,1.06h2.13Z" transform="translate(-266.13 -445.76)"/><path class="cls-2" d="M372,461.42a3.73,3.73,0,0,1-2.82-.87,3.54,3.54,0,0,1-.91-2.48c0-1.75,1.21-3.2,3.78-3.2h2.6v-.54c0-1.21-.59-1.74-2.06-1.74h-4.3c0-.32,0-.31,0-2.33h4.41c3.09,0,4.7,1.31,4.7,3.9v7.26Zm2.65-4.66h-2.18c-1,0-1.55.47-1.55,1.25s.51,1.06,1.59,1.06h2.13Z" transform="translate(-266.13 -445.76)"/><path class="cls-3" d="M356.06,460.55a3.75,3.75,0,0,1-2.69.87H350.7v3.25H348V450.26h5.42a3.85,3.85,0,0,1,2.69,1c1.1,1.1,1.12,3,1.12,4.64s0,3.56-1.12,4.66m-3.49-8h-1.86v6.5h1.86c1.65,0,1.86-1.38,1.86-3.18s-.21-3.32-1.86-3.32" transform="translate(-266.13 -445.76)"/><path class="cls-2" d="M358,446.31h2.82v3H358Zm0,3.95h2.75v11.16H358Z" transform="translate(-266.13 -445.76)"/><path class="cls-2" d="M366,461.42a3,3,0,0,1-3.19-3.16v-5.69h-1.17v-2.31h1.17v-2.82h2.75v2.82h1.95v2.31h-1.95v5.52c0,.64.3,1,.95,1h1v2.33Z" transform="translate(-266.13 -445.76)"/><rect class="cls-2" x="112.05" y="0.58" width="2.75" height="15.08"/><path class="cls-2" d="M331.81,458.88a2.45,2.45,0,0,1-1.88-.78c-.54-.59-.72-1.9-.74-4.3s.2-3.59.74-4.18a2.45,2.45,0,0,1,1.88-.78h5.47v-2.53h-5.49a5.49,5.49,0,0,0-4.07,1.56c-1.4,1.4-1.48,3.62-1.48,5.91v0h0c0,2.3.08,4.64,1.48,6a5.5,5.5,0,0,0,4.07,1.57h5.49v-2.54h-5.47" transform="translate(-266.13 -445.76)"/><g class="cls-4"><path class="cls-5" d="M384.76,461.16v-2.42l5.5-6.39a2.52,2.52,0,0,0,.77-1.78,1.79,1.79,0,1,0-3.58,0h-2.69a4.19,4.19,0,0,1,4.49-4.3,4.14,4.14,0,0,1,4.47,4.28c0,1.43-.56,2.2-1.58,3.38L388,458.74h5.69v2.42Z" transform="translate(-266.13 -445.76)"/><path class="cls-5" d="M399.7,461.29a4.25,4.25,0,0,1-4.49-4.39v-6.2a4.48,4.48,0,0,1,9,0v6.2A4.23,4.23,0,0,1,399.7,461.29Zm1.78-10.55a1.79,1.79,0,0,0-1.78-2,1.81,1.81,0,0,0-1.8,2v6.14a1.79,1.79,0,0,0,1.8,2,1.77,1.77,0,0,0,1.78-2Z" transform="translate(-266.13 -445.76)"/><path class="cls-5" d="M405.72,461.16v-2.42l5.5-6.39a2.55,2.55,0,0,0,.76-1.78,1.79,1.79,0,1,0-3.58,0h-2.68a4.18,4.18,0,0,1,4.48-4.3,4.14,4.14,0,0,1,4.47,4.28c0,1.43-.56,2.2-1.57,3.38L409,458.74h5.69v2.42Z" transform="translate(-266.13 -445.76)"/><path class="cls-5" d="M419.44,461.16V449.33l-3,2.61V449l3-2.6h2.69v14.72Z" transform="translate(-266.13 -445.76)"/></g><path class="cls-6" d="M448.23,457.86q-2.72,3.58-9.36,3.68V459.1a12,12,0,0,0,5.26-1.27,5.63,5.63,0,0,0,2.73-3.1h-9.73v-2.38h12.78a8.87,8.87,0,0,1-1.68,5.51" transform="translate(-266.13 -445.76)"/><rect class="cls-6" x="172.36" y="2.58" width="10.5" height="2.46"/><rect class="cls-6" x="185.01" y="7.82" width="11.39" height="2.53"/><rect class="cls-6" x="196.25" y="12.64" width="13.09" height="2.57"/><rect class="cls-6" x="198.03" y="3.16" width="10.05" height="2.54"/><polygon class="cls-6" points="235.43 1.73 235.43 2.31 235.43 2.66 235.43 4.06 236.82 4.06 236.99 4.06 236.99 1.73 235.43 1.73"/><path class="cls-6" d="M500.79,450.62v-2.2H493a7,7,0,0,1-2.93,4.66v2.65a7.4,7.4,0,0,0,2.91-1.89,8.68,8.68,0,0,0,1.92-3h5.37q-.75,7.5-8.18,8.28v2.42q6.42-.4,9.08-4.91a14,14,0,0,0,1.71-6h-2.1Z" transform="translate(-266.13 -445.76)"/><rect class="cls-6" x="237.58" y="1.73" width="1.56" height="2.33"/><rect class="cls-6" x="237.58" y="1.73" width="1.56" height="2.33"/><path class="cls-6" d="M489,450.62c-.25,3.71-1.38,6.44-3.42,8.19s-4.75,2.5-8.48,2.6v-2.6q4.39-.35,6.46-1.93,2.42-1.89,2.79-6.26Z" transform="translate(-266.13 -445.76)"/><polygon class="cls-6" points="210.79 2.64 210.79 2.65 210.79 5.27 216.23 6 216.23 3.38 210.79 2.64"/><rect class="cls-6" x="269.2" y="1.81" width="1.57" height="2.33"/><rect class="cls-7" x="269.2" y="1.81" width="1.57" height="2.33"/><path class="cls-7" d="M516.4,447.93a9.44,9.44,0,0,1-3.91,5.46v8.47h-2.64v-7a26,26,0,0,1-6,1.63v-2.53q8-1.47,9.84-6Z" transform="translate(-266.13 -445.76)"/><path class="cls-7" d="M525.65,448.22a15.87,15.87,0,0,1-3.47,8.92,13.56,13.56,0,0,1-7.65,4.32v-2.59q7.46-2.19,8.37-10.65Z" transform="translate(-266.13 -445.76)"/><rect class="cls-7" x="273.58" y="7.82" width="11.39" height="2.53"/><path class="cls-7" d="M565.39,450.44q-.39,5.83-3.65,8.53c-2,1.61-4.82,2.44-8.56,2.47v-2.59c3.14-.08,5.44-.74,6.89-2s2.43-3.44,2.7-6.45Z" transform="translate(-266.13 -445.76)"/><polygon class="cls-7" points="308.22 16 300.54 16 300.54 14.07 306.16 14.07 306.16 12.63 300.67 12.63 300.67 10.74 306.16 10.74 306.16 9.5 300.55 9.5 300.55 7.6 308.22 7.6 308.22 16"/><path class="cls-7" d="M588.19,450.62c-.24,3.71-1.39,6.44-3.42,8.19s-4.75,2.5-8.48,2.6v-2.6c2.93-.23,5.09-.87,6.46-1.93q2.41-1.89,2.79-6.26Z" transform="translate(-266.13 -445.76)"/><polygon class="cls-7" points="267.05 1.81 267.05 2.4 267.05 2.74 267.05 4.14 268.45 4.14 268.62 4.14 268.62 1.81 267.05 1.81"/><rect class="cls-7" x="269.2" y="1.81" width="1.57" height="2.33"/><rect class="cls-7" x="269.2" y="1.81" width="1.57" height="2.33"/><rect class="cls-6" x="269.2" y="1.81" width="1.57" height="2.33"/><rect class="cls-7" x="269.2" y="1.81" width="1.57" height="2.33"/><path class="cls-7" d="M537.61,456.62a29.75,29.75,0,0,1-1.86-3.57,17.64,17.64,0,0,0-1.31-2.43h-2v-1.47a7.46,7.46,0,0,0-1.69-.17h-2l-1.88,5a2.3,2.3,0,0,1-1.14,1.44v2.64a4,4,0,0,0,3.33-2.83l1.44-3.72H531a1.51,1.51,0,0,1,1.22.48,15.52,15.52,0,0,1,1.46,2.72,21.74,21.74,0,0,0,2.68,4.56,5.4,5.4,0,0,0,3.39,2v-2.7a4.52,4.52,0,0,1-2.13-2" transform="translate(-266.13 -445.76)"/><polygon class="cls-7" points="286.7 2.41 286.7 2.42 286.7 4.83 292.14 5.57 292.14 3.15 286.7 2.41"/><polygon class="cls-7" points="286.7 5.97 286.7 5.99 286.7 8.39 292.14 9.13 292.14 6.71 286.7 5.97"/><polygon class="cls-7" points="309.96 2.64 309.96 2.65 309.96 5.27 315.4 6 315.4 3.38 309.96 2.64"/><g class="cls-4"><path class="cls-8" d="M590.83,462v-2.31l5.31-6.1a2.41,2.41,0,0,0,.73-1.69,1.72,1.72,0,1,0-3.44,0h-2.6a4,4,0,0,1,4.33-4.11,4,4,0,0,1,4.31,4.09,4.43,4.43,0,0,1-1.52,3.21l-4,4.56h5.49V462Z" transform="translate(-266.13 -445.76)"/><path class="cls-8" d="M605.33,462.11a4.07,4.07,0,0,1-4.33-4.18V452a4.32,4.32,0,0,1,8.63,0v5.93A4.05,4.05,0,0,1,605.33,462.11ZM607,452a1.73,1.73,0,1,0-3.45,0v5.87a1.73,1.73,0,1,0,3.45,0Z" transform="translate(-266.13 -445.76)"/><path class="cls-8" d="M611.21,462v-2.31l5.3-6.1a2.39,2.39,0,0,0,.74-1.69,1.73,1.73,0,1,0-3.45,0h-2.59a4,4,0,0,1,4.33-4.11,4,4,0,0,1,4.3,4.09,4.46,4.46,0,0,1-1.51,3.21l-4,4.56h5.48V462Z" transform="translate(-266.13 -445.76)"/><path class="cls-8" d="M624.53,462V450.7l-2.89,2.49v-2.76l2.89-2.49h2.6V462Z" transform="translate(-266.13 -445.76)"/></g></g></g></svg>