<svg id="レイヤー_2" data-name="レイヤー 2" xmlns="http://www.w3.org/2000/svg" xmlns:xlink="http://www.w3.org/1999/xlink" width="217" height="23.04" viewBox="0 0 217 23.04"><defs><style>.cls-1{fill:#231815;}.cls-2{fill:#00873c;}.cls-3{fill:url(#新規グラデーションスウォッチ_1);}</style><linearGradient id="新規グラデーションスウォッチ_1" x1="332.86" y1="208" x2="332.86" y2="189.59" gradientUnits="userSpaceOnUse"><stop offset="0" stop-color="#00561f"/><stop offset="0.08" stop-color="#007028"/><stop offset="0.17" stop-color="#008831"/><stop offset="0.26" stop-color="#009a37"/><stop offset="0.36" stop-color="#00a43b"/><stop offset="0.49" stop-color="#00a73c"/><stop offset="0.54" stop-color="#19ab38"/><stop offset="0.62" stop-color="#38b134"/><stop offset="0.7" stop-color="#50b530"/><stop offset="0.79" stop-color="#62b82e"/><stop offset="0.89" stop-color="#6cb92c"/><stop offset="1" stop-color="#6fba2c"/></linearGradient></defs><path class="cls-1" d="M328.5,211a4.74,4.74,0,0,1-4.28,4.39l-.28-.61a3.84,3.84,0,0,0,3.67-3.14h-2.14A5.23,5.23,0,0,1,324,213l-.44-.51a4.26,4.26,0,0,0,1.94-2.35l.74.15a3.8,3.8,0,0,1-.34.7Z" transform="translate(-305.49 -192.46)"/><path class="cls-1" d="M334.11,210.7v4.38h-4.45V210.7Zm-.74.66h-3v3.06h3Z" transform="translate(-305.49 -192.46)"/><path class="cls-1" d="M335,214.75a6.21,6.21,0,0,0,3.46-3.59h-3.12v-.65h4a6.78,6.78,0,0,1-1.15,2.49,26.1,26.1,0,0,1,2,1.77l-.56.57a17.22,17.22,0,0,0-1.87-1.83,6.23,6.23,0,0,1-2.39,1.8Z" transform="translate(-305.49 -192.46)"/><path class="cls-1" d="M340.5,213a11.38,11.38,0,0,0,.83-1c.72-.85.95-1.1,1.34-1.1.19,0,.38,0,1,.6l2.6,2.55-.57.59L343.1,212c-.07-.06-.26-.27-.43-.27s-.27.13-.37.25c-.44.53-.86,1.08-1.26,1.64Z" transform="translate(-305.49 -192.46)"/><path class="cls-1" d="M348.47,212c0,2.51-.85,3.28-1.15,3.55l-.52-.53c.27-.22,1-.76,1-2.89v-1.66h.7Zm1.61,2.56c1.38-.33,1.69-2,1.75-2.32l.61.27a3.15,3.15,0,0,1-3,2.84v-5.06h.67Z" transform="translate(-305.49 -192.46)"/><path class="cls-1" d="M352.77,214.75a6.2,6.2,0,0,0,3.45-3.59h-3.11v-.65h4A6.78,6.78,0,0,1,356,213a26.1,26.1,0,0,1,2,1.77l-.56.57a17.22,17.22,0,0,0-1.87-1.83,6.23,6.23,0,0,1-2.39,1.8Z" transform="translate(-305.49 -192.46)"/><path class="cls-1" d="M363.35,210.44v.67h-2.82v1.37h2.68v.64h-2.68v1.49h2.87v.66h-3.59v-4.83Z" transform="translate(-305.49 -192.46)"/><path class="cls-1" d="M366.17,213.2l-1.35,2.07h-.88l1.73-2.49-1.59-2.34H365l1.22,1.9,1.2-1.9h.87l-1.59,2.34,1.74,2.49h-.89Z" transform="translate(-305.49 -192.46)"/><path class="cls-1" d="M371.51,210.44c1.12,0,1.47.56,1.47,1.52s-.45,1.52-1.55,1.52h-1.78v1.79h-.72v-4.83Zm-1.86.67v1.71h1.76c.5,0,.84-.08.84-.85s-.33-.86-.84-.86Z" transform="translate(-305.49 -192.46)"/><path class="cls-1" d="M377.78,212.86c0,1.67-.32,2.45-2.07,2.45s-2.24-.38-2.24-2.45c0-1.87.43-2.47,2.15-2.47S377.78,210.91,377.78,212.86Zm-3.58,0c0,1.47.15,1.8,1.49,1.8s1.36-.54,1.36-1.8-.13-1.81-1.43-1.81S374.2,211.49,374.2,212.86Z" transform="translate(-305.49 -192.46)"/><path class="cls-2" d="M437.51,192.78v.89h-7.26v5.63h5.89v.89h-5.89v5.46h7.26v.9h-9.57V192.78Z" transform="translate(-305.49 -192.46)"/><path class="cls-2" d="M440,206.55h-1.22l5.81-6.8-5.29-7H442l4,5.28,4.51-5.28h1.22l-5.17,6,5.87,7.73h-2.76l-4.56-6Z" transform="translate(-305.49 -192.46)"/><path class="cls-2" d="M454.19,192.78h4.37a7.36,7.36,0,0,1,2,.26,5.16,5.16,0,0,1,1.64.76,3.83,3.83,0,0,1,1.1,1.24,3.36,3.36,0,0,1,.41,1.67,3.43,3.43,0,0,1-.39,1.64,3.68,3.68,0,0,1-1,1.15,4.26,4.26,0,0,1-1.46.68,6.14,6.14,0,0,1-1.65.23l-.75,0c-.27,0-.52,0-.77-.06l-.67-.07-.5-.09v6.38h-2.32Zm2.32,6.62c.26.07.53.14.83.2a4.05,4.05,0,0,0,.92.1,3.49,3.49,0,0,0,1.31-.22,2.64,2.64,0,0,0,.93-.61,2.55,2.55,0,0,0,.55-.91,3.36,3.36,0,0,0,.18-1.11,3,3,0,0,0-.24-1.26,2.88,2.88,0,0,0-.66-1,3,3,0,0,0-1-.61,3.37,3.37,0,0,0-1.2-.22h-1.64Z" transform="translate(-305.49 -192.46)"/><path class="cls-2" d="M472.75,206.87a7.61,7.61,0,0,1-2-.26,7.32,7.32,0,0,1-1.82-.74,7.4,7.4,0,0,1-1.54-1.14,6.88,6.88,0,0,1-1.17-1.47,7.47,7.47,0,0,1-.76-1.74,7.32,7.32,0,0,1-.26-1.94,7,7,0,0,1,.26-1.9,7.12,7.12,0,0,1,1.93-3.14,8,8,0,0,1,1.54-1.11,7.68,7.68,0,0,1,1.82-.72,8.49,8.49,0,0,1,4.09,0,7.85,7.85,0,0,1,1.82.72,7.67,7.67,0,0,1,1.53,1.11,6.76,6.76,0,0,1,1.18,1.44,7,7,0,0,1,.75,1.7,6.66,6.66,0,0,1,.27,1.9,6.92,6.92,0,0,1-.27,1.93,7.76,7.76,0,0,1-.75,1.75,6.93,6.93,0,0,1-1.18,1.47,7.09,7.09,0,0,1-1.53,1.14,7.48,7.48,0,0,1-1.82.74A7.68,7.68,0,0,1,472.75,206.87Zm0-.69a4.2,4.2,0,0,0,2.09-.5,4.26,4.26,0,0,0,1.53-1.37,6.68,6.68,0,0,0,.94-2.09,10.49,10.49,0,0,0,.32-2.64,10.06,10.06,0,0,0-.32-2.6,6.24,6.24,0,0,0-.94-2,4.24,4.24,0,0,0-1.53-1.33,4.41,4.41,0,0,0-2.09-.48,4.51,4.51,0,0,0-2.12.48,4.13,4.13,0,0,0-1.52,1.33,6,6,0,0,0-.93,2,10.08,10.08,0,0,0-.31,2.6,10.5,10.5,0,0,0,.31,2.64,6.45,6.45,0,0,0,.93,2.09,4.15,4.15,0,0,0,1.52,1.37A4.29,4.29,0,0,0,472.75,206.18Z" transform="translate(-305.49 -192.46)"/><path class="cls-3" d="M337,200.4a1,1,0,0,1,0-1.3l5-5.53c.32-.36.19-.65-.29-.65h-4.21a2.23,2.23,0,0,0-1.46.65l-3.14,3.5,1.82,2a1,1,0,0,1,0,1.3l-1.82,2,3.14,3.5a2.28,2.28,0,0,0,1.46.65h4.21c.48,0,.61-.3.29-.65Zm-6-1.3,1.82-2-3.14-3.5a2.23,2.23,0,0,0-1.46-.65h-4.21c-.48,0-.61.29-.29.65l5,5.53a1,1,0,0,1,0,1.3l-5,5.53c-.32.35-.19.65.29.65h4.21a2.28,2.28,0,0,0,1.46-.65l3.14-3.5-1.82-2A1,1,0,0,1,331,199.1Z" transform="translate(-305.49 -192.46)"/><polygon class="cls-1" points="53 14.1 63.29 14.1 63.29 12.68 56.38 12.68 56.38 7.53 62.12 7.53 62.12 6.35 56.38 6.35 56.38 1.49 63.29 1.49 63.29 0.32 53 0.32 53 14.1"/><path class="cls-1" d="M378.09,192.48h-1.46l-6.73,14.08h2.44l1.28-2.77h6.08l1.2,2.77h3.64Zm-3.92,10.13,2.58-5.55,2.43,5.55Z" transform="translate(-305.49 -192.46)"/><polygon class="cls-1" points="47.46 6.66 41.92 6.66 41.92 0.32 38.54 0.32 38.54 14.1 41.92 14.1 41.92 7.85 47.46 7.85 47.46 14.1 50.81 14.1 50.81 0.32 47.46 0.32 47.46 6.66"/><polygon class="cls-1" points="83.97 0.32 80.59 0.32 80.59 14.1 91 14.1 91 12.68 83.97 12.68 83.97 0.32"/><polygon class="cls-1" points="113 0.32 113 6.66 107.45 6.66 107.45 0.32 104.08 0.32 104.08 14.1 107.45 14.1 107.45 7.85 113 7.85 113 14.1 116.35 14.1 116.35 0.32 113 0.32"/><polygon class="cls-1" points="89.13 1.49 93.9 1.49 93.9 14.1 97.27 14.1 97.27 1.49 102.04 1.49 102.04 0.32 89.13 0.32 89.13 1.49"/><path class="cls-1" d="M311.45,196.53v6.62l0,.59h-1v-.66h-3.95v.66h-1c0-.23,0-.43,0-.59v-6.62c0-.17,0-.36,0-.58h6Zm-1,.3h-3.95V199h3.95Zm-3.95,5.36h3.95v-2.33h-3.95Z" transform="translate(-305.49 -192.46)"/><path class="cls-1" d="M315,200v3.42a3.56,3.56,0,0,0,0,.38h-.87a1.79,1.79,0,0,0,0-.38V200l-1.08.1-.39.07-.08-.89a4,4,0,0,0,.5,0h.24l.63-.79a15.93,15.93,0,0,0-1.31-1.37l.47-.66.36.35c.13-.2.27-.4.4-.63s.24-.41.31-.56a3.19,3.19,0,0,0,.15-.36l.72.51L315,196a15.5,15.5,0,0,1-.94,1.5l.38.43c.11-.16.24-.35.37-.57s.27-.44.39-.66.21-.41.27-.55l.73.5-.11.14c-.21.36-.47.78-.79,1.24s-.63.89-.94,1.28c.38,0,.73-.06,1.06-.11a3.92,3.92,0,0,0-.28-.69l.68-.2a7.27,7.27,0,0,1,.32.76q.17.45.24.72c0,.18.08.3.09.37l-.75.24-.1-.48Zm-2.32,2.9a7.77,7.77,0,0,0,.39-2.3l.77.16,0,.17a8.44,8.44,0,0,1-.41,2.41Zm3.29-2.36a8.49,8.49,0,0,1,.22.9c.07.39.13.77.18,1.13l-.77.22a8.83,8.83,0,0,0-.1-1c-.07-.39-.13-.75-.21-1.06Zm4.68,2.24h.59v.9l-.59,0h-3.95l-.6,0v-.9h2.25v-1.26h-1.6v-.87h1.6v-.75c0-.1,0-.2,0-.31l.48,0,.46,0c0,.1,0,.19,0,.27v.75h1.62v.87h-1.62v1.26Zm-4.16-3.84a6.59,6.59,0,0,0,1.66-.53,4.6,4.6,0,0,1-.57-.75,4.25,4.25,0,0,1-.44-.91h-.57v-.83h3.49l.09-.1a4.33,4.33,0,0,1,.38.29c.15.12.29.25.42.37l-.12.07a3.47,3.47,0,0,1-.36.76,4.37,4.37,0,0,1-.47.65,4.93,4.93,0,0,1-.42.45,2.67,2.67,0,0,0,.58.26,10.22,10.22,0,0,0,1.07.24c-.12.3-.23.59-.33.86a10,10,0,0,1-1.14-.34,4.44,4.44,0,0,1-.87-.44,4.62,4.62,0,0,1-.89.45,10.09,10.09,0,0,1-1.13.36l-.08-.19-.17-.38c-.07-.17-.12-.27-.13-.31m3.35-2.19H318a4.09,4.09,0,0,0,.38.67,2.87,2.87,0,0,0,.49.54,2.68,2.68,0,0,0,.52-.54,3.09,3.09,0,0,0,.41-.67" transform="translate(-305.49 -192.46)"/><path class="cls-2" d="M484.28,206.55v-.37c1-1,1.9-1.82,2.65-2.56s1.38-1.39,1.9-2,.95-1.07,1.27-1.5a7.74,7.74,0,0,0,.76-1.14,3.6,3.6,0,0,0,.38-.92,4,4,0,0,0,.1-.85,3.61,3.61,0,0,0-.2-1.18,3.19,3.19,0,0,0-.57-1,2.74,2.74,0,0,0-.93-.71,3,3,0,0,0-1.3-.27,3.41,3.41,0,0,0-1.13.2,3.88,3.88,0,0,0-1,.53,3.55,3.55,0,0,0-.76.79,2.61,2.61,0,0,0-.39,1h-.41a4.19,4.19,0,0,1,.44-1.6,4.87,4.87,0,0,1,1-1.3,4.66,4.66,0,0,1,1.37-.88,4.22,4.22,0,0,1,1.62-.32,5.18,5.18,0,0,1,1.88.31,3.79,3.79,0,0,1,1.35.82,3.39,3.39,0,0,1,.81,1.21,3.74,3.74,0,0,1,.28,1.45,4.1,4.1,0,0,1-.35,1.61,8.69,8.69,0,0,1-1.14,1.83,26.74,26.74,0,0,1-2.06,2.29q-1.26,1.29-3.09,3h7.36l-1,1.56Z" transform="translate(-305.49 -192.46)"/><path class="cls-2" d="M500.28,206.87a4.15,4.15,0,0,1-2.08-.53,4.89,4.89,0,0,1-1.6-1.51,7.42,7.42,0,0,1-1-2.31,11.32,11.32,0,0,1-.37-2.94,10.23,10.23,0,0,1,.37-2.76,7.4,7.4,0,0,1,1-2.27,5.18,5.18,0,0,1,1.6-1.53,4,4,0,0,1,2.08-.56,4,4,0,0,1,2.08.56,5.4,5.4,0,0,1,1.6,1.53,7.63,7.63,0,0,1,1,2.27,9.85,9.85,0,0,1,.37,2.76,10.91,10.91,0,0,1-.37,2.94,7.64,7.64,0,0,1-1,2.31,5.09,5.09,0,0,1-1.6,1.51A4.21,4.21,0,0,1,500.28,206.87Zm0-.69a1.58,1.58,0,0,0,.85-.24,2.66,2.66,0,0,0,.69-.69,4.65,4.65,0,0,0,.54-1.07,8.14,8.14,0,0,0,.38-1.34,14.24,14.24,0,0,0,.23-1.56c0-.55.08-1.12.08-1.7a17.78,17.78,0,0,0-.17-2.48,9.29,9.29,0,0,0-.52-2,3.84,3.84,0,0,0-.86-1.39,1.7,1.7,0,0,0-2.45,0,3.83,3.83,0,0,0-.85,1.39,9.88,9.88,0,0,0-.52,2,17.82,17.82,0,0,0-.16,2.48c0,.58,0,1.15.07,1.7a14.24,14.24,0,0,0,.23,1.56,9.25,9.25,0,0,0,.38,1.34,5.08,5.08,0,0,0,.53,1.07,2.69,2.69,0,0,0,.7.69A1.58,1.58,0,0,0,500.28,206.18Z" transform="translate(-305.49 -192.46)"/><path class="cls-2" d="M506.39,206.55v-.37c1-1,1.91-1.82,2.66-2.56s1.38-1.39,1.9-2,.94-1.07,1.27-1.5A7.74,7.74,0,0,0,513,199a3.54,3.54,0,0,0,.37-.92,3.47,3.47,0,0,0,.1-.85,3.6,3.6,0,0,0-.19-1.18,3.19,3.19,0,0,0-.57-1,2.74,2.74,0,0,0-.93-.71,3,3,0,0,0-1.3-.27,3.36,3.36,0,0,0-1.13.2,3.88,3.88,0,0,0-1,.53,3.55,3.55,0,0,0-.76.79,2.81,2.81,0,0,0-.4,1h-.4a4.19,4.19,0,0,1,.44-1.6,4.87,4.87,0,0,1,1-1.3,4.53,4.53,0,0,1,1.37-.88,4.22,4.22,0,0,1,1.62-.32,5.18,5.18,0,0,1,1.88.31,3.79,3.79,0,0,1,1.35.82,3.53,3.53,0,0,1,.81,1.21,3.74,3.74,0,0,1,.28,1.45,4.1,4.1,0,0,1-.35,1.61,9.13,9.13,0,0,1-1.14,1.83A28.55,28.55,0,0,1,512,202c-.84.86-1.88,1.86-3.1,3h7.37l-1,1.56Z" transform="translate(-305.49 -192.46)"/><path class="cls-2" d="M520.53,206.55V194.89h-2.31v-.58a3.82,3.82,0,0,0,2-.49,3.06,3.06,0,0,0,1.17-1.36h1.08v14.09Z" transform="translate(-305.49 -192.46)"/><path class="cls-1" d="M381.67,213.55c-.42.07-.76.16-.76.92v.14h3.21v.66h-3.94v-.53c0-.76.06-1.66,1.24-1.83l1.2-.17c.54-.09.8-.23.8-.83s-.28-.85-1.19-.85-1.24.24-1.25,1h-.72c0-1,.31-1.66,1.93-1.66.92,0,1.95.11,1.95,1.51a1.2,1.2,0,0,1-.53,1.16,2,2,0,0,1-.78.3Z" transform="translate(-305.49 -192.46)"/><path class="cls-1" d="M389,212.93c0,1.76-.34,2.39-2,2.39s-2-.58-2-2.46.38-2.46,2-2.46S389,211,389,212.93Zm-3.31-.06c0,1.52.14,1.78,1.34,1.78s1.24-.31,1.24-1.75c0-1.61-.17-1.84-1.29-1.84S385.71,211.33,385.71,212.87Z" transform="translate(-305.49 -192.46)"/><path class="cls-1" d="M391.32,213.55c-.43.07-.76.16-.76.92v.14h3.21v.66h-3.94v-.53c0-.76.06-1.66,1.24-1.83l1.19-.17c.54-.09.81-.23.81-.83s-.29-.85-1.19-.85-1.24.24-1.25,1h-.72c0-1,.31-1.66,1.93-1.66.92,0,2,.11,2,1.51a1.2,1.2,0,0,1-.53,1.16,2,2,0,0,1-.78.3Z" transform="translate(-305.49 -192.46)"/><path class="cls-1" d="M396.51,210.45v4.82h-.73v-4.16h-.94v-.66Z" transform="translate(-305.49 -192.46)"/></svg>