<svg xmlns="http://www.w3.org/2000/svg" viewBox="0 0 403.33 30"><defs><style>.cls-1{fill:#ffa000;}</style></defs><g id="レイヤー_2" data-name="レイヤー 2"><g id="object"><path class="cls-1" d="M42.23,9.4v3.07H33.92V15.9h6.27v3.22H33.92v4.37h9v3.05H21V23.49h9.1V19.12H23.72V15.9h6.41V12.47H21.82V9.4H31a12.74,12.74,0,0,0-3.24-2.52L30.13,4.5a20.47,20.47,0,0,1,4.58,3.43A18.16,18.16,0,0,0,33.1,9.4Z"/><path class="cls-1" d="M62,16.05v1H65.7v2.42H62v1H65.7v2.42H62v1h4.85v2.61h-11v.39H52.42V18.54l-.64.65a8.66,8.66,0,0,0-1.16-1.7V26.9h-3.5V15.38l-.65.79A5.72,5.72,0,0,0,44,13.7a25.3,25.3,0,0,0,5-9.13L52.42,5.7V5.32l3.41.12c.27,0,.36.14.36.33s-.19.36-.52.58v2.3h1.8v-4L61,4.91c.24,0,.36.14.36.31s-.36.41-.57.46v3h2V5.44l3.55.21c.29,0,.44.1.44.27s-.29.41-.6.55v4.8H60.68l1.68.91a.47.47,0,0,1,.27.39c0,.26-.34.36-.7.43-.1.17-.24.38-.38.6h5.13v2.45Zm-11.36-.43a22.25,22.25,0,0,0,3.27-4.35H52.42V6.42l-.21.1c-.41.89-.65,1.39-1.49,3,.36.19.46.24.46.41s-.39.43-.56.51Zm5.19.43v1h2.78v-1Zm0,3.43v1h2.78v-1Zm2.78,4.42v-1H55.81v1Zm-.86-10.3a22.87,22.87,0,0,0,1.34-2.33h-3l1.1.55c.19.1.34.19.34.39s-.27.36-.7.41c-.26.43-.36.57-.6,1Z"/><path class="cls-1" d="M89.22,6.73a.51.51,0,0,1,.24.32c0,.14-.12.26-.36.26a3.55,3.55,0,0,1-.41,0c-1.58,2.36-2.4,3.41-2.81,3.94h5v3H83.15a21.92,21.92,0,0,1-1.85,1.59h7.29V27H85.14v-.89h-8V27H73.74V20.25a26.53,26.53,0,0,1-3.27,1.2,11.14,11.14,0,0,0-1.87-3.39A27.74,27.74,0,0,0,78,14.22H69.08v-3h8.33V9.93H70.74V7h6.67v-2l3.77.15c.14,0,.38,0,.38.26s-.17.27-.6.43V7h2.83V8.58A23.27,23.27,0,0,0,86,4.93Zm-4.08,13V18.64h-8v1.13Zm0,3.6V22.26h-8v1.11ZM81.61,11.2c.22-.22.48-.5,1.13-1.27H81V11.2Z"/><path class="cls-1" d="M104.05,6c.43.09.57.14.57.4s-.31.32-.62.34c-.12.48-.67,2.5-.79,3,4.25-.16,5.69,2.48,5.69,7.13,0,.39,0,5.52-2,8A4.44,4.44,0,0,1,103,26.49a6.31,6.31,0,0,1-2-.29,11.25,11.25,0,0,0-.5-3.91,9.25,9.25,0,0,0,2.52.48c2,0,2.23-4.32,2.23-6.72,0-1-.07-2.71-2.26-2.71-.24,0-.48,0-.72,0a49.7,49.7,0,0,1-5.47,13,11.85,11.85,0,0,0-3.46-1.92,42.64,42.64,0,0,0,5.07-10.23A19.8,19.8,0,0,0,95,15.52l-1.13-4.06a52.7,52.7,0,0,0,5.55-1.12A26.13,26.13,0,0,0,100.14,5Zm6.17,2.9a30.15,30.15,0,0,1,3.89,4.63,5.38,5.38,0,0,1,1.15,3c0,1.8-2.09,2.57-3.53,3.12a27.37,27.37,0,0,0-1.82-3.19c.91-.29,1.22-.38,1.22-.91,0-1.15-2.35-4.18-3.38-5.28Zm1.34-3a15.2,15.2,0,0,1,2,2.38c-.55.38-.67.48-1.75,1.27-.24-.31-1.44-1.89-2-2.45ZM114,4.41a13.53,13.53,0,0,1,2,2.44c-.53.39-1.39,1-2,1.37a10.76,10.76,0,0,0-1.92-2.64Z"/><path class="cls-1" d="M126.34,11.37H139v3.29h-2.91v9.5c0,1.18,0,2.83-5.73,2.71a7.65,7.65,0,0,0-1.2-3.65c.4.05,1.92.2,2.13.2.44,0,1,0,1-.82V14.66H126V12.09a1.15,1.15,0,0,0-.22,0c-1.08,1.42-1.61,2.09-2.16,2.79.19.07.53.22.53.43s0,.27-.29.43V26.87H120.1v-8.4a11,11,0,0,1-1.39,1.13A8.13,8.13,0,0,0,116,17.34a24.28,24.28,0,0,0,7.28-7.68Zm-1.08-5a.55.55,0,0,1,.27.38c0,.36-.39.39-.6.39a31.28,31.28,0,0,1-5.81,4.94,8.65,8.65,0,0,0-2.71-2.28,28,28,0,0,0,6.12-5.14Zm12.92,2.28H127V5.39h11.21Z"/><path class="cls-1" d="M142.16,8.77a16.47,16.47,0,0,0,2.66.2c.7,0,1.42-.05,2.45-.12a39,39,0,0,0,.89-4.08l3.77,1.17c.34.1.46.19.46.39s-.39.28-.51.28c-.07.17-.38,1.28-.48,1.59A21,21,0,0,0,154,7.41a25,25,0,0,0,.08,3.57,32.09,32.09,0,0,1-3.84.84c-.34,1-1.16,3.2-2.45,6.15A32.4,32.4,0,0,1,145,23.25a18.92,18.92,0,0,0-3.6-1.44,43.56,43.56,0,0,0,4.85-9.48c-.56.05-2.86.12-3.6.12Zm15.53,6.56a3.52,3.52,0,0,0-.86,2.35,15.84,15.84,0,0,0,.24,2.35A25.28,25.28,0,0,1,162.15,23a24.16,24.16,0,0,0-2.2,2.88,23.06,23.06,0,0,0-2.76-2c-.46,2.26-2,2.93-4.8,2.93-3.82,0-5.72-1.7-5.72-4,0-.45.1-3.79,5-3.79.67,0,1.15.05,1.58.07,0-.17-.12-1.89-.12-2.09a4.65,4.65,0,0,1,1.68-3.33Zm-5.95,6.53c-.68,0-1.54.33-1.54,1s.7.89,1.71.89c1.63,0,1.72-.79,1.8-1.39A4.65,4.65,0,0,0,151.74,21.86Zm4.65-12.8a17.87,17.87,0,0,1,6.32,3.12,31.68,31.68,0,0,0-2.19,3.1,17.12,17.12,0,0,0-6-3.1Z"/><path class="cls-1" d="M166.59,12.88c1.08-.1,1.49-.24,5.16-1.58a19.19,19.19,0,0,1,6.63-1.49,6.35,6.35,0,0,1,6.6,6.72c0,7.44-8.26,10.34-11.45,10.92A12.78,12.78,0,0,0,171,24.18c9.07-1.63,10.13-5.83,10.13-7.44a3.16,3.16,0,0,0-3.27-3.38c-2.06,0-6,1.39-9.53,4.39Zm5.21-8.62a20.68,20.68,0,0,0,7.13,1.18,12.89,12.89,0,0,0,1.78-.1,32.85,32.85,0,0,0-.48,4,28.46,28.46,0,0,1-9-1.23Z"/><path class="cls-1" d="M210.39,14.49c-6.84,0-10.1,4.17-10.1,6.57s2.57,2.72,6.26,2.74a23.17,23.17,0,0,0-1.32,3.62c-3.79-.33-9.09-.88-9.09-5.88a7.73,7.73,0,0,1,2.64-5.4,56.9,56.9,0,0,0-8.93,2.14l-.94-4.34c1.87-.08,4-.24,5.86-.46a20,20,0,0,0,4.46-4.39c-.6,0-3.29.33-3.84.38-.74,0-1.25.07-1.73.07l-.24-3.72c.58,0,1.52.07,2.79.07A43.15,43.15,0,0,0,205.67,5l1.48,2.21a73.71,73.71,0,0,0-6.53,5.49c4-.72,6-1.1,9.37-1.87Z"/><path class="cls-1" d="M224.31,22.82c5.21-1,6.75-5,6.75-7.49a5.68,5.68,0,0,0-5.55-5.88c-.74,8.78-4.37,15.33-6.91,15.33-1.87,0-5.35-3.16-5.35-7.6A11.78,11.78,0,0,1,225,6c5.26,0,9.84,3.58,9.84,9.31A11.21,11.21,0,0,1,232,22.72a13.4,13.4,0,0,1-5.21,3.48A15.37,15.37,0,0,0,224.31,22.82Zm-7.51-5.93c0,1.85,1,3.24,1.54,3.24s1-1.08,1.29-1.71a20.9,20.9,0,0,0,1.85-8.25C218.7,11.2,216.8,14.73,216.8,16.89Z"/><path class="cls-1" d="M241.93,27h-3.29V15.81c-.19.24-.38.45-.58.67A10.23,10.23,0,0,0,236,13.65a22.62,22.62,0,0,0,5.33-8.81l3.24,1.27a.34.34,0,0,1,.26.31c0,.19-.26.36-.6.41a27.73,27.73,0,0,1-2.18,4.34c.21.1.38.2.38.46s-.31.38-.5.46Zm7.75-15.84V5l3.22.24c.26,0,.53,0,.53.36s-.29.36-.53.43V10.5l3.48-.77,1.56.89v6.05c0,2.71-.55,3.46-.82,3.79a4.7,4.7,0,0,1-3.31,1.16,6.72,6.72,0,0,0-.91-2.88v2.54h-3.22V14.56l-1.37.29v7.37c0,1,.87,1.27,2,1.27h4.44c1.25,0,1.46-.94,1.82-2.4a5.84,5.84,0,0,0,2.93,1.39c-.74,3.77-2.59,4.15-4.8,4.15h-5.49c-4,0-4.23-2-4.23-3.77V15.57l-2.18.45-.65-3.21,2.83-.6V6.57l3.27.19c.12,0,.48,0,.48.36s-.15.33-.44.48v3.89Zm3.22,2.69v4.44c.24,0,.69.05,1,.05s.67,0,.67-.68V13.53Z"/><path class="cls-1" d="M272.31,22.82c5.21-1,6.75-5,6.75-7.49a5.68,5.68,0,0,0-5.55-5.88c-.74,8.78-4.37,15.33-6.91,15.33-1.87,0-5.35-3.16-5.35-7.6A11.78,11.78,0,0,1,273,6c5.26,0,9.84,3.58,9.84,9.31A11.21,11.21,0,0,1,280,22.72a13.4,13.4,0,0,1-5.21,3.48A15.37,15.37,0,0,0,272.31,22.82Zm-7.51-5.93c0,1.85,1,3.24,1.54,3.24s1-1.08,1.29-1.71a20.9,20.9,0,0,0,1.85-8.25C266.7,11.2,264.8,14.73,264.8,16.89Z"/><path class="cls-1" d="M296.36,18.83A15.3,15.3,0,0,1,298.83,22c-.36.22-2,1.2-2.44,1.56a14.37,14.37,0,0,0-1.71-2.81c-.05.24-.29.29-.5.34V23c0,.94.38,1.08,1.39,1.08h2c.58,0,1.44,0,2-2.64a5.49,5.49,0,0,0,2.86,1.75c-.55,1.85-.72,2.5-1.56,3.1a2.78,2.78,0,0,1-1.85.41h-5.5c-2.35,0-2.64-1-2.64-2.48v-2.3c-.17.17-.6.12-.81.1a21.57,21.57,0,0,1-2.64,4.89A9.56,9.56,0,0,0,284.74,25a13.25,13.25,0,0,0,2.62-4.89,9.56,9.56,0,0,0-2.78-1.35c1.87-3.36,1.87-5.54,1.87-8.4V7.09h10.17c-.09-1.15-.09-1.72-.12-2.32L300,5c.19,0,.41,0,.41.26s-.26.41-.65.58c0,.39,0,.67.07,1.22h1.92a8.58,8.58,0,0,0-1.12-1.24l2.23-1.56A17.43,17.43,0,0,1,305,6.76c-.29.17-.39.24-.53.33H307V10h-4.78l3.32,1.32a.37.37,0,0,1,.21.32c0,.31-.29.35-.72.4A28.75,28.75,0,0,1,302.75,16a1.89,1.89,0,0,0,1,.6c.56,0,.77-1.1.87-1.85a5.85,5.85,0,0,0,2.59,1.85,5.56,5.56,0,0,1-1.46,3.39,2.14,2.14,0,0,1-1.3.38,19.33,19.33,0,0,1,2.9,4.2,8.15,8.15,0,0,0-1.46.77c-1.18.79-1.32.86-1.56,1a16.69,16.69,0,0,0-2.9-4.68l2.37-1.44a5.85,5.85,0,0,1-2.9-1.9,19.1,19.1,0,0,1-2.26,2.14A8,8,0,0,0,296,18.3l0,0H292.5V19h-2.79V13.41h6.94v4.44a19.09,19.09,0,0,0,2.3-2.19A17.72,17.72,0,0,1,297,10h-7.44c.05,1.83-.07,6.32-1.92,9.84l3,1.37a1,1,0,0,1,.31.19V20.08l3.27.31.28,0a.61.61,0,0,0-.14-.17Zm.48-8.21v2.14h-6.91V10.62Zm-4.34,4.73v.94h1.68v-.94ZM300.15,10a17.84,17.84,0,0,0,.8,2.88A13.73,13.73,0,0,0,302.1,10Z"/><path class="cls-1" d="M318.15,22.91a24.77,24.77,0,0,1-6.89,4,9.26,9.26,0,0,0-2.47-2.66,20.68,20.68,0,0,0,6.87-3.53h-6.51V17.73h1.75a1.56,1.56,0,0,0-.12-.17L309,15a49.7,49.7,0,0,0,6.33-4.18,9.93,9.93,0,0,0,1.23,2.47c-1.32,1.11-2.83,2.33-5.07,3.89a1.09,1.09,0,0,1,0,.58h6.67v-.91a13.16,13.16,0,0,1-1.39.67,8.91,8.91,0,0,0-2.26-2.28c2.45-1.08,4.52-2.24,5-5l-3.46,0L316,7.07,319.74,7a18,18,0,0,0,0-2l3.41.22c.48,0,.63.05.63.24s-.41.41-.63.48c0,.14-.05.79-.05,1l4.32,0-.19,6.38c0,.41.15.43.39.43.57,0,.79-.12,1-2.2a7.09,7.09,0,0,0,3,1.2c-.36,4.12-1.66,4.12-3.07,4.12h-2.35c-1.71,0-2.31-.81-2.26-2.4l.14-4.27h-1.2a8.67,8.67,0,0,1-3.21,5.67l2.28.12c.19,0,.62,0,.62.31s-.17.31-.62.57v.87h9v2.95h-6.15A24.7,24.7,0,0,0,331.23,24a11.87,11.87,0,0,0-2.13,2.88,24.78,24.78,0,0,1-7.2-4.49v4.49h-3.75ZM310.59,8a21.1,21.1,0,0,1,3.58,1.75,24.76,24.76,0,0,0-1.66,2.5,15.22,15.22,0,0,0-3.5-1.73Zm1.83-3.55a18.73,18.73,0,0,1,3.5,1.82c-.94,1.35-1.06,1.49-1.68,2.52A14.46,14.46,0,0,0,310.81,7Z"/><path class="cls-1" d="M354.9,7.05v3H339.22v3.86a28.06,28.06,0,0,1-.6,7.08A15.14,15.14,0,0,1,336,26.92a9.28,9.28,0,0,0-3-1.58,14,14,0,0,0,2.81-7.2l-1.56.93c-.05.15-.17.41-.44.41s-.33-.29-.38-.41l-.89-2.93A33.91,33.91,0,0,0,336,14.73V13a9.26,9.26,0,0,0-1.63.94,12.4,12.4,0,0,0-1.83-3.43l2.55-1.54c.36.55.57.89.91,1.46V7.05h7.2V4.86L347,5c.21,0,.36.1.36.22s-.22.38-.51.55v1.3Zm0,16.27v3.1H338.14v-3.1h2v-7.8l3,.14c.12,0,.55,0,.55.29s-.12.24-.29.34v7H345v-8.9h-5.26V11.34H354.2v3.08h-5.73v2.37h4.94V20h-4.94v3.31Z"/><path class="cls-1" d="M373.71,11V5l3.68.19c.38,0,.55.12.55.29s-.31.36-.6.46V11h2.21v3.19h-2.21v9.22c0,3.12-1.42,3.46-5.47,3.46A7,7,0,0,0,370.21,23a20.1,20.1,0,0,0,2.64.29c.67,0,.86-.24.86-1.37V14.22H369v-2.9h-1.29a27.32,27.32,0,0,1-2.24,7.22,47.83,47.83,0,0,1,2.93,5.16A24.35,24.35,0,0,0,365,25.53a37.45,37.45,0,0,0-1.44-3.6,20,20,0,0,1-4.52,5,6.06,6.06,0,0,0-3-2.13,18,18,0,0,0,5.37-6,28.35,28.35,0,0,0-4.17-4.73l2.66-1.85a23.94,23.94,0,0,1,3.15,3.34,20.57,20.57,0,0,0,1.24-4.25H357V8.27h4.4V4.86l3.86.19c.12,0,.43,0,.43.29s-.29.39-.43.43v2.5h4.06V11Zm-3.5,4.13a18.77,18.77,0,0,1,2.54,4.51c-.33.17-2.16,1.18-3.24,1.75a22.87,22.87,0,0,0-2.23-4.58Z"/><path class="cls-1" d="M394.26,9.3a14.47,14.47,0,0,1-.89,1.2,13.27,13.27,0,0,0-3-1c.05-.05.09-.12.14-.17h-1.63a12,12,0,0,1,.6,1.49,14.76,14.76,0,0,0-3.34.51,15.54,15.54,0,0,0-.72-2h-.79c-.67.89-1,1.3-1.37,1.68a13.14,13.14,0,0,0-3-1.13,17,17,0,0,0,3.38-5.16l3.24.63a.32.32,0,0,1,.31.29c0,.26-.26.4-.6.45-.07.12-.14.27-.21.41h5V8a18.62,18.62,0,0,0,1.49-3.38l3.41.62a.36.36,0,0,1,.34.36c0,.22-.24.36-.63.34l-.21.5h6.69V9.3h-3.62a16.09,16.09,0,0,1,.7,1.47,19.17,19.17,0,0,0-3.58.45,12.35,12.35,0,0,0-.82-1.92ZM393.66,27h-3.29V21.62a29.49,29.49,0,0,1-7.23,5.11,10.09,10.09,0,0,0-2.66-2.52,17.78,17.78,0,0,0,5.16-2.57H382.5V15.23h7.87v-.91h-9.46V11.46h9.46V10.09l3.46.53a.38.38,0,0,1,.36.34c0,.24-.24.31-.53.43v.07h9.24v2.86h-9.24v.91h7.94v4.54c0,1.73-1.75,2.06-2.71,2.21a21.1,21.1,0,0,0,4.44,2.11,6.51,6.51,0,0,0-2.69,2.61,22.58,22.58,0,0,1-7-5.18Zm-7.78-5.52A22,22,0,0,0,389.6,18h-3.72ZM394.59,18a16.93,16.93,0,0,0,2.86,3,7.73,7.73,0,0,0-1-2c.16,0,1,.12,1.2.12s.48-.12.48-.46V18Z"/><rect class="cls-1" width="10" height="30"/></g></g></svg>