<svg xmlns="http://www.w3.org/2000/svg" width="630" height="97.81"><defs><style>.cls-1{fill:#00b4dc}.cls-2{fill:#fff}</style></defs><g id="レイヤー_2" data-name="レイヤー 2"><g id="レイヤー_1-2" data-name="レイヤー 1"><rect class="cls-1" width="630" height="97.81" rx="4.94"/><path class="cls-2" d="M55.43 26.61c-.86-1.49-2.27-1.49-3.12 0L26.56 71.2c-.86 1.49-.15 2.71 1.56 2.71h51.49c1.72 0 2.42-1.22 1.56-2.71z"/><path class="cls-1" d="M51.85 55.93l-.58-8.77c-.11-1.71-.17-2.94-.17-3.68a3.36 3.36 0 01.8-2.38 2.76 2.76 0 012.1-.85 2.11 2.11 0 012.1 1.09 7.31 7.31 0 01.53 3.14 22.79 22.79 0 01-.13 2.46l-.78 9a7.25 7.25 0 01-.55 2.48 1.45 1.45 0 01-1.39.86 1.4 1.4 0 01-1.38-.84 8.44 8.44 0 01-.55-2.51zm2 12.05a2.88 2.88 0 01-2-.73 2.51 2.51 0 01-.84-2 2.63 2.63 0 01.8-1.93 2.66 2.66 0 012-.8 2.73 2.73 0 012 .8 2.6 2.6 0 01.81 1.93 2.54 2.54 0 01-.82 2 2.8 2.8 0 01-1.91.75z"/><path class="cls-2" d="M233.46 32.24h-2.56v-3.7a17.08 17.08 0 01-5 3.69 5.64 5.64 0 00-2.25-1.89A13.63 13.63 0 00229 27h-3.24v-6.84h5.18v-.73H224v-2.17h6.9v-1.6l2.77.15c.18 0 .36 0 .36.23s-.21.29-.57.38v.84h6.88v2.17h-6.88v.73h5.24V27h-3.19a15.54 15.54 0 005.11 3 5.6 5.6 0 00-2 2.05 17.69 17.69 0 01-5.2-3.58zm-2.56-10.35h-2.52v.83h2.52zm0 2.38h-2.52v.84h2.52zm2.56-1.55H236v-.83h-2.57zm0 2.39H236v-.84h-2.57zm15.41-9.45l2.75.13c.13 0 .32 0 .32.18s-.18.23-.43.32v.83h6.81v2.31H242v-2.31h6.87zm-.71 11.71c.11.05.18.1.18.21s-.25.2-.46.2a15.54 15.54 0 01-3.53 4.1 8.24 8.24 0 00-2.35-1.51 13.86 13.86 0 003.75-4.37zm3.35 2.86c0 1.47-.32 2.14-3.63 2a9 9 0 00-1-2.67c.33 0 1 .11 1.39.11.58 0 .6-.27.6-.52v-3.39H244V20.2h12.41v5.56h-4.85zm-4.9-7.89v1.28h7.14v-1.28zm7.77 3.75a15.51 15.51 0 013.51 4 28.9 28.9 0 00-2.33 1.75 17.93 17.93 0 00-3.35-4.4zm13.12-9.96c.23 0 .37.07.37.23s-.19.26-.3.29c-.06.54-.09 1.17-.13 1.91a13.37 13.37 0 002.83-.9v1.91a7 7 0 000 1 13.27 13.27 0 01-2.95.81v1.23a8.89 8.89 0 013.06-.54 4.78 4.78 0 015 4.88 4.18 4.18 0 01-4.27 4.48c-2.72 0-2.81-2.41-2.83-3.17l2.24-.76c0 .36 0 1.21.84 1.21s1.14-.68 1.14-1.59a2.27 2.27 0 00-2.4-2.37 8.35 8.35 0 00-2.79.63 50.47 50.47 0 00.24 5.42L265 31.88a25.12 25.12 0 00-3.15-2.57c-.45.49-.67.74-.92 1l-1.3-3.09c.83-.45 4.11-2.94 4.83-3.39v-2.16c-1.06.06-2.32.07-3.35.07v-2.82a7.93 7.93 0 001.42.11c.71 0 1.71-.07 1.93-.07 0-1.35 0-1.55-.07-3.35zm-4 11.61a2 2 0 00.81.47c.27 0 .25-.63.24-1.31-.26.18-.64.45-1.09.84zm9.4-9.58a15.58 15.58 0 013.93 2.89 12.38 12.38 0 00-1.83 2.17 10.55 10.55 0 00-3.82-2.82zm15.04-1.65c.2.07.31.12.31.29s-.31.3-.52.32c-.2.31-.42.67-1.06 1.89.95.09 1.87.13 2.25.13h.88A13.18 13.18 0 00289 22a23.37 23.37 0 01-3.41-.17c-.21.49-.46 1.14-.64 1.59a28.22 28.22 0 004 .27c-.34 1-.63 2.1-.77 2.66-1.1-.07-2.34-.18-4-.43a5.58 5.58 0 00-.2 1.46c0 2.2 2 2.2 2.91 2.2s3.5 0 3.5-2.61a6.79 6.79 0 00-.92-2.81 8.8 8.8 0 002.72-1 9.55 9.55 0 011.24 4.09c0 4-4.18 4.88-6.54 4.88-3.61 0-5.61-1.87-5.61-4.52a8.76 8.76 0 01.27-2.18 15.62 15.62 0 01-2.34-.66l.61-2.67a17 17 0 002.43.78c.07-.24.2-.63.54-1.61a14.82 14.82 0 01-2.68-.9l.54-2.79a21.62 21.62 0 003.18 1c.18-.48 1.05-2.68 1.23-3.13zm16.69-.25c.14 0 .34.1.34.28s-.09.24-.39.26l-.53 1.62a27.5 27.5 0 005.87-1.42c.09.6.33 2 .51 2.69a31.48 31.48 0 01-7.37 1.53c-.43 1.19-.57 1.55-.93 2.43a10.66 10.66 0 014.68-1.23c4.81 0 5.06 3.39 5.06 4.29a4.47 4.47 0 01-1.93 3.64c-.95.64-2.75 1.72-7.74 1.72a15.54 15.54 0 01-1.68-.09 12.65 12.65 0 00-.66-2.68 24.8 24.8 0 002.68.16 12.25 12.25 0 005.35-1.09 1.84 1.84 0 001-1.7c0-1-.54-1.92-2.2-1.92a9.27 9.27 0 00-6.23 3l-2.59-1.29a25.49 25.49 0 002.4-5.06c-1.57 0-2.81-.06-3.5-.11v-3a16.91 16.91 0 004.35.39 24.23 24.23 0 00.69-3.18zM322 18.63l1.3 1.59a7.38 7.38 0 012-.31 3.42 3.42 0 013.58 3.51c0 3.37-3.65 3.67-5.49 3.82a11.67 11.67 0 00-.83-2.41h.83c.61 0 2.92 0 2.92-1.58 0-.31-.09-1-1.16-1h-.39c.32.52.5.86.66 1.13l-2.36 1a10.32 10.32 0 00-.66-1.38c-.67.3-1.06.52-1.32.66a34.94 34.94 0 012.52 7 24.72 24.72 0 00-2.6 1.21 30.8 30.8 0 00-2.08-6.87c-.52.38-.67.51-2 1.68l-1.62-2.54a25.19 25.19 0 002.55-1.28 13.47 13.47 0 00-1.62-2.36l2.45-1a1.09 1.09 0 01.38-.11.2.2 0 01.22.2c0 .09-.08.18-.17.29l1 1.78 1-.5c-.29-.4-.38-.52-1.13-1.48zm12.63.9a18.57 18.57 0 014.22 2.47 17.23 17.23 0 00-1.75 2.39A15.21 15.21 0 00333 22zm-.57 9.69a26.27 26.27 0 0012.67-9.54 9.5 9.5 0 001.86 2.43 29.54 29.54 0 01-12.41 9.59c0 .11 0 .42-.3.42s-.24-.18-.27-.24zm2.39-13.68a27.35 27.35 0 014.55 2.12c-.38.43-1.46 2-1.71 2.34a19.51 19.51 0 00-4.37-2.27zM352.6 30.8v-2.3h8v-1.84h-7.58V24.3h7.58v-1.72h-7.82v-2.36h10.34v11.12h-2.52v-.54zm31.4-8.31v3.06h-15.63v-3.06zm18.6 8.35h-12.1c.24-3.15 2-4.45 5.82-7 2.9-2 2.9-2.39 2.9-3.15 0-1.35-1.44-1.69-2.38-1.69-2.43 0-2.68 1.72-2.75 2.9h-3.33a5.45 5.45 0 011.11-3.59 6.12 6.12 0 015-2c4.12 0 5.62 2.26 5.62 4.33a4.28 4.28 0 01-.79 2.47c-.92 1.28-4.56 3.6-4.74 3.73a9.86 9.86 0 00-1.84 1.39h7.49zM416.18 24c0 1.73-.42 7.26-6 7.26a5.43 5.43 0 01-4.75-2.33 10.82 10.82 0 01-1.26-5.4c0-1.73.41-7.25 6-7.25 5.27-.02 6.01 4.77 6.01 7.72zm-8.66-.23c0 .59 0 4.77 2.66 4.77s2.65-4.16 2.65-4.77 0-4.78-2.65-4.78-2.66 4.11-2.66 4.76zm22.41 7.07h-12.1c.23-3.15 2-4.45 5.81-7 2.9-2 2.9-2.39 2.9-3.15 0-1.35-1.44-1.69-2.37-1.69-2.43 0-2.69 1.72-2.76 2.9h-3.33a5.41 5.41 0 011.12-3.59 6.08 6.08 0 015-2c4.13 0 5.62 2.26 5.62 4.33a4.28 4.28 0 01-.79 2.47c-.92 1.28-4.56 3.6-4.74 3.73a9.34 9.34 0 00-1.83 1.39h7.49zm6.55-6.36v-2.19h.9c.34 0 2.48-.2 2.48-1.77s-1.6-1.52-2.14-1.52c-1.39 0-2.36.21-2.39 1.78H432c.39-3.38 2.77-4.55 5.89-4.55 3.36 0 5.29 1.54 5.29 3.85a3 3 0 01-2.2 3.06 3.36 3.36 0 012.56 3.38c0 3.21-2.84 4.69-6.09 4.69-3.09 0-5.67-1.44-5.92-5.14h3.39a2.27 2.27 0 002.57 2.44c.34 0 2.66-.06 2.66-2 0-1.15-.81-2-2.57-2zm17.75-7.38c.14.06.23.13.23.25s-.34.26-.5.27a24.9 24.9 0 00-1.08 6.94 13.67 13.67 0 00.12 1.8l.85-1.28a7.65 7.65 0 001.29 1.78 8 8 0 00-1.49 4.41l-2.41.45a24.94 24.94 0 01-1-7.25 32.56 32.56 0 011.08-8.25zm8.55-.39c.09 0 .23 0 .23.19s-.25.27-.41.29a17.57 17.57 0 00-.18 2.16 17 17 0 002.66-.66v2.72c-.41.1-1.24.3-2.73.57a30.74 30.74 0 00.28 4.14 10 10 0 013.42 1.88c-.28.52-.82 1.69-1.22 2.54a6.28 6.28 0 00-1.93-1.37c-.07 2.3-2.37 2.57-3.51 2.57-2.7 0-4.05-1.47-4.05-3.15 0-2.14 2.13-2.95 4.47-2.9-.15-2.05-.17-2.28-.2-3.33-1 .09-1.77.09-2.07.09-.58 0-1 0-1.33-.05v-2.85a19.23 19.23 0 003.38.13v-3.51zm-3.73 11.16c-.4 0-1.26.13-1.26.68s.59.67 1.17.67c.14 0 1.22 0 1.22-.88a.63.63 0 000-.24 2.58 2.58 0 00-1.13-.23zM210.83 52.4v1.69h-.9v3h-2.66v-.57H204v1.15c0 .92-.24 1.55-2.92 1.55h-1a6.84 6.84 0 00-.84-2.25 14.74 14.74 0 001.53.15c.52 0 .52-.18.52-.56h-5.62v-1.8h5.62v-.62h-6.86V52.4h6.86v-.57h-5.62v-1.59h5.62v-.5h-4.57v-3.66h4.57v-.5h-6.86v-1.89h6.86v-1l2.79.11a.24.24 0 01.27.23c0 .16-.11.2-.39.34v.31h6.8v1.89H204v.5h4.5v3.66H204v.5h6v2.17zm-9.54-4.18v-.7h-2.2v.7zm2.67-.7v.7h2.17v-.7zm3.31 4.88v-.57H204v.57zm0 2.31v-.62H204v.62zm14.31-9.58a14.06 14.06 0 001.55-2.54l2.7.68c.12 0 .25.09.25.22s-.25.29-.52.25c-.47.74-.65 1-.9 1.39h4.12v2.25h-16.42v-2.25h4a8 8 0 00-1-1.53l2.43-1.1a12 12 0 011.46 2.25l-1 .38zm-5.78 10.15v3.89h-2.52V48h7.16v9.44c0 1.47-.77 1.69-3.15 1.76a5.14 5.14 0 00-.92-2.55c.27 0 .81.09 1.08.09s.55 0 .55-.58v-.85zm2.2-4.57v-.79h-2.2v.79zm0 2.68v-.81h-2.2v.81zm6.13-5.13c.17 0 .27.06.27.18s-.1.2-.27.31v7.16h-2.59v-7.76zm3.8-.38c.17 0 .33 0 .33.2s-.2.24-.43.36V57a1.71 1.71 0 01-.78 1.75c-.65.43-1.42.41-2.92.39a6.74 6.74 0 00-.59-2.7c.31 0 1 .13 1.24.13.45 0 .45-.29.45-.51v-8.3zm11.92.02l-1.7 9.94h-3.67l-3.26-14.19h3.23l2 10.53 1.77-10.53h3.24l1.76 10.53 2-10.53h3.22l-3.26 14.19h-3.67zm21.92 7.4v2.54h-11.63V43.65h11.4v2.54h-8.16v3.19h7.2v2.43h-7.2v3.49zm1.96 2.54V43.65h7.64c2.77 0 4.46 1.51 4.46 3.64a2.91 2.91 0 01-2.14 2.93 3.72 3.72 0 011.37.65 3.47 3.47 0 011.35 2.86c0 2.44-1.91 4.11-4.67 4.11zm3.27-8.28h3.67a1.66 1.66 0 001.73-1.8 1.54 1.54 0 00-1.73-1.64H267zm0 5.81h3.66c1.15 0 2.3-.52 2.3-2s-1.4-1.84-2.3-1.84H267zm16.77-.16V51a11.38 11.38 0 01-1.46 1 8.81 8.81 0 00-1.79-2 12.42 12.42 0 002.29-1.57 12.06 12.06 0 00-1.48-1.15l1.73-1.77a12 12 0 011.62 1.14 5 5 0 001.08-1.5h-3.33V43h6.21l.82.87a15.07 15.07 0 01-1.73 3.13h3.69a11.94 11.94 0 01-2.13-3.55l2.29-.86a12.67 12.67 0 00.77 1.49 8.81 8.81 0 001.1-1.37l1.89 1.19c.08 0 .2.13.2.22s-.31.23-.49.23c-.59.76-1.08 1.31-1.29 1.53.2.23.34.38.48.52a21 21 0 001.64-1.94l1.68 1.13c.14.11.32.22.32.35s-.27.25-.54.26a12.66 12.66 0 01-1.55 1.62 12.52 12.52 0 002.54 1.68 9 9 0 00-1.66 2.14c-.26-.16-.84-.56-1.65-1.19v4.81h-1.3a.26.26 0 01.2.25c0 .18-.18.29-.38.31a5.87 5.87 0 01-.38 1h4.42V59h-16.35v-2.24h4.59c-.07-.22-.34-.92-.51-1.31l.89-.24zm2.68-6.68c-.47.51-.65.7-1.46 1.46h9.51a16.78 16.78 0 01-1.88-1.69v.93h-6.17zm-.09 3.47v1.15h6.07V52zm1.69 3.2c.16.4.29.7.5 1.37l-.64.18h2.43a14.7 14.7 0 00.54-1.55zm17.46-5.95h-1.31v.94h1.8v2.28h-1.8v2.45a11.3 11.3 0 00.63-2.14l2.05.41c.11 0 .27.06.27.24s-.27.25-.52.27c-.08.27-.11.36-.36 1.11a20.89 20.89 0 003.58-1.27v-3h-1.28a18.2 18.2 0 011.26 2.31 16.87 16.87 0 00-1.94 1.28 15 15 0 00-1.3-2.45l1.84-1.14h-2.05v-2.08h5.67v-.72h-4.56v-1.93h4.56v-.68h-5.42v-2.2h8v5.53h1.1v2.12h-2.14l2 1a.28.28 0 01.19.25c0 .18-.12.21-.46.27a16.9 16.9 0 01-1.46 2.14A13 13 0 00316.1 56a8.83 8.83 0 00-1.48 2.29 15.51 15.51 0 01-2.41-2.45v1.53c0 1.78-1.17 1.78-3.31 1.78a8.71 8.71 0 00-.92-2.43l-.49.22c0 .34-.05.64-.36.64a.28.28 0 01-.21-.19l-.65-2.6c-.2.54-.26.65-.38.92a7.19 7.19 0 00-1.69-.41v.83c1.31-.26 1.69-.35 2-.44A7.17 7.17 0 00306 58c-2.29.51-4.14.81-5.89 1.07 0 .27-.09.5-.34.5s-.2-.14-.22-.27l-.41-2.48c.74 0 2-.18 2.66-.26v-.82a11.89 11.89 0 00-1.89.64 16.44 16.44 0 00-.92-2.75l2-.65a21 21 0 01.77 2.2v-2.71h-2.36v-2.28h2.36v-.94h-1.4v-.68a6.63 6.63 0 00-1.89-1.79 8.18 8.18 0 003.45-4l2.56.5c.2 0 .27.09.27.2s-.2.31-.41.33A13.5 13.5 0 00307 46.3a7.13 7.13 0 00-1.48 1.17zm-1.06-2.11a8 8 0 01-1.35-1.62c-.42.56-.7.94-1.28 1.62zm5.4 8.68a17.12 17.12 0 01-1.66.85c.17 0 1 .11 1.14.11.52 0 .52-.36.52-.58zm2.36-3.72a2.42 2.42 0 01.12.23 10.1 10.1 0 001-1.75h-1.08zm8.79-7.39v-1.87l2.38.09c.25 0 .41 0 .41.24s-.2.27-.41.34v1.2h3.13v2.38h-3.13v1.08h3.44v2.36h-3.44v.74h3.26v5.24c0 1.19-.33 1.67-2.56 1.69a5 5 0 00-.7-2v3H321v-5.52h-.72v4.7h-2.52v-7.11H321v-.74h-3.85v-2.36H321v-1.08h-1.8a6.73 6.73 0 01-.38.68 9 9 0 00-2.18-.77 10.41 10.41 0 001.36-3.74l2.29.32c.18 0 .29.11.29.25s-.24.31-.46.36c-.05.2-.1.4-.14.52zm2.38 11.1a2.68 2.68 0 00.48 0c.42 0 .42-.25.42-.58v-1.6h-.9zm6.62-10.9c.27 0 .4.07.4.24s-.13.21-.4.36v9.88h-2.55V44.71zm3.28-2.09c.13 0 .45 0 .45.24s-.2.29-.45.43v13.4a2.1 2.1 0 01-.9 2c-.52.27-.79.29-2.74.4a5.48 5.48 0 00-1-2.54c.19 0 1.13.09 1.31.09.67 0 .77-.14.77-.66V42.72zm6.56 1.26c.34.13.48.18.48.31s-.36.2-.48.22a20.87 20.87 0 00-1.17 7.39 6.28 6.28 0 00.12 1.44c.11-.2.54-1 .76-1.35a5.44 5.44 0 001.38 1.48 10.15 10.15 0 00-1.18 4.3l-2.56.69a19.06 19.06 0 01-1.28-7.21 34.56 34.56 0 011.15-8.35zm4.75 8.47a4.78 4.78 0 00-.27 1.27c0 .8.43.92 2.5.92a18.52 18.52 0 004.45-.48 12.15 12.15 0 00-.27 2.93 38.25 38.25 0 01-4.56.24c-2.68 0-4.75-.47-4.75-2.67a6.74 6.74 0 01.59-2.65zm-2.18-7.69c.54 0 1.26.09 2.34.09a20.85 20.85 0 005.29-.58 26 26 0 00.26 2.74 27.17 27.17 0 01-5.55.54c-1.06 0-1.76-.06-2.34-.09zm27.04 1.04c-5.15 0-8.21 4.47-8.21 6.81 0 3 4.07 3.2 5 3.26a15.86 15.86 0 00-1.35 3.24c-3.15-.74-6.62-2.41-6.62-6.28a7.92 7.92 0 013.18-6A59.54 59.54 0 00354 48l-.38-3.39c.39 0 .77.06 1.35.06 2.65 0 9.83-.51 13.92-1.79zm12.99 8.99v3.87h-2.28v-3.87h-1.33a6.85 6.85 0 01-2.76 4.25 5.2 5.2 0 00-2-1.34v1.3h-2.57v-16h7.5v6.26h-5v8.45a4.27 4.27 0 002.49-2.9h-1.86v-2h2.09v-1.06h-1.66v-1.91h8.74v1.89h-1.43v1.06h1.8v2zm-5.83-10h-2.56v.66h2.56zm0 2h-2.56v.69h2.56zm3.55 4.94H379v1.06h1.16zm3.84 7.34a6.35 6.35 0 00-.95-2.63 5.31 5.31 0 001 .15c.34 0 .72 0 .72-.63v-6.72h-5v-6.26h7.58v14c.05 1.68-.98 2.11-3.35 2.09zm.81-14.31h-2.59v.66h2.59zm0 2h-2.59v.69h2.59zM401.9 51v.76h2.79v1.82h-2.79v.76h2.79v1.81h-2.79v.74h3.64v2h-8.26v.29h-2.54v-6.27l-.49.48a6.69 6.69 0 00-.86-1.28v7.06h-2.63v-8.64l-.49.59a4.31 4.31 0 00-1.84-1.85 19.12 19.12 0 003.79-6.84l2.52.84V43l2.55.09c.2 0 .27.1.27.25s-.14.27-.39.43v1.73h1.35v-3l2.68.16c.18 0 .27.11.27.23s-.27.31-.43.35v2.23h1.51v-2.39l2.66.16c.22 0 .33.07.33.2s-.22.3-.45.41v3.6h-4.16l1.26.69a.33.33 0 01.2.28c0 .2-.25.27-.52.33-.08.12-.18.29-.29.45h3.85V51zm-8.51-.32a16.22 16.22 0 002.44-3.26h-1.09v-3.61l-.17.08c-.3.66-.48 1-1.11 2.26.27.15.34.18.34.31s-.29.32-.41.38zm3.89.32v.76h2.08V51zm0 2.58v.76h2.08v-.76zm2.08 3.31v-.74h-2.08v.74zm-.64-7.72a17.67 17.67 0 001-1.75h-2.23l.83.42c.14.07.25.14.25.28s-.2.27-.52.31c-.2.32-.27.43-.45.74zm12.68-4.69c.17.05.36.11.36.27s-.21.27-.37.29a16.07 16.07 0 00-1 5.42c0 2.19.68 3.72 1.2 3.72s1.26-1.58 1.75-2.71a8.49 8.49 0 001.89 1.91c-1.44 3.49-3.08 4.71-4 4.71s-3.67-2.14-3.67-7.7a31.87 31.87 0 01.88-6.74zm8.7.13a18 18 0 013.64 9c-1.07.42-2.34 1-2.94 1.34a16.39 16.39 0 00-3-8.92zm13.61-1.19c.16 0 .36.11.36.29s-.25.23-.4.23c-.07.29-.38 1.57-.45 1.82a11.83 11.83 0 003-.88l.31 2.82a23.51 23.51 0 01-4.07.85 43.35 43.35 0 01-4.72 10.53 19.82 19.82 0 00-2.74-1.37 29.32 29.32 0 004.46-8.71c-1.1.09-1.32.09-3.3.11l-.23-3c.54 0 1.17.07 2.09.07s1.35 0 2.14-.07c.25-1.35.38-2.52.49-3.41zm1.35 10.84a1.77 1.77 0 00-.49 1.06.5.5 0 00.33.47 6.73 6.73 0 002.41.3 13.2 13.2 0 004-.59 7.19 7.19 0 00-.13 1.4 12.1 12.1 0 00.11 1.5 22.42 22.42 0 01-3.73.3c-2.35 0-5.49-.34-5.49-2.89a4.86 4.86 0 01.7-2.36zm-.85-5.1a23.39 23.39 0 014-.32 12.24 12.24 0 012.65.2c-.11 1.33-.13 1.62-.15 2.82a10.61 10.61 0 00-2.7-.32 33.62 33.62 0 00-3.78.32zm15.32-5.74c.27 0 .41 0 .41.25s-.12.22-.34.31a39.62 39.62 0 00-.58 7.14c0 4.09.4 4.85 1.79 4.85 3.08 0 5.79-4.16 6.28-5.17a19 19 0 002.09 2.36c-2.05 3.33-5.11 5.83-8.75 5.83-4 0-4.32-3.38-4.32-7.88 0-1 .18-5.6.18-6.52v-1.66zm21.69-.15c.16 0 .32.06.32.24s-.19.23-.32.25c-.07.7-.07.86-.09 1.06.83 0 3.62 0 5 .11v2.68a45.41 45.41 0 00-5.06-.16v2a23.14 23.14 0 004.57-.84v2.68a33.78 33.78 0 01-4.5.59v1.61a17.75 17.75 0 016 2.37 29.83 29.83 0 00-2 2.25 14.77 14.77 0 00-3.85-2.27c0 .94.16 3.06-3.78 3.06-2.79 0-4.83-1.27-4.83-2.91 0-2 2.58-2.94 5.58-2.88v-1.07c-1.79 0-5 .09-5-1.69 0-.63.32-1.2 1.26-2.18l2 .45c-.33.44-.38.49-.38.62s0 .5 2.1.41v-2.07c-2.22.09-4.16.34-5.66.54v-2.87c.89-.09 4.83-.27 5.64-.32 0-.68 0-1.39-.07-2.21zm-3.73 11.89c-.09 0-1.82 0-1.82.74s1 .64 1.3.64c.88 0 1.42-.32 1.31-1.31a3.67 3.67 0 00-.79-.07zM489.33 43c.29 0 .45.06.45.2s-.22.27-.36.31c0 .32-.06.54-.09 1.26 5.08-.22 5.63-.24 6-.27 0 .38-.06 2.16 0 2.9-3.26-.17-4.62-.17-5.94-.15a14.86 14.86 0 000 2 5.93 5.93 0 011 3.46 8.53 8.53 0 01-4.17 6.95 12.27 12.27 0 00-2.63-1.86c.54-.21 2.66-1.11 3.31-2.59a2 2 0 01-1.42.43 2.42 2.42 0 01-1.95-.81 4.55 4.55 0 01-.77-2.66c0-4 3.38-3.84 3.76-3.78v-1a47.45 47.45 0 00-7.18.94l-.2-3c.41 0 1.1 0 7.31-.38a21.52 21.52 0 00-.25-2.28zm-4.16 9c0 1.18.59 1.51.92 1.51.55 0 .88-.83.88-1.73 0-.41-.09-1.12-.81-1.12s-.99.61-.99 1.34zM206.42 77.09v1.32h-.7v2.32h-2.07v-.45h-2.58v.9c0 .71-.18 1.21-2.27 1.21h-.74a5.12 5.12 0 00-.66-1.75c.39 0 .94.11 1.19.11.41 0 .41-.14.41-.44h-4.37v-1.4H199v-.47h-5.34v-1.35H199v-.45h-4.37v-1.23H199V75h-3.56v-2.83H199v-.39h-5.34v-1.47H199v-.77l2.17.08a.19.19 0 01.21.19c0 .12-.09.15-.31.26v.24h5.3v1.47h-5.3v.39h3.5V75h-3.5v.39h4.65v1.68zM199 73.84v-.55h-1.71v.55zm2.07-.55v.55h1.7v-.55zm2.58 3.8v-.45h-2.58v.45zm0 1.79v-.47h-2.58v.47z"/><path class="cls-2" d="M213.1 71.43a10.89 10.89 0 001.2-2l2.1.53c.1 0 .2.07.2.17s-.2.22-.41.19c-.36.58-.5.82-.7 1.08h3.21v1.75h-12.78v-1.72H209a7 7 0 00-.8-1.19l1.89-.85a9.33 9.33 0 011.13 1.75l-.75.29zm-4.5 7.9v3h-2v-8.69h5.57V81c0 1.15-.6 1.32-2.45 1.38a4 4 0 00-.71-2c.21 0 .63.07.84.07s.42 0 .42-.45v-.66zm1.71-3.56v-.61h-1.71v.61zm0 2.09v-.63h-1.71v.63zm4.78-4c.12 0 .21 0 .21.14s-.09.15-.21.24v5.57h-2v-6zm2.95-.3c.13 0 .25 0 .25.16s-.15.18-.33.28v6.68a1.33 1.33 0 01-.6 1.36 4 4 0 01-2.27.31 5.23 5.23 0 00-.47-2.1c.24 0 .76.09 1 .09s.35-.22.35-.39v-6.47zm10.11.03l-1.32 7.73H224l-2.53-11h2.5l1.57 8.2 1.38-8.2h2.52l1.37 8.2 1.57-8.2h2.51l-2.54 11h-2.86zm17.05 5.76v2h-9v-11h8.8v2h-6.35v2.48h5.61v1.89h-5.61v2.72zm1.52 1.97v-11h5.94c2.16 0 3.47 1.18 3.47 2.83a2.3 2.3 0 01-1.66 2.29 2.75 2.75 0 011.06.5 2.7 2.7 0 011 2.23c0 1.89-1.48 3.19-3.62 3.19zm2.52-6.44h2.86a1.29 1.29 0 001.35-1.4 1.21 1.21 0 00-1.35-1.28h-2.86zm0 4.52h2.85c.89 0 1.79-.4 1.79-1.53s-1.09-1.42-1.79-1.42h-2.85zm12.36-.12V76a7.59 7.59 0 01-1.13.77 7 7 0 00-1.39-1.55 10.06 10.06 0 001.78-1.22 10.28 10.28 0 00-1.15-.9l1.35-1.37a10.43 10.43 0 011.26.88 4.33 4.33 0 00.84-1.16h-2.59v-1.66h4.83l.63.68a11.8 11.8 0 01-1.34 2.38h2.87a9.35 9.35 0 01-1.66-2.76l1.78-.68a8.36 8.36 0 00.61 1.17 7.23 7.23 0 00.85-1.07l1.47.93c.06 0 .15.09.15.16s-.23.19-.37.19c-.47.59-.84 1-1 1.19a3.8 3.8 0 00.38.4 17.59 17.59 0 001.23-1.51l1.3.88c.12.09.26.17.26.27s-.21.2-.42.21a12.5 12.5 0 01-1.14 1.26 9.49 9.49 0 002 1.3 6.68 6.68 0 00-1.29 1.67c-.21-.13-.66-.43-1.29-.92v3.74h-1c.1 0 .15.09.15.19s-.14.23-.29.24a6.23 6.23 0 01-.29.77h3.43v1.7h-12.79v-1.7h3.57c-.06-.17-.27-.71-.39-1l.69-.18zm2.09-5.2a14.71 14.71 0 01-1.13 1.13H270a12.08 12.08 0 01-1.45-1.31v.73h-4.81zm-.07 2.7v.9h4.72v-.9zm1.32 2.5c.12.3.22.54.39 1.06l-.5.14h1.89c.19-.45.32-.88.42-1.2zm13.58-4.64h-1v.73h1.4v1.78h-1.4v1.9a8.48 8.48 0 00.49-1.67l1.59.33c.09 0 .21 0 .21.18s-.21.2-.4.21c-.06.21-.09.28-.28.87a16.17 16.17 0 002.78-1v-2.29h-1a13.27 13.27 0 011 1.79 12.87 12.87 0 00-1.51 1 12 12 0 00-1-1.9l1.43-.88h-1.6V74h4.41v-.56h-3.54V72h3.54v-.53h-4.21v-1.75h6.22V74h.85v1.66h-1.67l1.56.75s.15.09.15.2-.1.17-.36.21a13.83 13.83 0 01-1.18 1.69 10.74 10.74 0 001.75 1.41 6.74 6.74 0 00-1.14 1.78 11.71 11.71 0 01-1.88-1.91V81c0 1.39-.91 1.39-2.58 1.39a6.53 6.53 0 00-.71-1.89l-.38.17c0 .26 0 .5-.28.5a.23.23 0 01-.17-.15l-.5-2a7.65 7.65 0 01-.3.72 5.1 5.1 0 00-1.31-.33V80c1-.2 1.31-.27 1.58-.34a5.43 5.43 0 00-.18 1.75c-1.78.39-3.23.63-4.58.83 0 .21-.07.39-.27.39s-.16-.11-.17-.21l-.32-1.93c.57 0 1.55-.14 2.07-.2v-.64a8.73 8.73 0 00-1.47.5 13.42 13.42 0 00-.71-2.14l1.58-.51a16.21 16.21 0 01.6 1.71v-2.06h-1.83v-1.78h1.83v-.73h-1.09v-.53a4.91 4.91 0 00-1.47-1.39 6.39 6.39 0 002.69-3.12l2 .39c.15 0 .21.07.21.15s-.16.24-.33.25a10.47 10.47 0 002 2 5.83 5.83 0 00-1.15.91zm-.83-1.64a6.57 6.57 0 01-1.05-1.26c-.32.43-.55.73-1 1.26zm4.2 6.75a14.08 14.08 0 01-1.29.66l.89.08c.4 0 .4-.28.4-.44zm1.84-2.9s.07.13.1.18a8.69 8.69 0 00.74-1.35h-.84zm7.47-6.22c.11.05.18.1.18.2s-.26.19-.39.21a19.33 19.33 0 00-.84 5.39 10.19 10.19 0 00.1 1.4l.66-1a5.77 5.77 0 001 1.38 6.2 6.2 0 00-1.17 3.44l-1.87.35a19.62 19.62 0 01-.76-5.65A25 25 0 01289 70zm6.65-.31c.07 0 .19 0 .19.16s-.2.21-.33.22c0 .31-.09.7-.14 1.68a13.18 13.18 0 002.08-.51V74c-.32.08-1 .24-2.13.45a23.43 23.43 0 00.22 3.22 7.72 7.72 0 012.66 1.44c-.22.41-.64 1.32-.95 2A5 5 0 00298 80c-.05 1.8-1.85 2-2.73 2-2.1 0-3.15-1.15-3.15-2.45 0-1.67 1.65-2.3 3.47-2.26-.11-1.6-.12-1.78-.15-2.59-.8.07-1.37.07-1.61.07h-1v-2.2a16.2 16.2 0 002.64.1v-2.74zM295 79c-.31 0-1 .1-1 .53s.47.52.91.52c.12 0 1 0 1-.69a.36.36 0 000-.18A2 2 0 00295 79zm16.91-6.66h-4.82l-.42 2.23a3.83 3.83 0 012.24-.6 3.53 3.53 0 013.76 3.61c0 2.37-1.67 4-4.68 4-4 0-4.44-2.51-4.6-3.39h2.66c.27 1.29 1.7 1.29 2 1.29a1.86 1.86 0 10.11-3.71 2.2 2.2 0 00-1.64.57h-2.74l1.12-6.11h7zm7.93 5.48a6.88 6.88 0 01-2.76 4.62 6.29 6.29 0 00-1.75-1.44c2.57-1.71 2.54-4.37 2.54-5.77v-5.34h8.77v10.38c0 1.51-.37 2.12-3.15 2a6.46 6.46 0 00-.7-2.29 8.09 8.09 0 001.15.15c.47 0 .5-.29.5-.8v-1.51zm4.6-5v-1H320v1zm0 2.94v-1H320v1zm12.64 6.61H335V78.3h-2.84v.57h-2.19v-6.75h5v-2.58l2.31.13c.07 0 .23 0 .23.16s-.2.21-.41.24v2.05h5v6.75H340v-.57h-2.89zM335 74h-2.84v2.27H335zm2.13 2.27H340V74h-2.89zm18.95-5.2c0 10.6-.22 11.61-4 11.43a4.28 4.28 0 00-1-2 11.22 11.22 0 001.46.12c.45 0 1.09 0 1.33-1.46a50.82 50.82 0 00.25-6.16h-7c-.27.54-.35.72-.44.88h5.51v6.48h-4.11v.54h-2v-6a9.09 9.09 0 01-.88 1.18 4.67 4.67 0 00-1.85-1 10.66 10.66 0 002.87-5.83l2 .4c.16 0 .39.09.39.27s-.18.2-.49.27c-.07.24-.1.36-.25.84zm-8 5.36h2.09v-.81h-2.09zm2.09 1.46h-2.09v.84h2.09zM365.33 70c.13 0 .24 0 .24.19s-.14.24-.25.27c-.11 1-.14 1.54-.15 1.86a15.31 15.31 0 004.39-.7 15.06 15.06 0 00-.14 2.41 22.23 22.23 0 01-4.31.53 18.21 18.21 0 00.21 2.69 17 17 0 015.07 2.33 12.76 12.76 0 00-1.49 2 14 14 0 00-3.39-2 2.23 2.23 0 01-.55 1.71 3.77 3.77 0 01-2.63.87c-1.76 0-4.08-.72-4.08-2.68s2.8-2.56 4.39-2.56a1.81 1.81 0 01.38 0c-.11-2-.11-2.16-.11-5.06a12.1 12.1 0 00-.21-2.26zm-3.12 8.77c-.74 0-1.57.22-1.57.74s1.11.66 1.22.66c1.33 0 1.33-.52 1.33-1.28a3.08 3.08 0 00-.98-.13zM376 70.18c.26.06.4.1.4.26s-.24.22-.34.24a10.56 10.56 0 00-.62 3.57 5.25 5.25 0 00.13 1.24c.11-.22.15-.33.32-.74a3.5 3.5 0 01.43-.8 9.84 9.84 0 001.41 1.17 10.72 10.72 0 00-1.45 3.54l-2 .24a13.78 13.78 0 01-.53-8.66c.07-.31.07-.38.1-.55zm6.4-.51c.14 0 .33 0 .33.19s-.13.18-.23.21c0 .49.2 2.62.23 3.06s.07 1.09.07 1.63a8.12 8.12 0 01-4.22 7.71 5.08 5.08 0 00-1.82-1.64c3.36-1.62 3.68-4 3.68-6.11a19.55 19.55 0 00-.53-5.12zm6.9 7.84H388v-1.69h7.55l.71.89a10.24 10.24 0 01-2.39 2.92 15.93 15.93 0 004.59 1 5.09 5.09 0 00-.92 1.77 17 17 0 01-5.35-1.61 13.66 13.66 0 01-5.72 1.61 7.12 7.12 0 00-1-1.89 12 12 0 004.79-.87 9.81 9.81 0 01-1.72-1.57zm7.13-5.57a.15.15 0 01.12.16c0 .14-.21.2-.42.23a10.53 10.53 0 01-.72 1.24h2.9v3.3h-1.94v-1.73h-8.7v1.73h-2v-3.3h2c-.24-.35-.51-.7-.77-1l1.15-.71h-.76a7.84 7.84 0 00-.95-2 28 28 0 003.69.24 17.19 17.19 0 005.44-.71L397 70.8a.21.21 0 01.09.17.22.22 0 01-.21.24 4.28 4.28 0 01-.51-.17 8.19 8.19 0 01-1.38.34zM391 71.8h-2.29a7.24 7.24 0 011.05 1.43l-.5.3h1.6c-.54-.81-.59-.89-.84-1.21zm-.48 5.71a8.43 8.43 0 001.48 1.13 5.61 5.61 0 001.18-1.13zm2.9-3.94a10.24 10.24 0 001.06-2.11c-.19 0-1.31.18-2.56.28a15.24 15.24 0 011 1.46l-.58.37zm9.81 8.86H401v-6.49a4.13 4.13 0 01-.49.55A5.9 5.9 0 00399 75a12.92 12.92 0 003.27-5.75l1.92.7c.13.06.26.1.26.21s-.18.19-.36.21c-.55 1.29-.59 1.39-1 2.23.23.06.42.11.42.27s-.12.22-.29.28zm9.12-9.86v2H411v5.81c0 1.61-.27 2-3.19 2a5 5 0 00-.93-2.27 6.32 6.32 0 001.26.19c.66 0 .69-.19.69-.66V74.6h-5.13v-2h5.13v-3.17l2.17.08c.17 0 .38 0 .38.18s-.17.21-.38.3v2.58zm-6.29 2.77a10.28 10.28 0 011.94 3.17 16.92 16.92 0 00-1.93 1 13.21 13.21 0 00-1.92-3.25zm16.3 3.66v3h-1.78v-3h-1a5.3 5.3 0 01-2.14 3.31 4.13 4.13 0 00-1.57-1v1h-2V69.83h5.86v4.88h-3.86v6.57a3.3 3.3 0 001.89-2.28h-1.44v-1.53h1.62v-.83h-1.29v-1.47h6.79v1.47h-1.1v.83h1.4V79zm-4.54-7.8h-2v.52h2zm0 1.58h-2v.54h2zm2.76 3.84h-.87v.83h.9zm3 5.72a4.78 4.78 0 00-.74-2 3.72 3.72 0 00.81.11c.27 0 .56 0 .56-.49v-5.25h-3.89v-4.88h5.9v10.9c-.01 1.27-.81 1.64-2.65 1.63zm.63-11.14h-2v.52h2zm0 1.58h-2v.54h2zm3.4.82v-1.82h1.22c.17-1.19.21-1.72.24-2.23l1.88.28c.22 0 .28.09.28.19s-.09.15-.35.19c-.09.8-.13 1.17-.2 1.57h2.09a20.15 20.15 0 01-.83 6 13.49 13.49 0 011.42 2 12.81 12.81 0 00-1.63 1.13 5.49 5.49 0 00-.66-1.15 9.9 9.9 0 01-1.93 2.61 5 5 0 00-1.74-1 11.48 11.48 0 002.41-3.17l-.57-.57c-.13.28-.17.36-.22.48a4.54 4.54 0 00-1.71-.72 17.58 17.58 0 001.2-3.77zm2.75 0c-.22 1-.27 1.16-.53 2.15l.68.57a11.56 11.56 0 00.35-2.72zm8.25-2.35a19.33 19.33 0 012.06 4.2 7.85 7.85 0 00-1.71.9c-.24-.63-.31-.77-.39-1-1.09.12-1.3.13-5.1.38 0 .11 0 .38-.25.38s-.2-.13-.21-.25l-.23-2h1.19a23 23 0 001.1-4.3l2.11.39c.16 0 .24.06.24.17s-.06.18-.38.25l-.85 2.79c-.1.29-.17.46-.23.61l1.8-.11c-.52-1-.69-1.26-.84-1.51zm-3.19 10.59v.49h-1.95v-5.88h6.37v5.88h-2v-.49zm2.42-1.84v-1.73h-2.42V80zm15.75-5.6l1 1a19.88 19.88 0 01-3.3 4.18 4.7 4.7 0 00-1.68-1.36 8.52 8.52 0 001.78-1.86h-2.3v4.28c0 1.57-1 1.75-3.24 1.71a4.71 4.71 0 00-.68-2.06 5.43 5.43 0 001.13.11c.6 0 .67-.19.67-.82v-3.2h-5.38v-2h5.79a25.14 25.14 0 00-3-1.23l1.33-1.46h-2.75v-1.77h9.15l.78 1.08a20.41 20.41 0 01-3.07 2.39 5.81 5.81 0 01.79.48c-.21.15-.38.27-.69.53zm-7.76-2.69c.25.1 1.35.48 2.09.77a9.29 9.29 0 001-.77zm17.29 4.65h3.69v1.84h-3.69v2.08h1.31a39.14 39.14 0 004.31-.24 4.61 4.61 0 00-.5 2.19h-5.48a4.79 4.79 0 01-4.13-2 10.61 10.61 0 01-1.32 2.21 4.16 4.16 0 00-2-.87 9.73 9.73 0 002.38-5.8l2.15.38c.13 0 .28.06.28.23s-.08.16-.39.28c-.07.35-.14.7-.32 1.37a3 3 0 001.59 1.89v-4.85h-3.63V74h-1.77v-3.24h5.31v-1.32l2.14.14c.2 0 .38 0 .38.17s-.07.17-.38.31v.7h5.38V74h-1.62v1.12h-3.69zm3.24-3.09v-.82h-8.73v.82zm15.78-1.15c-3.46-.06-6.46 3-6.46 5.32 0 1.63 2.06 2.42 4 2.47a19.25 19.25 0 00-1.05 2.55c-1.13-.31-5.15-1.43-5.15-4.78a6.35 6.35 0 012.52-4.82 37.45 37.45 0 00-5.8.88l-.33-2.63a45.73 45.73 0 006.24-.32 34.36 34.36 0 005.62-1zm-2.33 2a8.81 8.81 0 011.31 1.5 13.09 13.09 0 00-1.08.84 12.39 12.39 0 00-1.25-1.59zm1.47-1a9.18 9.18 0 011.25 1.47c-.35.27-.59.48-1 .87a10.75 10.75 0 00-1.25-1.58zm10.21-3.34c.22 0 .35 0 .35.15s-.17.21-.28.24a9.49 9.49 0 00-.07 1c3.95-.17 4.38-.18 4.65-.21v2.26c-2.53-.13-3.6-.13-4.62-.12a11.12 11.12 0 000 1.56 4.54 4.54 0 01.82 2.69 6.65 6.65 0 01-3.25 5.41 9.48 9.48 0 00-2.05-1.45 5 5 0 002.58-2 1.59 1.59 0 01-1.11.33A1.87 1.87 0 01487 79a3.45 3.45 0 01-.6-2.07 2.62 2.62 0 012.94-2.93v-.79a37.17 37.17 0 00-5.59.73l-.16-2.37c.33 0 .86 0 5.69-.29a17.85 17.85 0 00-.19-1.78zm-3.24 7c0 .93.46 1.18.72 1.18.43 0 .68-.65.68-1.35 0-.32-.07-.86-.63-.86s-.77.46-.77 1.03z"/></g></g></svg>