<svg xmlns="http://www.w3.org/2000/svg" width="560" height="152.1"><defs><style>.cls-1{fill:#00b4dc}.cls-2{fill:#fff}</style></defs><g id="レイヤー_2" data-name="レイヤー 2"><g id="レイヤー_1-2" data-name="レイヤー 1"><rect class="cls-1" width="560" height="152.1" rx="4.26"/><path class="cls-2" d="M58.39 50.64c-2.06-3.57-5.44-3.57-7.5 0l-27.14 47c-2.06 3.57-.37 6.49 3.75 6.49h54.28c4.13 0 5.81-2.92 3.75-6.49z"/><path class="cls-1" d="M52.22 82.57L51.52 72c-.13-2.05-.2-3.52-.2-4.41a4 4 0 011-2.85 3.28 3.28 0 012.51-1 2.54 2.54 0 012.53 1.31 8.76 8.76 0 01.64 3.79q0 1.44-.15 2.94l-1 10.83a8.39 8.39 0 01-.66 3 1.72 1.72 0 01-1.67 1 1.66 1.66 0 01-1.65-1 10.38 10.38 0 01-.65-3.04zM54.66 97a3.47 3.47 0 01-2.34-.87 3.07 3.07 0 01-1-2.43 3.16 3.16 0 011-2.32 3.21 3.21 0 012.34-1 3.28 3.28 0 012.36 1 3.14 3.14 0 011 2.32 3.07 3.07 0 01-1 2.42 3.4 3.4 0 01-2.36.88z"/><path class="cls-2" d="M127.13 46.5h-4.26v-6.18a28.44 28.44 0 01-8.4 6.15 9.44 9.44 0 00-3.75-3.15 22.41 22.41 0 008.91-5.55h-5.4v-11.4h8.64v-1.23h-11.49v-3.6h11.49v-2.67l4.62.24c.3 0 .6.09.6.39s-.36.48-1 .63v1.41h11.46v3.6h-11.42v1.23h8.73v11.4h-5.31a25.43 25.43 0 008.52 5.07 9.29 9.29 0 00-3.27 3.42 29.72 29.72 0 01-8.67-6zm-4.26-17.25h-4.2v1.38h4.2zm0 4h-4.2v1.41h4.2zm4.26-2.58h4.29v-1.42h-4.29zm0 4h4.29v-1.46h-4.29zm25.68-15.8l4.59.21c.21 0 .54 0 .54.3s-.3.39-.72.54v1.38h11.34v3.84h-27.18V21.3h11.43zm-1.17 19.5c.18.09.3.18.3.36 0 .33-.42.33-.78.33a25.68 25.68 0 01-5.88 6.84 13.52 13.52 0 00-3.9-2.52 23.34 23.34 0 006.24-7.29zm5.58 4.77c0 2.46-.54 3.57-6.06 3.33a15.31 15.31 0 00-1.65-4.47c.54.06 1.71.18 2.31.18 1 0 1-.45 1-.87V35.7h-8.19v-9.27h20.67v9.27h-8.07zM149.06 30v2.13h11.88V30zM162 36.24a25.63 25.63 0 015.84 6.76 46.54 46.54 0 00-3.84 2.87 30.15 30.15 0 00-5.58-7.32zm21.86-16.59c.39.06.63.12.63.39s-.33.42-.51.48c-.09.9-.15 1.95-.21 3.18a21.6 21.6 0 004.71-1.5c0 1.11-.06 2.49-.06 3.18a12.83 12.83 0 00.06 1.62 22.11 22.11 0 01-4.92 1.35c0 .33-.06 1.77-.06 2a15.1 15.1 0 015.1-.9 8 8 0 018.31 8.13c0 5.58-4.14 7.47-7.11 7.47-4.53 0-4.68-4-4.71-5.28.63-.21 3.33-1.11 3.72-1.26 0 .6 0 2 1.41 2 1.14 0 1.89-1.14 1.89-2.64a3.77 3.77 0 00-4-4 14 14 0 00-4.65 1 89.08 89.08 0 00.39 9l-4.11 1.86a40.86 40.86 0 00-5.25-4.29c-.75.81-1.11 1.23-1.53 1.74l-2.16-5.16c1.38-.75 6.84-4.89 8-5.64v-3.6c-1.77.09-3.87.12-5.58.12v-4.6a12.68 12.68 0 002.37.18c1.17 0 2.85-.12 3.21-.12 0-2.25 0-2.58-.12-5.58zM177.14 39a3.25 3.25 0 001.35.78c.45 0 .42-1.05.39-2.19-.36.3-.99.75-1.74 1.41zm15.66-16a25.54 25.54 0 016.54 4.8 21.17 21.17 0 00-2.91 3.63 17.46 17.46 0 00-6.36-4.71zm25.14-2.72c.33.12.51.21.51.48s-.51.51-.87.54c-.33.51-.69 1.11-1.77 3.15 1.59.15 3.12.21 3.75.21s1.05 0 1.47-.06a22 22 0 00-1.32 4.74 36.77 36.77 0 01-5.67-.27c-.36.81-.78 1.89-1.08 2.64a46.06 46.06 0 006.66.45c-.57 1.62-1.05 3.51-1.29 4.44-1.83-.12-3.9-.3-6.72-.72a9.81 9.81 0 00-.33 2.43c0 3.66 3.39 3.66 4.86 3.66 1.29 0 5.82 0 5.82-4.35a11.44 11.44 0 00-1.53-4.68 14.37 14.37 0 004.57-1.62 15.75 15.75 0 012 6.81c0 6.6-7 8.13-10.89 8.13-6 0-9.36-3.12-9.36-7.53a14.76 14.76 0 01.45-3.63 25.14 25.14 0 01-3.9-1.11l1-4.44a28.16 28.16 0 004.05 1.29c.12-.39.33-1.05.9-2.67a26.1 26.1 0 01-4.47-1.5l.9-4.65a37.68 37.68 0 005.32 1.65c.3-.81 1.74-4.47 2-5.22zm27.81-.42c.24.06.57.18.57.48s-.15.39-.66.42c-.66 2-.72 2.25-.87 2.7a45.62 45.62 0 009.78-2.37c.15 1 .54 3.27.84 4.47a51.92 51.92 0 01-12.27 2.55c-.72 2-1 2.58-1.56 4a17.75 17.75 0 017.8-2c8 0 8.43 5.64 8.43 7.14a7.41 7.41 0 01-3.21 6.06c-1.6 1.09-4.6 2.89-12.9 2.89a27.54 27.54 0 01-2.79-.15 21.19 21.19 0 00-1.11-4.47 44.13 44.13 0 004.47.27c.69 0 5.82 0 8.91-1.83a3.05 3.05 0 001.62-2.82c0-1.74-.9-3.21-3.66-3.21a15.39 15.39 0 00-10.38 5l-4.32-2.16a42.06 42.06 0 004-8.43c-2.61 0-4.68-.09-5.82-.18l-.06-4.92a27.59 27.59 0 007.26.66 40.14 40.14 0 001.18-5.3zm28.95 3.96c.36.42 1.86 2.28 2.16 2.64a13.19 13.19 0 013.3-.51 5.7 5.7 0 016 5.85c0 5.61-6.09 6.12-9.15 6.36a20.57 20.57 0 00-1.38-4h1.38c1 0 4.86 0 4.86-2.64 0-.51-.15-1.68-1.92-1.68h-.66c.54.87.84 1.44 1.11 1.89-1.11.45-2.85 1.17-3.93 1.65a18.25 18.25 0 00-1.11-2.31c-1.11.51-1.77.87-2.19 1.11a59.25 59.25 0 014.2 11.58 39.9 39.9 0 00-4.26 2.07c-.54-4.23-2.7-9.6-3.51-11.52-.87.63-1.11.84-3.39 2.79l-2.7-4.23a38.81 38.81 0 004.26-2.13 22.81 22.81 0 00-2.7-3.93l4.08-1.68a1.67 1.67 0 01.63-.18.32.32 0 01.36.33.88.88 0 01-.27.48c.45.81 1.17 2.16 1.62 3l1.71-.84c-.48-.66-.63-.87-1.89-2.46zm21.06 1.5a30.73 30.73 0 017 4.11 29.22 29.22 0 00-2.91 4 25.57 25.57 0 00-6.81-4.08zm-1 16.14a43.81 43.81 0 0021.12-15.9 15.62 15.62 0 003.12 4.05c-3.78 5.64-12.66 13-20.67 16 0 .18-.06.69-.51.69-.21 0-.39-.3-.45-.39zm4-22.8a46 46 0 017.53 3.54c-.63.72-2.43 3.27-2.85 3.9a31.74 31.74 0 00-7.29-3.78zM325.7 44.1v-3.84h13.41V37.2h-12.63v-3.93h12.63v-2.88h-13v-3.93h17.22V45h-4.2v-.9zm52.35-13.86v5.1H352v-5.1zM409 44.16h-20.12c.39-5.25 3.33-7.41 9.69-11.73 4.83-3.3 4.83-4 4.83-5.25 0-2.25-2.4-2.82-4-2.82-4.05 0-4.47 2.88-4.59 4.83h-5.51c.09-1.89.18-4 1.86-6 2-2.43 4.92-3.36 8.31-3.36 6.87 0 9.36 3.78 9.36 7.23a7.1 7.1 0 01-1.32 4.11c-1.53 2.13-7.59 6-7.89 6.21a16.58 16.58 0 00-3.06 2.31H409zm22.66-11.43c0 2.88-.69 12.09-10 12.09a9.08 9.08 0 01-7.91-3.82c-1.56-2.28-2.1-6.39-2.1-9 0-2.88.69-12.09 10-12.09 8.78-.05 10.01 7.93 10.01 12.82zm-14.43-.39c0 1 0 7.95 4.44 7.95s4.41-6.93 4.41-7.95 0-8-4.41-8-4.44 6.92-4.44 8zm37.35 11.82h-20.16c.39-5.25 3.33-7.41 9.69-11.73 4.83-3.3 4.83-4 4.83-5.25 0-2.25-2.4-2.82-4-2.82-4.05 0-4.47 2.88-4.59 4.83h-5.55c.09-1.89.18-4 1.86-6 2-2.43 4.92-3.36 8.31-3.36 6.87 0 9.36 3.78 9.36 7.23a7.1 7.1 0 01-1.32 4.11c-1.53 2.13-7.59 6-7.89 6.21a16.58 16.58 0 00-3.06 2.31h12.48zm10.92-10.59v-3.66h1.5c.57 0 4.14-.33 4.14-2.94s-2.67-2.49-3.57-2.49c-2.31 0-3.93.36-4 3H458c.66-5.64 4.62-7.59 9.81-7.59 5.61 0 8.82 2.58 8.82 6.42a5 5 0 01-3.66 5.1c1.38.51 4.26 1.62 4.26 5.64 0 5.34-4.74 7.8-10.14 7.8-5.16 0-9.45-2.4-9.87-8.55h5.64c.06 1.14.27 4 4.29 4 .57 0 4.44-.09 4.44-3.36 0-1.92-1.35-3.39-4.29-3.39zm29.58-12.3c.24.09.39.21.39.42s-.57.42-.84.45a41.41 41.41 0 00-1.8 11.55 21.25 21.25 0 00.21 3c.39-.57 1-1.53 1.41-2.13a12.57 12.57 0 002.16 3 13.31 13.31 0 00-2.49 7.35l-4 .75a42.33 42.33 0 01-1.62-12.09 54.06 54.06 0 011.8-13.74zm14.25-.66c.15 0 .39.06.39.33s-.42.45-.69.48a33.17 33.17 0 00-.3 3.6 27.11 27.11 0 004.44-1.11v4.53c-.69.18-2.07.51-4.56 1a48.48 48.48 0 00.48 6.9 16.74 16.74 0 015.7 3.09c-.48.87-1.38 2.82-2 4.23a10.6 10.6 0 00-3.21-2.28c-.12 3.84-4 4.29-5.85 4.29-4.5 0-6.75-2.46-6.75-5.25 0-3.57 3.54-4.92 7.44-4.83-.24-3.42-.27-3.81-.33-5.55-1.71.15-2.94.15-3.45.15a22.18 22.18 0 01-2.22-.09v-4.75a31.8 31.8 0 005.64.21v-5.85zm-6.21 18.6c-.66 0-2.1.21-2.1 1.14s1 1.11 2 1.11c.24 0 2 0 2-1.47a.82.82 0 00-.06-.39 4.25 4.25 0 00-1.84-.39zM138.74 77.1v2.82h-1.5v5h-4.44v-1h-5.52v1.92c0 1.53-.39 2.58-4.86 2.58-.6 0-1.2 0-1.59-.06a11.29 11.29 0 00-1.41-3.75 23.76 23.76 0 002.55.24c.87 0 .87-.3.87-.93h-9.36v-3h9.36v-1h-11.43V77.1h11.43v-1h-9.36v-2.6h9.36v-.84h-7.62v-6.09h7.62v-.84h-11.43v-3.15h11.43v-1.65l4.65.18a.41.41 0 01.45.39c0 .27-.18.33-.66.57v.51h11.34v3.15h-11.34v.84h7.5v6.09h-7.5v.84h10v3.6zm-15.9-7V69h-3.66v1.17zm4.44-1.1v1.17h3.63V69zm5.52 8.13v-1h-5.52v1zm0 3.84v-1h-5.52v1zM156.65 65a22.71 22.71 0 002.58-4.23l4.5 1.14c.21.06.42.15.42.36s-.42.48-.87.42c-.78 1.23-1.08 1.74-1.5 2.31h6.87v3.75h-27.36V65h6.6a13.77 13.77 0 00-1.71-2.55l4-1.83a20 20 0 012.43 3.75L151 65zM147 81.9v6.48h-4.2V69.72h11.94v15.72c0 2.46-1.29 2.82-5.25 2.94a8.65 8.65 0 00-1.49-4.26c.45 0 1.35.15 1.8.15s.9-.06.9-1V81.9zm3.66-7.62V73H147v1.32zm0 4.47V77.4H147v1.35zm10.23-8.55c.27 0 .45.09.45.3s-.18.33-.45.51V83h-4.32V70zm6.33-.63c.27 0 .54.06.54.33s-.33.39-.72.6v14.31a2.85 2.85 0 01-1.29 2.91c-1.08.72-2.37.69-4.86.66a11.25 11.25 0 00-1-4.5c.51.06 1.62.21 2.07.21.75 0 .75-.48.75-.84V69.36zm19.58.03L184 86.16h-6.12l-5.43-23.64h5.37l3.36 17.55 2.94-17.55h5.4l2.94 17.55 3.36-17.55h5.37l-5.43 23.64h-6.12zm36.54 12.33v4.23H204V62.52h19v4.23h-13.64v5.31h12v4h-12v5.82zm3.27 4.23V62.52h12.72c4.62 0 7.44 2.52 7.44 6.06a4.88 4.88 0 01-3.57 4.89 6 6 0 012.28 1.08 5.77 5.77 0 012.25 4.77c0 4.05-3.18 6.84-7.77 6.84zm5.4-13.8h6.12a2.76 2.76 0 002.88-3 2.57 2.57 0 00-2.88-2.73H232zm0 9.69h6.09c1.92 0 3.84-.87 3.84-3.27 0-2.64-2.34-3.06-3.84-3.06H232zm24.99-.27v-7a16.8 16.8 0 01-2.43 1.65 14.91 14.91 0 00-3-3.33 20.92 20.92 0 003.81-2.61 21.61 21.61 0 00-2.38-1.91l2.88-2.94a20.07 20.07 0 012.7 1.89 8.78 8.78 0 001.8-2.49h-5.55v-3.57h10.35l1.35 1.44A24.22 24.22 0 01263.6 68h6.15a19.6 19.6 0 01-3.54-5.91l3.79-1.43a18.21 18.21 0 001.29 2.49 15.23 15.23 0 001.83-2.28l3.15 2c.12.06.33.21.33.36 0 .36-.51.39-.81.39-1 1.26-1.8 2.19-2.16 2.55.33.39.57.63.81.87a37.46 37.46 0 002.73-3.24l2.83 1.87c.24.18.54.36.54.57 0 .39-.45.42-.9.45a23.27 23.27 0 01-2.58 2.7 20.73 20.73 0 004.23 2.79 14.7 14.7 0 00-2.76 3.57 32.84 32.84 0 01-2.76-2v8h-2.16c.21.09.33.21.33.42s-.3.48-.63.51a11.46 11.46 0 01-.63 1.65H280V88h-27.23v-3.64h7.65c-.12-.36-.57-1.53-.84-2.19l1.47-.39zm4.47-11.13c-.78.84-1.08 1.17-2.43 2.43h15.84a27.87 27.87 0 01-3.12-2.82v1.56h-10.29zm-.15 5.79v1.92h10.11v-1.92zm2.82 5.34c.27.66.48 1.17.84 2.28l-1.08.3h4.1a22.6 22.6 0 00.9-2.58zm29.1-9.93h-2.19v1.56h3v3.81h-3v4.08a17.94 17.94 0 001.05-3.57l3.42.69c.18 0 .45.09.45.39s-.45.42-.87.45c-.12.45-.18.6-.6 1.86a35.37 35.37 0 006-2.13v-4.92h-2.13a30 30 0 012.1 3.84A28.76 28.76 0 00297.2 80a25 25 0 00-2.2-4l3.06-1.89h-3.42v-3.58h9.45v-1.2h-7.59v-3.21h7.59V65h-9v-3.68h13.32v9.21h1.83v3.54h-3.57l3.33 1.62a.5.5 0 01.33.42c0 .3-.21.36-.78.45a27.32 27.32 0 01-2.43 3.57 22.24 22.24 0 003.75 3 14.57 14.57 0 00-2.45 3.87 25.86 25.86 0 01-4-4.08v2.55c0 3-1.95 3-5.52 3a13.73 13.73 0 00-1.53-4c-.3.15-.39.18-.81.36 0 .57-.09 1.08-.6 1.08a.49.49 0 01-.36-.33l-1.08-4.32a14.47 14.47 0 01-.63 1.53 11.79 11.79 0 00-2.82-.69v1.38c2.19-.42 2.82-.57 3.39-.72a12.15 12.15 0 00-.39 3.75c-3.81.84-6.9 1.35-9.81 1.77-.06.45-.15.84-.57.84s-.33-.24-.36-.45l-.69-4.14c1.23-.06 3.33-.3 4.44-.42v-1.49a19.62 19.62 0 00-3.15 1.08 28.41 28.41 0 00-1.53-4.59l3.37-1.11a34.16 34.16 0 011.29 3.66v-4.44h-3.93v-3.81h3.93v-1.56h-2.34v-1.14a10.71 10.71 0 00-3.15-3 13.76 13.76 0 005.76-6.69l4.26.84c.33.06.45.15.45.33s-.33.51-.69.54a22.59 22.59 0 004.35 4.17 12.42 12.42 0 00-2.46 1.95zm-1.77-3.51a14.34 14.34 0 01-2.25-2.7c-.69.93-1.17 1.56-2.13 2.7zm9 14.46c-.75.42-1.86 1-2.76 1.41.27 0 1.71.18 1.89.18.87 0 .87-.6.87-1zm3.93-6.21c.06.09.15.27.21.39a16.85 16.85 0 001.59-2.91h-1.8zm14.6-12.3v-3.12l4 .15c.42 0 .69 0 .69.39s-.33.45-.69.57v2h5.22v4H323v1.8h5.73V74H323v1.23h5.43v8.73c0 2-.54 2.79-4.26 2.82a8.22 8.22 0 00-1.17-3.35v5h-4v-9.2h-1.2v7.83h-4.2V75.21h5.4V74h-6.42v-3.95H319v-1.8h-3c-.21.42-.36.69-.63 1.14a14.67 14.67 0 00-3.63-1.29 17.67 17.67 0 002.31-6.24l3.81.54c.3 0 .48.18.48.42s-.39.51-.75.6l-.24.87zm4 18.48a4.15 4.15 0 00.81.09c.69 0 .69-.42.69-1v-2.63H323zm11-18.15c.45 0 .66.12.66.39s-.21.36-.66.6v16.47h-4.26V64.29zm5.46-3.48c.21 0 .75.06.75.39s-.33.48-.75.72v22.32c0 .69 0 2.55-1.5 3.33-.87.45-1.32.48-4.56.66a9.13 9.13 0 00-1.68-4.23c.33 0 1.89.15 2.19.15 1.11 0 1.29-.24 1.29-1.11V61zm10.99 2.1c.57.21.81.3.81.51s-.6.33-.81.36a34.84 34.84 0 00-1.95 12.39 10.44 10.44 0 00.21 2.4c.18-.33.9-1.65 1.26-2.25a8.79 8.79 0 002.31 2.46c-.75 1.41-2.13 4.89-2 7.17L346 87.42a31.62 31.62 0 01-2.13-12 56.91 56.91 0 011.92-13.92zm7.92 14.1a8.15 8.15 0 00-.45 2.13c0 1.32.72 1.53 4.17 1.53a30.55 30.55 0 007.41-.81 19.94 19.94 0 00-.45 4.89 63.66 63.66 0 01-7.59.39c-4.47 0-7.92-.78-7.92-4.44a11.11 11.11 0 011-4.41zm-3.63-12.81c.9.06 2.1.15 3.9.15a34.81 34.81 0 008.82-1 45.15 45.15 0 00.42 4.56 44.67 44.67 0 01-9.24.9c-1.77 0-2.94-.09-3.9-.15zm45.06 1.74c-8.58-.09-13.68 7.44-13.68 11.34 0 5 6.78 5.34 8.37 5.43a26.35 26.35 0 00-2.25 5.4c-5.25-1.23-11-4-11-10.47 0-5.52 4.14-9 5.31-9.93a101.74 101.74 0 00-12.39 1.77l-.63-5.64c.66 0 1.29.09 2.25.09 4.41 0 16.38-.84 23.19-3zM130 123.24v6.45h-3.81v-6.45H124a11.29 11.29 0 01-4.59 7.08 8.69 8.69 0 00-3.36-2.22v2.16h-4.29v-26.7h12.57V114h-8.28v14.07c2.1-1.17 3.54-2.31 4.14-4.83h-3.09v-3.33h3.48v-1.77h-2.76V115h14.55v3.15H130v1.77h3v3.33zm-9.72-16.71h-4.26v1.11h4.26zm0 3.39h-4.26v1.14h4.26zm5.91 8.22h-1.86c0 .36 0 1.5-.06 1.77h1.92zm6.42 12.24a10.46 10.46 0 00-1.59-4.38 9 9 0 001.74.24c.57 0 1.2 0 1.2-1V114h-8.34v-10.44h12.63v23.34c.04 2.79-1.67 3.51-5.6 3.48zm1.39-23.85h-4.32v1.11H134zm0 3.39h-4.32v1.14H134zm28.47 6.9v1.26h4.65v3h-4.65v1.26h4.65v3h-4.65v1.23h6.06v3.27h-13.77v.48h-4.23v-10.38l-.81.81a10.5 10.5 0 00-1.44-2.13v11.76h-4.38V116l-.81 1a7.23 7.23 0 00-3.06-3.09 31.83 31.83 0 006.3-11.4l4.2 1.41v-.48l4.26.15c.33 0 .45.18.45.42s-.24.45-.66.72v2.88h2.25v-5l4.47.27c.3 0 .45.18.45.39 0 .39-.45.51-.72.57v3.72h2.52v-4l4.44.27c.36 0 .54.12.54.33 0 .36-.36.51-.75.69v6h-6.93L163 112a.56.56 0 01.33.48c0 .33-.42.45-.87.54-.12.21-.3.48-.48.75h6.42v3.06zm-14.19-.54a27.6 27.6 0 004.08-5.43h-1.83v-6.06c-.09 0-.18.09-.27.12-.51 1.11-.81 1.74-1.86 3.78.45.24.57.3.57.51s-.48.54-.69.63zm6.48.54v1.26h3.48v-1.26zm0 4.29v1.26h3.48v-1.26zm3.48 5.52v-1.23h-3.48v1.23zm-1.08-12.87a29.71 29.71 0 001.68-2.91h-3.72l1.38.69c.24.12.42.24.42.48s-.33.45-.87.51c-.33.54-.45.72-.75 1.23zm21.15-7.86c.27.09.6.18.6.45s-.36.45-.63.48a26.85 26.85 0 00-1.68 9c0 3.66 1.14 6.21 2 6.21s2.1-2.64 2.91-4.53a13.65 13.65 0 003.15 3.18c-2.4 5.82-5.13 7.86-6.6 7.86-1.68 0-6.12-3.57-6.12-12.84a53.55 53.55 0 011.47-11.22zm14.49.21a29.92 29.92 0 016.06 15.09c-1.77.69-3.9 1.71-4.89 2.22a27.32 27.32 0 00-5-14.85zm22.68-1.98c.27.06.6.18.6.48s-.42.39-.66.39c-.12.48-.63 2.61-.75 3a19.09 19.09 0 005-1.47l.51 4.71a39.16 39.16 0 01-6.78 1.41 72.43 72.43 0 01-7.86 17.55A31.2 31.2 0 00201 128a48.68 48.68 0 007.41-14.55c-1.83.15-2.19.15-5.49.18l-.39-4.92c.9.06 1.95.12 3.48.12 1.35 0 2.25 0 3.57-.12.42-2.25.63-4.2.81-5.67zm2.25 18.06a2.94 2.94 0 00-.81 1.77.81.81 0 00.54.78 11 11 0 004 .51 21.68 21.68 0 006.6-1 13 13 0 00-.21 2.34 21.57 21.57 0 00.18 2.49 36.38 36.38 0 01-6.21.51c-3.93 0-9.15-.57-9.15-4.83a8.14 8.14 0 011.17-3.93zm-1.41-8.49a38.42 38.42 0 016.63-.54 21.47 21.47 0 014.41.33c-.18 2.22-.21 2.7-.24 4.71a17.44 17.44 0 00-4.5-.54 55.29 55.29 0 00-6.3.54zm25.53-9.57c.45.06.69.09.69.42s-.21.36-.57.51A65.79 65.79 0 00241 117c0 6.81.66 8.07 3 8.07 5.13 0 9.66-6.93 10.47-8.61a30.89 30.89 0 003.48 3.93c-3.42 5.55-8.52 9.72-14.58 9.72-6.66 0-7.2-5.64-7.2-13.14 0-1.74.3-9.33.3-10.86 0-.87 0-1.89-.06-2.76zm36.15-.24c.27.06.54.09.54.39s-.33.39-.54.42c-.12 1.17-.12 1.44-.15 1.77 1.38 0 6-.09 8.28.18v4.47a72.76 72.76 0 00-8.43-.27v3.3a39.38 39.38 0 007.62-1.41v4.47a57 57 0 01-7.5 1c0 1.29 0 1.41.06 2.67a29.75 29.75 0 0110 4 48 48 0 00-3.33 3.75 24.18 24.18 0 00-6.42-3.78c.06 1.56.27 5.1-6.3 5.1-4.65 0-8-2.13-8-4.86 0-3.42 4.29-4.89 9.3-4.8v-1.77c-3 .06-8.4.15-8.4-2.82 0-1.05.54-2 2.1-3.63l3.3.75c-.54.72-.63.81-.63 1s0 .84 3.51.69v-3.45c-3.69.15-6.93.57-9.42.9v-4.74c1.47-.15 8-.45 9.39-.54 0-1.14 0-2.31-.12-3.69zm-6.21 19.8c-.15 0-3 0-3 1.23 0 1 1.65 1.08 2.16 1.08 1.47 0 2.37-.54 2.19-2.19a6.57 6.57 0 00-1.35-.12zm36.39-20.25c.48.06.75.09.75.33s-.36.45-.6.51c-.06.54-.09.9-.15 2.1 8.46-.36 9.39-.39 10-.45 0 .63-.09 3.6 0 4.83-5.43-.27-7.71-.27-9.9-.24a24.39 24.39 0 000 3.33 9.82 9.82 0 011.74 5.76 14.18 14.18 0 01-7 11.58 20.09 20.09 0 00-4.38-3.09c.9-.36 4.44-1.86 5.52-4.32a3.36 3.36 0 01-2.37.72 4 4 0 01-3.24-1.35 7.53 7.53 0 01-1.29-4.44c0-6.6 5.64-6.39 6.27-6.3v-1.68a81.37 81.37 0 00-12 1.56l-.33-5.07c.69 0 1.83 0 12.18-.63a31.66 31.66 0 00-.42-3.81zm-6.93 15c0 2 1 2.52 1.53 2.52.93 0 1.47-1.38 1.47-2.88 0-.69-.15-1.86-1.35-1.86-.99 0-1.65.99-1.65 2.22z"/></g></g></svg>