<svg xmlns="http://www.w3.org/2000/svg" viewBox="0 0 630 40"><g data-name="レイヤー 2"><g data-name="編集モード"><path d="M630 20a20.06 20.06 0 01-20 20H20A20.06 20.06 0 010 20 20.06 20.06 0 0120 0h590a20.06 20.06 0 0120 20z" fill="#ffa000"/><path d="M230.39 26v-4.44l2.21.12c.27 0 .54 0 .54.25s-.27.27-.45.33v6.88h-2.3v-1h-10.72v1h-2.3v-7.6l2.27.12c.18 0 .48 0 .48.24s-.21.25-.45.32V26h4.16v-5.34h-5.74v-6.95l2.45.14c.09 0 .34 0 .34.23s-.22.26-.43.31v4.14h3.38v-5.82l2.27.17c.25 0 .54 0 .54.25s-.25.29-.48.36v5h3.4v-4.78l2.45.14c.1 0 .36 0 .36.22s-.26.27-.44.32v6.27h-5.77V26zm7.44 1.12c.4 0 .94-.09 2.38-.32v-3h-2.16a14.64 14.64 0 01-1.67 5.2 6.15 6.15 0 00-1.95-.9c1.06-1.75 1.69-3.5 1.69-8.16V13.2h14.36v4.34H238.3v2.92c0 .5-.05 1.19-.07 1.47h2.49v-1.29h-2V19h2v-1.24l2 .12c.44 0 .62.15.62.29s-.36.27-.56.29V19h2.74v-1.24l2 .14c.31 0 .58.07.58.27s-.27.27-.58.33v.5h2.77v1.64h-2.77v1.29h3.53v1.84h-1.19l.47.4a.38.38 0 01.16.25c0 .16-.14.21-.47.2a18.69 18.69 0 01-1.65 1.44 9.05 9.05 0 003 1.42 4.77 4.77 0 00-1.28 1.78 11.56 11.56 0 01-4.79-3.4 8 8 0 00-.28 1.93c-.92.19-4 .86-6.13 1.17-.07.19-.19.32-.36.32s-.21-.11-.27-.29zm.47-12.32v1.08h10V14.8zm4 11.64c.81-.15 2.28-.42 3-.62a9.83 9.83 0 01-1.41-2.05h-1.58zm.43-4.51h2.74v-1.29h-2.74zm3.37 1.84a5.77 5.77 0 00.79 1c.38-.31.79-.72 1.08-1zm11.48 5.38h-2.23V24c-.74.66-1.33 1.11-1.78 1.46a4.86 4.86 0 00-1.43-1.86 14.22 14.22 0 005.14-5.24h-4.42v-2.1h2.49v-3.47l2.21.07c.26 0 .35.16.35.25s-.09.18-.33.31v2.84h1.86l1 .94a17.67 17.67 0 01-2 3.4 13.93 13.93 0 002.75 2.27 6.65 6.65 0 00-1.4 1.67 12.89 12.89 0 01-2.22-1.94zm2.54-8.93V18h3.17v-5.25l2.43.11c.14 0 .27.07.27.2s-.13.21-.38.29V18h3.19v2.18h-3.19v6.27h3.59v2.07H259v-2.03h4.3v-6.27zm26.98-.46v2.44h-16.25v-2.44zm12.6 7.18c0 .38.11.5.51.5h2.39c.63 0 .81-1 .88-2.19a4.89 4.89 0 002 .92c-.27 1.78-.78 2.89-2.06 2.89h-4.14c-.72 0-1.71 0-1.71-1.22v-1.53h-2.72l.94.4c.14.05.38.16.38.34s-.22.23-.67.27a9.64 9.64 0 01-5.85 2 5.52 5.52 0 00-.79-1.87h.61c.22 0 3-.07 4.18-1.19h-2.78v-6.2h12.35v6.25h-3.52zm-3.2-12v1.48a10.22 10.22 0 001.83-3.82l2.13.49a.19.19 0 01.16.2c0 .23-.27.28-.5.32-.11.29-.13.38-.24.68h5.33V16h-6.15a16 16 0 01-1.27 1.8 4.62 4.62 0 00-1.29-.95v.79h-2.34v.79h3v1.15h-8V13H297v1.17h-2.77v.75zm-4.12 0v-.75H291v.75zm-1.43 1v.78h3.78v-.78zm0 1.79v.79h1.41v-.79zM301.11 22v-.59H293V22zm-8.14.9v.59h8.14v-.59zm0 1.48V25h8.14v-.65zm11.11-5.22h-5.67v-1.89h5.67zm7.07-5.09c.14 0 .22.12.22.25s-.27.25-.51.29a26.17 26.17 0 00-1 7.14 14.37 14.37 0 00.13 2.13c.16-.29.83-1.57 1-1.82a6.56 6.56 0 001.16 1.53 8.92 8.92 0 00-1.5 4.68l-2 .4a25 25 0 01-.94-7.11 34.1 34.1 0 011-8.29zm8.62-.4c.2 0 .26.13.26.23s-.26.24-.44.26c0 .41-.12.9-.18 2.35a16.43 16.43 0 002.83-.7v2.32c-1.46.37-2.36.51-2.88.6a35.55 35.55 0 00.27 4.52 11.15 11.15 0 013.58 1.94c-.27.47-.93 1.86-1.06 2.15a7.18 7.18 0 00-2.29-1.55c0 2.46-2.77 2.63-3.56 2.63-2.61 0-3.53-1.61-3.53-2.83 0-1.8 1.76-2.79 3.71-2.79a7.23 7.23 0 01.76.05c-.06-.7-.18-2.23-.2-3.81-1.1.09-2 .12-2.56.12h-1.24v-2.45a18.47 18.47 0 002.23.13c.74 0 1.23 0 1.55-.06v-3.56zm-3.52 11c-1.12 0-1.46.5-1.46.9s.52.86 1.26.86c.12 0 1.51 0 1.51-1.13a3 3 0 000-.4 2.88 2.88 0 00-1.31-.21zm14.27-2.47c-.27.24-1.87 1.62-1.87 2.52a.89.89 0 00.45.82 10.77 10.77 0 003.83.52 22.91 22.91 0 006.86-.9 16.86 16.86 0 00.5 2.54 37.09 37.09 0 01-7.4.72c-4.05 0-6.75-.76-6.75-3.42 0-.82.27-2.08 2.7-4.15zm8.57-6.46a21.72 21.72 0 00-5.76 3.71l-1.39-1.57c.14-.09 1.53-1.15 1.91-1.51-1 .07-2.29.14-3.89.14a22.83 22.83 0 01-2.34-.09l-.14-2.52a34.27 34.27 0 005.13.33 27.85 27.85 0 005.24-.4zm12.13-2.5c.23 0 .36.12.36.27s-.22.23-.42.25c-.09.29-.5 1.58-.59 1.84a30 30 0 006.16-1.46 6.52 6.52 0 00.47 2.27 32.23 32.23 0 01-7.42 1.59c-.09.25-.42 1.13-1.19 3a10.37 10.37 0 015-1.42c4.61 0 4.9 3.31 4.9 4.14 0 5-7.13 5.26-9.33 5.26a16.48 16.48 0 01-1.89-.09 9.83 9.83 0 00-.57-2.29c.57.05 1.53.16 2.71.16 2.33 0 6.54-.41 6.54-3.11 0-1.48-1.08-2.07-2.5-2.07a9.53 9.53 0 00-6.45 3.13l-2.16-1.1a23.17 23.17 0 002.56-5.51 33.65 33.65 0 01-3.8-.1v-2.5a21.82 21.82 0 004.45.34 22.37 22.37 0 00.7-3.26zm15.91 3.38c.13 0 .31.11.31.27s-.26.25-.38.25a16.52 16.52 0 00-1.24 3.77 8.92 8.92 0 015.56-2.05 4.23 4.23 0 014.55 4.3c0 3.51-3.47 5.65-9.2 5.65h-1.35a7 7 0 00-.7-2.56 13.69 13.69 0 002.49.22c1.13 0 6.24-.17 6.24-3.26A2.1 2.1 0 00371 21c-3.12 0-5.33 2.46-6 3.2l-2.2-.79a44.57 44.57 0 011.82-7.58zm-.72-4a18.54 18.54 0 016.19 2.07 20.5 20.5 0 00-1.36 2.31 16.67 16.67 0 00-5.64-2.25zm20.74.96c.18.05.36.11.36.27s-.11.27-.49.31c-.31 1.42-.45 2-.54 2.34 1.3-.06 4.25-.18 4.25 4.39a12.15 12.15 0 01-1.73 6.48 3.09 3.09 0 01-2.69 1.26 9.32 9.32 0 01-1.83-.21v-.56a13 13 0 00-.23-2.07 3.41 3.41 0 001.67.39 1.5 1.5 0 001.3-.54 8.56 8.56 0 001.19-4.75c0-2-1-2.18-1.75-2.18-.22 0-.56 0-.77.06a28.38 28.38 0 01-4.68 9.7 11.7 11.7 0 00-2.27-1.21 21.48 21.48 0 004.46-8.06 21.31 21.31 0 00-3.22 1l-.85-2.47c.74-.14 4-.84 4.68-.95a25.93 25.93 0 00.58-4zm5 1.1c2 2.2 3.26 5.17 3.26 6.59a1.84 1.84 0 01-1.28 1.89 6.66 6.66 0 01-1.8.56 11.56 11.56 0 00-.91-2.06c.66-.12 1.49-.3 1.49-1 0-.19-.23-2.14-2.63-4.8zm10.98 1.94c.13 0 .31.11.31.27s-.26.25-.38.25a16.52 16.52 0 00-1.24 3.77 8.92 8.92 0 015.56-2.05 4.23 4.23 0 014.55 4.3c0 3.51-3.47 5.65-9.2 5.65h-1.35a7 7 0 00-.7-2.56 13.69 13.69 0 002.49.22c1.13 0 6.24-.17 6.24-3.26A2.1 2.1 0 00407 21c-3.12 0-5.33 2.46-6 3.2l-2.2-.79a44.57 44.57 0 011.82-7.58zm-.72-4a18.54 18.54 0 016.19 2.07 20.5 20.5 0 00-1.36 2.31 16.67 16.67 0 00-5.64-2.25z" fill="#fff"/></g></g></svg>