<svg xmlns="http://www.w3.org/2000/svg" width="560" height="50"><g data-name="レイヤー 2"><rect width="560" height="50" rx="6" fill="#ff9600"/><path d="M538.5 30V20l5 5-5 5zm-357.66 3.74a23.86 23.86 0 00.15 3.17h-3a23.55 23.55 0 00.16-3.23V16.52a27.9 27.9 0 00-.11-2.91 23.44 23.44 0 002.68.1h4.73a21.71 21.71 0 002.65-.1c-.05.76-.07 1.51-.07 2.42v4c0 1.17 0 1.67.07 2.34-.67-.05-1.48-.07-2.39-.07h-4.83zm0-16.7h4.6v-1.38h-4.6zm0 3.25h4.6v-1.4h-4.6zm4.34 7.71v-2.4a21.9 21.9 0 00-2.6.11v-2.32a18 18 0 002.63.13h7.54a19 19 0 002.7-.13v2.34a22.71 22.71 0 00-2.7-.11V28h.39a22.35 22.35 0 002.67-.11v2.41a19.19 19.19 0 00-2.67-.13h-.39V34a10.66 10.66 0 00.13 2.21h-2.68a12.43 12.43 0 00.13-2.23v-3.81h-2.92a9.33 9.33 0 01-3.14 6.43 12.25 12.25 0 00-2.08-1.8 6.31 6.31 0 002.81-4.63 18.76 18.76 0 00-2.76.13v-2.39a22.9 22.9 0 002.71.11zm2.47-2.4c0 1.17 0 1.17-.05 2.4h2.73v-2.4zM200 33.71c0 2.31-.78 2.91-3.69 2.91h-1.69a9.73 9.73 0 00-.7-2.76 18.58 18.58 0 002.39.21c.83 0 1-.1 1-.67v-11h-5.1c-.91 0-1.74 0-2.36.07.05-.75.05-1.17.05-2.34V16c0-1 0-1.66-.08-2.42a22.33 22.33 0 002.65.1h5a23.12 23.12 0 002.68-.1c-.08 1-.11 1.59-.11 2.89zM192.43 17h4.84v-1.34h-4.84zm0 3.25h4.84v-1.4h-4.84zm27.95 13.28h4.19a13.67 13.67 0 002.18-.11v2.66a26.73 26.73 0 00-2.88-.16h-10.35v1.14h-2.81a22.21 22.21 0 00.16-3v-7.45a10.13 10.13 0 01-1.64 2.08 7.28 7.28 0 00-1.06-2v7.1a26.46 26.46 0 00.13 3.17h-3.1a21.69 21.69 0 00.15-3.09V27c0-.83 0-1.92.08-3.33a14.39 14.39 0 01-1.84 2.6 15.7 15.7 0 00-1.1-3.25 19.27 19.27 0 004-7.07 15.93 15.93 0 00.73-3.12l2.86.94a10.37 10.37 0 00-.42 1.25 41.56 41.56 0 01-1.48 3.82V26a16.71 16.71 0 004.47-6.34l2.7.67c-.31.63-.44.86-1 1.77h3.69a8.83 8.83 0 001.32-2.44l2.71.52c-.42.73-.89 1.51-1.17 1.92h3.28a15 15 0 002.41-.13v2.63a16.85 16.85 0 00-2.13-.11h-4.11v1.43h3a14.15 14.15 0 002.21-.1v2.47a17.66 17.66 0 00-2.18-.1h-3.07v1.41h3.07a14.64 14.64 0 002.21-.1V32a17.27 17.27 0 00-2.18-.11h-3.1zm-3.66-18.41a10.08 10.08 0 00-.16-2h2.94a10.18 10.18 0 00-.13 2V17h3.82v-1.15a17.34 17.34 0 00-.08-1.77H226a13.89 13.89 0 00-.1 2v1.72a8.85 8.85 0 00.08 1.69h-13.71a18.07 18.07 0 00-1.82.05 17.29 17.29 0 00.05-1.76v-2a11.55 11.55 0 00-.1-1.69h2.81a16.6 16.6 0 00-.08 1.79V17h3.59zm1.09 10.76v-1.43h-4.29v1.43zm-4.29 3.72h4.29v-1.45h-4.29zm0 3.93h4.29v-1.67h-4.29zm18.93-5.38a28.51 28.51 0 01-1.12 7.61L229 34.67a20 20 0 001.12-6.94zM229 24c.7.05 1 .07 1.72.07h.49c.65-.85.75-1 1.22-1.66a30.84 30.84 0 00-3.43-3.83l1.43-2.16.78.83a16.43 16.43 0 002.05-4.47l2.58 1a5.48 5.48 0 00-.55 1 33.44 33.44 0 01-2.4 4.22c.44.49.54.62 1 1.2a24 24 0 002.39-4.32l2.37 1.33a15.44 15.44 0 00-.91 1.35c-1.59 2.47-2.6 4-3.74 5.43 1.27-.08 1.76-.1 2.86-.21a13.8 13.8 0 00-.76-1.89l1.93-.78a26.63 26.63 0 011.87 5.25l-2.06.83c-.13-.55-.18-.75-.28-1.12l-1.82.16v8.06a15.79 15.79 0 00.16 2.71H233a16.3 16.3 0 00.15-2.76v-7.78l-3.84.26zm9.44 3.61a48.42 48.42 0 01.86 6.29l-2.21.42a37.1 37.1 0 00-.68-6.24zM242 19a20.9 20.9 0 00-2.83.16v-2.82a19.64 19.64 0 002.86.16h2.39v-1.38a12.08 12.08 0 00-.15-2h3a11 11 0 00-.16 2v1.38h3a20 20 0 002.88-.16v2.81a23.21 23.21 0 00-2.88-.16h-3v3h2.39a26.67 26.67 0 002.81-.13v2.81a22.61 22.61 0 00-2.78-.15h-6.92c-.93 0-1.95 0-2.75.13v-2.8a27 27 0 002.81.13h1.71V19zm.91 18h-2.83a18.48 18.48 0 00.13-2.55V29a21.56 21.56 0 00-.1-2.49 20.82 20.82 0 002.31.1h7.07a18.39 18.39 0 002.29-.1 19 19 0 00-.1 2.49v5.2a27.35 27.35 0 00.13 2.76H249v-1.27h-6zm0-3.8h6V29h-6zm18.01-8.67a27.13 27.13 0 00-3.15.13 20.74 20.74 0 00.13-3V16.6a18.52 18.52 0 00-.13-2.75 23.78 23.78 0 003.09.13h12.33a24.81 24.81 0 003.12-.13 19.6 19.6 0 00-.13 3v4.85a19.86 19.86 0 00.13 3 26.7 26.7 0 00-3.15-.13h-4.94V26h7.49a18.91 18.91 0 003-.16v2.89a22.53 22.53 0 00-2.93-.16H270a14 14 0 003.56 2.84 21 21 0 005.62 2.26 13.71 13.71 0 00-1.51 2.75 20.82 20.82 0 01-9.5-6.42v4.12a17.61 17.61 0 00.23 2.88h-3.17a13.87 13.87 0 00.18-2.81v-2.25c0-1 0-1 .08-1.79a21.6 21.6 0 01-4.11 3.72 25.1 25.1 0 01-5 2.67 11.32 11.32 0 00-1.56-2.67 21.38 21.38 0 005.1-2.27 13.39 13.39 0 003.53-3h-5.22a21.29 21.29 0 00-2.91.16v-2.93a16.26 16.26 0 002.91.16h7.17v-1.46zm-.21-8.11v1.77h4.7v-1.77zm0 4v1.77h4.7v-1.77zm7.51-2.23h5.18v-1.77h-5.18zm0 4h5.18v-1.77h-5.18zm15.26 13.65a7.05 7.05 0 00-.13-1 49.72 49.72 0 01-.7-8.27 46.18 46.18 0 01.5-6.89c.13-.78.13-.78.7-3.72a13.91 13.91 0 00.28-1.92v-.11l3.51.37c-1.06 2.26-2.05 8.53-2.08 13.05v1.77a3.71 3.71 0 010 .54 8.06 8.06 0 00.31-.75c0-.18.18-.47.31-.88s.24-.55.5-1.17A7 7 0 00287 26l2.16 1c-1.54 3-2.58 6.24-2.58 8a5.25 5.25 0 00.05.7zm5.88-17a18.78 18.78 0 004.71.42c.91 0 1.48 0 2.39-.05v-3.9a6.43 6.43 0 00-.08-1.25l3.22-.06a25.56 25.56 0 00-.18 3.82V19a26.66 26.66 0 003.51-.63l.57-.2.21-.06.11 2.94a5.64 5.64 0 00-.76.13c-.88.18-2.23.42-3.61.57v.58c0 1.45 0 1.5.26 5.87a21 21 0 014.08 2.37 5.41 5.41 0 00.73.44l-1.25 3.15a9.71 9.71 0 00-1.95-1.67l-1.64-1.06v.36a4.61 4.61 0 01-.21 1.46c-.59 1.53-2.41 2.44-4.94 2.44-3.4 0-5.48-1.61-5.48-4.26s2.21-4.29 5.35-4.29a6.18 6.18 0 012.32.36c-.08-.65-.11-1.92-.21-5.54-1 0-1.66.05-2.34.05-1 0-2 0-3.22-.13h-.78a3.43 3.43 0 00-.45 0h-.41zm5.28 10.9c-1.67 0-2.71.65-2.71 1.71s.94 1.61 2.4 1.61a2.54 2.54 0 002.1-.8 2.15 2.15 0 00.34-1.41v-.7a5.46 5.46 0 00-2.13-.44zM315.72 26c-1.63 1.35-2.36 2.45-2.36 3.56 0 1.69 1.9 2.42 6.29 2.42a27.84 27.84 0 008.16-1.09l.29 3.56a10.84 10.84 0 00-1.14.11 44.75 44.75 0 01-7 .57 18.58 18.58 0 01-6.5-.86c-2.24-.86-3.33-2.31-3.33-4.34s1-3.69 3.35-5.64zm-4-10.68a34.58 34.58 0 007.8.65 32.53 32.53 0 006.87-.5l.1 2.91a48.57 48.57 0 00-6.94 4.32l-2.26-1.79a87.52 87.52 0 013.82-2.32 27.12 27.12 0 01-3.9.21 41.36 41.36 0 01-4.76-.31 8.34 8.34 0 00-1-.08zm22.98 1.91a24.1 24.1 0 005.62.44 22.48 22.48 0 00.73-4.29l3.48.28c-.15.47-.15.47-.41 1.51-.47 2-.47 2-.63 2.45 2-.06 4.92-.26 6.63-.47a18.13 18.13 0 003.33-.6l.16 3.15a14.23 14.23 0 00-1.51.13c-3.77.41-6.06.59-9.31.67a35.08 35.08 0 01-2.05 5.28 12.06 12.06 0 016.55-1.69c4.57 0 7.3 2 7.3 5.28 0 3.85-3.71 6.34-9.41 6.34a23.71 23.71 0 01-6.63-.91 14.44 14.44 0 00-.26-3.3 19.87 19.87 0 006.71 1.3c3.77 0 6.21-1.33 6.21-3.41 0-1.61-1.56-2.49-4.36-2.49a13.2 13.2 0 00-5.59 1.27 4.4 4.4 0 00-1.9 1.51l-3.15-1.09a17.87 17.87 0 001.22-2.34 61 61 0 002.19-5.77c-1.38 0-2.55-.08-3.93-.19h-1.04zm31.93 1.53a55.46 55.46 0 00-1.17 6.4c0 .36 0 .36-.13.75l.05.05c1.51-1.45 4.74-2.47 7.88-2.47 4.42 0 7.33 2.19 7.33 5.51a6.33 6.33 0 01-2.67 5c-1.69 1.22-3.85 1.77-6.87 1.77a23.89 23.89 0 01-6.63-.91 11.37 11.37 0 00-.39-3.35 21.13 21.13 0 007 1.3c3.66 0 6.21-1.54 6.21-3.75 0-1.74-1.64-2.78-4.39-2.78a11.8 11.8 0 00-6.48 1.9 5.62 5.62 0 00-1.17 1.12l-3.27-.11c.07-.47.07-.57.2-1.56.21-1.61.63-4.5 1.1-7.56a10.42 10.42 0 00.15-1.51zm.34-5.1a39 39 0 009.7 2.89l-1.07 3a47 47 0 01-10.14-3.25z" fill="#fff"/></g></svg>