<svg xmlns="http://www.w3.org/2000/svg" width="280" height="40"><g data-name="レイヤー 2"><rect width="280" height="40" rx="5" fill="#00b4dc"/><path d="M51.24 23.82a4.7 4.7 0 01-.55.34 4.07 4.07 0 00-1.53-1.35v7.24H46.6V16.68h4.66a9.17 9.17 0 00-1.14-1.85l1.41-.33H46v-2.12h8.21v-1.64l2.64.13c.17 0 .38.08.38.23a.39.39 0 01-.11.21c-.06.06-.16.12-.27.21v.86h8.25v2.12H60l.86.1c.31 0 .57.09.57.32s-.32.31-.57.33c-.27.55-.52 1.05-.73 1.43h4.28V27.3a2.67 2.67 0 01-.61 2.15c-.67.69-1.39.71-3.07.75a4 4 0 00-.77-2.54 10 10 0 001.24.11c.39 0 .73 0 .73-.78V21c-.38.82-.71 1.58-2.1 1.58h-2.44c-1 0-1.7-.23-1.7-1.51v-2.1h-2.52l1.09.33c.31.11.4.21.4.32s-.32.29-.51.31a7.25 7.25 0 01-2.22 3.4h7.85v5h-6.19v.61h-2.35zm-2.08-1.41A4.94 4.94 0 0052 18.93h-2.84zm3.71-7.91A13.7 13.7 0 0154 16.39l-1 .29h4.22a12.11 12.11 0 001.09-2.18zm.72 10.66v1.33h3.84v-1.33zm8.29-6.23h-4V20c0 .4.09.54.55.54h.82c.4 0 .59-.16.73-1.22a6 6 0 001.85.93zM74 14.35v1.81h-7v-1.81zm7 5.42c.19 0 .34.1.34.25s-.21.23-.55.34v1.8a6.93 6.93 0 002.5 4A12.77 12.77 0 0086.05 28a5.34 5.34 0 00-1.57 2A10.71 10.71 0 0180 25.73a8.83 8.83 0 01-4.74 4.37 5.72 5.72 0 00-1.49-1.87v1.57h-2.16V29h-1.83v1h-2.23v-7.23h6.18V28A7.93 7.93 0 0077 26c1.41-1.51 1.39-3.71 1.37-6.36zm-7.74-8.17v1.76H68V11.6zm0 5.56v1.77H68v-1.77zm0 2.82v1.76H68V20zm-1.63 7v-2.26h-1.85v2.21zm9.28-16c.23 0 .4 0 .4.23s-.28.31-.57.37c0 .36-.11 1.87-.11 2.19a6 6 0 001.2 2.5 10.59 10.59 0 004.39 2.75 6 6 0 00-1.6 1.95 11.44 11.44 0 01-4.85-3.78 9.07 9.07 0 01-4.66 3.7 6.22 6.22 0 00-1.43-1.94c3.93-1.26 4.66-3.23 4.66-6.48v-1.58zM77.7 21.51c.25.06.37.15.37.27 0 .28-.31.38-.61.38a12.87 12.87 0 01-1.07 3.46A5.61 5.61 0 0074 25a11.42 11.42 0 001.41-4zm-.13-9.22c.15 0 .33.07.33.23s-.16.26-.52.36a17.68 17.68 0 01-.8 3.38 5.94 5.94 0 00-2.27-.48 13.47 13.47 0 00.87-3.87zm7.87.46a.34.34 0 01.21.3c0 .08-.06.25-.31.25a1.79 1.79 0 01-.36 0 17.57 17.57 0 01-1.87 2.6 7.64 7.64 0 00-1.89-1.38 10.56 10.56 0 002-2.9zm-.25 9c.15.06.29.15.29.34s-.31.33-.58.33a13.91 13.91 0 01-1.45 2.4 6.15 6.15 0 00-1.89-1.22 13 13 0 001.55-2.83zm15.71 4.71c0 .49.06.89 1 .89h1.87c.54 0 .88 0 1.32-2.56a5.57 5.57 0 002.34 1.21c-.63 3.34-1.37 3.8-3 3.8H101c-1.59 0-2.77-.48-2.77-2.52V23h-2.6l.75.19c.13 0 .34.08.34.31s-.27.3-.63.32a9.9 9.9 0 01-6.63 6.51 9.75 9.75 0 00-1.89-2.1c1-.23 5-1.09 6-5.23h-3.19V11.33h14.05V23h-3.53zm.84-11.84v-1h-8.53v1zm-8.53 1.91v1.07h8.53v-1.07zm0 3v1.17h8.53v-1.18zm29.91 7.35h-3.32v3.2h-2.65v-3.2h-3.1v-2.24a18.21 18.21 0 01-3.32 3.46 6.3 6.3 0 00-2.31-1.7c4-2.52 6.66-7.43 7.54-9.32h-7.06v-2.33h8.25V10.8l2.55.17c.1 0 .54.06.54.29s-.21.3-.44.4v3.09h8.29v2.33h-7.28a23.74 23.74 0 007.79 8.84 6.26 6.26 0 00-2 2 23.73 23.73 0 01-3.5-3.41zm-6-7.18a29.26 29.26 0 01-3 4.79h3zm5.9 4.79a27.39 27.39 0 01-3.25-4.64v4.64zm17.8-6.95h6.49v8.25c0 2.23-.53 2.86-4.16 2.86a6.27 6.27 0 00-.82-2.71 10.27 10.27 0 001.37.1c.67 0 .94-.08.94-1V20h-3.82v10.1h-2.64V20h-3.8v8.5h-2.69v-11h6.49v-2h-8.28v-2.4h8.28v-2.26l2.75.11s.37 0 .37.27-.35.34-.48.38v1.53h8.25v2.4h-8.29c.4.06.52.1.52.29s-.35.34-.48.38zm19.89 9.28c4.95-.94 6.23-4.64 6.23-6.84a5.34 5.34 0 00-5.35-5.48c-.71 7.83-3.74 13.46-5.9 13.46-1.62 0-4.45-2.65-4.45-6.41a10.09 10.09 0 0110-9.61c4.47 0 8.48 3 8.48 8a9.26 9.26 0 01-2.48 6.36 11.45 11.45 0 01-4.72 3 13.37 13.37 0 00-1.81-2.48zm-6.8-5.46c0 1.79.94 3.19 1.59 3.19s1.2-1.42 1.53-2.26a19.91 19.91 0 001.58-7.29 7.29 7.29 0 00-4.7 6.36zm22.76 8.72h-2.33v-7.69a17.42 17.42 0 01-1.41 3.05 6.74 6.74 0 00-1.74-1.64 19.41 19.41 0 003.13-7h-2.56v-2.16h2.47v-3.88l2.44.15s.42.06.42.29-.06.19-.42.36v3.08h1.78v2.15h-1.78v.65a13.55 13.55 0 002.43 4.09 4.69 4.69 0 00-1.1 1.89 13.28 13.28 0 01-1.28-2.1zm1.3-3.89a24.25 24.25 0 005.5-2.79v-2.81h-2.54a14.6 14.6 0 011.72 2.29c-.25.2-1.38 1.09-1.59 1.28a24.27 24.27 0 00-2-2.42l1.73-1.15h-2.27v-1.94h4.91v-1h-3.61v-1.79h3.61V15h-4.72v-1.89h2.56a11.27 11.27 0 00-1.16-1.68l2.08-.94a23.22 23.22 0 011.47 2.33l-.69.29h2.35a16.2 16.2 0 001.26-2.58l2.25.69a.37.37 0 01.23.32c0 .12-.13.17-.44.25-.17.29-.51.88-.78 1.32h2.9V15h-4.85v.9h3.59v1.76h-3.59v1h5.25v1.94h-1.77l1.43 1c.11.09.21.15.21.34s-.29.27-.54.25a13.42 13.42 0 01-2.15 2.48 12.53 12.53 0 003.41 2.24 5.67 5.67 0 00-1.5 2 13.88 13.88 0 01-4.3-3.91v2.27c0 2.61-1 2.79-3.63 3a5.62 5.62 0 00-1.14-2.43h1.24c.78 0 1.07-.09 1.07-.8v-1.39a43.58 43.58 0 01-3.86 2.35c-.07.27-.11.5-.32.5s-.33-.25-.42-.4zm8-4.39a10.72 10.72 0 001.03 1.47 17.34 17.34 0 002-2.68h-3.06zm26.19-2.87v2.39H204v5.86c0 1.78-.53 3.06-4.92 2.92a12.73 12.73 0 00-.84-2.73 13.71 13.71 0 001.58.14c1.49 0 1.49-.21 1.49-1.49v-4.7h-8.51v-2.39h8.48v-3.11l1.47.19a12.78 12.78 0 002.44-2h-10.33v-2.39h13.75l1.49 1.28a52 52 0 01-6.1 5.33v.7zM255 25V15l5 5-5 5z" fill="#fff"/></g></svg>