<svg xmlns="http://www.w3.org/2000/svg" width="280" height="40"><g data-name="レイヤー 2"><rect width="280" height="40" rx="5" fill="#ff9600"/><path d="M104.8 11.35v6.91H99V30h-2.55V11.35zm-2.37 2.71v-.89H99v.89zM99 15.53v.9h3.46v-.9zm9.82 7.22h2.29v2h-2.29v4.67h-2.26v-4.66h-1.91a7.58 7.58 0 01-3.26 5.06 3.92 3.92 0 00-2-1.38 5.25 5.25 0 003-3.68H100v-2h2.58v-1.55h-2.06V19.3h10.14v1.9h-1.87zm-2.26-1.55h-1.7v1.55h1.73zm8.06-9.85v16.1c0 2.44-1.6 2.63-3.8 2.6a6.57 6.57 0 00-1-2.6 8.2 8.2 0 001.28.15c.51 0 1-.09 1-.84v-8.48h-5.9v-6.93zm-2.5 2.73v-.91h-3.51v.91zm-3.51 1.45v.92h3.51v-.92zm27.27 3.02v1.91h-4.59v1.13H135v1.89h-3.75v1.12H135v1.91h-3.75v1.13h4.76v1.93H126v.48h-2.49v-7.74c-.26.25-.36.38-.61.61a5.78 5.78 0 00-1.39-1.58v8.71H119V19.33c-.48.65-.8 1.05-1 1.34a4.57 4.57 0 00-1.8-1.83 21.91 21.91 0 004.55-8.27l2.46.82a.33.33 0 01.27.32c0 .2-.17.27-.48.37-.46 1-1.18 2.59-1.41 3.05.42.14.51.19.51.33s-.11.23-.51.42v5a18.57 18.57 0 003.53-4.64h-1.58v-5l2.5.13c.19 0 .38 0 .38.25s-.13.27-.5.48v2.21H128v-3.63l2.63.14c.1 0 .37.07.37.25s-.33.36-.52.4v2.78h2.33v-3l2.58.17c.21 0 .44 0 .44.23s-.12.28-.54.44v4.1h-4.87l1.49.8a.4.4 0 01.25.33c0 .19-.07.21-.59.34-.08.14-.46.75-.52.88zM126 20.46v1.13h2.8v-1.13zm0 3v1.14h2.8v-1.12zm0 3v1.13h2.8v-1.08zm2.29-8a16.37 16.37 0 001.28-2.35h-3.4l1.18.61c.21.1.29.23.29.31s-.12.23-.56.3c-.21.37-.4.69-.68 1.13zm17.44-4.15a.38.38 0 01.23.36c0 .27-.6.21-.71.18a48 48 0 01-3.36 4.54c.55 0 .67 0 1.87-.17-.27-.71-.34-.86-.46-1.2l1.72-.84a21.71 21.71 0 011.47 3.8 12 12 0 00-2.06 1 12.08 12.08 0 00-.23-1.19c-.36.06-.67.14-1.13.2v9h-2.44V21.4c-1.45.26-1.59.28-2.16.4-.06.19-.15.47-.36.47s-.25-.17-.31-.4l-.49-2.15 1.73-.1c.44-.48 1.15-1.32 1.32-1.53a20.35 20.35 0 00-2.92-2.5l1.28-1.93.86.56a16.83 16.83 0 002-3.59l2.1 1.1c.14.08.25.16.25.33s-.13.21-.57.23a38.65 38.65 0 01-2.12 3.24c.32.29.44.44.63.6a30.44 30.44 0 001.91-3zm-5.54 8.52c.13 0 .42.07.42.23s-.31.32-.46.34a38.72 38.72 0 01-.74 5.21 17.77 17.77 0 00-2-.49 21.83 21.83 0 001-5.48zm5.21-.44a14 14 0 00.92 4.6 6.13 6.13 0 00-1.89.82 24.37 24.37 0 01-1.05-4.89zm11.76-8.8v2.27H153v2.21h3.55v2.18h-9.6v-2.18h3.49v-2.21h-4.18v-2.27h4.18v-2.77L153 11c.21 0 .46.08.46.27s-.23.3-.44.4v1.95zm-7.56 15.29V30h-2.46v-8.43h9.24V30h-2.5v-1.12zm4.28-2.23V23.8h-4.28v2.85zm15.88 3.43h-2.54v-5.57a24.37 24.37 0 01-6.62 4.94 6.24 6.24 0 00-2-2 18.39 18.39 0 007-4.18H159v-2.2h8.25v-1.39h-6v-8.29h14.66v8.29h-6.13v1.39h8.37v2.18h-6.8a15.39 15.39 0 006.93 3.8 9.75 9.75 0 00-1.89 2 17.4 17.4 0 01-6.61-4.66zm-2.54-15.54v-1.26h-3.32v1.26zm-3.32 1.78v1.3h3.32v-1.3zm9.26-1.78v-1.26h-3.4v1.26zm-3.4 1.78v1.3h3.4v-1.3zM255 25V15l5 5-5 5z" fill="#fff"/></g></svg>