<svg xmlns="http://www.w3.org/2000/svg" width="560" height="50"><g data-name="レイヤー 2"><rect width="560" height="50" rx="6" fill="#00b4dc"/><path d="M538.5 30V20l5 5-5 5zm-354.83-1.1a9.65 9.65 0 000-1.25c-.44.24-.68.34-1.33.63a8.94 8.94 0 00-1.27-1.8v7.36a21.84 21.84 0 00.15 3.17h-3.06a27.59 27.59 0 00.15-3.14V22a20.64 20.64 0 00-.1-2.24c.41.05 1.74.11 2.57.11h3.07a9.22 9.22 0 00-1-2.32h-2.73a22.08 22.08 0 00-2.88.13v-2.82a27.1 27.1 0 003.06.16h7.15v-.68a10.39 10.39 0 00-.13-1.61h3.18v.26a7.81 7.81 0 00-.1 1.35V15h7.51a25 25 0 003.07-.16v2.78a22.06 22.06 0 00-2.89-.13h-2.83a12.31 12.31 0 01-1.26 2.34h3.36a16.78 16.78 0 002.44-.11 16.5 16.5 0 00-.1 2.24v12c0 2.21-.81 2.89-3.49 2.89l-2.88-.08a8.18 8.18 0 00-.63-2.6h-6.4v1.13h-2.73a14.63 14.63 0 00.1-1.95zM181 22.3V26c2.62-.8 3.74-1.84 4-3.71zm6.68 0a6.43 6.43 0 01-3.46 5h7.96a19.73 19.73 0 002.16-.08c-.06.68-.08 1.3-.08 1.9v3.07a14.3 14.3 0 00.1 2c.7 0 1.28.08 1.72.08.7 0 .88-.13.88-.71v-8.25c-.47 1-1.14 1.17-3.72 1.17-1.69 0-2.39-.1-2.86-.39a1.32 1.32 0 01-.65-1.27V22.3zm3.35-2.47a10.6 10.6 0 001.07-2.32h-6.29a11.41 11.41 0 011 2.32zm-4.73 12.06h5.46V29.6h-5.46zM197 22.3h-4.57v1.5c0 .45.18.52 1.4.52.91 0 1.27-.07 1.4-.31a2.36 2.36 0 00.19-1.17c.7.31 1.06.47 1.58.65zm6-4.97a11.82 11.82 0 002.08.13h5.1a15.6 15.6 0 002.08-.1V20a13.13 13.13 0 00-2-.1h-5.2a17.07 17.07 0 00-2.06.1zm17.76 6.32a8.33 8.33 0 00-.1 1.45 8.83 8.83 0 001.83 5.9 11.54 11.54 0 004.94 3.41 10.2 10.2 0 00-1.43 2.78 13.1 13.1 0 01-6.48-6.44c-1.09 3.12-3 5-6.58 6.5a12.13 12.13 0 00-1.24-2.37c0 .94 0 1.22.1 1.79h-2.6v-1.06h-2.57V37h-2.73c.08-.81.13-1.72.13-2.55v-4a16.2 16.2 0 00-.11-2 11.69 11.69 0 001.75.1h4.47a7.72 7.72 0 001.56-.08 15.86 15.86 0 00-.08 1.87v4.37a9.21 9.21 0 004.38-2.82c1.35-1.56 1.92-3.59 1.92-6.63a14.17 14.17 0 00-.07-1.61zm-16.75-10a11.49 11.49 0 002.11.13h3.33a11.5 11.5 0 002.1-.13v2.5c-.7-.06-1.17-.08-2.1-.08h-3.33a20.49 20.49 0 00-2.11.08zm0 7.54a13.68 13.68 0 001.64.08H210a12.11 12.11 0 001.61-.08v2.42a13.36 13.36 0 00-1.61-.08h-4.27a13.68 13.68 0 00-1.64.08zm0 3.61a11.85 11.85 0 001.64.08H210a10.59 10.59 0 001.61-.08v2.42a13.21 13.21 0 00-1.64-.08h-4.24a13.56 13.56 0 00-1.64.08zm2.45 8.53h2.7v-2.71h-2.7zm14.32-20.15a10.82 10.82 0 00-.1 1.48 10.1 10.1 0 00.65 3.75 7.45 7.45 0 002.44 2.94 10.94 10.94 0 003.35 1.65 10.43 10.43 0 00-1.43 2.57 13 13 0 01-4.42-3.17 9.82 9.82 0 01-1.82-2.78 9.92 9.92 0 01-1.8 3 11.49 11.49 0 01-4.31 2.94 8.82 8.82 0 00-1.51-2.34c2.52-.83 4-1.84 5-3.56a9 9 0 001.15-5 13.83 13.83 0 00-.08-1.46zm-4.39 13.26a15.5 15.5 0 01-1.85 4.58L212.17 30a10.12 10.12 0 001.74-4.27zm.22-11.44a15.08 15.08 0 01-1.71 4.5l-2.45-1a9.47 9.47 0 001.55-4.08zm10.06.05a20.69 20.69 0 01-2.88 4.48 7.84 7.84 0 00-2.21-1.33 13.12 13.12 0 002.57-4.13zm0 11.37a19.52 19.52 0 01-2.67 4.43 8.57 8.57 0 00-2.19-1.35 13.47 13.47 0 002.37-4.06zm8.45 2.95c-1.24 0-2.13 0-2.8.08a20.83 20.83 0 00.13-2.76V17.2c0-1.43-.06-2.58-.13-3.25a20.53 20.53 0 002.73.13h12a20.74 20.74 0 002.76-.13 30.34 30.34 0 00-.13 3.25v9.49a18.6 18.6 0 00.13 2.76c-.68-.06-1.69-.08-2.76-.08h-2.25v4c0 .73.23.81 2.26.81s2.52-.11 2.83-.55.39-1.35.47-3.33a10.55 10.55 0 002.64 1.1c-.26 2.88-.52 3.84-1.17 4.47s-1.85.88-4.79.88c-4.31 0-5.09-.36-5.09-2.31v-5.07h-2.34a8 8 0 01-2.47 4.81 13.39 13.39 0 01-6.61 3.12 8.21 8.21 0 00-1.5-2.55 12.92 12.92 0 005.11-1.75 5.23 5.23 0 002.47-3.66zm.06-11h11.72v-1.69h-11.72zm0 4.19h11.72v-1.75h-11.72zm0 4.29h11.72V25h-11.72zm23.47-6.71a30.9 30.9 0 00-3.09.15v-3.17a22.46 22.46 0 003.09.18h6.69v-1.84a16.59 16.59 0 00-.16-2.42h3.25a13 13 0 00-.18 2.39v1.87h7a21.41 21.41 0 003.15-.18v3.17c-1.14-.1-1.92-.15-3.15-.15h-5.56a25.72 25.72 0 003.9 5.46 22.69 22.69 0 005.71 4.4 10.46 10.46 0 00-1.77 2.83 29.12 29.12 0 01-4.37-3.61v3a19.34 19.34 0 00-2.6-.16h-2.31v1.77a23.63 23.63 0 00.18 3.23h-3.28a24.11 24.11 0 00.19-3.23V32h-2.06a19.23 19.23 0 00-2.6.16v-2.95a24.51 24.51 0 01-4.21 3.64 8.91 8.91 0 00-1.77-2.73 24.46 24.46 0 009.05-10zm6.69 5a25.4 25.4 0 01.2-2.91 25.44 25.44 0 01-4.73 6.89 16 16 0 002.32.11h2.21zm5.43 4.09a15.8 15.8 0 002.29-.11 28.27 28.27 0 01-5.06-6.93 20.59 20.59 0 01.24 2.89v4.11zm20.51-14.29a11.6 11.6 0 00-.15-1.93h3.27a8.58 8.58 0 00-.18 1.9v1.3h7.36a23 23 0 003.28-.18v3a20.14 20.14 0 00-3.2-.15h-17.24a30.85 30.85 0 00-3.2.15V16a24.41 24.41 0 003.28.18h6.78zm0 6.39a14 14 0 00-.1-1.89h3.12a9.79 9.79 0 00-.1 1.89v.32h6a22.18 22.18 0 002.55-.11 18.19 18.19 0 00-.11 2.24v7.67c0 2.34-.75 2.94-3.79 2.94-.6 0-1.09 0-2.16-.11a9.71 9.71 0 00-.7-2.78 18.26 18.26 0 002.54.26c1.07 0 1.31-.13 1.31-.81v-6.76h-5.64v9.65a24 24 0 00.18 3.2h-3.28a24.61 24.61 0 00.18-3.17v-9.68h-5.14v7.47a19.41 19.41 0 00.15 3.06h-3.2a25.4 25.4 0 00.16-3v-7.9c0-.81 0-1.48-.1-2.24a25.89 25.89 0 002.67.11h5.46zm27.04 7.49c-1.48 3.36-3.14 4.89-5.27 4.89-3 0-5.1-3-5.1-7.2a11.16 11.16 0 012.86-7.57 11.67 11.67 0 018.94-3.64c6.24 0 10.3 3.8 10.3 9.65a10 10 0 01-6.32 9.7 16.92 16.92 0 01-4.08 1.09 8.12 8.12 0 00-1.59-3 14 14 0 005.18-1.43 7.28 7.28 0 003.61-6.5 6.45 6.45 0 00-3.2-5.78 5.82 5.82 0 00-2.62-.78 37.43 37.43 0 01-2.71 10.57zm-3.82-9.31a8.71 8.71 0 00-3.53 7c0 2.14.91 3.83 2 3.83.86 0 1.74-1.1 2.68-3.33a34.51 34.51 0 002.16-8.79 6.69 6.69 0 00-3.31 1.29zM343.7 26a15.33 15.33 0 00-2.39.13v-1.8a11.18 11.18 0 00-1 2.29 13.36 13.36 0 01-1.31-2.89c0 1.58.08 2.86.08 3.61v6.6a26.44 26.44 0 00.15 3.18h-2.94a25.15 25.15 0 00.16-3.18v-5.38c.05-1.95.1-3.17.16-3.61a20.43 20.43 0 01-2.66 6.16 13.46 13.46 0 00-1.32-3.2 16 16 0 002.47-4.42 18.67 18.67 0 001-3.22h-1a10.34 10.34 0 00-1.75.1v-2.7a9.78 9.78 0 001.75.1h1.4v-2.08a15.56 15.56 0 00-.16-2.7h2.94a15 15 0 00-.15 2.7v2.08h.7a7.61 7.61 0 001.48-.1v2.68a11.57 11.57 0 00-1.51-.08h-.57a10.29 10.29 0 002.16 3.51v-.24a17.61 17.61 0 002.65.13h3.15v-1.43h-2.4a18.29 18.29 0 00-2.44.11V19.9a18.41 18.41 0 002.39.11h2.45v-1.35h-2.84a15.17 15.17 0 00-2.47.13v-2.58a16.13 16.13 0 002.47.13h.37a11.65 11.65 0 00-1.49-2.52l2.37-.82a17.41 17.41 0 011.71 3.35h2.32a13.5 13.5 0 001.56-3.35l2.78.75a25 25 0 01-1.51 2.6h1.28a19.19 19.19 0 002.6-.15v2.6a17.14 17.14 0 00-2.58-.13h-4V20H353a17.33 17.33 0 002.6-.13v2.49a16.91 16.91 0 00-2.6-.13h-3.19v1.43H354a21 21 0 002.7-.15v2.62A23.51 23.51 0 00354 26h-4a10.4 10.4 0 001.63 3 13.16 13.16 0 002.4-2.86l2.13 1.51a21.56 21.56 0 01-3 3.17 13.51 13.51 0 004.14 2.78 11.72 11.72 0 00-1.72 2.58 15.52 15.52 0 01-3.12-2.47 13.74 13.74 0 01-2.78-4.24c.08 1.17.08 1.38.08 1.87V35c0 1.49-.83 2-3.25 2-.39 0-1.12 0-1.87-.08a6.85 6.85 0 00-.71-2.63 11.87 11.87 0 002.47.24c.55 0 .71-.13.71-.6v-2.46a36.11 36.11 0 01-5 3.31l-1.11.75-1.07-2.78a12.64 12.64 0 002.13-.86 34.18 34.18 0 005.05-3V26zm-.6.21a15.21 15.21 0 012.6 2.93l-1.92 1.46a16.46 16.46 0 00-2.5-3zm26.7-4.07c0-.83 0-1.38-.07-2h1.35a22.81 22.81 0 004.42-3.33h-10.38A26.44 26.44 0 00362 17v-3.08a24.33 24.33 0 003.12.16h11.78a10.94 10.94 0 002.26-.13l1.69 1.9c-.68.62-.68.62-2.45 2.31a35.59 35.59 0 01-5.53 4v1.11h6.37a30.11 30.11 0 003.53-.15v3.14a33.07 33.07 0 00-3.53-.15h-6.37v7.59c0 2.29-.89 2.86-4.35 2.86-.52 0-1 0-2.91-.1a10.48 10.48 0 00-.8-3.12 23.34 23.34 0 003.77.31c1.06 0 1.24-.11 1.24-.68v-6.85h-7a34.75 34.75 0 00-3.54.15v-3.14a33 33 0 003.62.15h6.91z" fill="#fff"/></g></svg>