<svg xmlns="http://www.w3.org/2000/svg" width="580" height="223.7"><defs><style>.cls-1{fill:#00b4dc}.cls-2{fill:#fff}.cls-3{fill:#ff5064}</style></defs><g id="レイヤー_2" data-name="レイヤー 2"><g id="object"><rect class="cls-1" width="580" height="40" rx="5"/><path class="cls-2" d="M205.55 24.17a4.93 4.93 0 01-1.67 3.91 6.87 6.87 0 01-4.68 1.46h-10.95V10.59h9.16a12.29 12.29 0 013.09.35 6.19 6.19 0 012.13.93 3.8 3.8 0 011.6 3.17 4.56 4.56 0 01-.41 1.92 4.65 4.65 0 01-1 1.45 3.88 3.88 0 01-1.22.8 7.5 7.5 0 013 1.93 4.49 4.49 0 01.95 3.03zm-6.67-8.12a1.84 1.84 0 00-.9-1.82 6.64 6.64 0 00-2.82-.45H194v4.54h1.23a6.45 6.45 0 002.82-.45 1.85 1.85 0 00.83-1.82zm.93 7.89c0-1.62-1.17-2.44-3.52-2.44H194v4.86h2.33c2.31 0 3.48-.81 3.48-2.42zm27.75-2.89a8.69 8.69 0 01-.91 4.15 7.39 7.39 0 01-2.4 2.72 10.5 10.5 0 01-3.25 1.43 14.13 14.13 0 01-3.45.44 13.66 13.66 0 01-4.69-.82 8.38 8.38 0 01-3.8-2.79 8.12 8.12 0 01-1.54-5.13V10.59h5.71v9a7.64 7.64 0 00.54 3.09 3.69 3.69 0 001.5 1.79 4.76 4.76 0 004.5 0 3.69 3.69 0 001.52-1.78 7.64 7.64 0 00.54-3.09v-9h5.71zm21.57-10.46l-7.42 10.27v8.68H236V21l-7.56-10.38h5.93l4.35 6 4.36-6zm15.43 18.95h-14.29V10.59h14.06v3.8H256v3.48h7.95v3.81H256v4.05h8.57zm20.78 0h-6.14l-1.49-3.36a14 14 0 00-1.48-2.7 3.16 3.16 0 00-1.23-1.09 4.49 4.49 0 00-1.6-.24h-.65v7.39H267V10.59h9.72a7 7 0 013.85 1 5.7 5.7 0 012.17 2.32 6 6 0 01.66 2.6 4.91 4.91 0 01-.55 2.43 4.45 4.45 0 01-1.17 1.44 11.25 11.25 0 01-1.38.86 5.42 5.42 0 011.51 1.27 15.42 15.42 0 011.62 3zm-7.77-13a2 2 0 00-.86-1.83 5.64 5.64 0 00-2.8-.52h-1.21v4.61h1.23a6.27 6.27 0 002.87-.46 1.89 1.89 0 00.77-1.76zm14.01-1.9a5.35 5.35 0 01-.36 1.88 6 6 0 01-1.14 1.83 6.59 6.59 0 01-2 1.47 9.52 9.52 0 01-2.92.85v-.88c1.43-.53 2.15-1.74 2.15-3.62v-.29a2.6 2.6 0 01-2.15-2.69 2.81 2.81 0 01.38-1.4 3 3 0 011.05-1.06 2.91 2.91 0 011.48-.4 3 3 0 012 .65 3.79 3.79 0 011.19 1.64 5.69 5.69 0 01.32 2.02zM306.83 24a5.21 5.21 0 01-.91 3.08 5.72 5.72 0 01-2.54 2 9.44 9.44 0 01-3.73.69c-.39 0-.87 0-1.44-.08a17.2 17.2 0 01-2.27-.41 18.77 18.77 0 01-2.95-1v-4.64a20.73 20.73 0 002.83 1.47 7.36 7.36 0 003 .59 2.59 2.59 0 001.89-.48 1.45 1.45 0 00.44-.91 1.58 1.58 0 00-.74-1.3 10.61 10.61 0 00-2.15-1.08 17.33 17.33 0 01-2.73-1.43 6.34 6.34 0 01-1.92-1.94 4.93 4.93 0 01-.75-2.74 5 5 0 013.05-4.75 8.74 8.74 0 013.77-.74 13.37 13.37 0 012.93.31 13.9 13.9 0 012.23.69 10.7 10.7 0 011.2.6v4.45a14.73 14.73 0 00-2.59-1.49 7.19 7.19 0 00-3.06-.66 2.36 2.36 0 00-1.54.41 1.27 1.27 0 00-.48 1 1.23 1.23 0 00.48 1 8.06 8.06 0 001.71 1 33.1 33.1 0 013.5 1.85 6.71 6.71 0 012.05 1.89 4.57 4.57 0 01.72 2.62zm28.88-3.59a9.11 9.11 0 01-1.06 4.68 10.1 10.1 0 01-2.5 2.85 9 9 0 01-5.7 1.6h-10.22V10.59h7.87a21.71 21.71 0 013 .19 12.57 12.57 0 012.28.52 8.69 8.69 0 011.72.75 8.4 8.4 0 011.27.9 8.5 8.5 0 011.71 1.87 9.45 9.45 0 011.16 2.5 10.88 10.88 0 01.47 3.09zm-5.81-.25a6.38 6.38 0 00-.88-3.6 4.35 4.35 0 00-2.12-1.73 7.61 7.61 0 00-2.53-.44h-2.43v11.23h2.43a7 7 0 003.89-1.07q1.64-1.06 1.64-4.39zm28.74 9.38h-5.85l-1.54-3.84H343l-1.57 3.84h-5.86L344 10.59h6.32zm-8.7-7.13l-2.78-6.92-2.8 6.92zm28.3-11.82l-7.42 10.27v8.68h-5.71V21l-7.57-10.38h5.94l4.35 6 4.36-6zM392.63 24a5.28 5.28 0 01-.9 3.08 5.78 5.78 0 01-2.54 2 9.51 9.51 0 01-3.73.69c-.39 0-.88 0-1.45-.08a17.4 17.4 0 01-2.26-.41 18.43 18.43 0 01-2.95-1v-4.64a21.23 21.23 0 002.82 1.47 7.44 7.44 0 003 .59 2.62 2.62 0 001.89-.48 1.43 1.43 0 00.43-.91 1.58 1.58 0 00-.74-1.3 10.49 10.49 0 00-2.2-1.08 17.46 17.46 0 01-2.74-1.43 6.57 6.57 0 01-1.92-1.94 4.93 4.93 0 01-.75-2.74 5.24 5.24 0 01.76-2.77 5.16 5.16 0 012.29-2 8.75 8.75 0 013.78-.74 13.47 13.47 0 015.15 1 9.86 9.86 0 011.2.6v4.45a14.38 14.38 0 00-2.59-1.49 7.18 7.18 0 00-3.05-.66 2.4 2.4 0 00-1.55.41 1.27 1.27 0 00-.48 1 1.23 1.23 0 00.48 1 8.06 8.06 0 001.71 1 32.13 32.13 0 013.5 1.85 6.75 6.75 0 012.06 1.89 4.56 4.56 0 01.78 2.64z"/><rect class="cls-3" y="120" width="580" height="40" rx="5"/><path class="cls-2" d="M212.47 136.55a6 6 0 01-.36 2.06 5.46 5.46 0 01-1.17 1.88 6 6 0 01-2.18 1.4 8.87 8.87 0 01-3.24.54h-3.74v7.11h-5.72v-18.95h9.46a8.86 8.86 0 013.24.55 6 6 0 012.18 1.42 5.54 5.54 0 011.17 1.9 6.29 6.29 0 01.36 2.09zm-5.82 0a2 2 0 00-.8-1.85 5.89 5.89 0 00-2.87-.5h-1.2v4.57H203a10.15 10.15 0 002.19-.18 1.76 1.76 0 001.1-.66 2.34 2.34 0 00.36-1.35zm27.35 4.5a8.69 8.69 0 01-.91 4.15 7.22 7.22 0 01-2.4 2.72 10.5 10.5 0 01-3.23 1.43 14.07 14.07 0 01-3.45.44 13.57 13.57 0 01-4.68-.82 8.35 8.35 0 01-3.81-2.79 8.11 8.11 0 01-1.53-5.13v-10.46h5.7v9a7.64 7.64 0 00.54 3.09 3.69 3.69 0 001.5 1.79 4.78 4.78 0 004.51 0 3.68 3.68 0 001.51-1.78 7.64 7.64 0 00.54-3.09v-9H234zm20.38 3.12a4.93 4.93 0 01-1.68 3.91 6.85 6.85 0 01-4.68 1.46h-11v-18.95h9.16a12.37 12.37 0 013.1.35 6.13 6.13 0 012.12.93 3.8 3.8 0 011.6 3.17 4.56 4.56 0 01-.41 1.92 4.49 4.49 0 01-1 1.45 3.77 3.77 0 01-1.22.8 7.5 7.5 0 013 1.93 4.44 4.44 0 011.01 3.03zm-6.67-8.12a1.84 1.84 0 00-.91-1.82 6.62 6.62 0 00-2.81-.45h-1.21v4.54H244a6.54 6.54 0 002.83-.45 1.85 1.85 0 00.88-1.82zm.92 7.89c0-1.62-1.17-2.44-3.52-2.44h-2.33v4.86h2.33c2.35 0 3.52-.81 3.52-2.42zm22.37 5.6h-14.4v-18.95h5.72V145H271zm7.7 0H273v-18.95h5.71zm20.35-1.42a13.8 13.8 0 01-2.4 1 15.42 15.42 0 01-2.48.52 19.9 19.9 0 01-2.59.16 13.62 13.62 0 01-4.44-.68 9.74 9.74 0 01-3.41-2 8.6 8.6 0 01-2.16-3.12 10.56 10.56 0 01-.71-3.92 10.18 10.18 0 01.84-4.28 8.29 8.29 0 012.38-3.06 10.15 10.15 0 013.47-1.8 14.58 14.58 0 014.11-.58 22.28 22.28 0 017.31 1.44v5a20.7 20.7 0 00-2.78-1.46 8.39 8.39 0 00-3.23-.58 7.26 7.26 0 00-3.09.66 5.69 5.69 0 00-2.31 1.87 4.71 4.71 0 00-.88 2.85 4.81 4.81 0 00.77 2.63 5.43 5.43 0 002.12 1.9 6.58 6.58 0 003.07.7 10 10 0 002.61-.33 11.87 11.87 0 002.07-.75 16.13 16.13 0 001.73-1zm28.84-7.71a9 9 0 01-1.06 4.68 10.23 10.23 0 01-2.49 2.85 9 9 0 01-5.71 1.6h-10.22v-18.95h7.87a22 22 0 013.05.19 12.45 12.45 0 012.27.52 8.44 8.44 0 011.72.75 9.05 9.05 0 011.28.9 8.72 8.72 0 011.7 1.87 9.14 9.14 0 011.16 2.5 10.54 10.54 0 01.43 3.09zm-5.81-.25a6.3 6.3 0 00-.88-3.6 4.35 4.35 0 00-2.12-1.73 7.6 7.6 0 00-2.52-.44h-2.44v11.23h2.44a7 7 0 003.88-1.07q1.63-1.06 1.64-4.39zm28.75 9.38H345l-1.54-3.84h-8.26l-1.57 3.84h-5.85l8.38-18.95h6.31zm-8.71-7.13l-2.78-6.92-2.8 6.92zm28.31-11.82L363 140.86v8.68h-5.71V141l-7.56-10.38h5.93l4.35 6 4.36-6zM384.82 144a5.28 5.28 0 01-.91 3.08 5.72 5.72 0 01-2.54 2 9.47 9.47 0 01-3.73.69c-.39 0-.87 0-1.44-.08a17.2 17.2 0 01-2.27-.41 18.43 18.43 0 01-2.95-1v-4.65a21.23 21.23 0 002.82 1.47 7.44 7.44 0 003 .59 2.62 2.62 0 001.89-.48 1.43 1.43 0 00.43-.91 1.56 1.56 0 00-.74-1.3 10.22 10.22 0 00-2.14-1.08 17.91 17.91 0 01-2.74-1.43 6.57 6.57 0 01-1.92-1.94 5 5 0 01-.74-2.74 5 5 0 013.05-4.75 8.71 8.71 0 013.77-.74 13.47 13.47 0 015.15 1 10.22 10.22 0 011.21.6v4.45a15.1 15.1 0 00-2.59-1.49 7.22 7.22 0 00-3.06-.66 2.35 2.35 0 00-1.54.41 1.27 1.27 0 00-.48 1 1.23 1.23 0 00.48 1 7.67 7.67 0 001.7 1 32.13 32.13 0 013.5 1.85 6.64 6.64 0 012.06 1.89 4.57 4.57 0 01.73 2.63z"/><path class="cls-1" d="M48.56 88.35a33.4 33.4 0 01-.7 7.41 9.1 9.1 0 01-3.12 5.08c-1.63 1.36-4 2-7.25 2a19.28 19.28 0 01-3.54-.33l-1.49-7.88a27.64 27.64 0 003-.21 4 4 0 001.91-.74 3.22 3.22 0 001-1.79 34.92 34.92 0 00.23-5.4V59.7h9.87zm32.17 4.06h-8.5V89a12.93 12.93 0 01-3.78 2.9 10.86 10.86 0 01-4.74 1q-5.43 0-7-3.17a15.69 15.69 0 01-1.6-7.17V68.38h8.5v13a8.38 8.38 0 00.65 3.44c.43 1 1.38 1.47 2.83 1.47a4.07 4.07 0 003-1.06 18.46 18.46 0 002.22-2.72V68.38h8.5zm31.1 0h-8.5v-13a8.61 8.61 0 00-.64-3.46c-.44-1-1.38-1.47-2.85-1.47a4.1 4.1 0 00-1.83.39 5.39 5.39 0 00-1.41 1 9.81 9.81 0 00-1 1.18c-.29.38-.58.78-.88 1.2v14.16h-8.54v-24h8.49v3.45a12.2 12.2 0 014-3 11.2 11.2 0 014.49-.86q8.64 0 8.64 10.33zm29.74-9.96h-16.92a5.89 5.89 0 002.43 3.55 7.32 7.32 0 004.39 1.4A22.87 22.87 0 00141 85v5.26a25.72 25.72 0 01-4.57 1.74 24 24 0 01-6.76.79 16 16 0 01-7.55-1.65 11 11 0 01-4.66-4.49 13.13 13.13 0 01-1.55-6.41 12.89 12.89 0 011.55-6.34 10.67 10.67 0 014.66-4.39 16.45 16.45 0 017.55-1.51 13.3 13.3 0 015.65 1.26 10.33 10.33 0 014.49 4.13 14 14 0 011.76 7.4zm-8-4.2a5.62 5.62 0 00-1.14-3.7 4.06 4.06 0 00-3.3-1.38 4.46 4.46 0 00-3.43 1.41 5.17 5.17 0 00-1.31 3.67zm56.35 4.95a10.34 10.34 0 01-.58 3.18 10.45 10.45 0 01-2.2 3.61 12.29 12.29 0 01-4.7 3.06 21.38 21.38 0 01-7.84 1.23 21.63 21.63 0 01-7.9-1.22A12.4 12.4 0 01162 90a9.78 9.78 0 01-2.17-3.57 11.27 11.27 0 01-.51-3.22 10.16 10.16 0 011.7-5.6 11.43 11.43 0 014.62-4.08 12.13 12.13 0 01-3.68-3.44 8.74 8.74 0 01-1.3-5 10.16 10.16 0 01.72-3.6 11.27 11.27 0 012.35-3.65A11.55 11.55 0 01168 55a17.93 17.93 0 016.6-1 18.34 18.34 0 016.71 1 11.81 11.81 0 014.33 2.8 10.27 10.27 0 012.3 3.61 11.23 11.23 0 01.65 3.66 8.73 8.73 0 01-1.26 5 12.79 12.79 0 01-3.73 3.44 12.07 12.07 0 013.33 2.49 11.26 11.26 0 012.18 3.35 9.75 9.75 0 01.81 3.85zm-10.08-1A5.92 5.92 0 00179 79a5.33 5.33 0 00-2-2 4.88 4.88 0 00-6 .9 5.57 5.57 0 00-1.61 4.22 5.65 5.65 0 001.61 4.4 5.22 5.22 0 003.65 1.5 4.86 4.86 0 003.64-1.62 5.87 5.87 0 001.55-4.24zm-1.16-16.29a7.47 7.47 0 00-.92-3.57 3.21 3.21 0 00-3-1.7 3.45 3.45 0 00-3.17 1.63 6.88 6.88 0 00-1 3.64 5.61 5.61 0 001.23 3.75 3.47 3.47 0 005.66 0 5.56 5.56 0 001.2-3.79zm39.16 26.19a23.89 23.89 0 01-4.37 1.47 21.81 21.81 0 01-5.34.71q-11 0-11-10.76V72h-4.63v-1.77l13.67-13.93h1.17v8.64h9.74V72h-9.74v9.23a14.16 14.16 0 00.19 2.61 2.68 2.68 0 001.12 1.65 4.75 4.75 0 002.79.67 15 15 0 006.4-2zm35.26 1.67h-10.19V77.78a8.32 8.32 0 00-.87-3.79 3.41 3.41 0 00-3.35-1.73 5 5 0 00-3.39 1.29 16.88 16.88 0 00-2.81 3.24v16.98h-10.17V54.52h10.19v14.55a14.4 14.4 0 015-3.67 14.1 14.1 0 015.24-1q10.37 0 10.36 11.64zm27.81 9.93h-4.49c-.87-.68-1.75-1.45-2.64-2.3a25.29 25.29 0 01-2.78-3.28 19.12 19.12 0 01-2.43-4.63 16.42 16.42 0 01-1-5.73 16.24 16.24 0 011.57-7.22 21.22 21.22 0 013.35-5.16 46.59 46.59 0 013.92-3.73h4.49a45.29 45.29 0 00-3.28 4 19.78 19.78 0 00-2.49 5 23 23 0 000 14.19 19.72 19.72 0 002.45 4.92 47.47 47.47 0 003.33 3.94z"/><path class="cls-1" d="M295.28 94.52a14.54 14.54 0 01-2.62.89 13.24 13.24 0 01-3.21.42q-6.6 0-6.61-6.45v-6.9h-2.77v-1.07l8.21-8.36h.7v5.18h5.84v4.25H289V88a8.23 8.23 0 00.12 1.56 1.55 1.55 0 00.67 1 2.82 2.82 0 001.67.4 9.15 9.15 0 003.84-1.22zm21.16 1.01h-6.12v-9a1.27 1.27 0 010-.2v-.4a5 5 0 00-.53-2.28 2 2 0 00-2-1 2.94 2.94 0 00-2 .77 10 10 0 00-1.69 2v10.11H298V72h6.11v8.73a7.77 7.77 0 016.14-2.79q6.21 0 6.22 7zm21.88 0h-6.12v-2.47a9 9 0 01-2.71 2.08 7.78 7.78 0 01-3.42.69q-3.92 0-5.07-2.28a11.31 11.31 0 01-1.15-5.16V78.23H326v9.34a6 6 0 00.47 2.48 2 2 0 002 1.06 2.91 2.91 0 002.13-.77 12.46 12.46 0 001.6-2V78.23h6.12zm14.09-7.94a16.58 16.58 0 01-1 5.73A20 20 0 01349 98a24.1 24.1 0 01-2.81 3.35 34.76 34.76 0 01-2.63 2.33h-4.5a41.8 41.8 0 003.29-3.93 20.29 20.29 0 002.49-5 23.1 23.1 0 000-14.18 19.14 19.14 0 00-2.45-4.91 48.05 48.05 0 00-3.34-4h4.5a33.17 33.17 0 013.72 3.42 21 21 0 013.53 5.31 16.26 16.26 0 011.61 7.2zm16.65 3.46a11 11 0 01-.75 3.89A12 12 0 01366 98.7a13.7 13.7 0 01-4.19 3 20 20 0 01-6.08 1.77v-1.78q4.45-1.71 4.45-7.54v-.55q-4.46-1.27-4.45-5.58a5.73 5.73 0 01.78-2.89 6 6 0 012.18-2.2 6 6 0 013.07-.83 6.19 6.19 0 014.05 1.33 8 8 0 012.45 3.4 11.46 11.46 0 01.8 4.22zm34.66-21.52a22.3 22.3 0 01-1.92 8.89 33.12 33.12 0 01-5.48 8.52 46 46 0 01-8.26 7.39l-9.68-3.17a54 54 0 0010-10.62 10.11 10.11 0 01-2.61.29 12.92 12.92 0 01-6.34-1.59 11.94 11.94 0 01-4.62-4.52 12.84 12.84 0 01-1.73-6.64 13.51 13.51 0 011.05-5.24 14.07 14.07 0 013.09-4.56 14.42 14.42 0 014.78-3.17 16.38 16.38 0 016.18-1.11 16.87 16.87 0 016.71 1.27 13.41 13.41 0 014.91 3.49 15 15 0 012.93 5 17.11 17.11 0 01.99 5.77zm-10.22-1.28a5.55 5.55 0 00-1.42-3.89 4.64 4.64 0 00-3.62-1.57 4.79 4.79 0 00-3 .89 5.18 5.18 0 00-1.7 2.15 6.29 6.29 0 00-.52 2.42 4.94 4.94 0 001.51 4 5.28 5.28 0 003.53 1.29 4.8 4.8 0 004.71-3 5.81 5.81 0 00.51-2.29zm38.15 23.85a24 24 0 01-4.38 1.47 21.81 21.81 0 01-5.34.71q-11 0-11-10.76V72h-4.63v-1.77L420 56.3h1.16v8.64h9.74V72h-9.74v9.23a14 14 0 00.2 2.61 2.6 2.6 0 001.12 1.65 4.7 4.7 0 002.79.67 15.12 15.12 0 006.4-2zm35.26 1.67h-10.2V77.78a8.2 8.2 0 00-.88-3.79 3.39 3.39 0 00-3.34-1.73 5 5 0 00-3.4 1.29 17.21 17.21 0 00-2.8 3.24v16.98h-10.2V54.52h10.2v14.55a14.46 14.46 0 015-3.67 14.1 14.1 0 015.24-1q10.36 0 10.37 11.64zm27.8 9.93h-4.48a33.69 33.69 0 01-2.65-2.3 25.29 25.29 0 01-2.78-3.28 19.12 19.12 0 01-2.43-4.63 17.38 17.38 0 01.63-12.95 20.94 20.94 0 013.36-5.16 45.11 45.11 0 013.92-3.73h4.48a47.16 47.16 0 00-3.28 4 19.78 19.78 0 00-2.49 5 23.23 23.23 0 000 14.19 19.37 19.37 0 002.46 4.92 47.19 47.19 0 003.26 3.94z"/><path class="cls-1" d="M507 76.36a10.17 10.17 0 00-2.26-.32 1.92 1.92 0 00-1.54.64 2.75 2.75 0 00-.55 1.84v.61h3.09v4.15h-3.09v12.25h-6.13V83.28h-2.82v-4.15h2.82v-.31a8.53 8.53 0 01.7-3.44 6 6 0 012.35-2.67 7.92 7.92 0 014.43-1.06 14.73 14.73 0 013 .35zm16.5 2.8l-2.26 6.14a4.11 4.11 0 00-2.83-1.3 3.14 3.14 0 00-2.23.88 8.52 8.52 0 00-1.81 3.23v7.45h-6.12V78.23h6.12v4.18a8.77 8.77 0 012-3 4.68 4.68 0 013.43-1.47 4.76 4.76 0 011.81.31 13.28 13.28 0 011.89.91zm8.39 16.37h-6.13v-17.3h6.13zm-.49-21.29a2.43 2.43 0 01-.77 1.81 2.61 2.61 0 01-3.12.41 2.39 2.39 0 01-.92-.92 2.55 2.55 0 01-.34-1.3 2.5 2.5 0 01.75-1.82 2.43 2.43 0 011.81-.77 2.63 2.63 0 012.59 2.59zm14.87 13.35a16.58 16.58 0 01-1 5.73 20 20 0 01-2.42 4.7 24.11 24.11 0 01-2.82 3.35 34.72 34.72 0 01-2.62 2.33h-4.5a41.61 41.61 0 003.28-3.93 19.94 19.94 0 002.5-5 23.1 23.1 0 000-14.18 19.47 19.47 0 00-2.45-4.91 50.1 50.1 0 00-3.34-4h4.5a33.17 33.17 0 013.72 3.42 21 21 0 013.53 5.31 16.26 16.26 0 011.62 7.18z"/><path class="cls-3" d="M16.1 208.35a34 34 0 01-.7 7.41 9.11 9.11 0 01-3.13 5.08q-2.43 2-7.24 2a19.28 19.28 0 01-3.54-.33L0 214.67a27.43 27.43 0 003-.21 4 4 0 002-.74 3.21 3.21 0 001-1.79 33 33 0 00.24-5.4V179.7h9.86zm32.16 4.06h-8.49V209a12.93 12.93 0 01-3.78 2.9 10.92 10.92 0 01-4.74 1c-3.63 0-6-1.06-7-3.17a15.69 15.69 0 01-1.6-7.17v-14.18h8.45v13a8.38 8.38 0 00.66 3.44 2.74 2.74 0 002.82 1.47 4 4 0 003-1.06 17.85 17.85 0 002.23-2.72v-14.13h8.49zm31.11 0h-8.5v-13a8.61 8.61 0 00-.65-3.46c-.43-1-1.38-1.47-2.84-1.47a4.1 4.1 0 00-1.83.39 5.44 5.44 0 00-1.42 1 11.92 11.92 0 00-1 1.18l-.87 1.2v14.12h-8.5v-24h8.5v3.45a12.27 12.27 0 014-3 11.28 11.28 0 014.5-.86q8.64 0 8.64 10.33zm29.73-9.96H92.18a5.89 5.89 0 002.43 3.55 7.34 7.34 0 004.39 1.4 22.88 22.88 0 009.49-2.41v5.26A25.72 25.72 0 01104 212a24 24 0 01-6.76.79 15.92 15.92 0 01-7.55-1.65 11 11 0 01-4.69-4.45 13.13 13.13 0 01-1.55-6.41 12.89 12.89 0 011.55-6.34 10.67 10.67 0 014.66-4.39 16.42 16.42 0 017.55-1.55 13.33 13.33 0 015.65 1.26 10.38 10.38 0 014.49 4.13 14 14 0 011.75 7.4zm-8-4.2a5.57 5.57 0 00-1.15-3.7 4 4 0 00-3.29-1.38 4.45 4.45 0 00-3.43 1.41 5.13 5.13 0 00-1.23 3.67zm46.39 15.52h-10.74v-39.25h10.74zm38.63-19.6a29.8 29.8 0 01-1.22 9 17.45 17.45 0 01-3.35 6.3 13.89 13.89 0 01-4.89 3.65 14.72 14.72 0 01-11.69 0 13.59 13.59 0 01-4.88-3.66 18.06 18.06 0 01-3.35-6.29 33.29 33.29 0 010-17.93 18.24 18.24 0 013.34-6.31 13.37 13.37 0 014.87-3.7 14.51 14.51 0 015.85-1.2 14.37 14.37 0 015.85 1.19 13.48 13.48 0 014.88 3.69 17.79 17.79 0 013.37 6.36 29.8 29.8 0 011.22 8.9zm-11.19 0a42.7 42.7 0 00-.7-8.55q-.72-3.35-3.43-3.34a2.94 2.94 0 00-2.76 1.86 11.94 11.94 0 00-1.13 4.31c-.15 1.62-.22 3.53-.22 5.72a41.36 41.36 0 00.7 8.68q.69 3.1 3.41 3.1t3.44-3.1a42.18 42.18 0 00.69-8.68zM214 212.1a23.62 23.62 0 01-4.37 1.47 21.81 21.81 0 01-5.34.71q-11 0-11-10.76V192h-4.59v-1.79l13.68-13.93h1.16v8.64h9.74V192h-9.74v9.23a13.22 13.22 0 00.2 2.61 2.6 2.6 0 001.12 1.65 4.69 4.69 0 002.78.67 15 15 0 006.4-2zm35.3 1.67h-10.19v-15.99a8.32 8.32 0 00-.88-3.79 3.4 3.4 0 00-3.34-1.73 5 5 0 00-3.4 1.29 17.24 17.24 0 00-2.81 3.24v16.94h-10.16v-39.21h10.19v14.55a14.58 14.58 0 015-3.67 14.1 14.1 0 015.24-1q10.37 0 10.36 11.64zm27.81 9.93h-4.49c-.87-.68-1.75-1.45-2.64-2.3a25.29 25.29 0 01-2.79-3.28 19.47 19.47 0 01-2.43-4.63 17.45 17.45 0 01.59-13 20.94 20.94 0 013.36-5.16 46.44 46.44 0 013.91-3.73h4.49a47.16 47.16 0 00-3.28 4 19.78 19.78 0 00-2.49 5 23.23 23.23 0 000 14.19 19.72 19.72 0 002.45 4.92 47.47 47.47 0 003.32 3.99zm14.25-13.22a4.86 4.86 0 01-1.74 3.87 7.78 7.78 0 01-5.17 1.48 14.75 14.75 0 01-3.42-.35 28.36 28.36 0 01-3.26-1v-4.35a21.47 21.47 0 002.69 1.34 6.49 6.49 0 002.49.46c1.53 0 2.3-.42 2.3-1.26a1 1 0 00-.33-.75 4.82 4.82 0 00-1.16-.75c-.55-.28-1.28-.61-2.2-1a8.81 8.81 0 01-2.89-2 4.31 4.31 0 01-1.19-3.07 4.5 4.5 0 01.79-2.49 5.67 5.67 0 012.39-1.94 9 9 0 013.86-.76c.36 0 .82 0 1.38.08a13.86 13.86 0 012.13.4 11 11 0 012.43.92v4.23l-.91-.55a9.49 9.49 0 00-1-.49 9.32 9.32 0 00-1.44-.48 6.81 6.81 0 00-1.69-.22 2 2 0 00-1.44.41 1.21 1.21 0 00-.39.82 1.07 1.07 0 00.4.79 7.31 7.31 0 001.82.91 16.22 16.22 0 013.26 1.6 5.23 5.23 0 011.75 1.81 5 5 0 01.54 2.34zm21.26 4.18c-.89.35-1.72.63-2.48.85a9.93 9.93 0 01-2.73.32 3.21 3.21 0 01-2.11-.53 3 3 0 01-.85-1.3 9.28 9.28 0 01-2.19 1.31 8 8 0 01-3.16.52 6.25 6.25 0 01-3.05-.65 3.83 3.83 0 01-1.64-1.65 4.79 4.79 0 01-.46-2.05 4.25 4.25 0 01.8-2.64 6 6 0 012.17-1.71 27.46 27.46 0 013.6-1.37l1.93-.62 1-.34a5.47 5.47 0 00.68-.3 3.32 3.32 0 00-.51-2c-.34-.48-1.08-.72-2.21-.72a8 8 0 00-3.72.89 13.34 13.34 0 00-3.15 2.27v-4.69A11.74 11.74 0 01297 199a14.91 14.91 0 012.77-.77 16.77 16.77 0 012.92-.26 9.19 9.19 0 015.65 1.46 4.76 4.76 0 011.9 4v6.68a4.47 4.47 0 00.17 1.41.65.65 0 00.66.47 3.8 3.8 0 001.56-.49zm-8.51-3.31v-4.1a17.06 17.06 0 00-3.18 1.59 2.22 2.22 0 00-1 1.91 1.73 1.73 0 00.5 1.33 1.68 1.68 0 001.16.46 2.55 2.55 0 001.25-.35 9.93 9.93 0 001.27-.84zm24.08 3.17a14.69 14.69 0 01-2.63.89 13.1 13.1 0 01-3.2.42q-6.62 0-6.61-6.45v-6.9H313v-1.07l8.21-8.36h.69v5.18h5.85v4.25h-5.85V208a8.23 8.23 0 00.12 1.56 1.55 1.55 0 00.67 1 2.85 2.85 0 001.68.4 9.15 9.15 0 003.84-1.22z"/><path class="cls-3" d="M341 207.59a16.57 16.57 0 01-1 5.73 20 20 0 01-2.43 4.7 24.1 24.1 0 01-2.81 3.35 34.72 34.72 0 01-2.62 2.33h-4.51a40.32 40.32 0 003.29-3.93 20.28 20.28 0 002.5-5 23.3 23.3 0 000-14.18 19.46 19.46 0 00-2.46-4.91 46.16 46.16 0 00-3.34-4h4.51a33.17 33.17 0 013.72 3.42 21 21 0 013.52 5.31 16.26 16.26 0 011.63 7.18zm16.68 3.46a11 11 0 01-.75 3.89 12 12 0 01-2.32 3.76 13.58 13.58 0 01-4.19 3 19.91 19.91 0 01-6.07 1.77v-1.78q4.44-1.71 4.44-7.54v-.59q-4.44-1.28-4.44-5.58a5.82 5.82 0 01.77-2.89 6 6 0 012.18-2.2 6 6 0 013.08-.83 6.23 6.23 0 014.05 1.33 8.13 8.13 0 012.45 3.4 11.45 11.45 0 01.8 4.26zm24.7 2.72h-10.73v-39.25h10.73zm22.87 0h-10.74v-39.25h10.74zm34.99-1.67a24 24 0 01-4.38 1.47 21.81 21.81 0 01-5.34.71q-11 0-11-10.76V192h-4.62v-1.79l13.68-13.93h1.16v8.64h9.74V192h-9.74v9.23a14 14 0 00.2 2.61 2.6 2.6 0 001.12 1.65 4.7 4.7 0 002.79.67 15.12 15.12 0 006.4-2zm35.26 1.67h-10.2v-15.99a8.2 8.2 0 00-.88-3.79 3.39 3.39 0 00-3.34-1.73 5 5 0 00-3.4 1.29 17.21 17.21 0 00-2.8 3.24v16.94h-10.2v-39.21h10.2v14.55a14.46 14.46 0 015-3.67 14.14 14.14 0 015.24-1q10.37 0 10.37 11.64zm27.8 9.93h-4.48a33.69 33.69 0 01-2.65-2.3 25.29 25.29 0 01-2.78-3.28 19.12 19.12 0 01-2.43-4.63 17.38 17.38 0 01.58-13 20.94 20.94 0 013.36-5.16 45.11 45.11 0 013.92-3.73h4.48a47.16 47.16 0 00-3.28 4 19.78 19.78 0 00-2.49 5 23.23 23.23 0 000 14.19 19.37 19.37 0 002.46 4.92 47.19 47.19 0 003.31 3.99zm14.26-13.22a4.86 4.86 0 01-1.74 3.87 7.81 7.81 0 01-5.18 1.48 14.6 14.6 0 01-3.41-.35 27.89 27.89 0 01-3.27-1v-4.35a22.17 22.17 0 002.69 1.34 6.54 6.54 0 002.5.46c1.53 0 2.29-.42 2.29-1.26a1 1 0 00-.33-.75 4.82 4.82 0 00-1.16-.75c-.55-.28-1.28-.61-2.2-1a8.77 8.77 0 01-2.88-2 4.27 4.27 0 01-1.19-3.07 4.42 4.42 0 01.79-2.49 5.64 5.64 0 012.38-1.94 9 9 0 013.86-.76c.36 0 .82 0 1.38.08a13.64 13.64 0 012.13.4 11 11 0 012.44.92v4.23l-.91-.55a9.42 9.42 0 00-1-.49 9.55 9.55 0 00-1.43-.48 6.89 6.89 0 00-1.7-.22 2 2 0 00-1.44.41 1.21 1.21 0 00-.39.82 1.08 1.08 0 00.41.79 6.94 6.94 0 001.82.91 16.77 16.77 0 013.26 1.6 5.29 5.29 0 011.74 1.81 5 5 0 01.54 2.34zm21.53 5.05H533v-2.47a9 9 0 01-2.72 2.08 7.78 7.78 0 01-3.42.69q-3.9 0-5.06-2.28a11.31 11.31 0 01-1.15-5.16v-10.16h6.11v9.34a6.13 6.13 0 00.47 2.48 2 2 0 002 1.06 2.91 2.91 0 002.13-.77 13.7 13.7 0 001.6-2v-10.11h6.12zm22.39 0h-6.11v-9.33a6.18 6.18 0 00-.47-2.49 2 2 0 00-2-1.06 2.91 2.91 0 00-1.32.28 3.63 3.63 0 00-1 .72 6.93 6.93 0 00-.75.85q-.32.41-.63.87v10.16H543v-17.3h6.12v2.48a8.89 8.89 0 012.9-2.17 8.19 8.19 0 013.23-.62q6.22 0 6.22 7.45zm13.83-7.94a16.57 16.57 0 01-1 5.73 19.63 19.63 0 01-2.43 4.7 24.1 24.1 0 01-2.81 3.35 34.72 34.72 0 01-2.62 2.33H562a40.32 40.32 0 003.29-3.93 19.94 19.94 0 002.5-5 23.3 23.3 0 000-14.18 19.46 19.46 0 00-2.46-4.91 46.16 46.16 0 00-3.34-4h4.51a33.17 33.17 0 013.72 3.42 21 21 0 013.53 5.31 16.39 16.39 0 011.56 7.18z"/></g></g></svg>