<svg xmlns="http://www.w3.org/2000/svg" width="629.42" height="56.16"><defs><style>.cls-1{fill:#ff5064}.cls-2{fill:#282828}.cls-3{fill:#00b4dc}</style></defs><g id="レイヤー_2" data-name="レイヤー 2"><g id="レイヤー_1-2" data-name="レイヤー 1"><path class="cls-1" d="M353.64 41.32v4.53h-24.37v-4.53zM367 52.28c1.64-.11 3.59-1.57 4.13-2a15.87 15.87 0 01-2.33-3.26l1.76-1.25h-2.27v-3.54h10.47l1.24 1.41a21.08 21.08 0 01-3.72 6.75 12.58 12.58 0 004.61 2.13 18.51 18.51 0 00-1.89 3.24 24.78 24.78 0 01-5.1-2.92 14.24 14.24 0 01-4.9 2.78 9.82 9.82 0 00-2-3.16v.87c0 2.24-1.54 2.43-4.7 2.45a12.6 12.6 0 00-1.22-3.64 7.35 7.35 0 001.87.27c.91 0 .91-.35.91-1.13v-6.54a5.2 5.2 0 01-.73.09v6.45h-2.24v-6.21a3.19 3.19 0 01-.54 0 33.07 33.07 0 01-1.86 10.42 5.57 5.57 0 00-3.25-1.49c1.16-2.27 1.73-5.94 1.95-8.51a1.07 1.07 0 01-.3.06c-.19.35-.35.56-.57.56a.3.3 0 01-.27-.27l-.62-3.61c.65 0 1.05 0 1.68-.06v-8.68h2.53c.19-.46.62-1.57 1-2.7l4 .38a.28.28 0 01.27.24c0 .24-.49.54-.67.59-.19.41-.46 1.08-.65 1.49H367v6.23a6.44 6.44 0 002-5.07v-3h8.42v5.88c0 .3 0 .52.29.52.49 0 .65-1.54.73-2.38a7.13 7.13 0 003.11 1.41c-.51 3.48-.92 4.15-2.78 4.15h-2.73a2 2 0 01-2.16-2.21V35h-1.27c-.29 2.8-1.21 5.37-3 7a7.08 7.08 0 00-2.61-1.63v1.11c.35-.06.8-.08 1-.11-.06.57-.11 2.3-.14 3h-.83zm-6.65-14.69l2.6-.48a35.16 35.16 0 01.91 3.64v-4h-3.51zm0 4.37c.9-.05 2.6-.16 3.51-.24v-.81a17.07 17.07 0 00-2.72.54 17.69 17.69 0 00-.79-3.29zm11.91 3.86a9.88 9.88 0 001.35 2.11 9.5 9.5 0 001.29-2.11zm21.32-11.22a.43.43 0 01.22.35c0 .21-.19.27-.33.32s-.35.08-.48.14a27.46 27.46 0 01-7.37 9.59 9.12 9.12 0 00-3.32-2.76 20.07 20.07 0 007.47-9.52zm6 8.74a63 63 0 017.05 10.31 10.2 10.2 0 00-3.78 2.22 25.47 25.47 0 00-1.16-2.38c-6 .86-12.26 1.35-15 1.54 0 .19-.08.73-.48.73s-.38-.19-.46-.6l-.92-3.94c1.32 0 1.94 0 2.92-.08a89.62 89.62 0 005-12.44l4.16 1.4c.13.06.37.14.37.41s-.54.4-.81.43c-.54 1.35-2.32 5.88-4.45 10 .68 0 4.91-.38 7.75-.73-1.54-2.29-2.41-3.4-3.35-4.59zm2.05-11.55c.76 4.83 3.05 7.26 7.05 10a7.15 7.15 0 00-2.78 2.89 19.12 19.12 0 01-7.64-9.45h-4v-3.44zM427 49.33v5.81h-3.4v-5.81h-2a10.21 10.21 0 01-4.13 6.37 7.93 7.93 0 00-3-2v1.94h-3.86v-24h11.29V41h-7.45v12.68c1.89-1 3.19-2.08 3.73-4.35h-2.78v-3h3.13v-1.6h-2.49v-2.82h13.09v2.83H427v1.6h2.7v3zm-8.74-15h-3.84v1h3.84zm0 3.05h-3.84v1h3.84zm5.31 7.39h-1.67c0 .33 0 1.35-.05 1.6h1.72zm5.78 11a9.43 9.43 0 00-1.35-3.95 8.08 8.08 0 001.56.21c.52 0 1.08 0 1.08-.94V41h-7.5v-9.37h11.36v21c-.05 2.51-1.58 3.15-5.12 3.13zm1.21-21.46h-3.88v1h3.88zm0 3.05h-3.88v1h3.88zm26.06.45c-.27-.57-.81-1.81-3.26-1.81-4.19 0-4.46 3.62-4.62 5.69.95-.86 2.19-2 5.7-2 4.51 0 7.56 2.59 7.56 6.85 0 4-2.73 7.8-8.61 7.8a9.38 9.38 0 01-5-1.32c-3.8-2.29-4.37-6.67-4.37-9.91 0-10.58 7.53-11.22 9.4-11.22 2.42 0 7.47 1.1 8.36 5.91zm.52 9c0-2.24-1.95-3.37-4-3.37s-4 1.16-4 3.37c0 1.75 1.3 3.54 4 3.54s4-1.83 4-3.58zm9.34 6.95l9-21.27h3.4l-9 21.27zm21.87 0V39.94h-4.61V36.4c2.72-.08 4.66-.54 5.66-3.91h4v21.27zm28.13-10.28c0 2.59-.62 10.87-9 10.87a8.16 8.16 0 01-7.12-3.48c-1.41-2-1.89-5.75-1.89-8.1 0-2.59.62-10.87 9-10.87 7.9 0 9.01 7.18 9.01 11.58zm-13-.36c0 .9 0 7.16 4 7.16s4-6.24 4-7.16 0-7.15-4-7.15-3.98 6.18-3.98 7.15zm42.43.38a12 12 0 11-12-12 12 12 0 0112 12zm14.26 0a3.3 3.3 0 11-3.3-3.29 3.32 3.32 0 013.3 3.29zm11.69 10.26V39.94h-4.61V36.4c2.72-.08 4.67-.54 5.66-3.91h4v21.27zm17.79 0V39.94H585V36.4c2.72-.08 4.67-.54 5.67-3.91h4v21.27zm39.77-10.26a12 12 0 11-12-12 12 12 0 0112 12z"/><path class="cls-2" d="M541.64 39.47V42h-6v6h6.88v2.43h-16.61v-2.5h6.78V42h-5.92v-2.53h5.92v-5.15l3 .14a.26.26 0 01.29.22c0 .12-.23.3-.36.39v4.4zM614 49.68v1h-2.82V36h12.91v14.67h-2.83v-1zm7.26-8.19v-3H614v3zm0 5.62v-3.19H614v3.19z"/><path class="cls-3" d="M18.92 36l1.41.21c.62.11.86.14.86.44s-.35.35-.65.37c-.11.27-.3.65-.62 1.3h5.24v13.77c0 2.67-.62 3.8-5 3.8a6.87 6.87 0 000-.7 4.76 4.76 0 00-1-2.89v1.62h-7.77v.65H7.85v-6.29l-.27.14a5.18 5.18 0 00-1.88-1.79v9.29H1.78v-17.6h5.64a9.86 9.86 0 00-1-2L8.29 36h-7v-3.24h10.2v-1.92l4.08.19c.27 0 .51.08.51.35s-.27.38-.51.49v.89h10.24V36zM5.7 41.78v3.8a6 6 0 002.86-3.8zm15.71 2.94a2.57 2.57 0 01-2.49 1.54h-3.45c-1.6 0-2.11-.57-2.11-1.84v-2.64h-2.75l1.43.45c.19.06.57.19.57.44s0 .29-.73.45a9.71 9.71 0 01-2.46 4h9.8v5c.54.06 1 .14 1.29.14.84 0 .9-.27.9-.89zM10.61 36a14.15 14.15 0 011.19 2.08l-1 .24h4.73a16.64 16.64 0 001.1-2.32zm5.05 13.87h-4.27v1.27h4.27zm1.1-8.09v.86c0 .35 0 .59.54.59h.81c.51 0 .6-.46.81-1.45zm4.65 0H19a7.66 7.66 0 002.46 1.29zM41.9 32.9c.27 0 .4.1.4.26s-.24.33-.64.49a25 25 0 01-.92 4.45 9.33 9.33 0 00-3.46-.64v.7h-9.07v-2.67h9.07v1.89a24.69 24.69 0 001-5zm-4.83 22.56h-3.19v-.94h-1.56v1.32h-3.38v-9.69h8.13v2.75a13.22 13.22 0 001.64-4.72l3.46.73c.19 0 .49.16.49.37 0 .41-.54.52-.79.54a22.32 22.32 0 01-1.4 4.46 8.6 8.6 0 00-3.4-1.05v3.4c5.77-1.78 5.72-5.35 5.64-10.29l3.91.22c.14 0 .41 0 .41.32s-.19.3-.73.46v2a8 8 0 002.35 4.34 15.13 15.13 0 004.16 2.92 7.67 7.67 0 00-2.4 3A13 13 0 0145 50.71a11 11 0 01-5.89 5.1 8.07 8.07 0 00-2-2.62zM36.34 32v2.62h-6.8V32zm0 7.13v2.61h-6.8v-2.66zm0 3.53v2.62h-6.8v-2.67zm-2.46 8.83v-2.4h-1.56v2.35zm12.53-20.3c.32 0 .54.05.54.3s-.43.43-.76.51c0 .4-.11 2.24-.11 2.62a6.17 6.17 0 002 3.75A16.62 16.62 0 0053 41.1a9.56 9.56 0 00-2.44 2.9 15.21 15.21 0 01-5.93-4.38A12 12 0 0139 44a10.33 10.33 0 00-2.13-2.89c4.64-1.51 5.72-3.8 5.72-8.09 0-.79 0-1.25-.06-2zm5.83 2.54a.43.43 0 01.27.38c0 .13-.08.32-.38.32a3.23 3.23 0 01-.49-.05 17.83 17.83 0 01-2.45 3.29 11.17 11.17 0 00-2.86-2.13 14.62 14.62 0 002.59-3.59zm-.33 11.47c.27.14.41.25.41.46s-.43.46-.81.49a16.78 16.78 0 01-1.78 2.94 10.69 10.69 0 00-2.86-1.92 17.66 17.66 0 001.89-3.45zm20.28 5.7c0 .54.19 1 1.08 1h2c.73 0 .89-.3 1-.65s.46-1.78.63-2.53a8.14 8.14 0 003.53 1.78 12.27 12.27 0 01-1.21 3.94 2.82 2.82 0 01-2.43 1.19h-5c-2.1 0-3.72-.71-3.72-3.41V47h-2.92l1.32.35c.16.06.46.14.46.46 0 .51-.57.54-1.05.57a13.55 13.55 0 01-8.32 7.77A11 11 0 0054.35 53c1.7-.38 6.64-1.48 7.72-5.94h-4V31.55h18.55V47h-4.43zm.27-15V35h-10v.94zm-10 2.73v1h10v-1zm0 3.81v1.08h10v-1.04zm19.73-3.34v-3.56h10.25V31l3.89.24c.68.05.76.24.76.38s-.11.29-.57.59v3.32h10.29v3.57h-8.7a25.49 25.49 0 009.45 10.42c-1.78 1.43-2.32 1.95-2.94 3.11a31.2 31.2 0 01-4.1-3.84V52h-4v3.8h-4.08V52h-4v-3.23a32.74 32.74 0 01-4.13 3.86c-.62-1.19-1.18-1.7-2.94-3.11A24.88 24.88 0 0090.8 39.1zm10.25 4.11a30.22 30.22 0 01-3.64 5.12h3.64zm7.7 5.12a29.71 29.71 0 01-3.62-5.07v5.07zm23.38-8.9h8.31v11.09c0 1.13 0 2.11-.94 2.78s-2.29.81-4.62.81A9 9 0 00125 50a11.07 11.07 0 001.68.17c.86 0 1-.19 1-1v-5.94h-4.21v12.55h-4.08V43.23h-4.13v10.61h-4.12V39.43h8.25v-2h-10.2v-3.7h10.25V31l4.3.16c.16 0 .4.08.4.32s-.35.46-.62.51v1.73h10.29v3.68h-10c.16.06.32.16.32.33s-.38.43-.62.51zm32.1-1.62c-.27-.57-.81-1.81-3.26-1.81-4.19 0-4.46 3.62-4.62 5.69.95-.86 2.19-2 5.7-2 4.51 0 7.56 2.59 7.56 6.85 0 4-2.73 7.8-8.61 7.8a9.38 9.38 0 01-5-1.32c-3.8-2.29-4.37-6.67-4.37-9.91 0-10.58 7.53-11.22 9.4-11.22 2.42 0 7.47 1.1 8.36 5.91zm.52 9c0-2.24-1.95-3.37-4-3.37s-4 1.16-4 3.37c0 1.75 1.3 3.54 4 3.54s4-1.83 4-3.58zm9.34 6.95l9-21.27h3.4l-9 21.27zm32.21-5.99a6 6 0 01-2.43 4.94c-2.11 1.48-5.13 1.64-6.56 1.64-1.67 0-4.53-.21-6.56-1.64a6 6 0 01-2.46-4.94 5.36 5.36 0 014-5.29 5 5 0 01-3.34-4.75 5.39 5.39 0 012.35-4.38c1.56-1.16 4.37-1.45 6.07-1.45 7.58 0 8.18 4.56 8.18 5.83a5 5 0 01-3.35 4.75 5.36 5.36 0 014.1 5.29zm-13-.57c0 2.3 2.16 3.08 4 3.08s4-.78 4-3.08c0-.86-.46-3.08-4-3.08s-3.98 2.19-3.98 3.08zm.7-8.66c0 .35.05 2.56 3.26 2.56s3.3-2.16 3.3-2.54c0-1-.62-2.62-3.27-2.62s-3.27 1.62-3.27 2.6zm41.73 4.96a12 12 0 11-12-12 12 12 0 0112 12zm14.25 0a3.29 3.29 0 11-3.29-3.29 3.31 3.31 0 013.29 3.29zm9.43 4.94c.24.57.81 1.81 3.24 1.81 4.18 0 4.45-3.62 4.62-5.69-1 .86-2.19 2-5.7 2-4.51 0-7.56-2.59-7.56-6.85 0-4 2.73-7.8 8.61-7.8a9.3 9.3 0 015 1.32c3.81 2.29 4.38 6.67 4.38 9.9 0 10.59-7.54 11.23-9.4 11.23-2.43 0-7.47-1.1-8.37-5.91zm-.54-9c0 2.24 1.94 3.37 4 3.37s4-1.16 4-3.37c0-1.75-1.3-3.54-4-3.54s-4 1.83-4 3.58zm42.57 4.06a12 12 0 11-12-12 12 12 0 0112 12z"/><path class="cls-2" d="M216.36 51.43h-2.87v-7a16.24 16.24 0 01-5.24 5.38 4.49 4.49 0 00-1.89-2.14 14.93 14.93 0 006.09-6.59h-5.67v-2.54h6.71v-3.68l2.78.09c.14 0 .45 0 .45.22s-.06.2-.36.39v3h6.77v2.55h-5.78a16.94 16.94 0 006.12 6.54 5.69 5.69 0 00-1.89 2.16 21.8 21.8 0 01-5.22-5.4zm65.29-8.23h5.51v2.27h-3.24l2.3.92c.16.07.27.1.27.21s-.28.24-.57.25a14.47 14.47 0 01-.87 1.95h2.76V51H272.7v-2.2h3a9.32 9.32 0 00-1.41-2.38l1.77-1h-2.63V43.2H279v-1h-2.59v-1.27c-1.19.76-1.51 1-3 1.78a9.63 9.63 0 00-2.09-2.05c5-2.14 7.29-4.83 7.83-5.83l2.94.32c.11 0 .23 0 .23.18s-.18.27-.36.32a17.92 17.92 0 007.37 4.76 8.4 8.4 0 00-2 2.34 15.6 15.6 0 01-3.16-1.82v1.26h-2.56zM279 45.47h-2.29a11.76 11.76 0 011.48 2.43 16.1 16.1 0 00-1.53.9H279zm3.73-5.6a13.36 13.36 0 01-2.38-2.22 17.33 17.33 0 01-2.43 2.22zm-1.1 8.93h2.2a13.22 13.22 0 00-1.41-.7 10.41 10.41 0 001.3-2.63h-2.09z"/><rect class="cls-3" width="290" height="20" rx="5"/><rect class="cls-1" x="328" width="300" height="20" rx="5"/><path d="M365.86 8.28a3.07 3.07 0 01-.19 1 2.72 2.72 0 01-.58.93A2.91 2.91 0 01364 11a4.43 4.43 0 01-1.62.27h-1.87v3.55h-2.86V5.3h4.73a4.43 4.43 0 011.62.27 2.91 2.91 0 011.09.71 2.71 2.71 0 01.58 1 3.14 3.14 0 01.19 1zm-2.92 0a1 1 0 00-.4-.93 3 3 0 00-1.43-.24h-.6V9.4h.61a5.13 5.13 0 001.1-.09.89.89 0 00.55-.33 1.14 1.14 0 00.17-.69zm13.67 2.25a4.4 4.4 0 01-.45 2.07A3.72 3.72 0 01375 14a5.19 5.19 0 01-1.61.72 7.29 7.29 0 01-1.72.21 6.72 6.72 0 01-2.35-.41 4 4 0 01-2.67-4V5.3h2.86v4.49a3.89 3.89 0 00.26 1.55 2 2 0 00.76.89 2.19 2.19 0 001.14.29 2.26 2.26 0 001.11-.28 1.9 1.9 0 00.75-.89 3.68 3.68 0 00.27-1.55V5.3h2.86zm10.2 1.55a2.47 2.47 0 01-.84 2 3.44 3.44 0 01-2.34.73h-5.48V5.3h4.58a5.92 5.92 0 011.55.17 3 3 0 011.07.47 1.82 1.82 0 01.6.7 2 2 0 01.2.88 2.21 2.21 0 01-.21 1 2.45 2.45 0 01-.51.72 1.78 1.78 0 01-.61.4 3.77 3.77 0 011.48 1 2.23 2.23 0 01.51 1.44zM383.47 8a.91.91 0 00-.45-.9 3.16 3.16 0 00-1.41-.23H381v2.29h.62a3.24 3.24 0 001.38-.23.92.92 0 00.47-.93zm.47 4c0-.81-.59-1.22-1.77-1.22H381v2.43h1.16c1.19-.03 1.78-.43 1.78-1.21zm11.2 2.77h-7.2V5.3h2.86v7.2h4.34zm3.86 0h-2.86V5.3H399zm10.15-.71a6.53 6.53 0 01-1.21.49 7.63 7.63 0 01-1.24.27 10.8 10.8 0 01-1.29.07 6.64 6.64 0 01-2.22-.34 4.77 4.77 0 01-1.7-1 4.26 4.26 0 01-1.08-1.55 5.22 5.22 0 01-.36-2 5.16 5.16 0 01.42-2.15 4.06 4.06 0 011.19-1.52 5 5 0 011.73-.9 7 7 0 012.06-.29 11.47 11.47 0 013.66.71V8.4a11.06 11.06 0 00-1.4-.73 4.13 4.13 0 00-1.61-.29 3.69 3.69 0 00-1.55.33 2.87 2.87 0 00-1.15.94 2.48 2.48 0 00-.06 2.73 2.67 2.67 0 001.07.95 3.2 3.2 0 001.53.36 5.05 5.05 0 001.31-.17 6.33 6.33 0 001-.37 9.84 9.84 0 00.87-.49zm14.42-3.85a4.49 4.49 0 01-.53 2.33 5 5 0 01-1.25 1.46 4.54 4.54 0 01-2.85.8h-5.12V5.3h3.94a11 11 0 011.52.09 6.85 6.85 0 011.14.26 4.71 4.71 0 01.86.37 4.61 4.61 0 011.49 1.39 4.64 4.64 0 01.58 1.25 5.42 5.42 0 01.22 1.55zm-2.91-.13a3.19 3.19 0 00-.44-1.8 2.12 2.12 0 00-1.06-.86 3.63 3.63 0 00-1.26-.22h-1.22v5.61h1.22a3.52 3.52 0 001.94-.53 2.45 2.45 0 00.82-2.2zM435 14.77h-2.92l-.78-1.92h-4.11l-.79 1.92h-2.92l4.22-9.47h3.16zm-4.35-3.57l-1.39-3.46-1.4 3.46zm14.18-5.9l-3.71 5.13v4.34h-2.86v-4.28l-3.78-5.19h3l2.17 3 2.19-3zM452 12a2.54 2.54 0 01-.46 1.53 2.81 2.81 0 01-1.26 1 4.8 4.8 0 01-1.87.34h-.72a10 10 0 01-1.14-.21 8.89 8.89 0 01-1.47-.51v-2.33a12 12 0 001.41.74 3.92 3.92 0 001.49.29 1.33 1.33 0 00.95-.24.73.73 0 00.21-.46.76.76 0 00-.37-.64 5 5 0 00-1.07-.55 7.62 7.62 0 01-1.37-.71 3.29 3.29 0 01-1-1 2.44 2.44 0 01-.33-1.34 2.52 2.52 0 011.52-2.37 4.33 4.33 0 011.89-.37 6.78 6.78 0 011.47.15 5.85 5.85 0 011.11.35 3.23 3.23 0 01.6.3v2.22a7.76 7.76 0 00-1.3-.75 3.54 3.54 0 00-1.52-.32 1.18 1.18 0 00-.78.2.65.65 0 00-.24.51.63.63 0 00.24.48 4.33 4.33 0 00.86.5 17.65 17.65 0 011.75.92 3.52 3.52 0 011 .95A2.28 2.28 0 01452 12zm8.71-2.26l5.51 2.73-.75 1.61-8.76-4.34 8.76-4.34.75 1.6zm13.35-5.27c.09 0 .24 0 .24.18s-.17.2-.29.23c-.09.3-.13.43-.2.64H479v1.71h-5.93a6.21 6.21 0 01-.37.66h5.08v6c0 1.23-.52 1.7-3 1.61a4.16 4.16 0 00-.55-1.86c.17 0 .92.17 1.08.17.46 0 .46-.17.46-.4V13h-3.42v2.49h-2v-4.82a9.34 9.34 0 01-1.26 1 7.06 7.06 0 00-1.51-1.42 7.78 7.78 0 003.25-3H468V5.52h3.62a8.19 8.19 0 00.38-1.26zm1.77 5.41v-.45h-3.42v.45zm-3.42 1.33v.51h3.42v-.51zM486.55 8a13.57 13.57 0 011.56 1.8 13.84 13.84 0 00-1.29 1.2 11.74 11.74 0 00-1.37-1.64v.42H484a9.31 9.31 0 001.44 1.5 3.44 3.44 0 00-.27.38l3-.69V7.22a10.42 10.42 0 00-.86.88 11 11 0 00-1.56-1.61L487 5.28a9.58 9.58 0 011.21 1.22v-2l2.13.12a.17.17 0 01.17.16c0 .14-.11.19-.32.27v5.52l.8-.18.32 1.64-1.12.28v3.26h-2v-2.81l-2.83.71-.32-1.6a9.3 9.3 0 00-.49.92 5.87 5.87 0 01-.73-.8v3.53h-1.92V13a6.25 6.25 0 01-.87 1.17 6.06 6.06 0 00-1.39-1.36 7.93 7.93 0 002.1-3H480V8.06h1.9v-.7c-.61.2-.82.27-1.3.47a10.3 10.3 0 00-.71-2.24l1.46-.48a12.46 12.46 0 01.55 1.65V4.47l2.05.1a.19.19 0 01.19.18c0 .16-.18.24-.32.29V7a16.3 16.3 0 00.55-1.93l1.75.41a.16.16 0 01.13.14c0 .1-.08.17-.31.26-.5 1.55-.53 1.61-.68 2a5.41 5.41 0 00-1.44-.49v.67h1.64v1zm5.85 7.44l-.3-.3 10.57-10.57.3.3zM508 7.47c.08 0 .16.06.16.17s-.08.18-.37.25a15.24 15.24 0 01-2.24 5.11 10.52 10.52 0 00-2-1A12 12 0 00506 6.81zm2.79-2.92c.11 0 .2 0 .2.18s-.1.2-.27.26v8.65c0 1.71-1 1.9-3.22 1.89a5 5 0 00-.79-2.16 10.76 10.76 0 001.26.11c.46 0 .56 0 .56-.38V4.45zM513 6.69a30.08 30.08 0 012.45 5.5 8.53 8.53 0 00-2.05 1.05 26.26 26.26 0 00-2.29-5.74zm9.61 6.19v1.22c0 1.43-.9 1.49-3.14 1.47a5.32 5.32 0 00-.59-1.87l1.37.06c.37 0 .37-.09.37-.63v-.25h-4.52v-1.74h4.52v-.69l.81.06a5.69 5.69 0 00.48-.39h-3.51V8.47h5.92l.68 1.12a15.63 15.63 0 01-2 1.55h4v1.74zm-2-6.45a8.26 8.26 0 00-1-1.6l1.73-.64A8 8 0 01522.49 6a8.07 8.07 0 00-.94.47H523a21 21 0 001.22-2.1l2 .59c.11 0 .2.06.2.17s-.21.22-.42.22a11.48 11.48 0 01-.69 1.12h1.64v3.22H525V8.06h-7v1.63h-1.9V6.43h1.57a7.5 7.5 0 00-.88-1.3l1.69-.75a6.81 6.81 0 011.13 1.68 7.68 7.68 0 00-.69.37zm12.18.02v-2l2.15.06c.1 0 .29 0 .29.17s0 .13-.28.31v1.46h3.69v1.86H535v1.46h2.81v1.83H535v1.83h4.13v1.85H528v-1.85h4.77V11.6h-2.95V9.77h2.95V8.31h-2.27a10.86 10.86 0 01-1.2 1.85 5.52 5.52 0 00-1.73-1 11.27 11.27 0 002.15-4.52l2 .41c.19 0 .27.09.27.21s-.18.21-.27.22c-.1.27-.18.52-.36 1zm6.95 5.95a9.54 9.54 0 001.09-.27V4.69l2.21.13c.05 0 .26 0 .26.21s-.09.18-.3.27v6.15a29.35 29.35 0 002.92-1.1 4.29 4.29 0 00-.11 1.27 4 4 0 000 .84c-.8.33-2.18.9-5 1.81 0 .05-.1.25-.11.29a.2.2 0 01-.16.1c-.11 0-.15-.12-.18-.22zm10.75-7.63c.15 0 .21.09.21.2s-.1.18-.32.27c-.06 2.72-.11 4.89-1 6.68a11.73 11.73 0 012 2.16 9.85 9.85 0 00-1.58 1.51 11.7 11.7 0 00-1.56-2A7 7 0 01545 15.7a5.66 5.66 0 00-1.44-1.64c3.05-1 4.65-2.38 4.65-7.56 0-.26 0-1.53-.05-1.83zm-5.08.28a14 14 0 012.09 2.73 8.31 8.31 0 00-1.79 1.3 10.19 10.19 0 00-2-2.82zm12.86 2.67a27.12 27.12 0 014 3 12.25 12.25 0 00-1.44 1.73 13.68 13.68 0 00-2.51-2.23v5.31h-2.21V6.84H552v-2h11.11v2h-4.82zm7.29-.26c-.25.23-.38.34-.51.44a7.17 7.17 0 00-1.47-1 9.12 9.12 0 002.28-2.59l1.86.42c.1 0 .17.08.17.17s-.14.17-.31.23l-.13.19h7.19v1.53h-1v1.31h1.51v1.58h-1.51V11h1.09v1.55h-1.06a13 13 0 011.61 2.12 11.69 11.69 0 00-1.63 1 11.47 11.47 0 00-1.65-2.36l1.21-.77h-7.79l1.58.64c.16.06.24.1.24.19s-.19.17-.3.17a9.32 9.32 0 01-1.59 2.18 6.7 6.7 0 00-1.61-1 6.45 6.45 0 001.64-2.16h-1V11h1.17V9.74H564V8.16h1.59zm1.59.7h.56V6.85h-.56zm0 2.83h.56V9.74h-.56zm1.76 1.88a10.13 10.13 0 01.74 2.31 15.13 15.13 0 00-1.9.42 9.33 9.33 0 00-.55-2.42zm.38-4.71h.57V6.85h-.57zm0 2.83h.57V9.74h-.57zm2 1.75a11.6 11.6 0 011 2.3 15.65 15.65 0 00-1.84.5 12.64 12.64 0 00-.87-2.39zm.11-5.89v1.31h.6V6.85zm0 2.89V11h.6V9.74zM582.55 8a13.57 13.57 0 011.56 1.8 13.84 13.84 0 00-1.29 1.2 11.74 11.74 0 00-1.37-1.64v.42H580a9.31 9.31 0 001.44 1.5 3.44 3.44 0 00-.27.38l3-.69V7.22a10.42 10.42 0 00-.86.88 11 11 0 00-1.56-1.61L583 5.28a9.58 9.58 0 011.21 1.22v-2l2.13.12a.17.17 0 01.17.16c0 .14-.11.19-.32.27v5.52l.8-.18.32 1.64-1.12.28v3.26h-2v-2.81l-2.83.71-.32-1.6a9.3 9.3 0 00-.49.92 5.87 5.87 0 01-.73-.8v3.53h-1.92V13a6.25 6.25 0 01-.87 1.17 6.06 6.06 0 00-1.39-1.36 7.93 7.93 0 002.1-3H576V8.06h1.9v-.7c-.61.2-.82.27-1.3.47a10.3 10.3 0 00-.71-2.24l1.46-.48a12.46 12.46 0 01.55 1.65V4.47l2.05.1a.19.19 0 01.19.18c0 .16-.18.24-.32.29V7a16.3 16.3 0 00.55-1.93l1.75.41a.16.16 0 01.13.14c0 .1-.08.17-.31.26-.5 1.55-.53 1.61-.68 2a5.41 5.41 0 00-1.44-.49v.67h1.64v1zm11.81 1.74L588.84 7l.76-1.6 8.76 4.34-8.76 4.34-.76-1.61zM45.87 12.08A2.47 2.47 0 0145 14a3.44 3.44 0 01-2.34.73h-5.45V5.3h4.58a5.92 5.92 0 011.55.17 2.9 2.9 0 011.06.47 1.94 1.94 0 01.61.7 2 2 0 01.19.88 2.2 2.2 0 01-.2 1 2.45 2.45 0 01-.51.72 1.78 1.78 0 01-.61.4 3.77 3.77 0 011.48 1 2.23 2.23 0 01.51 1.44zM42.53 8a.91.91 0 00-.45-.9 3.16 3.16 0 00-1.41-.23h-.6v2.29h.62a3.24 3.24 0 001.41-.23.92.92 0 00.43-.93zm.47 4c0-.81-.59-1.22-1.77-1.22h-1.16v2.43h1.16C42.41 13.18 43 12.78 43 12zm13.87-1.47a4.4 4.4 0 01-.45 2.07 3.72 3.72 0 01-1.21 1.4 5.3 5.3 0 01-1.61.72 7.31 7.31 0 01-1.73.21 6.71 6.71 0 01-2.34-.41 4 4 0 01-2.67-4V5.3h2.85v4.49a3.88 3.88 0 00.29 1.55 1.87 1.87 0 00.76.89 2.18 2.18 0 001.13.29 2.3 2.3 0 001.11-.28 1.9 1.9 0 00.75-.89A3.85 3.85 0 0054 9.8V5.3h2.86zM67.66 5.3l-3.72 5.13v4.34h-2.85v-4.28L57.31 5.3h3l2.18 3 2.18-3zm7.71 9.47h-7.14V5.3h7v1.9h-4.15v1.73h4v1.91h-4v2h4.29zm10.39 0h-3.07l-.75-1.68a7 7 0 00-.73-1.35 1.71 1.71 0 00-.64-.55 2.31 2.31 0 00-.81-.12h-.32v3.7h-2.86V5.3h4.86a3.52 3.52 0 011.93.48 2.87 2.87 0 011.09 1.16 3 3 0 01.33 1.3 2.41 2.41 0 01-.28 1.21 2.22 2.22 0 01-.58.72 7.43 7.43 0 01-.69.43 2.92 2.92 0 01.75.63 8.05 8.05 0 01.81 1.48zm-3.88-6.48a1 1 0 00-.44-.91A2.73 2.73 0 0080 7.12h-.6V9.4h.62a3.14 3.14 0 001.43-.23.93.93 0 00.43-.88zm7-.97a2.65 2.65 0 01-.18.94 2.77 2.77 0 01-.57.91 3.15 3.15 0 01-1 .74 4.46 4.46 0 01-1.46.42V9.9a1.73 1.73 0 001.07-1.81v-.15a1.3 1.3 0 01-1.08-1.34 1.43 1.43 0 01.72-1.23 1.35 1.35 0 01.74-.2 1.5 1.5 0 011 .32 2 2 0 01.59.82 2.74 2.74 0 01.17 1.01zM96.51 12a2.61 2.61 0 01-.46 1.53 2.78 2.78 0 01-1.27 1 4.71 4.71 0 01-1.86.34h-.72a9.58 9.58 0 01-1.14-.21 8.89 8.89 0 01-1.47-.51v-2.33a12 12 0 001.41.74 3.88 3.88 0 001.49.29 1.3 1.3 0 00.94-.24.7.7 0 00.22-.46.78.78 0 00-.37-.64 5.48 5.48 0 00-1.07-.51 7.62 7.62 0 01-1.37-.71 3.29 3.29 0 01-1-1 2.44 2.44 0 01-.37-1.37 2.65 2.65 0 01.37-1.39 2.55 2.55 0 011.15-1 4.27 4.27 0 011.89-.37 6.68 6.68 0 011.46.15 5.85 5.85 0 011.11.35 3.08 3.08 0 01.61.3v2.23a7.76 7.76 0 00-1.3-.75 3.62 3.62 0 00-1.53-.32 1.16 1.16 0 00-.77.2.65.65 0 00-.24.51.63.63 0 00.24.48 4.18 4.18 0 00.85.5 16.58 16.58 0 011.75.92 3.52 3.52 0 011 .95 2.28 2.28 0 01.45 1.32zm14.43-1.79a4.39 4.39 0 01-.53 2.33 4.84 4.84 0 01-1.24 1.46 4.54 4.54 0 01-2.85.8h-5.12V5.3h3.94a11 11 0 011.52.09 6.85 6.85 0 011.14.26 5 5 0 01.86.37 4.53 4.53 0 01.64.45 4.79 4.79 0 01.85.94 4.64 4.64 0 01.58 1.25 5.43 5.43 0 01.21 1.55zm-2.9-.13a3.19 3.19 0 00-.44-1.8 2.16 2.16 0 00-1.06-.86 3.63 3.63 0 00-1.26-.22h-1.22v5.61h1.22a3.55 3.55 0 001.94-.53 2.45 2.45 0 00.78-2.2zm14.37 4.69h-2.92l-.78-1.92h-4.11l-.79 1.92h-2.92l4.19-9.47h3.16zm-4.35-3.57l-1.39-3.46-1.4 3.46zm14.15-5.9l-3.71 5.13v4.34h-2.86v-4.28l-3.78-5.19h3l2.17 3 2.18-3zm7.2 6.7a2.54 2.54 0 01-.46 1.53 2.81 2.81 0 01-1.26 1 4.8 4.8 0 01-1.87.34h-.72a9.58 9.58 0 01-1.14-.21 8.89 8.89 0 01-1.47-.51v-2.33a12 12 0 001.41.74 3.88 3.88 0 001.49.29 1.28 1.28 0 00.94-.24.7.7 0 00.22-.46.76.76 0 00-.37-.64 5 5 0 00-1.07-.55 7.62 7.62 0 01-1.37-.71 3.29 3.29 0 01-1-1 2.44 2.44 0 01-.37-1.37 2.65 2.65 0 01.37-1.39 2.6 2.6 0 011.15-1 4.33 4.33 0 011.89-.37 6.78 6.78 0 011.47.15 6.36 6.36 0 011.11.35 3.23 3.23 0 01.6.3v2.27a7.76 7.76 0 00-1.3-.75 3.56 3.56 0 00-1.53-.32 1.16 1.16 0 00-.77.2.65.65 0 00-.24.51.63.63 0 00.24.48 4.33 4.33 0 00.86.5 17.65 17.65 0 011.75.92 3.65 3.65 0 011 .95 2.35 2.35 0 01.44 1.32zm8.48-2.47L153 12l-.69 1.48-8-4 8-4L153 7zm16.8 1.1v1.13h-.47v1.83h-1.81v-.36h-1.87v.49c0 1.07-.84 1.17-2.62 1.13a3.51 3.51 0 00-.5-1.4c.34 0 .7.08 1 .08s.33-.1.33-.3h-3.54v-1.16h3.54v-.31h-4.17v-1.13h4.17v-.3h-3.54v-1h3.54v-.27h-3V6.75h3V6.5h-4.15V5.27h4.16v-.6l1.79.06c.06 0 .23 0 .23.13s-.09.16-.24.23v.18h4.14V6.5h-4.14v.25h3v2.31h-3v.27h3.68v1.3zm-5.93-2.57v-.32h-1.26v.32zm1.78-.32v.32h1.23v-.32zm1.87 2.89v-.3h-1.87v.3zm0 1.44v-.31h-1.87v.31zm8.97-6.21a7.73 7.73 0 00.67-1.27l2 .37s.14 0 .14.12-.2.18-.35.2c-.14.22-.19.28-.4.58h2.29v1.6h-10.19v-1.6h2.17a6.18 6.18 0 00-.5-.76l1.79-.53a7.88 7.88 0 01.75 1.14l-.54.15zm-3.65 6.57v2.4H166v-7h4.57v5.83c0 1.13-.92 1.15-2.09 1.18a4.05 4.05 0 00-.44-1.7 4.11 4.11 0 00.57.06c.24 0 .29-.08.29-.31v-.45zm1.19-2.86v-.41h-1.19v.41zm0 1.64v-.45h-1.19v.45zm4-3.2c.08 0 .19 0 .19.14s-.11.17-.19.22v4.26h-1.78V7.94zm2.38-.23c.11 0 .24 0 .24.15s-.11.15-.27.22v5.34c0 1.38-1.11 1.37-2.53 1.34a3.92 3.92 0 00-.56-1.81 7.45 7.45 0 00.94.08c.29 0 .31-.13.31-.32v-5.1zm9.07.29l-.93 5.87H181l-1.89-8.83h2.19l1 6.35 1-6.35h2.16l1 6.35 1-6.35h2.18l-1.89 8.83h-2.45zm13.44 4.12v1.75h-7.14V5.11h7v1.76h-4.79V8.6H197v1.69h-4.17v1.9zm1.19 1.75V5.11h4.81a2.28 2.28 0 012.52 2.28 1.76 1.76 0 01-1.24 1.81 2.06 2.06 0 011.56 2.17 2.49 2.49 0 01-2.65 2.57zm2.2-5.23h2a.88.88 0 00.85-1 .8.8 0 00-.85-.86h-2zm0 3.48h2a1.06 1.06 0 001.19-1.06c0-.8-.66-1-1.19-1h-2zm10.61.13V9.94a8.91 8.91 0 01-.77.47 4.74 4.74 0 00-1.11-1.35 8.79 8.79 0 001.5-.94 11.81 11.81 0 00-1-.9l1-.92h-.66V4.87H215l.26.26 1.46-.55a7.07 7.07 0 00.42.85 6.74 6.74 0 00.71-.83l1.25.75c.12.07.15.1.15.17s-.21.16-.36.15c-.25.3-.56.66-.86 1 .15.15.2.22.28.29a12.75 12.75 0 001-1.21l1.15.77c.09 0 .17.11.17.2s-.23.19-.32.18a11.87 11.87 0 01-.95 1 7.57 7.57 0 001.51.91 5 5 0 00-1.1 1.45 8.18 8.18 0 01-.76-.54v2.63h-.75c.08 0 .19 0 .19.16s-.07.15-.3.19c-.07.18-.16.37-.21.5h2.52v1.51h-10.1v-1.54H213a7.57 7.57 0 00-.29-.72l.67-.13zm.05-6a6.32 6.32 0 01.84.74 2.59 2.59 0 00.51-.74zm6.33 2.88l-.7-.57v.17h-4v-.24a8.16 8.16 0 01-.68.62zm-4.58 1.23v.64h3.58v-.64zm2.76-3a8.16 8.16 0 01-1-1.53 7.47 7.47 0 01-.88 1.53zm-1.77 4.92a5.83 5.83 0 01.34.85H216a6.83 6.83 0 00.34-.85zm10.65-3.69h-.81v.49h1.08v1.46h-1.08V12a4.76 4.76 0 00.44-1.27l1.18.34a4.66 4.66 0 00-.4-.71l1.06-.67h-1V8.33H229v-.4h-2.76V6.7H229v-.37h-3.14V5h5v3.33h.63V9.7h-1.07l1.12.74a.19.19 0 01.11.18c0 .16-.15.17-.32.17a10.85 10.85 0 01-.79 1.11 6.23 6.23 0 001.16 1.1 6.31 6.31 0 00-1 1.5 6.17 6.17 0 01-1.39-1.68v.79c0 1.34-.85 1.34-2.26 1.34a4.6 4.6 0 00-.41-1.51c-.19.08-.22.11-.34.15 0 .2 0 .41-.21.41a.19.19 0 01-.17-.15l-.32-1.22a10.58 10.58 0 00-.15 1.37c-.76.17-1.91.37-3.51.64-.08.2-.1.27-.21.27s-.12-.09-.15-.17l-.34-1.74a13 13 0 001.59-.15v-.47l-1.16.4a9.18 9.18 0 00-.47-1.71l1.21-.37a10.33 10.33 0 01.42 1.46v-1.55h-1.45V9.15h1.45v-.49h-1v-.84a9.43 9.43 0 00-.89-.77 5.27 5.27 0 001.92-2.41l1.72.23c.09 0 .16 0 .16.12a.19.19 0 01-.16.18A6.84 6.84 0 00226 6.54a8.63 8.63 0 00-.79.86zm-.85-1.39a5.21 5.21 0 01-.64-.84c-.33.45-.55.7-.67.84zm0 5.37c.36-.06.63-.12.95-.19a5.27 5.27 0 00-.95-.28zm1.74-1.32h-.19c-.07.19-.2.58-.26.73l.68-.22a3.59 3.59 0 00-.19-.51zm1.5-1.62h-.77a13.42 13.42 0 01.7 1.36 10.43 10.43 0 00-1.1.74c.28-.1.59-.22 1.17-.47zm0 3.15l-.9.49c.39 0 .55.07.66.07s.24-.18.24-.35zm1.66-3.15v.47c0 .08.11.23.28.55a8.48 8.48 0 00.56-1zm8.88-1.81v1.6h-1.94v.39h1.9v3.25c0 .87-.73 1.08-1.56 1a3.09 3.09 0 00-.34-1.34v2h-1.65v-3.32h-.43v2.74h-1.57V9.88h2v-.39h-2.25v-1.6h1a5.58 5.58 0 00-1.34-.58 5.94 5.94 0 00.81-2.42l1.6.33c.06 0 .08.08.08.16s-.09.16-.31.21l-.1.42h.5V4.7h1.67c.12 0 .24 0 .24.15s-.13.18-.26.25v.73h1.87v1.6h-1.87v.46zm-3.59 0v-.46h-.91c-.1.3-.13.39-.16.46zm1.65 4.63c.36 0 .45 0 .45-.26v-.79h-.45zM240.12 6c.15 0 .25 0 .25.15s-.06.15-.25.27v6.15h-1.6V5.89zm2.14-1.22c.1 0 .25 0 .25.18s-.06.14-.25.25v8c0 1.42-.44 1.83-2.44 1.74a3.49 3.49 0 00-.67-1.78c.31 0 .66.06 1 .06s.42-.11.42-.37V4.69zm6.87 4.75l-5-2.5.69-1.48 8 4-8 4-.74-1.55z" fill="#fff"/></g></g></svg>