<svg data-name="レイヤー 1" xmlns="http://www.w3.org/2000/svg" viewBox="0 0 42.36 37.46"><path d="M23.68 1.79c-1.37-2.39-3.62-2.39-5 0L.59 33.13c-1.38 2.38-.25 4.33 2.5 4.33h36.18c2.75 0 3.88-2 2.5-4.33z" fill="#fff"/><path d="M19.57 23.07l-.47-7c-.1-1.38-.1-2.36-.1-2.96a2.62 2.62 0 01.64-1.89 2.15 2.15 0 011.67-.68 1.7 1.7 0 011.69.87 6 6 0 01.42 2.51 18.65 18.65 0 01-.1 2l-.63 7.22a5.59 5.59 0 01-.44 2 1.14 1.14 0 01-1.11.69A1.1 1.1 0 0120 25.1a6.51 6.51 0 01-.43-2.03zm1.63 9.64a2.27 2.27 0 01-1.56-.58 2 2 0 01-.64-1.61 2.1 2.1 0 01.61-1.52 2.13 2.13 0 011.56-.64 2.18 2.18 0 011.57.64 2.07 2.07 0 01.65 1.55 2 2 0 01-.66 1.61 2.23 2.23 0 01-1.53.55z" fill="#ff5064"/></svg>