<svg xmlns="http://www.w3.org/2000/svg" width="240" height="120" viewBox="0 0 240 120">
  <defs>
    <style>
      .cls-1 {
        fill: #00b4dc;
      }

      .cls-2 {
        fill: #fff;
      }
    </style>
  </defs>
  <g id="レイヤー_2" data-name="レイヤー 2">
    <g id="レイヤー_1-2" data-name="レイヤー 1">
      <g>
        <rect class="cls-1" width="240" height="120" rx="6.12"/>
        <g>
          <path class="cls-2" d="M69.25,56.19v1.88h-1V61.4h-3v-.64H61.6V62c0,1-.26,1.72-3.24,1.72-.4,0-.8,0-1.06,0a7.53,7.53,0,0,0-.94-2.5,15.84,15.84,0,0,0,1.7.16c.58,0,.58-.2.58-.62H52.39v-2h6.25v-.68H51V56.19h7.63v-.64H52.39V53.79h6.25v-.56H53.55V49.16h5.09V48.6H51V46.5h7.63V45.4l3.1.12a.27.27,0,0,1,.3.26c0,.18-.12.22-.44.38v.34h7.57v2.1H61.6v.56h5v4.07h-5v.56h6.65v2.4ZM58.64,51.55v-.78H56.2v.78Zm3-.78v.78H64v-.78Zm3.68,5.42v-.64H61.6v.64Zm0,2.56v-.68H61.6v.68Z"/>
          <path class="cls-2" d="M81.2,48.1a15.14,15.14,0,0,0,1.72-2.82l3,.76c.14,0,.28.1.28.24s-.28.32-.58.28c-.52.82-.72,1.16-1,1.54h4.59v2.51H71V48.1h4.4a9.18,9.18,0,0,0-1.14-1.7l2.7-1.22a13.41,13.41,0,0,1,1.63,2.5l-1.09.42ZM74.77,59.39v4.33H72V51.27h8V61.76c0,1.64-.86,1.88-3.51,2a5.77,5.77,0,0,0-1-2.84c.3,0,.9.1,1.2.1s.6,0,.6-.65v-.94Zm2.44-5.08v-.88H74.77v.88Zm0,3v-.9H74.77v.9ZM84,51.59c.18,0,.3.06.3.2s-.12.22-.3.34v8H81.16V51.47Zm4.23-.42c.18,0,.36,0,.36.22s-.22.26-.48.4v9.55a1.89,1.89,0,0,1-.87,1.94c-.72.48-1.58.46-3.24.44a7.5,7.5,0,0,0-.66-3c.34,0,1.08.14,1.38.14.5,0,.5-.32.5-.56V51Z"/>
          <path class="cls-2" d="M101.92,51.19,100,62.24H96L92.33,46.46h3.58l2.24,11.71,2-11.71h3.6l2,11.71,2.24-11.71h3.59l-3.63,15.78H103.8Z"/>
          <path class="cls-2" d="M126.3,59.41v2.83H113.37V46.46H126v2.82H117v3.55h8v2.7h-8v3.88Z"/>
          <path class="cls-2" d="M128.48,62.24V46.46H137c3.08,0,5,1.68,5,4a3.26,3.26,0,0,1-2.39,3.26,4,4,0,0,1,1.52.72,3.83,3.83,0,0,1,1.51,3.18c0,2.71-2.13,4.57-5.19,4.57ZM132.09,53h4.08a1.84,1.84,0,0,0,1.92-2,1.72,1.72,0,0,0-1.92-1.83h-4.08Zm0,6.46h4.06c1.28,0,2.56-.58,2.56-2.18,0-1.76-1.56-2-2.56-2h-4.06Z"/>
          <path class="cls-2" d="M152.16,59.31V54.65a11.2,11.2,0,0,1-1.62,1.1,9.94,9.94,0,0,0-2-2.22,14,14,0,0,0,2.54-1.74,14.4,14.4,0,0,0-1.64-1.28l1.92-2a12.17,12.17,0,0,1,1.81,1.27,6,6,0,0,0,1.2-1.67h-3.71V45.76h6.91l.9,1a16.63,16.63,0,0,1-1.92,3.41h4.1a13.25,13.25,0,0,1-2.36-4l2.54-1a12.14,12.14,0,0,0,.86,1.66,10.25,10.25,0,0,0,1.23-1.52l2.1,1.32c.08,0,.22.14.22.24s-.34.26-.54.26c-.66.84-1.2,1.46-1.44,1.7.22.26.38.42.54.58a25,25,0,0,0,1.82-2.16l1.86,1.26c.16.12.36.24.36.38s-.3.28-.6.3a15.53,15.53,0,0,1-1.72,1.81,13.82,13.82,0,0,0,2.82,1.86,9.8,9.8,0,0,0-1.84,2.38A21.89,21.89,0,0,1,164.68,54v5.34h-1.44c.14.06.22.14.22.28s-.2.32-.43.34a8.08,8.08,0,0,1-.41,1.11h4.9v2.42H149.34V61h5.11c-.08-.24-.38-1-.56-1.47l1-.26Zm3-7.42c-.52.56-.72.78-1.62,1.62H164.1A19.6,19.6,0,0,1,162,51.63v1h-6.86Zm-.1,3.86V57h6.74V55.75Zm1.88,3.56c.18.44.32.78.56,1.53l-.72.2h2.7a15.14,15.14,0,0,0,.6-1.73Z"/>
          <path class="cls-2" d="M176.35,52.69h-1.46v1h2v2.54h-2V59a12,12,0,0,0,.7-2.38l2.28.46c.12,0,.3.06.3.26s-.3.28-.58.3c-.08.3-.12.4-.4,1.24a23.58,23.58,0,0,0,4-1.42V54.17h-1.42a20,20,0,0,1,1.4,2.56A19.17,19.17,0,0,0,179,58.15a16.65,16.65,0,0,0-1.44-2.72l2-1.26h-2.28V51.81h6.31V51h-5.07V48.86h5.07V48.1h-6V45.66h8.89v6.15h1.22v2.36h-2.38l2.22,1.08a.33.33,0,0,1,.22.28c0,.2-.14.24-.52.3a18.21,18.21,0,0,1-1.62,2.38,14.83,14.83,0,0,0,2.5,2,9.89,9.89,0,0,0-1.64,2.55,17.74,17.74,0,0,1-2.69-2.72v1.7c0,2-1.3,2-3.68,2a9.15,9.15,0,0,0-1-2.7c-.2.1-.26.12-.54.24,0,.38-.06.72-.4.72a.32.32,0,0,1-.24-.22l-.72-2.89a9.64,9.64,0,0,1-.42,1,7.86,7.86,0,0,0-1.88-.46v.93c1.46-.29,1.88-.39,2.26-.48a8.1,8.1,0,0,0-.26,2.5c-2.54.56-4.61.9-6.55,1.18,0,.3-.1.56-.38.56s-.22-.16-.24-.3l-.46-2.76c.82,0,2.22-.2,3-.28v-.93a12.38,12.38,0,0,0-2.1.73,18.73,18.73,0,0,0-1-3.07l2.26-.72a22.77,22.77,0,0,1,.86,2.44v-3H169.6V53.73h2.62v-1h-1.56v-.76a7.17,7.17,0,0,0-2.1-2,9.17,9.17,0,0,0,3.84-4.46l2.85.56c.22,0,.3.1.3.22s-.22.34-.46.36A15.06,15.06,0,0,0,178,49.4a8.08,8.08,0,0,0-1.64,1.31Zm-1.18-2.34a9.67,9.67,0,0,1-1.51-1.81c-.46.62-.78,1-1.42,1.81Zm6,9.64c-.5.28-1.24.69-1.84.95.18,0,1.14.12,1.26.12.58,0,.58-.41.58-.65Zm2.62-4.14.15.26A11.24,11.24,0,0,0,185,54.17h-1.21Z"/>
        </g>
        <g>
          <path class="cls-2" d="M60.18,21A3.52,3.52,0,0,1,59,23.77a4.88,4.88,0,0,1-3.34,1.05H47.82V11.28h6.54a8.51,8.51,0,0,1,2.21.25,4.38,4.38,0,0,1,1.52.66,2.84,2.84,0,0,1,.86,1,2.77,2.77,0,0,1,.28,1.26,3.3,3.3,0,0,1-.29,1.37,3.34,3.34,0,0,1-.73,1,2.71,2.71,0,0,1-.87.57,5.35,5.35,0,0,1,2.11,1.39A3.12,3.12,0,0,1,60.18,21Zm-4.77-5.8a1.3,1.3,0,0,0-.64-1.3,4.65,4.65,0,0,0-2-.32H51.9V16.8h.88a4.68,4.68,0,0,0,2-.32A1.32,1.32,0,0,0,55.41,15.18Zm.67,5.63q0-1.74-2.52-1.74H51.9v3.47h1.66C55.24,22.54,56.08,22,56.08,20.81Z"/>
          <path class="cls-2" d="M75.9,18.75a6.32,6.32,0,0,1-.65,3,5.2,5.2,0,0,1-1.72,1.93,7.32,7.32,0,0,1-2.3,1,10,10,0,0,1-2.47.31,9.74,9.74,0,0,1-3.34-.58,5.86,5.86,0,0,1-2.72-2,5.76,5.76,0,0,1-1.1-3.66V11.28h4.07V17.7a5.43,5.43,0,0,0,.39,2.21,2.69,2.69,0,0,0,1.07,1.28,3.15,3.15,0,0,0,1.63.4,3.08,3.08,0,0,0,1.59-.4,2.64,2.64,0,0,0,1.08-1.27,5.38,5.38,0,0,0,.39-2.2V11.28H75.9Z"/>
          <path class="cls-2" d="M91.3,11.28,86,18.62v6.2H81.92V18.69l-5.4-7.41h4.24l3.1,4.26L87,11.28Z"/>
          <path class="cls-2" d="M102.33,24.82H92.12V11.28h10V14h-6v2.48h5.69V19.2H96.2v2.89h6.13Z"/>
          <path class="cls-2" d="M117.17,24.82h-4.39l-1.06-2.41a10,10,0,0,0-1.06-1.92,2.29,2.29,0,0,0-.91-.79,3.36,3.36,0,0,0-1.15-.17h-.46v5.29h-4.08V11.28H111a5.13,5.13,0,0,1,2.76.68,4.22,4.22,0,0,1,1.55,1.66,4.37,4.37,0,0,1,.47,1.86,3.43,3.43,0,0,1-.4,1.73,3,3,0,0,1-.83,1,7.66,7.66,0,0,1-1,.62,3.71,3.71,0,0,1,1.08.9,11.84,11.84,0,0,1,1.16,2.12Zm-5.55-9.26a1.4,1.4,0,0,0-.62-1.31,4,4,0,0,0-2-.37h-.86v3.26H109a4.39,4.39,0,0,0,2-.33A1.31,1.31,0,0,0,111.62,15.56Z"/>
          <path class="cls-2" d="M121.62,14.17a3.78,3.78,0,0,1-.25,1.34,4.44,4.44,0,0,1-.81,1.31,4.64,4.64,0,0,1-1.45,1.05,6.67,6.67,0,0,1-2.08.61v-.63a2.44,2.44,0,0,0,1.53-2.58v-.21A1.86,1.86,0,0,1,117,13.14a2,2,0,0,1,.27-1,2.05,2.05,0,0,1,1.81-1,2.2,2.2,0,0,1,1.4.45,2.72,2.72,0,0,1,.84,1.18A4,4,0,0,1,121.62,14.17Z"/>
          <path class="cls-2" d="M132.52,20.88a3.76,3.76,0,0,1-.65,2.2,4.11,4.11,0,0,1-1.81,1.42,6.76,6.76,0,0,1-2.67.49c-.28,0-.62,0-1,0a13.27,13.27,0,0,1-1.62-.3,12.46,12.46,0,0,1-2.1-.72V20.6a14.94,14.94,0,0,0,2,1,5.4,5.4,0,0,0,2.13.42,1.88,1.88,0,0,0,1.35-.34,1.07,1.07,0,0,0,.31-.65,1.12,1.12,0,0,0-.53-.93,7.16,7.16,0,0,0-1.53-.77,13.2,13.2,0,0,1-2-1A4.66,4.66,0,0,1,123.05,17a3.57,3.57,0,0,1-.53-2,3.73,3.73,0,0,1,.54-2,3.65,3.65,0,0,1,1.64-1.41,6.21,6.21,0,0,1,2.69-.52,9.21,9.21,0,0,1,2.1.22,8.52,8.52,0,0,1,1.58.49,5.07,5.07,0,0,1,.86.43v3.17a11.32,11.32,0,0,0-1.85-1.06,5.17,5.17,0,0,0-2.18-.47,1.69,1.69,0,0,0-1.1.29.92.92,0,0,0-.34.72.89.89,0,0,0,.34.7,5.92,5.92,0,0,0,1.22.71,25.58,25.58,0,0,1,2.5,1.32A5.07,5.07,0,0,1,132,19,3.31,3.31,0,0,1,132.52,20.88Z"/>
          <path class="cls-2" d="M153.15,18.29a6.48,6.48,0,0,1-.76,3.34,7.12,7.12,0,0,1-1.78,2,6.4,6.4,0,0,1-4.07,1.15h-7.31V11.28h5.63a16.63,16.63,0,0,1,2.17.13,9.69,9.69,0,0,1,1.62.37,6,6,0,0,1,1.23.54,5.85,5.85,0,0,1,.91.64A6,6,0,0,1,152,14.3a6.57,6.57,0,0,1,.83,1.79A7.69,7.69,0,0,1,153.15,18.29ZM149,18.12a4.56,4.56,0,0,0-.63-2.58,3.12,3.12,0,0,0-1.52-1.23,5.33,5.33,0,0,0-1.8-.31h-1.74v8h1.74a4.94,4.94,0,0,0,2.77-.76C148.61,20.74,149,19.7,149,18.12Z"/>
          <path class="cls-2" d="M169.53,24.82h-4.18l-1.1-2.75h-5.88l-1.13,2.75h-4.18l6-13.54h4.51Zm-6.22-5.1-2-4.94-2,4.94Z"/>
          <path class="cls-2" d="M183.53,11.28l-5.3,7.34v6.2h-4.09V18.69l-5.4-7.41H173l3.11,4.26,3.11-4.26Z"/>
          <path class="cls-2" d="M193.81,20.88a3.76,3.76,0,0,1-.65,2.2,4.11,4.11,0,0,1-1.81,1.42,6.8,6.8,0,0,1-2.67.49c-.28,0-.62,0-1,0a12.62,12.62,0,0,1-1.62-.3,12.17,12.17,0,0,1-2.1-.72V20.6a14.94,14.94,0,0,0,2,1,5.4,5.4,0,0,0,2.13.42,1.88,1.88,0,0,0,1.35-.34,1.07,1.07,0,0,0,.31-.65,1.12,1.12,0,0,0-.53-.93,7.16,7.16,0,0,0-1.53-.77,13.2,13.2,0,0,1-2-1A4.66,4.66,0,0,1,184.34,17a3.57,3.57,0,0,1-.53-2,3.73,3.73,0,0,1,.54-2A3.65,3.65,0,0,1,186,11.62a6.21,6.21,0,0,1,2.69-.52,9.21,9.21,0,0,1,2.1.22,8.52,8.52,0,0,1,1.58.49,5.07,5.07,0,0,1,.86.43v3.17a11.32,11.32,0,0,0-1.85-1.06,5.21,5.21,0,0,0-2.18-.47,1.69,1.69,0,0,0-1.1.29.93.93,0,0,0-.35.72.9.9,0,0,0,.35.7,5.92,5.92,0,0,0,1.22.71,25.58,25.58,0,0,1,2.5,1.32A5.07,5.07,0,0,1,193.28,19,3.31,3.31,0,0,1,193.81,20.88Z"/>
        </g>
        <polygon class="cls-2" points="15 0 15 20 25 10 35 19 35 0 15 0"/>
        <rect class="cls-2" x="20" y="35" width="200" height="1"/>
        <rect class="cls-2" x="10" y="78.3" width="220" height="35"/>
        <g>
          <path class="cls-1" d="M27.56,91.85H23.11l-.4,2.06a3.58,3.58,0,0,1,2.08-.56,3.28,3.28,0,0,1,3.49,3.36c0,2.19-1.56,3.75-4.36,3.75-3.7,0-4.1-2.32-4.25-3.14h2.46c.25,1.19,1.59,1.19,1.83,1.19a1.73,1.73,0,1,0,.12-3.44,2,2,0,0,0-1.52.53H20l1.05-5.67h6.51Z"/>
          <path class="cls-1" d="M36.62,96.93a6.46,6.46,0,0,1-2.56,4.29,5.82,5.82,0,0,0-1.62-1.37c2.38-1.58,2.35-4,2.35-5.35V89.57h8.14V99.2c0,1.41-.34,2-2.93,1.86a5.7,5.7,0,0,0-.65-2.13,7.35,7.35,0,0,0,1.07.14c.44,0,.47-.27.47-.74v-1.4Zm4.27-4.6V91.4H36.77v.93Zm0,2.73v-.94H36.77v.94Z"/>
          <path class="cls-1" d="M48.12,100.18V93.52H45.89v-1.7c1.32,0,2.25-.26,2.73-1.89h1.91v10.25Z"/>
          <path class="cls-1" d="M62.25,91.85H57.79l-.39,2.06a3.54,3.54,0,0,1,2.08-.56A3.28,3.28,0,0,1,63,96.71c0,2.19-1.56,3.75-4.35,3.75-3.71,0-4.11-2.32-4.25-3.14h2.45c.25,1.19,1.59,1.19,1.84,1.19a1.73,1.73,0,1,0,.11-3.44,2,2,0,0,0-1.52.53H54.68l1-5.67h6.52Z"/>
          <path class="cls-1" d="M70.7,99.92v.71h-2V90H78v10.61h-2v-.71ZM75.94,94V91.83H70.7V94Zm0,4.06v-2.3H70.7v2.3Z"/>
          <path class="cls-1" d="M85.61,101.92a10.88,10.88,0,0,1,0-12h1.78a12.73,12.73,0,0,0,0,12Z"/>
          <path class="cls-1" d="M93.15,96.93a6.5,6.5,0,0,1-2.56,4.29A5.87,5.87,0,0,0,89,99.85a5.79,5.79,0,0,0,2.36-5.35V89.57h8.13V99.2c0,1.41-.33,2-2.92,1.86a6.1,6.1,0,0,0-.65-2.13,7.2,7.2,0,0,0,1.06.14c.45,0,.47-.27.47-.74v-1.4Zm4.26-4.6V91.4H93.29v.93Zm0,2.73v-.94H93.29v.94Z"/>
          <path class="cls-1" d="M102.92,101.92a12.73,12.73,0,0,0,0-12h1.78a11.41,11.41,0,0,1,1.79,6,11.25,11.25,0,0,1-1.79,6Z"/>
          <path class="cls-1" d="M112.91,98.28v-3a8.21,8.21,0,0,1-1,.72,6.65,6.65,0,0,0-1.29-1.45,8.59,8.59,0,0,0,1.65-1.13,9,9,0,0,0-1.07-.83l1.25-1.27a7.85,7.85,0,0,1,1.17.82,3.89,3.89,0,0,0,.78-1.08H112V89.48h4.48l.59.62a10.74,10.74,0,0,1-1.25,2.21h2.66a8.34,8.34,0,0,1-1.53-2.56l1.65-.62a8.73,8.73,0,0,0,.56,1.08,6.23,6.23,0,0,0,.79-1l1.37.86s.14.09.14.15-.22.17-.35.17a14.43,14.43,0,0,1-.94,1.11c.15.17.25.27.35.37a15.81,15.81,0,0,0,1.19-1.4l1.21.82c.1.08.23.15.23.25s-.19.18-.39.19a9.88,9.88,0,0,1-1.12,1.17,9,9,0,0,0,1.84,1.21,6.17,6.17,0,0,0-1.2,1.55c-.2-.12-.61-.41-1.2-.86v3.47h-.93c.09,0,.14.09.14.18s-.13.21-.27.22a5.56,5.56,0,0,1-.28.72h3.19V101H111.07V99.4h3.32c0-.16-.25-.67-.36-1l.63-.17Zm1.93-4.82a14.48,14.48,0,0,1-1,1.05h6.87a13.15,13.15,0,0,1-1.36-1.22V94h-4.46ZM114.78,96v.83h4.38V96ZM116,98.28c.12.29.21.51.37,1l-.47.13h1.75a10.22,10.22,0,0,0,.39-1.12Z"/>
          <path class="cls-1" d="M128.61,94h-1v.67H129V96.3h-1.3v1.77a7.67,7.67,0,0,0,.46-1.55l1.48.3c.08,0,.19,0,.19.17s-.19.19-.37.2c0,.19-.08.26-.26.8a15,15,0,0,0,2.58-.92V94.94h-.92a12.18,12.18,0,0,1,.91,1.66,13.24,13.24,0,0,0-1.4.93,10.45,10.45,0,0,0-.94-1.77l1.33-.82h-1.48V93.4h4.09v-.51H130v-1.4h3.29V91h-3.91V89.41h5.77v4H136v1.54h-1.54l1.44.7c.05,0,.14.08.14.18s-.09.16-.34.2a10.85,10.85,0,0,1-1.05,1.54,9.77,9.77,0,0,0,1.63,1.32,6.08,6.08,0,0,0-1.07,1.65,11.2,11.2,0,0,1-1.74-1.77v1.11c0,1.28-.85,1.28-2.39,1.28a6,6,0,0,0-.67-1.75l-.35.15c0,.25,0,.47-.26.47a.19.19,0,0,1-.15-.14L129.16,98a4,4,0,0,1-.28.66,5,5,0,0,0-1.22-.3V99c1-.18,1.22-.25,1.47-.31a5.38,5.38,0,0,0-.17,1.62c-1.65.37-3,.59-4.25.77,0,.19-.06.36-.25.36s-.14-.1-.15-.19l-.3-1.8c.53,0,1.44-.13,1.92-.18v-.6a9.71,9.71,0,0,0-1.36.47,12.9,12.9,0,0,0-.66-2l1.46-.47a14.05,14.05,0,0,1,.56,1.59V96.3h-1.7V94.65h1.7V94h-1v-.5a4.45,4.45,0,0,0-1.37-1.28,6,6,0,0,0,2.5-2.9l1.85.36c.14,0,.19.07.19.14s-.14.22-.3.24a9.78,9.78,0,0,0,1.89,1.81,5.05,5.05,0,0,0-1.07.84Zm-.77-1.52a6.63,6.63,0,0,1-1-1.17c-.3.4-.51.67-.92,1.17Zm3.9,6.26c-.32.18-.8.44-1.19.61l.82.08c.37,0,.37-.26.37-.41ZM133.45,96l.09.17a7.57,7.57,0,0,0,.69-1.26h-.78Z"/>
          <path class="cls-1" d="M145.17,98.05v2.79h-1.65V98.05h-1a4.84,4.84,0,0,1-2,3.06,4,4,0,0,0-1.45-1v.94h-1.86V89.52h5.44V94h-3.58v6.1a3.06,3.06,0,0,0,1.79-2.09h-1.34V96.6h1.51c0-.23,0-.52,0-.76H139.9V94.47h6.3v1.37h-1v.76h1.3v1.45ZM141,90.81h-1.84v.48H141Zm0,1.46h-1.84v.5H141Zm2.56,3.57h-.8c0,.15,0,.65,0,.76h.83Zm2.79,5.3a4.66,4.66,0,0,0-.69-1.9,3.76,3.76,0,0,0,.75.11c.25,0,.52,0,.52-.46V94h-3.61V89.52h5.47V99.63C148.75,100.84,148,101.15,146.31,101.14Zm.58-10.33H145v.48h1.87Zm0,1.46H145v.5h1.87Z"/>
          <path class="cls-1" d="M150.06,93v-1.7h1.13a18.73,18.73,0,0,0,.22-2.06l1.75.26c.2,0,.26.08.26.17s-.08.14-.33.18c-.08.74-.12,1.08-.18,1.45h1.94a18.87,18.87,0,0,1-.77,5.56,12.37,12.37,0,0,1,1.31,1.83,13.31,13.31,0,0,0-1.51,1.05,4.79,4.79,0,0,0-.61-1.06,9.25,9.25,0,0,1-1.79,2.41,4.82,4.82,0,0,0-1.61-.91,10.64,10.64,0,0,0,2.23-2.93c-.06-.07-.36-.35-.53-.54l-.21.45a4.12,4.12,0,0,0-1.58-.67A15.53,15.53,0,0,0,150.89,93Zm2.55,0c-.21.93-.25,1.07-.49,2l.63.54a10.7,10.7,0,0,0,.33-2.52Zm7.66-2.19a18.63,18.63,0,0,1,1.91,3.9,6.94,6.94,0,0,0-1.59.83c-.22-.58-.28-.71-.36-.92-1,.1-1.21.12-4.73.35,0,.11,0,.35-.24.35s-.18-.11-.19-.23l-.21-1.89,1.1,0a22.07,22.07,0,0,0,1-4l2,.36c.14,0,.22.05.22.16s0,.17-.35.23c-.13.42-.67,2.22-.79,2.59s-.16.43-.21.57l1.66-.1c-.48-.93-.63-1.17-.78-1.41Zm-3,9.83v.45h-1.8V95.65h5.91v5.46h-1.86v-.45ZM159.55,99V97.34H157.3V99Z"/>
          <path class="cls-1" d="M174.18,93.76l.95.94a18.6,18.6,0,0,1-3.07,3.88,4.5,4.5,0,0,0-1.56-1.26,7.77,7.77,0,0,0,1.65-1.73H170v4c0,1.45-.91,1.62-3,1.58a4.47,4.47,0,0,0-.63-1.91,5.35,5.35,0,0,0,1.05.11c.56,0,.62-.19.62-.77v-3h-5V93.76h5.37a23.87,23.87,0,0,0-2.83-1.15l1.23-1.35h-2.55V89.6h8.49l.73,1a18.52,18.52,0,0,1-2.85,2.22,5.3,5.3,0,0,1,.73.44c-.19.14-.35.25-.64.5Zm-7.2-2.5c.23.09,1.24.44,1.93.72a8.54,8.54,0,0,0,1-.72Z"/>
          <path class="cls-1" d="M183,95.58h3.42v1.7H183v1.94l1.21,0a36.94,36.94,0,0,0,4-.22,4.27,4.27,0,0,0-.46,2h-5.09a4.43,4.43,0,0,1-3.83-1.82,9.33,9.33,0,0,1-1.23,2,3.82,3.82,0,0,0-1.85-.8A9.11,9.11,0,0,0,178,95.1l2,.35c.12,0,.26,0,.26.2s-.08.16-.37.26c-.06.33-.13.65-.3,1.28A2.85,2.85,0,0,0,181,98.88v-4.5h-3.37v-1h-1.62v-3H181V89.15l2,.13c.19,0,.36,0,.36.16s-.07.16-.36.29v.65h5v3h-1.51v1H183Zm3-2.88V92h-8.1v.75Z"/>
          <path class="cls-1" d="M200.68,91.64c-3.21-.06-6,2.83-6,4.94,0,1.51,1.91,2.25,3.68,2.28a17.43,17.43,0,0,0-1,2.37c-1.06-.29-4.79-1.33-4.79-4.43A5.89,5.89,0,0,1,195,92.33a33.84,33.84,0,0,0-5.38.82l-.3-2.45a42.08,42.08,0,0,0,5.79-.3,31.45,31.45,0,0,0,5.21-1Zm-2.15,1.84a8.26,8.26,0,0,1,1.21,1.39c-.37.26-.55.41-1,.78a10.3,10.3,0,0,0-1.15-1.46Zm1.36-.92a7.94,7.94,0,0,1,1.16,1.37,11,11,0,0,0-1,.8,9.64,9.64,0,0,0-1.16-1.47Z"/>
          <path class="cls-1" d="M209.37,89.47c.21,0,.32,0,.32.14s-.15.19-.26.22c0,.23,0,.39-.06.91,3.66-.16,4.07-.17,4.31-.2,0,.28,0,1.57,0,2.1-2.36-.12-3.34-.12-4.29-.11a9.61,9.61,0,0,0,0,1.45,4.26,4.26,0,0,1,.75,2.49,6.15,6.15,0,0,1-3,5,9.13,9.13,0,0,0-1.9-1.34,4.57,4.57,0,0,0,2.39-1.87,1.48,1.48,0,0,1-1,.31,1.75,1.75,0,0,1-1.4-.58,3.27,3.27,0,0,1-.56-1.93,2.44,2.44,0,0,1,2.72-2.73c0-.41,0-.53,0-.73a36.15,36.15,0,0,0-5.19.68l-.14-2.2c.3,0,.8,0,5.28-.27a13.89,13.89,0,0,0-.18-1.65Zm-3,6.5c0,.85.42,1.09.66,1.09.4,0,.63-.6.63-1.25,0-.3-.06-.81-.58-.81S206.37,95.43,206.37,96Z"/>
          <path class="cls-1" d="M219,99.09a1.83,1.83,0,1,1-1.83-1.84A1.84,1.84,0,0,1,219,99.09Zm-2.86,0a1,1,0,0,0,2.06,0,1,1,0,1,0-2.06,0Z"/>
        </g>
      </g>
    </g>
  </g>
</svg>
