<svg xmlns="http://www.w3.org/2000/svg" width="600" height="240" viewBox="0 0 600 240">
  <defs>
    <style>
      .cls-1 {
        fill: #00b4dc;
      }

      .cls-2 {
        fill: #fff;
      }
    </style>
  </defs>
  <g id="レイヤー_2" data-name="レイヤー 2">
    <g id="レイヤー_1-2" data-name="レイヤー 1">
      <g>
        <path class="cls-1" d="M595,0H96V57.6L72,30.32,48,60.63V0H5C2.25,0,0,2.84,0,6.32V233.68C0,237.16,2.25,240,5,240H595c2.75,0,5-2.84,5-6.32V6.32C600,2.84,597.75,0,595,0Z"/>
        <g>
          <path class="cls-2" d="M156.43,50.35a8.42,8.42,0,0,1-2.87,6.7q-2.87,2.51-8,2.51H126.76V27.08h15.7a21.35,21.35,0,0,1,5.31.58,10.57,10.57,0,0,1,3.65,1.61,6.59,6.59,0,0,1,2.06,2.4,6.79,6.79,0,0,1,.68,3,8,8,0,0,1-2.45,5.78,6.35,6.35,0,0,1-2.1,1.37,12.9,12.9,0,0,1,5.08,3.32A7.61,7.61,0,0,1,156.43,50.35ZM145,36.43a3.16,3.16,0,0,0-1.55-3.12,11.29,11.29,0,0,0-4.83-.77h-2.06v7.78h2.11a11.1,11.1,0,0,0,4.84-.78C144.5,39,145,38,145,36.43ZM146.59,50q0-4.17-6.05-4.17h-4V54.1h4Q146.58,54.1,146.59,50Z"/>
          <path class="cls-2" d="M194.16,45a15,15,0,0,1-1.56,7.11,12.52,12.52,0,0,1-4.13,4.65,17.71,17.71,0,0,1-5.53,2.46A24,24,0,0,1,177,60a23.63,23.63,0,0,1-8-1.4,14.31,14.31,0,0,1-6.53-4.79A13.88,13.88,0,0,1,159.84,45V27.08h9.78V42.47a13.31,13.31,0,0,0,.92,5.31,6.4,6.4,0,0,0,2.58,3.07,8.17,8.17,0,0,0,7.72,0,6.35,6.35,0,0,0,2.59-3,13.08,13.08,0,0,0,.93-5.3V27.08h9.8Z"/>
          <path class="cls-2" d="M231.13,27.08l-12.72,17.6V59.56h-9.8V44.87l-13-17.79h10.17l7.45,10.21,7.48-10.21Z"/>
          <path class="cls-2" d="M257.58,59.56H233.09V27.08h24.1v6.51h-14.3v5.95h13.64v6.54H242.89V53h14.69Z"/>
          <path class="cls-2" d="M293.2,59.56H282.68l-2.56-5.77a24.08,24.08,0,0,0-2.53-4.62,5.43,5.43,0,0,0-2.19-1.88,7.85,7.85,0,0,0-2.75-.41h-1.11V59.56h-9.79V27.08h16.66A12.06,12.06,0,0,1,285,28.72a9.85,9.85,0,0,1,3.72,4,10.32,10.32,0,0,1,1.13,4.45,8.34,8.34,0,0,1-.95,4.16,7.63,7.63,0,0,1-2,2.48,20.12,20.12,0,0,1-2.37,1.47,9.43,9.43,0,0,1,2.59,2.17,27.22,27.22,0,0,1,2.78,5.08ZM279.89,37.34a3.35,3.35,0,0,0-1.48-3.14,9.73,9.73,0,0,0-4.8-.89h-2.07v7.83h2.11c2.39,0,4-.26,4.91-.79A3.18,3.18,0,0,0,279.89,37.34Z"/>
          <path class="cls-2" d="M303.9,34a9.28,9.28,0,0,1-.62,3.23,9.81,9.81,0,0,1-1.95,3.13,11.36,11.36,0,0,1-3.46,2.53,16.66,16.66,0,0,1-5,1.45v-1.5c2.46-.92,3.68-3,3.68-6.21v-.49q-3.68-1.07-3.68-4.62a4.69,4.69,0,0,1,.66-2.4,5,5,0,0,1,1.8-1.82,4.92,4.92,0,0,1,2.53-.68,5.25,5.25,0,0,1,3.37,1.1,6.63,6.63,0,0,1,2,2.81A9.82,9.82,0,0,1,303.9,34Z"/>
          <path class="cls-2" d="M330.05,50.12a9,9,0,0,1-1.56,5.27,9.9,9.9,0,0,1-4.35,3.41,16.24,16.24,0,0,1-6.4,1.18c-.67,0-1.49,0-2.47-.13a27,27,0,0,1-3.89-.71,30,30,0,0,1-5.05-1.74v-8A36.94,36.94,0,0,0,311.17,52a12.92,12.92,0,0,0,5.1,1c1.67,0,2.75-.27,3.24-.83a2.43,2.43,0,0,0,.74-1.56A2.65,2.65,0,0,0,319,48.37a18.22,18.22,0,0,0-3.68-1.86,28.84,28.84,0,0,1-4.69-2.45,11.08,11.08,0,0,1-3.29-3.32A8.48,8.48,0,0,1,306.05,36a8.61,8.61,0,0,1,5.22-8.13,14.87,14.87,0,0,1,6.47-1.27,22.64,22.64,0,0,1,5,.53,21.44,21.44,0,0,1,3.81,1.18,15.13,15.13,0,0,1,2.06,1V37a27.11,27.11,0,0,0-4.44-2.55A12.4,12.4,0,0,0,319,33.31a4,4,0,0,0-2.65.7,2.23,2.23,0,0,0-.82,1.74,2.15,2.15,0,0,0,.82,1.66,14.54,14.54,0,0,0,2.93,1.71,57.54,57.54,0,0,1,6,3.17,11.82,11.82,0,0,1,3.53,3.24A7.89,7.89,0,0,1,330.05,50.12Z"/>
          <path class="cls-2" d="M379.55,43.9a15.49,15.49,0,0,1-1.81,8,17.13,17.13,0,0,1-4.28,4.9q-3.49,2.74-9.77,2.74H346.15V27.08h13.5a37.05,37.05,0,0,1,5.22.31,23.16,23.16,0,0,1,3.9.89,16.15,16.15,0,0,1,3,1.29,14.76,14.76,0,0,1,2.18,1.54,14.48,14.48,0,0,1,2.92,3.21,15.42,15.42,0,0,1,2,4.29A17.9,17.9,0,0,1,379.55,43.9Zm-10-.42a10.8,10.8,0,0,0-1.51-6.17,7.42,7.42,0,0,0-3.63-3,12.94,12.94,0,0,0-4.33-.75H356V52.83h4.17A12,12,0,0,0,366.78,51Q369.59,49.18,369.59,43.48Z"/>
          <path class="cls-2" d="M418.87,59.56h-10L406.19,53H392.08l-2.69,6.59h-10l14.36-32.48h10.83ZM403.94,47.33l-4.76-11.86-4.8,11.86Z"/>
          <path class="cls-2" d="M452.47,27.08l-12.72,17.6V59.56H430V44.87L417,27.08h10.17l7.45,10.21,7.48-10.21Z"/>
          <path class="cls-2" d="M477.14,50.12a9,9,0,0,1-1.56,5.27,9.92,9.92,0,0,1-4.34,3.41,16.27,16.27,0,0,1-6.4,1.18c-.67,0-1.5,0-2.48-.13a27.24,27.24,0,0,1-3.89-.71,30.34,30.34,0,0,1-5.05-1.74v-8A37.59,37.59,0,0,0,458.26,52a13,13,0,0,0,5.1,1c1.67,0,2.75-.27,3.25-.83a2.41,2.41,0,0,0,.73-1.56,2.65,2.65,0,0,0-1.26-2.21,18,18,0,0,0-3.68-1.86,29.69,29.69,0,0,1-4.69-2.45,11.19,11.19,0,0,1-3.29-3.32A8.56,8.56,0,0,1,453.14,36a8.6,8.6,0,0,1,5.23-8.13,14.81,14.81,0,0,1,6.47-1.27,22.54,22.54,0,0,1,5,.53,21.44,21.44,0,0,1,3.81,1.18,16.09,16.09,0,0,1,2.07,1V37a26.81,26.81,0,0,0-4.45-2.55,12.35,12.35,0,0,0-5.23-1.13,4,4,0,0,0-2.65.7,2.2,2.2,0,0,0-.82,1.74,2.11,2.11,0,0,0,.82,1.66,14,14,0,0,0,2.93,1.71,57.54,57.54,0,0,1,6,3.17,11.77,11.77,0,0,1,3.52,3.24A7.81,7.81,0,0,1,477.14,50.12Z"/>
        </g>
        <rect class="cls-2" x="60" y="84" width="480" height="2.4"/>
        <g>
          <path class="cls-2" d="M192.54,137.14v4h-2.15v7.14H184v-1.38h-7.91v2.75c0,2.19-.56,3.7-7,3.7-.86,0-1.72,0-2.28-.09a16,16,0,0,0-2-5.37,34.52,34.52,0,0,0,3.66.34c1.24,0,1.24-.43,1.24-1.33H156.34v-4.3h13.41v-1.46H153.37v-4h16.38v-1.38H156.34V132h13.41v-1.21H158.83V122h10.92v-1.2H153.37v-4.52h16.38V114l6.67.26a.58.58,0,0,1,.64.56c0,.38-.25.47-.94.81v.73h16.25v4.52H176.12V122h10.75v8.73H176.12V132h14.27v5.16Zm-22.79-10v-1.68h-5.24v1.68Zm6.37-1.68v1.68h5.2v-1.68ZM184,137.14v-1.38h-7.91v1.38Zm0,5.5v-1.46h-7.91v1.46Z"/>
          <path class="cls-2" d="M218.21,119.76a31.84,31.84,0,0,0,3.7-6.06l6.45,1.63c.3.09.6.22.6.52,0,.47-.6.69-1.24.6-1.12,1.77-1.55,2.5-2.15,3.31h9.84v5.38H196.2v-5.38h9.46a19.81,19.81,0,0,0-2.45-3.65l5.8-2.62a28,28,0,0,1,3.48,5.37l-2.32.9ZM204.41,144v9.28h-6V126.56H215.5v22.53c0,3.52-1.84,4-7.52,4.21a12.39,12.39,0,0,0-2.19-6.1c.64,0,1.93.21,2.58.21.81,0,1.29-.08,1.29-1.37v-2Zm5.25-10.93V131.2h-5.25v1.89Zm0,6.41v-1.93h-5.25v1.93Zm14.66-12.26c.39,0,.64.13.64.44s-.25.47-.64.73v17.11h-6.19V127Zm9.07-.9c.39,0,.78.09.78.48s-.48.55-1,.86v20.51c0,1.59,0,3-1.84,4.17-1.55,1-3.4,1-7,.94a16,16,0,0,0-1.42-6.45c.73.09,2.32.3,3,.3,1.07,0,1.07-.68,1.07-1.2V126Z"/>
          <path class="cls-2" d="M262.72,126.39l-4,23.73H249.9l-7.78-33.88h7.7l4.82,25.15,4.21-25.15h7.74l4.21,25.15,4.82-25.15h7.7l-7.79,33.88h-8.77Z"/>
          <path class="cls-2" d="M315.09,144.06v6.06H287.31V116.24h27.22v6.06H295.06v7.61h17.19v5.81H295.06v8.34Z"/>
          <path class="cls-2" d="M319.78,150.12V116.24H338c6.62,0,10.67,3.61,10.67,8.68s-3.44,6.32-5.12,7a8.59,8.59,0,0,1,3.27,1.55,8.28,8.28,0,0,1,3.22,6.84c0,5.8-4.56,9.8-11.14,9.8Zm7.74-19.78h8.77c3.18,0,4.13-2.45,4.13-4.3,0-1.46-.65-3.91-4.13-3.91h-8.77Zm0,13.89h8.73c2.75,0,5.5-1.25,5.5-4.69,0-3.78-3.35-4.38-5.5-4.38h-8.73Z"/>
          <path class="cls-2" d="M370.65,143.84v-10a24.93,24.93,0,0,1-3.48,2.37,21.82,21.82,0,0,0-4.26-4.77,30,30,0,0,0,5.46-3.74,29.7,29.7,0,0,0-3.53-2.76l4.13-4.21a28.75,28.75,0,0,1,3.87,2.71,12.67,12.67,0,0,0,2.58-3.57h-7.95v-5.12H382.3l1.94,2.07a35.25,35.25,0,0,1-4.13,7.31h8.81a28.06,28.06,0,0,1-5.07-8.47l5.46-2.07a26.89,26.89,0,0,0,1.85,3.57,21.44,21.44,0,0,0,2.62-3.27l4.52,2.84c.17.09.47.3.47.52,0,.51-.73.55-1.16.55-1.42,1.81-2.58,3.14-3.1,3.66.48.56.82.9,1.16,1.25a53.18,53.18,0,0,0,3.92-4.65l4,2.71c.34.26.77.52.77.82,0,.56-.64.6-1.29.64a32.37,32.37,0,0,1-3.7,3.87,29.71,29.71,0,0,0,6.07,4c-1.77,1.29-3.83,4.91-4,5.12a46.6,46.6,0,0,1-4-2.84v11.48h-3.09c.3.13.47.3.47.6s-.43.69-.9.74a16.89,16.89,0,0,1-.91,2.36h10.54v5.2h-39v-5.2h11c-.17-.51-.82-2.19-1.2-3.14l2.1-.56Zm6.41-16c-1.12,1.2-1.55,1.68-3.49,3.48h22.71a40,40,0,0,1-4.48-4v2.24H377.06Zm-.22,8.3v2.75h14.49v-2.75Zm4,7.65c.39.95.69,1.68,1.21,3.27l-1.55.43h5.8a30.92,30.92,0,0,0,1.29-3.7Z"/>
          <path class="cls-2" d="M422.59,129.61h-3.14v2.24h4.3v5.46h-4.3v5.84A25.31,25.31,0,0,0,421,138l4.9,1c.26,0,.65.13.65.56s-.65.6-1.25.64c-.17.65-.26.86-.86,2.67a50.78,50.78,0,0,0,8.56-3.06v-7.05H429.9a43.29,43.29,0,0,1,3,5.51,40.22,40.22,0,0,0-4.64,3,35.42,35.42,0,0,0-3.1-5.85l4.39-2.71h-4.9v-5.07H438.2V126H427.32v-4.6H438.2v-1.64H425.26v-5.24h19.09v13.2H447v5.07h-5.11l4.77,2.32a.72.72,0,0,1,.47.61c0,.43-.3.51-1.12.64a38.92,38.92,0,0,1-3.48,5.12,31.63,31.63,0,0,0,5.38,4.34,20.64,20.64,0,0,0-3.53,5.46,37.06,37.06,0,0,1-5.76-5.85v3.66c0,4.26-2.8,4.26-7.91,4.26a20,20,0,0,0-2.2-5.81c-.43.22-.56.26-1.16.52,0,.81-.13,1.55-.86,1.55a.69.69,0,0,1-.51-.48l-1.55-6.19a19.89,19.89,0,0,1-.9,2.19,17,17,0,0,0-4.05-1v2c3.14-.6,4.05-.82,4.86-1a17.52,17.52,0,0,0-.56,5.37c-5.46,1.21-9.89,1.94-14.06,2.54-.08.65-.21,1.21-.81,1.21-.39,0-.48-.35-.52-.65l-1-5.93c1.76-.09,4.77-.43,6.36-.6v-2a28.22,28.22,0,0,0-4.51,1.54A41.17,41.17,0,0,0,407,140l4.86-1.55a47.85,47.85,0,0,1,1.84,5.24v-6.4H408.1v-5.46h5.63v-2.24h-3.35V128a15.39,15.39,0,0,0-4.51-4.26,19.68,19.68,0,0,0,8.25-9.59l6.11,1.2c.47.09.64.22.64.48,0,.47-.47.73-1,.77a32.37,32.37,0,0,0,6.24,6,17.86,17.86,0,0,0-3.53,2.79Zm-2.53-5a20.29,20.29,0,0,1-3.23-3.87c-1,1.33-1.68,2.23-3.05,3.87ZM433,145.3c-1.08.61-2.67,1.47-4,2,.39,0,2.45.25,2.71.25,1.25,0,1.25-.86,1.25-1.37Zm5.63-8.9c.08.13.21.39.3.56a24.42,24.42,0,0,0,2.28-4.17h-2.58Z"/>
        </g>
        <rect class="cls-2" x="50" y="179.01" width="500" height="45.77"/>
        <g>
          <path class="cls-1" d="M146.37,195.51h-7.2l-.63,3.34a5.75,5.75,0,0,1,3.36-.9c2.69,0,5.63,1.66,5.63,5.42,0,3.55-2.52,6.07-7,6.07-6,0-6.63-3.76-6.86-5.09h4c.4,1.94,2.56,1.94,3,1.94,1.91,0,3.1-1.12,3.1-2.75a2.75,2.75,0,0,0-2.91-2.82,3.22,3.22,0,0,0-2.46.86h-4.14l1.7-9.15h10.52Z"/>
          <path class="cls-1" d="M161,203.72a10.4,10.4,0,0,1-4.14,6.93,9.45,9.45,0,0,0-2.62-2.2c3.84-2.56,3.8-6.55,3.8-8.65v-8h13.14V207.4c0,2.27-.54,3.17-4.72,3a9.54,9.54,0,0,0-1.05-3.44,12.4,12.4,0,0,0,1.72.23c.72,0,.76-.44.76-1.2v-2.27Zm6.89-7.43V194.8h-6.66v1.49Zm0,4.41v-1.51h-6.66v1.51Z"/>
          <path class="cls-1" d="M180.2,209V198.22h-3.59v-2.75c2.12-.06,3.64-.42,4.41-3h3.09V209Z"/>
          <path class="cls-1" d="M203,195.51h-7.2l-.63,3.34a5.73,5.73,0,0,1,3.36-.9c2.69,0,5.63,1.66,5.63,5.42,0,3.55-2.52,6.07-7,6.07-6,0-6.63-3.76-6.87-5.09h4c.4,1.94,2.56,1.94,3,1.94,1.91,0,3.11-1.12,3.11-2.75a2.75,2.75,0,0,0-2.92-2.82,3.2,3.2,0,0,0-2.45.86h-4.14l1.7-9.15H203Z"/>
          <path class="cls-1" d="M216.68,208.55v1.16h-3.3V192.58h15.06v17.13h-3.3v-1.16Zm8.46-9.55v-3.51h-8.46V199Zm0,6.55v-3.71h-8.46v3.71Z"/>
          <path class="cls-1" d="M240.77,211.79a17.61,17.61,0,0,1,0-19.36h2.87a20.65,20.65,0,0,0,0,19.36Z"/>
          <path class="cls-1" d="M256.94,203.72a10.4,10.4,0,0,1-4.14,6.93,9.45,9.45,0,0,0-2.62-2.2c3.84-2.56,3.8-6.55,3.8-8.65v-8h13.14V207.4c0,2.27-.55,3.17-4.72,3a9.75,9.75,0,0,0-1-3.44,12,12,0,0,0,1.72.23c.71,0,.75-.44.75-1.2v-2.27Zm6.88-7.43V194.8h-6.65v1.49Zm0,4.41v-1.51h-6.65v1.51Z"/>
          <path class="cls-1" d="M276.72,211.79a20.65,20.65,0,0,0,0-19.36h2.88a18.44,18.44,0,0,1,2.87,9.68c0,2.56-.84,6.91-2.87,9.68Z"/>
          <path class="cls-1" d="M292.85,205.91V201a12.83,12.83,0,0,1-1.7,1.15,10.6,10.6,0,0,0-2.08-2.33,13.89,13.89,0,0,0,2.66-1.83,15.8,15.8,0,0,0-1.72-1.34l2-2.06a15.08,15.08,0,0,1,1.89,1.32,6.28,6.28,0,0,0,1.26-1.74h-3.89v-2.5h7.25l.94,1a16.62,16.62,0,0,1-2,3.57h4.3a13.73,13.73,0,0,1-2.48-4.14l2.67-1a12.74,12.74,0,0,0,.9,1.74,10,10,0,0,0,1.28-1.6l2.21,1.39c.08,0,.23.15.23.25,0,.25-.36.27-.57.27A22.49,22.49,0,0,1,304.5,195c.23.27.4.44.57.61a27.17,27.17,0,0,0,1.91-2.27l1.95,1.32c.17.13.38.26.38.4s-.32.3-.63.32a17.13,17.13,0,0,1-1.81,1.89,14.89,14.89,0,0,0,3,1.95,10.12,10.12,0,0,0-1.93,2.5A22.49,22.49,0,0,1,306,200.3v5.61h-1.51a.3.3,0,0,1,.23.29c0,.21-.21.34-.44.36a7.9,7.9,0,0,1-.44,1.15H309v2.55H289.89v-2.55h5.35c-.08-.25-.4-1.07-.59-1.53l1-.27Zm3.13-7.79c-.55.59-.76.82-1.71,1.7h11.09a19.48,19.48,0,0,1-2.18-2v1.09H296Zm-.11,4v1.34H303v-1.34Zm2,3.74c.19.46.34.82.59,1.59l-.75.21h2.83a17.35,17.35,0,0,0,.63-1.8Z"/>
          <path class="cls-1" d="M318.21,199h-1.53v1.09h2.1v2.67h-2.1v2.85a12.12,12.12,0,0,0,.74-2.5l2.39.49c.13,0,.31.06.31.27s-.31.29-.6.31c-.09.32-.13.42-.42,1.31a25.89,25.89,0,0,0,4.17-1.49v-3.45h-1.49a19.84,19.84,0,0,1,1.47,2.69,20.12,20.12,0,0,0-2.26,1.49,17.37,17.37,0,0,0-1.52-2.85l2.15-1.33h-2.4V198h6.62v-.84h-5.32V195h5.32v-.8h-6.32v-2.56h9.32V198h1.28v2.48h-2.5l2.33,1.14a.34.34,0,0,1,.23.29c0,.21-.15.25-.54.32a19.23,19.23,0,0,1-1.7,2.49,14.73,14.73,0,0,0,2.62,2.12,10.21,10.21,0,0,0-1.72,2.67,17.75,17.75,0,0,1-2.82-2.86v1.79c0,2.08-1.36,2.08-3.86,2.08a9.57,9.57,0,0,0-1.07-2.84c-.21.11-.27.13-.57.26,0,.39-.06.75-.42.75a.33.33,0,0,1-.25-.23l-.75-3c-.24.63-.3.75-.44,1.07a8,8,0,0,0-2-.48v1c1.53-.29,2-.4,2.37-.5a8.77,8.77,0,0,0-.27,2.62c-2.67.59-4.83,1-6.86,1.24-.05.32-.11.59-.4.59s-.23-.17-.25-.32l-.49-2.89c.86,0,2.33-.21,3.11-.3v-1a12.92,12.92,0,0,0-2.2.75,19.84,19.84,0,0,0-1.08-3.21l2.38-.76a23.54,23.54,0,0,1,.9,2.56v-3.12h-2.75v-2.67h2.75V199h-1.64v-.8a7.71,7.71,0,0,0-2.2-2.08,9.68,9.68,0,0,0,4-4.68l3,.59c.23,0,.31.1.31.23s-.23.36-.48.38a16.07,16.07,0,0,0,3.05,2.91,8.61,8.61,0,0,0-1.73,1.37ZM317,196.5a9.84,9.84,0,0,1-1.58-1.89c-.48.65-.82,1.09-1.49,1.89Zm6.29,10.12a20.39,20.39,0,0,1-1.93,1c.19,0,1.2.13,1.33.13.6,0,.6-.42.6-.68Zm2.75-4.34a1.36,1.36,0,0,1,.15.27,11.35,11.35,0,0,0,1.11-2H326Z"/>
          <path class="cls-1" d="M345,205.53V210H342.3v-4.51h-1.55a7.94,7.94,0,0,1-3.22,5,6,6,0,0,0-2.35-1.56v1.51h-3V191.76H341v7.3h-5.8v9.85a5,5,0,0,0,2.9-3.38h-2.16V203.2h2.43c0-.38,0-.84,0-1.24h-1.93v-2.2h10.19V202H345v1.24h2.1v2.33Zm-6.81-11.69h-3v.77h3Zm0,2.37h-3v.8h3ZM342.3,202H341c0,.25,0,1,0,1.24h1.34Zm4.49,8.57a7.23,7.23,0,0,0-1.11-3.07,6,6,0,0,0,1.22.17c.4,0,.84,0,.84-.73v-7.84H341.9v-7.3h8.84v16.33C350.74,210,349.54,210.55,346.79,210.53Zm.95-16.69h-3v.77h3Zm0,2.37h-3v.8h3Z"/>
          <path class="cls-1" d="M352.87,197.41v-2.74h1.82c.25-1.78.32-2.58.36-3.33l2.81.42c.34,0,.42.12.42.27s-.12.23-.52.29c-.13,1.2-.19,1.75-.3,2.35h3.13a30.34,30.34,0,0,1-1.24,9,19.34,19.34,0,0,1,2.12,3,19.44,19.44,0,0,0-2.43,1.7,9.29,9.29,0,0,0-1-1.72,15.12,15.12,0,0,1-2.9,3.91,7.24,7.24,0,0,0-2.6-1.47,17.27,17.27,0,0,0,3.61-4.75c-.1-.1-.59-.57-.86-.86-.19.42-.25.55-.33.71a7,7,0,0,0-2.57-1.07,25.79,25.79,0,0,0,1.81-5.64Zm4.11,0c-.33,1.51-.4,1.74-.8,3.21l1,.86a18.15,18.15,0,0,0,.53-4.07Zm12.37-3.53a28.87,28.87,0,0,1,3.08,6.3,11.48,11.48,0,0,0-2.56,1.34c-.35-.94-.46-1.15-.59-1.49-1.63.17-1.95.19-7.64.57,0,.16-.06.56-.38.56s-.29-.19-.31-.37l-.34-3,1.79,0a35.92,35.92,0,0,0,1.64-6.45l3.17.59c.23,0,.35.08.35.25s-.08.28-.56.38c-.21.67-1.1,3.59-1.28,4.18-.15.44-.26.69-.34.92l2.69-.16c-.78-1.5-1-1.9-1.26-2.27Zm-4.79,15.87v.74h-2.92v-8.82h9.55v8.82h-3v-.74Zm3.63-2.73V204.4h-3.63V207Z"/>
          <path class="cls-1" d="M391.82,198.6l1.53,1.53a29.87,29.87,0,0,1-5,6.26,7.19,7.19,0,0,0-2.52-2,11.93,11.93,0,0,0,2.66-2.79H385.1V208c0,2.35-1.47,2.62-4.85,2.56a7.19,7.19,0,0,0-1-3.09,8.62,8.62,0,0,0,1.7.17c.9,0,1-.29,1-1.24v-4.83h-8.06v-3h8.67a39.29,39.29,0,0,0-4.58-1.85l2-2.18h-4.11v-2.69h13.71l1.18,1.62a31.63,31.63,0,0,1-4.6,3.59,10.79,10.79,0,0,1,1.17.71c-.31.23-.56.4-1,.8Zm-11.63-4c.37.15,2,.71,3.12,1.16a13.49,13.49,0,0,0,1.56-1.16Z"/>
          <path class="cls-1" d="M406.12,201.54h5.52v2.75h-5.52v3.13c.52,0,1.13,0,1.95,0a60,60,0,0,0,6.47-.36,7,7,0,0,0-.76,3.28h-8.21a7.19,7.19,0,0,1-6.19-2.94,16.44,16.44,0,0,1-2,3.32,6.25,6.25,0,0,0-3-1.3,14.61,14.61,0,0,0,3.57-8.7l3.24.57c.19,0,.42.09.42.34s-.13.25-.59.42c-.11.52-.21,1-.48,2a4.49,4.49,0,0,0,2.35,2.73v-7.26h-5.44V198h-2.62v-4.87h7.95v-2l3.22.21c.29,0,.56,0,.56.25s-.1.25-.56.46v1h8.06v4.79h-2.44v1.68h-5.52ZM411,196.9v-1.22H397.89v1.22Z"/>
          <path class="cls-1" d="M434.64,195.18c-5.19-.09-9.68,4.58-9.68,8,0,2.43,3.08,3.63,5.94,3.69a29.7,29.7,0,0,0-1.58,3.82c-1.7-.46-7.72-2.14-7.72-7.16a9.56,9.56,0,0,1,3.86-7.22,58.25,58.25,0,0,0-8.69,1.32l-.48-3.94a67.08,67.08,0,0,0,9.34-.49,50.08,50.08,0,0,0,8.42-1.53Zm-3.49,3a13.22,13.22,0,0,1,2,2.25c-.58.42-.88.65-1.61,1.26a17.28,17.28,0,0,0-1.87-2.38Zm2.21-1.49a13.46,13.46,0,0,1,1.86,2.2c-.52.4-.88.72-1.53,1.31a15.87,15.87,0,0,0-1.87-2.38Z"/>
          <path class="cls-1" d="M448.67,191.67c.33,0,.52.07.52.23s-.25.32-.42.36c0,.38-.06.63-.1,1.47,5.92-.25,6.57-.27,7-.31a32.15,32.15,0,0,0,0,3.38c-3.8-.19-5.4-.19-6.93-.17a17.91,17.91,0,0,0,0,2.33,6.87,6.87,0,0,1,1.22,4,9.9,9.9,0,0,1-4.87,8.1,14.4,14.4,0,0,0-3.07-2.16c.63-.25,3.11-1.3,3.86-3a2.33,2.33,0,0,1-1.65.5,2.81,2.81,0,0,1-2.27-.94,5.26,5.26,0,0,1-.91-3.11c0-4.62,3.95-4.47,4.39-4.41,0-.67,0-.86,0-1.18a56.43,56.43,0,0,0-8.37,1.1l-.23-3.55c.48,0,1.28,0,8.52-.44a24.82,24.82,0,0,0-.29-2.67Zm-4.85,10.5c0,1.39.69,1.76,1.07,1.76.65,0,1-1,1-2,0-.48-.11-1.3-.95-1.3S443.82,201.31,443.82,202.17Z"/>
          <path class="cls-1" d="M464.16,207.21a3,3,0,1,1-3-3A3,3,0,0,1,464.16,207.21Zm-4.61,0a1.66,1.66,0,1,0,1.65-1.66A1.65,1.65,0,0,0,459.55,207.21Z"/>
        </g>
      </g>
    </g>
  </g>
</svg>
