<svg xmlns="http://www.w3.org/2000/svg" width="115" height="30"><g data-name="レイヤー 2"><path d="M105 0H5a5 5 0 00-5 5v20a5 5 0 005 5h100l10-15z" fill="#3c82c8"/><path d="M20 12.9c.08 0 .17.06.17.17s-.17.16-.27.16a10.92 10.92 0 01-.54 2.35 9.23 9.23 0 011.85 1.28c-.51.71-.56.78-1 1.46a8.15 8.15 0 00-1.49-1.16 8.61 8.61 0 01-2.71 3.2 4.75 4.75 0 00-1.32-1.09 6.57 6.57 0 002.68-2.88 11.89 11.89 0 00-2.37-.84c-1.28 2.64-1.8 3.71-3 3.71a1.83 1.83 0 01-1.78-1.91A3.47 3.47 0 0114 14.1c.16-.38.83-2.08 1-2.42a22.23 22.23 0 01-2.76.52l-.35-1.71a11.41 11.41 0 004.39-.73l1 .88a17 17 0 00-1.78 3.53 12.83 12.83 0 012.4.75 9.75 9.75 0 00.34-2.63zm-8.4 4.45c0 .42.28.44.3.44.39 0 1.25-1.7 1.44-2.19a1.75 1.75 0 00-1.71 1.75zm16.66-7.24c.09 0 .18.08.18.19s-.15.13-.36.12c-.4.76-1.57 3.11-1.9 3.86a2.58 2.58 0 011.26-.28 1.45 1.45 0 011.63 1.53 5.16 5.16 0 01-.11 1 5.36 5.36 0 00-.17 1.29c0 .29 0 .73.59.73s2-1 2.73-2.08a9.85 9.85 0 001.08 1.29c-.48.55-2.14 2.47-4.21 2.47a1.69 1.69 0 01-1.8-1.81c0-.37.21-2 .21-2.36s-.12-.64-.58-.64c-.74 0-1.24.68-1.52 1.08A16.62 16.62 0 0023.6 20l-1.68-.71A80.08 80.08 0 0026 11c.11-.25.54-1.4.64-1.63zm6.34 1.38a8.27 8.27 0 001.3.09c.31 0 .63 0 1.32-.07.26-1 .36-1.58.45-2.08l1.61.5c.16.05.22.1.22.18s-.17.14-.24.14c0 .16-.26.85-.29 1a13 13 0 001.5-.43 11.23 11.23 0 000 1.53 13.69 13.69 0 01-2 .43 27.24 27.24 0 01-2.72 5.77 9.37 9.37 0 00-1.52-.62A18.67 18.67 0 0036.76 13c-.42 0-1.35.05-2 .07zm7.67 3.13a1.64 1.64 0 00-.49 1.21 7.2 7.2 0 00.13 1.27 13.27 13.27 0 012.59 1.54 12.12 12.12 0 00-.94 1.22A10.53 10.53 0 0042 18.72c-.18 1.55-1.73 1.57-2.33 1.57-1.68 0-2.69-.75-2.69-1.89 0-.77.54-1.81 2.3-1.81a7.07 7.07 0 011 .09 8.25 8.25 0 01-.08-1 2.35 2.35 0 01.8-1.8zm-2.93 3.18c-.38 0-.92.18-.92.61s.74.61 1 .61c.91 0 1-.5 1-.94a2.62 2.62 0 00-1.08-.28zm2.3-6.19a8.66 8.66 0 013.13 1.55c-.24.32-.61.82-.91 1.32a8.44 8.44 0 00-3-1.55zM49 10.35c.18.07.27.09.27.2s-.12.15-.3.17a15.31 15.31 0 00-.79 5 6.73 6.73 0 00.09 1.28c0-.1.4-.91.59-1.25a2.85 2.85 0 00.81.85 7.42 7.42 0 00-.81 3l-1.44.4a12.42 12.42 0 01-.8-4.65 24 24 0 01.75-5.64zM52.12 16a2.85 2.85 0 00-.3 1c0 .6.55.72 1.85.72a12.63 12.63 0 003-.32 6 6 0 00-.12 1.6 23.48 23.48 0 01-2.79.17c-2.4 0-3.4-.54-3.4-1.72a4.17 4.17 0 01.43-1.79zm-1.29-5c.33 0 .75.06 1.42.06a14.74 14.74 0 003.64-.38 15.18 15.18 0 00.11 1.58 18.92 18.92 0 01-3.76.34h-1.45zm8.84 1.18a14.14 14.14 0 012.91 1.64 8.52 8.52 0 00-1 1.36 11 11 0 00-2.83-1.64zm-.23 6.53a17.19 17.19 0 008.56-6.5 5.3 5.3 0 001 1.37 19.26 19.26 0 01-8.38 6.51c0 .12-.06.29-.2.29s-.12-.06-.18-.17zm1.44-9.2A17.58 17.58 0 0164 11c-.24.27-.78 1-1 1.33a12.41 12.41 0 00-3-1.54zM76.22 18h3.4v1.37h-8.16V18h3.28v-4.1h-2.42v-1.42h6.39v1.42h-2.49zm15.14-7.51a1.91 1.91 0 00.67-.1l1.13 1a4.63 4.63 0 00-.43.6 21.82 21.82 0 01-3.39 3.91 5.07 5.07 0 00-1.17-1.13A11.23 11.23 0 0090.76 12H82.5v-1.51zm-3.12 2.21c.08 0 .19 0 .19.12s-.14.22-.19.24a11.88 11.88 0 01-.61 3.53 7.33 7.33 0 01-3.07 3.55 8.66 8.66 0 00-1.42-1.07c1.79-1 3.59-2.36 3.36-6.48zm12.17 4.98v1.88h-1.83v-1.88zm-.06-7.57V13l-.35 3.57h-1L98.64 13v-2.89z" fill="#fff"/></g></svg>