<svg xmlns="http://www.w3.org/2000/svg" width="115" height="30"><g data-name="レイヤー 2"><path d="M105 0H5a5 5 0 00-5 5v20a5 5 0 005 5h100l10-15z" fill="#3c82c8"/><path d="M36.22 11l-1 2.82A2.78 2.78 0 0033 12.54c-.47 0-.7.18-.7.53a.43.43 0 00.22.33 6 6 0 001.15.54 11.18 11.18 0 011.58.73 2.18 2.18 0 01.83.85 2.53 2.53 0 01.28 1.2 2.51 2.51 0 01-1.09 2.19 5.68 5.68 0 01-3.21.75A11.2 11.2 0 0128 19l1-3a3.33 3.33 0 001 1 2.29 2.29 0 001.2.39.72.72 0 00.47-.15.41.41 0 00.19-.35.56.56 0 00-.18-.39 3.84 3.84 0 00-1-.5 9.49 9.49 0 01-1.18-.56 2.5 2.5 0 01-.81-.78 2.19 2.19 0 01-.35-1.27 2.55 2.55 0 011.08-2.24 5.64 5.64 0 013.2-.76 10.35 10.35 0 013.6.61zm5.17 8.52h-4v-8.95h4v3.28h2v-3.28h4v9h-4v-3.38h-2zm10.81 0h-4l3.1-8.95H57l3.11 9h-4L55.62 18h-2.91zm1.23-3.63h1.47l-.73-2.22zM61 10.57h5.84a3.48 3.48 0 012.38.77 2.44 2.44 0 01.87 1.91 2.27 2.27 0 01-1 2 7.58 7.58 0 011.73 4.29h-4.14a6.86 6.86 0 00-.51-2.54 1.29 1.29 0 00-1.23-.81v3.32H61zm3.95 1.84v1.73h.11c.71 0 1.07-.28 1.07-.84a.92.92 0 00-.22-.62.86.86 0 00-.72-.27zm14.21 4.86v2.25h-7.42v-8.95h7.42v2.25h-3.47v1.11h2.42v2.24h-2.42v1.1zm5.09-.27a8.75 8.75 0 01-1.51-4.09 2.69 2.69 0 01.56-1.74 1.78 1.78 0 011.43-.69 1.77 1.77 0 011.4.67 2.57 2.57 0 01.56 1.69A8.19 8.19 0 0185.17 17a1.46 1.46 0 01.69.52 1.39 1.39 0 01-.16 1.78 1.33 1.33 0 01-1 .41 1.38 1.38 0 01-1-.41 1.34 1.34 0 01-.41-1 1.4 1.4 0 01.24-.8 1.51 1.51 0 01.72-.5z" fill="#fff"/></g></svg>