<svg xmlns="http://www.w3.org/2000/svg" width="180" height="30"><g data-name="レイヤー 2"><path d="M180 15a15 15 0 01-15 15H15A15 15 0 010 15 15 15 0 0115 0h150a15 15 0 0115 15z" fill="#00b4dc"/><path d="M27.79 18.72c0-.15-.06-.21-.1-.33a18.94 18.94 0 01-2.21 1.36l-1.19.65-.48-1.47a5.84 5.84 0 00.92-.32V15c-.14.17-.21.29-.25.34l-.36.57a9.31 9.31 0 01-.67-1.41v5.3c0 .67 0 1.25.07 1.71h-1.5a14.33 14.33 0 00.08-1.71v-3.74a3.79 3.79 0 010-.49v-.45a13.14 13.14 0 01-1.24 3 4.67 4.67 0 00-.75-1.37 13.48 13.48 0 001.82-4.41h-.33a5.72 5.72 0 00-.93.05v-1.34a4.43 4.43 0 00.93.07h.53V10a9.46 9.46 0 00-.07-1.45h1.5a9.78 9.78 0 00-.07 1.45v1.15h.12a5.08 5.08 0 00.84-.06v1.4a5 5 0 00-.81-.05h-.12a6.31 6.31 0 001.21 2.22v-4.29A12.15 12.15 0 0024.68 9h3.74v5.29a8.21 8.21 0 000 1.17 6.18 6.18 0 00-.91-.05H26v2.62c.47-.25.81-.43 1.26-.71-.21-.42-.3-.6-.59-1.12l1-.43a15.11 15.11 0 011.18 2.31 13.54 13.54 0 001.47-2.79h-.42a9.06 9.06 0 00-1.26.06V14h.59v-3.58a3.29 3.29 0 00-.51 0V9a7.09 7.09 0 001.28.1h2.2a8 8 0 001.25-.1v1.44l-.76-.05a16.37 16.37 0 01-.62 3.61h.16a9.14 9.14 0 001.29-.07v1.47a8.43 8.43 0 00-1.35-.07h-.53c-.17.43-.22.57-.39 1h.59a4.58 4.58 0 00-.06.86v2.37c0 .3.06.38.29.38s.33-.06.38-.17a5 5 0 00.13-1.54v-.53a3.71 3.71 0 001.09.52 6.28 6.28 0 01-.39 2.62c-.23.33-.53.43-1.36.43-1.11 0-1.32-.18-1.32-1.16v-2.47a11.34 11.34 0 01-3.08 3.8 5.57 5.57 0 00-1.12-1.06 8.85 8.85 0 002.33-2.11zm-.62-7v-1.33H26v1.29zM26 14.17h1.17v-1.3H26zm4.8-.17a13.71 13.71 0 00.55-3.57h-.84V14zm8.13 1.81a9.27 9.27 0 00.52-.88h-2.13c-.73 0-1.19 0-1.63.05a10.13 10.13 0 00.06-1.36v-1a11.31 11.31 0 00-.06-1.43 13.57 13.57 0 001.56.07h1.53v-.88h-2.33a14.29 14.29 0 00-1.61.07V9a12.27 12.27 0 001.72.09h8.91A11.92 11.92 0 0047.21 9v1.49a14.68 14.68 0 00-1.63-.07h-2.5v.88h1.62a12.65 12.65 0 001.57-.07 12.69 12.69 0 00-.06 1.43v2.32a14.9 14.9 0 00-1.59-.05h-3.49c-.29.51-.34.6-.51.88h5a9.54 9.54 0 001.63-.08v1.45c-.47 0-.94-.07-1.63-.07h-1.31A6.48 6.48 0 0143 18.93a36.33 36.33 0 013.84 1.36l-1 1.29-.81-.36a28.22 28.22 0 00-3.33-1.32 13.74 13.74 0 01-6.32 1.53A5 5 0 0034.8 20h.31a13.52 13.52 0 004.7-.69c-1.62-.43-1.86-.49-3.27-.83a9.94 9.94 0 001.38-1.37h-1.5c-.68 0-1.15 0-1.61.07v-1.45a12.22 12.22 0 001.61.08zm-1.69-3.38v1.33h1.54v-1.33zm2.43 4.68a9.07 9.07 0 01-.67.73c.49.14.49.14 1.58.39.16 0 .35.09.84.23a4.16 4.16 0 001.22-1.35zm.49-5.81h1.53v-.88h-1.53zm0 2.46h1.53v-1.33h-1.53zm2.92 0h1.64v-1.33h-1.64zM56.67 15A1.67 1.67 0 1155 13.33 1.66 1.66 0 0156.67 15zm11.13 3.79a4.31 4.31 0 01-.11 1.21 1.24 1.24 0 01-1.29.82 4.4 4.4 0 01-2.65-1 2.06 2.06 0 01-.75-1.6 3 3 0 011.2-2.07 7.74 7.74 0 012-1.2V12.8h-2.44a1.87 1.87 0 00-.29 0v-1.54a9 9 0 001.69.12h1.05v-.92a9.68 9.68 0 00-.08-1.61h1.75a8.7 8.7 0 00-.08 1.53v.89a15.53 15.53 0 002.7-.53l.05 1.57-1.48.25a11.09 11.09 0 01-1.27.18v1.82a9.67 9.67 0 012.85-.39c2.34 0 4 1.43 4 3.42a3.11 3.11 0 01-3.18 3.19 2.26 2.26 0 01-2.3-1.55 4.73 4.73 0 01-.24-1.79 6.05 6.05 0 001.56-.62 4.58 4.58 0 000 .62 2.71 2.71 0 00.2 1.23 1 1 0 00.88.47A1.43 1.43 0 0073 17.56c0-1.2-1-2-2.48-2a9.14 9.14 0 00-2.68.46zm-1.58-2.25c-1 .56-1.67 1.17-1.67 1.68a.76.76 0 00.46.64 1.65 1.65 0 00.9.31c.24 0 .31-.12.31-.59zM74 13.71a11.88 11.88 0 00-2.81-3l1.32-.88a11.86 11.86 0 012.77 2.87zm4.65 5.98a11.52 11.52 0 00.08 1.72h-1.64a11.67 11.67 0 00.09-1.73V10.5c0-.74 0-1.13-.06-1.58a13.9 13.9 0 001.43.08H81a12.65 12.65 0 001.43-.05v4.89c-.34 0-.83-.05-1.29-.05h-2.49zm0-8.84H81v-.73h-2.35zm0 1.82H81v-.74h-2.35zm7.09 5.55a8.42 8.42 0 000 1 9.66 9.66 0 00-1 0h-3.08v.94h-1.49a10.77 10.77 0 00.07-1.36v-3a9.49 9.49 0 000-1h5.54a8.81 8.81 0 000 1zm-4.08-.37h2.66V16h-2.66zm7.23 1.84c0 .77-.13 1.13-.49 1.36a2.85 2.85 0 01-1.47.22c-.23 0-.38 0-1.31-.05a4.51 4.51 0 00-.39-1.49 16.48 16.48 0 001.72.13c.4 0 .47-.06.47-.37v-5.73h-2.71c-.46 0-1 0-1.27.05V8.92a13.43 13.43 0 001.41.08h2.66A14.33 14.33 0 0089 8.92a11.61 11.61 0 00-.07 1.57zm-4-8.84h2.57v-.73h-2.61zm0 1.82h2.57v-.74h-2.61zM93.42 10a16.44 16.44 0 00-.11 2.13 27 27 0 00.26 3.76c.24 1.45.69 2.35 1.14 2.35.21 0 .4-.21.57-.6a10.06 10.06 0 00.72-2.52 7.28 7.28 0 001.4 1.28c-.72 2.73-1.54 3.86-2.73 3.86-.94 0-1.69-.68-2.25-2s-.83-3.43-.89-7.31a6.64 6.64 0 000-.9zm6.62.63a14 14 0 013.16 7.54l-1.74.66a14.45 14.45 0 00-.9-4.05 12.47 12.47 0 00-2-3.45zm7.36 2.56a14.1 14.1 0 01-2.24 1.18 5.25 5.25 0 00-.81-1.43 14.25 14.25 0 003.57-2 9.6 9.6 0 002.2-2.34h1.67a9.05 9.05 0 002.35 2.4 13.22 13.22 0 003.57 1.92 7.91 7.91 0 00-.77 1.54 13.73 13.73 0 01-2.28-1.23v1a8.73 8.73 0 00-1.26-.06h-4.79a9.07 9.07 0 00-1.21.06zm-1.13 8.19a10.45 10.45 0 00.08-1.48v-3.26a11 11 0 00-.07-1.39 9.14 9.14 0 001.21.06h7a9.42 9.42 0 001.22-.06 9 9 0 00-.07 1.39v3.27a8.74 8.74 0 00.08 1.47h-1.66v-.71h-6.12v.71zm1.67-2.08h6.12v-2.64h-6.12zm5.44-6.66h.48A12.72 12.72 0 01111 9.91a9.8 9.8 0 01-2.75 2.73h5.15zm5.25 4.36a32.54 32.54 0 002.54-2.24v-2a17 17 0 00-2.13.21l-.1-1.58h.47c.25 0 1-.05 1.8-.1a10.11 10.11 0 000-1.05v-.72a2.93 2.93 0 00-.06-.62h1.81a6.57 6.57 0 00-.14 1.34v.91a.69.69 0 00.19-.07l.54.58a5.55 5.55 0 00-.8.91c0 .6 0 .91-.06.95a2.27 2.27 0 01.34-.27 6.44 6.44 0 014-1.54 3.88 3.88 0 012.73 1.15 4.11 4.11 0 011.24 2.89 4.32 4.32 0 01-2.23 4 5.57 5.57 0 01-2.49.53 7.25 7.25 0 01-2.09-.31 5.31 5.31 0 00-.26-1.82 6.31 6.31 0 002.49.52 2.76 2.76 0 002.86-2.9 2.25 2.25 0 00-2.4-2.44c-1.16 0-2.53.72-4.07 2.12v1.45c0 2 0 3.58.11 4.19h-1.82a13.55 13.55 0 00.09-2.24v-1.28a6.54 6.54 0 010-.82 5 5 0 01-.62.66 8.68 8.68 0 00-1.08 1.2zm25.49 3.36l-.63.07c-1 .11-2.88.21-3.8.21-2.62 0-3.75-.5-4.17-1.85a13.51 13.51 0 01-.26-3.82v-1.36a19.7 19.7 0 00-2.59.25l-.12-1.64a3.88 3.88 0 00.41 0c.13 0 .9 0 2.28-.13v-.43a14.1 14.1 0 00-.1-2.38h1.88a14.85 14.85 0 00-.13 2.73l4-.2a14 14 0 00-.09-2.77h1.76a5.85 5.85 0 00-.07 1v1.75a23.43 23.43 0 002.71-.12v1.67a4.14 4.14 0 00-.8-.05h-1.94a9 9 0 01-.37 3 1.71 1.71 0 01-1.71 1 4.53 4.53 0 01-2-.48v-.56a7.39 7.39 0 00-.09-1.15 4.24 4.24 0 001.83.69c.36 0 .52-.18.6-.73a13 13 0 00.13-1.75c-2.13.08-2.13.08-4.08.2V15c0 .73 0 2.26.07 2.54.11 1.17.71 1.47 3 1.47a11.18 11.18 0 004-.54zm5.34-8.22a11.93 11.93 0 01-1.46 1.75 6.2 6.2 0 00-1.19-1 7.84 7.84 0 001.83-2.29 6.26 6.26 0 00.69-1.85l1.61.38-.26.61c-.28.69-.3.73-.42 1h2V10a11.49 11.49 0 00-.08-1.37h1.73a8.08 8.08 0 00-.08 1.37v.75h2.94a10.16 10.16 0 001.51-.09v1.61a12 12 0 00-1.51-.08h-2.94v1.92h3.89a10.68 10.68 0 001.57-.09v1.66a11.26 11.26 0 00-1.57-.09h-2.69v4c0 .31.17.36 1 .36s1.27-.07 1.43-.29a5.09 5.09 0 00.28-2.13 5.31 5.31 0 001.51.54 5.4 5.4 0 01-.57 2.6 1.51 1.51 0 01-1 .6 11.79 11.79 0 01-1.94.12c-1.82 0-2.26-.22-2.26-1.13v-4.72H152a7.61 7.61 0 01-.33 2.17 5.45 5.45 0 01-2.19 2.85 9 9 0 01-2.13 1.06 6.56 6.56 0 00-.89-1.44 5.93 5.93 0 003.11-1.82 4 4 0 00.81-1.91c0-.23 0-.32.08-.91h-2.11a11.21 11.21 0 00-1.56.09V14a10.63 10.63 0 001.56.09h3.92v-1.95z" fill="#fff"/></g></svg>