<svg xmlns="http://www.w3.org/2000/svg" width="451.09" height="60"><path d="M32.36 18.83A15.3 15.3 0 0134.83 22c-.36.22-2 1.2-2.44 1.56a14.37 14.37 0 00-1.71-2.81c-.05.24-.29.29-.5.34V23c0 .94.38 1.08 1.39 1.08h2c.58 0 1.44 0 2-2.64a5.49 5.49 0 002.86 1.75c-.55 1.85-.72 2.5-1.56 3.1a2.78 2.78 0 01-1.85.41h-5.5c-2.35 0-2.64-1-2.64-2.48v-2.3c-.17.17-.6.12-.81.1a21.57 21.57 0 01-2.64 4.89A9.56 9.56 0 0020.74 25a13.25 13.25 0 002.62-4.89 9.56 9.56 0 00-2.78-1.35c1.87-3.36 1.87-5.54 1.87-8.4V7.09h10.17c-.09-1.15-.09-1.72-.12-2.32L36 5c.19 0 .41 0 .41.26s-.26.41-.65.58c0 .39 0 .67.07 1.22h1.92a8.58 8.58 0 00-1.12-1.24l2.23-1.56A17.43 17.43 0 0141 6.76c-.29.17-.39.24-.53.33H43V10h-4.81l3.32 1.32a.37.37 0 01.21.32c0 .31-.29.35-.72.4A28.75 28.75 0 0138.75 16a1.89 1.89 0 001 .6c.56 0 .77-1.1.87-1.85a5.85 5.85 0 002.59 1.85 5.56 5.56 0 01-1.46 3.39 2.14 2.14 0 01-1.3.38 19.33 19.33 0 012.9 4.2 8.15 8.15 0 00-1.46.77c-1.18.79-1.32.86-1.56 1a16.69 16.69 0 00-2.9-4.68l2.37-1.46a5.85 5.85 0 01-2.9-1.9 19.1 19.1 0 01-2.26 2.14A8 8 0 0032 18.3h-3.5v.7h-2.79v-5.59h6.94v4.44A19.09 19.09 0 0035 15.66 17.72 17.72 0 0133 10h-7.43c.05 1.83-.07 6.32-1.92 9.84l3 1.37a1 1 0 01.31.19v-1.32l3.27.31h.28a.61.61 0 00-.14-.17zm.48-8.21v2.14h-6.91v-2.14zm-4.34 4.73v.94h1.68v-.94zM36.15 10a17.84 17.84 0 00.85 2.9 13.73 13.73 0 001.1-2.9zm18 12.91a24.77 24.77 0 01-6.89 4 9.26 9.26 0 00-2.47-2.66 20.68 20.68 0 006.87-3.53h-6.51v-2.99h1.75a1.56 1.56 0 00-.12-.17L45 15a49.7 49.7 0 006.33-4.18 9.93 9.93 0 001.23 2.47 66.162 66.162 0 01-5.07 3.89 1.09 1.09 0 010 .58h6.67v-.91a13.16 13.16 0 01-1.39.67 8.91 8.91 0 00-2.26-2.28c2.45-1.08 4.52-2.24 5-5h-3.46V7.02L55.74 7a18 18 0 000-2l3.41.22c.48 0 .63.05.63.24s-.41.41-.63.48v1h4.32l-.19 6.38c0 .41.15.43.39.43.57 0 .79-.12 1-2.2a7.09 7.09 0 003 1.2c-.36 4.12-1.66 4.12-3.07 4.12h-2.45c-1.71 0-2.31-.81-2.26-2.4l.11-4.28h-1.2a8.67 8.67 0 01-3.21 5.67l2.31.14c.19 0 .62 0 .62.31s-.17.31-.62.57v.87h9v2.95h-6.15a24.7 24.7 0 006.48 3.3 11.87 11.87 0 00-2.13 2.88 24.78 24.78 0 01-7.2-4.49v4.49h-3.75zM46.59 8a21.1 21.1 0 013.58 1.75 24.76 24.76 0 00-1.66 2.5 15.22 15.22 0 00-3.51-1.7zm1.83-3.55a18.73 18.73 0 013.5 1.82c-.92 1.38-1.06 1.52-1.68 2.55A14.46 14.46 0 0046.81 7zm42.48 2.6v3H75.22v3.86a28.06 28.06 0 01-.6 7.08A15.14 15.14 0 0172 26.92a9.28 9.28 0 00-3-1.58 14 14 0 002.81-7.2l-1.56.93c-.05.15-.17.41-.44.41s-.33-.29-.38-.41l-.89-2.93A33.91 33.91 0 0072 14.73V13a9.26 9.26 0 00-1.63.94 12.4 12.4 0 00-1.83-3.43l2.56-1.59c.36.55.57.89.91 1.46V7.05h7.2V4.86L83 5c.21 0 .36.1.36.22s-.22.38-.51.55v1.3zm0 16.27v3.1H74.14v-3.1h2v-7.8l3 .14c.12 0 .55 0 .55.29s-.12.24-.29.34v7H81v-8.9h-5.25v-3.05H90.2v3.08h-5.73v2.37h4.94V20h-4.94v3.31zm20.45-6.84a27.37 27.37 0 014.17 8.88 17.61 17.61 0 00-3.38 1.42 12.15 12.15 0 00-.6-2.43c-1.54.36-6.19 1.3-7.37 1.51-.12.32-.26.65-.5.65s-.36-.21-.41-.43l-.68-2.78a13.3 13.3 0 01-1.84 3.4 18.82 18.82 0 00-2.14-1.51c-.38 1-1.37 2-4.66 1.78a9.81 9.81 0 00-.94-3.46 9.12 9.12 0 001.71.19c.48 0 .79 0 .79-.84V19c-1.08.41-1.32.48-1.78.63-.09.21-.24.43-.41.43s-.28-.31-.31-.43l-.55-3.1c.62-.1 2.28-.58 3-.79v-4H93V8.68h2.5V4.86L99 5a.34.34 0 01.38.33c0 .2-.31.36-.57.48v2.87h1.34v3.05h-1.33v2.88c.38-.12.88-.31 1.34-.51 0 .48-.14 2.64-.17 3.08-.38.16-.86.38-1.17.5v5.47c2.06-3.77 2.06-6.74 2.06-10.73V7.84h4.9V5l3.84.14c.24 0 .41.1.41.29s-.22.36-.75.6v1.81h5.33v3.21h-10.34c0 2.72 0 7.61-1.42 11.53l1.13-.17a94.6 94.6 0 002.54-10.8l3.63.81c.21.05.38.15.38.32s-.22.28-.77.5c-.86 3.67-1.51 5.93-2.35 8.64l3-.48a28.93 28.93 0 00-1.8-3.31zm5.73-2.48v-3.42h9.1V4.65l3.77.19c.14 0 .45 0 .45.31s-.24.31-.45.38v5.05h8.92V14H130a17.44 17.44 0 009.31 10.37 9.18 9.18 0 00-2.78 2.86c-2.43-1.08-6.24-4.42-8.43-8.84a18.44 18.44 0 01-9.36 8.93 8.53 8.53 0 00-2.54-3.19c2-.79 8-3.07 9.6-10.13zm36.24-6V4.81l3.67.08c.1 0 .51 0 .51.36s-.34.43-.51.5V8h6v3.21h-7.51v2h6.53c-.05 1.13-.05 6.12-.12 7.13-.22 3.43-.53 4.49-1.75 5.42a5.67 5.67 0 01-3.72 1.13c-.53 0-.87-.05-1.2-.07a5.89 5.89 0 00-1.13-3.58 20.75 20.75 0 002.4.22 1.53 1.53 0 001.61-1.3 24.69 24.69 0 00.45-5.68h-3.19c-.65 6.6-4 9.67-5.67 10.7a10.22 10.22 0 00-3-2C152.1 21.69 152.1 16 152.1 13v-1.75h-3v-1.16c-.75 1.85-1 2.36-1.3 3.08.72 1.05 2.23 3.48 2.23 5.69 0 3.52-3.64 3.74-4.56 3.79a8.91 8.91 0 00-.67-2.07v6.36h-3.26V5.51h7.61l1.29 1a11.86 11.86 0 01-.58 1.49zm-8.57.5v3.82a26.44 26.44 0 001.49-3.82zm0 10.59c1.11 0 1.78-.1 1.78-.8a7.11 7.11 0 00-1.78-4.08zM185.89 12v3.51h-7.46v7.27h8.66v3.53H165v-3.52h3.15V9.18l3.85.22c.22 0 .53.07.53.36s-.48.46-.67.5v12.53h2.88V5l3.82.17c.12 0 .52 0 .52.33s-.4.53-.64.63V12zm14.42 10.82c5.21-1 6.75-5 6.75-7.49a5.68 5.68 0 00-5.55-5.88c-.74 8.78-4.36 15.33-6.91 15.33-1.87 0-5.35-3.16-5.35-7.6A11.78 11.78 0 01201 6c5.26 0 9.84 3.58 9.84 9.31a11.21 11.21 0 01-2.84 7.41 13.4 13.4 0 01-5.21 3.48 15.37 15.37 0 00-2.48-3.38zm-7.51-5.93c0 1.85 1 3.24 1.54 3.24s1-1.08 1.29-1.71a20.73 20.73 0 001.85-8.25c-2.78 1.03-4.68 4.56-4.68 6.72zm31.59-11c.21.05.48.15.48.39s-.34.31-.53.31c-.1.38-.51 2.09-.6 2.42a14.8 14.8 0 004-1.17l.41 3.77a31.09 31.09 0 01-5.42 1.13 58.46 58.46 0 01-6.29 14 25 25 0 00-3.65-1.74 38.83 38.83 0 005.93-11.64c-1.46.12-1.75.12-4.39.15L214 9.52c.72.05 1.56.1 2.78.1s1.8 0 2.86-.1c.33-1.8.5-3.36.64-4.54zm1.8 14.45a2.31 2.31 0 00-.65 1.42.64.64 0 00.43.62 8.77 8.77 0 003.22.41 17.47 17.47 0 005.28-.79 9.65 9.65 0 00-.17 1.87 16.83 16.83 0 00.14 2 28.9 28.9 0 01-5 .41c-3.14 0-7.32-.45-7.32-3.86a6.53 6.53 0 01.94-3.15zm-1.13-6.79a30.89 30.89 0 015.3-.43 17.82 17.82 0 013.53.26c-.14 1.78-.17 2.16-.19 3.77a14 14 0 00-3.6-.43 45.53 45.53 0 00-5 .43zm18-7.01a20.3 20.3 0 00.55 3.94 11.4 11.4 0 014.32-1.39 23.24 23.24 0 00.36-4.09l4.06.93c.28.08.45.17.45.37s-.38.31-.5.31-.46 2.16-.53 2.52a7.78 7.78 0 016.91 8.06c0 6.84-6.43 8.88-9.21 9.31a11.38 11.38 0 00-2.12-3.14 11.1 11.1 0 004.47-1.36 5.18 5.18 0 003.12-5 4.24 4.24 0 00-4-4.56 23 23 0 01-3.07 7.08c.26.34.45.6 1.1 1.35a17.87 17.87 0 00-3 2.76c-.34-.48-.48-.7-.7-1.06-2.25 2.06-3.67 2.18-4.48 2.18-2.12 0-3.58-1.53-3.58-4.12a11.63 11.63 0 013.41-7.85 48.25 48.25 0 01-1.44-5zm-1.13 9.77a7.67 7.67 0 00-1.39 3.94c0 .17 0 .84.69.84s1.61-1 2.21-1.59c-.89-1.75-1.32-2.71-1.51-3.19zm2.71-2.59a22.31 22.31 0 001.15 2.52 14.17 14.17 0 001.44-3.65 9.1 9.1 0 00-2.59 1.13zM266 26.51a19.42 19.42 0 00-4.87-4.13l2.33-2.56a31.19 31.19 0 015.26 4zM28.76 43.82c-.67.58-1.87 1.83-1.87 2.62 0 1.73 3.29 1.73 4.3 1.73a33.71 33.71 0 009.62-1.44 18 18 0 00.62 4.08 36.36 36.36 0 01-9.38 1.1c-3.75 0-5.23-.41-6.41-.89-.77-.31-3.05-1.44-3.05-3.86s2.5-4.73 3.48-5.62zm10.08-7.89a16.67 16.67 0 00-6.05 3.91c-.86-.75-1.77-1.51-2.52-2.06.89-.82 1.11-1 1.8-1.56-1.49.12-5.52.33-7.56.28l-.19-4a48.3 48.3 0 006 .32 47.29 47.29 0 006.68-.56zm1.06-3.75a17.25 17.25 0 012.18 2.52 9.65 9.65 0 00-1.41 1.73 26.19 26.19 0 00-2.31-2.66zm1.85-2A26.76 26.76 0 0144 32.49a9.56 9.56 0 00-1.53 1.64 21.26 21.26 0 00-2.09-2.36zm15.98 22.76h-3.46v-6.4a23.83 23.83 0 01-7 6.12 8.22 8.22 0 00-3.07-2.38 20.55 20.55 0 007.7-6.14H45V41h4.49a19.19 19.19 0 00-1.92-3.56l1.73-1h-3.21v-3.06h8.18v-2.45l3.6.22c.29 0 .53.05.53.36s-.48.41-.67.46v1.41h8.14v3.12h-3.12l1.46.63c.17.07.24.17.24.29 0 .31-.29.36-.48.4A22 22 0 0162.46 41H67v3.12h-7.13a18.65 18.65 0 007.46 5.8 11.12 11.12 0 00-2.54 2.6 18.83 18.83 0 01-7.06-6.15zM54.27 41v-4.5h-3.09a13.68 13.68 0 012 3.7 11.92 11.92 0 00-1.83.82zm3.46-4.52V41h2.78a15.3 15.3 0 00-1.65-.87 18.78 18.78 0 001.82-3.65zm21.55 9.77a16.5 16.5 0 01-2.83 2.9 6.18 6.18 0 00-2.26-1.61c.43-.33.79-.6 1.35-1.08-1.49.65-3.32 1.35-5.26 2 0 .28-.1.62-.36.62s-.34-.31-.38-.55l-.82-3.39a17.74 17.74 0 002.71-.5v-5.45H69v-3.12h2.47v-5l3.55.19c.29 0 .51.05.51.26s-.15.29-.51.46v4.08h2.14v3.12H75v4.37c.58-.24.94-.38 1.52-.65h-.17v-2.41h14.52v2.42h-9.29l-.45.77h9.58c0 2.42-.08 7.22-1.64 8.45-.91.72-2.44.79-4 .79a7 7 0 00-.64-2.59 19 19 0 01-2.86 3 6.07 6.07 0 00-2.55-1.54 16.68 16.68 0 005.07-5.54h-1.04a16.84 16.84 0 01-6.31 6.36 6.18 6.18 0 00-2.12-1.92 14.73 14.73 0 005.6-4.44zm-2.18-3.34a9.74 9.74 0 00-.17 2.14 15.17 15.17 0 001.46-2.14zm12.09-3.21H78v-8.45h11.19zM86 34.56v-.82h-4.77v.82zm-4.72 1.92v.82H86v-.82zm5.66 9.77A26.2 26.2 0 0185 49.58a8 8 0 00.84.05c.48 0 .92-.05 1.08-.6a11.81 11.81 0 00.44-2.78zm17.37 2.57c5.21-1 6.75-5 6.75-7.49a5.68 5.68 0 00-5.55-5.88c-.74 8.78-4.37 15.33-6.91 15.33-1.87 0-5.35-3.16-5.35-7.6A11.78 11.78 0 01105 32c5.26 0 9.84 3.58 9.84 9.31a11.21 11.21 0 01-2.84 7.41 13.4 13.4 0 01-5.21 3.48 15.37 15.37 0 00-2.48-3.38zm-7.51-5.93c0 1.85 1 3.24 1.54 3.24s1-1.08 1.29-1.71a20.9 20.9 0 001.85-8.25c-2.78 1.03-4.68 4.56-4.68 6.72zm38.31-.82h-7.73v-1.15a12.15 12.15 0 01-1.85 1.73c-.34-.29-.87-.7-1.23-1a5.67 5.67 0 01.44 2.43c0 3.6-2 3.67-3.84 3.77a7.84 7.84 0 00-.63-2.12v7.17h-2.85V31.53h6.24l1.1 1a19.27 19.27 0 01-.5 1.92 15.52 15.52 0 002-3.92l2.88 1c.17 0 .24.15.24.24 0 .29-.36.36-.62.44h1.65c0-.17-.07-.48-.09-.72l2.85-.65a10.09 10.09 0 00.67 3.24v-1.87H138l1.61 1.68a36.71 36.71 0 01-2.9 4 12.76 12.76 0 002.78 1.88 16.2 16.2 0 00-2.09 2.52 8.7 8.7 0 01-2.32-1.71zm-14.84-7.61v4.25a24.25 24.25 0 001.15-4.25zm0 10.18h.72c.55 0 .84-.24.84-1a5.53 5.53 0 00-1.56-3.58zm4.73-6.53a4.78 4.78 0 01-.44.46c-.62-.56-.84-.72-1.2-1-.31 1-.33 1.08-.5 1.51a4.46 4.46 0 01.84 1.3 10.77 10.77 0 002-1.66zM135.78 46a23.68 23.68 0 013.86 3.84 11.71 11.71 0 00-2.71 2.16 22.11 22.11 0 00-3.72-3.91v2.62c0 .86 0 2.49-4.46 2.21a9.88 9.88 0 00-1.06-3.41 15.41 15.41 0 01-2 2.76 15.3 15.3 0 00-2.86-1.63A15.62 15.62 0 00126 46h-.91v-2.9h13.34V46zm-8.45-9.31c-.22-.17-.48-.36-.77-.55-.24.31-.33.45-.48.62.22.17.41.34.74.63zM129 47.33c.14.07.27.14.27.29s-.24.31-.56.33c-.31.53-.6 1-1 1.51.68.1 1.37.17 1.59.17.6 0 .6-.24.6-.81V46h-3.65zm-1.2-13l-.29.45.8.58a10.35 10.35 0 00.57-1zm6 4.92a16 16 0 01-2.38-4 28.19 28.19 0 01-2.61 4zm1.86 6.75h-2.45v2zm-1.73-11.71a8.73 8.73 0 00.79 1.44 8 8 0 001-1.44zm13.27-1.48c.19.07.31.16.31.33s-.45.34-.67.36a33.17 33.17 0 00-1.44 9.24 17.14 17.14 0 00.17 2.4c.31-.45.81-1.22 1.13-1.7a10.26 10.26 0 001.72 2.38 10.65 10.65 0 00-2 5.88l-3.21.6a33.73 33.73 0 01-1.3-9.68 43 43 0 011.44-11zm11.4-.53c.12 0 .31 0 .31.26s-.33.36-.55.39a26.32 26.32 0 00-.24 2.88 21.76 21.76 0 003.55-.89v3.62c-.55.15-1.65.41-3.64.77a39.45 39.45 0 00.38 5.52A13.57 13.57 0 01163 47.3c-.38.7-1.1 2.26-1.63 3.39a8.54 8.54 0 00-2.57-1.83c-.1 3.08-3.17 3.44-4.68 3.44-3.6 0-5.4-2-5.4-4.2 0-2.86 2.83-3.94 5.95-3.87-.19-2.73-.21-3-.26-4.44-1.37.12-2.36.12-2.76.12a17.25 17.25 0 01-1.78-.07v-3.77a24.62 24.62 0 004.51.17v-4.68zm-5 14.88c-.53 0-1.68.17-1.68.91s.8.89 1.56.89c.2 0 1.64 0 1.64-1.18a.63.63 0 00-.05-.31 3.43 3.43 0 00-1.44-.31zm23.46-10.39c1.17.74 2.73 1.75 3.43 2.3 3.5 2.81 3.86 3.1 4.58 3.94a29.47 29.47 0 00-2.78 3.09 24.32 24.32 0 00-5.23-4.84v11.68h-3.84V35.23h-8.09v-3.5h22v3.5h-10zm22.15-2.02v2.67h-10.56v-2.67zm-.84 10v7.89H195v-.69h-2.14V53h-3.38v-8.3zm-.43-13.3V34h-8.14v-2.56zm0 6.74v2.51h-8.14v-2.52zm0 3.29V44h-8.14v-2.5zm-5.07 6.1v1.52H195v-1.53zm10.71-4.83v5.64c0 .82.07 1.13 1.17 1.13H207c1.13 0 1.61 0 1.66-2.88a10.09 10.09 0 003 1.27c-.2 2.84-.53 4.9-3.2 4.9h-5.61c-2.71 0-3-1.66-3-2.86V39.41H207v-4.9h-7.22v-3.07h10.89v12.17H207v-.87zm20.73 6.07c5.21-1 6.75-5 6.75-7.49a5.68 5.68 0 00-5.55-5.88c-.74 8.78-4.36 15.33-6.91 15.33-1.87 0-5.35-3.16-5.35-7.6A11.78 11.78 0 01225 32c5.26 0 9.84 3.58 9.84 9.31a11.21 11.21 0 01-2.84 7.41 13.4 13.4 0 01-5.21 3.48 15.37 15.37 0 00-2.48-3.38zm-7.51-5.93c0 1.85 1 3.24 1.54 3.24s1-1.08 1.29-1.71a20.73 20.73 0 001.85-8.25c-2.78 1.03-4.68 4.56-4.68 6.72zm25.66 4.7c.19.07.6.27.6.58s-.58.41-.82.41a21.2 21.2 0 01-2.76 4.75 12.48 12.48 0 00-3.1-2.09 14.5 14.5 0 003-5zm15.33-14.76v3h-8.49V37h7.27v8.93h-17.21V37h6.17v-6.2l4 .2c.1 0 .39 0 .39.31s-.32.36-.6.45v1.06zm-14.64 7.3v2.78h9.68v-2.78zm3.31 6.53a19 19 0 011.35 5.47 10.87 10.87 0 00-3.48.81 22.54 22.54 0 00-1.18-5.59zm4.93-.32a23.93 23.93 0 012 5.6 10.26 10.26 0 00-3.6.93 20.58 20.58 0 00-1.7-5.64zm4.72-.31c2.79 3.53 3.1 4.25 3.46 5a12.08 12.08 0 00-3 1.87 33.17 33.17 0 00-3.24-5.42zm11.11-13.25c.46.17.65.24.65.41s-.48.26-.65.29a27.93 27.93 0 00-1.55 9.91 8.37 8.37 0 00.16 1.92c.15-.26.72-1.32 1-1.8a7 7 0 001.85 2 13.54 13.54 0 00-1.59 5.74l-3.4.91a25.21 25.21 0 01-1.71-9.6 45.26 45.26 0 011.54-11.14zm6.34 11.28a6.75 6.75 0 00-.36 1.71c0 1 .58 1.22 3.34 1.22a24.07 24.07 0 005.93-.65 15.59 15.59 0 00-.36 3.92 51 51 0 01-6.08.31c-3.57 0-6.33-.63-6.33-3.55a8.9 8.9 0 01.79-3.53zm-2.9-10.25c.72 0 1.68.12 3.12.12a28.24 28.24 0 007.05-.76c0 .38.12 2.49.34 3.64a34.8 34.8 0 01-7.39.73c-1.42 0-2.36-.08-3.12-.12zm22.1 10.01c-.67.58-1.87 1.83-1.87 2.62 0 1.73 3.29 1.73 4.3 1.73a33.71 33.71 0 009.62-1.44 18 18 0 00.62 4.08 36.36 36.36 0 01-9.38 1.1c-3.75 0-5.23-.41-6.41-.89-.77-.31-3.05-1.44-3.05-3.86s2.5-4.73 3.48-5.62zm10.08-7.89a16.67 16.67 0 00-6 3.91c-.86-.75-1.77-1.51-2.52-2.06.89-.82 1.11-1 1.8-1.56-1.49.12-5.52.33-7.56.28l-.19-4a48.3 48.3 0 006 .32 47.29 47.29 0 006.69-.55zm1.06-3.75a17.25 17.25 0 012.18 2.52 9.65 9.65 0 00-1.41 1.73 26.19 26.19 0 00-2.31-2.66zm1.85-2a26.76 26.76 0 012.25 2.31 9.56 9.56 0 00-1.53 1.64 21.26 21.26 0 00-2.09-2.36zm15.09 11.94a18.68 18.68 0 00-1.77-1.63c-1.45.48-2.24.81-2.6 1A12.76 12.76 0 00316 40a49.49 49.49 0 01-5.49 2c-.05.2-.15.72-.53.72-.15 0-.34-.09-.41-.4l-.72-3.2c.36-.07.46-.07 1.2-.26l-.48-7.32 2 .36a12.5 12.5 0 006.19-1.37l2 2.71c0 .08.09.15.12.22v-1.73h10.42c-.19 9.65-.94 10.17-5.59 10.17a10.88 10.88 0 00-.89-3.12 9.12 9.12 0 01-2.95 3.34h8v10.8h-3.6v-.72H314.7v.72h-3.58v-10.8zm-.93-7.44v-1a.35.35 0 01-.34.19c-.22 0-.31 0-.72-.29a21.46 21.46 0 01-5.69 1.11l.26 3.26c.22-.07.53-.16 1.42-.48a13.08 13.08 0 00-.74-1.32l2.9-1.33a30.15 30.15 0 012.36 4.42 5.67 5.67 0 002.27-4.56zM318.25 46v-1.17h-3.55V46zm0 3.57v-1.23h-3.55v1.24zm7-3.57v-1.17h-3.6V46zm-3.6 2.33v1.24h3.6v-1.23zm3.2-13.66a10.75 10.75 0 01-.85 3.73 5.69 5.69 0 001.32.24c.79 0 1.15 0 1.39-4zm13.63 13.83c.24.12.5.27.5.51s-.55.33-.76.33a28.49 28.49 0 01-2.6 3.58 6.9 6.9 0 00-2.73-1.7 17.17 17.17 0 002.93-4.16zm15.22-16.32v2.55h-3c0 .28-.38.33-.72.36a6.25 6.25 0 01-.31.64h5.47v2.6h-22.08v-2.6h5.11l-.48-.72 1.13-.28h-4.44v-2.55h7.75v-1.49l3.72.2c.14 0 .38.07.38.24s-.14.31-.38.45v.6zm-9.89 14.64h-7.44v-7.63h15.29v7.63h-6a17.81 17.81 0 011.37 1.78c-.24.17-2 1.27-2.35 1.49a13.79 13.79 0 00-1.9-2.67zm-1.75.7c.4 0 .72.1.72.31s-.17.24-.6.36v1.39c0 .72.45.77.89.77h3.14c.86 0 1.22-.86 1.51-2a7.39 7.39 0 002.83 1.42c-.4 1.56-.84 3.19-3.57 3.19h-5.48c-2 0-2.42-.72-2.42-2.14v-3.59zm6.21-5.38v-1h-8.4v1zm-8.4 1.71v1h8.4v-1zm1.49-9.12l.65 1h3.77c.26-.52.31-.6.48-1zm10.83 12.14a19.82 19.82 0 012.95 3.79 15.13 15.13 0 00-2.52 1.78 27.28 27.28 0 00-2.93-4.06zM374.43 33c.15.12.24.22.24.37a.25.25 0 01-.28.26 1.36 1.36 0 01-.41-.1c-.48.46-4.4 3.51-5.21 4.2-1.1.94-2.45 2.09-3.34 2.88s-.84.8-.84 1 .1.31 1 .84c.08.05 2.29 1.51 4.45 3.17a25 25 0 015 4.7 15.28 15.28 0 00-2.76 3.24c-1-1.56-5-5.74-12.09-10.32a1.67 1.67 0 01-.82-1.42c0-.62.1-.91 2.52-2.83a63.25 63.25 0 009.11-8.66zm18.12-1.08c.2 0 .41.09.41.31s-.34.34-.48.36c-.12.38-.53 2.09-.6 2.42a17.09 17.09 0 004-1.22l.39 3.79a26.5 26.5 0 01-5.38 1.11 61.82 61.82 0 01-6.27 14 24.15 24.15 0 00-3.62-1.81 39 39 0 005.86-11.66l-4.33.14-.31-3.89a20.8 20.8 0 002.71.15c.92 0 2 0 2.93-.1a27.82 27.82 0 00.6-4.61zm1.73 14.38a2.66 2.66 0 00-.65 1.29c0 .77.7 1.15 3.48 1.15a13.93 13.93 0 005.28-1v1.39a16.69 16.69 0 00.16 2.69 21.88 21.88 0 01-4.34.41c-2.88 0-7.87-.15-7.87-3.89a8 8 0 01.89-3.14zm-1.13-6.77a23.9 23.9 0 018.81-.19 27.24 27.24 0 00-.24 3.79 12.71 12.71 0 00-3.69-.39 29.25 29.25 0 00-4.88.39zm5.5-6.58a21.67 21.67 0 012.28 2.64 8.23 8.23 0 00-1.82 1.3 22.33 22.33 0 00-2.11-2.67zm2.3-1.68a14.11 14.11 0 012.21 2.52 17.54 17.54 0 00-1.61 1.21 17 17 0 00-2.23-2.55zm15.67-.22a16.38 16.38 0 001.11 3.72 19.41 19.41 0 005.16-2.77c.74 1 1.75 2.14 2.4 2.86a34.43 34.43 0 01-6 3.09 28.1 28.1 0 005.35 6.6l-2.47 2.14a11.72 11.72 0 00-6.39-1.82c-1.87 0-4 .48-4 2 0 .63.62 2.45 5 2.45a13.38 13.38 0 005.64-1.2 16.73 16.73 0 00.72 3.77 21.65 21.65 0 01-6.19.84c-5.84 0-9.27-2.4-9.27-5.52 0-2.07 1.75-5.35 7.2-5.35a9.06 9.06 0 012.6.28c-.46-.69-.85-1.32-1.73-2.92a44 44 0 01-8.33 1.53L406.16 37a33.91 33.91 0 008.07-1c-.29-.62-1.54-3.46-1.81-4zm18.03 2.26c.22.07.48.14.48.36s-.29.36-.51.38a21.67 21.67 0 00-1.34 7.23c0 2.93.91 5 1.61 5s1.68-2.11 2.33-3.63a11 11 0 002.52 2.55c-1.92 4.65-4.11 6.29-5.28 6.29-1.35 0-4.9-2.86-4.9-10.28a42.63 42.63 0 011.18-9zm11.59.17a23.94 23.94 0 014.85 12.07c-1.42.55-3.12 1.37-3.91 1.78a21.92 21.92 0 00-4-11.88zM0 0h10v60H0z" fill="#00b4dc" data-name="レイヤー 2"/></svg>