<svg xmlns="http://www.w3.org/2000/svg" width="397.99" height="133.28"><path d="M0 0h10v130H0zm43.54 24.25a22.77 22.77 0 013.71 4.68c-.54.32-3 1.8-3.68 2.34A21 21 0 0041 27.06c-.07.36-.43.43-.76.5v2.88c0 1.4.58 1.62 2.09 1.62h3.06c.86 0 2.16 0 3-4a8.19 8.19 0 004.28 2.63c-.83 2.77-1.08 3.74-2.34 4.64-.43.33-1 .61-2.77.61h-8.23c-3.53 0-4-1.51-4-3.7v-3.42c-.26.25-.9.18-1.23.14a31.51 31.51 0 01-4 7.35 14.27 14.27 0 00-4.06-2.77c.79-.9 2.34-2.74 3.92-7.35a14.55 14.55 0 00-4.18-2c2.81-5 2.81-8.32 2.81-12.6V6.65h15.34c-.14-1.73-.14-2.59-.18-3.49l5.19.39c.29 0 .61.07.61.4s-.4.61-1 .86c0 .58 0 1 .11 1.84h2.87a12.13 12.13 0 00-1.69-1.87l3.35-2.34a25.44 25.44 0 013.31 3.7c-.43.26-.57.36-.79.51h3.71V11h-7.14l5 2a.51.51 0 01.33.47c0 .46-.44.54-1.08.61a44.91 44.91 0 01-3.39 5.83 2.89 2.89 0 001.51.9c.83 0 1.16-1.66 1.3-2.77a8.89 8.89 0 003.89 2.77c-.25 2.27-1.3 4.43-2.2 5.07a3 3 0 01-1.94.58 29.23 29.23 0 014.3 6.32 14 14 0 00-2.19 1.15c-1.77 1.19-2 1.3-2.34 1.55a25.3 25.3 0 00-4.36-7l3.59-2.18a8.78 8.78 0 01-4.36-2.84 30.62 30.62 0 01-3.34 3.2 12 12 0 00-4-3.2h.07-5.33v1.12h-4.17v-8.47H44v6.66a30.54 30.54 0 003.46-3.27 27 27 0 01-2.95-8.5H33.35c.07 2.73-.11 9.46-2.88 14.76l4.43 2.05a1.45 1.45 0 01.47.29v-2l4.89.47h.43a1.84 1.84 0 00-.21-.25zm.72-12.31v3.2H33.89v-3.2zM37.74 19v1.4h2.52V19zm11.49-8a27 27 0 001.18 4.32A20.18 20.18 0 0052.14 11zm27 19.37a37.22 37.22 0 01-10.33 5.94 14 14 0 00-3.71-4A30.71 30.71 0 0072.48 27h-9.75v-4.41h2.63a1.35 1.35 0 01-.18-.25l-2.67-3.89A73.61 73.61 0 0072 12.19a15.17 15.17 0 001.84 3.71c-2 1.65-4.25 3.49-7.59 5.83a1.69 1.69 0 010 .86h10v-1.36a21 21 0 01-2.09 1 13.29 13.29 0 00-3.39-3.42c3.68-1.62 6.77-3.34 7.49-7.45l-5.18.07L73 6.61l5.61-.07V3.59l5.11.32c.72 0 .93.07.93.36s-.61.61-.93.72c0 .22-.07 1.19-.07 1.48l6.47-.07-.32 9.6c0 .61.21.65.57.65.87 0 1.19-.18 1.48-3.31a10.73 10.73 0 004.5 1.8c-.54 6.19-2.49 6.19-4.61 6.19h-3.53c-2.55 0-3.45-1.23-3.38-3.6l.17-6.44h-1.75a13 13 0 01-4.83 8.5l3.42.18c.29 0 .94 0 .94.46s-.25.47-.94.87v1.29h13.5V27h-9.21a36.85 36.85 0 009.71 5 17.35 17.35 0 00-3.2 4.32 37.18 37.18 0 01-10.8-6.73v6.73h-5.61zM64.89 8.05a31.92 31.92 0 015.36 2.63 35.15 35.15 0 00-2.48 3.74 22.51 22.51 0 00-5.26-2.59zm2.73-5.33a29 29 0 015.26 2.74c-1.41 2-1.59 2.23-2.52 3.78a21.65 21.65 0 00-5.15-2.81zm63.72 3.86v4.49h-23.51v5.8a42.12 42.12 0 01-.9 10.62 22.42 22.42 0 01-3.93 8.89A14.21 14.21 0 0098.51 34a20.86 20.86 0 004.21-10.79l-2.34 1.4c-.07.22-.25.61-.64.61s-.51-.43-.58-.61l-1.33-4.39a52 52 0 005.17-2.13v-2.66a14.39 14.39 0 00-2.45 1.4 18.79 18.79 0 00-2.73-5.14l3.81-2.31c.54.83.87 1.33 1.37 2.2v-5h10.8V3.3l5.72.18c.33 0 .54.14.54.32 0 .33-.32.58-.75.83v2zm0 24.4v4.64h-25.13V31h3V19.28l4.57.22c.18 0 .83 0 .83.43s-.18.36-.43.5V31h2.3V17.63h-7.88V13h21.7v4.61h-8.61v3.56h7.42V26h-7.42v5zM162 20.72C164.39 24 167.52 30 168.28 34a27.9 27.9 0 00-5.08 2.12 17.07 17.07 0 00-.9-3.63c-2.3.54-9.29 1.94-11.05 2.27-.18.46-.4 1-.76 1s-.54-.33-.61-.65l-1-4.18a20 20 0 01-2.77 5.12 29.83 29.83 0 00-3.2-2.27c-.58 1.55-2.05 3-7 2.66a14.48 14.48 0 00-1.37-5.18 15.32 15.32 0 002.55.29c.72 0 1.19-.08 1.19-1.26v-5.86c-1.62.61-2 .72-2.66.93-.15.33-.36.65-.61.65s-.44-.47-.47-.65l-.83-4.64c.94-.14 3.42-.86 4.57-1.19v-5.94h-3.74V9h3.74V3.3l5.22.14a.52.52 0 01.58.51c0 .29-.47.54-.87.72V9h2v4.57h-2v4.32c.58-.18 1.33-.46 2-.75-.07.72-.22 4-.25 4.61-.58.25-1.3.57-1.77.75v8.21c3.1-5.65 3.1-10.12 3.1-16.09V7.76h7.34V3.44l5.76.22c.36 0 .61.14.61.43s-.32.54-1.11.9v2.77h8v4.83h-15.5c0 4.06 0 11.41-2.12 17.27.29 0 1.48-.21 1.69-.25a138.67 138.67 0 003.82-16.2l5.43 1.23c.33.07.58.21.58.47s-.33.43-1.15.75c-1.3 5.51-2.27 8.89-3.53 13 1-.18 3.49-.58 4.43-.72a46.79 46.79 0 00-2.7-5zm8.62-3.67v-5.18h13.64V3l5.65.28c.22 0 .69 0 .69.47s-.36.47-.69.58v7.56h13.39v5.18H190a26.1 26.1 0 0014 15.53c-3 2.34-3.71 3.49-4.18 4.28-3.63-1.62-9.36-6.62-12.63-13.24a27.66 27.66 0 01-14 13.39 12.82 12.82 0 00-3.82-4.79c3-1.19 12-4.61 14.4-15.19zM225 8V3.23l5.5.11c.15 0 .76 0 .76.53s-.5.65-.76.76V8h9.08v4.83h-11.29v2.95h9.79c-.08 1.7-.08 9.22-.18 10.7-.32 5.15-.79 6.73-2.63 8.14a8.59 8.59 0 01-5.58 1.69c-.79 0-1.29-.07-1.8-.11a8.67 8.67 0 00-1.69-5.36 35.77 35.77 0 003.6.32 2.27 2.27 0 002.41-1.94c.65-2.09.69-6.23.69-8.53h-4.79c-1 9.89-6.05 14.5-8.5 16.05a15.51 15.51 0 00-4.46-3.06c8-5.15 8-13.68 8-18.21 0-1.23 0-2.06-.07-2.63h-4.5v-1.69c-1.12 2.77-1.44 3.52-1.94 4.6 1.07 1.59 3.36 5.25 3.36 8.54 0 5.29-5.47 5.61-6.84 5.68a13.66 13.66 0 00-1-3.09v9.53h-4.9V4.27h11.41l2 1.51a22.09 22.09 0 01-.8 2.23zm-12.85.76v5.72a40.24 40.24 0 002.23-5.72zm0 15.87c1.65.08 2.66-.14 2.66-1.18 0-.87-.36-3.21-2.66-6.12zM273.83 14v5.25h-11.2v10.94h13v5.29h-33.15v-5.29h4.71V9.78l5.8.32c.32 0 .79.11.79.54s-.72.69-1 .76v18.79h4.32V3.55l5.72.25c.18 0 .8 0 .8.51s-.62.79-1 .93V14zm21.64 16.22c7.81-1.44 10.11-7.48 10.11-11.23a8.53 8.53 0 00-8.31-8.82c-1.12 13.18-6.56 23-10.37 23-2.81 0-8-4.76-8-11.41C278.87 14 285.93 5 296.51 5c7.88 0 14.76 5.36 14.76 14A16.8 16.8 0 01307 30.08c-2.2 2.56-4.75 3.89-7.81 5.22a23.54 23.54 0 00-3.72-5.08zm-11.27-8.89c0 2.77 1.55 4.86 2.3 4.86s1.55-1.62 1.95-2.55a31.75 31.75 0 002.77-12.39c-4.22 1.55-7.02 6.84-7.02 10.08zm47.37-16.48c.33.07.72.21.72.57s-.5.47-.79.47c-.14.58-.75 3.13-.9 3.64a23.41 23.41 0 006-1.77l.61 5.65a46.76 46.76 0 01-8.14 1.7 87 87 0 01-9.43 21 37.4 37.4 0 00-5.43-2.73A58.54 58.54 0 00323.08 16c-2.2.18-2.63.18-6.59.22l-.49-5.94c1.08.07 2.34.15 4.18.15 1.62 0 2.7 0 4.28-.15.51-2.7.76-5 1-6.8zm2.7 21.67a3.5 3.5 0 00-1 2.12 1 1 0 00.65.94 13.25 13.25 0 004.82.61 25.89 25.89 0 007.95-1.19 15.45 15.45 0 00-.25 2.81 24.17 24.17 0 00.22 3 43.9 43.9 0 01-7.46.61c-4.71 0-11-.69-11-5.8a9.75 9.75 0 011.4-4.71zm-1.69-10.19a46 46 0 018-.65 25.16 25.16 0 015.29.4c-.22 2.66-.25 3.24-.29 5.65a20.85 20.85 0 00-5.4-.65 67.38 67.38 0 00-7.56.65zm27-10.51a31 31 0 00.83 5.9 17.24 17.24 0 016.48-2.09 34.3 34.3 0 00.54-6.19l6.08 1.41c.43.11.69.25.69.54 0 .5-.58.47-.76.47 0 .18-.68 3.23-.79 3.77A11.68 11.68 0 01383 21.73c0 10.26-9.65 13.32-13.83 14A16.79 16.79 0 00366 31a16.48 16.48 0 006.69-2c3-1.66 4.68-3.74 4.68-7.45 0-5.76-4.43-6.59-5.94-6.84a34.63 34.63 0 01-4.61 10.62c.4.5.69.9 1.66 2a27.36 27.36 0 00-4.57 4.14c-.51-.72-.72-1-1.05-1.58-3.38 3.1-5.5 3.28-6.73 3.28-3.16 0-5.36-2.31-5.36-6.2a17.52 17.52 0 015.11-11.77 72.8 72.8 0 01-2.16-7.55zm-1.69 14.65a11.49 11.49 0 00-2.09 5.9c0 .25 0 1.26 1.05 1.26s2.41-1.44 3.31-2.37c-1.33-2.63-1.98-4.07-2.27-4.79zm4.11-3.89a31.67 31.67 0 001.73 3.78 21.48 21.48 0 002.16-5.47 13.72 13.72 0 00-3.89 1.69zm31.93 19.19a28.94 28.94 0 00-7.31-6.19l3.49-3.86a46.82 46.82 0 017.89 6.05zM38.14 70.74c-1 .86-2.81 2.73-2.81 3.92 0 2.59 4.93 2.59 6.44 2.59a50.06 50.06 0 0014.44-2.16 27.25 27.25 0 00.93 6.12 54.7 54.7 0 01-14.07 1.66c-5.62 0-7.85-.61-9.61-1.33-1.15-.47-4.57-2.16-4.57-5.8s3.74-7.09 5.22-8.42zm15.12-11.85c-3.35 1.34-7.09 3.57-9.07 5.87-1.3-1.11-2.67-2.27-3.78-3.09 1.33-1.23 1.65-1.48 2.7-2.34-2.24.18-8.28.5-11.34.43l-.29-6a72.51 72.51 0 009 .46 71 71 0 0010-.82zm1.58-5.61a26.27 26.27 0 013.28 3.78A14.66 14.66 0 0056 59.65a40.22 40.22 0 00-3.45-4zm2.77-3.06A37.54 37.54 0 0161 53.75a14.07 14.07 0 00-2.31 2.45 28.69 28.69 0 00-3.13-3.53zm23.98 34.19h-5.18V74.8A35.79 35.79 0 0165.86 84a12.57 12.57 0 00-4.61-3.56 30.94 30.94 0 0011.56-9.21H62.44v-4.7h6.73a29.08 29.08 0 00-2.88-5.33l2.59-1.44h-4.75v-4.68h12.28v-3.67l5.4.32c.43 0 .79.07.79.54s-.72.61-1 .69v2.12h12.2v4.68h-4.69l2.2.93c.25.11.36.26.36.44 0 .46-.43.54-.72.61a32.5 32.5 0 01-2.27 4.79h6.8v4.68H84.79A28.1 28.1 0 0096 79.92a17.06 17.06 0 00-3.82 3.88 28.22 28.22 0 01-10.58-9.21zm-5.18-17.88v-6.77h-4.65a20.16 20.16 0 013 5.54A17.8 17.8 0 0072 66.53zm5.18-6.77v6.77h4.17a25.06 25.06 0 00-2.48-1.3A28.17 28.17 0 0086 59.76zm32.33 14.61a25.31 25.31 0 01-4.25 4.36 8.92 8.92 0 00-3.38-2.41c.64-.51 1.18-.9 2-1.62-2.23 1-5 2-7.88 3 0 .44-.14.94-.54.94s-.5-.47-.58-.83l-1.22-5.07a31.34 31.34 0 004.07-.76v-8.19h-3.7v-4.68h3.71v-7.49l5.32.29c.44 0 .76.07.76.4s-.22.43-.76.68v6.12h3.21v4.68h-3.21v6.55c.87-.36 1.41-.57 2.27-1h-.25v-3.61h21.81v3.64h-13.93l-.68 1.15h14.36c0 3.64-.11 10.84-2.45 12.67-1.36 1.08-3.67 1.19-5.94 1.19a10.63 10.63 0 00-1-3.89 27.09 27.09 0 01-4.28 4.5c-.94-1-1.51-1.29-3.82-2.3a25 25 0 007.6-8.32h-1.62a25.1 25.1 0 01-9.47 9.54 9.53 9.53 0 00-3.14-2.91 21.84 21.84 0 008.39-6.66zm-3.28-5a15.78 15.78 0 00-.25 3.2 23.78 23.78 0 002.2-3.2zm18.14-4.82H112V51.87h16.81zm-4.86-7.71v-1.22h-7.09v1.22zm-7.09 2.88V61h7.09v-1.28zm8.5 14.65a39.4 39.4 0 01-2.85 5c.44 0 .83.07 1.26.07.72 0 1.37-.07 1.62-.9a18.1 18.1 0 00.65-4.18zm26.14 3.85c7.81-1.44 10.11-7.48 10.11-11.23a8.53 8.53 0 00-8.31-8.82c-1.12 13.18-6.56 23-10.37 23-2.81 0-8-4.76-8-11.41C134.87 62 141.93 53 152.51 53c7.88 0 14.76 5.36 14.76 14A16.8 16.8 0 01163 78.08c-2.2 2.56-4.75 3.89-7.81 5.22a23.54 23.54 0 00-3.72-5.08zm-11.27-8.89c0 2.77 1.55 4.86 2.3 4.86s1.55-1.62 1.95-2.55a31.75 31.75 0 002.77-12.39c-4.22 1.55-7.02 6.84-7.02 10.08zm57.45-1.22h-11.59v-1.73a17.17 17.17 0 01-2.77 2.62c-.5-.43-1.3-1-1.84-1.47a8.67 8.67 0 01.65 3.63c0 5.4-2.95 5.51-5.76 5.65a11.55 11.55 0 00-.93-3.16v10.69h-4.29v-32h9.36l1.66 1.55a25.07 25.07 0 01-.76 2.87 22.56 22.56 0 003-5.86l4.32 1.44c.25.07.36.21.36.36 0 .43-.54.54-.94.65h2.49c0-.26-.11-.72-.15-1.08l4.29-1a15 15 0 001 4.86v-2.8H202l2.42 2.51a56.5 56.5 0 01-4.36 6.09 18.5 18.5 0 004.18 2.81 24.56 24.56 0 00-3.14 3.77 12.69 12.69 0 01-3.45-2.51zM175.41 56.7v6.37a37 37 0 001.72-6.37zm0 15.26c.32 0 .82.07 1.08.07.83 0 1.26-.36 1.26-1.51a8.31 8.31 0 00-2.34-5.36zm7.05-9.79a4.64 4.64 0 01-.65.68c-.93-.82-1.26-1.08-1.8-1.51-.46 1.44-.5 1.62-.75 2.27a6.81 6.81 0 011.26 1.94 16.21 16.21 0 003-2.48c-.27-.22-.66-.58-1.06-.9zm16.2 11.88a35.26 35.26 0 015.8 5.76 17.31 17.31 0 00-4.07 3.19 33.19 33.19 0 00-5.58-5.87V81c0 1.3 0 3.75-6.7 3.31a14.89 14.89 0 00-1.58-5.11 22.89 22.89 0 01-3 4.14 24.36 24.36 0 00-4.28-2.45 23.7 23.7 0 004.75-6.84h-1.37v-4.36h20v4.36zM186 60.08c-.32-.25-.72-.54-1.15-.83-.36.47-.51.69-.72.94.32.25.61.5 1.11.94.5-.69.61-.83.76-1.05zM188.44 76c.21.11.39.22.39.43 0 .4-.36.47-.82.51-.47.79-.9 1.44-1.44 2.27 1 .14 2.05.25 2.37.25.9 0 .9-.36.9-1.23v-4.18h-5.47zm-1.8-19.54l-.43.68 1.18.87a14.88 14.88 0 00.87-1.55zm9.07 7.38a23.7 23.7 0 01-3.56-6 42.32 42.32 0 01-3.93 6zm2.77 10.22h-3.67V77zm-2.59-17.57a12.13 12.13 0 001.19 2.16 12.2 12.2 0 001.54-2.16zm19.91-2.28c.29.11.47.26.47.51 0 .43-.69.5-1 .54a49.65 49.65 0 00-2.16 13.86 25.23 25.23 0 00.25 3.6c.47-.69 1.22-1.84 1.69-2.56a15.13 15.13 0 002.59 3.56 16 16 0 00-3 8.82l-4.83.9a50.93 50.93 0 01-1.94-14.5A65.1 65.1 0 01210 52.45zm17.1-.79c.18 0 .46.08.46.4s-.5.54-.82.58a37.16 37.16 0 00-.36 4.31 32.28 32.28 0 005.32-1.33v5.44c-.82.21-2.48.61-5.47 1.15a57.41 57.41 0 00.58 8.28 19.92 19.92 0 016.84 3.75c-.58 1-1.66 3.38-2.45 5.07a12.66 12.66 0 00-3.85-2.73c-.15 4.6-4.75 5.14-7 5.14-5.4 0-8.1-3-8.1-6.3 0-4.28 4.25-5.9 8.93-5.79-.29-4.1-.33-4.57-.4-6.66-2.05.18-3.53.18-4.14.18-1.15 0-1.91 0-2.66-.11v-5.69a38 38 0 006.77.25v-7zm-7.45 22.32c-.8 0-2.52.25-2.52 1.37 0 .93 1.18 1.33 2.34 1.33.28 0 2.44 0 2.44-1.76a1 1 0 00-.07-.47 5.08 5.08 0 00-2.19-.47zm35.13-15.59c1.77 1.12 4.11 2.63 5.15 3.46 5.25 4.21 5.79 4.64 6.87 5.9a44.09 44.09 0 00-4.17 4.65 36.48 36.48 0 00-7.85-7.27v17.52h-5.76V57.85h-12.13V52.6h32.94v5.25h-15.05zm33.23-3.02v4H278v-4zm-1.26 15V84h-5v-1h-3.2v1.66h-5.08V72.1zm-.65-19.94V56h-12.2v-3.84zm0 10.12v3.78h-12.2v-3.81zm0 4.93V71h-12.2v-3.79zm-7.59 9.14v2.31h3.2v-2.34zm16.05-7.23v8.46c0 1.22.11 1.69 1.77 1.69h3.38c1.69 0 2.41 0 2.48-4.32a16.18 16.18 0 004.5 1.91c-.29 4.24-.79 7.34-4.79 7.34h-8.42c-4.07 0-4.46-2.48-4.46-4.28V64.11h10.69v-7.34h-10.84v-4.61H311v18.25h-5.51v-1.29zm31.11 9.07c7.81-1.44 10.11-7.48 10.11-11.23a8.53 8.53 0 00-8.31-8.82c-1.12 13.18-6.56 23-10.37 23-2.81 0-8-4.76-8-11.41C314.87 62 321.93 53 332.51 53c7.88 0 14.76 5.36 14.76 14A16.8 16.8 0 01343 78.08c-2.2 2.56-4.75 3.89-7.81 5.22a23.54 23.54 0 00-3.72-5.08zm-11.27-8.89c0 2.77 1.55 4.86 2.3 4.86s1.55-1.62 1.95-2.55a31.75 31.75 0 002.77-12.39c-4.22 1.55-7.02 6.84-7.02 10.08zm38.48 7.06c.29.11.9.39.9.86s-.86.61-1.22.61a32.28 32.28 0 01-4.14 7.14 19.13 19.13 0 00-4.64-3.13 22 22 0 004.42-7.53zm23-22.14v4.5h-12.74v1.76h10.91V73.9H354V60.51h9.25v-9.28l6 .29c.14 0 .57 0 .57.46s-.47.54-.9.69v1.58zm-21.95 10.94v4.18h14.5v-4.18zm5 9.79a28.51 28.51 0 012 8.21 16.3 16.3 0 00-5.22 1.22 34.37 34.37 0 00-1.78-8.41zm7.38-.46a36 36 0 013 8.38 15.09 15.09 0 00-5.4 1.41 30.19 30.19 0 00-2.56-8.46zm7.09-.47c4.18 5.29 4.65 6.37 5.19 7.56a18.14 18.14 0 00-4.5 2.8 49.4 49.4 0 00-4.89-8.13zM35.83 102.18c.69.25 1 .36 1 .61s-.72.4-1 .43a41.91 41.91 0 00-2.33 14.87 12.53 12.53 0 00.25 2.88c.21-.4 1.08-2 1.51-2.7a10.34 10.34 0 002.77 3c-.9 1.69-2.56 5.87-2.38 8.6l-5.11 1.37A38 38 0 0128 116.79c0-6.51 1-11 2.3-16.7zm9.51 16.92a9.56 9.56 0 00-.54 2.55c0 1.59.86 1.84 5 1.84a37 37 0 008.89-1 23.77 23.77 0 00-.54 5.86 76.34 76.34 0 01-9.11.47c-5.36 0-9.5-.93-9.5-5.33a13.33 13.33 0 011.19-5.29zM41 103.73c1.08.07 2.52.18 4.68.18a41.21 41.21 0 0010.58-1.16 54 54 0 00.51 5.48 54.29 54.29 0 01-11.09 1.08c-2.12 0-3.53-.11-4.68-.18zm33.14 15.01c-1 .86-2.81 2.73-2.81 3.92 0 2.59 4.93 2.59 6.44 2.59a50.06 50.06 0 0014.44-2.16 27.25 27.25 0 00.93 6.12 54.7 54.7 0 01-14.07 1.66c-5.62 0-7.85-.61-9.61-1.33-1.15-.47-4.57-2.16-4.57-5.8s3.74-7.09 5.22-8.42zm15.12-11.85c-3.35 1.34-7.09 3.57-9.07 5.87-1.3-1.11-2.67-2.27-3.78-3.09 1.33-1.23 1.65-1.48 2.7-2.34-2.24.18-8.28.5-11.34.43l-.29-6a72.51 72.51 0 009 .46 71 71 0 0010-.82zm1.58-5.61a26.27 26.27 0 013.28 3.78 14.66 14.66 0 00-2.12 2.59 40.22 40.22 0 00-3.45-4zm2.77-3.06a37.54 37.54 0 013.39 3.53 14.07 14.07 0 00-2.31 2.45 28.69 28.69 0 00-3.13-3.53zm22.65 17.96a30.21 30.21 0 00-2.67-2.45c-2.16.72-3.34 1.23-3.88 1.44-.15-.46-.26-.93-.72-2.12a74.78 74.78 0 01-8.25 3c-.07.29-.21 1.08-.79 1.08-.21 0-.5-.15-.61-.62l-1.08-4.78c.54-.11.68-.11 1.8-.4l-.72-11 3.06.54a18.67 18.67 0 009.29-2l3 4.07a1.16 1.16 0 01.18.32v-2.66h15.59c-.29 14.47-1.4 15.26-8.39 15.26a15.5 15.5 0 00-1.33-4.68 13.68 13.68 0 01-4.43 5h12v16.2h-5.4v-1.08H107v1.08h-5.36v-16.2zM114.85 105v-1.51a.49.49 0 01-.5.29c-.32 0-.47-.07-1.08-.43a32.85 32.85 0 01-8.53 1.65l.39 4.9c.33-.11.8-.25 2.13-.72a14 14 0 00-1.12-2l4.29-2a45.58 45.58 0 013.52 6.62 8.52 8.52 0 003.42-6.84zm-2.48 17v-1.76H107V122zm0 5.37v-1.87H107v1.88zm10.47-5.37v-1.76h-5.39V122zm-5.39 3.49v1.88h5.39v-1.87zm4.78-20.49a15.89 15.89 0 01-1.23 5.6 8.58 8.58 0 002 .36c1.19 0 1.73 0 2.09-5.94zm20.49 20.76c.36.18.75.39.75.75s-.82.51-1.15.51a41.74 41.74 0 01-3.88 5.36 10.61 10.61 0 00-4.11-2.56 25 25 0 004.39-6.22zm22.82-24.48v3.81H161c0 .44-.57.51-1.08.54-.18.4-.25.58-.46 1h8.2v3.88h-33.08v-3.88h7.67c-.18-.29-.47-.72-.72-1.08l1.69-.44h-6.66v-3.81h11.63v-2.25l5.58.29c.22 0 .58.1.58.36s-.22.46-.58.68v.9zm-14.83 22h-11.16v-11.49h22.93v11.45h-9a25.59 25.59 0 012 2.66c-.36.25-2.95 1.91-3.53 2.23a20.66 20.66 0 00-2.84-4zm-2.63 1c.61.07 1.08.14 1.08.47s-.25.36-.9.54v2.09c0 1.08.69 1.15 1.33 1.15h4.72c1.3 0 1.84-1.3 2.27-3.06a10.83 10.83 0 004.24 2.12c-.61 2.34-1.26 4.79-5.36 4.79h-8.21c-3 0-3.63-1.08-3.63-3.2v-5.33zm9.32-8.06v-1.51h-12.59v1.51zm-12.59 2.55v1.55h12.59v-1.55zm2.19-13.68l1 1.52h5.65a16 16 0 00.72-1.52zm16.23 18.22a29.13 29.13 0 014.47 5.69 22 22 0 00-3.78 2.66 40.93 40.93 0 00-4.39-6.08zm33.41-20.84c.22.18.36.32.36.54a.38.38 0 01-.43.39 2.2 2.2 0 01-.61-.14c-.72.68-6.59 5.25-7.81 6.3-1.66 1.4-3.67 3.13-5 4.32-1.16 1-1.26 1.19-1.26 1.47s.14.47 1.54 1.26c.11.08 3.42 2.27 6.66 4.75a37.81 37.81 0 017.45 7.06 22.88 22.88 0 00-4.14 4.86c-1.58-2.34-7.52-8.6-18.14-15.48a2.52 2.52 0 01-1.22-2.12c0-.94.14-1.37 3.78-4.25a95.3 95.3 0 0013.71-12.92zm27.19-1.59c.28.08.61.15.61.47s-.51.51-.72.54c-.18.58-.79 3.13-.9 3.64a26.21 26.21 0 005.94-1.84l.57 5.69a40.14 40.14 0 01-8.06 1.65 93.78 93.78 0 01-9.39 21 36 36 0 00-5.37-2.74 58.32 58.32 0 008.78-17.49l-6.47.21-.47-5.83a31.12 31.12 0 004.07.22c1.36 0 3 0 4.39-.15a44 44 0 00.9-6.91zm2.59 21.56a3.91 3.91 0 00-1 2c0 1.15 1 1.73 5.21 1.73a20.79 20.79 0 007.92-1.48c0 .68-.07 1.12-.07 2.09a25.2 25.2 0 00.25 4 33 33 0 01-6.51.61c-4.32 0-11.81-.21-11.81-5.83 0-1.33.4-2.41 1.33-4.71zm-1.69-10.15a38.89 38.89 0 017.41-.75 41.5 41.5 0 015.8.47 40.28 40.28 0 00-.36 5.68 19.53 19.53 0 00-5.55-.57 44.82 44.82 0 00-7.3.57zm8.24-9.86a32.56 32.56 0 013.42 4 12.91 12.91 0 00-2.74 1.94 33.4 33.4 0 00-3.17-4zm3.45-2.52a21.58 21.58 0 013.32 3.78 28.15 28.15 0 00-2.42 1.87 25.43 25.43 0 00-3.34-3.81zm23.51-.32a25.63 25.63 0 001.66 5.58c5-2 6.77-3.42 7.74-4.18 1.11 1.51 2.63 3.21 3.6 4.28a50.61 50.61 0 01-9 4.65c2.09 3.56 5.83 8.2 8 9.9l-3.71 3.2c-2.73-2-6.76-2.73-9.57-2.73s-6 .71-6 3c0 .93.94 3.67 7.49 3.67a20.13 20.13 0 008.46-1.8 25.1 25.1 0 001.08 5.65 32.53 32.53 0 01-9.29 1.26c-8.75 0-13.89-3.6-13.89-8.28 0-3.09 2.62-8 10.8-8a12.92 12.92 0 013.88.43c-.68-1-1.26-2-2.59-4.39a65.93 65.93 0 01-12.49 2.3l-1.87-5.58a51.47 51.47 0 0012.09-1.62c-.43-.93-2.3-5.18-2.7-6.05zM287 103c.32.11.72.22.72.54s-.43.54-.76.58a32.32 32.32 0 00-2 10.83c0 4.39 1.37 7.45 2.41 7.45s2.52-3.16 3.49-5.43a16.29 16.29 0 003.78 3.81c-2.88 7-6.15 9.43-7.92 9.43-2 0-7.34-4.28-7.34-15.4a64.3 64.3 0 011.76-13.46zm17.39.25a35.89 35.89 0 017.27 18.11c-2.13.83-4.68 2-5.87 2.66a32.75 32.75 0 00-6.05-17.82z" fill="#00b4dc" data-name="レイヤー 2"/></svg>