<svg xmlns="http://www.w3.org/2000/svg" width="631.04" height="60"><defs><style>.cls-1{fill:#00b4dc}.cls-2{fill:#fff}</style></defs><g id="レイヤー_2" data-name="レイヤー 2"><g id="レイヤー_1-2" data-name="レイヤー 1"><rect class="cls-1" x="1.04" width="630" height="60" rx="5"/><path class="cls-2" d="M91.35 31.54v2.35H90.1V38h-3.7v-.8h-4.6v1.6c0 1.28-.32 2.15-4 2.15h-1.32a9.18 9.18 0 00-1.18-3.12 19.87 19.87 0 002.13.2c.72 0 .72-.25.72-.78h-7.84v-2.51h7.79v-.85h-9.52v-2.35h9.52v-.8h-7.79v-2.2h7.79v-.7h-6.34v-5.08h6.34v-.7h-9.52v-2.62h9.52v-1.38l3.88.15a.34.34 0 01.37.33c0 .22-.15.27-.55.47v.43h9.45v2.62H81.8v.7h6.25v5.08H81.8v.7h8.3v3zm-13.25-5.8v-1h-3v1zm3.7-1v1h3v-1zm4.6 6.78v-.8h-4.6v.8zm0 3.2v-.85h-4.6v.85zM107 21.44a19.52 19.52 0 002.15-3.53l3.75.95c.17.05.35.13.35.3s-.35.4-.73.35c-.65 1-.9 1.45-1.25 1.93H117v3.12H94.23v-3.12h5.5a11.61 11.61 0 00-1.42-2.13l3.37-1.52a16.47 16.47 0 012 3.12l-1.35.53zm-8 14.1v5.39h-3.5V25.39h9.94v13.09c0 2.05-1.07 2.35-4.37 2.45a7.18 7.18 0 00-1.27-3.54c.37 0 1.12.12 1.5.12s.74 0 .74-.8v-1.17zm3-6.35v-1.1h-3v1.1zm0 3.72v-1.12h-3v1.12zm8.53-7.12c.22 0 .37.07.37.25s-.15.27-.37.42v9.95H107V25.64zm5.27-.53c.23 0 .45 0 .45.28s-.27.32-.6.5V38a2.38 2.38 0 01-1.07 2.42c-.9.6-2 .58-4 .55a9.3 9.3 0 00-.83-3.75c.43 0 1.35.18 1.73.18.62 0 .62-.4.62-.7V25.09zm21.85.03l-2.35 13.79h-5.09l-4.53-19.69h4.48L133 34l2.45-14.62h4.5l2.4 14.62 2.8-14.62h4.48l-4.53 19.7H140zm31.2 10.27v3.52h-16.14V19.39h15.82v3.52h-11.32v4.43h10v3.37h-10v4.85zm3.48 3.52V19.39h10.6c3.85 0 6.2 2.1 6.2 5.05a4.06 4.06 0 01-3 4.07 5 5 0 011.9.9 4.8 4.8 0 011.88 4c0 3.37-2.65 5.69-6.48 5.69zm4.5-11.49h5.1a2.3 2.3 0 002.4-2.5 2.15 2.15 0 00-2.4-2.28h-5.1zm0 8.07h5.07c1.6 0 3.2-.73 3.2-2.72 0-2.2-1.95-2.55-3.2-2.55h-5.07zm25.83-.23v-5.82a14.44 14.44 0 01-2 1.38 12.2 12.2 0 00-2.47-2.78 17.61 17.61 0 003.14-2.21 16.66 16.66 0 00-2.05-1.6l2.4-2.45a17.07 17.07 0 012.25 1.57 7.33 7.33 0 001.5-2.07h-4.62v-3h8.62l1.12 1.2a19.45 19.45 0 01-2.4 4.25h5.13a16.15 16.15 0 01-2.95-4.9l3.17-1.2a15 15 0 001.08 2.07A12.65 12.65 0 00216.1 18l2.63 1.65c.1.05.27.18.27.3 0 .3-.42.33-.67.33-.83 1.05-1.5 1.82-1.8 2.12a8.91 8.91 0 00.67.73 34.06 34.06 0 002.28-2.7L221.8 22c.2.15.45.3.45.48s-.37.35-.75.37a19 19 0 01-2.15 2.25 17.13 17.13 0 003.53 2.33 12.09 12.09 0 00-2.3 3 23.74 23.74 0 01-2.3-1.65v6.67h-1.8a.38.38 0 01.27.36c0 .25-.25.39-.52.42a9.13 9.13 0 01-.53 1.37h6.13v3h-22.7v-3h6.37c-.09-.3-.47-1.27-.69-1.82l1.22-.33zm3.72-9.27c-.65.7-.9 1-2 2h13.19a24.19 24.19 0 01-2.6-2.35v1.3h-8.57zm-.13 4.84v1.6h8.43V31zm2.35 4.44c.23.55.4 1 .7 1.9l-.9.25h3.38a19.5 19.5 0 00.75-2.15zm25-8.28h-1.82v1.3h2.5v3.18h-2.5V35a14.37 14.37 0 00.87-3l2.85.58c.15 0 .38.07.38.32s-.38.35-.73.38c-.1.37-.15.5-.5 1.55a29.55 29.55 0 005-1.78V29h-1.78a25.09 25.09 0 011.75 3.2 24.61 24.61 0 00-2.72 1.8 20 20 0 00-1.8-3.4l2.55-1.6h-2.85v-3h7.88v-1h-6.33v-2.61h6.33v-.95h-7.53v-3.05h11.1v7.67h1.53v3h-3l2.78 1.35a.41.41 0 01.27.35c0 .25-.17.3-.65.38a22.21 22.21 0 01-2 3 17.89 17.89 0 003.12 2.53 12 12 0 00-2.05 3.17 21.55 21.55 0 01-3.35-3.4v2.12c0 2.48-1.62 2.48-4.6 2.48a11.83 11.83 0 00-1.3-3.46c-.25.13-.33.15-.68.31 0 .47-.07.89-.5.89a.4.4 0 01-.3-.27l-.9-3.6a11.66 11.66 0 01-.52 1.27 10.29 10.29 0 00-2.35-.57v1.15c1.82-.35 2.35-.47 2.82-.6a10.13 10.13 0 00-.32 3.12c-3.17.7-5.75 1.13-8.17 1.48-.05.37-.13.7-.48.7s-.27-.2-.3-.38l-.57-3.44c1-.06 2.77-.25 3.7-.36v-1.14a16.1 16.1 0 00-2.63.89 23.77 23.77 0 00-1.27-3.82l2.82-.9a28.58 28.58 0 011.08 3v-3.67h-3.28v-3.18h3.28v-1.3h-2v-.95a8.93 8.93 0 00-2.63-2.47 11.5 11.5 0 004.8-5.58l3.55.7c.27.05.37.13.37.28s-.27.42-.57.45a18.77 18.77 0 003.62 3.47 10.25 10.25 0 00-2.05 1.63zm-1.47-2.92a12.33 12.33 0 01-1.88-2.24c-.57.77-1 1.3-1.77 2.25zm7.5 12.05c-.63.35-1.55.85-2.3 1.17.22 0 1.42.15 1.57.15.73 0 .73-.5.73-.8zm3.27-5.18c0 .08.13.23.18.33A14.43 14.43 0 00244.4 29h-1.5zM316 3.75h305a5 5 0 015 5v41.67a5 5 0 01-5 5H316V3.75z"/><path class="cls-1" d="M395.79 35.41v-5.82a13.58 13.58 0 01-2 1.37 12.65 12.65 0 00-2.48-2.77 16.92 16.92 0 003.16-2.19 18.6 18.6 0 00-2.05-1.6l2.4-2.45a16.39 16.39 0 012.25 1.58 7.3 7.3 0 001.5-2.08H394v-3h8.62l1.12 1.2a20 20 0 01-2.4 4.25h5.13a16.32 16.32 0 01-3-4.9l3.17-1.2a14.48 14.48 0 001.08 2.08 12.65 12.65 0 001.52-1.9l2.63 1.65c.09.05.27.17.27.3 0 .3-.43.32-.68.32-.82 1-1.5 1.83-1.79 2.13.27.32.47.52.67.72a30.8 30.8 0 002.28-2.7l2.32 1.6c.2.15.45.3.45.47 0 .33-.38.35-.75.38a19.83 19.83 0 01-2.15 2.25 17.42 17.42 0 003.51 2.31 12.42 12.42 0 00-2.3 3c-.37-.23-1.17-.78-2.29-1.65v6.67h-1.8c.17.08.27.18.27.35s-.25.4-.52.43a9.56 9.56 0 01-.53 1.37H415v3h-22.73v-3h6.37c-.1-.3-.47-1.27-.7-1.82l1.23-.33zm3.73-9.27c-.65.7-.9 1-2 2h13.2a23.18 23.18 0 01-2.6-2.35v1.3h-8.57zm-.13 4.86v1.6h8.43V31zm2.35 4.45c.23.55.4 1 .7 1.9l-.9.25h3.38a19.5 19.5 0 00.75-2.15zm28.5-8.31h-1.82v1.3h2.5v3.17h-2.5V35a14.91 14.91 0 00.87-3l2.85.57c.15 0 .38.08.38.33s-.38.35-.73.37c-.1.38-.15.5-.5 1.55a29.51 29.51 0 005-1.77V29h-1.78a23.64 23.64 0 011.75 3.2 24.25 24.25 0 00-2.7 1.77 20.85 20.85 0 00-1.8-3.4l2.53-1.57h-2.85v-3h7.87v-1H433v-2.64h6.32v-.95h-7.52v-3.05h11.1V26h1.52v3h-3l2.77 1.35a.42.42 0 01.28.35c0 .25-.18.3-.65.37a22.36 22.36 0 01-2 3 19.23 19.23 0 003.13 2.52 12.08 12.08 0 00-2.05 3.17 21.48 21.48 0 01-3.35-3.39v2.12c0 2.47-1.62 2.47-4.6 2.47a11.58 11.58 0 00-1.27-3.37l-.68.3c0 .48-.07.9-.5.9a.39.39 0 01-.3-.28l-.9-3.59a11.66 11.66 0 01-.52 1.27 9.77 9.77 0 00-2.35-.57v1.15c1.82-.35 2.35-.48 2.82-.6a10.13 10.13 0 00-.32 3.12c-3.18.7-5.75 1.12-8.18 1.47 0 .38-.12.7-.47.7s-.28-.2-.3-.37l-.58-3.45c1 0 2.78-.25 3.7-.35v-1.18a16.33 16.33 0 00-2.62.9 24.8 24.8 0 00-1.27-3.82l2.82-.9a28.35 28.35 0 011.07 3.05v-3.73h-3.27v-3.17h3.27v-1.3h-1.95v-.95a8.8 8.8 0 00-2.62-2.48 11.43 11.43 0 004.8-5.57l3.55.7c.27.05.37.13.37.27s-.27.43-.57.45a19.06 19.06 0 003.61 3.44 10.45 10.45 0 00-2.05 1.62zm-1.47-2.93a12 12 0 01-1.88-2.21c-.57.78-1 1.3-1.77 2.25zm7.5 12c-.63.35-1.55.85-2.3 1.17.22 0 1.42.16 1.57.16.73 0 .73-.5.73-.8zm3.27-5.17a1.91 1.91 0 01.17.32A13.68 13.68 0 00441 29h-1.5zM457.14 20c.2.07.33.17.33.35s-.48.35-.7.37a34.51 34.51 0 00-1.5 9.63 18.76 18.76 0 00.17 2.5c.33-.48.85-1.28 1.18-1.78a10.37 10.37 0 001.8 2.48 11.11 11.11 0 00-2.08 6.12l-3.35.62a35.12 35.12 0 01-1.35-10.07 45.28 45.28 0 011.5-11.45zm11.86-.56c.12 0 .32 0 .32.27s-.35.38-.57.4a25.14 25.14 0 00-.25 3 22.82 22.82 0 003.69-.92V26c-.57.15-1.72.43-3.79.8a42.38 42.38 0 00.39 5.75 13.86 13.86 0 014.75 2.58c-.4.72-1.15 2.34-1.69 3.52a9.07 9.07 0 00-2.68-1.9c-.1 3.2-3.3 3.57-4.87 3.57-3.75 0-5.63-2.05-5.63-4.37 0-3 2.95-4.1 6.2-4-.2-2.85-.22-3.18-.27-4.63-1.43.13-2.45.13-2.88.13a18.34 18.34 0 01-1.85-.08v-3.98a26.7 26.7 0 004.7.17v-4.87zm-5.18 15.5c-.55 0-1.75.17-1.75 1s.83.92 1.63.92c.2 0 1.7 0 1.7-1.22a.7.7 0 00-.05-.33 3.65 3.65 0 00-1.51-.37zm21.47-3.73c-1.35 1.2-2.25 2.58-2.25 3.15a1 1 0 00.5.8c.93.5 3.8.55 5 .55a33 33 0 009.64-1.25 28.35 28.35 0 00.73 4.15 52.92 52.92 0 01-10.6 1c-5.72 0-9.4-1-9.4-4.85 0-2.15 1.75-4 3.73-5.72zm11.95-8.72a23.91 23.91 0 00-7.87 5c-.05-.05-.28-.3-2.23-2.5a10.32 10.32 0 001.78-1.5c-.63 0-2.18.15-4.45.15a31.16 31.16 0 01-3.38-.15l-.2-4.13a43.73 43.73 0 007.55.55 32.82 32.82 0 006.77-.55zm18.53-3.68c.2.05.47.16.47.41s-.12.32-.55.34c-.55 1.7-.6 1.88-.72 2.25a38.15 38.15 0 008.15-2c.12.82.44 2.72.69 3.72a42.94 42.94 0 01-10.22 2.13c-.6 1.65-.8 2.15-1.3 3.37a14.83 14.83 0 016.5-1.7c6.67 0 7 4.7 7 6a6.14 6.14 0 01-2.67 5c-1.33.9-3.82 2.4-10.75 2.4a22.53 22.53 0 01-2.32-.13 18.09 18.09 0 00-.93-3.72 35.17 35.17 0 003.73.23c.57 0 4.85 0 7.42-1.53a2.53 2.53 0 001.35-2.35c0-1.45-.75-2.67-3-2.67a12.82 12.82 0 00-8.65 4.17l-3.6-1.8a35.61 35.61 0 003.33-7c-2.18 0-3.9-.08-4.85-.15l-.05-4.1a23 23 0 006.05.55 34.16 34.16 0 00.95-4.43zm23.87 4.9c.18.05.38.1.38.33s-.3.32-.58.35a17 17 0 00-1.65 4.32 13.91 13.91 0 017.3-2.32 6.06 6.06 0 016.4 6.15c0 4.77-4.5 8-12.77 8h-1.83a14.12 14.12 0 00-1.17-4.19 14.13 14.13 0 003.7.37c5.67 0 7.92-2.12 7.92-4.22 0-.73-.35-2.55-2.92-2.55-3.58 0-6.18 2.3-8 4.1l-3.57-1.3a58.84 58.84 0 012.62-10.35zm-1.37-5.85a25.08 25.08 0 018.4 2.78 30.39 30.39 0 00-2.25 3.65 22.24 22.24 0 00-7.42-3.08zm77.77 11.72l-4.63-4.01v8.03l4.63-4.02z"/><path fill="#282828" opacity=".8" d="M0 0h631.04v60H0z"/><path class="cls-2" d="M111.25 32.16v2.63h-1.4v4.65h-4.15v-.9h-5.15v1.79c0 1.43-.36 2.41-4.53 2.41-.56 0-1.12 0-1.49-.06a10.6 10.6 0 00-1.31-3.5 20.25 20.25 0 002.38.23c.81 0 .81-.28.81-.87h-8.74v-2.8h8.74v-1H85.74v-2.58h10.67v-.9h-8.74V28.8h8.74V28H89.3v-5.67h7.11v-.79H85.74V18.6h10.67v-1.54l4.34.17a.39.39 0 01.42.37c0 .25-.17.3-.62.53v.47h10.59v2.94h-10.59v.79h7V28h-7v.79h9.3v3.36zm-14.84-6.5v-1.09H93v1.09zm4.14-1.09v1.09h3.39v-1.09zm5.15 7.59v-.9h-5.15v.9zm0 3.58v-1h-5.15v1zm23.1-14.9a20 20 0 002.41-3.94l4.2 1.06c.2.06.39.14.39.34s-.39.44-.81.39c-.73 1.15-1 1.62-1.4 2.15H140v3.5h-25.53v-3.5h6.16a13.34 13.34 0 00-1.6-2.38l3.78-1.7a18.39 18.39 0 012.27 3.5l-1.51.58zm-9 15.8v6h-3.9V25.27H127v14.67c0 2.3-1.2 2.63-4.9 2.74a8 8 0 00-1.43-4c.42 0 1.26.14 1.68.14s.84-.06.84-.9v-1.28zm3.41-7.12v-1.23h-3.41v1.23zm0 4.18v-1.26h-3.41v1.26zm9.55-8c.25 0 .42.08.42.28s-.17.3-.42.47v11.17h-4V25.55zm5.91-.59c.25 0 .5.05.5.31s-.31.36-.67.56v13.37a2.67 2.67 0 01-1.2 2.72c-1 .67-2.22.64-4.54.61a10.52 10.52 0 00-.92-4.2c.47.06 1.51.2 1.93.2.7 0 .7-.45.7-.78v-13zm24.43.05l-2.63 15.45h-5.71l-5.07-22.06h5l3.14 16.38 2.74-16.38h5l2.75 16.38 3.13-16.38h5l-5.07 22.06h-5.71zm34.95 11.5v4H180V18.55h17.72v3.95H185v4.95h11.2v3.78H185v5.43zm3.89 3.95V18.55h11.87c4.31 0 6.95 2.35 6.95 5.65a4.56 4.56 0 01-3.34 4.57 5.49 5.49 0 012.13 1 5.38 5.38 0 012.1 4.45c0 3.78-3 6.38-7.25 6.38zm5-12.88h5.71a2.58 2.58 0 002.69-2.8 2.4 2.4 0 00-2.69-2.55H207zm0 9.05h5.68c1.8 0 3.59-.82 3.59-3.06 0-2.46-2.19-2.85-3.59-2.85H207zm28.96-.26V30a16.08 16.08 0 01-2.26 1.54 14.29 14.29 0 00-2.78-3.11 19.72 19.72 0 003.56-2.43 20.29 20.29 0 00-2.3-1.8l2.69-2.74a19.07 19.07 0 012.52 1.76A8.15 8.15 0 00239 20.9h-5.18v-3.33h9.66l1.26 1.34a22.37 22.37 0 01-2.69 4.76h5.74a18.27 18.27 0 01-3.3-5.51l3.56-1.35a16.31 16.31 0 001.2 2.33A14.51 14.51 0 00251 17l2.94 1.85c.11.05.3.19.3.33 0 .34-.47.37-.75.37-.92 1.17-1.68 2-2 2.38.31.36.54.58.76.81a36.77 36.77 0 002.55-3l2.6 1.77c.23.17.51.33.51.53 0 .36-.42.39-.84.42a22.78 22.78 0 01-2.46 2.54 19.22 19.22 0 003.95 2.6 13.61 13.61 0 00-2.56 3.3c-.42-.26-1.32-.87-2.58-1.85v7.47h-2c.19.09.31.2.31.4s-.29.44-.59.47a10.69 10.69 0 01-.59 1.54h6.86v3.39H232v-3.39h7.15c-.12-.33-.54-1.43-.79-2l1.37-.37zm4.18-10.38c-.73.78-1 1.09-2.27 2.26h14.78a26.88 26.88 0 01-2.91-2.63v1.46h-9.6zm-.14 5.4v1.79h9.43v-1.79zm2.63 5c.25.62.45 1.1.78 2.13l-1 .28h3.78a18.08 18.08 0 00.84-2.41zm28-9.28h-2.05v1.45h2.8v3.56h-2.8v3.81a16.7 16.7 0 001-3.34l3.2.65c.16 0 .42.08.42.36s-.42.39-.82.42c-.11.42-.17.56-.56 1.74a33.7 33.7 0 005.58-2v-4.58h-2a28.56 28.56 0 012 3.58 26.41 26.41 0 00-3 2 23.79 23.79 0 00-2-3.81l2.85-1.76H272V26h8.82v-1.1h-7.08v-3h7.08v-1.06h-8.52v-3.41h12.44V26h1.7v3.31h-3.33l3.11 1.51c.11.06.31.17.31.39s-.2.34-.73.42a25 25 0 01-2.27 3.37 20.3 20.3 0 003.5 2.83 13.32 13.32 0 00-2.29 3.56 23.77 23.77 0 01-3.74-3.83v2.38c0 2.77-1.82 2.77-5.15 2.77a12.67 12.67 0 00-1.43-3.78c-.28.14-.36.17-.75.34 0 .53-.09 1-.56 1a.47.47 0 01-.34-.31l-1-4a13.17 13.17 0 01-.58 1.42 11.62 11.62 0 00-2.64-.64V38c2.05-.39 2.64-.53 3.17-.67a11.39 11.39 0 00-.37 3.5c-3.55.78-6.44 1.26-9.15 1.65-.06.42-.14.78-.54.78s-.3-.22-.33-.42l-.67-3.84c1.14-.06 3.1-.28 4.14-.39v-1.3a17.7 17.7 0 00-2.94 1 27 27 0 00-1.43-4.31l3.16-1a30.5 30.5 0 011.21 3.42v-4.15h-3.67v-3.56h3.67v-1.45h-2.18v-1.07a10.08 10.08 0 00-2.95-2.77 12.82 12.82 0 005.38-6.24l4 .78c.3.06.42.14.42.31s-.31.47-.65.5a21 21 0 004.06 3.89 12 12 0 00-2.29 1.82zM268.91 24a13.41 13.41 0 01-2.09-2.52c-.65.87-1.1 1.46-2 2.52zm8.41 13.5c-.7.39-1.74 1-2.58 1.31.25 0 1.59.17 1.76.17.82 0 .82-.56.82-.9zm3.66-5.8a3.87 3.87 0 01.2.36 15.58 15.58 0 001.48-2.71H281zm15.8-12.45c.22.08.36.19.36.39s-.53.39-.79.42a38.65 38.65 0 00-1.68 10.78 20.37 20.37 0 00.2 2.8c.37-.53.95-1.43 1.32-2a11.63 11.63 0 002 2.77 12.45 12.45 0 00-2.32 6.86l-3.75.7a39.57 39.57 0 01-1.51-11.28 50.37 50.37 0 011.67-12.82zm13.3-.62c.13 0 .36.06.36.31s-.39.42-.65.45c-.08.61-.19 1.4-.28 3.36a24.6 24.6 0 004.15-1v4.23c-.65.17-1.93.48-4.26.9a45 45 0 00.45 6.44 15.46 15.46 0 015.32 2.88c-.45.81-1.29 2.63-1.9 4a9.82 9.82 0 00-3-2.13c-.11 3.58-3.69 4-5.46 4-4.2 0-6.3-2.29-6.3-4.9 0-3.33 3.31-4.59 6.94-4.5-.22-3.2-.25-3.56-.3-5.18-1.6.14-2.75.14-3.22.14a19.47 19.47 0 01-2.08-.09v-4.48a30.38 30.38 0 005.27.19v-5.46zM304.28 36c-.62 0-2 .2-2 1.07 0 .72.92 1 1.82 1 .22 0 1.9 0 1.9-1.37a.83.83 0 00-.05-.36 4 4 0 00-1.67-.34zm32.06-18c.28.08.53.2.53.42s-.45.36-.92.31a2.65 2.65 0 01-.23.53h5.86l1.17 1.32a26.28 26.28 0 01-4 7.22 17.43 17.43 0 006.14 2.88 15 15 0 00-2.58 3.28 20.16 20.16 0 01-6-3.67 17.63 17.63 0 01-5.66 3.67 9.81 9.81 0 00-1.54-2.6c-.67.16-.81.19-1.93.53 0-.39-.06-.48-.14-1-.31.06-.56.09-1 .14v11.68h-3.5v-9.18a1.36 1.36 0 01-.25.11 33.15 33.15 0 01-1.18 6.61 13.26 13.26 0 00-3.33-1 23.68 23.68 0 001.22-6.81l3 .33a2.79 2.79 0 01.53.09v-1.54l-2.66.25c-.14.28-.28.53-.56.53s-.33-.36-.36-.53l-.31-3.17h1.79c.56-.68.76-1 1.51-2a37.86 37.86 0 00-4-3.48l2.07-2.46c.22.14.39.25.81.56a31.63 31.63 0 001.93-4.31l3 1.17c.34.14.59.23.59.42 0 .37-.59.42-.87.45-.73 1.6-1.68 3.42-2.21 4.29a5.79 5.79 0 01.61.56 22.87 22.87 0 002.13-4.18l3.39 1.38c.17.05.39.16.39.36s-.39.36-1 .45c-.67 1.06-2.85 4.37-4.31 6.52.31 0 1.65-.08 1.93-.11-.14-.53-.22-.81-.42-1.46l2.63-.64a19.36 19.36 0 011.38 4.14 15 15 0 003.86-2.32 17.77 17.77 0 01-1.65-2.52 10.56 10.56 0 01-1.2 1.7 15.59 15.59 0 00-3.36-1.46 25.29 25.29 0 005.36-8.68zm-7.09 14.1a23.26 23.26 0 001 5.54 15.19 15.19 0 00-3.08 1 32.28 32.28 0 01-.79-5.85zm2.75 4.37a42 42 0 0110.75 3.36 18.64 18.64 0 00-1.85 3.33 33.22 33.22 0 00-10.41-3.25zm3.41-4.62a17.48 17.48 0 015 2.6 19.06 19.06 0 00-1.82 2.91 17.45 17.45 0 00-5-2.71zm-.72-9.27a19.62 19.62 0 001.85 2.91 15.73 15.73 0 001.56-2.91zm36-4.73l1.94 2.1a124 124 0 01-10.34 7.64v11.76c0 3-2.32 3.25-4.84 3.25a15.24 15.24 0 01-1.74-.08 11.15 11.15 0 00-1.4-4.54 22.54 22.54 0 003 .36c.28 0 .61-.05.61-.72V23.9l2.24.14a24.54 24.54 0 002.89-2.1h-15.48v-4.09zm11.96 1.99c.25.08.56.16.56.42s-.34.42-.59.44a25.32 25.32 0 00-1.56 8.43c0 3.42 1.06 5.8 1.87 5.8s2-2.47 2.72-4.23a12.64 12.64 0 002.94 3c-2.24 5.4-4.79 7.3-6.16 7.3-1.57 0-5.71-3.33-5.71-12a49.71 49.71 0 011.37-10.47zm13.53.19a27.9 27.9 0 015.65 14.09c-1.65.64-3.64 1.59-4.56 2.07a25.44 25.44 0 00-4.71-13.86zm22-1.85c.26.06.56.17.56.45s-.39.37-.61.37c-.11.44-.59 2.43-.7 2.82a17.64 17.64 0 004.65-1.37l.47 4.4a36.77 36.77 0 01-6.33 1.31 67.6 67.6 0 01-7.33 16.38 29.26 29.26 0 00-4.23-2.12 45.68 45.68 0 006.92-13.58c-1.71.14-2.05.14-5.13.16l-.36-4.59c.84.06 1.82.11 3.24.11s2.11 0 3.34-.11c.39-2.1.58-3.92.75-5.29zm2.1 16.82a2.73 2.73 0 00-.75 1.65.76.76 0 00.5.73 10.17 10.17 0 003.75.48 19.92 19.92 0 006.16-.93 12.66 12.66 0 00-.19 2.19 22.06 22.06 0 00.16 2.32 33.51 33.51 0 01-5.79.48c-3.67 0-8.54-.54-8.54-4.51a7.6 7.6 0 011.09-3.67zM419 27.12a35.38 35.38 0 016.19-.51 20.1 20.1 0 014.11.31c-.17 2.07-.19 2.52-.22 4.4a16.05 16.05 0 00-4.2-.51 50 50 0 00-5.88.51zm24.63-8.94c.42.06.65.09.65.4s-.2.33-.53.47a61.66 61.66 0 00-.9 11.12c0 6.35.62 7.53 2.77 7.53 4.79 0 9-6.47 9.78-8a27.73 27.73 0 003.24 3.67c-3.19 5.18-7.95 9.07-13.6 9.07-6.22 0-6.72-5.26-6.72-12.26 0-1.62.27-8.71.27-10.14v-2.57zm34.58-.18c.26.06.51.08.51.36s-.31.37-.51.4c-.11 1.09-.11 1.34-.13 1.65 1.28 0 5.62-.09 7.72.17v4.17a67.11 67.11 0 00-7.87-.25v3.08a37.45 37.45 0 007.12-1.32v4.17a53 53 0 01-7 .93c0 1.2 0 1.31.05 2.49a27.67 27.67 0 019.35 3.69 46.35 46.35 0 00-3.1 3.5 22.61 22.61 0 00-6-3.52c.06 1.45.26 4.76-5.88 4.76-4.34 0-7.5-2-7.5-4.54 0-3.19 4-4.56 8.68-4.48v-1.65c-2.77.05-7.84.14-7.84-2.63 0-1 .51-1.88 2-3.39l3.08.7c-.5.67-.58.75-.58.95s0 .78 3.27.64v-3.22c-3.44.14-6.47.54-8.79.84V21c1.37-.14 7.51-.42 8.76-.5 0-1.07 0-2.16-.11-3.45zm-5.79 18.48c-.14 0-2.83 0-2.83 1.15 0 .92 1.54 1 2 1 1.37 0 2.21-.51 2-2.05a6.63 6.63 0 00-1.17-.14zm28.89-18.3c.42.06.65.09.65.4s-.2.33-.53.47a60.76 60.76 0 00-.9 11.12c0 6.35.62 7.53 2.77 7.53 4.79 0 9-6.47 9.78-8a27.73 27.73 0 003.24 3.67c-3.19 5.18-8 9.07-13.61 9.07-6.21 0-6.72-5.26-6.72-12.26 0-1.62.28-8.71.28-10.14v-2.57zm32.23 0c.25.06.56.17.56.45s-.39.37-.61.37c-.12.44-.59 2.43-.7 2.82a17.41 17.41 0 004.64-1.37l.48 4.4a36.77 36.77 0 01-6.33 1.31 67.6 67.6 0 01-7.33 16.38 29.26 29.26 0 00-4.25-2.12 45.44 45.44 0 006.91-13.58c-1.7.14-2 .14-5.12.16l-.36-4.59c.84.06 1.82.11 3.24.11 1.26 0 2.1 0 3.34-.11.39-2.1.58-3.92.75-5.29zm2.1 16.82a2.73 2.73 0 00-.75 1.65.76.76 0 00.5.73 10.17 10.17 0 003.75.48 20 20 0 006.16-.86 12.66 12.66 0 00-.19 2.19 22.06 22.06 0 00.16 2.32 33.51 33.51 0 01-5.79.48c-3.67 0-8.54-.54-8.54-4.51a7.6 7.6 0 011.06-3.7zm-1.31-7.92a35.35 35.35 0 016.18-.51 20.15 20.15 0 014.12.31c-.17 2.07-.2 2.52-.22 4.4a16.05 16.05 0 00-4.2-.51 49.77 49.77 0 00-5.88.51z"/></g></g></svg>