<svg xmlns="http://www.w3.org/2000/svg" width="631.04" height="60.36"><defs><style>.cls-1{fill:#00b4dc}.cls-2{fill:#fff}</style></defs><g id="レイヤー_2" data-name="レイヤー 2"><g id="レイヤー_1-2" data-name="レイヤー 1"><rect class="cls-1" width="630" height="60" rx="5"/><path class="cls-2" d="M21.78 35.28l-.85 2.61h-3.35l5.14-14.19h3.61l5.14 14.19h-3.35l-.85-2.61zM26.53 33l-2-6.27L22.5 33zm14.38-9.3h2.9v14.19H41.2l-.05-1.44a3.52 3.52 0 01-3.35 1.83c-3.6 0-4.84-2.86-4.84-5.58 0-3.11 1.53-5.54 4.64-5.54 2.29 0 3 1.11 3.31 1.63zm-4.84 9c0 1.57.54 3.19 2.4 3.19s2.41-1.62 2.41-3.19-.56-3.17-2.41-3.17-2.4 1.59-2.4 3.15zM53 37.89h-3.23l-4.21-10.36h3.13l2.75 6.77 2.74-6.77h3.13zm14 0a2.61 2.61 0 01-.31-1.23 4.62 4.62 0 01-3.94 1.62c-1.24 0-4-.19-4-3.27 0-2.58 2.21-2.88 4.84-3.25s3.11-.43 3.11-1.29c0-1.17-1.15-1.23-1.89-1.23-2.68 0-2.7.89-2.7 1.39h-2.89a3.18 3.18 0 011.33-2.5 8.52 8.52 0 014.16-1c1.55 0 4.84.41 4.84 3.34v6a1.66 1.66 0 00.51 1.19v.24zm-.31-5a5.65 5.65 0 01-2.05.52c-1.89.29-2.86.43-2.86 1.46s1.94 1.17 2 1.17A2.75 2.75 0 0066.65 34zm8.08-5.36l.06 1.19a4.16 4.16 0 013.49-1.56 4 4 0 014.1 4.19v6.54h-2.9v-6.11a2.2 2.2 0 00-2.35-2.27 2.17 2.17 0 00-2.34 2.27v6.11h-2.9V27.53zm17.77 3.69a2.15 2.15 0 00-2.36-1.85c-2.36 0-2.72 2-2.72 3.3s.51 3.38 2.7 3.38 2.32-1.33 2.45-2h3c-.36 2.89-2.72 4.26-5.45 4.26-3.24 0-5.76-1.87-5.76-5.51s2.77-5.61 5.79-5.61c2.78 0 4.83 1.31 5.3 4.06zm7.7 2.11c.07 1.73 1 2.79 2.72 2.79a2.26 2.26 0 002.39-1.33h3a4 4 0 01-1 1.75 5.78 5.78 0 01-4.35 1.74c-3.28 0-5.65-2-5.65-5.56a5.21 5.21 0 015.51-5.56 5.44 5.44 0 014.5 2.12 7.12 7.12 0 011.2 4zm5.33-1.83a2.69 2.69 0 00-2.7-2.18 2.61 2.61 0 00-2.59 2.18zm19.59-3.5l-1.7 9.94h-3.67l-3.26-14.24h3.22l2 10.53 1.76-10.53h3.25l1.76 10.53 2-10.53h3.22l-3.26 14.19h-3.67zm13.03 5.33c.07 1.73.95 2.79 2.71 2.79a2.28 2.28 0 002.4-1.33h2.95a3.94 3.94 0 01-.95 1.75 5.8 5.8 0 01-4.4 1.74c-3.27 0-5.65-2-5.65-5.56a5.21 5.21 0 015.51-5.56 5.41 5.41 0 014.5 2.12 7.23 7.23 0 011.21 4zm5.32-1.83a2.69 2.69 0 00-2.7-2.18 2.62 2.62 0 00-2.59 2.18zm7.87-2.71c.32-.52 1-1.63 3.31-1.63 3.12 0 4.65 2.43 4.65 5.54 0 2.72-1.24 5.58-4.85 5.58a3.5 3.5 0 01-3.33-1.83v1.44h-2.63V23.7h2.9zm0 3.89c0 1.57.54 3.19 2.41 3.19s2.39-1.62 2.39-3.19-.54-3.17-2.39-3.17-2.37 1.57-2.37 3.17zm29.34 3.06c0 1.55.29 1.72.56 1.86v.29h-3.42a4.55 4.55 0 01-.36-1.82v-1.46a2 2 0 00-2.32-2.12h-3.75v5.4h-3.24V23.7h7.65c3.62 0 5 1.85 5 3.85a3.92 3.92 0 01-.92 2.5 4.11 4.11 0 01-1.92 1.16 2.73 2.73 0 012.72 3zm-9.29-5.67h4a2 2 0 002.16-1.94 1.9 1.9 0 00-2.07-1.89h-4.14zm14.24 3.26c.07 1.73 1 2.79 2.72 2.79a2.28 2.28 0 002.39-1.33h3a4 4 0 01-1 1.75 5.78 5.78 0 01-4.39 1.74c-3.28 0-5.66-2-5.66-5.56a5.21 5.21 0 015.51-5.56 5.44 5.44 0 014.51 2.12 7.12 7.12 0 011.2 4zM191 31.5a2.7 2.7 0 00-2.7-2.18 2.61 2.61 0 00-2.59 2.18zm16-1.75a2.24 2.24 0 00-.94-.25h-.43c0 1 .14 3.55-4.5 3.55a10.08 10.08 0 01-2.17-.2.39.39 0 00-.25.36c0 .22.22.31.31.34a39.91 39.91 0 004.65.49c.48 0 3.18.34 3.18 2.9a3 3 0 01-1.64 2.63 11.57 11.57 0 01-4.3.7c-1.44 0-5.28-.2-5.28-3.06A2.38 2.38 0 01197 35a1.38 1.38 0 01-.87-1.26c0-.9.81-1.26 1.24-1.48a2.53 2.53 0 01-1-2.11c0-3 3.71-3 4.61-3a6.4 6.4 0 013.38.66 3 3 0 011.88-.66 4.53 4.53 0 01.74.05zm-8.34 7.18c0 1.41 2.29 1.41 2.81 1.41.79 0 2.36-.09 2.36-1.28 0-.69-.56-.94-1-1a26.93 26.93 0 00-3.4-.2 1.32 1.32 0 00-.8 1.07zm.68-6.79c0 .78.71 1.23 1.66 1.23s1.69-.54 1.69-1.28-.69-1.21-1.69-1.21c-1.29 0-1.69.67-1.69 1.26zm12.88-3.9h-2.95V23.7h2.95zm0 11.65h-2.95V27.53h2.95zm9.36-7.51c0-.94-.85-1.26-1.84-1.26-.48 0-1.65.09-1.65 1s.88 1 1.1 1c4 1 5.65 1.41 5.65 3.68 0 2.09-1.87 3.47-5 3.47a6.94 6.94 0 01-3.35-.75 3.31 3.31 0 01-1.76-2.85h3c.13 1.41 1.1 1.62 2.25 1.62 1.52 0 1.8-.74 1.8-1.13 0-.81-.81-1-1.51-1.17-3.6-.88-5.2-1.26-5.2-3.57 0-3.27 4.05-3.27 4.7-3.27a6 6 0 013.85 1.18 2.77 2.77 0 01.92 2zm9.7-1.06v5.43c0 1 .61 1.17 1.44 1.17h.87v2.27a17 17 0 01-1.7.09c-2.17 0-3.56-1-3.56-3v-5.96h-1.91v-1.79h1.91v-2.9h2.95v2.9h2.31v1.79zm6.84-1.79l.06 1.89c.28-.64 1-2.26 4-2.26h1v3H242c-1.4 0-3.64.58-3.64 3.12v4.63h-2.9V27.53zm14.78 10.36a2.49 2.49 0 01-.3-1.23 4.66 4.66 0 01-3.95 1.62c-1.24 0-4-.19-4-3.27 0-2.58 2.21-2.88 4.84-3.25s3.12-.43 3.12-1.29c0-1.17-1.16-1.23-1.9-1.23-2.68 0-2.7.89-2.7 1.39h-2.84a3.18 3.18 0 011.33-2.5 8.52 8.52 0 014.16-1c1.55 0 4.84.41 4.84 3.34v6a1.66 1.66 0 00.51 1.19v.24zm-.3-5a5.79 5.79 0 01-2.06.52c-1.89.29-2.86.43-2.86 1.46s1.94 1.17 2 1.17A2.76 2.76 0 00252.6 34zm9.62-3.57v5.43c0 1 .62 1.17 1.44 1.17h.87v2.27a16.83 16.83 0 01-1.69.09c-2.18 0-3.57-1-3.57-3v-5.96h-1.91v-1.79h1.91v-2.9h3v2.9h2.31v1.79zm7.56-3.08h-2.95V23.7h2.95zm0 11.65h-2.95V27.53h2.95zm2.47-5.17c0-3.93 2.75-5.56 5.62-5.56s5.6 1.63 5.6 5.56-2.76 5.56-5.6 5.56-5.62-1.65-5.62-5.56zm5.62-3.35c-1.52 0-2.6 1.21-2.6 3.4 0 1.66.8 3.28 2.6 3.28s2.57-1.44 2.57-3.33-.9-3.35-2.57-3.35zm10.45-1.84l.06 1.19a4.18 4.18 0 013.49-1.56 4 4 0 014.13 4.19v6.54h-2.9v-6.11a2.21 2.21 0 00-2.36-2.27 2.17 2.17 0 00-2.34 2.27v6.11h-2.9V27.53zM315 3.75h305a5 5 0 015 5v41.67a5 5 0 01-5 5H315V3.75z"/><path class="cls-1" d="M359.15 32.43c-.75 4.2-3.36 5.27-5.83 5.27-4 0-6.56-2.8-6.56-7.07s2.55-7.07 6.58-7.07a5.49 5.49 0 014.66 2.11 6 6 0 011.12 2.87h-3a2.55 2.55 0 00-2.83-2.54c-3.38 0-3.38 3.89-3.38 4.64s0 4.64 3.41 4.64c2.23 0 2.62-1.68 2.76-2.84zm6.33-8.5v13.4h-2.79v-13.4zm6.88 2.4h-2.79v-2.4h2.79zm0 11h-2.79v-9.78h2.79zm11-6.33a2 2 0 00-2.23-1.75c-2.22 0-2.56 1.92-2.56 3.11s.47 3.2 2.55 3.2a2 2 0 002.31-1.93h2.87c-.34 2.74-2.57 4-5.15 4-3.06 0-5.44-1.76-5.44-5.2s2.62-5.3 5.47-5.3c2.62 0 4.56 1.24 5 3.84zm8.64 3.71v2.62h-2.74v-13.4H392v7.7l4-4.08h3.35l-3.43 3.35 3.84 6.43h-3.3L394 32.72zm20.33-10.78v4.75a3.9 3.9 0 013.29-1.48 3.77 3.77 0 013.88 4v6.17h-2.74v-5.8a2.22 2.22 0 00-4.43 0v5.76h-2.74v-13.4zM425.2 33a2.39 2.39 0 002.56 2.63 2.13 2.13 0 002.24-1.22h2.79a3.67 3.67 0 01-.9 1.64 5.45 5.45 0 01-4.15 1.65c-3.09 0-5.33-1.85-5.33-5.25a4.91 4.91 0 015.2-5.25 5.16 5.16 0 014.25 2A6.78 6.78 0 01433 33zm5-1.73a2.55 2.55 0 00-2.55-2.06 2.47 2.47 0 00-2.45 2.06zm8.26-3.72l.05 1.79c.27-.61.95-2.14 3.74-2.14h1V30h-1.1c-1.33 0-3.44.54-3.44 2.94v4.37H436v-9.76zM448.4 33a2.4 2.4 0 002.6 2.66 2.15 2.15 0 002.26-1.25H456a3.58 3.58 0 01-.9 1.64 5.44 5.44 0 01-4.1 1.65c-3.1 0-5.34-1.85-5.34-5.25a4.92 4.92 0 015.2-5.25 5.12 5.12 0 014.25 2 6.8 6.8 0 011.11 3.8zm5-1.73a2.54 2.54 0 00-2.55-2.06 2.49 2.49 0 00-2.45 2.06zm17.05-2.03v5.13c0 1 .58 1.11 1.36 1.11h.81v2.14c-.57.05-1.07.08-1.59.08-2.06 0-3.37-.93-3.37-2.85v-5.61h-1.8v-1.69h1.8v-2.73h2.79v2.73h2.17v1.69zm4.62 3.21c0-3.7 2.6-5.25 5.31-5.25s5.28 1.55 5.28 5.25-2.6 5.25-5.28 5.25-5.31-1.56-5.31-5.25zm5.31-3.16c-1.43 0-2.45 1.14-2.45 3.21 0 1.57.75 3.1 2.45 3.1s2.43-1.36 2.43-3.15-.81-3.16-2.43-3.16zm17.91-1.74l.06 1.79c.27-.61.95-2.14 3.73-2.14h1V30H502c-1.33 0-3.44.54-3.44 2.94v4.37h-2.76v-9.76zm9.95 5.45a2.4 2.4 0 002.57 2.63 2.15 2.15 0 002.26-1.25h2.78a3.58 3.58 0 01-.9 1.64 5.44 5.44 0 01-4.14 1.65c-3.1 0-5.34-1.85-5.34-5.25a4.92 4.92 0 015.2-5.25 5.12 5.12 0 014.25 2 6.8 6.8 0 011.14 3.83zm5-1.73a2.54 2.54 0 00-2.55-2.06 2.49 2.49 0 00-2.45 2.06zm16.13-1.62a2.08 2.08 0 00-.88-.24h-.41c0 .92.13 3.35-4.25 3.35a8.86 8.86 0 01-2-.19.36.36 0 00-.24.34c0 .21.2.29.29.33a40.26 40.26 0 004.38.46c.46.05 3 .32 3 2.73a2.82 2.82 0 01-1.54 2.48 10.76 10.76 0 01-4.07.67c-1.36 0-5-.19-5-2.89a2.24 2.24 0 011.35-2.08 1.3 1.3 0 01-.82-1.19c0-.85.76-1.19 1.17-1.39a2.4 2.4 0 01-1-2c0-2.84 3.5-2.84 4.35-2.84a6 6 0 013.19.63 2.82 2.82 0 011.77-.63 4 4 0 01.7.05zm-7.87 6.78c0 1.32 2.16 1.32 2.65 1.32.75 0 2.23-.08 2.23-1.2a1 1 0 00-1-1 24.35 24.35 0 00-3.22-.19 1.27 1.27 0 00-.66 1.07zm.64-6.41c0 .73.67 1.16 1.57 1.16s1.6-.51 1.6-1.21-.65-1.14-1.57-1.14c-1.22 0-1.6.63-1.6 1.17zm13.21-3.69h-2.79v-2.4h2.79zm0 11h-2.79v-9.78h2.79zm9.86-7.09c0-.88-.8-1.19-1.73-1.19-.46 0-1.57.09-1.57.92s.84.93 1 1c3.77.93 5.34 1.32 5.34 3.46 0 2-1.77 3.28-4.71 3.28a6.5 6.5 0 01-3.16-.71 3.15 3.15 0 01-1.67-2.69h2.86c.12 1.33 1 1.53 2.12 1.53 1.43 0 1.7-.69 1.7-1.07 0-.76-.76-.93-1.42-1.1-3.4-.84-4.92-1.19-4.92-3.37 0-3.09 3.83-3.09 4.44-3.09a5.65 5.65 0 013.64 1.12 2.57 2.57 0 01.86 1.92zm10.19-1v5.13c0 1 .57 1.11 1.36 1.11h.81v2.14c-.58.05-1.07.08-1.6.08-2.05 0-3.36-.93-3.36-2.85v-5.61h-1.8v-1.69h1.8v-2.73h2.79v2.73h2.17v1.69zm7.39 3.76a2.4 2.4 0 002.57 2.63 2.15 2.15 0 002.26-1.25h2.79a3.7 3.7 0 01-.91 1.64 5.44 5.44 0 01-4.14 1.65c-3.1 0-5.34-1.85-5.34-5.25a4.92 4.92 0 015.2-5.25 5.12 5.12 0 014.25 2 6.8 6.8 0 011.14 3.83zm5-1.73a2.54 2.54 0 00-2.55-2.06 2.49 2.49 0 00-2.45 2.06zm8.26-3.72l.05 1.79c.27-.61.95-2.14 3.74-2.14h1V30h-1.11c-1.32 0-3.43.54-3.43 2.94v4.37h-2.74v-9.76zM615 29.58l-4.63-4.01v8.03l4.63-4.02z"/><path fill="#282828" opacity=".8" d="M0 .36h631.04v60H0z"/><path class="cls-2" d="M84.92 20.1h10.27c3.82 0 7.32 2.2 7.32 6.6 0 3.47-2.42 6.42-7.32 6.42h-5.77v6.68h-4.5zm4.5 9.45h5.27a2.95 2.95 0 100-5.87h-5.27zm19.9-4.12l.07 2.62c.4-.9 1.4-3.15 5.5-3.15h1.45v4.15h-1.63c-1.94 0-5 .8-5 4.32v6.43h-4V25.43zm13.12 8.04c.1 2.4 1.33 3.88 3.78 3.88s3-1.28 3.32-1.85h4.1a5.41 5.41 0 01-1.33 2.42 8 8 0 01-6.09 2.43c-4.55 0-7.85-2.73-7.85-7.72 0-5.5 3.92-7.73 7.65-7.73a7.49 7.49 0 016.24 3 9.94 9.94 0 011.68 5.62zm7.4-2.55c-1-3-3.22-3-3.75-3a3.65 3.65 0 00-3.6 3zm13.9 3.58h-7.3v-3.75h7.3zm15.5-9.07l2.9 9.57 2.07-9.57h4.33l-4.23 14.37h-4l-2.94-9.63-3 9.63h-4L146 25.43h4.35l2.34 9.57 2.8-9.57zm15.43 8.04c.1 2.4 1.32 3.88 3.77 3.88s3.05-1.28 3.32-1.85h4.1a5.39 5.39 0 01-1.32 2.42 8.05 8.05 0 01-6.1 2.43c-4.55 0-7.85-2.73-7.85-7.72 0-5.5 3.93-7.73 7.65-7.73a7.53 7.53 0 016.25 3 9.92 9.92 0 011.67 5.62zm7.39-2.55c-.95-3-3.22-3-3.74-3a3.64 3.64 0 00-3.6 3zM193 27.18c.45-.73 1.43-2.28 4.6-2.28 4.32 0 6.45 3.38 6.45 7.7 0 3.77-1.73 7.75-6.72 7.75a4.85 4.85 0 01-4.63-2.55l-.07 2H189V20.1h4zm0 5.39c0 2.18.75 4.43 3.35 4.43s3.32-2.25 3.32-4.43-.75-4.39-3.32-4.39-3.35 2.17-3.35 4.39zm26.62-7.14l.07 2.62c.4-.9 1.4-3.15 5.5-3.15h1.45v4.15H225c-1.94 0-5 .8-5 4.32v6.43h-4V25.43zm13.12 8.04c.1 2.4 1.33 3.88 3.78 3.88s3-1.28 3.32-1.85h4.1a5.41 5.41 0 01-1.33 2.42 8 8 0 01-6.09 2.43c-4.55 0-7.85-2.73-7.85-7.72 0-5.5 3.92-7.73 7.65-7.73a7.49 7.49 0 016.24 3 9.94 9.94 0 011.68 5.62zm7.4-2.55c-.95-3-3.23-3-3.75-3a3.65 3.65 0 00-3.6 3zm22.17-2.42a3.12 3.12 0 00-1.3-.35c-.15 0-.27 0-.6.05 0 1.35.2 4.92-6.25 4.92a13.92 13.92 0 01-3-.27.51.51 0 00-.35.5c0 .3.3.42.42.47a56.66 56.66 0 006.45.68c.67.07 4.42.47 4.42 4a4.17 4.17 0 01-2.27 3.65c-1.35.8-4.72 1-6 1-2 0-7.33-.28-7.33-4.25a3.3 3.3 0 012-3.1 1.91 1.91 0 01-1.2-1.75c0-1.25 1.12-1.75 1.72-2a3.5 3.5 0 01-1.45-2.92c0-4.18 5.15-4.18 6.4-4.18a8.85 8.85 0 014.7.93 4.08 4.08 0 012.6-.93 6.69 6.69 0 011 .08zm-11.57 10c0 2 3.18 2 3.9 2 1.1 0 3.27-.12 3.27-1.77 0-.95-.77-1.3-1.4-1.43a36.7 36.7 0 00-4.72-.27 1.83 1.83 0 00-1.05 1.44zm.95-9.42c0 1.08 1 1.7 2.3 1.7s2.35-.75 2.35-1.77-.95-1.68-2.3-1.68c-1.8-.03-2.35.9-2.35 1.72zm17.93-5.45h-4.1V20.1h4.1zm0 16.17h-4.1V25.43h4.1zm13-10.42c-.05-1.3-1.18-1.75-2.55-1.75-.68 0-2.3.12-2.3 1.35 0 1.07 1.22 1.37 1.52 1.44 5.55 1.38 7.85 2 7.85 5.1 0 2.9-2.6 4.83-6.92 4.83a9.56 9.56 0 01-4.65-1.05 4.57 4.57 0 01-2.45-3.95h4.2c.17 1.95 1.52 2.25 3.12 2.25 2.1 0 2.5-1 2.5-1.58 0-1.12-1.12-1.37-2.1-1.62-5-1.23-7.22-1.75-7.22-4.95 0-4.55 5.62-4.55 6.52-4.55s3.52 0 5.35 1.65a3.81 3.81 0 011.27 2.83zm13.47-1.48v7.55c0 1.42.85 1.62 2 1.62h1.2v3.15c-.85.08-1.57.13-2.35.13-3 0-4.95-1.38-4.95-4.2V27.9h-2.65v-2.47H292v-4h4.1v4h3.2v2.47zm9.5-2.47l.08 2.62c.4-.9 1.4-3.15 5.49-3.15h1.45v4.15H311c-1.95 0-5.05.8-5.05 4.32v6.43h-4V25.43zm20.52 14.37a3.51 3.51 0 01-.42-1.7c-.63.72-2 2.25-5.47 2.25-1.73 0-5.58-.28-5.58-4.55 0-3.58 3.08-4 6.73-4.5 3.49-.5 4.32-.6 4.32-1.8 0-1.62-1.6-1.7-2.62-1.7-3.73 0-3.75 1.23-3.75 1.93h-3.95a4.43 4.43 0 011.85-3.48c1.5-1.05 4.37-1.35 5.77-1.35 2.15 0 6.72.58 6.72 4.65v8.27a2.34 2.34 0 00.7 1.65v.33zm-.42-6.88a7.82 7.82 0 01-2.85.73c-2.62.4-4 .6-4 2 0 1.63 2.7 1.63 2.84 1.63a3.83 3.83 0 004-2.95zm13.38-5.02v7.55c0 1.42.84 1.62 2 1.62h1.2v3.15c-.85.08-1.57.13-2.35.13-3 0-4.94-1.38-4.94-4.2V27.9h-2.65v-2.47H335v-4h4.1v4h3.19v2.47zm10.5-4.27h-4.1V20.1h4.1zm0 16.17h-4.1V25.43h4.1zm3.43-7.17c0-5.45 3.83-7.73 7.8-7.73s7.77 2.28 7.77 7.73-3.82 7.72-7.77 7.72-7.8-2.3-7.8-7.72zm7.8-4.65c-2.1 0-3.6 1.67-3.6 4.72 0 2.3 1.1 4.55 3.6 4.55 2.32 0 3.57-2 3.57-4.62S363.11 28 360.79 28zm14.52-2.55l.07 1.65a5.79 5.79 0 014.85-2.18 5.55 5.55 0 015.7 5.82v9.08h-4v-8.47a3.06 3.06 0 00-3.27-3.15 3 3 0 00-3.25 3.15v8.47h-4V25.43zm27.02-5.33v7a5.79 5.79 0 014.85-2.18 5.55 5.55 0 015.7 5.82v9.06h-4v-8.47a3.06 3.06 0 00-3.27-3.15 3 3 0 00-3.25 3.15v8.47h-4V20.1zm24.82 19.7a3.51 3.51 0 01-.42-1.7c-.63.72-2 2.25-5.47 2.25-1.73 0-5.58-.28-5.58-4.55 0-3.58 3.08-4 6.72-4.5s4.33-.6 4.33-1.8c0-1.62-1.6-1.7-2.63-1.7-3.72 0-3.74 1.23-3.74 1.93h-3.95a4.43 4.43 0 011.85-3.48c1.5-1.05 4.37-1.35 5.77-1.35 2.15 0 6.72.58 6.72 4.65v8.27a2.34 2.34 0 00.7 1.65v.33zm-.42-6.88a7.82 7.82 0 01-2.85.73c-2.62.4-4 .6-4 2 0 1.63 2.7 1.63 2.84 1.63a3.83 3.83 0 004-2.95zm16.4-3.54c-.05-1.3-1.18-1.75-2.55-1.75-.68 0-2.3.12-2.3 1.35 0 1.07 1.23 1.37 1.53 1.44 5.54 1.38 7.84 2 7.84 5.1 0 2.9-2.6 4.83-6.92 4.83a9.59 9.59 0 01-4.65-1.05 4.62 4.62 0 01-2.45-3.95h4.2c.18 1.95 1.53 2.25 3.12 2.25 2.1 0 2.5-1 2.5-1.58 0-1.12-1.12-1.37-2.09-1.62-5-1.23-7.23-1.75-7.23-4.95 0-4.55 5.63-4.55 6.52-4.55s3.53 0 5.35 1.65a3.82 3.82 0 011.28 2.83zm20.08 4.09c.1 2.4 1.32 3.88 3.77 3.88s3.05-1.28 3.32-1.85h4.1a5.39 5.39 0 01-1.32 2.42 8.05 8.05 0 01-6.1 2.43c-4.55 0-7.85-2.73-7.85-7.72 0-5.5 3.93-7.73 7.65-7.73a7.53 7.53 0 016.25 3 9.92 9.92 0 011.67 5.62zm7.39-2.55c-.95-3-3.22-3-3.74-3a3.64 3.64 0 00-3.6 3zm10.86-5.49l.07 1.65a5.79 5.79 0 014.85-2.18 5.55 5.55 0 015.7 5.82v9.08h-4v-8.47a3.06 3.06 0 00-3.27-3.15 3 3 0 00-3.25 3.15v8.47h-4V25.43zm24.47-5.33h4v19.7h-3.62l-.08-2a4.89 4.89 0 01-4.64 2.55c-5 0-6.73-4-6.73-7.75 0-4.32 2.13-7.7 6.45-7.7 3.17 0 4.15 1.55 4.6 2.28zm-6.72 12.47c0 2.18.75 4.43 3.32 4.43s3.35-2.25 3.35-4.43-.78-4.39-3.35-4.39-3.32 2.22-3.32 4.39zm17.62.9c.1 2.4 1.33 3.88 3.78 3.88s3-1.28 3.32-1.85H528a5.41 5.41 0 01-1.33 2.42 8 8 0 01-6.09 2.43c-4.55 0-7.85-2.73-7.85-7.72 0-5.5 3.92-7.73 7.64-7.73a7.5 7.5 0 016.25 3 9.94 9.94 0 011.68 5.62zm7.4-2.55c-1-3-3.23-3-3.75-3a3.65 3.65 0 00-3.6 3zm17.45-10.82h4v19.7h-3.62l-.08-2a4.89 4.89 0 01-4.64 2.55c-5 0-6.73-4-6.73-7.75 0-4.32 2.13-7.7 6.45-7.7 3.17 0 4.15 1.55 4.6 2.28zM535 32.57c0 2.18.75 4.43 3.32 4.43s3.35-2.25 3.35-4.43-.78-4.39-3.35-4.39S535 30.4 535 32.57z"/></g></g></svg>