<svg xmlns="http://www.w3.org/2000/svg" width="347.99" height="40"><path d="M0 0h10v40H0zm54.62 17.91v4H45.3a7.27 7.27 0 01-.14 1.26h13.89v4.14H48.29a22.11 22.11 0 0011.27 4.39 15.09 15.09 0 00-2.85 4.72C55 36.09 47.82 34.33 43 28.86c-2.12 3-6.44 6.4-13.17 7.66a17.63 17.63 0 00-2.74-4.6c3.71-.29 8.21-1.34 10.87-4.61H27v-4.14h12.79c0-.29.11-.61.18-1.26h-8.53v-4h8.79v-1.36H30.9v-1.41h-4.1V6.25h13.25V3.48l5.72.14c.47 0 .83.18.83.47s-.29.43-.83.72v1.44h13.35v8.64h-4.21v1.66h-9.32v1.36zm-14.39-7.56h-8.35v2.24h8.35zm5.36 2.24h8.49v-2.24h-7.63a.37.37 0 01.11.26c0 .43-.47.54-1 .64zM84 16.73v-5.08l4.54.32c.54 0 .75.29.75.47s-.5.51-.75.58v2.3l4-1.26 2.38 1V24a4 4 0 01-2.52 4.14A6.67 6.67 0 0096.53 30a9.4 9.4 0 01-.79 3.53 5.11 5.11 0 01-4.47 2.49h-7.74c-5.32 0-5.58-3.57-5.58-4.61v-7.7l-1.62.5C76 33.75 75.36 36 69.21 36.6a10.8 10.8 0 00-1.12-4.5 14.92 14.92 0 01-2.16 4 11.84 11.84 0 00-4.46-2.63 24.62 24.62 0 003.85-11.2c.14-2 .14-3.56.11-9.5h-3.24V8.2h5.18v-5l5.29.22c.33 0 .9.07.9.57 0 .29-.29.47-.9.69V8.2h4.07v2.33A18.62 18.62 0 0080.11 3L85 4.38c.18 0 .51.14.51.5s-.25.47-.79.69c-.26.68-.33.9-.47 1.22h11.41V11H82.24a33.72 33.72 0 01-1.84 3l2.27.11c.43 0 .61.29.61.54s-.21.4-.61.61v1.8zm-13.43 3.42a35 35 0 01-2.15 11.15 7.5 7.5 0 001.51.18c1.08 0 1.58-.9 1.87-3.67a70.14 70.14 0 00.36-7.66zm.08-7.42v2.77h5.14a14.61 14.61 0 00-2.19-1.19 16.36 16.36 0 001.51-1.58zm7.3 5.9v-1.58a10.08 10.08 0 00-1.65-1.22c0 1.11 0 2.19.07 3.27zm4.72 3.57v7.27a1.94 1.94 0 002.09 2h4.75c2.12 0 2.3-1.08 2.41-3.17a8.62 8.62 0 01-2.09.29 9.87 9.87 0 00-1.29-3.71v4.39H84v-7.5zm5.87-1.87V24c1.65 0 1.65-1.19 1.65-1.66v-2.55zm40.82-4.43l2.64 2.63a50.76 50.76 0 01-8.5 10.72 12.26 12.26 0 00-4.32-3.49 20.74 20.74 0 004.56-4.76h-5.9v11c0 4-2.52 4.5-8.31 4.39a12.24 12.24 0 00-1.77-5.29 15.77 15.77 0 002.92.29c1.55 0 1.73-.51 1.73-2.13V21H98.58v-5.1h14.87a65 65 0 00-7.85-3.17L109 9h-7V4.38h23.5l2 2.77a53.21 53.21 0 01-7.88 6.16 16 16 0 012 1.22 21.69 21.69 0 00-1.76 1.37zM109.42 9c.65.25 3.45 1.22 5.36 2a23.75 23.75 0 002.67-2zm44.46 11.94h9.46v4.71h-9.46V31c.9 0 1.94.07 3.35.07a105.79 105.79 0 0011.08-.61 11.9 11.9 0 00-1.31 5.63h-14.06c-6.59 0-9.57-3.6-10.62-5a27.15 27.15 0 01-3.38 5.69c-1.87-1.37-2.27-1.51-5.15-2.23a25.08 25.08 0 006.12-14.9l5.54 1c.33.07.72.14.72.57s-.21.43-1 .72c-.18.9-.36 1.8-.83 3.53a7.78 7.78 0 004 4.68V17.63h-9.32v-2.74h-4.5V6.54h13.64V3.16l5.51.36c.5 0 1 .07 1 .43s-.18.43-1 .79v1.8h13.82v8.21h-4.18v2.88h-9.46zm8.31-8v-2.05h-22.42V13zm33.91-4.85a2.68 2.68 0 001.8-.58l3.68 2.49a17.42 17.42 0 00-2.13 4.32c-3.67 9.11-6.22 15.44-18.79 21.71a21.85 21.85 0 00-4-4.76c3.85-1.54 14.08-6 16.92-18.07h-20.7V8.09zm-.54-5.94a21.7 21.7 0 013.28 3.74c-1.08.69-1.26.79-3.06 2.05a36 36 0 00-3.24-3.78zm6.16 0a23.6 23.6 0 013.17 3.92c-1 .68-2.31 1.51-3 2a22.22 22.22 0 00-3.17-4zM238.66 17v6.1h-31.28V17zm7.85-5.64V6h18.39a9.7 9.7 0 002.48-.29l2.81 3.06a11 11 0 00-1.37 2.23 61.89 61.89 0 01-4.57 8.82c1.51 1.15 8.1 6.62 10.8 9.86-1.19 1.37-3.13 3.53-4.32 4.9a49 49 0 00-9.68-10.26c-3.46 4.14-9.11 8.78-13.82 10.76a16 16 0 00-4.11-4.93 30.25 30.25 0 0011.7-7.2c4.11-4 5.58-7.49 7.2-11.63zm64.69 5.73v6h-32.51v-6zm23.94 19.18c-1 0-3.46 0-3.46-2.3v-3.13h-4.89l1.94.82c.29.15.83.36.83.76s-.72.58-1.41.61a19.32 19.32 0 01-11.73 3.67 13 13 0 00-1.84-4.39 8.72 8.72 0 001.34.15c1 0 5.43-.33 7.41-1.62h-4.82V18h25.19v10.42a10.32 10.32 0 004.3 1.91c-.22 1.77-.76 5.94-3.93 5.94zm-4.93-28.61v2.19a21.08 21.08 0 003-6.8l4.93 1.15c.25.07.43.18.43.36 0 .43-.54.65-1 .68-.07.29-.22.65-.29.9h10.12v4.18h-12.08c-.22.32-.47.75-1.19 1.76h11v4.39h-11.32v-4c-.18.29-.65.86-.87 1.19a11.54 11.54 0 00-2.73-2v1.62h-4.5v1.3h5.58v2.66H315V3.7h15.87v2.7h-5.18v1.26zm-8.75 0V6.4h-2.09v1.26zm-2.09 2.15v1.26H326V9.81zm0 3.46v1.3h2.09v-1.3zm19.33 8.6v-1.15h-15.19v1.15zm-15.19 1.88V25h15.19v-1.25zm0 3.09v1.22h15.19v-1.22zm18.39 5.65c.58 0 .87-.39 1.12-1.65h-6.19v.82c0 .47.18.83.86.83z" fill="#00b4dc" data-name="レイヤー 2"/></svg>