<svg xmlns="http://www.w3.org/2000/svg" width="67.79" height="30"><path d="M42.3 8.53V24.3c0 1.16 0 2.69-3.22 2.69-.6 0-1.41-.07-2-.09a9 9 0 00-1.27-3.84 16.5 16.5 0 002.21.31c.31 0 .62-.15.62-.89V20a10.2 10.2 0 00-1.8 2.26 10.47 10.47 0 01-4.8-4.95 16.41 16.41 0 01-5.19 5.4 6.55 6.55 0 00-1.56-2.25V27h-3.63V8.53h8.47V4.86L34 5c.29 0 .45.14.45.33s-.31.39-.64.48v2.72zm-17 10.73a9.2 9.2 0 004.7-7.32h-4.7zm8.53-7.32a7 7 0 001.32 3.94 10.76 10.76 0 003.5 3.1v-7zm29.73 14.91h-3.43v-.55h-8v.55h-3.57v-6a12 12 0 01-1.85.87 6.39 6.39 0 00-2.49-2.43c2.44-1 7.77-3.5 10.2-8.59l3.31.62c.24.05.46.22.46.39s-.08.21-.29.33a23.58 23.58 0 009.89 6.65 9.08 9.08 0 00-2.45 2.81 8 8 0 01-1.78-.84zm3.27-20.26V12h-3.15A16.25 16.25 0 0066 13.41a8 8 0 00-2.6 2.35 26.16 26.16 0 01-5.2-4.47l2.55-1.89H51l2.45 1.34a.53.53 0 01.29.39c0 .26-.29.33-.5.36a16.56 16.56 0 01-4.4 4.22 7.26 7.26 0 00-2.61-2.16A13.42 13.42 0 0048.46 12h-3.28V6.59h9V4.67l3.72.1c.26 0 .48.14.48.28s-.27.34-.48.46v1.08zm-18.15 5.19a13.87 13.87 0 002-2.38h-2zm11.45 11.59V20.8h-8v2.57zm-1-5.69a22.46 22.46 0 01-3.26-3 28.89 28.89 0 01-3 3zM61 9.4a20.26 20.26 0 002.44 2.35V9.4zM0 0h10v30H0z" fill="#00b4dc" data-name="レイヤー 2"/></svg>