<svg xmlns="http://www.w3.org/2000/svg" width="382.44" height="40"><path d="M0 0h10v40H0zm37.85 4.49l5.76-.79c.25 0 .76-.08.76.36s-.26.54-.54.75l.68 4.68 8.1-1 .61 5.26-7.92 1.07.54 3.74 12-1.55.61 5.29-11.82 1.59 1.66 11.34-5.76 1-1.69-11.59-12.6 1.66-.65-5.4 12.46-1.62-.54-3.71-8.79 1.16-.64-5.4 8.63-1.08zm34.63 5.79l5-.61c.33 0 .76-.11.76.33 0 .28-.29.5-.54.68l1 5.22 8.68-1.77a3 3 0 001.65-1l3.49 2.63c-1.51 1.84-3.52 5.51-6 10.08a32.09 32.09 0 00-4.72-2.27 25.68 25.68 0 002.63-4.1l-4.79 1.08 2.74 13.93-4.9 1.15-2.77-14-7.23 1.62-1.37-4.89 7.66-1.55zm31.75-5.72c6 3.1 7.92 4.9 9 5.9-.86 1-1.11 1.44-3.49 4.9a37.13 37.13 0 00-9.07-5.76zm-3 24.87c10.26-2.12 20.38-9.07 26.78-19.36a23.27 23.27 0 003.76 4.93 47.75 47.75 0 01-11.19 12 60.41 60.41 0 01-14.83 8c0 .39-.18.79-.51.79s-.36-.11-.57-.51zm32.71-9.28c2.41-1.77 3-2.38 8-8.07 3.39-3.78 4.72-4.89 6.77-4.89 2.3 0 3.42 1.36 5.94 4.42 4.28 5.22 8.71 10.37 14 14.51-1.37 1.73-3.13 4.28-3.82 5.26a196.82 196.82 0 01-14-15.95c-1.44-1.84-1.94-1.84-2.38-1.84-.82 0-2 1.34-2.84 2.34-1.69 2-5.25 6.63-6.41 8.39a1.41 1.41 0 01.11.47.36.36 0 01-.32.39.94.94 0 01-.61-.35zM165.61 7a3.39 3.39 0 11-3.38-3.39A3.38 3.38 0 01165.61 7zm-5 0a1.58 1.58 0 001.59 1.58A1.59 1.59 0 10160.64 7zm42.05 10v6.1h-31.28V17zm9.57-12.44c6.05 3.1 7.92 4.9 9 5.9-.86 1-1.11 1.44-3.49 4.9a37.13 37.13 0 00-9.07-5.76zm-2.95 24.87c10.26-2.12 20.38-9.07 26.78-19.36a23.27 23.27 0 003.71 4.93 47.75 47.75 0 01-11.19 12 60.41 60.41 0 01-14.83 8c0 .39-.18.79-.51.79s-.36-.11-.57-.51zM253.2 8.05a36.84 36.84 0 014 3.85 9.34 9.34 0 00-2.59 2.38h7.48v-1.19h-4.86v-2.95h4.86V9h-7V5.53h7v-2.3l5.37.32c.32 0 .68.07.68.47s-.32.54-.68.72v.79h7.77V9h-7.77v1.19h5.72v2.95h-5.72v1.19H276v3.35h-22v-2.83a16.26 16.26 0 00-1.51-2v23.39h-5.26v-25a1.22 1.22 0 01-.57.14 44.26 44.26 0 01-1.48 8.79 13.85 13.85 0 00-4-1.7 30.6 30.6 0 001.47-8.74l4.14.54a1.88 1.88 0 01.47.1v-7l5.58.29c.22 0 .61.11.61.47s-.43.65-.93.86V8.7zm7.92 22.75v5.44h-5.29V18.92h18.54v13.43c0 2.59 0 4.32-6.63 4.1a11.94 11.94 0 00-1.83-4.57 21.93 21.93 0 002.45.25c.79 0 .79-.18.79-1.33zm8-7.2v-1.51h-8v1.51zm0 4.36v-1.52h-8V28zm20.12-2.13h4.93v4.25h-4.93v6.37h-4.82v-6.37h-5v-4.25h5V24.1h-5.48v-4.24H281a13 13 0 00-1-2.67l2.81-.79h-4.61v-4.21h6.2V10.5H280v-4h4.43v-3l5.07.25a.45.45 0 01.5.4c0 .32-.36.57-.75.83v1.49h4.64v4h-4.64v1.69h5.51v4.24h-4.14l2.41.51c.32.07.65.14.65.5s-.29.5-.94.54c-.32.86-.65 1.62-.79 1.91h2.55v4.24h-5.25zm-4.5-9.43a24.68 24.68 0 011.26 3.06l-1.26.4h2.7a18 18 0 001.15-3.46zm15.91 20.05h-5V4.16h14.76c0 5.76 0 8-.22 9.18-.43 2.38-2.63 3.06-6.51 3.1a10.61 10.61 0 00-1.91-5 8.33 8.33 0 002.27.25c1.22 0 1.36-.25 1.36-1.62V8.7h-4.71v8.53h8.46l2.41 2.52A47.46 47.46 0 01308 29.4a20.89 20.89 0 004.25 4 17.78 17.78 0 00-4 3.24 38.22 38.22 0 01-2.88-3 14 14 0 01-2.16 2.59 13.5 13.5 0 00-2.59-2.09zm3.09-14.58a16.73 16.73 0 001.12 3.28 19 19 0 001.08-3.46h-5.29v2.13zm-3.09 10.37a23.93 23.93 0 001.8-2.48 21.18 21.18 0 01-1.8-4zm37.29-3.67a28.24 28.24 0 009.4 4.32c-.65.39-1.51 1-3.24 3.92a36.25 36.25 0 01-10.55-6.26v6.05h-5.11v-6.3a34 34 0 01-10.83 6.51c-1.73-3-2.59-3.53-3.24-3.92a26.71 26.71 0 009.39-4.32h-9.1v-3.82h13.78v-1.91a40.78 40.78 0 01-10 1.3 9.86 9.86 0 00-1.88-4.14c.9.07 2 .14 3.57.14a25.36 25.36 0 006.62-.79c-1.3-.25-1.8-.33-2.38-.4l-.79.65a12.32 12.32 0 00-4.1-2.16c.79-.65 1.29-1.08 2.09-1.84h-6.91v-3.7h10.22a26.39 26.39 0 001.76-2.56h-6.33V11h-4.9V5.57h12.71V3.23l5.79.18c.29 0 .76 0 .76.43s-.5.65-.76.76v1h12.75v5.22h-5.22V9.31h-8.21c.18.61-.43.69-1.15.76-.69.9-.87 1.08-1.37 1.8h16.88v3.7h-6.95a.34.34 0 01.22.29c0 .36-.72.47-1 .51a22.94 22.94 0 01-1.91 1.8 40.37 40.37 0 016.91 2.62 18.25 18.25 0 00-2.84 4h5.54v3.82zm-10.25-13l-.94 1a49.23 49.23 0 015.11.65 13.08 13.08 0 002.34-1.66zm6 5.44a26.67 26.67 0 01-5.19 1.83l5.26.22c.32 0 .68.07.68.43s-.39.61-.9.9v.36H342a33 33 0 00-8.3-3.75zm48.75-12.2v23.65c0 1.72 0 4-4.82 4-.9 0-2.13-.11-3-.15a13.51 13.51 0 00-1.91-5.76 23.66 23.66 0 003.31.47c.47 0 .94-.21.94-1.33v-3.75a14.94 14.94 0 00-2.7 3.38 15.61 15.61 0 01-7.2-7.41 24.7 24.7 0 01-7.78 8.1 9.94 9.94 0 00-2.28-3.38v9.82h-5.48V8.81h12.71V3.3l5.83.22c.43 0 .69.21.69.5s-.47.58-1 .72v4.07zM357 24.9a13.86 13.86 0 007.09-11H357zm12.77-11a10.69 10.69 0 002 5.9 16.13 16.13 0 005.23 4.66V13.92z" fill="#00b4dc" data-name="レイヤー 2"/></svg>