<svg xmlns="http://www.w3.org/2000/svg" width="204.24" height="40"><path d="M0 0h10v40H0zm38.14 22.74c-1 .86-2.81 2.73-2.81 3.92 0 2.59 4.93 2.59 6.44 2.59a50.06 50.06 0 0014.44-2.16 27.25 27.25 0 00.93 6.12 54.7 54.7 0 01-14.07 1.66c-5.62 0-7.85-.61-9.61-1.33-1.15-.47-4.57-2.16-4.57-5.8s3.74-7.09 5.22-8.42zm15.12-11.85c-3.35 1.34-7.09 3.57-9.07 5.87-1.3-1.11-2.67-2.27-3.78-3.09 1.33-1.23 1.65-1.48 2.7-2.34-2.24.18-8.28.5-11.34.43l-.29-6a72.51 72.51 0 009 .46 71 71 0 0010-.82zm1.58-5.61a26.27 26.27 0 013.28 3.78A14.66 14.66 0 0056 11.65a40.22 40.22 0 00-3.45-4zm2.77-3.06A37.54 37.54 0 0161 5.75a14.07 14.07 0 00-2.31 2.45 28.69 28.69 0 00-3.13-3.53zM78 11.43c0-1.22 0-1.54-.08-2.37h-7.85V3.77h13.75c0 .93-.25 5.07-.25 5.9 0 10.94 5.83 18.57 13.21 23.11a14.39 14.39 0 00-4.72 3.92c-4.46-3.09-11-9.86-13-18.14-1.18 4-4 11.48-13.6 18.18a15.65 15.65 0 00-4.43-4c11-7.09 13-14.72 13.93-21.85zm35.92 14.94a25.31 25.31 0 01-4.25 4.36 8.92 8.92 0 00-3.38-2.41c.64-.51 1.18-.9 2-1.62-2.23 1-5 2-7.88 3 0 .44-.14.94-.54.94s-.5-.47-.58-.83l-1.22-5.07a31.34 31.34 0 004.07-.76v-8.19h-3.7v-4.68h3.71V3.62l5.32.29c.44 0 .76.07.76.4s-.22.43-.76.68v6.12h3.21v4.68h-3.21v6.55c.87-.36 1.41-.57 2.27-1h-.25v-3.61h21.81v3.64h-13.93l-.68 1.15h14.36c0 3.64-.11 10.84-2.45 12.67-1.36 1.08-3.67 1.19-5.94 1.19a10.63 10.63 0 00-1-3.89 27.09 27.09 0 01-4.28 4.5c-.94-1-1.51-1.29-3.82-2.3a25 25 0 007.6-8.32h-1.62a25.1 25.1 0 01-9.47 9.54 9.53 9.53 0 00-3.14-2.91 21.84 21.84 0 008.39-6.66zm-3.28-5a15.78 15.78 0 00-.25 3.2 23.78 23.78 0 002.2-3.2zm18.14-4.82H112V3.87h16.81zm-4.86-7.71V7.62h-7.09v1.22zm-7.09 2.88V13h7.09v-1.28zm8.5 14.65a39.4 39.4 0 01-2.85 5c.44 0 .83.07 1.26.07.72 0 1.37-.07 1.62-.9a18.1 18.1 0 00.65-4.18zM167.45 8.3v5.15h-15.52c0 1.33-.14 2.27-.21 3h11.37c0 12.16-.68 15.48-3.24 18-1.83 1.84-5.76 2-7.09 2a9.14 9.14 0 00-2.66-5.65c1 .14 3.42.54 3.78.54a2.66 2.66 0 002.88-2.09 25 25 0 001-7.84h-7a24.32 24.32 0 01-13 15.11c-.87-1.36-2.67-3.34-4.43-3.88 6.41-2 13.1-7.24 13.1-19.19h-11.88V8.3h13.53v-5l5.76.32c.22 0 .65.11.65.5s-.4.54-.65.65V8.3zm4.97 3.96a45.1 45.1 0 015.72 4.47 18.48 18.48 0 00-2.91 3.7A47.93 47.93 0 00169.5 16zm-2.88 20.84c1.8-2.12 4.36-7.27 5.58-11.12a11.52 11.52 0 004.17 2.59 55.82 55.82 0 01-4.64 10.73 1 1 0 01.11.47.51.51 0 01-.5.47 1.4 1.4 0 01-.69-.26zm5.29-29.76A25.34 25.34 0 01180.41 8c-1.69 1.84-1.87 2.06-3.38 3.89a31.9 31.9 0 00-5.47-5zm22.07 19.15a45.41 45.41 0 017.34 11 18.28 18.28 0 00-4.54 2.81c-.75-1.55-1.15-2.34-1.83-3.56A104.72 104.72 0 01182 35.12c-.15.32-.33.72-.76.72s-.5-.43-.61-.86L179.44 30c1.65 0 2.73 0 4-.1a62.09 62.09 0 003.46-8h-7.49v-4.63h9.25v-4h-7.42V8.63h7.42V3.37l5.58.11c.57 0 1 .07 1 .5s-.36.51-1.05.76v3.89h8v4.64h-8v4h9.4V22h-9.58c.08.07.08.14.08.25 0 .51-1 .72-1.52.8-.72 1.69-1.58 3.38-3.16 6.47a50.69 50.69 0 005.93-.86 16.75 16.75 0 00-2.62-3.49z" fill="#00b4dc" data-name="レイヤー 2"/></svg>