<svg xmlns="http://www.w3.org/2000/svg" width="399.83" height="30"><path d="M31.35 10.29V8.7h-5.3V5.17h9.17c0 .63-.17 3.39-.17 3.94a17.58 17.58 0 008.81 15.41 9.51 9.51 0 00-3.15 2.62c-3-2.07-7.32-6.58-8.69-12.1-.79 2.69-2.66 7.66-9.07 12.12A10.21 10.21 0 0020 24.47c7.37-4.73 8.64-9.81 9.29-14.57zm23.93 9.96a16.5 16.5 0 01-2.83 2.9 6.18 6.18 0 00-2.26-1.61c.43-.33.79-.6 1.35-1.08-1.49.65-3.32 1.35-5.26 2 0 .28-.1.62-.36.62s-.34-.31-.38-.55l-.82-3.39a17.74 17.74 0 002.71-.5v-5.45H45v-3.12h2.47v-5l3.53.2c.29 0 .51.05.51.26s-.15.29-.51.46v4.08h2.14v3.12H51v4.37c.58-.24.94-.38 1.52-.65h-.17v-2.42h14.52v2.42h-9.29l-.45.77h9.58c0 2.42-.08 7.22-1.64 8.45-.91.72-2.44.79-4 .79a7 7 0 00-.64-2.59 19 19 0 01-2.86 3 6.07 6.07 0 00-2.55-1.54 16.68 16.68 0 005.07-5.54h-1.04a16.84 16.84 0 01-6.31 6.36 6.18 6.18 0 00-2.12-1.92 14.73 14.73 0 005.6-4.44zm-2.18-3.34a9.74 9.74 0 00-.17 2.14 15.17 15.17 0 001.46-2.14zm12.09-3.21H54V5.25h11.19zM62 8.56v-.82h-4.77v.82zm-4.72 1.92v.82H62v-.82zm5.66 9.77A26.2 26.2 0 0161 23.58a8 8 0 00.84.05c.48 0 .92-.05 1.08-.6a11.81 11.81 0 00.44-2.78zM75.2 6.81c.19.07.31.16.31.33s-.45.34-.67.36a33.17 33.17 0 00-1.44 9.24 17.14 17.14 0 00.17 2.4c.31-.45.81-1.22 1.13-1.7a10.26 10.26 0 001.72 2.38 10.65 10.65 0 00-2 5.88l-3.21.6a33.73 33.73 0 01-1.3-9.68 43 43 0 011.44-11zm11.4-.53c.12 0 .31 0 .31.26s-.33.36-.55.39a26.32 26.32 0 00-.24 2.88 21.76 21.76 0 003.55-.89v3.62c-.55.15-1.65.41-3.64.77a39.45 39.45 0 00.38 5.52A13.57 13.57 0 0191 21.3c-.38.7-1.1 2.26-1.63 3.39a8.54 8.54 0 00-2.57-1.83c-.1 3.08-3.17 3.44-4.68 3.44-3.6 0-5.4-2-5.4-4.2 0-2.86 2.83-3.94 6-3.87-.19-2.73-.21-3.05-.26-4.44-1.37.12-2.36.12-2.76.12a17.25 17.25 0 01-1.78-.07v-3.77a24.62 24.62 0 004.51.17V5.56zm-5 14.88c-.53 0-1.68.17-1.68.91s.8.89 1.56.89c.2 0 1.64 0 1.64-1.18a.63.63 0 00-.05-.31 3.43 3.43 0 00-1.44-.31zm33.4-3.29v2.26h-1.2v4h-3.55v-.77h-4.41v1.54c0 1.22-.32 2.06-3.89 2.06h-1.28a9.08 9.08 0 00-1.12-3 20.35 20.35 0 002 .19c.69 0 .69-.24.69-.75h-7.46V21h7.49v-.81h-9.14v-2.32h9.14v-.77h-7.49V15h7.49v-.67h-6.09V9.45h6.09v-.68h-9.14V6.26h9.14V4.93l3.72.15a.32.32 0 01.36.31c0 .22-.14.26-.52.46v.41h9.07v2.51h-9.07v.68h6v4.87h-6V15h8v2.88zm-12.73-5.57v-.93h-2.93v.93zm3.56-.93v.93h2.9v-.93zm4.41 6.5v-.77h-4.41v.77zm0 3.07v-.81h-4.41v.81zm19.08-12.77a17.73 17.73 0 002.07-3.38l3.6.91c.16 0 .33.12.33.29s-.33.38-.69.34c-.63 1-.87 1.39-1.2 1.84h5.49v3H117v-3h5.28a10.92 10.92 0 00-1.37-2l3.24-1.46a16.05 16.05 0 011.95 3l-1.3.5zm-7.7 13.54v5.19h-3.36V12h9.55v12.54c0 2-1 2.26-4.2 2.36a6.9 6.9 0 00-1.23-3.41c.36 0 1.08.12 1.44.12s.72-.05.72-.77v-1.13zm2.92-6.09v-1.06h-2.92v1.06zm0 3.57v-1.08h-2.92v1.08zm8.19-6.84c.22 0 .36.07.36.24s-.14.27-.36.41v9.55h-3.46V12.21zm5.06-.5c.22 0 .44 0 .44.26s-.27.31-.58.48V24a2.28 2.28 0 01-1 2.33c-.87.57-1.9.55-3.89.53a8.94 8.94 0 00-.79-3.6c.41 0 1.29.16 1.65.16.6 0 .6-.38.6-.67V11.68zm6.67 9.77V16a13.19 13.19 0 01-1.94 1.32 12 12 0 00-2.38-2.66 16 16 0 003.05-2.09 17.48 17.48 0 00-2-1.54l2.31-2.35a16.33 16.33 0 012.16 1.52 7.21 7.21 0 001.44-2h-4.44V5.37H151l1.08 1.15a19 19 0 01-2.31 4.08h4.93a15.88 15.88 0 01-2.84-4.73l3-1.15a15.36 15.36 0 001 2 11.74 11.74 0 001.47-1.82l2.52 1.58c.09 0 .26.17.26.29 0 .29-.41.31-.65.31-.79 1-1.44 1.75-1.72 2 .26.31.45.51.64.7a31.76 31.76 0 002.19-2.59l2.23 1.51c.19.14.43.28.43.45 0 .32-.36.34-.72.36a18.25 18.25 0 01-2.06 2.16 16.32 16.32 0 003.38 2.24 12.12 12.12 0 00-2.21 2.85 24.83 24.83 0 01-2.2-1.58v6.41h-1.73c.17.07.26.16.26.33s-.24.39-.5.41a8.87 8.87 0 01-.51 1.32h5.88v2.9h-21.74v-2.9h6.12c-.1-.29-.46-1.22-.67-1.75l1.17-.31zm3.54-8.91c-.62.67-.86.94-1.94 1.95h12.67a22.37 22.37 0 01-2.5-2.26v1.25H148zm-.12 4.63v1.54H156v-1.54zm2.26 4.28c.21.52.38.93.67 1.82l-.87.24h3.25a20.09 20.09 0 00.72-2.06zm23.32-7.95h-1.75v1.25h2.4v3h-2.4v3.26a14.58 14.58 0 00.83-2.85l2.74.55c.14 0 .36.07.36.31s-.36.34-.69.36c-.1.36-.15.48-.49 1.49a27.76 27.76 0 004.78-1.71v-3.88h-1.7a24.56 24.56 0 011.68 3.07 24.84 24.84 0 00-2.6 1.7A19.58 19.58 0 00174.9 17l2.45-1.51h-2.74v-2.87h7.56v-1h-6.07V9.09h6.07v-.92H175V5.25h10.6v7.37h1.47v2.83h-2.86l2.66 1.29a.41.41 0 01.27.34c0 .24-.17.29-.63.36a21.86 21.86 0 01-1.94 2.86 18.15 18.15 0 003 2.42 11.7 11.7 0 00-2 3.05 20.69 20.69 0 01-3.21-3.27v2c0 2.38-1.56 2.38-4.42 2.38a11.42 11.42 0 00-1.22-3.24l-.65.29c0 .45-.07.86-.48.86a.39.39 0 01-.29-.26l-.87-3.46a10.78 10.78 0 01-.5 1.23 9 9 0 00-2.25-.56v1.11c1.75-.34 2.25-.46 2.71-.58a9.48 9.48 0 00-.31 3c-3.05.67-5.53 1.08-7.85 1.42 0 .36-.12.67-.46.67s-.26-.19-.29-.36l-.48-3.27c1-.05 2.66-.24 3.55-.34v-1.1a15.26 15.26 0 00-2.52.86 22.89 22.89 0 00-1.22-3.67l2.71-.86a28.28 28.28 0 011 2.92V18h-3.14v-3h3.14v-1.33h-1.87v-.91a8.61 8.61 0 00-2.52-2.38 11 11 0 004.6-5.38l3.41.67c.26 0 .36.12.36.27s-.27.4-.55.43a18.08 18.08 0 003.47 3.33 10.55 10.55 0 00-2 1.57zM172 10.86a11.35 11.35 0 01-1.8-2.16c-.55.75-.94 1.25-1.7 2.16zm7.2 11.57c-.6.34-1.49.82-2.21 1.13.22 0 1.37.14 1.52.14.69 0 .69-.48.69-.76zm3.15-5c0 .08.12.22.16.32a13.68 13.68 0 001.28-2.33h-1.44zM200.05 6c.43.09.57.14.57.4s-.31.32-.62.34c-.12.48-.67 2.5-.79 3 4.25-.16 5.69 2.48 5.69 7.13 0 .39 0 5.52-2 8a4.44 4.44 0 01-3.9 1.62 6.36 6.36 0 01-2-.29 11.25 11.25 0 00-.5-3.91 9.25 9.25 0 002.52.48c2 0 2.23-4.32 2.23-6.72 0-1-.07-2.71-2.26-2.71h-.72a49.7 49.7 0 01-5.47 13 11.85 11.85 0 00-3.46-1.92 42.64 42.64 0 005.07-10.23 19.8 19.8 0 00-3.41 1.3l-1.13-4.06a52.7 52.7 0 005.55-1.12 26.13 26.13 0 00.72-5.31zm6.17 2.9a30.15 30.15 0 013.89 4.63 5.38 5.38 0 011.15 3c0 1.8-2.09 2.57-3.53 3.12a27.37 27.37 0 00-1.82-3.19c.91-.29 1.22-.38 1.22-.91 0-1.15-2.35-4.18-3.38-5.28zm1.34-3a15.2 15.2 0 012 2.38c-.55.38-.67.48-1.75 1.27-.24-.31-1.44-1.89-2-2.45zM210 4.41a13.53 13.53 0 012 2.44c-.53.39-1.39 1-1.95 1.37a10.76 10.76 0 00-1.92-2.64zm8.38 7.53c.37.1.75.19.75.48s-.24.39-.79.53a21.12 21.12 0 01-2.74 6.94 8.87 8.87 0 00-3.36-1.25 18.36 18.36 0 002.9-7.49zm14.89-5c.31.12.57.25.57.44s-.55.38-.84.4c-3.45 9.49-8.21 12.73-9.91 13.9v.63c0 1 .24 1.17 1.34 1.17H227c1.25 0 1.61-.17 2-3a10.83 10.83 0 003 1.86c-.81 4.24-2 4.34-4.56 4.34h-5.06c-2.64 0-2.93-1.78-3-2.86a32.59 32.59 0 01-4 1.61 7.58 7.58 0 00-2.49-3.26 24.2 24.2 0 006.45-2.23V9.88l4 .34c.21 0 .5.07.5.36s-.29.4-.72.55v6.24a23 23 0 006.82-11.72zm-11.74-2.39a23.56 23.56 0 015.74 3.14 10.77 10.77 0 00-1.9 3 26.36 26.36 0 00-5.57-3.45zm10.2 9.77a26.44 26.44 0 013.94 5.76 12.48 12.48 0 00-3 2.11 17.36 17.36 0 00-3.56-5.78zm5.4 5.35v-2.81h6.65c.21-.33.43-.64.76-1.22h-5.68V9.13h5v-1h-6.72V5.49h21.67v2.68h-6.79v1h5.09v6.51h-8.26a.3.3 0 01.1.19c0 .34-.46.39-.6.41-.17.26-.24.38-.39.62h10.8v2.81h-3.72a.43.43 0 01.1.22c0 .29-.29.38-1 .43a17.11 17.11 0 01-1.63 1.78 29.84 29.84 0 015.5 2.11 10.17 10.17 0 00-2.26 2.93 28.91 28.91 0 00-6.09-2.91 25.73 25.73 0 01-10.85 2.69 6.4 6.4 0 00-1.61-3.1 25.58 25.58 0 008.23-.93c-.43-.12-.86-.22-2-.48-.14.12-.33.33-.55.53a12.94 12.94 0 00-3.48-1.4 20.6 20.6 0 002-1.87zm6.77-8h-1.71v1.51h1.71zm2.06 8l-.7.82c.8.12 3 .53 3.7.67a7.56 7.56 0 001.49-1.49zm2.88-11.5h-1.75v1h1.75zm-1.75 5h1.75v-1.51h-1.75zm5 0h1.75v-1.51h-1.75zm30.42-3.82c-5.92-.09-11.06 5.23-11.06 9.12 0 2.79 3.53 4.15 6.79 4.23a31.82 31.82 0 00-1.8 4.36c-1.94-.52-8.83-2.44-8.83-8.18a10.92 10.92 0 014.39-8.26 67.33 67.33 0 00-9.94 1.51l-.55-4.51a78.07 78.07 0 0010.68-.55 57.12 57.12 0 009.62-1.75zm-4 3.41a14.53 14.53 0 012.23 2.57c-.67.48-1 .74-1.85 1.44a20.22 20.22 0 00-2.13-2.72zm2.52-1.71a15.59 15.59 0 012.14 2.53c-.6.45-1 .81-1.76 1.48a17.48 17.48 0 00-2.13-2.71zm17.52-5.71c.38 0 .6.07.6.27s-.29.36-.48.4c-.05.44-.08.72-.12 1.68 6.76-.28 7.51-.31 8-.35 0 .5-.07 2.88 0 3.86-4.35-.22-6.17-.22-7.92-.19a19 19 0 000 2.66 7.88 7.88 0 011.37 4.61 11.33 11.33 0 01-5.57 9.26 16.18 16.18 0 00-3.5-2.47c.72-.29 3.55-1.49 4.42-3.45a2.71 2.71 0 01-1.9.57 3.21 3.21 0 01-2.59-1.08 6 6 0 01-1-3.55c0-5.28 4.51-5.11 5-5v-1.35a66 66 0 00-9.58 1.25l-.26-4.05c.55 0 1.46 0 9.74-.51a25.26 25.26 0 00-.34-3.05zm-5.55 12c0 1.59.79 2 1.23 2 .74 0 1.17-1.1 1.17-2.3 0-.56-.12-1.49-1.08-1.49-.79.02-1.32.81-1.32 1.79zm23.26 5.76a3.39 3.39 0 11-3.39-3.38 3.4 3.4 0 013.39 3.38zm-5.28 0a1.9 1.9 0 103.79 0 1.9 1.9 0 00-3.79 0zm31.75-16.73a14.46 14.46 0 000 19.25l-2.14 1.85a17.12 17.12 0 010-22.94zm20.76 14.53H346v-2.76h2.3v-3H345v-2.72h3.29v-1.65c-.5.48-.77.69-1.1 1a10.73 10.73 0 00-3.05-1.66A17.74 17.74 0 00349 4.6l3.43 1.13c.12 0 .24.12.24.26 0 .31-.38.38-.55.43a2.79 2.79 0 01-.24.31H366v3h-2.18v2.71H367v2.76h-3.24v3h2.49v2.7h-2.76a24.34 24.34 0 013.82 4.41 24.08 24.08 0 00-3 1.92 19.72 19.72 0 00-3.43-4.51zM351 22.38c.22.12.41.22.41.44s-.17.28-.6.36a23.33 23.33 0 01-3.12 4.27 7.7 7.7 0 00-2.95-1.92A12.79 12.79 0 00348.3 21zm.12-10h1.4V9.71h-1.4zm0 5.72h1.4v-3h-1.4zm3.46 3.43a15.92 15.92 0 011.54 4.7 21.27 21.27 0 00-3.51.94 18.85 18.85 0 00-1.13-4.83zm.75-9.15h1.39V9.71h-1.39zm0 5.72h1.39v-3h-1.39zm4.17 3.24a16.62 16.62 0 011.92 4.46 22.87 22.87 0 00-3.26 1.1 28.17 28.17 0 00-1.75-4.7zm0-11.67v2.71h1.39V9.71zm0 5.47v3h1.39v-3zm16.83 11.76H373v-5.21a15.74 15.74 0 01-1.87 2.4 9.06 9.06 0 00-2.83-2 14.88 14.88 0 004.42-6.68h-3.65v-3.08H373v-1.75a14.64 14.64 0 00-2.73 1.24 16.56 16.56 0 00-1.4-4.25l2.67-1a22.12 22.12 0 011.46 3.72V4.81l3.27.2c.31 0 .67 0 .67.38s-.39.46-.6.53v6.41h3.29v3.09h-2.95a13.94 13.94 0 003.09 3.41 7.94 7.94 0 00-1.77 2.31 18.67 18.67 0 01-1.68-1.56zm4.25-19.68c.21 0 .48.14.48.31s-.31.36-.53.48a30 30 0 01-1.32 3.74 7.38 7.38 0 00-2.64-.94 36.5 36.5 0 001.22-4.34zm10.15 9.62l.58 2.93-2.4.62v6.46h-3.41V21.3l-5.74 1.54-.55-3.07 6.29-1.61v-8.4a11.49 11.49 0 00-1.9 2 21.07 21.07 0 00-3-2.93l2-2.28a19.31 19.31 0 012.88 2.74v-4.4l3.38.28c.19 0 .53 0 .53.32s-.26.36-.5.5V17.3zm-8.42-4.54a20.37 20.37 0 013.07 3.34c-.6.6-1.25 1.3-2.09 2.21a18 18 0 00-3-3.31zm13.1-7.77a17.09 17.09 0 010 22.94l-2.11-1.85a14.46 14.46 0 000-19.25zM0 0h10v30H0z" fill="#00b4dc" data-name="レイヤー 2"/></svg>