<svg xmlns="http://www.w3.org/2000/svg" width="630" height="53.88"><path d="M0 48.88h630v5H0zm25.23-42l1.87.28c.83.15 1.16.18 1.16.58s-.47.47-.87.5c-.14.36-.39.87-.83 1.73h7v18.36c0 3.56-.83 5.07-6.66 5.07v-.93a6.28 6.28 0 00-1.29-3.85v2.16H15.19v.86h-4.72v-8.39a1.72 1.72 0 01-.36.18 6.89 6.89 0 00-2.51-2.37v12.38H2.38V10H9.9a14.73 14.73 0 00-1.4-2.66l2.55-.46H1.66V2.56h13.6V0l5.44.25c.36 0 .68.11.68.47s-.36.5-.68.65v1.19h13.71v4.32zM7.6 14.58v5.07a8 8 0 003.81-5.07zm20.94 3.92a3.38 3.38 0 01-3.31 2.05h-4.6c-2.13 0-2.81-.75-2.81-2.44v-3.53h-3.67l1.9.61c.26.07.76.25.76.58 0 .14 0 .39-1 .61a13 13 0 01-3.28 5.29h13.1v6.69c.72.08 1.33.18 1.73.18 1.11 0 1.18-.36 1.18-1.18zM14.15 6.88a18.74 18.74 0 011.58 2.77l-1.3.32h6.3a20.81 20.81 0 001.44-3.09zm6.73 18.5h-5.69v1.69h5.69zm1.47-10.8v1.15c0 .47 0 .79.72.79h1.08c.69 0 .79-.61 1.08-1.94zm6.19 0h-3.27a10.52 10.52 0 003.27 1.73zM59.47 2.74c.36 0 .54.14.54.36s-.32.43-.86.64a33.41 33.41 0 01-1.23 5.94 12.33 12.33 0 00-4.61-.86v.93H41.22V6.19h12.09v2.52a33.18 33.18 0 001.3-6.62zM53 32.83h-4.22v-1.26h-2.09v1.76h-4.5V20.41H53v3.67a17.77 17.77 0 002.19-6.3l4.61 1c.25 0 .65.22.65.51 0 .54-.72.68-1 .72a29.39 29.39 0 01-1.87 5.94A11.62 11.62 0 0053 24.51v4.54c7.7-2.38 7.63-7.13 7.52-13.72l5.22.29c.18 0 .54 0 .54.43 0 .22-.25.4-1 .62v2.66a10.59 10.59 0 003.13 5.79c.65.62 3.35 3.1 5.55 3.89a10.41 10.41 0 00-3.21 4 17.42 17.42 0 01-7.2-6.55 14.74 14.74 0 01-7.84 6.81A11 11 0 0053 29.8zM52 1.48V5h-9V1.48zm0 9.5v3.49h-9V11zm0 4.71v3.5h-9v-3.5zm-3.22 11.77v-3.13h-2.09v3.13zM65.48.4c.43 0 .72.07.72.39s-.58.58-1 .69c0 .54-.14 3-.14 3.49a8.2 8.2 0 002.66 5 22.07 22.07 0 006.55 3.71A12.74 12.74 0 0071 17.57a20.29 20.29 0 01-7.92-5.84 15.92 15.92 0 01-7.55 5.76 13.8 13.8 0 00-2.85-3.85c6.19-2 7.63-5.07 7.63-10.8 0-1 0-1.65-.07-2.62zm7.78 3.38a.59.59 0 01.36.5.44.44 0 01-.51.44 3 3 0 01-.65-.08A23.18 23.18 0 0169.19 9a15 15 0 00-3.82-2.84 19.16 19.16 0 003.46-4.76zm-.44 15.37c.36.18.54.32.54.61s-.57.61-1.08.65a21.4 21.4 0 01-2.37 3.92 13.86 13.86 0 00-3.82-2.55 23.44 23.44 0 002.52-4.61zM92.05 1.37l5.76-.79c.25 0 .76-.08.76.36s-.26.54-.54.75l.68 4.68 8.1-1 .61 5.26-7.92 1.07.54 3.74 12-1.55.61 5.3-11.81 1.58 1.66 11.34-5.76 1L95 21.53l-12.6 1.65-.65-5.4 12.46-1.62-.54-3.71-8.79 1.16-.64-5.4 8.63-1.08zm38.23 5.79l5-.61c.33 0 .76-.11.76.33 0 .28-.29.5-.54.68l1 5.22 8.76-1.78a3 3 0 001.65-1l3.49 2.63c-1.51 1.84-3.52 5.51-6 10.08a32.09 32.09 0 00-4.72-2.27 25.68 25.68 0 002.63-4.1l-4.79 1.08 2.74 13.93-4.9 1.15-2.77-14-7.24 1.62L124 15.3l7.66-1.55zm35.35-5.72c6.05 3.1 7.92 4.89 9 5.9-.86 1.05-1.11 1.44-3.49 4.9a37.13 37.13 0 00-9.07-5.76zm-2.95 24.87c10.26-2.12 20.38-9.07 26.78-19.36a23.27 23.27 0 003.71 4.89 47.75 47.75 0 01-11.19 12 60.41 60.41 0 01-14.83 8c0 .39-.18.79-.51.79s-.36-.11-.57-.51zM198.94 17c2.41-1.77 3-2.38 8-8.07 3.39-3.78 4.72-4.89 6.77-4.89 2.3 0 3.42 1.36 5.94 4.43 4.28 5.21 8.71 10.36 14 14.5-1.37 1.73-3.13 4.28-3.82 5.26a196.82 196.82 0 01-14-15.95c-1.44-1.84-1.94-1.84-2.38-1.84-.82 0-2 1.34-2.84 2.34-1.69 2-5.25 6.63-6.41 8.39a1.41 1.41 0 01.11.47c0 .18-.11.4-.32.4a.91.91 0 01-.61-.36zm31.67-13.11A3.38 3.38 0 11227.23.5a3.38 3.38 0 013.38 3.39zm-5 0a1.57 1.57 0 001.58 1.58 1.59 1.59 0 10-1.58-1.58zm45.65 9.97V20H240v-6.14zm13.18-12.42c6 3.1 7.91 4.89 9 5.9-.86 1.05-1.11 1.44-3.49 4.9a37.13 37.13 0 00-9.07-5.76zm-3 24.87c10.26-2.12 20.38-9.07 26.78-19.36a23.27 23.27 0 003.78 4.89 47.75 47.75 0 01-11.19 12 60.41 60.41 0 01-14.83 8c0 .39-.18.79-.51.79s-.36-.11-.57-.51zm46.2-23.25c.68.25 1 .36 1 .61s-.72.4-1 .43A41.85 41.85 0 00325.3 19a12.53 12.53 0 00.25 2.88c.21-.4 1.08-2 1.51-2.7a10.34 10.34 0 002.77 3c-.9 1.69-2.56 5.87-2.38 8.6l-5.11 1.37a38 38 0 01-2.55-14.4c0-6.51 1-11 2.3-16.7zm9.5 16.94a9.56 9.56 0 00-.54 2.55c0 1.59.86 1.84 5 1.84a37 37 0 008.89-1 23.77 23.77 0 00-.54 5.86 76.28 76.28 0 01-9.1.47c-5.37 0-9.51-.93-9.51-5.32a13.36 13.36 0 011.19-5.3zm-4.36-15.39c1.08.07 2.52.18 4.68.18A41.91 41.91 0 00348 3.64a54.15 54.15 0 00.51 5.47 54.29 54.29 0 01-11.09 1.08c-2.12 0-3.53-.11-4.68-.18zm24.56 2.81a28.42 28.42 0 004.53-.87c10.15-2.66 12.6-3.27 16.56-3.27 8.64 0 12.42 5.72 12.42 12.05 0 13.57-16.38 14.58-22.17 14.87a24.22 24.22 0 00-1.84-5.76c6.48 0 17.93-.18 17.93-9 0-1.88-.65-6.88-7-6.88-5.37 0-14.26 3.64-18.15 5.83zM406 3.85c.33.11.72.22.72.54 0 .47-.43.54-.75.58a32 32 0 00-2 10.83c0 4.39 1.37 7.45 2.41 7.45s2.52-3.17 3.49-5.43a16.29 16.29 0 003.78 3.81c-2.88 7-6.15 9.43-7.92 9.43-2 0-7.34-4.28-7.34-15.4A64.3 64.3 0 01400.1 2.2zm17.39.25a35.89 35.89 0 017.27 18.11c-2.13.83-4.68 2.05-5.87 2.66a32.69 32.69 0 00-6.05-17.81zm46.26 2.59c-10.29-.1-16.41 8.93-16.41 13.61 0 6 8.13 6.41 10 6.52a31.36 31.36 0 00-2.7 6.48c-6.3-1.48-13.25-4.83-13.25-12.57 0-6.62 5-10.76 6.38-11.91a120.86 120.86 0 00-14.87 2.12l-.76-6.77c.8 0 1.55.11 2.7.11 5.29 0 19.66-1 27.83-3.56z" fill="#00b4dc" data-name="レイヤー 2"/></svg>