<svg xmlns="http://www.w3.org/2000/svg" width="419.45" height="90"><path d="M0 0h10v90H0zm45.88 28.24v4.68c0 3.71-2.74 3.82-9.07 3.71a12.91 12.91 0 00-1.52-5c.54 0 3.35.11 4 .11 1.34 0 1.34-.18 1.34-2v-1.5H26.76v-4.35h13.83v-2.34l1.69.18a16.9 16.9 0 001.83-1.94H33.5V15.5h17.31l2.09 2.59a37.34 37.34 0 01-6.48 5.8h12.81v4.35zM41 9.74a23.09 23.09 0 00-3.57-4.93L42 2.8A24.64 24.64 0 0145.7 8c-.51.29-2.88 1.48-3.35 1.73h5A34.15 34.15 0 0051 3.66l5.1 1.55c.18.07.61.25.61.61s-.57.54-1.22.65c-.94 1.62-1.19 2-2.05 3.27h5.47v9.47h-5.08v-5.44H32.09v5.44h-5V9.74h5a22.62 22.62 0 00-2.85-4l4.39-2.16a18.69 18.69 0 013.5 4.89c-1.55.83-1.91 1-2.31 1.26zm35.73.26V3.37l5.4.15c.54 0 .83.1.83.5a.8.8 0 01-.25.5 2.35 2.35 0 01-.33.36V10H94v4.82H82.38v5h8.32v4.79h-8.32V31h13.14v4.7H62.58V31h14.15v-6.39h-8.17v-4.79h8.17v-5h-7.31a31.87 31.87 0 01-3.6 5.44 15.57 15.57 0 00-4.71-2.52C66.83 10.53 68 4.34 68.06 4l5 1.47c.39.11.79.29.79.69 0 .57-.54.54-.79.54-.43 1.13-1.26 3.11-1.33 3.3zm29.2 25.77a28.94 28.94 0 00-7.31-6.19l3.49-3.86a46.82 46.82 0 017.89 6.05zm43.7-31.5c.47.07.76.14.76.47s-.4.5-.62.58c-.1 1.08-.18 2.34-.25 3.81a25.73 25.73 0 005.65-1.8c0 1.33-.07 3-.07 3.82a15.78 15.78 0 00.07 1.94 26.37 26.37 0 01-5.9 1.62c0 .4-.07 2.12-.07 2.45a17.93 17.93 0 016.12-1.08c5.43 0 10 3.78 10 9.75 0 6.7-5 9-8.53 9-5.44 0-5.62-4.83-5.65-6.34.75-.25 4-1.33 4.46-1.51 0 .72 0 2.41 1.69 2.41 1.37 0 2.27-1.37 2.27-3.17a4.53 4.53 0 00-4.79-4.75 17 17 0 00-5.58 1.26 108.08 108.08 0 00.47 10.84l-4.93 2.23a49.5 49.5 0 00-6.3-5.15c-.9 1-1.33 1.48-1.84 2.09L134 26.52c1.66-.9 8.21-5.87 9.65-6.77v-4.32c-2.12.11-4.64.14-6.69.14V9.85a14.88 14.88 0 002.84.22c1.4 0 3.42-.15 3.85-.15 0-2.7 0-3.09-.14-6.69zm-8.06 23.22a3.86 3.86 0 001.62.93c.54 0 .5-1.26.46-2.62-.43.36-1.18.9-2.08 1.69zm18.79-19.15a30.4 30.4 0 017.84 5.76 25.46 25.46 0 00-3.49 4.35 21 21 0 00-7.63-5.65zm43.27 8.46v4.89H190v9.94c0 2.3-.21 5-8.75 4.82-.39-3.38-1.18-4.64-1.72-5.47 1.15.07 1.83.14 2.52.14 2.44 0 2.44-.28 2.44-2.34v-7.09h-14.12V16.8h14.14v-5.33l2.78.29a14.49 14.49 0 003-2.59H174V4.38h23.57L200.14 7A39.23 39.23 0 01190 16.29v.51zm13.03 12.56a38.25 38.25 0 009.34-4.82V20.4h-3.75A27.32 27.32 0 01225 24a26.55 26.55 0 00-3.31 2.55 46.58 46.58 0 00-3.27-4.1l2.8-2.05h-3.06a8.37 8.37 0 00.76.86 8.24 8.24 0 00-2.2 3.85c-.68-.9-1.08-1.44-1.62-2.3v13.75h-4.7V24.9a20.92 20.92 0 01-1.8 3.67 13.28 13.28 0 00-3.38-3.28 31.92 31.92 0 004.6-11.29h-3.6V9.6h3.93v-6l5 .25c.4 0 .83.14.83.54s-.5.54-.83.61v4.6h2.63V14h-2.63v1.16a19.93 19.93 0 002.81 5v-3.65H226v-1.33h-6.1v-3.39h6.1v-1.33h-7.74V6.83h3.52a13.19 13.19 0 00-1.58-2.31l4.21-2a32.11 32.11 0 012.34 3.67l-1.19.62h4a26.28 26.28 0 001.77-4l4.6 1.37c.44.14.72.29.72.54 0 .47-.46.5-1.08.5-.25.47-.28.58-.86 1.59h4.18v3.63H231v1.33h6v3.39h-6v1.33h8.57v3.91h-2.66l2.55 2.09a.65.65 0 01.36.54c0 .54-.61.46-1 .46a20.55 20.55 0 01-3.68 3.93 17.77 17.77 0 005.4 3.09 9.78 9.78 0 00-2.73 3.75 23.91 23.91 0 01-6.81-5.62v2.81c0 4-1.26 5.11-6.91 5.33a12.51 12.51 0 00-2-5 14.92 14.92 0 002.27.18c1.55 0 1.59-.4 1.59-1.3v-1.37c-.72.43-3.1 1.87-6.48 3.6 0 .21.1 1.15-.4 1.15s-.65-.47-.86-1zM231 22.45a12.91 12.91 0 001.48 2.23 23 23 0 003.31-4.28H231zm28.47 7.77c7.81-1.44 10.11-7.48 10.11-11.23a8.53 8.53 0 00-8.31-8.82c-1.12 13.18-6.56 23-10.37 23-2.81 0-8-4.76-8-11.41C242.87 14 249.93 5 260.51 5c7.88 0 14.76 5.36 14.76 14A16.8 16.8 0 01271 30.08c-2.2 2.56-4.75 3.89-7.81 5.22a23.54 23.54 0 00-3.72-5.08zm-11.27-8.89c0 2.77 1.55 4.86 2.3 4.86s1.55-1.62 1.95-2.55a31.75 31.75 0 002.77-12.39c-4.22 1.55-7.02 6.84-7.02 10.08zm41.94 1.41c-1 .86-2.81 2.73-2.81 3.92 0 2.59 4.93 2.59 6.44 2.59a50.06 50.06 0 0014.44-2.16 27.25 27.25 0 00.93 6.12 54.7 54.7 0 01-14.07 1.66c-5.62 0-7.85-.61-9.61-1.33-1.15-.47-4.57-2.16-4.57-5.8s3.74-7.09 5.22-8.42zm15.12-11.85c-3.35 1.34-7.09 3.57-9.07 5.87-1.3-1.11-2.67-2.27-3.78-3.09 1.33-1.23 1.65-1.48 2.7-2.34-2.24.18-8.28.5-11.34.43l-.29-6a72.51 72.51 0 009 .46 71 71 0 0010-.82zm1.58-5.61a26.27 26.27 0 013.28 3.78 14.66 14.66 0 00-2.12 2.59 40.22 40.22 0 00-3.45-4zm2.77-3.06A37.54 37.54 0 01313 5.75a14.07 14.07 0 00-2.31 2.45 28.69 28.69 0 00-3.13-3.53zM330 11.43c0-1.22 0-1.54-.08-2.37h-7.88V3.77h13.75c0 .93-.25 5.07-.25 5.9 0 10.94 5.83 18.57 13.21 23.11a14.39 14.39 0 00-4.72 3.92c-4.46-3.09-11-9.86-13-18.14-1.18 4-4 11.48-13.6 18.18a15.65 15.65 0 00-4.43-4c11.05-7.09 13-14.72 13.93-21.85zm35.92 14.94a25.31 25.31 0 01-4.25 4.36 8.92 8.92 0 00-3.38-2.41c.64-.51 1.18-.9 2-1.62-2.23 1-5 2-7.88 3 0 .44-.14.94-.54.94s-.5-.47-.58-.83l-1.22-5.07a31.34 31.34 0 004.07-.76v-8.19h-3.71v-4.68h3.71V3.62l5.32.29c.44 0 .76.07.76.4s-.22.43-.76.68v6.12h3.21v4.68h-3.21v6.55c.87-.36 1.41-.57 2.27-1h-.25v-3.61h21.82v3.64h-13.93l-.68 1.15h14.36c0 3.64-.11 10.84-2.45 12.67-1.36 1.08-3.67 1.19-5.94 1.19a10.63 10.63 0 00-1-3.89 27.09 27.09 0 01-4.28 4.5c-.94-1-1.51-1.29-3.82-2.3a25 25 0 007.6-8.32h-1.62a25.1 25.1 0 01-9.47 9.54 9.53 9.53 0 00-3.14-2.91 21.84 21.84 0 008.39-6.66zm-3.28-5a15.78 15.78 0 00-.25 3.2 23.78 23.78 0 002.2-3.2zm18.14-4.82H364V3.87h16.81zm-4.86-7.71V7.62h-7.09v1.22zm-7.09 2.88V13h7.09v-1.28zm8.5 14.65a39.4 39.4 0 01-2.85 5c.44 0 .83.07 1.26.07.72 0 1.37-.07 1.62-.9a18.1 18.1 0 00.65-4.18zM395.8 6.21c.29.11.47.26.47.51 0 .43-.69.5-1 .54a49.65 49.65 0 00-2.16 13.86 25.23 25.23 0 00.25 3.6c.47-.69 1.22-1.84 1.69-2.56a15.13 15.13 0 002.59 3.56 16 16 0 00-3 8.82l-4.83.9a50.93 50.93 0 01-1.94-14.5A65.1 65.1 0 01390 4.45zm17.1-.79c.18 0 .46.08.46.4s-.5.54-.82.58a37.16 37.16 0 00-.36 4.31 32.28 32.28 0 005.32-1.33v5.44c-.82.21-2.48.61-5.47 1.15a57.41 57.41 0 00.58 8.28 19.92 19.92 0 016.84 3.75c-.58 1-1.66 3.38-2.45 5.07a12.66 12.66 0 00-3.85-2.73c-.15 4.6-4.75 5.14-7 5.14-5.4 0-8.1-2.95-8.1-6.3 0-4.28 4.25-5.9 8.93-5.79-.29-4.1-.33-4.57-.4-6.66-2.05.18-3.53.18-4.14.18-1.15 0-1.91 0-2.66-.11v-5.69a38 38 0 006.77.25v-7zm-7.45 22.32c-.8 0-2.52.25-2.52 1.37 0 .93 1.18 1.33 2.34 1.33.28 0 2.44 0 2.44-1.76a1 1 0 00-.07-.47 5.08 5.08 0 00-2.19-.47zM58.76 58c-8.89-.14-16.59 7.85-16.59 13.68 0 4.17 5.29 6.23 10.19 6.33a47.82 47.82 0 00-2.7 6.56c-2.92-.8-13.25-3.68-13.25-12.28 0-6.66 5.15-11.45 6.62-12.38a96.34 96.34 0 00-14.9 2.27l-.83-6.77a116.36 116.36 0 0016-.83A86.05 86.05 0 0057.76 52zm-6 5.11A22.72 22.72 0 0156.14 67c-1 .72-1.52 1.12-2.78 2.16a28.13 28.13 0 00-3.2-4.06zm3.78-2.55a22.56 22.56 0 013.2 3.78c-.9.68-1.51 1.22-2.63 2.23a26.29 26.29 0 00-3.2-4.07zm23.97-9.04a20.6 20.6 0 00.61 3.88 25.57 25.57 0 006.26-2.66 47.26 47.26 0 002 4.39 26.34 26.34 0 01-6.69 2.95c.47 1.12.54 1.23.68 1.55a30.32 30.32 0 007.56-3.92c.4.79 2.41 4 2.81 4.64a32.39 32.39 0 01-7.88 4 34.66 34.66 0 005.43 6.87l-3.35 3.56a19.54 19.54 0 00-10.25-3c-1.52 0-4.72.5-4.72 2.59 0 1.73 1.94 3 6.26 3 1.66 0 6 0 9.43-1.47a16.38 16.38 0 00-.39 3.85 7.44 7.44 0 00.11 1.55 30.57 30.57 0 01-9 1.15c-9.25 0-12.24-4.43-12.24-7.88 0-3.86 3.53-6.84 9.58-6.84a38.6 38.6 0 015 .39 18.18 18.18 0 01-1.26-2.16 63.94 63.94 0 01-12 1.26 21.32 21.32 0 01-2.3-.11l-.62-5.32c2.2.11 3.6.14 4.4.14a43.46 43.46 0 008.19-.93c-.18-.39-.28-.72-.68-1.58a67.81 67.81 0 01-9 .86l-1.15-5a42.6 42.6 0 008.24-.57c-.83-2.16-1.08-3-1.47-4.21zm38.09 1.04c.32.07.65.11.65.47s-.4.47-.65.5c-.15 1.4-.15 1.73-.18 2.13 1.65 0 7.23-.11 9.93.21v5.36a88.09 88.09 0 00-10.11-.32v4a47.26 47.26 0 009.14-1.69v5.36a67.79 67.79 0 01-9 1.19c0 1.55 0 1.69.07 3.2 4.5.61 10.69 3.75 12 4.75a57.65 57.65 0 00-4 4.5 29 29 0 00-7.7-4.53c.07 1.87.32 6.12-7.56 6.12-5.58 0-9.65-2.56-9.65-5.83 0-4.11 5.15-5.87 11.16-5.76v-2.13c-3.56.07-10.07.18-10.07-3.38 0-1.26.64-2.41 2.51-4.36l4 .9c-.64.87-.75 1-.75 1.23s0 1 4.21.83v-4.14c-4.42.18-8.31.68-11.3 1.08v-5.73c1.77-.18 9.65-.54 11.27-.65 0-1.37 0-2.77-.15-4.43zm-7.45 23.76c-.18 0-3.64 0-3.64 1.47 0 1.19 2 1.3 2.59 1.3 1.77 0 2.85-.65 2.63-2.63a8.05 8.05 0 00-1.58-.14zm48.92-23.65c.5.07.83.11.83.5s-.44.5-.72.58c0 .18.1 5.29.14 5.79 4.46-.65 5.65-.75 6.91-.86v5.94c-.57 0-1.19-.11-2.09-.11-1.69 0-3.34.18-4.78.32 0 9.65-1.59 10-8.39 10a32.84 32.84 0 00-1.4-5.33 11.82 11.82 0 002 .18c2 0 2.16-.5 2.38-4.1-1.15.18-6.19 1-7.24 1.22 0 1.12-.07 2.2-.07 3.28 0 5.72.29 6.08 1 6.73s1.87 1 4.36 1a53.06 53.06 0 0012.09-1.55 27.3 27.3 0 00-.68 5.87 96.94 96.94 0 01-12.42 1c-2.09 0-7.7-.07-9-5-.53-2.05-.5-4.89-.43-10.22-4.32 1.08-5.58 1.4-7 1.8l-.43-6.3a44.83 44.83 0 007.23-1 77.41 77.41 0 00-.46-8.28l6.22.68c.54.07 1 .11 1 .58s-.39.5-.64.54c-.08.9-.33 4.71-.4 5.51 1.08-.18 4.54-.72 6.8-1.12a43.26 43.26 0 00-.86-8.53zm29.56.93c.32.15.57.33.57.65s-.54.43-.86.36c-1.33 2.34-3 5.62-4.93 9.4-.36.68-.51.9-.8 1.36a14.48 14.48 0 013.35-.46c2.23 0 5.26.86 5.26 4.6a16.25 16.25 0 01-.33 3 17.56 17.56 0 00-.43 3.52c0 .94.25 1.8 1.37 1.8S198 75.6 200.57 72a38.11 38.11 0 003.78 4.57 26.49 26.49 0 01-6.12 5.22 14.31 14.31 0 01-6.88 2.12c-3.34 0-5.76-1.9-5.76-5.47 0-1.08.62-5.83.62-6.8 0-1.3-.72-1.73-1.48-1.73-3.89 0-8.21 11.13-8.78 13.29l-5.87-2.45c2.3-3.85 7.52-14.65 8.64-17 2.27-4.89 3.71-8.46 5.4-12.81z" fill="#00b4dc" data-name="レイヤー 2"/></svg>