<svg xmlns="http://www.w3.org/2000/svg" width="403.57" height="30"><path d="M33.92 21.5v3.12c0 2.47-1.82 2.54-6.05 2.47a8.46 8.46 0 00-1-3.31c.36 0 2.24.07 2.64.07.89 0 .89-.12.89-1.35v-1h-9.22v-2.91h9.21V17l1.13.12a11.62 11.62 0 001.23-1.29h-7.09V13h11.55l1.39 1.73a24.85 24.85 0 01-4.32 3.86h8.55v2.91zM30.63 9.16a15.56 15.56 0 00-2.37-3.29l3.09-1.34A16.19 16.19 0 0133.8 8c-.33.19-1.92 1-2.23 1.15h3.34a22.89 22.89 0 002.44-4.05l3.39 1c.12 0 .41.17.41.41s-.39.36-.82.43c-.62 1.08-.79 1.32-1.37 2.19h3.65v6.31h-3.38v-3.59h-14.5v3.62h-3.31V9.16h3.33a15.37 15.37 0 00-1.89-2.67l2.92-1.44a12.44 12.44 0 012.33 3.27c-1 .55-1.27.67-1.53.84zm23.86.14V4.91l3.6.1c.36 0 .55.07.55.33a.56.56 0 01-.17.34l-.21.24V9.3H66v3.22h-7.74v3.36h5.54v3.19h-5.54v4.25H67v3.14H45v-3.14h9.43v-4.25H49v-3.19h5.45v-3.36h-4.83a22.26 22.26 0 01-2.4 3.62 10.66 10.66 0 00-3.15-1.68 21.93 21.93 0 004.63-9.17l3.34 1c.26.07.53.19.53.45s-.36.36-.53.36c-.29.8-.84 2.12-.89 2.21zM74 26.51a19.42 19.42 0 00-4.87-4.13l2.33-2.56a30.58 30.58 0 015.25 4zm29.09-21c.31 0 .5.1.5.31s-.26.34-.4.39c-.08.72-.13 1.56-.17 2.54a17.66 17.66 0 003.77-1.2c0 .89-.05 2-.05 2.54a9.9 9.9 0 00.05 1.3 17.86 17.86 0 01-3.94 1.08v1.63a12.23 12.23 0 014.08-.72 6.37 6.37 0 016.65 6.51 5.56 5.56 0 01-5.69 6c-3.62 0-3.74-3.21-3.77-4.22l3-1c0 .48 0 1.61 1.13 1.61.91 0 1.51-.91 1.51-2.11A3 3 0 00106.5 17a11.13 11.13 0 00-3.72.84 70.12 70.12 0 00.31 7.22l-3.29 1.45a32.22 32.22 0 00-4.2-3.43c-.6.65-.89 1-1.22 1.39l-1.73-4.13c1.1-.6 5.47-3.91 6.43-4.51v-2.88c-1.42.07-3.1.1-4.47.1V9.23a10.5 10.5 0 001.9.14c.93 0 2.28-.09 2.57-.09 0-1.8 0-2.07-.1-4.47zM97.71 21a2.58 2.58 0 001.08.63c.36 0 .34-.84.31-1.76-.28.23-.79.59-1.39 1.13zm12.53-12.78a20.46 20.46 0 015.23 3.84 16.72 16.72 0 00-2.32 2.94 13.94 13.94 0 00-5.09-3.77zm28.85 5.64v3.27H130v6.62c0 1.54-.15 3.36-5.84 3.22a7.36 7.36 0 00-1.16-3.65c.77.05 1.23.1 1.68.1 1.63 0 1.63-.2 1.63-1.56v-4.73h-9.43v-3.27h9.43v-3.55l1.85.19a8.69 8.69 0 002-1.73h-10.85V5.58H135l1.73 1.78a26.31 26.31 0 01-6.73 6.17v.33zm8.69 8.38A25.39 25.39 0 00154 19v-2.74h-2.5a20.43 20.43 0 011.85 2.4 17 17 0 00-2.21 1.71 33.67 33.67 0 00-2.14-2.74l1.87-1.37h-2a6.62 6.62 0 00.51.58 5.48 5.48 0 00-1.47 2.57c-.45-.6-.72-1-1.08-1.54V27h-3.23v-7.74a14.76 14.76 0 01-1.2 2.45 8.79 8.79 0 00-2.26-2.18 21.27 21.27 0 003.08-7.53h-2.4V9.06h2.61v-4l3.31.17c.27 0 .56.1.56.36s-.34.36-.56.41v3.06h1.76V12h-1.76v.77a13.4 13.4 0 001.88 3.36v-2.46H154v-.89h-4.05v-2.25H154v-.89h-5.16V7.21h2.36a10.3 10.3 0 00-1.06-1.53l2.81-1.32a21.75 21.75 0 011.56 2.45l-.79.4h2.64a17.39 17.39 0 001.17-2.66l3.07.91c.29.1.48.19.48.36s-.31.34-.72.34c-.16.31-.19.38-.57 1h2.78v2.48h-5.21v.89h4v2.25h-4v.89h5.72v2.59h-1.78l1.7 1.39a.49.49 0 01.24.37c0 .36-.4.31-.67.31a13.44 13.44 0 01-2.45 2.61 11.76 11.76 0 003.6 2.07 6.36 6.36 0 00-1.82 2.49 15.66 15.66 0 01-4.54-3.74v1.87c0 2.64-.84 3.41-4.6 3.55a8.56 8.56 0 00-1.33-3.36 9.74 9.74 0 001.52.12c1 0 1.05-.26 1.05-.86v-.89c-.48.29-2.06 1.25-4.32 2.4 0 .15.07.77-.26.77s-.43-.31-.58-.65zm9.57-4.61a8.35 8.35 0 001 1.49 15.84 15.84 0 002.21-2.86h-3.2zm18.96 5.19c5.21-1 6.75-5 6.75-7.49a5.68 5.68 0 00-5.55-5.88c-.74 8.78-4.36 15.33-6.91 15.33-1.87 0-5.35-3.16-5.35-7.6A11.78 11.78 0 01177 6c5.26 0 9.84 3.58 9.84 9.31a11.21 11.21 0 01-2.84 7.41 13.4 13.4 0 01-5.21 3.48 15.37 15.37 0 00-2.48-3.38zm-7.51-5.93c0 1.85 1 3.24 1.54 3.24s1-1.08 1.29-1.71a20.73 20.73 0 001.85-8.25c-2.78 1.03-4.68 4.56-4.68 6.72zm27.96.93c-.67.58-1.87 1.83-1.87 2.62 0 1.73 3.29 1.73 4.3 1.73a33.71 33.71 0 009.62-1.44 18 18 0 00.62 4.08 36.36 36.36 0 01-9.38 1.1c-3.75 0-5.23-.41-6.41-.89-.77-.31-3-1.44-3-3.86s2.5-4.73 3.48-5.62zm10.08-7.89a16.67 16.67 0 00-6.05 3.91c-.86-.75-1.77-1.51-2.52-2.06.89-.82 1.11-1 1.8-1.57-1.49.12-5.52.34-7.56.29l-.19-4a48.3 48.3 0 006 .32 45.38 45.38 0 006.68-.57zm1.06-3.75a17.25 17.25 0 012.18 2.52 9.65 9.65 0 00-1.41 1.73 26.19 26.19 0 00-2.31-2.66zm1.85-2A26.76 26.76 0 01212 6.49a9.56 9.56 0 00-1.53 1.64 21.26 21.26 0 00-2.09-2.36zm13.6 6.11V8.7h-5.26V5.17h9.17c0 .63-.17 3.39-.17 3.94a17.58 17.58 0 008.81 15.41 9.51 9.51 0 00-3.15 2.62c-3-2.07-7.32-6.58-8.68-12.1-.8 2.69-2.67 7.66-9.08 12.12a10.21 10.21 0 00-2.99-2.69c7.37-4.73 8.64-9.82 9.29-14.57zm23.93 9.96a16.5 16.5 0 01-2.83 2.9 6.18 6.18 0 00-2.26-1.61c.43-.33.79-.6 1.35-1.08-1.49.65-3.32 1.35-5.26 2 0 .28-.1.62-.36.62s-.34-.31-.38-.55l-.82-3.39a17.74 17.74 0 002.71-.5v-5.45H237v-3.12h2.47v-5l3.55.19c.29 0 .51.05.51.26s-.15.29-.51.46v4.08h2.14v3.12H243v4.37c.58-.24.94-.38 1.52-.65h-.17v-2.41h14.54v2.42h-9.29l-.45.77h9.58c0 2.42-.08 7.22-1.64 8.45-.91.72-2.44.79-4 .79a7 7 0 00-.64-2.59 19 19 0 01-2.86 3 6.09 6.09 0 00-2.54-1.54 16.76 16.76 0 005.06-5.54h-1.08a16.84 16.84 0 01-6.31 6.36 6.18 6.18 0 00-2.12-1.92 14.73 14.73 0 005.6-4.44zm-2.18-3.34a10.4 10.4 0 00-.17 2.14 15.17 15.17 0 001.46-2.14zm12.09-3.22H246V5.25h11.2zM254 8.56v-.82h-4.72v.82zm-4.72 1.92v.81H254v-.81zm5.66 9.77a26.2 26.2 0 01-1.9 3.33 8 8 0 00.84.05c.48 0 .92-.05 1.08-.6a11.81 11.81 0 00.44-2.78zM267.2 6.81c.19.07.31.16.31.33s-.45.34-.67.36a33.17 33.17 0 00-1.44 9.24 17.27 17.27 0 00.17 2.4c.31-.45.81-1.22 1.13-1.7a10.26 10.26 0 001.72 2.38 10.73 10.73 0 00-2 5.88l-3.21.6a33.73 33.73 0 01-1.3-9.68 43 43 0 011.44-11zm11.4-.53c.12 0 .31 0 .31.26s-.33.36-.55.39a26.32 26.32 0 00-.24 2.88 21.76 21.76 0 003.55-.89v3.62c-.55.15-1.65.41-3.64.77a39.45 39.45 0 00.38 5.52A13.57 13.57 0 01283 21.3c-.38.7-1.1 2.26-1.63 3.39a8.54 8.54 0 00-2.57-1.83c-.1 3.08-3.17 3.44-4.68 3.44-3.6 0-5.4-2-5.4-4.2 0-2.86 2.83-3.94 5.95-3.87-.19-2.74-.21-3.05-.26-4.44-1.37.12-2.35.12-2.76.12a17.25 17.25 0 01-1.78-.07v-3.77a25.61 25.61 0 004.51.17V5.56zm-5 14.88c-.52 0-1.68.17-1.68.91s.8.89 1.56.89c.2 0 1.64 0 1.64-1.18a.63.63 0 000-.31 3.43 3.43 0 00-1.49-.31zm32.91-11.81c-5.92-.1-11.06 5.23-11.06 9.12 0 2.79 3.53 4.15 6.79 4.23a31.82 31.82 0 00-1.8 4.36c-1.94-.52-8.83-2.44-8.83-8.18a10.92 10.92 0 014.39-8.26 67.33 67.33 0 00-9.94 1.51l-.55-4.51a78.07 78.07 0 0010.68-.55 57.12 57.12 0 009.62-1.75zm-4 3.41a14.53 14.53 0 012.23 2.57c-.67.48-1 .74-1.85 1.44a20.22 20.22 0 00-2.13-2.72zm2.52-1.71a15.52 15.52 0 012.14 2.52c-.6.46-1 .82-1.76 1.49a17.48 17.48 0 00-2.13-2.71zM321 5a14.15 14.15 0 00.41 2.59 17.26 17.26 0 004.17-1.78 30.77 30.77 0 001.32 2.93 17.58 17.58 0 01-4.46 2c.31.74.36.81.46 1a20.38 20.38 0 005-2.62c.26.53 1.6 2.67 1.87 3.1a22 22 0 01-5.26 2.67 23.22 23.22 0 003.63 4.58L326 21.86a13 13 0 00-6.84-2c-1 0-3.14.34-3.14 1.73 0 1.15 1.29 2 4.18 2a17.35 17.35 0 006.28-1 11 11 0 00-.26 2.57 5.23 5.23 0 00.07 1 20.31 20.31 0 01-6 .77c-6.17 0-8.16-3-8.16-5.26 0-2.56 2.35-4.56 6.38-4.56a25.15 25.15 0 013.34.27 11.59 11.59 0 01-.84-1.44 43.23 43.23 0 01-8 .84 13.26 13.26 0 01-1.54-.08l-.4-3.55c1.46.07 2.4.1 2.92.1a29.12 29.12 0 005.52-.55c-.11-.27-.19-.48-.45-1.06a47.19 47.19 0 01-6 .58l-.77-3.36a29.64 29.64 0 005.5-.39c-.55-1.44-.72-2-1-2.81zm25.4.7c.22 0 .43.07.43.31s-.26.32-.43.34c-.09.94-.09 1.15-.12 1.42 1.11 0 4.83-.08 6.63.14v3.58a57.56 57.56 0 00-6.75-.22v2.64a31.5 31.5 0 006.1-1.13v3.58a46.47 46.47 0 01-6 .79c0 1 0 1.13.05 2.14a23.44 23.44 0 018 3.17 36.25 36.25 0 00-2.66 3 19.38 19.38 0 00-5.14-3c.05 1.25.22 4.08-5 4.08-3.72 0-6.43-1.7-6.43-3.89 0-2.73 3.43-3.91 7.44-3.84V17.4c-2.37 0-6.72.12-6.72-2.26 0-.84.44-1.61 1.68-2.9l2.64.6c-.43.57-.5.64-.5.81s0 .67 2.81.55v-2.76c-2.95.12-5.54.46-7.53.72V8.34c1.17-.12 6.43-.36 7.51-.43 0-.91 0-1.85-.09-2.95zm-5 15.84c-.12 0-2.42 0-2.42 1 0 .79 1.32.86 1.73.86 1.17 0 1.89-.43 1.75-1.75a5.1 5.1 0 00-1.03-.11zm32.65-15.77c.34.05.55.08.55.34s-.29.34-.48.38c0 .12.07 3.53.1 3.87 3-.43 3.77-.51 4.61-.58v4c-.39 0-.8-.07-1.4-.07a30.75 30.75 0 00-3.19.22c0 6.43-1.05 6.67-5.59 6.67a21.4 21.4 0 00-.94-3.55 7.72 7.72 0 001.35.12c1.34 0 1.44-.34 1.58-2.74-.77.12-4.13.7-4.82.82 0 .74-.05 1.46-.05 2.18 0 3.82.19 4.06.65 4.49s1.25.67 2.9.67a35.78 35.78 0 008.07-1 18.55 18.55 0 00-.46 3.91 65.35 65.35 0 01-8.28.65c-1.39 0-5.14 0-6-3.31-.36-1.37-.33-3.27-.28-6.82-2.88.72-3.72.94-4.66 1.2l-.29-4.2a28.51 28.51 0 004.83-.65 50.69 50.69 0 00-.32-5.52l4.16.46c.36 0 .65.07.65.38s-.27.34-.44.36c0 .6-.21 3.15-.26 3.67.72-.12 3-.48 4.54-.74a29.75 29.75 0 00-.58-5.76zm19.7.63c.22.09.39.21.39.43s-.36.29-.58.24c-.89 1.56-2 3.74-3.29 6.26-.24.46-.33.61-.52.92a9.43 9.43 0 012.23-.31c1.49 0 3.5.57 3.5 3.07a10.77 10.77 0 01-.21 2 10.87 10.87 0 00-.29 2.36c0 .62.17 1.2.91 1.2s3.46-1.52 5.16-3.94a27.29 27.29 0 002.52 3.05 18 18 0 01-4.08 3.48 9.48 9.48 0 01-4.58 1.41c-2.24 0-3.84-1.27-3.84-3.64 0-.72.4-3.89.4-4.54 0-.87-.48-1.15-1-1.15-2.59 0-5.47 7.41-5.86 8.85l-3.91-1.63c1.54-2.57 5-9.77 5.76-11.35 1.51-3.27 2.47-5.64 3.6-8.55zM0 0h10v30H0z" fill="#00b4dc" data-name="レイヤー 2"/></svg>