<?xml version="1.0" encoding="utf-8"?>
<!-- Generator: Adobe Illustrator 23.1.0, SVG Export Plug-In . SVG Version: 6.00 Build 0)  -->
<svg version="1.1" id="レイヤー_1" xmlns="http://www.w3.org/2000/svg" xmlns:xlink="http://www.w3.org/1999/xlink" x="0px"
	 y="0px" viewBox="0 0 292.4 40" style="enable-background:new 0 0 292.4 40;" xml:space="preserve">
<style type="text/css">
	.st0{fill:#231815;}
	.st1{fill:#C6302F;}
</style>
<polygon class="st0" points="122.4,8.4 122.4,39.3 111.6,39.3 111.6,8.4 101.4,8.4 101.4,0 132.7,0 132.7,8.4 "/>
<path class="st0" d="M154.2,25.5h-4.4v13.8h-10.6V0h15.5c10.2,0,15.5,4.6,15.5,12.4c0,5.1-2.3,8.7-6.4,10.5l8.7,15.8v0.6h-11
	L154.2,25.5z M149.8,7.5v10.6h3.9c4.5,0,6.2-2,6.2-5.5c0-3.6-1.9-5.2-6.4-5.2H149.8z"/>
<polygon class="st0" points="178.3,0 203.9,0 203.9,7.7 189,7.7 189,15.3 201.8,15.3 201.8,23 189,23 189,31.5 204.2,31.5 
	204.2,39.3 178.3,39.3 "/>
<polygon class="st0" points="241.1,40 221.5,17.7 221.5,39.6 212.4,39.6 212.4,0 218.8,0 238.1,22.1 238.1,0.4 247.2,0.4 247.2,40 
	"/>
<path class="st0" d="M255.9,0H270c12.7,0,22.4,5.8,22.4,20c0,14.3-9.8,19.6-22.4,19.6h-14.1V0z M266.6,8v23.6h2.8
	c7.2,0,12-2.8,12-11.6c0-8.6-4.8-12-12-12H266.6z"/>
<path class="st0" d="M19.8,30.5l0.1,2.2h-4.2v-1.9H4.2v1.9H0c0-0.6,0.1-1.4,0.1-2.2V9.7c0-0.8,0-1.6-0.1-2.2h19.9
	c0,0.7-0.1,1.4-0.1,2.2V30.5z M4.2,17h11.5v-5.8H4.2V17z M15.7,20.7H4.2v6.4h11.5V20.7z"/>
<path class="st0" d="M33.4,31.4c0,0.4,0,0.9,0,1.3H30c0.1-0.4,0.1-0.9,0.1-1.3V21.1c-1.2,0.1-2.3,0.2-3,0.3c-0.4,0-1,0.1-1.4,0.2
	l-0.4-3.4c0.4,0,1.1,0,1.8,0c0.2,0,0.4,0,0.7,0c0.5-0.6,1.1-1.3,1.6-2c-1.3-1.5-2.7-3-4-4.2l1.8-2.8c0.3,0.3,0.6,0.6,0.9,1
	c1.1-1.6,2.2-3.5,2.5-4.6l3,1.8c-0.1,0.1-0.3,0.3-0.4,0.4c-0.7,1.5-1.9,3.2-3,4.8c0.3,0.4,0.6,0.8,0.9,1.1c1.5-2.1,2.8-4.2,3.3-5.5
	l2.9,1.7c-0.1,0.2-0.3,0.4-0.4,0.5c-1.3,2.1-3.4,5-5.3,7.5c0.9-0.1,1.9-0.2,2.7-0.3c-0.2-0.8-0.5-1.6-0.7-2.2l2.6-0.7
	c0.6,1.4,1.4,3.9,1.9,6.3c-0.8,0.3-2,0.6-2.8,0.8c-0.1-0.4-0.1-0.9-0.2-1.3c-0.4,0-0.9,0.1-1.5,0.1V31.4z M26.5,22.6
	c0.9,0.1,2,0.3,2.8,0.5c0,0.1-0.1,0.3-0.1,0.6c-0.1,3.2-0.4,5.6-1,7.7c-0.5-0.2-1.9-0.7-2.8-1.1C26.1,28.3,26.4,25.7,26.5,22.6
	 M50.9,28.8c0.8,0,1.5,0,2-0.1v3.6c-0.6-0.1-1.2-0.1-2-0.1H38.5c-0.8,0-1.5,0-2.1,0.1v-3.6l-1.6,0.5c0-2.1-0.5-4.9-0.8-6.5l2.5-0.7
	c0.4,1.3,0.9,3.9,1.1,6.3c-0.2,0.1-0.6,0.2-1.1,0.3c0.6,0.1,1.2,0.1,2,0.1h4.7v-3.2h-3c-0.7,0-1.3,0-1.8,0v-3.4c0.5,0,1.1,0,1.8,0h3
	v-1.8c0-0.3,0-0.8-0.1-1.1c0.8,0,3.1,0.1,3.9,0.1c0,0.3-0.1,0.6-0.1,0.9v1.8h3.2c0.7,0,1.3,0,1.8,0v3.4c-0.5,0-1.1,0-1.8,0h-3.2v3.2
	H50.9z M42.3,15.4c-1.1-1.2-2.3-2.8-3-4.9c-0.6,0-1.1,0-1.5,0V7.2c0.5,0,1,0,1.6,0h9.5l0.3-0.3c0.7,0.5,2,1.5,3.1,2.5
	c-0.1,0.1-0.3,0.1-0.4,0.2c-0.7,2.4-2.2,4.3-3.7,5.8c1.3,0.6,3,1,4.8,1.2c-0.4,1-1.1,2.7-1.4,3.5c-2.2-0.5-4.5-1.2-6.3-2.4
	c-1.8,1.1-3.9,1.8-6.2,2.4c-0.3-0.8-1.1-2.5-1.6-3.6C39.2,16.4,40.8,16,42.3,15.4 M47.9,10.5H43c0.6,1.3,1.3,2.3,2.3,3.2
	C46.4,12.9,47.3,11.8,47.9,10.5"/>
<g>
	<g>
		<g>
			<polygon class="st1" points="62.3,39.4 63.9,39.4 85.5,0 83.9,0 			"/>
		</g>
		<g>
			<polygon class="st1" points="65,39.4 66.7,39.4 88.3,0 86.7,0 			"/>
		</g>
		<g>
			<polygon class="st1" points="67.8,39.4 69.4,39.4 91,0 89.4,0 			"/>
		</g>
		<g>
			<polygon class="st1" points="70.5,39.4 72.1,39.4 93.8,0 92.1,0 			"/>
		</g>
		<g>
			<polygon class="st1" points="73.2,39.4 74.9,39.4 96.5,0 94.9,0 			"/>
		</g>
	</g>
	<g>
		<polygon class="st1" points="69.1,9.8 73,17.2 73.5,16 70.2,9.8 71,9.8 74,15.1 74.4,14.1 72.1,9.8 73,9.8 74.9,13.2 78,6.5 
			74.4,0 61.7,0 72,19.2 72.5,18.2 68.2,9.8 		"/>
	</g>
	<g>
		<polygon class="st1" points="86.2,39.4 87.3,39.4 82.1,29.9 81.6,31 		"/>
		<polygon class="st1" points="84.3,39.4 85.4,39.4 81.2,31.8 80.7,32.8 		"/>
		<polygon class="st1" points="82.5,29.1 88.2,39.4 89.2,39.4 83,28 		"/>
		<polygon class="st1" points="83.6,26.9 90.1,39.4 97.1,39.4 86.8,20.1 		"/>
	</g>
</g>
</svg>
