<?xml version="1.0" encoding="utf-8"?>
<!-- Generator: Adobe Illustrator 23.1.0, SVG Export Plug-In . SVG Version: 6.00 Build 0)  -->
<svg version="1.1" id="レイヤー_1" xmlns="http://www.w3.org/2000/svg" xmlns:xlink="http://www.w3.org/1999/xlink" x="0px"
	 y="0px" viewBox="0 0 282 48" style="enable-background:new 0 0 282 48;" xml:space="preserve">
<style type="text/css">
	.st0{fill:#231815;}
	.st1{fill:#0062B0;}
</style>
<g>
	<path class="st0" d="M133.2,11.8c0-0.8-0.6-1.4-1.4-1.4h-8.5c-0.8,0-1.4-0.6-1.4-1.4V2.4c0-0.8,0.6-1.4,1.4-1.4h30
		c0.8,0,1.4,0.6,1.4,1.4v6.7c0,0.8-0.6,1.4-1.4,1.4h-8.5c-0.8,0-1.4,0.6-1.4,1.4V46c0,0.8-0.6,1.4-1.4,1.4h-7.5
		c-0.8,0-1.4-0.6-1.4-1.4V11.8z"/>
	<path class="st0" d="M162.9,2.4c0-0.8,0.6-1.4,1.4-1.4h26.6c0.8,0,1.4,0.6,1.4,1.4v6.3c0,0.8-0.6,1.4-1.4,1.4h-16.4
		c-0.8,0-1.4,0.6-1.4,1.4v6.7c0,0.8,0.6,1.4,1.4,1.4h12.9c0.8,0,1.4,0.6,1.4,1.4v6.3c0,0.8-0.6,1.4-1.4,1.4h-12.9
		c-0.8,0-1.4,0.6-1.4,1.4v7c0,0.8,0.6,1.4,1.4,1.4h16.8c0.8,0,1.4,0.6,1.4,1.4V46c0,0.8-0.6,1.4-1.4,1.4h-26.9
		c-0.8,0-1.4-0.6-1.4-1.4V2.4z"/>
	<path class="st0" d="M247.9,2.4c0-0.8,0.6-1.4,1.4-1.4h7.5c0.8,0,1.4,0.6,1.4,1.4V18c0,0.8,0.6,1.4,1.4,1.4h11
		c0.8,0,1.4-0.6,1.4-1.4V2.4c0-0.8,0.6-1.4,1.4-1.4h7.5c0.8,0,1.4,0.6,1.4,1.4V46c0,0.8-0.6,1.4-1.4,1.4h-7.5
		c-0.8,0-1.4-0.6-1.4-1.4V30.2c0-0.8-0.6-1.4-1.4-1.4h-11c-0.8,0-1.4,0.6-1.4,1.4V46c0,0.8-0.6,1.4-1.4,1.4h-7.5
		c-0.8,0-1.4-0.6-1.4-1.4V2.4z"/>
	<g>
		<path class="st0" d="M200.1,24.1V24c0-13.2,9.2-24,22.5-24c7.7,0,12.4,2.6,16.3,6.5c0.2,0.2,0.4,1,0,1.6l-0.1,0.1l-4.1,5.1
			c0,0-0.3,0.5-0.8,0.7c-0.6,0.2-1,0-1.2-0.1c-3.2-2.7-5.7-4.4-9.8-4.4c-7.3,0-12.1,6.6-12.1,14.6v0.1c0,8,4.7,14.5,12.1,14.5
			c4.7,0,7-1.8,10.3-4.9c0.1-0.1,0.6-0.2,0.8-0.2c0.5,0.2,0.7,0.4,0.7,0.4l4.6,5c0,0,0.3,0.3,0.3,0.8c0,0.4-0.2,0.7-0.3,0.8
			c-4.4,4.7-8.8,7.5-16.9,7.5C209.5,48,200.1,37.5,200.1,24.1z"/>
	</g>
	<path class="st1" d="M97.9,24.1L79.1,2.1c-0.6-0.7-1.3-1.3-2.7-1.3H65.2c-0.6,0-0.9,0.8-0.5,1.3L83.5,24L64.7,46
		c-0.4,0.4-0.2,1.3,0.5,1.3h11.3c1.3,0,2.1-0.6,2.7-1.3L97.9,24.1z"/>
	<path class="st0" d="M115.6,0.8h-11.3c-1.3,0-1.8,0.3-2.4,1L93.2,12l7.2,8.4L116,2.1C116.5,1.5,116.2,0.8,115.6,0.8z"/>
	<path class="st0" d="M116,46l-15.6-18.3l-7.2,8.4l8.7,10.2c0.6,0.7,1.5,1,2.4,1h11.3C116.2,47.3,116.4,46.5,116,46z"/>
</g>
<g>
	<path class="st1" d="M20.2,14v21.9l0.1,2.1h-3.8v-2.1H3.8v2.1H0c0-0.8,0.1-1.5,0.1-2.1V14c0-0.6,0-1.3-0.1-2.1h20.2
		C20.2,12.4,20.2,13.1,20.2,14z M16.5,15.3H3.8V22h12.7V15.3z M3.8,32.6h12.7v-7.3H3.8V32.6z"/>
	<path class="st1" d="M34.5,25.5v11.3c0,0.6,0,1.1,0.1,1.3h-3.2c0-0.2,0-0.7,0-1.3v-11c-1.4,0.2-2.5,0.3-3.4,0.3l-1.3,0.2l-0.3-3.2
		c0.5,0,1.1,0.1,1.7,0l0.7,0c0.7-0.8,1.4-1.6,2-2.5c-1.3-1.5-2.7-3-4.2-4.5l1.7-2.5l1.1,1.1c0.6-0.9,1.2-1.8,1.7-2.7
		c0.5-1,0.9-1.7,1.1-2.3l2.7,1.7c-0.1,0.1-0.2,0.3-0.3,0.5c-0.7,1.3-1.7,3-3.2,5c0.4,0.4,0.8,0.9,1.2,1.3c1.8-2.7,2.9-4.6,3.4-5.9
		l2.7,1.7l-0.4,0.5c-0.5,0.8-1.1,1.8-1.8,2.9c-0.7,1.1-1.4,2.1-2.1,3c-0.7,0.9-1.3,1.7-1.8,2.3c1.6-0.1,2.6-0.2,3.3-0.3
		c-0.2-0.8-0.5-1.6-0.9-2.3l2.4-0.7c0.3,0.7,0.7,1.6,1.1,2.8c0.4,1.2,0.7,2.3,1,3.5l-2.7,0.8l-0.3-1.5L34.5,25.5z M26.6,35.3
		c0.3-1,0.6-2.2,0.8-3.5c0.2-1.3,0.3-2.8,0.4-4.3l2.7,0.5l-0.1,0.6c-0.1,3.3-0.6,6-1.3,8C28.2,36.1,27.3,35.6,26.6,35.3z M37.8,27.1
		c0.2,0.7,0.5,1.7,0.7,3c0.2,1.3,0.4,2.5,0.6,3.8l-2.7,0.8c0-0.9-0.1-2-0.3-3.3c-0.2-1.3-0.4-2.5-0.6-3.5L37.8,27.1z M53.1,34.4
		c1,0,1.6,0,2-0.1v3.3c-0.4,0-1-0.1-2-0.1H40.1c-1,0-1.7,0-2.1,0.1v-3.3c0.4,0,1.1,0.1,2.1,0.1h5.3v-3.9h-3.4c-0.8,0-1.4,0-1.8,0
		v-3.2c0.3,0,0.9,0,1.8,0h3.4v-2.3l-0.1-1c0.4,0,1.1,0,1.9,0c0.8,0,1.3,0.1,1.7,0.1c0,0.3-0.1,0.6-0.1,0.9v2.3h3.5
		c0.8,0,1.4,0,1.8,0v3.2c-0.4,0-1,0-1.8,0h-3.5v3.9H53.1z M39.2,21.7c1.9-0.3,3.7-0.8,5.3-1.5c-0.5-0.5-1-1.1-1.4-1.8
		c-0.4-0.6-0.8-1.3-1.1-1.9c-0.3-0.6-0.6-1.2-0.7-1.7h-0.2l-1.6,0v-3l1.6,0h10l0.3-0.3c1,0.8,2,1.6,2.9,2.4L53.9,14
		c-0.2,0.6-0.5,1.2-0.8,1.9c-0.4,0.7-0.8,1.5-1.4,2.2c-0.6,0.7-1.2,1.4-1.8,2c1.2,0.6,3,1.1,5.3,1.5c-0.5,1.2-0.9,2.2-1.2,3.2
		c-1.4-0.3-2.6-0.7-3.7-1.1c-1.1-0.4-2.1-0.9-2.9-1.5c-0.6,0.4-1.5,0.9-2.5,1.3c-1,0.4-2.4,0.9-4.2,1.3
		C40.4,24.3,39.9,23.2,39.2,21.7z M50.2,14.7h-5.7c0.3,0.7,0.7,1.4,1.2,2.1c0.5,0.6,1,1.2,1.5,1.7c0.6-0.5,1.2-1.1,1.7-1.7
		C49.5,16.1,49.9,15.4,50.2,14.7z"/>
</g>
</svg>
