<?xml version="1.0" encoding="utf-8"?>
<!-- Generator: Adobe Illustrator 25.2.1, SVG Export Plug-In . SVG Version: 6.00 Build 0)  -->
<svg version="1.1" id="レイヤー_1" xmlns="http://www.w3.org/2000/svg" xmlns:xlink="http://www.w3.org/1999/xlink" x="0px"
	 y="0px" viewBox="0 0 437.4 66.1" style="enable-background:new 0 0 437.4 66.1;" xml:space="preserve">
<g>
	<g>
		<g>
			<path d="M125.8,21.7c0-0.7-0.5-1.2-1.2-1.2h-7.5c-0.7,0-1.2-0.5-1.2-1.2v-5.9c0-0.7,0.5-1.2,1.2-1.2h26.4c0.7,0,1.2,0.5,1.2,1.2
				v5.9c0,0.7-0.5,1.2-1.2,1.2H136c-0.7,0-1.2,0.5-1.2,1.2v30.1c0,0.7-0.5,1.2-1.2,1.2H127c-0.7,0-1.2-0.5-1.2-1.2V21.7z"/>
			<path d="M151.9,13.4c0-0.7,0.5-1.2,1.2-1.2h23.3c0.7,0,1.2,0.5,1.2,1.2V19c0,0.7-0.5,1.2-1.2,1.2H162c-0.7,0-1.2,0.5-1.2,1.2v5.9
				c0,0.7,0.5,1.2,1.2,1.2h11.4c0.7,0,1.2,0.5,1.2,1.2v5.6c0,0.7-0.5,1.2-1.2,1.2H162c-0.7,0-1.2,0.5-1.2,1.2v6.2
				c0,0.7,0.5,1.2,1.2,1.2h14.7c0.7,0,1.2,0.5,1.2,1.2v5.6c0,0.7-0.5,1.2-1.2,1.2h-23.6c-0.7,0-1.2-0.5-1.2-1.2V13.4z"/>
			<path d="M226.5,13.4c0-0.7,0.5-1.2,1.2-1.2h6.6c0.7,0,1.2,0.5,1.2,1.2v13.7c0,0.7,0.5,1.2,1.2,1.2h9.6c0.7,0,1.2-0.5,1.2-1.2
				V13.4c0-0.7,0.5-1.2,1.2-1.2h6.6c0.7,0,1.2,0.5,1.2,1.2v38.3c0,0.7-0.5,1.2-1.2,1.2h-6.6c-0.7,0-1.2-0.5-1.2-1.2v-14
				c0-0.7-0.5-1.2-1.2-1.2h-9.6c-0.7,0-1.2,0.5-1.2,1.2v14c0,0.7-0.5,1.2-1.2,1.2h-6.6c-0.7,0-1.2-0.5-1.2-1.2V13.4z"/>
			<g>
				<path d="M184.5,32.5v-0.1c0-11.6,8.1-21.1,19.7-21.1c6.7,0,10.9,2.3,14.3,5.7c0.2,0.2,0.4,0.9,0,1.4l-0.1,0.1l-3.6,4.5
					c0,0-0.3,0.5-0.7,0.6c-0.5,0.2-0.9,0-1.1-0.1c-2.8-2.4-5-3.9-8.6-3.9c-6.4,0-10.6,5.8-10.6,12.8v0.1c0,7,4.2,12.7,10.6,12.7
					c4.2,0,6.1-1.6,9-4.3c0.1-0.1,0.5-0.2,0.7-0.1c0.4,0.1,0.6,0.4,0.6,0.4l4,4.4c0,0,0.3,0.2,0.2,0.7c0,0.3-0.2,0.6-0.3,0.7
					c-3.9,4.2-7.8,6.6-14.9,6.6C192.8,53.5,184.5,44.2,184.5,32.5z"/>
			</g>
			<path style="fill:#E50065;" d="M94.7,32.5L78.3,13.2c-0.5-0.6-1.2-1.1-2.3-1.1h-9.9c-0.5,0-0.8,0.7-0.4,1.1l16.4,19.2L65.7,51.7
				c-0.3,0.4-0.1,1.1,0.4,1.1H76c1.2,0,1.8-0.5,2.3-1.1L94.7,32.5z"/>
			<path d="M110.3,12.1h-9.9c-1.1,0-1.6,0.3-2.1,0.9l-7.6,8.9l6.3,7.4l13.7-16.1C111.1,12.7,110.8,12.1,110.3,12.1z"/>
			<path d="M110.7,51.7L97,35.7l-6.3,7.4l7.7,8.9c0.5,0.6,1.3,0.9,2.1,0.9h9.9C110.8,52.8,111,52.1,110.7,51.7z"/>
		</g>
		<g>
			<path d="M26.5,22.8V42l0.1,1.9h-3.3V42H12.1v1.9H8.8c0-0.7,0.1-1.3,0.1-1.9V22.8c0-0.5,0-1.1-0.1-1.8h17.8
				C26.6,21.4,26.5,22,26.5,22.8z M23.3,23.9H12.1v5.9h11.1V23.9z M12.1,39.1h11.1v-6.4H12.1V39.1z"/>
			<path d="M39.1,32.8v9.9c0,0.6,0,0.9,0.1,1.2h-2.8c0-0.2,0-0.6,0-1.2v-9.6c-1.2,0.1-2.2,0.2-3,0.3l-1.2,0.2L32,30.8
				c0.5,0,1,0,1.5,0l0.6,0c0.6-0.7,1.2-1.4,1.7-2.2c-1.1-1.3-2.4-2.6-3.7-3.9l1.5-2.2l0.9,1c0.5-0.8,1-1.6,1.5-2.4
				c0.5-0.8,0.8-1.5,0.9-2l2.3,1.5c-0.1,0.1-0.2,0.2-0.3,0.4c-0.6,1.1-1.5,2.6-2.8,4.4c0.4,0.4,0.7,0.8,1,1.2c1.6-2.3,2.6-4,3-5.1
				l2.3,1.5l-0.4,0.4c-0.4,0.7-1,1.6-1.6,2.5c-0.6,0.9-1.2,1.8-1.8,2.6c-0.6,0.8-1.1,1.5-1.5,2c1.4-0.1,2.3-0.2,2.9-0.3
				c-0.2-0.7-0.5-1.4-0.8-2l2.1-0.6c0.3,0.6,0.6,1.4,1,2.5c0.4,1.1,0.6,2.1,0.8,3L41,33.9l-0.2-1.3L39.1,32.8z M32.2,41.4
				c0.3-0.9,0.6-1.9,0.7-3.1c0.2-1.2,0.3-2.4,0.3-3.8l2.4,0.4l-0.1,0.5c-0.1,2.9-0.5,5.2-1.1,7.1C33.5,42.1,32.8,41.7,32.2,41.4z
				 M42,34.3c0.2,0.6,0.4,1.5,0.6,2.6c0.2,1.1,0.4,2.2,0.5,3.3l-2.4,0.7c0-0.8-0.1-1.8-0.3-2.9c-0.2-1.1-0.4-2.2-0.6-3.1L42,34.3z
				 M55.5,40.7c0.8,0,1.4,0,1.8-0.1v2.9c-0.3,0-0.9-0.1-1.8-0.1H44c-0.9,0-1.5,0-1.8,0.1v-2.9c0.3,0,0.9,0.1,1.8,0.1h4.6v-3.4h-3
				c-0.7,0-1.3,0-1.6,0v-2.8c0.3,0,0.8,0,1.6,0h3v-2l-0.1-0.9c0.4,0,0.9,0,1.6,0c0.7,0,1.2,0.1,1.5,0.1c0,0.3-0.1,0.5-0.1,0.8v2h3.1
				c0.7,0,1.2,0,1.6,0v2.8c-0.3,0-0.8,0-1.6,0h-3.1v3.4H55.5z M43.3,29.5c1.7-0.3,3.2-0.7,4.7-1.3c-0.4-0.5-0.8-1-1.2-1.5
				c-0.4-0.6-0.7-1.1-1-1.7c-0.3-0.6-0.5-1.1-0.6-1.5h-0.2l-1.4,0v-2.7l1.4,0h8.8l0.3-0.3c0.9,0.7,1.8,1.4,2.5,2.1l-0.4,0.2
				c-0.2,0.5-0.4,1-0.7,1.7c-0.3,0.6-0.7,1.3-1.2,1.9c-0.5,0.7-1,1.3-1.6,1.8c1,0.5,2.6,1,4.7,1.3c-0.4,1-0.8,2-1.1,2.8
				c-1.2-0.3-2.3-0.6-3.2-0.9c-1-0.3-1.8-0.8-2.6-1.3c-0.6,0.4-1.3,0.7-2.2,1.1c-0.9,0.4-2.1,0.8-3.7,1.2
				C44.3,31.8,43.9,30.8,43.3,29.5z M52.9,23.4h-5c0.3,0.6,0.6,1.3,1,1.8c0.4,0.6,0.9,1.1,1.4,1.5c0.5-0.4,1-0.9,1.5-1.5
				C52.3,24.6,52.6,24,52.9,23.4z"/>
		</g>
	</g>
</g>
<rect x="276.9" y="6.9" style="fill:#E50065;" width="153.1" height="51"/>
<g>
	<path style="fill:#FFFFFF;" d="M283,46.7l12.3-29.6c0.1-0.3,0.3-0.5,0.7-0.5h0.4c0.4,0,0.6,0.2,0.7,0.5l12.2,29.6
		c0.2,0.6-0.1,1.1-0.7,1.1h-3.4c-0.6,0-0.9-0.3-1.1-0.9l-1.9-4.7h-11.8l-1.9,4.7c-0.2,0.4-0.5,0.9-1.1,0.9h-3.4
		C283.1,47.8,282.8,47.2,283,46.7z M300.1,37.3l-4-9.7H296l-3.9,9.7H300.1z"/>
	<path style="fill:#FFFFFF;" d="M325.4,16.6c4,0,6.9,1.4,9.6,4.1c0.4,0.4,0.4,0.9,0,1.2l-2.4,2.8c-0.3,0.4-0.7,0.4-1,0
		c-1.7-1.6-3.9-2.6-6.1-2.6c-5.1,0-8.8,4.7-8.8,10.2c0,5.5,3.8,10.1,8.9,10.1c2.4,0,4.4-1,6.1-2.5c0.3-0.3,0.8-0.3,1,0l2.5,2.8
		c0.3,0.3,0.2,0.9,0,1.2c-2.7,2.9-6.1,4.3-9.6,4.3c-7.9,0-14.3-7-14.3-15.8C311.1,23.7,317.5,16.6,325.4,16.6z"/>
	<path style="fill:#FFFFFF;" d="M345.4,22.3h-6.1c-0.4,0-0.8-0.4-0.8-0.8v-3.6c0-0.4,0.3-0.8,0.8-0.8h17.3c0.4,0,0.8,0.4,0.8,0.8
		v3.6c0,0.4-0.3,0.8-0.8,0.8h-6.1V47c0,0.4-0.4,0.8-0.8,0.8h-3.7c-0.4,0-0.8-0.4-0.8-0.8V22.3z"/>
	<path style="fill:#FFFFFF;" d="M362.7,17.9c0-0.4,0.4-0.8,0.8-0.8h3.7c0.4,0,0.8,0.4,0.8,0.8V47c0,0.4-0.4,0.8-0.8,0.8h-3.7
		c-0.4,0-0.8-0.4-0.8-0.8V17.9z"/>
	<path style="fill:#FFFFFF;" d="M372.3,18.2c-0.2-0.6,0.1-1.1,0.7-1.1h4c0.4,0,0.6,0.3,0.7,0.5l7.6,18.9h0.2l7.6-18.9
		c0.1-0.2,0.3-0.5,0.7-0.5h4c0.6,0,0.9,0.6,0.7,1.1l-12.3,29.6c-0.1,0.3-0.3,0.5-0.7,0.5h-0.4c-0.4,0-0.6-0.2-0.7-0.5L372.3,18.2z"
		/>
	<path style="fill:#FFFFFF;" d="M402.9,17.9c0-0.4,0.3-0.8,0.8-0.8h16.1c0.4,0,0.8,0.4,0.8,0.8v3.6c0,0.4-0.3,0.8-0.8,0.8h-11.7v7.2
		h9.8c0.4,0,0.8,0.4,0.8,0.8V34c0,0.5-0.4,0.8-0.8,0.8h-9.8v7.7h11.7c0.4,0,0.8,0.4,0.8,0.8V47c0,0.4-0.3,0.8-0.8,0.8h-16.1
		c-0.4,0-0.8-0.4-0.8-0.8V17.9z"/>
</g>
</svg>
