<?xml version="1.0" encoding="utf-8"?>
<!-- Generator: Adobe Illustrator 23.1.0, SVG Export Plug-In . SVG Version: 6.00 Build 0)  -->
<svg version="1.1" id="design" xmlns="http://www.w3.org/2000/svg" xmlns:xlink="http://www.w3.org/1999/xlink" x="0px" y="0px"
	 viewBox="0 0 376 48" style="enable-background:new 0 0 376 48;" xml:space="preserve">
<style type="text/css">
	.st0{fill:url(#SVGID_1_);}
	.st1{fill:url(#SVGID_2_);}
	.st2{fill:url(#SVGID_3_);}
</style>
<g>
	<path d="M19.5,35.2l0.1,2.2h-4.1v-1.9H4.1v1.9H0c0-0.6,0.1-1.4,0.1-2.2V14.7c0-0.8,0-1.6-0.1-2.2h19.5c0,0.7-0.1,1.4-0.1,2.2V35.2z
		 M4.1,21.9h11.3v-5.7H4.1V21.9z M15.4,25.5H4.1v6.3h11.3V25.5z"/>
	<path d="M35.4,36.1c0,0.4,0,0.9,0,1.3h-3.4c0.1-0.4,0.1-0.9,0.1-1.3V25.9c-1.2,0.1-2.2,0.2-2.9,0.3c-0.3,0-1,0.1-1.3,0.2l-0.4-3.3
		c0.4,0,1.1,0,1.8,0c0.2,0,0.4,0,0.7,0c0.5-0.6,1.1-1.3,1.6-2c-1.3-1.5-2.6-2.9-3.9-4.1l1.8-2.7c0.3,0.3,0.6,0.6,0.9,0.9
		c1.1-1.6,2.2-3.4,2.5-4.5l2.9,1.7c-0.1,0.1-0.3,0.3-0.3,0.4c-0.7,1.4-1.8,3.1-3,4.7c0.3,0.4,0.6,0.7,0.9,1.1
		c1.5-2.1,2.7-4.2,3.2-5.4l2.8,1.7c-0.1,0.2-0.3,0.4-0.4,0.5c-1.3,2-3.3,4.9-5.3,7.4c0.9-0.1,1.8-0.2,2.6-0.3
		c-0.2-0.8-0.5-1.5-0.7-2.2l2.5-0.7c0.5,1.3,1.4,3.9,1.8,6.2c-0.8,0.3-1.9,0.6-2.8,0.8c-0.1-0.4-0.1-0.9-0.2-1.3
		c-0.4,0-0.9,0.1-1.4,0.1V36.1z M28.7,27.3c0.9,0.1,2,0.3,2.8,0.5c0,0.1-0.1,0.3-0.1,0.6c-0.1,3.2-0.4,5.5-1,7.6
		c-0.5-0.2-1.8-0.7-2.8-1.1C28.3,33,28.6,30.4,28.7,27.3 M52.6,33.5c0.8,0,1.5,0,2-0.1V37c-0.5-0.1-1.2-0.1-2-0.1H40.5
		c-0.8,0-1.5,0-2,0.1v-3.5l-1.6,0.5c0-2.1-0.5-4.8-0.8-6.4l2.5-0.7c0.4,1.3,0.9,3.8,1.1,6.2c-0.2,0.1-0.6,0.2-1.1,0.3
		c0.5,0.1,1.2,0.1,1.9,0.1h4.6v-3.1h-2.9c-0.7,0-1.2,0-1.8,0v-3.3c0.5,0,1.1,0,1.8,0h2.9v-1.8c0-0.3,0-0.7-0.1-1
		c0.8,0,3.1,0.1,3.9,0.1c0,0.3-0.1,0.6-0.1,0.9v1.8H52c0.7,0,1.3,0,1.7,0v3.3c-0.5,0-1.1,0-1.7,0h-3.1v3.1H52.6z M44.2,20.3
		c-1.1-1.2-2.2-2.8-2.9-4.8c-0.5,0-1.1,0-1.5,0v-3.3c0.5,0,1,0,1.6,0h9.4L51,12c0.7,0.5,2,1.5,3,2.5c-0.1,0.1-0.3,0.1-0.4,0.2
		c-0.7,2.4-2.1,4.2-3.6,5.7c1.3,0.5,3,0.9,4.7,1.2c-0.4,1-1.1,2.6-1.3,3.4c-2.2-0.5-4.4-1.2-6.1-2.3c-1.7,1.1-3.8,1.7-6.1,2.3
		c-0.3-0.8-1.1-2.5-1.6-3.6C41.1,21.2,42.7,20.9,44.2,20.3 M49.6,15.5h-4.8c0.5,1.2,1.3,2.3,2.3,3.1C48.2,17.8,49.1,16.7,49.6,15.5"
		/>
	<path d="M161.8,42.9l-5.7-21.9l-5.7,21.9h-9.7L130.4,5.1h10l5.9,24.2l5-24.2h9.7l5.6,24.2l5.5-24.2h9.8l-10.3,37.7H161.8z"/>
	<path d="M207.1,43.9c-2.9,0-5.5-0.5-7.8-1.5c-2.3-1-4.2-2.3-5.8-4.1c-1.6-1.7-2.8-3.8-3.6-6.3c-0.8-2.5-1.2-5.1-1.2-8.1
		c0-3,0.4-5.7,1.3-8.1c0.9-2.5,2.1-4.5,3.7-6.3c1.6-1.7,3.6-3.1,5.8-4c2.3-0.9,4.8-1.4,7.7-1.4c2.8,0,5.4,0.5,7.6,1.4
		c2.2,0.9,4.2,2.3,5.8,4c1.6,1.7,2.8,3.8,3.7,6.2c0.9,2.5,1.3,5.2,1.3,8.2c0,3-0.4,5.7-1.3,8.2c-0.9,2.4-2.1,4.5-3.7,6.2
		c-1.6,1.7-3.5,3.1-5.8,4C212.4,43.4,209.9,43.9,207.1,43.9z M207.1,35.5c5.8,0,8.7-3.8,8.7-11.5c0-7.6-2.9-11.4-8.7-11.4
		s-8.7,3.8-8.7,11.4C198.4,31.7,201.3,35.5,207.1,35.5z"/>
	<path d="M278.6,43.4V20.5c0-2.3-0.5-4.2-1.5-5.6c-1-1.4-2.4-2.1-4.1-2.1c-1.8,0-3.2,0.8-4.4,2.3c-1.1,1.5-1.7,3.4-1.7,5.7v22.5
		h-9.5V20.7c0-1.5-0.1-2.8-0.3-3.8c-0.2-1-0.5-1.7-1-2.3c-0.5-0.6-1.1-1-1.8-1.2c-0.7-0.2-1.6-0.3-2.6-0.3c-3.9,0-5.8,2.5-5.8,7.4
		v22.9h-9.5V5.6h8.9v5.5c1.2-2.5,2.7-4.2,4.4-5.1c1.7-0.9,3.8-1.4,6.2-1.4c1.2,0,2.3,0.1,3.3,0.3c1,0.2,1.8,0.6,2.6,1
		c0.8,0.5,1.5,1.1,2.2,1.9c0.7,0.8,1.4,1.7,2.1,2.8c1-2.1,2.3-3.6,3.9-4.6c1.6-0.9,3.6-1.4,5.9-1.4c1.8,0,3.5,0.3,5,1
		c1.5,0.6,2.8,1.5,3.9,2.7s1.9,2.5,2.5,4c0.6,1.5,0.9,3.2,0.9,4.9v26.1H278.6z"/>
	<path d="M322.4,42.9c-0.3-1-0.5-2.1-0.6-3.4c-1.1,1.3-2.6,2.4-4.5,3.2c-1.9,0.8-4,1.2-6.4,1.2c-4.2,0-7.2-1-9.1-2.9
		c-1.9-1.9-2.9-4.4-2.9-7.5c0-2.7,0.4-4.9,1.2-6.5c0.8-1.6,2-2.9,3.4-3.8c1.5-0.9,3.2-1.6,5.2-2c2-0.4,4.2-0.8,6.6-1.2
		c2.4-0.4,4-0.8,4.8-1.4c0.8-0.6,1.2-1.5,1.2-2.9c0-1.2-0.5-2.2-1.6-2.9c-1.1-0.7-2.6-1-4.4-1c-2.2,0-3.8,0.5-4.7,1.5
		c-1,1-1.6,2.4-1.8,4.1h-8.9c0-1.9,0.4-3.7,0.9-5.4c0.6-1.6,1.5-3,2.7-4.2c1.2-1.2,2.9-2.1,4.9-2.7c2-0.6,4.4-1,7.3-1
		c2.8,0,5.2,0.3,7.2,1c2,0.7,3.6,1.6,4.8,2.9s2.1,2.8,2.6,4.7c0.5,1.9,0.8,4,0.8,6.3v23.8H322.4z M321.8,24.4
		c-0.5,0.5-1.2,0.9-2.1,1.2c-0.9,0.3-2.3,0.6-4,1c-2.7,0.6-4.6,1.3-5.6,2.1c-1,0.9-1.5,2.1-1.5,3.8c0,2.8,1.5,4.2,4.6,4.2
		c1.2,0,2.4-0.2,3.4-0.7c1.1-0.4,2-1,2.7-1.8c0.8-0.7,1.4-1.6,1.8-2.6c0.5-1,0.7-2.1,0.7-3.2L321.8,24.4z"/>
	<path d="M366.4,43.4V20.5c0-2.9-0.5-4.9-1.4-5.9c-0.9-1-2.5-1.5-4.8-1.5c-4.9,0-7.4,2.9-7.4,8.7v21.6h-9.5V5.6h9.1v5.5
		c1.1-2.1,2.6-3.8,4.5-4.9c1.9-1.1,4.2-1.6,7.2-1.6c1.7,0,3.3,0.3,4.8,0.8c1.5,0.5,2.7,1.3,3.8,2.4c1.1,1.1,1.9,2.4,2.5,3.9
		c0.6,1.6,0.9,3.4,0.9,5.4v26.1H366.4z"/>
	<g>
		<linearGradient id="SVGID_1_" gradientUnits="userSpaceOnUse" x1="66.1596" y1="55.3911" x2="123.1063" y2="12.4414">
			<stop  offset="0" style="stop-color:#FF6600"/>
			<stop  offset="0.4949" style="stop-color:#D45C59"/>
			<stop  offset="1" style="stop-color:#E5BC3F"/>
		</linearGradient>
		<polygon class="st0" points="117.3,0.1 98.2,0.1 86,23.9 98.3,48 117.3,48 104.6,23.9 		"/>
		<linearGradient id="SVGID_2_" gradientUnits="userSpaceOnUse" x1="63.1635" y1="51.4186" x2="120.1103" y2="8.4689">
			<stop  offset="0" style="stop-color:#FF6600"/>
			<stop  offset="0.4949" style="stop-color:#D45C59"/>
			<stop  offset="1" style="stop-color:#E5BC3F"/>
		</linearGradient>
		<polygon class="st1" points="77.9,26.5 65,48 86,48 87.5,45.1 		"/>
		<linearGradient id="SVGID_3_" gradientUnits="userSpaceOnUse" x1="46.6251" y1="29.4905" x2="103.5718" y2="-13.4593">
			<stop  offset="0" style="stop-color:#FF6600"/>
			<stop  offset="0.4949" style="stop-color:#D45C59"/>
			<stop  offset="1" style="stop-color:#E5BC3F"/>
		</linearGradient>
		<polygon class="st2" points="83.8,9.1 78.9,0 66.6,0.1 77.9,20.3 		"/>
	</g>
</g>
</svg>
