<?xml version="1.0" encoding="utf-8"?>
<!-- Generator: Adobe Illustrator 23.1.0, SVG Export Plug-In . SVG Version: 6.00 Build 0)  -->
<svg version="1.1" id="レイヤー_1" xmlns="http://www.w3.org/2000/svg" xmlns:xlink="http://www.w3.org/1999/xlink" x="0px"
	 y="0px" viewBox="0 0 258.8 48" style="enable-background:new 0 0 258.8 48;" xml:space="preserve">
<style type="text/css">
	.アーチ_x0020__x0028_グリーン_x0029_{fill:url(#SVGID_1_);stroke:#FFFFFF;stroke-width:0.25;stroke-miterlimit:1;}
	.st0{fill:#231815;}
	.st1{fill:#E50020;}
	.st2{fill:#FFFFFF;}
</style>
<linearGradient id="SVGID_1_" gradientUnits="userSpaceOnUse" x1="-6" y1="589.2803" x2="-5.2929" y2="588.5732">
	<stop  offset="0" style="stop-color:#00A43B"/>
	<stop  offset="0.9831" style="stop-color:#133617"/>
</linearGradient>
<g>
	<path class="st0" d="M65.8,42.6H49.1V27.4h16.7V42.6z M65.8,26.6H49.1v-16h16.7V26.6z M72.9,11.4c0-0.7-4.3-4.4-4.8-4.4
		c-0.3,0-0.5,0.2-0.8,0.7l-1.4,2h-0.1v0H49.6l-6.4-1.5l0,38c0,0.4,0,0.8,0.2,1c0.1,0.1,0.3,0.2,0.5,0.2c0,0,4.5-0.3,4.5-0.3
		c0.5-0.1,0.8-0.4,0.8-1v-2.7h16.7v1.8c0,0.6,0.2,0.6,0.8,0.7H71c0.5,0,0.7-0.1,0.7-0.7l0-32.7C72,12.4,72.9,12.1,72.9,11.4 M90,8.1
		l-6.2-1.9c-0.2,1.7-1.1,5.6-1.7,7.2c0,0-0.1-0.1-0.1-0.1c-1.4-0.8-2.5-1.2-3.8-1.8l-0.2-0.1l-0.2,0.2c1,1.4,2,3.9,2.7,8
		c0.2,1.2,0.7,1.5,1.5,1.5c2,0,3.2-1.8,3.2-3.5c0-1.2-0.6-2.3-1.8-3.4c0,0,0,0,0,0C86.4,12.1,88.9,9.8,90,8.1 M101.5,18.6
		c-2.2-1.9-4.2-5-5.1-8.2h9.4l0,0.2C105.4,11.6,104.3,14.7,101.5,18.6 M89.7,25.3h-6.1c0.4-0.3,3.3-2.5,4.5-3.7c0,0,0.1-0.1,0.2-0.1
		C88.7,22.1,89.5,23.8,89.7,25.3 M115.3,23.6v-0.3l-0.2,0c-3.9-0.4-7.4-1.2-9.7-2.2c2.7-3.1,4.3-5.7,5.2-7.2
		c1.3-0.3,2.5-0.6,2.5-1.3c0-0.5-4.2-4.7-4.7-4.8c-0.4-0.1-0.6,0-1,0.4l-1.4,1.6H91.7v0.8h4c0.7,6,2.4,9.5,3.6,11.3
		c-1.2,1.5-2.8,3.7-4.6,5.3c0-0.1,0-0.1,0-0.2c-0.5-2.2-2.6-4.1-6-5.8l0,0c2.5-2.3,4.9-5.4,5.6-6.9l0-0.1l-5.5-2.1l-0.1,0.2
		c-1.8,5-4.1,9.6-6.6,13.2h-5.3l1.6,6l5-1.8v3.7c-1.1-0.3-3.4-0.8-4.5-1l-0.3-0.1l0,0.3c-0.1,3.7-0.5,9.2-1.7,13.3l0,0.2h0.3
		c1.4-1.8,4.3-5.4,6.2-11v11.8c0,0.2,0,0.9,0.7,0.9c0,0,3.4-0.2,3.8-0.3c0.5,0,0.7-0.3,0.7-0.9V32.7c0.6,1.5,1,3.4,1.1,6.2l0,0.3
		c0.1,1.2,0.6,1.8,1.6,2c0.1,0,0.2,0,0.3,0c0.6,0,1.3-0.3,1.9-0.8c0.4-0.4,1-1.2,1-2.5c0-1-0.3-2-1-3H99v10.1h-9.7v0.8h9.8h5.3h1.9
		h1.9h6c0.2,0,0.5-0.1,0.5-0.4c0.1-0.2,0-0.4-0.1-0.6c-0.6-0.6-4.4-3.8-4.6-3.9c-0.1-0.1-0.1-0.1-0.2-0.1c-0.2,0-0.3,0.2-0.5,0.4
		l-2.6,3.7h-2.3V35h1.1h1h6.5c0.2,0,0.4-0.1,0.5-0.3c0.1-0.2,0-0.3-0.1-0.5c-0.4-0.4-3.8-3.4-4.3-3.7c-0.1-0.1-0.2-0.1-0.3-0.1
		c-0.2,0-0.4,0.1-0.5,0.4l-2.4,3.5h-1.6v-6.4L99,27.2v7h-6.2l-0.1-0.1c-0.9-0.9-2.2-1.8-3.9-2.8l-0.1-0.1v-4
		c0.4-0.2,0.7-0.3,1.2-0.5c0,0.3,0,0.7,0.1,1.3c0.1,1.4,0.3,2.9,1.6,3.1c1.5,0.2,2.7-0.9,3.1-2.3c0,0,0-0.1,0-0.1
		c3.8-1.7,6.2-3.5,7-4.2c4,3.6,9.6,5.2,10.2,5.2c0.9,0,1-1.2,1.1-1.9C113.1,26.7,113.6,24.9,115.3,23.6 M143.6,20.9
		c0-0.2-0.5-2.3-2.9-4.7c-0.7-0.7-1.9-1.6-2.4-1.6c-0.1,0-0.3,0.1-0.3,0.2c-0.1,0.2,0,0.4,0,0.5c0.1,0.2,0.1,0.5,0.1,0.9
		c0,1.5-1.1,3.2-2,4.4c-1.9,2.6-6.5,5.7-11.1,8c0.2-4.4,0.8-12.6,0.8-12.6c0-0.8,0.1-1.5,0.3-1.8c0.3-0.4,0.3-0.7,0.3-0.9
		c0-0.3-0.1-0.6-0.2-0.8c-1-1.7-2.8-2.7-5-2.7c-0.9,0-1.7,0.3-2.6,0.8c-0.3,0.2-0.4,0.4-0.4,0.5c0,0.3,0.2,0.4,0.4,0.5
		c1.6,0.4,2.1,1.7,2.1,2.7c0,1.5-0.1,10.2-0.1,16.2c-1,0.4-2,0.8-2.9,1v0.4c1-0.2,1.9-0.3,2.8-0.5c0,2.4,0,4.3-0.1,4.9
		c0,1.2,0,2.7,0.3,3.8c1,3.8,4,5.7,9.9,6c1.4,0.1,3.5,0.1,5.1,0.1c2.3,0,4.7-0.1,7.2-0.4c0.7-0.1,2.5-0.4,3.4-1.4
		c0.5-0.7,0.8-1.8,0-2.8c-0.8-0.9-2.7-1.8-3.9-1.8c-0.3,0-0.9,0.1-1.1,0.2c-3,1-6.5,1.6-9.3,1.6c-1.4,0-3.3-0.1-4.5-0.4
		c-1.9-0.5-2.7-1.5-2.8-3.3c-0.1-1.9-0.1-2,0.1-7.4c5.2-1.3,9.6-2.8,12.6-4.1c0.9-0.4,3.3-1.6,5.2-2.9
		C143.6,22.9,143.8,22.1,143.6,20.9 M146.1,11.5c-0.9-0.5-2.9-1.3-5.2-1.6l-0.1,0.4c0.8,0.5,2.8,2,3.4,4.5c0.1,0.4,0.2,0.8,0.3,1.2
		c0.3,0.7,0.9,1.7,2.1,1.8c0.7,0.1,1.3-0.2,1.6-0.6c0.5-0.6,0.6-1.4,0.5-2C148.6,13.6,147.7,12.4,146.1,11.5 M152.8,10.9
		c-0.6-3.4-4.7-3.7-6.3-3.7c-1.1,0-2,0.2-2.3,0.3l-0.1,0.4c2.2,0.4,3.7,1.6,4.6,3.4c0.5,1,1.1,2,2.3,2.1
		C152,13.3,153,12.3,152.8,10.9 M152.9,23.3l0,0.3c2.7,1.5,4.2,3.6,5.3,5.1c0.2,0.3,0.4,0.5,0.6,0.8c0.4,0.6,1,1,1.7,1
		c1.3,0,2.3-1.3,2.3-3c0-0.7-0.2-1.4-0.6-2C160.7,23,156.3,22.3,152.9,23.3 M166.1,19.3c0.3-0.4,0.5-1,0.5-1.7
		c0.1-1.3-0.4-2.5-1.3-3.3c-1.8-1.5-5.5-2.1-9.1-1.2l0,0.3c3.1,1.6,4.3,3.3,5.6,4.9c0.3,0.4,0.5,0.7,0.8,1.1
		c0.4,0.5,1.1,0.8,1.7,0.8C165,20.3,165.6,20,166.1,19.3 M178.1,11.5c-0.9-0.5-2.9-1.3-5.2-1.6l-0.1,0.4c0.8,0.5,2.8,2,3.4,4.5
		c0.1,0.4,0.2,0.8,0.3,1.2c0.3,0.7,0.9,1.7,2.1,1.8c0.7,0.1,1.3-0.2,1.6-0.6c0.5-0.6,0.6-1.4,0.5-2
		C180.7,13.6,179.7,12.4,178.1,11.5 M184.8,10.9c-0.6-3.4-4.7-3.7-6.3-3.7c-1.1,0-2,0.2-2.3,0.3l-0.1,0.4c2.2,0.4,3.7,1.6,4.6,3.4
		c0.5,1,1.1,2,2.3,2.1C184.1,13.3,185.1,12.3,184.8,10.9 M188.3,16.2L188,16c-4,5.6-12.4,15.2-27.4,22.5c-0.8,0.4-1.6,0.6-2.2,0.6
		c-1,0-1.8-0.3-2.7-1l-0.8-0.7l-0.5,0.4l5.5,8c0.2,0.2,0.3,0.4,0.6,0.4c0.1,0,0.3,0,0.4-0.1c0.5-0.3,2.1-1.5,2.8-2.1
		c4.3-3.4,6.7-5.5,9.1-7.5l0.3-0.3C182.3,28.2,187.1,19.2,188.3,16.2 M212.7,6.1c0-0.6-0.1-1.4-0.6-2.4c-1.6-3-5.9-3.5-7.8-3.7
		c-0.8-0.1-1.8,0-1.8,0l-0.1,0.2l0.2,0.1c1.2,0.8,3.6,2.5,5.7,7c0.5,1,1.3,1.6,2.2,1.6c0.4,0,0.9-0.1,1.2-0.4
		C212.3,8.1,212.7,7.2,212.7,6.1 M221.5,31.8c0.3-0.7,0.5-1.4,0.5-2c0-2-1.1-3.6-2.2-4.4c-0.6-0.5-5.8-3.8-10.8-3.8
		c0.7-0.7,1.3-1.3,1.9-1.8c2.1-2.1,3.8-3.8,4.9-4.4c0.4-0.2,0.6-0.5,0.6-0.8c0-0.4-0.3-0.7-0.9-1.1c-2-1.2-3.6-2-5.1-2.5
		c-0.3-0.1-0.5-0.2-0.7-0.2c-0.2,0-0.4,0.1-0.6,0.2c0,0-0.1,0.1-0.1,0.1c-0.3,0.3-0.8,0.8-1.3,1c-4.5,1.2-9.4,2.1-12.6,2.3h-0.3
		c-0.8,0-1.8-0.2-2.6-1.1c-0.1-0.1-0.2-0.2-0.3-0.2c-0.2,0-0.3,0.1-0.3,0.3c-0.1,0.3-0.2,0.7-0.1,0.9c0,0.9,1.3,3.4,4,4.1l0.3-0.1
		c0.4-0.1,1-0.4,2.3-0.8c1.9-0.6,9.1-2.2,9.4-2.2c0,0,0.3-0.1,0.3-0.1s-0.2,0.2-0.3,0.4c-8.2,11.4-19.1,18.8-22.7,21.2l-0.1,0l0,0.3
		l0.1,0c7.9-2.5,14.3-7,19.3-11.1c0.1,1.4,0.1,3,0.1,4.6c0,4.9-0.3,9.2-0.6,12.8l0,0.6c0,0.7,0.1,1.7,0.5,2.4
		c0.6,1.1,1.7,1.6,2.5,1.6c1.5,0,2.2-2.4,2.2-3.7c0-3.2-0.1-6-0.2-8.8c-0.1-2.5-0.1-5.6-0.2-8.9c0-0.9,0.1-2.1,0.3-2.4
		c0.1-0.2,0.1-0.4,0.1-0.5c0-0.6-0.4-0.9-0.8-1.2c0,0,0.1-0.1,0.1-0.1c4.5,1.4,8.4,6.8,9.3,8.8c0.6,1.3,1.2,1.9,2.1,1.9
		C220.3,33.1,221.1,32.6,221.5,31.8 M258.1,36.5c-1.9-3.7-6.4-6.8-14.1-10c1.8-1.9,3.6-4,5.2-5.9l1.3-1.5c0.3-0.4,1-0.7,1.5-1
		c0.2-0.1,0.4-0.2,0.6-0.3c0.3-0.2,0.5-0.4,0.5-0.7c0.1-0.3-0.1-0.7-0.3-1c-1.2-1.4-2.6-2.7-4.2-3.9c-0.3-0.3-0.7-0.3-0.9-0.3
		c-0.3,0-0.6,0.1-0.8,0.2c-1.2,0.9-1.5,1-2.1,1.2c0,0-11.5,3-16.7,3.2h-0.5c-1.1,0-1.7-0.2-2.3-0.8c0-0.1-0.1-0.1-0.1-0.1
		c-0.1-0.1-0.2-0.2-0.3-0.2c-0.3,0-0.4,0.3-0.5,0.5c-0.1,0.3-0.1,0.5-0.1,0.8c0,3.4,4.3,4.5,4.8,4.6c0,0,0.6-0.2,1.6-0.7
		c1.9-0.9,4-1.9,5.4-2.2c2.5-0.7,4.3-1,6.1-1.4l0.1,0c0.7-0.1,1.3-0.3,2.1-0.4c0,0,0.2-0.1,0.3,0c0,0.1-0.1,0.3-0.1,0.4
		c-8,13.8-21,23.4-26.6,26.5l0.1,0.3v0c6.8-1.9,17.4-8.4,24.9-16.2c4,2.9,6.8,6.3,9.4,11.1c0.1,0.2,0.6,1.2,0.6,1.2
		c0.8,1.5,1.7,3.2,3.4,3.2c0.6,0,1.1-0.2,1.5-0.7C259,41,259.1,38.6,258.1,36.5"/>
	<g>
		<rect y="8.6" class="st1" width="37.7" height="37.7"/>
		<g>
			<g>
				<path class="st2" d="M12.6,19.3v-0.1c0.5-0.1,0.6-0.1,0.6-1v-1.4c0-0.7,0-0.8-0.6-0.8v-0.1H14c0.5,0,1.3,0,1.3,0.8
					c0,0.5-0.4,0.7-0.7,0.8v0c0.4,0.1,0.9,0.4,0.9,1c0,0.8-0.8,0.9-1.4,0.9H12.6z M13.8,18.3c0,0.4,0,0.8,0.4,0.8
					c0.3,0,0.6-0.3,0.6-0.7c0-0.6-0.5-0.9-1-0.9V18.3z M13.9,17.4c0.4,0,0.7-0.2,0.7-0.7c0-0.6-0.4-0.6-0.8-0.6L13.9,17.4L13.9,17.4
					z"/>
				<path class="st2" d="M17.8,15.8h1.4V16c-0.4,0.1-0.4,0.2-0.5,1.1l0,0.8c0,0.4,0,0.9-0.3,1.2c-0.3,0.3-0.7,0.4-1,0.4
					c-0.3,0-0.8-0.1-1-0.4c-0.3-0.3-0.3-0.8-0.3-1.2V17c0-0.9-0.1-0.9-0.6-1v-0.1h1.8V16c-0.6,0.1-0.6,0.3-0.6,1v0.7
					c0,0.3,0,0.7,0.1,1c0.2,0.3,0.5,0.4,0.8,0.4c0.7,0,0.8-0.6,0.8-1.2l0-1.2c0-0.5-0.2-0.5-0.6-0.6V15.8z"/>
				<path class="st2" d="M21.2,16.9H21c-0.1-0.4-0.2-0.9-0.6-0.9c-0.3,0-0.5,0.2-0.5,0.5c0,0.8,1.5,0.8,1.5,1.8c0,0.7-0.6,1-1.2,1
					c-0.3,0-0.6-0.1-0.9-0.3l-0.1-1l0.1,0c0.1,0.5,0.5,1.1,1,1.1c0.3,0,0.5-0.2,0.5-0.6c0-0.9-1.5-0.8-1.5-1.8
					c0-0.7,0.6-1.1,1.1-1.1c0.3,0,0.5,0.1,0.8,0.2L21.2,16.9z"/>
				<path class="st2" d="M22.8,18.2c0,0.9,0.1,0.9,0.6,1v0.1h-1.8v-0.1c0.5-0.1,0.6-0.1,0.6-1V17c0-0.9-0.1-0.9-0.6-1v-0.1h1.8V16
					c-0.5,0.1-0.6,0.1-0.6,1V18.2z"/>
				<path class="st2" d="M24.3,17c0-0.5,0-0.9-0.6-1v-0.1h1c0.6,0.8,1.3,1.7,2,2.5l0,0l0-1.6c0-0.6-0.1-0.7-0.7-0.8v-0.1h1.4V16
					C27,16,27,16.2,27,17.1v2.3l-0.2,0.1c-0.4-0.6-1.5-1.8-2.2-2.8c0,0.6,0,1.1,0,1.7c0,0.6,0.1,0.7,0.6,0.8v0.1h-1.5v-0.1
					c0.3-0.1,0.5-0.1,0.5-0.7V17z"/>
				<path class="st2" d="M28.9,17.7v0.7c0,0.5,0,0.8,0.6,0.8c0.6,0,0.8-0.4,1-1h0.1c0,0.4-0.1,0.8-0.2,1.2h-2.7v-0.1
					c0.5-0.1,0.6-0.1,0.6-1V17c0-0.9-0.1-0.9-0.6-1v-0.1h2.6l-0.1,0.9h-0.1c0-0.7-0.4-0.7-0.9-0.7h-0.3v1.3h0.4c0.4,0,0.6,0,0.7-0.5
					H30c0,0.4,0,0.9,0,1.3h-0.1c-0.1-0.5-0.3-0.5-0.7-0.5H28.9z"/>
				<path class="st2" d="M32.9,16.9h-0.1c-0.1-0.4-0.2-0.9-0.7-0.9c-0.3,0-0.5,0.2-0.5,0.5c0,0.8,1.5,0.8,1.5,1.8c0,0.7-0.6,1-1.2,1
					c-0.3,0-0.6-0.1-0.9-0.3l-0.1-1l0.1,0c0.1,0.5,0.5,1.1,1,1.1c0.3,0,0.5-0.2,0.5-0.6c0-0.9-1.5-0.8-1.5-1.8
					c0-0.7,0.6-1.1,1.1-1.1c0.3,0,0.5,0.1,0.8,0.2L32.9,16.9z"/>
				<path class="st2" d="M35.4,16.9h-0.1C35.2,16.4,35,16,34.6,16c-0.3,0-0.5,0.2-0.5,0.5c0,0.8,1.5,0.8,1.5,1.8c0,0.7-0.6,1-1.2,1
					c-0.3,0-0.6-0.1-0.9-0.3l-0.1-1l0.1,0c0.1,0.5,0.5,1.1,1,1.1c0.3,0,0.5-0.2,0.5-0.6c0-0.9-1.5-0.8-1.5-1.8
					c0-0.7,0.6-1.1,1.1-1.1c0.3,0,0.5,0.1,0.8,0.2L35.4,16.9z"/>
			</g>
			<g>
				<path class="st2" d="M18.2,12.4c0-0.5,0-0.9-0.6-1v-0.1h1c0.6,0.8,1.3,1.7,2,2.5l0,0l0-1.6c0-0.6-0.1-0.7-0.7-0.8v-0.1h1.4v0.1
					c-0.4,0-0.4,0.3-0.4,1.1v2.3l-0.2,0.1c-0.4-0.6-1.5-1.8-2.2-2.8c0,0.6,0,1.1,0,1.7c0,0.6,0.1,0.7,0.6,0.8v0.1h-1.5v-0.1
					c0.3-0.1,0.5-0.1,0.5-0.7V12.4z"/>
				<path class="st2" d="M22.8,13.6c0,0.9,0.1,0.9,0.6,1v0.1h-1.8v-0.1c0.5-0.1,0.6-0.1,0.6-1v-1.2c0-0.9-0.1-0.9-0.6-1v-0.1h1.8
					v0.1c-0.5,0.1-0.6,0.1-0.6,1V13.6z"/>
				<path class="st2" d="M31.8,13.1v0.7c0,0.5,0,0.8,0.6,0.8c0.6,0,0.8-0.4,1-1h0.1c0,0.4-0.1,0.8-0.2,1.2h-2.7v-0.1
					c0.5-0.1,0.6-0.1,0.6-1v-1.2c0-0.9-0.1-0.9-0.6-1v-0.1h2.6l-0.1,0.9h-0.1c0-0.7-0.4-0.7-0.9-0.7h-0.3v1.3h0.4
					c0.4,0,0.6,0,0.7-0.5H33c0,0.4,0,0.9,0,1.3h-0.1c-0.1-0.5-0.3-0.5-0.7-0.5H31.8z"/>
				<path class="st2" d="M34.9,13.6c0,0.9,0.1,0.9,0.6,1v0.1h-1.8v-0.1c0.5-0.1,0.6-0.1,0.6-1v-1.2c0-0.9-0.1-0.9-0.6-1v-0.1h1.8
					v0.1c-0.5,0.1-0.6,0.1-0.6,1V13.6z"/>
				<path class="st2" d="M24.9,13.6v-1.2c0-0.9,0.1-0.9,0.6-1v-0.1h-1.8v0.1c0.5,0.1,0.6,0.1,0.6,1v1.2c0,0.9-0.1,0.9-0.6,1v0.1h1.8
					v-0.1C24.9,14.5,24.9,14.5,24.9,13.6z"/>
				<path class="st2" d="M27.3,14.6c-0.2,0-0.4-0.1-0.6-0.4l-1.2-1.6l0.4-0.4c0.4-0.5,0.5-0.7,1-0.8v-0.1h-1.2v0.1
					c0.5,0.1,0.2,0.4-0.1,0.8L24.9,13l1,1.3c0.4,0.5,1,0.4,1.3,0.4V14.6z"/>
				<g>
					<path class="st2" d="M28.3,13.6v-1.2c0-0.9,0.1-0.9,0.6-1v-0.1h-1.8v0.1c0.5,0.1,0.6,0.1,0.6,1v1.2c0,0.9-0.1,0.9-0.6,1v0.1
						h1.8v-0.1C28.4,14.5,28.3,14.5,28.3,13.6z"/>
					<path class="st2" d="M30.7,14.6c-0.2,0-0.4-0.1-0.6-0.4l-1.2-1.6l0.4-0.4c0.4-0.5,0.5-0.7,1-0.8v-0.1h-1.2v0.1
						c0.5,0.1,0.2,0.4-0.1,0.8L28.4,13l1,1.3c0.4,0.5,1,0.4,1.3,0.4V14.6z"/>
				</g>
			</g>
		</g>
	</g>
</g>
</svg>
