<svg xmlns="http://www.w3.org/2000/svg" width="560" height="224"><defs><style>.cls-1{fill:#ff5064}.cls-2{fill:#fff}</style></defs><g id="レイヤー_2" data-name="レイヤー 2"><g id="レイヤー_1-2" data-name="レイヤー 1"><path class="cls-1" d="M555.33 0H89.6v53.76L67.2 28.29l-22.4 28.3V0H4.67C2.1 0 0 2.65 0 5.89v212.22c0 3.24 2.1 5.89 4.67 5.89h550.66c2.57 0 4.67-2.65 4.67-5.89V5.89c0-3.24-2.1-5.89-4.67-5.89z"/><path class="cls-2" d="M206.52 98.24v6.4h-42.47v-6.4zM233.71 81h13.93v10.61c0 .66.18.94.89.94 1.13 0 1.5-.89 1.79-4.37 2 1.41 2.68 1.78 4.61 2.11-.9 6.31-2 7-4.94 7h-3.76a3.4 3.4 0 01-3.77-3.67v-7.75H239c-.52 6.21-2.35 10.44-5.41 13.08a12 12 0 00-4.19-2.4v1.83c.66-.09 1-.09 1.79-.18a25.1 25.1 0 00-.42 4.46l-1.37.15v15.94c0 3.76-2.35 4.19-7.81 4.23a17.83 17.83 0 00-1.74-5.4 15.35 15.35 0 003.25.37c1.6 0 1.6-.56 1.6-2v-12.58c-.28 0-1.51.14-1.74.19V115h-3.81v-11.07l-1.37.14c0 7.3-1.69 15-3.48 18.87a8.72 8.72 0 00-4.84-2.35c2.54-4.52 3.48-11.06 3.67-16l-1.13.14c-.24.51-.47.94-.9.94-.23 0-.47-.29-.51-.57l-.9-5.36c.8 0 1.13 0 3.3-.09V84.32h4.51a36.7 36.7 0 001.65-4.94l5.88.61c.28.05.56.24.56.52 0 .47-.66.7-1.22.94-.19.42-1 2.45-1.13 2.87h6.16v11.52a12 12 0 004.28-9.69zm-15.9 18.34c3.86-.23 4.28-.28 6.92-.47v-9.75h-6.92zm4.38-9.07A54 54 0 01224 97a31 31 0 00-4.14.9 30.58 30.58 0 00-1.86-6.81zm9.69 14.53v-5.19h18l2 2.16a33.81 33.81 0 01-6.68 12.09 25.48 25.48 0 008.61 4.23 26.54 26.54 0 00-3 4.75 43.12 43.12 0 01-9.27-5.36 25.85 25.85 0 01-8.74 5.22 15 15 0 00-3.34-4.94c1.22-.23 4.09-.84 8-4a27.64 27.64 0 01-4.66-6.72l3.25-2.26zm5.78 0a19.57 19.57 0 003.58 5.46 19.17 19.17 0 003.34-5.46zm40.88-14.6a36.89 36.89 0 01-.09-3.72h-10.21v-5.74h16.51c-.05 1.09-.19 5.84-.19 6.82 0 4.76 0 20.23 17.92 31.38a16.36 16.36 0 00-5.12 4.33c-7.91-5.41-15.85-15.15-17.88-25.07-1.55 5.78-5.45 16.08-18.2 25.11a17.61 17.61 0 00-4.8-4.42c15-9.83 17.45-21.26 18.53-29.4zm46.85 18.91a41 41 0 01-6.21 6.11 9.85 9.85 0 00-3.81-2.77 34.18 34.18 0 004.05-3.29c-5.93 2.54-11.24 4.28-12 4.56-.09.61-.14 1.22-.75 1.22s-.56-.61-.7-1.08l-1.41-5.5a40.93 40.93 0 005.73-1.27V95.33H305v-5.18h5.26V80.08l5.79.33c.56 0 1 0 1 .57 0 .33-.23.56-1 .85v8.32h4.85v5.18h-4.85v9.92a34.33 34.33 0 005.13-2.16 14 14 0 00-.47 4.65 31.75 31.75 0 003.52-4.84h-4.79v-4.09h28.41v4.09h-18.32a18.22 18.22 0 01-1 1.74h18.62c0 2.73-.09 12-2.44 15.8-1.27 2.07-4.24 2.45-6.45 2.45-.61 0-1 0-1.74-.09a17 17 0 00-1.69-5.18 37.55 37.55 0 01-5.79 5.84c-.94-1-1.6-1.46-4.18-2.69a34.54 34.54 0 0010.39-11.66h-2a42.6 42.6 0 01-5.32 6.77 27.88 27.88 0 01-8.09 6.16 11.28 11.28 0 00-3.57-3.24 28.62 28.62 0 0011.38-9.69zm18.73-11.9H323V80.88h21.17zm-5.18-9.93v-2.16H328.5v2.16zm-10.44 3.53v2.3h10.44v-2.3zm11.57 18.3a44.51 44.51 0 01-4.89 8.09 28 28 0 003.1.28c1.27 0 1.88-.28 2.31-1.79a25.94 25.94 0 001-6.58zm54.85-12.89v5.13h-7.2A25.91 25.91 0 00396 106a17.43 17.43 0 00-3.48 4.42 23.51 23.51 0 01-5.88-3.33c-.09 1.69-.42 10.39-2.25 13.07-1.6 2.31-4.66 2.45-8.85 2.59a9.11 9.11 0 00-1.79-5.6c.66 0 2.07.24 3.16.24 2.35 0 3.66 0 4-7.39h-6.39c-3.58 9.55-11.76 12.37-17.31 13a11.2 11.2 0 00-2.73-5c4.61-.57 10.63-1.37 14.11-8h-7v-2.73a31.24 31.24 0 01-6.63 3.72 15.74 15.74 0 00-4.05-4.19 23.28 23.28 0 009.55-5.45h-8.28v-5.13h12.61c.56-.89 1.08-1.84 1.6-2.82h-10.8v-5.08h6a34 34 0 00-4.59-6.21l4.94-2.4a28 28 0 015.31 6.82 25.08 25.08 0 00-3.67 1.79h4.71a35.65 35.65 0 001.6-8.66l6.21.52c.23 0 .7 0 .7.52s-.47.65-1.17.89a63.7 63.7 0 01-1.42 6.73h7.16a28.52 28.52 0 00-3.25-1.41 25.63 25.63 0 004.33-7.34l5.69 2.11a.67.67 0 01.52.62c0 .51-.62.56-1.27.65a47.48 47.48 0 01-3.3 5.37h7.62v5.08H381a22.26 22.26 0 001.83 2.82zM383.87 105a29 29 0 01-3.67-3.62h-12.56a30.76 30.76 0 01-3.34 3.62zm-7.11-8.75a28 28 0 01-1.41-2.82h-3c-.24.51-.52 1.17-1.37 2.82zM157.07 34.81a9.79 9.79 0 01-.58 3.29 8.89 8.89 0 01-1.87 3 9.49 9.49 0 01-3.49 2.25 14 14 0 01-5.17.86h-6v11.38h-9.14V25.27H146a13.82 13.82 0 015.17.88 9.4 9.4 0 013.49 2.27 8.86 8.86 0 011.87 3 10.18 10.18 0 01.54 3.39zm-9.32 0a3.22 3.22 0 00-1.28-3 9.32 9.32 0 00-4.58-.8H140v7.39h2a16.33 16.33 0 003.5-.29 2.85 2.85 0 001.77-1 3.74 3.74 0 00.48-2.26zM191.49 42a14 14 0 01-1.49 6.64 11.8 11.8 0 01-3.81 4.36 16.52 16.52 0 01-5.19 2.28 22.22 22.22 0 01-5.52.7 21.8 21.8 0 01-7.48-1.31 13.24 13.24 0 01-6.09-4.46 13 13 0 01-2.45-8.2V25.27h9.12v14.37a12.29 12.29 0 00.86 5 6 6 0 002.41 2.86 7.63 7.63 0 007.21 0 5.85 5.85 0 002.41-2.84 12.18 12.18 0 00.87-4.94V25.27h9.14zm32.63 5a7.89 7.89 0 01-2.68 6.26c-1.79 1.56-4.28 2.34-7.49 2.34h-17.52V25.27h14.65a19.67 19.67 0 015 .55 9.74 9.74 0 013.4 1.5 6.08 6.08 0 011.92 2.24 6.21 6.21 0 01.64 2.82 7.14 7.14 0 01-.66 3.07 7.35 7.35 0 01-1.63 2.32 6 6 0 01-2 1.28 12 12 0 014.74 3.1 7.07 7.07 0 011.63 4.85zm-10.68-13a2.93 2.93 0 00-1.44-2.91 10.6 10.6 0 00-4.51-.72h-1.92v7.26h2a10.47 10.47 0 004.52-.72 3 3 0 001.35-2.91zm1.49 12.62q0-3.88-5.64-3.89h-3.72v7.76h3.72q5.64 0 5.64-3.87zm35.85 8.97h-23V25.27h9.15v23.06h13.89zm12.22 0h-9.1V25.27h9.1zm32.6-2.28a21.23 21.23 0 01-3.85 1.58 24.83 24.83 0 01-4 .84 32.66 32.66 0 01-4.14.25 21.47 21.47 0 01-7.1-1.09 15.32 15.32 0 01-5.45-3.23 13.55 13.55 0 01-3.45-5 16.62 16.62 0 01-1.15-6.27 16.31 16.31 0 011.35-6.86 13.31 13.31 0 013.8-4.89 16 16 0 015.55-2.87 22.9 22.9 0 016.58-.93 35.81 35.81 0 0111.7 2.29v8.07a32.29 32.29 0 00-4.44-2.33 13.22 13.22 0 00-5.17-.93 11.75 11.75 0 00-5 1.05 9.09 9.09 0 00-3.69 3 7.54 7.54 0 00-1.4 4.55 7.63 7.63 0 001.26 4.21 8.66 8.66 0 003.4 3 10.54 10.54 0 004.91 1.13 15.69 15.69 0 004.18-.54 19.33 19.33 0 003.32-1.19c.89-.44 1.81-1 2.76-1.55zM341.74 41a14.44 14.44 0 01-1.69 7.48 16 16 0 01-4 4.57q-3.26 2.56-9.12 2.56h-16.36V25.27h12.6a33.81 33.81 0 014.87.3 20.58 20.58 0 013.64.83 14.35 14.35 0 012.76 1.2 15.19 15.19 0 012 1.43 14.21 14.21 0 012.72 3 14.74 14.74 0 011.86 4 17 17 0 01.72 4.97zm-9.3-.4a10.13 10.13 0 00-1.44-5.78 6.92 6.92 0 00-3.39-2.77 12.16 12.16 0 00-4-.7h-3.9v18h3.9a11.2 11.2 0 006.21-1.7q2.63-1.75 2.62-7.07zm46 14.99h-9.36l-2.48-6.15h-13.16l-2.52 6.15h-9.36L355 25.27h10.1zM364.5 44.17l-4.44-11.07-4.48 11.07zm45.3-18.9L397.92 41.7v13.89h-9.14V41.87l-12.1-16.6h9.49l7 9.54 7-9.54zm23.02 21.5a8.39 8.39 0 01-1.45 4.93 9.23 9.23 0 01-4.06 3.18 15.07 15.07 0 01-6 1.1q-.94 0-2.31-.12a26.56 26.56 0 01-3.63-.66 29.29 29.29 0 01-4.71-1.62v-7.44a32.11 32.11 0 004.51 2.36 12 12 0 004.76.94c1.56 0 2.57-.26 3-.77a2.29 2.29 0 00.69-1.46 2.49 2.49 0 00-1.18-2.07 16.44 16.44 0 00-3.44-1.73 27.35 27.35 0 01-4.37-2.29 10.31 10.31 0 01-3.07-3.1 7.91 7.91 0 01-1.2-4.39 8.37 8.37 0 011.21-4.43 8.28 8.28 0 013.73-3.2 13.9 13.9 0 016-1.18 20.91 20.91 0 014.69.49 20.53 20.53 0 013.56 1.1 15 15 0 011.92 1v7.11a25 25 0 00-4.14-2.38 11.61 11.61 0 00-4.89-1.05 3.74 3.74 0 00-2.47.66 2 2 0 00-.77 1.61 2 2 0 00.77 1.56 13.05 13.05 0 002.73 1.59 55.08 55.08 0 015.6 3 10.87 10.87 0 013.29 3 7.26 7.26 0 011.23 4.26zM56 66.81h448v2.24H56zM46.67 168.1h466.67v42.72H46.67z"/><path class="cls-1" d="M132 187v3.29h-17.68V187zm9.71 8a7.16 7.16 0 003-1.41 12 12 0 01-1.71-2.39l1.28-.9h-1.65v-2.61h7.61l.92 1a15.13 15.13 0 01-2.71 4.9 9 9 0 003.35 1.55 14.1 14.1 0 00-1.41 2.36 18.55 18.55 0 01-3.7-2.12 10.43 10.43 0 01-3.51 2 7.09 7.09 0 00-1.49-2.3v.63c0 1.63-1.12 1.77-3.41 1.79a9.21 9.21 0 00-.89-2.65 5.14 5.14 0 001.36.2c.66 0 .66-.26.66-.83v-4.74a4.08 4.08 0 01-.53.06v4.68h-1.62v-4.51a2.71 2.71 0 01-.4 0 24.21 24.21 0 01-1.35 7.57 4.08 4.08 0 00-2.35-1.14 18.89 18.89 0 001.41-6.17.85.85 0 01-.22 0c-.13.25-.25.41-.41.41a.22.22 0 01-.19-.2l-.46-2.63h1.22v-6.29h1.84c.14-.33.45-1.14.71-2l2.9.27a.21.21 0 01.2.18c0 .18-.36.39-.49.43-.14.3-.34.79-.47 1.08h2.49v4.53a4.69 4.69 0 001.49-3.69V180h6.11v4.27c0 .22 0 .37.22.37.35 0 .47-1.11.53-1.72a5.09 5.09 0 002.25 1c-.37 2.53-.66 3-2 3h-2a1.46 1.46 0 01-1.56-1.61v-2.92h-.93a7.86 7.86 0 01-2.15 5.06 5.19 5.19 0 00-2-1.18v.8c.25 0 .59 0 .7-.07 0 .41-.08 1.66-.1 2.15h-.6zm-4.83-10.67l1.89-.35c.19.61.58 2.13.66 2.64v-2.9h-2.55zm0 3.18c.65 0 1.89-.12 2.55-.18v-.59a14.1 14.1 0 00-2 .39 12.19 12.19 0 00-.57-2.39zm8.65 2.8a7.21 7.21 0 001 1.53 6.83 6.83 0 00.94-1.53zm15.47-8.17a.31.31 0 01.16.26c0 .16-.14.2-.24.23s-.25.06-.35.1a19.87 19.87 0 01-5.35 7 6.61 6.61 0 00-2.41-2 14.61 14.61 0 005.43-6.92zm4.36 6.36a45.85 45.85 0 015.11 7.49 7.29 7.29 0 00-2.74 1.61 17.55 17.55 0 00-.85-1.73c-4.35.63-8.9 1-10.92 1.12 0 .13-.06.53-.35.53s-.27-.14-.33-.43l-.67-2.87 2.12-.06a66 66 0 003.63-9l3 1c.1 0 .28.1.28.3s-.39.29-.59.31c-.39 1-1.69 4.28-3.23 7.24.49 0 3.56-.28 5.62-.53a42.284 42.284 0 00-2.43-3.34zm1.49-8.4c.54 3.51 2.21 5.28 5.11 7.3a5.22 5.22 0 00-2 2.1 13.9 13.9 0 01-5.55-6.87h-2.9v-2.53zm18.45 12.75v4.22h-2.49v-4.22h-1.45a7.44 7.44 0 01-3 4.63 5.64 5.64 0 00-2.2-1.45v1.41h-2.8V180h8.21v6.82h-5.41V196a4.66 4.66 0 002.71-3.16h-2v-2.18h2.27v-1.15h-1.8v-2.06h9.51v2.06h-1.55v1.15h2v2.18zm-6.3-10.92h-2.79v.72H179zm0 2.21h-2.79v.75H179zm3.86 5.38h-1.22v1.15h1.26zm4.19 8a6.77 6.77 0 00-1-2.87 5.86 5.86 0 001.14.16c.37 0 .79 0 .79-.69v-7.31h-5.45V180h8.25v15.25c-.09 1.82-1.21 2.29-3.78 2.27zm.89-15.59h-2.83v.72h2.83zm0 2.21h-2.83v.75h2.83zm13.92 10.04a6.27 6.27 0 005.51-6.11 4.65 4.65 0 00-4.53-4.81c-.61 7.18-3.57 12.53-5.65 12.53-1.53 0-4.37-2.59-4.37-6.21a9.62 9.62 0 019.61-9.14c4.29 0 8 2.92 8 7.61a9.1 9.1 0 01-2.32 6 10.82 10.82 0 01-4.21 2.95 12.82 12.82 0 00-2.04-2.82zm-6.14-4.84c0 1.51.84 2.65 1.26 2.65s.84-.89 1.06-1.39a17.27 17.27 0 001.51-6.75 6.66 6.66 0 00-3.83 5.49zm24.95-5.34v-1.3h-4.29v-2.88h7.49c0 .51-.14 2.77-.14 3.22a14.38 14.38 0 007.2 12.59 7.74 7.74 0 00-2.57 2.13 18.53 18.53 0 01-7.1-9.88 17.65 17.65 0 01-7.41 9.9 8.26 8.26 0 00-2.41-2.19c6-3.87 7.06-8 7.59-11.91zm19.54 8.09a13.75 13.75 0 01-2.31 2.37 5 5 0 00-1.84-1.32c.35-.27.65-.49 1.1-.88-1.22.53-2.71 1.1-4.3 1.63 0 .23-.08.51-.29.51s-.28-.26-.32-.45l-.66-2.77a15.25 15.25 0 002.21-.41v-4.45h-2v-2.55h2v-4.08l2.91.16c.23 0 .41 0 .41.22s-.12.23-.41.37v3.33h1.74v2.55h-1.74v3.57c.47-.2.76-.31 1.23-.53h-.14v-2h11.88v2h-7.58l-.38.63h7.83c0 2-.06 5.9-1.34 6.9a5.45 5.45 0 01-3.23.65 5.92 5.92 0 00-.53-2.12 15.13 15.13 0 01-2.33 2.45 5 5 0 00-2.08-1.26 13.53 13.53 0 004.13-4.52h-.88a13.69 13.69 0 01-5.15 5.19 5.27 5.27 0 00-1.73-1.57 11.94 11.94 0 004.57-3.62zm-1.78-2.73a8.37 8.37 0 00-.14 1.74 12.39 12.39 0 001.2-1.74zm9.88-2.63h-9.15v-6.9h9.15zm-2.64-4.19v-.67h-3.87v.67zm-3.87 1.56v.67h3.87v-.67zm4.63 8a20.94 20.94 0 01-1.55 2.72h.69c.39 0 .74 0 .88-.49a9.88 9.88 0 00.35-2.27zm22.85-5.8v2.47h-2.21a8.27 8.27 0 002.72 1.47 8.25 8.25 0 00-1.62 2.1 8.23 8.23 0 01-2.16-1.2c-.06 1.47-.24 4.75-1.1 5.51s-2.41.77-3.62.75a4.16 4.16 0 00-.79-2.71c.65.06 1 .1 1.28.1.78 0 1.35 0 1.43-2.41h-2.1a8.88 8.88 0 01-7.49 5.18 5.36 5.36 0 00-1.32-2.46c2.38-.15 4.46-.68 5.75-2.72h-2.65v-1.16a11.11 11.11 0 01-2.62 1.45 7.82 7.82 0 00-1.91-2.06 12.47 12.47 0 003.49-1.84h-2.88v-2.47h5a8 8 0 00.47-.92h-4.1V183h1.67a9.34 9.34 0 00-1.8-2.24l2.51-1.25a12.59 12.59 0 012.27 2.74 12.35 12.35 0 00-1.5.75h1.88a14.37 14.37 0 00.59-3.51l3.08.23c.1 0 .29 0 .29.24s-.21.25-.51.37c-.11.74-.25 1.55-.52 2.67h3c-.48-.22-1.07-.43-1.52-.59a10.13 10.13 0 001.58-3l2.85 1.08c.06 0 .21.11.21.23s-.15.24-.55.28a21.14 21.14 0 01-1.17 2H268v2.35h-3.92a7.4 7.4 0 00.59.92zm-4.84 3.61c-.67-.61-1-1-1.14-1.14H258a14.61 14.61 0 01-1 1.14zm-2.78-3.61a6.5 6.5 0 01-.43-.92H260a9.84 9.84 0 01-.43.92zm15.18-4.2a19.46 19.46 0 012.18 2.1 5.26 5.26 0 00-1.41 1.3h4.08v-.65H279v-1.61h2.65v-.64h-3.82v-1.87h3.82v-1.25l2.92.17c.18 0 .37 0 .37.26s-.17.29-.37.39v.43h4.23v1.87h-4.23v.64h3.12v1.61h-3.12v.65h4.63v1.82h-12v-1.51a9.34 9.34 0 00-.83-1.08v12.73h-2.86v-13.63a.67.67 0 01-.31.08 23.56 23.56 0 01-.81 4.78 7.78 7.78 0 00-2.19-.92 16.72 16.72 0 00.8-4.76l2.26.29a1.29 1.29 0 01.25.06v-3.8l3 .15c.12 0 .33.06.33.26s-.23.35-.51.47v2zm4.32 12.4v3h-2.88V188h10.09v7.31c0 1.41 0 2.35-3.6 2.24a6.55 6.55 0 00-1-2.49c.62.09 1.21.13 1.33.13.43 0 .43-.1.43-.72zm4.37-3.92v-.83h-4.37v.83zm0 2.37v-.83h-4.37v.88zm10.93-1.16h2.69v2.31h-2.69v3.48h-2.62v-3.48h-2.71v-2.31h2.71v-.94h-3v-2.31H292a7 7 0 00-.54-1.45l1.52-.44h-2.51v-2.29h3.38v-.92h-2.42v-2.2h2.42v-1.63l2.76.14a.25.25 0 01.28.22c0 .17-.2.31-.42.45v.82H299v2.2h-2.53v.92h3v2.29h-2.25l1.31.28c.18 0 .36.08.36.27s-.16.28-.51.3c-.18.47-.36.88-.44 1h1.4v2.31h-2.87zm-2.46-5.14a13.82 13.82 0 01.67 1.67l-.69.22h1.47a9.32 9.32 0 00.63-1.89zm8.67 10.93h-2.75V180h8a43.5 43.5 0 01-.11 5c-.24 1.29-1.44 1.66-3.55 1.68a5.83 5.83 0 00-1-2.7 4.42 4.42 0 001.23.13c.67 0 .75-.13.75-.88v-.76h-2.57v4.64h4.61l1.31 1.38a26.18 26.18 0 01-1.9 5.25 11.41 11.41 0 002.31 2.18 9.53 9.53 0 00-2.17 1.76 18.53 18.53 0 01-1.57-1.6 7.73 7.73 0 01-1.18 1.41 6.75 6.75 0 00-1.41-1.14zm1.69-8a8.92 8.92 0 00.6 1.79 9.59 9.59 0 00.59-1.88h-2.88v1.15zm-1.69 5.65a12.14 12.14 0 001-1.35 10.62 10.62 0 01-1-2.16zm12.61-14.13c.16.06.25.14.25.28s-.37.27-.54.29a27 27 0 00-1.18 7.55 13.62 13.62 0 00.14 2l.92-1.39a8 8 0 001.41 1.94 8.72 8.72 0 00-1.63 4.81L312 197a28 28 0 01-1-7.91 35.35 35.35 0 011.17-9zm9.31-.43c.1 0 .26 0 .26.22s-.28.29-.45.31a21.5 21.5 0 00-.2 2.36 17.47 17.47 0 002.9-.73v3c-.45.12-1.35.33-3 .63a31.14 31.14 0 00.32 4.51 10.79 10.79 0 013.72 2c-.31.57-.9 1.84-1.33 2.76a7.1 7.1 0 00-2.1-1.49c-.08 2.51-2.59 2.81-3.82 2.81-2.94 0-4.41-1.61-4.41-3.43 0-2.34 2.31-3.22 4.86-3.16-.16-2.24-.18-2.49-.22-3.63-1.12.1-1.92.1-2.25.1a14.14 14.14 0 01-1.45-.06v-3.08a20.26 20.26 0 003.68.14v-3.82zm-4.06 12.16c-.43 0-1.37.14-1.37.75s.65.72 1.28.72c.15 0 1.33 0 1.33-1a.49.49 0 000-.25 2.73 2.73 0 00-1.24-.22zm15.64-2.92a5.09 5.09 0 00-1.76 2.47.76.76 0 00.39.63 12.63 12.63 0 003.9.43 26.05 26.05 0 007.57-1 21.75 21.75 0 00.57 3.25 41.29 41.29 0 01-8.31.79c-4.49 0-7.38-.83-7.38-3.81 0-1.68 1.38-3.17 2.93-4.49zm9.38-6.84a18.7 18.7 0 00-6.18 3.88l-1.75-2a8.41 8.41 0 001.4-1.18c-.49 0-1.71.12-3.49.12a24 24 0 01-2.65-.12l-.16-3.23a35 35 0 005.92.43 26.59 26.59 0 005.32-.43zm13.34-2.89c.16 0 .37.12.37.32s-.09.25-.43.27c-.43 1.33-.47 1.47-.57 1.77a30.5 30.5 0 006.4-1.55c.09.65.35 2.13.54 2.92a34.27 34.27 0 01-8 1.67c-.47 1.29-.62 1.68-1 2.64a11.61 11.61 0 015.09-1.33c5.24 0 5.51 3.69 5.51 4.67a4.85 4.85 0 01-2.1 4c-1 .7-3 1.88-8.43 1.88a17.61 17.61 0 01-1.82-.1 13.58 13.58 0 00-.73-2.92 28.43 28.43 0 002.93.18c.45 0 3.8 0 5.82-1.2a2 2 0 001.06-1.84c0-1.14-.59-2.1-2.39-2.1a10.07 10.07 0 00-6.79 3.27l-2.82-1.41a27.93 27.93 0 002.61-5.51c-1.71 0-3.06-.06-3.81-.12v-3.21a18.29 18.29 0 004.75.43 25.68 25.68 0 00.74-3.47zm17.54 3.82c.14 0 .3.07.3.25s-.24.26-.46.28A13.06 13.06 0 00375 188a10.85 10.85 0 015.73-1.83 4.75 4.75 0 015 4.83c0 3.74-3.53 6.31-10 6.31h-1.44a10.65 10.65 0 00-.92-3.29 11.05 11.05 0 002.91.29c4.45 0 6.21-1.66 6.21-3.31 0-.57-.27-2-2.29-2-2.81 0-4.85 1.8-6.26 3.21l-2.8-1a45.78 45.78 0 012.06-8.11zm-1.08-4.59a19.7 19.7 0 016.59 2.17 25.58 25.58 0 00-1.76 2.87 17.4 17.4 0 00-5.85-2.41zm22.7 1.23c.22.05.39.11.39.29s-.41.31-.53.31c-.29 1.34-.41 1.85-.55 2.36 1.69 0 4.49.05 4.49 4.8a13 13 0 01-2 7.25A3.35 3.35 0 01397 197a10.34 10.34 0 01-2.08-.22 5.74 5.74 0 00.06-.72 15.13 15.13 0 00-.29-2.63 3.3 3.3 0 001.7.43 1.5 1.5 0 001.16-.37c.67-.59 1.3-2.79 1.3-5.22 0-2-1.42-1.9-2.26-1.84a29.62 29.62 0 01-5 10.35 14.06 14.06 0 00-2.88-1.55 23.36 23.36 0 004.66-8.21 19.33 19.33 0 00-3.11 1l-1.08-3.16c.8-.16 4.29-.88 5-1a30.51 30.51 0 00.61-4.29zm5.29 1c2.16 2.42 3.53 5.69 3.53 7.24a2 2 0 01-1.39 2.08 7.55 7.55 0 01-2 .61 15.48 15.48 0 00-1.14-2.63c.53-.12 1.26-.28 1.26-.9a7.77 7.77 0 00-1-2.69 14.66 14.66 0 00-1.67-2.18zm12.29 2.36c.14 0 .29.07.29.25s-.23.26-.45.28a13.06 13.06 0 00-1.29 3.39 10.82 10.82 0 015.73-1.83 4.75 4.75 0 015 4.83c0 3.74-3.52 6.31-10 6.31h-1.44a10.65 10.65 0 00-.92-3.29 11 11 0 002.9.29c4.46 0 6.22-1.66 6.22-3.31 0-.57-.27-2-2.29-2-2.81 0-4.85 1.8-6.26 3.21l-2.8-1a45.78 45.78 0 012.06-8.11zm-1.08-4.59a19.7 19.7 0 016.59 2.17 25.58 25.58 0 00-1.76 2.87 17.4 17.4 0 00-5.85-2.41zm23.9 1.2v4.57l-.71 5.77h-1.88l-.73-5.77v-4.57zm-3.3 12.14h3.3v3.32h-3.3z"/><path class="cls-2" d="M186.53 150.38l-1.16 2.3-13.64-6.77 13.64-6.76 1.16 2.3-9 4.46zm12.22-12.79c.21 0 .36 0 .36.23s-.09.19-.36.34c-.09.38-.17.61-.3 1.09h8.37v2.41h-9.32a14.61 14.61 0 01-.71 1.33h7.87v9.67c0 1 0 2.51-4.29 2.24a7.41 7.41 0 00-.82-2.75 5.71 5.71 0 001.48.34c.74 0 .74-.31.74-.67V151h-5.45v3.91h-2.85v-7.77a12.83 12.83 0 01-2.24 1.67 6 6 0 00-2.07-1.76 12.55 12.55 0 005.39-5.38h-5v-2.41h6a12.07 12.07 0 00.4-2zm3 8.51v-.75h-5.45v.75zm-5.45 2v.9h5.45v-.81zm17.96 6.71h-2.65v-4.13a11.55 11.55 0 01-1.48 1.9 7.24 7.24 0 00-2.24-1.57 11.74 11.74 0 003.5-5.28h-2.89v-2.46h3.11v-1.38a11.56 11.56 0 00-2.16 1 12.94 12.94 0 00-1.1-3.37l2.11-.76a17.7 17.7 0 011.15 2.91v-4.33l2.59.15c.25 0 .53 0 .53.3s-.3.36-.47.42v5.07h2.6v2.46h-2.34a11.08 11.08 0 002.45 2.69 6.27 6.27 0 00-1.38 1.83 13.62 13.62 0 01-1.33-1.24zm3.36-15.58c.17 0 .38.11.38.25s-.25.28-.42.37a23.32 23.32 0 01-1 3 5.75 5.75 0 00-2.09-.74 30.65 30.65 0 001-3.44zm8 7.62l.46 2.31-1.9.5v5.11h-2.7v-4.39L217 151.6l-.43-2.44 5-1.27v-6.65a9.32 9.32 0 00-1.5 1.58 17.7 17.7 0 00-2.35-2.32l1.57-1.8a15.12 15.12 0 012.28 2.16v-3.47l2.68.22c.15 0 .42 0 .42.25s-.21.28-.4.4v9zm-6.62-3.59a15.79 15.79 0 012.43 2.64c-.48.47-1 1-1.66 1.74a14.35 14.35 0 00-2.33-2.62zm9 11.53l-.47-.48 16.73-16.73.48.47zm24.94-12.54c.11 0 .27.09.27.26s-.18.25-.63.35a22.34 22.34 0 01-3.91 8.07 9.73 9.73 0 00-2.84-1.37 15.83 15.83 0 003.08-4.82 15.46 15.46 0 001.08-3.46zm3.91-4.69c.17 0 .38 0 .38.22s-.09.25-.32.4v14a2.15 2.15 0 01-1.41 2.4 7.87 7.87 0 01-3 .32 8.66 8.66 0 00-1.19-3 9.83 9.83 0 001.94.21c.56 0 .7-.08.7-.69V137.4zm3.57 3.47a58.91 58.91 0 014.05 9.14 11.74 11.74 0 00-2.89 1.39 52.43 52.43 0 00-3.8-9.37zm15.26 9.5V153c0 2-1.44 2-4.79 2a6.73 6.73 0 00-.79-2.62h2.09c.7 0 .7-.09.7-1.06v-.8h-7.3v-2.3h7.3V147l.89.09a9.29 9.29 0 001-1h-5.6v-2.26h9.13l1.11 1.36a20 20 0 01-3.42 3.06h6.76v2.3zm-2.6-9.76a12.2 12.2 0 00-1.88-2.61l2.45-1.06a13.19 13.19 0 011.94 2.75c-.27.16-1.52.78-1.77.92h2.64a18.92 18.92 0 001.94-3.21l2.68.81c.09 0 .32.14.32.33s-.3.28-.65.34c-.49.85-.62 1-1.08 1.73h2.89v5h-2.68v-2.87h-11.47v2.87h-2.63v-5h2.64a11.63 11.63 0 00-1.5-2.11l2.32-1.14a9.76 9.76 0 011.84 2.58c-.81.44-1 .53-1.21.67zm18.92.11v-3.48l2.85.08c.29 0 .44.06.44.27a.45.45 0 01-.13.26 1.62 1.62 0 01-.17.19v2.68h6.15v2.55H295v2.66h4.39v2.52H295V152h6.93v2.48H284.5V152h7.5v-3.37h-4.31v-2.52H292v-2.66h-3.85a17.75 17.75 0 01-1.9 2.87 8.23 8.23 0 00-2.49-1.33 17.64 17.64 0 003.67-7.26l2.64.78c.21 0 .42.15.42.36s-.29.28-.42.28a32.6 32.6 0 01-.71 1.75zm11.12 9.4l1.84-.57v-12l3.19.25a.36.36 0 01.35.32c0 .27-.37.38-.48.42v10.09c1.22-.4 3.65-1.3 4.73-1.75a8 8 0 00-.11 1.38 7 7 0 00.11 1.35 161 161 0 01-7.79 3c-.15.27-.26.46-.44.46s-.24-.17-.3-.28zm16.79-12.48a.28.28 0 01.31.29c0 .26-.27.36-.44.42 0 5.81-.74 8.72-1.63 10.5a15.93 15.93 0 013 3.44 20.1 20.1 0 00-2.19 2.11 15.73 15.73 0 00-2.45-3.17 10.85 10.85 0 01-5.93 3.47 7.38 7.38 0 00-1.76-2.37 9.1 9.1 0 005.58-3c.78-.92 2.42-2.81 2.42-9.14a24.77 24.77 0 00-.14-2.68zm-8.07.31a18 18 0 013.32 4.29 17.22 17.22 0 00-2.52 1.69 16.24 16.24 0 00-3.16-4.25zM332 142c.93.59 2.16 1.39 2.71 1.82 2.78 2.23 3.06 2.45 3.63 3.12a23.6 23.6 0 00-2.2 2.45 19.52 19.52 0 00-4.14-3.84v9.25h-3v-14h-6.4v-2.77h17.38v2.77H332zm24.09 8.06h-13.87v-2.19h1.83v-2.34h-2.61v-2.18h2.61V142c-.4.38-.61.55-.88.78a8.41 8.41 0 00-2.41-1.31 14.12 14.12 0 003.84-4.35l2.71.89c.1 0 .19.09.19.21s-.3.3-.43.34-.14.17-.19.25h11.17v2.35h-1.73v2.15h2.56v2.18h-2.56v2.34h2v2.19h-2.18a19.75 19.75 0 013 3.49 19.22 19.22 0 00-2.38 1.52 15.23 15.23 0 00-2.76-3.53zm-9.9 1.17c.17.1.32.17.32.35s-.13.22-.47.28a18.48 18.48 0 01-2.47 3.38 6.16 6.16 0 00-2.34-1.52 10 10 0 002.83-3.55zm.1-7.88h1.1v-2.15h-1.1zm0 4.52h1.1v-2.34h-1.1zm2.73 2.72a12.6 12.6 0 011.22 3.72 17.78 17.78 0 00-2.78.74 14.82 14.82 0 00-.89-3.82zm.59-7.24h1.1v-2.15h-1.1zm0 4.52h1.1v-2.34h-1.1zm3.31 2.57a13.86 13.86 0 011.52 3.53 18.41 18.41 0 00-2.59.87 21.68 21.68 0 00-1.38-3.72zm0-9.24v2.15H354v-2.15zm0 4.33v2.34H354v-2.34zm13.34 9.28h-2.65v-4.13a11.55 11.55 0 01-1.48 1.9 7.24 7.24 0 00-2.24-1.57 11.74 11.74 0 003.5-5.28h-2.89v-2.46h3.11v-1.38a11.56 11.56 0 00-2.16 1 12.94 12.94 0 00-1.1-3.37l2.11-.76a17.7 17.7 0 011.15 2.91v-4.33l2.59.15c.25 0 .53 0 .53.3s-.3.36-.47.42v5.07h2.6v2.46h-2.34a11.08 11.08 0 002.45 2.69 6.27 6.27 0 00-1.38 1.83 13.62 13.62 0 01-1.33-1.24zm3.36-15.58c.17 0 .38.11.38.25s-.25.28-.42.37a23.32 23.32 0 01-1 3 5.75 5.75 0 00-2.09-.74 30.65 30.65 0 001-3.44zm8 7.62l.46 2.31-1.9.5v5.11h-2.7v-4.39L369 151.6l-.43-2.44 5-1.27v-6.65a9.32 9.32 0 00-1.5 1.58 17.7 17.7 0 00-2.35-2.32l1.57-1.8a15.12 15.12 0 012.28 2.16v-3.47l2.68.22c.15 0 .42 0 .42.25s-.21.28-.4.4v9zm-6.62-3.59a15.79 15.79 0 012.43 2.64c-.48.47-1 1-1.66 1.74a14.35 14.35 0 00-2.33-2.62zm9.79-1.81l1.16-2.3 13.64 6.76-13.59 6.77-1.16-2.3 9-4.47z"/></g></g></svg>