<svg xmlns="http://www.w3.org/2000/svg" width="30" height="30"><path d="M15 0a15 15 0 1015 15A15 15 0 0015 0zm7.53 12.16v.46a10.29 10.29 0 01-15.82 8.67 8.3 8.3 0 00.87.05 7.27 7.27 0 004.49-1.55 3.61 3.61 0 01-3.38-2.51 3.74 3.74 0 00.68.06 3.69 3.69 0 001-.12 3.63 3.63 0 01-2.9-3.55 3.65 3.65 0 001.64.45 3.62 3.62 0 01-1.17-4.87A10.25 10.25 0 0015.39 13a3.77 3.77 0 01-.09-.83 3.62 3.62 0 016.25-2.47 7 7 0 002.3-.88 3.57 3.57 0 01-1.59 2 7 7 0 002.08-.57 7.36 7.36 0 01-1.81 1.91z" fill="#282828" data-name="レイヤー 2"/></svg>