<svg xmlns="http://www.w3.org/2000/svg" viewBox="0 0 527.95 40"><defs><style>.a57e3897-eba5-4593-967b-dfe1185982e2{fill:#ff9600;}</style></defs><title>ttl_bigsite</title><g id="b547df9e-dab7-46bb-94cd-d9d6b2cc3afa" data-name="レイヤー 2"><g id="b3c80030-c9b4-4506-bffd-f2bc5212bf1c" data-name="object"><rect class="a57e3897-eba5-4593-967b-dfe1185982e2" width="10" height="40"/><path class="a57e3897-eba5-4593-967b-dfe1185982e2" d="M29.79,26l2.41-.32a25.9,25.9,0,0,1,.5,5.79c-.5.11-2.34.44-2.7.54,0-.46,0-1,0-1.83,0-1.41-.11-2.63-.18-3.67a.65.65,0,0,1-.5.21,34.63,34.63,0,0,1-.72,6.41,20.32,20.32,0,0,0-3-.14,33.48,33.48,0,0,0,1.05-7.28l2.73.33c.18,0,.33,0,.43.14ZM40.73,10v3.45H37.92v1.62h2.81v3.46H37.92v1.65h3.67c0,2.34,0,10.66-2.66,14-1.58,1.94-4.64,2.12-5.69,2.09-.21-1.62-.61-2.34-2-4,.47,0,.94.11,1.59.11,2.91,0,3.45-1.05,4.14-3.57-.22.08-.72.22-.9.29a22.13,22.13,0,0,0-1-3.81l1.58-.36c.4,1.29.58,1.83.65,2.16a16.06,16.06,0,0,0,.18-2.56H31.84v.58H27V4.16H41.92V8.38h-4V10Zm-6.84,0V8.38H31.84V10Zm-2.05,3.45v1.62h2.05V13.45Zm0,5.08v1.65h2.05V18.53Zm2.73,6.91c.22,1,.72,3,.87,4.06-.29.11-1.58.51-1.84.62a22.42,22.42,0,0,0-.79-4.4ZM48,20.36C47.68,30.62,44.73,35,43.57,36.7a11.5,11.5,0,0,0-4.14-2.44c1-1.12,3.82-4.36,3.82-17V4.16h15.8v16.2H52.79A25.3,25.3,0,0,0,59.92,33.1a12.45,12.45,0,0,0-3.78,3.32c-2.06-1.73-6.3-7.74-7.64-16.06Zm.29-11.55v7H53.9v-7Z"/><path class="a57e3897-eba5-4593-967b-dfe1185982e2" d="M79.83,5.35c.39.11.72.22.72.54,0,.51-.76.58-1,.58-.54,2.45-.75,3.38-1,4.32,3.09,0,8.24.1,8.24,8.82,0,5.93-1.87,11-3.6,13.31a6.17,6.17,0,0,1-5.33,2.52,19.47,19.47,0,0,1-3.81-.39,12.82,12.82,0,0,0,.1-1.33,26.71,26.71,0,0,0-.54-4.83,6,6,0,0,0,3.14.79A2.72,2.72,0,0,0,78.89,29c1.22-1.08,2.38-5.11,2.38-9.57,0-3.71-2.6-3.5-4.14-3.39-2.85,9.76-6.23,15.23-9.15,19a25.26,25.26,0,0,0-5.29-2.85,42.86,42.86,0,0,0,8.57-15.08A37.47,37.47,0,0,0,65.54,19l-2-5.8c1.47-.29,7.88-1.62,9.21-1.83a55.67,55.67,0,0,0,1.12-7.89Zm9.71,1.87C93.5,11.65,96,17.66,96,20.5c0,1.88-.61,2.88-2.55,3.82a14.38,14.38,0,0,1-3.6,1.12,29.27,29.27,0,0,0-2.09-4.83c1-.21,2.3-.5,2.3-1.65A14.26,14.26,0,0,0,88.21,14a25.65,25.65,0,0,0-3.06-4Z"/><path class="a57e3897-eba5-4593-967b-dfe1185982e2" d="M112.12,11.58c.25.07.54.14.54.47s-.43.46-.83.5a24.29,24.29,0,0,0-2.38,6.23A19.92,19.92,0,0,1,120,15.43c6.19,0,9.21,4.57,9.21,8.86,0,6.87-6.48,11.59-18.39,11.59-1.05,0-2,0-2.63-.08a20.56,20.56,0,0,0-1.69-6,20.58,20.58,0,0,0,5.32.54c8.18,0,11.41-3.06,11.41-6.09,0-1-.5-3.67-4.21-3.67-5.14,0-8.89,3.31-11.48,5.9l-5.15-1.87a86.59,86.59,0,0,1,3.78-14.9Zm-2-8.42a35.79,35.79,0,0,1,12.09,4A47.84,47.84,0,0,0,119,12.41,32,32,0,0,0,108.27,8Z"/><path class="a57e3897-eba5-4593-967b-dfe1185982e2" d="M164.21,13.45c.21.18.43.36.43.54a.55.55,0,0,1-.54.43,4,4,0,0,1-.72-.11,59.4,59.4,0,0,1-18.68,6.81v5.72c0,2.66.86,2.66,7,2.66A95.35,95.35,0,0,0,165,28.78a24.61,24.61,0,0,0-.76,5.76c-1.29.08-3.13.18-6.4.18-14.44,0-15.12-.39-16.67-1.26-2.09-1.15-2.37-3.24-2.37-6V4.2l5.9.36c.43,0,.72,0,.72.36s-.36.58-.72.79V15.9c3.92-.83,10.29-2.88,14.76-6.41Zm-2.7-8.35a34.73,34.73,0,0,1,3.67,3.53c-.22.18-1.58,1.37-2.34,2-.5-.47-2.27-2.23-3.85-3.46Zm3.35-2.81a29.2,29.2,0,0,1,3.63,3.53c-.65.54-1.76,1.58-2.41,2.19a42.09,42.09,0,0,0-3.74-3.59Z"/><path class="a57e3897-eba5-4593-967b-dfe1185982e2" d="M178.83,12.33a58.85,58.85,0,0,1,3.31,6.59,23.63,23.63,0,0,0-4.57,2.23,74.25,74.25,0,0,0-3.39-6.87Zm20.37.58c.4.11.68.22.68.54s-.5.4-.68.4c-3,12.78-8.82,17.81-17.17,21.41a14.48,14.48,0,0,0-3.42-4.06c9.22-3.57,13.82-8.46,15.37-19.91Zm-13-2.23a26.21,26.21,0,0,1,3,6.77,35.92,35.92,0,0,0-4.53,1.87,56.42,56.42,0,0,0-3.14-6.73Z"/><path class="a57e3897-eba5-4593-967b-dfe1185982e2" d="M232.18,9a6.13,6.13,0,0,0,2.55-.54l3,2.55c-.65,1.08-2.84,6-3.67,7.85-5.55,12.45-13.54,16.45-16.7,18a19.35,19.35,0,0,0-4.65-4.1,33,33,0,0,0,11.7-8.53,34.12,34.12,0,0,0,5.36-10.08h-9a49.41,49.41,0,0,1-8.1,9.21,19.81,19.81,0,0,0-4.39-3.88c8.74-7.42,11-13.75,11.8-15.91l5.19,2.52c.14.07.46.25.46.54s-.5.47-.86.5c-.58,1.12-.68,1.4-.94,1.84ZM231,2.47a29.21,29.21,0,0,1,3.53,3.46,31.92,31.92,0,0,0-3,2,30.2,30.2,0,0,0-3.42-3.45Zm5.73-.39a33.66,33.66,0,0,1,3.53,3.7c-.47.33-2.6,1.69-3,2A19.29,19.29,0,0,0,234,4Z"/><path class="a57e3897-eba5-4593-967b-dfe1185982e2" d="M262.13,4.06l6.08.32c.29,0,.54.11.54.36a.74.74,0,0,1-.54.65v5.86h6.27v5.62h-6.3c-.18,5.43-.8,7.2-1.12,8.13a19.52,19.52,0,0,1-10.62,11.31A17.05,17.05,0,0,0,252,31.84c6.3-2.23,8.39-6.48,8.82-7.41,1.05-2.34,1.16-4.64,1.3-7.56H255.9v8h-5.83v-8h-6.84V11.25h6.84v-7l5.65.33c.33,0,.76,0,.76.43,0,.25-.29.39-.58.57v5.65h6.23Z"/><path class="a57e3897-eba5-4593-967b-dfe1185982e2" d="M298.89,35.73h-6.2V19.35a63.77,63.77,0,0,1-10,5.11,17.62,17.62,0,0,0-4.32-5.14c13.72-3.89,22.32-13.68,24.52-16.49l4.78,3.78a.83.83,0,0,1,.44.68c0,.33-.29.47-.58.47a2.43,2.43,0,0,1-.72-.1A72.37,72.37,0,0,1,298.89,15Z"/><path class="a57e3897-eba5-4593-967b-dfe1185982e2" d="M332.44,13.38c5.32,2.7,9.9,5.79,12.56,8.46-1.62,2.34-1.8,2.59-3.38,5a52.9,52.9,0,0,0-11.23-8V35.77H324.3V4l6.09.29c.25,0,.68,0,.68.4s-.4.5-.68.57v11Z"/><path class="a57e3897-eba5-4593-967b-dfe1185982e2" d="M370.6,4.56c.32.07.65.11.65.47s-.4.47-.65.5c-.15,1.4-.15,1.73-.18,2.13,1.65,0,7.23-.11,9.93.21v5.36a88.09,88.09,0,0,0-10.11-.32v4a47.26,47.26,0,0,0,9.14-1.69v5.36a67.79,67.79,0,0,1-9,1.19c0,1.55,0,1.69.07,3.2,4.5.61,10.69,3.75,12,4.75a57.65,57.65,0,0,0-4,4.5,29,29,0,0,0-7.7-4.53c.07,1.87.32,6.12-7.56,6.12-5.58,0-9.65-2.56-9.65-5.83,0-4.11,5.15-5.87,11.16-5.76,0-.83,0-.83,0-2.13-3.56.08-10.07.18-10.07-3.38,0-1.26.64-2.41,2.51-4.36l4,.9c-.64.87-.75,1-.75,1.23s0,1,4.21.83c0-.65,0-3.57,0-4.14-4.42.18-8.31.68-11.3,1.08V8.52c1.77-.18,9.65-.54,11.27-.65,0-1.37,0-2.77-.15-4.43Zm-7.45,23.76c-.18,0-3.64,0-3.64,1.47,0,1.19,2,1.3,2.59,1.3,1.77,0,2.85-.65,2.63-2.63A8.05,8.05,0,0,0,363.15,28.32Z"/><path class="a57e3897-eba5-4593-967b-dfe1185982e2" d="M418.76,10c-8.89-.14-16.59,7.85-16.59,13.68,0,4.17,5.29,6.23,10.19,6.33a47.82,47.82,0,0,0-2.7,6.56c-2.92-.8-13.25-3.68-13.25-12.28,0-6.66,5.15-11.45,6.62-12.38a96.34,96.34,0,0,0-14.9,2.27l-.83-6.77a116.36,116.36,0,0,0,16-.83A86.05,86.05,0,0,0,417.76,4Zm-6,5.11A22.72,22.72,0,0,1,416.14,19c-1,.72-1.52,1.12-2.78,2.16a28.13,28.13,0,0,0-3.2-4.06Zm3.78-2.55a22.56,22.56,0,0,1,3.2,3.78c-.9.68-1.51,1.22-2.63,2.23a26.29,26.29,0,0,0-3.2-4.07Z"/><path class="a57e3897-eba5-4593-967b-dfe1185982e2" d="M439.47,30.22c7.81-1.44,10.11-7.48,10.11-11.23a8.53,8.53,0,0,0-8.31-8.82c-1.12,13.18-6.56,23-10.37,23-2.81,0-8-4.76-8-11.41C422.87,14,429.93,5,440.51,5c7.88,0,14.76,5.36,14.76,14A16.8,16.8,0,0,1,451,30.08c-2.2,2.56-4.75,3.89-7.81,5.22A23.54,23.54,0,0,0,439.47,30.22ZM428.2,21.33c0,2.77,1.55,4.86,2.3,4.86s1.55-1.62,1.95-2.55a31.75,31.75,0,0,0,2.77-12.39C431,12.8,428.2,18.09,428.2,21.33Z"/><path class="a57e3897-eba5-4593-967b-dfe1185982e2" d="M467.76,17.05V28.64A3,3,0,0,0,470,31.16c1.77.54,5.22.54,8,.54,1.76,0,10.54-.11,14.32-.86A9.15,9.15,0,0,0,490.94,36H474.46c-5.29,0-7.2-1-8.79-2.81-.57.58-3.7,2.77-3.81,2.85a3.48,3.48,0,0,1,.07.64.49.49,0,0,1-.47.54c-.18,0-.43-.25-.57-.5l-2.7-4.82a31.54,31.54,0,0,0,4.46-2.45V21.8h-4.14V17.05ZM461.86,3.7a25.43,25.43,0,0,1,5.36,5c-1.15,1.19-2.37,2.63-3.31,3.78a32,32,0,0,0-5.43-5.32Zm27.72,9V30.62h-5.33V30H476v.87h-5.26V12.73h4.5c.11-.25.54-1.33.65-1.55h-7.6V6.9h4a19.65,19.65,0,0,0-1.51-2.05l4.39-2.13a16.71,16.71,0,0,1,2.56,3.71c-.83.18-1.26.32-1.77.47h5.26a27.54,27.54,0,0,0,1.87-4.21l5,1.44a.53.53,0,0,1,.47.5c0,.51-.47.61-.86.69-.07.14-.58,1-.9,1.58h4.68v4.28h-9.83c-.11.22-.5,1.08-.75,1.55Zm-5.33,4.79V16H476v1.55Zm0,4.46V20.43H476V22Zm0,4.57V24.93H476v1.62Z"/><path class="a57e3897-eba5-4593-967b-dfe1185982e2" d="M499.26,4.49c.54,0,.9.07.9.39s-.32.51-.72.72V23c0,2.05-.1,8.17-1.94,12.78a9,9,0,0,0-3.89-1.44c1.19-2.59,1.91-5.08,1.91-11.12v-19Zm5,1.8c.36,0,.69,0,.69.32s-.29.4-.8.54V31.3h-3.77V6Zm16.38,23.14h-4.89L518,31.12c.29.22.5.4.5.69a.38.38,0,0,1-.43.39,3.68,3.68,0,0,1-.75-.1c-.43.46-1.8,1.87-2.13,2.16A24.85,24.85,0,0,1,512,36.74a14.3,14.3,0,0,0-2.84-2.52v.94h-4v-31l4,.15c.29,0,.79,0,.79.39s-.29.47-.79.65V33.14a21,21,0,0,0,4.35-3.71h-2.73V10.25h4.32c.54-.94.65-1.12,1-1.87h-6V4.27h17.53V8.38h-6.19c-.32.61-.86,1.72-.93,1.87h6V29.43h-3.85A20.28,20.28,0,0,0,528,33.36a13.91,13.91,0,0,0-3.38,3.16,33.41,33.41,0,0,1-6.12-5.18Zm1-13.86V14h-5.79v1.54Zm-5.79,3.5v1.54h5.79V19.07Zm0,5v1.62h5.79V24.1Z"/></g></g></svg>