<svg xmlns="http://www.w3.org/2000/svg" viewBox="0 0 259.76 30"><defs><style>.bd3d0ec9-e5f4-49ca-9e5f-4d1744977964{fill:#ff5064;}</style></defs><title>ttl_schedule</title><g id="b0ca828f-c46e-4765-a997-148147b4efb8" data-name="レイヤー 2"><g id="b25fc6cc-3c3d-4111-b0f1-8c5f57988529" data-name="コンテンツ"><path class="bd3d0ec9-e5f4-49ca-9e5f-4d1744977964" d="M23.67,10.24V6.64H35.94a6.75,6.75,0,0,0,1.65-.19l1.88,2A6.9,6.9,0,0,0,38.55,10a40.38,40.38,0,0,1-3,5.88,64.39,64.39,0,0,1,7.2,6.58c-.8.91-2.09,2.35-2.88,3.26a33.23,33.23,0,0,0-6.46-6.84,27.75,27.75,0,0,1-9.22,7.18,10.78,10.78,0,0,0-2.73-3.29,20.19,20.19,0,0,0,7.8-4.8A19.1,19.1,0,0,0,34,10.24Z"/><path class="bd3d0ec9-e5f4-49ca-9e5f-4d1744977964" d="M45.66,15.66V12.23H66.2v3.43H58.35a11.36,11.36,0,0,1-2.71,7.64,11.66,11.66,0,0,1-5.23,3.4,11.8,11.8,0,0,0-2.88-3c5.45-1.49,6.91-4.56,7-8.07ZM62.89,6V9.5H49.09V6Z"/><path class="bd3d0ec9-e5f4-49ca-9e5f-4d1744977964" d="M90.44,14v4.08H69.58V14Z"/><path class="bd3d0ec9-e5f4-49ca-9e5f-4d1744977964" d="M96.73,10a34.71,34.71,0,0,1,5.61,3.29c-.69.86-1,1.25-2.32,3.19a25.59,25.59,0,0,0-5.48-3.27ZM96,23a33.74,33.74,0,0,0,16.66-12.79,7.24,7.24,0,0,0,2.47,3.14,33.79,33.79,0,0,1-6.5,7,42.83,42.83,0,0,1-9.79,5.93c0,.26-.12.58-.39.58s-.29-.2-.38-.34ZM99.06,4.74a27.64,27.64,0,0,1,6,2.79,27.39,27.39,0,0,0-2.24,3.17,26.56,26.56,0,0,0-5.83-3Zm10.7,1.39c.75.56,2.19,1.76,2.76,2.31-.26.21-1.22,1.18-1.82,1.75A31.37,31.37,0,0,0,108,7.74Zm2.31-1.77a20.14,20.14,0,0,1,2.56,2.33A12.23,12.23,0,0,0,113,8.17a20.72,20.72,0,0,0-2.61-2.32Z"/><path class="bd3d0ec9-e5f4-49ca-9e5f-4d1744977964" d="M119.67,10.24V6.64h12.27a6.75,6.75,0,0,0,1.65-.19l1.88,2a6.9,6.9,0,0,0-.92,1.53,40.38,40.38,0,0,1-3,5.88,64.39,64.39,0,0,1,7.2,6.58c-.8.91-2.09,2.35-2.88,3.26a33.23,33.23,0,0,0-6.46-6.84,27.75,27.75,0,0,1-9.22,7.18,10.78,10.78,0,0,0-2.73-3.29,20.19,20.19,0,0,0,7.8-4.8,19.1,19.1,0,0,0,4.8-7.75Z"/><path class="bd3d0ec9-e5f4-49ca-9e5f-4d1744977964" d="M148.16,13.89A39.78,39.78,0,0,1,144.22,19a15.75,15.75,0,0,0-3.33-2.37,28.83,28.83,0,0,0,7.32-12l3.91,1.54c.17.07.39.17.39.36s-.46.33-.7.38c-.53,1.2-.62,1.42-1.54,3.24H162.2v3.75h-5.83c-.29,7.29-3.79,10.92-7.51,13.29a18.2,18.2,0,0,0-3.12-2.61c2.9-1.66,6.31-4,6.57-10.68Z"/><path class="bd3d0ec9-e5f4-49ca-9e5f-4d1744977964" d="M168.73,10a34.71,34.71,0,0,1,5.61,3.29c-.69.86-1,1.25-2.32,3.19a25.59,25.59,0,0,0-5.48-3.27ZM168,23a33.74,33.74,0,0,0,16.66-12.79,7.24,7.24,0,0,0,2.47,3.14,33.79,33.79,0,0,1-6.5,7,42.83,42.83,0,0,1-9.79,5.93c0,.26-.12.58-.39.58s-.29-.2-.38-.34Zm3.08-18.22a27.64,27.64,0,0,1,6,2.79,27.39,27.39,0,0,0-2.24,3.17,26.56,26.56,0,0,0-5.83-3Zm10.7,1.39c.75.56,2.19,1.76,2.76,2.31-.26.21-1.22,1.18-1.82,1.75A31.37,31.37,0,0,0,180,7.74Zm2.31-1.77a20.14,20.14,0,0,1,2.56,2.33A12.23,12.23,0,0,0,185,8.17a20.72,20.72,0,0,0-2.61-2.32Z"/><path class="bd3d0ec9-e5f4-49ca-9e5f-4d1744977964" d="M208.35,21.88v3.19H191.67V21.88h8.52l1.2-6.84h-6.93V11.75h11.21l-1.81,10.13Z"/><path class="bd3d0ec9-e5f4-49ca-9e5f-4d1744977964" d="M234.44,14v4.08H213.58V14Z"/><path class="bd3d0ec9-e5f4-49ca-9e5f-4d1744977964" d="M245.58,6.76c.26,0,.55,0,.55.33s-.31.41-.41.46v5.86c0,6.31-3.07,9-5.95,11.45a12.13,12.13,0,0,0-3.24-2.62,12.89,12.89,0,0,0,3.89-3.7,8.57,8.57,0,0,0,1.17-4.92v-7Zm6.12-.19c.26,0,.45,0,.45.26s-.24.34-.45.43V19a25.54,25.54,0,0,0,6.21-6.29,11.33,11.33,0,0,0,1.85,3.6A40.9,40.9,0,0,1,253,22.91c-1,.7-1.9,1.44-2.83,2.16l-2.55-1.63c.05-.65.1-1.25.1-1.92V6.35Z"/><rect class="bd3d0ec9-e5f4-49ca-9e5f-4d1744977964" width="10" height="30"/></g></g></svg>