<svg xmlns="http://www.w3.org/2000/svg" viewBox="0 0 67.21 30"><defs><style>.fe964707-799d-48d9-982b-008298196295{fill:#ff5064;}</style></defs><title>ttl_place</title><g id="bd1dfefd-1450-4b1c-bd0d-88554ce9f775" data-name="レイヤー 2"><g id="a518e588-72de-4687-bf58-0dd2593075f6" data-name="コンテンツ"><path class="fe964707-799d-48d9-982b-008298196295" d="M31.28,20.25a16.5,16.5,0,0,1-2.83,2.9,6.18,6.18,0,0,0-2.26-1.61c.43-.33.79-.6,1.35-1.08-1.49.65-3.32,1.35-5.26,2,0,.28-.1.62-.36.62s-.34-.31-.38-.55l-.82-3.39a17.74,17.74,0,0,0,2.71-.5V13.19H21V10.07h2.47v-5L27,5.27c.29,0,.51.05.51.26s-.15.29-.51.46v4.08h2.14v3.12H27v4.37c.58-.24.94-.38,1.52-.65h-.17V14.49H42.87v2.42H33.59l-.46.77h9.58c0,2.42-.08,7.22-1.64,8.45-.91.72-2.44.79-4,.79a7,7,0,0,0-.64-2.59,19,19,0,0,1-2.86,3,6.09,6.09,0,0,0-2.54-1.54,16.76,16.76,0,0,0,5.06-5.54H35.05a16.76,16.76,0,0,1-6.31,6.36,6.18,6.18,0,0,0-2.12-1.92,14.73,14.73,0,0,0,5.6-4.44ZM29.1,16.91a9.74,9.74,0,0,0-.17,2.14,15.17,15.17,0,0,0,1.46-2.14ZM41.19,13.7H30V5.25H41.19ZM38,8.56V7.74H33.23v.82Zm-4.72,1.92v.81H38v-.81Zm5.66,9.77A26.2,26.2,0,0,1,37,23.58a8,8,0,0,0,.84.05c.48,0,.92-.05,1.08-.6a11.81,11.81,0,0,0,.44-2.78Z"/><path class="fe964707-799d-48d9-982b-008298196295" d="M55.67,10v8.54H49.78c-.26,4.61-1.08,7.32-1.82,8.64a10.74,10.74,0,0,0-3.53-1.08c1.2-1.7,1.9-4.15,1.9-8.4V10ZM56,5.8v3H45.22V5.8Zm-6.2,7.27v2.5h2.5v-2.5ZM64.86,26.9H61.45V15.16H60c0,2.33-.14,8-5,12.14a8.84,8.84,0,0,0-3-2,9.8,9.8,0,0,0,3.58-4.17,10.85,10.85,0,0,0,1.1-5.28V6.06l2.43.15a16.1,16.1,0,0,0,5.66-1.59L67,7.5a.77.77,0,0,1,.19.41.27.27,0,0,1-.29.29,1.44,1.44,0,0,1-.69-.27A33.78,33.78,0,0,1,60,9.35v2.57H67v3.24H64.86Z"/><rect class="fe964707-799d-48d9-982b-008298196295" width="10" height="30"/></g></g></svg>