<svg xmlns="http://www.w3.org/2000/svg" viewBox="0 0 179.43 22.47"><defs><style>.b3af893f-cdea-46a3-9371-3f99176873f6{fill:#fff;}</style></defs><title>ttl_public_stageshow</title><g id="aa8fedcb-7f1e-4c82-ac8c-b6132cd518ad" data-name="レイヤー 2"><g id="a12df77b-4abf-4521-895e-335a9ce562bb" data-name="コンテンツ"><path class="b3af893f-cdea-46a3-9371-3f99176873f6" d="M2.26,5.88V2.28H14.52a6.83,6.83,0,0,0,1.66-.19l1.87,2a7.42,7.42,0,0,0-.91,1.53,40.91,40.91,0,0,1-3.05,5.88,63.52,63.52,0,0,1,7.2,6.58c-.79.91-2.09,2.35-2.88,3.27A33,33,0,0,0,12,14.54a27.69,27.69,0,0,1-9.21,7.18A11,11,0,0,0,0,18.43a20.11,20.11,0,0,0,7.8-4.8,19,19,0,0,0,4.8-7.75Z"/><path class="b3af893f-cdea-46a3-9371-3f99176873f6" d="M26.64,11.3V7.87H47.19V11.3H39.34a11.41,11.41,0,0,1-2.71,7.64,11.85,11.85,0,0,1-5.24,3.41,11.68,11.68,0,0,0-2.88-3c5.45-1.49,6.91-4.56,7-8.07ZM43.87,1.66V5.14H30.07V1.66Z"/><path class="b3af893f-cdea-46a3-9371-3f99176873f6" d="M73.83,9.63v4.08H53V9.63Z"/><path class="b3af893f-cdea-46a3-9371-3f99176873f6" d="M82.51,5.64a34.39,34.39,0,0,1,5.62,3.29c-.7.86-1,1.25-2.33,3.19a25.27,25.27,0,0,0-5.47-3.26Zm-.74,13A33.78,33.78,0,0,0,98.43,5.81,7.09,7.09,0,0,0,100.9,9a33.57,33.57,0,0,1-6.51,7,42.83,42.83,0,0,1-9.79,5.93c0,.27-.12.58-.38.58s-.29-.19-.39-.34ZM84.84.38a27.42,27.42,0,0,1,6,2.79,27.31,27.31,0,0,0-2.23,3.17,26.79,26.79,0,0,0-5.83-3Zm10.71,1.4c.74.55,2.18,1.75,2.76,2.3-.27.22-1.23,1.18-1.83,1.75a30,30,0,0,0-2.71-2.45ZM97.85,0a20.25,20.25,0,0,1,2.57,2.33,12.12,12.12,0,0,0-1.63,1.49,20.81,20.81,0,0,0-2.62-2.33Z"/><path class="b3af893f-cdea-46a3-9371-3f99176873f6" d="M108.79,5.69A24.29,24.29,0,0,1,114.41,9a23.35,23.35,0,0,0-2.33,3.19,20.52,20.52,0,0,0-5.45-3.27ZM108,18.6a35,35,0,0,0,16.9-12.72,12.39,12.39,0,0,0,2.47,3.24c-3,4.51-10.13,10.42-16.53,12.79,0,.15,0,.56-.41.56-.17,0-.31-.24-.36-.32ZM111.22.36a36.81,36.81,0,0,1,6,2.83c-.5.58-1.94,2.62-2.28,3.12a25.6,25.6,0,0,0-5.83-3Z"/><path class="b3af893f-cdea-46a3-9371-3f99176873f6" d="M135.14,20.71V17.64h10.73V15.19h-10.1V12.05h10.1V9.75H135.46V6.6h13.77V21.43h-3.36v-.72Z"/><path class="b3af893f-cdea-46a3-9371-3f99176873f6" d="M179.43,9.63v4.08H158.57V9.63Z"/></g></g></svg>