<svg xmlns="http://www.w3.org/2000/svg" width="557" height="34"><g data-name="レイヤー 2"><path d="M172.75 16.23c-.65 0-1-.57-1-1.3a1.69 1.69 0 01.18-.83 29 29 0 01-4.05 2.29 1.54 1.54 0 01-.6.13 1.34 1.34 0 01-1.22-.86 1.42 1.42 0 01-.19-.7 1.35 1.35 0 01.84-1.25A26.75 26.75 0 00176 6.77a2.62 2.62 0 012-.77 2.67 2.67 0 012 .76 26.52 26.52 0 009.33 6.81 1.39 1.39 0 01.81 1.27 1.82 1.82 0 01-.16.73 1.36 1.36 0 01-1.25.89 1.47 1.47 0 01-.72-.19 32.63 32.63 0 01-3.91-2.21 1.76 1.76 0 01.19.86c0 .73-.34 1.3-1 1.3zm4.08 4.92a32.11 32.11 0 01-2.63 5.2c2.81-.13 5.62-.37 8.4-.76-.54-.65-1.09-1.3-1.66-1.89a1.08 1.08 0 01-.29-.68 1 1 0 01.57-.89 1.92 1.92 0 01.94-.28 1.34 1.34 0 011 .39 35.61 35.61 0 014.68 5.62 1.21 1.21 0 01.24.7 1.38 1.38 0 01-.6 1.11 1.75 1.75 0 01-1 .32 1.21 1.21 0 01-1-.52c-.34-.52-.7-1.07-1.09-1.59a139.94 139.94 0 01-15.89 1.46 1.29 1.29 0 01-1.3-1.38v-.08c0-.83.39-1.33 1.12-1.35l2.86-.08a29.77 29.77 0 002.57-5.3h-5.93c-.62 0-1-.52-1-1.3s.37-1.3 1-1.3h20.31c.67 0 1 .52 1 1.27s-.37 1.33-1 1.33zm6.47-7.52h.13a24.91 24.91 0 01-5-4.55.55.55 0 00-.42-.23.48.48 0 00-.33.21 25.72 25.72 0 01-5 4.57h10.62zM203.09 22a14.7 14.7 0 01-3.43 2.58 1.38 1.38 0 01-.55.13 1.23 1.23 0 01-1-.65 1.47 1.47 0 01-.15-.65 1.14 1.14 0 01.15-.55 30.19 30.19 0 01-4.48 2.14 1.18 1.18 0 01-1.62-.78 2.15 2.15 0 01-.1-.62 1 1 0 01.78-1l2.11-.83V14.8H193c-.62 0-1-.49-1-1.27s.34-1.25 1-1.25h1.8V7.21c0-.6.49-.94 1.32-.94s1.3.34 1.3.94v5.07h1.51c.62 0 1 .49 1 1.25s-.34 1.27-1 1.27h-1.51v5.64a7.15 7.15 0 00.76-.44 1.15 1.15 0 01.62-.21.93.93 0 01.88.63 1.55 1.55 0 01.11.57 1.39 1.39 0 01-.52 1.09 10.48 10.48 0 003.64-3.43h-2.78c-.55 0-.86-.47-.86-1.12s.31-1.09.86-1.09h14.92c.55 0 .86.47.86 1.09s-.31 1.12-.86 1.12h-9.46c-.24.44-.5.86-.76 1.27h8.25c1.48 0 2.21.73 2.18 2.06a20 20 0 01-.76 5.74c-.51 1.46-1.55 2.08-3.32 2.08a9.75 9.75 0 01-2-.2 1 1 0 01-.78-1.12 1.06 1.06 0 010-.29 1 1 0 011-1.06h.08a5.65 5.65 0 001.32.15c.73 0 1.12-.13 1.36-.86a14.7 14.7 0 00.51-4c0-.39-.13-.47-.51-.47h-.81a15.57 15.57 0 01-6.55 7.86 1.49 1.49 0 01-.71.21 1.17 1.17 0 01-1-.65 1.41 1.41 0 01-.18-.68 1 1 0 01.49-.91 12.67 12.67 0 005.44-5.78h-1.36a15.88 15.88 0 01-6.86 6.06 1.8 1.8 0 01-.7.16 1.12 1.12 0 01-1-.68 1.52 1.52 0 01-.15-.62 1 1 0 01.6-1 13.83 13.83 0 005.35-4zm8.63-15.26c1.54 0 2.21.57 2.21 2v4.52c0 1.43-.67 2-2.21 2H203c-1.53 0-2.21-.57-2.21-2V8.72c0-1.41.68-2 2.21-2zm-.39 3.26v-.76c0-.37-.18-.5-.59-.5H204c-.41 0-.59.13-.59.5V10zm-8 2.81c0 .39.18.49.59.49h6.77c.41 0 .59-.1.59-.49v-.86h-8zm25.76 10.75c-1.4 2.73-3.07 3.54-5.12 3.54-2.81 0-5.25-2.52-5.25-7.18 0-6 4.7-11.23 12.16-11.23 5.67 0 10.41 3.88 10.41 9.52 0 5.41-2.79 8.92-7.65 10.53a1.53 1.53 0 01-.57.1 1.59 1.59 0 01-1.56-1.63 1.56 1.56 0 011.09-1.46c3.9-1.35 5.51-3.67 5.51-7.54a6.65 6.65 0 00-6.37-6.66 28.1 28.1 0 01-2.65 12.01zm-7.31-3.84c0 3 1 4.31 2.24 4.31a2.53 2.53 0 002.29-1.71 25.52 25.52 0 002.34-10.72 8.13 8.13 0 00-6.87 8.12zm31.67-.86c-.54 0-.86-.47-.86-1.15a1.59 1.59 0 01-.28.7 1 1 0 01-.81.44.74.74 0 01-.6-.31 11.49 11.49 0 01-1-2.21 39.31 39.31 0 01.26 4V29c0 .7-.47 1.06-1.33 1.06s-1.3-.36-1.3-1.06v-6.81a43.43 43.43 0 01.31-4.89 15.77 15.77 0 01-2 5 1 1 0 01-.84.47 1.17 1.17 0 01-.88-.42 1.4 1.4 0 01-.42-1 1.62 1.62 0 01.29-.88 23.18 23.18 0 003.25-7.23h-2.21c-.62 0-1-.5-1-1.25s.34-1.25 1-1.25h2.47V7c0-.68.47-1 1.3-1s1.33.36 1.33 1v3.74h1.56c.62 0 1 .47 1 1.25s-.34 1.25-1 1.25h-1.36a18.52 18.52 0 002 3.33 1.32 1.32 0 01.26.83c.08-.52.36-.83.83-.83h4.81V15h-4.18c-.5 0-.78-.47-.78-1.09s.28-1.09.78-1.09h4.18v-1.48h-4.6c-.55 0-.83-.41-.83-1.09s.28-1.09.83-1.09h2.18a14.35 14.35 0 00-1-1.77.94.94 0 01-.13-.41 1 1 0 01.86-.91 2 2 0 01.56-.07 1.31 1.31 0 011.1.57 22.34 22.34 0 011.3 2.6h2.5a14.62 14.62 0 001.15-2.37 1.16 1.16 0 011.19-.8 2.58 2.58 0 01.45 0c.64.1 1 .49 1 .91a.94.94 0 01-.08.36 13.24 13.24 0 01-1.1 1.85h3c.57 0 .86.44.86 1.09s-.29 1.09-.86 1.09h-5.82v1.49H266c.49 0 .78.46.78 1.09S266.45 15 266 15h-5.17v1.6h6.29c.52 0 .83.46.83 1.11s-.31 1.15-.83 1.15H261a17.61 17.61 0 001.69 3 18.82 18.82 0 002-2.21.92.92 0 01.8-.37 1.62 1.62 0 01.84.26 1.14 1.14 0 01.54 1 1 1 0 01-.21.6 16.33 16.33 0 01-2.57 2.47 16.9 16.9 0 003.38 2.68 1.34 1.34 0 01.57 1.09 1.37 1.37 0 01-.29.83 1.3 1.3 0 01-1.09.6 1.42 1.42 0 01-.83-.29 15 15 0 01-5.41-6.75 20.59 20.59 0 01.32 3.3v2.26c0 1.53-.71 2.47-2.74 2.47a10.89 10.89 0 01-2.18-.21 1 1 0 01-.78-1.07.89.89 0 010-.28 1.08 1.08 0 011-1h.11a10.31 10.31 0 001.3.15c.54 0 .75-.18.75-1v-1.73A28.25 28.25 0 01253 28a1.41 1.41 0 01-.68.18 1.26 1.26 0 01-1.09-.73 1.6 1.6 0 01-.16-.68 1.12 1.12 0 01.63-1 33.84 33.84 0 006.52-3.84v-3zm.81.47a1.14 1.14 0 01.73.26 10.77 10.77 0 011.53 1.82 1.09 1.09 0 01.21.65 1.13 1.13 0 01-.55.91 1.53 1.53 0 01-.83.28 1 1 0 01-.83-.41c-.31-.39-1-1.28-1.46-1.8a.81.81 0 01-.21-.54 1.11 1.11 0 01.55-.89 1.46 1.46 0 01.86-.28zm29.56 7.54c0 2-1.09 2.8-3.8 2.8a16 16 0 01-3-.28 1.24 1.24 0 01-1-1.3 2.43 2.43 0 01.06-.44c.15-.73.62-1.15 1.14-1.15a.83.83 0 01.26 0 9.39 9.39 0 002.16.29c1 0 1.25-.19 1.25-.86V19.2h-9.55c-.7 0-1.06-.6-1.06-1.41s.36-1.37 1.06-1.37h9.55V14c0-.65.6-1 1.48-1a1.09 1.09 0 01.31 0 19.31 19.31 0 004.29-2.76c.13-.13.21-.23.21-.31s-.11-.16-.34-.16h-12.9c-.65 0-1-.57-1-1.35s.39-1.35 1-1.35H289A2 2 0 01291.26 9a2.26 2.26 0 01-.68 1.56 24.9 24.9 0 01-6.76 4.63v1.25h8.84c.68 0 1 .57 1 1.37s-.36 1.41-1 1.41h-8.84zm17.03-19.5a1.45 1.45 0 011.56 1.4 3 3 0 01-.05.42A50 50 0 00301 20.55a31.66 31.66 0 00.73 6.5 1.72 1.72 0 01.05.36A1.64 1.64 0 01300.1 29a1.42 1.42 0 01-1.43-1.06 29.64 29.64 0 01-.76-7.33 53.35 53.35 0 011.41-12.07 1.49 1.49 0 011.53-1.17zM314 12c1.22-.1 2.34-.23 3.23-.39a1.1 1.1 0 01.26 0 1.31 1.31 0 011.25 1.39 1.34 1.34 0 01-1 1.41c-1 .18-2.26.34-3.66.47.08 2.13.18 4.23.47 6.34A16.92 16.92 0 01319 23.9a1.59 1.59 0 01.59 1.2 1.62 1.62 0 01-1.45 1.64 1.24 1.24 0 01-.86-.37 16.65 16.65 0 00-2.76-2c-.15 2.94-2.08 4.19-5.2 4.19s-5.12-1.56-5.12-4.27c0-2.1 1.82-4.13 5.31-4.13a10.46 10.46 0 012 .18c-.2-1.74-.28-3.48-.36-5.23-1.12.06-2.26.08-3.3.08h-1.61a1.43 1.43 0 01-1.36-1.51 1.38 1.38 0 011.46-1.48c.62 0 1.3.05 2 .05.88 0 1.82 0 2.75-.05V8.41a1.48 1.48 0 012.94 0zm-4.57 10.69c-1.69 0-2.45.81-2.45 1.64s.83 1.53 2.26 1.53 2.4-.62 2.4-1.89a4.27 4.27 0 00-.08-.86 5.39 5.39 0 00-2.1-.43zm32.5 1.47a1.44 1.44 0 011.35 1.54 1.57 1.57 0 01-1.09 1.53 25.08 25.08 0 01-8.19 1.22c-6.29 0-8.76-2.21-8.81-6.65 0-1.93 3.12-2.11 3.14-.18.05 2.65 1.59 3.74 5.59 3.74a24.07 24.07 0 007.49-1.12 1.88 1.88 0 01.52-.08zm-7.75-15a41 41 0 005.59-.36.9.9 0 01.26 0 1.43 1.43 0 011.41 1.51 1.61 1.61 0 01-1.36 1.64 39.24 39.24 0 01-5.92.42 46.13 46.13 0 01-5.83-.29 1.54 1.54 0 01-1.33-1.65 1.49 1.49 0 011.51-1.58h.21a52.69 52.69 0 005.46.28zm22 9.72a13.08 13.08 0 017-2.1c4 0 6.45 2.08 6.45 5.12a6.1 6.1 0 01-3.77 5.82 15.6 15.6 0 01-6.42 1.33 1.49 1.49 0 01-1.56-1.53 1.4 1.4 0 011.44-1.52 12.19 12.19 0 005.18-1 3.07 3.07 0 001.9-3.07c0-1.43-1-2.37-3.2-2.37a11.44 11.44 0 00-8.53 3.87 1.62 1.62 0 01-1.22.53 1.54 1.54 0 01-1.61-1.46 1.74 1.74 0 01.2-.83 34.77 34.77 0 002.68-7.91c-1.19 0-2.31.08-3.35.08h-.68a1.35 1.35 0 01-1.3-1.43 1.31 1.31 0 011.33-1.41h1.19c1.07 0 2.19-.06 3.36-.11.18-1.14.31-2.31.41-3.43a1.38 1.38 0 011.49-1.17 1.44 1.44 0 011.58 1.35v.21c-.13.94-.26 1.87-.44 2.81a51.52 51.52 0 005.95-.94 2.12 2.12 0 01.34 0 1.35 1.35 0 011.33 1.43 1.36 1.36 0 01-1.09 1.4 58.77 58.77 0 01-7.1 1 41.43 41.43 0 01-1.64 5.28zm24.41.06a12.1 12.1 0 018.24-3.41c4.48 0 6.79 2.63 6.79 5.59s-1.3 4.86-4.13 6.37a15.51 15.51 0 01-6.66 1.51h-.08a1.52 1.52 0 01-1.51-1.61 1.45 1.45 0 011.41-1.54 12.35 12.35 0 005.59-1.25 3.9 3.9 0 002.18-3.6c0-1.48-1-2.66-3.59-2.66-3.14 0-6.13 1.56-8.39 4.81a1.91 1.91 0 01-1.56.86 1.58 1.58 0 01-1.64-1.61v-.18a93.56 93.56 0 011.25-9.36 1.49 1.49 0 012.93.23 1.56 1.56 0 010 .31c-.44 2.32-.7 3.9-.91 5.46zm8.22-10.33a1.47 1.47 0 011 1.43 1.55 1.55 0 01-1.38 1.67 1.41 1.41 0 01-.44-.08 38 38 0 00-5.99-1.38 1.25 1.25 0 01-1.12-1.32 1.65 1.65 0 011.62-1.69h.13a23.79 23.79 0 016.18 1.37zM412 28a2.12 2.12 0 01-2.11-2.11 2.11 2.11 0 014.22 0A2.14 2.14 0 01412 28zm1.09-7.41a1.11 1.11 0 01-2.21 0c0-3.2-.78-9-.78-10.64a1.9 1.9 0 113.8 0c0 1.71-.81 7.48-.81 10.68z" fill="#3c3c3c"/><path fill="none" d="M0 0h557v34H0z"/></g></svg>