<svg version="1.1" xmlns="http://www.w3.org/2000/svg" xmlns:xlink="http://www.w3.org/1999/xlink" x="0px" y="0px" width="188.414px" height="60px" viewBox="0 0 188.414 60" xml:space="preserve"><g><path fill="#EE93AB" d="m14.244 18.82 4.821-4.055c.147-.122.212-.316.167-.503-.045-.186-.191-.331-.377-.374l-5.095-1.165c-.155-.034-.316.004-.436.105-.063.052-.113.122-.142.196-.028.067-.041.141-.038.217l.273 5.219c.01.191.127.36.302.437C13.893 18.973 14.098 18.943 14.244 18.82M19.165 45.177l-4.506-4.4c-.138-.133-.338-.176-.517-.116-.181.063-.312.223-.336.411l-.658 5.186c-.019.157.035.313.148.424.057.057.13.1.207.122.071.022.146.027.219.016l5.168-.784c.19-.028.346-.162.403-.343C19.353 45.51 19.303 45.31 19.165 45.177M45.607 18.82l-4.822-4.055c-.146-.122-.211-.316-.166-.503.046-.186.191-.331.378-.374l5.095-1.165c.153-.034.315.004.437.105.062.052.11.122.14.196.029.067.041.141.038.217l-.274 5.219c-.008.191-.124.36-.301.437C45.957 18.973 45.754 18.943 45.607 18.82M40.685 45.177l4.508-4.4c.138-.133.338-.176.517-.116.181.063.309.223.333.411l.66 5.186c.021.157-.034.313-.147.424-.058.057-.129.1-.208.122-.071.022-.144.027-.219.016l-5.169-.784c-.187-.028-.344-.162-.404-.343C40.497 45.51 40.549 45.31 40.685 45.177M37.429 15.062l-6.9-9.091c-.364-.477-.859-.482-1.232-.01l-7.051 8.971c-.285.359-.452.942-.452 1.559 0 .62.169 1.195.453 1.542l6.905 8.459c.175.214.379.323.583.324.205.002.409-.101.59-.314l7.046-8.34c.291-.343.467-.914.482-1.532C37.864 16.012 37.704 15.426 37.429 15.062M37.429 40.9l-6.9-9.091c-.364-.477-.859-.482-1.232-.011l-7.051 8.97c-.285.36-.452.943-.452 1.562 0 .618.169 1.194.453 1.54l6.905 8.46c.175.215.379.323.583.324.205.004.409-.102.59-.314l7.046-8.337c.291-.343.467-.916.482-1.534C37.864 41.85 37.704 41.264 37.429 40.9M43.683 36.793l9.091-6.899c.478-.364.482-.858.01-1.232l-8.97-7.052c-.359-.284-.942-.45-1.559-.45-.619 0-1.196.169-1.543.452l-8.458 6.905c-.215.175-.323.38-.325.583-.001.206.102.41.316.592l8.337 7.046c.342.29.914.467 1.534.48C42.734 37.229 43.321 37.071 43.683 36.793M17.845 36.793l9.091-6.899c.477-.364.482-.858.009-1.232l-8.969-7.052c-.359-.284-.942-.45-1.56-.45-.618 0-1.194.169-1.541.452l-8.458 6.905C6.2 28.692 6.093 28.897 6.092 29.1c-.004.206.104.41.314.592l8.338 7.046c.343.29.915.467 1.532.48C16.896 37.229 17.483 37.071 17.845 36.793"/><path fill="#D52E61" d="m26.927 56.659-4.585-7.28c-.24-.382-.7-.57-1.142-.46l-8.352 2.053c-.335.082-.607.322-.731.643-.123.324-.082.686.111.97l4.715 6.953c.12.178.288.308.478.385.19.077.402.099.61.055l8.221-1.728c.337-.068.618-.299.753-.618C27.139 57.315 27.111 56.95 26.927 56.659M33.47 58.068l8.389 1.905c.442.101.898-.094 1.134-.48l4.456-7.361c.178-.292.2-.656.06-.971-.141-.316-.426-.54-.764-.607l-8.249-1.582c-.211-.041-.421-.013-.611.067-.187.079-.353.213-.467.394l-4.593 7.032c-.19.287-.224.651-.095.971C32.858 57.755 33.135 57.991 33.47 58.068M47.439 7.772l-4.585-7.279c-.241-.385-.701-.571-1.143-.463l-8.352 2.053c-.334.083-.607.325-.731.645-.124.323-.08.684.111.97l4.716 6.952c.121.176.286.307.477.385.19.077.403.099.611.055l8.22-1.727c.338-.071.618-.304.755-.62C47.652 8.427 47.622 8.063 47.439 7.772M12.866 9.327l8.388 1.906c.442.101.898-.095 1.134-.483l4.455-7.357c.179-.296.201-.66.061-.972-.138-.315-.425-.542-.766-.606L17.892.23c-.212-.04-.424-.015-.612.066-.189.079-.353.217-.467.394l-4.593 7.032c-.189.29-.225.652-.095.971C12.254 9.014 12.53 9.251 12.866 9.327M56.512 32.085l-7.277 4.582c-.385.243-.57.702-.461 1.143l2.053 8.354c.082.334.323.606.644.73.323.124.684.082.969-.112l6.953-4.715c.176-.119.31-.287.385-.478.078-.187.101-.4.055-.611l-1.727-8.22c-.069-.336-.301-.617-.619-.752C57.167 31.874 56.805 31.9 56.512 32.085M57.858 25.541l1.906-8.388c.099-.443-.094-.899-.481-1.133l-7.36-4.456c-.294-.179-.658-.201-.971-.061-.316.141-.544.426-.606.763l-1.585 8.251c-.039.211-.013.421.066.61.082.187.214.353.393.47l7.035 4.593c.288.187.652.223.969.093C57.544 26.154 57.78 25.876 57.858 25.541M7.77 11.575l-7.278 4.582c-.385.242-.57.703-.461 1.143l2.053 8.353c.083.335.324.607.645.73.321.125.683.084.968-.111l6.953-4.715c.178-.12.308-.287.386-.476.075-.191.097-.404.054-.612l-1.727-8.22c-.071-.337-.302-.618-.62-.755C8.426 11.362 8.062 11.391 7.77 11.575M9.322 46.144l1.91-8.388c.1-.439-.096-.898-.483-1.134l-7.357-4.452c-.295-.18-.661-.202-.974-.061-.315.139-.543.422-.609.761l-1.581 8.252c-.039.209-.013.421.064.609.082.191.214.355.396.471l7.034 4.592c.287.19.65.224.971.096C9.01 46.759 9.248 46.481 9.322 46.144"/><g><g><path fill="#D52E61" d="M105.235 7.142 98.904 28.976 98.079 28.976 91.658 7.906 91.598 7.906 85.298 28.976 84.472 28.976 78.051 7.142 78.66 7.142 84.841 28.213 84.902 28.213 91.2 7.142 92.086 7.142 98.477 28.213 98.538 28.213 104.625 7.142zM106.566 13.656c.437-1.386 1.081-2.599 1.927-3.639.846-1.039 1.897-1.866 3.149-2.477 1.254-.612 2.697-.916 4.327-.916 1.632 0 3.076.304 4.327.916 1.254.611 2.306 1.437 3.15 2.477.846 1.041 1.49 2.253 1.928 3.639.439 1.386.658 2.855.658 4.402 0 1.552-.219 3.018-.658 4.405-.438 1.387-1.082 2.6-1.928 3.639-.844 1.041-1.896 1.861-3.15 2.462-1.251.6-2.695.901-4.327.901-1.63 0-3.073-.301-4.327-.901-1.251-.601-2.303-1.422-3.149-2.462-.846-1.039-1.49-2.252-1.927-3.639-.439-1.386-.657-2.853-.657-4.405C105.909 16.511 106.127 15.042 106.566 13.656M107.207 22.402c.439 1.324 1.06 2.467 1.866 3.425.807.958 1.789 1.709 2.951 2.248 1.162.54 2.477.812 3.943.812 1.469 0 2.782-.271 3.947-.812 1.162-.539 2.145-1.29 2.95-2.248.804-.958 1.425-2.101 1.867-3.425.437-1.325.666-2.773.684-4.344-.018-1.568-.247-3.016-.684-4.341-.442-1.324-1.063-2.467-1.867-3.425-.806-.958-1.788-1.706-2.95-2.248-1.165-.539-2.478-.811-3.947-.811-1.467 0-2.781.271-3.943.811-1.162.542-2.145 1.29-2.951 2.248-.806.958-1.426 2.101-1.866 3.425-.438 1.325-.667 2.774-.688 4.341C106.54 19.63 106.769 21.077 107.207 22.402M149.792 7.142 149.792 28.976 149.18 28.976 149.18 7.906 149.118 7.906 139.851 28.976 139.18 28.976 129.915 7.906 129.852 7.906 129.852 28.976 129.241 28.976 129.241 7.142 130.25 7.142 139.485 28.182 139.547 28.182 148.784 7.142zM152.391 28.976h-.673l8.837-21.834h.796l8.623 21.834H169.3l-2.874-7.186h-11.133L152.391 28.976zM160.984 7.754h-.062l-5.382 13.423h10.644L160.984 7.754zM172.818 7.142 187.742 28.213 187.803 28.213 187.803 7.142 188.414 7.142 188.414 28.976 187.497 28.976 172.574 7.906 172.514 7.906 172.514 28.976 171.9 28.976 171.9 7.142z"/></g><g><g><path fill="#D52E61" d="M91.224 39.776 81.428 39.776 81.428 43.707 90.42 43.707 90.42 46.922 81.428 46.922 81.428 51.681 91.677 51.681 91.677 55.008 77.648 55.008 77.648 36.497 91.224 36.497zM99.189 55.008 94.694 55.008 100.647 45.577 94.983 36.497 99.603 36.497 102.906 42.526 106.3 36.497 110.767 36.497 105.104 45.427 111.12 55.008 106.424 55.008 102.906 48.698zM126.331 46.996c-1.084.904-2.634 1.356-4.644 1.356h-3.853v6.656h-3.842V36.497h7.948c1.832 0 3.293.478 4.383 1.433 1.088.955 1.633 2.432 1.633 4.433C127.954 44.547 127.414 46.092 126.331 46.996M123.375 40.328c-.488-.41-1.173-.616-2.057-.616h-3.486v5.451h3.486c.884 0 1.569-.223 2.057-.665.493-.445.735-1.15.735-2.113C124.111 41.424 123.868 40.738 123.375 40.328M145.31 53.363c-1.397 1.441-3.42 2.162-6.065 2.162-2.647 0-4.669-.72-6.066-2.162-1.877-1.766-2.813-4.31-2.813-7.635 0-3.391.936-5.937 2.813-7.635 1.397-1.441 3.419-2.16 6.066-2.16 2.645 0 4.668.719 6.065 2.16 1.867 1.698 2.802 4.244 2.802 7.635C148.112 49.053 147.177 51.597 145.31 53.363M142.892 50.551c.901-1.131 1.35-2.739 1.35-4.823 0-2.075-.449-3.682-1.35-4.816-.898-1.134-2.114-1.703-3.646-1.703-1.531 0-2.757.567-3.668 1.697-.912 1.131-1.369 2.738-1.369 4.822 0 2.085.458 3.693 1.369 4.823.912 1.129 2.137 1.694 3.668 1.694C140.778 52.245 141.993 51.681 142.892 50.551"/></g><g><path fill="#D52E61" d="M153.668 51.08c.01-.52.099-.981.27-1.381.17-.4.396-.761.675-1.081.282-.321.596-.613.947-.879.35-.266.71-.521 1.08-.766.37-.245.739-.496 1.104-.751.366-.255.692-.527.983-.818.29-.29.508-.587.653-.893.146-.305.218-.669.218-1.088 0-.34-.062-.643-.188-.907-.125-.266-.295-.492-.51-.677-.215-.185-.465-.325-.749-.42-.286-.096-.588-.142-.91-.142-.43 0-.797.081-1.102.24-.306.159-.554.375-.744.646-.19.269-.328.58-.413.93-.085.35-.123.72-.113 1.111h-.946c-.01-.541.054-1.038.188-1.493.136-.456.342-.85.623-1.179.28-.33.631-.588 1.058-.773.425-.186.923-.279 1.493-.279.46 0 .888.063 1.285.188.395.126.74.311 1.036.555.295.246.526.554.69.924.165.37.248.8.248 1.29 0 .44-.073.842-.217 1.201-.146.361-.341.69-.586.99-.246.3-.526.578-.841.834-.315.255-.647.492-.998.713-.251.17-.546.358-.887.563-.339.205-.668.433-.983.683-.315.25-.593.523-.833.818-.241.295-.391.618-.452.969h5.84v.871H153.668zM168.419 40.984c.475.335.845.763 1.111 1.283.265.52.445 1.101.54 1.742.095.64.142 1.266.142 1.876 0 .62-.047 1.251-.142 1.891-.095.641-.275 1.222-.54 1.742-.266.52-.636.944-1.111 1.275-.476.33-1.098.495-1.869.495-.761 0-1.382-.165-1.862-.495-.479-.331-.852-.756-1.118-1.275-.265-.52-.445-1.101-.54-1.742-.095-.64-.142-1.265-.142-1.876 0-.62.047-1.251.142-1.892.095-.641.275-1.222.54-1.742.266-.52.639-.949 1.118-1.283.48-.336 1.101-.503 1.862-.503C167.321 40.481 167.942 40.648 168.419 40.984zM165.107 41.742c-.359.31-.632.696-.817 1.156-.185.46-.308.961-.368 1.502-.06.539-.091 1.035-.091 1.485 0 .46.031.957.091 1.495.061.535.183 1.034.368 1.501.185.465.458.852.817 1.163.361.311.841.466 1.442.466.6 0 1.08-.155 1.441-.466.359-.31.632-.697.818-1.163.185-.466.307-.966.367-1.501.061-.537.091-1.034.091-1.495 0-.45-.031-.946-.091-1.485-.06-.542-.182-1.042-.367-1.502-.186-.46-.459-.845-.818-1.156-.362-.311-.841-.465-1.441-.465C165.949 41.277 165.468 41.431 165.107 41.742zM172.164 51.08c.009-.52.099-.981.269-1.381.171-.4.396-.761.676-1.081.279-.321.595-.613.946-.879.349-.266.71-.521 1.08-.766.371-.245.739-.496 1.105-.751.365-.255.692-.527.984-.818.288-.29.507-.587.652-.893.146-.305.218-.669.218-1.088 0-.34-.064-.643-.188-.907-.125-.266-.294-.492-.51-.677-.215-.185-.466-.325-.75-.42-.286-.096-.589-.142-.909-.142-.43 0-.799.081-1.104.24-.305.159-.553.375-.742.646-.191.269-.328.58-.414.93-.085.35-.122.72-.114 1.111h-.944c-.012-.541.053-1.038.186-1.493.136-.456.343-.85.624-1.179.279-.33.632-.588 1.058-.773.425-.186.924-.279 1.493-.279.46 0 .889.063 1.284.188.395.126.74.311 1.036.555.295.246.527.554.692.924.163.37.246.8.246 1.29 0 .44-.072.842-.217 1.201-.146.361-.339.69-.585.99-.246.3-.526.578-.842.834-.315.255-.648.492-.999.713-.25.17-.545.358-.885.563-.34.205-.667.433-.983.683-.315.25-.593.523-.834.818-.239.295-.39.618-.45.969h5.84v.871H172.164zM183.446 42.529c.336-.033.626-.117.871-.247.246-.129.45-.329.616-.593.166-.265.283-.638.353-1.118h.766V51.08h-.947v-7.807h-2.778v-.675C182.739 42.588 183.11 42.566 183.446 42.529z"/></g></g></g></g></svg>