<svg version="1.1" xmlns="http://www.w3.org/2000/svg" xmlns:xlink="http://www.w3.org/1999/xlink" x="0px" y="0px" width="202.828px" height="60px" viewBox="0 0 202.828 60" xml:space="preserve"><g><path fill="#EE93AB" d="m14.244 18.82 4.821-4.055c.147-.122.212-.316.167-.503-.045-.186-.191-.331-.377-.374l-5.095-1.165c-.155-.034-.316.004-.436.105-.063.052-.113.122-.142.196-.028.067-.041.141-.038.217l.273 5.219c.01.191.127.36.302.437C13.893 18.973 14.098 18.943 14.244 18.82M19.165 45.177l-4.506-4.4c-.138-.133-.338-.176-.517-.116-.181.063-.312.223-.336.411l-.658 5.186c-.019.157.035.313.148.424.057.057.13.1.207.122.071.022.146.027.219.016l5.168-.784c.19-.028.346-.162.403-.343C19.353 45.51 19.303 45.31 19.165 45.177M45.607 18.82l-4.822-4.055c-.146-.122-.211-.316-.166-.503.046-.186.191-.331.378-.374l5.095-1.165c.153-.034.315.004.437.105.062.052.11.122.14.196.029.067.041.141.038.217l-.274 5.219c-.008.191-.124.36-.301.437C45.957 18.973 45.754 18.943 45.607 18.82M40.685 45.177l4.508-4.4c.138-.133.338-.176.517-.116.181.063.309.223.333.411l.66 5.186c.021.157-.034.313-.147.424-.058.057-.129.1-.208.122-.071.022-.144.027-.219.016l-5.169-.784c-.187-.028-.344-.162-.404-.343C40.497 45.51 40.549 45.31 40.685 45.177M37.429 15.062l-6.9-9.091c-.364-.477-.859-.482-1.232-.01l-7.051 8.971c-.285.359-.452.942-.452 1.559 0 .62.169 1.195.453 1.542l6.905 8.459c.175.214.379.323.583.324.205.002.409-.101.59-.314l7.046-8.34c.291-.343.467-.914.482-1.532C37.864 16.012 37.704 15.426 37.429 15.062M37.429 40.9l-6.9-9.091c-.364-.477-.859-.482-1.232-.011l-7.051 8.97c-.285.36-.452.943-.452 1.562 0 .618.169 1.194.453 1.54l6.905 8.46c.175.215.379.323.583.324.205.004.409-.102.59-.314l7.046-8.337c.291-.343.467-.916.482-1.534C37.864 41.85 37.704 41.264 37.429 40.9M43.683 36.793l9.091-6.899c.478-.364.482-.858.01-1.232l-8.97-7.052c-.359-.284-.942-.45-1.559-.45-.619 0-1.196.169-1.543.452l-8.458 6.905c-.215.175-.323.38-.325.583-.001.206.102.41.316.592l8.337 7.046c.342.29.914.467 1.534.48C42.734 37.229 43.321 37.071 43.683 36.793M17.845 36.793l9.091-6.899c.477-.364.482-.858.009-1.232l-8.969-7.052c-.359-.284-.942-.45-1.56-.45-.618 0-1.194.169-1.541.452l-8.458 6.905C6.2 28.692 6.093 28.897 6.092 29.1c-.004.206.104.41.314.592l8.338 7.046c.343.29.915.467 1.532.48C16.896 37.229 17.483 37.071 17.845 36.793"/><path fill="#D52E61" d="m26.927 56.659-4.585-7.28c-.24-.382-.7-.57-1.142-.46l-8.352 2.053c-.335.082-.607.322-.731.643-.123.324-.082.686.111.97l4.715 6.953c.12.178.288.308.478.385.19.077.402.099.61.055l8.221-1.728c.337-.068.618-.299.753-.618C27.139 57.315 27.111 56.95 26.927 56.659M33.47 58.068l8.389 1.905c.442.101.898-.094 1.134-.48l4.456-7.361c.178-.292.2-.656.06-.971-.141-.316-.426-.54-.764-.607l-8.249-1.582c-.211-.041-.421-.013-.611.067-.187.079-.353.213-.467.394l-4.593 7.032c-.19.287-.224.651-.095.971C32.858 57.755 33.135 57.991 33.47 58.068M47.439 7.772l-4.585-7.279c-.241-.385-.701-.571-1.143-.463l-8.352 2.053c-.334.083-.607.325-.731.645-.124.323-.08.684.111.97l4.716 6.952c.121.176.286.307.477.385.19.077.403.099.611.055l8.22-1.727c.338-.071.618-.304.755-.62C47.652 8.427 47.622 8.063 47.439 7.772M12.866 9.327l8.388 1.906c.442.101.898-.095 1.134-.483l4.455-7.357c.179-.296.201-.66.061-.972-.138-.315-.425-.542-.766-.606L17.892.23c-.212-.04-.424-.015-.612.066-.189.079-.353.217-.467.394l-4.593 7.032c-.189.29-.225.652-.095.971C12.254 9.014 12.53 9.251 12.866 9.327M56.512 32.085l-7.277 4.582c-.385.243-.57.702-.461 1.143l2.053 8.354c.082.334.323.606.644.73.323.124.684.082.969-.112l6.953-4.715c.176-.119.31-.287.385-.478.078-.187.101-.4.055-.611l-1.727-8.22c-.069-.336-.301-.617-.619-.752C57.167 31.874 56.805 31.9 56.512 32.085M57.858 25.541l1.906-8.388c.099-.443-.094-.899-.481-1.133l-7.36-4.456c-.294-.179-.658-.201-.971-.061-.316.141-.544.426-.606.763l-1.585 8.251c-.039.211-.013.421.066.61.082.187.214.353.393.47l7.035 4.593c.288.187.652.223.969.093C57.544 26.154 57.78 25.876 57.858 25.541M7.77 11.575l-7.278 4.582c-.385.242-.57.703-.461 1.143l2.053 8.353c.083.335.324.607.645.73.321.125.683.084.968-.111l6.953-4.715c.178-.12.308-.287.386-.476.075-.191.097-.404.054-.612l-1.727-8.22c-.071-.337-.302-.618-.62-.755C8.426 11.362 8.062 11.391 7.77 11.575M9.322 46.144l1.91-8.388c.1-.439-.096-.898-.483-1.134l-7.357-4.452c-.295-.18-.661-.202-.974-.061-.315.139-.543.422-.609.761l-1.581 8.252c-.039.209-.013.421.064.609.082.191.214.355.396.471l7.034 4.592c.287.19.65.224.971.096C9.01 46.759 9.248 46.481 9.322 46.144"/><g><g><path fill="#D52E61" d="M105.235 7.142 98.904 28.976 98.079 28.976 91.658 7.906 91.598 7.906 85.298 28.976 84.472 28.976 78.051 7.142 78.66 7.142 84.841 28.213 84.902 28.213 91.2 7.142 92.086 7.142 98.477 28.213 98.538 28.213 104.625 7.142zM106.566 13.656c.437-1.386 1.081-2.599 1.927-3.639.846-1.039 1.897-1.866 3.149-2.477 1.254-.612 2.697-.916 4.327-.916 1.632 0 3.076.304 4.327.916 1.254.611 2.306 1.437 3.15 2.477.846 1.041 1.49 2.253 1.928 3.639.439 1.386.658 2.855.658 4.402 0 1.552-.219 3.018-.658 4.405-.438 1.387-1.082 2.6-1.928 3.639-.844 1.041-1.896 1.861-3.15 2.462-1.251.6-2.695.901-4.327.901-1.63 0-3.073-.301-4.327-.901-1.251-.601-2.303-1.422-3.149-2.462-.846-1.039-1.49-2.252-1.927-3.639-.439-1.386-.657-2.853-.657-4.405C105.909 16.511 106.127 15.042 106.566 13.656M107.207 22.402c.439 1.324 1.06 2.467 1.866 3.425.807.958 1.789 1.709 2.951 2.248 1.162.54 2.477.812 3.943.812 1.469 0 2.782-.271 3.947-.812 1.162-.539 2.145-1.29 2.95-2.248.804-.958 1.425-2.101 1.867-3.425.437-1.325.666-2.773.684-4.344-.018-1.568-.247-3.016-.684-4.341-.442-1.324-1.063-2.467-1.867-3.425-.806-.958-1.788-1.706-2.95-2.248-1.165-.539-2.478-.811-3.947-.811-1.467 0-2.781.271-3.943.811-1.162.542-2.145 1.29-2.951 2.248-.806.958-1.426 2.101-1.866 3.425-.438 1.325-.667 2.774-.688 4.341C106.54 19.63 106.769 21.077 107.207 22.402M149.792 7.142 149.792 28.976 149.18 28.976 149.18 7.906 149.118 7.906 139.851 28.976 139.18 28.976 129.915 7.906 129.852 7.906 129.852 28.976 129.241 28.976 129.241 7.142 130.25 7.142 139.485 28.182 139.547 28.182 148.784 7.142zM152.391 28.976h-.673l8.837-21.834h.796l8.623 21.834H169.3l-2.874-7.186h-11.133L152.391 28.976zM160.984 7.754h-.062l-5.382 13.423h10.644L160.984 7.754zM172.818 7.142 187.742 28.213 187.803 28.213 187.803 7.142 188.414 7.142 188.414 28.976 187.497 28.976 172.574 7.906 172.514 7.906 172.514 28.976 171.9 28.976 171.9 7.142z"/></g><g><g><path fill="#D52E61" d="M91.225 39.776 81.428 39.776 81.428 43.707 90.42 43.707 90.42 46.922 81.428 46.922 81.428 51.681 91.677 51.681 91.677 55.008 77.648 55.008 77.648 36.497 91.225 36.497zM99.189 55.008 94.694 55.008 100.647 45.577 94.983 36.497 99.603 36.497 102.906 42.526 106.3 36.497 110.768 36.497 105.104 45.427 111.12 55.008 106.424 55.008 102.906 48.698zM126.331 46.996c-1.084.904-2.634 1.356-4.644 1.356h-3.853v6.656h-3.842V36.497h7.948c1.832 0 3.293.478 4.383 1.433 1.088.955 1.633 2.432 1.633 4.433C127.954 44.547 127.414 46.092 126.331 46.996M123.376 40.328c-.488-.41-1.173-.616-2.057-.616h-3.486v5.451h3.486c.884 0 1.569-.223 2.057-.665.493-.445.735-1.15.735-2.113C124.111 41.424 123.868 40.738 123.376 40.328M145.31 53.363c-1.397 1.441-3.42 2.162-6.065 2.162-2.647 0-4.669-.72-6.066-2.162-1.877-1.766-2.813-4.31-2.813-7.635 0-3.391.936-5.937 2.813-7.635 1.397-1.441 3.419-2.16 6.066-2.16 2.645 0 4.668.719 6.065 2.16 1.867 1.698 2.802 4.244 2.802 7.635C148.112 49.053 147.177 51.597 145.31 53.363M142.892 50.551c.901-1.131 1.35-2.739 1.35-4.823 0-2.075-.449-3.682-1.35-4.816-.898-1.134-2.114-1.703-3.646-1.703-1.531 0-2.757.567-3.668 1.697-.912 1.131-1.369 2.738-1.369 4.822 0 2.085.458 3.693 1.369 4.823.912 1.129 2.137 1.694 3.668 1.694C140.778 52.245 141.994 51.681 142.892 50.551"/></g><g><g><g><path fill="#D52E61" d="M155.325 50.179c0-.349.054-.665.161-.95.107-.285.262-.529.463-.734.201-.204.444-.362.729-.473.285-.11.601-.166.95-.166.355 0 .668.052.94.156.271.104.5.243.684.417.184.175.323.382.417.624.094.241.141.496.141.764 0 .315-.052.593-.156.834-.103.242-.241.456-.412.643-.171.188-.365.355-.583.503-.218.148-.441.287-.669.417-.228.131-.452.256-.673.377-.222.121-.419.248-.593.382-.114.087-.225.18-.332.276-.107.097-.204.203-.291.317-.087.114-.158.24-.211.377-.054.138-.084.29-.091.458h3.951v.543h-4.634c.007-.342.043-.65.111-.925.067-.274.214-.543.442-.804.248-.282.505-.523.769-.724.265-.201.525-.38.779-.538.255-.157.496-.301.724-.432.228-.131.429-.273.603-.427.174-.154.312-.328.412-.523.101-.194.151-.432.151-.714 0-.228-.04-.432-.121-.613-.08-.181-.191-.335-.332-.463-.141-.127-.305-.223-.493-.287-.187-.064-.392-.096-.613-.096-.235 0-.447.049-.638.145-.191.097-.355.226-.493.387-.138.161-.243.349-.316.563-.074.215-.104.442-.091.684H155.325zM163.827 47.856c.349 0 .65.052.905.156.255.104.471.246.649.427.177.181.321.392.432.634.111.241.196.497.256.769.06.271.1.551.12.84.02.288.03.57.03.844 0 .469-.033.918-.1 1.347-.067.429-.189.808-.367 1.136-.178.328-.421.59-.729.784-.308.194-.707.292-1.196.292-.489 0-.89-.097-1.201-.292-.312-.194-.556-.457-.734-.789-.178-.332-.3-.717-.367-1.156-.067-.439-.1-.903-.1-1.392 0-.449.03-.888.091-1.317.06-.429.176-.812.347-1.151.171-.338.414-.612.729-.819C162.905 47.96 163.317 47.856 163.827 47.856zM165.576 51.455c0-.382-.022-.756-.066-1.121-.043-.365-.129-.692-.256-.98-.127-.288-.307-.519-.538-.694-.231-.174-.534-.261-.91-.261-.355 0-.645.089-.87.267-.225.178-.4.414-.528.708-.127.295-.216.63-.267 1.005-.05.375-.075.758-.075 1.146 0 .456.029.87.086 1.242.057.372.152.688.287.95.134.261.313.464.537.608.225.144.508.216.85.216.382 0 .689-.094.92-.281.231-.188.407-.429.528-.724.12-.295.201-.626.242-.995C165.556 52.172 165.576 51.811 165.576 51.455zM169.453 49.676h-1.83v-.422c.268-.02.511-.047.729-.08.218-.034.409-.097.573-.191.164-.094.301-.229.412-.407.111-.178.192-.417.246-.719h.512v7.087h-.643V49.676z"/></g><g><path fill="#D52E61" d="M176.537,49.456c-0.05-0.31-0.2-0.58-0.38-0.76c-0.31-0.3-0.7-0.35-1.009-0.35 c-0.42,0-0.79,0.1-1.12,0.439c-0.669,0.69-0.699,2.119-0.689,2.569h0.02c0.18-0.36,0.44-0.58,0.669-0.7 c0.38-0.21,0.79-0.239,1.1-0.239c0.49,0,1.049,0.1,1.529,0.549c0.34,0.32,0.669,0.86,0.669,1.76c0,0.77-0.24,1.369-0.6,1.769 c-0.5,0.55-1.139,0.66-1.669,0.66c-0.47,0-1.16-0.08-1.679-0.63c-0.59-0.609-0.78-1.679-0.78-2.929 c0-1.259,0.19-2.509,0.959-3.248c0.48-0.47,1.03-0.609,1.629-0.609c0.45,0,0.989,0.069,1.459,0.539 c0.16,0.15,0.49,0.54,0.58,1.18H176.537z M173.928,54.124c0.21,0.209,0.569,0.419,1.139,0.419c0.37,0,0.74-0.09,1.049-0.399 c0.46-0.46,0.49-1.1,0.49-1.409c0-0.37-0.07-0.899-0.459-1.289c-0.19-0.19-0.54-0.42-1.109-0.42 c-0.58,0-0.93,0.229-1.129,0.43c-0.22,0.22-0.46,0.609-0.46,1.27C173.448,53.185,173.578,53.764,173.928,54.124z"/></g></g><g><path fill="#FF9B00" d="M155.049 43.587 155.049 36.249 159.794 36.249 159.794 36.856 155.711 36.856 155.711 39.505 159.408 39.505 159.408 40.112 155.711 40.112 155.711 43.587zM160.787 36.249h.717v4.359c0 .938.166 1.545.497 1.986.331.386.883.607 1.655.607.386 0 .717-.055.993-.166.276-.11.497-.276.662-.497.166-.221.276-.497.386-.828.055-.331.11-.717.11-1.159v-4.359h.717v4.579c0 .938-.221 1.71-.717 2.207s-1.159.772-2.152.772c-.938 0-1.655-.276-2.152-.772s-.717-1.269-.717-2.207L160.787 36.249 160.787 36.249zM168.18 43.587 168.18 36.249 168.897 36.249 168.897 40.056 172.649 36.249 173.421 36.249 170.552 39.174 173.973 43.587 173.09 43.587 170.056 39.615 168.897 40.774 168.897 43.587zM174.966 36.249h.717v4.359c0 .938.166 1.545.497 1.986.331.386.883.607 1.655.607.386 0 .717-.055.993-.166.276-.11.497-.276.662-.497.166-.221.276-.497.386-.828.055-.331.11-.717.11-1.159v-4.359h.717v4.579c0 .938-.221 1.71-.717 2.207s-1.159.772-2.152.772c-.938 0-1.655-.276-2.152-.772s-.717-1.269-.717-2.207L174.966 36.249 174.966 36.249zM182.028 39.946c0-.552.055-1.048.221-1.49.166-.497.386-.883.662-1.214s.662-.607 1.048-.828c.441-.221.883-.331 1.434-.331s1.048.11 1.49.276c.441.221.772.497 1.103.828.276.331.497.772.662 1.214.166.497.221.993.221 1.49 0 .552-.055 1.048-.221 1.49-.166.441-.386.883-.662 1.214s-.662.607-1.048.828c-.441.221-.938.331-1.49.331s-1.048-.11-1.49-.331c-.441-.221-.772-.497-1.048-.828s-.497-.772-.662-1.214C182.139 40.994 182.028 40.443 182.028 39.946M185.449 43.201c.497 0 .883-.11 1.214-.276s.607-.441.828-.717.386-.662.497-1.048c.11-.386.166-.828.166-1.214 0-.497-.055-.993-.166-1.379-.11-.386-.331-.772-.552-1.048s-.552-.497-.883-.662c-.331-.166-.717-.221-1.159-.221-.441 0-.883.11-1.214.276s-.607.441-.828.717-.386.662-.497 1.048c-.11.386-.166.828-.166 1.214 0 .441.055.828.166 1.269.11.386.276.717.497 1.048.221.276.497.552.828.717C184.566 43.091 185.008 43.201 185.449 43.201M190.304 43.587 190.304 36.249 191.022 36.249 191.022 40.056 194.773 36.249 195.546 36.249 192.677 39.174 196.042 43.587 195.215 43.587 192.18 39.615 191.022 40.774 191.022 43.587zM196.373 43.587l2.869-7.338h.772l2.814 7.338h-.717l-.828-2.317h-3.366l-.883 2.317H196.373zM198.194 40.718h2.869l-1.434-3.862L198.194 40.718z"/></g></g></g></g></g></svg>