<svg version="1.1" xmlns="http://www.w3.org/2000/svg" xmlns:xlink="http://www.w3.org/1999/xlink" x="0px" y="0px" width="168.173px" height="67.131px" viewBox="0 0 168.173 67.131" xml:space="preserve"><g><path fill="#EE93AB" d="m14.269 22.55 4.829-4.062c.148-.122.212-.317.167-.504-.045-.187-.191-.332-.378-.374l-5.104-1.167c-.155-.034-.317.004-.436.105-.063.052-.113.122-.143.196-.028.067-.041.141-.038.217l.273 5.228c.01.191.127.361.302.438C13.918 22.703 14.122 22.673 14.269 22.55M19.198 48.952l-4.514-4.407c-.138-.133-.339-.177-.518-.116-.182.063-.312.223-.337.412l-.66 5.195c-.02.157.035.313.149.424.057.057.13.1.207.122.071.022.146.027.219.016l5.177-.785c.19-.028.346-.162.404-.344C19.387 49.286 19.337 49.086 19.198 48.952M45.686 22.55l-4.83-4.062c-.147-.122-.212-.317-.166-.504.046-.187.192-.332.379-.374l5.104-1.167c.154-.034.315.004.438.105.062.052.109.122.14.196.03.067.041.141.038.217l-.274 5.228c-.008.191-.124.361-.301.438C46.037 22.703 45.833 22.673 45.686 22.55M40.756 48.952l4.516-4.407c.137-.133.339-.177.518-.116.181.063.31.223.334.412l.661 5.195c.021.157-.035.313-.148.424-.057.057-.129.1-.208.122-.07.022-.143.027-.219.016l-5.177-.785c-.188-.028-.346-.162-.405-.344C40.568 49.286 40.619 49.086 40.756 48.952M37.494 18.785l-6.911-9.106c-.365-.478-.861-.483-1.234-.01l-7.064 8.987c-.285.36-.452.944-.452 1.562 0 .621.169 1.197.454 1.545l6.918 8.474c.175.215.379.323.583.324.205.002.409-.101.591-.315l7.057-8.354c.292-.344.469-.916.483-1.535C37.929 19.737 37.77 19.149 37.494 18.785M37.494 44.667l-6.911-9.106c-.365-.478-.861-.483-1.234-.011l-7.064 8.986C22 44.897 21.833 45.481 21.833 46.1c0 .619.169 1.196.454 1.542l6.918 8.475c.175.216.379.323.583.324.205.004.409-.102.591-.315l7.057-8.352c.292-.344.469-.918.483-1.536C37.929 45.62 37.77 45.032 37.494 44.667M43.759 40.554l9.106-6.911c.479-.365.482-.86.01-1.234l-8.986-7.064c-.359-.284-.943-.451-1.561-.451-.621 0-1.198.169-1.546.452l-8.472 6.917c-.216.176-.322.38-.326.584-.001.206.102.411.316.593l8.352 7.058c.343.29.916.468 1.537.48C42.808 40.99 43.397 40.832 43.759 40.554M17.876 40.554l9.107-6.911c.479-.365.483-.86.009-1.234l-8.986-7.064c-.36-.284-.944-.451-1.563-.451-.619 0-1.196.169-1.543.452l-8.472 6.917c-.217.176-.324.38-.326.584-.004.206.104.411.315.593l8.353 7.058c.344.29.917.468 1.535.48C16.925 40.99 17.513 40.832 17.876 40.554"/><path fill="#D52E61" d="m26.973 60.454-4.592-7.292c-.241-.383-.702-.571-1.144-.461l-8.366 2.057c-.335.082-.608.323-.733.644-.123.324-.082.688.111.972l4.723 6.965c.121.178.289.308.479.385.19.077.402.099.611.055l8.235-1.731c.338-.068.62-.3.755-.619C27.186 61.111 27.158 60.745 26.973 60.454M33.528 61.866l8.405 1.908c.443.101.9-.094 1.136-.48l4.464-7.374c.179-.293.201-.657.061-.973-.142-.317-.428-.541-.766-.608l-8.264-1.585c-.211-.042-.422-.013-.613.067-.188.079-.354.213-.468.395l-4.601 7.045c-.19.288-.224.652-.095.973C32.914 61.552 33.193 61.789 33.528 61.866M47.52 11.483 42.928 4.19c-.241-.385-.703-.572-1.145-.463l-8.366 2.057c-.335.083-.609.325-.733.646-.125.323-.08.685.111.972l4.724 6.964c.121.177.287.307.478.385.19.077.404.099.612.055l8.234-1.73c.34-.071.62-.305.757-.621C47.734 12.139 47.705 11.774 47.52 11.483M12.889 13.04l8.403 1.909c.443.101.9-.095 1.135-.484l4.464-7.37c.179-.296.201-.661.06-.974-.138-.316-.425-.543-.768-.607l-8.26-1.586c-.212-.04-.424-.015-.613.066-.189.079-.354.217-.468.395l-4.601 7.045c-.189.29-.226.654-.095.973C12.275 12.726 12.552 12.964 12.889 13.04M56.61 35.838l-7.29 4.59c-.386.244-.571.704-.462 1.145l2.057 8.369c.081.334.323.607.645.732.324.124.685.082.971-.112l6.965-4.723c.177-.119.311-.288.385-.479.078-.188.101-.401.055-.612l-1.73-8.235c-.069-.337-.302-.618-.62-.754C57.266 35.626 56.905 35.652 56.61 35.838M57.958 29.282l1.909-8.403c.099-.444-.094-.901-.482-1.135l-7.373-4.464c-.295-.179-.66-.201-.973-.061-.318.141-.545.427-.608.764l-1.587 8.265c-.039.211-.013.422.066.611.082.188.215.354.394.471l7.046 4.601c.29.188.654.223.971.093C57.644 29.897 57.881 29.617 57.958 29.282M7.784 15.291l-7.291 4.59c-.385.243-.571.705-.462 1.145l2.057 8.368c.083.335.324.608.646.732.322.126.684.084.969-.111l6.965-4.723c.178-.121.308-.288.386-.477.076-.191.098-.405.054-.613l-1.73-8.235c-.071-.338-.302-.619-.621-.756C8.441 15.078 8.076 15.107 7.784 15.291M9.338 49.921l1.913-8.403c.1-.44-.096-.9-.484-1.136l-7.37-4.46c-.295-.18-.662-.202-.975-.061C2.106 36 1.878 36.284 1.812 36.623l-1.584 8.266c-.039.21-.013.422.065.61.082.191.215.356.396.472l7.046 4.6c.288.19.651.224.973.096C9.026 50.537 9.264 50.259 9.338 49.921"/><g><g><g><path fill="#D52E61" d="M110.615 55.35c-.13.064-.256.134-.379.212.323.187.549.473.672.855.505 1.566-.855 4.354-1.998 6.036.104.15.211.289.329.401.006.007.015.011.022.018 3.898-4.347 3.198-6.428 3.102-6.656-.243-.657-.636-.986-1.173-.986C110.871 55.229 110.618 55.348 110.615 55.35zM102.571 62.191c.771-2.937.985-3.678 1.62-5.878.26-.899.589-2.04 1.056-3.677.352-1.193.447-2.224.287-3.069-.215-.85-.883-1.282-1.987-1.282-.127 0-.249.007-.365.016-.016.001-.033.002-.049.004-.107.01-.207.023-.297.037-.017.003-.033.005-.05.008-.084.013-.16.028-.221.041-.01.002-.018.004-.028.006-.055.012-.104.024-.128.03.156 1.177-.072 2.403-.212 3.163l-.04.216c-.035.128-2.543 8.664-2.868 9.951-.029.115-.065.245-.104.388-.307 1.125-.821 3.007.005 4.087.616.807 1.963 1.075 3.96.788.012-.001.026-.003.038-.005-.028-.018-.056-.037-.083-.057C102.413 66.46 101.759 65.23 102.571 62.191z"/><path fill="#D52E61" d="M101.821 47.796h.001l.106-.041c.073-.029.148-.058.219-.082.043-.013.654-.185 1.398-.185.18 0 .354.01.519.03.055.007.105.02.16.029.106.018.212.034.312.06.06.016.113.038.172.057.085.028.172.055.251.09.056.024.107.055.16.083.06.031.123.058.179.093-.173-.445-.407-.84-.699-1.16-.89-.979-2.278-1.28-4.038-.876-.289.07-.58.152-.871.235-.004.001-.007.002-.01.004C89.369 49.081 81.353 59.235 78.93 62.594l4.721-1.865c.047-.018.097-.027.146-.027.062 0 .124.014.181.043.102.052.176.145.205.256l1.293 5.038c.449-1.695 1.495-4.426 3.927-7.609C93.39 53.21 98.03 49.236 101.821 47.796L101.821 47.796zM117.15 56.618c-.033-.206-.073-.173-.146-.173-.056 0-.113.38-.15.522-.782 4.766-2.487 5.662-2.527 5.7-.622.621-2.301 1.102-3.693 1.102-.499 0-.944-.139-1.331-.406-.049-.033-.094-.074-.14-.112-.057-.046-.118-.085-.173-.138-.146-.141-.28-.316-.407-.505-.035-.054-.072-.106-.106-.163-.013-.023-.029-.041-.043-.065-.267-.474-.476-1.077-.618-1.793-.001-.004-.002-.009-.004-.015l-.01-.05c-.002-.013-.004-.026-.002-.039-.066-.566-.294-3.571 2.034-5.194.224-.157.465-.297.715-.415.015-.007.36-.165.797-.154-.267-.096-.604-.122-.967-.05-.023.004-1.045.145-2.139.94-1.444 1.051-2.359 2.768-2.649 4.967-.15 1.368.207 2.729 1.007 3.826.139.19.284.365.434.522.001.001.002.002.004.004.883.922 2.028 1.43 3.225 1.43.293 0 .589-.032.883-.091 2.395-.488 5.652-2.851 5.912-7.321.09-.833.118-1.578.108-2.242C117.157 56.672 117.154 56.643 117.15 56.618zM103.701 66.378c-.101.028-.204.065-.305.087.2.092.43.138.688.138h.001c.519 0 1.138-.201 1.792-.555.133-.069.268-.145.405-.229.006-.004.013-.008.02-.012.118-.073.237-.155.355-.239.028-.02.056-.037.084-.057l.074-.058c-.134-.126-.267-.263-.395-.408C105.502 65.694 104.591 66.134 103.701 66.378z"/></g><g><g><path fill="#D52E61" d="M123.555,59.479c-0.752,0.906-1.506,1.818-2.26,2.734c-1.229,1.509-1.853,2.356-1.87,2.539l0.221,0.121 c0.555-0.03,1.422-0.502,2.598-1.418c1.222-0.944,1.587-1.27,2.085-1.65l-0.048,0.389c-1.142,1.072-0.727,0.714-2.207,1.812 c-1.309,0.973-2.276,1.32-2.701,1.363c-0.529,0.052-0.792-0.201-0.792-0.764c0-0.433,0.169-0.913,0.506-1.441 c0.026-0.037,0.338-0.457,0.935-1.263c-0.363,0.305-0.835,0.643-1.416,1.013l-0.143-0.155l0.09-0.165 c1.447-1.106,2.624-2.096,3.533-2.966L123.555,59.479z M126.296,56.189c-0.121,0.316-0.402,0.638-0.844,0.968 c-0.321-0.183-0.575-0.435-0.766-0.753c0.163-0.38,0.428-0.688,0.791-0.924C125.746,55.582,126.019,55.819,126.296,56.189z"/><path fill="#D52E61" d="M133.518 62.879c-1.359.847-2.269 1.294-2.727 1.34-.538.054-.806-.222-.806-.828 0-.528.39-1.305 1.169-2.325.605-.712 1.208-1.425 1.804-2.143l-.221-.044c-1.446.146-3.714 2.089-6.806 5.829l-1.468.148c1.317-1.69 2.654-3.488 4.015-5.391l-.144-.104c-.529.046-1.931 1.041-4.209 2.983l-.143-.141.065-.137c.651-.637 1.363-1.245 2.143-1.826 1.056-.781 1.841-1.198 2.352-1.25.432-.044.65.165.65.624 0 .414-.174.925-.521 1.533 1.828-1.63 3.179-2.49 4.054-2.579.474-.048.713.21.713.772 0 .673-.438 1.514-1.313 2.523-.873 1.007-1.311 1.58-1.311 1.719 0 .112.078.16.234.144.624-.063 1.522-.215 2.694-1.121M136.544 61.121l-.116-.171.078-.164c2.458-1.91 4.242-3.54 5.35-4.89l-.674.068-.221-.147c.07-.164.472-.269 1.208-.316l2.26-2.76 1.513-.152-2.277 2.762 1.634-.164.169.164c-.027.158-.711.288-2.053.389-1.039 1.255-2.078 2.512-3.116 3.768-1.715 2.103-2.586 3.249-2.612 3.432l.195.098c1.005-.049 2.519-.999 4.546-2.848l.116.171c-.008.363-.713.98-2.117 1.848-1.342.829-2.252 1.266-2.727 1.314-.536.054-.806-.193-.806-.738 0-.615.299-1.298.896-2.05.528-.582 1.056-1.163 1.584-1.745C138.528 59.665 137.583 60.376 136.544 61.121z"/><path fill="#D52E61" d="M148.326,59.515l0.13,0.251l0.129-0.016c-2.364,1.943-4.178,3.111-5.079,3.202 c-1.133,0.114-1.701-0.267-1.701-1.141c0-0.935,0.594-1.939,1.78-3.01c1.134-1.024,2.177-1.584,3.13-1.68 c0.546-0.055,0.818,0.144,0.818,0.594c0,0.519-0.415,1.02-1.246,1.502c-0.772,0.406-1.542,0.818-2.312,1.233 c-0.833,0.516-1.247,1.087-1.247,1.71c0,0.311,0.194,0.449,0.584,0.409c0.823-0.083,1.86-0.603,3.111-1.559 C147.675,60.053,148.307,59.516,148.326,59.515z M144.222,59.802c1.948-0.837,2.922-1.514,2.922-2.035 c0-0.199-0.095-0.289-0.287-0.269C146.191,57.564,145.313,58.332,144.222,59.802z"/><path fill="#D52E61" d="M148.183 59.637c1.092-1.019 1.893-1.819 2.403-2.398-.319-.072-.48-.26-.48-.561 0-.52.268-.807.806-.861.346-.034.518.127.518.48 0 .208-.082.385-.246.532.519-.052.988-.165 1.403-.335l.506.974c-.615.722-1.229 1.44-1.843 2.161-.988 1.181-1.483 1.855-1.483 2.019 0 .122.088.173.261.155.936-.095 2.398-1.034 4.39-2.819l.156.193c-.01.286-.733.878-2.169 1.776-1.394.868-2.295 1.322-2.702 1.363-.545.055-.818-.243-.818-.892 0-.519.428-1.302 1.285-2.35.59-.657 1.178-1.314 1.767-1.97-.304.082-.584.128-.845.137-1.585 1.744-2.523 2.64-2.818 2.687l-.143-.168L148.183 59.637zM141.891 55.851c0 0-5.099 5.799-10.739 7.898 0 0 .436.223.496.172.059-.05 7.067-2.964 10.896-8.486l-.608.433"/></g></g><path fill="#D52E61" d="m156.625 51.474-.149-.161.087-.082c.098-.09.102-.241.013-.339-.09-.096-.243-.102-.339-.012l-.088.082-.268-.289.268.012c.132.005.245-.098.25-.229.006-.133-.096-.245-.229-.251l-.755-.033-.117-.126c.045-.072.083-.15.11-.235.026-.084.039-.171.041-.255l.167-.039.644.397c.018.011.037.019.056.026.101.03.215-.009.273-.104.071-.112.035-.261-.078-.33l-.229-.141.385-.088.027.117c.019.087.085.151.165.176.038.012.079.015.123.005.129-.031.21-.159.18-.288l-.028-.117.216-.049c.128-.029.208-.158.179-.288-.03-.128-.157-.21-.286-.179l-.215.049-.027-.117c-.029-.129-.157-.21-.286-.18-.13.029-.21.158-.18.288l.027.117-.385.088.145-.228c.072-.111.038-.26-.074-.33-.112-.071-.26-.039-.33.073l-.406.638-.168.038c-.079-.152-.199-.283-.35-.376l.051-.163.658-.341c.117-.061.162-.206.101-.324-.061-.117-.207-.163-.323-.101l-.239.123.115-.368.115.035c.126.039.26-.033.299-.158.039-.127-.032-.261-.157-.3l-.116-.035.071-.229c.039-.127-.033-.261-.158-.3-.127-.039-.26.032-.299.158l-.071.229-.115-.035c-.127-.039-.261.032-.3.158-.039.127.032.261.159.3l.115.035-.113.369-.128-.237c-.062-.117-.208-.161-.324-.098-.117.062-.161.207-.099.324l.352.654-.05.163c-.177-.009-.349.032-.5.113l-.117-.124.033-.741c.006-.133-.096-.244-.229-.25-.132-.006-.244.096-.25.228l-.011.269-.263-.283.088-.082c.098-.09.102-.241.013-.339-.09-.098-.241-.102-.339-.012l-.089.082-.162-.176c-.09-.098-.243-.102-.339-.013-.097.09-.102.243-.013.339l.165.177-.09.08c-.095.09-.102.241-.011.339.03.033.066.054.105.066.079.024.168.007.234-.052l.088-.083.263.283-.269-.007c-.132-.004-.243.1-.246.233-.005.11.068.205.168.237.021.006.041.01.065.01l.74.023.117.124c-.046.072-.083.15-.11.234-.026.085-.039.171-.041.256l-.166.038-.625-.399c-.112-.072-.261-.038-.332.073-.071.112-.039.26.073.332l.227.144-.377.087-.026-.117c-.03-.129-.158-.21-.288-.18-.129.029-.211.158-.18.287l.027.118-.234.052c-.129.031-.21.158-.18.288.021.087.084.151.165.176.038.012.08.015.123.005l.233-.054L152 50.468c.02.087.084.151.162.176.039.012.082.015.124.005.129-.031.208-.158.18-.288l-.027-.117.377-.085-.141.228c-.07.112-.035.261.078.33.018.011.037.02.056.026.101.031.215-.008.273-.104l.389-.632.168-.038c.079.152.198.283.349.375l-.051.166-.664.357c-.117.063-.161.208-.099.326.063.116.21.16.326.098l.238-.128-.117.377-.115-.034c-.127-.039-.261.032-.3.157-.039.127.033.261.16.3l.115.035-.065.211c-.039.126.032.261.157.299.127.039.261-.032.3-.158l.065-.21.116.035c.126.039.26-.032.299-.158.039-.127-.032-.261-.157-.3l-.116-.035.116-.377.124.239c.032.058.083.1.141.118.059.017.124.013.183-.017.117-.061.162-.205.101-.323l-.349-.671.051-.165c.177.007.349-.033.499-.115l.118.127-.023.755c-.002.111.069.206.169.237.02.006.041.01.063.011.133.004.244-.1.247-.233L155.529 51l.269.289-.089.081c-.096.091-.102.243-.011.34.028.032.065.054.104.066.079.024.168.006.234-.054l.088-.082.149.161c.03.032.067.054.106.066.079.024.169.007.234-.054C156.709 51.723 156.715 51.572 156.625 51.474zM154.35 49.988c-.252-.078-.395-.348-.317-.6.078-.252.346-.395.6-.317.252.078.395.346.317.6C154.872 49.923 154.602 50.066 154.35 49.988zM162.11 47.897c-.058-.179-.251-.278-.432-.219-.038.012-.071.032-.101.056l-.001-.002c-.152.118-.344.265-.497.382-.04-.051-.094-.091-.157-.113.065-.183.145-.41.208-.591h-.001c.013-.037.021-.074.021-.115 0-.189-.152-.343-.341-.343-.19 0-.343.154-.343.343 0 .04.007.078.021.115h-.001c.063.182.144.408.208.591-.062.022-.117.062-.157.113-.152-.117-.344-.263-.497-.382v.001c-.031-.023-.065-.043-.102-.055-.18-.059-.373.04-.432.219-.058.18.04.373.219.433.039.012.077.016.116.015l-.001.001c.193-.005.434-.011.627-.016.002.068.023.132.06.185-.158.11-.357.245-.516.355l.001.001c-.032.022-.061.048-.084.079-.111.154-.077.368.076.479.154.111.367.077.479-.076.023-.033.039-.068.049-.105l.002.001c.055-.185.123-.417.178-.602.032.009.063.016.098.016.033 0 .066-.007.096-.016.055.185.124.417.179.602v-.001c.012.037.027.072.051.105.111.152.326.187.478.076.154-.111.187-.326.076-.479-.023-.032-.052-.057-.084-.079l.001-.001c-.158-.11-.356-.245-.516-.355.037-.054.057-.117.06-.185.193.005.434.011.627.016v-.001c.038.001.076-.002.115-.015C162.071 48.27 162.169 48.078 162.11 47.897z"/></g><g><path fill="#D52E61" d="M96.721.444 91.304 19.131 90.597 19.131 85.101 1.097 85.049 1.097 79.657 19.131 78.95 19.131 73.454.444 73.975.444 79.266 18.477 79.317 18.477 84.708.444 85.468.444 90.937 18.477 90.989 18.477 96.199.444zM97.861 6.019c.374-1.187.925-2.225 1.65-3.115.723-.89 1.624-1.597 2.694-2.12C103.278.26 104.513 0 105.909 0c1.396 0 2.631.26 3.702.784 1.074.523 1.975 1.23 2.697 2.12.724.89 1.275 1.928 1.651 3.115.376 1.186.563 2.443.563 3.767 0 1.329-.188 2.583-.563 3.77-.375 1.188-.927 2.225-1.651 3.115-.722.891-1.623 1.594-2.697 2.107-1.071.514-2.306.772-3.702.772-1.396 0-2.631-.257-3.704-.772-1.071-.513-1.971-1.216-2.694-2.107-.724-.89-1.275-1.928-1.65-3.115-.377-1.186-.562-2.441-.562-3.77C97.299 8.463 97.484 7.206 97.861 6.019M98.41 13.504c.377 1.134.908 2.113 1.597 2.932.691.821 1.531 1.462 2.526 1.924.994.462 2.12.695 3.376.695 1.257 0 2.381-.233 3.378-.695.994-.462 1.835-1.103 2.525-1.924.688-.819 1.219-1.798 1.597-2.932.374-1.134.569-2.373.585-3.717-.016-1.341-.211-2.581-.585-3.715-.378-1.134-.91-2.113-1.597-2.932-.69-.821-1.531-1.461-2.525-1.924-.997-.462-2.121-.694-3.378-.694-1.256 0-2.382.232-3.376.694-.995.463-1.835 1.103-2.526 1.924-.689.819-1.22 1.798-1.597 2.932-.374 1.134-.571 2.374-.589 3.715C97.839 11.132 98.035 12.37 98.41 13.504M134.858.444 134.858 19.131 134.335 19.131 134.335 1.097 134.281 1.097 126.35 19.131 125.775 19.131 117.845 1.097 117.791 1.097 117.791 19.131 117.268 19.131 117.268.444 118.133.444 126.037 18.452 126.089 18.452 133.996.444zM137.083 19.131h-.575l7.563-18.687h.683l7.38 18.687h-.577l-2.46-6.15h-9.528L137.083 19.131zM144.439.968h-.055l-4.606 11.489h9.111L144.439.968zM154.567.444 167.341 18.477 167.393 18.477 167.393.444 167.916.444 167.916 19.131 167.131 19.131 154.358 1.097 154.306 1.097 154.306 19.131 153.78 19.131 153.78.444z"/></g><g><g><path fill="#D52E61" d="M84.73 28.375 76.345 28.375 76.345 31.74 84.041 31.74 84.041 34.492 76.345 34.492 76.345 38.565 85.117 38.565 85.117 41.412 73.109 41.412 73.109 25.57 84.73 25.57zM91.548 41.412 87.699 41.412 92.795 33.341 87.946 25.57 91.901 25.57 94.728 30.729 97.633 25.57 101.456 25.57 96.609 33.213 101.759 41.412 97.739 41.412 94.728 36.012zM114.779 34.555c-.929.774-2.256 1.161-3.976 1.161h-3.299v5.696h-3.288V25.57h6.802c1.569 0 2.82.41 3.752 1.225.931.818 1.398 2.081 1.398 3.794C116.167 32.459 115.704 33.781 114.779 34.555M112.248 28.848c-.417-.351-1.005-.528-1.761-.528h-2.983v4.666h2.983c.756 0 1.344-.19 1.761-.568.423-.382.629-.985.629-1.809C112.877 29.786 112.671 29.199 112.248 28.848M131.023 40.005c-1.196 1.233-2.927 1.85-5.19 1.85-2.267 0-3.997-.617-5.193-1.85-1.607-1.512-2.407-3.689-2.407-6.535 0-2.903.8-5.082 2.407-6.535 1.196-1.234 2.926-1.85 5.193-1.85 2.263 0 3.994.616 5.19 1.85 1.598 1.453 2.398 3.632 2.398 6.535C133.421 36.316 132.621 38.493 131.023 40.005M128.953 37.598c.771-.968 1.155-2.345 1.155-4.128 0-1.776-.384-3.152-1.155-4.122-.769-.972-1.811-1.458-3.121-1.458-1.312 0-2.36.485-3.141 1.453-.78.967-1.172 2.343-1.172 4.127 0 1.784.391 3.16 1.172 4.128.78.967 1.829 1.45 3.141 1.45C127.143 39.048 128.184 38.565 128.953 37.598"/></g><g><g><path fill="#D52E61" d="M143.783 25.376 143.783 25.885 141.599 25.88 141.584 31.632 140.987 31.631 141.003 25.878 138.829 25.874 138.83 25.365zM144.041 27.272c.126-.391.309-.738.555-1.038.246-.299.554-.537.927-.715.371-.179.805-.266 1.294-.266.492.002.921.094 1.29.271.366.181.674.422.918.723.245.301.428.647.551 1.041.12.391.181.803.18 1.235-.003.432-.063.844-.187 1.238-.124.391-.308.736-.556 1.033-.247.297-.554.533-.922.712-.368.178-.799.267-1.29.265-.492-.001-.923-.091-1.293-.272-.371-.178-.679-.419-.922-.718-.247-.298-.429-.643-.551-1.034-.123-.393-.184-.805-.182-1.237C143.855 28.076 143.918 27.664 144.041 27.272M144.586 29.514c.088.331.228.627.418.887.188.26.433.471.732.628.297.159.653.239 1.067.239.416.002.771-.075 1.067-.232.295-.16.538-.368.728-.627.191-.258.332-.554.425-.885.089-.329.135-.663.135-1.003.002-.346-.04-.681-.132-1.009-.089-.327-.229-.621-.418-.882-.188-.26-.433-.469-.725-.629-.296-.157-.651-.238-1.066-.238-.414-.002-.772.076-1.071.235-.298.157-.543.365-.733.623-.191.26-.332.555-.422.881-.091.327-.139.663-.139 1.008C144.449 28.849 144.495 29.184 144.586 29.514M151.818 25.396 151.809 28.766 155.456 25.407 156.262 25.409 153.46 27.988 156.379 31.671 155.608 31.667 153.009 28.401 151.806 29.512 151.802 31.66 151.204 31.658 151.221 25.395zM156.718 25.41 157.422 25.412 159.473 28.589 161.533 25.42 162.244 25.422 159.761 29.101 159.756 31.678 159.158 31.676 159.165 29.098zM162.458 27.317c.124-.393.31-.737.557-1.036.246-.302.555-.541.925-.719.372-.176.804-.264 1.294-.264.492.002.922.092 1.29.272.367.177.674.419.919.719.245.304.427.65.55 1.041.122.392.184.804.18 1.237 0 .433-.063.845-.187 1.238-.124.39-.309.733-.556 1.031-.247.299-.555.535-.925.712-.365.18-.797.267-1.287.265-.49 0-.922-.091-1.292-.271-.372-.179-.679-.418-.923-.715-.246-.299-.428-.646-.551-1.038-.122-.391-.182-.803-.181-1.237C162.271 28.121 162.336 27.71 162.458 27.317M163.003 29.559c.089.332.228.628.419.887.19.261.432.471.73.632.297.158.654.238 1.067.238.414.002.772-.077 1.066-.235.296-.158.54-.366.73-.625.191-.26.331-.555.424-.885.09-.33.138-.666.138-1.003 0-.346-.044-.682-.135-1.01-.09-.329-.228-.622-.418-.883-.19-.259-.431-.469-.726-.63-.296-.157-.649-.237-1.066-.238-.416 0-.772.077-1.07.236-.299.155-.543.364-.733.625-.19.258-.332.552-.424.88-.09.326-.137.663-.137 1.007C162.866 28.894 162.911 29.23 163.003 29.559"/></g><g><g><path fill="#D52E61" d="M139.046 37.318c0-.297.046-.567.137-.81.091-.244.222-.452.394-.625.17-.174.379-.309.621-.404.242-.093.512-.14.808-.14.303 0 .571.043.802.132.23.089.425.207.582.355.158.15.276.327.355.532.081.205.12.422.12.65 0 .269-.044.507-.132.711-.089.207-.205.39-.352.55-.145.16-.311.302-.497.427-.186.126-.375.244-.57.357-.195.11-.385.217-.574.319-.188.104-.356.211-.505.326-.098.074-.191.154-.282.235-.091.084-.174.174-.249.271-.073.097-.135.205-.18.321-.046.118-.071.248-.077.39h3.367v.463h-3.948c.005-.291.037-.554.093-.788.057-.235.183-.464.377-.686.212-.24.429-.445.655-.617.226-.171.447-.324.663-.458.217-.134.422-.257.618-.368.193-.113.366-.233.514-.365.148-.13.265-.279.351-.445.087-.166.129-.368.129-.608 0-.194-.035-.368-.104-.523-.069-.154-.162-.285-.281-.394-.122-.108-.262-.189-.421-.244-.16-.055-.335-.082-.523-.082-.199 0-.38.042-.544.124-.162.083-.302.194-.419.33-.116.137-.207.298-.27.48-.063.183-.089.377-.077.583H139.046zM146.291 35.339c.297 0 .554.043.771.132.218.089.402.21.553.365.151.153.274.333.368.54.095.204.167.422.218.654.052.231.087.47.103.715.016.247.026.486.026.72 0 .399-.028.783-.085 1.149-.057.365-.162.688-.313.967-.151.281-.359.503-.621.669-.263.166-.604.249-1.02.249-.417 0-.758-.084-1.024-.249-.266-.166-.474-.39-.625-.673-.152-.282-.255-.61-.313-.984-.057-.374-.085-.77-.085-1.187 0-.382.026-.757.077-1.122.051-.365.15-.693.296-.981.146-.288.353-.521.622-.697C145.506 35.427 145.858 35.339 146.291 35.339zM147.782 38.406c0-.326-.018-.644-.056-.957-.037-.31-.11-.589-.219-.835-.107-.245-.262-.443-.458-.591-.198-.148-.456-.224-.776-.224-.302 0-.549.077-.741.228-.191.151-.341.352-.45.603-.109.253-.183.538-.227.858-.042.319-.065.646-.065.976 0 .39.025.742.074 1.059.048.316.129.586.244.81.113.221.267.395.458.518.19.123.432.185.723.185.326 0 .586-.08.785-.24.197-.162.347-.367.449-.618.103-.251.172-.534.206-.848C147.765 39.017 147.782 38.708 147.782 38.406zM151.087 36.889h-1.56V36.53c.229-.018.435-.041.621-.069.185-.028.349-.084.49-.163.139-.08.256-.196.351-.347.093-.151.163-.355.21-.611h.435v6.039h-.547V36.889z"/></g><g><path fill="#D52E61" d="M157.231,36.654c-0.043-0.267-0.172-0.499-0.327-0.654c-0.267-0.258-0.603-0.301-0.869-0.301 c-0.361,0-0.68,0.086-0.964,0.379c-0.577,0.594-0.603,1.824-0.594,2.212h0.017c0.155-0.311,0.379-0.5,0.577-0.603 c0.327-0.181,0.68-0.207,0.947-0.207c0.421,0,0.903,0.086,1.316,0.474c0.293,0.275,0.577,0.74,0.577,1.515 c0,0.662-0.207,1.179-0.516,1.523c-0.431,0.473-0.981,0.567-1.438,0.567c-0.404,0-0.998-0.068-1.446-0.542 c-0.508-0.524-0.671-1.445-0.671-2.521c0-1.084,0.164-2.16,0.826-2.797c0.413-0.404,0.887-0.525,1.403-0.525 c0.387,0,0.852,0.061,1.257,0.465c0.138,0.129,0.421,0.465,0.499,1.016H157.231z M154.985,40.673 c0.181,0.181,0.49,0.361,0.981,0.361c0.318,0,0.637-0.078,0.903-0.345c0.396-0.396,0.422-0.946,0.422-1.213 c0-0.318-0.06-0.774-0.396-1.11c-0.164-0.164-0.464-0.361-0.955-0.361c-0.499,0-0.8,0.197-0.973,0.37 c-0.189,0.189-0.396,0.524-0.396,1.093C154.572,39.864,154.684,40.363,154.985,40.673z"/></g></g></g></g></g></g></svg>