<svg xmlns="http://www.w3.org/2000/svg" viewBox="0 0 630 53.84"><defs><style>.a84be36b-9963-45b4-9fe4-b82c8e73f9f8{fill:#ffa000;}</style></defs><title>ttl_access</title><g id="f0acaeee-3c18-410b-b593-0623d97bfd38" data-name="レイヤー 2"><g id="b7b9dab5-68d8-4eeb-9a21-f83c3fef5a82" data-name="object"><rect class="a84be36b-9963-45b4-9fe4-b82c8e73f9f8" y="48.84" width="630" height="5"/><path class="a84be36b-9963-45b4-9fe4-b82c8e73f9f8" d="M34.12,3.1V7.81H25.63A34.92,34.92,0,0,0,35,15.66a13.39,13.39,0,0,0-3.24,4c-3.82-2.13-9-7.24-11.09-9.65l3-2.16H11.23l3.31,2.05c.4.25.58.36.58.65,0,.47-.61.43-.9.36a43,43,0,0,1-9.32,9,14.89,14.89,0,0,0-4-3.21C7.06,12.27,9.14,9.14,10,7.81H1.87V3.1H15.08V0l5.76.25c.43,0,.69,0,.69.36s-.26.47-.69.65V3.1ZM14.69,13.71a22.68,22.68,0,0,0,3.38,6.16,20.32,20.32,0,0,0,3.31-6l4.86,2.16c.18.08.54.26.54.65s-.76.43-1,.43a25.91,25.91,0,0,1-4.18,6.37A27.17,27.17,0,0,0,34.92,29a13.37,13.37,0,0,0-3.6,4.65A34.14,34.14,0,0,1,17.89,27,35.51,35.51,0,0,1,4.75,33.66C4,31.5,1.4,29.34,1.26,29.19a31.39,31.39,0,0,0,13.1-5.76,33.9,33.9,0,0,1-4.21-7.3Z"/><path class="a84be36b-9963-45b4-9fe4-b82c8e73f9f8" d="M49.89,13.89V24.26a4.1,4.1,0,0,0,1,2.81c1.12,1.26,2.45,1.26,6,1.26,10.55,0,12.35,0,17.64-.69A10.36,10.36,0,0,0,73,32.54H55.87c-3.78,0-6.44-.58-8.31-3.2-1,.9-2.56,2.23-3.86,3.2a1.93,1.93,0,0,1,.08.54c0,.25,0,.61-.44.61s-.39-.21-.57-.54l-2.63-4.86a23.61,23.61,0,0,0,4.43-2.37V18.65h-3.1V13.89ZM44.1.29a29.44,29.44,0,0,1,6.15,5.07c-.64.65-1.15,1.08-3.74,3.93A38.21,38.21,0,0,0,41,4ZM59.58,22.21H56.66v5.15H51.84V8.78h4.93A29.15,29.15,0,0,0,54,6.88L55.83,5h-4V.86H69l1.8,1.88a27.17,27.17,0,0,1-5.83,6h7.16V23.72c0,3.46-3.31,3.71-5.87,3.82a10.6,10.6,0,0,0-1.4-4.36c.93.11,1.65.14,1.8.14.65,0,.68-.07.68-1.11H64.11v4.53H59.58Zm0-9.68H56.66v1.58h2.92Zm0,4.82H56.66v1.58h2.92ZM58,5c1.58,1.33,1.76,1.51,2.59,2.23A13.22,13.22,0,0,0,63,5Zm6.15,9.14h3.24V12.53H64.11Zm0,4.82h3.24V17.35H64.11Z"/><path class="a84be36b-9963-45b4-9fe4-b82c8e73f9f8" d="M108.64,2.77a6,6,0,0,0,2-.32l4,3.67c-.36.5-.47.68-1.3,1.87a82.23,82.23,0,0,1-9.68,11.88,18.14,18.14,0,0,0-4.14-4,38.56,38.56,0,0,0,6.73-7.7H82.19V2.77ZM99.93,9.61c.26,0,.65,0,.65.43s-.47.54-.65.61a35.3,35.3,0,0,1-1.87,10.77,22.57,22.57,0,0,1-9,10.65,30.16,30.16,0,0,0-5-3.81c5-2.88,10.47-6.81,9.82-19Z"/><path class="a84be36b-9963-45b4-9fe4-b82c8e73f9f8" d="M146,5.83a6,6,0,0,0,2.55-.54l3,2.56c-.65,1.08-2.84,6-3.67,7.84-5.55,12.46-13.54,16.45-16.7,18a19.53,19.53,0,0,0-4.65-4.11,33,33,0,0,0,11.7-8.53A34,34,0,0,0,143.56,11h-9a49.79,49.79,0,0,1-8.1,9.22,19.89,19.89,0,0,0-4.39-3.89c8.74-7.41,11-13.75,11.8-15.91L139.07,3c.14.07.46.25.46.54s-.5.47-.86.51c-.58,1.11-.68,1.4-.94,1.83Z"/><path class="a84be36b-9963-45b4-9fe4-b82c8e73f9f8" d="M169.63,1.26l5.87.29c.36,0,.72,0,.72.39s-.43.54-.72.62v7.91l11.12-1.29a10,10,0,0,0,2.59-.69L193,11.91c-.47.54-1.3,1.59-1.62,2-1.12,1.44-5.76,8.17-6.77,9.47a40.82,40.82,0,0,0-4.9-2.95A32.72,32.72,0,0,0,184,15l-8.49,1v7.78c0,2.19.68,2.73,3.56,2.73a104.35,104.35,0,0,0,11.66-.64,30.14,30.14,0,0,0-.68,5.83c-2.74.07-9.86.11-12.38.11-7,0-8-2.78-8-7.35V16.77l-7.81.94-.5-5.54,8.31-1Z"/><path class="a84be36b-9963-45b4-9fe4-b82c8e73f9f8" d="M203.51,8.21V2.81H221.9a9.7,9.7,0,0,0,2.48-.29l2.81,3.06a10.79,10.79,0,0,0-1.37,2.3,61.36,61.36,0,0,1-4.57,8.82c1.51,1.15,8.1,6.62,10.8,9.86-1.19,1.37-3.13,3.53-4.32,4.9a49,49,0,0,0-9.68-10.26C214.59,25.34,208.94,30,204.23,32A16.26,16.26,0,0,0,200.12,27a30.14,30.14,0,0,0,11.7-7.2c4.11-4,5.58-7.48,7.2-11.62Z"/></g></g></svg>