<svg xmlns="http://www.w3.org/2000/svg" width="234.97" height="30" viewBox="0 0 234.97 30"><defs><style>.cls-1{fill:#ff9600;}</style></defs><g id="レイヤー_2" data-name="レイヤー 2"><g id="object"><path class="cls-1" d="M43,5.07v5.52H39.8a6.34,6.34,0,0,0,2.83,1.32c-.24,1.13-.67,3.15-3.36,3.15H34.66a2.25,2.25,0,0,1-2.25-2.28V8.19h-5l3.48,1.3a.35.35,0,0,1,.29.31c0,.41-.6.45-.82.45a14.76,14.76,0,0,1-4.51,5.5h14v3.07h-6v2.43H43v3.12H21.06V21.25h9.07V18.82H24.3V16.71c-.27.15-.44.22-.84.41a5.09,5.09,0,0,0-2.4-2.59c2.68-1.08,5.32-2.74,6.26-6.34H24.54v2.4H21.06V5.07h9.09V2.79l4,.1a.33.33,0,0,1,.36.28c0,.24-.32.36-.63.46V5.07ZM35.77,8.19v3a.67.67,0,0,0,.72.77h1.85c.72,0,1-.65,1.2-1.44V8.19Z"/><path class="cls-1" d="M46.14,8.45a35.37,35.37,0,0,1,4,2.29,26.26,26.26,0,0,0-1.8,2.92,31,31,0,0,0-4-2.3Zm7.39,9.37c-.7.55-1.11.86-1.56,1.2a11.63,11.63,0,0,0-1.25-1.4c-.77,2-1.9,5-2.66,6.51,0,.24.07.36.07.43,0,.22-.1.34-.24.34a1,1,0,0,1-.34-.12l-3.07-1.54a28.85,28.85,0,0,0,3.31-7.3,11.76,11.76,0,0,0,2.76,1.54,6.28,6.28,0,0,0-.91-.77,13.53,13.53,0,0,0,4.22-3.81H50.74v-3H54V8.45H51.78V5.55H54V3.08l3.58.14c.14,0,.41,0,.41.22s-.22.38-.63.57V5.55h2.26V3l3.6.24c.19,0,.34,0,.34.19s-.34.39-.58.48V5.55h2.54v2.9H63V9.94h3.67v3H63.42a12.84,12.84,0,0,0,4.25,3.21,18.48,18.48,0,0,0-2.28,2.62c-1-.7-1.25-.94-2.43-1.92v2.61a11.91,11.91,0,0,0,3.29,1.83c-.65,2.85-2,3.53-3.77,3.53H56.65c-1.37,0-3.12,0-3.12-2.62Zm-5.43-15a28.31,28.31,0,0,1,3.68,2.35A25.55,25.55,0,0,0,50,7.93a21.9,21.9,0,0,0-3.86-2.38Zm11.69,15V16.74h-5c-.6.55-.89.79-1.2,1.05Zm1.8,4.2c.7,0,1-.53,1.13-1.15H59.79v-.53H56.91V21c0,.79.17,1,.87,1ZM57.75,12.9A7.76,7.76,0,0,1,57,14.1h3.58a13.66,13.66,0,0,1-.79-1.2Zm-.36-4.45V9.94h2.26V8.45Z"/><path class="cls-1" d="M80.55,4.23c.27.07.48.14.48.36s-.5.38-.64.38c-.37,1.64-.51,2.26-.68,2.88,2.07,0,5.5.08,5.5,5.89a16.09,16.09,0,0,1-2.4,8.88,4.12,4.12,0,0,1-3.55,1.68A12.76,12.76,0,0,1,76.71,24a6.29,6.29,0,0,0,.07-.89,17.77,17.77,0,0,0-.36-3.21,4,4,0,0,0,2.09.53A1.83,1.83,0,0,0,79.93,20c.82-.72,1.58-3.41,1.58-6.39,0-2.47-1.72-2.32-2.76-2.25A36.24,36.24,0,0,1,72.66,24a17.19,17.19,0,0,0-3.53-1.89,28.92,28.92,0,0,0,5.71-10.06A26.56,26.56,0,0,0,71,13.3L69.7,9.44c1-.19,5.26-1.08,6.15-1.23A36.19,36.19,0,0,0,76.59,3ZM87,5.48c2.64,2.95,4.32,7,4.32,8.85a2.45,2.45,0,0,1-1.7,2.55,9.26,9.26,0,0,1-2.4.74,19,19,0,0,0-1.39-3.21c.65-.15,1.53-.34,1.53-1.11A9.7,9.7,0,0,0,86.15,10a18.45,18.45,0,0,0-2-2.66Z"/><path class="cls-1" d="M102.08,8.38c.17,0,.36.1.36.32s-.29.31-.55.33a16.07,16.07,0,0,0-1.59,4.15,13.36,13.36,0,0,1,7-2.23,5.82,5.82,0,0,1,6.15,5.91c0,4.58-4.32,7.72-12.27,7.72-.69,0-1.29,0-1.75,0a13.56,13.56,0,0,0-1.13-4,13.22,13.22,0,0,0,3.55.36c5.45,0,7.61-2,7.61-4.05,0-.7-.33-2.45-2.81-2.45-3.43,0-5.92,2.21-7.65,3.94l-3.43-1.25A56,56,0,0,1,98.1,7.11Zm-1.32-5.61a24,24,0,0,1,8.07,2.66,29.35,29.35,0,0,0-2.17,3.5A21.48,21.48,0,0,0,99.51,6Z"/><path class="cls-1" d="M124.76,15.82c-.67.58-1.87,1.83-1.87,2.62,0,1.73,3.29,1.73,4.29,1.73a33.73,33.73,0,0,0,9.63-1.44,18,18,0,0,0,.62,4.08,36.36,36.36,0,0,1-9.38,1.1c-3.75,0-5.23-.41-6.41-.89-.77-.31-3-1.44-3-3.86s2.5-4.73,3.48-5.62Zm10.08-7.89a16.67,16.67,0,0,0-6.05,3.91c-.86-.75-1.77-1.51-2.52-2.06.89-.82,1.11-1,1.8-1.57-1.49.12-5.52.34-7.56.29l-.19-4a48.3,48.3,0,0,0,6,.32A45.38,45.38,0,0,0,133,4.25Zm1.06-3.75a17.25,17.25,0,0,1,2.18,2.52,9.65,9.65,0,0,0-1.41,1.73,26.19,26.19,0,0,0-2.31-2.66Zm1.85-2A26.76,26.76,0,0,1,140,4.49a9.56,9.56,0,0,0-1.53,1.64,21.26,21.26,0,0,0-2.09-2.36Z"/><path class="cls-1" d="M153.73,24.94h-3.46v-6.4a23.83,23.83,0,0,1-7,6.12,8.22,8.22,0,0,0-3.07-2.38,20.55,20.55,0,0,0,7.7-6.14H141V13h4.49a19.19,19.19,0,0,0-1.92-3.56l1.73-1h-3.17V5.38h8.18V2.93l3.6.22c.29,0,.53.05.53.36s-.48.41-.67.46V5.38h8.14V8.5h-3.12l1.46.63c.17.07.24.16.24.28,0,.32-.29.37-.48.41a22,22,0,0,1-1.51,3.2H163v3.12h-7.12a18.65,18.65,0,0,0,7.46,5.8,11.12,11.12,0,0,0-2.54,2.6,18.83,18.83,0,0,1-7.06-6.15ZM150.27,13V8.5h-3.09a13.53,13.53,0,0,1,2,3.7,11.92,11.92,0,0,0-1.83.82Zm3.46-4.52V13h2.78a15.3,15.3,0,0,0-1.65-.87,18.78,18.78,0,0,0,1.82-3.65Z"/><path class="cls-1" d="M175.28,18.25a16.5,16.5,0,0,1-2.83,2.9,6.18,6.18,0,0,0-2.26-1.61c.43-.33.79-.6,1.35-1.08-1.49.65-3.32,1.35-5.26,2,0,.28-.1.62-.36.62s-.34-.31-.38-.55l-.82-3.39a17.74,17.74,0,0,0,2.71-.5V11.19H165V8.07h2.47v-5l3.55.19c.29,0,.51,0,.51.26s-.15.29-.51.46V8.07h2.14v3.12H171v4.37c.58-.24.94-.38,1.52-.65h-.17V12.49h14.54v2.42h-9.29l-.45.77h9.58c0,2.42-.08,7.22-1.64,8.45-.91.72-2.44.79-4,.79a7,7,0,0,0-.64-2.59,19,19,0,0,1-2.86,3,6.07,6.07,0,0,0-2.55-1.54,16.68,16.68,0,0,0,5.07-5.54h-1.08a16.84,16.84,0,0,1-6.31,6.36,6.18,6.18,0,0,0-2.12-1.92,14.73,14.73,0,0,0,5.6-4.44Zm-2.18-3.34a9.74,9.74,0,0,0-.17,2.14,15.17,15.17,0,0,0,1.46-2.14Zm12.09-3.21H174V3.25h11.21ZM182,6.56V5.74h-4.72v.82Zm-4.72,1.92v.81H182V8.48Zm5.66,9.77a26.2,26.2,0,0,1-1.9,3.33,8,8,0,0,0,.84.05c.48,0,.92-.05,1.08-.6a11.81,11.81,0,0,0,.44-2.78Z"/><path class="cls-1" d="M200.31,20.82c5.21-1,6.75-5,6.75-7.49a5.68,5.68,0,0,0-5.55-5.88c-.74,8.78-4.37,15.33-6.91,15.33-1.87,0-5.35-3.16-5.35-7.6A11.78,11.78,0,0,1,201,4c5.26,0,9.84,3.58,9.84,9.31A11.21,11.21,0,0,1,208,20.72a13.4,13.4,0,0,1-5.21,3.48A15.37,15.37,0,0,0,200.31,20.82Zm-7.51-5.93c0,1.85,1,3.24,1.54,3.24s1-1.08,1.29-1.71a20.9,20.9,0,0,0,1.85-8.25C194.7,9.2,192.8,12.73,192.8,14.89Z"/><path class="cls-1" d="M235,6.2V9.63H224.62c0,.89-.09,1.51-.14,2h7.59c0,8.12-.46,10.32-2.16,12-1.23,1.22-3.84,1.34-4.73,1.32a6.11,6.11,0,0,0-1.78-3.77c.65.1,2.28.36,2.52.36a1.77,1.77,0,0,0,1.92-1.39,16.42,16.42,0,0,0,.67-5.23h-4.68A16.17,16.17,0,0,1,215.19,25a6.41,6.41,0,0,0-2.95-2.6C216.51,21.08,221,17.6,221,9.63H213V6.2h9V2.89l3.84.21c.14,0,.43.07.43.34s-.26.36-.43.43V6.2Z"/><rect class="cls-1" width="10" height="30"/></g></g></svg>