<svg xmlns="http://www.w3.org/2000/svg" viewBox="0 0 383.05 40"><defs><style>.b0982eb8-4c03-406b-aa5b-f4ae4d25572d{fill:#ff9600;}</style></defs><title>ttl_train</title><g id="b2fe90f4-a046-49d6-ba2e-9283ee7be3ee" data-name="レイヤー 2"><g id="b98b7fa4-cd93-479b-ba5c-1d7892985956" data-name="object"><rect class="b0982eb8-4c03-406b-aa5b-f4ae4d25572d" width="10" height="40"/><path class="b0982eb8-4c03-406b-aa5b-f4ae4d25572d" d="M43.25,31.88A17,17,0,0,0,47,29.79a24.5,24.5,0,0,1-3-4l2.44-1.69h-2.3V20.43H55.78l1.94,1.7a21.28,21.28,0,0,1-4.14,7.66A19.75,19.75,0,0,0,59,32.49a15.78,15.78,0,0,0-3,3.93A38.29,38.29,0,0,1,50.52,33a19.9,19.9,0,0,1-4.93,3.39,12.11,12.11,0,0,0-2.34-2.81v2.73H38.17V32.6c-3.06.83-6.47,1.51-9.61,2.09-.25.39-.43.65-.72.65s-.5-.4-.57-.87l-.69-4.14a23.86,23.86,0,0,0,2.92-.14V19.35H26.58V15.83H59.45v3.52H43.25ZM55.09,4.13V14.67H30.94V4.13ZM38.17,19.35H34.68v1.34h3.49Zm0,4.25H34.68v1.33h3.49Zm0,4.28H34.68v1.7c2.27-.36,2.52-.4,3.49-.62Zm12-19.61V7.19H35.91V8.27ZM35.91,10.71v1.16H50.13V10.71Zm12.2,13.43a16.54,16.54,0,0,0,2,2.63,9.64,9.64,0,0,0,1.61-2.63Z"/><path class="b0982eb8-4c03-406b-aa5b-f4ae4d25572d" d="M95.34,19.64v3.93H91.13v8.27c0,4-2.38,4.79-6.26,4.79a8.74,8.74,0,0,1-1.3-.07,11.23,11.23,0,0,0-2-5.22,20.11,20.11,0,0,0,3.2.43c.9,0,1.08-.36,1.08-2.05V23.57H62.66V19.64h6.4a8,8,0,0,0-2.7-2.3,13.75,13.75,0,0,0,7.78-2.7H69V10.86h7.7A16.9,16.9,0,0,0,77.2,9.2h-9v4.21H63.12V5.14H76.3V3.08l5.51.18c.18,0,.64,0,.64.36s-.39.65-.64.87v.65h13v8H89.72V9.2H81.66l.65.18c.18,0,.5.18.5.47s-.61.47-.86.5a5.31,5.31,0,0,0-.18.51H88.9v3.78H84.33a17.9,17.9,0,0,0,7.19,2.95,10,10,0,0,0-2,2.05ZM80.83,25.29v8.79H71.29v.86H66.15V25.29Zm-9.54,3.57v1.62H76V28.86ZM84,19.64a16,16,0,0,1-4.83-3.92,15.94,15.94,0,0,1-4.46,3.92Z"/><path class="b0982eb8-4c03-406b-aa5b-f4ae4d25572d" d="M101.79,26l2.41-.32a25.9,25.9,0,0,1,.5,5.79c-.5.11-2.34.44-2.7.54,0-.46,0-1,0-1.83,0-1.41-.11-2.63-.18-3.67a.65.65,0,0,1-.5.21,34.63,34.63,0,0,1-.72,6.41,20.32,20.32,0,0,0-3-.14,33.48,33.48,0,0,0,1-7.28l2.73.33c.18,0,.33,0,.43.14Zm10.94-16v3.45h-2.81v1.62h2.81v3.46h-2.81v1.65h3.67c0,2.34,0,10.66-2.66,14-1.58,1.94-4.64,2.12-5.69,2.09-.21-1.62-.61-2.34-2-4,.47,0,.94.11,1.59.11,2.91,0,3.45-1.05,4.14-3.57-.22.08-.72.22-.9.29a22.13,22.13,0,0,0-1-3.81l1.58-.36c.4,1.29.58,1.83.65,2.16a16.06,16.06,0,0,0,.18-2.56h-5.65v.58H99V4.16h14.94V8.38h-4V10Zm-6.84,0V8.38h-2V10Zm-2,3.45v1.62h2V13.45Zm0,5.08v1.65h2V18.53Zm2.73,6.91c.22,1,.72,3,.87,4.06-.29.11-1.58.51-1.84.62a22.42,22.42,0,0,0-.79-4.4ZM120,20.36c-.32,10.26-3.27,14.62-4.43,16.34a11.5,11.5,0,0,0-4.14-2.44c1-1.12,3.82-4.36,3.82-17V4.16h15.8v16.2h-6.26a25.3,25.3,0,0,0,7.13,12.74,12.45,12.45,0,0,0-3.78,3.32c-2.06-1.73-6.3-7.74-7.64-16.06Zm.29-11.55v7h5.61v-7Z"/><path class="b0982eb8-4c03-406b-aa5b-f4ae4d25572d" d="M154.6,4.56c.32.07.65.11.65.47s-.4.47-.65.5c-.15,1.4-.15,1.73-.18,2.13,1.65,0,7.23-.11,9.93.21v5.36a88.09,88.09,0,0,0-10.11-.32v4a47.26,47.26,0,0,0,9.14-1.69v5.36a67.79,67.79,0,0,1-9,1.19c0,1.55,0,1.69.07,3.2,4.5.61,10.69,3.75,12,4.75a57.65,57.65,0,0,0-4,4.5,29,29,0,0,0-7.7-4.53c.07,1.87.32,6.12-7.56,6.12-5.58,0-9.65-2.56-9.65-5.83,0-4.11,5.15-5.87,11.16-5.76,0-.83,0-.83,0-2.13-3.56.08-10.07.18-10.07-3.38,0-1.26.64-2.41,2.51-4.36l4,.9c-.64.87-.75,1-.75,1.23s0,1,4.21.83c0-.65,0-3.57,0-4.14-4.42.18-8.31.68-11.3,1.08V8.52c1.77-.18,9.65-.54,11.27-.65,0-1.37,0-2.77-.15-4.43Zm-7.45,23.76c-.18,0-3.64,0-3.64,1.47,0,1.19,2,1.3,2.59,1.3,1.77,0,2.85-.65,2.63-2.63A8.05,8.05,0,0,0,147.15,28.32Z"/><path class="b0982eb8-4c03-406b-aa5b-f4ae4d25572d" d="M202.76,10c-8.89-.14-16.59,7.85-16.59,13.68,0,4.17,5.29,6.23,10.19,6.33a47.82,47.82,0,0,0-2.7,6.56c-2.92-.8-13.25-3.68-13.25-12.28,0-6.66,5.15-11.45,6.62-12.38a96.34,96.34,0,0,0-14.9,2.27l-.83-6.77a116.36,116.36,0,0,0,16-.83A86.05,86.05,0,0,0,201.76,4Zm-6,5.11A22.72,22.72,0,0,1,200.14,19c-1,.72-1.52,1.12-2.78,2.16a28.13,28.13,0,0,0-3.2-4.06Zm3.78-2.55a22.56,22.56,0,0,1,3.2,3.78c-.9.68-1.51,1.22-2.63,2.23a26.29,26.29,0,0,0-3.2-4.07Z"/><path class="b0982eb8-4c03-406b-aa5b-f4ae4d25572d" d="M223.47,30.22c7.81-1.44,10.11-7.48,10.11-11.23a8.53,8.53,0,0,0-8.31-8.82c-1.12,13.18-6.56,23-10.37,23-2.81,0-8-4.76-8-11.41C206.87,14,213.93,5,224.51,5c7.88,0,14.76,5.36,14.76,14A16.8,16.8,0,0,1,235,30.08c-2.2,2.56-4.75,3.89-7.81,5.22A23.54,23.54,0,0,0,223.47,30.22ZM212.2,21.33c0,2.77,1.55,4.86,2.3,4.86s1.55-1.62,1.95-2.55a31.75,31.75,0,0,0,2.77-12.39C215,12.8,212.2,18.09,212.2,21.33Z"/><path class="b0982eb8-4c03-406b-aa5b-f4ae4d25572d" d="M270.44,5.93a5.81,5.81,0,0,0,2-.33l4,3.67c-.36.51-.47.69-1.3,1.88A82.23,82.23,0,0,1,265.48,23a18.14,18.14,0,0,0-4.14-4,38.61,38.61,0,0,0,6.73-7.71H244V5.93Zm-8.71,6.84c.26,0,.65,0,.65.43s-.47.54-.65.61a35.23,35.23,0,0,1-1.87,10.76,22.54,22.54,0,0,1-9,10.66,30.2,30.2,0,0,0-5-3.82c5-2.88,10.47-6.8,9.82-19Z"/><path class="b0982eb8-4c03-406b-aa5b-f4ae4d25572d" d="M304.18,9a6.13,6.13,0,0,0,2.55-.54l3,2.55c-.65,1.08-2.84,6-3.67,7.85-5.55,12.45-13.54,16.45-16.7,18a19.35,19.35,0,0,0-4.65-4.1,33,33,0,0,0,11.7-8.53,34.12,34.12,0,0,0,5.36-10.08h-9a49.41,49.41,0,0,1-8.1,9.21,19.81,19.81,0,0,0-4.39-3.88c8.74-7.42,11-13.75,11.8-15.91l5.19,2.52c.14.07.46.25.46.54s-.5.47-.86.5c-.58,1.12-.68,1.4-.94,1.84Z"/><path class="b0982eb8-4c03-406b-aa5b-f4ae4d25572d" d="M324.23,4.42l5.87.28c.36,0,.72,0,.72.4s-.43.54-.72.61v7.92l11.12-1.3a9.55,9.55,0,0,0,2.59-.68l3.75,3.42c-.47.54-1.3,1.58-1.62,2-1.12,1.44-5.76,8.17-6.77,9.47a39.5,39.5,0,0,0-4.9-2.95,32.72,32.72,0,0,0,4.32-5.4l-8.49,1V27c0,2.2.68,2.74,3.56,2.74a104.34,104.34,0,0,0,11.66-.65,30.14,30.14,0,0,0-.68,5.83c-2.74.08-9.86.11-12.38.11-7,0-8-2.77-8-7.34V19.93l-7.81.94-.5-5.55,8.31-1Z"/><path class="b0982eb8-4c03-406b-aa5b-f4ae4d25572d" d="M354.51,11.36V6H372.9a9.7,9.7,0,0,0,2.48-.29l2.81,3.06A11,11,0,0,0,376.82,11a61.89,61.89,0,0,1-4.57,8.82c1.51,1.15,8.1,6.62,10.8,9.86-1.19,1.37-3.13,3.53-4.32,4.9a49,49,0,0,0-9.68-10.26c-3.46,4.14-9.11,8.78-13.82,10.76a16,16,0,0,0-4.11-4.93,30.25,30.25,0,0,0,11.7-7.2c4.11-4,5.58-7.49,7.2-11.63Z"/></g></g></svg>