<svg xmlns="http://www.w3.org/2000/svg" xmlns:xlink="http://www.w3.org/1999/xlink" width="148.574" height="178.705" viewBox="0 0 148.574 178.705">
  <defs>
    <clipPath id="clip-path">
      <path id="パス_3642" data-name="パス 3642" d="M2397.265,1921.229c-4.029-.32-12.092,2.131-14.8,8.1a13.093,13.093,0,0,0,6.516,17.843c7.922,3.544,16.539,1.2,18.868-4.3,1.45-3.295,1.783-5.9,1.576-10.574C2407.8,1931.827,2397.695,1922.851,2397.265,1921.229Z" transform="translate(-2381.118 -1921.201)" fill="none"/>
    </clipPath>
    <clipPath id="clip-path-2">
      <path id="パス_3646" data-name="パス 3646" d="M2403.37,1946.468c7.19,9.416,7.741,21.173,1.237,26.1-6.525,5-17.633,1.362-24.819-8.068-7.209-9.429-7.759-21.067-1.234-25.99C2385.061,1933.466,2396.163,1937.145,2403.37,1946.468Z" transform="translate(-2373.999 -1936.241)" fill="none"/>
    </clipPath>
    <clipPath id="clip-path-3">
      <path id="パス_3662" data-name="パス 3662" d="M2482.7,1921.229c4.029-.32,12.092,2.131,14.8,8.1a13.093,13.093,0,0,1-6.516,17.843c-7.923,3.544-16.539,1.2-18.869-4.3-1.45-3.295-1.783-5.9-1.576-10.574C2472.162,1931.827,2482.267,1922.851,2482.7,1921.229Z" transform="translate(-2470.481 -1921.201)" fill="none"/>
    </clipPath>
    <clipPath id="clip-path-4">
      <path id="パス_3666" data-name="パス 3666" d="M2475.838,1946.468c-7.19,9.416-7.741,21.173-1.237,26.1,6.525,5,17.633,1.362,24.82-8.068,7.208-9.429,7.759-21.067,1.234-25.99C2494.146,1933.466,2483.044,1937.145,2475.838,1946.468Z" transform="translate(-2470.063 -1936.241)" fill="none"/>
    </clipPath>
    <clipPath id="clip-path-5">
      <path id="パス_3689" data-name="パス 3689" d="M2492.928,1853.756c5.224-2.377,8.845-4.171,11.964-6.854,6.608-5.682,11.264-18.875,11.927-21.115a1.811,1.811,0,0,0-.141-1.437c-.255-.312-.64-.478-1.578-.53-2.819-.155-16.247,1.039-16.8.964s-4.157-3.568-11.33-7.85a1.263,1.263,0,0,1-.509-.444c-.093-.188.011-.448.1-.738,2.649-8.56,5.657-16.516,7.907-22.821.219-.616.646-1.363.442-1.923-.215-.593-.913-.872-1.765-1.078-9.185-2.228-45.428-7.67-76.318,9.189a56.58,56.58,0,0,0-9.226,4.123c-4.979-3.062-10.288-6.263-11.9-7.1a5.7,5.7,0,0,0-2.615-.672,4.011,4.011,0,0,0-4.117,3.72c-.347,2.636-1.54,17.882-1.677,23.063a57.857,57.857,0,0,0-9.332,31.6c0,31.9,25.627,46.461,57.232,46.461,14.871,0,25.135-1.8,35.312-8.529a209.25,209.25,0,0,0,21.321,1.649c6.427,0,20.056-9.947,23.62-16.245.645-1.141.792-2.436.3-2.856a6.092,6.092,0,0,0-3.019-.725c-5.343-.383-10.307-1.634-10.935-2.126s-5.229-10.946-8.575-15.938a2.774,2.774,0,0,1-.614-1.112A.64.64,0,0,1,2492.928,1853.756Z" transform="translate(-2377.962 -1787.294)" fill="none"/>
    </clipPath>
    <clipPath id="clip-path-6">
      <path id="パス_3697" data-name="パス 3697" d="M2418.158,1878.441c-3.663,0-6.426-4.04-6.426-9.292,0-5.368,2.763-9.407,6.426-9.407s6.438,4.039,6.438,9.407C2424.6,1874.4,2421.821,1878.441,2418.158,1878.441Z" transform="translate(-2411.732 -1859.742)" fill="none"/>
    </clipPath>
    <clipPath id="clip-path-7">
      <path id="パス_3700" data-name="パス 3700" d="M2463.425,1878.441c-3.665,0-6.427-4.04-6.427-9.292,0-5.368,2.763-9.407,6.427-9.407s6.438,4.039,6.438,9.407C2469.862,1874.4,2467.086,1878.441,2463.425,1878.441Z" transform="translate(-2456.997 -1859.742)" fill="none"/>
    </clipPath>
  </defs>
  <g id="グループ_4337" data-name="グループ 4337" transform="translate(-2370.971 -1784.196)">
    <path id="パス_3629" data-name="パス 3629" d="M2492.532,1853.756c5.224-2.377,8.845-4.171,11.964-6.854,6.608-5.683,11.264-18.875,11.927-21.116a1.809,1.809,0,0,0-.141-1.436,1.143,1.143,0,0,0-.534-.364,3.87,3.87,0,0,0-1.044-.167c-2.819-.155-16.246,1.039-16.8.964-.486-.066-3.315-2.757-8.836-6.305q-1.166-.749-2.494-1.544a1.262,1.262,0,0,1-.509-.444c-.093-.188.011-.448.1-.738,2.649-8.56,5.657-16.515,7.907-22.821.219-.616.646-1.363.442-1.923-.215-.593-.913-.872-1.765-1.078a88.169,88.169,0,0,0-9.343-1.626c-13.411-1.688-36.514-2.281-58.459,6.763a86.719,86.719,0,0,0-8.516,4.052q-1.157.4-2.291.843c-.15.059-.3.124-.45.185-.627.253-1.251.512-1.866.787-.111.048-.221.1-.33.15-.672.305-1.34.619-2,.948l-.141.072c-.269.135-.531.282-.8.422-.452.236-.907.467-1.352.716h0c-3.4-2.093-6.96-4.25-9.386-5.675l-.067-.039c-.42-.247-.805-.471-1.149-.668l-.1-.057q-.19-.109-.362-.205l-.127-.072c-.1-.058-.2-.112-.291-.161l-.1-.056-.317-.17a5.7,5.7,0,0,0-2.615-.672,4.011,4.011,0,0,0-4.117,3.719c-.012.086-.024.186-.037.3,0,.03-.007.066-.011.1-.01.087-.02.176-.031.276l-.013.126c-.011.1-.022.21-.033.327l-.012.115c-.012.128-.026.258-.039.4-.006.049-.01.1-.015.151-.013.132-.025.268-.039.41l-.017.189c-.013.148-.028.3-.041.456-.006.063-.012.127-.018.192l-.041.474c-.006.074-.014.148-.02.222-.015.183-.032.368-.049.559,0,.048-.008.1-.012.143-.019.223-.039.45-.057.683l-.007.078c-.02.235-.04.476-.059.72l-.011.136c-.019.23-.039.465-.058.7l-.012.151q-.032.417-.067.845v.014c-.142,1.8-.288,3.739-.422,5.641-.005.078-.011.155-.016.232l-.051.731c0,.054-.007.107-.011.161q-.026.374-.05.744c-.006.089-.012.178-.018.267-.014.211-.028.42-.041.627-.006.094-.013.188-.019.282-.013.2-.026.405-.039.606l-.019.293c-.012.191-.024.381-.035.567-.007.1-.012.194-.018.291-.01.178-.021.353-.031.526-.006.108-.013.215-.019.321-.009.16-.018.317-.027.472q-.008.15-.016.3c-.01.173-.019.342-.028.509,0,.076-.008.155-.012.229-.008.15-.014.293-.021.437l0,.073-.009.19c-.008.161-.014.314-.022.467,0,.065-.005.132-.008.2-.007.161-.012.314-.018.464,0,.042,0,.088,0,.129-.007.192-.014.375-.017.546l-.016.025a57.926,57.926,0,0,0-5.492,10.8c-.013.035-.029.07-.042.105-.2.517-.382,1.04-.563,1.565-.057.161-.115.322-.17.484-.156.464-.3.932-.449,1.4-.07.229-.142.456-.211.685-.128.432-.248.867-.366,1.3-.074.274-.147.546-.217.821q-.156.613-.3,1.231-.108.466-.208.934-.126.583-.24,1.17c-.066.344-.127.688-.187,1.034-.065.37-.128.741-.185,1.113s-.11.756-.16,1.136c-.047.349-.095.7-.135,1.049-.049.417-.087.836-.126,1.255-.031.321-.064.642-.089.965-.037.481-.062.967-.087,1.452-.013.266-.033.53-.044.8-.029.755-.045,1.513-.045,2.275,0,12.3,3.821,22.006,10.312,29.309,3.441,5.386,12.312,11.582,26.1,14.853a49.082,49.082,0,0,0-14.028,7.043c-.1-.079-.184-.15-.239-.192-.559-.426-1.413-.515-2.756.33-1.385.872-2.134,2.156-1.729,2.615l.021.022c-4.267.211-11.05,2.725-13.491,8.11a14.687,14.687,0,0,0-1.3,5.038,13.029,13.029,0,0,0-.022,1.474,10.346,10.346,0,0,0-1.882,1.158c-.148.111-.271.242-.41.359-3.353,2.819-4.663,7.52-3.959,12.734q.121.9.324,1.828a26.154,26.154,0,0,0,1.64,4.917c.059.135.112.27.174.4.128.28.269.557.408.835.161.323.325.646.5.968.111.2.224.407.341.609.26.45.531.9.819,1.341.06.093.115.185.176.277.383.579.78,1.153,1.21,1.718.037.049.077.093.114.141l.006.008c.345.445.7.874,1.06,1.292.059.068.118.135.177.2.041.048.084.094.126.141q.4.454.819.886c.094.1.189.2.284.292l.1.1c.177.177.355.346.535.517.094.09.185.185.281.272s.178.17.268.252c.154.14.31.275.465.41.137.119.274.234.411.349.022.019.046.036.068.054.084.07.166.147.251.217l.013-.006c.242.2.483.393.729.58.13.1.259.2.391.3.422.309.849.595,1.277.872.215.138.431.27.648.4.258.156.517.3.778.448q.5.275.994.522c.292.144.584.286.877.416.27.12.54.228.81.335.2.078.393.15.591.221.513.185,1.024.345,1.534.483.142.038.285.083.427.118.288.07.573.127.859.182.176.033.349.064.524.092a15.645,15.645,0,0,0,1.826.188c.038,0,.075.007.113.008h0a11.531,11.531,0,0,0,7.019-1.929c.148-.1.307-.186.452-.3a11.966,11.966,0,0,0,4.414-8.49c.147-.049.285-.094.4-.133a3.463,3.463,0,0,0,2.04-2.509,19.677,19.677,0,0,1,7.344-2.111,3.027,3.027,0,0,0,.433-.045,47.462,47.462,0,0,0,31.127,0,3.229,3.229,0,0,0,.437.045,19.687,19.687,0,0,1,7.345,2.111,3.461,3.461,0,0,0,2.039,2.509l.4.133a11.964,11.964,0,0,0,4.414,8.49c.145.111.3.193.452.3a11.533,11.533,0,0,0,7.02,1.929h0c.041,0,.082-.006.123-.008a15.678,15.678,0,0,0,1.815-.188c.175-.028.35-.058.525-.092.286-.055.572-.112.86-.182.143-.035.288-.08.433-.12q.761-.207,1.528-.48c.2-.071.394-.144.591-.222.271-.107.54-.215.81-.335.294-.13.587-.272.879-.417q.5-.247.991-.521c.261-.145.52-.292.779-.448.217-.13.432-.262.648-.4.428-.277.856-.563,1.277-.872.131-.1.26-.2.391-.3.245-.186.487-.383.729-.58l.012.006c.085-.069.168-.148.253-.219.021-.018.044-.033.066-.052.139-.115.275-.23.412-.349.156-.135.311-.271.464-.41.091-.082.181-.169.271-.253.186-.174.368-.355.552-.535.087-.084.176-.167.262-.254l.1-.1q.144-.146.286-.294.415-.432.817-.885c.042-.048.086-.095.127-.142.059-.067.119-.134.177-.2.362-.419.717-.85,1.062-1.3l0-.005h0c.038-.049.077-.093.114-.141.43-.565.828-1.139,1.21-1.718.061-.092.117-.184.177-.277.288-.444.559-.891.818-1.341.118-.2.23-.405.342-.609.176-.322.339-.645.5-.968.139-.278.28-.556.407-.835.062-.133.114-.267.172-.4a26.138,26.138,0,0,0,1.642-4.92,21.774,21.774,0,0,0,.489-3.616c.212-4.492-1.159-8.453-4.124-10.946-.139-.117-.263-.249-.409-.359a10.353,10.353,0,0,0-1.883-1.158,13.4,13.4,0,0,0-.16-2.68l-.005-.037a14.585,14.585,0,0,0-.6-2.4c-.025-.074-.052-.149-.078-.222-.14-.39-.292-.781-.471-1.176-2.44-5.385-9.224-7.9-13.49-8.11l.021-.022c.4-.458-.344-1.742-1.729-2.615-1.343-.845-2.2-.756-2.757-.33-.055.041-.142.113-.239.192a49.231,49.231,0,0,0-13.654-6.927,47.077,47.077,0,0,0,5.017-1.627,56.4,56.4,0,0,0,10.522-4.543c6.565.782,15.148,1.475,19.891,1.473,6.427,0,20.056-9.947,23.62-16.245a3.038,3.038,0,0,0,.408-2.723.616.616,0,0,0-.1-.132,6.09,6.09,0,0,0-3.019-.725c-5.343-.384-10.307-1.635-10.934-2.126-.5-.391-3.524-7.107-6.424-12.347-.74-1.336-1.471-2.577-2.152-3.591a2.773,2.773,0,0,1-.614-1.112A.639.639,0,0,1,2492.532,1853.756Z" transform="translate(0 0)" fill="none" stroke="#aeaeae" stroke-miterlimit="10" stroke-width="6"/>
    <g id="shadow_fun" transform="translate(2373.999 1787.294)">
      <g id="グループ_2198" data-name="グループ 2198" transform="translate(0 105.751)">
        <path id="パス_3630" data-name="パス 3630" d="M2422.9,1909.453c-2.322-1.235-15.28,2.667-23.842,10.578,1.664,3.942,9.834,10.35,12.159,11.075.732-3.563,3.311-10.139,5.829-12.975C2421.647,1913.01,2425.475,1910.787,2422.9,1909.453Z" transform="translate(-2376.505 -1905.24)" fill="#1a1a1a"/>
        <path id="パス_3631" data-name="パス 3631" d="M2457.471,1909.453c2.322-1.235,15.279,2.667,23.842,10.578-1.664,3.942-9.835,10.35-12.16,11.075-.732-3.563-3.311-10.139-5.83-12.975C2458.725,1913.01,2454.9,1910.787,2457.471,1909.453Z" transform="translate(-2382.265 -1905.24)" fill="#1a1a1a"/>
        <path id="パス_3632" data-name="パス 3632" d="M2466.7,1923.1a31.016,31.016,0,0,0-56.585,0l1.23.556a29.667,29.667,0,0,1,54.13.009Z" transform="translate(-2377.611 -1904.797)" fill="#595959"/>
        <path id="パス_3633" data-name="パス 3633" d="M2397.265,1921.229c-4.029-.32-12.092,2.131-14.8,8.1a13.093,13.093,0,0,0,6.516,17.843c7.922,3.544,16.539,1.2,18.868-4.3,1.45-3.295,1.783-5.9,1.576-10.574C2407.8,1931.827,2397.695,1922.851,2397.265,1921.229Z" transform="translate(-2374.711 -1906.438)" fill="#fff"/>
        <path id="パス_3634" data-name="パス 3634" d="M2412.85,1930.319c-.436,1.293-.5,2.43-1.782,1.85-1.195-.537-12.547-10.257-13.5-11.331-.405-.458.344-1.742,1.729-2.615,1.343-.845,2.2-.756,2.756-.33,1.033.785,9.891,8.689,10.5,9.278C2413.612,1928.189,2413.3,1928.973,2412.85,1930.319Z" transform="translate(-2376.345 -1906.075)" fill="#ffcc01"/>
        <path id="パス_3635" data-name="パス 3635" d="M2482.7,1921.229c4.029-.32,12.092,2.131,14.8,8.1a13.092,13.092,0,0,1-6.516,17.843c-7.923,3.544-16.539,1.2-18.867-4.3-1.451-3.295-1.783-5.9-1.576-10.574C2472.163,1931.827,2482.267,1922.851,2482.7,1921.229Z" transform="translate(-2383.649 -1906.438)" fill="#fff"/>
        <path id="パス_3636" data-name="パス 3636" d="M2468.507,1930.319c.436,1.293.495,2.43,1.783,1.85,1.194-.537,12.547-10.257,13.5-11.331.4-.458-.344-1.742-1.729-2.615-1.343-.845-2.2-.756-2.757-.33-1.032.785-9.89,8.689-10.5,9.278C2467.746,1928.189,2468.053,1928.973,2468.507,1930.319Z" transform="translate(-2383.409 -1906.075)" fill="#ffcc01"/>
        <path id="パス_3637" data-name="パス 3637" d="M2408.683,1934.082c.97-16.576,15.282-27.785,29.575-27.785s28.6,11.209,29.581,27.785c.945,16.187-11.066,24.825-29.58,24.825S2407.738,1950.269,2408.683,1934.082Z" transform="translate(-2377.462 -1904.947)" fill="#1a1a1a"/>
        <path id="パス_3638" data-name="パス 3638" d="M2439.429,1940.425c5.441-.816,12.758-4.269,13.57-6.336a9.115,9.115,0,0,0-6.781-2.988c6.782-.72,11.621-3.918,12.4-6.124-2.763-2.2-6.682-2.162-9.622-1.466,4.333-2.522,6.724-5.347,6.885-8.509-6.3-.909-10.511.406-16.461,4.136-5.951-3.73-10.166-5.045-16.461-4.136.16,3.162,2.551,5.988,6.884,8.509-2.939-.7-6.859-.732-9.622,1.466.784,2.207,5.622,5.4,12.4,6.124a9.116,9.116,0,0,0-6.781,2.988c.812,2.067,8.129,5.52,13.57,6.336Z" transform="translate(-2378.622 -1905.79)" fill="#fff"/>
        <g id="グループ_2190" data-name="グループ 2190" transform="translate(0 14.764)">
          <path id="パス_3639" data-name="パス 3639" d="M2419.776,1951.505c-2.688-2.191-14.73-2.714-18.886,4.277-2.981,4.959,2.85,18.168,5.33,13.359,2-3.81,9.965-8.248,15.189-8.437,1.206-.044,2.068-.656,2.062-2.656S2422.463,1953.7,2419.776,1951.505Z" transform="translate(-2376.605 -1924.087)" fill="#1a1a1a"/>
          <path id="パス_3640" data-name="パス 3640" d="M2411.784,1965.281c2.327-.779,3.055-4.887,1.622-9.175s-4.481-7.136-6.81-6.358c-1.332.445-5.251,1.754-6.584,2.2-2.328.778-3.056,4.889-1.622,9.176s4.482,7.136,6.81,6.356Z" transform="translate(-2376.365 -1924.044)" fill="#ffcc01"/>
          <g id="グループ_2185" data-name="グループ 2185" transform="translate(6.407)">
            <g id="グループ_2184" data-name="グループ 2184" clip-path="url(#clip-path)">
              <path id="パス_3641" data-name="パス 3641" d="M2404.292,1945.5l0-.006c-4.55-5.886-10.835-9.855-16.812-10.618a12.655,12.655,0,0,0-14.81,11.355c-.815,5.962,1.389,13.041,5.9,18.936s10.749,9.9,16.724,10.7a16.636,16.636,0,0,0,2.18.148,12.6,12.6,0,0,0,7.8-2.521,13.116,13.116,0,0,0,4.906-8.972C2411,1958.507,2408.8,1951.4,2404.292,1945.5Zm.164,26.916c-6.525,5-17.633,1.362-24.819-8.068-7.209-9.429-7.759-21.068-1.234-25.99,6.508-5.042,17.61-1.363,24.816,7.959C2410.41,1955.734,2410.96,1967.491,2404.456,1972.415Z" transform="translate(-2380.255 -1922.556)" fill="#a3bdc3"/>
            </g>
          </g>
          <path id="パス_3643" data-name="パス 3643" d="M2403.37,1946.468c7.19,9.416,7.741,21.173,1.237,26.1-6.525,5-17.633,1.362-24.819-8.068-7.209-9.429-7.759-21.067-1.234-25.99C2385.061,1933.466,2396.163,1937.145,2403.37,1946.468Z" transform="translate(-2373.999 -1922.706)" fill="#e60001"/>
          <path id="パス_3644" data-name="パス 3644" d="M2403.37,1946.468a30.279,30.279,0,0,1,3.341,5.482c3.808,8.1-19.737,21.977-26.923,12.547-7.209-9.429-7.759-21.067-1.234-25.99C2385.061,1933.466,2396.163,1937.145,2403.37,1946.468Z" transform="translate(-2373.999 -1922.706)" fill="#fff"/>
          <g id="グループ_2187" data-name="グループ 2187" transform="translate(0 13.536)">
            <g id="グループ_2186" data-name="グループ 2186" clip-path="url(#clip-path-2)">
              <path id="パス_3645" data-name="パス 3645" d="M2401.655,1947.857c7.19,9.417,8.121,20.882,2.079,25.454-6.059,4.646-16.791.718-23.978-8.71-7.209-9.429-8.135-20.781-2.074-25.349C2383.723,1934.568,2394.452,1938.532,2401.655,1947.857Z" transform="translate(-2373.966 -1936.345)" fill="#e60001"/>
            </g>
          </g>
          <path id="パス_3647" data-name="パス 3647" d="M2379.805,1965.005a28.26,28.26,0,0,1-5.377-11.711c-.579-4.578.644-8.526,3.765-10.552,5.666-3.784,15.4.257,21.742,8.811,6.345,8.628,6.9,18.719,1.22,22.4a8.586,8.586,0,0,1-3.991,1.344C2391.349,1975.106,2384.686,1971.389,2379.805,1965.005Z" transform="translate(-2374.028 -1923.214)" fill="#8f0000"/>
          <path id="パス_3648" data-name="パス 3648" d="M2383.33,1945.887h0c4.382,0,9.94,3.527,13.822,8.766,3.35,4.557,4.992,9.787,4.285,13.653a5.16,5.16,0,0,1-2.156,3.618,4.9,4.9,0,0,1-2.119.734c-4.893-.262-10.38-3.641-14.375-8.868a24.635,24.635,0,0,1-4.682-10.088c-.194-1.639-.32-5.358,2.167-6.973l.02-.012.019-.014a5.339,5.339,0,0,1,3.02-.817" transform="translate(-2374.4 -1923.67)" fill="#ff9901"/>
          <g id="グループ_2188" data-name="グループ 2188" transform="translate(5.317 23.986)">
            <path id="パス_3649" data-name="パス 3649" d="M2400.9,1969.135a3.034,3.034,0,0,1-.336,4.259,2.51,2.51,0,0,1-.654.343l-.011.011a3.1,3.1,0,0,1-3.713-4.9,2.434,2.434,0,0,1,.522-.554A3.032,3.032,0,0,1,2400.9,1969.135Z" transform="translate(-2381.435 -1949.845)" fill="#ffcc01"/>
            <path id="パス_3650" data-name="パス 3650" d="M2390.881,1956.071a3.026,3.026,0,0,1-.4,4.251,2.476,2.476,0,0,1-.635.328c-.011.008-.018.019-.03.028a3.1,3.1,0,0,1-3.675-4.925,2.493,2.493,0,0,1,.563-.592A3.032,3.032,0,0,1,2390.881,1956.071Z" transform="translate(-2380.43 -1948.534)" fill="#ffcc01"/>
            <path id="パス_3651" data-name="パス 3651" d="M2381.431,1948.369a3.222,3.222,0,0,1,3.848,5.11,2.5,2.5,0,0,1-.652.341l-.013.014a3.1,3.1,0,0,1-3.709-4.907A2.5,2.5,0,0,1,2381.431,1948.369Z" transform="translate(-2379.906 -1947.853)" fill="#ffcc01"/>
            <path id="パス_3652" data-name="パス 3652" d="M2397.241,1972.279a1.237,1.237,0,1,0,.145-1.844A1.315,1.315,0,0,0,2397.241,1972.279Z" transform="translate(-2381.609 -1950.089)" fill="#ff9901"/>
            <path id="パス_3653" data-name="パス 3653" d="M2387.184,1959.164a1.236,1.236,0,1,0,.173-1.843A1.313,1.313,0,0,0,2387.184,1959.164Z" transform="translate(-2380.604 -1948.779)" fill="#ff9901"/>
            <path id="パス_3654" data-name="パス 3654" d="M2381.958,1952.359a1.236,1.236,0,1,0,.148-1.842A1.314,1.314,0,0,0,2381.958,1952.359Z" transform="translate(-2380.081 -1948.097)" fill="#ff9901"/>
          </g>
          <g id="グループ_2189" data-name="グループ 2189" transform="translate(5.891 25.77)">
            <path id="パス_3655" data-name="パス 3655" d="M2407.443,1961.482c.9-.408,3.323-3.577,3.269-5.949a28.457,28.457,0,0,0-2.861-5.7c.177,1.856-2.156,4.45-3.134,5.215l-.011.008a26.161,26.161,0,0,1,2.724,6.434Z" transform="translate(-2382.961 -1949.835)" fill="#1a1a1a"/>
            <path id="パス_3656" data-name="パス 3656" d="M2383.727,1965.454a26.276,26.276,0,0,0,5.043,4.859c3.8-1.795,9.319-4.306,12.967-6.086a22.618,22.618,0,0,0-2.652-6.321C2394.892,1960.132,2388.314,1963.283,2383.727,1965.454Z" transform="translate(-2380.863 -1950.642)" fill="#737373"/>
            <path id="パス_3657" data-name="パス 3657" d="M2383.408,1966.293c-1.084.513-2.061.974-2.864,1.352a30.322,30.322,0,0,0,4.854,4.993c.745-.383,1.807-.9,3.054-1.486A26.276,26.276,0,0,1,2383.408,1966.293Z" transform="translate(-2380.545 -1951.481)" fill="#4d4d4d"/>
            <path id="パス_3658" data-name="パス 3658" d="M2403.444,1964a30.322,30.322,0,0,0,3.594-1.928,26.164,26.164,0,0,0-2.724-6.434,36.29,36.29,0,0,1-3.523,2.041A22.617,22.617,0,0,1,2403.444,1964Z" transform="translate(-2382.57 -1950.415)" fill="#4d4d4d"/>
          </g>
        </g>
        <g id="グループ_2197" data-name="グループ 2197" transform="translate(74.737 14.764)">
          <path id="パス_3659" data-name="パス 3659" d="M2460.736,1951.505c2.688-2.191,14.731-2.714,18.886,4.277,2.981,4.959-2.85,18.168-5.33,13.359-2-3.81-9.965-8.248-15.189-8.437-1.206-.044-2.068-.656-2.062-2.656S2458.049,1953.7,2460.736,1951.505Z" transform="translate(-2457.042 -1924.087)" fill="#1a1a1a"/>
          <path id="パス_3660" data-name="パス 3660" d="M2469.5,1965.281c-2.327-.779-3.055-4.887-1.622-9.175s4.481-7.136,6.81-6.358c1.332.445,5.251,1.754,6.584,2.2,2.328.778,3.056,4.889,1.623,9.176s-4.483,7.136-6.81,6.356Z" transform="translate(-2458.052 -1924.044)" fill="#ffcc01"/>
          <g id="グループ_2192" data-name="グループ 2192" transform="translate(12.095)">
            <g id="グループ_2191" data-name="グループ 2191" clip-path="url(#clip-path-3)">
              <path id="パス_3661" data-name="パス 3661" d="M2506.241,1946.23a12.656,12.656,0,0,0-14.81-11.355c-5.977.763-12.261,4.732-16.812,10.618l0,.006c-4.5,5.9-6.7,13.007-5.884,19.02a13.11,13.11,0,0,0,4.9,8.967,12.608,12.608,0,0,0,7.81,2.526,16.631,16.631,0,0,0,2.179-.147c5.975-.8,12.227-4.8,16.723-10.7S2507.057,1952.192,2506.241,1946.23Zm-6.971,18.118c-7.187,9.429-18.294,13.07-24.819,8.067-6.5-4.924-5.953-16.681,1.237-26.1,7.206-9.322,18.308-13,24.817-7.959C2507.03,1943.28,2506.479,1954.918,2499.271,1964.348Z" transform="translate(-2470.289 -1922.555)" fill="#a3bdc3"/>
            </g>
          </g>
          <path id="パス_3663" data-name="パス 3663" d="M2475.838,1946.468c-7.19,9.416-7.741,21.173-1.237,26.1,6.525,5,17.633,1.362,24.82-8.068,7.208-9.429,7.759-21.067,1.234-25.99C2494.146,1933.466,2483.044,1937.145,2475.838,1946.468Z" transform="translate(-2458.344 -1922.706)" fill="#e60001"/>
          <path id="パス_3664" data-name="パス 3664" d="M2476.063,1946.468a30.336,30.336,0,0,0-3.341,5.482c-3.807,8.1,19.737,21.977,26.924,12.547,7.208-9.429,7.759-21.067,1.234-25.99C2494.371,1933.466,2483.269,1937.145,2476.063,1946.468Z" transform="translate(-2458.569 -1922.706)" fill="#fff"/>
          <g id="グループ_2194" data-name="グループ 2194" transform="translate(11.718 13.536)">
            <g id="グループ_2193" data-name="グループ 2193" clip-path="url(#clip-path-4)">
              <path id="パス_3665" data-name="パス 3665" d="M2477.676,1947.857c-7.19,9.417-8.121,20.882-2.079,25.454,6.059,4.646,16.791.718,23.979-8.71,7.208-9.429,8.134-20.781,2.073-25.349C2495.607,1934.568,2484.878,1938.532,2477.676,1947.857Z" transform="translate(-2470.217 -1936.345)" fill="#e60001"/>
            </g>
          </g>
          <path id="パス_3667" data-name="パス 3667" d="M2499.886,1965.005a28.257,28.257,0,0,0,5.377-11.711c.579-4.578-.644-8.526-3.764-10.552-5.666-3.784-15.4.257-21.742,8.811-6.345,8.628-6.9,18.719-1.219,22.4a8.578,8.578,0,0,0,3.99,1.344C2488.343,1975.106,2495.006,1971.389,2499.886,1965.005Z" transform="translate(-2458.8 -1923.214)" fill="#8f0000"/>
          <path id="パス_3668" data-name="パス 3668" d="M2497.163,1945.887h0c-4.382,0-9.94,3.527-13.822,8.766-3.35,4.557-4.991,9.787-4.285,13.653a5.164,5.164,0,0,0,2.156,3.618,4.9,4.9,0,0,0,2.119.734c4.893-.262,10.38-3.641,14.375-8.868a24.638,24.638,0,0,0,4.683-10.088c.193-1.639.32-5.358-2.167-6.973l-.02-.012-.019-.014a5.339,5.339,0,0,0-3.021-.817" transform="translate(-2459.228 -1923.67)" fill="#ff9901"/>
          <g id="グループ_2195" data-name="グループ 2195" transform="translate(21.373 23.986)">
            <path id="パス_3669" data-name="パス 3669" d="M2481.5,1969.135a3.032,3.032,0,0,0,.336,4.259,2.487,2.487,0,0,0,.654.343l.011.011a3.1,3.1,0,0,0,3.713-4.9,2.435,2.435,0,0,0-.522-.554A3.031,3.031,0,0,0,2481.5,1969.135Z" transform="translate(-2480.79 -1949.845)" fill="#ffcc01"/>
            <path id="パス_3670" data-name="パス 3670" d="M2491.521,1956.071a3.027,3.027,0,0,0,.4,4.251,2.471,2.471,0,0,0,.635.328c.011.008.018.019.03.028a3.1,3.1,0,0,0,3.675-4.925,2.494,2.494,0,0,0-.563-.592A3.032,3.032,0,0,0,2491.521,1956.071Z" transform="translate(-2481.795 -1948.534)" fill="#ffcc01"/>
            <path id="パス_3671" data-name="パス 3671" d="M2500.969,1948.369a3.222,3.222,0,0,0-3.848,5.11,2.511,2.511,0,0,0,.652.341l.014.014a3.1,3.1,0,0,0,3.71-4.907A2.515,2.515,0,0,0,2500.969,1948.369Z" transform="translate(-2482.318 -1947.853)" fill="#ffcc01"/>
            <path id="パス_3672" data-name="パス 3672" d="M2485.586,1972.279a1.236,1.236,0,1,1-.145-1.844A1.315,1.315,0,0,1,2485.586,1972.279Z" transform="translate(-2481.043 -1950.089)" fill="#ff9901"/>
            <path id="パス_3673" data-name="パス 3673" d="M2495.644,1959.164a1.236,1.236,0,1,1-.172-1.843A1.312,1.312,0,0,1,2495.644,1959.164Z" transform="translate(-2482.049 -1948.779)" fill="#ff9901"/>
            <path id="パス_3674" data-name="パス 3674" d="M2500.871,1952.359a1.236,1.236,0,1,1-.149-1.842A1.315,1.315,0,0,1,2500.871,1952.359Z" transform="translate(-2482.572 -1948.097)" fill="#ff9901"/>
          </g>
          <g id="グループ_2196" data-name="グループ 2196" transform="translate(13.222 25.77)">
            <path id="パス_3675" data-name="パス 3675" d="M2475,1961.482c-.9-.408-3.323-3.577-3.269-5.949a28.47,28.47,0,0,1,2.861-5.7c-.177,1.856,2.157,4.45,3.134,5.215l.012.008a26.143,26.143,0,0,0-2.724,6.434Z" transform="translate(-2471.733 -1949.835)" fill="#1a1a1a"/>
            <path id="パス_3676" data-name="パス 3676" d="M2497.385,1965.454a26.292,26.292,0,0,1-5.042,4.859c-3.8-1.795-9.319-4.306-12.968-6.086a22.61,22.61,0,0,1,2.652-6.321C2486.22,1960.132,2492.8,1963.283,2497.385,1965.454Z" transform="translate(-2472.497 -1950.642)" fill="#737373"/>
            <path id="パス_3677" data-name="パス 3677" d="M2498.826,1966.293c1.084.513,2.061.974,2.864,1.352a30.282,30.282,0,0,1-4.854,4.993c-.744-.383-1.807-.9-3.053-1.486A26.292,26.292,0,0,0,2498.826,1966.293Z" transform="translate(-2473.938 -1951.481)" fill="#4d4d4d"/>
            <path id="パス_3678" data-name="パス 3678" d="M2478.976,1964a30.343,30.343,0,0,1-3.594-1.928,26.136,26.136,0,0,1,2.724-6.434,36.464,36.464,0,0,0,3.522,2.041A22.609,22.609,0,0,0,2478.976,1964Z" transform="translate(-2472.098 -1950.415)" fill="#4d4d4d"/>
          </g>
        </g>
      </g>
      <g id="グループ_2208" data-name="グループ 2208" transform="translate(3.567)">
        <g id="グループ_2202" data-name="グループ 2202">
          <g id="グループ_2201" data-name="グループ 2201" clip-path="url(#clip-path-5)">
            <path id="パス_3679" data-name="パス 3679" d="M2515.1,1823.819c-2.819-.155-16.247,1.039-16.8.964s-4.157-3.568-11.33-7.85a1.263,1.263,0,0,1-.509-.444c-.093-.188.011-.448.1-.738,2.649-8.56,5.657-16.516,7.907-22.821.219-.616.646-1.363.442-1.923-.215-.593-.913-.872-1.765-1.078-9.185-2.228-45.428-7.67-76.318,9.189a57.78,57.78,0,0,0-38.867,54.732c0,31.9,25.627,46.461,57.232,46.461,14.871,0,25.135-1.8,35.312-8.529a209.25,209.25,0,0,0,21.321,1.649c6.427,0,20.056-9.947,23.62-16.245.645-1.141.792-2.436.3-2.856a6.092,6.092,0,0,0-3.019-.725c-5.343-.383-10.307-1.634-10.935-2.126s-5.229-10.946-8.575-15.938a2.774,2.774,0,0,1-.614-1.112.64.64,0,0,1,.319-.673c5.224-2.377,8.845-4.171,11.964-6.854,6.608-5.682,11.264-18.875,11.927-21.115a1.811,1.811,0,0,0-.141-1.437C2516.423,1824.037,2516.039,1823.871,2515.1,1823.819Z" transform="translate(-2377.962 -1787.294)" fill="#1a1a1a"/>
            <path id="パス_3680" data-name="パス 3680" d="M2446.257,1787.1c-33.031,3.208-8.929,35.774-7.809,35.774.56,0,6.118-6.772,13.4-17.189,8.777-12.56,25.469-17.41,42.868-17.928C2494.937,1785.505,2478.495,1783.967,2446.257,1787.1Z" transform="translate(-2383.058 -1787.097)" fill="#e60001"/>
            <path id="パス_3681" data-name="パス 3681" d="M2501.726,1821.715c.8,1.7,11.269,12,13.549,12.438s16.367-7.609,16.635-10.291C2529.094,1824.264,2508.166,1823.325,2501.726,1821.715Z" transform="translate(-2390.341 -1790.737)" fill="#e60001"/>
            <path id="パス_3682" data-name="パス 3682" d="M2508.423,1867.116s3.9,14.9,6.046,16.2,15.965-.521,16.5-1.727S2508.423,1867.116,2508.423,1867.116Z" transform="translate(-2391.01 -1795.277)" fill="#e60001"/>
            <g id="グループ_2199" data-name="グループ 2199" transform="translate(76.788 6.822)">
              <path id="パス_3683" data-name="パス 3683" d="M2492.244,1823.9a.672.672,0,0,0,.627-.762s-1.284-20.567-1.653-23.371a5.38,5.38,0,0,0-5.456-4.893,7.067,7.067,0,0,0-3.239.825c-2.688,1.4-18.858,11.429-18.858,11.429a.719.719,0,0,0-.289.974.736.736,0,0,0,1.013.167s16.217-10.049,18.757-11.372a5.7,5.7,0,0,1,2.616-.672,4.011,4.011,0,0,1,4.116,3.72c.371,2.811,1.643,23.19,1.643,23.19A.787.787,0,0,0,2492.244,1823.9Z" transform="translate(-2463.283 -1794.874)" fill="#595959"/>
            </g>
            <path id="パス_3684" data-name="パス 3684" d="M2485.813,1796.374a4.011,4.011,0,0,1,4.116,3.72c.371,2.811,1.7,19.958,1.69,23.954a3.205,3.205,0,0,1-.64.058c-5.635,0-24.335-10.542-27.191-15.284,5.142-3.261,16.867-10.452,19.408-11.775a5.7,5.7,0,0,1,2.616-.672" transform="translate(-2386.546 -1788.202)" fill="#1a1a1a"/>
            <g id="グループ_2200" data-name="グループ 2200" transform="translate(8.08 6.822)">
              <path id="パス_3685" data-name="パス 3685" d="M2387.566,1821.634a.8.8,0,0,0,.728-.774s1.254-18.486,1.574-20.917a4.011,4.011,0,0,1,4.117-3.72,5.7,5.7,0,0,1,2.615.672c2.541,1.323,18.758,11.372,18.758,11.372a.736.736,0,0,0,1.012-.167.719.719,0,0,0-.289-.974s-16.17-10.03-18.858-11.429a7.065,7.065,0,0,0-3.238-.825,5.38,5.38,0,0,0-5.457,4.893c-.319,2.433-1.588,21.115-1.588,21.115A.656.656,0,0,0,2387.566,1821.634Z" transform="translate(-2386.939 -1794.874)" fill="#595959"/>
            </g>
            <path id="パス_3686" data-name="パス 3686" d="M2394.124,1796.374a5.7,5.7,0,0,1,2.615.672c2.541,1.323,14.265,8.515,19.408,11.775-2.856,4.742-21.555,15.284-27.191,15.284a3.215,3.215,0,0,1-.64-.058c-.011-4,1.32-21.143,1.69-23.954a4.011,4.011,0,0,1,4.117-3.72" transform="translate(-2378.997 -1788.202)" fill="#1a1a1a"/>
            <path id="パス_3687" data-name="パス 3687" d="M2483.779,1803.41c1.257-.81,2.432-.26,2.588,1.291l.693,12.706c.167,1.432-.77,2.127-2.077,1.348l-10.878-6.221a1.57,1.57,0,0,1-.055-2.9Z" transform="translate(-2387.478 -1788.869)" fill="#ffa615"/>
            <path id="パス_3688" data-name="パス 3688" d="M2397.77,1803.41c-1.258-.81-2.432-.26-2.588,1.291l-.694,12.706c-.167,1.432.77,2.127,2.078,1.348l10.878-6.221a1.57,1.57,0,0,0,.054-2.9Z" transform="translate(-2379.612 -1788.869)" fill="#ffa615"/>
          </g>
        </g>
        <path id="パス_3690" data-name="パス 3690" d="M2436.559,1847.957c21.56,0,38.6-20.828,39.813-19.977s7.354,14.771,4.106,30.266c-5.589,0-22.306,4.953-43.952,4.953s-38.363-4.953-43.953-4.953c-3.248-15.494,2.894-29.413,4.106-30.266S2415,1847.957,2436.559,1847.957Z" transform="translate(-2379.329 -1791.361)" fill="#e60001"/>
        <path id="パス_3691" data-name="パス 3691" d="M2473.39,1833.193c-8.118,5.626-24.823,15.284-36.731,15.284s-28.673-9.677-36.793-15.327c-4.24,5.471-7.227,13.622-7.227,23.71,0,19.444,10.6,27.489,23.6,27.489h40.741c12.99,0,23.549-8.045,23.549-27.489C2480.527,1846.8,2479.256,1837.986,2473.39,1833.193Z" transform="translate(-2379.43 -1791.88)" fill="#fff"/>
        <path id="パス_3692" data-name="パス 3692" d="M2436.156,1909.828c35.534,0,52.78-17.833,47.662-24.586-2.912-3.863-6.956-3.186-11.983-1.185a34.089,34.089,0,0,1-7.164,2.957,58.294,58.294,0,0,1-10.345,1.667c-3.406-2.276-9.884-4.731-18.123-4.731s-14.812,2.455-18.218,4.731a58.306,58.306,0,0,1-10.345-1.667,34.121,34.121,0,0,1-7.164-2.957c-5.027-2-9.071-2.677-11.982,1.185C2383.374,1891.995,2400.621,1909.828,2436.156,1909.828Z" transform="translate(-2378.927 -1796.811)" fill="#ffa615"/>
        <path id="パス_3693" data-name="パス 3693" d="M2476.626,1899.637c-.733.51-1.586-.245-1.891-.509a5.71,5.71,0,0,0-4.18-1.189c-4.261.179-8.7,2.676-10.321,5.224-.346.545-.758.949-1.431.76a1.17,1.17,0,0,1-.472-1.575,9.388,9.388,0,0,1,3-3.519,16.473,16.473,0,0,1,9.235-3.334c2.7-.053,4.856.711,6.061,2.173C2477.021,1898.213,2477.359,1899.126,2476.626,1899.637Z" transform="translate(-2385.988 -1798.116)" fill="#7f4d14"/>
        <path id="パス_3694" data-name="パス 3694" d="M2446.85,1884.709c0,2.253-2.688,4.141-5.97,4.141-3.364,0-6.034-1.888-6.034-4.141,0-2.372,2.67-4.26,6.034-4.26C2444.162,1880.449,2446.85,1882.337,2446.85,1884.709Z" transform="translate(-2383.651 -1796.611)"/>
        <g id="グループ_2207" data-name="グループ 2207" transform="translate(30.392 65.202)">
          <g id="グループ_2204" data-name="グループ 2204">
            <g id="グループ_2203" data-name="グループ 2203" clip-path="url(#clip-path-6)">
              <path id="パス_3695" data-name="パス 3695" d="M2418.158,1878.441c-3.663,0-6.426-4.04-6.426-9.292,0-5.368,2.763-9.407,6.426-9.407s6.438,4.039,6.438,9.407C2424.6,1874.4,2421.821,1878.441,2418.158,1878.441Z" transform="translate(-2411.732 -1859.742)" fill="#ac0000"/>
              <path id="パス_3696" data-name="パス 3696" d="M2424.787,1865.133a8.907,8.907,0,1,1-8.9-8.465A8.716,8.716,0,0,1,2424.787,1865.133Z" transform="translate(-2411.258 -1859.434)"/>
            </g>
          </g>
          <g id="グループ_2206" data-name="グループ 2206" transform="translate(40.738)">
            <g id="グループ_2205" data-name="グループ 2205" clip-path="url(#clip-path-7)">
              <path id="パス_3698" data-name="パス 3698" d="M2463.425,1878.441c-3.665,0-6.427-4.04-6.427-9.292,0-5.368,2.763-9.407,6.427-9.407s6.438,4.039,6.438,9.407C2469.862,1874.4,2467.086,1878.441,2463.425,1878.441Z" transform="translate(-2456.997 -1859.742)" fill="#ac0000"/>
              <path id="パス_3699" data-name="パス 3699" d="M2470.053,1865.132a8.906,8.906,0,1,1-8.9-8.466A8.714,8.714,0,0,1,2470.053,1865.132Z" transform="translate(-2456.524 -1859.434)"/>
            </g>
          </g>
        </g>
      </g>
    </g>
  </g>
</svg>
