<svg xmlns="http://www.w3.org/2000/svg" xmlns:xlink="http://www.w3.org/1999/xlink" width="158.67" height="175.041" viewBox="0 0 158.67 175.041">
  <defs>
    <clipPath id="clip-path">
      <path id="パス_2103" data-name="パス 2103" d="M2542,878.663c-2.71-4.565-10.575-16.586-24.947-22.921-.245-.108-.4-.148-.463-.349s.083-.44.21-.713c3.708-7.931,8.163-15.534,11.494-21.2.333-.564.813-1.338.725-1.835-.11-.621-.771-1-1.583-1.332-8.745-3.582-44.151-14.587-77.228-2.565a56.885,56.885,0,0,0-9.743,2.688c-4.462-3.776-9.229-7.738-10.7-8.809a5.659,5.659,0,0,0-2.485-1.057,4.012,4.012,0,0,0-4.63,3.057c-.739,2.553-4.21,17.446-5.125,22.548a57.835,57.835,0,0,0-13.976,29.839c-4.8,31.534,18.349,49.789,49.6,54.541,14.7,2.235,28.577,1.085,39.653-4.044,15.808,3.164,26.323,6.209,31.354,7.251,1.951.406,2.714.678,3.182.238s.511-1.467.462-3.429c-.175-7.152-2.468-24.192-10.544-35.552a2.248,2.248,0,0,1-.537-1.207c.015-.239.247-.453.515-.6,10.5-5.914,20.712-10.15,24.091-12.023.806-.446.975-.724,1.075-1.07C2542.478,879.84,2542.482,879.474,2542,878.663Z" transform="translate(-2402.924 -820.516)" fill="none"/>
    </clipPath>
    <clipPath id="clip-path-2">
      <path id="パス_2110" data-name="パス 2110" d="M2440.608,905.325c-3.622-.551-5.745-4.96-4.955-10.152.807-5.309,4.144-8.886,7.767-8.334s5.759,4.96,4.951,10.269C2447.582,902.3,2444.23,905.876,2440.608,905.325Z" transform="translate(-2435.489 -886.783)" fill="none"/>
    </clipPath>
    <clipPath id="clip-path-3">
      <path id="パス_2113" data-name="パス 2113" d="M2485.359,912.132c-3.624-.554-5.747-4.961-4.957-10.152.809-5.308,4.146-8.886,7.769-8.334s5.758,4.96,4.95,10.269C2492.332,909.106,2488.979,912.682,2485.359,912.132Z" transform="translate(-2480.238 -893.59)" fill="none"/>
    </clipPath>
  </defs>
  <g id="グループ_4333" data-name="グループ 4333" transform="translate(-2384.635 -817.517)">
    <path id="パス_2080" data-name="パス 2080" d="M2424.753,817.517h0a6.656,6.656,0,0,0-6.518,5.057c-.7,2.433-3.944,16.275-5.052,22.079a60.6,60.6,0,0,0-14.126,30.655c-1.855,12.192.18,23.017,6.049,32.181a8.749,8.749,0,0,0-.512,1.07,17.628,17.628,0,0,0-5.979-1.076,12.431,12.431,0,0,0-11.736,7.431c-3.118,6.547-2.982,13.35.374,18.664a16.682,16.682,0,0,0,14.477,7.683,23.586,23.586,0,0,0,10.452-2.6,7.226,7.226,0,0,0,2.958.606c.266,0,.536-.013.8-.039a5.511,5.511,0,0,0,3.891-1.779c1.4-.086,2.831-.238,4.264-.449a31.652,31.652,0,0,0-4.768,14.963,30.872,30.872,0,0,0,.062,4.592c-5.035-4.994-11.276-7.97-17.025-7.97a13.98,13.98,0,0,0-8.663,2.832,14.379,14.379,0,0,0-5.423,9.824c-.862,6.31,1.442,13.764,6.165,19.941,5.346,7.015,13,11.375,19.964,11.375a14.043,14.043,0,0,0,8.644-2.8,14.642,14.642,0,0,0,5.469-10.383,18.549,18.549,0,0,1,7.13-2.3,50.6,50.6,0,0,0,31.9,0,18.5,18.5,0,0,1,7.138,2.3,14.645,14.645,0,0,0,5.495,10.393,13.98,13.98,0,0,0,8.615,2.792c6.958,0,14.613-4.359,19.978-11.375,4.712-6.184,7.009-13.642,6.146-19.951a14.394,14.394,0,0,0-5.432-9.833q-.4-.309-.838-.595a17.286,17.286,0,0,0-1.538-6.035c-2.62-5.782-9.02-8.637-13.742-9.456a7.444,7.444,0,0,0-2.479-2.464,6.06,6.06,0,0,0-3.241-1.06,4.332,4.332,0,0,0-.92.1c-.259-.176-.521-.349-.783-.52a49.926,49.926,0,0,0,6.047-2.191c9.572,1.953,17.058,3.825,22.566,5.2,3.039.76,5.438,1.36,7.218,1.728.3.064.582.124.832.179a10.533,10.533,0,0,0,2.231.341,3.578,3.578,0,0,0,2.513-.956c1.417-1.343,1.367-3.345,1.315-5.465-.2-8-2.591-24.279-10.246-35.885,6.137-3.365,12.029-6.121,16.432-8.18,2.617-1.224,4.684-2.191,5.947-2.891a4.416,4.416,0,0,0,2.363-2.693,4.545,4.545,0,0,0-.67-3.565c-3.577-6.026-11.371-16.781-24.287-23.135,3.559-7.36,7.745-14.48,10.582-19.307l.049-.083a5.321,5.321,0,0,0,1.009-3.586c-.39-2.209-2.447-3.049-3.221-3.365a128.479,128.479,0,0,0-45.272-8.241,99.115,99.115,0,0,0-33.685,5.559,59.238,59.238,0,0,0-8.481,2.238c-2.763-2.329-7.956-6.68-9.657-7.923a8.4,8.4,0,0,0-3.679-1.548,7.427,7.427,0,0,0-1.1-.084Z" transform="translate(0 0)" fill="#c6cfcc"/>
    <g id="グループ_1625" data-name="グループ 1625" transform="translate(2390.8 917.684)">
      <g id="グループ_1621" data-name="グループ 1621" transform="translate(21.92)">
        <path id="パス_2081" data-name="パス 2081" d="M2442.3,939.725c-1.087,2.4-13.728,7.22-25.34,6.189-1.091-4.142,1.464-14.2,2.864-16.2,2.753,2.375,8.814,6,12.539,6.711C2439.138,937.675,2443.528,937.1,2442.3,939.725Z" transform="translate(-2415.927 -928.902)" fill="#fecc73"/>
        <path id="パス_2082" data-name="パス 2082" d="M2422.15,929.816c-1.134-.758-1.878-1.622-2.543-.376-.617,1.153-3.668,15.785-3.766,17.216-.04.609,1.336,1.169,2.966,1.014,1.579-.153,2.2-.744,2.384-1.422.339-1.253,2.522-12.922,2.65-13.762C2424.057,931.036,2423.334,930.6,2422.15,929.816Z" transform="translate(-2415.84 -928.812)" fill="#fff"/>
      </g>
      <g id="グループ_1622" data-name="グループ 1622" transform="translate(74.384 9.29)">
        <path id="パス_2083" data-name="パス 2083" d="M2474.963,939.358c2.321-1.234,15.279,2.669,23.843,10.579-1.664,3.943-9.836,10.35-12.161,11.076-.731-3.563-3.31-10.139-5.829-12.975C2476.216,942.916,2472.388,940.692,2474.963,939.358Z" transform="translate(-2474.133 -939.134)" fill="#fecc73"/>
        <path id="パス_2084" data-name="パス 2084" d="M2500.19,951.134c4.029-.319,12.093,2.132,14.8,8.105a13.093,13.093,0,0,1-6.517,17.844c-7.923,3.543-16.54,1.2-18.869-4.3-1.45-3.3-1.782-5.9-1.576-10.575C2489.654,961.733,2499.76,952.758,2500.19,951.134Z" transform="translate(-2475.517 -940.331)" fill="#fff"/>
        <path id="パス_2085" data-name="パス 2085" d="M2486,960.226c.436,1.293.5,2.429,1.783,1.85,1.2-.537,12.548-10.258,13.5-11.331.406-.458-.343-1.743-1.728-2.616-1.344-.843-2.2-.756-2.757-.33-1.032.786-9.891,8.691-10.5,9.28C2485.237,958.1,2485.544,958.879,2486,960.226Z" transform="translate(-2475.278 -939.969)" fill="#fff"/>
      </g>
      <path id="パス_2086" data-name="パス 2086" d="M2426.172,963.989c.969-16.577,15.283-27.786,29.577-27.786s28.606,11.21,29.584,27.786c.946,16.188-11.067,24.826-29.583,24.826S2425.226,980.178,2426.172,963.989Z" transform="translate(-2394.948 -929.551)" fill="#0e3192"/>
      <path id="パス_2087" data-name="パス 2087" d="M2477.915,962.356c0,10.3-9.507,15.43-21.232,15.43s-21.219-5.131-21.219-15.43,9.493-17.612,21.219-17.612S2477.915,952.057,2477.915,962.356Z" transform="translate(-2395.883 -930.405)" fill="#fecc73"/>
      <g id="グループ_1623" data-name="グループ 1623" transform="translate(74.745 33.603)">
        <path id="パス_2088" data-name="パス 2088" d="M2478.229,981.411c2.687-2.19,14.731-2.712,18.886,4.277,2.983,4.959-2.849,18.169-5.329,13.36-2-3.809-9.966-8.248-15.19-8.438-1.206-.044-2.068-.655-2.062-2.656S2475.541,983.6,2478.229,981.411Z" transform="translate(-2474.534 -967.529)" fill="#0e3192"/>
        <path id="パス_2089" data-name="パス 2089" d="M2493.338,976.374c-7.2,9.417-7.753,21.175-1.232,26.1,6.5,5,17.61,1.363,24.82-8.069,7.186-9.429,7.738-21.068,1.231-25.99C2511.644,963.373,2500.528,967.052,2493.338,976.374Z" transform="translate(-2475.836 -966.148)" fill="#e4000d"/>
        <path id="パス_2090" data-name="パス 2090" d="M2517.382,994.912a28.244,28.244,0,0,0,5.376-11.711c.581-4.578-.645-8.525-3.763-10.552-5.667-3.785-15.406.256-21.744,8.81-6.345,8.629-6.9,18.721-1.221,22.4a8.592,8.592,0,0,0,3.992,1.344C2505.837,1005.014,2512.5,1001.3,2517.382,994.912Z" transform="translate(-2476.291 -966.656)" fill="gray"/>
        <path id="パス_2091" data-name="パス 2091" d="M2492.087,979.74c-.177,1.857,2.158,4.451,3.135,5.216a36.293,36.293,0,0,0-2.728,6.434c-.9-.408-3.323-3.578-3.268-5.951A28.486,28.486,0,0,1,2492.087,979.74Z" transform="translate(-2476.003 -967.507)" fill="#fff"/>
      </g>
      <g id="グループ_1624" data-name="グループ 1624" transform="translate(0 33.603)">
        <path id="パス_2092" data-name="パス 2092" d="M2437.266,981.411c-2.687-2.19-14.732-2.712-18.887,4.277-2.982,4.959,2.85,18.169,5.33,13.36,2-3.809,9.966-8.248,15.19-8.438,1.205-.044,2.068-.655,2.062-2.656S2439.953,983.6,2437.266,981.411Z" transform="translate(-2394.091 -967.529)" fill="#0e3192"/>
        <path id="パス_2093" data-name="パス 2093" d="M2420.858,976.374c7.191,9.417,7.742,21.175,1.237,26.1-6.525,5-17.634,1.363-24.821-8.069-7.21-9.429-7.76-21.068-1.234-25.99C2402.549,963.373,2413.652,967.052,2420.858,976.374Z" transform="translate(-2391.485 -966.148)" fill="#e4000d"/>
        <path id="パス_2094" data-name="パス 2094" d="M2397.293,994.912a28.253,28.253,0,0,1-5.378-11.711c-.579-4.578.645-8.525,3.765-10.552,5.666-3.785,15.407.256,21.744,8.81,6.345,8.629,6.9,18.721,1.22,22.4a8.587,8.587,0,0,1-3.991,1.344C2408.837,1005.014,2402.174,1001.3,2397.293,994.912Z" transform="translate(-2391.514 -966.656)" fill="gray"/>
        <path id="パス_2095" data-name="パス 2095" d="M2425.342,979.74c.178,1.857-2.156,4.451-3.134,5.216a36.023,36.023,0,0,1,2.725,6.434c.9-.408,3.324-3.578,3.269-5.951A28.5,28.5,0,0,0,2425.342,979.74Z" transform="translate(-2394.557 -967.507)" fill="#fff"/>
      </g>
    </g>
    <g id="グループ_1633" data-name="グループ 1633" transform="translate(2401.095 820.217)">
      <path id="パス_2096" data-name="パス 2096" d="M2542,878.859c-2.71-4.565-10.575-16.586-24.947-22.921-.245-.108-.4-.148-.463-.349s.083-.44.21-.713c3.708-7.931,8.163-15.534,11.494-21.2.333-.564.813-1.338.725-1.835-.11-.621-.771-1-1.583-1.332-8.745-3.582-44.151-14.588-77.228-2.565a57.775,57.775,0,0,0-46.657,48.265c-4.8,31.534,18.349,49.789,49.6,54.541,14.7,2.235,28.577,1.084,39.653-4.044,15.808,3.164,26.323,6.209,31.354,7.251,1.951.406,2.714.678,3.182.238s.511-1.467.462-3.429c-.175-7.152-2.468-24.192-10.544-35.552a2.248,2.248,0,0,1-.537-1.207c.015-.239.247-.453.515-.6,10.5-5.914,20.712-10.15,24.091-12.022.806-.446.975-.724,1.075-1.07C2542.478,880.036,2542.482,879.669,2542,878.859Z" transform="translate(-2402.924 -820.712)" fill="#0e3192"/>
      <g id="グループ_1627" data-name="グループ 1627">
        <g id="グループ_1626" data-name="グループ 1626" clip-path="url(#clip-path)">
          <path id="パス_2097" data-name="パス 2097" d="M2522.011,862.813a.673.673,0,0,0,.736-.659s1.824-20.524,1.881-23.353a5.383,5.383,0,0,0-4.659-5.658,7.072,7.072,0,0,0-3.326.33c-2.868.977-20.365,8.463-20.365,8.463a.715.715,0,0,0-.431.918.735.735,0,0,0,.975.318s17.544-7.5,20.255-8.42a5.693,5.693,0,0,1,2.689-.274,4.012,4.012,0,0,1,3.51,4.3c-.058,2.835-1.863,23.174-1.863,23.174A.785.785,0,0,0,2522.011,862.813Z" transform="translate(-2412.21 -821.772)" fill="#91a4a4"/>
          <path id="パス_2098" data-name="パス 2098" d="M2519.8,834.628a4.012,4.012,0,0,1,3.51,4.3c-.058,2.835-1.32,19.986-1.931,23.935a3.247,3.247,0,0,1-.64-.04c-5.574-.848-22.476-14.081-24.586-19.2,5.574-2.453,18.248-7.8,20.958-8.722a5.694,5.694,0,0,1,2.689-.274" transform="translate(-2412.246 -821.922)" fill="#0e3192"/>
          <path id="パス_2099" data-name="パス 2099" d="M2418.19,846.8a.785.785,0,0,0,.831-.648s4.322-19.956,5.108-22.68a4.012,4.012,0,0,1,4.631-3.056,5.659,5.659,0,0,1,2.486,1.057c2.314,1.69,16.836,14.063,16.836,14.063a.736.736,0,0,0,1.027-.013.718.718,0,0,0-.141-1.005s-14.48-12.35-16.926-14.135a7.057,7.057,0,0,0-3.079-1.3,5.375,5.375,0,0,0-6.128,4.018c-.787,2.714-5.15,22.854-5.15,22.854A.673.673,0,0,0,2418.19,846.8Z" transform="translate(-2404.398 -820.367)" fill="#91a4a4"/>
          <path id="パス_2100" data-name="パス 2100" d="M2428.893,820.571a5.659,5.659,0,0,1,2.486,1.057c2.314,1.69,12.824,10.562,17.419,14.561-3.535,4.256-23.611,11.866-29.181,11.018a3.183,3.183,0,0,1-.626-.152c.591-3.953,4.486-20.7,5.272-23.427a4.012,4.012,0,0,1,4.63-3.057" transform="translate(-2404.531 -820.516)" fill="#0e3192"/>
          <path id="パス_2101" data-name="パス 2101" d="M2516.8,841.112c1.364-.613,2.442.107,2.363,1.663l-1.224,12.667c-.05,1.439-1.081,1.986-2.257,1.019l-9.821-7.786a1.57,1.57,0,0,1,.383-2.876Z" transform="translate(-2413.139 -822.554)" fill="#fecc73"/>
          <path id="パス_2102" data-name="パス 2102" d="M2431.657,828.018a1.561,1.561,0,0,0-2.755.886l-2.6,12.455c-.378,1.392.442,2.219,1.853,1.647l11.691-4.515a1.57,1.57,0,0,0,.488-2.859Z" transform="translate(-2405.253 -821.211)" fill="#fecc73"/>
        </g>
      </g>
      <path id="パス_2104" data-name="パス 2104" d="M2486.084,862.5c-8.574-1.3-16.9,3.068-22.151,10.495-2.885-8.666-9.5-15.309-18.129-16.621-12.848-1.954-25.188,8.657-27.466,23.629-2.925,19.223,6.351,28.772,19.2,30.726,8.624,1.312,31.711,4.824,40.28,6.126,12.845,1.954,24.491-4.413,27.416-23.637C2507.51,878.249,2498.931,864.457,2486.084,862.5Z" transform="translate(-2404.411 -824.079)" fill="#fff"/>
      <path id="パス_2105" data-name="パス 2105" d="M2453.756,939.057c35.133,5.344,54.865-9.695,50.818-17.139-2.3-4.259-6.4-4.2-11.667-2.973a33.905,33.905,0,0,1-7.529,1.842,58.245,58.245,0,0,1-10.478.1c-3.027-2.764-9.062-6.165-17.209-7.406s-15.012.2-18.722,1.942a58.467,58.467,0,0,1-9.977-3.207,34.014,34.014,0,0,1-6.638-4c-4.671-2.736-8.568-4.011-12.028-.63C2404.251,913.488,2418.621,933.713,2453.756,939.057Z" transform="translate(-2403.529 -829.019)" fill="#fecc73"/>
      <path id="パス_2106" data-name="パス 2106" d="M2468.129,915.823c-.34,2.229-3.28,3.692-6.524,3.2-3.326-.5-5.683-2.775-5.343-5,.354-2.344,3.281-3.809,6.608-3.3C2466.112,911.208,2468.485,913.479,2468.129,915.823Z" transform="translate(-2408.254 -829.525)"/>
      <path id="パス_2107" data-name="パス 2107" d="M2469.753,931.588c5.114,13.359,26.637,6.169,21.521-5.243A26.1,26.1,0,0,1,2469.753,931.588Z" transform="translate(-2409.606 -831.098)" fill="maroon"/>
      <g id="グループ_1632" data-name="グループ 1632" transform="translate(29.308 59.64)">
        <g id="グループ_1629" data-name="グループ 1629">
          <g id="グループ_1628" data-name="グループ 1628" clip-path="url(#clip-path-2)">
            <path id="パス_2108" data-name="パス 2108" d="M2440.608,905.325c-3.622-.551-5.745-4.96-4.955-10.152.807-5.309,4.144-8.886,7.767-8.334s5.759,4.96,4.951,10.269C2447.582,902.3,2444.23,905.876,2440.608,905.325Z" transform="translate(-2435.489 -886.783)" fill="#005723"/>
            <path id="パス_2109" data-name="パス 2109" d="M2449.188,893.2a8.907,8.907,0,1,1-7.529-9.708A8.717,8.717,0,0,1,2449.188,893.2Z" transform="translate(-2435.089 -886.443)"/>
          </g>
        </g>
        <g id="グループ_1631" data-name="グループ 1631" transform="translate(40.275 6.126)">
          <g id="グループ_1630" data-name="グループ 1630" clip-path="url(#clip-path-3)">
            <path id="パス_2111" data-name="パス 2111" d="M2485.359,912.132c-3.624-.554-5.747-4.961-4.957-10.152.809-5.308,4.146-8.886,7.769-8.334s5.758,4.96,4.95,10.269C2492.332,909.106,2488.979,912.682,2485.359,912.132Z" transform="translate(-2480.238 -893.59)" fill="#005723"/>
            <path id="パス_2112" data-name="パス 2112" d="M2493.939,900.008a8.907,8.907,0,1,1-7.526-9.708A8.715,8.715,0,0,1,2493.939,900.008Z" transform="translate(-2479.839 -893.25)"/>
          </g>
        </g>
      </g>
    </g>
    <path id="パス_2114" data-name="パス 2114" d="M2416.923,928.386c-.577-7.583-2.247-12.215-5.948-11.95-2.829.2-4.5,3.782-3.88,6.4-1.5-1.986-12.946-6.384-17.477,3.132-7.432,15.6,7.3,29.514,24.441,18.62C2416.839,940.745,2417.241,932.453,2416.923,928.386Z" transform="translate(-0.301 -9.89)" fill="#fff"/>
  </g>
</svg>
