<svg xmlns="http://www.w3.org/2000/svg" xmlns:xlink="http://www.w3.org/1999/xlink" width="141.087" height="169.84" viewBox="0 0 141.087 169.84">
  <defs>
    <clipPath id="clip-path">
      <path id="パス_3174" data-name="パス 3174" d="M2460.121,1682.274c1.894-11.868,1.779-28.787,0-47.711-2.19-23.277-10.936-44.25-16.586-63.743,25.875,8.877,39.821,35.638,42.173,59.243C2488.115,1654.223,2474.226,1679.29,2460.121,1682.274Zm-73.419-52.211c-2.406,24.16,11.481,49.227,25.588,52.211-1.894-11.868-1.779-28.787,0-47.711,2.19-23.277,10.936-44.25,16.585-63.743C2403,1579.7,2389.053,1606.458,2386.7,1630.063Z" transform="translate(-2386.428 -1570.82)" fill="none"/>
    </clipPath>
    <clipPath id="clip-path-2">
      <path id="パス_3204" data-name="パス 3204" d="M2418.38,1639.569c-3.664,0-6.426-4.04-6.426-9.291,0-5.37,2.762-9.408,6.426-9.408s6.438,4.037,6.438,9.408C2424.818,1635.529,2422.043,1639.569,2418.38,1639.569Z" transform="translate(-2411.954 -1620.871)" fill="none"/>
    </clipPath>
    <clipPath id="clip-path-3">
      <path id="パス_3207" data-name="パス 3207" d="M2463.646,1639.569c-3.664,0-6.427-4.04-6.427-9.291,0-5.37,2.763-9.408,6.427-9.408s6.438,4.037,6.438,9.408C2470.084,1635.529,2467.308,1639.569,2463.646,1639.569Z" transform="translate(-2457.219 -1620.871)" fill="none"/>
    </clipPath>
  </defs>
  <g id="グループ_4336" data-name="グループ 4336" transform="translate(-2363.776 -1554.176)">
    <path id="パス_3169" data-name="パス 3169" d="M2492.92,1704.552c3.47-7.87,2.75-15.949-2.4-19.837a10.409,10.409,0,0,0-1.873-1.154,14.207,14.207,0,0,0-1.318-6.518,11.315,11.315,0,0,0-2.6-3.546c7.669-6.578,17.875-21.626,17.088-53.991-.511-21-10.268-40.772-25.011-51.564l.013.085c-8.467-6.827-21.749-10.851-42.544-10.851-20.709,0-33.97,3.99-42.44,10.767h0c-14.743,10.793-24.5,30.566-25.011,51.564-.787,32.3,9.38,47.355,17.044,53.952a11.346,11.346,0,0,0-2.635,3.585,14.208,14.208,0,0,0-1.317,6.513,10.358,10.358,0,0,0-1.883,1.158c-5.154,3.887-5.875,11.965-2.406,19.836.06.135.113.27.175.405.074.161.148.321.225.481h0c.082.169.175.338.26.507.112.221.223.444.342.665.05.095.1.189.152.283.088.159.181.317.273.476.13.228.26.454.4.681.066.106.136.212.2.317s.145.229.219.344c.059.092.115.184.176.276.382.579.78,1.153,1.211,1.718s.88,1.1,1.336,1.62l.146.166a30.184,30.184,0,0,0,2.756,2.731c.135.118.271.231.408.346q.529.443,1.069.852c.128.1.253.2.382.292.423.309.85.6,1.281.874.214.139.43.269.646.4.259.157.52.305.781.45q.494.274.99.519c.292.145.585.287.878.417.272.12.543.229.813.336.194.076.388.148.582.219q.828.3,1.649.515c.1.027.21.061.313.086.295.072.587.13.879.185.165.032.329.06.493.087a12.021,12.021,0,0,0,9.427-2.028,11.89,11.89,0,0,0,4.4-8.277l.087-.03a3.562,3.562,0,0,0,2.1-2.7,20.007,20.007,0,0,1,7.618-2.24,3.15,3.15,0,0,0,.431-.044,47.46,47.46,0,0,0,31.127,0,3.119,3.119,0,0,0,.428.044,20.014,20.014,0,0,1,7.629,2.245,3.557,3.557,0,0,0,2.094,2.69l.078.026a11.892,11.892,0,0,0,4.394,8.281,12.023,12.023,0,0,0,9.427,2.028c.165-.027.329-.055.5-.087.292-.056.583-.113.877-.185.106-.026.212-.06.318-.088q.821-.216,1.644-.513c.194-.07.388-.142.582-.219.272-.107.542-.216.813-.336.294-.13.588-.273.881-.417.331-.164.659-.338.989-.519.261-.145.521-.293.78-.45.216-.13.432-.261.646-.4.43-.277.858-.565,1.281-.874.128-.094.254-.2.381-.292q.542-.409,1.071-.852c.136-.114.272-.228.407-.346a30.03,30.03,0,0,0,2.756-2.731l.146-.166c.456-.521.905-1.057,1.336-1.62s.829-1.139,1.21-1.718c.061-.092.116-.185.177-.276.1-.161.208-.322.309-.484.03-.049.063-.1.093-.146.144-.237.281-.474.417-.712.1-.168.194-.336.287-.5l.117-.217c.139-.257.268-.516.4-.775.073-.145.153-.289.223-.435h0c.077-.16.151-.32.225-.481C2492.808,1704.822,2492.862,1704.687,2492.92,1704.552Zm-33.393-43.81c-.131-.056-.263-.114-.393-.168-1.417-.589-2.773-1.074-4.017-1.453h0c1.244.379,2.6.864,4.017,1.453.13.054.262.113.393.168Zm-46.051-1.633c-1.255.381-2.624.869-4.055,1.465-.155.065-.312.134-.469.2h0c.156-.067.314-.136.469-.2,1.432-.6,2.8-1.084,4.055-1.465Zm46.052.193q-1.034-.428-2.029-.787c.688-.187,1.356-.386,2.017-.588C2459.521,1658.386,2459.527,1658.848,2459.529,1659.3Zm-48.434-.8q-1.05.377-2.146.832c0-.48.008-.968.012-1.453C2409.659,1658.1,2410.368,1658.3,2411.1,1658.5Zm-5.153,36.834a3.7,3.7,0,0,0-1.614-.525c-.1-.157-.194-.313-.3-.469-.065-.1-.132-.194-.2-.292a9.066,9.066,0,0,0,1.844-1.859,20.082,20.082,0,0,0,1.171,2.969C2406.546,1695.211,2406.243,1695.27,2405.942,1695.336Zm56.933-3.15a9.039,9.039,0,0,0,1.841,1.859c-.072.106-.145.212-.215.319-.1.149-.188.3-.284.449a3.708,3.708,0,0,0-1.606.526c-.3-.067-.606-.126-.909-.177A20.046,20.046,0,0,0,2462.875,1692.186Zm11.115-23.245.148-.35-.193-.177a1.467,1.467,0,0,0-.047-.151,60.423,60.423,0,0,0,8.08-18.364c-.562,7.819-1.363,14.7-2.319,20.41A18.389,18.389,0,0,0,2473.99,1668.941Zm-87.268-18.187a60.133,60.133,0,0,0,7.912,17.587c-.005.023-.018.05-.022.073l-.192.177.148.35a18.384,18.384,0,0,0-5.593,1.334C2388.056,1664.781,2387.28,1658.208,2386.722,1650.755Z" transform="translate(0)" fill="none" stroke="#fcc5bd" stroke-linejoin="round" stroke-width="6"/>
    <g id="knuckles_fun" transform="translate(2366.779 1557.176)">
      <path id="パス_3170" data-name="パス 3170" d="M2449.881,1570.82c25.875,8.877,39.821,35.638,42.173,59.243,2.407,24.16-11.482,49.227-25.587,52.211,1.894-11.868,1.779-28.787,0-47.711C2464.277,1611.286,2455.531,1590.313,2449.881,1570.82Z" transform="translate(-2375.091 -1558.541)" fill="#fc0019"/>
      <path id="パス_3171" data-name="パス 3171" d="M2428.874,1570.82c-25.875,8.877-39.821,35.638-42.173,59.243-2.406,24.16,11.481,49.227,25.588,52.211-1.894-11.868-1.779-28.787,0-47.711C2414.479,1611.286,2423.225,1590.313,2428.874,1570.82Z" transform="translate(-2368.744 -1558.541)" fill="#fc0019"/>
      <g id="グループ_2056" data-name="グループ 2056" transform="translate(6.697 12.279)">
        <g id="グループ_2053" data-name="グループ 2053" transform="translate(10.987)">
          <g id="グループ_2052" data-name="グループ 2052" clip-path="url(#clip-path)">
            <path id="パス_3172" data-name="パス 3172" d="M2425.1,1670.145a2.588,2.588,0,0,0-1.528-1.906c-3.215-1.688-16.953,2.994-25.384,10.783l-.7.643.368.873c1.8,4.274,10.254,10.982,13,11.839l1.425.445.3-1.462c.668-3.255,3.149-9.684,5.512-12.344,1.279-1.424,2.483-2.606,3.546-3.649C2423.947,1673.1,2425.338,1671.74,2425.1,1670.145Zm-8.007,7.969c-2.518,2.835-5.1,9.411-5.829,12.974-2.325-.726-10.5-7.133-12.16-11.076,8.563-7.91,21.52-11.812,23.842-10.578C2425.518,1670.769,2421.69,1672.993,2417.092,1678.114Z" transform="translate(-2387.535 -1580.529)" fill="#fa6a6a"/>
            <path id="パス_3173" data-name="パス 3173" d="M2482.3,1679.021c-8.432-7.789-22.174-12.476-25.384-10.783a2.585,2.585,0,0,0-1.527,1.906c-.24,1.595,1.151,2.961,3.456,5.224,1.063,1.042,2.268,2.224,3.542,3.643,2.365,2.663,4.847,9.093,5.516,12.349l.3,1.462,1.425-.445c2.748-.858,11.2-7.565,13-11.839l.369-.873Zm-13.075,12.067c-.733-3.563-3.311-10.139-5.83-12.974-4.6-5.122-8.426-7.346-5.853-8.68,2.321-1.234,15.279,2.668,23.841,10.578C2479.721,1683.955,2471.55,1690.362,2469.226,1691.088Z" transform="translate(-2393.323 -1580.529)" fill="#fa6a6a"/>
          </g>
        </g>
        <path id="パス_3175" data-name="パス 3175" d="M2423.124,1669.581c-2.322-1.235-15.279,2.668-23.842,10.578,1.664,3.943,9.834,10.35,12.16,11.076.732-3.563,3.311-10.139,5.829-12.974C2421.87,1673.139,2425.7,1670.915,2423.124,1669.581Z" transform="translate(-2376.727 -1580.675)" fill="#fc0019"/>
        <path id="パス_3176" data-name="パス 3176" d="M2457.693,1669.581c2.321-1.235,15.279,2.668,23.841,10.578-1.663,3.943-9.834,10.35-12.158,11.076-.733-3.563-3.311-10.139-5.83-12.974C2458.947,1673.139,2455.12,1670.915,2457.693,1669.581Z" transform="translate(-2382.486 -1580.675)" fill="#fc0019"/>
        <path id="パス_3177" data-name="パス 3177" d="M2468.582,1694.022a.684.684,0,0,0,.641-.732c-1.418-17.54-17.012-28.365-30.881-28.365s-29.466,10.825-30.875,28.366a.683.683,0,0,0,.641.731h0a.67.67,0,0,0,.7-.623c1.306-16.212,15.427-27.124,29.529-27.124s28.222,10.912,29.535,27.125a.671.671,0,0,0,.706.622Z" transform="translate(-2377.545 -1580.232)" fill="#fa6a6a"/>
        <path id="パス_3178" data-name="パス 3178" d="M2397.488,1681.356c-4.029-.318-12.092,2.133-14.8,8.105a13.093,13.093,0,0,0,6.516,17.843c7.923,3.544,16.539,1.2,18.868-4.3,1.45-3.3,1.783-5.9,1.576-10.575C2408.022,1691.956,2397.917,1682.98,2397.488,1681.356Z" transform="translate(-2374.933 -1581.873)" fill="#fff"/>
        <path id="パス_3179" data-name="パス 3179" d="M2413.072,1690.447c-.435,1.294-.5,2.43-1.782,1.851-1.194-.538-12.547-10.258-13.5-11.331-.405-.459.344-1.743,1.729-2.615,1.343-.844,2.2-.756,2.756-.33,1.033.786,9.89,8.69,10.5,9.279C2413.834,1688.317,2413.527,1689.1,2413.072,1690.447Z" transform="translate(-2376.567 -1581.51)" fill="#fff"/>
        <path id="パス_3180" data-name="パス 3180" d="M2482.918,1681.356c4.03-.318,12.093,2.133,14.8,8.105a13.093,13.093,0,0,1-6.516,17.843c-7.922,3.544-16.539,1.2-18.867-4.3-1.452-3.3-1.783-5.9-1.576-10.575C2472.384,1691.956,2482.49,1682.98,2482.918,1681.356Z" transform="translate(-2383.87 -1581.873)" fill="#fff"/>
        <path id="パス_3181" data-name="パス 3181" d="M2468.728,1690.447c.437,1.294.5,2.43,1.784,1.851,1.194-.538,12.546-10.258,13.5-11.331.405-.459-.344-1.743-1.729-2.615-1.343-.844-2.2-.756-2.757-.33-1.032.786-9.89,8.69-10.5,9.279C2467.968,1688.317,2468.275,1689.1,2468.728,1690.447Z" transform="translate(-2383.631 -1581.51)" fill="#fff"/>
        <path id="パス_3182" data-name="パス 3182" d="M2408.905,1694.211c.969-16.576,15.283-27.785,29.575-27.785s28.6,11.209,29.582,27.785c.944,16.187-11.066,24.825-29.581,24.825S2407.959,1710.4,2408.905,1694.211Z" transform="translate(-2377.684 -1580.382)" fill="#fc0019"/>
        <path id="パス_3183" data-name="パス 3183" d="M2457.177,1676.123s-.218,12.57-17.328,12.57-17.32-12.57-17.32-12.57a28.084,28.084,0,0,0,34.648,0Z" transform="translate(-2379.052 -1581.352)" fill="#fff"/>
        <g id="グループ_2054" data-name="グループ 2054" transform="translate(0 112.993)">
          <path id="パス_3184" data-name="パス 3184" d="M2420,1711.633c-2.688-2.191-14.731-2.713-18.886,4.277-2.981,4.959,2.85,18.168,5.33,13.359,2-3.81,9.965-8.247,15.189-8.437,1.206-.044,2.068-.656,2.062-2.656S2422.686,1713.824,2420,1711.633Z" transform="translate(-2376.827 -1697.751)" fill="#fc0019"/>
          <path id="パス_3185" data-name="パス 3185" d="M2411.64,1725.76c2.327-.778,3.056-4.887,1.621-9.173s-4.481-7.137-6.81-6.36l-6.584,2.2c-2.327.778-3.056,4.888-1.622,9.175s4.483,7.137,6.81,6.356C2406.388,1727.512,2410.307,1726.206,2411.64,1725.76Z" transform="translate(-2376.55 -1697.743)" fill="#33a02c"/>
          <path id="パス_3186" data-name="パス 3186" d="M2403.592,1706.6c7.19,9.416,7.741,21.175,1.237,26.1-6.525,5-17.632,1.362-24.82-8.068-7.208-9.429-7.759-21.068-1.234-25.989C2385.283,1693.6,2396.386,1697.275,2403.592,1706.6Z" transform="translate(-2374.22 -1696.37)" fill="#e4000d"/>
          <path id="パス_3187" data-name="パス 3187" d="M2409.42,1720.113a27.822,27.822,0,0,0-5.545-12.723,31.08,31.08,0,0,0-2.726-3.079c.544,2.156-2.123,5.924-4.636,7.89-3.478,2.723-11.558,7.863-19.464,7.952a30.4,30.4,0,0,0,3.243,5.267,34.958,34.958,0,0,0,8.112,7.337c4.406.633,9.315-.264,12.271-2.058C2407.446,1726.586,2408.935,1723.386,2409.42,1720.113Z" transform="translate(-2374.503 -1697.165)" fill="#ffcc01"/>
          <path id="パス_3188" data-name="パス 3188" d="M2380.028,1725.134a28.255,28.255,0,0,1-5.378-11.711c-.579-4.577.645-8.526,3.765-10.552,5.665-3.785,15.4.257,21.742,8.81,6.345,8.629,6.9,18.721,1.219,22.4a8.578,8.578,0,0,1-3.991,1.343C2391.571,1735.235,2384.908,1731.517,2380.028,1725.134Z" transform="translate(-2374.249 -1696.878)" fill="gray"/>
        </g>
        <g id="グループ_2055" data-name="グループ 2055" transform="translate(74.728 112.993)">
          <path id="パス_3189" data-name="パス 3189" d="M2460.947,1711.633c2.688-2.191,14.731-2.713,18.886,4.277,2.981,4.959-2.85,18.168-5.33,13.359-2-3.81-9.964-8.247-15.189-8.437-1.206-.044-2.068-.656-2.062-2.656S2458.26,1713.824,2460.947,1711.633Z" transform="translate(-2457.253 -1697.751)" fill="#fc0019"/>
          <path id="パス_3190" data-name="パス 3190" d="M2470.086,1725.76c-2.327-.778-3.055-4.887-1.622-9.173s4.481-7.137,6.81-6.36l6.584,2.2c2.328.778,3.056,4.888,1.623,9.175s-4.483,7.137-6.81,6.356C2475.338,1727.512,2471.419,1726.206,2470.086,1725.76Z" transform="translate(-2458.301 -1697.743)" fill="#33a02c"/>
          <path id="パス_3191" data-name="パス 3191" d="M2476.049,1706.6c-7.19,9.416-7.741,21.175-1.237,26.1,6.525,5,17.633,1.362,24.82-8.068,7.208-9.429,7.759-21.068,1.234-25.989C2494.358,1693.6,2483.255,1697.275,2476.049,1706.6Z" transform="translate(-2458.555 -1696.37)" fill="#e4000d"/>
          <path id="パス_3192" data-name="パス 3192" d="M2470.528,1720.113a27.818,27.818,0,0,1,5.546-12.723,31.041,31.041,0,0,1,2.725-3.079c-.543,2.156,2.123,5.924,4.636,7.89,3.478,2.723,11.559,7.863,19.464,7.952a30.433,30.433,0,0,1-3.243,5.267,34.939,34.939,0,0,1-8.113,7.337c-4.406.633-9.315-.264-12.27-2.058C2472.5,1726.586,2471.013,1723.386,2470.528,1720.113Z" transform="translate(-2458.581 -1697.165)" fill="#ffcc01"/>
          <path id="パス_3193" data-name="パス 3193" d="M2500.1,1725.134a28.258,28.258,0,0,0,5.377-11.711c.579-4.577-.644-8.526-3.765-10.552-5.665-3.785-15.4.257-21.742,8.81-6.345,8.629-6.9,18.721-1.219,22.4a8.578,8.578,0,0,0,3.99,1.343C2488.554,1735.235,2495.217,1731.517,2500.1,1725.134Z" transform="translate(-2459.01 -1696.878)" fill="gray"/>
        </g>
      </g>
      <g id="グループ_2062" data-name="グループ 2062">
        <path id="パス_3194" data-name="パス 3194" d="M2435.42,1661.416c31.582,0,57.185-14.551,57.185-46.462s-25.6-57.778-57.185-57.778-57.184,25.867-57.184,57.778S2403.839,1661.416,2435.42,1661.416Z" transform="translate(-2367.925 -1557.176)" fill="#fc0019"/>
        <path id="パス_3195" data-name="パス 3195" d="M2391.834,1569.139c-14.743,10.793-24.5,30.566-25.011,51.564-1.064,43.679,17.9,55.834,23.622,58.167-2.455-10.266-4.326-27.126-4.626-47.826S2389.134,1586.842,2391.834,1569.139Z" transform="translate(-2366.779 -1558.373)" fill="#fc0019"/>
        <path id="パス_3196" data-name="パス 3196" d="M2489.033,1569.139c14.743,10.793,24.5,30.566,25.011,51.564,1.063,43.679-17.9,55.834-23.623,58.167,2.456-10.266,4.327-27.126,4.627-47.826S2491.733,1586.842,2489.033,1569.139Z" transform="translate(-2379.007 -1558.373)" fill="#fc0019"/>
        <path id="パス_3197" data-name="パス 3197" d="M2435.42,1661.416c31.582,0,57.185-14.551,57.185-46.462s-4.444-57.778-57.185-57.778-57.184,25.867-57.184,57.778S2403.839,1661.416,2435.42,1661.416Z" transform="translate(-2367.925 -1557.176)" fill="#fc0019"/>
        <path id="パス_3198" data-name="パス 3198" d="M2427.845,1644.662c-.547-6.071,6.115-39.063-21.139-43.16-11.754-1.767-16.847,1.12-16.847,16.263,0,19.445,11.505,27.49,24.5,27.49A82.523,82.523,0,0,0,2427.845,1644.662Z" transform="translate(-2369.087 -1561.563)" fill="#fff"/>
        <path id="パス_3199" data-name="パス 3199" d="M2451.367,1644.662c.548-6.071-6.115-39.063,21.14-43.16,11.754-1.767,16.846,1.12,16.846,16.263,0,19.445-11.5,27.49-24.5,27.49A82.537,82.537,0,0,1,2451.367,1644.662Z" transform="translate(-2375.205 -1561.563)" fill="#fff"/>
        <path id="パス_3200" data-name="パス 3200" d="M2436.435,1669.957c-35.534,0-52.733-17.834-47.615-24.586,2.912-3.864,6.956-3.187,11.982-1.185a55.79,55.79,0,0,0,7.322,2.46c2.881.734,12.917.1,16.488.364a20.153,20.153,0,0,1,23.645,0c3.57-.26,14.418.808,16.645.132a34.029,34.029,0,0,0,7.164-2.956c5.027-2,9.071-2.678,11.983,1.185C2489.169,1652.123,2471.97,1669.957,2436.435,1669.957Z" transform="translate(-2368.895 -1565.717)" fill="#fecc73"/>
        <path id="パス_3201" data-name="パス 3201" d="M2447.071,1653.838c0,2.253-2.687,4.141-5.969,4.141-3.364,0-6.035-1.887-6.035-4.141,0-2.371,2.671-4.26,6.035-4.26C2444.384,1649.578,2447.071,1651.466,2447.071,1653.838Z" transform="translate(-2373.609 -1566.417)"/>
        <g id="グループ_2061" data-name="グループ 2061" transform="translate(40.657 57.324)">
          <g id="グループ_2058" data-name="グループ 2058">
            <g id="グループ_2057" data-name="グループ 2057" clip-path="url(#clip-path-2)">
              <path id="パス_3202" data-name="パス 3202" d="M2418.38,1639.569c-3.664,0-6.426-4.04-6.426-9.291,0-5.37,2.762-9.408,6.426-9.408s6.438,4.037,6.438,9.408C2424.818,1635.529,2422.043,1639.569,2418.38,1639.569Z" transform="translate(-2411.954 -1620.871)" fill="#49268e"/>
              <path id="パス_3203" data-name="パス 3203" d="M2425.009,1626.262a8.906,8.906,0,1,1-8.9-8.465A8.717,8.717,0,0,1,2425.009,1626.262Z" transform="translate(-2411.48 -1620.563)"/>
            </g>
          </g>
          <g id="グループ_2060" data-name="グループ 2060" transform="translate(40.738)">
            <g id="グループ_2059" data-name="グループ 2059" clip-path="url(#clip-path-3)">
              <path id="パス_3205" data-name="パス 3205" d="M2463.646,1639.569c-3.664,0-6.427-4.04-6.427-9.291,0-5.37,2.763-9.408,6.427-9.408s6.438,4.037,6.438,9.408C2470.084,1635.529,2467.308,1639.569,2463.646,1639.569Z" transform="translate(-2457.219 -1620.871)" fill="#49268e"/>
              <path id="パス_3206" data-name="パス 3206" d="M2470.275,1626.26a8.906,8.906,0,1,1-8.9-8.465A8.714,8.714,0,0,1,2470.275,1626.26Z" transform="translate(-2456.745 -1620.563)"/>
            </g>
          </g>
        </g>
        <path id="パス_3208" data-name="パス 3208" d="M2478.841,1653.726a5.7,5.7,0,0,0-5.889-.24,1.148,1.148,0,0,0-.437,1.575c.233.392.784.487,1.477.309.056-.013.283-.021.41-.039a5.71,5.71,0,0,1-2.561,3.511c-3.468,2.482-8.507,3.252-11.35,2.237-.609-.216-1.182-.281-1.6.283a1.17,1.17,0,0,0,.6,1.532,9.391,9.391,0,0,0,4.528.928,16.474,16.474,0,0,0,9.33-3.059c2.156-1.616,3.389-3.551,3.438-5.443.789.149,1.1.515,1.509.578a1.108,1.108,0,0,0,.981-.4A1.283,1.283,0,0,0,2478.841,1653.726Z" transform="translate(-2375.981 -1566.738)" fill="#654838"/>
      </g>
    </g>
  </g>
</svg>
