<svg xmlns="http://www.w3.org/2000/svg" xmlns:xlink="http://www.w3.org/1999/xlink" width="191.256" height="169.831" viewBox="0 0 191.256 169.831">
  <defs>
    <clipPath id="clip-path">
      <path id="パス_4325" data-name="パス 4325" d="M2372.519,2156.364c-2.39-2.428-8.065-8.086-9.449-9.321,8.043-5.881,17.967-8.665,19.948-7.61a2.111,2.111,0,0,1,.22.141A44.487,44.487,0,0,0,2372.519,2156.364Zm84.234-16.931a2.332,2.332,0,0,0-.227.145,44.484,44.484,0,0,1,10.718,16.8c2.384-2.422,8.072-8.093,9.458-9.33C2468.659,2141.162,2458.735,2138.378,2456.753,2139.433Z" transform="translate(-2363.07 -2139.213)" fill="none"/>
    </clipPath>
    <clipPath id="clip-path-2">
      <path id="パス_4327" data-name="パス 4327" d="M2366.771,2167.13a18.564,18.564,0,0,1-1.585,8.516c-2.271,5.364-10.674,7.649-18.4,4.192a12.769,12.769,0,0,1-6.354-17.4c2.111-4.656,7.555-7.113,11.663-7.754,1.772,2,12.9,12.019,14.1,12.391A1.334,1.334,0,0,0,2366.771,2167.13Zm124.7-4.692c-2.11-4.656-7.553-7.113-11.663-7.754-1.773,2-12.9,12.019-14.1,12.391a1.336,1.336,0,0,1-.579.055,18.558,18.558,0,0,0,1.585,8.516c2.27,5.364,10.673,7.649,18.4,4.192A12.767,12.767,0,0,0,2491.474,2162.438Z" transform="translate(-2339.119 -2154.684)" fill="none"/>
    </clipPath>
    <clipPath id="clip-path-3">
      <path id="パス_4336" data-name="パス 4336" d="M2421.266,2121.647c24,0,48.038,17.449,49.667,43.238.847,13.435-4.494,23.526-14.379,30.025-2.292,1.505-5.4-22.348-22.869-24.421a103.045,103.045,0,0,0-24.84,0c-17.464,2.072-20.577,25.926-22.87,24.421-9.884-6.5-15.226-16.59-14.377-30.025,1.628-25.789,25.663-43.238,49.667-43.238Z" transform="translate(-2371.511 -2121.647)" fill="none"/>
    </clipPath>
    <clipPath id="clip-path-4">
      <rect id="長方形_2683" data-name="長方形 2683" width="5.55" height="25.496" fill="none"/>
    </clipPath>
    <clipPath id="clip-path-5">
      <path id="パス_4348" data-name="パス 4348" d="M2421.751,2114.913c30.952,0,40.135-13.645,46.417-5.292,4.989,6.585-11.816,23.977-46.417,23.977s-51.4-17.391-46.42-23.977C2381.616,2101.268,2390.806,2114.913,2421.751,2114.913Z" transform="translate(-2374.473 -2106.914)" fill="none"/>
    </clipPath>
    <clipPath id="clip-path-6">
      <path id="パス_4350" data-name="パス 4350" d="M2419.568,2040.322c-18.924,0-33.6,6.642-43.623,18.011a59.237,59.237,0,0,0-14.775,39.21h5.267a53.972,53.972,0,0,1,13.459-35.727c8.979-10.186,22.326-15.35,39.673-15.35s30.694,5.164,39.673,15.35a53.977,53.977,0,0,1,13.458,35.727h5.266a59.241,59.241,0,0,0-14.774-39.21C2453.168,2046.964,2438.492,2040.322,2419.568,2040.322Z" transform="translate(-2361.17 -2040.322)" fill="none"/>
    </clipPath>
    <clipPath id="clip-path-7">
      <path id="パス_4354" data-name="パス 4354" d="M2405.956,2039.294l-8.341.1-13.276,6.819-4.942,6.72,4.131,8.042,8.341-.1,13.277-6.816,4.94-6.722Z" transform="translate(-2379.397 -2039.294)" fill="none"/>
    </clipPath>
    <clipPath id="clip-path-8">
      <path id="パス_4359" data-name="パス 4359" d="M2419.582,2040.322c18.924,0,33.6,6.642,43.625,18.011a59.244,59.244,0,0,1,14.773,39.21h-5.266a53.975,53.975,0,0,0-13.458-35.727c-8.979-10.186-22.328-15.35-39.674-15.35s-30.693,5.164-39.673,15.35a53.977,53.977,0,0,0-13.458,35.727h-5.267a59.241,59.241,0,0,1,14.775-39.21C2385.981,2046.964,2400.659,2040.322,2419.582,2040.322Z" transform="translate(-2361.184 -2040.322)" fill="none"/>
    </clipPath>
    <clipPath id="clip-path-9">
      <path id="パス_4363" data-name="パス 4363" d="M2450.107,2039.294l8.341.1,13.277,6.819,4.941,6.72-4.13,8.042-8.341-.1-13.277-6.816-4.94-6.722Z" transform="translate(-2445.978 -2039.294)" fill="none"/>
    </clipPath>
    <clipPath id="clip-path-10">
      <path id="パス_4369" data-name="パス 4369" d="M2411.116,2102.945c-6.1,0-10.694-4.836-10.694-11.125,0-6.429,4.6-11.265,10.694-11.265s10.716,4.835,10.716,11.265C2421.832,2098.109,2417.212,2102.945,2411.116,2102.945Z" transform="translate(-2400.422 -2080.555)" fill="none"/>
    </clipPath>
    <clipPath id="clip-path-11">
      <path id="パス_4371" data-name="パス 4371" d="M2446.748,2102.945c-6.1,0-10.7-4.836-10.7-11.125,0-6.429,4.6-11.265,10.7-11.265s10.714,4.835,10.714,11.265C2457.462,2098.109,2452.841,2102.945,2446.748,2102.945Z" transform="translate(-2436.05 -2080.555)" fill="none"/>
    </clipPath>
  </defs>
  <g id="グループ_4338" data-name="グループ 4338" transform="translate(-2317.224 -2032.459)">
    <path id="パス_4313" data-name="パス 4313" d="M2489.39,2090.353l16.09-8.15-15.8-3.8,9.362-12.873-23.915,7.26,4.314-16.914-14.427,14.359a59.035,59.035,0,0,0-8.534-12.7c-.349-.395-.716-.77-1.075-1.153-.319-.339-.63-.686-.958-1.017l1.571-3.059-2.664-3.622-.871-1.185c.485-.943.97-1.889,1.219-2.375.836-1.625-2.305-4.9-7.015-7.321s-9.2-3.063-10.04-1.438c-.248.486-.734,1.432-1.218,2.375l-1.471-.018-4.5-.054-1.281,2.5c-.442-.1-.883-.2-1.332-.289a70,70,0,0,0-11.709-1.292c-.748-.031-1.5-.052-2.255-.053h-.04l-.092,0c-.741,0-1.478.023-2.212.053a69.94,69.94,0,0,0-11.688,1.291c-.448.09-.889.191-1.332.289l-1.281-2.5-4.5.054-1.471.018c-.484-.943-.969-1.889-1.218-2.375-.835-1.625-5.33-.983-10.04,1.438s-7.851,5.7-7.016,7.321l1.219,2.375-.871,1.184-2.665,3.623,1.573,3.06c-.328.33-.64.677-.958,1.017-.36.384-.727.759-1.074,1.153a58.986,58.986,0,0,0-8.535,12.7l-14.427-14.359,4.314,16.914-23.915-7.26,9.361,12.873-15.8,3.8,16.091,8.15-10.532,8.821,20.186-1.226-3.719,10.134,15.28-6.421c1.439,9.264,6.378,16.163,13.734,21.046-.078.019-.161.042-.24.063l-.207.054c-.358.1-.726.2-1.107.316l-.182.057c-.4.125-.817.259-1.243.408h0c-.426.149-.865.311-1.309.482-.062.023-.125.047-.189.072q-.642.25-1.306.532l-.231.1q-.668.287-1.351.6l-.185.088c-.955.451-1.925.946-2.9,1.485l-.183.1q-.7.39-1.393.813l-.227.139q-.695.426-1.382.88l-.176.119c-.477.32-.952.648-1.418.99-.094-.084-.173-.152-.225-.193-.54-.423-2.359.039-4.2,1.6-1.9,1.609-3.165,2.937-2.818,3.449a3.024,3.024,0,0,0,.2.246l-.059.011c-.461.073-.939.171-1.427.291l-.122.029c-.2.05-.4.108-.6.165-.114.032-.228.065-.343.1q-.275.086-.554.18c-.136.046-.273.1-.409.146-.174.063-.347.127-.521.2s-.349.147-.524.224q-.324.14-.646.295c-.216.1-.43.209-.643.322-.129.068-.255.142-.383.215-.185.1-.37.212-.551.323q-.187.115-.371.237-.283.185-.559.385c-.105.076-.213.15-.317.229-.261.2-.516.405-.763.622-.026.023-.053.044-.079.067-.259.23-.506.473-.745.724-.079.082-.151.168-.227.251-.166.185-.327.373-.481.568-.079.1-.155.2-.23.3-.148.2-.287.407-.422.619-.061.1-.126.19-.183.289a10.011,10.011,0,0,0-.508.964,12.768,12.768,0,0,0,6.354,17.4c7.528,3.368,15.683,1.277,18.2-3.8.066-.133.145-.259.2-.4.165-.374.311-.736.447-1.1.049-.13.09-.258.136-.388.079-.227.158-.453.227-.678.049-.159.091-.318.135-.477.019-.072.043-.144.062-.217,0,.254.014.5.018.751.006.5.01,1.005.034,1.5.016.314.047.619.069.929l0,.03c.033.433.063.867.11,1.292.037.337.088.666.134,1,.055.4.109.792.177,1.18.058.339.129.67.2,1,.075.368.152.735.238,1.1.081.338.173.669.264,1,.009.033.017.067.027.1-4.9-2.036-9.839-1.945-13.383.8-3.837,2.9-5.147,8.174-4.05,13.924v0l0,.014c.085.44.181.882.294,1.327l.011.042a25.981,25.981,0,0,0,1.4,4.053c.056.124.1.251.161.375.125.274.265.546.4.82.157.313.315.627.486.939.109.2.221.4.334.6.253.438.517.873.8,1.3.058.091.115.183.174.273.373.564.76,1.124,1.179,1.674.217.283.44.553.662.825l.022.026c.184.225.372.444.561.661.1.111.194.222.293.332.16.179.321.358.484.532.24.255.482.506.728.749.094.094.189.184.284.275.234.226.47.448.709.663l.251.223c.276.243.555.481.836.709l.09.074c.457.369.922.715,1.391,1.046.094.067.191.128.287.193q.57.391,1.148.746c.105.063.211.124.316.186q.586.346,1.176.649l.264.135c.442.22.885.424,1.329.608l.107.047a17.378,17.378,0,0,0,5.948,1.357c.014,0,.029,0,.043,0l.013,0a11.134,11.134,0,0,0,7.272-2.169c2.833-2.144,4.284-5.621,4.408-9.627a26.371,26.371,0,0,1,5.283-2.457c7.483,2.853,16.529,4.319,26.768,4.319s19.291-1.466,26.776-4.321a26.409,26.409,0,0,1,5.288,2.46c.125,4.005,1.579,7.482,4.419,9.626a11.09,11.09,0,0,0,7.273,2.171h0c.388-.013.78-.043,1.175-.088l.063-.008c.374-.044.75-.1,1.128-.175l.115-.023q.543-.108,1.089-.253l.155-.041q.527-.144,1.056-.325c.063-.021.126-.041.189-.062.342-.121.684-.253,1.026-.393.072-.03.143-.057.214-.087.336-.143.671-.3,1.006-.46.075-.036.15-.069.226-.107.339-.17.677-.352,1.014-.541.068-.039.137-.073.2-.111.4-.232.8-.476,1.2-.736l.068-.044q1.051-.691,2.07-1.508l.115-.1c.282-.23.563-.468.839-.712l.208-.184c.3-.268.593-.542.882-.826l.048-.044c.3-.3.6-.6.893-.92.076-.081.151-.166.227-.248q.331-.363.653-.739c.081-.095.162-.188.241-.285.279-.333.553-.672.821-1.022.4-.521.766-1.051,1.121-1.583.126-.19.243-.38.364-.571q.323-.509.623-1.024c.14-.242.276-.483.407-.726.152-.281.295-.562.435-.845s.288-.569.418-.855c.07-.151.129-.3.2-.455a25.8,25.8,0,0,0,1.337-3.846c.013-.048.026-.1.039-.147.107-.423.2-.844.28-1.263.008-.034.017-.069.023-.1s0-.038,0-.056c1.073-5.729-.233-10.985-4.047-13.87-3.547-2.746-8.5-2.837-13.394-.8.029-.106.056-.214.085-.32.059-.221.121-.442.176-.667.119-.49.225-.99.323-1.493.04-.2.085-.406.121-.612.1-.548.176-1.106.248-1.67.023-.17.05-.339.07-.511.053-.47.085-.952.121-1.432.012-.174.032-.344.043-.52.006-.1.018-.2.023-.3.042-.783.063-1.578.057-2.387.022.085.049.17.072.254.044.158.087.317.135.475.07.226.148.453.228.68.045.129.086.256.135.385.136.36.282.724.447,1.1.057.133.133.255.2.384,2.507,5.081,10.668,7.179,18.2,3.807a12.767,12.767,0,0,0,6.354-17.4,9.848,9.848,0,0,0-.507-.964c-.058-.1-.121-.192-.182-.288-.134-.212-.274-.42-.423-.621-.074-.1-.151-.2-.229-.3-.155-.2-.317-.385-.483-.57-.076-.083-.149-.169-.226-.251-.239-.251-.486-.493-.746-.724l-.078-.067c-.247-.217-.5-.424-.764-.623-.1-.079-.21-.153-.315-.228q-.276-.2-.56-.387c-.123-.08-.246-.16-.372-.237q-.271-.166-.548-.322c-.128-.073-.256-.147-.385-.216-.21-.111-.421-.215-.634-.318s-.443-.207-.666-.3c-.17-.073-.339-.149-.511-.217s-.352-.135-.528-.2c-.134-.048-.266-.1-.4-.142-.188-.064-.376-.126-.563-.184-.111-.034-.22-.065-.33-.1-.2-.059-.406-.117-.607-.168l-.094-.022c-.506-.124-1-.226-1.478-.3l-.033-.006a3.01,3.01,0,0,0,.2-.246c.348-.512-.915-1.84-2.818-3.449-1.844-1.561-3.662-2.022-4.2-1.6-.052.041-.131.109-.225.193-.463-.339-.934-.665-1.408-.983l-.191-.13q-.679-.449-1.367-.871l-.246-.15q-.685-.415-1.375-.8c-.068-.039-.136-.075-.2-.113-.962-.534-1.922-1.025-2.869-1.471l-.205-.1q-.673-.315-1.334-.6l-.248-.106c-.436-.186-.868-.362-1.292-.528l-.2-.078c-.436-.167-.868-.328-1.287-.473l-.027-.01c-.419-.146-.828-.278-1.227-.4l-.19-.059c-.379-.116-.746-.219-1.1-.314l-.212-.055c-.081-.021-.166-.045-.246-.065,7.354-4.885,12.292-11.784,13.729-21.05l15.293,6.427-3.719-10.134,20.186,1.226Z" transform="translate(0 0)" fill="none" stroke="#f9d0ce" stroke-linejoin="round" stroke-width="6"/>
    <g id="eggman_fun" transform="translate(2320.224 2035.466)">
      <g id="グループ_2462" data-name="グループ 2462" transform="translate(15.793 72.032)">
        <g id="グループ_2448" data-name="グループ 2448" transform="translate(0 14.683)">
          <path id="パス_4314" data-name="パス 4314" d="M2382.369,2139.433c-2.263-1.2-14.9,2.6-23.249,10.316,1.622,3.845,9.589,10.094,11.857,10.8.715-3.475,3.229-9.889,5.684-12.653C2381.147,2142.9,2384.878,2140.734,2382.369,2139.433Z" transform="translate(-2342.403 -2139.214)" fill="#e4000d"/>
          <path id="パス_4315" data-name="パス 4315" d="M2354.865,2154.5c-3.929-.311-11.792,2.078-14.433,7.9a12.769,12.769,0,0,0,6.354,17.4c7.726,3.457,16.128,1.172,18.4-4.192,1.414-3.213,1.738-5.753,1.537-10.311C2365.138,2164.835,2355.284,2156.082,2354.865,2154.5Z" transform="translate(-2339.119 -2141.719)" fill="#fff"/>
          <path id="パス_4316" data-name="パス 4316" d="M2371.167,2163.188c-.9,1.912-1.116,3.239-2.476,2.818-1.261-.39-13.485-11.435-14.3-12.637-.347-.512.915-1.839,2.818-3.449,1.843-1.56,3.662-2.022,4.2-1.6,1,.78,10.17,9.966,10.724,10.6C2373.091,2160.012,2372.1,2161.2,2371.167,2163.188Z" transform="translate(-2341.617 -2140.684)" fill="#ff9901"/>
        </g>
        <g id="グループ_2449" data-name="グループ 2449" transform="translate(112.894 14.683)">
          <path id="パス_4317" data-name="パス 4317" d="M2475,2139.433c2.264-1.2,14.9,2.6,23.25,10.316-1.622,3.845-9.59,10.094-11.857,10.8-.714-3.475-3.229-9.889-5.685-12.653C2476.219,2142.9,2472.487,2140.734,2475,2139.433Z" transform="translate(-2474.187 -2139.214)" fill="#e4000d"/>
          <path id="パス_4318" data-name="パス 4318" d="M2501.793,2154.5c3.929-.311,11.792,2.078,14.431,7.9a12.767,12.767,0,0,1-6.354,17.4c-7.726,3.457-16.128,1.172-18.4-4.192-1.415-3.213-1.738-5.753-1.536-10.311C2491.521,2164.835,2501.375,2156.082,2501.793,2154.5Z" transform="translate(-2476.764 -2141.719)" fill="#fff"/>
          <path id="パス_4319" data-name="パス 4319" d="M2487.351,2163.188c.9,1.912,1.116,3.239,2.476,2.818,1.262-.39,13.484-11.435,14.3-12.637.348-.512-.915-1.839-2.817-3.449-1.844-1.56-3.662-2.022-4.2-1.6-1,.78-10.17,9.966-10.725,10.6C2485.427,2160.012,2486.414,2161.2,2487.351,2163.188Z" transform="translate(-2476.125 -2140.684)" fill="#ff9901"/>
        </g>
        <path id="パス_4320" data-name="パス 4320" d="M2371.6,2164.885c1.628-25.789,25.663-43.238,49.667-43.238s48.033,17.449,49.673,43.238c1.586,25.192-18.582,38.609-49.673,38.609S2370.011,2190.077,2371.6,2164.885Z" transform="translate(-2344.437 -2121.647)" fill="#111"/>
        <path id="パス_4321" data-name="パス 4321" d="M2421.266,2121.647c24,0,48.038,17.449,49.667,43.238.847,13.435-4.494,23.526-14.379,30.025-2.292,1.505-5.4-22.348-22.869-24.421a103.045,103.045,0,0,0-24.84,0c-17.464,2.072-20.577,25.926-22.87,24.421-9.884-6.5-15.226-16.59-14.377-30.025,1.628-25.789,25.663-43.238,49.667-43.238Z" transform="translate(-2344.437 -2121.647)" fill="#e4000d"/>
        <path id="パス_4322" data-name="パス 4322" d="M2388.257,2192.125c.483,3.072-.752,5.819-2.758,6.135s-4.025-1.92-4.51-4.993.751-5.821,2.76-6.136S2387.774,2189.052,2388.257,2192.125Z" transform="translate(-2345.975 -2132.393)" fill="#b3b3b3"/>
        <path id="パス_4323" data-name="パス 4323" d="M2472.364,2192.125c-.484,3.072.751,5.819,2.759,6.135s4.025-1.92,4.509-4.993-.752-5.821-2.76-6.136S2472.846,2189.052,2472.364,2192.125Z" transform="translate(-2360.977 -2132.393)" fill="#b3b3b3"/>
        <g id="グループ_2451" data-name="グループ 2451" transform="translate(20.019 14.683)">
          <g id="グループ_2450" data-name="グループ 2450" clip-path="url(#clip-path)">
            <path id="パス_4324" data-name="パス 4324" d="M2421.007,2121.388c23.992,0,48.033,17.449,49.673,43.238,1.586,25.192-18.582,38.609-49.673,38.609s-51.255-13.417-49.667-38.609c1.628-25.789,25.663-43.238,49.667-43.238m0-1.316a54.472,54.472,0,0,0-34.062,12.248c-10.125,8.337-16.134,19.781-16.919,32.224-.656,10.4,2.221,19.1,8.551,25.838,8.705,9.27,23.377,14.17,42.43,14.17s33.73-4.9,42.435-14.17c6.33-6.74,9.207-15.434,8.552-25.838-.792-12.442-6.8-23.886-16.932-32.224a54.471,54.471,0,0,0-34.056-12.248Z" transform="translate(-2364.197 -2136.071)" fill="#fa6a6a"/>
          </g>
        </g>
        <g id="グループ_2453" data-name="グループ 2453" transform="translate(0 27.613)">
          <g id="グループ_2452" data-name="グループ 2452" clip-path="url(#clip-path-2)">
            <path id="パス_4326" data-name="パス 4326" d="M2421.007,2121.388c23.992,0,48.033,17.449,49.673,43.238,1.586,25.192-18.582,38.609-49.673,38.609s-51.255-13.417-49.667-38.609c1.628-25.789,25.663-43.238,49.667-43.238m0-1.316a54.472,54.472,0,0,0-34.062,12.248c-10.125,8.337-16.134,19.781-16.919,32.224-.656,10.4,2.221,19.1,8.551,25.838,8.705,9.27,23.377,14.17,42.43,14.17s33.73-4.9,42.435-14.17c6.33-6.74,9.207-15.434,8.552-25.838-.792-12.442-6.8-23.886-16.932-32.224a54.471,54.471,0,0,0-34.056-12.248Z" transform="translate(-2344.178 -2149.002)" fill="#a3bdc3"/>
          </g>
        </g>
        <g id="グループ_2459" data-name="グループ 2459" transform="translate(27.074)">
          <g id="グループ_2458" data-name="グループ 2458" clip-path="url(#clip-path-3)">
            <rect id="長方形_2678" data-name="長方形 2678" width="5.55" height="25.496" transform="translate(46.979 23.918)" fill="#fff"/>
            <g id="グループ_2455" data-name="グループ 2455" transform="translate(46.979 23.918)">
              <g id="グループ_2454" data-name="グループ 2454" clip-path="url(#clip-path-4)">
                <rect id="長方形_2679" data-name="長方形 2679" width="10.971" height="1.316" transform="translate(-2.52 3.696)" fill="#a3bdc3"/>
                <rect id="長方形_2680" data-name="長方形 2680" width="10.971" height="1.316" transform="translate(-2.52 8.962)" fill="#a3bdc3"/>
                <rect id="長方形_2681" data-name="長方形 2681" width="10.971" height="1.316" transform="translate(-2.52 14.229)" fill="#a3bdc3"/>
                <rect id="長方形_2682" data-name="長方形 2682" width="10.971" height="1.316" transform="translate(-2.52 19.496)" fill="#a3bdc3"/>
              </g>
            </g>
            <g id="グループ_2456" data-name="グループ 2456" transform="translate(-3.928 23.168)">
              <path id="パス_4328" data-name="パス 4328" d="M2388.473,2151.36c.338,0-12.139.522-13.345,1.439-2.488,1.89-3.658,8.13-3.658,8.13,3.2-1.235,11.858-1.547,14.172-1.227C2386.667,2156.366,2387.237,2154.7,2388.473,2151.36Z" transform="translate(-2367.577 -2149.693)" fill="#fff"/>
              <path id="パス_4329" data-name="パス 4329" d="M2383.1,2169.318s-12.809.137-15.338,1.835c-.785,2.334-.945,8.121-.945,8.121,3.082-1.189,12.846-1.913,15.319-1.568C2382.383,2174.352,2382.577,2172.672,2383.1,2169.318Z" transform="translate(-2366.812 -2152.641)" fill="#fff"/>
              <path id="パス_4330" data-name="パス 4330" d="M2393.528,2177.21a2.561,2.561,0,0,1-2.732,2.294c-2.314-.066-2.955-.036-5.27-.113a2.458,2.458,0,0,1-2.505-2.5,68.726,68.726,0,0,1,.856-7.409,2.879,2.879,0,0,1,2.965-2.265c2.236.113,2.839.1,5.082.213a2.237,2.237,0,0,1,2.241,2.473C2393.812,2172.823,2393.68,2174.284,2393.528,2177.21Z" transform="translate(-2369.472 -2152.296)" fill="#ffcc01"/>
              <path id="パス_4331" data-name="パス 4331" d="M2396.425,2159.2a2.636,2.636,0,0,1-2.8,2.133c-2.215-.086-3.323-.134-5.531-.225a2.025,2.025,0,0,1-2.089-2.367,53.125,53.125,0,0,1,1.825-7.01c.518-1.509,1.372-2.361,2.651-2.354,2.012-.006,3.4-.054,5.421.081a2.116,2.116,0,0,1,2.047,2.521C2397.223,2154.951,2396.959,2156.225,2396.425,2159.2Z" transform="translate(-2369.958 -2149.365)" fill="#ffcc01"/>
            </g>
            <g id="グループ_2457" data-name="グループ 2457" transform="translate(75.406 23.168)">
              <path id="パス_4332" data-name="パス 4332" d="M2470.277,2151.36c-.338,0,12.137.522,13.343,1.439,2.49,1.89,3.659,8.13,3.659,8.13-3.2-1.235-11.858-1.547-14.171-1.227C2472.083,2156.366,2471.512,2154.7,2470.277,2151.36Z" transform="translate(-2463.129 -2149.693)" fill="#fff"/>
              <path id="パス_4333" data-name="パス 4333" d="M2475.8,2169.318s12.811.137,15.34,1.835c.783,2.334.945,8.121.945,8.121-3.083-1.189-12.847-1.913-15.32-1.568C2476.509,2174.352,2476.316,2172.672,2475.8,2169.318Z" transform="translate(-2464.037 -2152.641)" fill="#fff"/>
              <path id="パス_4334" data-name="パス 4334" d="M2466.368,2177.21a2.562,2.562,0,0,0,2.732,2.294c2.315-.066,2.954-.036,5.269-.113a2.458,2.458,0,0,0,2.506-2.5,68.664,68.664,0,0,0-.856-7.409,2.878,2.878,0,0,0-2.966-2.265c-2.236.113-2.838.1-5.081.213a2.239,2.239,0,0,0-2.242,2.473C2466.085,2172.823,2466.217,2174.284,2466.368,2177.21Z" transform="translate(-2462.381 -2152.296)" fill="#ffcc01"/>
              <path id="パス_4335" data-name="パス 4335" d="M2463.3,2159.2a2.636,2.636,0,0,0,2.8,2.133c2.214-.086,3.322-.134,5.531-.225a2.024,2.024,0,0,0,2.088-2.367,53.087,53.087,0,0,0-1.825-7.01c-.518-1.509-1.37-2.361-2.65-2.354-2.012-.006-3.4-.054-5.422.081a2.117,2.117,0,0,0-2.046,2.521C2462.5,2154.951,2462.77,2156.225,2463.3,2159.2Z" transform="translate(-2461.727 -2149.365)" fill="#ffcc01"/>
            </g>
          </g>
        </g>
        <g id="グループ_2460" data-name="グループ 2460" transform="translate(97.445 54.19)">
          <path id="パス_4337" data-name="パス 4337" d="M2459.308,2202.4c2.619-2.138,14.363-2.647,18.415,4.17,2.908,4.836-2.778,17.718-5.2,13.028-1.947-3.716-9.717-8.044-14.811-8.229-1.175-.043-2.017-.639-2.011-2.589S2456.687,2204.535,2459.308,2202.4Z" transform="translate(-2455.704 -2188.861)" fill="#111"/>
          <path id="パス_4338" data-name="パス 4338" d="M2475.015,2196.453c-7.015,9.183-7.56,20.649-1.2,25.45,6.341,4.879,17.17,1.328,24.2-7.868,7.007-9.194,7.545-20.545,1.2-25.345C2492.864,2183.775,2482.025,2187.363,2475.015,2196.453Z" transform="translate(-2457.949 -2186.481)" fill="#111"/>
          <path id="パス_4339" data-name="パス 4339" d="M2498.8,2214.911a27.542,27.542,0,0,0,5.243-11.419c.566-4.466-.629-8.315-3.67-10.291-5.525-3.69-15.022.249-21.2,8.592-6.187,8.415-6.726,18.256-1.19,21.847a8.38,8.38,0,0,0,3.893,1.31C2487.543,2224.762,2494.041,2221.136,2498.8,2214.911Z" transform="translate(-2458.733 -2187.356)" fill="gray"/>
        </g>
        <g id="グループ_2461" data-name="グループ 2461" transform="translate(10.522 54.19)">
          <path id="パス_4340" data-name="パス 4340" d="M2398.3,2202.4c-2.621-2.138-14.365-2.647-18.417,4.17-2.907,4.836,2.78,17.718,5.2,13.028,1.947-3.716,9.717-8.044,14.812-8.229,1.176-.043,2.017-.639,2.011-2.589S2400.918,2204.535,2398.3,2202.4Z" transform="translate(-2356.2 -2188.861)" fill="#111"/>
          <path id="パス_4341" data-name="パス 4341" d="M2380.349,2196.453c7.013,9.183,7.549,20.649,1.206,25.45-6.363,4.879-17.195,1.328-24.2-7.868-7.029-9.194-7.566-20.545-1.2-25.345C2362.5,2183.775,2373.321,2187.363,2380.349,2196.453Z" transform="translate(-2351.708 -2186.481)" fill="#111"/>
          <path id="パス_4342" data-name="パス 4342" d="M2357.393,2214.911a27.528,27.528,0,0,1-5.243-11.419c-.566-4.466.629-8.315,3.67-10.291,5.526-3.69,15.022.249,21.2,8.592,6.187,8.415,6.726,18.256,1.19,21.847a8.378,8.378,0,0,1-3.892,1.31C2368.648,2224.762,2362.151,2221.136,2357.393,2214.911Z" transform="translate(-2351.757 -2187.356)" fill="gray"/>
        </g>
      </g>
      <g id="グループ_2480" data-name="グループ 2480">
        <path id="パス_4343" data-name="パス 4343" d="M2475.85,2096.665c0,26.439-24.967,36.533-55.765,36.533s-55.766-10.094-55.766-36.533c0-31.118,24.968-56.343,55.766-56.343a55.366,55.366,0,0,1,41.648,18.875A56.48,56.48,0,0,1,2475.85,2096.665Z" transform="translate(-2327.463 -2036.263)" fill="#fcb382"/>
        <path id="パス_4344" data-name="パス 4344" d="M2419.568,2040.322c-18.924,0-33.6,6.642-43.623,18.011a59.237,59.237,0,0,0-14.775,39.21h5.267a53.972,53.972,0,0,1,13.459-35.727c8.979-10.186,22.326-15.35,39.673-15.35s30.694,5.164,39.673,15.35a53.977,53.977,0,0,1,13.458,35.727h5.266a59.241,59.241,0,0,0-14.774-39.21C2453.168,2046.964,2438.492,2040.322,2419.568,2040.322Z" transform="translate(-2326.946 -2036.263)" fill="#4d4d4d"/>
        <path id="パス_4345" data-name="パス 4345" d="M2412.846,2109.9l-39.226-22.788-27.359-27.23,4.313,16.914-23.915-7.26,9.362,12.873-15.8,3.8,16.09,8.151-10.532,8.821,20.186-1.225-3.719,10.135,28.448-11.955Z" transform="translate(-2320.224 -2039.475)" fill="#e66102"/>
        <path id="パス_4346" data-name="パス 4346" d="M2431.052,2109.9l39.227-22.788,27.359-27.23-4.313,16.914,23.915-7.26-9.362,12.873,15.8,3.8-16.09,8.151,10.531,8.821-20.186-1.225,3.719,10.135-28.447-11.955Z" transform="translate(-2338.419 -2039.475)" fill="#e66102"/>
        <path id="パス_4347" data-name="パス 4347" d="M2421.751,2114.913c30.952,0,40.135-13.645,46.417-5.292,4.989,6.585-11.816,23.977-46.417,23.977s-51.4-17.391-46.42-23.977C2381.616,2101.268,2390.806,2114.913,2421.751,2114.913Z" transform="translate(-2329.13 -2047.196)" fill="#fff"/>
        <g id="グループ_2464" data-name="グループ 2464" transform="translate(45.343 59.718)">
          <g id="グループ_2463" data-name="グループ 2463" clip-path="url(#clip-path-5)">
            <rect id="長方形_2684" data-name="長方形 2684" width="22.305" height="1.316" transform="translate(35.882 28.083) rotate(-83.12)" fill="#a3bdc3"/>
            <rect id="長方形_2685" data-name="長方形 2685" width="21.576" height="1.317" transform="matrix(0.29, -0.957, 0.957, 0.29, 17.929, 23.022)" fill="#a3bdc3"/>
            <rect id="長方形_2686" data-name="長方形 2686" width="20.088" height="1.316" transform="translate(2.355 16.237) rotate(-65.622)" fill="#a3bdc3"/>
            <rect id="長方形_2687" data-name="長方形 2687" width="1.317" height="22.305" transform="translate(54.716 6.094) rotate(-6.845)" fill="#a3bdc3"/>
            <rect id="長方形_2688" data-name="長方形 2688" width="1.317" height="21.576" transform="translate(69.111 2.76) rotate(-16.913)" fill="#a3bdc3"/>
            <rect id="長方形_2689" data-name="長方形 2689" width="1.316" height="20.088" transform="matrix(0.911, -0.413, 0.413, 0.911, 82.72, -1.515)" fill="#a3bdc3"/>
          </g>
        </g>
        <g id="グループ_2469" data-name="グループ 2469" transform="translate(34.224)">
          <g id="グループ_2466" data-name="グループ 2466" transform="translate(0 4.059)">
            <g id="グループ_2465" data-name="グループ 2465" clip-path="url(#clip-path-6)">
              <path id="パス_4349" data-name="パス 4349" d="M2405.652,2039.034l4.13,8.044-4.94,6.722-13.276,6.816-8.341.1-4.132-8.042,4.943-6.72,13.275-6.819,8.341-.1m.8-1.326-.814.009-8.342.1-.31,0-.275.142-13.276,6.819-.276.142-.184.249-4.941,6.72-.483.656.373.726,4.131,8.042.372.725.815-.01,8.341-.1.309,0,.277-.142,13.276-6.817.276-.141.183-.249,4.941-6.723.482-.656-.372-.726-4.13-8.044-.373-.724Z" transform="translate(-2363.859 -2039.893)" fill="gray"/>
            </g>
          </g>
          <path id="パス_4351" data-name="パス 4351" d="M2405.956,2039.294l-8.341.1-13.276,6.819-4.942,6.72,4.131,8.042,8.341-.1,13.277-6.816,4.94-6.722Z" transform="translate(-2364.162 -2036.095)" fill="#4d4d4d"/>
          <path id="パス_4352" data-name="パス 4352" d="M2387.739,2052.837l-8.342.1,4.942-6.72,13.276-6.819,8.341-.1-4.94,6.724Z" transform="translate(-2364.162 -2036.095)" fill="#4d4d4d"/>
          <g id="グループ_2468" data-name="グループ 2468" transform="translate(15.235 3.199)">
            <g id="グループ_2467" data-name="グループ 2467" clip-path="url(#clip-path-7)">
              <path id="パス_4353" data-name="パス 4353" d="M2396.651,2035.207c1.154,0,1.975.291,2.287.9.494.964,1.921,3.745,2.417,4.707.834,1.625-2.308,4.906-7.016,7.324a18.775,18.775,0,0,1-7.753,2.334c-1.153,0-1.974-.29-2.287-.9-.5-.964-1.924-3.743-2.417-4.707-.835-1.625,2.305-4.9,7.016-7.322a18.764,18.764,0,0,1,7.753-2.335m0-1.317a19.853,19.853,0,0,0-8.355,2.482,22.917,22.917,0,0,0-5.936,4.218c-2.235,2.333-2.131,3.939-1.649,4.876l2.418,4.707c.377.734,1.284,1.612,3.457,1.612a19.865,19.865,0,0,0,8.354-2.479c4.671-2.4,9.037-6.268,7.585-9.1-.495-.961-1.922-3.741-2.416-4.7-.379-.737-1.286-1.614-3.459-1.614Z" transform="translate(-2379.566 -2038.407)" fill="gray"/>
            </g>
          </g>
          <path id="パス_4355" data-name="パス 4355" d="M2399.2,2036.364c-.835-1.625-5.33-.983-10.04,1.438s-7.851,5.7-7.016,7.322c.494.964,1.922,3.743,2.417,4.707.835,1.627,5.329.982,10.04-1.436s7.85-5.7,7.016-7.324C2401.119,2040.109,2399.692,2037.327,2399.2,2036.364Z" transform="translate(-2364.591 -2035.466)" fill="#4d4d4d"/>
          <path id="パス_4356" data-name="パス 4356" d="M2399.2,2036.364c.833,1.625-2.308,4.9-7.018,7.321s-9.206,3.062-10.038,1.439,2.305-4.9,7.016-7.322S2398.363,2034.739,2399.2,2036.364Z" transform="translate(-2364.591 -2035.466)" fill="#4d4d4d"/>
          <path id="パス_4357" data-name="パス 4357" d="M2396.5,2038.385c.438.853-1.546,2.746-4.432,4.228s-5.58,1.994-6.019,1.138,1.547-2.742,4.434-4.225S2396.066,2037.533,2396.5,2038.385Z" transform="translate(-2365.245 -2035.878)" fill="#307c1f"/>
        </g>
        <g id="グループ_2474" data-name="グループ 2474" transform="translate(34.236)">
          <g id="グループ_2471" data-name="グループ 2471" transform="translate(0 4.059)">
            <g id="グループ_2470" data-name="グループ 2470" clip-path="url(#clip-path-8)">
              <path id="パス_4358" data-name="パス 4358" d="M2449.8,2039.034l8.341.1,13.277,6.819,4.941,6.72-4.13,8.042-8.341-.1-13.277-6.816-4.94-6.722,4.129-8.044m-.8-1.326-.372.724-4.131,8.044-.372.726.482.656,4.94,6.723.183.249.276.141,13.277,6.817.276.142.309,0,8.341.1.815.01.372-.725,4.131-8.042.372-.726-.483-.656-4.94-6.72-.183-.249-.276-.142-13.277-6.819-.276-.142-.309,0-8.341-.1-.815-.009Z" transform="translate(-2374.801 -2039.893)" fill="gray"/>
            </g>
          </g>
          <path id="パス_4360" data-name="パス 4360" d="M2450.107,2039.294l8.341.1,13.277,6.819,4.941,6.72-4.13,8.042-8.341-.1-13.277-6.816-4.94-6.722Z" transform="translate(-2375.104 -2036.095)" fill="#4d4d4d"/>
          <path id="パス_4361" data-name="パス 4361" d="M2469.135,2052.837l8.342.1-4.941-6.72-13.277-6.819-8.341-.1,4.941,6.724Z" transform="translate(-2375.916 -2036.095)" fill="#4d4d4d"/>
          <g id="グループ_2473" data-name="グループ 2473" transform="translate(70.873 3.199)">
            <g id="グループ_2472" data-name="グループ 2472" clip-path="url(#clip-path-9)">
              <path id="パス_4362" data-name="パス 4362" d="M2461.043,2035.207a18.769,18.769,0,0,1,7.753,2.335c4.71,2.418,7.851,5.7,7.015,7.322-.493.964-1.921,3.743-2.417,4.707-.312.608-1.134.9-2.287.9a18.776,18.776,0,0,1-7.753-2.334c-4.709-2.418-7.85-5.7-7.015-7.324.495-.961,1.922-3.743,2.417-4.707.311-.607,1.134-.9,2.287-.9m0-1.317h0c-2.173,0-3.08.877-3.458,1.612-.493.965-1.922,3.745-2.416,4.706-1.452,2.829,2.914,6.7,7.585,9.1a19.872,19.872,0,0,0,8.354,2.479c2.173,0,3.08-.878,3.459-1.613l2.416-4.707c.481-.936.587-2.542-1.649-4.875a22.909,22.909,0,0,0-5.937-4.218,19.843,19.843,0,0,0-8.354-2.482Z" transform="translate(-2447.44 -2038.407)" fill="gray"/>
            </g>
          </g>
          <path id="パス_4364" data-name="パス 4364" d="M2459.016,2036.364c.835-1.625,5.329-.983,10.04,1.438s7.851,5.7,7.015,7.322c-.493.964-1.921,3.743-2.417,4.707-.836,1.627-5.329.982-10.04-1.436s-7.85-5.7-7.015-7.324C2457.094,2040.109,2458.522,2037.327,2459.016,2036.364Z" transform="translate(-2376.826 -2035.466)" fill="#4d4d4d"/>
          <path id="パス_4365" data-name="パス 4365" d="M2459.49,2036.364c-.833,1.625,2.308,4.9,7.017,7.321s9.206,3.062,10.038,1.439-2.305-4.9-7.015-7.322S2460.325,2034.739,2459.49,2036.364Z" transform="translate(-2377.301 -2035.466)" fill="#4d4d4d"/>
          <path id="パス_4366" data-name="パス 4366" d="M2463.51,2038.385c-.438.853,1.545,2.746,4.433,4.228s5.579,1.994,6.017,1.138-1.547-2.742-4.432-4.225S2463.947,2037.533,2463.51,2038.385Z" transform="translate(-2377.972 -2035.878)" fill="#307c1f"/>
        </g>
        <path id="パス_4367" data-name="パス 4367" d="M2422.642,2098.157l-2.517-2.447c.164-.169,4.073-4.146,9.128-4.146s8.962,3.979,9.126,4.147l-2.523,2.441c-.027-.027-3.053-3.078-6.6-3.078S2422.672,2098.126,2422.642,2098.157Z" transform="translate(-2336.625 -2044.676)" fill="#4d4d4d"/>
        <g id="グループ_2479" data-name="グループ 2479" transform="translate(67.032 37.686)">
          <g id="グループ_2476" data-name="グループ 2476">
            <g id="グループ_2475" data-name="グループ 2475" clip-path="url(#clip-path-10)">
              <path id="パス_4368" data-name="パス 4368" d="M2411.116,2102.945c-6.1,0-10.694-4.836-10.694-11.125,0-6.429,4.6-11.265,10.694-11.265s10.716,4.835,10.716,11.265C2421.832,2098.109,2417.212,2102.945,2411.116,2102.945Z" transform="translate(-2400.422 -2080.555)" fill="#13017c"/>
              <rect id="長方形_2690" data-name="長方形 2690" width="24.567" height="5.811" transform="translate(-0.224 18.783) rotate(-51.118)" fill="#a59cca"/>
            </g>
          </g>
          <g id="グループ_2478" data-name="グループ 2478" transform="translate(29.779)">
            <g id="グループ_2477" data-name="グループ 2477" clip-path="url(#clip-path-11)">
              <path id="パス_4370" data-name="パス 4370" d="M2446.748,2102.945c-6.1,0-10.7-4.836-10.7-11.125,0-6.429,4.6-11.265,10.7-11.265s10.714,4.835,10.714,11.265C2457.462,2098.109,2452.841,2102.945,2446.748,2102.945Z" transform="translate(-2436.05 -2080.555)" fill="#13017c"/>
              <rect id="長方形_2691" data-name="長方形 2691" width="24.567" height="5.81" transform="translate(-0.062 18.782) rotate(-51.113)" fill="#a59cca"/>
            </g>
          </g>
        </g>
        <path id="パス_4372" data-name="パス 4372" d="M2440.741,2108.059c0,4.543-7.613,10.108-12.078,10.108s-12.053-5.565-12.053-10.108c0-2.444,6.313-13.159,12.053-13.159S2440.741,2105.615,2440.741,2108.059Z" transform="translate(-2336.048 -2045.223)" fill="#f94e63"/>
        <path id="パス_4373" data-name="パス 4373" d="M2447.67,2073.091c0,6.222-9.211,11.265-20.575,11.265s-20.574-5.043-20.574-11.265,9.211-11.265,20.574-11.265S2447.67,2066.869,2447.67,2073.091Z" transform="translate(-2334.392 -2039.794)" fill="#fcb382"/>
      </g>
    </g>
  </g>
</svg>
