<svg xmlns="http://www.w3.org/2000/svg" xmlns:xlink="http://www.w3.org/1999/xlink" width="133.907" height="182.366" viewBox="0 0 133.907 182.366">
  <defs>
    <clipPath id="clip-path">
      <path id="パス_2269" data-name="パス 2269" d="M2425.98,1229.8h0c-1.35,0-2.634-1.06-3.815-3.15-1.884-3.333-3.555-9.66-1.373-13.292a8.114,8.114,0,0,1,3.659-3.736c3.524-1.879,7.214.941,8.375,3.148,1.619,3.076,3.033,8.29.45,10.873-1.9,1.9-3.843,2.569-4.8,4.4A2.793,2.793,0,0,1,2425.98,1229.8Zm62.468-1.76c-.958-1.828-2.9-2.5-4.8-4.4-2.583-2.583-1.169-7.8.45-10.873,1.161-2.207,4.85-5.027,8.375-3.148a8.114,8.114,0,0,1,3.658,3.736c2.183,3.632.512,9.959-1.372,13.292-1.182,2.09-2.465,3.149-3.815,3.15h0A2.794,2.794,0,0,1,2488.448,1228.045Z" transform="translate(-2419.758 -1209.011)" fill="none"/>
    </clipPath>
    <clipPath id="clip-path-2">
      <path id="パス_2274" data-name="パス 2274" d="M2458.066,1216.5c21.773,0,36.392-6.321,42.26-20.278-.949-.384-2.617-.887-5.2-1.783-5.965,10.675-19.878,18.055-37.057,18.055s-31.092-7.379-37.057-18.055c-2.587.9-4.255,1.4-5.2,1.783C2421.674,1210.182,2436.292,1216.5,2458.066,1216.5Z" transform="translate(-2415.805 -1194.441)" fill="none"/>
    </clipPath>
    <clipPath id="clip-path-3">
      <path id="パス_2284" data-name="パス 2284" d="M2485.532,1188.637c3.561-2.841,9.115-8.015,9.43-9.209,4.031-.319,12.094,2.131,14.8,8.106a14.212,14.212,0,0,1,1.319,6.511c-3.546-1.687-7.994-1.382-12.367.573-2.7-1.014-12.733-3.981-13.041-5.4C2485.631,1189.025,2485.579,1188.832,2485.532,1188.637Zm-70.8,5.978c2.7-1.016,12.727-3.98,13.034-5.393.042-.2.094-.391.141-.586-3.561-2.84-9.114-8.014-9.429-9.208-4.03-.319-12.093,2.131-14.8,8.106a14.212,14.212,0,0,0-1.318,6.52C2405.905,1192.356,2410.354,1192.658,2414.732,1194.615Z" transform="translate(-2402.348 -1179.401)" fill="none"/>
    </clipPath>
    <clipPath id="clip-path-4">
      <path id="パス_2300" data-name="パス 2300" d="M2439.414,1139.431c-3.663,0-6.426-4.039-6.426-9.291,0-5.37,2.763-9.408,6.426-9.408s6.44,4.038,6.44,9.408C2445.854,1135.392,2443.078,1139.431,2439.414,1139.431Z" transform="translate(-2432.988 -1120.732)" fill="none"/>
    </clipPath>
    <clipPath id="clip-path-5">
      <path id="パス_2303" data-name="パス 2303" d="M2484.683,1139.431c-3.664,0-6.428-4.039-6.428-9.291,0-5.37,2.764-9.408,6.428-9.408s6.439,4.038,6.439,9.408C2491.122,1135.392,2488.345,1139.431,2484.683,1139.431Z" transform="translate(-2478.255 -1120.732)" fill="none"/>
    </clipPath>
    <clipPath id="clip-path-6">
      <path id="パス_2307" data-name="パス 2307" d="M2455.705,1048.162c-39.958,0-65.636,33.133-63.352,69.1.784,12.345,8.962,34.873,28.515,43.295-.368-1.928-4.845-14.455-4.845-20.119.618-.388,2.252-1.7,4.653-3.445a22.714,22.714,0,0,1-7.742-12.6,31.108,31.108,0,0,1-2.99-14.246c0-12.51,10.79-23.454,24.066-23.454.062,0,.123.008.184.01.379-.022.76-.034,1.144-.034,8.712,0,16.289,5.573,20.37,13.707,4.09-8.134,11.683-13.707,20.373-13.707.384,0,.765.013,1.145.034.062,0,.122-.01.183-.01,13.3,0,24.064,10.943,24.064,23.454a31.117,31.117,0,0,1-2.992,14.258,22.691,22.691,0,0,1-7.737,12.59c2.4,1.74,4.024,3.052,4.642,3.44,0,5.664-3.576,18.191-3.945,20.119,21.451-10.627,27.73-30.95,28.514-43.295C2522.241,1081.295,2495.661,1048.162,2455.705,1048.162Z" transform="translate(-2392.212 -1048.162)" fill="none"/>
    </clipPath>
  </defs>
  <g id="グループ_4334" data-name="グループ 4334" transform="translate(-2389.19 -1038.33)">
    <path id="パス_2257" data-name="パス 2257" d="M2519.957,1116.577a65.909,65.909,0,0,0-17.491-49.323c-.282-5.808-.641-10.958-.641-10.958-.438-3.492-3.274-4.86-6.306-3.144l-6.007,3.574a64.372,64.372,0,0,0-33.807-9.245c-.111,0-.219.008-.33.009-.637,0-1.265.03-1.9.049-10.061-9.044-27.959-8.781-35.116,4.877a37.9,37.9,0,0,1,8.714,1.567c-.595.293-1.19.586-1.771.9-1.124.6-2.219,1.245-3.293,1.911l-6.119-3.64c-3.031-1.716-5.867-.348-6.305,3.144,0,0-.38,5.441-.664,11.445a66.555,66.555,0,0,0-16.572,48.836c.784,12.345,8.962,34.873,28.515,43.295-.226-1.183-2-6.35-3.332-11.476a53.649,53.649,0,0,0,11.336,5.5,55.281,55.281,0,0,0,6.078,1.886,49.028,49.028,0,0,0-14.092,7.064c-.1-.079-.184-.151-.239-.193-.559-.425-1.413-.514-2.757.33-1.384.872-2.134,2.157-1.728,2.615l.021.023c-4.267.211-11.051,2.724-13.49,8.11-.205.453-.376.9-.532,1.349-.03.085-.062.17-.09.255-.127.386-.23.769-.322,1.148-.039.162-.077.324-.109.484-.065.313-.117.624-.159.932-.032.244-.056.485-.075.725-.006.07-.009.14-.013.21v.025c-.023.383-.021.761-.013,1.136,0,.082-.006.167,0,.248-.083.04-.163.084-.244.126-.121.061-.243.12-.361.186s-.225.136-.336.205-.212.124-.315.192q-.32.212-.626.449a10.393,10.393,0,0,0-1.039.911c-.051.05-.1.1-.155.151a10.569,10.569,0,0,0-.847.993c-.051.068-.1.138-.15.206a11.134,11.134,0,0,0-.708,1.113c-.03.052-.054.108-.083.16a12.1,12.1,0,0,0-.543,1.171c-.021.051-.045.1-.065.153-.116.3-.223.607-.319.921,0,.027,0,.05,0,.077a18.213,18.213,0,0,0-.139,8.894c.076.363.158.725.253,1.09.062.239.133.478.2.717.094.321.194.642.3.964.076.229.152.455.236.684.2.535.4,1.07.637,1.6.065.146.122.292.188.438.125.273.265.544.4.816.165.33.332.661.512.99.107.2.219.394.331.591.265.459.541.915.835,1.368.054.084.105.168.161.253.383.581.782,1.156,1.214,1.724s.884,1.1,1.343,1.626c.044.051.089.1.134.153a30.059,30.059,0,0,0,2.765,2.74c.132.115.266.228.4.339q.534.448,1.08.86c.125.095.248.2.375.287.424.31.853.6,1.285.877.211.137.425.266.638.4.263.158.526.309.791.455q.476.265.956.5c.3.151.607.3.911.432.268.119.535.227.8.332.2.078.4.152.6.224q.765.275,1.528.481c.143.039.287.085.43.119.288.071.574.128.86.183.174.033.348.063.522.091a15.615,15.615,0,0,0,1.889.193c.017,0,.034,0,.051,0h0a11.432,11.432,0,0,0,7.471-2.227,11.8,11.8,0,0,0,4.368-7.987c.211-.184.424-.376.635-.588a4.713,4.713,0,0,0,1.214-2.243,22.606,22.606,0,0,1,6.634-2.285,52.9,52.9,0,0,0,6.05,1.463c1.6.291,3.257.511,4.961.674,2.037.194,4.143.3,6.326.3h.031l.164,0a59,59,0,0,0,17.148-2.438,22.61,22.61,0,0,1,6.627,2.279,4.718,4.718,0,0,0,1.217,2.251c.217.217.434.414.651.6a11.787,11.787,0,0,0,4.377,7.972,11.383,11.383,0,0,0,7.458,2.226h0c.1,0,.208-.016.31-.022a15.814,15.814,0,0,0,1.609-.172c.188-.031.376-.063.565-.1.272-.052.545-.106.818-.173.293-.071.587-.156.881-.243q.516-.153,1.032-.339c.238-.085.475-.173.714-.267s.476-.191.715-.3c.42-.185.841-.382,1.259-.6.187-.1.374-.2.56-.307.309-.169.616-.345.922-.531.187-.113.375-.227.561-.346.447-.286.89-.585,1.329-.906.112-.082.219-.171.331-.255q.557-.421,1.1-.878c.141-.118.281-.236.422-.357.449-.391.895-.795,1.33-1.222.045-.044.088-.093.134-.138.4-.4.8-.823,1.188-1.257q.169-.188.335-.379c.423-.488.84-.987,1.24-1.511s.787-1.077,1.151-1.624c.128-.194.248-.39.372-.585q.332-.523.638-1.049c.144-.248.284-.5.418-.745.156-.288.3-.577.446-.866s.295-.585.429-.878c.07-.154.131-.308.2-.461a26.487,26.487,0,0,0,1.374-3.95l.039-.149q.171-.678.3-1.347c0-.019.009-.037.012-.056s0-.026,0-.04a18,18,0,0,0-.246-8.371c0-.031,0-.058,0-.09-.1-.323-.209-.637-.328-.947-.01-.023-.021-.046-.03-.069a12.082,12.082,0,0,0-.576-1.245c-.025-.046-.047-.094-.071-.14a11.38,11.38,0,0,0-.7-1.1c-.057-.079-.114-.158-.173-.237a10.418,10.418,0,0,0-.81-.952c-.072-.075-.147-.145-.221-.217a10.27,10.27,0,0,0-.879-.772c-.04-.031-.072-.068-.112-.1a10.486,10.486,0,0,0-1.9-1.167c.006-.143-.006-.292-.005-.436,0-.313.008-.625-.012-.943v-.029c0-.068-.007-.136-.013-.2-.019-.239-.043-.481-.075-.725-.042-.308-.094-.617-.158-.931-.033-.16-.071-.321-.11-.483-.093-.38-.2-.762-.322-1.148-.028-.084-.06-.168-.089-.253-.157-.447-.328-.9-.533-1.35-2.44-5.386-9.223-7.9-13.49-8.11l.021-.023c.4-.458-.344-1.743-1.729-2.615-1.344-.844-2.2-.755-2.758-.33-.054.041-.142.113-.238.193a49.072,49.072,0,0,0-14.046-7.05,53.123,53.123,0,0,0,7.548-2.464,52.5,52.5,0,0,0,10.161-5.153c-1.079,5.2-2.548,10.494-2.778,11.693C2512.893,1149.245,2519.173,1128.922,2519.957,1116.577Z" transform="translate(0 0)" fill="none" stroke="#fddced" stroke-linejoin="round" stroke-width="6"/>
    <g id="amy_fun" transform="translate(2392.212 1041.35)">
      <g id="グループ_1712" data-name="グループ 1712" transform="translate(2.697 110.835)">
        <g id="グループ_1702" data-name="グループ 1702" transform="translate(6.407 2.638)">
          <path id="パス_2258" data-name="パス 2258" d="M2444.112,1167.652c-2.322-1.235-15.281,2.668-23.842,10.579,1.664,3.943,9.833,10.35,12.159,11.077.732-3.563,3.311-10.141,5.83-12.976C2442.858,1171.209,2446.686,1168.987,2444.112,1167.652Z" transform="translate(-2404.122 -1167.427)" fill="#fdcc8a"/>
          <path id="パス_2259" data-name="パス 2259" d="M2418.476,1179.428c-4.03-.319-12.093,2.131-14.8,8.106a13.092,13.092,0,0,0,6.516,17.843c7.922,3.545,16.539,1.2,18.867-4.3,1.451-3.295,1.783-5.9,1.576-10.574C2429.011,1190.026,2418.906,1181.051,2418.476,1179.428Z" transform="translate(-2402.328 -1168.624)" fill="#fff"/>
          <path id="パス_2260" data-name="パス 2260" d="M2434.06,1188.52c-.437,1.292-.5,2.429-1.783,1.85-1.195-.537-12.547-10.258-13.5-11.331-.406-.458.344-1.743,1.729-2.615,1.343-.844,2.2-.755,2.756-.33,1.033.785,9.89,8.691,10.5,9.279C2434.822,1186.389,2434.516,1187.173,2434.06,1188.52Z" transform="translate(-2403.962 -1168.262)" fill="#ffcc01"/>
        </g>
        <g id="グループ_1703" data-name="グループ 1703" transform="translate(74.369 2.638)">
          <path id="パス_2261" data-name="パス 2261" d="M2478.668,1167.652c2.321-1.235,15.279,2.668,23.842,10.579-1.663,3.943-9.835,10.35-12.16,11.077-.732-3.563-3.31-10.141-5.829-12.976C2479.922,1171.209,2476.094,1168.987,2478.668,1167.652Z" transform="translate(-2477.839 -1167.427)" fill="#fdcc8a"/>
          <path id="パス_2262" data-name="パス 2262" d="M2503.894,1179.428c4.031-.319,12.094,2.131,14.8,8.106a13.091,13.091,0,0,1-6.516,17.843c-7.922,3.545-16.54,1.2-18.868-4.3-1.451-3.295-1.782-5.9-1.576-10.574C2493.359,1190.026,2503.465,1181.051,2503.894,1179.428Z" transform="translate(-2479.222 -1168.624)" fill="#fff"/>
          <path id="パス_2263" data-name="パス 2263" d="M2489.7,1188.52c.437,1.292.5,2.429,1.784,1.85,1.194-.537,12.546-10.258,13.5-11.331.4-.458-.344-1.743-1.729-2.615-1.343-.844-2.2-.755-2.758-.33-1.031.785-9.889,8.691-10.5,9.279C2488.942,1186.389,2489.249,1187.173,2489.7,1188.52Z" transform="translate(-2478.983 -1168.262)" fill="#ffcc01"/>
        </g>
        <path id="パス_2264" data-name="パス 2264" d="M2481.947,1209.705c2.687-2.192,14.731-2.714,18.885,4.277,2.982,4.958-2.849,18.168-5.329,13.359-2-3.81-9.965-8.249-15.19-8.438-1.206-.044-2.068-.655-2.062-2.656S2479.259,1211.9,2481.947,1209.705Z" transform="translate(-2403.512 -1168.87)" fill="#f882bf"/>
        <path id="パス_2265" data-name="パス 2265" d="M2440.986,1209.705c-2.688-2.192-14.731-2.714-18.886,4.277-2.981,4.958,2.85,18.168,5.329,13.359,2-3.81,9.966-8.249,15.19-8.438,1.206-.044,2.068-.655,2.062-2.656S2443.674,1211.9,2440.986,1209.705Z" transform="translate(-2397.815 -1168.87)" fill="#f882bf"/>
        <path id="パス_2266" data-name="パス 2266" d="M2425.98,1229.8h0c-1.35,0-2.634-1.06-3.815-3.15-1.884-3.333-3.555-9.66-1.373-13.292a8.114,8.114,0,0,1,3.659-3.736c3.524-1.879,7.214.941,8.375,3.148,1.619,3.076,3.033,8.29.45,10.873-1.9,1.9-3.843,2.569-4.8,4.4A2.793,2.793,0,0,1,2425.98,1229.8Z" transform="translate(-2397.664 -1168.946)" fill="#fff"/>
        <path id="パス_2267" data-name="パス 2267" d="M2495.386,1228.045c-.958-1.828-2.9-2.5-4.8-4.4-2.583-2.583-1.169-7.8.45-10.873,1.161-2.207,4.85-5.027,8.375-3.148a8.114,8.114,0,0,1,3.658,3.736c2.183,3.632.512,9.959-1.372,13.292-1.182,2.09-2.465,3.149-3.815,3.15h0A2.794,2.794,0,0,1,2495.386,1228.045Z" transform="translate(-2404.602 -1168.946)" fill="#fff"/>
        <g id="グループ_1705" data-name="グループ 1705" transform="translate(22.095 40.065)">
          <g id="グループ_1704" data-name="グループ 1704" clip-path="url(#clip-path)">
            <path id="パス_2268" data-name="パス 2268" d="M2494.925,1194.258c2.586.9,4.255,1.4,5.2,1.783-5.869,13.958-20.487,23.879-42.26,23.879s-36.392-9.921-42.261-23.879c.949-.384,2.617-.887,5.2-1.783,5.965,10.675,19.878,18.055,37.057,18.055s31.092-7.379,37.057-18.055m-.627-1.645-.551.986c-5.984,10.71-19.732,17.363-35.878,17.363s-29.894-6.653-35.879-17.363l-.552-.986-1.068.37c-1.083.374-2,.68-2.778.938-1.1.366-1.9.631-2.49.87l-1.267.514.53,1.26a37.7,37.7,0,0,0,15.72,17.811c7.7,4.576,17.047,6.9,27.784,6.9s20.085-2.319,27.783-6.9a37.7,37.7,0,0,0,15.721-17.811l.53-1.26-1.267-.514c-.59-.239-1.387-.5-2.49-.87-.774-.257-1.695-.563-2.778-.938l-1.069-.37Z" transform="translate(-2419.166 -1207.372)" fill="#a3bdc3"/>
          </g>
        </g>
        <path id="パス_2270" data-name="パス 2270" d="M2429.893,1192.283c.969-16.577,15.282-27.787,29.576-27.787s28.605,11.211,29.583,27.787c.945,16.188-11.067,24.826-29.582,24.826S2428.947,1208.471,2429.893,1192.283Z" transform="translate(-2398.672 -1164.496)" fill="#fff"/>
        <path id="パス_2271" data-name="パス 2271" d="M2458.066,1217.109c21.773,0,36.392-9.921,42.26-23.879-2.219-.9-12.988-4.032-13.307-5.5-3.054-14.045-16.012-23.236-28.954-23.236s-25.9,9.191-28.954,23.236c-.319,1.466-11.088,4.6-13.307,5.5,5.869,13.958,20.487,23.879,42.26,23.879Z" transform="translate(-2397.268 -1164.496)" fill="#e4000d"/>
        <path id="パス_2272" data-name="パス 2272" d="M2458.066,1220.1c21.773,0,36.392-9.921,42.26-23.879-.949-.384-2.617-.887-5.2-1.783-5.965,10.675-19.878,18.055-37.057,18.055s-31.092-7.379-37.057-18.055c-2.587.9-4.255,1.4-5.2,1.783C2421.674,1210.182,2436.292,1220.1,2458.066,1220.1Z" transform="translate(-2397.268 -1167.49)" fill="#fff"/>
        <g id="グループ_1707" data-name="グループ 1707" transform="translate(18.537 26.951)">
          <g id="グループ_1706" data-name="グループ 1706" clip-path="url(#clip-path-2)">
            <path id="パス_2273" data-name="パス 2273" d="M2458.066,1165.846a28.759,28.759,0,0,1,27.635,22.172c.321,1.482,2.512,2.55,11.16,5.438.6.2,1.158.387,1.641.553a35.164,35.164,0,0,1-14.031,15.235c-7.276,4.324-16.16,6.515-26.406,6.515s-19.128-2.192-26.4-6.515a35.157,35.157,0,0,1-14.031-15.235c.482-.166,1.042-.353,1.64-.553,8.649-2.888,10.839-3.956,11.161-5.438a28.759,28.759,0,0,1,27.635-22.172m0-1.35c-12.941,0-25.9,9.191-28.954,23.236-.319,1.466-11.088,4.6-13.307,5.5,5.869,13.958,20.487,23.879,42.26,23.879h0c21.773,0,36.392-9.921,42.26-23.879-2.219-.9-12.988-4.032-13.307-5.5-3.054-14.045-16.012-23.236-28.954-23.236Z" transform="translate(-2415.805 -1191.447)" fill="#a3bdc3"/>
          </g>
        </g>
        <path id="パス_2275" data-name="パス 2275" d="M2478.769,1171.133c.222-.564-.854-1.136-1.556-1.523-4.444-2.45-6.491.492-16.46.492s-12.016-2.942-16.461-.492c-.7.387-1.778.959-1.556,1.523.967,2.446,10.343,4.162,18.028,4.162S2477.8,1173.58,2478.769,1171.133Z" transform="translate(-2399.958 -1164.91)" fill="#fff"/>
        <g id="グループ_1708" data-name="グループ 1708" transform="translate(86.461 26.951)">
          <path id="パス_2276" data-name="パス 2276" d="M2497.055,1204.668c-7.2,9.417-7.752,21.174-1.23,26.1,6.5,5,17.609,1.363,24.818-8.068,7.187-9.429,7.739-21.068,1.231-25.991C2515.36,1191.666,2504.245,1195.346,2497.055,1204.668Z" transform="translate(-2491.274 -1194.44)" fill="#e4000d"/>
          <path id="パス_2277" data-name="パス 2277" d="M2527.8,1202.486a11.118,11.118,0,0,0-3.907-5.779c-3.292-2.552-7.762-2.869-12.306-1.354.706-.147,6.9-.3,4.964,8.451C2514.9,1210.437,2528.9,1216.274,2527.8,1202.486Z" transform="translate(-2493.305 -1194.44)" fill="#fff"/>
          <path id="パス_2278" data-name="パス 2278" d="M2521.1,1223.206a28.237,28.237,0,0,0,5.377-11.71c.581-4.578-.644-8.526-3.764-10.553-5.666-3.785-15.4.256-21.743,8.81-6.345,8.63-6.9,18.721-1.22,22.4a8.6,8.6,0,0,0,3.991,1.344C2509.554,1233.308,2516.218,1229.59,2521.1,1223.206Z" transform="translate(-2491.729 -1194.948)" fill="gray"/>
        </g>
        <g id="グループ_1709" data-name="グループ 1709" transform="translate(0 26.951)">
          <path id="パス_2279" data-name="パス 2279" d="M2424.581,1204.668c7.19,9.417,7.741,21.174,1.237,26.1-6.525,5-17.632,1.363-24.819-8.068-7.208-9.429-7.759-21.068-1.234-25.991C2406.272,1191.666,2417.375,1195.346,2424.581,1204.668Z" transform="translate(-2395.209 -1194.44)" fill="#e4000d"/>
          <path id="パス_2280" data-name="パス 2280" d="M2395.922,1202.486a11.119,11.119,0,0,1,3.907-5.779c3.293-2.552,7.763-2.869,12.307-1.354-.706-.147-6.9-.3-4.965,8.451C2408.829,1210.437,2394.822,1216.274,2395.922,1202.486Z" transform="translate(-2395.274 -1194.44)" fill="#fff"/>
          <path id="パス_2281" data-name="パス 2281" d="M2401.016,1223.206a28.249,28.249,0,0,1-5.376-11.71c-.58-4.578.644-8.526,3.764-10.553,5.666-3.785,15.4.256,21.743,8.81,6.344,8.63,6.9,18.721,1.219,22.4a8.591,8.591,0,0,1-3.991,1.344C2412.56,1233.308,2405.9,1229.59,2401.016,1223.206Z" transform="translate(-2395.238 -1194.948)" fill="gray"/>
        </g>
        <g id="グループ_1711" data-name="グループ 1711" transform="translate(6.425 13.415)">
          <g id="グループ_1710" data-name="グループ 1710" clip-path="url(#clip-path-3)">
            <path id="パス_2282" data-name="パス 2282" d="M2406.634,1194.3c5.919,0,12.8,3.752,17.807,10.227,7.19,9.417,7.741,21.174,1.237,26.1a11.308,11.308,0,0,1-7,2.246c-5.929,0-12.821-3.758-17.818-10.314-7.208-9.429-7.759-21.068-1.234-25.991a11.243,11.243,0,0,1,7.01-2.266m0-1.26h0a12.546,12.546,0,0,0-7.781,2.531,12.974,12.974,0,0,0-4.876,8.88c-.812,5.938,1.386,12.993,5.881,18.872,5.081,6.666,12.292,10.808,18.818,10.808a12.618,12.618,0,0,0,7.768-2.507,13.024,13.024,0,0,0,4.865-8.908c.816-5.989-1.377-13.075-5.866-18.955-5.114-6.615-12.319-10.722-18.808-10.722Z" transform="translate(-2401.495 -1180.764)" fill="#a3bdc3"/>
            <path id="パス_2283" data-name="パス 2283" d="M2514.716,1194.3a11.241,11.241,0,0,1,7.009,2.266c6.525,4.923,5.975,16.562-1.234,25.991-5,6.557-11.888,10.314-17.818,10.314a11.305,11.305,0,0,1-7-2.246c-6.505-4.924-5.955-16.681,1.237-26.1,5-6.475,11.887-10.227,17.806-10.227m0-1.26c-6.489,0-13.695,4.107-18.8,10.717-4.494,5.885-6.687,12.971-5.872,18.96a13.025,13.025,0,0,0,4.872,8.913,12.608,12.608,0,0,0,7.761,2.5c6.527,0,13.739-4.142,18.821-10.81,4.493-5.877,6.691-12.932,5.88-18.87a12.985,12.985,0,0,0-4.889-8.89,12.539,12.539,0,0,0-7.769-2.521Z" transform="translate(-2411.099 -1180.764)" fill="#a3bdc3"/>
          </g>
        </g>
      </g>
      <g id="グループ_1724" data-name="グループ 1724">
        <path id="パス_2285" data-name="パス 2285" d="M2513.6,1113.027c0,31.912-25.6,46.464-57.187,46.464s-57.189-14.552-57.189-46.464,25.6-57.782,57.189-57.782a56.783,56.783,0,0,1,42.712,19.356A57.926,57.926,0,0,1,2513.6,1113.027Z" transform="translate(-2392.913 -1042.739)" fill="#f882bf"/>
        <path id="パス_2286" data-name="パス 2286" d="M2495.387,1140.433c0,5.664-3.576,18.191-3.945,20.119,21.451-10.627,27.73-30.95,28.514-43.295,2.284-35.963-24.3-69.1-64.251-69.1s-65.636,33.133-63.352,69.1c.784,12.345,8.962,34.873,28.515,43.295-.368-1.928-4.845-14.455-4.845-20.119,2.433-1.524,20.464-17.344,39.688-17.344S2492.954,1138.91,2495.387,1140.433Z" transform="translate(-2392.212 -1042.031)" fill="#f882bf"/>
        <path id="パス_2287" data-name="パス 2287" d="M2456.875,1060.164c26.253,0,42.754,15.014,50.263,28.31a35.117,35.117,0,0,1,2.644,6.054c.207.011.016-2.534-1.009-6.308-3.222-11.874-14.681-36.095-51.9-36.095s-48.673,24.22-51.9,36.095c-1.024,3.775-1.215,6.319-1.008,6.308a35.117,35.117,0,0,1,2.644-6.054C2414.122,1075.178,2430.623,1060.164,2456.875,1060.164Z" transform="translate(-2393.38 -1042.427)" fill="#e4000d"/>
        <g id="グループ_1713" data-name="グループ 1713" transform="translate(80.641 11.064)">
          <path id="パス_2288" data-name="パス 2288" d="M2510.783,1057.525c-.438-3.492-3.274-4.86-6.306-3.144l-20.385,12.128c-3.01,1.837-3.047,4.817-.063,6.69,0,0,19.242,10.746,21.8,12.047,2.8,1.425,5.434,1.075,5.775-1.876C2512.216,1078.052,2510.783,1057.525,2510.783,1057.525Z" transform="translate(-2481.811 -1053.643)" fill="#f882bf"/>
          <path id="パス_2289" data-name="パス 2289" d="M2504.99,1061.608a1.559,1.559,0,0,1,2.588,1.29s.442,11.626.352,13.23c-.075,1.319-.953,2.067-2.26,1.289l-10.355-6.685a1.571,1.571,0,0,1-.054-2.9Z" transform="translate(-2483.062 -1054.401)" fill="#fdcc8a"/>
        </g>
        <g id="グループ_1714" data-name="グループ 1714" transform="translate(16.405 11.064)">
          <path id="パス_2290" data-name="パス 2290" d="M2411.411,1057.525c.438-3.492,3.273-4.86,6.306-3.144l20.386,12.128c3.01,1.837,3.046,4.817.063,6.69,0,0-19.242,10.746-21.8,12.047-2.8,1.425-5.435,1.075-5.775-1.876C2409.978,1078.052,2411.411,1057.525,2411.411,1057.525Z" transform="translate(-2410.44 -1053.643)" fill="#f882bf"/>
          <path id="パス_2291" data-name="パス 2291" d="M2419.017,1061.608a1.559,1.559,0,0,0-2.589,1.29s-.442,11.626-.352,13.23c.075,1.319.953,2.067,2.26,1.289l10.355-6.685a1.571,1.571,0,0,0,.053-2.9Z" transform="translate(-2411.002 -1054.401)" fill="#fdcc8a"/>
        </g>
        <g id="グループ_1715" data-name="グループ 1715" transform="translate(9.41 51.216)">
          <path id="パス_2292" data-name="パス 2292" d="M2414.768,1104.112c-5.724-.624-7.567-5.8-7.849-5.857s-.868,7.023,6.519,9.2C2419.681,1108.412,2419.535,1103.463,2414.768,1104.112Z" transform="translate(-2403.078 -1098.255)"/>
          <path id="パス_2293" data-name="パス 2293" d="M2412.134,1111.28c-4.593,1.839-9.2-2.315-9.446-2.138s1.668,6.5,9.446,5.478C2418.518,1113.729,2416.034,1108.465,2412.134,1111.28Z" transform="translate(-2402.667 -1099.343)"/>
        </g>
        <g id="グループ_1716" data-name="グループ 1716" transform="translate(102.427 51.216)">
          <path id="パス_2294" data-name="パス 2294" d="M2509.492,1104.112c5.725-.624,7.567-5.8,7.849-5.857s.869,7.023-6.518,9.2C2504.58,1108.412,2504.725,1103.463,2509.492,1104.112Z" transform="translate(-2506.017 -1098.255)"/>
          <path id="パス_2295" data-name="パス 2295" d="M2511.916,1111.28c4.593,1.839,9.2-2.315,9.445-2.138s-1.667,6.5-9.445,5.478C2505.531,1113.729,2508.014,1108.465,2511.916,1111.28Z" transform="translate(-2506.216 -1099.343)"/>
        </g>
        <path id="パス_2296" data-name="パス 2296" d="M2479.379,1090.971c-8.865,0-17.528,7.24-21.7,15.224-4.163-7.984-12.81-15.224-21.7-15.224-13.275,0-24.066,10.943-24.066,23.454,0,19.09,11.709,26.105,24.984,26.105h41.563c13.3,0,24.982-7.015,24.982-26.105C2503.443,1101.914,2492.677,1090.971,2479.379,1090.971Z" transform="translate(-2394.182 -1046.311)"/>
        <path id="パス_2297" data-name="パス 2297" d="M2478.251,1090.944c-8.69,0-16.283,5.573-20.373,13.707-4.082-8.134-11.658-13.707-20.37-13.707-13.015,0-23.592,12.346-23.592,27.491,0,19.446,10.579,27.492,23.592,27.492h40.743c13.035,0,23.589-8.046,23.589-27.492C2501.84,1103.29,2491.287,1090.944,2478.251,1090.944Z" transform="translate(-2394.382 -1046.308)" fill="#fff"/>
        <g id="グループ_1721" data-name="グループ 1721" transform="translate(36.699 71.446)">
          <g id="グループ_1718" data-name="グループ 1718">
            <g id="グループ_1717" data-name="グループ 1717" clip-path="url(#clip-path-4)">
              <path id="パス_2298" data-name="パス 2298" d="M2439.414,1139.431c-3.663,0-6.426-4.039-6.426-9.291,0-5.37,2.763-9.408,6.426-9.408s6.44,4.038,6.44,9.408C2445.854,1135.392,2443.078,1139.431,2439.414,1139.431Z" transform="translate(-2432.988 -1120.732)" fill="#005723"/>
              <path id="パス_2299" data-name="パス 2299" d="M2446.045,1126.124a8.908,8.908,0,1,1-8.9-8.466A8.718,8.718,0,0,1,2446.045,1126.124Z" transform="translate(-2432.515 -1120.425)"/>
            </g>
          </g>
          <g id="グループ_1720" data-name="グループ 1720" transform="translate(40.741)">
            <g id="グループ_1719" data-name="グループ 1719" clip-path="url(#clip-path-5)">
              <path id="パス_2301" data-name="パス 2301" d="M2484.683,1139.431c-3.664,0-6.428-4.039-6.428-9.291,0-5.37,2.764-9.408,6.428-9.408s6.439,4.038,6.439,9.408C2491.122,1135.392,2488.345,1139.431,2484.683,1139.431Z" transform="translate(-2478.255 -1120.732)" fill="#005723"/>
              <path id="パス_2302" data-name="パス 2302" d="M2491.313,1126.123a8.907,8.907,0,1,1-8.9-8.467A8.715,8.715,0,0,1,2491.313,1126.123Z" transform="translate(-2477.781 -1120.425)"/>
            </g>
          </g>
        </g>
        <path id="パス_2304" data-name="パス 2304" d="M2458.2,1168.477c32.2,0,44.8-13.691,40.874-20.569-1.693-2.964-5.761-2.608-10.086-.8a38.842,38.842,0,0,1-6.387,1.587,59.669,59.669,0,0,1-8.807.694c-2.947-2.056-8.53-4.261-15.66-4.261s-12.714,2.205-15.66,4.261a59.68,59.68,0,0,1-8.807-.694,38.811,38.811,0,0,1-6.387-1.587c-4.325-1.807-8.393-2.163-10.086.8C2413.263,1154.786,2426,1168.477,2458.2,1168.477Z" transform="translate(-2394.641 -1051.725)" fill="#fdcc8a"/>
        <path id="パス_2305" data-name="パス 2305" d="M2458.883,1051.056c-8.916-12.451-30.295-13.886-38.283,1.361,6.818.41,15.019,2.8,20.194,8.278-16.968-7.939-30.633,9.553-24.879,22.772,3.545-3.533,14.056-8.982,19.955-7.722-11.878,2.252-11.762,20.422-3.833,26.583,2.921-6.444,12.316-17.636,25.9-15.252C2465.875,1074.386,2466.851,1062.182,2458.883,1051.056Z" transform="translate(-2394.448 -1041.35)" fill="#f882bf"/>
        <g id="グループ_1723" data-name="グループ 1723" transform="translate(0 6.131)">
          <g id="グループ_1722" data-name="グループ 1722" clip-path="url(#clip-path-6)">
            <path id="パス_2306" data-name="パス 2306" d="M2439.213,1041.2a24.192,24.192,0,0,1,19.52,9.706,27.267,27.267,0,0,1,4.819,22.577.66.66,0,0,0,.456.88c.675.155.876-.616.9-.708a28.559,28.559,0,0,0-5.074-23.536,25.605,25.605,0,0,0-20.618-10.269h0c-8.759,0-16.034,4.3-19.96,11.79a1.35,1.35,0,0,0,1.115,1.974,33.7,33.7,0,0,1,13.684,3.682q-.936-.093-1.868-.093a19.516,19.516,0,0,0-17.658,26.653,1.351,1.351,0,0,0,.986.787,1.408,1.408,0,0,0,.253.023,1.347,1.347,0,0,0,.952-.394c2.276-2.268,7.631-5.358,12.5-6.762a14.244,14.244,0,0,0-3.729,6.9c-1.68,6.963.714,15.057,5.565,18.829a1.35,1.35,0,0,0,.829.283,1.374,1.374,0,0,0,.324-.04,1.35,1.35,0,0,0,.906-.752c2.318-5.116,9.685-14.788,20.966-14.788,0,0,.87.055.87-.63,0-.742-.87-.72-.87-.72-11.583,0-19.548,9.741-22.2,15.58-7.928-6.161-8.045-24.331,3.833-26.583a9.126,9.126,0,0,0-1.906-.184c-6.034,0-14.861,4.729-18.05,7.906-4.755-10.923,3.749-24.762,16.42-24.762a19.9,19.9,0,0,1,8.459,1.991c-5.175-5.476-13.375-7.868-20.194-8.277,3.989-7.614,11.315-11.067,18.763-11.067" transform="translate(-2394.298 -1047.331)" fill="#fbb4d9"/>
          </g>
        </g>
        <path id="パス_2308" data-name="パス 2308" d="M2461.9,1162.18c-6.562,0-7.746-3.918-7.793-4.084a1.35,1.35,0,0,1,2.6-.735c.02.052.793,2.12,5.195,2.12s5.155-2.061,5.185-2.149a1.366,1.366,0,0,1,1.684-.871,1.331,1.331,0,0,1,.908,1.629C2469.626,1158.255,2468.464,1162.18,2461.9,1162.18Z" transform="translate(-2398.395 -1052.85)" fill="#654838"/>
        <path id="パス_2309" data-name="パス 2309" d="M2466,1149.573c0,1.368-1.624,2.516-3.637,2.516s-3.63-1.148-3.63-2.516c0-1.441,1.631-2.587,3.63-2.587S2466,1148.132,2466,1149.573Z" transform="translate(-2398.863 -1051.911)"/>
      </g>
    </g>
  </g>
</svg>
