<svg xmlns="http://www.w3.org/2000/svg" width="600" height="240"><defs><style>.cls-1{fill:#ff5064}</style></defs><g id="レイヤー_2" data-name="レイヤー 2"><g id="レイヤー_1-2" data-name="レイヤー 1"><path class="cls-1" d="M595 0H96v57.6L72 30.32 48 60.63V0H5C2.25 0 0 2.84 0 6.32v227.36c0 3.48 2.25 6.32 5 6.32h590c2.75 0 5-2.84 5-6.32V6.32c0-3.48-2.25-6.32-5-6.32z"/><path d="M221.27 129.72v6.86h-45.51v-6.86zm29.14-18.49h14.91v11.39c0 .7.21 1 1 1 1.21 0 1.61-1 1.92-4.69 2.16 1.51 2.87 1.91 4.94 2.27-1 6.75-2.17 7.51-5.3 7.51h-4a3.64 3.64 0 01-4-3.93v-8.32h-3.78c-.55 6.65-2.52 11.19-5.79 14a13.18 13.18 0 00-4.49-2.57v2c.71-.11 1.11-.11 1.91-.21a27.78 27.78 0 00-.45 4.79l-1.46.15v17.08c0 4-2.52 4.48-8.37 4.53a19.27 19.27 0 00-1.86-5.79 16.15 16.15 0 003.48.4c1.71 0 1.71-.6 1.71-2.12v-13.5c-.3 0-1.61.15-1.86.2v12.3h-4.09v-11.9l-1.46.15c0 7.82-1.81 16-3.73 20.21a9.39 9.39 0 00-5.19-2.52c2.72-4.83 3.73-11.84 3.93-17.18l-1.21.15c-.25.55-.5 1-1 1-.25 0-.5-.31-.55-.61l-1-5.74c.86 0 1.21 0 3.53-.1v-16.37h4.84a38.73 38.73 0 001.76-5.3l6.3.66c.3 0 .61.25.61.55 0 .51-.71.76-1.31 1-.2.45-1.06 2.62-1.21 3.08h6.6v12.34a12.83 12.83 0 004.59-10.38zm-17 19.65c4.13-.25 4.59-.3 7.41-.5V120h-7.41zm4.69-9.72a56.45 56.45 0 011.91 7.2 35 35 0 00-4.43 1 32.3 32.3 0 00-2-7.26zm10.38 15.57v-5.54h19.3l2.17 2.31a35.91 35.91 0 01-7.16 13A27.43 27.43 0 00272 151a28.69 28.69 0 00-3.18 5.09 46.33 46.33 0 01-9.93-5.74 27.8 27.8 0 01-9.37 5.59 16 16 0 00-3.58-5.29c1.31-.25 4.39-.91 8.62-4.28a29.6 29.6 0 01-5-7.21l3.48-2.42zm6.2 0a20.78 20.78 0 003.83 5.85 20.49 20.49 0 003.58-5.85zm43.76-15.62a38.14 38.14 0 01-.1-4H287.4V111h17.69c0 1.15-.2 6.24-.2 7.3 0 5.09 0 21.68 19.2 33.62a17.51 17.51 0 00-5.49 4.64c-8.47-5.8-17-16.23-19.15-26.87-1.67 6.2-5.85 17.24-19.51 26.92a18.74 18.74 0 00-5.14-4.74c16.13-10.53 18.7-22.78 19.86-31.5zm50.2 20.26a45.1 45.1 0 01-6.66 6.55 10.58 10.58 0 00-4.08-3 36.61 36.61 0 004.34-3.52c-6.36 2.72-12.05 4.58-12.86 4.89-.1.65-.15 1.31-.8 1.31s-.61-.66-.76-1.16l-1.51-5.9a41.72 41.72 0 006.15-1.36V126.6h-5.65v-5.54h5.65v-10.79l6.2.35c.6 0 1.11 0 1.11.61 0 .35-.26.6-1.11.9v8.93h5.19v5.54h-5.19v10.63a36.17 36.17 0 005.49-2.31 15.31 15.31 0 00-.5 5 34.53 34.53 0 003.78-5.19h-5.14v-4.38h30.44v4.38h-19.66a18.17 18.17 0 01-1.06 1.87h20c-.05 2.92-.1 12.85-2.62 16.93-1.36 2.22-4.54 2.62-6.9 2.62-.66 0-1.11 0-1.87-.1a18.22 18.22 0 00-1.81-5.54 40.65 40.65 0 01-6.2 6.25c-1-1.11-1.72-1.56-4.49-2.87a36.93 36.93 0 0011.14-12.5h-2.16a45.33 45.33 0 01-5.69 7.25 30.12 30.12 0 01-8.67 6.61 12 12 0 00-3.83-3.48 30.73 30.73 0 0012.2-10.38zm20.06-12.75H346v-17.49h22.7zM363.15 118v-2.32H352V118zM352 121.76v2.47h11.19v-2.47zm12.4 19.61a47.84 47.84 0 01-5.24 8.67 29.14 29.14 0 003.33.3c1.36 0 2-.3 2.47-1.92a28 28 0 001.1-7zm58.73-13.81v5.49h-7.71a27.55 27.55 0 008.82 5 17.86 17.86 0 00-3.73 4.74 25 25 0 01-6.3-3.58c-.1 1.81-.46 11.14-2.42 14-1.72 2.47-5 2.62-9.48 2.77a9.81 9.81 0 00-1.91-6c.7.06 2.22.26 3.37.26 2.52 0 3.94 0 4.29-7.92h-6.86c-3.83 10.23-12.6 13.26-18.54 14a12 12 0 00-2.93-5.35c4.94-.6 11.39-1.46 15.12-8.62h-7.51v-2.95a33.37 33.37 0 01-7.1 4 16.7 16.7 0 00-4.34-4.48 25 25 0 0010.23-5.85h-8.87v-5.49h13.51c.61-1 1.16-2 1.71-3H381v-5.44h6.46a37.08 37.08 0 00-5-6.65l5.29-2.57a30.14 30.14 0 015.69 7.3 27.67 27.67 0 00-3.93 1.92h5a38 38 0 001.71-9.27l6.66.55c.25 0 .75 0 .75.55s-.5.71-1.26 1a67.45 67.45 0 01-1.51 7.21h7.66a30.23 30.23 0 00-3.48-1.51 27.49 27.49 0 004.64-7.87l6.1 2.27a.7.7 0 01.55.66c0 .55-.65.6-1.36.7a50.61 50.61 0 01-3.52 5.75h8.16v5.44h-11.4a22.87 22.87 0 002 3zm-11.85 9.37a31.75 31.75 0 01-3.93-3.88H393.9a31.32 31.32 0 01-3.58 3.88zm-7.61-9.37a30.17 30.17 0 01-1.51-3H399c-.26.56-.56 1.26-1.47 3zM168.29 37.29a10.42 10.42 0 01-.62 3.53 9.49 9.49 0 01-2 3.21 9.94 9.94 0 01-3.74 2.42 15.23 15.23 0 01-5.54.92H150v12.19h-9.8V27.08h16.22a15 15 0 015.54.93 10.09 10.09 0 013.74 2.44 9.59 9.59 0 012 3.26 10.79 10.79 0 01.59 3.58zm-10 .05a3.42 3.42 0 00-1.37-3.17c-.91-.57-2.55-.86-4.91-.86H150v7.83h2.11a17.16 17.16 0 003.75-.31 3.06 3.06 0 001.9-1.12 4.07 4.07 0 00.54-2.37zM205.17 45a15 15 0 01-1.56 7.11 12.44 12.44 0 01-4.13 4.65 17.71 17.71 0 01-5.48 2.47 24 24 0 01-6 .77 23.69 23.69 0 01-8-1.4 14.31 14.31 0 01-6.53-4.79 13.88 13.88 0 01-2.61-8.81V27.08h9.77v15.39a13.31 13.31 0 00.92 5.31 6.4 6.4 0 002.58 3.07 8.19 8.19 0 007.73 0 6.46 6.46 0 002.59-3 13.26 13.26 0 00.92-5.3V27.08h9.8zm34.96 5.35a8.45 8.45 0 01-2.87 6.7c-1.92 1.67-4.59 2.51-8 2.51h-18.8V27.08h15.7a21.4 21.4 0 015.31.58 10.51 10.51 0 013.64 1.61 6.59 6.59 0 012.06 2.4 6.66 6.66 0 01.68 3 7.72 7.72 0 01-.7 3.3 8.09 8.09 0 01-1.74 2.48 6.45 6.45 0 01-2.1 1.37 12.78 12.78 0 015.07 3.32 7.57 7.57 0 011.75 5.21zm-11.44-13.92a3.16 3.16 0 00-1.55-3.12 11.27 11.27 0 00-4.82-.77h-2.07v7.78h2.11a11 11 0 004.84-.78c.99-.54 1.49-1.54 1.49-3.11zM230.28 50q0-4.17-6-4.17h-4v8.27h4q6.01 0 6-4.1zm38.41 9.56H244V27.08h9.8v24.7h14.88zm13.14 0H272V27.08h9.8zm34.89-2.44a22.85 22.85 0 01-4.13 1.69 26.15 26.15 0 01-4.25.9 35.54 35.54 0 01-4.44.27 23.08 23.08 0 01-7.61-1.17 16.28 16.28 0 01-5.83-3.46 14.59 14.59 0 01-3.71-5.35 17.86 17.86 0 01-1.23-6.72A17.51 17.51 0 01287 36a14.25 14.25 0 014-5.29 17.38 17.38 0 016-3.08 24.37 24.37 0 017.05-1 38.47 38.47 0 0112.54 2.46v8.63a34.24 34.24 0 00-4.77-2.5 14.25 14.25 0 00-5.55-1 12.56 12.56 0 00-5.27 1.13 9.79 9.79 0 00-4 3.21 8.56 8.56 0 00-.19 9.39 9.38 9.38 0 003.64 3.26 11.35 11.35 0 005.26 1.2 17.13 17.13 0 004.48-.57 19.93 19.93 0 003.55-1.28 32.39 32.39 0 003-1.66zm49.43-13.22a15.39 15.39 0 01-1.82 8 17.1 17.1 0 01-4.27 4.9q-3.49 2.74-9.78 2.74h-17.53V27.08h13.5a37.15 37.15 0 015.22.31 23.39 23.39 0 013.9.89 16.15 16.15 0 012.95 1.29 16.14 16.14 0 015.1 4.75 15.42 15.42 0 012 4.29 17.9 17.9 0 01.73 5.29zm-10-.42a10.8 10.8 0 00-1.51-6.17 7.42 7.42 0 00-3.63-3 12.94 12.94 0 00-4.33-.75h-4.17v19.27h4.17a12 12 0 006.7-1.83q2.81-1.82 2.81-7.52zm49.32 16.08h-10L392.79 53h-14.11L376 59.56h-10l14.37-32.48h10.83zm-14.93-12.23l-4.76-11.86L381 47.33zm48.53-20.25l-12.73 17.6v14.88h-9.79V44.87l-13-17.79h10.17l7.45 10.21 7.48-10.21zm24.67 23.04a9 9 0 01-1.56 5.27 9.9 9.9 0 01-4.35 3.41 16.22 16.22 0 01-6.39 1.2c-.68 0-1.5 0-2.48-.13a27.24 27.24 0 01-3.89-.71A30.34 30.34 0 01440 57.4v-8a37.59 37.59 0 004.86 2.6 13 13 0 005.1 1c1.67 0 2.75-.27 3.25-.83a2.41 2.41 0 00.73-1.56 2.65 2.65 0 00-1.26-2.21 18.22 18.22 0 00-3.68-1.89 29.26 29.26 0 01-4.69-2.45 11.19 11.19 0 01-3.31-3.32 8.56 8.56 0 01-1.26-4.74 8.6 8.6 0 015.26-8.1 14.81 14.81 0 016.47-1.27 22.61 22.61 0 015 .53 21.44 21.44 0 013.81 1.18 15.13 15.13 0 012.06 1V37a26.3 26.3 0 00-4.44-2.55 12.4 12.4 0 00-5.24-1.13A4 4 0 00450 34a2.2 2.2 0 00-.82 1.74 2.11 2.11 0 00.82 1.66 14 14 0 002.93 1.71 57.54 57.54 0 016 3.17 11.77 11.77 0 013.52 3.24 7.89 7.89 0 011.29 4.6zM60 84h480v2.4H60zm-10 96.11h500v45.77H50z" fill="#fff"/><path class="cls-1" d="M141.45 200.39v3.53h-19v-3.53zm10.37 8.53a7.54 7.54 0 003.18-1.52 12.29 12.29 0 01-1.81-2.54l1.37-1h-1.77v-2.79H161l1 1.09a16.55 16.55 0 01-2.9 5.25 9.71 9.71 0 003.59 1.65 14.56 14.56 0 00-1.51 2.52 18.93 18.93 0 01-4-2.26 11.23 11.23 0 01-3.76 2.16 7.43 7.43 0 00-1.6-2.46v.67c0 1.75-1.19 1.89-3.65 1.91a10 10 0 00-.95-2.83 5.52 5.52 0 001.45.21c.72 0 .72-.27.72-.88v-5.08a5 5 0 01-.57.06v5h-1.74v-4.83h-.42a25.87 25.87 0 01-1.45 8.11 4.38 4.38 0 00-2.52-1.22 20.29 20.29 0 001.51-6.62.59.59 0 01-.23 0c-.15.27-.27.44-.44.44a.25.25 0 01-.21-.21l-.48-2.82h1.3v-6.63h2c.15-.35.49-1.22.76-2.1l3.11.3a.22.22 0 01.21.19c0 .18-.38.42-.53.46-.15.31-.36.84-.5 1.15h2.66v4.85a5 5 0 001.6-4v-2.3H160v4.57c0 .23 0 .4.23.4.38 0 .51-1.2.57-1.85a5.38 5.38 0 002.41 1.1c-.4 2.7-.71 3.23-2.16 3.23h-2.15a1.57 1.57 0 01-1.68-1.72v-3.08h-1a8.41 8.41 0 01-2.31 5.42 5.33 5.33 0 00-2.1-1.26v.86c.28-.05.63-.07.76-.09 0 .44-.08 1.79-.11 2.31h-.65zm-5.16-11.43l2-.37c.21.65.63 2.28.72 2.83v-3.11h-2.73zm0 3.4c.69 0 2-.12 2.73-.18v-.63a12.58 12.58 0 00-2.12.42 14.57 14.57 0 00-.61-2.57zm9.26 3a7.39 7.39 0 001.05 1.63 7.19 7.19 0 001-1.63zm16.59-8.73a.36.36 0 01.17.28c0 .16-.15.21-.26.25s-.27.06-.37.1a21.27 21.27 0 01-5.74 7.46 6.87 6.87 0 00-2.58-2.14 15.7 15.7 0 005.82-7.42zm4.66 6.81a48.7 48.7 0 015.48 8 7.84 7.84 0 00-2.94 1.72c-.36-.8-.57-1.26-.9-1.85-4.66.67-9.53 1-11.7 1.2 0 .14-.06.56-.38.56s-.29-.14-.35-.46l-.72-3.06c1 0 1.52 0 2.27-.07a69 69 0 003.89-9.68l3.23 1.1c.1 0 .29.1.29.31s-.42.32-.63.34c-.42 1.05-1.8 4.57-3.46 7.74.52 0 3.82-.29 6-.56a42.65 42.65 0 00-2.6-3.57zm1.6-9c.58 3.76 2.37 5.65 5.48 7.81a5.59 5.59 0 00-2.17 2.25 14.86 14.86 0 01-5.94-7.35H173V193zm19.76 13.66v4.51h-2.67v-4.51h-1.55a7.89 7.89 0 01-3.22 5 6 6 0 00-2.35-1.55v1.51h-3v-18.74h8.8v7.31h-5.8V210a5 5 0 002.9-3.38h-2.16v-2.32h2.43v-1.24H190v-2.21h10.19v2.21h-1.66v1.24h2.1v2.33zm-6.81-11.7h-3v.78h3zm0 2.37h-3v.8h3zm4.14 5.76h-1.3v1.24h1.34zm4.49 8.56a7.37 7.37 0 00-1.11-3.06 6.83 6.83 0 001.22.17c.4 0 .84 0 .84-.74v-7.83h-5.84v-7.31h8.84v16.34c0 1.95-1.2 2.45-3.95 2.43zm1-16.69h-3v.78h3zm0 2.37h-3v.8h3zm14.92 10.75a6.7 6.7 0 005.9-6.55 5 5 0 00-4.85-5.14c-.65 7.68-3.82 13.42-6 13.42-1.64 0-4.69-2.78-4.69-6.66a10.31 10.31 0 0110.29-9.78c4.6 0 8.61 3.12 8.61 8.14A9.74 9.74 0 01223 208a11.68 11.68 0 01-4.55 3.05 14 14 0 00-2.18-3zm-6.57-5.18c0 1.62.9 2.83 1.34 2.83s.91-.94 1.14-1.49a18.56 18.56 0 001.62-7.21 7.13 7.13 0 00-4.1 5.87zm26.73-5.78v-1.38h-4.6v-3.09h8c0 .55-.14 3-.14 3.45a15.37 15.37 0 007.7 13.47 8.54 8.54 0 00-2.75 2.29c-2.6-1.8-6.4-5.75-7.6-10.58a19 19 0 01-7.94 10.61 9.07 9.07 0 00-2.58-2.36c6.45-4.13 7.56-8.58 8.13-12.74zm20.94 8.72a15 15 0 01-2.48 2.54 5.32 5.32 0 00-2-1.41c.38-.29.69-.52 1.17-.94-1.3.56-2.89 1.17-4.59 1.74 0 .25-.09.54-.32.54s-.29-.27-.33-.48l-.72-3a15.51 15.51 0 002.37-.44v-4.77h-2.16v-2.72h2.16v-4.37l3.11.17c.25 0 .44 0 .44.23s-.12.25-.44.4v3.57h1.87v2.72h-1.87v3.83c.51-.21.82-.34 1.32-.57h-.14v-2.12h12.72v2.12h-8.12l-.4.67h8.37c0 2.12-.06 6.32-1.42 7.39a5.9 5.9 0 01-3.47.69 6 6 0 00-.57-2.26 15.92 15.92 0 01-2.49 2.62 5.42 5.42 0 00-2.23-1.34 14.68 14.68 0 004.43-4.85h-.94a14.61 14.61 0 01-5.53 5.56 5.55 5.55 0 00-1.84-1.68 12.77 12.77 0 004.89-3.88zm-1.91-2.92a9 9 0 00-.15 1.87 13.68 13.68 0 001.28-1.87zm10.54-2.81h-9.8v-7.39h9.8zm-2.83-4.5v-.71h-4.14v.71zm-4.14 1.68v.74h4.14v-.72zm5 8.55a24.23 24.23 0 01-1.66 2.92h.73c.42 0 .8 0 .95-.53a11 11 0 00.37-2.43zm24.48-6.2v2.65h-2.37a8.86 8.86 0 002.92 1.57 8.68 8.68 0 00-1.75 2.25 8.94 8.94 0 01-2.31-1.28c-.06 1.57-.25 5.08-1.17 5.9s-2.58.82-3.89.8a4.42 4.42 0 00-.84-2.9c.7.06 1.1.1 1.37.1.84 0 1.45 0 1.53-2.58h-2.24a9.5 9.5 0 01-8 5.55 5.74 5.74 0 00-1.4-2.63c2.54-.17 4.76-.73 6.15-2.92h-2.84v-1.24a12.1 12.1 0 01-2.81 1.56 8.36 8.36 0 00-2-2.21 13.42 13.42 0 003.73-2h-3.08v-2.65h5.39a8.26 8.26 0 00.51-1H271v-2.52h1.78a9.71 9.71 0 00-1.93-2.4l2.69-1.34a13.37 13.37 0 012.43 2.94 14 14 0 00-1.65.8h2a15.3 15.3 0 00.63-3.76l3.3.25c.1 0 .31 0 .31.25s-.23.28-.54.4c-.13.8-.28 1.66-.57 2.86h3.19c-.52-.23-1.15-.46-1.64-.63a10.79 10.79 0 001.7-3.19l3.05 1.15c.06 0 .23.13.23.25s-.17.26-.59.3a22.84 22.84 0 01-1.26 2.12h3v2.52h-4.2a6.94 6.94 0 00.63 1zm-5.19 3.87a16.29 16.29 0 01-1.21-1.22h-5.71c-.44.52-.76.88-1.1 1.22zm-3-3.87a10.11 10.11 0 01-.46-1h-1.32c-.11.25-.21.5-.46 1zm16.3-4.49a21.28 21.28 0 012.33 2.25 5.39 5.39 0 00-1.51 1.38h4.37v-.69H299v-1.72h2.84v-.69h-4.1v-2h4.1v-1.34l3.12.19c.19 0 .4 0 .4.27s-.19.31-.4.42v.46h4.54v2h-4.54v.69h3.34v1.72h-3.34v.69h5v2h-12.9v-1.62a9.77 9.77 0 00-.88-1.16v13.63h-3.07V197a.73.73 0 01-.33.08 26.53 26.53 0 01-.86 5.13 8.22 8.22 0 00-2.36-1 18.05 18.05 0 00.87-5.1l2.41.31a1.31 1.31 0 01.27.06v-4.07l3.26.17c.12 0 .35.06.35.27s-.25.38-.54.51v2.16zm4.62 13.27v3.17h-3.09v-10.1H309v7.83c0 1.51 0 2.52-3.87 2.4A7.08 7.08 0 00304 209c.67.1 1.3.15 1.43.15.46 0 .46-.11.46-.78zm4.68-4.2v-.88h-4.68v.88zm0 2.54v-.88h-4.68v.88zm11.72-1.24h2.88V208h-2.88v3.72h-2.81V208h-2.9v-2.48h2.9v-1h-3.19V202h1.21a7.55 7.55 0 00-.59-1.56l1.64-.46h-2.68v-2.46h3.61v-1h-2.59v-2.32h2.59v-1.75l3 .15c.14 0 .29.09.29.23s-.21.34-.44.49v.88h2.71v2.35h-2.71v1h3.21V200h-2.41l1.4.3c.19 0 .38.08.38.29s-.16.29-.54.31c-.19.51-.38 1-.46 1.12h1.49v2.48h-3.07zM315 200a14.51 14.51 0 01.71 1.79l-.71.21h1.58a11.38 11.38 0 00.67-2zm9.28 11.7h-2.94v-18.85H330a42.31 42.31 0 01-.13 5.36c-.25 1.38-1.53 1.78-3.8 1.8a6.17 6.17 0 00-1.11-2.89 4.94 4.94 0 001.32.14c.71 0 .8-.14.8-.94v-.82h-2.78v5h4.93l1.41 1.48a27.26 27.26 0 01-2 5.62 12.39 12.39 0 002.48 2.33 10.48 10.48 0 00-2.33 1.89 20.18 20.18 0 01-1.68-1.72 8.39 8.39 0 01-1.26 1.51 8.69 8.69 0 00-1.51-1.22zm1.8-8.51a9.9 9.9 0 00.65 1.91 10.16 10.16 0 00.63-2h-3.06v1.24zm-1.8 6a14 14 0 001.05-1.45 11.07 11.07 0 01-1.05-2.31zm13.52-15.14c.17.06.27.15.27.29s-.4.3-.59.32a28.94 28.94 0 00-1.26 8.08 15.15 15.15 0 00.15 2.1c.27-.4.72-1.07 1-1.49a8.73 8.73 0 001.51 2.08 9.34 9.34 0 00-1.74 5.14l-2.82.53a29.85 29.85 0 01-1.13-8.46 37.84 37.84 0 011.26-9.62zm10-.46c.11 0 .28 0 .28.23s-.3.31-.49.34c-.06.46-.14 1-.21 2.51a18.76 18.76 0 003.11-.77v3.17c-.48.12-1.45.36-3.19.67a33.11 33.11 0 00.34 4.83 11.83 11.83 0 014 2.16c-.33.61-1 2-1.42 3a7.42 7.42 0 00-2.25-1.59c-.08 2.68-2.77 3-4.09 3-3.15 0-4.73-1.72-4.73-3.68 0-2.49 2.48-3.44 5.21-3.38-.17-2.39-.19-2.66-.23-3.88-1.2.11-2.06.11-2.42.11-.67 0-1.11 0-1.55-.07v-3.29a22.35 22.35 0 003.95.14V193zm-4.34 13c-.46 0-1.47.14-1.47.79s.69.78 1.36.78c.17 0 1.43 0 1.43-1a.59.59 0 000-.27 2.9 2.9 0 00-1.35-.28zm16.73-3.11a5.45 5.45 0 00-1.89 2.64.79.79 0 00.42.67 13.39 13.39 0 004.17.47 27.94 27.94 0 008.11-1 23.32 23.32 0 00.61 3.48 44 44 0 01-8.9.84c-4.81 0-7.9-.88-7.9-4.07 0-1.81 1.47-3.4 3.13-4.81zm10-7.33a20.3 20.3 0 00-6.61 4.16l-1.87-2.1a8.64 8.64 0 001.49-1.26c-.52 0-1.83.12-3.74.12a27.22 27.22 0 01-2.83-.12l-.17-3.47a36.83 36.83 0 006.34.47 27 27 0 005.69-.47zm14.33-3.09c.17.05.4.13.4.34s-.1.27-.46.29c-.46 1.43-.5 1.58-.61 1.89a31.71 31.71 0 006.85-1.66c.1.7.37 2.29.59 3.13a36.58 36.58 0 01-8.59 1.79c-.51 1.38-.67 1.8-1.09 2.83a12.39 12.39 0 015.45-1.43c5.61 0 5.91 3.95 5.91 5a5.18 5.18 0 01-2.25 4.24c-1.11.76-3.21 2-9 2a16.85 16.85 0 01-1.95-.11 14.94 14.94 0 00-.78-3.13 28.94 28.94 0 003.13.19c.48 0 4.07 0 6.23-1.28a2.12 2.12 0 001.14-2c0-1.22-.63-2.25-2.56-2.25a10.79 10.79 0 00-7.27 3.51l-3-1.51a29.75 29.75 0 002.79-5.9c-1.83 0-3.27-.07-4.07-.13v-3.44a19.55 19.55 0 005.08.46 27.83 27.83 0 00.79-3.72zm18.8 4.12c.15 0 .32.08.32.27s-.26.27-.49.3a14 14 0 00-1.38 3.63 11.62 11.62 0 016.13-1.95 5.08 5.08 0 015.37 5.16c0 4-3.78 6.76-10.73 6.76h-1.53a11.77 11.77 0 00-1-3.53 11.74 11.74 0 003.11.32c4.77 0 6.66-1.79 6.66-3.55 0-.61-.3-2.14-2.46-2.14-3 0-5.19 1.93-6.7 3.44l-3-1.09a50.41 50.41 0 012.2-8.69zm-1.16-4.91a20.66 20.66 0 017.06 2.33 26.26 26.26 0 00-1.89 3.06 18.72 18.72 0 00-6.26-2.58zm24.32 1.28c.23.06.42.12.42.31s-.44.34-.56.34c-.32 1.42-.45 2-.59 2.52 1.8 0 4.81.06 4.81 5.14a14.16 14.16 0 01-2.1 7.77 3.62 3.62 0 01-3.11 1.47 11.1 11.1 0 01-2.23-.23 6.39 6.39 0 00.07-.78 16.6 16.6 0 00-.32-2.81 3.52 3.52 0 001.83.46 1.58 1.58 0 001.24-.4c.71-.63 1.38-3 1.38-5.58 0-2.17-1.51-2-2.41-2a31.62 31.62 0 01-5.34 11.09 14.58 14.58 0 00-3.08-1.66 25 25 0 005-8.8 23 23 0 00-3.33 1.07L417 198.1c.86-.17 4.6-.94 5.38-1.07a33.06 33.06 0 00.65-4.6zm5.67 1.09c2.31 2.58 3.78 6.09 3.78 7.75a2.14 2.14 0 01-1.49 2.22 8 8 0 01-2.1.65 16.11 16.11 0 00-1.22-2.81c.57-.13 1.35-.3 1.35-1a8.29 8.29 0 00-1.1-2.87 14.66 14.66 0 00-1.78-2.33zm13.17 2.54c.15 0 .32.08.32.27s-.26.27-.49.3a14 14 0 00-1.38 3.63 11.62 11.62 0 016.13-1.95 5.08 5.08 0 015.37 5.16c0 4-3.78 6.76-10.73 6.76h-1.53a11.77 11.77 0 00-1-3.53 11.74 11.74 0 003.11.32c4.77 0 6.66-1.79 6.66-3.55 0-.61-.3-2.14-2.46-2.14-3 0-5.19 1.93-6.7 3.44l-3-1.09a50.41 50.41 0 012.2-8.69zm-1.16-4.91a20.66 20.66 0 017.06 2.33 26.26 26.26 0 00-1.89 3.06 18.72 18.72 0 00-6.26-2.58zm25.6 1.26v4.89l-.75 6.17h-2l-.77-6.17v-4.89zm-3.52 13h3.52v3.55h-3.52z"/></g></g></svg>