<?xml version="1.0" encoding="UTF-8"?>
<svg width="11px" height="22px" viewBox="0 0 11 22" version="1.1" xmlns="http://www.w3.org/2000/svg" xmlns:xlink="http://www.w3.org/1999/xlink">
    <!-- Generator: Sketch 46.2 (44496) - http://www.bohemiancoding.com/sketch -->
    <title>Fill 1</title>
    <desc>Created with Sketch.</desc>
    <defs></defs>
    <g id="2018-Homepage" stroke="none" stroke-width="1" fill="none" fill-rule="evenodd">
        <g id="Small---01-Homepage" transform="translate(-155.000000, -2755.000000)" stroke="#FFFFFF" fill="#FFFFFF">
            <g id="Featured-Topic" transform="translate(-61.000000, 2684.000000)">
                <g id="At-CES-2018" transform="translate(158.000000, 0.000000)">
                    <path d="M68.1763654,77.0010004 C68.0622391,77.0078561 67.9641488,77.0848238 67.929723,77.194488 C67.8952944,77.3041523 67.9316599,77.4238365 68.0211637,77.4953917 L72.9617526,81.7281941 L53.3028648,81.7281941 C53.0988069,81.7426355 52.9869375,81.8785238 53.0012188,82.0317651 C53.0155001,82.1850036 53.150527,82.2976073 53.3028648,82.2833157 L72.9617526,82.2833157 L68.0211637,86.5074443 C67.9043416,86.6080045 67.8907473,86.7848219 67.9908076,86.9022551 C68.0908679,87.0196911 68.2666473,87.0332166 68.3833011,86.9324592 L73.9015854,82.2139255 C73.9639696,82.1611834 73.9999902,82.083397 73.9999902,82.0014194 C73.9999902,81.919439 73.9639696,81.8416526 73.9015854,81.7889105 L68.3833011,77.0703906 C68.3267221,77.0196247 68.2518887,76.9945332 68.1763654,77.0010004 Z" id="Fill-1" transform="translate(63.499995, 82.000000) rotate(-270.000000) translate(-63.499995, -82.000000) "></path>
                </g>
            </g>
        </g>
    </g>
</svg>