<?xml version="1.0" encoding="utf-8"?>
<!-- Generator: Adobe Illustrator 23.0.2, SVG Export Plug-In . SVG Version: 6.00 Build 0)  -->
<svg version="1.1" id="レイヤー_1" xmlns="http://www.w3.org/2000/svg" xmlns:xlink="http://www.w3.org/1999/xlink" x="0px"
	 y="0px" width="640px" height="45px" viewBox="0 0 640 45" style="enable-background:new 0 0 640 45;" xml:space="preserve">
<style type="text/css">
	.st0{fill:#FFA000;}
	.st1{fill:url(#SVGID_1_);}
	.st2{fill:#FFFFFF;}
</style>
<g>
	<g>
		<path class="st0" d="M640,40c0,2.75-2.25,5-5,5H5c-2.75,0-5-2.25-5-5V5c0-2.75,2.25-5,5-5h630c2.75,0,5,2.25,5,5V40z"/>
	</g>
	<g>
		<linearGradient id="SVGID_1_" gradientUnits="userSpaceOnUse" x1="320" y1="45" x2="320" y2="-9.094947e-13">
			<stop  offset="0" style="stop-color:#000000;stop-opacity:0.15"/>
			<stop  offset="0.1463" style="stop-color:#000000;stop-opacity:0.128"/>
			<stop  offset="1" style="stop-color:#000000;stop-opacity:0"/>
		</linearGradient>
		<path class="st1" d="M640,40c0,2.75-2.25,5-5,5H5c-2.75,0-5-2.25-5-5V5c0-2.75,2.25-5,5-5h630c2.75,0,5,2.25,5,5V40z"/>
	</g>
	<g>
		<g>
			<path class="st2" d="M216.697,28.24v-5.569l3.625,0.217c0.336,0.023,0.672,0.048,0.672,0.312c0,0.265-0.313,0.336-0.6,0.433
				v9.337h-3.697V31.72h-13.393v1.249h-3.672V22.671l3.552,0.192c0.384,0.024,0.72,0.048,0.72,0.313c0,0.288-0.408,0.384-0.6,0.432
				v4.633h4.824v-6.385h-7.633v-9.673l3.864,0.216c0.144,0,0.48,0.024,0.48,0.313c0,0.216-0.265,0.312-0.576,0.407v5.353h3.864
				v-7.584l3.625,0.264c0.407,0.024,0.719,0.048,0.719,0.313c0,0.191-0.215,0.336-0.623,0.504v6.504h3.816v-6.288l3.96,0.216
				c0.192,0,0.456,0.024,0.456,0.288s-0.313,0.336-0.6,0.432v8.737h-7.633v6.385H216.697z"/>
			<path class="st2" d="M244.418,26.512c0.168,0.12,0.216,0.216,0.216,0.336c0,0.264-0.239,0.288-0.575,0.288
				c-0.529,0.552-0.673,0.672-2.041,1.824c1.152,0.672,2.064,1.008,3.168,1.272c-1.056,1.056-1.512,1.752-1.968,2.808
				c-1.056-0.384-3.528-1.368-6.024-4.08c-0.072,0.36-0.313,1.536-0.288,2.304c-1.896,0.385-6.265,1.225-8.233,1.488
				c-0.096,0.192-0.215,0.385-0.432,0.385c-0.24,0-0.312-0.145-0.359-0.385l-0.696-2.88c0.479-0.048,2.616-0.384,3.048-0.432v-3.433
				h-2.496c-0.145,0.96-0.84,4.608-2.137,6.624c-1.535-0.983-2.424-1.224-3.072-1.368c0.385-0.695,1.273-2.184,1.777-4.896
				c0.287-1.488,0.384-4.057,0.384-5.737v-9.097h19.441v6.049h-15.985v3.696c0,0.24-0.048,1.392-0.096,1.848h2.641v-1.464h-1.969
				v-2.544h1.969v-1.44l3.096,0.168c0.216,0,0.912,0.12,0.912,0.433c0,0.12-0.12,0.359-0.744,0.432v0.408h3.096v-1.44l3.145,0.192
				c0.145,0,0.889,0.096,0.889,0.384c0,0.145-0.192,0.36-0.793,0.456v0.408h3.841v2.544h-3.841v1.464h4.465v2.881h-0.96
				L244.418,26.512z M228.145,13.982v1.057h12.553v-1.057H228.145z M233.617,28.912c0.672-0.12,2.496-0.456,3-0.576
				c-0.504-0.601-1.057-1.344-1.607-2.328h-1.393V28.912z M233.953,23.127h3.096v-1.464h-3.096V23.127z M238.705,26.008
				c0.145,0.216,0.36,0.528,0.961,1.128c0.647-0.504,1.127-0.937,1.32-1.128H238.705z"/>
			<path class="st2" d="M260.809,17.847v-6.84l3.913,0.168c0.12,0,0.288,0.071,0.288,0.239c0,0.217-0.24,0.313-0.48,0.385v6.048
				h3.865v3.48h-3.865V29.2h4.561v3.312h-13.85V29.2h5.568v-7.873h-3.959v-2.952c-0.769,1.44-1.009,1.968-1.801,2.977
				c1.225,1.392,2.856,2.568,3.36,2.928c-0.864,0.721-1.824,1.896-2.208,2.616c-1.008-0.696-1.608-1.248-2.496-2.208v8.305h-3.553
				v-6.385c-1.008,0.816-1.368,1.104-1.944,1.513c-0.432-1.225-1.224-2.185-2.16-2.977c2.544-1.464,5.569-4.393,6.409-6.337h-5.281
				v-3.336h2.977v-4.464l3.553,0.096c0.144,0,0.384,0.048,0.384,0.312c0,0.12-0.097,0.24-0.384,0.433v3.624h2.304l1.536,1.488
				c-0.072,0.144-0.384,0.768-0.432,0.888H260.809z"/>
			<path class="st2" d="M292.802,20.055v4.033h-21.674v-4.033H292.802z"/>
			<path class="st2" d="M308.762,32.849c-0.672,0-2.305,0-2.305-1.536v-2.089h-3.264l1.295,0.553
				c0.193,0.096,0.553,0.239,0.553,0.504c0,0.336-0.48,0.384-0.936,0.408c-1.873,1.464-4.777,2.472-7.825,2.448
				c-0.265-1.152-0.647-2.041-1.224-2.929c0.336,0.048,0.551,0.096,0.888,0.096c0.696,0,3.624-0.216,4.944-1.08h-3.217v-8.568
				h16.802v6.961c1.32,0.936,2.208,1.128,2.856,1.271c-0.145,1.177-0.504,3.961-2.616,3.961H308.762z M305.473,13.767v1.464
				c0.264-0.384,1.465-2.16,2.017-4.536l3.288,0.769c0.168,0.048,0.288,0.119,0.288,0.239c0,0.288-0.36,0.433-0.696,0.456
				c-0.048,0.192-0.144,0.433-0.191,0.601h6.744v2.784h-8.041c-0.144,0.216-0.312,0.504-0.791,1.176h7.344v2.929h-7.561v-2.665
				c-0.119,0.192-0.432,0.576-0.576,0.793c-0.527-0.505-0.744-0.696-1.824-1.345v1.08h-3v0.864h3.721v1.776h-10.85v-9.025h10.586
				v1.801h-3.457v0.84H305.473z M299.641,13.767v-0.84h-1.393v0.84H299.641z M298.248,15.207v0.84h4.416v-0.84H298.248z
				 M298.248,17.511v0.864h1.393v-0.864H298.248z M311.138,23.247v-0.768h-10.129v0.768H311.138z M301.009,24.495v0.816h10.129
				v-0.816H301.009z M301.009,26.56v0.816h10.129V26.56H301.009z M313.273,30.328c0.385,0,0.576-0.264,0.744-1.104h-4.129v0.553
				c0,0.312,0.121,0.552,0.576,0.552H313.273z"/>
			<path class="st2" d="M325.201,12.807c0.191,0.072,0.312,0.168,0.312,0.336c0,0.288-0.456,0.336-0.672,0.36
				c-1.44,4.944-1.44,8.496-1.44,9.24c0,1.2,0.096,1.752,0.168,2.4c0.313-0.456,0.816-1.224,1.129-1.704
				c0.479,0.912,1.031,1.656,1.728,2.376c-0.479,0.696-2.017,3.024-1.992,5.881l-3.216,0.6c-0.336-1.151-1.297-4.561-1.297-9.673
				c0-2.448,0.264-6.769,1.44-10.992L325.201,12.807z M336.602,12.278c0.12,0.024,0.313,0.048,0.313,0.265
				c0,0.287-0.336,0.359-0.553,0.384c-0.072,0.527-0.168,1.2-0.24,2.88c1.873-0.336,2.688-0.6,3.553-0.888v3.624
				c-0.552,0.145-1.656,0.408-3.648,0.769c0,2.376,0.24,4.704,0.385,5.521c1.848,0.624,3.672,1.607,4.561,2.472
				c-0.385,0.696-1.105,2.256-1.633,3.385c-0.768-0.744-1.561-1.393-2.568-1.824c-0.096,3.072-3.168,3.432-4.68,3.432
				c-3.602,0-5.4-1.968-5.4-4.2c0-2.856,2.832-3.937,5.951-3.864c-0.191-2.736-0.215-3.048-0.264-4.44
				c-1.367,0.12-2.352,0.12-2.76,0.12c-0.768,0-1.272-0.024-1.776-0.072v-3.768c0.864,0.096,2.089,0.264,4.513,0.168
				c0-1.009,0-3.121,0.023-4.681L336.602,12.278z M331.633,27.16c-0.527,0-1.68,0.168-1.68,0.912c0,0.624,0.792,0.888,1.561,0.888
				c0.191,0,1.632,0,1.632-1.176c0-0.12,0-0.217-0.048-0.313C332.809,27.352,332.377,27.16,331.633,27.16z"/>
			<path class="st2" d="M350.785,23.583c-1.297,1.152-2.16,2.473-2.16,3.024c0,0.408,0.312,0.673,0.479,0.769
				c0.888,0.479,3.648,0.528,4.776,0.528c5.064,0,8.113-0.864,9.266-1.2c0.096,1.296,0.455,3.023,0.695,3.984
				c-3.288,0.815-8.305,0.96-10.177,0.96c-5.497,0-9.024-1.009-9.024-4.656c0-2.064,1.68-3.889,3.576-5.497L350.785,23.583z
				 M362.258,15.207c-2.977,1.176-5.16,2.568-7.561,4.752c-0.049-0.048-0.264-0.288-2.137-2.4c0.648-0.432,1.176-0.888,1.705-1.439
				c-0.601,0.048-2.089,0.144-4.273,0.144c-1.896,0-2.664-0.096-3.24-0.144l-0.191-3.961c1.943,0.408,5.184,0.528,7.248,0.528
				c3.793,0,5.809-0.384,6.505-0.528L362.258,15.207z"/>
			<path class="st2" d="M378.602,11.679c0.191,0.048,0.455,0.144,0.455,0.384c0,0.144-0.119,0.312-0.527,0.336
				c-0.528,1.632-0.576,1.8-0.696,2.16c2.664-0.408,5.305-0.912,7.825-1.896c0.119,0.792,0.432,2.616,0.672,3.577
				c-2.953,1.031-6.697,1.8-9.817,2.04c-0.575,1.584-0.769,2.063-1.248,3.24c1.944-0.96,4.057-1.633,6.241-1.633
				c6.408,0,6.744,4.513,6.744,5.713c0,2.136-1.152,3.864-2.568,4.849c-1.271,0.864-3.672,2.304-10.32,2.304
				c-1.009,0-1.705-0.071-2.232-0.12c-0.168-1.248-0.457-2.376-0.889-3.576c0.696,0.072,2.112,0.216,3.576,0.216
				c0.553,0,4.656,0,7.129-1.464c1.272-0.768,1.297-1.824,1.297-2.256c0-1.393-0.721-2.568-2.929-2.568
				c-2.112,0-5.497,1.08-8.305,4.009l-3.456-1.729c1.728-2.593,3.023-6.24,3.191-6.745c-2.088,0.024-3.744-0.071-4.656-0.144
				l-0.048-3.937c1.56,0.384,2.929,0.528,5.809,0.528c0.408-1.488,0.72-2.832,0.912-4.248L378.602,11.679z"/>
			<path class="st2" d="M400.081,16.383c0.168,0.048,0.36,0.096,0.36,0.313c0,0.287-0.289,0.312-0.553,0.336
				c-0.576,1.08-1.225,2.496-1.584,4.152c2.137-1.465,4.92-2.232,7.009-2.232c4.128,0,6.145,3.048,6.145,5.904
				c0,4.585-4.32,7.729-12.265,7.729c-0.697,0-1.297-0.023-1.753-0.048c-0.144-1.32-0.336-1.968-1.128-4.032
				c0.816,0.192,1.656,0.36,3.553,0.36c5.448,0,7.608-2.04,7.608-4.057c0-0.696-0.336-2.448-2.809-2.448
				c-3.433,0-5.929,2.208-7.656,3.937l-3.433-1.248c0.696-4.104,1.416-6.721,2.521-9.938L400.081,16.383z M398.761,10.767
				c0.84,0.12,4.536,0.672,8.065,2.664c-0.912,1.272-1.513,2.304-2.161,3.504c-2.017-1.416-4.944-2.472-7.152-2.952L398.761,10.767z
				"/>
			<path class="st2" d="M426.553,12.23c0.264,0.072,0.48,0.144,0.48,0.36c0,0.336-0.504,0.384-0.648,0.384
				c-0.359,1.632-0.504,2.256-0.672,2.88c2.064,0,5.496,0.072,5.496,5.881c0,3.96-1.248,7.345-2.4,8.881
				c-0.407,0.552-1.392,1.68-3.552,1.68c-0.744,0-1.824-0.096-2.544-0.264c0.023-0.264,0.072-0.48,0.072-0.888
				c0-0.36-0.024-1.368-0.36-3.217c0.552,0.313,1.176,0.528,2.088,0.528c0.648,0,1.032-0.096,1.417-0.456
				c0.815-0.72,1.584-3.408,1.584-6.385c0-2.472-1.729-2.328-2.761-2.256c-1.896,6.504-4.152,10.152-6.097,12.673
				c-1.008-0.744-2.568-1.536-3.528-1.896c2.544-2.952,4.536-6.336,5.713-10.057c-1.152,0.288-3.048,0.84-3.816,1.225l-1.32-3.865
				c0.984-0.191,5.257-1.08,6.145-1.224c0.504-2.305,0.647-4.057,0.744-5.257L426.553,12.23z M433.033,13.478
				c2.641,2.952,4.32,6.961,4.32,8.856c0,1.248-0.408,1.921-1.703,2.545c-0.217,0.096-1.177,0.552-2.4,0.744
				c-0.504-1.416-0.793-2.112-1.393-3.217c0.648-0.144,1.536-0.336,1.536-1.104c0-0.601-0.601-2.185-1.248-3.289
				c-0.624-1.08-1.536-2.088-2.04-2.664L433.033,13.478z"/>
			<path class="st2" d="M448.081,16.383c0.168,0.048,0.36,0.096,0.36,0.313c0,0.287-0.289,0.312-0.553,0.336
				c-0.576,1.08-1.225,2.496-1.584,4.152c2.137-1.465,4.92-2.232,7.009-2.232c4.128,0,6.145,3.048,6.145,5.904
				c0,4.585-4.32,7.729-12.265,7.729c-0.697,0-1.297-0.023-1.753-0.048c-0.144-1.32-0.336-1.968-1.128-4.032
				c0.816,0.192,1.656,0.36,3.553,0.36c5.448,0,7.608-2.04,7.608-4.057c0-0.696-0.336-2.448-2.809-2.448
				c-3.433,0-5.929,2.208-7.656,3.937l-3.433-1.248c0.696-4.104,1.416-6.721,2.521-9.938L448.081,16.383z M446.761,10.767
				c0.84,0.12,4.536,0.672,8.065,2.664c-0.912,1.272-1.513,2.304-2.161,3.504c-2.017-1.416-4.944-2.472-7.152-2.952L446.761,10.767z
				"/>
		</g>
	</g>
	<polygon class="st2" points="170,30 170,15 177.5,22.5 	"/>
</g>
</svg>
