<svg xmlns="http://www.w3.org/2000/svg" width="630" height="83.06"><defs><style>.cls-1{fill:#00b4dc}.cls-2{fill:#fff}</style></defs><g id="レイヤー_2" data-name="レイヤー 2"><g id="レイヤー_1-2" data-name="レイヤー 1"><rect class="cls-1" width="630" height="83.06" rx="4.56"/><path class="cls-2" d="M55.43 18.44c-.86-1.49-2.27-1.49-3.12 0L26.56 63c-.86 1.49-.15 2.7 1.56 2.7h51.49c1.72 0 2.42-1.21 1.56-2.7z"/><path class="cls-1" d="M51.85 47.76L51.27 39c-.11-1.71-.17-2.94-.17-3.68a3.36 3.36 0 01.8-2.38 2.76 2.76 0 012.1-.85 2.11 2.11 0 012.1 1.09 7.31 7.31 0 01.53 3.14 22.79 22.79 0 01-.13 2.46l-.78 9a7.25 7.25 0 01-.55 2.48 1.45 1.45 0 01-1.39.86 1.4 1.4 0 01-1.38-.84 8.44 8.44 0 01-.55-2.52zm2 12.05a2.88 2.88 0 01-2-.73 2.51 2.51 0 01-.84-2 2.63 2.63 0 01.8-1.93 2.66 2.66 0 012-.8 2.73 2.73 0 012 .8 2.6 2.6 0 01.81 1.93 2.55 2.55 0 01-.82 2 2.8 2.8 0 01-1.91.73z"/><path class="cls-2" d="M233.46 35.5h-2.56v-3.71a17.08 17.08 0 01-5 3.69 5.81 5.81 0 00-2.25-1.89 13.4 13.4 0 005.35-3.33h-3.24v-6.84h5.18v-.74H224v-2.16h6.89v-1.6l2.77.14c.18 0 .36.06.36.23s-.21.29-.57.38v.85h6.88v2.16h-6.88v.74h5.24v6.84h-3.19a15.17 15.17 0 005.11 3 5.6 5.6 0 00-2 2.06 18 18 0 01-5.2-3.59zm-2.56-10.35h-2.52V26h2.52zm0 2.37h-2.52v.85h2.52zm2.56-1.52H236v-.83h-2.57zm0 2.39H236v-.85h-2.57zm15.41-9.47l2.75.12c.13 0 .32 0 .32.18s-.18.24-.43.33v.83h6.81v2.3H242v-2.3h6.86zm-.71 11.7c.11.05.18.11.18.22s-.25.2-.47.2a15.56 15.56 0 01-3.52 4.1 8.33 8.33 0 00-2.35-1.51 14 14 0 003.74-4.38zm3.35 2.86c0 1.48-.32 2.15-3.64 2a8.68 8.68 0 00-1-2.66c.33 0 1 .11 1.39.11.58 0 .6-.27.6-.53V29H244v-5.55h12.41V29h-4.85zm-4.9-7.88v1.28h7.13V25.6zm7.76 3.74a15.35 15.35 0 013.52 4 28.9 28.9 0 00-2.33 1.75 18.13 18.13 0 00-3.35-4.39zm13.13-9.95c.23 0 .37.07.37.23s-.19.25-.3.29c-.06.54-.09 1.17-.13 1.91a13.37 13.37 0 002.83-.9v1.9a7 7 0 000 1 13.27 13.27 0 01-2.95.81v1.22a9.15 9.15 0 013.06-.54 4.78 4.78 0 015 4.88 4.17 4.17 0 01-4.27 4.48c-2.72 0-2.81-2.41-2.83-3.16l2.24-.76c0 .36 0 1.21.84 1.21s1.14-.69 1.14-1.59a2.27 2.27 0 00-2.4-2.38 8.6 8.6 0 00-2.79.63 50.13 50.13 0 00.19 5.38l-2.5 1.14a24.27 24.27 0 00-3.15-2.57c-.45.48-.67.73-.92 1l-1.3-3.1c.83-.45 4.11-2.93 4.83-3.38v-2.16c-1.06.05-2.32.07-3.35.07v-2.82a8.21 8.21 0 001.42.1c.71 0 1.71-.07 1.93-.07 0-1.35 0-1.55-.07-3.35zm-4 11.61a2 2 0 00.81.47c.27 0 .25-.63.24-1.32-.26.18-.64.45-1.09.85zm9.4-9.58a15.54 15.54 0 013.93 2.88 12.75 12.75 0 00-1.83 2.18 10.46 10.46 0 00-3.82-2.83zm15.04-1.66c.2.08.31.13.31.29s-.31.31-.52.33a19.24 19.24 0 00-1.06 1.89c.95.09 1.87.12 2.25.12h.88a13 13 0 00-.8 2.81 21.58 21.58 0 01-3.4-.2c-.21.49-.46 1.13-.64 1.58a25.25 25.25 0 004 .27c-.34 1-.63 2.11-.77 2.67-1.1-.07-2.34-.18-4-.43a5.48 5.48 0 00-.2 1.45c0 2.2 2 2.2 2.91 2.2s3.5 0 3.5-2.61a6.91 6.91 0 00-.92-2.81 8.54 8.54 0 002.72-1 9.46 9.46 0 011.24 4.09c0 4-4.18 4.88-6.54 4.88-3.62 0-5.61-1.88-5.61-4.52a8.76 8.76 0 01.27-2.18 14.55 14.55 0 01-2.34-.67l.61-2.66a17.11 17.11 0 002.43.77c.07-.23.2-.63.54-1.6a16.56 16.56 0 01-2.68-.9l.54-2.79a24.4 24.4 0 003.18 1c.18-.49 1.05-2.68 1.23-3.13zm16.69-.25c.14 0 .34.11.34.29s-.09.23-.39.25l-.53 1.62a26.89 26.89 0 005.87-1.42c.09.59.33 2 .51 2.68a31 31 0 01-7.37 1.53c-.43 1.19-.57 1.55-.93 2.43a10.65 10.65 0 014.68-1.22c4.81 0 5.06 3.38 5.06 4.28a4.45 4.45 0 01-1.93 3.64c-.95.65-2.75 1.73-7.74 1.73a15.54 15.54 0 01-1.68-.09 12.5 12.5 0 00-.66-2.68c.52.05 1.58.16 2.68.16a12.16 12.16 0 005.35-1.1 1.83 1.83 0 001-1.69c0-1.05-.54-1.93-2.2-1.93a9.24 9.24 0 00-6.23 3l-2.59-1.3a25.23 25.23 0 002.4-5.06c-1.57 0-2.81-.05-3.5-.1v-3a16.38 16.38 0 004.35.4 24.73 24.73 0 00.69-3.19zM322 21.89c.22.25 1.12 1.37 1.3 1.58a8 8 0 012-.3 3.42 3.42 0 013.58 3.51c0 3.36-3.66 3.67-5.49 3.81a12.13 12.13 0 00-.83-2.41h.83c.61 0 2.91 0 2.91-1.58 0-.31-.08-1-1.15-1h-.39c.32.52.5.86.66 1.13-.66.27-1.71.7-2.36 1a10.45 10.45 0 00-.66-1.39c-.67.31-1.06.53-1.32.67a34.72 34.72 0 012.52 7 22.42 22.42 0 00-2.6 1.21 30.69 30.69 0 00-2.11-6.91c-.52.38-.67.5-2 1.67l-1.62-2.54a22.15 22.15 0 002.55-1.27 13 13 0 00-1.62-2.36l2.45-1a.92.92 0 01.38-.11.19.19 0 01.21.2.53.53 0 01-.16.29c.27.48.7 1.29 1 1.78l1-.51c-.29-.39-.38-.52-1.13-1.47zm12.63.9a18.58 18.58 0 014.22 2.46 17.84 17.84 0 00-1.75 2.4 15.28 15.28 0 00-4.1-2.45zm-.57 9.69a26.34 26.34 0 0012.67-9.55 9.3 9.3 0 001.86 2.43A29.48 29.48 0 01336.18 35c0 .11 0 .41-.3.41s-.24-.18-.27-.23zm2.39-13.69a27.37 27.37 0 014.55 2.13c-.38.43-1.46 2-1.71 2.34a18.72 18.72 0 00-4.4-2.26zm16.15 15.27v-2.31h8v-1.83h-7.58v-2.36h7.58v-1.73h-7.82v-2.36h10.34V34.6h-2.52v-.54zm31.4-8.32v3.06h-15.63v-3.06zm18.6 8.36h-12.09c.23-3.16 2-4.45 5.81-7 2.9-2 2.9-2.4 2.9-3.16 0-1.35-1.44-1.69-2.38-1.69-2.43 0-2.68 1.73-2.75 2.9h-3.33a5.42 5.42 0 011.11-3.58 6.12 6.12 0 015-2c4.12 0 5.62 2.27 5.62 4.34a4.31 4.31 0 01-.79 2.47c-.92 1.28-4.56 3.6-4.74 3.72a10.33 10.33 0 00-1.84 1.39h7.49zm13.58-6.86c0 1.72-.42 7.25-6 7.25a5.45 5.45 0 01-4.75-2.32 10.87 10.87 0 01-1.26-5.4c0-1.73.41-7.26 6-7.26 5.27 0 6.01 4.79 6.01 7.73zm-8.66-.24c0 .6 0 4.77 2.66 4.77s2.65-4.16 2.65-4.77 0-4.77-2.65-4.77-2.66 4.12-2.66 4.77zm22.41 7.1h-12.1c.23-3.16 2-4.45 5.81-7 2.9-2 2.9-2.4 2.9-3.16 0-1.35-1.44-1.69-2.37-1.69-2.43 0-2.69 1.73-2.76 2.9h-3.33a5.38 5.38 0 011.12-3.58 6.09 6.09 0 015-2c4.13 0 5.62 2.27 5.62 4.34a4.31 4.31 0 01-.79 2.47c-.92 1.28-4.56 3.6-4.74 3.72a9.76 9.76 0 00-1.83 1.39h7.49zm6.55-6.36v-2.2h.9c.34 0 2.48-.2 2.48-1.76s-1.6-1.5-2.14-1.5c-1.39 0-2.36.22-2.39 1.79H432c.39-3.39 2.77-4.56 5.89-4.56 3.36 0 5.29 1.55 5.29 3.85a3 3 0 01-2.2 3.07 3.35 3.35 0 012.56 3.38c0 3.21-2.85 4.68-6.09 4.68s-5.67-1.44-5.92-5.13h3.39a2.27 2.27 0 002.57 2.43c.34 0 2.66-.05 2.66-2 0-1.15-.81-2-2.57-2zm17.75-7.38c.14.05.23.12.23.25s-.34.25-.51.27a24.85 24.85 0 00-1.08 6.93 13.16 13.16 0 00.13 1.8l.85-1.28a7.5 7.5 0 001.29 1.79 7.94 7.94 0 00-1.49 4.41l-2.41.45a25 25 0 01-1-7.26 32.44 32.44 0 011.08-8.24zm8.55-.4c.09 0 .23 0 .23.2s-.25.27-.41.29a17.36 17.36 0 00-.18 2.16 15.65 15.65 0 002.66-.67v2.72c-.41.11-1.24.31-2.73.58a30.74 30.74 0 00.28 4.14 10 10 0 013.42 1.85c-.28.52-.82 1.7-1.22 2.54a6.45 6.45 0 00-1.93-1.37c-.07 2.31-2.37 2.58-3.51 2.58-2.7 0-4.05-1.48-4.05-3.15 0-2.15 2.13-3 4.47-2.9-.15-2.05-.17-2.29-.2-3.33-1 .09-1.77.09-2.07.09a11.8 11.8 0 01-1.33-.06v-2.82a19.59 19.59 0 003.38.12v-3.51zm-3.73 11.16c-.4 0-1.26.13-1.26.69s.59.67 1.17.67c.14 0 1.22 0 1.22-.89a.56.56 0 000-.23 2.55 2.55 0 00-1.13-.24zM210.83 55.66v1.69h-.9v3h-2.66v-.58H204v1.16c0 .91-.24 1.54-2.92 1.54h-1a6.76 6.76 0 00-.84-2.25 14.42 14.42 0 001.53.14c.52 0 .52-.18.52-.56h-5.62V58h5.62v-.61h-6.86v-1.73h6.86v-.58h-5.62V53.5h5.62V53h-4.57v-3.66h4.57v-.51h-6.86v-1.89h6.86V46l2.79.11a.24.24 0 01.27.23c0 .17-.11.2-.39.35v.3h6.8v1.89H204v.51h4.5V53H204v.51h6v2.16zm-9.54-4.18v-.7h-2.2v.7zm2.67-.7v.7h2.17v-.7zm3.31 4.88v-.58H204v.58zm0 2.3v-.61H204V58zm14.31-9.58a13.31 13.31 0 001.55-2.54l2.7.69c.12 0 .25.09.25.22s-.25.28-.52.25c-.47.74-.65 1-.9 1.38h4.12v2.25h-16.42v-2.25h4a8.76 8.76 0 00-1-1.53l2.43-1.1a12.1 12.1 0 011.39 2.25l-1 .37zm-5.78 10.16v3.89h-2.52v-11.2h7.16v9.43c0 1.48-.77 1.7-3.15 1.77a5.18 5.18 0 00-.92-2.56c.27 0 .81.09 1.08.09s.54 0 .54-.58v-.84zM218 54v-.8h-2.2v.8zm0 2.68v-.81h-2.2v.81zm6.14-5.13c.17 0 .27 0 .27.18s-.1.19-.27.3v7.17h-2.59v-7.79zm3.8-.38c.17 0 .33 0 .33.2s-.2.23-.43.36v8.59a1.7 1.7 0 01-.78 1.74c-.65.43-1.42.42-2.92.4a6.71 6.71 0 00-.59-2.7c.31 0 1 .12 1.24.12.45 0 .45-.28.45-.5V51zm11.91-.01l-1.7 9.94h-3.67l-3.26-14.19h3.23l2 10.53 1.77-10.53h3.24l1.76 10.53 2-10.53h3.22l-3.23 14.19h-3.67zm21.92 7.4v2.54h-11.63V46.91h11.4v2.54h-8.16v3.18h7.2v2.43h-7.2v3.5zm1.96 2.54V46.91h7.63c2.78 0 4.47 1.51 4.47 3.63a2.93 2.93 0 01-2.14 2.94 3.57 3.57 0 011.37.65 3.45 3.45 0 011.35 2.87c0 2.43-1.91 4.11-4.67 4.11zm3.27-8.29h3.67a1.65 1.65 0 001.73-1.8 1.55 1.55 0 00-1.73-1.64H267zm0 5.82h3.66c1.15 0 2.3-.52 2.3-2 0-1.59-1.4-1.84-2.3-1.84H267zm16.77-.16v-4.2a11 11 0 01-1.46 1 9 9 0 00-1.79-2 11.72 11.72 0 002.29-1.56 13.09 13.09 0 00-1.48-1.16l1.73-1.76a11.75 11.75 0 011.62 1.13 5 5 0 001.08-1.49h-3.33v-2.15h6.21l.81.86a14.92 14.92 0 01-1.72 3.06h3.69a11.76 11.76 0 01-2.13-3.54l2.29-.87a12.72 12.72 0 00.77 1.5 8.81 8.81 0 001.1-1.37l1.89 1.19c.07 0 .2.12.2.21s-.31.24-.49.24c-.59.75-1.08 1.31-1.29 1.53.2.23.34.37.48.52a22.38 22.38 0 001.64-2l1.68 1.14c.14.11.32.21.32.34s-.27.25-.54.27a14.13 14.13 0 01-1.55 1.64 13.44 13.44 0 002.54 1.68 8.6 8.6 0 00-1.65 2.14 17.74 17.74 0 01-1.68-1.16v4.81h-1.3c.13.05.2.12.2.25s-.18.29-.38.31a6.59 6.59 0 01-.38 1h4.42v2.17h-16.33V60h4.59c-.07-.22-.34-.92-.51-1.32l.89-.23zm2.68-6.68c-.47.5-.65.7-1.46 1.46h9.51a16.87 16.87 0 01-1.88-1.7v.94h-6.17zm-.09 3.47v1.15h6.07v-1.15zm1.69 3.21c.16.39.29.7.5 1.36l-.64.19h2.43a15.53 15.53 0 00.54-1.55zm17.46-5.96h-1.31v.93h1.8v2.29h-1.8v2.45a11.53 11.53 0 00.63-2.14l2.05.41c.11 0 .27 0 .27.23s-.27.26-.52.27c-.08.27-.11.36-.36 1.12a21.81 21.81 0 003.58-1.28v-2.95h-1.28a18.57 18.57 0 011.26 2.3 20.08 20.08 0 00-1.94 1.28 15.42 15.42 0 00-1.3-2.45l1.84-1.13h-2.06v-2.13h5.68V51h-4.56v-1.93h4.56v-.69h-5.42v-2.19h8v5.52h1.1v2.13h-2.14l2 1a.3.3 0 01.19.25c0 .18-.12.22-.46.27a17.81 17.81 0 01-1.46 2.15 13.08 13.08 0 002.25 1.81 9.17 9.17 0 00-1.48 2.29 15.51 15.51 0 01-2.41-2.45v1.53c0 1.79-1.17 1.79-3.31 1.79A8.57 8.57 0 00308 60c-.18.09-.24.1-.49.21 0 .34-.05.65-.36.65a.3.3 0 01-.22-.2l-.64-2.59c-.2.54-.26.65-.38.92a7.07 7.07 0 00-1.69-.42v.83c1.31-.25 1.69-.34 2-.43a7.12 7.12 0 00-.23 2.25c-2.29.5-4.14.81-5.89 1.06 0 .27-.09.51-.34.51s-.2-.15-.22-.27l-.41-2.49c.73 0 2-.18 2.66-.25V59a12.17 12.17 0 00-1.89.65 16.55 16.55 0 00-.92-2.76l2-.64a19.52 19.52 0 01.77 2.19v-2.71h-2.36v-2.29h2.36v-.93h-1.4v-.69a6.6 6.6 0 00-1.84-1.82 8.27 8.27 0 003.49-4l2.56.5c.2 0 .27.09.27.2s-.2.3-.41.32a12.92 12.92 0 002.61 2.5 7.52 7.52 0 00-1.48 1.17zm-1.06-2.11a8.3 8.3 0 01-1.35-1.62c-.42.56-.7.94-1.28 1.62zm5.4 8.68c-.45.25-1.12.61-1.66.85l1.14.1c.52 0 .52-.36.52-.57zm2.36-3.73a2.68 2.68 0 01.12.24 10.1 10.1 0 001-1.75h-1.08zM321 48v-1.9l2.38.09c.25 0 .41 0 .41.23s-.2.27-.41.34V48h3.13v2.38h-3.13v1.08h3.44v2.36h-3.44v.73h3.26v5.24c0 1.19-.33 1.68-2.56 1.7a5 5 0 00-.7-2v3H321v-5.55h-.72v4.7h-2.52v-7.12H321v-.73h-3.85v-2.36H321v-1.08h-1.8c-.12.25-.22.41-.38.68a8.62 8.62 0 00-2.18-.77 10.39 10.39 0 001.36-3.75l2.29.33c.18 0 .29.1.29.25s-.24.3-.45.36L320 48zm2.38 11.09a2.25 2.25 0 00.48.06c.42 0 .42-.26.42-.58v-1.6h-.9zM330 48.17c.27 0 .4.07.4.23s-.13.22-.4.36v9.89h-2.55V48zm3.28-2.09c.13 0 .45 0 .45.23s-.2.29-.45.44v13.39a2.12 2.12 0 01-.9 2c-.52.27-.79.29-2.74.4a5.48 5.48 0 00-1-2.54c.19 0 1.13.09 1.31.09.67 0 .77-.15.77-.67V46zm6.56 1.26c.34.13.48.18.48.31s-.36.19-.48.21a20.94 20.94 0 00-1.17 7.44 6.33 6.33 0 00.12 1.44c.11-.2.54-1 .76-1.35a5.2 5.2 0 001.38 1.47 10.2 10.2 0 00-1.18 4.31l-2.56.68a19 19 0 01-1.28-7.2 34.16 34.16 0 011.15-8.36zm4.75 8.46a4.86 4.86 0 00-.27 1.28c0 .79.43.92 2.5.92a18.09 18.09 0 004.45-.49 12.22 12.22 0 00-.27 2.94 38.26 38.26 0 01-4.56.23c-2.68 0-4.75-.47-4.75-2.66a6.71 6.71 0 01.59-2.65zm-2.18-7.69c.54 0 1.26.09 2.34.09a21.06 21.06 0 005.29-.57 25.66 25.66 0 00.26 2.73 26.42 26.42 0 01-5.55.54c-1.06 0-1.76 0-2.34-.09zm27.04 1.05c-5.15-.06-8.21 4.46-8.21 6.8 0 3 4.07 3.21 5 3.26a16.34 16.34 0 00-1.35 3.24c-3.15-.73-6.62-2.41-6.62-6.28a8 8 0 013.18-6 61.47 61.47 0 00-7.45 1.1l-.38-3.38c.39 0 .77.05 1.35.05 2.65 0 9.83-.5 13.92-1.78zm12.99 8.98V62h-2.28v-3.86h-1.34a6.77 6.77 0 01-2.75 4.25 5.21 5.21 0 00-2-1.33v1.3h-2.57v-16h7.5v6.24h-5V61a4.23 4.23 0 002.49-2.9h-1.86v-2h2.09v-1.06h-1.66v-1.85h8.74v1.89h-1.43v1.06h1.8v2zm-5.83-10h-2.56v.67h2.56zm0 2h-2.56v.68h2.56zm3.55 4.93H379v1.06h1.16zm3.84 7.36a6.35 6.35 0 00-.95-2.63 5.07 5.07 0 001 .14c.34 0 .72 0 .72-.63V52.6h-5v-6.27h7.58v14c.05 1.67-.98 2.12-3.35 2.1zm.81-14.32h-2.59v.67h2.59zm0 2h-2.59v.68h2.59zm17.09 4.18v.76h2.79v1.81h-2.79v.76h2.79v1.82h-2.79v.74h3.64v2h-8.26v.29h-2.54v-6.31l-.49.49a6.69 6.69 0 00-.86-1.28v7.06h-2.63v-8.64c-.15.18-.35.41-.49.59a4.26 4.26 0 00-1.84-1.85 19.09 19.09 0 003.79-6.85l2.52.85v-.29l2.55.09c.2 0 .27.11.27.25s-.14.27-.39.44v1.72h1.35v-3l2.68.17c.18 0 .27.1.27.23s-.27.31-.43.34v2.23h1.51v-2.38l2.67.16c.21 0 .32.08.32.2s-.22.31-.45.42v3.6h-4.16l1.26.68a.35.35 0 01.2.29c0 .2-.25.27-.52.32-.08.13-.18.29-.29.45h3.85v1.84zm-8.51-.29a16.84 16.84 0 002.44-3.26h-1.09v-3.67l-.17.07c-.3.67-.48 1-1.11 2.27.27.14.34.18.34.31s-.29.32-.41.37zm3.89.32v.76h2.08v-.76zm0 2.57v.76h2.08v-.76zm2.08 3.32v-.74h-2.08v.74zm-.64-7.73a17.34 17.34 0 001-1.74h-2.23l.83.41c.14.07.25.14.25.29s-.2.27-.52.3l-.45.74zm12.68-4.74c.17 0 .36.1.36.27s-.21.27-.37.28a16.07 16.07 0 00-1 5.42c0 2.2.68 3.73 1.2 3.73s1.26-1.58 1.75-2.72a8.28 8.28 0 001.89 1.91c-1.44 3.49-3.08 4.72-4 4.72s-3.67-2.14-3.67-7.71a31.86 31.86 0 01.88-6.73zm8.7.12a18 18 0 013.64 9.06c-1.06.41-2.34 1-2.94 1.33a16.33 16.33 0 00-3-8.91zm13.61-1.19c.16 0 .36.11.36.29s-.25.24-.4.24c-.07.28-.38 1.56-.45 1.81a11 11 0 003-.88l.31 2.83a22.93 22.93 0 01-4.07.84 43.38 43.38 0 01-4.72 10.54A18.74 18.74 0 00425 61a29.45 29.45 0 004.45-8.73 32.75 32.75 0 01-3.3.1l-.23-3c.54 0 1.17.07 2.09.07s1.35 0 2.14-.07c.25-1.35.38-2.52.49-3.4zm1.35 10.84a1.79 1.79 0 00-.49 1.07.47.47 0 00.33.46 6.46 6.46 0 002.41.31 12.81 12.81 0 004-.6 8.22 8.22 0 00-.13 1.41 14.22 14.22 0 00.11 1.49 21.42 21.42 0 01-3.73.31c-2.35 0-5.49-.34-5.49-2.9a4.89 4.89 0 01.7-2.36zm-.85-5.09a22.7 22.7 0 014-.33 13 13 0 012.65.2c-.11 1.33-.13 1.62-.15 2.83a10.19 10.19 0 00-2.7-.33 33.76 33.76 0 00-3.78.33zm15.32-5.75c.27 0 .41.06.41.26s-.12.21-.34.3a39.73 39.73 0 00-.58 7.15c0 4.09.4 4.84 1.79 4.84 3.08 0 5.79-4.16 6.28-5.16a18.26 18.26 0 002.09 2.35c-2.05 3.34-5.11 5.84-8.75 5.84-4 0-4.32-3.39-4.32-7.89 0-1 .18-5.6.18-6.52v-1.65zm21.69-.14c.16 0 .32 0 .32.23s-.19.24-.32.26c-.07.7-.07.86-.09 1.06.83 0 3.62-.06 5 .11v2.68a43 43 0 00-5.06-.16v2a24.27 24.27 0 004.57-.85v2.68a33.79 33.79 0 01-4.5.6v1.6a17.82 17.82 0 016 2.38 30 30 0 00-2 2.25 14.5 14.5 0 00-3.85-2.27c0 .94.16 3.06-3.78 3.06-2.79 0-4.83-1.28-4.83-2.92 0-2 2.58-2.93 5.58-2.88V55.3c-1.79 0-5 .09-5-1.69 0-.63.32-1.21 1.26-2.18l2 .45c-.33.43-.38.48-.38.61s0 .51 2.1.41v-2.07c-2.22.09-4.16.35-5.66.54v-2.86c.88-.09 4.83-.27 5.64-.32 0-.69 0-1.39-.07-2.22zm-3.73 11.88c-.09 0-1.82 0-1.82.74s1 .65 1.3.65c.88 0 1.42-.32 1.31-1.31a3.54 3.54 0 00-.79-.08zm21.84-12.15c.29 0 .45.05.45.2s-.22.27-.36.3c0 .33-.06.54-.09 1.26 5.07-.21 5.63-.23 6-.27 0 .38-.06 2.16 0 2.9-3.26-.16-4.62-.16-5.94-.14a14.92 14.92 0 000 2 5.9 5.9 0 011 3.45 8.5 8.5 0 01-4.17 6.95 12.58 12.58 0 00-2.63-1.85c.54-.22 2.66-1.12 3.31-2.59a2 2 0 01-1.42.43 2.42 2.42 0 01-1.95-.81 4.58 4.58 0 01-.77-2.67c0-4 3.38-3.83 3.76-3.78v-1a48.86 48.86 0 00-7.18.94l-.2-3c.41 0 1.1 0 7.31-.38a21.82 21.82 0 00-.25-2.29zm-4.16 9c0 1.19.59 1.51.92 1.51.55 0 .88-.82.88-1.72 0-.42-.09-1.12-.81-1.12s-.99.59-.99 1.33z"/></g></g></svg>