<svg xmlns="http://www.w3.org/2000/svg" width="628" height="58.9"><defs><style>.cls-1{fill:#00b4dc}.cls-2{fill:#ff5064}.cls-3{fill:#fff}</style></defs><g id="レイヤー_2" data-name="レイヤー 2"><g id="object"><path class="cls-1" d="M19.74 51a17.48 17.48 0 01-.36 3.83 4.71 4.71 0 01-1.62 2.63A5.74 5.74 0 0114 58.48a10.3 10.3 0 01-1.83-.17l-.77-4.08c.65 0 1.17-.06 1.58-.11a2 2 0 001-.39 1.67 1.67 0 00.54-.92 17.67 17.67 0 00.12-2.81V36.14h5.1zm16.64 2.06H32v-1.77a6.76 6.76 0 01-2 1.49 5.58 5.58 0 01-2.45.5c-1.88 0-3.09-.55-3.64-1.65a8 8 0 01-.83-3.7v-7.3h4.42v6.71a4.45 4.45 0 00.34 1.78 1.41 1.41 0 001.46.76 2.07 2.07 0 001.53-.55 8.7 8.7 0 001.17-1.4v-7.3h4.4zm16.09 0h-4.4v-6.71a4.42 4.42 0 00-.33-1.78 1.44 1.44 0 00-1.47-.77 2.18 2.18 0 00-1 .2 2.93 2.93 0 00-.73.52 7 7 0 00-.55.61l-.45.63v7.3H39.2V40.63h4.39v1.78a6.43 6.43 0 012.08-1.56 6 6 0 012.33-.44q4.47 0 4.47 5.35zm15.38-5.16H59.1a3.08 3.08 0 001.25 1.86 3.81 3.81 0 002.27.72 11.8 11.8 0 004.91-1.24V52a14.14 14.14 0 01-2.34.91 12.55 12.55 0 01-3.49.41 8.24 8.24 0 01-3.91-.86 5.63 5.63 0 01-2.41-2.32 6.82 6.82 0 01-.8-3.32 6.72 6.72 0 01.8-3.28 5.53 5.53 0 012.41-2.27 8.49 8.49 0 013.91-.82 7 7 0 012.92.65 5.4 5.4 0 012.32 2.14 7.29 7.29 0 01.91 3.76zm-4.13-2.17a2.93 2.93 0 00-.59-1.91 2.1 2.1 0 00-1.7-.71 2.32 2.32 0 00-1.78.72 2.7 2.7 0 00-.68 1.9zm29.14 2.57a5.45 5.45 0 01-.3 1.64 5.38 5.38 0 01-1.14 1.86A6.34 6.34 0 0189 53.39a13.46 13.46 0 01-8.14 0 6.31 6.31 0 01-2.44-1.59 4.85 4.85 0 01-1.13-1.8 5.74 5.74 0 01-.29-1.7 5.28 5.28 0 01.88-2.9 5.83 5.83 0 012.39-2.11 6.33 6.33 0 01-1.91-1.78 4.61 4.61 0 01-.67-2.57 5.39 5.39 0 01.37-1.86 5.91 5.91 0 013.46-3.35 9.19 9.19 0 013.39-.55 9.39 9.39 0 013.47.55 6.08 6.08 0 012.25 1.45 5.23 5.23 0 011.18 1.87 5.56 5.56 0 01.34 1.89 4.55 4.55 0 01-.65 2.57 6.71 6.71 0 01-1.93 1.78 6.43 6.43 0 011.72 1.28 5.75 5.75 0 011.13 1.73 5.06 5.06 0 01.44 2zm-5.22-.55a3 3 0 00-.41-1.61 2.7 2.7 0 00-1-1 2.54 2.54 0 00-3.12.46 2.92 2.92 0 00-.83 2.18 3 3 0 00.79 2.22 2.71 2.71 0 001.89.78 2.51 2.51 0 001.88-.78 3 3 0 00.8-2.25zM87 39.33a3.87 3.87 0 00-.47-1.84 1.66 1.66 0 00-1.53-.88 1.78 1.78 0 00-1.64.84 3.56 3.56 0 00-.51 1.88 2.87 2.87 0 00.64 1.94 1.78 1.78 0 002.92 0 2.87 2.87 0 00.59-1.94zm20.3 13.57a13.35 13.35 0 01-2.26.76 11.38 11.38 0 01-2.76.36q-5.7 0-5.7-5.56v-6h-2.39v-.92l7.08-7.21h.6v4.47h5v3.66h-5v4.78a7 7 0 00.1 1.34 1.36 1.36 0 00.58.86 2.45 2.45 0 001.44.34 7.84 7.84 0 003.31-1zm18.24.86h-5.28v-7.93a2.85 2.85 0 000-.35 4.31 4.31 0 00-.45-2 1.75 1.75 0 00-1.73-.89 2.6 2.6 0 00-1.76.66 9.06 9.06 0 00-1.43 1.75v8.76h-5.27v-20.3h5.27V41a7.42 7.42 0 012.58-1.9 7.22 7.22 0 012.71-.51q5.35 0 5.36 6zm14.38 5.14h-2.32a17.88 17.88 0 01-1.37-1.19 13.24 13.24 0 01-1.44-1.7 10.2 10.2 0 01-1.26-2.39 8.65 8.65 0 01-.5-3 8.43 8.43 0 01.81-3.73 11.31 11.31 0 011.73-2.67 25 25 0 012-1.93h2.32a25.15 25.15 0 00-1.7 2 10.23 10.23 0 00-1.25 2.71 11.9 11.9 0 000 7.34 9.74 9.74 0 001.27 2.55 24 24 0 001.71 2.01z"/><path class="cls-1" d="M147.36 54.15a7.86 7.86 0 01-1.36.46 6.6 6.6 0 01-1.66.22q-3.42 0-3.42-3.34v-3.57h-1.43v-.55l4.24-4.37h.36v2.68h3v2.2h-3v2.87a4.15 4.15 0 00.07.8.82.82 0 00.34.52 1.47 1.47 0 00.87.2 4.72 4.72 0 002-.63zm10.94.52h-3.17v-4.98a2.59 2.59 0 00-.27-1.18 1.06 1.06 0 00-1-.53 1.52 1.52 0 00-1.05.4 4.81 4.81 0 00-.87 1v5.26h-3.17V42.49h3.17V47a4 4 0 013.17-1.45q3.22 0 3.22 3.62zm11.32 0h-3.17V53.4a4.55 4.55 0 01-1.4 1.07 4 4 0 01-1.77.36c-1.35 0-2.22-.4-2.62-1.18a5.83 5.83 0 01-.6-2.67v-5.26h3.17v4.84a3.21 3.21 0 00.24 1.28 1 1 0 001.05.55 1.54 1.54 0 001.11-.4 6.48 6.48 0 00.82-1v-5.27h3.17zm7.28-4.1a8.48 8.48 0 01-.5 3 10.67 10.67 0 01-1.25 2.43 12.32 12.32 0 01-1.46 1.73 17.73 17.73 0 01-1.36 1.21H170a21 21 0 001.71-2A11.68 11.68 0 00173 46.93a9.82 9.82 0 00-1.27-2.54 22.82 22.82 0 00-1.73-2.07h2.33a17.78 17.78 0 011.93 1.77 10.87 10.87 0 011.82 2.74 8.44 8.44 0 01.82 3.74zm8.62 1.78a5.69 5.69 0 01-.39 2 6.24 6.24 0 01-1.2 1.94 7.06 7.06 0 01-2.17 1.57 10.23 10.23 0 01-3.14.92v-.92q2.3-.89 2.3-3.9v-.31a2.79 2.79 0 01-2.3-2.88 3 3 0 01.4-1.5 3.14 3.14 0 011.13-1.13 3 3 0 011.59-.43 3.18 3.18 0 012.09.68 4.19 4.19 0 011.27 1.76 5.91 5.91 0 01.42 2.2zm17.93-11.13a11.4 11.4 0 01-1 4.6 17.16 17.16 0 01-2.83 4.41 23.8 23.8 0 01-4.27 3.82l-5-1.64a27.72 27.72 0 005.15-5.49 5.11 5.11 0 01-1.34.15 6.8 6.8 0 01-3.29-.82 6.22 6.22 0 01-2.38-2.34 6.61 6.61 0 01-.9-3.44 7 7 0 01.54-2.71 7.49 7.49 0 011.6-2.35 7.29 7.29 0 012.51-1.64 8.19 8.19 0 013.18-.59 8.76 8.76 0 013.47.66 7.05 7.05 0 012.54 1.8 7.85 7.85 0 011.51 2.57 8.66 8.66 0 01.51 3.01zm-5.29-.66a2.88 2.88 0 00-.73-2 2.64 2.64 0 00-3.43-.36 2.61 2.61 0 00-.88 1.11 3.24 3.24 0 00-.27 1.25 2.56 2.56 0 00.78 2.06 2.75 2.75 0 001.82.67 2.49 2.49 0 002.44-1.53 3.13 3.13 0 00.27-1.2zm20.48 12.34a13.35 13.35 0 01-2.26.76 11.38 11.38 0 01-2.76.36q-5.7 0-5.7-5.56v-6h-2.39v-.92l7.08-7.21h.6v4.47h5v3.66h-5v4.78a7 7 0 00.1 1.34 1.36 1.36 0 00.58.86 2.45 2.45 0 001.44.34 7.84 7.84 0 003.31-1zm18.24.86h-5.28v-7.93a2.85 2.85 0 000-.35 4.31 4.31 0 00-.45-2 1.75 1.75 0 00-1.73-.89 2.6 2.6 0 00-1.76.66 9.06 9.06 0 00-1.43 1.75v8.76H221v-20.3h5.27V41a7.42 7.42 0 012.58-1.9 7.22 7.22 0 012.71-.51q5.35 0 5.36 6zm14.38 5.14h-2.32a17.88 17.88 0 01-1.37-1.19 13.24 13.24 0 01-1.44-1.7 10.2 10.2 0 01-1.26-2.39 8.65 8.65 0 01-.5-3 8.43 8.43 0 01.81-3.73 11 11 0 011.73-2.67 25 25 0 012-1.93h2.32a25.15 25.15 0 00-1.7 2 10.23 10.23 0 00-1.25 2.71 11.9 11.9 0 000 7.34 9.74 9.74 0 001.27 2.55 24 24 0 001.71 2.01z"/><path class="cls-1" d="M257.63 44.76a5.55 5.55 0 00-1.17-.17 1 1 0 00-.79.33 1.44 1.44 0 00-.29.95v.32H257v2.14h-1.6v6.34h-3.17v-6.34h-1.46v-2.14h1.46V46a4.46 4.46 0 01.36-1.78 3.11 3.11 0 011.22-1.38 4.08 4.08 0 012.25-.55 7.81 7.81 0 011.59.17zm8.52 1.45L265 49.38a2.13 2.13 0 00-1.46-.69 1.64 1.64 0 00-1.16.46 4.5 4.5 0 00-.93 1.67v3.85h-3.17v-9h3.17v2.17a4.38 4.38 0 011.05-1.56 2.44 2.44 0 011.78-.77 2.58 2.58 0 01.93.16 7.31 7.31 0 01.94.54zm4.34 8.46h-3.17v-9h3.17zm-.25-11A1.33 1.33 0 01268.9 45a1.26 1.26 0 01-.67-.17 1.33 1.33 0 01-.66-1.15 1.28 1.28 0 01.39-.94 1.25 1.25 0 01.94-.4 1.26 1.26 0 01.94.4 1.29 1.29 0 01.4.92zm7.69 6.9a8.48 8.48 0 01-.51 3 10.28 10.28 0 01-1.25 2.43 12.32 12.32 0 01-1.46 1.73c-.47.46-.92.86-1.35 1.21H271a22.37 22.37 0 001.7-2 11.68 11.68 0 001.3-10.01 9.82 9.82 0 00-1.27-2.54 24.33 24.33 0 00-1.73-2.07h2.33a18.74 18.74 0 011.92 1.77 10.61 10.61 0 011.82 2.74 8.44 8.44 0 01.86 3.74z"/><path class="cls-2" d="M336.44 51a17.48 17.48 0 01-.36 3.83 4.71 4.71 0 01-1.62 2.63 5.74 5.74 0 01-3.75 1.06 10.3 10.3 0 01-1.83-.17l-.77-4.08c.65 0 1.17-.06 1.58-.11a2.11 2.11 0 001-.39 1.6 1.6 0 00.53-.92 17.12 17.12 0 00.13-2.79V36.14h5.1zm16.64 2.06h-4.4v-1.77a6.76 6.76 0 01-1.95 1.49 5.58 5.58 0 01-2.45.5c-1.88 0-3.09-.55-3.65-1.65a8.12 8.12 0 01-.82-3.7v-7.3h4.39v6.71a4.28 4.28 0 00.34 1.78 1.41 1.41 0 001.46.76 2.07 2.07 0 001.53-.55 8.7 8.7 0 001.15-1.4v-7.3h4.4zm16.09 0h-4.4v-6.71a4.25 4.25 0 00-.34-1.78 1.43 1.43 0 00-1.43-.77 2.16 2.16 0 00-.94.2 2.93 2.93 0 00-.73.52 7 7 0 00-.55.61l-.45.63v7.3h-4.43V40.63h4.39v1.78a6.43 6.43 0 012.08-1.56 6 6 0 012.33-.44q4.47 0 4.47 5.35zm15.38-5.16h-8.76a3.05 3.05 0 001.26 1.86 3.79 3.79 0 002.27.72 11.8 11.8 0 004.91-1.24V52a14.14 14.14 0 01-2.34.91 12.57 12.57 0 01-3.5.41 8.2 8.2 0 01-3.9-.86 5.63 5.63 0 01-2.41-2.32 6.71 6.71 0 01-.8-3.32 6.61 6.61 0 01.8-3.28 5.53 5.53 0 012.41-2.27 8.45 8.45 0 013.9-.82 7 7 0 012.93.65 5.4 5.4 0 012.32 2.14 7.29 7.29 0 01.91 3.83zm-4.13-2.17a2.93 2.93 0 00-.59-1.91 2.11 2.11 0 00-1.71-.71 2.31 2.31 0 00-1.77.72 2.7 2.7 0 00-.68 1.9zm23.98 8.03h-5.55v-20.3h5.55zm19.98-10.14a15.39 15.39 0 01-.63 4.63 9.08 9.08 0 01-1.75 3.26 7 7 0 01-2.53 1.89 7.69 7.69 0 01-6.05 0 7 7 0 01-2.52-1.9 9.2 9.2 0 01-1.73-3.25 15 15 0 01-.64-4.63 15 15 0 01.64-4.64 9.55 9.55 0 011.72-3.27 7 7 0 012.52-1.91 7.6 7.6 0 013-.62 7.48 7.48 0 013 .61 6.9 6.9 0 012.59 1.92 9.29 9.29 0 011.75 3.29 15.43 15.43 0 01.63 4.62zm-5.78 0a22.23 22.23 0 00-.37-4.42c-.24-1.15-.83-1.73-1.77-1.73a1.52 1.52 0 00-1.43 1 6.25 6.25 0 00-.59 2.22c-.07.84-.11 1.83-.11 3a21.59 21.59 0 00.36 4.49c.24 1.07.83 1.61 1.77 1.61a1.75 1.75 0 001.78-1.61 21.59 21.59 0 00.36-4.56zm20.23 9.28a13.2 13.2 0 01-2.27.76 11.38 11.38 0 01-2.76.36q-5.7 0-5.7-5.56v-6h-2.38v-.92l7.07-7.21h.6v4.47h5v3.66h-5v4.78a7.89 7.89 0 00.1 1.34 1.4 1.4 0 00.58.86 2.48 2.48 0 001.45.34 7.84 7.84 0 003.31-1zm18.23.86h-5.27V46a.91.91 0 010-.17v-.35a4.31 4.31 0 00-.45-2 1.75 1.75 0 00-1.73-.89 2.62 2.62 0 00-1.76.66 9.44 9.44 0 00-1.44 1.75v8.76h-5.27v-20.3h5.27V41a7.42 7.42 0 012.58-1.9 7.25 7.25 0 012.71-.51c3.58 0 5.36 2 5.36 6zm14.39 5.14h-2.33a17.8 17.8 0 01-1.36-1.19 13.24 13.24 0 01-1.44-1.7 10.2 10.2 0 01-1.26-2.39 9 9 0 01.3-6.7 11 11 0 011.74-2.67 24.81 24.81 0 012-1.93h2.33a23.24 23.24 0 00-1.7 2 10.22 10.22 0 00-1.27 2.68 12.1 12.1 0 000 7.34 10.41 10.41 0 001.27 2.55 24.32 24.32 0 001.72 2.01zm7.37-6.84a2.5 2.5 0 01-.9 2 4 4 0 01-2.68.77 7.75 7.75 0 01-1.76-.18 13.23 13.23 0 01-1.69-.52v-2.25a10.62 10.62 0 001.39.7 3.37 3.37 0 001.29.24c.79 0 1.19-.22 1.19-.65a.55.55 0 00-.18-.4 2.4 2.4 0 00-.59-.38c-.29-.15-.67-.32-1.14-.52a4.45 4.45 0 01-1.5-1 2.25 2.25 0 01-.61-1.59 2.32 2.32 0 01.41-1.29 2.9 2.9 0 011.23-1 4.66 4.66 0 012-.4h.71a8.2 8.2 0 011.1.21 5.3 5.3 0 011.26.48v2.18l-.47-.28a4.6 4.6 0 00-.5-.25 4 4 0 00-.74-.25 3.27 3.27 0 00-.88-.11 1.05 1.05 0 00-.75.21.63.63 0 00-.2.42.55.55 0 00.21.41 3.55 3.55 0 00.94.47 8.57 8.57 0 011.69.83 2.66 2.66 0 01.9.94 2.53 2.53 0 01.27 1.21zm10.99 2.16c-.46.18-.89.33-1.28.44a5.23 5.23 0 01-1.41.17 1.59 1.59 0 01-1.09-.28 1.43 1.43 0 01-.44-.67 5 5 0 01-1.14.68 4.13 4.13 0 01-1.63.27 3.17 3.17 0 01-1.58-.34 2 2 0 01-.84-.85 2.52 2.52 0 01-.24-1.06 2.17 2.17 0 01.41-1.37 3.12 3.12 0 011.12-.88 13.1 13.1 0 011.87-.71l1-.32c.23-.08.4-.13.51-.18l.35-.15a1.75 1.75 0 00-.26-1c-.18-.25-.56-.37-1.15-.37a4.18 4.18 0 00-1.92.45 7.12 7.12 0 00-1.63 1.18v-2.44a6.07 6.07 0 011.28-.69 6.88 6.88 0 011.43-.4 8.48 8.48 0 011.51-.14 4.79 4.79 0 012.93.76 2.47 2.47 0 011 2.07v3.45a2.2 2.2 0 00.09.73.33.33 0 00.34.25 2 2 0 00.8-.26zm-4.4-1.71v-2.12a8.44 8.44 0 00-1.64.82 1.14 1.14 0 00-.52 1 .9.9 0 00.26.69.88.88 0 00.6.23 1.33 1.33 0 00.65-.18 5.6 5.6 0 00.65-.44zm12.46 1.64a7.86 7.86 0 01-1.36.46 6.6 6.6 0 01-1.66.22q-3.42 0-3.42-3.34v-3.57H490v-.55l4.24-4.37h.36v2.68h3v2.2h-3v2.87a3.48 3.48 0 00.07.8.82.82 0 00.34.52 1.47 1.47 0 00.87.2 4.77 4.77 0 002-.63z"/><path class="cls-2" d="M504.51 50.57a8.48 8.48 0 01-.51 3 9.92 9.92 0 01-1.25 2.43 12.31 12.31 0 01-1.45 1.73c-.47.46-.93.86-1.36 1.21h-2.33a20.85 20.85 0 001.7-2 10.14 10.14 0 001.29-2.6 10.65 10.65 0 00.58-3.66 10.84 10.84 0 00-.57-3.67 10.15 10.15 0 00-1.27-2.54 24.61 24.61 0 00-1.73-2.07h2.33a17.75 17.75 0 011.92 1.77 10.88 10.88 0 011.83 2.74 8.44 8.44 0 01.82 3.66zm8.61 1.78a5.9 5.9 0 01-.38 2 6.09 6.09 0 01-1.21 1.94 7 7 0 01-2.16 1.57 10.3 10.3 0 01-3.15.92v-.92c1.54-.59 2.3-1.89 2.3-3.9v-.31a2.8 2.8 0 01-2.3-2.88 3 3 0 01.41-1.5 3.11 3.11 0 011.12-1.13 3.06 3.06 0 011.59-.43 3.23 3.23 0 012.1.68 4.27 4.27 0 011.27 1.76 6.11 6.11 0 01.41 2.2zm12.78 1.41h-5.56v-20.3h5.56zm11.82 0h-5.55v-20.3h5.55zm18.1-.86a13 13 0 01-2.26.76 11.38 11.38 0 01-2.76.36q-5.7 0-5.7-5.56v-6h-2.39v-.92l7.08-7.21h.6v4.47h5v3.66h-5v4.78a7 7 0 00.1 1.34 1.36 1.36 0 00.58.86 2.47 2.47 0 001.44.34 7.8 7.8 0 003.31-1zm18.24.86h-5.27v-7.9a2.85 2.85 0 000-.35 4.31 4.31 0 00-.45-2 1.75 1.75 0 00-1.73-.89 2.62 2.62 0 00-1.76.66 9.06 9.06 0 00-1.44 1.72v8.76h-5.27v-20.3h5.27V41a7.42 7.42 0 012.58-1.9 7.22 7.22 0 012.71-.51q5.35 0 5.36 6zm14.38 5.14h-2.32a17.8 17.8 0 01-1.36-1.19 14.09 14.09 0 01-1.45-1.7 9.82 9.82 0 01-1.25-2.39 9 9 0 01.3-6.7 11 11 0 011.74-2.67 23.28 23.28 0 012-1.93h2.32a24.9 24.9 0 00-1.69 2 9.9 9.9 0 00-1.27 2.68 11.9 11.9 0 000 7.34 10.06 10.06 0 001.27 2.55 24 24 0 001.71 2.01zm7.38-6.84a2.5 2.5 0 01-.9 2 4.06 4.06 0 01-2.68.77 7.9 7.9 0 01-1.77-.18 13.12 13.12 0 01-1.68-.52v-2.25a11.25 11.25 0 001.38.7 3.46 3.46 0 001.3.24c.79 0 1.18-.22 1.18-.65a.54.54 0 00-.17-.4 2.31 2.31 0 00-.6-.38c-.28-.15-.66-.32-1.13-.52a4.45 4.45 0 01-1.5-1 2.25 2.25 0 01-.61-1.59A2.3 2.3 0 01589 47a3 3 0 011.24-1 4.64 4.64 0 012-.4h.72a8.2 8.2 0 011.1.21 5.65 5.65 0 011.26.48v2.18l-.47-.28a4.9 4.9 0 00-.51-.25 3.76 3.76 0 00-.74-.25 3.15 3.15 0 00-.87-.11 1 1 0 00-.75.21.63.63 0 00-.2.42.55.55 0 00.21.41 3.39 3.39 0 00.94.47 8.86 8.86 0 011.69.83 2.66 2.66 0 01.9.94 2.53 2.53 0 01.3 1.2zM607 54.67h-3.16V53.4a4.71 4.71 0 01-1.41 1.07 4 4 0 01-1.76.36c-1.35 0-2.23-.4-2.62-1.18a5.83 5.83 0 01-.6-2.67v-5.26h3.16v4.84a3.21 3.21 0 00.24 1.28 1.05 1.05 0 001.06.55A1.53 1.53 0 00603 52a6.49 6.49 0 00.83-1v-5.28H607zm11.54 0h-3.17v-4.82a3.16 3.16 0 00-.24-1.29 1 1 0 00-1.06-.55 1.62 1.62 0 00-.68.14 2 2 0 00-.53.38 4.94 4.94 0 00-.39.44l-.32.44v5.26H609v-9h3.17V47a4.26 4.26 0 011.5-1.12 4.08 4.08 0 011.67-.33c2.14 0 3.22 1.29 3.22 3.85zm7.15-4.1a8.72 8.72 0 01-.5 3 10.3 10.3 0 01-1.26 2.43 12.31 12.31 0 01-1.45 1.73c-.47.46-.93.86-1.36 1.21h-2.33a20.85 20.85 0 001.7-2 10.14 10.14 0 001.29-2.6 10.65 10.65 0 00.58-3.66 10.84 10.84 0 00-.57-3.67 10.15 10.15 0 00-1.27-2.54 24.61 24.61 0 00-1.73-2.07h2.33a16.86 16.86 0 011.88 1.69 10.88 10.88 0 011.83 2.74 8.44 8.44 0 01.86 3.74z"/><rect class="cls-1" width="290" height="20" rx="5"/><path class="cls-3" d="M102.78 12.08a2.47 2.47 0 01-.84 2 3.44 3.44 0 01-2.34.73h-5.48V5.3h4.58a6 6 0 011.55.17 3 3 0 011.06.47 1.94 1.94 0 01.61.7 2 2 0 01.19.88 2.36 2.36 0 01-.2 1 2.45 2.45 0 01-.51.72 1.78 1.78 0 01-.61.4 3.85 3.85 0 011.48 1 2.23 2.23 0 01.51 1.44zM99.44 8a.91.91 0 00-.45-.9 3.16 3.16 0 00-1.41-.23H97v2.29h.61A3.26 3.26 0 0099 8.93a.92.92 0 00.44-.93zm.47 4c0-.81-.59-1.22-1.77-1.22H97v2.43h1.16c1.16-.03 1.75-.43 1.75-1.21zm13.87-1.47a4.28 4.28 0 01-.46 2.07 3.61 3.61 0 01-1.2 1.36 5.41 5.41 0 01-1.61.72 7.31 7.31 0 01-1.73.21 6.71 6.71 0 01-2.34-.41 4 4 0 01-2.67-4V5.3h2.85v4.49a3.88 3.88 0 00.27 1.55 1.9 1.9 0 00.75.89 2.22 2.22 0 001.14.29 2.3 2.3 0 001.12-.28 1.9 1.9 0 00.75-.89 3.85 3.85 0 00.27-1.55V5.3h2.86zm10.78-5.23l-3.71 5.13v4.34H118v-4.28l-3.79-5.19h3l2.17 3 2.19-3zm7.72 9.47h-7.14V5.3h7v1.9H128v1.73h4v1.91h-4v2h4.29zm10.39 0h-3.07l-.75-1.68a6.47 6.47 0 00-.74-1.35 1.62 1.62 0 00-.63-.55 2.31 2.31 0 00-.81-.12h-.32v3.7h-2.86V5.3h4.86a3.52 3.52 0 011.93.48 2.78 2.78 0 011.08 1.16 2.87 2.87 0 01.34 1.3 2.52 2.52 0 01-.28 1.21 2.23 2.23 0 01-.59.72 5.48 5.48 0 01-.69.43 2.81 2.81 0 01.76.63 8.05 8.05 0 01.81 1.48zm-3.89-6.48a1 1 0 00-.43-.91 2.73 2.73 0 00-1.4-.26h-.6V9.4h.65a3.14 3.14 0 001.43-.23.93.93 0 00.35-.88zm7.01-.97a2.65 2.65 0 01-.18.94 2.77 2.77 0 01-.57.91 3.27 3.27 0 01-1 .74 4.54 4.54 0 01-1.46.42V9.9a1.73 1.73 0 001.07-1.81v-.15a1.3 1.3 0 01-1.07-1.34 1.43 1.43 0 01.72-1.23 1.34 1.34 0 01.73-.2 1.51 1.51 0 011 .32 2 2 0 01.59.82 3 3 0 01.17 1.01zm7.62 4.68a2.61 2.61 0 01-.45 1.53 2.84 2.84 0 01-1.27 1 4.71 4.71 0 01-1.86.34h-.73a9.86 9.86 0 01-1.13-.21 8.89 8.89 0 01-1.47-.51v-2.33a11.27 11.27 0 001.41.74 3.87 3.87 0 001.48.29 1.31 1.31 0 001-.24.75.75 0 00.22-.46.78.78 0 00-.37-.64 5.32 5.32 0 00-1.08-.55 7.51 7.51 0 01-1.36-.71 3.17 3.17 0 01-1-1 2.45 2.45 0 01-.38-1.37 2.66 2.66 0 01.38-1.39 2.55 2.55 0 011.15-1 4.27 4.27 0 011.89-.37 6.75 6.75 0 011.46.15 5.85 5.85 0 011.11.35 3.23 3.23 0 01.6.3v2.27a7.66 7.66 0 00-1.29-.75 3.62 3.62 0 00-1.53-.32 1.16 1.16 0 00-.77.2.65.65 0 00-.24.51.63.63 0 00.24.48 4.18 4.18 0 00.85.5 16.58 16.58 0 011.75.92 3.52 3.52 0 011 .95 2.28 2.28 0 01.39 1.32zm14.44-1.79a4.39 4.39 0 01-.53 2.33 5 5 0 01-1.24 1.46 4.54 4.54 0 01-2.85.8h-5.12V5.3h3.94a11 11 0 011.52.09 6.85 6.85 0 011.14.26 5 5 0 01.86.37 4.53 4.53 0 01.64.45 4.79 4.79 0 01.85.94 5 5 0 01.58 1.25 5.43 5.43 0 01.21 1.55zm-2.9-.13a3.19 3.19 0 00-.44-1.8 2.16 2.16 0 00-1.06-.86 3.72 3.72 0 00-1.26-.22H161v5.61h1.22a3.55 3.55 0 001.94-.53 2.48 2.48 0 00.84-2.2zm14.37 4.69h-2.92l-.78-1.92h-4.11l-.79 1.92h-2.92L172 5.3h3.15zM175 11.2l-1.39-3.46-1.4 3.46zm14.12-5.9l-3.71 5.13v4.34h-2.86v-4.28l-3.78-5.19h3l2.17 3 2.18-3zm7.2 6.7a2.54 2.54 0 01-.46 1.53 2.78 2.78 0 01-1.27 1 4.71 4.71 0 01-1.86.34h-.72a9.58 9.58 0 01-1.14-.21 8.89 8.89 0 01-1.47-.51v-2.33a12 12 0 001.41.74 3.88 3.88 0 001.49.29 1.3 1.3 0 00.94-.24.7.7 0 00.22-.46.76.76 0 00-.37-.64A5.2 5.2 0 00192 11a7.62 7.62 0 01-1.37-.71 3.29 3.29 0 01-1-1 2.44 2.44 0 01-.37-1.37 2.65 2.65 0 01.37-1.39 2.6 2.6 0 011.15-1 4.3 4.3 0 011.89-.37 6.62 6.62 0 011.46.15 5.85 5.85 0 011.11.35 3.08 3.08 0 01.61.3v2.23a7.76 7.76 0 00-1.3-.75 3.62 3.62 0 00-1.53-.32 1.16 1.16 0 00-.77.2.65.65 0 00-.24.51.63.63 0 00.24.48 4 4 0 00.86.5 18.87 18.87 0 011.75.92 3.47 3.47 0 011 .95 2.28 2.28 0 01.46 1.32z"/><rect class="cls-2" x="328" width="300" height="20" rx="5"/><path class="cls-3" d="M439.23 8.28a3.06 3.06 0 01-.18 1 2.72 2.72 0 01-.58.93 2.91 2.91 0 01-1.09.71 4.43 4.43 0 01-1.62.27h-1.87v3.55H431V5.3h4.73a4.43 4.43 0 011.62.27 2.91 2.91 0 011.09.71 2.71 2.71 0 01.58 1 3.13 3.13 0 01.21 1zm-2.91 0a1 1 0 00-.4-.93 3 3 0 00-1.43-.24h-.6V9.4h.61a5.13 5.13 0 001.1-.09.89.89 0 00.55-.33 1.21 1.21 0 00.17-.69zM450 10.53a4.4 4.4 0 01-.45 2.07 3.72 3.72 0 01-1.22 1.4 5.3 5.3 0 01-1.61.72 7.31 7.31 0 01-1.73.21 6.71 6.71 0 01-2.34-.41 4 4 0 01-2.67-4V5.3h2.85v4.49a3.88 3.88 0 00.27 1.55 1.87 1.87 0 00.76.89 2.18 2.18 0 001.13.29 2.3 2.3 0 001.12-.28 1.9 1.9 0 00.75-.89 3.85 3.85 0 00.27-1.55V5.3H450zm10.19 1.55a2.47 2.47 0 01-.84 2 3.44 3.44 0 01-2.34.73h-5.48V5.3h4.58a5.92 5.92 0 011.55.17 2.9 2.9 0 011.06.47 1.94 1.94 0 01.61.7 2 2 0 01.19.88 2.2 2.2 0 01-.2 1 2.45 2.45 0 01-.51.72 1.78 1.78 0 01-.61.4 3.85 3.85 0 011.48 1 2.23 2.23 0 01.51 1.44zM456.85 8a.91.91 0 00-.45-.9 3.16 3.16 0 00-1.4-.21h-.6v2.27h.6a3.24 3.24 0 001.41-.23.92.92 0 00.44-.93zm.47 4c0-.81-.59-1.22-1.77-1.22h-1.16v2.43h1.16c1.18-.03 1.77-.43 1.77-1.21zm11.2 2.77h-7.2V5.3h2.86v7.2h4.34zm3.83 0h-2.86V5.3h2.86zm10.18-.71a6.53 6.53 0 01-1.21.49 7.63 7.63 0 01-1.24.27 10.8 10.8 0 01-1.29.07 6.64 6.64 0 01-2.22-.34 4.69 4.69 0 01-1.7-1 4.14 4.14 0 01-1.08-1.55 5.22 5.22 0 01-.36-2 5.16 5.16 0 01.42-2.15A4.06 4.06 0 01475 6.36a4.84 4.84 0 011.73-.9 7 7 0 012.06-.29 11.36 11.36 0 013.65.71V8.4a10.32 10.32 0 00-1.39-.73 4.13 4.13 0 00-1.61-.29 3.69 3.69 0 00-1.55.33 2.8 2.8 0 00-1.15.94 2.48 2.48 0 00-.06 2.73 2.67 2.67 0 001.07.95 3.2 3.2 0 001.53.36 5 5 0 001.3-.17 6.14 6.14 0 001-.37 9.84 9.84 0 00.87-.49zm14.41-3.85a4.39 4.39 0 01-.53 2.33 4.84 4.84 0 01-1.24 1.46 4.54 4.54 0 01-2.85.8h-5.12V5.3h3.94a11 11 0 011.52.09 6.85 6.85 0 011.14.26 5 5 0 01.86.37 4.53 4.53 0 01.64.45 4.79 4.79 0 01.85.94 5 5 0 01.58 1.25 5.43 5.43 0 01.21 1.55zm-2.9-.13a3.19 3.19 0 00-.44-1.8 2.16 2.16 0 00-1.06-.86 3.63 3.63 0 00-1.26-.22h-1.22v5.61h1.22a3.55 3.55 0 001.94-.53 2.45 2.45 0 00.78-2.2zm14.37 4.69h-2.92l-.78-1.92h-4.11l-.79 1.92h-2.92l4.19-9.47h3.16zm-4.35-3.57l-1.39-3.46-1.4 3.46zm14.15-5.9l-3.71 5.13v4.34h-2.86v-4.28l-3.78-5.19h3l2.17 3 2.18-3zm7.2 6.7a2.54 2.54 0 01-.46 1.53 2.78 2.78 0 01-1.27 1 4.71 4.71 0 01-1.86.34h-.72a9.58 9.58 0 01-1.14-.21 8.89 8.89 0 01-1.47-.51v-2.33a12 12 0 001.41.74 3.88 3.88 0 001.49.29 1.28 1.28 0 00.94-.24.7.7 0 00.22-.46.76.76 0 00-.37-.64 5.2 5.2 0 00-1.07-.55 7.62 7.62 0 01-1.37-.71 3.29 3.29 0 01-1-1 2.44 2.44 0 01-.37-1.37 2.65 2.65 0 01.37-1.39 2.6 2.6 0 011.15-1 4.33 4.33 0 011.89-.37 6.78 6.78 0 011.47.15 6.36 6.36 0 011.11.35 3.23 3.23 0 01.6.3v2.27a7.76 7.76 0 00-1.3-.75 3.56 3.56 0 00-1.53-.32 1.16 1.16 0 00-.77.2.65.65 0 00-.24.51.63.63 0 00.24.48 4.33 4.33 0 00.86.5 17.65 17.65 0 011.75.92 3.65 3.65 0 011 .95 2.35 2.35 0 01.44 1.32z"/></g></g></svg>