<svg xmlns="http://www.w3.org/2000/svg" width="139" height="139" viewBox="0 0 139 139" enable-background="new 0 0 139 139"><style type="text/css">.st0{fill:#AAAAAA;}</style><path class="st0" d="M20 24.5l.3-.3c-.1-.2-.2-.4-.4-.6.1-.1.2-.2.3-.2.5 0 .8-.2.7-.9-.6.2-1.1.3-1.8.5l-.4-.6c-.5.5-.9 1-1.3 1.5.9.1 1.7.3 2.6.6zM24.2 24c-.5.5-1 1-1.4 1.5l.2.6-.3.1-.2-.4-1.8 2c-.2.4-.4.8-.9 1.1-.5.6-1 1.2-1.4 1.8.5.3 1 .6 1.4.9.1.1.1.5.1.7.6-.9 1.3-1.7 2-2.5-.1.1-.4-.1-.8-.3.4-.2.7-.4 1.1-.5 0 .4-.1.6-.1.7l1.2-1.4c-.4-.1-.7-.2-1-.5-.3-.2-.4-.6-.3-.8.1-.2.4-.4.7-.4h2.2l1.8-1.8c-.4.1-.8.2-1.3.4-.5-.4-.8-.8-1.2-1.2zM18.4 26.1s0 .1.1.1c.3-.4.7-.8 1.1-1.2-.5.2-.8.7-1.2 1.1zM17.3 26.9c.1-.3.2-.7.4-1.1-1 .3-1 .3-.9 1.2-.9-.1-.7-.8-.7-1.3-.1-.8 1.1-.2 1.1-1-.1-.1-.2-.2-.2-.3l-1.7 2.1c-.2.3-.3.6-.5 1l-.1-.2-.4.5c.5-.1 1 0 1.5-.4s.9.1 1.4.6l.3-.4c-.2-.2-.2-.4-.2-.7zM119.6 32.6h.7l.1.9c-.1.1-.2.1-.3.1 1 1.4 1.9 2.8 2.8 4.3.4 0 .8 0 1.3-.1-1.1-.9-1.1-.9-.7-2.2.5.7 1 1.3 1.6 2l.1-.3c-1.3-2.2-2.6-4.3-4.1-6.3-.4.7-.7 1.4-1.5 1.6zM17.6 27.2l.2-.3c-.2 0-.4-.1-.5-.1.1.2.2.3.3.4zM17.3 26.9zM127.2 41.2l-.9-1.8-.4.6c-1.1 0-.5-1-.8-1.6-.4.6-.7 1.1-1 1.7.2.4.4.7.5 1.1l.4.2-.1.4c.7 1.3 1.3 2.7 1.8 4 .3-.8.7-1.5 1.6-1.9l-.9-1.9c-.1.1-.2.2-.4.3-.1.1-.3 0-.5-.1.3-.3.5-.6.7-1-.1-.1 0-.1 0 0zm-1 2.8c0-.4.1-.8.1-1.4.4.8.4.8-.1 1.4zM19.9 113.9c-7.3-8.2-12.7-18.1-15.3-29.2v.1c-.2-.3-.2-.5-.1-.7 0-.2-.1-.4-.1-.5l-.4-.2.3-.3c-.2-.8-.3-1.5-.4-2.3-.6-.5-1.3-.3-2-.1h-.1c.3.5.4 1 .1 1.5l-.1.3.1.7.2.1.3.3c-.2.3-.3.3-.4.4 2.1 9.9 6.4 18.9 12.2 26.7-.1-.1-.1-.3-.1-.5 0-.1.2-.2.3-.2.4.2.5.5.3.9-.3 0-.4 0-.5-.2 1.3 1.7 2.6 3.3 4 4.9l.3-.3c.4-.5.9-.9 1.4-1.4zm-16.1-26.9c.2.1.4.2.5.3l-.2.3-.5-.4.2-.2zm.7 1.7c-.2-.1-.3-.2-.6-.3l.9-1.1.2.1c-.2.4-.4.9-.5 1.3zM71.7 25.1c-.1.3-.2.5-.3.6l-.5 5.5.1-.6h.3l-.1.7c-.1 0-.2 0-.3-.1l-.1.9c-.1.6 0 1.2.3 1.6.3.4.7.6 1.2.7.5.1 1-.1 1.3-.4.4-.4.6-1 .7-1.6l1.2-12.1c-.2-.2-.3-.7-.5-1l.6-.2v-.3c.1-.6 0-1.2-.3-1.6-.3-.4-.8-.6-1.2-.6-.5-.1-1 .1-1.3.4-.4.4-.6 1-.6 1.5l-.3 2.9c.4.5.9.8.6 1.6-.3-.2-.5-.4-.6-.7l-.2 2.6c-.2.1-.1.1 0 .2zm2.9 1.3l-.5-1.4c.7.4.9.6.5 1.4zm-.5-6.2c-.2-.5-.4-.8-.6-1.2 1-.1 1-.1.6 1.2zm-1.2 8.9c.2.5.3.8.4 1.2-.9-.2-.9-.2-.4-1.2zM83.9 18c-.4-.2-.9-.2-1.3 0s-.7.5-.8.9c-.1.2-.1.4-.1.6v11.399999999999999h.1c0 .4 0 1-.1 1.3v1.9l.1 1.2c.1.4.3.7.5 1 .6.6 1.4.9 2.3.9.4-.1.7-.2 1-.4.3-.2.6-.5.9-.8.3-.3.6-.6.9-1l7.9-9s0-.1.1-.1l.4-.5.4-.5.3-.5c.1-.3.1-.5.1-.8-.1-.3-.2-.6-.4-.8-.2-.2-.4-.4-.7-.5-.3-.1-.7-.2-1-.1-.3.1-.5.2-.7.4-.2.2-.5.5-.9 1l-7.9 9.5.4-12.3v-.4c-.1.6-.6.9-1.3 1.3l.5-1c.2-.3.4-.6.6-1 .1.2.1.4.1.5 0-.4 0-.9-.1-1.3-.4-.4-.8-.8-1.3-.9zM3.4 53.9c.8.8.8.8.7 1.9l-.9-.5-.1.4c.2.6.5 1.1.7 1.8 1.3-7.5 3.9-14.5 7.5-20.9l.1-.7h.3v.1l1.3-2.2c0-.2 0-.4-.1-.6h.3v.2l1-1.6c0-.3-.1-.4 0-.5.1-.1.2-.2.4-.3l.1.1c.4-.6.9-1.3 1.4-1.9.1-.4.2-.9.1-1.3 0-.1-.1-.1-.2-.2-.9.3-.7 1.5-1.6 1.9.4-.7.1-1.2-.3-1.6-1.4 1.8-2.7 3.8-3.8 5.7.4.1.7.4 1.1.3-.5.8-.5.8-1 .5-.1-.1-.3-.2-.5-.2l-1.8 3.2s.1 0 .1-.1h.1c.2-.5.4-.9.8-1.6.1 1 .1 1.1-.8 1.6v.1l.2 1.2c-.2-.3-.5-.5-.7-.7-2.1 4.2-3.8 8.6-5 13.2.7 1 .9 1.9.6 2.7zm9.8-21.5c0-.4 0-.7-.1-1.4 1.2.6.7 1 .1 1.4zM2 83.5h-.2v.1c.1 0 .2-.1.2-.1zM1.8 55.6c.3 0 .6.1 1 .1v-2.4c-.1 0-.3-.1-.5-.1-.2.8-.4 1.6-.5 2.4zM3.5 59l-.2-.3c.1.1.2.2.2.3zM33.5 16.9c.2.1.2.5.3.7-.2 0-.4.2-.6.1-.3-.1-.7-.3-1.1-.4l-.6.4c0 .3-.1.6-.2.8-.3.5-.6.9-1.1 1.4v-1.1c-1.7 1.4-3.4 2.8-5 4.3.2.3.3.7.3 1.2.9.1.3-.7.7-.9.2.4.4.8.7 1.2 1.6-1.5 3.3-3 5-4.3-.1-.4-.1-.7-.2-1.2.3.4.5.6.6.8 1.5-1.1 3.1-2.2 4.7-3.2-.5-.1-1-.6-1.5-.4.7-.3 1.4-.4 2.2-.1 8.3-5 17.9-8.1 28.1-8.7-.1-.1-.1-.2.1-.4s.6-.4 1-.4l-.5.8h1v-2.2c-1.2 0-2.4.1-3.6.2l.1.4c0 .1-.3.5-.5.6 0-.1-.4-.3-.4-.5v-.5c-11.1 1.1-21.3 5.1-30 11.2.1 0 .3.1.5.2zm-4.7 5.2c-.1.1-.3.1-.4.1-.3-.3-.5-.7-.9-1.2.5-.1.8-.2 1.1-.1.3.1.5.3.7.5-.1.3-.3.6-.5.7zm12.7-10.2c.4.7.6 1 .8 1.4-.9-.1-.9-.1-.8-1.4zm-1.4.9c.2.5.3.8.4 1.1l-.2.2c-.3-.2-.5-.3-1.1-.7.3-.2.5-.4.9-.6zM71.8 6.6c-.3.3-.6.6-.9.8 17.1.4 32.5 7.7 43.5 19.3 0-.1-.1-.3-.2-.4-.1-.2-.5-.5-.5-.7.2-1.3-.4-2.3-.8-3.4-10.9-10.3-25.6-16.6-41.7-17l.6 1.4zM64.8 82.7zM106.6 102.6l-.2.7c-.3.4-.6.7-.9 1l.9-.3c-.1.6-.1.6-.9.3-.2.2-.4.3-.7.5l1.1.3c.5.1.8.2.8.2v-2.8c0 .1 0 .1-.1.1zM65.4 114.3zM105.5 104.3zM25.1 52.3c0-.6-.1-1.1-.2-1.7v-.6c.5-.3.8-.1.9.4.1.6.2 1.1.2 1.7 0 .4-.1.8-.3 1l.9 1.5c.2.4.5.7.6 1 .1.2.3.4.5.5.3.2.8.3 1.2.3.4-.1.8-.3 1.1-.7.3-.3.4-.8.3-1.2-.2-.6-.5-1.2-.9-1.7l-1.3-2 2.7-3.6c0-.9 0-1.8-.1-2.7-1.2.9-2.1 1.7-3.2 2.6l-1.1 1.4-.4-.6c-.2.6-.5 1.1-1.3 1.2-.3-1 .5-1.2 1.1-1.5l-2.5-3.9c.1.3.1.6.3.8.2.2.4.4.5.7.3.7.8 1.3.3 2h-.4c-.5-1.2-1-2.5-1.5-3.9-.3 0-.7 0-1.2.1l-.1-.2.9-.5.2-.7-.1-.1h.1l.3-1.2c.2-.7 0-1.4-.6-1.9l-.2-.2-.6-.1c-.2 0-.4 0-.6.1l-.2.7v-.6h-.2c-.4.2-.7.5-1 .8-.3.3-.4.7-.5 1.2-.1.4 0 .7.1 1.1.1.4.3.8.6 1.1l.6 1.1 3.3 5.6c.2-.1.4-.2.7 0 0 .4 0 .7-.1 1.1l1.2 1.6zm-4.7-8.2c-.4-.5-.6-.7-.8-.9.3-.6.6-1.1.9-1.5h.2c-.1.6-.2 1.3-.3 2.4zM64.1 114.2l.5.2c-.2-.1-.4-.1-.5-.2zM106.6 102.6c.1 0 .1 0 .1-.1v-.9c-.2-.4-.2-.8 0-1l-.1-8.9v-3.3000000000000003h2.2l.3-1c.1-.3.1-.7.1-1.1l-.7-.3-.4-.1h-.1l-.3-.1h-.1c-.1-.1-.3-.1-.5-.2l4.7-12 1.3-3.3-.6.4c-.1-.1-.1-.2-.2-.2.2-.2.5-.4.7-.5l.1.1.2-.4-2-.2v1.2c-.9.2-1.1.2-.8-1.2-.5 0-.8 0-1 .1-.3.2-8.3 9-12.1 13.1-.1 0-.2-.1-.4-.1-.8-.2-1.7-.4-2.6-.7l.1.1c-.5-.1-.9-.2-1.6-.3l.3-.1c-1.1-.3-2.3-.6-3.5-.9-.1 0-.2 0-.2-.1 0 .1 0 .3.1.4.2 1 .5 2.1 0 3.1.2.1.2.6.7.4-.1.6-.1 1.3-.2 2l2.5.3h.4c1.1.1 2.2.2 3.3.4h.3l.6 1.5.1.3c.8 2.2 1.9 4.8 2.9 7.3l.3-.9c1.1.1 1.6.9.8 1.5-.6.5-.4.9-.4 1.4l.5 1.3c0 .1.1.2.1.4.1.3.2.6.3.8.1.1.1.2.1.3.2.6.4 1.1.6 1.5 0 0 0 .1.1.1.1.2.2.4.2.5.1.2.1.3.2.4v.1c0 .1 0 .1.1.2l.1.1h.3c.1-.3.2-.9.5-1.4.2-.5.6-.3 1-.2.6.2 1.1.9 1.6.2zm-9.6-17.8c.4.2.7.2 1 .3-.4.2-.4.2-1-.3zm7.6-6.9c.4.9.4.9-.2 1.5-.5-.6.1-1 .2-1.5zm-.7 6c-.2.2-.5.3-.8.6-.1-.7.2-.9.8-.6zm-1 15.1h-.3l.1-.7h.3c0 .2-.1.4-.1.7zm3.5-3.3c-1.5 1-.7 2.7-1.3 4-.2.3-.2.7-.6 1-.1-.2-.2-.5-.2-.7.2-.5.4-1-.2-1.5-.2-.1-.1-.7 0-1.1l.6-1.5c-.4-.4-.7-.8-1.1-1.1-.4-.7-.8.1-1.2-.2.1.5.1 1 .2 1.4h-.2l-.9-1.7c-.3-.5.1-.7.5-.8.4 0 .7.1 1.2.2l.4-1.4c1.1.7 1.1 1.3.1 2.4.3.1.6.1.8.2l.5.3c.2.1.4.1.5.1.1-.6.2-1.2.4-1.8 0-.1.5 0 .7 0 .2.7-.8 1.1-.2 1.8.1.2 0 .4 0 .4zM89.2 83.1c-.1-.7.1-1.5-.5-2.2-.1-.1-.1-.2-.1-.4l-2.9-.7-.8.7-.3-.2.1-.8h-.1l-3.8-.9c-.1 0-.2 0-.3-.1l-1.2-.3.5.5.2.7-.8-.2c.2.4.4.8.4 1.2 0 .2-.1.5-.3.7-.1.1-.4 0-.5-.1-.1-.3-.2-.6-.1-.9l.4-.9c-.1-.3-.2-.7-.4-1.2-4.3-1-8.7-2.1-13-3-.1 0-.1.1-.1.1v-.1h-.1l.3-.6c.4-2 .7-3.8 2.1-5.2-.8-.2-.8-.2-.2-1-.2-.2-.5-.4-.7-.7.3-.3.6-.6.9-.8.6.2.8.6.8 1l1.6-3.6h.9s0-.1.1-.1c.1-.1.1-.2.1-.4 0 0 0-.1-.1-.1l-.4-.2h-.2l.2-.5c.1-.3.2-.6.3-1h.1l1.1-2.5.5-1.1h.8l.1-.1c.1-.1.1-.2.1-.4v-.1l-.4-.2c-.1 0-.1 0-.2-.1l2.1-5h.8l.1-.1c.1-.1.1-.2.1-.4v-.1l-.4-.1c-.1 0-.2 0-.2-.1v-.1c-.1-.4-.2-.8-.2-1.2 0 0 .3-.1.4-.1.2.1.3.2.3.3l1.4-3.1-.8.1c-.1.2-.1.6-.3.8-.2.2-.7.1-1.1-.2.2-.2.4-.4.7-.6-.3-.1-.7-.2-1-.2l-.6.6-.1.1c-.2.2-.4.4-.7.6v.1c-.1.1-.2.1-.2.2h-.1c-1.5 1.4-3.3 3.2-5.4 5.1.1.2.2.5.3.8h-1.2c-2.3 2.2-4.8 4.6-7.1 6.9-.7-.1-1.4-.3-2.1-.3-.6-.1-1.2-.1-1.8 0v.30000000000000004s-.1.1-.1.2-.1.2-.1.2c-.3.7-.5 1.5-.6 2.3v.6c0 .3 0 .6.1.9 0 0 .1 0 .3.1-1.2 1.2-2.4 2.3-3.4 3.2l-.4.4-1.8 1.8c-1.1-.2-2.1-.5-3.1-.7-2.2-.5-4.1-.9-5.6-1.2l-.5-.1-.7-.1-.5-.1c-.2 0-.4-.1-.5-.1-.1 0-.2-.1-.4-.1-.3 0-.5-.1-.7-.1-7.6-1.4-14.2-.3-14.7 2.5-.4 2.3 3.5 5 9.2 6.7.1-.2.3-.3.7-.5l-.1.7c1 .3 2 .5 3.1.7.2 0 .4.1.7.1.1 0 .3 0 .4.1.1 0 .3 0 .4.1l.6.1c.1 0 .2 0 .4.1.7.1 1.5.2 2.5.4l1.1.2h.2l1.1.2c.1-.1.3-.1.6-.2l-.2.3 1 .2c1 .1 2 .3 3.1.5.3.7.6 1.4 1 2.2.6 1.4 1.4 3 2.2 4.7h-.3c-.1.2-.3.5-.4.8v.1s0 .1-.1.1c0 .2-.1.3-.1.4-.2.7-.3 1.5-.3 2.2v.8999999999999999c.5.2 1.1.4 1.7.6.7.2 1.4.3 2 .4.7 1.4 1.3 2.8 2 4.3.1.1.3.2.2.3 0 0 0 .1-.1.1.7 1.6 1.5 3.1 2.2 4.6l.2.4.6 1.2c.2.3.3.6.5 1 .1.2.1.3.2.4.2.3.3.6.4.9 0 .1.1.2.2.3.2.4.4.8.5 1.2.3.7.7 1.4 1 2l.1.3v.1l.4.9v.1c.3.6.5 1.1.7 1.5v.1c.1.2.2.3.2.4v.1c.1.1.1.2.1.2v.1c.4-.4 1-.4 1.6-.3l-.2-5h.6000000000000001l.1-.1c.1-.1.1-.2.1-.4v-.1c-.2-.1-.4-.2-.5-.2h-.1c-.1 0-.1 0-.2-.1l-.2-5.4h.6000000000000001s.1 0 .1-.1c.1-.1.1-.2.1-.4v-.1c-.2-.1-.4-.2-.5-.2h-.2l-.2-3.7-.1-1.8h.6000000000000001l.1-.1c.1-.1.1-.2.1-.4v-.1c-.2-.1-.4-.2-.5-.2h-.1l-.2-.1-.2-5.4h.6000000000000001l.1-.1c.1-.1.1-.2.1-.4v-.1c-.2-.1-.3-.2-.5-.2h-.1c-.1 0-.1 0-.2-.1v-.4l-.6-.1-.5 1.3c-1.2-.2-1.2-.2-2.2-1.2 1.1-1.4 0-2.8.1-4.3 0-.2 0-.4.1-.7 0-.1.2-.1.4-.2.1.8.2 1.6.3 2.7l1.4-1.4c.3-.3.5-.3.8-.1v-1.1l-.3.3c-.5-.6-.3-1.1.3-1.5l.6.5c-.2-.4-.4-.9.3-1.2l-.3 1.2-.5.6c.3 0 .6.1.8.1-.1-.1-.1-.2-.2-.4.4-.3.9-.7 1.4-1.1-.1.6-.2 1.1-.4 1.6l13.7 1.9c.2 0 .4 0 .5.1l3.5.5.6.1 3.6.4c.4 0 .8.1 1.1.1.2 0 .3 0 .5.1-.3-.6-.6-1.2-1-1.7.4-.2.7-.4 1-.6-.1-.2.1-.7 0-1.2zm-19.7-19.5c.4.2.7.3.9.5-.1.1-.1.3-.2.3-.3-.1-.9.1-.7-.8zm-32.3 8.4l-.3-.3-.3-1c.7.1 1.3.1 1.9.2 0 1.2-1.2.2-1.3 1.1zm16 15.4h-.2v-.7h.3c0 .2 0 .4-.1.7zm-.4-2.7l-.2-.2c.1-.2.3-.4.4-.7.1.1.2.2.4.3-.2.3-.4.4-.6.6zm3.7-15.3v-.2l.8-.2c0 .1 0 .2.1.3-.4 0-.7 0-.9.1zm1.7 24.6c.1-.1.1-.2.2-.2.1-.1.2-.1.4-.2l.1.3c-.3 0-.5 0-.7.1zm2.3-2.2c-.3.2-.6.3-.9.6-.7-1.1.1-1.8.5-2.7.1.3.4.9.3.9-.7.5.4.6.1 1.2zm-.3-12.6h-.1s-.1-.1-.1-.2c.2-.2.4-.5.7-.8.1.2.1.3.1.3-.2.3-.4.5-.6.7zm1-1.4h.4v1.3h-.1c-.1-.5-.2-.9-.3-1.3zm.3 4.7v-1h.1v1h-.1zm-.2-7.3c-.4-.5-.7-.8-1-1.1.4-.5.8-1 1.3-1.5.3.8-.1 1.5-.3 2.6zm1.4-.6l.2-.6c.4-.3.8.1 1 1.1-.5-.2-.8-.3-1.2-.5zm5.2-10.5l.2.8h-.3c0-.3 0-.5-.1-.8h.2zm-2.7-7.1c.9.3 1.7.7 2.4 1 .1.8-.4.7-.7.7-.4 0-.8.1-1.1 0-.5-.1-.6-.4-.6-1.7zm-1.1 10.7c.1 0 .3 0 .4.1v.7h-.4v-.8zm1.1 12.9c-.3 0-.5.3-.9.5l.9-4.9c.6 1 1.1 1.8 1.6 2.7 0 0-.2.3-.3.5-.2 1.1-.2 1.1-1.3 1.2zm3.4-4.6c-.1.4-.4.9-.3 1.2.6 1 .1 1.9-.2 2.7-.3.9-.4 1.6 0 2.4.1.1 0 .3 0 .6-.6-.1-.6-1.3-1.5-.4.3-.8 1-1 .5-1.7.3-1.4.7-2.7.8-4.1 0-.2.5-.5.7-.7l.8.4c-.4.4-.5.4-.8-.4zm9 6.3c-.6 0-.5-1.2-1.2-.6-.5.4-.8-.2-1.2.1v-.4c.6-.1 1.2-.3 2-.4-.6.5 1 .5.4 1.3zM89.7 84.4zM103.7 94.9zM2.5 60.6c.8-.2.4.6.7.9 0-.4.1-.8.2-1.2-.4-.5-.6-1-.4-1.7.1-.5-.3-1.1-.5-1.7-.3.3-.5.6-.9.9l-.2-.6c-.7 3.9-1.1 7.9-1.1 12v1.5c0-.3 0-.6.1-.9.1-.4.1-1.1.4-1.2.8-.3.8-.9.7-1.5-.1-.6-.2-1.1.5-1.4 0 0-.1-.4-.1-.7.4.1.6.1.8.1l.1-1.4c-.6-.8-1.2-1.7-.3-3.1zm-.4 3.8c.1-.1.2-.3.2-.3.2 0 .3.1.5.3-.2.1-.3.2-.4.2-.1 0-.2-.1-.3-.2zM52 18.5c-.3.5-.4 1.1-.3 1.7l1.4 10.6h.1v.1l.3 2.5c0 .6.3 1.1.7 1.5.4.3.9.5 1.4.4.3 0 .6-.2.9-.3-.1 0-.3-.1-.3-.1l-.3-.6.2-.1c.2.2.4.4.6.7.1-.1.1-.1.1-.2.3-.5.4-1.1.3-1.7v-.6l-.6-4.9 1.2-.2c.5-.1 1.1-.1 1.6 0s1 .4 1.3.8c.6.5 1.1 1.1 1.6 1.8l1.7 2.1c.4.5.7.9 1 1.1.2.3.5.5.8.6.3.2.7.2 1 .1.3 0 .6-.1.9-.3.2-.2.4-.4.5-.6.1-.2.2-.5.1-.7-.1-.4-.3-.8-.5-1.2-.4-.6-.8-1.2-1.3-1.8-.5-.7-1.1-1.3-1.8-1.8-.6-.5-1.3-.9-2-1.2 1.1-.3 2-.9 2.8-1.7l.3-.3c.7-.9.9-2.1.7-3.2-.1-.6-.3-1.2-.6-1.7-.1-.2-.2-.3-.3-.4v.5h-.1v-.7c-.2-.3-.4-.5-.7-.7-.5-.4-1-.6-1.6-.8-.5-.1-1-.2-1.6-.2-.7 0-1.4.1-2.1.2l-2.5.3c-.1.2-.2.3-.4.5 0-.1 0-.3-.1-.4l-2.7.4c-.7-.2-1.3 0-1.7.5zm3.9 15.1c-.1-.5-.2-.8-.3-1.5.8.6.8.9.3 1.5zm.5-15.2h2.5c-.1 1-1 1.2-1.6 1.5l1.3-.2c.8-.2 1.7-.2 2.5-.1.4.1.8.3 1.1.7.3.3.5.8.5 1.2.1.5 0 1-.3 1.5-.3.4-.7.7-1.2.9-.7.2-1.4.4-2.1.5l-3.2.4-.6-4.7.9-.1c0-.5.7-1 .2-1.6zm-2.2 2.6c.1 0 .2 0 .3.1l-.2.9c-.1 0-.2-.1-.4-.1l.3-.9zm-.7 2.3v-1c.7.4.6.7 0 1zM31.6 27.9v.1s.1 0 .1.1c.5 0 1-.4 1.4.4-.4.3-.7.6-1.1.8-.7-.4-.4-.8-.3-1.2v-.1c-.1 0-.1 0-.1-.1-.2.2-.2.4-.3.6-.1.6.1 1.2.4 1.7l.3.6.6.2c0 .3.1.6.1.8l-.1.1 5.9 9.8c.3.5.7.9 1.2 1.1.5.1 1 .1 1.4-.2.4-.2.7-.6.8-1.1.1-.6-.1-1.2-.4-1.6l-2.9-4.8 1.1-.7c.4-.3.9-.5 1.5-.6.5-.1 1 0 1.5.1l1.5.6v-.4l.3.6c.1.1.2.1.4.2l2.4 1.3c.1 0 .1 0 .2.1.1-.2.2-.4.3-.5.3-.6.8-.8 1.5-.8.6.1 1 .4 1.3 1l.2.6c.2-.1.4-.3.5-.5 0-.1 0-.1.1-.2l-.1-.1.3-.6c0-.2-.1-.4-.2-.6-.3-.3-.6-.6-1-.8-.6-.4-1.3-.8-1.9-1.1-.8-.4-1.6-.7-2.4-1-.7-.2-1.5-.3-2.3-.3 1-.8 1.7-1.9 2-3.2.2-1.1 0-2.3-.7-3.2-.3-.5-.7-1-1.2-1.4-.5-.4-1-.6-1.6-.8-.6-.1-1.2-.2-1.8-.1-.5.1-1 .2-1.5.5-.6.3-1.2.6-1.8 1l-5 3-.6.7zm1.8 2.1c-.2.1-.5.1-.8.2 0-.2 0-.3-.1-.5h.8c.1.2.1.3.1.3zm1.1.1v-.5h.2c.2.3.6.6-.1 1.3-.1-.4-.1-.6-.1-.8zm.5 4.9v-1.2h.3c0 .3 0 .6.1.9l.5-.1c0 .1 0 .1.1.2-.4 0-.7.1-1 .2zm2.8-8c.7-.5 1.4-.8 2.2-1.1.4-.1.9 0 1.3.2s.7.5 1 .9c.3.4.4 1 .4 1.5-.1.5-.4 1-.8 1.3-.5.5-1.1.9-1.7 1.3l-2.7 1.7-2.5-4.1 2.8-1.7zm-2 .6v-1c.6.3.2.6 0 1zm-.8-1.2c.1.2.1.4.2.7-.5-.1-.9-.2-1.3-.3.2-.8.8-.3 1.1-.4zm-1.5.7c.3.2.6.4.8.7-.2.6-.6.5-.9.3-.2-.3-.4-.7.1-1zM37.3 43.1c-.5-.3-1-.5-1.6-.6l-3.1-.8.1 2.8.1.8 1.8.5c.3.1.6.2 1 .2.3.1.6.1.9.1.2 0 .4-.1.6-.2.2-.1.4-.3.6-.5.3-.4.4-.8.3-1.3 0-.1 0-.2-.1-.3l-.3.2c0-.3-.3-.7-.3-.9zm-.2 2.3c-.2-.5-.9-1 0-1.8.1.7.2 1.2.4 1.8h-.4zM10.5 49.8l.3-.2.1.2c.7-2.2 1.6-4.3 2.5-6.3-.8.2-1 0-1-.5 0-.1.3-.3.5-.4.2.2.3.5.6.8 1.7-3.6 3.7-7 6-10.2-.2-.4-.5-.8-.7-1.3l-.5-.9c-.6.8-1.2 1.7-1.8 2.6l.3.2c.3-.1.7-.3 1.2-.5.4.3.7.7.2 1.4-.7-.2-1.5-.6-1.6 1-.2-.7-.3-1.1-.4-1.6l-.8 1.2v.2-.1c-2.6 4.2-4.8 8.7-6.4 13.5l.4.2c-.3.3-.5.3-.8.3v.1l.9.3c-.6.4-.9.5-1.1.3-.7 2.2-1.2 4.5-1.7 6.8l.1.1-.1.1c-.3 1.4-.5 2.8-.7 4.3l-.1 1.9-.1-.1c-.1.7-.1 1.3-.1 2 .4 0 .6-.2.8-.5.5-.7.6-.7 1.4-.6.4-4.8 1.3-9.5 2.8-13.9-.1-.2-.1-.3-.2-.4zm.1-2.6c-.2.3-.4.6-.7 1-.3-.8-.2-1.2.7-1zM29.3 13c.1-.1.2-.1 0 0 .1 0 .1-.1.1-.1l-.1.1zM25.5 41.5c-.5-.7-.8-1.1-1.1-1.6l-.2-.5h-.2c-.1 0-.2-.1-.4-.1l.1.2c.4.5.4.9 0 1.4-.2.2-.4.5-.4.7v.9l2.8.9c-.1-.3-.2-.6-.2-.9.1 0 .2 0 .2-.1l.2 1 3.2 1c.6-.9.8-1.8.5-3v-.3l-5-1.4c.2.5.3 1.1.5 1.8zM29.7 15.1l-.5.9.6-.5v-.2c.1-.1 0-.2-.1-.2zM21.5 22.9l2.6-2.6c-.1-.5 0-.6.7-1.2.4-.4.7-.9 1-1.4.1.2.2.5.3.8.6-.6 1.3-1.1 2-1.6-.3-.3-.6-.6-.9-1 .6-.1 1.1.1 1.6.5l.1-.1c-.1-.5-.4-.8-1.1-.9-.3 0-.5-.3-1-.5 1-.7 2-.5 3.2-.5-.5-.3-.7-.4-.9-.6-.2-.1-.3-.3-.4-.5-1.5 1.1-3 2.3-4.5 3.6.1.1.2.2.3.4.3.8-.1 1.3-1.3 1.8-.4-.7.2-.8.5-1.1l-.3-.3-2.5 2.3.2.2-.1.1c-.1 0-.2 0-.3-.1-.2.2-.4.5-.7.7l1.6-.2c-.1.8-.1 1.5-.1 2.2zM131.9 39.1c-.2-.5-.5-1-.8-1.5l-.8 1.3c0-.7-.5-1.4.4-2-.6-1.2-1.3-2.3-2-3.5-.3-.2-.5-.4-.6-.7-.1-.2-.2-.5-.2-.7-2-3.1-4.2-6-6.6-8.7-.1 0-.2.1-.4.1-.1.7.6.3.9.6l-1.6 1.2c-.1.1-.2.2-.2.3.2.2.4.4.6.7.4 0 .7 0 .7.3.1-.5.6-.8 1.3-1.1-.4.7-.6 1.2-.9 1.8.1.2.3.5.6.9l1.3-.7c.2.3.5.7.7 1.1-.1.3-.3.6-.3.9-.1.4-.1.7-.2.9l.8 1.1 1.1-.5c-.5-.1-.9-.2-1.3-.3l.2-.9 1.5.5c-.3.7-.6 1.3-.9 2.1l.9 1.4c0-.1 0-.2.1-.2.4.7.7 1.2.8 1.6.9 1.5 1.7 3 2.4 4.5.2 0 .5 0 .6-.1.1.4 0 .7-.2 1 .4.8.8 1.7 1.1 2.5 0-.1.1-.2.3-.3l-.3-2.4c.3-.5.7-.9 1-1.2zm-5.9-5.9l.8-1.6c.5 1 .5 1-.8 1.6zM132.7 58c-.4.6-.8.5-1.3 0 .3-1 .8-.1 1.2-.1-.8-4.6-2.2-9.1-3.9-13.4-.9.5-1 1.5-.9 2.2.1.5 0 .8-.2 1.1 2.5 6.7 3.8 13.9 3.8 21.4l-.1 3.9c.4.1.8.2 1 .3.3.6.5 1.2.8 1.9-.4-.1-.8-.2-.8-.3-.2-.9-.6-.8-1.1-.3-.1 1.4-.3 2.7-.5 4.1.2-.3.5-.5.5-.8.5 1.1.5 1.1-.6 1.7-4.3 24.9-23.5 44.8-48.1 50v.7999999999999999c.4 0 .7.3.7.7-.8 0-.9 0-.7-.7-.3.2-.7.5-1.1.8l.5.9c.7-.1 1.5-.3 2.2-.5-.1-.3-.1-.6-.2-1l2.1-.5c.5.3.7.4.7.7 4.2-1.2 8.3-2.8 12.1-4.8 0 0 0-.1.1-.1v.1c9.2-4.7 17-11.6 23-20-.4-.8-.3-.8.3-1.5.4-.4.9-.8.7-1.6-.1-.2.1-.6.2-.8.4.5.6 1 .5 1.5 6.4-10 10.1-21.8 10.1-34.5 0-3.8-.4-7.5-1-11.2zm-2.2-5l-.3-.2.5-2c.1.9.3 1.6-.2 2.2zm-46.2 76.8h-.6v-.3l.7-.1c0 .2 0 .4-.1.4zm18.2-6.6c-.5-.4-.5-.7-.2-1.1h.3c-.1.3-.1.6-.1 1.1zm16.8-13.8c-.5-1 .5-.9.8-1.1-.2.4-.5.8-.8 1.1zm4.2-8.1c0-.9.3-1.4.7-1.2.2.1.4.6.3.6-.2.2-.6.4-1 .6zm7.2-19.7c0-.3-.1-.5-.1-.6.1-.2.2-.4.4-.7.5.6 0 .8-.3 1.3zm1.7-2.9l-.2-.6c.1 0 .2 0 .3-.1l.1.6c0 .1-.1.1-.2.1zM118.5 20.3h-.1l-.2-.3c-.2-.2-.4-.4-.7-.6.1.2.1.3.2.6h-.3c-.3-.9-.9-1.2-1.7-1.1.5.6 1 1.2 1.6 2 .3 0 .8.1 1.3.2l-.2 1.5h1.1c0-.4 0-.7.1-1-.4-.6-.7-.9-1.1-1.3zM74.8 132.2c-.3.3-.4.4-.5.6-.1.1-.1.2-.1.3.3 0 .5 0 .8-.1-.1-.2-.2-.5-.2-.8zM116.8 27.5c-.4-.2-.9-.5-1.5-.8l-.3.6 1.1 1.2c.2-.3.4-.6.7-1zM113.6 48.5l.3.3 1-.5v-.2c-.3-.8-.2-1.9.6-2.6-.2-.1-.4-.1-.7-.2l.7-1.1c.1-.1.1-.2.1-.3l-7.9 4.3.2.3c-.3.2-.5.8-.7 1.5-.1.6-.3 1.2-.6 2 .4-.3.7-.5 1-.7-.1 1.1-.2 1.2-1.5 1.6l.4.5-.2-.3 6.9-3.7c.1-.5.2-.7.4-.9zm.2-1.6l.3.7-.5.1-.1-.8c.1 0 .3-.1.3 0zm-6.5 3.7l1.1-1.6c.7 1 .7 1.1-1.1 1.6zM69.6 5.2c-1.1-.2-1 .7-1.2 1.4.6 0 .4-1.2 1.3-.7-.2.6-.6.9-1.3.7-.1 0-.4-.1-.4 0 0 .3 0 .5-.1.8h1.5c.8-.3.8-1.6 1.7-2.2h-1.5zM127.4 47.2zM73.1 131.5l.6-.6c-1.4.1-2.7.2-4.1.2-10.7 0-20.8-2.7-29.6-7.5-.2.3-.3.5-.4.7l-.2.7-.9.2c1.1.6 2.3 1.2 3.5 1.8.1-.6.9-.7.9-1.3.1.6-.2 1-.6 1.4l1.7.8c.2-.8.4-.7 1.3-.5l-.9.7c6.2 2.7 12.9 4.3 19.9 4.9l-.3-.9h1.6v1c1.3.1 2.7.1 4 .1.7 0 1.3 0 2-.1l.1-.3c.4-.4.9-.8 1.4-1.3zm-14.4.8l-.3-.2.6-.9.3.3c-.2.2-.4.5-.6.8zM33.8 11.8c-.4.5-.7.9-1.3 1.6-.1-.7-.2-1.3-.3-1.8-1.1 0-1.1.2-.4 1.6l-.6.6c-.3.3-.3.6 0 .8 1.2-.9 2.5-1.7 3.7-2.5-.5.2-.6.2-1.1-.3zM32.5 121.5v-.3h.2v.5c1.4 1 2.9 2 4.4 2.8l1.1.1c.5-.2.5-1.1 1.4-1.3-5.7-3.1-10.8-7.2-15.2-11.9l-.3 1.2c-.2-.1-.4-.1-.7-.2.1.4 0 .8-.1 1 2.9 3.1 5.9 5.7 9.2 8.1zM81.2 130l-1.1.2c0 .3 0 .6-.1 1l-.4-.2.1-.7-2.7.4c-.6.7-.7 1.4-.7 2.3l4.3-.6c.2-.8.3-1.7.6-2.4zm-3.5 2.1c-.2-.2-.4-.5-.5-.7 0 0 .2-.1.3-.2l.6.7c-.1 0-.3.1-.4.2zM24.1 111.1c-8.2-8.9-13.9-20.3-15.7-32.9-.1.8-.7 1.4-1 2.1l-.3-.1.9-2.6.3.1-.2-1.3c-.4-.4-.8-.7-1.3-1.1l1-1.7c-.1-1.4-.2-2.9-.2-4.3 0-1.5.1-3 .2-4.4-.1.3-.3.6-.5.9-.5-.2-1-.1-1.3.5 0 .3-.2.7-.4 1.3v1.7c0 4.2.4 8.3 1.2 12.2 0 0 .1 0 .1-.1.1.5.2 1 .3 1.7h-.1c2.4 11 7.6 20.9 14.9 29l.3-.3c.4-.5 1-.6 1.8-.7zm-14.7-22.1c-.1 0-.2 0-.4-.1l.2-.7h.3c-.1.3-.1.6-.1.8zM118.1 46c-.1.1-.1.3-.1.4l.3-.4c0-.1-.1 0-.2 0zM32.6 124.9c-4.1-2.7-7.8-5.9-11.2-9.4l-.7.6c-.4.2-1 .3-1.6.4 4 4.3 8.6 8 13.5 11.2v-2.8zM1.7 80.7c.4-.3.7-.6 1-.6l.9.1c-.5-3.1-.8-6.3-.9-9.5h-.3l.3-.9v-.4c-.2-.1-.4-.3-.7-.4-.1.6-.3 1.3-.4 1.8-.5 0-.8.1-1.2.1.1 3.4.4 6.7.9 10 .2-.1.3-.1.4-.2zm-.1-5.9c0 .5-.1.9-.2 1.4 0 0-.1.1-.3.1.1-1 .3-1.9.4-2.8h.1c0 .5.1.9 0 1.3zM46.2 4.3v1.1c-.5-.4-.8-.6-1.1-.9l-.8.3-.1.2c0-.1 0-.1-.1-.2l-2.4 1 .3.9c.3.1.5.2.9.4-.2.2-.2.3-.3.3-.6.3-1-.6-1.2-.4-.6.4-.8.2-1.1-.2-.3.2-.5.3-.7.4l1.3.9c-.2.2-.3.5-.2.9 8.8-4.2 18.6-6.6 29-6.6 13.2 0 25.5 3.9 35.9 10.5l.1-.2h.3v.4c2.2 1.4 4.3 2.9 6.2 4.6-.3-.8-.2-1.8-.4-2.6-.1-.3-.3-.6-.3-.9-1.2-.9-2.4-1.8-3.7-2.6v.1c-.1-.1-.1-.2-.1-.2-11-7.3-24.1-11.5-38.1-11.5-8.4 0-16.4 1.5-23.9 4.2.2.1.4.1.5.1zm-3.6 1.9c1-.2 1.1-.1 1.2.8l-1.2-.8zm5.4-1.9c-.1.2-.1.4-.3.8-.4-.4-1.1.1-1.2-.8h1.5zM97.2 34.4c.1 0 .3.3.4.4-.2.2-.4.5-.6.4-.3 0-.7-.2-1.1-.3l-3.8 1.8-1 .5c-.2.1-.4.3-.6.5-.3.3-.4.7-.4 1.2 0 .4.2.9.5 1.2.2.2.5.4.8.4l.1-.1s-.1-.4-.2-.6c.4-.1.8-.2 1.5-.4 0 .3-.1.6-.1.8l.9-.4.3-.2c0-.1.1-.3.2-.5l.2.3 1.4-.7 4.1 3.8.9.4-.3.1.6.6-.8 2.2v.1c.5-.2 1-.4 1.6-.6v1l-.8-.4-.2.2c.2.4.4.7.6 1l-1.3 1.5-.2-1.9v.1c-.1.3-.2.6-.2.9 0 .2 0 .4.1.6.1.2.2.4.4.6.3.3.8.5 1.2.5.4 0 .8-.2 1.1-.5.3-.4.5-.9.7-1.3l-.1.1c-.1 0-.3-.2-.3-.2l.3-.4.2.2.4-1.1-.2.2c-.4-.5-.3-1 .1-1.4.2-.2.5-.4.6-.7l.2-.3.4-1c.1-.4 0-.9-.3-1.3-.2-.3 0-.8 0-1.3.9.1.8.7.8 1.2l1.5-4c-.3.2-.7.2-1.3-.1-.2-.1-.5.1-1 .3.6.2.8.3 1.2.5-.6.8-.8 1.8-1.9 2.1 0 .3 0 .6-.1.9l-.2.9-.3-.1.5-.8c-.2-.2-.4-.3-.5-.5l.6-.4v-.1c-.1-1.8.2-2.4 1.8-3.9.3.2.6.4.9.4l.6-.5c-.4-.1-.7-.2-.9-.2 0-.5-.1-1.2.1-1.6.3-.5 1-.8 1.6-1.2 0 .4 0 .6.1 1 .1-.3.2-.6.2-.9v-.4l-1.3-.6c.1-.5.2-.7.6-.5h.3c-.1-.2-.3-.4-.5-.6-.3-.3-.7-.5-1.1-.6-.4-.1-.7-.1-1.1 0l-1.2.4c-.4.2-.8.4-1.1.5l-5.9 2.9c.2-.1.3-.1.3-.1zm-.9 2c-.1 0-.2 0-.2-.1l.3-.7c.1 0 .2.1.2.1-.1.3-.2.5-.3.7zm3.4 4.7c.2-.4.3-.6.4-.9.2.1.3.1.3.2.2.5 0 .7-.7.7zm0-5.8c-.1.3-.2.6-.4.9-.5-.6.1-.7.4-.9zm5.3-1.4l-.6 1.5c.2-.2.4-.4.6-.5.3.3.5.5.9.7-.7.5-1.4 1-2.1 1.4l-.6 1.4c.1.5-.2 1-.6 1.5.1.4.3.7.4 1.3-.7-.5-.7-.5-.4-1.3l-.4 1-3.9-3.6 6.7-3.4zM85.8 130.3l-.9 1.1 1-.3c-.1-.2-.1-.5-.1-.8zM80.8 136.6c-.1.4-.2.7-.3 1 6.1-1 11.9-2.7 17.3-5.2-.1-.2-.2-.4-.3-.7-.1.4-.2.7-.3.9h-.2v-1.2c.6 0 1.2-.2 1.4.4 0 .1-.1.3-.2.5l2-.9v-.5c.2-.1.5-.1.8-.2.7-.2 1.5-.4 1.7-1.1.3-.9.8-.9 1.5-.7 0-.5-.2-1.2 1-1l-1 1-.5.6c1-.5 1.9-1.1 2.9-1.7l.2-.4v.3c5.1-3.3 9.8-7.1 13.8-11.6l-.6-.3c.5-.2.9-.2 1.1-.2l1.7-1.9-1.8-.3v-.2h2.3c3-3.7 5.6-7.6 7.8-11.8v-.1l.1-.1c1.9-3.7 3.5-7.5 4.7-11.5-.2.1-.4.3-.9-.2.5-.1.8-.1 1-.2.6-1.9 1.1-3.8 1.5-5.7-.3 0-.6 0-.8.1-.4-.4.1-1.4-1-1.2 1-.3 1.3.4 1.9 1.1.4-1.8.6-3.6.9-5.4 0 0-.1 0-.1.1v-.1c0-.3.1-.5.3-.7.2-1.3.3-2.6.4-4-.1-.6-.1-1.2.1-2 0-.7.1-1.4.1-2 0-5.2-.6-10.3-1.7-15.2-.3 0-.6-.1-.7-.2-.4-.3-.6-.9-1-1.4.3-.3.7-.5 1.1-.8-.2-.6-.4-1.3-.5-1.9-.7-.3-1.3-.3-1.9.4-.3-.5-.5-.8-.7-1.1.3-.6.5-1.2 1.3-.5-.1-.2-.1-.4-.3-.8.7.4.6.8.4 1.2.3 0 .5-.6.9-.2l-.7-2.1c-.3.5-.3.5-1.2-.1l.9-.8-.4-1-.2.7c-.4-.5-.4-.6.1-.9-.4-1.1-.9-2.2-1.4-3.3 0 0 0 .1-.1.1-.1-.2-.2-.4-.1-.5l-.3-.6h-.3c-.7-.1-.8.4-.7.9.4.3.9.6 1.2.8-.4.8-.7 1.5-1 2.2 3.2 7.8 5 16.3 5 25.2v.2l.4.3c0-.2 0-.3-.1-.6.5-.1 1-.1 1.1.6-.4 0-.7 0-1-.1-.1.4-.3.7-.5 1.1-.5 21.5-11.1 40.5-27.4 52.4.2.1.4.3.7.4 0 .1-.2.4-.2.6-.4.1-.7-.1-1-.7-.8.6-1.7 1.2-2.5 1.7.1.8-.2 1.3-1.2 1.3.1-.2.2-.3.2-.4.1-.2.3-.4.4-.5-5.9 3.8-12.5 6.6-19.5 8.4.1.2.2.3.3.6l-.8.4c.2-.4.3-.7.4-.9-2.4.6-4.9 1.1-7.4 1.4 0 .1.1.3.2.5-.4-.1-.6-.3-.7-.4-1.8.2-3.7.4-5.6.5v.5s0 .1-.1.1-.2.1-.2.1c-.6-.1-1.3-.4-1.8.2-.4.4-.9.8-.8 1.5h.3c3.5 0 6.9-.3 10.2-.8-.4-.8 0-1.2.4-1.4zm55.9-76.6c-.8-1.4.3-2.6.2-3.9l.3.9c.1.4.1.8.3 1.2.6 1 .6 1-.8 1.8zm1.2 14.6h.3c.3.5.1.9-.5 1.5.1-.6.1-1 .2-1.5zm-1.9 6c0 .6 0 .6-.6.7.2-.2.4-.4.6-.7zm-1 2.9c.2.4.3.7.5 1.2-.9-.1-.9-.6-.5-1.2zm-1.2 5.6c.1 0 .2.1.2.1l-.4.7h-.1c.2-.3.2-.5.3-.8zm-3.5 12.6c-.1.5-.2.9-.3 1.2-.5-.3-1.1-.7-1.7-1.2h2zm-22.6 22.5l-.1 1c-.6-.5-.5-.7.1-1zM39.6 7.2v-.3c-.3.2-.6.3-1 .5l.2.2c-.2.4-.5.8-.8 1.3-.3-.2-.7-.4-1.1-.6-1.2.6-2.4 1.3-3.5 2v.9l1.7.8c.7-.4 1.3-.8 2-1.1l-1.3-1.5c.5.1.9.1 1.4.3.3.1.8.3.9.6v.1l.6-.3-.1-.9c.5-.6 1.2-1.1 1-2zM122.9 104.7c-.3.2-.5.6-.7 1 .3-.4.5-.7.7-1zM136.7 52.4l-.1-.4-.2.4h.3zM107.2 60.6c.2.4.5.8 1 1 .4.1.8.1 1.1-.1l.2-.1c.1-.1.2-.2.3-.4h.1l.2-.4c.1-.5 0-1-.3-1.4l-.2-.4c-.3.1-.6.2-.9.4 0-.1-.1-.2-.1-.2.3-.2.5-.4.8-.5l-2.8-5.1-.7 1.4c-.3-.5-.7-.8-.8-1.2-.4-1.2-.3-1.1.3-2 .4-.6.6-1.3 1.3-1.7.1-.1.2-.4.1-.5l-.3-.6-2.5 1.4c-.5.2-1 .7-1.2 1.2-.1.6 0 1.2.4 1.7l1.1 2.1c.6 0 .7.1.6 1l2.3 4.4zm.7-1s.2.1.3.3l-.5.3-.1-.3c.1-.2.2-.3.3-.3zm-4.4-6.6l-.3-.8c.7.2.7.2.3.8zM69.7 136.1h-.7l-.2.2c-.1-.1-.1-.2-.2-.2-1.3 0-2.6-.1-3.9-.2l-.1.3c-.1-.1-.2-.2-.2-.3-8.4-.6-16.3-2.8-23.5-6.3 0 .3-.2.4-.5.5l-.3-.2c.1-.1.2-.3.3-.5-2.4-1.2-4.7-2.5-6.9-3.9.1 1.2-.1 2.1-.4 2.6 5.1 3.2 10.7 5.7 16.6 7.5.4-.5.9-.9 1.8-.9-.1.5-.1.9-.2 1.3 4.4 1.2 9 2 13.7 2.3.2-.3.3-.5.3-.8h.3l-.1.8 2 .1c.3-.3.6-.4 1.1-.4.2-.9.2-1.2 1.1-1.9zm-15.4-.8l-.2-.3.7-.4.1.2c-.2.2-.4.4-.6.5z"/></svg>