<svg xmlns="http://www.w3.org/2000/svg" width="519" height="49" viewBox="0 0 519 49"><defs><style>.cls-1 { fill: #e71a1e; } .cls-1, .cls-2 { fill-rule: evenodd; } .cls-2 { fill: #004fdf; }</style></defs><path id="極上体験" class="cls-1" d="M329.841 39.284h6.25c3.4 0 4.812-1.2 5.412-4.6l2.523-14.3a35.142 35.142 0 0 0 1.5 9.1 31.056 31.056 0 0 1-3.553 3.7l2.556 5.35c.909-.9 1.574-1.55 3.394-3.65a29.962 29.962 0 0 0 2.974 4.4l4.888-5.6a19.583 19.583 0 0 1-3.871-4.7 66.476 66.476 0 0 0 6.605-18.451h-11.5l-1.111 6.3h6a32.863 32.863 0 0 1-2.414 6.6 21.661 21.661 0 0 1-.939-5.45l-4.444 1.95 1.72-9.751h-4.551c.247-.55.8-1.7.98-2.15h17.3l1.182-6.7h-31.557l-1.185 6.7h7.15a46.628 46.628 0 0 1-4.043 7.9h8.1l-2.778 15.751a2.689 2.689 0 0 1-.438 1.35 1.932 1.932 0 0 1-1.353.3l2.8-15.851h-10.752l-1.032 5.85a25.087 25.087 0 0 1-2.948-6.25l.256-1.45h3.7l1.235-7h-3.7l1.464-8.3h-6.8l-1.464 8.3h-4.8l-1.235 7h4.2a37.69 37.69 0 0 1-7.52 13.151l.758 10.151c.9-1.1 2.262-2.9 4.671-8.051l-2.971 16.851h6.8l3.7-21a22.489 22.489 0 0 0 1.58 3.8l2.77-5.5-1.72 9.751h6.4zm2.416-16.251l-1.067 6.05h-2.2l1.067-6.05h2.2zm-11.157 17.051l-1.146 6.5h33.1l1.146-6.5h-33.1zm63.88-39.852l-6.7 38h-18.5l-1.376 7.8h47.4l1.376-7.8h-20.854l3.034-17.2h18.3l1.384-7.85h-18.3l2.284-12.951h-8.05zm42.115 39.6a70.641 70.641 0 0 0 5.717-5.2l-.97 5.5h6.3l-1.323 7.5h7.4l1.323-7.5h6.3l.961-5.45a37.989 37.989 0 0 0 3.478 4.95l5.358-7.7c-1.724-1.85-6.26-6.75-9.428-16.851h11.55l1.314-7.45h-13.8l1.314-7.45h-7.4l-1.314 7.45h-12.852l-1.314 7.45h11c-3.729 5.55-10.511 13.1-16.173 16.851l3.387-19.2a55.318 55.318 0 0 0 5.126-12.051l-7.236-.65a40.853 40.853 0 0 1-10.757 17.9l.106 10.451a20.021 20.021 0 0 0 3.227-2.7l-3.872 21.951h7.25l2.646-15zm7.123-6.65a60.592 60.592 0 0 0 6.729-8.951l-1.579 8.951h-5.15zm14.121-8.9a42.511 42.511 0 0 0 3.63 8.9h-5.2zm62.817-10.3c1.356 1.1 2.027 1.55 2.83 2.1l4.223-6.65a20.379 20.379 0 0 1-9.155-9.051h-7.754a32.19 32.19 0 0 1-11.656 9.1h-4.144l.423-2.4h5.251l.97-5.5h-19.5l-4.913 27.852h13.951c-.42 2.1-2.085 9.551-2.7 10.751a2.84 2.84 0 0 1-2.883 1.6h-3.9l.21 5.9h4.75c3.25 0 4.791-.8 6.464-5.75l2.536 5.75a27.032 27.032 0 0 0 12.48-9.8c2.121 6.4 7.5 9.1 9.336 10l4.632-6.7a14.608 14.608 0 0 1-8.068-6.7h6.95l2.778-15.751h-9.05l.4-2.25h5.1zm-16.592 2.5h4.6l-.4 2.25h-8.4l-2.778 15.751h6.2a22.168 22.168 0 0 1-9.976 6.95c1.649-5.1 2.34-8.45 4.142-17.251h-5.052l.432-2.45h4.151l.908-5.15h-4.15l.432-2.45h4.15l.556-3.15 1.774 5.25a37.58 37.58 0 0 0 3.856-2.3zm-14.736-2.35l-.433 2.45h-3.25l.432-2.45h3.251zm1.243-7.05l-.423 2.4h-3.248l.423-2.4h3.25zm-2.584 14.651l-.432 2.45h-3.255l.432-2.45h3.25zm21.027-11.2a40.818 40.818 0 0 0 4.9-4.8 30.537 30.537 0 0 0 3.253 4.8h-8.15zm3.572 18.3a31.968 31.968 0 0 0 .976-4.4h3.251l-.777 4.4h-3.45zm-9 0l.776-4.4h3.05a23.4 23.4 0 0 1-1.026 4.4h-2.8zm-27.446 2.8a35.259 35.259 0 0 1-3.832 10.951l2.542 2.6a52.793 52.793 0 0 0 4.15-13.351zm4.065.2c-.1.55-.147 1.4-.217 1.8a64.468 64.468 0 0 1-1.985 7.851l3.071-.4c.141-.8.646-3.1.9-4.55.212-1.2.538-3.9.629-4.7h-2.4zm3.536-.2a45.358 45.358 0 0 1-.964 8.3l2.538-.5a55.265 55.265 0 0 0 .629-8.1zm3.438-.5a36.425 36.425 0 0 1-.344 7.05l2.239-.5a36.346 36.346 0 0 0 0-6.8z"/><path id="_4つ_" class="cls-1" d="M185.848 3.532l-24.155 23.551-1.437 8.151h23.3l-1.358 7.7h8.15l1.358-7.7h6.4l1.323-7.5h-6.4l4.269-24.2h-11.45zm-.968 24.2h-14.9l17.97-17.4zm26.8 16.451c9.542.05 14.274-.7 17.848-1.4 4.191-.8 19.112-3.75 21.917-19.651 1.852-10.5-4.366-17.2-14.567-17.2-3.15 0-6.836.2-18.13 2.15-5.31.9-7.471 1.25-10.492 1.65l.365 8.7c15.619-3.5 20.981-4.7 25.981-4.7 8.05 0 9.051 5.1 8.293 9.4-2.135 12.1-14.683 13.5-31.589 13.251z"/><path id="選べる_の_" class="cls-2" d="M48.848 34.733a31.921 31.921 0 0 1-7.633-2.65h8.15l.935-5.3h-7.15l.432-2.45h5.9l.847-4.8h-5.9l.229-1.3h-6.8l-.229 1.3h-6.9l.229-1.3h-6.85l-.229 1.3h-5.75l-.847 4.8h5.75l-.432 2.45h-6.55l-.935 5.3h8.951a41.314 41.314 0 0 1-8.283 2.45l2.533 4.35c-4.362-1.35-4.654-3.95-4.821-5.55l2.584-14.651h-11.653l-1.243 7.051h4.35l-1.933 10.951a32.9 32.9 0 0 1-5.624 3.25l1.324 7.8a44.682 44.682 0 0 0 8.462-6.3c1.1 1.7 3.292 5.15 12.892 5.15h23.454l2.844-7.05h-3.952zm-14.869.1a37.03 37.03 0 0 0 8.672 4.7h-17.101a38.1 38.1 0 0 1-4.815-.2 48.876 48.876 0 0 0 9.244-4.5l-3.065-2.75h10.751zm2.8-10.5l-.432 2.45h-6.9l.432-2.45h6.9zm-18.273-10.351c-.467 2.65.742 3.45 2.842 3.45h8.952c2.85 0 3.823-3.25 4.444-5.35l-5.236-.65c-.479 1.3-.676 1.85-1.676 1.85h-1.952c-.8 0-.779-.4-.682-.95l.256-1.45h8.446l1.685-9.551h-15.2l-.741 4.2h8.856l-.291 1.65h-8.5l-.106.6a42.061 42.061 0 0 0-6.475-7.25l-6.176 5.251a33.657 33.657 0 0 1 6.572 8.1l5.876-4.95zm18.242-8.45h9.3l-.291 1.65h-9.1l-1.288 7.3c-.053.3-.37 2.95 2.98 2.95h10.2c3.05 0 4.094-3.65 4.585-5.3l-5.468-.75c-.37 1.25-.585 1.9-1.535 1.9h-3.15c-1.15 0-1.062-.5-.974-1l.247-1.4h9.2l1.686-9.551h-15.651zm65.52 26.252c-8.28-6.35-16.846-15.9-17.226-16.3-2.959-3.35-5.039-5.45-8.489-5.45-4.1 0-6.915 2.35-13.588 8.151-3.724 3.25-5.444 4.5-6.662 5.45l3.745 7.4q5.7-5.55 11.532-10.951c1.144-1.1 2.026-1.85 3.127-1.85.75 0 1.294.6 2.933 2.65.947 1.15 10.708 13 18.241 19.051zm-5.181-18.252a30 30 0 0 0-3.9-7.65l-4.687 2.45a29.61 29.61 0 0 1 3.833 7.751zm7.35-4.25a27.065 27.065 0 0 0-4.121-7.25l-4.733 2.45c1.818 2.45 2.153 3.1 4.036 7.45zm13.862-6.6l-1.367 7.75 17.613-.35c-19.78 14.9-21.971 16.551-26.618 19.651l3.786 6.6c10.859-9.4 15.579-13.2 23.58-13.2 8.45 0 9.5 4.85 8.957 7.9-.67 3.8-3.494 6.2-7.973 7.5a11.759 11.759 0 0 0 .45-1.7c.723-4.1-1.545-8.251-7.546-8.251-4.8 0-10.421 2.95-11.347 8.2-.185 1.05-1.355 9.1 11.6 9.1 14.4 0 21.877-6.95 23.332-15.2 1.182-6.7-2.136-14.251-12.337-14.251a13.462 13.462 0 0 0-4.556.6c1.829-1.3 2.35-1.7 11.029-8.1l1.1-6.25h-29.702zm12.019 36.752a9.272 9.272 0 0 1-1.936.2c-1.15 0-4.724-.15-4.274-2.7.265-1.5 1.732-2.45 3.633-2.45 3.5 0 2.991 3.45 2.93 3.8a5.112 5.112 0 0 1-.353 1.15zm146.937 6.3c2.7-.3 10.444-1.1 16.1-5.4a25.413 25.413 0 0 0 9.658-16.2c2.517-14.252-6.023-20.552-17.524-20.552a28.453 28.453 0 0 0-28.361 23.3c-1.385 7.851 1.607 14.7 8.358 14.7 13.4 0 19.913-26.152 20.931-30.5 5.621.45 9.845 4 8.372 12.351-2.373 13.451-13.682 14.351-19.153 14.751zm1.5-34.3c-3.057 11.951-7.636 21.751-11.436 21.751-2.851 0-2.607-4.5-2.272-6.4.22-1.252 2.142-12.153 13.707-15.353z"/></svg>