<svg xmlns="http://www.w3.org/2000/svg" width="31.33" height="31.33" viewBox="0 0 31.33 31.33">
  <defs>
    <style>
      .cls-1 {
        fill: #e60000;
      }

      .cls-2 {
        fill: #fff;
      }
    </style>
  </defs>
  <title>numberdticket_03</title>
  <g id="レイヤー_1" data-name="レイヤー 1">
    <circle class="cls-1" cx="15.67" cy="15.67" r="15.67" transform="translate(-6.45 17.03) rotate(-48.53)"/>
  </g>
  <g id="_2のコピー" data-name="2のコピー">
    <path class="cls-2" d="M9.45,20.52a8.94,8.94,0,0,0,5.37,1.56c3.34,0,4.43-1.79,4.43-3.27S18,15.94,15,15.94h-2.1V13h1.95c2.48,0,3.32-1.43,3.32-2.6,0-1.73-1.56-2.45-2.94-2.45a6.47,6.47,0,0,0-4.83,2.28L9.15,7.12a9,9,0,0,1,6.14-2.4c3.57,0,6.31,2.1,6.31,5.37a4.38,4.38,0,0,1-2.45,4.06,5.23,5.23,0,0,1,3.62,5c0,2.79-2.11,6.11-7.95,6.11a12.76,12.76,0,0,1-6.39-1.61Z"/>
  </g>
</svg>
