<svg xmlns="http://www.w3.org/2000/svg" width="433" height="29" viewBox="0 0 433 29"><defs><style>.cls-1 { fill: #004fdf; fill-rule: evenodd; }</style></defs><path id="豪華ファミリーディナーを堪能_" class="cls-1" d="M1.766 28.844a45.857 45.857 0 0 0 9.264-3.03l.016 2.97h3.57a4.568 4.568 0 0 0 4.871-4.14 8.63 8.63 0 0 0-2.285-7.62 2.717 2.717 0 0 0 .3-.15h1.29c.415 6.15 3.206 9.03 6.711 11.609l4.126-3.15a17.211 17.211 0 0 1-4.817-3.81 17.064 17.064 0 0 0 4.569-2.43l-2.181-2.309a13.738 13.738 0 0 1-3.939 2.43 8.677 8.677 0 0 1-.787-2.34h4.23l.085-.48h3.69l.948-5.37h-27.446l-.948 5.37h3.63l-.085.48h4.65a27.864 27.864 0 0 1-8.62 1.59l.468 2.79a53.367 53.367 0 0 0 10.4-2.64l.365.48a45.719 45.719 0 0 1-12.091 3.206l.475 2.58a48.515 48.515 0 0 0 12.564-4.05 4.236 4.236 0 0 1 .238.69 41.122 41.122 0 0 1-14.127 4.414zm9.721-3.24a35.722 35.722 0 0 0 3.794-1.95c-.254 1.95-1.364 1.95-1.964 1.95h-1.83zm-3.638-10.83l.169-.96h18.482l-.169.96h-18.482zm-.515-4.56h20.909l.831-4.714h-20.909zm17.008-2.88l-.18 1.02h-12.09l.18-1.02h12.09zm-7.3-5.73h-11.788l-.546 3.091h28.349l.543-3.095h-11.907l.233-1.32h-4.65zm20.544 5.13l-.6 3.39h2.28l-.275 1.56h-4.02l-.63 3.57h4.02l-.286 1.62h-2.275l-.62 3.51h10.23l-.228 1.29h-11.702l-.667 3.78h11.7l-.593 3.36h4.44l.593-3.36h11.7l.667-3.78h-11.7l.228-1.29h10.23l.62-3.51h-2.34l.286-1.62h4.02l.63-3.57h-4.02l.275-1.56h2.34l.6-3.39h-4.62l.231-1.319h6.3l.651-3.69h-6.3l.249-1.44h-4.5l-.254 1.44h-6.72l.254-1.44h-4.44l-.254 1.44h-6.36l-.646 3.69h6.36l-.233 1.32h-4.62zm9.631 3.39l-.3 1.68h-3.717l.3-1.68h3.72zm8.1 0l-.3 1.68h-3.66l.3-1.68h3.66zm-8.671-3.39l.233-1.32h6.721l-.233 1.32h-6.72zm-.313 8.4l-.307 1.74h-3.72l.307-1.74h3.72zm8.1 0l-.307 1.74h-3.66l.307-1.74h3.66zm14.683-11.969l-.831 4.71h18.629c-2.09 6.06-5.446 12.839-19.208 15.179l1.3 4.53c18.418-3.39 22.586-16.469 24.379-24.419h-24.269zm27.674 25.079c7.274-3.48 9.574-7.5 11.033-12.029l2 2.79a18.315 18.315 0 0 0 9.443-12.03h-21.6l-.72 4.08h16.254a12.877 12.877 0 0 1-5.236 4.68c.279-.9.476-1.68.858-3.33l-4.435-.03c-.9 4.77-1.751 9.24-9.683 12.539zm51.176-23.944a90.966 90.966 0 0 0-19.787-2.79l-1.613 4.38c9.1.6 14.323 1.62 19.637 3.3zm-3.733 8.91a70.443 70.443 0 0 0-17.666-2.91l-1.632 4.32a69.418 69.418 0 0 1 17.5 3.18zm1.683 9.84a87.238 87.238 0 0 0-22.675-3.42l-1.746 4.62c3.17.06 12.776.36 21.977 3.81zm14.867-20.815h-5.04l-2.907 16.465h5.04zm14.579-.51h-5.07l-2.319 13.14c-1.075 6.09-5.861 7.71-14.391 8.28l.985 4.62c8.168-.9 16.67-2.67 18.6-13.619zm4.638 10.29l-.884 5.01h26.459l.884-5.01h-26.459zm35.426-9.66l-.762 4.32h19.376l.185-1.05-1.591.18a26.922 26.922 0 0 0-.021-3.45h-17.19zm20.948 2.16a19.153 19.153 0 0 0-.374-4.38l-2.488.33a20.441 20.441 0 0 1 .171 4.47zm-24.292 5.4l-.789 4.47h11.007l-.147.66c-.146.66-1.008 4.35-3.475 6.09-2.089 1.47-5.1 2.07-8.029 2.49l1.237 4.375c3.076-.6 7.306-1.62 10.412-4.26a16.826 16.826 0 0 0 4.805-8.7l.146-.66h9.48l.789-4.47h-25.439zm28.107-5.43a18.978 18.978 0 0 0-.43-4.53l-2.518.33a22.573 22.573 0 0 1 .33 4.59zm15.337 10.68a62.216 62.216 0 0 0 8.087-6.39l-3.157-2.85a42.994 42.994 0 0 1-9.739 7.59 46.911 46.911 0 0 1-10.734 4.56l1.683 3.72a46.785 46.785 0 0 0 8.9-3.69l-1.753 9.93h4.44zm13.558-7.8l-.816 4.62h10.74l-.133.75a11.837 11.837 0 0 1-4.05 7.14 21.717 21.717 0 0 1-7.877 3.84l2.045 4.05c3.009-.9 12.857-3.84 14.965-15.779h10.042l.816-4.62h-9.99l1.048-5.94h-4.974l-1.048 5.94h-10.771zm30.26 4.65l-.885 5.01h26.459l.884-5.01h-26.461zm41.441-11.28c-.319.96-.618 1.8-1.032 2.79h-6.42l-.768 4.35h5.25c-1.518 2.82-2.838 4.86-8.109 9.57l2.732 3.39c.7-.72 3.972-4.32 4.794-5.07.787-.72 3.313-2.79 5.653-2.79a1.94 1.94 0 0 1 1.716.81c-4.545 2.13-8.5 4.47-9.128 8.04a4.213 4.213 0 0 0 2.512 4.8c1.4.57 3.51 1.02 7.92 1.02.66 0 1.265-.03 6.711-.12l.784-4.625c-3.483.36-7.323.36-7.623.36-3.12 0-5.444-.09-5.11-1.98.259-1.47 1.932-2.28 3.926-3.21-.344 1.95-.459 2.43-.635 3.09h4.65c.114-.48.234-.99.362-1.71a30.773 30.773 0 0 0 .432-3.3 65.653 65.653 0 0 1 7.254-2.01l-.37-4.53c-1.389.39-3.88 1.08-7.062 2.28a4.068 4.068 0 0 0-4.2-2.73 9.241 9.241 0 0 0-3.693.87 19.153 19.153 0 0 0 1.371-2.16h12.419l.768-4.35h-11.07c.256-.6.456-1.05.929-2.37zm28.731 17.729l-1.81 10.26h4.139l.165-.93h13.619l.667-3.78h-13.622l.407-2.31 2 2.1a8.666 8.666 0 0 0 3.312-5.34h1.26l-.5 2.82a1.406 1.406 0 0 0 1.6 1.83h3.69c1.71 0 2.345-1.05 3.058-3.39l-2.984-.6c-.3 1.02-.409 1.47-.889 1.47h-.57a.472.472 0 0 1-.424-.66l.26-1.47h5.1l.656-3.72h-2.55l1.583-8.97h2.01l.636-3.6h-2.01l.333-1.89h-4.229l-.334 1.89h-6.389l.334-1.89h-4.17l-.334 1.89h-2.039l-.636 3.6h2.04l-1.583 8.97h-2.79l-.63 3.57c-.667.21-.732.24-1.424.42l1.276-7.23h1.92l.778-4.41h-1.92l1.2-6.81h-4.11l-1.2 6.81h-2.7l-.779 4.41h2.7l-1.472 8.34c-1.6.39-2.43.51-3.3.66l-.277 4.8c3.709-.96 7.386-2.25 9.208-2.88l.638-3.96h1.08zm13.262-8.85l-.228 1.29h-6.389l.227-1.29h6.39zm-.662 3.75l-.243 1.38h-6.39l.243-1.38h6.39zm-6.66 5.1a4.173 4.173 0 0 1-2.335 3.03l.535-3.03h1.8zm8-12.689l-.233 1.32h-6.39l.233-1.32h6.39zm6.989 22.949h4.23l1.085-6.15h3.9l-.275 1.56a.615.615 0 0 1-.616.6h-2.28l.076 3.99h4.109a2.753 2.753 0 0 0 2.469-2.43l2.881-16.319h-12.27zm10.846-15.389l-.3 1.68h-3.9l.3-1.68h3.9zm-.8 4.5l-.307 1.74h-3.9l.308-1.74h3.9zm9.068-17.549l-1.827 10.35c-.291 1.65-.295 3.03 2.735 3.03h6.81c2.46 0 3.582-2.28 4.4-6.24l-4.105-1.05c-.623 3.36-1.163 3.36-1.7 3.36h-2.729c-.36 0-.75 0-.618-.75l.328-1.86a29.209 29.209 0 0 0 9.09-3.06l-1.957-3.366a22.707 22.707 0 0 1-6.481 2.73l.555-3.15h-4.5zm-4.4 25.259c-.492 2.79 1.107 2.91 2.367 2.91h6.839c2.97 0 3.687-2.7 4.792-6.75l-4.135-1.05c-.8 3.54-1.147 3.78-1.9 3.78h-2.49a.644.644 0 0 1-.686-.87l.423-2.4a33.051 33.051 0 0 0 8.993-3.36l-2.177-3.3a21.618 21.618 0 0 1-6.149 2.88l.514-2.91h-4.44zm2.987-17.429a28.292 28.292 0 0 0-2.453-6.84l-3.833 1.32a21.6 21.6 0 0 1 .927 2.4c-1.742.18-3.1.21-3.727.21a38.673 38.673 0 0 0 3.1-4.5l-4.516-.42a35.177 35.177 0 0 1-2.774 5.01h-1.62l-.293 3.87c3.542-.18 7.14-.51 10.71-1.02.167.75.18 1.02.255 1.44zm19.626-5.82l-2.324 16.739h3.78l3.584-16.739h-5.04zm-3.191 18.929l-.831 4.71h4.74l.831-4.71h-4.74z"/></svg>