<svg id="レイヤー_1" data-name="レイヤー 1" xmlns="http://www.w3.org/2000/svg" width="383" height="363" viewBox="0 0 383 363">
  <defs>
    <style>
      .cls-1 {
        fill: #db5934;
      }

      .cls-2 {
        fill: #fff;
      }
    </style>
  </defs>
  <title>アートボード 1</title>
  <g>
    <g>
      <path class="cls-1" d="M122.36,3.22H105.62q-13.69,0-13.7,10.62v1.89c0,.75,0,1.89,0,3.43q0,9.75,11.28,9.74H118.8c2.77,0,4.15,1.27,4.15,3.79,0,3.51-1.36,5.28-4.09,5.28h-7.19l-7.43,0q-3.85,0-3.85-3.8V32.13l-8.92,0V37q0,9.12,9.64,9.13l10.57,0h10.51c6.45,0,9.69-3.34,9.68-10V29.71q0-10.13-11.79-10.14H104.43c-2.39,0-3.58-1.27-3.58-3.83,0-2.9,1.3-4.36,3.95-4.36h13.53c2.7,0,4.08,1.54,4.11,4.61h8.92q0-7.12-2.1-10c-1.37-1.83-3.65-2.76-6.9-2.76"/>
      <polyline class="cls-2" points="191.96 3.19 154.52 3.21 154.56 46.13 163.48 46.13 192.95 46.11 192.95 37.96 163.46 37.96 163.46 28.73 189.45 28.73 189.45 20.57 163.46 20.58 163.46 11.36 191.96 11.34 191.96 3.19"/>
      <polyline class="cls-2" points="255.5 3.17 246.62 3.17 246.64 33.63 224.99 3.17 215.09 3.19 215.11 46.11 223.98 46.09 223.97 15.38 246.45 46.09 255.51 46.08 255.5 3.17"/>
      <path class="cls-2" d="M309.39,3.14l-10.62,0h-6c-9.11,0-13.69,3.55-13.67,10.62v5.33q0,9.75,11.28,9.74h15.53c2.81,0,4.2,1.25,4.2,3.79,0,3.53-1.36,5.28-4.09,5.28h-7.19c-1.46,0-3.95,0-7.43,0q-3.85,0-3.85-3.8V32.07l-8.92,0v4.86q0,9.12,9.64,9.13H298.8q4,0,10.51,0c6.45,0,9.69-3.34,9.68-10V29.65q0-10.13-11.79-10.14H291.55c-2.39,0-3.58-1.27-3.58-3.83,0-2.9,1.3-4.36,3.95-4.36h13.53c2.7,0,4.08,1.52,4.11,4.61h8.92q0-7.12-2.1-10t-7-2.78"/>
      <polyline class="cls-2" points="379.08 3.13 341.64 3.14 341.68 46.06 350.6 46.05 380.07 46.05 380.07 37.9 350.58 37.9 350.58 28.67 376.57 28.67 376.57 20.5 350.58 20.52 350.58 11.29 379.08 11.28 379.08 3.13"/>
      <path class="cls-1" d="M106.93,114.11q-7.72,0-7.8-8V95.45q0-7.89,7.8-7.94h10.44c5.14,0,7.72,2.66,7.75,7.94,0,1.78,0,3.54,0,5.33v5.33q0,8-7.8,8H106.93m13.94-34.77-8.73,0h-8.81q-13.14,0-13.13,12.82v8.62c0,2.81,0,5.66,0,8.57q0,12.9,13.13,12.92c2.9,0,5.84,0,8.83,0h8.71q13.12,0,13.17-12.93v-8.55c0-2.87,0-5.74,0-8.62q0-12.83-13.17-12.82"/>
      <polyline class="cls-2" points="191.22 79.32 153.32 79.34 153.34 122.26 162.26 122.24 162.26 104.87 187.54 104.85 187.53 96.7 162.26 96.72 162.24 87.49 191.22 87.47 191.22 79.32"/>
      <polyline class="cls-1" points="138.45 158.09 129.22 158.11 124.78 191.95 117.88 158.11 108.19 158.11 101.24 191.95 96.81 158.12 87.58 158.12 94.58 201.03 106.77 201.03 113.02 170.32 119.29 201.03 131.48 201.01 138.45 158.09"/>
      <path class="cls-2" d="M163.09,192.84c-5.14,0-7.72-2.68-7.75-8V174.18q0-7.89,7.78-7.94h10.41c5.17,0,7.75,2.65,7.8,7.94v10.65q0,8-7.8,8H163.09m14-34.77c-2.9,0-5.81,0-8.71,0h-8.83q-13.12,0-13.11,12.82V188.1q0,12.92,13.13,12.92c2.9,0,5.86,0,8.83,0h8.71q13.14,0,13.17-12.93V170.89q0-12.83-13.19-12.82"/>
      <polyline class="cls-2" points="238.65 158.06 229.78 158.06 229.79 188.51 208.15 158.07 198.25 158.07 198.26 200.99 207.14 200.98 207.12 170.27 229.6 200.98 238.68 200.96 238.65 158.06"/>
      <path class="cls-2" d="M253.56,192.65l0-26.51h16.11q8.67,0,8.67,7.32v11.91c0,4.85-2.87,7.28-8.65,7.28H253.56M272.16,158h-.06l-27.49,0,0,42.91h8.92l18.56,0q15.14,0,15.13-11.84c0-3.59,0-6.8,0-9.64v-9.69q0-11.72-15.07-11.73"/>
      <polyline class="cls-2" points="331.98 158.01 294.55 158.03 294.58 200.95 303.5 200.95 332.98 200.93 332.98 192.78 303.49 192.78 303.49 183.55 329.48 183.54 329.48 175.39 303.49 175.4 303.49 166.18 331.98 166.16 331.98 158.01"/>
      <path class="cls-2" d="M348.81,177.14l0-11,15.39,0h3.59c2.39,0,3.58,1.83,3.6,5.49s-1.2,5.46-3.6,5.49h-3.59l-15.37,0m21-19.14h-5.58l-24.31,0,0,42.92,8.92,0V185.29l15.39,0a12.11,12.11,0,0,1,5.17,1,3.48,3.48,0,0,1,2,3.22v11.44h8.92V189.47a8.81,8.81,0,0,0-3.08-6.51q3.08-2.67,3.08-8.62v-2.71c0-.93,0-1.85,0-2.78q0-10.81-10.51-10.86"/>
      <polyline class="cls-1" points="131.4 236.86 122.53 236.86 122.55 267.31 100.9 236.87 91 236.87 91.02 279.79 99.89 279.79 99.87 249.07 122.35 279.78 131.42 279.78 131.4 236.86"/>
      <polyline class="cls-2" points="170.94 236.84 162.02 236.86 162.03 279.76 170.95 279.76 170.94 236.84"/>
      <path class="cls-2" d="M229.45,236.82l-8.73,0h-8.81q-13.14,0-13.12,12.82v17.18q0,12.92,13.14,12.92l8.83,0h8.81q13.28,0,13.33-10.25v-6.82l0-7.54-22.14,0v7.53h13.85v3.53c0,3.6-2.78,5.39-8.36,5.39h-5.49l-5.23,0q-7.73,0-7.78-8c0-1.78,0-3.54,0-5.33v-5.34q0-7.89,7.8-7.94H226q7.65,0,7.7,3.88v2.68l8.92,0v-5.89q0-8.83-13.17-8.83"/>
      <polyline class="cls-2" points="311.96 236.81 303.04 236.81 303.04 254.04 280.48 254.04 280.48 236.82 271.56 236.82 271.57 279.75 280.49 279.73 280.49 262.19 303.05 262.19 303.05 279.73 311.98 279.71 311.96 236.81"/>
      <polyline class="cls-2" points="379.19 236.79 354.72 236.79 338.79 236.81 338.79 244.96 354.74 244.94 354.75 279.71 363.67 279.71 363.66 244.94 379.19 244.94 379.19 236.79"/>
      <path class="cls-1" d="M62.46,281.75H8.19v78.69H62.46V281.75M67.94,2.56H2.7v147.2l9.75,110.42h46l9.45-110.42V2.56"/>
      <path class="cls-1" d="M118.16,315.48H104q-13.07,0-13.08,8v7.62h12.19v-5.86c0-2.1,1.54-3.16,4.62-3.16h6.07q4.62,0,4.62,2.6V328q0,5.2-11.49,8.25-16.37,4.4-16.46,16.08v6.58h40.67v-6.58H102.68q0-7.36,11.84-10.78,16.1-4.57,16.11-13.54v-5.49q0-7-12.47-7"/>
      <path class="cls-1" d="M191.17,352.29q-4.81,0-4.81-2.74V325.06c0-2,1.57-3,4.72-3h6.42c3.21,0,4.8,1,4.8,3v24.48c0,1.8-1.59,2.71-4.8,2.74h-6.32m10.77-36.81H186.81q-12.8,0-12.82,8.25V351q0,7.82,12.47,7.83h15.23q12.9,0,13-7.93V323.05q0-7.53-12.74-7.57"/>
      <polyline class="cls-1" points="287.06 315.48 265.06 315.48 265.06 322.06 274.67 322.06 274.67 358.87 287.06 358.87 287.06 315.48"/>
    </g>
    <path class="cls-1" d="M379.39,346.91c0,9.47-9.33,11.48-17.93,11.48-8.12,0-18-1.76-18-11.48,0-9,8.18-10.17,10.8-10.53-2.78-.76-8.54-2.32-8.54-9.62,0-8.61,8.49-10.37,15.72-10.37,7.44,0,15.67,1.91,15.67,10.37,0,7.3-5.77,8.86-8.54,9.62C371.21,336.74,379.39,337.95,379.39,346.91Zm-10.54-.55c0-5.79-3.14-8.06-7.39-8.06s-7.44,2.27-7.44,8.06c0,6.65,3.77,8.26,7.44,8.26S368.86,353,368.86,346.36ZM367,327.47c0-4.58-1.42-7.25-5.45-7.25-3.35,0-5.61,1.56-5.61,7.25,0,4.28,1.47,6.85,5.56,6.85S367,331.7,367,327.47Z"/>
  </g>
</svg>
