<svg xmlns="http://www.w3.org/2000/svg" xmlns:xlink="http://www.w3.org/1999/xlink" viewBox="0 0 606 170.13"><defs><style>.cls-1{fill:none;}.cls-2{fill:#fa46a1;}.cls-3{fill:#f94a19;}.cls-4{fill:#fff;}.cls-5{clip-path:url(#clip-path);}.cls-6{clip-path:url(#clip-path-2);}.cls-7{fill:#b1b1b1;}.cls-8{clip-path:url(#clip-path-3);}.cls-9{clip-path:url(#clip-path-4);}.cls-10{clip-path:url(#clip-path-5);}.cls-11{clip-path:url(#clip-path-6);}</style><clipPath id="clip-path"><rect id="SVGID" class="cls-1" x="590.16" y="93.83" width="15.84" height="9.2"/></clipPath><clipPath id="clip-path-2"><rect id="SVGID-2" data-name="SVGID" class="cls-1" x="590.16" y="126.83" width="15.84" height="9.2"/></clipPath><clipPath id="clip-path-3"><rect id="SVGID-3" data-name="SVGID" class="cls-1" x="117.16" y="126.83" width="15.84" height="9.2"/></clipPath><clipPath id="clip-path-4"><rect id="SVGID-4" data-name="SVGID" class="cls-1" x="284.01" y="34.83" width="15.84" height="9.2"/></clipPath><clipPath id="clip-path-5"><rect id="SVGID-5" data-name="SVGID" class="cls-1" x="125.01" y="34.83" width="15.84" height="9.2"/></clipPath><clipPath id="clip-path-6"><rect id="SVGID-6" data-name="SVGID" class="cls-1" x="441.01" y="34.83" width="15.84" height="9.2"/></clipPath></defs><title>rule_sc_en</title><g id="レイヤー_5" data-name="レイヤー 5"><path d="M8.29,13.09,7.93,9.76a19.82,19.82,0,0,1-.1-2.25V7.17A20.83,20.83,0,0,1,7.2,9.61L6,13.09H5L3.72,9.47c-.2-.57-.56-2.27-.57-2.36s0,1.94-.1,2.65l-.37,3.33H1.32L2.39,5.76H3.58L4.85,9.36c.22.62.44,1.38.63,2.06.19-.71.43-1.46.66-2.09L7.41,5.77H8.57l1.08,7.33Z"/><path d="M14,13.1v-.23a2.18,2.18,0,0,1-1.23.33c-1.07,0-1.92-.58-1.92-1.54s.8-1.7,2.34-1.7a3.47,3.47,0,0,1,.81.09V9.73c0-.49-.52-.68-1.19-.68a4.63,4.63,0,0,0-1.4.24v-1A5.14,5.14,0,0,1,12.94,8c1.15,0,2.26.41,2.26,1.53V13.1Zm0-2a1.94,1.94,0,0,0-.84-.17c-.86,0-1.17.24-1.17.67s.26.63.86.63A1.75,1.75,0,0,0,14,11.85Z"/><path d="M16.69,14.82l.25,0a.8.8,0,0,0,.74-.54c.08-.19.45-1.08.51-1.3L16.44,8.18h1.3l.77,2.41s.21.69.31,1.15c.09-.42.33-1.18.33-1.18l.78-2.38h1.29S19.09,13.9,19,14.29c-.43,1.19-.88,1.74-1.88,1.74l-.38,0Z"/><path d="M25.54,13.09a7.85,7.85,0,0,1,2.26-3,9.74,9.74,0,0,0,1.38-1.45,1.61,1.61,0,0,0,.23-.81,1.15,1.15,0,0,0-1.28-1.15,2.74,2.74,0,0,0-1.93.78V6a4.74,4.74,0,0,1,1.93-.42c1.78,0,2.61,1,2.61,2.21a2.85,2.85,0,0,1-.47,1.53A8.92,8.92,0,0,1,28.62,11a8,8,0,0,0-1,1l3.19,0v1.15Z"/><path d="M32.74,11.65a3.19,3.19,0,0,0,1.6.49A2.12,2.12,0,0,0,36.4,9.87a2.36,2.36,0,0,1-4-1.78,2.43,2.43,0,0,1,2.51-2.51,2.52,2.52,0,0,1,2.63,2.3,7.3,7.3,0,0,1,.12,1.36c0,2.56-1.36,4-3.32,4A5.1,5.1,0,0,1,32.74,13Zm.8-3.54a1.2,1.2,0,0,0,1.32,1.3,1.33,1.33,0,0,0,1.42-1.34,1.37,1.37,0,1,0-2.74,0Z"/><path d="M40.86,13.72a7,7,0,0,1-1.33-4.3,7,7,0,0,1,1.33-4.31h1.22a7.09,7.09,0,0,0-1.41,4.31,7.08,7.08,0,0,0,1.41,4.3Z"/><path d="M43.75,13.1V5.76h4.41V6.85H45v1.7h2.72V9.64H45V13.1Z"/><path d="M49.8,13.1V8.18H51v.15A1.65,1.65,0,0,1,52,8h.3V9.15a2.73,2.73,0,0,0-.41,0,.86.86,0,0,0-.85.6V13.1Z"/><path d="M54.36,7.05a.79.79,0,1,1,.82-.78A.8.8,0,0,1,54.36,7.05Zm-.64,6.05V8.17H55V13.1Z"/><path d="M57.47,13.27a.85.85,0,0,1-.85-.85.85.85,0,1,1,.85.85Z"/><path d="M59.71,13.72a7.08,7.08,0,0,0,1.41-4.3,7.09,7.09,0,0,0-1.41-4.31h1.22a7,7,0,0,1,1.32,4.31,7,7,0,0,1-1.32,4.3Z"/><path d="M63.93,14.17l1-2.64h1.44L64.9,14.17Z"/><path d="M70.83,13.09a7.85,7.85,0,0,1,2.26-3,9.74,9.74,0,0,0,1.38-1.45,1.61,1.61,0,0,0,.23-.81,1.15,1.15,0,0,0-1.28-1.15,2.74,2.74,0,0,0-1.93.78V6a4.74,4.74,0,0,1,1.93-.42c1.78,0,2.61,1,2.61,2.21a2.85,2.85,0,0,1-.47,1.53A8.92,8.92,0,0,1,73.91,11a8,8,0,0,0-1,1l3.19,0v1.15Z"/><path d="M77.57,9.42c0-1.72.56-3.83,2.77-3.83s2.8,2.11,2.8,3.83-.59,3.84-2.8,3.84S77.57,11.14,77.57,9.42Zm4.25,0c0-1.19-.31-2.66-1.48-2.66s-1.46,1.47-1.46,2.66.3,2.64,1.46,2.64S81.82,10.61,81.82,9.42Z"/><path d="M84.24,13.09a7.85,7.85,0,0,1,2.26-3,9.74,9.74,0,0,0,1.38-1.45,1.61,1.61,0,0,0,.23-.81,1.15,1.15,0,0,0-1.28-1.15,2.74,2.74,0,0,0-1.93.78V6a4.74,4.74,0,0,1,1.93-.42c1.78,0,2.61,1,2.61,2.21A2.85,2.85,0,0,1,89,9.32,8.92,8.92,0,0,1,87.32,11a8,8,0,0,0-1,1l3.19,0v1.15Z"/><path d="M91,9.42c0-1.72.56-3.83,2.77-3.83s2.8,2.11,2.8,3.83-.59,3.84-2.8,3.84S91,11.14,91,9.42Zm4.25,0c0-1.19-.31-2.66-1.48-2.66s-1.46,1.47-1.46,2.66.3,2.64,1.46,2.64S95.23,10.61,95.23,9.42Z"/><path d="M154.32,11.85a2,2,0,0,0,.91.23,1.12,1.12,0,0,0,1.21-1.22V5.77h1.28v5.12a2.17,2.17,0,0,1-2.38,2.37,3.48,3.48,0,0,1-1-.15Z"/><path d="M162.52,13.1V13a2.29,2.29,0,0,1-1.07.27c-1.37,0-1.92-.82-1.92-1.61V8.18h1.19v3.36a.77.77,0,0,0,.86.73.91.91,0,0,0,.94-.6V8.18h1.2V13.1Z"/><path d="M168.45,13.1V9.74A.78.78,0,0,0,167.6,9a.91.91,0,0,0-1,.74v3.4h-1.19V8.17h1.19v.14A2,2,0,0,1,167.73,8a1.67,1.67,0,0,1,1.91,1.64V13.1Z"/><path d="M175.68,12.87a3.86,3.86,0,0,1-1.93.43,2.48,2.48,0,0,1-2.69-2.62A2.41,2.41,0,0,1,173.56,8,2.33,2.33,0,0,1,176,10.5v.36h-3.73v.06a1.39,1.39,0,0,0,1.51,1.35,2.65,2.65,0,0,0,1.92-.7ZM174.75,10c0-.48-.34-1-1.19-1a1.2,1.2,0,0,0-1.26,1Z"/><path d="M182.83,13.09V6.93h-1.1V5.76h2.39V13.1Z"/><path d="M192.61,11a2.69,2.69,0,0,1-5.32,0,2,2,0,0,1,.93-1.79,1.91,1.91,0,0,1-.68-1.5,2.43,2.43,0,0,1,4.82,0,1.89,1.89,0,0,1-.68,1.51A2.1,2.1,0,0,1,192.61,11ZM190,9.78c-.9,0-1.44.51-1.44,1.18a1.47,1.47,0,0,0,2.89,0C191.4,10.29,190.85,9.78,190,9.78Zm0-3.1a1.09,1.09,0,0,0-1.23,1c0,.56.45,1,1.23,1s1.23-.46,1.23-1A1.09,1.09,0,0,0,190,6.68Z"/><path d="M195.77,13.72a7,7,0,0,1-1.32-4.3,7,7,0,0,1,1.32-4.31H197a7.09,7.09,0,0,0-1.41,4.31,7.08,7.08,0,0,0,1.41,4.3Z"/><path d="M200.21,13.1V6.87h-2.05V5.76h5.4V6.87h-2.05V13.1Z"/><path d="M208,13.1V9.74A.79.79,0,0,0,207.1,9a.91.91,0,0,0-1,.74v3.4H205V5.39h1.19V8.31A2,2,0,0,1,207.23,8a1.67,1.67,0,0,1,1.91,1.64V13.1Z"/><path d="M213.86,13.1V13a2.29,2.29,0,0,1-1.07.27c-1.37,0-1.92-.82-1.92-1.61V8.18h1.19v3.36a.77.77,0,0,0,.86.73.91.91,0,0,0,.94-.6V8.18h1.2V13.1Z"/><path d="M217.47,13.27a.85.85,0,0,1-.85-.85.85.85,0,1,1,.85.85Z"/><path d="M219.71,13.72a7.14,7.14,0,0,0,1.4-4.3,7.15,7.15,0,0,0-1.4-4.31h1.21a7,7,0,0,1,1.33,4.31,7,7,0,0,1-1.33,4.3Z"/><path d="M223.93,14.17l1-2.64h1.44l-1.46,2.64Z"/><path d="M230.82,13.09a8,8,0,0,1,2.26-3,9.74,9.74,0,0,0,1.38-1.45,1.52,1.52,0,0,0,.24-.81,1.15,1.15,0,0,0-1.28-1.15,2.74,2.74,0,0,0-1.93.78V6a4.71,4.71,0,0,1,1.93-.42c1.78,0,2.61,1,2.61,2.21a2.85,2.85,0,0,1-.47,1.53A8.92,8.92,0,0,1,233.91,11a8,8,0,0,0-1,1l3.19,0v1.15Z"/><path d="M237.56,9.42c0-1.72.57-3.83,2.78-3.83s2.79,2.11,2.79,3.83-.58,3.84-2.79,3.84S237.56,11.14,237.56,9.42Zm4.25,0c0-1.19-.31-2.66-1.47-2.66s-1.46,1.47-1.46,2.66.3,2.64,1.46,2.64S241.81,10.61,241.81,9.42Z"/><path d="M244.23,13.09a8,8,0,0,1,2.26-3,9.74,9.74,0,0,0,1.38-1.45,1.52,1.52,0,0,0,.24-.81,1.15,1.15,0,0,0-1.28-1.15,2.74,2.74,0,0,0-1.93.78V6a4.71,4.71,0,0,1,1.93-.42c1.78,0,2.61,1,2.61,2.21A2.85,2.85,0,0,1,249,9.32,8.92,8.92,0,0,1,247.32,11a8,8,0,0,0-1,1l3.19,0v1.15Z"/><path d="M251,9.42c0-1.72.57-3.83,2.78-3.83s2.79,2.11,2.79,3.83-.58,3.84-2.79,3.84S251,11.14,251,9.42Zm4.25,0c0-1.19-.31-2.66-1.47-2.66s-1.46,1.47-1.46,2.66.3,2.64,1.46,2.64S255.22,10.61,255.22,9.42Z"/><path d="M156.55,66.73l-.49-.36.08.62,0,.64h-.54l0-.64.07-.62-.49.37-.55.35-.27-.46.59-.31.55-.23-.56-.24-.58-.31.27-.46.54.34.5.38-.07-.62,0-.64h.54l0,.64-.08.62.5-.37.55-.35.26.46-.58.31-.56.24.57.23.57.3-.26.47Z"/><path d="M159.06,71v-6.4h3.6v.48h-3V67.2h2.6v.49h-2.6V71Z"/><path d="M166,71.1a2.24,2.24,0,1,1,2.24-2.24A2.19,2.19,0,0,1,166,71.1Zm1.65-2.24A1.66,1.66,0,1,0,166,70.63,1.65,1.65,0,0,0,167.69,68.86Z"/><path d="M169.74,71V66.74h.55v.37a2,2,0,0,1,1.32-.52v.54a1.5,1.5,0,0,0-1.32.6V71Z"/><path d="M180,70.58a2.84,2.84,0,0,1-1.75.54A2.09,2.09,0,0,1,176,68.88a2.07,2.07,0,0,1,2.13-2.28,1.9,1.9,0,0,1,2,2s0,.17,0,.22h-3.6v.11a1.59,1.59,0,0,0,1.73,1.73A2.59,2.59,0,0,0,180,70Zm-.46-2.22A1.33,1.33,0,0,0,178.13,67a1.49,1.49,0,0,0-1.53,1.32Z"/><path d="M184.27,71,183,69.12,181.71,71h-.61l1.59-2.24-1.36-2h.61L183,68.32l1.05-1.58h.62l-1.37,2L184.88,71Z"/><path d="M189,71V68.18a1,1,0,0,0-1.11-1.1,1.09,1.09,0,0,0-1.1.78V71h-.58V64.31h.58v2.74a1.69,1.69,0,0,1,1.16-.44,1.44,1.44,0,0,1,1.62,1.46V71Z"/><path d="M191.65,65.27a.45.45,0,0,1-.46-.42.46.46,0,0,1,.46-.45.47.47,0,0,1,.48.45A.45.45,0,0,1,191.65,65.27ZM191.37,71V66.74H192V71Z"/><path d="M193.78,71V64.31h.55V67a2.39,2.39,0,0,1,1.34-.41,2.25,2.25,0,1,1,0,4.5,2.29,2.29,0,0,1-1.34-.42V71Zm.55-.9a1.74,1.74,0,0,0,1.34.55,1.76,1.76,0,0,0,0-3.52,1.74,1.74,0,0,0-1.34.55Z"/><path d="M199.79,65.27a.45.45,0,0,1-.46-.42.46.46,0,0,1,.46-.45.47.47,0,0,1,.47.45A.45.45,0,0,1,199.79,65.27ZM199.5,71V66.74h.59V71Z"/><path d="M203.72,71.08c-.84,0-1.44-.31-1.44-1.17v-2.7h-.79v-.47h.79V65.25h.55v1.49h1v.47h-1v2.51c0,.75.41.84.92.9v.46Z"/><path d="M207.16,71.1a2.24,2.24,0,1,1,2.24-2.24A2.19,2.19,0,0,1,207.16,71.1Zm1.65-2.24a1.66,1.66,0,1,0-1.65,1.77A1.66,1.66,0,0,0,208.81,68.86Z"/><path d="M210.86,71V66.74h.55v.37a2,2,0,0,1,1.32-.52v.54a1.5,1.5,0,0,0-1.32.6V71Z"/><path d="M213.77,70.26a2,2,0,0,0,1.27.38.84.84,0,0,0,.93-.83c0-.5-.44-.71-.84-.87-.72-.24-1.36-.46-1.36-1.25,0-.58.45-1.08,1.36-1.08a3.14,3.14,0,0,1,1,.16v.56a2.11,2.11,0,0,0-1-.26c-.53,0-.83.28-.83.61s.19.55.69.72l.36.12c.69.22,1.18.59,1.18,1.29A1.37,1.37,0,0,1,215,71.12a2.56,2.56,0,0,1-1.25-.26Z"/><path d="M224.4,71l-.71-2.58c-.09-.3-.18-.77-.23-1-.05.29-.16.75-.23,1L222.52,71h-.59l-1.28-4.22h.58l.72,2.58c.07.24.18.74.28,1.12.08-.39.17-.78.25-1.08l.73-2.62h.52l.71,2.64c.09.3.16.62.25,1.06.11-.44.21-.84.28-1.1l.73-2.6h.58L225,71Z"/><path d="M227.93,65.27a.45.45,0,0,1-.47-.42.46.46,0,0,1,.47-.45.47.47,0,0,1,.47.45A.45.45,0,0,1,227.93,65.27ZM227.64,71V66.74h.58V71Z"/><path d="M231.85,71.08c-.84,0-1.44-.31-1.44-1.17v-2.7h-.78v-.47h.78V65.25H231v1.49h1v.47h-1v2.51c0,.75.4.84.92.9v.46Z"/><path d="M236.12,71V68.18a1,1,0,0,0-1.12-1.1,1.11,1.11,0,0,0-1.1.78V71h-.57V64.31h.57v2.74a1.69,1.69,0,0,1,1.16-.44,1.44,1.44,0,0,1,1.62,1.46V71Z"/><path d="M246.78,71V68.18a1,1,0,0,0-1-1.09,1.06,1.06,0,0,0-1,.75,1.64,1.64,0,0,1,0,.23V71h-.57V68.18c0-.66-.31-1.09-1-1.09a1,1,0,0,0-1,.78V71h-.56V66.74h.56v.31a1.49,1.49,0,0,1,1.05-.44,1.4,1.4,0,0,1,1.29.67,1.47,1.47,0,0,1,1.22-.67,1.41,1.41,0,0,1,1.54,1.46V71Z"/><path d="M251,71.1a2.24,2.24,0,1,1,2.24-2.24A2.19,2.19,0,0,1,251,71.1Zm1.65-2.24A1.66,1.66,0,1,0,251,70.63,1.66,1.66,0,0,0,252.69,68.86Z"/><path d="M254.74,71V66.74h.55v.37a2,2,0,0,1,1.32-.52v.54a1.5,1.5,0,0,0-1.32.6V71Z"/><path d="M261.77,70.58a2.84,2.84,0,0,1-1.75.54,2.1,2.1,0,0,1-2.28-2.24,2.07,2.07,0,0,1,2.14-2.28,1.89,1.89,0,0,1,2,2s0,.17,0,.22h-3.6v.11A1.59,1.59,0,0,0,260,70.65a2.59,2.59,0,0,0,1.74-.68Zm-.46-2.22A1.32,1.32,0,0,0,259.88,67a1.49,1.49,0,0,0-1.54,1.32Z"/><path d="M268.35,71.08c-.84,0-1.44-.31-1.44-1.17v-2.7h-.78v-.47h.78V65.25h.55v1.49h1v.47h-1v2.51c0,.75.41.84.92.9v.46Z"/><path d="M272.61,71V68.18a1,1,0,0,0-1.11-1.1,1.09,1.09,0,0,0-1.1.78V71h-.58V64.31h.58v2.74a1.69,1.69,0,0,1,1.16-.44,1.44,1.44,0,0,1,1.62,1.46V71Z"/><path d="M277.68,71V70.8a2.66,2.66,0,0,1-1.26.28c-1.26,0-1.8-.59-1.8-1.32s.67-1.46,2-1.47a5.42,5.42,0,0,1,1,.09V68c0-.62-.51-.87-1.2-.87a4.67,4.67,0,0,0-1.32.22v-.51a4.15,4.15,0,0,1,1.26-.2c1,0,1.8.39,1.8,1.3v3Zm0-2.1a4.63,4.63,0,0,0-1-.11c-.86,0-1.45.37-1.45,1s.49.9,1.32.9a2.49,2.49,0,0,0,1.16-.29Z"/><path d="M282.73,71V68.18a1,1,0,0,0-1.11-1.1,1.11,1.11,0,0,0-1.1.78V71h-.58V66.74h.58v.31a1.69,1.69,0,0,1,1.16-.44,1.44,1.44,0,0,1,1.62,1.46V71Z"/><path d="M160.91,82V80.71h-3.19v-.43l3.22-4.72h.53V80.2h.75v.51h-.75V82Zm0-3c0-.11,0-1.31.06-2.64h0c0,.06-.51.82-.8,1.26l-1.78,2.64h2.53Z"/><path d="M163.5,78.75c0-1.66.54-3.37,2.35-3.37s2.36,1.71,2.36,3.37-.55,3.37-2.36,3.37S163.5,80.4,163.5,78.75Zm4.07,0c0-1-.26-2.85-1.72-2.85s-1.71,1.8-1.71,2.85.26,2.86,1.71,2.86S167.57,79.8,167.57,78.74Z"/><path d="M172.94,82V75.31h.56V78a2.33,2.33,0,0,1,1.33-.41,2.25,2.25,0,1,1,0,4.5,2.24,2.24,0,0,1-1.33-.42V82Zm.56-.9a1.7,1.7,0,0,0,1.33.55,1.76,1.76,0,0,0,0-3.52,1.7,1.7,0,0,0-1.33.55Z"/><path d="M180.55,82.1a2.24,2.24,0,1,1,2.24-2.24A2.18,2.18,0,0,1,180.55,82.1Zm1.66-2.24a1.67,1.67,0,1,0-1.66,1.77A1.66,1.66,0,0,0,182.21,79.86Z"/><path d="M186.21,82.1a2.24,2.24,0,1,1,2.24-2.24A2.18,2.18,0,0,1,186.21,82.1Zm1.66-2.24a1.67,1.67,0,1,0-1.66,1.77A1.66,1.66,0,0,0,187.87,79.86Z"/><path d="M191.72,82.08c-.84,0-1.44-.31-1.44-1.17v-2.7h-.78v-.47h.78V76.25h.55v1.49h1v.47h-1v2.51c0,.75.41.84.92.9v.46Z"/><path d="M196,82V79.18a1,1,0,0,0-1.11-1.1,1.09,1.09,0,0,0-1.1.78V82h-.58V75.31h.58v2.74a1.69,1.69,0,0,1,1.16-.44,1.44,1.44,0,0,1,1.62,1.46V82Z"/><path d="M197.93,81.26a2,2,0,0,0,1.27.38.84.84,0,0,0,.93-.83c0-.5-.44-.71-.84-.87-.72-.24-1.35-.46-1.35-1.25,0-.58.44-1.08,1.35-1.08a3.14,3.14,0,0,1,1,.16v.56a2.11,2.11,0,0,0-1-.26c-.53,0-.83.28-.83.61s.2.55.69.72l.36.12c.69.22,1.18.59,1.18,1.29a1.37,1.37,0,0,1-1.52,1.31,2.56,2.56,0,0,1-1.25-.26Z"/><path d="M161.7,144.85a4.64,4.64,0,0,1-1.69.29,3.37,3.37,0,1,1,0-6.72,4.7,4.7,0,0,1,1.52.24v.65a3.2,3.2,0,0,0-1.53-.37,2.84,2.84,0,1,0,0,5.67,3.4,3.4,0,0,0,1.7-.42Z"/><path d="M165.94,145v-.16a2.6,2.6,0,0,1-1.25.28c-1.27,0-1.8-.59-1.8-1.32s.66-1.46,2-1.47a5.25,5.25,0,0,1,1,.09V142c0-.62-.5-.87-1.2-.87a4.73,4.73,0,0,0-1.32.22v-.51a4.26,4.26,0,0,1,1.27-.2c1,0,1.8.39,1.8,1.3v3Zm0-2.1a4.5,4.5,0,0,0-1-.11c-.87,0-1.46.37-1.46.95s.49.9,1.33.9a2.41,2.41,0,0,0,1.15-.29Z"/><path d="M171,145v-2.78a1,1,0,0,0-1.11-1.1,1.13,1.13,0,0,0-1.11.78V145h-.57v-4.22h.57v.31a1.69,1.69,0,0,1,1.16-.44,1.45,1.45,0,0,1,1.63,1.46V145Z"/><path d="M176.68,144.89a3.12,3.12,0,0,1-1.2.2,2.25,2.25,0,1,1,0-4.48,3.64,3.64,0,0,1,1.09.16v.6a2,2,0,0,0-1.1-.28,1.76,1.76,0,1,0,0,3.51,2,2,0,0,0,1.21-.32Z"/><path d="M181.79,144.58a2.84,2.84,0,0,1-1.75.54,2.1,2.1,0,0,1-2.28-2.24,2.07,2.07,0,0,1,2.13-2.28,1.9,1.9,0,0,1,2,2s0,.17,0,.22h-3.6v.11a1.59,1.59,0,0,0,1.73,1.73,2.59,2.59,0,0,0,1.74-.68Zm-.46-2.22a1.33,1.33,0,0,0-1.44-1.32,1.49,1.49,0,0,0-1.53,1.32Z"/><path d="M183.38,145v-6.65H184V145Z"/><path d="M185.85,145v-6.65h.6V145Z"/><path d="M191,145v-.16a2.6,2.6,0,0,1-1.25.28c-1.27,0-1.8-.59-1.8-1.32s.66-1.46,2-1.47a5.25,5.25,0,0,1,1,.09V142c0-.62-.5-.87-1.2-.87a4.73,4.73,0,0,0-1.32.22v-.51a4.26,4.26,0,0,1,1.27-.2c1,0,1.8.39,1.8,1.3v3Zm0-2.1a4.5,4.5,0,0,0-1-.11c-.87,0-1.46.37-1.46.95s.49.9,1.33.9a2.41,2.41,0,0,0,1.15-.29Z"/><path d="M195.09,145.08c-.84,0-1.44-.31-1.44-1.17v-2.7h-.78v-.47h.78v-1.49h.56v1.49h1v.47h-1v2.51c0,.75.4.84.92.9v.46Z"/><path d="M196.93,139.27a.45.45,0,0,1-.46-.42.46.46,0,0,1,.46-.45.47.47,0,0,1,.48.45A.45.45,0,0,1,196.93,139.27Zm-.28,5.69v-4.22h.58V145Z"/><path d="M201,145.1a2.24,2.24,0,1,1,2.24-2.24A2.18,2.18,0,0,1,201,145.1Zm1.66-2.24a1.67,1.67,0,1,0-1.66,1.77A1.66,1.66,0,0,0,202.68,142.86Z"/><path d="M207.51,145v-2.78a1,1,0,0,0-1.11-1.1,1.13,1.13,0,0,0-1.11.78V145h-.57v-4.22h.57v.31a1.69,1.69,0,0,1,1.16-.44,1.45,1.45,0,0,1,1.63,1.46V145Z"/><path d="M213.21,145v-6.4h3.61v.48h-3v2.15h2.6v.49h-2.6V145Z"/><path d="M222,144.58a2.86,2.86,0,0,1-1.75.54,2.09,2.09,0,0,1-2.28-2.24,2.07,2.07,0,0,1,2.13-2.28,1.9,1.9,0,0,1,2,2v.22h-3.59v.11a1.58,1.58,0,0,0,1.72,1.73A2.62,2.62,0,0,0,222,144Zm-.47-2.22A1.32,1.32,0,0,0,220.1,141a1.48,1.48,0,0,0-1.53,1.32Z"/><path d="M227.28,144.58a2.86,2.86,0,0,1-1.75.54,2.09,2.09,0,0,1-2.28-2.24,2.07,2.07,0,0,1,2.13-2.28,1.91,1.91,0,0,1,2,2v.22h-3.59v.11a1.58,1.58,0,0,0,1.72,1.73,2.62,2.62,0,0,0,1.75-.68Zm-.47-2.22a1.32,1.32,0,0,0-1.43-1.32,1.48,1.48,0,0,0-1.53,1.32Z"/><path d="M229.53,141.75a.51.51,0,0,1,0-1,.51.51,0,0,1,0,1Zm0,3.35a.5.5,0,0,1,0-1,.5.5,0,1,1,0,1Z"/><path d="M158.45,156v-5.87h-1.06v-.52h1.7V156Z"/><path d="M162.25,152.75c0-1.66.53-3.37,2.35-3.37s2.36,1.71,2.36,3.37-.55,3.37-2.36,3.37S162.25,154.4,162.25,152.75Zm4.07,0c0-1.05-.27-2.85-1.72-2.85s-1.71,1.8-1.71,2.85.25,2.86,1.71,2.86S166.32,153.8,166.32,152.74Z"/><path d="M168.14,152.75c0-1.66.54-3.37,2.35-3.37s2.36,1.71,2.36,3.37-.55,3.37-2.36,3.37S168.14,154.4,168.14,152.75Zm4.07,0c0-1.05-.26-2.85-1.72-2.85s-1.71,1.8-1.71,2.85.26,2.86,1.71,2.86S172.21,153.8,172.21,152.74Z"/><path d="M174.09,151.18c0-.8.26-1.72,1.29-1.72s1.31.92,1.31,1.72-.29,1.73-1.31,1.73S174.09,152,174.09,151.18Zm2.08,0c0-.57-.17-1.3-.79-1.3s-.77.73-.77,1.3.15,1.29.77,1.29S176.17,151.75,176.17,151.18ZM174.78,156l2.15-3.27,2-3.13h.55l-2.19,3.33-2,3.07Zm2.84-1.61c0-.8.28-1.73,1.31-1.73s1.29.93,1.29,1.73-.27,1.73-1.29,1.73S177.62,155.15,177.62,154.35Zm2.08,0c0-.57-.15-1.3-.77-1.3s-.78.73-.78,1.3.16,1.3.78,1.3S179.7,154.91,179.7,154.34Z"/><path d="M187,156.1a2.24,2.24,0,1,1,2.24-2.24A2.19,2.19,0,0,1,187,156.1Zm1.65-2.24a1.66,1.66,0,1,0-1.65,1.77A1.65,1.65,0,0,0,188.61,153.86Z"/><path d="M191,156v-3.75h-.78v-.47H191v-1.15a1.34,1.34,0,0,1,1.39-1.41v.48a.88.88,0,0,0-.83,1v1.09h.86v.47h-.86V156Z"/><path d="M197.2,156v-6.4h3.53v.49h-2.94v2.21h2.52v.5h-2.52v2.72h2.94V156Z"/><path d="M204.94,156l-1.28-1.84L202.38,156h-.61l1.59-2.24-1.35-2h.6l1.06,1.58,1.05-1.58h.62l-1.37,2,1.59,2.24Z"/><path d="M209.65,156v-2.78a1,1,0,0,0-1.11-1.1,1.1,1.1,0,0,0-1.1.78V156h-.58v-6.65h.58v2.74a1.69,1.69,0,0,1,1.16-.44,1.44,1.44,0,0,1,1.62,1.46V156Z"/><path d="M212.33,150.27a.45.45,0,0,1-.47-.42.46.46,0,0,1,.47-.45.47.47,0,0,1,.47.45A.45.45,0,0,1,212.33,150.27ZM212,156v-4.22h.58V156Z"/><path d="M214.46,156v-6.65H215V152a2.35,2.35,0,0,1,1.33-.41,2.25,2.25,0,1,1,0,4.5,2.24,2.24,0,0,1-1.33-.42V156Zm.55-.9a1.71,1.71,0,0,0,1.33.55,1.76,1.76,0,0,0,0-3.52,1.71,1.71,0,0,0-1.33.55Z"/><path d="M220.46,150.27a.45.45,0,0,1-.46-.42.46.46,0,0,1,.46-.45.47.47,0,0,1,.48.45A.45.45,0,0,1,220.46,150.27Zm-.28,5.69v-4.22h.58V156Z"/><path d="M224.39,156.08c-.84,0-1.44-.31-1.44-1.17v-2.7h-.78v-.47H223v-1.49h.55v1.49h1v.47h-1v2.51c0,.75.41.84.92.9v.46Z"/><path d="M226.23,150.27a.45.45,0,0,1-.46-.42.46.46,0,0,1,.46-.45.47.47,0,0,1,.47.45A.45.45,0,0,1,226.23,150.27Zm-.29,5.69v-4.22h.59V156Z"/><path d="M230.32,156.1a2.24,2.24,0,1,1,2.24-2.24A2.19,2.19,0,0,1,230.32,156.1Zm1.65-2.24a1.66,1.66,0,1,0-1.65,1.77A1.65,1.65,0,0,0,232,153.86Z"/><path d="M236.81,156v-2.78a1,1,0,0,0-1.12-1.1,1.12,1.12,0,0,0-1.1.78V156H234v-4.22h.57v.31a1.69,1.69,0,0,1,1.16-.44,1.44,1.44,0,0,1,1.62,1.46V156Z"/><path d="M242.51,156v-6.4h3.61v.48h-3v2.15h2.61v.49H243.1V156Z"/><path d="M251.29,155.58a2.84,2.84,0,0,1-1.75.54,2.1,2.1,0,0,1-2.28-2.24,2.07,2.07,0,0,1,2.14-2.28,1.89,1.89,0,0,1,2,2s0,.17,0,.22h-3.6v.11a1.59,1.59,0,0,0,1.73,1.73,2.59,2.59,0,0,0,1.74-.68Zm-.46-2.22A1.32,1.32,0,0,0,249.4,152a1.49,1.49,0,0,0-1.54,1.32Z"/><path d="M256.57,155.58a2.84,2.84,0,0,1-1.75.54,2.1,2.1,0,0,1-2.28-2.24,2.07,2.07,0,0,1,2.14-2.28,1.89,1.89,0,0,1,2,2s0,.17,0,.22h-3.6v.11a1.59,1.59,0,0,0,1.73,1.73,2.59,2.59,0,0,0,1.74-.68Zm-.46-2.22a1.32,1.32,0,0,0-1.43-1.32,1.49,1.49,0,0,0-1.54,1.32Z"/><path d="M311.85,117.24v-8.48h2.6a2.52,2.52,0,0,1,2.72,2.51v0a2.54,2.54,0,0,1-2.73,2.54h-1.12v3.41Zm2.55-4.64a1.27,1.27,0,0,0,1.25-1.32,1.21,1.21,0,0,0-1.24-1.29h-1.09v2.61Z"/><path d="M323.57,117a4.38,4.38,0,0,1-2.23.5,2.87,2.87,0,0,1-3.13-3,2.8,2.8,0,0,1,2.9-3.11,2.7,2.7,0,0,1,2.8,2.9v.4H319.6v.07a1.61,1.61,0,0,0,1.75,1.57,3.07,3.07,0,0,0,2.22-.81Zm-1.07-3.36c0-.56-.4-1.12-1.39-1.12a1.39,1.39,0,0,0-1.46,1.12Z"/><path d="M325.36,117.25v-5.69h1.39v.17a2,2,0,0,1,1.12-.37h.35v1.32a3.75,3.75,0,0,0-.48,0,1,1,0,0,0-1,.69v3.91Z"/><path d="M330.45,110.24a.92.92,0,1,1,0-1.83.92.92,0,1,1,0,1.83Zm-.74,7v-5.7h1.47v5.7Z"/><path d="M332.75,114.39a3,3,0,1,1,3,3A3,3,0,0,1,332.75,114.39Zm4.68,0a1.65,1.65,0,1,0-1.64,1.79A1.65,1.65,0,0,0,337.43,114.39Z"/><path d="M344.36,117.24V117a2.85,2.85,0,0,1-1.41.37,3,3,0,0,1,0-6.09,2.84,2.84,0,0,1,1.41.36v-3.36h1.39v8.92Zm0-4a1.72,1.72,0,0,0-1.41-.65,1.82,1.82,0,0,0,0,3.61,1.73,1.73,0,0,0,1.41-.63Z"/><path d="M347.3,115.62a2.83,2.83,0,0,0,1.91.66.7.7,0,0,0,.78-.68c0-.32-.21-.54-1.16-.85s-1.52-.89-1.52-1.72.76-1.7,2-1.7a4.72,4.72,0,0,1,1.53.25V113a3,3,0,0,0-1.54-.46c-.53,0-.66.28-.66.52s.08.43.58.58c1.11.34,2.15.82,2.15,2a2.06,2.06,0,0,1-2.25,1.85,4.12,4.12,0,0,1-1.84-.36Z"/><path d="M357.09,117.24v-4.38h-1v-1.3h1v-1.31a2,2,0,0,1,2.31-2.11h.14v1.23h-.15a.85.85,0,0,0-.9,1v1.23h1.06v1.3h-1.06v4.38Z"/><path d="M360.59,114.39a3,3,0,1,1,3,3A3,3,0,0,1,360.59,114.39Zm4.68,0a1.65,1.65,0,1,0-1.64,1.79A1.65,1.65,0,0,0,365.27,114.39Z"/><path d="M368.15,117.25v-5.69h1.39v.17a2,2,0,0,1,1.12-.37H371v1.32a3.75,3.75,0,0,0-.48,0,1,1,0,0,0-1,.69v3.91Z"/><path d="M375.91,115.33a3.65,3.65,0,0,0,2.43.8,1.36,1.36,0,0,0,1.48-1.4c0-.69-.47-1.15-1.89-1.59s-2.06-1.26-2.06-2.33c0-1.25,1-2.23,2.73-2.23a5.75,5.75,0,0,1,2,.33v1.56a3.49,3.49,0,0,0-2-.59c-.87,0-1.22.46-1.22.92s.24.82,1,1.06c1.35.43,3,1,3,2.87,0,1.72-1.47,2.69-3.19,2.69a5.08,5.08,0,0,1-2.29-.47Z"/><path d="M386.28,117.25v-.07a2.63,2.63,0,0,1-1.25.32c-1.59,0-2.22-1-2.22-1.87v-4.07h1.38v3.88a.88.88,0,0,0,1,.85,1.08,1.08,0,0,0,1.1-.69v-4h1.39v5.69Z"/><path d="M389.49,117.25v-8.93h1.38v3.39a2.8,2.8,0,0,1,1.43-.38,3.05,3.05,0,0,1,0,6.1,2.9,2.9,0,0,1-1.43-.39v.21Zm1.38-1.74a1.7,1.7,0,0,0,1.43.67,1.81,1.81,0,0,0,0-3.6,1.67,1.67,0,0,0-1.43.69Z"/><path d="M403,117.24v-4a.79.79,0,0,0-.85-.72,1,1,0,0,0-.94.79v3.91h-1.35v-4a.78.78,0,0,0-.85-.72.93.93,0,0,0-.9.8v3.9h-1.35v-5.69h1.35v.15a1.9,1.9,0,0,1,1-.31,2.12,2.12,0,0,1,1.61.6,2.32,2.32,0,0,1,1.53-.6,1.81,1.81,0,0,1,2.05,1.78v4.07Z"/><path d="M407,110.24a.92.92,0,1,1,0-1.83.92.92,0,1,1,0,1.83Zm-.74,7v-5.7h1.47v5.7Z"/><path d="M409.26,115.62a2.83,2.83,0,0,0,1.91.66.7.7,0,0,0,.78-.68c0-.32-.21-.54-1.16-.85s-1.52-.89-1.52-1.72.76-1.7,2-1.7a4.72,4.72,0,0,1,1.53.25V113a3,3,0,0,0-1.54-.46c-.53,0-.66.28-.66.52s.08.43.58.58c1.11.34,2.15.82,2.15,2a2.06,2.06,0,0,1-2.25,1.85,4.12,4.12,0,0,1-1.84-.36Z"/><path d="M414.41,115.62a2.83,2.83,0,0,0,1.91.66.7.7,0,0,0,.78-.68c0-.32-.21-.54-1.16-.85s-1.52-.89-1.52-1.72.76-1.7,2-1.7a4.72,4.72,0,0,1,1.53.25V113a3,3,0,0,0-1.54-.46c-.53,0-.66.28-.66.52s.08.43.58.58c1.11.34,2.15.82,2.15,2a2.06,2.06,0,0,1-2.25,1.85,4.12,4.12,0,0,1-1.84-.36Z"/><path d="M420.76,110.24a.92.92,0,1,1,0-1.83.92.92,0,1,1,0,1.83Zm-.74,7v-5.7h1.47v5.7Z"/><path d="M423.06,114.39a3,3,0,1,1,3,3A3,3,0,0,1,423.06,114.39Zm4.68,0a1.65,1.65,0,1,0-1.64,1.79A1.65,1.65,0,0,0,427.74,114.39Z"/><path d="M434.1,117.25v-3.89a.91.91,0,0,0-1-.9,1.05,1.05,0,0,0-1.11.86v3.93h-1.38v-5.7H432v.16a2.22,2.22,0,0,1,1.26-.4,2,2,0,0,1,2.22,1.91v4Z"/><path d="M440.71,114.39a3,3,0,1,1,3,3A3,3,0,0,1,440.71,114.39Zm4.68,0a1.65,1.65,0,1,0-1.64,1.79A1.65,1.65,0,0,0,445.39,114.39Z"/><path d="M448.78,117.24v-4.38h-1v-1.3h1v-1.31a2,2,0,0,1,2.31-2.11h.14v1.23h-.15a.85.85,0,0,0-.9,1v1.23h1.06v1.3h-1.06v4.38Z"/><path d="M456.51,117.24v-8.48h5V110H458v2.07h3v1.26h-3V116h3.55v1.25Z"/><path d="M466.65,117.24l-1.27-1.94-1.3,1.94h-1.5l2-3-1.7-2.69h1.48l1,1.63,1-1.63H468l-1.79,2.69,2,3Z"/><path d="M472.92,117.25v-3.89a.91.91,0,0,0-1-.9,1.05,1.05,0,0,0-1.11.86v3.93h-1.38v-8.93h1.38v3.39a2.22,2.22,0,0,1,1.26-.4,2,2,0,0,1,2.22,1.91v4Z"/><path d="M476.93,110.24a.92.92,0,1,1,0-1.83.92.92,0,1,1,0,1.83Zm-.74,7v-5.7h1.47v5.7Z"/><path d="M479.57,117.25v-8.93H481v3.39a2.8,2.8,0,0,1,1.43-.38,3.05,3.05,0,0,1,0,6.1A2.9,2.9,0,0,1,481,117v.21Zm1.38-1.74a1.7,1.7,0,0,0,1.43.67,1.81,1.81,0,0,0,0-3.6,1.67,1.67,0,0,0-1.43.69Z"/><path d="M487.68,110.24a.92.92,0,1,1,0-1.83.92.92,0,1,1,0,1.83Zm-.74,7v-5.7h1.47v5.7Z"/><path d="M493.35,117.32H493c-1.15,0-2.19-.44-2.19-1.83v-2.64h-1v-1.31h1v-1.76h1.42v1.76h1.2v1.31h-1.2v2.41c0,.63.41.77.82.77l.32,0Z"/><path d="M494.46,114.39a3,3,0,1,1,3,3A3,3,0,0,1,494.46,114.39Zm4.68,0a1.65,1.65,0,1,0-1.64,1.79A1.65,1.65,0,0,0,499.14,114.39Z"/><path d="M502,117.25v-5.69h1.39v.17a2,2,0,0,1,1.12-.37h.35v1.32a3.75,3.75,0,0,0-.48,0,1,1,0,0,0-1,.69v3.91Z"/><path d="M510.18,117.25v-8.5h2.74c2.79,0,4.62,1.38,4.62,4.22s-1.66,4.28-4.66,4.28ZM513,116a2.7,2.7,0,0,0,3-3c0-2.16-1.27-3-3-3h-1.28V116Z"/><path d="M518.92,114.39a3,3,0,1,1,3,3A3,3,0,0,1,518.92,114.39Zm4.68,0a1.65,1.65,0,1,0-1.64,1.79A1.65,1.65,0,0,0,523.6,114.39Z"/><path d="M530.94,117.11a3.85,3.85,0,0,1-1.7.33,3,3,0,1,1,0-6.08,3.77,3.77,0,0,1,1.58.29v1.51a2.2,2.2,0,0,0-1.58-.51,1.75,1.75,0,0,0,0,3.5,2.45,2.45,0,0,0,1.7-.59Z"/><path d="M535.88,117.25v-.07a2.63,2.63,0,0,1-1.25.32c-1.59,0-2.22-1-2.22-1.87v-4.07h1.38v3.88a.88.88,0,0,0,1,.85,1.08,1.08,0,0,0,1.1-.69v-4h1.39v5.69Z"/><path d="M545.31,117.24v-4a.78.78,0,0,0-.84-.72,1,1,0,0,0-.94.79v3.91h-1.35v-4a.78.78,0,0,0-.85-.72.93.93,0,0,0-.9.8v3.9h-1.35v-5.69h1.35v.15a1.9,1.9,0,0,1,1-.31,2.12,2.12,0,0,1,1.61.6,2.32,2.32,0,0,1,1.53-.6,1.82,1.82,0,0,1,2,1.78v4.07Z"/><path d="M553.48,117a4.38,4.38,0,0,1-2.23.5,2.87,2.87,0,0,1-3.13-3,2.8,2.8,0,0,1,2.9-3.11,2.7,2.7,0,0,1,2.79,2.9l0,.4h-4.32v.07a1.61,1.61,0,0,0,1.75,1.57,3.07,3.07,0,0,0,2.22-.81Zm-1.07-3.36c0-.56-.4-1.12-1.39-1.12a1.39,1.39,0,0,0-1.46,1.12Z"/><path d="M558.75,117.25v-3.89a.91.91,0,0,0-1-.9,1.05,1.05,0,0,0-1.11.86v3.93h-1.38v-5.7h1.38v.16a2.22,2.22,0,0,1,1.26-.4,2,2,0,0,1,2.22,1.91v4Z"/><path d="M565,117.32h-.37c-1.15,0-2.19-.44-2.19-1.83v-2.64h-.95v-1.31h.95v-1.76h1.42v1.76H565v1.31h-1.2v2.41c0,.63.41.77.82.77l.32,0Z"/><path d="M566,115.62a2.83,2.83,0,0,0,1.91.66.7.7,0,0,0,.78-.68c0-.32-.21-.54-1.16-.85s-1.52-.89-1.52-1.72.76-1.7,2-1.7a4.72,4.72,0,0,1,1.53.25V113a3,3,0,0,0-1.54-.46c-.53,0-.66.28-.66.52s.08.43.58.58c1.11.34,2.15.82,2.15,2a2.06,2.06,0,0,1-2.25,1.85,4.12,4.12,0,0,1-1.84-.36Z"/><path d="M314.55,66.73l-.49-.36.08.62,0,.64h-.54l0-.64.07-.62-.49.37-.55.35-.27-.46.59-.31.55-.23-.56-.24-.58-.31.27-.46.54.34.5.38-.07-.62,0-.64h.54l0,.64-.08.62.5-.37.55-.35.26.46-.58.31-.56.24.57.23.57.3-.26.47Z"/><path d="M317.06,71v-6.4h3.6v.48h-3V67.2h2.6v.49h-2.6V71Z"/><path d="M324,71.1a2.24,2.24,0,1,1,2.24-2.24A2.19,2.19,0,0,1,324,71.1Zm1.65-2.24A1.66,1.66,0,1,0,324,70.63,1.65,1.65,0,0,0,325.69,68.86Z"/><path d="M327.74,71V66.74h.55v.37a2,2,0,0,1,1.32-.52v.54a1.5,1.5,0,0,0-1.32.6V71Z"/><path d="M338,70.58a2.84,2.84,0,0,1-1.75.54A2.09,2.09,0,0,1,334,68.88a2.07,2.07,0,0,1,2.13-2.28,1.9,1.9,0,0,1,2,2s0,.17,0,.22h-3.6v.11a1.59,1.59,0,0,0,1.73,1.73A2.59,2.59,0,0,0,338,70Zm-.46-2.22A1.33,1.33,0,0,0,336.13,67a1.49,1.49,0,0,0-1.53,1.32Z"/><path d="M342.27,71,341,69.12,339.71,71h-.61l1.59-2.24-1.36-2h.61L341,68.32l1.05-1.58h.62l-1.37,2L342.88,71Z"/><path d="M347,71V68.18a1,1,0,0,0-1.11-1.1,1.09,1.09,0,0,0-1.1.78V71h-.58V64.31h.58v2.74a1.69,1.69,0,0,1,1.16-.44,1.44,1.44,0,0,1,1.62,1.46V71Z"/><path d="M349.65,65.27a.45.45,0,0,1-.46-.42.46.46,0,0,1,.46-.45.47.47,0,0,1,.48.45A.45.45,0,0,1,349.65,65.27ZM349.37,71V66.74H350V71Z"/><path d="M351.78,71V64.31h.55V67a2.39,2.39,0,0,1,1.34-.41,2.25,2.25,0,1,1,0,4.5,2.29,2.29,0,0,1-1.34-.42V71Zm.55-.9a1.74,1.74,0,0,0,1.34.55,1.76,1.76,0,0,0,0-3.52,1.74,1.74,0,0,0-1.34.55Z"/><path d="M357.79,65.27a.45.45,0,0,1-.46-.42.46.46,0,0,1,.46-.45.47.47,0,0,1,.47.45A.45.45,0,0,1,357.79,65.27ZM357.5,71V66.74h.59V71Z"/><path d="M361.72,71.08c-.84,0-1.44-.31-1.44-1.17v-2.7h-.79v-.47h.79V65.25h.55v1.49h1v.47h-1v2.51c0,.75.41.84.92.9v.46Z"/><path d="M365.16,71.1a2.24,2.24,0,1,1,2.24-2.24A2.19,2.19,0,0,1,365.16,71.1Zm1.65-2.24a1.66,1.66,0,1,0-1.65,1.77A1.66,1.66,0,0,0,366.81,68.86Z"/><path d="M368.86,71V66.74h.55v.37a2,2,0,0,1,1.32-.52v.54a1.5,1.5,0,0,0-1.32.6V71Z"/><path d="M371.77,70.26a2,2,0,0,0,1.27.38.84.84,0,0,0,.93-.83c0-.5-.44-.71-.84-.87-.72-.24-1.36-.46-1.36-1.25,0-.58.45-1.08,1.36-1.08a3.14,3.14,0,0,1,1,.16v.56a2.11,2.11,0,0,0-1-.26c-.53,0-.83.28-.83.61s.19.55.69.72l.36.12c.69.22,1.18.59,1.18,1.29A1.37,1.37,0,0,1,373,71.12a2.56,2.56,0,0,1-1.25-.26Z"/><path d="M382.4,71l-.71-2.58c-.09-.3-.18-.77-.23-1,0,.29-.16.75-.23,1L380.52,71h-.59l-1.28-4.22h.58l.72,2.58c.07.24.18.74.28,1.12.08-.39.17-.78.25-1.08l.73-2.62h.52l.71,2.64c.09.3.16.62.25,1.06.11-.44.21-.84.28-1.1l.73-2.6h.58L383,71Z"/><path d="M385.93,65.27a.45.45,0,0,1-.47-.42.46.46,0,0,1,.47-.45.47.47,0,0,1,.47.45A.45.45,0,0,1,385.93,65.27ZM385.64,71V66.74h.58V71Z"/><path d="M389.85,71.08c-.84,0-1.44-.31-1.44-1.17v-2.7h-.78v-.47h.78V65.25H389v1.49h1v.47h-1v2.51c0,.75.4.84.92.9v.46Z"/><path d="M394.12,71V68.18a1,1,0,0,0-1.12-1.1,1.11,1.11,0,0,0-1.1.78V71h-.57V64.31h.57v2.74a1.69,1.69,0,0,1,1.16-.44,1.44,1.44,0,0,1,1.62,1.46V71Z"/><path d="M400.05,71V67.21h-.79v-.47h.79V65.59a1.33,1.33,0,0,1,1.39-1.41v.48a.88.88,0,0,0-.83,1v1.09h.85v.47h-.85V71Z"/><path d="M406.59,70.58a2.86,2.86,0,0,1-1.75.54,2.09,2.09,0,0,1-2.28-2.24,2.07,2.07,0,0,1,2.13-2.28,1.9,1.9,0,0,1,2,2s0,.17,0,.22h-3.6v.11a1.58,1.58,0,0,0,1.72,1.73,2.6,2.6,0,0,0,1.75-.68Zm-.47-2.22A1.31,1.31,0,0,0,404.69,67a1.49,1.49,0,0,0-1.53,1.32Z"/><path d="M411.38,71l-.7-2.58c-.09-.3-.19-.77-.24-1,0,.29-.16.75-.23,1L409.5,71h-.58l-1.28-4.22h.57l.72,2.58c.08.24.18.74.28,1.12.08-.39.17-.78.25-1.08l.73-2.62h.52l.72,2.64c.09.3.15.62.25,1.06.1-.44.2-.84.28-1.1l.72-2.6h.58L412,71Z"/><path d="M418.31,70.58a2.86,2.86,0,0,1-1.75.54,2.09,2.09,0,0,1-2.28-2.24,2.07,2.07,0,0,1,2.13-2.28,1.9,1.9,0,0,1,2,2s0,.17,0,.22h-3.6v.11a1.58,1.58,0,0,0,1.72,1.73,2.6,2.6,0,0,0,1.75-.68Zm-.47-2.22A1.31,1.31,0,0,0,416.41,67a1.49,1.49,0,0,0-1.53,1.32Z"/><path d="M419.83,71V66.74h.55v.37a2,2,0,0,1,1.32-.52v.54a1.49,1.49,0,0,0-1.32.6V71Z"/><path d="M319.19,82.08c-.84,0-1.44-.31-1.44-1.17v-2.7H317v-.47h.78V76.25h.55v1.49h1v.47h-1v2.51c0,.75.41.84.92.9v.46Z"/><path d="M323.45,82V79.18a1,1,0,0,0-1.11-1.1,1.11,1.11,0,0,0-1.1.78V82h-.58V75.31h.58v2.74a1.69,1.69,0,0,1,1.16-.44A1.44,1.44,0,0,1,324,79.07V82Z"/><path d="M328.52,82V81.8a2.66,2.66,0,0,1-1.26.28c-1.26,0-1.8-.59-1.8-1.32s.67-1.46,2-1.47a5.32,5.32,0,0,1,1,.09V79c0-.62-.51-.87-1.2-.87a4.67,4.67,0,0,0-1.32.22v-.51a4.25,4.25,0,0,1,1.26-.2c1,0,1.8.39,1.8,1.3v3Zm0-2.1a4.58,4.58,0,0,0-1-.11c-.86,0-1.45.37-1.45,1s.49.9,1.33.9a2.48,2.48,0,0,0,1.15-.29Z"/><path d="M333.57,82V79.18a1,1,0,0,0-1.11-1.1,1.12,1.12,0,0,0-1.1.78V82h-.58V77.74h.58v.31a1.69,1.69,0,0,1,1.16-.44,1.44,1.44,0,0,1,1.62,1.46V82Z"/><path d="M342.16,82V80.71H339v-.43l3.22-4.72h.53V80.2h.75v.51h-.75V82Zm0-3c0-.11,0-1.31.06-2.64h0c0,.06-.51.82-.8,1.26l-1.78,2.64h2.53Z"/><path d="M344.75,78.75c0-1.66.54-3.37,2.35-3.37s2.36,1.71,2.36,3.37-.55,3.37-2.36,3.37S344.75,80.4,344.75,78.75Zm4.07,0c0-1-.26-2.85-1.72-2.85s-1.71,1.8-1.71,2.85.26,2.86,1.71,2.86S348.82,79.8,348.82,78.74Z"/><path d="M354.19,82V75.31h.55V78a2.36,2.36,0,0,1,1.34-.41,2.25,2.25,0,1,1,0,4.5,2.27,2.27,0,0,1-1.34-.42V82Zm.55-.9a1.74,1.74,0,0,0,1.34.55,1.76,1.76,0,0,0,0-3.52,1.74,1.74,0,0,0-1.34.55Z"/><path d="M361.8,82.1A2.24,2.24,0,1,1,364,79.86,2.19,2.19,0,0,1,361.8,82.1Zm1.65-2.24a1.66,1.66,0,1,0-1.65,1.77A1.65,1.65,0,0,0,363.45,79.86Z"/><path d="M367.46,82.1a2.24,2.24,0,1,1,2.24-2.24A2.18,2.18,0,0,1,367.46,82.1Zm1.66-2.24a1.67,1.67,0,1,0-1.66,1.77A1.66,1.66,0,0,0,369.12,79.86Z"/><path d="M373,82.08c-.84,0-1.44-.31-1.44-1.17v-2.7h-.79v-.47h.79V76.25h.55v1.49h1v.47h-1v2.51c0,.75.41.84.92.9v.46Z"/><path d="M377.23,82V79.18a1,1,0,0,0-1.11-1.1,1.09,1.09,0,0,0-1.1.78V82h-.58V75.31H375v2.74a1.64,1.64,0,0,1,1.15-.44,1.44,1.44,0,0,1,1.63,1.46V82Z"/><path d="M379.18,81.26a2,2,0,0,0,1.27.38.84.84,0,0,0,.92-.83c0-.5-.43-.71-.83-.87-.72-.24-1.36-.46-1.36-1.25,0-.58.45-1.08,1.36-1.08a3.19,3.19,0,0,1,1,.16v.56a2.11,2.11,0,0,0-1-.26c-.53,0-.83.28-.83.61s.19.55.69.72l.36.12c.69.22,1.17.59,1.17,1.29a1.36,1.36,0,0,1-1.51,1.31,2.56,2.56,0,0,1-1.25-.26Z"/><path d="M312.32,11.85a2,2,0,0,0,.91.23,1.12,1.12,0,0,0,1.21-1.22V5.77h1.28v5.12a2.17,2.17,0,0,1-2.38,2.37,3.48,3.48,0,0,1-1-.15Z"/><path d="M320.52,13.1V13a2.29,2.29,0,0,1-1.07.27c-1.37,0-1.92-.82-1.92-1.61V8.18h1.19v3.36a.77.77,0,0,0,.86.73.91.91,0,0,0,.94-.6V8.18h1.2V13.1Z"/><path d="M326.45,13.1V9.74A.78.78,0,0,0,325.6,9a.91.91,0,0,0-1,.74v3.4h-1.19V8.17h1.19v.14A2,2,0,0,1,325.73,8a1.67,1.67,0,0,1,1.91,1.64V13.1Z"/><path d="M333.68,12.87a3.86,3.86,0,0,1-1.93.43,2.48,2.48,0,0,1-2.69-2.62A2.41,2.41,0,0,1,331.56,8,2.33,2.33,0,0,1,334,10.5v.36h-3.73v.06a1.39,1.39,0,0,0,1.51,1.35,2.65,2.65,0,0,0,1.92-.7ZM332.75,10c0-.48-.34-1-1.19-1a1.2,1.2,0,0,0-1.26,1Z"/><path d="M338.69,11.3a3.45,3.45,0,0,0,2.07.74c1.47,0,1.66-1,1.66-1.3a1.17,1.17,0,0,0-1.33-1.11H341c-.11,0-.57,0-.71,0V8.52a3.92,3.92,0,0,0,.68,0,1.08,1.08,0,0,0,1.14-1c0-.82-1-.86-1.29-.86a3.39,3.39,0,0,0-1.83.59V6a4.61,4.61,0,0,1,1.88-.38c2.32,0,2.48,1.49,2.48,1.95a1.73,1.73,0,0,1-.79,1.53,1.83,1.83,0,0,1,1.18,1.76c0,1-.76,2.42-3.06,2.42a3.71,3.71,0,0,1-2-.51Z"/><path d="M345.19,9.42c0-1.72.56-3.83,2.78-3.83s2.79,2.11,2.79,3.83-.59,3.84-2.79,3.84S345.19,11.14,345.19,9.42Zm4.25,0c0-1.19-.31-2.66-1.47-2.66s-1.47,1.47-1.47,2.66.3,2.64,1.47,2.64S349.44,10.61,349.44,9.42Z"/><path d="M353.77,13.72a7,7,0,0,1-1.32-4.3,7,7,0,0,1,1.32-4.31H355a7.09,7.09,0,0,0-1.41,4.31,7.08,7.08,0,0,0,1.41,4.3Z"/><path d="M358.21,13.1V6.87h-2V5.76h5.4V6.87h-2.05V13.1Z"/><path d="M365.94,13.1V13a2.29,2.29,0,0,1-1.07.27c-1.37,0-1.92-.82-1.92-1.61V8.18h1.19v3.36a.77.77,0,0,0,.86.73.91.91,0,0,0,.94-.6V8.18h1.2V13.1Z"/><path d="M373.18,12.87a3.88,3.88,0,0,1-1.93.43,2.48,2.48,0,0,1-2.7-2.62A2.42,2.42,0,0,1,371.05,8a2.34,2.34,0,0,1,2.42,2.5v.36h-3.73v.06a1.39,1.39,0,0,0,1.51,1.35,2.65,2.65,0,0,0,1.92-.7ZM372.25,10c0-.48-.34-1-1.2-1a1.2,1.2,0,0,0-1.25,1Z"/><path d="M375.56,13.27a.85.85,0,0,1-.84-.85.85.85,0,0,1,1.69,0A.85.85,0,0,1,375.56,13.27Z"/><path d="M377.8,13.72a7.08,7.08,0,0,0,1.41-4.3,7.09,7.09,0,0,0-1.41-4.31H379a7,7,0,0,1,1.33,4.31,7,7,0,0,1-1.33,4.3Z"/><path d="M382,14.17l1-2.64h1.44L383,14.17Z"/><path d="M388.92,13.09a7.85,7.85,0,0,1,2.26-3,9.74,9.74,0,0,0,1.38-1.45,1.61,1.61,0,0,0,.23-.81,1.14,1.14,0,0,0-1.28-1.15,2.74,2.74,0,0,0-1.93.78V6a4.78,4.78,0,0,1,1.93-.42c1.78,0,2.62,1,2.62,2.21a2.87,2.87,0,0,1-.48,1.53A9.17,9.17,0,0,1,392,11a7.59,7.59,0,0,0-1,1l3.19,0v1.15Z"/><path d="M395.66,9.42c0-1.72.56-3.83,2.78-3.83s2.79,2.11,2.79,3.83-.59,3.84-2.79,3.84S395.66,11.14,395.66,9.42Zm4.25,0c0-1.19-.31-2.66-1.47-2.66S397,8.23,397,9.42s.3,2.64,1.47,2.64S399.91,10.61,399.91,9.42Z"/><path d="M402.33,13.09a7.85,7.85,0,0,1,2.26-3A9.74,9.74,0,0,0,406,8.67a1.61,1.61,0,0,0,.23-.81,1.14,1.14,0,0,0-1.28-1.15,2.74,2.74,0,0,0-1.93.78V6a4.78,4.78,0,0,1,1.93-.42c1.78,0,2.62,1,2.62,2.21a2.87,2.87,0,0,1-.48,1.53A9.17,9.17,0,0,1,405.42,11a7.59,7.59,0,0,0-1,1l3.19,0v1.15Z"/><path d="M409.07,9.42c0-1.72.56-3.83,2.78-3.83s2.79,2.11,2.79,3.83-.59,3.84-2.79,3.84S409.07,11.14,409.07,9.42Zm4.25,0c0-1.19-.31-2.66-1.47-2.66s-1.47,1.47-1.47,2.66.3,2.64,1.47,2.64S413.32,10.61,413.32,9.42Z"/><path d="M469.32,11.85a2,2,0,0,0,.91.23,1.12,1.12,0,0,0,1.21-1.22V5.77h1.28v5.12a2.17,2.17,0,0,1-2.38,2.37,3.48,3.48,0,0,1-1-.15Z"/><path d="M477.52,13.1V13a2.29,2.29,0,0,1-1.07.27c-1.37,0-1.92-.82-1.92-1.61V8.18h1.19v3.36a.77.77,0,0,0,.86.73.91.91,0,0,0,.94-.6V8.18h1.2V13.1Z"/><path d="M480.61,13.1V5.39h1.26V13.1Z"/><path d="M483.5,14.82l.25,0a.8.8,0,0,0,.74-.54c.08-.19.45-1.08.51-1.3l-1.75-4.83h1.3l.77,2.41s.21.69.31,1.15c.09-.42.33-1.18.33-1.18l.78-2.38H488s-2.13,5.72-2.27,6.11c-.43,1.19-.88,1.74-1.88,1.74l-.38,0Z"/><path d="M492.59,11.3a3.43,3.43,0,0,0,2.07.74c1.47,0,1.65-1,1.65-1.3A1.17,1.17,0,0,0,495,9.63h-.11c-.11,0-.58,0-.71,0V8.52a3.81,3.81,0,0,0,.68,0,1.09,1.09,0,0,0,1.14-1c0-.82-1-.86-1.29-.86a3.42,3.42,0,0,0-1.84.59V6a4.68,4.68,0,0,1,1.88-.38c2.33,0,2.49,1.49,2.49,1.95a1.72,1.72,0,0,1-.8,1.53,1.82,1.82,0,0,1,1.18,1.76c0,1-.75,2.42-3.06,2.42a3.67,3.67,0,0,1-1.95-.51Z"/><path d="M501.43,13.09V6.93h-1.1V5.76h2.4V13.1Z"/><path d="M507.67,13.72a7,7,0,0,1-1.33-4.3,7,7,0,0,1,1.33-4.31h1.22a7.09,7.09,0,0,0-1.41,4.31,7.08,7.08,0,0,0,1.41,4.3Z"/><path d="M510.56,13.1V5.76H515V6.85h-3.15v1.7h2.72V9.64h-2.72V13.1Z"/><path d="M516.61,13.1V8.18h1.2v.15a1.65,1.65,0,0,1,1-.32h.3V9.15a2.73,2.73,0,0,0-.41,0,.86.86,0,0,0-.85.6V13.1Z"/><path d="M521.17,7.05a.79.79,0,1,1,.82-.78A.8.8,0,0,1,521.17,7.05Zm-.64,6.05V8.17h1.27V13.1Z"/><path d="M524.28,13.27a.85.85,0,0,1-.85-.85.85.85,0,1,1,.85.85Z"/><path d="M526.52,13.72a7.08,7.08,0,0,0,1.41-4.3,7.09,7.09,0,0,0-1.41-4.31h1.22a7,7,0,0,1,1.32,4.31,7,7,0,0,1-1.32,4.3Z"/><path d="M530.74,14.17l1-2.64h1.44l-1.46,2.64Z"/><path d="M537.64,13.09a7.85,7.85,0,0,1,2.26-3,9.74,9.74,0,0,0,1.38-1.45,1.61,1.61,0,0,0,.23-.81,1.15,1.15,0,0,0-1.28-1.15,2.74,2.74,0,0,0-1.93.78V6a4.74,4.74,0,0,1,1.93-.42c1.78,0,2.61,1,2.61,2.21a2.85,2.85,0,0,1-.47,1.53A8.92,8.92,0,0,1,540.72,11a8,8,0,0,0-1,1l3.19,0v1.15Z"/><path d="M544.38,9.42c0-1.72.56-3.83,2.77-3.83S550,7.7,550,9.42s-.59,3.84-2.8,3.84S544.38,11.14,544.38,9.42Zm4.25,0c0-1.19-.31-2.66-1.48-2.66s-1.46,1.47-1.46,2.66.3,2.64,1.46,2.64S548.63,10.61,548.63,9.42Z"/><path d="M551.05,13.09a7.85,7.85,0,0,1,2.26-3,9.74,9.74,0,0,0,1.38-1.45,1.61,1.61,0,0,0,.23-.81,1.15,1.15,0,0,0-1.28-1.15,2.74,2.74,0,0,0-1.93.78V6a4.74,4.74,0,0,1,1.93-.42c1.78,0,2.61,1,2.61,2.21a2.85,2.85,0,0,1-.47,1.53A8.92,8.92,0,0,1,554.13,11a8,8,0,0,0-1,1l3.19,0v1.15Z"/><path d="M557.79,9.42c0-1.72.56-3.83,2.77-3.83s2.8,2.11,2.8,3.83-.59,3.84-2.8,3.84S557.79,11.14,557.79,9.42Zm4.25,0c0-1.19-.31-2.66-1.48-2.66s-1.46,1.47-1.46,2.66.3,2.64,1.46,2.64S562,10.61,562,9.42Z"/><rect class="cls-2" y="19.49" width="127" height="41"/><rect class="cls-3" x="153" y="19.49" width="132" height="41"/><rect class="cls-2" x="310" y="19.49" width="132" height="41"/><rect class="cls-3" x="468" y="19.49" width="132" height="41"/><path class="cls-4" d="M29.69,36.26l-.89-2.41H25.05l-.89,2.41h-1.9l3.85-10.21h1.63l3.84,10.21ZM28,31.34c-.28-1-1-3.26-1-3.26s-.74,2.29-1,3.21l-.34,1.09h2.72Z"/><path class="cls-4" d="M33.41,40.18V29.42h1.67v.21a3.27,3.27,0,0,1,1.7-.46,3.66,3.66,0,0,1,0,7.32,3.24,3.24,0,0,1-1.7-.46v4.14Zm1.67-6a2,2,0,0,0,1.7.79,2,2,0,0,0,1.93-2.16,2,2,0,0,0-3.63-1.35Z"/><path class="cls-4" d="M42.41,40.18V29.42h1.67v.21a3.27,3.27,0,0,1,1.7-.46,3.66,3.66,0,0,1,0,7.32,3.24,3.24,0,0,1-1.7-.46v4.14Zm1.67-6a2,2,0,0,0,1.7.79,2,2,0,0,0,1.93-2.16,2,2,0,0,0-3.63-1.35Z"/><path class="cls-4" d="M51.61,36.26V25.54h1.76V36.26Z"/><path class="cls-4" d="M57,27.84a1.1,1.1,0,1,1,0-2.19,1.1,1.1,0,1,1,0,2.19Zm-.89,8.42V29.41h1.76v6.85Z"/><path class="cls-4" d="M65.72,36.09a4.62,4.62,0,0,1-2,.4,3.66,3.66,0,1,1,0-7.31,4.5,4.5,0,0,1,1.9.35v1.81a2.69,2.69,0,0,0-1.9-.61,2.11,2.11,0,0,0,0,4.21,2.91,2.91,0,0,0,2-.71Z"/><path class="cls-4" d="M71.72,36.26v-.32a2.9,2.9,0,0,1-1.7.46c-1.49,0-2.67-.81-2.67-2.14s1.11-2.36,3.26-2.36a4.92,4.92,0,0,1,1.11.11l0-.44c0-.67-.72-.95-1.65-.95a6.66,6.66,0,0,0-2,.34V29.5a7,7,0,0,1,2.1-.32c1.6,0,3.15.57,3.15,2.13v4.95Zm0-2.76a2.55,2.55,0,0,0-1.16-.24c-1.2,0-1.63.34-1.63.94s.36.86,1.2.86a2.36,2.36,0,0,0,1.59-.54Z"/><path class="cls-4" d="M79.46,36.34a3.24,3.24,0,0,1-.44,0c-1.38,0-2.63-.53-2.63-2.2V31H75.25V29.41h1.14V27.3H78.1v2.11h1.44V31H78.1v2.91c0,.75.49.92,1,.92l.38,0Z"/><path class="cls-4" d="M82.42,27.84a1.1,1.1,0,1,1,0-2.19,1.1,1.1,0,1,1,0,2.19Zm-.89,8.42V29.41h1.76v6.85Z"/><path class="cls-4" d="M85.42,32.83a3.64,3.64,0,1,1,3.64,3.66A3.56,3.56,0,0,1,85.42,32.83Zm5.61,0a2,2,0,1,0-3.94,0,2,2,0,1,0,3.94,0Z"/><path class="cls-4" d="M98.9,36.26V31.58a1.1,1.1,0,0,0-1.18-1.08,1.26,1.26,0,0,0-1.33,1v4.72H94.73V29.41h1.66v.19a2.68,2.68,0,0,1,1.51-.47c1.9,0,2.66,1.18,2.66,2.29v4.84Z"/><path class="cls-4" d="M23,50.46V40.25h3.29c3.34,0,5.55,1.66,5.55,5.06s-2,5.15-5.6,5.15Zm3.32-1.54c2.2,0,3.65-1.1,3.65-3.56s-1.54-3.57-3.65-3.57H24.81v7.13Z"/><path class="cls-4" d="M40.13,50.13a5.22,5.22,0,0,1-2.68.6A3.44,3.44,0,0,1,33.7,47.1c0-2,1.07-3.73,3.48-3.73a3.25,3.25,0,0,1,3.36,3.48v.49H35.37v.08a1.94,1.94,0,0,0,2.1,1.89,3.68,3.68,0,0,0,2.66-1Zm-1.29-4c0-.67-.47-1.34-1.66-1.34a1.66,1.66,0,0,0-1.75,1.34Z"/><path class="cls-4" d="M46.51,50.46v-.33a2.84,2.84,0,0,1-1.7.47c-1.49,0-2.67-.81-2.67-2.14s1.11-2.37,3.26-2.37a4.91,4.91,0,0,1,1.11.12v-.44c0-.67-.71-1-1.64-1a6.35,6.35,0,0,0-2,.34V43.69a7.29,7.29,0,0,1,2.1-.31c1.6,0,3.15.57,3.15,2.12v5Zm0-2.76a2.55,2.55,0,0,0-1.16-.24c-1.2,0-1.63.33-1.63.94s.36.86,1.2.86a2.41,2.41,0,0,0,1.59-.54Z"/><path class="cls-4" d="M55.46,50.45v-.24a3.45,3.45,0,0,1-1.69.44,3.66,3.66,0,0,1,0-7.32,3.35,3.35,0,0,1,1.69.44v-4h1.67V50.45Zm0-4.85a2.06,2.06,0,0,0-1.69-.78,2.18,2.18,0,0,0,0,4.34,2.07,2.07,0,0,0,1.69-.75Z"/><path class="cls-4" d="M59.91,50.46V39.74h1.75V50.46Z"/><path class="cls-4" d="M65.27,42a1.1,1.1,0,1,1,0-2.2,1.1,1.1,0,1,1,0,2.2Zm-.89,8.42V43.61h1.77v6.85Z"/><path class="cls-4" d="M72.84,50.46V45.78a1.1,1.1,0,0,0-1.19-1.08,1.27,1.27,0,0,0-1.33,1v4.73H68.67V43.61h1.65v.19a2.66,2.66,0,0,1,1.51-.48c1.91,0,2.67,1.19,2.67,2.29v4.85Z"/><path class="cls-4" d="M82.9,50.13a5.22,5.22,0,0,1-2.68.6,3.44,3.44,0,0,1-3.75-3.63c0-2,1.06-3.73,3.47-3.73a3.24,3.24,0,0,1,3.36,3.48v.49H78.13v.08a1.94,1.94,0,0,0,2.1,1.89,3.7,3.7,0,0,0,2.67-1Zm-1.29-4c0-.67-.48-1.34-1.67-1.34a1.68,1.68,0,0,0-1.75,1.34Z"/><path class="cls-4" d="M166,36.26V26.05h2.89c1.85,0,3.37.58,3.37,2.59a2.61,2.61,0,0,1-1.16,2.06,2.25,2.25,0,0,1,1.64,2.44c0,2-1.51,3.12-3.73,3.12Zm2.77-6.12c1.18,0,1.7-.51,1.7-1.36s-.5-1.26-1.65-1.26h-1.07v2.62Zm.09,4.66c1.41,0,2-.63,2-1.73s-.81-1.55-1.93-1.55h-1.21V34.8Z"/><path class="cls-4" d="M174.43,32.83a3.64,3.64,0,1,1,3.65,3.66A3.57,3.57,0,0,1,174.43,32.83Zm5.61,0a2,2,0,1,0-3.94,0,2,2,0,1,0,3.94,0Z"/><path class="cls-4" d="M183.35,32.83A3.64,3.64,0,1,1,187,36.49,3.56,3.56,0,0,1,183.35,32.83Zm5.61,0a2,2,0,1,0-4,0,2,2,0,1,0,4,0Z"/><path class="cls-4" d="M196.31,36.34a3.39,3.39,0,0,1-.45,0c-1.38,0-2.63-.53-2.63-2.2V31H192.1V29.41h1.13V27.3h1.71v2.11h1.44V31h-1.44v2.91c0,.75.49.92,1,.92l.39,0Z"/><path class="cls-4" d="M202.45,36.26V31.58a1.1,1.1,0,0,0-1.19-1.08,1.27,1.27,0,0,0-1.33,1v4.72h-1.66V25.54h1.66V29.6a2.73,2.73,0,0,1,1.51-.47c1.91,0,2.66,1.18,2.66,2.29v4.84Z"/><path class="cls-4" d="M211.43,36.26V26.05h1.78v8.66h3.9v1.55Z"/><path class="cls-4" d="M218.83,32.83a3.64,3.64,0,1,1,3.65,3.66A3.57,3.57,0,0,1,218.83,32.83Zm5.61,0a2,2,0,1,0-3.94,0,2,2,0,1,0,3.94,0Z"/><path class="cls-4" d="M233.49,36.09a4.65,4.65,0,0,1-2,.4,3.66,3.66,0,1,1,0-7.31,4.52,4.52,0,0,1,1.9.35v1.81a2.69,2.69,0,0,0-1.9-.61,2.11,2.11,0,0,0,0,4.21,2.94,2.94,0,0,0,2-.71Z"/><path class="cls-4" d="M239.49,36.26v-.32a2.92,2.92,0,0,1-1.7.46c-1.49,0-2.68-.81-2.68-2.14s1.12-2.36,3.27-2.36a4.92,4.92,0,0,1,1.11.11v-.44c0-.67-.72-.95-1.64-.95a6.66,6.66,0,0,0-2,.34V29.5a6.94,6.94,0,0,1,2.09-.32c1.61,0,3.16.57,3.16,2.13v4.95Zm0-2.76a2.55,2.55,0,0,0-1.16-.24c-1.2,0-1.63.34-1.63.94s.36.86,1.2.86a2.36,2.36,0,0,0,1.59-.54Z"/><path class="cls-4" d="M247.23,36.34a3.24,3.24,0,0,1-.44,0c-1.38,0-2.63-.53-2.63-2.2V31H243V29.41h1.14V27.3h1.71v2.11h1.43V31h-1.43v2.91c0,.75.49.92,1,.92l.38,0Z"/><path class="cls-4" d="M250.19,27.84a1.1,1.1,0,1,1,0-2.19,1.1,1.1,0,1,1,0,2.19Zm-.89,8.42V29.41h1.76v6.85Z"/><path class="cls-4" d="M253.19,32.83a3.64,3.64,0,1,1,3.64,3.66A3.56,3.56,0,0,1,253.19,32.83Zm5.61,0a2,2,0,1,0-4,0,2,2,0,1,0,4,0Z"/><path class="cls-4" d="M266.67,36.26V31.58a1.1,1.1,0,0,0-1.19-1.08,1.27,1.27,0,0,0-1.33,1v4.72H262.5V29.41h1.65v.19a2.73,2.73,0,0,1,1.51-.47c1.91,0,2.67,1.18,2.67,2.29v4.84Z"/><path class="cls-4" d="M175.15,50.45l-.51-4.63a27.94,27.94,0,0,1-.14-3.13v-.48a28.59,28.59,0,0,1-.88,3.4L172,50.45h-1.46l-1.74-5c-.28-.79-.77-3.16-.79-3.28s0,2.69-.14,3.69l-.51,4.63h-1.9l1.49-10.2h1.66l1.76,5c.31.86.62,1.91.89,2.87.26-1,.6-2,.91-2.91l1.76-5h1.62l1.5,10.2Z"/><path class="cls-4" d="M185.1,50.13a5.22,5.22,0,0,1-2.68.6,3.44,3.44,0,0,1-3.75-3.63c0-2,1.07-3.73,3.48-3.73a3.24,3.24,0,0,1,3.35,3.48l0,.49h-5.19v.08a1.94,1.94,0,0,0,2.1,1.89,3.7,3.7,0,0,0,2.67-1Zm-1.29-4c0-.67-.48-1.34-1.66-1.34a1.66,1.66,0,0,0-1.75,1.34Z"/><path class="cls-4" d="M193.47,50.13a5.18,5.18,0,0,1-2.67.6A3.45,3.45,0,0,1,187,47.1c0-2,1.07-3.73,3.48-3.73a3.24,3.24,0,0,1,3.36,3.48v.49h-5.18v.08a1.94,1.94,0,0,0,2.1,1.89,3.66,3.66,0,0,0,2.66-1Zm-1.28-4c-.05-.67-.48-1.34-1.67-1.34a1.66,1.66,0,0,0-1.75,1.34Z"/><path class="cls-4" d="M199.51,50.54h-.44c-1.38,0-2.63-.52-2.63-2.19V45.18H195.3V43.61h1.14V41.5h1.7v2.11h1.44v1.57h-1.44v2.9c0,.76.49.93,1,.93a2.34,2.34,0,0,0,.38,0Z"/><path class="cls-4" d="M202.46,42a1.1,1.1,0,1,1,0-2.2,1.1,1.1,0,1,1,0,2.2Zm-.89,8.42V43.61h1.77v6.85Z"/><path class="cls-4" d="M210,50.46V45.78a1.1,1.1,0,0,0-1.18-1.08,1.28,1.28,0,0,0-1.34,1v4.73h-1.65V43.61h1.65v.19a2.66,2.66,0,0,1,1.51-.48c1.91,0,2.67,1.19,2.67,2.29v4.85Z"/><path class="cls-4" d="M217.26,48.72a4.53,4.53,0,0,1-1.09-.09h0c-.21,0-.61.29-.61.58s.07.35,1.05.35c.43,0,.91,0,1.38,0a6.57,6.57,0,0,1,1.3.11,1.91,1.91,0,0,1,1.61,1.92c0,1.13-1,2.84-3.81,2.84-1.75,0-3.47-.79-3.47-2.47a1.55,1.55,0,0,1,.86-1.45,1.52,1.52,0,0,1-.52-1.17,1.54,1.54,0,0,1,.74-1.36,2.41,2.41,0,0,1-.69-1.81,2.83,2.83,0,0,1,3.12-2.85,3.51,3.51,0,0,1,1.21.24,2.25,2.25,0,0,1,2.05-.75h.31v1.74h-.32c-.35,0-.65,0-.69.1a2.54,2.54,0,0,1,.51,1.48,2.63,2.63,0,0,1-2.83,2.63Zm-2.09,3.06c0,.74.8,1.23,1.8,1.23,1.15,0,2.18-.57,2.18-1.3a.67.67,0,0,0-.38-.62,7.86,7.86,0,0,0-1.72-.1,10.56,10.56,0,0,1-1.18,0A.76.76,0,0,0,215.17,51.78Zm1.91-7.09a1.38,1.38,0,0,0-1.57,1.41c0,.78.55,1.32,1.62,1.32a1.35,1.35,0,0,0,1.46-1.35A1.39,1.39,0,0,0,217.08,44.69Z"/><path class="cls-4" d="M318.77,36.09V28.45h4.52v1.13H320.1v1.86h2.74v1.13H320.1V35h3.19v1.12Z"/><path class="cls-4" d="M327.54,36.09l-1.14-1.74-1.17,1.74h-1.35l1.83-2.71L324.18,31h1.34l.9,1.47.93-1.47h1.36l-1.61,2.42,1.8,2.71Z"/><path class="cls-4" d="M332.82,36.1V32.59a.82.82,0,0,0-.89-.81,1,1,0,0,0-1,.77V36.1h-1.24v-8h1.24v3.06a2,2,0,0,1,1.14-.36,1.75,1.75,0,0,1,2,1.71V36.1Z"/><path class="cls-4" d="M336.07,29.78a.83.83,0,0,1-.85-.81.84.84,0,0,1,.85-.84.86.86,0,0,1,.86.84A.84.84,0,0,1,336.07,29.78Zm-.66,6.32V31h1.32V36.1Z"/><path class="cls-4" d="M338.09,36.1v-8h1.24v3.06a2.49,2.49,0,0,1,1.29-.35,2.75,2.75,0,0,1,0,5.5,2.59,2.59,0,0,1-1.29-.35v.19Zm1.24-1.56a1.56,1.56,0,0,0,1.29.6,1.63,1.63,0,1,0-1.29-2.63Z"/><path class="cls-4" d="M345,29.78a.84.84,0,0,1-.86-.81.86.86,0,0,1,1.71,0A.83.83,0,0,1,345,29.78Zm-.67,6.32V31h1.32V36.1Z"/><path class="cls-4" d="M349.77,36.17h-.33c-1,0-2-.39-2-1.64V32.14h-.86V31h.86V29.38h1.27V31h1.09v1.18h-1.09v2.18c0,.57.37.69.74.69h.29Z"/><path class="cls-4" d="M350.41,33.53a2.73,2.73,0,1,1,2.74,2.74A2.67,2.67,0,0,1,350.41,33.53Zm4.21,0a1.49,1.49,0,1,0-1.47,1.61A1.48,1.48,0,0,0,354.62,33.53Z"/><path class="cls-4" d="M356.85,36.1V31h1.25v.15a1.82,1.82,0,0,1,1-.33h.32V32a3.11,3.11,0,0,0-.43,0,.91.91,0,0,0-.9.62V36.1Z"/><path class="cls-4" d="M363.49,36.1V28.44h2.17c1.38,0,2.53.43,2.53,1.95a1.91,1.91,0,0,1-.88,1.53,1.7,1.7,0,0,1,1.24,1.84c0,1.5-1.14,2.34-2.8,2.34Zm2.08-4.59c.88,0,1.27-.39,1.27-1s-.37-.94-1.24-.94h-.8v2Zm.06,3.49c1.06,0,1.53-.46,1.53-1.29s-.61-1.16-1.45-1.16h-.91V35Z"/><path class="cls-4" d="M369.54,36.1V31h1.25v.15a1.82,1.82,0,0,1,1-.33h.32V32a3.11,3.11,0,0,0-.43,0,.91.91,0,0,0-.9.62V36.1Z"/><path class="cls-4" d="M373.76,29.78a.83.83,0,0,1-.85-.81.85.85,0,0,1,.85-.84.86.86,0,0,1,.86.84A.84.84,0,0,1,373.76,29.78Zm-.66,6.32V31h1.32V36.1Z"/><path class="cls-4" d="M380.26,35.86a3.9,3.9,0,0,1-2,.45,2.59,2.59,0,0,1-2.82-2.73,2.52,2.52,0,0,1,2.61-2.8,2.43,2.43,0,0,1,2.52,2.61v.37h-3.89v.06a1.45,1.45,0,0,0,1.57,1.42,2.75,2.75,0,0,0,2-.73Zm-1-3c0-.51-.36-1-1.25-1a1.27,1.27,0,0,0-1.32,1Z"/><path class="cls-4" d="M382,36.09v-4h-.86V31H382V29.79a1.84,1.84,0,0,1,2.08-1.9h.13V29H384a.77.77,0,0,0-.81.87V31h1v1.17h-1v4Zm3.65-6.31a.84.84,0,0,1-.86-.81.86.86,0,0,1,.86-.84.84.84,0,0,1,.85.84A.83.83,0,0,1,385.62,29.78ZM385,36.1V31h1.32V36.1Z"/><path class="cls-4" d="M390.77,36.1V32.59a.83.83,0,0,0-.9-.81.94.94,0,0,0-1,.77V36.1h-1.25V31h1.25v.15a2,2,0,0,1,1.13-.36,1.75,1.75,0,0,1,2,1.71V36.1Z"/><path class="cls-4" d="M395.64,34.8a3.43,3.43,0,0,1-.82-.07h0c-.15,0-.46.22-.46.44s.05.26.79.26l1,0a4.88,4.88,0,0,1,1,.08,1.42,1.42,0,0,1,1.21,1.44c0,.85-.73,2.13-2.86,2.13-1.31,0-2.6-.59-2.6-1.85a1.17,1.17,0,0,1,.64-1.09,1.2,1.2,0,0,1,.17-1.9,1.79,1.79,0,0,1-.52-1.36,2.13,2.13,0,0,1,2.34-2.14,2.62,2.62,0,0,1,.91.18,1.7,1.7,0,0,1,1.54-.56h.23v1.31H398c-.26,0-.49,0-.51.07a1.93,1.93,0,0,1,.37,1.12,2,2,0,0,1-2.12,2Zm-1.56,2.29c0,.56.6.93,1.35.93s1.64-.43,1.64-1a.49.49,0,0,0-.29-.46,5.6,5.6,0,0,0-1.29-.08h-.89A.57.57,0,0,0,394.08,37.09Zm1.43-5.32a1,1,0,0,0-1.18,1.06c0,.59.41,1,1.21,1a1,1,0,0,0,1.1-1A1,1,0,0,0,395.51,31.77Z"/><path class="cls-4" d="M401.75,36.1l3.18-7.66H406L402.8,36.1Z"/><path class="cls-4" d="M318.77,50.3V42.64h2.17c1.39,0,2.53.43,2.53,1.94a1.93,1.93,0,0,1-.87,1.54A1.7,1.7,0,0,1,323.83,48c0,1.5-1.13,2.34-2.8,2.34Zm2.08-4.59c.89,0,1.28-.39,1.28-1s-.38-.94-1.24-.94h-.8v2Zm.07,3.49c1.06,0,1.53-.47,1.53-1.3s-.62-1.16-1.45-1.16h-.91V49.2Z"/><path class="cls-4" d="M324.53,47.72a2.74,2.74,0,1,1,2.74,2.75A2.68,2.68,0,0,1,324.53,47.72Zm4.22,0a1.49,1.49,0,1,0-1.48,1.62A1.49,1.49,0,0,0,328.75,47.72Z"/><path class="cls-4" d="M330.68,47.72a2.74,2.74,0,1,1,2.74,2.75A2.67,2.67,0,0,1,330.68,47.72Zm4.21,0a1.49,1.49,0,1,0-1.47,1.62A1.48,1.48,0,0,0,334.89,47.72Z"/><path class="cls-4" d="M339.86,50.36h-.33c-1,0-2-.39-2-1.65V46.34h-.86V45.16h.86V43.57h1.28v1.59h1.08v1.18h-1.08v2.18c0,.56.36.69.73.69l.29,0Z"/><path class="cls-4" d="M343.93,50.3V46.79A.82.82,0,0,0,343,46a1,1,0,0,0-1,.77V50.3H340.8v-8H342v3a2,2,0,0,1,1.13-.36,1.75,1.75,0,0,1,2,1.72V50.3Z"/><path class="cls-4" d="M349.58,50.3V42.64h1.34v6.5h2.93V50.3Z"/><path class="cls-4" d="M354.59,47.72a2.74,2.74,0,1,1,2.74,2.75A2.68,2.68,0,0,1,354.59,47.72Zm4.22,0a1.49,1.49,0,1,0-1.48,1.62A1.49,1.49,0,0,0,358.81,47.72Z"/><path class="cls-4" d="M365.05,50.17a3.38,3.38,0,0,1-1.53.3,2.74,2.74,0,1,1,0-5.48,3.37,3.37,0,0,1,1.43.26v1.36a2,2,0,0,0-1.43-.46,1.58,1.58,0,0,0,0,3.16,2.2,2.2,0,0,0,1.53-.53Z"/><path class="cls-4" d="M369,50.3v-.24a2.26,2.26,0,0,1-1.28.35c-1.11,0-2-.62-2-1.61s.83-1.78,2.45-1.78a3.7,3.7,0,0,1,.83.09v-.33c0-.5-.54-.71-1.23-.71a5,5,0,0,0-1.47.25v-1.1A5.63,5.63,0,0,1,367.9,45c1.2,0,2.36.42,2.36,1.59V50.3Zm0-2.07a1.82,1.82,0,0,0-.87-.18c-.9,0-1.22.25-1.22.7s.27.65.9.65A1.76,1.76,0,0,0,369,49Z"/><path class="cls-4" d="M374.28,50.36h-.34c-1,0-2-.39-2-1.65V46.34h-.85V45.16H372V43.57h1.28v1.59h1.08v1.18h-1.08v2.18c0,.56.37.69.74.69l.29,0Z"/><path class="cls-4" d="M376,44a.83.83,0,1,1,0-1.65A.83.83,0,1,1,376,44Zm-.66,6.32V45.16h1.32V50.3Z"/><path class="cls-4" d="M377.66,47.72a2.74,2.74,0,1,1,2.74,2.75A2.67,2.67,0,0,1,377.66,47.72Zm4.21,0a1.49,1.49,0,1,0-1.47,1.62A1.48,1.48,0,0,0,381.87,47.72Z"/><path class="cls-4" d="M387.24,50.3V46.79a.83.83,0,0,0-.89-.81,1,1,0,0,0-1,.77V50.3H384.1V45.16h1.25v.14a2,2,0,0,1,1.13-.36,1.75,1.75,0,0,1,2,1.72V50.3Z"/><path class="cls-4" d="M399.74,50.29l-.38-3.47a21.56,21.56,0,0,1-.11-2.35v-.36a20.88,20.88,0,0,1-.65,2.55l-1.24,3.63h-1.09L395,46.51c-.21-.59-.58-2.37-.59-2.46s0,2-.1,2.77l-.39,3.47h-1.42l1.11-7.65h1.25l1.32,3.75c.23.64.47,1.43.67,2.15.19-.74.45-1.53.68-2.18l1.32-3.72H400l1.12,7.65Z"/><path class="cls-4" d="M406.66,50.06a4,4,0,0,1-2,.45,2.59,2.59,0,0,1-2.82-2.73,2.53,2.53,0,0,1,2.62-2.8A2.43,2.43,0,0,1,407,47.59V48h-3.89V48a1.46,1.46,0,0,0,1.57,1.42,2.79,2.79,0,0,0,2-.73Zm-1-3a1.09,1.09,0,0,0-1.25-1,1.26,1.26,0,0,0-1.32,1Z"/><path class="cls-4" d="M412.4,50.06a4,4,0,0,1-2,.45,2.58,2.58,0,0,1-2.81-2.73,2.52,2.52,0,0,1,2.61-2.8,2.43,2.43,0,0,1,2.52,2.61V48h-3.89V48a1.46,1.46,0,0,0,1.57,1.42,2.79,2.79,0,0,0,2-.73Zm-1-3a1.09,1.09,0,0,0-1.25-1,1.27,1.27,0,0,0-1.32,1Z"/><path class="cls-4" d="M416.39,50.36h-.33c-1,0-2-.39-2-1.65V46.34h-.85V45.16h.85V43.57h1.28v1.59h1.08v1.18h-1.08v2.18c0,.56.37.69.74.69l.29,0Z"/><path class="cls-4" d="M418.06,44a.83.83,0,1,1,0-1.65.83.83,0,1,1,0,1.65Zm-.66,6.32V45.16h1.32V50.3Z"/><path class="cls-4" d="M423.2,50.3V46.79a.82.82,0,0,0-.89-.81,1,1,0,0,0-1,.77V50.3h-1.24V45.16h1.24v.14a2.06,2.06,0,0,1,1.14-.36,1.75,1.75,0,0,1,2,1.72V50.3Z"/><path class="cls-4" d="M428.08,49a3.47,3.47,0,0,1-.82-.06h0c-.15,0-.46.22-.46.43s.06.26.8.26h1a4.19,4.19,0,0,1,1,.08,1.43,1.43,0,0,1,1.22,1.44c0,.84-.74,2.13-2.86,2.13-1.32,0-2.6-.59-2.6-1.85a1.16,1.16,0,0,1,.63-1.09,1.15,1.15,0,0,1-.38-.88,1.12,1.12,0,0,1,.56-1,1.81,1.81,0,0,1-.53-1.36,2.13,2.13,0,0,1,2.34-2.14,2.62,2.62,0,0,1,.91.18,1.7,1.7,0,0,1,1.54-.56h.24v1.3h-.25a1,1,0,0,0-.51.08,1.89,1.89,0,0,1,.38,1.11,2,2,0,0,1-2.13,2Zm-1.57,2.3c0,.56.61.93,1.35.93s1.64-.43,1.64-1a.49.49,0,0,0-.29-.46,5,5,0,0,0-1.28-.08H427A.56.56,0,0,0,426.51,51.29ZM427.94,46A1,1,0,0,0,426.76,47c0,.59.42,1,1.22,1a1,1,0,0,0,1.1-1A1.05,1.05,0,0,0,427.94,46Z"/><path class="cls-4" d="M482.88,35.9a5.29,5.29,0,0,1-2.19.4,4,4,0,1,1,0-8,5.58,5.58,0,0,1,2,.33v1.47a3.53,3.53,0,0,0-2-.6,2.8,2.8,0,0,0,0,5.6,3.39,3.39,0,0,0,2.2-.7Z"/><path class="cls-4" d="M484.09,36.1v-8h1.32V36.1Z"/><path class="cls-4" d="M486.54,33.53a2.73,2.73,0,1,1,2.74,2.74A2.67,2.67,0,0,1,486.54,33.53Zm4.21,0a1.49,1.49,0,1,0-1.47,1.61A1.48,1.48,0,0,0,490.75,33.53Z"/><path class="cls-4" d="M492.64,34.63a2.51,2.51,0,0,0,1.72.6.63.63,0,0,0,.7-.61c0-.29-.19-.49-1-.78s-1.37-.8-1.37-1.55.68-1.53,1.82-1.53a4.16,4.16,0,0,1,1.38.23v1.24a2.76,2.76,0,0,0-1.39-.41c-.48,0-.59.25-.59.47s.07.38.52.52c1,.3,1.93.74,1.93,1.81a1.85,1.85,0,0,1-2,1.66,3.72,3.72,0,0,1-1.66-.32Z"/><path class="cls-4" d="M498,29.78a.84.84,0,0,1-.86-.81.86.86,0,0,1,1.71,0A.83.83,0,0,1,498,29.78Zm-.67,6.32V31h1.32V36.1Z"/><path class="cls-4" d="M503.14,36.1V32.59a.83.83,0,0,0-.89-.81,1,1,0,0,0-1,.77V36.1H500V31h1.25v.15a2,2,0,0,1,1.13-.36,1.75,1.75,0,0,1,2,1.71V36.1Z"/><path class="cls-4" d="M508,34.8a3.43,3.43,0,0,1-.82-.07h0c-.15,0-.46.22-.46.44s.05.26.79.26l1,0a4.88,4.88,0,0,1,1,.08,1.42,1.42,0,0,1,1.21,1.44c0,.85-.73,2.13-2.86,2.13-1.31,0-2.6-.59-2.6-1.85a1.17,1.17,0,0,1,.64-1.09,1.2,1.2,0,0,1,.17-1.9,1.79,1.79,0,0,1-.52-1.36,2.13,2.13,0,0,1,2.34-2.14,2.62,2.62,0,0,1,.91.18,1.7,1.7,0,0,1,1.54-.56h.23v1.31h-.24c-.26,0-.49,0-.51.07a1.93,1.93,0,0,1,.37,1.12,2,2,0,0,1-2.12,2Zm-1.56,2.29c0,.56.6.93,1.35.93s1.64-.43,1.64-1a.49.49,0,0,0-.29-.46,5.6,5.6,0,0,0-1.29-.08H507A.57.57,0,0,0,506.45,37.09Zm1.43-5.32a1,1,0,0,0-1.18,1.06c0,.59.41,1,1.22,1a1,1,0,0,0,1.09-1A1,1,0,0,0,507.88,31.77Z"/><path class="cls-4" d="M514.72,36.1V28.44h2.47c2.51,0,4.16,1.24,4.16,3.8s-1.5,3.86-4.2,3.86ZM517.21,35A2.44,2.44,0,0,0,520,32.28a2.43,2.43,0,0,0-2.74-2.69h-1.15V35Z"/><path class="cls-4" d="M525.52,36.1v-.24a2.18,2.18,0,0,1-1.28.35c-1.11,0-2-.61-2-1.61s.84-1.77,2.45-1.77a3.23,3.23,0,0,1,.84.09v-.34c0-.5-.54-.71-1.23-.71a5,5,0,0,0-1.47.25V31a5.56,5.56,0,0,1,1.57-.23c1.21,0,2.37.42,2.37,1.59V36.1Zm0-2.07a1.94,1.94,0,0,0-.87-.18c-.9,0-1.23.25-1.23.7s.27.65.9.65a1.82,1.82,0,0,0,1.2-.4Z"/><path class="cls-4" d="M530.78,36.17h-.33c-1,0-2-.39-2-1.64V32.14h-.85V31h.85V29.38h1.28V31h1.08v1.18h-1.08v2.18c0,.57.37.69.74.69h.28Z"/><path class="cls-4" d="M536.21,35.86a3.94,3.94,0,0,1-2,.45,2.58,2.58,0,0,1-2.81-2.73,2.52,2.52,0,0,1,2.61-2.8,2.43,2.43,0,0,1,2.52,2.61v.37h-3.89v.06a1.45,1.45,0,0,0,1.57,1.42,2.75,2.75,0,0,0,2-.73Zm-1-3c0-.51-.36-1-1.25-1a1.27,1.27,0,0,0-1.32,1Z"/><path class="cls-4" d="M540.94,36.09v-4h-.87V31h.87V29.79a1.84,1.84,0,0,1,2.08-1.9h.12V29H543a.76.76,0,0,0-.81.87V31h.95v1.17h-.95v4Z"/><path class="cls-4" d="M543.73,33.53a2.73,2.73,0,1,1,2.73,2.74A2.67,2.67,0,0,1,543.73,33.53Zm4.21,0a1.49,1.49,0,1,0-1.48,1.61A1.49,1.49,0,0,0,547.94,33.53Z"/><path class="cls-4" d="M550.17,36.1V31h1.25v.15a1.82,1.82,0,0,1,1-.33h.31V32a2.9,2.9,0,0,0-.43,0,.91.91,0,0,0-.89.62V36.1Z"/><path class="cls-4" d="M476.77,50.3V42.64h2.17c1.39,0,2.53.43,2.53,1.94a1.93,1.93,0,0,1-.87,1.54A1.7,1.7,0,0,1,481.83,48c0,1.5-1.13,2.34-2.8,2.34Zm2.08-4.59c.89,0,1.28-.39,1.28-1s-.38-.94-1.24-.94h-.8v2Zm.07,3.49c1.06,0,1.53-.47,1.53-1.3s-.62-1.16-1.45-1.16h-.91V49.2Z"/><path class="cls-4" d="M482.53,47.72a2.74,2.74,0,1,1,2.74,2.75A2.68,2.68,0,0,1,482.53,47.72Zm4.22,0a1.49,1.49,0,1,0-1.48,1.62A1.49,1.49,0,0,0,486.75,47.72Z"/><path class="cls-4" d="M488.68,47.72a2.74,2.74,0,1,1,2.74,2.75A2.67,2.67,0,0,1,488.68,47.72Zm4.21,0a1.49,1.49,0,1,0-1.47,1.62A1.48,1.48,0,0,0,492.89,47.72Z"/><path class="cls-4" d="M497.86,50.36h-.33c-1,0-2-.39-2-1.65V46.34h-.86V45.16h.86V43.57h1.28v1.59h1.08v1.18h-1.08v2.18c0,.56.36.69.73.69l.29,0Z"/><path class="cls-4" d="M501.93,50.3V46.79A.82.82,0,0,0,501,46a1,1,0,0,0-1,.77V50.3H498.8v-8H500v3a2,2,0,0,1,1.13-.36,1.75,1.75,0,0,1,2,1.72V50.3Z"/><path class="cls-4" d="M507.59,50.3V42.64h4.61v1.13h-3.3v1.78h2.85v1.14H508.9V50.3Z"/><path class="cls-4" d="M517.86,50.06a4,4,0,0,1-2,.45A2.58,2.58,0,0,1,513,47.78a2.52,2.52,0,0,1,2.61-2.8,2.43,2.43,0,0,1,2.52,2.61V48h-3.89V48a1.46,1.46,0,0,0,1.57,1.42,2.79,2.79,0,0,0,2-.73Zm-1-3a1.09,1.09,0,0,0-1.25-1,1.26,1.26,0,0,0-1.32,1Z"/><path class="cls-4" d="M523.6,50.06a4,4,0,0,1-2,.45,2.58,2.58,0,0,1-2.81-2.73,2.52,2.52,0,0,1,2.61-2.8,2.43,2.43,0,0,1,2.52,2.61V48H520V48a1.46,1.46,0,0,0,1.57,1.42,2.79,2.79,0,0,0,2-.73Zm-1-3a1.09,1.09,0,0,0-1.25-1,1.27,1.27,0,0,0-1.32,1Z"/><path class="cls-4" d="M528,50.29V42.65h2.34a2.26,2.26,0,0,1,2.45,2.26h0a2.29,2.29,0,0,1-2.46,2.3h-1v3.07Zm2.3-4.19a1.14,1.14,0,0,0,1.12-1.18,1.09,1.09,0,0,0-1.11-1.17h-1V46.1Z"/><path class="cls-4" d="M536.69,50.3v-.24a2.26,2.26,0,0,1-1.28.35c-1.12,0-2-.62-2-1.61s.84-1.78,2.45-1.78a3.73,3.73,0,0,1,.84.09v-.33c0-.5-.54-.71-1.24-.71a5,5,0,0,0-1.46.25v-1.1a5.51,5.51,0,0,1,1.57-.23c1.21,0,2.37.42,2.37,1.59V50.3Zm0-2.07a1.86,1.86,0,0,0-.88-.18c-.9,0-1.22.25-1.22.7s.27.65.9.65a1.79,1.79,0,0,0,1.2-.41Z"/><path class="cls-4" d="M539,52.1l.26,0a.83.83,0,0,0,.77-.56c.09-.2.48-1.14.53-1.36l-1.83-5H540l.81,2.51s.22.72.33,1.21c.09-.44.34-1.24.34-1.24l.81-2.48h1.35l-2.37,6.37c-.45,1.24-.92,1.82-2,1.82l-.4,0Z"/><path class="cls-4" d="M550.07,50.29V46.7a.71.71,0,0,0-.76-.65.86.86,0,0,0-.85.71v3.53h-1.22V46.7a.7.7,0,0,0-.76-.65.84.84,0,0,0-.81.72v3.52h-1.22V45.16h1.22v.13a1.7,1.7,0,0,1,.93-.28,1.91,1.91,0,0,1,1.45.54,2.14,2.14,0,0,1,1.38-.54,1.64,1.64,0,0,1,1.86,1.61v3.67Z"/><path class="cls-4" d="M557.05,50.06a4,4,0,0,1-2,.45,2.59,2.59,0,0,1-2.82-2.73,2.52,2.52,0,0,1,2.61-2.8,2.43,2.43,0,0,1,2.52,2.61V48h-3.89V48a1.46,1.46,0,0,0,1.58,1.42,2.78,2.78,0,0,0,2-.73Zm-1-3c0-.5-.36-1-1.25-1a1.25,1.25,0,0,0-1.31,1Z"/><path class="cls-4" d="M561.44,50.3V46.79a.83.83,0,0,0-.89-.81,1,1,0,0,0-1,.77V50.3H558.3V45.16h1.25v.14a2,2,0,0,1,1.13-.36,1.75,1.75,0,0,1,2,1.72V50.3Z"/><path class="cls-4" d="M566.68,50.36h-.33c-1,0-2-.39-2-1.65V46.34h-.86V45.16h.86V43.57h1.28v1.59h1.08v1.18h-1.08v2.18c0,.56.37.69.74.69l.28,0Z"/><g class="cls-5"><polygon points="594.07 92.64 592.97 93.75 597.64 98.43 592.97 103.1 594.07 104.21 599.86 98.43 594.07 92.64"/></g><rect x="310" y="97.55" width="287.49" height="1.76"/><g class="cls-6"><polygon class="cls-7" points="594.07 125.64 592.97 126.75 597.64 131.43 592.97 136.1 594.07 137.21 599.86 131.43 594.07 125.64"/></g><rect class="cls-7" x="152" y="130.55" width="445.49" height="1.76"/><path d="M10.7,144.85a4.64,4.64,0,0,1-1.69.29,3.37,3.37,0,1,1,0-6.72,4.7,4.7,0,0,1,1.52.24v.65A3.2,3.2,0,0,0,9,138.94a2.84,2.84,0,1,0,0,5.67,3.4,3.4,0,0,0,1.7-.42Z"/><path d="M14.94,145v-.16a2.6,2.6,0,0,1-1.25.28c-1.27,0-1.8-.59-1.8-1.32s.66-1.46,2-1.47a5.25,5.25,0,0,1,1,.09V142c0-.62-.5-.87-1.2-.87a4.73,4.73,0,0,0-1.32.22v-.51a4.26,4.26,0,0,1,1.27-.2c1,0,1.8.39,1.8,1.3v3Zm0-2.1a4.5,4.5,0,0,0-1-.11c-.87,0-1.46.37-1.46.95s.49.9,1.33.9a2.41,2.41,0,0,0,1.15-.29Z"/><path d="M20,145v-2.78a1,1,0,0,0-1.11-1.1,1.13,1.13,0,0,0-1.11.78V145h-.57v-4.22h.57v.31a1.69,1.69,0,0,1,1.16-.44,1.45,1.45,0,0,1,1.63,1.46V145Z"/><path d="M25.68,144.89a3.12,3.12,0,0,1-1.2.2,2.25,2.25,0,1,1,0-4.48,3.64,3.64,0,0,1,1.09.16v.6a2,2,0,0,0-1.1-.28,1.76,1.76,0,1,0,0,3.51,2,2,0,0,0,1.21-.32Z"/><path d="M30.79,144.58a2.84,2.84,0,0,1-1.75.54,2.1,2.1,0,0,1-2.28-2.24,2.07,2.07,0,0,1,2.13-2.28,1.9,1.9,0,0,1,2,2s0,.17,0,.22h-3.6v.11a1.59,1.59,0,0,0,1.73,1.73,2.59,2.59,0,0,0,1.74-.68Zm-.46-2.22A1.33,1.33,0,0,0,28.89,141a1.49,1.49,0,0,0-1.53,1.32Z"/><path d="M32.38,145v-6.65H33V145Z"/><path d="M34.85,145v-6.65h.6V145Z"/><path d="M40,145v-.16a2.6,2.6,0,0,1-1.25.28c-1.27,0-1.8-.59-1.8-1.32s.66-1.46,2-1.47a5.25,5.25,0,0,1,1,.09V142c0-.62-.5-.87-1.2-.87a4.73,4.73,0,0,0-1.32.22v-.51a4.26,4.26,0,0,1,1.27-.2c1,0,1.8.39,1.8,1.3v3Zm0-2.1a4.5,4.5,0,0,0-1-.11c-.87,0-1.46.37-1.46.95s.49.9,1.33.9a2.41,2.41,0,0,0,1.15-.29Z"/><path d="M44.09,145.08c-.84,0-1.44-.31-1.44-1.17v-2.7h-.78v-.47h.78v-1.49h.56v1.49h1v.47h-1v2.51c0,.75.4.84.92.9v.46Z"/><path d="M45.93,139.27a.45.45,0,0,1-.46-.42.46.46,0,0,1,.46-.45.47.47,0,0,1,.48.45A.45.45,0,0,1,45.93,139.27ZM45.65,145v-4.22h.58V145Z"/><path d="M50,145.1a2.24,2.24,0,1,1,2.24-2.24A2.18,2.18,0,0,1,50,145.1Zm1.66-2.24A1.67,1.67,0,1,0,50,144.63,1.66,1.66,0,0,0,51.68,142.86Z"/><path d="M56.51,145v-2.78a1,1,0,0,0-1.11-1.1,1.13,1.13,0,0,0-1.11.78V145h-.57v-4.22h.57v.31a1.69,1.69,0,0,1,1.16-.44,1.45,1.45,0,0,1,1.63,1.46V145Z"/><path d="M62.21,145v-6.4h3.61v.48h-3v2.15h2.6v.49h-2.6V145Z"/><path d="M71,144.58a2.86,2.86,0,0,1-1.75.54A2.09,2.09,0,0,1,67,142.88a2.07,2.07,0,0,1,2.13-2.28,1.9,1.9,0,0,1,2,2v.22H67.53v.11a1.58,1.58,0,0,0,1.72,1.73A2.62,2.62,0,0,0,71,144Zm-.47-2.22A1.32,1.32,0,0,0,69.1,141a1.48,1.48,0,0,0-1.53,1.32Z"/><path d="M76.28,144.58a2.86,2.86,0,0,1-1.75.54,2.09,2.09,0,0,1-2.28-2.24,2.07,2.07,0,0,1,2.13-2.28,1.91,1.91,0,0,1,2,2v.22H72.81v.11a1.58,1.58,0,0,0,1.72,1.73,2.62,2.62,0,0,0,1.75-.68Zm-.47-2.22A1.32,1.32,0,0,0,74.38,141a1.48,1.48,0,0,0-1.53,1.32Z"/><path d="M78.53,141.75a.51.51,0,0,1,0-1,.51.51,0,0,1,0,1Zm0,3.35a.5.5,0,0,1,0-1,.5.5,0,1,1,0,1Z"/><path d="M5.65,155.21a3.65,3.65,0,0,0,1.47.34,1.85,1.85,0,0,0,2-1.77c0-.9-.7-1.59-1.93-1.59a4.56,4.56,0,0,0-1.37.23l.38-2.86H9.35v.53H6.71l-.22,1.66a5.56,5.56,0,0,1,.79-.06c1.73,0,2.49,1,2.49,2.09A2.45,2.45,0,0,1,7.1,156.1a4.5,4.5,0,0,1-1.45-.26Z"/><path d="M11.25,152.75c0-1.66.53-3.37,2.35-3.37S16,151.09,16,152.75s-.55,3.37-2.36,3.37S11.25,154.4,11.25,152.75Zm4.07,0c0-1.05-.27-2.85-1.72-2.85s-1.71,1.8-1.71,2.85.25,2.86,1.71,2.86S15.32,153.8,15.32,152.74Z"/><path d="M17.19,151.18c0-.8.27-1.72,1.3-1.72s1.3.92,1.3,1.72-.29,1.73-1.3,1.73S17.19,152,17.19,151.18Zm2.08,0c0-.57-.17-1.3-.78-1.3s-.78.73-.78,1.3.15,1.29.78,1.29S19.27,151.75,19.27,151.18ZM17.89,156,20,152.69l2-3.13h.54l-2.19,3.33-2,3.07Zm2.84-1.61c0-.8.28-1.73,1.31-1.73s1.28.93,1.28,1.73-.27,1.73-1.28,1.73S20.73,155.15,20.73,154.35Zm2.07,0c0-.57-.15-1.3-.76-1.3s-.79.73-.79,1.3.16,1.3.79,1.3S22.8,154.91,22.8,154.34Z"/><path d="M30.06,156.1a2.24,2.24,0,1,1,2.24-2.24A2.18,2.18,0,0,1,30.06,156.1Zm1.66-2.24a1.67,1.67,0,1,0-1.66,1.77A1.66,1.66,0,0,0,31.72,153.86Z"/><path d="M34.13,156v-3.75h-.79v-.47h.79v-1.15a1.33,1.33,0,0,1,1.39-1.41v.48a.88.88,0,0,0-.83,1v1.09h.85v.47h-.85V156Z"/><path d="M40.3,156v-6.4h3.53v.49H40.9v2.21h2.51v.5H40.9v2.72h2.93V156Z"/><path d="M48.05,156l-1.28-1.84L45.49,156h-.62l1.59-2.24-1.35-2h.61l1.05,1.58,1-1.58h.63l-1.37,2L48.66,156Z"/><path d="M52.76,156v-2.78a1,1,0,0,0-1.11-1.1,1.11,1.11,0,0,0-1.11.78V156H50v-6.65h.57v2.74a1.69,1.69,0,0,1,1.16-.44,1.45,1.45,0,0,1,1.63,1.46V156Z"/><path d="M55.43,150.27a.45.45,0,0,1-.46-.42.46.46,0,0,1,.46-.45.47.47,0,0,1,.47.45A.45.45,0,0,1,55.43,150.27ZM55.14,156v-4.22h.59V156Z"/><path d="M57.56,156v-6.65h.55V152a2.36,2.36,0,0,1,1.34-.41,2.25,2.25,0,1,1,0,4.5,2.27,2.27,0,0,1-1.34-.42V156Zm.55-.9a1.74,1.74,0,0,0,1.34.55,1.76,1.76,0,0,0,0-3.52,1.74,1.74,0,0,0-1.34.55Z"/><path d="M63.57,150.27a.45.45,0,0,1-.47-.42.46.46,0,0,1,.47-.45.47.47,0,0,1,.47.45A.45.45,0,0,1,63.57,150.27ZM63.28,156v-4.22h.58V156Z"/><path d="M67.49,156.08c-.84,0-1.43-.31-1.43-1.17v-2.7h-.79v-.47h.79v-1.49h.55v1.49h1v.47h-1v2.51c0,.75.4.84.92.9v.46Z"/><path d="M69.33,150.27a.45.45,0,0,1-.46-.42.46.46,0,0,1,.46-.45.47.47,0,0,1,.48.45A.45.45,0,0,1,69.33,150.27ZM69.05,156v-4.22h.58V156Z"/><path d="M73.42,156.1a2.24,2.24,0,1,1,2.24-2.24A2.18,2.18,0,0,1,73.42,156.1Zm1.66-2.24a1.67,1.67,0,1,0-1.66,1.77A1.66,1.66,0,0,0,75.08,153.86Z"/><path d="M79.91,156v-2.78a1,1,0,0,0-1.11-1.1,1.13,1.13,0,0,0-1.11.78V156h-.57v-4.22h.57v.31a1.69,1.69,0,0,1,1.16-.44,1.44,1.44,0,0,1,1.63,1.46V156Z"/><path d="M85.61,156v-6.4h3.61v.48h-3v2.15h2.6v.49h-2.6V156Z"/><path d="M94.4,155.58a2.86,2.86,0,0,1-1.75.54,2.09,2.09,0,0,1-2.28-2.24,2.07,2.07,0,0,1,2.13-2.28,1.91,1.91,0,0,1,2,2v.22H90.93v.11a1.58,1.58,0,0,0,1.72,1.73A2.62,2.62,0,0,0,94.4,155Zm-.47-2.22A1.32,1.32,0,0,0,92.5,152,1.48,1.48,0,0,0,91,153.36Z"/><path d="M99.68,155.58a2.86,2.86,0,0,1-1.75.54,2.09,2.09,0,0,1-2.28-2.24,2.07,2.07,0,0,1,2.13-2.28,1.91,1.91,0,0,1,2,2v.22H96.21v.11a1.58,1.58,0,0,0,1.72,1.73,2.62,2.62,0,0,0,1.75-.68Zm-.47-2.22A1.32,1.32,0,0,0,97.78,152a1.48,1.48,0,0,0-1.53,1.32Z"/><g class="cls-8"><polygon class="cls-7" points="121.07 125.64 119.97 126.75 124.64 131.43 119.97 136.1 121.07 137.21 126.86 131.43 121.07 125.64"/></g><rect class="cls-7" x="1" y="130.55" width="123.49" height="1.76"/><g class="cls-9"><polygon class="cls-7" points="287.93 33.64 286.82 34.75 291.5 39.43 286.82 44.1 287.93 45.21 293.71 39.43 287.93 33.64"/></g><rect class="cls-7" x="273.85" y="38.55" width="17.49" height="1.76"/><g class="cls-10"><polygon class="cls-7" points="128.93 33.64 127.82 34.75 132.5 39.43 127.82 44.1 128.93 45.21 134.71 39.43 128.93 33.64"/></g><rect class="cls-7" x="114.85" y="38.55" width="17.49" height="1.76"/><g class="cls-11"><polygon class="cls-7" points="444.93 33.64 443.82 34.75 448.5 39.43 443.82 44.1 444.93 45.21 450.71 39.43 444.93 33.64"/></g><rect class="cls-7" x="430.85" y="38.55" width="17.49" height="1.76"/></g></svg>