<svg id="レイヤー_1" data-name="レイヤー 1" xmlns="http://www.w3.org/2000/svg" width="760.73" height="352.68" viewBox="0 0 760.73 352.68">
  <defs>
    <style>
      .cls-1 {
        fill: #fff;
      }
    </style>
  </defs>
  <title>top_logo</title>
  <g>
    <g>
      <g>
        <path class="cls-1" d="M219.41,18.14V86.36H199.62V18.14h-29V.22h77.72V18.14Z"/>
        <path class="cls-1" d="M397,.22h24.71L385.37,41.87l37.82,44.49H398.05l-35.2-43.72V86.36H343.28V.22h19.57V41.1Z"/>
        <path class="cls-1" d="M445.78.22,465.13,35,484.59.22h22.84L475,52.69V86.36H455.29V52.69L422.83.22Z"/>
        <path class="cls-1" d="M255.68,0V86.61h80.73V0ZM318,67.69H274.14V18.92H318Z"/>
        <path class="cls-1" d="M509.34,0V86.61h80.73V0Zm62.27,67.69H527.8V18.92h43.81Z"/>
      </g>
      <g>
        <path class="cls-1" d="M174.45,219.06H152.37l-6.45-17.94H111.71l-6.45,17.94H83.18L116,132.92h25.58Zm-45.69-67.12L117,184.19h23.61Z"/>
        <path class="cls-1" d="M205.79,132.92l18.91,62.2,18.91-62.2h28.53v86.14H253.56V177.62c0-2.72.54-21.1.65-24.26l-20.33,65.7H215.51l-20.33-65.7c.11,2.73.66,21.54.66,24.26v41.44H177.26V132.92Z"/>
        <path class="cls-1" d="M347.94,132.92v17.93H298.32v16H346V184H298.32v17.15h50.82v17.94h-70.5V132.92Z"/>
        <path class="cls-1" d="M502.82,132.92v32.79h42V132.92h19.68v86.14H544.79V183.64h-42v35.42H483.24V132.92Z"/>
        <path class="cls-1" d="M675.79,132.92l9.62,66.57L695,132.92h26l9.62,66.57,9.62-66.57h20.44l-16.62,86.14H717.66l-9.61-65.7-9.63,65.7H672.08l-16.72-86.14Z"/>
        <path class="cls-1" d="M572,132.69v86.62h80.73V132.69Zm62.28,67.69H590.43V151.63h43.81Z"/>
        <polygon class="cls-1" points="80.72 162.88 80.72 132.69 0 132.69 0 219.31 80.72 219.31 80.72 189.22 80.72 170.5 62.27 170.5 40.23 170.5 40.23 189.22 62.27 189.22 62.27 200.38 18.46 200.38 18.46 151.63 62.27 151.63 62.27 162.88 80.72 162.88"/>
        <polygon class="cls-1" points="475.53 149.93 475.53 132.09 405.08 132.09 405.08 140.26 405.08 149.93 405.08 166.56 405.08 178.91 405.08 184.41 457.7 184.41 457.7 201.05 405.08 201.05 405.08 218.88 457.7 218.88 475.53 218.88 475.53 201.05 475.53 184.41 475.53 180.24 475.53 166.56 422.92 166.56 422.92 149.93 475.53 149.93"/>
      </g>
    </g>
    <g>
      <path class="cls-1" d="M257.93,323c-5.69.66-9.19,1.65-9.19,8.1v2.74h57.88V351.8H229.16V334.62c0-8.31,0-26.26,21.33-28.77l28-3.29c6.35-.76,9.3-1.86,9.3-9.19,0-7.66-2.41-10.72-18.6-10.72-18.27,0-18.93,2.3-19.15,13H230.8c0-18.38,1-31,36.87-31,22.76,0,39.61,1.53,39.61,27.57,0,11.16-2.85,16.85-6.68,20.24a27.92,27.92,0,0,1-16.08,7.22Z"/>
      <path class="cls-1" d="M354.76,264.71c35,0,39.83,8.09,39.83,44.75,0,35.23-6.56,43.22-37.42,43.22-33,0-40.92-3.94-40.92-44C316.25,273.24,322.49,264.71,354.76,264.71ZM335.94,309c0,25.6,1.32,25.82,20.68,25.82,16.42,0,18.28-1.31,18.28-23.74,0-4.71-.22-19.15-1.65-22.87-1.86-5.14-8-5.58-17.83-5.58C337.26,282.65,335.94,283.2,335.94,309Z"/>
      <path class="cls-1" d="M439.12,265.58V351.8h-19.8V283.53H401.59V265.58Z"/>
      <path class="cls-1" d="M454.11,289.32c0-19.8,12.26-24.61,36.66-24.61,24.61,0,39.49,2.73,39.49,24.51,0,7.76-2.08,14.44-10.39,17.94a12.66,12.66,0,0,1,6.56,3.72c5.15,5.69,5.26,15,5.26,17,0,22.76-18.39,24.84-37.86,24.84-19.7,0-41.14-.44-41.14-24.62,0-2.19.22-11.71,5.36-17.18a12.89,12.89,0,0,1,6.46-3.72C457,304,454.11,298,454.11,289.32Zm17.95,36.22c0,8.32,3.83,9.74,20.13,9.74,17.29,0,20.24-1.64,20.24-10.4,0-9.19-5.47-9.73-20.24-9.73C476,315.15,472.06,316.13,472.06,325.54ZM473.48,291c0,7.54,3.28,8.64,20,8.64,15.65,0,17.4-2.08,17.4-9.19,0-6.35-2-8.54-18.71-8.54C474.68,281.88,473.48,284.29,473.48,291Z"/>
    </g>
  </g>
</svg>
