<?xml version="1.0" encoding="utf-8"?>
<!-- Generator: Adobe Illustrator 21.0.0, SVG Export Plug-In . SVG Version: 6.00 Build 0)  -->
<svg version="1.1" id="レイヤー_1" xmlns="http://www.w3.org/2000/svg" xmlns:xlink="http://www.w3.org/1999/xlink" x="0px"
	 y="0px" viewBox="0 0  55 55" style="enable-background:new 0 0 56.2 56.7;" xml:space="preserve">
<style type="text/css">
	.st0{fill:#FFFFFF;}
</style>
<g>
	<path class="st0" d="M29.9,26.6L29.9,26.6C29.8,26.6,29.8,26.6,29.9,26.6L29.9,26.6z"/>
	<path class="st0" d="M0.5,1v55.3h55.3V1H0.5z M20.6,41.8h-5.9V24h5.9V41.8z M17.7,21.6L17.7,21.6c-2,0-3.3-1.4-3.3-3.1
		c0-1.7,1.3-3.1,3.4-3.1c2,0,3.3,1.3,3.3,3.1C21,20.2,19.7,21.6,17.7,21.6z M42,41.8h-5.9v-9.5c0-2.4-0.9-4-3-4
		c-1.6,0-2.6,1.1-3,2.2c-0.2,0.4-0.2,0.9-0.2,1.4v10h-5.9c0,0,0.1-16.2,0-17.8h5.9v2.5c0.8-1.2,2.2-2.9,5.3-2.9c3.9,0,6.8,2.5,6.8,8
		V41.8z"/>
</g>
</svg>
