<svg xmlns="http://www.w3.org/2000/svg">
  <symbol id="pdf" viewBox="0 0 20 20">
    <path d="M14.75,16v.75H3.25V3.25h11.5V7H16V2.935A.935.935,0,0,0,15.065,2H2.935A.935.935,0,0,0,2,2.935V17.064A.935.935,0,0,0,2.935,18H15.064A.935.935,0,0,0,16,17.064V16h-1.25Z" fill="#bf0000"/><path d="M6.03,12.238V14H5V9H6.951a2.261,2.261,0,0,1,.991.206,1.515,1.515,0,0,1,.658.586,1.63,1.63,0,0,1,.23.864,1.436,1.436,0,0,1-.5,1.159,2.1,2.1,0,0,1-1.393.424h-.9Zm0-.834h.92a.9.9,0,0,0,.623-.192.7.7,0,0,0,.215-.549.825.825,0,0,0-.216-.594.81.81,0,0,0-.6-.234H6.03V11.4Z" fill="#bf0000"/><path d="M9.829,14V9h1.538a2.337,2.337,0,0,1,1.18.3,2.068,2.068,0,0,1,.812.845,2.612,2.612,0,0,1,.292,1.245v.23a2.619,2.619,0,0,1-.287,1.24,2.05,2.05,0,0,1-.809.841,2.351,2.351,0,0,1-1.178.3H9.828Zm1.03-4.166v3.338h.5a1.117,1.117,0,0,0,.924-.4,1.782,1.782,0,0,0,.326-1.13v-.264a1.812,1.812,0,0,0-.316-1.156,1.116,1.116,0,0,0-.924-.393Z" fill="#bf0000"/><path d="M17.659,11.957H15.681V14h-1.03V9h3.255v.834H15.681v1.291h1.978v.831Z" fill="#bf0000"/>
  </symbol>
  <symbol id="external" viewBox="0 0 16 20">
    <path d="M11,1V9H3V1h8m0-1H3A1,1,0,0,0,2,1V9a1,1,0,0,0,1,1h8a1,1,0,0,0,1-1V1a1,1,0,0,0-1-1Z" transform="translate(2 4)" fill="currentColor"/><path d="M9,11H1V3H0v8a1,1,0,0,0,1,1H9Z" transform="translate(2 4)" fill="currentColor"/>
  </symbol>
  <symbol id="external02" viewBox="0 0 16 20">
    <path d="M11,1V9H3V1h8m0-1H3A1,1,0,0,0,2,1V9a1,1,0,0,0,1,1h8a1,1,0,0,0,1-1V1a1,1,0,0,0-1-1Z" transform="translate(2 4)" fill="#0050e6"/><path d="M9,11H1V3H0v8a1,1,0,0,0,1,1H9Z" transform="translate(2 4)" fill="#0050e6"/>
  </symbol>
</svg>
