<svg xmlns="http://www.w3.org/2000/svg" width="224" height="52.726" viewBox="0 0 224 52.726">
  <g id="グループ_1126" data-name="グループ 1126" transform="translate(-30.788 -29.976)" opacity="0.34">
    <path id="パス_32" data-name="パス 32" d="M157.253,29.977H110.691A11.773,11.773,0,0,0,98.878,41.79v29.1A11.758,11.758,0,0,0,110.58,82.7h46.673A11.758,11.758,0,0,0,169.065,71V54.2h-26.7v8.309h16.918a1.569,1.569,0,0,1,1.568,1.568h0v6.785a3.65,3.65,0,0,1-3.6,3.6H110.691a3.625,3.625,0,0,1-3.6-3.615V41.79a3.6,3.6,0,0,1,3.6-3.6h46.562a3.626,3.626,0,0,1,3.6,3.6v2.992h8.209V41.79a11.773,11.773,0,0,0-11.813-11.813" transform="translate(7.648 0)" fill="#fff"/>
    <path id="パス_33" data-name="パス 33" d="M227.433,29.977H180.871A11.773,11.773,0,0,0,169.058,41.79v6.885A11.773,11.773,0,0,0,180.871,60.5h46.562a3.568,3.568,0,0,1,2.547,1.012A3.339,3.339,0,0,1,231.092,64v6.885a3.627,3.627,0,0,1-3.659,3.582H180.871a3.625,3.625,0,0,1-3.6-3.615V67.963h-8.209v2.892A11.758,11.758,0,0,0,180.725,82.7h46.707A11.758,11.758,0,0,0,239.245,71V64a11.769,11.769,0,0,0-11.757-11.779H180.871a3.55,3.55,0,0,1-2.547-1.023,3.337,3.337,0,0,1-1.057-2.492V41.79a3.6,3.6,0,0,1,3.6-3.6h46.562a3.6,3.6,0,0,1,3.615,3.593v2.9h8.209V41.79a11.773,11.773,0,0,0-11.824-11.813" transform="translate(15.53 0)" fill="#fff"/>
    <path id="パス_34" data-name="パス 34" d="M30.788,38.186H60.253a1.58,1.58,0,0,1,1.579,1.568V82.7h8.2V39.754a1.579,1.579,0,0,1,1.579-1.568h29.365V29.977H30.788Z" transform="translate(0 0)" fill="#fff"/>
  </g>
</svg>
