<svg xmlns="http://www.w3.org/2000/svg" viewBox="0 0 162.47 30"><defs><style>.bb7749b3-55f1-494a-ba65-ba284d47ce9a{fill:#5ab400;}</style></defs><title>press02</title><g id="aba490a6-864e-4961-958f-c847246ce7f1" data-name="レイヤー 2"><g id="e32cd7ad-8a3e-44a0-b822-ef302c1a66e7" data-name="object"><path class="bb7749b3-55f1-494a-ba65-ba284d47ce9a" d="M28.76,17.82c-.67.58-1.87,1.83-1.87,2.62,0,1.73,3.29,1.73,4.29,1.73a33.73,33.73,0,0,0,9.63-1.44,18,18,0,0,0,.62,4.08,36.36,36.36,0,0,1-9.38,1.1c-3.75,0-5.23-.41-6.41-.89-.77-.31-3.05-1.44-3.05-3.86s2.5-4.73,3.48-5.62ZM38.84,9.93a16.67,16.67,0,0,0-6.05,3.91c-.86-.75-1.77-1.51-2.52-2.06.89-.82,1.11-1,1.8-1.57-1.49.12-5.52.34-7.56.29l-.19-4a48.3,48.3,0,0,0,6,.32A45.38,45.38,0,0,0,37,6.25ZM39.9,6.18A17.25,17.25,0,0,1,42.08,8.7a9.65,9.65,0,0,0-1.41,1.73,26.19,26.19,0,0,0-2.31-2.66Zm1.85-2A26.76,26.76,0,0,1,44,6.49a9.56,9.56,0,0,0-1.53,1.64,21.26,21.26,0,0,0-2.09-2.36Z"/><path class="bb7749b3-55f1-494a-ba65-ba284d47ce9a" d="M57.73,26.94H54.27v-6.4a23.83,23.83,0,0,1-7,6.12,8.22,8.22,0,0,0-3.07-2.38,20.55,20.55,0,0,0,7.7-6.14H45V15h4.49a19.19,19.19,0,0,0-1.92-3.56l1.73-1H46.09V7.38h8.18V4.93l3.6.22c.29,0,.53,0,.53.36s-.48.41-.67.46V7.38h8.14V10.5H62.75l1.46.63c.17.07.24.16.24.29,0,.31-.29.36-.48.4A22,22,0,0,1,62.46,15H67v3.12H59.87a18.65,18.65,0,0,0,7.46,5.8,11.12,11.12,0,0,0-2.54,2.6,18.83,18.83,0,0,1-7.06-6.15ZM54.27,15V10.5H51.18a13.53,13.53,0,0,1,2,3.7,11.92,11.92,0,0,0-1.83.82Zm3.46-4.52V15h2.78a16.36,16.36,0,0,0-1.65-.87,18.78,18.78,0,0,0,1.82-3.65Z"/><path class="bb7749b3-55f1-494a-ba65-ba284d47ce9a" d="M79.28,20.25a16.5,16.5,0,0,1-2.83,2.9,6.18,6.18,0,0,0-2.26-1.61c.43-.33.79-.6,1.35-1.08-1.49.65-3.32,1.35-5.26,2,0,.28-.1.62-.36.62s-.34-.31-.38-.55l-.82-3.39a17.74,17.74,0,0,0,2.71-.5V13.19H69V10.07h2.47v-5L75,5.27c.29,0,.51.05.51.26s-.15.29-.51.46v4.08h2.14v3.12H75v4.37c.58-.24.94-.38,1.52-.65h-.17V14.49H90.87v2.42H81.58l-.45.77h9.58c0,2.42-.08,7.22-1.64,8.45-.91.72-2.44.79-4,.79a7,7,0,0,0-.64-2.59,19,19,0,0,1-2.86,3,6.07,6.07,0,0,0-2.55-1.54,16.68,16.68,0,0,0,5.07-5.54H83.05a16.84,16.84,0,0,1-6.31,6.36,6.18,6.18,0,0,0-2.12-1.92,14.73,14.73,0,0,0,5.6-4.44ZM77.1,16.91a9.74,9.74,0,0,0-.17,2.14,15.17,15.17,0,0,0,1.46-2.14ZM89.19,13.7H78V5.25H89.19ZM86,8.56V7.74H81.22v.82Zm-4.73,1.92v.81H86v-.81Zm5.67,9.77A26.2,26.2,0,0,1,85,23.58a8,8,0,0,0,.84.05c.48,0,.92-.05,1.08-.6a11.81,11.81,0,0,0,.44-2.78Z"/><path class="bb7749b3-55f1-494a-ba65-ba284d47ce9a" d="M104.31,22.82c5.21-1,6.75-5,6.75-7.49a5.68,5.68,0,0,0-5.55-5.88c-.74,8.78-4.37,15.33-6.91,15.33-1.87,0-5.35-3.16-5.35-7.6A11.78,11.78,0,0,1,105,6c5.26,0,9.84,3.58,9.84,9.31A11.21,11.21,0,0,1,112,22.72a13.4,13.4,0,0,1-5.21,3.48A15.37,15.37,0,0,0,104.31,22.82ZM96.8,16.89c0,1.85,1,3.24,1.54,3.24s1-1.08,1.29-1.71a20.9,20.9,0,0,0,1.85-8.25C98.7,11.2,96.8,14.73,96.8,16.89Z"/><path class="bb7749b3-55f1-494a-ba65-ba284d47ce9a" d="M129.32,8.17a17.73,17.73,0,0,0,2.07-3.38l3.6.91c.16,0,.33.12.33.29s-.33.38-.69.34c-.63,1-.87,1.39-1.2,1.84h5.49v3H117v-3h5.28a10.92,10.92,0,0,0-1.37-2l3.24-1.46a16.05,16.05,0,0,1,1.95,3l-1.3.5Zm-7.7,13.54V26.9h-3.36V12h9.55V24.54c0,2-1,2.26-4.2,2.36a6.9,6.9,0,0,0-1.23-3.41c.36,0,1.08.12,1.44.12s.72-.05.72-.77V21.71Zm2.92-6.09V14.56h-2.92v1.06Zm0,3.57V18.11h-2.92v1.08Zm8.19-6.84c.22,0,.36.07.36.24s-.14.27-.36.41v9.55h-3.46V12.21Zm5.06-.5c.22,0,.44,0,.44.26s-.27.31-.58.48V24a2.28,2.28,0,0,1-1,2.33c-.87.57-1.9.55-3.89.53a8.94,8.94,0,0,0-.79-3.6c.41,0,1.29.16,1.65.16.6,0,.6-.38.6-.67V11.68Z"/><path class="bb7749b3-55f1-494a-ba65-ba284d47ce9a" d="M147.22,6.78c.46.17.65.24.65.41s-.48.26-.65.29a27.88,27.88,0,0,0-1.56,9.91,8.29,8.29,0,0,0,.17,1.92c.15-.26.72-1.32,1-1.8a7,7,0,0,0,1.85,2,13.54,13.54,0,0,0-1.59,5.74l-3.4.91a25.21,25.21,0,0,1-1.71-9.6,45.26,45.26,0,0,1,1.54-11.14Zm6.34,11.28a6.75,6.75,0,0,0-.36,1.71c0,1.05.58,1.22,3.34,1.22a24.07,24.07,0,0,0,5.93-.65,15.59,15.59,0,0,0-.36,3.92,51,51,0,0,1-6.08.31c-3.57,0-6.33-.63-6.33-3.55a8.9,8.9,0,0,1,.79-3.53Zm-2.9-10.25c.72.05,1.68.12,3.12.12a28.24,28.24,0,0,0,7.05-.76c0,.38.12,2.49.34,3.64a34.8,34.8,0,0,1-7.39.73c-1.42,0-2.36-.08-3.12-.12Z"/><rect class="bb7749b3-55f1-494a-ba65-ba284d47ce9a" width="10" height="30"/></g></g></svg>