<svg xmlns="http://www.w3.org/2000/svg" viewBox="0 0 186.71 30"><defs><style>.ec351fd2-afcb-4c15-8a25-be7a84a522d3{fill:#5ab400;}</style></defs><title>press01</title><g id="fce4e1f3-80b0-4bd8-9ff4-93934bd062d5" data-name="レイヤー 2"><g id="fba3af3d-ac7e-4cf1-9281-62b3a685220a" data-name="object"><path class="ec351fd2-afcb-4c15-8a25-be7a84a522d3" d="M37.76,8a1.43,1.43,0,0,0,1.15-.33l2.45,1.73a13.4,13.4,0,0,0-1.53,3.19c-1.88,4.82-3.32,7.56-6,9.91A27.26,27.26,0,0,1,27.3,26.7a10.56,10.56,0,0,0-2.74-3.16,20.88,20.88,0,0,0,7.58-4.8A18.43,18.43,0,0,0,36,11.44H22.09V8Zm6.1-1.63A2.26,2.26,0,1,1,41.6,4.09,2.26,2.26,0,0,1,43.86,6.35Zm-3.31,0A1,1,0,0,0,41.6,7.41a1.07,1.07,0,0,0,1.06-1.06,1.06,1.06,0,1,0-2.11,0Z"/><path class="ec351fd2-afcb-4c15-8a25-be7a84a522d3" d="M52.59,6.21c.31,0,.51,0,.51.24s-.34.43-.51.5V20.8a26.87,26.87,0,0,0,12.56-8.71,17.18,17.18,0,0,0,1.77,3.79c-2.54,2.66-6,6.26-16,10.13l-2.52-2.4a14.13,14.13,0,0,0,.1-1.44V6Z"/><path class="ec351fd2-afcb-4c15-8a25-be7a84a522d3" d="M71.67,10.24V6.64H83.94a6.75,6.75,0,0,0,1.65-.19l1.88,2A6.9,6.9,0,0,0,86.55,10a40.38,40.38,0,0,1-3,5.88,64.39,64.39,0,0,1,7.2,6.58c-.8.91-2.09,2.35-2.88,3.26a33.23,33.23,0,0,0-6.46-6.84,27.85,27.85,0,0,1-9.22,7.18,10.78,10.78,0,0,0-2.73-3.29,20.19,20.19,0,0,0,7.8-4.8A19.1,19.1,0,0,0,82,10.24Z"/><path class="ec351fd2-afcb-4c15-8a25-be7a84a522d3" d="M100.4,5.8c.29,0,.46,0,.46.24s-.29.38-.46.45V18.23h-4V5.68Zm11-.43c.24,0,.46,0,.46.24s-.29.4-.46.48v7.82a13,13,0,0,1-1.92,7.42,14.67,14.67,0,0,1-7.27,5.54,6.87,6.87,0,0,0-2.5-3.07c7.52-2.62,7.66-7.42,7.66-9.86V5.22Z"/><path class="ec351fd2-afcb-4c15-8a25-be7a84a522d3" d="M124.4,5.8c.29,0,.46,0,.46.24s-.29.38-.46.45V18.23h-4V5.68Zm11-.43c.24,0,.46,0,.46.24s-.29.4-.46.48v7.82a13,13,0,0,1-1.92,7.42,14.67,14.67,0,0,1-7.27,5.54,6.87,6.87,0,0,0-2.5-3.07c7.52-2.62,7.66-7.42,7.66-9.86V5.22Z"/><path class="ec351fd2-afcb-4c15-8a25-be7a84a522d3" d="M162.44,14v4.08H141.58V14Z"/><path class="ec351fd2-afcb-4c15-8a25-be7a84a522d3" d="M167.67,10.24V6.64h12.27a6.75,6.75,0,0,0,1.65-.19l1.88,2a6.9,6.9,0,0,0-.92,1.53,40.38,40.38,0,0,1-3,5.88,64.39,64.39,0,0,1,7.2,6.58c-.8.91-2.09,2.35-2.88,3.26a33.23,33.23,0,0,0-6.46-6.84,27.85,27.85,0,0,1-9.22,7.18,10.78,10.78,0,0,0-2.73-3.29,20.19,20.19,0,0,0,7.8-4.8,19.1,19.1,0,0,0,4.8-7.75Z"/><rect class="ec351fd2-afcb-4c15-8a25-be7a84a522d3" width="10" height="30"/></g></g></svg>