<svg xmlns="http://www.w3.org/2000/svg" width="629.3" height="40" viewBox="0 0 629.3 40">
  <defs>
    <style>
      .cls-1 {
        fill: #ffa000;
      }

      .cls-2 {
        fill: #fff;
      }
    </style>
  </defs>
  <g id="レイヤー_2" data-name="レイヤー 2">
    <g id="object">
      <g>
        <path class="cls-1" d="M629.3,20a20.06,20.06,0,0,1-20,20H20A20.06,20.06,0,0,1,0,20H0A20.06,20.06,0,0,1,20,0H609.3a20.06,20.06,0,0,1,20,20Z"/>
        <g>
          <path class="cls-2" d="M251.06,13.15v5.92h-5V29.14h-2.16v-16Zm-2,2.32v-.76h-3v.76Zm-3,1.26v.78h3v-.78Zm8.43,6.2h2v1.72h-2v4h-1.95v-4H250.9A6.45,6.45,0,0,1,248.1,29a3.37,3.37,0,0,0-1.69-1.19A4.46,4.46,0,0,0,249,24.65h-2V22.93h2.21c0-.85,0-1.1,0-1.34h-1.77V20h8.7v1.62h-1.6Zm-1.95-1.34h-1.45c0,.4,0,.83,0,1.34h1.47Zm6.92-8.44V27c0,2.09-1.37,2.25-3.26,2.23a5.59,5.59,0,0,0-.85-2.23,8,8,0,0,0,1.1.12c.43,0,.87-.07.87-.72V19.09h-5.06V13.15Zm-2.14,2.34v-.78h-3v.78Zm-3,1.24v.79h3v-.79Z"/>
          <path class="cls-2" d="M277.7,19.32V21h-3.94v1H277v1.63h-3.22v1H277v1.64h-3.22v1h4.08v1.66h-8.6v.41H267.1V22.55c-.22.21-.31.32-.53.52a4.73,4.73,0,0,0-1.19-1.35v7.47h-2.17V20c-.42.56-.69.9-.9,1.15a3.91,3.91,0,0,0-1.55-1.56,18.89,18.89,0,0,0,3.9-7.1l2.11.7a.3.3,0,0,1,.24.27c0,.18-.15.24-.42.33-.39.88-1,2.21-1.21,2.61.37.13.44.16.44.29s-.09.2-.44.36v4.25a15.45,15.45,0,0,0,3-4h-1.35V13l2.14.11c.16,0,.33,0,.33.22s-.11.23-.44.41v1.89H271V12.57l2.25.13c.09,0,.32.05.32.21s-.29.31-.45.35v2.37h2V13.08l2.21.14c.18,0,.38,0,.38.2s-.11.23-.47.38v3.51H273l1.28.68a.35.35,0,0,1,.21.29c0,.16,0,.18-.5.29-.07.12-.4.65-.45.75ZM269.24,21v1h2.39V21Zm0,2.6v1h2.39v-1Zm0,2.59v1h2.39v-1Zm2-6.83a14.72,14.72,0,0,0,1.1-2h-2.92l1,.52c.18.09.25.2.25.27s-.11.2-.48.25c-.18.33-.35.6-.58,1Z"/>
          <path class="cls-2" d="M286.14,15.69a.32.32,0,0,1,.2.3c0,.24-.52.18-.61.16A40.86,40.86,0,0,1,282.84,20c.47,0,.58,0,1.61-.14l-.4-1,1.48-.72a18.7,18.7,0,0,1,1.26,3.26,9.73,9.73,0,0,0-1.77.85c-.09-.52-.12-.72-.19-1-.31.06-.58.13-1,.18v7.74h-2.09V21.77l-1.85.34c-.05.17-.13.4-.31.4s-.21-.14-.27-.34l-.41-1.84,1.48-.09c.37-.41,1-1.13,1.13-1.31a17.84,17.84,0,0,0-2.5-2.15l1.1-1.65.73.48a14.23,14.23,0,0,0,1.7-3.07l1.8.93a.33.33,0,0,1,.21.29c0,.16-.1.18-.48.2-.71,1.2-1.5,2.34-1.82,2.77.27.25.38.38.54.52a27.44,27.44,0,0,0,1.64-2.57ZM281.39,23c.1,0,.36.05.36.19s-.27.28-.4.29a33.82,33.82,0,0,1-.63,4.47,15.92,15.92,0,0,0-1.76-.42,18.68,18.68,0,0,0,.84-4.7Zm4.46-.38a12.29,12.29,0,0,0,.79,3.94,5.34,5.34,0,0,0-1.62.7,21.27,21.27,0,0,1-.9-4.19Zm10.08-7.55V17h-3.58v1.89h3v1.87h-8.22V18.91h3V17h-3.58V15.07h3.58V12.7l2.18.12c.18,0,.4.08.4.24s-.2.25-.38.34v1.67Zm-6.48,13.11v1h-2.1V21.92h7.92v7.25h-2.14v-1Zm3.68-1.91V23.82h-3.68v2.45Z"/>
          <path class="cls-2" d="M306.73,29.21h-2.18V24.44a20.81,20.81,0,0,1-5.67,4.23,5.34,5.34,0,0,0-1.69-1.73,15.92,15.92,0,0,0,6-3.58h-5.71V21.48h7.07V20.3h-5.13V13.18H312V20.3h-5.26v1.18h7.19v1.88h-5.84A13.41,13.41,0,0,0,314,26.62a9.11,9.11,0,0,0-1.62,1.74,15,15,0,0,1-5.67-4Zm-2.18-13.32V14.8h-2.84v1.09Zm-2.84,1.53v1.11h2.84V17.42Zm7.94-1.53V14.8h-2.92v1.09Zm-2.92,1.53v1.11h2.92V17.42Z"/>
          <path class="cls-2" d="M319.8,14.07c.14,0,.22.12.22.25s-.27.25-.51.29a25.79,25.79,0,0,0-1,7.14,14.37,14.37,0,0,0,.13,2.13c.16-.29.83-1.57,1-1.82a6.56,6.56,0,0,0,1.16,1.53,8.92,8.92,0,0,0-1.5,4.68l-2.05.4a25,25,0,0,1-.94-7.11,34.16,34.16,0,0,1,1.05-8.29Zm8.62-.4c.2,0,.26.13.26.23s-.26.24-.44.26c-.05.41-.12.9-.18,2.36a17.12,17.12,0,0,0,2.83-.71v2.33c-1.46.36-2.36.5-2.88.59a35.55,35.55,0,0,0,.27,4.52,11.35,11.35,0,0,1,3.58,1.94c-.27.47-.93,1.86-1.06,2.15a7.18,7.18,0,0,0-2.29-1.55c0,2.46-2.77,2.63-3.56,2.63-2.61,0-3.53-1.61-3.53-2.83,0-1.8,1.76-2.79,3.71-2.79a6.83,6.83,0,0,1,.75.05c-.05-.7-.18-2.23-.19-3.81-1.1.09-2,.12-2.56.12s-.86,0-1.24,0V16.71a18.47,18.47,0,0,0,2.23.13c.74,0,1.22,0,1.55-.06,0-.16,0-3.15,0-3.56Zm-3.53,11c-1.11,0-1.45.5-1.45.9s.52.86,1.26.86c.12,0,1.51,0,1.51-1.13a3,3,0,0,0,0-.4A2.9,2.9,0,0,0,324.89,24.69Z"/>
          <path class="cls-2" d="M339.17,22.2c-.27.24-1.88,1.62-1.88,2.53a.89.89,0,0,0,.46.81,10.77,10.77,0,0,0,3.83.52,22.91,22.91,0,0,0,6.86-.9,16.86,16.86,0,0,0,.5,2.54,37.09,37.09,0,0,1-7.4.72c-4.05,0-6.75-.76-6.75-3.42,0-.81.27-2.07,2.7-4.15Zm8.57-6.46A21.57,21.57,0,0,0,342,19.45l-1.39-1.57c.14-.09,1.53-1.15,1.91-1.51-1,.07-2.29.15-3.89.15-1.33,0-1.89-.06-2.34-.09l-.15-2.53a34.46,34.46,0,0,0,5.14.33,27.85,27.85,0,0,0,5.24-.4Z"/>
          <path class="cls-2" d="M359.87,13.24c.23,0,.36.12.36.27s-.22.23-.42.25c-.09.29-.5,1.58-.59,1.84a30,30,0,0,0,6.16-1.46,6.52,6.52,0,0,0,.47,2.27A31.7,31.7,0,0,1,358.43,18c-.09.25-.42,1.13-1.19,3a10.34,10.34,0,0,1,5-1.42c4.61,0,4.9,3.31,4.9,4.14,0,5-7.13,5.26-9.33,5.26a16.48,16.48,0,0,1-1.89-.09,9.39,9.39,0,0,0-.58-2.29c.58.05,1.54.16,2.72.16,2.33,0,6.54-.41,6.54-3.11,0-1.48-1.08-2.07-2.5-2.07a9.53,9.53,0,0,0-6.54,3.15l-2.16-1.1A23.17,23.17,0,0,0,356,18.1a33.65,33.65,0,0,1-3.75-.09l0-2.5a21.82,21.82,0,0,0,4.45.34,22.37,22.37,0,0,0,.7-3.26Z"/>
          <path class="cls-2" d="M375.78,16.62c.13,0,.31.11.31.27s-.26.26-.38.26a16.27,16.27,0,0,0-1.24,3.76A8.92,8.92,0,0,1,380,18.86a4.23,4.23,0,0,1,4.55,4.3c0,3.51-3.47,5.65-9.2,5.65-.55,0-1,0-1.35,0a7,7,0,0,0-.7-2.56,13.69,13.69,0,0,0,2.49.22c1.13,0,6.24-.17,6.24-3.26A2.1,2.1,0,0,0,379.69,21c-3.12,0-5.33,2.46-6,3.2l-2.2-.79a44.57,44.57,0,0,1,1.82-7.58Zm-.72-4a18.54,18.54,0,0,1,6.19,2.07A20.56,20.56,0,0,0,379.88,17a16.55,16.55,0,0,0-5.63-2.25Z"/>
        </g>
      </g>
    </g>
  </g>
</svg>
