<svg xmlns="http://www.w3.org/2000/svg" width="109" height="20" viewBox="0 0 109 20"><defs><style>.cls-1 { fill: #fff; fill-rule: evenodd; }</style></defs><path id="ストーリー" class="cls-1" d="M2.347 19.21a29.29 29.29 0 0 0 9.668-6.293 56.407 56.407 0 0 1 5.249 6.425l3.482-2.9a45.2 45.2 0 0 0-6.128-6.183 27.164 27.164 0 0 0 5.634-9.378h-15.359l-.585 3.319h10.672a27.281 27.281 0 0 1-14.116 12.062zm26.177-19.341l-3.415 19.385h3.828l1.837-10.43a34.159 34.159 0 0 1 7.908 4.576l2.518-3.673a41.527 41.527 0 0 0-9.77-4.621l.922-5.237h-3.828zm16.655 7.855l-.647 3.676h19.406l.647-3.675h-19.406zm29.4-7.173h-3.7l-2.128 12.08h3.7zm10.693-.374h-3.716l-1.7 9.637c-.787 4.467-4.3 5.655-10.553 6.073l.723 3.388c5.991-.66 12.227-1.958 13.641-9.989zm3.947 7.547l-.645 3.676h19.407l.647-3.675h-19.406z"/></svg>