<svg version="1.1" xmlns="http://www.w3.org/2000/svg" xmlns:xlink="http://www.w3.org/1999/xlink" x="0px" y="0px" width="522.075px" height="113.344px" viewBox="0 0 522.075 113.344" xml:space="preserve"><g><path fill="#f3ecda" d="M50.819 0c6.776 0 12.345 1 16.709 3.002 4.363 2.002 8.239 4.339 11.628 7.008 2.052 1.539 3.618 1.721 4.696.539 1.078-1.18 1.822-3.979 2.233-8.394h3.542c-.207 3.903-.361 8.601-.462 14.091-.104 5.494-.154 12.809-.154 21.945H85.47c-.72-4.517-1.412-8.213-2.079-11.088-.669-2.873-1.54-5.337-2.618-7.393-1.078-2.052-2.541-4.055-4.389-6.006-2.979-3.695-6.622-6.364-10.934-8.008-4.312-1.641-8.882-2.464-13.706-2.464-5.236 0-9.856 1.31-13.86 3.927-4.004 2.618-7.368 6.341-10.087 11.166-2.722 4.826-4.801 10.524-6.237 17.094-1.438 6.571-2.156 13.758-2.156 21.56 0 8.008.771 15.272 2.311 21.791 1.54 6.521 3.772 12.115 6.699 16.786 2.926 4.673 6.468 8.266 10.626 10.779 4.158 2.518 8.802 3.773 13.937 3.773 4.209 0 8.571-.847 13.09-2.541 4.517-1.693 8.109-4.285 10.78-7.777 2.873-3.08 4.852-6.545 5.929-10.395 1.078-3.85 1.976-9.109 2.695-15.785h3.542c0 9.447.051 17.07.154 22.869.101 5.801.255 10.703.462 14.707h-3.542c-.411-4.413-1.104-7.186-2.079-8.316-.977-1.128-2.594-.975-4.851.463-3.8 2.67-7.83 5.004-12.09 7.006-4.261 2.002-9.729 3.004-16.4 3.004-10.164 0-19.046-2.207-26.643-6.622-7.599-4.413-13.501-10.78-17.71-19.097C2.103 79.31 0 69.299 0 57.596c0-11.497 2.18-21.561 6.545-30.184 4.362-8.625 10.342-15.348 17.94-20.175C32.082 2.413 40.86 0 50.819 0zM138.123 29.567c6.877 0 12.986 1.438 18.326 4.312 5.337 2.876 9.599 7.393 12.781 13.553 3.182 6.16 4.774 14.221 4.774 24.178 0 9.959-1.593 17.994-4.774 24.102-3.183 6.109-7.444 10.575-12.781 13.397-5.34 2.823-11.449 4.235-18.326 4.235-6.776 0-12.886-1.412-18.326-4.235-5.443-2.822-9.729-7.288-12.859-13.397-3.133-6.107-4.696-14.143-4.696-24.102 0-9.957 1.563-18.018 4.696-24.178 3.131-6.16 7.416-10.677 12.859-13.553C125.237 31.006 131.347 29.567 138.123 29.567zM138.123 32.647c-5.34 0-9.702 3.056-13.09 9.163-3.389 6.109-5.082 16.043-5.082 29.799 0 13.76 1.693 23.639 5.082 29.645 3.388 6.007 7.75 9.01 13.09 9.01 5.235 0 9.572-3.003 13.013-9.01 3.438-6.006 5.159-15.885 5.159-29.645 0-13.756-1.721-23.689-5.159-29.799C147.695 35.703 143.358 32.647 138.123 32.647zM232.802 29.567c4.105 0 7.469.539 10.087 1.617s4.798 2.541 6.545 4.39c1.849 1.951 3.157 4.465 3.927 7.545.771 3.08 1.155 7.238 1.155 12.475v41.271c0 4.312.847 7.238 2.541 8.778s4.543 2.31 8.547 2.31v3.234c-1.747-.102-4.466-.23-8.162-.385-3.695-.154-7.341-.231-10.934-.231-3.491 0-6.956.077-10.396.231-3.44.154-6.032.283-7.776.385v-3.234c3.489 0 5.953-.77 7.392-2.31 1.437-1.54 2.156-4.466 2.156-8.778V51.281c0-2.977-.258-5.672-.771-8.085-.515-2.411-1.593-4.362-3.233-5.852-1.644-1.487-4.107-2.233-7.393-2.233-3.799 0-7.16 1.078-10.087 3.234-2.926 2.156-5.235 5.108-6.93 8.855-1.694 3.748-2.541 7.93-2.541 12.551v37.113c0 4.312.743 7.238 2.233 8.778 1.486 1.54 3.927 2.31 7.314 2.31v3.234c-1.644-.102-4.134-.23-7.469-.385-3.338-.154-6.803-.231-10.396-.231-3.491 0-7.137.077-10.934.231-3.8.154-6.622.283-8.47.385v-3.234c4.004 0 6.853-.77 8.547-2.31s2.541-4.466 2.541-8.778V48.51c0-4.62-.771-8.032-2.311-10.241-1.539-2.206-4.466-3.312-8.777-3.312v-3.233c3.284.308 6.468.462 9.548.462 3.489 0 6.749-.178 9.779-.539 3.026-.358 5.825-.897 8.393-1.617v16.786c2.669-6.364 6.338-10.831 11.011-13.397C222.611 30.853 227.565 29.567 232.802 29.567zM293.74 6.313v25.563h21.252v3.08H293.74v60.522c0 4.211.77 7.188 2.31 8.933 1.54 1.746 3.746 2.617 6.622 2.617 2.669 0 5.056-1.078 7.161-3.234 2.103-2.155 3.927-5.799 5.467-10.934l2.926 1.078c-1.231 5.443-3.414 10.037-6.545 13.783-3.133 3.746-7.727 5.621-13.783 5.621-3.491 0-6.417-.438-8.777-1.309-2.363-.871-4.416-2.131-6.16-3.773-2.26-2.361-3.8-5.184-4.62-8.471-.823-3.284-1.232-7.646-1.232-13.09V34.957h-14.168v-3.08h14.168V9.394c3.182-.101 6.16-.386 8.933-.847C288.812 8.084 291.377 7.341 293.74 6.313zM345.36 112.266c-4.312 0-8.008-.823-11.088-2.465-3.08-1.641-5.391-3.9-6.931-6.775-1.539-2.873-2.31-6.16-2.31-9.855 0-4.518 1.025-8.187 3.08-11.012 2.053-2.822 4.697-5.105 7.931-6.853 3.234-1.745 6.673-3.208 10.318-4.39 3.643-1.179 7.084-2.31 10.318-3.388 3.233-1.077 5.902-2.334 8.008-3.772 2.103-1.438 3.157-3.336 3.157-5.698V47.586c0-3.696-.593-6.646-1.771-8.855-1.182-2.207-2.771-3.773-4.774-4.697-2.002-.924-4.389-1.386-7.16-1.386-2.363 0-4.878.335-7.547 1.001-2.671.669-4.773 1.979-6.313 3.928 2.257.615 4.132 1.823 5.621 3.618 1.487 1.798 2.232 4.03 2.232 6.699 0 2.876-.95 5.135-2.849 6.776-1.9 1.643-4.288 2.463-7.161 2.463-3.184 0-5.544-1-7.084-3.002s-2.31-4.336-2.31-7.008c0-2.771.692-5.029 2.079-6.775 1.386-1.744 3.207-3.389 5.467-4.928 2.464-1.642 5.621-3.027 9.471-4.158 3.851-1.129 8.136-1.694 12.859-1.694 4.413 0 8.239.489 11.473 1.463 3.234.978 5.929 2.541 8.085 4.697 2.565 2.362 4.259 5.313 5.082 8.854.82 3.543 1.232 7.83 1.232 12.859v42.504c0 2.568.332 4.389 1.001 5.467.666 1.078 1.771 1.617 3.311 1.617 1.025 0 2.026-.255 3.003-.77.975-.513 2.13-1.283 3.465-2.311l1.54 2.618c-2.155 1.747-4.338 3.133-6.545 4.158-2.209 1.024-5.005 1.54-8.393 1.54-3.287 0-5.956-.516-8.008-1.54-2.056-1.025-3.568-2.515-4.543-4.466-.978-1.949-1.463-4.363-1.463-7.238-2.671 4.312-5.853 7.6-9.549 9.855C354.601 111.137 350.288 112.266 345.36 112.266zM352.752 104.873c2.873 0 5.568-.82 8.085-2.463 2.515-1.642 4.852-4.105 7.008-7.393V64.371c-1.132 1.645-2.772 3.057-4.929 4.235-2.155 1.182-4.466 2.388-6.93 3.619s-4.801 2.645-7.007 4.235c-2.209 1.592-4.03 3.619-5.467 6.082-1.439 2.465-2.156 5.598-2.156 9.395 0 4.004 1.024 7.161 3.08 9.471C346.489 103.719 349.261 104.873 352.752 104.873zM435.759 29.567c3.488 0 6.826.438 10.01 1.31 3.181.873 5.953 2.078 8.315 3.619 2.465 1.539 4.337 3.387 5.621 5.543 1.283 2.156 1.926 4.52 1.926 7.084 0 3.08-.874 5.494-2.618 7.238-1.747 1.747-4.004 2.618-6.776 2.618-2.771 0-5.082-.771-6.93-2.31-1.849-1.541-2.772-3.747-2.772-6.623 0-2.668.771-4.851 2.311-6.545 1.54-1.693 3.335-2.795 5.39-3.311-.924-1.54-2.541-2.85-4.851-3.927-2.311-1.078-4.801-1.617-7.47-1.617-2.771 0-5.416.72-7.931 2.156-2.517 1.438-4.75 3.646-6.699 6.622-1.951 2.979-3.518 6.828-4.697 11.55-1.181 4.724-1.771 10.421-1.771 17.094 0 8.624 1.001 15.478 3.003 20.56s4.645 8.701 7.931 10.856c3.285 2.156 6.827 3.234 10.626 3.234 2.465 0 5.006-.462 7.623-1.386 2.618-.924 5.133-2.465 7.546-4.621 2.411-2.155 4.543-5.082 6.392-8.777l2.926 1.078c-1.131 3.388-2.902 6.828-5.312 10.318-2.414 3.49-5.571 6.366-9.472 8.623-3.902 2.258-8.677 3.389-14.321 3.389-6.469 0-12.32-1.594-17.557-4.774-5.235-3.181-9.394-7.827-12.474-13.937-3.08-6.107-4.62-13.576-4.62-22.407 0-8.624 1.564-16.144 4.697-22.562 3.13-6.414 7.469-11.369 13.013-14.86C422.36 31.314 428.675 29.567 435.759 29.567zM497.59 6.313v25.563h21.252v3.08H497.59v60.522c0 4.211.77 7.188 2.31 8.933 1.54 1.746 3.746 2.617 6.622 2.617 2.669 0 5.056-1.078 7.161-3.234 2.103-2.155 3.927-5.799 5.467-10.934l2.926 1.078c-1.231 5.443-3.414 10.037-6.545 13.783-3.133 3.746-7.727 5.621-13.783 5.621-3.491 0-6.417-.438-8.777-1.309-2.363-.871-4.416-2.131-6.16-3.773-2.26-2.361-3.8-5.184-4.62-8.471-.823-3.284-1.232-7.646-1.232-13.09V34.957h-14.168v-3.08h14.168V9.394c3.182-.101 6.16-.386 8.933-.847C492.661 8.084 495.227 7.341 497.59 6.313z"/></g></svg>