<svg width="14" height="233" viewBox="0 0 14 233" fill="none" xmlns="http://www.w3.org/2000/svg">
<path d="M7 87L6.99999 229.5" stroke="white" stroke-width="2"/>
<circle cx="7" cy="230" r="3" fill="white"/>
<path d="M1.904 3.612C1.904 2.972 2.004 2.412 2.204 1.932C2.412 1.452 2.704 1.08 3.08 0.816C3.464 0.56 3.908 0.432 4.412 0.432L4.676 0.432C4.716 0.432 4.748 0.444 4.772 0.468C4.804 0.5 4.82 0.536 4.82 0.576L4.82 1.944C4.82 1.984 4.804 2.016 4.772 2.04C4.748 2.072 4.716 2.088 4.676 2.088L4.496 2.088C4.176 2.088 3.904 2.236 3.68 2.532C3.464 2.828 3.356 3.228 3.356 3.732C3.356 4.156 3.444 4.472 3.62 4.68C3.804 4.888 4.028 4.992 4.292 4.992C4.484 4.992 4.644 4.928 4.772 4.8C4.908 4.672 5.024 4.496 5.12 4.272C5.224 4.056 5.364 3.708 5.54 3.228C5.724 2.692 5.912 2.236 6.104 1.86C6.296 1.492 6.556 1.18 6.884 0.924C7.22 0.676 7.632 0.552 8.12 0.552C8.6 0.552 9.02 0.676 9.38 0.924C9.74 1.172 10.016 1.516 10.208 1.956C10.4 2.396 10.496 2.904 10.496 3.48C10.496 4.088 10.388 4.628 10.172 5.1C9.956 5.58 9.652 5.952 9.26 6.216C8.876 6.488 8.428 6.624 7.916 6.624L7.736 6.624C7.696 6.624 7.66 6.608 7.628 6.576C7.604 6.552 7.592 6.52 7.592 6.48L7.592 5.1C7.592 5.06 7.604 5.024 7.628 4.992C7.66 4.968 7.696 4.956 7.736 4.956L7.832 4.956C8.168 4.956 8.452 4.816 8.684 4.536C8.924 4.264 9.044 3.888 9.044 3.408C9.044 3.032 8.964 2.736 8.804 2.52C8.644 2.312 8.424 2.208 8.144 2.208C7.944 2.208 7.776 2.268 7.64 2.388C7.504 2.516 7.38 2.7 7.268 2.94C7.164 3.188 7.02 3.568 6.836 4.08C6.628 4.648 6.444 5.092 6.284 5.412C6.124 5.74 5.884 6.032 5.564 6.288C5.252 6.552 4.844 6.684 4.34 6.684C3.588 6.684 2.992 6.408 2.552 5.856C2.12 5.304 1.904 4.556 1.904 3.612ZM1.904 10.8207C1.904 10.1967 2.024 9.64872 2.264 9.17672C2.512 8.70472 2.856 8.34072 3.296 8.08472C3.736 7.82872 4.244 7.70072 4.82 7.70072L7.592 7.70072C8.168 7.70072 8.676 7.82872 9.116 8.08472C9.556 8.34072 9.896 8.70472 10.136 9.17672C10.376 9.64872 10.496 10.1967 10.496 10.8207C10.496 11.4367 10.38 11.9767 10.148 12.4407C9.924 12.9127 9.6 13.2767 9.176 13.5327C8.76 13.7967 8.276 13.9287 7.724 13.9287C7.652 13.9287 7.608 13.8807 7.592 13.7847L7.508 12.3807L7.508 12.3567C7.508 12.2767 7.552 12.2367 7.64 12.2367C8.064 12.2367 8.404 12.1047 8.66 11.8407C8.916 11.5847 9.044 11.2447 9.044 10.8207C9.044 10.3887 8.916 10.0407 8.66 9.77672C8.404 9.52072 8.064 9.39272 7.64 9.39272L4.748 9.39272C4.332 9.39272 3.996 9.52072 3.74 9.77672C3.484 10.0407 3.356 10.3887 3.356 10.8207C3.356 11.2447 3.484 11.5847 3.74 11.8407C3.996 12.1047 4.332 12.2367 4.748 12.2367C4.836 12.2367 4.88 12.2847 4.88 12.3807L4.82 13.7847C4.82 13.8247 4.808 13.8567 4.784 13.8807C4.76 13.9127 4.732 13.9287 4.7 13.9287C4.148 13.9287 3.66 13.7967 3.236 13.5327C2.812 13.2767 2.484 12.9127 2.252 12.4407C2.02 11.9767 1.904 11.4367 1.904 10.8207ZM2 19.7775C2 19.6975 2.036 19.6415 2.108 19.6095L5.432 18.1095C5.464 18.0935 5.48 18.0695 5.48 18.0375L5.48 16.9215C5.48 16.8815 5.46 16.8615 5.42 16.8615L2.144 16.8615C2.104 16.8615 2.068 16.8455 2.036 16.8135C2.012 16.7895 2 16.7575 2 16.7175L2 15.3135C2 15.2735 2.012 15.2375 2.036 15.2055C2.068 15.1815 2.104 15.1695 2.144 15.1695L10.256 15.1695C10.296 15.1695 10.328 15.1815 10.352 15.2055C10.384 15.2375 10.4 15.2735 10.4 15.3135L10.4 18.7455C10.4 19.2575 10.296 19.7055 10.088 20.0895C9.88 20.4815 9.584 20.7815 9.2 20.9895C8.816 21.2055 8.372 21.3135 7.868 21.3135C7.324 21.3135 6.856 21.1775 6.464 20.9055C6.08 20.6335 5.808 20.2535 5.648 19.7655C5.632 19.7255 5.604 19.7135 5.564 19.7295L2.168 21.3615C2.136 21.3775 2.112 21.3855 2.096 21.3855C2.032 21.3855 2 21.3415 2 21.2535L2 19.7775ZM8.948 16.9215C8.948 16.8815 8.928 16.8615 8.888 16.8615L6.836 16.8615C6.796 16.8615 6.776 16.8815 6.776 16.9215L6.776 18.4935C6.776 18.8295 6.876 19.1015 7.076 19.3095C7.276 19.5255 7.536 19.6335 7.856 19.6335C8.176 19.6335 8.436 19.5255 8.636 19.3095C8.844 19.1015 8.948 18.8295 8.948 18.4935L8.948 16.9215ZM1.868 25.5286C1.868 24.9046 1.996 24.3526 2.252 23.8726C2.508 23.4006 2.864 23.0326 3.32 22.7686C3.784 22.5046 4.316 22.3726 4.916 22.3726L7.484 22.3726C8.076 22.3726 8.6 22.5046 9.056 22.7686C9.512 23.0326 9.864 23.4006 10.112 23.8726C10.368 24.3526 10.496 24.9046 10.496 25.5286C10.496 26.1606 10.368 26.7126 10.112 27.1846C9.864 27.6646 9.512 28.0366 9.056 28.3006C8.6 28.5646 8.076 28.6966 7.484 28.6966L4.916 28.6966C4.316 28.6966 3.784 28.5646 3.32 28.3006C2.856 28.0366 2.496 27.6646 2.24 27.1846C1.992 26.7126 1.868 26.1606 1.868 25.5286ZM3.32 25.5286C3.32 25.9686 3.46 26.3246 3.74 26.5966C4.02 26.8686 4.392 27.0046 4.856 27.0046L7.496 27.0046C7.96 27.0046 8.332 26.8686 8.612 26.5966C8.9 26.3326 9.044 25.9766 9.044 25.5286C9.044 25.0886 8.9 24.7326 8.612 24.4606C8.332 24.1966 7.96 24.0646 7.496 24.0646L4.856 24.0646C4.392 24.0646 4.02 24.1966 3.74 24.4606C3.46 24.7326 3.32 25.0886 3.32 25.5286ZM2 30.1377C2 30.0977 2.012 30.0617 2.036 30.0297C2.068 30.0057 2.104 29.9937 2.144 29.9937L10.256 29.9937C10.296 29.9937 10.328 30.0057 10.352 30.0297C10.384 30.0617 10.4 30.0977 10.4 30.1377L10.4 31.5417C10.4 31.5817 10.384 31.6137 10.352 31.6377C10.328 31.6697 10.296 31.6857 10.256 31.6857L3.512 31.6857C3.472 31.6857 3.452 31.7057 3.452 31.7457L3.452 35.6697C3.452 35.7097 3.436 35.7417 3.404 35.7657C3.38 35.7977 3.348 35.8137 3.308 35.8137L2.144 35.8137C2.104 35.8137 2.068 35.7977 2.036 35.7657C2.012 35.7417 2 35.7097 2 35.6697L2 30.1377ZM2 37.0049C2 36.9649 2.012 36.9289 2.036 36.8969C2.068 36.8729 2.104 36.8609 2.144 36.8609L10.256 36.8609C10.296 36.8609 10.328 36.8729 10.352 36.8969C10.384 36.9289 10.4 36.9649 10.4 37.0049L10.4 38.4089C10.4 38.4489 10.384 38.4809 10.352 38.5049C10.328 38.5369 10.296 38.5529 10.256 38.5529L3.512 38.5529C3.472 38.5529 3.452 38.5729 3.452 38.6129L3.452 42.5369C3.452 42.5769 3.436 42.6089 3.404 42.6329C3.38 42.6649 3.348 42.6809 3.308 42.6809L2.144 42.6809C2.104 42.6809 2.068 42.6649 2.036 42.6329C2.012 42.6089 2 42.5769 2 42.5369L2 37.0049ZM2 46.2744C2 46.2344 2.012 46.1984 2.036 46.1664C2.068 46.1424 2.104 46.1304 2.144 46.1304L10.256 46.1304C10.296 46.1304 10.328 46.1424 10.352 46.1664C10.384 46.1984 10.4 46.2344 10.4 46.2744L10.4 49.2744C10.4 49.8744 10.292 50.3984 10.076 50.8464C9.868 51.3024 9.572 51.6544 9.188 51.9024C8.804 52.1504 8.36 52.2744 7.856 52.2744L4.544 52.2744C4.04 52.2744 3.596 52.1504 3.212 51.9024C2.828 51.6544 2.528 51.3024 2.312 50.8464C2.104 50.3984 2 49.8744 2 49.2744L2 46.2744ZM3.512 47.8224C3.472 47.8224 3.452 47.8424 3.452 47.8824L3.452 49.3344C3.452 49.7024 3.576 49.9984 3.824 50.2224C4.072 50.4544 4.404 50.5744 4.82 50.5824L7.58 50.5824C7.996 50.5824 8.328 50.4664 8.576 50.2344C8.824 50.0104 8.948 49.7064 8.948 49.3224L8.948 47.8824C8.948 47.8424 8.928 47.8224 8.888 47.8224L3.512 47.8224ZM1.868 56.5247C1.868 55.9007 1.996 55.3487 2.252 54.8687C2.508 54.3967 2.864 54.0287 3.32 53.7647C3.784 53.5007 4.316 53.3687 4.916 53.3687L7.484 53.3687C8.076 53.3687 8.6 53.5007 9.056 53.7647C9.512 54.0287 9.864 54.3967 10.112 54.8687C10.368 55.3487 10.496 55.9007 10.496 56.5247C10.496 57.1567 10.368 57.7087 10.112 58.1807C9.864 58.6607 9.512 59.0327 9.056 59.2967C8.6 59.5607 8.076 59.6927 7.484 59.6927L4.916 59.6927C4.316 59.6927 3.784 59.5607 3.32 59.2967C2.856 59.0327 2.496 58.6607 2.24 58.1807C1.992 57.7087 1.868 57.1567 1.868 56.5247ZM3.32 56.5247C3.32 56.9647 3.46 57.3207 3.74 57.5927C4.02 57.8647 4.392 58.0007 4.856 58.0007L7.496 58.0007C7.96 58.0007 8.332 57.8647 8.612 57.5927C8.9 57.3287 9.044 56.9727 9.044 56.5247C9.044 56.0847 8.9 55.7287 8.612 55.4567C8.332 55.1927 7.96 55.0607 7.496 55.0607L4.856 55.0607C4.392 55.0607 4.02 55.1927 3.74 55.4567C3.46 55.7287 3.32 56.0847 3.32 56.5247ZM2 62.674C2 62.586 2.04 62.53 2.12 62.506L10.244 60.382L10.292 60.37C10.364 60.37 10.4 60.414 10.4 60.502L10.4 61.99C10.4 62.07 10.36 62.122 10.28 62.146L5.396 63.286C5.364 63.294 5.348 63.306 5.348 63.322C5.348 63.338 5.364 63.35 5.396 63.358L10.268 64.462C10.356 64.486 10.4 64.538 10.4 64.618L10.4 66.07C10.4 66.158 10.36 66.214 10.28 66.238L5.396 67.438C5.372 67.446 5.356 67.458 5.348 67.474C5.348 67.49 5.364 67.502 5.396 67.51L10.268 68.614C10.356 68.638 10.4 68.69 10.4 68.77L10.4 70.186C10.4 70.298 10.348 70.342 10.244 70.318L2.12 68.35C2.04 68.326 2 68.27 2 68.182L2 66.754C2 66.674 2.04 66.622 2.12 66.598L7.316 65.374C7.348 65.366 7.364 65.354 7.364 65.338C7.364 65.322 7.348 65.31 7.316 65.302L2.132 64.162C2.044 64.146 2 64.094 2 64.006L2 62.674ZM10.256 76.0912C10.296 76.0912 10.328 76.1032 10.352 76.1272C10.384 76.1592 10.4 76.1952 10.4 76.2352L10.4 77.6392C10.4 77.6792 10.384 77.7112 10.352 77.7352C10.328 77.7672 10.296 77.7832 10.256 77.7832L2.144 77.7832C2.104 77.7832 2.068 77.7672 2.036 77.7352C2.012 77.7112 2 77.6792 2 77.6392L2 76.2832C2 76.2032 2.032 76.1472 2.096 76.1152L7.232 73.0072C7.256 72.9912 7.264 72.9752 7.256 72.9592C7.256 72.9432 7.24 72.9352 7.208 72.9352L2.144 72.9592C2.104 72.9592 2.068 72.9432 2.036 72.9112C2.012 72.8872 2 72.8552 2 72.8152L2 71.4112C2 71.3712 2.012 71.3352 2.036 71.3032C2.068 71.2792 2.104 71.2672 2.144 71.2672L10.256 71.2672C10.296 71.2672 10.328 71.2792 10.352 71.3032C10.384 71.3352 10.4 71.3712 10.4 71.4112L10.4 72.7672C10.4 72.8472 10.368 72.9032 10.304 72.9352L5.192 76.0312C5.168 76.0472 5.156 76.0632 5.156 76.0792C5.164 76.0952 5.184 76.1032 5.216 76.1032L10.256 76.0912Z" fill="white"/>
</svg>
