<svg xmlns="http://www.w3.org/2000/svg" viewBox="0 0 27.64 34.02"><defs><style>.cls-1{fill:#fff;}.cls-2{fill:#231815;}.cls-3,.cls-4,.cls-5{fill:none;}.cls-3,.cls-5{stroke:#231815;}.cls-3{stroke-width:0.56px;}.cls-4{stroke:#fff;stroke-width:3.05px;}.cls-5{stroke-width:1.52px;}</style></defs><title>ceroD_s</title><g id="レイヤー_2" data-name="レイヤー 2"><g id="レイヤー_1-2" data-name="レイヤー 1"><rect class="cls-1" width="27.64" height="34.02" rx="1.91"/><path class="cls-2" d="M25.51,4.25a2.12,2.12,0,0,0-2.12-2.12H4.25A2.13,2.13,0,0,0,2.12,4.25V26.9H25.51Z"/><path class="cls-3" d="M4.25,2.13H23.39a2.13,2.13,0,0,1,2.13,2.13V29.76a2.13,2.13,0,0,1-2.13,2.13H4.25a2.12,2.12,0,0,1-2.12-2.12V4.25A2.13,2.13,0,0,1,4.25,2.13Z"/><path class="cls-1" d="M8,4.22a2.67,2.67,0,0,0-1.45-.45c-1.18,0-1.52.95-1.52,2C5,7,5.57,7.94,6.86,7.94a4,4,0,0,0,1.87-.57L8.29,8.64a6.63,6.63,0,0,1-1.72.2A3.26,3.26,0,0,1,4.25,8.1a2.9,2.9,0,0,1-1-2.26,3,3,0,0,1,.94-2.17A3.69,3.69,0,0,1,6.59,2.9L7.9,3Z"/><path class="cls-1" d="M10.86,7.77a2.31,2.31,0,0,0,.91.13A1.5,1.5,0,0,0,13,7.42h0l-.34,1.31H8.89v0c.43-.26.37-.75.37-1.2V4.26c0-.45.06-.94-.37-1.2V3h3a.88.88,0,0,0,.37,0h0V4.25h0c-.24-.41-.73-.37-1.16-.37h-.27V5.29h.8a.74.74,0,0,0,.32,0h0V6.45h0c-.12-.34-.52-.31-.84-.31h-.28Z"/><path class="cls-1" d="M15.19,6.29l1,1.89a1,1,0,0,0,1.16.58l1.2-.08a3.88,3.88,0,0,1-.84-1l-1-1.72a1.52,1.52,0,0,0,1-1.37,1.43,1.43,0,0,0-.77-1.32A2.28,2.28,0,0,0,15.79,3H13.22v0c.42.27.37.76.37,1.21V7.49c0,.45.05.95-.37,1.21v0h2.33v0c-.43-.26-.36-.76-.36-1.21Zm.08-2.42a.83.83,0,0,1,.51.13.88.88,0,0,1,.34.73,1.12,1.12,0,0,1-.93,1.1v-2h.08"/><path class="cls-1" d="M18.08,5.87a2.94,2.94,0,0,0,3.15,3,3,3,0,0,0,3.26-3,2.86,2.86,0,0,0-3.15-3A3,3,0,0,0,18.08,5.87Zm1.68-.24c0-.89.45-1.87,1.47-1.87,1.19,0,1.58,1.41,1.58,2.4a2,2,0,0,1-.32,1.21A1.42,1.42,0,0,1,21.34,8a1.4,1.4,0,0,1-1.17-.75,3.69,3.69,0,0,1-.41-1.6"/><path class="cls-4" d="M11.74,14.37h2.07c1.76,0,2.53,1.58,2.53,3.42,0,1.45-.49,3.55-2.53,3.55H11.74Zm-4,9.92h5.58c1.08,0,3.84-.11,5.35-1.57A6.37,6.37,0,0,0,20.42,18c0-.84-.14-3.63-1.79-4.93a7.45,7.45,0,0,0-5.27-1.65H7.78Z"/><path class="cls-5" d="M11.74,14.37h2.07c1.76,0,2.53,1.58,2.53,3.42,0,1.45-.49,3.55-2.53,3.55H11.74Zm-4,9.92h5.58c1.08,0,3.84-.11,5.35-1.57A6.37,6.37,0,0,0,20.42,18c0-.84-.14-3.63-1.79-4.93a7.45,7.45,0,0,0-5.27-1.65H7.78Z"/><path class="cls-2" d="M11.74,14.37h2.07c1.76,0,2.53,1.58,2.53,3.42,0,1.45-.49,3.55-2.53,3.55H11.74Zm-4,9.92h5.58c1.08,0,3.84-.11,5.35-1.57A6.37,6.37,0,0,0,20.42,18c0-.84-.14-3.63-1.79-4.93a7.45,7.45,0,0,0-5.27-1.65H7.78Z"/><path class="cls-1" d="M11.48,14.37h2.08c1.76,0,2.53,1.58,2.53,3.42,0,1.45-.49,3.55-2.53,3.55H11.48Zm-4,9.92H13.1c1.09,0,3.84-.11,5.36-1.57A6.41,6.41,0,0,0,20.17,18c0-.84-.14-3.63-1.8-4.93a7.41,7.41,0,0,0-5.27-1.65H7.52Z"/><path class="cls-2" d="M3.37,27.73v.43h.5v2.71h.4V27.73Z"/><path class="cls-2" d="M7.54,27.73v.44l-1.27,2.7H5.79l1.34-2.71H5.38v-.43Z"/><path class="cls-2" d="M7.83,30.12a4.83,4.83,0,0,0,1.59-.63v-.93H7.83v-.41H9.42v-.66h.37v.66h1.12v.41H9.79v.68a2.21,2.21,0,0,0,.51-.55l.29.27a3.48,3.48,0,0,1-.8.76v1.19a.29.29,0,0,1-.31.32H8.83l-.06-.42h.55c.1,0,.1,0,.1-.12v-.75A6.33,6.33,0,0,1,8,30.52Z"/><path class="cls-2" d="M14,28.3a4.56,4.56,0,0,1-.3,1.7,5.59,5.59,0,0,1,.61.85l-.3.36a4.25,4.25,0,0,0-.5-.86,2.13,2.13,0,0,1-1.14.88l-.18-.41c1.34-.39,1.44-1.56,1.44-2.55v-.68H14Zm-2.83,2.17.31-.11v-2.8h.36v2.65s.53-.23.88-.42l.07.38a12.41,12.41,0,0,1-1.56.73Zm1.28-2.76a4.72,4.72,0,0,1,.68,1.06l-.32.26A4.85,4.85,0,0,0,12.15,28Z"/><path class="cls-2" d="M16.1,27.49v1.2h1.24v.43H16.1v1.55h1.45v.42H14.42v-.42h1.32V27.49Z"/><path class="cls-2" d="M19.28,29.18a5.44,5.44,0,0,1,.42,1.06L20,30A5.28,5.28,0,0,0,19.6,29Zm-1.46-.11a4.39,4.39,0,0,1,.62.69,2.88,2.88,0,0,1-.74,1l.24.37a3.4,3.4,0,0,0,.75-1c.18.28.29.5.36.63l.28-.26a4.35,4.35,0,0,0-.48-.78,8,8,0,0,0,.27-1.2h.19v-.41h-.58v-.61h-.35v.61h-.62v.41h1a4.25,4.25,0,0,1-.17.87,6.94,6.94,0,0,0-.52-.58Zm2.39-1.59v.74h-.8v.43h.8v2.07c0,.08,0,.09-.11.09h-.52l.09.41h.5c.26,0,.39,0,.39-.36V28.65h.28v-.43h-.28v-.74Z"/><path class="cls-2" d="M22.45,28.59V29h-.83v-.37Zm-1.25,2a3.67,3.67,0,0,0,1.27-.53.74.74,0,0,1,0,.14,4.09,4.09,0,0,1-1.46.57l.11.35a4.72,4.72,0,0,0,1.4-.6c0,.24,0,.3-.2.3h-.29l.07.4h.3c.18,0,.45,0,.45-.59a1.84,1.84,0,0,0-.24-.92c-.06-.09-.11-.14-.14-.18a3,3,0,0,0,.4-.26A2.12,2.12,0,0,0,24,31.13l.21-.37a2.26,2.26,0,0,1-.64-.51,3.44,3.44,0,0,0,.53-.46l-.27-.29a2.61,2.61,0,0,1-.45.43,2.7,2.7,0,0,1-.17-.65H24v-1H23.2a1.42,1.42,0,0,0,.2-.25V27.7H22.25a.65.65,0,0,0,.1-.15L22,27.46a1.82,1.82,0,0,1-1,.74l.14.35.15-.07v.8h1.09a4.27,4.27,0,0,1-1.25.41l.11.32a3.78,3.78,0,0,0,1-.31l.09.11a3.1,3.1,0,0,1-1.22.44Zm.46-2.33A2.52,2.52,0,0,0,22,28h1a1.27,1.27,0,0,1-.22.25Zm2,.32V29h-.86v-.37Z"/></g></g></svg>