<svg id="BTN_詳しいアクセス情報はこちら" xmlns="http://www.w3.org/2000/svg" width="656" height="97.6" viewBox="0 0 656 97.6"><defs><style>.cls-1{fill:#006880;}.cls-2{fill:#0b8caa;}.cls-3{fill:#fff;}</style></defs><title>btn_accessmap</title><g id="_006880" data-name="006880"><rect class="cls-1" width="656" height="97.63"/></g><g id="_0b8caa" data-name="0b8caa"><rect class="cls-2" width="656" height="92.81"/></g><g id="arr"><g id="長方形_23" data-name="長方形 23"><rect class="cls-3" x="625.6" y="8" width="22.4" height="76.81"/></g><g id="_" data-name="&gt;"><g id="長方形_22" data-name="長方形 22"><rect class="cls-2" x="630.6" y="48.9" width="12.8" height="3.23" transform="translate(150.9 464.5) rotate(-45)"/></g><g id="長方形_22-2" data-name="長方形 22"><rect class="cls-2" x="635.4" y="37.3" width="3.2" height="12.8" transform="translate(155.7 462.5) rotate(-45)"/></g></g></g><g id="txt__ffffff" data-name="txt_#ffffff"><g id="詳しいアクセス情報はこちら"><path class="cls-3" d="M56.3,35.7H67.2a0.8,0.8,0,0,1,.1.4v3.2a0.7,0.7,0,0,1-.1.5H51.1a0.8,0.8,0,0,1-.1-0.4V36.1a0.4,0.4,0,0,1,.4-0.5h4.8ZM66.4,67.6a0.7,0.7,0,0,1-.1.4H62.2a0.8,0.8,0,0,1-.1-0.4V66.4h-5v2a0.7,0.7,0,0,1-.1.4H52.9a0.7,0.7,0,0,1-.1-0.4V54.5A0.5,0.5,0,0,1,53,54H66.3a0.8,0.8,0,0,1,.1.4V67.6Zm-8.8-38h8.8a0.6,0.6,0,0,1,.1.4v3a0.5,0.5,0,0,1-.1.4H53.1a0.8,0.8,0,0,1-.1-0.4V30a0.6,0.6,0,0,1,.1-0.4h4.5ZM57.8,42h8a0.8,0.8,0,0,1,.1.4v2.9a0.5,0.5,0,0,1-.1.4H53.5a0.7,0.7,0,0,1-.1-0.4V42.4a0.6,0.6,0,0,1,.1-0.4h4.2Zm0,6h8a0.8,0.8,0,0,1,.1.4v2.9a0.6,0.6,0,0,1-.1.4H53.5a0.8,0.8,0,0,1-.1-0.4V48.4a0.6,0.6,0,0,1,.1-0.4h4.2Zm4.4,9.8h-5v4.9h5V57.8Zm21.5-8.5H81.4v5.2H91.7a0.8,0.8,0,0,1,.1.4v3.4a0.7,0.7,0,0,1-.1.4H81.4v9.7a0.6,0.6,0,0,1-.1.4H76.8a0.8,0.8,0,0,1-.1-0.4V58.6H68.1a0.8,0.8,0,0,1-.1-0.4V54.9a0.6,0.6,0,0,1,.1-0.4h8.8V49.3H69.6a0.8,0.8,0,0,1-.1-0.4V45.6a0.6,0.6,0,0,1,.1-0.4h7.3V40.6H69.2a0.4,0.4,0,0,1-.5-0.5V36.9a0.4,0.4,0,0,1,.5-0.5H79.9a40.8,40.8,0,0,0,2.8-6.3q0.4-1.2.6-2.4a24.5,24.5,0,0,1,4.1,1.4,0.8,0.8,0,0,1,.5.6,1.1,1.1,0,0,1-.4.8,3.4,3.4,0,0,0-.8,1.3q-1.1,2.5-2.3,4.6H91a0.8,0.8,0,0,1,.1.4v3.2a0.6,0.6,0,0,1-.1.4H81.4v4.7h8.1a0.8,0.8,0,0,1,.1.4v3.2a0.7,0.7,0,0,1-.1.4H83.6Zm-10-21.1H74l0.4,0.3a32.2,32.2,0,0,1,3.2,5.5v0.4a0.7,0.7,0,0,1-.5.5L74.3,36l-0.5.2a0.5,0.5,0,0,1-.3-0.4,28.1,28.1,0,0,0-3-5.7V29.7a0.7,0.7,0,0,1,.5-0.4Z" transform="translate(0 -0.7)"/><path class="cls-3" d="M102.5,30l5.6,0.8a1.1,1.1,0,0,1,1.1.9,5.4,5.4,0,0,1-.5,1.5,30.1,30.1,0,0,0-.6,5.4q-0.7,10.4-.7,17.3,0,3.7.8,4.6t3.3,0.9a17.4,17.4,0,0,0,7.9-2.2,29.6,29.6,0,0,0,7.9-6,14.6,14.6,0,0,0,1,4.3,3.4,3.4,0,0,1,.4,1.1,2.1,2.1,0,0,1-.9,1.4,25.2,25.2,0,0,1-8.7,5.2,24.2,24.2,0,0,1-8.3,1.5q-4.7,0-6.6-2.3t-1.8-6.8q0-4.2.6-19.4,0.1-2.3.1-3.1A21.2,21.2,0,0,0,102.5,30Z" transform="translate(0 -0.7)"/><path class="cls-3" d="M136.9,34.2a17.5,17.5,0,0,1,5.7,1.5,1,1,0,0,1,.7.8,3.6,3.6,0,0,1-.4,1.2,16.5,16.5,0,0,0-.4,4.4,59.6,59.6,0,0,0,.8,10.2q1.2,6.6,3.7,6.6a2.8,2.8,0,0,0,2.2-1.6,24.9,24.9,0,0,0,2.1-4.7,18.8,18.8,0,0,0,2.9,3.5,1.3,1.3,0,0,1,.5,1,2.2,2.2,0,0,1-.1.7,12.7,12.7,0,0,1-3.5,5.4,6.2,6.2,0,0,1-4.1,1.6q-3,0-5.4-3.4a19.9,19.9,0,0,1-3-8.3,78.7,78.7,0,0,1-1.1-13A27.5,27.5,0,0,0,136.9,34.2Zm22.9,6.3,3.5-2.1,0.5-.2,0.5,0.3a26.5,26.5,0,0,1,5.8,7.4,27.3,27.3,0,0,1,3,7.9v0.3a0.9,0.9,0,0,1-.5.7,16.6,16.6,0,0,1-3.5,1.8h-0.4a0.6,0.6,0,0,1-.5-0.6,35.8,35.8,0,0,0-3.3-9A30.2,30.2,0,0,0,159.9,40.5Z" transform="translate(0 -0.7)"/><path class="cls-3" d="M177.2,32.7q4.3,0.3,9.1.3h19.2a11,11,0,0,0,3.1-.3l0.9-.3a1.5,1.5,0,0,1,1,.6,23.4,23.4,0,0,1,2.7,2.8,1.3,1.3,0,0,1,.4.8,1.2,1.2,0,0,1-.6.9,5.9,5.9,0,0,0-1.2,1.3,37.4,37.4,0,0,1-7.9,8.7,1.3,1.3,0,0,1-.9.4,1.7,1.7,0,0,1-1.1-.4,10.8,10.8,0,0,0-3.7-1.9,46.7,46.7,0,0,0,4.8-4,26.4,26.4,0,0,0,3.3-3.9H186.7l-7.9.4a0.7,0.7,0,0,1-.8-0.7A42.9,42.9,0,0,1,177.2,32.7Zm2.7,31.2a26.1,26.1,0,0,0,6.1-4.2,17.9,17.9,0,0,0,3.3-4.4,22.5,22.5,0,0,0,2.2-10.6,18.8,18.8,0,0,0-.4-4.2,42,42,0,0,1,5.8.9,0.8,0.8,0,0,1,.8.9,1.8,1.8,0,0,1-.2.8,4.6,4.6,0,0,0-.4,1.8q-0.2,7.7-2.6,12.3a23,23,0,0,1-8.1,8.9,2.4,2.4,0,0,1-1.3.4,1.3,1.3,0,0,1-.9-0.4A13.1,13.1,0,0,0,179.8,63.9Z" transform="translate(0 -0.7)"/><path class="cls-3" d="M236.4,36.7l8.1-.2a4.4,4.4,0,0,0,2.3-.5l0.6-.2L248,36a20.3,20.3,0,0,1,3,2.4,1.4,1.4,0,0,1,.6,1,1.3,1.3,0,0,1-.5.9,5.6,5.6,0,0,0-1.5,1.9,62.8,62.8,0,0,1-8.9,13.8,57.7,57.7,0,0,1-7.1,6.7,47.5,47.5,0,0,1-6.5,4.5l-0.7.2a1.6,1.6,0,0,1-1-.5,12,12,0,0,0-4.3-2.1,68,68,0,0,0,8.9-5.7,55.9,55.9,0,0,0,6-5.7,46.1,46.1,0,0,0,4.7-6.1,59.1,59.1,0,0,0,3.6-6.6l-10.9.3a66.9,66.9,0,0,1-8.5,9.2,1.3,1.3,0,0,1-.9.5l-0.7-.3a11.3,11.3,0,0,0-4.3-1.9,56,56,0,0,0,12.1-13.3,22.5,22.5,0,0,0,2.6-6.1,23.1,23.1,0,0,1,5.2,2.4,0.9,0.9,0,0,1,.5.8,0.9,0.9,0,0,1-.5.8l-1.1,1.2Z" transform="translate(0 -0.7)"/><path class="cls-3" d="M268.7,43.3V39a42.2,42.2,0,0,0-.6-7.9,31.4,31.4,0,0,1,5.8.9,0.9,0.9,0,0,1,.9.8,1.3,1.3,0,0,1-.3.7,9.3,9.3,0,0,0-.6,4v4.6l11.7-2.7a8.3,8.3,0,0,0,3.2-1.3l0.6-.3,0.6,0.3a15.3,15.3,0,0,1,3.3,2.9,1.2,1.2,0,0,1,.4.8,1.2,1.2,0,0,1-.6.9,7.3,7.3,0,0,0-1.4,1.8,48.2,48.2,0,0,1-7.1,9.7,1.8,1.8,0,0,1-1.2.7l-0.9-.3a15.4,15.4,0,0,0-3.7-1.7,38.5,38.5,0,0,0,7.3-9L274,46.9V57.1a2.6,2.6,0,0,0,1.2,2.6,11.2,11.2,0,0,0,4.5.6,62.6,62.6,0,0,0,10.9-1h0.2q0.5,0,.6.9a21.5,21.5,0,0,1,.4,3.8q0,0.6-.9.7a92.1,92.1,0,0,1-10.7.5q-6.8,0-9.2-1.9t-2.1-6v-9l-2.9.8a49.2,49.2,0,0,0-6.3,1.9l-0.5.2a1,1,0,0,1-.7-0.7,33.5,33.5,0,0,1-1.8-4.6,71.8,71.8,0,0,0,8.4-1.6Z" transform="translate(0 -0.7)"/><path class="cls-3" d="M325.4,48.9a109.2,109.2,0,0,1,12.4,10.8,1,1,0,0,1,.3.6,1.1,1.1,0,0,1-.3.7,23.9,23.9,0,0,1-3,3.1l-0.5.3-0.6-.4a81.3,81.3,0,0,0-11.6-11.1A64.9,64.9,0,0,1,307,64.7l-1,.3a1,1,0,0,1-.8-0.4,12.4,12.4,0,0,0-3.8-2.9,62.2,62.2,0,0,0,9.3-5.6,57.7,57.7,0,0,0,6.5-5.8,57.7,57.7,0,0,0,8.4-11.2H314.1l-7.1.3q-0.4,0-.6-0.8A21.5,21.5,0,0,1,306,34l7.6,0.2h12.3a7.4,7.4,0,0,0,3.1-.4l0.5-.2,0.8,0.4a15.9,15.9,0,0,1,2.9,3.1,1.3,1.3,0,0,1,.2.6,1.2,1.2,0,0,1-.6.9,8.6,8.6,0,0,0-1.6,2A77.8,77.8,0,0,1,325.4,48.9Z" transform="translate(0 -0.7)"/><path class="cls-3" d="M346.5,37.2l2.1,0.4a0.7,0.7,0,0,1,.7.5v0.2a39.1,39.1,0,0,1-1.5,9.8,0.4,0.4,0,0,1-.3.4l-0.5-.2-2.2-.9a0.7,0.7,0,0,1-.5-0.6V46.5a36.7,36.7,0,0,0,1.4-9.1c0-.2.1-0.4,0.2-0.4h0.5Zm3.5-9.4,4.6,0.3q0.7,0.1.7,0.5a2.4,2.4,0,0,1-.2.9,20.2,20.2,0,0,0-.3,5V68.3a0.8,0.8,0,0,1-.1.5h-4.5a0.9,0.9,0,0,1-.1-0.4V34.5A50.5,50.5,0,0,0,350,27.8Zm7.1,7.9h0.4a0.5,0.5,0,0,1,.4.4,31.6,31.6,0,0,1,1.8,5.3v0.3a0.7,0.7,0,0,1-.5.5l-1.9.7h-0.5q-0.2,0-.3-0.4a34.3,34.3,0,0,0-1.7-5.4V36.7a0.6,0.6,0,0,1,.5-0.4Zm8.2,10.2h-6.5a0.9,0.9,0,0,1-.1-0.4V42.9a0.5,0.5,0,0,1,.1-0.4h10.2V40.5h-8.3a0.9,0.9,0,0,1-.1-0.4V37.8a0.5,0.5,0,0,1,.1-0.4h8.3v-2h-9.3a0.8,0.8,0,0,1-.1-0.4V32.5a0.7,0.7,0,0,1,.1-0.5h9.3q0-2.2-.3-4.4l4.4,0.3q0.7,0.1.7,0.4a2,2,0,0,1-.1.7l-0.2.5a10.8,10.8,0,0,0-.2,2.5h10.6a0.7,0.7,0,0,1,.1.4v2.4a0.5,0.5,0,0,1-.1.4H373.4v2h9.1a0.8,0.8,0,0,1,.1.4V40a0.8,0.8,0,0,1-.1.5h-9.1v2.1h12a0.8,0.8,0,0,1,.1.4v2.6a0.7,0.7,0,0,1-.1.5H365.3Zm7.6,18.5h3a1.7,1.7,0,0,0,1.3-.4,1.5,1.5,0,0,0,.3-1V61.4H365.4v6.9a0.6,0.6,0,0,1-.1.5H361a0.9,0.9,0,0,1-.1-0.4V48.3a0.7,0.7,0,0,1,.1-0.5h20.9a0.9,0.9,0,0,1,.1.4V63.7q0,2.7-1.2,3.8t-5.1,1.1h-0.5a1,1,0,0,1-.9-0.3,3.9,3.9,0,0,1-.3-1.1A9.7,9.7,0,0,0,372.9,64.4Zm4.6-13.2H365.4v2.1h12.1V51.2Zm-12.1,7.3h12.1V56.3H365.4v2.2Z" transform="translate(0 -0.7)"/><path class="cls-3" d="M399.7,40h2.3V36.4h-6.5a0.8,0.8,0,0,1-.1-0.4V33.2a0.4,0.4,0,0,1,.5-0.5h6.1a29.7,29.7,0,0,0-.3-4.9l4.4,0.3q0.7,0.1.7,0.5a2.1,2.1,0,0,1-.3.8,5.4,5.4,0,0,0-.3,2.2v1.2H412a0.4,0.4,0,0,1,.5.5V36a0.4,0.4,0,0,1-.5.5h-5.8V40h7.3a0.9,0.9,0,0,1,.1.4v2.8a0.6,0.6,0,0,1-.1.4H393.9a0.8,0.8,0,0,1-.1-0.4V40.4a0.7,0.7,0,0,1,.1-0.5h5.7Zm0.8,17.2h1.5V53.5h-8a0.9,0.9,0,0,1-.1-0.4V50.3a0.6,0.6,0,0,1,.1-0.4h10.9q0.8-2,1.4-3.9a16.9,16.9,0,0,0,.5-2.1l3.8,0.9a0.7,0.7,0,0,1,.6.5,0.7,0.7,0,0,1-.3.5,2,2,0,0,0-.6.8q-0.8,1.9-1.4,3.3h4.7a0.8,0.8,0,0,1,.1.4v2.8a0.8,0.8,0,0,1-.1.5h-7.4v3.7h6.5a0.7,0.7,0,0,1,.1.4v2.8a0.7,0.7,0,0,1-.1.4h-6.5v7.6a0.6,0.6,0,0,1-.1.4h-4.3a0.8,0.8,0,0,1-.1-0.4V60.8h-6.8a0.8,0.8,0,0,1-.1-0.4V57.6a0.6,0.6,0,0,1,.1-0.4h5.3Zm-3.3-11.7V45.1a0.6,0.6,0,0,1,.5-0.3L400,44h0.4a0.5,0.5,0,0,1,.4.4,23.2,23.2,0,0,1,1.5,3.9v0.4a0.6,0.6,0,0,1-.5.4l-2.5.7H399a0.5,0.5,0,0,1-.3-0.4A27.3,27.3,0,0,0,397.2,45.5Zm38,19.1a10.4,10.4,0,0,0-1.7,3,1.5,1.5,0,0,1-.7,1l-0.9-.5a39.5,39.5,0,0,1-5.4-4.9,39.4,39.4,0,0,1-3.8,4.5l-0.9.6a1.7,1.7,0,0,1-.8-0.9,11.1,11.1,0,0,0-1.9-2.6q0,1.3.1,2.6v0.9a0.4,0.4,0,0,1-.5.4h-3.9a0.6,0.6,0,0,1-.1-0.3V30.2a0.5,0.5,0,0,1,.1-0.4h18.3a0.5,0.5,0,0,1,.6.5h0q-0.1.5-.1,1.2v1q-0.3,5.2-1,6.7a3.9,3.9,0,0,1-1.9,1.9,7.9,7.9,0,0,1-3,.5h-2.4l-1-.2a2.3,2.3,0,0,1-.3-0.9,14.8,14.8,0,0,0-.7-2.9l3.5,0.3a2.4,2.4,0,0,0,1.3-.3,1.6,1.6,0,0,0,.5-0.9,9.6,9.6,0,0,0,.3-2.8h-9.9V44h9.6l1.3-.2,0.7-.2a3.6,3.6,0,0,1,1.7,1.2,4.1,4.1,0,0,1,1.2,1.8,1.3,1.3,0,0,1-.3.8,3.8,3.8,0,0,0-.8,1.7,41.8,41.8,0,0,1-3.7,10.3A30.9,30.9,0,0,0,435.1,64.6Zm-16.2.1a30.3,30.3,0,0,0,4.7-5.1,33.2,33.2,0,0,1-4.4-11.6h-0.3V64.8Zm9.5-16.7H423a29.7,29.7,0,0,0,3,7.7A37.3,37.3,0,0,0,428.4,48.1Z" transform="translate(0 -0.7)"/><path class="cls-3" d="M449.1,39a23.5,23.5,0,0,1,4,1.3,0.8,0.8,0,0,1,.5.7,1.9,1.9,0,0,1-.2.8,8.1,8.1,0,0,0-.6,1.9A63.9,63.9,0,0,0,451,56.5q0,3,.1,4.5l1.2-2.6,1-2.3a10.4,10.4,0,0,0,1.2,2.2,0.8,0.8,0,0,1,.2.5,1.1,1.1,0,0,1-.2.6,21.6,21.6,0,0,0-1.8,5.3,6.5,6.5,0,0,0,0,1.9h0a0.5,0.5,0,0,1-.4.4l-2.6.6h-0.3a0.6,0.6,0,0,1-.4-0.5q-1.5-3.8-1.5-10.7a91.4,91.4,0,0,1,1.4-13.4,23.9,23.9,0,0,0,.3-3.2A8.6,8.6,0,0,0,449.1,39Zm16.3,18.7q-0.1-2.9-.1-8.1H458a0.5,0.5,0,0,1-.6-0.5,18.7,18.7,0,0,1-.3-3.2l4.7,0.2h3.3V42.4a15.7,15.7,0,0,0-.5-3.4,23,23,0,0,1,4.3.7,0.7,0.7,0,0,1,.6.6l-0.2.6A4.1,4.1,0,0,0,469,42q-0.1,1.2-.1,3.7l5-.6h0.2a0.4,0.4,0,0,1,.3.4,12.4,12.4,0,0,1,.2,2.5,0.5,0.5,0,0,1-.4.5,35,35,0,0,1-5.4.7q0,5.2.3,9.4a23.8,23.8,0,0,1,5.8,3.4,0.5,0.5,0,0,1,.3.4v0.3a20.3,20.3,0,0,1-1.6,2.7l-0.3.2-0.3-.2a21.6,21.6,0,0,0-3.8-2.8q-0.4,4.6-6.4,4.6a7.1,7.1,0,0,1-4.9-1.5,4.7,4.7,0,0,1,.5-7.2,7,7,0,0,1,4.2-1.2Zm0.1,3.4a10,10,0,0,0-3.1-.5q-2.6,0-2.6,1.7t2.9,1.8a3.1,3.1,0,0,0,2.2-.8,2,2,0,0,0,.7-1.5A5.8,5.8,0,0,0,465.4,61.1Z" transform="translate(0 -0.7)"/><path class="cls-3" d="M487.9,54.2l2.7,1.4a0.4,0.4,0,0,1,.3.3v0.3a4.9,4.9,0,0,0-.9,2.7q0,1.8,2.2,2.6a19.4,19.4,0,0,0,6.2.7,44.7,44.7,0,0,0,9.5-1h0.3a0.4,0.4,0,0,1,.4.4A19.8,19.8,0,0,1,509,65h0a0.6,0.6,0,0,1-.6.5,59,59,0,0,1-10.5.8q-6.3,0-9.3-2.1a5.8,5.8,0,0,1-2.6-5A9.7,9.7,0,0,1,487.9,54.2Zm0.8-13.3a44.1,44.1,0,0,0,9.9.9l7.5-.3h0.1a0.4,0.4,0,0,1,.4.4,23.7,23.7,0,0,1,.2,3,0.6,0.6,0,0,1-.6.7,22.1,22.1,0,0,0-8.6,3.5,1.5,1.5,0,0,1-.9.3l-0.7-.2a8.4,8.4,0,0,0-2.5-1.1l4.6-2.9h-2.9a35.1,35.1,0,0,1-6.2-.6,0.6,0.6,0,0,1-.5-0.6Q488.5,43.5,488.7,40.9Z" transform="translate(0 -0.7)"/><path class="cls-3" d="M525,44.5q0.2-1,.4-3.2t0.1-1.7a9.7,9.7,0,0,0-.2-1.8,23.9,23.9,0,0,1,4.2.7,0.8,0.8,0,0,1,.7.6,1,1,0,0,1-.2.6,2.8,2.8,0,0,0-.6,1.3L529,44a55.9,55.9,0,0,0,6.6-1.3H536a0.4,0.4,0,0,1,.4.4,15.5,15.5,0,0,1,.2,2.6,0.5,0.5,0,0,1-.4.6q-4.6,1-7.9,1.4-0.7,4.2-1.6,7.8a14.9,14.9,0,0,1,10.1-3.7,8.1,8.1,0,0,1,5.9,2.2,6,6,0,0,1,1.9,4.4,8,8,0,0,1-4,7.1q-2.9,1.9-9,2.8l-2.6.2a1.1,1.1,0,0,1-.9-0.8,7.3,7.3,0,0,0-1.9-2.5,45.6,45.6,0,0,0,6.2-.7,23.2,23.2,0,0,0,3.9-1.2q4-1.7,4-5a3.1,3.1,0,0,0-1.1-2.5,4.5,4.5,0,0,0-2.9-.9,12.1,12.1,0,0,0-5.6,1.4,10.7,10.7,0,0,0-3.6,3l-1,1.3a0.9,0.9,0,0,1-.6.5h-0.1a8.5,8.5,0,0,1-2.6-.8,1,1,0,0,1-.8-0.7,2.3,2.3,0,0,1,.1-0.7l0.5-1.7q0.9-3.7,1.9-9.2l-5.9.3a0.6,0.6,0,0,1-.7-0.5,27.2,27.2,0,0,1-.5-3.1Z" transform="translate(0 -0.7)"/><path class="cls-3" d="M556.4,45.4a21,21,0,0,1,3.7,1.3,0.8,0.8,0,0,1,.6.7,1.1,1.1,0,0,1-.2.5,6.7,6.7,0,0,0-.7,1.9,54,54,0,0,0-.9,6.4,20.1,20.1,0,0,1,5.9-4.2,14,14,0,0,1,5.9-1.4A8.3,8.3,0,0,1,577,53a7.2,7.2,0,0,1,1.9,5.2q0,5.2-5.3,7.9a28.2,28.2,0,0,1-9,2.4H564a1,1,0,0,1-.9-0.5,9.6,9.6,0,0,0-2.4-3,28.3,28.3,0,0,0,9.7-2q4.2-1.8,4.2-5.3a3.4,3.4,0,0,0-1.1-2.7,4.6,4.6,0,0,0-3.1-1,11,11,0,0,0-5.3,1.6,21.8,21.8,0,0,0-4.8,3.7,10.7,10.7,0,0,0-1.5,1.9,0.5,0.5,0,0,1-.4.3h-0.4l-2.4-.9A0.7,0.7,0,0,1,555,60q0.3-5.3,1.1-11.4A29.6,29.6,0,0,0,556.4,45.4Zm2.5-4.9a19.9,19.9,0,0,1,2.1-2.7l0.4-.2h0.2a23.9,23.9,0,0,1,6.9,4.2,0.6,0.6,0,0,1,.2.4l-0.2.4a19.5,19.5,0,0,1-1.8,2.5l-0.4.3-0.4-.2A27.9,27.9,0,0,0,558.9,40.6Z" transform="translate(0 -0.7)"/></g></g></svg>