<?xml version="1.0" encoding="utf-8"?>
<!-- Generator: Adobe Illustrator 22.0.1, SVG Export Plug-In . SVG Version: 6.00 Build 0)  -->
<svg version="1.1" id="レイヤー_4" xmlns="http://www.w3.org/2000/svg" xmlns:xlink="http://www.w3.org/1999/xlink" x="0px"
	 y="0px" viewBox="0 0 984 174" style="enable-background:new 0 0 984 174;" xml:space="preserve">
<style type="text/css">
	.st0{fill:#FFFFFF;}
	.st1{fill:#2A5F87;}
	.st2{fill:#0068B7;}
	.st3{enable-background:new    ;}
</style>
<g id="hc_link_btn">
	<rect id="ffffff" x="234" class="st0" width="750" height="174"/>
	<path id="_2a5f87" class="st1" d="M264,57h-30v81l30-12V57z"/>
	<rect id="_0068b7" y="45" class="st2" width="264" height="81"/>
	<g class="st3">
		<path class="st0" d="M88.6,67.6v29.5c0,3.5-1.2,5-7.8,4.7c-0.2-1.3-1-3.8-1.6-5c0.6,0.1,1.4,0.2,2.5,0.2c1.5,0,2-0.1,2-1.8V71.8
			H60.3v30.1h-5V67.6H88.6z M81.9,74.4v3.9H62v-3.9H81.9z M80.2,81.3v13.6H68.3V97h-4.5V81.3H80.2z M68.3,85.2v5.5h7.4v-5.5H68.3z"
			/>
		<path class="st0" d="M106,69.4v26.2h-4.4v-1.5h-3.2v3.2h-4.4V69.4H106z M101.6,79.5v-6h-3.2v6H101.6z M98.5,83.7V90h3.2v-6.3H98.5
			z M124.6,82.5c0.5,0,0.7,0.2,0.7,0.4c0,0.4-0.5,0.6-0.7,0.7v2.3h4v4.2h-4v7.5c0,3.5-1.8,4.7-8.1,4.4c-0.2-2.1-0.6-3.4-1.7-5
			c0.8,0.2,3,0.4,3.5,0.4c1.1,0,1.4-0.3,1.4-1.6v-5.7h-7.9c0.5,0.5,2.8,2.8,4.3,5c-1.1,0.9-1.6,1.3-3.7,3.2
			c-0.4-0.6-2.5-3.8-4.6-5.7l3-2.5h-3.3v-4.2h12.2v-3.6H107v-4.3h7.9v-3.2h-6.9v-4.3h6.9v-4.4l5.4,0.2c0.3,0,0.6,0.2,0.6,0.5
			c0,0.4-0.5,0.5-1,0.7v3h7.6v4.3h-7.6v3.2h9v4.3h-6.2L124.6,82.5z"/>
		<path class="st0" d="M148.7,67.2V80h-10.8v21.8h-4.7V67.2H148.7z M144.3,72.2v-1.6h-6.4v1.6H144.3z M137.8,74.9v1.7h6.4v-1.7
			H137.8z M156.1,88.4h4.3v3.7h-4.3v8.7h-4.2v-8.7h-3.5c-1.2,5.8-4.5,8.4-6,9.4c-1.3-1.6-1.8-1.8-3.7-2.6c2.6-1.5,4.8-3.2,5.5-6.8
			h-4.4v-3.7h4.8c0-1.8,0-2.4,0-2.9h-3.8V82h18.8v3.5h-3.5V88.4z M151.9,85.5h-3.2c0,0.9,0,1.8,0,2.9h3.2V85.5z M166.8,67.2v29.9
			c0,4.5-3,4.9-7.1,4.8c-0.3-2.1-1.1-3.7-1.8-4.8c0.5,0.1,1.5,0.3,2.4,0.3c0.9,0,1.9-0.2,1.9-1.6V80h-11V67.2H166.8z M162.2,72.2
			v-1.7h-6.5v1.7H162.2z M155.7,74.9v1.7h6.5v-1.7H155.7z"/>
		<path class="st0" d="M206.4,80.6v3.5h-8.5v2.1h7v3.5h-7v2.1h7v3.5h-7v2.1h8.9v3.6h-18.6v0.9h-4.6V87.5c-0.5,0.5-0.7,0.7-1.1,1.1
			c-0.4-0.7-1.1-1.8-2.6-2.9v16.2H175V82c-0.9,1.2-1.5,2-2,2.5c-1.3-1.9-1.9-2.5-3.4-3.4c2.3-2.8,6.3-7.8,8.5-15.4l4.6,1.5
			c0.4,0.1,0.5,0.4,0.5,0.6c0,0.4-0.3,0.5-0.9,0.7c-0.9,1.9-2.2,4.8-2.6,5.7c0.8,0.3,0.9,0.4,0.9,0.6c0,0.4-0.2,0.4-0.9,0.8v9.2
			c1.1-1,4.4-4.5,6.6-8.6h-2.9v-9.3l4.6,0.2c0.4,0,0.7,0.1,0.7,0.5c0,0.4-0.2,0.5-0.9,0.9v4.1h4.1v-6.6l4.9,0.3
			c0.2,0,0.7,0.1,0.7,0.5c0,0.5-0.6,0.7-1,0.7v5.1h4.3V67l4.8,0.3c0.4,0,0.8,0,0.8,0.4s-0.2,0.5-1,0.8v7.6h-9l2.8,1.5
			c0.3,0.2,0.5,0.4,0.5,0.6c0,0.4-0.1,0.4-1.1,0.6c-0.2,0.3-0.9,1.4-1,1.6H206.4z M188.1,84.1v2.1h5.2v-2.1H188.1z M188.1,89.7v2.1
			h5.2v-2.1H188.1z M188.1,95.3v2.1h5.2v-2.1H188.1z M192.3,80.6c0.8-1.2,1.8-2.9,2.4-4.4h-6.3l2.2,1.1c0.4,0.2,0.5,0.4,0.5,0.6
			c0,0.4-0.2,0.4-1.1,0.5c-0.4,0.7-0.7,1.3-1.2,2.1H192.3z"/>
	</g>
</g>
<g>
	<g>
		<g>
			<polygon points="376.9,121.1 376.9,97.9 358.1,97.9 358.1,121.1 347.3,121.1 347.3,65.6 358.1,65.6 358.1,88.6 376.9,88.6 
				376.9,65.6 387.7,65.6 387.7,121.1 			"/>
			<path d="M404.4,121.1c-4.1,0-7.3-0.8-9.6-3.1c-3.3-3.3-4.1-7.1-4.1-11.5V80h10.1v25.1c0,5.5,3.5,7.3,6.7,7.3h6.8V80h10.1v41.1
				C424.5,121.1,408.2,121.1,404.4,121.1"/>
			<path d="M474.7,121.1V95.9c0-5.5-3.5-7.4-6.7-7.4c-3.1,0-6.8,1.9-6.8,7.2v25.4H451V96.5c0-5.5-3.5-8-6.7-8c-3.2,0-6.8,0-6.8,0
				v32.5h-10.1V80c0,0,16.3,0,20.1,0c4.5,0,8.2,1.6,10.8,5.1c3.4-3.6,7.1-5.1,12.2-5.1c4.1,0,7.7,1.3,10,3.6
				c3.3,3.3,4.4,7.1,4.4,11.5v26H474.7z"/>
			<path d="M357.2,131.3l0.1,0.2c0,0.2-0.2,0.2-0.3,0.2l-0.2,0c-3.4,2-6.5,2.5-7.2,2.6v2.2c0,1.1,0.3,1.1,2.4,1.1
				c2.3,0,3.9-0.1,5.5-0.3c-0.2,0.8-0.3,1.3-0.3,2.2c-0.9,0-4.6,0.1-5.4,0.1c-2.9,0-4.5,0-4.5-2.7v-9.2l2.4,0.1c0.1,0,0.2,0,0.2,0.2
				c0,0.1-0.1,0.2-0.3,0.3v3.9c1.7-0.3,4.4-1.3,5.8-2.4L357.2,131.3z"/>
			<polygon points="371.7,137.3 371.7,139.2 362,139.2 362,137.3 366.9,137.3 367.6,133.3 363.6,133.3 363.6,131.4 370.1,131.4 
				369.1,137.3 			"/>
			<rect x="376.1" y="132.7" width="12.1" height="2.4"/>
			<path d="M396.8,132.9c0.8,0.6,1.3,1,1.9,1.6c1.6-1.5,2.4-2.5,2.7-2.9H393v-2.1h9.9c0.3,0,0.7-0.1,1-0.2l1.4,1.6
				c-0.4,0.3-0.5,0.5-0.7,0.7c-1.5,1.8-2.6,2.9-4.3,4.5c0.3,0.3,0.8,1,1.3,1.6c-0.5,0.4-1.3,1.2-1.8,1.6c-0.5-0.9-1.4-2.5-4.4-4.9
				L396.8,132.9z"/>
			<path d="M412.3,127.9c2.3,1.2,3.1,1.9,3.5,2.3c-0.3,0.4-0.4,0.6-1.4,1.9c-1.5-1.3-2.8-1.9-3.5-2.2L412.3,127.9z M411.2,137.5
				c4-0.8,7.9-3.5,10.4-7.5c0.6,0.9,0.8,1.3,1.4,1.9c-0.8,1.2-2.1,3-4.3,4.7c-1.3,1-3.5,2.3-5.8,3.1c0,0.2-0.1,0.3-0.2,0.3
				c-0.1,0-0.1,0-0.2-0.2L411.2,137.5z"/>
			<path d="M432.1,127.9l2.2-0.3c0.1,0,0.3,0,0.3,0.1c0,0.1-0.1,0.2-0.2,0.3l0.3,1.8l3.1-0.4l0.2,2l-3.1,0.4l0.2,1.5l4.6-0.6
				l0.2,2.1l-4.6,0.6l0.6,4.4l-2.2,0.4l-0.7-4.5l-4.9,0.6l-0.2-2.1l4.8-0.6l-0.2-1.4l-3.4,0.4l-0.2-2.1l3.4-0.4L432.1,127.9z"/>
			<path d="M447.2,130.1l1.9-0.2c0.1,0,0.3,0,0.3,0.1l-0.2,0.3l0.4,2l3.4-0.7c0.2,0,0.5-0.2,0.6-0.4l1.4,1c-0.6,0.7-1.4,2.1-2.3,3.9
				c-0.6-0.4-1.6-0.8-1.8-0.9c0.5-0.7,0.7-0.9,1-1.6l-1.9,0.4l1.1,5.4l-1.9,0.4l-1.1-5.4l-2.8,0.6l-0.5-1.9l3-0.6L447.2,130.1z"/>
			<path d="M470.8,131.4l0.1,0.2c0,0.2-0.2,0.2-0.2,0.2c-0.1,0-0.1,0-0.3,0c-1.2,0.7-3.6,2-7.2,2.6v2.3c0,0.7,0,1,2.1,1
				c1.5,0,4.2-0.1,5.7-0.3c-0.2,0.9-0.3,2.1-0.3,2.2c-1,0-2.5,0-3.6,0c-5,0-6.2,0-6.2-2.6v-9.2l2.3,0.1c0.2,0,0.3,0.1,0.3,0.2
				c0,0.2-0.2,0.2-0.3,0.3v3.9c1.5-0.3,4.1-1.2,5.7-2.4L470.8,131.4z M472.4,128.7c0,0.7-0.6,1.3-1.3,1.3c-0.7,0-1.3-0.6-1.3-1.3
				c0-0.7,0.6-1.3,1.3-1.3C471.8,127.3,472.4,127.9,472.4,128.7 M470.5,128.7c0,0.3,0.3,0.6,0.6,0.6c0.4,0,0.6-0.3,0.6-0.6
				c0-0.3-0.3-0.6-0.6-0.6C470.8,128,470.5,128.3,470.5,128.7"/>
			<path d="M482.3,132.4c1,0.5,1.6,0.9,2.2,1.3c0.6-1,0.9-1.7,1-2.1h-3.3c-0.9,1.2-1.8,2.3-2.9,3.1c-0.9-0.8-1-0.9-1.8-1.5
				c2-1.3,3.5-3.3,4.6-5.9l2.2,0.7c0.2,0.1,0.3,0.1,0.3,0.2c0,0.1-0.1,0.2-0.3,0.2c-0.2,0.5-0.4,0.8-0.7,1.2h3c0.5,0,0.7-0.1,1-0.1
				l1,0.9c-0.2,0.4-0.2,0.4-0.3,0.6c-0.9,2.1-1.2,2.9-2,4.1c0.8,0.7,1,1,1.2,1.3c-0.4,0.5-1.1,1.5-1.4,1.8c-0.3-0.4-0.6-0.8-1.2-1.4
				c-1.9,2-4,2.9-5.1,3.4c-0.4-0.7-1-1.3-1.5-1.9c1.8-0.5,4-1.8,5-2.9c-0.9-0.7-1.7-1.2-2.3-1.5L482.3,132.4z"/>
			<path d="M498.9,128.5c0.1,0,0.3,0,0.3,0.2c0,0.2-0.2,0.2-0.2,0.3v3.4c0,3.7-1.8,5.2-3.5,6.7c-0.6-0.7-1-1-1.9-1.5
				c1.4-0.9,2-1.8,2.3-2.2c0.2-0.3,0.7-1.1,0.7-2.9v-4.1L498.9,128.5z M502.5,128.4c0.2,0,0.3,0,0.3,0.2c0,0.1-0.1,0.2-0.3,0.2v6.8
				c1.7-1.1,3.1-2.9,3.6-3.7c0.3,0.8,0.5,1.3,1.1,2.1c-0.8,1-2.6,2.9-3.9,3.9c-0.6,0.4-1.1,0.8-1.6,1.3l-1.5-1
				c0-0.4,0.1-0.7,0.1-1.1v-8.8L502.5,128.4z"/>
			<path d="M548.1,121.1V95.9c0-5.5-3.5-7.4-6.7-7.4c-3.2,0-6.8,0-6.8,0v32.6h-10.1V80h20.1c4.1,0,7.3,1.3,9.6,3.6
				c3.3,3.3,4.1,7.1,4.1,11.5v26H548.1z"/>
			<path d="M501.5,121.1c-4.6,0-8-0.8-10.4-3.2c-2.2-2.3-3.4-5.5-3.4-9.1c0-6.5,4.5-11.8,13.9-11.8h9.6v-2c0-4.4-2.2-6.4-7.6-6.4
				c-3.9,0-15.9,0-15.9,0c0-1.2,0-1.1,0-8.6H504c11.4,0,17.3,4.8,17.3,14.4v26.7L501.5,121.1z M511.2,104h-8c-3.7,0-5.7,1.7-5.7,4.6
				c0,2.8,1.9,3.9,5.9,3.9h7.9L511.2,104z"/>
			<path d="M625.8,121.1c-4.6,0-8-0.8-10.4-3.2c-2.2-2.3-3.4-5.5-3.4-9.1c0-6.5,4.4-11.8,13.9-11.8l9.6,0v-2c0-4.4-2.2-6.4-7.6-6.4
				c-3.9,0-15.9,0-15.9,0c0-1.2,0-1.1,0-8.6h16.3c11.4,0,17.3,4.8,17.3,14.4v26.7H625.8z M635.6,104h-8c-3.7,0-5.7,1.7-5.7,4.6
				c0,2.8,1.9,3.9,5.9,3.9h7.9L635.6,104z"/>
			<path d="M737.2,121.1c-4.6,0-8-0.8-10.4-3.2c-2.2-2.3-3.4-5.5-3.4-9.1c0-6.5,4.4-11.8,13.9-11.8h9.6v-2c0-4.4-2.2-6.4-7.6-6.4
				c-3.9,0-15.9,0-15.9,0c0-1.2,0-1.1,0-8.6h16.2c11.4,0,17.3,4.8,17.3,14.4v26.7H737.2z M746.9,104h-8c-3.7,0-5.7,1.7-5.7,4.6
				c0,2.8,1.9,3.9,5.9,3.9h7.9L746.9,104z"/>
			<path class="st2" d="M678.5,117.9c-2.3,2.3-5.9,3.2-9.9,3.2h-9.8v12h-10.1V80h20c4,0,7.7,1.4,9.9,3.7c4.1,4.1,4.1,11,4.1,17.1
				C682.7,106.8,682.6,113.9,678.5,117.9 M665.7,88.5c-2.5,0-6.8,0-6.8,0l0,23.9c0,0,4.5,0,6.9,0c6.1,0,6.9-5.1,6.9-11.7
				C672.5,94.1,671.7,88.5,665.7,88.5"/>
			<path d="M685.6,65.4H696v11.1h-10.4V65.4z M685.7,80h10.1v41.1h-10.1V80z"/>
			<path d="M715,121.1c-8.3,0-11.8-5.8-11.8-11.6v-21h-4.3V80h4.3V69.6h10.1V80h7.2v8.5h-7.2v20.4c0,2.3,1.1,3.7,3.5,3.7h3.7v8.6
				H715z"/>
			<polygon points="760,121.1 760,65.6 770.1,65.6 770.1,121.1 			"/>
			<path d="M589.2,111.8c-3,0-5.4-1.1-6.9-2.9c-2-2.2-2.6-7-2.7-15.8c0.1-8.9,0.8-13.2,2.7-15.4c1.6-1.8,4-2.9,6.9-2.9
				c5.5,0,20.1,0,20.1,0l0-9.3h-20.2c-6.1,0-11.1,1.8-15,5.7c-5.2,5.2-5.4,13.3-5.5,21.8V93v0.1c0,8.5,0.3,17.1,5.5,22.3
				c3.9,3.9,8.9,5.7,15,5.7h20.2l0-9.3C609.3,111.8,594.7,111.8,589.2,111.8"/>
			<path d="M812.4,116.3v4.6h-30.9v-10c0.1-6.7,0.1-7.2,6.1-11.2l19.5-13.1v-7.4c-0.1-4.1-0.1-5.7-1.4-7.1c-1.4-1.4-3.5-1.4-6.4-1.4
				h-5.3c-6.2,0.1-7.1,0.6-7.1,7.2v5.5h-5.1v-4.8c0-3.9,0-7.5,2.7-10.1c2.4-2.2,5.1-2.3,9.9-2.3h5.2c3.5,0,7.5,0.1,10,2.7
				c2.3,2.5,2.3,5.7,2.3,9.9v10.6l-21.3,14.1c-3,2.2-3.3,2.5-3.8,3.4c-0.6,1.1-0.6,2.4-0.6,5.5v4L812.4,116.3z"/>
			<path d="M835,66.1c4.3,0,7.9,0.1,10.5,2.6c2.4,2.4,2.4,4.9,2.4,10.8v28.3c0,5.3,0,8-2.1,10.4c-2.3,2.6-5.6,2.6-9.8,2.6h-7
				c-4.6-0.1-7.5-0.1-9.8-2.3c-2.4-2.3-2.4-5.2-2.5-9.6V77.8c0-3.4,0-7,2.8-9.5c2.2-2.1,4.7-2.2,9-2.2H835z M842.6,78.9
				c0-3.9,0-5.7-1.5-7c-1.4-1.2-3.3-1.2-7-1.3h-4.8c-2.4,0-4.5,0-5.9,1.4c-1.2,1.4-1.3,2.4-1.4,7.4v28.1c0,4.9,0.1,6.3,1.3,7.5
				c1.4,1.3,4.3,1.3,6.3,1.3h5.3c7.1-0.2,7.8-0.8,7.7-7.9V78.9z"/>
			<polygon points="862.9,120.9 857.7,120.9 857.6,70.8 852.3,70.8 852.3,65.8 862.9,65.9 			"/>
			<path d="M885.2,70.7c-4.7,0-7.6,0.6-8.8,1.9c-1.2,1.3-1.7,4.6-1.7,9.8c0,5.2,0.6,8.4,1.7,9.8c1.1,1.4,3.9,2.1,8.2,2.1
				c5.6,0,9.1-0.6,10.4-1.7c1.4-1.1,2-3.9,2-8.5c0-6.1-0.6-9.9-1.9-11.3C893.8,71.4,890.5,70.7,885.2,70.7 M869.7,106.7h4.6l0,1.6
				c0,3.4,0.6,5.5,1.9,6.4c1.3,0.9,4.3,1.3,9,1.3c5.4,0,8.7-0.7,9.9-2c1.2-1.4,1.8-5.1,1.8-11.2v-8.2h-0.1c-1.7,3.3-6,4.9-13,4.9
				c-5.5,0-9.2-1.1-11.1-3.3c-1.9-2.2-2.8-6.5-2.8-12.9c0-7.3,1-12.1,3-14.4c2-2.3,6.2-3.4,12.6-3.4c6.6,0,10.9,1.2,13.1,3.5
				c2.1,2.4,3.2,7.2,3.2,14.5l0.1,14.7l-0.1,5.6c0,7-1,11.6-3.1,13.9c-2.1,2.3-6.4,3.4-12.8,3.4c-6.4,0-10.7-0.8-12.9-2.5
				c-2.2-1.7-3.3-4.9-3.3-9.7C869.7,108.6,869.7,107.8,869.7,106.7"/>
		</g>
	</g>
	<g>
		<path d="M352.9,41.4c0.1,0,0.2,0.1,0.2,0.2c0,0.2-0.3,0.2-0.4,0.2c-0.2,0.3-1.4,1.8-2.6,3.1c0.2,0,0.9-0.1,1.4-0.1
			c-0.1-0.5-0.2-0.7-0.3-1l1.4-0.4c0.1,0.2,0.1,0.3,0.4,1c0.8-0.2,1.6-0.5,2.3-0.9c-0.4-0.4-0.8-0.8-1.3-1.7l1.1-0.7H353v-1.7h6.4
			l0.9,0.9c-0.5,1.1-1,2.1-2.1,3.2c0.9,0.5,1.8,0.8,2.8,1.1c-0.6,0.7-0.8,1.2-1,1.7c-0.4-0.1-0.9-0.3-1.7-0.7c0,0.2-0.1,0.2-0.3,0.3
			v1h2.3v1.8H358v1.4h2.9v1.9h-8.2v-1.9h3.3v-1.4h-2.2v-1.8h2.2v-1.6l2,0.1c-0.3-0.1-0.6-0.3-1.2-0.7c-1.1,0.8-2.4,1.2-2.8,1.4
			c-0.1-0.3-0.3-1-1-1.6c0.2,0.6,0.4,1.1,0.5,1.6c-0.3,0.1-1.5,0.3-1.7,0.4c0-0.2,0-0.3,0-0.5l-0.3,0v6.1h-1.9v-4.6
			c-0.1,0-0.2,0.1-0.2,0.1c-0.1,0.6-0.2,2.2-0.6,3.1c-0.3-0.2-0.6-0.3-1.6-0.5c0.4-0.9,0.6-2.3,0.8-3.4l1.5,0.2c0.1,0,0.1,0,0.2,0.1
			v-0.9c-0.2,0-1,0.1-1.2,0.2c-0.1,0.2-0.2,0.4-0.4,0.4c-0.1,0-0.2-0.2-0.2-0.3l-0.3-1.8c0.2,0,0.6,0,0.8,0c0.4-0.5,0.6-0.8,0.8-1
			c-0.8-0.7-1.5-1.1-2-1.4l1-1.7c0.1,0.1,0.2,0.2,0.3,0.2c0.1-0.2,0.7-1.1,1.1-2l1.7,0.8c0.1,0,0.1,0.1,0.1,0.2
			c0,0.1-0.1,0.2-0.4,0.2c-0.5,1-0.6,1.1-1.1,1.9c0.2,0.2,0.3,0.2,0.4,0.3c0.6-0.8,0.8-1.2,1-1.7L352.9,41.4z M353.1,46.7
			c0.1,0.6,0.3,2,0.6,2.7c-0.5,0.1-1,0.2-1.7,0.6c-0.4-1.2-0.5-1.6-0.7-2.9L353.1,46.7z M355.6,41.1c0.2,0.3,0.5,0.6,1,1.2
			c0.6-0.6,0.7-0.9,0.9-1.2H355.6z"/>
		<path d="M369.6,41.2c-0.4-0.6-0.7-1.1-1-1.4l1.7-0.9c0.4,0.4,0.9,1.1,1.3,1.8c-0.1,0.1-0.7,0.4-0.8,0.5h1.1
			c0.2-0.2,0.8-0.9,1.5-2.1l1.7,0.9c0.1,0,0.1,0.1,0.1,0.2c0,0.1-0.1,0.2-0.4,0.2c-0.3,0.4-0.4,0.7-0.5,0.8h2.8v3.5H375v-1.8h-8.5
			v1.8h-2.2v-3.5h2.1c-0.2-0.3-0.5-0.8-0.8-1.2l1.7-0.8c0.4,0.5,0.7,0.9,1.2,1.7c-0.1,0-0.3,0.2-0.5,0.3H369.6z M375.9,47.8v4.4
			h-2.1v-0.4h-6v0.4h-2.1v-4.4h3.5c0.1-0.2,0.3-0.6,0.3-0.7h-2.6v-3.7h7.6v3.7h-2.8c0,0.1-0.3,0.6-0.3,0.7H375.9z M373.8,50.3v-0.9
			h-6v0.9H373.8z M369,44.9v0.8h3.4v-0.8H369z"/>
		<path d="M385.8,45.7c0,1-0.8,1.8-1.8,1.8c-1,0-1.8-0.8-1.8-1.8c0-1,0.8-1.8,1.8-1.8C385,43.9,385.8,44.7,385.8,45.7z"/>
		<path d="M397.7,39.2c0.3,0,0.3,0.2,0.3,0.2c0,0.1,0,0.2-0.3,0.3c-0.1,4.5-0.2,7.8,5.6,10.7c-0.7,0.6-1.1,1-1.5,1.8
			c-1.1-0.5-1.9-1.1-2.9-2.1c-1-1-1.4-1.6-2.3-3c-0.2,0.5-0.5,1.4-2.1,2.9c-1,1-1.8,1.5-3,2.1c-0.8-1-1.2-1.3-1.8-1.7
			c3-1,4.4-3.1,4.9-4.4c0.7-1.7,0.8-3.3,0.8-7L397.7,39.2z"/>
		<path d="M419.2,46.8v1.3h-0.7v2.4h-2.1v-0.5h-2.6V51c0,0.7-0.2,1.2-2.3,1.2c-0.3,0-0.6,0-0.8,0c-0.1-0.6-0.4-1.3-0.7-1.8
			c0.4,0.1,1,0.1,1.2,0.1c0.4,0,0.4-0.1,0.4-0.4h-4.5v-1.4h4.5v-0.5h-5.5v-1.3h5.5v-0.5h-4.5v-1.3h4.5v-0.4H408v-2.9h3.6v-0.4h-5.5
			v-1.5h5.5v-0.8l2.2,0.1c0.1,0,0.2,0.1,0.2,0.2c0,0.1-0.1,0.2-0.3,0.3v0.2h5.4v1.5h-5.4v0.4h3.6v2.9h-3.6v0.4h4.8v1.7H419.2z
			 M411.6,43.5v-0.6h-1.8v0.6H411.6z M413.7,42.9v0.6h1.7v-0.6H413.7z M416.4,46.8v-0.5h-2.6v0.5H416.4z M416.4,48.6v-0.5h-2.6v0.5
			H416.4z"/>
		<path d="M429.2,45.7c0,1-0.8,1.8-1.8,1.8c-1,0-1.8-0.8-1.8-1.8c0-1,0.8-1.8,1.8-1.8C428.4,43.9,429.2,44.7,429.2,45.7z"/>
		<path d="M439.1,43.8h1.2v1.7h-1.2v2.3c0.7-0.2,1.2-0.3,1.7-0.4c-0.1,0.7-0.1,1-0.2,1.7c-0.9,0.4-3.6,1.1-4.3,1.3
			c0,0.1,0,0.4-0.3,0.4c-0.1,0-0.2-0.1-0.2-0.2l-0.6-2c0.4,0,0.8-0.1,1.9-0.3v-2.8h-1.3v-1.7h1.3v-2.3h-1.4v-1.8h5v1.8h-1.5V43.8z
			 M441.2,47.4v-8h6.7v8h-1.6v2.3c0,0.3,0.1,0.4,0.5,0.4c0.4,0,0.6,0,0.9-1.4c0.6,0.5,1,0.7,1.7,0.9c-0.2,0.8-0.4,1.4-0.5,1.5
			c-0.3,0.7-0.7,0.8-1.8,0.8c-1.8,0-2.6,0-2.6-1.6v-2.3c0,0.2-0.2,0.2-0.4,0.2c-0.5,1.2-1.5,3.4-4.5,4c-0.2-0.7-0.5-1.2-1.1-1.7
			c1.1-0.2,3.5-0.5,3.8-3.2H441.2z M444.2,47.8c0.1,0,0.2,0.1,0.2,0.2v-0.7h-1.8L444.2,47.8z M445.8,41.7V41h-2.6v0.6H445.8z
			 M443.2,43.1v0.6h2.6v-0.6H443.2z M443.2,45v0.6h2.6V45H443.2z"/>
		<path d="M458,48.2c-0.8,1-1.4,1.5-1.7,1.7c-0.7-0.7-1-0.8-1.3-1c0.3-0.2,0.5-0.4,0.8-0.6c-0.9,0.4-2,0.8-3.1,1.2
			c0,0.2-0.1,0.4-0.2,0.4c-0.1,0-0.2-0.2-0.2-0.3l-0.5-2c0.6-0.1,0.7-0.1,1.6-0.3V44h-1.5v-1.9h1.5v-3l2.1,0.1c0.2,0,0.3,0,0.3,0.2
			c0,0.1-0.1,0.2-0.3,0.3v2.4h1.3V44h-1.3v2.6c0.3-0.1,0.6-0.2,0.9-0.4h-0.1v-1.4h8.7v1.4h-5.6l-0.3,0.5h5.7c0,1.4,0,4.3-1,5.1
			c-0.5,0.4-1.5,0.5-2.4,0.5c0-0.3-0.1-0.9-0.4-1.5c-0.5,0.7-1,1.2-1.7,1.8c-0.4-0.4-0.6-0.5-1.5-0.9c1.3-1,2.2-1.9,3-3.3h-0.6
			c-1.4,2.5-3.2,3.5-3.8,3.8c-0.5-0.6-0.6-0.7-1.3-1.1c0.5-0.2,2.2-1,3.3-2.7H458z M456.7,46.2c-0.1,0.5-0.1,1-0.1,1.3
			c0.3-0.4,0.5-0.7,0.9-1.3H456.7z M463.9,44.3h-6.7v-5.1h6.7V44.3z M462,41.2v-0.5h-2.8v0.5H462z M459.2,42.4v0.5h2.8v-0.5H459.2z
			 M462.5,48.2c-0.3,0.6-0.6,1.1-1.1,2c0.2,0,0.3,0,0.5,0c0.3,0,0.5,0,0.6-0.4c0.1-0.3,0.2-0.9,0.3-1.7H462.5z"/>
		<path d="M474.5,49.8c3.1-0.6,4-3,4-4.5c0-1.2-0.6-3.3-3.3-3.5c-0.4,5.3-2.6,9.2-4.1,9.2c-1.1,0-3.2-1.9-3.2-4.5
			c0-3.1,2.8-6.7,7-6.7c3.1,0,5.9,2.1,5.9,5.6c0,0.7-0.1,2.5-1.7,4.4c-0.9,1-1.9,1.6-3.1,2.1C475.6,50.9,475.2,50.5,474.5,49.8z
			 M470.1,46.2c0,1.1,0.6,1.9,0.9,1.9c0.3,0,0.6-0.6,0.8-1c0.6-1.4,1.1-3.1,1.1-4.9C471.2,42.8,470.1,44.9,470.1,46.2z"/>
		<path d="M488.7,41.4v1.5h-5.1v-1.5H488.7z M493.6,52.3h-1.9v-2.8c-0.5,0.7-1.3,1.6-2.4,2.2c-0.2-0.3-0.4-0.5-0.8-0.8V52h-1.8v-0.4
			H486v0.6H484v-4.9h4.6V50c1-0.7,1.7-1.5,2.2-2.2h-2v-1.6h3v-0.6h-2.7v-6.1h7.3v6.1h-2.7v0.6h3.3v1.6h-2.6c1.3,1.5,1.9,1.9,3,2.6
			c-0.6,0.4-0.9,0.8-1.3,1.3c-1.1-0.7-1.7-1.3-2.4-2.2V52.3z M488.3,39.3v1.5h-4v-1.5H488.3z M488.3,43.3v1.5h-4v-1.5H488.3z
			 M488.3,45.4v1.4h-4v-1.4H488.3z M486,49v1h0.8v-1H486z M491.8,40.8h-0.9v0.9h0.9V40.8z M491.8,43.1h-0.9V44h0.9V43.1z
			 M493.6,41.7h0.9v-0.9h-0.9V41.7z M493.6,44h0.9v-0.9h-0.9V44z"/>
		<path d="M506.8,48.1v-6.6h1.4c0.1-0.1,0.2-0.5,0.3-0.6h-2.1v-1.5h6.7v1.5h-2.7c-0.1,0.1-0.2,0.5-0.3,0.6h2.6v6.6h-1.2
			c1,0.7,1.5,0.9,1.7,0.9c-0.5,0.4-0.9,0.9-0.9,1.1c0.3,0,0.8-0.1,1.1-0.1c-0.2,0.3-0.5,0.8-0.7,2c-1.2,0-3.1,0-4.3,0
			c-2.5,0-4.7,0-6.6-1.7c-0.2,1.1-0.4,1.4-0.6,1.8c-1.2-0.5-1.5-0.6-1.8-0.6c0.7-1.3,0.9-2.5,0.9-3.9c0-0.4,0-0.6,0-0.8l1.8,0.2
			c0.1,0,0.3,0,0.3,0.2c0,0.2-0.1,0.2-0.3,0.3c0,0.2,0,0.7-0.1,0.8c0.3,0.3,0.5,0.4,0.6,0.5v-2.4h-2.9v-1.5h6.6v1.5h-1.8v0.7h1.8
			v1.6h-1.8v1.1c0.8,0.3,1.5,0.3,2.7,0.4c-0.4-0.4-0.8-0.7-1.3-1c1-0.5,1.8-1,1.9-1.2H506.8z M505.9,39.3v5.1h-5.7v-5.1H505.9z
			 M504,41.3v-0.6h-1.8v0.6H504z M502.2,42.5v0.5h1.8v-0.5H502.2z M509.4,48.6c0.1,0.1,0.2,0.1,0.2,0.3c0,0.2-0.3,0.2-0.5,0.2
			c-0.5,0.4-1.1,1-1.5,1.2c2.2,0,3.6,0,4.1-0.1c-0.5-0.3-1.2-0.8-1.8-1.5l0.7-0.6h-1.8L509.4,48.6z M510.9,43.4v-0.5h-2.2v0.5H510.9
			z M508.7,44.5v0.5h2.2v-0.5H508.7z M508.7,46.2v0.5h2.2v-0.5H508.7z"/>
		<path d="M523.5,39.3c0.1,0,0.3,0.1,0.3,0.3c0,0.2-0.3,0.2-0.4,0.2l-0.3,0.7c0.4-0.1,1.8-0.2,3-0.7v2.1c-2.1,0.4-2.4,0.4-4.1,0.6
			c-0.2,0.3-0.2,0.4-0.6,1c0.5-0.3,1.1-0.3,1.2-0.3c0.7,0,1.6,0.4,2.1,1.2c2.1-1,2.4-1.1,2.9-1.4l0.8,2.3c-1.6,0.5-2.4,0.8-3.3,1.2
			c0,0.4,0,0.9,0,1.3c0,0.6,0,1,0,1.4c-0.5,0-1,0-1.4,0c-0.5,0-0.5,0-0.8,0c0.1-0.5,0.1-0.7,0.1-1.6c-0.9,0.5-1.8,1.1-1.8,1.7
			c0,0.6,1.5,0.7,2.2,0.7c1.6,0,3.1-0.3,4.6-0.7c-0.2,0.7-0.3,1.6-0.3,2.3c-1.3,0.3-2.7,0.4-4,0.4c-1,0-4.7,0-4.7-2.5
			c0-1.7,2.3-3.1,3.8-3.9c-0.2-0.6-0.7-0.7-1.1-0.7c-1.5,0-2.5,1.6-3.3,2.9l-2-1.1c0.9-1,2.4-3,2.9-3.9c-0.8,0-1.4,0-2,0l0-2.1
			c0.4,0,1.3,0.1,2.3,0.1c0.4,0,0.6,0,0.8,0c0.5-1.1,0.6-1.5,0.8-1.9L523.5,39.3z"/>
		<path d="M538.9,40.9v-1.6h6.3c0,4.2,0,4.8-2.6,4.9l0.7,0.1c0.2,0,0.4,0,0.4,0.2c0,0.1-0.1,0.2-0.3,0.2v0.5h1.6v1.6h-1.6v1.1h1.9
			v1.6h-1.9v2.7h-1.9v-2.7H539v-1.6h2.5v-1.1h-1.2c-0.2,0.5-0.4,0.7-0.5,0.9c-0.4-0.3-0.9-0.5-1.3-0.6v3.7c0,1.4-0.5,1.4-2.3,1.5
			c-0.1-0.9-0.4-1.5-0.6-1.9c0.2,0,0.9,0.1,1,0.1c0.3,0,0.3-0.2,0.3-0.5v-1.3h-2.6c-0.1,0.9-0.3,2.1-1.1,3.5
			c-0.4-0.3-0.8-0.6-1.7-0.9c0.9-1.3,1.1-2.3,1.1-4.9v-3c-0.3-0.2-0.5-0.3-1.2-0.5c0.3-0.3,1.8-2,2.4-4l1.8,0.4
			c0.1,0,0.3,0.1,0.3,0.2c0,0.1-0.1,0.2-0.3,0.3c0,0.1,0,0.1-0.1,0.1h2.1l0.6,0.5c-0.3,0.7-0.7,1.4-1.1,2h1.4v0.5
			c0.7-0.4,1.2-0.9,1.5-2H538.9z M535.1,42.4c0.2-0.4,0.3-0.5,0.5-0.9h-0.7c-0.2,0.3-0.3,0.6-0.5,0.9H535.1z M534.4,44.1v0.8h0.6
			v-0.8H534.4z M534.4,47.2h0.6v-0.9h-0.6V47.2z M536.3,44.1v0.8h0.6v-0.8H536.3z M537,46.4h-0.6v0.9h0.6V46.4z M538.6,43.4v3.4
			c0.4-0.7,0.9-1.7,0.9-2.5C539.2,43.8,538.7,43.4,538.6,43.4z M542.2,44.2c-0.1-0.7-0.2-1.1-0.7-1.9c-0.2,0.4-0.6,1.1-1.7,2.1
			l1.1,0.2c0.1,0,0.3,0,0.3,0.2c0,0.1,0,0.1-0.3,0.3c0,0.1,0,0.1,0,0.2h0.6v-1.1L542.2,44.2z M542,40.9c-0.1,0.4-0.2,0.9-0.5,1.4
			c0.3,0.1,0.8,0.1,1.1,0.1c0.4,0,0.6,0,0.6-1.5H542z"/>
		<path d="M549,42.5c1.1,0.7,1.7,1.1,2.3,1.7c-0.6,0.6-0.9,1.1-1.2,1.5c-0.6-0.6-1.5-1.2-2.2-1.6L549,42.5z M551.7,46.9V45h3.4
			c0-0.2,0-0.3,0-0.6v-1.3h-2.8v-1.8h2.8v-2.4l2.1,0.1c0.3,0,0.4,0,0.4,0.2c0,0.2-0.1,0.2-0.4,0.3v1.8h3.6V45h0.8v1.9h-4
			c0.8,1.7,2.4,2.8,4.1,3.6c-0.5,0.5-0.9,1-1.2,1.8c-0.6-0.3-2.6-1.3-4.2-3.6c-1.2,2.3-3.3,3.4-4.4,3.7c-0.5-0.9-0.8-1.3-1.3-1.6
			c-0.2,0.4-0.3,0.7-0.6,1.2c0,0,0.1,0.1,0.1,0.2c0,0.1,0,0.2-0.2,0.2c-0.1,0-0.1,0-0.2-0.1l-1.7-1.1c0.7-0.9,1.6-2.5,2.3-4.5
			c0.6,0.6,1,0.8,1.6,1.1c-0.3,0.8-0.4,1.3-1.2,2.9c1.2-0.3,3.4-1.2,4.2-3.8H551.7z M549.8,38.8c0.8,0.4,1.7,1,2.3,1.5
			c-0.6,0.7-0.9,1.1-1.2,1.7c-0.8-0.8-1.9-1.4-2.2-1.7L549.8,38.8z M558.6,45v-1.9h-1.5V45H558.6z"/>
		<path d="M572.6,39.3c0.2,0,0.4,0,0.4,0.2c0,0.2-0.2,0.2-0.3,0.2c0,0.3,0,0.4-0.1,1c4-0.2,4.5-0.2,4.8-0.2c0,0.3,0,1.7,0,2.3
			c-2.6-0.1-3.7-0.1-4.7-0.1c0,1,0,1.3,0,1.6c0.8,1,0.8,2.6,0.8,2.8c0,2-1.3,4.4-3.3,5.5c-0.6-0.6-1.4-1.1-2.1-1.5
			c0.4-0.2,2.1-0.9,2.6-2.1c-0.1,0.1-0.4,0.3-1.1,0.3c-0.2,0-1,0-1.6-0.6c-0.5-0.7-0.6-1.6-0.6-2.1c0-3.2,2.7-3.1,3-3
			c0-0.5,0-0.6,0-0.8c-3,0.2-4.9,0.6-5.7,0.7l-0.2-2.4c0.3,0,0.9,0,5.8-0.3c-0.1-1.2-0.1-1.2-0.2-1.8L572.6,39.3z M569.3,46.5
			c0,0.9,0.5,1.2,0.7,1.2c0.4,0,0.7-0.7,0.7-1.4c0-0.3-0.1-0.9-0.6-0.9C569.6,45.4,569.3,45.9,569.3,46.5z"/>
		<path d="M590.4,40.8c-1,0.6-3.2,2.9-3.5,3.2c0.2-0.1,0.9-0.2,1.7-0.2c2,0,4,1.2,4,3.8c0,3.2-3,4.5-5.5,4.5c-1.9,0-3.6-0.7-3.6-2.5
			c0-1.4,1.3-2.3,2.8-2.3c1.3,0,2.8,0.8,3.1,2.1c0.9-0.5,0.9-1.6,0.9-1.7c0-0.3-0.1-2.1-2.3-2.1c-2.4,0-3.8,1.4-5.8,3.5l-1.7-1.7
			c1.7-1.1,4.9-4.3,5.8-5.6c-0.5,0.1-0.9,0.2-3.8,0.5l-0.3-2.3c0.6,0,4.7,0.1,7.2-0.9L590.4,40.8z M586.1,49.1
			c-0.5,0-0.6,0.3-0.6,0.5c0,0.5,0.8,0.8,1.3,0.8c0.3,0,0.6-0.1,0.7-0.1C587.2,49.3,586.5,49.1,586.1,49.1z"/>
		<path d="M607.4,48.8l-0.9,1.7l-10.3-5.1l10.3-5.1l0.9,1.7l-6.8,3.4L607.4,48.8z"/>
		<path d="M618.3,39.2c0.3,0,0.3,0.2,0.3,0.2c0,0.1,0,0.2-0.3,0.3c-0.1,4.5-0.2,7.8,5.6,10.7c-0.7,0.6-1.1,1-1.5,1.8
			c-1.1-0.5-1.9-1.1-2.9-2.1c-1-1-1.4-1.6-2.3-3c-0.2,0.5-0.5,1.4-2.1,2.9c-1,1-1.8,1.5-3,2.1c-0.8-1-1.2-1.3-1.8-1.7
			c3-1,4.4-3.1,4.9-4.4c0.7-1.7,0.8-3.3,0.8-7L618.3,39.2z"/>
		<path d="M631.2,52.2h-2.1v-3.9c-0.4,1-0.6,1.3-0.8,1.6c-0.5-0.4-1-0.9-1.9-1.4c0.6-0.8,1.6-2,2.5-5h-2v-1.9h2.3v-2.6l2,0.1
			c0.1,0,0.3,0,0.3,0.2c0,0.1-0.1,0.2-0.3,0.3v1.9h1.5v1.9h-1.5v0.2c0.2,0.3,0.8,1.5,2,2.8c-0.4,0.3-1.2,0.9-1.5,1.4
			c-0.1-0.2-0.2-0.3-0.5-0.9V52.2z M633.3,43.5v-1.9h3v-2.5l2.1,0.1c0.2,0,0.4,0,0.4,0.2c0,0.1-0.1,0.2-0.3,0.2v2h1.4v1.9h-1.4v7
			c0,1.1-0.5,1.3-0.8,1.4c-0.4,0.2-1.5,0.3-2.3,0.3c-0.1-0.8-0.3-1.6-0.8-2.3c0.4,0.1,1,0.1,1.3,0.1c0.3,0,0.4-0.1,0.4-0.5v-3.4
			c-1.1,2-2.3,3.2-3.1,4.1c-0.6-0.6-1-0.9-1.9-1.3c1.8-1.4,3.3-3.2,4.2-5.3H633.3z"/>
		<path d="M646.2,48.9v-1.5h2.6c0-0.1,0-0.2,0-0.6h-2.2v-1.4h1c-0.3-0.4-0.4-0.5-0.6-0.7l1.4-0.7h-2.9v8.2h-2V39.3h5.8v4.7h-0.7
			c0.3,0.4,0.7,1,0.8,1.2l-0.4,0.2h1.4c0.4-0.7,0.5-1.2,0.6-1.4h-0.7v-4.7h5.8v11.5c0,0.6-0.4,1.5-2.5,1.4c-0.1-0.8-0.4-1.5-0.5-1.9
			c-0.4,0.4-0.8,1.1-1,1.3c-0.9-0.5-1.6-1.1-2.2-1.9c-1,1.5-2.2,1.9-2.7,2.1c-0.3-0.6-0.6-1-1.2-1.5c1.3-0.4,1.9-0.9,2.4-1.7H646.2z
			 M647.5,41.2v-0.5h-1.9v0.5H647.5z M645.6,42.2v0.5h1.9v-0.5H645.6z M650.7,46.8c0,0.2,0,0.2,0,0.6h2.9v1.5h-2.3
			c0.9,0.9,1.6,1.3,1.9,1.4l0,0c0.2,0,0.5,0.1,0.6,0.1c0.3,0,0.3-0.3,0.3-0.5v-5.8h-2.9l1.5,0.5c0.1,0,0.1,0.1,0.1,0.2
			c0,0.1-0.1,0.1-0.4,0.2c-0.1,0.2-0.1,0.3-0.2,0.5h0.8v1.4H650.7z M654.2,41.2v-0.5h-1.9v0.5H654.2z M652.3,42.2v0.5h1.9v-0.5
			H652.3z"/>
		<path d="M663.5,44.4v4.7c0,0.4,0.4,0.7,0.8,0.9c0.6,0.3,0.7,0.4,3.8,0.4c2.2,0,3.7-0.2,5.3-0.3c-0.6,1-0.7,1.6-0.7,2.1h-6.6
			c-0.6,0-1.5-0.1-2.1-0.3c-0.9-0.3-1.3-0.7-1.4-0.9c-0.4,0.4-0.5,0.4-1.4,1.1c0,0.3,0,0.5-0.2,0.5c0,0-0.1,0-0.2-0.2l-1-1.9
			c1.1-0.5,1.2-0.5,1.9-1v-3.2H660v-1.9H663.5z M661.4,39.1c1,0.9,1.6,1.5,2.1,2c-0.7,0.6-1,0.9-1.6,1.5c-0.2-0.3-1-1.3-2-2.1
			L661.4,39.1z M667.2,39l2,0.1c0.2,0,0.3,0.1,0.3,0.2c0,0.1-0.1,0.2-0.3,0.3v0.4h3.6v1.5h-3.6v0.6h3v5h-3v0.6h3.7V49h-3.7v0.9h-2
			V49H664v-1.5h3.2v-0.6h-2.9v-5h2.9v-0.6h-3.5v-1.5h3.5V39z M667.2,43.1h-1v0.6h1V43.1z M667.2,44.9h-1v0.6h1V44.9z M669.2,43.8h1
			v-0.6h-1V43.8z M669.2,45.6h1v-0.6h-1V45.6z"/>
		<path d="M678.4,40.5c0.9,1.1,1.6,2.4,2,3.3c-0.7,0.4-1.6,1-2,1.3c-0.6-1.3-1.1-2.1-2-3.4L678.4,40.5z M688.2,40.2
			c0.2,0,0.3,0.1,0.3,0.2c0,0.2-0.2,0.2-0.3,0.2c-0.8,4.3-1.6,6.3-3.1,7.9c-1.4,1.6-2.7,2.5-4.7,3.4c-0.6-1-1.4-1.6-1.6-1.9
			c5.1-2.2,6.6-4.8,6.9-10.3L688.2,40.2z"/>
		<path d="M695.7,39.6c0.2,0,0.3,0,0.3,0.1c0,0.1-0.2,0.2-0.3,0.3v7h-2.4v-7.5L695.7,39.6z M702.3,39.3c0.1,0,0.3,0,0.3,0.1
			c0,0.2-0.2,0.2-0.3,0.3v4.7c0,1.6-0.3,3.1-1.1,4.4c-0.8,1.2-2.4,2.7-4.3,3.3c-0.2-0.6-0.7-1.3-1.5-1.8c4.5-1.6,4.6-4.4,4.6-5.9
			v-5.2L702.3,39.3z"/>
		<path d="M715.6,49.2v1.9h-10v-1.9h5.1l0.7-4.1h-4.1v-2h6.7l-1.1,6.1H715.6z"/>
		<path d="M731.6,44.5v2.4h-12.5v-2.4H731.6z"/>
		<path d="M736.9,42.1c1.1,0.4,2.9,1.5,3.4,2c-0.5,0.6-1.2,1.6-1.4,1.9c-1.2-1-2.4-1.6-3.3-2L736.9,42.1z M736.5,49.8
			c4.5-1.5,8.2-4.8,10.1-7.6c0.5,1,1.4,1.8,1.5,1.9c-1.8,2.7-6.1,6.2-9.9,7.6c0,0.1,0,0.3-0.2,0.3c-0.1,0-0.2-0.1-0.2-0.2
			L736.5,49.8z M738.4,38.9c1.5,0.6,2.4,1,3.6,1.7c-0.3,0.3-1.2,1.6-1.4,1.9c-1.1-0.8-2.3-1.3-3.5-1.8L738.4,38.9z"/>
		<path d="M751.8,51.1v-1.8h6.4v-1.5h-6v-1.9h6v-1.4H752v-1.9h8.2v8.9h-2v-0.4H751.8z"/>
		<path d="M765.6,39.5c2.4,1.2,3.2,2,3.6,2.4c-0.3,0.4-0.4,0.6-1.4,2c-1.5-1.3-2.9-2-3.6-2.3L765.6,39.5z M764.4,49.4
			c4.1-0.8,8.1-3.6,10.7-7.7c0.6,1,0.9,1.3,1.5,2c-0.8,1.2-2.2,3-4.5,4.8c-1.3,1-3.6,2.4-5.9,3.2c0,0.2-0.1,0.3-0.2,0.3
			c-0.1,0-0.1,0-0.2-0.2L764.4,49.4z"/>
		<path d="M780.3,42.1l0.9-1.7l10.3,5.1l-10.3,5.1l-0.9-1.7l6.8-3.4L780.3,42.1z"/>
		<path d="M801.9,49.8c3.1-0.6,4-3,4-4.5c0-1.2-0.6-3.3-3.3-3.5c-0.4,5.3-2.6,9.2-4.1,9.2c-1.1,0-3.2-1.9-3.2-4.5
			c0-3.1,2.8-6.7,7-6.7c3.1,0,5.9,2.1,5.9,5.6c0,0.7-0.1,2.5-1.7,4.4c-0.9,1-1.9,1.6-3.1,2.1C803,50.9,802.6,50.5,801.9,49.8z
			 M797.5,46.2c0,1.1,0.6,1.9,0.9,1.9c0.3,0,0.6-0.6,0.8-1c0.6-1.4,1.1-3.1,1.1-4.9C798.6,42.8,797.5,44.9,797.5,46.2z"/>
		<path d="M817,41.4h-5.5v-1.5h5.5V39l2,0.1c0.1,0,0.3,0,0.3,0.2c0,0.1-0.1,0.2-0.3,0.3v0.2h5.4v1.5H819V42h4.2v5.2h-1.3v0.5h2.6
			v1.6h-2.6v1c0,1.5-0.3,2.1-3.1,2.1c0-0.5-0.2-1.4-0.8-2.1c0.3,0,0.7,0.1,1.2,0.1c0.4,0,0.5-0.1,0.5-0.5v-0.6h-3.5
			c0.5,0.5,0.9,0.9,1.3,1.5c-0.7,0.4-1.1,0.8-1.7,1.4c-0.5-0.8-1.2-1.5-1.9-2.2l0.8-0.7h-3.5v-1.6h8.5v-0.5h-7.1V42h4.2V41.4z
			 M817,43.3h-2.1v0.5h2.1V43.3z M817,45h-2.1v0.5h2.1V45z M819,43.8h2.1v-0.5H819V43.8z M819,45.5h2.1V45H819V45.5z"/>
		<path d="M833.9,39.4V45h-4v7.1h-2V39.4H833.9z M831.9,41.5V41h-2v0.5H831.9z M829.9,42.8v0.6h2v-0.6H829.9z M840.5,39.4v11.2
			c0,1.3-0.7,1.5-2.1,1.5c-0.7,0-0.9,0-1.1,0c-0.1-0.7-0.4-1.6-0.7-2.1c0.7,0.1,1.1,0.1,1.3,0.1c0.2,0,0.6,0,0.6-0.4V45h-4v-5.6
			H840.5z M838.5,41.5V41h-2.1v0.5H838.5z M836.4,42.8v0.6h2.1v-0.6H836.4z"/>
		<path d="M851.8,51.9h-2.5v-6.5c-1.3,0.8-2.6,1.5-4,2c-0.4-0.8-1.1-1.5-1.7-2.1c5.5-1.5,8.9-5.5,9.8-6.6l1.9,1.5
			c0.1,0.1,0.2,0.1,0.2,0.3c0,0.1-0.1,0.2-0.2,0.2c-0.1,0-0.1,0-0.3,0c-1,1.2-3.1,2.9-3.2,2.9V51.9z"/>
		<path d="M858.1,46c1-0.8,1.2-1,3.5-3.8c1.1-1.4,1.9-1.4,2.2-1.4c0.7,0,1.2,0.4,1.9,1.2c3,3.6,3.9,4.6,6.1,6.3
			c-0.7,0.8-1,1.2-1.5,2.1c-0.8-0.7-1.6-1.5-5.3-5.9c-0.5-0.6-0.8-1-1-1.1c-0.1-0.1-0.2-0.1-0.3-0.1c-0.3,0-0.8,0.5-1.2,1
			c-0.4,0.5-2.2,2.8-2.5,3.2c0.1,0.1,0.1,0.2,0.1,0.3s-0.1,0.2-0.2,0.2c-0.1,0-0.2,0-0.3-0.2L858.1,46z M868.7,40.3
			c0.4,0.3,1.2,1.1,1.5,1.5c-0.4,0.3-0.6,0.5-1.1,1c-0.1-0.2-0.9-1-1.5-1.6L868.7,40.3z M870.2,39c0.4,0.3,1.1,1.1,1.4,1.5
			c-0.3,0.2-0.9,0.9-1,1c-0.1-0.1-0.8-1-1.5-1.7L870.2,39z"/>
		<path d="M876.4,39.5c2.4,1.2,3.2,2,3.6,2.4c-0.3,0.4-0.4,0.6-1.4,2c-1.5-1.3-2.9-2-3.6-2.3L876.4,39.5z M875.2,49.4
			c4.1-0.8,8.1-3.6,10.7-7.7c0.6,1,0.9,1.3,1.5,2c-0.8,1.2-2.2,3-4.5,4.8c-1.3,1-3.6,2.4-5.9,3.2c0,0.2-0.1,0.3-0.2,0.3
			c-0.1,0-0.1,0-0.2-0.2L875.2,49.4z"/>
		<path d="M895.2,43c2.1,1.1,3.9,2.3,5,3.4c-0.6,0.9-0.7,1-1.3,2c-0.5-0.4-1.9-1.8-4.5-3.2V52H892V39.3l2.4,0.1c0.1,0,0.3,0,0.3,0.2
			c0,0.1-0.2,0.2-0.3,0.2v4.4L895.2,43z"/>
	</g>
</g>
</svg>
