<?xml version="1.0" encoding="utf-8"?>
<!-- Generator: Adobe Illustrator 22.0.1, SVG Export Plug-In . SVG Version: 6.00 Build 0)  -->
<svg version="1.1" id="レイヤー_2" xmlns="http://www.w3.org/2000/svg" xmlns:xlink="http://www.w3.org/1999/xlink" x="0px"
	 y="0px" viewBox="0 0 1355 450" style="enable-background:new 0 0 1355 450;" xml:space="preserve">
<style type="text/css">
	.st0{fill:#E61D5E;}
	.st1{fill:#AACE36;}
	.st2{fill:#00A95F;}
	.st3{fill:#004D8F;}
</style>
<g>
	<g>
		<polygon points="243.9,396.2 254.9,396.2 254.9,436.2 275.4,436.2 275.4,446.4 243.9,446.4 		"/>
		<polygon points="281.9,396.2 316.1,396.2 316.1,406.4 293,406.4 293,415.8 314.8,415.8 314.8,426 293,426 293,436.2 317.3,436.2 
			317.3,446.4 281.9,446.4 		"/>
		<path d="M341.3,396.2h9.2l21.8,50.2h-12.5l-4.3-10.6H336l-4.2,10.6h-12.2L341.3,396.2z M345.5,410.8l-6.1,15.6h12.2L345.5,410.8z"
			/>
		<path d="M377.3,396.2h19.5c10.3,0,18.9,3.6,18.9,15.3c0,7-3.8,12.5-10.9,13.7l12.8,21.2h-13.3l-10.5-20.1h-5.5v20.1h-11.1V396.2z
			 M388.4,417h6.5c4,0,9.3-0.1,9.3-5.6c0-5-4.6-5.8-8.6-5.8h-7.2V417z"/>
		<polygon points="423.3,396.2 438.3,396.2 459.6,431.1 459.8,431.1 459.8,396.2 470.8,396.2 470.8,446.4 456.4,446.4 434.5,410.7 
			434.3,410.7 434.3,446.4 423.3,446.4 		"/>
		<rect x="480.9" y="396.2" width="11" height="50.2"/>
		<polygon points="502,396.2 517,396.2 538.4,431.1 538.5,431.1 538.5,396.2 549.6,396.2 549.6,446.4 535.1,446.4 513.2,410.7 
			513.1,410.7 513.1,446.4 502,446.4 		"/>
		<path d="M605.3,442.9c-6.5,3.4-13.7,4.8-21,4.8c-15.7,0-27.1-10.3-27.1-26.4c0-16.1,11.4-26.4,27.1-26.4c7.9,0,15,1.8,20,6.5
			l-7.8,8.5c-3-3.1-6.6-4.8-12.2-4.8c-9.4,0-15.6,6.8-15.6,16.2c0,9.4,6.2,16.2,15.6,16.2c4.8,0,8.4-1.4,10.4-2.5v-8.1h-9v-10.2
			h19.6V442.9z"/>
		<polygon points="675.1,396.2 690.2,396.2 711.5,431.1 711.7,431.1 711.7,396.2 722.7,396.2 722.7,446.4 708.3,446.4 686.4,410.7 
			686.2,410.7 686.2,446.4 675.1,446.4 		"/>
		<polygon points="733,396.2 748,396.2 769.3,431.1 769.5,431.1 769.5,396.2 780.5,396.2 780.5,446.4 766.1,446.4 744.2,410.7 
			744,410.7 744,446.4 733,446.4 		"/>
		<path d="M815.1,394.9c15.7,0,27.1,10.3,27.1,26.4s-11.4,26.4-27.1,26.4c-15.7,0-27.1-10.3-27.1-26.4S799.5,394.9,815.1,394.9
			 M815.1,437.5c9.4,0,15.6-6.8,15.6-16.2c0-9.4-6.2-16.2-15.6-16.2c-9.4,0-15.6,6.8-15.6,16.2C799.5,430.7,805.7,437.5,815.1,437.5
			"/>
		<polygon points="843.3,396.2 856,396.2 868.4,429.1 868.5,429.1 881.1,396.2 893,396.2 872.3,446.4 863.4,446.4 		"/>
		<path d="M910.3,396.2h9.2l21.8,50.2h-12.5l-4.3-10.6H905l-4.2,10.6h-12.2L910.3,396.2z M914.6,410.8l-6.1,15.6h12.2L914.6,410.8z"
			/>
		<polygon points="949.6,406 935.3,406 935.3,396.2 975,396.2 975,406 960.6,406 960.6,446.4 949.6,446.4 		"/>
		<rect x="980.4" y="396.2" width="11.1" height="50.2"/>
		<path d="M1025.9,394.9c15.7,0,27.1,10.3,27.1,26.4s-11.4,26.4-27.1,26.4c-15.7,0-27.1-10.3-27.1-26.4S1010.3,394.9,1025.9,394.9
			 M1025.9,437.5c9.4,0,15.6-6.8,15.6-16.2c0-9.4-6.1-16.2-15.6-16.2c-9.4,0-15.6,6.8-15.6,16.2
			C1010.3,430.7,1016.5,437.5,1025.9,437.5"/>
		<polygon points="1060.5,396.2 1075.6,396.2 1096.9,431.1 1097,431.1 1097,396.2 1108.1,396.2 1108.1,446.4 1093.6,446.4 
			1071.7,410.7 1071.6,410.7 1071.6,446.4 1060.5,446.4 		"/>
		<path class="st0" d="M667.5,437.2c-7.5,8.3-14.8,12.8-20.4,12.8c-4.1-0.1-7.1-3.4-7.1-8c0-2.8,1.1-7,3.4-16.1l4.3-17.3
			c0.5-2.5,1.1-4.6-0.6-4.6c-1.6,0-4.9,3.7-7.3,7.2l-2.5-2.1c8.4-11.2,15.1-15.8,20.1-15.8c3.4,0,5.7,3.1,5.6,7.6
			c0,1.9-0.4,5.1-1.4,8.8l-6.8,26.9c-1,3.8-1,5.3,1,5.3c2.1,0,6-3,9.3-6.8L667.5,437.2z M663.1,364.6c4.1,0,6.9,3,6.8,7.5
			c-0.1,6.5-4.5,11.9-9.6,11.8c-4,0-6.9-3.1-6.8-7.3C653.5,369.8,657.8,364.6,663.1,364.6"/>
	</g>
	<g>
		<path d="M293.5,230.4c-15.4-11.9-19.5-24.3-20.9-28.7c-1.9,6.5-7.4,19.4-25.5,28.6l-3.1-6c21.2-12,22.7-29.1,22.7-42.6v-7.5h8.2v9
			c0,1,0,2.1-0.1,3c3.1,16,8.9,26.1,23.8,36.2L293.5,230.4z"/>
		<path d="M299.7,212.4c2.8-4.4,6.2-10.6,8.4-20.6h-6.8v-6.4h7v-11.2h7.3v11.2h1l2-3.6c1.9,1.5,3.4,3.2,4.7,5.2v4.8h-7.7v4.5
			c3.2,1.7,5.3,3.1,8.8,5.4l-4.5,8.4c-1.6-2.5-1.8-2.9-4.3-6.6v26.7h-7.3v-21c-2,3.7-3.6,6.2-5.6,8.7L299.7,212.4z M317.2,217.2
			c8.6-7.7,13.6-15.9,17.1-25.4h-9.4v-6.4h13l-0.1-11.2h7.7l0.1,11.2h1.9l2.3-3.6c0.8,0.5,2.5,1.8,5,5.8v4.3h-9.1l0.1,26.3
			c0.1,10.1,0.1,12.1-14.6,12.1l-1.4-8c1.6,0,4.4,0.1,5.2,0.1c1.7,0,3-0.1,3-1.8v-3.9l-0.1-13.8c-5.7,10.2-12.8,16.4-16.9,19.9
			L317.2,217.2z"/>
		<path d="M397.8,198.2l2.4-3.3c2.5,1.3,5.3,3,7.9,5.6v3.1h-2v18.7c0,6.8-2,7.9-15.3,7.9l-1.5-7.1c1.6,0,4.9,0.2,6.2,0.2
			c2.5,0,2.6-0.7,2.6-2.9v-1.4h-22.7v11.3h-8.1v-34.1c-0.9,0.1-5.1,0.2-6,0.2l-0.5-6.4c3.9,0,11.1,0,14.4-0.1
			c0.9-2.5,1.2-3.2,1.9-5.5h-16.8v-5.9h22.2v-4.2h8.4v4.2h13.5l2.7-3.5c3.2,1.7,5,3.1,7.3,5.5v3.9h-13.3c4.2,2,6.9,3.5,13,7.2
			l-5.2,7c-1.1-1.2-2.4-2.4-4.8-4.4c-16.6,1-20,1.2-35.2,1.9l7.6,2.1H397.8z M375.3,206.3H398v-2.7h-22.7V206.3z M375.3,214H398
			v-2.8h-22.7V214z M386.6,184.3c-1.8,2.4-2.8,3.5-4.5,5.5c6.7-0.1,8.9-0.1,16-0.2c-1.8-1.3-2.8-2-4-2.9l2.2-2.4H386.6z"/>
		<path d="M437.8,225.1c5.9-4.2,9.4-7.1,13.3-11.6c-2.7-7.7-3.7-18.5-4-23.1h-15.5v3.8c0,0.9-0.1,2.9-0.1,3.2h6.2l2.6-3.6
			c3,1.7,4.9,3.1,6.8,5.5v4h-2c-0.3,16.7-1.5,18.2-13,18.4l-1-7.3c0.5,0.1,3,0.1,3.6,0.1c2.9,0,2.9-0.8,3-11.2h-6.5
			c-1,13.1-3.6,20.2-6.8,26.6l-5.2-4.6c2.2-5.3,4.4-12.9,4.4-31.7V182l8.5,2.1h14.6c-0.1-1.4-0.3-8.4-0.3-9.9h7.9c0,3,0,5.8,0.1,9.9
			h6.4c-2.1-2.2-3.3-3.3-6.4-5.7l2.8-4.2c3.6,1.4,5,2,8.8,4.1l-3.7,5.8h2.9l2.5-3.6c2.9,1.7,4.6,3.2,6.6,5.5v4.4h-19.5
			c0.3,4.8,0.7,10.4,1.9,15c3-5.4,4.7-11.2,5.3-13l7.9,2.6c-1.3,3.6-4.1,11.1-10.2,19c0.2,0.5,3.4,7.3,5.3,7.3
			c0.7,0,1.1-0.6,1.4-2.4c0.3-1.9,0.3-4.1,0.5-7.9l7.4,3c-0.4,5.8-1.1,16.2-8.3,16.2c-3.4,0-8.5-3.3-11.9-9.8
			c-3.8,3.8-7.6,6.7-12.5,10L437.8,225.1z"/>
		<path d="M497.3,185.8c-1,2.2-1.7,3.7-2.1,4.6c2.9-0.1,5.9-0.2,8.7-0.5l2-3c2.3,1.3,3.5,2.1,5.3,4.1v3c-7.8,0.7-12.1,0.8-18.5,0.9
			c-1.2,2.1-2.2,3.6-2.6,4.2c1.1-0.6,2.6-1.5,5.2-1.5c2.4,0,4.7,0.6,6.3,3.2c4.3-1.8,5.1-2.1,9.8-3.8l2.9,5.4c-4.8,1-8.5,2.1-11,3.1
			c0.6,3.1,0.6,6.9,0.6,9h-5.5c0-1.4,0-5.7,0-6.8c-1.7,0.9-6.3,3.4-6.3,6.8c0,2.7,4.4,3.4,11,3.4c4.6,0,8.5-0.6,10.6-1l-0.5,5.7
			c-1.8,0.2-5.4,0.5-10.2,0.5c-5.1,0-16.2,0-16.2-8c0-4.1,2.7-8.1,10.1-12c-0.3-0.3-0.9-0.8-2.4-0.8c-5,0-8.2,4.5-11.6,9.2l-4.3-3.3
			c4.5-5.6,7.8-11.9,8.5-13.2c-2.1,0-2.6,0-6.8-0.1v-5c3.2,0.1,3.9,0.2,9.2,0.3c0.7-1.6,1-2.4,2.3-5.5L497.3,185.8z"/>
		<path d="M522.2,223.1c14.9-4.9,18.7-9.9,19.8-21.3h-15.1c-0.3,0-4.4,0.1-7.2,0.4v-7.3c1.7,0.1,5.4,0.4,7.2,0.4h34l2.9-3.8
			c3.2,1.6,5.2,3.2,7.4,5.6v4.7h-20.3c-1.8,18.5-12.2,23.7-25.4,27.5L522.2,223.1z M555.9,178.8l2.8-3.8c3.1,1.6,5.1,3.2,7.3,5.6
			v4.7h-34c-1.8,0-5.4,0.2-7.2,0.4v-7.3c1.4,0.1,5.6,0.4,7.2,0.4H555.9z"/>
		<path d="M580.2,222.5c8.5-2.3,28-7.5,34.7-31.2h-18.2c-5.4,8.7-10.4,13.2-14.5,16.9l-4.7-5.5c9.2-8.9,13-15.4,17-27.4l8.7,1.5
			c-0.8,2.4-1.7,5.1-3,7.8h15.7l3-3.9c3.1,1.9,5.3,3.8,7.5,6.6v4.9h-2.8c-7.5,28.7-31.6,34.8-40.2,36.9L580.2,222.5z"/>
		<path d="M619.5,222.7c10.1-4.8,19.8-10,26.1-20.4c0.9-1.5,5.5-9.1,7.2-18.9l-3.2-2.6l2-4.8l11.6,2.2c-5.5,26.3-13.7,39.5-40,50.7
			L619.5,222.7z"/>
		<path d="M680.6,223.6c0.1,1.7,0.2,2.3,0.2,3h-8.9c0.2-1.9,0.4-4.5,0.4-6.4V184c0-1.8-0.2-4.8-0.4-6.4l8.3,2.3h29.1l2.8-3.9
			c3.2,1.6,5.3,3.1,7.6,5.6v5h-1.9v33.8c0,1.8,0.2,4.8,0.3,6.4h-8.9c0.1-0.7,0.1-1.3,0.2-3H680.6z M680.5,217h29v-30.6h-29V217z"/>
		<path d="M743.8,207.6c-6-5-9.5-7.1-16.3-10.3l2.8-5.7c7.7,2.4,10.8,3.6,18,7.4L743.8,207.6z M735.1,218.3
			c26.8-6.7,35.1-24.1,38.5-31.6l6,4.5c-12.8,28.5-35.3,34.3-48.5,37.8l-2.9-11.2l4.7-2.2L735.1,218.3z M750,191.3
			c-6.9-5-10-6.6-17.3-9.8l3-5.7c7.8,2.1,11.5,3.5,18.9,7L750,191.3z M764.3,188c-1.6-5.6-2.3-7.2-4.6-11.3l3.8-1.9
			c2.7,3.6,3.7,5.1,6.3,10.4L764.3,188z M773.1,185.6c-1.2-3.2-2.1-5.9-5.6-10.7l3.4-1.9c4.1,4.1,5.6,6.5,7.2,9.2L773.1,185.6z"/>
		<path d="M792,192.8l1.1,3.9c1.6,0,7.5,0.2,9,0.2h18.4c2.7,0,16.3-0.3,19-0.4v8.4c-3.1-0.1-16.4-0.4-19-0.4h-18.4
			c-2.4,0-13.2,0.3-15.4,0.4l-0.6-11.5L792,192.8z"/>
		<path d="M874.8,221.9c-7.1,0-10.9-0.1-14.8-2.1c-2.4-1.3-6.2-4.5-6.2-11.6c0-6.5,3.2-11.8,8.4-15.5c-4.9,0.2-13.8,0.9-18.6,1.2
			l-0.1-5.3c13.2-0.6,14.8-0.6,29.2-1.1l1.9-2.9c2.3,1.4,3.6,2.4,5.3,4.3l0,3c-2.1,0.1-2.5,0.1-9,0.3c-2.3,1-11.5,5.1-11.5,15.2
			c0,5.5,2.7,9.1,11.4,9.1c1.5,0,2.5-0.1,5-0.3L874.8,221.9z M870.5,203.9c-1-3.2-1.5-4.6-3.3-7.5l2.5-1.3c1.8,2.4,2.5,3.2,4.4,6.8
			L870.5,203.9z M876.5,201.7c-0.8-2-1.6-4-4.2-7.2l2.3-1.4c1.7,1.6,3.1,2.9,5.4,6.4L876.5,201.7z"/>
		<path d="M916.3,195.8h10l2.6-3.8c3,1.6,4.9,3,7.1,5.3v3.8H934v11.4c2,1.2,3.8,2.4,5.8,4.4v4.3h-23.5v9h-8v-9h-22.5v-6h22.5v-4.5
			h-9.9v2.1h-7.9v-19.4l8.5,2.4h9.2v-3.4h-1.8v1.2h-7.6v-9.4h-12.1v-5.6h12.1v-4.4h7.6v4.4H918v-4.4h7.7v4.4h4.2l2.4-3.5
			c2.3,1.3,4.6,2.9,6.6,5.3v3.8h-13.2v9.4H918v-1.2h-1.7V195.8z M908.3,201h-9.9v4.4h9.9V201z M918,184.1h-11.5v3H918V184.1z
			 M916.3,205.5h9.9V201h-9.9V205.5z M916.3,215.2h13.6l1.6-2.4h-5.4v-2.1h-9.9V215.2z"/>
		<path d="M962,204.3h2.9l2.2-3.6c2.6,1.8,3.6,2.9,5.7,5.3v4.3H962v0.4c2.3,0.9,6.9,3.2,9,4.6l-4.6,7.2c-1-1.4-2.3-3.6-4.4-6.2v13.9
			h-7.3v-9.9c-3.4,3.7-5.3,5.2-6.6,6.2l-3.2-5.2c5.2-4.9,7.4-8.5,8.7-10.9h-7.1v-6.1h8.3v-4.7H946v-6h4.7c-1-3.9-1-4.3-1.7-6.4
			l4.5-1.7H947v-6h7.5v-5.3h7.8v5.3h1.9l2.5-3.6c3.7,2.4,5.3,4.6,6,5.5v4.1h-11.3l6.6,1.8c-1.1,2.2-2,3.9-3.5,6.4h2.3l2.2-3.4
			c2,1.6,2.6,2.4,4.4,5.2v4.3H962V204.3z M954.2,185.4c1.1,1.5,1.3,1.9,3.7,6l-5.7,2.2h6.5c1-3,1.5-4.6,2.3-8.2H954.2z M966.8,225.3
			c8.2-10.1,8.4-19.7,8.4-38.8c0-3.8-0.1-6.4-0.1-9.5l4.8,1.4c5-1,9.3-2.1,14.5-4.4l5.1,7c-3,0.7-8.7,2-16.7,2.7v9.9h8.4l2.6-3.8
			c2.8,1.7,4.2,3.1,6.2,5.5v4.6h-5.5v30.3h-7.7v-30.3h-4c-0.5,9.6-1.8,20.3-11.3,30.1L966.8,225.3z"/>
		<path d="M1039.6,175.2c-0.1,2.2-0.1,5.7-0.2,7.3c1.3,0,7.1-0.1,8.3-0.1l2.7-3.7c3.3,1.8,4.9,3.1,7.4,5.9v4.7
			c-13.1-0.3-14.5-0.4-18.5-0.3c0,2.6-0.1,8.1-0.1,10.7c1.6,2.6,2.5,5.5,2.5,9.5c0,12.9-8.5,18.6-22.1,20.6l-3.6-6
			c7.5-1.1,16.6-3.3,17.6-13c-1.3,1.6-3.1,3.8-8,3.8c-4,0-10.9-2.1-10.9-10.6c0-7.6,5.9-11.2,11.7-11.2c2.5,0,4.1,0.5,4.9,0.8V189
			c-4.9,0.1-14.7,0.1-24.9,0.6v-7.6c12,0.6,21.7,0.7,24.8,0.7c-0.1-1.1-0.3-4.6-0.5-7.4H1039.6z M1026.7,198.7
			c-2.8,0-4.4,2.1-4.4,4.6c0,3.1,2.4,4.6,4.5,4.6c4.3,0,4.4-4.3,4.4-5.5C1030.8,200,1029,198.7,1026.7,198.7"/>
		<path d="M1058.4,209.4c2-1.7,10.9-9.6,12.7-11.2c2.4-2.1,13-11.4,15.2-13.3c-6.9,0.4-12,0.6-21.9,0.6l-0.1-6.9
			c3.5,0.2,7.8,0.4,11.7,0.4c5.9,0,10.4-0.4,13.9-0.7l3.1-4.2c3.4,1.8,5.4,3.4,8,6.1l0,3.8c-0.4,0-2.3,0.2-2.7,0.2
			c-4.3,3.3-7.1,5.6-15,12.2c2-0.6,4.4-1.2,7.5-1.2c11.1,0,17.4,7.2,17.4,16.4c0,7.8-4.4,17.7-20.2,17.7c-11.6,0-16.8-5.6-16.8-11.8
			c0-4.9,3.7-9.6,10.5-9.6c10.6,0,12.9,9.2,13.7,12.5c2.1-1.3,5-3.1,5-8.6c0-6.9-6-10.6-12.7-10.6c-10.8,0-17.8,7.8-24.1,14.7
			L1058.4,209.4z M1082.2,214.1c-2.5,0-4,1.5-4,3.3c0,0.5,0,4.8,10.2,4.7C1087.7,216.6,1084.9,214.1,1082.2,214.1"/>
	</g>
	<g>
		<rect x="671.4" y="263.2" class="st1" width="10.7" height="15.1"/>
		<rect x="671.4" y="263.2" class="st2" width="10.7" height="15.1"/>
		<path class="st0" d="M1121.4,294.7c0,10.7-3.4,17.9-10.1,21.8c-4.5,2.6-11.6,3.9-21.4,3.9h-3.8h-3.8c-7.5,0-12.4,0.9-14.6,2.9
			c-1.9,1.7-3,4.6-3.2,8.9v9.6h56.5v15.1h-76.2v-26.4c0-10.6,3.1-17.8,9.4-21.7c4.3-2.6,11.1-3.9,20.4-3.9h4.4h4.1
			c5.9,0,10.1-0.5,12.6-1.6c3.5-1.6,5.3-4.6,5.3-8.9c0-4.3-1.4-7.3-4.3-8.9c-2-1.1-5.4-1.6-10.1-1.6h-41.8v-15.1h49.8
			c4,0,7.3,0.3,9.8,0.8c5.9,1.2,10.3,4.2,13.3,9.1C1120.1,283,1121.4,288.4,1121.4,294.7"/>
		<path class="st0" d="M1220.1,313c0,30.1-14.5,45.2-43.5,45.2c-15,0-26.1-3.8-33.2-11.5c-6.9-7.3-10.4-18.6-10.4-33.7
			c0-15.2,3.5-26.5,10.4-34c7-7.5,18-11.2,33.1-11.2c15,0,26.1,3.8,33.1,11.5C1216.7,286.7,1220.1,297.9,1220.1,313 M1200.7,313
			c0-9.5-1.6-16.7-4.7-21.7c-3.9-6-10.4-9-19.4-9c-9.1,0-15.6,3-19.4,8.9c-3.2,4.9-4.8,12.2-4.8,21.8c0,20.4,8,30.5,24.1,30.5
			C1192.7,343.5,1200.7,333.3,1200.7,313"/>
		<rect x="1235.6" y="268.8" class="st0" width="19.1" height="88.1"/>
		<g>
			<path class="st1" d="M75.8,329.9c-12.4,15.4-33.7,23.4-64,23.8v-15.8c14.7-0.6,26.7-3.4,36-8.2c9.3-4.9,15.5-11.5,18.7-20.1H-0.1
				v-15.4h87.5C87.3,308.3,83.5,320.3,75.8,329.9"/>
			<rect x="9.2" y="268.2" class="st1" width="71.8" height="15.9"/>
		</g>
		<rect x="95.7" y="302.2" class="st1" width="77.9" height="16.4"/>
		<g>
			<rect x="172.5" y="333.4" class="st1" width="89.5" height="16.7"/>
			<rect x="184.7" y="271.9" class="st1" width="68.7" height="16.5"/>
		</g>
		<path class="st2" d="M542,265.5c-3.9,14.4-12.8,26.2-26.7,35.3v54.9h-18v-45.6c-11.6,4.7-25.4,8.2-41.3,10.6v-16.4
			c36.5-6.4,58.9-19.3,67.3-38.9H542z"/>
		<path class="st2" d="M605.2,267.4c-2.6,23.9-10.5,43.2-23.7,57.8c-12.9,14.1-30.3,23.4-52.3,28v-16.8c34-9.4,53.1-32.4,57.2-69
			H605.2z"/>
		<rect x="701.4" y="302.2" class="st2" width="77.9" height="16.4"/>
		<path class="st2" d="M877,281.8c-1.7,25.2-10.1,43.6-24.9,55.3c-13.5,10.5-33,15.8-58.5,16v-16.8c21.5-0.6,37.1-4.8,47.1-12.7
			c10.5-8.4,16.6-22.3,18.5-41.8H877z"/>
		<polygon class="st2" points="938.2,355.2 885.7,355.2 885.7,342.7 924.2,342.7 924.2,333.3 886.6,333.3 886.6,321.1 924.2,321.1 
			924.2,313 885.8,313 885.8,300.7 938.2,300.7 		"/>
		<path class="st2" d="M1032.9,282.9c-1.7,24-9.5,41.7-23.4,53.1c-13.2,10.6-32.5,16.3-58,16.9V336c20-1.5,34.8-5.6,44.1-12.5
			c11-8.2,17.4-21.7,19.1-40.6H1032.9z"/>
		<polygon class="st1" points="440.5,262.7 440.5,266.5 440.5,268.7 440.5,277.8 450,277.8 451.2,277.8 451.2,262.7 		"/>
		<path class="st1" d="M435.3,283v-5.2v-9.1H382c-2.7,13.4-9.4,23.4-20,30.2v17.2c7.5-2.4,14.1-6.5,19.9-12.3
			c5.7-5.5,10.1-11.9,13.1-19.3h36.7c-3.4,32.4-22.1,50.3-55.9,53.7v15.6c29.2-1.7,49.9-12.3,62.1-31.8
			c6.4-10.3,10.3-23.4,11.7-39.1h-9.2H435.3z"/>
		<rect x="455.2" y="262.7" class="st1" width="10.7" height="15.1"/>
		<rect x="455.2" y="262.7" class="st1" width="10.7" height="15.1"/>
		<polygon class="st2" points="656.7,263.2 656.7,267 656.7,269.2 656.7,278.3 666.3,278.3 667.4,278.3 667.4,263.2 		"/>
		<rect x="671.4" y="263.2" class="st2" width="10.7" height="15.1"/>
		<rect x="671.4" y="263.2" class="st2" width="10.7" height="15.1"/>
		<rect x="671.4" y="263.2" class="st1" width="10.7" height="15.1"/>
		<rect x="671.4" y="263.2" class="st2" width="10.7" height="15.1"/>
		<path class="st2" d="M687,321.8c-3.3-4.8-7.5-12.5-12.7-23.2c-3.2-6.7-6.3-11.8-9-15.7h-8.1H652v-5.2v-4.3
			c-3.2-0.7-7-1.1-11.5-1.1h-13.9l-12.9,32.7c-1.9,5-4.5,8.1-7.7,9.3v17.1c10.6-1.2,18.2-7.4,22.7-18.3l9.9-24.1h3.2
			c3.7,0,6.5,1,8.4,3.1c1.9,2.1,5.2,8,10,17.6c6.6,13.5,12.8,23.3,18.3,29.6c6.8,7.6,14.5,11.9,23.2,13.1V335
			C696.8,333.4,691.9,329,687,321.8"/>
		<g>
			<path class="st1" d="M354.6,282.9c-1.7,24-9.5,41.7-23.4,53.1c-13.1,10.6-32.5,16.3-58,16.9V336c20.1-1.5,34.8-5.6,44.2-12.5
				c11.1-8.2,17.4-21.7,19.1-40.6H354.6z"/>
			<polygon class="st1" points="272,268.6 272,268.6 272,285.6 309.2,290.4 309.2,273.3 			"/>
		</g>
		<polygon class="st2" points="791.1,267.1 791.1,267.2 791.1,282.8 828.3,287.5 828.3,271.8 		"/>
		<polygon class="st2" points="791.1,290.2 791.1,290.3 791.1,305.9 828.3,310.6 828.3,294.9 		"/>
		<polygon class="st2" points="950.2,268.6 950.2,268.6 950.2,285.6 987.4,290.4 987.4,273.3 		"/>
		<path class="st0" d="M1310.8,279.2c-8.1,0-13.2,0.8-15.4,2.5c-2.2,1.7-3.2,5.6-3.2,11.8c0,6.3,1.1,10.2,3.3,11.7
			c2.2,1.6,7.7,2.3,16.5,2.3c9.3,0,15.1-0.7,17.4-2.2c2.3-1.5,3.5-5.2,3.5-11.1c0-6.7-1.2-10.9-3.6-12.6
			C1326.8,280.1,1320.7,279.2,1310.8,279.2 M1272.2,331.5h19c0,5.8,1.1,9.3,3.2,10.6c2.1,1.3,7.7,2,16.9,2c9.9,0,15.9-0.9,18.1-2.7
			c2.1-1.8,3.2-7,3.2-15.5v-13.3h-0.4c-3.3,6-11.2,8.9-23.7,8.9c-14.1,0-23.5-1.7-28.3-5.2c-4.8-3.5-7.2-10.4-7.2-20.6
			c0-12,2.5-20,7.6-24.2c5.1-4.1,14.9-6.2,29.6-6.2c19,0,30.8,2.4,35.3,7.2c4.5,4.8,6.7,17.4,6.7,37.8c0,22-2.1,35.4-6.4,40.3
			c-4.3,4.9-16,7.4-35.2,7.4c-14.8,0-24.9-1.6-30.3-4.9c-5.4-3.3-8.1-9.5-8.1-18.5L1272.2,331.5z"/>
	</g>
</g>
<g>
	<path class="st3" d="M448.3,29.1l-15.9-18.6v18.1h-5.2V0h3.1l15.8,18.4v-18h5.2v28.7H448.3z"/>
	<path class="st3" d="M456.9,0.4h5.9v28.2h-5.9V0.4z"/>
	<path class="st3" d="M477.2,16l-3,3.6v9.1h-5.9V0.4h5.9v12.5l10.6-12.5h5.9v0.2l-9.3,11.1l10,16.6v0.2h-6.4L477.2,16z"/>
	<path class="st3" d="M503.5,16l-3,3.6v9.1h-5.9V0.4h5.9v12.5l10.6-12.5h5.9v0.2l-9.3,11.1l10,16.6v0.2h-6.4L503.5,16z"/>
	<path class="st3" d="M520.9,0.4h16.8v4.5h-11v7h9.5v4.4h-9.5v7.8h11.2v4.5h-17V0.4z"/>
	<path class="st3" d="M542.6,0.4h5.9v28.2h-5.9V0.4z"/>
	<path d="M425.5,101l0.4-15.1l0.6-0.3c5.4,3.6,11.3,6.3,19,6.3c6.4,0,9.5-2.5,9.5-6.5c0-3.7-2-5.3-8.4-7.4l-4.7-1.4
		c-10.4-3.2-16.4-9.1-16.4-19.8c0-13.7,9.6-20.9,24.5-20.9c7.8,0,14.1,1.5,18.3,3.8v14.1l-0.6,0.3c-5-3-10.5-4.7-17.1-4.7
		c-5.7,0-8.4,2.3-8.4,5.5c0,3.2,1.5,5.7,6.9,7.4l4.5,1.4c13.4,3.8,19.1,8.5,19.1,20.1c0,14.3-10,22-26.5,22
		C436.5,105.8,430,103.6,425.5,101z"/>
	<path d="M493.4,72.2v32.7h-14.8V57.6h13.9l0,5.9c3-3.5,8.7-7,15.4-7c5.8,0,10.3,2.2,12.6,7.6c3.2-4.1,9-7.6,16.2-7.6
		c8.3,0,14.4,5,14.4,16.6v31.8h-14.9V76.3c0-5.3-2.3-6.7-5.8-6.7c-2.8,0-6.1,0.9-8.2,2.6v32.7h-14.8V76.3c0-5.3-2.3-6.7-5.8-6.7
		C498.9,69.6,495.4,70.4,493.4,72.2z"/>
	<path d="M585.1,100.2c-2.4,3.3-6.2,5.8-13,5.8c-8.8,0-15.4-4.7-15.4-14.1c0-9.9,7-13.5,18.6-15.5l8.8-1.1c0-5.5-2.7-7.4-8.9-7.4
		c-6.4,0-10.4,1.6-14.1,3.6l-0.6-0.2V60.2c3.7-2.1,9.4-3.7,17.2-3.7c13.7,0,21.1,5.3,21.1,19.2v29.1h-13.6L585.1,100.2z M584,92.9
		v-8.4l-5.6,0.8c-5.2,0.8-7.5,2.3-7.5,5.8c0,3.2,1.8,5.3,5.9,5.3C580.2,96.3,582.5,94.9,584,92.9z"/>
	<path d="M620.7,74.9v30h-14.8V57.6h14l0,8.1c2.5-4.4,6.9-8.8,13.1-8.8c1.5,0,2.8,0.2,3.8,0.3v13.9l-0.5,0.3
		c-1.1-0.3-2.7-0.4-4.1-0.4C626.9,71,623.4,72,620.7,74.9z"/>
	<path d="M661.2,105.8c-8.2,0-14.7-2.7-14.7-12.5V68.9h-5.3V57.6h5.3v-7.6l14.8-2.3v9.9h9.4v11.3h-9.4v21.6c0,3.2,1.5,4.3,4.6,4.3
		c1.6,0,3.3-0.6,4.4-0.9l0.5,0.3v10.5C668.6,105.3,665,105.8,661.2,105.8z"/>
	<path d="M776.8,79.6c0-16.3,11.5-26.1,26.8-26.1c15.3,0,26.8,9.8,26.8,26.1c0,16.3-11.6,26.3-26.8,26.3
		C788.3,105.9,776.8,95.9,776.8,79.6z M814.5,79.7c0-10-4.4-14.8-10.9-14.8c-6.5,0-10.8,4.8-10.8,14.8c0,10,4.4,14.8,10.8,14.8
		C810.1,94.5,814.5,89.7,814.5,79.7z"/>
	<path d="M853.5,73v31.8h-15.7V54.7h14.8l0,8.6c2.6-4.6,7.3-9.4,13.9-9.4c1.5,0,3,0.2,4,0.4V69l-0.5,0.4c-1.2-0.3-2.8-0.5-4.4-0.5
		C860,68.9,856.4,69.9,853.5,73z"/>
	<path d="M897.1,85.2l-4.1,5.4v14.2h-15.7V41.2l15.7-2.6v36l14.9-19.8h15.7v0.7l-14.7,19.2l15.7,29.4v0.7h-16.8L897.1,85.2z"/>
	<g>
		<polygon points="759.5,105.3 780.6,41.3 780.4,40.6 764.4,40.6 753.5,74.7 741.5,40.6 722.7,40.6 722.7,41.3 723,42.3 
			746.3,101.2 747.8,105.3 		"/>
		<polygon points="725.6,62.3 720.5,75.6 708.9,40.6 689.6,40.6 689.6,41.3 712,105.3 722.3,105.3 732.2,79.7 		"/>
	</g>
</g>
</svg>
