<svg id="レイヤー_1" data-name="レイヤー 1" xmlns="http://www.w3.org/2000/svg" xmlns:xlink="http://www.w3.org/1999/xlink" viewBox="0 0 664 2566"><defs><style>.cls-1,.cls-6,.cls-7,.cls-8{fill:none;}.cls-2{fill:#eaeaea;}.cls-3{clip-path:url(#clip-path);}.cls-4{fill:#d5d5d5;}.cls-5{fill:#f4f4f4;}.cls-6{stroke:#ff0;}.cls-6,.cls-7,.cls-8{stroke-miterlimit:10;}.cls-7{stroke:#fa46a1;}.cls-8{stroke:#4affcf;}</style><clipPath id="clip-path"><rect id="SVGID" class="cls-1" width="664" height="2638.35"/></clipPath></defs><title>section_bgA_1</title><rect class="cls-2" width="664" height="2640.35" rx="0.01" ry="0.01"/><g class="cls-3"><polygon class="cls-4" points="-3.41 285 -12.41 285 138.41 -188 147.41 -188 -3.41 285"/><polygon class="cls-5" points="547.09 761 502.09 761 652.91 288 697.91 288 547.09 761"/><line class="cls-6" x1="114.25" y1="21.5" x2="189.67" y2="-215"/><line class="cls-7" x1="603.25" y1="706.17" x2="678.67" y2="469.67"/><polygon class="cls-4" points="-22.41 1431 -49.41 1431 101.41 958 128.41 958 -22.41 1431"/><polygon class="cls-5" points="499.09 2081 475.09 2081 625.91 1608 649.91 1608 499.09 2081"/><line class="cls-6" x1="106.09" y1="1092.68" x2="181.5" y2="856.18"/><line class="cls-7" x1="504.26" y1="2272.65" x2="579.67" y2="2036.15"/><line class="cls-8" x1="-43.45" y1="1895.13" x2="107.38" y2="1422.13"/></g></svg>