<svg xmlns="http://www.w3.org/2000/svg" viewBox="0 0 1148.89 633.63"><defs><style>.cls-1{fill:none;stroke:#fff;stroke-miterlimit:10;stroke-width:5.25px;}.cls-2{fill:#fff;}</style></defs><title>アセット 6</title><g id="レイヤー_2" data-name="レイヤー 2"><g id="レイヤー_2-2" data-name="レイヤー 2"><path class="cls-1" d="M919.56,553.39a15.76,15.76,0,0,1,13.9-17.34l35.75-3.86c-.33-1.29-.58-2.53-.8-3.82L911,504a15.71,15.71,0,1,1,12.26-28.93l49.55,21c.46-1,1-1.84,1.55-2.84l-44.26-36.64a15.72,15.72,0,0,1,20.08-24.2l47.16,39.07c1.15-.55,2.23-1.08,3.36-1.56l-28.43-43.06a15.71,15.71,0,1,1,26.22-17.3l39.17,59.28a46.76,46.76,0,0,1,6.85,2.73l8.74-34.7a18.73,18.73,0,1,1,36.31,9.23l-16.29,64.72a54.07,54.07,0,0,1-2.11,25.2L1145,597.14,1110.75,630l-65.89-63.48a53.26,53.26,0,0,1-56.07-4.83l-51.86,5.65A15.72,15.72,0,0,1,919.56,553.39Z"/><path class="cls-1" d="M229.33,133.84a15.76,15.76,0,0,1-13.9,17.34L179.68,155c.33,1.29.57,2.52.8,3.82l57.44,24.38a15.71,15.71,0,1,1-12.26,28.92l-49.55-21c-.46,1-1,1.84-1.56,2.84l44.27,36.64a15.72,15.72,0,0,1-20.08,24.2l-47.16-39.08c-1.15.56-2.23,1.09-3.36,1.57l28.43,43.06a15.71,15.71,0,1,1-26.22,17.3l-39.17-59.28a46.76,46.76,0,0,1-6.85-2.73L95.66,250.4a18.73,18.73,0,1,1-36.3-9.22l16.29-64.72a54,54,0,0,1,2.1-25.21L3.94,90.08l34.2-32.84L104,120.72a53.26,53.26,0,0,1,56.07,4.83L212,119.9A15.72,15.72,0,0,1,229.33,133.84Z"/><path class="cls-2" d="M913,317.06c55.17,30.22-13.56,112.88-76.61,112.78,13.61,35.67,18.39,57.17-15,81.9-29.82,22.18-83.49,10-112.16-15.67,39.29,38.94-25.6,84.69-58.08,94.05-39.06,11.32-102.75,2.78-131.38-45.51-1.76,53-161.57,84.64-145.5-30.7-27.18,2.32-64.95,1.75-90-8.43-21.86-8.9-55.5-44.16-33-58.9,0-.1,0-.2,0-.3.29-1.7,4.41-4,12.64-5a12.58,12.58,0,0,0,2.15-.42C225.9,422,189.21,390.3,204.23,336.34c10.29-37.17,69-73.51,100.16-40.06-33.16-69.72,74.41-99.83,114.21-80.73-67.12-73.59,50-149.69,115.64-91.47-8.55-78.89,159.18-96.8,162.26-14.72,15.5-26.1,55.77-20.42,79-8.28,36.36,19,40.81,43,32.6,76.57,28.87-11.44,84.72-2.36,100.6,28.82,18,35.16,2.51,75.48-26.9,101.3a100.74,100.74,0,0,1,25.38,6.51c25.07-29.58,32.37-67.06,17.7-98.73-15.12-32.87-60.52-46.35-94.44-43.81C834,146.61,828,120.32,791,99c-24.24-14-57-17.77-77.35-7.71a59.65,59.65,0,0,0-13.6-20.72c-15.73-15.86-41.56-25-70.62-25-33.46,0-64.21,11.61-82.26,30.81A65.44,65.44,0,0,0,533,100a93.84,93.84,0,0,0-47.89-12.6c-37.12,0-72.62,20.59-86.4,50.17-7.92,16.92-8.3,34.95-1.59,52.71-33.74-2.52-79.55,9.67-99.52,40A56.75,56.75,0,0,0,288,260.09C252.86,251,204,280.68,192.13,317.48c-10,31-9.5,73.57,42.4,109.39a26.23,26.23,0,0,0-8.21,15.54c-4,25.76,27.58,54.63,45.53,62.84,25.84,11.62,61.3,13.45,80.62,13.52-1.62,27,7.2,44.22,15.65,54.25,14.34,17.21,37.5,26.6,65.31,26.6,30.45,0,63.45-11.63,79.82-31.69,26.35,30,66.67,41.3,99,41.3a131.28,131.28,0,0,0,31-3.53c27.62-6.8,71.09-33.09,80.66-64.81a41.55,41.55,0,0,0,1.67-8.1c32.37,14.93,71.35,15.92,95-.19,35.82-24.31,36.74-49.31,28.15-80,46.2-6.84,92.24-46.8,95.66-86C945.47,355.36,943.53,331.4,913,317.06Z"/><path class="cls-2" d="M980.75,287.82l7.37-27.12-21.8,17.7-23.56-15.46,9.88,26.29-21.81,17.63L959,305.45l10,26.29,7.22-27.12,28-1.35ZM973,300.68l-4.82,17.86-6.58-17.31-18.42.93,14.32-11.58-6.42-17.27,15.38,10.15,14.41-11.63L976,289.7l15.58,10.15Z"/><path class="cls-2" d="M431.78,29.5,410,47.21,386.4,31.74,396.29,58l-21.8,17.63,28.09-1.41,10,26.3,7.22-27.13,28.08-1.35L424.39,56.63Zm3.51,39.15-18.6.84-4.84,17.86L405.3,70,386.89,71,401.2,59.38l-6.43-17.26,15.39,10.14,14.4-11.63-4.88,17.88Z"/><path class="cls-2" d="M218.08,450.77l-23.52-15.42L202,408.22l-21.81,17.7-23.57-15.5,9.9,26.29-21.81,17.63L172.75,453l10,26.29L190,452.14ZM182,466l-6.55-17.32-18.41.95,14.31-11.59-6.43-17.25,15.39,10.11,14.4-11.63-4.88,17.89,15.61,10.15-18.59.83Z"/><path class="cls-2" d="M679.63,26.14l5.89,15.35,4.22-15.85,16.41-.79-13.75-9L696.73,0,684,10.34l-13.75-9L676,16.66,663.26,27Z"/><path class="cls-2" d="M216.84,478.65,206.49,487l-11.19-7.29L200,492.18l-10.33,8.36,13.32-.65,4.76,12.5,3.44-12.92,13.32-.64-11.15-7.34Zm1.67,18.54-8.83.42-2.3,8.47-3.11-8.2-8.74.45,6.8-5.54-3.06-8.17,7.31,4.82,6.84-5.54-2.31,8.51Z"/><path class="cls-2" d="M906.48,125.56l4.29-15.84-12.72,10.34-13.76-9,5.78,15.35-12.73,10.29,16.41-.81,5.85,15.35,4.22-15.85,16.37-.79Zm-4.52,7.5-2.81,10.43-3.8-10.1-10.79.53,8.35-6.76-3.72-10.09,9,5.93,8.43-6.78-2.88,10.43,9.12,5.92Z"/><path class="cls-2" d="M867.16,537.73l-12.77,10.33-13.75-9,5.77,15.35-12.72,10.26,16.37-.8L856,579.22l4.22-15.84,16.41-.8-13.75-9Zm2.05,22.83-10.86.54-2.86,10.41-3.83-10.11-10.72.53,8.36-6.76-3.8-10.11,9,5.93,8.39-6.76-2.81,10.41Z"/><path class="cls-2" d="M321,150.27,308.23,160.6l-13.76-9,5.78,15.34-12.73,10.3,16.39-.82,5.88,15.35L314,175.91l16.39-.8-13.73-9Zm2,22.85-10.86.49L309.33,184l-3.82-10.11-10.75.54,8.36-6.77-3.76-10.08,9,5.92,8.42-6.78-2.85,10.43Z"/></g></g></svg>