<svg id="レイヤー_1" data-name="レイヤー 1" xmlns="http://www.w3.org/2000/svg" xmlns:xlink="http://www.w3.org/1999/xlink" viewBox="0 0 787.1 97.5"><defs><style>.cls-1{fill:url(#名称未設定グラデーション);}.cls-2{fill:url(#名称未設定グラデーション_2);}.cls-3{fill:url(#名称未設定グラデーション_6);}.cls-4{fill:url(#名称未設定グラデーション_8);}.cls-5{fill:url(#名称未設定グラデーション_13);}.cls-6{fill:url(#名称未設定グラデーション_14);}.cls-7{fill:url(#名称未設定グラデーション_15);}.cls-8{fill:url(#名称未設定グラデーション_16);}.cls-9{fill:url(#名称未設定グラデーション-2);}</style><linearGradient id="名称未設定グラデーション" x1="-9" y1="1005.75" x2="765.01" y2="1005.75" gradientTransform="translate(0 -984)" gradientUnits="userSpaceOnUse"><stop offset="0" stop-color="#3bd1ff"/><stop offset="0.54" stop-color="#00f0a4"/><stop offset="1" stop-color="#04ff00"/></linearGradient><linearGradient id="名称未設定グラデーション_2" y1="1005.8" x2="765.01" y2="1005.8" xlink:href="#名称未設定グラデーション"/><linearGradient id="名称未設定グラデーション_6" y1="1005.9" x2="765.01" y2="1005.9" xlink:href="#名称未設定グラデーション"/><linearGradient id="名称未設定グラデーション_8" y1="1005.95" x2="765.01" y2="1005.95" xlink:href="#名称未設定グラデーション"/><linearGradient id="名称未設定グラデーション_13" y1="1005.65" x2="765.01" y2="1005.65" xlink:href="#名称未設定グラデーション"/><linearGradient id="名称未設定グラデーション_14" y1="1005.45" x2="765.01" y2="1005.45" xlink:href="#名称未設定グラデーション"/><linearGradient id="名称未設定グラデーション_15" x2="765" xlink:href="#名称未設定グラデーション"/><linearGradient id="名称未設定グラデーション_16" y1="1005.7" x2="765.01" y2="1005.7" xlink:href="#名称未設定グラデーション"/><linearGradient id="名称未設定グラデーション-2" x1="176.74" y1="78.25" x2="610.36" y2="78.25" gradientTransform="matrix(1, 0, 0, 1, 0, 0)" xlink:href="#名称未設定グラデーション"/></defs><title>top_h1_en</title><path class="cls-1" d="M24.1,9.3V43H14.3V9.3H0V.5H38.4V9.4H24.1Z"/><path class="cls-2" d="M111.9.5h12.2l-18,20.6,18.7,22H112.4L95,21.4V43H85.3V.5H95V20.7Z"/><path class="cls-1" d="M136,.5l9.6,17.2L155.2.5h11.3l-16,26V43.1h-9.7V26.4L124.7.4H136Z"/><path class="cls-2" d="M42,.4V43.2H82V.4ZM72.8,33.8H51.2V9.7H72.9V33.8Z"/><path class="cls-2" d="M167.5.4V43.2h39.9V.4Zm30.8,33.4H176.6V9.7h21.7Z"/><path class="cls-3" d="M325.1,43.2H314.2L311,34.3H294.1l-3.2,8.9H280L296.2.6h12.6ZM302.5,10l-5.8,16h11.7Z"/><path class="cls-3" d="M340.6.6,350,31.4,359.4.6h14.1V43.2h-9.2V22.7c0-1.4.3-10.4.3-12l-10,32.5h-9.1L335.4,10.7c.1,1.4.3,10.6.3,12V43.2h-9.2V.6Z"/><path class="cls-4" d="M410.9.6V9.5H386.4v7.9H410v8.5H386.4v8.5h25.1v8.9H376.6V.6Z"/><path class="cls-3" d="M487.5.6V16.8h20.8V.6H518V43.2h-9.7V25.7H487.5V43.2h-9.7V.6Z"/><path class="cls-3" d="M573,.6l4.8,32.9L582.5.6h12.9l4.8,32.9L605,.6h10l-8.2,42.6H593.7l-4.8-32.5-4.8,32.5h-13L562.8.6Z"/><path class="cls-3" d="M521.6.5V43.3h39.9V.5ZM552.4,34H530.7V9.9h21.7Z"/><polygon class="cls-3" points="278.8 15.4 278.8 0.5 238.8 0.5 238.8 43.3 278.8 43.3 278.8 28.5 278.8 19.2 269.6 19.2 258.7 19.2 258.7 28.5 269.6 28.5 269.6 34 248 34 248 9.9 269.6 9.9 269.6 15.4 278.8 15.4"/><polygon class="cls-5" points="474 9 474 0.2 439.1 0.2 439.1 4.2 439.1 9 439.1 17.3 439.1 23.4 439.1 26.1 465.1 26.1 465.1 34.3 439.1 34.3 439.1 43.1 465.1 43.1 474 43.1 474 34.3 474 26.1 474 24 474 17.3 447.9 17.3 447.9 9 474 9"/><path class="cls-6" d="M653.6,28.8c-2.8.3-4.5.8-4.5,4v1.3h28.6V43H639.4V34.5c0-4.1,0-13,10.5-14.2l13.8-1.6c3.1-.4,4.6-.9,4.6-4.6s-1.2-5.3-9.2-5.3c-9,0-9.4,1.1-9.5,6.4h-9.5c0-9.1.5-15.3,18.2-15.3C669.7,0,678,.8,678,13.6c0,5.5-1.4,8.3-3.3,10a14,14,0,0,1-8,3.6Z"/><path class="cls-7" d="M701.5,0c17.3,0,19.7,4,19.7,22.1,0,17.4-3.2,21.4-18.5,21.4-16.3,0-20.2-2-20.2-21.8C682.5,4.2,685.5,0,701.5,0Zm-9.3,21.9c0,12.7.7,12.8,10.2,12.8,8.1,0,9-.7,9-11.7,0-2.3-.1-9.5-.8-11.3-.9-2.5-3.9-2.8-8.8-2.8C692.8,8.9,692.2,9.1,692.2,21.9Z"/><path class="cls-8" d="M743.2.4V43h-9.8V9.3h-8.8V.4Z"/><path class="cls-1" d="M759.8,30.6c-.2,2.7.7,4.3,7.4,4.3,8.2,0,10.3-.9,10.3-10-1.6,1.4-3.3,3.1-11.9,3.1-8,0-16-1.4-16-13.7C749.6,0,758.5,0,767.9,0c16.5,0,19.3,3.3,19.3,20.3,0,18.3-1.6,23.2-19.6,23.2-10.8,0-17.4-1.8-17.4-12.9Zm17.7-16.9c0-4.9-2.7-5.1-10-5.1-7,0-8.3.9-8.3,5.4s2.1,5.5,9,5.5C776,19.5,777.5,18.3,777.5,13.7Z"/><path class="cls-9" d="M183.46,90.07c-3.85,0-6.72-4-6.72-7.62V66.65c0-3.58,2.87-7.65,6.72-7.65h11.28c3.84,0,6.72,4.07,6.72,7.65V82.41c0,3.59-2.88,7.66-6.72,7.66Zm11.28-27.52H183.46v24h11.28Z"/><path class="cls-9" d="M224.16,90.07a6,6,0,0,1-6-6V72.74H213.7V87.08a3,3,0,0,1-6,0V72.18a3.06,3.06,0,0,1,3-3h7.47a6,6,0,0,1,6,6V86.56h.52a1.76,1.76,0,0,1,0,3.51Z"/><path class="cls-9" d="M235.87,90.07a6,6,0,0,1-6-6V75.17a6,6,0,0,1,6-6h5a6,6,0,0,1,6,6V76a6,6,0,0,1-6,6h-5v4.56h8.74a1.76,1.76,0,0,1,1.76,1.76,1.79,1.79,0,0,1-1.76,1.79Zm5-17.37h-5v5.72h5Z"/><path class="cls-9" d="M285.76,90.07a6,6,0,0,1-3-.82,5.8,5.8,0,0,1-3,.82h-6.12c-3.85,0-6.76-4.07-6.76-7.66v-20a3.41,3.41,0,0,1,3.4-3.4,3.38,3.38,0,0,1,3.36,3.4V86.52h6.12V62a3,3,0,0,1,3-3,3,3,0,0,1,3,3v24.5h6.12V62.4a3.38,3.38,0,1,1,6.76,0v20c0,3.59-2.91,7.66-6.76,7.66Z"/><path class="cls-9" d="M310.58,90.07a6,6,0,0,1-6.05-6V75.17a6,6,0,0,1,6.05-6h5.11a6,6,0,0,1,6,6v8.89a6,6,0,0,1-6,6Zm5.11-17.37h-5.11V86.52h5.11Z"/><path class="cls-9" d="M327.34,75.17a6,6,0,0,1,6.05-6h4.33a1.75,1.75,0,0,1,1.76,1.75,1.79,1.79,0,0,1-1.76,1.79h-4.33V87.08a3,3,0,0,1-6.05,0Z"/><path class="cls-9" d="M343.88,62a3,3,0,0,1,6.05,0V87.08a3,3,0,0,1-6.05,0Z"/><path class="cls-9" d="M373.08,90.07a6,6,0,0,1-4-1.46,1.77,1.77,0,0,1-1.72,1.46h-5.68a6,6,0,0,1-6-6V75.17a6,6,0,0,1,6-6h5.34V62a3,3,0,0,1,3-3,3,3,0,0,1,3,3v24.5h.44a1.82,1.82,0,0,1,1.8,1.79,1.8,1.8,0,0,1-1.8,1.76Zm-6-17.37h-5.34V86.56h5.87a6.09,6.09,0,0,1-.53-2.5Z"/><path class="cls-9" d="M380.35,93.21a1.61,1.61,0,0,1-1.12.44,1.63,1.63,0,0,1-1.6-1.6,1.66,1.66,0,0,1,.52-1.12l1.64-1.68a3.36,3.36,0,1,1,5.6-2.51,3.41,3.41,0,0,1-.63,2,3.11,3.11,0,0,1-.3.44Z"/><path class="cls-9" d="M405.78,62.4a3.36,3.36,0,1,1,6.72,0V86.71a3.36,3.36,0,0,1-6.72,0Z"/><path class="cls-9" d="M435.76,90.07a6,6,0,0,1-6-6V72.74H425.3V87.08a3,3,0,0,1-6.05,0V72.18a3.06,3.06,0,0,1,3-3h7.46a6,6,0,0,1,6,6V86.56h.52a1.76,1.76,0,1,1,0,3.51Z"/><path class="cls-9" d="M443.74,72.7h-1.53A1.78,1.78,0,0,1,440.42,71a1.81,1.81,0,0,1,1.79-1.79h1.53V65.05a6,6,0,0,1,6-6h8.14a3,3,0,0,1-.15,6,3,3,0,0,1-3-2.5h-5v6.61h1.6A1.79,1.79,0,0,1,453.12,71a1.75,1.75,0,0,1-1.76,1.75h-1.6V87.08a3,3,0,0,1-3,3,3,3,0,0,1-3-3Zm11-.56a3,3,0,0,1,6.05,0V87.08a3,3,0,0,1-6.05,0Z"/><path class="cls-9" d="M483.92,90.07a6,6,0,0,1-6-6V72.74h-4.45V87.08a3,3,0,0,1-6,0V72.18a3.06,3.06,0,0,1,3-3h7.47a6,6,0,0,1,6,6V86.56h.52a1.76,1.76,0,1,1,0,3.51Z"/><path class="cls-9" d="M493.47,65.05a3,3,0,1,1,3-3A3,3,0,0,1,493.47,65.05Zm-3,7.13a3,3,0,0,1,3-3,3.07,3.07,0,0,1,3,3v14.9a3,3,0,0,1-3,3,3,3,0,0,1-3-3Z"/><path class="cls-9" d="M510.5,90.07a6,6,0,0,1-6.05-6V72.7h-1.54A1.78,1.78,0,0,1,501.12,71a1.81,1.81,0,0,1,1.79-1.79h1.54V62a3,3,0,0,1,6.05,0v7.14h1.56A1.79,1.79,0,0,1,513.82,71a1.75,1.75,0,0,1-1.76,1.75H510.5V86.52h1.75A1.81,1.81,0,0,1,514,88.31a1.79,1.79,0,0,1-1.79,1.76Z"/><path class="cls-9" d="M524.16,90.07a6,6,0,0,1-6-6V75.17a6,6,0,0,1,6-6h5a6,6,0,0,1,6,6V76a6,6,0,0,1-6,6h-5v4.56h8.74a1.75,1.75,0,0,1,1.75,1.76,1.78,1.78,0,0,1-1.75,1.79Zm5-17.37h-5v5.72h5Z"/><path class="cls-9" d="M554.43,90.07a1.75,1.75,0,0,1-1.75-1.76,1.78,1.78,0,0,1,1.75-1.79H558V62.4a3.38,3.38,0,0,1,6.76,0V82.45c0,3.59-2.91,7.62-6.76,7.62Z"/><path class="cls-9" d="M576.69,90.07a6,6,0,0,1-6.05-6V75.17a6,6,0,0,1,6.05-6h5.11a6,6,0,0,1,6,6v8.89a6,6,0,0,1-6,6ZM581.8,72.7h-5.11V86.52h5.11Z"/><path class="cls-9" d="M596,97.5a1.75,1.75,0,0,1-1.76-1.76A1.78,1.78,0,0,1,596,94h8.36V90.07h-4.89a6,6,0,0,1-6-6V72.18a3,3,0,0,1,3-3,3,3,0,0,1,3,3V86.52h4.89V72.18a3,3,0,0,1,3-3,3,3,0,0,1,3,3V91.49a6,6,0,0,1-6,6Z"/></svg>