<svg xmlns="http://www.w3.org/2000/svg" width="527.988" height="135" viewBox="0 0 527.988 135">
  <defs>
    <style>
      .cls-1 {
        fill: #00b4dc;
      }
    </style>
  </defs>
  <g id="レイヤー_2" data-name="レイヤー 2">
    <g id="object">
      <rect class="cls-1" width="10" height="135"/>
      <path class="cls-1" d="M38.03,20.146h4.86v4.5H39.11a15.863,15.863,0,0,0,3.636,3.635,7.98,7.98,0,0,0-2.916,3.636,10.882,10.882,0,0,1-1.8-2.016v6.623h-5V30.152a23.152,23.152,0,0,1-3.1,4.1,13.644,13.644,0,0,0-4.319-2.52,28.058,28.058,0,0,0,5.615-7.091H27.16v-4.5h5.867V18.418H26.692v-4.14h3.815a19.766,19.766,0,0,0-.863-2.916l1.835-.683H27.808V6.611h5.615V3.371l5.184.36c.467.037.719.109.719.432,0,.252-.18.36-.719.72V6.611H42.89v4.068H40.442l1.224.288c.36.071.5.179.5.431,0,.289-.216.361-.756.577a22.611,22.611,0,0,1-1.008,2.3h3.347v4.14H39.11a1.56,1.56,0,0,1-1.08.54Zm-3.959-9.467a18.636,18.636,0,0,1,.9,3.167l-1.656.432h2.627a17.541,17.541,0,0,0,1.369-3.6ZM44.4,5.711,46.921,6c2.988,0,8.063-1.476,10.007-2.231l2.844,3.743a.926.926,0,0,1,.18.5.544.544,0,0,1-.576.576,2.372,2.372,0,0,1-.972-.4,33.782,33.782,0,0,1-8.891,1.619v4.1H59.3V18.7H56.5V36.523H51.421V18.7H49.513c0,10.007-3.239,15.622-5.112,17.926a17.641,17.641,0,0,0-4.967-2.016c4.5-4.787,4.967-9.826,4.967-16.378Z"/>
      <path class="cls-1" d="M77.63,11.326H80.4v4.392H77.63v6.227l4.175.144c.252,0,.613.072.613.432,0,.252-.073.324-.829.828v1.224h9.323v4.356H81.589v2.159H95.124v4.535H62.8V31.088H76.442V28.929h-9.5V24.573h9.5V22.845H72.663V15.718H70.647A17.181,17.181,0,0,1,66.831,24.1a18.234,18.234,0,0,0-4.823-2.375c2.519-2.627,3.24-4.067,3.671-6.011H62.872V11.326h3.2V8.879H63.808V4.6H79.574V8.879H77.63ZM72.663,8.879h-1.8v2.447h1.8ZM89.256,3.588l5.256.323c.252,0,.468.072.468.324,0,.216-.108.361-.648.756v15.3c0,2.484-.432,3.78-6.551,3.744a14.472,14.472,0,0,0-1.548-5.111H82.022V6l5.075.288c.324.036.648.036.648.36,0,.432-.432.612-.828.756V18.67c.108,0,1.08.071,1.332.071,1.007,0,1.007-.431,1.007-1.691Z"/>
      <path class="cls-1" d="M101.248,31.628V26.049h21.129v-12.2H101.248V8.267h27.32V33.14h-6.191V31.628Z"/>
      <path class="cls-1" d="M143.223,31.664V33.5h-6.048V7.835H164.82V33.5h-5.975V31.664Zm15.622-5.327V13.2H143.223V26.337Z"/>
      <path class="cls-1" d="M185.378,4.02l6.083.215c.324,0,.756.036.756.432s-.576.612-.756.685v6.407h11.3v5.363H191.425c-.36,6.083-2.591,14-12.634,19.077a20.69,20.69,0,0,0-4.572-4.355c10.511-4.572,10.871-10.8,11.123-14.722H171.484V11.759h13.894Z"/>
      <path class="cls-1" d="M232.357,9.347a6.448,6.448,0,0,0,2.663-.361l3.564,2.628c-.216.865-1.188,4.716-1.4,5.508-1.836,6.3-3.924,11.015-8.531,15.37a19.747,19.747,0,0,1-6.407,4.283,18.6,18.6,0,0,0-4.572-4.212,21.827,21.827,0,0,0,9.791-7.342,29.04,29.04,0,0,0,4.355-10.763H214.611v7.7h-5.9V9.347h11.266V3.875l6.155.252c.289,0,.792.036.792.36,0,.4-.54.613-.792.684V9.347Z"/>
      <path class="cls-1" d="M262.885,35.731h-6.191V19.354a65.2,65.2,0,0,1-9.971,5.111,17.631,17.631,0,0,0-4.319-5.148C256.118,15.43,264.721,5.64,266.917,2.832L271.7,6.611a.834.834,0,0,1,.432.684c0,.324-.288.468-.576.468a2.247,2.247,0,0,1-.72-.108,70.606,70.606,0,0,1-7.955,7.379Z"/>
      <path class="cls-1" d="M291.362,6.144c.4.035.828.035.828.5,0,.432-.468.612-.612.684v8.783c0,9.467-4.607,13.462-8.927,17.17a18.3,18.3,0,0,0-4.859-3.924,19.175,19.175,0,0,0,5.831-5.543c.432-.684,1.764-2.772,1.764-7.379V5.855Zm9.179-.289c.4.037.684.037.684.4,0,.324-.36.5-.684.648v17.53A38.592,38.592,0,0,0,309.864,15a16.755,16.755,0,0,0,2.772,5.4,61.861,61.861,0,0,1-10.115,9.971c-1.44,1.044-2.844,2.159-4.247,3.239l-3.816-2.447c.072-.972.144-1.872.144-2.88V5.531Z"/>
      <path class="cls-1" d="M318.507,11.362v-5.4H336.9a9.9,9.9,0,0,0,2.484-.288l2.807,3.059a11.037,11.037,0,0,0-1.367,2.3,61.883,61.883,0,0,1-4.572,8.819c1.512,1.153,8.1,6.623,10.8,9.863-1.188,1.368-3.132,3.528-4.32,4.9a49.377,49.377,0,0,0-9.683-10.259c-3.455,4.14-9.107,8.784-13.822,10.763a16.086,16.086,0,0,0-4.1-4.931,30.267,30.267,0,0,0,11.7-7.2c4.1-3.96,5.579-7.487,7.2-11.627Z"/>
      <path class="cls-1" d="M367.538,24.249a22.816,22.816,0,0,1,3.707,4.68c-.54.323-2.951,1.8-3.671,2.339a21.19,21.19,0,0,0-2.556-4.211c-.072.359-.432.431-.756.5V30.44c0,1.4.576,1.62,2.088,1.62h3.06c.864,0,2.159,0,2.987-3.959a8.266,8.266,0,0,0,4.284,2.628c-.828,2.771-1.08,3.743-2.34,4.642-.432.324-1.008.612-2.772.612h-8.243c-3.527,0-3.959-1.511-3.959-3.708V28.82c-.252.252-.9.18-1.224.144a31.879,31.879,0,0,1-3.959,7.344,14.277,14.277,0,0,0-4.068-2.772c.792-.9,2.34-2.736,3.924-7.344a14.479,14.479,0,0,0-4.176-2.015c2.807-5.039,2.807-8.315,2.807-12.6V6.647h15.263c-.144-1.728-.144-2.591-.181-3.492l5.184.4c.288.036.612.071.612.4,0,.4-.4.613-.972.865.036.576.036,1.007.108,1.835h2.88a12.979,12.979,0,0,0-1.692-1.872l3.348-2.339a26.235,26.235,0,0,1,3.311,3.708c-.432.252-.576.359-.792.5h3.708v4.391h-7.163l4.967,1.981a.525.525,0,0,1,.324.467c0,.468-.432.54-1.08.612a44.57,44.57,0,0,1-3.384,5.832,2.88,2.88,0,0,0,1.513.9c.827,0,1.151-1.655,1.3-2.771a8.928,8.928,0,0,0,3.888,2.771c-.252,2.268-1.3,4.428-2.2,5.075a3.086,3.086,0,0,1-1.944.576,29.119,29.119,0,0,1,4.356,6.3,13.185,13.185,0,0,0-2.2,1.152c-1.764,1.187-1.98,1.3-2.34,1.547a25.206,25.206,0,0,0-4.355-7.019L378.7,26.3a8.8,8.8,0,0,1-4.355-2.844,29.8,29.8,0,0,1-3.384,3.2,11.992,11.992,0,0,0-4-3.2l.072-.036h-5.292v1.116h-4.175V16.114h10.4v6.659a29.709,29.709,0,0,0,3.455-3.276,26.814,26.814,0,0,1-2.915-8.459H357.351c.072,2.736-.108,9.467-2.88,14.759l4.428,2.052a1.445,1.445,0,0,1,.468.288V26.121l4.895.468c.144,0,.288.036.432.036a1.523,1.523,0,0,0-.216-.252Zm.72-12.311v3.2H357.891v-3.2Zm-6.516,7.091v1.405h2.52V19.029Zm11.483-7.991a27.592,27.592,0,0,0,1.188,4.32,19.977,19.977,0,0,0,1.728-4.32Z"/>
      <path class="cls-1" d="M400.226,30.368a37.216,37.216,0,0,1-10.33,5.94,13.94,13.94,0,0,0-3.708-4,30.84,30.84,0,0,0,10.294-5.291h-9.754V22.593h2.628c-.072-.072-.145-.216-.181-.252l-2.663-3.888a74.4,74.4,0,0,0,9.5-6.263,15.056,15.056,0,0,0,1.836,3.707c-1.98,1.657-4.248,3.493-7.6,5.832a1.658,1.658,0,0,1-.036.864h10.007V21.226a19.379,19.379,0,0,1-2.088,1.007,13.312,13.312,0,0,0-3.383-3.42c3.671-1.62,6.767-3.347,7.487-7.451l-5.183.073-.073-4.824,5.616-.072a29.147,29.147,0,0,0-.036-2.951l5.111.323c.72.036.936.072.936.36,0,.4-.612.612-.936.72-.036.216-.072,1.188-.072,1.476l6.48-.071L413.8,15.97c-.036.612.216.648.576.648.864,0,1.188-.18,1.476-3.311a10.551,10.551,0,0,0,4.5,1.8c-.54,6.191-2.484,6.191-4.608,6.191h-3.528c-2.555,0-3.455-1.224-3.383-3.6l.216-6.407h-1.8a12.954,12.954,0,0,1-4.823,8.5l3.419.181c.288,0,.936.035.936.468,0,.323-.252.467-.936.863v1.3h13.5v4.428h-9.215a36.9,36.9,0,0,0,9.719,4.967,17.436,17.436,0,0,0-3.2,4.32,37.191,37.191,0,0,1-10.8-6.732v6.732h-5.615ZM388.888,8.051a31.767,31.767,0,0,1,5.363,2.628,36.039,36.039,0,0,0-2.484,3.743,22.622,22.622,0,0,0-5.255-2.592Zm2.735-5.327a28.338,28.338,0,0,1,5.255,2.735c-1.4,2.016-1.583,2.232-2.519,3.779a21.7,21.7,0,0,0-5.148-2.807Z"/>
      <path class="cls-1" d="M455.34,6.575v4.5h-23.5v5.8a42.092,42.092,0,0,1-.9,10.618,22.594,22.594,0,0,1-3.924,8.891,14.1,14.1,0,0,0-4.5-2.375,20.909,20.909,0,0,0,4.211-10.8l-2.339,1.4c-.072.217-.252.613-.648.613-.36,0-.5-.432-.576-.613l-1.332-4.39a51.975,51.975,0,0,0,5.183-2.124V15.43a13.8,13.8,0,0,0-2.447,1.4,18.735,18.735,0,0,0-2.736-5.147l3.816-2.3c.54.828.863,1.332,1.367,2.2v-5h10.8V3.3l5.723.179c.324,0,.54.144.54.325,0,.323-.324.575-.756.827V6.575Zm0,24.405v4.643H430.215V30.98h3.023v-11.7l4.572.216c.18,0,.828.036.828.433,0,.252-.18.359-.432.5V30.98h2.3V17.626h-7.883V13.019H454.3v4.607h-8.6v3.563h7.415v4.824h-7.415V30.98Z"/>
      <path class="cls-1" d="M486.012,20.722c2.376,3.275,5.508,9.322,6.263,13.318a27.359,27.359,0,0,0-5.075,2.123,17.527,17.527,0,0,0-.9-3.636c-2.3.54-9.286,1.945-11.05,2.269-.18.468-.4.972-.756.972s-.54-.325-.612-.649l-1.008-4.175a20.174,20.174,0,0,1-2.771,5.112,29.122,29.122,0,0,0-3.2-2.268c-.576,1.548-2.052,2.987-6.983,2.663a14.565,14.565,0,0,0-1.368-5.183,14.609,14.609,0,0,0,2.556.288c.719,0,1.188-.072,1.188-1.26V24.429c-1.621.612-1.98.719-2.664.935-.144.324-.36.649-.612.649-.36,0-.432-.468-.468-.649l-.828-4.642c.936-.145,3.42-.865,4.572-1.189V13.594h-3.744V9.022h3.744V3.3l5.219.143a.512.512,0,0,1,.575.5c0,.288-.467.54-.863.72V9.022h2.015v4.572h-2.015v4.32c.576-.181,1.332-.469,2.015-.756-.071.72-.215,3.959-.252,4.608-.575.252-1.3.575-1.763.755v8.208c3.095-5.652,3.095-10.116,3.095-16.091V7.763h7.344V3.443l5.759.216c.36,0,.612.145.612.433,0,.4-.324.539-1.116.9V7.763h7.991v4.823H475.394c0,4.068,0,11.411-2.124,17.278.288-.036,1.476-.216,1.692-.252a139.953,139.953,0,0,0,3.815-16.2l5.435,1.224c.325.072.577.216.577.468,0,.288-.325.432-1.152.756-1.3,5.507-2.268,8.891-3.528,12.958,1.044-.179,3.492-.576,4.428-.719a44.343,44.343,0,0,0-2.7-4.968Z"/>
      <path class="cls-1" d="M494.62,17.05V11.866h13.642V2.976l5.652.288c.215,0,.683.036.683.467,0,.289-.36.468-.683.577v7.558H527.3V17.05H514.022A26.114,26.114,0,0,0,527.988,32.6c-3.024,2.339-3.708,3.492-4.176,4.283-3.635-1.619-9.359-6.623-12.634-13.246a27.66,27.66,0,0,1-14.038,13.39,12.811,12.811,0,0,0-3.816-4.787c3.024-1.188,12.023-4.607,14.4-15.19Z"/>
      <path class="cls-1" d="M44.978,56.015V51.228l5.507.108c.144,0,.756.035.756.539,0,.433-.5.648-.756.756v3.384h9.071v4.823H48.289V63.79H58.08c-.072,1.691-.072,9.179-.18,10.69-.324,5.148-.792,6.732-2.628,8.135a8.553,8.553,0,0,1-5.579,1.693c-.792,0-1.3-.073-1.8-.109A8.735,8.735,0,0,0,46.2,78.836a33.756,33.756,0,0,0,3.6.324,2.282,2.282,0,0,0,2.411-1.944c.648-2.087.685-6.227.685-8.53H48.109c-.972,9.9-6.047,14.5-8.5,16.053a15.553,15.553,0,0,0-4.463-3.059C43.142,76.532,43.142,68,43.142,63.466c0-1.224-.036-2.052-.072-2.628h-4.5V59.146c-1.115,2.772-1.44,3.528-1.943,4.608,1.08,1.584,3.347,5.22,3.347,8.531,0,5.291-5.471,5.615-6.839,5.687a13.875,13.875,0,0,0-1.008-3.095v9.538h-4.9V52.271h11.41l1.944,1.512a21.3,21.3,0,0,1-.792,2.232Zm-12.851.756v5.723a39.994,39.994,0,0,0,2.232-5.723Zm0,15.874c1.656.072,2.664-.144,2.664-1.188,0-.864-.36-3.2-2.664-6.119Z"/>
      <path class="cls-1" d="M93.828,62.026v5.255h-11.2V78.188h13v5.291H62.476V78.188h4.715V57.778l5.8.325c.325.036.792.108.792.54,0,.395-.719.683-1.007.755v18.79H77.09V51.552l5.724.252c.179,0,.791.036.791.5,0,.431-.612.792-.972.935v8.783Z"/>
      <path class="cls-1" d="M115.466,78.225c7.811-1.441,10.115-7.488,10.115-11.232a8.528,8.528,0,0,0-8.315-8.818c-1.117,13.174-6.552,23-10.367,23-2.808,0-8.027-4.751-8.027-11.41,0-7.74,7.055-16.775,17.638-16.775,7.883,0,14.758,5.363,14.758,13.967A16.764,16.764,0,0,1,127.02,78.08c-2.195,2.556-4.751,3.888-7.811,5.22A23.276,23.276,0,0,0,115.466,78.225ZM104.2,69.333c0,2.771,1.548,4.859,2.3,4.859.864,0,1.548-1.619,1.944-2.555a31.5,31.5,0,0,0,2.771-12.382C107.043,60.8,104.2,66.094,104.2,69.333Z"/>
      <path class="cls-1" d="M151.574,52.848c.324.071.72.215.72.575,0,.432-.5.469-.792.469-.144.575-.756,3.13-.9,3.634a22.866,22.866,0,0,0,5.975-1.763l.612,5.651a46.967,46.967,0,0,1-8.135,1.692,86.882,86.882,0,0,1-9.431,21.057,37.388,37.388,0,0,0-5.435-2.735,58.444,58.444,0,0,0,8.891-17.458c-2.2.179-2.628.179-6.587.216l-.468-5.9c1.08.072,2.339.145,4.175.145,1.62,0,2.7-.036,4.283-.145.5-2.7.756-5.039.973-6.8Zm2.7,21.669a3.529,3.529,0,0,0-.973,2.124.973.973,0,0,0,.648.935,13.212,13.212,0,0,0,4.824.612A26.008,26.008,0,0,0,166.692,77a15.6,15.6,0,0,0-.252,2.808,25.9,25.9,0,0,0,.216,2.988,43.646,43.646,0,0,1-7.451.611c-4.716,0-10.979-.683-10.979-5.8a9.77,9.77,0,0,1,1.4-4.716ZM152.582,64.33a46.087,46.087,0,0,1,7.955-.648,25.76,25.76,0,0,1,5.291.4c-.216,2.663-.252,3.239-.288,5.651a20.965,20.965,0,0,0-5.4-.648,66.309,66.309,0,0,0-7.559.648Z"/>
      <path class="cls-1" d="M179.583,53.819a31.276,31.276,0,0,0,.828,5.9,17.158,17.158,0,0,1,6.479-2.088,34.519,34.519,0,0,0,.54-6.192l6.083,1.405c.432.107.684.252.684.54,0,.5-.576.467-.756.467-.036.18-.684,3.24-.792,3.78a11.671,11.671,0,0,1,10.367,12.094c0,10.259-9.647,13.319-13.823,13.966a16.872,16.872,0,0,0-3.167-4.715A16.544,16.544,0,0,0,192.721,77c3.024-1.655,4.679-3.743,4.679-7.451,0-5.759-4.427-6.587-5.939-6.839a34.627,34.627,0,0,1-4.607,10.619c.4.5.684.9,1.656,2.016a27.142,27.142,0,0,0-4.572,4.139c-.5-.72-.72-1.044-1.044-1.584-3.383,3.1-5.507,3.276-6.731,3.276-3.167,0-5.363-2.3-5.363-6.192a17.489,17.489,0,0,1,5.111-11.77,72.32,72.32,0,0,1-2.159-7.559ZM177.891,68.47a11.493,11.493,0,0,0-2.088,5.9c0,.252,0,1.26,1.044,1.26,1.08,0,2.412-1.441,3.312-2.376C178.827,70.629,178.179,69.189,177.891,68.47Zm4.068-3.888a32.265,32.265,0,0,0,1.727,3.779,21.37,21.37,0,0,0,2.16-5.471A13.816,13.816,0,0,0,181.959,64.582Z"/>
      <path class="cls-1" d="M213.927,83.768a29.027,29.027,0,0,0-7.307-6.192l3.491-3.851a46.758,46.758,0,0,1,7.883,6.046Z"/>
      <path class="cls-1" d="M254.138,70.737c-1.008.864-2.807,2.736-2.807,3.923,0,2.592,4.931,2.592,6.443,2.592a50.278,50.278,0,0,0,14.434-2.159,27.285,27.285,0,0,0,.936,6.119,54.728,54.728,0,0,1-14.074,1.655c-5.615,0-7.847-.611-9.611-1.331-1.152-.469-4.571-2.16-4.571-5.8,0-3.743,3.743-7.091,5.219-8.423ZM269.256,58.9c-3.347,1.332-7.09,3.563-9.07,5.867-1.3-1.116-2.664-2.268-3.78-3.1,1.332-1.224,1.656-1.476,2.7-2.34-2.232.181-8.279.5-11.339.433l-.288-6.012a72.47,72.47,0,0,0,8.963.468,70.033,70.033,0,0,0,10.043-.827Zm1.584-5.616a25.745,25.745,0,0,1,3.276,3.78,14.562,14.562,0,0,0-2.124,2.591,39.776,39.776,0,0,0-3.455-3.995Zm2.772-3.059A38.464,38.464,0,0,1,277,53.747a14.376,14.376,0,0,0-2.3,2.448,30.3,30.3,0,0,0-3.132-3.528Z"/>
      <path class="cls-1" d="M297.589,84.415h-5.183v-9.61a35.676,35.676,0,0,1-10.547,9.178,12.458,12.458,0,0,0-4.607-3.563,30.857,30.857,0,0,0,11.555-9.215H278.44v-4.68h6.731a29.192,29.192,0,0,0-2.879-5.327l2.591-1.439h-4.751v-4.68h12.274V51.407l5.4.324c.432.037.792.073.792.54,0,.5-.719.612-1.008.684v2.124h12.2v4.68h-4.68l2.2.935c.252.109.36.252.36.432,0,.468-.432.54-.72.612a32.228,32.228,0,0,1-2.267,4.787h6.8v4.68H300.793a28.008,28.008,0,0,0,11.195,8.711,16.909,16.909,0,0,0-3.816,3.888,28.235,28.235,0,0,1-10.583-9.215Zm-5.183-17.89V59.759h-4.643a20.211,20.211,0,0,1,2.988,5.543,18.256,18.256,0,0,0-2.736,1.223Zm5.183-6.766v6.766h4.176a25.991,25.991,0,0,0-2.484-1.3,28.121,28.121,0,0,0,2.736-5.47Z"/>
      <path class="cls-1" d="M329.918,74.373a25.164,25.164,0,0,1-4.248,4.356,9.043,9.043,0,0,0-3.383-2.413c.648-.5,1.188-.9,2.016-1.62-2.232.972-4.968,2.016-7.883,2.989,0,.431-.145.935-.54.935-.36,0-.5-.468-.576-.828l-1.224-5.075a29.258,29.258,0,0,0,4.068-.756V63.79H314.44V59.11h3.708V51.623l5.327.288c.432.036.756.072.756.4,0,.252-.216.431-.756.683V59.11h3.2v4.68h-3.2v6.551c.863-.36,1.4-.575,2.267-.972h-.252V65.733H347.3v3.636h-13.93l-.684,1.152h14.362c0,3.635-.108,10.834-2.448,12.67-1.368,1.08-3.671,1.188-5.939,1.188a10.76,10.76,0,0,0-.972-3.887,27.674,27.674,0,0,1-4.283,4.5c-.936-1.008-1.512-1.3-3.816-2.3a25.078,25.078,0,0,0,7.6-8.315h-1.62a25.122,25.122,0,0,1-9.466,9.538,9.456,9.456,0,0,0-3.168-2.879,21.983,21.983,0,0,0,8.387-6.659Zm-3.276-5a15.78,15.78,0,0,0-.252,3.2,23.36,23.36,0,0,0,2.2-3.2Zm18.142-4.823h-16.81V51.875h16.81Zm-4.859-7.7V55.619h-7.091v1.224Zm-7.091,2.88v1.223h7.091V59.723Zm8.5,14.65a39.281,39.281,0,0,1-2.844,5c.432.036.828.072,1.26.072.719,0,1.367-.072,1.619-.9a18.29,18.29,0,0,0,.648-4.175Z"/>
      <path class="cls-1" d="M367.466,78.225c7.811-1.441,10.115-7.488,10.115-11.232a8.528,8.528,0,0,0-8.315-8.818c-1.117,13.174-6.552,23-10.367,23-2.808,0-8.027-4.751-8.027-11.41,0-7.74,7.055-16.775,17.638-16.775,7.883,0,14.758,5.363,14.758,13.967A16.764,16.764,0,0,1,379.02,78.08c-2.195,2.556-4.751,3.888-7.811,5.22A23.276,23.276,0,0,0,367.466,78.225ZM356.2,69.333c0,2.771,1.548,4.859,2.3,4.859.864,0,1.548-1.619,1.944-2.555a31.5,31.5,0,0,0,2.771-12.382C359.043,60.8,356.2,66.094,356.2,69.333Z"/>
      <path class="cls-1" d="M413.652,68.109h-11.59V66.382a17.679,17.679,0,0,1-2.772,2.592c-.5-.433-1.3-1.044-1.835-1.477a8.748,8.748,0,0,1,.648,3.636c0,5.4-2.952,5.508-5.76,5.651a11.632,11.632,0,0,0-.936-3.167V84.344h-4.283V52.308h9.358l1.656,1.547a25.018,25.018,0,0,1-.756,2.879,22.611,22.611,0,0,0,2.988-5.867l4.32,1.441c.251.071.359.215.359.359,0,.433-.539.54-.935.648H406.6c-.035-.252-.108-.719-.144-1.08l4.284-.971a14.835,14.835,0,0,0,1.008,4.859V53.315h6.3l2.412,2.52a56.4,56.4,0,0,1-4.356,6.083,18.518,18.518,0,0,0,4.175,2.808,24.244,24.244,0,0,0-3.131,3.779,12.858,12.858,0,0,1-3.492-2.556ZM391.407,56.7V63.07a37.162,37.162,0,0,0,1.728-6.371Zm0,15.262c.324,0,.828.072,1.08.072.828,0,1.26-.36,1.26-1.512a8.3,8.3,0,0,0-2.34-5.363Zm7.055-9.791a5.9,5.9,0,0,1-.647.684c-.937-.828-1.26-1.08-1.8-1.512-.468,1.44-.5,1.62-.756,2.268a6.565,6.565,0,0,1,1.26,1.944,16.176,16.176,0,0,0,2.987-2.484C399.254,62.854,398.858,62.494,398.462,62.17Zm16.2,11.879a35.115,35.115,0,0,1,5.8,5.759,17.388,17.388,0,0,0-4.068,3.168,32.99,32.99,0,0,0-5.579-5.868v3.924c0,1.3,0,3.743-6.7,3.312a14.862,14.862,0,0,0-1.584-5.112,22.923,22.923,0,0,1-2.988,4.139,23.522,23.522,0,0,0-4.283-2.447,23.579,23.579,0,0,0,4.751-6.875h-1.368V69.693h20.014v4.356ZM401.99,60.082c-.324-.252-.72-.54-1.152-.827-.36.468-.5.683-.72.935.324.252.612.5,1.116.936C401.738,60.442,401.846,60.3,401.99,60.082Zm2.448,15.91c.215.109.4.216.4.433,0,.395-.36.468-.828.5-.468.791-.9,1.439-1.44,2.267,1.008.144,2.052.252,2.375.252.9,0,.9-.36.9-1.223V74.049H400.37Zm-1.8-19.545c-.18.287-.252.4-.432.684.4.288,1.044.756,1.188.864a13.042,13.042,0,0,0,.864-1.548Zm9.071,7.379a23.635,23.635,0,0,1-3.564-5.975,41.965,41.965,0,0,1-3.923,5.975Zm2.772,10.223h-3.672v2.915Zm-2.592-17.567a12.9,12.9,0,0,0,1.188,2.161,12.368,12.368,0,0,0,1.548-2.161Z"/>
      <path class="cls-1" d="M431.8,54.215c.287.108.468.252.468.5,0,.432-.684.5-1.008.54a49.68,49.68,0,0,0-2.16,13.858,25.5,25.5,0,0,0,.252,3.6c.468-.684,1.224-1.836,1.692-2.556a15.081,15.081,0,0,0,2.591,3.564,15.982,15.982,0,0,0-2.987,8.819l-4.824.9a50.784,50.784,0,0,1-1.943-14.5,64.81,64.81,0,0,1,2.16-16.487Zm17.1-.792c.18.036.467.072.467.4,0,.432-.5.54-.827.577a39.779,39.779,0,0,0-.36,4.319,32.651,32.651,0,0,0,5.327-1.332v5.435c-.828.216-2.484.612-5.471,1.152a58.369,58.369,0,0,0,.575,8.279,20.091,20.091,0,0,1,6.84,3.707C454.872,77,453.792,79.34,453,81.032a12.73,12.73,0,0,0-3.851-2.736c-.145,4.607-4.752,5.147-7.02,5.147-5.4,0-8.1-2.951-8.1-6.3,0-4.285,4.248-5.9,8.927-5.8-.287-4.1-.324-4.572-.395-6.66-2.052.181-3.528.181-4.14.181a26.62,26.62,0,0,1-2.664-.108V59.11a37.949,37.949,0,0,0,6.767.252c0-1.511,0-4.679.037-7.018ZM441.445,75.74c-.792,0-2.519.252-2.519,1.368,0,.936,1.188,1.332,2.34,1.332.287,0,2.447,0,2.447-1.763a.992.992,0,0,0-.072-.469A5.1,5.1,0,0,0,441.445,75.74Z"/>
      <path class="cls-1" d="M44.582,108.154c1.763,1.117,4.1,2.628,5.147,3.456,5.255,4.211,5.8,4.643,6.875,5.9a43.25,43.25,0,0,0-4.175,4.642,36.565,36.565,0,0,0-7.847-7.27v17.529h-5.76V105.851H26.692V100.6H59.628v5.255H44.582Z"/>
      <path class="cls-1" d="M77.81,105.131v4H61.972v-4ZM76.55,120.1v11.843H71.511V130.9h-3.2v1.657H63.232V120.1ZM75.9,100.163v3.816H63.7v-3.816Zm0,10.115v3.78H63.7v-3.78Zm0,4.932v3.743H63.7V115.21Zm-7.595,9.143v2.3h3.2v-2.3Zm16.054-7.236v8.459c0,1.224.108,1.692,1.764,1.692h3.383c1.692,0,2.412,0,2.484-4.32a15.716,15.716,0,0,0,4.5,1.908C96.2,129.1,95.7,132.2,91.7,132.2H83.281c-4.067,0-4.463-2.483-4.463-4.283v-15.8h10.69v-7.343H78.674v-4.608H95.016v18.25H89.508v-1.3Z"/>
      <path class="cls-1" d="M115.466,126.225c7.811-1.441,10.115-7.488,10.115-11.232a8.528,8.528,0,0,0-8.315-8.818c-1.117,13.174-6.552,23-10.367,23-2.808,0-8.027-4.751-8.027-11.41,0-7.74,7.055-16.775,17.638-16.775,7.883,0,14.758,5.363,14.758,13.967a16.764,16.764,0,0,1-4.248,11.122c-2.195,2.556-4.751,3.888-7.811,5.22A23.276,23.276,0,0,0,115.466,126.225ZM104.2,117.333c0,2.771,1.548,4.859,2.3,4.859.864,0,1.548-1.619,1.944-2.555a31.5,31.5,0,0,0,2.771-12.382C107.043,108.8,104.2,114.094,104.2,117.333Z"/>
      <path class="cls-1" d="M142.683,124.389c.288.107.9.4.9.863,0,.54-.864.612-1.224.612a32.066,32.066,0,0,1-4.14,7.127,18.959,18.959,0,0,0-4.643-3.132,21.932,21.932,0,0,0,4.464-7.522Zm23-22.138v4.5H152.941v1.764h10.907V121.9H138.04V108.515h9.25V99.228l5.976.288c.144,0,.575,0,.575.467,0,.432-.467.54-.9.684v1.584Zm-21.957,10.942v4.176h14.506v-4.176Zm4.967,9.791a28.751,28.751,0,0,1,2.016,8.207,16.164,16.164,0,0,0-5.22,1.224,33.867,33.867,0,0,0-1.763-8.387Zm7.379-.467A35.694,35.694,0,0,1,159.1,130.9a15.214,15.214,0,0,0-5.4,1.405,30.441,30.441,0,0,0-2.555-8.459Zm7.091-.468c4.176,5.291,4.644,6.371,5.184,7.558a18.2,18.2,0,0,0-4.5,2.808,49.47,49.47,0,0,0-4.859-8.135Z"/>
      <path class="cls-1" d="M179.835,102.179c.684.252.972.36.972.612,0,.324-.721.4-.972.432a41.8,41.8,0,0,0-2.34,14.866,12.527,12.527,0,0,0,.252,2.88c.216-.4,1.08-1.98,1.512-2.7a10.575,10.575,0,0,0,2.771,2.951c-.9,1.691-2.555,5.867-2.375,8.6l-5.111,1.368a37.912,37.912,0,0,1-2.556-14.4c0-6.515,1.008-10.979,2.3-16.7Zm9.5,16.918a9.819,9.819,0,0,0-.54,2.555c0,1.584.865,1.836,5,1.836a36.65,36.65,0,0,0,8.891-.971,23.919,23.919,0,0,0-.54,5.867,76.381,76.381,0,0,1-9.107.468c-5.363,0-9.5-.936-9.5-5.328a13.335,13.335,0,0,1,1.188-5.291Zm-4.355-15.37c1.08.072,2.52.18,4.68.18a41.753,41.753,0,0,0,10.582-1.152,54.182,54.182,0,0,0,.5,5.472,53.588,53.588,0,0,1-11.086,1.08c-2.124,0-3.528-.109-4.68-.181Z"/>
      <path class="cls-1" d="M218.138,118.737c-1.008.864-2.807,2.736-2.807,3.923,0,2.592,4.931,2.592,6.443,2.592a50.278,50.278,0,0,0,14.434-2.159,27.285,27.285,0,0,0,.936,6.119,54.728,54.728,0,0,1-14.074,1.655c-5.615,0-7.847-.611-9.611-1.331-1.152-.469-4.571-2.16-4.571-5.8,0-3.743,3.743-7.091,5.219-8.423ZM233.256,106.9c-3.347,1.332-7.09,3.563-9.07,5.867-1.3-1.116-2.664-2.268-3.78-3.1,1.332-1.224,1.656-1.476,2.7-2.34-2.232.181-8.279.5-11.339.433l-.288-6.012a72.47,72.47,0,0,0,8.963.468,70.033,70.033,0,0,0,10.043-.827Zm1.584-5.616a25.745,25.745,0,0,1,3.276,3.78,14.562,14.562,0,0,0-2.124,2.591,39.776,39.776,0,0,0-3.455-4Zm2.772-3.059A38.464,38.464,0,0,1,241,101.747a14.376,14.376,0,0,0-2.3,2.448,30.3,30.3,0,0,0-3.132-3.528Z"/>
      <path class="cls-1" d="M260.258,116.182a28.676,28.676,0,0,0-2.664-2.449c-2.16.72-3.348,1.225-3.887,1.441a20.309,20.309,0,0,0-.721-2.124,74.738,74.738,0,0,1-8.242,2.987c-.073.288-.217,1.08-.792,1.08-.216,0-.5-.143-.612-.612l-1.08-4.787c.54-.108.684-.108,1.8-.4l-.72-10.978,3.059.539a18.7,18.7,0,0,0,9.287-2.051l2.988,4.067a1.459,1.459,0,0,1,.18.324V100.6H274.44c-.288,14.469-1.4,15.261-8.387,15.261a15.585,15.585,0,0,0-1.332-4.679,13.677,13.677,0,0,1-4.427,5h11.95v16.2h-5.4V131.3h-15.8v1.079h-5.364v-16.2Zm-1.4-11.16v-1.511a.5.5,0,0,1-.5.288c-.324,0-.468-.072-1.08-.432a32.778,32.778,0,0,1-8.531,1.655l.4,4.9c.324-.107.792-.252,2.124-.72a14.88,14.88,0,0,0-1.116-1.979l4.283-1.981a45.49,45.49,0,0,1,3.528,6.624,8.539,8.539,0,0,0,3.42-6.84Zm-2.484,16.991v-1.764h-5.327v1.764Zm0,5.363V125.5h-5.327v1.872Zm10.475-5.363v-1.764h-5.4v1.764Zm-5.4,3.491v1.872h5.4V125.5Zm4.788-20.482a16.019,16.019,0,0,1-1.26,5.581,8.612,8.612,0,0,0,1.98.359c1.188,0,1.728,0,2.088-5.94Z"/>
      <path class="cls-1" d="M286.719,125.756c.36.181.756.4.756.756,0,.468-.828.5-1.152.5a42.138,42.138,0,0,1-3.887,5.363,10.51,10.51,0,0,0-4.1-2.556,25.231,25.231,0,0,0,4.391-6.226Zm22.821-24.477V105.1H305c.037.431-.575.5-1.079.54-.18.395-.252.576-.468.971h8.207v3.888h-33.08v-3.888h7.667c-.18-.288-.468-.719-.72-1.08l1.692-.431h-6.659v-3.816H292.19V99.048l5.58.288c.215,0,.575.107.575.359,0,.288-.216.468-.575.684v.9Zm-14.83,21.957H283.551V111.79h22.93v11.446h-8.963a26.278,26.278,0,0,1,2.051,2.664c-.36.252-2.951,1.908-3.527,2.232a20.638,20.638,0,0,0-2.844-4Zm-2.628,1.044c.612.073,1.08.145,1.08.468s-.252.36-.9.54v2.088c0,1.08.684,1.151,1.332,1.151h4.716c1.3,0,1.835-1.295,2.267-3.059a10.956,10.956,0,0,0,4.248,2.124c-.613,2.34-1.26,4.787-5.364,4.787h-8.207c-3.023,0-3.635-1.079-3.635-3.2v-5.327Zm9.323-8.062v-1.513h-12.6v1.513Zm-12.6,2.555v1.548h12.6v-1.548Zm2.231-13.678q.594.918.972,1.511h5.652c.4-.792.467-.9.719-1.511Zm16.234,18.214A29.1,29.1,0,0,1,311.7,129a22.278,22.278,0,0,0-3.78,2.663,40.471,40.471,0,0,0-4.391-6.083Z"/>
      <path class="cls-1" d="M340.645,102.467c.215.18.359.324.359.54a.382.382,0,0,1-.431.4,2.134,2.134,0,0,1-.612-.144c-.72.684-6.587,5.256-7.812,6.3-1.655,1.4-3.671,3.13-5,4.319-1.152,1.044-1.26,1.187-1.26,1.476,0,.36.144.467,1.548,1.259.108.073,3.42,2.268,6.659,4.751a37.905,37.905,0,0,1,7.452,7.056,22.712,22.712,0,0,0-4.14,4.859c-1.584-2.34-7.523-8.6-18.142-15.478a2.512,2.512,0,0,1-1.223-2.123c0-.937.144-1.368,3.779-4.248a95.156,95.156,0,0,0,13.714-12.922Z"/>
      <path class="cls-1" d="M367.826,100.883c.288.072.612.144.612.469,0,.395-.5.5-.72.54-.18.575-.792,3.13-.9,3.634a25.965,25.965,0,0,0,5.939-1.835l.576,5.687a40.394,40.394,0,0,1-8.063,1.656,93.4,93.4,0,0,1-9.395,21.022,36.04,36.04,0,0,0-5.363-2.737,58.334,58.334,0,0,0,8.783-17.493c-1.008.036-5.58.18-6.48.216l-.467-5.831a31.122,31.122,0,0,0,4.067.216c1.368,0,3.024-.036,4.392-.145a42.5,42.5,0,0,0,.9-6.911Zm2.592,21.561a3.943,3.943,0,0,0-.973,1.945c0,1.151,1.044,1.727,5.22,1.727a20.856,20.856,0,0,0,7.919-1.475c-.036.683-.072,1.115-.072,2.088a24.124,24.124,0,0,0,.252,4.031,33.186,33.186,0,0,1-6.515.611c-4.32,0-11.807-.216-11.807-5.831,0-1.332.4-2.411,1.332-4.715Zm-1.692-10.15a38.911,38.911,0,0,1,7.415-.756,41.58,41.58,0,0,1,5.795.468,41.572,41.572,0,0,0-.36,5.687,19.378,19.378,0,0,0-5.543-.576,44.418,44.418,0,0,0-7.307.576Zm8.242-9.863a31.933,31.933,0,0,1,3.42,3.96,12.641,12.641,0,0,0-2.736,1.943,34.407,34.407,0,0,0-3.167-4Zm3.456-2.52a21.157,21.157,0,0,1,3.312,3.78,27.324,27.324,0,0,0-2.412,1.872,25.881,25.881,0,0,0-3.347-3.816Z"/>
      <path class="cls-1" d="M403.934,99.588a24.919,24.919,0,0,0,1.655,5.579c5-2.052,6.768-3.42,7.74-4.176,1.115,1.512,2.627,3.2,3.6,4.283a50.736,50.736,0,0,1-9.035,4.644c2.088,3.563,5.832,8.207,8.027,9.9l-3.708,3.2a17.521,17.521,0,0,0-9.574-2.736c-2.808,0-5.975.72-5.975,3.024,0,.935.936,3.671,7.486,3.671a20.11,20.11,0,0,0,8.459-1.8,25.5,25.5,0,0,0,1.081,5.651,32.516,32.516,0,0,1-9.288,1.26c-8.746,0-13.894-3.6-13.894-8.279,0-3.1,2.628-8.028,10.8-8.028a13.051,13.051,0,0,1,3.887.433c-.683-1.044-1.259-1.981-2.591-4.392a65.669,65.669,0,0,1-12.491,2.3l-1.871-5.579a51.313,51.313,0,0,0,12.094-1.62c-.432-.936-2.3-5.184-2.7-6.048Z"/>
      <path class="cls-1" d="M430.971,102.971c.324.108.719.217.719.54,0,.468-.431.54-.755.576a32.208,32.208,0,0,0-2.016,10.835c0,4.391,1.368,7.451,2.412,7.451,1.151,0,2.52-3.168,3.491-5.435a16.389,16.389,0,0,0,3.78,3.815c-2.88,6.983-6.155,9.431-7.919,9.431-2.016,0-7.343-4.284-7.343-15.407a64.25,64.25,0,0,1,1.764-13.462Zm17.386.252a35.906,35.906,0,0,1,7.271,18.106c-2.124.827-4.68,2.052-5.868,2.663a32.766,32.766,0,0,0-6.047-17.817Z"/>
    </g>
  </g>
</svg>
