<svg xmlns="http://www.w3.org/2000/svg" width="560" height="80" viewBox="0 0 560 80">
  <defs>
    <style>
      .cls-1 {
        fill: #fff;
      }

      .cls-2 {
        fill: #00b4dc;
      }

      .cls-3 {
        opacity: 0.7;
      }

      .cls-4 {
        fill: none;
        stroke: #898989;
      }
    </style>
  </defs>
  <g id="レイヤー_2" data-name="レイヤー 2">
    <g id="レイヤー_3" data-name="レイヤー 3">
      <g>
        <g id="レイヤー_2-2" data-name="レイヤー 2">
          <g id="object">
            <g>
              <rect class="cls-1" width="560" height="60" rx="10"/>
              <rect class="cls-2" width="560" height="80" rx="10"/>
              <g>
                <path class="cls-1" d="M115.83,28l4,20.49L123.75,28H129l3.87,20.49L136.9,28H142L135.92,53.8h-5.79l-3.77-19.67L122.6,53.8h-5.79L110.72,28Z"/>
                <path class="cls-1" d="M165.77,28v3.8H150.16v6.9H164v3.8H150.16V50h16v3.8H145.25V28Z"/>
                <path class="cls-1" d="M183.87,28c5.3,0,7.85,3.08,7.85,6.61a5.55,5.55,0,0,1-3.86,5.43,6.29,6.29,0,0,1,4.88,6.39c0,3.76-2.62,7.36-8.29,7.36H170V28Zm-9,3.8v7h7.92c3.43,0,3.92-2.46,3.92-3.6,0-3.21-3.07-3.4-3.92-3.4Zm0,10.5V50H183c2.1,0,4.78-.88,4.78-3.93s-2.65-3.76-4.81-3.76Z"/>
                <path class="cls-1" d="M227.26,44.18v2.68h-2.09v5.43h-4.06V51.18h-6.77v2.23c0,2.22-1.18,2.88-5.08,2.88-.72,0-1.14,0-1.6-.07a11.21,11.21,0,0,0-1.31-3.57,19.49,19.49,0,0,0,2.85.27c.56,0,1.11-.07,1.11-1v-.82H199.67V48.24h10.64V46.86H197.38V44.18h12.93V42.9H199.67V40.22h10.64V39.07h-8.48V32.43h8.48V31.28h-12.9V28.34h12.9v-2l4.29.2a.46.46,0,0,1,.49.42c0,.26-.4.46-.76.59v.82h12.83v2.95H214.33v1.14h8.42v6.65h-8.42v1.14h10.84v4Zm-16.95-7.79V35H205.6v1.38Zm4-1.38v1.38h4.71V35Zm6.77,9.17V42.9h-6.77v1.28Zm0,4V46.86h-6.77v1.38Z"/>
                <path class="cls-1" d="M247,31a28.25,28.25,0,0,0,2.91-4.84l4.22,1.15c.2.06.36.16.36.36,0,.52-.78.45-1,.45-.62,1-1.21,2-1.86,2.88h8.18v3.47H229.94V31h8a19.07,19.07,0,0,0-2.23-3.27L239.4,26a24,24,0,0,1,2.79,4.26l-1.74.68ZM235.84,49v7.17H232V35.83h12.5v17c0,2.62-1,3.27-5.44,3.34a8.51,8.51,0,0,0-1.4-4c.63.08,1.26.14,1.9.16s1.17,0,1.17-1.28V49Zm4.9-8v-2h-4.9v2Zm0,5.07V43.92h-4.9V46ZM251,36.16c.2,0,.55.1.55.36s-.32.39-.55.55V50.3h-4V36Zm7-.72c.23,0,.59.06.59.39s-.07.26-.75.59V52.26c0,3.54-1.84,4-6.32,3.9a9.76,9.76,0,0,0-1-4.19c.49.06,1.76.2,2.25.2s1.08,0,1.08-1.18V35.21Z"/>
                <path class="cls-1" d="M267.65,48.83V40.68a21,21,0,0,1-3.21,2.25,13.18,13.18,0,0,0-2.78-3,29.4,29.4,0,0,0,5.56-4A17.42,17.42,0,0,0,264,33.34l2.62-2.68a21.14,21.14,0,0,1,3.33,2.55A11.72,11.72,0,0,0,272,30.3h-7V27h11.29l1.34,1.41a28.76,28.76,0,0,1-3.8,6.19h8.32a23.24,23.24,0,0,1-4.55-7.17l3.5-1.34A17.85,17.85,0,0,0,283,29.55a24.14,24.14,0,0,0,2.59-3.11l2.88,1.83c.32.2.39.29.39.43,0,.36-.49.39-.89.39a34.47,34.47,0,0,1-2.78,3.14c.17.2.33.36,1,1.08a35.67,35.67,0,0,0,3.4-4l2.62,1.77c.36.23.52.39.52.59,0,.39-.33.42-.95.42a23.58,23.58,0,0,1-3.21,3.34,22.35,22.35,0,0,0,5.11,3.44,13.6,13.6,0,0,0-2.52,3.27,29.39,29.39,0,0,1-3.57-2.36v9H284.8l.62.1c.17,0,.46.33.46.5,0,.36-.59.45-.85.49-.36,1-.79,1.76-1,2.32h8.58V55.6H262.77V52.23h9c-.39-1-1-2.33-1.28-2.85l1.93-.55Zm4.55-12.31c-.69.69-1.64,1.7-3.3,3.14h18.55a37.58,37.58,0,0,1-3.89-3.57v2H272.2Zm-.59,6.25v2.88h12.11V42.77Zm3,6.06a20.83,20.83,0,0,1,1.31,3.07c-.46.1-.92.17-1.54.33h5.27a21.14,21.14,0,0,0,1.44-3.4Z"/>
                <path class="cls-1" d="M307,37.89h-2.78v2.36h3.6v3.47h-3.6v5.63a21.29,21.29,0,0,0,1.54-4.71l3.34.65c.13,0,.36.06.36.36s-.46.43-.89.46a28.49,28.49,0,0,1-1.47,4,14.11,14.11,0,0,0-2.88-.56v1.57c2.55-.46,3.24-.62,4-.81a12.38,12.38,0,0,0-.39,3.43c-4.52,1.11-8.48,1.74-10.7,2.1-.26.78-.29.85-.62.85s-.36-.3-.39-.46l-.69-3.83c1.72-.13,3.44-.35,5.14-.65v-8h-4.65V40.25h4.64V37.89h-2.88V36.42l-.3.26A10.58,10.58,0,0,0,294.41,34a16.39,16.39,0,0,0,6.45-7.63l3.82.82c.23.06.4.1.4.32s0,.4-.46.53a21.6,21.6,0,0,0,4.68,4.91,12.06,12.06,0,0,0-2.36,2.32ZM298.7,45a27.47,27.47,0,0,1,1.7,5.07,14.64,14.64,0,0,0-3.17,1.08A32.12,32.12,0,0,0,295.56,46Zm7.1-10.38a17.42,17.42,0,0,1-3.27-3.89,33.94,33.94,0,0,1-3.08,3.89Zm2.49,14.14a41.87,41.87,0,0,0,6.87-2.35V40.58h-6.67V37.21h10.74V35.34h-8.71V32.1h8.71V30.36H309.11V26.9h14V37.21h2.36v3.37h-6.74v3.34a9.66,9.66,0,0,0,.62.95,15.43,15.43,0,0,0,2.29-3.9l3.44,1.6c.16.07.39.17.39.46,0,.49-.52.46-.85.46a37.63,37.63,0,0,1-2.85,4.26,24.56,24.56,0,0,0,4.39,3.47,11.7,11.7,0,0,0-2.29,3.4,31.21,31.21,0,0,1-5.14-5.2v3.86c0,3.14-2,3.14-5.66,3.14a12,12,0,0,0-1.58-3.86c.72.1,2.16.23,2.62.23,1,0,1-.63,1-1.08V49.77a36.83,36.83,0,0,1-4.75,2.36c-.06.56-.1,1-.59,1-.2,0-.36-.2-.42-.4ZM312,41a31.9,31.9,0,0,1,2.43,4.19,13.35,13.35,0,0,0-3,1.93A26.52,26.52,0,0,0,309,42.83Z"/>
                <path class="cls-1" d="M336.14,28.76c.27.1.4.23.4.46s-.49.46-.92.52a47.28,47.28,0,0,0-1.86,13A24.92,24.92,0,0,0,334,46.6c.3-.53,1.5-2.85,1.77-3.31a11.68,11.68,0,0,0,2.1,2.79,16.12,16.12,0,0,0-2.72,8.5l-3.73.73a45.22,45.22,0,0,1-1.7-12.93,61.66,61.66,0,0,1,1.9-15.06ZM351.82,28c.36.07.46.23.46.43s-.46.42-.78.45a36.44,36.44,0,0,0-.33,4.29,32.7,32.7,0,0,0,5.14-1.27v4.22c-2.65.65-4.29.91-5.24,1.08a64.38,64.38,0,0,0,.49,8.21A20.41,20.41,0,0,1,358.07,49c-.49.85-1.7,3.37-1.93,3.9A13.39,13.39,0,0,0,352,50.07c0,4.49-5,4.78-6.48,4.78-4.75,0-6.42-2.91-6.42-5.14,0-3.27,3.21-5.07,6.74-5.07a12.81,12.81,0,0,1,1.38.1c-.1-1.28-.33-4.06-.36-6.94-2,.16-3.67.23-4.65.23s-1.57,0-2.26-.06v-4.4a36.7,36.7,0,0,0,4.06.23c1.34,0,2.23-.07,2.82-.1,0-.29,0-5.73,0-6.48Zm-6.41,20c-2,0-2.65.92-2.65,1.64,0,.91.95,1.57,2.29,1.57.23,0,2.75,0,2.75-2.06a5.85,5.85,0,0,0-.07-.72A5.29,5.29,0,0,0,345.41,48.07Z"/>
                <path class="cls-1" d="M371.36,43.56c-.49.42-3.4,2.94-3.4,4.58a1.61,1.61,0,0,0,.82,1.47c1.6.82,5.1,1,7,1a41.43,41.43,0,0,0,12.47-1.64,29,29,0,0,0,.91,4.62,68.14,68.14,0,0,1-13.45,1.31c-7.36,0-12.27-1.38-12.27-6.22,0-1.47.49-3.77,4.91-7.53Zm15.58-11.75a39.52,39.52,0,0,0-10.48,6.74c-.39-.46-2.16-2.46-2.52-2.85.27-.16,2.79-2.1,3.47-2.75-1.73.13-4.15.26-7.07.26-2.42,0-3.43-.1-4.25-.16l-.26-4.58a64.63,64.63,0,0,0,9.32.59,52.41,52.41,0,0,0,9.53-.72Z"/>
                <path class="cls-1" d="M409,27.26c.42.1.65.22.65.49s-.39.42-.75.45c-.16.53-.91,2.88-1.08,3.34A52.62,52.62,0,0,0,419,28.89a11.94,11.94,0,0,0,.85,4.13,57.13,57.13,0,0,1-13.49,2.81c-.16.46-.75,2.06-2.16,5.5a19,19,0,0,1,9.17-2.59c8.38,0,8.9,6,8.9,7.53,0,9.07-13,9.56-17,9.56a28,28,0,0,1-3.43-.16,18,18,0,0,0-1-4.16c1.64.18,3.29.28,4.94.3,4.22,0,11.88-.75,11.88-5.66,0-2.69-2-3.77-4.55-3.77-3.8,0-8.44,2.06-11.88,5.73l-3.93-2a41.69,41.69,0,0,0,4.65-10,57.35,57.35,0,0,1-6.81-.16l0-4.55a39.8,39.8,0,0,0,8.08.62,41.35,41.35,0,0,0,1.28-5.92Z"/>
                <path class="cls-1" d="M437.92,33.41c.23.07.56.2.56.49s-.46.46-.69.46a30.47,30.47,0,0,0-2.25,6.84,16.17,16.17,0,0,1,10.11-3.73c5.47,0,8.28,3.83,8.28,7.82,0,6.38-6.32,10.28-16.72,10.28-1,0-1.84,0-2.46-.07a12.66,12.66,0,0,0-1.28-4.65,25.4,25.4,0,0,0,4.52.4c2.06,0,11.36-.3,11.36-5.93,0-1.73-1-3.92-4.32-3.92-5.66,0-9.69,4.48-10.9,5.82l-4-1.44A79.7,79.7,0,0,1,433.44,32Zm-1.3-7.23a33.57,33.57,0,0,1,11.26,3.76A34.49,34.49,0,0,0,445.39,34a30.41,30.41,0,0,0-10.25-4.09Z"/>
              </g>
              <polygon class="cls-1" points="526.91 50.91 526.91 29.09 540 40 526.91 50.91"/>
            </g>
          </g>
        </g>
        <rect class="cls-3" width="560" height="80"/>
        <g>
          <g>
            <path d="M120.7,43.06V45.5h-1.3v4.32h-3.85V49h-4.78v1.67c0,1.32-.34,2.23-4.22,2.23-.52,0-1,0-1.37-.05A9.73,9.73,0,0,0,104,49.58a19.41,19.41,0,0,0,2.21.21c.76,0,.76-.26.76-.81H98.81v-2.6h8.11V45.5H97V43.06h9.91v-.84H98.81V39.94h8.11v-.73h-6.61V33.93h6.61V33.2H97V30.47h9.91V29l4,.16a.35.35,0,0,1,.39.34c0,.23-.16.28-.57.49v.44h9.82V33.2h-9.82v.73h6.5v5.28h-6.5v.73h8.63v3.12Zm-13.78-6V36h-3.17v1Zm3.85-1v1h3.14V36Zm4.78,7.05v-.84h-4.78v.84Zm0,3.32V45.5h-4.78v.88Z"/>
            <path d="M138.56,32.55a19.94,19.94,0,0,0,2.24-3.66l3.9,1c.18.06.36.13.36.32s-.36.41-.75.36c-.68,1.07-.94,1.51-1.3,2h6V35.8H125.25V32.55H131a12.82,12.82,0,0,0-1.48-2.21L133,28.76A17,17,0,0,1,135.1,32l-1.4.54Zm-8.35,14.67v5.61h-3.64V36.66h10.35V50.29c0,2.13-1.12,2.44-4.55,2.54a7.51,7.51,0,0,0-1.32-3.69c.39,0,1.17.13,1.56.13s.78-.05.78-.83V47.22Zm3.18-6.61V39.47h-3.18v1.14Zm0,3.88V43.32h-3.18v1.17Zm8.86-7.41c.24,0,.39.07.39.26s-.15.28-.39.44V48.13h-3.74V36.92Zm5.49-.55c.23,0,.47,0,.47.29s-.29.33-.63.52v12.4a2.47,2.47,0,0,1-1.12,2.52c-.93.62-2.05.6-4.21.57a9.77,9.77,0,0,0-.86-3.9c.45,0,1.41.19,1.8.19.65,0,.65-.42.65-.73v-12Z"/>
            <path d="M157.31,47.11V41.05a13.94,13.94,0,0,1-2.11,1.43,13.12,13.12,0,0,0-2.57-2.88,19,19,0,0,0,3.3-2.26,18.75,18.75,0,0,0-2.13-1.67l2.49-2.55a18.35,18.35,0,0,1,2.34,1.64,7.26,7.26,0,0,0,1.56-2.16h-4.81V29.51h9l1.17,1.25A21.42,21.42,0,0,1,163,35.18h5.33a16.94,16.94,0,0,1-3.07-5.12l3.3-1.25A15.62,15.62,0,0,0,169.71,31a13,13,0,0,0,1.58-2L174,30.71c.11.05.29.18.29.31,0,.31-.44.34-.7.34-.86,1.09-1.56,1.89-1.87,2.21.28.33.49.54.7.75a32.29,32.29,0,0,0,2.36-2.81l2.42,1.64c.21.16.47.31.47.49,0,.34-.39.37-.78.39a19.76,19.76,0,0,1-2.24,2.34,17.92,17.92,0,0,0,3.67,2.42,12.66,12.66,0,0,0-2.39,3.1c-.39-.24-1.22-.81-2.39-1.72v6.94h-1.88a.39.39,0,0,1,.29.37c0,.26-.26.41-.55.44a10.76,10.76,0,0,1-.54,1.43h6.37V52.5H153.64V49.35h6.63c-.1-.31-.49-1.33-.73-1.9l1.28-.34Zm3.87-9.64c-.68.72-.94,1-2.11,2.1H172.8a24.08,24.08,0,0,1-2.7-2.44v1.35h-8.92Zm-.13,5v1.67h8.76V42.48Zm2.44,4.63a21,21,0,0,1,.73,2l-.93.26h3.51a21.94,21.94,0,0,0,.78-2.24Z"/>
            <path d="M191.05,38.51h-1.89v1.35h2.6v3.3h-2.6V46.7a16,16,0,0,0,.91-3.1l3,.6c.16,0,.39.08.39.34s-.39.36-.75.39c-.11.39-.16.52-.52,1.61a30.07,30.07,0,0,0,5.17-1.85V40.43h-1.85a25.44,25.44,0,0,1,1.82,3.33,24.3,24.3,0,0,0-2.8,1.84,21.56,21.56,0,0,0-1.88-3.53l2.66-1.64h-3V37.36h8.19v-1h-6.58V33.54h6.58v-1h-7.82V29.38h11.54v8h1.59v3.07h-3.1l2.89,1.41a.42.42,0,0,1,.28.36c0,.26-.18.31-.67.39a24.37,24.37,0,0,1-2.11,3.09,19.37,19.37,0,0,0,3.25,2.63,12.86,12.86,0,0,0-2.13,3.3,22.34,22.34,0,0,1-3.48-3.53v2.21c0,2.57-1.69,2.57-4.79,2.57a11.87,11.87,0,0,0-1.32-3.51c-.26.13-.34.15-.71.31,0,.5-.07.94-.52.94a.42.42,0,0,1-.31-.29l-.93-3.74a13.45,13.45,0,0,1-.55,1.32,10.18,10.18,0,0,0-2.44-.59v1.19c1.89-.36,2.44-.49,2.93-.62a10.51,10.51,0,0,0-.33,3.25c-3.31.72-6,1.17-8.51,1.53-.05.39-.13.73-.49.73s-.29-.21-.31-.39l-.6-3.59c1.07,0,2.88-.26,3.85-.36v-1.2a17.46,17.46,0,0,0-2.73.94,24.46,24.46,0,0,0-1.33-4l2.94-.94A28.71,28.71,0,0,1,185.7,47V43.16h-3.41v-3.3h3.41V38.51h-2v-1a9.28,9.28,0,0,0-2.73-2.58,11.88,11.88,0,0,0,5-5.79l3.69.72c.29.06.39.13.39.29s-.28.44-.59.47a19.46,19.46,0,0,0,3.77,3.61,10.79,10.79,0,0,0-2.14,1.69Zm-1.53-3a12.24,12.24,0,0,1-2-2.34c-.6.81-1,1.36-1.85,2.34ZM197.32,48c-.65.36-1.61.88-2.39,1.22.23,0,1.48.16,1.64.16.75,0,.75-.53.75-.84Zm3.41-5.39c.05.08.13.24.18.34a15.14,15.14,0,0,0,1.38-2.52h-1.56Z"/>
            <path d="M217,31.07c.21.08.34.18.34.36s-.5.37-.73.39a35.94,35.94,0,0,0-1.56,10,18.11,18.11,0,0,0,.18,2.59c.34-.49.89-1.32,1.22-1.84a10.7,10.7,0,0,0,1.88,2.57,11.54,11.54,0,0,0-2.16,6.37l-3.49.65a36.91,36.91,0,0,1-1.4-10.48,47,47,0,0,1,1.56-11.9Zm12.35-.57c.13,0,.34.05.34.28s-.37.39-.6.42a28.7,28.7,0,0,0-.26,3.12,23.43,23.43,0,0,0,3.85-1v3.92c-.6.16-1.8.45-3.95.84a43.36,43.36,0,0,0,.41,6A14.51,14.51,0,0,1,234,46.77c-.41.76-1.19,2.45-1.76,3.67a9.33,9.33,0,0,0-2.79-2c-.1,3.33-3.43,3.72-5.07,3.72-3.9,0-5.85-2.13-5.85-4.55,0-3.09,3.07-4.26,6.45-4.18-.21-3-.23-3.31-.29-4.81-1.48.13-2.54.13-3,.13-.83,0-1.37,0-1.92-.08V34.61a28.49,28.49,0,0,0,4.89.18c0-1.09,0-3.38,0-5.07Zm-5.38,16.12c-.57,0-1.82.18-1.82,1s.86,1,1.69,1c.21,0,1.77,0,1.77-1.27a.63.63,0,0,0-.06-.34A3.66,3.66,0,0,0,223.92,46.62Z"/>
            <path d="M255.25,29.87c.26.08.49.19.49.39s-.41.34-.86.29a2.72,2.72,0,0,1-.2.49h5.43l1.09,1.23a24.12,24.12,0,0,1-3.69,6.7,16.06,16.06,0,0,0,5.69,2.68,14,14,0,0,0-2.39,3,18.85,18.85,0,0,1-5.54-3.4,16.23,16.23,0,0,1-5.25,3.4,8.82,8.82,0,0,0-1.43-2.41c-.62.15-.75.18-1.79.49,0-.36-.05-.44-.13-1-.29,0-.52.08-1,.13V52.86h-3.25V44.33a.82.82,0,0,1-.24.1,30.24,30.24,0,0,1-1.09,6.14,12.57,12.57,0,0,0-3.09-.91,21.94,21.94,0,0,0,1.14-6.34l2.78.31a2,2,0,0,1,.5.08V42.28l-2.47.23c-.13.26-.26.49-.52.49s-.32-.33-.34-.49l-.29-2.94c1,0,1.25,0,1.67,0,.52-.63.7-.89,1.4-1.82a36,36,0,0,0-3.69-3.23l1.92-2.29c.21.13.37.24.76.52a30.3,30.3,0,0,0,1.79-4l2.78,1.09c.31.13.55.21.55.39,0,.34-.55.39-.81.42-.67,1.48-1.56,3.17-2.05,4a5.05,5.05,0,0,1,.57.52,22.24,22.24,0,0,0,2-3.88l3.14,1.28c.16,0,.37.15.37.33s-.37.34-.91.42c-.63,1-2.66,4.06-4,6.06.29,0,1.54-.08,1.8-.11-.13-.49-.21-.75-.39-1.35l2.44-.6a18.11,18.11,0,0,1,1.27,3.85A13.9,13.9,0,0,0,253,39a16.38,16.38,0,0,1-1.53-2.34,9.24,9.24,0,0,1-1.17,1.56,14.78,14.78,0,0,0-3.12-1.35,23.44,23.44,0,0,0,4.94-8.06ZM248.67,43a21.38,21.38,0,0,0,.88,5.15,14.36,14.36,0,0,0-2.86,1,29.42,29.42,0,0,1-.72-5.44Zm2.55,4.06a38.74,38.74,0,0,1,10,3.12,16.78,16.78,0,0,0-1.71,3.1,30.82,30.82,0,0,0-9.68-3Zm3.17-4.29a16.47,16.47,0,0,1,4.68,2.42,17.22,17.22,0,0,0-1.69,2.7,16.23,16.23,0,0,0-4.68-2.52Zm-.68-8.61a19.71,19.71,0,0,0,1.72,2.71,14.8,14.8,0,0,0,1.46-2.71Z"/>
            <path d="M288.71,29.77l1.79,1.95a115.16,115.16,0,0,1-9.59,7.1V49.74c0,2.81-2.16,3-4.5,3a13.38,13.38,0,0,1-1.61-.07,10.45,10.45,0,0,0-1.3-4.22,20.53,20.53,0,0,0,2.81.34c.26,0,.57,0,.57-.67V35.39l2.08.13a22.25,22.25,0,0,0,2.68-2H267.23v-3.8Z"/>
            <path d="M301.37,31.62c.24.07.52.15.52.39s-.31.39-.54.41a23.2,23.2,0,0,0-1.46,7.83c0,3.17,1,5.38,1.74,5.38s1.82-2.29,2.52-3.93a11.81,11.81,0,0,0,2.73,2.76c-2.08,5-4.44,6.81-5.72,6.81-1.45,0-5.3-3.09-5.3-11.13a46.53,46.53,0,0,1,1.27-9.72Zm12.56.18a25.92,25.92,0,0,1,5.25,13.08c-1.53.59-3.38,1.48-4.24,1.92a23.69,23.69,0,0,0-4.36-12.87Z"/>
            <path d="M335.93,30.08c.23.05.52.16.52.42s-.37.34-.58.34c-.1.41-.54,2.26-.65,2.62a16.47,16.47,0,0,0,4.32-1.27l.44,4.08a33.94,33.94,0,0,1-5.87,1.22,62.39,62.39,0,0,1-6.82,15.21,27,27,0,0,0-3.92-2,42.43,42.43,0,0,0,6.42-12.61c-1.59.13-1.9.13-4.76.15L324.69,34c.78.05,1.69.1,3,.1,1.17,0,2,0,3.09-.1.37-1.95.55-3.64.71-4.92Zm1.95,15.65a2.61,2.61,0,0,0-.71,1.54.7.7,0,0,0,.47.67,9.38,9.38,0,0,0,3.49.45,18.78,18.78,0,0,0,5.72-.86,10.83,10.83,0,0,0-.19,2,18.74,18.74,0,0,0,.16,2.15,30.77,30.77,0,0,1-5.38.45c-3.41,0-7.93-.5-7.93-4.19a7.09,7.09,0,0,1,1-3.41Zm-1.23-7.35a33.27,33.27,0,0,1,5.75-.47,19.14,19.14,0,0,1,3.82.28c-.15,1.93-.18,2.34-.21,4.09a15,15,0,0,0-3.9-.47,46.68,46.68,0,0,0-5.46.47Z"/>
            <path d="M361.12,30.08c.39.05.6.08.6.37s-.18.31-.5.44a57.34,57.34,0,0,0-.83,10.32c0,5.9.57,7,2.58,7,4.44,0,8.37-6,9.07-7.47a26.23,26.23,0,0,0,3,3.41c-3,4.81-7.39,8.42-12.64,8.42-5.77,0-6.24-4.89-6.24-11.39,0-1.5.26-8.08.26-9.41,0-.75,0-1.64-.05-2.39Z"/>
            <path d="M394.79,29.87c.23.06.47.08.47.34s-.29.34-.47.37c-.1,1-.1,1.24-.13,1.53,1.2,0,5.23-.08,7.18.16v3.87a63.94,63.94,0,0,0-7.31-.23v2.86a34.62,34.62,0,0,0,6.61-1.23v3.88a50.64,50.64,0,0,1-6.51.86c0,1.11,0,1.22.06,2.31A25.87,25.87,0,0,1,403.37,48c-.83.81-1.3,1.38-2.89,3.25A20.92,20.92,0,0,0,394.92,48c.05,1.35.23,4.42-5.46,4.42-4,0-7-1.85-7-4.21,0-3,3.72-4.24,8.06-4.16,0-.6,0-.6,0-1.54-2.58.05-7.28.13-7.28-2.44,0-.91.46-1.75,1.82-3.15l2.86.65c-.47.62-.55.7-.55.88s0,.73,3,.6c0-.47,0-2.57,0-3-3.2.13-6,.5-8.17.78V32.73c1.28-.13,7-.39,8.14-.46,0-1,0-2-.1-3.2ZM389.41,47c-.13,0-2.63,0-2.63,1.06,0,.86,1.43.94,1.87.94,1.28,0,2.06-.47,1.9-1.9A5.87,5.87,0,0,0,389.41,47Z"/>
            <path d="M417.8,30.08c.39.05.6.08.6.37s-.18.31-.5.44a57.34,57.34,0,0,0-.83,10.32c0,5.9.57,7,2.58,7,4.44,0,8.37-6,9.07-7.47a26.23,26.23,0,0,0,3,3.41c-3,4.81-7.39,8.42-12.64,8.42-5.77,0-6.24-4.89-6.24-11.39,0-1.5.26-8.08.26-9.41,0-.75,0-1.64-.05-2.39Z"/>
            <path d="M449.29,30.08c.23.05.52.16.52.42s-.37.34-.58.34c-.1.41-.54,2.26-.65,2.62a16.47,16.47,0,0,0,4.32-1.27l.44,4.08a33.94,33.94,0,0,1-5.87,1.22,62.39,62.39,0,0,1-6.82,15.21,27,27,0,0,0-3.92-2,42.43,42.43,0,0,0,6.42-12.61c-1.59.13-1.9.13-4.76.15L438.05,34c.78.05,1.69.1,3,.1,1.17,0,1.95,0,3.09-.1.37-1.95.55-3.64.71-4.92Zm1.95,15.65a2.61,2.61,0,0,0-.71,1.54.7.7,0,0,0,.47.67,9.38,9.38,0,0,0,3.49.45,18.78,18.78,0,0,0,5.72-.86,10.83,10.83,0,0,0-.19,2,18.74,18.74,0,0,0,.16,2.15,30.77,30.77,0,0,1-5.38.45c-3.41,0-7.93-.5-7.93-4.19a7.09,7.09,0,0,1,1-3.41ZM450,38.38a33.27,33.27,0,0,1,5.75-.47,19.14,19.14,0,0,1,3.82.28c-.15,1.93-.18,2.34-.21,4.09a15,15,0,0,0-3.9-.47,46.68,46.68,0,0,0-5.46.47Z"/>
          </g>
          <g>
            <path class="cls-4" d="M120.7,43.06V45.5h-1.3v4.32h-3.85V49h-4.78v1.67c0,1.32-.34,2.23-4.22,2.23-.52,0-1,0-1.37-.05A9.73,9.73,0,0,0,104,49.58a19.41,19.41,0,0,0,2.21.21c.76,0,.76-.26.76-.81H98.81v-2.6h8.11V45.5H97V43.06h9.91v-.84H98.81V39.94h8.11v-.73h-6.61V33.93h6.61V33.2H97V30.47h9.91V29l4,.16a.35.35,0,0,1,.39.34c0,.23-.16.28-.57.49v.44h9.82V33.2h-9.82v.73h6.5v5.28h-6.5v.73h8.63v3.12Zm-13.78-6V36h-3.17v1Zm3.85-1v1h3.14V36Zm4.78,7.05v-.84h-4.78v.84Zm0,3.32V45.5h-4.78v.88Z"/>
            <path class="cls-4" d="M138.56,32.55a19.94,19.94,0,0,0,2.24-3.66l3.9,1c.18.06.36.13.36.32s-.36.41-.75.36c-.68,1.07-.94,1.51-1.3,2h6V35.8H125.25V32.55H131a12.82,12.82,0,0,0-1.48-2.21L133,28.76A17,17,0,0,1,135.1,32l-1.4.54Zm-8.35,14.67v5.61h-3.64V36.66h10.35V50.29c0,2.13-1.12,2.44-4.55,2.54a7.51,7.51,0,0,0-1.32-3.69c.39,0,1.17.13,1.56.13s.78-.05.78-.83V47.22Zm3.18-6.61V39.47h-3.18v1.14Zm0,3.88V43.32h-3.18v1.17Zm8.86-7.41c.24,0,.39.07.39.26s-.15.28-.39.44V48.13h-3.74V36.92Zm5.49-.55c.23,0,.47,0,.47.29s-.29.33-.63.52v12.4a2.47,2.47,0,0,1-1.12,2.52c-.93.62-2.05.6-4.21.57a9.77,9.77,0,0,0-.86-3.9c.45,0,1.41.19,1.8.19.65,0,.65-.42.65-.73v-12Z"/>
            <path class="cls-4" d="M157.31,47.11V41.05a13.94,13.94,0,0,1-2.11,1.43,13.12,13.12,0,0,0-2.57-2.88,19,19,0,0,0,3.3-2.26,18.75,18.75,0,0,0-2.13-1.67l2.49-2.55a18.35,18.35,0,0,1,2.34,1.64,7.26,7.26,0,0,0,1.56-2.16h-4.81V29.51h9l1.17,1.25A21.42,21.42,0,0,1,163,35.18h5.33a16.94,16.94,0,0,1-3.07-5.12l3.3-1.25A15.62,15.62,0,0,0,169.71,31a13,13,0,0,0,1.58-2L174,30.71c.11.05.29.18.29.31,0,.31-.44.34-.7.34-.86,1.09-1.56,1.89-1.87,2.21.28.33.49.54.7.75a32.29,32.29,0,0,0,2.36-2.81l2.42,1.64c.21.16.47.31.47.49,0,.34-.39.37-.78.39a19.76,19.76,0,0,1-2.24,2.34,17.92,17.92,0,0,0,3.67,2.42,12.66,12.66,0,0,0-2.39,3.1c-.39-.24-1.22-.81-2.39-1.72v6.94h-1.88a.39.39,0,0,1,.29.37c0,.26-.26.41-.55.44a10.76,10.76,0,0,1-.54,1.43h6.37V52.5H153.64V49.35h6.63c-.1-.31-.49-1.33-.73-1.9l1.28-.34Zm3.87-9.64c-.68.72-.94,1-2.11,2.1H172.8a24.08,24.08,0,0,1-2.7-2.44v1.35h-8.92Zm-.13,5v1.67h8.76V42.48Zm2.44,4.63a21,21,0,0,1,.73,2l-.93.26h3.51a21.94,21.94,0,0,0,.78-2.24Z"/>
            <path class="cls-4" d="M191.05,38.51h-1.89v1.35h2.6v3.3h-2.6V46.7a16,16,0,0,0,.91-3.1l3,.6c.16,0,.39.08.39.34s-.39.36-.75.39c-.11.39-.16.52-.52,1.61a30.07,30.07,0,0,0,5.17-1.85V40.43h-1.85a25.44,25.44,0,0,1,1.82,3.33,24.3,24.3,0,0,0-2.8,1.84,21.56,21.56,0,0,0-1.88-3.53l2.66-1.64h-3V37.36h8.19v-1h-6.58V33.54h6.58v-1h-7.82V29.38h11.54v8h1.59v3.07h-3.1l2.89,1.41a.42.42,0,0,1,.28.36c0,.26-.18.31-.67.39a24.37,24.37,0,0,1-2.11,3.09,19.37,19.37,0,0,0,3.25,2.63,12.86,12.86,0,0,0-2.13,3.3,22.34,22.34,0,0,1-3.48-3.53v2.21c0,2.57-1.69,2.57-4.79,2.57a11.87,11.87,0,0,0-1.32-3.51c-.26.13-.34.15-.71.31,0,.5-.07.94-.52.94a.42.42,0,0,1-.31-.29l-.93-3.74a13.45,13.45,0,0,1-.55,1.32,10.18,10.18,0,0,0-2.44-.59v1.19c1.89-.36,2.44-.49,2.93-.62a10.51,10.51,0,0,0-.33,3.25c-3.31.72-6,1.17-8.51,1.53-.05.39-.13.73-.49.73s-.29-.21-.31-.39l-.6-3.59c1.07,0,2.88-.26,3.85-.36v-1.2a17.46,17.46,0,0,0-2.73.94,24.46,24.46,0,0,0-1.33-4l2.94-.94A28.71,28.71,0,0,1,185.7,47V43.16h-3.41v-3.3h3.41V38.51h-2v-1a9.28,9.28,0,0,0-2.73-2.58,11.88,11.88,0,0,0,5-5.79l3.69.72c.29.06.39.13.39.29s-.28.44-.59.47a19.46,19.46,0,0,0,3.77,3.61,10.79,10.79,0,0,0-2.14,1.69Zm-1.53-3a12.24,12.24,0,0,1-2-2.34c-.6.81-1,1.36-1.85,2.34ZM197.32,48c-.65.36-1.61.88-2.39,1.22.23,0,1.48.16,1.64.16.75,0,.75-.53.75-.84Zm3.41-5.39c.05.08.13.24.18.34a15.14,15.14,0,0,0,1.38-2.52h-1.56Z"/>
            <path class="cls-4" d="M217,31.07c.21.08.34.18.34.36s-.5.37-.73.39a35.94,35.94,0,0,0-1.56,10,18.11,18.11,0,0,0,.18,2.59c.34-.49.89-1.32,1.22-1.84a10.7,10.7,0,0,0,1.88,2.57,11.54,11.54,0,0,0-2.16,6.37l-3.49.65a36.91,36.91,0,0,1-1.4-10.48,47,47,0,0,1,1.56-11.9Zm12.35-.57c.13,0,.34.05.34.28s-.37.39-.6.42a28.7,28.7,0,0,0-.26,3.12,23.43,23.43,0,0,0,3.85-1v3.92c-.6.16-1.8.45-3.95.84a43.36,43.36,0,0,0,.41,6A14.51,14.51,0,0,1,234,46.77c-.41.76-1.19,2.45-1.76,3.67a9.33,9.33,0,0,0-2.79-2c-.1,3.33-3.43,3.72-5.07,3.72-3.9,0-5.85-2.13-5.85-4.55,0-3.09,3.07-4.26,6.45-4.18-.21-3-.23-3.31-.29-4.81-1.48.13-2.54.13-3,.13-.83,0-1.37,0-1.92-.08V34.61a28.49,28.49,0,0,0,4.89.18c0-1.09,0-3.38,0-5.07Zm-5.38,16.12c-.57,0-1.82.18-1.82,1s.86,1,1.69,1c.21,0,1.77,0,1.77-1.27a.63.63,0,0,0-.06-.34A3.66,3.66,0,0,0,223.92,46.62Z"/>
            <path class="cls-4" d="M255.25,29.87c.26.08.49.19.49.39s-.41.34-.86.29a2.72,2.72,0,0,1-.2.49h5.43l1.09,1.23a24.12,24.12,0,0,1-3.69,6.7,16.06,16.06,0,0,0,5.69,2.68,14,14,0,0,0-2.39,3,18.85,18.85,0,0,1-5.54-3.4,16.23,16.23,0,0,1-5.25,3.4,8.82,8.82,0,0,0-1.43-2.41c-.62.15-.75.18-1.79.49,0-.36-.05-.44-.13-1-.29,0-.52.08-1,.13V52.86h-3.25V44.33a.82.82,0,0,1-.24.1,30.24,30.24,0,0,1-1.09,6.14,12.57,12.57,0,0,0-3.09-.91,21.94,21.94,0,0,0,1.14-6.34l2.78.31a2,2,0,0,1,.5.08V42.28l-2.47.23c-.13.26-.26.49-.52.49s-.32-.33-.34-.49l-.29-2.94c1,0,1.25,0,1.67,0,.52-.63.7-.89,1.4-1.82a36,36,0,0,0-3.69-3.23l1.92-2.29c.21.13.37.24.76.52a30.3,30.3,0,0,0,1.79-4l2.78,1.09c.31.13.55.21.55.39,0,.34-.55.39-.81.42-.67,1.48-1.56,3.17-2.05,4a5.05,5.05,0,0,1,.57.52,22.24,22.24,0,0,0,2-3.88l3.14,1.28c.16,0,.37.15.37.33s-.37.34-.91.42c-.63,1-2.66,4.06-4,6.06.29,0,1.54-.08,1.8-.11-.13-.49-.21-.75-.39-1.35l2.44-.6a18.11,18.11,0,0,1,1.27,3.85A13.9,13.9,0,0,0,253,39a16.38,16.38,0,0,1-1.53-2.34,9.24,9.24,0,0,1-1.17,1.56,14.78,14.78,0,0,0-3.12-1.35,23.44,23.44,0,0,0,4.94-8.06ZM248.67,43a21.38,21.38,0,0,0,.88,5.15,14.36,14.36,0,0,0-2.86,1,29.42,29.42,0,0,1-.72-5.44Zm2.55,4.06a38.74,38.74,0,0,1,10,3.12,16.78,16.78,0,0,0-1.71,3.1,30.82,30.82,0,0,0-9.68-3Zm3.17-4.29a16.47,16.47,0,0,1,4.68,2.42,17.22,17.22,0,0,0-1.69,2.7,16.23,16.23,0,0,0-4.68-2.52Zm-.68-8.61a19.71,19.71,0,0,0,1.72,2.71,14.8,14.8,0,0,0,1.46-2.71Z"/>
            <path class="cls-4" d="M288.71,29.77l1.79,1.95a115.16,115.16,0,0,1-9.59,7.1V49.74c0,2.81-2.16,3-4.5,3a13.38,13.38,0,0,1-1.61-.07,10.45,10.45,0,0,0-1.3-4.22,20.53,20.53,0,0,0,2.81.34c.26,0,.57,0,.57-.67V35.39l2.08.13a22.25,22.25,0,0,0,2.68-2H267.23v-3.8Z"/>
            <path class="cls-4" d="M301.37,31.62c.24.07.52.15.52.39s-.31.39-.54.41a23.2,23.2,0,0,0-1.46,7.83c0,3.17,1,5.38,1.74,5.38s1.82-2.29,2.52-3.93a11.81,11.81,0,0,0,2.73,2.76c-2.08,5-4.44,6.81-5.72,6.81-1.45,0-5.3-3.09-5.3-11.13a46.53,46.53,0,0,1,1.27-9.72Zm12.56.18a25.92,25.92,0,0,1,5.25,13.08c-1.53.59-3.38,1.48-4.24,1.92a23.69,23.69,0,0,0-4.36-12.87Z"/>
            <path class="cls-4" d="M335.93,30.08c.23.05.52.16.52.42s-.37.34-.58.34c-.1.41-.54,2.26-.65,2.62a16.47,16.47,0,0,0,4.32-1.27l.44,4.08a33.94,33.94,0,0,1-5.87,1.22,62.39,62.39,0,0,1-6.82,15.21,27,27,0,0,0-3.92-2,42.43,42.43,0,0,0,6.42-12.61c-1.59.13-1.9.13-4.76.15L324.69,34c.78.05,1.69.1,3,.1,1.17,0,2,0,3.09-.1.37-1.95.55-3.64.71-4.92Zm1.95,15.65a2.61,2.61,0,0,0-.71,1.54.7.7,0,0,0,.47.67,9.38,9.38,0,0,0,3.49.45,18.78,18.78,0,0,0,5.72-.86,10.83,10.83,0,0,0-.19,2,18.74,18.74,0,0,0,.16,2.15,30.77,30.77,0,0,1-5.38.45c-3.41,0-7.93-.5-7.93-4.19a7.09,7.09,0,0,1,1-3.41Zm-1.23-7.35a33.27,33.27,0,0,1,5.75-.47,19.14,19.14,0,0,1,3.82.28c-.15,1.93-.18,2.34-.21,4.09a15,15,0,0,0-3.9-.47,46.68,46.68,0,0,0-5.46.47Z"/>
            <path class="cls-4" d="M361.12,30.08c.39.05.6.08.6.37s-.18.31-.5.44a57.34,57.34,0,0,0-.83,10.32c0,5.9.57,7,2.58,7,4.44,0,8.37-6,9.07-7.47a26.23,26.23,0,0,0,3,3.41c-3,4.81-7.39,8.42-12.64,8.42-5.77,0-6.24-4.89-6.24-11.39,0-1.5.26-8.08.26-9.41,0-.75,0-1.64-.05-2.39Z"/>
            <path class="cls-4" d="M394.79,29.87c.23.06.47.08.47.34s-.29.34-.47.37c-.1,1-.1,1.24-.13,1.53,1.2,0,5.23-.08,7.18.16v3.87a63.94,63.94,0,0,0-7.31-.23v2.86a34.62,34.62,0,0,0,6.61-1.23v3.88a50.64,50.64,0,0,1-6.51.86c0,1.11,0,1.22.06,2.31A25.87,25.87,0,0,1,403.37,48c-.83.81-1.3,1.38-2.89,3.25A20.92,20.92,0,0,0,394.92,48c.05,1.35.23,4.42-5.46,4.42-4,0-7-1.85-7-4.21,0-3,3.72-4.24,8.06-4.16,0-.6,0-.6,0-1.54-2.58.05-7.28.13-7.28-2.44,0-.91.46-1.75,1.82-3.15l2.86.65c-.47.62-.55.7-.55.88s0,.73,3,.6c0-.47,0-2.57,0-3-3.2.13-6,.5-8.17.78V32.73c1.28-.13,7-.39,8.14-.46,0-1,0-2-.1-3.2ZM389.41,47c-.13,0-2.63,0-2.63,1.06,0,.86,1.43.94,1.87.94,1.28,0,2.06-.47,1.9-1.9A5.87,5.87,0,0,0,389.41,47Z"/>
            <path class="cls-4" d="M417.8,30.08c.39.05.6.08.6.37s-.18.31-.5.44a57.34,57.34,0,0,0-.83,10.32c0,5.9.57,7,2.58,7,4.44,0,8.37-6,9.07-7.47a26.23,26.23,0,0,0,3,3.41c-3,4.81-7.39,8.42-12.64,8.42-5.77,0-6.24-4.89-6.24-11.39,0-1.5.26-8.08.26-9.41,0-.75,0-1.64-.05-2.39Z"/>
            <path class="cls-4" d="M449.29,30.08c.23.05.52.16.52.42s-.37.34-.58.34c-.1.41-.54,2.26-.65,2.62a16.47,16.47,0,0,0,4.32-1.27l.44,4.08a33.94,33.94,0,0,1-5.87,1.22,62.39,62.39,0,0,1-6.82,15.21,27,27,0,0,0-3.92-2,42.43,42.43,0,0,0,6.42-12.61c-1.59.13-1.9.13-4.76.15L438.05,34c.78.05,1.69.1,3,.1,1.17,0,1.95,0,3.09-.1.37-1.95.55-3.64.71-4.92Zm1.95,15.65a2.61,2.61,0,0,0-.71,1.54.7.7,0,0,0,.47.67,9.38,9.38,0,0,0,3.49.45,18.78,18.78,0,0,0,5.72-.86,10.83,10.83,0,0,0-.19,2,18.74,18.74,0,0,0,.16,2.15,30.77,30.77,0,0,1-5.38.45c-3.41,0-7.93-.5-7.93-4.19a7.09,7.09,0,0,1,1-3.41ZM450,38.38a33.27,33.27,0,0,1,5.75-.47,19.14,19.14,0,0,1,3.82.28c-.15,1.93-.18,2.34-.21,4.09a15,15,0,0,0-3.9-.47,46.68,46.68,0,0,0-5.46.47Z"/>
          </g>
          <g>
            <path class="cls-1" d="M120.7,43.06V45.5h-1.3v4.32h-3.85V49h-4.78v1.67c0,1.32-.34,2.23-4.22,2.23-.52,0-1,0-1.37-.05A9.73,9.73,0,0,0,104,49.58a19.41,19.41,0,0,0,2.21.21c.76,0,.76-.26.76-.81H98.81v-2.6h8.11V45.5H97V43.06h9.91v-.84H98.81V39.94h8.11v-.73h-6.61V33.93h6.61V33.2H97V30.47h9.91V29l4,.16a.35.35,0,0,1,.39.34c0,.23-.16.28-.57.49v.44h9.82V33.2h-9.82v.73h6.5v5.28h-6.5v.73h8.63v3.12Zm-13.78-6V36h-3.17v1Zm3.85-1v1h3.14V36Zm4.78,7.05v-.84h-4.78v.84Zm0,3.32V45.5h-4.78v.88Z"/>
            <path class="cls-1" d="M138.56,32.55a19.94,19.94,0,0,0,2.24-3.66l3.9,1c.18.06.36.13.36.32s-.36.41-.75.36c-.68,1.07-.94,1.51-1.3,2h6V35.8H125.25V32.55H131a12.82,12.82,0,0,0-1.48-2.21L133,28.76A17,17,0,0,1,135.1,32l-1.4.54Zm-8.35,14.67v5.61h-3.64V36.66h10.35V50.29c0,2.13-1.12,2.44-4.55,2.54a7.51,7.51,0,0,0-1.32-3.69c.39,0,1.17.13,1.56.13s.78-.05.78-.83V47.22Zm3.18-6.61V39.47h-3.18v1.14Zm0,3.88V43.32h-3.18v1.17Zm8.86-7.41c.24,0,.39.07.39.26s-.15.28-.39.44V48.13h-3.74V36.92Zm5.49-.55c.23,0,.47,0,.47.29s-.29.33-.63.52v12.4a2.47,2.47,0,0,1-1.12,2.52c-.93.62-2.05.6-4.21.57a9.77,9.77,0,0,0-.86-3.9c.45,0,1.41.19,1.8.19.65,0,.65-.42.65-.73v-12Z"/>
            <path class="cls-1" d="M157.31,47.11V41.05a13.94,13.94,0,0,1-2.11,1.43,13.12,13.12,0,0,0-2.57-2.88,19,19,0,0,0,3.3-2.26,18.75,18.75,0,0,0-2.13-1.67l2.49-2.55a18.35,18.35,0,0,1,2.34,1.64,7.26,7.26,0,0,0,1.56-2.16h-4.81V29.51h9l1.17,1.25A21.42,21.42,0,0,1,163,35.18h5.33a16.94,16.94,0,0,1-3.07-5.12l3.3-1.25A15.62,15.62,0,0,0,169.71,31a13,13,0,0,0,1.58-2L174,30.71c.11.05.29.18.29.31,0,.31-.44.34-.7.34-.86,1.09-1.56,1.89-1.87,2.21.28.33.49.54.7.75a32.29,32.29,0,0,0,2.36-2.81l2.42,1.64c.21.16.47.31.47.49,0,.34-.39.37-.78.39a19.76,19.76,0,0,1-2.24,2.34,17.92,17.92,0,0,0,3.67,2.42,12.66,12.66,0,0,0-2.39,3.1c-.39-.24-1.22-.81-2.39-1.72v6.94h-1.88a.39.39,0,0,1,.29.37c0,.26-.26.41-.55.44a10.76,10.76,0,0,1-.54,1.43h6.37V52.5H153.64V49.35h6.63c-.1-.31-.49-1.33-.73-1.9l1.28-.34Zm3.87-9.64c-.68.72-.94,1-2.11,2.1H172.8a24.08,24.08,0,0,1-2.7-2.44v1.35h-8.92Zm-.13,5v1.67h8.76V42.48Zm2.44,4.63a21,21,0,0,1,.73,2l-.93.26h3.51a21.94,21.94,0,0,0,.78-2.24Z"/>
            <path class="cls-1" d="M191.05,38.51h-1.89v1.35h2.6v3.3h-2.6V46.7a16,16,0,0,0,.91-3.1l3,.6c.16,0,.39.08.39.34s-.39.36-.75.39c-.11.39-.16.52-.52,1.61a30.07,30.07,0,0,0,5.17-1.85V40.43h-1.85a25.44,25.44,0,0,1,1.82,3.33,24.3,24.3,0,0,0-2.8,1.84,21.56,21.56,0,0,0-1.88-3.53l2.66-1.64h-3V37.36h8.19v-1h-6.58V33.54h6.58v-1h-7.82V29.38h11.54v8h1.59v3.07h-3.1l2.89,1.41a.42.42,0,0,1,.28.36c0,.26-.18.31-.67.39a24.37,24.37,0,0,1-2.11,3.09,19.37,19.37,0,0,0,3.25,2.63,12.86,12.86,0,0,0-2.13,3.3,22.34,22.34,0,0,1-3.48-3.53v2.21c0,2.57-1.69,2.57-4.79,2.57a11.87,11.87,0,0,0-1.32-3.51c-.26.13-.34.15-.71.31,0,.5-.07.94-.52.94a.42.42,0,0,1-.31-.29l-.93-3.74a13.45,13.45,0,0,1-.55,1.32,10.18,10.18,0,0,0-2.44-.59v1.19c1.89-.36,2.44-.49,2.93-.62a10.51,10.51,0,0,0-.33,3.25c-3.31.72-6,1.17-8.51,1.53-.05.39-.13.73-.49.73s-.29-.21-.31-.39l-.6-3.59c1.07,0,2.88-.26,3.85-.36v-1.2a17.46,17.46,0,0,0-2.73.94,24.46,24.46,0,0,0-1.33-4l2.94-.94A28.71,28.71,0,0,1,185.7,47V43.16h-3.41v-3.3h3.41V38.51h-2v-1a9.28,9.28,0,0,0-2.73-2.58,11.88,11.88,0,0,0,5-5.79l3.69.72c.29.06.39.13.39.29s-.28.44-.59.47a19.46,19.46,0,0,0,3.77,3.61,10.79,10.79,0,0,0-2.14,1.69Zm-1.53-3a12.24,12.24,0,0,1-2-2.34c-.6.81-1,1.36-1.85,2.34ZM197.32,48c-.65.36-1.61.88-2.39,1.22.23,0,1.48.16,1.64.16.75,0,.75-.53.75-.84Zm3.41-5.39c.05.08.13.24.18.34a15.14,15.14,0,0,0,1.38-2.52h-1.56Z"/>
            <path class="cls-1" d="M217,31.07c.21.08.34.18.34.36s-.5.37-.73.39a35.94,35.94,0,0,0-1.56,10,18.11,18.11,0,0,0,.18,2.59c.34-.49.89-1.32,1.22-1.84a10.7,10.7,0,0,0,1.88,2.57,11.54,11.54,0,0,0-2.16,6.37l-3.49.65a36.91,36.91,0,0,1-1.4-10.48,47,47,0,0,1,1.56-11.9Zm12.35-.57c.13,0,.34.05.34.28s-.37.39-.6.42a28.7,28.7,0,0,0-.26,3.12,23.43,23.43,0,0,0,3.85-1v3.92c-.6.16-1.8.45-3.95.84a43.36,43.36,0,0,0,.41,6A14.51,14.51,0,0,1,234,46.77c-.41.76-1.19,2.45-1.76,3.67a9.33,9.33,0,0,0-2.79-2c-.1,3.33-3.43,3.72-5.07,3.72-3.9,0-5.85-2.13-5.85-4.55,0-3.09,3.07-4.26,6.45-4.18-.21-3-.23-3.31-.29-4.81-1.48.13-2.54.13-3,.13-.83,0-1.37,0-1.92-.08V34.61a28.49,28.49,0,0,0,4.89.18c0-1.09,0-3.38,0-5.07Zm-5.38,16.12c-.57,0-1.82.18-1.82,1s.86,1,1.69,1c.21,0,1.77,0,1.77-1.27a.63.63,0,0,0-.06-.34A3.66,3.66,0,0,0,223.92,46.62Z"/>
            <path class="cls-1" d="M255.25,29.87c.26.08.49.19.49.39s-.41.34-.86.29a2.72,2.72,0,0,1-.2.49h5.43l1.09,1.23a24.12,24.12,0,0,1-3.69,6.7,16.06,16.06,0,0,0,5.69,2.68,14,14,0,0,0-2.39,3,18.85,18.85,0,0,1-5.54-3.4,16.23,16.23,0,0,1-5.25,3.4,8.82,8.82,0,0,0-1.43-2.41c-.62.15-.75.18-1.79.49,0-.36-.05-.44-.13-1-.29,0-.52.08-1,.13V52.86h-3.25V44.33a.82.82,0,0,1-.24.1,30.24,30.24,0,0,1-1.09,6.14,12.57,12.57,0,0,0-3.09-.91,21.94,21.94,0,0,0,1.14-6.34l2.78.31a2,2,0,0,1,.5.08V42.28l-2.47.23c-.13.26-.26.49-.52.49s-.32-.33-.34-.49l-.29-2.94c1,0,1.25,0,1.67,0,.52-.63.7-.89,1.4-1.82a36,36,0,0,0-3.69-3.23l1.92-2.29c.21.13.37.24.76.52a30.3,30.3,0,0,0,1.79-4l2.78,1.09c.31.13.55.21.55.39,0,.34-.55.39-.81.42-.67,1.48-1.56,3.17-2.05,4a5.05,5.05,0,0,1,.57.52,22.24,22.24,0,0,0,2-3.88l3.14,1.28c.16,0,.37.15.37.33s-.37.34-.91.42c-.63,1-2.66,4.06-4,6.06.29,0,1.54-.08,1.8-.11-.13-.49-.21-.75-.39-1.35l2.44-.6a18.11,18.11,0,0,1,1.27,3.85A13.9,13.9,0,0,0,253,39a16.38,16.38,0,0,1-1.53-2.34,9.24,9.24,0,0,1-1.17,1.56,14.78,14.78,0,0,0-3.12-1.35,23.44,23.44,0,0,0,4.94-8.06ZM248.67,43a21.38,21.38,0,0,0,.88,5.15,14.36,14.36,0,0,0-2.86,1,29.42,29.42,0,0,1-.72-5.44Zm2.55,4.06a38.74,38.74,0,0,1,10,3.12,16.78,16.78,0,0,0-1.71,3.1,30.82,30.82,0,0,0-9.68-3Zm3.17-4.29a16.47,16.47,0,0,1,4.68,2.42,17.22,17.22,0,0,0-1.69,2.7,16.23,16.23,0,0,0-4.68-2.52Zm-.68-8.61a19.71,19.71,0,0,0,1.72,2.71,14.8,14.8,0,0,0,1.46-2.71Z"/>
            <path class="cls-1" d="M288.71,29.77l1.79,1.95a115.16,115.16,0,0,1-9.59,7.1V49.74c0,2.81-2.16,3-4.5,3a13.38,13.38,0,0,1-1.61-.07,10.45,10.45,0,0,0-1.3-4.22,20.53,20.53,0,0,0,2.81.34c.26,0,.57,0,.57-.67V35.39l2.08.13a22.25,22.25,0,0,0,2.68-2H267.23v-3.8Z"/>
            <path class="cls-1" d="M301.37,31.62c.24.07.52.15.52.39s-.31.39-.54.41a23.2,23.2,0,0,0-1.46,7.83c0,3.17,1,5.38,1.74,5.38s1.82-2.29,2.52-3.93a11.81,11.81,0,0,0,2.73,2.76c-2.08,5-4.44,6.81-5.72,6.81-1.45,0-5.3-3.09-5.3-11.13a46.53,46.53,0,0,1,1.27-9.72Zm12.56.18a25.92,25.92,0,0,1,5.25,13.08c-1.53.59-3.38,1.48-4.24,1.92a23.69,23.69,0,0,0-4.36-12.87Z"/>
            <path class="cls-1" d="M335.93,30.08c.23.05.52.16.52.42s-.37.34-.58.34c-.1.41-.54,2.26-.65,2.62a16.47,16.47,0,0,0,4.32-1.27l.44,4.08a33.94,33.94,0,0,1-5.87,1.22,62.39,62.39,0,0,1-6.82,15.21,27,27,0,0,0-3.92-2,42.43,42.43,0,0,0,6.42-12.61c-1.59.13-1.9.13-4.76.15L324.69,34c.78.05,1.69.1,3,.1,1.17,0,2,0,3.09-.1.37-1.95.55-3.64.71-4.92Zm1.95,15.65a2.61,2.61,0,0,0-.71,1.54.7.7,0,0,0,.47.67,9.38,9.38,0,0,0,3.49.45,18.78,18.78,0,0,0,5.72-.86,10.83,10.83,0,0,0-.19,2,18.74,18.74,0,0,0,.16,2.15,30.77,30.77,0,0,1-5.38.45c-3.41,0-7.93-.5-7.93-4.19a7.09,7.09,0,0,1,1-3.41Zm-1.23-7.35a33.27,33.27,0,0,1,5.75-.47,19.14,19.14,0,0,1,3.82.28c-.15,1.93-.18,2.34-.21,4.09a15,15,0,0,0-3.9-.47,46.68,46.68,0,0,0-5.46.47Z"/>
            <path class="cls-1" d="M361.12,30.08c.39.05.6.08.6.37s-.18.31-.5.44a57.34,57.34,0,0,0-.83,10.32c0,5.9.57,7,2.58,7,4.44,0,8.37-6,9.07-7.47a26.23,26.23,0,0,0,3,3.41c-3,4.81-7.39,8.42-12.64,8.42-5.77,0-6.24-4.89-6.24-11.39,0-1.5.26-8.08.26-9.41,0-.75,0-1.64-.05-2.39Z"/>
            <path class="cls-1" d="M394.79,29.87c.23.06.47.08.47.34s-.29.34-.47.37c-.1,1-.1,1.24-.13,1.53,1.2,0,5.23-.08,7.18.16v3.87a63.94,63.94,0,0,0-7.31-.23v2.86a34.62,34.62,0,0,0,6.61-1.23v3.88a50.64,50.64,0,0,1-6.51.86c0,1.11,0,1.22.06,2.31A25.87,25.87,0,0,1,403.37,48c-.83.81-1.3,1.38-2.89,3.25A20.92,20.92,0,0,0,394.92,48c.05,1.35.23,4.42-5.46,4.42-4,0-7-1.85-7-4.21,0-3,3.72-4.24,8.06-4.16,0-.6,0-.6,0-1.54-2.58.05-7.28.13-7.28-2.44,0-.91.46-1.75,1.82-3.15l2.86.65c-.47.62-.55.7-.55.88s0,.73,3,.6c0-.47,0-2.57,0-3-3.2.13-6,.5-8.17.78V32.73c1.28-.13,7-.39,8.14-.46,0-1,0-2-.1-3.2ZM389.41,47c-.13,0-2.63,0-2.63,1.06,0,.86,1.43.94,1.87.94,1.28,0,2.06-.47,1.9-1.9A5.87,5.87,0,0,0,389.41,47Z"/>
            <path class="cls-1" d="M417.8,30.08c.39.05.6.08.6.37s-.18.31-.5.44a57.34,57.34,0,0,0-.83,10.32c0,5.9.57,7,2.58,7,4.44,0,8.37-6,9.07-7.47a26.23,26.23,0,0,0,3,3.41c-3,4.81-7.39,8.42-12.64,8.42-5.77,0-6.24-4.89-6.24-11.39,0-1.5.26-8.08.26-9.41,0-.75,0-1.64-.05-2.39Z"/>
            <path class="cls-1" d="M449.29,30.08c.23.05.52.16.52.42s-.37.34-.58.34c-.1.41-.54,2.26-.65,2.62a16.47,16.47,0,0,0,4.32-1.27l.44,4.08a33.94,33.94,0,0,1-5.87,1.22,62.39,62.39,0,0,1-6.82,15.21,27,27,0,0,0-3.92-2,42.43,42.43,0,0,0,6.42-12.61c-1.59.13-1.9.13-4.76.15L438.05,34c.78.05,1.69.1,3,.1,1.17,0,1.95,0,3.09-.1.37-1.95.55-3.64.71-4.92Zm1.95,15.65a2.61,2.61,0,0,0-.71,1.54.7.7,0,0,0,.47.67,9.38,9.38,0,0,0,3.49.45,18.78,18.78,0,0,0,5.72-.86,10.83,10.83,0,0,0-.19,2,18.74,18.74,0,0,0,.16,2.15,30.77,30.77,0,0,1-5.38.45c-3.41,0-7.93-.5-7.93-4.19a7.09,7.09,0,0,1,1-3.41ZM450,38.38a33.27,33.27,0,0,1,5.75-.47,19.14,19.14,0,0,1,3.82.28c-.15,1.93-.18,2.34-.21,4.09a15,15,0,0,0-3.9-.47,46.68,46.68,0,0,0-5.46.47Z"/>
          </g>
        </g>
      </g>
    </g>
  </g>
</svg>
