<svg xmlns="http://www.w3.org/2000/svg" viewBox="0 0 382.44 40"><defs><style>.aa9b9968-a5a2-4bc7-b943-83b301b8f1de{fill:#00b4dc;}</style></defs><title>title_campaign_info</title><g id="a5fbb376-5a73-4d97-b664-afa3032ed079" data-name="レイヤー 2"><g id="b3f4a6c2-2435-4d19-92fe-bdb43e897c21" data-name="object"><rect class="aa9b9968-a5a2-4bc7-b943-83b301b8f1de" width="10" height="40"/><path class="aa9b9968-a5a2-4bc7-b943-83b301b8f1de" d="M37.85,4.49l5.76-.79c.25,0,.76-.08.76.36s-.26.54-.54.75l.68,4.68,8.1-1,.61,5.26L45.3,14.82l.54,3.74,12-1.55.61,5.29L46.63,23.89l1.66,11.34-5.76,1L40.84,24.64,28.24,26.3l-.65-5.4,12.46-1.62-.54-3.71-8.79,1.16-.64-5.4,8.63-1.08Z"/><path class="aa9b9968-a5a2-4bc7-b943-83b301b8f1de" d="M72.48,10.28l5-.61c.33,0,.76-.11.76.33,0,.28-.29.5-.54.68l1,5.22,8.68-1.77a3,3,0,0,0,1.65-1l3.49,2.63c-1.51,1.84-3.52,5.51-6,10.08a32.09,32.09,0,0,0-4.72-2.27,25.68,25.68,0,0,0,2.63-4.1l-4.79,1.08,2.74,13.93-4.9,1.15-2.77-14-7.23,1.62-1.37-4.89,7.66-1.55Z"/><path class="aa9b9968-a5a2-4bc7-b943-83b301b8f1de" d="M104.23,4.56c6,3.1,7.92,4.9,9,5.9-.86,1-1.11,1.44-3.49,4.9a37.13,37.13,0,0,0-9.07-5.76Zm-3,24.87c10.26-2.12,20.38-9.07,26.78-19.36A23.27,23.27,0,0,0,131.77,15a47.75,47.75,0,0,1-11.19,12,60.41,60.41,0,0,1-14.83,8c0,.39-.18.79-.51.79s-.36-.11-.57-.51Z"/><path class="aa9b9968-a5a2-4bc7-b943-83b301b8f1de" d="M133.94,20.15c2.41-1.77,3-2.38,8-8.07,3.39-3.78,4.72-4.89,6.77-4.89,2.3,0,3.42,1.36,5.94,4.42,4.28,5.22,8.71,10.37,14,14.51-1.37,1.73-3.13,4.28-3.82,5.26a196.82,196.82,0,0,1-14-15.95c-1.44-1.84-1.94-1.84-2.38-1.84-.82,0-2,1.34-2.84,2.34-1.69,2-5.25,6.63-6.41,8.39a1.41,1.41,0,0,1,.11.47.36.36,0,0,1-.32.39.94.94,0,0,1-.61-.35ZM165.61,7a3.39,3.39,0,1,1-3.38-3.39A3.38,3.38,0,0,1,165.61,7Zm-5,0a1.58,1.58,0,0,0,1.59,1.58A1.59,1.59,0,1,0,160.64,7Z"/><path class="aa9b9968-a5a2-4bc7-b943-83b301b8f1de" d="M202.66,17V23.1H171.38V17Z"/><path class="aa9b9968-a5a2-4bc7-b943-83b301b8f1de" d="M212.23,4.56c6.05,3.1,7.92,4.9,9,5.9-.86,1-1.11,1.44-3.49,4.9a37.13,37.13,0,0,0-9.07-5.76Zm-2.95,24.87c10.26-2.12,20.38-9.07,26.78-19.36A23.27,23.27,0,0,0,239.77,15a47.75,47.75,0,0,1-11.19,12,60.41,60.41,0,0,1-14.83,8c0,.39-.18.79-.51.79s-.36-.11-.57-.51Z"/><path class="aa9b9968-a5a2-4bc7-b943-83b301b8f1de" d="M253.2,8.05a36.84,36.84,0,0,1,4,3.85,9.34,9.34,0,0,0-2.59,2.38h7.48V13.09h-4.86V10.14h4.86V9h-7V5.53h7V3.23l5.37.32c.32,0,.68.07.68.47s-.32.54-.68.72v.79h7.77V9h-7.77v1.19h5.72v2.95h-5.72v1.19H276v3.35H254V14.85a16.26,16.26,0,0,0-1.51-2V36.24h-5.26v-25a1.22,1.22,0,0,1-.57.14,44.26,44.26,0,0,1-1.48,8.79,13.85,13.85,0,0,0-4-1.7,30.6,30.6,0,0,0,1.47-8.74l4.14.54a1.88,1.88,0,0,1,.47.1v-7l5.58.29c.22,0,.61.11.61.47s-.43.65-.93.86V8.7Zm7.92,22.75v5.44h-5.29V18.92h18.54V32.35c0,2.59,0,4.32-6.63,4.1a11.94,11.94,0,0,0-1.83-4.57,21.93,21.93,0,0,0,2.45.25c.79,0,.79-.18.79-1.33Zm8-7.2V22.09h-8V23.6Zm0,4.36V26.44h-8V28Z"/><path class="aa9b9968-a5a2-4bc7-b943-83b301b8f1de" d="M289.24,25.83h4.93v4.25h-4.93v6.37h-4.82V30.08h-5V25.83h5V24.1h-5.48V19.86H281a13,13,0,0,0-1-2.67l2.81-.79h-4.61V12.19h6.2V10.5H280v-4h4.43v-3l5.07.25a.45.45,0,0,1,.5.4c0,.32-.36.57-.75.83V6.47h4.64v4h-4.64v1.69h5.51V16.4h-4.14l2.41.51c.32.07.65.14.65.5s-.29.5-.94.54c-.32.86-.65,1.62-.79,1.91h2.55V24.1h-5.25Zm-4.5-9.43A24.68,24.68,0,0,1,286,19.46l-1.26.4h2.7a18,18,0,0,0,1.15-3.46Zm15.91,20.05h-5V4.16h14.76c0,5.76,0,8-.22,9.18-.43,2.38-2.63,3.06-6.51,3.1a10.61,10.61,0,0,0-1.91-5,8.33,8.33,0,0,0,2.27.25c1.22,0,1.36-.25,1.36-1.62V8.7h-4.71v8.53h8.46l2.41,2.52A47.46,47.46,0,0,1,308,29.4a20.89,20.89,0,0,0,4.25,4,17.78,17.78,0,0,0-4,3.24,38.22,38.22,0,0,1-2.88-3,14,14,0,0,1-2.16,2.59,13.5,13.5,0,0,0-2.59-2.09Zm3.09-14.58a16.73,16.73,0,0,0,1.12,3.28,19,19,0,0,0,1.08-3.46h-5.29v2.13Zm-3.09,10.37a23.93,23.93,0,0,0,1.8-2.48,21.18,21.18,0,0,1-1.8-4Z"/><path class="aa9b9968-a5a2-4bc7-b943-83b301b8f1de" d="M337.94,28.57a28.24,28.24,0,0,0,9.4,4.32c-.65.39-1.51,1-3.24,3.92a36.25,36.25,0,0,1-10.55-6.26V36.6h-5.11V30.3a34,34,0,0,1-10.83,6.51c-1.73-3-2.59-3.53-3.24-3.92a26.71,26.71,0,0,0,9.39-4.32h-9.1V24.75h13.78V22.84a40.78,40.78,0,0,1-10,1.3A9.86,9.86,0,0,0,316.56,20c.9.07,2,.14,3.57.14a25.36,25.36,0,0,0,6.62-.79c-1.3-.25-1.8-.33-2.38-.4l-.79.65a12.32,12.32,0,0,0-4.1-2.16c.79-.65,1.29-1.08,2.09-1.84h-6.91v-3.7h10.22a26.39,26.39,0,0,0,1.76-2.56h-6.33V11h-4.9V5.57h12.71V3.23l5.79.18c.29,0,.76,0,.76.43s-.5.65-.76.76v1h12.75v5.22h-5.22V9.31h-8.21c.18.61-.43.69-1.15.76-.69.9-.87,1.08-1.37,1.8h16.88v3.7h-6.95a.34.34,0,0,1,.22.29c0,.36-.72.47-1,.51a22.94,22.94,0,0,1-1.91,1.8,40.37,40.37,0,0,1,6.91,2.62,18.25,18.25,0,0,0-2.84,4h5.54v3.82Zm-10.25-13-.94,1a49.23,49.23,0,0,1,5.11.65,13.08,13.08,0,0,0,2.34-1.66Zm6,5.44a26.67,26.67,0,0,1-5.19,1.83l5.26.22c.32,0,.68.07.68.43s-.39.61-.9.9v.36H342A33,33,0,0,0,333.7,21Z"/><path class="aa9b9968-a5a2-4bc7-b943-83b301b8f1de" d="M382.44,8.81V32.46c0,1.72,0,4-4.82,4-.9,0-2.13-.11-3-.15a13.51,13.51,0,0,0-1.91-5.76,23.66,23.66,0,0,0,3.31.47c.47,0,.94-.21.94-1.33V25.94a14.94,14.94,0,0,0-2.7,3.38,15.61,15.61,0,0,1-7.2-7.41,24.7,24.7,0,0,1-7.78,8.1A9.94,9.94,0,0,0,357,26.63v9.82h-5.48V8.81h12.71V3.3l5.83.22c.43,0,.69.21.69.5s-.47.58-1,.72V8.81ZM357,24.9a13.86,13.86,0,0,0,7.09-11H357Zm12.77-11a10.69,10.69,0,0,0,2,5.9A16.13,16.13,0,0,0,377,24.46V13.92Z"/></g></g></svg>