<svg xmlns="http://www.w3.org/2000/svg" viewBox="0 0 563.63 40"><defs><style>.f05c2d02-8ba3-44be-ad80-79e3ef5ee44d{fill:#00b4dc;}</style></defs><title>ttl_parking</title><g id="be83c5dd-99ef-4b6d-92fe-9c06ec1a6bf2" data-name="レイヤー 2"><g id="ac0c563f-f76d-4eba-bb0e-195613cb4c0a" data-name="object"><rect class="f05c2d02-8ba3-44be-ad80-79e3ef5ee44d" width="10" height="40"/><path class="f05c2d02-8ba3-44be-ad80-79e3ef5ee44d" d="M41.63,4.27c.47.07.76.15.76.47s-.4.5-.62.58c-.1,1.08-.18,2.34-.25,3.81a25.73,25.73,0,0,0,5.65-1.8c0,1.33-.07,3-.07,3.82a15.78,15.78,0,0,0,.07,1.94,26.37,26.37,0,0,1-5.9,1.62c0,.4-.07,2.12-.07,2.45a17.93,17.93,0,0,1,6.12-1.08c5.43,0,10,3.78,10,9.75,0,6.7-5,9-8.53,9-5.44,0-5.62-4.83-5.65-6.34.75-.25,4-1.33,4.46-1.51,0,.72,0,2.41,1.69,2.41,1.37,0,2.27-1.37,2.27-3.17a4.53,4.53,0,0,0-4.79-4.75,17,17,0,0,0-5.58,1.26,108.08,108.08,0,0,0,.47,10.84L36.7,35.77a49.5,49.5,0,0,0-6.3-5.15c-.9,1-1.33,1.48-1.84,2.09L26,26.52c1.66-.9,8.21-5.87,9.65-6.77,0-1.26,0-1.55,0-4.32-2.12.11-4.64.14-6.69.14V9.85a14.88,14.88,0,0,0,2.84.22c1.4,0,3.42-.15,3.85-.15,0-2.7,0-3.09-.14-6.69ZM33.57,27.49a3.86,3.86,0,0,0,1.62.93c.54,0,.5-1.26.46-2.62C35.22,26.16,34.47,26.7,33.57,27.49ZM52.36,8.34A30.4,30.4,0,0,1,60.2,14.1a25.46,25.46,0,0,0-3.49,4.35,21,21,0,0,0-7.63-5.65Z"/><path class="f05c2d02-8ba3-44be-ad80-79e3ef5ee44d" d="M93.76,5.86v4.28H81.63v1.4h10V25.47h-10v1.59H95.52v4.42H81.63v5h-5.4v-5H62.51V27.06H76.23V25.47h-10V11.54h10v-1.4H63.92V5.86H76.23V3.16l5.5.25a.59.59,0,0,1,.65.57c0,.22-.32.51-.75.72V5.86ZM76.23,16.94V15.36H71.69v1.58Zm-4.54,3.13v1.59h4.54V20.07ZM86.2,16.94V15.36H81.63v1.58Zm-4.57,3.13v1.59H86.2V20.07Z"/><path class="f05c2d02-8ba3-44be-ad80-79e3ef5ee44d" d="M130.76,10c-8.89-.14-16.59,7.85-16.59,13.68,0,4.17,5.29,6.23,10.19,6.33a47.82,47.82,0,0,0-2.7,6.56c-2.92-.8-13.25-3.68-13.25-12.28,0-6.66,5.15-11.45,6.62-12.38a96.34,96.34,0,0,0-14.9,2.27L99.3,7.44a116.36,116.36,0,0,0,16-.83A86.05,86.05,0,0,0,129.76,4Zm-6,5.11A22.72,22.72,0,0,1,128.14,19c-1,.72-1.52,1.12-2.78,2.16a28.13,28.13,0,0,0-3.2-4.06Zm3.78-2.55a22.56,22.56,0,0,1,3.2,3.78c-.9.68-1.51,1.22-2.63,2.23a26.29,26.29,0,0,0-3.2-4.07Z"/><path class="f05c2d02-8ba3-44be-ad80-79e3ef5ee44d" d="M151.47,30.22c7.81-1.44,10.11-7.48,10.11-11.23a8.53,8.53,0,0,0-8.31-8.82c-1.12,13.18-6.56,23-10.37,23-2.81,0-8-4.76-8-11.41C134.87,14,141.93,5,152.51,5c7.88,0,14.76,5.36,14.76,14A16.8,16.8,0,0,1,163,30.08c-2.2,2.56-4.75,3.89-7.81,5.22A23.54,23.54,0,0,0,151.47,30.22ZM140.2,21.33c0,2.77,1.55,4.86,2.3,4.86s1.55-1.62,1.95-2.55a31.75,31.75,0,0,0,2.77-12.39C143,12.8,140.2,18.09,140.2,21.33Z"/><path class="f05c2d02-8ba3-44be-ad80-79e3ef5ee44d" d="M182.14,22.74c-1,.86-2.81,2.73-2.81,3.92,0,2.59,4.93,2.59,6.44,2.59a50.06,50.06,0,0,0,14.44-2.16,27.25,27.25,0,0,0,.93,6.12,54.7,54.7,0,0,1-14.07,1.66c-5.62,0-7.85-.61-9.61-1.33-1.15-.47-4.57-2.16-4.57-5.8s3.74-7.09,5.22-8.42Zm15.12-11.85c-3.35,1.34-7.09,3.57-9.07,5.87-1.3-1.11-2.67-2.27-3.78-3.09,1.33-1.23,1.65-1.48,2.7-2.34-2.24.18-8.28.5-11.34.43l-.29-6a72.51,72.51,0,0,0,9,.46,71,71,0,0,0,10-.82Zm1.58-5.61a26.27,26.27,0,0,1,3.28,3.78A14.66,14.66,0,0,0,200,11.65a40.22,40.22,0,0,0-3.45-4Zm2.77-3.06A37.54,37.54,0,0,1,205,5.75a14.07,14.07,0,0,0-2.31,2.45,28.69,28.69,0,0,0-3.13-3.53Z"/><path class="f05c2d02-8ba3-44be-ad80-79e3ef5ee44d" d="M225.59,36.42h-5.18V26.8A35.79,35.79,0,0,1,209.86,36a12.57,12.57,0,0,0-4.61-3.56,30.94,30.94,0,0,0,11.56-9.21H206.44V18.53h6.73a29.08,29.08,0,0,0-2.88-5.33l2.59-1.44h-4.75V7.08h12.28V3.41l5.4.32c.43,0,.79.07.79.54s-.72.61-1,.69V7.08h12.2v4.68h-4.68l2.2.93c.25.11.36.26.36.44,0,.46-.43.54-.72.61a32.5,32.5,0,0,1-2.27,4.79h6.8v4.68H228.79A28.1,28.1,0,0,0,240,31.92a17.06,17.06,0,0,0-3.82,3.88,28.22,28.22,0,0,1-10.58-9.21Zm-5.18-17.89V11.76h-4.65a20.16,20.16,0,0,1,3,5.54A17.8,17.8,0,0,0,216,18.53Zm5.18-6.77v6.77h4.17a25.06,25.06,0,0,0-2.48-1.3A28.17,28.17,0,0,0,230,11.76Z"/><path class="f05c2d02-8ba3-44be-ad80-79e3ef5ee44d" d="M257.92,26.37a25.31,25.31,0,0,1-4.25,4.36,8.92,8.92,0,0,0-3.38-2.41c.64-.51,1.18-.9,2-1.62-2.23,1-5,2-7.88,3,0,.44-.14.94-.54.94s-.5-.47-.58-.83l-1.22-5.07a31.34,31.34,0,0,0,4.07-.76V15.79h-3.71V11.11h3.71V3.62l5.32.29c.44,0,.76.07.76.4s-.22.43-.76.68v6.12h3.21v4.68h-3.21v6.55c.87-.36,1.41-.57,2.27-1h-.25V17.73H275.3v3.64H261.37l-.68,1.15h14.36c0,3.64-.11,10.84-2.45,12.67-1.36,1.08-3.67,1.19-5.94,1.19a10.63,10.63,0,0,0-1-3.89,27.09,27.09,0,0,1-4.28,4.5c-.94-1-1.51-1.29-3.82-2.3a25,25,0,0,0,7.6-8.32h-1.62a25.1,25.1,0,0,1-9.47,9.54A9.53,9.53,0,0,0,250.93,33a21.84,21.84,0,0,0,8.39-6.66Zm-3.28-5a15.78,15.78,0,0,0-.25,3.2,23.78,23.78,0,0,0,2.2-3.2Zm18.14-4.82H256V3.88h16.81Zm-4.86-7.71V7.62h-7.09V8.84Zm-7.09,2.88V13h7.09V11.72Zm8.5,14.65a39.4,39.4,0,0,1-2.85,5c.44,0,.83.07,1.26.07.72,0,1.37-.07,1.62-.9a18.1,18.1,0,0,0,.65-4.18Z"/><path class="f05c2d02-8ba3-44be-ad80-79e3ef5ee44d" d="M287.8,6.21c.29.11.47.26.47.51,0,.43-.69.5-1,.54a49.65,49.65,0,0,0-2.16,13.86,25.23,25.23,0,0,0,.25,3.6c.47-.69,1.22-1.84,1.69-2.56a15.13,15.13,0,0,0,2.59,3.56,16,16,0,0,0-3,8.82l-4.83.9a50.93,50.93,0,0,1-1.94-14.5A65.1,65.1,0,0,1,282,4.45Zm17.1-.79c.18,0,.46.08.46.4s-.5.54-.82.58a37.16,37.16,0,0,0-.36,4.31,32.28,32.28,0,0,0,5.32-1.33v5.44c-.82.21-2.48.61-5.47,1.15a57.41,57.41,0,0,0,.58,8.28A19.92,19.92,0,0,1,311.45,28c-.58,1-1.66,3.38-2.45,5.07a12.66,12.66,0,0,0-3.85-2.73c-.15,4.6-4.75,5.14-7,5.14-5.4,0-8.1-2.95-8.1-6.3,0-4.28,4.25-5.9,8.93-5.79-.29-4.1-.33-4.57-.4-6.66-2.05.18-3.53.18-4.14.18-1.15,0-1.91,0-2.66-.11V11.11a38,38,0,0,0,6.77.25c0-1.51,0-4.68,0-7Zm-7.45,22.32c-.8,0-2.52.25-2.52,1.37,0,.93,1.18,1.33,2.34,1.33.28,0,2.44,0,2.44-1.76a1,1,0,0,0-.07-.47A5.08,5.08,0,0,0,297.45,27.74Z"/><path class="f05c2d02-8ba3-44be-ad80-79e3ef5ee44d" d="M326.14,22.74c-1,.86-2.81,2.73-2.81,3.92,0,2.59,4.93,2.59,6.44,2.59a50.06,50.06,0,0,0,14.44-2.16,27.25,27.25,0,0,0,.93,6.12,54.7,54.7,0,0,1-14.07,1.66c-5.62,0-7.85-.61-9.61-1.33-1.15-.47-4.57-2.16-4.57-5.8s3.74-7.09,5.22-8.42Zm15.12-11.85c-3.35,1.34-7.09,3.57-9.07,5.87-1.3-1.11-2.67-2.27-3.78-3.09,1.33-1.23,1.65-1.48,2.7-2.34-2.24.18-8.28.5-11.34.43l-.29-6a72.51,72.51,0,0,0,9,.46,71,71,0,0,0,10-.82Zm1.58-5.61a26.27,26.27,0,0,1,3.28,3.78A14.66,14.66,0,0,0,344,11.65a40.22,40.22,0,0,0-3.45-4Zm2.77-3.06A37.54,37.54,0,0,1,349,5.75a14.07,14.07,0,0,0-2.31,2.45,28.69,28.69,0,0,0-3.13-3.53Z"/><path class="f05c2d02-8ba3-44be-ad80-79e3ef5ee44d" d="M382.3,23.13a.84.84,0,0,1,.28.62c0,.35-.36.57-.79.5A18.2,18.2,0,0,1,379.92,26a9.76,9.76,0,0,0,2.92,1.37,8.61,8.61,0,0,0-3.57,3.38,24.09,24.09,0,0,1-5.94-4.21v4.21h-4.75v-5a24.2,24.2,0,0,1-6,4.14,9.45,9.45,0,0,0-3.32-3.53v1.15a3.08,3.08,0,0,0,.87,2.48c1.26,1.37,3.2,1.52,10.76,1.52,3.71,0,10,0,13.43-.94a29.85,29.85,0,0,0-1.91,5.15H364.51c-1.76,0-5.43-.47-7.38-3.21a52,52,0,0,1-4.24,3.21c-.07.29-.18.61-.69.61-.28,0-.39-.18-.5-.36l-2.27-4.64A19.89,19.89,0,0,0,354.11,29V21.15H350.4V16.33h8.89v9.61a21.34,21.34,0,0,0,7.06-3.89h-4.79V13.88H380v7.49ZM353.68,3.26a27.93,27.93,0,0,1,5.61,5.19,17.77,17.77,0,0,0-3.63,3.74A29.42,29.42,0,0,0,350.08,7Zm27.43,1.91V8.59h-7.56v1h9.79v3.31H359V9.56h9.57v-1h-7.67V5.17h7.67v-2l5.18.1a.44.44,0,0,1,.47.44c0,.32-.25.43-.68.61v.86ZM366.64,17V19h8.2V17Zm8,5c.18.18,1.08,1,1.91,1.7.58-.62.87-.94,1.48-1.7Z"/><path class="f05c2d02-8ba3-44be-ad80-79e3ef5ee44d" d="M417.43,4.63V7.4H405.52V8.63h13.64V14H414.7a8,8,0,0,0,2.8,1.26c-.46,1.41-1.11,3.28-4.39,3.28h-8.64c-.72,0-3.63,0-3.85-2.88l-6.19.61-.32-2.55,6.51-.58V11.72h-7.45v9c0,8.6-1.76,13.32-3.17,15.7a10.76,10.76,0,0,0-4.68-1.88c2.2-3.27,3.06-8.6,3.06-14.14V8.63h11.74V3.05l5.4.25c.68,0,.93.07.93.4s-.61.57-.93.68v.25ZM402,36.16a2.62,2.62,0,0,1-2.77-2.66V30.62a2.52,2.52,0,0,1-.54.14,19.35,19.35,0,0,1-3.2,5.4A10.25,10.25,0,0,0,391.59,34a18.64,18.64,0,0,0,3.16-5.76v-9h21.53v9.21h-1a20.29,20.29,0,0,1,4,4.18,21.34,21.34,0,0,0-3.42,2.88A18.94,18.94,0,0,0,413,32c-.28,1.48-.79,4.14-4.28,4.14Zm2.88-7.63h-8.92l3,1.19.29.11V29l4.5.29a1.11,1.11,0,0,1,.36,0Zm-2.08-5.65V22h-3.57v.93Zm-3.57,2.05v1h3.57v-1ZM403.9,32a.72.72,0,0,0,.79.72h2.77c1.08,0,1.23-.54,1.66-2.52a14,14,0,0,0-2.27,2.12A15.29,15.29,0,0,0,404.26,30a.49.49,0,0,1-.36.25Zm1.62-20.27v.94l6.87-.54.29,2.37-7.16.69a.84.84,0,0,0,.93.9h4.68c1.44,0,2.16-1.23,2.45-3,.11.11.18.14.29.25V11.72Zm5.76,11.16V22h-3.57v.93Zm-3.57,2.05v1h3.57v-1Zm.87,3.6a12.58,12.58,0,0,1,1.15,1.23c-.22.14-.33.21-.58.39a7.68,7.68,0,0,0,3.67,1.69c-.86-.86-1.33-1.26-1.8-1.69l2.56-1.62Z"/><path class="f05c2d02-8ba3-44be-ad80-79e3ef5ee44d" d="M448.64,6.47c.22.18.36.32.36.54a.38.38,0,0,1-.43.39,2.2,2.2,0,0,1-.61-.14c-.72.68-6.59,5.25-7.81,6.3-1.66,1.4-3.67,3.13-5,4.32-1.16,1-1.26,1.19-1.26,1.47s.14.47,1.54,1.26c.11.08,3.42,2.27,6.66,4.75a37.81,37.81,0,0,1,7.45,7.06,22.88,22.88,0,0,0-4.14,4.86c-1.58-2.34-7.52-8.6-18.14-15.48A2.52,2.52,0,0,1,426,19.68c0-.94.14-1.37,3.78-4.25A95.3,95.3,0,0,0,443.53,2.51Z"/><path class="f05c2d02-8ba3-44be-ad80-79e3ef5ee44d" d="M475.83,4.88c.28.08.61.15.61.47s-.51.51-.72.54c-.18.58-.79,3.13-.9,3.64a26.21,26.21,0,0,0,5.94-1.84l.57,5.69A40.14,40.14,0,0,1,473.27,15a93.78,93.78,0,0,1-9.39,21,36,36,0,0,0-5.37-2.74,58.32,58.32,0,0,0,8.78-17.49l-6.47.21-.47-5.83a31.12,31.12,0,0,0,4.07.22c1.36,0,3,0,4.39-.15a44,44,0,0,0,.9-6.91Zm2.59,21.56a3.91,3.91,0,0,0-1,1.95c0,1.15,1,1.73,5.21,1.73a20.79,20.79,0,0,0,7.92-1.48c0,.68-.07,1.12-.07,2.09a25.2,25.2,0,0,0,.25,4,33,33,0,0,1-6.51.61c-4.32,0-11.81-.21-11.81-5.83,0-1.33.4-2.41,1.33-4.71Zm-1.69-10.15a38.89,38.89,0,0,1,7.41-.75,41.5,41.5,0,0,1,5.8.47,40.28,40.28,0,0,0-.36,5.68,19.53,19.53,0,0,0-5.55-.57,44.82,44.82,0,0,0-7.3.57ZM485,6.43a32.56,32.56,0,0,1,3.42,4,12.91,12.91,0,0,0-2.74,1.94,33.4,33.4,0,0,0-3.17-4Zm3.45-2.52a21.58,21.58,0,0,1,3.32,3.78,28.15,28.15,0,0,0-2.42,1.87A25.43,25.43,0,0,0,486,5.75Z"/><path class="f05c2d02-8ba3-44be-ad80-79e3ef5ee44d" d="M511.93,3.59a25.63,25.63,0,0,0,1.66,5.58c5-2,6.77-3.42,7.74-4.18,1.11,1.51,2.63,3.21,3.6,4.28a50.61,50.61,0,0,1-9,4.65c2.09,3.56,5.83,8.21,8,9.9L520.21,27c-2.73-2-6.76-2.73-9.57-2.73s-6,.71-6,3c0,.93.94,3.67,7.49,3.67a20.13,20.13,0,0,0,8.46-1.8,25.1,25.1,0,0,0,1.08,5.65,32.53,32.53,0,0,1-9.29,1.26c-8.75,0-13.89-3.6-13.89-8.28,0-3.09,2.62-8,10.8-8a12.92,12.92,0,0,1,3.88.43c-.68-1-1.26-2-2.59-4.39a65.93,65.93,0,0,1-12.49,2.3l-1.87-5.58a51.47,51.47,0,0,0,12.09-1.62c-.43-.93-2.3-5.18-2.7-6Z"/><path class="f05c2d02-8ba3-44be-ad80-79e3ef5ee44d" d="M539,7c.32.11.72.22.72.54,0,.47-.43.54-.76.58a32.32,32.32,0,0,0-2,10.83c0,4.39,1.37,7.45,2.41,7.45s2.52-3.16,3.49-5.43a16.29,16.29,0,0,0,3.78,3.81c-2.88,7-6.15,9.43-7.92,9.43-2,0-7.34-4.28-7.34-15.4A64.3,64.3,0,0,1,533.1,5.32Zm17.39.25a35.89,35.89,0,0,1,7.27,18.11c-2.13.83-4.68,2.05-5.87,2.66a32.75,32.75,0,0,0-6-17.82Z"/></g></g></svg>