<svg xmlns="http://www.w3.org/2000/svg" viewBox="0 0 560 58.7"><defs><style>.f92ebe0e-5d73-45a2-b316-64ca3a25930b{fill:#00b4dc;}</style></defs><title>ttl_campaign</title><g id="bb723074-e27e-4dd0-a963-c08b855e1048" data-name="レイヤー 2"><g id="f3499de5-9f8f-4083-a5d6-3c8321715a41" data-name="object"><rect class="f92ebe0e-5d73-45a2-b316-64ca3a25930b" y="53.7" width="560" height="5"/><path class="f92ebe0e-5d73-45a2-b316-64ca3a25930b" d="M29.45,8l2.18.34c1,.17,1.35.21,1.35.67s-.55.55-1,.59c-.17.42-.47,1-1,2h8.15V33.06c0,4.16-1,5.92-7.77,5.92,0-.54,0-.8,0-1.09a7.34,7.34,0,0,0-1.51-4.49v2.52H17.73v1H12.22V27.14c-.12.08-.25.12-.42.21a8.09,8.09,0,0,0-2.94-2.78V39H2.77V11.64h8.78A15.79,15.79,0,0,0,9.91,8.57l3-.55h-11V3H17.81V0l6.34.29c.42,0,.8.13.8.55s-.42.59-.8.76V3h16V8ZM8.86,17v5.93A9.29,9.29,0,0,0,13.32,17Zm24.45,4.58A4,4,0,0,1,29.45,24H24.07c-2.48,0-3.28-.89-3.28-2.86V17H16.51l2.23.72c.29.08.88.29.88.67,0,.17,0,.46-1.14.71a15.09,15.09,0,0,1-3.82,6.18H29.91V33.1c.84.09,1.55.21,2,.21,1.3,0,1.38-.42,1.38-1.38ZM16.51,8a22.46,22.46,0,0,1,1.85,3.24l-1.52.38H24.2A27.24,27.24,0,0,0,25.88,8Zm7.85,21.6H17.73v2h6.63ZM26.09,17v1.35c0,.54,0,.92.84.92h1.26c.8,0,.92-.71,1.26-2.27Zm7.22,0H29.49a11.92,11.92,0,0,0,3.82,2Z"/><path class="f92ebe0e-5d73-45a2-b316-64ca3a25930b" d="M69.39,3.19c.42,0,.63.17.63.42s-.38.51-1,.76a38.49,38.49,0,0,1-1.43,6.93,14.29,14.29,0,0,0-5.38-1v1.09H48.09V7.23H62.2v2.94a38.69,38.69,0,0,0,1.52-7.73ZM61.87,38.31h-5V36.84H54.48V38.9H49.22V23.82H61.87V28.1a20.86,20.86,0,0,0,2.56-7.35l5.38,1.14c.29,0,.75.25.75.58,0,.63-.84.8-1.21.84a35.21,35.21,0,0,1-2.19,6.94,13.56,13.56,0,0,0-5.29-1.64V33.9c9-2.77,8.9-8.32,8.78-16l6.09.33c.21,0,.63,0,.63.51,0,.25-.29.46-1.13.71,0,1.09,0,1.81,0,3.11a12.4,12.4,0,0,0,3.66,6.76c.75.72,3.9,3.61,6.47,4.54a12.06,12.06,0,0,0-3.74,4.7,20.3,20.3,0,0,1-8.4-7.64c-1.26,2.39-4.54,6.47-9.16,7.94a12.72,12.72,0,0,0-3.15-4.08ZM60.73,1.72V5.8H50.15V1.72Zm0,11.09v4.08H50.15V12.81Zm0,5.51v4.07H50.15V18.32ZM56.91,32.05V28.4H54.48v3.65ZM76.4.46c.51,0,.84.09.84.46s-.67.68-1.17.8c0,.63-.17,3.49-.17,4.08A9.58,9.58,0,0,0,79,11.64,25.85,25.85,0,0,0,86.65,16a14.85,14.85,0,0,0-3.78,4.54c-1.93-.88-6.3-2.9-9.24-6.81a18.62,18.62,0,0,1-8.82,6.73,15.87,15.87,0,0,0-3.32-4.5C68.72,13.57,70.4,10,70.4,3.32c0-1.22-.05-1.93-.09-3.07Zm9.08,4A.69.69,0,0,1,85.9,5c0,.21-.13.5-.59.5a3.94,3.94,0,0,1-.76-.08,27.4,27.4,0,0,1-3.82,5.12,17.38,17.38,0,0,0-4.45-3.31,22.61,22.61,0,0,0,4-5.59ZM85,22.35c.42.21.63.38.63.71,0,.51-.67.72-1.26.76a25.57,25.57,0,0,1-2.77,4.58,16.14,16.14,0,0,0-4.45-3A27.54,27.54,0,0,0,80.06,20Z"/><path class="f92ebe0e-5d73-45a2-b316-64ca3a25930b" d="M107.4,1.6l6.72-.93c.29,0,.88-.08.88.42s-.29.63-.63.88l.8,5.47,9.45-1.18.71,6.13-9.24,1.26.63,4.37,14-1.81.71,6.18-13.77,1.85,1.93,13.23-6.72,1.13-2-13.48-14.7,1.93-.76-6.3L110,18.86l-.63-4.33L99.08,15.88l-.76-6.3L108.4,8.32Z"/><path class="f92ebe0e-5d73-45a2-b316-64ca3a25930b" d="M152,8.36l5.88-.71c.38-.05.88-.13.88.37,0,.34-.33.59-.63.8l1.22,6.09,10.13-2.06a3.52,3.52,0,0,0,1.93-1.13l4.07,3.07c-1.76,2.14-4.11,6.42-7.06,11.76a39,39,0,0,0-5.5-2.65A29.59,29.59,0,0,0,166,19.11l-5.59,1.26,3.19,16.26L157.88,38l-3.23-16.29-8.45,1.89-1.59-5.72,8.94-1.8Z"/><path class="f92ebe0e-5d73-45a2-b316-64ca3a25930b" d="M193.24,1.68c7.06,3.61,9.24,5.71,10.5,6.89-1,1.22-1.3,1.68-4.07,5.71a43.4,43.4,0,0,0-10.59-6.72Zm-3.44,29c12-2.48,23.77-10.59,31.25-22.6a27.15,27.15,0,0,0,4.33,5.71,55.57,55.57,0,0,1-13.07,14A69.92,69.92,0,0,1,195,37.18c0,.46-.21.92-.59.92s-.42-.13-.67-.59Z"/><path class="f92ebe0e-5d73-45a2-b316-64ca3a25930b" d="M232.09,19.87c2.82-2.06,3.49-2.77,9.37-9.41,3.95-4.41,5.5-5.71,7.9-5.71,2.69,0,4,1.59,6.93,5.16,5,6.09,10.16,12.1,16.38,16.93-1.6,2-3.65,5-4.45,6.14a226.49,226.49,0,0,1-16.34-18.61c-1.68-2.15-2.27-2.15-2.78-2.15-1,0-2.31,1.56-3.31,2.74-2,2.3-6.14,7.72-7.48,9.78a1.85,1.85,0,0,1,.13.55.42.42,0,0,1-.38.46,1.06,1.06,0,0,1-.72-.42Zm37-15.33A3.95,3.95,0,1,1,265.11.59,4,4,0,0,1,269.06,4.54Zm-5.8,0a1.84,1.84,0,0,0,1.85,1.84,1.85,1.85,0,1,0-1.85-1.84Z"/><path class="f92ebe0e-5d73-45a2-b316-64ca3a25930b" d="M316.48,16.17v7.14H280V16.17Z"/><path class="f92ebe0e-5d73-45a2-b316-64ca3a25930b" d="M331.84,1.68c7.06,3.61,9.25,5.71,10.51,6.89-1,1.22-1.31,1.68-4.08,5.71a43.58,43.58,0,0,0-10.58-6.72Zm-3.44,29c12-2.48,23.78-10.59,31.25-22.6A27.15,27.15,0,0,0,364,13.82a55.57,55.57,0,0,1-13.07,14,69.92,69.92,0,0,1-17.3,9.37c0,.46-.21.92-.59.92s-.42-.13-.67-.59Z"/><path class="f92ebe0e-5d73-45a2-b316-64ca3a25930b" d="M382.24,3.57c.8.29,1.14.42,1.14.72s-.84.46-1.14.5a48.82,48.82,0,0,0-2.73,17.35,14.6,14.6,0,0,0,.3,3.36c.25-.46,1.26-2.31,1.76-3.15a12.16,12.16,0,0,0,3.24,3.44c-1.05,2-3,6.85-2.78,10l-6,1.6a44.25,44.25,0,0,1-3-16.8c0-7.61,1.17-12.82,2.68-19.5Zm11.09,19.74a11.6,11.6,0,0,0-.63,3c0,1.84,1,2.14,5.84,2.14a42.65,42.65,0,0,0,10.38-1.14,27.73,27.73,0,0,0-.63,6.85,89.24,89.24,0,0,1-10.63.55c-6.26,0-11.09-1.09-11.09-6.22A15.48,15.48,0,0,1,388,22.31ZM388.25,5.38c1.26.08,2.94.21,5.46.21a48.49,48.49,0,0,0,12.35-1.35,62.16,62.16,0,0,0,.59,6.39,63,63,0,0,1-12.94,1.26c-2.48,0-4.12-.13-5.46-.21Z"/><path class="f92ebe0e-5d73-45a2-b316-64ca3a25930b" d="M416.89,8.65a34.61,34.61,0,0,0,5.29-1C434,4.54,436.89,3.82,441.51,3.82,451.59,3.82,456,10.5,456,17.9c0,15.83-19.11,17-25.88,17.34A27.75,27.75,0,0,0,428,28.52c7.56.05,20.92-.21,20.92-10.54,0-2.19-.75-8-8.19-8-6.26,0-16.63,4.24-21.17,6.8Z"/><path class="f92ebe0e-5d73-45a2-b316-64ca3a25930b" d="M473.64,4.5c.37.12.84.25.84.63,0,.54-.51.62-.89.67a37.62,37.62,0,0,0-2.35,12.64c0,5.13,1.6,8.7,2.82,8.7s2.94-3.7,4.07-6.35a19.29,19.29,0,0,0,4.41,4.46c-3.36,8.15-7.18,11-9.24,11-2.35,0-8.57-5-8.57-18a74.67,74.67,0,0,1,2.06-15.71Zm20.29.29a41.87,41.87,0,0,1,8.48,21.13c-2.48,1-5.46,2.39-6.85,3.11a38.31,38.31,0,0,0-7.05-20.8Z"/><path class="f92ebe0e-5d73-45a2-b316-64ca3a25930b" d="M547.94,7.81c-12-.12-19.16,10.42-19.16,15.88,0,7,9.5,7.48,11.72,7.61a37,37,0,0,0-3.15,7.56c-7.35-1.73-15.46-5.63-15.46-14.66,0-7.73,5.8-12.56,7.44-13.91A142,142,0,0,0,512,12.77l-.88-7.9c.92,0,1.81.13,3.15.13,6.17,0,22.94-1.18,32.47-4.16Z"/></g></g></svg>