<svg xmlns="http://www.w3.org/2000/svg" viewBox="0 0 132.28 40"><defs><style>.b7d80eb2-c597-4061-8387-5f64e9e3de99{fill:#00b4dc;}</style></defs><title>ttl_other</title><g id="bf18f0bd-0938-40c0-b112-a701ab977ab5" data-name="レイヤー 2"><g id="ab46569e-9c0c-4f9b-9c30-e60d831757f0" data-name="object"><rect class="b7d80eb2-c597-4061-8387-5f64e9e3de99" width="10" height="40"/><path class="b7d80eb2-c597-4061-8387-5f64e9e3de99" d="M58.58,17.73c-10.25,0-15.15,6.27-15.15,9.87s3.85,4.06,9.39,4.1a35.13,35.13,0,0,0-2,5.43c-5.68-.5-13.64-1.33-13.64-8.81a11.6,11.6,0,0,1,4-8.1,85.84,85.84,0,0,0-13.39,3.2l-1.4-6.51c2.81-.11,6-.36,8.78-.69a29.79,29.79,0,0,0,6.7-6.59c-.9.08-4.94.51-5.76.58-1.12.07-1.88.11-2.59.11l-.37-5.58c.87,0,2.27.11,4.18.11,1,0,9.22,0,14.18-1.41l2.23,3.31A108.16,108.16,0,0,0,43.93,15c6-1.08,9-1.66,14-2.81Z"/><path class="b7d80eb2-c597-4061-8387-5f64e9e3de99" d="M79.47,30.22C87.28,28.78,89.58,22.74,89.58,19a8.53,8.53,0,0,0-8.31-8.82c-1.12,13.18-6.56,23-10.37,23-2.81,0-8-4.76-8-11.41C62.87,14,69.93,5,80.51,5c7.88,0,14.76,5.36,14.76,14A16.8,16.8,0,0,1,91,30.08c-2.2,2.56-4.75,3.89-7.81,5.22A23.54,23.54,0,0,0,79.47,30.22ZM68.2,21.33c0,2.77,1.55,4.86,2.3,4.86s1.55-1.62,2-2.55a31.75,31.75,0,0,0,2.77-12.39C71,12.8,68.2,18.09,68.2,21.33Z"/><path class="b7d80eb2-c597-4061-8387-5f64e9e3de99" d="M105.89,36.56H101V19.71c-.29.36-.58.69-.86,1A15.66,15.66,0,0,0,97,16.47c4.25-4.1,7.56-10.94,8-13.21l4.86,1.91a.5.5,0,0,1,.4.47c0,.29-.4.54-.9.61a42.34,42.34,0,0,1-3.28,6.52c.33.14.58.28.58.68s-.47.58-.76.68ZM117.52,12.8V3.48l4.82.36c.4,0,.79.07.79.54,0,.29-.43.54-.79.65v6.73l5.22-1.15,2.34,1.33V21c0,4.07-.83,5.18-1.22,5.69-.9,1.15-3.28,1.72-5,1.72a10.28,10.28,0,0,0-1.37-4.32v3.82h-4.82V17.84l-2,.43V29.32c0,1.48,1.29,1.91,3,1.91h6.66c1.87,0,2.19-1.4,2.73-3.6a8.7,8.7,0,0,0,4.4,2.09c-1.12,5.65-3.89,6.23-7.2,6.23h-8.25c-5.94,0-6.33-3-6.33-5.65V19.35l-3.28.69-1-4.83,4.25-.9V5.86l4.89.28c.18,0,.72,0,.72.54,0,.33-.21.51-.64.72v5.83Zm4.82,4v6.66c.36,0,1,.08,1.44.08s1,0,1-1V16.29Z"/></g></g></svg>