<svg xmlns="http://www.w3.org/2000/svg" viewBox="0 0 630 54.46"><defs><style>.f459ab83-ab13-4ee8-a22a-cc140fa11e1b{fill:#5ab400;}</style></defs><title>ttl</title><g id="af38d750-f976-4bdd-b3d7-8ee9bcf63df3" data-name="レイヤー 2"><g id="edb3e89f-b30e-4301-83d1-7719f7980939" data-name="object"><rect class="f459ab83-ab13-4ee8-a22a-cc140fa11e1b" y="49.46" width="630" height="5"/><path class="f459ab83-ab13-4ee8-a22a-cc140fa11e1b" d="M12.24,23.29h4.93v4.25H12.24v6.37H7.41V27.54h-5V23.29h5V21.56H1.94V17.31H4a12.79,12.79,0,0,0-1-2.66l2.81-.79H1.22V9.65H7.41V8H3v-4H7.41v-3l5.08.25c.25,0,.5.14.5.39s-.36.58-.75.83V3.92h4.64V8H12.24V9.65h5.51v4.21H13.61l2.41.5c.32.07.65.15.65.51s-.29.5-.94.54c-.32.86-.65,1.62-.79,1.9h2.55v4.25H12.24Zm-4.5-9.43A24.68,24.68,0,0,1,9,16.92l-1.26.39h2.7a17.69,17.69,0,0,0,1.15-3.45Zm15.91,20h-5V1.62H33.37c0,5.76,0,8-.22,9.18-.43,2.37-2.63,3.06-6.51,3.09a10.6,10.6,0,0,0-1.91-5A8.33,8.33,0,0,0,27,9.18c1.22,0,1.36-.25,1.36-1.62V6.16H23.65v8.53h8.46l2.41,2.52A47.35,47.35,0,0,1,31,26.85a20.81,20.81,0,0,0,4.25,4,17.21,17.21,0,0,0-4,3.24,38.22,38.22,0,0,1-2.88-3,14,14,0,0,1-2.16,2.59,13.12,13.12,0,0,0-2.59-2.09Zm3.09-14.58a17,17,0,0,0,1.12,3.28,19,19,0,0,0,1.08-3.46H23.65v2.12ZM23.65,29.7a23,23,0,0,0,1.8-2.49,20.58,20.58,0,0,1-1.8-4Z"/><path class="f459ab83-ab13-4ee8-a22a-cc140fa11e1b" d="M50.36,14.51V26.1a3,3,0,0,0,2.23,2.52c1.77.54,5.22.54,8,.54,1.76,0,10.54-.11,14.32-.87a9.18,9.18,0,0,0-1.37,5.19H57.06c-5.29,0-7.2-1-8.79-2.81-.57.57-3.7,2.77-3.81,2.84a3.59,3.59,0,0,1,.07.65.5.5,0,0,1-.47.54c-.18,0-.43-.25-.57-.5l-2.7-4.83a29.63,29.63,0,0,0,4.46-2.45V19.26H41.11V14.51ZM44.46,1.15a25.68,25.68,0,0,1,5.36,5C48.67,7.38,47.45,8.82,46.51,10a32.52,32.52,0,0,0-5.43-5.33Zm27.72,9V28.08H66.85V27.5H58.61v.86H53.35V10.19h4.5c.11-.25.54-1.34.65-1.55H50.9V4.36h4A20.74,20.74,0,0,0,53.35,2.3L57.74.18A16.24,16.24,0,0,1,60.3,3.89c-.83.18-1.26.32-1.77.47h5.26A27.63,27.63,0,0,0,65.66.14l5,1.44a.55.55,0,0,1,.47.51c0,.5-.47.61-.86.68-.07.15-.58,1-.9,1.59h4.68V8.64H64.22c-.11.21-.5,1.08-.75,1.55ZM66.85,15V13.43H58.61V15Zm0,4.47V17.89H58.61v1.55Zm0,4.57V22.39H58.61V24Z"/><path class="f459ab83-ab13-4ee8-a22a-cc140fa11e1b" d="M88,25.45V21.78h6.55c0-.25,0-.43.11-1.41H89V16.81h2.41A12.51,12.51,0,0,0,90,15.08l3.64-1.65H86.51V33.91H81.43V1.58H96V13.43H94.25a29.35,29.35,0,0,1,2,2.91l-1.08.47H98.6a17.68,17.68,0,0,0,1.51-3.38H98.42V1.58H113V30.52c0,1.52-1.12,3.89-6.37,3.64a15,15,0,0,0-1.37-4.72,20.71,20.71,0,0,0-2.45,3.28A16.3,16.3,0,0,1,97.2,28a13.78,13.78,0,0,1-6.7,5.3,13.07,13.07,0,0,0-3-3.68c3.2-1.08,4.75-2.16,5.94-4.17ZM91.26,6.3V5H86.51V6.3ZM86.51,8.71V10h4.75V8.71ZM99.32,20.37c0,.4,0,.62,0,1.41h7.34v3.67h-5.76A14.59,14.59,0,0,0,105.73,29l0,0c.61.07,1.26.18,1.48.18.79,0,.79-.69.79-1.23V13.43h-7.31l3.89,1.29a.48.48,0,0,1,.32.47c0,.22-.28.36-.9.43-.17.51-.32.76-.5,1.19h2.09v3.56ZM108,6.3V5h-4.79V6.3Zm-4.79,2.41V10H108V8.71Z"/><path class="f459ab83-ab13-4ee8-a22a-cc140fa11e1b" d="M150.3,13.53a29.41,29.41,0,0,1,4.28,7.17,17.81,17.81,0,0,0-4.14,2.59c-.29-.72-.5-1.19-.94-2.09-3,.22-3.34.25-5.4.36V34.05h-5.29V21.81c-1,0-5.4.15-6.26.18-.18.36-.32.76-.76.76a.56.56,0,0,1-.46-.5l-.76-4.83c.94,0,5.22.07,6.08.07.22-.21.47-.46.69-.64A32.92,32.92,0,0,0,131,12.78l2.95-4c1.26.75,1.37.86,1.8,1.12,1.15-1.52,1.58-2.16,1.83-2.56-.5.07-2.84.29-3.31.36a15.17,15.17,0,0,0-2.09-4.21,51.76,51.76,0,0,1-3.2,7.09l.9.5c.36.22.43.36.43.54,0,.36-.29.47-.65.61V30.52a25.67,25.67,0,0,0,4.29-7.34l3.89,1.87c.5.26.72.4.72.62s-.33.39-.8.46a35.93,35.93,0,0,1-3.81,6.63,10.34,10.34,0,0,0-4.29-2.2v3.49h-5.47V17.71c-.75.9-.82,1-1.15,1.37A15.37,15.37,0,0,0,118.8,16,36.05,36.05,0,0,0,127.47.72L132.55,2c.32.07.68.29.68.61a.62.62,0,0,1-.32.51A55.82,55.82,0,0,0,148.39.54l3,3.78a.81.81,0,0,1,.18.43.43.43,0,0,1-.47.47c-.14,0-.57-.11-.86-.14a41.19,41.19,0,0,1-5.9,1.4.49.49,0,0,1,.25.43c0,.29-.22.47-1,.61-1.66,2.27-2.16,3-3.92,5.15.39.29.57.43,1,.83a41.19,41.19,0,0,0,4.93-6.41l4.61,2.41c.29.15.54.36.54.61,0,.44-.47.44-1.19.51a55.93,55.93,0,0,1-6.48,6.87l4.11-.18c-.44-.61-.69-1-1.16-1.58Zm-1.55,8.75a45.27,45.27,0,0,0,4.79,8.1,11.52,11.52,0,0,0-4.43,2.12,40.38,40.38,0,0,1-4.57-8.24Z"/><path class="f459ab83-ab13-4ee8-a22a-cc140fa11e1b" d="M176.87,27.68C184.68,26.24,187,20.19,187,16.45a8.53,8.53,0,0,0-8.31-8.82c-1.12,13.18-6.56,23-10.37,23-2.81,0-8-4.75-8-11.41,0-7.74,7.06-16.77,17.64-16.77,7.88,0,14.76,5.36,14.76,14a16.8,16.8,0,0,1-4.25,11.13c-2.2,2.55-4.75,3.88-7.81,5.22A23.54,23.54,0,0,0,176.87,27.68ZM165.6,18.79c0,2.77,1.55,4.86,2.3,4.86s1.55-1.62,1.95-2.56a31.66,31.66,0,0,0,2.77-12.38C168.44,10.26,165.6,15.55,165.6,18.79Z"/><path class="f459ab83-ab13-4ee8-a22a-cc140fa11e1b" d="M216.68,15.87a4.4,4.4,0,0,1-.25-1.54V.65l5.47.43c.36,0,.61.14.61.4s-.28.5-.93.86V5.83a37.77,37.77,0,0,0,6.51-3.49l3.75,3.38c.14.15.32.33.32.51a.51.51,0,0,1-.58.5,3.16,3.16,0,0,1-.75-.14,84.93,84.93,0,0,1-9.25,4v1.15c0,1.33,1.08,1.33,1.58,1.33h3.53c1.26,0,1.62-1.47,2.09-3.27a12.71,12.71,0,0,0,4.28,1.94c-1,6-3.42,6-5.4,6h-7.49a5.05,5.05,0,0,1-2.8-.83c-.26.54-.72,1.47-1,2h12.24V33.76H223v-1H209v1H203.4V19h7.27a28.58,28.58,0,0,0,1.3-2.92c-5.15.94-5.62,1-10.73,2-.11.44-.25.76-.58.76s-.43-.36-.5-.68l-1.22-4.76c1.33-.07,2.88-.21,4-.39V.76l5.83.36a.49.49,0,0,1,.47.5c0,.32-.33.5-.83.76V4.93h7.05V9.25h-7.05v2.92c4-.62,5.72-1,7.05-1.26a26.44,26.44,0,0,0-.54,4.57,2.86,2.86,0,0,0-.28.07ZM223,24.23v-1.3H209v1.3Zm0,4.71v-1.4H209v1.4Z"/><path class="f459ab83-ab13-4ee8-a22a-cc140fa11e1b" d="M249.26,26.82A38.45,38.45,0,0,0,258.59,22V17.85h-3.75a28.77,28.77,0,0,1,2.77,3.6A27.51,27.51,0,0,0,254.3,24a46.58,46.58,0,0,0-3.27-4.1l2.8-2.06h-3.06a8.44,8.44,0,0,0,.76.87,8.19,8.19,0,0,0-2.2,3.85c-.68-.9-1.08-1.44-1.62-2.3V34H243V22.35A20.92,20.92,0,0,1,241.2,26a13.24,13.24,0,0,0-3.38-3.27,32,32,0,0,0,4.6-11.34h-3.6V7.06h3.93V1l5,.26c.4,0,.83.14.83.54s-.5.54-.83.61V7.06h2.63v4.35h-2.63v1.15a19.76,19.76,0,0,0,2.81,5V14h8.07V12.63H252.5V9.25h6.09V7.92h-7.74V4.28h3.52A13.42,13.42,0,0,0,252.79,2L257,0a31.26,31.26,0,0,1,2.34,3.67l-1.19.61h4a25.65,25.65,0,0,0,1.77-4l4.6,1.37c.44.14.72.28.72.54,0,.46-.46.5-1.08.5-.25.47-.28.58-.86,1.58h4.18V7.92h-7.82V9.25h6v3.38h-6V14h8.57v3.88h-2.66l2.55,2.09a.67.67,0,0,1,.36.54c0,.54-.61.47-1,.47a20.51,20.51,0,0,1-3.68,3.92,17.55,17.55,0,0,0,5.4,3.1,9.64,9.64,0,0,0-2.73,3.74,23.66,23.66,0,0,1-6.81-5.61v2.8c0,4-1.25,5.12-6.91,5.33a12.56,12.56,0,0,0-2-5,14.92,14.92,0,0,0,2.27.18c1.55,0,1.59-.39,1.59-1.29V26.74c-.72.44-3.1,1.88-6.48,3.6,0,.22.1,1.16-.4,1.16s-.65-.47-.86-1Zm14.36-6.91a12.91,12.91,0,0,0,1.48,2.23,23.15,23.15,0,0,0,3.31-4.29h-4.79Z"/><path class="f459ab83-ab13-4ee8-a22a-cc140fa11e1b" d="M277.34,19.55a38.52,38.52,0,0,0,8-8.39c2.92-4,3.89-5.26,6.08-5.26s3.75,1.52,6.09,4.47c3.09,3.85,7.95,9.93,14.79,14.65a35.63,35.63,0,0,0-4,5.47c-6.05-5.11-10.22-10.26-15.08-16.24-.29-.36-1.26-1.54-2-1.54s-1.26,1-1.76,1.69c-4.1,6-4.53,6.69-7.34,9.79Z"/></g></g></svg>