<svg xmlns="http://www.w3.org/2000/svg" width="411.82" height="30" viewBox="0 0 411.82 30"><defs><style>.cls-1{fill:#ff9600;}</style></defs><g id="レイヤー_2" data-name="レイヤー 2"><g id="object"><path class="cls-1" d="M28.86,7.9l1.27,1.32a19.08,19.08,0,0,1-6.6,13.49,8.33,8.33,0,0,0-3.1-2c3.65-2.57,5.71-6.1,6-9.55h-4.9V7.9Zm13.53-.6c.32.15.46.22.46.43s-.38.32-.72.32a39.3,39.3,0,0,1-5.57,5.71A23.37,23.37,0,0,0,43.31,20,8.46,8.46,0,0,0,41,22.76a23.36,23.36,0,0,1-6.89-6.84v5.33c0,3.33-.86,3.81-5.35,3.81a8.26,8.26,0,0,0-1.11-3.5,13.44,13.44,0,0,0,2,.19c.86,0,.94-.12.94-1.05V2.79L34.09,3c.31,0,.55.07.55.36s-.31.45-.55.57V8.6a12,12,0,0,0,.77,2.09A18.11,18.11,0,0,0,38.94,5.6Z"/><path class="cls-1" d="M65.67,10.35v3.58H57.18v6.86H67V24.3H45.08V20.79h8.23V3.05l4.13.29c.26,0,.34.12.34.27s-.17.28-.6.43v6.31Z"/><path class="cls-1" d="M78.49,6.58c.21,0,.48.12.48.36s-.34.36-.51.36c-1.92,8.72-4.2,12.36-6.72,15.34a18.64,18.64,0,0,0-3.62-1.7A27.67,27.67,0,0,0,74.55,5.62Zm5.74-1.49a42.31,42.31,0,0,1,7,14.69,26.12,26.12,0,0,0-3.77,2.09A34.71,34.71,0,0,0,81.1,7.33Zm2.9-.81A16.41,16.41,0,0,1,89.53,7c-.6.48-1.18,1-1.78,1.53a21.72,21.72,0,0,0-2.4-2.83Zm2.4-1.73a16,16,0,0,1,2.4,2.66,12.06,12.06,0,0,0-1.7,1.42,20.64,20.64,0,0,0-2.36-2.71Z"/><path class="cls-1" d="M95.67,8.24V4.64h12.27a6.75,6.75,0,0,0,1.65-.19l1.88,2A6.9,6.9,0,0,0,110.55,8a40.38,40.38,0,0,1-3,5.88,64.39,64.39,0,0,1,7.2,6.58c-.8.91-2.09,2.35-2.88,3.26a33.23,33.23,0,0,0-6.46-6.84,27.85,27.85,0,0,1-9.22,7.18,10.78,10.78,0,0,0-2.73-3.29,20.19,20.19,0,0,0,7.8-4.8A19.1,19.1,0,0,0,106,8.24Z"/><path class="cls-1" d="M138.51,7.35c-5.92-.1-11.06,5.23-11.06,9.12,0,2.79,3.53,4.15,6.79,4.23a31.82,31.82,0,0,0-1.8,4.36c-1.94-.52-8.83-2.44-8.83-8.18A11,11,0,0,1,128,8.62a67.37,67.37,0,0,0-9.93,1.51l-.55-4.51a78.07,78.07,0,0,0,10.68-.55,57.12,57.12,0,0,0,9.62-1.75Zm-4,3.41a14.53,14.53,0,0,1,2.23,2.57c-.67.48-1,.74-1.85,1.44a20.22,20.22,0,0,0-2.13-2.72Zm2.52-1.71a15.52,15.52,0,0,1,2.14,2.52c-.6.46-1,.82-1.76,1.49a17.48,17.48,0,0,0-2.13-2.71Z"/><path class="cls-1" d="M148.76,15.82c-.67.58-1.87,1.83-1.87,2.62,0,1.73,3.29,1.73,4.29,1.73a33.73,33.73,0,0,0,9.63-1.44,18,18,0,0,0,.62,4.08,36.36,36.36,0,0,1-9.38,1.1c-3.75,0-5.23-.41-6.41-.89-.77-.31-3-1.44-3-3.86s2.5-4.73,3.48-5.62Zm10.08-7.89a16.67,16.67,0,0,0-6.05,3.91c-.86-.75-1.77-1.51-2.52-2.06.89-.82,1.11-1,1.8-1.57-1.49.12-5.52.34-7.56.29l-.19-4a48.3,48.3,0,0,0,6,.32A45.38,45.38,0,0,0,157,4.25Zm1.06-3.75a17.25,17.25,0,0,1,2.18,2.52,9.65,9.65,0,0,0-1.41,1.73,26.19,26.19,0,0,0-2.31-2.66Zm1.85-2A26.76,26.76,0,0,1,164,4.49a9.56,9.56,0,0,0-1.53,1.64,21.26,21.26,0,0,0-2.09-2.36Z"/><path class="cls-1" d="M177.73,24.94h-3.46v-6.4a23.83,23.83,0,0,1-7,6.12,8.22,8.22,0,0,0-3.07-2.38,20.55,20.55,0,0,0,7.7-6.14H165V13h4.49a19.19,19.19,0,0,0-1.92-3.56l1.73-1h-3.17V5.38h8.18V2.93l3.6.22c.29,0,.53.05.53.36s-.48.41-.67.46V5.38h8.14V8.5h-3.12l1.46.63c.17.07.24.16.24.28,0,.32-.29.37-.48.41a22,22,0,0,1-1.51,3.2H187v3.12h-7.12a18.65,18.65,0,0,0,7.46,5.8,11.12,11.12,0,0,0-2.54,2.6,18.83,18.83,0,0,1-7.06-6.15ZM174.27,13V8.5h-3.09a13.53,13.53,0,0,1,2,3.7,11.92,11.92,0,0,0-1.83.82Zm3.46-4.52V13h2.78a15.3,15.3,0,0,0-1.65-.87,18.78,18.78,0,0,0,1.82-3.65Z"/><path class="cls-1" d="M199.28,18.25a16.5,16.5,0,0,1-2.83,2.9,6.18,6.18,0,0,0-2.26-1.61c.43-.33.79-.6,1.35-1.08-1.49.65-3.32,1.35-5.26,2,0,.28-.1.62-.36.62s-.34-.31-.38-.55l-.82-3.39a17.74,17.74,0,0,0,2.71-.5V11.19H189V8.07h2.47v-5l3.55.19c.29,0,.51,0,.51.26s-.15.29-.51.46V8.07h2.14v3.12H195v4.37c.58-.24.94-.38,1.52-.65h-.17V12.49h14.54v2.42h-9.29l-.45.77h9.58c0,2.42-.08,7.22-1.64,8.45-.91.72-2.44.79-4,.79a7,7,0,0,0-.64-2.59,19,19,0,0,1-2.86,3,6.07,6.07,0,0,0-2.55-1.54,16.68,16.68,0,0,0,5.07-5.54h-1.08a16.84,16.84,0,0,1-6.31,6.36,6.18,6.18,0,0,0-2.12-1.92,14.73,14.73,0,0,0,5.6-4.44Zm-2.18-3.34a9.74,9.74,0,0,0-.17,2.14,15.17,15.17,0,0,0,1.46-2.14Zm12.09-3.21H198V3.25h11.21ZM206,6.56V5.74h-4.72v.82Zm-4.72,1.92v.81H206V8.48Zm5.66,9.77a26.2,26.2,0,0,1-1.9,3.33,8,8,0,0,0,.84.05c.48,0,.92-.05,1.08-.6a11.81,11.81,0,0,0,.44-2.78Z"/><path class="cls-1" d="M224.31,20.82c5.21-1,6.75-5,6.75-7.49a5.68,5.68,0,0,0-5.55-5.88c-.74,8.78-4.37,15.33-6.91,15.33-1.87,0-5.35-3.16-5.35-7.6A11.78,11.78,0,0,1,225,4c5.26,0,9.84,3.58,9.84,9.31A11.21,11.21,0,0,1,232,20.72a13.4,13.4,0,0,1-5.21,3.48A15.37,15.37,0,0,0,224.31,20.82Zm-7.51-5.93c0,1.85,1,3.24,1.54,3.24s1-1.08,1.29-1.71a20.9,20.9,0,0,0,1.85-8.25C218.7,9.2,216.8,12.73,216.8,14.89Z"/><path class="cls-1" d="M259,6.2V9.63H248.62c0,.89-.09,1.51-.14,2h7.59c0,8.12-.46,10.32-2.16,12-1.23,1.22-3.84,1.34-4.73,1.32a6.11,6.11,0,0,0-1.78-3.77c.65.1,2.28.36,2.52.36a1.77,1.77,0,0,0,1.92-1.39,16.42,16.42,0,0,0,.67-5.23h-4.68A16.17,16.17,0,0,1,239.19,25a6.41,6.41,0,0,0-2.95-2.6C240.51,21.08,245,17.6,245,9.63H237V6.2h9V2.89l3.84.21c.14,0,.43.07.43.34s-.26.36-.43.43V6.2Z"/><path class="cls-1" d="M282.73,4.37A14.26,14.26,0,0,0,279.06,14a14.23,14.23,0,0,0,3.67,9.62l-2.14,1.85a17.12,17.12,0,0,1,0-22.94Z"/><path class="cls-1" d="M300.51,9.17a40.37,40.37,0,0,1,7,6.68c-.21.19-2.4,2.18-2.88,2.71a32,32,0,0,0-6.5-6.65V25h-3.82V13.54a22,22,0,0,1-7.61,4.8,9.18,9.18,0,0,0-2.52-3.24,19.5,19.5,0,0,0,11-8.28H285V3.53h22V6.82h-6.93a23.42,23.42,0,0,1-1.73,2.38c.19.07.41.14.41.43s-.31.41-.6.48v1.46Z"/><path class="cls-1" d="M321.92,14.62h6.31v3.15h-6.31v3.57c.6,0,1.3.05,2.23.05a68.24,68.24,0,0,0,7.4-.41,8.13,8.13,0,0,0-.87,3.75H321.3a8.2,8.2,0,0,1-7.08-3.36A18.16,18.16,0,0,1,312,25.16a7.12,7.12,0,0,0-3.43-1.49,16.68,16.68,0,0,0,4.08-9.93l3.69.64c.22,0,.48.1.48.39s-.14.29-.67.48c-.12.6-.24,1.2-.55,2.35a5.17,5.17,0,0,0,2.69,3.12V12.41H312V10.59h-3V5h9.1V2.77L321.8,3c.34,0,.65,0,.65.28s-.12.29-.65.53V5H331v5.47h-2.79v1.92h-6.31Zm5.55-5.3V7.93h-15V9.32Z"/><path class="cls-1" d="M338.58,20.05a.34.34,0,0,1,.24.33c0,.36-.41.36-.68.36a25.94,25.94,0,0,1-2.88,4.08,11.34,11.34,0,0,0-2.92-1.41,14.4,14.4,0,0,0,3.24-4.71ZM340,5.26V3.1l3.67.22c.22,0,.41.09.41.31s-.07.31-.65.5V5.26h1.18V8.05h-1.18v7.8h1.35v2.69H332.82V15.85h1.6V8.05H333V5.26h1.46v-2l3.63.14a.35.35,0,0,1,.36.34c0,.24-.24.33-.58.5v1Zm-2.16,2.79v1.1H340V8.05Zm0,3.36v1.08H340V11.41Zm0,3.36v1.08H340V14.77Zm7.75-10.92h8.91v18.5c0,1.54-.53,2.57-4.3,2.5a7.74,7.74,0,0,0-1.41-3.31,7.74,7.74,0,0,0,1.53.21c.68,0,.68-.36.68-.72V17h-2.16a14.69,14.69,0,0,1-3.56,8.09,6.31,6.31,0,0,0-3-1.75,15.37,15.37,0,0,0,1.1-1.3,8,8,0,0,0-2.37,1.4,16.49,16.49,0,0,1-1.88-3.41l2.52-1.32a14.85,14.85,0,0,0,2,3,12.85,12.85,0,0,0,2-7.56ZM351,12H349v1.73c0,.14,0,.26,0,.41h2ZM349,9.05H351V6.92H349Z"/><path class="cls-1" d="M362.91,11.79v7.15c0,2.62,2.95,2.69,7.52,2.69a89.88,89.88,0,0,0,9.12-.6,9.43,9.43,0,0,0-.92,3.58H368.12c-2.69,0-5.06-.19-6.86-2.33a14,14,0,0,1-2.6,2c0,.48,0,.74-.31.74-.14,0-.31-.19-.41-.38l-1.6-3.17a17.89,17.89,0,0,0,3.07-1.56v-5h-2.33V11.79Zm-4-8.54a27.1,27.1,0,0,1,3.48,3.4,16,16,0,0,0-2.64,2.45,25.32,25.32,0,0,0-3.16-3.69Zm13.52,6.16h5.23v7.35h-5.23v.67h6.31v2.38h-6.31v1.34h-3.05V19.81h-5.83V17.43h5.83v-.67h-5.23V9.41h5.23V8.79h-4.06V7.9H362.6V3.41h16.13V7.9H376v.89h-3.6Zm-3.05-3.57H365.5v.77h3.87Zm0,5.49h-2.14v.92h2.14Zm0,2.57h-2.14v.94h2.14Zm3.05-7.29h3.41V5.84h-3.41Zm0,5.64h2.13v-.92h-2.13Zm0,2.59h2.13V13.9h-2.13Z"/><path class="cls-1" d="M390.32,22.33a9,9,0,0,0,2-6.19V10h7.95V21c0,.14,0,.31.28.31a.29.29,0,0,0,.32-.29s.12-1.89.14-2.42a6.83,6.83,0,0,0,2.74,1.58c-.15,3.94-.87,4.73-4,4.73-.67,0-2.88,0-2.88-2.38V13.16h-1.2a37.73,37.73,0,0,1-.36,6.17,11.22,11.22,0,0,1-3.24,6.09,8.84,8.84,0,0,0-1.82-2c-.17,1.51-1.3,1.7-3.87,1.73a6.39,6.39,0,0,0-1-3,10.55,10.55,0,0,0,1.66.12c.55,0,.77-.2.77-1.32V15.87l-.7.07v5.43h-2V16.11a2.64,2.64,0,0,1-.5,0,29.16,29.16,0,0,1-1.85,9A5.87,5.87,0,0,0,380.07,24,20.81,20.81,0,0,0,382,16.3a1.63,1.63,0,0,1-.38,0c-.1.6-.43.67-.55.67a.39.39,0,0,1-.34-.39l-.36-3.5c.36,0,1.18,0,1.58,0V5.33h2c.19-.43.69-1.84.86-2.44l3.31.43a.36.36,0,0,1,.34.33c0,.22-.15.36-.7.63-.17.43-.29.72-.45,1h3v7.18c.94-.12,1.06-.14,1.51-.22a10.42,10.42,0,0,0-.21,3c-.46.12-.68.16-1.3.28ZM384.7,13c1-.05,1.18-.07,3.15-.24V8.19H384.7v1l1.92-.6a13.15,13.15,0,0,1,1.2,3.34,8.9,8.9,0,0,0-2.18.69,15,15,0,0,0-.94-2.83Zm18.08-7.11v3h-12V5.86h3.82v-3l3.79.14c.17,0,.51,0,.51.31s-.24.36-.72.55v2Z"/><path class="cls-1" d="M407.41,2.53a17.12,17.12,0,0,1,0,22.94l-2.11-1.85a14.46,14.46,0,0,0,0-19.25Z"/><rect class="cls-1" width="10" height="30"/></g></g></svg>