<svg xmlns="http://www.w3.org/2000/svg" viewBox="0 0 180 30"><defs><style>.be82c064-3231-4837-b82a-805404250798{fill:#00b4dc;}.b8ea58a6-3eec-414e-ac64-a58d9621c1d0{fill:#fff;}</style></defs><title>booth_link_contact</title><g id="e8e17438-573b-4525-9110-3efdcd4edc1f" data-name="レイヤー 2"><g id="a030d63b-2609-4f75-81b5-6ade58d0a215" data-name="編集モード"><path class="be82c064-3231-4837-b82a-805404250798" d="M180,15a15,15,0,0,1-15,15H15A15,15,0,0,1,0,15H0A15,15,0,0,1,15,0H165a15,15,0,0,1,15,15Z"/><path class="b8ea58a6-3eec-414e-ac64-a58d9621c1d0" d="M23.18,12.15a7.06,7.06,0,0,0,1.39,2.57,3.12,3.12,0,0,0-.52.64,8.15,8.15,0,0,1-.94-2c0,.32,0,.32,0,1,0,.24,0,.84,0,1.12v4.3a10.7,10.7,0,0,0,.09,1.62h-1a11.53,11.53,0,0,0,.08-1.62v-4c0-.5,0-1,.07-2.11a12.89,12.89,0,0,1-.82,2.61,10.82,10.82,0,0,1-.83,1.55,2.59,2.59,0,0,0-.53-.72,11.48,11.48,0,0,0,1.5-3,13.61,13.61,0,0,0,.53-1.95h-.63a6.12,6.12,0,0,0-1,.06v-.85a6.11,6.11,0,0,0,1,.05h.71V10.08a8.1,8.1,0,0,0-.07-1.44h.94a9.94,9.94,0,0,0-.07,1.44v1.33h.38a5.73,5.73,0,0,0,.92-.05v.85a5.75,5.75,0,0,0-.91-.06Zm2.35,6.25a14.74,14.74,0,0,0,1.77-1,12.25,12.25,0,0,0-.8-1.32l.63-.28a13.66,13.66,0,0,1,1.33,2.27l-.67.39-.2-.46A24.59,24.59,0,0,1,25,19.55a9.63,9.63,0,0,0-1,.56l-.42-.85a7.57,7.57,0,0,0,1.15-.48V10.71a13,13,0,0,0-.05-1.44,10.72,10.72,0,0,0,1.08,0H27.1a10.72,10.72,0,0,0,1.08,0,10.18,10.18,0,0,0-.06,1.34V14a8.35,8.35,0,0,0,.06,1.29,6.68,6.68,0,0,0-1.2-.06H25.53Zm1.85-6.53V10.05H25.53v1.82Zm-1.85,2.65h1.85V12.6H25.53Zm4.32.69a12.75,12.75,0,0,0-1.33,0v-.88a5,5,0,0,0,.75.07V10.09c-.36,0-.46,0-.71.05V9.28a6.89,6.89,0,0,0,1.22.07h2.28a6.68,6.68,0,0,0,1.11-.07v.87a7.91,7.91,0,0,0-.94-.06,20.61,20.61,0,0,1-.81,4.36h.5a7.94,7.94,0,0,0,1.34-.07v.9a8.36,8.36,0,0,0-1.35-.07h-.77c-.17.42-.26.6-.42,1h.72a4.76,4.76,0,0,0-.07.93v2.7c0,.36.06.41.51.41s.6-.07.68-.37A7.79,7.79,0,0,0,32.71,18a2.12,2.12,0,0,0,.76.35,5.71,5.71,0,0,1-.37,2.28c-.18.31-.51.41-1.26.41-1,0-1.24-.17-1.24-.91V16.44a12,12,0,0,1-4,4.9,3.08,3.08,0,0,0-.69-.66,10.65,10.65,0,0,0,4.39-5.47Zm.77-.76a16.53,16.53,0,0,0,.81-4.36H30.06v4.36Z"/><path class="b8ea58a6-3eec-414e-ac64-a58d9621c1d0" d="M39.07,16.06a6.44,6.44,0,0,0,.78-1.26H37.53a15,15,0,0,0-1.61.06,10.28,10.28,0,0,0,0-1.22v-1a11.22,11.22,0,0,0,0-1.27,14.72,14.72,0,0,0,1.51.07H39V10.07H36.58a10.46,10.46,0,0,0-1.56.07V9.21a9.82,9.82,0,0,0,1.59.09h8.83A9.8,9.8,0,0,0,47,9.21v.93a10.55,10.55,0,0,0-1.55-.07H42.87v1.36h1.66a14.41,14.41,0,0,0,1.53-.07A10.42,10.42,0,0,0,46,12.63v1a9.28,9.28,0,0,0,.06,1.23,14.47,14.47,0,0,0-1.61-.06H40.84c-.4.69-.48.8-.79,1.26h5.42A11.21,11.21,0,0,0,47,16v.92a13.64,13.64,0,0,0-1.57-.07H43.93a6,6,0,0,1-1.68,2.22,46.92,46.92,0,0,1,4.48,1.66l-.63.77a32.6,32.6,0,0,0-4.62-1.87,12.92,12.92,0,0,1-6.16,1.7,3.2,3.2,0,0,0-.41-.86,12.5,12.5,0,0,0,5.51-1.17c-1.1-.32-2.09-.56-3.49-.85a13.83,13.83,0,0,0,1.54-1.6H36.55A13.34,13.34,0,0,0,35,16.9V16a11.45,11.45,0,0,0,1.56.08Zm-2.24-3.92v1.95H39V12.14Zm2.66,4.69A12.88,12.88,0,0,1,38.43,18c1.3.3,1.79.42,2.85.75a4.61,4.61,0,0,0,1.66-1.94Zm.34-5.4h2.24V10.07H39.83Zm0,2.66h2.24V12.14H39.83Zm3,0h2.28V12.14H42.87Z"/><path class="b8ea58a6-3eec-414e-ac64-a58d9621c1d0" d="M56.15,15A1.15,1.15,0,1,1,55,13.85,1.16,1.16,0,0,1,56.15,15Z"/><path class="b8ea58a6-3eec-414e-ac64-a58d9621c1d0" d="M70.26,12l-.42.08a23.59,23.59,0,0,1-2.48.42V15a9.82,9.82,0,0,1,3-.51,4.79,4.79,0,0,1,2.48.59,2.88,2.88,0,0,1-1.42,5.38,2.08,2.08,0,0,1-2.16-1.58,5.22,5.22,0,0,1-.16-1.59,3.15,3.15,0,0,0,.92-.36,3.85,3.85,0,0,0,0,.54c0,1.46.42,2.06,1.45,2.06a1.85,1.85,0,0,0,1.87-2c0-1.37-1.16-2.23-3-2.23a9.47,9.47,0,0,0-3,.55v3.5c0,.76-.33,1.12-1,1.12a3.7,3.7,0,0,1-2.31-.9,1.68,1.68,0,0,1-.64-1.31,2.56,2.56,0,0,1,1.1-1.87,7.49,7.49,0,0,1,2-1.14V12.59l-.56,0H63.69v-.92a8.09,8.09,0,0,0,1.43.09c.38,0,.93,0,1.35,0V10.38A10.33,10.33,0,0,0,66.4,9h1a8.9,8.9,0,0,0-.07,1.31v1.34a13.59,13.59,0,0,0,2.86-.6Zm-3.79,4.13c-1.39.67-2.17,1.43-2.17,2.1a1,1,0,0,0,.6.84,2.6,2.6,0,0,0,1.25.41c.28,0,.32-.09.32-.69Zm7.69-2.63a11.39,11.39,0,0,0-2.83-2.75l.73-.55a11.93,11.93,0,0,1,2.83,2.67Z"/><path class="b8ea58a6-3eec-414e-ac64-a58d9621c1d0" d="M78.28,19.72a9.29,9.29,0,0,0,.09,1.57h-1a10.32,10.32,0,0,0,.08-1.57V10.63c0-.69,0-1.1,0-1.54a13.72,13.72,0,0,0,1.46.05h2a13.2,13.2,0,0,0,1.43-.05c0,.42,0,.78,0,1.33v1.87c0,.56,0,1,0,1.29-.31,0-.84,0-1.42,0H78.28Zm0-8.74h3.13V9.83H78.28Zm0,1.86h3.13V11.66H78.28Zm7.2,5.07a6.53,6.53,0,0,0,0,.84,7.74,7.74,0,0,0-.89,0H81.28v1.11h-.91a8.33,8.33,0,0,0,.07-1.31v-2.8a8.14,8.14,0,0,0,0-.88,9.09,9.09,0,0,0,1,0H84.5a9.78,9.78,0,0,0,1,0,7.34,7.34,0,0,0,0,.85Zm-4.2.06h3.38V15.61H81.28Zm7.37,2c0,.91-.27,1.16-1.23,1.16-.55,0-1,0-1.67-.05a2.77,2.77,0,0,0-.25-.9,16.67,16.67,0,0,0,1.78.14c.4,0,.5-.09.5-.41V13.54H85c-.59,0-1.12,0-1.43,0,0-.4,0-.77,0-1.29V10.42c0-.49,0-.91,0-1.33A13.09,13.09,0,0,0,85,9.14h2.27a13.93,13.93,0,0,0,1.47-.05,12.18,12.18,0,0,0-.07,1.54ZM84.4,11h3.38V9.83H84.4Zm0,1.86h3.38V11.66H84.4Z"/><path class="b8ea58a6-3eec-414e-ac64-a58d9621c1d0" d="M93.08,10.4a10.21,10.21,0,0,0-.1,1.67,24,24,0,0,0,.37,4.36c.31,1.43.88,2.39,1.41,2.39.25,0,.49-.24.7-.7a9.62,9.62,0,0,0,.73-2.39,4.46,4.46,0,0,0,.83.79c-.69,2.46-1.33,3.39-2.33,3.39-.78,0-1.51-.78-2-2.12S92,14.66,92,11.22c0-.54,0-.58,0-.83Zm6.77.75a12.06,12.06,0,0,1,2,3.19,13.44,13.44,0,0,1,1.05,3.74l-1,.41A12.41,12.41,0,0,0,99,11.58Z"/><path class="b8ea58a6-3eec-414e-ac64-a58d9621c1d0" d="M111.48,8.71a9.61,9.61,0,0,0,2.31,2.53,14.66,14.66,0,0,0,3.84,2.3,3.66,3.66,0,0,0-.56.88,19.45,19.45,0,0,1-3.95-2.57A12,12,0,0,1,111,9.49,13,13,0,0,1,108,12.56a16.38,16.38,0,0,1-3,1.82,2.52,2.52,0,0,0-.59-.8,14.38,14.38,0,0,0,3.81-2.43,10.33,10.33,0,0,0,2.16-2.44Zm-4.89,12.52a9.54,9.54,0,0,0,.08-1.37v-3.1a10,10,0,0,0-.06-1.29,6.28,6.28,0,0,0,1.09.06h6.57a6.34,6.34,0,0,0,1.09-.06,8.06,8.06,0,0,0-.07,1.29v3.1a10.88,10.88,0,0,0,.08,1.37h-1v-.81H107.6v.81Zm1-1.64h6.77V16.38H107.6Zm.1-6.62a7.58,7.58,0,0,0,1.1,0h4.35a8.81,8.81,0,0,0,1.17,0v.95a8.67,8.67,0,0,0-1.17-.06h-4.36a8.27,8.27,0,0,0-1.09.06Z"/><path class="b8ea58a6-3eec-414e-ac64-a58d9621c1d0" d="M119.06,17.24a9.73,9.73,0,0,0,1.21-1l1-.88.41-.36c0-1.17,0-1.29.07-2.48l-.72,0a12.09,12.09,0,0,0-1.54.17l-.07-1h.39c.21,0,.8,0,1.95-.11,0-.87.06-1.4.06-1.95a2.6,2.6,0,0,0,0-.54h1.1a8.82,8.82,0,0,0-.14,1.62c0,.48,0,.48,0,.8a1.06,1.06,0,0,0,.33-.08l.36.46a4,4,0,0,0-.74.91c0,.91-.07,1.39-.07,1.41h0l0,0a7.46,7.46,0,0,1,.81-.71A5.45,5.45,0,0,1,127,12.11a3.54,3.54,0,0,1,3.77,3.64A4,4,0,0,1,126.5,20a7.16,7.16,0,0,1-2.38-.42c0-.11,0-.2,0-.24a3.12,3.12,0,0,0-.11-.81,6.17,6.17,0,0,0,2.48.55,3.11,3.11,0,0,0,2.8-1.59,3.5,3.5,0,0,0,.4-1.68A2.57,2.57,0,0,0,127,13c-1.37,0-2.63.65-4.47,2.31,0,4.21,0,4.91.09,5.56h-1.11a15.09,15.09,0,0,0,.07-2.65c0-1.71,0-1.82,0-2.16h0a3.45,3.45,0,0,1-.72.77,10.35,10.35,0,0,0-1.26,1.34Z"/><path class="b8ea58a6-3eec-414e-ac64-a58d9621c1d0" d="M136.72,9.66a17.52,17.52,0,0,0-.13,2.93c2.27-.13,2.83-.16,4.58-.23V12a3.62,3.62,0,0,0,0-.47,13.07,13.07,0,0,0-.09-2.13h1.08a8,8,0,0,0-.05,1.08V11l0,.91v.38c1.38,0,2.47-.07,2.93-.12l0,1a10,10,0,0,0-1,0c-.13,0-.49,0-1,0h-1a13.06,13.06,0,0,1-.25,2.73,1.39,1.39,0,0,1-1.41,1.23,4,4,0,0,1-1.95-.64,3.89,3.89,0,0,0,0-.42c0-.15,0-.29,0-.57a4,4,0,0,0,1.84.77c.39,0,.56-.23.68-.91a13.2,13.2,0,0,0,.17-2.16c-1.69,0-2.7.11-4.57.24v1.26a22.67,22.67,0,0,0,.14,3.53,1.23,1.23,0,0,0,.94.91,8,8,0,0,0,2.19.24,12.73,12.73,0,0,0,3.89-.52l.11,1.08a4.83,4.83,0,0,0-.56.07,24.51,24.51,0,0,1-3.54.29c-2.49,0-3.56-.48-3.92-1.74a14.78,14.78,0,0,1-.18-3.32V13.51a26,26,0,0,0-2.82.3l-.08-1h.3c.26,0,1.12-.06,2.6-.18v-.91a16.11,16.11,0,0,0-.07-2.09Z"/><path class="b8ea58a6-3eec-414e-ac64-a58d9621c1d0" d="M149.54,11.92a11.74,11.74,0,0,1-1.52,2,2.66,2.66,0,0,0-.75-.62,7.83,7.83,0,0,0,1.81-2.36,7,7,0,0,0,.66-2l1,.27c-.09.22-.16.4-.26.67-.2.52-.3.77-.49,1.19h2.56V10a9.41,9.41,0,0,0-.08-1.23h1.08a7.54,7.54,0,0,0-.09,1.23v1.11h3.35a7.87,7.87,0,0,0,1.34-.09v1a8.36,8.36,0,0,0-1.34-.08h-3.35v2.49h4.36a10.54,10.54,0,0,0,1.43-.08v1a9.7,9.7,0,0,0-1.43-.08h-2.94V19.9c0,.36.18.42,1.34.42s1.56-.08,1.74-.41a5,5,0,0,0,.26-2.08,3.69,3.69,0,0,0,.92.38,6.18,6.18,0,0,1-.42,2.21c-.33.62-.83.75-2.65.75s-2.1-.19-2.1-1v-5h-2.11a6.74,6.74,0,0,1-.57,3A5.31,5.31,0,0,1,149,20.64a10.64,10.64,0,0,1-1.72.84A3.69,3.69,0,0,0,147,21l-.31-.44A6.76,6.76,0,0,0,149.61,19a4.28,4.28,0,0,0,1.19-2.42,10,10,0,0,0,.12-1.33h-2.57a9.85,9.85,0,0,0-1.44.08v-1a10.7,10.7,0,0,0,1.44.08h4.19V11.92Z"/></g></g></svg>