<svg id="レイヤー_1" data-name="レイヤー 1" xmlns="http://www.w3.org/2000/svg" viewBox="0 0 258.3 30"><defs><style>.cls-1{fill:#00b4dc;}</style></defs><title>アートボード 29</title><path class="cls-1" d="M28.57,5.65l3.84-.52c.17,0,.5,0,.5.24s-.17.36-.36.5L33,9l5.4-.67.41,3.5-5.28.72L33.9,15l8-1,.41,3.52-7.87,1.06,1.1,7.56-3.84.65-1.13-7.7-8.4,1.1-.43-3.6L30,15.52l-.36-2.47-5.85.76-.44-3.6,5.77-.72Z"/><path class="cls-1" d="M51.66,9.52,55,9.11c.21,0,.5-.07.5.22s-.19.33-.36.45l.7,3.48,5.78-1.17a2.12,2.12,0,0,0,1.11-.65l2.32,1.75a55.31,55.31,0,0,0-4,6.72A22.56,22.56,0,0,0,57.9,18.4a17.76,17.76,0,0,0,1.75-2.74l-3.19.72,1.82,9.29L55,26.44l-1.85-9.31-4.83,1.08-.91-3.27,5.11-1Z"/><path class="cls-1" d="M72.82,5.7c4,2.07,5.29,3.27,6,3.94-.57.69-.74,1-2.32,3.26a24.61,24.61,0,0,0-6-3.84Zm-2,16.59A28.41,28.41,0,0,0,88.71,9.37a15.18,15.18,0,0,0,2.48,3.27,31.84,31.84,0,0,1-7.47,8A39.35,39.35,0,0,1,73.83,26c0,.27-.12.53-.33.53s-.24-.07-.39-.33Z"/><path class="cls-1" d="M92.62,16.1c1.61-1.18,2-1.59,5.36-5.38,2.25-2.52,3.14-3.27,4.51-3.27,1.54,0,2.28.92,4,3a60.77,60.77,0,0,0,9.36,9.67c-.91,1.15-2.09,2.86-2.54,3.5A126.22,126.22,0,0,1,103.93,13c-1-1.22-1.3-1.22-1.59-1.22-.55,0-1.31.88-1.89,1.56-1.13,1.32-3.51,4.41-4.27,5.59a1.1,1.1,0,0,1,.07.31c0,.12-.07.27-.22.27a.61.61,0,0,1-.41-.24Zm21.13-8.77a2.26,2.26,0,1,1-2.26-2.25A2.26,2.26,0,0,1,113.75,7.33Zm-3.32,0a1.05,1.05,0,0,0,1.06,1.06,1.06,1.06,0,1,0-1.06-1.06Z"/><path class="cls-1" d="M138.44,14v4.08H117.58V14Z"/><path class="cls-1" d="M144.82,5.7c4,2.07,5.29,3.27,6,3.94-.57.69-.74,1-2.32,3.26a24.61,24.61,0,0,0-6.05-3.84Zm-2,16.59A28.41,28.41,0,0,0,160.71,9.37a15.18,15.18,0,0,0,2.48,3.27,31.84,31.84,0,0,1-7.47,8A39.35,39.35,0,0,1,145.83,26c0,.27-.12.53-.33.53s-.24-.07-.39-.33Z"/><path class="cls-1" d="M172.14,8a23.66,23.66,0,0,1,2.66,2.57,6.43,6.43,0,0,0-1.73,1.58h5v-.79h-3.25v-2h3.25V8.63h-4.69V6.35h4.69V4.81l3.57.22c.22,0,.46,0,.46.31s-.22.36-.46.48v.53h5.19V8.63h-5.19v.79h3.82v2h-3.82v.79h5.67v2.23H172.64V12.57a9.28,9.28,0,0,0-1-1.32V26.82h-3.5V10.14a.82.82,0,0,1-.39.1,28.07,28.07,0,0,1-1,5.86A9.43,9.43,0,0,0,164.07,15a20.6,20.6,0,0,0,1-5.84l2.76.36a2,2,0,0,1,.31.08V4.91l3.72.19c.14,0,.41.07.41.31s-.29.44-.63.58V8.46Zm5.28,15.17v3.62h-3.53V15.28h12.36v9c0,1.73,0,2.88-4.42,2.74a7.69,7.69,0,0,0-1.22-3,15.17,15.17,0,0,0,1.63.17c.53,0,.53-.12.53-.89Zm5.35-4.8v-1h-5.35v1Zm0,2.9v-1h-5.35v1Z"/><path class="cls-1" d="M196.16,19.89h3.29v2.83h-3.29V27h-3.22V22.72h-3.31V19.89h3.31V18.73H189.3V15.9h1.39a8.68,8.68,0,0,0-.67-1.77l1.87-.53h-3.07V10.79h4.12V9.66H190V7h2.95V5l3.39.17a.3.3,0,0,1,.33.26c0,.22-.24.39-.5.56V7h3.1V9.66h-3.1v1.13h3.67V13.6h-2.76l1.61.34c.22,0,.43.09.43.33s-.19.34-.62.36c-.22.58-.43,1.08-.53,1.27h1.7v2.83h-3.5Zm-3-6.29a18,18,0,0,1,.82,2l-.84.26h1.8a12.14,12.14,0,0,0,.76-2.3ZM203.77,27h-3.36V5.44h9.84a51.1,51.1,0,0,1-.14,6.12c-.29,1.58-1.76,2-4.35,2.06a7.08,7.08,0,0,0-1.27-3.31,5.28,5.28,0,0,0,1.51.17c.82,0,.91-.17.91-1.08V8.46h-3.14v5.69h5.64L211,15.83a31.17,31.17,0,0,1-2.33,6.43,14.19,14.19,0,0,0,2.83,2.67,11.36,11.36,0,0,0-2.66,2.16,25.1,25.1,0,0,1-1.92-2,9.45,9.45,0,0,1-1.44,1.73,8.79,8.79,0,0,0-1.73-1.39Zm2.06-9.72a11.54,11.54,0,0,0,.75,2.18,13.18,13.18,0,0,0,.72-2.3h-3.53v1.41Zm-2.06,6.91A15.47,15.47,0,0,0,205,22.5a12.86,12.86,0,0,1-1.2-2.64Z"/><path class="cls-1" d="M228.63,21.71a18.71,18.71,0,0,0,6.27,2.88c-.43.27-1,.65-2.16,2.62a24.21,24.21,0,0,1-7-4.18v4h-3.4v-4.2a22.8,22.8,0,0,1-7.23,4.35c-1.15-2-1.73-2.35-2.16-2.62a17.79,17.79,0,0,0,6.27-2.88H213.1V19.17h9.2V17.9a27.41,27.41,0,0,1-6.7.86A6.57,6.57,0,0,0,214.38,16c.6,0,1.32.09,2.37.09a17,17,0,0,0,4.42-.53c-.87-.17-1.2-.21-1.59-.26l-.52.43a8.32,8.32,0,0,0-2.74-1.44c.53-.43.86-.72,1.39-1.22H213.1V10.57h6.82a17.07,17.07,0,0,0,1.18-1.7h-4.23V10h-3.26V6.37h8.47V4.81l3.87.12c.19,0,.5,0,.5.29s-.34.43-.5.51v.64h8.49V9.85H231v-1h-5.47c.12.41-.29.46-.77.5-.45.6-.57.72-.91,1.2h11.26v2.48h-4.64a.22.22,0,0,1,.15.19c0,.24-.48.31-.65.33a12.67,12.67,0,0,1-1.27,1.2,28,28,0,0,1,4.61,1.76,11.65,11.65,0,0,0-1.9,2.64h3.7v2.54Zm-6.84-8.66-.62.67a33,33,0,0,1,3.41.43,8.8,8.8,0,0,0,1.56-1.1Zm4,3.62a18.38,18.38,0,0,1-3.46,1.23l3.51.14c.22,0,.46.05.46.29s-.27.4-.61.6v.24h5.65A21.72,21.72,0,0,0,225.8,16.67Z"/><path class="cls-1" d="M258.3,8.53V24.3c0,1.16,0,2.69-3.22,2.69-.6,0-1.41-.07-2-.09a9,9,0,0,0-1.27-3.84,16.5,16.5,0,0,0,2.21.31c.31,0,.62-.15.62-.89V20a10.2,10.2,0,0,0-1.8,2.26,10.47,10.47,0,0,1-4.8-4.95,16.51,16.51,0,0,1-5.19,5.4,6.55,6.55,0,0,0-1.56-2.25V27h-3.64V8.53h8.47V4.86L250,5c.29,0,.45.14.45.33s-.31.39-.65.48V8.53Zm-17,10.73A9.2,9.2,0,0,0,246,11.94H241.3Zm8.52-7.32a7.13,7.13,0,0,0,1.33,3.94,10.76,10.76,0,0,0,3.5,3.1v-7Z"/><rect class="cls-1" width="10" height="30"/></svg>