<svg xmlns="http://www.w3.org/2000/svg" viewBox="0 0 379.09 30"><defs><style>.cls-1{fill:#1ca9ce;}</style></defs><title>アセット 1</title><g id="レイヤー_2" data-name="レイヤー 2"><g id="レイヤー_1-2" data-name="レイヤー 1"><g id="コンテンツ"><path class="cls-1" d="M31.09,5.51c.31,0,.5.1.5.31s-.26.34-.41.38c-.07.72-.12,1.56-.17,2.55a17.28,17.28,0,0,0,3.77-1.2c0,.89,0,2,0,2.54a10.26,10.26,0,0,0,0,1.3,17.63,17.63,0,0,1-3.94,1.08c0,.27,0,1.42,0,1.63a12.05,12.05,0,0,1,4.08-.72,6.37,6.37,0,0,1,6.65,6.51,5.56,5.56,0,0,1-5.69,6c-3.62,0-3.74-3.22-3.77-4.23.5-.17,2.66-.89,3-1,0,.48,0,1.61,1.13,1.61.91,0,1.51-.91,1.51-2.11A3,3,0,0,0,34.5,17a11.23,11.23,0,0,0-3.72.84A71.29,71.29,0,0,0,31.09,25L27.8,26.51a32.55,32.55,0,0,0-4.2-3.43c-.6.65-.89,1-1.22,1.39l-1.73-4.13c1.1-.6,5.47-3.91,6.43-4.51,0-.84,0-1,0-2.88-1.42.07-3.1.1-4.46.1V9.23a10.12,10.12,0,0,0,1.9.14c.94,0,2.28-.1,2.57-.1,0-1.8,0-2.06-.1-4.46ZM25.71,21a2.6,2.6,0,0,0,1.08.62c.36,0,.34-.84.31-1.75C26.82,20.1,26.31,20.46,25.71,21ZM38.24,8.22a20.41,20.41,0,0,1,5.23,3.84A16.94,16.94,0,0,0,41.15,15a14,14,0,0,0-5.09-3.77Z"/><path class="cls-1" d="M65.84,6.57V9.42H57.75v.94H64.4v9.29H57.75V20.7H67v3H57.75V27h-3.6V23.66H45v-3h9.15V19.65H47.51V10.36h6.65V9.42H45.95V6.57h8.21V4.77l3.67.17a.39.39,0,0,1,.43.38c0,.14-.22.34-.5.48v.77h8.09ZM54.15,14V12.9h-3V14Zm-3,2.09V17.1h3V16ZM60.8,14V12.9h-3V14Zm-3,2.09V17.1h3V16Z"/><path class="cls-1" d="M90.51,9.35c-5.93-.1-11.07,5.23-11.07,9.12,0,2.78,3.53,4.15,6.79,4.23a32.37,32.37,0,0,0-1.8,4.37c-1.94-.53-8.83-2.45-8.83-8.18A10.92,10.92,0,0,1,80,10.62a65.47,65.47,0,0,0-9.94,1.51l-.55-4.51a77.64,77.64,0,0,0,10.68-.55,57.69,57.69,0,0,0,9.63-1.75Zm-4,3.41a14.89,14.89,0,0,1,2.23,2.57c-.67.48-1,.74-1.85,1.44a19.46,19.46,0,0,0-2.14-2.71Zm2.52-1.7a15.24,15.24,0,0,1,2.14,2.52c-.6.46-1,.82-1.75,1.49a17.78,17.78,0,0,0-2.14-2.71Z"/><path class="cls-1" d="M104.31,22.82c5.21-1,6.74-5,6.74-7.49a5.69,5.69,0,0,0-5.54-5.88c-.74,8.79-4.37,15.34-6.91,15.34-1.87,0-5.35-3.17-5.35-7.61A11.78,11.78,0,0,1,105,6c5.26,0,9.84,3.58,9.84,9.31A11.18,11.18,0,0,1,112,22.72a13.27,13.27,0,0,1-5.21,3.48A15.5,15.5,0,0,0,104.31,22.82ZM96.8,16.89c0,1.85,1,3.24,1.54,3.24s1-1.08,1.3-1.7a21,21,0,0,0,1.85-8.26A8.16,8.16,0,0,0,96.8,16.89Z"/><path class="cls-1" d="M124.76,17.82c-.67.58-1.87,1.82-1.87,2.62,0,1.73,3.29,1.73,4.3,1.73a33.52,33.52,0,0,0,9.63-1.44,18.14,18.14,0,0,0,.63,4.08,36.5,36.5,0,0,1-9.38,1.1c-3.74,0-5.23-.41-6.41-.89-.77-.31-3-1.44-3-3.86s2.5-4.73,3.48-5.62Zm10.08-7.9a16.81,16.81,0,0,0-6,3.91c-.86-.74-1.78-1.51-2.52-2.06.89-.82,1.1-1,1.8-1.56-1.49.12-5.52.34-7.56.29l-.19-4a48.34,48.34,0,0,0,6,.31,46.69,46.69,0,0,0,6.7-.55Zm1.06-3.74a17.12,17.12,0,0,1,2.18,2.52,9.64,9.64,0,0,0-1.42,1.73,26.64,26.64,0,0,0-2.3-2.66Zm1.85-2A25.69,25.69,0,0,1,140,6.49a9.55,9.55,0,0,0-1.54,1.63,20.21,20.21,0,0,0-2.09-2.35Z"/><path class="cls-1" d="M153.73,26.95h-3.46V20.54a23.8,23.8,0,0,1-7,6.12,8.3,8.3,0,0,0-3.07-2.38,20.57,20.57,0,0,0,7.71-6.14H141V15h4.49a19.4,19.4,0,0,0-1.92-3.55l1.73-1h-3.17V7.38h8.18V4.94l3.6.22c.29,0,.53,0,.53.36s-.48.41-.67.46V7.38h8.14V10.5h-3.12l1.46.62c.17.07.24.17.24.29,0,.31-.29.36-.48.41A21.57,21.57,0,0,1,158.46,15H163v3.12h-7.13a18.69,18.69,0,0,0,7.46,5.81,11.27,11.27,0,0,0-2.54,2.59,18.83,18.83,0,0,1-7.06-6.14v6.55ZM150.27,15V10.5h-3.1a13.47,13.47,0,0,1,2,3.7,12.18,12.18,0,0,0-1.82.82h2.93Zm3.46-4.51V15h2.79a16.88,16.88,0,0,0-1.66-.86,18.78,18.78,0,0,0,1.82-3.65h-3Z"/><path class="cls-1" d="M175.28,20.25a16.72,16.72,0,0,1-2.83,2.9,6,6,0,0,0-2.26-1.61c.43-.34.79-.6,1.34-1.08-1.49.65-3.31,1.34-5.26,2,0,.29-.1.62-.36.62s-.34-.31-.38-.55l-.82-3.39a19.51,19.51,0,0,0,2.71-.5V13.19H165V10.07h2.47v-5l3.55.19c.29,0,.5,0,.5.26s-.14.29-.5.46v4.08h2.14v3.12H171v4.37c.58-.24.94-.38,1.51-.65h-.17V14.49h14.55v2.42h-9.29l-.46.77h9.58c0,2.42-.07,7.23-1.63,8.45-.91.72-2.45.79-4,.79a7.17,7.17,0,0,0-.65-2.59,18.4,18.4,0,0,1-2.86,3,6.1,6.1,0,0,0-2.54-1.54,16.7,16.7,0,0,0,5.06-5.54h-1.08a16.74,16.74,0,0,1-6.31,6.36,6.31,6.31,0,0,0-2.11-1.92,14.67,14.67,0,0,0,5.59-4.44h-.94Zm-2.18-3.34a10.48,10.48,0,0,0-.17,2.14,15.53,15.53,0,0,0,1.46-2.14Zm12.1-3.22H174V5.25h11.21V13.7ZM182,8.56V7.74h-4.73v.82Zm-4.73,1.92v.82H182v-.82Zm5.66,9.77a26.14,26.14,0,0,1-1.9,3.34c.29,0,.55,0,.84,0,.48,0,.91,0,1.08-.6a12.24,12.24,0,0,0,.43-2.78Z"/><path class="cls-1" d="M195.2,6.81c.19.07.31.17.31.34s-.46.34-.67.36a33.13,33.13,0,0,0-1.44,9.24,17,17,0,0,0,.17,2.4c.31-.46.82-1.22,1.13-1.7a10.06,10.06,0,0,0,1.73,2.38,10.65,10.65,0,0,0-2,5.88l-3.22.6a33.86,33.86,0,0,1-1.3-9.67,43.24,43.24,0,0,1,1.44-11Zm11.4-.53c.12,0,.31,0,.31.27s-.34.36-.55.38a26.51,26.51,0,0,0-.24,2.88,21.74,21.74,0,0,0,3.55-.89v3.62c-.55.14-1.66.41-3.65.77a38.81,38.81,0,0,0,.38,5.52A13.37,13.37,0,0,1,211,21.31c-.38.7-1.1,2.26-1.63,3.39a8.49,8.49,0,0,0-2.57-1.82c-.1,3.07-3.17,3.43-4.68,3.43-3.6,0-5.4-2-5.4-4.2,0-2.86,2.83-3.94,6-3.86-.19-2.74-.22-3-.26-4.44-1.37.12-2.35.12-2.76.12a17.73,17.73,0,0,1-1.78-.07V10.07a25.44,25.44,0,0,0,4.51.17c0-1,0-3.12,0-4.68Zm-5,14.88c-.53,0-1.68.17-1.68.91s.79.89,1.56.89c.19,0,1.63,0,1.63-1.18a.65.65,0,0,0,0-.31A3.41,3.41,0,0,0,201.63,21.16Z"/><path class="cls-1" d="M220.76,17.82c-.67.58-1.87,1.82-1.87,2.62,0,1.73,3.29,1.73,4.3,1.73a33.51,33.51,0,0,0,9.63-1.44,18.18,18.18,0,0,0,.62,4.08,36.49,36.49,0,0,1-9.39,1.1c-3.74,0-5.23-.41-6.41-.89-.77-.31-3-1.44-3-3.86s2.5-4.73,3.48-5.62Zm10.08-7.9a16.81,16.81,0,0,0-6,3.91c-.86-.74-1.78-1.51-2.52-2.06.89-.82,1.1-1,1.8-1.56-1.49.12-5.52.34-7.56.29l-.19-4a48.34,48.34,0,0,0,6,.31,46.67,46.67,0,0,0,6.7-.55Zm1.06-3.74a17.18,17.18,0,0,1,2.18,2.52,9.6,9.6,0,0,0-1.42,1.73,26.66,26.66,0,0,0-2.3-2.66Zm1.85-2A25.84,25.84,0,0,1,236,6.49a9.55,9.55,0,0,0-1.54,1.63,20.21,20.21,0,0,0-2.09-2.35Z"/><path class="cls-1" d="M258.2,18.09a.55.55,0,0,1,.19.41c0,.24-.24.39-.53.34A12.28,12.28,0,0,1,256.62,20a6.56,6.56,0,0,0,1.94.91,5.69,5.69,0,0,0-2.38,2.26,16.09,16.09,0,0,1-4-2.81v2.81h-3.17V19.86a16,16,0,0,1-4,2.76,6.34,6.34,0,0,0-2.21-2.35V21a2.06,2.06,0,0,0,.58,1.66c.84.91,2.14,1,7.18,1,2.47,0,6.7,0,9-.62a19.93,19.93,0,0,0-1.27,3.43h-12c-1.18,0-3.62-.31-4.92-2.14-.55.5-2.28,1.78-2.83,2.14,0,.19-.12.41-.46.41s-.26-.12-.34-.24l-1.51-3.1A13.05,13.05,0,0,0,239.41,22V16.77h-2.47V13.55h5.93V20a14.33,14.33,0,0,0,4.7-2.59h-3.19V11.92h12.27v5ZM239.12,4.84a19,19,0,0,1,3.74,3.46,11.83,11.83,0,0,0-2.42,2.5,19.64,19.64,0,0,0-3.72-3.48Zm18.29,1.27V8.39h-5V9h6.53v2.21H242.67V9h6.39V8.39h-5.11V6.11h5.11V4.77l3.46.07a.29.29,0,0,1,.31.29c0,.22-.17.29-.46.41v.58h5ZM247.76,14v1.3h5.47V14Zm5.35,3.36c.12.12.72.67,1.27,1.13.38-.41.58-.62,1-1.13Z"/><path class="cls-1" d="M281.63,5.75V7.6h-7.95v.82h9.1V12h-3a5.45,5.45,0,0,0,1.87.84A2.67,2.67,0,0,1,278.75,15H273c-.48,0-2.42,0-2.57-1.92l-4.13.41-.22-1.7,4.35-.39v-.91h-5v6c0,5.74-1.18,8.88-2.11,10.46a7.24,7.24,0,0,0-3.12-1.25c1.46-2.18,2-5.74,2-9.43V8.41h7.83V4.69l3.6.17c.46,0,.62,0,.62.26s-.41.39-.62.46v.17h7.94Zm-10.32,21A1.75,1.75,0,0,1,269.46,25V23.08a2,2,0,0,1-.36.1,12.86,12.86,0,0,1-2.14,3.6,6.77,6.77,0,0,0-2.57-1.42,12.54,12.54,0,0,0,2.11-3.84v-6h14.35v6.14h-.65a13.67,13.67,0,0,1,2.66,2.78,14,14,0,0,0-2.28,1.92A13.05,13.05,0,0,0,278.68,24c-.19,1-.53,2.76-2.86,2.76H271.3Zm1.92-5.09h-6l2,.79.19.07V22l3,.19a.85.85,0,0,1,.24,0Zm-1.39-3.77V17.3h-2.38v.62Zm-2.38,1.37V20h2.38v-.67ZM272.6,24a.48.48,0,0,0,.53.48H275c.72,0,.82-.36,1.1-1.68a9.18,9.18,0,0,0-1.51,1.42,10.17,10.17,0,0,0-1.73-1.56.34.34,0,0,1-.24.17V24Zm1.08-13.51v.62l4.58-.36.19,1.58-4.78.46a.56.56,0,0,0,.62.6h3.12c1,0,1.44-.82,1.63-2l.19.17V10.48h-5.57Zm3.84,7.44V17.3h-2.38v.62Zm-2.38,1.37V20h2.38v-.67Zm.58,2.4a8.74,8.74,0,0,1,.77.82l-.38.26a5.16,5.16,0,0,0,2.45,1.13c-.58-.58-.89-.84-1.2-1.13l1.7-1.08h-3.34Z"/><path class="cls-1" d="M302.43,7c.14.12.24.22.24.36a.26.26,0,0,1-.29.26,1.42,1.42,0,0,1-.41-.1c-.48.46-4.39,3.5-5.21,4.2-1.1.94-2.45,2.09-3.34,2.88s-.84.79-.84,1,.1.31,1,.84c.07,0,2.28,1.51,4.44,3.17a25.3,25.3,0,0,1,5,4.7,15.15,15.15,0,0,0-2.76,3.24c-1.06-1.56-5-5.74-12.1-10.32a1.68,1.68,0,0,1-.82-1.42c0-.62.1-.91,2.52-2.83A63.5,63.5,0,0,0,299,4.33Z"/><path class="cls-1" d="M320.55,5.92c.19,0,.41.1.41.31s-.34.34-.48.36c-.12.38-.53,2.09-.6,2.42a17.31,17.31,0,0,0,4-1.22l.39,3.79a27,27,0,0,1-5.38,1.1,62.27,62.27,0,0,1-6.27,14A24.06,24.06,0,0,0,309,24.88a38.86,38.86,0,0,0,5.86-11.67l-4.32.14-.31-3.89a20.76,20.76,0,0,0,2.71.14c.91,0,2,0,2.93-.1a28.2,28.2,0,0,0,.6-4.61Zm1.73,14.38a2.62,2.62,0,0,0-.65,1.3c0,.77.7,1.15,3.48,1.15a13.9,13.9,0,0,0,5.28-1c0,.46,0,.74,0,1.39a16.09,16.09,0,0,0,.17,2.69,22.06,22.06,0,0,1-4.35.41c-2.88,0-7.87-.14-7.87-3.89a8.19,8.19,0,0,1,.89-3.14Zm-1.13-6.77a26,26,0,0,1,4.94-.5,27.67,27.67,0,0,1,3.86.31,27.73,27.73,0,0,0-.24,3.79,12.94,12.94,0,0,0-3.7-.38,29.62,29.62,0,0,0-4.87.38ZM326.65,7a21.4,21.4,0,0,1,2.28,2.64,8.45,8.45,0,0,0-1.82,1.3A23,23,0,0,0,325,8.22ZM329,5.27a14,14,0,0,1,2.21,2.52A17.93,17.93,0,0,0,329.56,9a17.23,17.23,0,0,0-2.23-2.55Z"/><path class="cls-1" d="M344.63,5.05a16.55,16.55,0,0,0,1.1,3.72A19.53,19.53,0,0,0,350.89,6c.74,1,1.75,2.14,2.4,2.86a33.92,33.92,0,0,1-6,3.1,28.61,28.61,0,0,0,5.35,6.6l-2.47,2.14a11.69,11.69,0,0,0-6.39-1.82c-1.87,0-4,.48-4,2,0,.62.62,2.45,5,2.45a13.41,13.41,0,0,0,5.64-1.2,16.9,16.9,0,0,0,.72,3.77,21.63,21.63,0,0,1-6.19.84c-5.83,0-9.27-2.4-9.27-5.52,0-2.06,1.75-5.35,7.2-5.35a8.74,8.74,0,0,1,2.59.29c-.46-.7-.84-1.32-1.73-2.93a43.68,43.68,0,0,1-8.33,1.54L334.16,11A34.2,34.2,0,0,0,342.23,10c-.29-.62-1.54-3.46-1.8-4Z"/><path class="cls-1" d="M362.65,7.31c.22.07.48.14.48.36s-.29.36-.5.38a21.48,21.48,0,0,0-1.34,7.23c0,2.93.91,5,1.61,5s1.68-2.11,2.33-3.62a10.93,10.93,0,0,0,2.52,2.55c-1.92,4.66-4.1,6.29-5.28,6.29-1.34,0-4.9-2.86-4.9-10.27a42.8,42.8,0,0,1,1.18-9Zm11.59.17a23.94,23.94,0,0,1,4.85,12.07c-1.42.55-3.12,1.37-3.91,1.78a21.86,21.86,0,0,0-4-11.88Z"/><rect class="cls-1" width="10" height="30"/></g></g></g></svg>