<svg xmlns="http://www.w3.org/2000/svg" width="399.825" height="30" viewBox="0 0 399.825 30">
  <defs>
    <style>
      .cls-1 {
        fill: #00b4dc;
      }
    </style>
  </defs>
  <g id="レイヤー_2" data-name="レイヤー 2">
    <g id="object">
      <path class="cls-1" d="M31.353,10.287c-.024-.816-.024-1.032-.048-1.584H26.048V5.175h9.169c-.024.624-.168,3.384-.168,3.936a17.589,17.589,0,0,0,8.809,15.41,9.52,9.52,0,0,0-3.144,2.616c-2.977-2.065-7.321-6.577-8.689-12.1-.792,2.689-2.664,7.657-9.073,12.121A10.341,10.341,0,0,0,20,24.472c7.369-4.729,8.641-9.817,9.289-14.569Z"/>
      <path class="cls-1" d="M55.281,20.248a16.783,16.783,0,0,1-2.832,2.9,6.026,6.026,0,0,0-2.257-1.609c.432-.336.792-.6,1.345-1.08-1.489.647-3.312,1.344-5.257,1.992,0,.288-.1.624-.36.624-.24,0-.336-.312-.384-.552l-.816-3.384a19.506,19.506,0,0,0,2.712-.5V13.192H44.96V10.071h2.472V5.078l3.552.193c.288.023.5.048.5.263,0,.168-.144.288-.5.456v4.081h2.137v3.121H50.984V17.56c.577-.24.937-.384,1.513-.649h-.168V14.487H66.874v2.424H57.585l-.456.769h9.577c0,2.424-.072,7.224-1.632,8.448-.912.721-2.449.792-3.961.792a7.178,7.178,0,0,0-.648-2.592,18.322,18.322,0,0,1-2.856,3,6.1,6.1,0,0,0-2.544-1.536,16.7,16.7,0,0,0,5.064-5.544h-1.08a16.75,16.75,0,0,1-6.312,6.361,6.289,6.289,0,0,0-2.113-1.92,14.67,14.67,0,0,0,5.593-4.441ZM53.1,16.911a10.486,10.486,0,0,0-.168,2.137,15.527,15.527,0,0,0,1.464-2.137Zm12.1-3.216H53.985V5.246H65.194Zm-3.24-5.136V7.742H57.225v.817Zm-4.729,1.92V11.3h4.729v-.816Zm5.665,9.769a26.143,26.143,0,0,1-1.9,3.336c.287.025.551.048.839.048.48,0,.913-.048,1.081-.6a12.239,12.239,0,0,0,.432-2.784Z"/>
      <path class="cls-1" d="M75.2,6.807c.192.072.312.168.312.336,0,.288-.456.336-.672.36a33.108,33.108,0,0,0-1.441,9.24,17.169,17.169,0,0,0,.168,2.4c.312-.456.817-1.224,1.129-1.7a10.029,10.029,0,0,0,1.728,2.376,10.651,10.651,0,0,0-1.992,5.88l-3.217.6a33.857,33.857,0,0,1-1.3-9.673A43.245,43.245,0,0,1,71.36,5.631Zm11.4-.529c.12.025.312.048.312.265,0,.287-.336.36-.552.384a26.239,26.239,0,0,0-.24,2.88,21.691,21.691,0,0,0,3.552-.888v3.624c-.552.145-1.656.408-3.649.769a38.744,38.744,0,0,0,.385,5.52A13.394,13.394,0,0,1,90.97,21.3c-.384.7-1.1,2.256-1.632,3.385a8.485,8.485,0,0,0-2.568-1.825c-.1,3.073-3.168,3.432-4.681,3.432-3.6,0-5.4-1.968-5.4-4.2,0-2.857,2.832-3.937,5.952-3.864-.192-2.737-.216-3.048-.264-4.441-1.368.12-2.352.12-2.76.12a17.747,17.747,0,0,1-1.776-.072V10.071a25.438,25.438,0,0,0,4.512.168c0-1.008,0-3.121.024-4.68ZM81.633,21.16c-.528,0-1.68.168-1.68.912,0,.624.792.888,1.56.888.192,0,1.632,0,1.632-1.176a.659.659,0,0,0-.048-.312A3.4,3.4,0,0,0,81.633,21.16Z"/>
      <path class="cls-1" d="M114.994,17.871v2.257h-1.2v3.984h-3.552v-.768h-4.417V24.88c0,1.225-.312,2.065-3.888,2.065-.48,0-.96-.025-1.272-.048a9.045,9.045,0,0,0-1.128-3,19.209,19.209,0,0,0,2.04.191c.7,0,.7-.24.7-.744H94.784v-2.4h7.489v-.816H93.128V17.871h9.145V17.1H94.784V14.991h7.489V14.32h-6.1V9.446h6.1V8.775H93.128V6.255h9.145V4.935l3.72.143a.329.329,0,0,1,.36.313c0,.216-.144.263-.528.456v.408H114.9v2.52h-9.073v.671h6V14.32h-6v.671h7.969v2.88ZM102.273,12.3v-.936H99.345V12.3Zm3.552-.936V12.3h2.9v-.936Zm4.417,6.5V17.1h-4.417v.767Zm0,3.073v-.816h-4.417v.816Z"/>
      <path class="cls-1" d="M129.321,8.175a18.186,18.186,0,0,0,2.064-3.385l3.6.912c.168.048.336.12.336.288,0,.265-.336.384-.7.336-.624.985-.863,1.393-1.2,1.849h5.5v3h-21.89v-3h5.28a10.967,10.967,0,0,0-1.368-2.04l3.241-1.465a16.03,16.03,0,0,1,1.944,3l-1.3.5Zm-7.7,13.537V26.9h-3.361V11.967h9.553V24.544c0,1.969-1.032,2.256-4.2,2.353a6.937,6.937,0,0,0-1.224-3.409c.36.024,1.08.121,1.44.121.456,0,.72-.049.72-.769V21.712Zm2.928-6.1V14.56h-2.928v1.055Zm0,3.577V18.111h-2.928v1.081Zm8.184-6.841c.216,0,.36.072.36.24,0,.12-.144.265-.36.408v9.553h-3.456V12.207Zm5.065-.5c.216,0,.432.048.432.264,0,.168-.264.312-.576.48V24.04a2.283,2.283,0,0,1-1.032,2.328c-.864.577-1.9.552-3.889.529a8.985,8.985,0,0,0-.792-3.6c.408.048,1.3.168,1.657.168.6,0,.6-.384.6-.672V11.679Z"/>
      <path class="cls-1" d="M144.464,21.616V16.024a13.619,13.619,0,0,1-1.944,1.32,11.88,11.88,0,0,0-2.376-2.664,16.756,16.756,0,0,0,3.048-2.089,17.285,17.285,0,0,0-1.968-1.536l2.3-2.352a16.053,16.053,0,0,1,2.16,1.512,7.023,7.023,0,0,0,1.44-1.992h-4.44V5.366h8.281l1.08,1.153a19.376,19.376,0,0,1-2.3,4.08h4.92a15.688,15.688,0,0,1-2.832-4.729l3.048-1.151a14.535,14.535,0,0,0,1.033,1.992,12.229,12.229,0,0,0,1.463-1.824L159.9,6.471c.1.048.264.168.264.288,0,.288-.408.311-.648.311-.792,1.009-1.44,1.752-1.728,2.041.264.312.456.5.648.7a29.966,29.966,0,0,0,2.184-2.592l2.232,1.512c.192.144.432.288.432.456,0,.312-.36.336-.72.36A18.617,18.617,0,0,1,160.5,11.7a16.6,16.6,0,0,0,3.384,2.233,11.743,11.743,0,0,0-2.208,2.855,26.272,26.272,0,0,1-2.208-1.584v6.409h-1.729c.169.072.264.168.264.336,0,.24-.239.384-.5.409a9.448,9.448,0,0,1-.5,1.319h5.88v2.9H141.08v-2.9H147.2c-.1-.288-.456-1.224-.673-1.752l1.177-.312Zm3.577-8.9c-.625.672-.864.937-1.944,1.944H158.77a22.3,22.3,0,0,1-2.5-2.255v1.248h-8.232Zm-.12,4.633V18.88h8.088V17.344Zm2.256,4.272c.216.528.384.936.672,1.825l-.864.239h3.24a18.08,18.08,0,0,0,.72-2.064Z"/>
      <path class="cls-1" d="M173.457,13.671h-1.752v1.248h2.4v3.049h-2.4v3.264a14.442,14.442,0,0,0,.84-2.856l2.736.552c.144.023.36.072.36.311,0,.289-.36.336-.7.361-.1.36-.144.48-.48,1.488a28.3,28.3,0,0,0,4.776-1.7V15.447h-1.7a24.106,24.106,0,0,1,1.68,3.073,22.865,22.865,0,0,0-2.592,1.7,19.959,19.959,0,0,0-1.728-3.265l2.448-1.512h-2.736V12.615h7.56v-.96H176.1V9.087h6.072V8.175h-7.224V5.246H185.6v7.369h1.464v2.832H184.21l2.664,1.3a.4.4,0,0,1,.264.336c0,.241-.168.288-.624.361A21.856,21.856,0,0,1,184.57,20.3a17.792,17.792,0,0,0,3,2.424,11.656,11.656,0,0,0-1.968,3.049,20.734,20.734,0,0,1-3.216-3.265v2.04c0,2.376-1.56,2.376-4.417,2.376a10.981,10.981,0,0,0-1.224-3.24c-.24.12-.312.144-.648.288-.024.456-.072.864-.48.864a.389.389,0,0,1-.288-.263l-.864-3.458a11.521,11.521,0,0,1-.5,1.225,9.433,9.433,0,0,0-2.256-.552v1.1c1.752-.336,2.256-.456,2.712-.576a9.723,9.723,0,0,0-.312,3c-3.048.672-5.521,1.08-7.849,1.416-.048.359-.12.672-.456.672-.216,0-.264-.193-.288-.361l-.552-3.312c.984-.048,2.664-.24,3.552-.336v-1.1a15.619,15.619,0,0,0-2.52.865,22.708,22.708,0,0,0-1.224-3.673l2.712-.865a27.193,27.193,0,0,1,1.032,2.929V17.968h-3.144V14.919h3.144V13.671H166.64v-.912a8.57,8.57,0,0,0-2.52-2.376,11.01,11.01,0,0,0,4.608-5.353l3.409.672c.264.048.36.12.36.265,0,.264-.264.407-.552.432a18.071,18.071,0,0,0,3.48,3.336,9.932,9.932,0,0,0-1.968,1.56Zm-1.416-2.808a11.433,11.433,0,0,1-1.8-2.16c-.553.743-.936,1.248-1.7,2.16Zm7.2,11.569c-.6.336-1.488.816-2.208,1.128.216.024,1.368.144,1.512.144.7,0,.7-.48.7-.768Zm3.145-4.968c.048.071.119.216.168.312a13.455,13.455,0,0,0,1.272-2.329h-1.44Z"/>
      <path class="cls-1" d="M200.049,5.967c.432.1.576.144.576.407,0,.313-.312.313-.624.337-.12.48-.672,2.5-.792,3.024,4.248-.168,5.688,2.472,5.688,7.128,0,.384,0,5.521-1.992,8.041a4.446,4.446,0,0,1-3.864,1.584A6.246,6.246,0,0,1,197,26.2a11.259,11.259,0,0,0-.5-3.912,9.381,9.381,0,0,0,2.52.48c1.968,0,2.232-4.321,2.232-6.721,0-.96-.072-2.712-2.256-2.712-.24,0-.48.025-.72.048A49.856,49.856,0,0,1,192.8,26.368a11.833,11.833,0,0,0-3.456-1.92,42.812,42.812,0,0,0,5.065-10.224A18.949,18.949,0,0,0,191,15.52l-1.128-4.057a55.019,55.019,0,0,0,5.544-1.128,25.436,25.436,0,0,0,.721-5.352Zm6.169,2.9a29.767,29.767,0,0,1,3.888,4.632,5.317,5.317,0,0,1,1.152,3c0,1.8-2.088,2.568-3.529,3.121a25.558,25.558,0,0,0-1.823-3.192c.911-.288,1.224-.385,1.224-.912,0-1.153-2.353-4.177-3.385-5.281ZM207.562,5.9a15.547,15.547,0,0,1,1.968,2.376c-.552.383-.672.48-1.752,1.272-.24-.312-1.441-1.9-1.968-2.448Zm2.4-1.489a13.338,13.338,0,0,1,2.016,2.449c-.528.383-1.392.984-1.944,1.368a10.7,10.7,0,0,0-1.92-2.641Z"/>
      <path class="cls-1" d="M218.385,11.944c.36.095.743.191.743.479,0,.313-.239.384-.792.528a20.891,20.891,0,0,1-2.736,6.937,9.005,9.005,0,0,0-3.36-1.248,18.487,18.487,0,0,0,2.9-7.488Zm14.881-4.969c.312.12.576.24.576.431,0,.336-.552.385-.84.409-3.457,9.481-8.209,12.721-9.913,13.9v.624c0,.96.24,1.176,1.344,1.176h2.52c1.248,0,1.609-.168,1.968-2.952a10.763,10.763,0,0,0,3.12,1.776c-.815,4.248-1.991,4.345-4.56,4.345h-5.064c-2.64,0-2.928-1.777-3.024-2.857a35.832,35.832,0,0,1-4.009,1.609,7.622,7.622,0,0,0-2.5-3.265,23.894,23.894,0,0,0,6.457-2.232V9.879l3.96.336c.216.024.5.072.5.36,0,.264-.288.408-.72.552v6.24a22.889,22.889,0,0,0,6.817-11.713ZM221.529,4.551A23.229,23.229,0,0,1,227.265,7.7a10.7,10.7,0,0,0-1.9,2.976A26.547,26.547,0,0,0,219.8,7.215Zm10.2,9.769a26.452,26.452,0,0,1,3.937,5.76,12.508,12.508,0,0,0-3,2.112,17.534,17.534,0,0,0-3.553-5.785Z"/>
      <path class="cls-1" d="M237.128,19.672V16.863h6.649c.216-.335.431-.647.768-1.223h-5.689V9.135h5.04v-.96h-6.72V5.486H258.85V8.175h-6.792v.96h5.088V15.64h-8.257a.3.3,0,0,1,.1.191c0,.336-.456.385-.6.408-.168.264-.24.384-.384.624h10.8v2.809h-3.72a.428.428,0,0,1,.1.216c0,.288-.288.384-.985.432a16.634,16.634,0,0,1-1.631,1.776,30.145,30.145,0,0,1,5.5,2.112,10.378,10.378,0,0,0-2.256,2.929,28.944,28.944,0,0,0-6.1-2.9,25.77,25.77,0,0,1-10.849,2.687,6.294,6.294,0,0,0-1.608-3.1,25.817,25.817,0,0,0,8.233-.936c-.432-.12-.864-.216-1.968-.48-.144.12-.336.336-.553.528a12.841,12.841,0,0,0-3.48-1.392,21.348,21.348,0,0,0,2.04-1.872Zm6.768-8.017h-1.7v1.512h1.7Zm2.065,8.017c-.192.216-.456.527-.7.815.792.121,3.024.529,3.7.673a7.7,7.7,0,0,0,1.488-1.488Zm2.88-11.5h-1.752v.96h1.752Zm-1.752,4.992h1.752V11.655h-1.752Zm4.969,0h1.752V11.655h-1.752Z"/>
      <path class="cls-1" d="M282.514,9.351c-5.929-.1-11.065,5.232-11.065,9.121,0,2.784,3.529,4.152,6.793,4.224a32.327,32.327,0,0,0-1.8,4.369c-1.944-.529-8.832-2.449-8.832-8.185a10.92,10.92,0,0,1,4.416-8.257,65.58,65.58,0,0,0-9.937,1.512l-.552-4.512a77.646,77.646,0,0,0,10.681-.553,57.7,57.7,0,0,0,9.625-1.751Zm-3.984,3.408a14.938,14.938,0,0,1,2.232,2.568c-.672.481-1.008.744-1.848,1.441a19.407,19.407,0,0,0-2.137-2.713Zm2.52-1.7a15.229,15.229,0,0,1,2.136,2.52c-.6.456-1.008.817-1.752,1.489a17.73,17.73,0,0,0-2.136-2.713Z"/>
      <path class="cls-1" d="M298.545,5.343c.384.048.6.071.6.264,0,.263-.288.36-.48.408-.048.431-.072.72-.12,1.68,6.769-.289,7.513-.312,7.969-.36-.024.5-.072,2.88.024,3.864-4.345-.216-6.168-.216-7.921-.192a19.5,19.5,0,0,0,.024,2.664,7.861,7.861,0,0,1,1.392,4.608,11.345,11.345,0,0,1-5.568,9.265,16.086,16.086,0,0,0-3.5-2.472c.721-.288,3.553-1.488,4.417-3.456a2.686,2.686,0,0,1-1.9.576,3.206,3.206,0,0,1-2.592-1.081,6.017,6.017,0,0,1-1.033-3.551c0-5.281,4.513-5.113,5.017-5.041.024-.768.024-.984.024-1.344a65.093,65.093,0,0,0-9.577,1.248l-.264-4.057c.552.025,1.464-.023,9.745-.5a25.33,25.33,0,0,0-.336-3.047Zm-5.544,12c0,1.584.792,2.016,1.224,2.016.744,0,1.176-1.1,1.176-2.3,0-.553-.12-1.488-1.08-1.488C293.529,15.568,293,16.36,293,17.344Z"/>
      <path class="cls-1" d="M316.257,23.1a3.385,3.385,0,1,1-3.384-3.384A3.4,3.4,0,0,1,316.257,23.1Zm-5.281,0a1.9,1.9,0,1,0,1.9-1.9A1.885,1.885,0,0,0,310.976,23.1Z"/>
      <path class="cls-1" d="M342.73,6.374a14.45,14.45,0,0,0,0,19.25l-2.136,1.849a17.109,17.109,0,0,1,0-22.946Z"/>
      <path class="cls-1" d="M363.49,20.9H345.968v-2.76h2.3V15.184h-3.288V12.423h3.288V10.767c-.5.48-.768.7-1.1.984A10.591,10.591,0,0,0,344.12,10.1a17.732,17.732,0,0,0,4.848-5.5L352.4,5.727c.119.048.24.12.24.263,0,.313-.384.384-.552.433a3.528,3.528,0,0,1-.24.312h14.113V9.711h-2.184v2.712h3.24v2.761h-3.24v2.952h2.5V20.9h-2.76a25.181,25.181,0,0,1,3.816,4.417,23.769,23.769,0,0,0-3,1.92A19.508,19.508,0,0,0,360.9,22.72Zm-12.506,1.488c.217.12.409.216.409.432,0,.264-.168.288-.6.36a23.472,23.472,0,0,1-3.12,4.272,7.778,7.778,0,0,0-2.952-1.92A12.778,12.778,0,0,0,348.3,21.04Zm.12-9.961H352.5V9.711H351.1Zm0,5.713H352.5V15.184H351.1Zm3.457,3.432a15.924,15.924,0,0,1,1.536,4.7,21.813,21.813,0,0,0-3.5.935,19.3,19.3,0,0,0-1.128-4.824Zm.744-9.145H356.7V9.711h-1.392Zm0,5.713H356.7V15.184h-1.392Zm4.176,3.24a16.968,16.968,0,0,1,1.92,4.464,22.509,22.509,0,0,0-3.264,1.105,27.655,27.655,0,0,0-1.752-4.705Zm.024-11.665v2.712H360.9V9.711Zm0,5.473v2.952H360.9V15.184Z"/>
      <path class="cls-1" d="M376.329,26.9h-3.337V21.688a15.081,15.081,0,0,1-1.872,2.4,9.274,9.274,0,0,0-2.832-1.992,14.8,14.8,0,0,0,4.417-6.673h-3.649v-3.1h3.936V10.575a14.829,14.829,0,0,0-2.736,1.248,16.226,16.226,0,0,0-1.392-4.249l2.664-.96a22.423,22.423,0,0,1,1.464,3.673V4.815l3.265.192c.312.023.672.048.672.384,0,.288-.384.456-.6.528v6.408h3.288v3.1h-2.952a14.162,14.162,0,0,0,3.1,3.409,7.793,7.793,0,0,0-1.752,2.3,17.96,17.96,0,0,1-1.68-1.561Zm4.248-19.682c.216.048.48.144.48.312,0,.192-.312.36-.528.48a30.786,30.786,0,0,1-1.32,3.744,7.237,7.237,0,0,0-2.64-.936,37.38,37.38,0,0,0,1.224-4.344ZM390.73,16.84l.576,2.928-2.4.624v6.457H385.5V21.3l-5.737,1.536-.552-3.072,6.289-1.609v-8.4a11.405,11.405,0,0,0-1.9,1.992,21.475,21.475,0,0,0-2.977-2.929l1.992-2.279A18.979,18.979,0,0,1,385.5,9.278V4.887l3.384.288c.192.023.528.048.528.311,0,.193-.264.361-.5.5V17.3ZM382.305,12.3a19.91,19.91,0,0,1,3.072,3.337c-.6.6-1.248,1.3-2.087,2.208a18.34,18.34,0,0,0-2.953-3.313Z"/>
      <path class="cls-1" d="M395.408,4.527a17.109,17.109,0,0,1,0,22.946L393.3,25.624a14.45,14.45,0,0,0,0-19.25Z"/>
      <rect class="cls-1" width="10" height="30"/>
    </g>
  </g>
</svg>
