<svg id="レイヤー_1" data-name="レイヤー 1" xmlns="http://www.w3.org/2000/svg" viewBox="0 0 139.5 30"><defs><style>.cls-1{fill:#00b4dc;}</style></defs><title>アートボード 19</title><path class="cls-1" d="M28.76,17.82c-.67.58-1.87,1.83-1.87,2.62,0,1.73,3.29,1.73,4.29,1.73a33.73,33.73,0,0,0,9.63-1.44,18,18,0,0,0,.62,4.08,36.36,36.36,0,0,1-9.38,1.1c-3.75,0-5.23-.41-6.41-.89-.77-.31-3.05-1.44-3.05-3.86s2.5-4.73,3.48-5.62ZM38.84,9.93a16.67,16.67,0,0,0-6.05,3.91c-.86-.75-1.77-1.51-2.52-2.06.89-.82,1.11-1,1.8-1.57-1.48.12-5.52.34-7.56.29l-.19-4a48.3,48.3,0,0,0,6,.32A45.38,45.38,0,0,0,37,6.25ZM39.9,6.18A17.25,17.25,0,0,1,42.08,8.7a9.65,9.65,0,0,0-1.41,1.73,26.19,26.19,0,0,0-2.31-2.66Zm1.85-2A26.76,26.76,0,0,1,44,6.49a9.56,9.56,0,0,0-1.53,1.64,21.26,21.26,0,0,0-2.09-2.36Z"/><path class="cls-1" d="M55.35,10.29c0-.82,0-1-.05-1.59H50.05V5.17h9.17c0,.63-.17,3.39-.17,3.94a17.58,17.58,0,0,0,8.81,15.41,9.51,9.51,0,0,0-3.15,2.62c-3-2.07-7.32-6.58-8.69-12.1-.79,2.69-2.66,7.66-9.07,12.12a10.21,10.21,0,0,0-3-2.69c7.37-4.73,8.64-9.81,9.29-14.57Z"/><path class="cls-1" d="M79.28,20.25a16.5,16.5,0,0,1-2.83,2.9,6.18,6.18,0,0,0-2.26-1.61c.43-.33.79-.6,1.35-1.08-1.49.65-3.32,1.35-5.26,2,0,.28-.1.62-.36.62s-.34-.31-.38-.55l-.82-3.39a17.74,17.74,0,0,0,2.71-.5V13.19H69V10.07h2.47v-5L75,5.27c.29,0,.51.05.51.26s-.15.29-.51.46v4.08h2.14v3.12H75v4.37c.58-.24.94-.38,1.52-.65h-.17V14.49H90.87v2.42H81.59l-.46.77h9.58c0,2.42-.08,7.22-1.64,8.45-.91.72-2.44.79-4,.79a7,7,0,0,0-.64-2.59,19,19,0,0,1-2.86,3,6.07,6.07,0,0,0-2.55-1.54,16.68,16.68,0,0,0,5.07-5.54H83.05a16.76,16.76,0,0,1-6.31,6.36,6.18,6.18,0,0,0-2.12-1.92,14.73,14.73,0,0,0,5.6-4.44ZM77.1,16.91a9.74,9.74,0,0,0-.17,2.14,15.17,15.17,0,0,0,1.46-2.14ZM89.19,13.7H78V5.25H89.19ZM86,8.56V7.74H81.22v.82Zm-4.73,1.92v.81H86v-.81Zm5.67,9.77A26.2,26.2,0,0,1,85,23.58a8,8,0,0,0,.84.05c.48,0,.92-.05,1.08-.6a11.81,11.81,0,0,0,.44-2.78Z"/><path class="cls-1" d="M115,8.2v3.43H104.63c0,.89-.1,1.51-.15,2h7.59c0,8.12-.46,10.32-2.16,12-1.23,1.22-3.84,1.34-4.73,1.32a6.11,6.11,0,0,0-1.78-3.77c.65.1,2.28.36,2.52.36a1.77,1.77,0,0,0,1.92-1.39,16.42,16.42,0,0,0,.67-5.23h-4.68A16.17,16.17,0,0,1,95.19,27a6.41,6.41,0,0,0-3-2.6C96.51,23.08,101,19.6,101,11.63H93V8.2h9V4.89l3.84.21c.14,0,.43.07.43.34s-.26.36-.43.43V8.2Z"/><path class="cls-1" d="M118.28,10.84a30.05,30.05,0,0,1,3.82,3,12,12,0,0,0-1.95,2.47,32.35,32.35,0,0,0-3.81-2.93Zm-1.92,13.9a26.86,26.86,0,0,0,3.72-7.42,7.81,7.81,0,0,0,2.78,1.73,37.86,37.86,0,0,1-3.09,7.15.64.64,0,0,1,.07.31.34.34,0,0,1-.34.31,1,1,0,0,1-.45-.16Zm3.53-19.85A16.48,16.48,0,0,1,123.61,8c-1.13,1.22-1.25,1.36-2.26,2.59a19.69,19.69,0,0,0-3.65-3.36ZM134.6,17.66A30.31,30.31,0,0,1,139.5,25a11.75,11.75,0,0,0-3,1.87c-.5-1-.76-1.56-1.22-2.38a68.65,68.65,0,0,1-10.61,1.61c-.09.22-.21.48-.5.48s-.34-.29-.41-.58L123,22.7c1.1,0,1.82,0,2.69-.08a40.1,40.1,0,0,0,2.3-5.3h-5V14.17h6.17V11.51h-4.95V8.41h4.95V4.91l3.72.07c.38,0,.67,0,.67.34s-.24.33-.69.5V8.41h5.35v3.1h-5.35v2.66h6.26v3.15h-6.38a.23.23,0,0,1,0,.17c0,.33-.67.48-1,.53-.49,1.12-1.06,2.25-2.12,4.32a33,33,0,0,0,4-.58,11,11,0,0,0-1.75-2.33Z"/><rect class="cls-1" width="10" height="30"/></svg>