<svg xmlns="http://www.w3.org/2000/svg" width="42" height="42" viewBox="0 0 42 42"><circle cx="21" cy="21" r="21" fill="#1d9bf0"/><path d="M17.158,32.077a14.306,14.306,0,0,0,14.4-14.4c0-.219,0-.437-.014-.654A10.3,10.3,0,0,0,34.073,14.4a10.086,10.086,0,0,1-2.907.8,5.079,5.079,0,0,0,2.226-2.8,10.135,10.135,0,0,1-3.214,1.229,5.067,5.067,0,0,0-8.627,4.617,14.373,14.373,0,0,1-10.435-5.289,5.065,5.065,0,0,0,1.567,6.758,5.038,5.038,0,0,1-2.293-.633c0,.021,0,.042,0,.065A5.064,5.064,0,0,0,14.45,24.1a5.066,5.066,0,0,1-2.287.087,5.067,5.067,0,0,0,4.729,3.516A10.159,10.159,0,0,1,10.6,29.875a10.271,10.271,0,0,1-1.208-.07,14.332,14.332,0,0,0,7.76,2.274" fill="#fff"/></svg>