<svg id="now_available.svg" xmlns="http://www.w3.org/2000/svg" width="419.313" height="140.25" viewBox="0 0 419.313 140.25">
  <defs>
    <style>
      .cls-1 {
        fill: #fff;
        fill-rule: evenodd;
      }
    </style>
  </defs>
  <path id="好評配信中" class="cls-1" d="M347.634,2019.49c0.5-5.82.672-8.03,1.093-13.32l-12.1-.62c-0.42,7.59-.672,11.56-0.84,13.94h-6.974v12.87h5.714a146.77,146.77,0,0,1-5.294,24.88,101.166,101.166,0,0,1,11.259,8.38,47.83,47.83,0,0,1-12.855,13.49l8.318,10.68a67.823,67.823,0,0,0,13.444-15.53,79.807,79.807,0,0,1,6.89,8.56l8.234-10.85a94.1,94.1,0,0,0-9.327-9.35c3.361-7.85,6.134-25.93,6.554-43.13H347.634Zm2.6,12.87a98.274,98.274,0,0,1-4.537,22.5c-1.009-.71-1.849-1.33-4.117-2.83a195.115,195.115,0,0,0,4.369-19.67h4.285Zm55.456-23.9H363.179v13.06h26.467c-1.26,2.2-2.436,3.61-7.058,8.29h-4.453v9.61H361.078v13.41h17.057v19.49c0,1.77-.84,2.74-2.353,2.74H363.515l2.1,14.46h16.469c6.218-.18,9.159-3.53,9.075-10.32v-26.37h16.973v-13.41H391.159v-2.73c5.377-4.06,12.015-10.94,14.536-15.17v-13.06Zm10.221-.18v9.62h27.476v-9.62H415.916Zm-2.437,12.62v10.32H445.66V2020.9H413.479Zm2.437,13.32v10.05h27.476v-10.05H415.916Zm0,13.23v9.96h27.476v-9.96H415.916Zm0,13.05v27.7h28.148v-27.7H415.916Zm18.149,9.7v7.59h-6.722v-7.59h6.722Zm41.592,19.06v-28.14h17.477v-13.06H475.657v-27.34h16.385v-12.44h-44.7v12.44h15.544v27.34H445.66v13.06h17.225v28.14h12.772Zm-29.745-62.89c1.765,4.05,4.286,14.81,4.706,19.93l10.671-2.65a97.51,97.51,0,0,0-5.546-20.11Zm35.879-2.83a94.548,94.548,0,0,1-4.874,19.67l10.671,3.18a134.4,134.4,0,0,0,4.958-20.55Zm95.11-15.43H543.543v12.7h21.09v16.23H543.795v44.1c0.084,4.59,2.269,6.79,6.806,6.79h20.334c6.722-.88,8.235-4.58,8.991-22.22l-12.184-3.27v2.3c0,8.9-.42,10.58-2.857,10.58h-7.058c-1.512-.09-2.016-0.62-2.016-2.21v-23.9H576.9v-41.1Zm-77.891,0v11.64h13.7v5.91H500.859v61.74H539.93v-61.74H528.251v-5.91h12.94v-11.64H499.01Zm23.191,11.64v5.91h-3.277v-5.91H522.2Zm-8.486,15.97-0.168,5.91c-0.168,4.23-1.261,7.23-3.193,8.38v-14.29h3.361Zm8.486,0v16.4c0,3,1.176,4.41,3.7,4.59h4.79v4.23H510.354v-10.67l4.453,7.41c3.025-3.44,4.117-7.41,4.117-14.2v-7.76H522.2Zm8.487,0v11.64h-2.269c-1.092,0-1.345-.44-1.345-1.94v-9.7h3.614Zm0,35.1v5.73H510.354v-5.73h20.334Zm72.843-42.16a87.617,87.617,0,0,0,5.126-22.32l-12.436-1.05c-1.008,10.4-6.3,24.52-11.932,31.84l3.361,18.43a37.119,37.119,0,0,0,3.613-3.79v37.66h12.268v-60.77Zm56.212-21.26H612.69v9.79h47.053v-9.79Zm1.093,26.55H611.513v9.7h49.323v-9.7Zm0,13.06H611.513v9.7h49.323v-9.7Zm1.344,13.14H610v27.25H662.18v-27.25Zm-12.6,9.44v7.76H622.605v-7.76h26.971Zm15.713-49.13H606.472v10.4h58.817v-10.4Zm8.12-1.24v46.84H703.49v23.2h12.939v-23.2h30.5v-46.84h-30.5v-13.58H703.49v13.58H673.409Zm30.081,12.88v21.08H686.265V2032.1H703.49Zm30.585,0v21.08H716.429V2032.1h17.646Z" transform="translate(-327.625 -2005.28)"/>
  <path id="for_Android_iOS" data-name="for Android／iOS" class="cls-1" d="M341.111,2125.81v-5.29h-4.282v-0.3c0-1.66.54-2.19,2.3-2.19h1.979v-5.26h-2.267c-5.217,0-7.556,1.74-7.556,7.18v0.57h-2.914v5.29h2.914v17.31h5.541v-17.31h4.282Zm10.29-5.59c-4.929,0-8.563,2.87-8.563,7.63v7.83c0,4.76,3.382,7.67,8.348,7.67,4.929,0,8.491-2.87,8.491-7.67v-7.83C359.677,2123.13,356.331,2120.22,351.4,2120.22Zm-0.071,5.29c1.8,0,2.842,1.1,2.842,3.29v6.05c0,2.11-1.08,3.25-2.914,3.25s-2.879-1.06-2.879-3.25v-6.05C348.379,2126.64,349.459,2125.51,351.33,2125.51Zm15.431,4.8c0-3.1,1.007-4.8,4.138-4.8h0.971v-5.29h-0.4a6.088,6.088,0,0,0-5.217,2.42l-0.288-2.12H361.22v22.6h5.541v-12.81Zm33.232,12.81h5.685l-7.34-30.35h-6.944l-7.483,30.35h5.5l1.224-5.17h8.167Zm-8.167-10.16,2.95-12.51,2.879,12.51h-5.829Zm20.983-3.9c0-2.76.971-3.59,3.238-3.59,1.979,0,2.482,1.32,2.482,3.29v14.36h5.541v-15.64c0-4.84-2.123-7.26-6.44-7.26a6.464,6.464,0,0,0-5.361,2.27l-0.252-1.97h-4.749v22.6h5.541v-14.06Zm26.53,14.06H444.3v-30.35h-5.541v8.51a6.662,6.662,0,0,0-4.029-1.1c-4.246,0-7.268,2.65-7.268,7.41v8.2c0,4.8,2.7,7.56,7.052,7.56a5.774,5.774,0,0,0,4.605-1.78Zm-3.49-5.02c-1.691,0-2.842-.99-2.842-3.18v-6.39c0-2.15,1.187-3.06,2.878-3.06,1.763,0,2.878.8,2.878,3.03v6.42C438.763,2137.08,437.54,2138.1,435.849,2138.1Zm18.784-7.79c0-3.1,1.007-4.8,4.137-4.8h0.972v-5.29h-0.4a6.088,6.088,0,0,0-5.217,2.42l-0.288-2.12h-4.749v22.6h5.541v-12.81Zm16.619-10.09c-4.929,0-8.563,2.87-8.563,7.63v7.83c0,4.76,3.382,7.67,8.347,7.67,4.93,0,8.492-2.87,8.492-7.67v-7.83C479.528,2123.13,476.182,2120.22,471.252,2120.22Zm-0.072,5.29c1.8,0,2.843,1.1,2.843,3.29v6.05c0,2.11-1.08,3.25-2.915,3.25s-2.878-1.06-2.878-3.25v-6.05C468.23,2126.64,469.309,2125.51,471.18,2125.51Zm15.464-12.74h-5.685v5.6h5.685v-5.6Zm-0.072,7.75h-5.541v22.6h5.541v-22.6Zm15.868,22.6h4.966v-30.35h-5.541v8.51a6.665,6.665,0,0,0-4.03-1.1c-4.246,0-7.268,2.65-7.268,7.41v8.2c0,4.8,2.7,7.56,7.052,7.56a5.776,5.776,0,0,0,4.606-1.78Zm-3.49-5.02c-1.691,0-2.842-.99-2.842-3.18v-6.39c0-2.15,1.187-3.06,2.878-3.06,1.763,0,2.879.8,2.879,3.03v6.42C501.865,2137.08,500.641,2138.1,498.95,2138.1Zm12.98,7.44,32.418-34.05-1.044-1.1-32.417,34.06Zm38.814-32.77h-5.685v5.6h5.685v-5.6Zm-0.072,7.75h-5.541v22.6h5.541v-22.6Zm14.029-7.97c-5.253,0-9.678,3.17-9.678,9.33v12.29c0,6.16,4.533,9.18,9.57,9.18,5.253,0,9.643-3.17,9.643-9.34v-12.28C574.236,2115.57,569.738,2112.55,564.7,2112.55Zm-0.108,5.74c2.555,0,4.03,1.55,4.03,4.5v10.2c0,2.95-1.367,4.69-3.922,4.69-2.59,0-4.029-1.74-4.029-4.69v-10.2C560.672,2119.88,562.075,2118.29,564.593,2118.29Zm17.619,2.23c0-1.55.827-2.68,3.094-2.68,2.411,0,3.166,1.66,3.31,3.66h5.613c-0.324-5.36-2.626-8.95-8.851-8.95-5.289,0-8.815,2.6-8.815,8.01,0,8.73,12.413,9.98,12.413,14.55,0,2.04-1.223,2.99-3.67,2.99-2.554,0-3.526-1.33-3.706-4.43h-5.649c0.288,5.79,2.663,9.68,9.427,9.68,5.5,0,9.283-2.72,9.283-8.32C594.661,2126.23,582.212,2125.13,582.212,2120.52Z" transform="translate(-327.625 -2005.28)"/>
</svg>
