<svg id="now_available.svg" xmlns="http://www.w3.org/2000/svg" width="252.813" height="87.72" viewBox="0 0 252.813 87.72">
  <defs>
    <style>
      .cls-1 {
        fill: #fff;
        fill-rule: evenodd;
      }
    </style>
  </defs>
  <path id="好評配信中" class="cls-1" d="M35.165,1994.98c0.3-3.49.4-4.82,0.655-7.99l-7.26-.37c-0.252,4.55-.4,6.93-0.5,8.36H23.872v7.73H27.3a88.2,88.2,0,0,1-3.176,14.92,61.33,61.33,0,0,1,6.756,5.03,28.818,28.818,0,0,1-7.713,8.1l4.991,6.4a40.665,40.665,0,0,0,8.066-9.31,46.819,46.819,0,0,1,4.134,5.13l4.941-6.51a57.139,57.139,0,0,0-5.6-5.61c2.017-4.71,3.68-15.56,3.932-25.88h-8.47Zm1.563,7.73a58.861,58.861,0,0,1-2.722,13.49c-0.6-.42-1.109-0.79-2.47-1.69a116.719,116.719,0,0,0,2.622-11.8h2.571ZM70,1988.37H44.491v7.83h15.88c-0.756,1.32-1.462,2.17-4.235,4.97H53.465v5.77H43.231v8.05H53.465v11.69a1.386,1.386,0,0,1-1.412,1.64H44.693l1.26,8.68h9.881c3.731-.1,5.5-2.12,5.445-6.19v-15.82H71.463v-8.05H61.279v-1.64A40.389,40.389,0,0,0,70,1996.2v-7.83Zm6.132-.11v5.77H92.619v-5.77H76.134Zm-1.462,7.57v6.19H93.98v-6.19H74.672Zm1.462,7.99v6.03H92.619v-6.03H76.134Zm0,7.94v5.98H92.619v-5.98H76.134Zm0,7.83v16.62H93.022v-16.62H76.134Zm10.89,5.82v4.55H82.99v-4.55h4.033Zm24.955,11.43v-16.88h10.486v-7.83H111.978v-16.41h9.831v-7.46H94.989v7.46h9.326v16.41H93.98v7.83h10.335v16.88h7.663Zm-17.846-37.73a54.138,54.138,0,0,1,2.823,11.96l6.4-1.59a58.378,58.378,0,0,0-3.327-12.06Zm21.528-1.69a56.925,56.925,0,0,1-2.925,11.8l6.4,1.9a80.318,80.318,0,0,0,2.975-12.33Zm57.066-9.27H152.71v7.62h12.654v9.74h-12.5v26.46c0.051,2.76,1.361,4.08,4.084,4.08h12.2c4.033-.53,4.941-2.75,5.395-13.34l-7.311-1.96v1.38c0,5.35-.252,6.35-1.714,6.35h-4.234a1.076,1.076,0,0,1-1.21-1.32v-14.34h12.654v-24.67Zm-46.735,0v6.99h8.218v3.55H127.1v37.04h23.443v-37.04h-7.007v-3.55H151.3v-6.99H125.99Zm13.915,6.99v3.55h-1.966v-3.55h1.966Zm-5.092,9.58-0.1,3.54c-0.1,2.54-.756,4.34-1.916,5.03v-8.57h2.017Zm5.092,0v9.84c0,1.8.706,2.65,2.218,2.75H145v2.54H132.8v-6.4l2.672,4.45c1.815-2.07,2.471-4.45,2.471-8.52v-4.66h1.966Zm5.092,0v6.98h-1.362c-0.655,0-.806-0.26-0.806-1.16v-5.82H145Zm0,21.06v3.44H132.8v-3.44H145Zm43.706-25.3a52.527,52.527,0,0,0,3.075-13.38l-7.461-.64c-0.605,6.25-3.781,14.71-7.159,19.11l2.016,11.06a23.246,23.246,0,0,0,2.168-2.28v22.6H188.7v-36.47Zm33.727-12.75H194.2v5.87H222.43v-5.87Zm0.655,15.93H193.492v5.82h29.593v-5.82Zm0,7.83H193.492v5.82h29.593v-5.82Zm0.807,7.89H192.585v16.35h31.307v-16.35Zm-7.562,5.66v4.66H200.147v-4.66H216.33Zm9.427-29.48h-35.29v6.25h35.29v-6.25Zm4.873-.74v28.1h18.048v13.92h7.764v-13.92h18.3v-28.1h-18.3v-8.15h-7.764v8.15H230.63Zm18.048,7.73v12.65H238.343v-12.65h10.335Zm18.351,0v12.65H256.442v-12.65h10.587Z" transform="translate(-21.938 -1986.47)"/>
  <path id="for_Android_iOS" data-name="for Android／iOS" class="cls-1" d="M29.279,2062.81v-3.05H26.81v-0.18c0-.96.311-1.26,1.328-1.26h1.141v-3.03H27.972c-3.008,0-4.356,1-4.356,4.14v0.33h-1.68v3.05h1.68v9.99H26.81v-9.99h2.469Zm6.029-3.23c-2.842,0-4.937,1.66-4.937,4.41v4.51c0,2.75,1.95,4.43,4.813,4.43,2.842,0,4.9-1.66,4.9-4.43v-4.51C40.079,2061.26,38.149,2059.58,35.307,2059.58Zm-0.041,3.06c1.037,0,1.639.63,1.639,1.89v3.49a1.62,1.62,0,0,1-1.68,1.88c-1.058,0-1.66-.61-1.66-1.88v-3.49A1.624,1.624,0,0,1,35.266,2062.64Zm9,2.76c0-1.78.581-2.76,2.386-2.76h0.56v-3.06H46.987a3.522,3.522,0,0,0-3.008,1.4l-0.166-1.22H41.075v13.04h3.195v-7.4Zm19.31,7.4h3.278l-4.232-17.51h-4l-4.315,17.51H57.48l0.705-2.99h4.709Zm-4.709-5.87,1.7-7.22,1.66,7.22H58.87Zm12.236-2.25c0-1.59.56-2.07,1.867-2.07,1.141,0,1.431.77,1.431,1.9v8.29H77.6v-9.03c0-2.79-1.224-4.19-3.713-4.19a3.736,3.736,0,0,0-3.091,1.31l-0.145-1.13H67.911v13.04h3.195v-8.12Zm15.432,8.12H89.4v-17.51H86.206v4.9a3.857,3.857,0,0,0-2.323-.63,3.94,3.94,0,0,0-4.19,4.27v4.74c0,2.76,1.556,4.36,4.066,4.36a3.322,3.322,0,0,0,2.655-1.03Zm-2.012-2.9a1.575,1.575,0,0,1-1.639-1.84v-3.68a1.547,1.547,0,0,1,1.659-1.77,1.494,1.494,0,0,1,1.66,1.75v3.7A1.612,1.612,0,0,1,84.526,2069.9Zm10.968-4.5c0-1.78.581-2.76,2.386-2.76h0.56v-3.06H98.211a3.521,3.521,0,0,0-3.008,1.4l-0.166-1.22H92.3v13.04h3.195v-7.4Zm9.678-5.82c-2.842,0-4.938,1.66-4.938,4.41v4.51c0,2.75,1.95,4.43,4.813,4.43,2.842,0,4.9-1.66,4.9-4.43v-4.51C109.943,2061.26,108.014,2059.58,105.172,2059.58Zm-0.042,3.06c1.037,0,1.639.63,1.639,1.89v3.49a1.62,1.62,0,0,1-1.68,1.88c-1.058,0-1.66-.61-1.66-1.88v-3.49A1.624,1.624,0,0,1,105.13,2062.64Zm9.033-7.35h-3.278v3.22h3.278v-3.22Zm-0.042,4.47h-3.195v13.04h3.195v-13.04Zm9.223,13.04h2.863v-17.51h-3.195v4.9a3.855,3.855,0,0,0-2.323-.63,3.939,3.939,0,0,0-4.19,4.27v4.74c0,2.76,1.555,4.36,4.066,4.36a3.321,3.321,0,0,0,2.655-1.03Zm-2.012-2.9a1.575,1.575,0,0,1-1.639-1.84v-3.68a1.547,1.547,0,0,1,1.66-1.77,1.494,1.494,0,0,1,1.659,1.75v3.7A1.612,1.612,0,0,1,121.332,2069.9Zm7.622,4.29,18.691-19.64-0.6-.64-18.691,19.65Zm22.6-18.9h-3.277v3.22h3.277v-3.22Zm-0.041,4.47h-3.195v13.04h3.195v-13.04Zm8.163-4.6c-3.029,0-5.58,1.83-5.58,5.38v7.09c0,3.55,2.613,5.3,5.518,5.3,3.028,0,5.559-1.83,5.559-5.39v-7.09C165.172,2056.9,162.579,2055.16,159.675,2055.16Zm-0.062,3.31c1.473,0,2.323.89,2.323,2.6v5.88c0,1.7-.788,2.71-2.261,2.71-1.494,0-2.324-1.01-2.324-2.71v-5.88C157.351,2059.39,158.161,2058.47,159.613,2058.47Zm10.294,1.29c0-.9.477-1.55,1.784-1.55,1.39,0,1.825.96,1.908,2.11h3.236c-0.186-3.09-1.514-5.16-5.1-5.16-3.049,0-5.082,1.5-5.082,4.62,0,5.04,7.157,5.76,7.157,8.39,0,1.18-.706,1.73-2.116,1.73-1.473,0-2.033-.77-2.137-2.56H166.3c0.166,3.34,1.535,5.59,5.435,5.59,3.174,0,5.352-1.57,5.352-4.8C177.084,2063.05,169.907,2062.42,169.907,2059.76Z" transform="translate(-21.938 -1986.47)"/>
</svg>
