<svg height="85.13" viewBox="0 0 419.937 85.13" width="419.937" xmlns="http://www.w3.org/2000/svg"><path d="m340.828 1689.34h10v-37.04l3.277-.44c.336 1.59.42 2.11.672 3.7l8.739-2.73v28.05c-.084 4.85 2.689 7.67 7.562 7.41h29.072c6.47-.71 7.815-4.24 8.319-21.26l-11.343-2.82c-.337 5.82-.337 6.35-.589 8.82-.252 1.58-.924 2.29-2.184 2.29h-17.478c-1.429 0-2.1-.71-2.017-2.29v-11.65h31.677v-32.1h-7.982l.672-1.06a67.717 67.717 0 0 0 3.865-6.09v-11.73h-21.678a29.254 29.254 0 0 0 1.428-4.06l-12.183-1.23c-1.933 6.09-7.814 14.55-13.444 19.23 1.428-2.21 2.269-3.62 3.529-6l-9.327-4.15a130.48 130.48 0 0 1 -7.058 12.53c-.5-.44-.84-.79-2.6-2.56a122.5 122.5 0 0 0 8.57-16.49l-10.419-2.38c-1.848 4.67-3.613 8.73-5.377 12.43-1.177-.88-1.6-1.23-2.941-2.2l-4.118 12.17a122.326 122.326 0 0 1 10.251 9.26c-1.344 2.03-2.52 3.71-3.949 5.65-2.857.17-2.941.17-5.461.26l.672 12.17a115.376 115.376 0 0 0 11.847-1.23v35.54zm22.687-37.48a119.168 119.168 0 0 0 -6.218-18.17l-7.31 2.47c.672 1.94 1.176 3.26 1.764 5.55-.756 0-1.176.09-3.7.18-.84.09-1.176.09-3.361.27l.253-.45c4.285-5.73 6.89-9.43 7.982-10.93 1.008-1.59 2.016-3.09 3.109-4.59l5.713 10.5c1.009-.8 1.261-.97 1.765-1.41v16.58zm5.882-22.58c1.68-2.03 3.192-3.88 4.453-5.74a10.409 10.409 0 0 1 1.092-1.41h14.788a47.157 47.157 0 0 1 -4.2 7.15h-16.13zm10.587 11.82v8.46h-5.378v-8.46zm14.872 0v8.46h-5.294v-8.46zm-59.069 43.75c1.428-5.38 2.605-16.85 2.689-26.73l-8.235-.88c-.168 7.94-1.26 16.76-2.773 21.87zm25.711-7.68c.168-3.97-.924-14.9-1.932-20.55l-6.974 1.32a174.178 174.178 0 0 1 1.512 20.73zm86.977-38.1 4.957-6.18c-3.781-1.58-4.705-2.11-6.722-3.88h5.966v-7.94h-12.184c.252-1.14.337-1.85.5-3.08h10.251v-8.56h-9.579v-3.79h-12.011l-.084 2.29v1.5h-12.687v8.56h12.183a18.061 18.061 0 0 1 -.42 3.08h-13.36v7.94h9.663a21.711 21.711 0 0 1 -10.587 6.27l5.125 11.81c1.345-.61 1.765-.79 2.857-1.32v29.73h13.108c-5.546 1.94-11.007 2.91-20.586 3.52l4.285 10.68c12.772-1.5 22.183-4.15 30.165-8.47l-5.546-5.73h22.183l-5.8 6.08c9.915 4.5 17.225 6.53 30.165 8.38l4.7-11.02a69.992 69.992 0 0 1 -20.838-3.44h13.031v-30.52c1.26.79 1.932 1.14 3.277 1.85l5.041-11.29c-5.125-2.03-8.486-4.06-10.671-6.53h9.743v-7.94h-16.381c.168-.88.252-1.58.42-3.08h14.369v-8.56h-13.7c.084-1.67.084-2.91.084-3.79h-12.18v3.79h-10.671v8.56h10.251a24.438 24.438 0 0 1 -.42 3.08h-11.172v7.94h6.722a18.544 18.544 0 0 1 -7.563 3.97l4.034 6.09h-9.915zm-17.141 0a32.515 32.515 0 0 0 5.041-6.88 34.245 34.245 0 0 0 6.134 6.88zm35.962 0a30.684 30.684 0 0 0 6.806-7.32 34.116 34.116 0 0 0 5.63 7.32h-12.432zm7.478 6.88v3.35h-40.074v-3.35h40.079zm0 8.99v3.53h-40.074v-3.53h40.079zm0 9.27v3.61h-40.074v-3.61h40.079zm54.132 21.96a108.912 108.912 0 0 0 11.007-6.97l1.848 10.32h8.571c7.478 0 11.6-7.06 11.6-20.2 0-11.82-3.277-21.96-9.411-28.93a40.5 40.5 0 0 0 4.706-4.76h1.6c.336 19.67 5.462 38.28 14.032 50.36l9.159-9.61c-4.2-4.76-7.9-11.73-10.335-19.85a90.6 90.6 0 0 0 10.335-9.52l-6.386-10.32a51.617 51.617 0 0 1 -6.638 7.58 73.579 73.579 0 0 1 -.924-8.64h4.789v-5.03h6.218v-19.14h-19.334v-5.73h-12.268v5.73h-19.158l-1.344-5.73c-6.47 1.85-13.444 2.64-25.543 2.91l2.016 12.08 1.6-.09 5.209-.26.5-.09v7.41h-9.074v12.26h7.646c-2.857 8.2-5.8 13.94-9.747 18.96l4.79 17.29c2.436-3.44 4.621-8.29 6.385-14.55v27.87h11.512v-29.28a27.133 27.133 0 0 0 2.857 4.58l1.6-3.08 2.773 7.32a82.812 82.812 0 0 0 19.914-13.32c.336 1.32.5 2.12.672 3-6.05 6.35-16.217 12.88-26.132 16.67zm1.68-31.93a50.7 50.7 0 0 1 -8.318-13.32v-.97h4.7v-12.26h-4.7v-8.64a61.127 61.127 0 0 0 6.049-1.33v12.88h6.638v5.03h8.487c-3.949 3.44-8.571 5.73-15.629 7.67l4.622 9.53a68.72 68.72 0 0 0 12.519-6.62c.588.97.925 1.41 1.261 2.03a63.239 63.239 0 0 1 -17.9 10.41zm9.747-28.23v-4.49h27.056v4.49zm1.008 52.04a77.447 77.447 0 0 0 9.747-8.64c-.084 6.7-1.26 8.82-4.789 8.64zm96.472 7.41 6.049 4.15a45.587 45.587 0 0 0 3.866-10.23l1.092 10.14h6.722c3.949 0 6.218-1.41 7.562-4.76 1.6-5.56 1.849-11.56 1.933-61.39v-2.47h-12.856l.168-15.26h-10.5l-.084 15.26h-2.437v-2.03h-13.111v-3.26a89.178 89.178 0 0 0 12.856-1.94l-3.025-8.83c-6.89 1.59-10.923 1.95-30.837 2.83a10.676 10.676 0 0 1 .084-1.5l-10.839-.71c-.588 10.32-4.2 21.7-8.99 28.4l1.68 21.26a35.632 35.632 0 0 0 4.2-5.11v39.51h10.587v-62.89a131.136 131.136 0 0 0 3.025-16.23l1.009 6.26 2.184-.08 8.4-.36h.336v2.65h-12.432v9.17h12.436v2.82h-12.016v29.99h12.016v3.09h-12.016v8.91h12.016v3.53c-3.781.09-6.218.17-9.663.17h-3.193l.42 11.47c9.327-.26 28.232-1.67 33.022-2.47zm-1.093-10.14c-1.848.26-3.865.35-10.5.71v-3.18h11.68c-.336 1.06-.5 1.59-.841 2.47zm1.261-11.38h-11.764v-3.09h12.183v-29.99h-12.183v-2.82h13.108v5.74h2.353v8.11c-.252 13.58-1.429 22.85-3.7 30.7v-8.65zm14.116-30.16h3.025l-.084 4.32c-.168 23.64-.42 31.31-1.009 35.81-.252 1.06-.84 1.5-2.268 1.5h-3.025c1.932-8.29 3.277-21.26 3.277-33.43zm-35.206 4.41v4.49h-4.286v-4.49zm0 10.4v4.33h-4.286v-4.33zm13.864-10.4v4.49h-4.538v-4.49zm0 10.4v4.33h-4.538v-4.33zm43.116-29.37v46.84h30.081v23.2h12.939v-23.2h30.5v-46.84h-30.5v-13.58h-12.939v13.58zm30.081 12.88v21.08h-17.225v-21.08zm30.585 0v21.08h-17.646v-21.08z" fill="#fff" fill-rule="evenodd" transform="translate(-327.469 -1604.84)"/></svg>