<svg height="18.531" viewBox="0 0 436.219 18.531" width="436.219" xmlns="http://www.w3.org/2000/svg"><path d="m346.689 964.031v-2.1h-7.328v-1.418h-2.2v1.418h-7.361v2.1h7.364v.927h-6.176v7.411h4.574a17.509 17.509 0 0 1 -6.068 3.478l1.3 2.307a16.956 16.956 0 0 0 6.374-4.764v4.934h2.2v-4.972a18.049 18.049 0 0 0 6.32 4.707l1.3-2.344a16.172 16.172 0 0 1 -6-3.346h4.61v-7.411h-6.23v-.927h7.328zm-13.589 2.685h4.069v1.153h-4.069zm10.371 0v1.153h-4.105v-1.153zm-10.371 2.76h4.069v1.153h-4.069zm10.371 0v1.153h-4.105v-1.153zm22.463-7.543h-7.364v-1.456h-2.341v1.456h-7.189v2.231h16.889v-2.231zm-1.692 3.441h-13.5v6.541h5.617v3.535c-.018.416-.126.511-.558.511h-2.3l.451 2.42h2.97a1.584 1.584 0 0 0 1.657-1.91v-4.556h5.672v-6.541zm-2.287 2.042v2.438h-8.967v-2.438zm-9.4 4.839a13.487 13.487 0 0 1 -3.709 3.933l1.53 1.834a17.652 17.652 0 0 0 4.106-4.576zm13.5 3.668a13.3 13.3 0 0 1 -4.033-3.705l-1.945 1.191a14.019 14.019 0 0 0 4.412 4.518zm10.591-1.323h-5.06l4.051-5.559a4.767 4.767 0 0 0 .991-2.892 4.013 4.013 0 0 0 -4.069-4.311c-2.323 0-3.962 1.947-3.962 4.67h2.233c0-1.4.612-2.325 1.783-2.325a1.836 1.836 0 0 1 1.782 1.966 2.506 2.506 0 0 1 -.558 1.588l-5.2 7.052v2.174h8.013v-2.363zm7.435-12.837c-2.341 0-4.07 1.588-4.07 4.461v6.428c0 2.836 1.567 4.424 3.908 4.424s4.069-1.588 4.069-4.462v-6.427c0-2.836-1.567-4.424-3.907-4.424zm-.036 2.363c1.1 0 1.764.794 1.764 2.136v6.409a1.8 1.8 0 0 1 -1.854 2.042c-1.1 0-1.765-.794-1.765-2.136v-6.409a1.8 1.8 0 0 1 1.855-2.042zm15.348 10.474h-5.06l4.051-5.559a4.767 4.767 0 0 0 .991-2.892 4.013 4.013 0 0 0 -4.069-4.311c-2.323 0-3.962 1.947-3.962 4.67h2.233c0-1.4.612-2.325 1.783-2.325a1.836 1.836 0 0 1 1.782 1.966 2.506 2.506 0 0 1 -.558 1.588l-5.2 7.052v2.174h8.013v-2.363zm7.435-12.837c-2.341 0-4.07 1.588-4.07 4.461v6.428c0 2.836 1.567 4.424 3.908 4.424s4.069-1.588 4.069-4.462v-6.427c0-2.836-1.567-4.424-3.907-4.424zm-.036 2.363c1.1 0 1.764.794 1.764 2.136v6.409a1.8 1.8 0 0 1 -1.854 2.042c-1.1 0-1.765-.794-1.765-2.136v-6.409a1.8 1.8 0 0 1 1.855-2.042zm15.162 2.666a24.165 24.165 0 0 1 -8.156 7l1.44 1.966a22.352 22.352 0 0 0 7.436-6.579l.018 5.142c0 .529-.234.719-.9.719-.414 0-.558-.019-2.286-.171l.324 2.477c1.962.1 2.016.1 2.448.1 1.909 0 2.809-.8 2.791-2.515l-.018-8.129h4.087v-2.392h-4.087v-3.01h-2.395v3.006h-8.156v2.382h7.454zm13.728-4.916h-2.5v10.115h2.5zm8.714-.3h-2.538v8.091c-.072 3.649-2.017 4.972-7.851 5.332l.865 2.42c6.788-.605 9.38-2.78 9.524-7.941v-7.9zm4.219 2.93a22.206 22.206 0 0 1 5.6 2.817l1.278-2.323a22.858 22.858 0 0 0 -5.779-2.666zm.883 12.648c7.544-.832 11.919-4.632 14.224-12.383l-2.089-1.551c-2 7.393-5.671 10.663-12.657 11.193zm20.169-15.276h-2.448v12.022c.018 2.174 1.062 3.006 3.709 2.987h5.744a22.7 22.7 0 0 0 3.529-.264l-.144-2.553a20.822 20.822 0 0 1 -4.016.378h-4.663c-1.494 0-1.711-.151-1.711-1.21v-3.573a41.129 41.129 0 0 0 8.751-3.119l-1.134-2.344a30.688 30.688 0 0 1 -7.617 3.006v-5.332zm10.462-2.023a2.594 2.594 0 1 0 2.43 2.59 2.525 2.525 0 0 0 -2.43-2.592zm-.054 1.248a1.344 1.344 0 0 1 .018 2.685 1.345 1.345 0 0 1 -.018-2.688zm3.92 5.313a18.82 18.82 0 0 1 1.422 4.707l2.071-.529a20.409 20.409 0 0 0 -1.567-4.727zm4.195-.832a22.178 22.178 0 0 1 1.224 4.632l2-.473a21.034 21.034 0 0 0 -1.314-4.594zm6.176-.3c-1.117 6.693-3.2 9.094-9.111 10.455l1.513 1.909c5.869-1.569 8.57-4.783 9.92-11.816zm10.263-3.119a12.056 12.056 0 0 1 -4.519 5.331l1.53 1.872a14.63 14.63 0 0 0 4.556-4.878h5.635c-.828 5.861-4.519 9.585-10.695 10.776l.99 2.345c7.674-1.611 11.938-6.887 12.474-15.451h-9.975zm27.15 1.8h4.52v-2.439h-11.578v2.439h4.52v12.635h2.538v-12.644zm9.132 12.648v-6.39c0-1.815.864-2.893 2.323-2.893a1.672 1.672 0 0 1 1.638.983 5.41 5.41 0 0 1 .216 1.91v6.39h2.377v-6.343a7.283 7.283 0 0 0 -.468-3.4 3.363 3.363 0 0 0 -3.1-1.834 3.712 3.712 0 0 0 -2.989 1.4v-5.615h-2.377v15.779h2.377zm18.081-2.836a6.135 6.135 0 0 1 -3.313.926c-2.07 0-3.115-.926-3.295-2.911h7.472a11.167 11.167 0 0 0 -.432-3.441 4.564 4.564 0 0 0 -4.424-3.318c-2.917 0-4.97 2.477-4.97 6.031 0 3.63 2.089 5.842 5.51 5.842a8.178 8.178 0 0 0 3.457-.718v-2.42zm-6.554-3.895c.2-1.682 1.135-2.665 2.521-2.665 1.422 0 2.341.983 2.521 2.665zm23.914-8.659c-4.286 0-7.436 3.328-7.436 7.846 0 4.481 3.15 7.846 7.364 7.846 4.357 0 7.508-3.289 7.508-7.846 0-4.527-3.151-7.855-7.436-7.855zm0 2.439a5.437 5.437 0 0 1 .054 10.814c-2.827 0-4.952-2.325-4.952-5.426a5.1 5.1 0 0 1 4.898-5.397zm15.681 1.7h-2.773v-.908c0-1.058.252-1.342 1.152-1.342a2.866 2.866 0 0 1 .522.057l.2-2.212a7.359 7.359 0 0 0 -1.3-.133 2.966 2.966 0 0 0 -2.269.795c-.522.586-.684 1.191-.684 2.665v1.078h-1.368v2.287h1.368v8.951h2.377v-8.962h2.773v8.962h2.376v-8.962h1.855v-2.287h-1.855v-.908c0-1.058.253-1.342 1.153-1.342a2.692 2.692 0 0 1 .5.057l.2-2.212a7.2 7.2 0 0 0 -1.3-.133 2.946 2.946 0 0 0 -2.251.795c-.522.586-.684 1.191-.684 2.665v1.078zm7.814-4.538h-2.629v2.676h2.629v-2.685zm-.126 4.538h-2.377v11.238h2.377v-11.245zm11.922 8.262a5.317 5.317 0 0 1 -3.115 1c-2.107 0-3.385-1.381-3.385-3.63 0-2.212 1.314-3.649 3.331-3.649a3.8 3.8 0 0 1 2.556.926l.613-2.212a5.749 5.749 0 0 0 -3.331-1c-3.295 0-5.546 2.439-5.546 6.012 0 3.592 2.161 5.842 5.654 5.842a6.389 6.389 0 0 0 3.223-.775zm5.181-12.384h-2.624v2.685h2.629v-2.685zm-.126 4.122h-2.377v11.238h2.379v-11.245zm12.288 11.238a6.381 6.381 0 0 1 -.4-2.571v-4.481a4.3 4.3 0 0 0 -.774-2.987 4.607 4.607 0 0 0 -3.763-1.513 7.231 7.231 0 0 0 -3.673 1l.2 2.382a6.371 6.371 0 0 1 3.547-1.153c1.314 0 2.125.492 2.125 1.3 0 .586-.235.718-1.675.926a10.47 10.47 0 0 0 -3.061.7 3.464 3.464 0 0 0 -2.035 3.251 3.326 3.326 0 0 0 3.584 3.441 4.509 4.509 0 0 0 3.385-1.456 2.717 2.717 0 0 0 .234 1.154h2.3zm-2.7-3.725a3.551 3.551 0 0 1 -3.061 1.891 1.334 1.334 0 0 1 -1.5-1.4c0-1.135.63-1.588 2.557-1.834a5.035 5.035 0 0 0 2-.473v1.815zm9.662 1.437h-.775a.767.767 0 0 1 -.918-.964v-12.531h-2.377v12.932c-.036 2.042.757 2.874 2.755 2.855h1.315v-2.288zm8.56-12.8 5.348 15.087h3.259l5.347-15.087h-2.809l-4.159 12.534-4.177-12.534zm18.177-.284h-2.629v2.685h2.629zm-.126 4.122h-2.377v11.25h2.377v-11.245zm10.7 11.249h2.323v-15.782h-2.382v5.653a4.1 4.1 0 0 0 -3.114-1.418c-2.791 0-4.754 2.439-4.754 5.937 0 3.459 1.963 5.917 4.736 5.917a3.918 3.918 0 0 0 3.186-1.55v1.244zm-2.79-9.264c1.71 0 2.79 1.38 2.79 3.592 0 2.325-1.044 3.687-2.808 3.687-1.675 0-2.737-1.418-2.737-3.649-.002-2.207 1.06-3.625 2.753-3.625zm16.854 6.428a6.14 6.14 0 0 1 -3.313.926c-2.071 0-3.115-.926-3.3-2.911h7.472a11.167 11.167 0 0 0 -.432-3.441 4.566 4.566 0 0 0 -4.43-3.309c-2.917 0-4.969 2.477-4.969 6.031 0 3.63 2.089 5.842 5.51 5.842a8.184 8.184 0 0 0 3.457-.718v-2.42zm-6.554-3.895c.2-1.682 1.134-2.665 2.52-2.665 1.423 0 2.341.983 2.521 2.665zm14.82-4.821c-3.025 0-5.294 2.515-5.294 5.842 0 3.517 2.2 6.012 5.312 6.012 3.043 0 5.276-2.514 5.276-5.917-.002-3.417-2.235-5.932-5.296-5.932zm0 2.288c1.765 0 2.917 1.437 2.917 3.649 0 2.193-1.152 3.63-2.917 3.63s-2.917-1.437-2.917-3.592c-.002-2.245 1.133-3.682 2.915-3.682zm27.65.794h-6v2.344h3.511v3.479a6.567 6.567 0 0 1 -2.647.51c-3.439 0-5.528-2.041-5.528-5.407a5.088 5.088 0 0 1 5.42-5.407 6.709 6.709 0 0 1 4.249 1.437l.864-2.458a9.7 9.7 0 0 0 -5.108-1.413 7.563 7.563 0 0 0 -7.959 7.827 7.758 7.758 0 0 0 2.665 6.088 8.009 8.009 0 0 0 5.384 1.777 12.205 12.205 0 0 0 5.149-1.1v-7.676zm12.317 8.47a6.381 6.381 0 0 1 -.4-2.571v-4.481a4.3 4.3 0 0 0 -.774-2.987 4.607 4.607 0 0 0 -3.763-1.513 7.231 7.231 0 0 0 -3.673 1l.2 2.382a6.371 6.371 0 0 1 3.547-1.153c1.314 0 2.125.492 2.125 1.3 0 .586-.235.718-1.675.926a10.47 10.47 0 0 0 -3.061.7 3.464 3.464 0 0 0 -2.035 3.251 3.326 3.326 0 0 0 3.584 3.441 4.509 4.509 0 0 0 3.385-1.456 2.717 2.717 0 0 0 .234 1.154h2.3zm-2.7-3.725a3.551 3.551 0 0 1 -3.061 1.891 1.334 1.334 0 0 1 -1.5-1.4c0-1.135.63-1.588 2.557-1.834a5.035 5.035 0 0 0 2-.473v1.815zm14.071 3.725v-6.329c0-1.834.792-2.93 2.125-2.93 1.224 0 1.692.775 1.692 2.779v6.481h2.377v-6.655a6.79 6.79 0 0 0 -.45-3.1 3.292 3.292 0 0 0 -3.061-1.8 3.835 3.835 0 0 0 -3.313 1.759 2.961 2.961 0 0 0 -2.773-1.759 3.319 3.319 0 0 0 -2.863 1.551v-1.248h-2.287v11.252h2.377v-6.542c0-1.626.864-2.722 2.143-2.722 1.188 0 1.656.794 1.656 2.779v6.485h2.377zm17.923-2.836a6.135 6.135 0 0 1 -3.313.926c-2.07 0-3.115-.926-3.295-2.911h7.473a11.133 11.133 0 0 0 -.433-3.441 4.564 4.564 0 0 0 -4.429-3.309c-2.917 0-4.969 2.477-4.969 6.031 0 3.63 2.088 5.842 5.509 5.842a8.178 8.178 0 0 0 3.457-.718zm-6.554-3.895c.2-1.682 1.135-2.665 2.521-2.665 1.423 0 2.341.983 2.521 2.665z" fill="#fff" fill-rule="evenodd" transform="translate(-329.5 -959.844)"/></svg>