<svg height="14.94" viewBox="0 0 421.25 14.94" width="421.25" xmlns="http://www.w3.org/2000/svg"><path d="m331.034 1769.08a27.627 27.627 0 0 1 5.86 6.06l1.7-1.45a32.714 32.714 0 0 0 -2.239-2.58c3.083-2.25 4.813-4.65 5.453-7.52h-12.476v1.95h9.612a12.387 12.387 0 0 1 -3.94 4.26 31.7 31.7 0 0 0 -2.5-2.07zm16.313-6.33h-2.021v8.17h2.021zm7.038-.24h-2.05v6.53c-.058 2.94-1.629 4.01-6.34 4.3l.7 1.95c5.482-.48 7.576-2.24 7.692-6.4v-6.38zm9.87 4.21a19.511 19.511 0 0 1 -6.587 5.64l1.163 1.59a17.975 17.975 0 0 0 6.006-5.31l.015 4.15c0 .43-.19.58-.728.58-.334 0-.45-.01-1.846-.14l.261 2c1.585.08 1.629.08 1.978.08 1.541 0 2.269-.64 2.254-2.03l-.015-6.56h3.3v-1.92h-3.3v-2.43h-1.934v2.43h-6.587v1.92zm16.066 7.92h2.385l-1.876-2.34a10.893 10.893 0 0 0 1.585-2.93l-1.526-1.19a10.224 10.224 0 0 1 -1.266 2.63l-2.414-2.99a7.763 7.763 0 0 0 .975-.63 2.716 2.716 0 0 0 1.221-2.3 2.661 2.661 0 0 0 -2.894-2.67c-1.846.03-3.039 1.08-3.039 2.68a3.766 3.766 0 0 0 1.076 2.49c-1.817 1.11-2.486 2.09-2.486 3.62a3.823 3.823 0 0 0 4.013 3.87 5.525 5.525 0 0 0 3.447-1.23zm-1.948-2.44a3.667 3.667 0 0 1 -2.2.82 2.048 2.048 0 0 1 -2.2-2.06c0-.88.466-1.53 1.643-2.21zm-2.3-5.77a2.764 2.764 0 0 1 -.814-1.53 1.069 1.069 0 0 1 1.221-1.03 1.022 1.022 0 0 1 1.106 1.05c0 .56-.393.99-1.455 1.57zm7.532-2.17a17.693 17.693 0 0 1 2.618 4.21l1.832-1.16a18.254 18.254 0 0 0 -2.792-4.04zm9.627-1.29c-.989 6.31-3.316 9.15-8.609 10.52l1.251 1.77c5.5-1.52 8.187-4.88 9.51-11.85zm5.66.85v2.01h9.99v-2.01zm-1.076 8.03v2.01h12.184v-2.01h-12.182zm15.045-5.44a15.262 15.262 0 0 1 1.149 3.8l1.672-.42a16.4 16.4 0 0 0 -1.265-3.82zm3.389-.67a17.837 17.837 0 0 1 .988 3.74l1.615-.38a16.873 16.873 0 0 0 -1.062-3.71zm4.987-.24c-.9 5.4-2.588 7.34-7.358 8.44l1.222 1.54c4.74-1.27 6.922-3.86 8.012-9.54zm8.774-2.52a9.687 9.687 0 0 1 -3.65 4.3l1.236 1.51a11.709 11.709 0 0 0 3.679-3.93h4.552c-.669 4.73-3.65 7.73-8.638 8.69l.8 1.9c6.194-1.3 9.641-5.56 10.077-12.47zm24.74 8.67.989 2.99h2.283l-4.29-12.18h-2.647l-4.29 12.18h2.269l1-2.99h4.683zm-.611-1.85h-3.461l1.731-5.23zm8.794-5.37h3.65v-1.97h-9.35v1.97h3.65v10.21h2.05zm24.67.06v-1.69h-5.919v-1.15h-1.774v1.15h-5.947v1.69h5.947v.75h-4.987v5.98h3.693a14.2 14.2 0 0 1 -4.9 2.81l1.047 1.86a13.686 13.686 0 0 0 5.147-3.85v3.99h1.774v-4.02a14.444 14.444 0 0 0 5.1 3.8l1.047-1.89a13.077 13.077 0 0 1 -4.842-2.7h3.723v-5.98h-5.032v-.75h5.919zm-10.979 2.17h3.286v.93h-3.286zm8.376 0v.93h-3.316v-.93h3.315zm-8.376 2.23h3.286v.93h-3.286zm8.376 0v.93h-3.316v-.93h3.315zm18.616-6.09h-5.948v-1.18h-1.89v1.18h-5.8v1.8h13.64v-1.8zm-1.367 2.77h-10.904v5.28h4.537v2.86c-.015.33-.1.41-.451.41h-1.861l.363 1.95h2.4a1.275 1.275 0 0 0 1.337-1.54v-3.68h4.581v-5.28zm-1.847 1.65v1.97h-7.242v-1.97zm-7.591 3.91a10.782 10.782 0 0 1 -3 3.17l1.236 1.48a14.15 14.15 0 0 0 3.315-3.69zm10.907 2.96a10.765 10.765 0 0 1 -3.258-2.99l-1.57.96a11.356 11.356 0 0 0 3.563 3.65zm9.032-1.07h-4.087l3.272-4.49a3.806 3.806 0 0 0 .8-2.33 3.239 3.239 0 0 0 -3.286-3.48c-1.876 0-3.2 1.57-3.2 3.77h1.8c0-1.13.494-1.88 1.439-1.88a1.488 1.488 0 0 1 1.44 1.59 2.011 2.011 0 0 1 -.451 1.28l-4.2 5.69v1.76h6.471v-1.91zm6.139-10.36c-1.89 0-3.286 1.28-3.286 3.6v5.19c0 2.29 1.265 3.57 3.155 3.57s3.287-1.28 3.287-3.6v-5.19c.002-2.29-1.264-3.57-3.154-3.57zm-.029 1.91a1.463 1.463 0 0 1 1.425 1.72v5.17a1.448 1.448 0 0 1 -1.5 1.65 1.463 1.463 0 0 1 -1.425-1.72v-5.17a1.448 1.448 0 0 1 1.502-1.65zm12.531 8.45h-4.087l3.272-4.49a3.806 3.806 0 0 0 .8-2.33 3.239 3.239 0 0 0 -3.286-3.48c-1.876 0-3.2 1.57-3.2 3.77h1.8c0-1.13.494-1.88 1.439-1.88a1.488 1.488 0 0 1 1.44 1.59 2.011 2.011 0 0 1 -.451 1.28l-4.2 5.69v1.76h6.471v-1.91zm6.139-10.36c-1.89 0-3.286 1.28-3.286 3.6v5.19c0 2.29 1.265 3.57 3.155 3.57s3.287-1.28 3.287-3.6v-5.19c.002-2.29-1.264-3.57-3.154-3.57zm-.029 1.91a1.463 1.463 0 0 1 1.425 1.72v5.17a1.448 1.448 0 0 1 -1.5 1.65 1.463 1.463 0 0 1 -1.425-1.72v-5.17a1.448 1.448 0 0 1 1.498-1.65zm12.379 2.15a19.511 19.511 0 0 1 -6.587 5.64l1.163 1.59a17.975 17.975 0 0 0 6.006-5.31l.014 4.15c0 .43-.189.58-.727.58-.334 0-.45-.01-1.846-.14l.261 2c1.585.08 1.629.08 1.978.08 1.541 0 2.268-.64 2.254-2.03l-.015-6.56h3.3v-1.92h-3.3v-2.43h-1.932v2.43h-6.587v1.92h6.02zm11.572-3.97h-2.022v8.17h2.022zm7.038-.24h-2.051v6.53c-.058 2.94-1.628 4.01-6.34 4.3l.7 1.95c5.482-.48 7.576-2.24 7.693-6.4v-6.38zm3.893 2.36a18.169 18.169 0 0 1 4.523 2.28l1.032-1.88a18.328 18.328 0 0 0 -4.668-2.15zm.713 10.21c6.093-.67 9.626-3.74 11.488-9.99l-1.687-1.25c-1.614 5.96-4.581 8.6-10.223 9.03zm16.773-12.33h-1.978v9.71c.014 1.75.858 2.42 3 2.41h4.639a17.29 17.29 0 0 0 2.85-.22l-.116-2.06a16.666 16.666 0 0 1 -3.243.31h-3.766c-1.207 0-1.381-.12-1.381-.98v-2.88a33.527 33.527 0 0 0 7.067-2.52l-.916-1.89a24.907 24.907 0 0 1 -6.151 2.42v-4.3zm8.448-1.63a2.093 2.093 0 1 0 1.963 2.09 2.034 2.034 0 0 0 -1.961-2.09zm-.043 1.01a1.081 1.081 0 0 1 .014 2.16 1.081 1.081 0 0 1 -.012-2.16zm3.653 4.28a15.262 15.262 0 0 1 1.149 3.8l1.672-.42a16.4 16.4 0 0 0 -1.265-3.82zm3.388-.67a17.772 17.772 0 0 1 .989 3.74l1.614-.38a16.82 16.82 0 0 0 -1.061-3.71zm4.988-.24c-.9 5.4-2.588 7.34-7.358 8.44l1.222 1.54c4.74-1.27 6.921-3.86 8.012-9.54zm8.774-2.52a9.687 9.687 0 0 1 -3.65 4.3l1.236 1.51a11.719 11.719 0 0 0 3.679-3.93h4.557c-.669 4.73-3.65 7.73-8.637 8.69l.8 1.9c6.2-1.3 9.641-5.56 10.078-12.47h-8.061zm17.818-.17v1.96h9.815c-.48 1.49-1.4 2.44-3.3 3.35l1.338 1.51c2.807-1.68 3.926-3.41 4.392-6.82h-12.241zm1.381 12.55c3.737-1.91 5.119-4.4 5.177-9.3h-2.007c.015 4.26-1.09 6.15-4.449 7.66zm12.808-7.59v2.12h12.462v-2.12h-12.46zm27.872-.93v-1.91h-7.882a21.8 21.8 0 0 0 .684-2.48l-2.051-.22a9.327 9.327 0 0 1 -3.344 6.32l1.41 1.4a9.426 9.426 0 0 0 2.472-3.11h3.359c-.349 4.35-1.774 6-5.889 6.79l.9 1.83c4.667-1.02 6.616-3.42 7.038-8.62h3.3zm1.466.93v2.12h12.462v-2.12h-12.46zm19.261-5.45h-2.094v13.04h2.094v-7.25a27.737 27.737 0 0 1 5.846 3.17l1.033-2.12a35.24 35.24 0 0 0 -6.879-3.16zm2.531 1.09a13.139 13.139 0 0 1 1.483 2.96l1.207-.7a13.765 13.765 0 0 0 -1.556-2.9zm2.065-1.04a12.891 12.891 0 0 1 1.512 2.95l1.207-.69a13.744 13.744 0 0 0 -1.585-2.89zm17.71 4.55v-1.91h-7.9a20.435 20.435 0 0 0 .7-2.52l-2.05-.2a9.31 9.31 0 0 1 -3.345 6.32l1.411 1.4a9.808 9.808 0 0 0 2.472-3.09h3.359c-.349 4.33-1.774 5.99-5.89 6.77l.9 1.83c4.624-1 6.616-3.45 7.038-8.6h3.3zm-3.563-5.33a12.262 12.262 0 0 1 .989 2.99l1.222-.38a12.573 12.573 0 0 0 -1.076-2.97zm2.225-.12a12.444 12.444 0 0 1 1 3.01l1.207-.39a12.026 12.026 0 0 0 -1.076-2.97zm3.087 6.3v2.12h12.461v-2.12h-12.459zm14.4 4.9.218 2.11c3.388-.14 5.875-.32 8.434-.61l1.4-.17c.174.46.262.7.48 1.37l1.934-.9a26.331 26.331 0 0 0 -3.621-6.77l-1.658.83a31.705 31.705 0 0 1 2.109 3.74l-1.338.11c-1.512.14-2.094.17-3.461.21l-1.192.03a72.328 72.328 0 0 0 3.111-9.85l-2.094-.4c-.814 3.52-1.846 7.16-2.922 10.3z" fill="#fff" fill-rule="evenodd" transform="translate(-329.344 -1761.12)"/></svg>