<svg height="14.94" viewBox="0 0 243.531 14.94" width="243.531" xmlns="http://www.w3.org/2000/svg"><path d="m329.609 2165.26a17.724 17.724 0 0 1 2.617 4.21l1.832-1.16a18.254 18.254 0 0 0 -2.792-4.04zm9.626-1.29c-.989 6.31-3.315 9.15-8.608 10.52l1.25 1.77c5.5-1.52 8.187-4.88 9.51-11.85zm5.66.85v2.01h9.99v-2.01h-9.985zm-1.076 8.03v2.01h12.186v-2.01zm15.046-5.44a15.262 15.262 0 0 1 1.149 3.8l1.672-.42a16.448 16.448 0 0 0 -1.265-3.82zm3.388-.67a17.9 17.9 0 0 1 .989 3.74l1.614-.38a16.818 16.818 0 0 0 -1.062-3.71zm4.988-.24c-.9 5.4-2.589 7.34-7.358 8.44l1.221 1.54c4.741-1.27 6.922-3.86 8.013-9.54zm8.773-2.52a9.68 9.68 0 0 1 -3.65 4.3l1.236 1.51a11.7 11.7 0 0 0 3.679-3.93h4.552c-.669 4.73-3.65 7.73-8.638 8.69l.8 1.9c6.195-1.3 9.641-5.56 10.077-12.47zm24.74 8.67.989 2.99h2.283l-4.29-12.18h-2.646l-4.29 12.18h2.268l1-2.99h4.682zm-.611-1.85h-3.46l1.73-5.23zm8.8-5.37h3.65v-1.97h-9.351v1.97h3.65v10.21h2.051zm24.669.06v-1.69h-5.918v-1.15h-1.774v1.15h-5.948v1.69h5.948v.75h-4.988v5.98h3.694a14.216 14.216 0 0 1 -4.9 2.81l1.047 1.86a13.69 13.69 0 0 0 5.148-3.85v3.99h1.774v-4.02a14.444 14.444 0 0 0 5.1 3.8l1.047-1.89a13.069 13.069 0 0 1 -4.842-2.7h3.722v-5.98h-5.031v-.75h5.918zm-10.979 2.17h3.287v.93h-3.287zm8.376 0v.93h-3.315v-.93h3.306zm-8.376 2.23h3.287v.93h-3.287zm8.376 0v.93h-3.315v-.93h3.306zm18.616-6.09h-5.947v-1.18h-1.891v1.18h-5.8v1.8h13.64v-1.8zm-1.367 2.77h-10.911v5.28h4.537v2.86c-.014.33-.1.41-.451.41h-1.861l.364 1.95h2.4a1.276 1.276 0 0 0 1.338-1.54v-3.68h4.58v-5.28zm-1.846 1.65v1.97h-7.242v-1.97zm-7.591 3.91a10.8 10.8 0 0 1 -3 3.17l1.236 1.48a14.17 14.17 0 0 0 3.316-3.69zm10.906 2.96a10.773 10.773 0 0 1 -3.257-2.99l-1.571.96a11.366 11.366 0 0 0 3.563 3.65zm9.032-1.07h-4.086l3.272-4.49a3.813 3.813 0 0 0 .8-2.33 3.238 3.238 0 0 0 -3.286-3.48c-1.876 0-3.2 1.57-3.2 3.77h1.8c0-1.13.494-1.88 1.44-1.88a1.488 1.488 0 0 1 1.439 1.59 2.011 2.011 0 0 1 -.451 1.28l-4.2 5.69v1.76h6.471v-1.91zm6.139-10.36c-1.89 0-3.286 1.28-3.286 3.6v5.19c0 2.29 1.265 3.57 3.156 3.57s3.286-1.28 3.286-3.6v-5.19c-.005-2.29-1.27-3.57-3.161-3.57zm-.029 1.91a1.463 1.463 0 0 1 1.425 1.72v5.17a1.448 1.448 0 0 1 -1.5 1.65 1.463 1.463 0 0 1 -1.425-1.72v-5.17a1.448 1.448 0 0 1 1.495-1.65zm12.531 8.45h-4.086l3.272-4.49a3.813 3.813 0 0 0 .8-2.33 3.238 3.238 0 0 0 -3.286-3.48c-1.876 0-3.2 1.57-3.2 3.77h1.8c0-1.13.494-1.88 1.44-1.88a1.488 1.488 0 0 1 1.439 1.59 2.011 2.011 0 0 1 -.451 1.28l-4.2 5.69v1.76h6.472zm6.139-10.36c-1.89 0-3.286 1.28-3.286 3.6v5.19c0 2.29 1.265 3.57 3.156 3.57s3.286-1.28 3.286-3.6v-5.19c-.005-2.29-1.27-3.57-3.161-3.57zm-.029 1.91a1.463 1.463 0 0 1 1.425 1.72v5.17a1.448 1.448 0 0 1 -1.5 1.65 1.463 1.463 0 0 1 -1.425-1.72v-5.17a1.448 1.448 0 0 1 1.495-1.65zm12.38 2.15a19.523 19.523 0 0 1 -6.588 5.64l1.164 1.59a17.981 17.981 0 0 0 6-5.31l.015 4.15c0 .43-.189.58-.727.58-.335 0-.451-.01-1.847-.14l.262 2c1.585.08 1.628.08 1.977.08 1.542 0 2.269-.64 2.254-2.03l-.014-6.56h3.3v-1.92h-3.3v-2.43h-1.934v2.43h-6.588v1.92h6.021zm11.571-3.97h-2.021v8.17h2.021zm7.038-.24h-2.05v6.53c-.058 2.94-1.629 4.01-6.34 4.3l.7 1.95c5.482-.48 7.576-2.24 7.692-6.4v-6.38zm3.894 2.36a18.18 18.18 0 0 1 4.522 2.28l1.033-1.88a18.36 18.36 0 0 0 -4.668-2.15zm.712 10.21c6.093-.67 9.627-3.74 11.488-9.99l-1.687-1.25c-1.614 5.96-4.58 8.6-10.222 9.03zm16.773-12.33h-1.978v9.71c.015 1.75.858 2.42 3 2.41h4.639a17.308 17.308 0 0 0 2.85-.22l-.116-2.06a16.682 16.682 0 0 1 -3.243.31h-3.767c-1.206 0-1.381-.12-1.381-.98v-2.88a33.507 33.507 0 0 0 7.067-2.52l-.916-1.89a24.876 24.876 0 0 1 -6.151 2.42v-4.3zm8.449-1.63a2.093 2.093 0 1 0 1.963 2.09 2.034 2.034 0 0 0 -1.968-2.09zm-.044 1.01a1.048 1.048 0 0 1 1.047 1.06 1.033 1.033 0 1 1 -1.052-1.06zm3.654 4.28a15.259 15.259 0 0 1 1.148 3.8l1.673-.42a16.448 16.448 0 0 0 -1.265-3.82zm3.388-.67a17.9 17.9 0 0 1 .989 3.74l1.614-.38a16.873 16.873 0 0 0 -1.062-3.71zm4.988-.24c-.9 5.4-2.589 7.34-7.358 8.44l1.221 1.54c4.741-1.27 6.922-3.86 8.013-9.54zm8.773-2.52a9.687 9.687 0 0 1 -3.65 4.3l1.236 1.51a11.709 11.709 0 0 0 3.679-3.93h4.549c-.669 4.73-3.65 7.73-8.638 8.69l.8 1.9c6.2-1.3 9.641-5.56 10.077-12.47h-8.056z" fill="#fff" fill-rule="evenodd" transform="translate(-329.594 -2162.12)"/></svg>