<svg height="18.54" viewBox="0 0 292.469 18.54" width="292.469" xmlns="http://www.w3.org/2000/svg"><path d="m20.934 2092.75a21.719 21.719 0 0 1 3.241 5.22l2.269-1.44a22.192 22.192 0 0 0 -3.457-5.01zm11.92-1.61c-1.224 7.83-4.105 11.34-10.659 13.05l1.548 2.19c6.806-1.89 10.137-6.05 11.776-14.69zm6.41 1.06v2.5h12.37v-2.5zm-1.332 9.94v2.5h15.088v-2.5zm18.027-6.73a18.922 18.922 0 0 1 1.422 4.71l2.071-.53a20.293 20.293 0 0 0 -1.566-4.72zm4.2-.83a22.325 22.325 0 0 1 1.224 4.63l2-.47a20.9 20.9 0 0 0 -1.314-4.59zm6.176-.3c-1.116 6.69-3.2 9.09-9.111 10.45l1.512 1.91c5.87-1.57 8.571-4.78 9.921-11.81zm10.263-3.12a12.079 12.079 0 0 1 -4.519 5.33l1.531 1.87a14.6 14.6 0 0 0 4.555-4.87h5.635c-.828 5.86-4.519 9.58-10.7 10.77l.99 2.35c7.67-1.61 11.938-6.89 12.478-15.45h-9.975zm29.869 10.74 1.225 3.7h2.827l-5.312-15.08h-3.277l-5.311 15.08h2.809l1.243-3.7h5.8zm-.756-2.29h-4.285l2.143-6.48zm11.242-6.65h4.519v-2.44h-11.582v2.44h4.519v12.64h2.539v-12.64zm29.973.07v-2.1h-7.328v-1.42h-2.2v1.42h-7.364v2.1h7.366v.93h-6.18v7.41h4.574a17.589 17.589 0 0 1 -6.068 3.48l1.3 2.3a16.866 16.866 0 0 0 6.374-4.76v4.93h2.2v-4.97a17.985 17.985 0 0 0 6.32 4.71l1.3-2.34a16.244 16.244 0 0 1 -6-3.35h4.61v-7.41h-6.23v-.93h7.328zm-13.594 2.69h4.068v1.15h-4.069v-1.15zm10.371 0v1.15h-4.105v-1.15h4.102zm-10.371 2.76h4.068v1.15h-4.069v-1.15zm10.371 0v1.15h-4.105v-1.15h4.102zm22.463-7.55h-7.366v-1.45h-2.341v1.45h-7.184v2.23h16.889v-2.23zm-1.692 3.44h-13.5v6.55h5.617v3.53c-.018.42-.126.51-.558.51h-2.3l.45 2.42h2.971a1.583 1.583 0 0 0 1.656-1.91v-4.55h5.672v-6.55zm-2.287 2.05v2.43h-8.967v-2.43zm-9.4 4.84a13.512 13.512 0 0 1 -3.709 3.93l1.531 1.83a17.666 17.666 0 0 0 4.105-4.57zm13.5 3.66a13.35 13.35 0 0 1 -4.033-3.7l-1.944 1.19a14.014 14.014 0 0 0 4.411 4.52zm10.591-1.32h-5.06l4.052-5.56a4.781 4.781 0 0 0 .99-2.89 4.009 4.009 0 0 0 -4.069-4.31c-2.323 0-3.961 1.95-3.961 4.67h2.232c0-1.4.612-2.33 1.783-2.33a1.839 1.839 0 0 1 1.782 1.97 2.523 2.523 0 0 1 -.558 1.59l-5.2 7.05v2.17h8.012v-2.36zm7.075-12.84c-2.341 0-4.069 1.59-4.069 4.46v6.43c0 2.84 1.566 4.43 3.907 4.43s4.069-1.59 4.069-4.47v-6.42c0-2.84-1.567-4.43-3.907-4.43zm-.036 2.37c1.1 0 1.764.79 1.764 2.13v6.41a1.8 1.8 0 0 1 -1.854 2.04c-1.1 0-1.765-.79-1.765-2.13v-6.41a1.8 1.8 0 0 1 1.855-2.04zm14.988 10.47h-5.06l4.052-5.56a4.781 4.781 0 0 0 .99-2.89 4.009 4.009 0 0 0 -4.069-4.31c-2.323 0-3.961 1.95-3.961 4.67h2.232c0-1.4.612-2.33 1.783-2.33a1.839 1.839 0 0 1 1.782 1.97 2.523 2.523 0 0 1 -.558 1.59l-5.2 7.05v2.17h8.012v-2.36zm7.075-12.84c-2.341 0-4.069 1.59-4.069 4.46v6.43c0 2.84 1.566 4.43 3.907 4.43s4.069-1.59 4.069-4.47v-6.42c0-2.84-1.567-4.43-3.907-4.43zm-.036 2.37c1.1 0 1.764.79 1.764 2.13v6.41a1.8 1.8 0 0 1 -1.854 2.04c-1.1 0-1.765-.79-1.765-2.13v-6.41a1.8 1.8 0 0 1 1.855-2.04zm14.8 2.66a24.182 24.182 0 0 1 -8.156 7l1.44 1.96a22.292 22.292 0 0 0 7.437-6.58l.018 5.15c0 .53-.234.71-.9.71-.414 0-.558-.01-2.286-.17l.324 2.48c1.962.1 2.016.1 2.449.1 1.908 0 2.808-.8 2.79-2.52l-.018-8.13h4.088v-2.38h-4.088v-3.01h-2.394v3.01h-8.157v2.38h7.454zm13.728-4.91h-2.5v10.11h2.5zm8.715-.31h-2.537v8.1c-.072 3.64-2.017 4.97-7.85 5.33l.864 2.42c6.788-.61 9.381-2.78 9.525-7.94v-7.91zm4.219 2.93a22.6 22.6 0 0 1 5.6 2.82l1.279-2.32a22.667 22.667 0 0 0 -5.78-2.67zm.882 12.65c7.544-.83 11.919-4.63 14.224-12.38l-2.088-1.55c-2 7.39-5.672 10.66-12.658 11.19zm20.17-15.27h-2.449v12.02c.018 2.17 1.062 3.01 3.709 2.99h5.744a22.732 22.732 0 0 0 3.529-.27l-.144-2.55a20.721 20.721 0 0 1 -4.015.38h-4.662c-1.494 0-1.71-.15-1.71-1.21v-3.57a41.681 41.681 0 0 0 8.75-3.12l-1.134-2.35a30.82 30.82 0 0 1 -7.616 3.01v-5.33zm10.461-2.03a2.594 2.594 0 1 0 2.431 2.59 2.527 2.527 0 0 0 -2.429-2.59zm-.054 1.25a1.346 1.346 0 0 1 .018 2.69 1.347 1.347 0 0 1 -.016-2.69zm3.92 5.31a18.929 18.929 0 0 1 1.422 4.71l2.071-.53a20.245 20.245 0 0 0 -1.567-4.72zm4.2-.83a22.386 22.386 0 0 1 1.225 4.63l2-.47a20.915 20.915 0 0 0 -1.314-4.59zm6.176-.3c-1.116 6.69-3.205 9.09-9.111 10.45l1.513 1.91c5.869-1.57 8.57-4.78 9.921-11.81zm10.263-3.12a12.074 12.074 0 0 1 -4.519 5.33l1.53 1.87a14.6 14.6 0 0 0 4.556-4.87h5.635c-.828 5.86-4.519 9.58-10.695 10.77l.991 2.35c7.67-1.61 11.937-6.89 12.477-15.45z" fill="#fff" fill-rule="evenodd" transform="translate(-20.938 -2088.84)"/></svg>