<svg height="40.062" viewBox="0 0 215.625 40.062" width="215.625" xmlns="http://www.w3.org/2000/svg"><path d="m40.689 895.031v-2.1h-7.328v-1.418h-2.2v1.418h-7.361v2.1h7.364v.927h-6.176v7.411h4.573a17.5 17.5 0 0 1 -6.068 3.478l1.3 2.307a16.961 16.961 0 0 0 6.374-4.764v4.934h2.2v-4.972a18.056 18.056 0 0 0 6.32 4.707l1.3-2.344a16.17 16.17 0 0 1 -6-3.346h4.609v-7.411h-6.23v-.927h7.328zm-13.594 2.685h4.069v1.153h-4.069zm10.371 0v1.153h-4.105v-1.153zm-10.371 2.76h4.069v1.153h-4.069zm10.371 0v1.153h-4.105v-1.153zm22.463-7.543h-7.364v-1.456h-2.341v1.456h-7.184v2.231h16.889zm-1.692 3.441h-13.5v6.541h5.613v3.535c-.018.416-.126.511-.558.511h-2.3l.45 2.42h2.971a1.584 1.584 0 0 0 1.657-1.91v-4.556h5.672v-6.541zm-2.287 2.042v2.438h-8.967v-2.438zm-9.4 4.839a13.486 13.486 0 0 1 -3.709 3.933l1.531 1.834a17.65 17.65 0 0 0 4.105-4.576zm13.5 3.668a13.3 13.3 0 0 1 -4.033-3.705l-1.945 1.191a14.015 14.015 0 0 0 4.411 4.518zm10.596-1.323h-5.06l4.051-5.559a4.774 4.774 0 0 0 .99-2.892 4.013 4.013 0 0 0 -4.069-4.311c-2.323 0-3.961 1.947-3.961 4.67h2.233c0-1.4.612-2.325 1.782-2.325a1.836 1.836 0 0 1 1.783 1.966 2.506 2.506 0 0 1 -.558 1.588l-5.2 7.052v2.174h8.012v-2.363zm7.435-12.837c-2.341 0-4.069 1.588-4.069 4.461v6.428c0 2.836 1.566 4.424 3.907 4.424s4.069-1.588 4.069-4.462v-6.427c0-2.836-1.567-4.424-3.907-4.424zm-.036 2.363c1.1 0 1.764.794 1.764 2.136v6.409a1.8 1.8 0 0 1 -1.855 2.042c-1.1 0-1.764-.794-1.764-2.136v-6.409a1.8 1.8 0 0 1 1.855-2.042zm15.348 10.474h-5.06l4.051-5.559a4.774 4.774 0 0 0 .99-2.892 4.013 4.013 0 0 0 -4.069-4.311c-2.323 0-3.961 1.947-3.961 4.67h2.233c0-1.4.612-2.325 1.782-2.325a1.836 1.836 0 0 1 1.783 1.966 2.506 2.506 0 0 1 -.558 1.588l-5.2 7.052v2.174h8.012v-2.363zm7.435-12.837c-2.341 0-4.07 1.588-4.07 4.461v6.428c0 2.836 1.566 4.424 3.908 4.424s4.069-1.588 4.069-4.462v-6.427c0-2.836-1.567-4.424-3.907-4.424zm-.036 2.363c1.1 0 1.764.794 1.764 2.136v6.409a1.8 1.8 0 0 1 -1.854 2.042c-1.1 0-1.765-.794-1.765-2.136v-6.409a1.8 1.8 0 0 1 1.855-2.042zm15.162 2.666a24.165 24.165 0 0 1 -8.156 7l1.44 1.966a22.352 22.352 0 0 0 7.436-6.579l.018 5.142c0 .529-.234.719-.9.719-.414 0-.558-.019-2.286-.171l.324 2.477c1.962.1 2.016.1 2.448.1 1.909 0 2.809-.8 2.791-2.515l-.018-8.129h4.087v-2.392h-4.087v-3.01h-2.395v3.006h-8.156v2.382h7.454zm13.728-4.916h-2.5v10.115h2.5zm8.714-.3h-2.538v8.091c-.072 3.649-2.017 4.972-7.851 5.332l.865 2.42c6.788-.605 9.38-2.78 9.524-7.941v-7.9zm4.219 2.93a22.206 22.206 0 0 1 5.6 2.817l1.278-2.323a22.858 22.858 0 0 0 -5.779-2.666zm.883 12.648c7.544-.832 11.919-4.632 14.224-12.383l-2.089-1.551c-2 7.393-5.671 10.663-12.657 11.193zm20.169-15.276h-2.448v12.022c.018 2.174 1.062 3.006 3.709 2.987h5.744a22.7 22.7 0 0 0 3.529-.264l-.144-2.553a20.822 20.822 0 0 1 -4.016.378h-4.663c-1.494 0-1.711-.151-1.711-1.21v-3.573a41.129 41.129 0 0 0 8.751-3.119l-1.134-2.344a30.688 30.688 0 0 1 -7.617 3.006v-5.332zm10.462-2.023a2.594 2.594 0 1 0 2.43 2.59 2.525 2.525 0 0 0 -2.43-2.592zm-.054 1.248a1.344 1.344 0 0 1 .018 2.685 1.345 1.345 0 0 1 -.018-2.688zm3.92 5.313a18.82 18.82 0 0 1 1.422 4.707l2.071-.529a20.409 20.409 0 0 0 -1.567-4.727zm4.195-.832a22.178 22.178 0 0 1 1.224 4.632l2-.473a21.034 21.034 0 0 0 -1.314-4.594zm6.176-.3c-1.117 6.693-3.205 9.094-9.111 10.455l1.513 1.909c5.869-1.569 8.57-4.783 9.92-11.816zm10.263-3.119a12.056 12.056 0 0 1 -4.519 5.331l1.53 1.872a14.63 14.63 0 0 0 4.556-4.878h5.635c-.828 5.861-4.519 9.585-10.695 10.776l.99 2.345c7.674-1.611 11.938-6.887 12.474-15.451h-9.975zm-169.229 37.618v-12.837h3.367v-2.246h-9.039v2.249h3.367v12.837h2.3zm8.233-7.26c0-1.455.648-1.909 2-1.909 1.188 0 1.494.889 1.494 1.872v7.3h2.161v-7.657c0-2.609-1.134-3.743-3.1-3.743a3.327 3.327 0 0 0 -2.557.983v-4.669h-2.159v15.086h2.161v-7.26zm15.867 3.971h-2.111a1.511 1.511 0 0 1 -1.656 1.172 1.675 1.675 0 0 1 -1.783-1.834v-.756h5.42v-2.876c0-2.117-1.152-3.819-3.655-3.819a3.648 3.648 0 0 0 -3.889 3.8v3.895a3.609 3.609 0 0 0 3.834 3.824 3.71 3.71 0 0 0 3.84-3.406zm-5.546-4.027a1.622 1.622 0 0 1 1.675-1.853c1.008 0 1.567.643 1.567 1.834v.605h-3.246v-.586zm19.357-7.884a4.308 4.308 0 0 0 -4.5 4.575v6.163a4.367 4.367 0 0 0 4.5 4.576 4.308 4.308 0 0 0 4.5-4.576v-6.163a4.366 4.366 0 0 0 -4.505-4.575zm0 2.382a2.329 2.329 0 0 1 2.3 2.609v5.332a2.322 2.322 0 1 1 -4.609 0v-5.332a2.339 2.339 0 0 1 2.304-2.609zm13.321 3.8v-2.231h-2.472v-.113c0-1.305.612-1.494 1.819-1.494h.648v-2.227h-.72c-2.719 0-3.907.964-3.907 3.686v.151h-1.711v2.231h1.711v9.018h2.16v-9.018h2.467zm8.289 0v-2.231h-2.472v-.113c0-1.305.612-1.494 1.819-1.494h.648v-2.227h-.716c-2.719 0-3.907.964-3.907 3.686v.151h-1.715v2.231h1.711v9.018h2.161v-9.018h2.467zm4.576-6.068h-2.238v2.59h2.233v-2.587zm-.036 3.837h-2.161v11.249h2.161zm10.661 3.838c-.054-2.439-1.567-3.989-3.637-3.989a3.718 3.718 0 0 0 -3.926 3.8v3.895a3.609 3.609 0 0 0 3.836 3.819 3.692 3.692 0 0 0 3.835-3.668h-2.143a1.474 1.474 0 0 1 -1.62 1.437 1.675 1.675 0 0 1 -1.783-1.834v-3.365a1.7 1.7 0 0 1 1.783-1.853 1.539 1.539 0 0 1 1.512 1.758zm4.81-7.675h-2.233v2.59h2.233v-2.587zm-.036 3.837h-2.166v11.249h2.161v-11.249zm10.514 11.249h.667v-2.25h-.217c-.306 0-.522-.094-.522-.642v-4.765c0-2.42-.864-3.743-3.475-3.743a3.475 3.475 0 0 0 -3.853 3.346h2.161c.162-.907.63-1.134 1.584-1.134.991 0 1.459.3 1.459 1.739v.171c-3.655.075-5.4 1.417-5.4 3.856 0 2.345 1.224 3.536 3.043 3.536a2.678 2.678 0 0 0 2.629-1.267 1.847 1.847 0 0 0 1.919 1.153zm-5.437-3.4c0-1.04.81-1.758 3.241-1.853v1.021c0 1.362-.5 2.118-1.8 2.118a1.239 1.239 0 0 1 -1.446-1.289zm12.906 3.4v-2.231h-.216c-1.135 0-1.369-.4-1.369-1.474v-11.378h-2.161v11.51c0 2.893 1.189 3.573 3.475 3.573zm18.682-15.083h-2.25l-3.079 11.494-2.953-11.494h-2.287l3.871 15.086h2.647zm4.678 0h-2.232v2.59h2.232zm-.036 3.837h-2.16v11.249h2.16v-11.252zm8.954 11.249h1.981v-15.086h-2.161v4.386a2.92 2.92 0 0 0 -2.143-.7c-2.25 0-3.511 1.721-3.511 3.819v3.895a3.487 3.487 0 0 0 3.511 3.8 2.627 2.627 0 0 0 2.251-1zm-1.962-2.117a1.673 1.673 0 0 1 -1.747-1.853v-3.365a1.766 1.766 0 1 1 3.529 0v3.365a1.7 1.7 0 0 1 -1.777 1.85zm14.565-1.172h-2.106a1.511 1.511 0 0 1 -1.654 1.169 1.675 1.675 0 0 1 -1.782-1.834v-.756h5.419v-2.876c0-2.117-1.152-3.819-3.655-3.819a3.648 3.648 0 0 0 -3.889 3.8v3.895a3.609 3.609 0 0 0 3.835 3.819 3.709 3.709 0 0 0 3.832-3.401zm-5.545-4.027a1.622 1.622 0 0 1 1.674-1.853c1.009 0 1.567.643 1.567 1.834v.605h-3.241zm11.636-4.084a3.7 3.7 0 0 0 -3.908 3.8v3.895a3.89 3.89 0 0 0 7.779 0v-3.895a3.673 3.673 0 0 0 -3.871-3.803zm0 2.231a1.672 1.672 0 0 1 1.746 1.853v3.365a1.766 1.766 0 1 1 -3.529 0v-3.365a1.7 1.7 0 0 1 1.783-1.856zm18.574 1.38v2.231h2.322v.718a2.265 2.265 0 0 1 -2.322 2.572c-1.441 0-2.287-1-2.287-2.609v-5.332a2.326 2.326 0 0 1 2.287-2.609 1.993 1.993 0 0 1 2.175 2.132h2.215c-.054-2.95-1.728-4.519-4.375-4.519a4.332 4.332 0 0 0 -4.52 4.575v6.163a4.2 4.2 0 0 0 4.5 4.576 4.268 4.268 0 0 0 4.537-4.5v-3.4h-4.537zm14.862 7.789h.666v-2.25h-.216c-.306 0-.522-.094-.522-.642v-4.765c0-2.42-.865-3.743-3.475-3.743a3.475 3.475 0 0 0 -3.854 3.346h2.161c.162-.907.63-1.134 1.584-1.134.991 0 1.459.3 1.459 1.739v.171c-3.655.075-5.4 1.417-5.4 3.856 0 2.345 1.225 3.536 3.043 3.536a2.677 2.677 0 0 0 2.629-1.267 1.847 1.847 0 0 0 1.925 1.15zm-5.438-3.4c0-1.04.81-1.758 3.241-1.853v1.021c0 1.362-.5 2.118-1.8 2.118a1.239 1.239 0 0 1 -1.441-1.292zm11.41-3.857c0-1.455.558-1.909 1.908-1.909 1.188 0 1.405.889 1.405 1.872v7.3h2.16v-7.26c0-1.455.558-1.909 1.909-1.909 1.188 0 1.4.889 1.4 1.872v7.3h2.161v-7.657c0-2.609-1.045-3.743-3.007-3.743a3.049 3.049 0 0 0 -2.881 1.437 2.6 2.6 0 0 0 -2.593-1.437 3.123 3.123 0 0 0 -2.575 1.078l-.072-.927h-1.974v11.249h2.161v-7.26zm21.88 3.971h-2.107a1.511 1.511 0 0 1 -1.656 1.172 1.675 1.675 0 0 1 -1.783-1.834v-.756h5.42v-2.882c0-2.117-1.153-3.819-3.655-3.819a3.648 3.648 0 0 0 -3.889 3.8v3.895a3.608 3.608 0 0 0 3.831 3.824 3.71 3.71 0 0 0 3.839-3.406zm-5.546-4.027a1.622 1.622 0 0 1 1.675-1.853c1.008 0 1.566.643 1.566 1.834v.605h-3.241z" fill="#fff" fill-rule="evenodd" transform="translate(-23.5 -890.844)"/></svg>