<svg height="39.31" viewBox="0 0 183.656 39.31" width="183.656" xmlns="http://www.w3.org/2000/svg"><path d="m23.7 1351.9a33.8 33.8 0 0 1 7.256 7.51l2.107-1.8a37.654 37.654 0 0 0 -2.773-3.19c3.817-2.8 5.96-5.77 6.752-9.32h-15.45v2.42h11.9a15.468 15.468 0 0 1 -4.879 5.27 36.968 36.968 0 0 0 -3.1-2.57zm19.6-7.84h-2.5v10.11h2.5zm8.715-.31h-2.541v8.09c-.072 3.65-2.017 4.98-7.85 5.34l.864 2.42c6.788-.61 9.381-2.78 9.525-7.94v-7.91zm11.619 5.22a24.189 24.189 0 0 1 -8.156 7l1.44 1.96a22.287 22.287 0 0 0 7.436-6.58l.018 5.15c0 .52-.234.71-.9.71-.414 0-.558-.01-2.287-.17l.324 2.48c1.963.1 2.017.1 2.449.1 1.909 0 2.809-.8 2.791-2.52l-.018-8.13h4.087v-2.38h-4.089v-3.01h-2.395v3.01h-8.157v2.38h7.454zm19.295 9.81h2.953l-2.323-2.89a13.7 13.7 0 0 0 1.962-3.63l-1.89-1.47a12.769 12.769 0 0 1 -1.567 3.25l-2.989-3.71a9.123 9.123 0 0 0 1.206-.77 3.385 3.385 0 0 0 1.512-2.86c0-1.94-1.4-3.25-3.583-3.31-2.287.04-3.763 1.35-3.763 3.33 0 1.04.306 1.72 1.332 3.08-2.251 1.38-3.079 2.59-3.079 4.48a4.745 4.745 0 0 0 4.97 4.81 6.817 6.817 0 0 0 4.267-1.54zm-2.413-3.02a4.568 4.568 0 0 1 -2.719 1.02 2.54 2.54 0 0 1 -2.719-2.55c0-1.1.576-1.89 2.035-2.74zm-2.845-7.15a3.4 3.4 0 0 1 -1.008-1.89 1.325 1.325 0 0 1 1.512-1.28 1.269 1.269 0 0 1 1.368 1.3c0 .7-.486 1.23-1.8 1.95zm9.679-2.68a21.719 21.719 0 0 1 3.241 5.22l2.269-1.44a22.192 22.192 0 0 0 -3.457-5.01zm11.92-1.61c-1.224 7.83-4.105 11.34-10.659 13.05l1.548 2.19c6.806-1.89 10.137-6.05 11.776-14.69zm6.41 1.06v2.49h12.37v-2.49zm-1.332 9.94v2.5h15.088v-2.5h-15.091zm18.027-6.73a18.89 18.89 0 0 1 1.423 4.71l2.07-.53a20.558 20.558 0 0 0 -1.566-4.73zm4.2-.83a22.326 22.326 0 0 1 1.224 4.63l2-.47a20.968 20.968 0 0 0 -1.315-4.59zm6.175-.3c-1.116 6.69-3.2 9.09-9.11 10.45l1.512 1.91c5.87-1.57 8.571-4.78 9.921-11.81zm10.264-3.12a12.082 12.082 0 0 1 -4.52 5.33l1.531 1.87a14.54 14.54 0 0 0 4.555-4.88h5.636c-.828 5.87-4.52 9.59-10.695 10.78l.99 2.35c7.67-1.61 11.937-6.89 12.478-15.45zm29.869 10.74 1.224 3.7h2.827l-5.311-15.08h-3.277l-5.312 15.08h2.809l1.242-3.7h5.8zm-.756-2.29h-4.286l2.143-6.48zm11.241-6.65h4.52v-2.44h-11.588v2.44h4.52v12.64h2.538v-12.64zm-145.679 22.23v-2.1h-7.328v-1.41h-2.2v1.41h-7.361v2.1h7.364v.93h-6.176v7.41h4.573a17.426 17.426 0 0 1 -6.068 3.48l1.3 2.31a16.992 16.992 0 0 0 6.374-4.77v4.94h2.2v-4.98a17.992 17.992 0 0 0 6.32 4.71l1.3-2.34a16.235 16.235 0 0 1 -6-3.35h4.609v-7.41h-6.23v-.93h7.328zm-13.594 2.69h4.069v1.15h-4.069zm10.371 0v1.15h-4.105v-1.15zm-10.371 2.76h4.069v1.15h-4.069zm10.371 0v1.15h-4.105v-1.15zm22.463-7.55h-7.364v-1.45h-2.341v1.45h-7.184v2.24h16.889zm-1.692 3.45h-13.5v6.54h5.613v3.53c-.018.42-.126.51-.558.51h-2.3l.45 2.42h2.971c1.152-.05 1.675-.64 1.657-1.91v-4.55h5.672v-6.54zm-2.287 2.04v2.44h-8.967v-2.44zm-9.4 4.84a13.524 13.524 0 0 1 -3.709 3.93l1.531 1.83a17.667 17.667 0 0 0 4.105-4.57zm13.5 3.67a13.257 13.257 0 0 1 -4.033-3.71l-1.945 1.19a14.023 14.023 0 0 0 4.411 4.52zm10.591-1.33h-5.06l4.051-5.56a4.752 4.752 0 0 0 .99-2.89 4.015 4.015 0 0 0 -4.069-4.31c-2.323 0-3.961 1.95-3.961 4.67h2.238c0-1.4.612-2.33 1.782-2.33a1.839 1.839 0 0 1 1.783 1.97 2.522 2.522 0 0 1 -.558 1.59l-5.2 7.05v2.17h8.012v-2.36zm7.075-12.84c-2.341 0-4.069 1.59-4.069 4.47v6.42c0 2.84 1.566 4.43 3.907 4.43s4.069-1.59 4.069-4.46v-6.43c.005-2.84-1.562-4.43-3.902-4.43zm-.036 2.37c1.1 0 1.764.79 1.764 2.13v6.41a1.79 1.79 0 0 1 -1.855 2.04c-1.1 0-1.764-.79-1.764-2.13v-6.41a1.8 1.8 0 0 1 1.86-2.04zm14.988 10.47h-5.06l4.051-5.56a4.752 4.752 0 0 0 .99-2.89 4.015 4.015 0 0 0 -4.069-4.31c-2.323 0-3.961 1.95-3.961 4.67h2.233c0-1.4.612-2.33 1.782-2.33a1.839 1.839 0 0 1 1.783 1.97 2.522 2.522 0 0 1 -.558 1.59l-5.2 7.05v2.17h8.012v-2.36zm7.075-12.84c-2.341 0-4.069 1.59-4.069 4.47v6.42c0 2.84 1.566 4.43 3.907 4.43s4.07-1.59 4.07-4.46v-6.43c.004-2.84-1.563-4.43-3.903-4.43zm-.036 2.37c1.1 0 1.764.79 1.764 2.13v6.41a1.79 1.79 0 0 1 -1.855 2.04c-1.1 0-1.764-.79-1.764-2.13v-6.41a1.8 1.8 0 0 1 1.86-2.04zm14.8 2.66a24.182 24.182 0 0 1 -8.156 7l1.44 1.96a22.361 22.361 0 0 0 7.436-6.57l.018 5.14c0 .53-.234.72-.9.72-.414 0-.558-.02-2.286-.17l.324 2.47c1.962.1 2.016.1 2.448.1 1.909 0 2.809-.8 2.791-2.52l-.018-8.13h4.096v-2.38h-4.087v-3h-2.4v3h-8.153v2.38h7.454zm13.728-4.91h-2.5v10.11h2.5zm8.714-.3h-2.538v8.09c-.072 3.65-2.017 4.97-7.851 5.33l.865 2.42c6.788-.61 9.38-2.78 9.524-7.94zm4.219 2.93a22.22 22.22 0 0 1 5.6 2.81l1.278-2.32a22.66 22.66 0 0 0 -5.779-2.67zm.883 12.64c7.544-.83 11.919-4.63 14.224-12.38l-2.089-1.55c-2 7.39-5.671 10.66-12.657 11.19zm20.169-15.27h-2.448v12.02c.018 2.18 1.062 3.01 3.709 2.99h5.744a21.568 21.568 0 0 0 3.529-.27l-.144-2.55a20.724 20.724 0 0 1 -4.016.38h-4.663c-1.494 0-1.711-.15-1.711-1.21v-3.57a41.133 41.133 0 0 0 8.751-3.12l-1.134-2.35a30.427 30.427 0 0 1 -7.617 3.01zm10.462-2.02a2.594 2.594 0 1 0 2.43 2.59 2.521 2.521 0 0 0 -2.423-2.59zm-.054 1.24a1.347 1.347 0 1 1 -1.261 1.35 1.307 1.307 0 0 1 1.268-1.35zm3.92 5.32a18.733 18.733 0 0 1 1.422 4.7l2.071-.53a20.292 20.292 0 0 0 -1.567-4.72zm4.195-.84a22.262 22.262 0 0 1 1.224 4.64l2-.48a20.915 20.915 0 0 0 -1.314-4.59zm6.176-.3c-1.117 6.69-3.2 9.09-9.111 10.46l1.513 1.91c5.869-1.57 8.57-4.79 9.92-11.82zm10.263-3.12a12.026 12.026 0 0 1 -4.519 5.33l1.53 1.87a14.6 14.6 0 0 0 4.556-4.87h5.635c-.828 5.86-4.519 9.58-10.695 10.77l.99 2.35c7.671-1.61 11.938-6.88 12.478-15.45z" fill="#fff" fill-rule="evenodd" transform="translate(-20.5 -1343.41)"/></svg>