<svg xmlns="http://www.w3.org/2000/svg" width="782" height="130" viewBox="0 0 782 130"><path fill="#FFF" d="M0 0h782v130H0z"/><path d="M50.337 41.846C47.775 60.41 34.371 68.071 18.71 69.932a.87.87 0 01-.968-.865V60.7a.86.86 0 01.738-.844c11.973-1.817 18.619-8.321 20.057-18.011h-25.67a.867.867 0 01-.867-.867v-7.981c0-.468.38-.848.848-.848h55.375c.48 0 .87.389.87.87v7.956a.87.87 0 01-.87.87H50.337zm15.247-22.518v4.68a.87.87 0 01-.87.87H16.756a.864.864 0 01-.864-.864v-8.096c0-.477.387-.864.864-.864H54.93v-4.042c0-.48.389-.87.87-.87h4.64c.48 0 .87.389.87.87v4.042h2.297v-4.042c0-.48.389-.87.87-.87h4.64c.48 0 .87.389.87.87v7.446a.87.87 0 01-.87.87h-3.533zm10.4 22.733v-8.225c0-.469.378-.847.847-.831 8.33.282 19.087 1.17 27.335 2.239a.821.821 0 01.713.823v8.285a.82.82 0 01-.918.823c-8.678-1.069-19.406-2.057-27.186-2.289a.813.813 0 01-.791-.825zm.637-18.429v-8.166c0-.469.379-.847.848-.831 8.153.279 18.694 1.109 27.325 2.119a.823.823 0 01.724.825v8.404a.819.819 0 01-.917.823c-8.364-1.016-19.4-2.057-27.192-2.348a.818.818 0 01-.788-.826zm.766 44.88v-8.734a.87.87 0 01.845-.863c26.074-.915 38.663-9.568 41.182-34.23a.844.844 0 01.832-.764h9.548c.495 0 .889.433.848.926-2.698 32.518-22.279 43.952-52.359 44.541a.883.883 0 01-.896-.876zm37.508-47.747v-7.53c0-.475.385-.859.859-.859h4.596c.475 0 .859.385.859.859v7.53a.859.859 0 01-.859.859h-4.596a.859.859 0 01-.859-.859zm8.611 0v-7.53c0-.475.385-.859.859-.859h4.596c.475 0 .859.385.859.859v7.53a.859.859 0 01-.859.859h-4.596a.86.86 0 01-.859-.859zm20.934 39.292c13.175-1.731 22.252-6.164 28.137-13.3-8.521-1.791-16.263-3.043-23.865-3.816a.84.84 0 01-.757-.839v-6.317c-3.138 3.079-6.804 5.734-10.854 7.533-.564.251-1.203-.183-1.203-.8v-9.266c0-.29.147-.553.392-.709 5.374-3.424 10.074-9.805 12.617-17.107a.85.85 0 01.802-.575h42.048c.47 0 .85.229.85.51v.51c-.696 28.334-11.298 50.899-47.974 54.017a.881.881 0 01-.952-.871V60.91a.866.866 0 01.759-.853zm11.68-35.371c-1.532 2.934-3.573 5.932-5.997 8.739 8.994.957 18.69 2.361 27.684 4.402 1.532-3.891 2.552-8.292 3.19-13.14H156.12zm38.601 45.06V59.422c0-.226.093-.439.256-.595 4.531-4.327 7.973-10.582 7.973-26.486V15.315c0-.461.374-.835.835-.835h8.728c.461 0 .835.374.835.835V31.64c0 23.187-7.02 32.748-17.372 38.836-.553.324-1.255-.088-1.255-.73zm25.007-.793V15.251c0-.461.374-.835.835-.835h8.728c.461 0 .835.374.835.835v41.202c8.341-2.677 12.005-13.372 12.71-23.846a.827.827 0 01.826-.776h8.742a.85.85 0 01.842.884c-.993 22.426-11.493 35.63-32.616 37.08a.85.85 0 01-.902-.842zm77.269-33.04v34.366a.846.846 0 01-.846.846h-9.535a.846.846 0 01-.846-.846V41.781c-8.401 3.435-17.511 5.513-25.57 6.745a.844.844 0 01-.967-.842v-8.451c0-.408.3-.757.702-.829 26.072-4.692 37.511-14.15 42.264-24.518a.83.83 0 01.758-.49h10.047c.571 0 .99.563.817 1.107-3.009 9.441-9.148 16.313-16.824 21.41zm11.994 32.449v-8.798c0-.37.249-.692.605-.793 20.967-5.973 33.165-20.229 36.05-43.368a.83.83 0 01.818-.732h9.997c.502 0 .896.448.835.947-3.645 29.858-20.478 47.654-47.283 53.566a.846.846 0 01-1.022-.822zm85.728-26.899c-6.188-12.504-7.081-13.269-11.865-13.269h-2.105l-6.442 15.246c-2.609 6.977-6.834 10.666-13.226 11.778-.521.091-.999-.327-.999-.856v-8.813c0-.317.182-.596.458-.751 2.046-1.149 3.461-3.264 4.71-6.653l7.885-19.806a.86.86 0 01.799-.542h8.028c11.227 0 14.288 1.658 21.688 16.712 5.219 10.685 10.376 20.524 17.005 23.269a.833.833 0 01.536.773v8.697c0 1.159-.491 1.572-1.018 1.47-11.072-2.146-17.963-12.086-25.454-27.255zm5.359-18.574v-7.761a.84.84 0 01.84-.84h4.954a.84.84 0 01.84.84v7.761a.84.84 0 01-.84.84h-4.954a.84.84 0 01-.84-.84zm8.931 0v-7.761a.84.84 0 01.84-.84h4.954a.84.84 0 01.84.84v7.761a.84.84 0 01-.84.84h-4.954a.84.84 0 01-.84-.84zm10.957 20.081v-8.437c0-.471.382-.853.853-.853h49.347c.471 0 .853.382.853.853v8.437a.853.853 0 01-.853.853h-49.347a.853.853 0 01-.853-.853zm59.393-.936v-8.168c0-.485.392-.877.877-.86 8.318.283 19.046 1.168 27.28 2.235a.85.85 0 01.738.852v8.227a.847.847 0 01-.95.851c-8.662-1.065-19.358-2.051-27.126-2.283a.844.844 0 01-.819-.854zm.637-18.429v-8.11c0-.485.392-.877.877-.86 8.141.281 18.654 1.108 27.27 2.117.433.051.75.418.75.853v8.345a.848.848 0 01-.95.852c-8.35-1.013-19.352-2.051-27.132-2.343a.846.846 0 01-.815-.854zm.767 44.918v-8.757a.86.86 0 01.834-.852c26.077-.912 38.669-9.561 41.191-34.217a.86.86 0 01.846-.777h9.52c.503 0 .904.44.862.942-2.703 32.511-22.288 43.94-52.369 44.526a.87.87 0 01-.884-.865zm62.005-.401v-7.71c0-.46.373-.833.833-.833h33.422v-9.823h-32.592a.833.833 0 01-.833-.833v-7.584c0-.46.373-.833.833-.833h32.592v-8.547h-33.422a.833.833 0 01-.833-.833v-7.647c0-.46.373-.833.833-.833h43.114c.46 0 .833.373.833.833v44.645c0 .46-.373.833-.833.833h-43.114a.836.836 0 01-.833-.835zm55.068-43.024V16.35a.85.85 0 01.902-.858c8.282.532 18.345 1.777 26.597 3.262a.85.85 0 01.697.844v9.022c0 .539-.48.943-1.009.84-7.838-1.533-18.51-2.975-26.402-3.511a.843.843 0 01-.785-.851zm.893 43.222v-8.844c0-.446.35-.815.796-.849 22.839-1.736 37.209-8.45 39.762-33.293a.857.857 0 01.844-.775h9.651c.503 0 .903.441.861.942-2.566 30.516-20.493 42.592-51.016 43.682a.87.87 0 01-.898-.863z"/><path d="M291.252 115.749l-4.35-5.744c6.969-3.21 13.135-7.94 18.203-13.727H288.93v-7.054h18.795v-6.42h7.35v6.42h9.207v7.054h-9.207l.126 17.274c0 1.774-.591 3.675-1.985 4.857-1.773 1.478-3.717 1.478-6.715 1.478-1.732 0-3.422-.042-5.153-.084l-1.436-7.223c1.942.127 3.928.296 5.87.296 1.099 0 2.07-.211 2.07-1.562l-.085-8.87c-4.815 5.913-9.841 9.715-16.515 13.305zm57.182-25.215l-3.928 6.758c-4.182-2.83-8.743-5.026-13.474-6.631l3.252-6.294c4.942 1.437 9.716 3.464 14.15 6.167zm-16.809 21.033c8.235-.676 14.402-2.534 19.09-6.166 4.942-3.844 8.236-9.672 10.56-18.204l6.885 3.506c-2.196 7.729-5.744 14.993-11.911 20.315-6.166 5.322-13.98 7.265-22.132 8.489l-2.492-7.94zm76.737-17.401c-.803 9.757-3.929 16.008-9.546 20.021-4.73 3.379-11.15 5.11-19.175 5.659l-2.239-6.927c5.406-.169 12.164-.971 16.431-3.801 3.041-2.027 4.73-4.478 5.659-8.109H373.18v-6.843h35.182zm-2.745-10.475v6.8h-29.229v-6.8h29.229zm33.36 35.986h-7.898v-16.979c-4.224 2.492-8.743 4.435-13.389 5.871l-3.759-6.505c6.377-1.689 12.797-5.11 18.288-8.743 5.026-3.336 8.658-7.096 12.713-11.445l6.547 4.646c-3.844 4.224-7.856 7.687-12.502 11.023v22.132zm36.149-29.143l-3.928 6.758c-4.182-2.83-8.743-5.026-13.474-6.631l3.252-6.294c4.942 1.437 9.715 3.464 14.15 6.167zm-16.81 21.033c8.235-.676 14.402-2.534 19.09-6.166 4.942-3.844 8.236-9.672 10.56-18.204l6.885 3.506c-2.196 7.729-5.744 14.993-11.911 20.315-6.166 5.322-13.98 7.265-22.132 8.489l-2.492-7.94z" fill="#135675"/><linearGradient id="a" gradientUnits="userSpaceOnUse" x1="510" y1="102.253" x2="770" y2="102.253"><stop offset="0" stop-color="#135675"/><stop offset=".25" stop-color="#269c8a"/><stop offset=".5" stop-color="#0e2297"/><stop offset=".75" stop-color="#f2c4e9"/><stop offset="1" stop-color="#f2c4e9" stop-opacity="0"/></linearGradient><path fill="url(#a)" d="M510 93.253h260v18H510z"/><linearGradient id="b" gradientUnits="userSpaceOnUse" x1="1337.941" y1="102.253" x2="1597.941" y2="102.253" gradientTransform="matrix(-1 0 0 1 1609.94 0)"><stop offset="0" stop-color="#135675"/><stop offset=".25" stop-color="#269c8a"/><stop offset=".5" stop-color="#0e2297"/><stop offset=".75" stop-color="#f2c4e9"/><stop offset="1" stop-color="#f2c4e9" stop-opacity="0"/></linearGradient><path fill="url(#b)" d="M12 111.253h260v-18H12z"/><path d="M659.501 69.796V62.04l14.864-28.033c.754-1.399 1.185-2.625 1.293-3.676.107-1.05.161-2.355.161-3.918 0-.699-.014-1.44-.04-2.222-.027-.78-.176-1.467-.444-2.061a3.847 3.847 0 00-1.212-1.494c-.539-.404-1.32-.605-2.343-.605-1.239 0-2.222.351-2.948 1.05-.728.7-1.091 1.725-1.091 3.07v4.686h-8.24v-4.524c0-1.723.323-3.339.969-4.847a12.505 12.505 0 012.666-3.959c1.077-1.131 2.37-2.032 3.878-2.706 1.508-.673 3.123-1.01 4.848-1.01 2.153 0 3.999.391 5.534 1.171a11.07 11.07 0 013.837 3.191c.97 1.347 1.683 2.882 2.141 4.604.457 1.725.687 3.555.687 5.494 0 1.4-.027 2.572-.08 3.514a21.524 21.524 0 01-.323 2.706 11.996 11.996 0 01-.808 2.586 53.211 53.211 0 01-1.535 3.15l-12.118 23.348h14.864v8.24h-24.56zm28.437-45.645c0-1.939.336-3.662 1.01-5.171.673-1.507 1.575-2.8 2.706-3.878 1.131-1.076 2.437-1.898 3.918-2.464s3.03-.848 4.646-.848 3.163.282 4.646.848a11.663 11.663 0 013.918 2.464c1.131 1.078 2.032 2.371 2.706 3.878.673 1.509 1.01 3.231 1.01 5.171V57.92c0 1.939-.337 3.663-1.01 5.171-.674 1.508-1.575 2.801-2.706 3.878s-2.438 1.898-3.918 2.464a12.926 12.926 0 01-4.646.848c-1.615 0-3.164-.282-4.646-.848s-2.787-1.387-3.918-2.464-2.033-2.37-2.706-3.878c-.674-1.508-1.01-3.231-1.01-5.171V24.151zm8.24 33.769c0 1.186.376 2.169 1.131 2.949.754.781 1.723 1.171 2.908 1.171 1.185 0 2.153-.39 2.908-1.171.754-.78 1.131-1.764 1.131-2.949V24.151c0-1.185-.377-2.168-1.131-2.949-.755-.78-1.724-1.171-2.908-1.171-1.186 0-2.154.391-2.908 1.171-.755.781-1.131 1.765-1.131 2.949V57.92zm20.197 11.876V62.04l14.864-28.033c.754-1.399 1.185-2.625 1.293-3.676.107-1.05.161-2.355.161-3.918 0-.699-.014-1.44-.04-2.222-.027-.78-.176-1.467-.444-2.061a3.847 3.847 0 00-1.212-1.494c-.539-.404-1.32-.605-2.343-.605-1.239 0-2.222.351-2.948 1.05-.728.7-1.091 1.725-1.091 3.07v4.686h-8.24v-4.524c0-1.723.323-3.339.969-4.847a12.505 12.505 0 012.666-3.959c1.077-1.131 2.37-2.032 3.878-2.706 1.508-.673 3.123-1.01 4.848-1.01 2.153 0 3.999.391 5.534 1.171a11.07 11.07 0 013.837 3.191c.97 1.347 1.683 2.882 2.141 4.604.457 1.725.687 3.555.687 5.494 0 1.4-.027 2.572-.08 3.514a21.524 21.524 0 01-.323 2.706 11.996 11.996 0 01-.808 2.586 53.211 53.211 0 01-1.535 3.15L726.07 61.556h14.864v8.24h-24.559zm28.437 0V62.04l14.864-28.033c.754-1.399 1.185-2.625 1.293-3.676.107-1.05.161-2.355.161-3.918 0-.699-.014-1.44-.04-2.222-.027-.78-.176-1.467-.444-2.061a3.847 3.847 0 00-1.212-1.494c-.539-.404-1.32-.605-2.343-.605-1.239 0-2.222.351-2.948 1.05-.728.7-1.091 1.725-1.091 3.07v4.686h-8.24v-4.524c0-1.723.323-3.339.969-4.847a12.505 12.505 0 012.666-3.959c1.077-1.131 2.37-2.032 3.878-2.706 1.508-.673 3.123-1.01 4.848-1.01 2.153 0 3.999.391 5.534 1.171a11.07 11.07 0 013.837 3.191c.97 1.347 1.683 2.882 2.141 4.604.457 1.725.687 3.555.687 5.494 0 1.4-.027 2.572-.08 3.514a21.524 21.524 0 01-.323 2.706 11.996 11.996 0 01-.808 2.586 53.211 53.211 0 01-1.535 3.15l-12.118 23.348h14.864v8.24h-24.56z"/></svg>