<svg xmlns="http://www.w3.org/2000/svg" width="346.789" height="110" viewBox="0 0 346.789 110"><g id="レイヤー_2" data-name="レイヤー 2"><g id="レイヤー_1-2" data-name="レイヤー 1"><path d="M40.716,50.107H44.89v-.925H40.716Zm231.3-36.833c0,3.1-.28,6.962-3.661,9.542a10.2,10.2,0,0,1,1.82,1.781,10.684,10.684,0,0,0,3.761-6.2h8.442v3.1c0,.58-.14.58-1.46.58-.74,0-1.8,0-2.741-.06a10.029,10.029,0,0,1,1,2.521c4.481,0,5.742-.321,5.742-3V6.633h-12.9Zm2.46-4.3h7.9v2.421h-7.9Zm0,4.7h7.9v2.4h-8.042C274.419,15.235,274.459,14.434,274.479,13.674ZM0,110H60V80H0ZM38.06,88.5l1.541.084c-.014.126-.1.2-.322.238v1.513h2V87.936l1.639.1c-.014.126-.1.2-.322.238v2.059h2.115V88.5c.434.014,1.148.07,1.583.084-.014.126-.1.2-.308.238v2.648H42.571l1.372.406c-.028.1-.14.154-.336.154-.14.322-.336.728-.532,1.121h3.18V94.2H43.117v1.009h2.675V96.2H43.117v1.037h2.675v.98H43.117v1.065h3.348v1.064H39.657v.631H38.383V95.22a9.177,9.177,0,0,1-1.107,1.19,6.672,6.672,0,0,0-.855-.952,10.615,10.615,0,0,0,2.718-3.992H38.06Zm-1.835-.588,1.5.5c-.056.112-.182.154-.364.14a27.5,27.5,0,0,1-1.121,2.662l.407.126c-.043.112-.127.2-.337.21v9.441H35.021V93.427a15.417,15.417,0,0,1-1.359,1.863,11.122,11.122,0,0,0-.616-1.317A18.179,18.179,0,0,0,36.225,87.908ZM14.7,99.184h5.574v-3h-4.23V94.912h4.23V92.138h-4.9v-1.3h7.074A22.649,22.649,0,0,0,18.129,88.8l.939-1.05a24.5,24.5,0,0,1,4.468,1.961l-.966,1.12h4.1v1.3H21.687v2.774H26.03v1.274H21.687v3H27.36v1.3H14.7ZM40.716,51.956H44.89v-.939H40.716ZM301.16,24.276h2.48v-1.32h8.6v1.3h2.581V6.873H301.16Zm2.48-14.983h8.6v4.381h-8.6Zm0,6.762h8.6v4.481h-8.6ZM20.973,49.141a13.424,13.424,0,0,1-3.026,3.025H24.2A14.61,14.61,0,0,1,20.973,49.141ZM295.207,7.275a4.129,4.129,0,0,0-2.566-.856,4.372,4.372,0,0,0-2.526.774,5.091,5.091,0,0,0-1.763,2.174,7.4,7.4,0,0,0-.633,3.087,7.039,7.039,0,0,0,1.119,4.178A3.566,3.566,0,0,0,291.9,18.2a3.184,3.184,0,0,0,2.309-1.079,4.717,4.717,0,0,1-1.178,2.907,3.963,3.963,0,0,1-2.924,1.008h-.222v2.859h.34a6.607,6.607,0,0,0,5.431-2.5,10.827,10.827,0,0,0,1.916-6.814V13.368a9.993,9.993,0,0,0-.621-3.638A5.481,5.481,0,0,0,295.207,7.275Zm-.949,7.008q-.55,1.313-1.512,1.312a1.4,1.4,0,0,1-1.266-.85,4.952,4.952,0,0,1-.457-2.326,5.427,5.427,0,0,1,.44-2.3q.439-.944,1.154-.944t1.184.955a6.215,6.215,0,0,1,.457,2.631ZM0,70H60V40H0ZM26.926,56.13H20.258l.309.1c-.056.112-.183.168-.379.168a27.542,27.542,0,0,1-1.372,2.718c1.625-.042,3.446-.1,5.239-.154a19.237,19.237,0,0,0-1.737-1.793l1.148-.617a18.52,18.52,0,0,1,3.306,3.684l-1.219.757a11.223,11.223,0,0,0-.63-.953c-3.278.182-6.724.337-8.909.435a.284.284,0,0,1-.238.21l-.476-1.5c.588-.014,1.289-.014,2.059-.042a24.425,24.425,0,0,0,1.373-3.012H15.2V54.884H26.926Zm12.6-7.9h6.6v4.679h-6.6ZM34.2,52.11V50.849h1.555v-3l1.569.1c-.014.112-.1.182-.322.21v2.689h1.442V52.11H37v3.824l1.358-.574c.029.056.029.112.267,1.148A8.028,8.028,0,0,0,40,54.729H38.138V53.6h8.993v1.134H41.318a9.515,9.515,0,0,1-.518.883h5.07l.267-.028.714.112a3.032,3.032,0,0,1-.056.35c-.224,2.914-.448,4.048-.826,4.455-.407.448-.8.476-2.3.434a2.642,2.642,0,0,0-.294-1.079c.49.042.925.056,1.121.056a.465.465,0,0,0,.42-.154c.238-.238.42-1.064.588-3.081h-.924a9.955,9.955,0,0,1-2.62,4.4,3.96,3.96,0,0,0-.952-.77A8.12,8.12,0,0,0,43.5,56.677H42.369a11.235,11.235,0,0,1-3.292,3.81,4.411,4.411,0,0,0-.9-.8,9.091,9.091,0,0,0,3.012-3.011h-1.2A8.68,8.68,0,0,1,38.138,58.3a7.411,7.411,0,0,0-.84-.77,6.336,6.336,0,0,0,1.317-1.009v-.014c-1.429.7-2.942,1.415-3.937,1.863a.27.27,0,0,1-.182.253l-.574-1.457c.5-.182,1.135-.434,1.835-.729V52.11Zm-13.93-4.286,1.835.1a.379.379,0,0,1-.322.238,14.494,14.494,0,0,0,5.939,4.4,7.224,7.224,0,0,0-.854,1.2,18.216,18.216,0,0,1-2.521-1.485V53.4h-6.7V52.376a17.165,17.165,0,0,1-2.479,1.5,5.673,5.673,0,0,0-.785-1.093A14.517,14.517,0,0,0,20.272,47.824Zm81.1-1.711-3.16-.18v15.2H90.973v2.42h18.384v-2.42H100.8V54.154h7.142v-2.44H100.8v-5.2C101.2,46.453,101.355,46.313,101.375,46.113Zm10.342-36.19A1.455,1.455,0,0,1,113,9.173a1.248,1.248,0,0,1,1.131.645,3.416,3.416,0,0,1,.393,1.781,4.285,4.285,0,0,1-.416,1.764,12.824,12.824,0,0,1-1.3,2.138L108.2,21.372v2.344H118.25V20.962h-5.8l2.191-3.129a17.979,17.979,0,0,0,2.526-3.65,6.843,6.843,0,0,0,.7-2.924,4.842,4.842,0,0,0-1.26-3.58,4.792,4.792,0,0,0-3.545-1.26,5.009,5.009,0,0,0-2.666.721,4.858,4.858,0,0,0-1.828,2.021,6.329,6.329,0,0,0-.65,2.872h3.328A3.947,3.947,0,0,1,111.717,9.923Zm223.938,3.822h5.282v-1.9h-6.05v-3.3c.3-.048.432-.144.448-.32l-2.5-.128V11.84H326.8v1.9h5.2a15.449,15.449,0,0,1-5.826,6.274,10.579,10.579,0,0,1,1.425,1.633,16.908,16.908,0,0,0,5.234-5.666v7.2h2.049v-7.3a18.213,18.213,0,0,0,5.218,5.666,8.8,8.8,0,0,1,1.472-1.7A16.228,16.228,0,0,1,335.655,13.745ZM99.629,9.923a1.456,1.456,0,0,1,1.284-.75,1.251,1.251,0,0,1,1.131.645,3.426,3.426,0,0,1,.392,1.781,4.285,4.285,0,0,1-.416,1.764,12.824,12.824,0,0,1-1.3,2.138l-4.617,5.871v2.344h10.055V20.962h-5.8l2.191-3.129a17.979,17.979,0,0,0,2.526-3.65,6.843,6.843,0,0,0,.7-2.924,4.842,4.842,0,0,0-1.26-3.58,4.792,4.792,0,0,0-3.545-1.26,5.009,5.009,0,0,0-2.666.721,4.858,4.858,0,0,0-1.828,2.021,6.342,6.342,0,0,0-.65,2.872h3.328A3.947,3.947,0,0,1,99.629,9.923ZM45.247,9.715H42.7v2.031h2.549ZM145.333,23.951a4.627,4.627,0,0,0,2.584-.745,4.93,4.93,0,0,0,1.775-2.091,7.031,7.031,0,0,0,.633-3.024,7.219,7.219,0,0,0-1.108-4.219,3.442,3.442,0,0,0-2.959-1.582,3.405,3.405,0,0,0-2.672,1.219,5.107,5.107,0,0,1,1.331-3.1,4.008,4.008,0,0,1,2.958-1.12h.188V6.478h-.516a6.8,6.8,0,0,0-3.9,1.154A7.183,7.183,0,0,0,141.1,10.9a12.769,12.769,0,0,0-.885,4.945v1.231a8.153,8.153,0,0,0,1.4,5.015A4.427,4.427,0,0,0,145.333,23.951Zm-1.817-7.545a2.472,2.472,0,0,1,.639-.986,1.49,1.49,0,0,1,2.367.464,4.439,4.439,0,0,1,.5,2.236,4.525,4.525,0,0,1-.48,2.214A1.36,1.36,0,0,1,144,20.3a5.873,5.873,0,0,1-.481-2.7Zm177.419-.772a10.332,10.332,0,0,0,2.994,7.555h1.488v-.08a9.9,9.9,0,0,1-3.169-7.475,9.945,9.945,0,0,1,3.169-7.475v-.08h-1.488A10.329,10.329,0,0,0,320.935,15.634ZM124.807,10.253h4.4v2.441h-5.9v5.281h-3.2v2.341h9.1v4.241h2.48V20.316h6.9V17.975h-6.9v-3.04h5.341V12.694h-5.341V10.253h5.781V7.933H126.047c.18-.4.36-.78.52-1.18a.544.544,0,0,0,.56-.24l-2.9-.9a16.774,16.774,0,0,1-4.3,6.8,14.03,14.03,0,0,1,1.92,1.64A18.247,18.247,0,0,0,124.807,10.253Zm4.4,7.722h-3.5v-3.04h3.5ZM343.8,8.079h-1.489v.08a9.9,9.9,0,0,1,3.17,7.475,9.945,9.945,0,0,1-3.17,7.475v.08H343.8a10.269,10.269,0,0,0,2.993-7.555A10.266,10.266,0,0,0,343.8,8.079ZM39.657,95.206h2.185V94.2H39.657ZM88.936,23.951A4.173,4.173,0,0,0,92.6,22.076a9.556,9.556,0,0,0,1.283-5.415V13.556a9.366,9.366,0,0,0-1.3-5.285,4.545,4.545,0,0,0-7.336.018,9.531,9.531,0,0,0-1.278,5.4v3.223a9.228,9.228,0,0,0,1.33,5.22A4.19,4.19,0,0,0,88.936,23.951ZM87.272,12.865q.058-3.691,1.641-3.692a1.329,1.329,0,0,1,1.242,1.008,8.7,8.7,0,0,1,.4,3.023v4.161a8.2,8.2,0,0,1-.416,2.888,1.287,1.287,0,0,1-1.2.944,1.345,1.345,0,0,1-1.26-1.008,8.761,8.761,0,0,1-.4-3.071ZM40.315,91.956c-.168.392-.364.8-.574,1.191h2.073a13.679,13.679,0,0,0,.6-1.681H39.573l1.093.35A.347.347,0,0,1,40.315,91.956Zm-.658,5.281h2.185V96.2H39.657Zm0,2.045h2.185V98.217H39.657ZM75.646,9.923a1.454,1.454,0,0,1,1.283-.75,1.251,1.251,0,0,1,1.131.645,3.417,3.417,0,0,1,.392,1.781,4.269,4.269,0,0,1-.416,1.764A12.878,12.878,0,0,1,76.742,15.5l-4.618,5.871v2.344H82.179V20.962h-5.8l2.192-3.129a18.008,18.008,0,0,0,2.525-3.65,6.828,6.828,0,0,0,.7-2.924,4.846,4.846,0,0,0-1.259-3.58,4.794,4.794,0,0,0-3.545-1.26,5.007,5.007,0,0,0-2.666.721,4.853,4.853,0,0,0-1.829,2.021,6.342,6.342,0,0,0-.65,2.872h3.328A3.938,3.938,0,0,1,75.646,9.923Zm-30.4,3.013H42.7v.729c0,.42-.014.868-.028,1.331h2.577Zm70.761,42.4a14.4,14.4,0,0,0-2.32-.941,18.061,18.061,0,0,1-3.081,5.762,9.2,9.2,0,0,0,2.341,1.18A27.305,27.305,0,0,0,116.008,55.335Zm-.269,39.159v-.08a3.517,3.517,0,0,0,2.46-3.32,3.4,3.4,0,0,0-1.5-2.9,7.1,7.1,0,0,0-4.241-.98,21.951,21.951,0,0,0-3.9.32v15.123a24.213,24.213,0,0,0,3.281.2c2.741,0,4.461-.5,5.5-1.44a4.226,4.226,0,0,0,1.4-3.161A3.8,3.8,0,0,0,115.739,94.494ZM111.5,89.513a6.092,6.092,0,0,1,1.3-.1c1.321,0,2.461.5,2.461,2.021,0,1.26-1,2.16-2.681,2.16H111.5Zm1.18,11.123a6.136,6.136,0,0,1-1.18-.08v-4.8h1.1c1.521,0,3.041.64,3.041,2.42C115.639,99.916,114.279,100.636,112.678,100.636Zm-6.733-13.123a.748.748,0,0,0,.26-.3l-1.6-.7-.4.1H95.9v2.14h2.58l-1.54.44a11.79,11.79,0,0,0,2.2,3.341,14.306,14.306,0,0,1-3.781,1.66,7.744,7.744,0,0,1,1.3,1.921,17.6,17.6,0,0,0,4.241-2.021,13.918,13.918,0,0,0,4.581,2.041,9.611,9.611,0,0,1,1.44-2,13.439,13.439,0,0,1-4.181-1.52A12.272,12.272,0,0,0,105.945,87.513Zm-5.081,3.7a8.739,8.739,0,0,1-1.82-2.461h3.78A10.121,10.121,0,0,1,100.864,91.214Zm82.822-66.938h2.481v-1.32h8.6v1.3h2.58V6.873H183.686Zm2.481-14.983h8.6v4.381h-8.6Zm0,6.762h8.6v4.481h-8.6Zm17.295-.421a10.336,10.336,0,0,0,2.993,7.555h1.489v-.08a9.9,9.9,0,0,1-3.169-7.475,9.941,9.941,0,0,1,3.169-7.475v-.08h-1.489A10.332,10.332,0,0,0,203.462,15.634ZM102.184,99.555h3.6V97.4h-3.6v-1.84c.36-.08.5-.2.52-.4L99.8,95v2.4H96.483v2.16H99.8V101.9H95.463v2.14h11.262V101.9h-4.541Zm18.825-46.9c2.3-.02,4.382-.04,4.982-.04.58,0,1.2,0,1.74.02.02-.56-.04-1.9-.1-2.48-.46.019-1.4.06-1.86.06-.44,0-2.461.039-4.742.059.02-1.32.081-2.54.1-3.16a20.808,20.808,0,0,0-2.721-.12,27.082,27.082,0,0,1,.12,3.3c-2.4.021-4.6.041-5.121.021-.68-.021-1.24-.021-1.84-.061a21.177,21.177,0,0,0,.2,2.5c.54-.02,1.36-.02,1.92-.02l4.841-.06c0,1.98.04,7.062.02,7.842-.02.56-.24.72-.74.72a10.889,10.889,0,0,1-2.561-.44,14.956,14.956,0,0,0,.36,2.64,21.388,21.388,0,0,0,3.341.3c1.42,0,2.1-.7,2.1-1.88C121.049,60.316,121.009,54.894,121.009,52.654Zm29.837-3.961a17.285,17.285,0,0,1,.16,2.581c0,4.561-.14,6.841-2.24,9.022a6.728,6.728,0,0,1-1.341,1.04,8.208,8.208,0,0,0,2.381,1.94c4.181-3.7,3.861-7.041,3.861-14.383A22.308,22.308,0,0,0,150.846,48.693Zm13.443,5.241c-1.06,2.661-3.141,4.921-5,5.6,0-2.12.1-9.522.22-10.982a23.851,23.851,0,0,0-2.8-.26c.04.5.08,1.12.08,1.78.04,3.041-.06,8.682-.1,10.5a5.567,5.567,0,0,1-.16,1.28,12.856,12.856,0,0,0,1.581,1.26c.32-.14.6-.26.9-.36a13.437,13.437,0,0,0,7.061-6.5A8.327,8.327,0,0,0,164.289,53.934ZM94.8,97.415,93.022,98a24.4,24.4,0,0,1,1.2,3.961l1.86-.66A24.345,24.345,0,0,0,94.8,97.415Zm83.081-82.488a4.1,4.1,0,0,0,1.453-1.535,4.511,4.511,0,0,0,.527-2.2A4.794,4.794,0,0,0,178.622,7.7a5.1,5.1,0,0,0-6.738-.012,4.758,4.758,0,0,0-1.254,3.5,4.5,4.5,0,0,0,.527,2.2,4.066,4.066,0,0,0,1.465,1.535,4.285,4.285,0,0,0-1.676,1.641,4.856,4.856,0,0,0-.609,2.472,4.816,4.816,0,0,0,1.336,3.592,4.9,4.9,0,0,0,3.6,1.319,4.817,4.817,0,0,0,3.574-1.319,4.866,4.866,0,0,0,1.313-3.592,4.823,4.823,0,0,0-.609-2.466A4.415,4.415,0,0,0,177.884,14.927Zm-3.6-5.174a1.1,1.1,0,0,1,1.951.018,3.363,3.363,0,0,1,.322,1.594,3.558,3.558,0,0,1-.316,1.623,1.031,1.031,0,0,1-.973.615,1.054,1.054,0,0,1-.984-.615,3.447,3.447,0,0,1-.328-1.623A3.294,3.294,0,0,1,174.286,9.753Zm2.139,10.805a1.29,1.29,0,0,1-1.155.639,1.353,1.353,0,0,1-1.189-.639,3.159,3.159,0,0,1-.428-1.775A3.191,3.191,0,0,1,174.081,17a1.332,1.332,0,0,1,1.166-.644,1.318,1.318,0,0,1,1.16.644,3.235,3.235,0,0,1,.422,1.782A3.316,3.316,0,0,1,176.425,20.558ZM123.17,55.4a19.3,19.3,0,0,1,2.821,6.021,8.372,8.372,0,0,0,2.44-1.04,26.182,26.182,0,0,0-3.061-5.982A12.158,12.158,0,0,0,123.17,55.4Zm10.136-1.361c-1.08,0-2.56-.08-3.22-.14a19.751,19.751,0,0,0,.2,2.961c2.7.02,13.383-.14,16.4-.02a17.608,17.608,0,0,0-.1-2.921C144.289,53.954,137.787,54.034,133.306,54.034ZM20.973,9.141a13.424,13.424,0,0,1-3.026,3.025H24.2A14.61,14.61,0,0,1,20.973,9.141Zm225.3,6.554a3.658,3.658,0,0,1-2.981-1.441,6.053,6.053,0,0,0-4.721-2.2c-2.14,0-4.1,1.2-5.441,3.681l2.2,1.2a3.909,3.909,0,0,1,3.181-2.4,3.692,3.692,0,0,1,2.981,1.441,6.052,6.052,0,0,0,4.721,2.2c2.14,0,4.1-1.2,5.441-3.681l-2.2-1.2A3.908,3.908,0,0,1,246.269,15.7ZM36.366,11.9h2.228V10.793H36.366Zm117.987,1.374c0,3.1-.28,6.962-3.661,9.542a10.208,10.208,0,0,1,1.821,1.781,10.688,10.688,0,0,0,3.76-6.2h8.442v3.1c0,.58-.14.58-1.46.58-.74,0-1.8,0-2.741-.06a10.032,10.032,0,0,1,1,2.521c4.481,0,5.741-.321,5.741-3V6.633h-12.9Zm2.461-4.3h7.9v2.421h-7.9Zm0,4.7h7.9v2.4h-8.041C156.754,15.235,156.794,14.434,156.814,13.674Zm-120.448.411h2.228V12.936H36.366Zm227.558-1.8a3.405,3.405,0,0,0-2.672,1.219,5.112,5.112,0,0,1,1.33-3.1,4.012,4.012,0,0,1,2.959-1.12h.188V6.478h-.516a6.8,6.8,0,0,0-3.9,1.154,7.176,7.176,0,0,0-2.555,3.264,12.769,12.769,0,0,0-.885,4.945v1.231a8.153,8.153,0,0,0,1.4,5.015A4.425,4.425,0,0,0,263,23.951a4.622,4.622,0,0,0,2.584-.745,4.925,4.925,0,0,0,1.776-2.091,7.031,7.031,0,0,0,.633-3.024,7.226,7.226,0,0,0-1.108-4.219A3.442,3.442,0,0,0,263.924,12.29Zm.281,8.044a1.36,1.36,0,0,1-2.543-.03,5.888,5.888,0,0,1-.48-2.7v-1.2a2.461,2.461,0,0,1,.639-.986,1.49,1.49,0,0,1,2.367.464,4.439,4.439,0,0,1,.5,2.236A4.513,4.513,0,0,1,264.205,20.334ZM36.366,16.368h2.228V15.122H36.366ZM215.22,12.56l-1.328-.576-.352.08H209.2V14h3.489a10.536,10.536,0,0,1-4.017,6.323,7.2,7.2,0,0,1,1.6,1.52c2.289-1.7,4-4.946,4.738-8.979A.583.583,0,0,0,215.22,12.56ZM89.675,62.436a9.245,9.245,0,0,1-5.5-8v-3h2.461c-.24,1.26-.541,2.56-.781,3.441l2.081.6a45.558,45.558,0,0,0,1.58-6.262l-1.38-.1-.48.02h-6.4c.221-.82.4-1.66.561-2.48.28,0,.46-.12.5-.28l-2.9-.66a28.621,28.621,0,0,1-2.08,7.6V47.333H71.251V60.716h2.161v-1.8h3.921v-4.1a11.648,11.648,0,0,1,1.42.94,21.408,21.408,0,0,0,1.86-4.321h1.121v3a9.273,9.273,0,0,1-5.942,8.1,11.449,11.449,0,0,1,1.441,2.041A10.591,10.591,0,0,0,82.954,58.1a10.657,10.657,0,0,0,5.221,6.482A17.19,17.19,0,0,1,89.675,62.436ZM75.172,56.7h-1.76V49.553h1.76ZM94.3,97.275l1.86-.82a16.967,16.967,0,0,0-1.88-4.281l-1.721.72a15.756,15.756,0,0,1,.76,1.54l-2.08.02a47.638,47.638,0,0,0,3.621-5.141.666.666,0,0,0,.56-.22l-2.261-1.02c-.48,1-1.14,2.16-1.84,3.3-.2-.26-.44-.54-.68-.82a33.871,33.871,0,0,0,2.02-3.7.649.649,0,0,0,.54-.2l-2.34-.96a27.383,27.383,0,0,1-1.521,3.52l-.44-.4-1.16,1.641a16.671,16.671,0,0,1,2.361,2.74c-.32.46-.66.9-.981,1.3h-1.44l.48,2.4a.419.419,0,0,0,.36-.3c.66-.02,1.461-.06,2.361-.12v1.56L88.6,97.5a17.607,17.607,0,0,1-.98,4.7,16.568,16.568,0,0,1,1.681.84,18,18,0,0,0,1.16-4.781.426.426,0,0,0,.42-.16v6.462h2.1v-8.2l1.06-.08A8.1,8.1,0,0,1,94.3,97.275ZM219.446,15.794a32.4,32.4,0,0,0,3.89-3.57.632.632,0,0,0,.528-.128l-2-1.488a24.024,24.024,0,0,1-3.249,3.569,20.275,20.275,0,0,1-1.137-3.233V8.527c.3-.032.416-.144.432-.32L215.428,8.1v12.6c0,.4-.063.4-1.12.4-.48,0-1.088,0-1.729-.032a7.622,7.622,0,0,1,.753,2.145c3.425,0,4.145-.528,4.145-2.513v-4.77a12.441,12.441,0,0,0,5.138,6.1,8.146,8.146,0,0,1,1.489-1.792A10.915,10.915,0,0,1,219.446,15.794ZM71.312,104.276h2.48v-1.32h8.6v1.3h2.581V86.873H71.312Zm2.48-14.983h8.6v4.381h-8.6Zm0,6.762h8.6v4.481h-8.6ZM224.834,8.079v.08A9.9,9.9,0,0,1,228,15.634a9.948,9.948,0,0,1-3.169,7.475v.08h1.488a10.27,10.27,0,0,0,2.994-7.555,10.266,10.266,0,0,0-2.994-7.555ZM0,30H60V0H0ZM26.926,16.13H20.258l.309.1c-.056.112-.183.168-.379.168a27.542,27.542,0,0,1-1.372,2.718c1.625-.042,3.446-.1,5.239-.154a19.237,19.237,0,0,0-1.737-1.793l1.148-.617a18.52,18.52,0,0,1,3.306,3.684l-1.219.757a11.223,11.223,0,0,0-.63-.953c-3.278.182-6.724.337-8.909.435a.284.284,0,0,1-.238.21l-.476-1.5c.588-.014,1.289-.014,2.059-.042a24.425,24.425,0,0,0,1.373-3.012H15.2V14.884H26.926Zm9.917,2.241a9.549,9.549,0,0,1-1.989,2.592,6.722,6.722,0,0,0-.995-.757,7.429,7.429,0,0,0,1.849-2.451l1.457.49C37.123,18.344,37.025,18.385,36.843,18.371ZM41.437,8.51h5.1V19.422c0,1.317-.5,1.569-2.773,1.541a4.988,4.988,0,0,0-.393-1.275c.406.028.827.028,1.149.028.658,0,.728,0,.728-.294V16.2H42.572a9.683,9.683,0,0,1-1.611,4.819,4.766,4.766,0,0,0-1.037-.771l.112-.154-.588.337a12.176,12.176,0,0,0-1.485-2.158l1.023-.56a15.8,15.8,0,0,1,1.387,1.821,12.555,12.555,0,0,0,1.064-5.869Zm-7.606,7.858h1.331V10.793H34V9.631h1.163V7.992l1.527.1c-.014.112-.112.182-.323.224V9.631h2.228V7.992l1.54.1c-.014.112-.1.2-.308.224V9.631h1.009v1.162H39.826v5.575h1.079v1.163H33.831ZM20.272,7.824l1.835.1a.379.379,0,0,1-.322.238,14.494,14.494,0,0,0,5.939,4.4,7.224,7.224,0,0,0-.854,1.205,18.216,18.216,0,0,1-2.521-1.485V13.4h-6.7V12.376a17.165,17.165,0,0,1-2.479,1.5,5.673,5.673,0,0,0-.785-1.093A14.517,14.517,0,0,0,20.272,7.824ZM124.828,87.213a21.917,21.917,0,0,0-3.981.32v15.183h2.941V96.955a5.667,5.667,0,0,0,1.08.08c2.3,0,5.822-.94,5.822-5.161a4.458,4.458,0,0,0-1.481-3.441A6.58,6.58,0,0,0,124.828,87.213Zm0,7.5a4.982,4.982,0,0,1-1.04-.08v-5a5.814,5.814,0,0,1,1.28-.12,2.367,2.367,0,0,1,2.681,2.5A2.6,2.6,0,0,1,124.828,94.714Z"/></g></g></svg>