<svg id="レイヤー_1" data-name="レイヤー 1" xmlns="http://www.w3.org/2000/svg" xmlns:xlink="http://www.w3.org/1999/xlink" width="901.94" height="70.87" viewBox="0 0 901.94 70.87"><defs><style>.cls-1{fill:none;}.cls-2{fill:#f18d1e;}.cls-3{clip-path:url(#clip-path);}.cls-4{fill:#fff;}</style><clipPath id="clip-path" transform="translate(0 0)"><rect class="cls-1" width="901.94" height="70.87"/></clipPath></defs><rect class="cls-2" width="130.39" height="70.87"/><g class="cls-3"><path class="cls-4" d="M14.21,29.29A25,25,0,0,0,27.39,18.87l3.12.78c-.53.85-.82,1.31-1.67,2.48H42.06v2.66a33.72,33.72,0,0,1-11.84,12H44.89V51.32H22.78V40.69a52.86,52.86,0,0,1-8.46,2.8l-1.1-3a44.07,44.07,0,0,0,14.52-5.42,46,46,0,0,0-6.83-5.77,27.61,27.61,0,0,1-5.28,2.65Zm12.26-4.5c-1.7,1.63-2.77,2.48-3.26,2.87a45.32,45.32,0,0,1,7.09,5.77,29.06,29.06,0,0,0,8.25-8.64Zm15.45,14.7H25.65v9.14H41.92Z" transform="translate(0 0)"/><path class="cls-4" d="M63.89,24.57V19.12h3v5.45h15v2.87h-15v6.77H78.34v17H52.51v-17H63.89V27.44H49V24.57Zm-8.4,23.92H75.36V36.94H55.49Z" transform="translate(0 0)"/><path class="cls-4" d="M101.91,39.24c-5.07.14-9.75.29-10.1.29l-.32-2.66c.6,0,2.41,0,3.19,0a18.41,18.41,0,0,0,2.41-4.18H90.35v1.06C90.35,45.27,88,49.52,86.6,52l-2.55-2.2c1.2-2.09,3.33-5.77,3.33-16.12V20.18h27.78V27.8H90.35v2.37h26.83v2.48h-7a51,51,0,0,1,5.92,6.45l-2.34,1.67c-.46-.64-.57-.78-1.63-2.17-1.59.15-4,.39-7.3.5v3.22h10.77v2.41H104.81v4h12.37v2.48h-27V48.77h11.73v-4h-10V42.32h10Zm10.34-16.83H90.35v3.12h21.9Zm-2.12,10.24h-9.75a42.58,42.58,0,0,1-2.55,4.15c7.44-.07,8.68-.07,12.44-.39a23.78,23.78,0,0,0-2.34-2.31Z" transform="translate(0 0)"/><path d="M182.9,36.65c-2.56,18.56-16,26.22-31.62,28.08a.87.87,0,0,1-1-.86V55.5a.85.85,0,0,1,.74-.84c12-1.82,18.62-8.33,20-18H145.43a.86.86,0,0,1-.86-.87v-8a.85.85,0,0,1,.84-.85h55.38a.87.87,0,0,1,.87.87v8a.87.87,0,0,1-.87.87Zm15.25-22.52v4.68a.87.87,0,0,1-.87.87h-48a.87.87,0,0,1-.86-.87V10.72a.87.87,0,0,1,.86-.87H187.5v-4a.87.87,0,0,1,.87-.87H193a.87.87,0,0,1,.87.87v4h2.29v-4a.87.87,0,0,1,.87-.87h4.64a.87.87,0,0,1,.87.87v7.45a.87.87,0,0,1-.87.87Z" transform="translate(0 0)"/><path d="M208.55,36.86V28.64a.82.82,0,0,1,.85-.83c8.33.28,19.09,1.17,27.33,2.23a.83.83,0,0,1,.72.83v8.28a.83.83,0,0,1-.92.83c-8.68-1.07-19.41-2.06-27.19-2.29a.82.82,0,0,1-.79-.83m.64-18.43V10.27a.83.83,0,0,1,.85-.84c8.15.28,18.69,1.11,27.32,2.12a.83.83,0,0,1,.73.83v8.4a.83.83,0,0,1-.92.83c-8.37-1-19.4-2.06-27.19-2.35a.82.82,0,0,1-.79-.83M210,63.31V54.58a.88.88,0,0,1,.85-.87c26.07-.91,38.66-9.56,41.18-34.23a.84.84,0,0,1,.83-.76h9.55a.86.86,0,0,1,.85.93c-2.7,32.51-22.28,44-52.36,44.54a.89.89,0,0,1-.9-.88m37.51-47.75V8a.87.87,0,0,1,.86-.86h4.6a.87.87,0,0,1,.86.86v7.53a.86.86,0,0,1-.86.86h-4.6a.86.86,0,0,1-.86-.86m8.61,0V8a.87.87,0,0,1,.86-.86h4.6a.87.87,0,0,1,.86.86v7.53a.86.86,0,0,1-.86.86h-4.6a.86.86,0,0,1-.86-.86" transform="translate(0 0)"/><path d="M277,54.86c13.17-1.73,22.25-6.17,28.13-13.3a225.77,225.77,0,0,0-23.86-3.82.84.84,0,0,1-.76-.84V30.59a37.51,37.51,0,0,1-10.85,7.53.87.87,0,0,1-1.21-.8V28.05a.84.84,0,0,1,.4-.71c5.37-3.42,10.07-9.8,12.61-17.1a.85.85,0,0,1,.8-.58h42.05c.47,0,.85.23.85.51v.51c-.69,28.34-11.29,50.9-48,54a.88.88,0,0,1-.95-.87V55.71a.86.86,0,0,1,.76-.85m11.68-35.37a47.33,47.33,0,0,1-6,8.74,243.44,243.44,0,0,1,27.68,4.4,55.11,55.11,0,0,0,3.19-13.14Z" transform="translate(0 0)"/><path d="M327.29,64.55V54.22a.79.79,0,0,1,.26-.59c4.53-4.33,8-10.59,8-26.49v-17a.83.83,0,0,1,.83-.83h8.73a.84.84,0,0,1,.84.83V26.44c0,23.19-7,32.75-17.38,38.83a.83.83,0,0,1-1.25-.72m25-.8V10.05a.83.83,0,0,1,.83-.83h8.73a.83.83,0,0,1,.83.83v41.2c8.34-2.67,12-13.37,12.71-23.84a.83.83,0,0,1,.83-.78H385a.85.85,0,0,1,.84.88c-1,22.43-11.49,35.63-32.61,37.08a.84.84,0,0,1-.9-.84" transform="translate(0 0)"/><path d="M429.56,30.71V65.08a.84.84,0,0,1-.84.84h-9.54a.84.84,0,0,1-.84-.84V36.58a114.57,114.57,0,0,1-25.57,6.75.85.85,0,0,1-1-.85V34a.86.86,0,0,1,.7-.83C418.57,28.51,430,19.05,434.77,8.68a.84.84,0,0,1,.75-.49h10.05a.86.86,0,0,1,.82,1.11c-3,9.44-9.15,16.32-16.83,21.41" transform="translate(0 0)"/><path d="M441.56,63.16v-8.8a.82.82,0,0,1,.6-.79c21-6,33.17-20.23,36-43.37a.83.83,0,0,1,.82-.73h10a.85.85,0,0,1,.83.95C486.22,40.28,469.39,58.07,442.58,64a.84.84,0,0,1-1-.82" transform="translate(0 0)"/><path d="M527.29,36.26C521.1,23.76,520.2,23,515.42,23h-2.1l-6.45,15.25c-2.61,7-6.83,10.67-13.22,11.78a.87.87,0,0,1-1-.86V40.35a.85.85,0,0,1,.46-.75c2-1.15,3.46-3.27,4.71-6.65l7.88-19.81a.86.86,0,0,1,.8-.54h8c11.23,0,14.29,1.66,21.69,16.71,5.22,10.68,10.37,20.52,17,23.27a.83.83,0,0,1,.54.77v8.7c0,1.16-.49,1.57-1,1.47-11.07-2.15-18-12.09-25.45-27.26m5.35-18.57V9.93a.84.84,0,0,1,.84-.84h5a.84.84,0,0,1,.84.84v7.76a.85.85,0,0,1-.84.84h-5a.85.85,0,0,1-.84-.84m8.94,0V9.93a.83.83,0,0,1,.84-.84h5a.84.84,0,0,1,.84.84v7.76a.85.85,0,0,1-.84.84h-5a.84.84,0,0,1-.84-.84" transform="translate(0 0)"/><path d="M552.53,37.77V29.33a.85.85,0,0,1,.86-.85h49.34a.86.86,0,0,1,.86.85v8.44a.86.86,0,0,1-.86.85H553.39a.85.85,0,0,1-.86-.85" transform="translate(0 0)"/><path d="M611.93,36.83V28.67a.84.84,0,0,1,.87-.86c8.32.28,19.05,1.16,27.28,2.23a.85.85,0,0,1,.74.85v8.23a.85.85,0,0,1-1,.85c-8.66-1.06-19.36-2-27.12-2.28a.85.85,0,0,1-.82-.86m.63-18.43V10.29a.86.86,0,0,1,.88-.86c8.14.29,18.65,1.11,27.27,2.12a.85.85,0,0,1,.75.85v8.35a.85.85,0,0,1-1,.85c-8.35-1-19.35-2.05-27.13-2.34a.85.85,0,0,1-.82-.86m.77,44.92V54.57a.86.86,0,0,1,.83-.86c26.08-.91,38.67-9.56,41.19-34.21a.86.86,0,0,1,.85-.78h9.52a.87.87,0,0,1,.86.94c-2.7,32.51-22.28,43.94-52.37,44.53a.87.87,0,0,1-.88-.87" transform="translate(0 0)"/><path d="M675.34,62.92V55.21a.83.83,0,0,1,.83-.83h33.42V44.55H677a.83.83,0,0,1-.83-.83V36.14a.84.84,0,0,1,.83-.84h32.59V26.76H676.17a.84.84,0,0,1-.83-.84V18.28a.84.84,0,0,1,.83-.84h43.11a.85.85,0,0,1,.84.84V62.92a.84.84,0,0,1-.84.83H676.17a.83.83,0,0,1-.83-.83" transform="translate(0 0)"/><path d="M730.4,19.9V11.15a.86.86,0,0,1,.9-.86,252.75,252.75,0,0,1,26.6,3.26.86.86,0,0,1,.7.85v9a.85.85,0,0,1-1,.84,237.12,237.12,0,0,0-26.4-3.51.84.84,0,0,1-.79-.85m.9,43.22V54.28a.85.85,0,0,1,.79-.85c22.84-1.74,37.21-8.45,39.76-33.3a.86.86,0,0,1,.85-.77h9.65a.87.87,0,0,1,.86.94c-2.56,30.52-20.49,42.59-51,43.68a.86.86,0,0,1-.9-.86" transform="translate(0 0)"/><path class="cls-2" d="M792.07,64.6V56.84l14.86-28a10,10,0,0,0,1.29-3.68,38.4,38.4,0,0,0,.17-3.92c0-.7,0-1.44,0-2.22a5.47,5.47,0,0,0-.45-2.06,3.48,3.48,0,0,0-3.55-2.1,4.08,4.08,0,0,0-3,1.05A4.07,4.07,0,0,0,800.31,19v4.69h-8.24V19.11a12.06,12.06,0,0,1,1-4.84,12.38,12.38,0,0,1,2.66-4,12.25,12.25,0,0,1,3.88-2.71,11.8,11.8,0,0,1,4.85-1A12.07,12.07,0,0,1,810,7.76,11,11,0,0,1,813.8,11a14,14,0,0,1,2.14,4.61,21.17,21.17,0,0,1,.69,5.49c0,1.4,0,2.57-.08,3.52a22.65,22.65,0,0,1-.33,2.7,12.24,12.24,0,0,1-.8,2.59c-.38.86-.89,1.91-1.54,3.15L801.76,56.36h14.87V64.6Z" transform="translate(0 0)"/><path class="cls-2" d="M820.5,19a12.62,12.62,0,0,1,1-5.17,12.25,12.25,0,0,1,2.71-3.88,11.67,11.67,0,0,1,3.92-2.46,13.12,13.12,0,0,1,9.29,0,11.67,11.67,0,0,1,3.92,2.46,12.07,12.07,0,0,1,2.7,3.88,12.62,12.62,0,0,1,1,5.17V52.72a12.62,12.62,0,0,1-1,5.17,12.07,12.07,0,0,1-2.7,3.88,11.51,11.51,0,0,1-3.92,2.46,13.12,13.12,0,0,1-9.29,0,11.51,11.51,0,0,1-3.92-2.46,12.25,12.25,0,0,1-2.71-3.88,12.62,12.62,0,0,1-1-5.17Zm8.24,33.77a4.08,4.08,0,0,0,1.13,3,4.2,4.2,0,0,0,5.82,0,4.08,4.08,0,0,0,1.13-3V19A4.1,4.1,0,0,0,835.69,16a4.2,4.2,0,0,0-5.82,0A4.1,4.1,0,0,0,828.74,19Z" transform="translate(0 0)"/><path class="cls-2" d="M848.94,64.6V56.84l14.87-28a10.36,10.36,0,0,0,1.29-3.68,38.78,38.78,0,0,0,.16-3.92c0-.7,0-1.44,0-2.22a5.67,5.67,0,0,0-.44-2.06,3.9,3.9,0,0,0-1.22-1.49,3.82,3.82,0,0,0-2.34-.61,4.08,4.08,0,0,0-3,1.05A4.11,4.11,0,0,0,857.18,19v4.69h-8.24V19.11a12.06,12.06,0,0,1,1-4.84,12.57,12.57,0,0,1,2.67-4,12.21,12.21,0,0,1,3.87-2.71,11.84,11.84,0,0,1,4.85-1,12.12,12.12,0,0,1,5.54,1.17A11.09,11.09,0,0,1,870.67,11a13.84,13.84,0,0,1,2.14,4.61,21.17,21.17,0,0,1,.69,5.49c0,1.4,0,2.57-.08,3.52a20.78,20.78,0,0,1-.32,2.7,12.28,12.28,0,0,1-.81,2.59c-.38.86-.89,1.91-1.54,3.15L858.64,56.36H873.5V64.6Z" transform="translate(0 0)"/><path class="cls-2" d="M877.38,64.6V56.84l14.86-28a10,10,0,0,0,1.29-3.68,38.4,38.4,0,0,0,.17-3.92c0-.7,0-1.44,0-2.22a5.47,5.47,0,0,0-.45-2.06,3.48,3.48,0,0,0-3.55-2.1,4.08,4.08,0,0,0-2.95,1.05A4.07,4.07,0,0,0,885.62,19v4.69h-8.24V19.11a12.06,12.06,0,0,1,1-4.84,12.38,12.38,0,0,1,2.66-4,12.25,12.25,0,0,1,3.88-2.71,11.8,11.8,0,0,1,4.85-1,12.07,12.07,0,0,1,5.53,1.17A11,11,0,0,1,899.11,11a14,14,0,0,1,2.14,4.61,21.17,21.17,0,0,1,.69,5.49c0,1.4,0,2.57-.08,3.52a22.65,22.65,0,0,1-.33,2.7,12.24,12.24,0,0,1-.8,2.59c-.38.86-.89,1.91-1.54,3.15L887.07,56.36h14.87V64.6Z" transform="translate(0 0)"/></g></svg>