<svg id="a" xmlns="http://www.w3.org/2000/svg" width="300" height="222.59" viewBox="0 0 300 222.59"><defs><style>.c{fill:#fff3f3}</style></defs><path d="m0,69.89c-.02,2.34,2.13,3.57,4.12,4.14,2.65.76,5.51.83,8.24.86,3.57.04,7.11.05,10.67.4,4.57.46,9.11,1.35,13.49,2.76,8.93,2.87,16.7,8,22.61,15.29,6.07,7.48,10.76,15.98,17.08,23.26.88,1.02,1.8,1.99,2.75,2.93-.99-.14-1.98-.27-2.97-.38-7.4-.83-15.33-1.31-22.25,1.96-3.73,1.76-6.65,4.65-9.21,7.82-2.56,3.17-4.84,6.56-6.82,10.12-3.93,7.07-6.69,14.81-8.1,22.78-.69,3.87-1.27,7.98-1.11,11.92.14,3.47,2.8,4.84,6,4.69,3.77-.18,7.65-1.24,11.28-2.21,3.95-1.05,7.83-2.33,11.67-3.7,15.18-5.4,30.46-12.71,46.89-12.85,2-.02,3.99.08,5.98.29.01,0,.02,0,.03,0,2.14.2,3.94.5,4.67.68,3.24,4.91,8.19,8.65,12.97,12.13,4.25,3.09,8.2,6.57,11.96,10.25,3.67,3.59,7.05,7.47,10.95,10.81,7.63,6.52,16.44,11.43,25.27,16.12,1.84.98,3.93,2.51,6.09,2.49,2.09-.02,4.16-1.52,5.86-2.59,3.67-2.3,7.02-5.12,9.93-8.31,5.9-6.48,10.26-14.68,11.84-23.34.44-2.41.5-4.79.11-7.1,2.45.91,4.99,1.58,7.52,2.12,13.08,2.8,26.52,3.59,39.79,4.98,6.5.68,12.96,1.61,19.42,2.6,5.96.91,11.52,2.31,16.59,5.7.81.54,1.61,1.18,2.34,1.89-.14,1.82-.28,3.64-.34,5.49-.05,1.32-.77,6.8,2,5.87,2.29-.77,2.88-4.58,2.59-6.6-.29-2.06-1.29-3.84-2.68-5.36.37-4.98.61-9.88-.74-14.84-1.58-5.8-4.5-11.18-7.69-16.23-2.83-4.47-6.27-8.55-10.2-12.09-10.85-9.79-24.51-15.02-38.75-17.1,2.09-1.65,4-3.52,5.73-5.63,3.03-3.69,5.69-7.71,9.35-10.83,3.28-2.79,7.57-5.32,11.86-6.09,2.28-.41,4.75-.06,7.05-.07,2.28-.01,4.88-.05,6.92-1.19,2.04-1.14,2.5-3.28,1.99-5.44-.91-3.9-3.39-7.37-5.89-10.41-2.73-3.32-5.83-6.3-8.91-9.28-6.57-6.36-13.88-11.86-22.27-15.6-8.68-3.87-17.86-5.42-27.34-4.84-9.74.59-19.31,3.01-28.5,6.18-1.65.57-3.49,1.05-4.74,2.33,0,0,0,0,0,0,0,0-3.13,2.2-4.69,3.98.23-.5.46-1,.71-1.49.39-.75.82-1.48,1.28-2.19.23-.34.46-.68.71-1.01.03-.03.06-.07.09-.1.07-.09.15-.17.22-.25,1.37-1.51,3.03-2.73,4.52-4.11,1.48-1.37,3.11-2.97,3.7-4.96.63-2.1-.53-3.94-2.25-5.1-.58-.39-1.25-.69-1.93-.94.29-.08.57-.18.83-.33,2.08-1.16,1.95-3.71,1.53-5.73-.66-3.17-2.15-6.23-3.67-9.06-2.35-4.35-5.26-8.43-8.64-12.03-6.39-6.79-14.34-12.19-22.35-16.88C149.65,3.18,143.75-.1,137.11,0c-3.35.05-6.66,1.05-9.4,3.02-3.48,2.51-5.86,6.2-7.48,10.12-2.15,5.19-2.62,10.86-4.42,16.16-1.79,5.26-4.86,9.97-6.5,15.3-.83,2.7-1.38,5.49-1.66,8.3-.22,2.15-.36,4.43-.03,6.61-.1-.09-.19-.19-.3-.27-3.71-3.2-7.9-5.67-12.28-7.83-4.85-2.4-9.91-4.39-15.05-6.1-5.25-1.75-10.61-3.32-16.03-4.43-5.47-1.13-11.13-1.74-16.7-1.06-5.29.64-10.33,2.42-15.16,4.62-4.78,2.18-9.46,4.67-13.95,7.4-4.32,2.63-8.47,5.6-12.11,9.11-1.66,1.6-3.32,3.31-4.62,5.22C.69,67.25.01,68.55,0,69.89Zm183.16-3.95s0,0,0,0c.04-.06.01-.01,0,0Z" fill="#fff"/><path class="c" d="m271.24,181.58c-7.22-21.12-34.66-27.19-55.33-23.55-7.42,2.05-12.47,7.18-17.94,12.05-7.11,6.14-13.89,12.63-21.17,18.58-.34.21-.68.42-1.02.62-.83-.46-1.64-.95-2.42-1.47-4.85-3.82-9.27-8.17-13.24-12.83-3.57-4.61-7.24-9.28-9.53-14.69-1.83-4.32-3.24-8.64-5.86-12.59-4.86-7.33-13.3-12.94-22.45-12.22-11.77.92-23.03,4.98-34.78,6.07,1.44-.19,2.88-.37,4.32-.55-8.51,1.09-17.08,1.64-25.66,1.7,2.06-3.64,4.39-7.13,6.96-10.47,3.13-4.06,7.55-8.92,11.99-11.61,13.07-7.93,18.73-24.22,6.59-35.52-5.16-5.37-42.08-19.25-49.07-17.26-18.58,1.8-20.33,27.68-2.32,32.27,4.28,1.14,8.52,2.41,12.72,3.81-13.8,13.75-23.59,31.14-27.81,49.73-2.15,7.07,1.3,15.09,8.02,18.72,27.01,7.14,56.54,2.96,83.95-2.6,11.09,24.22,36.61,57.41,65.05,52.3,9.99-1.99,18.43-8.73,25.87-15.32,4.06-3.6,7.96-7.39,11.94-11.08,2.94-2.72,5.61-4.98,9.77-5.19,2.74-.14,6.81-.41,8.51,2.26.74,1.16.48,3.42,1.33,4.84,3.1,5.14,10.46,7.9,16.23,7.8,7.92-.14,14.98-5.18,16.49-13.16.69-3.61.02-7.19-1.15-10.61Z"/><path d="m191.84,175.32c12.81-6.41,20.71-19.98,17.29-34.95-4.91-21.43-22.86-41.63-41.31-54.33-6.17-4.25-17.12-7.52-24.92-8.89-7.62-1.34-15.74-1.75-23.68-.42-16.7,2.81-28.41,15.5-25.49,30.94,3.68,15.81,14.8,29.99,26.06,41.58,12.29,12.66,27.98,24.99,46.86,29.05,9.19,1.98,17.97.64,25.2-2.97Z" fill="#fffad9"/><path class="c" d="m210.03,53.61c.54-20.88-32.68-12.76-43.57-8.95-11.23,3.93-29.07,8.25-35.33,19.53-4.33,7.81-2.62,20.87,5.88,25.36,5.54,2.92,12.03,3.34,17.83,5.55,8.55,2.18,16.8,5.9,25.76,6.34,8.29.05,15.64-4.88,18.89-11.63,5.27-11.53,10.21-23.6,10.54-36.2Z"/><path d="m153.2,98.05c-2.12,5.29-4.56,10.46-6.96,15.63-2.81,6.06-5.81,12.03-8.85,17.98-.86,1.69-1.84,3.38-2.52,5.15-.48,1.26-.24,2.7.28,3.91.34.78.81,1.55,1.41,2.17.42.43,1.27.94,1.37,1.51.03.16-.04.32-.04.49,0-.07,0,.13,0,.03,0-.04.19.1-.03,0-.02,0,.13.05.05.03.01.01.02.03.03.04.04.05.04.05,0,0-.02,0-.05-.2,0,.04-.02-.07-.04-.13-.06-.2-.01-.04-.02-.09-.03-.13-.02-.12.01.18,0-.05-.08-.99.08-2,.26-2.97.3-1.64.71-3.23,1.32-4.79.97-2.48,2.14-4.88,3.35-7.25,1.59-3.12,3.29-6.19,5.11-9.18,3.64-6,7.84-11.63,12.22-17.11,1.3-1.62,2.64-3.21,3.89-4.87,1.9-2.51,3.46-5.37,4.87-8.18,3.42-6.87,5.71-14.38,6.51-22.03.2-1.91.28-3.84.49-5.75.18-1.7.44-3.48,1.1-5.07.99-2.35,2.98-4.33,5.48-5,1.2-.32,2.45-.31,3.64.02.65.18,1.25.46,1.83.8.43.26,1.07.63,1.16,1.14,0,.04-.01.19-.04.26-.1.22-.24.36-.42.53-.37.33-.84.57-1.3.74-.98.37-1.88.39-2.87.19-1.69-.34-4.68-1.43-4.18-3.64.09-.4.2-.61.51-.88.2-.17.54-.32.89-.41.84-.21,1.84-.15,2.75,0,1.79.31,3.72.86,5.02,2.18.65.66.95,1.33.88,2.17-.02.2-.18.77-.29,1.01-.2.44-.45.85-.73,1.23-1.28,1.8-3.09,3.22-4.74,4.66-.75.65-1.5,1.3-2.17,2.03-.99,1.08-1.76,2.38-2.44,3.67-1.67,3.13-2.68,6.54-3.72,9.91-.51,1.65-1.09,3.23-1.83,4.79-.74,1.56-1.54,3.08-2.24,4.66-1.14,2.6-1.99,5.42-1.79,8.29.08,1.1.31,2.46,1.36,3.06,1.2.69,2.5-.05,3.35-.93,1.95-2.02,2.93-5.02,3.22-7.75.15-1.41.1-3.13-.75-4.33-.68-.96-1.82-1.35-2.95-.98-2.92.97-3.73,4.58-4.45,7.17-.49,1.77-.92,3.57-1.66,5.25-.7,1.58-1.56,3.09-2.48,4.55-3.6,5.7-8.4,10.47-12.6,15.71-4.53,5.66-8.18,12.01-10.89,18.73-.69,1.72-1.32,3.47-1.86,5.24-.27.86-.51,1.73-.74,2.6-.12.45-.23.9-.33,1.34-.11.48-.29.93,0,1.37.44.64,1.2.94,1.94,1.08.64.11,1.26.26,1.9.14.74-.13,1.44-.35,2.2-.35.55,0,1.39.05,1.69.47.16.22.35.83.19.99.1-.1-.16-.03-.26-.03-.24,0-.47-.05-.7-.1-.6-.13-1.2-.32-1.78-.55-.2-.08-.4-.17-.59-.27-.09-.04-.17-.1-.25-.14-.16-.09-.01,0-.04-.03.06.24.13.49.19.73.08-.19.15-.38.23-.56.05-.11.09-.22.14-.33.05-.12-.04.09.03-.07.03-.08.07-.16.1-.24.31-.72.62-1.44.95-2.16.94-2.1,1.92-4.19,2.94-6.26,2.83-5.76,5.92-11.4,9.37-16.81,3.58-5.63,7.52-11.03,11.6-16.3,3.11-4.01,6.32-7.95,9.58-11.84.86-1.02,1.72-2.03,2.56-3.06.43-.52.86-1.04,1.38-1.47.25-.21.54-.4.84-.52.31-.13.44-.15.67-.14.8.06,1.81.73,2.4,1.37.12.13.24.28.32.44.06.11.05.08.07.17.02.07,0,.1.02.05.12-.15.23-.3.35-.45-.61.31-1.19.66-1.8.97-.25.13-.31.15-.56.24,0,0-.21.06-.09.03.1-.03-.06,0-.08,0,.08,0,.09.06.04,0-.09-.09.07.07.1.07-.07,0-.03-.07,0,.02-.02-.05-.06-.09-.08-.14,0,0-.04-.15-.07-.26-.09-.4-.07-.84-.07-1.25.01-1.02.09-2.05.31-3.05.41-1.82,1.36-3.34,2.66-4.66,1.08-1.1,2.68-2.41,4.34-1.95.5.14.85.31,1.16.64.1.1.03.03.01,0,.03.04.07.09.09.14.02.04.14.29.08.14.04.09.06.19.09.28.01.05.02.11.03.16-.02-.14,0,.02,0,.07.02.92-.37,1.85-.86,2.74-1.12,2.05-2.68,3.85-4.26,5.56-5.87,6.38-11.57,12.89-16.88,19.76-5.14,6.65-9.61,13.73-13.37,21.25-1.56,3.11-3,6.29-4.29,9.52-.92,2.32-1.79,4.69-2.41,7.11-.1.41-.2.83-.28,1.24-.19.95,1.27,1.35,1.45.4.39-1.97,1.03-3.89,1.71-5.78.98-2.71,2.1-5.36,3.3-7.97,3.12-6.76,6.79-13.3,11.04-19.42,2.38-3.43,4.97-6.72,7.6-9.96,2.71-3.34,5.51-6.62,8.37-9.83,1.94-2.17,3.97-4.26,5.88-6.46,1.5-1.72,3.01-3.57,3.92-5.68.4-.93.69-1.95.51-2.97-.17-.96-.85-1.72-1.72-2.13-3.22-1.5-6.23,1.29-8.02,3.72-1.13,1.53-1.67,3.34-1.89,5.21-.1.91-.16,1.86-.09,2.78.05.59.14,1.26.56,1.72.8.87,1.99.26,2.84-.2.25-.14.5-.28.74-.41.35-.19.86-.35,1.03-.74.24-.58-.04-1.27-.38-1.75-.74-1.05-2.04-1.92-3.29-2.19-1.65-.36-3.08.83-4.09,2-1.19,1.37-2.33,2.78-3.49,4.17-4.3,5.14-8.5,10.37-12.5,15.75-4.97,6.67-9.58,13.58-13.59,20.87-2.91,5.28-5.6,10.69-7.98,16.23-.25.59-.51,1.19-.75,1.79-.1.24.02.56.19.73.26.27.63.43.97.58.52.23,1.05.43,1.59.59.93.28,2.41.72,3.2-.07.8-.79.5-2.31-.18-3.07-.95-1.07-2.68-1.03-3.97-.82-.39.07-.78.16-1.16.24-.11.02-.23.05-.33.06-.1,0,0,.02.03.02-.1,0-.22-.04-.31-.06-.57-.1-1.46-.09-1.84-.61.03.19.05.39.08.58,1.55-7,4.4-13.69,8.04-19.85,1.73-2.93,3.66-5.74,5.8-8.39,2.05-2.54,4.23-4.97,6.34-7.46,2.11-2.49,4.16-5.04,5.94-7.77.89-1.37,1.71-2.79,2.43-4.26.78-1.61,1.33-3.3,1.8-5.02.47-1.7.89-3.43,1.59-5.06.42-.97,1.05-1.95,2.04-2.37.17-.07.39-.13.5-.14.2-.02.33,0,.45.04.42.17.66.64.8,1.08.44,1.41.23,2.98-.11,4.39-.3,1.27-.74,2.53-1.41,3.65-.29.49-.61.96-1,1.38-.32.35-.75.79-1.25.85-.33.04-.51-.15-.66-.42-.21-.41-.28-.94-.31-1.4-.07-1.06,0-2.15.19-3.2.59-3.27,2.3-6.18,3.7-9.14,1.45-3.08,2.26-6.37,3.37-9.58.56-1.62,1.2-3.22,1.99-4.74.39-.75.82-1.48,1.28-2.19.23-.35.46-.69.71-1.02.05-.07,0,0-.01.02.03-.04.06-.07.09-.11.07-.09.15-.17.22-.25,1.37-1.51,3.03-2.73,4.52-4.11,1.48-1.37,3.11-2.97,3.7-4.96.63-2.1-.53-3.94-2.25-5.1-1.54-1.03-3.56-1.55-5.38-1.78-1.76-.22-4.11-.04-4.97,1.79-.49,1.03-.44,2.25.12,3.24.56,1,1.57,1.7,2.59,2.16,1.06.48,2.17.77,3.32.91,1.1.13,2.18-.12,3.18-.57.95-.42,2.01-1.16,2.27-2.23.33-1.36-.8-2.34-1.84-2.97-2.27-1.36-5.07-1.66-7.54-.67-2.46.98-4.42,2.97-5.47,5.39-1.43,3.29-1.4,7.07-1.71,10.58-.64,7.39-2.76,14.71-5.97,21.39-1.45,3.02-3.1,6.02-5.06,8.75-.08.11-.15.21-.23.31-.04.06-.08.11-.13.17.04-.05-.04.05-.11.14-.25.31-.49.63-.74.94-.69.86-1.39,1.72-2.08,2.58-4.18,5.2-8.24,10.52-11.82,16.16-3.4,5.35-6.49,10.97-9.02,16.79-.68,1.55-1.33,3.12-1.73,4.77-.24.99-.45,2-.59,3.01-.13.95-.28,1.97-.07,2.91.23,1.02,1.35,1.63,2.28.99,1.14-.78.78-2.43,0-3.3-.52-.58-1.15-1.01-1.6-1.67-.46-.68-.83-1.44-.97-2.26-.09-.54-.06-1.1.11-1.61.02-.06.12-.3.08-.2-.05.12.03-.07.04-.09.04-.08.07-.16.11-.24.9-1.96,1.92-3.87,2.9-5.78,1.54-3.02,3.08-6.04,4.57-9.08,2.62-5.35,5.11-10.77,7.54-16.2,1.08-2.41,2.14-4.83,3.13-7.28.15-.38-.17-.82-.53-.93-.43-.12-.78.15-.93.53h0Z"/><path d="M154.29 98.71c-.15-4.03-.41-8.06-.78-12.08-.32-3.43-.61-6.97-1.78-10.24-.57-1.6-1.35-3.1-2.42-4.43-1.07-1.33-2.55-2.49-4.33-2.5-.87 0-1.72.27-2.4.83-.62.51-1.01 1.29-1.17 2.07-.33 1.66.12 3.4.82 4.91.71 1.54 1.87 3 3.32 3.91 1.4.88 3.44 1.06 4.64-.29.57-.64.8-1.46.59-2.3-.19-.77-.75-1.44-1.5-1.68-.89-.29-1.85.17-2.5.76-.59.54-.99 1.28-1.23 2.04-.55 1.78-.07 3.63.34 5.39.41 1.74.69 3.44.84 5.18.15 1.72.18 3.45.1 5.18-.04.86-.11 1.72-.21 2.58-.09.81-.21 1.59-.36 2.45-.61 3.39-1.62 6.71-2.95 9.89-.29.71-.67 1.54-1.02 2.29-.37.79-.77 1.57-1.18 2.34-.81 1.53-1.7 3.03-2.64 4.49-.47.72-.95 1.44-1.44 2.14-.23.33-.06.84.27 1.03.38.22.8.06 1.03-.27 1.88-2.7 3.58-5.53 5.02-8.49 1.44-2.97 2.65-6.06 3.51-9.25.86-3.17 1.38-6.44 1.49-9.72.12-3.35-.2-6.73-.96-9.99-.19-.84-.44-1.73-.54-2.56-.05-.41-.07-.83-.05-1.25 0-.09.01-.17.02-.26.01-.14-.01.04.01-.1.03-.19.07-.37.12-.55.11-.39.15-.5.35-.84.04-.06.08-.12.12-.19.02-.03.15-.2.08-.11.11-.13.22-.25.35-.36.04-.03.07-.06.11-.09-.01 0-.08.06 0 0 .07-.05.14-.09.22-.14.02-.01.18-.09.13-.07.1-.04.22-.08.33-.09-.13.02.23 0 .1 0-.09 0 .11.03.14.04.12.03-.06-.05.04.02.03.02.07.04.1.06-.05-.03-.07-.06 0 0 .05.05.1.1.15.16.06.06-.02-.02-.02-.03.02.03.04.05.05.08.04.06.07.13.1.2-.06-.14.02.07.03.12.02.06.03.12.04.19-.02-.15 0 .03 0 .09 0 .06-.04.24 0 .08-.02.07-.04.14-.06.22-.03.11.05-.1 0 0-.02.03-.03.06-.05.09-.02.03-.04.06-.05.09-.01.02-.09.13-.04.07.03-.04-.08.08-.1.11-.03.03-.07.06-.1.1-.01 0-.12.09-.06.05.06-.05-.03.02-.04.02-.04.02-.08.05-.12.07-.06.04-.12.07-.19.1.12-.06-.08.03-.12.04-.09.03-.18.05-.28.07-.04 0-.07.01-.11.02.03 0 .14 0-.01 0-.07 0-.14 0-.21 0-.23 0-.26 0-.46-.05-.39-.09-.61-.19-.95-.39-.63-.38-1.18-.91-1.68-1.5-.93-1.11-1.57-2.5-1.84-3.99-.02-.09-.03-.18-.04-.27.02.12 0-.07-.01-.1-.02-.19-.03-.38-.03-.58 0-.17 0-.33.02-.5 0-.04 0-.08.01-.11.02-.13-.02.1 0-.03.02-.09.03-.17.05-.26.04-.17.09-.34.15-.5-.04.11.03-.06.05-.09.04-.09.09-.17.15-.25.02-.03.04-.06.06-.09.07-.1-.06.07.02-.02.05-.06.1-.11.15-.16.02-.02.19-.17.11-.1.08-.06.16-.11.25-.16.47-.27 1.14-.33 1.66-.22.68.15 1.29.53 1.8.99 1.11 1.01 1.91 2.3 2.54 3.69 1.23 2.71 1.66 5.93 1.96 8.89.39 3.77.68 7.56.87 11.35.05.92.08 1.84.12 2.77.01.41.34.75.75.75s.77-.34.75-.75h0ZM162.56 127.51c3.42-4.21 7.33-7.99 11.47-11.47 4.14-3.49 8.52-6.68 12.94-9.81 4.58-3.24 9.15-6.52 13.93-9.47 4.75-2.93 9.78-5.49 15.18-6.98 5.26-1.46 10.89-1.93 16.25-.67.66.16 1.32.34 1.97.54v-1.45c-6.45 2.33-13.42.87-20.1 1.53-3.15.31-6.18 1.14-8.95 2.69-2.45 1.38-4.63 3.2-6.66 5.13-4.07 3.88-7.63 8.38-12.3 11.57-2.88 1.97-6.11 3.33-9.07 5.15-2.35 1.45-4.68 2.95-6.91 4.58-4.64 3.38-9.25 7.4-11.89 12.6-.32.63-.61 1.29-.86 1.95-.15.38.16.83.53.93.43.12.78-.15.93-.53 2.03-5.23 6.39-9.35 10.76-12.68 2.22-1.69 4.54-3.25 6.9-4.73 1.31-.82 2.64-1.62 4.01-2.36 1.55-.83 3.12-1.61 4.63-2.51 5-2.95 8.79-7.35 12.83-11.43 1.93-1.94 3.93-3.83 6.21-5.36 2.44-1.64 5.11-2.75 8.01-3.26 6.61-1.16 13.41.37 19.98-1.14.8-.18 1.58-.41 2.35-.69.69-.25.74-1.22 0-1.45-5.4-1.71-11.18-1.64-16.68-.45-5.59 1.21-10.85 3.6-15.78 6.46-4.92 2.86-9.56 6.18-14.21 9.44-4.52 3.17-9.01 6.39-13.3 9.87-4.27 3.47-8.34 7.21-11.94 11.38-.44.51-.87 1.02-1.29 1.54-.26.32-.31.76 0 1.07.27.27.81.32 1.07 0h0ZM161.59 149.15c7.09-.51 14.21-.73 21.32-.79 7.64-.07 15.28.02 22.91.2 7.51.18 15.01.44 22.51.72 7.57.29 15.21.45 22.68 1.87 3.73.71 7.42 1.73 10.9 3.25 2.64 1.15 5.88 2.98 6.66 5.99.17.66.17 1.33.01 1.99.12-.15.23-.3.35-.45-1.47.78-3.21.17-4.51-.69-1.49-.98-2.61-2.43-3.95-3.59-2.98-2.59-7.02-3.17-10.76-3.97-8.25-1.75-16.59-3.02-24.96-4.05-8.34-1.03-16.71-1.81-25.08-2.57-4.27-.39-8.54-.78-12.8-1.17-2.53-.23-5.05-.26-7.59-.17-5.58.2-11.23.66-16.73 1.66-.48.09-.96.18-1.44.29-.95.21-.55 1.67.4 1.45 2.35-.53 4.75-.83 7.14-1.1 2.99-.34 5.99-.58 9-.73 2.49-.13 5.01-.22 7.51-.05 4.07.27 8.14.74 12.21 1.11 8.48.77 16.96 1.54 25.42 2.54 8.41 1 16.8 2.23 25.1 3.94 2.02.41 4.04.84 6.05 1.34 1.84.46 3.66 1.05 5.15 2.26 2.62 2.11 4.9 5.65 8.72 5.36.71-.05 1.97-.25 2.25-1.01.26-.69.21-1.59.09-2.3-.25-1.51-1.13-2.85-2.17-3.93-2.47-2.54-5.96-3.88-9.26-4.98-7.42-2.48-15.31-3.14-23.08-3.51-7.65-.36-15.32-.61-22.97-.83-7.86-.23-15.73-.39-23.6-.41-7.46-.01-14.92.11-22.37.5-1.69.09-3.38.2-5.08.32-.96.07-.97 1.58 0 1.51h0ZM144.22 150.41c1.3.82 2.79 1.37 4.2 1.96.9.37 1.8.74 2.7 1.11.23.1.46.19.69.29-.03-.01-.13-.05 0 0 .06.03.13.05.19.08.13.05.25.11.38.16.48.21.96.42 1.44.64 1.82.83 3.55 1.76 5.19 2.9.49.34.98.69 1.47 1.05.22.16.44.33.66.49.11.09.23.17.34.26.06.05.12.1.19.14-.09-.07.1.08.1.07.92.72 1.83 1.46 2.71 2.23 3.34 2.88 6.44 6.07 9.17 9.53.07.09.14.17.2.26.01.01.15.19.04.06.04.05.08.1.12.16.14.19.29.38.43.57.29.39.57.78.85 1.17.51.72.99 1.45 1.45 2.2.41.67.8 1.36 1.16 2.06.47.92.84 1.8 1.2 2.72.46 1.18.85 2.39 1.13 3.63.27 1.21.41 2.28.41 3.54 0 .54-.04 1.08-.1 1.61-.03.24.02-.15-.01.09-.01.07-.02.15-.03.22-.02.12-.04.24-.06.36-.05.29-.12.57-.19.86-.14.52-.3 1.02-.51 1.52.06-.14-.04.08-.04.09-.03.07-.06.13-.09.2-.05.11-.1.22-.16.32-.13.26-.28.51-.43.75-.14.22-.29.44-.45.65-.09.12-.03.04-.01.02-.04.06-.09.11-.14.17-.09.11-.19.22-.29.33.39.05.79.1 1.18.15-.06-.12 0 .03-.04-.09-.03-.07-.05-.14-.08-.21-.05-.15-.1-.3-.14-.45-.04-.14-.07-.28-.1-.43-.01-.07-.03-.14-.04-.22 0-.04-.01-.07-.02-.11 0-.02-.03-.21-.02-.12.01.08 0-.04 0-.05 0-.04 0-.07-.01-.11 0-.07-.01-.15-.02-.22-.01-.16-.02-.32-.03-.48-.01-.31-.02-.62-.02-.94 0-1.27.11-2.54-.02-3.8-.13-1.27-.47-2.5-1.21-3.57-.66-.95-1.49-1.73-2.38-2.47-.86-.72-1.76-1.41-2.54-2.22-.19-.2-.38-.4-.55-.62-.04-.05-.08-.1-.13-.16.08.11-.04-.05-.06-.09-.08-.12-.17-.23-.24-.35-.3-.46-.56-.94-.78-1.44-.03-.06-.05-.12-.08-.18.05.12 0-.02-.02-.06-.05-.13-.1-.27-.15-.4-.1-.27-.19-.54-.27-.82-.16-.53-.29-1.08-.41-1.62-.24-1.13-.4-2.28-.57-3.42-.34-2.33-.7-4.66-1.65-6.82-.6-1.37-1.59-2.45-2.73-3.4-1.39-1.16-2.92-2.15-4.49-3.05-1.73-1-3.52-1.89-5.33-2.73-1.8-.84-3.62-1.62-5.46-2.36-1.46-.59-2.93-1.15-4.41-1.69-.27-.1-.54-.19-.81-.29-.37-.13-.84.15-.93.53-.1.42.13.79.53.93 1.34.47 2.66.97 3.98 1.49.83.33 1.66.66 2.48 1 .1.04.21.09.31.13.03.01.19.08.09.04-.09-.04.09.04.12.05.23.1.46.2.69.29.45.19.9.39 1.34.59 1.83.82 3.63 1.68 5.39 2.63 1.61.87 3.2 1.81 4.67 2.91.08.06.16.12.24.18.11.08-.11-.09 0 0 .04.03.09.07.13.1.15.12.31.25.45.37.28.24.56.49.82.75.24.24.47.48.69.74.05.06.09.12.14.18-.05-.06-.1-.13-.03-.03.03.03.05.07.08.1.09.12.17.24.25.37.08.12.15.25.21.38.06.12.12.24.18.36.03.06.06.12.08.18.01.03.03.06.04.09.05.11-.04-.1 0 0 .21.52.4 1.05.55 1.6.31 1.1.52 2.23.7 3.36.35 2.25.57 4.55 1.27 6.73.35 1.09.82 2.16 1.47 3.11.66.96 1.47 1.77 2.36 2.52.85.72 1.73 1.39 2.52 2.17.2.2.39.4.58.62.04.05.08.1.12.15.02.03.04.05.06.08 0 0-.07-.09-.02-.02.08.11.17.23.24.34.15.23.29.46.41.7.03.06.06.12.08.18.01.03.03.06.04.09 0-.01-.04-.09 0 0 .06.15.11.3.16.45.09.29.16.59.21.89 0 .04.01.07.02.11 0 0 .02.13 0 .05s0 .04 0 .05c0 .04 0 .07.01.11.02.16.03.32.04.48.04.63.03 1.25.02 1.88-.03 1.31-.08 2.61.13 3.9.11.64.3 1.24.57 1.82.2.43.88.49 1.18.15 1.56-1.72 2.48-3.93 2.8-6.22.35-2.51.03-5.05-.69-7.47-.61-2.06-1.46-4.09-2.49-5.97-.85-1.56-1.84-3.04-2.9-4.47-2.61-3.54-5.61-6.79-8.86-9.75-1.79-1.64-3.67-3.18-5.62-4.63-1.7-1.26-3.43-2.41-5.33-3.36-1.9-.94-3.86-1.75-5.82-2.55-.45-.19-.9-.37-1.36-.56-.21-.08-.41-.17-.62-.26-.09-.04-.18-.08-.27-.11-.03-.01-.21-.09-.03-.01-.07-.03-.14-.06-.21-.09-.7-.3-1.4-.6-2.07-.95-.26-.13-.51-.27-.75-.43-.33-.21-.85-.08-1.03.27-.2.37-.09.81.27 1.03h0ZM125.36 140.91c-5.19-1.17-10.49-1.85-15.78-2.34-5.78-.53-11.59-.8-17.4-.76-5.7.04-11.39.45-17.04 1.29-6.09.91-12.12 2.33-17.89 4.5-2.86 1.07-5.66 2.32-8.33 3.79-2.53 1.39-5.23 2.93-7.11 5.16-.89 1.06-1.64 2.34-1.89 3.71-.23 1.3.12 2.75 1.51 3.2 1.26.41 2.53-.31 3.27-1.29.83-1.11 1.18-2.49 2.04-3.59 1.69-2.16 4.31-3.37 6.75-4.48 2.99-1.36 6.03-2.6 9.11-3.73 6.21-2.27 12.58-4.08 19.06-5.41 6.41-1.32 12.93-2.18 19.47-2.5 6.51-.32 13.07.19 19.37 1.91 1.65.45 3.27.98 4.87 1.59.38.14.83-.16.93-.53.12-.42-.14-.78-.53-.93-6.18-2.35-12.76-3.47-19.36-3.62-6.39-.14-12.83.54-19.13 1.54-6.4 1.01-12.72 2.49-18.91 4.41-3.07.96-6.1 2.02-9.1 3.2-2.91 1.14-5.83 2.33-8.61 3.75-2.41 1.23-4.77 2.86-6.04 5.32-.49.96-.89 2.5-2.03 2.89-.35.12-.74.12-.98-.11-.37-.35-.3-.96-.2-1.41.6-2.69 2.98-4.52 5.17-5.94 2.48-1.61 5.12-2.97 7.82-4.16 5.5-2.42 11.35-4.04 17.24-5.16 5.59-1.05 11.26-1.64 16.94-1.83 5.64-.18 11.29-.03 16.92.36 5.4.37 10.8.95 16.13 1.93 1.11.21 2.23.43 3.33.68.94.21 1.35-1.24.4-1.45h0Z"/><path d="m139.38,120.06c-.39-3.16.96-6.14,2.06-9.03.56-1.46,1.08-2.95,1.36-4.5.31-1.74.35-3.51.22-5.27-.27-3.54-1.15-7-1.71-10.5-.57-3.57-1.17-7.15-1.72-10.73-.54-3.51-.99-7.04-.96-10.6.03-3.45.62-6.79,1.78-10.04,2.12-5.93,5.7-11.3,7.29-17.43,1.34-5.13,1.47-11.26-1.75-15.76-.39-.55-.82-1.07-1.29-1.55-.43-.44-1.35-.13-1.29.53.32,3.46.63,6.92.95,10.39.3,3.24.63,6.5.47,9.76-.17,3.19-.96,6.16-2.45,8.99-1.42,2.71-3.12,5.26-4.22,8.13-2.19,5.73-2.22,12.09-1.01,18.04,1.26,6.18,4.39,11.83,5.36,18.08.99,6.38-1.35,12.55-3.97,18.25-.34.74-.68,1.47-1.03,2.2-.41.87.89,1.64,1.3.76,2.71-5.76,5.53-11.84,5.44-18.35-.09-6.47-3.22-12.27-4.93-18.37-1.65-5.86-2.1-12.22-.41-18.12.85-2.97,2.36-5.59,3.88-8.26,1.58-2.79,2.84-5.64,3.29-8.83.46-3.25.28-6.52,0-9.78-.29-3.43-.62-6.85-.93-10.27-.08-.87-.16-1.75-.24-2.62-.43.18-.86.36-1.29.53,3.76,3.86,4.01,9.74,2.92,14.74-1.32,6.08-4.76,11.41-7.03,17.14-1.24,3.14-2.06,6.38-2.28,9.76-.24,3.52.09,7.05.56,10.54.48,3.54,1.09,7.06,1.66,10.59.28,1.76.55,3.52.88,5.27.33,1.73.68,3.45.94,5.2.25,1.71.4,3.44.32,5.16-.08,1.63-.42,3.21-.94,4.75-.99,2.96-2.45,5.8-2.77,8.94-.08.75-.07,1.5.02,2.25.05.4.31.75.75.75.37,0,.8-.35.75-.75h0Z"/><path d="m154.3,99.5c1.3-3.75,1.45-7.66,1.86-11.57.43-4.14.43-8.64,2.47-12.38.36-.67,2.25-4.19,3.13-2.75.58.95.26,2.33.06,3.33-.24,1.26-.48,2.52-.71,3.77-.2,1.09-.4,2.18-.49,3.29-.1,1.19.07,2.48-.38,3.62-.27.69-1.2,1.65-2.05,1.17-.33-.18-.34-.42-.14-.71.35-.52.45-.24.57.21,1.38,4.97.21,10.73-2.36,15.1.46.19.92.39,1.38.58.76-5.23,2.39-10.25,4.81-14.95,2.31-4.5,4.82-8.81,6.53-13.59.82-2.28,1.58-4.59,2.3-6.9.66-2.1,1.21-4.23,1.26-6.44.02-1.19.23-2.66-.39-3.73-.83-1.45-2.7-.57-3.61.32-1.18,1.14-1.8,2.8-2.31,4.33-.81,2.47-1.19,5.08-1.62,7.63-.24,1.4-.37,3.1.52,4.3.83,1.12,2.65,1.57,3.3.07.6-1.39-.23-2.47-1.2-3.42-1.15-1.13-2.48-2.17-4.19-1.84-2.19.42-3.41,2.32-4.69,3.95-.44.56-1.51,2.11-2.38,1.55-1.1-.7-.54-2.91-.28-3.87.74-2.71,1.75-5.33,3.59-7.5.67-.79,1.43-1.6,2.3-2.17.07-.05.34-.16.39-.23.16-.28-.19.08-.16-.1,0,.03.26.47.3.59.65,1.71.76,3.8.59,5.6-.09.89-.25,1.83-1.09,2.28-.49.26-.95.41-.98,1.06h1.51c-.16-1.34-.04-2.75.04-4.09.1-1.69.2-3.4.51-5.07.31-1.69,1.34-3.24,2.41-4.57,1.37-1.7,3.05-3.13,4.93-4.24,3.76-2.21,8.29-3.08,12.57-2.1,1.82.42,4,1.09,5.76.1,2.08-1.16,1.95-3.71,1.53-5.73-.66-3.17-2.15-6.23-3.67-9.06-2.35-4.35-5.26-8.43-8.64-12.03-6.39-6.79-14.34-12.19-22.35-16.88C149.65,3.18,143.75-.1,137.11,0c-3.35.05-6.66,1.05-9.4,3.02-3.48,2.51-5.86,6.2-7.48,10.12-2.15,5.19-2.62,10.86-4.42,16.16-1.79,5.26-4.86,9.97-6.5,15.3-.83,2.7-1.38,5.49-1.66,8.3-.27,2.71-.44,5.62.32,8.26.72,2.48,2.27,4.58,3.82,6.61,1.61,2.11,3.2,4.24,4.74,6.4,6.15,8.62,11.72,17.78,15.55,27.68,3.73,9.63,5.99,20.39,4.61,30.74-.33,2.46-1.02,4.86-2.5,6.88.28-.12.57-.23.85-.35-1.93-.62-1.64-3.56-1.45-5.11.37-2.95.94-5.88,1.42-8.82.9-5.48,1.5-11.03.38-16.53-1.07-5.26-3.42-10.16-5.66-15.01-1.95-4.24-3.95-8.46-6.14-12.58-4.26-8.02-9.35-15.85-16.28-21.83-3.71-3.2-7.9-5.67-12.28-7.83-4.85-2.4-9.91-4.39-15.05-6.1-5.25-1.75-10.61-3.32-16.03-4.43-5.47-1.13-11.13-1.74-16.7-1.06-5.29.64-10.33,2.42-15.16,4.62-4.78,2.18-9.46,4.67-13.95,7.4-4.32,2.63-8.47,5.6-12.11,9.12-1.66,1.6-3.32,3.31-4.62,5.22C.69,67.25.01,68.55,0,69.89c-.02,2.34,2.13,3.57,4.12,4.14,2.65.76,5.51.83,8.24.86,3.57.04,7.11.05,10.67.4,4.57.46,9.11,1.35,13.49,2.76,8.93,2.87,16.7,8,22.61,15.29,6.07,7.48,10.76,15.98,17.08,23.26,6.47,7.45,14.78,12.91,24.53,14.91,2.4.49,4.85.78,7.29.85,2.73.07,5.44-.24,8.17-.38,4.65-.24,10.38.41,12.71,5.12.35.71,1.07,2.57.49,3.3-.58.73-1.75.04-2.1-.57-.61-1.06-.47-2.44-.56-3.61-.07-.92-.21-1.85-.43-2.75-.86-3.58-2.89-6.72-5.31-9.44-5.04-5.68-11.79-9.6-16.7-15.39-3.25-3.84-5.4-8.47-7.63-12.94-2.25-4.5-4.77-8.78-8.01-12.65-3.27-3.91-7.1-7.35-11.31-10.22-2.27-1.54-4.65-2.86-7.1-4.1-2.17-1.1-4.36-2.18-6.79-2.51-1.4-.19-3.9-.26-4.11,1.66-.2,1.81,1.93,3.33,3.3,4.09,1.97,1.09,4.2,1.55,6.36,2.11,2.3.59,4.5,1.42,6.6,2.55,9.03,4.86,15.01,13.56,20.76,21.74,3.03,4.32,6.12,8.6,9.7,12.48,3.32,3.59,6.93,6.88,10.32,10.4,3.31,3.45,6.38,7.12,8.62,11.37.45.86,1.75.1,1.3-.76-4.58-8.67-12.4-14.8-18.97-21.85-7.14-7.67-12.14-17.01-19.08-24.84-3.09-3.49-6.59-6.7-10.6-9.11-2.01-1.2-4.15-2.2-6.38-2.91-2.15-.69-4.41-1.03-6.52-1.85-1-.39-1.98-.91-2.79-1.62-.37-.33-1.67-1.46-.86-1.9.82-.45,2.27-.08,3.09.1,1.35.31,2.63.84,3.87,1.44,4.77,2.32,9.28,5.01,13.3,8.49,3.87,3.34,7.27,7.22,10.04,11.51,2.67,4.14,4.6,8.69,6.94,13.01,2.09,3.87,4.59,7.39,7.81,10.41,2.74,2.58,5.73,4.88,8.57,7.34,2.87,2.48,5.7,5.14,7.76,8.36.99,1.55,1.77,3.21,2.25,4.98.23.84.39,1.69.47,2.56.11,1.2.03,2.46.38,3.63.48,1.61,1.98,2.95,3.76,2.51,2.08-.51,1.85-3.07,1.32-4.67-1.39-4.19-5.77-6.43-9.9-6.91-2.83-.32-5.67,0-8.49.19-2.46.16-4.91.16-7.36-.09-5.02-.52-9.96-2.03-14.43-4.35-8.74-4.54-14.84-12.22-20.35-20.16-5.3-7.64-10.29-15.81-17.75-21.56-7.14-5.5-15.79-8.71-24.62-10.17-4.2-.69-8.45-1.01-12.7-1.02-2.71,0-5.45.03-8.15-.33-1.65-.22-4.76-.62-5.34-2.57-.33-1.1.34-2.32.9-3.22,1.24-1.96,2.96-3.68,4.62-5.28,3.63-3.5,7.77-6.44,12.08-9.04,4.5-2.72,9.19-5.22,13.99-7.38,5-2.25,10.3-4.03,15.8-4.44,5.61-.41,11.21.37,16.67,1.63,10.57,2.44,21.15,5.94,30.76,11.01,4.27,2.25,8.22,4.87,11.71,8.21,3.27,3.14,6.11,6.7,8.63,10.46,5.21,7.78,9.16,16.34,13.01,24.84,2.23,4.92,4.31,10.04,4.68,15.49.39,5.77-.82,11.46-1.76,17.12-.5,3.02-2.21,9.33,1.95,10.66.34.11.66-.08.85-.35,2.92-3.98,3.08-9.43,3.04-14.18-.04-5.07-.74-10.12-1.96-15.04-2.46-9.94-6.99-19.28-12.34-27.97-2.75-4.47-5.74-8.78-8.86-12.99-1.53-2.06-3.22-4.04-4.55-6.23-1.49-2.44-1.93-4.99-1.86-7.82.14-5.75,1.55-11.34,3.96-16.55,1.11-2.41,2.35-4.77,3.38-7.23,1.05-2.49,1.78-5.07,2.38-7.7,1.2-5.19,2.2-10.39,5.07-14.97,2-3.19,4.82-5.92,8.42-7.18,6.27-2.2,12.81.13,18.36,3.15,15.16,8.25,30.53,19.26,36.88,35.99.51,1.34.97,2.72,1.17,4.14.15,1.06.17,2.38-.79,3.07-.91.66-2.25.42-3.27.22-2.04-.41-3.97-.87-6.07-.8-2.12.07-4.24.51-6.22,1.28-3.8,1.48-7.16,4.08-9.38,7.52-.88,1.36-1.49,2.68-1.72,4.27-.25,1.66-.38,3.34-.47,5.02-.07,1.27-.18,2.6-.03,3.88.11.94,1.45.99,1.51,0-.05.92-.45.41-.09.39.08,0,.19-.08.26-.12.26-.13.5-.29.71-.48.59-.54.89-1.3,1.04-2.07.31-1.59.24-3.25,0-4.84-.16-1.11-.36-2.76-1.27-3.54-.91-.78-2.02.16-2.74.75-3.31,2.72-5.43,7.09-6.09,11.28-.26,1.62,0,4.18,2,4.56,1.85.36,3.2-1.71,4.14-2.95,1.13-1.49,2.94-3.6,4.92-2.21.6.42,2.65,1.84,2.04,2.78-.08.13.18.12-.15,0-.15-.06-.27-.11-.4-.22-.25-.22-.37-.54-.44-.85-.17-.69-.12-1.45-.02-2.15.33-2.27.73-4.6,1.35-6.81.45-1.62,1.04-3.69,2.39-4.81.21-.17.72-.57,1-.5.12.03.08.02.17.27.22.59.13,1.35.12,1.96-.11,4.16-1.59,8.02-2.91,11.92-.85,2.5-1.79,4.97-2.95,7.35-1.22,2.5-2.62,4.89-3.9,7.36-2.55,4.91-4.33,10.13-5.12,15.62-.12.79.91,1.38,1.38.58,1.5-2.55,2.47-5.36,2.87-8.29.2-1.5.26-3.01.16-4.53-.09-1.29-.15-2.98-.75-4.15-1.01-1.94-3.61-.35-3.42,1.45.25,2.45,3.61,1.93,4.71.48.82-1.08.92-2.5.95-3.8.04-1.72.33-3.38.65-5.07.3-1.6.73-3.24.83-4.87.06-1.05-.1-2.23-.84-3.04-1.81-1.95-3.85.73-4.77,2.2-1.31,2.09-2.05,4.33-2.46,6.76-.53,3.18-.78,6.43-1.09,9.64-.11,1.18-.14,2.36-.28,3.54-.22,1.86-.65,3.65-1.26,5.42-.32.92,1.14,1.31,1.45.4h0Z"/><path d="m110.33,158.47c-15.55-1.59-30.42,4.08-44.71,9.45-7.37,2.77-14.76,5.55-22.42,7.42-1.89.46-3.8.87-5.72,1.2-1.69.29-3.55.68-5.25.23-2.31-.62-2.27-2.78-2.2-4.78.07-1.97.22-3.94.45-5.9.95-7.99,3.29-15.84,6.84-23.05,1.73-3.53,3.75-6.92,6.05-10.11,2.43-3.39,5.16-6.85,8.69-9.15,6.49-4.23,14.62-4.05,22.04-3.32,8.19.81,16.23,2.42,23.87,5.57,3.93,1.62,7.64,3.7,11.35,5.76,3.61,2,7.19,4.06,10.65,6.33,3.52,2.32,6.9,4.85,10.01,7.71,2.59,2.38,5.29,5.04,8.7,6.17,1.55.51,3.16.56,4.74.16.24-.06.47-.28.53-.53.92-4.4-4.9-6.39-8.06-7.54-4.82-1.75-9.95-2.68-15.07-2.73-3.36-.03-6.93.18-8.54,3.6-1.27,2.71-.95,6-.27,8.82,2.08,8.59,9.22,14.05,16.01,18.99,4.25,3.09,8.2,6.57,11.96,10.25,3.67,3.59,7.05,7.47,10.95,10.81,7.63,6.52,16.44,11.43,25.27,16.12,1.84.98,3.93,2.51,6.09,2.49,2.09-.02,4.16-1.52,5.86-2.59,3.67-2.3,7.02-5.12,9.93-8.31,5.9-6.48,10.26-14.68,11.84-23.34.83-4.55.36-9.02-2.11-13-2.23-3.59-5.57-6.4-9.15-8.59-7.8-4.77-17.15-7.29-26.17-8.33-8.19-.94-16.42-.44-24.31,1.98-.95.29-1.91.59-2.86.88-.49.15-.8.89-.33,1.26,3.63,2.85,8.84,2.92,12.46.14,1.67-1.29,3.03-2.88,4.34-4.52,1.85-2.33,4-4.41,6.39-6.19,10.05-7.46,23.24-10.14,35.35-12.13,24.3-4.01,52.13-2.09,71.89,14.13,4.29,3.52,8.1,7.63,11.2,12.24,3.52,5.22,6.7,10.96,8.39,17.05,1.93,6.93.59,13.72.34,20.76-.05,1.32-.77,6.8,2,5.87,2.29-.77,2.88-4.58,2.59-6.6-.78-5.58-6.78-9.09-11.51-11.04-5.64-2.32-11.91-2.85-17.89-3.76-13.91-2.11-27.99-2.74-41.92-4.73-6.3-.9-12.83-1.84-18.78-4.18-2.81-1.11-5.6-2.61-7.8-4.7-1.91-1.82-3.39-4.02-5.03-6.07-1.64-2.05-3.47-3.87-5.8-5.14-2.64-1.44-5.55-2.32-8.48-2.93-6.37-1.32-13.07-2.16-19.56-2.41-3.34-.13-6.67.03-9.97.56.13.48.27.97.4,1.45,3.56-1.35,5.8-4.38,8.38-7.01,1.53-1.56,3.2-2.9,5.3-3.58,2.42-.78,5.01-.83,7.53-.82,10.65.06,21.21,2.64,31.88,1.62,5.07-.48,9.98-1.85,14.75-3.6,4.56-1.67,9.16-3.52,13.41-5.89,4.19-2.33,7.75-5.31,10.79-9.01,3.03-3.69,5.69-7.71,9.35-10.83,3.28-2.79,7.57-5.32,11.86-6.09,2.28-.41,4.75-.06,7.05-.07,2.28-.01,4.88-.05,6.92-1.19,2.04-1.14,2.5-3.28,1.99-5.44-.91-3.9-3.39-7.37-5.89-10.41-2.73-3.32-5.83-6.3-8.91-9.28-6.57-6.36-13.88-11.86-22.27-15.6-8.68-3.87-17.86-5.42-27.34-4.84-9.74.59-19.31,3.01-28.5,6.18-1.76.61-3.75,1.1-4.99,2.58-.62.74.44,1.81,1.07,1.07,1.38-1.64,4.11-2.13,6.07-2.78,2.15-.72,4.33-1.39,6.51-2,4.54-1.27,9.16-2.3,13.84-2.94,9.39-1.3,18.93-.95,27.93,2.19,8.58,3,16.42,7.95,23.18,13.99,3.02,2.69,5.93,5.55,8.73,8.47,2.92,3.04,5.77,6.3,7.7,10.08.99,1.92,2.79,5.58.43,7.23-1.87,1.31-4.71,1.19-6.88,1.19-2.19,0-4.44-.24-6.62.06-3.69.5-7.49,2.54-10.5,4.64-7.56,5.28-11.32,14.21-18.93,19.43-3.89,2.68-8.25,4.58-12.62,6.34-4.63,1.87-9.37,3.55-14.3,4.47-10.23,1.91-20.56-.22-30.8-.89-4.51-.29-9.67-.72-13.94,1.08-3.39,1.43-5.58,4.44-8.08,6.98-1.31,1.33-2.75,2.54-4.52,3.21-.91.35-.56,1.61.4,1.45,6.89-1.11,13.87-.33,20.73.6,5.93.8,12.55,1.41,17.6,4.93,4.22,2.94,6.3,8,10.32,11.17,4.4,3.47,9.9,5.18,15.31,6.34,13.08,2.8,26.52,3.59,39.79,4.98,6.5.68,12.96,1.61,19.43,2.6,5.96.91,11.52,2.31,16.59,5.7,2.55,1.71,5.04,4.24,5.15,7.5.03.77-.09,1.53-.33,2.25-.1.3-.32,1-.59,1.25-.04.06-.08.13-.12.19-.55.23-.75.07-.61-.48-.24-.61-.04-1.67-.03-2.31.01-.94.06-1.88.12-2.82.42-6.48,1.31-12.75-.42-19.13-1.57-5.8-4.5-11.18-7.69-16.23-2.83-4.47-6.27-8.55-10.2-12.09-17.55-15.84-42.45-19.75-65.29-17.68-6.25.56-12.45,1.59-18.59,2.89-5.85,1.24-11.66,2.78-17.18,5.1-5.33,2.23-10.4,5.19-14.48,9.33-3.09,3.13-5.81,8.49-10.7,8.85-2.06.15-4.68-.46-6.34-1.77-.11.42-.22.84-.33,1.26,1.72-.53,3.43-1.1,5.16-1.58,4.13-1.14,8.45-1.61,12.72-1.68,8.72-.14,17.51,1.43,25.68,4.48,7.31,2.73,15.69,7.16,18.62,14.92,1.68,4.44.78,9.19-.55,13.59-1.19,3.92-2.9,7.66-5.06,11.14-4.28,6.9-10.35,12.79-17.53,16.6-1.13.6-2.25,1.05-3.54.69-1.13-.32-2.21-1.02-3.24-1.57-2-1.06-3.99-2.12-5.97-3.21-4.03-2.21-8-4.52-11.82-7.07-3.88-2.59-7.58-5.43-10.96-8.65-3.33-3.17-6.39-6.63-9.73-9.8-3.33-3.16-6.82-6.15-10.53-8.86-3.38-2.47-6.8-4.92-9.68-7.99-2.7-2.87-4.83-6.25-5.79-10.11-.64-2.58-1.05-5.83.32-8.26.75-1.33,2.05-2.07,3.54-2.28,2.22-.31,4.6-.15,6.83.04,4.9.42,9.77,1.68,14.25,3.71,1.71.78,4.54,2.18,4.06,4.49.18-.18.35-.35.53-.53-4.18,1.06-7.83-2.16-10.7-4.77-3.07-2.79-6.2-5.42-9.61-7.79-3.53-2.44-7.21-4.64-10.95-6.73-3.82-2.14-7.65-4.33-11.66-6.1-7.68-3.39-15.78-5.23-24.09-6.16-7.4-.83-15.33-1.31-22.25,1.96-3.73,1.76-6.65,4.65-9.21,7.82-2.56,3.17-4.84,6.56-6.82,10.12-3.93,7.07-6.69,14.81-8.1,22.78-.69,3.87-1.27,7.98-1.11,11.92.14,3.47,2.8,4.84,6,4.69,3.77-.18,7.65-1.24,11.28-2.21,3.95-1.05,7.83-2.33,11.67-3.7,15.18-5.4,30.46-12.71,46.89-12.85,2-.02,3.99.08,5.98.29.96.1.96-1.41,0-1.51h0Z"/></svg>