<svg version="1.1" xmlns="http://www.w3.org/2000/svg" xmlns:xlink="http://www.w3.org/1999/xlink" x="0px" y="0px" width="542px" height="120.788px" viewBox="0 0 542 120.788" xml:space="preserve"><g><path fill="#1a1a1a" d="M12.979 13.298c2.539-.722 5.079-1.441 6.991-1.944 2.445-.625 2.853 2.384.909 2.823-1.787.407-4.357 1.096-7.022 1.881 1.003 3.167 1.912 6.112 2.507 7.962.377 1.159-.282 2.008-1.034 2.29-.752.282-1.693 0-1.975-1.131-.502-1.942-1.38-5.014-2.383-8.275-2.79.846-5.517 1.693-7.43 2.351-2.07.689-3.01-2.226-.658-2.948 1.818-.564 4.451-1.378 7.242-2.193-.346-1.098-.69-2.196-1.004-3.23-1.943.534-3.855 1.067-5.486 1.443-2.258.531-2.853-2.32-.784-2.79C4.577 9.161 6.426 8.69 8.276 8.187 7.65 6.182 7.054 4.457 6.678 3.298c-.722-2.132 2.477-2.633 2.979-.91.313 1.128.878 2.915 1.505 4.986 1.787-.503 3.48-1.067 4.953-1.537 2.038-.658 2.696 2.196.784 2.79-1.411.44-3.104.973-4.891 1.474L12.979 13.298zM34.831 22.704c-2.1 1.034-4.891.407-4.797-2.915.094-3.576.156-11.192.062-13.294-.094-2.414 3.229-2.163 3.292-.061.062 2.224-.032 9.248-.126 11.63-.032.879.784 1.192 1.536.785 4.827-2.508 9.186-6.93 11.317-10.346 1.318-2.102 4.139-.127 2.884 1.817C46.494 14.239 40.129 20.071 34.831 22.704zM55.585 19.255c-2.884 1.756-4.515-1.441-2.383-2.478 5.768-2.821 11.757-8.59 15.299-14.169 1.379-2.165 4.138-.157 2.789 1.66-1.411 1.883-2.759 3.576-4.107 5.144-.094 3.197-.156 11.411-.062 14.545.062 2.384-3.323 2.666-3.291.094.031-2.506.156-7.617.188-11.286C61.541 15.179 58.845 17.28 55.585 19.255zM85.4 19.913c.188 4.483 5.079 4.295 6.709.816 1.097-2.351.219-4.422-1.536-6.333-1.63-1.787 1.066-3.449 2.445-1.85 2.446 2.821 3.323 5.8 2.132 8.966-2.257 5.957-12.258 6.991-12.509-1.38-.032-.877-.032-1.817.032-2.79-1.13-.094-2.006-.282-2.414-.376-2.54-.689-1.568-3.667.22-3.07.721.219 1.535.407 2.413.47.126-1.38.282-2.76.44-4.17-1.192-.157-2.195-.376-2.602-.534-2.383-.816-1.004-3.698.658-3.009.69.282 1.474.501 2.257.595.032-.376.094-.783.126-1.159.188-1.975.25-3.167.344-4.641.157-2.193 3.136-1.693 3.136.157 0 1.474-.314 2.664-.534 4.514-.031.376-.094.752-.125 1.128.282-.031.533-.094.783-.155 2.038-.47 2.571 2.32.722 2.852-.628.188-1.254.251-1.912.315-.188 1.411-.346 2.758-.47 4.074.533-.061 1.034-.155 1.505-.282 2.069-.564 2.853 2.196 1.003 2.821-.846.282-1.817.44-2.789.503C85.369 18.284 85.369 19.131 85.4 19.913zM105.84 26.089c-.783-1.159-2.507-2.602-3.855-3.291-.596-.313-.846-.783-.846-1.253 0-.722.564-1.38 1.473-1.38 1.098 0 6.113 2.758 6.113 4.89 0 1.004-.846 1.725-1.693 1.725C106.593 26.78 106.154 26.559 105.84 26.089zM131.171 13.298c2.539-.722 5.079-1.441 6.991-1.944 2.445-.625 2.853 2.384.909 2.823-1.787.407-4.357 1.096-7.022 1.881 1.003 3.167 1.912 6.112 2.507 7.962.377 1.159-.282 2.008-1.034 2.29-.752.282-1.693 0-1.975-1.131-.502-1.942-1.38-5.014-2.383-8.275-2.79.846-5.517 1.693-7.43 2.351-2.07.689-3.01-2.226-.658-2.948 1.818-.564 4.451-1.378 7.242-2.193-.346-1.098-.69-2.196-1.004-3.23-1.943.534-3.855 1.067-5.486 1.443-2.258.531-2.853-2.32-.784-2.79 1.724-.376 3.574-.846 5.423-1.349-.627-2.005-1.222-3.731-1.599-4.89-.722-2.132 2.477-2.633 2.979-.91.313 1.128.878 2.915 1.505 4.986 1.787-.503 3.48-1.067 4.953-1.537 2.038-.658 2.696 2.196.784 2.79-1.411.44-3.104.973-4.891 1.474L131.171 13.298zM159.671 13.362c-1.286.376-3.135 1.004-5.079 1.693.94 3.167 2.069 6.74 2.821 8.809.846 2.29-2.037 3.261-2.695 1.067-.628-2.132-1.694-5.738-2.666-8.966-1.316.47-2.539.94-3.542 1.316-1.85.689-2.634-1.944-.878-2.539 1.097-.376 2.319-.816 3.667-1.286-.376-1.222-.689-2.257-.94-3.042-.344-1.034.188-1.723.91-1.881.658-.157 1.473.219 1.724 1.067.219.719.533 1.754.877 2.976 2.07-.689 4.233-1.411 6.333-2.069 1.568-.47 3.511.376 2.853 2.32-.721 2.132-2.131 3.982-3.699 5.362-1.787 1.566-3.543-.722-1.944-2.038.878-.691 1.756-1.756 2.226-2.76L159.671 13.362zM174.31 15.901c-.816 0-1.694-.564-1.63-1.599.188-3.103.094-8.026-.063-11.004-.094-1.944 3.135-2.102 3.261-.125.157 2.821.157 8.181.094 11.098C175.941 15.336 175.125 15.901 174.31 15.901zM174.561 23.487c5.549-3.073 6.803-7.274 6.803-11.945 0-2.445-.157-6.333-.157-8.809 0-2.038 3.386-1.914 3.355 0-.062 2.666.094 6.176.094 8.778 0 5.393-1.63 10.816-8.12 14.547C173.965 27.532 172.586 24.585 174.561 23.487zM196.099 25.179c-1.254.785-2.414.44-2.948-.282-.533-.719-.407-1.817.847-2.445 5.266-2.602 7.054-7.774 6.584-12.321-.126-1.316.721-1.911 1.724-1.911.971 0 1.912.47 1.881 1.787 0 .376 0 .783-.032 1.159.094-.031.157-.094.251-.125 2.1-.846 4.483-2.257 5.706-3.949.47-.658.47-1.128-.344-1.128-3.512-.033-10.346.061-14.735.282-2.759.125-2.602-2.884-.251-3.011 4.546-.219 11.38-.188 16.083-.188 3.261 0 4.765 2.729 2.571 5.205-2.069 2.351-4.357 4.358-7.774 5.581-.722.251-1.348.188-1.788-.094C203.09 18.534 200.739 22.264 196.099 25.179zM227.733 19.913c.188 4.483 5.079 4.295 6.709.816 1.097-2.351.22-4.422-1.536-6.333-1.63-1.787 1.066-3.449 2.445-1.85 2.446 2.821 3.324 5.8 2.132 8.966-2.257 5.957-12.258 6.991-12.509-1.38-.032-.877-.032-1.817.032-2.79-1.13-.094-2.006-.282-2.414-.376-2.54-.689-1.568-3.667.22-3.07.721.219 1.535.407 2.413.47.126-1.38.282-2.76.44-4.17-1.192-.157-2.195-.376-2.602-.534-2.383-.816-1.004-3.698.658-3.009.69.282 1.474.501 2.257.595.032-.376.094-.783.126-1.159.188-1.975.25-3.167.344-4.641.157-2.193 3.136-1.693 3.136.157 0 1.474-.314 2.664-.534 4.514-.031.376-.094.752-.125 1.128.282-.031.533-.094.783-.155 2.038-.47 2.571 2.32.722 2.852-.628.188-1.254.251-1.912.315-.188 1.411-.346 2.758-.47 4.074.533-.061 1.034-.155 1.505-.282 2.069-.564 2.853 2.196 1.003 2.821-.846.282-1.817.44-2.789.503C227.702 18.284 227.702 19.131 227.733 19.913zM248.173 26.089c-.783-1.159-2.507-2.602-3.855-3.291-.596-.313-.846-.783-.846-1.253 0-.722.564-1.38 1.473-1.38 1.098 0 6.113 2.758 6.113 4.89 0 1.004-.846 1.725-1.693 1.725C248.926 26.78 248.487 26.559 248.173 26.089zM261.466 18.002c2.947-1.819 5.361-5.08 6.647-8.371.94-2.445 4.107-.816 3.165 1.253-1.818 3.952-4.263 7.431-7.837 9.939C261.34 22.297 259.303 19.349 261.466 18.002zM282.753 19.319c-.94-3.011-4.013-6.961-6.05-8.717-1.506-1.286.595-3.543 2.477-1.881 2.727 2.414 6.238 6.458 6.991 9.342C286.797 20.478 283.506 21.764 282.753 19.319zM295.293 16.653c-.438-.877-1.097-1.817-1.787-2.414-1.286-1.098.533-3.073 2.006-1.756.846.752 1.724 1.756 2.319 2.79C298.836 16.966 296.234 18.503 295.293 16.653zM294.667 25.149c-.282-.658-.094-1.505.783-1.881 5.236-2.196 8.622-6.615 9.876-11.851.502-2.038 3.543-1.098 2.947.816-1.787 5.924-5.267 10.722-11.443 13.513C295.763 26.216 294.979 25.84 294.667 25.149zM299.494 14.93c-.314-.94-.878-1.944-1.474-2.635-1.128-1.253.972-2.979 2.258-1.441.721.877 1.411 2.005 1.881 3.103C302.911 15.806 300.152 16.935 299.494 14.93zM320.312 18.284c-.062 1.535.627 2.287 2.508 2.539 1.818.249 6.896-.063 9.122-.846 2.383-.816 3.731 2.57.658 3.385-2.821.752-7.618.846-10.91.44-2.759-.346-4.42-2.132-4.451-4.704-.032-3.134.188-10.125.22-13.856 0-2.196 3.229-1.756 3.197.094-.031 1.693-.094 4.044-.156 6.364 2.477-.47 7.524-1.881 9.876-2.915 2.289-1.004 3.855 2.193 1.159 3.134-2.977 1.004-7.556 2.447-11.129 2.854C320.374 16.152 320.344 17.405 320.312 18.284zM334.921 8.22c-1.818 0-3.292-1.474-3.292-3.293 0-1.817 1.474-3.322 3.292-3.322 1.818 0 3.323 1.505 3.323 3.322C338.244 6.746 336.74 8.22 334.921 8.22zM334.921 3.298c-.878 0-1.568.752-1.568 1.629 0 .879.69 1.568 1.568 1.568.878 0 1.63-.689 1.63-1.568C336.552 4.05 335.799 3.298 334.921 3.298zM343.041 14.114c-1.128 0-1.662-.752-1.662-1.505 0-.785.596-1.599 1.662-1.599h19.688c1.066 0 1.599.783 1.599 1.566 0 .752-.533 1.537-1.599 1.537H343.041zM377.59 19.913c.188 4.483 5.079 4.295 6.709.816 1.097-2.351.22-4.422-1.536-6.333-1.63-1.787 1.066-3.449 2.445-1.85 2.446 2.821 3.324 5.8 2.132 8.966-2.257 5.957-12.258 6.991-12.509-1.38-.032-.877-.032-1.817.032-2.79-1.13-.094-2.006-.282-2.414-.376-2.54-.689-1.568-3.667.22-3.07.721.219 1.535.407 2.413.47.126-1.38.282-2.76.44-4.17-1.192-.157-2.195-.376-2.602-.534-2.383-.816-1.004-3.698.658-3.009.69.282 1.474.501 2.257.595.032-.376.094-.783.126-1.159.188-1.975.25-3.167.344-4.641.157-2.193 3.136-1.693 3.136.157 0 1.474-.314 2.664-.534 4.514-.031.376-.094.752-.125 1.128.282-.031.533-.094.783-.155 2.038-.47 2.571 2.32.722 2.852-.628.188-1.254.251-1.912.315-.188 1.411-.346 2.758-.47 4.074.533-.061 1.034-.155 1.505-.282 2.069-.564 2.853 2.196 1.003 2.821-.846.282-1.817.44-2.789.503C377.559 18.284 377.559 19.131 377.59 19.913zM17.055 64.213c-.032 1.128-.157 2.287-.314 3.479-.47 3.197-2.853 5.769-6.647 5.769-2.037 0-3.981-.47-3.981-2.069 0-.785.533-1.537 1.411-1.537.157 0 .346.033.534.094.721.221 1.411.346 2.069.346 3.386 0 3.574-3.103 3.762-6.082L1.536 64.274C.47 64.274 0 63.585 0 62.896c0-.785.564-1.568 1.536-1.568l12.352.063c-.063-1.192-.188-2.384-.376-3.512l-9.938.063c-1.066 0-1.536-.691-1.536-1.38 0-.785.564-1.568 1.536-1.568l9.217.063c-.533-1.568-1.254-2.823-2.132-3.576-2.445.188-4.733.282-6.364.282-1.034 0-1.568-.752-1.568-1.472 0-.722.502-1.411 1.506-1.411h.031c.44 0 .91.031 1.38.031 4.827 0 10.252-.597 14.672-1.693.157-.033.314-.063.47-.063.941 0 1.442.816 1.442 1.599 0 .597-.313 1.161-.94 1.316-1.755.409-4.357.816-7.085 1.098.69.94 1.348 2.257 1.818 3.888l7.65-.063c.972 0 1.474.752 1.474 1.505 0 .722-.47 1.443-1.474 1.443l-6.991-.063c.188 1.098.282 2.287.346 3.512l8.684-.063c.972 0 1.474.752 1.474 1.505 0 .722-.471 1.441-1.474 1.441L17.055 64.213zM34.925 70.889c-2.508-6.176-.032-15.455.532-19.185.346-2.32 3.386-1.631 3.041.188-.501 2.539-2.383 9.906-1.63 12.822.094.409.22.315.346.033.062-.157.408-.785.533-1.004.972-1.537 2.916-.033 2.195 1.222-1.16 2.038-1.661 3.479-1.849 4.389-.188.846.188 1.817-.596 2.508C36.712 72.551 35.552 72.427 34.925 70.889zM43.327 68.665c-1.286-1.413.596-3.637 2.226-2.165 1.693 1.537 5.454 1.034 7.9.534 2.539-.534 2.696 2.79.627 3.324C50.725 71.204 45.584 71.11 43.327 68.665zM45.114 56.154c-1.724.44-2.727-2.351-.438-2.915 2.79-.689 6.05-.719 8.244-.188 2.195.534 1.6 3.481-.533 3.009C50.131 55.59 47.748 55.496 45.114 56.154zM75.995 51.986c.91 6.27 5.111 13.919 11.38 17.337.658.376.94.908.94 1.441 0 .971-.909 1.975-2.069 1.975-.344 0-.752-.094-1.128-.346-4.859-3.07-8.496-8.527-10.502-13.981-1.85 5.83-5.393 11.254-11.506 14.514-.344.188-.69.251-1.003.251-1.035 0-1.788-.846-1.788-1.725 0-.564.314-1.159 1.066-1.535 7.618-3.919 10.942-11.35 11.6-18.026-.094-1.192-.188-1.631-1.034-1.631-.032 0-.063 0-.094 0l-4.452.221c-.032 0-.062 0-.094 0-.94 0-1.442-.752-1.442-1.537 0-.752.47-1.535 1.474-1.535 1.254-.033 2.665-.063 4.075-.063.346 0 .658 0 1.004 0 1.881.031 3.355 1.067 3.417 2.76.032.564.062 1.159.156 1.754h.032L75.995 51.986zM97.125 68.665c-1.411 2.476-4.577.564-2.853-1.474.094-.127.188-.221.25-.282 1.38-1.881 3.417-4.61 4.671-6.991.063-.628.094-1.222.157-1.85-.722.251-1.6.628-2.383 1.128-2.164 1.38-3.136-1.693-1.442-2.476 1.128-.534 2.633-1.161 4.107-1.725.219-2.351.47-4.452.627-5.83.25-2.071 3.198-1.413 2.884.313-.22 1.128-.44 2.696-.658 4.514 1.003-.125 1.881.816 1.411 2.29.376-.346.752-.691 1.098-.973 4.859-3.98 9.405-3.698 8.997 2.541-.125 1.881-.627 5.203-.783 6.991-.314 3.573 1.535 3.197 3.637.971 1.599-1.693 3.573.595 2.257 2.069-3.981 4.358-9.594 3.855-8.872-3.073.156-1.662.721-5.047.815-6.928.094-2.226-.376-3.919-4.765-.282-1.505 1.253-2.979 2.381-4.483 4.076-.188 3.479-.156 6.928.25 9.309.376 2.165-2.915 2.884-3.165.251-.126-1.38-.126-3.449-.032-5.8C98.191 66.564 97.627 67.755 97.125 68.665zM138.601 68.162c2.289-2.038 2.195-5.017.408-6.206-1.63-1.098-5.016-1.316-8.182.531-1.254.722-1.912 1.286-2.634 2.353-1.128 1.66-4.263-.188-2.319-2.102 3.448-3.418 5.988-5.83 9.468-10.125.344-.44.031-.315-.22-.188-.878.47-2.947 1.096-5.267 1.599-2.477.531-2.947-2.572-.816-2.823 2.1-.249 5.111-1.002 6.897-1.535 2.508-.722 4.577 1.505 3.01 3.261-1.004 1.128-2.258 2.351-3.511 3.512-1.254 1.159-2.508 2.287-3.637 3.385 2.759-1.474 6.49-1.474 8.809-.094 4.515 2.696 3.042 8.214-.25 10.595-3.104 2.226-7.994 2.353-10.377.785-3.324-2.163-1.85-6.051 1.849-6.176 2.508-.094 4.859 1.411 4.953 4.232C137.379 69.041 138.037 68.665 138.601 68.162zM131.924 67.222c-1.379.125-1.442 1.411-.438 1.944.721.376 1.755.501 2.633.47C134.15 68.193 133.303 67.097 131.924 67.222zM152.335 73.806c-1.976 0-3.574-1.601-3.574-3.576 0-1.975 1.599-3.573 3.574-3.573 1.975 0 3.573 1.599 3.573 3.573C155.908 72.206 154.309 73.806 152.335 73.806zM152.335 67.88c-1.318 0-2.384 1.034-2.384 2.351s1.066 2.384 2.384 2.384c1.316 0 2.383-1.067 2.383-2.384S153.651 67.88 152.335 67.88zM183.403 50.042c2.195.125 3.761 1.505 3.825 3.573.062 2.008.094 5.174.094 8.214 0 2.602-.032 5.141-.063 6.709-.094 2.915-1.755 4.14-4.797 4.264-1.222.063-2.759.094-4.295.094-7.492 0-10.032-.063-10.157-4.295-.063-1.881-.094-4.546-.094-7.243 0-2.727.031-5.487.094-7.556.156-3.792 3.009-3.825 6.332-3.825.376-1.159.69-2.508.816-3.322.094-.691.815-1.004 1.567-1.004.878 0 1.85.47 1.85 1.38 0 .531-.408 1.599-.972 2.915C179.861 49.948 182.18 49.948 183.403 50.042zM184.406 59.29h-13.637v3.794h13.637V59.29zM184.374 56.626c0-.722-.031-1.38-.062-1.914-.094-2.132-.784-2.132-6.552-2.132-1.85 0-3.637.033-4.641.094-2.226.127-2.32 1.034-2.32 3.952H184.374zM170.799 65.748c0 .846.032 1.631.063 2.226.062 2.069.815 2.132 6.96 2.132 1.536 0 3.104-.031 4.139-.094 2.413-.125 2.413-1.347 2.413-4.264H170.799zM208.326 59.603c-1.63 11.192-10.502 13.701-11.506 13.701-.94 0-1.567-.752-1.567-1.535 0-.564.344-1.161 1.191-1.411 5.863-1.819 8.057-5.99 8.747-10.755-1.004 0-1.976.033-2.822.033-.877 0-1.348-.628-1.348-1.286 0-.063 0-.125 0-.188-1.411 1.629-3.636 3.825-5.016 3.825-.972 0-1.693-.783-1.693-1.599 0-.47.25-.973.846-1.349 3.073-1.911 4.703-4.168 6.207-7.022.376-.689.909-.971 1.442-.971.878 0 1.693.719 1.693 1.599 0 1.034-2.383 4.201-2.539 4.389.125-.031.25-.063.407-.063 1.318-.031 2.79-.031 4.295-.031 2.07 0 4.201 0 5.989.031 2.1.033 3.323 1.316 3.323 3.449 0 6.082-.188 12.76-7.117 12.76-.971 0-2.006-.157-3.103-.44-.722-.188-1.066-.816-1.066-1.441 0-.816.564-1.631 1.505-1.631.157 0 .314.033.47.063.941.251 1.756.376 2.446.376 2.195 0 3.761-1.065 3.761-8.809 0-.157 0-.315 0-.47 0-.879-.438-1.225-1.097-1.225H208.326zM204.251 49.978c-.032 0-.032 0-.063 0-.972 0-1.473-.719-1.473-1.472 0-.722.47-1.474 1.473-1.474l5.142-.094c.031 0 .094 0 .125 0 1.568 0 2.979.501 3.637 1.944 1.818 3.792 4.201 6.834 7.963 9.185.658.407.909.94.909 1.505 0 .94-.815 1.85-1.849 1.85-1.756 0-6.49-4.483-9.437-10.628-.313-.722-.909-.971-1.787-.971-.062 0-.094 0-.156 0L204.251 49.978zM235.729 73.242c-2.54.501-3.355-2.602-.69-3.136 1.63-.313 3.229-.783 4.201-1.347 3.449-2.008 4.389-4.17 3.731-5.426-.658-1.253-2.947-1.723-6.271-.219-1.849.846-3.825 2.32-4.201 2.696-1.849 1.787-3.103.91-3.667-.188-.564-1.098-.502-3.042-.251-5.329.251-2.29.658-4.704.91-6.303.314-2.005 3.167-1.944 2.884.315-.157 1.316-.502 3.073-.752 4.577-.251 1.535-.408 2.696-.189 3.261.094.249.251.249.534.094.627-.346 2.1-1.161 3.573-1.787 9.468-4.109 16.147 4.356 5.549 10.847C239.772 72.112 237.797 72.833 235.729 73.242zM235.603 53.239c-1.505.376-2.634-1.629-1.316-2.351.156-.094.47-.251.25-.407-.658-.409-1.724-.91-2.226-1.474-1.348-1.474.722-3.136 2.289-2.008.564.409 1.63.879 2.54 1.474.909.597 1.724 1.349 1.787 2.29.062.908-.408 1.944-1.975 2.193C236.543 53.02 236.105 53.114 235.603 53.239zM254.663 66.03c-.126-3.291.22-5.957.376-9.279.094-2.038.314-5.111.25-7.055-.062-2.32 3.48-2.132 3.418-.061-.063 1.975-.283 4.953-.44 7.053-.22 3.324-.69 6.176-.564 9.218.188 4.577 5.769 4.264 11.224-.031 2.037-1.601 3.949 1.284 2.163 2.727C264.978 73.586 254.946 74.495 254.663 66.03zM285.732 72.144c-1.818-3.573-4.483-7.65-6.647-10.189-2.069-2.414-2.069-4.641.377-7.179 2.131-2.226 4.545-4.546 6.426-7.085 1.442-1.914 4.264.313 2.79 2.132-1.568 1.911-4.891 4.638-6.834 6.582-1.348 1.349-1.412 2.29-.376 3.573 3.135 3.919 5.8 6.867 7.336 10.221C289.777 72.3 286.735 74.15 285.732 72.144zM297.519 72.3c-.752 0-1.473-.595-1.473-1.347 0-.313.094-.628.376-.971 2.257-2.696 2.79-6.897 2.853-9.688 0-.722.596-1.034 1.192-1.034.658 0 1.347.376 1.347 1.034 0 .061-.031 7.398-3.009 11.317C298.461 72.081 297.991 72.3 297.519 72.3zM302.912 58.82h-4.797c-.878 0-1.348-.689-1.348-1.347s.44-1.319 1.318-1.319h.031l3.167.033-.126-8.778v-.033c0-.908.722-1.347 1.474-1.347.721 0 1.442.44 1.442 1.347v.033l-.094 5.8c.376-.783.94-2.226 1.222-3.197.156-.564.564-.816 1.004-.816.658 0 1.379.534 1.379 1.316 0 .282-.126 1.098-1.661 3.761-.22.376-.596.534-.941.534-.407 0-.815-.188-1.003-.534l-.032 1.914 2.884-.033h.032c.846 0 1.254.628 1.254 1.286 0 .691-.471 1.38-1.286 1.38h-1.38l-.031 6.303c.627-.346 1.222-.722 1.787-1.131.22-.155.47-.219.69-.219.627 0 1.16.534 1.16 1.161 0 .343-.188.752-.628 1.065-1.881 1.411-5.047 3.23-5.894 3.23-.784 0-1.286-.658-1.286-1.319 0-.814.816-1.19 1.694-1.535L302.912 58.82zM298.649 53.991c-.314-1.128-1.13-2.445-1.442-2.884-.126-.219-.188-.407-.188-.595 0-.658.689-1.128 1.379-1.128.314 0 .628.125.846.346.753.783 1.818 2.727 1.818 3.667 0 .877-.689 1.441-1.348 1.441C299.275 54.838 298.837 54.588 298.649 53.991zM317.083 69.385v3.042c0 .877-.69 1.316-1.38 1.316-.721 0-1.411-.44-1.411-1.316l.032-3.042-6.051.033c-.846 0-1.286-.628-1.286-1.255 0-.595.44-1.222 1.286-1.222l6.051.031v-1.723c-5.455 0-5.519-.752-5.519-4.953 0-4.14.658-4.546 5.549-4.546v-1.474l-2.979.033c-.783 0-1.191-.503-1.253-1.067-.251.251-.628.376-.972.376-.658 0-1.316-.407-1.348-1.222 0-.407-.032-.816-.032-1.253 0-2.196.188-3.858 3.041-3.888 1.506-.031 3.198-.063 4.891-.063 1.724 0 3.449.033 5.017.063 1.661.031 3.135.971 3.135 2.821 0 .503.032 1.161.032 1.787 0 .503 0 1.662-1.474 1.662-.376 0-.752-.094-1.004-.343-.031.595-.47 1.128-1.316 1.128l-3.073-.033v1.443c4.891 0 5.707.249 5.707 4.577 0 4.796-.564 4.953-5.675 4.953l.032 1.723 6.301-.031c.846 0 1.254.628 1.254 1.222 0 .628-.408 1.255-1.254 1.255L317.083 69.385zM321.064 50.825c0-.908-.502-1.096-1.568-1.128-1.128-.031-2.789-.031-4.326-.031-4.515 0-4.735.094-4.735 1.128v1.474c.22-.221.534-.376.94-.376l2.979.031v-.689c0-.816.658-1.222 1.316-1.222.69 0 1.348.407 1.348 1.222v.689l3.073-.031c.408 0 .752.155.972.376V50.825zM314.355 57.816c-2.507 0-2.79 0-2.853 1.286l-.032.346h2.854L314.355 57.816zM314.324 61.359h-2.854c0 .221.032.44.032.628.094 1.065.314 1.128 2.822 1.128V61.359zM319.998 58.977c-.031-1.161-.438-1.161-2.947-1.161v1.631h2.979L319.998 58.977zM317.051 61.359v1.756c2.195 0 2.916-.063 2.947-1.159 0-.221.032-.409.032-.597H317.051zM339.028 72.144c-1.818-3.573-4.483-7.65-6.647-10.189-2.069-2.414-2.069-4.641.377-7.179 2.131-2.226 4.545-4.546 6.426-7.085 1.442-1.914 4.264.313 2.79 2.132-1.568 1.911-4.891 4.638-6.834 6.582-1.348 1.349-1.412 2.29-.376 3.573 3.135 3.919 5.8 6.867 7.336 10.221C343.073 72.3 340.031 74.15 339.028 72.144zM354.452 73.115c-.783-1.159-2.507-2.602-3.855-3.291-.596-.313-.846-.783-.846-1.253 0-.722.564-1.38 1.473-1.38 1.098 0 6.113 2.758 6.113 4.89 0 1.004-.846 1.725-1.693 1.725C355.206 73.806 354.766 73.586 354.452 73.115zM8.716 110.736c-1.097-3.04.596-5.297 2.508-5.894.909-.282 1.85-.407 2.696-.282-.032-.689-.063-1.629-.094-2.539-2.634.251-5.235.628-6.866.877-2.258.346-3.731.754-4.672.91-2.1.376-2.727-2.758-.25-3.167 1.254-.219 3.292-.437 4.609-.658 1.567-.249 4.389-.595 7.148-.846 0-.188 0-.407 0-.564.032-1.944-.156-2.069-.156-3.073 0-2.287 3.167-2.069 3.291-.094.032.722-.062 2.163-.125 3.009 0 .157-.032.315-.032.47.909-.061 1.724-.094 2.414-.094 1.536 0 2.633-.031 4.765 0 2.633.063 2.508 3.387 0 3.199-2.226-.188-2.979-.188-4.923-.221-.721 0-1.473.033-2.289.063.032 1.004.063 1.975.063 2.884 0 .44.062 1.098.094 1.787 2.789 4.389-.534 11.035-3.857 13.701-2.1 1.662-4.829-.564-2.1-2.508 1.505-1.065 2.821-2.821 3.574-4.608C12.447 114.154 9.72 113.559 8.716 110.736zM13.983 107.445c-.438-.376-1.348-.44-2.006-.125-.752.346-1.254 1.316-.909 2.381.564 1.693 3.291 1.693 3.605-.531.094-.658 0-.94-.188-1.192C14.327 107.79 14.171 107.602 13.983 107.445zM40.411 106.41c-1.567-1.159-2.383-1.098-3.699-.063-1.505 1.192-2.979 2.541-4.639 3.512-2.07 1.222-4.327-1.629-1.818-2.948.784-.407 3.167-1.848 4.765-2.976 2.727-1.944 4.827-1.537 7.085.094 4.013 2.882 8.37 6.676 12.728 8.933 2.038 1.034.377 4.328-2.037 3.136C49.002 114.217 44.048 109.107 40.411 106.41zM44.989 102.868c-1.662-.722-.408-2.696 1.128-2.132.878.315 2.571 1.222 3.291 2.008 1.286 1.38-.627 3.355-1.724 2.069C47.246 104.311 45.647 103.15 44.989 102.868zM47.998 99.983c-1.693-.658-.47-2.664 1.066-2.163.878.282 2.602 1.128 3.355 1.881 1.316 1.316-.534 3.385-1.662 2.132C50.319 101.333 48.657 100.235 47.998 99.983zM69.003 104.154c.314-.595.596-1.098 1.003-1.631.502-.658.346-.625-.25-.437-2.351.752-1.818.752-3.951 1.568-1.003.376-1.881.689-2.821.94-2.759.752-3.574-2.854-1.066-3.387.658-.155 2.477-.501 3.48-.752 1.535-.376 4.263-1.002 7.46-1.911 3.23-.91 5.801-1.662 8.559-1.85 1.944-.125 2.477 1.411 2.132 2.414-.188.534-.878 1.159-3.073 1.034-1.6-.094-3.606.501-4.671.877-1.756.628-3.324 2.508-4.013 3.67-2.76 4.608-.658 11.192 6.364 10.941 3.292-.125 3.48 3.573.156 3.543C68.846 119.138 65.586 110.454 69.003 104.154zM100.918 102.367c-.502 3.98-3.324 9.906-6.333 12.697-2.414 2.226-5.047 1.004-6.427-1.693-1.975-3.888.126-9.718 4.327-12.636 3.857-2.664 9.593-3.103 13.543-.719 4.859 2.915 5.643 8.684 2.916 13.167-1.474 2.414-4.546 4.356-7.65 5.172-2.759.722-3.731-2.445-1.035-3.073 2.384-.534 4.797-1.881 5.831-3.51 2.226-3.512 1.38-7.619-1.723-9.594-1.224-.785-2.54-1.161-3.888-1.255C100.824 101.238 101.012 101.739 100.918 102.367zM93.957 102.962c-2.915 2.257-4.483 6.427-3.165 8.841.47.91 1.285 1.38 2.069.689 2.351-2.069 4.545-7.053 4.859-10.44.032-.376.126-.719.282-.971C96.56 101.394 95.149 102.052 93.957 102.962zM119.322 118.449c-.283-.816.094-1.85 1.535-2.163 7.211-1.568 10.754-7.774 11.036-12.854.062-1.253-.408-1.787-1.63-1.85-2.226-.125-7.211-.031-8.746.033-1.004.061-1.662.689-1.694 1.505-.031.816.032 3.009.126 4.074.156 2.102-3.198 2.541-3.355.251-.094-1.316-.062-4.546 0-5.487.094-1.693.94-3.103 4.451-3.167 2.572-.061 6.271-.125 9.814-.094 3.637.033 4.765 1.225 4.483 4.861-.502 6.865-4.953 13.48-13.575 15.958C120.544 119.86 119.604 119.232 119.322 118.449zM142.709 108.166c-1.128 0-1.662-.752-1.662-1.505 0-.785.596-1.599 1.662-1.599h19.688c1.066 0 1.599.783 1.599 1.566 0 .752-.533 1.537-1.599 1.537H142.709zM181.898 107.351c2.539-.722 5.079-1.441 6.991-1.944 2.445-.625 2.853 2.384.909 2.823-1.787.407-4.357 1.096-7.022 1.881 1.003 3.167 1.912 6.112 2.507 7.962.377 1.159-.282 2.008-1.034 2.29-.752.282-1.693 0-1.975-1.131-.502-1.942-1.38-5.014-2.383-8.275-2.79.846-5.517 1.693-7.43 2.351-2.07.689-3.01-2.226-.658-2.948 1.818-.564 4.451-1.378 7.242-2.193-.346-1.098-.69-2.196-1.004-3.23-1.943.534-3.855 1.067-5.486 1.443-2.258.531-2.853-2.32-.784-2.79 1.724-.376 3.574-.846 5.423-1.349-.627-2.005-1.222-3.731-1.599-4.89-.722-2.132 2.477-2.633 2.979-.91.313 1.128.878 2.915 1.505 4.986 1.787-.503 3.48-1.067 4.953-1.537 2.038-.658 2.696 2.196.784 2.79-1.411.44-3.104.973-4.891 1.474L181.898 107.351zM203.342 105.251c-1.16-1.067-3.167-1.977-4.641-2.32-1.881-.44-1.097-3.606 1.286-2.948 1.661.47 4.013 1.316 5.517 2.384.972.689.909 1.881.408 2.602C205.411 105.689 204.313 106.128 203.342 105.251zM201.398 118.198c-2.665.846-3.668-2.727-1.066-3.385 6.301-1.599 12.635-8.089 15.801-14.232 1.003-1.944 4.232-.628 2.853 1.848C215.099 109.483 208.608 115.91 201.398 118.198zM235.759 98.73c1.348-.094 2.884-.188 4.139-.251 2.413-.125 4.514 1.568 3.354 3.794-3.825 7.304-8.15 13.637-16.96 17.117-2.665 1.034-3.951-2.038-1.348-2.946 6.96-2.414 12.133-8.653 14.453-13.983.25-.597 0-1.192-.752-1.161-1.318.033-3.606.251-5.017.409-2.132 2.821-4.891 6.112-7.054 7.586-2.1 1.411-3.951-1.316-1.818-2.633 3.01-1.85 7.085-7.588 8.528-10.064 1.034-1.756 4.169-.251 2.696 1.85L235.759 98.73zM242.343 97.068c-1.599-.658-.344-2.539 1.097-2.008.847.315 2.414 1.131 3.104 1.883 1.222 1.316-.596 3.228-1.63 2.005C244.505 98.448 242.969 97.35 242.343 97.068zM245.195 94.372c-1.599-.628-.47-2.508 1.004-2.038.846.282 2.445 1.067 3.165 1.787 1.254 1.255-.533 3.23-1.599 2.038C247.328 95.688 245.822 94.623 245.195 94.372zM265.198 100.423c1.474 0 2.884.031 4.107.063 2.258.061 3.919 1.253 3.794 3.543-.408 6.676-4.39 13.292-13.763 15.643-2.226.564-3.167-2.602-.816-3.073 7.368-1.474 10.816-6.928 11.067-11.757.063-1.002-.407-1.599-1.473-1.662-2.571-.125-7.431-.094-9.28 0-1.034.063-1.442.879-1.442 1.568 0 .752.062 2.666.094 3.606.032 1.944-3.229 2.132-3.261.157-.032-.91 0-2.948-.032-4.516-.062-2.758 2.634-3.449 3.857-3.479 1.222-.031 2.571-.063 3.951-.063 0-1.222-.032-2.979-.032-3.761 0-1.034.815-1.537 1.63-1.537.815 0 1.599.503 1.599 1.474V100.423zM280.653 108.166c-1.128 0-1.662-.752-1.662-1.505 0-.785.596-1.599 1.662-1.599h19.688c1.066 0 1.599.783 1.599 1.566 0 .752-.533 1.537-1.599 1.537H280.653zM323.949 113.841c.564 1.065.126 2.038-.596 2.508-.721.47-1.693.437-2.289-.534-1.128-1.787-4.859-5.017-7.398-6.209-1.724-.814-.22-3.51 1.975-2.381 1.192.595 2.571 1.411 3.887 2.32 1.788-1.098 5.017-3.576 6.459-5.017.407-.407.658-1.065-.282-1.065-3.919-.033-11.569.094-16.428.282-2.352.094-2.571-3.105-.032-3.167 4.922-.094 12.635-.251 17.838-.157 2.822.031 4.859 2.414 2.947 4.577-1.881 2.163-5.141 4.765-7.932 6.585C322.883 112.337 323.541 113.089 323.949 113.841zM343.481 105.251c-1.16-1.067-3.167-1.977-4.641-2.32-1.881-.44-1.097-3.606 1.286-2.948 1.661.47 4.013 1.316 5.517 2.384.972.689.909 1.881.408 2.602C345.549 105.689 344.452 106.128 343.481 105.251zM341.537 118.198c-2.665.846-3.668-2.727-1.066-3.385 6.301-1.599 12.635-8.089 15.801-14.232 1.003-1.944 4.232-.628 2.853 1.848C355.237 109.483 348.747 115.91 341.537 118.198zM378.373 102.367c-.502 3.98-3.324 9.906-6.333 12.697-2.414 2.226-5.047 1.004-6.427-1.693-1.975-3.888.126-9.718 4.327-12.636 3.855-2.664 9.593-3.103 13.543-.719 4.859 2.915 5.643 8.684 2.916 13.167-1.474 2.414-4.546 4.356-7.65 5.172-2.759.722-3.731-2.445-1.035-3.073 2.384-.534 4.797-1.881 5.831-3.51 2.226-3.512 1.38-7.619-1.724-9.594-1.222-.785-2.539-1.161-3.887-1.255C378.279 101.238 378.467 101.739 378.373 102.367zM371.412 102.962c-2.915 2.257-4.483 6.427-3.165 8.841.47.91 1.285 1.38 2.069.689 2.351-2.069 4.545-7.053 4.859-10.44.032-.376.126-.719.282-.971C374.015 101.394 372.604 102.052 371.412 102.962zM396.872 117.885c-.941 2.102-4.264 1.192-2.947-1.474 1.347-2.758 3.573-7.523 5.486-13.607-1.662.188-3.261.127-4.577-.437-1.599-.691-1.286-3.543 1.066-2.696 1.316.47 2.853.47 4.327.188.188-1.161.062-2.008-.032-3.385-.126-1.789 2.821-1.883 3.135-.157.126.783.126 1.629.032 2.508.438-.221.815-.44 1.191-.658 1.63-1.067 3.574 1.535 1.222 2.696-.877.437-2.006.908-3.165 1.253C400.633 108.982 398.408 114.406 396.872 117.885zM404.49 116.474c-1.348-1.505.596-3.982 2.226-2.32 1.599 1.631 3.511 1.474 7.178 1.159 2.29-.188 2.478 2.823.408 3.23C409.757 119.453 405.869 118.01 404.49 116.474zM408.033 105.533c-1.63.595-2.602-1.975-.534-2.696 1.6-.564 4.452-.94 7.525.155 2.1.754 1.254 3.512-.722 2.854C412.547 105.251 409.693 104.906 408.033 105.533zM430.573 113.653c-3.7 3.98-6.991 2.602-7.838-1.349-.658-3.009.846-6.458 3.449-8.936-.22-.658-.44-1.347-.596-2.036-.157-.628-.47-2.071-.596-2.729-.533-2.6 3.009-2.57 3.135-.343.063.94.126 1.474.314 2.602.032.219.094.47.156.689.22-.125.408-.251.628-.346 1.599-.814 3.479-1.253 5.361-1.316.25-1.253.407-2.539.407-3.385-.031-2.196 3.23-1.944 3.104.346-.063 1.096-.188 2.13-.44 3.322 2.916.658 5.425 2.478 6.301 5.675 1.63 5.8-2.225 10.127-7.649 12.069-2.384.879-3.919-2.099-1.192-2.915 5.455-1.662 6.678-5.266 5.925-8.244-.596-2.384-2.163-3.67-4.045-4.201-.094.282-.188.595-.313.91-.722 1.942-1.882 4.262-3.198 6.331.126.094.25.221.408.315.721.501.627 1.411.22 1.944-.408.531-1.224.846-2.07.313-.094-.063-.156-.094-.25-.157C431.387 112.744 430.979 113.214 430.573 113.653zM427.154 106.004c-1.316 1.662-2.069 3.604-1.755 5.266.47 2.445 1.943 1.756 2.821.846.47-.47.972-1.098 1.505-1.787C428.691 109.107 427.844 107.602 427.154 106.004zM430.196 103.432c-.314.157-.628.346-.91.564.533 1.411 1.222 2.696 2.132 3.825 1.034-1.693 1.943-3.51 2.445-5.078.032-.127.094-.282.126-.44C432.641 102.428 431.293 102.837 430.196 103.432zM452.143 117.915c-2.508-6.176-.032-15.455.533-19.185.346-2.32 3.386-1.631 3.041.188-.501 2.539-2.383 9.906-1.63 12.822.094.409.22.315.346.033.062-.157.408-.785.533-1.004.972-1.537 2.916-.033 2.195 1.222-1.16 2.038-1.661 3.479-1.849 4.389-.188.846.188 1.817-.596 2.508C453.929 119.577 452.769 119.453 452.143 117.915zM460.545 115.691c-1.286-1.413.596-3.637 2.226-2.165 1.693 1.537 5.454 1.034 7.9.534 2.539-.534 2.696 2.79.627 3.324C467.943 118.23 462.801 118.136 460.545 115.691zM462.331 103.18c-1.724.44-2.727-2.351-.438-2.915 2.79-.689 6.05-.719 8.244-.188 2.195.534 1.6 3.481-.533 3.009C467.348 102.616 464.965 102.522 462.331 103.18zM485.06 107.508c-.319 0-.489-.44-.489-.91 0-.44.169-.91.489-.91h56.451c.32 0 .489.47.489.91 0 .47-.168.91-.489.91H485.06z"/></g></svg>