<svg version="1.1" xmlns="http://www.w3.org/2000/svg" xmlns:xlink="http://www.w3.org/1999/xlink" x="0px" y="0px" width="22.834px" height="24.671px" viewBox="0 0 22.834 24.671" xml:space="preserve"><g><path fill="#966e00" d="M12.058,0l8.455,21.76c0.323,0.855,0.699,1.433,1.126,1.732c0.427,0.301,0.826,0.462,1.196,0.485v0.693 c-0.554-0.046-1.207-0.075-1.958-0.087c-0.751-0.011-1.507-0.017-2.27-0.017c-0.97,0-1.871,0.006-2.703,0.017 c-0.832,0.012-1.502,0.04-2.01,0.087v-0.693c1.178-0.046,1.923-0.248,2.235-0.606c0.312-0.358,0.236-1.126-0.225-2.304L9.667,4.228 l0.554-0.624L4.47,18.642c-0.416,1.04-0.664,1.906-0.745,2.599c-0.081,0.693-0.023,1.236,0.173,1.629 c0.196,0.393,0.537,0.67,1.022,0.831c0.485,0.162,1.085,0.254,1.802,0.277v0.693c-0.693-0.046-1.392-0.075-2.096-0.087 c-0.705-0.011-1.369-0.017-1.992-0.017c-0.554,0-1.045,0.006-1.473,0.017C0.733,24.596,0.347,24.625,0,24.671v-0.693 c0.485-0.115,0.97-0.404,1.455-0.866c0.485-0.462,0.947-1.248,1.386-2.356L10.88,0c0.185,0,0.381,0,0.589,0 C11.677,0,11.873,0,12.058,0z M15.696,14.692v0.693H5.371l0.347-0.693H15.696z"/></g></svg>