<svg version="1.1" xmlns="http://www.w3.org/2000/svg" xmlns:xlink="http://www.w3.org/1999/xlink" x="0px" y="0px" width="58px" height="58px" viewBox="0 0 58 58" xml:space="preserve"><g><g><path fill="none" stroke="#d13e2e" stroke-width="1.5" stroke-linecap="round" stroke-linejoin="round" stroke-miterlimit="10" d="M35.8,35l6.2,3.5l9.2-16.2l-1.8-1c0,0,0-0.1,0-0.1c0,0,0,0,0.1,0c0,0,0,0,0,0l1.8,1l4.8-8.4l-5-2.8l-0.3,0.4 c-0.7,0.9-1.8,1.4-2.9,1.4c-0.6,0-1.3-0.2-1.8-0.5c-1.6-0.9-2.3-2.8-1.6-4.5l0.2-0.5l-5-2.8l-4.8,8.4l1.8,1c0,0,0,0,0,0 c0,0,0,0,0,0c0,0,0,0-0.1,0c0,0,0,0,0,0l-1.8-1l-9.2,16.2l0.9,0.5"/><path fill="none" stroke="#d13e2e" stroke-width="1.5" stroke-linecap="round" stroke-linejoin="round" stroke-miterlimit="10" d="M41.4 16.8C41.4 16.8 41.4 16.8 41.4 16.8l-1.9-1.1c0 0 0 0 0 0 0 0 0 0 0 0 0 0 0 0 .1 0 0 0 0 0 0 0l1.9 1.1C41.5 16.7 41.5 16.7 41.4 16.8 41.5 16.7 41.5 16.7 41.4 16.8 41.5 16.8 41.5 16.8 41.4 16.8zM46.3 19.6C46.3 19.6 46.3 19.6 46.3 19.6l-1.9-1.1c0 0 0 0 0 0 0 0 0 0 0 0 0 0 0 0 .1 0 0 0 0 0 0 0l1.9 1.1C46.4 19.5 46.4 19.5 46.3 19.6 46.4 19.5 46.4 19.5 46.3 19.6 46.4 19.6 46.3 19.6 46.3 19.6zM25.2 25.4c-.4.3-1 .7-1.5 1.1-.8.7-1.4 1.9-1.5 3 0 .8.2 1.4.6 1.8.1.1.2.2.3.3l0 0c.4.4.9.9 1.7.9 1.1 0 2.4-.8 4.7-2.9 1.8-1.7 3.4-2 4.3-2 .9 0 1.7.3 2.2.8.5.5.6 1.1.2 1.5-1.5 1.8-3.4 3.8-5 5.7-1.6 1.8-3 3.3-3.5 4-1.5 1.8-6.3 3.9-8.7 4.8M10.3 35.9l5.9-12.8 0 0c.3-1 1.4-2 2.5-2.4 3-1.1 10.1-3.2 10.4-3.3M14.1 53.6c-.4 0-.7-.1-.9-.4L2.4 42.3C2.1 42 2 41.7 2 41.3c0-.4.1-.7.4-.9l4-4c.2-.2.6-.4.9-.4l0 0c.4 0 .7.1.9.4L19 47.4c.2.2.4.6.4.9 0 .4-.1.7-.4.9l-4 4C14.7 53.4 14.4 53.6 14.1 53.6L14.1 53.6z"/></g></g></svg>