<svg version="1.1" xmlns="http://www.w3.org/2000/svg" xmlns:xlink="http://www.w3.org/1999/xlink" x="0px" y="0px" width="30px" height="30px" viewBox="0 0 30 30" xml:space="preserve"><g><path d="M15,2.7c4,0,4.5,0,6.1,0.1c1.5,0.1,2.3,0.3,2.8,0.5c0.7,0.3,1.2,0.6,1.7,1.1c0.5,0.5,0.8,1,1.1,1.7 c0.2,0.5,0.4,1.3,0.5,2.8c0.1,1.6,0.1,2.1,0.1,6.1s0,4.5-0.1,6.1c-0.1,1.5-0.3,2.3-0.5,2.8c-0.3,0.7-0.6,1.2-1.1,1.7 c-0.5,0.5-1,0.8-1.7,1.1c-0.5,0.2-1.3,0.4-2.8,0.5c-1.6,0.1-2.1,0.1-6.1,0.1s-4.5,0-6.1-0.1c-1.5-0.1-2.3-0.3-2.8-0.5 c-0.7-0.3-1.2-0.6-1.7-1.1c-0.5-0.5-0.8-1-1.1-1.7c-0.2-0.5-0.4-1.3-0.5-2.8C2.7,19.5,2.7,19,2.7,15s0-4.5,0.1-6.1 c0.1-1.5,0.3-2.3,0.5-2.8C3.6,5.5,3.9,5,4.4,4.4c0.5-0.5,1-0.8,1.7-1.1c0.5-0.2,1.3-0.4,2.8-0.5C10.5,2.7,11,2.7,15,2.7 M15,0 c-4.1,0-4.6,0-6.2,0.1C7.2,0.2,6.1,0.4,5.2,0.8c-1,0.4-1.8,0.9-2.7,1.7C1.7,3.4,1.2,4.2,0.8,5.2c-0.4,1-0.6,2-0.7,3.6 C0,10.4,0,10.9,0,15c0,4.1,0,4.6,0.1,6.2c0.1,1.6,0.3,2.7,0.7,3.6c0.4,1,0.9,1.8,1.7,2.7c0.8,0.8,1.7,1.3,2.7,1.7 c1,0.4,2,0.6,3.6,0.7C10.4,30,10.9,30,15,30s4.6,0,6.2-0.1c1.6-0.1,2.7-0.3,3.6-0.7c1-0.4,1.8-0.9,2.7-1.7c0.8-0.8,1.3-1.7,1.7-2.7 c0.4-1,0.6-2,0.7-3.6C30,19.6,30,19.1,30,15s0-4.6-0.1-6.2c-0.1-1.6-0.3-2.7-0.7-3.6c-0.4-1-0.9-1.8-1.7-2.7 c-0.8-0.8-1.7-1.3-2.7-1.7c-1-0.4-2-0.6-3.6-0.7C19.6,0,19.1,0,15,0L15,0z"/><path d="M15,7.3c-4.3,0-7.7,3.4-7.7,7.7s3.4,7.7,7.7,7.7s7.7-3.4,7.7-7.7S19.3,7.3,15,7.3z M15,20c-2.8,0-5-2.2-5-5 c0-2.8,2.2-5,5-5c2.8,0,5,2.2,5,5C20,17.8,17.8,20,15,20z"/><circle cx="23" cy="7" r="1.8"/></g></svg>