<svg version="1.1" xmlns="http://www.w3.org/2000/svg" xmlns:xlink="http://www.w3.org/1999/xlink" x="0px" y="0px" width="32px" height="32px" viewBox="0 0 32 32" xml:space="preserve"><g><circle fill="#1D9BF0" cx="16" cy="16" r="16"/><path fill="#FFF" d="M13.1,24.4c7.1,0,11-5.9,11-11c0-0.2,0-0.3,0-0.5c0.8-0.5,1.4-1.2,1.9-2c-0.7,0.3-1.4,0.5-2.2,0.6 c0.8-0.5,1.4-1.2,1.7-2.1c-0.7,0.4-1.6,0.8-2.4,0.9c-0.7-0.7-1.7-1.2-2.8-1.2c-2.1,0-3.9,1.7-3.9,3.9c0,0.3,0,0.6,0.1,0.9 c-3.2-0.2-6-1.7-8-4c-0.3,0.6-0.5,1.2-0.5,1.9c0,1.3,0.7,2.5,1.7,3.2c-0.6,0-1.2-0.2-1.7-0.5c0,0,0,0,0,0c0,1.9,1.3,3.4,3.1,3.8 c-0.3,0.1-0.7,0.1-1,0.1c-0.2,0-0.5,0-0.7-0.1c0.5,1.5,1.9,2.6,3.6,2.7c-1.3,1-3,1.7-4.8,1.7c-0.3,0-0.6,0-0.9-0.1 C8.9,23.8,10.9,24.4,13.1,24.4"/></g></svg>