<svg version="1.1" xmlns="http://www.w3.org/2000/svg" xmlns:xlink="http://www.w3.org/1999/xlink" x="0px" y="0px" width="58px" height="58px" viewBox="0 0 58 58" xml:space="preserve"><g><g><g><g><path fill="none" stroke="#d13e2e" stroke-width="1.5" stroke-linecap="round" stroke-linejoin="round" stroke-miterlimit="10" d="M9.5,40.6c-7.7-3.5-9.9-20.1-7.7-23.2C3.5,15,7,12.1,9.5,18.6"/></g></g><g><g><path fill="none" stroke="#d13e2e" stroke-width="1.5" stroke-linecap="round" stroke-linejoin="round" stroke-miterlimit="10" d="M48.5,40.6c7.7-3.5,9.9-20.1,7.7-23.2c-1.7-2.4-5.2-5.3-7.7,1.2"/></g></g><path fill="none" stroke="#d13e2e" stroke-width="1.5" stroke-linecap="round" stroke-linejoin="round" stroke-miterlimit="10" d="M47.6,42.7l-13.9,2.8c-3.1,0.6-6.3,0.6-9.5,0l-13.9-2.8C9.6,42.5,9,41.6,9,40.4V29.2v-7.3c0-1.1,0.5-2,1.3-2.2L22,16.1 c4.6-1.4,9.4-1.4,14,0l11.7,3.6c0.7,0.2,1.3,1.1,1.3,2.2v7.3v11.3C49,41.6,48.4,42.5,47.6,42.7z"/><path fill="none" stroke="#d13e2e" stroke-width="1.5" stroke-linecap="round" stroke-linejoin="round" stroke-miterlimit="10" d="m45.7 38.1-12.5 2.8c-2.8.6-5.7.6-8.5 0l-12.5-2.8M12.2 24.2l10.5-3.5c4.2-1.4 8.4-1.4 12.6 0l10.5 3.5M12.5 30.8 45.7 30.8"/></g></g></svg>