<svg xmlns="http://www.w3.org/2000/svg" width="571.49" height="121.43" viewBox="0 0 571.49 121.43"><path d="M32.12 7.89c5.44 0 9.6.62 12.47 1.85 2.87 1.23 5.39 2.57 7.55 4 1.23.72 2.23 1.26 3 1.62.77.36 1.51.54 2.23.54 1.02 0 1.77-.56 2.23-1.69.46-1.13.85-2.82 1.16-5.08h3.54c-.1 1.85-.23 4.03-.38 6.54-.15 2.52-.26 5.83-.31 9.93-.05 4.11-.08 9.5-.08 16.17h-3.54c-.31-5.03-1.41-9.91-3.31-14.63-1.9-4.72-4.67-8.57-8.32-11.55-3.65-2.98-8.29-4.47-13.94-4.47-5.24 0-9.57 1.57-13.01 4.7-3.44 3.13-5.16 7.26-5.16 12.4 0 4.52 1.13 8.29 3.39 11.32 2.26 3.03 5.36 5.85 9.32 8.47 3.95 2.62 8.44 5.52 13.47 8.7 5.13 3.29 9.75 6.54 13.86 9.78 4.1 3.23 7.34 6.8 9.7 10.7 2.36 3.9 3.54 8.62 3.54 14.17 0 6.67-1.57 12.19-4.7 16.56-3.13 4.36-7.32 7.62-12.55 9.78-5.24 2.16-10.99 3.23-17.25 3.23-5.75 0-10.32-.62-13.71-1.85-3.39-1.23-6.26-2.51-8.62-3.85-2.26-1.44-4-2.16-5.24-2.16-1.03 0-1.77.57-2.23 1.69-.46 1.13-.85 2.82-1.15 5.08H.55c.2-2.26.33-4.9.38-7.93.05-3.03.1-7.01.15-11.94.05-4.93.08-11.14.08-18.63h3.54c.41 6.37 1.56 12.32 3.46 17.86 1.9 5.54 4.82 9.99 8.78 13.32 3.95 3.34 9.21 5 15.79 5 3.49 0 6.72-.67 9.7-2 2.98-1.33 5.39-3.44 7.24-6.31 1.85-2.87 2.77-6.57 2.77-11.09 0-4.21-1-7.9-3-11.09-2-3.18-4.77-6.13-8.32-8.85-3.54-2.72-7.68-5.52-12.4-8.39-4.83-3.08-9.34-6.16-13.55-9.24-4.21-3.08-7.57-6.67-10.09-10.78-2.52-4.1-3.77-8.98-3.77-14.63 0-6.26 1.46-11.4 4.39-15.4 2.93-4 6.72-6.98 11.4-8.93 4.67-1.95 9.68-2.93 15.01-2.93ZM142.49 97.98c-1.85 3.7-3.95 6.6-6.31 8.7-2.36 2.11-4.85 3.59-7.47 4.47-2.62.87-5.31 1.31-8.08 1.31-3.59 0-7.14-1.21-10.63-3.62-3.49-2.41-6.31-6.03-8.47-10.86-2.16-4.82-3.23-10.78-3.23-17.86 0-1.64.05-3.31.15-5.01.08-1.4.17-2.7.25-3.93h46.56c0-11.81-2.57-20.43-7.7-25.87-5.13-5.44-12.22-8.16-21.25-8.16-7.08 0-13.32 1.72-18.71 5.16-5.39 3.44-9.57 8.39-12.55 14.86-2.98 6.47-4.47 14.27-4.47 23.41 0 8.32 1.44 15.5 4.31 21.56 2.87 6.06 6.98 10.7 12.32 13.94 5.34 3.23 11.6 4.85 18.79 4.85 5.34 0 10.01-1.05 14.01-3.16s7.29-4.85 9.86-8.24c2.57-3.39 4.47-6.83 5.7-10.32l-3.08-1.23Zm-26.8-57.75c3.18 0 5.75 1.29 7.7 3.85 1.95 2.57 3.39 5.98 4.31 10.24.92 4.26 1.33 8.91 1.23 13.94h-30.54c.79-9.55 2.73-16.56 5.82-21.02 3.23-4.67 7.06-7.01 11.47-7.01ZM202.95 37.15c3.9 0 7.19.54 9.86 1.62 2.67 1.08 4.82 2.54 6.47 4.39 1.85 1.95 3.13 4.54 3.85 7.78.72 3.23 1.08 7.31 1.08 12.24v41.27c0 4.31.82 7.24 2.46 8.78 1.64 1.54 4.41 2.31 8.32 2.31v3.23c-1.75-.1-4.44-.23-8.08-.38-3.65-.15-7.21-.23-10.7-.23s-6.91.08-10.24.23c-3.34.15-5.88.28-7.62.38v-3.23c3.39 0 5.78-.77 7.16-2.31s2.08-4.47 2.08-8.78v-45.58c0-2.98-.21-5.67-.62-8.09-.41-2.41-1.36-4.36-2.85-5.85-1.49-1.49-3.83-2.23-7.01-2.23-3.6 0-6.8 1.08-9.62 3.23-2.83 2.16-5.08 5.11-6.78 8.85-1.69 3.75-2.54 7.93-2.54 12.55v37.11c0 4.31.72 7.24 2.16 8.78 1.44 1.54 3.8 2.31 7.08 2.31v3.23c-1.64-.1-4.11-.23-7.39-.38-3.29-.15-6.67-.23-10.16-.23s-7.14.08-10.93.23c-3.8.15-6.62.28-8.47.38v-3.23c4 0 6.85-.77 8.55-2.31s2.54-4.47 2.54-8.78v-48.36c0-4.62-.77-8.03-2.31-10.24-1.54-2.21-4.47-3.31-8.78-3.31v-3.23c3.28.31 6.47.46 9.55.46 3.49 0 6.75-.18 9.78-.54 3.03-.36 5.83-.9 8.39-1.62v16.79c2.67-6.16 6.24-10.57 10.7-13.24 4.47-2.67 9.16-4 14.09-4Zm46.35 0c3.9 0 7.18.54 9.86 1.62 2.67 1.08 4.82 2.54 6.47 4.39 1.85 1.95 3.13 4.54 3.85 7.78.72 3.23 1.08 7.31 1.08 12.24v41.27c0 4.31.85 7.24 2.54 8.78 1.69 1.54 4.54 2.31 8.55 2.31v3.23c-1.75-.1-4.47-.23-8.16-.38-3.7-.15-7.34-.23-10.93-.23s-6.91.08-10.24.23c-3.34.15-5.88.28-7.62.38v-3.23c3.39 0 5.77-.77 7.16-2.31 1.39-1.54 2.08-4.47 2.08-8.78v-45.58c0-2.98-.21-5.67-.62-8.09-.41-2.41-1.39-4.36-2.93-5.85-1.54-1.49-3.95-2.23-7.24-2.23-3.59 0-6.8 1.1-9.62 3.31-2.83 2.21-5.08 5.19-6.78 8.93-1.69 3.75-2.54 7.93-2.54 12.55l-.62-12.78c2.77-6.78 6.49-11.4 11.17-13.86 4.67-2.46 9.52-3.7 14.55-3.7ZM316.97 37.61v66.84c0 4.31.85 7.24 2.54 8.78s4.54 2.31 8.55 2.31v3.23c-1.75-.1-4.44-.23-8.08-.38-3.65-.15-7.37-.23-11.17-.23s-7.42.08-11.17.23c-3.75.15-6.54.28-8.39.38v-3.23c4 0 6.85-.77 8.55-2.31s2.54-4.47 2.54-8.78v-48.36c0-4.62-.77-8.03-2.31-10.24-1.54-2.21-4.47-3.31-8.78-3.31v-3.23c3.28.31 6.47.46 9.55.46 3.49 0 6.75-.18 9.78-.54 3.03-.36 5.83-.9 8.39-1.62ZM307.73.5c3.18 0 5.85 1 8.01 3 2.16 2 3.23 4.49 3.23 7.47s-1.08 5.47-3.23 7.47c-2.16 2-4.83 3-8.01 3s-5.85-1-8.01-3-3.23-4.49-3.23-7.47 1.08-5.47 3.23-7.47 4.82-3 8.01-3ZM389.67 37.15c4.11 0 7.47.54 10.09 1.62s4.8 2.54 6.54 4.39c1.85 1.95 3.16 4.47 3.93 7.55.77 3.08 1.16 7.24 1.16 12.47v41.27c0 4.31.85 7.24 2.54 8.78s4.54 2.31 8.55 2.31v3.23c-1.75-.1-4.47-.23-8.16-.38-3.7-.15-7.34-.23-10.93-.23s-6.96.08-10.4.23c-3.44.15-6.03.28-7.78.38v-3.23c3.49 0 5.95-.77 7.39-2.31 1.44-1.54 2.16-4.47 2.16-8.78v-45.58c0-2.98-.26-5.67-.77-8.09-.51-2.41-1.59-4.36-3.23-5.85-1.64-1.49-4.11-2.23-7.39-2.23-3.8 0-7.16 1.08-10.09 3.23-2.93 2.16-5.24 5.11-6.93 8.85-1.69 3.75-2.54 7.93-2.54 12.55v37.11c0 4.31.74 7.24 2.23 8.78 1.49 1.54 3.93 2.31 7.31 2.31v3.23c-1.64-.1-4.13-.23-7.47-.38-3.34-.15-6.8-.23-10.4-.23s-7.14.08-10.93.23c-3.8.15-6.62.28-8.47.38v-3.23c4 0 6.85-.77 8.55-2.31s2.54-4.47 2.54-8.78v-48.36c0-4.62-.77-8.03-2.31-10.24-1.54-2.21-4.47-3.31-8.78-3.31v-3.23c3.28.31 6.47.46 9.55.46 3.49 0 6.75-.18 9.78-.54 3.03-.36 5.83-.9 8.39-1.62v16.79c2.67-6.36 6.34-10.83 11.01-13.4 4.67-2.56 9.62-3.85 14.86-3.85ZM449.01 119.85c-4.31 0-8.01-.82-11.09-2.46-3.08-1.64-5.39-3.9-6.93-6.78-1.54-2.87-2.31-6.16-2.31-9.86 0-4.52 1.03-8.19 3.08-11.01 2.05-2.82 4.7-5.11 7.93-6.85 3.23-1.74 6.67-3.21 10.32-4.39 3.64-1.18 7.08-2.31 10.32-3.39 3.23-1.08 5.9-2.33 8.01-3.77 2.1-1.44 3.16-3.33 3.16-5.7v-10.47c0-3.7-.59-6.65-1.77-8.85-1.18-2.21-2.77-3.77-4.77-4.7-2-.92-4.39-1.39-7.16-1.39-2.36 0-4.88.33-7.55 1-2.67.67-4.77 1.98-6.31 3.93 2.26.62 4.13 1.82 5.62 3.62 1.49 1.8 2.23 4.03 2.23 6.7 0 2.88-.95 5.13-2.85 6.78-1.9 1.64-4.29 2.46-7.16 2.46-3.18 0-5.54-1-7.08-3s-2.31-4.34-2.31-7.01.69-5.03 2.08-6.78c1.39-1.74 3.21-3.39 5.47-4.93 2.46-1.64 5.62-3.03 9.47-4.16 3.85-1.13 8.14-1.69 12.86-1.69 4.41 0 8.24.49 11.47 1.46 3.23.98 5.93 2.54 8.08 4.7 2.57 2.36 4.26 5.31 5.08 8.85.82 3.54 1.23 7.83 1.23 12.86v42.5c0 2.57.33 4.39 1 5.47.67 1.08 1.77 1.62 3.31 1.62 1.03 0 2.03-.25 3-.77.97-.51 2.13-1.28 3.46-2.31l1.54 2.62c-2.16 1.75-4.34 3.13-6.54 4.16-2.21 1.02-5 1.54-8.39 1.54s-5.96-.52-8.01-1.54c-2.06-1.03-3.57-2.51-4.54-4.47-.98-1.95-1.46-4.36-1.46-7.24-2.67 4.31-5.85 7.6-9.55 9.86-3.7 2.26-8.01 3.39-12.94 3.39Zm7.39-7.39c2.87 0 5.57-.82 8.08-2.46 2.51-1.64 4.85-4.11 7.01-7.39v-30.65c-1.13 1.64-2.77 3.06-4.93 4.23-2.16 1.18-4.47 2.39-6.93 3.62s-4.8 2.64-7.01 4.23c-2.21 1.59-4.03 3.62-5.47 6.08-1.44 2.46-2.16 5.6-2.16 9.39 0 4 1.02 7.16 3.08 9.47 2.05 2.31 4.82 3.46 8.32 3.46ZM556.98 37.15c2.98 0 5.52.62 7.62 1.85 2.1 1.23 3.7 2.8 4.77 4.7 1.08 1.9 1.62 4.03 1.62 6.39 0 2.98-.9 5.52-2.69 7.62-1.8 2.11-4.18 3.16-7.16 3.16-2.57 0-4.75-.77-6.54-2.31-1.8-1.54-2.7-3.64-2.7-6.31 0-2.26.59-4.18 1.77-5.78 1.18-1.59 2.54-2.85 4.08-3.77-1.03-.82-2.26-1.18-3.7-1.08-2.77.1-5.34 1-7.7 2.69-2.36 1.69-4.37 3.85-6.01 6.47-1.64 2.62-2.93 5.42-3.85 8.39-.92 2.98-1.39 5.75-1.39 8.32v35.42c0 5.03 1.39 8.39 4.16 10.09 2.77 1.69 6.62 2.54 11.55 2.54v3.23c-2.36-.1-5.72-.23-10.09-.38-4.37-.15-8.96-.23-13.78-.23-3.7 0-7.39.08-11.09.23-3.7.15-6.52.28-8.47.38v-3.23c4 0 6.85-.77 8.55-2.31s2.54-4.47 2.54-8.78v-48.36c0-4.62-.77-8.03-2.31-10.24-1.54-2.21-4.47-3.31-8.78-3.31v-3.23c3.28.31 6.47.46 9.55.46 3.49 0 6.75-.18 9.78-.54 3.03-.36 5.83-.9 8.39-1.62v17.71c1.23-2.98 2.87-5.85 4.93-8.62 2.05-2.77 4.52-5.06 7.39-6.85 2.87-1.8 6.06-2.7 9.55-2.7Z" fill="#fff" stroke="#f2e5af" stroke-miterlimit="10"/></svg>