<svg xmlns="http://www.w3.org/2000/svg" width="1044.56" height="124.05" viewBox="0 0 1044.56 124.05"><path d="M51.32 10.21c10.16 0 19.04 2.21 26.64 6.62 7.6 4.42 13.5 10.76 17.71 19.02 4.21 8.27 6.31 18.3 6.31 30.11s-2.16 21.56-6.47 30.18c-4.31 8.62-10.29 15.35-17.94 20.17-7.65 4.83-16.45 7.24-26.41 7.24s-19.05-2.21-26.64-6.62c-7.6-4.41-13.5-10.78-17.71-19.1-4.21-8.32-6.31-18.33-6.31-30.03s2.18-21.56 6.54-30.18c4.36-8.62 10.34-15.35 17.94-20.17 7.6-4.82 16.38-7.24 26.33-7.24Zm-.62 2.77c-6.37 0-11.91 2.31-16.63 6.93-4.72 4.62-8.37 10.99-10.93 19.1-2.57 8.11-3.85 17.51-3.85 28.18s1.44 20.35 4.31 28.41c2.87 8.06 6.78 14.27 11.7 18.63 4.93 4.37 10.42 6.54 16.48 6.54 6.36 0 11.88-2.31 16.55-6.93 4.67-4.62 8.32-11.01 10.93-19.17s3.93-17.53 3.93-28.11-1.44-20.48-4.31-28.49c-2.88-8.01-6.78-14.19-11.7-18.56-4.93-4.36-10.42-6.54-16.48-6.54ZM184.38 40.24v64.53c0 4.62.79 8.03 2.39 10.24 1.59 2.21 4.49 3.31 8.7 3.31v3.23c-3.18-.31-6.37-.46-9.55-.46-3.39 0-6.62.15-9.7.46-3.08.31-5.9.87-8.47 1.69v-16.79c-2.57 6.16-6.14 10.55-10.7 13.17-4.57 2.62-9.37 3.93-14.4 3.93-3.8 0-7.03-.54-9.7-1.62-2.67-1.08-4.88-2.49-6.62-4.23-1.85-2.05-3.13-4.7-3.85-7.93-.72-3.23-1.08-7.31-1.08-12.24v-38.81c0-4.62-.77-8.03-2.31-10.24-1.54-2.21-4.47-3.31-8.78-3.31v-3.23c3.29.31 6.47.46 9.55.46 3.39 0 6.62-.18 9.7-.54 3.08-.36 5.9-.9 8.47-1.62v61.6c0 2.98.2 5.7.62 8.16.41 2.46 1.39 4.42 2.93 5.85 1.54 1.44 4 2.16 7.39 2.16 3.59 0 6.8-1.08 9.62-3.23 2.82-2.16 5.06-5.08 6.7-8.78 1.64-3.7 2.46-7.85 2.46-12.47v-34.8c0-4.62-.77-8.03-2.31-10.24-1.54-2.21-4.47-3.31-8.78-3.31v-3.23c3.28.31 6.47.46 9.55.46 3.39 0 6.62-.18 9.7-.54 3.08-.36 5.9-.9 8.47-1.62ZM226.03 16.52v25.56h21.25v3.08h-21.25v60.52c0 4.21.77 7.19 2.31 8.93 1.54 1.75 3.75 2.62 6.62 2.62 2.67 0 5.06-1.08 7.16-3.23 2.1-2.16 3.93-5.8 5.47-10.93l2.93 1.08c-1.23 5.44-3.41 10.04-6.54 13.78-3.13 3.75-7.73 5.62-13.78 5.62-3.49 0-6.42-.44-8.78-1.31-2.36-.87-4.42-2.13-6.16-3.77-2.26-2.36-3.8-5.18-4.62-8.47-.82-3.28-1.23-7.65-1.23-13.09v-51.74h-14.17v-3.08h14.17v-22.48c3.18-.1 6.16-.39 8.93-.85 2.77-.46 5.34-1.21 7.7-2.23ZM281.57.66v106.41c0 4.31.85 7.24 2.54 8.78s4.54 2.31 8.55 2.31v3.23c-1.85-.1-4.6-.23-8.24-.38-3.65-.15-7.31-.23-11.01-.23s-7.42.08-11.17.23c-3.75.15-6.54.28-8.39.38v-3.23c4 0 6.85-.77 8.55-2.31 1.69-1.54 2.54-4.47 2.54-8.78V19.14c0-4.62-.77-8.03-2.31-10.24-1.54-2.21-4.47-3.31-8.78-3.31v-3.23c3.28.31 6.47.46 9.55.46 3.39 0 6.62-.18 9.7-.54 3.08-.36 5.9-.9 8.47-1.62ZM328.32 40.24v66.84c0 4.31.85 7.24 2.54 8.78s4.54 2.31 8.55 2.31v3.23c-1.75-.1-4.44-.23-8.08-.38-3.65-.15-7.37-.23-11.17-.23s-7.42.08-11.17.23c-3.75.15-6.54.28-8.39.38v-3.23c4 0 6.85-.77 8.55-2.31s2.54-4.47 2.54-8.78v-48.36c0-4.62-.77-8.03-2.31-10.24-1.54-2.21-4.47-3.31-8.78-3.31v-3.23c3.28.31 6.47.46 9.55.46 3.49 0 6.75-.18 9.78-.54 3.03-.36 5.83-.9 8.39-1.62Zm-9.24-37.11c3.18 0 5.85 1 8.01 3 2.16 2 3.23 4.49 3.23 7.47s-1.08 5.47-3.23 7.47c-2.16 2-4.83 3-8.01 3s-5.85-1-8.01-3-3.23-4.49-3.23-7.47 1.08-5.47 3.23-7.47 4.82-3 8.01-3ZM401.02 39.78c4.11 0 7.47.54 10.09 1.62s4.8 2.54 6.54 4.39c1.85 1.95 3.16 4.46 3.93 7.54.77 3.08 1.16 7.24 1.16 12.47v41.27c0 4.31.85 7.24 2.54 8.78s4.54 2.31 8.55 2.31v3.23c-1.75-.1-4.47-.23-8.16-.38-3.7-.15-7.34-.23-10.93-.23s-6.96.08-10.4.23c-3.44.15-6.03.28-7.78.38v-3.23c3.49 0 5.95-.77 7.39-2.31 1.44-1.54 2.16-4.47 2.16-8.78v-45.58c0-2.98-.26-5.67-.77-8.08-.51-2.41-1.59-4.36-3.23-5.85-1.64-1.49-4.11-2.23-7.39-2.23-3.8 0-7.16 1.08-10.09 3.23-2.93 2.16-5.24 5.11-6.93 8.86-1.69 3.75-2.54 7.93-2.54 12.55v37.11c0 4.31.74 7.24 2.23 8.78 1.49 1.54 3.93 2.31 7.31 2.31v3.23c-1.64-.1-4.13-.23-7.47-.38-3.34-.15-6.8-.23-10.4-.23s-7.14.08-10.93.23c-3.8.15-6.62.28-8.47.38v-3.23c4 0 6.85-.77 8.55-2.31s2.54-4.47 2.54-8.78v-48.36c0-4.62-.77-8.03-2.31-10.24-1.54-2.21-4.47-3.31-8.78-3.31v-3.23c3.28.31 6.47.46 9.55.46 3.49 0 6.75-.18 9.78-.54 3.03-.36 5.83-.9 8.39-1.62v16.79c2.67-6.36 6.34-10.83 11.01-13.4 4.67-2.57 9.62-3.85 14.86-3.85ZM499.61 100.61c-1.85 3.7-3.95 6.6-6.31 8.7-2.36 2.11-4.85 3.59-7.47 4.47-2.62.87-5.31 1.31-8.08 1.31-3.59 0-7.14-1.21-10.63-3.62-3.49-2.41-6.31-6.03-8.47-10.86-2.16-4.83-3.23-10.78-3.23-17.86 0-1.64.05-3.31.15-5 .08-1.4.17-2.7.25-3.93h46.56c0-11.8-2.57-20.43-7.7-25.87-5.13-5.44-12.22-8.16-21.25-8.16-7.08 0-13.32 1.72-18.71 5.16-5.39 3.44-9.57 8.39-12.55 14.86-2.98 6.47-4.47 14.27-4.47 23.41 0 8.32 1.44 15.5 4.31 21.56 2.87 6.06 6.98 10.7 12.32 13.94 5.34 3.23 11.6 4.85 18.79 4.85 5.34 0 10.01-1.05 14.01-3.16s7.29-4.85 9.86-8.24c2.57-3.39 4.47-6.83 5.7-10.32l-3.08-1.23Zm-26.8-57.75c3.18 0 5.75 1.29 7.7 3.85 1.95 2.57 3.39 5.98 4.31 10.24.92 4.26 1.33 8.91 1.23 13.94h-30.54c.79-9.55 2.73-16.56 5.82-21.02 3.23-4.67 7.06-7.01 11.47-7.01ZM604.92 36.33c-3.56-2.98-8.02-4.46-13.39-4.46-2.31 0-4.57.31-6.76.93-2.19.62-3.99 1.61-5.39 2.98-1.41 1.36-2.11 3.12-2.11 5.27s.79 3.93 2.36 5.08c1.57 1.16 3.35 1.74 5.33 1.74 2.15 0 4.01-.6 5.58-1.8 1.57-1.2 2.36-2.83 2.36-4.9 0-1.16-.37-2.36-1.12-3.6-.74-1.24-1.82-2.15-3.22-2.73.25-.41.68-.68 1.3-.81.62-.12 1.38-.19 2.29-.19 2.48 0 4.82.54 7.01 1.61 2.19 1.08 3.95 2.5 5.27 4.28 1.32 1.78 1.98 3.87 1.98 6.26s-1.04 4.55-3.1 6.45c-2.07 1.9-5.46 3.76-10.17 5.58-2.73 1.16-5.7 2.21-8.93 3.16-3.22.95-6.39 1.84-9.49 2.67-3.1.83-5.77 1.61-8 2.36-4.38 1.16-8.12 2.65-11.22 4.46-3.1 1.82-5.44 3.95-7.01 6.39-1.57 2.44-2.36 5.35-2.36 8.74 0 3.55.81 6.43 2.42 8.62 1.61 2.19 3.68 3.8 6.2 4.84 2.52 1.03 5.1 1.55 7.75 1.55s5.04-.39 7.44-1.18c2.4-.79 4.38-2 5.95-3.66 1.57-1.65 2.36-3.68 2.36-6.08 0-2.15-.68-3.88-2.05-5.21-1.36-1.32-3.21-1.98-5.52-1.98s-4.11.62-5.64 1.86c-1.53 1.24-2.29 2.94-2.29 5.08s.6 3.66 1.8 4.77c1.2 1.12 2.58 1.84 4.15 2.17-.17.5-.64.91-1.43 1.24-.79.33-1.67.58-2.67.74-.99.17-1.82.25-2.48.25-1.74 0-3.53-.37-5.39-1.12-1.86-.74-3.43-1.86-4.71-3.35-1.28-1.49-1.92-3.31-1.92-5.46 0-2.81 1.28-5.06 3.84-6.76 2.56-1.69 5.91-3.16 10.04-4.4 1.74-.66 3.95-1.4 6.63-2.23 2.48-.76 5.09-1.56 7.82-2.4 3.1 1.25 5.46 2.83 7.06 4.75 1.86 2.23 3.08 4.51 3.66 6.82.58 2.32.87 4.22.87 5.7 0 3.55-.91 6.7-2.73 9.42-1.82 2.73-4.28 5.06-7.38 7.01-3.1 1.94-6.63 3.41-10.6 4.4s-8.1 1.49-12.4 1.49c-6.61 0-12.48-.99-17.61-2.98-5.13-1.98-9.18-4.9-12.15-8.74s-4.46-8.57-4.46-14.2 1.38-9.9 4.15-13.08c2.77-3.18 6.43-5.56 10.97-7.13.91.5 2.19 1.1 3.84 1.8 1.65.7 3.26 1.05 4.84 1.05.99 0 1.82-.21 2.48-.62.66-.41.99-.99.99-1.74 0-.99-.43-1.75-1.3-2.29-.87-.54-2.05-.81-3.53-.81-.83 0-1.92.08-3.29.25-1.36.17-2.75.37-4.15.62-2.32-2.31-3.87-4.63-4.65-6.94-.79-2.31-1.18-4.54-1.18-6.7 0-5.04 1.38-8.85 4.15-11.41 2.77-2.56 6.3-3.84 10.6-3.84 2.31 0 4.28.33 5.89.99 1.61.66 2.62 1.45 3.04 2.36-1.98.25-3.64 1.1-4.96 2.54-1.32 1.45-1.98 3.12-1.98 5.02 0 2.15.72 3.8 2.17 4.96 1.45 1.16 3.16 1.74 5.15 1.74s3.78-.64 5.39-1.92c1.61-1.28 2.42-3.04 2.42-5.27 0-1.16-.25-2.27-.74-3.35-.5-1.07-1.14-2.11-1.92-3.1-.79-.99-1.76-1.86-2.91-2.6-1.41-.99-3.12-1.8-5.15-2.42-2.03-.62-4.61-.93-7.75-.93-3.39 0-6.43.39-9.11 1.18-2.69.79-5 1.9-6.94 3.35-1.94 1.45-3.45 3.12-4.53 5.02-1.08 1.9-1.61 3.97-1.61 6.2s.51 4.24 1.55 6.26c1.03 2.03 2.52 3.84 4.46 5.46 1.94 1.61 4.28 3 7.01 4.15-1.65.42-3.8 1.18-6.45 2.29-2.65 1.12-5.29 2.73-7.94 4.84-2.65 2.11-4.86 4.75-6.63 7.94-1.78 3.18-2.67 7.05-2.67 11.59 0 4.8 1.07 9.1 3.22 12.9 2.15 3.8 5.12 7.05 8.93 9.73 3.8 2.69 8.25 4.73 13.33 6.14s10.56 2.11 16.43 2.11c8.26 0 15.33-1.39 21.2-4.15 5.87-2.77 10.39-6.45 13.58-11.04 3.18-4.59 4.77-9.49 4.77-14.69s-1.24-9.42-3.72-13.39c-2.04-3.26-5.12-5.75-9.22-7.5 2.31-.71 4.51-1.42 6.62-2.11 2.64-.87 4.79-1.67 6.45-2.42 3.22-1.07 6.05-2.48 8.49-4.22 2.44-1.74 4.34-3.8 5.7-6.2 1.36-2.4 2.05-5.25 2.05-8.56 0-5.37-1.78-9.55-5.33-12.52ZM697.16 116.16c-1.9-1.33-3.57-3.9-5-7.7l-37.58-96.71h-5.24l-35.73 92.25c-1.95 4.93-4 8.42-6.16 10.47-2.16 2.05-4.31 3.34-6.47 3.85v3.08c1.54-.21 3.26-.33 5.16-.38 1.9-.05 4.08-.08 6.54-.08 2.77 0 5.72.03 8.85.08 3.13.05 6.24.18 9.32.38v-3.08c-3.18-.1-5.85-.51-8.01-1.23-2.16-.72-3.67-1.95-4.54-3.7-.87-1.74-1.13-4.16-.77-7.24.36-3.08 1.46-6.93 3.31-11.55l5.54-14.48h35.93l9.35 25.26c2.05 5.24 2.39 8.65 1 10.24-1.39 1.59-4.7 2.49-9.93 2.7v3.08c2.26-.21 5.24-.33 8.93-.38 3.7-.05 7.7-.08 12.01-.08 3.39 0 6.75.03 10.09.08 3.33.05 6.24.18 8.7.38v-3.08c-1.64-.1-3.42-.82-5.31-2.16Zm-69.59-39.12 17.08-44.64 16.54 44.64h-33.61ZM739.92 39.78c3.49 0 6.83.44 10.01 1.31 3.18.87 5.95 2.08 8.32 3.62 2.46 1.54 4.34 3.39 5.62 5.54 1.28 2.16 1.93 4.52 1.93 7.08 0 3.08-.87 5.49-2.62 7.24s-4 2.62-6.78 2.62-5.08-.77-6.93-2.31c-1.85-1.54-2.77-3.75-2.77-6.62 0-2.67.77-4.85 2.31-6.54 1.54-1.69 3.33-2.79 5.39-3.31-.92-1.54-2.54-2.85-4.85-3.93-2.31-1.08-4.8-1.62-7.47-1.62s-5.42.72-7.93 2.16c-2.52 1.44-4.75 3.65-6.7 6.62-1.95 2.98-3.52 6.83-4.7 11.55-1.18 4.72-1.77 10.42-1.77 17.09 0 8.62 1 15.48 3 20.56s4.64 8.7 7.93 10.86c3.29 2.16 6.83 3.23 10.63 3.23 2.46 0 5.01-.46 7.62-1.39 2.62-.92 5.13-2.46 7.55-4.62 2.41-2.16 4.54-5.08 6.39-8.78l2.93 1.08c-1.13 3.39-2.9 6.83-5.31 10.32-2.41 3.49-5.57 6.37-9.47 8.62-3.9 2.26-8.68 3.39-14.32 3.39-6.47 0-12.32-1.59-17.56-4.77-5.24-3.18-9.39-7.83-12.47-13.94-3.08-6.11-4.62-13.58-4.62-22.41s1.56-16.14 4.7-22.56c3.13-6.41 7.47-11.37 13.01-14.86 5.54-3.49 11.86-5.24 18.94-5.24ZM811.96 39.78c3.49 0 6.83.44 10.01 1.31 3.18.87 5.95 2.08 8.32 3.62 2.46 1.54 4.34 3.39 5.62 5.54 1.28 2.16 1.93 4.52 1.93 7.08 0 3.08-.87 5.49-2.62 7.24s-4 2.62-6.78 2.62-5.08-.77-6.93-2.31c-1.85-1.54-2.77-3.75-2.77-6.62 0-2.67.77-4.85 2.31-6.54 1.54-1.69 3.33-2.79 5.39-3.31-.92-1.54-2.54-2.85-4.85-3.93-2.31-1.08-4.8-1.62-7.47-1.62s-5.42.72-7.93 2.16c-2.52 1.44-4.75 3.65-6.7 6.62-1.95 2.98-3.52 6.83-4.7 11.55-1.18 4.72-1.77 10.42-1.77 17.09 0 8.62 1 15.48 3 20.56s4.64 8.7 7.93 10.86c3.29 2.16 6.83 3.23 10.63 3.23 2.46 0 5.01-.46 7.62-1.39 2.62-.92 5.13-2.46 7.55-4.62 2.41-2.16 4.54-5.08 6.39-8.78l2.93 1.08c-1.13 3.39-2.9 6.83-5.31 10.32-2.41 3.49-5.57 6.37-9.47 8.62-3.9 2.26-8.68 3.39-14.32 3.39-6.47 0-12.32-1.59-17.56-4.77-5.24-3.18-9.39-7.83-12.47-13.94-3.08-6.11-4.62-13.58-4.62-22.41s1.56-16.14 4.7-22.56c3.13-6.41 7.47-11.37 13.01-14.86 5.54-3.49 11.86-5.24 18.94-5.24ZM909.35 100.61c-1.85 3.7-3.95 6.6-6.31 8.7-2.36 2.11-4.85 3.59-7.47 4.47-2.62.87-5.31 1.31-8.08 1.31-3.59 0-7.14-1.21-10.63-3.62-3.49-2.41-6.31-6.03-8.47-10.86-2.16-4.83-3.23-10.78-3.23-17.86 0-1.64.05-3.31.15-5 .08-1.4.17-2.7.25-3.93h46.56c0-11.8-2.57-20.43-7.7-25.87-5.13-5.44-12.22-8.16-21.25-8.16-7.08 0-13.32 1.72-18.71 5.16-5.39 3.44-9.57 8.39-12.55 14.86-2.98 6.47-4.47 14.27-4.47 23.41 0 8.32 1.44 15.5 4.31 21.56 2.87 6.06 6.98 10.7 12.32 13.94 5.34 3.23 11.6 4.85 18.79 4.85 5.34 0 10.01-1.05 14.01-3.16s7.29-4.85 9.86-8.24c2.57-3.39 4.47-6.83 5.7-10.32l-3.08-1.23Zm-26.8-57.75c3.18 0 5.75 1.29 7.7 3.85 1.95 2.57 3.39 5.98 4.31 10.24.92 4.26 1.33 8.91 1.23 13.94h-30.54c.79-9.55 2.73-16.56 5.82-21.02 3.23-4.67 7.06-7.01 11.47-7.01ZM947.95 39.78c4.11 0 7.67.64 10.7 1.92 3.03 1.29 5.21 2.44 6.54 3.46 3.39 2.67 5.49.92 6.31-5.24h3.39c-.21 2.88-.36 6.34-.46 10.4-.1 4.06-.15 9.42-.15 16.09h-3.39c-.62-3.8-1.67-7.49-3.16-11.09-1.49-3.59-3.65-6.57-6.47-8.93-2.83-2.36-6.49-3.54-11.01-3.54-3.39 0-6.21.95-8.47 2.85-2.26 1.9-3.39 4.7-3.39 8.39 0 3.08.92 5.75 2.77 8.01 1.85 2.26 4.23 4.36 7.16 6.31 2.93 1.95 6.08 4.06 9.47 6.31 3.8 2.57 7.21 5.11 10.24 7.62 3.03 2.52 5.44 5.31 7.24 8.39 1.79 3.08 2.7 6.68 2.7 10.78 0 4.72-1.26 8.73-3.77 12.01-2.52 3.29-5.83 5.77-9.93 7.47-4.11 1.69-8.62 2.54-13.55 2.54-2.46 0-4.77-.23-6.93-.69-2.16-.46-4.16-1.05-6.01-1.77-1.13-.62-2.23-1.26-3.31-1.92-1.08-.67-2.13-1.31-3.16-1.93-1.03-.72-1.95-.62-2.77.31-.82.92-1.44 2.57-1.85 4.93h-3.39c.2-3.29.36-7.29.46-12.01.1-4.72.15-10.98.15-18.79h3.39c.72 5.65 1.79 10.63 3.23 14.94 1.44 4.31 3.57 7.68 6.39 10.09 2.82 2.41 6.7 3.62 11.63 3.62 1.95 0 3.9-.44 5.85-1.31 1.95-.87 3.57-2.28 4.85-4.24 1.28-1.95 1.92-4.57 1.92-7.85 0-4.52-1.57-8.24-4.7-11.16-3.13-2.93-7.16-6.03-12.09-9.32-3.49-2.46-6.8-4.9-9.93-7.32-3.13-2.41-5.67-5.13-7.62-8.16-1.95-3.03-2.93-6.65-2.93-10.86 0-4.62 1.1-8.42 3.31-11.4 2.21-2.98 5.16-5.21 8.86-6.7 3.7-1.49 7.65-2.23 11.86-2.23ZM1014.03 39.78c4.11 0 7.67.64 10.7 1.92 3.03 1.29 5.21 2.44 6.54 3.46 3.39 2.67 5.49.92 6.31-5.24h3.39c-.21 2.88-.36 6.34-.46 10.4-.1 4.06-.15 9.42-.15 16.09h-3.39c-.62-3.8-1.67-7.49-3.16-11.09-1.49-3.59-3.65-6.57-6.47-8.93-2.83-2.36-6.49-3.54-11.01-3.54-3.39 0-6.21.95-8.47 2.85-2.26 1.9-3.39 4.7-3.39 8.39 0 3.08.92 5.75 2.77 8.01 1.85 2.26 4.23 4.36 7.16 6.31 2.93 1.95 6.08 4.06 9.47 6.31 3.8 2.57 7.21 5.11 10.24 7.62 3.03 2.52 5.44 5.31 7.24 8.39 1.79 3.08 2.7 6.68 2.7 10.78 0 4.72-1.26 8.73-3.77 12.01-2.52 3.29-5.83 5.77-9.93 7.47-4.11 1.69-8.62 2.54-13.55 2.54-2.46 0-4.77-.23-6.93-.69-2.16-.46-4.16-1.05-6.01-1.77-1.13-.62-2.23-1.26-3.31-1.92-1.08-.67-2.13-1.31-3.16-1.93-1.03-.72-1.95-.62-2.77.31-.82.92-1.44 2.57-1.85 4.93h-3.39c.2-3.29.36-7.29.46-12.01.1-4.72.15-10.98.15-18.79h3.39c.72 5.65 1.79 10.63 3.23 14.94 1.44 4.31 3.57 7.68 6.39 10.09 2.82 2.41 6.7 3.62 11.63 3.62 1.95 0 3.9-.44 5.85-1.31 1.95-.87 3.57-2.28 4.85-4.24 1.28-1.95 1.92-4.57 1.92-7.85 0-4.52-1.57-8.24-4.7-11.16-3.13-2.93-7.16-6.03-12.09-9.32-3.49-2.46-6.8-4.9-9.93-7.32-3.13-2.41-5.67-5.13-7.62-8.16-1.95-3.03-2.93-6.65-2.93-10.86 0-4.62 1.1-8.42 3.31-11.4 2.21-2.98 5.16-5.21 8.86-6.7 3.7-1.49 7.65-2.23 11.86-2.23Z" fill="#fff" stroke="#f2e5af" stroke-miterlimit="10"/></svg>