<svg xmlns="http://www.w3.org/2000/svg" width="239.07" height="76" viewBox="0 0 239.07 76"><path d="m18.04 23.84 6.11-5.14c.19-.15.27-.4.21-.64-.06-.24-.24-.42-.48-.47l-6.45-1.48c-.2-.04-.4 0-.55.13-.08.07-.14.15-.18.25-.04.08-.05.18-.05.27l.35 6.61c.01.24.16.46.38.55.22.1.48.06.67-.1M24.28 57.22l-5.71-5.57c-.17-.17-.43-.22-.66-.15-.23.08-.39.28-.43.52l-.83 6.57c-.02.2.04.4.19.54.07.07.16.13.26.15.09.03.19.03.28.02l6.55-.99c.24-.04.44-.21.51-.43.08-.23.01-.48-.16-.65M57.77 23.84l-6.11-5.14c-.19-.15-.27-.4-.21-.64.06-.24.24-.42.48-.47l6.45-1.48c.19-.04.4 0 .55.13.08.07.14.15.18.25.04.08.05.18.05.27l-.35 6.61c-.01.24-.16.46-.38.55-.22.1-.48.06-.67-.1M51.53 57.22l5.71-5.57c.17-.17.43-.22.66-.15.23.08.39.28.42.52l.84 6.57c.03.2-.04.4-.19.54-.07.07-.16.13-.26.15-.09.03-.18.03-.28.02l-6.55-.99c-.24-.04-.44-.21-.51-.43-.07-.23 0-.48.16-.65M47.41 19.08l-8.74-11.51c-.46-.6-1.09-.61-1.56-.01l-8.93 11.36c-.36.45-.57 1.19-.57 1.97s.21 1.51.57 1.95l8.75 10.71c.22.27.48.41.74.41.26 0 .52-.13.75-.4l8.92-10.56c.37-.43.59-1.16.61-1.94.01-.78-.19-1.53-.54-1.99M47.41 51.81l-8.74-11.51c-.46-.6-1.09-.61-1.56-.01l-8.93 11.36c-.36.46-.57 1.19-.57 1.98s.21 1.51.57 1.95l8.75 10.72c.22.27.48.41.74.41.26 0 .52-.13.75-.4l8.92-10.56c.37-.43.59-1.16.61-1.94.01-.78-.19-1.53-.54-1.99M55.33 46.6l11.51-8.74c.61-.46.61-1.09.01-1.56l-11.36-8.93c-.45-.36-1.19-.57-1.97-.57s-1.52.21-1.95.57l-10.71 8.75c-.27.22-.41.48-.41.74 0 .26.13.52.4.75l10.56 8.92c.43.37 1.16.59 1.94.61.78.02 1.53-.18 1.99-.54M22.6 46.6l11.52-8.74c.6-.46.61-1.09.01-1.56l-11.36-8.93c-.45-.36-1.19-.57-1.98-.57s-1.51.21-1.95.57l-10.71 8.75c-.27.22-.41.48-.41.74 0 .26.13.52.4.75l10.56 8.92c.43.37 1.16.59 1.94.61.78.02 1.53-.18 1.99-.54" fill="#f6b400"/><path d="m34.11 71.77-5.81-9.22c-.3-.48-.89-.72-1.45-.58l-10.58 2.6c-.42.1-.77.41-.93.81-.16.41-.1.87.14 1.23l5.97 8.81c.15.23.37.39.61.49.24.1.51.12.77.07l10.41-2.19c.43-.09.78-.38.95-.78.17-.4.13-.86-.1-1.23M42.4 73.55l10.63 2.41c.56.13 1.14-.12 1.44-.61l5.64-9.32c.23-.37.25-.83.08-1.23-.18-.4-.54-.68-.97-.77l-10.45-2c-.27-.05-.53-.02-.77.08-.24.1-.45.27-.59.5l-5.82 8.91c-.24.36-.28.82-.12 1.23.16.4.51.7.94.8M60.09 9.85 54.28.62c-.31-.49-.89-.72-1.45-.59l-10.58 2.6c-.42.1-.77.41-.93.82-.16.41-.1.87.14 1.23l5.97 8.81c.15.22.36.39.6.49.24.1.51.12.77.07l10.41-2.19c.43-.09.78-.39.96-.78.17-.4.13-.86-.1-1.23M16.3 11.81l10.63 2.41c.56.13 1.14-.12 1.44-.61l5.64-9.32c.23-.37.25-.84.08-1.23-.17-.4-.54-.69-.97-.77L22.66.29c-.27-.05-.54-.02-.78.08-.24.1-.45.27-.59.5l-5.82 8.91c-.24.37-.29.83-.12 1.23.16.41.51.71.94.8M71.58 40.64l-9.22 5.8c-.49.31-.72.89-.58 1.45l2.6 10.58c.1.42.41.77.82.93.41.16.87.1 1.23-.14l8.81-5.97c.22-.15.39-.36.49-.61.1-.24.13-.51.07-.77l-2.19-10.41c-.09-.43-.38-.78-.78-.95-.4-.17-.86-.13-1.23.1M73.29 32.35l2.41-10.63c.12-.56-.12-1.14-.61-1.44l-9.32-5.64c-.37-.23-.83-.25-1.23-.08-.4.18-.69.54-.77.97l-2.01 10.45c-.05.27-.02.53.08.77.1.24.27.45.5.6l8.91 5.82c.37.24.83.28 1.23.12.41-.16.71-.51.8-.94M9.84 14.66.62 20.47c-.49.31-.72.89-.58 1.45l2.6 10.58c.1.42.41.77.82.93.41.16.86.11 1.23-.14l8.81-5.97c.23-.15.39-.36.49-.6.1-.24.12-.51.07-.78l-2.19-10.41c-.09-.43-.38-.78-.78-.96-.4-.17-.86-.13-1.23.1M11.81 58.45l2.42-10.63c.13-.56-.12-1.14-.61-1.44l-9.32-5.64c-.37-.23-.84-.26-1.23-.08-.4.18-.69.53-.77.96L.29 52.09c-.05.27-.02.53.08.77.1.24.27.45.5.6l8.91 5.82c.36.24.82.28 1.23.12.4-.16.7-.52.8-.94M133.3 9.05 125.28 36.7 124.23 36.7 116.1 10.01 116.02 10.01 108.04 36.7 107 36.7 98.86 9.05 99.64 9.05 107.46 35.74 107.54 35.74 115.52 9.05 116.64 9.05 124.74 35.74 124.81 35.74 132.52 9.05 133.3 9.05zM134.98 17.3c.55-1.76 1.37-3.29 2.44-4.61 1.07-1.32 2.4-2.36 3.99-3.14 1.59-.78 3.42-1.16 5.48-1.16s3.9.39 5.48 1.16c1.59.77 2.92 1.82 3.99 3.14 1.07 1.32 1.89 2.85 2.44 4.61.56 1.76.83 3.62.83 5.58s-.28 3.82-.83 5.58c-.55 1.76-1.37 3.29-2.44 4.61-1.07 1.32-2.4 2.36-3.99 3.12-1.58.76-3.41 1.14-5.48 1.14s-3.89-.38-5.48-1.14c-1.58-.76-2.92-1.8-3.99-3.12-1.07-1.32-1.89-2.85-2.44-4.61-.56-1.76-.83-3.61-.83-5.58s.28-3.82.83-5.58m.81 11.08c.56 1.68 1.34 3.12 2.36 4.34 1.02 1.21 2.27 2.16 3.74 2.85 1.47.68 3.14 1.03 4.99 1.03s3.52-.34 5-1.03c1.47-.68 2.72-1.63 3.74-2.85 1.02-1.21 1.81-2.66 2.36-4.34.55-1.68.84-3.51.87-5.5-.02-1.99-.31-3.82-.87-5.5-.56-1.68-1.35-3.12-2.36-4.34-1.02-1.21-2.26-2.16-3.74-2.85-1.48-.68-3.14-1.03-5-1.03s-3.52.34-4.99 1.03c-1.47.69-2.72 1.63-3.74 2.85-1.02 1.21-1.81 2.66-2.36 4.34-.55 1.68-.84 3.51-.87 5.5.03 1.99.32 3.82.87 5.5M189.74 9.05 189.74 36.7 188.96 36.7 188.96 10.01 188.88 10.01 177.15 36.7 176.29 36.7 164.56 10.01 164.48 10.01 164.48 36.7 163.7 36.7 163.7 9.05 164.98 9.05 176.68 35.7 176.76 35.7 188.46 9.05 189.74 9.05zM193.03 36.7h-.85l11.19-27.66h1.01l10.92 27.66h-.85l-3.64-9.1h-14.1l-3.68 9.1Zm10.88-26.88h-.08l-6.82 17h13.48l-6.59-17ZM218.9 9.05 237.81 35.74 237.88 35.74 237.88 9.05 238.66 9.05 238.66 36.7 237.5 36.7 218.59 10.01 218.52 10.01 218.52 36.7 217.74 36.7 217.74 9.05 218.9 9.05zM115.55 50.38 103.14 50.38 103.14 55.36 114.53 55.36 114.53 59.43 103.14 59.43 103.14 65.46 116.12 65.46 116.12 69.68 98.35 69.68 98.35 46.23 115.55 46.23 115.55 50.38zM125.64 69.68 119.95 69.68 127.49 57.73 120.31 46.23 126.16 46.23 130.35 53.87 134.65 46.23 140.31 46.23 133.13 57.54 140.75 69.68 134.8 69.68 130.35 61.68 125.64 69.68zM160.02 59.53c-1.37 1.15-3.34 1.72-5.88 1.72h-4.88v8.43h-4.87v-23.45h10.07c2.32 0 4.17.61 5.55 1.81 1.38 1.21 2.07 3.08 2.07 5.61 0 2.77-.68 4.72-2.06 5.87m-3.74-8.45c-.62-.52-1.49-.78-2.61-.78h-4.42v6.91h4.42c1.12 0 1.99-.28 2.61-.84.62-.56.93-1.46.93-2.68s-.31-2.09-.93-2.61M184.06 67.59c-1.77 1.83-4.33 2.74-7.68 2.74s-5.91-.91-7.68-2.74c-2.38-2.24-3.56-5.46-3.56-9.67s1.19-7.52 3.56-9.67c1.77-1.83 4.33-2.74 7.68-2.74s5.91.91 7.68 2.74c2.36 2.15 3.55 5.38 3.55 9.67s-1.18 7.43-3.55 9.67m-3.06-3.56c1.14-1.43 1.71-3.47 1.71-6.11s-.57-4.66-1.71-6.1c-1.14-1.44-2.68-2.16-4.62-2.16s-3.49.72-4.65 2.15c-1.15 1.43-1.73 3.47-1.73 6.11s.58 4.68 1.73 6.11c1.15 1.43 2.71 2.15 4.65 2.15s3.48-.72 4.62-2.15M194.71 64.76c.01-.66.13-1.24.34-1.75.22-.51.5-.96.86-1.37.36-.41.75-.78 1.2-1.11.44-.34.9-.66 1.37-.97.47-.31.93-.63 1.4-.95.46-.32.88-.67 1.24-1.04.37-.37.64-.74.83-1.13.19-.39.28-.85.28-1.38 0-.43-.08-.81-.24-1.15-.16-.34-.37-.62-.65-.86-.27-.23-.59-.41-.95-.53-.36-.12-.74-.18-1.15-.18-.54 0-1.01.1-1.4.3-.39.2-.7.47-.94.82-.24.34-.41.73-.52 1.18-.11.44-.16.91-.14 1.41h-1.2c-.01-.68.07-1.31.24-1.89.17-.58.43-1.07.79-1.49.35-.42.8-.75 1.34-.98.54-.23 1.17-.35 1.89-.35.58 0 1.12.08 1.63.24.5.16.94.39 1.31.7.37.31.67.7.88 1.17.21.47.31 1.01.31 1.63 0 .56-.09 1.07-.28 1.52-.18.46-.43.87-.74 1.26-.31.38-.67.73-1.06 1.05-.4.32-.82.62-1.26.9-.32.22-.69.45-1.12.71-.43.26-.85.55-1.24.87-.4.32-.75.66-1.05 1.04-.3.37-.49.78-.57 1.23h7.4v1.1h-8.76ZM213.39 51.97c.6.42 1.07.97 1.41 1.62.34.66.56 1.39.68 2.21.12.81.18 1.6.18 2.38s-.06 1.58-.18 2.4c-.12.81-.35 1.55-.68 2.2-.34.66-.8 1.2-1.41 1.62-.6.42-1.39.63-2.37.63s-1.75-.21-2.36-.63c-.61-.42-1.08-.96-1.42-1.62-.34-.66-.56-1.39-.68-2.2-.12-.81-.18-1.6-.18-2.38s.06-1.58.18-2.4c.12-.81.35-1.55.68-2.21.34-.66.81-1.2 1.42-1.62.61-.42 1.39-.64 2.36-.64s1.76.21 2.37.64Zm-4.19.96c-.45.39-.8.88-1.03 1.46-.23.58-.39 1.22-.47 1.9-.08.68-.11 1.31-.11 1.88s.04 1.21.11 1.89c.08.68.23 1.31.47 1.9.23.59.58 1.08 1.03 1.47.46.39 1.07.59 1.83.59s1.37-.2 1.82-.59c.46-.39.8-.89 1.04-1.47.23-.59.39-1.22.46-1.9.08-.68.12-1.31.12-1.89s-.04-1.2-.12-1.88c-.08-.68-.23-1.32-.46-1.9-.24-.58-.58-1.07-1.04-1.46-.46-.39-1.07-.59-1.82-.59s-1.37.2-1.83.59ZM218.13 64.76c.01-.66.13-1.24.34-1.75.22-.51.5-.96.86-1.37.35-.41.75-.78 1.2-1.11.44-.34.9-.66 1.37-.97.47-.31.94-.63 1.4-.95.46-.32.88-.67 1.25-1.04.37-.37.64-.74.83-1.13.18-.39.28-.85.28-1.38 0-.43-.08-.81-.24-1.15-.16-.34-.37-.62-.65-.86-.27-.23-.59-.41-.95-.53-.36-.12-.75-.18-1.15-.18-.55 0-1.01.1-1.4.3-.39.2-.7.47-.94.82-.24.34-.42.73-.52 1.18-.11.44-.16.91-.14 1.41h-1.2c-.01-.68.07-1.31.24-1.89.17-.58.43-1.07.79-1.49.35-.42.8-.75 1.34-.98.54-.23 1.17-.35 1.89-.35.58 0 1.13.08 1.63.24.5.16.94.39 1.31.7.37.31.67.7.88 1.17.21.47.31 1.01.31 1.63 0 .56-.09 1.07-.27 1.52-.19.46-.43.87-.74 1.26-.31.38-.67.73-1.07 1.05-.4.32-.82.62-1.26.9-.32.22-.69.45-1.12.71-.43.26-.85.55-1.25.87-.4.32-.75.66-1.06 1.04-.3.37-.5.78-.57 1.23h7.39v1.1h-8.76ZM233.53 57.27c.57 0 1.09-.03 1.56-.1s.87-.2 1.21-.4c.34-.2.6-.46.79-.79s.29-.76.29-1.28c0-.42-.08-.78-.23-1.08-.15-.3-.36-.54-.62-.73-.26-.19-.57-.33-.91-.42-.35-.09-.71-.13-1.1-.13-.43 0-.82.07-1.17.21-.35.14-.65.34-.91.6-.25.26-.45.57-.59.91-.14.35-.21.73-.21 1.15h-1.22c0-.61.11-1.16.31-1.65.21-.49.54-.94.98-1.36.42-.38.89-.63 1.42-.73.53-.11 1.07-.16 1.63-.16s1.03.07 1.5.2c.46.13.87.34 1.21.61.34.27.62.62.82 1.04.2.42.31.91.31 1.47 0 .7-.16 1.3-.47 1.81-.31.51-.79.9-1.44 1.18.48.15.88.35 1.19.6.31.25.56.52.73.82.18.3.3.61.36.94.06.33.09.65.09.95 0 .56-.09 1.08-.29 1.56-.19.48-.47.91-.84 1.28-.37.37-.82.66-1.36.89-.54.22-1.15.34-1.84.35-.78 0-1.45-.07-2.02-.21-.57-.14-1.05-.37-1.43-.7-.38-.32-.68-.75-.9-1.28-.22-.53-.36-1.18-.44-1.97h1.22c0 1.03.31 1.81.92 2.33.62.53 1.42.79 2.41.79.48 0 .93-.08 1.35-.25.42-.16.78-.39 1.08-.67.3-.28.53-.6.69-.97.16-.37.23-.75.22-1.14-.03-.55-.15-1-.38-1.36-.23-.36-.54-.65-.92-.86-.39-.21-.84-.35-1.36-.42-.52-.07-1.07-.09-1.66-.05v-.99Z" fill="#ef5a49"/></svg>