<svg xmlns="http://www.w3.org/2000/svg" width="162.47" height="30"><path d="M28.76 17.82c-.67.58-1.87 1.83-1.87 2.62 0 1.73 3.29 1.73 4.29 1.73a33.73 33.73 0 009.63-1.44 18 18 0 00.62 4.08 36.36 36.36 0 01-9.38 1.1c-3.75 0-5.23-.41-6.41-.89-.77-.31-3.05-1.44-3.05-3.86s2.5-4.73 3.48-5.62zm10.08-7.89a16.67 16.67 0 00-6.05 3.91c-.86-.75-1.77-1.51-2.52-2.06.89-.82 1.11-1 1.8-1.57-1.49.12-5.52.34-7.56.29l-.19-4a48.3 48.3 0 006 .32A45.38 45.38 0 0037 6.25zm1.06-3.75a17.25 17.25 0 012.18 2.52 9.65 9.65 0 00-1.41 1.73 26.19 26.19 0 00-2.31-2.66zm1.85-2A26.76 26.76 0 0144 6.49a9.56 9.56 0 00-1.53 1.64 21.26 21.26 0 00-2.09-2.36zm15.98 22.76h-3.46v-6.4a23.83 23.83 0 01-7 6.12 8.22 8.22 0 00-3.07-2.38 20.55 20.55 0 007.7-6.14H45V15h4.49a19.19 19.19 0 00-1.92-3.56l1.73-1h-3.21V7.38h8.18V4.93l3.6.22c.29 0 .53 0 .53.36s-.48.41-.67.46v1.41h8.14v3.12h-3.12l1.46.63c.17.07.24.16.24.29 0 .31-.29.36-.48.4A22 22 0 0162.46 15H67v3.12h-7.13a18.65 18.65 0 007.46 5.8 11.12 11.12 0 00-2.54 2.6 18.83 18.83 0 01-7.06-6.15zM54.27 15v-4.5h-3.09a13.53 13.53 0 012 3.7 11.92 11.92 0 00-1.83.82zm3.46-4.52V15h2.78a16.36 16.36 0 00-1.65-.87 18.78 18.78 0 001.82-3.65zm21.55 9.77a16.5 16.5 0 01-2.83 2.9 6.18 6.18 0 00-2.26-1.61c.43-.33.79-.6 1.35-1.08-1.49.65-3.32 1.35-5.26 2 0 .28-.1.62-.36.62s-.34-.31-.38-.55l-.82-3.39a17.74 17.74 0 002.71-.5v-5.45H69v-3.12h2.47v-5l3.53.2c.29 0 .51.05.51.26s-.15.29-.51.46v4.08h2.14v3.12H75v4.37c.58-.24.94-.38 1.52-.65h-.17v-2.42h14.52v2.42h-9.29l-.45.77h9.58c0 2.42-.08 7.22-1.64 8.45-.91.72-2.44.79-4 .79a7 7 0 00-.64-2.59 19 19 0 01-2.86 3 6.07 6.07 0 00-2.55-1.54 16.68 16.68 0 005.07-5.54h-1.04a16.84 16.84 0 01-6.31 6.36 6.18 6.18 0 00-2.12-1.92 14.73 14.73 0 005.6-4.44zm-2.18-3.34a9.74 9.74 0 00-.17 2.14 15.17 15.17 0 001.46-2.14zm12.09-3.21H78V5.25h11.19zM86 8.56v-.82h-4.78v.82zm-4.73 1.92v.81H86v-.81zm5.67 9.77A26.2 26.2 0 0185 23.58a8 8 0 00.84.05c.48 0 .92-.05 1.08-.6a11.81 11.81 0 00.44-2.78zm17.37 2.57c5.21-1 6.75-5 6.75-7.49a5.68 5.68 0 00-5.55-5.88c-.74 8.78-4.37 15.33-6.91 15.33-1.87 0-5.35-3.16-5.35-7.6A11.78 11.78 0 01105 6c5.26 0 9.84 3.58 9.84 9.31a11.21 11.21 0 01-2.84 7.41 13.4 13.4 0 01-5.21 3.48 15.37 15.37 0 00-2.48-3.38zm-7.51-5.93c0 1.85 1 3.24 1.54 3.24s1-1.08 1.29-1.71a20.9 20.9 0 001.85-8.25c-2.78 1.03-4.68 4.56-4.68 6.72zm32.52-8.72a17.73 17.73 0 002.07-3.38l3.6.91c.16 0 .33.12.33.29s-.33.38-.69.34c-.63 1-.87 1.39-1.2 1.84h5.49v3H117v-3h5.28a10.92 10.92 0 00-1.37-2l3.24-1.46a16.05 16.05 0 011.95 3l-1.3.5zm-7.7 13.54v5.19h-3.36V12h9.55v12.54c0 2-1 2.26-4.2 2.36a6.9 6.9 0 00-1.23-3.41c.36 0 1.08.12 1.44.12s.72-.05.72-.77v-1.13zm2.92-6.09v-1.06h-2.92v1.06zm0 3.57v-1.08h-2.92v1.08zm8.19-6.84c.22 0 .36.07.36.24s-.14.27-.36.41v9.55h-3.46V12.21zm5.06-.5c.22 0 .44 0 .44.26s-.27.31-.58.48V24a2.28 2.28 0 01-1 2.33c-.87.57-1.9.55-3.89.53a8.94 8.94 0 00-.79-3.6c.41 0 1.29.16 1.65.16.6 0 .6-.38.6-.67V11.68zm9.43-5.07c.46.17.65.24.65.41s-.48.26-.65.29a27.88 27.88 0 00-1.56 9.91 8.29 8.29 0 00.17 1.92c.15-.26.72-1.32 1-1.8a7 7 0 001.85 2 13.54 13.54 0 00-1.59 5.74l-3.4.91a25.21 25.21 0 01-1.71-9.6 45.26 45.26 0 011.54-11.14zm6.34 11.28a6.75 6.75 0 00-.36 1.71c0 1.05.58 1.22 3.34 1.22a24.07 24.07 0 005.93-.65 15.59 15.59 0 00-.36 3.92 51 51 0 01-6.08.31c-3.57 0-6.33-.63-6.33-3.55a8.9 8.9 0 01.79-3.53zm-2.9-10.25c.72.05 1.68.12 3.12.12a28.24 28.24 0 007.05-.76c0 .38.12 2.49.34 3.64a34.8 34.8 0 01-7.39.73c-1.42 0-2.36-.08-3.12-.12zM0 0h10v30H0z" fill="#5ab400" data-name="レイヤー 2"/></svg>