<svg xmlns="http://www.w3.org/2000/svg" width="186.71" height="30"><path d="M37.76 8a1.43 1.43 0 001.15-.33l2.45 1.73a13.4 13.4 0 00-1.53 3.19c-1.88 4.82-3.32 7.56-6 9.91a27.26 27.26 0 01-6.53 4.2 10.56 10.56 0 00-2.74-3.16 20.88 20.88 0 007.58-4.8 18.43 18.43 0 003.86-7.3H22.09V8zm6.1-1.63a2.26 2.26 0 11-2.26-2.28 2.26 2.26 0 012.26 2.26zm-3.31 0a1 1 0 001.05 1.04 1.07 1.07 0 001.06-1.06 1.06 1.06 0 10-2.11 0zm12.04-.16c.31 0 .51 0 .51.24s-.34.43-.51.5V20.8a26.87 26.87 0 0012.56-8.71 17.18 17.18 0 001.77 3.79c-2.54 2.66-6 6.26-16 10.13l-2.52-2.4a14.13 14.13 0 00.1-1.44V6zm19.08 4.03v-3.6h12.27a6.75 6.75 0 001.65-.19l1.88 2a6.9 6.9 0 00-.92 1.55 40.38 40.38 0 01-3 5.88 64.39 64.39 0 017.2 6.58c-.8.91-2.09 2.35-2.88 3.26a33.23 33.23 0 00-6.46-6.84 27.85 27.85 0 01-9.22 7.18 10.78 10.78 0 00-2.73-3.29 20.19 20.19 0 007.8-4.8A19.1 19.1 0 0082 10.24zM100.4 5.8c.29 0 .46 0 .46.24s-.29.38-.46.45v11.74h-4V5.68zm11-.43c.24 0 .46 0 .46.24s-.29.4-.46.48v7.82a13 13 0 01-1.92 7.42 14.67 14.67 0 01-7.27 5.54 6.87 6.87 0 00-2.5-3.07c7.52-2.62 7.66-7.42 7.66-9.86V5.22zm13 .43c.29 0 .46 0 .46.24s-.29.38-.46.45v11.74h-4V5.68zm11-.43c.24 0 .46 0 .46.24s-.29.4-.46.48v7.82a13 13 0 01-1.92 7.42 14.67 14.67 0 01-7.27 5.54 6.87 6.87 0 00-2.5-3.07c7.52-2.62 7.66-7.42 7.66-9.86V5.22zM162.44 14v4.08h-20.86V14zm5.23-3.76v-3.6h12.27a6.75 6.75 0 001.65-.19l1.88 2a6.9 6.9 0 00-.92 1.53 40.38 40.38 0 01-3 5.88 64.39 64.39 0 017.2 6.58c-.8.91-2.09 2.35-2.88 3.26a33.23 33.23 0 00-6.46-6.84 27.75 27.75 0 01-9.22 7.18 10.78 10.78 0 00-2.73-3.29 20.19 20.19 0 007.8-4.8 19.1 19.1 0 004.8-7.75zM0 0h10v30H0z" fill="#5ab400" data-name="レイヤー 2"/></svg>