<svg xmlns="http://www.w3.org/2000/svg" width="630" height="54.46"><path d="M0 49.46h630v5H0zm12.24-26.17h4.93v4.25h-4.93v6.37H7.41v-6.37h-5v-4.25h5v-1.73H1.94v-4.25H4a12.79 12.79 0 00-1-2.66l2.81-.79H1.22V9.65h6.19V8H3V4h4.41V1l5.08.25c.25 0 .5.14.5.39s-.36.58-.75.83v1.45h4.64V8h-4.64v1.65h5.51v4.21h-4.14l2.41.5c.32.07.65.15.65.51s-.29.5-.94.54c-.32.86-.65 1.62-.79 1.9h2.55v4.25h-5.25zm-4.5-9.43A24.68 24.68 0 019 16.92l-1.26.39h2.7a17.69 17.69 0 001.15-3.45zm15.91 20h-5V1.62h14.72c0 5.76 0 8-.22 9.18-.43 2.37-2.63 3.06-6.51 3.09a10.6 10.6 0 00-1.91-5 8.33 8.33 0 002.27.29c1.22 0 1.36-.25 1.36-1.62v-1.4h-4.71v8.53h8.46l2.41 2.52A47.35 47.35 0 0131 26.85a20.81 20.81 0 004.25 4 17.21 17.21 0 00-4 3.24 38.22 38.22 0 01-2.88-3 14 14 0 01-2.16 2.59 13.12 13.12 0 00-2.59-2.09zm3.09-14.58a17 17 0 001.12 3.28 19 19 0 001.08-3.46h-5.29v2.12zM23.65 29.7a23 23 0 001.8-2.49 20.58 20.58 0 01-1.8-4zm26.71-15.19V26.1a3 3 0 002.23 2.52c1.77.54 5.22.54 8 .54 1.76 0 10.54-.11 14.32-.87a9.18 9.18 0 00-1.37 5.19H57.06c-5.29 0-7.2-1-8.79-2.81-.57.57-3.7 2.77-3.81 2.84a3.59 3.59 0 01.07.65.5.5 0 01-.47.54c-.18 0-.43-.25-.57-.5l-2.7-4.83a29.63 29.63 0 004.46-2.45v-7.66h-4.14v-4.75zm-5.9-13.36a25.68 25.68 0 015.36 5A67.83 67.83 0 0046.51 10a32.52 32.52 0 00-5.43-5.33zm27.72 9v17.93h-5.33v-.58h-8.24v.86h-5.26V10.19h4.5c.11-.25.54-1.34.65-1.55h-7.6V4.36h4a20.74 20.74 0 00-1.55-2.06L57.74.18a16.24 16.24 0 012.56 3.71c-.83.18-1.26.32-1.77.47h5.26A27.63 27.63 0 0065.66.14l5 1.44a.55.55 0 01.47.51c0 .5-.47.61-.86.68-.07.15-.58 1-.9 1.59h4.68v4.28h-9.83c-.11.21-.5 1.08-.75 1.55zM66.85 15v-1.57h-8.24V15zm0 4.47v-1.58h-8.24v1.55zm0 4.57v-1.65h-8.24V24zM88 25.45v-3.67h6.55c0-.25 0-.43.11-1.41H89v-3.56h2.41A12.51 12.51 0 0090 15.08l3.64-1.65h-7.13v20.48h-5.08V1.58H96v11.85h-1.75a29.35 29.35 0 012 2.91l-1.08.47h3.43a17.68 17.68 0 001.51-3.38h-1.69V1.58H113v28.94c0 1.52-1.12 3.89-6.37 3.64a15 15 0 00-1.37-4.72 20.71 20.71 0 00-2.45 3.28A16.3 16.3 0 0197.2 28a13.78 13.78 0 01-6.7 5.3 13.07 13.07 0 00-3-3.68c3.2-1.08 4.75-2.16 5.94-4.17zM91.26 6.3V5h-4.75v1.3zm-4.75 2.41V10h4.75V8.71zm12.81 11.66v1.41h7.34v3.67h-5.76a14.59 14.59 0 004.83 3.55c.61.07 1.26.18 1.48.18.79 0 .79-.69.79-1.23V13.43h-7.31l3.89 1.29a.48.48 0 01.32.47c0 .22-.28.36-.9.43-.17.51-.32.76-.5 1.19h2.09v3.56zM108 6.3V5h-4.79v1.3zm-4.79 2.41V10H108V8.71zm47.09 4.82a29.41 29.41 0 014.28 7.17 17.81 17.81 0 00-4.14 2.59c-.29-.72-.5-1.19-.94-2.09-3 .22-3.34.25-5.4.36v12.49h-5.29V21.81c-1 0-5.4.15-6.26.18-.18.36-.32.76-.76.76a.56.56 0 01-.46-.5l-.76-4.83c.94 0 5.22.07 6.08.07.22-.21.47-.46.69-.64a32.92 32.92 0 00-6.34-4.07l2.95-4c1.26.75 1.37.86 1.8 1.12 1.15-1.52 1.58-2.16 1.83-2.56-.5.07-2.84.29-3.31.36a15.17 15.17 0 00-2.09-4.21 51.76 51.76 0 01-3.2 7.09l.9.5c.36.22.43.36.43.54 0 .36-.29.47-.65.61v18.29a25.67 25.67 0 004.29-7.34l3.89 1.87c.5.26.72.4.72.62s-.33.39-.8.46a35.93 35.93 0 01-3.81 6.63 10.34 10.34 0 00-4.29-2.2v3.49h-5.47V17.71c-.75.9-.82 1-1.15 1.37A15.37 15.37 0 00118.8 16 36.05 36.05 0 00127.47.72L132.55 2c.32.07.68.29.68.61a.62.62 0 01-.32.51A55.82 55.82 0 00148.39.54l3 3.78a.81.81 0 01.18.43.43.43 0 01-.47.47c-.14 0-.57-.11-.86-.14a41.19 41.19 0 01-5.9 1.4.49.49 0 01.25.43c0 .29-.22.47-1 .61-1.66 2.27-2.16 3-3.92 5.15.39.29.57.43 1 .83a41.19 41.19 0 004.93-6.41l4.61 2.41c.29.15.54.36.54.61 0 .44-.47.44-1.19.51a55.93 55.93 0 01-6.48 6.87l4.11-.18c-.44-.61-.69-1-1.16-1.58zm-1.55 8.75a45.27 45.27 0 004.79 8.1 11.52 11.52 0 00-4.43 2.12 40.38 40.38 0 01-4.57-8.24zm28.12 5.4c7.81-1.44 10.13-7.49 10.13-11.23a8.53 8.53 0 00-8.31-8.82c-1.12 13.18-6.56 23-10.37 23-2.81 0-8-4.75-8-11.41 0-7.74 7.06-16.77 17.64-16.77 7.88 0 14.76 5.36 14.76 14a16.8 16.8 0 01-4.25 11.13c-2.2 2.55-4.75 3.88-7.81 5.22a23.54 23.54 0 00-3.79-5.12zm-11.27-8.89c0 2.77 1.55 4.86 2.3 4.86s1.55-1.62 1.95-2.56a31.66 31.66 0 002.77-12.38c-4.18 1.55-7.02 6.84-7.02 10.08zm51.08-2.92a4.4 4.4 0 01-.25-1.54V.65l5.47.43c.36 0 .61.14.61.4s-.28.5-.93.86v3.49a37.77 37.77 0 006.51-3.49l3.75 3.38c.14.15.32.33.32.51a.51.51 0 01-.58.5 3.16 3.16 0 01-.75-.14 84.93 84.93 0 01-9.25 4v1.15c0 1.33 1.08 1.33 1.58 1.33h3.53c1.26 0 1.62-1.47 2.09-3.27a12.71 12.71 0 004.28 1.94c-1 6-3.42 6-5.4 6h-7.49a5.05 5.05 0 01-2.8-.83c-.26.54-.72 1.47-1 2h12.24v14.85H223v-1h-14v1h-5.6V19h7.27a28.58 28.58 0 001.3-2.92c-5.15.94-5.62 1-10.73 2-.11.44-.25.76-.58.76s-.43-.36-.5-.68l-1.22-4.76c1.33-.07 2.88-.21 4-.39V.76l5.83.36a.48.48 0 01.47.5c0 .32-.33.5-.83.76v2.55h7.05v4.32h-7.05v2.92c4-.62 5.72-1 7.05-1.26a26.44 26.44 0 00-.54 4.57 2.86 2.86 0 00-.28.07zm6.32 8.36v-1.3h-14v1.3zm0 4.71v-1.4h-14v1.4zm26.26-2.12a38.45 38.45 0 009.33-4.82v-4.15h-3.75a28.77 28.77 0 012.77 3.6A27.51 27.51 0 00254.3 24a46.58 46.58 0 00-3.27-4.1l2.8-2.06h-3.06a8.44 8.44 0 00.76.87 8.19 8.19 0 00-2.2 3.85c-.68-.9-1.08-1.44-1.62-2.3V34H243V22.35a20.92 20.92 0 01-1.8 3.65 13.24 13.24 0 00-3.38-3.27 32 32 0 004.6-11.34h-3.6V7.06h3.93V1l5 .26c.4 0 .83.14.83.54s-.5.54-.83.61v4.65h2.63v4.35h-2.63v1.15a19.76 19.76 0 002.81 5V14h8.07v-1.37h-6.13V9.25h6.09V7.92h-7.74V4.28h3.52A13.42 13.42 0 00252.79 2L257 0a31.26 31.26 0 012.34 3.67l-1.19.61h4a25.65 25.65 0 001.77-4l4.6 1.37c.44.14.72.28.72.54 0 .46-.46.5-1.08.5-.25.47-.28.58-.86 1.58h4.18v3.65h-7.82v1.33h6v3.38h-6V14h8.57v3.88h-2.66l2.55 2.09a.67.67 0 01.36.54c0 .54-.61.47-1 .47a20.51 20.51 0 01-3.68 3.92 17.55 17.55 0 005.4 3.1 9.64 9.64 0 00-2.73 3.74 23.66 23.66 0 01-6.81-5.61v2.8c0 4-1.25 5.12-6.91 5.33a12.56 12.56 0 00-2-5 14.92 14.92 0 002.27.18c1.55 0 1.59-.39 1.59-1.29v-1.41c-.72.44-3.1 1.88-6.48 3.6 0 .22.1 1.16-.4 1.16s-.65-.47-.86-1zm14.36-6.91a12.91 12.91 0 001.48 2.23 23.15 23.15 0 003.31-4.29h-4.79zm13.72-.36a38.52 38.52 0 008-8.39c2.92-4 3.89-5.26 6.08-5.26s3.75 1.52 6.09 4.47c3.09 3.85 7.95 9.93 14.79 14.65a35.63 35.63 0 00-4 5.47c-6.05-5.11-10.22-10.26-15.08-16.24-.29-.36-1.26-1.54-2-1.54s-1.26 1-1.76 1.69c-4.1 6-4.53 6.69-7.34 9.79z" fill="#5ab400" data-name="レイヤー 2"/></svg>